0, 0, Header, 1, 9, 480
1, 0, Start_track
1, 0, Title_t, "Suite espagnole"
1, 0, Title_t, "Cataluna"
1, 0, Copyright_t, "Copyright © 2001 by Bernd Krueger"
1, 0, Text_t, "Isaac Albeniz"
1, 0, Text_t, "Curranda"
1, 0, Text_t, "Fertiggestellt am 11.3.2001\012"
1, 0, Text_t, "Update am 30.3.2001\012"
1, 0, Text_t, "Update am 26.5.2001\012"
1, 0, Text_t, "Normierung: 23.12.2002\012"
1, 0, Text_t, "Update am 4.9.2010\012"
1, 0, Text_t, "Dauer: 3:59 Minuten\012"
1, 0, SMPTE_offset, 96, 0, 3, 0, 0
1, 0, Time_signature, 6, 3, 12, 8
1, 0, Key_signature, -2, "major"
1, 0, Tempo, 573121
1, 0, Marker_t, "Allegro"
1, 1400, Tempo, 579710
1, 1600, Tempo, 583034
1, 1760, Tempo, 586453
1, 1920, Tempo, 589855
1, 2080, Tempo, 593354
1, 2240, Tempo, 596837
1, 2400, Tempo, 600360
1, 2560, Tempo, 603986
1, 2720, Tempo, 607595
1, 2880, Tempo, 611309
1, 4320, Tempo, 566679
1, 5040, Tempo, 501798
1, 5520, Tempo, 528123
1, 5760, Tempo, 501630
1, 5760, Marker_t, "Teil 1"
1, 6240, Tempo, 518493
1, 6480, Tempo, 508733
1, 6960, Tempo, 517286
1, 7200, Tempo, 528123
1, 7680, Tempo, 506329
1, 7920, Tempo, 496853
1, 8400, Tempo, 525348
1, 8640, Tempo, 499376
1, 9120, Tempo, 516040
1, 9360, Tempo, 506885
1, 9840, Tempo, 530879
1, 10080, Tempo, 533713
1, 10560, Tempo, 518493
1, 10800, Tempo, 506885
1, 11040, Tempo, 528123
1, 11280, Tempo, 548196
1, 11520, Tempo, 528681
1, 12000, Tempo, 576369
1, 12240, Tempo, 528681
1, 12720, Tempo, 561745
1, 12960, Tempo, 536529
1, 13680, Tempo, 521014
1, 13920, Tempo, 539277
1, 14160, Tempo, 548196
1, 15080, Tempo, 518493
1, 15120, Tempo, 519931
1, 15360, Tempo, 531303
1, 15600, Tempo, 548196
1, 15840, Tempo, 516040
1, 16320, Tempo, 536577
1, 16560, Tempo, 521014
1, 17040, Tempo, 530879
1, 17280, Tempo, 548196
1, 17760, Tempo, 595888
1, 18000, Tempo, 567644
1, 18240, Tempo, 589333
1, 18480, Tempo, 596837
1, 19200, Tempo, 516040
1, 20880, Tempo, 501798
1, 21360, Tempo, 528123
1, 21600, Tempo, 503990
1, 22080, Tempo, 518493
1, 22320, Tempo, 508733
1, 22800, Tempo, 517286
1, 23040, Tempo, 528123
1, 23520, Tempo, 506329
1, 23760, Tempo, 496853
1, 24240, Tempo, 525348
1, 24480, Tempo, 499376
1, 24960, Tempo, 516040
1, 25200, Tempo, 506885
1, 25680, Tempo, 530879
1, 25920, Tempo, 533713
1, 26400, Tempo, 518493
1, 26640, Tempo, 506885
1, 26880, Tempo, 528123
1, 27120, Tempo, 548196
1, 27360, Tempo, 528681
1, 27840, Tempo, 576369
1, 28080, Tempo, 528681
1, 28560, Tempo, 561745
1, 28800, Tempo, 536529
1, 29520, Tempo, 521014
1, 29760, Tempo, 539277
1, 30000, Tempo, 548196
1, 30920, Tempo, 518493
1, 30960, Tempo, 519931
1, 31200, Tempo, 531303
1, 31440, Tempo, 548196
1, 31680, Tempo, 516040
1, 32160, Tempo, 536577
1, 32400, Tempo, 521014
1, 32880, Tempo, 530879
1, 33120, Tempo, 548196
1, 33600, Tempo, 595888
1, 33840, Tempo, 567644
1, 34080, Tempo, 589333
1, 34320, Tempo, 596837
1, 35280, Tempo, 521014
1, 36720, Tempo, 501798
1, 37200, Tempo, 528123
1, 37440, Tempo, 506329
1, 37920, Tempo, 518493
1, 38160, Tempo, 508733
1, 38640, Tempo, 517286
1, 38880, Tempo, 528123
1, 39360, Tempo, 506329
1, 39600, Tempo, 496853
1, 40080, Tempo, 561745
1, 40320, Tempo, 506329
1, 40800, Tempo, 518493
1, 41040, Tempo, 508733
1, 41520, Tempo, 517286
1, 41760, Tempo, 528123
1, 42240, Tempo, 506329
1, 42460, Tempo, 496853
1, 42940, Tempo, 561745
1, 43200, Tempo, 506329
1, 43680, Tempo, 536577
1, 43920, Tempo, 492449
1, 44400, Tempo, 511160
1, 44640, Tempo, 492449
1, 45120, Tempo, 511160
1, 45300, Tempo, 541956
1, 45360, Tempo, 492449
1, 45600, Tempo, 501630
1, 45840, Tempo, 511160
1, 46080, Tempo, 492449
1, 46320, Tempo, 501630
1, 46560, Tempo, 523560
1, 46800, Tempo, 492449
1, 47280, Tempo, 511160
1, 47520, Tempo, 492449
1, 48000, Tempo, 511160
1, 48180, Tempo, 541956
1, 48240, Tempo, 492449
1, 48480, Tempo, 501630
1, 48720, Tempo, 511160
1, 48960, Tempo, 492449
1, 49440, Tempo, 511160
1, 49666, Tempo, 492449
1, 50146, Tempo, 511160
1, 50400, Tempo, 497018
1, 50866, Tempo, 511160
1, 51060, Tempo, 558815
1, 51120, Tempo, 501630
1, 51586, Tempo, 511160
1, 51840, Tempo, 503990
1, 52306, Tempo, 511160
1, 52320, Tempo, 523560
1, 52560, Tempo, 506329
1, 53026, Tempo, 511160
1, 53040, Tempo, 521014
1, 53280, Tempo, 506329
1, 53746, Tempo, 511160
1, 54000, Tempo, 518493
1, 54240, Tempo, 526085
1, 54480, Tempo, 536577
1, 54720, Tempo, 511160
1, 56160, Tempo, 506329
1, 56626, Tempo, 511160
1, 56640, Tempo, 523560
1, 56880, Tempo, 503990
1, 57360, Tempo, 536577
1, 57600, Tempo, 506329
1, 58066, Tempo, 511160
1, 58080, Tempo, 523560
1, 58320, Tempo, 503990
1, 58800, Tempo, 536577
1, 59040, Tempo, 513567
1, 59506, Tempo, 511160
1, 59520, Tempo, 523560
1, 59560, Tempo, 528681
1, 59760, Tempo, 518493
1, 60240, Tempo, 536577
1, 61440, Tempo, 539277
1, 61920, Tempo, 513567
1, 62386, Tempo, 511160
1, 62400, Tempo, 523560
1, 62640, Tempo, 508733
1, 63120, Tempo, 536577
1, 63360, Tempo, 506329
1, 63826, Tempo, 511160
1, 63840, Tempo, 523560
1, 64080, Tempo, 503990
1, 64560, Tempo, 536577
1, 64800, Tempo, 521014
1, 65266, Tempo, 511160
1, 65280, Tempo, 553097
1, 65520, Tempo, 533903
1, 66000, Tempo, 582977
1, 66200, Tempo, 544712
1, 66400, Tempo, 541956
1, 66560, Tempo, 539277
1, 66720, Tempo, 536577
1, 66880, Tempo, 533903
1, 66960, Tempo, 523560
1, 67440, Tempo, 539277
1, 67680, Tempo, 517019
1, 68160, Tempo, 529474
1, 68400, Tempo, 519481
1, 68880, Tempo, 528169
1, 69120, Tempo, 539277
1, 69600, Tempo, 517019
1, 69840, Tempo, 507357
1, 70320, Tempo, 536433
1, 70560, Tempo, 509901
1, 71040, Tempo, 526917
1, 71280, Tempo, 517554
1, 71760, Tempo, 542054
1, 72000, Tempo, 544959
1, 72480, Tempo, 529474
1, 72720, Tempo, 517554
1, 72960, Tempo, 539277
1, 73200, Tempo, 559754
1, 73440, Tempo, 539860
1, 73900, Tempo, 550610
1, 73920, Tempo, 553352
1, 73940, Tempo, 556174
1, 73960, Tempo, 558971
1, 73980, Tempo, 561850
1, 74000, Tempo, 564706
1, 74020, Tempo, 567644
1, 74040, Tempo, 570559
1, 74060, Tempo, 573559
1, 74080, Tempo, 576535
1, 74100, Tempo, 579598
1, 74120, Tempo, 582694
1, 74140, Tempo, 585766
1, 74160, Tempo, 539860
1, 74640, Tempo, 547845
1, 74660, Tempo, 550610
1, 74680, Tempo, 553352
1, 74700, Tempo, 556174
1, 74720, Tempo, 558971
1, 74740, Tempo, 561850
1, 74760, Tempo, 564706
1, 74780, Tempo, 567644
1, 74800, Tempo, 570559
1, 74820, Tempo, 573559
1, 74840, Tempo, 576535
1, 74860, Tempo, 582694
1, 74880, Tempo, 547795
1, 75600, Tempo, 532009
1, 75840, Tempo, 550610
1, 76080, Tempo, 559754
1, 76320, Tempo, 536577
1, 76400, Tempo, 539277
1, 76480, Tempo, 541956
1, 76560, Tempo, 544712
1, 76600, Tempo, 547445
1, 76680, Tempo, 550257
1, 76760, Tempo, 553097
1, 76800, Tempo, 555916
1, 77000, Tempo, 529474
1, 77040, Tempo, 530879
1, 77280, Tempo, 542495
1, 77520, Tempo, 559754
1, 77760, Tempo, 526917
1, 78240, Tempo, 547845
1, 78480, Tempo, 532009
1, 78960, Tempo, 542054
1, 79200, Tempo, 559754
1, 79680, Tempo, 608458
1, 79920, Tempo, 579598
1, 80160, Tempo, 601805
1, 80400, Tempo, 609446
1, 80520, Tempo, 640273
1, 80640, Tempo, 651678
1, 80880, Tempo, 582977
1, 81100, Tempo, 561745
1, 81120, Tempo, 539277
1, 81780, Tempo, 544712
1, 81820, Tempo, 539277
1, 81840, Tempo, 602531
1, 81860, Tempo, 623441
1, 81880, Tempo, 638162
1, 81900, Tempo, 649702
1, 81920, Tempo, 665779
1, 81940, Tempo, 682594
1, 81960, Tempo, 754243
1, 82060, Tempo, 496853
1, 82080, Tempo, 511160
1, 82800, Tempo, 501798
1, 83280, Tempo, 528123
1, 83520, Tempo, 506329
1, 84000, Tempo, 518493
1, 84240, Tempo, 508733
1, 84720, Tempo, 517286
1, 84960, Tempo, 528123
1, 85440, Tempo, 506329
1, 85680, Tempo, 496853
1, 86160, Tempo, 561745
1, 86400, Tempo, 506329
1, 86880, Tempo, 518493
1, 87120, Tempo, 508733
1, 87600, Tempo, 517286
1, 87840, Tempo, 528123
1, 88320, Tempo, 506329
1, 88540, Tempo, 496853
1, 89020, Tempo, 561745
1, 89280, Tempo, 544712
1, 90000, Tempo, 518493
1, 90120, Tempo, 516040
1, 90200, Tempo, 513567
1, 90280, Tempo, 511160
1, 90360, Tempo, 508733
1, 90440, Tempo, 506329
1, 90520, Tempo, 503990
1, 90600, Tempo, 501630
1, 90680, Tempo, 499293
1, 90720, Tempo, 550257
1, 91440, Tempo, 509944
1, 91920, Tempo, 576480
1, 92160, Tempo, 519660
1, 92880, Tempo, 509944
1, 93120, Tempo, 522148
1, 93360, Tempo, 591949
1, 93600, Tempo, 748970
1, 94320, Tempo, 519660
1, 94786, Tempo, 524567
1, 94800, Tempo, 537297
1, 95760, Tempo, 517241
1, 96240, Tempo, 542545
1, 96480, Tempo, 522148
1, 96946, Tempo, 524567
1, 96960, Tempo, 537297
1, 97200, Tempo, 517241
1, 97680, Tempo, 550711
1, 97920, Tempo, 553403
1, 98640, Tempo, 517241
1, 99120, Tempo, 550711
1, 99360, Tempo, 533903
1, 99840, Tempo, 586166
1, 99960, Tempo, 619835
1, 100080, Tempo, 555916
1, 100560, Tempo, 599161
1, 100800, Tempo, 567644
1, 101040, Tempo, 550257
1, 101266, Tempo, 511160
1, 101280, Tempo, 523560
1, 101520, Tempo, 501798
1, 102000, Tempo, 528123
1, 102240, Tempo, 501630
1, 102240, Marker_t, "Teil 1 Wiederholung"
1, 102720, Tempo, 518493
1, 102960, Tempo, 508733
1, 103440, Tempo, 517286
1, 103680, Tempo, 528123
1, 104160, Tempo, 506329
1, 104400, Tempo, 496853
1, 104880, Tempo, 525348
1, 105120, Tempo, 499376
1, 105360, Tempo, 489796
1, 105600, Tempo, 516040
1, 105840, Tempo, 506885
1, 106320, Tempo, 530879
1, 106560, Tempo, 533713
1, 107040, Tempo, 518493
1, 107280, Tempo, 506885
1, 107520, Tempo, 530973
1, 107760, Tempo, 548196
1, 108000, Tempo, 528681
1, 108480, Tempo, 576369
1, 108720, Tempo, 528681
1, 109200, Tempo, 561745
1, 109440, Tempo, 536529
1, 110160, Tempo, 521014
1, 110400, Tempo, 539277
1, 110640, Tempo, 548196
1, 111560, Tempo, 518493
1, 111600, Tempo, 519931
1, 111840, Tempo, 531303
1, 112080, Tempo, 548196
1, 112320, Tempo, 516040
1, 112560, Tempo, 510638
1, 112800, Tempo, 536577
1, 113040, Tempo, 521014
1, 113520, Tempo, 530879
1, 113760, Tempo, 548196
1, 114240, Tempo, 595888
1, 114480, Tempo, 567644
1, 114720, Tempo, 589333
1, 114960, Tempo, 596837
1, 115680, Tempo, 516040
1, 117360, Tempo, 501798
1, 117840, Tempo, 528123
1, 118080, Tempo, 506329
1, 118100, Tempo, 501630
1, 118320, Tempo, 493827
1, 118560, Tempo, 518493
1, 118800, Tempo, 508733
1, 119280, Tempo, 517286
1, 119520, Tempo, 528123
1, 120000, Tempo, 506329
1, 120240, Tempo, 496853
1, 120720, Tempo, 525348
1, 120960, Tempo, 499376
1, 121440, Tempo, 516040
1, 121680, Tempo, 506885
1, 122160, Tempo, 530879
1, 122400, Tempo, 533713
1, 122880, Tempo, 518493
1, 123120, Tempo, 506885
1, 123360, Tempo, 528123
1, 123600, Tempo, 548196
1, 123840, Tempo, 528681
1, 124080, Tempo, 533333
1, 124320, Tempo, 576369
1, 124560, Tempo, 528681
1, 125040, Tempo, 561745
1, 125280, Tempo, 536529
1, 126000, Tempo, 521014
1, 126240, Tempo, 539277
1, 126480, Tempo, 548196
1, 127400, Tempo, 518493
1, 127440, Tempo, 519931
1, 127680, Tempo, 531303
1, 127920, Tempo, 548196
1, 128160, Tempo, 516040
1, 128640, Tempo, 536577
1, 128880, Tempo, 521014
1, 129360, Tempo, 530879
1, 129600, Tempo, 548196
1, 130080, Tempo, 595888
1, 130320, Tempo, 567644
1, 130560, Tempo, 589333
1, 130800, Tempo, 596837
1, 131760, Tempo, 521014
1, 133200, Tempo, 501798
1, 133680, Tempo, 528123
1, 133920, Tempo, 506329
1, 134400, Tempo, 518493
1, 134640, Tempo, 508733
1, 135120, Tempo, 517286
1, 135360, Tempo, 528123
1, 135840, Tempo, 506329
1, 136080, Tempo, 496853
1, 136560, Tempo, 561745
1, 136800, Tempo, 506329
1, 137280, Tempo, 518493
1, 137520, Tempo, 508733
1, 138000, Tempo, 517286
1, 138240, Tempo, 528123
1, 138720, Tempo, 510638
1, 138940, Tempo, 496853
1, 139420, Tempo, 561745
1, 139680, Tempo, 506329
1, 140160, Tempo, 536577
1, 140400, Tempo, 492449
1, 140880, Tempo, 511160
1, 141120, Tempo, 492449
1, 141600, Tempo, 511160
1, 141780, Tempo, 528634
1, 141840, Tempo, 492449
1, 142080, Tempo, 501630
1, 142320, Tempo, 511160
1, 142560, Tempo, 492449
1, 142800, Tempo, 501630
1, 143040, Tempo, 523560
1, 143280, Tempo, 492449
1, 143760, Tempo, 511160
1, 144000, Tempo, 492449
1, 144480, Tempo, 511160
1, 144660, Tempo, 530973
1, 144720, Tempo, 492449
1, 144960, Tempo, 501630
1, 145200, Tempo, 511160
1, 145440, Tempo, 492449
1, 145920, Tempo, 511160
1, 146146, Tempo, 492449
1, 146626, Tempo, 511160
1, 146660, Tempo, 510638
1, 146880, Tempo, 497018
1, 147346, Tempo, 511160
1, 147540, Tempo, 558815
1, 147600, Tempo, 501630
1, 148066, Tempo, 511160
1, 148320, Tempo, 503990
1, 148786, Tempo, 511160
1, 148800, Tempo, 523560
1, 149040, Tempo, 506329
1, 149506, Tempo, 511160
1, 149520, Tempo, 521014
1, 149760, Tempo, 506329
1, 150226, Tempo, 511160
1, 150480, Tempo, 518493
1, 150720, Tempo, 526085
1, 150960, Tempo, 536577
1, 151200, Tempo, 511160
1, 151440, Tempo, 483871
1, 151560, Tempo, 519481
1, 151680, Tempo, 510638
1, 152640, Tempo, 506329
1, 153106, Tempo, 511160
1, 153120, Tempo, 523560
1, 153360, Tempo, 503990
1, 153840, Tempo, 536577
1, 154080, Tempo, 506329
1, 154546, Tempo, 511160
1, 154560, Tempo, 523560
1, 154800, Tempo, 503990
1, 155280, Tempo, 536577
1, 155520, Tempo, 513567
1, 155986, Tempo, 511160
1, 156000, Tempo, 523560
1, 156040, Tempo, 528681
1, 156240, Tempo, 518493
1, 156720, Tempo, 536577
1, 157920, Tempo, 539277
1, 158400, Tempo, 513567
1, 158866, Tempo, 511160
1, 158880, Tempo, 523560
1, 159120, Tempo, 508733
1, 159600, Tempo, 536577
1, 159840, Tempo, 506329
1, 160306, Tempo, 511160
1, 160320, Tempo, 523560
1, 160560, Tempo, 503990
1, 161040, Tempo, 536577
1, 161280, Tempo, 521014
1, 161746, Tempo, 511160
1, 161760, Tempo, 553097
1, 162000, Tempo, 533903
1, 162480, Tempo, 582977
1, 162680, Tempo, 544712
1, 162880, Tempo, 541956
1, 163040, Tempo, 539277
1, 163200, Tempo, 536577
1, 163360, Tempo, 533903
1, 163440, Tempo, 517241
1, 163920, Tempo, 539277
1, 164160, Tempo, 517019
1, 164640, Tempo, 529474
1, 164880, Tempo, 519481
1, 165360, Tempo, 528169
1, 165600, Tempo, 539277
1, 166080, Tempo, 517019
1, 166320, Tempo, 507357
1, 166800, Tempo, 536433
1, 167040, Tempo, 509901
1, 167520, Tempo, 526917
1, 167760, Tempo, 517554
1, 168240, Tempo, 542054
1, 168480, Tempo, 544959
1, 168960, Tempo, 529474
1, 169200, Tempo, 517554
1, 169440, Tempo, 547945
1, 169680, Tempo, 559754
1, 169920, Tempo, 539860
1, 170380, Tempo, 550610
1, 170400, Tempo, 553352
1, 170420, Tempo, 556174
1, 170440, Tempo, 558971
1, 170460, Tempo, 561850
1, 170480, Tempo, 564706
1, 170500, Tempo, 567644
1, 170520, Tempo, 570559
1, 170540, Tempo, 573559
1, 170560, Tempo, 576535
1, 170580, Tempo, 579598
1, 170600, Tempo, 582694
1, 170620, Tempo, 585766
1, 170640, Tempo, 539860
1, 171120, Tempo, 547845
1, 171140, Tempo, 550610
1, 171160, Tempo, 553352
1, 171180, Tempo, 556174
1, 171200, Tempo, 558971
1, 171220, Tempo, 561850
1, 171240, Tempo, 564706
1, 171260, Tempo, 567644
1, 171280, Tempo, 570559
1, 171300, Tempo, 573559
1, 171320, Tempo, 576535
1, 171340, Tempo, 582694
1, 171360, Tempo, 547795
1, 172080, Tempo, 532009
1, 172320, Tempo, 550610
1, 172560, Tempo, 559754
1, 172800, Tempo, 536577
1, 172880, Tempo, 539277
1, 172960, Tempo, 541956
1, 173040, Tempo, 544712
1, 173080, Tempo, 547445
1, 173160, Tempo, 550257
1, 173240, Tempo, 553097
1, 173280, Tempo, 563380
1, 173480, Tempo, 529474
1, 173520, Tempo, 530879
1, 173760, Tempo, 542495
1, 174000, Tempo, 559754
1, 174240, Tempo, 526917
1, 174480, Tempo, 521739
1, 174720, Tempo, 547845
1, 174960, Tempo, 532009
1, 175440, Tempo, 542054
1, 175680, Tempo, 559754
1, 176160, Tempo, 608458
1, 176400, Tempo, 579598
1, 176640, Tempo, 601805
1, 176880, Tempo, 609446
1, 177000, Tempo, 640273
1, 177120, Tempo, 651678
1, 177360, Tempo, 582977
1, 177580, Tempo, 561745
1, 177600, Tempo, 539277
1, 178260, Tempo, 544712
1, 178300, Tempo, 539277
1, 178320, Tempo, 602531
1, 178340, Tempo, 623441
1, 178360, Tempo, 638162
1, 178380, Tempo, 649702
1, 178400, Tempo, 665779
1, 178420, Tempo, 682594
1, 178440, Tempo, 754243
1, 178540, Tempo, 496853
1, 178560, Tempo, 511160
1, 179280, Tempo, 501798
1, 179760, Tempo, 528123
1, 180000, Tempo, 506329
1, 180480, Tempo, 518493
1, 180720, Tempo, 508733
1, 181200, Tempo, 517286
1, 181440, Tempo, 528123
1, 181920, Tempo, 506329
1, 182160, Tempo, 496853
1, 182640, Tempo, 561745
1, 182880, Tempo, 506329
1, 183360, Tempo, 518493
1, 183600, Tempo, 508733
1, 184080, Tempo, 517286
1, 184320, Tempo, 528123
1, 184800, Tempo, 512821
1, 185020, Tempo, 496853
1, 185040, Tempo, 487805
1, 185280, Tempo, 493827
1, 185500, Tempo, 561745
1, 185760, Tempo, 544712
1, 186480, Tempo, 518493
1, 186600, Tempo, 516040
1, 186680, Tempo, 513567
1, 186760, Tempo, 511160
1, 186840, Tempo, 508733
1, 186920, Tempo, 506329
1, 187000, Tempo, 503990
1, 187080, Tempo, 501630
1, 187160, Tempo, 499293
1, 187200, Tempo, 550257
1, 187920, Tempo, 509944
1, 188400, Tempo, 576480
1, 188640, Tempo, 519660
1, 189360, Tempo, 509944
1, 189600, Tempo, 522148
1, 189840, Tempo, 591949
1, 190080, Tempo, 748970
1, 190800, Tempo, 519660
1, 191266, Tempo, 524567
1, 191280, Tempo, 537297
1, 191760, Tempo, 519481
1, 191880, Tempo, 550459
1, 192000, Tempo, 535714
1, 192240, Tempo, 517241
1, 192720, Tempo, 542545
1, 192960, Tempo, 522148
1, 193426, Tempo, 524567
1, 193440, Tempo, 537297
1, 193680, Tempo, 517241
1, 194160, Tempo, 550711
1, 194400, Tempo, 553403
1, 195120, Tempo, 517241
1, 195600, Tempo, 550711
1, 195840, Tempo, 533903
1, 196320, Tempo, 586166
1, 196440, Tempo, 619835
1, 196560, Tempo, 555916
1, 197040, Tempo, 599161
1, 197280, Tempo, 567644
1, 197520, Tempo, 550257
1, 197746, Tempo, 511160
1, 197760, Tempo, 523560
1, 198000, Tempo, 501798
1, 198480, Tempo, 528123
1, 198720, Tempo, 524017
1, 198734, Marker_t, "Teil 2"
1, 198960, Tempo, 533333
1, 199080, Tempo, 545455
1, 199200, Tempo, 518493
1, 199440, Tempo, 508733
1, 199920, Tempo, 517286
1, 200160, Tempo, 528123
1, 200400, Tempo, 530973
1, 200520, Tempo, 545455
1, 200640, Tempo, 506329
1, 200880, Tempo, 496853
1, 201360, Tempo, 541956
1, 201600, Tempo, 523560
1, 202080, Tempo, 553097
1, 202320, Tempo, 536577
1, 202800, Tempo, 609323
1, 203040, Tempo, 576923
1, 203320, Tempo, 544712
1, 203380, Tempo, 541956
1, 203460, Tempo, 539277
1, 203520, Tempo, 536577
1, 203600, Tempo, 533903
1, 203660, Tempo, 531303
1, 203740, Tempo, 528681
1, 203800, Tempo, 526085
1, 203880, Tempo, 523560
1, 203940, Tempo, 521014
1, 204020, Tempo, 518493
1, 204080, Tempo, 516040
1, 204160, Tempo, 513567
1, 204220, Tempo, 511160
1, 204300, Tempo, 508733
1, 204360, Tempo, 506329
1, 204440, Tempo, 503990
1, 204500, Tempo, 501630
1, 204620, Tempo, 507786
1, 204720, Tempo, 488560
1, 205320, Tempo, 505306
1, 205440, Tempo, 488560
1, 206040, Tempo, 505306
1, 206160, Tempo, 488560
1, 206180, Tempo, 486224
1, 206420, Tempo, 483949
1, 206660, Tempo, 481696
1, 206780, Tempo, 500375
1, 206880, Tempo, 477213
1, 207120, Tempo, 475022
1, 207360, Tempo, 472851
1, 207480, Tempo, 488560
1, 207580, Tempo, 468530
1, 208200, Tempo, 486224
1, 208320, Tempo, 475022
1, 208360, Tempo, 477213
1, 208400, Tempo, 479463
1, 208420, Tempo, 481696
1, 208460, Tempo, 483949
1, 208480, Tempo, 486224
1, 208520, Tempo, 488560
1, 208540, Tempo, 490838
1, 208580, Tempo, 493178
1, 208600, Tempo, 495581
1, 208640, Tempo, 497967
1, 208660, Tempo, 500375
1, 208680, Tempo, 545405
1, 208800, Tempo, 505306
1, 214561, Tempo, 528681
1, 214562, Tempo, 588235
1, 214562, End_track
2, 0, Start_track
2, 0, Title_t, "Piano right"
2, 0, Program_c, 0, 0
2, 0, Control_c, 0, 7, 100
2, 0, Control_c, 0, 10, 64
2, 0, Note_on_c, 0, 62, 74
2, 0, Text_t, "bdca426d104a26ac9dcb070447587523"
2, 0, Control_c, 0, 91, 127
2, 720, Note_on_c, 0, 61, 69
2, 1440, Note_on_c, 0, 61, 0
2, 1440, Note_on_c, 0, 60, 64
2, 2160, Note_on_c, 0, 57, 61
2, 2880, Note_on_c, 0, 54, 57
2, 5040, Note_on_c, 0, 54, 0
2, 5040, Note_on_c, 0, 62, 0
2, 5040, Note_on_c, 0, 60, 0
2, 5040, Note_on_c, 0, 57, 0
2, 5040, Note_on_c, 0, 62, 53
2, 5400, Note_on_c, 0, 62, 0
2, 5400, Note_on_c, 0, 62, 53
2, 5520, Note_on_c, 0, 62, 0
2, 5520, Note_on_c, 0, 62, 53
2, 5760, Note_on_c, 0, 62, 0
2, 5760, Note_on_c, 0, 67, 56
2, 5760, Note_on_c, 0, 58, 47
2, 5760, Note_on_c, 0, 62, 47
2, 6240, Note_on_c, 0, 62, 0
2, 6240, Note_on_c, 0, 58, 0
2, 6240, Note_on_c, 0, 67, 0
2, 6240, Note_on_c, 0, 69, 53
2, 6480, Note_on_c, 0, 69, 0
2, 6480, Note_on_c, 0, 66, 50
2, 6480, Note_on_c, 0, 63, 51
2, 6480, Note_on_c, 0, 70, 60
2, 6960, Note_on_c, 0, 70, 0
2, 6960, Note_on_c, 0, 63, 0
2, 6960, Note_on_c, 0, 66, 0
2, 6960, Note_on_c, 0, 69, 52
2, 7200, Note_on_c, 0, 69, 0
2, 7200, Note_on_c, 0, 62, 48
2, 7200, Note_on_c, 0, 67, 57
2, 7680, Note_on_c, 0, 67, 0
2, 7680, Note_on_c, 0, 62, 0
2, 7680, Note_on_c, 0, 67, 53
2, 7920, Note_on_c, 0, 67, 0
2, 7920, Note_on_c, 0, 60, 53
2, 7920, Note_on_c, 0, 62, 53
2, 8280, Note_on_c, 0, 62, 0
2, 8280, Note_on_c, 0, 60, 0
2, 8280, Note_on_c, 0, 62, 53
2, 8280, Note_on_c, 0, 60, 53
2, 8400, Note_on_c, 0, 60, 0
2, 8400, Note_on_c, 0, 62, 0
2, 8400, Note_on_c, 0, 60, 53
2, 8400, Note_on_c, 0, 62, 53
2, 8640, Note_on_c, 0, 62, 0
2, 8640, Note_on_c, 0, 60, 0
2, 8640, Note_on_c, 0, 58, 47
2, 8640, Note_on_c, 0, 67, 56
2, 8640, Note_on_c, 0, 62, 56
2, 9120, Note_on_c, 0, 62, 0
2, 9120, Note_on_c, 0, 67, 0
2, 9120, Note_on_c, 0, 58, 0
2, 9120, Note_on_c, 0, 69, 53
2, 9360, Note_on_c, 0, 69, 0
2, 9360, Note_on_c, 0, 63, 60
2, 9360, Note_on_c, 0, 66, 51
2, 9360, Note_on_c, 0, 70, 60
2, 9840, Note_on_c, 0, 70, 0
2, 9840, Note_on_c, 0, 66, 0
2, 9840, Note_on_c, 0, 63, 0
2, 9840, Note_on_c, 0, 69, 51
2, 10080, Note_on_c, 0, 69, 0
2, 10080, Note_on_c, 0, 62, 41
2, 10080, Note_on_c, 0, 67, 57
2, 10560, Note_on_c, 0, 67, 0
2, 10560, Note_on_c, 0, 62, 0
2, 10560, Note_on_c, 0, 67, 53
2, 10800, Note_on_c, 0, 67, 0
2, 10800, Note_on_c, 0, 58, 53
2, 10800, Note_on_c, 0, 62, 53
2, 11160, Note_on_c, 0, 62, 0
2, 11160, Note_on_c, 0, 58, 0
2, 11160, Note_on_c, 0, 58, 53
2, 11160, Note_on_c, 0, 62, 53
2, 11280, Note_on_c, 0, 62, 0
2, 11280, Note_on_c, 0, 58, 0
2, 11280, Note_on_c, 0, 62, 53
2, 11280, Note_on_c, 0, 58, 53
2, 11520, Note_on_c, 0, 58, 0
2, 11520, Note_on_c, 0, 62, 0
2, 11520, Note_on_c, 0, 58, 60
2, 11520, Note_on_c, 0, 65, 60
2, 12000, Note_on_c, 0, 65, 0
2, 12000, Note_on_c, 0, 58, 0
2, 12000, Note_on_c, 0, 65, 58
2, 12240, Note_on_c, 0, 65, 0
2, 12240, Note_on_c, 0, 57, 58
2, 12240, Note_on_c, 0, 65, 58
2, 12720, Note_on_c, 0, 65, 0
2, 12720, Note_on_c, 0, 57, 0
2, 12720, Note_on_c, 0, 62, 57
2, 12960, Note_on_c, 0, 62, 0
2, 12960, Note_on_c, 0, 53, 61
2, 12960, Note_on_c, 0, 58, 61
2, 13440, Note_on_c, 0, 58, 0
2, 13440, Note_on_c, 0, 53, 0
2, 13440, Note_on_c, 0, 58, 62
2, 13680, Note_on_c, 0, 58, 0
2, 13680, Note_on_c, 0, 58, 59
2, 13680, Note_on_c, 0, 55, 59
2, 14040, Note_on_c, 0, 58, 0
2, 14040, Note_on_c, 0, 58, 59
2, 14160, Note_on_c, 0, 58, 0
2, 14160, Note_on_c, 0, 60, 53
2, 14400, Note_on_c, 0, 60, 0
2, 14400, Note_on_c, 0, 55, 0
2, 14400, Note_on_c, 0, 53, 49
2, 14400, Note_on_c, 0, 62, 49
2, 14400, Note_on_c, 0, 58, 49
2, 15120, Note_on_c, 0, 58, 0
2, 15120, Note_on_c, 0, 62, 0
2, 15120, Note_on_c, 0, 53, 0
2, 15120, Note_on_c, 0, 54, 46
2, 15120, Note_on_c, 0, 58, 55
2, 15480, Note_on_c, 0, 58, 0
2, 15480, Note_on_c, 0, 58, 50
2, 15600, Note_on_c, 0, 58, 0
2, 15600, Note_on_c, 0, 60, 56
2, 15840, Note_on_c, 0, 60, 0
2, 15840, Note_on_c, 0, 54, 0
2, 15840, Note_on_c, 0, 62, 57
2, 15840, Note_on_c, 0, 53, 48
2, 15840, Note_on_c, 0, 58, 57
2, 16320, Note_on_c, 0, 58, 0
2, 16320, Note_on_c, 0, 53, 0
2, 16320, Note_on_c, 0, 62, 0
2, 16320, Note_on_c, 0, 65, 60
2, 16560, Note_on_c, 0, 65, 0
2, 16560, Note_on_c, 0, 63, 66
2, 16560, Note_on_c, 0, 57, 56
2, 16560, Note_on_c, 0, 67, 66
2, 17040, Note_on_c, 0, 67, 0
2, 17040, Note_on_c, 0, 57, 0
2, 17040, Note_on_c, 0, 63, 0
2, 17040, Note_on_c, 0, 65, 56
2, 17280, Note_on_c, 0, 65, 0
2, 17280, Note_on_c, 0, 62, 58
2, 17280, Note_on_c, 0, 53, 49
2, 17280, Note_on_c, 0, 58, 52
2, 17760, Note_on_c, 0, 58, 0
2, 17760, Note_on_c, 0, 53, 0
2, 17760, Note_on_c, 0, 62, 0
2, 17760, Note_on_c, 0, 60, 52
2, 18000, Note_on_c, 0, 60, 0
2, 18000, Note_on_c, 0, 55, 49
2, 18000, Note_on_c, 0, 58, 49
2, 18360, Note_on_c, 0, 58, 0
2, 18360, Note_on_c, 0, 58, 48
2, 18480, Note_on_c, 0, 58, 0
2, 18480, Note_on_c, 0, 55, 0
2, 18480, Note_on_c, 0, 60, 41
2, 18480, Note_on_c, 0, 55, 41
2, 18720, Note_on_c, 0, 55, 0
2, 18720, Note_on_c, 0, 60, 0
2, 18720, Note_on_c, 0, 57, 40
2, 18720, Note_on_c, 0, 54, 36
2, 18720, Note_on_c, 0, 62, 49
2, 20880, Note_on_c, 0, 62, 0
2, 20880, Note_on_c, 0, 54, 0
2, 20880, Note_on_c, 0, 57, 0
2, 20880, Note_on_c, 0, 74, 53
2, 21240, Note_on_c, 0, 74, 0
2, 21240, Note_on_c, 0, 74, 53
2, 21360, Note_on_c, 0, 74, 0
2, 21360, Note_on_c, 0, 74, 53
2, 21600, Note_on_c, 0, 74, 0
2, 21600, Note_on_c, 0, 74, 47
2, 21600, Note_on_c, 0, 70, 47
2, 21600, Note_on_c, 0, 79, 56
2, 22080, Note_on_c, 0, 79, 0
2, 22080, Note_on_c, 0, 70, 0
2, 22080, Note_on_c, 0, 74, 0
2, 22080, Note_on_c, 0, 81, 53
2, 22320, Note_on_c, 0, 81, 0
2, 22320, Note_on_c, 0, 75, 47
2, 22320, Note_on_c, 0, 78, 51
2, 22320, Note_on_c, 0, 82, 60
2, 22800, Note_on_c, 0, 82, 0
2, 22800, Note_on_c, 0, 78, 0
2, 22800, Note_on_c, 0, 75, 0
2, 22800, Note_on_c, 0, 81, 51
2, 23040, Note_on_c, 0, 81, 0
2, 23040, Note_on_c, 0, 74, 48
2, 23040, Note_on_c, 0, 79, 57
2, 23520, Note_on_c, 0, 79, 0
2, 23520, Note_on_c, 0, 74, 0
2, 23520, Note_on_c, 0, 79, 53
2, 23760, Note_on_c, 0, 79, 0
2, 23760, Note_on_c, 0, 72, 53
2, 23760, Note_on_c, 0, 74, 53
2, 24120, Note_on_c, 0, 74, 0
2, 24120, Note_on_c, 0, 72, 0
2, 24120, Note_on_c, 0, 72, 53
2, 24120, Note_on_c, 0, 74, 53
2, 24240, Note_on_c, 0, 74, 0
2, 24240, Note_on_c, 0, 72, 0
2, 24240, Note_on_c, 0, 74, 53
2, 24240, Note_on_c, 0, 72, 53
2, 24480, Note_on_c, 0, 72, 0
2, 24480, Note_on_c, 0, 74, 0
2, 24480, Note_on_c, 0, 79, 56
2, 24480, Note_on_c, 0, 74, 56
2, 24480, Note_on_c, 0, 70, 47
2, 24960, Note_on_c, 0, 70, 0
2, 24960, Note_on_c, 0, 74, 0
2, 24960, Note_on_c, 0, 79, 0
2, 24960, Note_on_c, 0, 81, 53
2, 25200, Note_on_c, 0, 81, 0
2, 25200, Note_on_c, 0, 78, 52
2, 25200, Note_on_c, 0, 75, 52
2, 25200, Note_on_c, 0, 82, 60
2, 25680, Note_on_c, 0, 82, 0
2, 25680, Note_on_c, 0, 75, 0
2, 25680, Note_on_c, 0, 78, 0
2, 25680, Note_on_c, 0, 81, 51
2, 25920, Note_on_c, 0, 81, 0
2, 25920, Note_on_c, 0, 74, 57
2, 25920, Note_on_c, 0, 79, 57
2, 26400, Note_on_c, 0, 79, 0
2, 26400, Note_on_c, 0, 74, 0
2, 26400, Note_on_c, 0, 79, 53
2, 26640, Note_on_c, 0, 79, 0
2, 26640, Note_on_c, 0, 70, 53
2, 26640, Note_on_c, 0, 74, 53
2, 27000, Note_on_c, 0, 74, 0
2, 27000, Note_on_c, 0, 70, 0
2, 27000, Note_on_c, 0, 74, 53
2, 27000, Note_on_c, 0, 70, 53
2, 27120, Note_on_c, 0, 70, 0
2, 27120, Note_on_c, 0, 74, 0
2, 27120, Note_on_c, 0, 70, 53
2, 27120, Note_on_c, 0, 74, 53
2, 27360, Note_on_c, 0, 74, 0
2, 27360, Note_on_c, 0, 70, 0
2, 27360, Note_on_c, 0, 70, 60
2, 27360, Note_on_c, 0, 77, 60
2, 27840, Note_on_c, 0, 77, 0
2, 27840, Note_on_c, 0, 70, 0
2, 27840, Note_on_c, 0, 77, 55
2, 28080, Note_on_c, 0, 77, 0
2, 28080, Note_on_c, 0, 69, 51
2, 28080, Note_on_c, 0, 77, 58
2, 28560, Note_on_c, 0, 77, 0
2, 28560, Note_on_c, 0, 69, 0
2, 28560, Note_on_c, 0, 70, 61
2, 28800, Note_on_c, 0, 70, 0
2, 28800, Note_on_c, 0, 65, 55
2, 28800, Note_on_c, 0, 70, 61
2, 29280, Note_on_c, 0, 70, 0
2, 29280, Note_on_c, 0, 65, 0
2, 29280, Note_on_c, 0, 70, 62
2, 29520, Note_on_c, 0, 70, 0
2, 29520, Note_on_c, 0, 67, 59
2, 29520, Note_on_c, 0, 70, 59
2, 29880, Note_on_c, 0, 70, 0
2, 29880, Note_on_c, 0, 70, 59
2, 30000, Note_on_c, 0, 70, 0
2, 30000, Note_on_c, 0, 72, 58
2, 30240, Note_on_c, 0, 72, 0
2, 30240, Note_on_c, 0, 67, 0
2, 30240, Note_on_c, 0, 65, 49
2, 30240, Note_on_c, 0, 74, 49
2, 30240, Note_on_c, 0, 70, 49
2, 30960, Note_on_c, 0, 70, 0
2, 30960, Note_on_c, 0, 74, 0
2, 30960, Note_on_c, 0, 65, 0
2, 30960, Note_on_c, 0, 66, 46
2, 30960, Note_on_c, 0, 70, 55
2, 31320, Note_on_c, 0, 70, 0
2, 31320, Note_on_c, 0, 70, 50
2, 31440, Note_on_c, 0, 70, 0
2, 31440, Note_on_c, 0, 72, 56
2, 31680, Note_on_c, 0, 72, 0
2, 31680, Note_on_c, 0, 66, 0
2, 31680, Note_on_c, 0, 74, 57
2, 31680, Note_on_c, 0, 65, 48
2, 31680, Note_on_c, 0, 70, 57
2, 32160, Note_on_c, 0, 70, 0
2, 32160, Note_on_c, 0, 65, 0
2, 32160, Note_on_c, 0, 74, 0
2, 32160, Note_on_c, 0, 77, 57
2, 32400, Note_on_c, 0, 77, 0
2, 32400, Note_on_c, 0, 75, 56
2, 32400, Note_on_c, 0, 69, 56
2, 32400, Note_on_c, 0, 79, 66
2, 32880, Note_on_c, 0, 79, 0
2, 32880, Note_on_c, 0, 69, 0
2, 32880, Note_on_c, 0, 75, 0
2, 32880, Note_on_c, 0, 77, 56
2, 33120, Note_on_c, 0, 77, 0
2, 33120, Note_on_c, 0, 74, 58
2, 33120, Note_on_c, 0, 65, 49
2, 33120, Note_on_c, 0, 70, 58
2, 33600, Note_on_c, 0, 70, 0
2, 33600, Note_on_c, 0, 65, 0
2, 33600, Note_on_c, 0, 74, 0
2, 33600, Note_on_c, 0, 72, 52
2, 33840, Note_on_c, 0, 72, 0
2, 33840, Note_on_c, 0, 67, 49
2, 33840, Note_on_c, 0, 70, 49
2, 34200, Note_on_c, 0, 70, 0
2, 34200, Note_on_c, 0, 70, 48
2, 34320, Note_on_c, 0, 70, 0
2, 34320, Note_on_c, 0, 72, 41
2, 34560, Note_on_c, 0, 72, 0
2, 34560, Note_on_c, 0, 67, 0
2, 34560, Note_on_c, 0, 74, 49
2, 34560, Note_on_c, 0, 69, 40
2, 34560, Note_on_c, 0, 66, 40
2, 36720, Note_on_c, 0, 66, 0
2, 36720, Note_on_c, 0, 69, 0
2, 36720, Note_on_c, 0, 74, 0
2, 36720, Note_on_c, 0, 62, 53
2, 37080, Note_on_c, 0, 62, 0
2, 37080, Note_on_c, 0, 62, 53
2, 37200, Note_on_c, 0, 62, 0
2, 37200, Note_on_c, 0, 62, 53
2, 37440, Note_on_c, 0, 62, 0
2, 37440, Note_on_c, 0, 59, 47
2, 37440, Note_on_c, 0, 62, 47
2, 37440, Note_on_c, 0, 65, 56
2, 37920, Note_on_c, 0, 65, 0
2, 37920, Note_on_c, 0, 62, 0
2, 37920, Note_on_c, 0, 59, 0
2, 37920, Note_on_c, 0, 67, 54
2, 38100, Note_on_c, 0, 67, 0
2, 38100, Note_on_c, 0, 70, 51
2, 38160, Note_on_c, 0, 70, 0
2, 38160, Note_on_c, 0, 62, 60
2, 38160, Note_on_c, 0, 59, 51
2, 38160, Note_on_c, 0, 68, 60
2, 38640, Note_on_c, 0, 68, 0
2, 38640, Note_on_c, 0, 59, 0
2, 38640, Note_on_c, 0, 62, 0
2, 38640, Note_on_c, 0, 67, 55
2, 38880, Note_on_c, 0, 67, 0
2, 38880, Note_on_c, 0, 59, 48
2, 38880, Note_on_c, 0, 62, 48
2, 38880, Note_on_c, 0, 65, 57
2, 39360, Note_on_c, 0, 65, 0
2, 39360, Note_on_c, 0, 62, 0
2, 39360, Note_on_c, 0, 59, 0
2, 39360, Note_on_c, 0, 65, 53
2, 39600, Note_on_c, 0, 65, 0
2, 39600, Note_on_c, 0, 56, 53
2, 39600, Note_on_c, 0, 59, 53
2, 39960, Note_on_c, 0, 59, 0
2, 39960, Note_on_c, 0, 60, 53
2, 40080, Note_on_c, 0, 60, 0
2, 40080, Note_on_c, 0, 62, 53
2, 40320, Note_on_c, 0, 62, 0
2, 40320, Note_on_c, 0, 56, 0
2, 40320, Note_on_c, 0, 62, 47
2, 40320, Note_on_c, 0, 59, 47
2, 40320, Note_on_c, 0, 65, 56
2, 40800, Note_on_c, 0, 65, 0
2, 40800, Note_on_c, 0, 59, 0
2, 40800, Note_on_c, 0, 62, 0
2, 40800, Note_on_c, 0, 67, 58
2, 40980, Note_on_c, 0, 67, 0
2, 40980, Note_on_c, 0, 70, 51
2, 41040, Note_on_c, 0, 70, 0
2, 41040, Note_on_c, 0, 59, 51
2, 41040, Note_on_c, 0, 62, 53
2, 41040, Note_on_c, 0, 68, 60
2, 41520, Note_on_c, 0, 68, 0
2, 41520, Note_on_c, 0, 62, 0
2, 41520, Note_on_c, 0, 59, 0
2, 41520, Note_on_c, 0, 67, 55
2, 41760, Note_on_c, 0, 67, 0
2, 41760, Note_on_c, 0, 65, 57
2, 41760, Note_on_c, 0, 59, 48
2, 41760, Note_on_c, 0, 62, 48
2, 42240, Note_on_c, 0, 62, 0
2, 42240, Note_on_c, 0, 59, 0
2, 42240, Note_on_c, 0, 65, 0
2, 42240, Note_on_c, 0, 65, 53
2, 42480, Note_on_c, 0, 65, 0
2, 42480, Note_on_c, 0, 74, 67
2, 42480, Note_on_c, 0, 67, 67
2, 42480, Note_on_c, 0, 77, 79
2, 42480, Note_on_c, 0, 79, 79
2, 42840, Note_on_c, 0, 79, 0
2, 42840, Note_on_c, 0, 74, 0
2, 42840, Note_on_c, 0, 67, 0
2, 42840, Note_on_c, 0, 77, 0
2, 42840, Note_on_c, 0, 70, 61
2, 42840, Note_on_c, 0, 79, 72
2, 42840, Note_on_c, 0, 67, 61
2, 42840, Note_on_c, 0, 77, 72
2, 42960, Note_on_c, 0, 77, 0
2, 42960, Note_on_c, 0, 70, 0
2, 42960, Note_on_c, 0, 79, 0
2, 42960, Note_on_c, 0, 67, 0
2, 42960, Note_on_c, 0, 77, 72
2, 42960, Note_on_c, 0, 79, 72
2, 42960, Note_on_c, 0, 71, 61
2, 42960, Note_on_c, 0, 67, 61
2, 43200, Note_on_c, 0, 67, 0
2, 43200, Note_on_c, 0, 77, 0
2, 43200, Note_on_c, 0, 79, 0
2, 43200, Note_on_c, 0, 71, 0
2, 43200, Note_on_c, 0, 87, 70
2, 43200, Note_on_c, 0, 91, 84
2, 43200, Note_on_c, 0, 79, 70
2, 43200, Note_on_c, 0, 84, 70
2, 43680, Note_on_c, 0, 84, 0
2, 43680, Note_on_c, 0, 87, 0
2, 43680, Note_on_c, 0, 91, 0
2, 43680, Note_on_c, 0, 79, 0
2, 43680, Note_on_c, 0, 75, 68
2, 43680, Note_on_c, 0, 79, 68
2, 43680, Note_on_c, 0, 87, 81
2, 43920, Note_on_c, 0, 87, 0
2, 43920, Note_on_c, 0, 79, 0
2, 43920, Note_on_c, 0, 75, 0
2, 43920, Note_on_c, 0, 79, 72
2, 43920, Note_on_c, 0, 75, 72
2, 43920, Note_on_c, 0, 87, 85
2, 44280, Note_on_c, 0, 87, 0
2, 44280, Note_on_c, 0, 75, 0
2, 44280, Note_on_c, 0, 79, 0
2, 44280, Note_on_c, 0, 74, 67
2, 44280, Note_on_c, 0, 79, 67
2, 44280, Note_on_c, 0, 86, 79
2, 44400, Note_on_c, 0, 86, 0
2, 44400, Note_on_c, 0, 79, 0
2, 44400, Note_on_c, 0, 74, 0
2, 44400, Note_on_c, 0, 84, 79
2, 44400, Note_on_c, 0, 79, 67
2, 44400, Note_on_c, 0, 72, 67
2, 44640, Note_on_c, 0, 72, 0
2, 44640, Note_on_c, 0, 79, 0
2, 44640, Note_on_c, 0, 84, 0
2, 44640, Note_on_c, 0, 77, 72
2, 44640, Note_on_c, 0, 74, 72
2, 44640, Note_on_c, 0, 86, 85
2, 45000, Note_on_c, 0, 86, 0
2, 45000, Note_on_c, 0, 74, 0
2, 45000, Note_on_c, 0, 77, 0
2, 45000, Note_on_c, 0, 71, 62
2, 45000, Note_on_c, 0, 74, 62
2, 45000, Note_on_c, 0, 77, 74
2, 45120, Note_on_c, 0, 77, 0
2, 45120, Note_on_c, 0, 74, 0
2, 45120, Note_on_c, 0, 71, 0
2, 45120, Note_on_c, 0, 79, 74
2, 45120, Note_on_c, 0, 74, 62
2, 45120, Note_on_c, 0, 71, 62
2, 45300, Note_on_c, 0, 71, 0
2, 45300, Note_on_c, 0, 74, 0
2, 45300, Note_on_c, 0, 79, 0
2, 45300, Note_on_c, 0, 82, 66
2, 45360, Note_on_c, 0, 82, 0
2, 45360, Note_on_c, 0, 80, 78
2, 45360, Note_on_c, 0, 74, 64
2, 45360, Note_on_c, 0, 71, 64
2, 45720, Note_on_c, 0, 71, 0
2, 45720, Note_on_c, 0, 74, 0
2, 45720, Note_on_c, 0, 80, 0
2, 45720, Note_on_c, 0, 79, 73
2, 45720, Note_on_c, 0, 71, 62
2, 45720, Note_on_c, 0, 74, 62
2, 45840, Note_on_c, 0, 74, 0
2, 45840, Note_on_c, 0, 71, 0
2, 45840, Note_on_c, 0, 79, 0
2, 45840, Note_on_c, 0, 77, 69
2, 45840, Note_on_c, 0, 74, 58
2, 45840, Note_on_c, 0, 71, 58
2, 46080, Note_on_c, 0, 71, 0
2, 46080, Note_on_c, 0, 74, 0
2, 46080, Note_on_c, 0, 77, 0
2, 46080, Note_on_c, 0, 75, 80
2, 46080, Note_on_c, 0, 72, 66
2, 46440, Note_on_c, 0, 72, 0
2, 46440, Note_on_c, 0, 75, 0
2, 46440, Note_on_c, 0, 75, 62
2, 46440, Note_on_c, 0, 72, 62
2, 46440, Note_on_c, 0, 78, 74
2, 46560, Note_on_c, 0, 78, 0
2, 46560, Note_on_c, 0, 72, 0
2, 46560, Note_on_c, 0, 75, 0
2, 46560, Note_on_c, 0, 75, 62
2, 46560, Note_on_c, 0, 79, 74
2, 46560, Note_on_c, 0, 72, 62
2, 46800, Note_on_c, 0, 72, 0
2, 46800, Note_on_c, 0, 79, 0
2, 46800, Note_on_c, 0, 75, 0
2, 46800, Note_on_c, 0, 75, 72
2, 46800, Note_on_c, 0, 79, 72
2, 46800, Note_on_c, 0, 87, 85
2, 47160, Note_on_c, 0, 87, 0
2, 47160, Note_on_c, 0, 79, 0
2, 47160, Note_on_c, 0, 75, 0
2, 47160, Note_on_c, 0, 79, 67
2, 47160, Note_on_c, 0, 74, 67
2, 47160, Note_on_c, 0, 86, 79
2, 47280, Note_on_c, 0, 86, 0
2, 47280, Note_on_c, 0, 74, 0
2, 47280, Note_on_c, 0, 79, 0
2, 47280, Note_on_c, 0, 79, 63
2, 47280, Note_on_c, 0, 84, 75
2, 47280, Note_on_c, 0, 72, 63
2, 47520, Note_on_c, 0, 72, 0
2, 47520, Note_on_c, 0, 84, 0
2, 47520, Note_on_c, 0, 79, 0
2, 47520, Note_on_c, 0, 74, 72
2, 47520, Note_on_c, 0, 77, 72
2, 47520, Note_on_c, 0, 86, 85
2, 47880, Note_on_c, 0, 86, 0
2, 47880, Note_on_c, 0, 77, 0
2, 47880, Note_on_c, 0, 74, 0
2, 47880, Note_on_c, 0, 77, 74
2, 47880, Note_on_c, 0, 74, 62
2, 47880, Note_on_c, 0, 71, 62
2, 48000, Note_on_c, 0, 71, 0
2, 48000, Note_on_c, 0, 74, 0
2, 48000, Note_on_c, 0, 77, 0
2, 48000, Note_on_c, 0, 79, 74
2, 48000, Note_on_c, 0, 74, 62
2, 48000, Note_on_c, 0, 71, 62
2, 48180, Note_on_c, 0, 71, 0
2, 48180, Note_on_c, 0, 74, 0
2, 48180, Note_on_c, 0, 79, 0
2, 48180, Note_on_c, 0, 82, 67
2, 48240, Note_on_c, 0, 82, 0
2, 48240, Note_on_c, 0, 80, 78
2, 48240, Note_on_c, 0, 74, 64
2, 48240, Note_on_c, 0, 71, 64
2, 48600, Note_on_c, 0, 71, 0
2, 48600, Note_on_c, 0, 74, 0
2, 48600, Note_on_c, 0, 80, 0
2, 48600, Note_on_c, 0, 79, 73
2, 48600, Note_on_c, 0, 71, 62
2, 48600, Note_on_c, 0, 74, 62
2, 48720, Note_on_c, 0, 74, 0
2, 48720, Note_on_c, 0, 71, 0
2, 48720, Note_on_c, 0, 79, 0
2, 48720, Note_on_c, 0, 71, 62
2, 48720, Note_on_c, 0, 77, 73
2, 48720, Note_on_c, 0, 74, 62
2, 48960, Note_on_c, 0, 74, 0
2, 48960, Note_on_c, 0, 77, 0
2, 48960, Note_on_c, 0, 71, 0
2, 48960, Note_on_c, 0, 75, 80
2, 48960, Note_on_c, 0, 72, 66
2, 49320, Note_on_c, 0, 72, 0
2, 49320, Note_on_c, 0, 75, 0
2, 49320, Note_on_c, 0, 72, 62
2, 49320, Note_on_c, 0, 75, 62
2, 49320, Note_on_c, 0, 78, 74
2, 49440, Note_on_c, 0, 78, 0
2, 49440, Note_on_c, 0, 75, 0
2, 49440, Note_on_c, 0, 72, 0
2, 49440, Note_on_c, 0, 79, 74
2, 49440, Note_on_c, 0, 75, 62
2, 49440, Note_on_c, 0, 72, 62
2, 49680, Note_on_c, 0, 72, 0
2, 49680, Note_on_c, 0, 75, 0
2, 49680, Note_on_c, 0, 79, 0
2, 49680, Note_on_c, 0, 74, 68
2, 49680, Note_on_c, 0, 79, 68
2, 49680, Note_on_c, 0, 86, 81
2, 50040, Note_on_c, 0, 79, 0
2, 50040, Note_on_c, 0, 74, 0
2, 50044, Note_on_c, 0, 79, 74
2, 50156, Note_on_c, 0, 74, 74
2, 50164, Note_on_c, 0, 79, 0
2, 50396, Note_on_c, 0, 74, 0
2, 50400, Note_on_c, 0, 86, 0
2, 50400, Note_on_c, 0, 79, 68
2, 50400, Note_on_c, 0, 84, 81
2, 50400, Note_on_c, 0, 72, 68
2, 50760, Note_on_c, 0, 72, 0
2, 50760, Note_on_c, 0, 79, 0
2, 50764, Note_on_c, 0, 79, 70
2, 50880, Note_on_c, 0, 72, 68
2, 50884, Note_on_c, 0, 79, 0
2, 51000, Note_on_c, 0, 72, 0
2, 51000, Note_on_c, 0, 84, 0
2, 51000, Note_on_c, 0, 81, 62
2, 51060, Note_on_c, 0, 81, 0
2, 51060, Note_on_c, 0, 84, 62
2, 51120, Note_on_c, 0, 84, 0
2, 51120, Note_on_c, 0, 74, 51
2, 51120, Note_on_c, 0, 72, 51
2, 51120, Note_on_c, 0, 78, 51
2, 51120, Note_on_c, 0, 81, 72
2, 51480, Note_on_c, 0, 81, 0
2, 51480, Note_on_c, 0, 74, 0
2, 51480, Note_on_c, 0, 72, 0
2, 51480, Note_on_c, 0, 78, 0
2, 51480, Note_on_c, 0, 79, 69
2, 51600, Note_on_c, 0, 79, 0
2, 51600, Note_on_c, 0, 81, 69
2, 51840, Note_on_c, 0, 81, 0
2, 51840, Note_on_c, 0, 70, 68
2, 51840, Note_on_c, 0, 82, 81
2, 51840, Note_on_c, 0, 74, 68
2, 52200, Note_on_c, 0, 74, 0
2, 52200, Note_on_c, 0, 70, 0
2, 52204, Note_on_c, 0, 79, 74
2, 52320, Note_on_c, 0, 74, 74
2, 52324, Note_on_c, 0, 79, 0
2, 52560, Note_on_c, 0, 74, 0
2, 52560, Note_on_c, 0, 82, 0
2, 52560, Note_on_c, 0, 82, 72
2, 52560, Note_on_c, 0, 74, 72
2, 52560, Note_on_c, 0, 79, 72
2, 52560, Note_on_c, 0, 86, 72
2, 52920, Note_on_c, 0, 86, 0
2, 52920, Note_on_c, 0, 82, 0
2, 52920, Note_on_c, 0, 74, 0
2, 52920, Note_on_c, 0, 79, 0
2, 52920, Note_on_c, 0, 79, 69
2, 53040, Note_on_c, 0, 79, 0
2, 53040, Note_on_c, 0, 74, 69
2, 53280, Note_on_c, 0, 74, 0
2, 53280, Note_on_c, 0, 69, 57
2, 53280, Note_on_c, 0, 74, 68
2, 53280, Note_on_c, 0, 81, 68
2, 53640, Note_on_c, 0, 74, 0
2, 53640, Note_on_c, 0, 69, 0
2, 53640, Note_on_c, 0, 74, 74
2, 53760, Note_on_c, 0, 74, 0
2, 53760, Note_on_c, 0, 69, 56
2, 54000, Note_on_c, 0, 69, 0
2, 54000, Note_on_c, 0, 81, 0
2, 54000, Note_on_c, 0, 73, 61
2, 54000, Note_on_c, 0, 79, 61
2, 54000, Note_on_c, 0, 81, 72
2, 54360, Note_on_c, 0, 81, 0
2, 54360, Note_on_c, 0, 82, 69
2, 54480, Note_on_c, 0, 82, 0
2, 54480, Note_on_c, 0, 81, 69
2, 54720, Note_on_c, 0, 81, 0
2, 54720, Note_on_c, 0, 79, 0
2, 54720, Note_on_c, 0, 73, 0
2, 54720, Note_on_c, 0, 81, 67
2, 54720, Note_on_c, 0, 86, 79
2, 54720, Note_on_c, 0, 74, 67
2, 55440, Note_on_c, 0, 74, 0
2, 55440, Note_on_c, 0, 86, 0
2, 55440, Note_on_c, 0, 81, 0
2, 55800, Note_on_c, 0, 74, 63
2, 55920, Note_on_c, 0, 74, 0
2, 55920, Note_on_c, 0, 74, 63
2, 56160, Note_on_c, 0, 74, 0
2, 56160, Note_on_c, 0, 75, 71
2, 56160, Note_on_c, 0, 72, 60
2, 56160, Note_on_c, 0, 69, 60
2, 56520, Note_on_c, 0, 75, 0
2, 56520, Note_on_c, 0, 79, 61
2, 56640, Note_on_c, 0, 79, 0
2, 56640, Note_on_c, 0, 82, 61
2, 56880, Note_on_c, 0, 82, 0
2, 56880, Note_on_c, 0, 69, 0
2, 56880, Note_on_c, 0, 72, 0
2, 56880, Note_on_c, 0, 75, 58
2, 56880, Note_on_c, 0, 79, 58
2, 56880, Note_on_c, 0, 86, 69
2, 57240, Note_on_c, 0, 86, 0
2, 57240, Note_on_c, 0, 84, 63
2, 57360, Note_on_c, 0, 84, 0
2, 57360, Note_on_c, 0, 79, 63
2, 57600, Note_on_c, 0, 79, 0
2, 57600, Note_on_c, 0, 79, 0
2, 57600, Note_on_c, 0, 75, 0
2, 57600, Note_on_c, 0, 72, 56
2, 57600, Note_on_c, 0, 81, 71
2, 57600, Note_on_c, 0, 74, 56
2, 57960, Note_on_c, 0, 81, 0
2, 57960, Note_on_c, 0, 82, 61
2, 58080, Note_on_c, 0, 82, 0
2, 58080, Note_on_c, 0, 81, 61
2, 58320, Note_on_c, 0, 81, 0
2, 58320, Note_on_c, 0, 74, 0
2, 58320, Note_on_c, 0, 72, 0
2, 58320, Note_on_c, 0, 75, 58
2, 58320, Note_on_c, 0, 78, 58
2, 58320, Note_on_c, 0, 84, 69
2, 58680, Note_on_c, 0, 84, 0
2, 58680, Note_on_c, 0, 78, 0
2, 58680, Note_on_c, 0, 75, 0
2, 58680, Note_on_c, 0, 74, 53
2, 58680, Note_on_c, 0, 78, 53
2, 58680, Note_on_c, 0, 82, 63
2, 58800, Note_on_c, 0, 82, 0
2, 58800, Note_on_c, 0, 78, 0
2, 58800, Note_on_c, 0, 74, 0
2, 58800, Note_on_c, 0, 72, 53
2, 58800, Note_on_c, 0, 78, 53
2, 58800, Note_on_c, 0, 81, 63
2, 59040, Note_on_c, 0, 81, 0
2, 59040, Note_on_c, 0, 78, 0
2, 59040, Note_on_c, 0, 72, 0
2, 59040, Note_on_c, 0, 70, 60
2, 59040, Note_on_c, 0, 74, 60
2, 59040, Note_on_c, 0, 79, 71
2, 59400, Note_on_c, 0, 79, 0
2, 59400, Note_on_c, 0, 74, 0
2, 59400, Note_on_c, 0, 70, 0
2, 59400, Note_on_c, 0, 72, 51
2, 59400, Note_on_c, 0, 75, 51
2, 59400, Note_on_c, 0, 81, 61
2, 59520, Note_on_c, 0, 81, 0
2, 59520, Note_on_c, 0, 75, 0
2, 59520, Note_on_c, 0, 72, 0
2, 59520, Note_on_c, 0, 70, 51
2, 59520, Note_on_c, 0, 74, 51
2, 59520, Note_on_c, 0, 79, 61
2, 59760, Note_on_c, 0, 79, 0
2, 59760, Note_on_c, 0, 74, 0
2, 59760, Note_on_c, 0, 70, 0
2, 59760, Note_on_c, 0, 69, 55
2, 59760, Note_on_c, 0, 77, 64
2, 59760, Note_on_c, 0, 72, 55
2, 60120, Note_on_c, 0, 72, 0
2, 60120, Note_on_c, 0, 77, 0
2, 60120, Note_on_c, 0, 69, 0
2, 60120, Note_on_c, 0, 74, 49
2, 60120, Note_on_c, 0, 79, 58
2, 60120, Note_on_c, 0, 70, 49
2, 60240, Note_on_c, 0, 70, 0
2, 60240, Note_on_c, 0, 79, 0
2, 60240, Note_on_c, 0, 74, 0
2, 60240, Note_on_c, 0, 75, 58
2, 60240, Note_on_c, 0, 67, 49
2, 60240, Note_on_c, 0, 70, 49
2, 60480, Note_on_c, 0, 70, 0
2, 60480, Note_on_c, 0, 67, 0
2, 60480, Note_on_c, 0, 75, 0
2, 60480, Note_on_c, 0, 74, 61
2, 60480, Note_on_c, 0, 66, 51
2, 60480, Note_on_c, 0, 69, 51
2, 61200, Note_on_c, 0, 69, 0
2, 61200, Note_on_c, 0, 66, 0
2, 61200, Note_on_c, 0, 74, 0
2, 61560, Note_on_c, 0, 62, 47
2, 61680, Note_on_c, 0, 62, 0
2, 61680, Note_on_c, 0, 62, 47
2, 61920, Note_on_c, 0, 62, 0
2, 61920, Note_on_c, 0, 60, 53
2, 61920, Note_on_c, 0, 57, 53
2, 61920, Note_on_c, 0, 63, 63
2, 62280, Note_on_c, 0, 63, 0
2, 62280, Note_on_c, 0, 67, 55
2, 62400, Note_on_c, 0, 67, 0
2, 62400, Note_on_c, 0, 70, 55
2, 62640, Note_on_c, 0, 70, 0
2, 62640, Note_on_c, 0, 57, 0
2, 62640, Note_on_c, 0, 60, 0
2, 62640, Note_on_c, 0, 67, 51
2, 62640, Note_on_c, 0, 63, 51
2, 62640, Note_on_c, 0, 74, 61
2, 63000, Note_on_c, 0, 74, 0
2, 63000, Note_on_c, 0, 72, 57
2, 63120, Note_on_c, 0, 72, 0
2, 63120, Note_on_c, 0, 67, 57
2, 63360, Note_on_c, 0, 67, 0
2, 63360, Note_on_c, 0, 63, 0
2, 63360, Note_on_c, 0, 67, 0
2, 63360, Note_on_c, 0, 69, 63
2, 63360, Note_on_c, 0, 62, 48
2, 63360, Note_on_c, 0, 60, 45
2, 63720, Note_on_c, 0, 69, 0
2, 63720, Note_on_c, 0, 70, 55
2, 63840, Note_on_c, 0, 70, 0
2, 63840, Note_on_c, 0, 69, 55
2, 64080, Note_on_c, 0, 69, 0
2, 64080, Note_on_c, 0, 60, 0
2, 64080, Note_on_c, 0, 62, 0
2, 64080, Note_on_c, 0, 66, 51
2, 64080, Note_on_c, 0, 63, 51
2, 64080, Note_on_c, 0, 72, 61
2, 64440, Note_on_c, 0, 72, 0
2, 64440, Note_on_c, 0, 70, 57
2, 64560, Note_on_c, 0, 70, 0
2, 64560, Note_on_c, 0, 69, 57
2, 64800, Note_on_c, 0, 69, 0
2, 64800, Note_on_c, 0, 63, 0
2, 64800, Note_on_c, 0, 66, 0
2, 64800, Note_on_c, 0, 67, 63
2, 64800, Note_on_c, 0, 58, 53
2, 64800, Note_on_c, 0, 62, 53
2, 65160, Note_on_c, 0, 62, 0
2, 65160, Note_on_c, 0, 58, 0
2, 65160, Note_on_c, 0, 67, 0
2, 65160, Note_on_c, 0, 69, 55
2, 65160, Note_on_c, 0, 60, 46
2, 65160, Note_on_c, 0, 63, 46
2, 65280, Note_on_c, 0, 63, 0
2, 65280, Note_on_c, 0, 60, 0
2, 65280, Note_on_c, 0, 69, 0
2, 65280, Note_on_c, 0, 67, 55
2, 65280, Note_on_c, 0, 58, 46
2, 65280, Note_on_c, 0, 62, 46
2, 65520, Note_on_c, 0, 62, 0
2, 65520, Note_on_c, 0, 58, 0
2, 65520, Note_on_c, 0, 67, 0
2, 65520, Note_on_c, 0, 65, 58
2, 65520, Note_on_c, 0, 57, 49
2, 65520, Note_on_c, 0, 60, 49
2, 65880, Note_on_c, 0, 60, 0
2, 65880, Note_on_c, 0, 57, 0
2, 65880, Note_on_c, 0, 65, 0
2, 65880, Note_on_c, 0, 67, 51
2, 65880, Note_on_c, 0, 58, 42
2, 65880, Note_on_c, 0, 62, 42
2, 66000, Note_on_c, 0, 62, 0
2, 66000, Note_on_c, 0, 58, 0
2, 66000, Note_on_c, 0, 67, 0
2, 66000, Note_on_c, 0, 63, 51
2, 66000, Note_on_c, 0, 55, 42
2, 66000, Note_on_c, 0, 58, 42
2, 66240, Note_on_c, 0, 58, 0
2, 66240, Note_on_c, 0, 55, 0
2, 66240, Note_on_c, 0, 63, 0
2, 66240, Note_on_c, 0, 57, 58
2, 66240, Note_on_c, 0, 62, 58
2, 66960, Note_on_c, 0, 62, 0
2, 66960, Note_on_c, 0, 57, 0
2, 66960, Note_on_c, 0, 60, 53
2, 66960, Note_on_c, 0, 62, 53
2, 67320, Note_on_c, 0, 62, 0
2, 67320, Note_on_c, 0, 62, 53
2, 67440, Note_on_c, 0, 62, 0
2, 67440, Note_on_c, 0, 62, 53
2, 67680, Note_on_c, 0, 62, 0
2, 67680, Note_on_c, 0, 60, 0
2, 67680, Note_on_c, 0, 58, 47
2, 67680, Note_on_c, 0, 62, 47
2, 67680, Note_on_c, 0, 67, 56
2, 68160, Note_on_c, 0, 67, 0
2, 68160, Note_on_c, 0, 62, 0
2, 68160, Note_on_c, 0, 58, 0
2, 68160, Note_on_c, 0, 69, 56
2, 68400, Note_on_c, 0, 69, 0
2, 68400, Note_on_c, 0, 63, 51
2, 68400, Note_on_c, 0, 66, 60
2, 68400, Note_on_c, 0, 70, 60
2, 68880, Note_on_c, 0, 70, 0
2, 68880, Note_on_c, 0, 66, 0
2, 68880, Note_on_c, 0, 63, 0
2, 68880, Note_on_c, 0, 69, 55
2, 69120, Note_on_c, 0, 69, 0
2, 69120, Note_on_c, 0, 58, 48
2, 69120, Note_on_c, 0, 62, 48
2, 69120, Note_on_c, 0, 67, 57
2, 69600, Note_on_c, 0, 67, 0
2, 69600, Note_on_c, 0, 62, 0
2, 69600, Note_on_c, 0, 58, 0
2, 69600, Note_on_c, 0, 67, 53
2, 69840, Note_on_c, 0, 67, 0
2, 69840, Note_on_c, 0, 60, 53
2, 69840, Note_on_c, 0, 62, 53
2, 70200, Note_on_c, 0, 62, 0
2, 70200, Note_on_c, 0, 60, 0
2, 70200, Note_on_c, 0, 60, 53
2, 70200, Note_on_c, 0, 62, 53
2, 70320, Note_on_c, 0, 62, 0
2, 70320, Note_on_c, 0, 60, 0
2, 70320, Note_on_c, 0, 60, 49
2, 70320, Note_on_c, 0, 62, 49
2, 70560, Note_on_c, 0, 62, 0
2, 70560, Note_on_c, 0, 60, 0
2, 70560, Note_on_c, 0, 58, 47
2, 70560, Note_on_c, 0, 62, 56
2, 70560, Note_on_c, 0, 67, 56
2, 71040, Note_on_c, 0, 67, 0
2, 71040, Note_on_c, 0, 62, 0
2, 71040, Note_on_c, 0, 58, 0
2, 71040, Note_on_c, 0, 69, 53
2, 71280, Note_on_c, 0, 69, 0
2, 71280, Note_on_c, 0, 63, 60
2, 71280, Note_on_c, 0, 66, 60
2, 71280, Note_on_c, 0, 70, 60
2, 71760, Note_on_c, 0, 70, 0
2, 71760, Note_on_c, 0, 66, 0
2, 71760, Note_on_c, 0, 63, 0
2, 71760, Note_on_c, 0, 69, 52
2, 72000, Note_on_c, 0, 69, 0
2, 72000, Note_on_c, 0, 58, 43
2, 72000, Note_on_c, 0, 62, 48
2, 72000, Note_on_c, 0, 67, 57
2, 72480, Note_on_c, 0, 67, 0
2, 72480, Note_on_c, 0, 62, 0
2, 72480, Note_on_c, 0, 58, 0
2, 72480, Note_on_c, 0, 67, 53
2, 72720, Note_on_c, 0, 67, 0
2, 72720, Note_on_c, 0, 58, 53
2, 72720, Note_on_c, 0, 62, 53
2, 73080, Note_on_c, 0, 62, 0
2, 73080, Note_on_c, 0, 58, 0
2, 73080, Note_on_c, 0, 58, 53
2, 73080, Note_on_c, 0, 62, 53
2, 73200, Note_on_c, 0, 62, 0
2, 73200, Note_on_c, 0, 58, 0
2, 73200, Note_on_c, 0, 58, 49
2, 73200, Note_on_c, 0, 62, 49
2, 73440, Note_on_c, 0, 62, 0
2, 73440, Note_on_c, 0, 58, 0
2, 73440, Note_on_c, 0, 58, 60
2, 73440, Note_on_c, 0, 65, 60
2, 73920, Note_on_c, 0, 65, 0
2, 73920, Note_on_c, 0, 58, 0
2, 73920, Note_on_c, 0, 65, 58
2, 74160, Note_on_c, 0, 65, 0
2, 74160, Note_on_c, 0, 57, 58
2, 74160, Note_on_c, 0, 65, 58
2, 74640, Note_on_c, 0, 65, 0
2, 74640, Note_on_c, 0, 57, 0
2, 74640, Note_on_c, 0, 62, 55
2, 74880, Note_on_c, 0, 62, 0
2, 74880, Note_on_c, 0, 53, 61
2, 74880, Note_on_c, 0, 58, 61
2, 75360, Note_on_c, 0, 58, 0
2, 75360, Note_on_c, 0, 53, 0
2, 75360, Note_on_c, 0, 58, 62
2, 75600, Note_on_c, 0, 58, 0
2, 75600, Note_on_c, 0, 55, 59
2, 75600, Note_on_c, 0, 58, 59
2, 75960, Note_on_c, 0, 58, 0
2, 75960, Note_on_c, 0, 58, 59
2, 76080, Note_on_c, 0, 58, 0
2, 76080, Note_on_c, 0, 60, 58
2, 76320, Note_on_c, 0, 60, 0
2, 76320, Note_on_c, 0, 55, 0
2, 76320, Note_on_c, 0, 53, 49
2, 76320, Note_on_c, 0, 62, 49
2, 76320, Note_on_c, 0, 58, 49
2, 77040, Note_on_c, 0, 58, 0
2, 77040, Note_on_c, 0, 62, 0
2, 77040, Note_on_c, 0, 53, 0
2, 77040, Note_on_c, 0, 54, 46
2, 77040, Note_on_c, 0, 58, 55
2, 77400, Note_on_c, 0, 58, 0
2, 77400, Note_on_c, 0, 58, 50
2, 77520, Note_on_c, 0, 58, 0
2, 77520, Note_on_c, 0, 60, 56
2, 77760, Note_on_c, 0, 60, 0
2, 77760, Note_on_c, 0, 54, 0
2, 77760, Note_on_c, 0, 53, 48
2, 77760, Note_on_c, 0, 58, 57
2, 77760, Note_on_c, 0, 62, 57
2, 78240, Note_on_c, 0, 62, 0
2, 78240, Note_on_c, 0, 58, 0
2, 78240, Note_on_c, 0, 53, 0
2, 78240, Note_on_c, 0, 65, 60
2, 78480, Note_on_c, 0, 65, 0
2, 78480, Note_on_c, 0, 57, 56
2, 78480, Note_on_c, 0, 63, 66
2, 78480, Note_on_c, 0, 67, 66
2, 78960, Note_on_c, 0, 67, 0
2, 78960, Note_on_c, 0, 63, 0
2, 78960, Note_on_c, 0, 57, 0
2, 78960, Note_on_c, 0, 65, 56
2, 79200, Note_on_c, 0, 65, 0
2, 79200, Note_on_c, 0, 62, 58
2, 79200, Note_on_c, 0, 53, 49
2, 79200, Note_on_c, 0, 58, 51
2, 79680, Note_on_c, 0, 58, 0
2, 79680, Note_on_c, 0, 53, 0
2, 79680, Note_on_c, 0, 62, 0
2, 79680, Note_on_c, 0, 60, 52
2, 79920, Note_on_c, 0, 60, 0
2, 79920, Note_on_c, 0, 55, 49
2, 79920, Note_on_c, 0, 58, 49
2, 80280, Note_on_c, 0, 58, 0
2, 80280, Note_on_c, 0, 58, 48
2, 80400, Note_on_c, 0, 58, 0
2, 80400, Note_on_c, 0, 55, 0
2, 80400, Note_on_c, 0, 55, 41
2, 80400, Note_on_c, 0, 60, 41
2, 80640, Note_on_c, 0, 60, 0
2, 80640, Note_on_c, 0, 55, 0
2, 80640, Note_on_c, 0, 54, 40
2, 80640, Note_on_c, 0, 57, 40
2, 80640, Note_on_c, 0, 62, 49
2, 82800, Note_on_c, 0, 62, 0
2, 82800, Note_on_c, 0, 57, 0
2, 82800, Note_on_c, 0, 54, 0
2, 82800, Note_on_c, 0, 62, 53
2, 83160, Note_on_c, 0, 62, 0
2, 83160, Note_on_c, 0, 62, 53
2, 83280, Note_on_c, 0, 62, 0
2, 83280, Note_on_c, 0, 62, 53
2, 83520, Note_on_c, 0, 62, 0
2, 83520, Note_on_c, 0, 59, 47
2, 83520, Note_on_c, 0, 62, 47
2, 83520, Note_on_c, 0, 65, 56
2, 84000, Note_on_c, 0, 65, 0
2, 84000, Note_on_c, 0, 62, 0
2, 84000, Note_on_c, 0, 59, 0
2, 84000, Note_on_c, 0, 67, 56
2, 84180, Note_on_c, 0, 67, 0
2, 84180, Note_on_c, 0, 70, 51
2, 84240, Note_on_c, 0, 70, 0
2, 84240, Note_on_c, 0, 59, 51
2, 84240, Note_on_c, 0, 62, 60
2, 84240, Note_on_c, 0, 68, 60
2, 84720, Note_on_c, 0, 68, 0
2, 84720, Note_on_c, 0, 62, 0
2, 84720, Note_on_c, 0, 59, 0
2, 84720, Note_on_c, 0, 67, 56
2, 84960, Note_on_c, 0, 67, 0
2, 84960, Note_on_c, 0, 59, 48
2, 84960, Note_on_c, 0, 62, 48
2, 84960, Note_on_c, 0, 65, 57
2, 85440, Note_on_c, 0, 65, 0
2, 85440, Note_on_c, 0, 62, 0
2, 85440, Note_on_c, 0, 59, 0
2, 85440, Note_on_c, 0, 65, 53
2, 85680, Note_on_c, 0, 65, 0
2, 85680, Note_on_c, 0, 56, 53
2, 85680, Note_on_c, 0, 59, 53
2, 86040, Note_on_c, 0, 59, 0
2, 86040, Note_on_c, 0, 60, 53
2, 86160, Note_on_c, 0, 60, 0
2, 86160, Note_on_c, 0, 62, 53
2, 86400, Note_on_c, 0, 62, 0
2, 86400, Note_on_c, 0, 56, 0
2, 86400, Note_on_c, 0, 59, 47
2, 86400, Note_on_c, 0, 62, 47
2, 86400, Note_on_c, 0, 65, 56
2, 86880, Note_on_c, 0, 65, 0
2, 86880, Note_on_c, 0, 62, 0
2, 86880, Note_on_c, 0, 59, 0
2, 86880, Note_on_c, 0, 67, 58
2, 87060, Note_on_c, 0, 67, 0
2, 87060, Note_on_c, 0, 70, 51
2, 87120, Note_on_c, 0, 70, 0
2, 87120, Note_on_c, 0, 59, 51
2, 87120, Note_on_c, 0, 62, 60
2, 87120, Note_on_c, 0, 68, 60
2, 87600, Note_on_c, 0, 68, 0
2, 87600, Note_on_c, 0, 62, 0
2, 87600, Note_on_c, 0, 59, 0
2, 87600, Note_on_c, 0, 67, 59
2, 87840, Note_on_c, 0, 67, 0
2, 87840, Note_on_c, 0, 59, 48
2, 87840, Note_on_c, 0, 62, 48
2, 87840, Note_on_c, 0, 65, 57
2, 88320, Note_on_c, 0, 65, 0
2, 88320, Note_on_c, 0, 62, 0
2, 88320, Note_on_c, 0, 59, 0
2, 88320, Note_on_c, 0, 65, 53
2, 88560, Note_on_c, 0, 65, 0
2, 88560, Note_on_c, 0, 67, 67
2, 88560, Note_on_c, 0, 74, 67
2, 88560, Note_on_c, 0, 77, 79
2, 88560, Note_on_c, 0, 79, 79
2, 88920, Note_on_c, 0, 79, 0
2, 88920, Note_on_c, 0, 67, 0
2, 88920, Note_on_c, 0, 74, 0
2, 88920, Note_on_c, 0, 77, 0
2, 88920, Note_on_c, 0, 70, 61
2, 88920, Note_on_c, 0, 67, 61
2, 88920, Note_on_c, 0, 77, 72
2, 88920, Note_on_c, 0, 79, 72
2, 89040, Note_on_c, 0, 79, 0
2, 89040, Note_on_c, 0, 70, 0
2, 89040, Note_on_c, 0, 67, 0
2, 89040, Note_on_c, 0, 77, 0
2, 89040, Note_on_c, 0, 67, 61
2, 89040, Note_on_c, 0, 71, 61
2, 89040, Note_on_c, 0, 77, 72
2, 89040, Note_on_c, 0, 79, 72
2, 89280, Note_on_c, 0, 79, 0
2, 89280, Note_on_c, 0, 67, 0
2, 89280, Note_on_c, 0, 71, 0
2, 89280, Note_on_c, 0, 77, 0
2, 89280, Note_on_c, 0, 91, 84
2, 89280, Note_on_c, 0, 87, 70
2, 89280, Note_on_c, 0, 84, 70
2, 89280, Note_on_c, 0, 79, 70
2, 90720, Note_on_c, 0, 79, 0
2, 90720, Note_on_c, 0, 91, 0
2, 90720, Note_on_c, 0, 87, 0
2, 90720, Note_on_c, 0, 84, 0
2, 91440, Note_on_c, 0, 63, 58
2, 91440, Note_on_c, 0, 67, 58
2, 91440, Note_on_c, 0, 69, 58
2, 91800, Note_on_c, 0, 69, 0
2, 91800, Note_on_c, 0, 67, 0
2, 91800, Note_on_c, 0, 63, 0
2, 91800, Note_on_c, 0, 63, 58
2, 91800, Note_on_c, 0, 67, 58
2, 91800, Note_on_c, 0, 70, 70
2, 91920, Note_on_c, 0, 70, 0
2, 91920, Note_on_c, 0, 67, 0
2, 91920, Note_on_c, 0, 63, 0
2, 91920, Note_on_c, 0, 63, 58
2, 91920, Note_on_c, 0, 67, 58
2, 91920, Note_on_c, 0, 72, 70
2, 92160, Note_on_c, 0, 72, 0
2, 92160, Note_on_c, 0, 67, 0
2, 92160, Note_on_c, 0, 63, 0
2, 92160, Note_on_c, 0, 63, 63
2, 92160, Note_on_c, 0, 67, 63
2, 92160, Note_on_c, 0, 72, 77
2, 92160, Note_on_c, 0, 75, 77
2, 92880, Note_on_c, 0, 75, 0
2, 92880, Note_on_c, 0, 63, 0
2, 92880, Note_on_c, 0, 67, 0
2, 92880, Note_on_c, 0, 72, 0
2, 92880, Note_on_c, 0, 67, 58
2, 92880, Note_on_c, 0, 69, 58
2, 92880, Note_on_c, 0, 72, 70
2, 93240, Note_on_c, 0, 72, 0
2, 93240, Note_on_c, 0, 69, 0
2, 93240, Note_on_c, 0, 67, 0
2, 93240, Note_on_c, 0, 67, 63
2, 93240, Note_on_c, 0, 69, 63
2, 93240, Note_on_c, 0, 74, 77
2, 93360, Note_on_c, 0, 74, 0
2, 93360, Note_on_c, 0, 69, 0
2, 93360, Note_on_c, 0, 67, 0
2, 93360, Note_on_c, 0, 67, 62
2, 93360, Note_on_c, 0, 69, 62
2, 93360, Note_on_c, 0, 75, 74
2, 93600, Note_on_c, 0, 75, 0
2, 93600, Note_on_c, 0, 69, 0
2, 93600, Note_on_c, 0, 67, 0
2, 93600, Note_on_c, 0, 67, 70
2, 93600, Note_on_c, 0, 69, 70
2, 93600, Note_on_c, 0, 75, 82
2, 93600, Note_on_c, 0, 81, 82
2, 94320, Note_on_c, 0, 81, 0
2, 94320, Note_on_c, 0, 67, 0
2, 94320, Note_on_c, 0, 69, 0
2, 94320, Note_on_c, 0, 75, 0
2, 94320, Note_on_c, 0, 60, 58
2, 94320, Note_on_c, 0, 67, 69
2, 94320, Note_on_c, 0, 63, 58
2, 94680, Note_on_c, 0, 67, 0
2, 94680, Note_on_c, 0, 69, 60
2, 94800, Note_on_c, 0, 69, 0
2, 94800, Note_on_c, 0, 67, 58
2, 95040, Note_on_c, 0, 67, 0
2, 95040, Note_on_c, 0, 63, 0
2, 95040, Note_on_c, 0, 60, 0
2, 95040, Note_on_c, 0, 67, 58
2, 95040, Note_on_c, 0, 62, 58
2, 95040, Note_on_c, 0, 74, 69
2, 95760, Note_on_c, 0, 74, 0
2, 95760, Note_on_c, 0, 62, 0
2, 95760, Note_on_c, 0, 67, 0
2, 96120, Note_on_c, 0, 62, 57
2, 96240, Note_on_c, 0, 62, 0
2, 96240, Note_on_c, 0, 62, 57
2, 96480, Note_on_c, 0, 62, 0
2, 96480, Note_on_c, 0, 60, 56
2, 96480, Note_on_c, 0, 63, 67
2, 96480, Note_on_c, 0, 57, 56
2, 96840, Note_on_c, 0, 63, 0
2, 96840, Note_on_c, 0, 67, 59
2, 96960, Note_on_c, 0, 67, 0
2, 96960, Note_on_c, 0, 69, 59
2, 97200, Note_on_c, 0, 69, 0
2, 97200, Note_on_c, 0, 57, 0
2, 97200, Note_on_c, 0, 60, 0
2, 97200, Note_on_c, 0, 63, 57
2, 97200, Note_on_c, 0, 67, 57
2, 97200, Note_on_c, 0, 72, 68
2, 97560, Note_on_c, 0, 72, 0
2, 97560, Note_on_c, 0, 74, 59
2, 97680, Note_on_c, 0, 74, 0
2, 97680, Note_on_c, 0, 75, 59
2, 97920, Note_on_c, 0, 75, 0
2, 97920, Note_on_c, 0, 67, 0
2, 97920, Note_on_c, 0, 63, 0
2, 97920, Note_on_c, 0, 67, 56
2, 97920, Note_on_c, 0, 74, 67
2, 97920, Note_on_c, 0, 62, 56
2, 98640, Note_on_c, 0, 62, 0
2, 98640, Note_on_c, 0, 74, 0
2, 98640, Note_on_c, 0, 67, 0
2, 98640, Note_on_c, 0, 61, 55
2, 98640, Note_on_c, 0, 67, 66
2, 99000, Note_on_c, 0, 67, 0
2, 99000, Note_on_c, 0, 72, 56
2, 99120, Note_on_c, 0, 72, 0
2, 99120, Note_on_c, 0, 70, 59
2, 99360, Note_on_c, 0, 70, 0
2, 99360, Note_on_c, 0, 61, 0
2, 99360, Note_on_c, 0, 60, 55
2, 99360, Note_on_c, 0, 68, 66
2, 99720, Note_on_c, 0, 68, 0
2, 99720, Note_on_c, 0, 72, 55
2, 99840, Note_on_c, 0, 72, 0
2, 99840, Note_on_c, 0, 67, 56
2, 99960, Note_on_c, 0, 67, 0
2, 99960, Note_on_c, 0, 60, 0
2, 99960, Note_on_c, 0, 66, 55
2, 100020, Note_on_c, 0, 66, 0
2, 100020, Note_on_c, 0, 67, 56
2, 100080, Note_on_c, 0, 67, 0
2, 100080, Note_on_c, 0, 60, 52
2, 100080, Note_on_c, 0, 66, 62
2, 100440, Note_on_c, 0, 66, 0
2, 100440, Note_on_c, 0, 64, 55
2, 100560, Note_on_c, 0, 64, 0
2, 100560, Note_on_c, 0, 66, 55
2, 100800, Note_on_c, 0, 66, 0
2, 100800, Note_on_c, 0, 60, 0
2, 100800, Note_on_c, 0, 67, 52
2, 100800, Note_on_c, 0, 58, 44
2, 101520, Note_on_c, 0, 58, 0
2, 101520, Note_on_c, 0, 67, 0
2, 101520, Note_on_c, 0, 57, 45
2, 101520, Note_on_c, 0, 60, 45
2, 101520, Note_on_c, 0, 62, 53
2, 101880, Note_on_c, 0, 62, 0
2, 101880, Note_on_c, 0, 60, 0
2, 101880, Note_on_c, 0, 60, 45
2, 101880, Note_on_c, 0, 62, 53
2, 102000, Note_on_c, 0, 62, 0
2, 102000, Note_on_c, 0, 60, 0
2, 102000, Note_on_c, 0, 60, 45
2, 102000, Note_on_c, 0, 62, 53
2, 102240, Note_on_c, 0, 62, 0
2, 102240, Note_on_c, 0, 60, 0
2, 102240, Note_on_c, 0, 57, 0
2, 102240, Note_on_c, 0, 58, 47
2, 102240, Note_on_c, 0, 62, 47
2, 102240, Note_on_c, 0, 67, 56
2, 102720, Note_on_c, 0, 67, 0
2, 102720, Note_on_c, 0, 62, 0
2, 102720, Note_on_c, 0, 58, 0
2, 102720, Note_on_c, 0, 69, 55
2, 102960, Note_on_c, 0, 69, 0
2, 102960, Note_on_c, 0, 63, 51
2, 102960, Note_on_c, 0, 66, 50
2, 102960, Note_on_c, 0, 70, 60
2, 103440, Note_on_c, 0, 70, 0
2, 103440, Note_on_c, 0, 66, 0
2, 103440, Note_on_c, 0, 63, 0
2, 103440, Note_on_c, 0, 69, 53
2, 103680, Note_on_c, 0, 69, 0
2, 103680, Note_on_c, 0, 62, 48
2, 103680, Note_on_c, 0, 67, 57
2, 104160, Note_on_c, 0, 67, 0
2, 104160, Note_on_c, 0, 62, 0
2, 104160, Note_on_c, 0, 67, 53
2, 104400, Note_on_c, 0, 67, 0
2, 104400, Note_on_c, 0, 60, 53
2, 104400, Note_on_c, 0, 62, 53
2, 104760, Note_on_c, 0, 62, 0
2, 104760, Note_on_c, 0, 60, 0
2, 104760, Note_on_c, 0, 60, 53
2, 104760, Note_on_c, 0, 62, 53
2, 104880, Note_on_c, 0, 62, 0
2, 104880, Note_on_c, 0, 60, 0
2, 104880, Note_on_c, 0, 60, 51
2, 104880, Note_on_c, 0, 62, 51
2, 105120, Note_on_c, 0, 62, 0
2, 105120, Note_on_c, 0, 60, 0
2, 105120, Note_on_c, 0, 58, 47
2, 105120, Note_on_c, 0, 62, 56
2, 105120, Note_on_c, 0, 67, 56
2, 105600, Note_on_c, 0, 67, 0
2, 105600, Note_on_c, 0, 62, 0
2, 105600, Note_on_c, 0, 58, 0
2, 105600, Note_on_c, 0, 69, 55
2, 105840, Note_on_c, 0, 69, 0
2, 105840, Note_on_c, 0, 63, 51
2, 105840, Note_on_c, 0, 66, 51
2, 105840, Note_on_c, 0, 70, 60
2, 106320, Note_on_c, 0, 70, 0
2, 106320, Note_on_c, 0, 66, 0
2, 106320, Note_on_c, 0, 63, 0
2, 106320, Note_on_c, 0, 69, 51
2, 106560, Note_on_c, 0, 69, 0
2, 106560, Note_on_c, 0, 62, 51
2, 106560, Note_on_c, 0, 67, 57
2, 107040, Note_on_c, 0, 67, 0
2, 107040, Note_on_c, 0, 62, 0
2, 107040, Note_on_c, 0, 67, 53
2, 107280, Note_on_c, 0, 67, 0
2, 107280, Note_on_c, 0, 58, 53
2, 107280, Note_on_c, 0, 62, 53
2, 107640, Note_on_c, 0, 62, 0
2, 107640, Note_on_c, 0, 58, 0
2, 107640, Note_on_c, 0, 58, 53
2, 107640, Note_on_c, 0, 62, 53
2, 107760, Note_on_c, 0, 62, 0
2, 107760, Note_on_c, 0, 58, 0
2, 107760, Note_on_c, 0, 58, 50
2, 107760, Note_on_c, 0, 62, 50
2, 108000, Note_on_c, 0, 62, 0
2, 108000, Note_on_c, 0, 58, 0
2, 108000, Note_on_c, 0, 58, 60
2, 108000, Note_on_c, 0, 65, 60
2, 108480, Note_on_c, 0, 65, 0
2, 108480, Note_on_c, 0, 58, 0
2, 108480, Note_on_c, 0, 65, 58
2, 108720, Note_on_c, 0, 65, 0
2, 108720, Note_on_c, 0, 57, 58
2, 108720, Note_on_c, 0, 65, 58
2, 109200, Note_on_c, 0, 65, 0
2, 109200, Note_on_c, 0, 57, 0
2, 109200, Note_on_c, 0, 62, 56
2, 109440, Note_on_c, 0, 62, 0
2, 109440, Note_on_c, 0, 53, 61
2, 109440, Note_on_c, 0, 58, 61
2, 109920, Note_on_c, 0, 58, 0
2, 109920, Note_on_c, 0, 53, 0
2, 109920, Note_on_c, 0, 58, 62
2, 110160, Note_on_c, 0, 58, 0
2, 110160, Note_on_c, 0, 55, 59
2, 110160, Note_on_c, 0, 58, 59
2, 110520, Note_on_c, 0, 58, 0
2, 110520, Note_on_c, 0, 58, 59
2, 110640, Note_on_c, 0, 58, 0
2, 110640, Note_on_c, 0, 60, 58
2, 110880, Note_on_c, 0, 60, 0
2, 110880, Note_on_c, 0, 55, 0
2, 110880, Note_on_c, 0, 53, 49
2, 110880, Note_on_c, 0, 62, 49
2, 110880, Note_on_c, 0, 58, 49
2, 111600, Note_on_c, 0, 58, 0
2, 111600, Note_on_c, 0, 62, 0
2, 111600, Note_on_c, 0, 53, 0
2, 111600, Note_on_c, 0, 54, 46
2, 111600, Note_on_c, 0, 58, 55
2, 111960, Note_on_c, 0, 58, 0
2, 111960, Note_on_c, 0, 58, 50
2, 112080, Note_on_c, 0, 58, 0
2, 112080, Note_on_c, 0, 60, 56
2, 112320, Note_on_c, 0, 60, 0
2, 112320, Note_on_c, 0, 54, 0
2, 112320, Note_on_c, 0, 53, 48
2, 112320, Note_on_c, 0, 58, 57
2, 112320, Note_on_c, 0, 62, 57
2, 112800, Note_on_c, 0, 62, 0
2, 112800, Note_on_c, 0, 58, 0
2, 112800, Note_on_c, 0, 53, 0
2, 112800, Note_on_c, 0, 65, 60
2, 113040, Note_on_c, 0, 65, 0
2, 113040, Note_on_c, 0, 57, 56
2, 113040, Note_on_c, 0, 63, 66
2, 113040, Note_on_c, 0, 67, 66
2, 113520, Note_on_c, 0, 67, 0
2, 113520, Note_on_c, 0, 63, 0
2, 113520, Note_on_c, 0, 57, 0
2, 113520, Note_on_c, 0, 65, 56
2, 113760, Note_on_c, 0, 65, 0
2, 113760, Note_on_c, 0, 62, 58
2, 113760, Note_on_c, 0, 53, 49
2, 113760, Note_on_c, 0, 58, 52
2, 114240, Note_on_c, 0, 58, 0
2, 114240, Note_on_c, 0, 53, 0
2, 114240, Note_on_c, 0, 62, 0
2, 114240, Note_on_c, 0, 60, 52
2, 114480, Note_on_c, 0, 60, 0
2, 114480, Note_on_c, 0, 55, 49
2, 114480, Note_on_c, 0, 58, 49
2, 114840, Note_on_c, 0, 58, 0
2, 114840, Note_on_c, 0, 58, 48
2, 114960, Note_on_c, 0, 58, 0
2, 114960, Note_on_c, 0, 55, 0
2, 114960, Note_on_c, 0, 55, 41
2, 114960, Note_on_c, 0, 60, 41
2, 115200, Note_on_c, 0, 60, 0
2, 115200, Note_on_c, 0, 55, 0
2, 115200, Note_on_c, 0, 54, 38
2, 115200, Note_on_c, 0, 57, 40
2, 115200, Note_on_c, 0, 62, 49
2, 117360, Note_on_c, 0, 62, 0
2, 117360, Note_on_c, 0, 57, 0
2, 117360, Note_on_c, 0, 54, 0
2, 117360, Note_on_c, 0, 74, 53
2, 117720, Note_on_c, 0, 74, 0
2, 117720, Note_on_c, 0, 74, 53
2, 117840, Note_on_c, 0, 74, 0
2, 117840, Note_on_c, 0, 74, 53
2, 118080, Note_on_c, 0, 74, 0
2, 118080, Note_on_c, 0, 70, 47
2, 118080, Note_on_c, 0, 74, 47
2, 118080, Note_on_c, 0, 79, 56
2, 118560, Note_on_c, 0, 79, 0
2, 118560, Note_on_c, 0, 74, 0
2, 118560, Note_on_c, 0, 70, 0
2, 118560, Note_on_c, 0, 81, 53
2, 118800, Note_on_c, 0, 81, 0
2, 118800, Note_on_c, 0, 75, 51
2, 118800, Note_on_c, 0, 78, 51
2, 118800, Note_on_c, 0, 82, 60
2, 119280, Note_on_c, 0, 82, 0
2, 119280, Note_on_c, 0, 78, 0
2, 119280, Note_on_c, 0, 75, 0
2, 119280, Note_on_c, 0, 81, 50
2, 119520, Note_on_c, 0, 81, 0
2, 119520, Note_on_c, 0, 74, 48
2, 119520, Note_on_c, 0, 79, 57
2, 120000, Note_on_c, 0, 79, 0
2, 120000, Note_on_c, 0, 74, 0
2, 120000, Note_on_c, 0, 79, 53
2, 120240, Note_on_c, 0, 79, 0
2, 120240, Note_on_c, 0, 72, 53
2, 120240, Note_on_c, 0, 74, 53
2, 120600, Note_on_c, 0, 74, 0
2, 120600, Note_on_c, 0, 72, 0
2, 120600, Note_on_c, 0, 72, 53
2, 120600, Note_on_c, 0, 74, 53
2, 120720, Note_on_c, 0, 74, 0
2, 120720, Note_on_c, 0, 72, 0
2, 120720, Note_on_c, 0, 72, 53
2, 120720, Note_on_c, 0, 74, 53
2, 120960, Note_on_c, 0, 74, 0
2, 120960, Note_on_c, 0, 72, 0
2, 120960, Note_on_c, 0, 70, 47
2, 120960, Note_on_c, 0, 74, 56
2, 120960, Note_on_c, 0, 79, 56
2, 121440, Note_on_c, 0, 79, 0
2, 121440, Note_on_c, 0, 74, 0
2, 121440, Note_on_c, 0, 70, 0
2, 121440, Note_on_c, 0, 81, 55
2, 121680, Note_on_c, 0, 81, 0
2, 121680, Note_on_c, 0, 75, 51
2, 121680, Note_on_c, 0, 78, 51
2, 121680, Note_on_c, 0, 82, 60
2, 122160, Note_on_c, 0, 82, 0
2, 122160, Note_on_c, 0, 78, 0
2, 122160, Note_on_c, 0, 75, 0
2, 122160, Note_on_c, 0, 81, 53
2, 122400, Note_on_c, 0, 81, 0
2, 122400, Note_on_c, 0, 74, 57
2, 122400, Note_on_c, 0, 79, 57
2, 122880, Note_on_c, 0, 79, 0
2, 122880, Note_on_c, 0, 74, 0
2, 122880, Note_on_c, 0, 79, 53
2, 123120, Note_on_c, 0, 79, 0
2, 123120, Note_on_c, 0, 70, 53
2, 123120, Note_on_c, 0, 74, 53
2, 123480, Note_on_c, 0, 74, 0
2, 123480, Note_on_c, 0, 70, 0
2, 123480, Note_on_c, 0, 70, 53
2, 123480, Note_on_c, 0, 74, 53
2, 123600, Note_on_c, 0, 74, 0
2, 123600, Note_on_c, 0, 70, 0
2, 123600, Note_on_c, 0, 70, 53
2, 123600, Note_on_c, 0, 74, 53
2, 123840, Note_on_c, 0, 74, 0
2, 123840, Note_on_c, 0, 70, 0
2, 123840, Note_on_c, 0, 70, 60
2, 123840, Note_on_c, 0, 77, 60
2, 124320, Note_on_c, 0, 77, 0
2, 124320, Note_on_c, 0, 70, 0
2, 124320, Note_on_c, 0, 77, 58
2, 124560, Note_on_c, 0, 77, 0
2, 124560, Note_on_c, 0, 69, 58
2, 124560, Note_on_c, 0, 77, 58
2, 125040, Note_on_c, 0, 77, 0
2, 125040, Note_on_c, 0, 69, 0
2, 125040, Note_on_c, 0, 70, 61
2, 125280, Note_on_c, 0, 70, 0
2, 125280, Note_on_c, 0, 65, 54
2, 125280, Note_on_c, 0, 70, 61
2, 125760, Note_on_c, 0, 70, 0
2, 125760, Note_on_c, 0, 65, 0
2, 125760, Note_on_c, 0, 70, 62
2, 126000, Note_on_c, 0, 70, 0
2, 126000, Note_on_c, 0, 67, 59
2, 126000, Note_on_c, 0, 70, 59
2, 126360, Note_on_c, 0, 70, 0
2, 126360, Note_on_c, 0, 70, 59
2, 126480, Note_on_c, 0, 70, 0
2, 126480, Note_on_c, 0, 72, 58
2, 126720, Note_on_c, 0, 72, 0
2, 126720, Note_on_c, 0, 67, 0
2, 126720, Note_on_c, 0, 65, 49
2, 126720, Note_on_c, 0, 74, 49
2, 126720, Note_on_c, 0, 70, 49
2, 127440, Note_on_c, 0, 70, 0
2, 127440, Note_on_c, 0, 74, 0
2, 127440, Note_on_c, 0, 65, 0
2, 127440, Note_on_c, 0, 66, 46
2, 127440, Note_on_c, 0, 70, 55
2, 127800, Note_on_c, 0, 70, 0
2, 127800, Note_on_c, 0, 70, 50
2, 127920, Note_on_c, 0, 70, 0
2, 127920, Note_on_c, 0, 72, 56
2, 128160, Note_on_c, 0, 72, 0
2, 128160, Note_on_c, 0, 66, 0
2, 128160, Note_on_c, 0, 65, 48
2, 128160, Note_on_c, 0, 70, 57
2, 128160, Note_on_c, 0, 74, 57
2, 128640, Note_on_c, 0, 74, 0
2, 128640, Note_on_c, 0, 70, 0
2, 128640, Note_on_c, 0, 65, 0
2, 128640, Note_on_c, 0, 77, 60
2, 128880, Note_on_c, 0, 77, 0
2, 128880, Note_on_c, 0, 69, 56
2, 128880, Note_on_c, 0, 75, 66
2, 128880, Note_on_c, 0, 79, 66
2, 129360, Note_on_c, 0, 79, 0
2, 129360, Note_on_c, 0, 75, 0
2, 129360, Note_on_c, 0, 69, 0
2, 129360, Note_on_c, 0, 77, 56
2, 129600, Note_on_c, 0, 77, 0
2, 129600, Note_on_c, 0, 74, 58
2, 129600, Note_on_c, 0, 65, 49
2, 129600, Note_on_c, 0, 70, 58
2, 130080, Note_on_c, 0, 70, 0
2, 130080, Note_on_c, 0, 65, 0
2, 130080, Note_on_c, 0, 74, 0
2, 130080, Note_on_c, 0, 72, 52
2, 130320, Note_on_c, 0, 72, 0
2, 130320, Note_on_c, 0, 67, 49
2, 130320, Note_on_c, 0, 70, 49
2, 130680, Note_on_c, 0, 70, 0
2, 130680, Note_on_c, 0, 70, 48
2, 130800, Note_on_c, 0, 70, 0
2, 130800, Note_on_c, 0, 72, 41
2, 131040, Note_on_c, 0, 72, 0
2, 131040, Note_on_c, 0, 67, 0
2, 131040, Note_on_c, 0, 66, 40
2, 131040, Note_on_c, 0, 69, 40
2, 131040, Note_on_c, 0, 74, 49
2, 133200, Note_on_c, 0, 74, 0
2, 133200, Note_on_c, 0, 69, 0
2, 133200, Note_on_c, 0, 66, 0
2, 133200, Note_on_c, 0, 62, 53
2, 133560, Note_on_c, 0, 62, 0
2, 133560, Note_on_c, 0, 62, 53
2, 133680, Note_on_c, 0, 62, 0
2, 133680, Note_on_c, 0, 62, 53
2, 133920, Note_on_c, 0, 62, 0
2, 133920, Note_on_c, 0, 59, 47
2, 133920, Note_on_c, 0, 62, 47
2, 133920, Note_on_c, 0, 65, 56
2, 134400, Note_on_c, 0, 65, 0
2, 134400, Note_on_c, 0, 62, 0
2, 134400, Note_on_c, 0, 59, 0
2, 134400, Note_on_c, 0, 67, 55
2, 134580, Note_on_c, 0, 67, 0
2, 134580, Note_on_c, 0, 70, 51
2, 134640, Note_on_c, 0, 70, 0
2, 134640, Note_on_c, 0, 59, 51
2, 134640, Note_on_c, 0, 62, 60
2, 134640, Note_on_c, 0, 68, 60
2, 135120, Note_on_c, 0, 68, 0
2, 135120, Note_on_c, 0, 62, 0
2, 135120, Note_on_c, 0, 59, 0
2, 135120, Note_on_c, 0, 67, 55
2, 135360, Note_on_c, 0, 67, 0
2, 135360, Note_on_c, 0, 59, 48
2, 135360, Note_on_c, 0, 62, 48
2, 135360, Note_on_c, 0, 65, 57
2, 135840, Note_on_c, 0, 65, 0
2, 135840, Note_on_c, 0, 62, 0
2, 135840, Note_on_c, 0, 59, 0
2, 135840, Note_on_c, 0, 65, 53
2, 136080, Note_on_c, 0, 65, 0
2, 136080, Note_on_c, 0, 56, 53
2, 136080, Note_on_c, 0, 59, 53
2, 136440, Note_on_c, 0, 59, 0
2, 136440, Note_on_c, 0, 60, 53
2, 136560, Note_on_c, 0, 60, 0
2, 136560, Note_on_c, 0, 62, 53
2, 136800, Note_on_c, 0, 62, 0
2, 136800, Note_on_c, 0, 56, 0
2, 136800, Note_on_c, 0, 59, 47
2, 136800, Note_on_c, 0, 62, 47
2, 136800, Note_on_c, 0, 65, 56
2, 137280, Note_on_c, 0, 65, 0
2, 137280, Note_on_c, 0, 62, 0
2, 137280, Note_on_c, 0, 59, 0
2, 137280, Note_on_c, 0, 67, 57
2, 137460, Note_on_c, 0, 67, 0
2, 137460, Note_on_c, 0, 70, 51
2, 137520, Note_on_c, 0, 70, 0
2, 137520, Note_on_c, 0, 59, 51
2, 137520, Note_on_c, 0, 62, 60
2, 137520, Note_on_c, 0, 68, 60
2, 138000, Note_on_c, 0, 68, 0
2, 138000, Note_on_c, 0, 62, 0
2, 138000, Note_on_c, 0, 59, 0
2, 138000, Note_on_c, 0, 67, 55
2, 138240, Note_on_c, 0, 67, 0
2, 138240, Note_on_c, 0, 59, 48
2, 138240, Note_on_c, 0, 62, 48
2, 138240, Note_on_c, 0, 65, 57
2, 138720, Note_on_c, 0, 65, 0
2, 138720, Note_on_c, 0, 62, 0
2, 138720, Note_on_c, 0, 59, 0
2, 138720, Note_on_c, 0, 65, 53
2, 138960, Note_on_c, 0, 65, 0
2, 138960, Note_on_c, 0, 67, 67
2, 138960, Note_on_c, 0, 74, 67
2, 138960, Note_on_c, 0, 77, 79
2, 138960, Note_on_c, 0, 79, 79
2, 139320, Note_on_c, 0, 79, 0
2, 139320, Note_on_c, 0, 67, 0
2, 139320, Note_on_c, 0, 74, 0
2, 139320, Note_on_c, 0, 77, 0
2, 139320, Note_on_c, 0, 70, 61
2, 139320, Note_on_c, 0, 67, 61
2, 139320, Note_on_c, 0, 77, 72
2, 139320, Note_on_c, 0, 79, 72
2, 139440, Note_on_c, 0, 79, 0
2, 139440, Note_on_c, 0, 70, 0
2, 139440, Note_on_c, 0, 67, 0
2, 139440, Note_on_c, 0, 77, 0
2, 139440, Note_on_c, 0, 67, 61
2, 139440, Note_on_c, 0, 71, 61
2, 139440, Note_on_c, 0, 77, 72
2, 139440, Note_on_c, 0, 79, 72
2, 139680, Note_on_c, 0, 79, 0
2, 139680, Note_on_c, 0, 67, 0
2, 139680, Note_on_c, 0, 71, 0
2, 139680, Note_on_c, 0, 77, 0
2, 139680, Note_on_c, 0, 91, 84
2, 139680, Note_on_c, 0, 87, 70
2, 139680, Note_on_c, 0, 84, 70
2, 139680, Note_on_c, 0, 79, 70
2, 140160, Note_on_c, 0, 79, 0
2, 140160, Note_on_c, 0, 91, 0
2, 140160, Note_on_c, 0, 87, 0
2, 140160, Note_on_c, 0, 84, 0
2, 140160, Note_on_c, 0, 87, 81
2, 140160, Note_on_c, 0, 79, 68
2, 140160, Note_on_c, 0, 75, 68
2, 140400, Note_on_c, 0, 75, 0
2, 140400, Note_on_c, 0, 79, 0
2, 140400, Note_on_c, 0, 87, 0
2, 140400, Note_on_c, 0, 79, 72
2, 140400, Note_on_c, 0, 75, 72
2, 140400, Note_on_c, 0, 87, 85
2, 140760, Note_on_c, 0, 87, 0
2, 140760, Note_on_c, 0, 75, 0
2, 140760, Note_on_c, 0, 79, 0
2, 140760, Note_on_c, 0, 74, 67
2, 140760, Note_on_c, 0, 79, 67
2, 140760, Note_on_c, 0, 86, 79
2, 140880, Note_on_c, 0, 86, 0
2, 140880, Note_on_c, 0, 79, 0
2, 140880, Note_on_c, 0, 74, 0
2, 140880, Note_on_c, 0, 84, 79
2, 140880, Note_on_c, 0, 79, 67
2, 140880, Note_on_c, 0, 72, 67
2, 141120, Note_on_c, 0, 72, 0
2, 141120, Note_on_c, 0, 79, 0
2, 141120, Note_on_c, 0, 84, 0
2, 141120, Note_on_c, 0, 77, 72
2, 141120, Note_on_c, 0, 74, 72
2, 141120, Note_on_c, 0, 86, 85
2, 141480, Note_on_c, 0, 86, 0
2, 141480, Note_on_c, 0, 74, 0
2, 141480, Note_on_c, 0, 77, 0
2, 141480, Note_on_c, 0, 71, 62
2, 141480, Note_on_c, 0, 74, 62
2, 141480, Note_on_c, 0, 77, 74
2, 141600, Note_on_c, 0, 77, 0
2, 141600, Note_on_c, 0, 74, 0
2, 141600, Note_on_c, 0, 71, 0
2, 141600, Note_on_c, 0, 79, 74
2, 141600, Note_on_c, 0, 74, 62
2, 141600, Note_on_c, 0, 71, 62
2, 141780, Note_on_c, 0, 71, 0
2, 141780, Note_on_c, 0, 74, 0
2, 141780, Note_on_c, 0, 79, 0
2, 141780, Note_on_c, 0, 82, 66
2, 141840, Note_on_c, 0, 82, 0
2, 141840, Note_on_c, 0, 74, 64
2, 141840, Note_on_c, 0, 71, 64
2, 141840, Note_on_c, 0, 80, 78
2, 142200, Note_on_c, 0, 80, 0
2, 142200, Note_on_c, 0, 71, 0
2, 142200, Note_on_c, 0, 74, 0
2, 142200, Note_on_c, 0, 71, 62
2, 142200, Note_on_c, 0, 74, 62
2, 142200, Note_on_c, 0, 79, 73
2, 142320, Note_on_c, 0, 79, 0
2, 142320, Note_on_c, 0, 74, 0
2, 142320, Note_on_c, 0, 71, 0
2, 142320, Note_on_c, 0, 77, 73
2, 142320, Note_on_c, 0, 74, 62
2, 142320, Note_on_c, 0, 71, 62
2, 142560, Note_on_c, 0, 71, 0
2, 142560, Note_on_c, 0, 74, 0
2, 142560, Note_on_c, 0, 77, 0
2, 142560, Note_on_c, 0, 75, 80
2, 142560, Note_on_c, 0, 72, 66
2, 142920, Note_on_c, 0, 72, 0
2, 142920, Note_on_c, 0, 75, 0
2, 142920, Note_on_c, 0, 72, 62
2, 142920, Note_on_c, 0, 75, 62
2, 142920, Note_on_c, 0, 78, 74
2, 143040, Note_on_c, 0, 78, 0
2, 143040, Note_on_c, 0, 75, 0
2, 143040, Note_on_c, 0, 72, 0
2, 143040, Note_on_c, 0, 79, 74
2, 143040, Note_on_c, 0, 75, 62
2, 143040, Note_on_c, 0, 72, 62
2, 143280, Note_on_c, 0, 72, 0
2, 143280, Note_on_c, 0, 75, 0
2, 143280, Note_on_c, 0, 79, 0
2, 143280, Note_on_c, 0, 79, 72
2, 143280, Note_on_c, 0, 75, 72
2, 143280, Note_on_c, 0, 87, 85
2, 143640, Note_on_c, 0, 87, 0
2, 143640, Note_on_c, 0, 75, 0
2, 143640, Note_on_c, 0, 79, 0
2, 143640, Note_on_c, 0, 74, 67
2, 143640, Note_on_c, 0, 79, 67
2, 143640, Note_on_c, 0, 86, 79
2, 143760, Note_on_c, 0, 86, 0
2, 143760, Note_on_c, 0, 79, 0
2, 143760, Note_on_c, 0, 74, 0
2, 143760, Note_on_c, 0, 84, 79
2, 143760, Note_on_c, 0, 79, 67
2, 143760, Note_on_c, 0, 72, 67
2, 144000, Note_on_c, 0, 72, 0
2, 144000, Note_on_c, 0, 79, 0
2, 144000, Note_on_c, 0, 84, 0
2, 144000, Note_on_c, 0, 77, 72
2, 144000, Note_on_c, 0, 74, 72
2, 144000, Note_on_c, 0, 86, 85
2, 144360, Note_on_c, 0, 86, 0
2, 144360, Note_on_c, 0, 74, 0
2, 144360, Note_on_c, 0, 77, 0
2, 144360, Note_on_c, 0, 71, 62
2, 144360, Note_on_c, 0, 74, 62
2, 144360, Note_on_c, 0, 77, 74
2, 144480, Note_on_c, 0, 77, 0
2, 144480, Note_on_c, 0, 74, 0
2, 144480, Note_on_c, 0, 71, 0
2, 144480, Note_on_c, 0, 79, 74
2, 144480, Note_on_c, 0, 74, 62
2, 144480, Note_on_c, 0, 71, 62
2, 144660, Note_on_c, 0, 71, 0
2, 144660, Note_on_c, 0, 74, 0
2, 144660, Note_on_c, 0, 79, 0
2, 144660, Note_on_c, 0, 82, 67
2, 144720, Note_on_c, 0, 82, 0
2, 144720, Note_on_c, 0, 74, 64
2, 144720, Note_on_c, 0, 71, 64
2, 144720, Note_on_c, 0, 80, 78
2, 145080, Note_on_c, 0, 80, 0
2, 145080, Note_on_c, 0, 71, 0
2, 145080, Note_on_c, 0, 74, 0
2, 145080, Note_on_c, 0, 71, 62
2, 145080, Note_on_c, 0, 74, 62
2, 145080, Note_on_c, 0, 79, 73
2, 145200, Note_on_c, 0, 79, 0
2, 145200, Note_on_c, 0, 74, 0
2, 145200, Note_on_c, 0, 71, 0
2, 145200, Note_on_c, 0, 77, 73
2, 145200, Note_on_c, 0, 74, 62
2, 145200, Note_on_c, 0, 71, 62
2, 145440, Note_on_c, 0, 71, 0
2, 145440, Note_on_c, 0, 74, 0
2, 145440, Note_on_c, 0, 77, 0
2, 145440, Note_on_c, 0, 75, 80
2, 145440, Note_on_c, 0, 72, 66
2, 145800, Note_on_c, 0, 72, 0
2, 145800, Note_on_c, 0, 75, 0
2, 145800, Note_on_c, 0, 72, 62
2, 145800, Note_on_c, 0, 75, 62
2, 145800, Note_on_c, 0, 78, 74
2, 145920, Note_on_c, 0, 78, 0
2, 145920, Note_on_c, 0, 75, 0
2, 145920, Note_on_c, 0, 72, 0
2, 145920, Note_on_c, 0, 79, 74
2, 145920, Note_on_c, 0, 75, 62
2, 145920, Note_on_c, 0, 72, 62
2, 146160, Note_on_c, 0, 72, 0
2, 146160, Note_on_c, 0, 75, 0
2, 146160, Note_on_c, 0, 79, 0
2, 146160, Note_on_c, 0, 74, 68
2, 146160, Note_on_c, 0, 86, 81
2, 146160, Note_on_c, 0, 79, 68
2, 146520, Note_on_c, 0, 79, 0
2, 146520, Note_on_c, 0, 74, 0
2, 146524, Note_on_c, 0, 79, 74
2, 146636, Note_on_c, 0, 74, 68
2, 146644, Note_on_c, 0, 79, 0
2, 146876, Note_on_c, 0, 74, 0
2, 146880, Note_on_c, 0, 86, 0
2, 146880, Note_on_c, 0, 84, 81
2, 146880, Note_on_c, 0, 72, 68
2, 146880, Note_on_c, 0, 79, 68
2, 147240, Note_on_c, 0, 79, 0
2, 147240, Note_on_c, 0, 72, 0
2, 147244, Note_on_c, 0, 79, 70
2, 147360, Note_on_c, 0, 72, 66
2, 147364, Note_on_c, 0, 79, 0
2, 147480, Note_on_c, 0, 72, 0
2, 147480, Note_on_c, 0, 84, 0
2, 147480, Note_on_c, 0, 81, 62
2, 147540, Note_on_c, 0, 81, 0
2, 147540, Note_on_c, 0, 84, 62
2, 147600, Note_on_c, 0, 84, 0
2, 147600, Note_on_c, 0, 72, 51
2, 147600, Note_on_c, 0, 74, 51
2, 147600, Note_on_c, 0, 78, 51
2, 147600, Note_on_c, 0, 81, 72
2, 147960, Note_on_c, 0, 81, 0
2, 147960, Note_on_c, 0, 72, 0
2, 147960, Note_on_c, 0, 74, 0
2, 147960, Note_on_c, 0, 78, 0
2, 147960, Note_on_c, 0, 79, 69
2, 148080, Note_on_c, 0, 79, 0
2, 148080, Note_on_c, 0, 81, 69
2, 148320, Note_on_c, 0, 81, 0
2, 148320, Note_on_c, 0, 82, 81
2, 148320, Note_on_c, 0, 70, 68
2, 148320, Note_on_c, 0, 74, 68
2, 148680, Note_on_c, 0, 74, 0
2, 148680, Note_on_c, 0, 70, 0
2, 148684, Note_on_c, 0, 79, 71
2, 148800, Note_on_c, 0, 74, 68
2, 148804, Note_on_c, 0, 79, 0
2, 149040, Note_on_c, 0, 74, 0
2, 149040, Note_on_c, 0, 82, 0
2, 149040, Note_on_c, 0, 74, 72
2, 149040, Note_on_c, 0, 79, 72
2, 149040, Note_on_c, 0, 82, 72
2, 149040, Note_on_c, 0, 86, 72
2, 149400, Note_on_c, 0, 86, 0
2, 149400, Note_on_c, 0, 74, 0
2, 149400, Note_on_c, 0, 79, 0
2, 149400, Note_on_c, 0, 82, 0
2, 149400, Note_on_c, 0, 79, 69
2, 149520, Note_on_c, 0, 79, 0
2, 149520, Note_on_c, 0, 74, 69
2, 149760, Note_on_c, 0, 74, 0
2, 149760, Note_on_c, 0, 81, 68
2, 149760, Note_on_c, 0, 69, 57
2, 149760, Note_on_c, 0, 74, 68
2, 150120, Note_on_c, 0, 74, 0
2, 150120, Note_on_c, 0, 69, 0
2, 150120, Note_on_c, 0, 74, 74
2, 150240, Note_on_c, 0, 74, 0
2, 150240, Note_on_c, 0, 69, 66
2, 150480, Note_on_c, 0, 69, 0
2, 150480, Note_on_c, 0, 81, 0
2, 150480, Note_on_c, 0, 73, 61
2, 150480, Note_on_c, 0, 79, 61
2, 150480, Note_on_c, 0, 81, 72
2, 150840, Note_on_c, 0, 81, 0
2, 150840, Note_on_c, 0, 82, 69
2, 150960, Note_on_c, 0, 82, 0
2, 150960, Note_on_c, 0, 81, 69
2, 151200, Note_on_c, 0, 81, 0
2, 151200, Note_on_c, 0, 79, 0
2, 151200, Note_on_c, 0, 73, 0
2, 151200, Note_on_c, 0, 86, 79
2, 151200, Note_on_c, 0, 81, 67
2, 151200, Note_on_c, 0, 74, 67
2, 151920, Note_on_c, 0, 74, 0
2, 151920, Note_on_c, 0, 81, 0
2, 151920, Note_on_c, 0, 86, 0
2, 152280, Note_on_c, 0, 74, 63
2, 152400, Note_on_c, 0, 74, 0
2, 152400, Note_on_c, 0, 74, 63
2, 152640, Note_on_c, 0, 74, 0
2, 152640, Note_on_c, 0, 72, 60
2, 152640, Note_on_c, 0, 69, 60
2, 152640, Note_on_c, 0, 75, 71
2, 153000, Note_on_c, 0, 75, 0
2, 153000, Note_on_c, 0, 79, 61
2, 153120, Note_on_c, 0, 79, 0
2, 153120, Note_on_c, 0, 82, 61
2, 153360, Note_on_c, 0, 82, 0
2, 153360, Note_on_c, 0, 69, 0
2, 153360, Note_on_c, 0, 72, 0
2, 153360, Note_on_c, 0, 75, 58
2, 153360, Note_on_c, 0, 79, 58
2, 153360, Note_on_c, 0, 86, 69
2, 153720, Note_on_c, 0, 86, 0
2, 153720, Note_on_c, 0, 84, 63
2, 153840, Note_on_c, 0, 84, 0
2, 153840, Note_on_c, 0, 79, 63
2, 154080, Note_on_c, 0, 79, 0
2, 154080, Note_on_c, 0, 79, 0
2, 154080, Note_on_c, 0, 75, 0
2, 154080, Note_on_c, 0, 74, 52
2, 154080, Note_on_c, 0, 72, 52
2, 154080, Note_on_c, 0, 81, 71
2, 154440, Note_on_c, 0, 81, 0
2, 154440, Note_on_c, 0, 82, 61
2, 154560, Note_on_c, 0, 82, 0
2, 154560, Note_on_c, 0, 81, 61
2, 154800, Note_on_c, 0, 81, 0
2, 154800, Note_on_c, 0, 72, 0
2, 154800, Note_on_c, 0, 74, 0
2, 154800, Note_on_c, 0, 75, 58
2, 154800, Note_on_c, 0, 78, 58
2, 154800, Note_on_c, 0, 84, 69
2, 155160, Note_on_c, 0, 84, 0
2, 155160, Note_on_c, 0, 78, 0
2, 155160, Note_on_c, 0, 75, 0
2, 155160, Note_on_c, 0, 74, 53
2, 155160, Note_on_c, 0, 78, 53
2, 155160, Note_on_c, 0, 82, 63
2, 155280, Note_on_c, 0, 82, 0
2, 155280, Note_on_c, 0, 78, 0
2, 155280, Note_on_c, 0, 74, 0
2, 155280, Note_on_c, 0, 72, 53
2, 155280, Note_on_c, 0, 78, 53
2, 155280, Note_on_c, 0, 81, 63
2, 155520, Note_on_c, 0, 81, 0
2, 155520, Note_on_c, 0, 78, 0
2, 155520, Note_on_c, 0, 72, 0
2, 155520, Note_on_c, 0, 70, 60
2, 155520, Note_on_c, 0, 74, 60
2, 155520, Note_on_c, 0, 79, 71
2, 155880, Note_on_c, 0, 79, 0
2, 155880, Note_on_c, 0, 74, 0
2, 155880, Note_on_c, 0, 70, 0
2, 155880, Note_on_c, 0, 72, 51
2, 155880, Note_on_c, 0, 75, 51
2, 155880, Note_on_c, 0, 81, 61
2, 156000, Note_on_c, 0, 81, 0
2, 156000, Note_on_c, 0, 75, 0
2, 156000, Note_on_c, 0, 72, 0
2, 156000, Note_on_c, 0, 70, 51
2, 156000, Note_on_c, 0, 74, 51
2, 156000, Note_on_c, 0, 79, 61
2, 156240, Note_on_c, 0, 79, 0
2, 156240, Note_on_c, 0, 74, 0
2, 156240, Note_on_c, 0, 70, 0
2, 156240, Note_on_c, 0, 69, 55
2, 156240, Note_on_c, 0, 72, 55
2, 156240, Note_on_c, 0, 77, 64
2, 156600, Note_on_c, 0, 77, 0
2, 156600, Note_on_c, 0, 72, 0
2, 156600, Note_on_c, 0, 69, 0
2, 156600, Note_on_c, 0, 70, 49
2, 156600, Note_on_c, 0, 74, 49
2, 156600, Note_on_c, 0, 79, 58
2, 156720, Note_on_c, 0, 79, 0
2, 156720, Note_on_c, 0, 74, 0
2, 156720, Note_on_c, 0, 70, 0
2, 156720, Note_on_c, 0, 67, 49
2, 156720, Note_on_c, 0, 70, 49
2, 156720, Note_on_c, 0, 75, 58
2, 156960, Note_on_c, 0, 75, 0
2, 156960, Note_on_c, 0, 70, 0
2, 156960, Note_on_c, 0, 67, 0
2, 156960, Note_on_c, 0, 66, 51
2, 156960, Note_on_c, 0, 69, 51
2, 156960, Note_on_c, 0, 74, 61
2, 157680, Note_on_c, 0, 74, 0
2, 157680, Note_on_c, 0, 69, 0
2, 157680, Note_on_c, 0, 66, 0
2, 158040, Note_on_c, 0, 62, 47
2, 158160, Note_on_c, 0, 62, 0
2, 158160, Note_on_c, 0, 62, 47
2, 158400, Note_on_c, 0, 62, 0
2, 158400, Note_on_c, 0, 60, 53
2, 158400, Note_on_c, 0, 57, 53
2, 158400, Note_on_c, 0, 63, 63
2, 158760, Note_on_c, 0, 63, 0
2, 158760, Note_on_c, 0, 67, 55
2, 158880, Note_on_c, 0, 67, 0
2, 158880, Note_on_c, 0, 70, 55
2, 159120, Note_on_c, 0, 70, 0
2, 159120, Note_on_c, 0, 57, 0
2, 159120, Note_on_c, 0, 60, 0
2, 159120, Note_on_c, 0, 63, 51
2, 159120, Note_on_c, 0, 67, 51
2, 159120, Note_on_c, 0, 74, 61
2, 159480, Note_on_c, 0, 74, 0
2, 159480, Note_on_c, 0, 72, 57
2, 159600, Note_on_c, 0, 72, 0
2, 159600, Note_on_c, 0, 67, 57
2, 159840, Note_on_c, 0, 67, 0
2, 159840, Note_on_c, 0, 67, 0
2, 159840, Note_on_c, 0, 63, 0
2, 159840, Note_on_c, 0, 62, 50
2, 159840, Note_on_c, 0, 60, 47
2, 159840, Note_on_c, 0, 69, 63
2, 160200, Note_on_c, 0, 69, 0
2, 160200, Note_on_c, 0, 70, 55
2, 160320, Note_on_c, 0, 70, 0
2, 160320, Note_on_c, 0, 69, 55
2, 160560, Note_on_c, 0, 69, 0
2, 160560, Note_on_c, 0, 60, 0
2, 160560, Note_on_c, 0, 62, 0
2, 160560, Note_on_c, 0, 63, 51
2, 160560, Note_on_c, 0, 66, 51
2, 160560, Note_on_c, 0, 72, 61
2, 160920, Note_on_c, 0, 72, 0
2, 160920, Note_on_c, 0, 70, 57
2, 161040, Note_on_c, 0, 70, 0
2, 161040, Note_on_c, 0, 69, 57
2, 161280, Note_on_c, 0, 69, 0
2, 161280, Note_on_c, 0, 66, 0
2, 161280, Note_on_c, 0, 63, 0
2, 161280, Note_on_c, 0, 58, 53
2, 161280, Note_on_c, 0, 62, 53
2, 161280, Note_on_c, 0, 67, 63
2, 161640, Note_on_c, 0, 67, 0
2, 161640, Note_on_c, 0, 62, 0
2, 161640, Note_on_c, 0, 58, 0
2, 161640, Note_on_c, 0, 60, 46
2, 161640, Note_on_c, 0, 63, 46
2, 161640, Note_on_c, 0, 69, 55
2, 161760, Note_on_c, 0, 69, 0
2, 161760, Note_on_c, 0, 63, 0
2, 161760, Note_on_c, 0, 60, 0
2, 161760, Note_on_c, 0, 58, 46
2, 161760, Note_on_c, 0, 62, 46
2, 161760, Note_on_c, 0, 67, 55
2, 162000, Note_on_c, 0, 67, 0
2, 162000, Note_on_c, 0, 62, 0
2, 162000, Note_on_c, 0, 58, 0
2, 162000, Note_on_c, 0, 57, 49
2, 162000, Note_on_c, 0, 60, 49
2, 162000, Note_on_c, 0, 65, 58
2, 162360, Note_on_c, 0, 65, 0
2, 162360, Note_on_c, 0, 60, 0
2, 162360, Note_on_c, 0, 57, 0
2, 162360, Note_on_c, 0, 58, 42
2, 162360, Note_on_c, 0, 62, 42
2, 162360, Note_on_c, 0, 67, 51
2, 162480, Note_on_c, 0, 67, 0
2, 162480, Note_on_c, 0, 62, 0
2, 162480, Note_on_c, 0, 58, 0
2, 162480, Note_on_c, 0, 55, 42
2, 162480, Note_on_c, 0, 58, 42
2, 162480, Note_on_c, 0, 63, 51
2, 162720, Note_on_c, 0, 63, 0
2, 162720, Note_on_c, 0, 58, 0
2, 162720, Note_on_c, 0, 55, 0
2, 162720, Note_on_c, 0, 57, 58
2, 162720, Note_on_c, 0, 62, 58
2, 163440, Note_on_c, 0, 62, 0
2, 163440, Note_on_c, 0, 57, 0
2, 163440, Note_on_c, 0, 60, 53
2, 163440, Note_on_c, 0, 62, 53
2, 163800, Note_on_c, 0, 62, 0
2, 163800, Note_on_c, 0, 62, 53
2, 163920, Note_on_c, 0, 62, 0
2, 163920, Note_on_c, 0, 62, 53
2, 164160, Note_on_c, 0, 62, 0
2, 164160, Note_on_c, 0, 60, 0
2, 164160, Note_on_c, 0, 58, 47
2, 164160, Note_on_c, 0, 62, 47
2, 164160, Note_on_c, 0, 67, 56
2, 164640, Note_on_c, 0, 67, 0
2, 164640, Note_on_c, 0, 62, 0
2, 164640, Note_on_c, 0, 58, 0
2, 164640, Note_on_c, 0, 69, 56
2, 164880, Note_on_c, 0, 69, 0
2, 164880, Note_on_c, 0, 63, 51
2, 164880, Note_on_c, 0, 66, 60
2, 164880, Note_on_c, 0, 70, 60
2, 165360, Note_on_c, 0, 70, 0
2, 165360, Note_on_c, 0, 66, 0
2, 165360, Note_on_c, 0, 63, 0
2, 165360, Note_on_c, 0, 69, 59
2, 165600, Note_on_c, 0, 69, 0
2, 165600, Note_on_c, 0, 58, 48
2, 165600, Note_on_c, 0, 62, 48
2, 165600, Note_on_c, 0, 67, 57
2, 166080, Note_on_c, 0, 67, 0
2, 166080, Note_on_c, 0, 62, 0
2, 166080, Note_on_c, 0, 58, 0
2, 166080, Note_on_c, 0, 67, 53
2, 166320, Note_on_c, 0, 67, 0
2, 166320, Note_on_c, 0, 60, 53
2, 166320, Note_on_c, 0, 62, 53
2, 166680, Note_on_c, 0, 62, 0
2, 166680, Note_on_c, 0, 60, 0
2, 166680, Note_on_c, 0, 60, 53
2, 166680, Note_on_c, 0, 62, 53
2, 166800, Note_on_c, 0, 62, 0
2, 166800, Note_on_c, 0, 60, 0
2, 166800, Note_on_c, 0, 60, 51
2, 166800, Note_on_c, 0, 62, 51
2, 167040, Note_on_c, 0, 62, 0
2, 167040, Note_on_c, 0, 60, 0
2, 167040, Note_on_c, 0, 58, 47
2, 167040, Note_on_c, 0, 62, 56
2, 167040, Note_on_c, 0, 67, 56
2, 167520, Note_on_c, 0, 67, 0
2, 167520, Note_on_c, 0, 62, 0
2, 167520, Note_on_c, 0, 58, 0
2, 167520, Note_on_c, 0, 69, 56
2, 167760, Note_on_c, 0, 69, 0
2, 167760, Note_on_c, 0, 63, 60
2, 167760, Note_on_c, 0, 66, 60
2, 167760, Note_on_c, 0, 70, 60
2, 168240, Note_on_c, 0, 70, 0
2, 168240, Note_on_c, 0, 66, 0
2, 168240, Note_on_c, 0, 63, 0
2, 168240, Note_on_c, 0, 69, 53
2, 168480, Note_on_c, 0, 69, 0
2, 168480, Note_on_c, 0, 58, 48
2, 168480, Note_on_c, 0, 62, 48
2, 168480, Note_on_c, 0, 67, 57
2, 168960, Note_on_c, 0, 67, 0
2, 168960, Note_on_c, 0, 62, 0
2, 168960, Note_on_c, 0, 58, 0
2, 168960, Note_on_c, 0, 67, 53
2, 169200, Note_on_c, 0, 67, 0
2, 169200, Note_on_c, 0, 58, 53
2, 169200, Note_on_c, 0, 62, 53
2, 169560, Note_on_c, 0, 62, 0
2, 169560, Note_on_c, 0, 58, 0
2, 169560, Note_on_c, 0, 58, 53
2, 169560, Note_on_c, 0, 62, 53
2, 169680, Note_on_c, 0, 62, 0
2, 169680, Note_on_c, 0, 58, 0
2, 169680, Note_on_c, 0, 58, 49
2, 169680, Note_on_c, 0, 62, 49
2, 169920, Note_on_c, 0, 62, 0
2, 169920, Note_on_c, 0, 58, 0
2, 169920, Note_on_c, 0, 58, 60
2, 169920, Note_on_c, 0, 65, 60
2, 170400, Note_on_c, 0, 65, 0
2, 170400, Note_on_c, 0, 58, 0
2, 170400, Note_on_c, 0, 65, 58
2, 170640, Note_on_c, 0, 65, 0
2, 170640, Note_on_c, 0, 57, 58
2, 170640, Note_on_c, 0, 65, 58
2, 171120, Note_on_c, 0, 65, 0
2, 171120, Note_on_c, 0, 57, 0
2, 171120, Note_on_c, 0, 62, 59
2, 171360, Note_on_c, 0, 62, 0
2, 171360, Note_on_c, 0, 53, 61
2, 171360, Note_on_c, 0, 58, 61
2, 171840, Note_on_c, 0, 58, 0
2, 171840, Note_on_c, 0, 53, 0
2, 171840, Note_on_c, 0, 58, 62
2, 172080, Note_on_c, 0, 58, 0
2, 172080, Note_on_c, 0, 55, 59
2, 172080, Note_on_c, 0, 58, 59
2, 172440, Note_on_c, 0, 58, 0
2, 172440, Note_on_c, 0, 58, 59
2, 172560, Note_on_c, 0, 58, 0
2, 172560, Note_on_c, 0, 60, 58
2, 172800, Note_on_c, 0, 60, 0
2, 172800, Note_on_c, 0, 55, 0
2, 172800, Note_on_c, 0, 53, 49
2, 172800, Note_on_c, 0, 62, 49
2, 172800, Note_on_c, 0, 58, 49
2, 173520, Note_on_c, 0, 58, 0
2, 173520, Note_on_c, 0, 62, 0
2, 173520, Note_on_c, 0, 53, 0
2, 173520, Note_on_c, 0, 54, 46
2, 173520, Note_on_c, 0, 58, 55
2, 173880, Note_on_c, 0, 58, 0
2, 173880, Note_on_c, 0, 58, 50
2, 174000, Note_on_c, 0, 58, 0
2, 174000, Note_on_c, 0, 60, 56
2, 174240, Note_on_c, 0, 60, 0
2, 174240, Note_on_c, 0, 54, 0
2, 174240, Note_on_c, 0, 53, 48
2, 174240, Note_on_c, 0, 58, 57
2, 174240, Note_on_c, 0, 62, 57
2, 174720, Note_on_c, 0, 62, 0
2, 174720, Note_on_c, 0, 58, 0
2, 174720, Note_on_c, 0, 53, 0
2, 174720, Note_on_c, 0, 65, 60
2, 174960, Note_on_c, 0, 65, 0
2, 174960, Note_on_c, 0, 57, 56
2, 174960, Note_on_c, 0, 63, 66
2, 174960, Note_on_c, 0, 67, 66
2, 175440, Note_on_c, 0, 67, 0
2, 175440, Note_on_c, 0, 63, 0
2, 175440, Note_on_c, 0, 57, 0
2, 175440, Note_on_c, 0, 65, 56
2, 175680, Note_on_c, 0, 65, 0
2, 175680, Note_on_c, 0, 62, 58
2, 175680, Note_on_c, 0, 53, 49
2, 175680, Note_on_c, 0, 58, 50
2, 176160, Note_on_c, 0, 58, 0
2, 176160, Note_on_c, 0, 53, 0
2, 176160, Note_on_c, 0, 62, 0
2, 176160, Note_on_c, 0, 60, 52
2, 176400, Note_on_c, 0, 60, 0
2, 176400, Note_on_c, 0, 55, 49
2, 176400, Note_on_c, 0, 58, 49
2, 176760, Note_on_c, 0, 58, 0
2, 176760, Note_on_c, 0, 58, 48
2, 176880, Note_on_c, 0, 58, 0
2, 176880, Note_on_c, 0, 55, 0
2, 176880, Note_on_c, 0, 55, 41
2, 176880, Note_on_c, 0, 60, 41
2, 177120, Note_on_c, 0, 60, 0
2, 177120, Note_on_c, 0, 55, 0
2, 177120, Note_on_c, 0, 54, 40
2, 177120, Note_on_c, 0, 57, 40
2, 177120, Note_on_c, 0, 62, 49
2, 179280, Note_on_c, 0, 62, 0
2, 179280, Note_on_c, 0, 57, 0
2, 179280, Note_on_c, 0, 54, 0
2, 179280, Note_on_c, 0, 62, 53
2, 179640, Note_on_c, 0, 62, 0
2, 179640, Note_on_c, 0, 62, 53
2, 179760, Note_on_c, 0, 62, 0
2, 179760, Note_on_c, 0, 62, 53
2, 180000, Note_on_c, 0, 62, 0
2, 180000, Note_on_c, 0, 59, 47
2, 180000, Note_on_c, 0, 62, 47
2, 180000, Note_on_c, 0, 65, 56
2, 180480, Note_on_c, 0, 65, 0
2, 180480, Note_on_c, 0, 62, 0
2, 180480, Note_on_c, 0, 59, 0
2, 180480, Note_on_c, 0, 67, 58
2, 180660, Note_on_c, 0, 67, 0
2, 180660, Note_on_c, 0, 70, 51
2, 180720, Note_on_c, 0, 70, 0
2, 180720, Note_on_c, 0, 59, 51
2, 180720, Note_on_c, 0, 62, 60
2, 180720, Note_on_c, 0, 68, 60
2, 181200, Note_on_c, 0, 68, 0
2, 181200, Note_on_c, 0, 62, 0
2, 181200, Note_on_c, 0, 59, 0
2, 181200, Note_on_c, 0, 67, 55
2, 181440, Note_on_c, 0, 67, 0
2, 181440, Note_on_c, 0, 59, 48
2, 181440, Note_on_c, 0, 62, 48
2, 181440, Note_on_c, 0, 65, 57
2, 181920, Note_on_c, 0, 65, 0
2, 181920, Note_on_c, 0, 62, 0
2, 181920, Note_on_c, 0, 59, 0
2, 181920, Note_on_c, 0, 65, 53
2, 182160, Note_on_c, 0, 65, 0
2, 182160, Note_on_c, 0, 56, 53
2, 182160, Note_on_c, 0, 59, 53
2, 182520, Note_on_c, 0, 59, 0
2, 182520, Note_on_c, 0, 60, 53
2, 182640, Note_on_c, 0, 60, 0
2, 182640, Note_on_c, 0, 62, 53
2, 182880, Note_on_c, 0, 62, 0
2, 182880, Note_on_c, 0, 56, 0
2, 182880, Note_on_c, 0, 59, 47
2, 182880, Note_on_c, 0, 62, 47
2, 182880, Note_on_c, 0, 65, 56
2, 183360, Note_on_c, 0, 65, 0
2, 183360, Note_on_c, 0, 62, 0
2, 183360, Note_on_c, 0, 59, 0
2, 183360, Note_on_c, 0, 67, 58
2, 183540, Note_on_c, 0, 67, 0
2, 183540, Note_on_c, 0, 70, 51
2, 183600, Note_on_c, 0, 70, 0
2, 183600, Note_on_c, 0, 59, 51
2, 183600, Note_on_c, 0, 62, 60
2, 183600, Note_on_c, 0, 68, 60
2, 184080, Note_on_c, 0, 68, 0
2, 184080, Note_on_c, 0, 62, 0
2, 184080, Note_on_c, 0, 59, 0
2, 184080, Note_on_c, 0, 67, 56
2, 184320, Note_on_c, 0, 67, 0
2, 184320, Note_on_c, 0, 59, 48
2, 184320, Note_on_c, 0, 62, 48
2, 184320, Note_on_c, 0, 65, 57
2, 184800, Note_on_c, 0, 65, 0
2, 184800, Note_on_c, 0, 62, 0
2, 184800, Note_on_c, 0, 59, 0
2, 184800, Note_on_c, 0, 65, 53
2, 185040, Note_on_c, 0, 65, 0
2, 185040, Note_on_c, 0, 67, 67
2, 185040, Note_on_c, 0, 74, 67
2, 185040, Note_on_c, 0, 77, 79
2, 185040, Note_on_c, 0, 79, 79
2, 185400, Note_on_c, 0, 79, 0
2, 185400, Note_on_c, 0, 67, 0
2, 185400, Note_on_c, 0, 74, 0
2, 185400, Note_on_c, 0, 77, 0
2, 185400, Note_on_c, 0, 70, 61
2, 185400, Note_on_c, 0, 67, 61
2, 185400, Note_on_c, 0, 77, 72
2, 185400, Note_on_c, 0, 79, 72
2, 185520, Note_on_c, 0, 79, 0
2, 185520, Note_on_c, 0, 70, 0
2, 185520, Note_on_c, 0, 67, 0
2, 185520, Note_on_c, 0, 77, 0
2, 185520, Note_on_c, 0, 67, 61
2, 185520, Note_on_c, 0, 71, 61
2, 185520, Note_on_c, 0, 77, 72
2, 185520, Note_on_c, 0, 79, 72
2, 185760, Note_on_c, 0, 79, 0
2, 185760, Note_on_c, 0, 67, 0
2, 185760, Note_on_c, 0, 71, 0
2, 185760, Note_on_c, 0, 77, 0
2, 185760, Note_on_c, 0, 91, 84
2, 185760, Note_on_c, 0, 87, 70
2, 185760, Note_on_c, 0, 84, 70
2, 185760, Note_on_c, 0, 79, 70
2, 187200, Note_on_c, 0, 79, 0
2, 187200, Note_on_c, 0, 91, 0
2, 187200, Note_on_c, 0, 87, 0
2, 187200, Note_on_c, 0, 84, 0
2, 187920, Note_on_c, 0, 63, 58
2, 187920, Note_on_c, 0, 67, 58
2, 187920, Note_on_c, 0, 69, 58
2, 188280, Note_on_c, 0, 69, 0
2, 188280, Note_on_c, 0, 67, 0
2, 188280, Note_on_c, 0, 63, 0
2, 188280, Note_on_c, 0, 63, 58
2, 188280, Note_on_c, 0, 67, 58
2, 188280, Note_on_c, 0, 70, 70
2, 188400, Note_on_c, 0, 70, 0
2, 188400, Note_on_c, 0, 67, 0
2, 188400, Note_on_c, 0, 63, 0
2, 188400, Note_on_c, 0, 63, 58
2, 188400, Note_on_c, 0, 67, 58
2, 188400, Note_on_c, 0, 72, 70
2, 188640, Note_on_c, 0, 72, 0
2, 188640, Note_on_c, 0, 67, 0
2, 188640, Note_on_c, 0, 63, 0
2, 188640, Note_on_c, 0, 63, 63
2, 188640, Note_on_c, 0, 67, 63
2, 188640, Note_on_c, 0, 72, 77
2, 188640, Note_on_c, 0, 75, 77
2, 189360, Note_on_c, 0, 75, 0
2, 189360, Note_on_c, 0, 63, 0
2, 189360, Note_on_c, 0, 67, 0
2, 189360, Note_on_c, 0, 72, 0
2, 189360, Note_on_c, 0, 67, 58
2, 189360, Note_on_c, 0, 69, 58
2, 189360, Note_on_c, 0, 72, 70
2, 189720, Note_on_c, 0, 72, 0
2, 189720, Note_on_c, 0, 69, 0
2, 189720, Note_on_c, 0, 67, 0
2, 189720, Note_on_c, 0, 67, 63
2, 189720, Note_on_c, 0, 69, 63
2, 189720, Note_on_c, 0, 74, 77
2, 189840, Note_on_c, 0, 74, 0
2, 189840, Note_on_c, 0, 69, 0
2, 189840, Note_on_c, 0, 67, 0
2, 189840, Note_on_c, 0, 67, 62
2, 189840, Note_on_c, 0, 69, 62
2, 189840, Note_on_c, 0, 75, 74
2, 190080, Note_on_c, 0, 75, 0
2, 190080, Note_on_c, 0, 69, 0
2, 190080, Note_on_c, 0, 67, 0
2, 190080, Note_on_c, 0, 67, 70
2, 190080, Note_on_c, 0, 69, 70
2, 190080, Note_on_c, 0, 75, 82
2, 190080, Note_on_c, 0, 81, 82
2, 190800, Note_on_c, 0, 81, 0
2, 190800, Note_on_c, 0, 67, 0
2, 190800, Note_on_c, 0, 69, 0
2, 190800, Note_on_c, 0, 75, 0
2, 190800, Note_on_c, 0, 60, 58
2, 190800, Note_on_c, 0, 67, 69
2, 190800, Note_on_c, 0, 63, 58
2, 191160, Note_on_c, 0, 67, 0
2, 191160, Note_on_c, 0, 69, 60
2, 191280, Note_on_c, 0, 69, 0
2, 191280, Note_on_c, 0, 67, 58
2, 191520, Note_on_c, 0, 67, 0
2, 191520, Note_on_c, 0, 63, 0
2, 191520, Note_on_c, 0, 60, 0
2, 191520, Note_on_c, 0, 67, 58
2, 191520, Note_on_c, 0, 62, 58
2, 191520, Note_on_c, 0, 74, 69
2, 192240, Note_on_c, 0, 74, 0
2, 192240, Note_on_c, 0, 62, 0
2, 192240, Note_on_c, 0, 67, 0
2, 192600, Note_on_c, 0, 62, 57
2, 192720, Note_on_c, 0, 62, 0
2, 192720, Note_on_c, 0, 62, 53
2, 192960, Note_on_c, 0, 62, 0
2, 192960, Note_on_c, 0, 60, 56
2, 192960, Note_on_c, 0, 63, 67
2, 192960, Note_on_c, 0, 57, 56
2, 193320, Note_on_c, 0, 63, 0
2, 193320, Note_on_c, 0, 67, 59
2, 193440, Note_on_c, 0, 67, 0
2, 193440, Note_on_c, 0, 69, 59
2, 193680, Note_on_c, 0, 69, 0
2, 193680, Note_on_c, 0, 57, 0
2, 193680, Note_on_c, 0, 60, 0
2, 193680, Note_on_c, 0, 63, 57
2, 193680, Note_on_c, 0, 67, 57
2, 193680, Note_on_c, 0, 72, 68
2, 194040, Note_on_c, 0, 72, 0
2, 194040, Note_on_c, 0, 74, 59
2, 194160, Note_on_c, 0, 74, 0
2, 194160, Note_on_c, 0, 75, 59
2, 194400, Note_on_c, 0, 75, 0
2, 194400, Note_on_c, 0, 67, 0
2, 194400, Note_on_c, 0, 63, 0
2, 194400, Note_on_c, 0, 67, 56
2, 194400, Note_on_c, 0, 74, 67
2, 194400, Note_on_c, 0, 62, 56
2, 195120, Note_on_c, 0, 62, 0
2, 195120, Note_on_c, 0, 74, 0
2, 195120, Note_on_c, 0, 67, 0
2, 195120, Note_on_c, 0, 61, 55
2, 195120, Note_on_c, 0, 67, 66
2, 195480, Note_on_c, 0, 67, 0
2, 195480, Note_on_c, 0, 72, 56
2, 195600, Note_on_c, 0, 72, 0
2, 195600, Note_on_c, 0, 70, 59
2, 195840, Note_on_c, 0, 70, 0
2, 195840, Note_on_c, 0, 61, 0
2, 195840, Note_on_c, 0, 60, 55
2, 195840, Note_on_c, 0, 68, 66
2, 196200, Note_on_c, 0, 68, 0
2, 196200, Note_on_c, 0, 72, 55
2, 196320, Note_on_c, 0, 72, 0
2, 196320, Note_on_c, 0, 67, 56
2, 196440, Note_on_c, 0, 67, 0
2, 196440, Note_on_c, 0, 60, 0
2, 196440, Note_on_c, 0, 66, 55
2, 196500, Note_on_c, 0, 66, 0
2, 196500, Note_on_c, 0, 67, 56
2, 196560, Note_on_c, 0, 67, 0
2, 196560, Note_on_c, 0, 60, 52
2, 196560, Note_on_c, 0, 66, 62
2, 196920, Note_on_c, 0, 66, 0
2, 196920, Note_on_c, 0, 64, 55
2, 197040, Note_on_c, 0, 64, 0
2, 197040, Note_on_c, 0, 66, 55
2, 197280, Note_on_c, 0, 66, 0
2, 197280, Note_on_c, 0, 60, 0
2, 197280, Note_on_c, 0, 67, 52
2, 197280, Note_on_c, 0, 58, 44
2, 198000, Note_on_c, 0, 58, 0
2, 198000, Note_on_c, 0, 67, 0
2, 198000, Note_on_c, 0, 57, 45
2, 198000, Note_on_c, 0, 60, 45
2, 198000, Note_on_c, 0, 62, 53
2, 198360, Note_on_c, 0, 62, 0
2, 198360, Note_on_c, 0, 60, 0
2, 198360, Note_on_c, 0, 60, 45
2, 198360, Note_on_c, 0, 62, 53
2, 198480, Note_on_c, 0, 62, 0
2, 198480, Note_on_c, 0, 60, 0
2, 198480, Note_on_c, 0, 60, 49
2, 198480, Note_on_c, 0, 62, 49
2, 198720, Note_on_c, 0, 62, 0
2, 198720, Note_on_c, 0, 60, 0
2, 198720, Note_on_c, 0, 57, 0
2, 198720, Note_on_c, 0, 58, 47
2, 198720, Note_on_c, 0, 62, 47
2, 198720, Note_on_c, 0, 67, 56
2, 199200, Note_on_c, 0, 67, 0
2, 199200, Note_on_c, 0, 62, 0
2, 199200, Note_on_c, 0, 58, 0
2, 199200, Note_on_c, 0, 69, 55
2, 199440, Note_on_c, 0, 69, 0
2, 199440, Note_on_c, 0, 63, 51
2, 199440, Note_on_c, 0, 66, 60
2, 199440, Note_on_c, 0, 70, 60
2, 199920, Note_on_c, 0, 70, 0
2, 199920, Note_on_c, 0, 66, 0
2, 199920, Note_on_c, 0, 63, 0
2, 199920, Note_on_c, 0, 69, 54
2, 200160, Note_on_c, 0, 69, 0
2, 200160, Note_on_c, 0, 62, 48
2, 200160, Note_on_c, 0, 67, 57
2, 200640, Note_on_c, 0, 67, 0
2, 200640, Note_on_c, 0, 62, 0
2, 200640, Note_on_c, 0, 67, 53
2, 200880, Note_on_c, 0, 67, 0
2, 200880, Note_on_c, 0, 57, 40
2, 200880, Note_on_c, 0, 60, 53
2, 200880, Note_on_c, 0, 62, 53
2, 201240, Note_on_c, 0, 62, 0
2, 201240, Note_on_c, 0, 60, 0
2, 201240, Note_on_c, 0, 60, 53
2, 201240, Note_on_c, 0, 62, 53
2, 201360, Note_on_c, 0, 62, 0
2, 201360, Note_on_c, 0, 60, 0
2, 201360, Note_on_c, 0, 60, 53
2, 201360, Note_on_c, 0, 62, 53
2, 201600, Note_on_c, 0, 62, 0
2, 201600, Note_on_c, 0, 60, 0
2, 201600, Note_on_c, 0, 57, 0
2, 201600, Note_on_c, 0, 58, 47
2, 201600, Note_on_c, 0, 62, 56
2, 201600, Note_on_c, 0, 67, 56
2, 202080, Note_on_c, 0, 67, 0
2, 202080, Note_on_c, 0, 62, 0
2, 202080, Note_on_c, 0, 58, 0
2, 202080, Note_on_c, 0, 69, 54
2, 202260, Note_on_c, 0, 69, 0
2, 202260, Note_on_c, 0, 72, 44
2, 202320, Note_on_c, 0, 63, 56
2, 202320, Note_on_c, 0, 66, 56
2, 202320, Note_on_c, 0, 70, 56
2, 202340, Note_on_c, 0, 72, 0
2, 202800, Note_on_c, 0, 63, 0
2, 202800, Note_on_c, 0, 66, 0
2, 202800, Note_on_c, 0, 70, 0
2, 202800, Note_on_c, 0, 69, 52
2, 203040, Note_on_c, 0, 69, 0
2, 203040, Note_on_c, 0, 58, 49
2, 203040, Note_on_c, 0, 62, 49
2, 203040, Note_on_c, 0, 67, 49
2, 203280, Note_on_c, 0, 67, 0
2, 203280, Note_on_c, 0, 62, 0
2, 203280, Note_on_c, 0, 58, 0
2, 203280, Note_on_c, 0, 54, 49
2, 203400, Note_on_c, 0, 54, 0
2, 203400, Note_on_c, 0, 55, 49
2, 203520, Note_on_c, 0, 55, 0
2, 203520, Note_on_c, 0, 57, 50
2, 203640, Note_on_c, 0, 57, 0
2, 203640, Note_on_c, 0, 58, 51
2, 203760, Note_on_c, 0, 58, 0
2, 203760, Note_on_c, 0, 61, 52
2, 203880, Note_on_c, 0, 61, 0
2, 203880, Note_on_c, 0, 62, 53
2, 204000, Note_on_c, 0, 62, 0
2, 204000, Note_on_c, 0, 57, 50
2, 204120, Note_on_c, 0, 57, 0
2, 204120, Note_on_c, 0, 58, 51
2, 204240, Note_on_c, 0, 58, 0
2, 204240, Note_on_c, 0, 61, 51
2, 204360, Note_on_c, 0, 61, 0
2, 204360, Note_on_c, 0, 62, 52
2, 204480, Note_on_c, 0, 62, 0
2, 204480, Note_on_c, 0, 66, 53
2, 204600, Note_on_c, 0, 66, 0
2, 204600, Note_on_c, 0, 67, 56
2, 204720, Note_on_c, 0, 67, 0
2, 204720, Note_on_c, 0, 61, 51
2, 204840, Note_on_c, 0, 61, 0
2, 204840, Note_on_c, 0, 62, 52
2, 204960, Note_on_c, 0, 62, 0
2, 204960, Note_on_c, 0, 66, 56
2, 205080, Note_on_c, 0, 66, 0
2, 205080, Note_on_c, 0, 67, 57
2, 205200, Note_on_c, 0, 67, 0
2, 205200, Note_on_c, 0, 69, 59
2, 205320, Note_on_c, 0, 69, 0
2, 205320, Note_on_c, 0, 70, 60
2, 205440, Note_on_c, 0, 70, 0
2, 205440, Note_on_c, 0, 66, 56
2, 205560, Note_on_c, 0, 66, 0
2, 205560, Note_on_c, 0, 67, 58
2, 205680, Note_on_c, 0, 67, 0
2, 205680, Note_on_c, 0, 69, 59
2, 205800, Note_on_c, 0, 69, 0
2, 205800, Note_on_c, 0, 70, 60
2, 205920, Note_on_c, 0, 70, 0
2, 205920, Note_on_c, 0, 73, 61
2, 206040, Note_on_c, 0, 73, 0
2, 206040, Note_on_c, 0, 74, 62
2, 206160, Note_on_c, 0, 74, 0
2, 206160, Note_on_c, 0, 69, 57
2, 206280, Note_on_c, 0, 69, 0
2, 206280, Note_on_c, 0, 70, 58
2, 206400, Note_on_c, 0, 70, 0
2, 206400, Note_on_c, 0, 73, 60
2, 206520, Note_on_c, 0, 73, 0
2, 206520, Note_on_c, 0, 74, 61
2, 206640, Note_on_c, 0, 74, 0
2, 206640, Note_on_c, 0, 78, 64
2, 206760, Note_on_c, 0, 78, 0
2, 206760, Note_on_c, 0, 79, 66
2, 206880, Note_on_c, 0, 79, 0
2, 206880, Note_on_c, 0, 73, 59
2, 207000, Note_on_c, 0, 73, 0
2, 207000, Note_on_c, 0, 74, 61
2, 207120, Note_on_c, 0, 74, 0
2, 207120, Note_on_c, 0, 78, 63
2, 207240, Note_on_c, 0, 78, 0
2, 207240, Note_on_c, 0, 79, 64
2, 207360, Note_on_c, 0, 79, 0
2, 207360, Note_on_c, 0, 81, 66
2, 207480, Note_on_c, 0, 81, 0
2, 207480, Note_on_c, 0, 82, 68
2, 207600, Note_on_c, 0, 82, 0
2, 207600, Note_on_c, 0, 78, 64
2, 207720, Note_on_c, 0, 78, 0
2, 207720, Note_on_c, 0, 79, 66
2, 207840, Note_on_c, 0, 79, 0
2, 207840, Note_on_c, 0, 81, 69
2, 207960, Note_on_c, 0, 81, 0
2, 207960, Note_on_c, 0, 82, 72
2, 208080, Note_on_c, 0, 82, 0
2, 208080, Note_on_c, 0, 85, 74
2, 208200, Note_on_c, 0, 85, 0
2, 208200, Note_on_c, 0, 86, 77
2, 208320, Note_on_c, 0, 86, 0
2, 208320, Note_on_c, 0, 81, 74
2, 208440, Note_on_c, 0, 81, 0
2, 208440, Note_on_c, 0, 82, 77
2, 208560, Note_on_c, 0, 82, 0
2, 208560, Note_on_c, 0, 85, 81
2, 208680, Note_on_c, 0, 85, 0
2, 208680, Note_on_c, 0, 86, 83
2, 208800, Note_on_c, 0, 86, 0
2, 208800, Note_on_c, 0, 91, 93
2, 209520, Note_on_c, 0, 91, 0
2, 209520, Note_on_c, 0, 72, 79
2, 209520, Note_on_c, 0, 74, 79
2, 209520, Note_on_c, 0, 78, 93
2, 209520, Note_on_c, 0, 86, 93
2, 209520, Note_on_c, 0, 81, 93
2, 210240, Note_on_c, 0, 81, 0
2, 210240, Note_on_c, 0, 78, 0
2, 210240, Note_on_c, 0, 72, 0
2, 210240, Note_on_c, 0, 74, 0
2, 210240, Note_on_c, 0, 86, 0
2, 210240, Note_on_c, 0, 70, 79
2, 210240, Note_on_c, 0, 74, 79
2, 210240, Note_on_c, 0, 82, 93
2, 210240, Note_on_c, 0, 79, 93
2, 210960, Note_on_c, 0, 79, 0
2, 210960, Note_on_c, 0, 70, 0
2, 210960, Note_on_c, 0, 74, 0
2, 210960, Note_on_c, 0, 82, 0
2, 210960, Note_on_c, 0, 69, 79
2, 210960, Note_on_c, 0, 72, 79
2, 210960, Note_on_c, 0, 74, 93
2, 210960, Note_on_c, 0, 78, 93
2, 211680, Note_on_c, 0, 78, 0
2, 211680, Note_on_c, 0, 69, 0
2, 211680, Note_on_c, 0, 72, 0
2, 211680, Note_on_c, 0, 74, 0
2, 211680, Note_on_c, 0, 67, 86
2, 211680, Note_on_c, 0, 70, 86
2, 211680, Note_on_c, 0, 74, 96
2, 211680, Note_on_c, 0, 79, 102
2, 213120, Note_on_c, 0, 79, 0
2, 213120, Note_on_c, 0, 67, 0
2, 213120, Note_on_c, 0, 70, 0
2, 213120, Note_on_c, 0, 74, 0
2, 213120, Note_on_c, 0, 91, 108
2, 213120, Note_on_c, 0, 86, 102
2, 213120, Note_on_c, 0, 79, 90
2, 214560, Note_on_c, 0, 79, 0
2, 214560, Note_on_c, 0, 86, 0
2, 214560, Note_on_c, 0, 91, 0
2, 214560, End_track
3, 0, Start_track
3, 0, Title_t, "Piano left"
3, 0, Program_c, 0, 0
3, 0, Control_c, 0, 7, 100
3, 0, Control_c, 0, 10, 64
3, 120, Control_c, 0, 64, 127
3, 3600, Note_on_c, 0, 50, 45
3, 4253, Control_c, 0, 64, 0
3, 4260, Note_on_c, 0, 50, 0
3, 4260, Note_on_c, 0, 53, 39
3, 4320, Note_on_c, 0, 53, 0
3, 4320, Note_on_c, 0, 51, 49
3, 4504, Control_c, 0, 64, 127
3, 5040, Note_on_c, 0, 51, 0
3, 5040, Note_on_c, 0, 50, 48
3, 5057, Control_c, 0, 64, 0
3, 5210, Control_c, 0, 64, 127
3, 5760, Note_on_c, 0, 50, 0
3, 5760, Note_on_c, 0, 50, 40
3, 5760, Note_on_c, 0, 43, 34
3, 5760, Note_on_c, 0, 55, 40
3, 5772, Control_c, 0, 64, 0
3, 6027, Control_c, 0, 64, 127
3, 6480, Note_on_c, 0, 55, 0
3, 6480, Note_on_c, 0, 43, 0
3, 6480, Note_on_c, 0, 50, 0
3, 6480, Note_on_c, 0, 43, 38
3, 6480, Note_on_c, 0, 60, 47
3, 6493, Control_c, 0, 64, 0
3, 6640, Control_c, 0, 64, 127
3, 7200, Note_on_c, 0, 60, 0
3, 7200, Note_on_c, 0, 43, 0
3, 7200, Note_on_c, 0, 43, 35
3, 7200, Note_on_c, 0, 58, 41
3, 7209, Control_c, 0, 64, 0
3, 7346, Control_c, 0, 64, 127
3, 7920, Note_on_c, 0, 58, 0
3, 7920, Note_on_c, 0, 43, 0
3, 7920, Note_on_c, 0, 43, 35
3, 7920, Note_on_c, 0, 57, 41
3, 7920, Note_on_c, 0, 50, 41
3, 7933, Control_c, 0, 64, 0
3, 8005, Control_c, 0, 64, 127
3, 8640, Note_on_c, 0, 50, 0
3, 8640, Note_on_c, 0, 57, 0
3, 8640, Note_on_c, 0, 43, 0
3, 8640, Note_on_c, 0, 50, 40
3, 8640, Note_on_c, 0, 43, 34
3, 8640, Note_on_c, 0, 55, 40
3, 8658, Control_c, 0, 64, 0
3, 8853, Control_c, 0, 64, 127
3, 9360, Note_on_c, 0, 55, 0
3, 9360, Note_on_c, 0, 43, 0
3, 9360, Note_on_c, 0, 50, 0
3, 9360, Note_on_c, 0, 60, 47
3, 9360, Note_on_c, 0, 43, 38
3, 9369, Control_c, 0, 64, 0
3, 9600, Control_c, 0, 64, 127
3, 10080, Note_on_c, 0, 43, 0
3, 10080, Note_on_c, 0, 60, 0
3, 10080, Note_on_c, 0, 43, 35
3, 10080, Note_on_c, 0, 58, 41
3, 10086, Control_c, 0, 64, 0
3, 10187, Control_c, 0, 64, 127
3, 10798, Note_on_c, 0, 58, 0
3, 10800, Note_on_c, 0, 43, 0
3, 10800, Note_on_c, 0, 54, 41
3, 10800, Note_on_c, 0, 42, 35
3, 10817, Control_c, 0, 64, 0
3, 10963, Control_c, 0, 64, 127
3, 11520, Note_on_c, 0, 42, 0
3, 11520, Note_on_c, 0, 54, 0
3, 11520, Note_on_c, 0, 41, 39
3, 11520, Note_on_c, 0, 50, 48
3, 11531, Control_c, 0, 64, 0
3, 11707, Control_c, 0, 64, 127
3, 12240, Note_on_c, 0, 50, 0
3, 12240, Note_on_c, 0, 51, 42
3, 12257, Control_c, 0, 64, 0
3, 12494, Control_c, 0, 64, 127
3, 12960, Note_on_c, 0, 51, 0
3, 12960, Note_on_c, 0, 41, 0
3, 12960, Note_on_c, 0, 46, 48
3, 12960, Note_on_c, 0, 50, 48
3, 12971, Control_c, 0, 64, 0
3, 13067, Control_c, 0, 64, 127
3, 13680, Note_on_c, 0, 50, 0
3, 13680, Note_on_c, 0, 46, 0
3, 13680, Note_on_c, 0, 39, 39
3, 13680, Note_on_c, 0, 46, 48
3, 13687, Control_c, 0, 64, 0
3, 13765, Control_c, 0, 64, 127
3, 14400, Note_on_c, 0, 46, 0
3, 14400, Note_on_c, 0, 39, 0
3, 14400, Note_on_c, 0, 34, 36
3, 14400, Note_on_c, 0, 46, 42
3, 14416, Control_c, 0, 64, 0
3, 14506, Control_c, 0, 64, 127
3, 15120, Note_on_c, 0, 46, 0
3, 15120, Note_on_c, 0, 34, 0
3, 15120, Note_on_c, 0, 39, 48
3, 15120, Note_on_c, 0, 46, 48
3, 15127, Control_c, 0, 64, 0
3, 15240, Control_c, 0, 64, 127
3, 15840, Note_on_c, 0, 46, 0
3, 15840, Note_on_c, 0, 39, 0
3, 15840, Note_on_c, 0, 34, 38
3, 15840, Note_on_c, 0, 46, 46
3, 15847, Control_c, 0, 64, 0
3, 16000, Control_c, 0, 64, 127
3, 16560, Note_on_c, 0, 46, 0
3, 16560, Note_on_c, 0, 34, 0
3, 16560, Note_on_c, 0, 48, 46
3, 16560, Note_on_c, 0, 41, 38
3, 16574, Control_c, 0, 64, 0
3, 16760, Control_c, 0, 64, 127
3, 17280, Note_on_c, 0, 41, 0
3, 17280, Note_on_c, 0, 48, 0
3, 17280, Note_on_c, 0, 46, 48
3, 17289, Control_c, 0, 64, 0
3, 17387, Control_c, 0, 64, 127
3, 18000, Note_on_c, 0, 46, 0
3, 18000, Note_on_c, 0, 39, 33
3, 18000, Note_on_c, 0, 51, 39
3, 18018, Control_c, 0, 64, 0
3, 18148, Control_c, 0, 64, 127
3, 18480, Note_on_c, 0, 51, 0
3, 18480, Note_on_c, 0, 39, 0
3, 18480, Note_on_c, 0, 45, 37
3, 18720, Note_on_c, 0, 45, 0
3, 18720, Note_on_c, 0, 38, 31
3, 18720, Note_on_c, 0, 50, 38
3, 18737, Control_c, 0, 64, 0
3, 19000, Control_c, 0, 64, 127
3, 20880, Note_on_c, 0, 50, 0
3, 20880, Note_on_c, 0, 38, 0
3, 20898, Control_c, 0, 64, 0
3, 21064, Control_c, 0, 64, 127
3, 21600, Note_on_c, 0, 55, 34
3, 21600, Note_on_c, 0, 67, 40
3, 21600, Note_on_c, 0, 62, 40
3, 21610, Control_c, 0, 64, 0
3, 21827, Control_c, 0, 64, 127
3, 22320, Note_on_c, 0, 62, 0
3, 22320, Note_on_c, 0, 67, 0
3, 22320, Note_on_c, 0, 55, 0
3, 22320, Note_on_c, 0, 55, 36
3, 22320, Note_on_c, 0, 72, 44
3, 22334, Control_c, 0, 64, 0
3, 22587, Control_c, 0, 64, 127
3, 23040, Note_on_c, 0, 72, 0
3, 23040, Note_on_c, 0, 55, 0
3, 23040, Note_on_c, 0, 55, 35
3, 23040, Note_on_c, 0, 70, 41
3, 23051, Control_c, 0, 64, 0
3, 23147, Control_c, 0, 64, 127
3, 23760, Note_on_c, 0, 70, 0
3, 23760, Note_on_c, 0, 55, 0
3, 23760, Note_on_c, 0, 62, 41
3, 23760, Note_on_c, 0, 69, 41
3, 23760, Note_on_c, 0, 55, 35
3, 23776, Control_c, 0, 64, 0
3, 23906, Control_c, 0, 64, 127
3, 24480, Note_on_c, 0, 55, 0
3, 24480, Note_on_c, 0, 69, 0
3, 24480, Note_on_c, 0, 62, 0
3, 24480, Note_on_c, 0, 55, 34
3, 24480, Control_c, 0, 64, 0
3, 24480, Note_on_c, 0, 67, 40
3, 24480, Note_on_c, 0, 62, 40
3, 24640, Control_c, 0, 64, 127
3, 25200, Note_on_c, 0, 62, 0
3, 25200, Note_on_c, 0, 67, 0
3, 25200, Note_on_c, 0, 55, 0
3, 25200, Note_on_c, 0, 55, 33
3, 25200, Note_on_c, 0, 72, 44
3, 25213, Control_c, 0, 64, 0
3, 25400, Control_c, 0, 64, 127
3, 25920, Note_on_c, 0, 72, 0
3, 25920, Note_on_c, 0, 55, 0
3, 25920, Note_on_c, 0, 55, 35
3, 25920, Note_on_c, 0, 70, 41
3, 25932, Control_c, 0, 64, 0
3, 26027, Control_c, 0, 64, 127
3, 26638, Note_on_c, 0, 70, 0
3, 26640, Note_on_c, 0, 55, 0
3, 26640, Note_on_c, 0, 66, 41
3, 26640, Note_on_c, 0, 54, 35
3, 26661, Control_c, 0, 64, 0
3, 26796, Control_c, 0, 64, 127
3, 27360, Note_on_c, 0, 54, 0
3, 27360, Note_on_c, 0, 66, 0
3, 27360, Note_on_c, 0, 53, 36
3, 27360, Note_on_c, 0, 62, 48
3, 27367, Control_c, 0, 64, 0
3, 27560, Control_c, 0, 64, 127
3, 28080, Note_on_c, 0, 62, 0
3, 28080, Note_on_c, 0, 63, 42
3, 28097, Control_c, 0, 64, 0
3, 28307, Control_c, 0, 64, 127
3, 28800, Note_on_c, 0, 63, 0
3, 28800, Note_on_c, 0, 53, 0
3, 28800, Note_on_c, 0, 62, 48
3, 28800, Note_on_c, 0, 58, 48
3, 28809, Control_c, 0, 64, 0
3, 28907, Control_c, 0, 64, 127
3, 29520, Note_on_c, 0, 58, 0
3, 29520, Note_on_c, 0, 62, 0
3, 29520, Note_on_c, 0, 63, 48
3, 29520, Note_on_c, 0, 51, 39
3, 29535, Control_c, 0, 64, 0
3, 29676, Control_c, 0, 64, 127
3, 30240, Note_on_c, 0, 51, 0
3, 30240, Note_on_c, 0, 63, 0
3, 30240, Note_on_c, 0, 46, 36
3, 30240, Note_on_c, 0, 58, 42
3, 30250, Control_c, 0, 64, 0
3, 30417, Control_c, 0, 64, 127
3, 30960, Note_on_c, 0, 58, 0
3, 30960, Note_on_c, 0, 46, 0
3, 30960, Note_on_c, 0, 51, 48
3, 30960, Note_on_c, 0, 58, 48
3, 30977, Control_c, 0, 64, 0
3, 31045, Control_c, 0, 64, 127
3, 31680, Note_on_c, 0, 58, 0
3, 31680, Note_on_c, 0, 51, 0
3, 31680, Note_on_c, 0, 46, 38
3, 31680, Note_on_c, 0, 58, 46
3, 31694, Control_c, 0, 64, 0
3, 31853, Control_c, 0, 64, 127
3, 32400, Note_on_c, 0, 58, 0
3, 32400, Note_on_c, 0, 46, 0
3, 32400, Note_on_c, 0, 53, 38
3, 32400, Note_on_c, 0, 60, 46
3, 32411, Control_c, 0, 64, 0
3, 32614, Control_c, 0, 64, 127
3, 33120, Note_on_c, 0, 60, 0
3, 33120, Note_on_c, 0, 53, 0
3, 33120, Note_on_c, 0, 58, 48
3, 33132, Control_c, 0, 64, 0
3, 33227, Control_c, 0, 64, 127
3, 33840, Note_on_c, 0, 58, 0
3, 33840, Note_on_c, 0, 63, 39
3, 33840, Note_on_c, 0, 51, 33
3, 33858, Control_c, 0, 64, 0
3, 33960, Control_c, 0, 64, 127
3, 34320, Note_on_c, 0, 51, 0
3, 34320, Note_on_c, 0, 63, 0
3, 34320, Note_on_c, 0, 57, 37
3, 34560, Note_on_c, 0, 57, 0
3, 34560, Note_on_c, 0, 50, 31
3, 34560, Note_on_c, 0, 62, 38
3, 34577, Control_c, 0, 64, 0
3, 34813, Control_c, 0, 64, 127
3, 36713, Note_on_c, 0, 62, 0
3, 36720, Note_on_c, 0, 50, 0
3, 36737, Control_c, 0, 64, 0
3, 36904, Control_c, 0, 64, 127
3, 37440, Note_on_c, 0, 56, 40
3, 37440, Note_on_c, 0, 43, 34
3, 37455, Control_c, 0, 64, 0
3, 37549, Control_c, 0, 64, 127
3, 38175, Control_c, 0, 64, 0
3, 38294, Control_c, 0, 64, 127
3, 38880, Note_on_c, 0, 43, 0
3, 38880, Note_on_c, 0, 56, 0
3, 38880, Note_on_c, 0, 55, 41
3, 38880, Note_on_c, 0, 43, 35
3, 38889, Control_c, 0, 64, 0
3, 39056, Control_c, 0, 64, 127
3, 39600, Note_on_c, 0, 55, 0
3, 39600, Note_on_c, 0, 53, 41
3, 39616, Control_c, 0, 64, 0
3, 39756, Control_c, 0, 64, 127
3, 39960, Note_on_c, 0, 53, 0
3, 39960, Note_on_c, 0, 51, 39
3, 40080, Note_on_c, 0, 51, 0
3, 40080, Note_on_c, 0, 50, 40
3, 40320, Note_on_c, 0, 50, 0
3, 40320, Note_on_c, 0, 43, 0
3, 40320, Note_on_c, 0, 56, 40
3, 40320, Note_on_c, 0, 43, 34
3, 40335, Control_c, 0, 64, 0
3, 40391, Control_c, 0, 64, 127
3, 41052, Control_c, 0, 64, 0
3, 41171, Control_c, 0, 64, 127
3, 41760, Note_on_c, 0, 43, 0
3, 41760, Note_on_c, 0, 56, 0
3, 41760, Note_on_c, 0, 56, 41
3, 41760, Note_on_c, 0, 43, 35
3, 41772, Control_c, 0, 64, 0
3, 41867, Control_c, 0, 64, 127
3, 42420, Note_on_c, 0, 43, 0
3, 42420, Note_on_c, 0, 43, 66
3, 42480, Note_on_c, 0, 56, 0
3, 42480, Note_on_c, 0, 59, 62
3, 42497, Control_c, 0, 64, 0
3, 42583, Control_c, 0, 64, 127
3, 42840, Note_on_c, 0, 59, 0
3, 42840, Note_on_c, 0, 61, 55
3, 42960, Note_on_c, 0, 61, 0
3, 42960, Note_on_c, 0, 62, 57
3, 43200, Note_on_c, 0, 62, 0
3, 43200, Note_on_c, 0, 43, 0
3, 43200, Note_on_c, 0, 36, 69
3, 43200, Note_on_c, 0, 48, 69
3, 43213, Control_c, 0, 64, 0
3, 43384, Control_c, 0, 64, 127
3, 43680, Note_on_c, 0, 48, 0
3, 43680, Note_on_c, 0, 36, 0
3, 43680, Note_on_c, 0, 60, 50
3, 43680, Note_on_c, 0, 72, 60
3, 43680, Note_on_c, 0, 67, 50
3, 43920, Note_on_c, 0, 67, 0
3, 43920, Note_on_c, 0, 72, 0
3, 43920, Note_on_c, 0, 60, 0
3, 43920, Note_on_c, 0, 67, 53
3, 43920, Note_on_c, 0, 72, 64
3, 43920, Note_on_c, 0, 60, 53
3, 43936, Control_c, 0, 64, 0
3, 44068, Control_c, 0, 64, 127
3, 44280, Note_on_c, 0, 60, 0
3, 44280, Note_on_c, 0, 72, 0
3, 44280, Note_on_c, 0, 67, 0
3, 44280, Note_on_c, 0, 67, 52
3, 44280, Note_on_c, 0, 60, 52
3, 44280, Note_on_c, 0, 72, 62
3, 44400, Note_on_c, 0, 72, 0
3, 44400, Note_on_c, 0, 60, 0
3, 44400, Note_on_c, 0, 67, 0
3, 44400, Note_on_c, 0, 67, 62
3, 44400, Note_on_c, 0, 60, 52
3, 44640, Note_on_c, 0, 60, 0
3, 44640, Note_on_c, 0, 67, 0
3, 44640, Note_on_c, 0, 60, 53
3, 44640, Note_on_c, 0, 71, 64
3, 44640, Note_on_c, 0, 68, 53
3, 44649, Control_c, 0, 64, 0
3, 44732, Control_c, 0, 64, 127
3, 45000, Note_on_c, 0, 68, 0
3, 45000, Note_on_c, 0, 71, 0
3, 45000, Note_on_c, 0, 60, 0
3, 45000, Note_on_c, 0, 60, 49
3, 45000, Note_on_c, 0, 68, 59
3, 45120, Note_on_c, 0, 68, 0
3, 45120, Note_on_c, 0, 60, 0
3, 45120, Note_on_c, 0, 60, 49
3, 45120, Note_on_c, 0, 68, 59
3, 45300, Note_on_c, 0, 68, 0
3, 45300, Note_on_c, 0, 60, 0
3, 45360, Note_on_c, 0, 60, 50
3, 45360, Note_on_c, 0, 68, 61
3, 45370, Control_c, 0, 64, 0
3, 45505, Control_c, 0, 64, 127
3, 45720, Note_on_c, 0, 68, 0
3, 45720, Note_on_c, 0, 60, 0
3, 45720, Note_on_c, 0, 68, 58
3, 45720, Note_on_c, 0, 60, 48
3, 45840, Note_on_c, 0, 60, 0
3, 45840, Note_on_c, 0, 68, 0
3, 45840, Note_on_c, 0, 68, 55
3, 45840, Note_on_c, 0, 60, 45
3, 46080, Note_on_c, 0, 60, 0
3, 46080, Note_on_c, 0, 68, 0
3, 46080, Control_c, 0, 64, 0
3, 46080, Note_on_c, 0, 67, 61
3, 46080, Note_on_c, 0, 60, 50
3, 46229, Control_c, 0, 64, 127
3, 46440, Note_on_c, 0, 60, 0
3, 46440, Note_on_c, 0, 67, 0
3, 46440, Note_on_c, 0, 67, 57
3, 46440, Note_on_c, 0, 60, 47
3, 46560, Note_on_c, 0, 60, 0
3, 46560, Note_on_c, 0, 67, 0
3, 46560, Note_on_c, 0, 67, 57
3, 46560, Note_on_c, 0, 60, 47
3, 46800, Note_on_c, 0, 60, 0
3, 46800, Note_on_c, 0, 67, 0
3, 46800, Note_on_c, 0, 67, 53
3, 46800, Note_on_c, 0, 72, 64
3, 46800, Note_on_c, 0, 60, 53
3, 46819, Control_c, 0, 64, 0
3, 46966, Control_c, 0, 64, 127
3, 47160, Note_on_c, 0, 60, 0
3, 47160, Note_on_c, 0, 72, 0
3, 47160, Note_on_c, 0, 67, 0
3, 47160, Note_on_c, 0, 60, 52
3, 47160, Note_on_c, 0, 72, 62
3, 47160, Note_on_c, 0, 67, 52
3, 47280, Note_on_c, 0, 67, 0
3, 47280, Note_on_c, 0, 72, 0
3, 47280, Note_on_c, 0, 60, 0
3, 47280, Note_on_c, 0, 60, 49
3, 47280, Note_on_c, 0, 67, 49
3, 47520, Note_on_c, 0, 67, 0
3, 47520, Note_on_c, 0, 60, 0
3, 47520, Note_on_c, 0, 68, 53
3, 47520, Note_on_c, 0, 71, 64
3, 47520, Note_on_c, 0, 60, 53
3, 47530, Control_c, 0, 64, 0
3, 47612, Control_c, 0, 64, 127
3, 47880, Note_on_c, 0, 60, 0
3, 47880, Note_on_c, 0, 71, 0
3, 47880, Note_on_c, 0, 68, 0
3, 47880, Note_on_c, 0, 60, 49
3, 47880, Note_on_c, 0, 68, 59
3, 48000, Note_on_c, 0, 68, 0
3, 48000, Note_on_c, 0, 60, 0
3, 48000, Note_on_c, 0, 60, 49
3, 48000, Note_on_c, 0, 68, 59
3, 48180, Note_on_c, 0, 68, 0
3, 48180, Note_on_c, 0, 60, 0
3, 48240, Note_on_c, 0, 60, 50
3, 48240, Note_on_c, 0, 68, 61
3, 48251, Control_c, 0, 64, 0
3, 48360, Control_c, 0, 64, 127
3, 48600, Note_on_c, 0, 68, 0
3, 48600, Note_on_c, 0, 60, 0
3, 48600, Note_on_c, 0, 68, 58
3, 48600, Note_on_c, 0, 60, 48
3, 48720, Note_on_c, 0, 60, 0
3, 48720, Note_on_c, 0, 68, 0
3, 48720, Note_on_c, 0, 68, 58
3, 48720, Note_on_c, 0, 60, 48
3, 48960, Note_on_c, 0, 60, 0
3, 48960, Note_on_c, 0, 68, 0
3, 48960, Note_on_c, 0, 60, 50
3, 48960, Note_on_c, 0, 67, 61
3, 48971, Control_c, 0, 64, 0
3, 49089, Control_c, 0, 64, 127
3, 49680, Note_on_c, 0, 67, 0
3, 49680, Note_on_c, 0, 60, 0
3, 49680, Note_on_c, 0, 58, 50
3, 49680, Note_on_c, 0, 67, 50
3, 49705, Control_c, 0, 64, 0
3, 49804, Control_c, 0, 64, 127
3, 50400, Note_on_c, 0, 67, 0
3, 50400, Note_on_c, 0, 58, 0
3, 50400, Note_on_c, 0, 57, 50
3, 50400, Note_on_c, 0, 63, 50
3, 50410, Control_c, 0, 64, 0
3, 50548, Control_c, 0, 64, 127
3, 51120, Note_on_c, 0, 63, 0
3, 51120, Note_on_c, 0, 62, 50
3, 51131, Control_c, 0, 64, 0
3, 51216, Control_c, 0, 64, 127
3, 51840, Note_on_c, 0, 62, 0
3, 51840, Note_on_c, 0, 57, 0
3, 51840, Note_on_c, 0, 62, 50
3, 51840, Note_on_c, 0, 55, 50
3, 51851, Control_c, 0, 64, 0
3, 52017, Control_c, 0, 64, 127
3, 52560, Note_on_c, 0, 62, 0
3, 52560, Note_on_c, 0, 64, 50
3, 52573, Control_c, 0, 64, 0
3, 52765, Control_c, 0, 64, 127
3, 53280, Note_on_c, 0, 64, 0
3, 53280, Note_on_c, 0, 55, 0
3, 53280, Note_on_c, 0, 57, 50
3, 53280, Note_on_c, 0, 65, 50
3, 53291, Control_c, 0, 64, 0
3, 53457, Control_c, 0, 64, 127
3, 54000, Note_on_c, 0, 65, 0
3, 54000, Note_on_c, 0, 64, 50
3, 54017, Control_c, 0, 64, 0
3, 54148, Control_c, 0, 64, 127
3, 54480, Note_on_c, 0, 64, 0
3, 54480, Note_on_c, 0, 67, 45
3, 54720, Note_on_c, 0, 67, 0
3, 54720, Note_on_c, 0, 57, 0
3, 54720, Note_on_c, 0, 62, 53
3, 54720, Note_on_c, 0, 66, 45
3, 54720, Control_c, 0, 64, 0
3, 54800, Control_c, 0, 64, 127
3, 55080, Note_on_c, 0, 62, 0
3, 55080, Note_on_c, 0, 61, 50
3, 55090, Control_c, 0, 64, 0
3, 55200, Note_on_c, 0, 61, 0
3, 55200, Note_on_c, 0, 62, 50
3, 55440, Note_on_c, 0, 62, 0
3, 55440, Note_on_c, 0, 66, 0
3, 55440, Note_on_c, 0, 62, 53
3, 55560, Control_c, 0, 64, 127
3, 56160, Note_on_c, 0, 62, 0
3, 56160, Note_on_c, 0, 67, 49
3, 56160, Note_on_c, 0, 62, 49
3, 56168, Control_c, 0, 64, 0
3, 56240, Control_c, 0, 64, 127
3, 56520, Note_on_c, 0, 62, 0
3, 56520, Note_on_c, 0, 61, 42
3, 56640, Note_on_c, 0, 61, 0
3, 56640, Note_on_c, 0, 62, 49
3, 56880, Note_on_c, 0, 62, 0
3, 56880, Note_on_c, 0, 62, 50
3, 56897, Control_c, 0, 64, 0
3, 57023, Control_c, 0, 64, 127
3, 57600, Note_on_c, 0, 62, 0
3, 57600, Note_on_c, 0, 67, 0
3, 57600, Note_on_c, 0, 62, 49
3, 57600, Note_on_c, 0, 66, 49
3, 57609, Control_c, 0, 64, 0
3, 57720, Control_c, 0, 64, 127
3, 57960, Note_on_c, 0, 62, 0
3, 57960, Note_on_c, 0, 61, 42
3, 58080, Note_on_c, 0, 61, 0
3, 58080, Note_on_c, 0, 62, 49
3, 58320, Note_on_c, 0, 62, 0
3, 58320, Note_on_c, 0, 62, 50
3, 58337, Control_c, 0, 64, 0
3, 58486, Control_c, 0, 64, 127
3, 59040, Note_on_c, 0, 62, 0
3, 59040, Note_on_c, 0, 66, 0
3, 59040, Note_on_c, 0, 62, 49
3, 59052, Control_c, 0, 64, 0
3, 59202, Control_c, 0, 64, 127
3, 59400, Note_on_c, 0, 62, 0
3, 59400, Note_on_c, 0, 62, 42
3, 59520, Note_on_c, 0, 62, 0
3, 59520, Note_on_c, 0, 62, 49
3, 59760, Note_on_c, 0, 62, 0
3, 59760, Note_on_c, 0, 62, 50
3, 59775, Control_c, 0, 64, 0
3, 59901, Control_c, 0, 64, 127
3, 60480, Note_on_c, 0, 62, 0
3, 60480, Note_on_c, 0, 62, 49
3, 60491, Control_c, 0, 64, 0
3, 60649, Control_c, 0, 64, 127
3, 60840, Note_on_c, 0, 62, 0
3, 60840, Note_on_c, 0, 63, 39
3, 60960, Note_on_c, 0, 63, 0
3, 60960, Note_on_c, 0, 62, 44
3, 61200, Note_on_c, 0, 62, 0
3, 61200, Note_on_c, 0, 62, 44
3, 61215, Control_c, 0, 64, 0
3, 61398, Control_c, 0, 64, 127
3, 61440, Note_on_c, 0, 62, 0
3, 61920, Note_on_c, 0, 55, 44
3, 61920, Note_on_c, 0, 50, 44
3, 61928, Control_c, 0, 64, 0
3, 62069, Control_c, 0, 64, 127
3, 62280, Note_on_c, 0, 50, 0
3, 62280, Note_on_c, 0, 49, 38
3, 62400, Note_on_c, 0, 49, 0
3, 62400, Note_on_c, 0, 50, 44
3, 62640, Note_on_c, 0, 50, 0
3, 62640, Note_on_c, 0, 50, 45
3, 62659, Control_c, 0, 64, 0
3, 62726, Control_c, 0, 64, 127
3, 63360, Note_on_c, 0, 50, 0
3, 63360, Note_on_c, 0, 55, 0
3, 63360, Note_on_c, 0, 54, 44
3, 63360, Note_on_c, 0, 50, 44
3, 63367, Control_c, 0, 64, 0
3, 63492, Control_c, 0, 64, 127
3, 63720, Note_on_c, 0, 50, 0
3, 63720, Note_on_c, 0, 49, 38
3, 63840, Note_on_c, 0, 49, 0
3, 63840, Note_on_c, 0, 50, 44
3, 64080, Note_on_c, 0, 50, 0
3, 64080, Note_on_c, 0, 50, 45
3, 64095, Control_c, 0, 64, 0
3, 64177, Control_c, 0, 64, 127
3, 64800, Note_on_c, 0, 50, 0
3, 64800, Note_on_c, 0, 54, 0
3, 64800, Note_on_c, 0, 50, 44
3, 64809, Control_c, 0, 64, 0
3, 64892, Control_c, 0, 64, 127
3, 65160, Note_on_c, 0, 50, 0
3, 65160, Note_on_c, 0, 50, 38
3, 65280, Note_on_c, 0, 50, 0
3, 65280, Note_on_c, 0, 50, 44
3, 65520, Note_on_c, 0, 50, 0
3, 65520, Note_on_c, 0, 50, 45
3, 65539, Control_c, 0, 64, 0
3, 65661, Control_c, 0, 64, 127
3, 66240, Note_on_c, 0, 50, 0
3, 66240, Control_c, 0, 64, 0
3, 66240, Note_on_c, 0, 54, 38
3, 66240, Note_on_c, 0, 50, 38
3, 66291, Control_c, 0, 64, 127
3, 66360, Note_on_c, 0, 50, 0
3, 66360, Note_on_c, 0, 49, 38
3, 66480, Note_on_c, 0, 49, 0
3, 66480, Note_on_c, 0, 50, 38
3, 66600, Note_on_c, 0, 50, 0
3, 66600, Note_on_c, 0, 49, 37
3, 66720, Note_on_c, 0, 49, 0
3, 66720, Note_on_c, 0, 50, 38
3, 66840, Note_on_c, 0, 50, 0
3, 66840, Note_on_c, 0, 49, 33
3, 66960, Note_on_c, 0, 49, 0
3, 66960, Note_on_c, 0, 54, 0
3, 66960, Note_on_c, 0, 54, 38
3, 66960, Note_on_c, 0, 51, 38
3, 66968, Control_c, 0, 64, 0
3, 67046, Control_c, 0, 64, 127
3, 67080, Note_on_c, 0, 51, 0
3, 67080, Note_on_c, 0, 50, 33
3, 67200, Note_on_c, 0, 50, 0
3, 67200, Note_on_c, 0, 49, 38
3, 67320, Note_on_c, 0, 49, 0
3, 67320, Note_on_c, 0, 50, 34
3, 67440, Note_on_c, 0, 50, 0
3, 67440, Note_on_c, 0, 51, 38
3, 67560, Note_on_c, 0, 51, 0
3, 67560, Note_on_c, 0, 50, 30
3, 67680, Note_on_c, 0, 50, 0
3, 67680, Note_on_c, 0, 54, 0
3, 67680, Note_on_c, 0, 55, 37
3, 67680, Note_on_c, 0, 43, 37
3, 67688, Control_c, 0, 64, 0
3, 67743, Control_c, 0, 64, 127
3, 67800, Note_on_c, 0, 55, 0
3, 67800, Note_on_c, 0, 54, 40
3, 67920, Note_on_c, 0, 54, 0
3, 67920, Note_on_c, 0, 53, 41
3, 68040, Note_on_c, 0, 53, 0
3, 68040, Note_on_c, 0, 52, 42
3, 68160, Note_on_c, 0, 52, 0
3, 68160, Note_on_c, 0, 51, 44
3, 68280, Note_on_c, 0, 51, 0
3, 68280, Note_on_c, 0, 50, 47
3, 68400, Note_on_c, 0, 50, 0
3, 68400, Note_on_c, 0, 43, 0
3, 68400, Note_on_c, 0, 49, 47
3, 68417, Control_c, 0, 64, 0
3, 68486, Control_c, 0, 64, 127
3, 68520, Note_on_c, 0, 49, 0
3, 68520, Note_on_c, 0, 50, 44
3, 68640, Note_on_c, 0, 50, 0
3, 68640, Note_on_c, 0, 51, 42
3, 68760, Note_on_c, 0, 51, 0
3, 68760, Note_on_c, 0, 52, 41
3, 68880, Note_on_c, 0, 52, 0
3, 68880, Note_on_c, 0, 53, 40
3, 69000, Note_on_c, 0, 53, 0
3, 69000, Note_on_c, 0, 54, 40
3, 69120, Note_on_c, 0, 54, 0
3, 69120, Note_on_c, 0, 43, 41
3, 69120, Note_on_c, 0, 55, 41
3, 69129, Control_c, 0, 64, 0
3, 69183, Control_c, 0, 64, 127
3, 69240, Note_on_c, 0, 55, 0
3, 69240, Note_on_c, 0, 54, 36
3, 69360, Note_on_c, 0, 54, 0
3, 69360, Note_on_c, 0, 55, 41
3, 69480, Note_on_c, 0, 55, 0
3, 69480, Note_on_c, 0, 50, 37
3, 69600, Note_on_c, 0, 50, 0
3, 69600, Note_on_c, 0, 49, 41
3, 69720, Note_on_c, 0, 49, 0
3, 69720, Note_on_c, 0, 50, 36
3, 69840, Note_on_c, 0, 50, 0
3, 69840, Note_on_c, 0, 43, 0
3, 69840, Note_on_c, 0, 54, 41
3, 69854, Control_c, 0, 64, 0
3, 69920, Control_c, 0, 64, 127
3, 69960, Note_on_c, 0, 54, 0
3, 69960, Note_on_c, 0, 50, 40
3, 70080, Note_on_c, 0, 50, 0
3, 70080, Note_on_c, 0, 49, 41
3, 70200, Note_on_c, 0, 49, 0
3, 70200, Note_on_c, 0, 50, 36
3, 70320, Note_on_c, 0, 50, 0
3, 70320, Note_on_c, 0, 51, 42
3, 70440, Note_on_c, 0, 51, 0
3, 70440, Note_on_c, 0, 50, 41
3, 70560, Note_on_c, 0, 50, 0
3, 70560, Note_on_c, 0, 55, 37
3, 70560, Note_on_c, 0, 43, 37
3, 70568, Control_c, 0, 64, 0
3, 70612, Control_c, 0, 64, 127
3, 70680, Note_on_c, 0, 55, 0
3, 70680, Note_on_c, 0, 54, 40
3, 70800, Note_on_c, 0, 54, 0
3, 70800, Note_on_c, 0, 53, 42
3, 70920, Note_on_c, 0, 53, 0
3, 70920, Note_on_c, 0, 52, 44
3, 71040, Note_on_c, 0, 52, 0
3, 71040, Note_on_c, 0, 51, 44
3, 71160, Note_on_c, 0, 51, 0
3, 71160, Note_on_c, 0, 50, 42
3, 71280, Note_on_c, 0, 50, 0
3, 71280, Note_on_c, 0, 43, 0
3, 71280, Note_on_c, 0, 49, 42
3, 71296, Control_c, 0, 64, 0
3, 71366, Control_c, 0, 64, 127
3, 71400, Note_on_c, 0, 49, 0
3, 71400, Note_on_c, 0, 50, 41
3, 71520, Note_on_c, 0, 50, 0
3, 71520, Note_on_c, 0, 51, 40
3, 71640, Note_on_c, 0, 51, 0
3, 71640, Note_on_c, 0, 52, 37
3, 71760, Note_on_c, 0, 52, 0
3, 71760, Note_on_c, 0, 53, 41
3, 71880, Note_on_c, 0, 53, 0
3, 71880, Note_on_c, 0, 54, 41
3, 72000, Note_on_c, 0, 54, 0
3, 72000, Note_on_c, 0, 43, 41
3, 72000, Note_on_c, 0, 55, 41
3, 72012, Control_c, 0, 64, 0
3, 72057, Control_c, 0, 64, 127
3, 72120, Note_on_c, 0, 55, 0
3, 72120, Note_on_c, 0, 54, 36
3, 72240, Note_on_c, 0, 54, 0
3, 72240, Note_on_c, 0, 55, 41
3, 72360, Note_on_c, 0, 55, 0
3, 72360, Note_on_c, 0, 50, 37
3, 72480, Note_on_c, 0, 50, 0
3, 72480, Note_on_c, 0, 49, 47
3, 72600, Note_on_c, 0, 49, 0
3, 72600, Note_on_c, 0, 50, 42
3, 72720, Note_on_c, 0, 50, 0
3, 72720, Note_on_c, 0, 43, 0
3, 72720, Note_on_c, 0, 42, 47
3, 72737, Control_c, 0, 64, 0
3, 72817, Control_c, 0, 64, 127
3, 72840, Note_on_c, 0, 50, 41
3, 72960, Note_on_c, 0, 50, 0
3, 72960, Note_on_c, 0, 49, 40
3, 73080, Note_on_c, 0, 49, 0
3, 73080, Note_on_c, 0, 50, 41
3, 73200, Note_on_c, 0, 50, 0
3, 73200, Note_on_c, 0, 51, 41
3, 73320, Note_on_c, 0, 51, 0
3, 73320, Note_on_c, 0, 50, 41
3, 73440, Note_on_c, 0, 50, 0
3, 73440, Note_on_c, 0, 42, 0
3, 73440, Note_on_c, 0, 50, 49
3, 73440, Note_on_c, 0, 41, 49
3, 73448, Control_c, 0, 64, 0
3, 73497, Control_c, 0, 64, 127
3, 73560, Note_on_c, 0, 50, 0
3, 73560, Note_on_c, 0, 49, 40
3, 73680, Note_on_c, 0, 49, 0
3, 73680, Note_on_c, 0, 50, 49
3, 73800, Note_on_c, 0, 50, 0
3, 73800, Note_on_c, 0, 49, 40
3, 73920, Note_on_c, 0, 49, 0
3, 73920, Note_on_c, 0, 50, 48
3, 74040, Note_on_c, 0, 50, 0
3, 74040, Note_on_c, 0, 49, 42
3, 74160, Note_on_c, 0, 49, 0
3, 74160, Note_on_c, 0, 41, 0
3, 74160, Note_on_c, 0, 51, 47
3, 74160, Note_on_c, 0, 41, 47
3, 74169, Control_c, 0, 64, 0
3, 74246, Control_c, 0, 64, 127
3, 74280, Note_on_c, 0, 51, 0
3, 74280, Note_on_c, 0, 50, 41
3, 74400, Note_on_c, 0, 50, 0
3, 74400, Note_on_c, 0, 51, 48
3, 74520, Note_on_c, 0, 51, 0
3, 74520, Note_on_c, 0, 48, 41
3, 74640, Note_on_c, 0, 48, 0
3, 74640, Note_on_c, 0, 53, 47
3, 74760, Note_on_c, 0, 53, 0
3, 74760, Note_on_c, 0, 51, 41
3, 74880, Note_on_c, 0, 51, 0
3, 74880, Note_on_c, 0, 41, 0
3, 74880, Note_on_c, 0, 46, 47
3, 74880, Note_on_c, 0, 50, 47
3, 74887, Control_c, 0, 64, 0
3, 74943, Control_c, 0, 64, 127
3, 75000, Note_on_c, 0, 50, 0
3, 75000, Note_on_c, 0, 49, 38
3, 75120, Note_on_c, 0, 49, 0
3, 75120, Note_on_c, 0, 50, 47
3, 75240, Note_on_c, 0, 50, 0
3, 75240, Note_on_c, 0, 49, 38
3, 75360, Note_on_c, 0, 49, 0
3, 75360, Note_on_c, 0, 50, 47
3, 75480, Note_on_c, 0, 50, 0
3, 75480, Note_on_c, 0, 49, 41
3, 75600, Note_on_c, 0, 49, 0
3, 75600, Note_on_c, 0, 46, 0
3, 75600, Note_on_c, 0, 39, 47
3, 75615, Control_c, 0, 64, 0
3, 75675, Control_c, 0, 64, 127
3, 75720, Note_on_c, 0, 39, 0
3, 75720, Note_on_c, 0, 45, 41
3, 75840, Note_on_c, 0, 45, 0
3, 75840, Note_on_c, 0, 46, 48
3, 75960, Note_on_c, 0, 46, 0
3, 75960, Note_on_c, 0, 51, 44
3, 76080, Note_on_c, 0, 51, 0
3, 76080, Note_on_c, 0, 55, 52
3, 76200, Note_on_c, 0, 55, 0
3, 76200, Note_on_c, 0, 51, 41
3, 76320, Note_on_c, 0, 51, 0
3, 76320, Note_on_c, 0, 46, 49
3, 76327, Control_c, 0, 64, 0
3, 76395, Control_c, 0, 64, 127
3, 76440, Note_on_c, 0, 46, 0
3, 76440, Note_on_c, 0, 52, 44
3, 76560, Note_on_c, 0, 52, 0
3, 76560, Note_on_c, 0, 53, 48
3, 76680, Note_on_c, 0, 53, 0
3, 76680, Note_on_c, 0, 49, 41
3, 76800, Note_on_c, 0, 49, 0
3, 76800, Note_on_c, 0, 50, 49
3, 76920, Note_on_c, 0, 50, 0
3, 76920, Note_on_c, 0, 46, 41
3, 77040, Note_on_c, 0, 46, 0
3, 77040, Note_on_c, 0, 39, 47
3, 77059, Control_c, 0, 64, 0
3, 77154, Control_c, 0, 64, 127
3, 77160, Note_on_c, 0, 39, 0
3, 77160, Note_on_c, 0, 45, 41
3, 77280, Note_on_c, 0, 45, 0
3, 77280, Note_on_c, 0, 46, 42
3, 77400, Note_on_c, 0, 46, 0
3, 77400, Note_on_c, 0, 52, 41
3, 77520, Note_on_c, 0, 52, 0
3, 77520, Note_on_c, 0, 54, 47
3, 77640, Note_on_c, 0, 54, 0
3, 77640, Note_on_c, 0, 52, 41
3, 77760, Note_on_c, 0, 52, 0
3, 77760, Note_on_c, 0, 46, 48
3, 77773, Control_c, 0, 64, 0
3, 77840, Control_c, 0, 64, 127
3, 77880, Note_on_c, 0, 46, 0
3, 77880, Note_on_c, 0, 45, 41
3, 78000, Note_on_c, 0, 45, 0
3, 78000, Note_on_c, 0, 46, 48
3, 78120, Note_on_c, 0, 46, 0
3, 78120, Note_on_c, 0, 49, 44
3, 78240, Note_on_c, 0, 49, 0
3, 78240, Note_on_c, 0, 50, 47
3, 78360, Note_on_c, 0, 50, 0
3, 78360, Note_on_c, 0, 46, 41
3, 78480, Note_on_c, 0, 46, 0
3, 78480, Note_on_c, 0, 41, 52
3, 78498, Control_c, 0, 64, 0
3, 78566, Control_c, 0, 64, 127
3, 78600, Note_on_c, 0, 41, 0
3, 78600, Note_on_c, 0, 47, 41
3, 78720, Note_on_c, 0, 47, 0
3, 78720, Note_on_c, 0, 48, 44
3, 78840, Note_on_c, 0, 48, 0
3, 78840, Note_on_c, 0, 50, 47
3, 78960, Note_on_c, 0, 50, 0
3, 78960, Note_on_c, 0, 51, 48
3, 79080, Note_on_c, 0, 51, 0
3, 79080, Note_on_c, 0, 41, 41
3, 79200, Note_on_c, 0, 41, 0
3, 79200, Note_on_c, 0, 46, 49
3, 79218, Control_c, 0, 64, 0
3, 79286, Control_c, 0, 64, 127
3, 79320, Note_on_c, 0, 46, 0
3, 79320, Note_on_c, 0, 45, 41
3, 79440, Note_on_c, 0, 45, 0
3, 79440, Note_on_c, 0, 46, 47
3, 79560, Note_on_c, 0, 46, 0
3, 79560, Note_on_c, 0, 49, 40
3, 79680, Note_on_c, 0, 49, 0
3, 79680, Note_on_c, 0, 50, 47
3, 79800, Note_on_c, 0, 50, 0
3, 79800, Note_on_c, 0, 46, 41
3, 79920, Note_on_c, 0, 46, 0
3, 79920, Note_on_c, 0, 39, 44
3, 79934, Control_c, 0, 64, 0
3, 80034, Control_c, 0, 64, 127
3, 80040, Note_on_c, 0, 39, 0
3, 80040, Note_on_c, 0, 45, 41
3, 80160, Note_on_c, 0, 45, 0
3, 80160, Note_on_c, 0, 46, 44
3, 80280, Note_on_c, 0, 46, 0
3, 80280, Note_on_c, 0, 48, 37
3, 80400, Note_on_c, 0, 48, 0
3, 80400, Note_on_c, 0, 51, 41
3, 80520, Note_on_c, 0, 51, 0
3, 80520, Note_on_c, 0, 45, 37
3, 80640, Note_on_c, 0, 45, 0
3, 80640, Note_on_c, 0, 38, 47
3, 80653, Control_c, 0, 64, 0
3, 80726, Control_c, 0, 64, 127
3, 80760, Note_on_c, 0, 38, 0
3, 80760, Note_on_c, 0, 49, 41
3, 80880, Note_on_c, 0, 49, 0
3, 80880, Note_on_c, 0, 50, 47
3, 80889, Control_c, 0, 64, 0
3, 80943, Control_c, 0, 64, 127
3, 81000, Note_on_c, 0, 50, 0
3, 81000, Note_on_c, 0, 44, 41
3, 81120, Note_on_c, 0, 44, 0
3, 81120, Note_on_c, 0, 46, 47
3, 81137, Control_c, 0, 64, 0
3, 81177, Control_c, 0, 64, 127
3, 81240, Note_on_c, 0, 46, 0
3, 81240, Note_on_c, 0, 45, 41
3, 81360, Note_on_c, 0, 45, 0
3, 81360, Note_on_c, 0, 41, 47
3, 81370, Control_c, 0, 64, 0
3, 81412, Control_c, 0, 64, 127
3, 81480, Note_on_c, 0, 41, 0
3, 81480, Note_on_c, 0, 42, 41
3, 81600, Note_on_c, 0, 42, 0
3, 81600, Note_on_c, 0, 37, 47
3, 81611, Control_c, 0, 64, 0
3, 81663, Control_c, 0, 64, 127
3, 81720, Note_on_c, 0, 37, 0
3, 81720, Note_on_c, 0, 38, 41
3, 81840, Note_on_c, 0, 38, 0
3, 81840, Note_on_c, 0, 32, 47
3, 81852, Control_c, 0, 64, 0
3, 81897, Control_c, 0, 64, 127
3, 81960, Note_on_c, 0, 32, 0
3, 81960, Note_on_c, 0, 33, 41
3, 82080, Note_on_c, 0, 33, 0
3, 82080, Note_on_c, 0, 38, 49
3, 82091, Control_c, 0, 64, 0
3, 82280, Control_c, 0, 64, 127
3, 83520, Note_on_c, 0, 38, 0
3, 83520, Note_on_c, 0, 43, 34
3, 83520, Note_on_c, 0, 56, 40
3, 83532, Control_c, 0, 64, 0
3, 83640, Control_c, 0, 64, 127
3, 84256, Control_c, 0, 64, 0
3, 84364, Control_c, 0, 64, 127
3, 84960, Note_on_c, 0, 56, 0
3, 84960, Note_on_c, 0, 43, 0
3, 84960, Note_on_c, 0, 43, 35
3, 84960, Note_on_c, 0, 56, 41
3, 84973, Control_c, 0, 64, 0
3, 85067, Control_c, 0, 64, 127
3, 85675, Note_on_c, 0, 56, 0
3, 85680, Note_on_c, 0, 53, 41
3, 85694, Control_c, 0, 64, 0
3, 85836, Control_c, 0, 64, 127
3, 86040, Note_on_c, 0, 53, 0
3, 86040, Note_on_c, 0, 51, 39
3, 86160, Note_on_c, 0, 51, 0
3, 86160, Note_on_c, 0, 50, 40
3, 86400, Note_on_c, 0, 50, 0
3, 86400, Note_on_c, 0, 43, 0
3, 86400, Note_on_c, 0, 43, 34
3, 86400, Note_on_c, 0, 56, 40
3, 86415, Control_c, 0, 64, 0
3, 86506, Control_c, 0, 64, 127
3, 87139, Control_c, 0, 64, 0
3, 87293, Control_c, 0, 64, 127
3, 87840, Note_on_c, 0, 56, 0
3, 87840, Note_on_c, 0, 43, 0
3, 87840, Note_on_c, 0, 43, 35
3, 87840, Note_on_c, 0, 56, 41
3, 87851, Control_c, 0, 64, 0
3, 87947, Control_c, 0, 64, 127
3, 88500, Note_on_c, 0, 43, 0
3, 88500, Note_on_c, 0, 43, 66
3, 88560, Note_on_c, 0, 56, 0
3, 88560, Note_on_c, 0, 59, 62
3, 88575, Control_c, 0, 64, 0
3, 88625, Control_c, 0, 64, 127
3, 88920, Note_on_c, 0, 59, 0
3, 88920, Note_on_c, 0, 61, 55
3, 89040, Note_on_c, 0, 61, 0
3, 89040, Note_on_c, 0, 62, 57
3, 89280, Note_on_c, 0, 62, 0
3, 89280, Note_on_c, 0, 43, 0
3, 89280, Note_on_c, 0, 36, 69
3, 89292, Control_c, 0, 64, 0
3, 89393, Control_c, 0, 64, 127
3, 89400, Note_on_c, 0, 36, 0
3, 89400, Note_on_c, 0, 43, 61
3, 89520, Note_on_c, 0, 43, 0
3, 89520, Note_on_c, 0, 48, 61
3, 89640, Note_on_c, 0, 48, 0
3, 89640, Note_on_c, 0, 51, 61
3, 89760, Note_on_c, 0, 51, 0
3, 89760, Note_on_c, 0, 55, 69
3, 89880, Note_on_c, 0, 55, 0
3, 89880, Note_on_c, 0, 60, 61
3, 90000, Note_on_c, 0, 60, 0
3, 90000, Note_on_c, 0, 63, 61
3, 90120, Note_on_c, 0, 63, 0
3, 90120, Note_on_c, 0, 67, 61
3, 90240, Note_on_c, 0, 67, 0
3, 90240, Note_on_c, 0, 72, 59
3, 90360, Note_on_c, 0, 72, 0
3, 90360, Note_on_c, 0, 75, 63
3, 90480, Note_on_c, 0, 75, 0
3, 90480, Note_on_c, 0, 79, 68
3, 90600, Note_on_c, 0, 79, 0
3, 90600, Note_on_c, 0, 84, 72
3, 90720, Note_on_c, 0, 84, 0
3, 90720, Note_on_c, 0, 87, 79
3, 91440, Note_on_c, 0, 87, 0
3, 91440, Note_on_c, 0, 60, 53
3, 91456, Control_c, 0, 64, 0
3, 91596, Control_c, 0, 64, 127
3, 91800, Note_on_c, 0, 60, 0
3, 91800, Note_on_c, 0, 58, 51
3, 91920, Note_on_c, 0, 58, 0
3, 91920, Note_on_c, 0, 57, 52
3, 92160, Note_on_c, 0, 57, 0
3, 92160, Note_on_c, 0, 57, 59
3, 92173, Control_c, 0, 64, 0
3, 92299, Control_c, 0, 64, 127
3, 92880, Note_on_c, 0, 57, 0
3, 92880, Note_on_c, 0, 63, 59
3, 92894, Control_c, 0, 64, 0
3, 93063, Control_c, 0, 64, 127
3, 93240, Note_on_c, 0, 63, 0
3, 93240, Note_on_c, 0, 62, 57
3, 93360, Note_on_c, 0, 62, 0
3, 93360, Note_on_c, 0, 60, 57
3, 93600, Note_on_c, 0, 60, 0
3, 93600, Note_on_c, 0, 60, 61
3, 93612, Control_c, 0, 64, 0
3, 93769, Control_c, 0, 64, 127
3, 94315, Note_on_c, 0, 60, 0
3, 94320, Note_on_c, 0, 57, 52
3, 94338, Control_c, 0, 64, 0
3, 94447, Control_c, 0, 64, 127
3, 95040, Note_on_c, 0, 57, 0
3, 95040, Note_on_c, 0, 58, 51
3, 95040, Note_on_c, 0, 50, 51
3, 95056, Control_c, 0, 64, 0
3, 95183, Control_c, 0, 64, 127
3, 95400, Note_on_c, 0, 50, 0
3, 95400, Note_on_c, 0, 49, 41
3, 95520, Note_on_c, 0, 49, 0
3, 95520, Note_on_c, 0, 50, 47
3, 95760, Note_on_c, 0, 50, 0
3, 95760, Note_on_c, 0, 58, 0
3, 95760, Note_on_c, 0, 50, 47
3, 95772, Control_c, 0, 64, 0
3, 95920, Control_c, 0, 64, 127
3, 96480, Note_on_c, 0, 50, 0
3, 96480, Note_on_c, 0, 50, 49
3, 96480, Note_on_c, 0, 55, 49
3, 96490, Control_c, 0, 64, 0
3, 96600, Control_c, 0, 64, 127
3, 96840, Note_on_c, 0, 50, 0
3, 96840, Note_on_c, 0, 49, 41
3, 96960, Note_on_c, 0, 49, 0
3, 96960, Note_on_c, 0, 50, 49
3, 97200, Note_on_c, 0, 50, 0
3, 97200, Note_on_c, 0, 50, 48
3, 97220, Control_c, 0, 64, 0
3, 97337, Control_c, 0, 64, 127
3, 97920, Note_on_c, 0, 50, 0
3, 97920, Note_on_c, 0, 55, 0
3, 97920, Note_on_c, 0, 50, 49
3, 97920, Note_on_c, 0, 58, 49
3, 97930, Control_c, 0, 64, 0
3, 98023, Control_c, 0, 64, 127
3, 98280, Note_on_c, 0, 50, 0
3, 98280, Note_on_c, 0, 49, 41
3, 98400, Note_on_c, 0, 49, 0
3, 98400, Note_on_c, 0, 50, 49
3, 98640, Note_on_c, 0, 50, 0
3, 98640, Note_on_c, 0, 58, 0
3, 98640, Note_on_c, 0, 58, 48
3, 98640, Note_on_c, 0, 51, 48
3, 98648, Control_c, 0, 64, 0
3, 98766, Control_c, 0, 64, 127
3, 99360, Note_on_c, 0, 51, 0
3, 99360, Note_on_c, 0, 58, 0
3, 99360, Note_on_c, 0, 51, 48
3, 99360, Note_on_c, 0, 44, 48
3, 99374, Control_c, 0, 64, 0
3, 99440, Control_c, 0, 64, 127
3, 100080, Note_on_c, 0, 44, 0
3, 100080, Note_on_c, 0, 51, 0
3, 100080, Note_on_c, 0, 50, 48
3, 100091, Control_c, 0, 64, 0
3, 100200, Control_c, 0, 64, 127
3, 100800, Note_on_c, 0, 50, 0
3, 100800, Note_on_c, 0, 50, 49
3, 100800, Note_on_c, 0, 43, 49
3, 100809, Control_c, 0, 64, 0
3, 100920, Control_c, 0, 64, 127
3, 101160, Note_on_c, 0, 50, 0
3, 101160, Note_on_c, 0, 51, 41
3, 101280, Note_on_c, 0, 51, 0
3, 101280, Note_on_c, 0, 50, 49
3, 101520, Note_on_c, 0, 50, 0
3, 101520, Note_on_c, 0, 43, 0
3, 101520, Note_on_c, 0, 50, 48
3, 101537, Control_c, 0, 64, 0
3, 101627, Control_c, 0, 64, 127
3, 102240, Note_on_c, 0, 50, 0
3, 102240, Note_on_c, 0, 43, 34
3, 102240, Note_on_c, 0, 50, 40
3, 102240, Note_on_c, 0, 55, 40
3, 102249, Control_c, 0, 64, 0
3, 102507, Control_c, 0, 64, 127
3, 102960, Note_on_c, 0, 55, 0
3, 102960, Note_on_c, 0, 50, 0
3, 102960, Note_on_c, 0, 43, 0
3, 102960, Note_on_c, 0, 60, 47
3, 102960, Note_on_c, 0, 43, 38
3, 102973, Control_c, 0, 64, 0
3, 103120, Control_c, 0, 64, 127
3, 103680, Note_on_c, 0, 43, 0
3, 103680, Note_on_c, 0, 60, 0
3, 103680, Note_on_c, 0, 58, 41
3, 103680, Note_on_c, 0, 43, 35
3, 103689, Control_c, 0, 64, 0
3, 103826, Control_c, 0, 64, 127
3, 104400, Note_on_c, 0, 43, 0
3, 104400, Note_on_c, 0, 58, 0
3, 104400, Note_on_c, 0, 43, 35
3, 104400, Note_on_c, 0, 50, 41
3, 104400, Note_on_c, 0, 57, 41
3, 104413, Control_c, 0, 64, 0
3, 104485, Control_c, 0, 64, 127
3, 105120, Note_on_c, 0, 57, 0
3, 105120, Note_on_c, 0, 50, 0
3, 105120, Note_on_c, 0, 43, 0
3, 105120, Note_on_c, 0, 43, 34
3, 105120, Note_on_c, 0, 50, 40
3, 105120, Note_on_c, 0, 55, 40
3, 105138, Control_c, 0, 64, 0
3, 105333, Control_c, 0, 64, 127
3, 105840, Note_on_c, 0, 55, 0
3, 105840, Note_on_c, 0, 50, 0
3, 105840, Note_on_c, 0, 43, 0
3, 105840, Note_on_c, 0, 43, 38
3, 105840, Note_on_c, 0, 60, 47
3, 105849, Control_c, 0, 64, 0
3, 106080, Control_c, 0, 64, 127
3, 106560, Note_on_c, 0, 60, 0
3, 106560, Note_on_c, 0, 43, 0
3, 106560, Note_on_c, 0, 43, 35
3, 106560, Note_on_c, 0, 58, 41
3, 106566, Control_c, 0, 64, 0
3, 106667, Control_c, 0, 64, 127
3, 107275, Note_on_c, 0, 58, 0
3, 107280, Note_on_c, 0, 43, 0
3, 107280, Note_on_c, 0, 42, 35
3, 107280, Note_on_c, 0, 54, 41
3, 107297, Control_c, 0, 64, 0
3, 107443, Control_c, 0, 64, 127
3, 108000, Note_on_c, 0, 54, 0
3, 108000, Note_on_c, 0, 42, 0
3, 108000, Note_on_c, 0, 50, 48
3, 108000, Note_on_c, 0, 41, 39
3, 108011, Control_c, 0, 64, 0
3, 108187, Control_c, 0, 64, 127
3, 108720, Note_on_c, 0, 50, 0
3, 108720, Note_on_c, 0, 51, 42
3, 108737, Control_c, 0, 64, 0
3, 108974, Control_c, 0, 64, 127
3, 109440, Note_on_c, 0, 51, 0
3, 109440, Note_on_c, 0, 41, 0
3, 109440, Note_on_c, 0, 46, 45
3, 109440, Note_on_c, 0, 50, 45
3, 109451, Control_c, 0, 64, 0
3, 109547, Control_c, 0, 64, 127
3, 110160, Note_on_c, 0, 50, 0
3, 110160, Note_on_c, 0, 46, 0
3, 110160, Note_on_c, 0, 39, 39
3, 110160, Note_on_c, 0, 46, 48
3, 110167, Control_c, 0, 64, 0
3, 110245, Control_c, 0, 64, 127
3, 110880, Note_on_c, 0, 46, 0
3, 110880, Note_on_c, 0, 39, 0
3, 110880, Note_on_c, 0, 34, 36
3, 110880, Note_on_c, 0, 46, 42
3, 110896, Control_c, 0, 64, 0
3, 110986, Control_c, 0, 64, 127
3, 111600, Note_on_c, 0, 46, 0
3, 111600, Note_on_c, 0, 34, 0
3, 111600, Note_on_c, 0, 39, 48
3, 111600, Note_on_c, 0, 46, 48
3, 111607, Control_c, 0, 64, 0
3, 111720, Control_c, 0, 64, 127
3, 112320, Note_on_c, 0, 46, 0
3, 112320, Note_on_c, 0, 39, 0
3, 112320, Note_on_c, 0, 34, 38
3, 112320, Note_on_c, 0, 46, 46
3, 112327, Control_c, 0, 64, 0
3, 112480, Control_c, 0, 64, 127
3, 113040, Note_on_c, 0, 46, 0
3, 113040, Note_on_c, 0, 34, 0
3, 113040, Note_on_c, 0, 41, 38
3, 113040, Note_on_c, 0, 48, 46
3, 113054, Control_c, 0, 64, 0
3, 113240, Control_c, 0, 64, 127
3, 113760, Note_on_c, 0, 48, 0
3, 113760, Note_on_c, 0, 41, 0
3, 113760, Note_on_c, 0, 46, 48
3, 113769, Control_c, 0, 64, 0
3, 113867, Control_c, 0, 64, 127
3, 114480, Note_on_c, 0, 46, 0
3, 114480, Note_on_c, 0, 39, 33
3, 114480, Note_on_c, 0, 51, 39
3, 114498, Control_c, 0, 64, 0
3, 114565, Control_c, 0, 64, 127
3, 114960, Note_on_c, 0, 51, 0
3, 114960, Note_on_c, 0, 39, 0
3, 114960, Note_on_c, 0, 45, 37
3, 115200, Note_on_c, 0, 45, 0
3, 115200, Note_on_c, 0, 50, 35
3, 115200, Note_on_c, 0, 38, 31
3, 115217, Control_c, 0, 64, 0
3, 115480, Control_c, 0, 64, 127
3, 117360, Note_on_c, 0, 38, 0
3, 117360, Note_on_c, 0, 50, 0
3, 117378, Control_c, 0, 64, 0
3, 117473, Control_c, 0, 64, 127
3, 118080, Note_on_c, 0, 62, 40
3, 118080, Note_on_c, 0, 55, 34
3, 118080, Note_on_c, 0, 67, 40
3, 118090, Control_c, 0, 64, 0
3, 118307, Control_c, 0, 64, 127
3, 118800, Note_on_c, 0, 67, 0
3, 118800, Note_on_c, 0, 55, 0
3, 118800, Note_on_c, 0, 62, 0
3, 118800, Note_on_c, 0, 72, 43
3, 118800, Note_on_c, 0, 55, 38
3, 118814, Control_c, 0, 64, 0
3, 119067, Control_c, 0, 64, 127
3, 119520, Note_on_c, 0, 55, 0
3, 119520, Note_on_c, 0, 72, 0
3, 119520, Note_on_c, 0, 55, 35
3, 119520, Note_on_c, 0, 70, 41
3, 119531, Control_c, 0, 64, 0
3, 119627, Control_c, 0, 64, 127
3, 120240, Note_on_c, 0, 70, 0
3, 120240, Note_on_c, 0, 55, 0
3, 120240, Note_on_c, 0, 55, 35
3, 120240, Note_on_c, 0, 62, 41
3, 120240, Note_on_c, 0, 69, 41
3, 120256, Control_c, 0, 64, 0
3, 120386, Control_c, 0, 64, 127
3, 120960, Note_on_c, 0, 69, 0
3, 120960, Note_on_c, 0, 62, 0
3, 120960, Note_on_c, 0, 55, 0
3, 120960, Note_on_c, 0, 55, 34
3, 120960, Note_on_c, 0, 62, 40
3, 120960, Control_c, 0, 64, 0
3, 120960, Note_on_c, 0, 67, 40
3, 121120, Control_c, 0, 64, 127
3, 121680, Note_on_c, 0, 67, 0
3, 121680, Note_on_c, 0, 62, 0
3, 121680, Note_on_c, 0, 55, 0
3, 121680, Note_on_c, 0, 55, 38
3, 121680, Note_on_c, 0, 72, 45
3, 121693, Control_c, 0, 64, 0
3, 121880, Control_c, 0, 64, 127
3, 122400, Note_on_c, 0, 72, 0
3, 122400, Note_on_c, 0, 55, 0
3, 122400, Note_on_c, 0, 55, 35
3, 122400, Note_on_c, 0, 70, 41
3, 122412, Control_c, 0, 64, 0
3, 122507, Control_c, 0, 64, 127
3, 123115, Note_on_c, 0, 70, 0
3, 123120, Note_on_c, 0, 55, 0
3, 123120, Note_on_c, 0, 66, 41
3, 123120, Note_on_c, 0, 54, 35
3, 123141, Control_c, 0, 64, 0
3, 123276, Control_c, 0, 64, 127
3, 123840, Note_on_c, 0, 54, 0
3, 123840, Note_on_c, 0, 66, 0
3, 123840, Note_on_c, 0, 62, 48
3, 123840, Note_on_c, 0, 53, 39
3, 123847, Control_c, 0, 64, 0
3, 124040, Control_c, 0, 64, 127
3, 124560, Note_on_c, 0, 62, 0
3, 124560, Note_on_c, 0, 63, 42
3, 124577, Control_c, 0, 64, 0
3, 124787, Control_c, 0, 64, 127
3, 125280, Note_on_c, 0, 63, 0
3, 125280, Note_on_c, 0, 53, 0
3, 125280, Note_on_c, 0, 58, 42
3, 125280, Note_on_c, 0, 62, 48
3, 125289, Control_c, 0, 64, 0
3, 125387, Control_c, 0, 64, 127
3, 126000, Note_on_c, 0, 62, 0
3, 126000, Note_on_c, 0, 58, 0
3, 126000, Note_on_c, 0, 51, 39
3, 126000, Note_on_c, 0, 63, 48
3, 126015, Control_c, 0, 64, 0
3, 126085, Control_c, 0, 64, 127
3, 126720, Note_on_c, 0, 63, 0
3, 126720, Note_on_c, 0, 51, 0
3, 126720, Note_on_c, 0, 46, 36
3, 126720, Note_on_c, 0, 58, 42
3, 126730, Control_c, 0, 64, 0
3, 126840, Control_c, 0, 64, 127
3, 127440, Note_on_c, 0, 58, 0
3, 127440, Note_on_c, 0, 46, 0
3, 127440, Note_on_c, 0, 58, 48
3, 127440, Note_on_c, 0, 51, 48
3, 127457, Control_c, 0, 64, 0
3, 127525, Control_c, 0, 64, 127
3, 128160, Note_on_c, 0, 51, 0
3, 128160, Note_on_c, 0, 58, 0
3, 128160, Note_on_c, 0, 58, 46
3, 128160, Note_on_c, 0, 46, 38
3, 128174, Control_c, 0, 64, 0
3, 128333, Control_c, 0, 64, 127
3, 128880, Note_on_c, 0, 46, 0
3, 128880, Note_on_c, 0, 58, 0
3, 128880, Note_on_c, 0, 60, 46
3, 128880, Note_on_c, 0, 53, 38
3, 128891, Control_c, 0, 64, 0
3, 129094, Control_c, 0, 64, 127
3, 129600, Note_on_c, 0, 53, 0
3, 129600, Note_on_c, 0, 60, 0
3, 129600, Note_on_c, 0, 58, 48
3, 129612, Control_c, 0, 64, 0
3, 129707, Control_c, 0, 64, 127
3, 130320, Note_on_c, 0, 58, 0
3, 130320, Note_on_c, 0, 51, 33
3, 130320, Note_on_c, 0, 63, 39
3, 130338, Control_c, 0, 64, 0
3, 130440, Control_c, 0, 64, 127
3, 130800, Note_on_c, 0, 63, 0
3, 130800, Note_on_c, 0, 51, 0
3, 130800, Note_on_c, 0, 57, 37
3, 131040, Note_on_c, 0, 57, 0
3, 131040, Note_on_c, 0, 50, 31
3, 131040, Note_on_c, 0, 62, 38
3, 131057, Control_c, 0, 64, 0
3, 131293, Control_c, 0, 64, 127
3, 133195, Note_on_c, 0, 62, 0
3, 133200, Note_on_c, 0, 50, 0
3, 133217, Control_c, 0, 64, 0
3, 133384, Control_c, 0, 64, 127
3, 133920, Note_on_c, 0, 43, 34
3, 133920, Note_on_c, 0, 56, 40
3, 133935, Control_c, 0, 64, 0
3, 134029, Control_c, 0, 64, 127
3, 134655, Control_c, 0, 64, 0
3, 134774, Control_c, 0, 64, 127
3, 135360, Note_on_c, 0, 56, 0
3, 135360, Note_on_c, 0, 43, 0
3, 135360, Note_on_c, 0, 55, 41
3, 135360, Note_on_c, 0, 43, 35
3, 135369, Control_c, 0, 64, 0
3, 135536, Control_c, 0, 64, 127
3, 136080, Note_on_c, 0, 55, 0
3, 136080, Note_on_c, 0, 53, 41
3, 136096, Control_c, 0, 64, 0
3, 136236, Control_c, 0, 64, 127
3, 136440, Note_on_c, 0, 53, 0
3, 136440, Note_on_c, 0, 51, 39
3, 136560, Note_on_c, 0, 51, 0
3, 136560, Note_on_c, 0, 50, 40
3, 136800, Note_on_c, 0, 50, 0
3, 136800, Note_on_c, 0, 43, 0
3, 136800, Note_on_c, 0, 43, 34
3, 136800, Note_on_c, 0, 56, 40
3, 136815, Control_c, 0, 64, 0
3, 136871, Control_c, 0, 64, 127
3, 137532, Control_c, 0, 64, 0
3, 137651, Control_c, 0, 64, 127
3, 138240, Note_on_c, 0, 56, 0
3, 138240, Note_on_c, 0, 43, 0
3, 138240, Note_on_c, 0, 43, 35
3, 138240, Note_on_c, 0, 56, 41
3, 138252, Control_c, 0, 64, 0
3, 138347, Control_c, 0, 64, 127
3, 138900, Note_on_c, 0, 43, 0
3, 138900, Note_on_c, 0, 43, 66
3, 138960, Note_on_c, 0, 56, 0
3, 138960, Note_on_c, 0, 59, 62
3, 138977, Control_c, 0, 64, 0
3, 139063, Control_c, 0, 64, 127
3, 139320, Note_on_c, 0, 59, 0
3, 139320, Note_on_c, 0, 61, 55
3, 139440, Note_on_c, 0, 61, 0
3, 139440, Note_on_c, 0, 62, 57
3, 139680, Note_on_c, 0, 62, 0
3, 139680, Note_on_c, 0, 43, 0
3, 139680, Note_on_c, 0, 36, 69
3, 139680, Note_on_c, 0, 48, 69
3, 139693, Control_c, 0, 64, 0
3, 139864, Control_c, 0, 64, 127
3, 140160, Note_on_c, 0, 48, 0
3, 140160, Note_on_c, 0, 36, 0
3, 140160, Note_on_c, 0, 67, 50
3, 140160, Note_on_c, 0, 72, 60
3, 140160, Note_on_c, 0, 60, 50
3, 140400, Note_on_c, 0, 60, 0
3, 140400, Note_on_c, 0, 72, 0
3, 140400, Note_on_c, 0, 67, 0
3, 140400, Note_on_c, 0, 67, 53
3, 140400, Note_on_c, 0, 60, 53
3, 140400, Note_on_c, 0, 72, 64
3, 140416, Control_c, 0, 64, 0
3, 140548, Control_c, 0, 64, 127
3, 140760, Note_on_c, 0, 72, 0
3, 140760, Note_on_c, 0, 60, 0
3, 140760, Note_on_c, 0, 67, 0
3, 140760, Note_on_c, 0, 60, 52
3, 140760, Note_on_c, 0, 72, 62
3, 140760, Note_on_c, 0, 67, 52
3, 140880, Note_on_c, 0, 67, 0
3, 140880, Note_on_c, 0, 72, 0
3, 140880, Note_on_c, 0, 60, 0
3, 140880, Note_on_c, 0, 67, 62
3, 140880, Note_on_c, 0, 60, 52
3, 141120, Note_on_c, 0, 60, 0
3, 141120, Note_on_c, 0, 67, 0
3, 141120, Note_on_c, 0, 71, 64
3, 141120, Note_on_c, 0, 60, 53
3, 141120, Note_on_c, 0, 68, 53
3, 141129, Control_c, 0, 64, 0
3, 141212, Control_c, 0, 64, 127
3, 141480, Note_on_c, 0, 68, 0
3, 141480, Note_on_c, 0, 60, 0
3, 141480, Note_on_c, 0, 71, 0
3, 141480, Note_on_c, 0, 68, 59
3, 141480, Note_on_c, 0, 60, 49
3, 141600, Note_on_c, 0, 60, 0
3, 141600, Note_on_c, 0, 68, 0
3, 141600, Note_on_c, 0, 68, 59
3, 141600, Note_on_c, 0, 60, 49
3, 141780, Note_on_c, 0, 60, 0
3, 141780, Note_on_c, 0, 68, 0
3, 141840, Note_on_c, 0, 68, 61
3, 141840, Note_on_c, 0, 60, 50
3, 141850, Control_c, 0, 64, 0
3, 141985, Control_c, 0, 64, 127
3, 142200, Note_on_c, 0, 60, 0
3, 142200, Note_on_c, 0, 68, 0
3, 142200, Note_on_c, 0, 68, 58
3, 142200, Note_on_c, 0, 60, 48
3, 142320, Note_on_c, 0, 60, 0
3, 142320, Note_on_c, 0, 68, 0
3, 142320, Note_on_c, 0, 68, 58
3, 142320, Note_on_c, 0, 60, 48
3, 142560, Note_on_c, 0, 60, 0
3, 142560, Note_on_c, 0, 68, 0
3, 142560, Note_on_c, 0, 60, 50
3, 142560, Control_c, 0, 64, 0
3, 142560, Note_on_c, 0, 67, 61
3, 142709, Control_c, 0, 64, 127
3, 142920, Note_on_c, 0, 67, 0
3, 142920, Note_on_c, 0, 60, 0
3, 142920, Note_on_c, 0, 67, 57
3, 142920, Note_on_c, 0, 60, 47
3, 143040, Note_on_c, 0, 60, 0
3, 143040, Note_on_c, 0, 67, 0
3, 143040, Note_on_c, 0, 67, 57
3, 143040, Note_on_c, 0, 60, 47
3, 143280, Note_on_c, 0, 60, 0
3, 143280, Note_on_c, 0, 67, 0
3, 143280, Note_on_c, 0, 60, 53
3, 143280, Note_on_c, 0, 67, 53
3, 143280, Note_on_c, 0, 72, 64
3, 143299, Control_c, 0, 64, 0
3, 143446, Control_c, 0, 64, 127
3, 143640, Note_on_c, 0, 72, 0
3, 143640, Note_on_c, 0, 67, 0
3, 143640, Note_on_c, 0, 60, 0
3, 143640, Note_on_c, 0, 60, 52
3, 143640, Note_on_c, 0, 67, 52
3, 143640, Note_on_c, 0, 72, 62
3, 143760, Note_on_c, 0, 72, 0
3, 143760, Note_on_c, 0, 67, 0
3, 143760, Note_on_c, 0, 60, 0
3, 143760, Note_on_c, 0, 67, 52
3, 143760, Note_on_c, 0, 60, 52
3, 144000, Note_on_c, 0, 60, 0
3, 144000, Note_on_c, 0, 67, 0
3, 144000, Note_on_c, 0, 68, 53
3, 144000, Note_on_c, 0, 60, 53
3, 144000, Note_on_c, 0, 71, 64
3, 144010, Control_c, 0, 64, 0
3, 144092, Control_c, 0, 64, 127
3, 144360, Note_on_c, 0, 71, 0
3, 144360, Note_on_c, 0, 60, 0
3, 144360, Note_on_c, 0, 68, 0
3, 144360, Note_on_c, 0, 60, 49
3, 144360, Note_on_c, 0, 68, 59
3, 144480, Note_on_c, 0, 68, 0
3, 144480, Note_on_c, 0, 60, 0
3, 144480, Note_on_c, 0, 60, 49
3, 144480, Note_on_c, 0, 68, 59
3, 144660, Note_on_c, 0, 68, 0
3, 144660, Note_on_c, 0, 60, 0
3, 144720, Note_on_c, 0, 60, 50
3, 144720, Note_on_c, 0, 68, 61
3, 144731, Control_c, 0, 64, 0
3, 144840, Control_c, 0, 64, 127
3, 145080, Note_on_c, 0, 68, 0
3, 145080, Note_on_c, 0, 60, 0
3, 145080, Note_on_c, 0, 60, 48
3, 145080, Note_on_c, 0, 68, 58
3, 145200, Note_on_c, 0, 68, 0
3, 145200, Note_on_c, 0, 60, 0
3, 145200, Note_on_c, 0, 60, 48
3, 145200, Note_on_c, 0, 68, 58
3, 145440, Note_on_c, 0, 68, 0
3, 145440, Note_on_c, 0, 60, 0
3, 145440, Note_on_c, 0, 60, 50
3, 145440, Note_on_c, 0, 67, 61
3, 145451, Control_c, 0, 64, 0
3, 145569, Control_c, 0, 64, 127
3, 146160, Note_on_c, 0, 67, 0
3, 146160, Note_on_c, 0, 60, 0
3, 146160, Note_on_c, 0, 58, 50
3, 146160, Note_on_c, 0, 67, 50
3, 146185, Control_c, 0, 64, 0
3, 146284, Control_c, 0, 64, 127
3, 146880, Note_on_c, 0, 67, 0
3, 146880, Note_on_c, 0, 58, 0
3, 146880, Note_on_c, 0, 57, 50
3, 146880, Note_on_c, 0, 63, 50
3, 146890, Control_c, 0, 64, 0
3, 147028, Control_c, 0, 64, 127
3, 147600, Note_on_c, 0, 63, 0
3, 147600, Note_on_c, 0, 62, 50
3, 147611, Control_c, 0, 64, 0
3, 147696, Control_c, 0, 64, 127
3, 148320, Note_on_c, 0, 62, 0
3, 148320, Note_on_c, 0, 57, 0
3, 148320, Note_on_c, 0, 55, 50
3, 148320, Note_on_c, 0, 62, 50
3, 148331, Control_c, 0, 64, 0
3, 148497, Control_c, 0, 64, 127
3, 149040, Note_on_c, 0, 62, 0
3, 149040, Note_on_c, 0, 64, 50
3, 149053, Control_c, 0, 64, 0
3, 149245, Control_c, 0, 64, 127
3, 149760, Note_on_c, 0, 64, 0
3, 149760, Note_on_c, 0, 55, 0
3, 149760, Note_on_c, 0, 65, 50
3, 149760, Note_on_c, 0, 57, 50
3, 149771, Control_c, 0, 64, 0
3, 149937, Control_c, 0, 64, 127
3, 150480, Note_on_c, 0, 65, 0
3, 150480, Note_on_c, 0, 64, 50
3, 150497, Control_c, 0, 64, 0
3, 150628, Control_c, 0, 64, 127
3, 150960, Note_on_c, 0, 64, 0
3, 150960, Note_on_c, 0, 67, 45
3, 151200, Note_on_c, 0, 67, 0
3, 151200, Note_on_c, 0, 57, 0
3, 151200, Control_c, 0, 64, 0
3, 151200, Note_on_c, 0, 62, 53
3, 151200, Note_on_c, 0, 66, 45
3, 151280, Control_c, 0, 64, 127
3, 151560, Note_on_c, 0, 62, 0
3, 151560, Note_on_c, 0, 61, 50
3, 151570, Control_c, 0, 64, 0
3, 151680, Note_on_c, 0, 61, 0
3, 151680, Note_on_c, 0, 62, 50
3, 151920, Note_on_c, 0, 62, 0
3, 151920, Note_on_c, 0, 66, 0
3, 151920, Note_on_c, 0, 62, 53
3, 152040, Control_c, 0, 64, 127
3, 152640, Note_on_c, 0, 62, 0
3, 152640, Note_on_c, 0, 62, 49
3, 152640, Note_on_c, 0, 67, 49
3, 152648, Control_c, 0, 64, 0
3, 152720, Control_c, 0, 64, 127
3, 153000, Note_on_c, 0, 62, 0
3, 153000, Note_on_c, 0, 61, 42
3, 153120, Note_on_c, 0, 61, 0
3, 153120, Note_on_c, 0, 62, 49
3, 153360, Note_on_c, 0, 62, 0
3, 153360, Note_on_c, 0, 62, 50
3, 153377, Control_c, 0, 64, 0
3, 153503, Control_c, 0, 64, 127
3, 154080, Note_on_c, 0, 62, 0
3, 154080, Note_on_c, 0, 67, 0
3, 154080, Note_on_c, 0, 66, 49
3, 154080, Note_on_c, 0, 62, 49
3, 154089, Control_c, 0, 64, 0
3, 154200, Control_c, 0, 64, 127
3, 154440, Note_on_c, 0, 62, 0
3, 154440, Note_on_c, 0, 61, 42
3, 154560, Note_on_c, 0, 61, 0
3, 154560, Note_on_c, 0, 62, 49
3, 154800, Note_on_c, 0, 62, 0
3, 154800, Note_on_c, 0, 62, 50
3, 154817, Control_c, 0, 64, 0
3, 154966, Control_c, 0, 64, 127
3, 155520, Note_on_c, 0, 62, 0
3, 155520, Note_on_c, 0, 66, 0
3, 155520, Note_on_c, 0, 62, 49
3, 155532, Control_c, 0, 64, 0
3, 155682, Control_c, 0, 64, 127
3, 155880, Note_on_c, 0, 62, 0
3, 155880, Note_on_c, 0, 62, 42
3, 156000, Note_on_c, 0, 62, 0
3, 156000, Note_on_c, 0, 62, 49
3, 156240, Note_on_c, 0, 62, 0
3, 156240, Note_on_c, 0, 62, 50
3, 156255, Control_c, 0, 64, 0
3, 156381, Control_c, 0, 64, 127
3, 156960, Note_on_c, 0, 62, 0
3, 156960, Note_on_c, 0, 62, 49
3, 156971, Control_c, 0, 64, 0
3, 157129, Control_c, 0, 64, 127
3, 157320, Note_on_c, 0, 62, 0
3, 157320, Note_on_c, 0, 63, 39
3, 157440, Note_on_c, 0, 63, 0
3, 157440, Note_on_c, 0, 62, 44
3, 157680, Note_on_c, 0, 62, 0
3, 157680, Note_on_c, 0, 62, 44
3, 157695, Control_c, 0, 64, 0
3, 157878, Control_c, 0, 64, 127
3, 157920, Note_on_c, 0, 62, 0
3, 158400, Note_on_c, 0, 50, 44
3, 158400, Note_on_c, 0, 55, 44
3, 158408, Control_c, 0, 64, 0
3, 158549, Control_c, 0, 64, 127
3, 158760, Note_on_c, 0, 50, 0
3, 158760, Note_on_c, 0, 49, 38
3, 158880, Note_on_c, 0, 49, 0
3, 158880, Note_on_c, 0, 50, 44
3, 159120, Note_on_c, 0, 50, 0
3, 159120, Note_on_c, 0, 50, 45
3, 159139, Control_c, 0, 64, 0
3, 159206, Control_c, 0, 64, 127
3, 159840, Note_on_c, 0, 50, 0
3, 159840, Note_on_c, 0, 55, 0
3, 159840, Note_on_c, 0, 50, 44
3, 159840, Note_on_c, 0, 54, 44
3, 159847, Control_c, 0, 64, 0
3, 159972, Control_c, 0, 64, 127
3, 160200, Note_on_c, 0, 50, 0
3, 160200, Note_on_c, 0, 49, 38
3, 160320, Note_on_c, 0, 49, 0
3, 160320, Note_on_c, 0, 50, 44
3, 160560, Note_on_c, 0, 50, 0
3, 160560, Note_on_c, 0, 50, 45
3, 160575, Control_c, 0, 64, 0
3, 160657, Control_c, 0, 64, 127
3, 161280, Note_on_c, 0, 50, 0
3, 161280, Note_on_c, 0, 54, 0
3, 161280, Note_on_c, 0, 50, 44
3, 161289, Control_c, 0, 64, 0
3, 161372, Control_c, 0, 64, 127
3, 161640, Note_on_c, 0, 50, 0
3, 161640, Note_on_c, 0, 50, 38
3, 161760, Note_on_c, 0, 50, 0
3, 161760, Note_on_c, 0, 50, 44
3, 162000, Note_on_c, 0, 50, 0
3, 162000, Note_on_c, 0, 50, 45
3, 162019, Control_c, 0, 64, 0
3, 162141, Control_c, 0, 64, 127
3, 162720, Note_on_c, 0, 50, 0
3, 162720, Note_on_c, 0, 54, 38
3, 162720, Note_on_c, 0, 50, 38
3, 162720, Control_c, 0, 64, 0
3, 162771, Control_c, 0, 64, 127
3, 162840, Note_on_c, 0, 50, 0
3, 162840, Note_on_c, 0, 49, 38
3, 162960, Note_on_c, 0, 49, 0
3, 162960, Note_on_c, 0, 50, 38
3, 163080, Note_on_c, 0, 50, 0
3, 163080, Note_on_c, 0, 49, 37
3, 163200, Note_on_c, 0, 49, 0
3, 163200, Note_on_c, 0, 50, 38
3, 163320, Note_on_c, 0, 50, 0
3, 163320, Note_on_c, 0, 49, 33
3, 163440, Note_on_c, 0, 49, 0
3, 163440, Note_on_c, 0, 54, 0
3, 163440, Note_on_c, 0, 51, 38
3, 163440, Note_on_c, 0, 54, 38
3, 163448, Control_c, 0, 64, 0
3, 163526, Control_c, 0, 64, 127
3, 163560, Note_on_c, 0, 51, 0
3, 163560, Note_on_c, 0, 50, 33
3, 163680, Note_on_c, 0, 50, 0
3, 163680, Note_on_c, 0, 49, 38
3, 163800, Note_on_c, 0, 49, 0
3, 163800, Note_on_c, 0, 50, 34
3, 163920, Note_on_c, 0, 50, 0
3, 163920, Note_on_c, 0, 51, 38
3, 164040, Note_on_c, 0, 51, 0
3, 164040, Note_on_c, 0, 50, 33
3, 164160, Note_on_c, 0, 50, 0
3, 164160, Note_on_c, 0, 54, 0
3, 164160, Note_on_c, 0, 43, 37
3, 164160, Note_on_c, 0, 55, 37
3, 164168, Control_c, 0, 64, 0
3, 164223, Control_c, 0, 64, 127
3, 164280, Note_on_c, 0, 55, 0
3, 164280, Note_on_c, 0, 54, 40
3, 164400, Note_on_c, 0, 54, 0
3, 164400, Note_on_c, 0, 53, 41
3, 164520, Note_on_c, 0, 53, 0
3, 164520, Note_on_c, 0, 52, 42
3, 164640, Note_on_c, 0, 52, 0
3, 164640, Note_on_c, 0, 51, 44
3, 164760, Note_on_c, 0, 51, 0
3, 164760, Note_on_c, 0, 50, 47
3, 164880, Note_on_c, 0, 50, 0
3, 164880, Note_on_c, 0, 43, 0
3, 164880, Note_on_c, 0, 49, 47
3, 164897, Control_c, 0, 64, 0
3, 164966, Control_c, 0, 64, 127
3, 165000, Note_on_c, 0, 49, 0
3, 165000, Note_on_c, 0, 50, 44
3, 165120, Note_on_c, 0, 50, 0
3, 165120, Note_on_c, 0, 51, 42
3, 165240, Note_on_c, 0, 51, 0
3, 165240, Note_on_c, 0, 52, 41
3, 165360, Note_on_c, 0, 52, 0
3, 165360, Note_on_c, 0, 53, 40
3, 165480, Note_on_c, 0, 53, 0
3, 165480, Note_on_c, 0, 54, 40
3, 165600, Note_on_c, 0, 54, 0
3, 165600, Note_on_c, 0, 43, 41
3, 165600, Note_on_c, 0, 55, 41
3, 165609, Control_c, 0, 64, 0
3, 165663, Control_c, 0, 64, 127
3, 165720, Note_on_c, 0, 55, 0
3, 165720, Note_on_c, 0, 54, 36
3, 165840, Note_on_c, 0, 54, 0
3, 165840, Note_on_c, 0, 55, 41
3, 165960, Note_on_c, 0, 55, 0
3, 165960, Note_on_c, 0, 50, 37
3, 166080, Note_on_c, 0, 50, 0
3, 166080, Note_on_c, 0, 49, 41
3, 166200, Note_on_c, 0, 49, 0
3, 166200, Note_on_c, 0, 50, 36
3, 166320, Note_on_c, 0, 50, 0
3, 166320, Note_on_c, 0, 43, 0
3, 166320, Note_on_c, 0, 54, 41
3, 166334, Control_c, 0, 64, 0
3, 166400, Control_c, 0, 64, 127
3, 166440, Note_on_c, 0, 54, 0
3, 166440, Note_on_c, 0, 50, 40
3, 166560, Note_on_c, 0, 50, 0
3, 166560, Note_on_c, 0, 49, 41
3, 166680, Note_on_c, 0, 49, 0
3, 166680, Note_on_c, 0, 50, 36
3, 166800, Note_on_c, 0, 50, 0
3, 166800, Note_on_c, 0, 51, 42
3, 166920, Note_on_c, 0, 51, 0
3, 166920, Note_on_c, 0, 50, 41
3, 167040, Note_on_c, 0, 50, 0
3, 167040, Note_on_c, 0, 43, 37
3, 167040, Note_on_c, 0, 55, 37
3, 167048, Control_c, 0, 64, 0
3, 167092, Control_c, 0, 64, 127
3, 167160, Note_on_c, 0, 55, 0
3, 167160, Note_on_c, 0, 54, 40
3, 167280, Note_on_c, 0, 54, 0
3, 167280, Note_on_c, 0, 53, 42
3, 167400, Note_on_c, 0, 53, 0
3, 167400, Note_on_c, 0, 52, 44
3, 167520, Note_on_c, 0, 52, 0
3, 167520, Note_on_c, 0, 51, 44
3, 167640, Note_on_c, 0, 51, 0
3, 167640, Note_on_c, 0, 50, 42
3, 167760, Note_on_c, 0, 50, 0
3, 167760, Note_on_c, 0, 43, 0
3, 167760, Note_on_c, 0, 49, 42
3, 167776, Control_c, 0, 64, 0
3, 167846, Control_c, 0, 64, 127
3, 167880, Note_on_c, 0, 49, 0
3, 167880, Note_on_c, 0, 50, 41
3, 168000, Note_on_c, 0, 50, 0
3, 168000, Note_on_c, 0, 51, 40
3, 168120, Note_on_c, 0, 51, 0
3, 168120, Note_on_c, 0, 52, 37
3, 168240, Note_on_c, 0, 52, 0
3, 168240, Note_on_c, 0, 53, 41
3, 168360, Note_on_c, 0, 53, 0
3, 168360, Note_on_c, 0, 54, 41
3, 168480, Note_on_c, 0, 54, 0
3, 168480, Note_on_c, 0, 43, 41
3, 168480, Note_on_c, 0, 55, 41
3, 168492, Control_c, 0, 64, 0
3, 168537, Control_c, 0, 64, 127
3, 168600, Note_on_c, 0, 55, 0
3, 168600, Note_on_c, 0, 54, 36
3, 168720, Note_on_c, 0, 54, 0
3, 168720, Note_on_c, 0, 55, 41
3, 168840, Note_on_c, 0, 55, 0
3, 168840, Note_on_c, 0, 50, 37
3, 168960, Note_on_c, 0, 50, 0
3, 168960, Note_on_c, 0, 49, 47
3, 169080, Note_on_c, 0, 49, 0
3, 169080, Note_on_c, 0, 50, 42
3, 169200, Note_on_c, 0, 50, 0
3, 169200, Note_on_c, 0, 43, 0
3, 169200, Note_on_c, 0, 42, 47
3, 169217, Control_c, 0, 64, 0
3, 169297, Control_c, 0, 64, 127
3, 169320, Note_on_c, 0, 50, 41
3, 169440, Note_on_c, 0, 50, 0
3, 169440, Note_on_c, 0, 49, 37
3, 169560, Note_on_c, 0, 49, 0
3, 169560, Note_on_c, 0, 50, 41
3, 169680, Note_on_c, 0, 50, 0
3, 169680, Note_on_c, 0, 51, 42
3, 169800, Note_on_c, 0, 51, 0
3, 169800, Note_on_c, 0, 50, 41
3, 169920, Note_on_c, 0, 50, 0
3, 169920, Note_on_c, 0, 42, 0
3, 169920, Note_on_c, 0, 50, 49
3, 169920, Note_on_c, 0, 41, 49
3, 169928, Control_c, 0, 64, 0
3, 169977, Control_c, 0, 64, 127
3, 170040, Note_on_c, 0, 50, 0
3, 170040, Note_on_c, 0, 49, 44
3, 170160, Note_on_c, 0, 49, 0
3, 170160, Note_on_c, 0, 50, 49
3, 170280, Note_on_c, 0, 50, 0
3, 170280, Note_on_c, 0, 49, 42
3, 170400, Note_on_c, 0, 49, 0
3, 170400, Note_on_c, 0, 50, 48
3, 170520, Note_on_c, 0, 50, 0
3, 170520, Note_on_c, 0, 49, 42
3, 170640, Note_on_c, 0, 49, 0
3, 170640, Note_on_c, 0, 41, 0
3, 170640, Note_on_c, 0, 51, 47
3, 170640, Note_on_c, 0, 41, 47
3, 170649, Control_c, 0, 64, 0
3, 170726, Control_c, 0, 64, 127
3, 170760, Note_on_c, 0, 51, 0
3, 170760, Note_on_c, 0, 50, 41
3, 170880, Note_on_c, 0, 50, 0
3, 170880, Note_on_c, 0, 51, 48
3, 171000, Note_on_c, 0, 51, 0
3, 171000, Note_on_c, 0, 48, 41
3, 171120, Note_on_c, 0, 48, 0
3, 171120, Note_on_c, 0, 53, 47
3, 171240, Note_on_c, 0, 53, 0
3, 171240, Note_on_c, 0, 51, 41
3, 171360, Note_on_c, 0, 51, 0
3, 171360, Note_on_c, 0, 41, 0
3, 171360, Note_on_c, 0, 46, 47
3, 171360, Note_on_c, 0, 50, 47
3, 171367, Control_c, 0, 64, 0
3, 171423, Control_c, 0, 64, 127
3, 171480, Note_on_c, 0, 50, 0
3, 171480, Note_on_c, 0, 49, 39
3, 171600, Note_on_c, 0, 49, 0
3, 171600, Note_on_c, 0, 50, 47
3, 171720, Note_on_c, 0, 50, 0
3, 171720, Note_on_c, 0, 49, 41
3, 171840, Note_on_c, 0, 49, 0
3, 171840, Note_on_c, 0, 50, 47
3, 171960, Note_on_c, 0, 50, 0
3, 171960, Note_on_c, 0, 49, 41
3, 172080, Note_on_c, 0, 49, 0
3, 172080, Note_on_c, 0, 46, 0
3, 172080, Note_on_c, 0, 39, 47
3, 172095, Control_c, 0, 64, 0
3, 172155, Control_c, 0, 64, 127
3, 172200, Note_on_c, 0, 39, 0
3, 172200, Note_on_c, 0, 45, 41
3, 172320, Note_on_c, 0, 45, 0
3, 172320, Note_on_c, 0, 46, 48
3, 172440, Note_on_c, 0, 46, 0
3, 172440, Note_on_c, 0, 51, 44
3, 172560, Note_on_c, 0, 51, 0
3, 172560, Note_on_c, 0, 55, 52
3, 172680, Note_on_c, 0, 55, 0
3, 172680, Note_on_c, 0, 51, 41
3, 172800, Note_on_c, 0, 51, 0
3, 172800, Note_on_c, 0, 46, 49
3, 172807, Control_c, 0, 64, 0
3, 172875, Control_c, 0, 64, 127
3, 172920, Note_on_c, 0, 46, 0
3, 172920, Note_on_c, 0, 52, 44
3, 173040, Note_on_c, 0, 52, 0
3, 173040, Note_on_c, 0, 53, 48
3, 173160, Note_on_c, 0, 53, 0
3, 173160, Note_on_c, 0, 49, 41
3, 173280, Note_on_c, 0, 49, 0
3, 173280, Note_on_c, 0, 50, 49
3, 173400, Note_on_c, 0, 50, 0
3, 173400, Note_on_c, 0, 46, 41
3, 173520, Note_on_c, 0, 46, 0
3, 173520, Note_on_c, 0, 39, 47
3, 173539, Control_c, 0, 64, 0
3, 173634, Control_c, 0, 64, 127
3, 173640, Note_on_c, 0, 39, 0
3, 173640, Note_on_c, 0, 45, 41
3, 173760, Note_on_c, 0, 45, 0
3, 173760, Note_on_c, 0, 46, 42
3, 173880, Note_on_c, 0, 46, 0
3, 173880, Note_on_c, 0, 52, 41
3, 174000, Note_on_c, 0, 52, 0
3, 174000, Note_on_c, 0, 54, 47
3, 174120, Note_on_c, 0, 54, 0
3, 174120, Note_on_c, 0, 52, 41
3, 174240, Note_on_c, 0, 52, 0
3, 174240, Note_on_c, 0, 46, 48
3, 174253, Control_c, 0, 64, 0
3, 174320, Control_c, 0, 64, 127
3, 174360, Note_on_c, 0, 46, 0
3, 174360, Note_on_c, 0, 45, 41
3, 174480, Note_on_c, 0, 45, 0
3, 174480, Note_on_c, 0, 46, 48
3, 174600, Note_on_c, 0, 46, 0
3, 174600, Note_on_c, 0, 49, 44
3, 174720, Note_on_c, 0, 49, 0
3, 174720, Note_on_c, 0, 50, 47
3, 174840, Note_on_c, 0, 50, 0
3, 174840, Note_on_c, 0, 46, 41
3, 174960, Note_on_c, 0, 46, 0
3, 174960, Note_on_c, 0, 41, 52
3, 174978, Control_c, 0, 64, 0
3, 175046, Control_c, 0, 64, 127
3, 175080, Note_on_c, 0, 41, 0
3, 175080, Note_on_c, 0, 47, 41
3, 175200, Note_on_c, 0, 47, 0
3, 175200, Note_on_c, 0, 48, 44
3, 175320, Note_on_c, 0, 48, 0
3, 175320, Note_on_c, 0, 50, 47
3, 175440, Note_on_c, 0, 50, 0
3, 175440, Note_on_c, 0, 51, 48
3, 175560, Note_on_c, 0, 51, 0
3, 175560, Note_on_c, 0, 41, 41
3, 175680, Note_on_c, 0, 41, 0
3, 175680, Note_on_c, 0, 46, 49
3, 175698, Control_c, 0, 64, 0
3, 175766, Control_c, 0, 64, 127
3, 175800, Note_on_c, 0, 46, 0
3, 175800, Note_on_c, 0, 45, 41
3, 175920, Note_on_c, 0, 45, 0
3, 175920, Note_on_c, 0, 46, 47
3, 176040, Note_on_c, 0, 46, 0
3, 176040, Note_on_c, 0, 49, 40
3, 176160, Note_on_c, 0, 49, 0
3, 176160, Note_on_c, 0, 50, 47
3, 176280, Note_on_c, 0, 50, 0
3, 176280, Note_on_c, 0, 46, 41
3, 176400, Note_on_c, 0, 46, 0
3, 176400, Note_on_c, 0, 39, 44
3, 176414, Control_c, 0, 64, 0
3, 176514, Control_c, 0, 64, 127
3, 176520, Note_on_c, 0, 39, 0
3, 176520, Note_on_c, 0, 45, 41
3, 176640, Note_on_c, 0, 45, 0
3, 176640, Note_on_c, 0, 46, 44
3, 176760, Note_on_c, 0, 46, 0
3, 176760, Note_on_c, 0, 48, 37
3, 176880, Note_on_c, 0, 48, 0
3, 176880, Note_on_c, 0, 51, 41
3, 177000, Note_on_c, 0, 51, 0
3, 177000, Note_on_c, 0, 45, 37
3, 177120, Note_on_c, 0, 45, 0
3, 177120, Note_on_c, 0, 38, 47
3, 177133, Control_c, 0, 64, 0
3, 177206, Control_c, 0, 64, 127
3, 177240, Note_on_c, 0, 38, 0
3, 177240, Note_on_c, 0, 49, 41
3, 177360, Note_on_c, 0, 49, 0
3, 177360, Note_on_c, 0, 50, 47
3, 177369, Control_c, 0, 64, 0
3, 177423, Control_c, 0, 64, 127
3, 177480, Note_on_c, 0, 50, 0
3, 177480, Note_on_c, 0, 44, 41
3, 177600, Note_on_c, 0, 44, 0
3, 177600, Note_on_c, 0, 46, 47
3, 177617, Control_c, 0, 64, 0
3, 177657, Control_c, 0, 64, 127
3, 177720, Note_on_c, 0, 46, 0
3, 177720, Note_on_c, 0, 45, 41
3, 177840, Note_on_c, 0, 45, 0
3, 177840, Note_on_c, 0, 41, 47
3, 177850, Control_c, 0, 64, 0
3, 177892, Control_c, 0, 64, 127
3, 177960, Note_on_c, 0, 41, 0
3, 177960, Note_on_c, 0, 42, 41
3, 178080, Note_on_c, 0, 42, 0
3, 178080, Note_on_c, 0, 37, 47
3, 178091, Control_c, 0, 64, 0
3, 178143, Control_c, 0, 64, 127
3, 178200, Note_on_c, 0, 37, 0
3, 178200, Note_on_c, 0, 38, 41
3, 178320, Note_on_c, 0, 38, 0
3, 178320, Note_on_c, 0, 32, 47
3, 178332, Control_c, 0, 64, 0
3, 178377, Control_c, 0, 64, 127
3, 178440, Note_on_c, 0, 32, 0
3, 178440, Note_on_c, 0, 33, 41
3, 178560, Note_on_c, 0, 33, 0
3, 178560, Note_on_c, 0, 38, 49
3, 178571, Control_c, 0, 64, 0
3, 178760, Control_c, 0, 64, 127
3, 180000, Note_on_c, 0, 38, 0
3, 180000, Note_on_c, 0, 43, 34
3, 180000, Note_on_c, 0, 56, 40
3, 180012, Control_c, 0, 64, 0
3, 180120, Control_c, 0, 64, 127
3, 180736, Control_c, 0, 64, 0
3, 180844, Control_c, 0, 64, 127
3, 181440, Note_on_c, 0, 56, 0
3, 181440, Note_on_c, 0, 43, 0
3, 181440, Note_on_c, 0, 43, 35
3, 181440, Note_on_c, 0, 56, 41
3, 181453, Control_c, 0, 64, 0
3, 181547, Control_c, 0, 64, 127
3, 182155, Note_on_c, 0, 56, 0
3, 182160, Note_on_c, 0, 53, 41
3, 182174, Control_c, 0, 64, 0
3, 182316, Control_c, 0, 64, 127
3, 182520, Note_on_c, 0, 53, 0
3, 182520, Note_on_c, 0, 51, 39
3, 182640, Note_on_c, 0, 51, 0
3, 182640, Note_on_c, 0, 50, 40
3, 182880, Note_on_c, 0, 50, 0
3, 182880, Note_on_c, 0, 43, 0
3, 182880, Note_on_c, 0, 43, 34
3, 182880, Note_on_c, 0, 56, 40
3, 182895, Control_c, 0, 64, 0
3, 182986, Control_c, 0, 64, 127
3, 183619, Control_c, 0, 64, 0
3, 183773, Control_c, 0, 64, 127
3, 184320, Note_on_c, 0, 56, 0
3, 184320, Note_on_c, 0, 43, 0
3, 184320, Note_on_c, 0, 56, 41
3, 184320, Note_on_c, 0, 43, 35
3, 184331, Control_c, 0, 64, 0
3, 184427, Control_c, 0, 64, 127
3, 184980, Note_on_c, 0, 43, 0
3, 184980, Note_on_c, 0, 43, 66
3, 185040, Note_on_c, 0, 56, 0
3, 185040, Note_on_c, 0, 59, 62
3, 185055, Control_c, 0, 64, 0
3, 185105, Control_c, 0, 64, 127
3, 185400, Note_on_c, 0, 59, 0
3, 185400, Note_on_c, 0, 61, 55
3, 185520, Note_on_c, 0, 61, 0
3, 185520, Note_on_c, 0, 62, 57
3, 185760, Note_on_c, 0, 62, 0
3, 185760, Note_on_c, 0, 43, 0
3, 185760, Note_on_c, 0, 36, 69
3, 185772, Control_c, 0, 64, 0
3, 185873, Control_c, 0, 64, 127
3, 185880, Note_on_c, 0, 36, 0
3, 185880, Note_on_c, 0, 43, 61
3, 186000, Note_on_c, 0, 43, 0
3, 186000, Note_on_c, 0, 48, 61
3, 186120, Note_on_c, 0, 48, 0
3, 186120, Note_on_c, 0, 51, 61
3, 186240, Note_on_c, 0, 51, 0
3, 186240, Note_on_c, 0, 55, 69
3, 186360, Note_on_c, 0, 55, 0
3, 186360, Note_on_c, 0, 60, 61
3, 186480, Note_on_c, 0, 60, 0
3, 186480, Note_on_c, 0, 63, 61
3, 186600, Note_on_c, 0, 63, 0
3, 186600, Note_on_c, 0, 67, 61
3, 186720, Note_on_c, 0, 67, 0
3, 186720, Note_on_c, 0, 72, 59
3, 186840, Note_on_c, 0, 72, 0
3, 186840, Note_on_c, 0, 75, 63
3, 186960, Note_on_c, 0, 75, 0
3, 186960, Note_on_c, 0, 79, 68
3, 187080, Note_on_c, 0, 79, 0
3, 187080, Note_on_c, 0, 84, 72
3, 187200, Note_on_c, 0, 84, 0
3, 187200, Note_on_c, 0, 87, 79
3, 187920, Note_on_c, 0, 87, 0
3, 187920, Note_on_c, 0, 60, 53
3, 187936, Control_c, 0, 64, 0
3, 188076, Control_c, 0, 64, 127
3, 188280, Note_on_c, 0, 60, 0
3, 188280, Note_on_c, 0, 58, 51
3, 188400, Note_on_c, 0, 58, 0
3, 188400, Note_on_c, 0, 57, 52
3, 188640, Note_on_c, 0, 57, 0
3, 188640, Note_on_c, 0, 57, 59
3, 188653, Control_c, 0, 64, 0
3, 188779, Control_c, 0, 64, 127
3, 189360, Note_on_c, 0, 57, 0
3, 189360, Note_on_c, 0, 63, 59
3, 189374, Control_c, 0, 64, 0
3, 189543, Control_c, 0, 64, 127
3, 189720, Note_on_c, 0, 63, 0
3, 189720, Note_on_c, 0, 62, 57
3, 189840, Note_on_c, 0, 62, 0
3, 189840, Note_on_c, 0, 60, 57
3, 190080, Note_on_c, 0, 60, 0
3, 190080, Note_on_c, 0, 60, 61
3, 190092, Control_c, 0, 64, 0
3, 190249, Control_c, 0, 64, 127
3, 190795, Note_on_c, 0, 60, 0
3, 190800, Note_on_c, 0, 57, 52
3, 190818, Control_c, 0, 64, 0
3, 190927, Control_c, 0, 64, 127
3, 191520, Note_on_c, 0, 57, 0
3, 191520, Note_on_c, 0, 58, 51
3, 191520, Note_on_c, 0, 50, 51
3, 191536, Control_c, 0, 64, 0
3, 191663, Control_c, 0, 64, 127
3, 191880, Note_on_c, 0, 50, 0
3, 191880, Note_on_c, 0, 49, 41
3, 192000, Note_on_c, 0, 49, 0
3, 192000, Note_on_c, 0, 50, 47
3, 192240, Note_on_c, 0, 50, 0
3, 192240, Note_on_c, 0, 58, 0
3, 192240, Note_on_c, 0, 50, 47
3, 192252, Control_c, 0, 64, 0
3, 192372, Control_c, 0, 64, 127
3, 192960, Note_on_c, 0, 50, 0
3, 192960, Note_on_c, 0, 55, 49
3, 192960, Note_on_c, 0, 50, 49
3, 192970, Control_c, 0, 64, 0
3, 193080, Control_c, 0, 64, 127
3, 193320, Note_on_c, 0, 50, 0
3, 193320, Note_on_c, 0, 49, 41
3, 193440, Note_on_c, 0, 49, 0
3, 193440, Note_on_c, 0, 50, 49
3, 193680, Note_on_c, 0, 50, 0
3, 193680, Note_on_c, 0, 50, 48
3, 193700, Control_c, 0, 64, 0
3, 193817, Control_c, 0, 64, 127
3, 194400, Note_on_c, 0, 50, 0
3, 194400, Note_on_c, 0, 55, 0
3, 194400, Note_on_c, 0, 50, 49
3, 194400, Note_on_c, 0, 58, 49
3, 194410, Control_c, 0, 64, 0
3, 194503, Control_c, 0, 64, 127
3, 194760, Note_on_c, 0, 50, 0
3, 194760, Note_on_c, 0, 49, 41
3, 194880, Note_on_c, 0, 49, 0
3, 194880, Note_on_c, 0, 50, 49
3, 195120, Note_on_c, 0, 50, 0
3, 195120, Note_on_c, 0, 58, 0
3, 195120, Note_on_c, 0, 51, 48
3, 195120, Note_on_c, 0, 58, 48
3, 195128, Control_c, 0, 64, 0
3, 195246, Control_c, 0, 64, 127
3, 195840, Note_on_c, 0, 58, 0
3, 195840, Note_on_c, 0, 51, 0
3, 195840, Note_on_c, 0, 51, 48
3, 195840, Note_on_c, 0, 44, 48
3, 195854, Control_c, 0, 64, 0
3, 195920, Control_c, 0, 64, 127
3, 196560, Note_on_c, 0, 44, 0
3, 196560, Note_on_c, 0, 51, 0
3, 196560, Note_on_c, 0, 50, 48
3, 196571, Control_c, 0, 64, 0
3, 196680, Control_c, 0, 64, 127
3, 197280, Note_on_c, 0, 50, 0
3, 197280, Note_on_c, 0, 43, 49
3, 197280, Note_on_c, 0, 50, 49
3, 197289, Control_c, 0, 64, 0
3, 197400, Control_c, 0, 64, 127
3, 197640, Note_on_c, 0, 50, 0
3, 197640, Note_on_c, 0, 51, 41
3, 197760, Note_on_c, 0, 51, 0
3, 197760, Note_on_c, 0, 50, 49
3, 198000, Note_on_c, 0, 50, 0
3, 198000, Note_on_c, 0, 43, 0
3, 198000, Note_on_c, 0, 50, 48
3, 198017, Control_c, 0, 64, 0
3, 198107, Control_c, 0, 64, 127
3, 198720, Note_on_c, 0, 50, 0
3, 198720, Note_on_c, 0, 43, 51
3, 198720, Note_on_c, 0, 50, 51
3, 198731, Control_c, 0, 64, 0
3, 198868, Control_c, 0, 64, 127
3, 199080, Note_on_c, 0, 50, 0
3, 199080, Note_on_c, 0, 51, 42
3, 199200, Note_on_c, 0, 51, 0
3, 199200, Note_on_c, 0, 50, 51
3, 199440, Note_on_c, 0, 50, 0
3, 199440, Note_on_c, 0, 43, 0
3, 199440, Note_on_c, 0, 50, 50
3, 199457, Control_c, 0, 64, 0
3, 199574, Control_c, 0, 64, 127
3, 200160, Note_on_c, 0, 50, 0
3, 200160, Note_on_c, 0, 50, 51
3, 200160, Note_on_c, 0, 43, 51
3, 200172, Control_c, 0, 64, 0
3, 200267, Control_c, 0, 64, 127
3, 200520, Note_on_c, 0, 50, 0
3, 200520, Note_on_c, 0, 51, 42
3, 200640, Note_on_c, 0, 51, 0
3, 200640, Note_on_c, 0, 50, 51
3, 200880, Note_on_c, 0, 50, 0
3, 200880, Note_on_c, 0, 43, 0
3, 200880, Note_on_c, 0, 50, 50
3, 200897, Control_c, 0, 64, 0
3, 201006, Control_c, 0, 64, 127
3, 201600, Note_on_c, 0, 50, 0
3, 201600, Note_on_c, 0, 50, 51
3, 201600, Note_on_c, 0, 43, 51
3, 201609, Control_c, 0, 64, 0
3, 201731, Control_c, 0, 64, 127
3, 201960, Note_on_c, 0, 50, 0
3, 201960, Note_on_c, 0, 51, 40
3, 202080, Note_on_c, 0, 51, 0
3, 202080, Note_on_c, 0, 50, 49
3, 202320, Note_on_c, 0, 50, 0
3, 202320, Note_on_c, 0, 43, 0
3, 202320, Note_on_c, 0, 50, 47
3, 202320, Note_on_c, 0, 60, 47
3, 202338, Control_c, 0, 64, 0
3, 202413, Control_c, 0, 64, 127
3, 203040, Note_on_c, 0, 60, 0
3, 203040, Note_on_c, 0, 50, 0
3, 203040, Note_on_c, 0, 50, 41
3, 203040, Note_on_c, 0, 43, 41
3, 203082, Control_c, 0, 64, 0
3, 203280, Note_on_c, 0, 43, 0
3, 203280, Note_on_c, 0, 50, 0
3, 203280, Note_on_c, 0, 42, 49
3, 203332, Control_c, 0, 64, 127
3, 203400, Note_on_c, 0, 42, 0
3, 203400, Note_on_c, 0, 43, 49
3, 203520, Note_on_c, 0, 43, 0
3, 203520, Note_on_c, 0, 45, 50
3, 203640, Note_on_c, 0, 45, 0
3, 203640, Note_on_c, 0, 46, 51
3, 203760, Note_on_c, 0, 46, 0
3, 203760, Note_on_c, 0, 49, 52
3, 203880, Note_on_c, 0, 49, 0
3, 203880, Note_on_c, 0, 50, 53
3, 204000, Note_on_c, 0, 50, 0
3, 204000, Note_on_c, 0, 45, 50
3, 204017, Control_c, 0, 64, 0
3, 204069, Control_c, 0, 64, 127
3, 204120, Note_on_c, 0, 45, 0
3, 204120, Note_on_c, 0, 46, 51
3, 204240, Note_on_c, 0, 46, 0
3, 204240, Note_on_c, 0, 49, 51
3, 204360, Note_on_c, 0, 49, 0
3, 204360, Note_on_c, 0, 50, 52
3, 204480, Note_on_c, 0, 50, 0
3, 204480, Note_on_c, 0, 54, 53
3, 204600, Note_on_c, 0, 54, 0
3, 204600, Note_on_c, 0, 55, 56
3, 204720, Note_on_c, 0, 55, 0
3, 204720, Note_on_c, 0, 49, 51
3, 204731, Control_c, 0, 64, 0
3, 204777, Control_c, 0, 64, 127
3, 204840, Note_on_c, 0, 49, 0
3, 204840, Note_on_c, 0, 50, 52
3, 204960, Note_on_c, 0, 50, 0
3, 204960, Note_on_c, 0, 54, 56
3, 205080, Note_on_c, 0, 54, 0
3, 205080, Note_on_c, 0, 55, 57
3, 205200, Note_on_c, 0, 55, 0
3, 205200, Note_on_c, 0, 57, 59
3, 205320, Note_on_c, 0, 57, 0
3, 205320, Note_on_c, 0, 58, 60
3, 205440, Note_on_c, 0, 58, 0
3, 205440, Note_on_c, 0, 54, 56
3, 205451, Control_c, 0, 64, 0
3, 205515, Control_c, 0, 64, 127
3, 205560, Note_on_c, 0, 54, 0
3, 205560, Note_on_c, 0, 55, 58
3, 205680, Note_on_c, 0, 55, 0
3, 205680, Note_on_c, 0, 57, 59
3, 205800, Note_on_c, 0, 57, 0
3, 205800, Note_on_c, 0, 58, 60
3, 205920, Note_on_c, 0, 58, 0
3, 205920, Note_on_c, 0, 61, 61
3, 206040, Note_on_c, 0, 61, 0
3, 206040, Note_on_c, 0, 62, 62
3, 206160, Note_on_c, 0, 62, 0
3, 206160, Note_on_c, 0, 57, 57
3, 206178, Control_c, 0, 64, 0
3, 206229, Control_c, 0, 64, 127
3, 206280, Note_on_c, 0, 57, 0
3, 206280, Note_on_c, 0, 58, 58
3, 206400, Note_on_c, 0, 58, 0
3, 206400, Note_on_c, 0, 61, 60
3, 206520, Note_on_c, 0, 61, 0
3, 206520, Note_on_c, 0, 62, 61
3, 206640, Note_on_c, 0, 62, 0
3, 206640, Note_on_c, 0, 66, 64
3, 206760, Note_on_c, 0, 66, 0
3, 206760, Note_on_c, 0, 67, 66
3, 206880, Note_on_c, 0, 67, 0
3, 206880, Note_on_c, 0, 61, 68
3, 206901, Control_c, 0, 64, 0
3, 206960, Control_c, 0, 64, 127
3, 207000, Note_on_c, 0, 61, 0
3, 207000, Note_on_c, 0, 62, 61
3, 207120, Note_on_c, 0, 62, 0
3, 207120, Note_on_c, 0, 66, 63
3, 207240, Note_on_c, 0, 66, 0
3, 207240, Note_on_c, 0, 67, 65
3, 207360, Note_on_c, 0, 67, 0
3, 207360, Note_on_c, 0, 69, 67
3, 207480, Note_on_c, 0, 69, 0
3, 207480, Note_on_c, 0, 70, 68
3, 207600, Note_on_c, 0, 70, 0
3, 207600, Note_on_c, 0, 66, 70
3, 207621, Control_c, 0, 64, 0
3, 207686, Control_c, 0, 64, 127
3, 207720, Note_on_c, 0, 66, 0
3, 207720, Note_on_c, 0, 67, 62
3, 207840, Note_on_c, 0, 67, 0
3, 207840, Note_on_c, 0, 69, 66
3, 207960, Note_on_c, 0, 69, 0
3, 207960, Note_on_c, 0, 70, 69
3, 208080, Note_on_c, 0, 70, 0
3, 208080, Note_on_c, 0, 73, 72
3, 208200, Note_on_c, 0, 73, 0
3, 208200, Note_on_c, 0, 74, 76
3, 208320, Note_on_c, 0, 74, 0
3, 208320, Note_on_c, 0, 69, 74
3, 208334, Control_c, 0, 64, 0
3, 208389, Control_c, 0, 64, 127
3, 208440, Note_on_c, 0, 69, 0
3, 208440, Note_on_c, 0, 70, 77
3, 208560, Note_on_c, 0, 70, 0
3, 208560, Note_on_c, 0, 73, 81
3, 208680, Note_on_c, 0, 73, 0
3, 208680, Note_on_c, 0, 74, 83
3, 208800, Note_on_c, 0, 74, 0
3, 208800, Note_on_c, 0, 79, 93
3, 208813, Control_c, 0, 64, 0
3, 209067, Control_c, 0, 64, 127
3, 209520, Note_on_c, 0, 79, 0
3, 209520, Note_on_c, 0, 50, 84
3, 209520, Note_on_c, 0, 38, 70
3, 209536, Control_c, 0, 64, 0
3, 209840, Control_c, 0, 64, 127
3, 210240, Note_on_c, 0, 38, 0
3, 210240, Note_on_c, 0, 50, 0
3, 210240, Note_on_c, 0, 43, 84
3, 210240, Note_on_c, 0, 55, 84
3, 210249, Control_c, 0, 64, 0
3, 210454, Control_c, 0, 64, 127
3, 210960, Note_on_c, 0, 55, 0
3, 210960, Note_on_c, 0, 43, 0
3, 210960, Note_on_c, 0, 50, 84
3, 210960, Note_on_c, 0, 38, 70
3, 210973, Control_c, 0, 64, 0
3, 211240, Control_c, 0, 64, 127
3, 211680, Note_on_c, 0, 38, 0
3, 211680, Note_on_c, 0, 50, 0
3, 211680, Note_on_c, 0, 31, 77
3, 211680, Note_on_c, 0, 43, 92
3, 211695, Control_c, 0, 64, 0
3, 211960, Control_c, 0, 64, 127
3, 213120, Note_on_c, 0, 43, 0
3, 213120, Note_on_c, 0, 31, 0
3, 213120, Note_on_c, 0, 70, 93
3, 213120, Note_on_c, 0, 55, 79
3, 213120, Note_on_c, 0, 62, 79
3, 214560, Note_on_c, 0, 62, 0
3, 214560, Note_on_c, 0, 55, 0
3, 214560, Note_on_c, 0, 70, 0
3, 215800, Control_c, 0, 64, 0
3, 215800, End_track
4, 0, Start_track
4, 0, Title_t, "Albeniz :Suite espagnole Cataluna"
4, 0, End_track
5, 0, Start_track
5, 0, Title_t, "Copyright © 2001 by Bernd Krüger"
5, 0, End_track
6, 0, Start_track
6, 0, Title_t, "http://www.piano-midi.de"
6, 0, End_track
7, 0, Start_track
7, 0, Title_t, "Edition: 2010-09-04"
7, 0, End_track
8, 0, Start_track
8, 0, Title_t, "Spur 7"
8, 0, End_track
9, 0, Start_track
9, 0, Title_t, "Spur 8"
9, 0, End_track
0, 0, End_of_file
