0, 0, Header, 1, 8, 480
1, 0, Start_track
1, 0, Title_t, "Espana Op. 165"
1, 0, Title_t, "Serenata"
1, 0, Copyright_t, "Copyright © 2001 by Bernd Krueger"
1, 0, Text_t, "Isaac Albeniz"
1, 0, Text_t, "Allegretto"
1, 0, Text_t, "Fertiggestellt am 17.02.2001\012"
1, 0, Text_t, "Update am 31.8.2010\012"
1, 0, Text_t, "Dauer: 3:14 Minuten\012"
1, 0, SMPTE_offset, 96, 0, 3, 0, 0
1, 0, Time_signature, 3, 2, 24, 8
1, 0, Key_signature, -2, "major"
1, 0, Tempo, 540541
1, 240, Tempo, 530973
1, 1440, Tempo, 521739
1, 1680, Tempo, 524017
1, 1920, Tempo, 521739
1, 2160, Tempo, 528634
1, 2880, Tempo, 519481
1, 3120, Tempo, 521739
1, 3360, Tempo, 530833
1, 3580, Tempo, 526085
1, 3800, Tempo, 528448
1, 4020, Tempo, 530833
1, 4080, Tempo, 548196
1, 4260, Tempo, 535714
1, 4800, Tempo, 535714
1, 4900, Tempo, 538165
1, 5000, Tempo, 540638
1, 5080, Tempo, 543134
1, 5180, Tempo, 545653
1, 5260, Tempo, 548196
1, 5520, Tempo, 572301
1, 5760, Tempo, 558659
1, 6720, Tempo, 533286
1, 7200, Tempo, 521422
1, 7440, Tempo, 540638
1, 7680, Tempo, 528448
1, 8160, Tempo, 521422
1, 8400, Tempo, 543134
1, 8640, Tempo, 519121
1, 8880, Tempo, 528448
1, 9120, Tempo, 528448
1, 9600, Tempo, 519121
1, 9840, Tempo, 528448
1, 10080, Tempo, 530833
1, 10320, Tempo, 540638
1, 11040, Tempo, 533333
1, 11280, Tempo, 548196
1, 11520, Tempo, 533333
1, 12000, Tempo, 543134
1, 12960, Tempo, 533286
1, 13200, Tempo, 523743
1, 13680, Tempo, 533286
1, 14160, Tempo, 540638
1, 14400, Tempo, 533286
1, 14640, Tempo, 524017
1, 14880, Tempo, 521739
1, 15120, Tempo, 533333
1, 15360, Tempo, 528634
1, 15600, Tempo, 535714
1, 16560, Tempo, 545653
1, 17220, Tempo, 526085
1, 17280, Tempo, 540541
1, 17520, Tempo, 528634
1, 18720, Tempo, 519481
1, 18960, Tempo, 519481
1, 19200, Tempo, 528634
1, 19440, Tempo, 530973
1, 19920, Tempo, 543134
1, 20160, Tempo, 528448
1, 20640, Tempo, 538117
1, 21120, Tempo, 542986
1, 21600, Tempo, 528448
1, 21840, Tempo, 523743
1, 22080, Tempo, 528448
1, 22320, Tempo, 533286
1, 22800, Tempo, 540638
1, 23040, Tempo, 535714
1, 23280, Tempo, 523743
1, 23760, Tempo, 533286
1, 24240, Tempo, 540638
1, 24480, Tempo, 523743
1, 24960, Tempo, 523743
1, 25160, Tempo, 526085
1, 25320, Tempo, 528448
1, 25520, Tempo, 530833
1, 25680, Tempo, 533286
1, 25840, Tempo, 535714
1, 26160, Tempo, 533286
1, 27360, Tempo, 514536
1, 27840, Tempo, 533286
1, 28320, Tempo, 528448
1, 28560, Tempo, 540638
1, 28800, Tempo, 533286
1, 29040, Tempo, 523743
1, 29520, Tempo, 533286
1, 30000, Tempo, 540638
1, 30240, Tempo, 533286
1, 30960, Tempo, 540638
1, 31200, Tempo, 535714
1, 31920, Tempo, 523743
1, 32400, Tempo, 530833
1, 32880, Tempo, 540638
1, 33120, Tempo, 526085
1, 33600, Tempo, 530833
1, 33800, Tempo, 533286
1, 34000, Tempo, 535714
1, 34160, Tempo, 538165
1, 34360, Tempo, 540638
1, 34520, Tempo, 543134
1, 34560, Tempo, 533286
1, 34800, Tempo, 523743
1, 35280, Tempo, 533286
1, 35760, Tempo, 540638
1, 36000, Tempo, 533286
1, 36720, Tempo, 540638
1, 36960, Tempo, 535714
1, 37440, Tempo, 586568
1, 37680, Tempo, 523743
1, 38160, Tempo, 530833
1, 38640, Tempo, 540638
1, 38880, Tempo, 526085
1, 39360, Tempo, 530833
1, 39560, Tempo, 533286
1, 39760, Tempo, 535714
1, 39920, Tempo, 538165
1, 40120, Tempo, 540638
1, 40280, Tempo, 543134
1, 41760, Tempo, 533286
1, 42000, Tempo, 523743
1, 42480, Tempo, 533286
1, 42960, Tempo, 540638
1, 43200, Tempo, 526316
1, 43680, Tempo, 519481
1, 43920, Tempo, 530973
1, 44160, Tempo, 524017
1, 44400, Tempo, 535714
1, 45360, Tempo, 545653
1, 46020, Tempo, 526085
1, 46080, Tempo, 540541
1, 46320, Tempo, 530973
1, 47520, Tempo, 521739
1, 48000, Tempo, 526316
1, 48240, Tempo, 528634
1, 48960, Tempo, 517241
1, 49200, Tempo, 530973
1, 49440, Tempo, 530833
1, 49660, Tempo, 526085
1, 49880, Tempo, 528448
1, 50100, Tempo, 530833
1, 50160, Tempo, 548196
1, 50340, Tempo, 535714
1, 50880, Tempo, 535714
1, 50980, Tempo, 538165
1, 51080, Tempo, 540638
1, 51160, Tempo, 543134
1, 51260, Tempo, 545653
1, 51340, Tempo, 548196
1, 51600, Tempo, 572301
1, 51840, Tempo, 558659
1, 52800, Tempo, 533286
1, 53280, Tempo, 521422
1, 53520, Tempo, 533286
1, 53760, Tempo, 533286
1, 54240, Tempo, 521422
1, 54480, Tempo, 543134
1, 54720, Tempo, 521422
1, 54960, Tempo, 528634
1, 55200, Tempo, 528448
1, 55680, Tempo, 523743
1, 55920, Tempo, 533286
1, 56400, Tempo, 540638
1, 56640, Tempo, 547945
1, 57120, Tempo, 550459
1, 57360, Tempo, 571429
1, 57600, Key_signature, 1, "major"
1, 57600, Tempo, 538793
1, 58080, Tempo, 543872
1, 58320, Tempo, 529007
1, 58560, Tempo, 536337
1, 59040, Tempo, 536337
1, 59520, Tempo, 543872
1, 59760, Tempo, 531444
1, 60000, Tempo, 538793
1, 60480, Tempo, 538793
1, 60960, Tempo, 543872
1, 61200, Tempo, 529007
1, 61440, Tempo, 543872
1, 61920, Tempo, 538793
1, 62400, Tempo, 543872
1, 62640, Tempo, 529007
1, 62880, Tempo, 543872
1, 63360, Tempo, 538793
1, 63840, Tempo, 543872
1, 64080, Tempo, 529007
1, 64320, Tempo, 543872
1, 64800, Tempo, 538793
1, 65280, Tempo, 543872
1, 65520, Tempo, 529007
1, 65760, Tempo, 543872
1, 66215, Tempo, 538793
1, 66695, Tempo, 543872
1, 66935, Tempo, 529007
1, 67175, Tempo, 543872
1, 67680, Tempo, 546398
1, 68135, Tempo, 543872
1, 68160, Tempo, 554221
1, 68400, Tempo, 579095
1, 68640, Tempo, 564972
1, 68880, Tempo, 593883
1, 69120, Tempo, 538793
1, 69600, Tempo, 543872
1, 69840, Tempo, 529007
1, 70080, Tempo, 536337
1, 70560, Tempo, 536337
1, 71040, Tempo, 543872
1, 71280, Tempo, 531444
1, 71520, Tempo, 538793
1, 72000, Tempo, 538793
1, 72480, Tempo, 543872
1, 72720, Tempo, 529007
1, 72960, Tempo, 543872
1, 73440, Tempo, 538793
1, 73920, Tempo, 543872
1, 74160, Tempo, 529007
1, 74400, Tempo, 543872
1, 74880, Tempo, 538793
1, 75360, Tempo, 543872
1, 75600, Tempo, 529007
1, 75840, Tempo, 543872
1, 76320, Tempo, 538793
1, 76800, Tempo, 543872
1, 77040, Tempo, 529007
1, 77280, Tempo, 535714
1, 77520, Tempo, 540541
1, 77735, Tempo, 538793
1, 77760, Tempo, 538793
1, 78240, Tempo, 543872
1, 78480, Tempo, 529007
1, 78720, Tempo, 543872
1, 78960, Tempo, 559597
1, 79175, Tempo, 538793
1, 79440, Tempo, 546398
1, 80640, Tempo, 536337
1, 80880, Tempo, 549099
1, 81360, Tempo, 541419
1, 81600, Tempo, 549099
1, 83520, Tempo, 540541
1, 83640, Tempo, 538117
1, 83720, Tempo, 535714
1, 83800, Tempo, 533333
1, 83880, Tempo, 530973
1, 83960, Tempo, 528634
1, 84040, Tempo, 526316
1, 84720, Tempo, 538117
1, 84960, Tempo, 533333
1, 85440, Tempo, 546398
1, 86400, Tempo, 536337
1, 86640, Tempo, 549099
1, 87120, Tempo, 541419
1, 87360, Tempo, 549099
1, 89280, Tempo, 535714
1, 89440, Tempo, 533333
1, 89600, Tempo, 530973
1, 90480, Tempo, 538117
1, 90720, Tempo, 533333
1, 91200, Tempo, 546398
1, 92160, Tempo, 533950
1, 92400, Tempo, 530973
1, 92640, Tempo, 538117
1, 93360, Tempo, 556896
1, 93600, Tempo, 528634
1, 93840, Tempo, 535714
1, 94080, Tempo, 530973
1, 94560, Tempo, 541419
1, 95760, Tempo, 549099
1, 96520, Tempo, 538793
1, 97920, Tempo, 533950
1, 98160, Tempo, 541419
1, 99120, Tempo, 556896
1, 99360, Tempo, 541419
1, 99840, Tempo, 536337
1, 100320, Tempo, 541419
1, 101520, Tempo, 549099
1, 102280, Tempo, 538793
1, 103680, Tempo, 541908
1, 104640, Tempo, 542594
1, 105120, Tempo, 528634
1, 105360, Tempo, 538117
1, 105600, Tempo, 530973
1, 106080, Tempo, 530551
1, 106320, Tempo, 538117
1, 106560, Key_signature, -2, "major"
1, 106560, Tempo, 521739
1, 106800, Tempo, 530973
1, 107040, Tempo, 537683
1, 107520, Tempo, 528169
1, 107760, Tempo, 537683
1, 108000, Tempo, 540103
1, 108240, Tempo, 550055
1, 109200, Tempo, 557776
1, 109440, Tempo, 535714
1, 109920, Tempo, 543134
1, 110880, Tempo, 533286
1, 111120, Tempo, 523743
1, 111600, Tempo, 533286
1, 112080, Tempo, 540638
1, 112320, Tempo, 533286
1, 113040, Tempo, 540638
1, 113280, Tempo, 535714
1, 114480, Tempo, 545653
1, 115140, Tempo, 526085
1, 115200, Tempo, 540541
1, 115440, Tempo, 530973
1, 116640, Tempo, 524017
1, 116880, Tempo, 521739
1, 117120, Tempo, 524017
1, 117360, Tempo, 530973
1, 117840, Tempo, 543134
1, 118080, Tempo, 528448
1, 118560, Tempo, 543134
1, 119520, Tempo, 528448
1, 119760, Tempo, 523743
1, 120000, Tempo, 528448
1, 120240, Tempo, 533286
1, 120720, Tempo, 540638
1, 120960, Tempo, 535714
1, 121200, Tempo, 523743
1, 121680, Tempo, 533286
1, 122160, Tempo, 540638
1, 122400, Tempo, 523743
1, 122880, Tempo, 523743
1, 123080, Tempo, 526085
1, 123240, Tempo, 528448
1, 123440, Tempo, 530833
1, 123600, Tempo, 533286
1, 123760, Tempo, 535714
1, 124080, Tempo, 533286
1, 125280, Tempo, 514536
1, 125760, Tempo, 533286
1, 126240, Tempo, 528448
1, 126480, Tempo, 540638
1, 126720, Tempo, 533286
1, 126960, Tempo, 523743
1, 127440, Tempo, 533286
1, 127920, Tempo, 540638
1, 128160, Tempo, 533286
1, 128880, Tempo, 540638
1, 129120, Tempo, 535714
1, 129840, Tempo, 523743
1, 130320, Tempo, 530833
1, 130800, Tempo, 540638
1, 131040, Tempo, 526085
1, 131520, Tempo, 530833
1, 131720, Tempo, 533286
1, 131920, Tempo, 535714
1, 132080, Tempo, 538165
1, 132280, Tempo, 540638
1, 132440, Tempo, 543134
1, 132480, Tempo, 533286
1, 132720, Tempo, 523743
1, 133200, Tempo, 533286
1, 133680, Tempo, 540638
1, 133920, Tempo, 533286
1, 134640, Tempo, 540638
1, 134880, Tempo, 535714
1, 135360, Tempo, 586568
1, 135600, Tempo, 523743
1, 136080, Tempo, 530833
1, 136560, Tempo, 540638
1, 136800, Tempo, 526085
1, 137280, Tempo, 530833
1, 137480, Tempo, 533286
1, 137680, Tempo, 535714
1, 137840, Tempo, 538165
1, 138040, Tempo, 540638
1, 138200, Tempo, 543134
1, 139680, Tempo, 533286
1, 139920, Tempo, 523743
1, 140400, Tempo, 533286
1, 140880, Tempo, 540638
1, 141120, Tempo, 528634
1, 141840, Tempo, 540638
1, 142080, Tempo, 528634
1, 142320, Tempo, 535714
1, 143280, Tempo, 545653
1, 143940, Tempo, 526085
1, 144000, Tempo, 538117
1, 144240, Tempo, 530973
1, 145440, Tempo, 517241
1, 145680, Tempo, 519481
1, 145920, Tempo, 524017
1, 146160, Tempo, 530973
1, 146880, Tempo, 517241
1, 147120, Tempo, 533333
1, 147360, Tempo, 530833
1, 147580, Tempo, 526085
1, 147800, Tempo, 528448
1, 148020, Tempo, 530833
1, 148080, Tempo, 548196
1, 148260, Tempo, 535714
1, 148800, Tempo, 535714
1, 148900, Tempo, 538165
1, 149000, Tempo, 540638
1, 149080, Tempo, 543134
1, 149180, Tempo, 545653
1, 149260, Tempo, 548196
1, 149520, Tempo, 572301
1, 149760, Tempo, 558659
1, 150720, Tempo, 533286
1, 151200, Tempo, 521422
1, 151440, Tempo, 533286
1, 151680, Tempo, 533286
1, 152160, Tempo, 521422
1, 152400, Tempo, 533333
1, 152640, Tempo, 524017
1, 152880, Tempo, 530973
1, 153120, Tempo, 528448
1, 153600, Tempo, 523743
1, 153840, Tempo, 533286
1, 154320, Tempo, 540638
1, 154560, Tempo, 547945
1, 155040, Tempo, 550459
1, 155280, Tempo, 571429
1, 155520, Tempo, 555556
1, 156000, Tempo, 579710
1, 156240, Tempo, 566038
1, 156480, Tempo, 558140
1, 156960, Tempo, 552995
1, 157440, Tempo, 558140
1, 157920, Tempo, 571429
1, 158160, Tempo, 588235
1, 158400, Tempo, 560748
1, 158880, Tempo, 582524
1, 159120, Tempo, 568720
1, 159360, Tempo, 560748
1, 159600, Tempo, 588235
1, 159840, Tempo, 571429
1, 160320, Tempo, 563380
1, 160360, Tempo, 563380
1, 160480, Tempo, 566038
1, 160560, Tempo, 568720
1, 160640, Tempo, 571429
1, 160720, Tempo, 574163
1, 160800, Tempo, 579710
1, 160840, Tempo, 582524
1, 160880, Tempo, 585366
1, 160920, Tempo, 588235
1, 160960, Tempo, 591133
1, 161000, Tempo, 594059
1, 161040, Tempo, 597015
1, 161080, Tempo, 600000
1, 161120, Tempo, 645161
1, 161280, Tempo, 571429
1, 161760, Tempo, 597015
1, 162000, Tempo, 576923
1, 162240, Tempo, 571429
1, 162480, Tempo, 588235
1, 162720, Tempo, 576923
1, 163200, Tempo, 591133
1, 163440, Tempo, 579710
1, 163680, Tempo, 576923
1, 163920, Tempo, 612245
1, 164160, Tempo, 594059
1, 164640, Tempo, 631579
1, 164880, Tempo, 612245
1, 165120, Tempo, 659341
1, 165360, Tempo, 736196
1, 167040, Tempo, 857143
1, 168480, Tempo, 666667
1, 168480, End_track
2, 0, Start_track
2, 0, Title_t, "Piano right"
2, 0, Program_c, 0, 0
2, 0, Control_c, 0, 7, 100
2, 0, Control_c, 0, 10, 64
2, 0, Note_on_c, 0, 79, 60
2, 0, Text_t, "bdca426d104a26ac9dcb070447587523"
2, 0, Control_c, 0, 91, 127
2, 0, Control_c, 0, 64, 0
2, 120, Note_on_c, 0, 79, 0
2, 240, Note_on_c, 0, 74, 57
2, 360, Note_on_c, 0, 74, 0
2, 480, Note_on_c, 0, 75, 60
2, 600, Note_on_c, 0, 75, 0
2, 720, Note_on_c, 0, 79, 57
2, 840, Note_on_c, 0, 79, 0
2, 960, Note_on_c, 0, 78, 64
2, 1080, Note_on_c, 0, 78, 0
2, 1200, Note_on_c, 0, 81, 59
2, 1320, Note_on_c, 0, 81, 0
2, 1440, Note_on_c, 0, 79, 64
2, 1520, Note_on_c, 0, 79, 0
2, 1520, Note_on_c, 0, 81, 54
2, 1600, Note_on_c, 0, 81, 0
2, 1600, Note_on_c, 0, 79, 54
2, 1680, Note_on_c, 0, 79, 0
2, 1680, Note_on_c, 0, 78, 58
2, 1800, Note_on_c, 0, 78, 0
2, 1920, Note_on_c, 0, 79, 63
2, 2040, Note_on_c, 0, 79, 0
2, 2160, Note_on_c, 0, 82, 60
2, 2280, Note_on_c, 0, 82, 0
2, 2400, Note_on_c, 0, 81, 63
2, 2400, Note_on_c, 0, 74, 63
2, 2520, Note_on_c, 0, 74, 0
2, 2520, Note_on_c, 0, 81, 0
2, 2640, Note_on_c, 0, 84, 60
2, 2760, Note_on_c, 0, 84, 0
2, 2880, Note_on_c, 0, 82, 64
2, 3000, Note_on_c, 0, 82, 0
2, 3120, Note_on_c, 0, 89, 63
2, 3120, Note_on_c, 0, 80, 63
2, 3120, Note_on_c, 0, 86, 63
2, 3240, Note_on_c, 0, 86, 0
2, 3240, Note_on_c, 0, 80, 0
2, 3240, Note_on_c, 0, 89, 0
2, 3360, Note_on_c, 0, 88, 61
2, 3360, Note_on_c, 0, 79, 61
2, 3360, Note_on_c, 0, 84, 61
2, 3480, Note_on_c, 0, 84, 0
2, 3480, Note_on_c, 0, 79, 0
2, 3480, Note_on_c, 0, 88, 0
2, 3600, Note_on_c, 0, 78, 60
2, 3600, Note_on_c, 0, 87, 60
2, 3600, Note_on_c, 0, 84, 60
2, 3720, Note_on_c, 0, 84, 0
2, 3720, Note_on_c, 0, 87, 0
2, 3720, Note_on_c, 0, 78, 0
2, 3840, Note_on_c, 0, 79, 58
2, 3840, Note_on_c, 0, 86, 58
2, 3960, Note_on_c, 0, 86, 0
2, 3960, Note_on_c, 0, 79, 0
2, 4080, Note_on_c, 0, 74, 57
2, 4080, Note_on_c, 0, 81, 57
2, 4080, Note_on_c, 0, 84, 57
2, 4200, Note_on_c, 0, 84, 0
2, 4200, Note_on_c, 0, 81, 0
2, 4200, Note_on_c, 0, 74, 0
2, 4320, Note_on_c, 0, 79, 59
2, 4320, Note_on_c, 0, 74, 59
2, 4320, Note_on_c, 0, 82, 65
2, 4560, Note_on_c, 0, 82, 0
2, 4560, Note_on_c, 0, 74, 0
2, 4560, Note_on_c, 0, 79, 0
2, 4560, Note_on_c, 0, 71, 60
2, 4560, Note_on_c, 0, 80, 60
2, 4800, Note_on_c, 0, 80, 0
2, 4800, Note_on_c, 0, 71, 0
2, 4800, Note_on_c, 0, 79, 57
2, 4800, Note_on_c, 0, 72, 57
2, 5040, Note_on_c, 0, 72, 0
2, 5040, Note_on_c, 0, 73, 60
2, 5280, Note_on_c, 0, 73, 0
2, 5280, Note_on_c, 0, 74, 62
2, 5520, Note_on_c, 0, 74, 0
2, 5520, Note_on_c, 0, 79, 0
2, 5520, Note_on_c, 0, 79, 67
2, 5520, Note_on_c, 0, 75, 67
2, 5520, Note_on_c, 0, 82, 67
2, 5760, Note_on_c, 0, 82, 0
2, 5760, Note_on_c, 0, 75, 0
2, 5760, Note_on_c, 0, 79, 0
2, 5760, Note_on_c, 0, 79, 70
2, 5760, Note_on_c, 0, 70, 70
2, 5760, Note_on_c, 0, 74, 70
2, 5760, Note_on_c, 0, 82, 70
2, 6720, Note_on_c, 0, 82, 0
2, 6720, Note_on_c, 0, 79, 0
2, 6720, Note_on_c, 0, 70, 0
2, 6720, Note_on_c, 0, 74, 0
2, 6720, Note_on_c, 0, 70, 67
2, 6720, Note_on_c, 0, 74, 67
2, 7200, Note_on_c, 0, 74, 0
2, 7200, Note_on_c, 0, 70, 0
2, 7200, Note_on_c, 0, 72, 61
2, 7200, Note_on_c, 0, 69, 61
2, 7320, Note_on_c, 0, 69, 0
2, 7320, Note_on_c, 0, 72, 0
2, 7440, Note_on_c, 0, 72, 64
2, 7440, Note_on_c, 0, 75, 64
2, 7560, Note_on_c, 0, 75, 0
2, 7560, Note_on_c, 0, 72, 0
2, 7680, Note_on_c, 0, 77, 69
2, 7680, Note_on_c, 0, 81, 69
2, 7920, Note_on_c, 0, 81, 0
2, 7920, Note_on_c, 0, 77, 0
2, 8160, Note_on_c, 0, 74, 70
2, 8160, Note_on_c, 0, 77, 70
2, 8280, Note_on_c, 0, 77, 0
2, 8280, Note_on_c, 0, 74, 0
2, 8400, Note_on_c, 0, 70, 65
2, 8400, Note_on_c, 0, 74, 65
2, 8520, Note_on_c, 0, 74, 0
2, 8520, Note_on_c, 0, 70, 0
2, 8640, Note_on_c, 0, 70, 68
2, 8640, Note_on_c, 0, 67, 68
2, 8760, Note_on_c, 0, 67, 0
2, 8760, Note_on_c, 0, 70, 0
2, 8880, Note_on_c, 0, 79, 63
2, 8880, Note_on_c, 0, 75, 63
2, 9000, Note_on_c, 0, 75, 0
2, 9000, Note_on_c, 0, 79, 0
2, 9120, Note_on_c, 0, 75, 67
2, 9120, Note_on_c, 0, 72, 67
2, 9240, Note_on_c, 0, 72, 0
2, 9240, Note_on_c, 0, 75, 0
2, 9360, Note_on_c, 0, 69, 63
2, 9360, Note_on_c, 0, 72, 63
2, 9480, Note_on_c, 0, 72, 0
2, 9480, Note_on_c, 0, 69, 0
2, 9600, Note_on_c, 0, 69, 67
2, 9600, Note_on_c, 0, 66, 67
2, 9720, Note_on_c, 0, 66, 0
2, 9720, Note_on_c, 0, 69, 0
2, 9840, Note_on_c, 0, 74, 64
2, 9840, Note_on_c, 0, 77, 64
2, 9960, Note_on_c, 0, 77, 0
2, 9960, Note_on_c, 0, 74, 0
2, 10080, Note_on_c, 0, 70, 70
2, 10080, Note_on_c, 0, 74, 70
2, 10200, Note_on_c, 0, 74, 0
2, 10200, Note_on_c, 0, 70, 0
2, 10320, Note_on_c, 0, 67, 66
2, 10320, Note_on_c, 0, 70, 66
2, 10440, Note_on_c, 0, 70, 0
2, 10440, Note_on_c, 0, 67, 0
2, 10560, Note_on_c, 0, 63, 69
2, 10560, Note_on_c, 0, 67, 69
2, 10800, Note_on_c, 0, 67, 0
2, 10800, Note_on_c, 0, 70, 63
2, 11040, Note_on_c, 0, 70, 0
2, 11040, Note_on_c, 0, 63, 0
2, 11040, Note_on_c, 0, 66, 56
2, 11040, Note_on_c, 0, 69, 65
2, 11040, Note_on_c, 0, 60, 55
2, 11280, Note_on_c, 0, 69, 0
2, 11280, Note_on_c, 0, 74, 56
2, 11520, Note_on_c, 0, 74, 0
2, 11520, Note_on_c, 0, 60, 0
2, 11520, Note_on_c, 0, 66, 0
2, 11520, Note_on_c, 0, 74, 68
2, 12960, Note_on_c, 0, 74, 0
2, 13200, Note_on_c, 0, 72, 64
2, 13280, Note_on_c, 0, 72, 0
2, 13280, Note_on_c, 0, 74, 61
2, 13360, Note_on_c, 0, 74, 0
2, 13360, Note_on_c, 0, 72, 61
2, 13440, Note_on_c, 0, 72, 0
2, 13440, Note_on_c, 0, 71, 64
2, 13680, Note_on_c, 0, 71, 0
2, 13680, Note_on_c, 0, 72, 61
2, 13920, Note_on_c, 0, 72, 0
2, 13920, Note_on_c, 0, 74, 64
2, 14160, Note_on_c, 0, 74, 0
2, 14160, Note_on_c, 0, 75, 62
2, 14400, Note_on_c, 0, 75, 0
2, 14400, Note_on_c, 0, 70, 61
2, 14400, Note_on_c, 0, 67, 61
2, 14640, Note_on_c, 0, 67, 0
2, 14640, Note_on_c, 0, 70, 0
2, 14640, Note_on_c, 0, 72, 63
2, 14880, Note_on_c, 0, 72, 0
2, 14880, Note_on_c, 0, 73, 66
2, 15120, Note_on_c, 0, 73, 0
2, 15120, Note_on_c, 0, 74, 69
2, 15360, Note_on_c, 0, 74, 0
2, 15360, Note_on_c, 0, 79, 70
2, 15600, Note_on_c, 0, 79, 0
2, 15600, Note_on_c, 0, 74, 66
2, 15840, Note_on_c, 0, 74, 0
2, 15840, Note_on_c, 0, 70, 68
2, 15840, Note_on_c, 0, 66, 68
2, 16800, Note_on_c, 0, 66, 0
2, 16800, Note_on_c, 0, 70, 0
2, 16800, Note_on_c, 0, 69, 68
2, 17220, Note_on_c, 0, 69, 0
2, 17220, Note_on_c, 0, 67, 55
2, 17250, Note_on_c, 0, 74, 56
2, 17280, Note_on_c, 0, 79, 60
2, 17520, Note_on_c, 0, 79, 0
2, 17520, Note_on_c, 0, 74, 0
2, 17520, Note_on_c, 0, 67, 0
2, 17520, Note_on_c, 0, 74, 57
2, 17640, Note_on_c, 0, 74, 0
2, 17760, Note_on_c, 0, 75, 60
2, 17880, Note_on_c, 0, 75, 0
2, 18000, Note_on_c, 0, 79, 57
2, 18120, Note_on_c, 0, 79, 0
2, 18240, Note_on_c, 0, 78, 64
2, 18360, Note_on_c, 0, 78, 0
2, 18480, Note_on_c, 0, 81, 59
2, 18600, Note_on_c, 0, 81, 0
2, 18720, Note_on_c, 0, 79, 64
2, 18800, Note_on_c, 0, 79, 0
2, 18800, Note_on_c, 0, 81, 54
2, 18880, Note_on_c, 0, 81, 0
2, 18880, Note_on_c, 0, 79, 54
2, 18960, Note_on_c, 0, 79, 0
2, 18960, Note_on_c, 0, 78, 59
2, 19080, Note_on_c, 0, 78, 0
2, 19200, Note_on_c, 0, 79, 66
2, 19320, Note_on_c, 0, 79, 0
2, 19440, Note_on_c, 0, 82, 64
2, 19560, Note_on_c, 0, 82, 0
2, 19680, Note_on_c, 0, 81, 69
2, 19680, Note_on_c, 0, 74, 61
2, 19800, Note_on_c, 0, 74, 0
2, 19800, Note_on_c, 0, 81, 0
2, 19920, Note_on_c, 0, 86, 71
2, 20040, Note_on_c, 0, 86, 0
2, 20160, Note_on_c, 0, 77, 68
2, 21120, Note_on_c, 0, 77, 0
2, 21120, Note_on_c, 0, 75, 68
2, 21600, Note_on_c, 0, 75, 0
2, 21600, Note_on_c, 0, 74, 64
2, 21680, Note_on_c, 0, 74, 0
2, 21680, Note_on_c, 0, 75, 55
2, 21760, Note_on_c, 0, 75, 0
2, 21760, Note_on_c, 0, 74, 55
2, 21840, Note_on_c, 0, 74, 0
2, 21840, Note_on_c, 0, 72, 59
2, 22080, Note_on_c, 0, 72, 0
2, 22080, Note_on_c, 0, 71, 64
2, 22320, Note_on_c, 0, 71, 0
2, 22320, Note_on_c, 0, 72, 58
2, 22560, Note_on_c, 0, 72, 0
2, 22560, Note_on_c, 0, 74, 64
2, 22800, Note_on_c, 0, 74, 0
2, 22800, Note_on_c, 0, 75, 58
2, 23040, Note_on_c, 0, 75, 0
2, 23040, Note_on_c, 0, 74, 69
2, 24000, Note_on_c, 0, 74, 0
2, 24000, Note_on_c, 0, 68, 47
2, 24000, Note_on_c, 0, 73, 59
2, 24240, Note_on_c, 0, 73, 0
2, 24240, Note_on_c, 0, 74, 56
2, 24480, Note_on_c, 0, 74, 0
2, 24480, Note_on_c, 0, 68, 0
2, 24480, Note_on_c, 0, 67, 46
2, 24480, Note_on_c, 0, 77, 59
2, 24720, Note_on_c, 0, 77, 0
2, 24720, Note_on_c, 0, 75, 57
2, 24960, Note_on_c, 0, 75, 0
2, 24960, Note_on_c, 0, 74, 64
2, 25200, Note_on_c, 0, 74, 0
2, 25200, Note_on_c, 0, 75, 61
2, 25440, Note_on_c, 0, 75, 0
2, 25440, Note_on_c, 0, 72, 69
2, 25680, Note_on_c, 0, 72, 0
2, 25680, Note_on_c, 0, 67, 66
2, 25920, Note_on_c, 0, 67, 0
2, 25920, Note_on_c, 0, 67, 0
2, 25920, Note_on_c, 0, 70, 64
2, 25920, Note_on_c, 0, 65, 63
2, 25920, Note_on_c, 0, 74, 70
2, 26160, Note_on_c, 0, 74, 0
2, 26160, Note_on_c, 0, 65, 0
2, 26160, Note_on_c, 0, 70, 0
2, 26160, Note_on_c, 0, 77, 57
2, 26280, Note_on_c, 0, 77, 0
2, 26400, Note_on_c, 0, 78, 60
2, 26520, Note_on_c, 0, 78, 0
2, 26640, Note_on_c, 0, 82, 57
2, 26760, Note_on_c, 0, 82, 0
2, 26880, Note_on_c, 0, 81, 64
2, 27000, Note_on_c, 0, 81, 0
2, 27120, Note_on_c, 0, 84, 59
2, 27240, Note_on_c, 0, 84, 0
2, 27360, Note_on_c, 0, 82, 64
2, 27440, Note_on_c, 0, 82, 0
2, 27440, Note_on_c, 0, 84, 54
2, 27520, Note_on_c, 0, 84, 0
2, 27520, Note_on_c, 0, 82, 54
2, 27600, Note_on_c, 0, 82, 0
2, 27600, Note_on_c, 0, 81, 58
2, 27720, Note_on_c, 0, 81, 0
2, 27840, Note_on_c, 0, 82, 63
2, 27960, Note_on_c, 0, 82, 0
2, 28080, Note_on_c, 0, 86, 63
2, 28200, Note_on_c, 0, 86, 0
2, 28320, Note_on_c, 0, 84, 63
2, 28320, Note_on_c, 0, 77, 58
2, 28440, Note_on_c, 0, 77, 0
2, 28440, Note_on_c, 0, 84, 0
2, 28560, Note_on_c, 0, 89, 60
2, 28680, Note_on_c, 0, 89, 0
2, 29040, Note_on_c, 0, 70, 64
2, 29280, Note_on_c, 0, 70, 0
2, 29280, Note_on_c, 0, 72, 64
2, 29520, Note_on_c, 0, 72, 0
2, 29520, Note_on_c, 0, 74, 61
2, 29760, Note_on_c, 0, 74, 0
2, 29760, Note_on_c, 0, 77, 64
2, 30000, Note_on_c, 0, 77, 0
2, 30000, Note_on_c, 0, 75, 62
2, 30240, Note_on_c, 0, 75, 0
2, 30240, Note_on_c, 0, 74, 61
2, 30320, Note_on_c, 0, 74, 0
2, 30320, Note_on_c, 0, 75, 56
2, 30400, Note_on_c, 0, 75, 0
2, 30400, Note_on_c, 0, 74, 55
2, 30480, Note_on_c, 0, 74, 0
2, 30480, Note_on_c, 0, 71, 59
2, 30720, Note_on_c, 0, 71, 0
2, 30720, Note_on_c, 0, 70, 63
2, 30960, Note_on_c, 0, 70, 0
2, 30960, Note_on_c, 0, 68, 57
2, 31200, Note_on_c, 0, 68, 0
2, 31200, Note_on_c, 0, 66, 65
2, 31440, Note_on_c, 0, 66, 0
2, 31440, Note_on_c, 0, 70, 58
2, 31620, Note_on_c, 0, 70, 0
2, 31620, Note_on_c, 0, 70, 60
2, 31680, Note_on_c, 0, 70, 0
2, 31680, Note_on_c, 0, 65, 65
2, 32640, Note_on_c, 0, 65, 0
2, 32640, Note_on_c, 0, 68, 56
2, 32640, Note_on_c, 0, 70, 56
2, 33120, Note_on_c, 0, 70, 0
2, 33120, Note_on_c, 0, 68, 0
2, 33120, Note_on_c, 0, 70, 57
2, 33120, Note_on_c, 0, 66, 41
2, 34080, Note_on_c, 0, 66, 0
2, 34080, Note_on_c, 0, 70, 0
2, 34080, Note_on_c, 0, 69, 67
2, 34320, Note_on_c, 0, 69, 0
2, 34320, Note_on_c, 0, 75, 64
2, 34560, Note_on_c, 0, 75, 0
2, 34800, Note_on_c, 0, 70, 64
2, 35040, Note_on_c, 0, 70, 0
2, 35040, Note_on_c, 0, 71, 64
2, 35280, Note_on_c, 0, 71, 0
2, 35280, Note_on_c, 0, 74, 61
2, 35520, Note_on_c, 0, 74, 0
2, 35520, Note_on_c, 0, 77, 67
2, 35760, Note_on_c, 0, 77, 0
2, 35760, Note_on_c, 0, 78, 67
2, 36000, Note_on_c, 0, 78, 0
2, 36000, Note_on_c, 0, 77, 61
2, 36000, Note_on_c, 0, 70, 41
2, 36080, Note_on_c, 0, 77, 0
2, 36080, Note_on_c, 0, 78, 51
2, 36160, Note_on_c, 0, 78, 0
2, 36160, Note_on_c, 0, 77, 51
2, 36240, Note_on_c, 0, 77, 0
2, 36240, Note_on_c, 0, 70, 0
2, 36240, Note_on_c, 0, 75, 54
2, 36480, Note_on_c, 0, 75, 0
2, 36480, Note_on_c, 0, 71, 65
2, 36720, Note_on_c, 0, 71, 0
2, 36720, Note_on_c, 0, 70, 58
2, 36960, Note_on_c, 0, 70, 0
2, 36960, Note_on_c, 0, 66, 65
2, 37200, Note_on_c, 0, 66, 0
2, 37200, Note_on_c, 0, 70, 58
2, 37380, Note_on_c, 0, 70, 0
2, 37380, Note_on_c, 0, 70, 60
2, 37440, Note_on_c, 0, 70, 0
2, 37440, Note_on_c, 0, 65, 63
2, 38400, Note_on_c, 0, 65, 0
2, 38400, Note_on_c, 0, 68, 56
2, 38400, Note_on_c, 0, 70, 56
2, 38880, Note_on_c, 0, 70, 0
2, 38880, Note_on_c, 0, 68, 0
2, 38880, Note_on_c, 0, 66, 48
2, 38880, Note_on_c, 0, 70, 65
2, 39838, Note_on_c, 0, 66, 0
2, 39840, Note_on_c, 0, 70, 0
2, 39840, Note_on_c, 0, 69, 67
2, 40080, Note_on_c, 0, 69, 0
2, 40080, Note_on_c, 0, 75, 64
2, 40320, Note_on_c, 0, 75, 0
2, 40320, Note_on_c, 0, 74, 64
2, 41280, Note_on_c, 0, 74, 0
2, 42000, Note_on_c, 0, 72, 64
2, 42080, Note_on_c, 0, 72, 0
2, 42080, Note_on_c, 0, 74, 54
2, 42160, Note_on_c, 0, 74, 0
2, 42160, Note_on_c, 0, 72, 54
2, 42240, Note_on_c, 0, 72, 0
2, 42240, Note_on_c, 0, 71, 58
2, 42480, Note_on_c, 0, 71, 0
2, 42480, Note_on_c, 0, 72, 61
2, 42720, Note_on_c, 0, 72, 0
2, 42720, Note_on_c, 0, 74, 64
2, 42960, Note_on_c, 0, 74, 0
2, 42960, Note_on_c, 0, 75, 62
2, 43200, Note_on_c, 0, 75, 0
2, 43200, Note_on_c, 0, 67, 61
2, 43200, Note_on_c, 0, 70, 61
2, 43440, Note_on_c, 0, 70, 0
2, 43440, Note_on_c, 0, 67, 0
2, 43440, Note_on_c, 0, 72, 63
2, 43680, Note_on_c, 0, 72, 0
2, 43680, Note_on_c, 0, 73, 66
2, 43920, Note_on_c, 0, 73, 0
2, 43920, Note_on_c, 0, 74, 69
2, 44160, Note_on_c, 0, 74, 0
2, 44160, Note_on_c, 0, 79, 70
2, 44400, Note_on_c, 0, 79, 0
2, 44400, Note_on_c, 0, 74, 66
2, 44640, Note_on_c, 0, 74, 0
2, 44640, Note_on_c, 0, 70, 68
2, 44640, Note_on_c, 0, 66, 59
2, 45600, Note_on_c, 0, 66, 0
2, 45600, Note_on_c, 0, 70, 0
2, 45600, Note_on_c, 0, 69, 65
2, 46020, Note_on_c, 0, 69, 0
2, 46020, Note_on_c, 0, 67, 55
2, 46050, Note_on_c, 0, 74, 56
2, 46080, Note_on_c, 0, 79, 60
2, 46320, Note_on_c, 0, 79, 0
2, 46320, Note_on_c, 0, 74, 0
2, 46320, Note_on_c, 0, 67, 0
2, 46320, Note_on_c, 0, 74, 57
2, 46440, Note_on_c, 0, 74, 0
2, 46560, Note_on_c, 0, 75, 60
2, 46680, Note_on_c, 0, 75, 0
2, 46800, Note_on_c, 0, 79, 57
2, 46920, Note_on_c, 0, 79, 0
2, 47040, Note_on_c, 0, 78, 64
2, 47160, Note_on_c, 0, 78, 0
2, 47280, Note_on_c, 0, 81, 59
2, 47400, Note_on_c, 0, 81, 0
2, 47520, Note_on_c, 0, 79, 64
2, 47600, Note_on_c, 0, 79, 0
2, 47600, Note_on_c, 0, 81, 54
2, 47680, Note_on_c, 0, 81, 0
2, 47680, Note_on_c, 0, 79, 54
2, 47760, Note_on_c, 0, 79, 0
2, 47760, Note_on_c, 0, 78, 58
2, 47880, Note_on_c, 0, 78, 0
2, 48000, Note_on_c, 0, 79, 63
2, 48120, Note_on_c, 0, 79, 0
2, 48240, Note_on_c, 0, 82, 60
2, 48360, Note_on_c, 0, 82, 0
2, 48480, Note_on_c, 0, 74, 63
2, 48480, Note_on_c, 0, 81, 63
2, 48600, Note_on_c, 0, 81, 0
2, 48600, Note_on_c, 0, 74, 0
2, 48720, Note_on_c, 0, 84, 60
2, 48840, Note_on_c, 0, 84, 0
2, 48960, Note_on_c, 0, 82, 64
2, 49080, Note_on_c, 0, 82, 0
2, 49200, Note_on_c, 0, 80, 63
2, 49200, Note_on_c, 0, 89, 63
2, 49200, Note_on_c, 0, 86, 63
2, 49320, Note_on_c, 0, 86, 0
2, 49320, Note_on_c, 0, 89, 0
2, 49320, Note_on_c, 0, 80, 0
2, 49440, Note_on_c, 0, 84, 61
2, 49440, Note_on_c, 0, 79, 61
2, 49440, Note_on_c, 0, 88, 61
2, 49560, Note_on_c, 0, 88, 0
2, 49560, Note_on_c, 0, 79, 0
2, 49560, Note_on_c, 0, 84, 0
2, 49680, Note_on_c, 0, 84, 60
2, 49680, Note_on_c, 0, 78, 60
2, 49680, Note_on_c, 0, 87, 60
2, 49800, Note_on_c, 0, 87, 0
2, 49800, Note_on_c, 0, 78, 0
2, 49800, Note_on_c, 0, 84, 0
2, 49920, Note_on_c, 0, 86, 58
2, 49920, Note_on_c, 0, 79, 58
2, 50040, Note_on_c, 0, 79, 0
2, 50040, Note_on_c, 0, 86, 0
2, 50160, Note_on_c, 0, 84, 57
2, 50160, Note_on_c, 0, 74, 57
2, 50160, Note_on_c, 0, 81, 57
2, 50280, Note_on_c, 0, 81, 0
2, 50280, Note_on_c, 0, 74, 0
2, 50280, Note_on_c, 0, 84, 0
2, 50400, Note_on_c, 0, 74, 65
2, 50400, Note_on_c, 0, 82, 65
2, 50400, Note_on_c, 0, 79, 65
2, 50640, Note_on_c, 0, 79, 0
2, 50640, Note_on_c, 0, 82, 0
2, 50640, Note_on_c, 0, 74, 0
2, 50640, Note_on_c, 0, 80, 60
2, 50640, Note_on_c, 0, 71, 60
2, 50880, Note_on_c, 0, 71, 0
2, 50880, Note_on_c, 0, 80, 0
2, 50880, Note_on_c, 0, 79, 57
2, 50880, Note_on_c, 0, 72, 57
2, 51120, Note_on_c, 0, 72, 0
2, 51120, Note_on_c, 0, 73, 60
2, 51360, Note_on_c, 0, 73, 0
2, 51360, Note_on_c, 0, 74, 62
2, 51600, Note_on_c, 0, 74, 0
2, 51600, Note_on_c, 0, 79, 0
2, 51600, Note_on_c, 0, 82, 67
2, 51600, Note_on_c, 0, 75, 67
2, 51600, Note_on_c, 0, 79, 67
2, 51840, Note_on_c, 0, 79, 0
2, 51840, Note_on_c, 0, 75, 0
2, 51840, Note_on_c, 0, 82, 0
2, 51840, Note_on_c, 0, 74, 70
2, 51840, Note_on_c, 0, 70, 70
2, 51840, Note_on_c, 0, 79, 70
2, 51840, Note_on_c, 0, 82, 70
2, 52800, Note_on_c, 0, 82, 0
2, 52800, Note_on_c, 0, 74, 0
2, 52800, Note_on_c, 0, 70, 0
2, 52800, Note_on_c, 0, 79, 0
2, 52800, Note_on_c, 0, 74, 68
2, 52800, Note_on_c, 0, 70, 68
2, 53280, Note_on_c, 0, 70, 0
2, 53280, Note_on_c, 0, 74, 0
2, 53280, Note_on_c, 0, 72, 61
2, 53280, Note_on_c, 0, 69, 61
2, 53400, Note_on_c, 0, 69, 0
2, 53400, Note_on_c, 0, 72, 0
2, 53520, Note_on_c, 0, 75, 66
2, 53520, Note_on_c, 0, 72, 66
2, 53640, Note_on_c, 0, 72, 0
2, 53640, Note_on_c, 0, 75, 0
2, 53760, Note_on_c, 0, 81, 70
2, 53760, Note_on_c, 0, 77, 70
2, 54000, Note_on_c, 0, 77, 0
2, 54000, Note_on_c, 0, 81, 0
2, 54240, Note_on_c, 0, 74, 71
2, 54240, Note_on_c, 0, 77, 71
2, 54360, Note_on_c, 0, 77, 0
2, 54360, Note_on_c, 0, 74, 0
2, 54480, Note_on_c, 0, 74, 65
2, 54480, Note_on_c, 0, 70, 65
2, 54600, Note_on_c, 0, 70, 0
2, 54600, Note_on_c, 0, 74, 0
2, 54720, Note_on_c, 0, 67, 68
2, 54720, Note_on_c, 0, 70, 68
2, 54840, Note_on_c, 0, 70, 0
2, 54840, Note_on_c, 0, 67, 0
2, 54960, Note_on_c, 0, 75, 65
2, 54960, Note_on_c, 0, 79, 65
2, 55080, Note_on_c, 0, 79, 0
2, 55080, Note_on_c, 0, 75, 0
2, 55200, Note_on_c, 0, 72, 67
2, 55200, Note_on_c, 0, 75, 67
2, 55320, Note_on_c, 0, 75, 0
2, 55320, Note_on_c, 0, 72, 0
2, 55440, Note_on_c, 0, 69, 63
2, 55440, Note_on_c, 0, 72, 63
2, 55560, Note_on_c, 0, 72, 0
2, 55560, Note_on_c, 0, 69, 0
2, 55680, Note_on_c, 0, 69, 67
2, 55680, Note_on_c, 0, 66, 67
2, 55800, Note_on_c, 0, 66, 0
2, 55800, Note_on_c, 0, 69, 0
2, 55920, Note_on_c, 0, 77, 62
2, 55920, Note_on_c, 0, 74, 62
2, 56040, Note_on_c, 0, 74, 0
2, 56040, Note_on_c, 0, 77, 0
2, 56160, Note_on_c, 0, 74, 69
2, 56160, Note_on_c, 0, 70, 69
2, 56400, Note_on_c, 0, 70, 0
2, 56400, Note_on_c, 0, 74, 0
2, 56400, Note_on_c, 0, 67, 66
2, 56400, Note_on_c, 0, 70, 66
2, 56640, Note_on_c, 0, 70, 0
2, 56640, Note_on_c, 0, 67, 0
2, 56640, Note_on_c, 0, 67, 69
2, 56640, Note_on_c, 0, 63, 53
2, 56880, Note_on_c, 0, 67, 0
2, 56880, Note_on_c, 0, 70, 63
2, 57120, Note_on_c, 0, 70, 0
2, 57120, Note_on_c, 0, 63, 0
2, 57120, Note_on_c, 0, 66, 58
2, 57120, Note_on_c, 0, 60, 47
2, 57120, Note_on_c, 0, 69, 65
2, 57360, Note_on_c, 0, 69, 0
2, 57360, Note_on_c, 0, 70, 59
2, 57600, Note_on_c, 0, 70, 0
2, 57600, Note_on_c, 0, 60, 0
2, 57600, Note_on_c, 0, 66, 0
2, 57600, Note_on_c, 0, 71, 55
2, 57600, Note_on_c, 0, 59, 44
2, 57600, Note_on_c, 0, 62, 44
2, 57840, Note_on_c, 0, 62, 0
2, 57840, Note_on_c, 0, 59, 0
2, 57840, Note_on_c, 0, 64, 42
2, 57960, Note_on_c, 0, 64, 0
2, 57960, Note_on_c, 0, 62, 42
2, 58080, Note_on_c, 0, 62, 0
2, 58080, Note_on_c, 0, 59, 44
2, 58320, Note_on_c, 0, 59, 0
2, 58320, Note_on_c, 0, 62, 41
2, 58560, Note_on_c, 0, 62, 0
2, 58800, Note_on_c, 0, 62, 42
2, 59040, Note_on_c, 0, 62, 0
2, 59040, Note_on_c, 0, 71, 0
2, 59040, Note_on_c, 0, 71, 55
2, 59040, Note_on_c, 0, 59, 45
2, 59040, Note_on_c, 0, 65, 45
2, 59280, Note_on_c, 0, 65, 0
2, 59280, Note_on_c, 0, 59, 0
2, 59280, Note_on_c, 0, 64, 42
2, 59400, Note_on_c, 0, 64, 0
2, 59400, Note_on_c, 0, 62, 42
2, 59520, Note_on_c, 0, 62, 0
2, 59520, Note_on_c, 0, 59, 44
2, 59760, Note_on_c, 0, 59, 0
2, 59760, Note_on_c, 0, 62, 42
2, 60000, Note_on_c, 0, 62, 0
2, 60240, Note_on_c, 0, 62, 42
2, 60480, Note_on_c, 0, 62, 0
2, 60480, Note_on_c, 0, 71, 0
2, 60480, Note_on_c, 0, 72, 55
2, 60480, Note_on_c, 0, 60, 44
2, 60480, Note_on_c, 0, 62, 44
2, 60720, Note_on_c, 0, 62, 0
2, 60720, Note_on_c, 0, 60, 0
2, 60720, Note_on_c, 0, 64, 42
2, 60840, Note_on_c, 0, 64, 0
2, 60840, Note_on_c, 0, 62, 42
2, 60960, Note_on_c, 0, 62, 0
2, 60960, Note_on_c, 0, 60, 44
2, 61200, Note_on_c, 0, 60, 0
2, 61200, Note_on_c, 0, 62, 41
2, 61440, Note_on_c, 0, 62, 0
2, 61440, Note_on_c, 0, 72, 0
2, 61440, Note_on_c, 0, 60, 44
2, 61440, Note_on_c, 0, 68, 53
2, 61680, Note_on_c, 0, 60, 0
2, 61680, Note_on_c, 0, 62, 41
2, 61920, Note_on_c, 0, 62, 0
2, 61920, Note_on_c, 0, 69, 55
2, 61920, Note_on_c, 0, 60, 44
2, 61920, Note_on_c, 0, 62, 44
2, 61940, Note_on_c, 0, 68, 0
2, 62160, Note_on_c, 0, 62, 0
2, 62160, Note_on_c, 0, 60, 0
2, 62160, Note_on_c, 0, 64, 42
2, 62280, Note_on_c, 0, 64, 0
2, 62280, Note_on_c, 0, 62, 42
2, 62400, Note_on_c, 0, 62, 0
2, 62400, Note_on_c, 0, 60, 44
2, 62640, Note_on_c, 0, 60, 0
2, 62640, Note_on_c, 0, 62, 41
2, 62880, Note_on_c, 0, 62, 0
2, 62880, Note_on_c, 0, 69, 0
2, 62880, Note_on_c, 0, 60, 44
2, 62880, Note_on_c, 0, 70, 53
2, 63120, Note_on_c, 0, 60, 0
2, 63120, Note_on_c, 0, 62, 41
2, 63360, Note_on_c, 0, 62, 0
2, 63360, Note_on_c, 0, 71, 55
2, 63360, Note_on_c, 0, 59, 44
2, 63360, Note_on_c, 0, 62, 44
2, 63380, Note_on_c, 0, 70, 0
2, 63600, Note_on_c, 0, 62, 0
2, 63600, Note_on_c, 0, 59, 0
2, 63600, Note_on_c, 0, 64, 42
2, 63720, Note_on_c, 0, 64, 0
2, 63720, Note_on_c, 0, 62, 42
2, 63840, Note_on_c, 0, 62, 0
2, 63840, Note_on_c, 0, 59, 44
2, 64080, Note_on_c, 0, 59, 0
2, 64080, Note_on_c, 0, 62, 41
2, 64320, Note_on_c, 0, 62, 0
2, 64320, Note_on_c, 0, 71, 0
2, 64320, Note_on_c, 0, 59, 44
2, 64320, Note_on_c, 0, 71, 53
2, 64560, Note_on_c, 0, 59, 0
2, 64560, Note_on_c, 0, 62, 41
2, 64800, Note_on_c, 0, 62, 0
2, 64800, Note_on_c, 0, 64, 55
2, 64800, Note_on_c, 0, 62, 44
2, 64820, Note_on_c, 0, 71, 0
2, 65040, Note_on_c, 0, 62, 0
2, 65040, Note_on_c, 0, 67, 42
2, 65160, Note_on_c, 0, 67, 0
2, 65160, Note_on_c, 0, 65, 42
2, 65280, Note_on_c, 0, 65, 0
2, 65280, Note_on_c, 0, 64, 44
2, 65280, Note_on_c, 0, 62, 44
2, 65520, Note_on_c, 0, 64, 0
2, 65520, Note_on_c, 0, 71, 54
2, 65760, Note_on_c, 0, 62, 0
2, 65760, Note_on_c, 0, 64, 0
2, 65760, Note_on_c, 0, 62, 37
2, 65760, Note_on_c, 0, 64, 37
2, 65760, Note_on_c, 0, 68, 37
2, 65760, Note_on_c, 0, 72, 59
2, 65780, Note_on_c, 0, 71, 0
2, 66000, Note_on_c, 0, 74, 57
2, 66020, Note_on_c, 0, 72, 0
2, 66240, Note_on_c, 0, 68, 0
2, 66240, Note_on_c, 0, 62, 0
2, 66240, Note_on_c, 0, 64, 0
2, 66240, Note_on_c, 0, 60, 44
2, 66240, Note_on_c, 0, 72, 55
2, 66260, Note_on_c, 0, 74, 0
2, 66480, Note_on_c, 0, 60, 0
2, 66480, Note_on_c, 0, 65, 42
2, 66600, Note_on_c, 0, 65, 0
2, 66600, Note_on_c, 0, 64, 42
2, 66720, Note_on_c, 0, 64, 0
2, 66720, Note_on_c, 0, 60, 44
2, 66960, Note_on_c, 0, 60, 0
2, 66960, Note_on_c, 0, 64, 41
2, 67200, Note_on_c, 0, 64, 0
2, 67200, Note_on_c, 0, 72, 0
2, 67200, Note_on_c, 0, 60, 44
2, 67200, Note_on_c, 0, 72, 53
2, 67440, Note_on_c, 0, 60, 0
2, 67440, Note_on_c, 0, 67, 41
2, 67680, Note_on_c, 0, 67, 0
2, 67680, Note_on_c, 0, 60, 47
2, 67680, Note_on_c, 0, 66, 58
2, 67700, Note_on_c, 0, 72, 0
2, 67920, Note_on_c, 0, 60, 0
2, 67920, Note_on_c, 0, 69, 45
2, 68040, Note_on_c, 0, 69, 0
2, 68040, Note_on_c, 0, 66, 45
2, 68160, Note_on_c, 0, 66, 0
2, 68160, Note_on_c, 0, 66, 0
2, 68160, Note_on_c, 0, 60, 47
2, 68160, Note_on_c, 0, 64, 44
2, 68400, Note_on_c, 0, 69, 44
2, 68420, Note_on_c, 0, 60, 0
2, 68640, Note_on_c, 0, 69, 0
2, 68640, Note_on_c, 0, 64, 0
2, 68640, Note_on_c, 0, 60, 50
2, 68640, Note_on_c, 0, 62, 39
2, 68880, Note_on_c, 0, 70, 44
2, 68900, Note_on_c, 0, 60, 0
2, 69120, Note_on_c, 0, 70, 0
2, 69120, Note_on_c, 0, 62, 0
2, 69120, Note_on_c, 0, 71, 55
2, 69120, Note_on_c, 0, 59, 41
2, 69120, Note_on_c, 0, 62, 41
2, 69360, Note_on_c, 0, 62, 0
2, 69360, Note_on_c, 0, 59, 0
2, 69360, Note_on_c, 0, 64, 39
2, 69480, Note_on_c, 0, 64, 0
2, 69480, Note_on_c, 0, 62, 39
2, 69600, Note_on_c, 0, 62, 0
2, 69600, Note_on_c, 0, 59, 41
2, 69840, Note_on_c, 0, 59, 0
2, 69840, Note_on_c, 0, 62, 38
2, 70080, Note_on_c, 0, 62, 0
2, 70320, Note_on_c, 0, 62, 42
2, 70560, Note_on_c, 0, 62, 0
2, 70560, Note_on_c, 0, 71, 0
2, 70560, Note_on_c, 0, 71, 55
2, 70560, Note_on_c, 0, 59, 43
2, 70560, Note_on_c, 0, 65, 43
2, 70800, Note_on_c, 0, 65, 0
2, 70800, Note_on_c, 0, 59, 0
2, 70800, Note_on_c, 0, 64, 40
2, 70920, Note_on_c, 0, 64, 0
2, 70920, Note_on_c, 0, 62, 40
2, 71040, Note_on_c, 0, 62, 0
2, 71040, Note_on_c, 0, 59, 42
2, 71280, Note_on_c, 0, 59, 0
2, 71280, Note_on_c, 0, 62, 40
2, 71520, Note_on_c, 0, 62, 0
2, 71760, Note_on_c, 0, 62, 42
2, 72000, Note_on_c, 0, 62, 0
2, 72000, Note_on_c, 0, 71, 0
2, 72000, Note_on_c, 0, 72, 55
2, 72000, Note_on_c, 0, 60, 44
2, 72000, Note_on_c, 0, 62, 44
2, 72240, Note_on_c, 0, 62, 0
2, 72240, Note_on_c, 0, 60, 0
2, 72240, Note_on_c, 0, 64, 42
2, 72360, Note_on_c, 0, 64, 0
2, 72360, Note_on_c, 0, 62, 42
2, 72480, Note_on_c, 0, 62, 0
2, 72480, Note_on_c, 0, 60, 44
2, 72720, Note_on_c, 0, 60, 0
2, 72720, Note_on_c, 0, 62, 41
2, 72960, Note_on_c, 0, 62, 0
2, 72960, Note_on_c, 0, 72, 0
2, 72960, Note_on_c, 0, 60, 44
2, 72960, Note_on_c, 0, 68, 53
2, 73200, Note_on_c, 0, 60, 0
2, 73200, Note_on_c, 0, 62, 41
2, 73440, Note_on_c, 0, 62, 0
2, 73440, Note_on_c, 0, 69, 55
2, 73440, Note_on_c, 0, 60, 44
2, 73440, Note_on_c, 0, 62, 44
2, 73460, Note_on_c, 0, 68, 0
2, 73680, Note_on_c, 0, 62, 0
2, 73680, Note_on_c, 0, 60, 0
2, 73680, Note_on_c, 0, 64, 42
2, 73800, Note_on_c, 0, 64, 0
2, 73800, Note_on_c, 0, 62, 42
2, 73920, Note_on_c, 0, 62, 0
2, 73920, Note_on_c, 0, 60, 44
2, 74160, Note_on_c, 0, 60, 0
2, 74160, Note_on_c, 0, 62, 41
2, 74400, Note_on_c, 0, 62, 0
2, 74400, Note_on_c, 0, 69, 0
2, 74400, Note_on_c, 0, 60, 44
2, 74400, Note_on_c, 0, 70, 53
2, 74640, Note_on_c, 0, 60, 0
2, 74640, Note_on_c, 0, 62, 41
2, 74880, Note_on_c, 0, 62, 0
2, 74880, Note_on_c, 0, 71, 55
2, 74880, Note_on_c, 0, 59, 44
2, 74880, Note_on_c, 0, 62, 44
2, 74900, Note_on_c, 0, 70, 0
2, 75120, Note_on_c, 0, 62, 0
2, 75120, Note_on_c, 0, 59, 0
2, 75120, Note_on_c, 0, 64, 42
2, 75240, Note_on_c, 0, 64, 0
2, 75240, Note_on_c, 0, 62, 42
2, 75360, Note_on_c, 0, 62, 0
2, 75360, Note_on_c, 0, 59, 44
2, 75600, Note_on_c, 0, 59, 0
2, 75600, Note_on_c, 0, 62, 41
2, 75840, Note_on_c, 0, 62, 0
2, 75840, Note_on_c, 0, 71, 0
2, 76080, Note_on_c, 0, 62, 49
2, 76320, Note_on_c, 0, 62, 0
2, 76320, Note_on_c, 0, 64, 51
2, 76320, Note_on_c, 0, 59, 51
2, 76560, Note_on_c, 0, 59, 0
2, 76560, Note_on_c, 0, 69, 46
2, 76680, Note_on_c, 0, 69, 0
2, 76680, Note_on_c, 0, 67, 47
2, 76800, Note_on_c, 0, 67, 0
2, 76800, Note_on_c, 0, 64, 50
2, 77040, Note_on_c, 0, 64, 0
2, 77040, Note_on_c, 0, 71, 57
2, 77280, Note_on_c, 0, 71, 0
2, 77280, Note_on_c, 0, 64, 0
2, 77280, Note_on_c, 0, 64, 50
2, 77280, Note_on_c, 0, 76, 59
2, 77520, Note_on_c, 0, 76, 0
2, 77520, Note_on_c, 0, 64, 0
2, 77520, Note_on_c, 0, 71, 55
2, 77760, Note_on_c, 0, 71, 0
2, 77760, Note_on_c, 0, 74, 50
2, 77760, Note_on_c, 0, 62, 61
2, 78000, Note_on_c, 0, 62, 0
2, 78000, Note_on_c, 0, 67, 53
2, 78120, Note_on_c, 0, 67, 0
2, 78120, Note_on_c, 0, 66, 53
2, 78240, Note_on_c, 0, 66, 0
2, 78240, Note_on_c, 0, 65, 55
2, 78480, Note_on_c, 0, 64, 55
2, 78720, Note_on_c, 0, 65, 0
2, 78720, Note_on_c, 0, 74, 0
2, 78720, Note_on_c, 0, 73, 59
2, 78960, Note_on_c, 0, 73, 0
2, 78960, Note_on_c, 0, 66, 55
2, 79200, Note_on_c, 0, 66, 0
2, 79200, Note_on_c, 0, 64, 0
2, 79200, Note_on_c, 0, 62, 53
2, 79200, Note_on_c, 0, 71, 66
2, 80640, Note_on_c, 0, 71, 0
2, 80640, Note_on_c, 0, 62, 0
2, 80640, Note_on_c, 0, 69, 56
2, 80640, Note_on_c, 0, 72, 75
2, 81600, Note_on_c, 0, 72, 0
2, 81600, Note_on_c, 0, 69, 0
2, 81600, Note_on_c, 0, 68, 55
2, 81600, Note_on_c, 0, 71, 73
2, 82080, Note_on_c, 0, 71, 0
2, 82080, Note_on_c, 0, 68, 0
2, 82080, Note_on_c, 0, 71, 56
2, 82080, Note_on_c, 0, 74, 75
2, 82560, Note_on_c, 0, 69, 63
2, 82560, Note_on_c, 0, 72, 71
2, 82580, Note_on_c, 0, 74, 0
2, 82580, Note_on_c, 0, 71, 0
2, 83040, Note_on_c, 0, 68, 61
2, 83040, Note_on_c, 0, 71, 68
2, 83060, Note_on_c, 0, 69, 0
2, 83060, Note_on_c, 0, 72, 0
2, 83520, Note_on_c, 0, 68, 0
2, 83520, Note_on_c, 0, 71, 0
2, 83520, Note_on_c, 0, 65, 53
2, 83520, Note_on_c, 0, 68, 71
2, 83760, Note_on_c, 0, 68, 0
2, 83760, Note_on_c, 0, 65, 0
2, 83760, Note_on_c, 0, 66, 52
2, 83760, Note_on_c, 0, 69, 70
2, 84000, Note_on_c, 0, 69, 0
2, 84000, Note_on_c, 0, 66, 0
2, 84000, Note_on_c, 0, 69, 52
2, 84000, Note_on_c, 0, 72, 70
2, 84240, Note_on_c, 0, 72, 0
2, 84240, Note_on_c, 0, 69, 0
2, 84240, Note_on_c, 0, 72, 54
2, 84240, Note_on_c, 0, 76, 73
2, 84480, Note_on_c, 0, 76, 0
2, 84480, Note_on_c, 0, 72, 0
2, 84480, Note_on_c, 0, 76, 57
2, 84480, Note_on_c, 0, 79, 76
2, 84720, Note_on_c, 0, 79, 0
2, 84720, Note_on_c, 0, 76, 0
2, 84720, Note_on_c, 0, 74, 55
2, 84720, Note_on_c, 0, 78, 74
2, 84960, Note_on_c, 0, 78, 0
2, 84960, Note_on_c, 0, 74, 0
2, 84960, Note_on_c, 0, 81, 76
2, 84960, Note_on_c, 0, 78, 57
2, 85200, Note_on_c, 0, 78, 0
2, 85200, Note_on_c, 0, 81, 0
2, 85200, Note_on_c, 0, 74, 52
2, 85200, Note_on_c, 0, 78, 70
2, 85440, Note_on_c, 0, 78, 0
2, 85440, Note_on_c, 0, 74, 0
2, 85440, Note_on_c, 0, 72, 55
2, 85440, Note_on_c, 0, 76, 74
2, 85680, Note_on_c, 0, 76, 0
2, 85680, Note_on_c, 0, 72, 0
2, 85680, Note_on_c, 0, 69, 51
2, 85680, Note_on_c, 0, 72, 67
2, 85920, Note_on_c, 0, 72, 0
2, 85920, Note_on_c, 0, 69, 0
2, 85920, Note_on_c, 0, 68, 52
2, 85920, Note_on_c, 0, 71, 70
2, 86160, Note_on_c, 0, 71, 0
2, 86160, Note_on_c, 0, 68, 0
2, 86160, Note_on_c, 0, 71, 51
2, 86160, Note_on_c, 0, 74, 67
2, 86400, Note_on_c, 0, 74, 0
2, 86400, Note_on_c, 0, 71, 0
2, 86400, Note_on_c, 0, 69, 63
2, 86400, Note_on_c, 0, 72, 75
2, 87360, Note_on_c, 0, 72, 0
2, 87360, Note_on_c, 0, 69, 0
2, 87360, Note_on_c, 0, 68, 56
2, 87360, Note_on_c, 0, 71, 66
2, 87840, Note_on_c, 0, 71, 0
2, 87840, Note_on_c, 0, 68, 0
2, 87840, Note_on_c, 0, 70, 57
2, 87840, Note_on_c, 0, 74, 68
2, 88320, Note_on_c, 0, 69, 53
2, 88320, Note_on_c, 0, 72, 63
2, 88340, Note_on_c, 0, 74, 0
2, 88340, Note_on_c, 0, 70, 0
2, 88800, Note_on_c, 0, 67, 51
2, 88800, Note_on_c, 0, 70, 61
2, 88820, Note_on_c, 0, 69, 0
2, 88820, Note_on_c, 0, 72, 0
2, 89280, Note_on_c, 0, 67, 0
2, 89280, Note_on_c, 0, 70, 0
2, 89280, Note_on_c, 0, 65, 51
2, 89280, Note_on_c, 0, 68, 60
2, 89520, Note_on_c, 0, 68, 0
2, 89520, Note_on_c, 0, 65, 0
2, 89520, Note_on_c, 0, 66, 48
2, 89520, Note_on_c, 0, 69, 57
2, 89760, Note_on_c, 0, 69, 0
2, 89760, Note_on_c, 0, 66, 0
2, 89760, Note_on_c, 0, 69, 51
2, 89760, Note_on_c, 0, 72, 60
2, 90000, Note_on_c, 0, 72, 0
2, 90000, Note_on_c, 0, 69, 0
2, 90000, Note_on_c, 0, 72, 51
2, 90000, Note_on_c, 0, 75, 60
2, 90240, Note_on_c, 0, 75, 0
2, 90240, Note_on_c, 0, 72, 0
2, 90240, Note_on_c, 0, 75, 53
2, 90240, Note_on_c, 0, 79, 63
2, 90480, Note_on_c, 0, 79, 0
2, 90480, Note_on_c, 0, 75, 0
2, 90480, Note_on_c, 0, 74, 50
2, 90480, Note_on_c, 0, 78, 59
2, 90720, Note_on_c, 0, 78, 0
2, 90720, Note_on_c, 0, 74, 0
2, 90720, Note_on_c, 0, 81, 65
2, 90720, Note_on_c, 0, 78, 54
2, 90960, Note_on_c, 0, 78, 0
2, 90960, Note_on_c, 0, 81, 0
2, 90960, Note_on_c, 0, 74, 53
2, 90960, Note_on_c, 0, 78, 63
2, 91200, Note_on_c, 0, 78, 0
2, 91200, Note_on_c, 0, 74, 0
2, 91200, Note_on_c, 0, 72, 50
2, 91200, Note_on_c, 0, 75, 59
2, 91440, Note_on_c, 0, 75, 0
2, 91440, Note_on_c, 0, 72, 0
2, 91440, Note_on_c, 0, 67, 38
2, 91440, Note_on_c, 0, 69, 56
2, 91680, Note_on_c, 0, 69, 0
2, 91680, Note_on_c, 0, 67, 0
2, 91680, Note_on_c, 0, 66, 40
2, 91680, Note_on_c, 0, 74, 57
2, 91920, Note_on_c, 0, 74, 0
2, 91920, Note_on_c, 0, 66, 0
2, 91920, Note_on_c, 0, 69, 38
2, 91920, Note_on_c, 0, 72, 55
2, 92160, Note_on_c, 0, 72, 0
2, 92160, Note_on_c, 0, 69, 0
2, 92160, Note_on_c, 0, 67, 51
2, 92160, Note_on_c, 0, 70, 60
2, 93600, Note_on_c, 0, 70, 0
2, 93600, Note_on_c, 0, 67, 0
2, 93840, Note_on_c, 0, 75, 63
2, 94080, Note_on_c, 0, 77, 66
2, 94100, Note_on_c, 0, 75, 0
2, 94320, Note_on_c, 0, 79, 64
2, 94340, Note_on_c, 0, 77, 0
2, 94560, Note_on_c, 0, 77, 66
2, 94580, Note_on_c, 0, 79, 0
2, 94800, Note_on_c, 0, 75, 66
2, 94820, Note_on_c, 0, 77, 0
2, 95040, Note_on_c, 0, 75, 0
2, 95040, Note_on_c, 0, 84, 70
2, 95040, Note_on_c, 0, 79, 50
2, 95040, Note_on_c, 0, 75, 50
2, 95280, Note_on_c, 0, 75, 0
2, 95280, Note_on_c, 0, 79, 0
2, 95280, Note_on_c, 0, 84, 0
2, 95280, Note_on_c, 0, 82, 62
2, 95520, Note_on_c, 0, 82, 0
2, 95520, Note_on_c, 0, 79, 66
2, 95760, Note_on_c, 0, 79, 0
2, 95760, Note_on_c, 0, 75, 57
2, 96000, Note_on_c, 0, 75, 0
2, 96000, Note_on_c, 0, 77, 61
2, 96240, Note_on_c, 0, 77, 0
2, 96240, Note_on_c, 0, 75, 57
2, 96480, Note_on_c, 0, 75, 0
2, 96480, Note_on_c, 0, 63, 45
2, 96480, Note_on_c, 0, 67, 45
2, 96480, Note_on_c, 0, 72, 54
2, 96720, Note_on_c, 0, 72, 0
2, 96720, Note_on_c, 0, 70, 54
2, 96960, Note_on_c, 0, 70, 0
2, 96960, Note_on_c, 0, 67, 0
2, 96960, Note_on_c, 0, 63, 0
2, 96960, Note_on_c, 0, 67, 56
2, 97200, Note_on_c, 0, 67, 0
2, 97200, Note_on_c, 0, 70, 62
2, 97440, Note_on_c, 0, 70, 0
2, 97440, Note_on_c, 0, 75, 63
2, 97680, Note_on_c, 0, 75, 0
2, 97680, Note_on_c, 0, 79, 63
2, 97920, Note_on_c, 0, 79, 0
2, 97920, Note_on_c, 0, 75, 62
2, 97920, Note_on_c, 0, 79, 62
2, 97920, Note_on_c, 0, 67, 62
2, 97920, Note_on_c, 0, 70, 62
2, 99360, Note_on_c, 0, 70, 0
2, 99360, Note_on_c, 0, 75, 0
2, 99360, Note_on_c, 0, 79, 0
2, 99360, Note_on_c, 0, 67, 0
2, 99600, Note_on_c, 0, 75, 63
2, 99840, Note_on_c, 0, 77, 66
2, 99860, Note_on_c, 0, 75, 0
2, 100080, Note_on_c, 0, 79, 64
2, 100100, Note_on_c, 0, 77, 0
2, 100320, Note_on_c, 0, 77, 66
2, 100340, Note_on_c, 0, 79, 0
2, 100560, Note_on_c, 0, 75, 66
2, 100580, Note_on_c, 0, 77, 0
2, 100800, Note_on_c, 0, 75, 0
2, 100800, Note_on_c, 0, 84, 70
2, 100800, Note_on_c, 0, 79, 50
2, 100800, Note_on_c, 0, 75, 50
2, 101040, Note_on_c, 0, 75, 0
2, 101040, Note_on_c, 0, 79, 0
2, 101040, Note_on_c, 0, 84, 0
2, 101040, Note_on_c, 0, 82, 62
2, 101280, Note_on_c, 0, 82, 0
2, 101280, Note_on_c, 0, 79, 66
2, 101520, Note_on_c, 0, 79, 0
2, 101520, Note_on_c, 0, 75, 57
2, 101760, Note_on_c, 0, 75, 0
2, 101760, Note_on_c, 0, 77, 61
2, 102000, Note_on_c, 0, 77, 0
2, 102000, Note_on_c, 0, 75, 57
2, 102240, Note_on_c, 0, 75, 0
2, 102240, Note_on_c, 0, 63, 45
2, 102240, Note_on_c, 0, 67, 45
2, 102240, Note_on_c, 0, 72, 54
2, 102480, Note_on_c, 0, 72, 0
2, 102480, Note_on_c, 0, 70, 54
2, 102720, Note_on_c, 0, 70, 0
2, 102720, Note_on_c, 0, 67, 0
2, 102720, Note_on_c, 0, 63, 0
2, 102720, Note_on_c, 0, 67, 56
2, 102960, Note_on_c, 0, 67, 0
2, 102960, Note_on_c, 0, 70, 62
2, 103200, Note_on_c, 0, 70, 0
2, 103200, Note_on_c, 0, 75, 63
2, 103440, Note_on_c, 0, 75, 0
2, 103440, Note_on_c, 0, 79, 63
2, 103680, Note_on_c, 0, 79, 0
2, 103680, Note_on_c, 0, 70, 69
2, 103680, Note_on_c, 0, 74, 69
2, 103680, Note_on_c, 0, 82, 69
2, 103680, Note_on_c, 0, 79, 69
2, 104640, Note_on_c, 0, 79, 0
2, 104640, Note_on_c, 0, 70, 0
2, 104640, Note_on_c, 0, 74, 0
2, 104640, Note_on_c, 0, 82, 0
2, 104640, Note_on_c, 0, 70, 67
2, 104640, Note_on_c, 0, 74, 67
2, 105120, Note_on_c, 0, 74, 0
2, 105120, Note_on_c, 0, 70, 0
2, 105120, Note_on_c, 0, 69, 60
2, 105120, Note_on_c, 0, 72, 60
2, 105360, Note_on_c, 0, 72, 0
2, 105360, Note_on_c, 0, 69, 0
2, 105360, Note_on_c, 0, 72, 65
2, 105360, Note_on_c, 0, 75, 65
2, 105600, Note_on_c, 0, 75, 0
2, 105600, Note_on_c, 0, 72, 0
2, 105600, Note_on_c, 0, 77, 70
2, 105600, Note_on_c, 0, 81, 70
2, 106080, Note_on_c, 0, 81, 0
2, 106080, Note_on_c, 0, 77, 0
2, 106080, Note_on_c, 0, 74, 71
2, 106080, Note_on_c, 0, 77, 71
2, 106320, Note_on_c, 0, 77, 0
2, 106320, Note_on_c, 0, 74, 0
2, 106320, Note_on_c, 0, 70, 63
2, 106320, Note_on_c, 0, 74, 63
2, 106560, Note_on_c, 0, 74, 0
2, 106560, Note_on_c, 0, 70, 0
2, 106560, Note_on_c, 0, 67, 66
2, 106560, Note_on_c, 0, 70, 66
2, 106680, Note_on_c, 0, 70, 0
2, 106680, Note_on_c, 0, 67, 0
2, 106800, Note_on_c, 0, 75, 65
2, 106800, Note_on_c, 0, 79, 65
2, 106920, Note_on_c, 0, 79, 0
2, 106920, Note_on_c, 0, 75, 0
2, 107040, Note_on_c, 0, 72, 66
2, 107040, Note_on_c, 0, 75, 66
2, 107160, Note_on_c, 0, 75, 0
2, 107160, Note_on_c, 0, 72, 0
2, 107280, Note_on_c, 0, 69, 61
2, 107280, Note_on_c, 0, 72, 61
2, 107400, Note_on_c, 0, 72, 0
2, 107400, Note_on_c, 0, 69, 0
2, 107520, Note_on_c, 0, 66, 65
2, 107520, Note_on_c, 0, 69, 65
2, 107640, Note_on_c, 0, 69, 0
2, 107640, Note_on_c, 0, 66, 0
2, 107760, Note_on_c, 0, 74, 60
2, 107760, Note_on_c, 0, 77, 60
2, 107880, Note_on_c, 0, 77, 0
2, 107880, Note_on_c, 0, 74, 0
2, 108000, Note_on_c, 0, 70, 69
2, 108000, Note_on_c, 0, 74, 69
2, 108120, Note_on_c, 0, 74, 0
2, 108120, Note_on_c, 0, 70, 0
2, 108240, Note_on_c, 0, 67, 64
2, 108240, Note_on_c, 0, 70, 64
2, 108360, Note_on_c, 0, 70, 0
2, 108360, Note_on_c, 0, 67, 0
2, 108480, Note_on_c, 0, 63, 68
2, 108480, Note_on_c, 0, 67, 68
2, 108720, Note_on_c, 0, 67, 0
2, 108720, Note_on_c, 0, 70, 62
2, 108960, Note_on_c, 0, 70, 0
2, 108960, Note_on_c, 0, 63, 0
2, 108960, Note_on_c, 0, 60, 54
2, 108960, Note_on_c, 0, 66, 54
2, 108960, Note_on_c, 0, 69, 64
2, 109200, Note_on_c, 0, 69, 0
2, 109200, Note_on_c, 0, 74, 56
2, 109440, Note_on_c, 0, 74, 0
2, 109440, Note_on_c, 0, 66, 0
2, 109440, Note_on_c, 0, 60, 0
2, 109440, Note_on_c, 0, 74, 70
2, 110880, Note_on_c, 0, 74, 0
2, 111120, Note_on_c, 0, 72, 64
2, 111200, Note_on_c, 0, 72, 0
2, 111200, Note_on_c, 0, 74, 61
2, 111280, Note_on_c, 0, 74, 0
2, 111280, Note_on_c, 0, 72, 61
2, 111360, Note_on_c, 0, 72, 0
2, 111360, Note_on_c, 0, 71, 64
2, 111600, Note_on_c, 0, 71, 0
2, 111600, Note_on_c, 0, 72, 61
2, 111840, Note_on_c, 0, 72, 0
2, 111840, Note_on_c, 0, 74, 64
2, 112080, Note_on_c, 0, 74, 0
2, 112080, Note_on_c, 0, 75, 62
2, 112320, Note_on_c, 0, 75, 0
2, 112320, Note_on_c, 0, 67, 61
2, 112320, Note_on_c, 0, 70, 61
2, 112560, Note_on_c, 0, 70, 0
2, 112560, Note_on_c, 0, 67, 0
2, 112560, Note_on_c, 0, 72, 63
2, 112800, Note_on_c, 0, 72, 0
2, 112800, Note_on_c, 0, 73, 66
2, 113040, Note_on_c, 0, 73, 0
2, 113040, Note_on_c, 0, 74, 69
2, 113280, Note_on_c, 0, 74, 0
2, 113280, Note_on_c, 0, 79, 70
2, 113520, Note_on_c, 0, 79, 0
2, 113520, Note_on_c, 0, 74, 66
2, 113760, Note_on_c, 0, 74, 0
2, 113760, Note_on_c, 0, 66, 68
2, 113760, Note_on_c, 0, 70, 68
2, 114720, Note_on_c, 0, 70, 0
2, 114720, Note_on_c, 0, 66, 0
2, 114720, Note_on_c, 0, 69, 68
2, 115140, Note_on_c, 0, 69, 0
2, 115140, Note_on_c, 0, 67, 55
2, 115170, Note_on_c, 0, 74, 56
2, 115200, Note_on_c, 0, 79, 60
2, 115440, Note_on_c, 0, 79, 0
2, 115440, Note_on_c, 0, 74, 0
2, 115440, Note_on_c, 0, 67, 0
2, 115440, Note_on_c, 0, 74, 57
2, 115560, Note_on_c, 0, 74, 0
2, 115680, Note_on_c, 0, 75, 60
2, 115800, Note_on_c, 0, 75, 0
2, 115920, Note_on_c, 0, 79, 57
2, 116040, Note_on_c, 0, 79, 0
2, 116160, Note_on_c, 0, 78, 64
2, 116280, Note_on_c, 0, 78, 0
2, 116400, Note_on_c, 0, 81, 59
2, 116520, Note_on_c, 0, 81, 0
2, 116640, Note_on_c, 0, 79, 64
2, 116720, Note_on_c, 0, 79, 0
2, 116720, Note_on_c, 0, 81, 54
2, 116800, Note_on_c, 0, 81, 0
2, 116800, Note_on_c, 0, 79, 54
2, 116880, Note_on_c, 0, 79, 0
2, 116880, Note_on_c, 0, 78, 59
2, 117000, Note_on_c, 0, 78, 0
2, 117120, Note_on_c, 0, 79, 66
2, 117240, Note_on_c, 0, 79, 0
2, 117360, Note_on_c, 0, 82, 64
2, 117480, Note_on_c, 0, 82, 0
2, 117600, Note_on_c, 0, 74, 61
2, 117600, Note_on_c, 0, 81, 69
2, 117720, Note_on_c, 0, 81, 0
2, 117720, Note_on_c, 0, 74, 0
2, 117840, Note_on_c, 0, 86, 71
2, 117960, Note_on_c, 0, 86, 0
2, 118080, Note_on_c, 0, 77, 68
2, 119040, Note_on_c, 0, 77, 0
2, 119040, Note_on_c, 0, 75, 68
2, 119520, Note_on_c, 0, 75, 0
2, 119520, Note_on_c, 0, 74, 64
2, 119600, Note_on_c, 0, 74, 0
2, 119600, Note_on_c, 0, 75, 55
2, 119680, Note_on_c, 0, 75, 0
2, 119680, Note_on_c, 0, 74, 55
2, 119760, Note_on_c, 0, 74, 0
2, 119760, Note_on_c, 0, 72, 59
2, 120000, Note_on_c, 0, 72, 0
2, 120000, Note_on_c, 0, 71, 64
2, 120240, Note_on_c, 0, 71, 0
2, 120240, Note_on_c, 0, 72, 58
2, 120480, Note_on_c, 0, 72, 0
2, 120480, Note_on_c, 0, 74, 64
2, 120720, Note_on_c, 0, 74, 0
2, 120720, Note_on_c, 0, 75, 58
2, 120960, Note_on_c, 0, 75, 0
2, 120960, Note_on_c, 0, 74, 69
2, 121920, Note_on_c, 0, 74, 0
2, 121920, Note_on_c, 0, 68, 47
2, 121920, Note_on_c, 0, 73, 59
2, 122160, Note_on_c, 0, 73, 0
2, 122160, Note_on_c, 0, 74, 56
2, 122400, Note_on_c, 0, 74, 0
2, 122400, Note_on_c, 0, 68, 0
2, 122400, Note_on_c, 0, 67, 46
2, 122400, Note_on_c, 0, 77, 59
2, 122640, Note_on_c, 0, 77, 0
2, 122640, Note_on_c, 0, 75, 57
2, 122880, Note_on_c, 0, 75, 0
2, 122880, Note_on_c, 0, 74, 64
2, 123120, Note_on_c, 0, 74, 0
2, 123120, Note_on_c, 0, 75, 61
2, 123360, Note_on_c, 0, 75, 0
2, 123360, Note_on_c, 0, 72, 69
2, 123600, Note_on_c, 0, 72, 0
2, 123600, Note_on_c, 0, 67, 66
2, 123840, Note_on_c, 0, 67, 0
2, 123840, Note_on_c, 0, 67, 0
2, 123840, Note_on_c, 0, 65, 63
2, 123840, Note_on_c, 0, 70, 64
2, 123840, Note_on_c, 0, 74, 70
2, 124080, Note_on_c, 0, 74, 0
2, 124080, Note_on_c, 0, 70, 0
2, 124080, Note_on_c, 0, 65, 0
2, 124080, Note_on_c, 0, 77, 57
2, 124200, Note_on_c, 0, 77, 0
2, 124320, Note_on_c, 0, 78, 60
2, 124440, Note_on_c, 0, 78, 0
2, 124560, Note_on_c, 0, 82, 57
2, 124680, Note_on_c, 0, 82, 0
2, 124800, Note_on_c, 0, 81, 64
2, 124920, Note_on_c, 0, 81, 0
2, 125040, Note_on_c, 0, 84, 59
2, 125160, Note_on_c, 0, 84, 0
2, 125280, Note_on_c, 0, 82, 64
2, 125360, Note_on_c, 0, 82, 0
2, 125360, Note_on_c, 0, 84, 54
2, 125440, Note_on_c, 0, 84, 0
2, 125440, Note_on_c, 0, 82, 54
2, 125520, Note_on_c, 0, 82, 0
2, 125520, Note_on_c, 0, 81, 58
2, 125640, Note_on_c, 0, 81, 0
2, 125760, Note_on_c, 0, 82, 63
2, 125880, Note_on_c, 0, 82, 0
2, 126000, Note_on_c, 0, 86, 63
2, 126120, Note_on_c, 0, 86, 0
2, 126240, Note_on_c, 0, 77, 58
2, 126240, Note_on_c, 0, 84, 63
2, 126360, Note_on_c, 0, 84, 0
2, 126360, Note_on_c, 0, 77, 0
2, 126480, Note_on_c, 0, 89, 60
2, 126600, Note_on_c, 0, 89, 0
2, 126960, Note_on_c, 0, 70, 64
2, 127200, Note_on_c, 0, 70, 0
2, 127200, Note_on_c, 0, 72, 64
2, 127440, Note_on_c, 0, 72, 0
2, 127440, Note_on_c, 0, 74, 61
2, 127680, Note_on_c, 0, 74, 0
2, 127680, Note_on_c, 0, 77, 64
2, 127920, Note_on_c, 0, 77, 0
2, 127920, Note_on_c, 0, 75, 62
2, 128160, Note_on_c, 0, 75, 0
2, 128160, Note_on_c, 0, 74, 61
2, 128240, Note_on_c, 0, 74, 0
2, 128240, Note_on_c, 0, 75, 56
2, 128320, Note_on_c, 0, 75, 0
2, 128320, Note_on_c, 0, 74, 55
2, 128400, Note_on_c, 0, 74, 0
2, 128400, Note_on_c, 0, 71, 59
2, 128640, Note_on_c, 0, 71, 0
2, 128640, Note_on_c, 0, 70, 63
2, 128880, Note_on_c, 0, 70, 0
2, 128880, Note_on_c, 0, 68, 57
2, 129120, Note_on_c, 0, 68, 0
2, 129120, Note_on_c, 0, 66, 65
2, 129360, Note_on_c, 0, 66, 0
2, 129360, Note_on_c, 0, 70, 58
2, 129540, Note_on_c, 0, 70, 0
2, 129540, Note_on_c, 0, 70, 60
2, 129600, Note_on_c, 0, 70, 0
2, 129600, Note_on_c, 0, 65, 65
2, 130560, Note_on_c, 0, 65, 0
2, 130560, Note_on_c, 0, 68, 56
2, 130560, Note_on_c, 0, 70, 56
2, 131040, Note_on_c, 0, 70, 0
2, 131040, Note_on_c, 0, 68, 0
2, 131040, Note_on_c, 0, 66, 41
2, 131040, Note_on_c, 0, 70, 57
2, 132000, Note_on_c, 0, 70, 0
2, 132000, Note_on_c, 0, 66, 0
2, 132000, Note_on_c, 0, 69, 67
2, 132240, Note_on_c, 0, 69, 0
2, 132240, Note_on_c, 0, 75, 64
2, 132480, Note_on_c, 0, 75, 0
2, 132720, Note_on_c, 0, 70, 64
2, 132960, Note_on_c, 0, 70, 0
2, 132960, Note_on_c, 0, 71, 64
2, 133200, Note_on_c, 0, 71, 0
2, 133200, Note_on_c, 0, 74, 61
2, 133440, Note_on_c, 0, 74, 0
2, 133440, Note_on_c, 0, 77, 67
2, 133680, Note_on_c, 0, 77, 0
2, 133680, Note_on_c, 0, 78, 67
2, 133920, Note_on_c, 0, 78, 0
2, 133920, Note_on_c, 0, 70, 41
2, 133920, Note_on_c, 0, 77, 61
2, 134000, Note_on_c, 0, 77, 0
2, 134000, Note_on_c, 0, 78, 51
2, 134080, Note_on_c, 0, 78, 0
2, 134080, Note_on_c, 0, 77, 51
2, 134160, Note_on_c, 0, 77, 0
2, 134160, Note_on_c, 0, 70, 0
2, 134160, Note_on_c, 0, 75, 54
2, 134400, Note_on_c, 0, 75, 0
2, 134400, Note_on_c, 0, 71, 65
2, 134640, Note_on_c, 0, 71, 0
2, 134640, Note_on_c, 0, 70, 58
2, 134880, Note_on_c, 0, 70, 0
2, 134880, Note_on_c, 0, 66, 65
2, 135120, Note_on_c, 0, 66, 0
2, 135120, Note_on_c, 0, 70, 58
2, 135300, Note_on_c, 0, 70, 0
2, 135300, Note_on_c, 0, 70, 60
2, 135360, Note_on_c, 0, 70, 0
2, 135360, Note_on_c, 0, 65, 63
2, 136320, Note_on_c, 0, 65, 0
2, 136320, Note_on_c, 0, 68, 56
2, 136320, Note_on_c, 0, 70, 56
2, 136800, Note_on_c, 0, 70, 0
2, 136800, Note_on_c, 0, 68, 0
2, 136800, Note_on_c, 0, 66, 48
2, 136800, Note_on_c, 0, 70, 65
2, 137757, Note_on_c, 0, 66, 0
2, 137760, Note_on_c, 0, 70, 0
2, 137760, Note_on_c, 0, 69, 67
2, 138000, Note_on_c, 0, 69, 0
2, 138000, Note_on_c, 0, 75, 64
2, 138240, Note_on_c, 0, 75, 0
2, 138240, Note_on_c, 0, 74, 64
2, 139200, Note_on_c, 0, 74, 0
2, 139920, Note_on_c, 0, 72, 64
2, 140000, Note_on_c, 0, 72, 0
2, 140000, Note_on_c, 0, 74, 54
2, 140080, Note_on_c, 0, 74, 0
2, 140080, Note_on_c, 0, 72, 54
2, 140160, Note_on_c, 0, 72, 0
2, 140160, Note_on_c, 0, 71, 58
2, 140400, Note_on_c, 0, 71, 0
2, 140400, Note_on_c, 0, 72, 61
2, 140640, Note_on_c, 0, 72, 0
2, 140640, Note_on_c, 0, 74, 64
2, 140880, Note_on_c, 0, 74, 0
2, 140880, Note_on_c, 0, 75, 62
2, 141120, Note_on_c, 0, 75, 0
2, 141120, Note_on_c, 0, 67, 61
2, 141120, Note_on_c, 0, 70, 61
2, 141360, Note_on_c, 0, 70, 0
2, 141360, Note_on_c, 0, 67, 0
2, 141360, Note_on_c, 0, 72, 63
2, 141600, Note_on_c, 0, 72, 0
2, 141600, Note_on_c, 0, 73, 66
2, 141840, Note_on_c, 0, 73, 0
2, 141840, Note_on_c, 0, 74, 69
2, 142080, Note_on_c, 0, 74, 0
2, 142080, Note_on_c, 0, 79, 70
2, 142320, Note_on_c, 0, 79, 0
2, 142320, Note_on_c, 0, 74, 66
2, 142560, Note_on_c, 0, 74, 0
2, 142560, Note_on_c, 0, 66, 59
2, 142560, Note_on_c, 0, 70, 68
2, 143520, Note_on_c, 0, 70, 0
2, 143520, Note_on_c, 0, 66, 0
2, 143520, Note_on_c, 0, 69, 65
2, 143940, Note_on_c, 0, 69, 0
2, 143940, Note_on_c, 0, 67, 55
2, 143970, Note_on_c, 0, 74, 56
2, 144000, Note_on_c, 0, 79, 60
2, 144240, Note_on_c, 0, 79, 0
2, 144240, Note_on_c, 0, 74, 0
2, 144240, Note_on_c, 0, 67, 0
2, 144240, Note_on_c, 0, 74, 57
2, 144360, Note_on_c, 0, 74, 0
2, 144480, Note_on_c, 0, 75, 60
2, 144600, Note_on_c, 0, 75, 0
2, 144720, Note_on_c, 0, 79, 57
2, 144840, Note_on_c, 0, 79, 0
2, 144960, Note_on_c, 0, 78, 64
2, 145080, Note_on_c, 0, 78, 0
2, 145200, Note_on_c, 0, 81, 59
2, 145320, Note_on_c, 0, 81, 0
2, 145440, Note_on_c, 0, 79, 64
2, 145520, Note_on_c, 0, 79, 0
2, 145520, Note_on_c, 0, 81, 54
2, 145600, Note_on_c, 0, 81, 0
2, 145600, Note_on_c, 0, 79, 54
2, 145680, Note_on_c, 0, 79, 0
2, 145680, Note_on_c, 0, 78, 58
2, 145800, Note_on_c, 0, 78, 0
2, 145920, Note_on_c, 0, 79, 63
2, 146040, Note_on_c, 0, 79, 0
2, 146160, Note_on_c, 0, 82, 60
2, 146280, Note_on_c, 0, 82, 0
2, 146400, Note_on_c, 0, 74, 63
2, 146400, Note_on_c, 0, 81, 63
2, 146520, Note_on_c, 0, 81, 0
2, 146520, Note_on_c, 0, 74, 0
2, 146640, Note_on_c, 0, 84, 60
2, 146760, Note_on_c, 0, 84, 0
2, 146880, Note_on_c, 0, 82, 64
2, 147000, Note_on_c, 0, 82, 0
2, 147120, Note_on_c, 0, 80, 63
2, 147120, Note_on_c, 0, 89, 63
2, 147120, Note_on_c, 0, 86, 63
2, 147240, Note_on_c, 0, 86, 0
2, 147240, Note_on_c, 0, 89, 0
2, 147240, Note_on_c, 0, 80, 0
2, 147360, Note_on_c, 0, 88, 61
2, 147360, Note_on_c, 0, 84, 61
2, 147360, Note_on_c, 0, 79, 61
2, 147480, Note_on_c, 0, 79, 0
2, 147480, Note_on_c, 0, 84, 0
2, 147480, Note_on_c, 0, 88, 0
2, 147600, Note_on_c, 0, 78, 60
2, 147600, Note_on_c, 0, 84, 60
2, 147600, Note_on_c, 0, 87, 60
2, 147720, Note_on_c, 0, 87, 0
2, 147720, Note_on_c, 0, 84, 0
2, 147720, Note_on_c, 0, 78, 0
2, 147840, Note_on_c, 0, 86, 58
2, 147840, Note_on_c, 0, 79, 58
2, 147960, Note_on_c, 0, 79, 0
2, 147960, Note_on_c, 0, 86, 0
2, 148080, Note_on_c, 0, 84, 57
2, 148080, Note_on_c, 0, 81, 57
2, 148080, Note_on_c, 0, 74, 57
2, 148200, Note_on_c, 0, 74, 0
2, 148200, Note_on_c, 0, 81, 0
2, 148200, Note_on_c, 0, 84, 0
2, 148320, Note_on_c, 0, 74, 65
2, 148320, Note_on_c, 0, 79, 65
2, 148320, Note_on_c, 0, 82, 65
2, 148560, Note_on_c, 0, 82, 0
2, 148560, Note_on_c, 0, 79, 0
2, 148560, Note_on_c, 0, 74, 0
2, 148560, Note_on_c, 0, 71, 60
2, 148560, Note_on_c, 0, 80, 60
2, 148800, Note_on_c, 0, 80, 0
2, 148800, Note_on_c, 0, 71, 0
2, 148800, Note_on_c, 0, 79, 57
2, 148800, Note_on_c, 0, 72, 57
2, 149040, Note_on_c, 0, 72, 0
2, 149040, Note_on_c, 0, 73, 60
2, 149280, Note_on_c, 0, 73, 0
2, 149280, Note_on_c, 0, 74, 62
2, 149520, Note_on_c, 0, 74, 0
2, 149520, Note_on_c, 0, 79, 0
2, 149520, Note_on_c, 0, 82, 67
2, 149520, Note_on_c, 0, 79, 67
2, 149520, Note_on_c, 0, 75, 67
2, 149760, Note_on_c, 0, 75, 0
2, 149760, Note_on_c, 0, 79, 0
2, 149760, Note_on_c, 0, 82, 0
2, 149760, Note_on_c, 0, 70, 70
2, 149760, Note_on_c, 0, 74, 70
2, 149760, Note_on_c, 0, 82, 70
2, 149760, Note_on_c, 0, 79, 70
2, 150720, Note_on_c, 0, 79, 0
2, 150720, Note_on_c, 0, 70, 0
2, 150720, Note_on_c, 0, 74, 0
2, 150720, Note_on_c, 0, 82, 0
2, 150720, Note_on_c, 0, 70, 67
2, 150720, Note_on_c, 0, 74, 67
2, 151200, Note_on_c, 0, 74, 0
2, 151200, Note_on_c, 0, 70, 0
2, 151200, Note_on_c, 0, 69, 61
2, 151200, Note_on_c, 0, 72, 61
2, 151320, Note_on_c, 0, 72, 0
2, 151320, Note_on_c, 0, 69, 0
2, 151440, Note_on_c, 0, 72, 67
2, 151440, Note_on_c, 0, 75, 67
2, 151560, Note_on_c, 0, 75, 0
2, 151560, Note_on_c, 0, 72, 0
2, 151680, Note_on_c, 0, 77, 70
2, 151680, Note_on_c, 0, 81, 70
2, 151920, Note_on_c, 0, 81, 0
2, 151920, Note_on_c, 0, 77, 0
2, 152160, Note_on_c, 0, 74, 71
2, 152160, Note_on_c, 0, 77, 71
2, 152280, Note_on_c, 0, 77, 0
2, 152280, Note_on_c, 0, 74, 0
2, 152400, Note_on_c, 0, 70, 65
2, 152400, Note_on_c, 0, 74, 65
2, 152520, Note_on_c, 0, 74, 0
2, 152520, Note_on_c, 0, 70, 0
2, 152640, Note_on_c, 0, 67, 68
2, 152640, Note_on_c, 0, 70, 68
2, 152760, Note_on_c, 0, 70, 0
2, 152760, Note_on_c, 0, 67, 0
2, 152880, Note_on_c, 0, 75, 63
2, 152880, Note_on_c, 0, 79, 63
2, 153000, Note_on_c, 0, 79, 0
2, 153000, Note_on_c, 0, 75, 0
2, 153120, Note_on_c, 0, 72, 67
2, 153120, Note_on_c, 0, 75, 67
2, 153240, Note_on_c, 0, 75, 0
2, 153240, Note_on_c, 0, 72, 0
2, 153360, Note_on_c, 0, 69, 63
2, 153360, Note_on_c, 0, 72, 63
2, 153480, Note_on_c, 0, 72, 0
2, 153480, Note_on_c, 0, 69, 0
2, 153600, Note_on_c, 0, 66, 67
2, 153600, Note_on_c, 0, 69, 67
2, 153720, Note_on_c, 0, 69, 0
2, 153720, Note_on_c, 0, 66, 0
2, 153840, Note_on_c, 0, 74, 64
2, 153840, Note_on_c, 0, 77, 64
2, 153960, Note_on_c, 0, 77, 0
2, 153960, Note_on_c, 0, 74, 0
2, 154080, Note_on_c, 0, 70, 70
2, 154080, Note_on_c, 0, 74, 70
2, 154320, Note_on_c, 0, 74, 0
2, 154320, Note_on_c, 0, 70, 0
2, 154320, Note_on_c, 0, 67, 65
2, 154320, Note_on_c, 0, 70, 65
2, 154560, Note_on_c, 0, 70, 0
2, 154560, Note_on_c, 0, 67, 0
2, 154560, Note_on_c, 0, 63, 62
2, 154560, Note_on_c, 0, 67, 69
2, 154800, Note_on_c, 0, 67, 0
2, 154800, Note_on_c, 0, 70, 63
2, 155040, Note_on_c, 0, 70, 0
2, 155040, Note_on_c, 0, 63, 0
2, 155040, Note_on_c, 0, 60, 55
2, 155040, Note_on_c, 0, 66, 55
2, 155040, Note_on_c, 0, 69, 65
2, 155280, Note_on_c, 0, 69, 0
2, 155280, Note_on_c, 0, 70, 59
2, 155520, Note_on_c, 0, 70, 0
2, 155520, Note_on_c, 0, 66, 0
2, 155520, Note_on_c, 0, 60, 0
2, 155520, Note_on_c, 0, 59, 45
2, 155520, Note_on_c, 0, 62, 45
2, 155520, Note_on_c, 0, 67, 45
2, 155520, Note_on_c, 0, 71, 53
2, 156960, Note_on_c, 0, 71, 0
2, 156960, Note_on_c, 0, 59, 0
2, 156960, Note_on_c, 0, 62, 0
2, 156960, Note_on_c, 0, 67, 0
2, 156960, Note_on_c, 0, 56, 50
2, 157200, Note_on_c, 0, 56, 0
2, 157200, Note_on_c, 0, 60, 51
2, 157440, Note_on_c, 0, 60, 0
2, 157440, Note_on_c, 0, 63, 53
2, 157680, Note_on_c, 0, 63, 0
2, 157680, Note_on_c, 0, 68, 54
2, 157920, Note_on_c, 0, 68, 0
2, 157920, Note_on_c, 0, 70, 56
2, 158160, Note_on_c, 0, 70, 0
2, 158160, Note_on_c, 0, 72, 58
2, 158400, Note_on_c, 0, 72, 0
2, 158400, Note_on_c, 0, 62, 45
2, 158400, Note_on_c, 0, 67, 45
2, 158400, Note_on_c, 0, 71, 45
2, 158400, Note_on_c, 0, 74, 53
2, 159840, Note_on_c, 0, 74, 0
2, 159840, Note_on_c, 0, 62, 0
2, 159840, Note_on_c, 0, 67, 0
2, 159840, Note_on_c, 0, 71, 0
2, 159840, Note_on_c, 0, 56, 50
2, 160080, Note_on_c, 0, 56, 0
2, 160080, Note_on_c, 0, 58, 51
2, 160320, Note_on_c, 0, 58, 0
2, 160320, Note_on_c, 0, 60, 56
2, 160480, Note_on_c, 0, 60, 0
2, 160480, Note_on_c, 0, 63, 53
2, 160640, Note_on_c, 0, 63, 0
2, 160640, Note_on_c, 0, 68, 53
2, 160800, Note_on_c, 0, 68, 0
2, 160800, Note_on_c, 0, 72, 57
2, 160960, Note_on_c, 0, 72, 0
2, 160960, Note_on_c, 0, 75, 53
2, 161120, Note_on_c, 0, 75, 0
2, 161120, Note_on_c, 0, 84, 53
2, 161280, Note_on_c, 0, 84, 0
2, 161280, Note_on_c, 0, 74, 55
2, 161280, Note_on_c, 0, 79, 55
2, 161280, Note_on_c, 0, 83, 55
2, 165600, Note_on_c, 0, 83, 0
2, 165600, Note_on_c, 0, 79, 0
2, 165600, Note_on_c, 0, 74, 0
2, 165600, Note_on_c, 0, 91, 51
2, 165600, Note_on_c, 0, 83, 43
2, 165600, Note_on_c, 0, 86, 43
2, 165600, Note_on_c, 0, 95, 51
2, 167040, Note_on_c, 0, 95, 0
2, 167040, Note_on_c, 0, 91, 0
2, 167040, Note_on_c, 0, 83, 0
2, 167040, Note_on_c, 0, 86, 0
2, 167040, Note_on_c, 0, 59, 35
2, 167040, Note_on_c, 0, 62, 35
2, 167040, Note_on_c, 0, 67, 42
2, 167040, Note_on_c, 0, 71, 42
2, 168480, Note_on_c, 0, 71, 0
2, 168480, Note_on_c, 0, 59, 0
2, 168480, Note_on_c, 0, 62, 0
2, 168480, Note_on_c, 0, 67, 0
2, 168480, End_track
3, 0, Start_track
3, 0, Title_t, "Piano left"
3, 0, Program_c, 0, 0
3, 0, Control_c, 0, 7, 100
3, 0, Control_c, 0, 10, 64
3, 240, Note_on_c, 0, 71, 53
3, 360, Note_on_c, 0, 71, 0
3, 480, Note_on_c, 0, 72, 57
3, 600, Note_on_c, 0, 72, 0
3, 720, Note_on_c, 0, 69, 54
3, 840, Note_on_c, 0, 69, 0
3, 960, Note_on_c, 0, 74, 57
3, 1080, Note_on_c, 0, 74, 0
3, 1200, Note_on_c, 0, 72, 53
3, 1320, Note_on_c, 0, 72, 0
3, 1440, Note_on_c, 0, 70, 57
3, 1560, Note_on_c, 0, 70, 0
3, 1680, Note_on_c, 0, 69, 54
3, 1800, Note_on_c, 0, 69, 0
3, 1920, Note_on_c, 0, 70, 57
3, 2040, Note_on_c, 0, 70, 0
3, 2160, Note_on_c, 0, 67, 54
3, 2280, Note_on_c, 0, 67, 0
3, 2400, Note_on_c, 0, 66, 57
3, 2520, Note_on_c, 0, 66, 0
3, 2640, Note_on_c, 0, 62, 55
3, 2760, Note_on_c, 0, 62, 0
3, 2880, Note_on_c, 0, 67, 57
3, 3000, Note_on_c, 0, 67, 0
3, 3120, Note_on_c, 0, 71, 52
3, 3240, Note_on_c, 0, 71, 0
3, 3360, Note_on_c, 0, 72, 55
3, 3480, Note_on_c, 0, 72, 0
3, 3600, Note_on_c, 0, 69, 52
3, 3720, Note_on_c, 0, 69, 0
3, 3840, Note_on_c, 0, 70, 55
3, 3960, Note_on_c, 0, 70, 0
3, 4080, Note_on_c, 0, 66, 53
3, 4200, Note_on_c, 0, 66, 0
3, 4320, Note_on_c, 0, 67, 57
3, 4331, Control_c, 0, 64, 127
3, 4560, Note_on_c, 0, 67, 0
3, 4560, Note_on_c, 0, 65, 52
3, 4800, Note_on_c, 0, 65, 0
3, 4800, Note_on_c, 0, 64, 54
3, 4812, Control_c, 0, 64, 0
3, 4926, Control_c, 0, 64, 127
3, 5040, Note_on_c, 0, 64, 0
3, 5040, Note_on_c, 0, 63, 57
3, 5280, Note_on_c, 0, 63, 0
3, 5280, Note_on_c, 0, 62, 58
3, 5314, Control_c, 0, 64, 0
3, 5406, Control_c, 0, 64, 127
3, 5520, Note_on_c, 0, 62, 0
3, 5520, Note_on_c, 0, 61, 61
3, 5760, Note_on_c, 0, 61, 0
3, 5760, Note_on_c, 0, 38, 59
3, 5767, Control_c, 0, 64, 0
3, 5958, Control_c, 0, 64, 127
3, 6000, Note_on_c, 0, 38, 0
3, 6000, Note_on_c, 0, 62, 55
3, 6480, Note_on_c, 0, 62, 0
3, 6480, Note_on_c, 0, 62, 51
3, 6960, Note_on_c, 0, 62, 0
3, 6960, Note_on_c, 0, 62, 51
3, 7208, Control_c, 0, 64, 0
3, 7271, Control_c, 0, 64, 127
3, 7440, Note_on_c, 0, 62, 0
3, 7440, Note_on_c, 0, 62, 55
3, 7692, Control_c, 0, 64, 0
3, 7800, Control_c, 0, 64, 127
3, 7920, Note_on_c, 0, 62, 0
3, 7920, Note_on_c, 0, 62, 54
3, 8400, Note_on_c, 0, 62, 0
3, 8400, Note_on_c, 0, 62, 52
3, 8880, Note_on_c, 0, 62, 0
3, 8880, Note_on_c, 0, 62, 55
3, 8889, Control_c, 0, 64, 0
3, 8954, Control_c, 0, 64, 127
3, 9360, Note_on_c, 0, 62, 0
3, 9360, Note_on_c, 0, 62, 51
3, 9609, Control_c, 0, 64, 0
3, 9651, Control_c, 0, 64, 127
3, 9840, Note_on_c, 0, 62, 0
3, 9840, Note_on_c, 0, 62, 51
3, 10090, Control_c, 0, 64, 0
3, 10179, Control_c, 0, 64, 127
3, 10320, Note_on_c, 0, 62, 0
3, 10320, Note_on_c, 0, 62, 51
3, 10560, Note_on_c, 0, 62, 0
3, 10560, Note_on_c, 0, 62, 46
3, 10572, Control_c, 0, 64, 0
3, 10631, Control_c, 0, 64, 127
3, 11040, Note_on_c, 0, 62, 0
3, 11040, Note_on_c, 0, 50, 43
3, 11056, Control_c, 0, 64, 0
3, 11125, Control_c, 0, 64, 127
3, 11520, Note_on_c, 0, 50, 0
3, 11520, Note_on_c, 0, 47, 51
3, 11534, Control_c, 0, 64, 0
3, 11657, Control_c, 0, 64, 127
3, 12000, Note_on_c, 0, 47, 0
3, 12000, Note_on_c, 0, 60, 39
3, 12000, Note_on_c, 0, 62, 29
3, 12000, Note_on_c, 0, 65, 29
3, 12000, Note_on_c, 0, 68, 29
3, 12018, Control_c, 0, 64, 0
3, 12275, Control_c, 0, 64, 127
3, 12480, Note_on_c, 0, 60, 0
3, 12480, Note_on_c, 0, 59, 36
3, 12960, Note_on_c, 0, 59, 0
3, 12960, Note_on_c, 0, 68, 0
3, 12960, Note_on_c, 0, 65, 0
3, 12960, Note_on_c, 0, 62, 0
3, 12960, Note_on_c, 0, 48, 51
3, 12975, Control_c, 0, 64, 0
3, 13013, Control_c, 0, 64, 127
3, 13440, Note_on_c, 0, 48, 0
3, 13440, Note_on_c, 0, 67, 45
3, 13440, Note_on_c, 0, 63, 45
3, 13440, Note_on_c, 0, 57, 45
3, 13456, Control_c, 0, 64, 0
3, 13528, Control_c, 0, 64, 127
3, 14400, Note_on_c, 0, 57, 0
3, 14400, Note_on_c, 0, 63, 0
3, 14400, Note_on_c, 0, 67, 0
3, 14400, Note_on_c, 0, 38, 51
3, 14409, Control_c, 0, 64, 0
3, 14583, Control_c, 0, 64, 127
3, 15360, Note_on_c, 0, 38, 0
3, 15360, Note_on_c, 0, 62, 44
3, 15374, Control_c, 0, 64, 0
3, 15497, Control_c, 0, 64, 127
3, 15600, Note_on_c, 0, 62, 0
3, 15840, Note_on_c, 0, 60, 51
3, 15840, Note_on_c, 0, 50, 51
3, 15855, Control_c, 0, 64, 0
3, 15900, Control_c, 0, 64, 127
3, 16080, Note_on_c, 0, 60, 0
3, 16080, Note_on_c, 0, 61, 44
3, 16320, Note_on_c, 0, 61, 0
3, 16320, Note_on_c, 0, 62, 51
3, 16560, Note_on_c, 0, 62, 0
3, 16560, Note_on_c, 0, 61, 51
3, 16640, Note_on_c, 0, 61, 0
3, 16640, Note_on_c, 0, 62, 45
3, 16720, Note_on_c, 0, 62, 0
3, 16720, Note_on_c, 0, 61, 45
3, 16800, Note_on_c, 0, 61, 0
3, 16800, Note_on_c, 0, 60, 51
3, 16815, Control_c, 0, 64, 0
3, 16867, Control_c, 0, 64, 127
3, 17040, Note_on_c, 0, 60, 0
3, 17040, Note_on_c, 0, 50, 0
3, 17040, Note_on_c, 0, 50, 44
3, 17280, Note_on_c, 0, 50, 0
3, 17280, Control_c, 0, 64, 0
3, 17280, Note_on_c, 0, 43, 44
3, 17280, Note_on_c, 0, 50, 44
3, 17280, Note_on_c, 0, 58, 44
3, 17520, Note_on_c, 0, 58, 0
3, 17520, Note_on_c, 0, 50, 0
3, 17520, Note_on_c, 0, 43, 0
3, 17520, Note_on_c, 0, 71, 53
3, 17640, Note_on_c, 0, 71, 0
3, 17760, Note_on_c, 0, 72, 57
3, 17880, Note_on_c, 0, 72, 0
3, 18000, Note_on_c, 0, 69, 54
3, 18120, Note_on_c, 0, 69, 0
3, 18240, Note_on_c, 0, 74, 57
3, 18360, Note_on_c, 0, 74, 0
3, 18480, Note_on_c, 0, 72, 53
3, 18600, Note_on_c, 0, 72, 0
3, 18720, Note_on_c, 0, 70, 57
3, 18840, Note_on_c, 0, 70, 0
3, 18960, Note_on_c, 0, 69, 55
3, 19080, Note_on_c, 0, 69, 0
3, 19200, Note_on_c, 0, 70, 59
3, 19320, Note_on_c, 0, 70, 0
3, 19440, Note_on_c, 0, 67, 57
3, 19560, Note_on_c, 0, 67, 0
3, 19680, Note_on_c, 0, 66, 62
3, 19800, Note_on_c, 0, 66, 0
3, 19920, Note_on_c, 0, 62, 61
3, 20040, Note_on_c, 0, 62, 0
3, 20160, Note_on_c, 0, 48, 51
3, 20183, Control_c, 0, 64, 127
3, 20640, Note_on_c, 0, 48, 0
3, 20640, Note_on_c, 0, 66, 49
3, 20640, Note_on_c, 0, 60, 41
3, 20640, Note_on_c, 0, 63, 41
3, 20656, Control_c, 0, 64, 0
3, 20983, Control_c, 0, 64, 127
3, 21120, Note_on_c, 0, 66, 0
3, 21120, Note_on_c, 0, 67, 54
3, 21600, Note_on_c, 0, 67, 0
3, 21600, Note_on_c, 0, 63, 0
3, 21600, Note_on_c, 0, 60, 0
3, 21600, Note_on_c, 0, 41, 51
3, 21612, Control_c, 0, 64, 0
3, 21660, Control_c, 0, 64, 127
3, 22080, Note_on_c, 0, 41, 0
3, 22080, Note_on_c, 0, 68, 55
3, 22080, Note_on_c, 0, 60, 41
3, 22080, Note_on_c, 0, 63, 41
3, 22091, Control_c, 0, 64, 0
3, 22194, Control_c, 0, 64, 127
3, 22560, Note_on_c, 0, 68, 0
3, 22560, Note_on_c, 0, 69, 56
3, 23040, Note_on_c, 0, 69, 0
3, 23040, Note_on_c, 0, 63, 0
3, 23040, Note_on_c, 0, 60, 0
3, 23040, Note_on_c, 0, 46, 57
3, 23055, Control_c, 0, 64, 0
3, 23246, Control_c, 0, 64, 127
3, 23520, Note_on_c, 0, 46, 0
3, 23520, Note_on_c, 0, 61, 46
3, 23520, Note_on_c, 0, 69, 55
3, 23520, Note_on_c, 0, 66, 46
3, 23760, Note_on_c, 0, 66, 0
3, 23760, Note_on_c, 0, 69, 0
3, 23760, Note_on_c, 0, 61, 0
3, 23760, Note_on_c, 0, 62, 51
3, 23760, Note_on_c, 0, 70, 60
3, 24000, Note_on_c, 0, 70, 0
3, 24000, Note_on_c, 0, 62, 0
3, 24000, Note_on_c, 0, 59, 55
3, 24014, Control_c, 0, 64, 0
3, 24172, Control_c, 0, 64, 127
3, 24480, Note_on_c, 0, 59, 0
3, 24480, Note_on_c, 0, 48, 60
3, 24488, Control_c, 0, 64, 0
3, 24606, Control_c, 0, 64, 127
3, 24960, Note_on_c, 0, 48, 0
3, 24960, Note_on_c, 0, 59, 49
3, 24972, Control_c, 0, 64, 0
3, 25109, Control_c, 0, 64, 127
3, 25200, Note_on_c, 0, 59, 0
3, 25200, Note_on_c, 0, 60, 52
3, 25440, Note_on_c, 0, 60, 0
3, 25440, Note_on_c, 0, 62, 55
3, 25680, Note_on_c, 0, 62, 0
3, 25680, Note_on_c, 0, 63, 57
3, 25920, Note_on_c, 0, 63, 0
3, 25920, Control_c, 0, 64, 0
3, 25920, Note_on_c, 0, 41, 63
3, 26160, Note_on_c, 0, 41, 0
3, 26160, Note_on_c, 0, 74, 53
3, 26280, Note_on_c, 0, 74, 0
3, 26400, Note_on_c, 0, 75, 57
3, 26520, Note_on_c, 0, 75, 0
3, 26640, Note_on_c, 0, 72, 54
3, 26760, Note_on_c, 0, 72, 0
3, 26880, Note_on_c, 0, 77, 57
3, 27000, Note_on_c, 0, 77, 0
3, 27120, Note_on_c, 0, 75, 53
3, 27240, Note_on_c, 0, 75, 0
3, 27360, Note_on_c, 0, 74, 57
3, 27480, Note_on_c, 0, 74, 0
3, 27600, Note_on_c, 0, 73, 54
3, 27720, Note_on_c, 0, 73, 0
3, 27840, Note_on_c, 0, 74, 57
3, 27960, Note_on_c, 0, 74, 0
3, 28080, Note_on_c, 0, 70, 53
3, 28200, Note_on_c, 0, 70, 0
3, 28320, Note_on_c, 0, 69, 55
3, 28440, Note_on_c, 0, 69, 0
3, 28560, Note_on_c, 0, 65, 51
3, 28680, Note_on_c, 0, 65, 0
3, 28800, Note_on_c, 0, 46, 51
3, 28853, Control_c, 0, 64, 127
3, 29280, Note_on_c, 0, 46, 0
3, 29280, Note_on_c, 0, 62, 45
3, 29280, Note_on_c, 0, 53, 45
3, 29294, Control_c, 0, 64, 0
3, 29548, Control_c, 0, 64, 127
3, 30240, Note_on_c, 0, 53, 0
3, 30240, Note_on_c, 0, 62, 0
3, 30240, Note_on_c, 0, 46, 48
3, 30250, Control_c, 0, 64, 0
3, 30286, Control_c, 0, 64, 127
3, 30720, Note_on_c, 0, 46, 0
3, 30720, Note_on_c, 0, 63, 44
3, 30720, Note_on_c, 0, 59, 37
3, 30720, Note_on_c, 0, 54, 37
3, 30734, Control_c, 0, 64, 0
3, 30801, Control_c, 0, 64, 127
3, 31680, Note_on_c, 0, 54, 0
3, 31680, Note_on_c, 0, 59, 0
3, 31680, Note_on_c, 0, 63, 0
3, 31680, Note_on_c, 0, 46, 52
3, 31688, Control_c, 0, 64, 0
3, 31901, Control_c, 0, 64, 127
3, 31920, Note_on_c, 0, 46, 0
3, 31920, Note_on_c, 0, 58, 52
3, 32160, Note_on_c, 0, 58, 0
3, 32160, Note_on_c, 0, 60, 54
3, 32400, Note_on_c, 0, 60, 0
3, 32400, Note_on_c, 0, 62, 51
3, 32640, Note_on_c, 0, 62, 0
3, 32640, Note_on_c, 0, 65, 55
3, 32659, Control_c, 0, 64, 0
3, 32809, Control_c, 0, 64, 127
3, 32880, Note_on_c, 0, 65, 0
3, 32880, Note_on_c, 0, 62, 53
3, 33120, Note_on_c, 0, 62, 0
3, 33120, Note_on_c, 0, 63, 48
3, 33132, Control_c, 0, 64, 0
3, 33180, Control_c, 0, 64, 127
3, 33200, Note_on_c, 0, 63, 0
3, 33200, Note_on_c, 0, 65, 42
3, 33280, Note_on_c, 0, 65, 0
3, 33280, Note_on_c, 0, 63, 42
3, 33360, Note_on_c, 0, 63, 0
3, 33360, Note_on_c, 0, 62, 46
3, 33600, Note_on_c, 0, 62, 0
3, 33600, Note_on_c, 0, 63, 55
3, 33840, Note_on_c, 0, 63, 0
3, 33840, Note_on_c, 0, 65, 57
3, 34080, Note_on_c, 0, 65, 0
3, 34080, Note_on_c, 0, 66, 61
3, 34092, Control_c, 0, 64, 0
3, 34154, Control_c, 0, 64, 127
3, 34560, Note_on_c, 0, 66, 0
3, 34560, Note_on_c, 0, 46, 51
3, 34571, Control_c, 0, 64, 0
3, 34732, Control_c, 0, 64, 127
3, 35040, Note_on_c, 0, 46, 0
3, 35040, Note_on_c, 0, 56, 37
3, 35040, Note_on_c, 0, 68, 45
3, 35040, Note_on_c, 0, 62, 45
3, 35056, Control_c, 0, 64, 0
3, 35269, Control_c, 0, 64, 127
3, 35520, Note_on_c, 0, 56, 0
3, 35520, Note_on_c, 0, 59, 37
3, 36000, Note_on_c, 0, 59, 0
3, 36000, Note_on_c, 0, 62, 0
3, 36000, Note_on_c, 0, 68, 0
3, 36000, Control_c, 0, 64, 0
3, 36000, Note_on_c, 0, 46, 48
3, 36046, Control_c, 0, 64, 127
3, 36480, Note_on_c, 0, 46, 0
3, 36480, Note_on_c, 0, 66, 44
3, 36480, Note_on_c, 0, 58, 37
3, 36494, Control_c, 0, 64, 0
3, 36549, Control_c, 0, 64, 127
3, 37440, Note_on_c, 0, 58, 0
3, 37440, Note_on_c, 0, 66, 0
3, 37440, Note_on_c, 0, 46, 57
3, 37450, Control_c, 0, 64, 0
3, 37596, Control_c, 0, 64, 127
3, 37680, Note_on_c, 0, 46, 0
3, 37680, Note_on_c, 0, 58, 55
3, 37920, Note_on_c, 0, 58, 0
3, 37920, Note_on_c, 0, 60, 57
3, 38160, Note_on_c, 0, 60, 0
3, 38160, Note_on_c, 0, 62, 54
3, 38400, Note_on_c, 0, 62, 0
3, 38400, Note_on_c, 0, 65, 58
3, 38410, Control_c, 0, 64, 0
3, 38556, Control_c, 0, 64, 127
3, 38640, Note_on_c, 0, 65, 0
3, 38640, Note_on_c, 0, 62, 55
3, 38880, Note_on_c, 0, 62, 0
3, 38880, Note_on_c, 0, 63, 52
3, 38891, Control_c, 0, 64, 0
3, 38933, Control_c, 0, 64, 127
3, 38960, Note_on_c, 0, 63, 0
3, 38960, Note_on_c, 0, 65, 44
3, 39040, Note_on_c, 0, 65, 0
3, 39040, Note_on_c, 0, 63, 44
3, 39120, Note_on_c, 0, 63, 0
3, 39120, Note_on_c, 0, 62, 49
3, 39360, Note_on_c, 0, 62, 0
3, 39360, Note_on_c, 0, 63, 58
3, 39600, Note_on_c, 0, 63, 0
3, 39600, Note_on_c, 0, 65, 61
3, 39840, Note_on_c, 0, 65, 0
3, 39840, Note_on_c, 0, 66, 65
3, 39853, Control_c, 0, 64, 0
3, 39936, Control_c, 0, 64, 127
3, 40320, Note_on_c, 0, 66, 0
3, 40320, Note_on_c, 0, 46, 58
3, 40331, Control_c, 0, 64, 0
3, 40663, Control_c, 0, 64, 127
3, 40800, Note_on_c, 0, 46, 0
3, 40800, Note_on_c, 0, 64, 49
3, 40800, Note_on_c, 0, 62, 41
3, 40800, Note_on_c, 0, 58, 41
3, 41280, Note_on_c, 0, 64, 0
3, 41280, Note_on_c, 0, 65, 46
3, 41760, Note_on_c, 0, 65, 0
3, 41760, Note_on_c, 0, 58, 0
3, 41760, Note_on_c, 0, 62, 0
3, 41760, Note_on_c, 0, 48, 51
3, 41771, Control_c, 0, 64, 0
3, 41852, Control_c, 0, 64, 127
3, 42240, Note_on_c, 0, 48, 0
3, 42240, Note_on_c, 0, 70, 38
3, 42240, Note_on_c, 0, 67, 38
3, 42240, Note_on_c, 0, 63, 38
3, 42240, Note_on_c, 0, 60, 38
3, 42256, Control_c, 0, 64, 0
3, 42328, Control_c, 0, 64, 127
3, 42720, Note_on_c, 0, 70, 0
3, 42720, Note_on_c, 0, 69, 45
3, 43200, Note_on_c, 0, 69, 0
3, 43200, Note_on_c, 0, 60, 0
3, 43200, Note_on_c, 0, 63, 0
3, 43200, Note_on_c, 0, 67, 0
3, 43200, Note_on_c, 0, 38, 51
3, 43212, Control_c, 0, 64, 0
3, 43395, Control_c, 0, 64, 127
3, 44160, Note_on_c, 0, 38, 0
3, 44160, Note_on_c, 0, 62, 44
3, 44175, Control_c, 0, 64, 0
3, 44297, Control_c, 0, 64, 127
3, 44400, Note_on_c, 0, 62, 0
3, 44640, Note_on_c, 0, 60, 51
3, 44640, Note_on_c, 0, 50, 48
3, 44651, Control_c, 0, 64, 0
3, 44714, Control_c, 0, 64, 127
3, 44880, Note_on_c, 0, 60, 0
3, 44880, Note_on_c, 0, 61, 44
3, 45120, Note_on_c, 0, 61, 0
3, 45120, Note_on_c, 0, 62, 51
3, 45360, Note_on_c, 0, 62, 0
3, 45360, Note_on_c, 0, 61, 51
3, 45440, Note_on_c, 0, 61, 0
3, 45440, Note_on_c, 0, 62, 45
3, 45520, Note_on_c, 0, 62, 0
3, 45520, Note_on_c, 0, 61, 45
3, 45600, Note_on_c, 0, 61, 0
3, 45600, Note_on_c, 0, 60, 51
3, 45612, Control_c, 0, 64, 0
3, 45667, Control_c, 0, 64, 127
3, 45840, Note_on_c, 0, 60, 0
3, 45840, Note_on_c, 0, 50, 0
3, 45840, Note_on_c, 0, 50, 44
3, 46080, Note_on_c, 0, 50, 0
3, 46080, Note_on_c, 0, 43, 44
3, 46080, Note_on_c, 0, 50, 44
3, 46080, Note_on_c, 0, 58, 44
3, 46094, Control_c, 0, 64, 0
3, 46320, Note_on_c, 0, 58, 0
3, 46320, Note_on_c, 0, 50, 0
3, 46320, Note_on_c, 0, 43, 0
3, 46320, Note_on_c, 0, 71, 53
3, 46440, Note_on_c, 0, 71, 0
3, 46560, Note_on_c, 0, 72, 57
3, 46680, Note_on_c, 0, 72, 0
3, 46800, Note_on_c, 0, 69, 54
3, 46920, Note_on_c, 0, 69, 0
3, 47040, Note_on_c, 0, 74, 57
3, 47160, Note_on_c, 0, 74, 0
3, 47280, Note_on_c, 0, 72, 53
3, 47400, Note_on_c, 0, 72, 0
3, 47520, Note_on_c, 0, 70, 57
3, 47640, Note_on_c, 0, 70, 0
3, 47760, Note_on_c, 0, 69, 54
3, 47880, Note_on_c, 0, 69, 0
3, 48000, Note_on_c, 0, 70, 57
3, 48120, Note_on_c, 0, 70, 0
3, 48240, Note_on_c, 0, 67, 54
3, 48360, Note_on_c, 0, 67, 0
3, 48480, Note_on_c, 0, 66, 57
3, 48600, Note_on_c, 0, 66, 0
3, 48720, Note_on_c, 0, 62, 55
3, 48840, Note_on_c, 0, 62, 0
3, 48960, Note_on_c, 0, 67, 57
3, 49080, Note_on_c, 0, 67, 0
3, 49200, Note_on_c, 0, 71, 52
3, 49320, Note_on_c, 0, 71, 0
3, 49440, Note_on_c, 0, 72, 55
3, 49560, Note_on_c, 0, 72, 0
3, 49680, Note_on_c, 0, 69, 52
3, 49800, Note_on_c, 0, 69, 0
3, 49920, Note_on_c, 0, 70, 55
3, 50040, Note_on_c, 0, 70, 0
3, 50160, Note_on_c, 0, 66, 53
3, 50280, Note_on_c, 0, 66, 0
3, 50400, Note_on_c, 0, 67, 57
3, 50469, Control_c, 0, 64, 127
3, 50640, Note_on_c, 0, 67, 0
3, 50640, Note_on_c, 0, 65, 52
3, 50880, Note_on_c, 0, 65, 0
3, 50880, Note_on_c, 0, 64, 54
3, 50892, Control_c, 0, 64, 0
3, 51017, Control_c, 0, 64, 127
3, 51120, Note_on_c, 0, 64, 0
3, 51120, Note_on_c, 0, 63, 57
3, 51360, Note_on_c, 0, 63, 0
3, 51360, Note_on_c, 0, 62, 58
3, 51378, Control_c, 0, 64, 0
3, 51486, Control_c, 0, 64, 127
3, 51600, Note_on_c, 0, 62, 0
3, 51600, Note_on_c, 0, 61, 61
3, 51840, Note_on_c, 0, 61, 0
3, 51840, Note_on_c, 0, 38, 59
3, 51852, Control_c, 0, 64, 0
3, 52080, Note_on_c, 0, 38, 0
3, 52080, Control_c, 0, 64, 127
3, 52080, Note_on_c, 0, 62, 57
3, 52560, Note_on_c, 0, 62, 0
3, 52560, Note_on_c, 0, 62, 51
3, 53040, Note_on_c, 0, 62, 0
3, 53040, Note_on_c, 0, 62, 51
3, 53294, Control_c, 0, 64, 0
3, 53372, Control_c, 0, 64, 127
3, 53520, Note_on_c, 0, 62, 0
3, 53520, Note_on_c, 0, 62, 56
3, 53779, Control_c, 0, 64, 0
3, 53880, Control_c, 0, 64, 127
3, 54000, Note_on_c, 0, 62, 0
3, 54000, Note_on_c, 0, 62, 54
3, 54480, Note_on_c, 0, 62, 0
3, 54480, Note_on_c, 0, 62, 52
3, 54960, Note_on_c, 0, 62, 0
3, 54960, Note_on_c, 0, 62, 56
3, 54970, Control_c, 0, 64, 0
3, 55086, Control_c, 0, 64, 127
3, 55440, Note_on_c, 0, 62, 0
3, 55440, Note_on_c, 0, 62, 51
3, 55695, Control_c, 0, 64, 0
3, 55800, Control_c, 0, 64, 127
3, 55920, Note_on_c, 0, 62, 0
3, 55920, Note_on_c, 0, 62, 51
3, 56172, Control_c, 0, 64, 0
3, 56263, Control_c, 0, 64, 127
3, 56400, Note_on_c, 0, 62, 0
3, 56400, Note_on_c, 0, 62, 51
3, 56640, Note_on_c, 0, 62, 0
3, 56640, Note_on_c, 0, 62, 46
3, 56653, Control_c, 0, 64, 0
3, 56732, Control_c, 0, 64, 127
3, 57120, Note_on_c, 0, 62, 0
3, 57120, Note_on_c, 0, 50, 43
3, 57130, Control_c, 0, 64, 0
3, 57292, Control_c, 0, 64, 127
3, 57600, Note_on_c, 0, 50, 0
3, 57600, Control_c, 0, 64, 0
3, 57600, Note_on_c, 0, 43, 35
3, 57600, Note_on_c, 0, 50, 42
3, 57713, Control_c, 0, 64, 127
3, 58094, Control_c, 0, 64, 0
3, 58200, Control_c, 0, 64, 127
3, 58560, Note_on_c, 0, 50, 0
3, 58560, Note_on_c, 0, 43, 0
3, 58560, Note_on_c, 0, 38, 32
3, 58560, Note_on_c, 0, 50, 38
3, 59040, Note_on_c, 0, 50, 0
3, 59040, Note_on_c, 0, 38, 0
3, 59040, Note_on_c, 0, 44, 36
3, 59040, Note_on_c, 0, 50, 43
3, 59047, Control_c, 0, 64, 0
3, 59203, Control_c, 0, 64, 127
3, 59538, Control_c, 0, 64, 0
3, 59633, Control_c, 0, 64, 127
3, 60000, Note_on_c, 0, 50, 0
3, 60000, Note_on_c, 0, 44, 0
3, 60000, Note_on_c, 0, 38, 32
3, 60000, Note_on_c, 0, 50, 38
3, 60480, Note_on_c, 0, 50, 0
3, 60480, Note_on_c, 0, 38, 0
3, 60480, Note_on_c, 0, 45, 35
3, 60480, Note_on_c, 0, 50, 42
3, 60490, Control_c, 0, 64, 0
3, 60551, Control_c, 0, 64, 127
3, 60974, Control_c, 0, 64, 0
3, 61073, Control_c, 0, 64, 127
3, 61440, Note_on_c, 0, 50, 0
3, 61440, Note_on_c, 0, 45, 0
3, 61440, Note_on_c, 0, 38, 32
3, 61440, Note_on_c, 0, 50, 38
3, 61920, Note_on_c, 0, 50, 0
3, 61920, Note_on_c, 0, 38, 0
3, 61920, Note_on_c, 0, 42, 35
3, 61920, Note_on_c, 0, 50, 42
3, 61931, Control_c, 0, 64, 0
3, 62026, Control_c, 0, 64, 127
3, 62414, Control_c, 0, 64, 0
3, 62513, Control_c, 0, 64, 127
3, 62880, Note_on_c, 0, 50, 0
3, 62880, Note_on_c, 0, 42, 0
3, 62880, Note_on_c, 0, 38, 32
3, 62880, Note_on_c, 0, 50, 38
3, 63360, Note_on_c, 0, 50, 0
3, 63360, Note_on_c, 0, 38, 0
3, 63360, Note_on_c, 0, 43, 35
3, 63360, Note_on_c, 0, 50, 42
3, 63369, Control_c, 0, 64, 0
3, 63459, Control_c, 0, 64, 127
3, 63854, Control_c, 0, 64, 0
3, 63946, Control_c, 0, 64, 127
3, 64320, Note_on_c, 0, 50, 0
3, 64320, Note_on_c, 0, 43, 0
3, 64320, Note_on_c, 0, 38, 32
3, 64320, Note_on_c, 0, 50, 38
3, 64800, Note_on_c, 0, 50, 0
3, 64800, Note_on_c, 0, 38, 0
3, 64800, Note_on_c, 0, 56, 39
3, 64800, Note_on_c, 0, 52, 35
3, 64811, Control_c, 0, 64, 0
3, 64892, Control_c, 0, 64, 127
3, 65040, Note_on_c, 0, 56, 0
3, 65040, Note_on_c, 0, 59, 38
3, 65160, Note_on_c, 0, 59, 0
3, 65160, Note_on_c, 0, 57, 38
3, 65280, Note_on_c, 0, 57, 0
3, 65280, Note_on_c, 0, 56, 39
3, 65296, Control_c, 0, 64, 0
3, 65394, Control_c, 0, 64, 127
3, 65760, Note_on_c, 0, 56, 0
3, 65760, Note_on_c, 0, 52, 0
3, 65760, Note_on_c, 0, 52, 38
3, 66240, Note_on_c, 0, 52, 0
3, 66240, Note_on_c, 0, 45, 35
3, 66240, Note_on_c, 0, 52, 42
3, 66250, Control_c, 0, 64, 0
3, 66315, Control_c, 0, 64, 127
3, 66732, Control_c, 0, 64, 0
3, 66800, Control_c, 0, 64, 127
3, 67200, Note_on_c, 0, 52, 0
3, 67200, Note_on_c, 0, 51, 46
3, 67214, Control_c, 0, 64, 0
3, 67257, Control_c, 0, 64, 127
3, 67320, Note_on_c, 0, 51, 0
3, 67320, Note_on_c, 0, 53, 32
3, 67440, Note_on_c, 0, 53, 0
3, 67440, Note_on_c, 0, 51, 34
3, 67680, Note_on_c, 0, 51, 0
3, 67680, Note_on_c, 0, 45, 0
3, 67680, Note_on_c, 0, 38, 38
3, 67698, Control_c, 0, 64, 0
3, 67779, Control_c, 0, 64, 127
3, 68160, Note_on_c, 0, 55, 41
3, 68176, Control_c, 0, 64, 0
3, 68259, Control_c, 0, 64, 127
3, 68640, Note_on_c, 0, 55, 0
3, 68640, Note_on_c, 0, 54, 37
3, 68656, Control_c, 0, 64, 0
3, 68753, Control_c, 0, 64, 127
3, 69120, Note_on_c, 0, 54, 0
3, 69120, Note_on_c, 0, 38, 0
3, 69120, Note_on_c, 0, 43, 25
3, 69120, Note_on_c, 0, 50, 39
3, 69136, Control_c, 0, 64, 0
3, 69233, Control_c, 0, 64, 127
3, 69614, Control_c, 0, 64, 0
3, 69734, Control_c, 0, 64, 127
3, 70080, Note_on_c, 0, 50, 0
3, 70080, Note_on_c, 0, 43, 0
3, 70080, Note_on_c, 0, 38, 32
3, 70080, Note_on_c, 0, 50, 38
3, 70560, Note_on_c, 0, 50, 0
3, 70560, Note_on_c, 0, 38, 0
3, 70560, Note_on_c, 0, 44, 34
3, 70560, Note_on_c, 0, 50, 41
3, 70572, Control_c, 0, 64, 0
3, 70680, Control_c, 0, 64, 127
3, 71061, Control_c, 0, 64, 0
3, 71153, Control_c, 0, 64, 127
3, 71520, Note_on_c, 0, 50, 0
3, 71520, Note_on_c, 0, 44, 0
3, 71520, Note_on_c, 0, 38, 32
3, 71520, Note_on_c, 0, 50, 38
3, 72000, Note_on_c, 0, 50, 0
3, 72000, Note_on_c, 0, 38, 0
3, 72000, Note_on_c, 0, 45, 35
3, 72000, Note_on_c, 0, 50, 42
3, 72015, Control_c, 0, 64, 0
3, 72099, Control_c, 0, 64, 127
3, 72494, Control_c, 0, 64, 0
3, 72593, Control_c, 0, 64, 127
3, 72960, Note_on_c, 0, 50, 0
3, 72960, Note_on_c, 0, 45, 0
3, 72960, Note_on_c, 0, 38, 32
3, 72960, Note_on_c, 0, 50, 38
3, 73440, Note_on_c, 0, 50, 0
3, 73440, Note_on_c, 0, 38, 0
3, 73440, Note_on_c, 0, 42, 35
3, 73440, Note_on_c, 0, 50, 42
3, 73452, Control_c, 0, 64, 0
3, 73546, Control_c, 0, 64, 127
3, 73934, Control_c, 0, 64, 0
3, 74012, Control_c, 0, 64, 127
3, 74400, Note_on_c, 0, 50, 0
3, 74400, Note_on_c, 0, 42, 0
3, 74400, Note_on_c, 0, 38, 32
3, 74400, Note_on_c, 0, 50, 38
3, 74880, Note_on_c, 0, 50, 0
3, 74880, Note_on_c, 0, 38, 0
3, 74880, Note_on_c, 0, 43, 35
3, 74880, Note_on_c, 0, 50, 42
3, 74892, Control_c, 0, 64, 0
3, 74986, Control_c, 0, 64, 127
3, 75374, Control_c, 0, 64, 0
3, 75487, Control_c, 0, 64, 127
3, 75840, Note_on_c, 0, 50, 0
3, 75840, Note_on_c, 0, 43, 0
3, 75840, Note_on_c, 0, 55, 47
3, 76320, Note_on_c, 0, 55, 0
3, 76320, Note_on_c, 0, 49, 51
3, 76332, Control_c, 0, 64, 0
3, 76412, Control_c, 0, 64, 127
3, 76440, Note_on_c, 0, 50, 39
3, 76460, Note_on_c, 0, 49, 0
3, 76560, Note_on_c, 0, 49, 49
3, 76580, Note_on_c, 0, 50, 0
3, 76818, Control_c, 0, 64, 0
3, 76949, Control_c, 0, 64, 127
3, 77040, Note_on_c, 0, 54, 46
3, 77280, Note_on_c, 0, 54, 0
3, 77280, Note_on_c, 0, 55, 50
3, 77520, Note_on_c, 0, 55, 0
3, 77520, Note_on_c, 0, 49, 0
3, 77520, Note_on_c, 0, 61, 44
3, 77760, Note_on_c, 0, 61, 0
3, 77760, Note_on_c, 0, 54, 49
3, 77771, Control_c, 0, 64, 0
3, 77873, Control_c, 0, 64, 127
3, 78257, Control_c, 0, 64, 0
3, 78424, Control_c, 0, 64, 127
3, 78720, Note_on_c, 0, 54, 0
3, 78720, Note_on_c, 0, 42, 46
3, 78741, Control_c, 0, 64, 0
3, 78840, Control_c, 0, 64, 127
3, 79200, Note_on_c, 0, 42, 0
3, 79200, Note_on_c, 0, 47, 48
3, 79211, Control_c, 0, 64, 0
3, 79363, Control_c, 0, 64, 127
3, 79440, Note_on_c, 0, 57, 47
3, 79560, Note_on_c, 0, 57, 0
3, 79560, Note_on_c, 0, 55, 45
3, 79680, Note_on_c, 0, 55, 0
3, 79680, Note_on_c, 0, 53, 49
3, 79696, Control_c, 0, 64, 0
3, 79814, Control_c, 0, 64, 127
3, 79920, Note_on_c, 0, 53, 0
3, 79920, Note_on_c, 0, 54, 46
3, 80160, Note_on_c, 0, 54, 0
3, 80160, Note_on_c, 0, 59, 52
3, 80174, Control_c, 0, 64, 0
3, 80330, Control_c, 0, 64, 127
3, 80640, Note_on_c, 0, 59, 0
3, 80640, Note_on_c, 0, 47, 0
3, 80640, Note_on_c, 0, 38, 62
3, 80652, Control_c, 0, 64, 0
3, 80767, Control_c, 0, 64, 127
3, 80880, Note_on_c, 0, 38, 0
3, 80880, Note_on_c, 0, 62, 53
3, 81000, Note_on_c, 0, 62, 0
3, 81000, Note_on_c, 0, 62, 53
3, 81120, Note_on_c, 0, 62, 0
3, 81120, Note_on_c, 0, 62, 59
3, 81360, Note_on_c, 0, 62, 0
3, 81360, Note_on_c, 0, 62, 55
3, 81600, Note_on_c, 0, 62, 0
3, 81616, Control_c, 0, 64, 0
3, 81727, Control_c, 0, 64, 127
3, 81840, Note_on_c, 0, 62, 55
3, 82320, Note_on_c, 0, 62, 0
3, 82320, Note_on_c, 0, 62, 53
3, 82800, Note_on_c, 0, 62, 0
3, 82800, Note_on_c, 0, 62, 53
3, 83280, Note_on_c, 0, 62, 0
3, 83280, Note_on_c, 0, 62, 49
3, 83536, Control_c, 0, 64, 0
3, 83680, Control_c, 0, 64, 127
3, 83760, Note_on_c, 0, 62, 0
3, 83760, Note_on_c, 0, 62, 51
3, 84240, Note_on_c, 0, 62, 0
3, 84240, Note_on_c, 0, 62, 55
3, 84492, Control_c, 0, 64, 0
3, 84629, Control_c, 0, 64, 127
3, 84720, Note_on_c, 0, 62, 0
3, 84720, Note_on_c, 0, 62, 54
3, 84972, Control_c, 0, 64, 0
3, 85143, Control_c, 0, 64, 127
3, 85200, Note_on_c, 0, 62, 0
3, 85200, Note_on_c, 0, 62, 57
3, 85680, Note_on_c, 0, 62, 0
3, 85680, Note_on_c, 0, 62, 51
3, 85933, Control_c, 0, 64, 0
3, 86023, Control_c, 0, 64, 127
3, 86160, Note_on_c, 0, 62, 0
3, 86160, Note_on_c, 0, 62, 51
3, 86400, Note_on_c, 0, 62, 0
3, 86400, Note_on_c, 0, 38, 62
3, 86412, Control_c, 0, 64, 0
3, 86534, Control_c, 0, 64, 127
3, 86640, Note_on_c, 0, 38, 0
3, 86640, Note_on_c, 0, 62, 48
3, 86760, Note_on_c, 0, 62, 0
3, 86760, Note_on_c, 0, 62, 48
3, 86880, Note_on_c, 0, 62, 0
3, 86880, Note_on_c, 0, 62, 52
3, 87120, Note_on_c, 0, 62, 0
3, 87120, Note_on_c, 0, 62, 49
3, 87360, Note_on_c, 0, 62, 0
3, 87371, Control_c, 0, 64, 0
3, 87480, Control_c, 0, 64, 127
3, 87600, Note_on_c, 0, 62, 49
3, 87846, Control_c, 0, 64, 0
3, 88024, Control_c, 0, 64, 127
3, 88080, Note_on_c, 0, 62, 0
3, 88080, Note_on_c, 0, 62, 48
3, 88560, Note_on_c, 0, 62, 0
3, 88560, Note_on_c, 0, 62, 48
3, 89040, Note_on_c, 0, 62, 0
3, 89040, Note_on_c, 0, 62, 44
3, 89290, Control_c, 0, 64, 0
3, 89463, Control_c, 0, 64, 127
3, 89520, Note_on_c, 0, 62, 0
3, 89520, Note_on_c, 0, 62, 46
3, 90000, Note_on_c, 0, 62, 0
3, 90000, Note_on_c, 0, 62, 45
3, 90251, Control_c, 0, 64, 0
3, 90377, Control_c, 0, 64, 127
3, 90480, Note_on_c, 0, 62, 0
3, 90480, Note_on_c, 0, 62, 50
3, 90732, Control_c, 0, 64, 0
3, 90880, Control_c, 0, 64, 127
3, 90960, Note_on_c, 0, 62, 0
3, 90960, Note_on_c, 0, 62, 48
3, 91440, Note_on_c, 0, 62, 0
3, 91440, Note_on_c, 0, 62, 42
3, 91692, Control_c, 0, 64, 0
3, 91806, Control_c, 0, 64, 127
3, 91920, Note_on_c, 0, 62, 0
3, 91920, Note_on_c, 0, 62, 40
3, 92160, Note_on_c, 0, 62, 0
3, 92170, Control_c, 0, 64, 0
3, 92337, Control_c, 0, 64, 127
3, 92400, Note_on_c, 0, 63, 51
3, 92520, Note_on_c, 0, 63, 0
3, 92520, Note_on_c, 0, 65, 50
3, 92640, Note_on_c, 0, 65, 0
3, 92640, Note_on_c, 0, 63, 54
3, 92880, Note_on_c, 0, 63, 0
3, 92880, Note_on_c, 0, 62, 49
3, 93120, Note_on_c, 0, 62, 0
3, 93120, Note_on_c, 0, 63, 54
3, 93360, Note_on_c, 0, 63, 0
3, 93360, Note_on_c, 0, 62, 50
3, 93600, Note_on_c, 0, 62, 0
3, 93600, Note_on_c, 0, 61, 51
3, 93613, Control_c, 0, 64, 0
3, 93737, Control_c, 0, 64, 127
3, 95040, Note_on_c, 0, 61, 0
3, 95040, Note_on_c, 0, 73, 54
3, 95052, Control_c, 0, 64, 0
3, 95235, Control_c, 0, 64, 127
3, 96480, Note_on_c, 0, 73, 0
3, 96480, Note_on_c, 0, 61, 51
3, 96489, Control_c, 0, 64, 0
3, 96606, Control_c, 0, 64, 127
3, 97920, Note_on_c, 0, 61, 0
3, 97920, Note_on_c, 0, 37, 56
3, 97931, Control_c, 0, 64, 0
3, 98046, Control_c, 0, 64, 127
3, 98160, Note_on_c, 0, 37, 0
3, 98160, Note_on_c, 0, 63, 51
3, 98280, Note_on_c, 0, 63, 0
3, 98280, Note_on_c, 0, 65, 50
3, 98400, Note_on_c, 0, 65, 0
3, 98400, Note_on_c, 0, 63, 54
3, 98640, Note_on_c, 0, 63, 0
3, 98640, Note_on_c, 0, 62, 49
3, 98880, Note_on_c, 0, 62, 0
3, 98880, Note_on_c, 0, 63, 54
3, 99120, Note_on_c, 0, 63, 0
3, 99120, Note_on_c, 0, 62, 50
3, 99360, Note_on_c, 0, 62, 0
3, 99360, Note_on_c, 0, 61, 51
3, 99374, Control_c, 0, 64, 0
3, 99509, Control_c, 0, 64, 127
3, 100800, Note_on_c, 0, 61, 0
3, 100800, Note_on_c, 0, 73, 54
3, 100811, Control_c, 0, 64, 0
3, 101006, Control_c, 0, 64, 127
3, 102240, Note_on_c, 0, 73, 0
3, 102240, Note_on_c, 0, 61, 51
3, 102250, Control_c, 0, 64, 0
3, 102366, Control_c, 0, 64, 127
3, 103680, Note_on_c, 0, 61, 0
3, 103680, Note_on_c, 0, 38, 57
3, 103691, Control_c, 0, 64, 0
3, 103920, Note_on_c, 0, 38, 0
3, 103920, Note_on_c, 0, 62, 55
3, 103948, Control_c, 0, 64, 127
3, 104400, Note_on_c, 0, 62, 0
3, 104400, Note_on_c, 0, 62, 50
3, 104880, Note_on_c, 0, 62, 0
3, 104880, Note_on_c, 0, 62, 50
3, 105131, Control_c, 0, 64, 0
3, 105292, Control_c, 0, 64, 127
3, 105360, Note_on_c, 0, 62, 0
3, 105360, Note_on_c, 0, 62, 56
3, 105616, Control_c, 0, 64, 0
3, 105840, Note_on_c, 0, 62, 0
3, 105840, Note_on_c, 0, 62, 53
3, 105863, Control_c, 0, 64, 127
3, 106320, Note_on_c, 0, 62, 0
3, 106320, Note_on_c, 0, 62, 51
3, 106800, Note_on_c, 0, 62, 0
3, 106800, Note_on_c, 0, 62, 56
3, 106810, Control_c, 0, 64, 0
3, 106874, Control_c, 0, 64, 127
3, 107280, Note_on_c, 0, 62, 0
3, 107280, Note_on_c, 0, 62, 50
3, 107527, Control_c, 0, 64, 0
3, 107612, Control_c, 0, 64, 127
3, 107760, Note_on_c, 0, 62, 0
3, 107760, Note_on_c, 0, 62, 50
3, 108008, Control_c, 0, 64, 0
3, 108092, Control_c, 0, 64, 127
3, 108240, Note_on_c, 0, 62, 0
3, 108240, Note_on_c, 0, 62, 50
3, 108480, Note_on_c, 0, 62, 0
3, 108480, Note_on_c, 0, 62, 45
3, 108482, Control_c, 0, 64, 0
3, 108558, Control_c, 0, 64, 127
3, 108960, Note_on_c, 0, 62, 0
3, 108960, Note_on_c, 0, 50, 42
3, 108970, Control_c, 0, 64, 0
3, 109045, Control_c, 0, 64, 127
3, 109440, Note_on_c, 0, 50, 0
3, 109440, Note_on_c, 0, 47, 53
3, 109453, Control_c, 0, 64, 0
3, 109577, Control_c, 0, 64, 127
3, 109920, Note_on_c, 0, 47, 0
3, 109920, Note_on_c, 0, 60, 40
3, 109920, Note_on_c, 0, 62, 29
3, 109920, Note_on_c, 0, 65, 29
3, 109920, Note_on_c, 0, 68, 29
3, 109940, Control_c, 0, 64, 0
3, 110172, Control_c, 0, 64, 127
3, 110400, Note_on_c, 0, 60, 0
3, 110400, Note_on_c, 0, 59, 36
3, 110880, Note_on_c, 0, 59, 0
3, 110880, Note_on_c, 0, 68, 0
3, 110880, Note_on_c, 0, 65, 0
3, 110880, Note_on_c, 0, 62, 0
3, 110880, Note_on_c, 0, 48, 51
3, 110889, Control_c, 0, 64, 0
3, 110976, Control_c, 0, 64, 127
3, 111360, Note_on_c, 0, 48, 0
3, 111360, Note_on_c, 0, 67, 45
3, 111360, Note_on_c, 0, 63, 45
3, 111360, Note_on_c, 0, 57, 45
3, 111374, Control_c, 0, 64, 0
3, 111448, Control_c, 0, 64, 127
3, 112320, Note_on_c, 0, 57, 0
3, 112320, Note_on_c, 0, 63, 0
3, 112320, Note_on_c, 0, 67, 0
3, 112320, Note_on_c, 0, 38, 51
3, 112323, Control_c, 0, 64, 0
3, 112560, Control_c, 0, 64, 127
3, 113280, Note_on_c, 0, 38, 0
3, 113280, Note_on_c, 0, 62, 44
3, 113291, Control_c, 0, 64, 0
3, 113417, Control_c, 0, 64, 127
3, 113520, Note_on_c, 0, 62, 0
3, 113760, Note_on_c, 0, 60, 51
3, 113760, Note_on_c, 0, 50, 51
3, 113771, Control_c, 0, 64, 0
3, 113827, Control_c, 0, 64, 127
3, 114000, Note_on_c, 0, 60, 0
3, 114000, Note_on_c, 0, 61, 44
3, 114240, Note_on_c, 0, 61, 0
3, 114240, Note_on_c, 0, 62, 51
3, 114480, Note_on_c, 0, 62, 0
3, 114480, Note_on_c, 0, 61, 51
3, 114560, Note_on_c, 0, 61, 0
3, 114560, Note_on_c, 0, 62, 45
3, 114640, Note_on_c, 0, 62, 0
3, 114640, Note_on_c, 0, 61, 45
3, 114720, Note_on_c, 0, 61, 0
3, 114720, Note_on_c, 0, 60, 51
3, 114731, Control_c, 0, 64, 0
3, 114801, Control_c, 0, 64, 127
3, 114960, Note_on_c, 0, 60, 0
3, 114960, Note_on_c, 0, 50, 0
3, 114960, Note_on_c, 0, 50, 44
3, 115200, Note_on_c, 0, 50, 0
3, 115200, Note_on_c, 0, 43, 44
3, 115200, Note_on_c, 0, 50, 44
3, 115200, Note_on_c, 0, 58, 44
3, 115211, Control_c, 0, 64, 0
3, 115440, Note_on_c, 0, 58, 0
3, 115440, Note_on_c, 0, 50, 0
3, 115440, Note_on_c, 0, 43, 0
3, 115440, Note_on_c, 0, 71, 53
3, 115560, Note_on_c, 0, 71, 0
3, 115680, Note_on_c, 0, 72, 57
3, 115800, Note_on_c, 0, 72, 0
3, 115920, Note_on_c, 0, 69, 54
3, 116040, Note_on_c, 0, 69, 0
3, 116160, Note_on_c, 0, 74, 57
3, 116280, Note_on_c, 0, 74, 0
3, 116400, Note_on_c, 0, 72, 53
3, 116520, Note_on_c, 0, 72, 0
3, 116640, Note_on_c, 0, 70, 57
3, 116760, Note_on_c, 0, 70, 0
3, 116880, Note_on_c, 0, 69, 55
3, 117000, Note_on_c, 0, 69, 0
3, 117120, Note_on_c, 0, 70, 59
3, 117240, Note_on_c, 0, 70, 0
3, 117360, Note_on_c, 0, 67, 57
3, 117480, Note_on_c, 0, 67, 0
3, 117600, Note_on_c, 0, 66, 62
3, 117720, Note_on_c, 0, 66, 0
3, 117840, Note_on_c, 0, 62, 61
3, 117960, Note_on_c, 0, 62, 0
3, 118080, Note_on_c, 0, 48, 51
3, 118172, Control_c, 0, 64, 127
3, 118560, Note_on_c, 0, 48, 0
3, 118560, Note_on_c, 0, 66, 49
3, 118560, Note_on_c, 0, 60, 41
3, 118560, Note_on_c, 0, 63, 41
3, 118574, Control_c, 0, 64, 0
3, 118835, Control_c, 0, 64, 127
3, 119040, Note_on_c, 0, 66, 0
3, 119040, Note_on_c, 0, 67, 54
3, 119520, Note_on_c, 0, 67, 0
3, 119520, Note_on_c, 0, 63, 0
3, 119520, Note_on_c, 0, 60, 0
3, 119520, Note_on_c, 0, 41, 51
3, 119530, Control_c, 0, 64, 0
3, 119594, Control_c, 0, 64, 127
3, 120000, Note_on_c, 0, 41, 0
3, 120000, Note_on_c, 0, 68, 55
3, 120000, Note_on_c, 0, 60, 41
3, 120000, Note_on_c, 0, 63, 41
3, 120013, Control_c, 0, 64, 0
3, 120114, Control_c, 0, 64, 127
3, 120480, Note_on_c, 0, 68, 0
3, 120480, Note_on_c, 0, 69, 56
3, 120960, Note_on_c, 0, 69, 0
3, 120960, Note_on_c, 0, 63, 0
3, 120960, Note_on_c, 0, 60, 0
3, 120960, Note_on_c, 0, 46, 57
3, 120971, Control_c, 0, 64, 0
3, 121177, Control_c, 0, 64, 127
3, 121440, Note_on_c, 0, 46, 0
3, 121440, Note_on_c, 0, 61, 46
3, 121440, Note_on_c, 0, 69, 55
3, 121440, Note_on_c, 0, 66, 46
3, 121680, Note_on_c, 0, 66, 0
3, 121680, Note_on_c, 0, 69, 0
3, 121680, Note_on_c, 0, 61, 0
3, 121680, Note_on_c, 0, 62, 51
3, 121680, Note_on_c, 0, 70, 60
3, 121920, Note_on_c, 0, 70, 0
3, 121920, Note_on_c, 0, 62, 0
3, 121920, Note_on_c, 0, 59, 55
3, 121931, Control_c, 0, 64, 0
3, 122023, Control_c, 0, 64, 127
3, 122400, Note_on_c, 0, 59, 0
3, 122400, Note_on_c, 0, 48, 60
3, 122411, Control_c, 0, 64, 0
3, 122537, Control_c, 0, 64, 127
3, 122880, Note_on_c, 0, 48, 0
3, 122880, Note_on_c, 0, 59, 49
3, 122897, Control_c, 0, 64, 0
3, 123075, Control_c, 0, 64, 127
3, 123120, Note_on_c, 0, 59, 0
3, 123120, Note_on_c, 0, 60, 52
3, 123360, Note_on_c, 0, 60, 0
3, 123360, Note_on_c, 0, 62, 55
3, 123600, Note_on_c, 0, 62, 0
3, 123600, Note_on_c, 0, 63, 57
3, 123840, Note_on_c, 0, 63, 0
3, 123840, Note_on_c, 0, 41, 63
3, 123848, Control_c, 0, 64, 0
3, 124080, Note_on_c, 0, 41, 0
3, 124080, Note_on_c, 0, 74, 53
3, 124200, Note_on_c, 0, 74, 0
3, 124320, Note_on_c, 0, 75, 57
3, 124440, Note_on_c, 0, 75, 0
3, 124560, Note_on_c, 0, 72, 54
3, 124680, Note_on_c, 0, 72, 0
3, 124800, Note_on_c, 0, 77, 57
3, 124920, Note_on_c, 0, 77, 0
3, 125040, Note_on_c, 0, 75, 53
3, 125160, Note_on_c, 0, 75, 0
3, 125280, Note_on_c, 0, 74, 57
3, 125400, Note_on_c, 0, 74, 0
3, 125520, Note_on_c, 0, 73, 54
3, 125640, Note_on_c, 0, 73, 0
3, 125760, Note_on_c, 0, 74, 57
3, 125880, Note_on_c, 0, 74, 0
3, 126000, Note_on_c, 0, 70, 52
3, 126120, Note_on_c, 0, 70, 0
3, 126240, Note_on_c, 0, 69, 55
3, 126360, Note_on_c, 0, 69, 0
3, 126480, Note_on_c, 0, 65, 51
3, 126600, Note_on_c, 0, 65, 0
3, 126720, Note_on_c, 0, 46, 51
3, 126833, Control_c, 0, 64, 127
3, 127200, Note_on_c, 0, 46, 0
3, 127200, Note_on_c, 0, 62, 45
3, 127200, Note_on_c, 0, 53, 45
3, 127219, Control_c, 0, 64, 0
3, 127412, Control_c, 0, 64, 127
3, 128160, Note_on_c, 0, 53, 0
3, 128160, Note_on_c, 0, 62, 0
3, 128160, Note_on_c, 0, 46, 48
3, 128174, Control_c, 0, 64, 0
3, 128252, Control_c, 0, 64, 127
3, 128640, Note_on_c, 0, 46, 0
3, 128640, Note_on_c, 0, 63, 44
3, 128640, Note_on_c, 0, 59, 37
3, 128640, Note_on_c, 0, 54, 37
3, 128656, Control_c, 0, 64, 0
3, 128704, Control_c, 0, 64, 127
3, 129600, Note_on_c, 0, 54, 0
3, 129600, Note_on_c, 0, 59, 0
3, 129600, Note_on_c, 0, 63, 0
3, 129600, Note_on_c, 0, 46, 54
3, 129612, Control_c, 0, 64, 0
3, 129821, Control_c, 0, 64, 127
3, 129840, Note_on_c, 0, 46, 0
3, 129840, Note_on_c, 0, 58, 52
3, 130080, Note_on_c, 0, 58, 0
3, 130080, Note_on_c, 0, 60, 54
3, 130320, Note_on_c, 0, 60, 0
3, 130320, Note_on_c, 0, 62, 51
3, 130560, Note_on_c, 0, 62, 0
3, 130560, Note_on_c, 0, 65, 55
3, 130575, Control_c, 0, 64, 0
3, 130703, Control_c, 0, 64, 127
3, 130800, Note_on_c, 0, 65, 0
3, 130800, Note_on_c, 0, 62, 53
3, 131040, Note_on_c, 0, 62, 0
3, 131040, Note_on_c, 0, 63, 48
3, 131052, Control_c, 0, 64, 0
3, 131107, Control_c, 0, 64, 127
3, 131120, Note_on_c, 0, 63, 0
3, 131120, Note_on_c, 0, 65, 42
3, 131200, Note_on_c, 0, 65, 0
3, 131200, Note_on_c, 0, 63, 42
3, 131280, Note_on_c, 0, 63, 0
3, 131280, Note_on_c, 0, 62, 46
3, 131520, Note_on_c, 0, 62, 0
3, 131520, Note_on_c, 0, 63, 55
3, 131760, Note_on_c, 0, 63, 0
3, 131760, Note_on_c, 0, 65, 57
3, 132000, Note_on_c, 0, 65, 0
3, 132000, Note_on_c, 0, 66, 61
3, 132015, Control_c, 0, 64, 0
3, 132081, Control_c, 0, 64, 127
3, 132480, Note_on_c, 0, 66, 0
3, 132480, Note_on_c, 0, 46, 51
3, 132492, Control_c, 0, 64, 0
3, 132697, Control_c, 0, 64, 127
3, 132960, Note_on_c, 0, 46, 0
3, 132960, Note_on_c, 0, 56, 37
3, 132960, Note_on_c, 0, 68, 45
3, 132960, Note_on_c, 0, 62, 45
3, 132978, Control_c, 0, 64, 0
3, 133269, Control_c, 0, 64, 127
3, 133440, Note_on_c, 0, 56, 0
3, 133440, Note_on_c, 0, 59, 37
3, 133920, Note_on_c, 0, 59, 0
3, 133920, Note_on_c, 0, 62, 0
3, 133920, Note_on_c, 0, 68, 0
3, 133920, Note_on_c, 0, 46, 48
3, 133933, Control_c, 0, 64, 0
3, 133966, Control_c, 0, 64, 127
3, 134400, Note_on_c, 0, 46, 0
3, 134400, Note_on_c, 0, 66, 44
3, 134400, Note_on_c, 0, 58, 37
3, 134412, Control_c, 0, 64, 0
3, 134469, Control_c, 0, 64, 127
3, 135360, Note_on_c, 0, 58, 0
3, 135360, Note_on_c, 0, 66, 0
3, 135360, Note_on_c, 0, 46, 57
3, 135373, Control_c, 0, 64, 0
3, 135516, Control_c, 0, 64, 127
3, 135600, Note_on_c, 0, 46, 0
3, 135600, Note_on_c, 0, 58, 55
3, 135840, Note_on_c, 0, 58, 0
3, 135840, Note_on_c, 0, 60, 57
3, 136080, Note_on_c, 0, 60, 0
3, 136080, Note_on_c, 0, 62, 54
3, 136320, Note_on_c, 0, 62, 0
3, 136320, Note_on_c, 0, 65, 58
3, 136335, Control_c, 0, 64, 0
3, 136411, Control_c, 0, 64, 127
3, 136560, Note_on_c, 0, 65, 0
3, 136560, Note_on_c, 0, 62, 56
3, 136800, Note_on_c, 0, 62, 0
3, 136800, Note_on_c, 0, 63, 52
3, 136813, Control_c, 0, 64, 0
3, 136880, Note_on_c, 0, 63, 0
3, 136880, Note_on_c, 0, 65, 44
3, 136892, Control_c, 0, 64, 127
3, 136960, Note_on_c, 0, 65, 0
3, 136960, Note_on_c, 0, 63, 44
3, 137040, Note_on_c, 0, 63, 0
3, 137040, Note_on_c, 0, 62, 49
3, 137280, Note_on_c, 0, 62, 0
3, 137280, Note_on_c, 0, 63, 58
3, 137520, Note_on_c, 0, 63, 0
3, 137520, Note_on_c, 0, 65, 61
3, 137760, Note_on_c, 0, 65, 0
3, 137760, Note_on_c, 0, 66, 65
3, 137774, Control_c, 0, 64, 0
3, 137838, Control_c, 0, 64, 127
3, 138240, Note_on_c, 0, 66, 0
3, 138240, Note_on_c, 0, 46, 58
3, 138256, Control_c, 0, 64, 0
3, 138629, Control_c, 0, 64, 127
3, 138720, Note_on_c, 0, 46, 0
3, 138720, Note_on_c, 0, 64, 49
3, 138720, Note_on_c, 0, 62, 41
3, 138720, Note_on_c, 0, 58, 41
3, 139200, Note_on_c, 0, 64, 0
3, 139200, Note_on_c, 0, 65, 46
3, 139680, Note_on_c, 0, 65, 0
3, 139680, Note_on_c, 0, 58, 0
3, 139680, Note_on_c, 0, 62, 0
3, 139680, Note_on_c, 0, 48, 51
3, 139692, Control_c, 0, 64, 0
3, 139776, Control_c, 0, 64, 127
3, 140160, Note_on_c, 0, 48, 0
3, 140160, Note_on_c, 0, 70, 38
3, 140160, Note_on_c, 0, 67, 38
3, 140160, Note_on_c, 0, 63, 38
3, 140160, Note_on_c, 0, 60, 38
3, 140176, Control_c, 0, 64, 0
3, 140248, Control_c, 0, 64, 127
3, 140640, Note_on_c, 0, 70, 0
3, 140640, Note_on_c, 0, 69, 45
3, 141120, Note_on_c, 0, 69, 0
3, 141120, Note_on_c, 0, 60, 0
3, 141120, Note_on_c, 0, 63, 0
3, 141120, Note_on_c, 0, 67, 0
3, 141120, Note_on_c, 0, 38, 51
3, 141136, Control_c, 0, 64, 0
3, 141337, Control_c, 0, 64, 127
3, 142080, Note_on_c, 0, 38, 0
3, 142080, Note_on_c, 0, 62, 44
3, 142093, Control_c, 0, 64, 0
3, 142263, Control_c, 0, 64, 127
3, 142320, Note_on_c, 0, 62, 0
3, 142560, Note_on_c, 0, 60, 51
3, 142560, Note_on_c, 0, 50, 48
3, 142574, Control_c, 0, 64, 0
3, 142617, Control_c, 0, 64, 127
3, 142800, Note_on_c, 0, 60, 0
3, 142800, Note_on_c, 0, 61, 44
3, 143040, Note_on_c, 0, 61, 0
3, 143040, Note_on_c, 0, 62, 51
3, 143280, Note_on_c, 0, 62, 0
3, 143280, Note_on_c, 0, 61, 51
3, 143360, Note_on_c, 0, 61, 0
3, 143360, Note_on_c, 0, 62, 45
3, 143440, Note_on_c, 0, 62, 0
3, 143440, Note_on_c, 0, 61, 45
3, 143520, Note_on_c, 0, 61, 0
3, 143520, Note_on_c, 0, 60, 51
3, 143539, Control_c, 0, 64, 0
3, 143616, Control_c, 0, 64, 127
3, 143760, Note_on_c, 0, 60, 0
3, 143760, Note_on_c, 0, 50, 0
3, 143760, Note_on_c, 0, 50, 44
3, 144000, Note_on_c, 0, 50, 0
3, 144000, Control_c, 0, 64, 0
3, 144000, Note_on_c, 0, 43, 44
3, 144000, Note_on_c, 0, 50, 44
3, 144000, Note_on_c, 0, 58, 44
3, 144240, Note_on_c, 0, 58, 0
3, 144240, Note_on_c, 0, 50, 0
3, 144240, Note_on_c, 0, 43, 0
3, 144240, Note_on_c, 0, 71, 53
3, 144360, Note_on_c, 0, 71, 0
3, 144480, Note_on_c, 0, 72, 57
3, 144600, Note_on_c, 0, 72, 0
3, 144720, Note_on_c, 0, 69, 54
3, 144840, Note_on_c, 0, 69, 0
3, 144960, Note_on_c, 0, 74, 57
3, 145080, Note_on_c, 0, 74, 0
3, 145200, Note_on_c, 0, 72, 53
3, 145320, Note_on_c, 0, 72, 0
3, 145440, Note_on_c, 0, 70, 57
3, 145560, Note_on_c, 0, 70, 0
3, 145680, Note_on_c, 0, 69, 54
3, 145800, Note_on_c, 0, 69, 0
3, 145920, Note_on_c, 0, 70, 57
3, 146040, Note_on_c, 0, 70, 0
3, 146160, Note_on_c, 0, 67, 54
3, 146280, Note_on_c, 0, 67, 0
3, 146400, Note_on_c, 0, 66, 57
3, 146520, Note_on_c, 0, 66, 0
3, 146640, Note_on_c, 0, 62, 55
3, 146760, Note_on_c, 0, 62, 0
3, 146880, Note_on_c, 0, 67, 57
3, 147000, Note_on_c, 0, 67, 0
3, 147120, Note_on_c, 0, 71, 52
3, 147240, Note_on_c, 0, 71, 0
3, 147360, Note_on_c, 0, 72, 55
3, 147480, Note_on_c, 0, 72, 0
3, 147600, Note_on_c, 0, 69, 52
3, 147720, Note_on_c, 0, 69, 0
3, 147840, Note_on_c, 0, 70, 55
3, 147960, Note_on_c, 0, 70, 0
3, 148080, Note_on_c, 0, 66, 53
3, 148200, Note_on_c, 0, 66, 0
3, 148320, Note_on_c, 0, 67, 57
3, 148412, Control_c, 0, 64, 127
3, 148560, Note_on_c, 0, 67, 0
3, 148560, Note_on_c, 0, 65, 52
3, 148800, Note_on_c, 0, 65, 0
3, 148800, Note_on_c, 0, 64, 54
3, 148815, Control_c, 0, 64, 0
3, 148915, Control_c, 0, 64, 127
3, 149040, Note_on_c, 0, 64, 0
3, 149040, Note_on_c, 0, 63, 57
3, 149280, Note_on_c, 0, 63, 0
3, 149280, Note_on_c, 0, 62, 58
3, 149294, Control_c, 0, 64, 0
3, 149406, Control_c, 0, 64, 127
3, 149520, Note_on_c, 0, 62, 0
3, 149520, Note_on_c, 0, 61, 61
3, 149760, Note_on_c, 0, 61, 0
3, 149760, Note_on_c, 0, 38, 59
3, 149773, Control_c, 0, 64, 0
3, 149986, Control_c, 0, 64, 127
3, 150000, Note_on_c, 0, 38, 0
3, 150000, Note_on_c, 0, 62, 57
3, 150480, Note_on_c, 0, 62, 0
3, 150480, Note_on_c, 0, 62, 51
3, 150960, Note_on_c, 0, 62, 0
3, 150960, Note_on_c, 0, 62, 51
3, 151216, Control_c, 0, 64, 0
3, 151292, Control_c, 0, 64, 127
3, 151440, Note_on_c, 0, 62, 0
3, 151440, Note_on_c, 0, 62, 54
3, 151692, Control_c, 0, 64, 0
3, 151878, Control_c, 0, 64, 127
3, 151920, Note_on_c, 0, 62, 0
3, 151920, Note_on_c, 0, 62, 54
3, 152400, Note_on_c, 0, 62, 0
3, 152400, Note_on_c, 0, 62, 52
3, 152880, Note_on_c, 0, 62, 0
3, 152880, Note_on_c, 0, 62, 58
3, 152892, Control_c, 0, 64, 0
3, 153035, Control_c, 0, 64, 127
3, 153360, Note_on_c, 0, 62, 0
3, 153360, Note_on_c, 0, 62, 51
3, 153615, Control_c, 0, 64, 0
3, 153720, Control_c, 0, 64, 127
3, 153840, Note_on_c, 0, 62, 0
3, 153840, Note_on_c, 0, 62, 51
3, 154095, Control_c, 0, 64, 0
3, 154217, Control_c, 0, 64, 127
3, 154320, Note_on_c, 0, 62, 0
3, 154320, Note_on_c, 0, 62, 51
3, 154560, Note_on_c, 0, 62, 0
3, 154560, Note_on_c, 0, 62, 46
3, 154573, Control_c, 0, 64, 0
3, 154663, Control_c, 0, 64, 127
3, 155040, Note_on_c, 0, 62, 0
3, 155040, Note_on_c, 0, 50, 43
3, 155049, Control_c, 0, 64, 0
3, 155177, Control_c, 0, 64, 127
3, 155520, Note_on_c, 0, 50, 0
3, 155520, Note_on_c, 0, 43, 46
3, 155528, Control_c, 0, 64, 0
3, 155594, Control_c, 0, 64, 127
3, 155760, Note_on_c, 0, 43, 0
3, 155760, Note_on_c, 0, 49, 43
3, 156000, Note_on_c, 0, 49, 0
3, 156000, Note_on_c, 0, 50, 46
3, 156014, Control_c, 0, 64, 0
3, 156099, Control_c, 0, 64, 127
3, 156240, Note_on_c, 0, 50, 0
3, 156240, Note_on_c, 0, 53, 43
3, 156360, Note_on_c, 0, 51, 47
3, 156380, Note_on_c, 0, 53, 0
3, 156420, Note_on_c, 0, 53, 42
3, 156440, Note_on_c, 0, 51, 0
3, 156480, Note_on_c, 0, 51, 51
3, 156495, Control_c, 0, 64, 0
3, 156500, Note_on_c, 0, 53, 0
3, 156547, Control_c, 0, 64, 127
3, 156720, Note_on_c, 0, 51, 0
3, 156720, Note_on_c, 0, 50, 51
3, 156960, Note_on_c, 0, 50, 0
3, 156960, Note_on_c, 0, 43, 39
3, 156960, Note_on_c, 0, 51, 47
3, 156971, Control_c, 0, 64, 0
3, 157211, Control_c, 0, 64, 127
3, 158400, Note_on_c, 0, 51, 0
3, 158400, Note_on_c, 0, 43, 0
3, 158400, Note_on_c, 0, 43, 46
3, 158412, Control_c, 0, 64, 0
3, 158474, Control_c, 0, 64, 127
3, 158640, Note_on_c, 0, 43, 0
3, 158640, Note_on_c, 0, 49, 43
3, 158880, Note_on_c, 0, 49, 0
3, 158880, Note_on_c, 0, 50, 46
3, 158895, Control_c, 0, 64, 0
3, 158954, Control_c, 0, 64, 127
3, 159120, Note_on_c, 0, 50, 0
3, 159120, Note_on_c, 0, 53, 43
3, 159240, Note_on_c, 0, 51, 47
3, 159260, Note_on_c, 0, 53, 0
3, 159300, Note_on_c, 0, 53, 42
3, 159320, Note_on_c, 0, 51, 0
3, 159360, Note_on_c, 0, 51, 51
3, 159374, Control_c, 0, 64, 0
3, 159380, Note_on_c, 0, 53, 0
3, 159409, Control_c, 0, 64, 127
3, 159600, Note_on_c, 0, 51, 0
3, 159600, Note_on_c, 0, 50, 51
3, 159840, Note_on_c, 0, 50, 0
3, 159840, Note_on_c, 0, 43, 39
3, 159840, Note_on_c, 0, 51, 47
3, 159851, Control_c, 0, 64, 0
3, 160091, Control_c, 0, 64, 127
3, 161280, Note_on_c, 0, 51, 0
3, 161280, Note_on_c, 0, 43, 0
3, 161280, Note_on_c, 0, 43, 46
3, 161293, Control_c, 0, 64, 0
3, 161354, Control_c, 0, 64, 127
3, 161520, Note_on_c, 0, 43, 0
3, 161520, Note_on_c, 0, 49, 43
3, 161760, Note_on_c, 0, 49, 0
3, 161760, Note_on_c, 0, 50, 46
3, 161767, Control_c, 0, 64, 0
3, 161838, Control_c, 0, 64, 127
3, 162000, Note_on_c, 0, 50, 0
3, 162000, Note_on_c, 0, 53, 43
3, 162120, Note_on_c, 0, 51, 47
3, 162140, Note_on_c, 0, 53, 0
3, 162180, Note_on_c, 0, 53, 42
3, 162200, Note_on_c, 0, 51, 0
3, 162240, Note_on_c, 0, 51, 51
3, 162253, Control_c, 0, 64, 0
3, 162260, Note_on_c, 0, 53, 0
3, 162311, Control_c, 0, 64, 127
3, 162480, Note_on_c, 0, 51, 0
3, 162480, Note_on_c, 0, 50, 51
3, 162720, Note_on_c, 0, 50, 0
3, 162720, Note_on_c, 0, 55, 46
3, 162735, Control_c, 0, 64, 0
3, 162833, Control_c, 0, 64, 127
3, 162960, Note_on_c, 0, 55, 0
3, 162960, Note_on_c, 0, 59, 43
3, 163200, Note_on_c, 0, 59, 0
3, 163200, Note_on_c, 0, 61, 46
3, 163214, Control_c, 0, 64, 0
3, 163271, Control_c, 0, 64, 127
3, 163440, Note_on_c, 0, 61, 0
3, 163440, Note_on_c, 0, 62, 43
3, 163620, Note_on_c, 0, 65, 42
3, 163640, Note_on_c, 0, 62, 0
3, 163680, Note_on_c, 0, 63, 51
3, 163694, Control_c, 0, 64, 0
3, 163700, Note_on_c, 0, 65, 0
3, 163733, Control_c, 0, 64, 127
3, 163920, Note_on_c, 0, 63, 0
3, 163920, Note_on_c, 0, 62, 51
3, 164160, Note_on_c, 0, 62, 0
3, 164160, Note_on_c, 0, 67, 46
3, 164171, Control_c, 0, 64, 0
3, 164213, Control_c, 0, 64, 127
3, 164400, Note_on_c, 0, 67, 0
3, 164400, Note_on_c, 0, 71, 43
3, 164640, Note_on_c, 0, 71, 0
3, 164640, Note_on_c, 0, 73, 46
3, 164654, Control_c, 0, 64, 0
3, 164707, Control_c, 0, 64, 127
3, 164880, Note_on_c, 0, 73, 0
3, 164880, Note_on_c, 0, 74, 43
3, 165060, Note_on_c, 0, 77, 42
3, 165080, Note_on_c, 0, 74, 0
3, 165120, Note_on_c, 0, 75, 51
3, 165134, Control_c, 0, 64, 0
3, 165140, Note_on_c, 0, 77, 0
3, 165180, Control_c, 0, 64, 127
3, 165360, Note_on_c, 0, 75, 0
3, 165360, Note_on_c, 0, 74, 51
3, 165600, Note_on_c, 0, 74, 0
3, 165600, Note_on_c, 0, 67, 32
3, 165600, Note_on_c, 0, 74, 32
3, 165600, Note_on_c, 0, 79, 32
3, 165613, Control_c, 0, 64, 0
3, 166054, Control_c, 0, 64, 127
3, 167040, Note_on_c, 0, 79, 0
3, 167040, Note_on_c, 0, 74, 0
3, 167040, Note_on_c, 0, 67, 0
3, 167040, Note_on_c, 0, 43, 23
3, 167040, Note_on_c, 0, 50, 23
3, 167040, Note_on_c, 0, 55, 27
3, 168480, Note_on_c, 0, 55, 0
3, 168480, Note_on_c, 0, 50, 0
3, 168480, Note_on_c, 0, 43, 0
3, 169520, Control_c, 0, 64, 0
3, 169520, End_track
4, 0, Start_track
4, 0, Title_t, "Albeniz :Espana Op. 165 Serenata"
4, 0, End_track
5, 0, Start_track
5, 0, Title_t, "Copyright © 2001 by Bernd Krüger"
5, 0, End_track
6, 0, Start_track
6, 0, Title_t, "http://www.piano-midi.de"
6, 0, End_track
7, 0, Start_track
7, 0, Title_t, "Edition: 2010-08-31"
7, 0, End_track
8, 0, Start_track
8, 0, Title_t, "Spur 7"
8, 0, End_track
0, 0, End_of_file
