0, 0, Header, 1, 11, 480
1, 0, Start_track
1, 0, Title_t, "Präludium und Fuge in D-Dur, BWV 850"
1, 0, Copyright_t, "Copyright © 1997  Bernd Krueger."
1, 0, Text_t, "Bach"
1, 0, Text_t, "Fertiggestellt am 12.11.97\012"
1, 0, Text_t, "Pan's auf Standard am 18.1.98\012"
1, 0, Text_t, "Normierung: 23.12.2002\012"
1, 0, Text_t, "Update am 29.9.2004\012"
1, 0, Text_t, "Dauer: 2:53 Minuten\012"
1, 0, Time_signature, 4, 2, 24, 8
1, 0, Key_signature, 2, "major"
1, 0, Tempo, 431655
1, 0, Marker_t, "Praeludium"
1, 120, Tempo, 416667
1, 1080, Tempo, 416667
1, 1920, Tempo, 416667
1, 2400, Tempo, 416667
1, 2560, Tempo, 418118
1, 2720, Tempo, 419580
1, 2860, Tempo, 421053
1, 2880, Tempo, 425532
1, 3000, Tempo, 416667
1, 3480, Tempo, 410959
1, 3720, Tempo, 425532
1, 3840, Tempo, 416667
1, 4440, Tempo, 418118
1, 4520, Tempo, 416667
1, 4600, Tempo, 415225
1, 4680, Tempo, 413793
1, 4760, Tempo, 412371
1, 4840, Tempo, 410959
1, 4920, Tempo, 409556
1, 5280, Tempo, 418118
1, 5400, Tempo, 409556
1, 5760, Tempo, 424028
1, 5880, Tempo, 415225
1, 5900, Tempo, 409556
1, 6200, Tempo, 410959
1, 6480, Tempo, 412371
1, 6760, Tempo, 413793
1, 6840, Tempo, 424028
1, 7320, Tempo, 413793
1, 7560, Tempo, 425532
1, 7680, Tempo, 416667
1, 8160, Tempo, 416667
1, 8320, Tempo, 418118
1, 8480, Tempo, 419580
1, 8640, Tempo, 421053
1, 9240, Tempo, 413793
1, 9600, Tempo, 428571
1, 9720, Tempo, 415225
1, 10200, Tempo, 419580
1, 10560, Tempo, 412371
1, 11160, Tempo, 422535
1, 11640, Tempo, 415225
1, 12480, Tempo, 413793
1, 12580, Tempo, 412371
1, 12680, Tempo, 410959
1, 12780, Tempo, 409556
1, 12880, Tempo, 408163
1, 12960, Tempo, 406780
1, 13080, Tempo, 409556
1, 13560, Tempo, 416667
1, 13900, Tempo, 416667
1, 14040, Tempo, 415225
1, 14180, Tempo, 413793
1, 14320, Tempo, 412371
1, 14440, Tempo, 410959
1, 14520, Tempo, 409556
1, 15480, Tempo, 416667
1, 16440, Tempo, 408163
1, 16800, Tempo, 424028
1, 16920, Tempo, 421053
1, 17400, Tempo, 408163
1, 17760, Tempo, 408163
1, 18000, Tempo, 406780
1, 18240, Tempo, 405405
1, 18480, Tempo, 404040
1, 18700, Tempo, 402685
1, 18720, Tempo, 424028
1, 18840, Tempo, 408163
1, 18920, Tempo, 409556
1, 18980, Tempo, 410959
1, 19040, Tempo, 412371
1, 19100, Tempo, 413793
1, 19160, Tempo, 415225
1, 19220, Tempo, 416667
1, 19320, Tempo, 415225
1, 19680, Tempo, 415225
1, 19840, Tempo, 416667
1, 20000, Tempo, 418118
1, 20140, Tempo, 419580
1, 20280, Tempo, 412371
1, 20760, Tempo, 418118
1, 21120, Tempo, 422535
1, 21720, Tempo, 415225
1, 22200, Tempo, 418118
1, 22680, Tempo, 410959
1, 23040, Tempo, 409556
1, 23200, Tempo, 410959
1, 23360, Tempo, 412371
1, 23500, Tempo, 413793
1, 23640, Tempo, 415225
1, 24120, Tempo, 410959
1, 24480, Tempo, 419580
1, 24600, Tempo, 412371
1, 25080, Tempo, 416667
1, 25560, Tempo, 409556
1, 26520, Tempo, 419580
1, 27000, Tempo, 416667
1, 27020, Tempo, 416667
1, 27340, Tempo, 415225
1, 27640, Tempo, 413793
1, 27940, Tempo, 412371
1, 27960, Tempo, 412371
1, 28440, Tempo, 419580
1, 28920, Tempo, 412371
1, 29880, Tempo, 421053
1, 30360, Tempo, 412371
1, 30480, Tempo, 413793
1, 30600, Tempo, 415225
1, 30720, Tempo, 416667
1, 30820, Tempo, 418118
1, 30840, Tempo, 410959
1, 32280, Tempo, 419580
1, 32760, Tempo, 412371
1, 33680, Tempo, 412371
1, 33760, Tempo, 410959
1, 33840, Tempo, 409556
1, 33920, Tempo, 408163
1, 34000, Tempo, 406780
1, 34080, Tempo, 415225
1, 34200, Tempo, 418118
1, 34680, Tempo, 412371
1, 35140, Tempo, 410959
1, 35260, Tempo, 409556
1, 35380, Tempo, 408163
1, 35500, Tempo, 406780
1, 35580, Tempo, 408163
1, 35640, Tempo, 409556
1, 35720, Tempo, 410959
1, 35780, Tempo, 412371
1, 35860, Tempo, 413793
1, 35920, Tempo, 415225
1, 35980, Tempo, 416667
1, 36600, Tempo, 410959
1, 36960, Tempo, 421053
1, 37080, Tempo, 425532
1, 37340, Tempo, 418118
1, 37400, Tempo, 419580
1, 37560, Tempo, 413793
1, 37640, Tempo, 413793
1, 37780, Tempo, 415225
1, 37900, Tempo, 416667
1, 38020, Tempo, 418118
1, 38040, Tempo, 422535
1, 38440, Tempo, 421053
1, 38520, Tempo, 416667
1, 39480, Tempo, 412371
1, 39960, Tempo, 419580
1, 40440, Tempo, 415225
1, 41280, Tempo, 413793
1, 41460, Tempo, 412371
1, 41620, Tempo, 410959
1, 41780, Tempo, 409556
1, 41880, Tempo, 409556
1, 43200, Tempo, 408163
1, 43360, Tempo, 409556
1, 43520, Tempo, 410959
1, 43680, Tempo, 412371
1, 43800, Tempo, 419580
1, 44760, Tempo, 415225
1, 45720, Tempo, 419580
1, 46200, Tempo, 415225
1, 46560, Tempo, 413793
1, 46740, Tempo, 412371
1, 46920, Tempo, 410959
1, 47080, Tempo, 409556
1, 47160, Tempo, 409556
1, 47640, Tempo, 419580
1, 48120, Tempo, 413793
1, 48600, Tempo, 410959
1, 49440, Tempo, 408163
1, 49560, Tempo, 418118
1, 50520, Tempo, 413793
1, 51000, Tempo, 421053
1, 51480, Tempo, 412371
1, 51960, Tempo, 422535
1, 52440, Tempo, 410959
1, 52920, Tempo, 418118
1, 53400, Tempo, 416667
1, 54840, Tempo, 419580
1, 55320, Tempo, 410959
1, 55680, Tempo, 419580
1, 55800, Tempo, 410959
1, 55820, Tempo, 410959
1, 55940, Tempo, 409556
1, 55980, Tempo, 410959
1, 56020, Tempo, 412371
1, 56060, Tempo, 413793
1, 56100, Tempo, 415225
1, 56140, Tempo, 416667
1, 56180, Tempo, 418118
1, 56220, Tempo, 419580
1, 56260, Tempo, 421053
1, 56300, Tempo, 422535
1, 56340, Tempo, 424028
1, 56380, Tempo, 425532
1, 56420, Tempo, 427046
1, 56460, Tempo, 428571
1, 56500, Tempo, 430108
1, 56540, Tempo, 431655
1, 56580, Tempo, 433213
1, 56620, Tempo, 434783
1, 56640, Tempo, 418118
1, 56760, Tempo, 413793
1, 57240, Tempo, 410959
1, 58560, Tempo, 409556
1, 58660, Tempo, 410959
1, 58760, Tempo, 412371
1, 58860, Tempo, 413793
1, 58960, Tempo, 415225
1, 59040, Tempo, 416667
1, 59140, Tempo, 418118
1, 59240, Tempo, 419580
1, 59340, Tempo, 421053
1, 59440, Tempo, 422535
1, 59520, Tempo, 436364
1, 60000, Tempo, 454545
1, 60240, Tempo, 456274
1, 60320, Tempo, 458015
1, 60380, Tempo, 459770
1, 60440, Tempo, 461538
1, 60460, Tempo, 461538
1, 60500, Tempo, 463320
1, 60540, Tempo, 465116
1, 60580, Tempo, 466926
1, 60620, Tempo, 468750
1, 60660, Tempo, 470588
1, 60700, Tempo, 472441
1, 60740, Tempo, 474308
1, 60780, Tempo, 476190
1, 60820, Tempo, 478088
1, 60860, Tempo, 480000
1, 60900, Tempo, 481928
1, 60940, Tempo, 483871
1, 60980, Tempo, 485830
1, 61000, Tempo, 487805
1, 61020, Tempo, 489796
1, 61040, Tempo, 491803
1, 61060, Tempo, 493827
1, 61100, Tempo, 495868
1, 61120, Tempo, 497925
1, 61140, Tempo, 500000
1, 61160, Tempo, 502092
1, 61180, Tempo, 504202
1, 61200, Tempo, 571429
1, 61400, Tempo, 524017
1, 61420, Tempo, 526316
1, 61440, Tempo, 833333
1, 61920, Tempo, 655738
1, 62120, Tempo, 652174
1, 62220, Tempo, 648649
1, 62300, Tempo, 645161
1, 62380, Tempo, 641711
1, 62420, Tempo, 638298
1, 62460, Tempo, 634921
1, 62500, Tempo, 631579
1, 62540, Tempo, 628272
1, 62580, Tempo, 625000
1, 62620, Tempo, 621762
1, 62660, Tempo, 618557
1, 62700, Tempo, 615385
1, 62740, Tempo, 612245
1, 62780, Tempo, 609137
1, 62820, Tempo, 606061
1, 62860, Tempo, 603015
1, 62880, Tempo, 600000
1, 63360, Tempo, 833333
1, 64320, Tempo, 754717
1, 64800, Tempo, 816327
1, 66720, Tempo, 2000000
1, 67200, Tempo, 1000000
1, 67200, Marker_t, "Fuga"
1, 96960, Tempo, 1025641
1, 97440, Tempo, 1071429
1, 97920, Tempo, 1000000
1, 99240, Tempo, 975610
1, 99720, Tempo, 1061947
1, 99840, Tempo, 1000000
1, 101180, Tempo, 1000000
1, 101300, Tempo, 991736
1, 101420, Tempo, 983607
1, 101540, Tempo, 975610
1, 101640, Tempo, 1025641
1, 101760, Tempo, 1000000
1, 102600, Tempo, 983607
1, 103560, Tempo, 1043478
1, 103680, Tempo, 1000000
1, 106440, Tempo, 991736
1, 106920, Tempo, 983607
1, 107160, Tempo, 975610
1, 107280, Tempo, 983607
1, 107400, Tempo, 991736
1, 107520, Tempo, 1000000
1, 108960, Tempo, 1052632
1, 109320, Tempo, 1188119
1, 109440, Tempo, 1000000
1, 112320, Tempo, 1000000
1, 112600, Tempo, 991736
1, 112880, Tempo, 983607
1, 113140, Tempo, 975610
1, 113160, Tempo, 1034483
1, 113280, Tempo, 1000000
1, 114600, Tempo, 1025641
1, 116040, Tempo, 1081081
1, 116160, Tempo, 1132075
1, 116640, Tempo, 1176471
1, 119040, Marker_t, "Fine"
1, 119040, End_track
2, 0, Start_track
2, 0, MIDI_port, 0
2, 0, Title_t, "Piano right"
2, 0, Program_c, 0, 0
2, 0, Control_c, 0, 7, 100
2, 0, Control_c, 0, 10, 64
2, 0, Control_c, 0, 91, 127
2, 0, Text_t, "bdca426d104a26ac9dcb070447587523"
2, 0, Control_c, 0, 91, 127
2, 120, Note_on_c, 0, 74, 57
2, 240, Note_on_c, 0, 76, 57
2, 260, Note_on_c, 0, 74, 0
2, 360, Note_on_c, 0, 78, 57
2, 380, Note_on_c, 0, 76, 0
2, 480, Note_on_c, 0, 69, 60
2, 500, Note_on_c, 0, 78, 0
2, 600, Note_on_c, 0, 69, 0
2, 600, Note_on_c, 0, 78, 57
2, 720, Note_on_c, 0, 76, 57
2, 740, Note_on_c, 0, 78, 0
2, 840, Note_on_c, 0, 74, 57
2, 860, Note_on_c, 0, 76, 0
2, 960, Note_on_c, 0, 81, 62
2, 980, Note_on_c, 0, 74, 0
2, 1080, Note_on_c, 0, 81, 0
2, 1080, Note_on_c, 0, 74, 58
2, 1200, Note_on_c, 0, 76, 58
2, 1220, Note_on_c, 0, 74, 0
2, 1320, Note_on_c, 0, 78, 58
2, 1340, Note_on_c, 0, 76, 0
2, 1440, Note_on_c, 0, 69, 61
2, 1460, Note_on_c, 0, 78, 0
2, 1560, Note_on_c, 0, 69, 0
2, 1560, Note_on_c, 0, 78, 57
2, 1680, Note_on_c, 0, 76, 57
2, 1700, Note_on_c, 0, 78, 0
2, 1800, Note_on_c, 0, 74, 57
2, 1820, Note_on_c, 0, 76, 0
2, 1920, Note_on_c, 0, 79, 60
2, 1940, Note_on_c, 0, 74, 0
2, 2040, Note_on_c, 0, 79, 0
2, 2040, Note_on_c, 0, 76, 58
2, 2160, Note_on_c, 0, 78, 58
2, 2180, Note_on_c, 0, 76, 0
2, 2280, Note_on_c, 0, 79, 58
2, 2300, Note_on_c, 0, 78, 0
2, 2400, Note_on_c, 0, 71, 60
2, 2420, Note_on_c, 0, 79, 0
2, 2520, Note_on_c, 0, 71, 0
2, 2520, Note_on_c, 0, 74, 58
2, 2640, Note_on_c, 0, 73, 58
2, 2660, Note_on_c, 0, 74, 0
2, 2760, Note_on_c, 0, 71, 58
2, 2780, Note_on_c, 0, 73, 0
2, 2880, Note_on_c, 0, 73, 61
2, 2900, Note_on_c, 0, 71, 0
2, 3000, Note_on_c, 0, 73, 0
2, 3000, Note_on_c, 0, 76, 58
2, 3120, Note_on_c, 0, 78, 58
2, 3140, Note_on_c, 0, 76, 0
2, 3240, Note_on_c, 0, 79, 58
2, 3260, Note_on_c, 0, 78, 0
2, 3360, Note_on_c, 0, 69, 60
2, 3380, Note_on_c, 0, 79, 0
2, 3480, Note_on_c, 0, 69, 0
2, 3480, Note_on_c, 0, 79, 58
2, 3600, Note_on_c, 0, 78, 58
2, 3620, Note_on_c, 0, 79, 0
2, 3720, Note_on_c, 0, 76, 58
2, 3740, Note_on_c, 0, 78, 0
2, 3840, Note_on_c, 0, 78, 62
2, 3860, Note_on_c, 0, 76, 0
2, 3960, Note_on_c, 0, 78, 0
2, 3960, Note_on_c, 0, 74, 57
2, 4080, Note_on_c, 0, 76, 56
2, 4100, Note_on_c, 0, 74, 0
2, 4200, Note_on_c, 0, 78, 56
2, 4220, Note_on_c, 0, 76, 0
2, 4320, Note_on_c, 0, 69, 61
2, 4340, Note_on_c, 0, 78, 0
2, 4440, Note_on_c, 0, 69, 0
2, 4440, Note_on_c, 0, 73, 56
2, 4560, Note_on_c, 0, 71, 56
2, 4580, Note_on_c, 0, 73, 0
2, 4680, Note_on_c, 0, 69, 56
2, 4700, Note_on_c, 0, 71, 0
2, 4800, Note_on_c, 0, 71, 62
2, 4820, Note_on_c, 0, 69, 0
2, 4920, Note_on_c, 0, 71, 0
2, 4920, Note_on_c, 0, 74, 56
2, 5040, Note_on_c, 0, 76, 56
2, 5060, Note_on_c, 0, 74, 0
2, 5160, Note_on_c, 0, 78, 56
2, 5180, Note_on_c, 0, 76, 0
2, 5280, Note_on_c, 0, 71, 61
2, 5300, Note_on_c, 0, 78, 0
2, 5400, Note_on_c, 0, 71, 0
2, 5400, Note_on_c, 0, 81, 56
2, 5520, Note_on_c, 0, 80, 56
2, 5540, Note_on_c, 0, 81, 0
2, 5640, Note_on_c, 0, 78, 56
2, 5660, Note_on_c, 0, 80, 0
2, 5760, Note_on_c, 0, 80, 61
2, 5780, Note_on_c, 0, 78, 0
2, 5880, Note_on_c, 0, 80, 0
2, 5880, Note_on_c, 0, 76, 56
2, 6000, Note_on_c, 0, 78, 56
2, 6020, Note_on_c, 0, 76, 0
2, 6120, Note_on_c, 0, 80, 56
2, 6140, Note_on_c, 0, 78, 0
2, 6240, Note_on_c, 0, 71, 60
2, 6260, Note_on_c, 0, 80, 0
2, 6360, Note_on_c, 0, 71, 0
2, 6360, Note_on_c, 0, 74, 56
2, 6480, Note_on_c, 0, 73, 56
2, 6500, Note_on_c, 0, 74, 0
2, 6600, Note_on_c, 0, 71, 56
2, 6620, Note_on_c, 0, 73, 0
2, 6720, Note_on_c, 0, 69, 60
2, 6740, Note_on_c, 0, 71, 0
2, 6840, Note_on_c, 0, 69, 0
2, 6840, Note_on_c, 0, 73, 56
2, 6960, Note_on_c, 0, 74, 56
2, 6980, Note_on_c, 0, 73, 0
2, 7080, Note_on_c, 0, 76, 56
2, 7100, Note_on_c, 0, 74, 0
2, 7200, Note_on_c, 0, 66, 60
2, 7220, Note_on_c, 0, 76, 0
2, 7320, Note_on_c, 0, 66, 0
2, 7320, Note_on_c, 0, 76, 56
2, 7440, Note_on_c, 0, 74, 56
2, 7460, Note_on_c, 0, 76, 0
2, 7560, Note_on_c, 0, 73, 56
2, 7580, Note_on_c, 0, 74, 0
2, 7680, Note_on_c, 0, 74, 60
2, 7700, Note_on_c, 0, 73, 0
2, 7800, Note_on_c, 0, 74, 0
2, 7800, Note_on_c, 0, 71, 56
2, 7920, Note_on_c, 0, 73, 56
2, 7940, Note_on_c, 0, 71, 0
2, 8040, Note_on_c, 0, 74, 56
2, 8060, Note_on_c, 0, 73, 0
2, 8160, Note_on_c, 0, 66, 60
2, 8180, Note_on_c, 0, 74, 0
2, 8280, Note_on_c, 0, 66, 0
2, 8280, Note_on_c, 0, 69, 55
2, 8400, Note_on_c, 0, 68, 55
2, 8420, Note_on_c, 0, 69, 0
2, 8520, Note_on_c, 0, 66, 54
2, 8540, Note_on_c, 0, 68, 0
2, 8640, Note_on_c, 0, 68, 59
2, 8660, Note_on_c, 0, 66, 0
2, 8760, Note_on_c, 0, 68, 0
2, 8760, Note_on_c, 0, 71, 54
2, 8880, Note_on_c, 0, 73, 54
2, 8900, Note_on_c, 0, 71, 0
2, 9000, Note_on_c, 0, 74, 54
2, 9020, Note_on_c, 0, 73, 0
2, 9120, Note_on_c, 0, 64, 59
2, 9140, Note_on_c, 0, 74, 0
2, 9240, Note_on_c, 0, 64, 0
2, 9240, Note_on_c, 0, 74, 53
2, 9360, Note_on_c, 0, 73, 53
2, 9380, Note_on_c, 0, 74, 0
2, 9480, Note_on_c, 0, 71, 53
2, 9500, Note_on_c, 0, 73, 0
2, 9600, Note_on_c, 0, 73, 57
2, 9620, Note_on_c, 0, 71, 0
2, 9720, Note_on_c, 0, 73, 0
2, 9720, Note_on_c, 0, 69, 54
2, 9840, Note_on_c, 0, 71, 54
2, 9860, Note_on_c, 0, 69, 0
2, 9960, Note_on_c, 0, 73, 54
2, 9980, Note_on_c, 0, 71, 0
2, 10080, Note_on_c, 0, 64, 56
2, 10100, Note_on_c, 0, 73, 0
2, 10200, Note_on_c, 0, 64, 0
2, 10200, Note_on_c, 0, 67, 53
2, 10320, Note_on_c, 0, 66, 53
2, 10340, Note_on_c, 0, 67, 0
2, 10440, Note_on_c, 0, 64, 53
2, 10460, Note_on_c, 0, 66, 0
2, 10560, Note_on_c, 0, 66, 55
2, 10580, Note_on_c, 0, 64, 0
2, 10680, Note_on_c, 0, 66, 0
2, 10680, Note_on_c, 0, 69, 53
2, 10800, Note_on_c, 0, 71, 52
2, 10820, Note_on_c, 0, 69, 0
2, 10920, Note_on_c, 0, 73, 52
2, 10940, Note_on_c, 0, 71, 0
2, 11040, Note_on_c, 0, 66, 55
2, 11060, Note_on_c, 0, 73, 0
2, 11160, Note_on_c, 0, 66, 0
2, 11160, Note_on_c, 0, 76, 51
2, 11280, Note_on_c, 0, 75, 51
2, 11300, Note_on_c, 0, 76, 0
2, 11400, Note_on_c, 0, 73, 51
2, 11420, Note_on_c, 0, 75, 0
2, 11520, Note_on_c, 0, 75, 54
2, 11540, Note_on_c, 0, 73, 0
2, 11640, Note_on_c, 0, 75, 0
2, 11640, Note_on_c, 0, 71, 51
2, 11760, Note_on_c, 0, 73, 51
2, 11780, Note_on_c, 0, 71, 0
2, 11880, Note_on_c, 0, 75, 51
2, 11900, Note_on_c, 0, 73, 0
2, 12000, Note_on_c, 0, 66, 54
2, 12020, Note_on_c, 0, 75, 0
2, 12120, Note_on_c, 0, 66, 0
2, 12120, Note_on_c, 0, 69, 52
2, 12240, Note_on_c, 0, 67, 52
2, 12260, Note_on_c, 0, 69, 0
2, 12360, Note_on_c, 0, 66, 52
2, 12380, Note_on_c, 0, 67, 0
2, 12480, Note_on_c, 0, 64, 55
2, 12500, Note_on_c, 0, 66, 0
2, 12600, Note_on_c, 0, 64, 0
2, 12600, Note_on_c, 0, 67, 53
2, 12720, Note_on_c, 0, 69, 53
2, 12740, Note_on_c, 0, 67, 0
2, 12840, Note_on_c, 0, 71, 53
2, 12860, Note_on_c, 0, 69, 0
2, 12960, Note_on_c, 0, 61, 57
2, 12980, Note_on_c, 0, 71, 0
2, 13080, Note_on_c, 0, 61, 0
2, 13080, Note_on_c, 0, 74, 54
2, 13200, Note_on_c, 0, 73, 54
2, 13220, Note_on_c, 0, 74, 0
2, 13320, Note_on_c, 0, 71, 54
2, 13340, Note_on_c, 0, 73, 0
2, 13440, Note_on_c, 0, 70, 57
2, 13460, Note_on_c, 0, 71, 0
2, 13560, Note_on_c, 0, 70, 0
2, 13560, Note_on_c, 0, 64, 55
2, 13680, Note_on_c, 0, 66, 55
2, 13700, Note_on_c, 0, 64, 0
2, 13800, Note_on_c, 0, 67, 55
2, 13820, Note_on_c, 0, 66, 0
2, 13920, Note_on_c, 0, 61, 59
2, 13940, Note_on_c, 0, 67, 0
2, 14040, Note_on_c, 0, 61, 0
2, 14040, Note_on_c, 0, 67, 55
2, 14160, Note_on_c, 0, 66, 56
2, 14180, Note_on_c, 0, 67, 0
2, 14280, Note_on_c, 0, 64, 56
2, 14300, Note_on_c, 0, 66, 0
2, 14400, Note_on_c, 0, 62, 61
2, 14420, Note_on_c, 0, 64, 0
2, 14520, Note_on_c, 0, 62, 0
2, 14520, Note_on_c, 0, 71, 57
2, 14640, Note_on_c, 0, 73, 57
2, 14660, Note_on_c, 0, 71, 0
2, 14760, Note_on_c, 0, 74, 57
2, 14780, Note_on_c, 0, 73, 0
2, 14880, Note_on_c, 0, 66, 62
2, 14900, Note_on_c, 0, 74, 0
2, 15000, Note_on_c, 0, 66, 0
2, 15000, Note_on_c, 0, 69, 58
2, 15120, Note_on_c, 0, 68, 58
2, 15140, Note_on_c, 0, 69, 0
2, 15240, Note_on_c, 0, 66, 58
2, 15260, Note_on_c, 0, 68, 0
2, 15360, Note_on_c, 0, 65, 63
2, 15380, Note_on_c, 0, 66, 0
2, 15480, Note_on_c, 0, 65, 0
2, 15480, Note_on_c, 0, 68, 58
2, 15600, Note_on_c, 0, 69, 59
2, 15620, Note_on_c, 0, 68, 0
2, 15720, Note_on_c, 0, 71, 59
2, 15740, Note_on_c, 0, 69, 0
2, 15840, Note_on_c, 0, 65, 63
2, 15860, Note_on_c, 0, 71, 0
2, 15960, Note_on_c, 0, 65, 0
2, 15960, Note_on_c, 0, 74, 59
2, 16080, Note_on_c, 0, 73, 59
2, 16100, Note_on_c, 0, 74, 0
2, 16200, Note_on_c, 0, 71, 60
2, 16220, Note_on_c, 0, 73, 0
2, 16320, Note_on_c, 0, 80, 63
2, 16340, Note_on_c, 0, 71, 0
2, 16440, Note_on_c, 0, 80, 0
2, 16440, Note_on_c, 0, 77, 60
2, 16560, Note_on_c, 0, 78, 60
2, 16580, Note_on_c, 0, 77, 0
2, 16680, Note_on_c, 0, 80, 60
2, 16700, Note_on_c, 0, 78, 0
2, 16800, Note_on_c, 0, 73, 65
2, 16820, Note_on_c, 0, 80, 0
2, 16920, Note_on_c, 0, 73, 0
2, 16920, Note_on_c, 0, 83, 61
2, 17040, Note_on_c, 0, 81, 62
2, 17060, Note_on_c, 0, 83, 0
2, 17160, Note_on_c, 0, 80, 62
2, 17180, Note_on_c, 0, 81, 0
2, 17280, Note_on_c, 0, 81, 67
2, 17300, Note_on_c, 0, 80, 0
2, 17400, Note_on_c, 0, 81, 0
2, 17400, Note_on_c, 0, 78, 62
2, 17520, Note_on_c, 0, 80, 62
2, 17540, Note_on_c, 0, 78, 0
2, 17640, Note_on_c, 0, 81, 62
2, 17660, Note_on_c, 0, 80, 0
2, 17760, Note_on_c, 0, 73, 67
2, 17780, Note_on_c, 0, 81, 0
2, 17880, Note_on_c, 0, 73, 0
2, 17880, Note_on_c, 0, 76, 62
2, 18000, Note_on_c, 0, 75, 62
2, 18020, Note_on_c, 0, 76, 0
2, 18120, Note_on_c, 0, 73, 62
2, 18140, Note_on_c, 0, 75, 0
2, 18240, Note_on_c, 0, 75, 67
2, 18260, Note_on_c, 0, 73, 0
2, 18360, Note_on_c, 0, 75, 0
2, 18360, Note_on_c, 0, 78, 62
2, 18480, Note_on_c, 0, 79, 62
2, 18500, Note_on_c, 0, 78, 0
2, 18600, Note_on_c, 0, 81, 62
2, 18620, Note_on_c, 0, 79, 0
2, 18720, Note_on_c, 0, 71, 67
2, 18740, Note_on_c, 0, 81, 0
2, 18840, Note_on_c, 0, 71, 0
2, 18840, Note_on_c, 0, 81, 62
2, 18960, Note_on_c, 0, 79, 62
2, 18980, Note_on_c, 0, 81, 0
2, 19080, Note_on_c, 0, 78, 62
2, 19100, Note_on_c, 0, 79, 0
2, 19200, Note_on_c, 0, 79, 67
2, 19220, Note_on_c, 0, 78, 0
2, 19320, Note_on_c, 0, 79, 0
2, 19320, Note_on_c, 0, 76, 62
2, 19440, Note_on_c, 0, 78, 62
2, 19460, Note_on_c, 0, 76, 0
2, 19560, Note_on_c, 0, 79, 62
2, 19580, Note_on_c, 0, 78, 0
2, 19680, Note_on_c, 0, 71, 66
2, 19700, Note_on_c, 0, 79, 0
2, 19800, Note_on_c, 0, 71, 0
2, 19800, Note_on_c, 0, 74, 62
2, 19920, Note_on_c, 0, 72, 62
2, 19940, Note_on_c, 0, 74, 0
2, 20040, Note_on_c, 0, 71, 62
2, 20060, Note_on_c, 0, 72, 0
2, 20160, Note_on_c, 0, 72, 66
2, 20180, Note_on_c, 0, 71, 0
2, 20280, Note_on_c, 0, 72, 0
2, 20280, Note_on_c, 0, 75, 62
2, 20400, Note_on_c, 0, 76, 62
2, 20420, Note_on_c, 0, 75, 0
2, 20520, Note_on_c, 0, 78, 62
2, 20540, Note_on_c, 0, 76, 0
2, 20640, Note_on_c, 0, 69, 66
2, 20660, Note_on_c, 0, 78, 0
2, 20760, Note_on_c, 0, 69, 0
2, 20760, Note_on_c, 0, 72, 62
2, 20880, Note_on_c, 0, 71, 62
2, 20900, Note_on_c, 0, 72, 0
2, 21000, Note_on_c, 0, 69, 62
2, 21020, Note_on_c, 0, 71, 0
2, 21120, Note_on_c, 0, 67, 66
2, 21140, Note_on_c, 0, 69, 0
2, 21240, Note_on_c, 0, 67, 0
2, 21240, Note_on_c, 0, 76, 62
2, 21360, Note_on_c, 0, 78, 62
2, 21380, Note_on_c, 0, 76, 0
2, 21480, Note_on_c, 0, 79, 61
2, 21500, Note_on_c, 0, 78, 0
2, 21600, Note_on_c, 0, 71, 66
2, 21620, Note_on_c, 0, 79, 0
2, 21720, Note_on_c, 0, 71, 0
2, 21720, Note_on_c, 0, 74, 62
2, 21840, Note_on_c, 0, 73, 62
2, 21860, Note_on_c, 0, 74, 0
2, 21960, Note_on_c, 0, 71, 62
2, 21980, Note_on_c, 0, 73, 0
2, 22080, Note_on_c, 0, 73, 66
2, 22100, Note_on_c, 0, 71, 0
2, 22200, Note_on_c, 0, 73, 0
2, 22200, Note_on_c, 0, 76, 62
2, 22320, Note_on_c, 0, 78, 62
2, 22340, Note_on_c, 0, 76, 0
2, 22440, Note_on_c, 0, 79, 62
2, 22460, Note_on_c, 0, 78, 0
2, 22560, Note_on_c, 0, 69, 64
2, 22580, Note_on_c, 0, 79, 0
2, 22680, Note_on_c, 0, 69, 0
2, 22680, Note_on_c, 0, 79, 62
2, 22800, Note_on_c, 0, 78, 62
2, 22820, Note_on_c, 0, 79, 0
2, 22920, Note_on_c, 0, 76, 62
2, 22940, Note_on_c, 0, 78, 0
2, 23040, Note_on_c, 0, 78, 67
2, 23060, Note_on_c, 0, 76, 0
2, 23160, Note_on_c, 0, 78, 0
2, 23160, Note_on_c, 0, 74, 62
2, 23280, Note_on_c, 0, 76, 62
2, 23300, Note_on_c, 0, 74, 0
2, 23400, Note_on_c, 0, 78, 62
2, 23420, Note_on_c, 0, 76, 0
2, 23520, Note_on_c, 0, 69, 65
2, 23540, Note_on_c, 0, 78, 0
2, 23640, Note_on_c, 0, 69, 0
2, 23640, Note_on_c, 0, 72, 61
2, 23760, Note_on_c, 0, 71, 60
2, 23780, Note_on_c, 0, 72, 0
2, 23880, Note_on_c, 0, 69, 60
2, 23900, Note_on_c, 0, 71, 0
2, 24000, Note_on_c, 0, 71, 65
2, 24020, Note_on_c, 0, 69, 0
2, 24120, Note_on_c, 0, 71, 0
2, 24120, Note_on_c, 0, 67, 59
2, 24240, Note_on_c, 0, 69, 59
2, 24260, Note_on_c, 0, 67, 0
2, 24360, Note_on_c, 0, 71, 59
2, 24380, Note_on_c, 0, 69, 0
2, 24480, Note_on_c, 0, 61, 64
2, 24500, Note_on_c, 0, 71, 0
2, 24600, Note_on_c, 0, 61, 0
2, 24600, Note_on_c, 0, 71, 58
2, 24720, Note_on_c, 0, 69, 58
2, 24740, Note_on_c, 0, 71, 0
2, 24840, Note_on_c, 0, 67, 58
2, 24860, Note_on_c, 0, 69, 0
2, 24960, Note_on_c, 0, 66, 63
2, 24980, Note_on_c, 0, 67, 0
2, 25080, Note_on_c, 0, 66, 0
2, 25080, Note_on_c, 0, 62, 57
2, 25200, Note_on_c, 0, 64, 57
2, 25220, Note_on_c, 0, 62, 0
2, 25320, Note_on_c, 0, 66, 57
2, 25340, Note_on_c, 0, 64, 0
2, 25440, Note_on_c, 0, 57, 62
2, 25460, Note_on_c, 0, 66, 0
2, 25560, Note_on_c, 0, 57, 0
2, 25560, Note_on_c, 0, 60, 57
2, 25680, Note_on_c, 0, 59, 56
2, 25700, Note_on_c, 0, 60, 0
2, 25800, Note_on_c, 0, 57, 56
2, 25820, Note_on_c, 0, 59, 0
2, 25920, Note_on_c, 0, 59, 61
2, 25940, Note_on_c, 0, 57, 0
2, 26040, Note_on_c, 0, 59, 0
2, 26040, Note_on_c, 0, 62, 56
2, 26160, Note_on_c, 0, 64, 56
2, 26180, Note_on_c, 0, 62, 0
2, 26280, Note_on_c, 0, 66, 55
2, 26300, Note_on_c, 0, 64, 0
2, 26400, Note_on_c, 0, 59, 60
2, 26420, Note_on_c, 0, 66, 0
2, 26520, Note_on_c, 0, 59, 0
2, 26520, Note_on_c, 0, 69, 54
2, 26640, Note_on_c, 0, 68, 54
2, 26660, Note_on_c, 0, 69, 0
2, 26760, Note_on_c, 0, 66, 54
2, 26780, Note_on_c, 0, 68, 0
2, 26880, Note_on_c, 0, 68, 58
2, 26900, Note_on_c, 0, 66, 0
2, 27000, Note_on_c, 0, 68, 0
2, 27000, Note_on_c, 0, 64, 54
2, 27120, Note_on_c, 0, 66, 53
2, 27140, Note_on_c, 0, 64, 0
2, 27240, Note_on_c, 0, 68, 53
2, 27260, Note_on_c, 0, 66, 0
2, 27360, Note_on_c, 0, 59, 57
2, 27380, Note_on_c, 0, 68, 0
2, 27480, Note_on_c, 0, 59, 0
2, 27480, Note_on_c, 0, 62, 53
2, 27600, Note_on_c, 0, 60, 53
2, 27620, Note_on_c, 0, 62, 0
2, 27720, Note_on_c, 0, 59, 52
2, 27740, Note_on_c, 0, 60, 0
2, 27840, Note_on_c, 0, 57, 56
2, 27860, Note_on_c, 0, 59, 0
2, 27960, Note_on_c, 0, 57, 0
2, 27960, Note_on_c, 0, 60, 52
2, 28080, Note_on_c, 0, 62, 52
2, 28100, Note_on_c, 0, 60, 0
2, 28200, Note_on_c, 0, 64, 52
2, 28220, Note_on_c, 0, 62, 0
2, 28320, Note_on_c, 0, 57, 55
2, 28340, Note_on_c, 0, 64, 0
2, 28440, Note_on_c, 0, 57, 0
2, 28440, Note_on_c, 0, 67, 51
2, 28560, Note_on_c, 0, 66, 50
2, 28580, Note_on_c, 0, 67, 0
2, 28680, Note_on_c, 0, 64, 50
2, 28700, Note_on_c, 0, 66, 0
2, 28800, Note_on_c, 0, 63, 54
2, 28820, Note_on_c, 0, 64, 0
2, 28920, Note_on_c, 0, 63, 0
2, 28920, Note_on_c, 0, 57, 50
2, 29040, Note_on_c, 0, 59, 50
2, 29060, Note_on_c, 0, 57, 0
2, 29160, Note_on_c, 0, 60, 50
2, 29180, Note_on_c, 0, 59, 0
2, 29280, Note_on_c, 0, 57, 54
2, 29300, Note_on_c, 0, 60, 0
2, 29400, Note_on_c, 0, 57, 0
2, 29400, Note_on_c, 0, 60, 50
2, 29520, Note_on_c, 0, 59, 50
2, 29540, Note_on_c, 0, 60, 0
2, 29640, Note_on_c, 0, 57, 50
2, 29660, Note_on_c, 0, 59, 0
2, 29760, Note_on_c, 0, 55, 54
2, 29780, Note_on_c, 0, 57, 0
2, 29880, Note_on_c, 0, 55, 0
2, 29880, Note_on_c, 0, 64, 50
2, 30000, Note_on_c, 0, 66, 50
2, 30020, Note_on_c, 0, 64, 0
2, 30120, Note_on_c, 0, 67, 50
2, 30140, Note_on_c, 0, 66, 0
2, 30240, Note_on_c, 0, 59, 54
2, 30260, Note_on_c, 0, 67, 0
2, 30360, Note_on_c, 0, 59, 0
2, 30360, Note_on_c, 0, 62, 50
2, 30480, Note_on_c, 0, 61, 50
2, 30500, Note_on_c, 0, 62, 0
2, 30600, Note_on_c, 0, 59, 50
2, 30620, Note_on_c, 0, 61, 0
2, 30720, Note_on_c, 0, 58, 54
2, 30740, Note_on_c, 0, 59, 0
2, 30840, Note_on_c, 0, 58, 0
2, 30840, Note_on_c, 0, 61, 50
2, 30960, Note_on_c, 0, 62, 50
2, 30980, Note_on_c, 0, 61, 0
2, 31080, Note_on_c, 0, 64, 50
2, 31100, Note_on_c, 0, 62, 0
2, 31200, Note_on_c, 0, 58, 54
2, 31220, Note_on_c, 0, 64, 0
2, 31320, Note_on_c, 0, 58, 0
2, 31320, Note_on_c, 0, 67, 50
2, 31440, Note_on_c, 0, 66, 50
2, 31460, Note_on_c, 0, 67, 0
2, 31560, Note_on_c, 0, 64, 51
2, 31580, Note_on_c, 0, 66, 0
2, 31680, Note_on_c, 0, 73, 55
2, 31700, Note_on_c, 0, 64, 0
2, 31800, Note_on_c, 0, 73, 0
2, 31800, Note_on_c, 0, 70, 51
2, 31920, Note_on_c, 0, 71, 52
2, 31940, Note_on_c, 0, 70, 0
2, 32040, Note_on_c, 0, 73, 52
2, 32060, Note_on_c, 0, 71, 0
2, 32160, Note_on_c, 0, 66, 55
2, 32180, Note_on_c, 0, 73, 0
2, 32280, Note_on_c, 0, 66, 0
2, 32280, Note_on_c, 0, 76, 52
2, 32400, Note_on_c, 0, 74, 52
2, 32420, Note_on_c, 0, 76, 0
2, 32520, Note_on_c, 0, 73, 52
2, 32540, Note_on_c, 0, 74, 0
2, 32640, Note_on_c, 0, 74, 57
2, 32660, Note_on_c, 0, 73, 0
2, 32760, Note_on_c, 0, 74, 0
2, 32760, Note_on_c, 0, 71, 53
2, 32880, Note_on_c, 0, 73, 53
2, 32900, Note_on_c, 0, 71, 0
2, 33000, Note_on_c, 0, 74, 53
2, 33020, Note_on_c, 0, 73, 0
2, 33120, Note_on_c, 0, 66, 58
2, 33140, Note_on_c, 0, 74, 0
2, 33240, Note_on_c, 0, 66, 0
2, 33240, Note_on_c, 0, 69, 53
2, 33360, Note_on_c, 0, 68, 53
2, 33380, Note_on_c, 0, 69, 0
2, 33480, Note_on_c, 0, 66, 54
2, 33500, Note_on_c, 0, 68, 0
2, 33600, Note_on_c, 0, 68, 59
2, 33620, Note_on_c, 0, 66, 0
2, 33720, Note_on_c, 0, 68, 0
2, 33720, Note_on_c, 0, 71, 54
2, 33840, Note_on_c, 0, 72, 54
2, 33860, Note_on_c, 0, 71, 0
2, 33960, Note_on_c, 0, 74, 54
2, 33980, Note_on_c, 0, 72, 0
2, 34080, Note_on_c, 0, 64, 59
2, 34100, Note_on_c, 0, 74, 0
2, 34200, Note_on_c, 0, 64, 0
2, 34200, Note_on_c, 0, 74, 55
2, 34320, Note_on_c, 0, 72, 55
2, 34340, Note_on_c, 0, 74, 0
2, 34440, Note_on_c, 0, 71, 55
2, 34460, Note_on_c, 0, 72, 0
2, 34560, Note_on_c, 0, 72, 61
2, 34580, Note_on_c, 0, 71, 0
2, 34680, Note_on_c, 0, 72, 0
2, 34680, Note_on_c, 0, 69, 55
2, 34800, Note_on_c, 0, 71, 54
2, 34820, Note_on_c, 0, 69, 0
2, 34920, Note_on_c, 0, 72, 53
2, 34940, Note_on_c, 0, 71, 0
2, 35040, Note_on_c, 0, 64, 59
2, 35060, Note_on_c, 0, 72, 0
2, 35160, Note_on_c, 0, 64, 0
2, 35160, Note_on_c, 0, 67, 52
2, 35280, Note_on_c, 0, 66, 52
2, 35300, Note_on_c, 0, 67, 0
2, 35400, Note_on_c, 0, 64, 51
2, 35420, Note_on_c, 0, 66, 0
2, 35520, Note_on_c, 0, 66, 56
2, 35540, Note_on_c, 0, 64, 0
2, 35640, Note_on_c, 0, 66, 0
2, 35640, Note_on_c, 0, 69, 50
2, 35760, Note_on_c, 0, 71, 50
2, 35780, Note_on_c, 0, 69, 0
2, 35880, Note_on_c, 0, 72, 49
2, 35900, Note_on_c, 0, 71, 0
2, 36000, Note_on_c, 0, 62, 54
2, 36020, Note_on_c, 0, 72, 0
2, 36120, Note_on_c, 0, 62, 0
2, 36120, Note_on_c, 0, 72, 48
2, 36240, Note_on_c, 0, 71, 47
2, 36260, Note_on_c, 0, 72, 0
2, 36360, Note_on_c, 0, 69, 47
2, 36380, Note_on_c, 0, 71, 0
2, 36480, Note_on_c, 0, 71, 51
2, 36500, Note_on_c, 0, 69, 0
2, 36600, Note_on_c, 0, 71, 0
2, 36600, Note_on_c, 0, 67, 46
2, 36720, Note_on_c, 0, 69, 46
2, 36740, Note_on_c, 0, 67, 0
2, 36840, Note_on_c, 0, 71, 46
2, 36860, Note_on_c, 0, 69, 0
2, 36960, Note_on_c, 0, 62, 51
2, 36980, Note_on_c, 0, 71, 0
2, 37080, Note_on_c, 0, 62, 0
2, 37080, Note_on_c, 0, 71, 46
2, 37200, Note_on_c, 0, 69, 46
2, 37220, Note_on_c, 0, 71, 0
2, 37320, Note_on_c, 0, 67, 46
2, 37340, Note_on_c, 0, 69, 0
2, 37440, Note_on_c, 0, 74, 51
2, 37460, Note_on_c, 0, 67, 0
2, 37560, Note_on_c, 0, 74, 0
2, 37560, Note_on_c, 0, 67, 46
2, 37680, Note_on_c, 0, 69, 46
2, 37700, Note_on_c, 0, 67, 0
2, 37800, Note_on_c, 0, 71, 46
2, 37820, Note_on_c, 0, 69, 0
2, 37920, Note_on_c, 0, 62, 51
2, 37940, Note_on_c, 0, 71, 0
2, 38040, Note_on_c, 0, 62, 0
2, 38040, Note_on_c, 0, 71, 46
2, 38160, Note_on_c, 0, 69, 46
2, 38180, Note_on_c, 0, 71, 0
2, 38280, Note_on_c, 0, 67, 46
2, 38300, Note_on_c, 0, 69, 0
2, 38400, Note_on_c, 0, 72, 51
2, 38420, Note_on_c, 0, 67, 0
2, 38520, Note_on_c, 0, 72, 0
2, 38520, Note_on_c, 0, 69, 48
2, 38640, Note_on_c, 0, 71, 48
2, 38660, Note_on_c, 0, 69, 0
2, 38760, Note_on_c, 0, 72, 48
2, 38780, Note_on_c, 0, 71, 0
2, 38880, Note_on_c, 0, 64, 51
2, 38900, Note_on_c, 0, 72, 0
2, 39000, Note_on_c, 0, 64, 0
2, 39000, Note_on_c, 0, 67, 48
2, 39120, Note_on_c, 0, 66, 48
2, 39140, Note_on_c, 0, 67, 0
2, 39240, Note_on_c, 0, 64, 48
2, 39260, Note_on_c, 0, 66, 0
2, 39360, Note_on_c, 0, 66, 51
2, 39380, Note_on_c, 0, 64, 0
2, 39480, Note_on_c, 0, 66, 0
2, 39480, Note_on_c, 0, 69, 48
2, 39600, Note_on_c, 0, 71, 48
2, 39620, Note_on_c, 0, 69, 0
2, 39720, Note_on_c, 0, 72, 48
2, 39740, Note_on_c, 0, 71, 0
2, 39840, Note_on_c, 0, 62, 51
2, 39860, Note_on_c, 0, 72, 0
2, 39960, Note_on_c, 0, 62, 0
2, 39960, Note_on_c, 0, 72, 48
2, 40080, Note_on_c, 0, 71, 48
2, 40100, Note_on_c, 0, 72, 0
2, 40200, Note_on_c, 0, 69, 48
2, 40220, Note_on_c, 0, 71, 0
2, 40320, Note_on_c, 0, 71, 51
2, 40340, Note_on_c, 0, 69, 0
2, 40440, Note_on_c, 0, 71, 0
2, 40440, Note_on_c, 0, 67, 48
2, 40560, Note_on_c, 0, 69, 48
2, 40580, Note_on_c, 0, 67, 0
2, 40680, Note_on_c, 0, 71, 48
2, 40700, Note_on_c, 0, 69, 0
2, 40800, Note_on_c, 0, 62, 51
2, 40820, Note_on_c, 0, 71, 0
2, 40920, Note_on_c, 0, 62, 0
2, 40920, Note_on_c, 0, 66, 48
2, 41040, Note_on_c, 0, 64, 48
2, 41060, Note_on_c, 0, 66, 0
2, 41160, Note_on_c, 0, 62, 48
2, 41180, Note_on_c, 0, 64, 0
2, 41280, Note_on_c, 0, 64, 51
2, 41300, Note_on_c, 0, 62, 0
2, 41400, Note_on_c, 0, 64, 0
2, 41400, Note_on_c, 0, 67, 48
2, 41520, Note_on_c, 0, 69, 48
2, 41540, Note_on_c, 0, 67, 0
2, 41640, Note_on_c, 0, 71, 48
2, 41660, Note_on_c, 0, 69, 0
2, 41760, Note_on_c, 0, 64, 51
2, 41780, Note_on_c, 0, 71, 0
2, 41880, Note_on_c, 0, 64, 0
2, 41880, Note_on_c, 0, 74, 48
2, 42000, Note_on_c, 0, 73, 48
2, 42020, Note_on_c, 0, 74, 0
2, 42120, Note_on_c, 0, 71, 48
2, 42140, Note_on_c, 0, 73, 0
2, 42240, Note_on_c, 0, 73, 51
2, 42260, Note_on_c, 0, 71, 0
2, 42360, Note_on_c, 0, 73, 0
2, 42360, Note_on_c, 0, 69, 48
2, 42480, Note_on_c, 0, 71, 48
2, 42500, Note_on_c, 0, 69, 0
2, 42600, Note_on_c, 0, 73, 48
2, 42620, Note_on_c, 0, 71, 0
2, 42720, Note_on_c, 0, 64, 51
2, 42740, Note_on_c, 0, 73, 0
2, 42840, Note_on_c, 0, 64, 0
2, 42840, Note_on_c, 0, 67, 49
2, 42960, Note_on_c, 0, 66, 49
2, 42980, Note_on_c, 0, 67, 0
2, 43080, Note_on_c, 0, 64, 49
2, 43100, Note_on_c, 0, 66, 0
2, 43200, Note_on_c, 0, 62, 52
2, 43220, Note_on_c, 0, 64, 0
2, 43320, Note_on_c, 0, 62, 0
2, 43320, Note_on_c, 0, 66, 49
2, 43440, Note_on_c, 0, 67, 49
2, 43460, Note_on_c, 0, 66, 0
2, 43560, Note_on_c, 0, 69, 49
2, 43580, Note_on_c, 0, 67, 0
2, 43680, Note_on_c, 0, 59, 53
2, 43700, Note_on_c, 0, 69, 0
2, 43800, Note_on_c, 0, 59, 0
2, 43800, Note_on_c, 0, 69, 49
2, 43920, Note_on_c, 0, 67, 49
2, 43940, Note_on_c, 0, 69, 0
2, 44040, Note_on_c, 0, 66, 49
2, 44060, Note_on_c, 0, 67, 0
2, 44160, Note_on_c, 0, 67, 53
2, 44180, Note_on_c, 0, 66, 0
2, 44280, Note_on_c, 0, 67, 0
2, 44280, Note_on_c, 0, 64, 49
2, 44400, Note_on_c, 0, 66, 49
2, 44420, Note_on_c, 0, 64, 0
2, 44520, Note_on_c, 0, 67, 49
2, 44540, Note_on_c, 0, 66, 0
2, 44640, Note_on_c, 0, 59, 54
2, 44660, Note_on_c, 0, 67, 0
2, 44760, Note_on_c, 0, 59, 0
2, 44760, Note_on_c, 0, 62, 49
2, 44880, Note_on_c, 0, 61, 50
2, 44900, Note_on_c, 0, 62, 0
2, 45000, Note_on_c, 0, 59, 50
2, 45020, Note_on_c, 0, 61, 0
2, 45120, Note_on_c, 0, 61, 54
2, 45140, Note_on_c, 0, 59, 0
2, 45240, Note_on_c, 0, 61, 0
2, 45240, Note_on_c, 0, 64, 50
2, 45360, Note_on_c, 0, 66, 50
2, 45380, Note_on_c, 0, 64, 0
2, 45480, Note_on_c, 0, 67, 50
2, 45500, Note_on_c, 0, 66, 0
2, 45600, Note_on_c, 0, 57, 55
2, 45620, Note_on_c, 0, 67, 0
2, 45720, Note_on_c, 0, 57, 0
2, 45720, Note_on_c, 0, 67, 50
2, 45840, Note_on_c, 0, 66, 51
2, 45860, Note_on_c, 0, 67, 0
2, 45960, Note_on_c, 0, 64, 51
2, 45980, Note_on_c, 0, 66, 0
2, 46080, Note_on_c, 0, 66, 55
2, 46100, Note_on_c, 0, 64, 0
2, 46200, Note_on_c, 0, 66, 0
2, 46200, Note_on_c, 0, 62, 51
2, 46320, Note_on_c, 0, 64, 51
2, 46340, Note_on_c, 0, 62, 0
2, 46440, Note_on_c, 0, 66, 52
2, 46460, Note_on_c, 0, 64, 0
2, 46560, Note_on_c, 0, 57, 56
2, 46580, Note_on_c, 0, 66, 0
2, 46680, Note_on_c, 0, 57, 0
2, 46680, Note_on_c, 0, 66, 52
2, 46800, Note_on_c, 0, 64, 52
2, 46820, Note_on_c, 0, 66, 0
2, 46920, Note_on_c, 0, 62, 52
2, 46940, Note_on_c, 0, 64, 0
2, 47040, Note_on_c, 0, 69, 57
2, 47060, Note_on_c, 0, 62, 0
2, 47160, Note_on_c, 0, 69, 0
2, 47160, Note_on_c, 0, 66, 52
2, 47280, Note_on_c, 0, 67, 52
2, 47300, Note_on_c, 0, 66, 0
2, 47400, Note_on_c, 0, 69, 53
2, 47420, Note_on_c, 0, 67, 0
2, 47520, Note_on_c, 0, 62, 57
2, 47540, Note_on_c, 0, 69, 0
2, 47640, Note_on_c, 0, 62, 0
2, 47640, Note_on_c, 0, 72, 53
2, 47760, Note_on_c, 0, 71, 53
2, 47780, Note_on_c, 0, 72, 0
2, 47880, Note_on_c, 0, 69, 53
2, 47900, Note_on_c, 0, 71, 0
2, 48000, Note_on_c, 0, 71, 58
2, 48020, Note_on_c, 0, 69, 0
2, 48120, Note_on_c, 0, 71, 0
2, 48120, Note_on_c, 0, 67, 53
2, 48240, Note_on_c, 0, 69, 53
2, 48260, Note_on_c, 0, 67, 0
2, 48360, Note_on_c, 0, 71, 53
2, 48380, Note_on_c, 0, 69, 0
2, 48480, Note_on_c, 0, 62, 58
2, 48500, Note_on_c, 0, 71, 0
2, 48600, Note_on_c, 0, 62, 0
2, 48600, Note_on_c, 0, 71, 54
2, 48720, Note_on_c, 0, 69, 54
2, 48740, Note_on_c, 0, 71, 0
2, 48840, Note_on_c, 0, 67, 54
2, 48860, Note_on_c, 0, 69, 0
2, 48960, Note_on_c, 0, 74, 59
2, 48980, Note_on_c, 0, 67, 0
2, 49080, Note_on_c, 0, 74, 0
2, 49080, Note_on_c, 0, 71, 54
2, 49200, Note_on_c, 0, 73, 54
2, 49220, Note_on_c, 0, 71, 0
2, 49320, Note_on_c, 0, 74, 54
2, 49340, Note_on_c, 0, 73, 0
2, 49440, Note_on_c, 0, 68, 60
2, 49460, Note_on_c, 0, 74, 0
2, 49560, Note_on_c, 0, 68, 0
2, 49560, Note_on_c, 0, 77, 55
2, 49680, Note_on_c, 0, 76, 55
2, 49700, Note_on_c, 0, 77, 0
2, 49800, Note_on_c, 0, 74, 55
2, 49820, Note_on_c, 0, 76, 0
2, 49920, Note_on_c, 0, 73, 60
2, 49940, Note_on_c, 0, 74, 0
2, 50040, Note_on_c, 0, 73, 0
2, 50040, Note_on_c, 0, 69, 56
2, 50160, Note_on_c, 0, 71, 56
2, 50180, Note_on_c, 0, 69, 0
2, 50280, Note_on_c, 0, 73, 56
2, 50300, Note_on_c, 0, 71, 0
2, 50400, Note_on_c, 0, 64, 60
2, 50420, Note_on_c, 0, 73, 0
2, 50520, Note_on_c, 0, 64, 0
2, 50520, Note_on_c, 0, 67, 56
2, 50640, Note_on_c, 0, 66, 56
2, 50660, Note_on_c, 0, 67, 0
2, 50760, Note_on_c, 0, 64, 56
2, 50780, Note_on_c, 0, 66, 0
2, 50880, Note_on_c, 0, 69, 60
2, 50900, Note_on_c, 0, 64, 0
2, 51000, Note_on_c, 0, 69, 0
2, 51000, Note_on_c, 0, 74, 56
2, 51120, Note_on_c, 0, 76, 56
2, 51140, Note_on_c, 0, 74, 0
2, 51240, Note_on_c, 0, 78, 56
2, 51260, Note_on_c, 0, 76, 0
2, 51360, Note_on_c, 0, 71, 61
2, 51380, Note_on_c, 0, 78, 0
2, 51480, Note_on_c, 0, 71, 0
2, 51480, Note_on_c, 0, 81, 56
2, 51600, Note_on_c, 0, 79, 56
2, 51620, Note_on_c, 0, 81, 0
2, 51720, Note_on_c, 0, 78, 56
2, 51740, Note_on_c, 0, 79, 0
2, 51840, Note_on_c, 0, 79, 61
2, 51860, Note_on_c, 0, 78, 0
2, 51960, Note_on_c, 0, 79, 0
2, 51960, Note_on_c, 0, 73, 56
2, 52080, Note_on_c, 0, 74, 56
2, 52100, Note_on_c, 0, 73, 0
2, 52200, Note_on_c, 0, 76, 56
2, 52220, Note_on_c, 0, 74, 0
2, 52320, Note_on_c, 0, 69, 61
2, 52340, Note_on_c, 0, 76, 0
2, 52440, Note_on_c, 0, 69, 0
2, 52440, Note_on_c, 0, 79, 56
2, 52560, Note_on_c, 0, 78, 56
2, 52580, Note_on_c, 0, 79, 0
2, 52680, Note_on_c, 0, 76, 56
2, 52700, Note_on_c, 0, 78, 0
2, 52800, Note_on_c, 0, 78, 61
2, 52820, Note_on_c, 0, 76, 0
2, 52920, Note_on_c, 0, 78, 0
2, 52920, Note_on_c, 0, 71, 56
2, 53040, Note_on_c, 0, 73, 56
2, 53060, Note_on_c, 0, 71, 0
2, 53160, Note_on_c, 0, 74, 56
2, 53180, Note_on_c, 0, 73, 0
2, 53280, Note_on_c, 0, 68, 61
2, 53300, Note_on_c, 0, 74, 0
2, 53400, Note_on_c, 0, 68, 0
2, 53400, Note_on_c, 0, 78, 56
2, 53520, Note_on_c, 0, 76, 56
2, 53540, Note_on_c, 0, 78, 0
2, 53640, Note_on_c, 0, 74, 56
2, 53660, Note_on_c, 0, 76, 0
2, 53760, Note_on_c, 0, 73, 60
2, 53780, Note_on_c, 0, 74, 0
2, 53880, Note_on_c, 0, 73, 0
2, 53880, Note_on_c, 0, 67, 56
2, 54000, Note_on_c, 0, 69, 56
2, 54020, Note_on_c, 0, 67, 0
2, 54120, Note_on_c, 0, 70, 56
2, 54140, Note_on_c, 0, 69, 0
2, 54240, Note_on_c, 0, 64, 60
2, 54260, Note_on_c, 0, 70, 0
2, 54360, Note_on_c, 0, 64, 0
2, 54360, Note_on_c, 0, 67, 56
2, 54480, Note_on_c, 0, 65, 56
2, 54500, Note_on_c, 0, 67, 0
2, 54600, Note_on_c, 0, 64, 56
2, 54620, Note_on_c, 0, 65, 0
2, 54720, Note_on_c, 0, 65, 60
2, 54740, Note_on_c, 0, 64, 0
2, 54840, Note_on_c, 0, 65, 0
2, 54840, Note_on_c, 0, 74, 56
2, 54960, Note_on_c, 0, 76, 62
2, 54980, Note_on_c, 0, 74, 0
2, 55080, Note_on_c, 0, 77, 58
2, 55100, Note_on_c, 0, 76, 0
2, 55200, Note_on_c, 0, 73, 60
2, 55220, Note_on_c, 0, 77, 0
2, 55320, Note_on_c, 0, 73, 0
2, 55320, Note_on_c, 0, 76, 56
2, 55440, Note_on_c, 0, 74, 56
2, 55460, Note_on_c, 0, 76, 0
2, 55560, Note_on_c, 0, 73, 56
2, 55580, Note_on_c, 0, 74, 0
2, 55680, Note_on_c, 0, 74, 60
2, 55700, Note_on_c, 0, 73, 0
2, 55800, Note_on_c, 0, 74, 0
2, 55800, Note_on_c, 0, 82, 66
2, 55920, Note_on_c, 0, 81, 65
2, 55940, Note_on_c, 0, 82, 0
2, 56040, Note_on_c, 0, 79, 64
2, 56060, Note_on_c, 0, 81, 0
2, 56160, Note_on_c, 0, 77, 62
2, 56180, Note_on_c, 0, 79, 0
2, 56280, Note_on_c, 0, 77, 0
2, 56280, Note_on_c, 0, 76, 61
2, 56400, Note_on_c, 0, 74, 60
2, 56420, Note_on_c, 0, 76, 0
2, 56520, Note_on_c, 0, 73, 58
2, 56540, Note_on_c, 0, 74, 0
2, 56640, Note_on_c, 0, 74, 60
2, 56660, Note_on_c, 0, 73, 0
2, 56760, Note_on_c, 0, 74, 0
2, 56760, Note_on_c, 0, 77, 62
2, 56880, Note_on_c, 0, 76, 61
2, 56900, Note_on_c, 0, 77, 0
2, 57000, Note_on_c, 0, 74, 60
2, 57020, Note_on_c, 0, 76, 0
2, 57120, Note_on_c, 0, 83, 65
2, 57140, Note_on_c, 0, 74, 0
2, 57240, Note_on_c, 0, 83, 0
2, 57240, Note_on_c, 0, 80, 61
2, 57360, Note_on_c, 0, 81, 63
2, 57380, Note_on_c, 0, 80, 0
2, 57480, Note_on_c, 0, 83, 66
2, 57500, Note_on_c, 0, 81, 0
2, 57600, Note_on_c, 0, 77, 68
2, 57620, Note_on_c, 0, 83, 0
2, 57720, Note_on_c, 0, 77, 0
2, 57720, Note_on_c, 0, 74, 61
2, 57840, Note_on_c, 0, 76, 61
2, 57860, Note_on_c, 0, 74, 0
2, 57960, Note_on_c, 0, 77, 61
2, 57980, Note_on_c, 0, 76, 0
2, 58080, Note_on_c, 0, 71, 65
2, 58100, Note_on_c, 0, 77, 0
2, 58200, Note_on_c, 0, 71, 0
2, 58200, Note_on_c, 0, 68, 59
2, 58320, Note_on_c, 0, 69, 59
2, 58340, Note_on_c, 0, 68, 0
2, 58440, Note_on_c, 0, 71, 59
2, 58460, Note_on_c, 0, 69, 0
2, 58560, Note_on_c, 0, 64, 61
2, 58580, Note_on_c, 0, 71, 0
2, 58680, Note_on_c, 0, 64, 0
2, 58680, Note_on_c, 0, 66, 55
2, 58800, Note_on_c, 0, 68, 57
2, 58820, Note_on_c, 0, 66, 0
2, 58920, Note_on_c, 0, 69, 59
2, 58940, Note_on_c, 0, 68, 0
2, 59040, Note_on_c, 0, 71, 60
2, 59060, Note_on_c, 0, 69, 0
2, 59160, Note_on_c, 0, 73, 62
2, 59180, Note_on_c, 0, 71, 0
2, 59280, Note_on_c, 0, 74, 64
2, 59300, Note_on_c, 0, 73, 0
2, 59400, Note_on_c, 0, 76, 65
2, 59420, Note_on_c, 0, 74, 0
2, 59520, Note_on_c, 0, 77, 71
2, 59540, Note_on_c, 0, 76, 0
2, 59640, Note_on_c, 0, 73, 57
2, 59760, Note_on_c, 0, 73, 0
2, 59760, Note_on_c, 0, 74, 57
2, 59880, Note_on_c, 0, 74, 0
2, 59880, Note_on_c, 0, 69, 57
2, 60000, Note_on_c, 0, 69, 0
2, 60000, Note_on_c, 0, 70, 57
2, 60120, Note_on_c, 0, 70, 0
2, 60120, Note_on_c, 0, 67, 57
2, 60240, Note_on_c, 0, 67, 0
2, 60240, Note_on_c, 0, 77, 0
2, 60240, Note_on_c, 0, 76, 71
2, 60360, Note_on_c, 0, 67, 57
2, 60480, Note_on_c, 0, 67, 0
2, 60480, Note_on_c, 0, 69, 57
2, 60600, Note_on_c, 0, 69, 0
2, 60600, Note_on_c, 0, 65, 57
2, 60720, Note_on_c, 0, 65, 0
2, 60720, Note_on_c, 0, 76, 0
2, 60720, Note_on_c, 0, 74, 71
2, 60840, Note_on_c, 0, 65, 56
2, 60960, Note_on_c, 0, 65, 0
2, 60960, Note_on_c, 0, 67, 57
2, 61080, Note_on_c, 0, 67, 0
2, 61080, Note_on_c, 0, 64, 57
2, 61200, Note_on_c, 0, 64, 0
2, 61200, Note_on_c, 0, 74, 0
2, 61200, Note_on_c, 0, 73, 69
2, 61320, Note_on_c, 0, 64, 56
2, 61440, Note_on_c, 0, 64, 0
2, 61440, Note_on_c, 0, 73, 0
2, 61590, Note_on_c, 0, 62, 52
2, 61620, Note_on_c, 0, 65, 57
2, 61650, Note_on_c, 0, 68, 60
2, 61680, Note_on_c, 0, 71, 64
2, 61710, Note_on_c, 0, 74, 68
2, 61920, Note_on_c, 0, 71, 0
2, 61920, Note_on_c, 0, 68, 0
2, 61920, Note_on_c, 0, 62, 0
2, 61920, Note_on_c, 0, 65, 0
2, 61980, Note_on_c, 0, 74, 0
2, 61980, Note_on_c, 0, 73, 53
2, 62040, Note_on_c, 0, 73, 0
2, 62040, Note_on_c, 0, 71, 53
2, 62100, Note_on_c, 0, 71, 0
2, 62100, Note_on_c, 0, 69, 52
2, 62160, Note_on_c, 0, 69, 0
2, 62160, Note_on_c, 0, 68, 52
2, 62220, Note_on_c, 0, 68, 0
2, 62220, Note_on_c, 0, 66, 51
2, 62280, Note_on_c, 0, 66, 0
2, 62280, Note_on_c, 0, 64, 51
2, 62340, Note_on_c, 0, 64, 0
2, 62340, Note_on_c, 0, 66, 50
2, 62400, Note_on_c, 0, 66, 0
2, 62400, Note_on_c, 0, 68, 47
2, 62460, Note_on_c, 0, 68, 0
2, 62460, Note_on_c, 0, 69, 48
2, 62520, Note_on_c, 0, 69, 0
2, 62520, Note_on_c, 0, 71, 49
2, 62580, Note_on_c, 0, 71, 0
2, 62580, Note_on_c, 0, 73, 50
2, 62640, Note_on_c, 0, 73, 0
2, 62640, Note_on_c, 0, 74, 51
2, 62700, Note_on_c, 0, 74, 0
2, 62700, Note_on_c, 0, 76, 51
2, 62760, Note_on_c, 0, 76, 0
2, 62760, Note_on_c, 0, 77, 52
2, 62820, Note_on_c, 0, 77, 0
2, 62820, Note_on_c, 0, 76, 53
2, 62880, Note_on_c, 0, 76, 0
2, 62880, Note_on_c, 0, 74, 54
2, 62940, Note_on_c, 0, 74, 0
2, 62940, Note_on_c, 0, 73, 53
2, 63000, Note_on_c, 0, 73, 0
2, 63000, Note_on_c, 0, 71, 52
2, 63060, Note_on_c, 0, 71, 0
2, 63060, Note_on_c, 0, 69, 52
2, 63120, Note_on_c, 0, 69, 0
2, 63120, Note_on_c, 0, 68, 51
2, 63180, Note_on_c, 0, 68, 0
2, 63180, Note_on_c, 0, 66, 51
2, 63240, Note_on_c, 0, 66, 0
2, 63240, Note_on_c, 0, 64, 50
2, 63300, Note_on_c, 0, 64, 0
2, 63300, Note_on_c, 0, 62, 49
2, 63360, Note_on_c, 0, 62, 0
2, 63480, Note_on_c, 0, 73, 58
2, 63510, Note_on_c, 0, 76, 58
2, 63540, Note_on_c, 0, 79, 58
2, 63570, Note_on_c, 0, 82, 58
2, 63600, Note_on_c, 0, 82, 0
2, 63600, Note_on_c, 0, 73, 0
2, 63600, Note_on_c, 0, 76, 0
2, 63600, Note_on_c, 0, 79, 0
2, 63960, Note_on_c, 0, 74, 63
2, 63990, Note_on_c, 0, 77, 63
2, 64020, Note_on_c, 0, 80, 63
2, 64050, Note_on_c, 0, 83, 63
2, 64080, Note_on_c, 0, 83, 0
2, 64080, Note_on_c, 0, 74, 0
2, 64080, Note_on_c, 0, 77, 0
2, 64080, Note_on_c, 0, 80, 0
2, 64320, Note_on_c, 0, 69, 58
2, 64320, Note_on_c, 0, 64, 58
2, 64320, Note_on_c, 0, 74, 69
2, 64800, Note_on_c, 0, 74, 0
2, 64800, Note_on_c, 0, 73, 65
2, 65280, Note_on_c, 0, 73, 0
2, 65280, Note_on_c, 0, 64, 0
2, 65280, Note_on_c, 0, 69, 0
2, 65280, Note_on_c, 0, 74, 71
2, 65280, Note_on_c, 0, 69, 60
2, 65280, Note_on_c, 0, 66, 60
2, 66720, Note_on_c, 0, 66, 0
2, 66720, Note_on_c, 0, 69, 0
2, 66720, Note_on_c, 0, 74, 0
2, 66720, End_track
3, 0, Start_track
3, 0, MIDI_port, 0
3, 0, Title_t, "Piano left"
3, 0, Program_c, 0, 0
3, 0, Control_c, 0, 7, 100
3, 0, Control_c, 0, 10, 64
3, 0, Control_c, 0, 91, 127
3, 0, Note_on_c, 0, 50, 47
3, 0, Control_c, 0, 64, 0
3, 180, Note_on_c, 0, 50, 0
3, 480, Note_on_c, 0, 62, 40
3, 660, Note_on_c, 0, 62, 0
3, 960, Note_on_c, 0, 54, 45
3, 1140, Note_on_c, 0, 54, 0
3, 1440, Note_on_c, 0, 62, 40
3, 1620, Note_on_c, 0, 62, 0
3, 1920, Note_on_c, 0, 52, 46
3, 2100, Note_on_c, 0, 52, 0
3, 2400, Note_on_c, 0, 62, 42
3, 2580, Note_on_c, 0, 62, 0
3, 2880, Note_on_c, 0, 57, 45
3, 3060, Note_on_c, 0, 57, 0
3, 3360, Note_on_c, 0, 61, 41
3, 3540, Note_on_c, 0, 61, 0
3, 3840, Note_on_c, 0, 50, 45
3, 4020, Note_on_c, 0, 50, 0
3, 4320, Note_on_c, 0, 62, 40
3, 4500, Note_on_c, 0, 62, 0
3, 4800, Note_on_c, 0, 50, 44
3, 4980, Note_on_c, 0, 50, 0
3, 5280, Note_on_c, 0, 62, 42
3, 5460, Note_on_c, 0, 62, 0
3, 5760, Note_on_c, 0, 50, 45
3, 5940, Note_on_c, 0, 50, 0
3, 6240, Note_on_c, 0, 56, 42
3, 6420, Note_on_c, 0, 56, 0
3, 6720, Note_on_c, 0, 49, 45
3, 6900, Note_on_c, 0, 49, 0
3, 7200, Note_on_c, 0, 57, 42
3, 7380, Note_on_c, 0, 57, 0
3, 7680, Note_on_c, 0, 47, 46
3, 7860, Note_on_c, 0, 47, 0
3, 8160, Note_on_c, 0, 57, 39
3, 8340, Note_on_c, 0, 57, 0
3, 8640, Note_on_c, 0, 52, 44
3, 8820, Note_on_c, 0, 52, 0
3, 9120, Note_on_c, 0, 56, 38
3, 9300, Note_on_c, 0, 56, 0
3, 9600, Note_on_c, 0, 45, 42
3, 9780, Note_on_c, 0, 45, 0
3, 10080, Note_on_c, 0, 57, 39
3, 10260, Note_on_c, 0, 57, 0
3, 10560, Note_on_c, 0, 45, 41
3, 10740, Note_on_c, 0, 45, 0
3, 11040, Note_on_c, 0, 57, 36
3, 11220, Note_on_c, 0, 57, 0
3, 11520, Note_on_c, 0, 45, 39
3, 11700, Note_on_c, 0, 45, 0
3, 12000, Note_on_c, 0, 51, 36
3, 12180, Note_on_c, 0, 51, 0
3, 12480, Note_on_c, 0, 43, 41
3, 12660, Note_on_c, 0, 43, 0
3, 12960, Note_on_c, 0, 52, 38
3, 13140, Note_on_c, 0, 52, 0
3, 13440, Note_on_c, 0, 42, 44
3, 13620, Note_on_c, 0, 42, 0
3, 13920, Note_on_c, 0, 54, 39
3, 14100, Note_on_c, 0, 54, 0
3, 14400, Note_on_c, 0, 42, 46
3, 14580, Note_on_c, 0, 42, 0
3, 14880, Note_on_c, 0, 54, 41
3, 15060, Note_on_c, 0, 54, 0
3, 15360, Note_on_c, 0, 42, 46
3, 15540, Note_on_c, 0, 42, 0
3, 15840, Note_on_c, 0, 54, 42
3, 16020, Note_on_c, 0, 54, 0
3, 16320, Note_on_c, 0, 42, 47
3, 16500, Note_on_c, 0, 42, 0
3, 16800, Note_on_c, 0, 54, 42
3, 16980, Note_on_c, 0, 54, 0
3, 17280, Note_on_c, 0, 42, 49
3, 17460, Note_on_c, 0, 42, 0
3, 17760, Note_on_c, 0, 54, 44
3, 17940, Note_on_c, 0, 54, 0
3, 18240, Note_on_c, 0, 47, 49
3, 18420, Note_on_c, 0, 47, 0
3, 18720, Note_on_c, 0, 51, 45
3, 18900, Note_on_c, 0, 51, 0
3, 19200, Note_on_c, 0, 40, 48
3, 19380, Note_on_c, 0, 40, 0
3, 19680, Note_on_c, 0, 52, 45
3, 19860, Note_on_c, 0, 52, 0
3, 20160, Note_on_c, 0, 40, 48
3, 20340, Note_on_c, 0, 40, 0
3, 20640, Note_on_c, 0, 51, 48
3, 20820, Note_on_c, 0, 51, 0
3, 21120, Note_on_c, 0, 40, 48
3, 21300, Note_on_c, 0, 40, 0
3, 21600, Note_on_c, 0, 52, 45
3, 21780, Note_on_c, 0, 52, 0
3, 22080, Note_on_c, 0, 45, 48
3, 22260, Note_on_c, 0, 45, 0
3, 22560, Note_on_c, 0, 49, 45
3, 22740, Note_on_c, 0, 49, 0
3, 23040, Note_on_c, 0, 38, 48
3, 23220, Note_on_c, 0, 38, 0
3, 23520, Note_on_c, 0, 50, 44
3, 23700, Note_on_c, 0, 50, 0
3, 24000, Note_on_c, 0, 38, 47
3, 24180, Note_on_c, 0, 38, 0
3, 24480, Note_on_c, 0, 50, 40
3, 24660, Note_on_c, 0, 50, 0
3, 24960, Note_on_c, 0, 38, 45
3, 25140, Note_on_c, 0, 38, 0
3, 25440, Note_on_c, 0, 50, 41
3, 25620, Note_on_c, 0, 50, 0
3, 25920, Note_on_c, 0, 38, 44
3, 26100, Note_on_c, 0, 38, 0
3, 26400, Note_on_c, 0, 50, 38
3, 26580, Note_on_c, 0, 50, 0
3, 26880, Note_on_c, 0, 38, 42
3, 27060, Note_on_c, 0, 38, 0
3, 27360, Note_on_c, 0, 56, 38
3, 27540, Note_on_c, 0, 56, 0
3, 27840, Note_on_c, 0, 48, 41
3, 28020, Note_on_c, 0, 48, 0
3, 28320, Note_on_c, 0, 54, 37
3, 28500, Note_on_c, 0, 54, 0
3, 28800, Note_on_c, 0, 47, 40
3, 28980, Note_on_c, 0, 47, 0
3, 29280, Note_on_c, 0, 51, 37
3, 29460, Note_on_c, 0, 51, 0
3, 29760, Note_on_c, 0, 52, 41
3, 29940, Note_on_c, 0, 52, 0
3, 30240, Note_on_c, 0, 55, 36
3, 30420, Note_on_c, 0, 55, 0
3, 30720, Note_on_c, 0, 47, 41
3, 30900, Note_on_c, 0, 47, 0
3, 31200, Note_on_c, 0, 52, 37
3, 31380, Note_on_c, 0, 52, 0
3, 31680, Note_on_c, 0, 55, 42
3, 31860, Note_on_c, 0, 55, 0
3, 32160, Note_on_c, 0, 58, 37
3, 32340, Note_on_c, 0, 58, 0
3, 32640, Note_on_c, 0, 47, 43
3, 32820, Note_on_c, 0, 47, 0
3, 33120, Note_on_c, 0, 59, 38
3, 33300, Note_on_c, 0, 59, 0
3, 33600, Note_on_c, 0, 52, 44
3, 33780, Note_on_c, 0, 52, 0
3, 34080, Note_on_c, 0, 56, 39
3, 34260, Note_on_c, 0, 56, 0
3, 34560, Note_on_c, 0, 45, 46
3, 34740, Note_on_c, 0, 45, 0
3, 35040, Note_on_c, 0, 57, 40
3, 35220, Note_on_c, 0, 57, 0
3, 35520, Note_on_c, 0, 50, 43
3, 35700, Note_on_c, 0, 50, 0
3, 36000, Note_on_c, 0, 54, 36
3, 36180, Note_on_c, 0, 54, 0
3, 36480, Note_on_c, 0, 43, 39
3, 36660, Note_on_c, 0, 43, 0
3, 36960, Note_on_c, 0, 55, 34
3, 37140, Note_on_c, 0, 55, 0
3, 37440, Note_on_c, 0, 47, 39
3, 37620, Note_on_c, 0, 47, 0
3, 37920, Note_on_c, 0, 55, 35
3, 38100, Note_on_c, 0, 55, 0
3, 38400, Note_on_c, 0, 45, 39
3, 38580, Note_on_c, 0, 45, 0
3, 38880, Note_on_c, 0, 55, 34
3, 39060, Note_on_c, 0, 55, 0
3, 39360, Note_on_c, 0, 50, 39
3, 39540, Note_on_c, 0, 50, 0
3, 39840, Note_on_c, 0, 54, 34
3, 40020, Note_on_c, 0, 54, 0
3, 40320, Note_on_c, 0, 43, 39
3, 40500, Note_on_c, 0, 43, 0
3, 40800, Note_on_c, 0, 55, 34
3, 40980, Note_on_c, 0, 55, 0
3, 41280, Note_on_c, 0, 43, 39
3, 41460, Note_on_c, 0, 43, 0
3, 41760, Note_on_c, 0, 55, 34
3, 41940, Note_on_c, 0, 55, 0
3, 42240, Note_on_c, 0, 43, 39
3, 42420, Note_on_c, 0, 43, 0
3, 42720, Note_on_c, 0, 49, 34
3, 42900, Note_on_c, 0, 49, 0
3, 43200, Note_on_c, 0, 42, 39
3, 43380, Note_on_c, 0, 42, 0
3, 43680, Note_on_c, 0, 50, 34
3, 43860, Note_on_c, 0, 50, 0
3, 44160, Note_on_c, 0, 40, 40
3, 44340, Note_on_c, 0, 40, 0
3, 44640, Note_on_c, 0, 50, 35
3, 44820, Note_on_c, 0, 50, 0
3, 45120, Note_on_c, 0, 45, 42
3, 45300, Note_on_c, 0, 45, 0
3, 45600, Note_on_c, 0, 49, 36
3, 45780, Note_on_c, 0, 49, 0
3, 46080, Note_on_c, 0, 38, 43
3, 46260, Note_on_c, 0, 38, 0
3, 46560, Note_on_c, 0, 50, 38
3, 46740, Note_on_c, 0, 50, 0
3, 47040, Note_on_c, 0, 42, 44
3, 47220, Note_on_c, 0, 42, 0
3, 47520, Note_on_c, 0, 57, 39
3, 47700, Note_on_c, 0, 57, 0
3, 48000, Note_on_c, 0, 43, 45
3, 48180, Note_on_c, 0, 43, 0
3, 48480, Note_on_c, 0, 55, 40
3, 48660, Note_on_c, 0, 55, 0
3, 48960, Note_on_c, 0, 47, 46
3, 49140, Note_on_c, 0, 47, 0
3, 49440, Note_on_c, 0, 62, 41
3, 49620, Note_on_c, 0, 62, 0
3, 49920, Note_on_c, 0, 45, 47
3, 50400, Note_on_c, 0, 55, 41
3, 50580, Note_on_c, 0, 55, 0
3, 50880, Note_on_c, 0, 54, 47
3, 51060, Note_on_c, 0, 54, 0
3, 51360, Note_on_c, 0, 50, 41
3, 51540, Note_on_c, 0, 50, 0
3, 51840, Note_on_c, 0, 52, 47
3, 52020, Note_on_c, 0, 52, 0
3, 52320, Note_on_c, 0, 49, 41
3, 52500, Note_on_c, 0, 49, 0
3, 52800, Note_on_c, 0, 50, 47
3, 52980, Note_on_c, 0, 50, 0
3, 53280, Note_on_c, 0, 47, 41
3, 53460, Note_on_c, 0, 47, 0
3, 53880, Note_on_c, 0, 52, 51
3, 54000, Note_on_c, 0, 54, 50
3, 54020, Note_on_c, 0, 52, 0
3, 54120, Note_on_c, 0, 55, 50
3, 54140, Note_on_c, 0, 54, 0
3, 54240, Note_on_c, 0, 49, 54
3, 54260, Note_on_c, 0, 55, 0
3, 54360, Note_on_c, 0, 49, 0
3, 54360, Note_on_c, 0, 52, 50
3, 54480, Note_on_c, 0, 50, 50
3, 54500, Note_on_c, 0, 52, 0
3, 54600, Note_on_c, 0, 49, 50
3, 54620, Note_on_c, 0, 50, 0
3, 54720, Note_on_c, 0, 50, 54
3, 54740, Note_on_c, 0, 49, 0
3, 54840, Note_on_c, 0, 50, 0
3, 54840, Note_on_c, 0, 53, 51
3, 54960, Note_on_c, 0, 55, 53
3, 54980, Note_on_c, 0, 53, 0
3, 55080, Note_on_c, 0, 57, 53
3, 55100, Note_on_c, 0, 55, 0
3, 55200, Note_on_c, 0, 52, 54
3, 55220, Note_on_c, 0, 57, 0
3, 55320, Note_on_c, 0, 52, 0
3, 55320, Note_on_c, 0, 55, 50
3, 55440, Note_on_c, 0, 53, 50
3, 55460, Note_on_c, 0, 55, 0
3, 55560, Note_on_c, 0, 52, 50
3, 55580, Note_on_c, 0, 53, 0
3, 55680, Note_on_c, 0, 45, 0
3, 55680, Note_on_c, 0, 53, 55
3, 55700, Note_on_c, 0, 52, 0
3, 55800, Note_on_c, 0, 53, 0
3, 55800, Note_on_c, 0, 50, 50
3, 55920, Note_on_c, 0, 52, 50
3, 55940, Note_on_c, 0, 50, 0
3, 56040, Note_on_c, 0, 53, 50
3, 56060, Note_on_c, 0, 52, 0
3, 56160, Note_on_c, 0, 45, 51
3, 56180, Note_on_c, 0, 53, 0
3, 56280, Note_on_c, 0, 45, 0
3, 56280, Note_on_c, 0, 48, 52
3, 56400, Note_on_c, 0, 46, 54
3, 56420, Note_on_c, 0, 48, 0
3, 56520, Note_on_c, 0, 45, 56
3, 56540, Note_on_c, 0, 46, 0
3, 56640, Note_on_c, 0, 44, 58
3, 56660, Note_on_c, 0, 45, 0
3, 59520, Note_on_c, 0, 44, 0
3, 59520, Note_on_c, 0, 45, 60
3, 59760, Note_on_c, 0, 57, 50
3, 60000, Note_on_c, 0, 57, 0
3, 60000, Note_on_c, 0, 55, 50
3, 60240, Note_on_c, 0, 55, 0
3, 60240, Note_on_c, 0, 49, 50
3, 60480, Note_on_c, 0, 49, 0
3, 60480, Note_on_c, 0, 53, 55
3, 60720, Note_on_c, 0, 53, 0
3, 60720, Note_on_c, 0, 50, 50
3, 60960, Note_on_c, 0, 50, 0
3, 60960, Note_on_c, 0, 52, 53
3, 61200, Note_on_c, 0, 52, 0
3, 61200, Note_on_c, 0, 55, 50
3, 61440, Note_on_c, 0, 55, 0
3, 61440, Note_on_c, 0, 45, 0
3, 61440, Note_on_c, 0, 45, 44
3, 61470, Note_on_c, 0, 50, 45
3, 61500, Note_on_c, 0, 53, 48
3, 61530, Note_on_c, 0, 56, 49
3, 61560, Note_on_c, 0, 59, 52
3, 61920, Note_on_c, 0, 59, 0
3, 61920, Note_on_c, 0, 53, 0
3, 61920, Note_on_c, 0, 45, 0
3, 61920, Note_on_c, 0, 50, 0
3, 61920, Note_on_c, 0, 56, 0
3, 63360, Note_on_c, 0, 61, 58
3, 63390, Note_on_c, 0, 64, 58
3, 63420, Note_on_c, 0, 67, 58
3, 63450, Note_on_c, 0, 70, 58
3, 63600, Note_on_c, 0, 70, 0
3, 63600, Note_on_c, 0, 61, 0
3, 63600, Note_on_c, 0, 64, 0
3, 63600, Note_on_c, 0, 67, 0
3, 63840, Note_on_c, 0, 62, 62
3, 63870, Note_on_c, 0, 65, 62
3, 63900, Note_on_c, 0, 68, 62
3, 63930, Note_on_c, 0, 71, 62
3, 64080, Note_on_c, 0, 71, 0
3, 64080, Note_on_c, 0, 62, 0
3, 64080, Note_on_c, 0, 65, 0
3, 64080, Note_on_c, 0, 68, 0
3, 64320, Note_on_c, 0, 45, 57
3, 64320, Note_on_c, 0, 52, 68
3, 64320, Note_on_c, 0, 57, 68
3, 64800, Note_on_c, 0, 52, 0
3, 64800, Note_on_c, 0, 55, 63
3, 65280, Note_on_c, 0, 55, 0
3, 65280, Note_on_c, 0, 57, 0
3, 65280, Note_on_c, 0, 45, 0
3, 65280, Note_on_c, 0, 50, 57
3, 65280, Note_on_c, 0, 57, 68
3, 65280, Note_on_c, 0, 54, 57
3, 66720, Note_on_c, 0, 54, 0
3, 66720, Note_on_c, 0, 57, 0
3, 66720, Note_on_c, 0, 50, 0
3, 66720, End_track
4, 0, Start_track
4, 0, MIDI_port, 0
4, 0, Title_t, "Fuga1"
4, 0, Program_c, 0, 0
4, 0, Control_c, 0, 7, 100
4, 0, Control_c, 0, 10, 64
4, 67200, Control_c, 0, 91, 127
4, 75360, Note_on_c, 0, 69, 71
4, 75420, Note_on_c, 0, 69, 0
4, 75420, Note_on_c, 0, 71, 71
4, 75480, Note_on_c, 0, 71, 0
4, 75480, Note_on_c, 0, 73, 71
4, 75540, Note_on_c, 0, 73, 0
4, 75540, Note_on_c, 0, 74, 71
4, 75600, Note_on_c, 0, 74, 0
4, 75600, Note_on_c, 0, 73, 71
4, 75660, Note_on_c, 0, 73, 0
4, 75660, Note_on_c, 0, 71, 71
4, 75720, Note_on_c, 0, 71, 0
4, 75720, Note_on_c, 0, 73, 71
4, 75780, Note_on_c, 0, 73, 0
4, 75780, Note_on_c, 0, 69, 71
4, 75840, Note_on_c, 0, 69, 0
4, 75840, Note_on_c, 0, 78, 75
4, 76200, Note_on_c, 0, 78, 0
4, 76200, Note_on_c, 0, 78, 71
4, 76320, Note_on_c, 0, 78, 0
4, 76320, Note_on_c, 0, 76, 76
4, 76680, Note_on_c, 0, 76, 0
4, 76680, Note_on_c, 0, 74, 71
4, 76800, Note_on_c, 0, 74, 0
4, 76800, Note_on_c, 0, 73, 75
4, 77160, Note_on_c, 0, 73, 0
4, 77160, Note_on_c, 0, 76, 69
4, 77200, Note_on_c, 0, 76, 0
4, 77200, Note_on_c, 0, 78, 69
4, 77240, Note_on_c, 0, 78, 0
4, 77240, Note_on_c, 0, 79, 69
4, 77280, Note_on_c, 0, 79, 0
4, 77280, Note_on_c, 0, 81, 76
4, 77640, Note_on_c, 0, 81, 0
4, 77640, Note_on_c, 0, 81, 72
4, 77760, Note_on_c, 0, 81, 0
4, 77760, Note_on_c, 0, 81, 76
4, 78120, Note_on_c, 0, 81, 0
4, 78120, Note_on_c, 0, 74, 70
4, 78160, Note_on_c, 0, 74, 0
4, 78160, Note_on_c, 0, 76, 70
4, 78200, Note_on_c, 0, 76, 0
4, 78200, Note_on_c, 0, 78, 70
4, 78240, Note_on_c, 0, 78, 0
4, 78240, Note_on_c, 0, 79, 74
4, 78600, Note_on_c, 0, 79, 0
4, 78600, Note_on_c, 0, 79, 70
4, 78720, Note_on_c, 0, 79, 0
4, 78720, Note_on_c, 0, 79, 73
4, 79200, Note_on_c, 0, 79, 0
4, 79200, Note_on_c, 0, 78, 74
4, 79560, Note_on_c, 0, 78, 0
4, 79560, Note_on_c, 0, 76, 69
4, 79680, Note_on_c, 0, 76, 0
4, 79680, Note_on_c, 0, 74, 74
4, 80040, Note_on_c, 0, 74, 0
4, 80040, Note_on_c, 0, 76, 71
4, 80160, Note_on_c, 0, 76, 0
4, 80160, Note_on_c, 0, 73, 75
4, 80520, Note_on_c, 0, 73, 0
4, 80520, Note_on_c, 0, 73, 73
4, 80640, Note_on_c, 0, 73, 0
4, 80640, Note_on_c, 0, 73, 73
4, 81120, Note_on_c, 0, 73, 0
4, 81120, Note_on_c, 0, 71, 73
4, 81180, Note_on_c, 0, 71, 0
4, 81180, Note_on_c, 0, 73, 73
4, 81240, Note_on_c, 0, 73, 0
4, 81240, Note_on_c, 0, 74, 73
4, 81300, Note_on_c, 0, 74, 0
4, 81300, Note_on_c, 0, 76, 73
4, 81360, Note_on_c, 0, 76, 0
4, 81360, Note_on_c, 0, 74, 73
4, 81420, Note_on_c, 0, 74, 0
4, 81420, Note_on_c, 0, 73, 73
4, 81480, Note_on_c, 0, 73, 0
4, 81480, Note_on_c, 0, 74, 73
4, 81540, Note_on_c, 0, 74, 0
4, 81540, Note_on_c, 0, 71, 70
4, 81600, Note_on_c, 0, 71, 0
4, 81600, Note_on_c, 0, 79, 78
4, 81960, Note_on_c, 0, 79, 0
4, 81960, Note_on_c, 0, 79, 73
4, 82080, Note_on_c, 0, 79, 0
4, 82080, Note_on_c, 0, 78, 76
4, 82440, Note_on_c, 0, 78, 0
4, 82440, Note_on_c, 0, 76, 73
4, 82560, Note_on_c, 0, 76, 0
4, 82560, Note_on_c, 0, 74, 76
4, 83040, Note_on_c, 0, 74, 0
4, 83040, Note_on_c, 0, 83, 72
4, 83160, Note_on_c, 0, 83, 0
4, 83160, Note_on_c, 0, 81, 70
4, 83280, Note_on_c, 0, 81, 0
4, 83280, Note_on_c, 0, 83, 72
4, 83400, Note_on_c, 0, 83, 0
4, 83400, Note_on_c, 0, 80, 69
4, 83520, Note_on_c, 0, 80, 0
4, 83520, Note_on_c, 0, 80, 71
4, 83640, Note_on_c, 0, 80, 0
4, 83640, Note_on_c, 0, 78, 69
4, 83760, Note_on_c, 0, 78, 0
4, 83760, Note_on_c, 0, 80, 72
4, 83880, Note_on_c, 0, 80, 0
4, 83880, Note_on_c, 0, 76, 67
4, 84000, Note_on_c, 0, 76, 0
4, 84000, Note_on_c, 0, 76, 69
4, 84120, Note_on_c, 0, 76, 0
4, 84120, Note_on_c, 0, 74, 67
4, 84240, Note_on_c, 0, 74, 0
4, 84240, Note_on_c, 0, 76, 68
4, 84360, Note_on_c, 0, 76, 0
4, 84360, Note_on_c, 0, 73, 64
4, 84480, Note_on_c, 0, 73, 0
4, 84480, Note_on_c, 0, 73, 64
4, 84960, Note_on_c, 0, 73, 0
4, 84960, Note_on_c, 0, 81, 72
4, 85080, Note_on_c, 0, 81, 0
4, 85080, Note_on_c, 0, 79, 70
4, 85200, Note_on_c, 0, 79, 0
4, 85200, Note_on_c, 0, 81, 72
4, 85320, Note_on_c, 0, 81, 0
4, 85320, Note_on_c, 0, 78, 69
4, 85440, Note_on_c, 0, 78, 0
4, 85440, Note_on_c, 0, 78, 71
4, 85560, Note_on_c, 0, 78, 0
4, 85560, Note_on_c, 0, 76, 69
4, 85680, Note_on_c, 0, 76, 0
4, 85680, Note_on_c, 0, 78, 72
4, 85800, Note_on_c, 0, 78, 0
4, 85800, Note_on_c, 0, 74, 67
4, 85920, Note_on_c, 0, 74, 0
4, 85920, Note_on_c, 0, 74, 69
4, 86040, Note_on_c, 0, 74, 0
4, 86040, Note_on_c, 0, 72, 67
4, 86160, Note_on_c, 0, 72, 0
4, 86160, Note_on_c, 0, 74, 68
4, 86280, Note_on_c, 0, 74, 0
4, 86280, Note_on_c, 0, 71, 64
4, 86400, Note_on_c, 0, 71, 0
4, 86400, Note_on_c, 0, 71, 64
4, 86880, Note_on_c, 0, 71, 0
4, 86880, Note_on_c, 0, 67, 72
4, 86940, Note_on_c, 0, 67, 0
4, 86940, Note_on_c, 0, 69, 72
4, 87000, Note_on_c, 0, 69, 0
4, 87000, Note_on_c, 0, 71, 72
4, 87060, Note_on_c, 0, 71, 0
4, 87060, Note_on_c, 0, 72, 72
4, 87120, Note_on_c, 0, 72, 0
4, 87120, Note_on_c, 0, 71, 72
4, 87180, Note_on_c, 0, 71, 0
4, 87180, Note_on_c, 0, 69, 72
4, 87240, Note_on_c, 0, 69, 0
4, 87240, Note_on_c, 0, 71, 72
4, 87300, Note_on_c, 0, 71, 0
4, 87300, Note_on_c, 0, 67, 72
4, 87360, Note_on_c, 0, 67, 0
4, 87360, Note_on_c, 0, 76, 76
4, 87720, Note_on_c, 0, 76, 0
4, 87720, Note_on_c, 0, 76, 71
4, 87840, Note_on_c, 0, 76, 0
4, 87840, Note_on_c, 0, 74, 75
4, 88200, Note_on_c, 0, 74, 0
4, 88200, Note_on_c, 0, 72, 71
4, 88320, Note_on_c, 0, 72, 0
4, 88320, Note_on_c, 0, 71, 75
4, 88680, Note_on_c, 0, 71, 0
4, 88680, Note_on_c, 0, 73, 71
4, 88800, Note_on_c, 0, 73, 0
4, 88800, Note_on_c, 0, 74, 74
4, 89760, Note_on_c, 0, 74, 0
4, 89760, Note_on_c, 0, 73, 71
4, 90240, Note_on_c, 0, 73, 0
4, 90240, Note_on_c, 0, 74, 72
4, 90720, Note_on_c, 0, 74, 0
4, 90720, Note_on_c, 0, 74, 71
4, 90780, Note_on_c, 0, 74, 0
4, 90780, Note_on_c, 0, 76, 71
4, 90840, Note_on_c, 0, 76, 0
4, 90840, Note_on_c, 0, 78, 71
4, 90900, Note_on_c, 0, 78, 0
4, 90900, Note_on_c, 0, 79, 71
4, 90960, Note_on_c, 0, 79, 0
4, 90960, Note_on_c, 0, 78, 71
4, 91020, Note_on_c, 0, 78, 0
4, 91020, Note_on_c, 0, 76, 71
4, 91080, Note_on_c, 0, 76, 0
4, 91080, Note_on_c, 0, 78, 71
4, 91140, Note_on_c, 0, 78, 0
4, 91140, Note_on_c, 0, 74, 71
4, 91200, Note_on_c, 0, 74, 0
4, 91200, Note_on_c, 0, 83, 76
4, 91560, Note_on_c, 0, 83, 0
4, 91560, Note_on_c, 0, 83, 71
4, 91680, Note_on_c, 0, 83, 0
4, 91680, Note_on_c, 0, 81, 76
4, 92040, Note_on_c, 0, 81, 0
4, 92040, Note_on_c, 0, 79, 71
4, 92160, Note_on_c, 0, 79, 0
4, 92160, Note_on_c, 0, 78, 76
4, 92520, Note_on_c, 0, 78, 0
4, 92520, Note_on_c, 0, 74, 71
4, 92560, Note_on_c, 0, 74, 0
4, 92560, Note_on_c, 0, 76, 71
4, 92600, Note_on_c, 0, 76, 0
4, 92600, Note_on_c, 0, 78, 71
4, 92640, Note_on_c, 0, 78, 0
4, 92640, Note_on_c, 0, 79, 76
4, 93000, Note_on_c, 0, 79, 0
4, 93000, Note_on_c, 0, 79, 73
4, 93120, Note_on_c, 0, 79, 0
4, 93120, Note_on_c, 0, 79, 75
4, 93480, Note_on_c, 0, 79, 0
4, 93480, Note_on_c, 0, 81, 73
4, 93600, Note_on_c, 0, 81, 0
4, 93600, Note_on_c, 0, 78, 76
4, 93960, Note_on_c, 0, 78, 0
4, 93960, Note_on_c, 0, 78, 72
4, 94080, Note_on_c, 0, 78, 0
4, 94080, Note_on_c, 0, 78, 72
4, 94440, Note_on_c, 0, 78, 0
4, 94440, Note_on_c, 0, 76, 67
4, 94500, Note_on_c, 0, 76, 0
4, 94500, Note_on_c, 0, 75, 67
4, 94560, Note_on_c, 0, 75, 0
4, 94560, Note_on_c, 0, 76, 73
4, 95400, Note_on_c, 0, 76, 0
4, 95400, Note_on_c, 0, 75, 67
4, 95520, Note_on_c, 0, 75, 0
4, 95520, Note_on_c, 0, 76, 72
4, 95880, Note_on_c, 0, 76, 0
4, 95880, Note_on_c, 0, 78, 66
4, 96000, Note_on_c, 0, 78, 0
4, 96000, Note_on_c, 0, 71, 71
4, 96360, Note_on_c, 0, 71, 0
4, 96360, Note_on_c, 0, 72, 64
4, 96420, Note_on_c, 0, 72, 0
4, 96420, Note_on_c, 0, 69, 64
4, 96480, Note_on_c, 0, 69, 0
4, 96480, Note_on_c, 0, 71, 67
4, 96840, Note_on_c, 0, 71, 0
4, 96840, Note_on_c, 0, 72, 62
4, 96960, Note_on_c, 0, 72, 0
4, 96960, Note_on_c, 0, 67, 68
4, 97440, Note_on_c, 0, 67, 0
4, 97440, Note_on_c, 0, 66, 64
4, 97920, Note_on_c, 0, 66, 0
4, 97920, Note_on_c, 0, 64, 63
4, 97980, Note_on_c, 0, 64, 0
4, 97980, Note_on_c, 0, 66, 63
4, 98040, Note_on_c, 0, 66, 0
4, 98040, Note_on_c, 0, 67, 63
4, 98100, Note_on_c, 0, 67, 0
4, 98100, Note_on_c, 0, 69, 63
4, 98160, Note_on_c, 0, 69, 0
4, 98160, Note_on_c, 0, 67, 63
4, 98220, Note_on_c, 0, 67, 0
4, 98220, Note_on_c, 0, 66, 63
4, 98280, Note_on_c, 0, 66, 0
4, 98280, Note_on_c, 0, 67, 63
4, 98340, Note_on_c, 0, 67, 0
4, 98340, Note_on_c, 0, 64, 63
4, 98400, Note_on_c, 0, 64, 0
4, 98400, Note_on_c, 0, 79, 69
4, 98640, Note_on_c, 0, 79, 0
4, 99840, Note_on_c, 0, 69, 63
4, 99900, Note_on_c, 0, 69, 0
4, 99900, Note_on_c, 0, 71, 63
4, 99960, Note_on_c, 0, 71, 0
4, 99960, Note_on_c, 0, 73, 63
4, 100020, Note_on_c, 0, 73, 0
4, 100020, Note_on_c, 0, 74, 63
4, 100080, Note_on_c, 0, 74, 0
4, 100080, Note_on_c, 0, 73, 63
4, 100140, Note_on_c, 0, 73, 0
4, 100140, Note_on_c, 0, 71, 63
4, 100200, Note_on_c, 0, 71, 0
4, 100200, Note_on_c, 0, 73, 63
4, 100260, Note_on_c, 0, 73, 0
4, 100260, Note_on_c, 0, 69, 63
4, 100320, Note_on_c, 0, 69, 0
4, 100320, Note_on_c, 0, 78, 68
4, 100560, Note_on_c, 0, 78, 0
4, 101760, Note_on_c, 0, 67, 64
4, 101820, Note_on_c, 0, 67, 0
4, 101820, Note_on_c, 0, 69, 64
4, 101880, Note_on_c, 0, 69, 0
4, 101880, Note_on_c, 0, 71, 64
4, 101940, Note_on_c, 0, 71, 0
4, 101940, Note_on_c, 0, 72, 64
4, 102000, Note_on_c, 0, 72, 0
4, 102000, Note_on_c, 0, 71, 64
4, 102060, Note_on_c, 0, 71, 0
4, 102060, Note_on_c, 0, 69, 64
4, 102120, Note_on_c, 0, 69, 0
4, 102120, Note_on_c, 0, 71, 64
4, 102180, Note_on_c, 0, 71, 0
4, 102180, Note_on_c, 0, 67, 64
4, 102240, Note_on_c, 0, 67, 0
4, 102240, Note_on_c, 0, 76, 69
4, 102480, Note_on_c, 0, 76, 0
4, 103680, Note_on_c, 0, 66, 64
4, 103740, Note_on_c, 0, 66, 0
4, 103740, Note_on_c, 0, 67, 64
4, 103800, Note_on_c, 0, 67, 0
4, 103800, Note_on_c, 0, 69, 64
4, 103860, Note_on_c, 0, 69, 0
4, 103860, Note_on_c, 0, 71, 64
4, 103920, Note_on_c, 0, 71, 0
4, 103920, Note_on_c, 0, 69, 64
4, 103980, Note_on_c, 0, 69, 0
4, 103980, Note_on_c, 0, 67, 64
4, 104040, Note_on_c, 0, 67, 0
4, 104040, Note_on_c, 0, 69, 64
4, 104100, Note_on_c, 0, 69, 0
4, 104100, Note_on_c, 0, 66, 64
4, 104160, Note_on_c, 0, 66, 0
4, 104160, Note_on_c, 0, 74, 69
4, 104520, Note_on_c, 0, 74, 0
4, 104520, Note_on_c, 0, 74, 64
4, 104640, Note_on_c, 0, 74, 0
4, 104640, Note_on_c, 0, 74, 68
4, 105000, Note_on_c, 0, 74, 0
4, 105000, Note_on_c, 0, 76, 64
4, 105120, Note_on_c, 0, 76, 0
4, 105120, Note_on_c, 0, 73, 68
4, 105160, Note_on_c, 0, 73, 0
4, 105160, Note_on_c, 0, 74, 60
4, 105200, Note_on_c, 0, 74, 0
4, 105200, Note_on_c, 0, 73, 68
4, 105480, Note_on_c, 0, 73, 0
4, 105480, Note_on_c, 0, 74, 64
4, 105540, Note_on_c, 0, 74, 0
4, 105540, Note_on_c, 0, 76, 64
4, 105600, Note_on_c, 0, 76, 0
4, 105600, Note_on_c, 0, 78, 69
4, 106080, Note_on_c, 0, 78, 0
4, 106080, Note_on_c, 0, 83, 72
4, 106200, Note_on_c, 0, 83, 0
4, 106200, Note_on_c, 0, 81, 70
4, 106320, Note_on_c, 0, 81, 0
4, 106320, Note_on_c, 0, 83, 72
4, 106440, Note_on_c, 0, 83, 0
4, 106440, Note_on_c, 0, 79, 69
4, 106560, Note_on_c, 0, 79, 0
4, 106560, Note_on_c, 0, 79, 71
4, 106680, Note_on_c, 0, 79, 0
4, 106680, Note_on_c, 0, 78, 69
4, 106800, Note_on_c, 0, 78, 0
4, 106800, Note_on_c, 0, 79, 72
4, 106920, Note_on_c, 0, 79, 0
4, 106920, Note_on_c, 0, 76, 67
4, 107040, Note_on_c, 0, 76, 0
4, 107040, Note_on_c, 0, 76, 69
4, 107160, Note_on_c, 0, 76, 0
4, 107160, Note_on_c, 0, 74, 67
4, 107280, Note_on_c, 0, 74, 0
4, 107280, Note_on_c, 0, 76, 68
4, 107400, Note_on_c, 0, 76, 0
4, 107400, Note_on_c, 0, 73, 64
4, 107520, Note_on_c, 0, 73, 0
4, 107520, Note_on_c, 0, 73, 68
4, 108000, Note_on_c, 0, 73, 0
4, 108000, Note_on_c, 0, 74, 64
4, 108360, Note_on_c, 0, 74, 0
4, 108360, Note_on_c, 0, 74, 61
4, 108480, Note_on_c, 0, 74, 0
4, 108480, Note_on_c, 0, 74, 66
4, 108840, Note_on_c, 0, 74, 0
4, 108840, Note_on_c, 0, 76, 61
4, 108960, Note_on_c, 0, 76, 0
4, 108960, Note_on_c, 0, 73, 66
4, 109000, Note_on_c, 0, 73, 0
4, 109000, Note_on_c, 0, 74, 66
4, 109040, Note_on_c, 0, 74, 0
4, 109040, Note_on_c, 0, 73, 66
4, 109080, Note_on_c, 0, 73, 0
4, 109080, Note_on_c, 0, 74, 66
4, 109120, Note_on_c, 0, 74, 0
4, 109120, Note_on_c, 0, 73, 66
4, 109160, Note_on_c, 0, 73, 0
4, 109160, Note_on_c, 0, 74, 66
4, 109200, Note_on_c, 0, 74, 0
4, 109200, Note_on_c, 0, 73, 66
4, 109320, Note_on_c, 0, 73, 0
4, 109320, Note_on_c, 0, 74, 61
4, 109440, Note_on_c, 0, 74, 0
4, 109440, Note_on_c, 0, 74, 64
4, 109920, Note_on_c, 0, 74, 0
4, 109920, Note_on_c, 0, 71, 64
4, 109980, Note_on_c, 0, 71, 0
4, 109980, Note_on_c, 0, 73, 64
4, 110040, Note_on_c, 0, 73, 0
4, 110040, Note_on_c, 0, 74, 64
4, 110100, Note_on_c, 0, 74, 0
4, 110100, Note_on_c, 0, 76, 64
4, 110160, Note_on_c, 0, 76, 0
4, 110160, Note_on_c, 0, 74, 64
4, 110220, Note_on_c, 0, 74, 0
4, 110220, Note_on_c, 0, 73, 64
4, 110280, Note_on_c, 0, 73, 0
4, 110280, Note_on_c, 0, 74, 64
4, 110340, Note_on_c, 0, 74, 0
4, 110340, Note_on_c, 0, 71, 64
4, 110400, Note_on_c, 0, 71, 0
4, 110400, Note_on_c, 0, 76, 64
4, 110880, Note_on_c, 0, 76, 0
4, 110880, Note_on_c, 0, 69, 64
4, 110940, Note_on_c, 0, 69, 0
4, 110940, Note_on_c, 0, 71, 64
4, 111000, Note_on_c, 0, 71, 0
4, 111000, Note_on_c, 0, 73, 64
4, 111060, Note_on_c, 0, 73, 0
4, 111060, Note_on_c, 0, 74, 64
4, 111120, Note_on_c, 0, 74, 0
4, 111120, Note_on_c, 0, 73, 64
4, 111180, Note_on_c, 0, 73, 0
4, 111180, Note_on_c, 0, 71, 64
4, 111240, Note_on_c, 0, 71, 0
4, 111240, Note_on_c, 0, 73, 64
4, 111300, Note_on_c, 0, 73, 0
4, 111300, Note_on_c, 0, 69, 64
4, 111360, Note_on_c, 0, 69, 0
4, 111360, Note_on_c, 0, 74, 72
4, 111840, Note_on_c, 0, 74, 0
4, 111840, Note_on_c, 0, 67, 64
4, 111900, Note_on_c, 0, 67, 0
4, 111900, Note_on_c, 0, 69, 64
4, 111960, Note_on_c, 0, 69, 0
4, 111960, Note_on_c, 0, 71, 64
4, 112020, Note_on_c, 0, 71, 0
4, 112020, Note_on_c, 0, 72, 65
4, 112080, Note_on_c, 0, 72, 0
4, 112080, Note_on_c, 0, 71, 65
4, 112140, Note_on_c, 0, 71, 0
4, 112140, Note_on_c, 0, 69, 66
4, 112200, Note_on_c, 0, 69, 0
4, 112200, Note_on_c, 0, 71, 66
4, 112260, Note_on_c, 0, 71, 0
4, 112260, Note_on_c, 0, 67, 66
4, 112320, Note_on_c, 0, 67, 0
4, 112320, Note_on_c, 0, 73, 66
4, 112380, Note_on_c, 0, 73, 0
4, 112380, Note_on_c, 0, 74, 66
4, 112440, Note_on_c, 0, 74, 0
4, 112440, Note_on_c, 0, 76, 67
4, 112500, Note_on_c, 0, 76, 0
4, 112500, Note_on_c, 0, 78, 67
4, 112560, Note_on_c, 0, 78, 0
4, 112560, Note_on_c, 0, 76, 68
4, 112620, Note_on_c, 0, 76, 0
4, 112620, Note_on_c, 0, 74, 68
4, 112680, Note_on_c, 0, 74, 0
4, 112680, Note_on_c, 0, 76, 68
4, 112740, Note_on_c, 0, 76, 0
4, 112740, Note_on_c, 0, 73, 69
4, 112800, Note_on_c, 0, 73, 0
4, 112800, Note_on_c, 0, 78, 69
4, 112860, Note_on_c, 0, 78, 0
4, 112860, Note_on_c, 0, 79, 69
4, 112920, Note_on_c, 0, 79, 0
4, 112920, Note_on_c, 0, 81, 69
4, 112980, Note_on_c, 0, 81, 0
4, 112980, Note_on_c, 0, 83, 69
4, 113040, Note_on_c, 0, 83, 0
4, 113040, Note_on_c, 0, 81, 70
4, 113100, Note_on_c, 0, 81, 0
4, 113100, Note_on_c, 0, 79, 70
4, 113160, Note_on_c, 0, 79, 0
4, 113160, Note_on_c, 0, 81, 71
4, 113220, Note_on_c, 0, 81, 0
4, 113220, Note_on_c, 0, 78, 71
4, 113280, Note_on_c, 0, 78, 0
4, 113280, Note_on_c, 0, 83, 77
4, 113640, Note_on_c, 0, 83, 0
4, 113640, Note_on_c, 0, 73, 72
4, 113760, Note_on_c, 0, 73, 0
4, 113760, Note_on_c, 0, 74, 77
4, 114120, Note_on_c, 0, 74, 0
4, 114120, Note_on_c, 0, 76, 72
4, 114240, Note_on_c, 0, 76, 0
4, 114240, Note_on_c, 0, 78, 78
4, 114600, Note_on_c, 0, 78, 0
4, 114600, Note_on_c, 0, 66, 72
4, 114720, Note_on_c, 0, 66, 0
4, 114720, Note_on_c, 0, 67, 77
4, 115080, Note_on_c, 0, 67, 0
4, 115080, Note_on_c, 0, 69, 72
4, 115200, Note_on_c, 0, 69, 0
4, 115200, Note_on_c, 0, 71, 76
4, 115560, Note_on_c, 0, 71, 0
4, 115560, Note_on_c, 0, 71, 72
4, 115680, Note_on_c, 0, 71, 0
4, 115680, Note_on_c, 0, 73, 76
4, 116040, Note_on_c, 0, 73, 0
4, 116040, Note_on_c, 0, 74, 72
4, 116160, Note_on_c, 0, 74, 0
4, 116160, Note_on_c, 0, 66, 77
4, 116640, Note_on_c, 0, 66, 0
4, 116640, Note_on_c, 0, 64, 76
4, 117120, Note_on_c, 0, 64, 0
4, 117120, Note_on_c, 0, 62, 76
4, 119040, Note_on_c, 0, 62, 0
4, 119040, End_track
5, 0, Start_track
5, 0, MIDI_port, 0
5, 0, Title_t, "Fuga2"
5, 0, Program_c, 0, 0
5, 0, Control_c, 0, 7, 100
5, 0, Control_c, 0, 10, 64
5, 67200, Control_c, 0, 91, 127
5, 73440, Note_on_c, 0, 62, 68
5, 73500, Note_on_c, 0, 62, 0
5, 73500, Note_on_c, 0, 64, 68
5, 73560, Note_on_c, 0, 64, 0
5, 73560, Note_on_c, 0, 66, 68
5, 73620, Note_on_c, 0, 66, 0
5, 73620, Note_on_c, 0, 67, 68
5, 73680, Note_on_c, 0, 67, 0
5, 73680, Note_on_c, 0, 66, 68
5, 73740, Note_on_c, 0, 66, 0
5, 73740, Note_on_c, 0, 64, 68
5, 73800, Note_on_c, 0, 64, 0
5, 73800, Note_on_c, 0, 66, 68
5, 73860, Note_on_c, 0, 66, 0
5, 73860, Note_on_c, 0, 62, 68
5, 73920, Note_on_c, 0, 62, 0
5, 73920, Note_on_c, 0, 71, 73
5, 74280, Note_on_c, 0, 71, 0
5, 74280, Note_on_c, 0, 71, 68
5, 74400, Note_on_c, 0, 71, 0
5, 74400, Note_on_c, 0, 69, 72
5, 74760, Note_on_c, 0, 69, 0
5, 74760, Note_on_c, 0, 67, 69
5, 74880, Note_on_c, 0, 67, 0
5, 74880, Note_on_c, 0, 66, 73
5, 75240, Note_on_c, 0, 66, 0
5, 75240, Note_on_c, 0, 68, 68
5, 75360, Note_on_c, 0, 68, 0
5, 75360, Note_on_c, 0, 69, 73
5, 76320, Note_on_c, 0, 69, 0
5, 76320, Note_on_c, 0, 68, 67
5, 76800, Note_on_c, 0, 68, 0
5, 76800, Note_on_c, 0, 69, 72
5, 77280, Note_on_c, 0, 69, 0
5, 77280, Note_on_c, 0, 73, 65
5, 77760, Note_on_c, 0, 73, 0
5, 77760, Note_on_c, 0, 74, 65
5, 78240, Note_on_c, 0, 74, 0
5, 78240, Note_on_c, 0, 74, 65
5, 78720, Note_on_c, 0, 74, 0
5, 78720, Note_on_c, 0, 73, 66
5, 79080, Note_on_c, 0, 73, 0
5, 79080, Note_on_c, 0, 76, 72
5, 79120, Note_on_c, 0, 76, 0
5, 79120, Note_on_c, 0, 74, 72
5, 79160, Note_on_c, 0, 74, 0
5, 79160, Note_on_c, 0, 73, 72
5, 79200, Note_on_c, 0, 73, 0
5, 79200, Note_on_c, 0, 74, 77
5, 79560, Note_on_c, 0, 74, 0
5, 79560, Note_on_c, 0, 73, 69
5, 79680, Note_on_c, 0, 73, 0
5, 79680, Note_on_c, 0, 71, 74
5, 80160, Note_on_c, 0, 71, 0
5, 80160, Note_on_c, 0, 69, 65
5, 80640, Note_on_c, 0, 69, 0
5, 80640, Note_on_c, 0, 69, 65
5, 81120, Note_on_c, 0, 69, 0
5, 81120, Note_on_c, 0, 71, 65
5, 82080, Note_on_c, 0, 71, 0
5, 82080, Note_on_c, 0, 70, 61
5, 82560, Note_on_c, 0, 70, 0
5, 82560, Note_on_c, 0, 71, 65
5, 83040, Note_on_c, 0, 71, 0
5, 83520, Note_on_c, 0, 74, 55
5, 83880, Note_on_c, 0, 74, 0
5, 83880, Note_on_c, 0, 71, 52
5, 84000, Note_on_c, 0, 71, 0
5, 84000, Note_on_c, 0, 71, 55
5, 84360, Note_on_c, 0, 71, 0
5, 84360, Note_on_c, 0, 69, 52
5, 84480, Note_on_c, 0, 69, 0
5, 84480, Note_on_c, 0, 69, 55
5, 84960, Note_on_c, 0, 69, 0
5, 85440, Note_on_c, 0, 72, 55
5, 85800, Note_on_c, 0, 72, 0
5, 85800, Note_on_c, 0, 69, 52
5, 85920, Note_on_c, 0, 69, 0
5, 85920, Note_on_c, 0, 69, 55
5, 86280, Note_on_c, 0, 69, 0
5, 86280, Note_on_c, 0, 67, 52
5, 86400, Note_on_c, 0, 67, 0
5, 86400, Note_on_c, 0, 67, 55
5, 86878, Note_on_c, 0, 67, 0
5, 88800, Note_on_c, 0, 62, 67
5, 88860, Note_on_c, 0, 62, 0
5, 88860, Note_on_c, 0, 64, 67
5, 88920, Note_on_c, 0, 64, 0
5, 88920, Note_on_c, 0, 66, 67
5, 88980, Note_on_c, 0, 66, 0
5, 88980, Note_on_c, 0, 67, 67
5, 89040, Note_on_c, 0, 67, 0
5, 89040, Note_on_c, 0, 66, 67
5, 89100, Note_on_c, 0, 66, 0
5, 89100, Note_on_c, 0, 64, 67
5, 89160, Note_on_c, 0, 64, 0
5, 89160, Note_on_c, 0, 66, 67
5, 89220, Note_on_c, 0, 66, 0
5, 89220, Note_on_c, 0, 62, 67
5, 89280, Note_on_c, 0, 62, 0
5, 89280, Note_on_c, 0, 71, 73
5, 89640, Note_on_c, 0, 71, 0
5, 89640, Note_on_c, 0, 71, 67
5, 89760, Note_on_c, 0, 71, 0
5, 89760, Note_on_c, 0, 69, 73
5, 90120, Note_on_c, 0, 69, 0
5, 90120, Note_on_c, 0, 67, 67
5, 90240, Note_on_c, 0, 67, 0
5, 90240, Note_on_c, 0, 66, 72
5, 90600, Note_on_c, 0, 66, 0
5, 90600, Note_on_c, 0, 69, 55
5, 90720, Note_on_c, 0, 69, 0
5, 90720, Note_on_c, 0, 74, 61
5, 91680, Note_on_c, 0, 74, 0
5, 91680, Note_on_c, 0, 72, 61
5, 92640, Note_on_c, 0, 72, 0
5, 92640, Note_on_c, 0, 71, 61
5, 93120, Note_on_c, 0, 71, 0
5, 93120, Note_on_c, 0, 69, 61
5, 94080, Note_on_c, 0, 69, 0
5, 94080, Note_on_c, 0, 67, 61
5, 94560, Note_on_c, 0, 67, 0
5, 94560, Note_on_c, 0, 71, 61
5, 95040, Note_on_c, 0, 71, 0
5, 95040, Note_on_c, 0, 69, 61
5, 96480, Note_on_c, 0, 69, 0
5, 96480, Note_on_c, 0, 67, 60
5, 96840, Note_on_c, 0, 67, 0
5, 96840, Note_on_c, 0, 64, 55
5, 96959, Note_on_c, 0, 64, 0
5, 96960, Note_on_c, 0, 64, 60
5, 97440, Note_on_c, 0, 64, 0
5, 97440, Note_on_c, 0, 63, 55
5, 97920, Note_on_c, 0, 63, 0
5, 97920, Note_on_c, 0, 64, 61
5, 98400, Note_on_c, 0, 64, 0
5, 98880, Note_on_c, 0, 64, 57
5, 99240, Note_on_c, 0, 64, 0
5, 99240, Note_on_c, 0, 61, 53
5, 99359, Note_on_c, 0, 61, 0
5, 99360, Note_on_c, 0, 61, 57
5, 99720, Note_on_c, 0, 61, 0
5, 99720, Note_on_c, 0, 57, 53
5, 99840, Note_on_c, 0, 57, 0
5, 99840, Note_on_c, 0, 57, 57
5, 100320, Note_on_c, 0, 57, 0
5, 100800, Note_on_c, 0, 62, 57
5, 101160, Note_on_c, 0, 62, 0
5, 101160, Note_on_c, 0, 59, 53
5, 101279, Note_on_c, 0, 59, 0
5, 101280, Note_on_c, 0, 59, 57
5, 101640, Note_on_c, 0, 59, 0
5, 101640, Note_on_c, 0, 55, 52
5, 101760, Note_on_c, 0, 55, 0
5, 101760, Note_on_c, 0, 55, 57
5, 102240, Note_on_c, 0, 55, 0
5, 102720, Note_on_c, 0, 61, 57
5, 103080, Note_on_c, 0, 61, 0
5, 103080, Note_on_c, 0, 57, 55
5, 103199, Note_on_c, 0, 57, 0
5, 103200, Note_on_c, 0, 57, 57
5, 103560, Note_on_c, 0, 57, 0
5, 103560, Note_on_c, 0, 54, 54
5, 103679, Note_on_c, 0, 54, 0
5, 103680, Note_on_c, 0, 54, 51
5, 104160, Note_on_c, 0, 54, 0
5, 104160, Note_on_c, 0, 59, 62
5, 104220, Note_on_c, 0, 59, 0
5, 104220, Note_on_c, 0, 61, 62
5, 104280, Note_on_c, 0, 61, 0
5, 104280, Note_on_c, 0, 62, 62
5, 104340, Note_on_c, 0, 62, 0
5, 104340, Note_on_c, 0, 64, 62
5, 104400, Note_on_c, 0, 64, 0
5, 104400, Note_on_c, 0, 62, 62
5, 104460, Note_on_c, 0, 62, 0
5, 104460, Note_on_c, 0, 61, 62
5, 104520, Note_on_c, 0, 61, 0
5, 104520, Note_on_c, 0, 62, 62
5, 104580, Note_on_c, 0, 62, 0
5, 104580, Note_on_c, 0, 59, 62
5, 104640, Note_on_c, 0, 59, 0
5, 104640, Note_on_c, 0, 67, 67
5, 105600, Note_on_c, 0, 67, 0
5, 105600, Note_on_c, 0, 66, 65
5, 106080, Note_on_c, 0, 66, 0
5, 106560, Note_on_c, 0, 74, 55
5, 106920, Note_on_c, 0, 74, 0
5, 106920, Note_on_c, 0, 71, 52
5, 107039, Note_on_c, 0, 71, 0
5, 107040, Note_on_c, 0, 71, 55
5, 107400, Note_on_c, 0, 71, 0
5, 107400, Note_on_c, 0, 69, 52
5, 107519, Note_on_c, 0, 69, 0
5, 107520, Note_on_c, 0, 64, 55
5, 107520, Note_on_c, 0, 69, 55
5, 108000, Note_on_c, 0, 69, 0
5, 108000, Note_on_c, 0, 64, 0
5, 108000, Note_on_c, 0, 69, 49
5, 108360, Note_on_c, 0, 69, 0
5, 108360, Note_on_c, 0, 69, 46
5, 108480, Note_on_c, 0, 69, 0
5, 108480, Note_on_c, 0, 71, 49
5, 108840, Note_on_c, 0, 71, 0
5, 108840, Note_on_c, 0, 71, 46
5, 108960, Note_on_c, 0, 71, 0
5, 108960, Note_on_c, 0, 69, 49
5, 109440, Note_on_c, 0, 69, 0
5, 109440, Note_on_c, 0, 69, 49
5, 109920, Note_on_c, 0, 69, 0
5, 110400, Note_on_c, 0, 71, 49
5, 110880, Note_on_c, 0, 71, 0
5, 111360, Note_on_c, 0, 69, 49
5, 111840, Note_on_c, 0, 69, 0
5, 113640, Note_on_c, 0, 69, 70
5, 113760, Note_on_c, 0, 69, 0
5, 113760, Note_on_c, 0, 69, 72
5, 114120, Note_on_c, 0, 69, 0
5, 114120, Note_on_c, 0, 73, 70
5, 114240, Note_on_c, 0, 73, 0
5, 114240, Note_on_c, 0, 74, 72
5, 114600, Note_on_c, 0, 74, 0
5, 114600, Note_on_c, 0, 62, 70
5, 114719, Note_on_c, 0, 62, 0
5, 114720, Note_on_c, 0, 62, 72
5, 115080, Note_on_c, 0, 62, 0
5, 115080, Note_on_c, 0, 66, 69
5, 115200, Note_on_c, 0, 66, 0
5, 115200, Note_on_c, 0, 67, 72
5, 115560, Note_on_c, 0, 67, 0
5, 115560, Note_on_c, 0, 62, 69
5, 115680, Note_on_c, 0, 62, 0
5, 115680, Note_on_c, 0, 64, 72
5, 116040, Note_on_c, 0, 64, 0
5, 116040, Note_on_c, 0, 66, 69
5, 116158, Note_on_c, 0, 66, 0
5, 116160, Note_on_c, 0, 62, 72
5, 116640, Note_on_c, 0, 62, 0
5, 116640, Note_on_c, 0, 61, 72
5, 117120, Note_on_c, 0, 61, 0
5, 117120, Note_on_c, 0, 57, 72
5, 119040, Note_on_c, 0, 57, 0
5, 119040, End_track
6, 0, Start_track
6, 0, MIDI_port, 0
6, 0, Title_t, "Fuga3"
6, 0, Program_c, 0, 0
6, 0, Control_c, 0, 7, 100
6, 0, Control_c, 0, 10, 64
6, 67200, Control_c, 0, 91, 127
6, 69600, Note_on_c, 0, 57, 66
6, 69660, Note_on_c, 0, 57, 0
6, 69660, Note_on_c, 0, 59, 66
6, 69720, Note_on_c, 0, 59, 0
6, 69720, Note_on_c, 0, 61, 66
6, 69780, Note_on_c, 0, 61, 0
6, 69780, Note_on_c, 0, 62, 66
6, 69840, Note_on_c, 0, 62, 0
6, 69840, Note_on_c, 0, 61, 66
6, 69900, Note_on_c, 0, 61, 0
6, 69900, Note_on_c, 0, 59, 66
6, 69960, Note_on_c, 0, 59, 0
6, 69960, Note_on_c, 0, 61, 66
6, 70020, Note_on_c, 0, 61, 0
6, 70020, Note_on_c, 0, 57, 66
6, 70080, Note_on_c, 0, 57, 0
6, 70080, Note_on_c, 0, 66, 71
6, 70440, Note_on_c, 0, 66, 0
6, 70440, Note_on_c, 0, 66, 66
6, 70560, Note_on_c, 0, 66, 0
6, 70560, Note_on_c, 0, 64, 71
6, 70920, Note_on_c, 0, 64, 0
6, 70920, Note_on_c, 0, 62, 66
6, 71040, Note_on_c, 0, 62, 0
6, 71040, Note_on_c, 0, 61, 73
6, 71520, Note_on_c, 0, 61, 0
6, 71520, Note_on_c, 0, 66, 72
6, 71880, Note_on_c, 0, 66, 0
6, 71880, Note_on_c, 0, 66, 68
6, 72000, Note_on_c, 0, 66, 0
6, 72000, Note_on_c, 0, 59, 73
6, 72360, Note_on_c, 0, 59, 0
6, 72360, Note_on_c, 0, 59, 67
6, 72400, Note_on_c, 0, 59, 0
6, 72400, Note_on_c, 0, 61, 67
6, 72440, Note_on_c, 0, 61, 0
6, 72440, Note_on_c, 0, 62, 67
6, 72480, Note_on_c, 0, 62, 0
6, 72480, Note_on_c, 0, 64, 71
6, 72600, Note_on_c, 0, 64, 0
6, 72600, Note_on_c, 0, 62, 67
6, 72720, Note_on_c, 0, 62, 0
6, 72720, Note_on_c, 0, 64, 72
6, 72840, Note_on_c, 0, 64, 0
6, 72840, Note_on_c, 0, 61, 67
6, 72960, Note_on_c, 0, 61, 0
6, 72960, Note_on_c, 0, 57, 73
6, 73440, Note_on_c, 0, 57, 0
6, 73440, Note_on_c, 0, 62, 67
6, 74400, Note_on_c, 0, 62, 0
6, 74400, Note_on_c, 0, 61, 58
6, 74880, Note_on_c, 0, 61, 0
6, 74880, Note_on_c, 0, 62, 63
6, 75360, Note_on_c, 0, 62, 0
6, 75360, Note_on_c, 0, 61, 63
6, 75840, Note_on_c, 0, 61, 0
6, 75840, Note_on_c, 0, 59, 63
6, 76800, Note_on_c, 0, 59, 0
6, 76800, Note_on_c, 0, 57, 63
6, 77280, Note_on_c, 0, 57, 0
6, 77280, Note_on_c, 0, 66, 71
6, 77340, Note_on_c, 0, 66, 0
6, 77340, Note_on_c, 0, 67, 71
6, 77400, Note_on_c, 0, 67, 0
6, 77400, Note_on_c, 0, 69, 71
6, 77460, Note_on_c, 0, 69, 0
6, 77460, Note_on_c, 0, 71, 71
6, 77520, Note_on_c, 0, 71, 0
6, 77520, Note_on_c, 0, 69, 71
6, 77580, Note_on_c, 0, 69, 0
6, 77580, Note_on_c, 0, 67, 71
6, 77640, Note_on_c, 0, 67, 0
6, 77640, Note_on_c, 0, 69, 71
6, 77700, Note_on_c, 0, 69, 0
6, 77700, Note_on_c, 0, 66, 71
6, 77760, Note_on_c, 0, 66, 0
6, 77760, Note_on_c, 0, 71, 78
6, 78240, Note_on_c, 0, 71, 0
6, 78240, Note_on_c, 0, 64, 71
6, 78300, Note_on_c, 0, 64, 0
6, 78300, Note_on_c, 0, 66, 71
6, 78360, Note_on_c, 0, 66, 0
6, 78360, Note_on_c, 0, 67, 71
6, 78420, Note_on_c, 0, 67, 0
6, 78420, Note_on_c, 0, 69, 71
6, 78480, Note_on_c, 0, 69, 0
6, 78480, Note_on_c, 0, 67, 71
6, 78540, Note_on_c, 0, 67, 0
6, 78540, Note_on_c, 0, 66, 71
6, 78600, Note_on_c, 0, 66, 0
6, 78600, Note_on_c, 0, 67, 71
6, 78660, Note_on_c, 0, 67, 0
6, 78660, Note_on_c, 0, 64, 71
6, 78720, Note_on_c, 0, 64, 0
6, 78720, Note_on_c, 0, 69, 77
6, 79200, Note_on_c, 0, 69, 0
6, 79200, Note_on_c, 0, 69, 60
6, 79560, Note_on_c, 0, 69, 0
6, 79560, Note_on_c, 0, 67, 57
6, 79680, Note_on_c, 0, 67, 0
6, 79680, Note_on_c, 0, 66, 60
6, 80040, Note_on_c, 0, 66, 0
6, 80040, Note_on_c, 0, 67, 57
6, 80160, Note_on_c, 0, 67, 0
6, 80160, Note_on_c, 0, 64, 60
6, 80640, Note_on_c, 0, 64, 0
6, 80640, Note_on_c, 0, 62, 64
6, 81120, Note_on_c, 0, 62, 0
6, 81120, Note_on_c, 0, 62, 60
6, 81600, Note_on_c, 0, 62, 0
6, 81600, Note_on_c, 0, 61, 60
6, 82560, Note_on_c, 0, 61, 0
6, 82560, Note_on_c, 0, 59, 60
6, 83040, Note_on_c, 0, 59, 0
6, 83520, Note_on_c, 0, 71, 54
6, 83880, Note_on_c, 0, 71, 0
6, 83880, Note_on_c, 0, 68, 50
6, 84000, Note_on_c, 0, 68, 0
6, 84000, Note_on_c, 0, 68, 54
6, 84360, Note_on_c, 0, 68, 0
6, 84360, Note_on_c, 0, 64, 50
6, 84480, Note_on_c, 0, 64, 0
6, 84480, Note_on_c, 0, 64, 54
6, 84960, Note_on_c, 0, 64, 0
6, 85440, Note_on_c, 0, 69, 54
6, 85800, Note_on_c, 0, 69, 0
6, 85800, Note_on_c, 0, 66, 50
6, 85920, Note_on_c, 0, 66, 0
6, 85920, Note_on_c, 0, 66, 54
6, 86280, Note_on_c, 0, 66, 0
6, 86280, Note_on_c, 0, 62, 50
6, 86400, Note_on_c, 0, 62, 0
6, 86400, Note_on_c, 0, 62, 54
6, 86880, Note_on_c, 0, 62, 0
6, 92640, Note_on_c, 0, 55, 65
6, 92700, Note_on_c, 0, 55, 0
6, 92700, Note_on_c, 0, 57, 65
6, 92760, Note_on_c, 0, 57, 0
6, 92760, Note_on_c, 0, 59, 65
6, 92820, Note_on_c, 0, 59, 0
6, 92820, Note_on_c, 0, 60, 65
6, 92880, Note_on_c, 0, 60, 0
6, 92880, Note_on_c, 0, 59, 65
6, 92940, Note_on_c, 0, 59, 0
6, 92940, Note_on_c, 0, 57, 65
6, 93000, Note_on_c, 0, 57, 0
6, 93000, Note_on_c, 0, 59, 65
6, 93060, Note_on_c, 0, 59, 0
6, 93060, Note_on_c, 0, 55, 65
6, 93120, Note_on_c, 0, 55, 0
6, 93120, Note_on_c, 0, 64, 70
6, 93480, Note_on_c, 0, 64, 0
6, 93480, Note_on_c, 0, 64, 66
6, 93600, Note_on_c, 0, 64, 0
6, 93600, Note_on_c, 0, 62, 70
6, 93960, Note_on_c, 0, 62, 0
6, 93960, Note_on_c, 0, 60, 66
6, 94080, Note_on_c, 0, 60, 0
6, 94080, Note_on_c, 0, 59, 71
6, 94560, Note_on_c, 0, 59, 0
6, 94560, Note_on_c, 0, 67, 58
6, 95040, Note_on_c, 0, 67, 0
6, 95040, Note_on_c, 0, 66, 58
6, 96480, Note_on_c, 0, 66, 0
6, 96480, Note_on_c, 0, 64, 61
6, 96840, Note_on_c, 0, 64, 0
6, 96840, Note_on_c, 0, 54, 57
6, 96960, Note_on_c, 0, 54, 0
6, 96960, Note_on_c, 0, 55, 60
6, 97320, Note_on_c, 0, 55, 0
6, 97320, Note_on_c, 0, 57, 57
6, 97440, Note_on_c, 0, 57, 0
6, 97440, Note_on_c, 0, 59, 60
6, 97800, Note_on_c, 0, 59, 0
6, 97800, Note_on_c, 0, 57, 57
6, 97920, Note_on_c, 0, 57, 0
6, 97920, Note_on_c, 0, 55, 60
6, 98400, Note_on_c, 0, 55, 0
6, 98880, Note_on_c, 0, 59, 57
6, 99240, Note_on_c, 0, 59, 0
6, 99240, Note_on_c, 0, 55, 53
6, 99359, Note_on_c, 0, 55, 0
6, 99360, Note_on_c, 0, 55, 57
6, 99720, Note_on_c, 0, 55, 0
6, 99720, Note_on_c, 0, 52, 53
6, 99840, Note_on_c, 0, 52, 0
6, 99840, Note_on_c, 0, 52, 57
6, 100320, Note_on_c, 0, 52, 0
6, 100800, Note_on_c, 0, 57, 57
6, 101160, Note_on_c, 0, 57, 0
6, 101160, Note_on_c, 0, 54, 54
6, 101279, Note_on_c, 0, 54, 0
6, 101280, Note_on_c, 0, 54, 57
6, 101640, Note_on_c, 0, 54, 0
6, 101640, Note_on_c, 0, 50, 54
6, 101760, Note_on_c, 0, 50, 0
6, 101760, Note_on_c, 0, 50, 57
6, 102240, Note_on_c, 0, 50, 0
6, 102720, Note_on_c, 0, 55, 57
6, 103080, Note_on_c, 0, 55, 0
6, 103080, Note_on_c, 0, 52, 54
6, 103199, Note_on_c, 0, 52, 0
6, 103200, Note_on_c, 0, 52, 57
6, 103560, Note_on_c, 0, 52, 0
6, 103560, Note_on_c, 0, 49, 54
6, 103679, Note_on_c, 0, 49, 0
6, 103680, Note_on_c, 0, 49, 51
6, 104160, Note_on_c, 0, 49, 0
6, 105180, Note_on_c, 0, 59, 60
6, 105240, Note_on_c, 0, 59, 0
6, 105240, Note_on_c, 0, 61, 60
6, 105300, Note_on_c, 0, 61, 0
6, 105300, Note_on_c, 0, 62, 60
6, 105360, Note_on_c, 0, 62, 0
6, 105360, Note_on_c, 0, 61, 60
6, 105420, Note_on_c, 0, 61, 0
6, 105420, Note_on_c, 0, 59, 60
6, 105480, Note_on_c, 0, 59, 0
6, 105480, Note_on_c, 0, 61, 60
6, 105540, Note_on_c, 0, 61, 0
6, 105540, Note_on_c, 0, 57, 60
6, 105600, Note_on_c, 0, 57, 0
6, 105600, Note_on_c, 0, 62, 65
6, 106080, Note_on_c, 0, 62, 0
6, 106560, Note_on_c, 0, 71, 54
6, 106920, Note_on_c, 0, 71, 0
6, 106920, Note_on_c, 0, 67, 50
6, 107039, Note_on_c, 0, 67, 0
6, 107040, Note_on_c, 0, 67, 54
6, 107400, Note_on_c, 0, 67, 0
6, 107400, Note_on_c, 0, 64, 50
6, 107520, Note_on_c, 0, 64, 0
6, 107520, Note_on_c, 0, 55, 54
6, 108000, Note_on_c, 0, 55, 0
6, 108000, Note_on_c, 0, 66, 48
6, 108360, Note_on_c, 0, 66, 0
6, 108360, Note_on_c, 0, 66, 45
6, 108480, Note_on_c, 0, 66, 0
6, 108480, Note_on_c, 0, 66, 48
6, 108840, Note_on_c, 0, 66, 0
6, 108840, Note_on_c, 0, 67, 45
6, 108960, Note_on_c, 0, 67, 0
6, 108960, Note_on_c, 0, 64, 48
6, 109440, Note_on_c, 0, 64, 0
6, 109440, Note_on_c, 0, 66, 48
6, 109920, Note_on_c, 0, 66, 0
6, 110400, Note_on_c, 0, 64, 48
6, 110880, Note_on_c, 0, 64, 0
6, 111360, Note_on_c, 0, 62, 48
6, 111840, Note_on_c, 0, 62, 0
6, 113640, Note_on_c, 0, 64, 69
6, 113760, Note_on_c, 0, 64, 0
6, 113760, Note_on_c, 0, 66, 72
6, 114120, Note_on_c, 0, 66, 0
6, 114120, Note_on_c, 0, 67, 69
6, 114240, Note_on_c, 0, 67, 0
6, 114240, Note_on_c, 0, 69, 72
6, 114600, Note_on_c, 0, 69, 0
6, 114600, Note_on_c, 0, 57, 68
6, 114720, Note_on_c, 0, 57, 0
6, 114720, Note_on_c, 0, 59, 72
6, 115080, Note_on_c, 0, 59, 0
6, 115080, Note_on_c, 0, 60, 68
6, 115200, Note_on_c, 0, 60, 0
6, 115200, Note_on_c, 0, 62, 72
6, 115560, Note_on_c, 0, 62, 0
6, 115560, Note_on_c, 0, 67, 68
6, 115680, Note_on_c, 0, 67, 0
6, 115680, Note_on_c, 0, 67, 72
6, 116040, Note_on_c, 0, 67, 0
6, 116040, Note_on_c, 0, 69, 68
6, 116160, Note_on_c, 0, 69, 0
6, 116160, Note_on_c, 0, 57, 72
6, 116640, Note_on_c, 0, 57, 0
6, 116640, Note_on_c, 0, 55, 72
6, 117120, Note_on_c, 0, 55, 0
6, 117120, Note_on_c, 0, 54, 70
6, 119040, Note_on_c, 0, 54, 0
6, 119040, End_track
7, 0, Start_track
7, 0, MIDI_port, 0
7, 0, Title_t, "Fuga4"
7, 0, Program_c, 0, 0
7, 0, Control_c, 0, 7, 100
7, 0, Control_c, 0, 10, 64
7, 67200, Control_c, 0, 91, 127
7, 67680, Note_on_c, 0, 50, 66
7, 67740, Note_on_c, 0, 50, 0
7, 67740, Note_on_c, 0, 52, 66
7, 67800, Note_on_c, 0, 52, 0
7, 67800, Note_on_c, 0, 54, 66
7, 67860, Note_on_c, 0, 54, 0
7, 67860, Note_on_c, 0, 55, 66
7, 67920, Note_on_c, 0, 55, 0
7, 67920, Note_on_c, 0, 54, 66
7, 67980, Note_on_c, 0, 54, 0
7, 67980, Note_on_c, 0, 52, 66
7, 68040, Note_on_c, 0, 52, 0
7, 68040, Note_on_c, 0, 54, 66
7, 68100, Note_on_c, 0, 54, 0
7, 68100, Note_on_c, 0, 50, 66
7, 68160, Note_on_c, 0, 50, 0
7, 68160, Note_on_c, 0, 59, 71
7, 68520, Note_on_c, 0, 59, 0
7, 68520, Note_on_c, 0, 59, 67
7, 68640, Note_on_c, 0, 59, 0
7, 68640, Note_on_c, 0, 57, 72
7, 69000, Note_on_c, 0, 57, 0
7, 69000, Note_on_c, 0, 55, 66
7, 69120, Note_on_c, 0, 55, 0
7, 69120, Note_on_c, 0, 54, 67
7, 69480, Note_on_c, 0, 54, 0
7, 69480, Note_on_c, 0, 55, 61
7, 69600, Note_on_c, 0, 55, 0
7, 69600, Note_on_c, 0, 54, 60
7, 69960, Note_on_c, 0, 54, 0
7, 69960, Note_on_c, 0, 52, 57
7, 70080, Note_on_c, 0, 52, 0
7, 70080, Note_on_c, 0, 50, 60
7, 70560, Note_on_c, 0, 50, 0
7, 70560, Note_on_c, 0, 52, 56
7, 71040, Note_on_c, 0, 52, 0
7, 71040, Note_on_c, 0, 45, 62
7, 71400, Note_on_c, 0, 45, 0
7, 71400, Note_on_c, 0, 52, 56
7, 71440, Note_on_c, 0, 52, 0
7, 71440, Note_on_c, 0, 54, 56
7, 71480, Note_on_c, 0, 54, 0
7, 71480, Note_on_c, 0, 55, 56
7, 71520, Note_on_c, 0, 55, 0
7, 71520, Note_on_c, 0, 57, 63
7, 72480, Note_on_c, 0, 57, 0
7, 72480, Note_on_c, 0, 55, 56
7, 73320, Note_on_c, 0, 55, 0
7, 73320, Note_on_c, 0, 54, 54
7, 73380, Note_on_c, 0, 54, 0
7, 73380, Note_on_c, 0, 52, 54
7, 73440, Note_on_c, 0, 52, 0
7, 73440, Note_on_c, 0, 54, 59
7, 73800, Note_on_c, 0, 54, 0
7, 73800, Note_on_c, 0, 54, 56
7, 73920, Note_on_c, 0, 54, 0
7, 73920, Note_on_c, 0, 55, 60
7, 74280, Note_on_c, 0, 55, 0
7, 74280, Note_on_c, 0, 52, 56
7, 74400, Note_on_c, 0, 52, 0
7, 74400, Note_on_c, 0, 57, 60
7, 74760, Note_on_c, 0, 57, 0
7, 74760, Note_on_c, 0, 45, 56
7, 74880, Note_on_c, 0, 45, 0
7, 74880, Note_on_c, 0, 50, 60
7, 75240, Note_on_c, 0, 50, 0
7, 75240, Note_on_c, 0, 52, 56
7, 75360, Note_on_c, 0, 52, 0
7, 75360, Note_on_c, 0, 54, 60
7, 75720, Note_on_c, 0, 54, 0
7, 75720, Note_on_c, 0, 52, 56
7, 75840, Note_on_c, 0, 52, 0
7, 75840, Note_on_c, 0, 54, 60
7, 76200, Note_on_c, 0, 54, 0
7, 76200, Note_on_c, 0, 50, 56
7, 76320, Note_on_c, 0, 50, 0
7, 76320, Note_on_c, 0, 52, 62
7, 76800, Note_on_c, 0, 52, 0
7, 76800, Note_on_c, 0, 45, 63
7, 77280, Note_on_c, 0, 45, 0
7, 79200, Note_on_c, 0, 38, 66
7, 79260, Note_on_c, 0, 38, 0
7, 79260, Note_on_c, 0, 40, 66
7, 79320, Note_on_c, 0, 40, 0
7, 79320, Note_on_c, 0, 42, 66
7, 79380, Note_on_c, 0, 42, 0
7, 79380, Note_on_c, 0, 43, 66
7, 79440, Note_on_c, 0, 43, 0
7, 79440, Note_on_c, 0, 42, 66
7, 79500, Note_on_c, 0, 42, 0
7, 79500, Note_on_c, 0, 40, 66
7, 79560, Note_on_c, 0, 40, 0
7, 79560, Note_on_c, 0, 42, 66
7, 79620, Note_on_c, 0, 42, 0
7, 79620, Note_on_c, 0, 38, 66
7, 79680, Note_on_c, 0, 38, 0
7, 79680, Note_on_c, 0, 47, 72
7, 80040, Note_on_c, 0, 47, 0
7, 80040, Note_on_c, 0, 47, 66
7, 80160, Note_on_c, 0, 47, 0
7, 80160, Note_on_c, 0, 45, 71
7, 80520, Note_on_c, 0, 45, 0
7, 80520, Note_on_c, 0, 43, 66
7, 80640, Note_on_c, 0, 43, 0
7, 80640, Note_on_c, 0, 42, 72
7, 81000, Note_on_c, 0, 42, 0
7, 81000, Note_on_c, 0, 50, 66
7, 81040, Note_on_c, 0, 50, 0
7, 81040, Note_on_c, 0, 52, 66
7, 81080, Note_on_c, 0, 52, 0
7, 81080, Note_on_c, 0, 54, 66
7, 81120, Note_on_c, 0, 54, 0
7, 81120, Note_on_c, 0, 55, 72
7, 81480, Note_on_c, 0, 55, 0
7, 81480, Note_on_c, 0, 54, 66
7, 81600, Note_on_c, 0, 54, 0
7, 81600, Note_on_c, 0, 55, 72
7, 81960, Note_on_c, 0, 55, 0
7, 81960, Note_on_c, 0, 52, 66
7, 82080, Note_on_c, 0, 52, 0
7, 82080, Note_on_c, 0, 54, 71
7, 82560, Note_on_c, 0, 54, 0
7, 82560, Note_on_c, 0, 47, 66
7, 82620, Note_on_c, 0, 47, 0
7, 82620, Note_on_c, 0, 49, 66
7, 82680, Note_on_c, 0, 49, 0
7, 82680, Note_on_c, 0, 50, 66
7, 82740, Note_on_c, 0, 50, 0
7, 82740, Note_on_c, 0, 52, 66
7, 82800, Note_on_c, 0, 52, 0
7, 82800, Note_on_c, 0, 50, 66
7, 82860, Note_on_c, 0, 50, 0
7, 82860, Note_on_c, 0, 49, 66
7, 82920, Note_on_c, 0, 49, 0
7, 82920, Note_on_c, 0, 50, 66
7, 82980, Note_on_c, 0, 50, 0
7, 82980, Note_on_c, 0, 47, 66
7, 83040, Note_on_c, 0, 47, 0
7, 83040, Note_on_c, 0, 56, 73
7, 83280, Note_on_c, 0, 56, 0
7, 84480, Note_on_c, 0, 45, 66
7, 84540, Note_on_c, 0, 45, 0
7, 84540, Note_on_c, 0, 47, 66
7, 84600, Note_on_c, 0, 47, 0
7, 84600, Note_on_c, 0, 49, 66
7, 84660, Note_on_c, 0, 49, 0
7, 84660, Note_on_c, 0, 50, 66
7, 84720, Note_on_c, 0, 50, 0
7, 84720, Note_on_c, 0, 49, 66
7, 84780, Note_on_c, 0, 49, 0
7, 84780, Note_on_c, 0, 47, 66
7, 84840, Note_on_c, 0, 47, 0
7, 84840, Note_on_c, 0, 49, 66
7, 84900, Note_on_c, 0, 49, 0
7, 84900, Note_on_c, 0, 45, 66
7, 84960, Note_on_c, 0, 45, 0
7, 84960, Note_on_c, 0, 54, 73
7, 85200, Note_on_c, 0, 54, 0
7, 86400, Note_on_c, 0, 43, 63
7, 86460, Note_on_c, 0, 43, 0
7, 86460, Note_on_c, 0, 45, 63
7, 86520, Note_on_c, 0, 45, 0
7, 86520, Note_on_c, 0, 47, 63
7, 86580, Note_on_c, 0, 47, 0
7, 86580, Note_on_c, 0, 48, 63
7, 86640, Note_on_c, 0, 48, 0
7, 86640, Note_on_c, 0, 47, 63
7, 86700, Note_on_c, 0, 47, 0
7, 86700, Note_on_c, 0, 45, 63
7, 86760, Note_on_c, 0, 45, 0
7, 86760, Note_on_c, 0, 47, 63
7, 86820, Note_on_c, 0, 47, 0
7, 86820, Note_on_c, 0, 43, 63
7, 86880, Note_on_c, 0, 43, 0
7, 86880, Note_on_c, 0, 52, 68
7, 87240, Note_on_c, 0, 52, 0
7, 87240, Note_on_c, 0, 50, 60
7, 87360, Note_on_c, 0, 50, 0
7, 87360, Note_on_c, 0, 48, 66
7, 87840, Note_on_c, 0, 48, 0
7, 87840, Note_on_c, 0, 50, 60
7, 88320, Note_on_c, 0, 50, 0
7, 88320, Note_on_c, 0, 55, 66
7, 88680, Note_on_c, 0, 55, 0
7, 88680, Note_on_c, 0, 57, 49
7, 88800, Note_on_c, 0, 57, 0
7, 88800, Note_on_c, 0, 59, 54
7, 89160, Note_on_c, 0, 59, 0
7, 89160, Note_on_c, 0, 57, 49
7, 89280, Note_on_c, 0, 57, 0
7, 89280, Note_on_c, 0, 55, 54
7, 89640, Note_on_c, 0, 55, 0
7, 89640, Note_on_c, 0, 52, 48
7, 89760, Note_on_c, 0, 52, 0
7, 89760, Note_on_c, 0, 57, 54
7, 90120, Note_on_c, 0, 57, 0
7, 90120, Note_on_c, 0, 45, 51
7, 90240, Note_on_c, 0, 45, 0
7, 90240, Note_on_c, 0, 47, 61
7, 90300, Note_on_c, 0, 47, 0
7, 90300, Note_on_c, 0, 49, 61
7, 90360, Note_on_c, 0, 49, 0
7, 90360, Note_on_c, 0, 50, 61
7, 90420, Note_on_c, 0, 50, 0
7, 90420, Note_on_c, 0, 52, 59
7, 90480, Note_on_c, 0, 52, 0
7, 90480, Note_on_c, 0, 50, 61
7, 90540, Note_on_c, 0, 50, 0
7, 90540, Note_on_c, 0, 49, 61
7, 90600, Note_on_c, 0, 49, 0
7, 90600, Note_on_c, 0, 50, 61
7, 90660, Note_on_c, 0, 50, 0
7, 90660, Note_on_c, 0, 47, 61
7, 90720, Note_on_c, 0, 47, 0
7, 90720, Note_on_c, 0, 59, 65
7, 91080, Note_on_c, 0, 59, 0
7, 91080, Note_on_c, 0, 57, 50
7, 91200, Note_on_c, 0, 57, 0
7, 91200, Note_on_c, 0, 55, 53
7, 91560, Note_on_c, 0, 55, 0
7, 91560, Note_on_c, 0, 52, 48
7, 91680, Note_on_c, 0, 52, 0
7, 91680, Note_on_c, 0, 57, 53
7, 92040, Note_on_c, 0, 57, 0
7, 92040, Note_on_c, 0, 45, 48
7, 92160, Note_on_c, 0, 45, 0
7, 92160, Note_on_c, 0, 50, 56
7, 92640, Note_on_c, 0, 50, 0
7, 92640, Note_on_c, 0, 52, 52
7, 93120, Note_on_c, 0, 52, 0
7, 93120, Note_on_c, 0, 60, 52
7, 93480, Note_on_c, 0, 60, 0
7, 93480, Note_on_c, 0, 57, 52
7, 93600, Note_on_c, 0, 57, 0
7, 93960, Note_on_c, 0, 50, 52
7, 94080, Note_on_c, 0, 50, 0
7, 94080, Note_on_c, 0, 55, 57
7, 94560, Note_on_c, 0, 55, 0
7, 94560, Note_on_c, 0, 40, 66
7, 94620, Note_on_c, 0, 40, 0
7, 94620, Note_on_c, 0, 42, 66
7, 94680, Note_on_c, 0, 42, 0
7, 94680, Note_on_c, 0, 43, 66
7, 94740, Note_on_c, 0, 43, 0
7, 94740, Note_on_c, 0, 45, 66
7, 94800, Note_on_c, 0, 45, 0
7, 94800, Note_on_c, 0, 43, 66
7, 94860, Note_on_c, 0, 43, 0
7, 94860, Note_on_c, 0, 42, 66
7, 94920, Note_on_c, 0, 42, 0
7, 94920, Note_on_c, 0, 43, 66
7, 94980, Note_on_c, 0, 43, 0
7, 94980, Note_on_c, 0, 40, 66
7, 95040, Note_on_c, 0, 40, 0
7, 95040, Note_on_c, 0, 48, 72
7, 95400, Note_on_c, 0, 48, 0
7, 95400, Note_on_c, 0, 48, 57
7, 95520, Note_on_c, 0, 48, 0
7, 95520, Note_on_c, 0, 47, 61
7, 95880, Note_on_c, 0, 47, 0
7, 95880, Note_on_c, 0, 45, 56
7, 96000, Note_on_c, 0, 45, 0
7, 96000, Note_on_c, 0, 43, 61
7, 96360, Note_on_c, 0, 43, 0
7, 96360, Note_on_c, 0, 42, 56
7, 96480, Note_on_c, 0, 42, 0
7, 96480, Note_on_c, 0, 43, 60
7, 96840, Note_on_c, 0, 43, 0
7, 96840, Note_on_c, 0, 45, 55
7, 96960, Note_on_c, 0, 45, 0
7, 96960, Note_on_c, 0, 47, 60
7, 97920, Note_on_c, 0, 47, 0
7, 97920, Note_on_c, 0, 52, 61
7, 98400, Note_on_c, 0, 52, 0
7, 98400, Note_on_c, 0, 59, 55
7, 98520, Note_on_c, 0, 59, 0
7, 98520, Note_on_c, 0, 57, 51
7, 98640, Note_on_c, 0, 57, 0
7, 98640, Note_on_c, 0, 59, 55
7, 98760, Note_on_c, 0, 59, 0
7, 98760, Note_on_c, 0, 55, 51
7, 98880, Note_on_c, 0, 55, 0
7, 98880, Note_on_c, 0, 55, 55
7, 99000, Note_on_c, 0, 55, 0
7, 99000, Note_on_c, 0, 54, 51
7, 99120, Note_on_c, 0, 54, 0
7, 99120, Note_on_c, 0, 55, 55
7, 99240, Note_on_c, 0, 55, 0
7, 99240, Note_on_c, 0, 52, 50
7, 99360, Note_on_c, 0, 52, 0
7, 99360, Note_on_c, 0, 52, 55
7, 99480, Note_on_c, 0, 52, 0
7, 99480, Note_on_c, 0, 50, 50
7, 99600, Note_on_c, 0, 50, 0
7, 99600, Note_on_c, 0, 52, 55
7, 99720, Note_on_c, 0, 52, 0
7, 99720, Note_on_c, 0, 49, 50
7, 99840, Note_on_c, 0, 49, 0
7, 99840, Note_on_c, 0, 49, 55
7, 100320, Note_on_c, 0, 49, 0
7, 100320, Note_on_c, 0, 57, 55
7, 100440, Note_on_c, 0, 57, 0
7, 100440, Note_on_c, 0, 55, 50
7, 100560, Note_on_c, 0, 55, 0
7, 100560, Note_on_c, 0, 57, 55
7, 100680, Note_on_c, 0, 57, 0
7, 100680, Note_on_c, 0, 54, 50
7, 100800, Note_on_c, 0, 54, 0
7, 100800, Note_on_c, 0, 54, 55
7, 100920, Note_on_c, 0, 54, 0
7, 100920, Note_on_c, 0, 52, 50
7, 101040, Note_on_c, 0, 52, 0
7, 101040, Note_on_c, 0, 54, 55
7, 101160, Note_on_c, 0, 54, 0
7, 101160, Note_on_c, 0, 50, 50
7, 101280, Note_on_c, 0, 50, 0
7, 101280, Note_on_c, 0, 50, 55
7, 101400, Note_on_c, 0, 50, 0
7, 101400, Note_on_c, 0, 49, 50
7, 101520, Note_on_c, 0, 49, 0
7, 101520, Note_on_c, 0, 50, 55
7, 101640, Note_on_c, 0, 50, 0
7, 101640, Note_on_c, 0, 47, 51
7, 101760, Note_on_c, 0, 47, 0
7, 101760, Note_on_c, 0, 47, 55
7, 102240, Note_on_c, 0, 47, 0
7, 102240, Note_on_c, 0, 55, 55
7, 102360, Note_on_c, 0, 55, 0
7, 102360, Note_on_c, 0, 54, 51
7, 102480, Note_on_c, 0, 54, 0
7, 102480, Note_on_c, 0, 55, 55
7, 102600, Note_on_c, 0, 55, 0
7, 102600, Note_on_c, 0, 52, 51
7, 102720, Note_on_c, 0, 52, 0
7, 102720, Note_on_c, 0, 52, 55
7, 102840, Note_on_c, 0, 52, 0
7, 102840, Note_on_c, 0, 50, 51
7, 102960, Note_on_c, 0, 50, 0
7, 102960, Note_on_c, 0, 52, 55
7, 103080, Note_on_c, 0, 52, 0
7, 103080, Note_on_c, 0, 49, 51
7, 103200, Note_on_c, 0, 49, 0
7, 103200, Note_on_c, 0, 49, 55
7, 103320, Note_on_c, 0, 49, 0
7, 103320, Note_on_c, 0, 47, 51
7, 103440, Note_on_c, 0, 47, 0
7, 103440, Note_on_c, 0, 49, 55
7, 103560, Note_on_c, 0, 49, 0
7, 103560, Note_on_c, 0, 45, 51
7, 103680, Note_on_c, 0, 45, 0
7, 103680, Note_on_c, 0, 45, 49
7, 104160, Note_on_c, 0, 45, 0
7, 104640, Note_on_c, 0, 52, 59
7, 104700, Note_on_c, 0, 52, 0
7, 104700, Note_on_c, 0, 54, 59
7, 104760, Note_on_c, 0, 54, 0
7, 104760, Note_on_c, 0, 55, 59
7, 104820, Note_on_c, 0, 55, 0
7, 104820, Note_on_c, 0, 57, 59
7, 104880, Note_on_c, 0, 57, 0
7, 104880, Note_on_c, 0, 55, 59
7, 104940, Note_on_c, 0, 55, 0
7, 104940, Note_on_c, 0, 54, 59
7, 105000, Note_on_c, 0, 54, 0
7, 105000, Note_on_c, 0, 55, 59
7, 105060, Note_on_c, 0, 55, 0
7, 105060, Note_on_c, 0, 52, 59
7, 105120, Note_on_c, 0, 52, 0
7, 105120, Note_on_c, 0, 57, 63
7, 105600, Note_on_c, 0, 57, 0
7, 105600, Note_on_c, 0, 50, 62
7, 105660, Note_on_c, 0, 50, 0
7, 105660, Note_on_c, 0, 52, 62
7, 105720, Note_on_c, 0, 52, 0
7, 105720, Note_on_c, 0, 54, 62
7, 105780, Note_on_c, 0, 54, 0
7, 105780, Note_on_c, 0, 55, 62
7, 105840, Note_on_c, 0, 55, 0
7, 105840, Note_on_c, 0, 54, 62
7, 105900, Note_on_c, 0, 54, 0
7, 105900, Note_on_c, 0, 52, 62
7, 105960, Note_on_c, 0, 52, 0
7, 105960, Note_on_c, 0, 54, 62
7, 106020, Note_on_c, 0, 54, 0
7, 106020, Note_on_c, 0, 50, 62
7, 106080, Note_on_c, 0, 50, 0
7, 106080, Note_on_c, 0, 55, 65
7, 106320, Note_on_c, 0, 55, 0
7, 107520, Note_on_c, 0, 43, 54
7, 108000, Note_on_c, 0, 43, 0
7, 108000, Note_on_c, 0, 54, 62
7, 108060, Note_on_c, 0, 54, 0
7, 108060, Note_on_c, 0, 55, 62
7, 108120, Note_on_c, 0, 55, 0
7, 108120, Note_on_c, 0, 57, 62
7, 108180, Note_on_c, 0, 57, 0
7, 108180, Note_on_c, 0, 55, 62
7, 108240, Note_on_c, 0, 55, 0
7, 108240, Note_on_c, 0, 54, 62
7, 108300, Note_on_c, 0, 54, 0
7, 108300, Note_on_c, 0, 52, 62
7, 108360, Note_on_c, 0, 52, 0
7, 108360, Note_on_c, 0, 50, 62
7, 108420, Note_on_c, 0, 50, 0
7, 108420, Note_on_c, 0, 49, 62
7, 108480, Note_on_c, 0, 49, 0
7, 108480, Note_on_c, 0, 47, 62
7, 108540, Note_on_c, 0, 47, 0
7, 108540, Note_on_c, 0, 49, 62
7, 108600, Note_on_c, 0, 49, 0
7, 108600, Note_on_c, 0, 50, 62
7, 108660, Note_on_c, 0, 50, 0
7, 108660, Note_on_c, 0, 49, 62
7, 108720, Note_on_c, 0, 49, 0
7, 108720, Note_on_c, 0, 47, 62
7, 108780, Note_on_c, 0, 47, 0
7, 108780, Note_on_c, 0, 45, 62
7, 108840, Note_on_c, 0, 45, 0
7, 108840, Note_on_c, 0, 47, 62
7, 108900, Note_on_c, 0, 47, 0
7, 108900, Note_on_c, 0, 43, 62
7, 108960, Note_on_c, 0, 43, 0
7, 108960, Note_on_c, 0, 45, 66
7, 109320, Note_on_c, 0, 45, 0
7, 109320, Note_on_c, 0, 45, 62
7, 109440, Note_on_c, 0, 45, 0
7, 109440, Note_on_c, 0, 38, 66
7, 109800, Note_on_c, 0, 38, 0
7, 109800, Note_on_c, 0, 50, 62
7, 109840, Note_on_c, 0, 50, 0
7, 109840, Note_on_c, 0, 52, 62
7, 109880, Note_on_c, 0, 52, 0
7, 109880, Note_on_c, 0, 54, 62
7, 109920, Note_on_c, 0, 54, 0
7, 109920, Note_on_c, 0, 55, 66
7, 110400, Note_on_c, 0, 55, 0
7, 110400, Note_on_c, 0, 49, 60
7, 110460, Note_on_c, 0, 49, 0
7, 110460, Note_on_c, 0, 50, 61
7, 110520, Note_on_c, 0, 50, 0
7, 110520, Note_on_c, 0, 52, 61
7, 110580, Note_on_c, 0, 52, 0
7, 110580, Note_on_c, 0, 54, 59
7, 110640, Note_on_c, 0, 54, 0
7, 110640, Note_on_c, 0, 52, 61
7, 110700, Note_on_c, 0, 52, 0
7, 110700, Note_on_c, 0, 50, 61
7, 110760, Note_on_c, 0, 50, 0
7, 110760, Note_on_c, 0, 52, 61
7, 110820, Note_on_c, 0, 52, 0
7, 110820, Note_on_c, 0, 49, 61
7, 110880, Note_on_c, 0, 49, 0
7, 110880, Note_on_c, 0, 54, 64
7, 111360, Note_on_c, 0, 54, 0
7, 111360, Note_on_c, 0, 47, 67
7, 111420, Note_on_c, 0, 47, 0
7, 111420, Note_on_c, 0, 49, 67
7, 111480, Note_on_c, 0, 49, 0
7, 111480, Note_on_c, 0, 50, 67
7, 111540, Note_on_c, 0, 50, 0
7, 111540, Note_on_c, 0, 52, 67
7, 111600, Note_on_c, 0, 52, 0
7, 111600, Note_on_c, 0, 50, 67
7, 111660, Note_on_c, 0, 50, 0
7, 111660, Note_on_c, 0, 49, 67
7, 111720, Note_on_c, 0, 49, 0
7, 111720, Note_on_c, 0, 50, 67
7, 111780, Note_on_c, 0, 50, 0
7, 111780, Note_on_c, 0, 47, 67
7, 111840, Note_on_c, 0, 47, 0
7, 111840, Note_on_c, 0, 52, 60
7, 111900, Note_on_c, 0, 52, 0
7, 111900, Note_on_c, 0, 54, 60
7, 111960, Note_on_c, 0, 54, 0
7, 111960, Note_on_c, 0, 55, 60
7, 112020, Note_on_c, 0, 55, 0
7, 112020, Note_on_c, 0, 57, 60
7, 112080, Note_on_c, 0, 57, 0
7, 112080, Note_on_c, 0, 55, 60
7, 112140, Note_on_c, 0, 55, 0
7, 112140, Note_on_c, 0, 54, 61
7, 112200, Note_on_c, 0, 54, 0
7, 112200, Note_on_c, 0, 55, 61
7, 112260, Note_on_c, 0, 55, 0
7, 112260, Note_on_c, 0, 52, 61
7, 112320, Note_on_c, 0, 52, 0
7, 112320, Note_on_c, 0, 57, 62
7, 112380, Note_on_c, 0, 57, 0
7, 112380, Note_on_c, 0, 59, 62
7, 112440, Note_on_c, 0, 59, 0
7, 112440, Note_on_c, 0, 61, 62
7, 112500, Note_on_c, 0, 61, 0
7, 112500, Note_on_c, 0, 62, 62
7, 112560, Note_on_c, 0, 62, 0
7, 112560, Note_on_c, 0, 61, 63
7, 112620, Note_on_c, 0, 61, 0
7, 112620, Note_on_c, 0, 59, 63
7, 112680, Note_on_c, 0, 59, 0
7, 112680, Note_on_c, 0, 61, 63
7, 112740, Note_on_c, 0, 61, 0
7, 112740, Note_on_c, 0, 57, 64
7, 112800, Note_on_c, 0, 57, 0
7, 112800, Note_on_c, 0, 62, 64
7, 112860, Note_on_c, 0, 62, 0
7, 112860, Note_on_c, 0, 64, 64
7, 112920, Note_on_c, 0, 64, 0
7, 112920, Note_on_c, 0, 66, 64
7, 112980, Note_on_c, 0, 66, 0
7, 112980, Note_on_c, 0, 67, 64
7, 113040, Note_on_c, 0, 67, 0
7, 113040, Note_on_c, 0, 66, 65
7, 113100, Note_on_c, 0, 66, 0
7, 113100, Note_on_c, 0, 64, 65
7, 113160, Note_on_c, 0, 64, 0
7, 113160, Note_on_c, 0, 66, 66
7, 113220, Note_on_c, 0, 66, 0
7, 113220, Note_on_c, 0, 62, 66
7, 113280, Note_on_c, 0, 62, 0
7, 113280, Note_on_c, 0, 67, 72
7, 113640, Note_on_c, 0, 67, 0
7, 113640, Note_on_c, 0, 55, 69
7, 113760, Note_on_c, 0, 55, 0
7, 113760, Note_on_c, 0, 54, 72
7, 114120, Note_on_c, 0, 54, 0
7, 114120, Note_on_c, 0, 52, 69
7, 114240, Note_on_c, 0, 52, 0
7, 114240, Note_on_c, 0, 50, 72
7, 114600, Note_on_c, 0, 50, 0
7, 114600, Note_on_c, 0, 48, 69
7, 114720, Note_on_c, 0, 48, 0
7, 114720, Note_on_c, 0, 47, 72
7, 115080, Note_on_c, 0, 47, 0
7, 115080, Note_on_c, 0, 45, 68
7, 115200, Note_on_c, 0, 45, 0
7, 115200, Note_on_c, 0, 43, 72
7, 115560, Note_on_c, 0, 43, 0
7, 115560, Note_on_c, 0, 42, 68
7, 115680, Note_on_c, 0, 42, 0
7, 115680, Note_on_c, 0, 40, 72
7, 116040, Note_on_c, 0, 40, 0
7, 116040, Note_on_c, 0, 38, 68
7, 116160, Note_on_c, 0, 38, 0
7, 116160, Note_on_c, 0, 45, 72
7, 117120, Note_on_c, 0, 45, 0
7, 117120, Note_on_c, 0, 38, 66
7, 119040, Note_on_c, 0, 38, 0
7, 119040, End_track
8, 0, Start_track
8, 0, MIDI_port, 0
8, 0, Title_t, "Bach: Prelude & Fugue in D major, BWV 850"
8, 0, End_track
9, 0, Start_track
9, 0, MIDI_port, 0
9, 0, Title_t, "Copyright 1997 by Bernd Krüger."
9, 0, End_track
10, 0, Start_track
10, 0, MIDI_port, 0
10, 0, Title_t, "http://www.piano-midi.de"
10, 0, End_track
11, 0, Start_track
11, 0, MIDI_port, 0
11, 0, Title_t, "Edition: 29.9.2004"
11, 0, End_track
0, 0, End_of_file
