0, 0, Header, 1, 8, 480
1, 0, Start_track
1, 0, Title_t, "Petite Suite"
1, 0, Title_t, "1. Im Kloster"
1, 0, Copyright_t, "Copyright © 2000 by Bernd Krueger"
1, 0, Text_t, "Alexander Borodin"
1, 0, Text_t, "Fertiggestellt am 24.6.2000\012"
1, 0, Text_t, "Korrektur am 21.7.2000\012"
1, 0, Text_t, "Update am 21.8.2000\012"
1, 0, Text_t, "Normierung: 23.12.2002\012"
1, 0, Text_t, "Dauer: 4:21 Minuten\012"
1, 0, SMPTE_offset, 96, 0, 3, 0, 0
1, 0, Time_signature, 4, 2, 24, 8
1, 0, Key_signature, 4, "major"
1, 0, Tempo, 821918
1, 0, Marker_t, "Andante religioso"
1, 960, Tempo, 759494
1, 1920, Tempo, 794702
1, 2880, Tempo, 764331
1, 3840, Tempo, 784314
1, 4800, Tempo, 759494
1, 5760, Tempo, 784314
1, 6720, Tempo, 769231
1, 7680, Tempo, 805369
1, 8640, Tempo, 764331
1, 9600, Tempo, 800000
1, 10560, Tempo, 759494
1, 11520, Tempo, 800000
1, 12480, Tempo, 769231
1, 13440, Tempo, 805369
1, 14400, Tempo, 774194
1, 15360, Tempo, 800000
1, 16320, Tempo, 754717
1, 19200, Tempo, 784314
1, 20160, Tempo, 764331
1, 21120, Tempo, 759494
1, 23040, Tempo, 714286
1, 24000, Tempo, 779221
1, 24960, Tempo, 779221
1, 25920, Tempo, 764331
1, 26880, Tempo, 789474
1, 27840, Tempo, 754717
1, 28800, Tempo, 779221
1, 29760, Tempo, 764331
1, 30720, Tempo, 789474
1, 31680, Tempo, 750000
1, 36000, Tempo, 727537
1, 36480, Tempo, 718907
1, 36960, Tempo, 731886
1, 37920, Tempo, 714711
1, 38160, Tempo, 731886
1, 38400, Tempo, 714711
1, 38880, Tempo, 723153
1, 39360, Tempo, 714711
1, 39840, Tempo, 727537
1, 40320, Tempo, 718907
1, 40800, Tempo, 727537
1, 41280, Tempo, 718563
1, 41760, Tempo, 710059
1, 42000, Tempo, 727537
1, 43200, Tempo, 718907
1, 43720, Tempo, 723153
1, 44160, Tempo, 718563
1, 44640, Tempo, 714711
1, 45120, Tempo, 727537
1, 46080, Tempo, 710059
1, 46560, Tempo, 710059
1, 47040, Tempo, 714286
1, 47520, Tempo, 722892
1, 48040, Tempo, 701754
1, 48480, Tempo, 714286
1, 49000, Tempo, 710059
1, 49440, Tempo, 722892
1, 49920, Tempo, 710059
1, 50400, Tempo, 722892
1, 50920, Tempo, 710059
1, 51360, Tempo, 722892
1, 51840, Tempo, 697674
1, 52320, Tempo, 697674
1, 52360, Tempo, 710059
1, 52800, Tempo, 685714
1, 53280, Tempo, 697674
1, 53760, Tempo, 693642
1, 54240, Tempo, 697674
1, 54720, Tempo, 697674
1, 55200, Tempo, 718563
1, 55680, Tempo, 693642
1, 56160, Tempo, 705882
1, 56200, Tempo, 701754
1, 56640, Tempo, 689655
1, 57120, Tempo, 701754
1, 57640, Tempo, 718563
1, 58560, Tempo, 705882
1, 59040, Tempo, 718563
1, 59520, Tempo, 710059
1, 60000, Tempo, 718563
1, 60960, Tempo, 736196
1, 61440, Tempo, 769231
1, 63360, Tempo, 714286
1, 63840, Tempo, 722892
1, 64320, Tempo, 710059
1, 64800, Tempo, 710059
1, 65040, Tempo, 727273
1, 65280, Tempo, 714286
1, 65320, Tempo, 701754
1, 66240, Tempo, 718563
1, 67200, Tempo, 705882
1, 67680, Tempo, 722892
1, 68160, Tempo, 710059
1, 68640, Tempo, 697674
1, 68880, Tempo, 727273
1, 69120, Tempo, 701754
1, 70080, Tempo, 718563
1, 70560, Tempo, 750000
1, 70800, Tempo, 674157
1, 70980, Tempo, 895522
1, 71040, Tempo, 685714
1, 71520, Tempo, 701754
1, 72000, Tempo, 710059
1, 72480, Tempo, 697674
1, 72720, Tempo, 727273
1, 72960, Tempo, 689655
1, 73920, Tempo, 718563
1, 74400, Tempo, 745342
1, 74640, Tempo, 670391
1, 74820, Tempo, 1008403
1, 74880, Tempo, 674157
1, 75360, Tempo, 701754
1, 75840, Tempo, 710059
1, 76320, Tempo, 697674
1, 76560, Tempo, 727273
1, 76800, Tempo, 689655
1, 77760, Tempo, 718563
1, 78660, Tempo, 1224490
1, 78720, Tempo, 677966
1, 79200, Tempo, 689655
1, 79680, Tempo, 701754
1, 79720, Tempo, 693642
1, 80160, Tempo, 697674
1, 80400, Tempo, 727273
1, 80580, Tempo, 1200000
1, 80640, Tempo, 674157
1, 81120, Tempo, 685714
1, 81600, Tempo, 697674
1, 82080, Tempo, 710059
1, 82500, Tempo, 1142857
1, 82560, Tempo, 634921
1, 82980, Tempo, 1176471
1, 83040, Tempo, 641711
1, 83460, Tempo, 1200000
1, 83520, Tempo, 652174
1, 83940, Tempo, 1188119
1, 83960, Tempo, 764331
1, 84000, Tempo, 689655
1, 84240, Tempo, 727273
1, 84420, Tempo, 1165049
1, 84440, Tempo, 983607
1, 84480, Tempo, 677966
1, 84960, Tempo, 697674
1, 85440, Tempo, 705882
1, 85920, Tempo, 718563
1, 86340, Tempo, 1212121
1, 86400, Tempo, 677966
1, 86880, Tempo, 710059
1, 87300, Tempo, 1016949
1, 87360, Tempo, 693642
1, 87840, Tempo, 697674
1, 88080, Tempo, 740741
1, 88260, Tempo, 1188119
1, 88320, Tempo, 685714
1, 88800, Tempo, 677966
1, 89280, Tempo, 685714
1, 89760, Tempo, 727273
1, 90180, Tempo, 1212121
1, 90240, Tempo, 681818
1, 90720, Tempo, 689655
1, 91200, Tempo, 710059
1, 91680, Tempo, 697674
1, 91920, Tempo, 740741
1, 92100, Tempo, 1200000
1, 92160, Tempo, 689655
1, 92640, Tempo, 697674
1, 93120, Tempo, 718563
1, 93600, Tempo, 800000
1, 94020, Tempo, 1500000
1, 94080, Tempo, 952381
1, 95040, Tempo, 789474
1, 95520, Tempo, 833333
1, 95940, Tempo, 1276596
1, 96000, Tempo, 774194
1, 96480, Tempo, 805369
1, 96960, Tempo, 827586
1, 97680, Tempo, 916031
1, 97920, Tempo, 1052632
1, 98880, Tempo, 800000
1, 99360, Tempo, 727537
1, 99840, Tempo, 718907
1, 100320, Tempo, 731886
1, 101280, Tempo, 714711
1, 101520, Tempo, 731886
1, 101760, Tempo, 714711
1, 102240, Tempo, 723153
1, 102720, Tempo, 714711
1, 103200, Tempo, 727537
1, 103680, Tempo, 718907
1, 104160, Tempo, 727537
1, 104640, Tempo, 718563
1, 105120, Tempo, 710059
1, 105360, Tempo, 727537
1, 106560, Tempo, 718907
1, 107080, Tempo, 723153
1, 107520, Tempo, 718563
1, 108000, Tempo, 714711
1, 108480, Tempo, 727537
1, 109440, Tempo, 710059
1, 109920, Tempo, 710059
1, 110400, Tempo, 714286
1, 110880, Tempo, 722892
1, 111400, Tempo, 701754
1, 111840, Tempo, 714286
1, 112360, Tempo, 710059
1, 112800, Tempo, 722892
1, 113280, Tempo, 710059
1, 113760, Tempo, 722892
1, 114280, Tempo, 710059
1, 114720, Tempo, 722892
1, 115200, Tempo, 697674
1, 115680, Tempo, 697674
1, 115720, Tempo, 710059
1, 116160, Tempo, 685714
1, 116640, Tempo, 697674
1, 117120, Tempo, 689655
1, 117600, Tempo, 701754
1, 118080, Tempo, 693642
1, 118560, Tempo, 718563
1, 119040, Tempo, 693642
1, 119520, Tempo, 705882
1, 119560, Tempo, 701754
1, 120000, Tempo, 689655
1, 120480, Tempo, 701754
1, 121000, Tempo, 718563
1, 121920, Tempo, 705882
1, 122400, Tempo, 718563
1, 122880, Tempo, 710059
1, 123360, Tempo, 718563
1, 124320, Tempo, 736196
1, 124800, Tempo, 754717
1, 125760, Tempo, 745342
1, 126240, Tempo, 764331
1, 128160, Tempo, 794702
1, 128640, Tempo, 991736
1, 129600, Tempo, 827586
1, 130560, Tempo, 821918
1, 131520, Tempo, 759494
1, 132480, Tempo, 794702
1, 133440, Tempo, 764331
1, 134400, Tempo, 784314
1, 135360, Tempo, 759494
1, 136320, Tempo, 794702
1, 137280, Tempo, 769231
1, 138240, Tempo, 805369
1, 139200, Tempo, 764331
1, 140160, Tempo, 800000
1, 141120, Tempo, 759494
1, 142080, Tempo, 800000
1, 143040, Tempo, 774194
1, 144000, Tempo, 805369
1, 144960, Tempo, 774194
1, 145920, Tempo, 800000
1, 146880, Tempo, 754717
1, 149760, Tempo, 784314
1, 150720, Tempo, 764331
1, 151680, Tempo, 759494
1, 153600, Tempo, 722892
1, 154560, Tempo, 759494
1, 155520, Tempo, 779221
1, 155560, Tempo, 789474
1, 156480, Tempo, 764331
1, 157440, Tempo, 789474
1, 158400, Tempo, 754717
1, 159360, Tempo, 810811
1, 160320, Tempo, 764331
1, 161280, Tempo, 805369
1, 162240, Tempo, 750000
1, 163200, Tempo, 960000
1, 164160, Tempo, 1518987
1, 164767, Marker_t, "Fine"
1, 165120, Tempo, 1967213
1, 165120, End_track
2, 0, Start_track
2, 0, MIDI_port, 0
2, 0, Title_t, "Piano right"
2, 0, Program_c, 0, 0
2, 0, Control_c, 0, 7, 100
2, 0, Control_c, 0, 91, 127
2, 1, Note_on_c, 0, 78, 44
2, 1, Note_on_c, 0, 87, 44
2, 1, Note_on_c, 0, 92, 49
2, 1, Note_on_c, 0, 60, 55
2, 241, Note_on_c, 0, 60, 0
2, 241, Note_on_c, 0, 78, 0
2, 241, Note_on_c, 0, 87, 0
2, 241, Note_on_c, 0, 92, 0
2, 1920, Note_on_c, 0, 61, 55
2, 1920, Note_on_c, 0, 88, 49
2, 1920, Note_on_c, 0, 81, 44
2, 1920, Note_on_c, 0, 76, 44
2, 2160, Note_on_c, 0, 76, 0
2, 2160, Note_on_c, 0, 61, 0
2, 2160, Note_on_c, 0, 88, 0
2, 2160, Note_on_c, 0, 81, 0
2, 3840, Note_on_c, 0, 63, 55
2, 3840, Note_on_c, 0, 69, 44
2, 3840, Note_on_c, 0, 78, 49
2, 3840, Note_on_c, 0, 83, 49
2, 4080, Note_on_c, 0, 83, 0
2, 4080, Note_on_c, 0, 63, 0
2, 4080, Note_on_c, 0, 69, 0
2, 4080, Note_on_c, 0, 78, 0
2, 5760, Note_on_c, 0, 80, 49
2, 5760, Note_on_c, 0, 73, 44
2, 5760, Note_on_c, 0, 68, 44
2, 5760, Note_on_c, 0, 64, 55
2, 6000, Note_on_c, 0, 64, 0
2, 6000, Note_on_c, 0, 80, 0
2, 6000, Note_on_c, 0, 73, 0
2, 6000, Note_on_c, 0, 68, 0
2, 7680, Note_on_c, 0, 80, 49
2, 7680, Note_on_c, 0, 75, 44
2, 7680, Note_on_c, 0, 66, 49
2, 7920, Note_on_c, 0, 66, 0
2, 7920, Note_on_c, 0, 75, 0
2, 7920, Note_on_c, 0, 80, 0
2, 9600, Note_on_c, 0, 64, 49
2, 9600, Note_on_c, 0, 69, 44
2, 9600, Note_on_c, 0, 76, 49
2, 9840, Note_on_c, 0, 76, 0
2, 9840, Note_on_c, 0, 69, 0
2, 9840, Note_on_c, 0, 64, 0
2, 11520, Note_on_c, 0, 57, 49
2, 11520, Note_on_c, 0, 66, 44
2, 11520, Note_on_c, 0, 71, 49
2, 11760, Note_on_c, 0, 71, 0
2, 11760, Note_on_c, 0, 66, 0
2, 11760, Note_on_c, 0, 57, 0
2, 13440, Note_on_c, 0, 56, 49
2, 13440, Note_on_c, 0, 61, 44
2, 13440, Note_on_c, 0, 68, 49
2, 13680, Note_on_c, 0, 68, 0
2, 13680, Note_on_c, 0, 61, 0
2, 13680, Note_on_c, 0, 56, 0
2, 15360, Note_on_c, 0, 57, 61
2, 15360, Note_on_c, 0, 62, 61
2, 15360, Note_on_c, 0, 66, 69
2, 15600, Note_on_c, 0, 66, 0
2, 15600, Note_on_c, 0, 62, 0
2, 15600, Note_on_c, 0, 57, 0
2, 19200, Note_on_c, 0, 54, 44
2, 19200, Note_on_c, 0, 57, 44
2, 19200, Note_on_c, 0, 63, 49
2, 19440, Note_on_c, 0, 63, 0
2, 19440, Note_on_c, 0, 57, 0
2, 19440, Note_on_c, 0, 54, 0
2, 23040, Note_on_c, 0, 56, 44
2, 23040, Note_on_c, 0, 61, 49
2, 23280, Note_on_c, 0, 61, 0
2, 23280, Note_on_c, 0, 56, 0
2, 24960, Note_on_c, 0, 54, 59
2, 24960, Note_on_c, 0, 59, 67
2, 25200, Note_on_c, 0, 59, 0
2, 25200, Note_on_c, 0, 54, 0
2, 26880, Note_on_c, 0, 56, 44
2, 26880, Note_on_c, 0, 61, 49
2, 27120, Note_on_c, 0, 61, 0
2, 27120, Note_on_c, 0, 56, 0
2, 28800, Note_on_c, 0, 54, 60
2, 28800, Note_on_c, 0, 59, 68
2, 29040, Note_on_c, 0, 59, 0
2, 29040, Note_on_c, 0, 54, 0
2, 30720, Note_on_c, 0, 56, 44
2, 30720, Note_on_c, 0, 61, 49
2, 30960, Note_on_c, 0, 61, 0
2, 30960, Note_on_c, 0, 56, 0
2, 36000, Note_on_c, 0, 68, 51
2, 36480, Note_on_c, 0, 73, 55
2, 36500, Note_on_c, 0, 68, 0
2, 36960, Note_on_c, 0, 75, 53
2, 36980, Note_on_c, 0, 73, 0
2, 37440, Note_on_c, 0, 76, 56
2, 37460, Note_on_c, 0, 75, 0
2, 37920, Note_on_c, 0, 76, 0
2, 37920, Note_on_c, 0, 75, 58
2, 38160, Note_on_c, 0, 73, 52
2, 38180, Note_on_c, 0, 75, 0
2, 38400, Note_on_c, 0, 71, 56
2, 38420, Note_on_c, 0, 73, 0
2, 38880, Note_on_c, 0, 71, 0
2, 38880, Note_on_c, 0, 68, 50
2, 39360, Note_on_c, 0, 69, 50
2, 39380, Note_on_c, 0, 68, 0
2, 39840, Note_on_c, 0, 71, 47
2, 39860, Note_on_c, 0, 69, 0
2, 40320, Note_on_c, 0, 73, 55
2, 40340, Note_on_c, 0, 71, 0
2, 42240, Note_on_c, 0, 73, 0
2, 42240, Note_on_c, 0, 80, 55
2, 44160, Note_on_c, 0, 80, 0
2, 44160, Note_on_c, 0, 69, 44
2, 44160, Note_on_c, 0, 78, 56
2, 44640, Note_on_c, 0, 80, 57
2, 44660, Note_on_c, 0, 78, 0
2, 45120, Note_on_c, 0, 81, 59
2, 45140, Note_on_c, 0, 80, 0
2, 46080, Note_on_c, 0, 81, 0
2, 46080, Note_on_c, 0, 69, 0
2, 46080, Note_on_c, 0, 80, 56
2, 46080, Note_on_c, 0, 71, 44
2, 46560, Note_on_c, 0, 78, 48
2, 46580, Note_on_c, 0, 80, 0
2, 47040, Note_on_c, 0, 76, 51
2, 47060, Note_on_c, 0, 78, 0
2, 47520, Note_on_c, 0, 76, 0
2, 47520, Note_on_c, 0, 80, 42
2, 48000, Note_on_c, 0, 80, 0
2, 48000, Note_on_c, 0, 71, 0
2, 48000, Note_on_c, 0, 72, 46
2, 48000, Note_on_c, 0, 78, 55
2, 48480, Note_on_c, 0, 80, 47
2, 48500, Note_on_c, 0, 78, 0
2, 48960, Note_on_c, 0, 78, 49
2, 48980, Note_on_c, 0, 80, 0
2, 49440, Note_on_c, 0, 76, 44
2, 49460, Note_on_c, 0, 78, 0
2, 49920, Note_on_c, 0, 75, 52
2, 49940, Note_on_c, 0, 76, 0
2, 50400, Note_on_c, 0, 75, 0
2, 50400, Note_on_c, 0, 72, 0
2, 50400, Note_on_c, 0, 73, 52
2, 50880, Note_on_c, 0, 72, 46
2, 50880, Note_on_c, 0, 75, 56
2, 50900, Note_on_c, 0, 73, 0
2, 51360, Note_on_c, 0, 76, 50
2, 51380, Note_on_c, 0, 75, 0
2, 51840, Note_on_c, 0, 76, 0
2, 51840, Note_on_c, 0, 72, 0
2, 51840, Note_on_c, 0, 73, 57
2, 54240, Note_on_c, 0, 73, 0
2, 54240, Note_on_c, 0, 73, 52
2, 54720, Note_on_c, 0, 72, 46
2, 54720, Note_on_c, 0, 75, 56
2, 54740, Note_on_c, 0, 73, 0
2, 55200, Note_on_c, 0, 76, 51
2, 55220, Note_on_c, 0, 75, 0
2, 55680, Note_on_c, 0, 76, 0
2, 55680, Note_on_c, 0, 72, 0
2, 55680, Note_on_c, 0, 73, 56
2, 58560, Note_on_c, 0, 73, 0
2, 58560, Note_on_c, 0, 72, 49
2, 59520, Note_on_c, 0, 72, 0
2, 59520, Note_on_c, 0, 71, 50
2, 60480, Note_on_c, 0, 71, 0
2, 60480, Note_on_c, 0, 69, 47
2, 61440, Note_on_c, 0, 69, 0
2, 61440, Note_on_c, 0, 63, 40
2, 61440, Note_on_c, 0, 68, 40
2, 63360, Note_on_c, 0, 68, 0
2, 63360, Note_on_c, 0, 63, 0
2, 63360, Note_on_c, 0, 49, 49
2, 63360, Note_on_c, 0, 61, 57
2, 65280, Note_on_c, 0, 61, 0
2, 65280, Note_on_c, 0, 49, 0
2, 65280, Note_on_c, 0, 68, 63
2, 65280, Note_on_c, 0, 56, 57
2, 67200, Note_on_c, 0, 56, 0
2, 67200, Note_on_c, 0, 68, 0
2, 67200, Note_on_c, 0, 57, 58
2, 67200, Note_on_c, 0, 69, 66
2, 69120, Note_on_c, 0, 69, 0
2, 69120, Note_on_c, 0, 57, 0
2, 69120, Note_on_c, 0, 68, 62
2, 69120, Note_on_c, 0, 76, 72
2, 69120, Note_on_c, 0, 64, 62
2, 71040, Note_on_c, 0, 64, 0
2, 71040, Note_on_c, 0, 76, 0
2, 71040, Note_on_c, 0, 68, 0
2, 71040, Note_on_c, 0, 73, 75
2, 71040, Note_on_c, 0, 66, 66
2, 71040, Note_on_c, 0, 63, 66
2, 71040, Note_on_c, 0, 75, 75
2, 72960, Note_on_c, 0, 75, 0
2, 72960, Note_on_c, 0, 73, 0
2, 72960, Note_on_c, 0, 66, 0
2, 72960, Note_on_c, 0, 63, 0
2, 72960, Note_on_c, 0, 73, 69
2, 72960, Note_on_c, 0, 80, 80
2, 72960, Note_on_c, 0, 68, 69
2, 74880, Note_on_c, 0, 68, 0
2, 74880, Note_on_c, 0, 80, 0
2, 74880, Note_on_c, 0, 73, 0
2, 74880, Note_on_c, 0, 78, 81
2, 74880, Note_on_c, 0, 73, 73
2, 74880, Note_on_c, 0, 69, 73
2, 74880, Note_on_c, 0, 81, 81
2, 75840, Note_on_c, 0, 81, 0
2, 75840, Note_on_c, 0, 78, 0
2, 75840, Note_on_c, 0, 73, 0
2, 75840, Note_on_c, 0, 69, 0
2, 75840, Note_on_c, 0, 73, 79
2, 75840, Note_on_c, 0, 78, 79
2, 75840, Note_on_c, 0, 81, 88
2, 75840, Note_on_c, 0, 85, 88
2, 76320, Note_on_c, 0, 85, 0
2, 76320, Note_on_c, 0, 73, 0
2, 76320, Note_on_c, 0, 78, 0
2, 76320, Note_on_c, 0, 81, 0
2, 76320, Note_on_c, 0, 87, 88
2, 76320, Note_on_c, 0, 85, 88
2, 76320, Note_on_c, 0, 78, 78
2, 76320, Note_on_c, 0, 75, 78
2, 76800, Note_on_c, 0, 75, 0
2, 76800, Note_on_c, 0, 87, 0
2, 76800, Note_on_c, 0, 85, 0
2, 76800, Note_on_c, 0, 78, 0
2, 76800, Note_on_c, 0, 76, 80
2, 76800, Note_on_c, 0, 80, 80
2, 76800, Note_on_c, 0, 85, 91
2, 76800, Note_on_c, 0, 88, 91
2, 77760, Note_on_c, 0, 88, 0
2, 77760, Note_on_c, 0, 76, 0
2, 77760, Note_on_c, 0, 80, 0
2, 77760, Note_on_c, 0, 85, 0
2, 77760, Note_on_c, 0, 92, 92
2, 77760, Note_on_c, 0, 85, 92
2, 77760, Note_on_c, 0, 80, 82
2, 78720, Note_on_c, 0, 80, 0
2, 78720, Note_on_c, 0, 85, 0
2, 78720, Note_on_c, 0, 92, 0
2, 78720, Note_on_c, 0, 93, 92
2, 78720, Note_on_c, 0, 88, 82
2, 78720, Note_on_c, 0, 81, 82
2, 79200, Note_on_c, 0, 81, 0
2, 79200, Note_on_c, 0, 88, 0
2, 79200, Note_on_c, 0, 93, 0
2, 79200, Note_on_c, 0, 88, 75
2, 79200, Note_on_c, 0, 92, 84
2, 79200, Note_on_c, 0, 80, 75
2, 79680, Note_on_c, 0, 80, 0
2, 79680, Note_on_c, 0, 92, 0
2, 79680, Note_on_c, 0, 88, 0
2, 79680, Note_on_c, 0, 90, 84
2, 79680, Note_on_c, 0, 88, 75
2, 79680, Note_on_c, 0, 78, 75
2, 80160, Note_on_c, 0, 78, 0
2, 80160, Note_on_c, 0, 88, 0
2, 80160, Note_on_c, 0, 90, 0
2, 80160, Note_on_c, 0, 88, 84
2, 80160, Note_on_c, 0, 76, 75
2, 80400, Note_on_c, 0, 76, 0
2, 80400, Note_on_c, 0, 88, 0
2, 80400, Note_on_c, 0, 90, 84
2, 80400, Note_on_c, 0, 78, 75
2, 80580, Note_on_c, 0, 78, 0
2, 80580, Note_on_c, 0, 90, 0
2, 80640, Note_on_c, 0, 92, 92
2, 80640, Note_on_c, 0, 88, 82
2, 80640, Note_on_c, 0, 80, 82
2, 81600, Note_on_c, 0, 80, 0
2, 81600, Note_on_c, 0, 88, 0
2, 81600, Note_on_c, 0, 92, 0
2, 81600, Note_on_c, 0, 85, 91
2, 81600, Note_on_c, 0, 80, 81
2, 81600, Note_on_c, 0, 73, 81
2, 82560, Note_on_c, 0, 73, 0
2, 82560, Note_on_c, 0, 80, 0
2, 82560, Note_on_c, 0, 85, 0
2, 82560, Note_on_c, 0, 90, 92
2, 82560, Note_on_c, 0, 85, 82
2, 82560, Note_on_c, 0, 78, 82
2, 83040, Note_on_c, 0, 78, 0
2, 83040, Note_on_c, 0, 85, 0
2, 83040, Note_on_c, 0, 90, 0
2, 83040, Note_on_c, 0, 85, 80
2, 83040, Note_on_c, 0, 88, 89
2, 83040, Note_on_c, 0, 76, 80
2, 83520, Note_on_c, 0, 76, 0
2, 83520, Note_on_c, 0, 88, 0
2, 83520, Note_on_c, 0, 85, 0
2, 83520, Note_on_c, 0, 87, 92
2, 83520, Note_on_c, 0, 85, 82
2, 83520, Note_on_c, 0, 75, 82
2, 84000, Note_on_c, 0, 75, 0
2, 84000, Note_on_c, 0, 85, 0
2, 84000, Note_on_c, 0, 87, 0
2, 84000, Note_on_c, 0, 88, 84
2, 84000, Note_on_c, 0, 84, 75
2, 84000, Note_on_c, 0, 76, 75
2, 84480, Note_on_c, 0, 76, 0
2, 84480, Note_on_c, 0, 84, 0
2, 84480, Note_on_c, 0, 88, 0
2, 84480, Note_on_c, 0, 85, 92
2, 84480, Note_on_c, 0, 81, 82
2, 84480, Note_on_c, 0, 73, 82
2, 86400, Note_on_c, 0, 73, 0
2, 86400, Note_on_c, 0, 81, 0
2, 86400, Note_on_c, 0, 85, 0
2, 86400, Note_on_c, 0, 77, 77
2, 86400, Note_on_c, 0, 83, 94
2, 86400, Note_on_c, 0, 71, 88
2, 86880, Note_on_c, 0, 71, 0
2, 86880, Note_on_c, 0, 83, 0
2, 86880, Note_on_c, 0, 85, 89
2, 86880, Note_on_c, 0, 73, 80
2, 87360, Note_on_c, 0, 73, 0
2, 87360, Note_on_c, 0, 85, 0
2, 87360, Note_on_c, 0, 77, 0
2, 87360, Note_on_c, 0, 80, 77
2, 87360, Note_on_c, 0, 77, 77
2, 87360, Note_on_c, 0, 86, 96
2, 87360, Note_on_c, 0, 74, 90
2, 87840, Note_on_c, 0, 74, 0
2, 87840, Note_on_c, 0, 86, 0
2, 87840, Note_on_c, 0, 85, 91
2, 87840, Note_on_c, 0, 73, 82
2, 88080, Note_on_c, 0, 73, 0
2, 88080, Note_on_c, 0, 85, 0
2, 88080, Note_on_c, 0, 83, 85
2, 88080, Note_on_c, 0, 71, 79
2, 88260, Note_on_c, 0, 71, 0
2, 88260, Note_on_c, 0, 83, 0
2, 88320, Note_on_c, 0, 77, 0
2, 88320, Note_on_c, 0, 80, 0
2, 88320, Note_on_c, 0, 73, 77
2, 88320, Note_on_c, 0, 78, 77
2, 88320, Note_on_c, 0, 81, 94
2, 88320, Note_on_c, 0, 69, 86
2, 88800, Note_on_c, 0, 69, 0
2, 88800, Note_on_c, 0, 81, 0
2, 88800, Note_on_c, 0, 78, 89
2, 88800, Note_on_c, 0, 66, 81
2, 89280, Note_on_c, 0, 66, 0
2, 89280, Note_on_c, 0, 78, 0
2, 89280, Note_on_c, 0, 80, 88
2, 89280, Note_on_c, 0, 68, 78
2, 89760, Note_on_c, 0, 68, 0
2, 89760, Note_on_c, 0, 80, 0
2, 89760, Note_on_c, 0, 81, 88
2, 89760, Note_on_c, 0, 69, 78
2, 90180, Note_on_c, 0, 69, 0
2, 90180, Note_on_c, 0, 81, 0
2, 90240, Note_on_c, 0, 78, 0
2, 90240, Note_on_c, 0, 73, 0
2, 90240, Note_on_c, 0, 69, 74
2, 90240, Note_on_c, 0, 78, 91
2, 90240, Note_on_c, 0, 66, 83
2, 90254, Note_on_c, 0, 75, 74
2, 90720, Note_on_c, 0, 66, 0
2, 90720, Note_on_c, 0, 78, 0
2, 90720, Note_on_c, 0, 80, 88
2, 90720, Note_on_c, 0, 68, 79
2, 91200, Note_on_c, 0, 68, 0
2, 91200, Note_on_c, 0, 80, 0
2, 91200, Note_on_c, 0, 81, 92
2, 91200, Note_on_c, 0, 69, 86
2, 91680, Note_on_c, 0, 69, 0
2, 91680, Note_on_c, 0, 81, 0
2, 91680, Note_on_c, 0, 80, 90
2, 91680, Note_on_c, 0, 68, 81
2, 91920, Note_on_c, 0, 68, 0
2, 91920, Note_on_c, 0, 80, 0
2, 91920, Note_on_c, 0, 78, 90
2, 91920, Note_on_c, 0, 66, 81
2, 92100, Note_on_c, 0, 66, 0
2, 92100, Note_on_c, 0, 78, 0
2, 92160, Note_on_c, 0, 69, 0
2, 92160, Note_on_c, 0, 68, 72
2, 92160, Note_on_c, 0, 73, 72
2, 92160, Note_on_c, 0, 76, 88
2, 92160, Note_on_c, 0, 64, 81
2, 92174, Note_on_c, 0, 75, 0
2, 92640, Note_on_c, 0, 76, 0
2, 92640, Note_on_c, 0, 64, 0
2, 92640, Note_on_c, 0, 73, 86
2, 92640, Note_on_c, 0, 61, 79
2, 93120, Note_on_c, 0, 61, 0
2, 93120, Note_on_c, 0, 73, 0
2, 93120, Note_on_c, 0, 75, 83
2, 93120, Note_on_c, 0, 63, 75
2, 93600, Note_on_c, 0, 63, 0
2, 93600, Note_on_c, 0, 75, 0
2, 93600, Note_on_c, 0, 76, 83
2, 93600, Note_on_c, 0, 64, 75
2, 94020, Note_on_c, 0, 64, 0
2, 94020, Note_on_c, 0, 76, 0
2, 94080, Note_on_c, 0, 73, 0
2, 94080, Note_on_c, 0, 68, 0
2, 94080, Note_on_c, 0, 64, 81
2, 94080, Note_on_c, 0, 70, 81
2, 94080, Note_on_c, 0, 73, 91
2, 94080, Note_on_c, 0, 76, 100
2, 95040, Note_on_c, 0, 76, 0
2, 95040, Note_on_c, 0, 64, 0
2, 95040, Note_on_c, 0, 70, 0
2, 95040, Note_on_c, 0, 73, 0
2, 95040, Note_on_c, 0, 63, 66
2, 95040, Note_on_c, 0, 75, 66
2, 95520, Note_on_c, 0, 75, 0
2, 95520, Note_on_c, 0, 63, 0
2, 95520, Note_on_c, 0, 61, 59
2, 95520, Note_on_c, 0, 73, 59
2, 95940, Note_on_c, 0, 73, 0
2, 95940, Note_on_c, 0, 61, 0
2, 96000, Note_on_c, 0, 63, 49
2, 96000, Note_on_c, 0, 68, 52
2, 96000, Note_on_c, 0, 73, 62
2, 96480, Note_on_c, 0, 73, 0
2, 96480, Note_on_c, 0, 72, 58
2, 96720, Note_on_c, 0, 72, 0
2, 96720, Note_on_c, 0, 70, 53
2, 96960, Note_on_c, 0, 70, 0
2, 96960, Note_on_c, 0, 68, 0
2, 96960, Note_on_c, 0, 63, 0
2, 96960, Note_on_c, 0, 63, 49
2, 96960, Note_on_c, 0, 68, 49
2, 96960, Note_on_c, 0, 72, 63
2, 97680, Note_on_c, 0, 72, 0
2, 97680, Note_on_c, 0, 73, 61
2, 97920, Note_on_c, 0, 73, 0
2, 97920, Note_on_c, 0, 68, 0
2, 97920, Note_on_c, 0, 63, 0
2, 97920, Note_on_c, 0, 61, 44
2, 97920, Note_on_c, 0, 68, 44
2, 97920, Note_on_c, 0, 73, 49
2, 98880, Note_on_c, 0, 73, 0
2, 98880, Note_on_c, 0, 68, 0
2, 98880, Note_on_c, 0, 61, 0
2, 99360, Note_on_c, 0, 68, 44
2, 99840, Note_on_c, 0, 73, 48
2, 99860, Note_on_c, 0, 68, 0
2, 100320, Note_on_c, 0, 75, 47
2, 100340, Note_on_c, 0, 73, 0
2, 100800, Note_on_c, 0, 76, 49
2, 100820, Note_on_c, 0, 75, 0
2, 101280, Note_on_c, 0, 76, 0
2, 101280, Note_on_c, 0, 75, 51
2, 101520, Note_on_c, 0, 73, 46
2, 101540, Note_on_c, 0, 75, 0
2, 101760, Note_on_c, 0, 71, 49
2, 101780, Note_on_c, 0, 73, 0
2, 102240, Note_on_c, 0, 71, 0
2, 102240, Note_on_c, 0, 68, 44
2, 102720, Note_on_c, 0, 69, 44
2, 102740, Note_on_c, 0, 68, 0
2, 103200, Note_on_c, 0, 71, 40
2, 103220, Note_on_c, 0, 69, 0
2, 103680, Note_on_c, 0, 73, 48
2, 103700, Note_on_c, 0, 71, 0
2, 105600, Note_on_c, 0, 73, 0
2, 105600, Note_on_c, 0, 80, 48
2, 107520, Note_on_c, 0, 80, 0
2, 107520, Note_on_c, 0, 69, 38
2, 107520, Note_on_c, 0, 78, 49
2, 108000, Note_on_c, 0, 80, 50
2, 108020, Note_on_c, 0, 78, 0
2, 108480, Note_on_c, 0, 81, 51
2, 108500, Note_on_c, 0, 80, 0
2, 109440, Note_on_c, 0, 81, 0
2, 109440, Note_on_c, 0, 69, 0
2, 109440, Note_on_c, 0, 80, 49
2, 109440, Note_on_c, 0, 71, 38
2, 109920, Note_on_c, 0, 78, 41
2, 109940, Note_on_c, 0, 80, 0
2, 110400, Note_on_c, 0, 76, 44
2, 110420, Note_on_c, 0, 78, 0
2, 110880, Note_on_c, 0, 76, 0
2, 110880, Note_on_c, 0, 80, 37
2, 111360, Note_on_c, 0, 80, 0
2, 111360, Note_on_c, 0, 71, 0
2, 111360, Note_on_c, 0, 72, 39
2, 111360, Note_on_c, 0, 78, 48
2, 111840, Note_on_c, 0, 80, 40
2, 111860, Note_on_c, 0, 78, 0
2, 112320, Note_on_c, 0, 78, 42
2, 112340, Note_on_c, 0, 80, 0
2, 112800, Note_on_c, 0, 76, 38
2, 112820, Note_on_c, 0, 78, 0
2, 113280, Note_on_c, 0, 75, 46
2, 113300, Note_on_c, 0, 76, 0
2, 113760, Note_on_c, 0, 75, 0
2, 113760, Note_on_c, 0, 72, 0
2, 113760, Note_on_c, 0, 73, 46
2, 114240, Note_on_c, 0, 72, 39
2, 114240, Note_on_c, 0, 75, 49
2, 114260, Note_on_c, 0, 73, 0
2, 114720, Note_on_c, 0, 76, 44
2, 114740, Note_on_c, 0, 75, 0
2, 115200, Note_on_c, 0, 76, 0
2, 115200, Note_on_c, 0, 72, 0
2, 115200, Note_on_c, 0, 73, 50
2, 117600, Note_on_c, 0, 73, 0
2, 117600, Note_on_c, 0, 73, 46
2, 118080, Note_on_c, 0, 72, 39
2, 118080, Note_on_c, 0, 75, 49
2, 118100, Note_on_c, 0, 73, 0
2, 118560, Note_on_c, 0, 76, 44
2, 118580, Note_on_c, 0, 75, 0
2, 119040, Note_on_c, 0, 76, 0
2, 119040, Note_on_c, 0, 72, 0
2, 119040, Note_on_c, 0, 73, 49
2, 121920, Note_on_c, 0, 73, 0
2, 121920, Note_on_c, 0, 72, 42
2, 122880, Note_on_c, 0, 72, 0
2, 122880, Note_on_c, 0, 71, 44
2, 123840, Note_on_c, 0, 71, 0
2, 123840, Note_on_c, 0, 69, 40
2, 124800, Note_on_c, 0, 69, 0
2, 124800, Note_on_c, 0, 61, 35
2, 124800, Note_on_c, 0, 63, 38
2, 124800, Note_on_c, 0, 68, 38
2, 125760, Note_on_c, 0, 60, 31
2, 126240, Note_on_c, 0, 60, 0
2, 126240, Note_on_c, 0, 58, 31
2, 126720, Note_on_c, 0, 58, 0
2, 126720, Note_on_c, 0, 63, 0
2, 126720, Note_on_c, 0, 60, 37
2, 128160, Note_on_c, 0, 60, 0
2, 128160, Note_on_c, 0, 61, 0
2, 128160, Note_on_c, 0, 61, 30
2, 128640, Note_on_c, 0, 61, 0
2, 128640, Note_on_c, 0, 68, 0
2, 128640, Note_on_c, 0, 61, 34
2, 129840, Note_on_c, 0, 61, 0
2, 130560, Note_on_c, 0, 60, 51
2, 130560, Note_on_c, 0, 92, 46
2, 130560, Note_on_c, 0, 87, 41
2, 130560, Note_on_c, 0, 78, 41
2, 130800, Note_on_c, 0, 78, 0
2, 130800, Note_on_c, 0, 60, 0
2, 130800, Note_on_c, 0, 92, 0
2, 130800, Note_on_c, 0, 87, 0
2, 132480, Note_on_c, 0, 61, 51
2, 132480, Note_on_c, 0, 88, 46
2, 132480, Note_on_c, 0, 81, 41
2, 132480, Note_on_c, 0, 76, 41
2, 132720, Note_on_c, 0, 76, 0
2, 132720, Note_on_c, 0, 61, 0
2, 132720, Note_on_c, 0, 88, 0
2, 132720, Note_on_c, 0, 81, 0
2, 134400, Note_on_c, 0, 63, 51
2, 134400, Note_on_c, 0, 69, 41
2, 134400, Note_on_c, 0, 78, 41
2, 134400, Note_on_c, 0, 83, 46
2, 134640, Note_on_c, 0, 83, 0
2, 134640, Note_on_c, 0, 63, 0
2, 134640, Note_on_c, 0, 69, 0
2, 134640, Note_on_c, 0, 78, 0
2, 136320, Note_on_c, 0, 80, 46
2, 136320, Note_on_c, 0, 73, 41
2, 136320, Note_on_c, 0, 68, 41
2, 136320, Note_on_c, 0, 64, 51
2, 136560, Note_on_c, 0, 64, 0
2, 136560, Note_on_c, 0, 80, 0
2, 136560, Note_on_c, 0, 73, 0
2, 136560, Note_on_c, 0, 68, 0
2, 138240, Note_on_c, 0, 80, 46
2, 138240, Note_on_c, 0, 75, 41
2, 138240, Note_on_c, 0, 66, 46
2, 138480, Note_on_c, 0, 66, 0
2, 138480, Note_on_c, 0, 75, 0
2, 138480, Note_on_c, 0, 80, 0
2, 140160, Note_on_c, 0, 64, 41
2, 140160, Note_on_c, 0, 69, 41
2, 140160, Note_on_c, 0, 76, 46
2, 140400, Note_on_c, 0, 76, 0
2, 140400, Note_on_c, 0, 69, 0
2, 140400, Note_on_c, 0, 64, 0
2, 142080, Note_on_c, 0, 57, 41
2, 142080, Note_on_c, 0, 66, 41
2, 142080, Note_on_c, 0, 71, 46
2, 142320, Note_on_c, 0, 71, 0
2, 142320, Note_on_c, 0, 66, 0
2, 142320, Note_on_c, 0, 57, 0
2, 144000, Note_on_c, 0, 56, 41
2, 144000, Note_on_c, 0, 61, 41
2, 144000, Note_on_c, 0, 68, 46
2, 144240, Note_on_c, 0, 68, 0
2, 144240, Note_on_c, 0, 61, 0
2, 144240, Note_on_c, 0, 56, 0
2, 145920, Note_on_c, 0, 57, 58
2, 145920, Note_on_c, 0, 62, 58
2, 145920, Note_on_c, 0, 66, 64
2, 146160, Note_on_c, 0, 66, 0
2, 146160, Note_on_c, 0, 62, 0
2, 146160, Note_on_c, 0, 57, 0
2, 149760, Note_on_c, 0, 54, 41
2, 149760, Note_on_c, 0, 57, 41
2, 149760, Note_on_c, 0, 63, 46
2, 150000, Note_on_c, 0, 63, 0
2, 150000, Note_on_c, 0, 57, 0
2, 150000, Note_on_c, 0, 54, 0
2, 153600, Note_on_c, 0, 56, 41
2, 153600, Note_on_c, 0, 61, 46
2, 153840, Note_on_c, 0, 61, 0
2, 153840, Note_on_c, 0, 56, 0
2, 155520, Note_on_c, 0, 54, 56
2, 155520, Note_on_c, 0, 59, 62
2, 155760, Note_on_c, 0, 59, 0
2, 155760, Note_on_c, 0, 54, 0
2, 157440, Note_on_c, 0, 56, 41
2, 157440, Note_on_c, 0, 61, 46
2, 157680, Note_on_c, 0, 61, 0
2, 157680, Note_on_c, 0, 56, 0
2, 159360, Note_on_c, 0, 54, 57
2, 159360, Note_on_c, 0, 59, 63
2, 159600, Note_on_c, 0, 59, 0
2, 159600, Note_on_c, 0, 54, 0
2, 161280, Note_on_c, 0, 56, 41
2, 161280, Note_on_c, 0, 61, 46
2, 161520, Note_on_c, 0, 61, 0
2, 161520, Note_on_c, 0, 56, 0
2, 161520, End_track
3, 0, Start_track
3, 0, MIDI_port, 0
3, 0, Title_t, "Piano left"
3, 0, Program_c, 0, 0
3, 0, Control_c, 0, 7, 100
3, 0, Control_c, 0, 91, 127
3, 0, Control_c, 0, 91, 127
3, 0, Text_t, "bdca426d104a26ac9dcb070447587523"
3, 1, Control_c, 0, 64, 127
3, 960, Note_on_c, 0, 25, 29
3, 1200, Note_on_c, 0, 25, 0
3, 1634, Control_c, 0, 64, 0
3, 2104, Control_c, 0, 64, 127
3, 2880, Note_on_c, 0, 25, 29
3, 3120, Note_on_c, 0, 25, 0
3, 3544, Control_c, 0, 64, 0
3, 3939, Control_c, 0, 64, 127
3, 4800, Note_on_c, 0, 25, 29
3, 5040, Note_on_c, 0, 25, 0
3, 5591, Control_c, 0, 64, 0
3, 5929, Control_c, 0, 64, 127
3, 6720, Note_on_c, 0, 25, 28
3, 6960, Note_on_c, 0, 25, 0
3, 7369, Control_c, 0, 64, 0
3, 7680, Note_on_c, 0, 48, 55
3, 7691, Control_c, 0, 64, 127
3, 7920, Note_on_c, 0, 48, 0
3, 8640, Note_on_c, 0, 25, 28
3, 8880, Note_on_c, 0, 25, 0
3, 9326, Control_c, 0, 64, 0
3, 9600, Note_on_c, 0, 49, 55
3, 9741, Control_c, 0, 64, 127
3, 9840, Note_on_c, 0, 49, 0
3, 10560, Note_on_c, 0, 25, 29
3, 10800, Note_on_c, 0, 25, 0
3, 11280, Control_c, 0, 64, 0
3, 11520, Note_on_c, 0, 51, 57
3, 11576, Control_c, 0, 64, 127
3, 11760, Note_on_c, 0, 51, 0
3, 12480, Note_on_c, 0, 25, 28
3, 12720, Note_on_c, 0, 25, 0
3, 13256, Control_c, 0, 64, 0
3, 13440, Note_on_c, 0, 52, 56
3, 13581, Control_c, 0, 64, 127
3, 13680, Note_on_c, 0, 52, 0
3, 14400, Note_on_c, 0, 25, 27
3, 14640, Note_on_c, 0, 25, 0
3, 15191, Control_c, 0, 64, 0
3, 15360, Note_on_c, 0, 54, 72
3, 15406, Control_c, 0, 64, 127
3, 15600, Note_on_c, 0, 54, 0
3, 16320, Note_on_c, 0, 25, 31
3, 16560, Note_on_c, 0, 25, 0
3, 18240, Note_on_c, 0, 25, 30
3, 18480, Note_on_c, 0, 25, 0
3, 18861, Control_c, 0, 64, 0
3, 19200, Note_on_c, 0, 48, 56
3, 19269, Control_c, 0, 64, 127
3, 19440, Note_on_c, 0, 48, 0
3, 20160, Note_on_c, 0, 25, 31
3, 20400, Note_on_c, 0, 25, 0
3, 22080, Note_on_c, 0, 25, 30
3, 22320, Note_on_c, 0, 25, 0
3, 22758, Control_c, 0, 64, 0
3, 23040, Note_on_c, 0, 52, 56
3, 23139, Control_c, 0, 64, 127
3, 23280, Note_on_c, 0, 52, 0
3, 24000, Note_on_c, 0, 25, 29
3, 24240, Note_on_c, 0, 25, 0
3, 24720, Control_c, 0, 64, 0
3, 24960, Note_on_c, 0, 51, 72
3, 25031, Control_c, 0, 64, 127
3, 25200, Note_on_c, 0, 51, 0
3, 25920, Note_on_c, 0, 25, 28
3, 26160, Note_on_c, 0, 25, 0
3, 26612, Control_c, 0, 64, 0
3, 26880, Note_on_c, 0, 52, 52
3, 27078, Control_c, 0, 64, 127
3, 27120, Note_on_c, 0, 52, 0
3, 27840, Note_on_c, 0, 25, 28
3, 28080, Note_on_c, 0, 25, 0
3, 28518, Control_c, 0, 64, 0
3, 28800, Note_on_c, 0, 51, 72
3, 28984, Control_c, 0, 64, 127
3, 29040, Note_on_c, 0, 51, 0
3, 29760, Note_on_c, 0, 25, 29
3, 30000, Note_on_c, 0, 25, 0
3, 30311, Control_c, 0, 64, 0
3, 30720, Note_on_c, 0, 52, 56
3, 30734, Control_c, 0, 64, 127
3, 30960, Note_on_c, 0, 52, 0
3, 31680, Note_on_c, 0, 25, 28
3, 31920, Note_on_c, 0, 25, 0
3, 33600, Note_on_c, 0, 25, 19
3, 33840, Note_on_c, 0, 25, 0
3, 34933, Control_c, 0, 64, 0
3, 40320, Note_on_c, 0, 66, 51
3, 40800, Note_on_c, 0, 68, 49
3, 40820, Note_on_c, 0, 66, 0
3, 41280, Note_on_c, 0, 69, 52
3, 41300, Note_on_c, 0, 68, 0
3, 41760, Note_on_c, 0, 68, 50
3, 41780, Note_on_c, 0, 69, 0
3, 42000, Note_on_c, 0, 66, 50
3, 42020, Note_on_c, 0, 68, 0
3, 42240, Note_on_c, 0, 64, 53
3, 42260, Note_on_c, 0, 66, 0
3, 42720, Note_on_c, 0, 64, 0
3, 42720, Note_on_c, 0, 61, 47
3, 43200, Note_on_c, 0, 63, 49
3, 43220, Note_on_c, 0, 61, 0
3, 43680, Note_on_c, 0, 64, 47
3, 43700, Note_on_c, 0, 63, 0
3, 44160, Note_on_c, 0, 64, 0
3, 44160, Note_on_c, 0, 63, 50
3, 44160, Note_on_c, 0, 61, 38
3, 44229, Control_c, 0, 64, 127
3, 44640, Note_on_c, 0, 64, 51
3, 44660, Note_on_c, 0, 63, 0
3, 45120, Note_on_c, 0, 66, 52
3, 45140, Note_on_c, 0, 64, 0
3, 45371, Control_c, 0, 64, 0
3, 45600, Note_on_c, 0, 61, 0
3, 45600, Note_on_c, 0, 60, 36
3, 46080, Note_on_c, 0, 60, 0
3, 46080, Note_on_c, 0, 66, 0
3, 46080, Note_on_c, 0, 59, 38
3, 46080, Note_on_c, 0, 64, 50
3, 46133, Control_c, 0, 64, 127
3, 46560, Note_on_c, 0, 63, 41
3, 46580, Note_on_c, 0, 64, 0
3, 47040, Note_on_c, 0, 61, 41
3, 47060, Note_on_c, 0, 63, 0
3, 47307, Control_c, 0, 64, 0
3, 47520, Note_on_c, 0, 61, 0
3, 47520, Note_on_c, 0, 64, 36
3, 48000, Note_on_c, 0, 64, 0
3, 48000, Note_on_c, 0, 59, 0
3, 48000, Note_on_c, 0, 63, 50
3, 48000, Note_on_c, 0, 57, 39
3, 48240, Control_c, 0, 64, 127
3, 48480, Note_on_c, 0, 64, 41
3, 48500, Note_on_c, 0, 63, 0
3, 48960, Note_on_c, 0, 63, 46
3, 48980, Note_on_c, 0, 64, 0
3, 49440, Note_on_c, 0, 64, 38
3, 49460, Note_on_c, 0, 63, 0
3, 49920, Note_on_c, 0, 66, 42
3, 49940, Note_on_c, 0, 64, 0
3, 50194, Control_c, 0, 64, 0
3, 50880, Note_on_c, 0, 57, 0
3, 50880, Note_on_c, 0, 56, 42
3, 50949, Control_c, 0, 64, 127
3, 51589, Control_c, 0, 64, 0
3, 51840, Note_on_c, 0, 56, 0
3, 51840, Note_on_c, 0, 66, 0
3, 51840, Note_on_c, 0, 57, 39
3, 51840, Note_on_c, 0, 64, 47
3, 51931, Control_c, 0, 64, 127
3, 52320, Note_on_c, 0, 64, 0
3, 52320, Note_on_c, 0, 63, 44
3, 52800, Note_on_c, 0, 64, 47
3, 52820, Note_on_c, 0, 63, 0
3, 53280, Note_on_c, 0, 65, 41
3, 53300, Note_on_c, 0, 64, 0
3, 53623, Control_c, 0, 64, 0
3, 53760, Note_on_c, 0, 66, 52
3, 53780, Note_on_c, 0, 65, 0
3, 54720, Note_on_c, 0, 57, 0
3, 54720, Note_on_c, 0, 56, 47
3, 54800, Control_c, 0, 64, 127
3, 55440, Control_c, 0, 64, 0
3, 55680, Note_on_c, 0, 56, 0
3, 55680, Note_on_c, 0, 66, 0
3, 55680, Note_on_c, 0, 64, 50
3, 55680, Note_on_c, 0, 57, 38
3, 55817, Control_c, 0, 64, 127
3, 56160, Note_on_c, 0, 64, 0
3, 56160, Note_on_c, 0, 63, 46
3, 56640, Note_on_c, 0, 64, 48
3, 56660, Note_on_c, 0, 63, 0
3, 57120, Note_on_c, 0, 65, 44
3, 57140, Note_on_c, 0, 64, 0
3, 57394, Control_c, 0, 64, 0
3, 57600, Note_on_c, 0, 66, 53
3, 57620, Note_on_c, 0, 65, 0
3, 59040, Note_on_c, 0, 66, 0
3, 59040, Note_on_c, 0, 64, 37
3, 59520, Note_on_c, 0, 64, 0
3, 59520, Note_on_c, 0, 63, 41
3, 60000, Note_on_c, 0, 57, 0
3, 60000, Note_on_c, 0, 56, 38
3, 60480, Note_on_c, 0, 56, 0
3, 60480, Note_on_c, 0, 54, 33
3, 60507, Control_c, 0, 64, 127
3, 60960, Note_on_c, 0, 63, 0
3, 60960, Note_on_c, 0, 61, 30
3, 61120, Control_c, 0, 64, 0
3, 61440, Note_on_c, 0, 61, 0
3, 61440, Note_on_c, 0, 54, 0
3, 61440, Note_on_c, 0, 56, 27
3, 61440, Note_on_c, 0, 61, 35
3, 61707, Control_c, 0, 64, 127
3, 62240, Control_c, 0, 64, 0
3, 62400, Note_on_c, 0, 61, 0
3, 62400, Note_on_c, 0, 60, 27
3, 63360, Note_on_c, 0, 60, 0
3, 63360, Note_on_c, 0, 56, 0
3, 63360, Note_on_c, 0, 37, 48
3, 63360, Control_c, 0, 64, 127
3, 63360, Note_on_c, 0, 49, 52
3, 63840, Note_on_c, 0, 49, 0
3, 63840, Note_on_c, 0, 37, 0
3, 63840, Note_on_c, 0, 39, 44
3, 63840, Note_on_c, 0, 51, 49
3, 64320, Note_on_c, 0, 51, 0
3, 64320, Note_on_c, 0, 39, 0
3, 64320, Note_on_c, 0, 52, 52
3, 64320, Note_on_c, 0, 40, 48
3, 64362, Control_c, 0, 64, 0
3, 64433, Control_c, 0, 64, 127
3, 64800, Note_on_c, 0, 40, 0
3, 64800, Note_on_c, 0, 52, 0
3, 64800, Note_on_c, 0, 51, 49
3, 64800, Note_on_c, 0, 39, 44
3, 65040, Note_on_c, 0, 39, 0
3, 65040, Note_on_c, 0, 51, 0
3, 65040, Note_on_c, 0, 49, 49
3, 65040, Note_on_c, 0, 37, 44
3, 65280, Note_on_c, 0, 37, 0
3, 65280, Note_on_c, 0, 49, 0
3, 65280, Note_on_c, 0, 35, 50
3, 65280, Control_c, 0, 64, 0
3, 65280, Note_on_c, 0, 47, 55
3, 65760, Note_on_c, 0, 47, 0
3, 65760, Note_on_c, 0, 35, 0
3, 65760, Note_on_c, 0, 32, 45
3, 65760, Note_on_c, 0, 44, 49
3, 65947, Control_c, 0, 64, 127
3, 66240, Note_on_c, 0, 44, 0
3, 66240, Note_on_c, 0, 32, 0
3, 66240, Note_on_c, 0, 45, 49
3, 66240, Note_on_c, 0, 33, 42
3, 66720, Note_on_c, 0, 33, 0
3, 66720, Note_on_c, 0, 45, 0
3, 66720, Note_on_c, 0, 47, 42
3, 66720, Note_on_c, 0, 35, 39
3, 66800, Control_c, 0, 64, 0
3, 67200, Note_on_c, 0, 35, 0
3, 67200, Note_on_c, 0, 47, 0
3, 67200, Note_on_c, 0, 37, 51
3, 67200, Note_on_c, 0, 49, 56
3, 67320, Control_c, 0, 64, 127
3, 67680, Note_on_c, 0, 49, 0
3, 67680, Note_on_c, 0, 37, 0
3, 67680, Note_on_c, 0, 51, 53
3, 67680, Note_on_c, 0, 39, 48
3, 68160, Note_on_c, 0, 39, 0
3, 68160, Note_on_c, 0, 51, 0
3, 68160, Note_on_c, 0, 52, 56
3, 68160, Note_on_c, 0, 40, 52
3, 68202, Control_c, 0, 64, 0
3, 68273, Control_c, 0, 64, 127
3, 68640, Note_on_c, 0, 40, 0
3, 68640, Note_on_c, 0, 52, 0
3, 68640, Note_on_c, 0, 51, 56
3, 68640, Note_on_c, 0, 39, 52
3, 68880, Note_on_c, 0, 39, 0
3, 68880, Note_on_c, 0, 51, 0
3, 68880, Note_on_c, 0, 49, 56
3, 68880, Note_on_c, 0, 37, 52
3, 69120, Note_on_c, 0, 37, 0
3, 69120, Note_on_c, 0, 49, 0
3, 69120, Note_on_c, 0, 35, 56
3, 69120, Control_c, 0, 64, 0
3, 69120, Note_on_c, 0, 47, 59
3, 69600, Note_on_c, 0, 47, 0
3, 69600, Note_on_c, 0, 35, 0
3, 69600, Note_on_c, 0, 32, 52
3, 69600, Note_on_c, 0, 44, 56
3, 69787, Control_c, 0, 64, 127
3, 70080, Note_on_c, 0, 44, 0
3, 70080, Note_on_c, 0, 32, 0
3, 70080, Note_on_c, 0, 45, 56
3, 70080, Note_on_c, 0, 33, 50
3, 70560, Note_on_c, 0, 33, 0
3, 70560, Note_on_c, 0, 45, 0
3, 70560, Note_on_c, 0, 47, 56
3, 70560, Note_on_c, 0, 35, 50
3, 70640, Control_c, 0, 64, 0
3, 70888, Control_c, 0, 64, 127
3, 70920, Note_on_c, 0, 35, 0
3, 70920, Note_on_c, 0, 47, 0
3, 70920, Note_on_c, 0, 37, 55
3, 70980, Note_on_c, 0, 42, 62
3, 71040, Note_on_c, 0, 54, 69
3, 71520, Note_on_c, 0, 54, 0
3, 71520, Note_on_c, 0, 42, 0
3, 71520, Note_on_c, 0, 44, 60
3, 71520, Note_on_c, 0, 56, 63
3, 72000, Note_on_c, 0, 56, 0
3, 72000, Note_on_c, 0, 44, 0
3, 72000, Note_on_c, 0, 45, 62
3, 72000, Note_on_c, 0, 57, 70
3, 72042, Control_c, 0, 64, 0
3, 72113, Control_c, 0, 64, 127
3, 72480, Note_on_c, 0, 57, 0
3, 72480, Note_on_c, 0, 45, 0
3, 72480, Note_on_c, 0, 44, 62
3, 72480, Note_on_c, 0, 56, 70
3, 72720, Note_on_c, 0, 56, 0
3, 72720, Note_on_c, 0, 44, 0
3, 72720, Note_on_c, 0, 42, 62
3, 72720, Note_on_c, 0, 54, 70
3, 72960, Note_on_c, 0, 54, 0
3, 72960, Note_on_c, 0, 42, 0
3, 72960, Note_on_c, 0, 37, 0
3, 72960, Control_c, 0, 64, 0
3, 72960, Note_on_c, 0, 52, 72
3, 72960, Note_on_c, 0, 40, 66
3, 73440, Note_on_c, 0, 40, 0
3, 73440, Note_on_c, 0, 52, 0
3, 73440, Note_on_c, 0, 49, 72
3, 73440, Note_on_c, 0, 37, 66
3, 73627, Control_c, 0, 64, 127
3, 73920, Note_on_c, 0, 37, 0
3, 73920, Note_on_c, 0, 49, 0
3, 73920, Note_on_c, 0, 39, 62
3, 73920, Note_on_c, 0, 51, 69
3, 74400, Note_on_c, 0, 51, 0
3, 74400, Note_on_c, 0, 39, 0
3, 74400, Note_on_c, 0, 40, 62
3, 74400, Note_on_c, 0, 52, 69
3, 74480, Control_c, 0, 64, 0
3, 74760, Note_on_c, 0, 52, 0
3, 74760, Note_on_c, 0, 40, 0
3, 74760, Note_on_c, 0, 37, 62
3, 74820, Note_on_c, 0, 42, 67
3, 74880, Note_on_c, 0, 54, 73
3, 75000, Control_c, 0, 64, 127
3, 75360, Note_on_c, 0, 54, 0
3, 75360, Note_on_c, 0, 42, 0
3, 75360, Note_on_c, 0, 56, 68
3, 75360, Note_on_c, 0, 44, 63
3, 75840, Note_on_c, 0, 44, 0
3, 75840, Note_on_c, 0, 56, 0
3, 75840, Note_on_c, 0, 57, 70
3, 75840, Note_on_c, 0, 45, 62
3, 75882, Control_c, 0, 64, 0
3, 75953, Control_c, 0, 64, 127
3, 76320, Note_on_c, 0, 45, 0
3, 76320, Note_on_c, 0, 57, 0
3, 76320, Note_on_c, 0, 56, 74
3, 76320, Note_on_c, 0, 44, 67
3, 76560, Note_on_c, 0, 44, 0
3, 76560, Note_on_c, 0, 56, 0
3, 76560, Note_on_c, 0, 54, 74
3, 76560, Note_on_c, 0, 42, 67
3, 76800, Note_on_c, 0, 42, 0
3, 76800, Note_on_c, 0, 54, 0
3, 76800, Note_on_c, 0, 37, 0
3, 76800, Note_on_c, 0, 40, 70
3, 76800, Control_c, 0, 64, 0
3, 76800, Note_on_c, 0, 52, 77
3, 77280, Note_on_c, 0, 52, 0
3, 77280, Note_on_c, 0, 40, 0
3, 77280, Note_on_c, 0, 37, 66
3, 77280, Note_on_c, 0, 49, 72
3, 77467, Control_c, 0, 64, 127
3, 77760, Note_on_c, 0, 49, 0
3, 77760, Note_on_c, 0, 37, 0
3, 77760, Note_on_c, 0, 51, 73
3, 77760, Note_on_c, 0, 39, 67
3, 78240, Note_on_c, 0, 39, 0
3, 78240, Note_on_c, 0, 51, 0
3, 78240, Note_on_c, 0, 52, 73
3, 78240, Note_on_c, 0, 40, 67
3, 78320, Control_c, 0, 64, 0
3, 78649, Control_c, 0, 64, 127
3, 78660, Note_on_c, 0, 40, 0
3, 78660, Note_on_c, 0, 52, 0
3, 78660, Note_on_c, 0, 48, 75
3, 78660, Note_on_c, 0, 36, 68
3, 78720, Note_on_c, 0, 66, 85
3, 78720, Note_on_c, 0, 54, 78
3, 79200, Note_on_c, 0, 54, 0
3, 79200, Note_on_c, 0, 66, 0
3, 79200, Note_on_c, 0, 68, 82
3, 79200, Note_on_c, 0, 56, 72
3, 79680, Note_on_c, 0, 56, 0
3, 79680, Note_on_c, 0, 68, 0
3, 79680, Note_on_c, 0, 69, 88
3, 79680, Note_on_c, 0, 57, 78
3, 79722, Control_c, 0, 64, 0
3, 79793, Control_c, 0, 64, 127
3, 80160, Note_on_c, 0, 57, 0
3, 80160, Note_on_c, 0, 69, 0
3, 80160, Note_on_c, 0, 68, 88
3, 80160, Note_on_c, 0, 56, 78
3, 80400, Note_on_c, 0, 56, 0
3, 80400, Note_on_c, 0, 68, 0
3, 80400, Note_on_c, 0, 66, 80
3, 80400, Note_on_c, 0, 54, 71
3, 80552, Control_c, 0, 64, 0
3, 80580, Note_on_c, 0, 54, 0
3, 80580, Note_on_c, 0, 66, 0
3, 80580, Note_on_c, 0, 35, 70
3, 80580, Note_on_c, 0, 47, 78
3, 80601, Control_c, 0, 64, 127
3, 80640, Note_on_c, 0, 36, 0
3, 80640, Note_on_c, 0, 48, 0
3, 80640, Note_on_c, 0, 64, 90
3, 80640, Note_on_c, 0, 52, 80
3, 81120, Note_on_c, 0, 52, 0
3, 81120, Note_on_c, 0, 64, 0
3, 81120, Note_on_c, 0, 61, 84
3, 81120, Note_on_c, 0, 49, 75
3, 81600, Note_on_c, 0, 49, 0
3, 81600, Note_on_c, 0, 61, 0
3, 81600, Note_on_c, 0, 63, 82
3, 81600, Note_on_c, 0, 51, 72
3, 82080, Note_on_c, 0, 51, 0
3, 82080, Note_on_c, 0, 63, 0
3, 82080, Note_on_c, 0, 64, 78
3, 82080, Note_on_c, 0, 52, 70
3, 82160, Control_c, 0, 64, 0
3, 82440, Note_on_c, 0, 52, 0
3, 82440, Note_on_c, 0, 64, 0
3, 82493, Control_c, 0, 64, 127
3, 82500, Note_on_c, 0, 45, 78
3, 82500, Note_on_c, 0, 33, 69
3, 82560, Note_on_c, 0, 35, 0
3, 82560, Note_on_c, 0, 47, 0
3, 82560, Note_on_c, 0, 66, 85
3, 82560, Note_on_c, 0, 54, 78
3, 82934, Control_c, 0, 64, 0
3, 82962, Control_c, 0, 64, 127
3, 82980, Note_on_c, 0, 45, 0
3, 82980, Note_on_c, 0, 33, 0
3, 82980, Note_on_c, 0, 44, 72
3, 82980, Note_on_c, 0, 32, 63
3, 83040, Note_on_c, 0, 66, 0
3, 83040, Note_on_c, 0, 54, 0
3, 83040, Note_on_c, 0, 56, 72
3, 83040, Note_on_c, 0, 68, 82
3, 83421, Control_c, 0, 64, 0
3, 83460, Note_on_c, 0, 44, 0
3, 83460, Note_on_c, 0, 32, 0
3, 83460, Note_on_c, 0, 42, 78
3, 83460, Note_on_c, 0, 30, 69
3, 83502, Control_c, 0, 64, 127
3, 83520, Note_on_c, 0, 56, 0
3, 83520, Note_on_c, 0, 68, 0
3, 83520, Note_on_c, 0, 57, 78
3, 83520, Note_on_c, 0, 69, 88
3, 83887, Control_c, 0, 64, 0
3, 83940, Note_on_c, 0, 42, 0
3, 83940, Note_on_c, 0, 30, 0
3, 83940, Note_on_c, 0, 32, 69
3, 83940, Control_c, 0, 64, 127
3, 83940, Note_on_c, 0, 44, 78
3, 84000, Note_on_c, 0, 57, 0
3, 84000, Note_on_c, 0, 69, 0
3, 84000, Note_on_c, 0, 56, 73
3, 84000, Note_on_c, 0, 68, 83
3, 84240, Note_on_c, 0, 68, 0
3, 84240, Note_on_c, 0, 56, 0
3, 84240, Note_on_c, 0, 54, 73
3, 84240, Note_on_c, 0, 66, 83
3, 84392, Control_c, 0, 64, 0
3, 84420, Note_on_c, 0, 66, 0
3, 84420, Note_on_c, 0, 44, 0
3, 84420, Note_on_c, 0, 32, 0
3, 84420, Note_on_c, 0, 54, 0
3, 84420, Note_on_c, 0, 45, 80
3, 84420, Note_on_c, 0, 33, 71
3, 84480, Note_on_c, 0, 52, 80
3, 84480, Control_c, 0, 64, 127
3, 84480, Note_on_c, 0, 64, 90
3, 84960, Note_on_c, 0, 64, 0
3, 84960, Note_on_c, 0, 52, 0
3, 84960, Note_on_c, 0, 49, 69
3, 84960, Note_on_c, 0, 61, 78
3, 85440, Note_on_c, 0, 61, 0
3, 85440, Note_on_c, 0, 49, 0
3, 85440, Note_on_c, 0, 51, 67
3, 85440, Note_on_c, 0, 63, 75
3, 85920, Note_on_c, 0, 63, 0
3, 85920, Note_on_c, 0, 51, 0
3, 85920, Note_on_c, 0, 52, 66
3, 85920, Note_on_c, 0, 64, 74
3, 86000, Control_c, 0, 64, 0
3, 86280, Note_on_c, 0, 64, 0
3, 86280, Note_on_c, 0, 52, 0
3, 86340, Note_on_c, 0, 33, 0
3, 86340, Note_on_c, 0, 45, 0
3, 86340, Note_on_c, 0, 44, 62
3, 86340, Note_on_c, 0, 32, 62
3, 86400, Note_on_c, 0, 65, 62
3, 86400, Control_c, 0, 64, 127
3, 86400, Note_on_c, 0, 59, 71
3, 86400, Note_on_c, 0, 53, 62
3, 86880, Note_on_c, 0, 59, 0
3, 86880, Note_on_c, 0, 61, 66
3, 87162, Control_c, 0, 64, 0
3, 87300, Note_on_c, 0, 32, 0
3, 87300, Note_on_c, 0, 44, 0
3, 87300, Note_on_c, 0, 37, 62
3, 87300, Note_on_c, 0, 25, 62
3, 87346, Control_c, 0, 64, 127
3, 87360, Note_on_c, 0, 53, 0
3, 87360, Note_on_c, 0, 61, 0
3, 87360, Note_on_c, 0, 65, 0
3, 87360, Note_on_c, 0, 53, 62
3, 87360, Note_on_c, 0, 62, 71
3, 87360, Note_on_c, 0, 56, 62
3, 87840, Note_on_c, 0, 62, 0
3, 87840, Note_on_c, 0, 61, 67
3, 88080, Note_on_c, 0, 61, 0
3, 88080, Note_on_c, 0, 59, 64
3, 88136, Control_c, 0, 64, 0
3, 88260, Note_on_c, 0, 59, 0
3, 88260, Note_on_c, 0, 37, 0
3, 88260, Note_on_c, 0, 25, 0
3, 88260, Note_on_c, 0, 30, 64
3, 88260, Note_on_c, 0, 42, 64
3, 88320, Note_on_c, 0, 53, 0
3, 88320, Note_on_c, 0, 56, 0
3, 88320, Note_on_c, 0, 49, 64
3, 88320, Note_on_c, 0, 57, 72
3, 88320, Note_on_c, 0, 61, 64
3, 88427, Control_c, 0, 64, 127
3, 88800, Note_on_c, 0, 57, 0
3, 88800, Note_on_c, 0, 54, 67
3, 89280, Note_on_c, 0, 54, 0
3, 89280, Note_on_c, 0, 56, 63
3, 89760, Note_on_c, 0, 56, 0
3, 89760, Note_on_c, 0, 57, 63
3, 89867, Control_c, 0, 64, 0
3, 90180, Note_on_c, 0, 57, 0
3, 90180, Note_on_c, 0, 42, 0
3, 90180, Note_on_c, 0, 30, 0
3, 90180, Note_on_c, 0, 24, 61
3, 90180, Note_on_c, 0, 36, 61
3, 90240, Note_on_c, 0, 49, 0
3, 90240, Note_on_c, 0, 61, 0
3, 90240, Note_on_c, 0, 51, 61
3, 90240, Note_on_c, 0, 42, 61
3, 90240, Control_c, 0, 64, 127
3, 90240, Note_on_c, 0, 54, 69
3, 90720, Note_on_c, 0, 54, 0
3, 90720, Note_on_c, 0, 42, 0
3, 90720, Note_on_c, 0, 44, 56
3, 90720, Note_on_c, 0, 56, 64
3, 91002, Control_c, 0, 64, 0
3, 91200, Note_on_c, 0, 56, 0
3, 91200, Note_on_c, 0, 51, 0
3, 91200, Note_on_c, 0, 44, 0
3, 91200, Note_on_c, 0, 57, 69
3, 91200, Note_on_c, 0, 45, 61
3, 91256, Control_c, 0, 64, 127
3, 91680, Note_on_c, 0, 45, 0
3, 91680, Note_on_c, 0, 57, 0
3, 91680, Note_on_c, 0, 44, 61
3, 91680, Note_on_c, 0, 56, 69
3, 91920, Note_on_c, 0, 56, 0
3, 91920, Note_on_c, 0, 44, 0
3, 91920, Note_on_c, 0, 42, 61
3, 91920, Note_on_c, 0, 54, 69
3, 91976, Control_c, 0, 64, 0
3, 92100, Note_on_c, 0, 54, 0
3, 92100, Note_on_c, 0, 36, 0
3, 92100, Note_on_c, 0, 24, 0
3, 92100, Note_on_c, 0, 42, 0
3, 92100, Note_on_c, 0, 37, 58
3, 92100, Note_on_c, 0, 25, 58
3, 92160, Note_on_c, 0, 44, 58
3, 92160, Note_on_c, 0, 40, 58
3, 92160, Note_on_c, 0, 52, 64
3, 92640, Note_on_c, 0, 52, 0
3, 92640, Note_on_c, 0, 40, 0
3, 92640, Note_on_c, 0, 37, 57
3, 92640, Note_on_c, 0, 49, 64
3, 92747, Control_c, 0, 64, 127
3, 93120, Note_on_c, 0, 49, 0
3, 93120, Note_on_c, 0, 37, 0
3, 93120, Note_on_c, 0, 51, 62
3, 93120, Note_on_c, 0, 39, 52
3, 93600, Note_on_c, 0, 39, 0
3, 93600, Note_on_c, 0, 51, 0
3, 93600, Note_on_c, 0, 52, 62
3, 93600, Note_on_c, 0, 40, 52
3, 93707, Control_c, 0, 64, 0
3, 94020, Note_on_c, 0, 40, 0
3, 94020, Note_on_c, 0, 37, 0
3, 94020, Note_on_c, 0, 25, 0
3, 94020, Note_on_c, 0, 52, 0
3, 94020, Note_on_c, 0, 31, 59
3, 94020, Note_on_c, 0, 43, 59
3, 94080, Note_on_c, 0, 44, 0
3, 94080, Note_on_c, 0, 49, 66
3, 94080, Note_on_c, 0, 58, 74
3, 94080, Note_on_c, 0, 52, 66
3, 94080, Note_on_c, 0, 61, 74
3, 94240, Control_c, 0, 64, 127
3, 94800, Control_c, 0, 64, 0
3, 95040, Note_on_c, 0, 61, 0
3, 95040, Note_on_c, 0, 58, 0
3, 95040, Note_on_c, 0, 49, 0
3, 95040, Note_on_c, 0, 52, 0
3, 95040, Note_on_c, 0, 51, 57
3, 95520, Note_on_c, 0, 51, 0
3, 95520, Note_on_c, 0, 49, 53
3, 95940, Note_on_c, 0, 49, 0
3, 95940, Note_on_c, 0, 31, 0
3, 95940, Note_on_c, 0, 43, 0
3, 95940, Note_on_c, 0, 32, 45
3, 95940, Note_on_c, 0, 44, 46
3, 96000, Note_on_c, 0, 56, 49
3, 96171, Control_c, 0, 64, 127
3, 96949, Control_c, 0, 64, 0
3, 96960, Note_on_c, 0, 56, 0
3, 96960, Note_on_c, 0, 44, 0
3, 96960, Note_on_c, 0, 32, 0
3, 96960, Note_on_c, 0, 56, 47
3, 96960, Note_on_c, 0, 44, 46
3, 97063, Control_c, 0, 64, 127
3, 97440, Note_on_c, 0, 56, 0
3, 97440, Note_on_c, 0, 54, 41
3, 97737, Control_c, 0, 64, 0
3, 97920, Note_on_c, 0, 54, 0
3, 97920, Note_on_c, 0, 44, 0
3, 97920, Note_on_c, 0, 49, 39
3, 97920, Note_on_c, 0, 52, 39
3, 98187, Control_c, 0, 64, 127
3, 98880, Note_on_c, 0, 52, 0
3, 98880, Note_on_c, 0, 49, 0
3, 98880, Note_on_c, 0, 37, 24
3, 98880, Note_on_c, 0, 25, 19
3, 101238, Control_c, 0, 64, 0
3, 101322, Control_c, 0, 64, 127
3, 102282, Control_c, 0, 64, 0
3, 102480, Control_c, 0, 64, 127
3, 103680, Note_on_c, 0, 66, 44
3, 103680, Control_c, 0, 64, 0
3, 103765, Control_c, 0, 64, 127
3, 104160, Note_on_c, 0, 68, 42
3, 104180, Note_on_c, 0, 66, 0
3, 104640, Note_on_c, 0, 69, 46
3, 104660, Note_on_c, 0, 68, 0
3, 105120, Note_on_c, 0, 68, 44
3, 105140, Note_on_c, 0, 69, 0
3, 105318, Control_c, 0, 64, 0
3, 105360, Note_on_c, 0, 66, 44
3, 105380, Note_on_c, 0, 68, 0
3, 105600, Note_on_c, 0, 37, 0
3, 105600, Note_on_c, 0, 25, 0
3, 105600, Note_on_c, 0, 64, 47
3, 105620, Note_on_c, 0, 66, 0
3, 105973, Control_c, 0, 64, 127
3, 106080, Note_on_c, 0, 64, 0
3, 106080, Note_on_c, 0, 61, 42
3, 106560, Note_on_c, 0, 63, 42
3, 106580, Note_on_c, 0, 61, 0
3, 107040, Note_on_c, 0, 64, 40
3, 107060, Note_on_c, 0, 63, 0
3, 107120, Control_c, 0, 64, 0
3, 107520, Note_on_c, 0, 64, 0
3, 107520, Note_on_c, 0, 61, 33
3, 107520, Note_on_c, 0, 63, 44
3, 107589, Control_c, 0, 64, 127
3, 108000, Note_on_c, 0, 64, 44
3, 108020, Note_on_c, 0, 63, 0
3, 108480, Note_on_c, 0, 66, 47
3, 108500, Note_on_c, 0, 64, 0
3, 108731, Control_c, 0, 64, 0
3, 108960, Note_on_c, 0, 61, 0
3, 108960, Note_on_c, 0, 60, 31
3, 109440, Note_on_c, 0, 60, 0
3, 109440, Note_on_c, 0, 66, 0
3, 109440, Note_on_c, 0, 64, 44
3, 109440, Note_on_c, 0, 59, 33
3, 109493, Control_c, 0, 64, 127
3, 109920, Note_on_c, 0, 63, 36
3, 109940, Note_on_c, 0, 64, 0
3, 110400, Note_on_c, 0, 61, 36
3, 110420, Note_on_c, 0, 63, 0
3, 110667, Control_c, 0, 64, 0
3, 110880, Note_on_c, 0, 61, 0
3, 110880, Note_on_c, 0, 64, 31
3, 111360, Note_on_c, 0, 64, 0
3, 111360, Note_on_c, 0, 59, 0
3, 111360, Note_on_c, 0, 57, 34
3, 111360, Note_on_c, 0, 63, 44
3, 111600, Control_c, 0, 64, 127
3, 111840, Note_on_c, 0, 64, 36
3, 111860, Note_on_c, 0, 63, 0
3, 112320, Note_on_c, 0, 63, 39
3, 112340, Note_on_c, 0, 64, 0
3, 112800, Note_on_c, 0, 64, 33
3, 112820, Note_on_c, 0, 63, 0
3, 113280, Note_on_c, 0, 66, 37
3, 113300, Note_on_c, 0, 64, 0
3, 113554, Control_c, 0, 64, 0
3, 114240, Note_on_c, 0, 57, 0
3, 114240, Note_on_c, 0, 56, 37
3, 114309, Control_c, 0, 64, 127
3, 114949, Control_c, 0, 64, 0
3, 115200, Note_on_c, 0, 56, 0
3, 115200, Note_on_c, 0, 66, 0
3, 115200, Note_on_c, 0, 64, 40
3, 115200, Note_on_c, 0, 57, 34
3, 115291, Control_c, 0, 64, 127
3, 115680, Note_on_c, 0, 64, 0
3, 115680, Note_on_c, 0, 63, 38
3, 116160, Note_on_c, 0, 64, 40
3, 116180, Note_on_c, 0, 63, 0
3, 116640, Note_on_c, 0, 65, 36
3, 116660, Note_on_c, 0, 64, 0
3, 116983, Control_c, 0, 64, 0
3, 117120, Note_on_c, 0, 66, 46
3, 117140, Note_on_c, 0, 65, 0
3, 118080, Note_on_c, 0, 57, 0
3, 118080, Note_on_c, 0, 56, 40
3, 118160, Control_c, 0, 64, 127
3, 118800, Control_c, 0, 64, 0
3, 119040, Note_on_c, 0, 56, 0
3, 119040, Note_on_c, 0, 66, 0
3, 119040, Note_on_c, 0, 57, 33
3, 119040, Note_on_c, 0, 64, 44
3, 119177, Control_c, 0, 64, 127
3, 119520, Note_on_c, 0, 64, 0
3, 119520, Note_on_c, 0, 63, 39
3, 120000, Note_on_c, 0, 64, 41
3, 120020, Note_on_c, 0, 63, 0
3, 120480, Note_on_c, 0, 65, 38
3, 120500, Note_on_c, 0, 64, 0
3, 120754, Control_c, 0, 64, 0
3, 120960, Note_on_c, 0, 66, 47
3, 120980, Note_on_c, 0, 65, 0
3, 122400, Note_on_c, 0, 66, 0
3, 122400, Note_on_c, 0, 64, 31
3, 122880, Note_on_c, 0, 64, 0
3, 122880, Note_on_c, 0, 63, 36
3, 123360, Note_on_c, 0, 57, 0
3, 123360, Note_on_c, 0, 56, 33
3, 123840, Note_on_c, 0, 56, 0
3, 123840, Note_on_c, 0, 54, 31
3, 123867, Control_c, 0, 64, 127
3, 124320, Note_on_c, 0, 63, 0
3, 124320, Note_on_c, 0, 61, 30
3, 124480, Control_c, 0, 64, 0
3, 124800, Note_on_c, 0, 61, 0
3, 124800, Note_on_c, 0, 54, 0
3, 124800, Note_on_c, 0, 56, 31
3, 125067, Control_c, 0, 64, 127
3, 125600, Control_c, 0, 64, 0
3, 126720, Note_on_c, 0, 56, 0
3, 126720, Note_on_c, 0, 56, 30
3, 126720, Note_on_c, 0, 44, 24
3, 126960, Control_c, 0, 64, 127
3, 127680, Note_on_c, 0, 56, 0
3, 127680, Note_on_c, 0, 54, 25
3, 127680, Control_c, 0, 64, 0
3, 127840, Control_c, 0, 64, 127
3, 128453, Control_c, 0, 64, 0
3, 128640, Note_on_c, 0, 54, 0
3, 128640, Note_on_c, 0, 44, 0
3, 128640, Note_on_c, 0, 52, 29
3, 128640, Note_on_c, 0, 49, 26
3, 128838, Control_c, 0, 64, 127
3, 129600, Note_on_c, 0, 25, 23
3, 129840, Note_on_c, 0, 25, 0
3, 129840, Note_on_c, 0, 49, 0
3, 129840, Note_on_c, 0, 52, 0
3, 130249, Control_c, 0, 64, 0
3, 130560, Control_c, 0, 64, 127
3, 131520, Note_on_c, 0, 25, 27
3, 131760, Note_on_c, 0, 25, 0
3, 132194, Control_c, 0, 64, 0
3, 132664, Control_c, 0, 64, 127
3, 133440, Note_on_c, 0, 25, 27
3, 133680, Note_on_c, 0, 25, 0
3, 134104, Control_c, 0, 64, 0
3, 134499, Control_c, 0, 64, 127
3, 135360, Note_on_c, 0, 25, 27
3, 135600, Note_on_c, 0, 25, 0
3, 136066, Control_c, 0, 64, 0
3, 136489, Control_c, 0, 64, 127
3, 137280, Note_on_c, 0, 25, 26
3, 137520, Note_on_c, 0, 25, 0
3, 137929, Control_c, 0, 64, 0
3, 138240, Note_on_c, 0, 48, 51
3, 138251, Control_c, 0, 64, 127
3, 138480, Note_on_c, 0, 48, 0
3, 139200, Note_on_c, 0, 25, 26
3, 139440, Note_on_c, 0, 25, 0
3, 139909, Control_c, 0, 64, 0
3, 140160, Note_on_c, 0, 49, 51
3, 140301, Control_c, 0, 64, 127
3, 140400, Note_on_c, 0, 49, 0
3, 141120, Note_on_c, 0, 25, 27
3, 141360, Note_on_c, 0, 25, 0
3, 141685, Control_c, 0, 64, 0
3, 142080, Note_on_c, 0, 51, 53
3, 142136, Control_c, 0, 64, 127
3, 142320, Note_on_c, 0, 51, 0
3, 143040, Note_on_c, 0, 25, 26
3, 143280, Note_on_c, 0, 25, 0
3, 143633, Control_c, 0, 64, 0
3, 144000, Note_on_c, 0, 52, 52
3, 144141, Control_c, 0, 64, 127
3, 144240, Note_on_c, 0, 52, 0
3, 144960, Note_on_c, 0, 25, 25
3, 145200, Note_on_c, 0, 25, 0
3, 145652, Control_c, 0, 64, 0
3, 145920, Note_on_c, 0, 54, 68
3, 145966, Control_c, 0, 64, 127
3, 146160, Note_on_c, 0, 54, 0
3, 146880, Note_on_c, 0, 25, 29
3, 147120, Note_on_c, 0, 25, 0
3, 148800, Note_on_c, 0, 25, 28
3, 149040, Note_on_c, 0, 25, 0
3, 149421, Control_c, 0, 64, 0
3, 149760, Note_on_c, 0, 48, 52
3, 149829, Control_c, 0, 64, 127
3, 150000, Note_on_c, 0, 48, 0
3, 150720, Note_on_c, 0, 25, 29
3, 150960, Note_on_c, 0, 25, 0
3, 152640, Note_on_c, 0, 25, 28
3, 152880, Note_on_c, 0, 25, 0
3, 153318, Control_c, 0, 64, 0
3, 153600, Note_on_c, 0, 52, 52
3, 153699, Control_c, 0, 64, 127
3, 153840, Note_on_c, 0, 52, 0
3, 154560, Note_on_c, 0, 25, 27
3, 154800, Note_on_c, 0, 25, 0
3, 155181, Control_c, 0, 64, 0
3, 155520, Note_on_c, 0, 51, 68
3, 155591, Control_c, 0, 64, 127
3, 155760, Note_on_c, 0, 51, 0
3, 156480, Note_on_c, 0, 25, 26
3, 156720, Note_on_c, 0, 25, 0
3, 157172, Control_c, 0, 64, 0
3, 157440, Note_on_c, 0, 52, 49
3, 157638, Control_c, 0, 64, 127
3, 157680, Note_on_c, 0, 52, 0
3, 158400, Note_on_c, 0, 25, 26
3, 158640, Note_on_c, 0, 25, 0
3, 159078, Control_c, 0, 64, 0
3, 159360, Note_on_c, 0, 51, 68
3, 159544, Control_c, 0, 64, 127
3, 159600, Note_on_c, 0, 51, 0
3, 160320, Note_on_c, 0, 25, 27
3, 160560, Note_on_c, 0, 25, 0
3, 161068, Control_c, 0, 64, 0
3, 161280, Note_on_c, 0, 52, 52
3, 161294, Control_c, 0, 64, 127
3, 161520, Note_on_c, 0, 52, 0
3, 162240, Note_on_c, 0, 25, 26
3, 162480, Note_on_c, 0, 25, 0
3, 164160, Note_on_c, 0, 25, 18
3, 164400, Note_on_c, 0, 25, 0
3, 164767, Control_c, 0, 64, 0
3, 164767, End_track
4, 0, Start_track
4, 0, MIDI_port, 0
4, 0, Title_t, "Borodin: Petite Suite, Im Kloster"
4, 0, End_track
5, 0, Start_track
5, 0, MIDI_port, 0
5, 0, Title_t, "Copyright © 2000 by Bernd Krüger"
5, 0, End_track
6, 0, Start_track
6, 0, MIDI_port, 0
6, 0, Title_t, "email: bernd.krueger@piano-midi.de"
6, 0, End_track
7, 0, Start_track
7, 0, MIDI_port, 0
7, 0, Title_t, "http://www.piano-midi.de"
7, 0, End_track
8, 0, Start_track
8, 0, MIDI_port, 0
8, 0, Title_t, "Edition: 21.8.00"
8, 0, End_track
0, 0, End_of_file
