0, 0, Header, 1, 9, 480
1, 0, Start_track
1, 0, Title_t, "Petite Suite"
1, 0, Title_t, "6. Serenade"
1, 0, Copyright_t, "Copyright © 2000 by Bernd Krueger"
1, 0, Text_t, "Alexander Borodin"
1, 0, Text_t, "Fertiggestellt am 25.6.00\012"
1, 0, Text_t, "Update am 21.8.2000\012"
1, 0, Text_t, "Normierung: 23.12.2002\012"
1, 0, Text_t, "Dauer: 1:55 Minuten\012"
1, 0, SMPTE_offset, 96, 0, 3, 0, 0
1, 0, Time_signature, 6, 3, 12, 8
1, 0, Key_signature, -5, "major"
1, 0, Tempo, 857878
1, 0, Marker_t, "Allegretto"
1, 260, Tempo, 829646
1, 480, Tempo, 818777
1, 600, Tempo, 863682
1, 720, Tempo, 840689
1, 960, Tempo, 824176
1, 1200, Tempo, 818777
1, 1320, Tempo, 863682
1, 1680, Tempo, 829646
1, 1920, Tempo, 824176
1, 2040, Tempo, 869691
1, 2160, Tempo, 840689
1, 2400, Tempo, 824176
1, 2640, Tempo, 813559
1, 2760, Tempo, 869691
1, 2880, Tempo, 863682
1, 3120, Tempo, 829646
1, 3360, Tempo, 818777
1, 3500, Tempo, 863682
1, 3600, Tempo, 840689
1, 3840, Tempo, 824176
1, 4080, Tempo, 813559
1, 4200, Tempo, 863682
1, 4320, Tempo, 894321
1, 4560, Tempo, 894321
1, 4780, Tempo, 900766
1, 4980, Tempo, 907167
1, 5160, Tempo, 913798
1, 5360, Tempo, 920387
1, 5540, Tempo, 927214
1, 5740, Tempo, 934143
1, 5920, Tempo, 941029
1, 6120, Tempo, 948167
1, 6240, Tempo, 985222
1, 6480, Tempo, 1042209
1, 6720, Tempo, 846262
1, 7200, Tempo, 840689
1, 8640, Tempo, 863682
1, 8640, Marker_t, "a tempo"
1, 8880, Tempo, 829646
1, 9120, Tempo, 824176
1, 9240, Tempo, 863682
1, 9360, Tempo, 846262
1, 9600, Tempo, 829646
1, 9840, Tempo, 813559
1, 9960, Tempo, 863682
1, 10080, Tempo, 863682
1, 10320, Tempo, 829646
1, 10560, Tempo, 824176
1, 10680, Tempo, 863682
1, 10800, Tempo, 863682
1, 11040, Tempo, 846262
1, 11280, Tempo, 829646
1, 11400, Tempo, 881834
1, 11520, Tempo, 863682
1, 11760, Tempo, 829646
1, 12000, Tempo, 824176
1, 12120, Tempo, 863682
1, 12240, Tempo, 846262
1, 12480, Tempo, 829646
1, 12720, Tempo, 813559
1, 12840, Tempo, 863682
1, 12960, Tempo, 863682
1, 13200, Tempo, 829646
1, 13440, Tempo, 824176
1, 13560, Tempo, 863682
1, 13680, Tempo, 863682
1, 13920, Tempo, 840689
1, 14160, Tempo, 829646
1, 14280, Tempo, 881834
1, 14400, Tempo, 863682
1, 14640, Tempo, 829646
1, 14880, Tempo, 824176
1, 15000, Tempo, 863682
1, 15120, Tempo, 846262
1, 15360, Tempo, 829646
1, 15600, Tempo, 813559
1, 15720, Tempo, 863682
1, 15840, Tempo, 863682
1, 16080, Tempo, 829646
1, 16320, Tempo, 824176
1, 16440, Tempo, 863682
1, 16560, Tempo, 863682
1, 16800, Tempo, 846262
1, 17040, Tempo, 829646
1, 17160, Tempo, 881834
1, 17280, Tempo, 863682
1, 17520, Tempo, 829646
1, 17760, Tempo, 824176
1, 17880, Tempo, 863682
1, 18000, Tempo, 846262
1, 18240, Tempo, 829646
1, 18480, Tempo, 813559
1, 18600, Tempo, 863682
1, 18720, Tempo, 863682
1, 18960, Tempo, 829646
1, 19200, Tempo, 824176
1, 19320, Tempo, 863682
1, 19440, Tempo, 863682
1, 19680, Tempo, 840689
1, 19920, Tempo, 829646
1, 20040, Tempo, 1042209
1, 20100, Tempo, 907167
1, 20160, Tempo, 863682
1, 20400, Tempo, 829646
1, 20640, Tempo, 824176
1, 20760, Tempo, 863682
1, 20880, Tempo, 846262
1, 21120, Tempo, 829646
1, 21360, Tempo, 813559
1, 21480, Tempo, 863682
1, 21600, Tempo, 863682
1, 21840, Tempo, 829646
1, 22080, Tempo, 824176
1, 22200, Tempo, 863682
1, 22320, Tempo, 863682
1, 22560, Tempo, 846262
1, 22800, Tempo, 829646
1, 22920, Tempo, 881834
1, 23040, Tempo, 863682
1, 23280, Tempo, 829646
1, 23520, Tempo, 824176
1, 23640, Tempo, 863682
1, 23760, Tempo, 846262
1, 24000, Tempo, 829646
1, 24240, Tempo, 813559
1, 24360, Tempo, 863682
1, 24480, Tempo, 863682
1, 24720, Tempo, 829646
1, 24960, Tempo, 824176
1, 25080, Tempo, 863682
1, 25200, Tempo, 863682
1, 25440, Tempo, 840689
1, 25680, Tempo, 829646
1, 25800, Tempo, 1025290
1, 25860, Tempo, 907167
1, 25920, Tempo, 863682
1, 26160, Tempo, 829646
1, 26400, Tempo, 824176
1, 26520, Tempo, 863682
1, 26640, Tempo, 846262
1, 26880, Tempo, 829646
1, 27120, Tempo, 813559
1, 27240, Tempo, 863682
1, 27360, Tempo, 863682
1, 27600, Tempo, 829646
1, 27840, Tempo, 824176
1, 27960, Tempo, 863682
1, 28080, Tempo, 863682
1, 28320, Tempo, 846262
1, 28560, Tempo, 829646
1, 28680, Tempo, 881834
1, 28800, Tempo, 863682
1, 29040, Tempo, 829646
1, 29280, Tempo, 824176
1, 29400, Tempo, 863682
1, 29520, Tempo, 846262
1, 29760, Tempo, 829646
1, 30000, Tempo, 813559
1, 30120, Tempo, 863682
1, 30240, Tempo, 863682
1, 30480, Tempo, 829646
1, 30720, Tempo, 824176
1, 30840, Tempo, 863682
1, 30960, Tempo, 863682
1, 31200, Tempo, 840689
1, 31440, Tempo, 829646
1, 31560, Tempo, 881834
1, 31680, Tempo, 863682
1, 31920, Tempo, 829646
1, 32160, Tempo, 824176
1, 32280, Tempo, 840689
1, 32400, Tempo, 846262
1, 32640, Tempo, 829646
1, 32880, Tempo, 813559
1, 33000, Tempo, 863682
1, 33120, Tempo, 863682
1, 33360, Tempo, 829646
1, 33600, Tempo, 824176
1, 33720, Tempo, 863682
1, 33840, Tempo, 863682
1, 34080, Tempo, 846262
1, 34320, Tempo, 829646
1, 34440, Tempo, 881834
1, 34560, Tempo, 846262
1, 34800, Tempo, 829646
1, 35040, Tempo, 824176
1, 35160, Tempo, 840689
1, 35280, Tempo, 846262
1, 35520, Tempo, 829646
1, 35760, Tempo, 813559
1, 35880, Tempo, 863682
1, 36000, Tempo, 863682
1, 36240, Tempo, 829646
1, 36480, Tempo, 824176
1, 36600, Tempo, 863682
1, 36720, Tempo, 863682
1, 36960, Tempo, 840689
1, 37200, Tempo, 829646
1, 37320, Tempo, 881834
1, 37440, Tempo, 863682
1, 37680, Tempo, 829646
1, 37920, Tempo, 824176
1, 38040, Tempo, 846262
1, 38160, Tempo, 846262
1, 38400, Tempo, 829646
1, 38640, Tempo, 813559
1, 38760, Tempo, 863682
1, 38880, Tempo, 863682
1, 39120, Tempo, 829646
1, 39360, Tempo, 824176
1, 39480, Tempo, 863682
1, 39600, Tempo, 863682
1, 39840, Tempo, 846262
1, 40080, Tempo, 829646
1, 40200, Tempo, 881834
1, 40320, Tempo, 863682
1, 40560, Tempo, 829646
1, 40800, Tempo, 824176
1, 40920, Tempo, 863682
1, 41040, Tempo, 846262
1, 41280, Tempo, 829646
1, 41520, Tempo, 813559
1, 41640, Tempo, 863682
1, 41760, Tempo, 863682
1, 42000, Tempo, 829646
1, 42240, Tempo, 824176
1, 42360, Tempo, 863682
1, 42480, Tempo, 863682
1, 42720, Tempo, 840689
1, 42960, Tempo, 829646
1, 43080, Tempo, 881834
1, 43200, Tempo, 840689
1, 43440, Tempo, 829646
1, 43680, Tempo, 824176
1, 43800, Tempo, 863682
1, 43920, Tempo, 852031
1, 44160, Tempo, 840689
1, 44400, Tempo, 852031
1, 44640, Tempo, 835073
1, 44880, Tempo, 829646
1, 45120, Tempo, 824176
1, 45240, Tempo, 863682
1, 45360, Tempo, 808299
1, 45600, Tempo, 824176
1, 46080, Tempo, 840689
1, 46320, Tempo, 829646
1, 46560, Tempo, 824176
1, 46680, Tempo, 863682
1, 46800, Tempo, 852031
1, 47040, Tempo, 840689
1, 47280, Tempo, 852031
1, 47520, Tempo, 835073
1, 47760, Tempo, 829646
1, 48000, Tempo, 824176
1, 48120, Tempo, 863682
1, 48240, Tempo, 840689
1, 48480, Tempo, 824176
1, 48960, Tempo, 840689
1, 49200, Tempo, 829646
1, 49440, Tempo, 824176
1, 49560, Tempo, 863682
1, 49680, Tempo, 852031
1, 49920, Tempo, 840689
1, 50160, Tempo, 852031
1, 50400, Tempo, 835073
1, 50640, Tempo, 829646
1, 50880, Tempo, 824176
1, 51000, Tempo, 863682
1, 51120, Tempo, 818777
1, 51360, Tempo, 824176
1, 51840, Tempo, 840689
1, 52080, Tempo, 829646
1, 52320, Tempo, 824176
1, 52440, Tempo, 863682
1, 52560, Tempo, 852031
1, 52800, Tempo, 840689
1, 53040, Tempo, 852031
1, 53280, Tempo, 875912
1, 53360, Tempo, 882353
1, 53420, Tempo, 888889
1, 53480, Tempo, 895522
1, 53560, Tempo, 902256
1, 53620, Tempo, 909091
1, 53680, Tempo, 916031
1, 53740, Tempo, 923077
1, 53760, Tempo, 960000
1, 53880, Tempo, 1043478
1, 54000, Tempo, 1132075
1, 54720, Tempo, 857878
1, 54980, Tempo, 829646
1, 55200, Tempo, 818777
1, 55320, Tempo, 863682
1, 55440, Tempo, 840689
1, 55680, Tempo, 824176
1, 55920, Tempo, 818777
1, 56040, Tempo, 863682
1, 56400, Tempo, 829646
1, 56640, Tempo, 824176
1, 56760, Tempo, 869691
1, 56880, Tempo, 840689
1, 57120, Tempo, 824176
1, 57360, Tempo, 813559
1, 57480, Tempo, 869691
1, 57600, Tempo, 863682
1, 57840, Tempo, 829646
1, 58080, Tempo, 818777
1, 58220, Tempo, 863682
1, 58320, Tempo, 840689
1, 58560, Tempo, 824176
1, 58800, Tempo, 813559
1, 58920, Tempo, 863682
1, 59040, Tempo, 894321
1, 59280, Tempo, 894321
1, 59500, Tempo, 900766
1, 59700, Tempo, 907167
1, 59880, Tempo, 913798
1, 60080, Tempo, 920387
1, 60260, Tempo, 927214
1, 60460, Tempo, 934143
1, 60480, Tempo, 916031
1, 60540, Tempo, 923077
1, 60600, Tempo, 930233
1, 60660, Tempo, 937500
1, 60720, Tempo, 944882
1, 60780, Tempo, 952381
1, 60840, Tempo, 960000
1, 60900, Tempo, 967742
1, 60960, Tempo, 1034483
1, 61200, Tempo, 1090909
1, 61440, Tempo, 846262
1, 63160, Marker_t, "Fine"
1, 63360, Tempo, 1008403
1, 63360, End_track
2, 0, Start_track
2, 0, MIDI_port, 0
2, 0, Title_t, "Piano right"
2, 0, Program_c, 0, 0
2, 0, Control_c, 0, 7, 100
2, 0, Control_c, 0, 64, 0
2, 0, Text_t, "bdca426d104a26ac9dcb070447587523"
2, 0, Control_c, 0, 91, 127
2, 240, Note_on_c, 0, 54, 29
2, 240, Note_on_c, 0, 58, 36
2, 240, Note_on_c, 0, 49, 29
2, 480, Note_on_c, 0, 49, 0
2, 480, Note_on_c, 0, 58, 0
2, 480, Note_on_c, 0, 54, 0
2, 600, Note_on_c, 0, 49, 24
2, 600, Note_on_c, 0, 54, 24
2, 600, Note_on_c, 0, 58, 29
2, 720, Note_on_c, 0, 58, 0
2, 720, Note_on_c, 0, 54, 0
2, 720, Note_on_c, 0, 49, 0
2, 960, Note_on_c, 0, 54, 29
2, 960, Note_on_c, 0, 61, 36
2, 960, Note_on_c, 0, 58, 29
2, 960, Note_on_c, 0, 49, 29
2, 1200, Note_on_c, 0, 49, 0
2, 1200, Note_on_c, 0, 54, 0
2, 1200, Note_on_c, 0, 61, 0
2, 1200, Note_on_c, 0, 58, 0
2, 1320, Note_on_c, 0, 61, 29
2, 1320, Note_on_c, 0, 58, 25
2, 1320, Note_on_c, 0, 54, 25
2, 1320, Note_on_c, 0, 49, 25
2, 1440, Note_on_c, 0, 49, 0
2, 1440, Note_on_c, 0, 61, 0
2, 1440, Note_on_c, 0, 58, 0
2, 1440, Note_on_c, 0, 54, 0
2, 1680, Note_on_c, 0, 53, 30
2, 1680, Note_on_c, 0, 56, 37
2, 1680, Note_on_c, 0, 49, 30
2, 1920, Note_on_c, 0, 49, 0
2, 1920, Note_on_c, 0, 56, 0
2, 1920, Note_on_c, 0, 53, 0
2, 2040, Note_on_c, 0, 49, 25
2, 2040, Note_on_c, 0, 53, 25
2, 2040, Note_on_c, 0, 56, 29
2, 2160, Note_on_c, 0, 56, 0
2, 2160, Note_on_c, 0, 53, 0
2, 2160, Note_on_c, 0, 49, 0
2, 2400, Note_on_c, 0, 49, 29
2, 2400, Note_on_c, 0, 61, 36
2, 2400, Note_on_c, 0, 53, 29
2, 2640, Note_on_c, 0, 53, 0
2, 2640, Note_on_c, 0, 61, 0
2, 2640, Note_on_c, 0, 49, 0
2, 2760, Note_on_c, 0, 61, 29
2, 2760, Note_on_c, 0, 53, 24
2, 2760, Note_on_c, 0, 49, 24
2, 2880, Note_on_c, 0, 49, 0
2, 2880, Note_on_c, 0, 53, 0
2, 2880, Note_on_c, 0, 61, 0
2, 3120, Note_on_c, 0, 49, 30
2, 3120, Note_on_c, 0, 54, 37
2, 3120, Note_on_c, 0, 51, 30
2, 3360, Note_on_c, 0, 51, 0
2, 3360, Note_on_c, 0, 54, 0
2, 3360, Note_on_c, 0, 49, 0
2, 3480, Note_on_c, 0, 51, 25
2, 3480, Note_on_c, 0, 49, 25
2, 3480, Note_on_c, 0, 54, 29
2, 3600, Note_on_c, 0, 54, 0
2, 3600, Note_on_c, 0, 49, 0
2, 3600, Note_on_c, 0, 51, 0
2, 3840, Note_on_c, 0, 61, 37
2, 3840, Note_on_c, 0, 54, 30
2, 3840, Note_on_c, 0, 51, 30
2, 3840, Note_on_c, 0, 49, 30
2, 4080, Note_on_c, 0, 49, 0
2, 4080, Note_on_c, 0, 61, 0
2, 4080, Note_on_c, 0, 54, 0
2, 4080, Note_on_c, 0, 51, 0
2, 4200, Note_on_c, 0, 54, 25
2, 4200, Note_on_c, 0, 61, 29
2, 4200, Note_on_c, 0, 51, 25
2, 4200, Note_on_c, 0, 49, 25
2, 4320, Note_on_c, 0, 49, 0
2, 4320, Note_on_c, 0, 54, 0
2, 4320, Note_on_c, 0, 61, 0
2, 4320, Note_on_c, 0, 51, 0
2, 4560, Note_on_c, 0, 61, 34
2, 4560, Note_on_c, 0, 53, 28
2, 4560, Note_on_c, 0, 49, 28
2, 4800, Note_on_c, 0, 49, 0
2, 4800, Note_on_c, 0, 53, 0
2, 4800, Note_on_c, 0, 61, 0
2, 5040, Note_on_c, 0, 53, 25
2, 5040, Note_on_c, 0, 61, 30
2, 5040, Note_on_c, 0, 49, 25
2, 5280, Note_on_c, 0, 49, 0
2, 5280, Note_on_c, 0, 61, 0
2, 5280, Note_on_c, 0, 53, 0
2, 5520, Note_on_c, 0, 61, 28
2, 5520, Note_on_c, 0, 53, 23
2, 5520, Note_on_c, 0, 49, 23
2, 5760, Note_on_c, 0, 49, 0
2, 5760, Note_on_c, 0, 53, 0
2, 5760, Note_on_c, 0, 61, 0
2, 6000, Note_on_c, 0, 49, 19
2, 6000, Note_on_c, 0, 61, 24
2, 6000, Note_on_c, 0, 53, 19
2, 6240, Note_on_c, 0, 53, 0
2, 6240, Note_on_c, 0, 61, 0
2, 6240, Note_on_c, 0, 49, 0
2, 6480, Note_on_c, 0, 61, 22
2, 6480, Note_on_c, 0, 53, 18
2, 6480, Note_on_c, 0, 49, 18
2, 6720, Note_on_c, 0, 49, 0
2, 6720, Note_on_c, 0, 53, 0
2, 6720, Note_on_c, 0, 61, 0
2, 8640, Note_on_c, 0, 54, 38
2, 8640, Note_on_c, 0, 58, 49
2, 8760, Note_on_c, 0, 58, 0
2, 8760, Note_on_c, 0, 54, 0
2, 8880, Note_on_c, 0, 54, 40
2, 8880, Note_on_c, 0, 58, 53
2, 9120, Note_on_c, 0, 60, 48
2, 9360, Note_on_c, 0, 60, 0
2, 9360, Note_on_c, 0, 63, 50
2, 9480, Note_on_c, 0, 63, 0
2, 9600, Note_on_c, 0, 58, 0
2, 9600, Note_on_c, 0, 54, 0
2, 9600, Note_on_c, 0, 58, 41
2, 9600, Note_on_c, 0, 54, 41
2, 9600, Note_on_c, 0, 63, 55
2, 9840, Note_on_c, 0, 63, 0
2, 9840, Note_on_c, 0, 60, 48
2, 10080, Note_on_c, 0, 60, 0
2, 10080, Note_on_c, 0, 54, 0
2, 10080, Note_on_c, 0, 58, 0
2, 10080, Note_on_c, 0, 53, 38
2, 10080, Note_on_c, 0, 56, 38
2, 10080, Note_on_c, 0, 61, 46
2, 10200, Note_on_c, 0, 61, 0
2, 10200, Note_on_c, 0, 56, 0
2, 10200, Note_on_c, 0, 53, 0
2, 10320, Note_on_c, 0, 53, 39
2, 10320, Note_on_c, 0, 61, 48
2, 10560, Note_on_c, 0, 61, 0
2, 10560, Note_on_c, 0, 60, 47
2, 10800, Note_on_c, 0, 60, 0
2, 10800, Note_on_c, 0, 56, 45
2, 11040, Note_on_c, 0, 56, 0
2, 11040, Note_on_c, 0, 53, 0
2, 11040, Note_on_c, 0, 53, 42
2, 11520, Note_on_c, 0, 53, 0
2, 11520, Note_on_c, 0, 51, 38
2, 11520, Note_on_c, 0, 54, 49
2, 11640, Note_on_c, 0, 54, 0
2, 11640, Note_on_c, 0, 51, 0
2, 11760, Note_on_c, 0, 51, 40
2, 11760, Note_on_c, 0, 54, 53
2, 12000, Note_on_c, 0, 58, 48
2, 12240, Note_on_c, 0, 58, 0
2, 12240, Note_on_c, 0, 60, 50
2, 12360, Note_on_c, 0, 60, 0
2, 12480, Note_on_c, 0, 54, 0
2, 12480, Note_on_c, 0, 51, 0
2, 12480, Note_on_c, 0, 54, 41
2, 12480, Note_on_c, 0, 51, 41
2, 12480, Note_on_c, 0, 60, 55
2, 12720, Note_on_c, 0, 60, 0
2, 12720, Note_on_c, 0, 56, 48
2, 12960, Note_on_c, 0, 56, 0
2, 12960, Note_on_c, 0, 51, 0
2, 12960, Note_on_c, 0, 54, 0
2, 12960, Note_on_c, 0, 56, 38
2, 12960, Note_on_c, 0, 61, 46
2, 13080, Note_on_c, 0, 61, 0
2, 13080, Note_on_c, 0, 56, 0
2, 13200, Note_on_c, 0, 53, 39
2, 13200, Note_on_c, 0, 61, 48
2, 13680, Note_on_c, 0, 61, 0
2, 13680, Note_on_c, 0, 60, 45
2, 13800, Note_on_c, 0, 60, 0
2, 13920, Note_on_c, 0, 53, 0
2, 13920, Note_on_c, 0, 53, 39
2, 13920, Note_on_c, 0, 60, 47
2, 14400, Note_on_c, 0, 60, 0
2, 14400, Note_on_c, 0, 53, 0
2, 14400, Note_on_c, 0, 54, 38
2, 14400, Note_on_c, 0, 58, 49
2, 14520, Note_on_c, 0, 58, 0
2, 14520, Note_on_c, 0, 54, 0
2, 14640, Note_on_c, 0, 54, 40
2, 14640, Note_on_c, 0, 58, 53
2, 14880, Note_on_c, 0, 60, 48
2, 15120, Note_on_c, 0, 60, 0
2, 15120, Note_on_c, 0, 63, 50
2, 15240, Note_on_c, 0, 63, 0
2, 15360, Note_on_c, 0, 58, 0
2, 15360, Note_on_c, 0, 54, 0
2, 15360, Note_on_c, 0, 58, 41
2, 15360, Note_on_c, 0, 54, 41
2, 15360, Note_on_c, 0, 63, 55
2, 15600, Note_on_c, 0, 63, 0
2, 15600, Note_on_c, 0, 60, 48
2, 15840, Note_on_c, 0, 60, 0
2, 15840, Note_on_c, 0, 54, 0
2, 15840, Note_on_c, 0, 58, 0
2, 15840, Note_on_c, 0, 53, 38
2, 15840, Note_on_c, 0, 56, 38
2, 15840, Note_on_c, 0, 61, 46
2, 15960, Note_on_c, 0, 61, 0
2, 15960, Note_on_c, 0, 56, 0
2, 15960, Note_on_c, 0, 53, 0
2, 16080, Note_on_c, 0, 53, 39
2, 16080, Note_on_c, 0, 61, 48
2, 16320, Note_on_c, 0, 61, 0
2, 16320, Note_on_c, 0, 60, 47
2, 16440, Note_on_c, 0, 60, 0
2, 16440, Note_on_c, 0, 61, 42
2, 16500, Note_on_c, 0, 61, 0
2, 16500, Note_on_c, 0, 60, 38
2, 16560, Note_on_c, 0, 60, 0
2, 16560, Note_on_c, 0, 56, 45
2, 16800, Note_on_c, 0, 56, 0
2, 16800, Note_on_c, 0, 53, 0
2, 16800, Note_on_c, 0, 53, 42
2, 17280, Note_on_c, 0, 53, 0
2, 17280, Note_on_c, 0, 58, 38
2, 17280, Note_on_c, 0, 54, 38
2, 17280, Note_on_c, 0, 63, 49
2, 17400, Note_on_c, 0, 63, 0
2, 17400, Note_on_c, 0, 54, 0
2, 17400, Note_on_c, 0, 58, 0
2, 17520, Note_on_c, 0, 63, 53
2, 17520, Note_on_c, 0, 54, 40
2, 17520, Note_on_c, 0, 58, 53
2, 17760, Note_on_c, 0, 63, 0
2, 17760, Note_on_c, 0, 65, 53
2, 18000, Note_on_c, 0, 65, 0
2, 18000, Note_on_c, 0, 66, 59
2, 18120, Note_on_c, 0, 66, 0
2, 18240, Note_on_c, 0, 58, 0
2, 18240, Note_on_c, 0, 54, 0
2, 18240, Note_on_c, 0, 58, 41
2, 18240, Note_on_c, 0, 66, 57
2, 18480, Note_on_c, 0, 66, 0
2, 18480, Note_on_c, 0, 58, 0
2, 18480, Note_on_c, 0, 60, 41
2, 18480, Note_on_c, 0, 65, 52
2, 18720, Note_on_c, 0, 65, 0
2, 18720, Note_on_c, 0, 60, 0
2, 18720, Note_on_c, 0, 53, 38
2, 18720, Note_on_c, 0, 61, 46
2, 20160, Note_on_c, 0, 61, 0
2, 20160, Note_on_c, 0, 53, 0
2, 20160, Note_on_c, 0, 59, 56
2, 20160, Note_on_c, 0, 62, 56
2, 20160, Note_on_c, 0, 65, 56
2, 20160, Note_on_c, 0, 68, 72
2, 20400, Note_on_c, 0, 68, 0
2, 20400, Note_on_c, 0, 59, 0
2, 20400, Note_on_c, 0, 62, 0
2, 20400, Note_on_c, 0, 65, 0
2, 20400, Note_on_c, 0, 59, 60
2, 20400, Note_on_c, 0, 62, 60
2, 20400, Note_on_c, 0, 65, 60
2, 20400, Note_on_c, 0, 68, 79
2, 20760, Note_on_c, 0, 68, 0
2, 20760, Note_on_c, 0, 70, 71
2, 20880, Note_on_c, 0, 70, 0
2, 20880, Note_on_c, 0, 68, 73
2, 21000, Note_on_c, 0, 68, 0
2, 21120, Note_on_c, 0, 59, 0
2, 21120, Note_on_c, 0, 62, 0
2, 21120, Note_on_c, 0, 65, 0
2, 21120, Note_on_c, 0, 62, 55
2, 21120, Note_on_c, 0, 59, 55
2, 21120, Note_on_c, 0, 66, 72
2, 21240, Note_on_c, 0, 66, 0
2, 21240, Note_on_c, 0, 59, 0
2, 21240, Note_on_c, 0, 62, 0
2, 21360, Note_on_c, 0, 59, 55
2, 21360, Note_on_c, 0, 62, 57
2, 21360, Note_on_c, 0, 65, 71
2, 21480, Note_on_c, 0, 65, 0
2, 21480, Note_on_c, 0, 62, 0
2, 21480, Note_on_c, 0, 59, 0
2, 21600, Note_on_c, 0, 66, 68
2, 21840, Note_on_c, 0, 66, 0
2, 21840, Note_on_c, 0, 58, 57
2, 21840, Note_on_c, 0, 63, 57
2, 21840, Note_on_c, 0, 66, 71
2, 22080, Note_on_c, 0, 66, 0
2, 22080, Note_on_c, 0, 63, 0
2, 22080, Note_on_c, 0, 58, 0
2, 22080, Note_on_c, 0, 65, 61
2, 22140, Note_on_c, 0, 65, 0
2, 22140, Note_on_c, 0, 66, 55
2, 22200, Note_on_c, 0, 66, 0
2, 22200, Note_on_c, 0, 65, 61
2, 22260, Note_on_c, 0, 65, 0
2, 22260, Note_on_c, 0, 63, 52
2, 22317, Note_on_c, 0, 63, 0
2, 22320, Note_on_c, 0, 63, 66
2, 22560, Note_on_c, 0, 58, 51
2, 22560, Note_on_c, 0, 54, 48
2, 23040, Note_on_c, 0, 54, 0
2, 23040, Note_on_c, 0, 58, 0
2, 23040, Note_on_c, 0, 63, 0
2, 23040, Note_on_c, 0, 57, 72
2, 23280, Note_on_c, 0, 65, 72
2, 23640, Note_on_c, 0, 65, 0
2, 23640, Note_on_c, 0, 63, 66
2, 23700, Note_on_c, 0, 63, 0
2, 23700, Note_on_c, 0, 65, 57
2, 23760, Note_on_c, 0, 65, 0
2, 23760, Note_on_c, 0, 63, 73
2, 24000, Note_on_c, 0, 63, 0
2, 24000, Note_on_c, 0, 57, 0
2, 24000, Note_on_c, 0, 65, 57
2, 24000, Note_on_c, 0, 57, 55
2, 24000, Note_on_c, 0, 61, 69
2, 24240, Note_on_c, 0, 61, 0
2, 24240, Note_on_c, 0, 60, 69
2, 24480, Note_on_c, 0, 60, 0
2, 24480, Note_on_c, 0, 57, 0
2, 24480, Note_on_c, 0, 65, 0
2, 24480, Note_on_c, 0, 61, 68
2, 24600, Note_on_c, 0, 61, 0
2, 24720, Note_on_c, 0, 65, 52
2, 24720, Note_on_c, 0, 58, 52
2, 24720, Note_on_c, 0, 61, 71
2, 25200, Note_on_c, 0, 61, 0
2, 25200, Note_on_c, 0, 58, 0
2, 25200, Note_on_c, 0, 65, 0
2, 25200, Note_on_c, 0, 60, 66
2, 25320, Note_on_c, 0, 60, 0
2, 25440, Note_on_c, 0, 65, 53
2, 25440, Note_on_c, 0, 56, 51
2, 25440, Note_on_c, 0, 60, 69
2, 25920, Note_on_c, 0, 60, 0
2, 25920, Note_on_c, 0, 56, 0
2, 25920, Note_on_c, 0, 65, 0
2, 25920, Note_on_c, 0, 59, 56
2, 25920, Note_on_c, 0, 62, 56
2, 25920, Note_on_c, 0, 65, 56
2, 25920, Note_on_c, 0, 68, 72
2, 26160, Note_on_c, 0, 68, 0
2, 26160, Note_on_c, 0, 59, 0
2, 26160, Note_on_c, 0, 62, 0
2, 26160, Note_on_c, 0, 65, 0
2, 26160, Note_on_c, 0, 59, 60
2, 26160, Note_on_c, 0, 62, 60
2, 26160, Note_on_c, 0, 65, 60
2, 26160, Note_on_c, 0, 68, 79
2, 26520, Note_on_c, 0, 68, 0
2, 26520, Note_on_c, 0, 70, 71
2, 26640, Note_on_c, 0, 70, 0
2, 26640, Note_on_c, 0, 68, 73
2, 26760, Note_on_c, 0, 68, 0
2, 26880, Note_on_c, 0, 59, 0
2, 26880, Note_on_c, 0, 62, 0
2, 26880, Note_on_c, 0, 65, 0
2, 26880, Note_on_c, 0, 62, 55
2, 26880, Note_on_c, 0, 59, 55
2, 26880, Note_on_c, 0, 66, 72
2, 27000, Note_on_c, 0, 66, 0
2, 27000, Note_on_c, 0, 59, 0
2, 27000, Note_on_c, 0, 62, 0
2, 27120, Note_on_c, 0, 59, 55
2, 27120, Note_on_c, 0, 62, 57
2, 27120, Note_on_c, 0, 65, 71
2, 27240, Note_on_c, 0, 65, 0
2, 27240, Note_on_c, 0, 62, 0
2, 27240, Note_on_c, 0, 59, 0
2, 27360, Note_on_c, 0, 66, 68
2, 27600, Note_on_c, 0, 66, 0
2, 27600, Note_on_c, 0, 58, 57
2, 27600, Note_on_c, 0, 63, 57
2, 27600, Note_on_c, 0, 66, 71
2, 27840, Note_on_c, 0, 66, 0
2, 27840, Note_on_c, 0, 63, 0
2, 27840, Note_on_c, 0, 58, 0
2, 27840, Note_on_c, 0, 65, 61
2, 27900, Note_on_c, 0, 65, 0
2, 27900, Note_on_c, 0, 66, 55
2, 27960, Note_on_c, 0, 66, 0
2, 27960, Note_on_c, 0, 65, 61
2, 28020, Note_on_c, 0, 65, 0
2, 28020, Note_on_c, 0, 63, 52
2, 28077, Note_on_c, 0, 63, 0
2, 28080, Note_on_c, 0, 63, 66
2, 28320, Note_on_c, 0, 58, 51
2, 28320, Note_on_c, 0, 54, 48
2, 28800, Note_on_c, 0, 54, 0
2, 28800, Note_on_c, 0, 58, 0
2, 28800, Note_on_c, 0, 63, 0
2, 28800, Note_on_c, 0, 57, 72
2, 29040, Note_on_c, 0, 65, 73
2, 29400, Note_on_c, 0, 65, 0
2, 29400, Note_on_c, 0, 63, 66
2, 29460, Note_on_c, 0, 63, 0
2, 29460, Note_on_c, 0, 65, 57
2, 29520, Note_on_c, 0, 65, 0
2, 29520, Note_on_c, 0, 63, 73
2, 29760, Note_on_c, 0, 63, 0
2, 29760, Note_on_c, 0, 57, 0
2, 29760, Note_on_c, 0, 65, 57
2, 29760, Note_on_c, 0, 57, 55
2, 29760, Note_on_c, 0, 61, 69
2, 30000, Note_on_c, 0, 61, 0
2, 30000, Note_on_c, 0, 60, 69
2, 30240, Note_on_c, 0, 60, 0
2, 30240, Note_on_c, 0, 57, 0
2, 30240, Note_on_c, 0, 65, 0
2, 30240, Note_on_c, 0, 61, 68
2, 30360, Note_on_c, 0, 61, 0
2, 30480, Note_on_c, 0, 65, 52
2, 30480, Note_on_c, 0, 58, 52
2, 30480, Note_on_c, 0, 61, 71
2, 30960, Note_on_c, 0, 61, 0
2, 30960, Note_on_c, 0, 58, 0
2, 30960, Note_on_c, 0, 65, 0
2, 30960, Note_on_c, 0, 60, 66
2, 31080, Note_on_c, 0, 60, 0
2, 31200, Note_on_c, 0, 65, 53
2, 31200, Note_on_c, 0, 56, 51
2, 31200, Note_on_c, 0, 60, 69
2, 31680, Note_on_c, 0, 60, 0
2, 31680, Note_on_c, 0, 56, 0
2, 31680, Note_on_c, 0, 65, 0
2, 31680, Note_on_c, 0, 66, 50
2, 31680, Note_on_c, 0, 70, 64
2, 31800, Note_on_c, 0, 70, 0
2, 31800, Note_on_c, 0, 66, 0
2, 31920, Note_on_c, 0, 66, 52
2, 31920, Note_on_c, 0, 70, 69
2, 32160, Note_on_c, 0, 72, 62
2, 32400, Note_on_c, 0, 72, 0
2, 32400, Note_on_c, 0, 75, 66
2, 32520, Note_on_c, 0, 75, 0
2, 32640, Note_on_c, 0, 70, 0
2, 32640, Note_on_c, 0, 66, 0
2, 32640, Note_on_c, 0, 70, 53
2, 32640, Note_on_c, 0, 66, 53
2, 32640, Note_on_c, 0, 75, 72
2, 32880, Note_on_c, 0, 75, 0
2, 32880, Note_on_c, 0, 72, 62
2, 33120, Note_on_c, 0, 72, 0
2, 33120, Note_on_c, 0, 66, 0
2, 33120, Note_on_c, 0, 70, 0
2, 33120, Note_on_c, 0, 65, 50
2, 33120, Note_on_c, 0, 68, 50
2, 33120, Note_on_c, 0, 73, 60
2, 33240, Note_on_c, 0, 73, 0
2, 33240, Note_on_c, 0, 68, 0
2, 33240, Note_on_c, 0, 65, 0
2, 33360, Note_on_c, 0, 68, 51
2, 33360, Note_on_c, 0, 65, 51
2, 33360, Note_on_c, 0, 73, 62
2, 33600, Note_on_c, 0, 73, 0
2, 33600, Note_on_c, 0, 72, 56
2, 33680, Note_on_c, 0, 72, 0
2, 33680, Note_on_c, 0, 73, 52
2, 33760, Note_on_c, 0, 73, 0
2, 33760, Note_on_c, 0, 72, 52
2, 33840, Note_on_c, 0, 72, 0
2, 33840, Note_on_c, 0, 65, 0
2, 33840, Note_on_c, 0, 68, 0
2, 33840, Note_on_c, 0, 68, 58
2, 34080, Note_on_c, 0, 65, 55
2, 34560, Note_on_c, 0, 65, 0
2, 34560, Note_on_c, 0, 68, 0
2, 34560, Note_on_c, 0, 63, 50
2, 34560, Note_on_c, 0, 66, 64
2, 34680, Note_on_c, 0, 66, 0
2, 34680, Note_on_c, 0, 63, 0
2, 34800, Note_on_c, 0, 63, 52
2, 34800, Note_on_c, 0, 66, 69
2, 35040, Note_on_c, 0, 70, 62
2, 35280, Note_on_c, 0, 70, 0
2, 35280, Note_on_c, 0, 72, 66
2, 35400, Note_on_c, 0, 72, 0
2, 35520, Note_on_c, 0, 66, 0
2, 35520, Note_on_c, 0, 63, 0
2, 35520, Note_on_c, 0, 66, 53
2, 35520, Note_on_c, 0, 63, 53
2, 35520, Note_on_c, 0, 72, 69
2, 35760, Note_on_c, 0, 72, 0
2, 35760, Note_on_c, 0, 68, 62
2, 36000, Note_on_c, 0, 68, 0
2, 36000, Note_on_c, 0, 63, 0
2, 36000, Note_on_c, 0, 66, 0
2, 36000, Note_on_c, 0, 65, 50
2, 36000, Note_on_c, 0, 73, 60
2, 36120, Note_on_c, 0, 73, 0
2, 36120, Note_on_c, 0, 65, 0
2, 36240, Note_on_c, 0, 68, 51
2, 36240, Note_on_c, 0, 65, 51
2, 36240, Note_on_c, 0, 73, 62
2, 36720, Note_on_c, 0, 73, 0
2, 36720, Note_on_c, 0, 72, 58
2, 36840, Note_on_c, 0, 72, 0
2, 36960, Note_on_c, 0, 65, 0
2, 36960, Note_on_c, 0, 68, 0
2, 36960, Note_on_c, 0, 68, 51
2, 36960, Note_on_c, 0, 65, 51
2, 36960, Note_on_c, 0, 72, 61
2, 37440, Note_on_c, 0, 72, 0
2, 37440, Note_on_c, 0, 65, 0
2, 37440, Note_on_c, 0, 68, 0
2, 37440, Note_on_c, 0, 66, 50
2, 37440, Note_on_c, 0, 70, 64
2, 37560, Note_on_c, 0, 70, 0
2, 37560, Note_on_c, 0, 66, 0
2, 37680, Note_on_c, 0, 66, 52
2, 37680, Note_on_c, 0, 70, 69
2, 37920, Note_on_c, 0, 72, 62
2, 38160, Note_on_c, 0, 72, 0
2, 38160, Note_on_c, 0, 75, 66
2, 38280, Note_on_c, 0, 75, 0
2, 38400, Note_on_c, 0, 70, 0
2, 38400, Note_on_c, 0, 66, 0
2, 38400, Note_on_c, 0, 70, 53
2, 38400, Note_on_c, 0, 66, 53
2, 38400, Note_on_c, 0, 75, 71
2, 38640, Note_on_c, 0, 75, 0
2, 38640, Note_on_c, 0, 72, 62
2, 38880, Note_on_c, 0, 72, 0
2, 38880, Note_on_c, 0, 66, 0
2, 38880, Note_on_c, 0, 70, 0
2, 38880, Note_on_c, 0, 65, 50
2, 38880, Note_on_c, 0, 68, 50
2, 38880, Note_on_c, 0, 73, 60
2, 39000, Note_on_c, 0, 73, 0
2, 39000, Note_on_c, 0, 68, 0
2, 39000, Note_on_c, 0, 65, 0
2, 39120, Note_on_c, 0, 68, 51
2, 39120, Note_on_c, 0, 65, 51
2, 39120, Note_on_c, 0, 73, 62
2, 39360, Note_on_c, 0, 73, 0
2, 39360, Note_on_c, 0, 72, 56
2, 39440, Note_on_c, 0, 72, 0
2, 39440, Note_on_c, 0, 73, 52
2, 39520, Note_on_c, 0, 73, 0
2, 39520, Note_on_c, 0, 72, 52
2, 39600, Note_on_c, 0, 72, 0
2, 39600, Note_on_c, 0, 65, 0
2, 39600, Note_on_c, 0, 68, 0
2, 39600, Note_on_c, 0, 68, 58
2, 39840, Note_on_c, 0, 65, 55
2, 40320, Note_on_c, 0, 65, 0
2, 40320, Note_on_c, 0, 68, 0
2, 40320, Note_on_c, 0, 70, 50
2, 40320, Note_on_c, 0, 66, 50
2, 40320, Note_on_c, 0, 75, 64
2, 40440, Note_on_c, 0, 75, 0
2, 40440, Note_on_c, 0, 66, 0
2, 40440, Note_on_c, 0, 70, 0
2, 40560, Note_on_c, 0, 70, 52
2, 40560, Note_on_c, 0, 66, 52
2, 40560, Note_on_c, 0, 75, 70
2, 40800, Note_on_c, 0, 75, 0
2, 40800, Note_on_c, 0, 77, 70
2, 41040, Note_on_c, 0, 77, 0
2, 41040, Note_on_c, 0, 78, 72
2, 41160, Note_on_c, 0, 78, 0
2, 41280, Note_on_c, 0, 66, 0
2, 41280, Note_on_c, 0, 70, 0
2, 41280, Note_on_c, 0, 70, 53
2, 41280, Note_on_c, 0, 78, 72
2, 41520, Note_on_c, 0, 78, 0
2, 41520, Note_on_c, 0, 70, 0
2, 41520, Note_on_c, 0, 68, 51
2, 41520, Note_on_c, 0, 77, 66
2, 41760, Note_on_c, 0, 77, 0
2, 41760, Note_on_c, 0, 68, 0
2, 41760, Note_on_c, 0, 65, 50
2, 41760, Note_on_c, 0, 73, 60
2, 42360, Note_on_c, 0, 65, 37
2, 42420, Note_on_c, 0, 65, 0
2, 42480, Note_on_c, 0, 65, 0
2, 42480, Note_on_c, 0, 73, 0
2, 42480, Note_on_c, 0, 73, 51
2, 42720, Note_on_c, 0, 65, 40
2, 42960, Note_on_c, 0, 65, 0
2, 43200, Note_on_c, 0, 73, 0
2, 43200, Note_on_c, 0, 73, 46
2, 43200, Note_on_c, 0, 78, 46
2, 43200, Note_on_c, 0, 82, 55
2, 43320, Note_on_c, 0, 82, 0
2, 43320, Note_on_c, 0, 78, 0
2, 43320, Note_on_c, 0, 73, 0
2, 43440, Note_on_c, 0, 73, 47
2, 43440, Note_on_c, 0, 78, 47
2, 43440, Note_on_c, 0, 82, 57
2, 43920, Note_on_c, 0, 82, 0
2, 43920, Note_on_c, 0, 78, 0
2, 43920, Note_on_c, 0, 73, 0
2, 43920, Note_on_c, 0, 72, 47
2, 43920, Note_on_c, 0, 75, 47
2, 43920, Note_on_c, 0, 80, 53
2, 44040, Note_on_c, 0, 80, 0
2, 44040, Note_on_c, 0, 75, 0
2, 44040, Note_on_c, 0, 72, 0
2, 44160, Note_on_c, 0, 72, 47
2, 44160, Note_on_c, 0, 75, 47
2, 44160, Note_on_c, 0, 80, 56
2, 44640, Note_on_c, 0, 80, 0
2, 44640, Note_on_c, 0, 75, 0
2, 44640, Note_on_c, 0, 72, 0
2, 44640, Note_on_c, 0, 77, 55
2, 44640, Note_on_c, 0, 70, 46
2, 44640, Note_on_c, 0, 73, 46
2, 44760, Note_on_c, 0, 73, 0
2, 44760, Note_on_c, 0, 70, 0
2, 44760, Note_on_c, 0, 77, 0
2, 44880, Note_on_c, 0, 70, 47
2, 44880, Note_on_c, 0, 73, 47
2, 44880, Note_on_c, 0, 77, 57
2, 45360, Note_on_c, 0, 77, 0
2, 45360, Note_on_c, 0, 73, 0
2, 45360, Note_on_c, 0, 70, 0
2, 45360, Note_on_c, 0, 71, 47
2, 45360, Note_on_c, 0, 77, 47
2, 45360, Note_on_c, 0, 80, 53
2, 45480, Note_on_c, 0, 80, 0
2, 45480, Note_on_c, 0, 82, 51
2, 45600, Note_on_c, 0, 82, 0
2, 45600, Note_on_c, 0, 77, 0
2, 45600, Note_on_c, 0, 71, 0
2, 45600, Note_on_c, 0, 80, 53
2, 45600, Note_on_c, 0, 71, 47
2, 45606, Note_on_c, 0, 77, 47
2, 45720, Note_on_c, 0, 80, 0
2, 45720, Note_on_c, 0, 78, 50
2, 45780, Note_on_c, 0, 78, 0
2, 45780, Note_on_c, 0, 80, 50
2, 45840, Note_on_c, 0, 80, 0
2, 45840, Note_on_c, 0, 78, 53
2, 45960, Note_on_c, 0, 78, 0
2, 45960, Note_on_c, 0, 77, 51
2, 46080, Note_on_c, 0, 77, 0
2, 46080, Note_on_c, 0, 71, 0
2, 46080, Note_on_c, 0, 70, 46
2, 46080, Note_on_c, 0, 75, 46
2, 46080, Note_on_c, 0, 78, 55
2, 46086, Note_on_c, 0, 77, 0
2, 46200, Note_on_c, 0, 70, 0
2, 46200, Note_on_c, 0, 75, 0
2, 46200, Note_on_c, 0, 78, 0
2, 46320, Note_on_c, 0, 70, 47
2, 46320, Note_on_c, 0, 75, 47
2, 46320, Note_on_c, 0, 78, 57
2, 46800, Note_on_c, 0, 78, 0
2, 46800, Note_on_c, 0, 75, 0
2, 46800, Note_on_c, 0, 70, 0
2, 46800, Note_on_c, 0, 68, 47
2, 46800, Note_on_c, 0, 72, 47
2, 46800, Note_on_c, 0, 77, 53
2, 46920, Note_on_c, 0, 77, 0
2, 46920, Note_on_c, 0, 72, 0
2, 46920, Note_on_c, 0, 68, 0
2, 47040, Note_on_c, 0, 68, 47
2, 47040, Note_on_c, 0, 72, 47
2, 47040, Note_on_c, 0, 77, 56
2, 47520, Note_on_c, 0, 77, 0
2, 47520, Note_on_c, 0, 72, 0
2, 47520, Note_on_c, 0, 68, 0
2, 47520, Note_on_c, 0, 73, 55
2, 47520, Note_on_c, 0, 65, 46
2, 47520, Note_on_c, 0, 68, 46
2, 47640, Note_on_c, 0, 68, 0
2, 47640, Note_on_c, 0, 65, 0
2, 47640, Note_on_c, 0, 73, 0
2, 47760, Note_on_c, 0, 65, 47
2, 47760, Note_on_c, 0, 68, 47
2, 47760, Note_on_c, 0, 73, 57
2, 48240, Note_on_c, 0, 73, 0
2, 48240, Note_on_c, 0, 68, 0
2, 48240, Note_on_c, 0, 65, 0
2, 48480, Note_on_c, 0, 61, 56
2, 48480, Note_on_c, 0, 65, 62
2, 48600, Note_on_c, 0, 65, 0
2, 48600, Note_on_c, 0, 61, 0
2, 48720, Note_on_c, 0, 61, 52
2, 48720, Note_on_c, 0, 65, 52
2, 48720, Note_on_c, 0, 68, 59
2, 48840, Note_on_c, 0, 68, 0
2, 48840, Note_on_c, 0, 65, 0
2, 48840, Note_on_c, 0, 61, 0
2, 48960, Note_on_c, 0, 61, 55
2, 48960, Note_on_c, 0, 66, 55
2, 48960, Note_on_c, 0, 70, 66
2, 49080, Note_on_c, 0, 70, 0
2, 49080, Note_on_c, 0, 66, 0
2, 49080, Note_on_c, 0, 61, 0
2, 49200, Note_on_c, 0, 61, 56
2, 49200, Note_on_c, 0, 66, 56
2, 49200, Note_on_c, 0, 70, 68
2, 49680, Note_on_c, 0, 70, 0
2, 49680, Note_on_c, 0, 66, 0
2, 49680, Note_on_c, 0, 61, 0
2, 49680, Note_on_c, 0, 60, 57
2, 49680, Note_on_c, 0, 63, 57
2, 49680, Note_on_c, 0, 68, 64
2, 49800, Note_on_c, 0, 68, 0
2, 49800, Note_on_c, 0, 63, 0
2, 49800, Note_on_c, 0, 60, 0
2, 49920, Note_on_c, 0, 60, 58
2, 49920, Note_on_c, 0, 63, 58
2, 49920, Note_on_c, 0, 68, 70
2, 50400, Note_on_c, 0, 68, 0
2, 50400, Note_on_c, 0, 63, 0
2, 50400, Note_on_c, 0, 60, 0
2, 50400, Note_on_c, 0, 65, 70
2, 50400, Note_on_c, 0, 61, 58
2, 50520, Note_on_c, 0, 61, 0
2, 50520, Note_on_c, 0, 65, 0
2, 50640, Note_on_c, 0, 61, 58
2, 50640, Note_on_c, 0, 65, 71
2, 51120, Note_on_c, 0, 65, 0
2, 51120, Note_on_c, 0, 61, 0
2, 51120, Note_on_c, 0, 62, 63
2, 51120, Note_on_c, 0, 68, 72
2, 51240, Note_on_c, 0, 68, 0
2, 51240, Note_on_c, 0, 70, 70
2, 51360, Note_on_c, 0, 70, 0
2, 51360, Note_on_c, 0, 62, 0
2, 51360, Note_on_c, 0, 68, 72
2, 51366, Note_on_c, 0, 62, 63
2, 51480, Note_on_c, 0, 68, 0
2, 51480, Note_on_c, 0, 66, 69
2, 51540, Note_on_c, 0, 66, 0
2, 51540, Note_on_c, 0, 68, 64
2, 51600, Note_on_c, 0, 68, 0
2, 51600, Note_on_c, 0, 66, 69
2, 51720, Note_on_c, 0, 66, 0
2, 51720, Note_on_c, 0, 65, 66
2, 51840, Note_on_c, 0, 65, 0
2, 51840, Note_on_c, 0, 61, 57
2, 51840, Note_on_c, 0, 66, 64
2, 51846, Note_on_c, 0, 62, 0
2, 51960, Note_on_c, 0, 66, 0
2, 51960, Note_on_c, 0, 61, 0
2, 52080, Note_on_c, 0, 61, 58
2, 52080, Note_on_c, 0, 66, 64
2, 52560, Note_on_c, 0, 66, 0
2, 52560, Note_on_c, 0, 61, 0
2, 52560, Note_on_c, 0, 60, 46
2, 52560, Note_on_c, 0, 65, 53
2, 52680, Note_on_c, 0, 65, 0
2, 52680, Note_on_c, 0, 60, 0
2, 52800, Note_on_c, 0, 60, 44
2, 52800, Note_on_c, 0, 65, 52
2, 53280, Note_on_c, 0, 65, 0
2, 53280, Note_on_c, 0, 60, 0
2, 53280, Note_on_c, 0, 61, 46
2, 53280, Note_on_c, 0, 53, 38
2, 53520, Note_on_c, 0, 53, 0
2, 53520, Note_on_c, 0, 61, 0
2, 53880, Note_on_c, 0, 65, 30
2, 54000, Note_on_c, 0, 73, 41
2, 54720, Note_on_c, 0, 73, 0
2, 54720, Note_on_c, 0, 65, 0
2, 54960, Note_on_c, 0, 58, 36
2, 54960, Note_on_c, 0, 54, 29
2, 54960, Note_on_c, 0, 49, 29
2, 55200, Note_on_c, 0, 49, 0
2, 55200, Note_on_c, 0, 54, 0
2, 55200, Note_on_c, 0, 58, 0
2, 55320, Note_on_c, 0, 49, 24
2, 55320, Note_on_c, 0, 54, 24
2, 55320, Note_on_c, 0, 58, 29
2, 55440, Note_on_c, 0, 58, 0
2, 55440, Note_on_c, 0, 54, 0
2, 55440, Note_on_c, 0, 49, 0
2, 55680, Note_on_c, 0, 61, 36
2, 55680, Note_on_c, 0, 58, 29
2, 55680, Note_on_c, 0, 54, 29
2, 55680, Note_on_c, 0, 49, 29
2, 55920, Note_on_c, 0, 49, 0
2, 55920, Note_on_c, 0, 61, 0
2, 55920, Note_on_c, 0, 58, 0
2, 55920, Note_on_c, 0, 54, 0
2, 56040, Note_on_c, 0, 61, 29
2, 56040, Note_on_c, 0, 58, 25
2, 56040, Note_on_c, 0, 54, 25
2, 56040, Note_on_c, 0, 49, 25
2, 56160, Note_on_c, 0, 49, 0
2, 56160, Note_on_c, 0, 61, 0
2, 56160, Note_on_c, 0, 58, 0
2, 56160, Note_on_c, 0, 54, 0
2, 56400, Note_on_c, 0, 56, 37
2, 56400, Note_on_c, 0, 53, 30
2, 56400, Note_on_c, 0, 49, 30
2, 56640, Note_on_c, 0, 49, 0
2, 56640, Note_on_c, 0, 53, 0
2, 56640, Note_on_c, 0, 56, 0
2, 56760, Note_on_c, 0, 49, 25
2, 56760, Note_on_c, 0, 53, 25
2, 56760, Note_on_c, 0, 56, 29
2, 56880, Note_on_c, 0, 56, 0
2, 56880, Note_on_c, 0, 53, 0
2, 56880, Note_on_c, 0, 49, 0
2, 57120, Note_on_c, 0, 61, 36
2, 57120, Note_on_c, 0, 53, 29
2, 57120, Note_on_c, 0, 49, 29
2, 57360, Note_on_c, 0, 49, 0
2, 57360, Note_on_c, 0, 53, 0
2, 57360, Note_on_c, 0, 61, 0
2, 57480, Note_on_c, 0, 61, 29
2, 57480, Note_on_c, 0, 53, 24
2, 57480, Note_on_c, 0, 49, 24
2, 57600, Note_on_c, 0, 49, 0
2, 57600, Note_on_c, 0, 53, 0
2, 57600, Note_on_c, 0, 61, 0
2, 57840, Note_on_c, 0, 54, 37
2, 57840, Note_on_c, 0, 51, 30
2, 57840, Note_on_c, 0, 49, 30
2, 58080, Note_on_c, 0, 49, 0
2, 58080, Note_on_c, 0, 51, 0
2, 58080, Note_on_c, 0, 54, 0
2, 58200, Note_on_c, 0, 49, 25
2, 58200, Note_on_c, 0, 51, 25
2, 58200, Note_on_c, 0, 54, 29
2, 58320, Note_on_c, 0, 54, 0
2, 58320, Note_on_c, 0, 51, 0
2, 58320, Note_on_c, 0, 49, 0
2, 58560, Note_on_c, 0, 61, 37
2, 58560, Note_on_c, 0, 54, 30
2, 58560, Note_on_c, 0, 51, 30
2, 58560, Note_on_c, 0, 49, 30
2, 58800, Note_on_c, 0, 49, 0
2, 58800, Note_on_c, 0, 61, 0
2, 58800, Note_on_c, 0, 54, 0
2, 58800, Note_on_c, 0, 51, 0
2, 58920, Note_on_c, 0, 61, 29
2, 58920, Note_on_c, 0, 54, 25
2, 58920, Note_on_c, 0, 51, 25
2, 58920, Note_on_c, 0, 49, 25
2, 59040, Note_on_c, 0, 49, 0
2, 59040, Note_on_c, 0, 61, 0
2, 59040, Note_on_c, 0, 54, 0
2, 59040, Note_on_c, 0, 51, 0
2, 59280, Note_on_c, 0, 61, 34
2, 59280, Note_on_c, 0, 53, 28
2, 59280, Note_on_c, 0, 49, 28
2, 59520, Note_on_c, 0, 49, 0
2, 59520, Note_on_c, 0, 53, 0
2, 59520, Note_on_c, 0, 61, 0
2, 59760, Note_on_c, 0, 61, 30
2, 59760, Note_on_c, 0, 53, 25
2, 59760, Note_on_c, 0, 49, 25
2, 60000, Note_on_c, 0, 49, 0
2, 60000, Note_on_c, 0, 53, 0
2, 60000, Note_on_c, 0, 61, 0
2, 60240, Note_on_c, 0, 61, 28
2, 60240, Note_on_c, 0, 53, 23
2, 60240, Note_on_c, 0, 49, 23
2, 60480, Note_on_c, 0, 49, 0
2, 60480, Note_on_c, 0, 53, 0
2, 60480, Note_on_c, 0, 61, 0
2, 60720, Note_on_c, 0, 61, 24
2, 60720, Note_on_c, 0, 53, 19
2, 60720, Note_on_c, 0, 49, 19
2, 60960, Note_on_c, 0, 49, 0
2, 60960, Note_on_c, 0, 53, 0
2, 60960, Note_on_c, 0, 61, 0
2, 61200, Note_on_c, 0, 61, 22
2, 61200, Note_on_c, 0, 53, 18
2, 61200, Note_on_c, 0, 49, 18
2, 61440, Note_on_c, 0, 49, 0
2, 61440, Note_on_c, 0, 53, 0
2, 61440, Note_on_c, 0, 61, 0
2, 61440, End_track
3, 0, Start_track
3, 0, MIDI_port, 0
3, 0, Title_t, "Piano left"
3, 0, Program_c, 0, 0
3, 0, Control_c, 0, 7, 100
3, 0, Note_on_c, 0, 44, 29
3, 0, Note_on_c, 0, 49, 35
3, 14, Control_c, 0, 64, 127
3, 240, Note_on_c, 0, 49, 0
3, 240, Note_on_c, 0, 44, 0
3, 480, Note_on_c, 0, 44, 26
3, 480, Note_on_c, 0, 49, 31
3, 600, Note_on_c, 0, 49, 0
3, 600, Note_on_c, 0, 44, 0
3, 720, Control_c, 0, 64, 0
3, 720, Note_on_c, 0, 44, 29
3, 720, Note_on_c, 0, 49, 35
3, 762, Control_c, 0, 64, 127
3, 960, Note_on_c, 0, 49, 0
3, 960, Note_on_c, 0, 44, 0
3, 1200, Note_on_c, 0, 44, 27
3, 1200, Note_on_c, 0, 49, 33
3, 1320, Note_on_c, 0, 49, 0
3, 1320, Note_on_c, 0, 44, 0
3, 1341, Control_c, 0, 64, 0
3, 1440, Note_on_c, 0, 44, 29
3, 1440, Note_on_c, 0, 49, 35
3, 1518, Control_c, 0, 64, 127
3, 1680, Note_on_c, 0, 49, 0
3, 1680, Note_on_c, 0, 44, 0
3, 1920, Note_on_c, 0, 44, 26
3, 1920, Note_on_c, 0, 49, 31
3, 2040, Note_on_c, 0, 49, 0
3, 2040, Note_on_c, 0, 44, 0
3, 2146, Control_c, 0, 64, 0
3, 2160, Note_on_c, 0, 44, 29
3, 2160, Note_on_c, 0, 49, 35
3, 2202, Control_c, 0, 64, 127
3, 2400, Note_on_c, 0, 49, 0
3, 2400, Note_on_c, 0, 44, 0
3, 2640, Note_on_c, 0, 44, 26
3, 2640, Note_on_c, 0, 49, 31
3, 2760, Note_on_c, 0, 49, 0
3, 2760, Note_on_c, 0, 44, 0
3, 2781, Control_c, 0, 64, 0
3, 2880, Note_on_c, 0, 44, 29
3, 2880, Note_on_c, 0, 49, 35
3, 2931, Control_c, 0, 64, 127
3, 3120, Note_on_c, 0, 49, 0
3, 3120, Note_on_c, 0, 44, 0
3, 3360, Note_on_c, 0, 44, 27
3, 3360, Note_on_c, 0, 49, 33
3, 3480, Note_on_c, 0, 49, 0
3, 3480, Note_on_c, 0, 44, 0
3, 3575, Control_c, 0, 64, 0
3, 3600, Note_on_c, 0, 44, 29
3, 3600, Note_on_c, 0, 49, 35
3, 3625, Control_c, 0, 64, 127
3, 3840, Note_on_c, 0, 49, 0
3, 3840, Note_on_c, 0, 44, 0
3, 4080, Note_on_c, 0, 44, 27
3, 4080, Note_on_c, 0, 49, 33
3, 4200, Note_on_c, 0, 49, 0
3, 4200, Note_on_c, 0, 44, 0
3, 4238, Control_c, 0, 64, 0
3, 4320, Note_on_c, 0, 44, 29
3, 4320, Note_on_c, 0, 49, 35
3, 4440, Control_c, 0, 64, 127
3, 4560, Note_on_c, 0, 49, 0
3, 4560, Note_on_c, 0, 44, 0
3, 4800, Note_on_c, 0, 44, 26
3, 4800, Note_on_c, 0, 49, 30
3, 5040, Note_on_c, 0, 49, 0
3, 5040, Note_on_c, 0, 44, 0
3, 5280, Note_on_c, 0, 44, 23
3, 5280, Note_on_c, 0, 49, 28
3, 5520, Note_on_c, 0, 49, 0
3, 5520, Note_on_c, 0, 44, 0
3, 5760, Note_on_c, 0, 44, 20
3, 5760, Note_on_c, 0, 49, 26
3, 5800, Control_c, 0, 64, 0
3, 5840, Control_c, 0, 64, 127
3, 6000, Note_on_c, 0, 49, 0
3, 6000, Note_on_c, 0, 44, 0
3, 6240, Note_on_c, 0, 44, 19
3, 6240, Note_on_c, 0, 49, 23
3, 6480, Note_on_c, 0, 49, 0
3, 6480, Note_on_c, 0, 44, 0
3, 6720, Note_on_c, 0, 44, 17
3, 6720, Note_on_c, 0, 49, 19
3, 6960, Note_on_c, 0, 49, 0
3, 6960, Note_on_c, 0, 44, 0
3, 8440, Control_c, 0, 64, 0
3, 8640, Note_on_c, 0, 44, 34
3, 8640, Note_on_c, 0, 49, 41
3, 8852, Control_c, 0, 64, 127
3, 8880, Note_on_c, 0, 56, 33
3, 8900, Note_on_c, 0, 49, 0
3, 8900, Note_on_c, 0, 44, 0
3, 9120, Note_on_c, 0, 56, 0
3, 9120, Note_on_c, 0, 44, 31
3, 9120, Note_on_c, 0, 49, 38
3, 9240, Note_on_c, 0, 49, 0
3, 9240, Note_on_c, 0, 44, 0
3, 9240, Note_on_c, 0, 56, 34
3, 9296, Control_c, 0, 64, 0
3, 9360, Note_on_c, 0, 56, 0
3, 9360, Note_on_c, 0, 44, 34
3, 9360, Note_on_c, 0, 49, 41
3, 9600, Control_c, 0, 64, 127
3, 9600, Note_on_c, 0, 56, 34
3, 9620, Note_on_c, 0, 49, 0
3, 9620, Note_on_c, 0, 44, 0
3, 9840, Note_on_c, 0, 56, 0
3, 9840, Note_on_c, 0, 44, 31
3, 9840, Note_on_c, 0, 49, 38
3, 9960, Note_on_c, 0, 49, 0
3, 9960, Note_on_c, 0, 44, 0
3, 9960, Note_on_c, 0, 56, 33
3, 10016, Control_c, 0, 64, 0
3, 10080, Note_on_c, 0, 56, 0
3, 10080, Note_on_c, 0, 44, 34
3, 10080, Note_on_c, 0, 49, 41
3, 10306, Control_c, 0, 64, 127
3, 10320, Note_on_c, 0, 56, 33
3, 10340, Note_on_c, 0, 49, 0
3, 10340, Note_on_c, 0, 44, 0
3, 10560, Note_on_c, 0, 56, 0
3, 10560, Note_on_c, 0, 44, 31
3, 10560, Note_on_c, 0, 49, 39
3, 10680, Note_on_c, 0, 49, 0
3, 10680, Note_on_c, 0, 44, 0
3, 10680, Note_on_c, 0, 56, 34
3, 10744, Control_c, 0, 64, 0
3, 10798, Note_on_c, 0, 56, 0
3, 10800, Note_on_c, 0, 44, 30
3, 10800, Note_on_c, 0, 49, 37
3, 10856, Control_c, 0, 64, 127
3, 11040, Note_on_c, 0, 44, 0
3, 11040, Note_on_c, 0, 56, 29
3, 11060, Note_on_c, 0, 49, 0
3, 11280, Note_on_c, 0, 56, 0
3, 11280, Note_on_c, 0, 44, 28
3, 11280, Note_on_c, 0, 49, 34
3, 11393, Control_c, 0, 64, 0
3, 11400, Note_on_c, 0, 49, 0
3, 11400, Note_on_c, 0, 44, 0
3, 11400, Note_on_c, 0, 56, 31
3, 11520, Note_on_c, 0, 56, 0
3, 11520, Note_on_c, 0, 44, 34
3, 11520, Note_on_c, 0, 49, 41
3, 11732, Control_c, 0, 64, 127
3, 11760, Note_on_c, 0, 56, 33
3, 11780, Note_on_c, 0, 49, 0
3, 11780, Note_on_c, 0, 44, 0
3, 12000, Note_on_c, 0, 56, 0
3, 12000, Note_on_c, 0, 44, 31
3, 12000, Note_on_c, 0, 49, 38
3, 12120, Note_on_c, 0, 49, 0
3, 12120, Note_on_c, 0, 44, 0
3, 12120, Note_on_c, 0, 56, 34
3, 12176, Control_c, 0, 64, 0
3, 12240, Note_on_c, 0, 56, 0
3, 12240, Note_on_c, 0, 44, 34
3, 12240, Note_on_c, 0, 49, 41
3, 12480, Control_c, 0, 64, 127
3, 12480, Note_on_c, 0, 56, 34
3, 12500, Note_on_c, 0, 49, 0
3, 12500, Note_on_c, 0, 44, 0
3, 12720, Note_on_c, 0, 56, 0
3, 12720, Note_on_c, 0, 44, 31
3, 12720, Note_on_c, 0, 49, 38
3, 12840, Note_on_c, 0, 49, 0
3, 12840, Note_on_c, 0, 44, 0
3, 12840, Note_on_c, 0, 56, 33
3, 12896, Control_c, 0, 64, 0
3, 12960, Note_on_c, 0, 56, 0
3, 12960, Note_on_c, 0, 44, 34
3, 12960, Note_on_c, 0, 49, 41
3, 13186, Control_c, 0, 64, 127
3, 13200, Note_on_c, 0, 56, 33
3, 13220, Note_on_c, 0, 49, 0
3, 13220, Note_on_c, 0, 44, 0
3, 13440, Note_on_c, 0, 56, 0
3, 13440, Note_on_c, 0, 44, 31
3, 13440, Note_on_c, 0, 49, 39
3, 13560, Note_on_c, 0, 49, 0
3, 13560, Note_on_c, 0, 44, 0
3, 13560, Note_on_c, 0, 56, 34
3, 13620, Control_c, 0, 64, 0
3, 13680, Note_on_c, 0, 56, 0
3, 13680, Note_on_c, 0, 44, 31
3, 13680, Note_on_c, 0, 49, 38
3, 13920, Control_c, 0, 64, 127
3, 13920, Note_on_c, 0, 56, 30
3, 13940, Note_on_c, 0, 49, 0
3, 13940, Note_on_c, 0, 44, 0
3, 14160, Note_on_c, 0, 56, 0
3, 14160, Note_on_c, 0, 44, 29
3, 14160, Note_on_c, 0, 49, 36
3, 14273, Control_c, 0, 64, 0
3, 14280, Note_on_c, 0, 49, 0
3, 14280, Note_on_c, 0, 44, 0
3, 14280, Note_on_c, 0, 56, 31
3, 14400, Note_on_c, 0, 56, 0
3, 14400, Note_on_c, 0, 44, 34
3, 14400, Note_on_c, 0, 49, 41
3, 14612, Control_c, 0, 64, 127
3, 14640, Note_on_c, 0, 56, 33
3, 14660, Note_on_c, 0, 49, 0
3, 14660, Note_on_c, 0, 44, 0
3, 14880, Note_on_c, 0, 56, 0
3, 14880, Note_on_c, 0, 44, 31
3, 14880, Note_on_c, 0, 49, 38
3, 15000, Note_on_c, 0, 49, 0
3, 15000, Note_on_c, 0, 44, 0
3, 15000, Note_on_c, 0, 56, 34
3, 15056, Control_c, 0, 64, 0
3, 15120, Note_on_c, 0, 56, 0
3, 15120, Note_on_c, 0, 44, 34
3, 15120, Note_on_c, 0, 49, 41
3, 15360, Control_c, 0, 64, 127
3, 15360, Note_on_c, 0, 56, 34
3, 15380, Note_on_c, 0, 49, 0
3, 15380, Note_on_c, 0, 44, 0
3, 15600, Note_on_c, 0, 56, 0
3, 15600, Note_on_c, 0, 44, 31
3, 15600, Note_on_c, 0, 49, 38
3, 15720, Note_on_c, 0, 49, 0
3, 15720, Note_on_c, 0, 44, 0
3, 15720, Note_on_c, 0, 56, 33
3, 15776, Control_c, 0, 64, 0
3, 15840, Note_on_c, 0, 56, 0
3, 15840, Note_on_c, 0, 44, 34
3, 15840, Note_on_c, 0, 49, 41
3, 16066, Control_c, 0, 64, 127
3, 16080, Note_on_c, 0, 56, 33
3, 16100, Note_on_c, 0, 49, 0
3, 16100, Note_on_c, 0, 44, 0
3, 16320, Note_on_c, 0, 56, 0
3, 16320, Note_on_c, 0, 44, 31
3, 16320, Note_on_c, 0, 49, 39
3, 16440, Note_on_c, 0, 49, 0
3, 16440, Note_on_c, 0, 44, 0
3, 16440, Note_on_c, 0, 56, 34
3, 16528, Control_c, 0, 64, 0
3, 16558, Note_on_c, 0, 56, 0
3, 16560, Note_on_c, 0, 44, 30
3, 16560, Note_on_c, 0, 49, 37
3, 16616, Control_c, 0, 64, 127
3, 16800, Note_on_c, 0, 49, 0
3, 16800, Note_on_c, 0, 44, 0
3, 16800, Note_on_c, 0, 56, 29
3, 17040, Note_on_c, 0, 56, 0
3, 17040, Note_on_c, 0, 44, 28
3, 17040, Note_on_c, 0, 49, 34
3, 17153, Control_c, 0, 64, 0
3, 17160, Note_on_c, 0, 49, 0
3, 17160, Note_on_c, 0, 44, 0
3, 17160, Note_on_c, 0, 56, 31
3, 17280, Note_on_c, 0, 56, 0
3, 17280, Note_on_c, 0, 44, 36
3, 17280, Note_on_c, 0, 49, 42
3, 17492, Control_c, 0, 64, 127
3, 17520, Note_on_c, 0, 56, 34
3, 17540, Note_on_c, 0, 49, 0
3, 17540, Note_on_c, 0, 44, 0
3, 17760, Note_on_c, 0, 56, 0
3, 17760, Note_on_c, 0, 44, 31
3, 17760, Note_on_c, 0, 49, 39
3, 17880, Note_on_c, 0, 49, 0
3, 17880, Note_on_c, 0, 44, 0
3, 17880, Note_on_c, 0, 56, 36
3, 17936, Control_c, 0, 64, 0
3, 18000, Note_on_c, 0, 56, 0
3, 18000, Note_on_c, 0, 44, 36
3, 18000, Note_on_c, 0, 49, 42
3, 18240, Control_c, 0, 64, 127
3, 18240, Note_on_c, 0, 56, 36
3, 18260, Note_on_c, 0, 49, 0
3, 18260, Note_on_c, 0, 44, 0
3, 18480, Note_on_c, 0, 56, 0
3, 18480, Note_on_c, 0, 44, 31
3, 18480, Note_on_c, 0, 49, 39
3, 18600, Note_on_c, 0, 49, 0
3, 18600, Note_on_c, 0, 44, 0
3, 18600, Note_on_c, 0, 56, 34
3, 18656, Control_c, 0, 64, 0
3, 18720, Note_on_c, 0, 56, 0
3, 18720, Note_on_c, 0, 44, 31
3, 18720, Note_on_c, 0, 49, 42
3, 18776, Control_c, 0, 64, 127
3, 18960, Note_on_c, 0, 49, 0
3, 18960, Note_on_c, 0, 44, 0
3, 18960, Note_on_c, 0, 56, 36
3, 19200, Note_on_c, 0, 56, 0
3, 19200, Note_on_c, 0, 44, 37
3, 19200, Note_on_c, 0, 49, 41
3, 19320, Note_on_c, 0, 49, 0
3, 19320, Note_on_c, 0, 44, 0
3, 19320, Note_on_c, 0, 56, 38
3, 19440, Note_on_c, 0, 56, 0
3, 19440, Note_on_c, 0, 44, 40
3, 19440, Note_on_c, 0, 49, 45
3, 19458, Control_c, 0, 64, 0
3, 19486, Control_c, 0, 64, 127
3, 19680, Note_on_c, 0, 49, 0
3, 19680, Note_on_c, 0, 44, 0
3, 19680, Note_on_c, 0, 56, 40
3, 19920, Note_on_c, 0, 56, 0
3, 19920, Note_on_c, 0, 44, 42
3, 19920, Note_on_c, 0, 49, 53
3, 20033, Control_c, 0, 64, 0
3, 20040, Note_on_c, 0, 49, 0
3, 20040, Note_on_c, 0, 44, 0
3, 20040, Note_on_c, 0, 56, 55
3, 20082, Control_c, 0, 64, 127
3, 20100, Note_on_c, 0, 56, 0
3, 20100, Note_on_c, 0, 37, 51
3, 20160, Note_on_c, 0, 49, 56
3, 20640, Note_on_c, 0, 49, 0
3, 20640, Note_on_c, 0, 37, 0
3, 20640, Note_on_c, 0, 49, 45
3, 20816, Control_c, 0, 64, 0
3, 20880, Note_on_c, 0, 49, 0
3, 20880, Control_c, 0, 64, 127
3, 20880, Note_on_c, 0, 37, 56
3, 21120, Note_on_c, 0, 49, 46
3, 21360, Note_on_c, 0, 49, 0
3, 21360, Note_on_c, 0, 49, 51
3, 21480, Note_on_c, 0, 49, 0
3, 21536, Control_c, 0, 64, 0
3, 21600, Note_on_c, 0, 37, 0
3, 21600, Note_on_c, 0, 37, 56
3, 21642, Control_c, 0, 64, 127
3, 21840, Note_on_c, 0, 37, 0
3, 21840, Note_on_c, 0, 49, 45
3, 22080, Note_on_c, 0, 49, 0
3, 22080, Note_on_c, 0, 37, 52
3, 22200, Note_on_c, 0, 37, 0
3, 22200, Note_on_c, 0, 49, 46
3, 22320, Note_on_c, 0, 49, 0
3, 22320, Note_on_c, 0, 37, 50
3, 22348, Control_c, 0, 64, 0
3, 22376, Control_c, 0, 64, 127
3, 22560, Note_on_c, 0, 37, 0
3, 22560, Note_on_c, 0, 49, 39
3, 22800, Note_on_c, 0, 49, 0
3, 22800, Note_on_c, 0, 37, 46
3, 22913, Control_c, 0, 64, 0
3, 22920, Note_on_c, 0, 37, 0
3, 22920, Note_on_c, 0, 49, 44
3, 23040, Note_on_c, 0, 49, 0
3, 23040, Note_on_c, 0, 37, 56
3, 23252, Control_c, 0, 64, 127
3, 23280, Note_on_c, 0, 37, 0
3, 23280, Note_on_c, 0, 49, 45
3, 23520, Note_on_c, 0, 49, 0
3, 23520, Note_on_c, 0, 37, 51
3, 23640, Note_on_c, 0, 37, 0
3, 23640, Note_on_c, 0, 49, 46
3, 23696, Control_c, 0, 64, 0
3, 23753, Control_c, 0, 64, 127
3, 23760, Note_on_c, 0, 49, 0
3, 23760, Note_on_c, 0, 37, 56
3, 24000, Note_on_c, 0, 37, 0
3, 24000, Note_on_c, 0, 49, 46
3, 24240, Note_on_c, 0, 49, 0
3, 24240, Note_on_c, 0, 37, 51
3, 24360, Note_on_c, 0, 37, 0
3, 24360, Note_on_c, 0, 49, 45
3, 24416, Control_c, 0, 64, 0
3, 24480, Note_on_c, 0, 49, 0
3, 24480, Note_on_c, 0, 37, 56
3, 24706, Control_c, 0, 64, 127
3, 24720, Note_on_c, 0, 49, 45
3, 24740, Note_on_c, 0, 37, 0
3, 24960, Note_on_c, 0, 49, 0
3, 24960, Note_on_c, 0, 37, 52
3, 25080, Note_on_c, 0, 37, 0
3, 25080, Note_on_c, 0, 49, 46
3, 25140, Control_c, 0, 64, 0
3, 25200, Note_on_c, 0, 49, 0
3, 25200, Note_on_c, 0, 37, 51
3, 25440, Control_c, 0, 64, 127
3, 25440, Note_on_c, 0, 49, 40
3, 25460, Note_on_c, 0, 37, 0
3, 25680, Note_on_c, 0, 49, 0
3, 25680, Note_on_c, 0, 37, 48
3, 25793, Control_c, 0, 64, 0
3, 25800, Note_on_c, 0, 37, 0
3, 25800, Note_on_c, 0, 49, 44
3, 25860, Note_on_c, 0, 49, 0
3, 25860, Control_c, 0, 64, 127
3, 25860, Note_on_c, 0, 37, 46
3, 25920, Note_on_c, 0, 49, 56
3, 26400, Note_on_c, 0, 49, 0
3, 26400, Note_on_c, 0, 37, 0
3, 26400, Note_on_c, 0, 49, 45
3, 26576, Control_c, 0, 64, 0
3, 26640, Note_on_c, 0, 49, 0
3, 26640, Control_c, 0, 64, 127
3, 26640, Note_on_c, 0, 37, 56
3, 26880, Note_on_c, 0, 49, 46
3, 27120, Note_on_c, 0, 49, 0
3, 27120, Note_on_c, 0, 49, 51
3, 27240, Note_on_c, 0, 49, 0
3, 27296, Control_c, 0, 64, 0
3, 27360, Note_on_c, 0, 37, 0
3, 27360, Note_on_c, 0, 37, 56
3, 27402, Control_c, 0, 64, 127
3, 27600, Note_on_c, 0, 37, 0
3, 27600, Note_on_c, 0, 49, 45
3, 27840, Note_on_c, 0, 49, 0
3, 27840, Note_on_c, 0, 37, 52
3, 27960, Note_on_c, 0, 37, 0
3, 27960, Note_on_c, 0, 49, 46
3, 28080, Note_on_c, 0, 49, 0
3, 28080, Note_on_c, 0, 37, 50
3, 28108, Control_c, 0, 64, 0
3, 28136, Control_c, 0, 64, 127
3, 28320, Note_on_c, 0, 37, 0
3, 28320, Note_on_c, 0, 49, 39
3, 28560, Note_on_c, 0, 49, 0
3, 28560, Note_on_c, 0, 37, 46
3, 28673, Control_c, 0, 64, 0
3, 28680, Note_on_c, 0, 37, 0
3, 28680, Note_on_c, 0, 49, 44
3, 28800, Note_on_c, 0, 49, 0
3, 28800, Note_on_c, 0, 37, 56
3, 29012, Control_c, 0, 64, 127
3, 29040, Note_on_c, 0, 37, 0
3, 29040, Note_on_c, 0, 49, 45
3, 29280, Note_on_c, 0, 49, 0
3, 29280, Note_on_c, 0, 37, 51
3, 29400, Note_on_c, 0, 37, 0
3, 29400, Note_on_c, 0, 49, 46
3, 29456, Control_c, 0, 64, 0
3, 29520, Note_on_c, 0, 49, 0
3, 29520, Note_on_c, 0, 37, 56
3, 29527, Control_c, 0, 64, 127
3, 29760, Note_on_c, 0, 37, 0
3, 29760, Note_on_c, 0, 49, 46
3, 30000, Note_on_c, 0, 49, 0
3, 30000, Note_on_c, 0, 37, 51
3, 30120, Note_on_c, 0, 37, 0
3, 30120, Note_on_c, 0, 49, 45
3, 30176, Control_c, 0, 64, 0
3, 30240, Note_on_c, 0, 49, 0
3, 30240, Note_on_c, 0, 37, 56
3, 30466, Control_c, 0, 64, 127
3, 30480, Note_on_c, 0, 49, 45
3, 30500, Note_on_c, 0, 37, 0
3, 30720, Note_on_c, 0, 49, 0
3, 30720, Note_on_c, 0, 37, 52
3, 30840, Note_on_c, 0, 37, 0
3, 30840, Note_on_c, 0, 49, 46
3, 30900, Control_c, 0, 64, 0
3, 30960, Note_on_c, 0, 49, 0
3, 30960, Note_on_c, 0, 37, 51
3, 31200, Control_c, 0, 64, 127
3, 31200, Note_on_c, 0, 49, 40
3, 31220, Note_on_c, 0, 37, 0
3, 31440, Note_on_c, 0, 49, 0
3, 31440, Note_on_c, 0, 37, 48
3, 31553, Control_c, 0, 64, 0
3, 31560, Note_on_c, 0, 37, 0
3, 31560, Note_on_c, 0, 49, 44
3, 31680, Note_on_c, 0, 49, 0
3, 31680, Note_on_c, 0, 44, 40
3, 31680, Note_on_c, 0, 49, 50
3, 31800, Note_on_c, 0, 54, 40
3, 31820, Note_on_c, 0, 49, 0
3, 31820, Note_on_c, 0, 44, 0
3, 31892, Control_c, 0, 64, 127
3, 31920, Note_on_c, 0, 58, 39
3, 31940, Note_on_c, 0, 54, 0
3, 32040, Note_on_c, 0, 58, 0
3, 32040, Note_on_c, 0, 54, 39
3, 32160, Note_on_c, 0, 54, 0
3, 32160, Note_on_c, 0, 44, 38
3, 32160, Note_on_c, 0, 49, 45
3, 32280, Note_on_c, 0, 49, 0
3, 32280, Note_on_c, 0, 44, 0
3, 32280, Note_on_c, 0, 54, 40
3, 32336, Control_c, 0, 64, 0
3, 32400, Note_on_c, 0, 54, 0
3, 32400, Note_on_c, 0, 44, 40
3, 32400, Note_on_c, 0, 49, 50
3, 32520, Note_on_c, 0, 54, 40
3, 32540, Note_on_c, 0, 49, 0
3, 32540, Note_on_c, 0, 44, 0
3, 32640, Control_c, 0, 64, 127
3, 32640, Note_on_c, 0, 60, 40
3, 32660, Note_on_c, 0, 54, 0
3, 32760, Note_on_c, 0, 60, 0
3, 32760, Note_on_c, 0, 54, 40
3, 32880, Note_on_c, 0, 54, 0
3, 32880, Note_on_c, 0, 44, 38
3, 32880, Note_on_c, 0, 49, 45
3, 33000, Note_on_c, 0, 49, 0
3, 33000, Note_on_c, 0, 44, 0
3, 33000, Note_on_c, 0, 54, 39
3, 33056, Control_c, 0, 64, 0
3, 33120, Note_on_c, 0, 54, 0
3, 33120, Note_on_c, 0, 44, 40
3, 33120, Note_on_c, 0, 49, 50
3, 33240, Note_on_c, 0, 53, 39
3, 33260, Note_on_c, 0, 49, 0
3, 33260, Note_on_c, 0, 44, 0
3, 33346, Control_c, 0, 64, 127
3, 33360, Note_on_c, 0, 61, 39
3, 33380, Note_on_c, 0, 53, 0
3, 33480, Note_on_c, 0, 61, 0
3, 33480, Note_on_c, 0, 53, 39
3, 33600, Note_on_c, 0, 53, 0
3, 33600, Note_on_c, 0, 44, 38
3, 33600, Note_on_c, 0, 49, 46
3, 33720, Note_on_c, 0, 49, 0
3, 33720, Note_on_c, 0, 44, 0
3, 33720, Note_on_c, 0, 53, 40
3, 33826, Control_c, 0, 64, 0
3, 33840, Note_on_c, 0, 53, 0
3, 33840, Note_on_c, 0, 44, 31
3, 33840, Note_on_c, 0, 49, 39
3, 33896, Control_c, 0, 64, 127
3, 33960, Note_on_c, 0, 49, 0
3, 33960, Note_on_c, 0, 44, 0
3, 33960, Note_on_c, 0, 53, 36
3, 34080, Note_on_c, 0, 53, 0
3, 34080, Note_on_c, 0, 56, 31
3, 34200, Note_on_c, 0, 56, 0
3, 34200, Note_on_c, 0, 53, 36
3, 34320, Note_on_c, 0, 53, 0
3, 34320, Note_on_c, 0, 44, 29
3, 34320, Note_on_c, 0, 49, 36
3, 34433, Control_c, 0, 64, 0
3, 34440, Note_on_c, 0, 49, 0
3, 34440, Note_on_c, 0, 44, 0
3, 34440, Note_on_c, 0, 53, 33
3, 34560, Note_on_c, 0, 53, 0
3, 34560, Note_on_c, 0, 44, 40
3, 34560, Note_on_c, 0, 49, 50
3, 34680, Note_on_c, 0, 54, 40
3, 34700, Note_on_c, 0, 49, 0
3, 34700, Note_on_c, 0, 44, 0
3, 34772, Control_c, 0, 64, 127
3, 34800, Note_on_c, 0, 58, 39
3, 34820, Note_on_c, 0, 54, 0
3, 34920, Note_on_c, 0, 58, 0
3, 34920, Note_on_c, 0, 54, 40
3, 35040, Note_on_c, 0, 54, 0
3, 35040, Note_on_c, 0, 44, 38
3, 35040, Note_on_c, 0, 49, 45
3, 35160, Note_on_c, 0, 49, 0
3, 35160, Note_on_c, 0, 44, 0
3, 35160, Note_on_c, 0, 54, 40
3, 35216, Control_c, 0, 64, 0
3, 35280, Note_on_c, 0, 54, 0
3, 35280, Note_on_c, 0, 44, 40
3, 35280, Note_on_c, 0, 49, 50
3, 35400, Note_on_c, 0, 54, 40
3, 35420, Note_on_c, 0, 49, 0
3, 35420, Note_on_c, 0, 44, 0
3, 35520, Control_c, 0, 64, 127
3, 35520, Note_on_c, 0, 60, 40
3, 35540, Note_on_c, 0, 54, 0
3, 35640, Note_on_c, 0, 60, 0
3, 35640, Note_on_c, 0, 54, 40
3, 35760, Note_on_c, 0, 54, 0
3, 35760, Note_on_c, 0, 44, 38
3, 35760, Note_on_c, 0, 49, 45
3, 35880, Note_on_c, 0, 49, 0
3, 35880, Note_on_c, 0, 44, 0
3, 35880, Note_on_c, 0, 54, 39
3, 35936, Control_c, 0, 64, 0
3, 36000, Note_on_c, 0, 54, 0
3, 36000, Note_on_c, 0, 44, 40
3, 36000, Note_on_c, 0, 49, 50
3, 36120, Note_on_c, 0, 53, 39
3, 36140, Note_on_c, 0, 49, 0
3, 36140, Note_on_c, 0, 44, 0
3, 36226, Control_c, 0, 64, 127
3, 36240, Note_on_c, 0, 61, 39
3, 36260, Note_on_c, 0, 53, 0
3, 36360, Note_on_c, 0, 61, 0
3, 36360, Note_on_c, 0, 53, 39
3, 36480, Note_on_c, 0, 53, 0
3, 36480, Note_on_c, 0, 44, 38
3, 36480, Note_on_c, 0, 49, 46
3, 36600, Note_on_c, 0, 49, 0
3, 36600, Note_on_c, 0, 44, 0
3, 36600, Note_on_c, 0, 53, 40
3, 36660, Control_c, 0, 64, 0
3, 36720, Note_on_c, 0, 53, 0
3, 36720, Note_on_c, 0, 44, 38
3, 36720, Note_on_c, 0, 49, 45
3, 36840, Note_on_c, 0, 53, 40
3, 36860, Note_on_c, 0, 49, 0
3, 36860, Note_on_c, 0, 44, 0
3, 36960, Control_c, 0, 64, 127
3, 36960, Note_on_c, 0, 56, 37
3, 36980, Note_on_c, 0, 53, 0
3, 37080, Note_on_c, 0, 56, 0
3, 37080, Note_on_c, 0, 53, 40
3, 37200, Note_on_c, 0, 53, 0
3, 37200, Note_on_c, 0, 44, 36
3, 37200, Note_on_c, 0, 49, 42
3, 37313, Control_c, 0, 64, 0
3, 37320, Note_on_c, 0, 49, 0
3, 37320, Note_on_c, 0, 44, 0
3, 37320, Note_on_c, 0, 53, 38
3, 37440, Note_on_c, 0, 53, 0
3, 37440, Note_on_c, 0, 44, 40
3, 37440, Note_on_c, 0, 49, 50
3, 37560, Note_on_c, 0, 54, 40
3, 37580, Note_on_c, 0, 49, 0
3, 37580, Note_on_c, 0, 44, 0
3, 37652, Control_c, 0, 64, 127
3, 37680, Note_on_c, 0, 58, 39
3, 37700, Note_on_c, 0, 54, 0
3, 37800, Note_on_c, 0, 58, 0
3, 37800, Note_on_c, 0, 54, 39
3, 37920, Note_on_c, 0, 54, 0
3, 37920, Note_on_c, 0, 44, 38
3, 37920, Note_on_c, 0, 49, 45
3, 38040, Note_on_c, 0, 49, 0
3, 38040, Note_on_c, 0, 44, 0
3, 38040, Note_on_c, 0, 54, 40
3, 38096, Control_c, 0, 64, 0
3, 38160, Note_on_c, 0, 54, 0
3, 38160, Note_on_c, 0, 44, 40
3, 38160, Note_on_c, 0, 49, 50
3, 38280, Note_on_c, 0, 54, 40
3, 38300, Note_on_c, 0, 49, 0
3, 38300, Note_on_c, 0, 44, 0
3, 38400, Control_c, 0, 64, 127
3, 38400, Note_on_c, 0, 60, 40
3, 38420, Note_on_c, 0, 54, 0
3, 38520, Note_on_c, 0, 60, 0
3, 38520, Note_on_c, 0, 54, 40
3, 38640, Note_on_c, 0, 54, 0
3, 38640, Note_on_c, 0, 44, 38
3, 38640, Note_on_c, 0, 49, 45
3, 38760, Note_on_c, 0, 49, 0
3, 38760, Note_on_c, 0, 44, 0
3, 38760, Note_on_c, 0, 54, 39
3, 38816, Control_c, 0, 64, 0
3, 38880, Note_on_c, 0, 54, 0
3, 38880, Note_on_c, 0, 44, 40
3, 38880, Note_on_c, 0, 49, 50
3, 39000, Note_on_c, 0, 53, 39
3, 39020, Note_on_c, 0, 49, 0
3, 39020, Note_on_c, 0, 44, 0
3, 39106, Control_c, 0, 64, 127
3, 39120, Note_on_c, 0, 61, 39
3, 39140, Note_on_c, 0, 53, 0
3, 39240, Note_on_c, 0, 61, 0
3, 39240, Note_on_c, 0, 53, 39
3, 39360, Note_on_c, 0, 53, 0
3, 39360, Note_on_c, 0, 44, 38
3, 39360, Note_on_c, 0, 49, 46
3, 39480, Note_on_c, 0, 49, 0
3, 39480, Note_on_c, 0, 44, 0
3, 39480, Note_on_c, 0, 53, 40
3, 39586, Control_c, 0, 64, 0
3, 39600, Note_on_c, 0, 53, 0
3, 39600, Note_on_c, 0, 44, 31
3, 39600, Note_on_c, 0, 49, 39
3, 39656, Control_c, 0, 64, 127
3, 39720, Note_on_c, 0, 49, 0
3, 39720, Note_on_c, 0, 44, 0
3, 39720, Note_on_c, 0, 53, 36
3, 39840, Note_on_c, 0, 53, 0
3, 39840, Note_on_c, 0, 56, 31
3, 39960, Note_on_c, 0, 56, 0
3, 39960, Note_on_c, 0, 53, 36
3, 40080, Note_on_c, 0, 53, 0
3, 40080, Note_on_c, 0, 44, 29
3, 40080, Note_on_c, 0, 49, 36
3, 40193, Control_c, 0, 64, 0
3, 40200, Note_on_c, 0, 49, 0
3, 40200, Note_on_c, 0, 44, 0
3, 40200, Note_on_c, 0, 53, 33
3, 40320, Note_on_c, 0, 53, 0
3, 40320, Note_on_c, 0, 44, 40
3, 40320, Note_on_c, 0, 49, 50
3, 40440, Note_on_c, 0, 54, 40
3, 40460, Note_on_c, 0, 49, 0
3, 40460, Note_on_c, 0, 44, 0
3, 40532, Control_c, 0, 64, 127
3, 40560, Note_on_c, 0, 58, 39
3, 40580, Note_on_c, 0, 54, 0
3, 40680, Note_on_c, 0, 58, 0
3, 40680, Note_on_c, 0, 54, 40
3, 40800, Note_on_c, 0, 54, 0
3, 40800, Note_on_c, 0, 44, 38
3, 40800, Note_on_c, 0, 49, 45
3, 40920, Note_on_c, 0, 49, 0
3, 40920, Note_on_c, 0, 44, 0
3, 40920, Note_on_c, 0, 54, 40
3, 40976, Control_c, 0, 64, 0
3, 41040, Note_on_c, 0, 54, 0
3, 41040, Note_on_c, 0, 44, 40
3, 41040, Note_on_c, 0, 49, 50
3, 41160, Note_on_c, 0, 54, 40
3, 41180, Note_on_c, 0, 49, 0
3, 41180, Note_on_c, 0, 44, 0
3, 41280, Control_c, 0, 64, 127
3, 41280, Note_on_c, 0, 60, 40
3, 41300, Note_on_c, 0, 54, 0
3, 41400, Note_on_c, 0, 60, 0
3, 41400, Note_on_c, 0, 54, 40
3, 41520, Note_on_c, 0, 54, 0
3, 41520, Note_on_c, 0, 44, 38
3, 41520, Note_on_c, 0, 49, 45
3, 41640, Note_on_c, 0, 49, 0
3, 41640, Note_on_c, 0, 44, 0
3, 41640, Note_on_c, 0, 54, 39
3, 41696, Control_c, 0, 64, 0
3, 41760, Note_on_c, 0, 54, 0
3, 41760, Note_on_c, 0, 37, 40
3, 41760, Note_on_c, 0, 44, 50
3, 41880, Note_on_c, 0, 44, 0
3, 41880, Note_on_c, 0, 37, 0
3, 41880, Note_on_c, 0, 49, 39
3, 41986, Control_c, 0, 64, 127
3, 42000, Note_on_c, 0, 49, 0
3, 42000, Note_on_c, 0, 53, 45
3, 42120, Note_on_c, 0, 53, 0
3, 42120, Note_on_c, 0, 56, 39
3, 42240, Note_on_c, 0, 56, 0
3, 42240, Note_on_c, 0, 61, 46
3, 42360, Note_on_c, 0, 61, 0
3, 42960, Note_on_c, 0, 56, 36
3, 43073, Control_c, 0, 64, 0
3, 43200, Note_on_c, 0, 56, 0
3, 43200, Note_on_c, 0, 49, 35
3, 43221, Control_c, 0, 64, 127
3, 43440, Note_on_c, 0, 49, 0
3, 43440, Note_on_c, 0, 58, 40
3, 43680, Note_on_c, 0, 49, 34
3, 43800, Control_c, 0, 64, 0
3, 43920, Note_on_c, 0, 49, 0
3, 43920, Note_on_c, 0, 58, 0
3, 43920, Note_on_c, 0, 49, 37
3, 44005, Control_c, 0, 64, 127
3, 44160, Note_on_c, 0, 49, 0
3, 44160, Note_on_c, 0, 60, 41
3, 44400, Note_on_c, 0, 49, 36
3, 44456, Control_c, 0, 64, 0
3, 44640, Note_on_c, 0, 49, 0
3, 44640, Note_on_c, 0, 60, 0
3, 44640, Note_on_c, 0, 49, 37
3, 44661, Control_c, 0, 64, 127
3, 44880, Note_on_c, 0, 49, 0
3, 44880, Note_on_c, 0, 61, 44
3, 45120, Note_on_c, 0, 49, 37
3, 45300, Control_c, 0, 64, 0
3, 45360, Note_on_c, 0, 49, 0
3, 45360, Note_on_c, 0, 61, 0
3, 45360, Control_c, 0, 64, 127
3, 45360, Note_on_c, 0, 49, 39
3, 45600, Note_on_c, 0, 49, 0
3, 45600, Note_on_c, 0, 62, 45
3, 45840, Note_on_c, 0, 49, 39
3, 45896, Control_c, 0, 64, 0
3, 46080, Note_on_c, 0, 49, 0
3, 46080, Note_on_c, 0, 62, 0
3, 46080, Note_on_c, 0, 49, 39
3, 46101, Control_c, 0, 64, 127
3, 46320, Note_on_c, 0, 49, 0
3, 46320, Note_on_c, 0, 63, 46
3, 46560, Note_on_c, 0, 49, 38
3, 46680, Control_c, 0, 64, 0
3, 46800, Note_on_c, 0, 49, 0
3, 46800, Note_on_c, 0, 63, 0
3, 46800, Note_on_c, 0, 49, 39
3, 46885, Control_c, 0, 64, 127
3, 47040, Note_on_c, 0, 49, 0
3, 47040, Note_on_c, 0, 56, 44
3, 47280, Note_on_c, 0, 49, 37
3, 47336, Control_c, 0, 64, 0
3, 47520, Note_on_c, 0, 49, 0
3, 47520, Note_on_c, 0, 56, 0
3, 47520, Note_on_c, 0, 49, 37
3, 47541, Control_c, 0, 64, 127
3, 47760, Note_on_c, 0, 49, 0
3, 47760, Note_on_c, 0, 61, 42
3, 48000, Note_on_c, 0, 49, 35
3, 48180, Control_c, 0, 64, 0
3, 48240, Note_on_c, 0, 49, 0
3, 48240, Note_on_c, 0, 61, 0
3, 48240, Control_c, 0, 64, 127
3, 48240, Note_on_c, 0, 49, 36
3, 48480, Note_on_c, 0, 49, 0
3, 48480, Note_on_c, 0, 56, 46
3, 48720, Note_on_c, 0, 49, 39
3, 48776, Control_c, 0, 64, 0
3, 48960, Note_on_c, 0, 49, 0
3, 48960, Note_on_c, 0, 56, 0
3, 48960, Note_on_c, 0, 54, 48
3, 48981, Control_c, 0, 64, 127
3, 49200, Note_on_c, 0, 44, 41
3, 49440, Note_on_c, 0, 44, 0
3, 49440, Note_on_c, 0, 44, 40
3, 49560, Control_c, 0, 64, 0
3, 49680, Note_on_c, 0, 44, 0
3, 49680, Note_on_c, 0, 54, 0
3, 49680, Note_on_c, 0, 56, 51
3, 49765, Control_c, 0, 64, 127
3, 49920, Note_on_c, 0, 44, 44
3, 50160, Note_on_c, 0, 44, 0
3, 50160, Note_on_c, 0, 44, 42
3, 50216, Control_c, 0, 64, 0
3, 50400, Note_on_c, 0, 44, 0
3, 50400, Note_on_c, 0, 56, 0
3, 50400, Note_on_c, 0, 58, 56
3, 50421, Control_c, 0, 64, 127
3, 50640, Note_on_c, 0, 44, 44
3, 50880, Note_on_c, 0, 44, 0
3, 50880, Note_on_c, 0, 44, 44
3, 51060, Control_c, 0, 64, 0
3, 51120, Note_on_c, 0, 44, 0
3, 51120, Note_on_c, 0, 58, 0
3, 51120, Note_on_c, 0, 59, 59
3, 51120, Control_c, 0, 64, 127
3, 51360, Note_on_c, 0, 44, 47
3, 51600, Note_on_c, 0, 44, 0
3, 51600, Note_on_c, 0, 44, 47
3, 51656, Control_c, 0, 64, 0
3, 51840, Note_on_c, 0, 44, 0
3, 51840, Note_on_c, 0, 59, 0
3, 51840, Note_on_c, 0, 58, 49
3, 51911, Control_c, 0, 64, 127
3, 52080, Note_on_c, 0, 44, 44
3, 52320, Note_on_c, 0, 44, 0
3, 52320, Note_on_c, 0, 44, 40
3, 52440, Control_c, 0, 64, 0
3, 52560, Note_on_c, 0, 44, 0
3, 52560, Note_on_c, 0, 58, 0
3, 52560, Note_on_c, 0, 56, 44
3, 52645, Control_c, 0, 64, 127
3, 52800, Note_on_c, 0, 44, 37
3, 53040, Note_on_c, 0, 56, 0
3, 53040, Note_on_c, 0, 54, 33
3, 53096, Control_c, 0, 64, 0
3, 53280, Note_on_c, 0, 54, 0
3, 53280, Note_on_c, 0, 44, 0
3, 53280, Note_on_c, 0, 37, 30
3, 53280, Note_on_c, 0, 44, 38
3, 53315, Control_c, 0, 64, 127
3, 53400, Note_on_c, 0, 44, 0
3, 53400, Note_on_c, 0, 37, 0
3, 53400, Note_on_c, 0, 49, 30
3, 53520, Note_on_c, 0, 49, 0
3, 53520, Note_on_c, 0, 53, 35
3, 53640, Note_on_c, 0, 53, 0
3, 53640, Note_on_c, 0, 56, 30
3, 53760, Note_on_c, 0, 56, 0
3, 53760, Note_on_c, 0, 61, 36
3, 53880, Note_on_c, 0, 61, 0
3, 54551, Control_c, 0, 64, 0
3, 54720, Note_on_c, 0, 44, 29
3, 54720, Note_on_c, 0, 49, 35
3, 54734, Control_c, 0, 64, 127
3, 54960, Note_on_c, 0, 49, 0
3, 54960, Note_on_c, 0, 44, 0
3, 55200, Note_on_c, 0, 44, 26
3, 55200, Note_on_c, 0, 49, 31
3, 55320, Note_on_c, 0, 49, 0
3, 55320, Note_on_c, 0, 44, 0
3, 55440, Control_c, 0, 64, 0
3, 55440, Note_on_c, 0, 44, 29
3, 55440, Note_on_c, 0, 49, 35
3, 55482, Control_c, 0, 64, 127
3, 55680, Note_on_c, 0, 49, 0
3, 55680, Note_on_c, 0, 44, 0
3, 55920, Note_on_c, 0, 44, 27
3, 55920, Note_on_c, 0, 49, 33
3, 56040, Note_on_c, 0, 49, 0
3, 56040, Note_on_c, 0, 44, 0
3, 56061, Control_c, 0, 64, 0
3, 56160, Note_on_c, 0, 44, 29
3, 56160, Note_on_c, 0, 49, 35
3, 56238, Control_c, 0, 64, 127
3, 56400, Note_on_c, 0, 49, 0
3, 56400, Note_on_c, 0, 44, 0
3, 56640, Note_on_c, 0, 44, 26
3, 56640, Note_on_c, 0, 49, 31
3, 56760, Note_on_c, 0, 49, 0
3, 56760, Note_on_c, 0, 44, 0
3, 56866, Control_c, 0, 64, 0
3, 56880, Note_on_c, 0, 44, 29
3, 56880, Note_on_c, 0, 49, 35
3, 56922, Control_c, 0, 64, 127
3, 57120, Note_on_c, 0, 49, 0
3, 57120, Note_on_c, 0, 44, 0
3, 57360, Note_on_c, 0, 44, 26
3, 57360, Note_on_c, 0, 49, 31
3, 57480, Note_on_c, 0, 49, 0
3, 57480, Note_on_c, 0, 44, 0
3, 57501, Control_c, 0, 64, 0
3, 57600, Note_on_c, 0, 44, 29
3, 57600, Note_on_c, 0, 49, 35
3, 57651, Control_c, 0, 64, 127
3, 57840, Note_on_c, 0, 49, 0
3, 57840, Note_on_c, 0, 44, 0
3, 58080, Note_on_c, 0, 44, 27
3, 58080, Note_on_c, 0, 49, 33
3, 58200, Note_on_c, 0, 49, 0
3, 58200, Note_on_c, 0, 44, 0
3, 58295, Control_c, 0, 64, 0
3, 58320, Note_on_c, 0, 44, 29
3, 58320, Note_on_c, 0, 49, 35
3, 58345, Control_c, 0, 64, 127
3, 58560, Note_on_c, 0, 49, 0
3, 58560, Note_on_c, 0, 44, 0
3, 58800, Note_on_c, 0, 44, 27
3, 58800, Note_on_c, 0, 49, 33
3, 58920, Note_on_c, 0, 49, 0
3, 58920, Note_on_c, 0, 44, 0
3, 58958, Control_c, 0, 64, 0
3, 59040, Note_on_c, 0, 44, 29
3, 59040, Note_on_c, 0, 49, 35
3, 59160, Control_c, 0, 64, 127
3, 59280, Note_on_c, 0, 49, 0
3, 59280, Note_on_c, 0, 44, 0
3, 59520, Note_on_c, 0, 44, 26
3, 59520, Note_on_c, 0, 49, 30
3, 59760, Note_on_c, 0, 49, 0
3, 59760, Note_on_c, 0, 44, 0
3, 60000, Note_on_c, 0, 44, 23
3, 60000, Note_on_c, 0, 49, 28
3, 60240, Note_on_c, 0, 49, 0
3, 60240, Note_on_c, 0, 44, 0
3, 60480, Note_on_c, 0, 44, 20
3, 60480, Note_on_c, 0, 49, 26
3, 60520, Control_c, 0, 64, 0
3, 60560, Control_c, 0, 64, 127
3, 60720, Note_on_c, 0, 49, 0
3, 60720, Note_on_c, 0, 44, 0
3, 60960, Note_on_c, 0, 44, 19
3, 60960, Note_on_c, 0, 49, 23
3, 61200, Note_on_c, 0, 49, 0
3, 61200, Note_on_c, 0, 44, 0
3, 61440, Note_on_c, 0, 44, 17
3, 61440, Note_on_c, 0, 49, 19
3, 61680, Note_on_c, 0, 49, 0
3, 61680, Note_on_c, 0, 44, 0
3, 63160, Control_c, 0, 64, 0
3, 63160, End_track
4, 0, Start_track
4, 0, MIDI_port, 0
4, 0, Title_t, "Borodin: Petite Suite, Serenade"
4, 0, End_track
5, 0, Start_track
5, 0, MIDI_port, 0
5, 0, Title_t, "Copyright © 2000 by Bernd Krüger"
5, 0, End_track
6, 0, Start_track
6, 0, MIDI_port, 0
6, 0, Title_t, "email: bernd.krueger@piano-midi.de"
6, 0, End_track
7, 0, Start_track
7, 0, MIDI_port, 0
7, 0, Title_t, "http://www.piano-midi.de"
7, 0, End_track
8, 0, Start_track
8, 0, MIDI_port, 0
8, 0, Title_t, "Edition: 21.8.00"
8, 0, End_track
9, 0, Start_track
9, 0, MIDI_port, 0
9, 0, End_track
0, 0, End_of_file
