0, 0, Header, 1, 8, 480
1, 0, Start_track
1, 0, Title_t, "Pan's auf Standard am 18.1.98"
1, 0, Title_t, "Intermezzo"
1, 0, Copyright_t, "Copyright © 1997 by Krüger http://www.piano-midi.de"
1, 0, Text_t, "Johannes Brahms"
1, 0, Text_t, "Andante"
1, 0, Text_t, "Pan's auf Normal am 18.1.98\012"
1, 0, Text_t, "Korrekturen am 22.8.98\012"
1, 0, Text_t, "Anpassungen an Digitalpiano am 31.12.98\012"
1, 0, Text_t, "Update am 5.9.99\012"
1, 0, Text_t, "Update am 18.5.2002\012"
1, 0, Text_t, "Normierung: 23.12.2002\012"
1, 0, Text_t, "Update am 28.10.2010\012"
1, 0, Text_t, "Dauer: 2:43 Minuten\012"
1, 0, SMPTE_offset, 96, 0, 3, 0, 0
1, 0, Time_signature, 3, 2, 24, 8
1, 0, Key_signature, 0, "major"
1, 0, Tempo, 822256
1, 0, Marker_t, "Andante"
1, 320, Tempo, 880669
1, 480, Tempo, 822256
1, 1760, Tempo, 886525
1, 1920, Tempo, 822256
1, 3200, Tempo, 880669
1, 3360, Tempo, 841515
1, 4800, Tempo, 886525
1, 5760, Tempo, 794176
1, 6080, Tempo, 863558
1, 6240, Tempo, 794176
1, 7200, Tempo, 805910
1, 7520, Tempo, 863558
1, 8640, Tempo, 904568
1, 9120, Tempo, 831140
1, 10060, Tempo, 862813
1, 11520, Tempo, 913520
1, 12000, Tempo, 1013000
1, 12960, Tempo, 751503
1, 13440, Tempo, 794176
1, 13920, Tempo, 827130
1, 14400, Tempo, 759686
1, 14880, Tempo, 803320
1, 15840, Tempo, 755572
1, 17280, Tempo, 791557
1, 17760, Tempo, 825877
1, 18720, Tempo, 739554
1, 21120, Tempo, 796284
1, 21600, Tempo, 836353
1, 22080, Tempo, 794176
1, 23040, Tempo, 812788
1, 24480, Tempo, 846979
1, 24600, Tempo, 852394
1, 24720, Tempo, 858001
1, 24840, Tempo, 863558
1, 24960, Tempo, 869061
1, 24980, Tempo, 857633
1, 25040, Tempo, 863558
1, 25080, Tempo, 869565
1, 25140, Tempo, 875657
1, 25180, Tempo, 881964
1, 25240, Tempo, 888231
1, 25280, Tempo, 894588
1, 25320, Tempo, 901036
1, 25380, Tempo, 907716
1, 25420, Tempo, 914355
1, 25480, Tempo, 921093
1, 25520, Tempo, 927931
1, 25580, Tempo, 935016
1, 25620, Tempo, 942063
1, 25660, Tempo, 949217
1, 25680, Tempo, 1330082
1, 25900, Tempo, 664894
1, 25920, Time_signature, 3, 3, 12, 8
1, 25920, Tempo, 621697
1, 25920, Marker_t, "Non troppo presto"
1, 25940, Tempo, 618620
1, 25980, Tempo, 615574
1, 26020, Tempo, 612495
1, 26060, Tempo, 609508
1, 26100, Tempo, 606551
1, 26140, Tempo, 603622
1, 26160, Tempo, 600661
1, 26200, Tempo, 597788
1, 26240, Tempo, 594943
1, 26280, Tempo, 592125
1, 26320, Tempo, 589275
1, 26360, Tempo, 586510
1, 26400, Tempo, 583771
1, 26420, Tempo, 581058
1, 26460, Tempo, 578313
1, 26500, Tempo, 575650
1, 26540, Tempo, 573011
1, 26580, Tempo, 570396
1, 26620, Tempo, 567752
1, 26640, Tempo, 565185
1, 28080, Tempo, 565185
1, 28220, Tempo, 567752
1, 28360, Tempo, 570396
1, 28480, Tempo, 573011
1, 28620, Tempo, 575650
1, 28740, Tempo, 578313
1, 28880, Tempo, 581058
1, 29000, Tempo, 583771
1, 29140, Tempo, 586510
1, 29260, Tempo, 589275
1, 29400, Tempo, 592125
1, 29520, Tempo, 592125
1, 29600, Tempo, 589275
1, 29680, Tempo, 586510
1, 29740, Tempo, 583771
1, 29820, Tempo, 581058
1, 29880, Tempo, 578313
1, 29960, Tempo, 575650
1, 30040, Tempo, 573011
1, 30100, Tempo, 570396
1, 30180, Tempo, 567752
1, 30240, Tempo, 565185
1, 30960, Tempo, 565185
1, 35280, Tempo, 565185
1, 35420, Tempo, 567752
1, 35560, Tempo, 570396
1, 35680, Tempo, 573011
1, 35820, Tempo, 575650
1, 35940, Tempo, 578313
1, 36080, Tempo, 581058
1, 36200, Tempo, 583771
1, 36340, Tempo, 586510
1, 36460, Tempo, 589275
1, 36600, Tempo, 592125
1, 36720, Tempo, 592125
1, 36800, Tempo, 589275
1, 36880, Tempo, 586510
1, 36940, Tempo, 583771
1, 37020, Tempo, 581058
1, 37080, Tempo, 578313
1, 37160, Tempo, 575650
1, 37240, Tempo, 573011
1, 37300, Tempo, 570396
1, 37380, Tempo, 567752
1, 37440, Tempo, 565185
1, 38160, Tempo, 565185
1, 38880, Tempo, 565185
1, 39240, Tempo, 567752
1, 39600, Tempo, 570396
1, 40300, Tempo, 570396
1, 40380, Tempo, 573011
1, 40440, Tempo, 575650
1, 40520, Tempo, 578313
1, 40580, Tempo, 581058
1, 40660, Tempo, 583771
1, 40720, Tempo, 586510
1, 40780, Tempo, 589275
1, 40860, Tempo, 592125
1, 40920, Tempo, 594943
1, 41000, Tempo, 597788
1, 41060, Tempo, 600661
1, 41140, Tempo, 603622
1, 41200, Tempo, 606551
1, 41260, Tempo, 609508
1, 41280, Tempo, 609508
1, 41300, Tempo, 624805
1, 41400, Tempo, 609508
1, 41420, Tempo, 609508
1, 41580, Tempo, 606551
1, 41740, Tempo, 603622
1, 41900, Tempo, 600661
1, 42060, Tempo, 597788
1, 42220, Tempo, 594943
1, 42360, Tempo, 592125
1, 42520, Tempo, 589275
1, 42680, Tempo, 586510
1, 42840, Tempo, 583771
1, 43000, Tempo, 581058
1, 43140, Tempo, 578313
1, 43300, Tempo, 575650
1, 43460, Tempo, 573011
1, 43620, Tempo, 570396
1, 43780, Tempo, 567752
1, 43920, Tempo, 565185
1, 44280, Tempo, 567752
1, 44640, Tempo, 570396
1, 45000, Tempo, 573011
1, 45360, Tempo, 575650
1, 46780, Tempo, 575650
1, 46900, Tempo, 578313
1, 47000, Tempo, 581058
1, 47100, Tempo, 583771
1, 47220, Tempo, 586510
1, 47280, Tempo, 621697
1, 47520, Tempo, 631180
1, 47560, Tempo, 634384
1, 47600, Tempo, 637687
1, 47640, Tempo, 640957
1, 47680, Tempo, 644261
1, 47700, Tempo, 647598
1, 47740, Tempo, 651042
1, 47780, Tempo, 654450
1, 47820, Tempo, 657895
1, 47840, Tempo, 661376
1, 47880, Tempo, 664967
1, 47920, Tempo, 668524
1, 47960, Tempo, 672118
1, 48000, Tempo, 675752
1, 48020, Tempo, 679502
1, 48060, Tempo, 683216
1, 48100, Tempo, 686970
1, 48140, Tempo, 690767
1, 48160, Tempo, 694686
1, 48200, Tempo, 698568
1, 48240, Tempo, 702494
1, 48280, Tempo, 706547
1, 48320, Tempo, 710564
1, 48340, Tempo, 714626
1, 48380, Tempo, 718735
1, 48420, Tempo, 722979
1, 48460, Tempo, 727185
1, 48480, Tempo, 731440
1, 48520, Tempo, 735745
1, 48560, Tempo, 740192
1, 48600, Tempo, 744602
1, 48640, Tempo, 749064
1, 48660, Tempo, 753580
1, 48700, Tempo, 758246
1, 48720, Tempo, 1036269
1, 48960, Time_signature, 3, 2, 24, 8
1, 48960, Tempo, 807428
1, 48960, Marker_t, "Andante"
1, 49440, Tempo, 840218
1, 50400, Tempo, 807428
1, 50880, Tempo, 840218
1, 51840, Tempo, 807428
1, 52800, Tempo, 828958
1, 53280, Tempo, 845904
1, 54720, Tempo, 828958
1, 55080, Tempo, 857633
1, 56160, Tempo, 828958
1, 56520, Tempo, 857633
1, 57600, Tempo, 807428
1, 58560, Tempo, 828958
1, 59040, Tempo, 851668
1, 60480, Tempo, 807428
1, 60960, Tempo, 823497
1, 61440, Tempo, 845904
1, 61920, Tempo, 807428
1, 62160, Tempo, 782065
1, 63360, Tempo, 764331
1, 63600, Tempo, 789474
1, 63840, Tempo, 764331
1, 64080, Tempo, 784314
1, 64320, Tempo, 769231
1, 64560, Tempo, 797130
1, 65040, Tempo, 714626
1, 66480, Tempo, 727185
1, 66920, Tempo, 731440
1, 67320, Tempo, 735745
1, 67760, Tempo, 740192
1, 68160, Tempo, 694686
1, 68640, Tempo, 690767
1, 68720, Tempo, 694686
1, 68800, Tempo, 698568
1, 68880, Tempo, 702494
1, 68960, Tempo, 706547
1, 69040, Tempo, 710564
1, 69120, Tempo, 714626
1, 69200, Tempo, 698568
1, 69280, Tempo, 702494
1, 69360, Tempo, 706547
1, 69440, Tempo, 710564
1, 69520, Tempo, 714626
1, 69600, Tempo, 797130
1, 70080, Tempo, 964010
1, 70160, Tempo, 971503
1, 70200, Tempo, 979112
1, 70240, Tempo, 987004
1, 70280, Tempo, 994860
1, 70320, Tempo, 1002841
1, 70400, Tempo, 1010952
1, 70440, Tempo, 1019368
1, 70480, Tempo, 1027749
1, 70520, Tempo, 1036269
1, 70560, Tempo, 802676
1, 70880, Tempo, 859599
1, 71040, Tempo, 802676
1, 72320, Tempo, 865301
1, 72480, Tempo, 802676
1, 73760, Tempo, 859599
1, 73920, Tempo, 821580
1, 75360, Tempo, 865301
1, 76320, Tempo, 775194
1, 76640, Tempo, 842933
1, 76800, Tempo, 775194
1, 77760, Tempo, 786679
1, 78080, Tempo, 842933
1, 79200, Tempo, 883002
1, 79680, Tempo, 811249
1, 80620, Tempo, 842223
1, 82080, Tempo, 891795
1, 82560, Tempo, 988794
1, 83520, Tempo, 733586
1, 84000, Tempo, 775194
1, 84480, Tempo, 807211
1, 84960, Tempo, 741565
1, 85440, Tempo, 784109
1, 86400, Tempo, 737463
1, 87840, Tempo, 772599
1, 88320, Tempo, 806343
1, 89280, Tempo, 772300
1, 89800, Tempo, 772300
1, 89880, Tempo, 777202
1, 89960, Tempo, 782065
1, 90000, Tempo, 786988
1, 90080, Tempo, 791975
1, 90120, Tempo, 797130
1, 90200, Tempo, 802246
1, 90240, Tempo, 807428
1, 90320, Tempo, 812788
1, 90360, Tempo, 818107
1, 90440, Tempo, 823497
1, 90480, Tempo, 828958
1, 90560, Tempo, 834608
1, 90600, Tempo, 840218
1, 90680, Tempo, 845904
1, 90720, Tempo, 777202
1, 92160, Tempo, 777202
1, 92640, Tempo, 772300
1, 92720, Tempo, 777202
1, 92800, Tempo, 782065
1, 92880, Tempo, 786988
1, 92960, Tempo, 791975
1, 93040, Tempo, 797130
1, 93120, Tempo, 802246
1, 93160, Tempo, 807428
1, 93240, Tempo, 812788
1, 93320, Tempo, 818107
1, 93400, Tempo, 823497
1, 93480, Tempo, 828958
1, 93560, Tempo, 834608
1, 93600, Tempo, 840218
1, 94080, Tempo, 782065
1, 95040, Tempo, 836353
1, 95520, Tempo, 794176
1, 96480, Tempo, 812788
1, 97920, Tempo, 840218
1, 98040, Tempo, 845904
1, 98120, Tempo, 851668
1, 98200, Tempo, 857633
1, 98280, Tempo, 863558
1, 98360, Tempo, 869565
1, 98440, Tempo, 875657
1, 98520, Tempo, 881964
1, 98640, Tempo, 888231
1, 98720, Tempo, 894588
1, 98800, Tempo, 901036
1, 98880, Tempo, 907716
1, 98960, Tempo, 914355
1, 99040, Tempo, 921093
1, 99120, Tempo, 927931
1, 99240, Tempo, 935016
1, 99320, Tempo, 942063
1, 99360, Tempo, 1100514
1, 100429, Tempo, 1061947
1, 100429, End_track
2, 0, Start_track
2, 0, Title_t, "Piano right"
2, 0, Program_c, 0, 0
2, 0, Control_c, 0, 7, 100
2, 0, Control_c, 0, 10, 64
2, 0, Control_c, 0, 91, 127
2, 0, Note_on_c, 0, 72, 56
2, 0, Note_on_c, 0, 69, 50
2, 0, Control_c, 0, 91, 127
2, 0, Text_t, "bdca426d104a26ac9dcb070447587523"
2, 0, Control_c, 0, 64, 0
2, 240, Note_on_c, 0, 69, 0
2, 240, Note_on_c, 0, 72, 0
2, 240, Note_on_c, 0, 72, 60
2, 240, Note_on_c, 0, 69, 54
2, 480, Note_on_c, 0, 69, 0
2, 480, Note_on_c, 0, 72, 0
2, 480, Note_on_c, 0, 74, 37
2, 480, Note_on_c, 0, 65, 33
2, 480, Note_on_c, 0, 69, 33
2, 1440, Note_on_c, 0, 69, 0
2, 1440, Note_on_c, 0, 65, 0
2, 1440, Note_on_c, 0, 74, 0
2, 1440, Note_on_c, 0, 69, 51
2, 1440, Note_on_c, 0, 72, 57
2, 1680, Note_on_c, 0, 72, 0
2, 1680, Note_on_c, 0, 69, 0
2, 1680, Note_on_c, 0, 72, 59
2, 1680, Note_on_c, 0, 69, 53
2, 1920, Note_on_c, 0, 69, 0
2, 1920, Note_on_c, 0, 72, 0
2, 1920, Note_on_c, 0, 62, 33
2, 1920, Note_on_c, 0, 71, 37
2, 1920, Note_on_c, 0, 68, 33
2, 2880, Note_on_c, 0, 68, 0
2, 2880, Note_on_c, 0, 71, 0
2, 2880, Note_on_c, 0, 62, 0
2, 2880, Note_on_c, 0, 69, 56
2, 2880, Note_on_c, 0, 66, 50
2, 3120, Note_on_c, 0, 66, 0
2, 3120, Note_on_c, 0, 69, 0
2, 3120, Note_on_c, 0, 66, 48
2, 3120, Note_on_c, 0, 69, 54
2, 3360, Note_on_c, 0, 69, 0
2, 3360, Note_on_c, 0, 66, 0
2, 3360, Note_on_c, 0, 72, 52
2, 3360, Note_on_c, 0, 60, 47
2, 3840, Note_on_c, 0, 60, 0
2, 3840, Note_on_c, 0, 72, 0
2, 3840, Note_on_c, 0, 66, 43
2, 3840, Note_on_c, 0, 69, 48
2, 4320, Note_on_c, 0, 69, 0
2, 4320, Note_on_c, 0, 66, 0
2, 4320, Note_on_c, 0, 64, 39
2, 4320, Note_on_c, 0, 68, 45
2, 4800, Note_on_c, 0, 68, 0
2, 4800, Note_on_c, 0, 64, 0
2, 4800, Note_on_c, 0, 59, 33
2, 4800, Note_on_c, 0, 68, 33
2, 4800, Note_on_c, 0, 71, 37
2, 5760, Note_on_c, 0, 71, 0
2, 5760, Note_on_c, 0, 68, 0
2, 5760, Note_on_c, 0, 59, 0
2, 5760, Note_on_c, 0, 72, 55
2, 5760, Note_on_c, 0, 69, 49
2, 6000, Note_on_c, 0, 69, 0
2, 6000, Note_on_c, 0, 72, 0
2, 6000, Note_on_c, 0, 69, 52
2, 6000, Note_on_c, 0, 72, 58
2, 6240, Note_on_c, 0, 72, 0
2, 6240, Note_on_c, 0, 69, 0
2, 6240, Note_on_c, 0, 76, 53
2, 6240, Note_on_c, 0, 64, 47
2, 6240, Note_on_c, 0, 73, 47
2, 7200, Note_on_c, 0, 73, 0
2, 7200, Note_on_c, 0, 64, 0
2, 7200, Note_on_c, 0, 76, 0
2, 7200, Note_on_c, 0, 74, 56
2, 7200, Note_on_c, 0, 77, 63
2, 7440, Note_on_c, 0, 77, 0
2, 7440, Note_on_c, 0, 74, 0
2, 7440, Note_on_c, 0, 77, 68
2, 7440, Note_on_c, 0, 74, 60
2, 7680, Note_on_c, 0, 74, 0
2, 7680, Note_on_c, 0, 77, 0
2, 7680, Note_on_c, 0, 69, 59
2, 7680, Note_on_c, 0, 81, 67
2, 7680, Note_on_c, 0, 78, 59
2, 8640, Note_on_c, 0, 78, 0
2, 8640, Note_on_c, 0, 81, 0
2, 8640, Note_on_c, 0, 69, 0
2, 8640, Note_on_c, 0, 67, 61
2, 8640, Note_on_c, 0, 72, 61
2, 8640, Note_on_c, 0, 79, 69
2, 8880, Note_on_c, 0, 79, 0
2, 8880, Note_on_c, 0, 67, 0
2, 8880, Note_on_c, 0, 67, 61
2, 8880, Note_on_c, 0, 79, 69
2, 9120, Note_on_c, 0, 79, 0
2, 9120, Note_on_c, 0, 67, 0
2, 9120, Note_on_c, 0, 76, 69
2, 9120, Note_on_c, 0, 68, 61
2, 9600, Note_on_c, 0, 68, 0
2, 9600, Note_on_c, 0, 76, 0
2, 9600, Note_on_c, 0, 72, 0
2, 9600, Note_on_c, 0, 72, 59
2, 9600, Note_on_c, 0, 69, 53
2, 10080, Note_on_c, 0, 69, 0
2, 10080, Note_on_c, 0, 72, 0
2, 10080, Note_on_c, 0, 71, 55
2, 10080, Note_on_c, 0, 68, 49
2, 10080, Note_on_c, 0, 64, 49
2, 10080, Note_on_c, 0, 76, 55
2, 10560, Note_on_c, 0, 68, 0
2, 10560, Note_on_c, 0, 71, 0
2, 10560, Note_on_c, 0, 69, 52
2, 11520, Note_on_c, 0, 69, 0
2, 11520, Note_on_c, 0, 64, 0
2, 11520, Note_on_c, 0, 76, 0
2, 11520, Note_on_c, 0, 59, 35
2, 11520, Note_on_c, 0, 56, 35
2, 11520, Note_on_c, 0, 64, 40
2, 11520, Note_on_c, 0, 52, 40
2, 12000, Note_on_c, 0, 56, 0
2, 12000, Note_on_c, 0, 59, 0
2, 12000, Note_on_c, 0, 57, 34
2, 12960, Note_on_c, 0, 57, 0
2, 12960, Note_on_c, 0, 64, 0
2, 12960, Note_on_c, 0, 52, 0
2, 12960, Note_on_c, 0, 69, 38
2, 12960, Note_on_c, 0, 72, 44
2, 13200, Note_on_c, 0, 72, 0
2, 13200, Note_on_c, 0, 69, 0
2, 13200, Note_on_c, 0, 69, 38
2, 13200, Note_on_c, 0, 72, 44
2, 13440, Note_on_c, 0, 72, 0
2, 13440, Note_on_c, 0, 69, 0
2, 13440, Note_on_c, 0, 71, 42
2, 13440, Note_on_c, 0, 65, 42
2, 13440, Note_on_c, 0, 74, 47
2, 13680, Note_on_c, 0, 74, 0
2, 13680, Note_on_c, 0, 65, 0
2, 13680, Note_on_c, 0, 71, 0
2, 13680, Note_on_c, 0, 69, 38
2, 13680, Note_on_c, 0, 72, 44
2, 13920, Note_on_c, 0, 72, 0
2, 13920, Note_on_c, 0, 69, 0
2, 13920, Note_on_c, 0, 65, 38
2, 13920, Note_on_c, 0, 71, 38
2, 13920, Note_on_c, 0, 74, 38
2, 14400, Note_on_c, 0, 74, 0
2, 14400, Note_on_c, 0, 71, 0
2, 14400, Note_on_c, 0, 65, 0
2, 14400, Note_on_c, 0, 72, 47
2, 14400, Note_on_c, 0, 69, 42
2, 14640, Note_on_c, 0, 69, 0
2, 14640, Note_on_c, 0, 72, 0
2, 14640, Note_on_c, 0, 69, 42
2, 14640, Note_on_c, 0, 72, 47
2, 14880, Note_on_c, 0, 72, 0
2, 14880, Note_on_c, 0, 69, 0
2, 14880, Note_on_c, 0, 71, 44
2, 14880, Note_on_c, 0, 62, 39
2, 14880, Note_on_c, 0, 68, 39
2, 15120, Note_on_c, 0, 68, 0
2, 15120, Note_on_c, 0, 62, 0
2, 15120, Note_on_c, 0, 71, 0
2, 15120, Note_on_c, 0, 65, 38
2, 15120, Note_on_c, 0, 69, 38
2, 15360, Note_on_c, 0, 69, 0
2, 15360, Note_on_c, 0, 65, 0
2, 15360, Note_on_c, 0, 68, 37
2, 15360, Note_on_c, 0, 71, 37
2, 15360, Note_on_c, 0, 62, 37
2, 15840, Note_on_c, 0, 62, 0
2, 15840, Note_on_c, 0, 71, 0
2, 15840, Note_on_c, 0, 68, 0
2, 15840, Note_on_c, 0, 69, 45
2, 15840, Note_on_c, 0, 66, 39
2, 16080, Note_on_c, 0, 66, 0
2, 16080, Note_on_c, 0, 69, 0
2, 16080, Note_on_c, 0, 69, 46
2, 16080, Note_on_c, 0, 66, 40
2, 16320, Note_on_c, 0, 66, 0
2, 16320, Note_on_c, 0, 60, 46
2, 16320, Note_on_c, 0, 72, 51
2, 16560, Note_on_c, 0, 72, 0
2, 16560, Note_on_c, 0, 60, 0
2, 16560, Note_on_c, 0, 69, 0
2, 16560, Note_on_c, 0, 71, 48
2, 16560, Note_on_c, 0, 68, 43
2, 16800, Note_on_c, 0, 68, 0
2, 16800, Note_on_c, 0, 71, 0
2, 16800, Note_on_c, 0, 60, 43
2, 16800, Note_on_c, 0, 72, 48
2, 16800, Note_on_c, 0, 69, 43
2, 17040, Note_on_c, 0, 69, 0
2, 17040, Note_on_c, 0, 72, 0
2, 17040, Note_on_c, 0, 60, 0
2, 17040, Note_on_c, 0, 69, 46
2, 17040, Note_on_c, 0, 66, 40
2, 17280, Note_on_c, 0, 66, 0
2, 17280, Note_on_c, 0, 69, 0
2, 17280, Note_on_c, 0, 64, 39
2, 17280, Note_on_c, 0, 68, 45
2, 17760, Note_on_c, 0, 68, 0
2, 17760, Note_on_c, 0, 64, 0
2, 17760, Note_on_c, 0, 68, 34
2, 17760, Note_on_c, 0, 71, 38
2, 17760, Note_on_c, 0, 59, 34
2, 18720, Note_on_c, 0, 59, 0
2, 18720, Note_on_c, 0, 71, 0
2, 18720, Note_on_c, 0, 68, 0
2, 18720, Note_on_c, 0, 72, 58
2, 18720, Note_on_c, 0, 69, 52
2, 18960, Note_on_c, 0, 69, 0
2, 18960, Note_on_c, 0, 72, 0
2, 18960, Note_on_c, 0, 72, 58
2, 18960, Note_on_c, 0, 69, 52
2, 19200, Note_on_c, 0, 69, 0
2, 19200, Note_on_c, 0, 72, 0
2, 19200, Note_on_c, 0, 76, 58
2, 19200, Note_on_c, 0, 73, 52
2, 19200, Note_on_c, 0, 64, 52
2, 19440, Note_on_c, 0, 64, 0
2, 19440, Note_on_c, 0, 73, 0
2, 19440, Note_on_c, 0, 76, 0
2, 19440, Note_on_c, 0, 71, 52
2, 19440, Note_on_c, 0, 65, 52
2, 19440, Note_on_c, 0, 74, 58
2, 19680, Note_on_c, 0, 74, 0
2, 19680, Note_on_c, 0, 65, 0
2, 19680, Note_on_c, 0, 71, 0
2, 19680, Note_on_c, 0, 76, 58
2, 19680, Note_on_c, 0, 64, 52
2, 19680, Note_on_c, 0, 73, 58
2, 19920, Note_on_c, 0, 64, 0
2, 19920, Note_on_c, 0, 79, 61
2, 19920, Note_on_c, 0, 69, 55
2, 20160, Note_on_c, 0, 69, 0
2, 20160, Note_on_c, 0, 76, 0
2, 20160, Note_on_c, 0, 73, 0
2, 20160, Note_on_c, 0, 79, 0
2, 20160, Note_on_c, 0, 74, 52
2, 20160, Note_on_c, 0, 77, 58
2, 20160, Note_on_c, 0, 69, 52
2, 20400, Note_on_c, 0, 69, 0
2, 20400, Note_on_c, 0, 77, 0
2, 20400, Note_on_c, 0, 74, 0
2, 20400, Note_on_c, 0, 74, 52
2, 20400, Note_on_c, 0, 69, 52
2, 20400, Note_on_c, 0, 77, 58
2, 20640, Note_on_c, 0, 77, 0
2, 20640, Note_on_c, 0, 69, 0
2, 20640, Note_on_c, 0, 74, 0
2, 20640, Note_on_c, 0, 81, 63
2, 20640, Note_on_c, 0, 78, 56
2, 20640, Note_on_c, 0, 72, 56
2, 20880, Note_on_c, 0, 72, 0
2, 20880, Note_on_c, 0, 78, 0
2, 20880, Note_on_c, 0, 81, 0
2, 20880, Note_on_c, 0, 77, 60
2, 20880, Note_on_c, 0, 80, 60
2, 20880, Note_on_c, 0, 71, 54
2, 21120, Note_on_c, 0, 71, 0
2, 21120, Note_on_c, 0, 80, 0
2, 21120, Note_on_c, 0, 77, 0
2, 21120, Note_on_c, 0, 81, 66
2, 21120, Note_on_c, 0, 72, 58
2, 21120, Note_on_c, 0, 78, 58
2, 21360, Note_on_c, 0, 72, 0
2, 21360, Note_on_c, 0, 84, 67
2, 21600, Note_on_c, 0, 84, 0
2, 21600, Note_on_c, 0, 78, 0
2, 21600, Note_on_c, 0, 81, 0
2, 21600, Note_on_c, 0, 79, 68
2, 21600, Note_on_c, 0, 72, 60
2, 21600, Note_on_c, 0, 67, 60
2, 21840, Note_on_c, 0, 67, 0
2, 21840, Note_on_c, 0, 72, 0
2, 21840, Note_on_c, 0, 79, 0
2, 21840, Note_on_c, 0, 72, 61
2, 21840, Note_on_c, 0, 67, 61
2, 21840, Note_on_c, 0, 79, 61
2, 22080, Note_on_c, 0, 79, 0
2, 22080, Note_on_c, 0, 67, 0
2, 22080, Note_on_c, 0, 68, 60
2, 22080, Note_on_c, 0, 77, 68
2, 22320, Note_on_c, 0, 77, 0
2, 22320, Note_on_c, 0, 76, 64
2, 22560, Note_on_c, 0, 76, 0
2, 22560, Note_on_c, 0, 68, 0
2, 22560, Note_on_c, 0, 72, 0
2, 22560, Note_on_c, 0, 74, 63
2, 22560, Note_on_c, 0, 69, 56
2, 22800, Note_on_c, 0, 74, 0
2, 22800, Note_on_c, 0, 72, 57
2, 23040, Note_on_c, 0, 72, 0
2, 23040, Note_on_c, 0, 69, 0
2, 23040, Note_on_c, 0, 71, 56
2, 23040, Note_on_c, 0, 64, 50
2, 23040, Note_on_c, 0, 68, 50
2, 23040, Note_on_c, 0, 76, 56
2, 23520, Note_on_c, 0, 68, 0
2, 23520, Note_on_c, 0, 71, 0
2, 23520, Note_on_c, 0, 69, 55
2, 24480, Note_on_c, 0, 69, 0
2, 24480, Note_on_c, 0, 64, 0
2, 24480, Note_on_c, 0, 76, 0
2, 24480, Note_on_c, 0, 59, 40
2, 24480, Note_on_c, 0, 56, 36
2, 24480, Note_on_c, 0, 64, 40
2, 24480, Note_on_c, 0, 52, 36
2, 24960, Note_on_c, 0, 56, 0
2, 24960, Note_on_c, 0, 59, 0
2, 24960, Note_on_c, 0, 57, 40
2, 25920, Note_on_c, 0, 57, 0
2, 25920, Note_on_c, 0, 64, 0
2, 25920, Note_on_c, 0, 52, 0
2, 25920, Note_on_c, 0, 76, 45
2, 25920, Control_c, 0, 91, 127
2, 26040, Note_on_c, 0, 76, 0
2, 26040, Note_on_c, 0, 88, 50
2, 26160, Note_on_c, 0, 88, 0
2, 26160, Note_on_c, 0, 86, 51
2, 26280, Note_on_c, 0, 86, 0
2, 26280, Note_on_c, 0, 74, 47
2, 26400, Note_on_c, 0, 74, 0
2, 26400, Note_on_c, 0, 77, 48
2, 26520, Note_on_c, 0, 77, 0
2, 26520, Note_on_c, 0, 89, 50
2, 26640, Note_on_c, 0, 89, 0
2, 26640, Note_on_c, 0, 88, 52
2, 26760, Note_on_c, 0, 88, 0
2, 26760, Note_on_c, 0, 76, 48
2, 26880, Note_on_c, 0, 76, 0
2, 26880, Note_on_c, 0, 74, 49
2, 27000, Note_on_c, 0, 74, 0
2, 27000, Note_on_c, 0, 86, 54
2, 27120, Note_on_c, 0, 86, 0
2, 27120, Note_on_c, 0, 84, 51
2, 27240, Note_on_c, 0, 84, 0
2, 27240, Note_on_c, 0, 72, 51
2, 27360, Note_on_c, 0, 72, 0
2, 27360, Note_on_c, 0, 71, 55
2, 27480, Note_on_c, 0, 71, 0
2, 27480, Note_on_c, 0, 83, 56
2, 27600, Note_on_c, 0, 83, 0
2, 27600, Note_on_c, 0, 86, 52
2, 27720, Note_on_c, 0, 86, 0
2, 27720, Note_on_c, 0, 74, 54
2, 27840, Note_on_c, 0, 74, 0
2, 27840, Note_on_c, 0, 72, 51
2, 27960, Note_on_c, 0, 72, 0
2, 27960, Note_on_c, 0, 84, 51
2, 28080, Note_on_c, 0, 84, 0
2, 28080, Note_on_c, 0, 83, 56
2, 28200, Note_on_c, 0, 83, 0
2, 28200, Note_on_c, 0, 74, 49
2, 28320, Note_on_c, 0, 74, 0
2, 28320, Note_on_c, 0, 69, 52
2, 28440, Note_on_c, 0, 69, 0
2, 28440, Note_on_c, 0, 81, 48
2, 29040, Note_on_c, 0, 81, 0
2, 29040, Note_on_c, 0, 69, 49
2, 29160, Note_on_c, 0, 81, 44
2, 29760, Note_on_c, 0, 81, 0
2, 29760, Note_on_c, 0, 69, 0
2, 29760, Note_on_c, 0, 67, 53
2, 29880, Note_on_c, 0, 67, 0
2, 29880, Note_on_c, 0, 79, 51
2, 30000, Note_on_c, 0, 79, 0
2, 30000, Note_on_c, 0, 78, 54
2, 30120, Note_on_c, 0, 78, 0
2, 30120, Note_on_c, 0, 66, 50
2, 30240, Note_on_c, 0, 66, 0
2, 30240, Note_on_c, 0, 71, 51
2, 30360, Note_on_c, 0, 71, 0
2, 30360, Note_on_c, 0, 83, 54
2, 30480, Note_on_c, 0, 83, 0
2, 30480, Note_on_c, 0, 81, 57
2, 30600, Note_on_c, 0, 81, 0
2, 30600, Note_on_c, 0, 69, 52
2, 30720, Note_on_c, 0, 69, 0
2, 30720, Note_on_c, 0, 67, 52
2, 30840, Note_on_c, 0, 67, 0
2, 30840, Note_on_c, 0, 79, 55
2, 30960, Note_on_c, 0, 79, 0
2, 30960, Note_on_c, 0, 78, 59
2, 31080, Note_on_c, 0, 78, 0
2, 31080, Note_on_c, 0, 66, 53
2, 31200, Note_on_c, 0, 66, 0
2, 31200, Note_on_c, 0, 69, 54
2, 31320, Note_on_c, 0, 69, 0
2, 31320, Note_on_c, 0, 81, 56
2, 31440, Note_on_c, 0, 81, 0
2, 31440, Note_on_c, 0, 84, 59
2, 31560, Note_on_c, 0, 84, 0
2, 31560, Note_on_c, 0, 72, 55
2, 31680, Note_on_c, 0, 72, 0
2, 31680, Note_on_c, 0, 71, 56
2, 31800, Note_on_c, 0, 71, 0
2, 31800, Note_on_c, 0, 83, 60
2, 31920, Note_on_c, 0, 83, 0
2, 31920, Note_on_c, 0, 86, 61
2, 32040, Note_on_c, 0, 86, 0
2, 32040, Note_on_c, 0, 74, 56
2, 32160, Note_on_c, 0, 74, 0
2, 32160, Note_on_c, 0, 77, 57
2, 32280, Note_on_c, 0, 77, 0
2, 32280, Note_on_c, 0, 89, 64
2, 32400, Note_on_c, 0, 89, 0
2, 32400, Note_on_c, 0, 88, 65
2, 32520, Note_on_c, 0, 88, 0
2, 32520, Note_on_c, 0, 76, 58
2, 32640, Note_on_c, 0, 76, 0
2, 32640, Note_on_c, 0, 74, 58
2, 32760, Note_on_c, 0, 74, 0
2, 32760, Note_on_c, 0, 86, 61
2, 32880, Note_on_c, 0, 86, 0
2, 32880, Note_on_c, 0, 89, 68
2, 33000, Note_on_c, 0, 89, 0
2, 33000, Note_on_c, 0, 77, 60
2, 33120, Note_on_c, 0, 77, 0
2, 33120, Note_on_c, 0, 76, 60
2, 33240, Note_on_c, 0, 76, 0
2, 33240, Note_on_c, 0, 88, 65
2, 33360, Note_on_c, 0, 88, 0
2, 33360, Note_on_c, 0, 86, 69
2, 33480, Note_on_c, 0, 86, 0
2, 33480, Note_on_c, 0, 74, 61
2, 33600, Note_on_c, 0, 74, 0
2, 33600, Note_on_c, 0, 77, 63
2, 33720, Note_on_c, 0, 77, 0
2, 33720, Note_on_c, 0, 89, 66
2, 33840, Note_on_c, 0, 89, 0
2, 33840, Note_on_c, 0, 88, 67
2, 33960, Note_on_c, 0, 88, 0
2, 33960, Note_on_c, 0, 76, 59
2, 34080, Note_on_c, 0, 76, 0
2, 34080, Note_on_c, 0, 74, 59
2, 34200, Note_on_c, 0, 74, 0
2, 34200, Note_on_c, 0, 86, 60
2, 34320, Note_on_c, 0, 86, 0
2, 34320, Note_on_c, 0, 84, 59
2, 34440, Note_on_c, 0, 84, 0
2, 34440, Note_on_c, 0, 72, 54
2, 34560, Note_on_c, 0, 72, 0
2, 34560, Note_on_c, 0, 71, 54
2, 34680, Note_on_c, 0, 71, 0
2, 34680, Note_on_c, 0, 83, 59
2, 34800, Note_on_c, 0, 83, 0
2, 34800, Note_on_c, 0, 86, 60
2, 34920, Note_on_c, 0, 86, 0
2, 34920, Note_on_c, 0, 74, 54
2, 35040, Note_on_c, 0, 74, 0
2, 35040, Note_on_c, 0, 72, 50
2, 35160, Note_on_c, 0, 72, 0
2, 35160, Note_on_c, 0, 84, 51
2, 35280, Note_on_c, 0, 84, 0
2, 35280, Note_on_c, 0, 83, 54
2, 35400, Note_on_c, 0, 83, 0
2, 35400, Note_on_c, 0, 74, 46
2, 35520, Note_on_c, 0, 74, 0
2, 35520, Note_on_c, 0, 69, 50
2, 35640, Note_on_c, 0, 69, 0
2, 35640, Note_on_c, 0, 81, 46
2, 36240, Note_on_c, 0, 81, 0
2, 36240, Note_on_c, 0, 69, 49
2, 36360, Note_on_c, 0, 81, 42
2, 36960, Note_on_c, 0, 81, 0
2, 36960, Note_on_c, 0, 69, 0
2, 36960, Note_on_c, 0, 67, 49
2, 37080, Note_on_c, 0, 67, 0
2, 37080, Note_on_c, 0, 79, 57
2, 37200, Note_on_c, 0, 79, 0
2, 37200, Note_on_c, 0, 78, 57
2, 37320, Note_on_c, 0, 78, 0
2, 37320, Note_on_c, 0, 66, 53
2, 37440, Note_on_c, 0, 66, 0
2, 37440, Note_on_c, 0, 71, 53
2, 37560, Note_on_c, 0, 71, 0
2, 37560, Note_on_c, 0, 83, 58
2, 37680, Note_on_c, 0, 83, 0
2, 37680, Note_on_c, 0, 81, 63
2, 37800, Note_on_c, 0, 81, 0
2, 37800, Note_on_c, 0, 69, 57
2, 37920, Note_on_c, 0, 69, 0
2, 37920, Note_on_c, 0, 67, 57
2, 38040, Note_on_c, 0, 67, 0
2, 38040, Note_on_c, 0, 79, 67
2, 38160, Note_on_c, 0, 79, 0
2, 38160, Note_on_c, 0, 78, 67
2, 38280, Note_on_c, 0, 78, 0
2, 38280, Note_on_c, 0, 66, 58
2, 38400, Note_on_c, 0, 66, 0
2, 38400, Note_on_c, 0, 69, 58
2, 38520, Note_on_c, 0, 69, 0
2, 38520, Note_on_c, 0, 81, 65
2, 38640, Note_on_c, 0, 81, 0
2, 38640, Note_on_c, 0, 84, 71
2, 38760, Note_on_c, 0, 84, 0
2, 38760, Note_on_c, 0, 72, 68
2, 38880, Note_on_c, 0, 72, 0
2, 38880, Note_on_c, 0, 71, 68
2, 39000, Note_on_c, 0, 71, 0
2, 39000, Note_on_c, 0, 83, 70
2, 39120, Note_on_c, 0, 83, 0
2, 39120, Note_on_c, 0, 86, 75
2, 39240, Note_on_c, 0, 86, 0
2, 39240, Note_on_c, 0, 74, 72
2, 39360, Note_on_c, 0, 74, 0
2, 39360, Note_on_c, 0, 77, 72
2, 39480, Note_on_c, 0, 77, 0
2, 39480, Note_on_c, 0, 89, 75
2, 39600, Note_on_c, 0, 89, 0
2, 39600, Note_on_c, 0, 88, 79
2, 39720, Note_on_c, 0, 88, 0
2, 39720, Note_on_c, 0, 76, 74
2, 39840, Note_on_c, 0, 76, 0
2, 39840, Note_on_c, 0, 79, 74
2, 39960, Note_on_c, 0, 79, 0
2, 39960, Note_on_c, 0, 91, 76
2, 40080, Note_on_c, 0, 91, 0
2, 40080, Note_on_c, 0, 89, 79
2, 40200, Note_on_c, 0, 89, 0
2, 40200, Note_on_c, 0, 77, 74
2, 40320, Note_on_c, 0, 77, 0
2, 40320, Note_on_c, 0, 76, 74
2, 40440, Note_on_c, 0, 76, 0
2, 40440, Note_on_c, 0, 88, 74
2, 40560, Note_on_c, 0, 88, 0
2, 40560, Note_on_c, 0, 91, 79
2, 40680, Note_on_c, 0, 91, 0
2, 40680, Note_on_c, 0, 79, 74
2, 40800, Note_on_c, 0, 79, 0
2, 40800, Note_on_c, 0, 77, 74
2, 40920, Note_on_c, 0, 77, 0
2, 40920, Note_on_c, 0, 89, 75
2, 41040, Note_on_c, 0, 89, 0
2, 41040, Note_on_c, 0, 88, 80
2, 41160, Note_on_c, 0, 88, 0
2, 41160, Note_on_c, 0, 76, 76
2, 41280, Note_on_c, 0, 76, 0
2, 41280, Note_on_c, 0, 81, 75
2, 41400, Note_on_c, 0, 81, 0
2, 41400, Note_on_c, 0, 93, 73
2, 41520, Note_on_c, 0, 93, 0
2, 41520, Note_on_c, 0, 89, 80
2, 41640, Note_on_c, 0, 89, 0
2, 41640, Note_on_c, 0, 77, 74
2, 41760, Note_on_c, 0, 77, 0
2, 41760, Note_on_c, 0, 79, 74
2, 41880, Note_on_c, 0, 79, 0
2, 41880, Note_on_c, 0, 91, 72
2, 42000, Note_on_c, 0, 91, 0
2, 42000, Note_on_c, 0, 88, 78
2, 42120, Note_on_c, 0, 88, 0
2, 42120, Note_on_c, 0, 76, 69
2, 42240, Note_on_c, 0, 76, 0
2, 42240, Note_on_c, 0, 77, 69
2, 42360, Note_on_c, 0, 77, 0
2, 42360, Note_on_c, 0, 89, 72
2, 42480, Note_on_c, 0, 89, 0
2, 42480, Note_on_c, 0, 86, 71
2, 42600, Note_on_c, 0, 86, 0
2, 42600, Note_on_c, 0, 74, 66
2, 42720, Note_on_c, 0, 74, 0
2, 42720, Note_on_c, 0, 76, 64
2, 42840, Note_on_c, 0, 76, 0
2, 42840, Note_on_c, 0, 88, 60
2, 42960, Note_on_c, 0, 88, 0
2, 42960, Note_on_c, 0, 85, 58
2, 43080, Note_on_c, 0, 85, 0
2, 43080, Note_on_c, 0, 73, 56
2, 43200, Note_on_c, 0, 73, 0
2, 43200, Note_on_c, 0, 76, 55
2, 43320, Note_on_c, 0, 76, 0
2, 43320, Note_on_c, 0, 88, 57
2, 43440, Note_on_c, 0, 88, 0
2, 43440, Note_on_c, 0, 86, 60
2, 43560, Note_on_c, 0, 86, 0
2, 43560, Note_on_c, 0, 74, 52
2, 43680, Note_on_c, 0, 74, 0
2, 43680, Note_on_c, 0, 72, 51
2, 43800, Note_on_c, 0, 72, 0
2, 43800, Note_on_c, 0, 84, 56
2, 43920, Note_on_c, 0, 84, 0
2, 43920, Note_on_c, 0, 83, 55
2, 44040, Note_on_c, 0, 83, 0
2, 44040, Note_on_c, 0, 71, 48
2, 44160, Note_on_c, 0, 71, 0
2, 44160, Note_on_c, 0, 74, 49
2, 44280, Note_on_c, 0, 74, 0
2, 44280, Note_on_c, 0, 86, 53
2, 44400, Note_on_c, 0, 86, 0
2, 44400, Note_on_c, 0, 84, 53
2, 44520, Note_on_c, 0, 84, 0
2, 44520, Note_on_c, 0, 72, 48
2, 44640, Note_on_c, 0, 72, 0
2, 44640, Note_on_c, 0, 71, 48
2, 44760, Note_on_c, 0, 71, 0
2, 44760, Note_on_c, 0, 83, 48
2, 44880, Note_on_c, 0, 83, 0
2, 44880, Note_on_c, 0, 86, 48
2, 45000, Note_on_c, 0, 74, 48
2, 45360, Note_on_c, 0, 74, 0
2, 45360, Note_on_c, 0, 86, 0
2, 45360, Note_on_c, 0, 72, 42
2, 45480, Note_on_c, 0, 72, 0
2, 45480, Note_on_c, 0, 84, 40
2, 45840, Note_on_c, 0, 84, 0
2, 45840, Note_on_c, 0, 83, 43
2, 45960, Note_on_c, 0, 71, 37
2, 46320, Note_on_c, 0, 71, 0
2, 46320, Note_on_c, 0, 83, 0
2, 46320, Note_on_c, 0, 69, 38
2, 46440, Note_on_c, 0, 81, 35
2, 47520, Note_on_c, 0, 81, 0
2, 47520, Note_on_c, 0, 69, 0
2, 47520, Note_on_c, 0, 69, 35
2, 47640, Note_on_c, 0, 81, 33
2, 48960, Note_on_c, 0, 81, 0
2, 48960, Note_on_c, 0, 69, 0
2, 48960, Note_on_c, 0, 57, 54
2, 48960, Note_on_c, 0, 61, 54
2, 48960, Control_c, 0, 91, 127
2, 48960, Note_on_c, 0, 69, 60
2, 49360, Note_on_c, 0, 62, 37
2, 49440, Note_on_c, 0, 69, 0
2, 49440, Note_on_c, 0, 61, 0
2, 49440, Note_on_c, 0, 68, 55
2, 49560, Note_on_c, 0, 68, 0
2, 49560, Note_on_c, 0, 66, 52
2, 50400, Note_on_c, 0, 66, 0
2, 50400, Note_on_c, 0, 57, 0
2, 50400, Note_on_c, 0, 62, 0
2, 50400, Control_c, 0, 91, 127
2, 50400, Note_on_c, 0, 57, 52
2, 50400, Note_on_c, 0, 61, 52
2, 50400, Note_on_c, 0, 69, 58
2, 50800, Note_on_c, 0, 59, 30
2, 50880, Note_on_c, 0, 69, 0
2, 50880, Note_on_c, 0, 57, 0
2, 50880, Note_on_c, 0, 61, 0
2, 50880, Note_on_c, 0, 64, 53
2, 51000, Note_on_c, 0, 64, 0
2, 51000, Note_on_c, 0, 62, 48
2, 51840, Note_on_c, 0, 62, 0
2, 51840, Note_on_c, 0, 59, 0
2, 51840, Note_on_c, 0, 57, 47
2, 51840, Note_on_c, 0, 66, 52
2, 52320, Note_on_c, 0, 66, 0
2, 52320, Note_on_c, 0, 61, 50
2, 52800, Note_on_c, 0, 61, 0
2, 52800, Note_on_c, 0, 66, 44
2, 53280, Note_on_c, 0, 66, 0
2, 53280, Note_on_c, 0, 57, 0
2, 53280, Note_on_c, 0, 56, 35
2, 53280, Note_on_c, 0, 64, 39
2, 53760, Note_on_c, 0, 64, 0
2, 53760, Note_on_c, 0, 59, 38
2, 54720, Note_on_c, 0, 59, 0
2, 54720, Note_on_c, 0, 56, 0
2, 54720, Note_on_c, 0, 69, 35
2, 54720, Note_on_c, 0, 81, 48
2, 54720, Note_on_c, 0, 73, 35
2, 54960, Note_on_c, 0, 81, 0
2, 54960, Note_on_c, 0, 81, 48
2, 55080, Note_on_c, 0, 80, 43
2, 55200, Note_on_c, 0, 80, 0
2, 55200, Note_on_c, 0, 69, 0
2, 55200, Note_on_c, 0, 73, 0
2, 55200, Note_on_c, 0, 81, 0
2, 55200, Note_on_c, 0, 78, 37
2, 55200, Note_on_c, 0, 74, 25
2, 55200, Note_on_c, 0, 69, 25
2, 56160, Note_on_c, 0, 69, 0
2, 56160, Note_on_c, 0, 74, 0
2, 56160, Note_on_c, 0, 78, 0
2, 56160, Note_on_c, 0, 73, 32
2, 56160, Note_on_c, 0, 69, 32
2, 56160, Note_on_c, 0, 81, 44
2, 56400, Note_on_c, 0, 81, 0
2, 56400, Note_on_c, 0, 81, 44
2, 56520, Note_on_c, 0, 76, 40
2, 56640, Note_on_c, 0, 76, 0
2, 56640, Note_on_c, 0, 73, 0
2, 56640, Note_on_c, 0, 69, 0
2, 56640, Note_on_c, 0, 81, 0
2, 56640, Note_on_c, 0, 71, 25
2, 56640, Note_on_c, 0, 74, 35
2, 57600, Note_on_c, 0, 74, 0
2, 57600, Note_on_c, 0, 71, 0
2, 57600, Note_on_c, 0, 69, 42
2, 57600, Note_on_c, 0, 78, 47
2, 57840, Note_on_c, 0, 78, 0
2, 57840, Note_on_c, 0, 78, 47
2, 58080, Note_on_c, 0, 78, 0
2, 58080, Note_on_c, 0, 73, 39
2, 58560, Note_on_c, 0, 73, 0
2, 58560, Note_on_c, 0, 78, 39
2, 59040, Note_on_c, 0, 78, 0
2, 59040, Note_on_c, 0, 69, 0
2, 59040, Note_on_c, 0, 68, 33
2, 59040, Note_on_c, 0, 76, 37
2, 59520, Note_on_c, 0, 76, 0
2, 59520, Note_on_c, 0, 71, 32
2, 60480, Note_on_c, 0, 71, 0
2, 60480, Note_on_c, 0, 68, 0
2, 60720, Note_on_c, 0, 57, 46
2, 60720, Note_on_c, 0, 66, 49
2, 60960, Note_on_c, 0, 66, 0
2, 60960, Note_on_c, 0, 61, 59
2, 61200, Note_on_c, 0, 61, 0
2, 61200, Note_on_c, 0, 68, 51
2, 61440, Note_on_c, 0, 68, 0
2, 61440, Note_on_c, 0, 61, 50
2, 61680, Note_on_c, 0, 61, 0
2, 61680, Note_on_c, 0, 66, 46
2, 61920, Note_on_c, 0, 66, 0
2, 61920, Note_on_c, 0, 57, 0
2, 62160, Note_on_c, 0, 56, 53
2, 62160, Note_on_c, 0, 64, 64
2, 62340, Note_on_c, 0, 64, 0
2, 62340, Note_on_c, 0, 56, 0
2, 62640, Note_on_c, 0, 68, 58
2, 62640, Note_on_c, 0, 76, 69
2, 62820, Note_on_c, 0, 76, 0
2, 62820, Note_on_c, 0, 68, 0
2, 63120, Note_on_c, 0, 88, 78
2, 63120, Note_on_c, 0, 76, 66
2, 63120, Note_on_c, 0, 80, 66
2, 63360, Note_on_c, 0, 80, 0
2, 63360, Note_on_c, 0, 76, 0
2, 63360, Note_on_c, 0, 88, 0
2, 63360, Note_on_c, 0, 77, 68
2, 63360, Note_on_c, 0, 83, 80
2, 63600, Note_on_c, 0, 83, 0
2, 63600, Note_on_c, 0, 77, 0
2, 63600, Note_on_c, 0, 86, 73
2, 63600, Note_on_c, 0, 74, 61
2, 63840, Note_on_c, 0, 74, 0
2, 63840, Note_on_c, 0, 86, 0
2, 63840, Note_on_c, 0, 77, 60
2, 63840, Note_on_c, 0, 81, 72
2, 64080, Note_on_c, 0, 81, 0
2, 64080, Note_on_c, 0, 77, 0
2, 64080, Note_on_c, 0, 84, 70
2, 64080, Note_on_c, 0, 72, 58
2, 64320, Note_on_c, 0, 72, 0
2, 64320, Note_on_c, 0, 84, 0
2, 64320, Note_on_c, 0, 79, 77
2, 64320, Note_on_c, 0, 74, 65
2, 64560, Note_on_c, 0, 74, 0
2, 64560, Note_on_c, 0, 79, 0
2, 64560, Note_on_c, 0, 83, 65
2, 64560, Note_on_c, 0, 71, 54
2, 64800, Note_on_c, 0, 71, 0
2, 64800, Note_on_c, 0, 83, 0
2, 64800, Note_on_c, 0, 77, 76
2, 64800, Note_on_c, 0, 72, 65
2, 65040, Note_on_c, 0, 77, 0
2, 65040, Note_on_c, 0, 81, 63
2, 65280, Note_on_c, 0, 81, 0
2, 65280, Note_on_c, 0, 72, 0
2, 65280, Note_on_c, 0, 74, 59
2, 65280, Note_on_c, 0, 79, 67
2, 65520, Note_on_c, 0, 79, 0
2, 65520, Note_on_c, 0, 74, 0
2, 65520, Note_on_c, 0, 77, 61
2, 65520, Note_on_c, 0, 72, 54
2, 65760, Note_on_c, 0, 72, 0
2, 65760, Note_on_c, 0, 77, 0
2, 65760, Note_on_c, 0, 76, 59
2, 65760, Note_on_c, 0, 71, 53
2, 66000, Note_on_c, 0, 71, 0
2, 66000, Note_on_c, 0, 76, 0
2, 66000, Note_on_c, 0, 75, 55
2, 66000, Note_on_c, 0, 69, 50
2, 66240, Note_on_c, 0, 69, 0
2, 66240, Note_on_c, 0, 75, 0
2, 66240, Note_on_c, 0, 68, 47
2, 66240, Note_on_c, 0, 76, 52
2, 66480, Note_on_c, 0, 76, 0
2, 66480, Note_on_c, 0, 68, 0
2, 66480, Note_on_c, 0, 79, 57
2, 66480, Note_on_c, 0, 73, 57
2, 66720, Note_on_c, 0, 73, 0
2, 66720, Note_on_c, 0, 79, 0
2, 66720, Note_on_c, 0, 72, 50
2, 66720, Note_on_c, 0, 78, 55
2, 66960, Note_on_c, 0, 78, 0
2, 66960, Note_on_c, 0, 72, 0
2, 66960, Note_on_c, 0, 71, 47
2, 66960, Note_on_c, 0, 77, 52
2, 67200, Note_on_c, 0, 77, 0
2, 67200, Note_on_c, 0, 71, 0
2, 67200, Note_on_c, 0, 70, 44
2, 67200, Note_on_c, 0, 76, 49
2, 67440, Note_on_c, 0, 76, 0
2, 67440, Note_on_c, 0, 70, 0
2, 67440, Note_on_c, 0, 69, 46
2, 67440, Note_on_c, 0, 75, 46
2, 67680, Note_on_c, 0, 75, 0
2, 67680, Note_on_c, 0, 69, 0
2, 67680, Note_on_c, 0, 74, 44
2, 67680, Note_on_c, 0, 68, 38
2, 67920, Note_on_c, 0, 68, 0
2, 67920, Note_on_c, 0, 74, 0
2, 67920, Note_on_c, 0, 73, 42
2, 67920, Note_on_c, 0, 67, 37
2, 68160, Note_on_c, 0, 67, 0
2, 68160, Note_on_c, 0, 73, 0
2, 68160, Note_on_c, 0, 74, 44
2, 68160, Note_on_c, 0, 66, 38
2, 68400, Note_on_c, 0, 66, 0
2, 68400, Note_on_c, 0, 74, 0
2, 68400, Note_on_c, 0, 65, 37
2, 68400, Note_on_c, 0, 71, 42
2, 68640, Note_on_c, 0, 71, 0
2, 68640, Note_on_c, 0, 65, 0
2, 68640, Note_on_c, 0, 72, 44
2, 68640, Note_on_c, 0, 64, 38
2, 68880, Note_on_c, 0, 64, 0
2, 68880, Note_on_c, 0, 72, 0
2, 68880, Note_on_c, 0, 67, 44
2, 68880, Note_on_c, 0, 73, 49
2, 69120, Note_on_c, 0, 73, 0
2, 69120, Note_on_c, 0, 67, 0
2, 69120, Note_on_c, 0, 66, 47
2, 69120, Note_on_c, 0, 74, 52
2, 69360, Note_on_c, 0, 74, 0
2, 69360, Note_on_c, 0, 66, 0
2, 69360, Note_on_c, 0, 65, 40
2, 69360, Note_on_c, 0, 71, 46
2, 69600, Note_on_c, 0, 71, 0
2, 69600, Note_on_c, 0, 65, 0
2, 69600, Note_on_c, 0, 64, 36
2, 69600, Note_on_c, 0, 72, 40
2, 69840, Note_on_c, 0, 72, 0
2, 69840, Note_on_c, 0, 64, 0
2, 69840, Note_on_c, 0, 73, 34
2, 69840, Note_on_c, 0, 67, 30
2, 70080, Note_on_c, 0, 67, 0
2, 70080, Note_on_c, 0, 73, 0
2, 70080, Note_on_c, 0, 74, 34
2, 70080, Note_on_c, 0, 66, 30
2, 70320, Note_on_c, 0, 66, 0
2, 70320, Note_on_c, 0, 74, 0
2, 70320, Note_on_c, 0, 71, 31
2, 70320, Note_on_c, 0, 65, 28
2, 70560, Note_on_c, 0, 65, 0
2, 70560, Note_on_c, 0, 71, 0
2, 70560, Note_on_c, 0, 72, 45
2, 70560, Control_c, 0, 91, 127
2, 70560, Note_on_c, 0, 64, 39
2, 70560, Note_on_c, 0, 69, 45
2, 70800, Note_on_c, 0, 69, 0
2, 70800, Note_on_c, 0, 64, 0
2, 70800, Note_on_c, 0, 72, 0
2, 70800, Note_on_c, 0, 72, 48
2, 70800, Note_on_c, 0, 69, 43
2, 71040, Note_on_c, 0, 69, 0
2, 71040, Note_on_c, 0, 72, 0
2, 71040, Note_on_c, 0, 74, 33
2, 71040, Note_on_c, 0, 65, 29
2, 71040, Note_on_c, 0, 69, 29
2, 72000, Note_on_c, 0, 69, 0
2, 72000, Note_on_c, 0, 65, 0
2, 72000, Note_on_c, 0, 74, 0
2, 72000, Note_on_c, 0, 72, 46
2, 72000, Note_on_c, 0, 69, 40
2, 72240, Note_on_c, 0, 69, 0
2, 72240, Note_on_c, 0, 72, 0
2, 72240, Note_on_c, 0, 72, 47
2, 72240, Note_on_c, 0, 69, 42
2, 72480, Note_on_c, 0, 69, 0
2, 72480, Note_on_c, 0, 72, 0
2, 72480, Note_on_c, 0, 68, 29
2, 72480, Note_on_c, 0, 62, 33
2, 72480, Note_on_c, 0, 71, 33
2, 73440, Note_on_c, 0, 71, 0
2, 73440, Note_on_c, 0, 62, 0
2, 73440, Note_on_c, 0, 68, 0
2, 73440, Note_on_c, 0, 66, 39
2, 73440, Note_on_c, 0, 69, 45
2, 73680, Note_on_c, 0, 69, 0
2, 73680, Note_on_c, 0, 66, 0
2, 73680, Note_on_c, 0, 66, 37
2, 73680, Note_on_c, 0, 69, 43
2, 73920, Note_on_c, 0, 69, 0
2, 73920, Note_on_c, 0, 66, 0
2, 73920, Note_on_c, 0, 60, 37
2, 73920, Note_on_c, 0, 72, 42
2, 74400, Note_on_c, 0, 72, 0
2, 74400, Note_on_c, 0, 60, 0
2, 74400, Note_on_c, 0, 69, 37
2, 74400, Note_on_c, 0, 66, 33
2, 74880, Note_on_c, 0, 66, 0
2, 74880, Note_on_c, 0, 69, 0
2, 74880, Note_on_c, 0, 68, 35
2, 74880, Note_on_c, 0, 64, 31
2, 75360, Note_on_c, 0, 64, 0
2, 75360, Note_on_c, 0, 68, 0
2, 75360, Note_on_c, 0, 68, 26
2, 75360, Note_on_c, 0, 59, 26
2, 75360, Note_on_c, 0, 71, 29
2, 76320, Note_on_c, 0, 71, 0
2, 76320, Note_on_c, 0, 59, 0
2, 76320, Note_on_c, 0, 68, 0
2, 76320, Note_on_c, 0, 69, 44
2, 76320, Note_on_c, 0, 72, 49
2, 76560, Note_on_c, 0, 72, 0
2, 76560, Note_on_c, 0, 69, 0
2, 76560, Note_on_c, 0, 72, 52
2, 76560, Note_on_c, 0, 69, 47
2, 76800, Note_on_c, 0, 69, 0
2, 76800, Note_on_c, 0, 72, 0
2, 76800, Note_on_c, 0, 73, 42
2, 76800, Note_on_c, 0, 64, 42
2, 76800, Note_on_c, 0, 76, 47
2, 77760, Note_on_c, 0, 76, 0
2, 77760, Note_on_c, 0, 64, 0
2, 77760, Note_on_c, 0, 73, 0
2, 77760, Note_on_c, 0, 74, 50
2, 77760, Note_on_c, 0, 77, 56
2, 78000, Note_on_c, 0, 77, 0
2, 78000, Note_on_c, 0, 74, 0
2, 78000, Note_on_c, 0, 74, 54
2, 78000, Note_on_c, 0, 77, 60
2, 78240, Note_on_c, 0, 77, 0
2, 78240, Note_on_c, 0, 74, 0
2, 78240, Note_on_c, 0, 78, 53
2, 78240, Note_on_c, 0, 69, 53
2, 78240, Note_on_c, 0, 81, 59
2, 79200, Note_on_c, 0, 81, 0
2, 79200, Note_on_c, 0, 69, 0
2, 79200, Note_on_c, 0, 78, 0
2, 79200, Note_on_c, 0, 79, 61
2, 79200, Note_on_c, 0, 72, 55
2, 79200, Note_on_c, 0, 67, 55
2, 79440, Note_on_c, 0, 67, 0
2, 79440, Note_on_c, 0, 79, 0
2, 79440, Note_on_c, 0, 67, 55
2, 79440, Note_on_c, 0, 79, 61
2, 79680, Note_on_c, 0, 79, 0
2, 79680, Note_on_c, 0, 67, 0
2, 79680, Note_on_c, 0, 76, 61
2, 79680, Note_on_c, 0, 68, 55
2, 80160, Note_on_c, 0, 68, 0
2, 80160, Note_on_c, 0, 76, 0
2, 80160, Note_on_c, 0, 72, 0
2, 80160, Note_on_c, 0, 69, 47
2, 80160, Note_on_c, 0, 72, 53
2, 80640, Note_on_c, 0, 72, 0
2, 80640, Note_on_c, 0, 69, 0
2, 80640, Note_on_c, 0, 64, 44
2, 80640, Note_on_c, 0, 68, 44
2, 80640, Note_on_c, 0, 71, 49
2, 80640, Note_on_c, 0, 76, 49
2, 81120, Note_on_c, 0, 71, 0
2, 81120, Note_on_c, 0, 68, 0
2, 81120, Note_on_c, 0, 69, 52
2, 82080, Note_on_c, 0, 69, 0
2, 82080, Note_on_c, 0, 64, 0
2, 82080, Note_on_c, 0, 76, 0
2, 82080, Note_on_c, 0, 59, 35
2, 82080, Note_on_c, 0, 52, 31
2, 82080, Note_on_c, 0, 56, 31
2, 82080, Note_on_c, 0, 64, 35
2, 82560, Note_on_c, 0, 56, 0
2, 82560, Note_on_c, 0, 59, 0
2, 82560, Note_on_c, 0, 57, 30
2, 83520, Note_on_c, 0, 57, 0
2, 83520, Note_on_c, 0, 52, 0
2, 83520, Note_on_c, 0, 64, 0
2, 83520, Note_on_c, 0, 72, 38
2, 83520, Note_on_c, 0, 69, 34
2, 83760, Note_on_c, 0, 69, 0
2, 83760, Note_on_c, 0, 72, 0
2, 83760, Note_on_c, 0, 69, 34
2, 83760, Note_on_c, 0, 72, 38
2, 84000, Note_on_c, 0, 72, 0
2, 84000, Note_on_c, 0, 69, 0
2, 84000, Note_on_c, 0, 71, 37
2, 84000, Note_on_c, 0, 74, 42
2, 84000, Note_on_c, 0, 65, 37
2, 84240, Note_on_c, 0, 65, 0
2, 84240, Note_on_c, 0, 74, 0
2, 84240, Note_on_c, 0, 71, 0
2, 84240, Note_on_c, 0, 72, 38
2, 84240, Note_on_c, 0, 69, 34
2, 84480, Note_on_c, 0, 69, 0
2, 84480, Note_on_c, 0, 72, 0
2, 84480, Note_on_c, 0, 71, 36
2, 84480, Note_on_c, 0, 65, 36
2, 84480, Note_on_c, 0, 74, 40
2, 84960, Note_on_c, 0, 74, 0
2, 84960, Note_on_c, 0, 65, 0
2, 84960, Note_on_c, 0, 71, 0
2, 84960, Note_on_c, 0, 69, 37
2, 84960, Note_on_c, 0, 72, 42
2, 85200, Note_on_c, 0, 72, 0
2, 85200, Note_on_c, 0, 69, 0
2, 85200, Note_on_c, 0, 72, 35
2, 85200, Note_on_c, 0, 69, 35
2, 85440, Note_on_c, 0, 69, 0
2, 85440, Note_on_c, 0, 72, 0
2, 85440, Note_on_c, 0, 68, 40
2, 85440, Note_on_c, 0, 62, 40
2, 85440, Note_on_c, 0, 71, 40
2, 85680, Note_on_c, 0, 71, 0
2, 85680, Note_on_c, 0, 62, 0
2, 85680, Note_on_c, 0, 68, 0
2, 85680, Note_on_c, 0, 65, 37
2, 85680, Note_on_c, 0, 69, 37
2, 85920, Note_on_c, 0, 69, 0
2, 85920, Note_on_c, 0, 65, 0
2, 85920, Note_on_c, 0, 62, 36
2, 85920, Note_on_c, 0, 71, 36
2, 85920, Note_on_c, 0, 68, 36
2, 86400, Note_on_c, 0, 68, 0
2, 86400, Note_on_c, 0, 71, 0
2, 86400, Note_on_c, 0, 62, 0
2, 86400, Note_on_c, 0, 66, 35
2, 86400, Note_on_c, 0, 69, 39
2, 86640, Note_on_c, 0, 69, 0
2, 86640, Note_on_c, 0, 66, 0
2, 86640, Note_on_c, 0, 66, 36
2, 86640, Note_on_c, 0, 69, 40
2, 86880, Note_on_c, 0, 66, 0
2, 86880, Note_on_c, 0, 60, 40
2, 86880, Note_on_c, 0, 72, 46
2, 87120, Note_on_c, 0, 72, 0
2, 87120, Note_on_c, 0, 60, 0
2, 87120, Note_on_c, 0, 69, 0
2, 87120, Note_on_c, 0, 68, 37
2, 87120, Note_on_c, 0, 71, 43
2, 87360, Note_on_c, 0, 71, 0
2, 87360, Note_on_c, 0, 68, 0
2, 87360, Note_on_c, 0, 69, 37
2, 87360, Note_on_c, 0, 60, 37
2, 87360, Note_on_c, 0, 72, 43
2, 87600, Note_on_c, 0, 72, 0
2, 87600, Note_on_c, 0, 60, 0
2, 87600, Note_on_c, 0, 69, 0
2, 87600, Note_on_c, 0, 66, 36
2, 87600, Note_on_c, 0, 69, 40
2, 87840, Note_on_c, 0, 69, 0
2, 87840, Note_on_c, 0, 66, 0
2, 87840, Note_on_c, 0, 64, 35
2, 87840, Note_on_c, 0, 68, 39
2, 88320, Note_on_c, 0, 68, 0
2, 88320, Note_on_c, 0, 64, 0
2, 88320, Note_on_c, 0, 59, 30
2, 88320, Note_on_c, 0, 71, 34
2, 88320, Note_on_c, 0, 68, 30
2, 89280, Note_on_c, 0, 68, 0
2, 89280, Note_on_c, 0, 71, 0
2, 89280, Note_on_c, 0, 59, 0
2, 89280, Note_on_c, 0, 69, 40
2, 89280, Note_on_c, 0, 72, 46
2, 89520, Note_on_c, 0, 72, 0
2, 89520, Note_on_c, 0, 69, 0
2, 89520, Note_on_c, 0, 69, 40
2, 89520, Note_on_c, 0, 72, 46
2, 89760, Note_on_c, 0, 72, 0
2, 89760, Note_on_c, 0, 69, 0
2, 89760, Note_on_c, 0, 67, 47
2, 89760, Note_on_c, 0, 73, 47
2, 89760, Note_on_c, 0, 76, 53
2, 90240, Note_on_c, 0, 76, 0
2, 90240, Note_on_c, 0, 73, 0
2, 90240, Note_on_c, 0, 67, 0
2, 90240, Note_on_c, 0, 71, 53
2, 90240, Note_on_c, 0, 77, 59
2, 90240, Note_on_c, 0, 65, 53
2, 90720, Note_on_c, 0, 65, 0
2, 90720, Note_on_c, 0, 77, 0
2, 90720, Note_on_c, 0, 71, 0
2, 90720, Note_on_c, 0, 79, 72
2, 90720, Note_on_c, 0, 73, 64
2, 92160, Note_on_c, 0, 73, 0
2, 92160, Note_on_c, 0, 79, 0
2, 92160, Note_on_c, 0, 77, 56
2, 92160, Note_on_c, 0, 74, 50
2, 92400, Note_on_c, 0, 74, 0
2, 92400, Note_on_c, 0, 77, 0
2, 92400, Note_on_c, 0, 74, 55
2, 92400, Note_on_c, 0, 77, 61
2, 92640, Note_on_c, 0, 77, 0
2, 92640, Note_on_c, 0, 74, 0
2, 92640, Note_on_c, 0, 78, 63
2, 92640, Note_on_c, 0, 81, 70
2, 92640, Note_on_c, 0, 72, 70
2, 92880, Note_on_c, 0, 72, 0
2, 92880, Note_on_c, 0, 81, 0
2, 92880, Note_on_c, 0, 78, 0
2, 92880, Note_on_c, 0, 79, 72
2, 92880, Note_on_c, 0, 70, 57
2, 93120, Note_on_c, 0, 70, 0
2, 93120, Note_on_c, 0, 79, 0
2, 93120, Note_on_c, 0, 76, 65
2, 93120, Note_on_c, 0, 73, 65
2, 93120, Note_on_c, 0, 82, 72
2, 93360, Note_on_c, 0, 82, 0
2, 93360, Note_on_c, 0, 73, 0
2, 93360, Note_on_c, 0, 76, 0
2, 93360, Note_on_c, 0, 69, 64
2, 93360, Note_on_c, 0, 81, 71
2, 93360, Note_on_c, 0, 78, 64
2, 93600, Note_on_c, 0, 78, 0
2, 93600, Note_on_c, 0, 81, 0
2, 93600, Note_on_c, 0, 69, 0
2, 93600, Note_on_c, 0, 72, 73
2, 93600, Note_on_c, 0, 84, 81
2, 93600, Note_on_c, 0, 78, 73
2, 95040, Note_on_c, 0, 78, 0
2, 95040, Note_on_c, 0, 84, 0
2, 95040, Note_on_c, 0, 72, 0
2, 95040, Note_on_c, 0, 72, 54
2, 95040, Note_on_c, 0, 67, 54
2, 95040, Note_on_c, 0, 79, 60
2, 95280, Note_on_c, 0, 79, 0
2, 95280, Note_on_c, 0, 79, 60
2, 95520, Note_on_c, 0, 79, 0
2, 95520, Note_on_c, 0, 67, 0
2, 95520, Note_on_c, 0, 77, 56
2, 95520, Note_on_c, 0, 68, 56
2, 95760, Note_on_c, 0, 77, 0
2, 95760, Note_on_c, 0, 76, 54
2, 96000, Note_on_c, 0, 76, 0
2, 96000, Note_on_c, 0, 68, 0
2, 96000, Note_on_c, 0, 72, 0
2, 96000, Note_on_c, 0, 74, 54
2, 96000, Note_on_c, 0, 69, 54
2, 96240, Note_on_c, 0, 74, 0
2, 96240, Note_on_c, 0, 72, 50
2, 96480, Note_on_c, 0, 72, 0
2, 96480, Note_on_c, 0, 69, 0
2, 96480, Note_on_c, 0, 68, 45
2, 96480, Note_on_c, 0, 76, 50
2, 96480, Note_on_c, 0, 64, 45
2, 96480, Note_on_c, 0, 71, 50
2, 96960, Note_on_c, 0, 71, 0
2, 96960, Note_on_c, 0, 68, 0
2, 96960, Note_on_c, 0, 69, 49
2, 97920, Note_on_c, 0, 69, 0
2, 97920, Note_on_c, 0, 64, 0
2, 97920, Note_on_c, 0, 76, 0
2, 97920, Note_on_c, 0, 56, 32
2, 97920, Note_on_c, 0, 64, 36
2, 97920, Note_on_c, 0, 59, 36
2, 97920, Note_on_c, 0, 52, 32
2, 98880, Note_on_c, 0, 59, 0
2, 98880, Note_on_c, 0, 56, 0
2, 98880, Note_on_c, 0, 64, 0
2, 98880, Note_on_c, 0, 57, 29
2, 99840, Note_on_c, 0, 57, 0
2, 99840, Note_on_c, 0, 52, 0
2, 99840, End_track
3, 0, Start_track
3, 0, Title_t, "Piano left"
3, 0, Program_c, 0, 0
3, 0, Control_c, 0, 7, 100
3, 0, Control_c, 0, 10, 64
3, 0, Control_c, 0, 91, 127
3, 0, Note_on_c, 0, 33, 43
3, 56, Control_c, 0, 64, 127
3, 160, Note_on_c, 0, 33, 0
3, 160, Note_on_c, 0, 45, 45
3, 320, Note_on_c, 0, 45, 0
3, 320, Note_on_c, 0, 52, 48
3, 480, Note_on_c, 0, 52, 0
3, 480, Note_on_c, 0, 45, 31
3, 480, Note_on_c, 0, 50, 35
3, 499, Control_c, 0, 64, 0
3, 600, Control_c, 0, 64, 127
3, 1440, Note_on_c, 0, 50, 0
3, 1440, Note_on_c, 0, 45, 0
3, 1440, Control_c, 0, 64, 0
3, 1440, Note_on_c, 0, 33, 40
3, 1532, Control_c, 0, 64, 127
3, 1600, Note_on_c, 0, 33, 0
3, 1600, Note_on_c, 0, 45, 46
3, 1760, Note_on_c, 0, 45, 0
3, 1760, Note_on_c, 0, 52, 49
3, 1920, Note_on_c, 0, 52, 0
3, 1920, Note_on_c, 0, 45, 29
3, 1920, Note_on_c, 0, 53, 33
3, 1938, Control_c, 0, 64, 0
3, 2202, Control_c, 0, 64, 127
3, 2880, Note_on_c, 0, 53, 0
3, 2880, Note_on_c, 0, 45, 0
3, 2880, Control_c, 0, 64, 0
3, 2880, Note_on_c, 0, 33, 42
3, 2944, Control_c, 0, 64, 127
3, 3040, Note_on_c, 0, 33, 0
3, 3040, Note_on_c, 0, 45, 42
3, 3200, Note_on_c, 0, 45, 0
3, 3200, Note_on_c, 0, 48, 42
3, 3360, Note_on_c, 0, 48, 0
3, 3360, Note_on_c, 0, 45, 32
3, 3360, Note_on_c, 0, 51, 36
3, 3378, Control_c, 0, 64, 0
3, 3607, Control_c, 0, 64, 127
3, 4320, Note_on_c, 0, 51, 0
3, 4320, Note_on_c, 0, 45, 0
3, 4320, Note_on_c, 0, 40, 33
3, 4334, Control_c, 0, 64, 0
3, 4440, Control_c, 0, 64, 127
3, 4480, Note_on_c, 0, 40, 0
3, 4480, Note_on_c, 0, 47, 30
3, 4640, Note_on_c, 0, 47, 0
3, 4640, Note_on_c, 0, 52, 29
3, 4800, Note_on_c, 0, 40, 28
3, 5760, Note_on_c, 0, 40, 0
3, 5760, Note_on_c, 0, 52, 0
3, 5760, Control_c, 0, 64, 0
3, 5760, Note_on_c, 0, 33, 42
3, 5880, Control_c, 0, 64, 127
3, 5920, Note_on_c, 0, 33, 0
3, 5920, Note_on_c, 0, 45, 46
3, 6080, Note_on_c, 0, 45, 0
3, 6080, Note_on_c, 0, 52, 50
3, 6240, Note_on_c, 0, 52, 0
3, 6240, Note_on_c, 0, 45, 40
3, 6240, Note_on_c, 0, 57, 46
3, 6254, Control_c, 0, 64, 0
3, 6416, Control_c, 0, 64, 127
3, 7200, Note_on_c, 0, 57, 0
3, 7200, Note_on_c, 0, 45, 0
3, 7200, Control_c, 0, 64, 0
3, 7200, Note_on_c, 0, 38, 48
3, 7306, Control_c, 0, 64, 127
3, 7360, Note_on_c, 0, 38, 0
3, 7360, Note_on_c, 0, 50, 51
3, 7520, Note_on_c, 0, 50, 0
3, 7520, Note_on_c, 0, 57, 54
3, 7680, Note_on_c, 0, 57, 0
3, 7680, Note_on_c, 0, 51, 46
3, 7680, Note_on_c, 0, 60, 51
3, 7688, Control_c, 0, 64, 0
3, 7793, Control_c, 0, 64, 127
3, 8640, Note_on_c, 0, 60, 0
3, 8640, Note_on_c, 0, 51, 0
3, 8640, Note_on_c, 0, 40, 49
3, 8642, Control_c, 0, 64, 0
3, 8760, Control_c, 0, 64, 127
3, 8800, Note_on_c, 0, 40, 0
3, 8800, Note_on_c, 0, 52, 49
3, 8960, Note_on_c, 0, 52, 0
3, 8960, Note_on_c, 0, 55, 49
3, 9120, Note_on_c, 0, 55, 0
3, 9120, Note_on_c, 0, 60, 46
3, 9120, Note_on_c, 0, 52, 40
3, 9134, Control_c, 0, 64, 0
3, 9204, Control_c, 0, 64, 127
3, 9600, Note_on_c, 0, 52, 0
3, 9600, Note_on_c, 0, 53, 39
3, 9614, Control_c, 0, 64, 0
3, 9727, Control_c, 0, 64, 127
3, 9840, Note_on_c, 0, 60, 0
3, 9840, Note_on_c, 0, 57, 26
3, 10080, Note_on_c, 0, 57, 0
3, 10080, Note_on_c, 0, 53, 0
3, 10080, Control_c, 0, 64, 0
3, 10080, Note_on_c, 0, 52, 48
3, 10165, Control_c, 0, 64, 127
3, 10320, Note_on_c, 0, 52, 0
3, 10320, Note_on_c, 0, 52, 45
3, 10560, Note_on_c, 0, 48, 40
3, 10572, Control_c, 0, 64, 0
3, 10800, Control_c, 0, 64, 127
3, 11040, Note_on_c, 0, 48, 0
3, 11040, Note_on_c, 0, 45, 36
3, 11520, Note_on_c, 0, 45, 0
3, 11520, Note_on_c, 0, 52, 0
3, 11520, Note_on_c, 0, 40, 39
3, 11523, Control_c, 0, 64, 0
3, 11647, Control_c, 0, 64, 127
3, 11760, Note_on_c, 0, 40, 0
3, 11760, Note_on_c, 0, 40, 39
3, 12000, Note_on_c, 0, 40, 0
3, 12000, Control_c, 0, 64, 0
3, 12000, Note_on_c, 0, 36, 42
3, 12140, Control_c, 0, 64, 127
3, 12480, Note_on_c, 0, 36, 0
3, 12480, Note_on_c, 0, 33, 32
3, 12963, Control_c, 0, 64, 0
3, 13094, Control_c, 0, 64, 127
3, 13120, Note_on_c, 0, 33, 0
3, 13120, Note_on_c, 0, 45, 29
3, 13280, Note_on_c, 0, 45, 0
3, 13280, Note_on_c, 0, 52, 28
3, 13440, Note_on_c, 0, 52, 0
3, 13440, Note_on_c, 0, 45, 28
3, 13457, Control_c, 0, 64, 0
3, 13567, Control_c, 0, 64, 127
3, 13600, Note_on_c, 0, 45, 0
3, 13600, Note_on_c, 0, 50, 28
3, 13760, Note_on_c, 0, 50, 0
3, 13760, Note_on_c, 0, 53, 28
3, 13920, Note_on_c, 0, 53, 0
3, 13920, Note_on_c, 0, 45, 28
3, 13938, Control_c, 0, 64, 0
3, 14019, Control_c, 0, 64, 127
3, 14400, Note_on_c, 0, 45, 0
3, 14400, Control_c, 0, 64, 0
3, 14400, Note_on_c, 0, 33, 28
3, 14513, Control_c, 0, 64, 127
3, 14560, Note_on_c, 0, 33, 0
3, 14560, Note_on_c, 0, 45, 29
3, 14720, Note_on_c, 0, 45, 0
3, 14720, Note_on_c, 0, 52, 30
3, 14880, Note_on_c, 0, 52, 0
3, 14880, Note_on_c, 0, 45, 29
3, 14901, Control_c, 0, 64, 0
3, 14993, Control_c, 0, 64, 127
3, 15040, Note_on_c, 0, 45, 0
3, 15040, Note_on_c, 0, 53, 28
3, 15200, Note_on_c, 0, 53, 0
3, 15200, Note_on_c, 0, 50, 28
3, 15360, Note_on_c, 0, 50, 0
3, 15360, Note_on_c, 0, 45, 28
3, 15371, Control_c, 0, 64, 0
3, 15445, Control_c, 0, 64, 127
3, 15840, Note_on_c, 0, 45, 0
3, 15840, Control_c, 0, 64, 0
3, 15840, Note_on_c, 0, 33, 29
3, 15949, Control_c, 0, 64, 127
3, 16000, Note_on_c, 0, 33, 0
3, 16000, Note_on_c, 0, 45, 32
3, 16160, Note_on_c, 0, 45, 0
3, 16160, Note_on_c, 0, 48, 34
3, 16320, Note_on_c, 0, 48, 0
3, 16320, Note_on_c, 0, 45, 37
3, 16331, Control_c, 0, 64, 0
3, 16389, Control_c, 0, 64, 127
3, 16480, Note_on_c, 0, 45, 0
3, 16480, Note_on_c, 0, 54, 35
3, 16640, Note_on_c, 0, 54, 0
3, 16640, Note_on_c, 0, 51, 35
3, 16800, Note_on_c, 0, 51, 0
3, 16800, Note_on_c, 0, 45, 33
3, 16816, Control_c, 0, 64, 0
3, 16884, Control_c, 0, 64, 127
3, 16960, Note_on_c, 0, 45, 0
3, 16960, Note_on_c, 0, 54, 33
3, 17120, Note_on_c, 0, 54, 0
3, 17120, Note_on_c, 0, 51, 33
3, 17280, Note_on_c, 0, 51, 0
3, 17280, Note_on_c, 0, 40, 30
3, 17283, Control_c, 0, 64, 0
3, 17392, Control_c, 0, 64, 127
3, 17440, Note_on_c, 0, 47, 32
3, 17600, Note_on_c, 0, 47, 0
3, 17600, Note_on_c, 0, 52, 32
3, 18720, Note_on_c, 0, 52, 0
3, 18720, Note_on_c, 0, 40, 0
3, 18720, Note_on_c, 0, 33, 43
3, 18722, Control_c, 0, 64, 0
3, 18868, Control_c, 0, 64, 127
3, 18880, Note_on_c, 0, 33, 0
3, 18880, Note_on_c, 0, 45, 43
3, 19040, Note_on_c, 0, 45, 0
3, 19040, Note_on_c, 0, 52, 43
3, 19200, Note_on_c, 0, 52, 0
3, 19200, Note_on_c, 0, 45, 43
3, 19208, Control_c, 0, 64, 0
3, 19285, Control_c, 0, 64, 127
3, 19360, Note_on_c, 0, 45, 0
3, 19360, Note_on_c, 0, 57, 43
3, 19520, Note_on_c, 0, 57, 0
3, 19520, Note_on_c, 0, 50, 43
3, 19680, Note_on_c, 0, 50, 0
3, 19680, Note_on_c, 0, 45, 45
3, 19694, Control_c, 0, 64, 0
3, 19765, Control_c, 0, 64, 127
3, 19840, Note_on_c, 0, 45, 0
3, 19840, Note_on_c, 0, 57, 45
3, 20000, Note_on_c, 0, 57, 0
3, 20000, Note_on_c, 0, 52, 46
3, 20160, Note_on_c, 0, 52, 0
3, 20160, Note_on_c, 0, 38, 42
3, 20169, Control_c, 0, 64, 0
3, 20251, Control_c, 0, 64, 127
3, 20320, Note_on_c, 0, 38, 0
3, 20320, Note_on_c, 0, 50, 44
3, 20480, Note_on_c, 0, 50, 0
3, 20480, Note_on_c, 0, 57, 44
3, 20640, Note_on_c, 0, 57, 0
3, 20640, Note_on_c, 0, 51, 47
3, 20658, Control_c, 0, 64, 0
3, 20714, Control_c, 0, 64, 127
3, 20800, Note_on_c, 0, 51, 0
3, 20800, Note_on_c, 0, 60, 46
3, 20960, Note_on_c, 0, 60, 0
3, 20960, Note_on_c, 0, 57, 46
3, 21120, Note_on_c, 0, 57, 0
3, 21120, Note_on_c, 0, 51, 48
3, 21137, Control_c, 0, 64, 0
3, 21194, Control_c, 0, 64, 127
3, 21280, Note_on_c, 0, 51, 0
3, 21280, Note_on_c, 0, 60, 49
3, 21440, Note_on_c, 0, 60, 0
3, 21440, Note_on_c, 0, 57, 49
3, 21600, Note_on_c, 0, 57, 0
3, 21600, Note_on_c, 0, 40, 50
3, 21618, Control_c, 0, 64, 0
3, 21671, Control_c, 0, 64, 127
3, 21760, Note_on_c, 0, 40, 0
3, 21760, Note_on_c, 0, 52, 46
3, 21920, Note_on_c, 0, 52, 0
3, 21920, Note_on_c, 0, 55, 47
3, 22080, Note_on_c, 0, 55, 0
3, 22080, Note_on_c, 0, 52, 51
3, 22094, Control_c, 0, 64, 0
3, 22140, Control_c, 0, 64, 127
3, 22240, Note_on_c, 0, 60, 47
3, 22560, Note_on_c, 0, 60, 0
3, 22560, Note_on_c, 0, 52, 0
3, 22560, Note_on_c, 0, 53, 50
3, 22568, Control_c, 0, 64, 0
3, 22634, Control_c, 0, 64, 127
3, 22720, Note_on_c, 0, 57, 47
3, 23040, Note_on_c, 0, 57, 0
3, 23040, Note_on_c, 0, 53, 0
3, 23040, Control_c, 0, 64, 0
3, 23040, Note_on_c, 0, 52, 49
3, 23153, Control_c, 0, 64, 127
3, 23280, Note_on_c, 0, 52, 0
3, 23280, Note_on_c, 0, 52, 49
3, 23520, Note_on_c, 0, 50, 48
3, 23527, Control_c, 0, 64, 0
3, 23760, Note_on_c, 0, 50, 0
3, 23760, Note_on_c, 0, 48, 46
3, 24000, Note_on_c, 0, 47, 43
3, 24010, Note_on_c, 0, 48, 0
3, 24240, Note_on_c, 0, 45, 40
3, 24250, Note_on_c, 0, 47, 0
3, 24480, Note_on_c, 0, 45, 0
3, 24480, Note_on_c, 0, 52, 0
3, 24537, Control_c, 0, 64, 127
3, 24720, Note_on_c, 0, 40, 39
3, 24960, Note_on_c, 0, 40, 0
3, 24960, Note_on_c, 0, 38, 37
3, 24978, Control_c, 0, 64, 0
3, 25200, Note_on_c, 0, 36, 35
3, 25210, Note_on_c, 0, 38, 0
3, 25440, Note_on_c, 0, 35, 33
3, 25450, Note_on_c, 0, 36, 0
3, 25680, Note_on_c, 0, 33, 31
3, 25690, Note_on_c, 0, 35, 0
3, 25920, Note_on_c, 0, 33, 0
3, 25920, Note_on_c, 0, 68, 35
3, 25920, Note_on_c, 0, 64, 29
3, 25920, Control_c, 0, 91, 127
3, 25934, Control_c, 0, 64, 127
3, 26160, Note_on_c, 0, 64, 0
3, 26160, Note_on_c, 0, 68, 0
3, 26160, Note_on_c, 0, 69, 28
3, 26160, Note_on_c, 0, 65, 23
3, 26170, Control_c, 0, 64, 0
3, 26252, Control_c, 0, 64, 127
3, 26400, Note_on_c, 0, 65, 0
3, 26400, Note_on_c, 0, 62, 28
3, 26640, Note_on_c, 0, 62, 0
3, 26640, Note_on_c, 0, 69, 0
3, 26640, Control_c, 0, 64, 0
3, 26640, Note_on_c, 0, 68, 33
3, 26640, Note_on_c, 0, 64, 28
3, 26725, Control_c, 0, 64, 127
3, 26880, Note_on_c, 0, 64, 0
3, 26880, Note_on_c, 0, 68, 0
3, 26880, Note_on_c, 0, 69, 30
3, 26880, Note_on_c, 0, 65, 25
3, 26889, Control_c, 0, 64, 0
3, 26979, Control_c, 0, 64, 127
3, 27120, Note_on_c, 0, 65, 0
3, 27120, Note_on_c, 0, 62, 29
3, 27360, Note_on_c, 0, 62, 0
3, 27360, Note_on_c, 0, 69, 0
3, 27360, Note_on_c, 0, 64, 29
3, 27360, Note_on_c, 0, 68, 35
3, 27362, Control_c, 0, 64, 0
3, 27438, Control_c, 0, 64, 127
3, 27600, Note_on_c, 0, 68, 0
3, 27600, Note_on_c, 0, 64, 0
3, 27600, Note_on_c, 0, 65, 28
3, 27600, Note_on_c, 0, 69, 33
3, 27609, Control_c, 0, 64, 0
3, 27685, Control_c, 0, 64, 127
3, 27840, Note_on_c, 0, 65, 0
3, 27840, Note_on_c, 0, 62, 29
3, 28080, Note_on_c, 0, 62, 0
3, 28080, Note_on_c, 0, 69, 0
3, 28080, Control_c, 0, 64, 0
3, 28080, Note_on_c, 0, 68, 35
3, 28080, Note_on_c, 0, 64, 29
3, 28129, Control_c, 0, 64, 127
3, 28320, Note_on_c, 0, 64, 0
3, 28320, Note_on_c, 0, 68, 0
3, 28320, Note_on_c, 0, 69, 27
3, 28320, Note_on_c, 0, 65, 32
3, 28334, Control_c, 0, 64, 0
3, 28398, Control_c, 0, 64, 127
3, 28560, Note_on_c, 0, 65, 0
3, 28560, Note_on_c, 0, 62, 29
3, 28800, Note_on_c, 0, 62, 0
3, 28800, Note_on_c, 0, 69, 0
3, 28800, Note_on_c, 0, 59, 29
3, 28800, Note_on_c, 0, 63, 34
3, 28805, Control_c, 0, 64, 0
3, 28892, Control_c, 0, 64, 127
3, 29040, Note_on_c, 0, 63, 0
3, 29040, Note_on_c, 0, 59, 0
3, 29040, Note_on_c, 0, 60, 24
3, 29040, Note_on_c, 0, 64, 29
3, 29047, Control_c, 0, 64, 0
3, 29153, Control_c, 0, 64, 127
3, 29280, Note_on_c, 0, 60, 0
3, 29280, Note_on_c, 0, 57, 26
3, 29520, Note_on_c, 0, 57, 0
3, 29520, Note_on_c, 0, 64, 0
3, 29520, Note_on_c, 0, 59, 24
3, 29520, Note_on_c, 0, 63, 29
3, 29522, Control_c, 0, 64, 0
3, 29600, Control_c, 0, 64, 127
3, 29760, Note_on_c, 0, 63, 0
3, 29760, Note_on_c, 0, 59, 0
3, 29760, Note_on_c, 0, 64, 27
3, 29760, Note_on_c, 0, 60, 23
3, 29777, Control_c, 0, 64, 0
3, 29840, Control_c, 0, 64, 127
3, 30000, Note_on_c, 0, 60, 0
3, 30000, Note_on_c, 0, 57, 25
3, 30010, Control_c, 0, 64, 0
3, 30057, Control_c, 0, 64, 127
3, 30240, Note_on_c, 0, 57, 0
3, 30240, Note_on_c, 0, 64, 0
3, 30240, Note_on_c, 0, 59, 25
3, 30240, Note_on_c, 0, 63, 30
3, 30251, Control_c, 0, 64, 0
3, 30318, Control_c, 0, 64, 127
3, 30480, Note_on_c, 0, 63, 0
3, 30480, Note_on_c, 0, 59, 0
3, 30480, Note_on_c, 0, 64, 28
3, 30480, Note_on_c, 0, 60, 23
3, 30491, Control_c, 0, 64, 0
3, 30586, Control_c, 0, 64, 127
3, 30720, Note_on_c, 0, 60, 0
3, 30720, Note_on_c, 0, 57, 26
3, 30960, Note_on_c, 0, 57, 0
3, 30960, Note_on_c, 0, 64, 0
3, 30960, Note_on_c, 0, 59, 27
3, 30960, Note_on_c, 0, 63, 32
3, 30968, Control_c, 0, 64, 0
3, 31023, Control_c, 0, 64, 127
3, 31200, Note_on_c, 0, 63, 0
3, 31200, Note_on_c, 0, 59, 0
3, 31200, Note_on_c, 0, 60, 24
3, 31200, Note_on_c, 0, 64, 29
3, 31210, Control_c, 0, 64, 0
3, 31286, Control_c, 0, 64, 127
3, 31440, Note_on_c, 0, 64, 0
3, 31440, Note_on_c, 0, 60, 0
3, 31440, Note_on_c, 0, 57, 28
3, 31440, Note_on_c, 0, 66, 33
3, 31680, Note_on_c, 0, 66, 0
3, 31680, Note_on_c, 0, 57, 0
3, 31680, Note_on_c, 0, 64, 29
3, 31680, Note_on_c, 0, 68, 34
3, 31689, Control_c, 0, 64, 0
3, 31758, Control_c, 0, 64, 127
3, 31920, Note_on_c, 0, 68, 0
3, 31920, Note_on_c, 0, 64, 0
3, 31920, Note_on_c, 0, 69, 30
3, 31920, Note_on_c, 0, 65, 25
3, 31930, Control_c, 0, 64, 0
3, 31998, Control_c, 0, 64, 127
3, 32160, Note_on_c, 0, 65, 0
3, 32160, Note_on_c, 0, 62, 29
3, 32400, Note_on_c, 0, 62, 0
3, 32400, Note_on_c, 0, 69, 0
3, 32400, Note_on_c, 0, 64, 29
3, 32400, Note_on_c, 0, 68, 35
3, 32403, Control_c, 0, 64, 0
3, 32456, Control_c, 0, 64, 127
3, 32640, Note_on_c, 0, 68, 0
3, 32640, Note_on_c, 0, 64, 0
3, 32640, Note_on_c, 0, 69, 32
3, 32640, Note_on_c, 0, 65, 27
3, 32651, Control_c, 0, 64, 0
3, 32732, Control_c, 0, 64, 127
3, 32880, Note_on_c, 0, 65, 0
3, 32880, Note_on_c, 0, 62, 29
3, 33120, Note_on_c, 0, 62, 0
3, 33120, Note_on_c, 0, 69, 0
3, 33120, Note_on_c, 0, 64, 30
3, 33120, Note_on_c, 0, 68, 36
3, 33123, Control_c, 0, 64, 0
3, 33176, Control_c, 0, 64, 127
3, 33360, Note_on_c, 0, 68, 0
3, 33360, Note_on_c, 0, 64, 0
3, 33360, Note_on_c, 0, 69, 35
3, 33360, Note_on_c, 0, 65, 29
3, 33375, Control_c, 0, 64, 0
3, 33480, Control_c, 0, 64, 127
3, 33600, Note_on_c, 0, 65, 0
3, 33600, Note_on_c, 0, 62, 31
3, 33840, Note_on_c, 0, 62, 0
3, 33840, Note_on_c, 0, 69, 0
3, 33840, Note_on_c, 0, 64, 31
3, 33840, Note_on_c, 0, 68, 37
3, 33845, Control_c, 0, 64, 0
3, 33918, Control_c, 0, 64, 127
3, 34080, Note_on_c, 0, 68, 0
3, 34080, Note_on_c, 0, 64, 0
3, 34080, Note_on_c, 0, 69, 35
3, 34080, Note_on_c, 0, 65, 29
3, 34095, Control_c, 0, 64, 0
3, 34172, Control_c, 0, 64, 127
3, 34320, Note_on_c, 0, 65, 0
3, 34320, Note_on_c, 0, 62, 29
3, 34560, Note_on_c, 0, 62, 0
3, 34560, Note_on_c, 0, 69, 0
3, 34560, Note_on_c, 0, 64, 29
3, 34560, Note_on_c, 0, 68, 34
3, 34563, Control_c, 0, 64, 0
3, 34609, Control_c, 0, 64, 127
3, 34800, Note_on_c, 0, 68, 0
3, 34800, Note_on_c, 0, 64, 0
3, 34800, Note_on_c, 0, 69, 29
3, 34800, Note_on_c, 0, 65, 24
3, 34814, Control_c, 0, 64, 0
3, 34885, Control_c, 0, 64, 127
3, 35040, Note_on_c, 0, 65, 0
3, 35040, Note_on_c, 0, 62, 25
3, 35280, Note_on_c, 0, 62, 0
3, 35280, Note_on_c, 0, 69, 0
3, 35280, Note_on_c, 0, 68, 35
3, 35280, Note_on_c, 0, 64, 29
3, 35285, Control_c, 0, 64, 0
3, 35344, Control_c, 0, 64, 127
3, 35520, Note_on_c, 0, 64, 0
3, 35520, Note_on_c, 0, 68, 0
3, 35520, Note_on_c, 0, 69, 32
3, 35520, Note_on_c, 0, 65, 27
3, 35529, Control_c, 0, 64, 0
3, 35591, Control_c, 0, 64, 127
3, 35760, Note_on_c, 0, 65, 0
3, 35760, Note_on_c, 0, 62, 29
3, 36000, Note_on_c, 0, 62, 0
3, 36000, Note_on_c, 0, 69, 0
3, 36000, Note_on_c, 0, 59, 29
3, 36000, Note_on_c, 0, 63, 34
3, 36004, Control_c, 0, 64, 0
3, 36085, Control_c, 0, 64, 127
3, 36240, Note_on_c, 0, 63, 0
3, 36240, Note_on_c, 0, 59, 0
3, 36240, Note_on_c, 0, 60, 24
3, 36240, Note_on_c, 0, 64, 29
3, 36255, Control_c, 0, 64, 0
3, 36339, Control_c, 0, 64, 127
3, 36480, Note_on_c, 0, 60, 0
3, 36480, Note_on_c, 0, 57, 26
3, 36720, Note_on_c, 0, 57, 0
3, 36720, Note_on_c, 0, 64, 0
3, 36720, Note_on_c, 0, 59, 24
3, 36720, Note_on_c, 0, 63, 29
3, 36723, Control_c, 0, 64, 0
3, 36771, Control_c, 0, 64, 127
3, 36960, Note_on_c, 0, 63, 0
3, 36960, Note_on_c, 0, 59, 0
3, 36960, Note_on_c, 0, 64, 27
3, 36960, Note_on_c, 0, 60, 23
3, 36970, Control_c, 0, 64, 0
3, 37035, Control_c, 0, 64, 127
3, 37200, Note_on_c, 0, 60, 0
3, 37200, Note_on_c, 0, 57, 28
3, 37217, Control_c, 0, 64, 0
3, 37251, Control_c, 0, 64, 127
3, 37440, Note_on_c, 0, 57, 0
3, 37440, Note_on_c, 0, 64, 0
3, 37440, Note_on_c, 0, 59, 28
3, 37440, Note_on_c, 0, 63, 33
3, 37444, Control_c, 0, 64, 0
3, 37504, Control_c, 0, 64, 127
3, 37680, Note_on_c, 0, 63, 0
3, 37680, Note_on_c, 0, 59, 0
3, 37680, Note_on_c, 0, 64, 31
3, 37680, Note_on_c, 0, 60, 26
3, 37689, Control_c, 0, 64, 0
3, 37765, Control_c, 0, 64, 127
3, 37920, Note_on_c, 0, 60, 0
3, 37920, Note_on_c, 0, 57, 31
3, 38160, Note_on_c, 0, 57, 0
3, 38160, Note_on_c, 0, 64, 0
3, 38160, Note_on_c, 0, 59, 31
3, 38160, Note_on_c, 0, 63, 37
3, 38163, Control_c, 0, 64, 0
3, 38206, Control_c, 0, 64, 127
3, 38400, Note_on_c, 0, 63, 0
3, 38400, Note_on_c, 0, 59, 0
3, 38400, Note_on_c, 0, 60, 28
3, 38400, Note_on_c, 0, 64, 33
3, 38411, Control_c, 0, 64, 0
3, 38463, Control_c, 0, 64, 127
3, 38640, Note_on_c, 0, 64, 0
3, 38640, Note_on_c, 0, 60, 0
3, 38640, Note_on_c, 0, 57, 34
3, 38640, Note_on_c, 0, 66, 40
3, 38880, Note_on_c, 0, 66, 0
3, 38880, Note_on_c, 0, 57, 0
3, 38880, Note_on_c, 0, 64, 34
3, 38880, Note_on_c, 0, 68, 40
3, 38890, Control_c, 0, 64, 0
3, 38951, Control_c, 0, 64, 127
3, 39120, Note_on_c, 0, 68, 0
3, 39120, Note_on_c, 0, 64, 0
3, 39120, Note_on_c, 0, 69, 39
3, 39120, Note_on_c, 0, 65, 33
3, 39137, Control_c, 0, 64, 0
3, 39191, Control_c, 0, 64, 127
3, 39360, Note_on_c, 0, 65, 0
3, 39360, Note_on_c, 0, 69, 0
3, 39360, Note_on_c, 0, 71, 39
3, 39360, Note_on_c, 0, 62, 37
3, 39600, Note_on_c, 0, 62, 0
3, 39600, Note_on_c, 0, 71, 0
3, 39600, Note_on_c, 0, 69, 37
3, 39600, Note_on_c, 0, 73, 45
3, 39610, Control_c, 0, 64, 0
3, 39671, Control_c, 0, 64, 127
3, 39840, Note_on_c, 0, 73, 0
3, 39840, Note_on_c, 0, 69, 0
3, 39840, Note_on_c, 0, 74, 43
3, 39840, Note_on_c, 0, 70, 35
3, 39852, Control_c, 0, 64, 0
3, 39932, Control_c, 0, 64, 127
3, 40080, Note_on_c, 0, 70, 0
3, 40080, Note_on_c, 0, 67, 40
3, 40320, Note_on_c, 0, 67, 0
3, 40320, Note_on_c, 0, 74, 0
3, 40320, Note_on_c, 0, 69, 40
3, 40320, Note_on_c, 0, 73, 49
3, 40331, Control_c, 0, 64, 0
3, 40384, Control_c, 0, 64, 127
3, 40560, Note_on_c, 0, 73, 0
3, 40560, Note_on_c, 0, 69, 0
3, 40560, Note_on_c, 0, 74, 47
3, 40560, Note_on_c, 0, 70, 39
3, 40567, Control_c, 0, 64, 0
3, 40638, Control_c, 0, 64, 127
3, 40800, Note_on_c, 0, 70, 0
3, 40800, Note_on_c, 0, 67, 40
3, 41040, Note_on_c, 0, 67, 0
3, 41040, Note_on_c, 0, 74, 0
3, 41040, Note_on_c, 0, 73, 49
3, 41040, Note_on_c, 0, 69, 40
3, 41043, Control_c, 0, 64, 0
3, 41082, Control_c, 0, 64, 127
3, 41280, Note_on_c, 0, 69, 0
3, 41280, Note_on_c, 0, 73, 0
3, 41280, Note_on_c, 0, 74, 47
3, 41280, Note_on_c, 0, 65, 39
3, 41290, Control_c, 0, 64, 0
3, 41358, Control_c, 0, 64, 127
3, 41520, Note_on_c, 0, 65, 0
3, 41520, Note_on_c, 0, 70, 40
3, 41760, Note_on_c, 0, 70, 0
3, 41760, Note_on_c, 0, 64, 40
3, 41769, Control_c, 0, 64, 0
3, 41845, Control_c, 0, 64, 127
3, 42000, Note_on_c, 0, 64, 0
3, 42000, Note_on_c, 0, 74, 0
3, 42000, Note_on_c, 0, 72, 45
3, 42000, Note_on_c, 0, 69, 37
3, 42018, Control_c, 0, 64, 0
3, 42092, Control_c, 0, 64, 127
3, 42240, Note_on_c, 0, 69, 0
3, 42240, Note_on_c, 0, 62, 38
3, 42480, Note_on_c, 0, 62, 0
3, 42480, Note_on_c, 0, 72, 0
3, 42480, Note_on_c, 0, 70, 45
3, 42480, Note_on_c, 0, 67, 37
3, 42486, Control_c, 0, 64, 0
3, 42532, Control_c, 0, 64, 127
3, 42720, Note_on_c, 0, 67, 0
3, 42720, Note_on_c, 0, 61, 34
3, 42730, Control_c, 0, 64, 0
3, 42789, Control_c, 0, 64, 127
3, 42960, Note_on_c, 0, 61, 0
3, 42960, Note_on_c, 0, 70, 0
3, 42960, Note_on_c, 0, 69, 44
3, 42960, Note_on_c, 0, 65, 36
3, 43200, Note_on_c, 0, 65, 0
3, 43200, Note_on_c, 0, 59, 36
3, 43205, Control_c, 0, 64, 0
3, 43271, Control_c, 0, 64, 127
3, 43458, Control_c, 0, 64, 0
3, 43532, Control_c, 0, 64, 127
3, 43680, Note_on_c, 0, 59, 0
3, 43680, Note_on_c, 0, 62, 34
3, 43920, Note_on_c, 0, 62, 0
3, 43920, Note_on_c, 0, 69, 0
3, 43920, Note_on_c, 0, 68, 39
3, 43920, Note_on_c, 0, 64, 33
3, 43923, Control_c, 0, 64, 0
3, 43998, Control_c, 0, 64, 127
3, 44160, Note_on_c, 0, 64, 0
3, 44160, Note_on_c, 0, 68, 0
3, 44160, Note_on_c, 0, 69, 35
3, 44160, Note_on_c, 0, 65, 29
3, 44174, Control_c, 0, 64, 0
3, 44266, Control_c, 0, 64, 127
3, 44400, Note_on_c, 0, 65, 0
3, 44400, Note_on_c, 0, 62, 33
3, 44640, Note_on_c, 0, 62, 0
3, 44640, Note_on_c, 0, 69, 0
3, 44640, Note_on_c, 0, 64, 33
3, 44640, Note_on_c, 0, 68, 39
3, 44647, Control_c, 0, 64, 0
3, 44718, Control_c, 0, 64, 127
3, 44880, Note_on_c, 0, 68, 0
3, 44880, Note_on_c, 0, 64, 0
3, 44880, Note_on_c, 0, 69, 31
3, 44880, Note_on_c, 0, 65, 26
3, 44891, Control_c, 0, 64, 0
3, 44965, Control_c, 0, 64, 127
3, 45120, Note_on_c, 0, 65, 0
3, 45120, Note_on_c, 0, 62, 29
3, 45360, Note_on_c, 0, 62, 0
3, 45360, Note_on_c, 0, 69, 0
3, 45360, Note_on_c, 0, 68, 34
3, 45360, Note_on_c, 0, 64, 29
3, 45367, Control_c, 0, 64, 0
3, 45452, Control_c, 0, 64, 127
3, 45600, Note_on_c, 0, 64, 0
3, 45600, Note_on_c, 0, 68, 0
3, 45600, Note_on_c, 0, 69, 29
3, 45600, Note_on_c, 0, 65, 24
3, 45617, Control_c, 0, 64, 0
3, 45720, Control_c, 0, 64, 127
3, 45840, Note_on_c, 0, 65, 0
3, 45840, Note_on_c, 0, 62, 28
3, 46080, Note_on_c, 0, 62, 0
3, 46080, Note_on_c, 0, 69, 0
3, 46080, Control_c, 0, 64, 0
3, 46080, Note_on_c, 0, 64, 28
3, 46080, Note_on_c, 0, 68, 33
3, 46129, Control_c, 0, 64, 127
3, 46320, Note_on_c, 0, 68, 0
3, 46320, Note_on_c, 0, 64, 0
3, 46320, Note_on_c, 0, 61, 24
3, 46320, Note_on_c, 0, 69, 29
3, 46335, Control_c, 0, 64, 0
3, 46419, Control_c, 0, 64, 127
3, 46560, Note_on_c, 0, 69, 0
3, 46560, Note_on_c, 0, 61, 0
3, 46560, Note_on_c, 0, 62, 23
3, 46560, Note_on_c, 0, 65, 27
3, 46800, Note_on_c, 0, 65, 0
3, 46800, Note_on_c, 0, 62, 0
3, 46800, Note_on_c, 0, 59, 22
3, 46800, Note_on_c, 0, 67, 26
3, 46809, Control_c, 0, 64, 0
3, 46892, Control_c, 0, 64, 127
3, 47040, Note_on_c, 0, 67, 0
3, 47040, Note_on_c, 0, 59, 0
3, 47040, Note_on_c, 0, 61, 22
3, 47040, Note_on_c, 0, 64, 26
3, 47052, Control_c, 0, 64, 0
3, 47155, Control_c, 0, 64, 127
3, 47280, Note_on_c, 0, 64, 0
3, 47280, Note_on_c, 0, 61, 0
3, 47280, Note_on_c, 0, 57, 21
3, 47280, Note_on_c, 0, 65, 25
3, 47520, Note_on_c, 0, 65, 0
3, 47520, Note_on_c, 0, 57, 0
3, 47520, Note_on_c, 0, 59, 21
3, 47520, Note_on_c, 0, 62, 25
3, 47529, Control_c, 0, 64, 0
3, 47605, Control_c, 0, 64, 127
3, 47760, Note_on_c, 0, 62, 0
3, 47760, Note_on_c, 0, 59, 0
3, 47760, Note_on_c, 0, 55, 19
3, 47760, Note_on_c, 0, 64, 24
3, 47774, Control_c, 0, 64, 0
3, 47866, Control_c, 0, 64, 127
3, 48000, Note_on_c, 0, 64, 0
3, 48000, Note_on_c, 0, 55, 0
3, 48000, Note_on_c, 0, 57, 18
3, 48000, Note_on_c, 0, 61, 23
3, 48240, Note_on_c, 0, 61, 0
3, 48240, Note_on_c, 0, 57, 0
3, 48240, Note_on_c, 0, 54, 18
3, 48240, Note_on_c, 0, 64, 23
3, 48249, Control_c, 0, 64, 0
3, 48320, Control_c, 0, 64, 127
3, 48480, Note_on_c, 0, 64, 0
3, 48480, Note_on_c, 0, 54, 0
3, 48480, Note_on_c, 0, 53, 18
3, 48480, Note_on_c, 0, 57, 23
3, 48482, Control_c, 0, 64, 0
3, 48583, Control_c, 0, 64, 127
3, 48720, Note_on_c, 0, 57, 0
3, 48720, Note_on_c, 0, 53, 0
3, 48720, Note_on_c, 0, 50, 18
3, 48720, Note_on_c, 0, 62, 23
3, 48960, Note_on_c, 0, 62, 0
3, 48960, Note_on_c, 0, 50, 0
3, 48960, Control_c, 0, 64, 0
3, 48960, Note_on_c, 0, 33, 51
3, 48960, Control_c, 0, 91, 127
3, 49006, Control_c, 0, 64, 127
3, 49120, Note_on_c, 0, 33, 0
3, 49120, Note_on_c, 0, 45, 48
3, 49280, Note_on_c, 0, 52, 43
3, 49440, Note_on_c, 0, 52, 0
3, 49440, Note_on_c, 0, 50, 37
3, 49446, Control_c, 0, 64, 0
3, 49613, Control_c, 0, 64, 127
3, 50400, Note_on_c, 0, 50, 0
3, 50400, Note_on_c, 0, 45, 0
3, 50400, Control_c, 0, 64, 0
3, 50400, Note_on_c, 0, 33, 44
3, 50400, Control_c, 0, 91, 127
3, 50478, Control_c, 0, 64, 127
3, 50560, Note_on_c, 0, 33, 0
3, 50560, Note_on_c, 0, 45, 42
3, 50720, Note_on_c, 0, 52, 37
3, 50880, Note_on_c, 0, 52, 0
3, 50880, Note_on_c, 0, 54, 32
3, 50898, Control_c, 0, 64, 0
3, 51085, Control_c, 0, 64, 127
3, 51840, Note_on_c, 0, 54, 0
3, 51840, Note_on_c, 0, 45, 0
3, 51840, Control_c, 0, 64, 0
3, 51840, Note_on_c, 0, 33, 47
3, 51904, Control_c, 0, 64, 127
3, 52000, Note_on_c, 0, 33, 0
3, 52000, Note_on_c, 0, 45, 42
3, 52160, Note_on_c, 0, 49, 42
3, 52320, Note_on_c, 0, 49, 0
3, 52320, Note_on_c, 0, 51, 42
3, 52324, Control_c, 0, 64, 0
3, 53280, Note_on_c, 0, 51, 0
3, 53280, Note_on_c, 0, 45, 0
3, 53280, Note_on_c, 0, 40, 39
3, 53336, Control_c, 0, 64, 127
3, 53520, Note_on_c, 0, 47, 34
3, 53760, Note_on_c, 0, 47, 0
3, 53760, Note_on_c, 0, 52, 32
3, 54240, Note_on_c, 0, 40, 0
3, 54720, Note_on_c, 0, 52, 0
3, 54720, Note_on_c, 0, 45, 39
3, 54722, Control_c, 0, 64, 0
3, 54806, Control_c, 0, 64, 127
3, 54880, Note_on_c, 0, 45, 0
3, 54880, Note_on_c, 0, 57, 39
3, 55040, Note_on_c, 0, 57, 0
3, 55040, Note_on_c, 0, 64, 39
3, 55200, Note_on_c, 0, 64, 0
3, 55200, Note_on_c, 0, 57, 25
3, 55200, Note_on_c, 0, 62, 28
3, 55214, Control_c, 0, 64, 0
3, 55377, Control_c, 0, 64, 127
3, 56160, Note_on_c, 0, 62, 0
3, 56160, Note_on_c, 0, 57, 0
3, 56160, Note_on_c, 0, 45, 36
3, 56162, Control_c, 0, 64, 0
3, 56231, Control_c, 0, 64, 127
3, 56320, Note_on_c, 0, 45, 0
3, 56320, Note_on_c, 0, 57, 36
3, 56480, Note_on_c, 0, 57, 0
3, 56480, Note_on_c, 0, 64, 36
3, 56640, Note_on_c, 0, 64, 0
3, 56640, Note_on_c, 0, 57, 24
3, 56640, Note_on_c, 0, 66, 27
3, 56657, Control_c, 0, 64, 0
3, 56774, Control_c, 0, 64, 127
3, 57600, Note_on_c, 0, 66, 0
3, 57600, Note_on_c, 0, 57, 0
3, 57600, Note_on_c, 0, 45, 42
3, 57608, Control_c, 0, 64, 0
3, 57686, Control_c, 0, 64, 127
3, 57760, Note_on_c, 0, 45, 0
3, 57760, Note_on_c, 0, 57, 42
3, 57920, Note_on_c, 0, 57, 0
3, 57920, Note_on_c, 0, 61, 39
3, 58080, Note_on_c, 0, 61, 0
3, 58080, Note_on_c, 0, 57, 32
3, 58080, Note_on_c, 0, 63, 36
3, 58100, Control_c, 0, 64, 0
3, 58195, Control_c, 0, 64, 127
3, 59040, Note_on_c, 0, 63, 0
3, 59040, Note_on_c, 0, 57, 0
3, 59040, Note_on_c, 0, 52, 38
3, 59057, Control_c, 0, 64, 0
3, 59280, Note_on_c, 0, 59, 30
3, 59323, Control_c, 0, 64, 127
3, 59520, Note_on_c, 0, 59, 0
3, 59520, Note_on_c, 0, 64, 32
3, 60480, Note_on_c, 0, 64, 0
3, 60480, Note_on_c, 0, 52, 0
3, 60480, Control_c, 0, 64, 0
3, 60480, Note_on_c, 0, 33, 54
3, 60558, Control_c, 0, 64, 127
3, 60640, Note_on_c, 0, 33, 0
3, 60640, Note_on_c, 0, 45, 46
3, 60800, Note_on_c, 0, 49, 51
3, 60960, Note_on_c, 0, 49, 0
3, 60960, Note_on_c, 0, 51, 58
3, 60978, Control_c, 0, 64, 0
3, 61048, Control_c, 0, 64, 127
3, 61440, Note_on_c, 0, 45, 0
3, 61440, Note_on_c, 0, 45, 46
3, 61459, Control_c, 0, 64, 0
3, 61514, Control_c, 0, 64, 127
3, 61920, Note_on_c, 0, 45, 0
3, 61920, Note_on_c, 0, 51, 0
3, 61920, Note_on_c, 0, 40, 49
3, 61920, Note_on_c, 0, 47, 54
3, 61925, Control_c, 0, 64, 0
3, 62019, Control_c, 0, 64, 127
3, 62160, Note_on_c, 0, 47, 0
3, 62160, Note_on_c, 0, 40, 0
3, 62400, Note_on_c, 0, 52, 54
3, 62400, Note_on_c, 0, 59, 61
3, 62580, Note_on_c, 0, 59, 0
3, 62580, Note_on_c, 0, 52, 0
3, 62880, Note_on_c, 0, 64, 59
3, 62880, Note_on_c, 0, 71, 67
3, 63060, Note_on_c, 0, 71, 0
3, 63060, Note_on_c, 0, 64, 0
3, 63360, Note_on_c, 0, 64, 66
3, 63360, Control_c, 0, 64, 0
3, 63360, Note_on_c, 0, 74, 66
3, 63445, Control_c, 0, 64, 127
3, 63600, Note_on_c, 0, 74, 0
3, 63600, Note_on_c, 0, 71, 57
3, 63840, Note_on_c, 0, 71, 0
3, 63840, Note_on_c, 0, 72, 61
3, 63854, Control_c, 0, 64, 0
3, 63967, Control_c, 0, 64, 127
3, 64080, Note_on_c, 0, 72, 0
3, 64080, Note_on_c, 0, 69, 57
3, 64320, Note_on_c, 0, 69, 0
3, 64320, Note_on_c, 0, 71, 61
3, 64327, Control_c, 0, 64, 0
3, 64461, Control_c, 0, 64, 127
3, 64560, Note_on_c, 0, 71, 0
3, 64560, Note_on_c, 0, 67, 55
3, 64800, Note_on_c, 0, 67, 0
3, 64800, Note_on_c, 0, 64, 0
3, 64800, Note_on_c, 0, 64, 38
3, 64800, Control_c, 0, 64, 0
3, 64800, Note_on_c, 0, 69, 58
3, 64926, Control_c, 0, 64, 127
3, 65280, Note_on_c, 0, 69, 0
3, 65280, Note_on_c, 0, 71, 56
3, 65291, Control_c, 0, 64, 0
3, 65406, Control_c, 0, 64, 127
3, 65520, Note_on_c, 0, 71, 0
3, 65520, Control_c, 0, 64, 0
3, 65520, Note_on_c, 0, 69, 53
3, 65646, Control_c, 0, 64, 127
3, 65760, Note_on_c, 0, 69, 0
3, 65760, Note_on_c, 0, 67, 52
3, 65764, Control_c, 0, 64, 0
3, 65875, Control_c, 0, 64, 127
3, 66000, Note_on_c, 0, 67, 0
3, 66000, Note_on_c, 0, 65, 47
3, 66008, Control_c, 0, 64, 0
3, 66137, Control_c, 0, 64, 127
3, 66240, Note_on_c, 0, 65, 0
3, 66240, Note_on_c, 0, 64, 0
3, 66240, Control_c, 0, 64, 0
3, 66240, Note_on_c, 0, 64, 44
3, 66343, Control_c, 0, 64, 127
3, 66480, Note_on_c, 0, 64, 0
3, 66480, Note_on_c, 0, 57, 48
3, 66502, Control_c, 0, 64, 0
3, 66583, Control_c, 0, 64, 127
3, 66720, Note_on_c, 0, 57, 0
3, 66720, Note_on_c, 0, 50, 46
3, 66723, Control_c, 0, 64, 0
3, 66835, Control_c, 0, 64, 127
3, 66960, Note_on_c, 0, 50, 0
3, 66960, Note_on_c, 0, 43, 38
3, 66966, Control_c, 0, 64, 0
3, 67086, Control_c, 0, 64, 127
3, 67200, Note_on_c, 0, 43, 0
3, 67200, Note_on_c, 0, 36, 37
3, 67210, Control_c, 0, 64, 0
3, 67326, Control_c, 0, 64, 127
3, 67440, Note_on_c, 0, 36, 0
3, 67440, Note_on_c, 0, 41, 34
3, 67451, Control_c, 0, 64, 0
3, 67555, Control_c, 0, 64, 127
3, 67680, Note_on_c, 0, 41, 0
3, 67680, Control_c, 0, 64, 0
3, 67680, Note_on_c, 0, 40, 32
3, 67771, Control_c, 0, 64, 127
3, 67920, Note_on_c, 0, 40, 0
3, 67920, Note_on_c, 0, 45, 32
3, 67931, Control_c, 0, 64, 0
3, 68057, Control_c, 0, 64, 127
3, 68160, Note_on_c, 0, 45, 0
3, 68160, Note_on_c, 0, 38, 32
3, 68176, Control_c, 0, 64, 0
3, 68286, Control_c, 0, 64, 127
3, 68400, Note_on_c, 0, 38, 0
3, 68400, Note_on_c, 0, 31, 32
3, 68410, Control_c, 0, 64, 0
3, 68503, Control_c, 0, 64, 127
3, 68640, Note_on_c, 0, 31, 0
3, 68640, Note_on_c, 0, 36, 32
3, 68645, Control_c, 0, 64, 0
3, 68766, Control_c, 0, 64, 127
3, 68880, Note_on_c, 0, 36, 0
3, 68880, Note_on_c, 0, 45, 32
3, 68895, Control_c, 0, 64, 0
3, 69006, Control_c, 0, 64, 127
3, 69120, Note_on_c, 0, 45, 0
3, 69120, Note_on_c, 0, 38, 35
3, 69125, Control_c, 0, 64, 0
3, 69257, Control_c, 0, 64, 127
3, 69360, Note_on_c, 0, 38, 0
3, 69360, Note_on_c, 0, 31, 35
3, 69378, Control_c, 0, 64, 0
3, 69497, Control_c, 0, 64, 127
3, 69600, Note_on_c, 0, 31, 0
3, 69600, Note_on_c, 0, 36, 31
3, 69623, Control_c, 0, 64, 0
3, 69715, Control_c, 0, 64, 127
3, 69840, Note_on_c, 0, 36, 0
3, 69840, Note_on_c, 0, 45, 31
3, 69847, Control_c, 0, 64, 0
3, 69943, Control_c, 0, 64, 127
3, 70080, Note_on_c, 0, 45, 0
3, 70080, Note_on_c, 0, 38, 28
3, 70098, Control_c, 0, 64, 0
3, 70195, Control_c, 0, 64, 127
3, 70320, Note_on_c, 0, 38, 0
3, 70320, Note_on_c, 0, 26, 28
3, 70333, Control_c, 0, 64, 0
3, 70446, Control_c, 0, 64, 127
3, 70560, Note_on_c, 0, 26, 0
3, 70560, Control_c, 0, 64, 0
3, 70560, Control_c, 0, 91, 127
3, 70560, Note_on_c, 0, 33, 37
3, 70673, Control_c, 0, 64, 127
3, 70720, Note_on_c, 0, 33, 0
3, 70720, Note_on_c, 0, 45, 35
3, 70880, Note_on_c, 0, 45, 0
3, 70880, Note_on_c, 0, 52, 37
3, 71040, Note_on_c, 0, 52, 0
3, 71040, Note_on_c, 0, 45, 28
3, 71040, Note_on_c, 0, 50, 31
3, 71068, Control_c, 0, 64, 0
3, 71188, Control_c, 0, 64, 127
3, 72000, Note_on_c, 0, 50, 0
3, 72000, Note_on_c, 0, 45, 0
3, 72000, Note_on_c, 0, 33, 32
3, 72005, Control_c, 0, 64, 0
3, 72113, Control_c, 0, 64, 127
3, 72160, Note_on_c, 0, 33, 0
3, 72160, Note_on_c, 0, 45, 36
3, 72320, Note_on_c, 0, 45, 0
3, 72320, Note_on_c, 0, 52, 38
3, 72480, Note_on_c, 0, 52, 0
3, 72480, Note_on_c, 0, 45, 26
3, 72480, Note_on_c, 0, 53, 29
3, 72498, Control_c, 0, 64, 0
3, 72664, Control_c, 0, 64, 127
3, 73440, Note_on_c, 0, 53, 0
3, 73440, Note_on_c, 0, 45, 0
3, 73440, Note_on_c, 0, 33, 33
3, 73445, Control_c, 0, 64, 0
3, 73553, Control_c, 0, 64, 127
3, 73600, Note_on_c, 0, 33, 0
3, 73600, Note_on_c, 0, 45, 33
3, 73760, Note_on_c, 0, 45, 0
3, 73760, Note_on_c, 0, 48, 33
3, 73920, Note_on_c, 0, 48, 0
3, 73920, Note_on_c, 0, 45, 25
3, 73920, Note_on_c, 0, 51, 28
3, 73939, Control_c, 0, 64, 0
3, 74054, Control_c, 0, 64, 127
3, 74880, Note_on_c, 0, 51, 0
3, 74880, Note_on_c, 0, 45, 0
3, 74880, Note_on_c, 0, 40, 26
3, 74889, Control_c, 0, 64, 0
3, 75021, Control_c, 0, 64, 127
3, 75040, Note_on_c, 0, 47, 27
3, 75200, Note_on_c, 0, 47, 0
3, 75200, Note_on_c, 0, 52, 27
3, 76320, Note_on_c, 0, 52, 0
3, 76320, Note_on_c, 0, 40, 0
3, 76320, Control_c, 0, 64, 0
3, 76320, Note_on_c, 0, 33, 37
3, 76440, Control_c, 0, 64, 127
3, 76480, Note_on_c, 0, 33, 0
3, 76480, Note_on_c, 0, 45, 40
3, 76640, Note_on_c, 0, 45, 0
3, 76640, Note_on_c, 0, 52, 45
3, 76800, Note_on_c, 0, 52, 0
3, 76800, Note_on_c, 0, 45, 36
3, 76800, Note_on_c, 0, 57, 40
3, 76814, Control_c, 0, 64, 0
3, 76984, Control_c, 0, 64, 127
3, 77760, Note_on_c, 0, 57, 0
3, 77760, Note_on_c, 0, 45, 0
3, 77760, Note_on_c, 0, 38, 43
3, 77770, Control_c, 0, 64, 0
3, 77887, Control_c, 0, 64, 127
3, 77920, Note_on_c, 0, 38, 0
3, 77920, Note_on_c, 0, 50, 46
3, 78080, Note_on_c, 0, 50, 0
3, 78080, Note_on_c, 0, 57, 48
3, 78240, Note_on_c, 0, 57, 0
3, 78240, Note_on_c, 0, 51, 40
3, 78240, Note_on_c, 0, 60, 46
3, 78251, Control_c, 0, 64, 0
3, 78367, Control_c, 0, 64, 127
3, 79200, Note_on_c, 0, 60, 0
3, 79200, Note_on_c, 0, 51, 0
3, 79200, Note_on_c, 0, 40, 44
3, 79213, Control_c, 0, 64, 0
3, 79327, Control_c, 0, 64, 127
3, 79360, Note_on_c, 0, 40, 0
3, 79360, Note_on_c, 0, 52, 44
3, 79520, Note_on_c, 0, 52, 0
3, 79520, Note_on_c, 0, 55, 44
3, 79680, Note_on_c, 0, 55, 0
3, 79680, Note_on_c, 0, 60, 40
3, 79680, Note_on_c, 0, 52, 36
3, 79692, Control_c, 0, 64, 0
3, 79828, Control_c, 0, 64, 127
3, 80160, Note_on_c, 0, 52, 0
3, 80160, Note_on_c, 0, 53, 37
3, 80400, Note_on_c, 0, 60, 0
3, 80400, Note_on_c, 0, 57, 32
3, 80640, Note_on_c, 0, 57, 0
3, 80640, Note_on_c, 0, 53, 0
3, 80640, Note_on_c, 0, 52, 47
3, 80642, Control_c, 0, 64, 0
3, 80767, Control_c, 0, 64, 127
3, 80880, Note_on_c, 0, 52, 0
3, 80880, Note_on_c, 0, 52, 46
3, 81120, Note_on_c, 0, 48, 44
3, 81139, Control_c, 0, 64, 0
3, 81360, Control_c, 0, 64, 127
3, 81600, Note_on_c, 0, 48, 0
3, 81600, Note_on_c, 0, 45, 46
3, 82080, Note_on_c, 0, 45, 0
3, 82080, Note_on_c, 0, 52, 0
3, 82087, Control_c, 0, 64, 0
3, 82193, Control_c, 0, 64, 127
3, 82320, Note_on_c, 0, 40, 35
3, 82560, Note_on_c, 0, 40, 0
3, 82560, Note_on_c, 0, 36, 37
3, 82565, Control_c, 0, 64, 0
3, 82744, Control_c, 0, 64, 127
3, 83040, Note_on_c, 0, 36, 0
3, 83040, Note_on_c, 0, 33, 28
3, 83530, Control_c, 0, 64, 0
3, 83661, Control_c, 0, 64, 127
3, 83680, Note_on_c, 0, 33, 0
3, 83680, Note_on_c, 0, 45, 26
3, 83840, Note_on_c, 0, 45, 0
3, 83840, Note_on_c, 0, 52, 25
3, 84000, Note_on_c, 0, 52, 0
3, 84000, Note_on_c, 0, 45, 25
3, 84016, Control_c, 0, 64, 0
3, 84120, Control_c, 0, 64, 127
3, 84160, Note_on_c, 0, 45, 0
3, 84160, Note_on_c, 0, 50, 25
3, 84320, Note_on_c, 0, 50, 0
3, 84320, Note_on_c, 0, 53, 25
3, 84480, Note_on_c, 0, 53, 0
3, 84480, Note_on_c, 0, 45, 25
3, 84489, Control_c, 0, 64, 0
3, 84614, Control_c, 0, 64, 127
3, 84960, Note_on_c, 0, 45, 0
3, 84960, Note_on_c, 0, 33, 25
3, 84968, Control_c, 0, 64, 0
3, 85087, Control_c, 0, 64, 127
3, 85120, Note_on_c, 0, 33, 0
3, 85120, Note_on_c, 0, 45, 26
3, 85280, Note_on_c, 0, 45, 0
3, 85280, Note_on_c, 0, 52, 27
3, 85440, Note_on_c, 0, 52, 0
3, 85440, Note_on_c, 0, 45, 28
3, 85454, Control_c, 0, 64, 0
3, 85539, Control_c, 0, 64, 127
3, 85600, Note_on_c, 0, 45, 0
3, 85600, Note_on_c, 0, 53, 27
3, 85760, Note_on_c, 0, 53, 0
3, 85760, Note_on_c, 0, 50, 27
3, 85920, Note_on_c, 0, 50, 0
3, 85920, Note_on_c, 0, 45, 27
3, 85930, Control_c, 0, 64, 0
3, 86005, Control_c, 0, 64, 127
3, 86400, Note_on_c, 0, 45, 0
3, 86400, Control_c, 0, 64, 0
3, 86400, Note_on_c, 0, 33, 26
3, 86520, Control_c, 0, 64, 127
3, 86560, Note_on_c, 0, 33, 0
3, 86560, Note_on_c, 0, 45, 28
3, 86720, Note_on_c, 0, 45, 0
3, 86720, Note_on_c, 0, 48, 30
3, 86880, Note_on_c, 0, 48, 0
3, 86880, Note_on_c, 0, 45, 33
3, 86897, Control_c, 0, 64, 0
3, 86966, Control_c, 0, 64, 127
3, 87040, Note_on_c, 0, 45, 0
3, 87040, Note_on_c, 0, 54, 31
3, 87200, Note_on_c, 0, 54, 0
3, 87200, Note_on_c, 0, 51, 31
3, 87360, Note_on_c, 0, 51, 0
3, 87360, Note_on_c, 0, 45, 29
3, 87371, Control_c, 0, 64, 0
3, 87429, Control_c, 0, 64, 127
3, 87520, Note_on_c, 0, 45, 0
3, 87520, Note_on_c, 0, 54, 29
3, 87680, Note_on_c, 0, 54, 0
3, 87680, Note_on_c, 0, 51, 29
3, 87840, Note_on_c, 0, 51, 0
3, 87840, Note_on_c, 0, 40, 27
3, 87845, Control_c, 0, 64, 0
3, 87960, Control_c, 0, 64, 127
3, 88000, Note_on_c, 0, 47, 28
3, 88160, Note_on_c, 0, 47, 0
3, 88160, Note_on_c, 0, 52, 28
3, 89280, Note_on_c, 0, 52, 0
3, 89280, Note_on_c, 0, 40, 0
3, 89280, Note_on_c, 0, 33, 35
3, 89294, Control_c, 0, 64, 0
3, 89372, Control_c, 0, 64, 127
3, 89440, Note_on_c, 0, 33, 0
3, 89440, Note_on_c, 0, 45, 37
3, 89600, Note_on_c, 0, 45, 0
3, 89600, Note_on_c, 0, 52, 39
3, 89760, Note_on_c, 0, 52, 0
3, 89760, Note_on_c, 0, 45, 42
3, 89764, Control_c, 0, 64, 0
3, 89806, Control_c, 0, 64, 127
3, 89920, Note_on_c, 0, 45, 0
3, 89920, Note_on_c, 0, 57, 44
3, 90080, Note_on_c, 0, 57, 0
3, 90080, Note_on_c, 0, 50, 47
3, 90240, Note_on_c, 0, 50, 0
3, 90240, Note_on_c, 0, 62, 46
3, 90249, Control_c, 0, 64, 0
3, 90314, Control_c, 0, 64, 127
3, 90400, Note_on_c, 0, 62, 0
3, 90400, Note_on_c, 0, 57, 48
3, 90560, Note_on_c, 0, 69, 50
3, 90720, Note_on_c, 0, 64, 53
3, 90724, Control_c, 0, 64, 0
3, 91093, Control_c, 0, 64, 127
3, 92160, Note_on_c, 0, 64, 0
3, 92160, Note_on_c, 0, 69, 0
3, 92160, Note_on_c, 0, 57, 0
3, 92160, Note_on_c, 0, 38, 42
3, 92171, Control_c, 0, 64, 0
3, 92241, Control_c, 0, 64, 127
3, 92320, Note_on_c, 0, 38, 0
3, 92320, Note_on_c, 0, 50, 45
3, 92480, Note_on_c, 0, 50, 0
3, 92480, Note_on_c, 0, 57, 49
3, 92640, Note_on_c, 0, 57, 0
3, 92640, Note_on_c, 0, 50, 52
3, 92659, Control_c, 0, 64, 0
3, 92704, Control_c, 0, 64, 127
3, 92800, Note_on_c, 0, 50, 0
3, 92800, Note_on_c, 0, 62, 55
3, 92960, Note_on_c, 0, 62, 0
3, 92960, Note_on_c, 0, 55, 54
3, 93120, Note_on_c, 0, 55, 0
3, 93120, Note_on_c, 0, 67, 58
3, 93141, Control_c, 0, 64, 0
3, 93208, Control_c, 0, 64, 127
3, 93280, Note_on_c, 0, 67, 0
3, 93280, Note_on_c, 0, 62, 58
3, 93440, Note_on_c, 0, 74, 63
3, 93600, Note_on_c, 0, 74, 0
3, 93600, Note_on_c, 0, 69, 66
3, 93602, Control_c, 0, 64, 0
3, 93840, Control_c, 0, 64, 127
3, 94080, Note_on_c, 0, 62, 0
3, 94080, Note_on_c, 0, 63, 60
3, 94096, Control_c, 0, 64, 0
3, 94560, Control_c, 0, 64, 127
3, 95040, Note_on_c, 0, 63, 0
3, 95040, Note_on_c, 0, 69, 0
3, 95040, Control_c, 0, 64, 0
3, 95040, Note_on_c, 0, 40, 45
3, 95104, Control_c, 0, 64, 127
3, 95200, Note_on_c, 0, 40, 0
3, 95200, Note_on_c, 0, 52, 45
3, 95360, Note_on_c, 0, 52, 0
3, 95360, Note_on_c, 0, 55, 42
3, 95520, Note_on_c, 0, 55, 0
3, 95520, Note_on_c, 0, 52, 40
3, 95538, Control_c, 0, 64, 0
3, 95580, Control_c, 0, 64, 127
3, 95680, Note_on_c, 0, 60, 37
3, 96000, Note_on_c, 0, 60, 0
3, 96000, Note_on_c, 0, 52, 0
3, 96000, Note_on_c, 0, 53, 37
3, 96018, Control_c, 0, 64, 0
3, 96060, Control_c, 0, 64, 127
3, 96160, Note_on_c, 0, 57, 37
3, 96480, Note_on_c, 0, 57, 0
3, 96480, Note_on_c, 0, 53, 0
3, 96480, Note_on_c, 0, 52, 37
3, 96484, Control_c, 0, 64, 0
3, 96664, Control_c, 0, 64, 127
3, 96720, Note_on_c, 0, 52, 0
3, 96720, Note_on_c, 0, 52, 34
3, 96960, Note_on_c, 0, 50, 37
3, 96977, Control_c, 0, 64, 0
3, 97200, Note_on_c, 0, 48, 35
3, 97210, Note_on_c, 0, 50, 0
3, 97440, Note_on_c, 0, 47, 38
3, 97450, Note_on_c, 0, 48, 0
3, 97680, Note_on_c, 0, 45, 34
3, 97690, Note_on_c, 0, 47, 0
3, 97920, Note_on_c, 0, 45, 0
3, 97920, Note_on_c, 0, 52, 0
3, 97920, Control_c, 0, 64, 127
3, 98160, Note_on_c, 0, 40, 31
3, 98400, Note_on_c, 0, 40, 0
3, 98400, Note_on_c, 0, 38, 29
3, 98419, Control_c, 0, 64, 0
3, 98598, Control_c, 0, 64, 127
3, 98880, Note_on_c, 0, 38, 0
3, 98880, Note_on_c, 0, 36, 27
3, 98898, Control_c, 0, 64, 0
3, 99134, Control_c, 0, 64, 127
3, 99360, Note_on_c, 0, 36, 0
3, 99360, Note_on_c, 0, 35, 25
3, 99363, Control_c, 0, 64, 0
3, 99574, Control_c, 0, 64, 127
3, 99840, Note_on_c, 0, 35, 0
3, 99840, Note_on_c, 0, 33, 26
3, 99858, Control_c, 0, 64, 0
3, 100107, Control_c, 0, 64, 127
3, 100320, Note_on_c, 0, 33, 0
3, 100800, Control_c, 0, 64, 0
3, 100800, End_track
4, 0, Start_track
4, 0, Title_t, "Fantasie No. 2 in a-moll, Op. 116"
4, 0, End_track
5, 0, Start_track
5, 0, Title_t, "Copyright © 1997 by Bernd Krüger"
5, 0, End_track
6, 0, Start_track
6, 0, Title_t, "http://www.piano-midi.de"
6, 0, End_track
7, 0, Start_track
7, 0, Title_t, "Edition: 2010-10-28"
7, 0, End_track
8, 0, Start_track
8, 0, Title_t, "Spur 7"
8, 0, End_track
0, 0, End_of_file
