0, 0, Header, 1, 10, 480
1, 0, Start_track
1, 0, Title_t, "Intermezzo Nr. 5, Opus 116"
1, 0, Copyright_t, "Copyright © 2005 von Bernd Krüger. "
1, 0, Text_t, "Johannes Brahms"
1, 0, Text_t, "Fertiggestellt am  5.5.2005\012"
1, 0, Text_t, "Update am 31.10.2010\012"
1, 0, Text_t, "Dauer:  2.:55 Minuten\012"
1, 0, Time_signature, 6, 3, 12, 8
1, 0, Key_signature, 1, "major"
1, 0, Tempo, 750000
1, 0, Marker_t, "Andante con grazia ed intimissimo sentimento"
1, 1200, Tempo, 740741
1, 1440, Tempo, 750000
1, 1680, Tempo, 697674
1, 1920, Tempo, 750000
1, 2160, Tempo, 750000
1, 2400, Tempo, 697674
1, 2640, Tempo, 740741
1, 2880, Tempo, 750000
1, 3360, Tempo, 731707
1, 3600, Tempo, 759494
1, 3840, Tempo, 714286
1, 4080, Tempo, 740741
1, 4320, Tempo, 750000
1, 4560, Tempo, 697674
1, 4800, Tempo, 750000
1, 5040, Tempo, 740741
1, 5280, Tempo, 659341
1, 5520, Tempo, 750000
1, 5760, Tempo, 740741
1, 6000, Tempo, 705882
1, 6240, Tempo, 740741
1, 6480, Tempo, 740741
1, 6720, Tempo, 769231
1, 6960, Tempo, 705882
1, 7200, Tempo, 750000
1, 7680, Tempo, 779221
1, 8160, Tempo, 697674
1, 8400, Tempo, 759494
1, 8880, Tempo, 779221
1, 9120, Tempo, 779221
1, 9360, Tempo, 722892
1, 9600, Tempo, 714286
1, 9840, Tempo, 857143
1, 10080, Tempo, 789474
1, 10320, Tempo, 833333
1, 10560, Tempo, 857143
1, 10800, Tempo, 731707
1, 11280, Tempo, 857143
1, 11520, Tempo, 810811
1, 11760, Tempo, 779221
1, 12000, Tempo, 705882
1, 12240, Tempo, 652174
1, 12480, Tempo, 750000
1, 12720, Tempo, 740741
1, 12960, Tempo, 750000
1, 13200, Tempo, 697674
1, 13440, Tempo, 740741
1, 13680, Tempo, 769231
1, 13920, Tempo, 731707
1, 14160, Tempo, 731707
1, 14400, Tempo, 759494
1, 14880, Tempo, 697674
1, 15120, Tempo, 659341
1, 15360, Tempo, 779221
1, 15600, Tempo, 882353
1, 15840, Tempo, 789474
1, 16320, Tempo, 845070
1, 16560, Tempo, 779221
1, 17040, Tempo, 967742
1, 17280, Tempo, 869565
1, 18440, Tempo, 750000
1, 18480, Tempo, 740741
1, 18720, Tempo, 750000
1, 18960, Tempo, 697674
1, 19200, Tempo, 750000
1, 19440, Tempo, 750000
1, 19680, Tempo, 600000
1, 19920, Tempo, 740741
1, 20160, Tempo, 750000
1, 20640, Tempo, 731707
1, 20880, Tempo, 759494
1, 21120, Tempo, 714286
1, 21360, Tempo, 740741
1, 21600, Tempo, 722892
1, 21840, Tempo, 697674
1, 22080, Tempo, 750000
1, 22320, Tempo, 740741
1, 22560, Tempo, 588235
1, 22800, Tempo, 750000
1, 23040, Tempo, 740741
1, 23280, Tempo, 705882
1, 23520, Tempo, 740741
1, 23760, Tempo, 740741
1, 24000, Tempo, 697674
1, 24240, Tempo, 705882
1, 24480, Tempo, 750000
1, 24960, Tempo, 731707
1, 25200, Tempo, 779221
1, 25440, Tempo, 652174
1, 25680, Tempo, 769231
1, 26160, Tempo, 779221
1, 26400, Tempo, 779221
1, 26640, Tempo, 722892
1, 26880, Tempo, 714286
1, 27120, Tempo, 857143
1, 27360, Tempo, 789474
1, 27600, Tempo, 833333
1, 27840, Tempo, 857143
1, 28080, Tempo, 689655
1, 28560, Tempo, 857143
1, 28800, Tempo, 810811
1, 29040, Tempo, 740741
1, 29280, Tempo, 705882
1, 29520, Tempo, 652174
1, 29760, Tempo, 750000
1, 30000, Tempo, 740741
1, 30240, Tempo, 750000
1, 30480, Tempo, 697674
1, 30720, Tempo, 740741
1, 30960, Tempo, 800000
1, 31200, Tempo, 731707
1, 31440, Tempo, 731707
1, 31680, Tempo, 759494
1, 32160, Tempo, 697674
1, 32400, Tempo, 659341
1, 32640, Tempo, 779221
1, 32880, Tempo, 967742
1, 33120, Tempo, 769231
1, 33600, Tempo, 800000
1, 33840, Tempo, 750000
1, 34080, Tempo, 674157
1, 34320, Tempo, 759494
1, 34560, Tempo, 740741
1, 34800, Tempo, 681818
1, 35040, Tempo, 740741
1, 35520, Tempo, 689655
1, 35760, Tempo, 759494
1, 36000, Tempo, 740741
1, 36240, Tempo, 681818
1, 36480, Tempo, 740741
1, 36960, Tempo, 705882
1, 37200, Tempo, 759494
1, 37440, Tempo, 740741
1, 37680, Tempo, 697674
1, 37920, Tempo, 740741
1, 38400, Tempo, 731707
1, 38880, Tempo, 697674
1, 39120, Tempo, 659341
1, 39360, Tempo, 697674
1, 39600, Tempo, 645161
1, 39840, Tempo, 674157
1, 40080, Tempo, 697674
1, 40320, Tempo, 689655
1, 40560, Tempo, 659341
1, 40800, Tempo, 689655
1, 41040, Tempo, 652174
1, 41280, Tempo, 674157
1, 41520, Tempo, 705882
1, 41760, Tempo, 681818
1, 42000, Tempo, 652174
1, 42240, Tempo, 674157
1, 42480, Tempo, 705882
1, 42960, Tempo, 759494
1, 43200, Tempo, 697674
1, 43440, Tempo, 652174
1, 43680, Tempo, 689655
1, 43920, Tempo, 645161
1, 44160, Tempo, 666667
1, 44400, Tempo, 731707
1, 44640, Tempo, 689655
1, 44880, Tempo, 705882
1, 45120, Tempo, 697674
1, 45360, Tempo, 705882
1, 45840, Tempo, 731707
1, 46080, Tempo, 689655
1, 46320, Tempo, 697674
1, 46560, Tempo, 689655
1, 46800, Tempo, 705882
1, 47280, Tempo, 731707
1, 47520, Tempo, 689655
1, 48240, Tempo, 705882
1, 48720, Tempo, 731707
1, 48960, Tempo, 689655
1, 49680, Tempo, 705882
1, 50160, Tempo, 731707
1, 50400, Tempo, 689655
1, 51120, Tempo, 705882
1, 51600, Tempo, 731707
1, 52080, Tempo, 705882
1, 52320, Tempo, 759494
1, 52560, Tempo, 731707
1, 53520, Tempo, 789474
1, 53760, Tempo, 722892
1, 54240, Tempo, 759494
1, 54480, Tempo, 722892
1, 54960, Tempo, 769231
1, 55200, Tempo, 722892
1, 55680, Tempo, 740741
1, 55920, Tempo, 722892
1, 56400, Tempo, 740741
1, 56640, Tempo, 722892
1, 57120, Tempo, 750000
1, 57360, Tempo, 722892
1, 57840, Tempo, 750000
1, 58080, Tempo, 722892
1, 58560, Tempo, 810811
1, 58800, Tempo, 740741
1, 59040, Tempo, 750000
1, 59280, Tempo, 697674
1, 59520, Tempo, 750000
1, 59760, Tempo, 750000
1, 60000, Tempo, 697674
1, 60240, Tempo, 740741
1, 60480, Tempo, 750000
1, 60960, Tempo, 731707
1, 61200, Tempo, 759494
1, 61440, Tempo, 714286
1, 61680, Tempo, 740741
1, 61920, Tempo, 750000
1, 62160, Tempo, 697674
1, 62400, Tempo, 750000
1, 62640, Tempo, 740741
1, 62880, Tempo, 697674
1, 63120, Tempo, 750000
1, 63360, Tempo, 740741
1, 63600, Tempo, 705882
1, 63840, Tempo, 740741
1, 64080, Tempo, 740741
1, 64320, Tempo, 769231
1, 64560, Tempo, 705882
1, 64800, Tempo, 750000
1, 65280, Tempo, 779221
1, 65760, Tempo, 769231
1, 66720, Tempo, 821918
1, 67440, Tempo, 857143
1, 67680, Tempo, 810811
1, 68640, Tempo, 882353
1, 68880, Tempo, 845070
1, 69360, Tempo, 882353
1, 69840, Tempo, 882353
1, 70320, Tempo, 821918
1, 70560, Tempo, 769231
1, 71040, Tempo, 800000
1, 71280, Tempo, 750000
1, 71520, Tempo, 674157
1, 71760, Tempo, 759494
1, 72240, Tempo, 714286
1, 72480, Tempo, 740741
1, 72960, Tempo, 689655
1, 73200, Tempo, 759494
1, 73440, Tempo, 740741
1, 73680, Tempo, 681818
1, 73920, Tempo, 740741
1, 74400, Tempo, 705882
1, 74640, Tempo, 821918
1, 74880, Tempo, 740741
1, 75120, Tempo, 689655
1, 75360, Tempo, 740741
1, 75600, Tempo, 659341
1, 75840, Tempo, 731707
1, 76320, Tempo, 697674
1, 76560, Tempo, 638298
1, 76800, Tempo, 697674
1, 77040, Tempo, 645161
1, 77280, Tempo, 674157
1, 77520, Tempo, 697674
1, 77760, Tempo, 689655
1, 78000, Tempo, 659341
1, 78240, Tempo, 689655
1, 78480, Tempo, 631579
1, 78720, Tempo, 674157
1, 78960, Tempo, 705882
1, 79200, Tempo, 681818
1, 79440, Tempo, 652174
1, 79680, Tempo, 674157
1, 79920, Tempo, 722892
1, 80160, Tempo, 697674
1, 80400, Tempo, 759494
1, 80640, Tempo, 697674
1, 80880, Tempo, 652174
1, 81120, Tempo, 689655
1, 81360, Tempo, 645161
1, 81600, Tempo, 666667
1, 81840, Tempo, 731707
1, 82080, Tempo, 689655
1, 82320, Tempo, 705882
1, 82560, Tempo, 697674
1, 82800, Tempo, 705882
1, 83280, Tempo, 731707
1, 83520, Tempo, 674157
1, 83760, Tempo, 697674
1, 84000, Tempo, 689655
1, 84240, Tempo, 705882
1, 84720, Tempo, 731707
1, 84960, Tempo, 689655
1, 85680, Tempo, 705882
1, 86160, Tempo, 731707
1, 86400, Tempo, 689655
1, 86640, Tempo, 666667
1, 86880, Tempo, 689655
1, 87120, Tempo, 705882
1, 87600, Tempo, 731707
1, 87840, Tempo, 689655
1, 88560, Tempo, 705882
1, 89040, Tempo, 779221
1, 89280, Tempo, 731707
1, 89520, Tempo, 705882
1, 89760, Tempo, 759494
1, 90000, Tempo, 731707
1, 90960, Tempo, 789474
1, 91200, Tempo, 722892
1, 91680, Tempo, 800000
1, 91920, Tempo, 722892
1, 92400, Tempo, 769231
1, 92640, Tempo, 722892
1, 93120, Tempo, 740741
1, 93360, Tempo, 722892
1, 93840, Tempo, 740741
1, 94080, Tempo, 722892
1, 94560, Tempo, 750000
1, 94800, Tempo, 722892
1, 95280, Tempo, 750000
1, 95520, Tempo, 722892
1, 96000, Tempo, 833333
1, 96240, Tempo, 740741
1, 96480, Tempo, 750000
1, 96720, Tempo, 697674
1, 96960, Tempo, 750000
1, 97200, Tempo, 750000
1, 97440, Tempo, 697674
1, 97680, Tempo, 740741
1, 97920, Tempo, 731707
1, 98400, Tempo, 731707
1, 98640, Tempo, 759494
1, 98880, Tempo, 714286
1, 99120, Tempo, 740741
1, 99360, Tempo, 750000
1, 99600, Tempo, 697674
1, 99840, Tempo, 750000
1, 100080, Tempo, 740741
1, 100320, Tempo, 697674
1, 100560, Tempo, 750000
1, 100800, Tempo, 740741
1, 101040, Tempo, 705882
1, 101280, Tempo, 740741
1, 101520, Tempo, 740741
1, 101760, Tempo, 769231
1, 102000, Tempo, 705882
1, 102240, Tempo, 750000
1, 102720, Tempo, 779221
1, 103200, Tempo, 769231
1, 104160, Tempo, 821918
1, 104880, Tempo, 857143
1, 105120, Tempo, 674157
1, 107280, Tempo, 740741
1, 109440, Tempo, 845070
1, 110160, Tempo, 983607
1, 110160, End_track
2, 0, Start_track
2, 0, Title_t, "Piano right"
2, 0, Program_c, 0, 0
2, 0, Control_c, 0, 7, 100
2, 0, Control_c, 0, 10, 64
2, 1200, Note_on_c, 0, 71, 39
2, 1200, Note_on_c, 0, 59, 31
2, 1200, Note_on_c, 0, 67, 31
2, 1440, Note_on_c, 0, 67, 0
2, 1440, Note_on_c, 0, 59, 0
2, 1440, Note_on_c, 0, 71, 0
2, 1440, Note_on_c, 0, 72, 33
2, 1530, Note_on_c, 0, 72, 0
2, 1920, Note_on_c, 0, 79, 40
2, 1920, Note_on_c, 0, 71, 32
2, 1920, Note_on_c, 0, 76, 32
2, 2160, Note_on_c, 0, 76, 0
2, 2160, Note_on_c, 0, 71, 0
2, 2160, Note_on_c, 0, 79, 0
2, 2160, Note_on_c, 0, 70, 33
2, 2250, Note_on_c, 0, 70, 0
2, 2640, Note_on_c, 0, 71, 39
2, 2640, Note_on_c, 0, 59, 31
2, 2640, Note_on_c, 0, 67, 31
2, 2880, Note_on_c, 0, 67, 0
2, 2880, Note_on_c, 0, 59, 0
2, 2880, Note_on_c, 0, 71, 0
2, 2880, Note_on_c, 0, 72, 33
2, 2970, Note_on_c, 0, 72, 0
2, 3360, Note_on_c, 0, 79, 40
2, 3360, Note_on_c, 0, 71, 32
2, 3360, Note_on_c, 0, 76, 32
2, 3600, Note_on_c, 0, 76, 0
2, 3600, Note_on_c, 0, 71, 0
2, 3600, Note_on_c, 0, 79, 0
2, 3600, Note_on_c, 0, 64, 33
2, 3690, Note_on_c, 0, 64, 0
2, 4080, Note_on_c, 0, 72, 42
2, 4080, Note_on_c, 0, 60, 34
2, 4080, Note_on_c, 0, 69, 34
2, 4320, Note_on_c, 0, 69, 0
2, 4320, Note_on_c, 0, 60, 0
2, 4320, Note_on_c, 0, 72, 0
2, 4320, Note_on_c, 0, 74, 36
2, 4410, Note_on_c, 0, 74, 0
2, 4800, Note_on_c, 0, 81, 42
2, 4800, Note_on_c, 0, 72, 33
2, 4800, Note_on_c, 0, 78, 33
2, 5040, Note_on_c, 0, 78, 0
2, 5040, Note_on_c, 0, 72, 0
2, 5040, Note_on_c, 0, 81, 0
2, 5040, Note_on_c, 0, 71, 34
2, 5130, Note_on_c, 0, 71, 0
2, 5520, Note_on_c, 0, 72, 39
2, 5520, Note_on_c, 0, 60, 31
2, 5520, Note_on_c, 0, 69, 31
2, 5760, Note_on_c, 0, 69, 0
2, 5760, Note_on_c, 0, 60, 0
2, 5760, Note_on_c, 0, 72, 0
2, 5760, Note_on_c, 0, 74, 33
2, 5850, Note_on_c, 0, 74, 0
2, 6240, Note_on_c, 0, 81, 40
2, 6240, Note_on_c, 0, 72, 32
2, 6240, Note_on_c, 0, 78, 32
2, 6480, Note_on_c, 0, 78, 0
2, 6480, Note_on_c, 0, 72, 0
2, 6480, Note_on_c, 0, 81, 0
2, 6480, Note_on_c, 0, 66, 33
2, 6570, Note_on_c, 0, 66, 0
2, 6960, Note_on_c, 0, 74, 46
2, 6960, Note_on_c, 0, 62, 37
2, 6960, Note_on_c, 0, 71, 37
2, 7200, Note_on_c, 0, 71, 0
2, 7200, Note_on_c, 0, 62, 0
2, 7200, Note_on_c, 0, 74, 0
2, 7200, Note_on_c, 0, 76, 39
2, 7320, Note_on_c, 0, 76, 0
2, 7680, Note_on_c, 0, 83, 52
2, 7680, Note_on_c, 0, 74, 42
2, 7680, Note_on_c, 0, 80, 42
2, 7920, Note_on_c, 0, 80, 0
2, 7920, Note_on_c, 0, 74, 0
2, 7920, Note_on_c, 0, 83, 0
2, 7920, Note_on_c, 0, 68, 58
2, 8040, Note_on_c, 0, 68, 0
2, 8400, Note_on_c, 0, 76, 55
2, 8400, Note_on_c, 0, 64, 45
2, 8400, Note_on_c, 0, 72, 45
2, 8640, Note_on_c, 0, 72, 0
2, 8640, Note_on_c, 0, 64, 0
2, 8640, Note_on_c, 0, 76, 0
2, 8640, Note_on_c, 0, 77, 58
2, 8760, Note_on_c, 0, 77, 0
2, 9120, Note_on_c, 0, 85, 60
2, 9120, Note_on_c, 0, 76, 47
2, 9120, Note_on_c, 0, 82, 47
2, 9360, Note_on_c, 0, 82, 0
2, 9360, Note_on_c, 0, 76, 0
2, 9360, Note_on_c, 0, 85, 0
2, 9360, Note_on_c, 0, 70, 64
2, 9480, Note_on_c, 0, 70, 0
2, 9840, Note_on_c, 0, 77, 50
2, 9840, Note_on_c, 0, 65, 40
2, 9840, Note_on_c, 0, 74, 40
2, 10080, Note_on_c, 0, 74, 0
2, 10080, Note_on_c, 0, 65, 0
2, 10080, Note_on_c, 0, 77, 0
2, 10080, Note_on_c, 0, 79, 50
2, 10260, Note_on_c, 0, 79, 0
2, 10560, Note_on_c, 0, 85, 46
2, 10560, Note_on_c, 0, 78, 36
2, 10800, Note_on_c, 0, 85, 0
2, 10800, Note_on_c, 0, 67, 35
2, 10980, Note_on_c, 0, 67, 0
2, 10980, Note_on_c, 0, 78, 0
2, 11280, Note_on_c, 0, 83, 43
2, 11280, Note_on_c, 0, 76, 34
2, 11520, Note_on_c, 0, 83, 0
2, 11520, Note_on_c, 0, 66, 33
2, 11700, Note_on_c, 0, 66, 0
2, 11700, Note_on_c, 0, 76, 0
2, 12000, Note_on_c, 0, 82, 41
2, 12000, Note_on_c, 0, 74, 32
2, 12480, Note_on_c, 0, 74, 0
2, 12480, Note_on_c, 0, 73, 34
2, 12600, Note_on_c, 0, 73, 0
2, 12600, Note_on_c, 0, 82, 0
2, 12720, Note_on_c, 0, 78, 52
2, 12720, Note_on_c, 0, 66, 42
2, 12720, Note_on_c, 0, 74, 42
2, 12960, Note_on_c, 0, 74, 0
2, 12960, Note_on_c, 0, 66, 0
2, 12960, Note_on_c, 0, 78, 0
2, 12960, Note_on_c, 0, 83, 44
2, 13080, Note_on_c, 0, 83, 0
2, 13440, Note_on_c, 0, 88, 60
2, 13440, Note_on_c, 0, 81, 46
2, 13440, Note_on_c, 0, 85, 46
2, 13680, Note_on_c, 0, 85, 0
2, 13680, Note_on_c, 0, 88, 0
2, 13680, Note_on_c, 0, 73, 48
2, 13800, Note_on_c, 0, 73, 0
2, 13800, Note_on_c, 0, 81, 0
2, 14160, Note_on_c, 0, 86, 50
2, 14160, Note_on_c, 0, 79, 39
2, 14160, Note_on_c, 0, 83, 39
2, 14400, Note_on_c, 0, 83, 0
2, 14400, Note_on_c, 0, 86, 0
2, 14400, Note_on_c, 0, 71, 40
2, 14520, Note_on_c, 0, 71, 0
2, 14520, Note_on_c, 0, 79, 0
2, 14880, Note_on_c, 0, 85, 40
2, 14880, Note_on_c, 0, 78, 32
2, 14880, Note_on_c, 0, 82, 32
2, 15120, Note_on_c, 0, 82, 0
2, 15120, Note_on_c, 0, 85, 0
2, 15120, Note_on_c, 0, 70, 33
2, 15360, Note_on_c, 0, 70, 0
2, 15360, Note_on_c, 0, 78, 0
2, 15360, Note_on_c, 0, 76, 33
2, 15600, Note_on_c, 0, 76, 0
2, 15600, Note_on_c, 0, 64, 32
2, 15600, Note_on_c, 0, 70, 32
2, 15840, Note_on_c, 0, 70, 0
2, 15840, Note_on_c, 0, 73, 39
2, 17040, Note_on_c, 0, 64, 0
2, 17040, Note_on_c, 0, 63, 36
2, 17280, Note_on_c, 0, 73, 0
2, 17280, Note_on_c, 0, 69, 39
2, 17280, Note_on_c, 0, 72, 39
2, 18180, Note_on_c, 0, 72, 0
2, 18180, Note_on_c, 0, 69, 0
2, 18360, Note_on_c, 0, 63, 0
2, 18480, Note_on_c, 0, 71, 39
2, 18480, Note_on_c, 0, 59, 31
2, 18480, Note_on_c, 0, 67, 31
2, 18720, Note_on_c, 0, 67, 0
2, 18720, Note_on_c, 0, 59, 0
2, 18720, Note_on_c, 0, 71, 0
2, 18720, Note_on_c, 0, 72, 33
2, 18810, Note_on_c, 0, 72, 0
2, 19200, Note_on_c, 0, 79, 40
2, 19200, Note_on_c, 0, 71, 32
2, 19200, Note_on_c, 0, 76, 32
2, 19440, Note_on_c, 0, 76, 0
2, 19440, Note_on_c, 0, 71, 0
2, 19440, Note_on_c, 0, 79, 0
2, 19440, Note_on_c, 0, 70, 33
2, 19530, Note_on_c, 0, 70, 0
2, 19920, Note_on_c, 0, 71, 39
2, 19920, Note_on_c, 0, 59, 31
2, 19920, Note_on_c, 0, 67, 31
2, 20160, Note_on_c, 0, 67, 0
2, 20160, Note_on_c, 0, 59, 0
2, 20160, Note_on_c, 0, 71, 0
2, 20160, Note_on_c, 0, 72, 33
2, 20250, Note_on_c, 0, 72, 0
2, 20640, Note_on_c, 0, 79, 40
2, 20640, Note_on_c, 0, 71, 32
2, 20640, Note_on_c, 0, 76, 32
2, 20880, Note_on_c, 0, 76, 0
2, 20880, Note_on_c, 0, 71, 0
2, 20880, Note_on_c, 0, 79, 0
2, 20880, Note_on_c, 0, 64, 33
2, 20970, Note_on_c, 0, 64, 0
2, 21360, Note_on_c, 0, 72, 42
2, 21360, Note_on_c, 0, 60, 34
2, 21360, Note_on_c, 0, 69, 34
2, 21600, Note_on_c, 0, 69, 0
2, 21600, Note_on_c, 0, 60, 0
2, 21600, Note_on_c, 0, 72, 0
2, 21600, Note_on_c, 0, 74, 36
2, 21690, Note_on_c, 0, 74, 0
2, 22080, Note_on_c, 0, 81, 42
2, 22080, Note_on_c, 0, 72, 33
2, 22080, Note_on_c, 0, 78, 33
2, 22320, Note_on_c, 0, 78, 0
2, 22320, Note_on_c, 0, 72, 0
2, 22320, Note_on_c, 0, 81, 0
2, 22320, Note_on_c, 0, 71, 34
2, 22410, Note_on_c, 0, 71, 0
2, 22800, Note_on_c, 0, 72, 39
2, 22800, Note_on_c, 0, 60, 31
2, 22800, Note_on_c, 0, 69, 31
2, 23040, Note_on_c, 0, 69, 0
2, 23040, Note_on_c, 0, 60, 0
2, 23040, Note_on_c, 0, 72, 0
2, 23040, Note_on_c, 0, 74, 33
2, 23130, Note_on_c, 0, 74, 0
2, 23520, Note_on_c, 0, 81, 40
2, 23520, Note_on_c, 0, 72, 32
2, 23520, Note_on_c, 0, 78, 32
2, 23760, Note_on_c, 0, 78, 0
2, 23760, Note_on_c, 0, 72, 0
2, 23760, Note_on_c, 0, 81, 0
2, 23760, Note_on_c, 0, 66, 33
2, 23850, Note_on_c, 0, 66, 0
2, 24240, Note_on_c, 0, 74, 46
2, 24240, Note_on_c, 0, 62, 37
2, 24240, Note_on_c, 0, 71, 37
2, 24480, Note_on_c, 0, 71, 0
2, 24480, Note_on_c, 0, 62, 0
2, 24480, Note_on_c, 0, 74, 0
2, 24480, Note_on_c, 0, 76, 39
2, 24600, Note_on_c, 0, 76, 0
2, 24960, Note_on_c, 0, 83, 52
2, 24960, Note_on_c, 0, 74, 42
2, 24960, Note_on_c, 0, 80, 42
2, 25200, Note_on_c, 0, 80, 0
2, 25200, Note_on_c, 0, 74, 0
2, 25200, Note_on_c, 0, 83, 0
2, 25200, Note_on_c, 0, 68, 58
2, 25320, Note_on_c, 0, 68, 0
2, 25680, Note_on_c, 0, 76, 55
2, 25680, Note_on_c, 0, 64, 45
2, 25680, Note_on_c, 0, 72, 45
2, 25920, Note_on_c, 0, 72, 0
2, 25920, Note_on_c, 0, 64, 0
2, 25920, Note_on_c, 0, 76, 0
2, 25920, Note_on_c, 0, 77, 58
2, 26040, Note_on_c, 0, 77, 0
2, 26400, Note_on_c, 0, 85, 60
2, 26400, Note_on_c, 0, 76, 47
2, 26400, Note_on_c, 0, 82, 47
2, 26640, Note_on_c, 0, 82, 0
2, 26640, Note_on_c, 0, 76, 0
2, 26640, Note_on_c, 0, 85, 0
2, 26640, Note_on_c, 0, 70, 64
2, 26760, Note_on_c, 0, 70, 0
2, 27120, Note_on_c, 0, 77, 50
2, 27120, Note_on_c, 0, 65, 40
2, 27120, Note_on_c, 0, 74, 40
2, 27360, Note_on_c, 0, 74, 0
2, 27360, Note_on_c, 0, 65, 0
2, 27360, Note_on_c, 0, 77, 0
2, 27360, Note_on_c, 0, 79, 50
2, 27540, Note_on_c, 0, 79, 0
2, 27840, Note_on_c, 0, 85, 46
2, 27840, Note_on_c, 0, 78, 36
2, 28080, Note_on_c, 0, 85, 0
2, 28080, Note_on_c, 0, 67, 35
2, 28260, Note_on_c, 0, 67, 0
2, 28260, Note_on_c, 0, 78, 0
2, 28560, Note_on_c, 0, 83, 43
2, 28560, Note_on_c, 0, 76, 34
2, 28800, Note_on_c, 0, 83, 0
2, 28800, Note_on_c, 0, 66, 33
2, 28980, Note_on_c, 0, 66, 0
2, 28980, Note_on_c, 0, 76, 0
2, 29280, Note_on_c, 0, 82, 41
2, 29280, Note_on_c, 0, 74, 32
2, 29760, Note_on_c, 0, 74, 0
2, 29760, Note_on_c, 0, 73, 34
2, 29880, Note_on_c, 0, 73, 0
2, 29880, Note_on_c, 0, 82, 0
2, 30000, Note_on_c, 0, 78, 52
2, 30000, Note_on_c, 0, 66, 42
2, 30000, Note_on_c, 0, 74, 42
2, 30240, Note_on_c, 0, 74, 0
2, 30240, Note_on_c, 0, 66, 0
2, 30240, Note_on_c, 0, 78, 0
2, 30240, Note_on_c, 0, 83, 44
2, 30360, Note_on_c, 0, 83, 0
2, 30720, Note_on_c, 0, 88, 60
2, 30720, Note_on_c, 0, 81, 46
2, 30720, Note_on_c, 0, 85, 46
2, 30960, Note_on_c, 0, 85, 0
2, 30960, Note_on_c, 0, 88, 0
2, 30960, Note_on_c, 0, 73, 48
2, 31080, Note_on_c, 0, 73, 0
2, 31080, Note_on_c, 0, 81, 0
2, 31440, Note_on_c, 0, 86, 50
2, 31440, Note_on_c, 0, 79, 39
2, 31440, Note_on_c, 0, 83, 39
2, 31680, Note_on_c, 0, 83, 0
2, 31680, Note_on_c, 0, 86, 0
2, 31680, Note_on_c, 0, 71, 40
2, 31800, Note_on_c, 0, 71, 0
2, 31800, Note_on_c, 0, 79, 0
2, 32160, Note_on_c, 0, 85, 40
2, 32160, Note_on_c, 0, 78, 32
2, 32160, Note_on_c, 0, 82, 32
2, 32400, Note_on_c, 0, 82, 0
2, 32400, Note_on_c, 0, 85, 0
2, 32400, Note_on_c, 0, 70, 33
2, 32640, Note_on_c, 0, 70, 0
2, 32640, Note_on_c, 0, 78, 0
2, 32640, Note_on_c, 0, 76, 33
2, 32880, Note_on_c, 0, 76, 0
2, 32880, Note_on_c, 0, 64, 32
2, 32880, Note_on_c, 0, 70, 32
2, 33120, Note_on_c, 0, 70, 0
2, 33120, Note_on_c, 0, 73, 39
2, 33600, Note_on_c, 0, 64, 0
2, 33600, Note_on_c, 0, 63, 39
2, 33840, Note_on_c, 0, 63, 0
2, 33840, Note_on_c, 0, 66, 43
2, 34320, Note_on_c, 0, 73, 0
2, 34320, Note_on_c, 0, 71, 36
2, 34560, Note_on_c, 0, 71, 0
2, 34560, Note_on_c, 0, 75, 39
2, 35040, Note_on_c, 0, 66, 0
2, 35040, Note_on_c, 0, 64, 41
2, 35280, Note_on_c, 0, 64, 0
2, 35280, Note_on_c, 0, 75, 0
2, 35280, Note_on_c, 0, 68, 45
2, 35760, Note_on_c, 0, 60, 40
2, 36000, Note_on_c, 0, 60, 0
2, 36000, Note_on_c, 0, 68, 0
2, 36000, Note_on_c, 0, 63, 44
2, 36480, Note_on_c, 0, 53, 41
2, 36720, Note_on_c, 0, 53, 0
2, 36720, Note_on_c, 0, 56, 45
2, 37200, Note_on_c, 0, 63, 0
2, 37200, Note_on_c, 0, 61, 36
2, 37440, Note_on_c, 0, 61, 0
2, 37440, Note_on_c, 0, 59, 44
2, 37920, Note_on_c, 0, 56, 0
2, 37920, Note_on_c, 0, 54, 36
2, 38160, Note_on_c, 0, 54, 0
2, 38160, Note_on_c, 0, 59, 0
2, 38400, Note_on_c, 0, 58, 42
2, 38640, Note_on_c, 0, 58, 0
2, 38640, Note_on_c, 0, 70, 45
2, 38880, Note_on_c, 0, 70, 0
2, 38880, Note_on_c, 0, 73, 49
2, 39600, Note_on_c, 0, 73, 0
2, 39600, Note_on_c, 0, 66, 41
2, 39840, Note_on_c, 0, 59, 40
2, 40080, Note_on_c, 0, 59, 0
2, 40080, Note_on_c, 0, 71, 47
2, 40320, Note_on_c, 0, 71, 0
2, 40320, Note_on_c, 0, 66, 0
2, 40320, Note_on_c, 0, 75, 50
2, 41040, Note_on_c, 0, 75, 0
2, 41040, Note_on_c, 0, 68, 41
2, 41280, Note_on_c, 0, 60, 48
2, 41520, Note_on_c, 0, 60, 0
2, 41520, Note_on_c, 0, 72, 56
2, 41760, Note_on_c, 0, 72, 0
2, 41760, Note_on_c, 0, 68, 0
2, 41760, Note_on_c, 0, 75, 60
2, 42480, Note_on_c, 0, 75, 0
2, 42480, Note_on_c, 0, 68, 49
2, 42720, Note_on_c, 0, 61, 55
2, 42960, Note_on_c, 0, 61, 0
2, 42960, Note_on_c, 0, 73, 63
2, 43200, Note_on_c, 0, 73, 0
2, 43200, Note_on_c, 0, 68, 0
2, 43200, Note_on_c, 0, 80, 71
2, 43920, Note_on_c, 0, 80, 0
2, 43920, Note_on_c, 0, 70, 66
2, 44160, Note_on_c, 0, 66, 68
2, 44400, Note_on_c, 0, 66, 0
2, 44400, Note_on_c, 0, 78, 74
2, 44640, Note_on_c, 0, 78, 0
2, 44640, Note_on_c, 0, 70, 0
2, 44640, Note_on_c, 0, 76, 80
2, 45360, Note_on_c, 0, 76, 0
2, 45360, Note_on_c, 0, 69, 66
2, 45600, Note_on_c, 0, 63, 68
2, 45840, Note_on_c, 0, 63, 0
2, 45840, Note_on_c, 0, 75, 73
2, 46080, Note_on_c, 0, 75, 0
2, 46080, Note_on_c, 0, 69, 0
2, 46080, Note_on_c, 0, 72, 80
2, 46800, Note_on_c, 0, 72, 0
2, 46800, Note_on_c, 0, 63, 66
2, 47040, Note_on_c, 0, 57, 68
2, 47280, Note_on_c, 0, 57, 0
2, 47280, Note_on_c, 0, 69, 73
2, 47520, Note_on_c, 0, 69, 0
2, 47520, Note_on_c, 0, 63, 0
2, 47520, Note_on_c, 0, 66, 81
2, 48240, Note_on_c, 0, 66, 0
2, 48240, Note_on_c, 0, 63, 66
2, 48480, Note_on_c, 0, 57, 68
2, 48720, Note_on_c, 0, 57, 0
2, 48720, Note_on_c, 0, 69, 73
2, 48960, Note_on_c, 0, 69, 0
2, 48960, Note_on_c, 0, 63, 0
2, 48960, Note_on_c, 0, 72, 81
2, 49680, Note_on_c, 0, 72, 0
2, 49680, Note_on_c, 0, 63, 66
2, 49920, Note_on_c, 0, 57, 68
2, 50160, Note_on_c, 0, 57, 0
2, 50160, Note_on_c, 0, 69, 73
2, 50400, Note_on_c, 0, 69, 0
2, 50400, Note_on_c, 0, 63, 0
2, 50400, Note_on_c, 0, 66, 81
2, 51120, Note_on_c, 0, 66, 0
2, 51120, Note_on_c, 0, 63, 66
2, 51360, Note_on_c, 0, 57, 68
2, 51600, Note_on_c, 0, 57, 0
2, 51600, Note_on_c, 0, 69, 73
2, 51840, Note_on_c, 0, 69, 0
2, 51840, Note_on_c, 0, 63, 0
2, 51840, Note_on_c, 0, 72, 81
2, 53520, Note_on_c, 0, 72, 0
2, 53760, Note_on_c, 0, 71, 44
2, 53760, Note_on_c, 0, 69, 37
2, 53760, Note_on_c, 0, 63, 37
2, 54000, Note_on_c, 0, 63, 0
2, 54000, Note_on_c, 0, 69, 0
2, 54000, Note_on_c, 0, 71, 0
2, 54000, Note_on_c, 0, 66, 37
2, 54240, Note_on_c, 0, 66, 0
2, 54480, Note_on_c, 0, 71, 43
2, 54480, Note_on_c, 0, 69, 36
2, 54480, Note_on_c, 0, 64, 36
2, 54720, Note_on_c, 0, 64, 0
2, 54720, Note_on_c, 0, 69, 0
2, 54720, Note_on_c, 0, 71, 0
2, 54720, Note_on_c, 0, 72, 36
2, 54960, Note_on_c, 0, 72, 0
2, 55200, Note_on_c, 0, 71, 42
2, 55200, Note_on_c, 0, 69, 35
2, 55200, Note_on_c, 0, 63, 35
2, 55440, Note_on_c, 0, 63, 0
2, 55440, Note_on_c, 0, 69, 0
2, 55440, Note_on_c, 0, 71, 0
2, 55440, Note_on_c, 0, 66, 37
2, 55680, Note_on_c, 0, 66, 0
2, 55920, Note_on_c, 0, 75, 40
2, 55920, Note_on_c, 0, 72, 34
2, 55920, Note_on_c, 0, 67, 34
2, 56160, Note_on_c, 0, 67, 0
2, 56160, Note_on_c, 0, 72, 0
2, 56160, Note_on_c, 0, 75, 0
2, 56160, Note_on_c, 0, 76, 35
2, 56400, Note_on_c, 0, 76, 0
2, 56640, Note_on_c, 0, 75, 37
2, 56640, Note_on_c, 0, 72, 31
2, 56640, Note_on_c, 0, 66, 31
2, 56880, Note_on_c, 0, 66, 0
2, 56880, Note_on_c, 0, 72, 0
2, 56880, Note_on_c, 0, 75, 0
2, 56880, Note_on_c, 0, 69, 32
2, 57120, Note_on_c, 0, 69, 0
2, 57360, Note_on_c, 0, 75, 34
2, 57360, Note_on_c, 0, 72, 29
2, 57360, Note_on_c, 0, 67, 29
2, 57600, Note_on_c, 0, 67, 0
2, 57600, Note_on_c, 0, 72, 0
2, 57600, Note_on_c, 0, 75, 0
2, 57600, Note_on_c, 0, 76, 29
2, 57840, Note_on_c, 0, 76, 0
2, 58080, Note_on_c, 0, 75, 30
2, 58080, Note_on_c, 0, 72, 26
2, 58080, Note_on_c, 0, 66, 26
2, 58320, Note_on_c, 0, 66, 0
2, 58320, Note_on_c, 0, 72, 0
2, 58320, Note_on_c, 0, 75, 0
2, 58320, Note_on_c, 0, 69, 26
2, 58560, Note_on_c, 0, 69, 0
2, 58800, Note_on_c, 0, 76, 31
2, 58800, Note_on_c, 0, 64, 24
2, 58800, Note_on_c, 0, 72, 24
2, 59040, Note_on_c, 0, 72, 0
2, 59040, Note_on_c, 0, 64, 0
2, 59040, Note_on_c, 0, 76, 0
2, 59040, Note_on_c, 0, 77, 26
2, 59160, Note_on_c, 0, 77, 0
2, 59520, Note_on_c, 0, 84, 32
2, 59520, Note_on_c, 0, 76, 25
2, 59520, Note_on_c, 0, 81, 25
2, 59760, Note_on_c, 0, 81, 0
2, 59760, Note_on_c, 0, 76, 0
2, 59760, Note_on_c, 0, 84, 0
2, 59760, Note_on_c, 0, 75, 26
2, 59880, Note_on_c, 0, 75, 0
2, 60240, Note_on_c, 0, 76, 31
2, 60240, Note_on_c, 0, 64, 24
2, 60240, Note_on_c, 0, 72, 24
2, 60480, Note_on_c, 0, 72, 0
2, 60480, Note_on_c, 0, 64, 0
2, 60480, Note_on_c, 0, 76, 0
2, 60480, Note_on_c, 0, 77, 26
2, 60600, Note_on_c, 0, 77, 0
2, 60960, Note_on_c, 0, 84, 32
2, 60960, Note_on_c, 0, 75, 25
2, 60960, Note_on_c, 0, 81, 25
2, 61200, Note_on_c, 0, 81, 0
2, 61200, Note_on_c, 0, 75, 0
2, 61200, Note_on_c, 0, 84, 0
2, 61200, Note_on_c, 0, 69, 26
2, 61320, Note_on_c, 0, 69, 0
2, 61680, Note_on_c, 0, 74, 33
2, 61680, Note_on_c, 0, 62, 27
2, 61680, Note_on_c, 0, 71, 27
2, 61920, Note_on_c, 0, 71, 0
2, 61920, Note_on_c, 0, 62, 0
2, 61920, Note_on_c, 0, 74, 0
2, 61920, Note_on_c, 0, 75, 28
2, 62040, Note_on_c, 0, 75, 0
2, 62400, Note_on_c, 0, 83, 33
2, 62400, Note_on_c, 0, 74, 26
2, 62400, Note_on_c, 0, 79, 26
2, 62640, Note_on_c, 0, 79, 0
2, 62640, Note_on_c, 0, 74, 0
2, 62640, Note_on_c, 0, 83, 0
2, 62640, Note_on_c, 0, 73, 27
2, 62760, Note_on_c, 0, 73, 0
2, 63120, Note_on_c, 0, 74, 31
2, 63120, Note_on_c, 0, 62, 24
2, 63120, Note_on_c, 0, 71, 24
2, 63360, Note_on_c, 0, 71, 0
2, 63360, Note_on_c, 0, 62, 0
2, 63360, Note_on_c, 0, 74, 0
2, 63360, Note_on_c, 0, 75, 26
2, 63480, Note_on_c, 0, 75, 0
2, 63840, Note_on_c, 0, 82, 35
2, 63840, Note_on_c, 0, 73, 27
2, 63840, Note_on_c, 0, 79, 27
2, 64080, Note_on_c, 0, 79, 0
2, 64080, Note_on_c, 0, 73, 0
2, 64080, Note_on_c, 0, 82, 0
2, 64080, Note_on_c, 0, 67, 28
2, 64200, Note_on_c, 0, 67, 0
2, 64560, Note_on_c, 0, 72, 60
2, 64560, Note_on_c, 0, 60, 46
2, 64560, Note_on_c, 0, 69, 46
2, 64800, Note_on_c, 0, 69, 0
2, 64800, Note_on_c, 0, 60, 0
2, 64800, Note_on_c, 0, 72, 0
2, 64800, Note_on_c, 0, 73, 54
2, 64980, Note_on_c, 0, 73, 0
2, 65280, Note_on_c, 0, 72, 62
2, 65280, Note_on_c, 0, 65, 49
2, 65280, Note_on_c, 0, 69, 49
2, 65520, Note_on_c, 0, 69, 0
2, 65520, Note_on_c, 0, 65, 0
2, 65520, Note_on_c, 0, 72, 0
2, 65520, Note_on_c, 0, 74, 55
2, 65700, Note_on_c, 0, 74, 0
2, 66000, Note_on_c, 0, 81, 72
2, 66000, Note_on_c, 0, 72, 57
2, 66000, Note_on_c, 0, 77, 57
2, 66240, Note_on_c, 0, 77, 0
2, 66240, Note_on_c, 0, 72, 0
2, 66240, Note_on_c, 0, 81, 0
2, 66240, Note_on_c, 0, 71, 66
2, 66420, Note_on_c, 0, 71, 0
2, 66720, Note_on_c, 0, 77, 74
2, 66720, Note_on_c, 0, 69, 58
2, 66720, Note_on_c, 0, 72, 58
2, 66960, Note_on_c, 0, 72, 0
2, 66960, Note_on_c, 0, 69, 0
2, 66960, Note_on_c, 0, 77, 0
2, 66960, Note_on_c, 0, 67, 67
2, 67140, Note_on_c, 0, 67, 0
2, 67440, Note_on_c, 0, 69, 53
2, 67440, Note_on_c, 0, 65, 63
2, 67440, Note_on_c, 0, 72, 60
2, 67680, Note_on_c, 0, 65, 0
2, 67680, Note_on_c, 0, 64, 69
2, 68400, Note_on_c, 0, 64, 0
2, 68400, Note_on_c, 0, 63, 66
2, 68880, Note_on_c, 0, 72, 0
2, 68880, Note_on_c, 0, 69, 0
2, 68880, Note_on_c, 0, 72, 50
2, 69120, Note_on_c, 0, 72, 0
2, 69120, Note_on_c, 0, 71, 50
2, 69840, Note_on_c, 0, 71, 0
2, 69840, Note_on_c, 0, 63, 0
2, 69840, Note_on_c, 0, 64, 38
2, 69840, Note_on_c, 0, 70, 45
2, 70320, Note_on_c, 0, 70, 0
2, 70320, Note_on_c, 0, 64, 0
2, 70320, Note_on_c, 0, 70, 36
2, 70560, Note_on_c, 0, 70, 0
2, 70560, Note_on_c, 0, 73, 39
2, 71040, Note_on_c, 0, 63, 39
2, 71280, Note_on_c, 0, 63, 0
2, 71280, Note_on_c, 0, 66, 43
2, 71760, Note_on_c, 0, 73, 0
2, 71760, Note_on_c, 0, 71, 36
2, 72000, Note_on_c, 0, 71, 0
2, 72000, Note_on_c, 0, 75, 39
2, 72480, Note_on_c, 0, 66, 0
2, 72480, Note_on_c, 0, 64, 41
2, 72720, Note_on_c, 0, 64, 0
2, 72720, Note_on_c, 0, 75, 0
2, 72720, Note_on_c, 0, 68, 45
2, 73200, Note_on_c, 0, 60, 40
2, 73440, Note_on_c, 0, 60, 0
2, 73440, Note_on_c, 0, 68, 0
2, 73440, Note_on_c, 0, 63, 44
2, 73920, Note_on_c, 0, 53, 41
2, 74160, Note_on_c, 0, 53, 0
2, 74160, Note_on_c, 0, 56, 45
2, 74640, Note_on_c, 0, 63, 0
2, 74640, Note_on_c, 0, 61, 36
2, 74880, Note_on_c, 0, 61, 0
2, 74880, Note_on_c, 0, 59, 44
2, 75360, Note_on_c, 0, 56, 0
2, 75360, Note_on_c, 0, 54, 36
2, 75600, Note_on_c, 0, 54, 0
2, 75600, Note_on_c, 0, 59, 0
2, 75840, Note_on_c, 0, 58, 42
2, 76080, Note_on_c, 0, 58, 0
2, 76080, Note_on_c, 0, 70, 45
2, 76320, Note_on_c, 0, 70, 0
2, 76320, Note_on_c, 0, 73, 49
2, 77040, Note_on_c, 0, 73, 0
2, 77040, Note_on_c, 0, 66, 41
2, 77280, Note_on_c, 0, 59, 40
2, 77520, Note_on_c, 0, 59, 0
2, 77520, Note_on_c, 0, 71, 47
2, 77760, Note_on_c, 0, 71, 0
2, 77760, Note_on_c, 0, 66, 0
2, 77760, Note_on_c, 0, 75, 50
2, 78480, Note_on_c, 0, 75, 0
2, 78480, Note_on_c, 0, 68, 41
2, 78720, Note_on_c, 0, 60, 48
2, 78960, Note_on_c, 0, 60, 0
2, 78960, Note_on_c, 0, 72, 56
2, 79200, Note_on_c, 0, 72, 0
2, 79200, Note_on_c, 0, 68, 0
2, 79200, Note_on_c, 0, 75, 60
2, 79920, Note_on_c, 0, 75, 0
2, 79920, Note_on_c, 0, 68, 49
2, 80160, Note_on_c, 0, 61, 55
2, 80400, Note_on_c, 0, 61, 0
2, 80400, Note_on_c, 0, 73, 63
2, 80640, Note_on_c, 0, 73, 0
2, 80640, Note_on_c, 0, 68, 0
2, 80640, Note_on_c, 0, 80, 73
2, 81360, Note_on_c, 0, 80, 0
2, 81360, Note_on_c, 0, 70, 66
2, 81600, Note_on_c, 0, 66, 68
2, 81840, Note_on_c, 0, 66, 0
2, 81840, Note_on_c, 0, 78, 73
2, 82080, Note_on_c, 0, 78, 0
2, 82080, Note_on_c, 0, 70, 0
2, 82080, Note_on_c, 0, 76, 80
2, 82800, Note_on_c, 0, 76, 0
2, 82800, Note_on_c, 0, 69, 66
2, 83040, Note_on_c, 0, 63, 68
2, 83280, Note_on_c, 0, 63, 0
2, 83280, Note_on_c, 0, 75, 73
2, 83520, Note_on_c, 0, 75, 0
2, 83520, Note_on_c, 0, 69, 0
2, 83520, Note_on_c, 0, 72, 80
2, 84240, Note_on_c, 0, 72, 0
2, 84240, Note_on_c, 0, 63, 66
2, 84480, Note_on_c, 0, 57, 68
2, 84720, Note_on_c, 0, 57, 0
2, 84720, Note_on_c, 0, 69, 73
2, 84960, Note_on_c, 0, 69, 0
2, 84960, Note_on_c, 0, 63, 0
2, 84960, Note_on_c, 0, 66, 81
2, 85680, Note_on_c, 0, 66, 0
2, 85680, Note_on_c, 0, 63, 66
2, 85920, Note_on_c, 0, 57, 68
2, 86160, Note_on_c, 0, 57, 0
2, 86160, Note_on_c, 0, 69, 73
2, 86400, Note_on_c, 0, 69, 0
2, 86400, Note_on_c, 0, 63, 0
2, 86400, Note_on_c, 0, 72, 81
2, 87120, Note_on_c, 0, 72, 0
2, 87120, Note_on_c, 0, 63, 66
2, 87360, Note_on_c, 0, 57, 68
2, 87600, Note_on_c, 0, 57, 0
2, 87600, Note_on_c, 0, 69, 73
2, 87840, Note_on_c, 0, 69, 0
2, 87840, Note_on_c, 0, 63, 0
2, 87840, Note_on_c, 0, 66, 81
2, 88560, Note_on_c, 0, 66, 0
2, 88560, Note_on_c, 0, 63, 66
2, 88800, Note_on_c, 0, 57, 68
2, 89040, Note_on_c, 0, 57, 0
2, 89040, Note_on_c, 0, 69, 73
2, 89280, Note_on_c, 0, 69, 0
2, 89280, Note_on_c, 0, 63, 0
2, 89280, Note_on_c, 0, 72, 81
2, 90960, Note_on_c, 0, 72, 0
2, 91200, Note_on_c, 0, 71, 44
2, 91200, Note_on_c, 0, 69, 37
2, 91200, Note_on_c, 0, 63, 37
2, 91440, Note_on_c, 0, 63, 0
2, 91440, Note_on_c, 0, 69, 0
2, 91440, Note_on_c, 0, 71, 0
2, 91440, Note_on_c, 0, 66, 37
2, 91680, Note_on_c, 0, 66, 0
2, 91920, Note_on_c, 0, 69, 36
2, 91920, Note_on_c, 0, 64, 36
2, 91920, Note_on_c, 0, 71, 43
2, 92160, Note_on_c, 0, 71, 0
2, 92160, Note_on_c, 0, 64, 0
2, 92160, Note_on_c, 0, 69, 0
2, 92160, Note_on_c, 0, 72, 36
2, 92400, Note_on_c, 0, 72, 0
2, 92640, Note_on_c, 0, 71, 42
2, 92640, Note_on_c, 0, 69, 35
2, 92640, Note_on_c, 0, 63, 35
2, 92880, Note_on_c, 0, 63, 0
2, 92880, Note_on_c, 0, 69, 0
2, 92880, Note_on_c, 0, 71, 0
2, 92880, Note_on_c, 0, 66, 37
2, 93120, Note_on_c, 0, 66, 0
2, 93360, Note_on_c, 0, 72, 34
2, 93360, Note_on_c, 0, 67, 34
2, 93360, Note_on_c, 0, 75, 40
2, 93600, Note_on_c, 0, 75, 0
2, 93600, Note_on_c, 0, 67, 0
2, 93600, Note_on_c, 0, 72, 0
2, 93600, Note_on_c, 0, 76, 35
2, 93840, Note_on_c, 0, 76, 0
2, 94080, Note_on_c, 0, 75, 37
2, 94080, Note_on_c, 0, 72, 31
2, 94080, Note_on_c, 0, 66, 31
2, 94320, Note_on_c, 0, 66, 0
2, 94320, Note_on_c, 0, 72, 0
2, 94320, Note_on_c, 0, 75, 0
2, 94320, Note_on_c, 0, 69, 32
2, 94560, Note_on_c, 0, 69, 0
2, 94800, Note_on_c, 0, 75, 34
2, 94800, Note_on_c, 0, 72, 29
2, 94800, Note_on_c, 0, 67, 29
2, 95040, Note_on_c, 0, 67, 0
2, 95040, Note_on_c, 0, 72, 0
2, 95040, Note_on_c, 0, 75, 0
2, 95040, Note_on_c, 0, 76, 29
2, 95280, Note_on_c, 0, 76, 0
2, 95520, Note_on_c, 0, 75, 30
2, 95520, Note_on_c, 0, 66, 26
2, 95520, Note_on_c, 0, 72, 26
2, 95760, Note_on_c, 0, 72, 0
2, 95760, Note_on_c, 0, 66, 0
2, 95760, Note_on_c, 0, 75, 0
2, 95760, Note_on_c, 0, 69, 26
2, 96000, Note_on_c, 0, 69, 0
2, 96240, Note_on_c, 0, 76, 31
2, 96240, Note_on_c, 0, 64, 24
2, 96240, Note_on_c, 0, 72, 24
2, 96480, Note_on_c, 0, 72, 0
2, 96480, Note_on_c, 0, 64, 0
2, 96480, Note_on_c, 0, 76, 0
2, 96480, Note_on_c, 0, 77, 26
2, 96600, Note_on_c, 0, 77, 0
2, 96960, Note_on_c, 0, 76, 25
2, 96960, Note_on_c, 0, 81, 25
2, 96960, Note_on_c, 0, 84, 32
2, 97200, Note_on_c, 0, 84, 0
2, 97200, Note_on_c, 0, 81, 0
2, 97200, Note_on_c, 0, 76, 0
2, 97200, Note_on_c, 0, 75, 26
2, 97320, Note_on_c, 0, 75, 0
2, 97680, Note_on_c, 0, 76, 31
2, 97680, Note_on_c, 0, 64, 24
2, 97680, Note_on_c, 0, 72, 24
2, 97920, Note_on_c, 0, 72, 0
2, 97920, Note_on_c, 0, 64, 0
2, 97920, Note_on_c, 0, 76, 0
2, 97920, Note_on_c, 0, 77, 26
2, 98040, Note_on_c, 0, 77, 0
2, 98400, Note_on_c, 0, 75, 25
2, 98400, Note_on_c, 0, 81, 25
2, 98400, Note_on_c, 0, 84, 32
2, 98640, Note_on_c, 0, 84, 0
2, 98640, Note_on_c, 0, 81, 0
2, 98640, Note_on_c, 0, 75, 0
2, 98640, Note_on_c, 0, 69, 26
2, 98760, Note_on_c, 0, 69, 0
2, 99120, Note_on_c, 0, 74, 33
2, 99120, Note_on_c, 0, 62, 27
2, 99120, Note_on_c, 0, 71, 27
2, 99360, Note_on_c, 0, 71, 0
2, 99360, Note_on_c, 0, 62, 0
2, 99360, Note_on_c, 0, 74, 0
2, 99360, Note_on_c, 0, 75, 28
2, 99480, Note_on_c, 0, 75, 0
2, 99840, Note_on_c, 0, 83, 33
2, 99840, Note_on_c, 0, 74, 26
2, 99840, Note_on_c, 0, 79, 26
2, 100080, Note_on_c, 0, 79, 0
2, 100080, Note_on_c, 0, 74, 0
2, 100080, Note_on_c, 0, 83, 0
2, 100080, Note_on_c, 0, 73, 27
2, 100200, Note_on_c, 0, 73, 0
2, 100560, Note_on_c, 0, 74, 31
2, 100560, Note_on_c, 0, 71, 24
2, 100560, Note_on_c, 0, 62, 24
2, 100800, Note_on_c, 0, 62, 0
2, 100800, Note_on_c, 0, 71, 0
2, 100800, Note_on_c, 0, 74, 0
2, 100800, Note_on_c, 0, 75, 26
2, 100920, Note_on_c, 0, 75, 0
2, 101280, Note_on_c, 0, 82, 35
2, 101280, Note_on_c, 0, 73, 27
2, 101280, Note_on_c, 0, 79, 27
2, 101520, Note_on_c, 0, 79, 0
2, 101520, Note_on_c, 0, 73, 0
2, 101520, Note_on_c, 0, 82, 0
2, 101520, Note_on_c, 0, 67, 28
2, 101640, Note_on_c, 0, 67, 0
2, 102000, Note_on_c, 0, 60, 46
2, 102000, Note_on_c, 0, 69, 46
2, 102000, Note_on_c, 0, 72, 60
2, 102240, Note_on_c, 0, 72, 0
2, 102240, Note_on_c, 0, 69, 0
2, 102240, Note_on_c, 0, 60, 0
2, 102240, Note_on_c, 0, 73, 54
2, 102420, Note_on_c, 0, 73, 0
2, 102720, Note_on_c, 0, 72, 62
2, 102720, Note_on_c, 0, 65, 49
2, 102720, Note_on_c, 0, 69, 49
2, 102960, Note_on_c, 0, 69, 0
2, 102960, Note_on_c, 0, 65, 0
2, 102960, Note_on_c, 0, 72, 0
2, 102960, Note_on_c, 0, 74, 55
2, 103140, Note_on_c, 0, 74, 0
2, 103440, Note_on_c, 0, 72, 57
2, 103440, Note_on_c, 0, 77, 57
2, 103440, Note_on_c, 0, 81, 72
2, 103680, Note_on_c, 0, 81, 0
2, 103680, Note_on_c, 0, 77, 0
2, 103680, Note_on_c, 0, 72, 0
2, 103680, Note_on_c, 0, 71, 66
2, 103860, Note_on_c, 0, 71, 0
2, 104160, Note_on_c, 0, 77, 74
2, 104160, Note_on_c, 0, 69, 58
2, 104160, Note_on_c, 0, 72, 58
2, 104400, Note_on_c, 0, 72, 0
2, 104400, Note_on_c, 0, 69, 0
2, 104400, Note_on_c, 0, 77, 0
2, 104400, Note_on_c, 0, 67, 67
2, 104580, Note_on_c, 0, 67, 0
2, 104880, Note_on_c, 0, 69, 52
2, 104880, Note_on_c, 0, 65, 63
2, 104880, Note_on_c, 0, 72, 60
2, 105120, Note_on_c, 0, 65, 0
2, 105120, Note_on_c, 0, 64, 69
2, 107280, Note_on_c, 0, 64, 0
2, 107280, Note_on_c, 0, 72, 0
2, 107280, Note_on_c, 0, 69, 0
2, 107280, Note_on_c, 0, 57, 40
2, 107280, Note_on_c, 0, 71, 50
2, 107280, Note_on_c, 0, 63, 40
2, 108000, Note_on_c, 0, 63, 0
2, 108000, Note_on_c, 0, 69, 43
2, 108720, Note_on_c, 0, 69, 0
2, 108720, Note_on_c, 0, 71, 0
2, 108720, Note_on_c, 0, 57, 0
2, 108720, Note_on_c, 0, 59, 49
2, 108720, Note_on_c, 0, 68, 47
2, 108720, Note_on_c, 0, 71, 53
2, 109440, Note_on_c, 0, 68, 0
2, 109440, Note_on_c, 0, 59, 0
2, 109440, Note_on_c, 0, 57, 48
2, 109440, Note_on_c, 0, 66, 55
2, 109440, Note_on_c, 0, 63, 49
2, 110880, Note_on_c, 0, 63, 0
2, 110880, Note_on_c, 0, 66, 0
2, 110880, Note_on_c, 0, 57, 0
2, 110880, Note_on_c, 0, 56, 39
2, 110880, Note_on_c, 0, 64, 39
2, 111360, Note_on_c, 0, 64, 0
2, 111360, Note_on_c, 0, 56, 0
2, 111360, Note_on_c, 0, 71, 0
2, 111360, End_track
3, 0, Start_track
3, 0, Title_t, "Piano left"
3, 0, Program_c, 0, 0
3, 0, Control_c, 0, 7, 100
3, 0, Control_c, 0, 10, 64
3, 1200, Note_on_c, 0, 64, 24
3, 1200, Note_on_c, 0, 52, 19
3, 1200, Note_on_c, 0, 55, 19
3, 1440, Note_on_c, 0, 55, 0
3, 1440, Note_on_c, 0, 52, 0
3, 1440, Note_on_c, 0, 64, 0
3, 1440, Note_on_c, 0, 51, 25
3, 1530, Note_on_c, 0, 51, 0
3, 1920, Note_on_c, 0, 52, 24
3, 1920, Note_on_c, 0, 43, 19
3, 1920, Note_on_c, 0, 47, 19
3, 2160, Note_on_c, 0, 47, 0
3, 2160, Note_on_c, 0, 43, 0
3, 2160, Note_on_c, 0, 52, 0
3, 2160, Note_on_c, 0, 54, 26
3, 2250, Note_on_c, 0, 54, 0
3, 2640, Note_on_c, 0, 64, 24
3, 2640, Note_on_c, 0, 52, 19
3, 2640, Note_on_c, 0, 55, 19
3, 2880, Note_on_c, 0, 55, 0
3, 2880, Note_on_c, 0, 52, 0
3, 2880, Note_on_c, 0, 64, 0
3, 2880, Note_on_c, 0, 51, 25
3, 2970, Note_on_c, 0, 51, 0
3, 3360, Note_on_c, 0, 52, 24
3, 3360, Note_on_c, 0, 43, 19
3, 3360, Note_on_c, 0, 47, 19
3, 3600, Note_on_c, 0, 47, 0
3, 3600, Note_on_c, 0, 43, 0
3, 3600, Note_on_c, 0, 52, 0
3, 3600, Note_on_c, 0, 55, 26
3, 3690, Note_on_c, 0, 55, 0
3, 4080, Note_on_c, 0, 66, 27
3, 4080, Note_on_c, 0, 54, 20
3, 4080, Note_on_c, 0, 57, 20
3, 4320, Note_on_c, 0, 57, 0
3, 4320, Note_on_c, 0, 54, 0
3, 4320, Note_on_c, 0, 66, 0
3, 4320, Note_on_c, 0, 53, 27
3, 4410, Note_on_c, 0, 53, 0
3, 4800, Note_on_c, 0, 54, 25
3, 4800, Note_on_c, 0, 45, 20
3, 4800, Note_on_c, 0, 48, 20
3, 5040, Note_on_c, 0, 48, 0
3, 5040, Note_on_c, 0, 45, 0
3, 5040, Note_on_c, 0, 54, 0
3, 5040, Note_on_c, 0, 55, 27
3, 5130, Note_on_c, 0, 55, 0
3, 5520, Note_on_c, 0, 66, 24
3, 5520, Note_on_c, 0, 54, 19
3, 5520, Note_on_c, 0, 57, 19
3, 5760, Note_on_c, 0, 57, 0
3, 5760, Note_on_c, 0, 54, 0
3, 5760, Note_on_c, 0, 66, 0
3, 5760, Note_on_c, 0, 53, 25
3, 5850, Note_on_c, 0, 53, 0
3, 6240, Note_on_c, 0, 54, 24
3, 6240, Note_on_c, 0, 45, 19
3, 6240, Note_on_c, 0, 48, 19
3, 6480, Note_on_c, 0, 48, 0
3, 6480, Note_on_c, 0, 45, 0
3, 6480, Note_on_c, 0, 54, 0
3, 6480, Note_on_c, 0, 57, 26
3, 6570, Note_on_c, 0, 57, 0
3, 6960, Note_on_c, 0, 67, 37
3, 6960, Note_on_c, 0, 55, 28
3, 6960, Note_on_c, 0, 59, 28
3, 7200, Note_on_c, 0, 59, 0
3, 7200, Note_on_c, 0, 55, 0
3, 7200, Note_on_c, 0, 67, 0
3, 7200, Note_on_c, 0, 54, 29
3, 7320, Note_on_c, 0, 54, 0
3, 7680, Note_on_c, 0, 56, 41
3, 7680, Note_on_c, 0, 47, 33
3, 7680, Note_on_c, 0, 50, 33
3, 7920, Note_on_c, 0, 50, 0
3, 7920, Note_on_c, 0, 47, 0
3, 7920, Note_on_c, 0, 56, 0
3, 7920, Note_on_c, 0, 62, 42
3, 8040, Note_on_c, 0, 62, 0
3, 8400, Note_on_c, 0, 69, 45
3, 8400, Note_on_c, 0, 57, 35
3, 8400, Note_on_c, 0, 60, 35
3, 8640, Note_on_c, 0, 60, 0
3, 8640, Note_on_c, 0, 57, 0
3, 8640, Note_on_c, 0, 69, 0
3, 8640, Note_on_c, 0, 56, 50
3, 8760, Note_on_c, 0, 56, 0
3, 9120, Note_on_c, 0, 58, 46
3, 9120, Note_on_c, 0, 49, 35
3, 9120, Note_on_c, 0, 52, 35
3, 9360, Note_on_c, 0, 52, 0
3, 9360, Note_on_c, 0, 49, 0
3, 9360, Note_on_c, 0, 58, 0
3, 9360, Note_on_c, 0, 64, 49
3, 9480, Note_on_c, 0, 64, 0
3, 9840, Note_on_c, 0, 71, 40
3, 9840, Note_on_c, 0, 59, 30
3, 9840, Note_on_c, 0, 62, 30
3, 10080, Note_on_c, 0, 62, 0
3, 10080, Note_on_c, 0, 59, 0
3, 10080, Note_on_c, 0, 71, 0
3, 10080, Note_on_c, 0, 50, 31
3, 10260, Note_on_c, 0, 50, 0
3, 10560, Note_on_c, 0, 61, 35
3, 10560, Note_on_c, 0, 52, 27
3, 10560, Note_on_c, 0, 55, 27
3, 10800, Note_on_c, 0, 55, 0
3, 10800, Note_on_c, 0, 52, 0
3, 10800, Note_on_c, 0, 61, 0
3, 10800, Note_on_c, 0, 66, 26
3, 10980, Note_on_c, 0, 66, 0
3, 11280, Note_on_c, 0, 59, 33
3, 11280, Note_on_c, 0, 54, 26
3, 11520, Note_on_c, 0, 54, 0
3, 11520, Note_on_c, 0, 59, 0
3, 11520, Note_on_c, 0, 64, 25
3, 11700, Note_on_c, 0, 64, 0
3, 12000, Note_on_c, 0, 58, 31
3, 12000, Note_on_c, 0, 54, 24
3, 12240, Note_on_c, 0, 66, 26
3, 12480, Note_on_c, 0, 66, 0
3, 12480, Note_on_c, 0, 64, 25
3, 12600, Note_on_c, 0, 64, 0
3, 12600, Note_on_c, 0, 54, 0
3, 12600, Note_on_c, 0, 58, 0
3, 12720, Note_on_c, 0, 71, 42
3, 12720, Note_on_c, 0, 59, 32
3, 12720, Note_on_c, 0, 62, 32
3, 12960, Note_on_c, 0, 62, 0
3, 12960, Note_on_c, 0, 59, 0
3, 12960, Note_on_c, 0, 71, 0
3, 12960, Note_on_c, 0, 50, 33
3, 13080, Note_on_c, 0, 50, 0
3, 13440, Note_on_c, 0, 61, 45
3, 13440, Note_on_c, 0, 52, 34
3, 13440, Note_on_c, 0, 57, 34
3, 13680, Note_on_c, 0, 57, 0
3, 13680, Note_on_c, 0, 52, 0
3, 13680, Note_on_c, 0, 61, 0
3, 13680, Note_on_c, 0, 69, 38
3, 13800, Note_on_c, 0, 69, 0
3, 14160, Note_on_c, 0, 62, 38
3, 14160, Note_on_c, 0, 54, 30
3, 14160, Note_on_c, 0, 59, 30
3, 14400, Note_on_c, 0, 59, 0
3, 14400, Note_on_c, 0, 54, 0
3, 14400, Note_on_c, 0, 62, 0
3, 14400, Note_on_c, 0, 67, 32
3, 14520, Note_on_c, 0, 67, 0
3, 14880, Note_on_c, 0, 64, 31
3, 14880, Note_on_c, 0, 54, 24
3, 14880, Note_on_c, 0, 61, 24
3, 15120, Note_on_c, 0, 61, 0
3, 15120, Note_on_c, 0, 54, 0
3, 15120, Note_on_c, 0, 64, 0
3, 15120, Note_on_c, 0, 66, 26
3, 15360, Note_on_c, 0, 66, 0
3, 15600, Note_on_c, 0, 35, 37
3, 15840, Note_on_c, 0, 35, 0
3, 15840, Note_on_c, 0, 47, 44
3, 16320, Note_on_c, 0, 52, 39
3, 16560, Note_on_c, 0, 52, 0
3, 16560, Note_on_c, 0, 55, 43
3, 17040, Note_on_c, 0, 55, 0
3, 17040, Note_on_c, 0, 54, 37
3, 17280, Note_on_c, 0, 54, 0
3, 17280, Note_on_c, 0, 57, 38
3, 18180, Note_on_c, 0, 57, 0
3, 18180, Note_on_c, 0, 47, 0
3, 18480, Note_on_c, 0, 64, 24
3, 18480, Note_on_c, 0, 52, 19
3, 18480, Note_on_c, 0, 55, 19
3, 18720, Note_on_c, 0, 55, 0
3, 18720, Note_on_c, 0, 52, 0
3, 18720, Note_on_c, 0, 64, 0
3, 18720, Note_on_c, 0, 51, 25
3, 18810, Note_on_c, 0, 51, 0
3, 19200, Note_on_c, 0, 52, 24
3, 19200, Note_on_c, 0, 43, 19
3, 19200, Note_on_c, 0, 47, 19
3, 19440, Note_on_c, 0, 47, 0
3, 19440, Note_on_c, 0, 43, 0
3, 19440, Note_on_c, 0, 52, 0
3, 19440, Note_on_c, 0, 54, 26
3, 19530, Note_on_c, 0, 54, 0
3, 19920, Note_on_c, 0, 64, 24
3, 19920, Note_on_c, 0, 52, 19
3, 19920, Note_on_c, 0, 55, 19
3, 20160, Note_on_c, 0, 55, 0
3, 20160, Note_on_c, 0, 52, 0
3, 20160, Note_on_c, 0, 64, 0
3, 20160, Note_on_c, 0, 51, 25
3, 20250, Note_on_c, 0, 51, 0
3, 20640, Note_on_c, 0, 52, 24
3, 20640, Note_on_c, 0, 43, 19
3, 20640, Note_on_c, 0, 47, 19
3, 20880, Note_on_c, 0, 47, 0
3, 20880, Note_on_c, 0, 43, 0
3, 20880, Note_on_c, 0, 52, 0
3, 20880, Note_on_c, 0, 55, 26
3, 20970, Note_on_c, 0, 55, 0
3, 21360, Note_on_c, 0, 66, 27
3, 21360, Note_on_c, 0, 54, 20
3, 21360, Note_on_c, 0, 57, 20
3, 21600, Note_on_c, 0, 57, 0
3, 21600, Note_on_c, 0, 54, 0
3, 21600, Note_on_c, 0, 66, 0
3, 21600, Note_on_c, 0, 53, 27
3, 21690, Note_on_c, 0, 53, 0
3, 22080, Note_on_c, 0, 54, 25
3, 22080, Note_on_c, 0, 45, 20
3, 22080, Note_on_c, 0, 48, 20
3, 22320, Note_on_c, 0, 48, 0
3, 22320, Note_on_c, 0, 45, 0
3, 22320, Note_on_c, 0, 54, 0
3, 22320, Note_on_c, 0, 55, 27
3, 22410, Note_on_c, 0, 55, 0
3, 22800, Note_on_c, 0, 66, 24
3, 22800, Note_on_c, 0, 54, 19
3, 22800, Note_on_c, 0, 57, 19
3, 23040, Note_on_c, 0, 57, 0
3, 23040, Note_on_c, 0, 54, 0
3, 23040, Note_on_c, 0, 66, 0
3, 23040, Note_on_c, 0, 53, 25
3, 23130, Note_on_c, 0, 53, 0
3, 23520, Note_on_c, 0, 54, 24
3, 23520, Note_on_c, 0, 45, 19
3, 23520, Note_on_c, 0, 48, 19
3, 23760, Note_on_c, 0, 48, 0
3, 23760, Note_on_c, 0, 45, 0
3, 23760, Note_on_c, 0, 54, 0
3, 23760, Note_on_c, 0, 57, 26
3, 23850, Note_on_c, 0, 57, 0
3, 24240, Note_on_c, 0, 67, 37
3, 24240, Note_on_c, 0, 55, 28
3, 24240, Note_on_c, 0, 59, 28
3, 24480, Note_on_c, 0, 59, 0
3, 24480, Note_on_c, 0, 55, 0
3, 24480, Note_on_c, 0, 67, 0
3, 24480, Note_on_c, 0, 54, 29
3, 24600, Note_on_c, 0, 54, 0
3, 24960, Note_on_c, 0, 56, 41
3, 24960, Note_on_c, 0, 47, 33
3, 24960, Note_on_c, 0, 50, 33
3, 25200, Note_on_c, 0, 50, 0
3, 25200, Note_on_c, 0, 47, 0
3, 25200, Note_on_c, 0, 56, 0
3, 25200, Note_on_c, 0, 62, 42
3, 25320, Note_on_c, 0, 62, 0
3, 25680, Note_on_c, 0, 69, 45
3, 25680, Note_on_c, 0, 57, 35
3, 25680, Note_on_c, 0, 60, 35
3, 25920, Note_on_c, 0, 60, 0
3, 25920, Note_on_c, 0, 57, 0
3, 25920, Note_on_c, 0, 69, 0
3, 25920, Note_on_c, 0, 56, 50
3, 26040, Note_on_c, 0, 56, 0
3, 26400, Note_on_c, 0, 58, 46
3, 26400, Note_on_c, 0, 49, 35
3, 26400, Note_on_c, 0, 52, 35
3, 26640, Note_on_c, 0, 52, 0
3, 26640, Note_on_c, 0, 49, 0
3, 26640, Note_on_c, 0, 58, 0
3, 26640, Note_on_c, 0, 64, 49
3, 26760, Note_on_c, 0, 64, 0
3, 27120, Note_on_c, 0, 71, 40
3, 27120, Note_on_c, 0, 59, 30
3, 27120, Note_on_c, 0, 62, 30
3, 27360, Note_on_c, 0, 62, 0
3, 27360, Note_on_c, 0, 59, 0
3, 27360, Note_on_c, 0, 71, 0
3, 27360, Note_on_c, 0, 50, 31
3, 27540, Note_on_c, 0, 50, 0
3, 27840, Note_on_c, 0, 61, 35
3, 27840, Note_on_c, 0, 52, 27
3, 27840, Note_on_c, 0, 55, 27
3, 28080, Note_on_c, 0, 55, 0
3, 28080, Note_on_c, 0, 52, 0
3, 28080, Note_on_c, 0, 61, 0
3, 28080, Note_on_c, 0, 66, 26
3, 28260, Note_on_c, 0, 66, 0
3, 28560, Note_on_c, 0, 59, 33
3, 28560, Note_on_c, 0, 54, 26
3, 28800, Note_on_c, 0, 54, 0
3, 28800, Note_on_c, 0, 59, 0
3, 28800, Note_on_c, 0, 64, 25
3, 28980, Note_on_c, 0, 64, 0
3, 29280, Note_on_c, 0, 58, 31
3, 29280, Note_on_c, 0, 54, 24
3, 29520, Note_on_c, 0, 66, 26
3, 29760, Note_on_c, 0, 66, 0
3, 29760, Note_on_c, 0, 64, 25
3, 29880, Note_on_c, 0, 64, 0
3, 29880, Note_on_c, 0, 54, 0
3, 29880, Note_on_c, 0, 58, 0
3, 30000, Note_on_c, 0, 71, 42
3, 30000, Note_on_c, 0, 59, 32
3, 30000, Note_on_c, 0, 62, 32
3, 30240, Note_on_c, 0, 62, 0
3, 30240, Note_on_c, 0, 59, 0
3, 30240, Note_on_c, 0, 71, 0
3, 30240, Note_on_c, 0, 50, 33
3, 30360, Note_on_c, 0, 50, 0
3, 30720, Note_on_c, 0, 61, 45
3, 30720, Note_on_c, 0, 52, 34
3, 30720, Note_on_c, 0, 57, 34
3, 30960, Note_on_c, 0, 57, 0
3, 30960, Note_on_c, 0, 52, 0
3, 30960, Note_on_c, 0, 61, 0
3, 30960, Note_on_c, 0, 69, 38
3, 31080, Note_on_c, 0, 69, 0
3, 31440, Note_on_c, 0, 62, 38
3, 31440, Note_on_c, 0, 54, 30
3, 31440, Note_on_c, 0, 59, 30
3, 31680, Note_on_c, 0, 59, 0
3, 31680, Note_on_c, 0, 54, 0
3, 31680, Note_on_c, 0, 62, 0
3, 31680, Note_on_c, 0, 67, 32
3, 31800, Note_on_c, 0, 67, 0
3, 32160, Note_on_c, 0, 64, 31
3, 32160, Note_on_c, 0, 54, 24
3, 32160, Note_on_c, 0, 61, 24
3, 32400, Note_on_c, 0, 61, 0
3, 32400, Note_on_c, 0, 54, 0
3, 32400, Note_on_c, 0, 64, 0
3, 32400, Note_on_c, 0, 66, 26
3, 32640, Note_on_c, 0, 66, 0
3, 32880, Note_on_c, 0, 35, 37
3, 33120, Note_on_c, 0, 35, 0
3, 33120, Note_on_c, 0, 42, 44
3, 33600, Note_on_c, 0, 42, 0
3, 33600, Note_on_c, 0, 47, 39
3, 33840, Note_on_c, 0, 47, 0
3, 33840, Note_on_c, 0, 51, 43
3, 34320, Note_on_c, 0, 51, 0
3, 34320, Note_on_c, 0, 35, 40
3, 34560, Note_on_c, 0, 35, 0
3, 34560, Note_on_c, 0, 44, 47
3, 35040, Note_on_c, 0, 44, 0
3, 35040, Note_on_c, 0, 47, 39
3, 35280, Note_on_c, 0, 47, 0
3, 35280, Note_on_c, 0, 52, 43
3, 35760, Note_on_c, 0, 52, 0
3, 35760, Note_on_c, 0, 35, 40
3, 36000, Note_on_c, 0, 35, 0
3, 36000, Note_on_c, 0, 41, 47
3, 36480, Note_on_c, 0, 41, 0
3, 36480, Note_on_c, 0, 44, 39
3, 36720, Note_on_c, 0, 44, 0
3, 36720, Note_on_c, 0, 47, 43
3, 37200, Note_on_c, 0, 47, 0
3, 37200, Note_on_c, 0, 35, 40
3, 37440, Note_on_c, 0, 35, 0
3, 37440, Note_on_c, 0, 40, 47
3, 37920, Note_on_c, 0, 40, 0
3, 37920, Note_on_c, 0, 43, 33
3, 38160, Note_on_c, 0, 43, 0
3, 38160, Note_on_c, 0, 47, 27
3, 38160, Note_on_c, 0, 49, 27
3, 38160, Note_on_c, 0, 52, 33
3, 38880, Note_on_c, 0, 52, 0
3, 38880, Note_on_c, 0, 49, 0
3, 38880, Note_on_c, 0, 47, 0
3, 38880, Note_on_c, 0, 47, 42
3, 39120, Note_on_c, 0, 47, 0
3, 39120, Note_on_c, 0, 51, 36
3, 39360, Note_on_c, 0, 51, 0
3, 39360, Note_on_c, 0, 63, 36
3, 39600, Note_on_c, 0, 63, 0
3, 40080, Note_on_c, 0, 35, 34
3, 40200, Note_on_c, 0, 35, 0
3, 40320, Note_on_c, 0, 47, 43
3, 40560, Note_on_c, 0, 47, 0
3, 40560, Note_on_c, 0, 52, 36
3, 40800, Note_on_c, 0, 52, 0
3, 40800, Note_on_c, 0, 64, 36
3, 41040, Note_on_c, 0, 64, 0
3, 41520, Note_on_c, 0, 35, 40
3, 41640, Note_on_c, 0, 35, 0
3, 41760, Note_on_c, 0, 47, 51
3, 42000, Note_on_c, 0, 47, 0
3, 42000, Note_on_c, 0, 53, 43
3, 42240, Note_on_c, 0, 53, 0
3, 42240, Note_on_c, 0, 65, 43
3, 42480, Note_on_c, 0, 65, 0
3, 42960, Note_on_c, 0, 35, 50
3, 43080, Note_on_c, 0, 35, 0
3, 43200, Note_on_c, 0, 47, 62
3, 43440, Note_on_c, 0, 47, 0
3, 43440, Note_on_c, 0, 52, 52
3, 43680, Note_on_c, 0, 52, 0
3, 43680, Note_on_c, 0, 64, 52
3, 43920, Note_on_c, 0, 64, 0
3, 44400, Note_on_c, 0, 35, 46
3, 44520, Note_on_c, 0, 35, 0
3, 44640, Note_on_c, 0, 47, 66
3, 44880, Note_on_c, 0, 47, 0
3, 44880, Note_on_c, 0, 54, 57
3, 45120, Note_on_c, 0, 54, 0
3, 45120, Note_on_c, 0, 66, 57
3, 45360, Note_on_c, 0, 66, 0
3, 45360, Note_on_c, 0, 35, 46
3, 46080, Note_on_c, 0, 35, 0
3, 46080, Note_on_c, 0, 47, 66
3, 46320, Note_on_c, 0, 47, 0
3, 46320, Note_on_c, 0, 54, 57
3, 46560, Note_on_c, 0, 54, 0
3, 46560, Note_on_c, 0, 64, 57
3, 46800, Note_on_c, 0, 64, 0
3, 46800, Note_on_c, 0, 35, 46
3, 47520, Note_on_c, 0, 35, 0
3, 47520, Note_on_c, 0, 48, 66
3, 47760, Note_on_c, 0, 57, 57
3, 48000, Note_on_c, 0, 57, 0
3, 48000, Note_on_c, 0, 48, 0
3, 48000, Note_on_c, 0, 64, 57
3, 48240, Note_on_c, 0, 64, 0
3, 48240, Note_on_c, 0, 47, 46
3, 48720, Note_on_c, 0, 47, 0
3, 48960, Note_on_c, 0, 45, 66
3, 49200, Note_on_c, 0, 54, 57
3, 49440, Note_on_c, 0, 54, 0
3, 49440, Note_on_c, 0, 45, 0
3, 49440, Note_on_c, 0, 64, 57
3, 49680, Note_on_c, 0, 64, 0
3, 49680, Note_on_c, 0, 47, 46
3, 50160, Note_on_c, 0, 47, 0
3, 50400, Note_on_c, 0, 48, 66
3, 50640, Note_on_c, 0, 57, 57
3, 50880, Note_on_c, 0, 57, 0
3, 50880, Note_on_c, 0, 48, 0
3, 50880, Note_on_c, 0, 64, 57
3, 51120, Note_on_c, 0, 64, 0
3, 51120, Note_on_c, 0, 47, 46
3, 51600, Note_on_c, 0, 47, 0
3, 51840, Note_on_c, 0, 45, 66
3, 52080, Note_on_c, 0, 54, 57
3, 52320, Note_on_c, 0, 54, 0
3, 52320, Note_on_c, 0, 45, 0
3, 52320, Note_on_c, 0, 64, 57
3, 52440, Note_on_c, 0, 64, 0
3, 52560, Note_on_c, 0, 42, 66
3, 52800, Note_on_c, 0, 57, 57
3, 53040, Note_on_c, 0, 57, 0
3, 53040, Note_on_c, 0, 42, 0
3, 53040, Note_on_c, 0, 64, 57
3, 53160, Note_on_c, 0, 64, 0
3, 53280, Note_on_c, 0, 47, 48
3, 53520, Note_on_c, 0, 47, 0
3, 53520, Note_on_c, 0, 57, 39
3, 53760, Note_on_c, 0, 57, 0
3, 54240, Note_on_c, 0, 59, 27
3, 54480, Note_on_c, 0, 59, 0
3, 54960, Note_on_c, 0, 57, 27
3, 54960, Note_on_c, 0, 47, 23
3, 55200, Note_on_c, 0, 47, 0
3, 55200, Note_on_c, 0, 57, 0
3, 55680, Note_on_c, 0, 59, 26
3, 55920, Note_on_c, 0, 59, 0
3, 56400, Note_on_c, 0, 47, 15
3, 56400, Note_on_c, 0, 57, 21
3, 56640, Note_on_c, 0, 57, 0
3, 56640, Note_on_c, 0, 47, 0
3, 57120, Note_on_c, 0, 59, 21
3, 57360, Note_on_c, 0, 59, 0
3, 57840, Note_on_c, 0, 47, 13
3, 57840, Note_on_c, 0, 57, 17
3, 58080, Note_on_c, 0, 57, 0
3, 58080, Note_on_c, 0, 47, 0
3, 58560, Note_on_c, 0, 59, 22
3, 58800, Note_on_c, 0, 59, 0
3, 58800, Note_on_c, 0, 69, 24
3, 58800, Note_on_c, 0, 57, 19
3, 58800, Note_on_c, 0, 60, 19
3, 59040, Note_on_c, 0, 60, 0
3, 59040, Note_on_c, 0, 57, 0
3, 59040, Note_on_c, 0, 69, 0
3, 59040, Note_on_c, 0, 56, 20
3, 59160, Note_on_c, 0, 56, 0
3, 59520, Note_on_c, 0, 57, 24
3, 59520, Note_on_c, 0, 48, 19
3, 59520, Note_on_c, 0, 52, 19
3, 59760, Note_on_c, 0, 52, 0
3, 59760, Note_on_c, 0, 48, 0
3, 59760, Note_on_c, 0, 57, 0
3, 59760, Note_on_c, 0, 59, 20
3, 59880, Note_on_c, 0, 59, 0
3, 60240, Note_on_c, 0, 69, 24
3, 60240, Note_on_c, 0, 57, 19
3, 60240, Note_on_c, 0, 60, 19
3, 60480, Note_on_c, 0, 60, 0
3, 60480, Note_on_c, 0, 57, 0
3, 60480, Note_on_c, 0, 69, 0
3, 60480, Note_on_c, 0, 56, 20
3, 60600, Note_on_c, 0, 56, 0
3, 60960, Note_on_c, 0, 57, 24
3, 60960, Note_on_c, 0, 48, 19
3, 60960, Note_on_c, 0, 54, 19
3, 61200, Note_on_c, 0, 54, 0
3, 61200, Note_on_c, 0, 48, 0
3, 61200, Note_on_c, 0, 57, 0
3, 61200, Note_on_c, 0, 63, 20
3, 61320, Note_on_c, 0, 63, 0
3, 61680, Note_on_c, 0, 67, 27
3, 61680, Note_on_c, 0, 55, 20
3, 61680, Note_on_c, 0, 59, 20
3, 61920, Note_on_c, 0, 59, 0
3, 61920, Note_on_c, 0, 55, 0
3, 61920, Note_on_c, 0, 67, 0
3, 61920, Note_on_c, 0, 54, 21
3, 62040, Note_on_c, 0, 54, 0
3, 62400, Note_on_c, 0, 55, 25
3, 62400, Note_on_c, 0, 47, 20
3, 62400, Note_on_c, 0, 50, 20
3, 62640, Note_on_c, 0, 50, 0
3, 62640, Note_on_c, 0, 47, 0
3, 62640, Note_on_c, 0, 55, 0
3, 62640, Note_on_c, 0, 57, 21
3, 62760, Note_on_c, 0, 57, 0
3, 63120, Note_on_c, 0, 67, 24
3, 63120, Note_on_c, 0, 55, 19
3, 63120, Note_on_c, 0, 59, 19
3, 63360, Note_on_c, 0, 59, 0
3, 63360, Note_on_c, 0, 55, 0
3, 63360, Note_on_c, 0, 67, 0
3, 63360, Note_on_c, 0, 54, 20
3, 63480, Note_on_c, 0, 54, 0
3, 63840, Note_on_c, 0, 55, 26
3, 63840, Note_on_c, 0, 46, 20
3, 63840, Note_on_c, 0, 52, 20
3, 64080, Note_on_c, 0, 52, 0
3, 64080, Note_on_c, 0, 46, 0
3, 64080, Note_on_c, 0, 55, 0
3, 64080, Note_on_c, 0, 61, 22
3, 64200, Note_on_c, 0, 61, 0
3, 64560, Note_on_c, 0, 65, 43
3, 64560, Note_on_c, 0, 53, 33
3, 64560, Note_on_c, 0, 57, 33
3, 64800, Note_on_c, 0, 57, 0
3, 64800, Note_on_c, 0, 53, 0
3, 64800, Note_on_c, 0, 65, 0
3, 64800, Note_on_c, 0, 52, 37
3, 64980, Note_on_c, 0, 52, 0
3, 65280, Note_on_c, 0, 60, 54
3, 65280, Note_on_c, 0, 53, 42
3, 65280, Note_on_c, 0, 57, 42
3, 65520, Note_on_c, 0, 57, 0
3, 65520, Note_on_c, 0, 53, 0
3, 65520, Note_on_c, 0, 60, 0
3, 65520, Note_on_c, 0, 52, 44
3, 65700, Note_on_c, 0, 52, 0
3, 66000, Note_on_c, 0, 53, 58
3, 66000, Note_on_c, 0, 45, 46
3, 66000, Note_on_c, 0, 48, 46
3, 66240, Note_on_c, 0, 48, 0
3, 66240, Note_on_c, 0, 45, 0
3, 66240, Note_on_c, 0, 53, 0
3, 66240, Note_on_c, 0, 56, 52
3, 66420, Note_on_c, 0, 56, 0
3, 66720, Note_on_c, 0, 57, 62
3, 66720, Note_on_c, 0, 48, 49
3, 66720, Note_on_c, 0, 53, 49
3, 66960, Note_on_c, 0, 53, 0
3, 66960, Note_on_c, 0, 48, 0
3, 66960, Note_on_c, 0, 57, 0
3, 66960, Note_on_c, 0, 59, 56
3, 67140, Note_on_c, 0, 59, 0
3, 67440, Note_on_c, 0, 53, 48
3, 67440, Note_on_c, 0, 57, 47
3, 67440, Note_on_c, 0, 60, 52
3, 68400, Note_on_c, 0, 53, 0
3, 68400, Note_on_c, 0, 54, 48
3, 68880, Note_on_c, 0, 60, 0
3, 68880, Note_on_c, 0, 57, 0
3, 68880, Note_on_c, 0, 57, 42
3, 69120, Note_on_c, 0, 57, 0
3, 69120, Note_on_c, 0, 59, 42
3, 69840, Note_on_c, 0, 59, 0
3, 69840, Note_on_c, 0, 61, 37
3, 70320, Note_on_c, 0, 61, 0
3, 70320, Note_on_c, 0, 54, 0
3, 70320, Note_on_c, 0, 35, 40
3, 70560, Note_on_c, 0, 35, 0
3, 70560, Note_on_c, 0, 42, 44
3, 71040, Note_on_c, 0, 42, 0
3, 71040, Note_on_c, 0, 47, 39
3, 71280, Note_on_c, 0, 47, 0
3, 71280, Note_on_c, 0, 51, 43
3, 71760, Note_on_c, 0, 51, 0
3, 71760, Note_on_c, 0, 35, 40
3, 72000, Note_on_c, 0, 35, 0
3, 72000, Note_on_c, 0, 44, 47
3, 72480, Note_on_c, 0, 44, 0
3, 72480, Note_on_c, 0, 47, 39
3, 72720, Note_on_c, 0, 47, 0
3, 72720, Note_on_c, 0, 52, 43
3, 73200, Note_on_c, 0, 52, 0
3, 73200, Note_on_c, 0, 35, 40
3, 73440, Note_on_c, 0, 35, 0
3, 73440, Note_on_c, 0, 41, 47
3, 73920, Note_on_c, 0, 41, 0
3, 73920, Note_on_c, 0, 44, 39
3, 74160, Note_on_c, 0, 44, 0
3, 74160, Note_on_c, 0, 47, 43
3, 74640, Note_on_c, 0, 47, 0
3, 74640, Note_on_c, 0, 35, 40
3, 74880, Note_on_c, 0, 35, 0
3, 74880, Note_on_c, 0, 40, 47
3, 75360, Note_on_c, 0, 40, 0
3, 75360, Note_on_c, 0, 43, 33
3, 75600, Note_on_c, 0, 43, 0
3, 75600, Note_on_c, 0, 49, 27
3, 75600, Note_on_c, 0, 52, 33
3, 75600, Note_on_c, 0, 47, 27
3, 76320, Note_on_c, 0, 47, 0
3, 76320, Note_on_c, 0, 52, 0
3, 76320, Note_on_c, 0, 49, 0
3, 76320, Note_on_c, 0, 47, 42
3, 76560, Note_on_c, 0, 47, 0
3, 76560, Note_on_c, 0, 51, 36
3, 76800, Note_on_c, 0, 51, 0
3, 76800, Note_on_c, 0, 63, 36
3, 77040, Note_on_c, 0, 63, 0
3, 77520, Note_on_c, 0, 35, 34
3, 77640, Note_on_c, 0, 35, 0
3, 77760, Note_on_c, 0, 47, 43
3, 78000, Note_on_c, 0, 47, 0
3, 78000, Note_on_c, 0, 52, 36
3, 78240, Note_on_c, 0, 52, 0
3, 78240, Note_on_c, 0, 64, 36
3, 78480, Note_on_c, 0, 64, 0
3, 78960, Note_on_c, 0, 35, 40
3, 79080, Note_on_c, 0, 35, 0
3, 79200, Note_on_c, 0, 47, 51
3, 79440, Note_on_c, 0, 47, 0
3, 79440, Note_on_c, 0, 53, 43
3, 79680, Note_on_c, 0, 53, 0
3, 79680, Note_on_c, 0, 65, 43
3, 79920, Note_on_c, 0, 65, 0
3, 80400, Note_on_c, 0, 35, 50
3, 80520, Note_on_c, 0, 35, 0
3, 80640, Note_on_c, 0, 47, 62
3, 80880, Note_on_c, 0, 47, 0
3, 80880, Note_on_c, 0, 52, 52
3, 81120, Note_on_c, 0, 52, 0
3, 81120, Note_on_c, 0, 64, 52
3, 81360, Note_on_c, 0, 64, 0
3, 81840, Note_on_c, 0, 35, 46
3, 81960, Note_on_c, 0, 35, 0
3, 82080, Note_on_c, 0, 47, 66
3, 82320, Note_on_c, 0, 47, 0
3, 82320, Note_on_c, 0, 54, 57
3, 82560, Note_on_c, 0, 54, 0
3, 82560, Note_on_c, 0, 66, 57
3, 82800, Note_on_c, 0, 66, 0
3, 82800, Note_on_c, 0, 35, 46
3, 83520, Note_on_c, 0, 35, 0
3, 83520, Note_on_c, 0, 47, 66
3, 83760, Note_on_c, 0, 47, 0
3, 83760, Note_on_c, 0, 54, 57
3, 84000, Note_on_c, 0, 54, 0
3, 84000, Note_on_c, 0, 64, 57
3, 84240, Note_on_c, 0, 64, 0
3, 84240, Note_on_c, 0, 35, 46
3, 84960, Note_on_c, 0, 35, 0
3, 84960, Note_on_c, 0, 48, 66
3, 85200, Note_on_c, 0, 57, 57
3, 85440, Note_on_c, 0, 57, 0
3, 85440, Note_on_c, 0, 48, 0
3, 85440, Note_on_c, 0, 64, 57
3, 85680, Note_on_c, 0, 64, 0
3, 85680, Note_on_c, 0, 47, 46
3, 86160, Note_on_c, 0, 47, 0
3, 86400, Note_on_c, 0, 45, 66
3, 86640, Note_on_c, 0, 54, 57
3, 86880, Note_on_c, 0, 54, 0
3, 86880, Note_on_c, 0, 45, 0
3, 86880, Note_on_c, 0, 64, 57
3, 87120, Note_on_c, 0, 64, 0
3, 87120, Note_on_c, 0, 47, 46
3, 87600, Note_on_c, 0, 47, 0
3, 87840, Note_on_c, 0, 48, 66
3, 88080, Note_on_c, 0, 57, 57
3, 88320, Note_on_c, 0, 57, 0
3, 88320, Note_on_c, 0, 48, 0
3, 88320, Note_on_c, 0, 64, 57
3, 88560, Note_on_c, 0, 64, 0
3, 88560, Note_on_c, 0, 47, 46
3, 89040, Note_on_c, 0, 47, 0
3, 89280, Note_on_c, 0, 45, 66
3, 89520, Note_on_c, 0, 54, 57
3, 89760, Note_on_c, 0, 54, 0
3, 89760, Note_on_c, 0, 45, 0
3, 89760, Note_on_c, 0, 64, 57
3, 89880, Note_on_c, 0, 64, 0
3, 90000, Note_on_c, 0, 42, 66
3, 90240, Note_on_c, 0, 57, 57
3, 90480, Note_on_c, 0, 57, 0
3, 90480, Note_on_c, 0, 42, 0
3, 90480, Note_on_c, 0, 64, 57
3, 90600, Note_on_c, 0, 64, 0
3, 90720, Note_on_c, 0, 47, 48
3, 90960, Note_on_c, 0, 47, 0
3, 90960, Note_on_c, 0, 57, 39
3, 91200, Note_on_c, 0, 57, 0
3, 91680, Note_on_c, 0, 59, 27
3, 91920, Note_on_c, 0, 59, 0
3, 92400, Note_on_c, 0, 57, 27
3, 92400, Note_on_c, 0, 47, 23
3, 92640, Note_on_c, 0, 47, 0
3, 92640, Note_on_c, 0, 57, 0
3, 93120, Note_on_c, 0, 59, 26
3, 93360, Note_on_c, 0, 59, 0
3, 93840, Note_on_c, 0, 47, 15
3, 93840, Note_on_c, 0, 57, 21
3, 94080, Note_on_c, 0, 57, 0
3, 94080, Note_on_c, 0, 47, 0
3, 94560, Note_on_c, 0, 59, 21
3, 94800, Note_on_c, 0, 59, 0
3, 95280, Note_on_c, 0, 57, 17
3, 95280, Note_on_c, 0, 47, 13
3, 95520, Note_on_c, 0, 47, 0
3, 95520, Note_on_c, 0, 57, 0
3, 96000, Note_on_c, 0, 59, 17
3, 96230, Note_on_c, 0, 59, 0
3, 96240, Note_on_c, 0, 57, 19
3, 96240, Note_on_c, 0, 60, 19
3, 96240, Note_on_c, 0, 69, 24
3, 96480, Note_on_c, 0, 69, 0
3, 96480, Note_on_c, 0, 60, 0
3, 96480, Note_on_c, 0, 57, 0
3, 96480, Note_on_c, 0, 56, 20
3, 96600, Note_on_c, 0, 56, 0
3, 96960, Note_on_c, 0, 57, 24
3, 96960, Note_on_c, 0, 48, 19
3, 96960, Note_on_c, 0, 52, 19
3, 97200, Note_on_c, 0, 52, 0
3, 97200, Note_on_c, 0, 48, 0
3, 97200, Note_on_c, 0, 57, 0
3, 97200, Note_on_c, 0, 59, 20
3, 97320, Note_on_c, 0, 59, 0
3, 97680, Note_on_c, 0, 69, 24
3, 97680, Note_on_c, 0, 60, 19
3, 97680, Note_on_c, 0, 57, 19
3, 97920, Note_on_c, 0, 57, 0
3, 97920, Note_on_c, 0, 60, 0
3, 97920, Note_on_c, 0, 69, 0
3, 97920, Note_on_c, 0, 56, 20
3, 98040, Note_on_c, 0, 56, 0
3, 98400, Note_on_c, 0, 57, 24
3, 98400, Note_on_c, 0, 54, 19
3, 98400, Note_on_c, 0, 48, 19
3, 98640, Note_on_c, 0, 48, 0
3, 98640, Note_on_c, 0, 54, 0
3, 98640, Note_on_c, 0, 57, 0
3, 98640, Note_on_c, 0, 63, 20
3, 98760, Note_on_c, 0, 63, 0
3, 99120, Note_on_c, 0, 55, 20
3, 99120, Note_on_c, 0, 59, 20
3, 99120, Note_on_c, 0, 67, 27
3, 99360, Note_on_c, 0, 67, 0
3, 99360, Note_on_c, 0, 59, 0
3, 99360, Note_on_c, 0, 55, 0
3, 99360, Note_on_c, 0, 54, 21
3, 99480, Note_on_c, 0, 54, 0
3, 99840, Note_on_c, 0, 55, 25
3, 99840, Note_on_c, 0, 47, 20
3, 99840, Note_on_c, 0, 50, 20
3, 100080, Note_on_c, 0, 50, 0
3, 100080, Note_on_c, 0, 47, 0
3, 100080, Note_on_c, 0, 55, 0
3, 100080, Note_on_c, 0, 57, 21
3, 100200, Note_on_c, 0, 57, 0
3, 100560, Note_on_c, 0, 67, 24
3, 100560, Note_on_c, 0, 55, 19
3, 100560, Note_on_c, 0, 59, 19
3, 100800, Note_on_c, 0, 59, 0
3, 100800, Note_on_c, 0, 55, 0
3, 100800, Note_on_c, 0, 67, 0
3, 100800, Note_on_c, 0, 54, 20
3, 100920, Note_on_c, 0, 54, 0
3, 101280, Note_on_c, 0, 55, 26
3, 101280, Note_on_c, 0, 52, 20
3, 101280, Note_on_c, 0, 46, 20
3, 101520, Note_on_c, 0, 46, 0
3, 101520, Note_on_c, 0, 52, 0
3, 101520, Note_on_c, 0, 55, 0
3, 101520, Note_on_c, 0, 61, 22
3, 101640, Note_on_c, 0, 61, 0
3, 102000, Note_on_c, 0, 65, 43
3, 102000, Note_on_c, 0, 53, 33
3, 102000, Note_on_c, 0, 57, 33
3, 102240, Note_on_c, 0, 57, 0
3, 102240, Note_on_c, 0, 53, 0
3, 102240, Note_on_c, 0, 65, 0
3, 102240, Note_on_c, 0, 52, 37
3, 102420, Note_on_c, 0, 52, 0
3, 102720, Note_on_c, 0, 53, 42
3, 102720, Note_on_c, 0, 57, 42
3, 102720, Note_on_c, 0, 60, 54
3, 102960, Note_on_c, 0, 60, 0
3, 102960, Note_on_c, 0, 57, 0
3, 102960, Note_on_c, 0, 53, 0
3, 102960, Note_on_c, 0, 52, 44
3, 103140, Note_on_c, 0, 52, 0
3, 103440, Note_on_c, 0, 53, 58
3, 103440, Note_on_c, 0, 45, 46
3, 103440, Note_on_c, 0, 48, 46
3, 103680, Note_on_c, 0, 48, 0
3, 103680, Note_on_c, 0, 45, 0
3, 103680, Note_on_c, 0, 53, 0
3, 103680, Note_on_c, 0, 56, 52
3, 103860, Note_on_c, 0, 56, 0
3, 104160, Note_on_c, 0, 57, 62
3, 104160, Note_on_c, 0, 48, 49
3, 104160, Note_on_c, 0, 53, 49
3, 104400, Note_on_c, 0, 53, 0
3, 104400, Note_on_c, 0, 48, 0
3, 104400, Note_on_c, 0, 57, 0
3, 104400, Note_on_c, 0, 59, 56
3, 104580, Note_on_c, 0, 59, 0
3, 104880, Note_on_c, 0, 57, 47
3, 104880, Note_on_c, 0, 60, 52
3, 104880, Note_on_c, 0, 53, 48
3, 107280, Note_on_c, 0, 53, 0
3, 107280, Note_on_c, 0, 60, 0
3, 107280, Note_on_c, 0, 57, 0
3, 107280, Note_on_c, 0, 42, 30
3, 107280, Note_on_c, 0, 54, 35
3, 107280, Note_on_c, 0, 47, 30
3, 108720, Note_on_c, 0, 47, 0
3, 108720, Note_on_c, 0, 54, 0
3, 108720, Note_on_c, 0, 42, 0
3, 108720, Note_on_c, 0, 35, 30
3, 108720, Note_on_c, 0, 47, 38
3, 110160, Note_on_c, 0, 47, 0
3, 110160, Note_on_c, 0, 35, 0
3, 110160, Note_on_c, 0, 28, 30
3, 110160, Note_on_c, 0, 40, 35
3, 111600, Note_on_c, 0, 40, 0
3, 111600, Note_on_c, 0, 28, 0
3, 111600, End_track
4, 0, Start_track
4, 0, Title_t, "Pedal"
4, 0, Program_c, 0, 0
4, 1107, Control_c, 0, 64, 127
4, 1491, Control_c, 0, 64, 0
4, 1966, Control_c, 0, 64, 127
4, 2220, Control_c, 0, 64, 0
4, 2657, Control_c, 0, 64, 127
4, 2940, Control_c, 0, 64, 0
4, 3412, Control_c, 0, 64, 127
4, 3660, Control_c, 0, 64, 0
4, 4132, Control_c, 0, 64, 127
4, 4380, Control_c, 0, 64, 0
4, 4812, Control_c, 0, 64, 127
4, 5100, Control_c, 0, 64, 0
4, 5577, Control_c, 0, 64, 127
4, 5820, Control_c, 0, 64, 0
4, 6297, Control_c, 0, 64, 127
4, 6540, Control_c, 0, 64, 0
4, 7029, Control_c, 0, 64, 127
4, 7235, Control_c, 0, 64, 0
4, 7720, Control_c, 0, 64, 127
4, 7983, Control_c, 0, 64, 0
4, 8469, Control_c, 0, 64, 127
4, 8715, Control_c, 0, 64, 0
4, 9177, Control_c, 0, 64, 127
4, 9463, Control_c, 0, 64, 0
4, 9903, Control_c, 0, 64, 127
4, 10186, Control_c, 0, 64, 0
4, 10673, Control_c, 0, 64, 127
4, 10885, Control_c, 0, 64, 0
4, 11358, Control_c, 0, 64, 127
4, 11612, Control_c, 0, 64, 0
4, 12046, Control_c, 0, 64, 127
4, 12526, Control_c, 0, 64, 0
4, 12749, Control_c, 0, 64, 127
4, 13069, Control_c, 0, 64, 0
4, 13497, Control_c, 0, 64, 127
4, 13789, Control_c, 0, 64, 0
4, 14212, Control_c, 0, 64, 127
4, 14470, Control_c, 0, 64, 0
4, 14908, Control_c, 0, 64, 127
4, 15628, Control_c, 0, 64, 0
4, 15847, Control_c, 0, 64, 127
4, 16580, Control_c, 0, 64, 0
4, 16732, Control_c, 0, 64, 127
4, 17286, Control_c, 0, 64, 0
4, 17467, Control_c, 0, 64, 127
4, 18279, Control_c, 0, 64, 0
4, 18560, Control_c, 0, 64, 127
4, 18771, Control_c, 0, 64, 0
4, 19246, Control_c, 0, 64, 127
4, 19500, Control_c, 0, 64, 0
4, 19937, Control_c, 0, 64, 127
4, 20220, Control_c, 0, 64, 0
4, 20692, Control_c, 0, 64, 127
4, 20940, Control_c, 0, 64, 0
4, 21412, Control_c, 0, 64, 127
4, 21660, Control_c, 0, 64, 0
4, 22092, Control_c, 0, 64, 127
4, 22380, Control_c, 0, 64, 0
4, 22857, Control_c, 0, 64, 127
4, 23100, Control_c, 0, 64, 0
4, 23577, Control_c, 0, 64, 127
4, 23820, Control_c, 0, 64, 0
4, 24309, Control_c, 0, 64, 127
4, 24515, Control_c, 0, 64, 0
4, 25000, Control_c, 0, 64, 127
4, 25263, Control_c, 0, 64, 0
4, 25749, Control_c, 0, 64, 127
4, 25995, Control_c, 0, 64, 0
4, 26457, Control_c, 0, 64, 127
4, 26743, Control_c, 0, 64, 0
4, 27183, Control_c, 0, 64, 127
4, 27466, Control_c, 0, 64, 0
4, 27953, Control_c, 0, 64, 127
4, 28165, Control_c, 0, 64, 0
4, 28638, Control_c, 0, 64, 127
4, 28892, Control_c, 0, 64, 0
4, 29326, Control_c, 0, 64, 127
4, 29806, Control_c, 0, 64, 0
4, 30029, Control_c, 0, 64, 127
4, 30349, Control_c, 0, 64, 0
4, 30777, Control_c, 0, 64, 127
4, 31069, Control_c, 0, 64, 0
4, 31492, Control_c, 0, 64, 127
4, 31750, Control_c, 0, 64, 0
4, 32188, Control_c, 0, 64, 127
4, 32901, Control_c, 0, 64, 0
4, 32979, Control_c, 0, 64, 127
4, 34336, Control_c, 0, 64, 0
4, 34435, Control_c, 0, 64, 127
4, 35779, Control_c, 0, 64, 0
4, 35880, Control_c, 0, 64, 127
4, 37208, Control_c, 0, 64, 0
4, 37320, Control_c, 0, 64, 127
4, 38176, Control_c, 0, 64, 0
4, 38480, Control_c, 0, 64, 127
4, 38885, Control_c, 0, 64, 0
4, 38965, Control_c, 0, 64, 127
4, 39620, Control_c, 0, 64, 0
4, 39713, Control_c, 0, 64, 127
4, 40320, Control_c, 0, 64, 0
4, 40447, Control_c, 0, 64, 127
4, 41060, Control_c, 0, 64, 0
4, 41153, Control_c, 0, 64, 127
4, 41760, Control_c, 0, 64, 0
4, 41859, Control_c, 0, 64, 127
4, 42500, Control_c, 0, 64, 0
4, 42593, Control_c, 0, 64, 127
4, 43202, Control_c, 0, 64, 0
4, 43285, Control_c, 0, 64, 127
4, 43940, Control_c, 0, 64, 0
4, 44033, Control_c, 0, 64, 127
4, 44640, Control_c, 0, 64, 0
4, 44766, Control_c, 0, 64, 127
4, 45380, Control_c, 0, 64, 0
4, 45473, Control_c, 0, 64, 127
4, 46084, Control_c, 0, 64, 0
4, 46280, Control_c, 0, 64, 127
4, 46820, Control_c, 0, 64, 0
4, 47027, Control_c, 0, 64, 127
4, 47528, Control_c, 0, 64, 0
4, 47720, Control_c, 0, 64, 127
4, 48260, Control_c, 0, 64, 0
4, 48440, Control_c, 0, 64, 127
4, 48966, Control_c, 0, 64, 0
4, 49160, Control_c, 0, 64, 127
4, 49700, Control_c, 0, 64, 0
4, 49827, Control_c, 0, 64, 127
4, 50407, Control_c, 0, 64, 0
4, 50600, Control_c, 0, 64, 127
4, 51140, Control_c, 0, 64, 0
4, 51307, Control_c, 0, 64, 127
4, 51849, Control_c, 0, 64, 0
4, 51988, Control_c, 0, 64, 127
4, 53295, Control_c, 0, 64, 0
4, 53413, Control_c, 0, 64, 127
4, 54256, Control_c, 0, 64, 0
4, 54422, Control_c, 0, 64, 127
4, 54985, Control_c, 0, 64, 0
4, 55134, Control_c, 0, 64, 127
4, 55692, Control_c, 0, 64, 0
4, 55804, Control_c, 0, 64, 127
4, 56417, Control_c, 0, 64, 0
4, 56516, Control_c, 0, 64, 127
4, 57134, Control_c, 0, 64, 0
4, 57203, Control_c, 0, 64, 127
4, 57853, Control_c, 0, 64, 0
4, 57989, Control_c, 0, 64, 127
4, 58569, Control_c, 0, 64, 0
4, 59091, Control_c, 0, 64, 0
4, 59566, Control_c, 0, 64, 127
4, 59852, Control_c, 0, 64, 0
4, 60257, Control_c, 0, 64, 127
4, 60549, Control_c, 0, 64, 0
4, 61012, Control_c, 0, 64, 127
4, 61275, Control_c, 0, 64, 0
4, 61732, Control_c, 0, 64, 127
4, 61995, Control_c, 0, 64, 0
4, 62412, Control_c, 0, 64, 127
4, 62726, Control_c, 0, 64, 0
4, 63177, Control_c, 0, 64, 127
4, 63452, Control_c, 0, 64, 0
4, 63897, Control_c, 0, 64, 127
4, 64149, Control_c, 0, 64, 0
4, 64629, Control_c, 0, 64, 127
4, 64835, Control_c, 0, 64, 0
4, 65349, Control_c, 0, 64, 127
4, 65555, Control_c, 0, 64, 0
4, 66057, Control_c, 0, 64, 127
4, 66309, Control_c, 0, 64, 0
4, 66777, Control_c, 0, 64, 127
4, 67029, Control_c, 0, 64, 0
4, 67476, Control_c, 0, 64, 127
4, 67696, Control_c, 0, 64, 0
4, 67840, Control_c, 0, 64, 127
4, 68410, Control_c, 0, 64, 0
4, 68640, Control_c, 0, 64, 127
4, 69129, Control_c, 0, 64, 0
4, 69254, Control_c, 0, 64, 127
4, 69855, Control_c, 0, 64, 0
4, 70014, Control_c, 0, 64, 127
4, 70330, Control_c, 0, 64, 0
4, 70435, Control_c, 0, 64, 127
4, 71776, Control_c, 0, 64, 0
4, 71875, Control_c, 0, 64, 127
4, 73219, Control_c, 0, 64, 0
4, 73320, Control_c, 0, 64, 127
4, 74648, Control_c, 0, 64, 0
4, 74752, Control_c, 0, 64, 127
4, 75619, Control_c, 0, 64, 0
4, 75886, Control_c, 0, 64, 127
4, 76320, Control_c, 0, 64, 0
4, 76405, Control_c, 0, 64, 127
4, 77060, Control_c, 0, 64, 0
4, 77153, Control_c, 0, 64, 127
4, 77770, Control_c, 0, 64, 0
4, 77887, Control_c, 0, 64, 127
4, 78500, Control_c, 0, 64, 0
4, 78593, Control_c, 0, 64, 127
4, 79206, Control_c, 0, 64, 0
4, 79292, Control_c, 0, 64, 127
4, 79940, Control_c, 0, 64, 0
4, 80033, Control_c, 0, 64, 127
4, 80647, Control_c, 0, 64, 0
4, 80774, Control_c, 0, 64, 127
4, 81380, Control_c, 0, 64, 0
4, 81473, Control_c, 0, 64, 127
4, 82088, Control_c, 0, 64, 0
4, 82217, Control_c, 0, 64, 127
4, 82817, Control_c, 0, 64, 0
4, 82949, Control_c, 0, 64, 127
4, 83523, Control_c, 0, 64, 0
4, 83627, Control_c, 0, 64, 127
4, 84260, Control_c, 0, 64, 0
4, 84427, Control_c, 0, 64, 127
4, 84967, Control_c, 0, 64, 0
4, 85080, Control_c, 0, 64, 127
4, 85700, Control_c, 0, 64, 0
4, 85793, Control_c, 0, 64, 127
4, 86407, Control_c, 0, 64, 0
4, 86547, Control_c, 0, 64, 127
4, 87140, Control_c, 0, 64, 0
4, 87267, Control_c, 0, 64, 127
4, 87847, Control_c, 0, 64, 0
4, 88040, Control_c, 0, 64, 127
4, 88580, Control_c, 0, 64, 0
4, 88720, Control_c, 0, 64, 127
4, 89287, Control_c, 0, 64, 0
4, 89379, Control_c, 0, 64, 127
4, 90735, Control_c, 0, 64, 0
4, 90811, Control_c, 0, 64, 127
4, 91698, Control_c, 0, 64, 0
4, 91829, Control_c, 0, 64, 127
4, 92417, Control_c, 0, 64, 0
4, 92508, Control_c, 0, 64, 127
4, 93139, Control_c, 0, 64, 0
4, 93220, Control_c, 0, 64, 127
4, 93852, Control_c, 0, 64, 0
4, 93956, Control_c, 0, 64, 127
4, 94572, Control_c, 0, 64, 0
4, 94701, Control_c, 0, 64, 127
4, 95295, Control_c, 0, 64, 0
4, 95413, Control_c, 0, 64, 127
4, 96022, Control_c, 0, 64, 0
4, 96149, Control_c, 0, 64, 127
4, 96498, Control_c, 0, 64, 0
4, 97006, Control_c, 0, 64, 127
4, 97292, Control_c, 0, 64, 0
4, 97697, Control_c, 0, 64, 127
4, 97989, Control_c, 0, 64, 0
4, 98452, Control_c, 0, 64, 127
4, 98715, Control_c, 0, 64, 0
4, 99172, Control_c, 0, 64, 127
4, 99435, Control_c, 0, 64, 0
4, 99852, Control_c, 0, 64, 127
4, 100166, Control_c, 0, 64, 0
4, 100617, Control_c, 0, 64, 127
4, 100892, Control_c, 0, 64, 0
4, 101337, Control_c, 0, 64, 127
4, 101589, Control_c, 0, 64, 0
4, 102069, Control_c, 0, 64, 127
4, 102275, Control_c, 0, 64, 0
4, 102789, Control_c, 0, 64, 127
4, 102995, Control_c, 0, 64, 0
4, 103497, Control_c, 0, 64, 127
4, 103749, Control_c, 0, 64, 0
4, 104217, Control_c, 0, 64, 127
4, 104469, Control_c, 0, 64, 0
4, 104870, Control_c, 0, 64, 127
4, 107301, Control_c, 0, 64, 0
4, 107614, Control_c, 0, 64, 127
4, 108736, Control_c, 0, 64, 0
4, 109067, Control_c, 0, 64, 127
4, 109455, Control_c, 0, 64, 0
4, 109614, Control_c, 0, 64, 127
4, 110180, Control_c, 0, 64, 0
4, 110374, Control_c, 0, 64, 127
4, 110887, Control_c, 0, 64, 0
4, 111067, Control_c, 0, 64, 127
4, 113400, Control_c, 0, 64, 0
4, 113400, End_track
5, 0, Start_track
5, 0, Title_t, "Brahms: Intermezzo Nr. 5, Opus 116"
5, 0, End_track
6, 0, Start_track
6, 0, Title_t, "Copyright © 2005 by Bernd Krüger"
6, 0, End_track
7, 0, Start_track
7, 0, Title_t, "http://www.piano-midi.de"
7, 0, End_track
8, 0, Start_track
8, 0, Title_t, "Edition: 2010-10-31"
8, 0, End_track
9, 0, Start_track
9, 0, Title_t, "Spur 8"
9, 0, End_track
10, 0, Start_track
10, 0, Title_t, "Spur 9"
10, 0, End_track
0, 0, End_of_file
