0, 0, Header, 1, 7, 480
1, 0, Start_track
1, 0, Title_t, "Rhapsodie Nr. 4 in Es-Dur, Op. 119"
1, 0, Copyright_t, "Copyright © 1997 by Krüger http://www.piano-midi.de"
1, 0, Text_t, "Brahms"
1, 0, Text_t, "Allegro risoluto"
1, 0, Text_t, "Pan's auf Standard am 18.1.98\012"
1, 0, Text_t, "Korrekturen am 22.8.98\012"
1, 0, Text_t, "Anpassungen an Digitalpiano am 31.12.98\012"
1, 0, Text_t, "Update am 19.9.99\012"
1, 0, Text_t, "Update am 5.7.2000\012"
1, 0, Text_t, "Update am 18.5.2002\012"
1, 0, Text_t, "Normierung: 23.12.2002\012"
1, 0, Text_t, "Update am 4.11.2010\012"
1, 0, Text_t, "Dauer: 4:58 Minuten\012"
1, 0, SMPTE_offset, 96, 0, 3, 0, 0
1, 0, Time_signature, 2, 2, 24, 8
1, 0, Key_signature, -3, "major"
1, 0, Tempo, 542986
1, 0, Marker_t, "Part 1"
1, 480, Tempo, 585366
1, 960, Tempo, 533333
1, 1440, Tempo, 576923
1, 1920, Tempo, 538117
1, 2400, Tempo, 571429
1, 2880, Tempo, 545455
1, 3120, Tempo, 579710
1, 3360, Tempo, 558140
1, 3840, Tempo, 542986
1, 4800, Tempo, 535714
1, 5280, Tempo, 566038
1, 5760, Tempo, 530973
1, 6240, Tempo, 552995
1, 6480, Tempo, 566038
1, 6720, Tempo, 530973
1, 7200, Tempo, 538117
1, 7920, Tempo, 568720
1, 8160, Tempo, 555556
1, 8640, Tempo, 568720
1, 9600, Tempo, 519706
1, 10080, Tempo, 576923
1, 10560, Tempo, 519706
1, 11040, Tempo, 576923
1, 11520, Tempo, 519706
1, 12000, Tempo, 560748
1, 12480, Tempo, 550459
1, 12720, Tempo, 579710
1, 12960, Tempo, 528541
1, 13080, Tempo, 530786
1, 13200, Tempo, 533049
1, 13320, Tempo, 535332
1, 13440, Tempo, 537634
1, 13560, Tempo, 539957
1, 13680, Tempo, 542348
1, 13800, Tempo, 544712
1, 13920, Tempo, 547096
1, 14040, Tempo, 549501
1, 14160, Tempo, 551927
1, 14280, Tempo, 554375
1, 14400, Tempo, 533049
1, 14880, Tempo, 524109
1, 15120, Tempo, 574823
1, 15360, Tempo, 533049
1, 15840, Tempo, 544712
1, 16800, Tempo, 574823
1, 17040, Tempo, 642949
1, 17760, Tempo, 512821
1, 19200, Tempo, 517241
1, 19680, Tempo, 547096
1, 21120, Tempo, 569584
1, 21140, Tempo, 569584
1, 21260, Tempo, 572191
1, 21360, Tempo, 574823
1, 21460, Tempo, 577478
1, 21580, Tempo, 580159
1, 21680, Tempo, 582864
1, 21780, Tempo, 585594
1, 21840, Tempo, 670616
1, 22080, Tempo, 519706
1, 22560, Tempo, 512821
1, 24000, Tempo, 519481
1, 24480, Tempo, 528541
1, 24960, Tempo, 539957
1, 26400, Tempo, 626828
1, 26880, Tempo, 519706
1, 27360, Tempo, 515021
1, 28800, Tempo, 535714
1, 29280, Tempo, 535714
1, 30720, Tempo, 555556
1, 31200, Tempo, 596837
1, 32160, Tempo, 512821
1, 33600, Tempo, 559336
1, 34080, Tempo, 537634
1, 34560, Tempo, 549501
1, 35520, Tempo, 567001
1, 36000, Tempo, 608458
1, 36480, Tempo, 519706
1, 38400, Tempo, 547096
1, 38880, Tempo, 596837
1, 39360, Tempo, 519706
1, 39840, Tempo, 588235
1, 40320, Tempo, 519706
1, 40800, Tempo, 579710
1, 41280, Tempo, 555556
1, 41520, Tempo, 576923
1, 41760, Tempo, 566038
1, 42240, Tempo, 547945
1, 43680, Tempo, 558140
1, 43920, Tempo, 588235
1, 44160, Tempo, 533333
1, 44640, Tempo, 547945
1, 44880, Tempo, 582524
1, 45120, Tempo, 530973
1, 45600, Tempo, 538117
1, 46080, Tempo, 552995
1, 46540, Tempo, 538117
1, 47040, Tempo, 552995
1, 47180, Tempo, 555556
1, 47320, Tempo, 558140
1, 47440, Tempo, 560748
1, 47580, Tempo, 563380
1, 47700, Tempo, 566038
1, 47840, Tempo, 568720
1, 47960, Tempo, 571429
1, 48000, Tempo, 521739
1, 48480, Tempo, 545455
1, 48720, Tempo, 563380
1, 48960, Tempo, 519706
1, 49440, Tempo, 545455
1, 49680, Tempo, 560748
1, 49920, Tempo, 519706
1, 50400, Tempo, 530786
1, 51360, Tempo, 551927
1, 51840, Tempo, 580159
1, 52320, Tempo, 620604
1, 52800, Tempo, 533049
1, 53280, Tempo, 524109
1, 53520, Tempo, 574823
1, 53760, Tempo, 533049
1, 54240, Tempo, 563380
1, 55200, Tempo, 600000
1, 55440, Tempo, 670616
1, 56160, Tempo, 521739
1, 56640, Tempo, 579710
1, 57120, Tempo, 641711
1, 57600, Tempo, 600000
1, 61440, Tempo, 564759
1, 61440, Marker_t, "Part 2"
1, 65040, Tempo, 585080
1, 65280, Tempo, 564759
1, 68880, Tempo, 587774
1, 69120, Tempo, 564759
1, 71040, Tempo, 557465
1, 72720, Tempo, 598623
1, 72960, Tempo, 547945
1, 73280, Tempo, 588235
1, 73440, Tempo, 555556
1, 73920, Tempo, 547945
1, 74240, Tempo, 585366
1, 74400, Tempo, 555556
1, 74880, Tempo, 545455
1, 75200, Tempo, 557465
1, 75360, Tempo, 545455
1, 75520, Tempo, 519481
1, 75840, Tempo, 528634
1, 76320, Tempo, 564759
1, 76560, Tempo, 601383
1, 76800, Tempo, 547945
1, 77120, Tempo, 524017
1, 77760, Tempo, 535714
1, 78080, Tempo, 550408
1, 78240, Tempo, 526316
1, 78680, Tempo, 535714
1, 78760, Tempo, 538117
1, 78800, Tempo, 540541
1, 78840, Tempo, 542986
1, 78920, Tempo, 545455
1, 78960, Tempo, 547945
1, 79000, Tempo, 550459
1, 79040, Tempo, 552995
1, 79120, Tempo, 555556
1, 79160, Tempo, 558140
1, 79200, Tempo, 560748
1, 79240, Tempo, 563380
1, 79320, Tempo, 566038
1, 79360, Tempo, 568720
1, 79400, Tempo, 571429
1, 79440, Tempo, 574163
1, 79480, Tempo, 577312
1, 79520, Tempo, 615637
1, 79680, Tempo, 593178
1, 80160, Tempo, 691005
1, 80184, Tempo, 638298
1, 80400, Tempo, 714286
1, 80640, Tempo, 628272
1, 84480, Tempo, 579710
1, 85920, Tempo, 645161
1, 88200, Tempo, 582524
1, 88320, Key_signature, -4, "major"
1, 88320, Tempo, 582524
1, 88320, Marker_t, "Part 3"
1, 89160, Tempo, 566038
1, 89280, Tempo, 566038
1, 90960, Tempo, 597015
1, 91080, Tempo, 545455
1, 91200, Tempo, 545455
1, 93960, Tempo, 552995
1, 95040, Tempo, 576923
1, 95120, Tempo, 579710
1, 95200, Tempo, 582524
1, 95280, Tempo, 585366
1, 95340, Tempo, 588235
1, 95420, Tempo, 591133
1, 95500, Tempo, 594059
1, 95520, Tempo, 612245
1, 95880, Tempo, 582524
1, 96000, Tempo, 568720
1, 96840, Tempo, 566038
1, 96960, Tempo, 566038
1, 97440, Tempo, 585366
1, 97920, Tempo, 588235
1, 98640, Tempo, 621762
1, 98760, Tempo, 558140
1, 99720, Tempo, 545455
1, 101640, Tempo, 552995
1, 102720, Tempo, 576923
1, 102800, Tempo, 579710
1, 102880, Tempo, 582524
1, 102960, Tempo, 585366
1, 103020, Tempo, 588235
1, 103100, Tempo, 591133
1, 103180, Tempo, 594059
1, 103240, Tempo, 597015
1, 103320, Tempo, 600000
1, 103400, Tempo, 603015
1, 103460, Tempo, 606061
1, 103540, Tempo, 609137
1, 103620, Tempo, 612245
1, 103680, Tempo, 563380
1, 104400, Tempo, 579710
1, 104640, Tempo, 563380
1, 105600, Tempo, 591133
1, 106080, Tempo, 645161
1, 106320, Tempo, 652174
1, 106560, Tempo, 597015
1, 107520, Tempo, 588235
1, 108460, Tempo, 574163
1, 108480, Tempo, 585366
1, 108620, Tempo, 582524
1, 108740, Tempo, 579710
1, 108880, Tempo, 576923
1, 109000, Tempo, 574163
1, 109120, Tempo, 571429
1, 109260, Tempo, 568720
1, 109380, Tempo, 566038
1, 109520, Tempo, 563380
1, 109640, Tempo, 560748
1, 109760, Tempo, 558140
1, 109900, Tempo, 555556
1, 110020, Tempo, 552995
1, 110160, Tempo, 550459
1, 110280, Tempo, 547945
1, 110400, Tempo, 566038
1, 110520, Tempo, 568720
1, 110640, Tempo, 571429
1, 110760, Tempo, 574163
1, 111120, Tempo, 652174
1, 111240, Tempo, 560748
1, 112080, Tempo, 576923
1, 112320, Tempo, 550459
1, 112800, Tempo, 594059
1, 113160, Tempo, 563380
1, 113280, Tempo, 568720
1, 114000, Tempo, 621762
1, 114120, Tempo, 545455
1, 114240, Tempo, 545455
1, 117000, Tempo, 552995
1, 118080, Tempo, 576923
1, 118160, Tempo, 579710
1, 118240, Tempo, 582524
1, 118320, Tempo, 585366
1, 118380, Tempo, 588235
1, 118460, Tempo, 591133
1, 118540, Tempo, 594059
1, 118560, Tempo, 600000
1, 118920, Tempo, 582524
1, 119040, Tempo, 568720
1, 120000, Tempo, 566038
1, 120480, Tempo, 574163
1, 120960, Tempo, 582524
1, 121920, Tempo, 628272
1, 122400, Tempo, 600000
1, 122880, Tempo, 591133
1, 124800, Tempo, 648649
1, 125280, Tempo, 736196
1, 126720, Key_signature, -3, "major"
1, 126720, Tempo, 585366
1, 126720, Marker_t, "Part 4"
1, 127040, Tempo, 612245
1, 127200, Tempo, 591133
1, 127680, Tempo, 582524
1, 128000, Tempo, 603015
1, 128160, Tempo, 597015
1, 128480, Tempo, 606061
1, 128640, Tempo, 588235
1, 128960, Tempo, 615385
1, 129120, Tempo, 594059
1, 129600, Tempo, 606061
1, 130080, Tempo, 652174
1, 130560, Tempo, 588235
1, 131520, Tempo, 579710
1, 132480, Tempo, 588235
1, 133200, Tempo, 631579
1, 133440, Tempo, 585366
1, 133920, Tempo, 609137
1, 134400, Tempo, 585366
1, 135200, Tempo, 618557
1, 135360, Tempo, 585366
1, 136160, Tempo, 625000
1, 136320, Tempo, 585366
1, 137120, Tempo, 641711
1, 137280, Tempo, 585366
1, 137760, Tempo, 585366
1, 138240, Tempo, 560748
1, 138560, Tempo, 594059
1, 138720, Tempo, 585366
1, 139200, Tempo, 563380
1, 139520, Tempo, 603015
1, 139680, Tempo, 585366
1, 140180, Tempo, 600000
1, 140500, Tempo, 557465
1, 140640, Tempo, 542986
1, 140820, Tempo, 530973
1, 141140, Tempo, 552741
1, 141620, Tempo, 564759
1, 141860, Tempo, 601383
1, 142080, Tempo, 588235
1, 142400, Tempo, 545455
1, 143040, Tempo, 569746
1, 143360, Tempo, 535714
1, 144000, Tempo, 533333
1, 144060, Tempo, 535714
1, 144100, Tempo, 538117
1, 144140, Tempo, 540541
1, 144200, Tempo, 542986
1, 144240, Tempo, 545455
1, 144280, Tempo, 547945
1, 144340, Tempo, 550459
1, 144380, Tempo, 552995
1, 144420, Tempo, 555556
1, 144480, Tempo, 558140
1, 144520, Tempo, 560748
1, 144560, Tempo, 563380
1, 144620, Tempo, 566038
1, 144660, Tempo, 568720
1, 144700, Tempo, 571429
1, 144740, Tempo, 574163
1, 144760, Tempo, 577312
1, 144800, Tempo, 615637
1, 144960, Tempo, 652174
1, 145440, Tempo, 701754
1, 145900, Tempo, 585366
1, 145920, Tempo, 582524
1, 145920, Marker_t, "Part 5"
1, 146880, Tempo, 568720
1, 147840, Tempo, 560748
1, 149760, Tempo, 547945
1, 153600, Tempo, 555556
1, 154560, Tempo, 566038
1, 155040, Tempo, 579710
1, 155520, Tempo, 550459
1, 157440, Tempo, 540541
1, 158400, Tempo, 558140
1, 159360, Tempo, 579710
1, 159840, Tempo, 609137
1, 160560, Tempo, 585366
1, 161520, Tempo, 547945
1, 162480, Tempo, 535714
1, 163200, Tempo, 550459
1, 164160, Tempo, 582524
1, 165120, Tempo, 600000
1, 165360, Tempo, 563380
1, 166320, Tempo, 547945
1, 167280, Tempo, 535714
1, 168000, Tempo, 550459
1, 168960, Tempo, 568720
1, 169920, Tempo, 585366
1, 170160, Tempo, 555556
1, 171120, Tempo, 547945
1, 172080, Tempo, 535714
1, 172800, Tempo, 550459
1, 176640, Tempo, 521739
1, 176640, Marker_t, "Part 6"
1, 178560, Tempo, 563380
1, 179040, Tempo, 563380
1, 180000, Tempo, 535714
1, 180960, Tempo, 552995
1, 181440, Tempo, 521739
1, 183360, Tempo, 550459
1, 184320, Tempo, 560748
1, 185280, Tempo, 597015
1, 185760, Tempo, 641711
1, 186240, Tempo, 521739
1, 188160, Tempo, 535714
1, 188640, Tempo, 555556
1, 190080, Tempo, 574163
1, 190560, Tempo, 615385
1, 191040, Tempo, 521739
1, 193440, Tempo, 533333
1, 193920, Tempo, 533333
1, 194400, Tempo, 533333
1, 194860, Tempo, 542986
1, 195360, Tempo, 555556
1, 195840, Tempo, 521739
1, 197040, Tempo, 545455
1, 197280, Tempo, 521739
1, 198960, Tempo, 545455
1, 199200, Tempo, 521739
1, 201120, Tempo, 528634
1, 202080, Tempo, 521739
1, 203040, Tempo, 530973
1, 205360, Tempo, 552995
1, 205440, Tempo, 545455
1, 206400, Tempo, 558140
1, 207120, Tempo, 597015
1, 207360, Tempo, 547096
1, 207360, Marker_t, "Part 7"
1, 207840, Tempo, 596837
1, 208320, Tempo, 519706
1, 208800, Tempo, 588235
1, 209280, Tempo, 519706
1, 209760, Tempo, 579710
1, 210240, Tempo, 547945
1, 210480, Tempo, 591133
1, 210720, Tempo, 582524
1, 211200, Tempo, 576923
1, 211680, Tempo, 568720
1, 212160, Tempo, 558140
1, 212620, Tempo, 571429
1, 212880, Tempo, 588235
1, 213120, Tempo, 533333
1, 213600, Tempo, 566038
1, 213840, Tempo, 582524
1, 214080, Tempo, 530973
1, 214560, Tempo, 538117
1, 215040, Tempo, 560748
1, 215520, Tempo, 538117
1, 216000, Tempo, 552995
1, 216140, Tempo, 555556
1, 216280, Tempo, 558140
1, 216400, Tempo, 560748
1, 216540, Tempo, 563380
1, 216660, Tempo, 566038
1, 216800, Tempo, 568720
1, 216920, Tempo, 571429
1, 216960, Tempo, 519706
1, 217680, Tempo, 563380
1, 217920, Tempo, 519706
1, 218640, Tempo, 560748
1, 218880, Tempo, 519706
1, 219360, Tempo, 530786
1, 219840, Tempo, 538117
1, 220320, Tempo, 551927
1, 220800, Tempo, 580159
1, 221280, Tempo, 620604
1, 221760, Tempo, 533049
1, 222240, Tempo, 547945
1, 222480, Tempo, 574823
1, 222720, Tempo, 533049
1, 223200, Tempo, 574163
1, 223680, Tempo, 545455
1, 224160, Tempo, 568720
1, 224640, Tempo, 571429
1, 225120, Tempo, 606061
1, 225600, Tempo, 621762
1, 226560, Tempo, 521739
1, 226960, Marker_t, "Coda"
1, 230280, Tempo, 550459
1, 230400, Tempo, 555556
1, 231360, Tempo, 521739
1, 235080, Tempo, 550459
1, 235200, Tempo, 533333
1, 237120, Tempo, 497925
1, 237160, Tempo, 495868
1, 237540, Tempo, 493827
1, 237900, Tempo, 491803
1, 238260, Tempo, 489796
1, 238620, Tempo, 487805
1, 239000, Tempo, 485830
1, 239360, Tempo, 483871
1, 239720, Tempo, 481928
1, 240080, Tempo, 480000
1, 240460, Tempo, 478088
1, 240820, Tempo, 476190
1, 241180, Tempo, 474308
1, 241540, Tempo, 472441
1, 241900, Tempo, 470588
1, 242880, Tempo, 504202
1, 244800, Tempo, 533333
1, 245760, Tempo, 574163
1, 246240, Tempo, 591133
1, 246480, Tempo, 666667
1, 246720, Tempo, 689655
1, 247200, Tempo, 606061
1, 249600, Tempo, 648649
1, 250080, Tempo, 727273
1, 251520, Marker_t, "Fine"
1, 251520, End_track
2, 0, Start_track
2, 0, Title_t, "Piano right"
2, 0, Program_c, 0, 0
2, 0, Control_c, 0, 7, 100
2, 0, Control_c, 0, 10, 64
2, 0, Control_c, 0, 91, 127
2, 0, Note_on_c, 0, 67, 79
2, 0, Note_on_c, 0, 70, 79
2, 0, Note_on_c, 0, 75, 79
2, 0, Note_on_c, 0, 79, 88
2, 0, Text_t, "bdca426d104a26ac9dcb070447587523"
2, 0, Control_c, 0, 91, 127
2, 0, Control_c, 0, 64, 0
2, 480, Note_on_c, 0, 79, 0
2, 480, Note_on_c, 0, 67, 0
2, 480, Note_on_c, 0, 70, 0
2, 480, Note_on_c, 0, 75, 0
2, 480, Note_on_c, 0, 65, 62
2, 480, Note_on_c, 0, 70, 62
2, 480, Note_on_c, 0, 74, 62
2, 480, Note_on_c, 0, 77, 70
2, 600, Note_on_c, 0, 77, 0
2, 600, Note_on_c, 0, 65, 0
2, 600, Note_on_c, 0, 70, 0
2, 600, Note_on_c, 0, 74, 0
2, 720, Note_on_c, 0, 75, 62
2, 720, Note_on_c, 0, 67, 62
2, 720, Note_on_c, 0, 70, 62
2, 720, Note_on_c, 0, 79, 70
2, 840, Note_on_c, 0, 79, 0
2, 840, Note_on_c, 0, 75, 0
2, 840, Note_on_c, 0, 67, 0
2, 840, Note_on_c, 0, 70, 0
2, 960, Note_on_c, 0, 68, 79
2, 960, Note_on_c, 0, 72, 79
2, 960, Note_on_c, 0, 80, 88
2, 960, Note_on_c, 0, 75, 79
2, 1440, Note_on_c, 0, 75, 0
2, 1440, Note_on_c, 0, 68, 0
2, 1440, Note_on_c, 0, 72, 0
2, 1440, Note_on_c, 0, 80, 0
2, 1440, Note_on_c, 0, 75, 62
2, 1440, Note_on_c, 0, 70, 62
2, 1440, Note_on_c, 0, 67, 62
2, 1440, Note_on_c, 0, 79, 70
2, 1560, Note_on_c, 0, 79, 0
2, 1560, Note_on_c, 0, 75, 0
2, 1560, Note_on_c, 0, 70, 0
2, 1560, Note_on_c, 0, 67, 0
2, 1680, Note_on_c, 0, 65, 63
2, 1680, Note_on_c, 0, 72, 63
2, 1680, Note_on_c, 0, 77, 71
2, 1680, Note_on_c, 0, 75, 63
2, 1800, Note_on_c, 0, 75, 0
2, 1800, Note_on_c, 0, 65, 0
2, 1800, Note_on_c, 0, 72, 0
2, 1800, Note_on_c, 0, 77, 0
2, 1920, Note_on_c, 0, 70, 75
2, 1920, Note_on_c, 0, 67, 75
2, 1920, Note_on_c, 0, 75, 75
2, 1920, Note_on_c, 0, 79, 84
2, 2400, Note_on_c, 0, 79, 0
2, 2400, Note_on_c, 0, 70, 0
2, 2400, Note_on_c, 0, 67, 0
2, 2400, Note_on_c, 0, 75, 0
2, 2400, Note_on_c, 0, 65, 60
2, 2400, Note_on_c, 0, 77, 68
2, 2400, Note_on_c, 0, 68, 60
2, 2400, Note_on_c, 0, 74, 60
2, 2520, Note_on_c, 0, 74, 0
2, 2520, Note_on_c, 0, 65, 0
2, 2520, Note_on_c, 0, 77, 0
2, 2520, Note_on_c, 0, 68, 0
2, 2640, Note_on_c, 0, 67, 57
2, 2640, Note_on_c, 0, 63, 57
2, 2640, Note_on_c, 0, 70, 57
2, 2640, Note_on_c, 0, 75, 63
2, 2760, Note_on_c, 0, 75, 0
2, 2760, Note_on_c, 0, 67, 0
2, 2760, Note_on_c, 0, 63, 0
2, 2760, Note_on_c, 0, 70, 0
2, 2880, Note_on_c, 0, 65, 60
2, 2880, Note_on_c, 0, 74, 60
2, 2880, Note_on_c, 0, 77, 68
2, 3000, Note_on_c, 0, 77, 0
2, 3000, Note_on_c, 0, 74, 0
2, 3000, Note_on_c, 0, 65, 0
2, 3120, Note_on_c, 0, 70, 63
2, 3240, Note_on_c, 0, 70, 0
2, 3360, Note_on_c, 0, 63, 70
2, 3360, Note_on_c, 0, 72, 70
2, 3360, Note_on_c, 0, 75, 79
2, 3840, Note_on_c, 0, 75, 0
2, 3840, Note_on_c, 0, 72, 0
2, 3840, Note_on_c, 0, 63, 0
2, 3840, Note_on_c, 0, 63, 67
2, 3840, Note_on_c, 0, 75, 74
2, 3840, Note_on_c, 0, 70, 67
2, 3840, Note_on_c, 0, 74, 74
2, 4320, Note_on_c, 0, 74, 0
2, 4320, Note_on_c, 0, 63, 0
2, 4320, Note_on_c, 0, 75, 0
2, 4320, Note_on_c, 0, 70, 0
2, 4320, Note_on_c, 0, 68, 67
2, 4320, Note_on_c, 0, 63, 67
2, 4320, Note_on_c, 0, 72, 67
2, 4320, Note_on_c, 0, 75, 74
2, 4740, Note_on_c, 0, 75, 0
2, 4740, Note_on_c, 0, 68, 0
2, 4740, Note_on_c, 0, 63, 0
2, 4740, Note_on_c, 0, 72, 0
2, 4800, Note_on_c, 0, 63, 67
2, 4800, Note_on_c, 0, 75, 74
2, 4800, Note_on_c, 0, 67, 67
2, 4800, Note_on_c, 0, 70, 67
2, 5280, Note_on_c, 0, 70, 0
2, 5280, Note_on_c, 0, 63, 0
2, 5280, Note_on_c, 0, 75, 0
2, 5280, Note_on_c, 0, 67, 0
2, 5280, Note_on_c, 0, 62, 62
2, 5280, Note_on_c, 0, 65, 62
2, 5280, Note_on_c, 0, 70, 62
2, 5280, Note_on_c, 0, 74, 70
2, 5400, Note_on_c, 0, 74, 0
2, 5400, Note_on_c, 0, 62, 0
2, 5400, Note_on_c, 0, 65, 0
2, 5400, Note_on_c, 0, 70, 0
2, 5520, Note_on_c, 0, 75, 70
2, 5520, Note_on_c, 0, 70, 62
2, 5520, Note_on_c, 0, 63, 62
2, 5520, Note_on_c, 0, 67, 62
2, 5640, Note_on_c, 0, 67, 0
2, 5640, Note_on_c, 0, 75, 0
2, 5640, Note_on_c, 0, 70, 0
2, 5640, Note_on_c, 0, 63, 0
2, 5760, Note_on_c, 0, 72, 72
2, 5760, Note_on_c, 0, 75, 72
2, 5760, Note_on_c, 0, 79, 81
2, 5760, Note_on_c, 0, 67, 72
2, 6240, Note_on_c, 0, 67, 0
2, 6240, Note_on_c, 0, 72, 0
2, 6240, Note_on_c, 0, 75, 0
2, 6240, Note_on_c, 0, 79, 0
2, 6240, Note_on_c, 0, 77, 69
2, 6240, Note_on_c, 0, 65, 61
2, 6240, Note_on_c, 0, 68, 61
2, 6240, Note_on_c, 0, 72, 61
2, 6360, Note_on_c, 0, 72, 0
2, 6360, Note_on_c, 0, 77, 0
2, 6360, Note_on_c, 0, 65, 0
2, 6360, Note_on_c, 0, 68, 0
2, 6480, Note_on_c, 0, 63, 61
2, 6480, Note_on_c, 0, 67, 61
2, 6480, Note_on_c, 0, 72, 61
2, 6480, Note_on_c, 0, 75, 69
2, 6600, Note_on_c, 0, 75, 0
2, 6600, Note_on_c, 0, 63, 0
2, 6600, Note_on_c, 0, 67, 0
2, 6600, Note_on_c, 0, 72, 0
2, 6720, Note_on_c, 0, 70, 69
2, 6720, Note_on_c, 0, 74, 78
2, 6720, Note_on_c, 0, 62, 69
2, 6720, Note_on_c, 0, 67, 69
2, 7200, Note_on_c, 0, 67, 0
2, 7200, Note_on_c, 0, 70, 0
2, 7200, Note_on_c, 0, 74, 0
2, 7200, Note_on_c, 0, 62, 0
2, 7200, Note_on_c, 0, 60, 64
2, 7200, Note_on_c, 0, 63, 64
2, 7200, Note_on_c, 0, 67, 64
2, 7200, Note_on_c, 0, 72, 72
2, 7320, Note_on_c, 0, 72, 0
2, 7320, Note_on_c, 0, 60, 0
2, 7320, Note_on_c, 0, 63, 0
2, 7320, Note_on_c, 0, 67, 0
2, 7440, Note_on_c, 0, 70, 70
2, 7440, Note_on_c, 0, 58, 62
2, 7440, Note_on_c, 0, 62, 62
2, 7440, Note_on_c, 0, 67, 62
2, 7560, Note_on_c, 0, 67, 0
2, 7560, Note_on_c, 0, 70, 0
2, 7560, Note_on_c, 0, 58, 0
2, 7560, Note_on_c, 0, 62, 0
2, 7680, Note_on_c, 0, 57, 61
2, 7680, Note_on_c, 0, 66, 61
2, 7680, Note_on_c, 0, 69, 69
2, 7800, Note_on_c, 0, 69, 0
2, 7800, Note_on_c, 0, 66, 0
2, 7800, Note_on_c, 0, 57, 0
2, 7920, Note_on_c, 0, 62, 66
2, 8040, Note_on_c, 0, 62, 0
2, 8160, Note_on_c, 0, 55, 68
2, 8160, Note_on_c, 0, 67, 75
2, 8640, Note_on_c, 0, 67, 0
2, 8640, Note_on_c, 0, 55, 0
2, 8640, Note_on_c, 0, 55, 68
2, 8640, Note_on_c, 0, 66, 68
2, 8640, Note_on_c, 0, 67, 75
2, 9120, Note_on_c, 0, 67, 0
2, 9120, Note_on_c, 0, 66, 0
2, 9120, Note_on_c, 0, 55, 0
2, 9120, Note_on_c, 0, 55, 67
2, 9120, Note_on_c, 0, 65, 67
2, 9120, Note_on_c, 0, 67, 74
2, 9540, Note_on_c, 0, 67, 0
2, 9540, Note_on_c, 0, 65, 0
2, 9540, Note_on_c, 0, 55, 0
2, 9600, Note_on_c, 0, 67, 79
2, 9600, Note_on_c, 0, 79, 88
2, 9600, Note_on_c, 0, 70, 79
2, 9600, Note_on_c, 0, 75, 79
2, 9600, Control_c, 0, 91, 127
2, 10080, Note_on_c, 0, 75, 0
2, 10080, Note_on_c, 0, 67, 0
2, 10080, Note_on_c, 0, 79, 0
2, 10080, Note_on_c, 0, 70, 0
2, 10080, Note_on_c, 0, 77, 72
2, 10080, Note_on_c, 0, 74, 64
2, 10080, Note_on_c, 0, 65, 64
2, 10080, Note_on_c, 0, 70, 64
2, 10200, Note_on_c, 0, 70, 0
2, 10200, Note_on_c, 0, 77, 0
2, 10200, Note_on_c, 0, 74, 0
2, 10200, Note_on_c, 0, 65, 0
2, 10320, Note_on_c, 0, 67, 64
2, 10320, Note_on_c, 0, 70, 64
2, 10320, Note_on_c, 0, 75, 64
2, 10320, Note_on_c, 0, 79, 72
2, 10440, Note_on_c, 0, 79, 0
2, 10440, Note_on_c, 0, 67, 0
2, 10440, Note_on_c, 0, 70, 0
2, 10440, Note_on_c, 0, 75, 0
2, 10560, Note_on_c, 0, 80, 88
2, 10560, Note_on_c, 0, 68, 79
2, 10560, Note_on_c, 0, 72, 79
2, 10560, Note_on_c, 0, 75, 79
2, 11040, Note_on_c, 0, 75, 0
2, 11040, Note_on_c, 0, 80, 0
2, 11040, Note_on_c, 0, 68, 0
2, 11040, Note_on_c, 0, 72, 0
2, 11040, Note_on_c, 0, 67, 62
2, 11040, Note_on_c, 0, 70, 62
2, 11040, Note_on_c, 0, 75, 70
2, 11040, Note_on_c, 0, 79, 70
2, 11160, Note_on_c, 0, 79, 0
2, 11160, Note_on_c, 0, 67, 0
2, 11160, Note_on_c, 0, 70, 0
2, 11160, Note_on_c, 0, 75, 0
2, 11280, Note_on_c, 0, 75, 70
2, 11280, Note_on_c, 0, 72, 62
2, 11280, Note_on_c, 0, 77, 70
2, 11280, Note_on_c, 0, 65, 62
2, 11400, Note_on_c, 0, 65, 0
2, 11400, Note_on_c, 0, 75, 0
2, 11400, Note_on_c, 0, 72, 0
2, 11400, Note_on_c, 0, 77, 0
2, 11520, Note_on_c, 0, 67, 77
2, 11520, Note_on_c, 0, 70, 77
2, 11520, Note_on_c, 0, 75, 77
2, 11520, Note_on_c, 0, 79, 85
2, 12000, Note_on_c, 0, 79, 0
2, 12000, Note_on_c, 0, 67, 0
2, 12000, Note_on_c, 0, 70, 0
2, 12000, Note_on_c, 0, 75, 0
2, 12000, Note_on_c, 0, 77, 72
2, 12000, Note_on_c, 0, 65, 64
2, 12000, Note_on_c, 0, 68, 64
2, 12000, Note_on_c, 0, 74, 64
2, 12120, Note_on_c, 0, 74, 0
2, 12120, Note_on_c, 0, 77, 0
2, 12120, Note_on_c, 0, 65, 0
2, 12120, Note_on_c, 0, 68, 0
2, 12240, Note_on_c, 0, 63, 62
2, 12240, Note_on_c, 0, 67, 62
2, 12240, Note_on_c, 0, 70, 62
2, 12240, Note_on_c, 0, 75, 70
2, 12360, Note_on_c, 0, 75, 0
2, 12360, Note_on_c, 0, 63, 0
2, 12360, Note_on_c, 0, 67, 0
2, 12360, Note_on_c, 0, 70, 0
2, 12480, Note_on_c, 0, 77, 68
2, 12480, Note_on_c, 0, 74, 60
2, 12480, Note_on_c, 0, 65, 60
2, 12600, Note_on_c, 0, 65, 0
2, 12600, Note_on_c, 0, 74, 0
2, 12600, Note_on_c, 0, 77, 0
2, 12720, Note_on_c, 0, 70, 66
2, 12840, Note_on_c, 0, 70, 0
2, 12960, Note_on_c, 0, 63, 74
2, 12960, Note_on_c, 0, 75, 83
2, 13440, Note_on_c, 0, 75, 0
2, 13440, Note_on_c, 0, 63, 0
2, 13440, Note_on_c, 0, 73, 78
2, 13440, Note_on_c, 0, 63, 78
2, 13440, Note_on_c, 0, 75, 86
2, 13920, Note_on_c, 0, 75, 0
2, 13920, Note_on_c, 0, 63, 0
2, 13920, Note_on_c, 0, 73, 0
2, 13920, Note_on_c, 0, 71, 83
2, 13920, Note_on_c, 0, 63, 83
2, 13920, Note_on_c, 0, 75, 93
2, 14370, Note_on_c, 0, 75, 0
2, 14370, Note_on_c, 0, 63, 0
2, 14370, Note_on_c, 0, 71, 0
2, 14400, Note_on_c, 0, 87, 101
2, 14400, Note_on_c, 0, 82, 90
2, 14400, Note_on_c, 0, 75, 90
2, 14400, Note_on_c, 0, 78, 90
2, 14880, Note_on_c, 0, 78, 0
2, 14880, Note_on_c, 0, 87, 0
2, 14880, Note_on_c, 0, 82, 0
2, 14880, Note_on_c, 0, 75, 0
2, 14880, Note_on_c, 0, 78, 83
2, 14880, Note_on_c, 0, 82, 83
2, 14880, Note_on_c, 0, 86, 93
2, 14880, Note_on_c, 0, 74, 83
2, 15120, Note_on_c, 0, 74, 0
2, 15120, Note_on_c, 0, 78, 0
2, 15120, Note_on_c, 0, 82, 0
2, 15120, Note_on_c, 0, 86, 0
2, 15120, Note_on_c, 0, 87, 90
2, 15120, Note_on_c, 0, 82, 80
2, 15120, Note_on_c, 0, 78, 80
2, 15120, Note_on_c, 0, 75, 80
2, 15360, Note_on_c, 0, 75, 0
2, 15360, Note_on_c, 0, 87, 0
2, 15360, Note_on_c, 0, 82, 0
2, 15360, Note_on_c, 0, 78, 0
2, 15360, Note_on_c, 0, 78, 85
2, 15360, Note_on_c, 0, 83, 95
2, 15360, Note_on_c, 0, 75, 85
2, 15360, Note_on_c, 0, 71, 85
2, 15840, Note_on_c, 0, 71, 0
2, 15840, Note_on_c, 0, 78, 0
2, 15840, Note_on_c, 0, 83, 0
2, 15840, Note_on_c, 0, 75, 0
2, 15840, Note_on_c, 0, 82, 86
2, 15840, Note_on_c, 0, 70, 78
2, 15840, Note_on_c, 0, 78, 78
2, 15840, Note_on_c, 0, 75, 78
2, 16080, Note_on_c, 0, 75, 0
2, 16080, Note_on_c, 0, 82, 0
2, 16080, Note_on_c, 0, 70, 0
2, 16080, Note_on_c, 0, 78, 0
2, 16080, Note_on_c, 0, 78, 77
2, 16080, Note_on_c, 0, 83, 85
2, 16080, Note_on_c, 0, 75, 77
2, 16080, Note_on_c, 0, 71, 77
2, 16320, Note_on_c, 0, 71, 0
2, 16320, Note_on_c, 0, 78, 0
2, 16320, Note_on_c, 0, 83, 0
2, 16320, Note_on_c, 0, 75, 0
2, 16320, Note_on_c, 0, 80, 92
2, 16320, Note_on_c, 0, 68, 82
2, 16320, Note_on_c, 0, 75, 82
2, 16320, Note_on_c, 0, 71, 82
2, 16800, Note_on_c, 0, 71, 0
2, 16800, Note_on_c, 0, 80, 0
2, 16800, Note_on_c, 0, 68, 0
2, 16800, Note_on_c, 0, 75, 0
2, 16800, Note_on_c, 0, 79, 83
2, 16800, Note_on_c, 0, 75, 74
2, 16800, Note_on_c, 0, 71, 74
2, 16800, Note_on_c, 0, 67, 74
2, 17040, Note_on_c, 0, 67, 0
2, 17040, Note_on_c, 0, 79, 0
2, 17040, Note_on_c, 0, 75, 0
2, 17040, Note_on_c, 0, 71, 0
2, 17040, Note_on_c, 0, 68, 74
2, 17040, Note_on_c, 0, 71, 74
2, 17040, Note_on_c, 0, 80, 83
2, 17040, Note_on_c, 0, 75, 74
2, 17280, Note_on_c, 0, 75, 0
2, 17280, Note_on_c, 0, 68, 0
2, 17280, Note_on_c, 0, 71, 0
2, 17280, Note_on_c, 0, 80, 0
2, 17280, Note_on_c, 0, 66, 79
2, 17280, Note_on_c, 0, 69, 79
2, 17280, Note_on_c, 0, 72, 79
2, 17280, Note_on_c, 0, 78, 88
2, 17760, Note_on_c, 0, 78, 0
2, 17760, Note_on_c, 0, 66, 0
2, 17760, Note_on_c, 0, 69, 0
2, 17760, Note_on_c, 0, 72, 0
2, 17760, Note_on_c, 0, 77, 73
2, 17880, Note_on_c, 0, 77, 0
2, 17880, Note_on_c, 0, 74, 61
2, 18000, Note_on_c, 0, 74, 0
2, 18000, Note_on_c, 0, 70, 63
2, 18120, Note_on_c, 0, 70, 0
2, 18120, Note_on_c, 0, 69, 60
2, 18240, Note_on_c, 0, 69, 0
2, 18240, Note_on_c, 0, 74, 71
2, 18360, Note_on_c, 0, 74, 0
2, 18360, Note_on_c, 0, 70, 61
2, 18480, Note_on_c, 0, 70, 0
2, 18480, Note_on_c, 0, 65, 63
2, 18600, Note_on_c, 0, 65, 0
2, 18600, Note_on_c, 0, 64, 61
2, 18720, Note_on_c, 0, 64, 0
2, 18720, Note_on_c, 0, 70, 70
2, 18840, Note_on_c, 0, 70, 0
2, 18840, Note_on_c, 0, 65, 61
2, 18960, Note_on_c, 0, 65, 0
2, 18960, Note_on_c, 0, 62, 63
2, 19080, Note_on_c, 0, 62, 0
2, 19080, Note_on_c, 0, 60, 61
2, 19200, Note_on_c, 0, 60, 0
2, 22560, Note_on_c, 0, 89, 64
2, 22680, Note_on_c, 0, 89, 0
2, 22680, Note_on_c, 0, 86, 59
2, 22800, Note_on_c, 0, 86, 0
2, 22800, Note_on_c, 0, 82, 61
2, 22920, Note_on_c, 0, 82, 0
2, 22920, Note_on_c, 0, 81, 60
2, 23040, Note_on_c, 0, 81, 0
2, 23040, Note_on_c, 0, 86, 64
2, 23160, Note_on_c, 0, 86, 0
2, 23160, Note_on_c, 0, 82, 58
2, 23280, Note_on_c, 0, 82, 0
2, 23280, Note_on_c, 0, 77, 58
2, 23400, Note_on_c, 0, 77, 0
2, 23400, Note_on_c, 0, 76, 58
2, 23520, Note_on_c, 0, 76, 0
2, 23520, Note_on_c, 0, 82, 60
2, 23640, Note_on_c, 0, 82, 0
2, 23640, Note_on_c, 0, 77, 56
2, 23760, Note_on_c, 0, 77, 0
2, 23760, Note_on_c, 0, 74, 56
2, 23880, Note_on_c, 0, 74, 0
2, 23880, Note_on_c, 0, 72, 56
2, 24000, Note_on_c, 0, 72, 0
2, 24000, Note_on_c, 0, 70, 66
2, 24480, Note_on_c, 0, 70, 0
2, 24480, Note_on_c, 0, 70, 68
2, 24480, Note_on_c, 0, 67, 60
2, 24960, Note_on_c, 0, 67, 0
2, 24960, Note_on_c, 0, 70, 0
2, 24960, Note_on_c, 0, 63, 63
2, 24960, Note_on_c, 0, 67, 71
2, 24960, Note_on_c, 0, 70, 71
2, 25440, Note_on_c, 0, 70, 0
2, 25440, Note_on_c, 0, 67, 0
2, 25440, Note_on_c, 0, 63, 0
2, 25440, Note_on_c, 0, 72, 74
2, 25440, Note_on_c, 0, 60, 67
2, 25440, Note_on_c, 0, 63, 67
2, 25440, Note_on_c, 0, 67, 74
2, 25920, Note_on_c, 0, 67, 0
2, 25920, Note_on_c, 0, 72, 0
2, 25920, Note_on_c, 0, 60, 0
2, 25920, Note_on_c, 0, 63, 0
2, 25920, Note_on_c, 0, 60, 68
2, 25920, Note_on_c, 0, 63, 68
2, 25920, Note_on_c, 0, 68, 75
2, 25920, Note_on_c, 0, 72, 75
2, 26400, Note_on_c, 0, 72, 0
2, 26400, Note_on_c, 0, 60, 0
2, 26400, Note_on_c, 0, 63, 0
2, 26400, Note_on_c, 0, 68, 0
2, 26400, Note_on_c, 0, 72, 72
2, 26400, Note_on_c, 0, 77, 81
2, 26400, Note_on_c, 0, 65, 72
2, 26400, Note_on_c, 0, 68, 72
2, 26880, Note_on_c, 0, 68, 0
2, 26880, Note_on_c, 0, 72, 0
2, 26880, Note_on_c, 0, 77, 0
2, 26880, Note_on_c, 0, 65, 0
2, 26880, Note_on_c, 0, 62, 79
2, 26880, Note_on_c, 0, 67, 79
2, 26880, Note_on_c, 0, 71, 88
2, 26880, Note_on_c, 0, 74, 88
2, 27360, Note_on_c, 0, 86, 57
2, 27480, Note_on_c, 0, 86, 0
2, 27480, Note_on_c, 0, 83, 53
2, 27600, Note_on_c, 0, 83, 0
2, 27600, Note_on_c, 0, 79, 54
2, 27720, Note_on_c, 0, 79, 0
2, 27720, Note_on_c, 0, 78, 54
2, 27840, Note_on_c, 0, 78, 0
2, 27840, Note_on_c, 0, 83, 57
2, 27960, Note_on_c, 0, 83, 0
2, 27960, Note_on_c, 0, 79, 54
2, 28080, Note_on_c, 0, 79, 0
2, 28080, Note_on_c, 0, 74, 54
2, 28200, Note_on_c, 0, 74, 0
2, 28200, Note_on_c, 0, 73, 54
2, 28320, Note_on_c, 0, 73, 0
2, 28320, Note_on_c, 0, 79, 57
2, 28440, Note_on_c, 0, 79, 0
2, 28440, Note_on_c, 0, 74, 54
2, 28560, Note_on_c, 0, 74, 0
2, 28560, Note_on_c, 0, 71, 55
2, 28680, Note_on_c, 0, 71, 0
2, 28680, Note_on_c, 0, 69, 54
2, 28800, Note_on_c, 0, 69, 0
2, 28800, Note_on_c, 0, 74, 0
2, 28800, Note_on_c, 0, 62, 0
2, 28800, Note_on_c, 0, 67, 0
2, 28800, Note_on_c, 0, 71, 0
2, 28800, Note_on_c, 0, 67, 64
2, 29280, Note_on_c, 0, 67, 0
2, 29280, Note_on_c, 0, 65, 58
2, 29280, Note_on_c, 0, 67, 64
2, 29760, Note_on_c, 0, 67, 0
2, 29760, Note_on_c, 0, 65, 0
2, 29760, Note_on_c, 0, 63, 60
2, 29760, Note_on_c, 0, 67, 68
2, 30240, Note_on_c, 0, 67, 0
2, 30240, Note_on_c, 0, 63, 0
2, 30240, Note_on_c, 0, 65, 62
2, 30240, Note_on_c, 0, 62, 62
2, 30240, Note_on_c, 0, 67, 70
2, 30720, Note_on_c, 0, 67, 0
2, 30720, Note_on_c, 0, 62, 0
2, 30720, Note_on_c, 0, 65, 0
2, 30720, Note_on_c, 0, 60, 67
2, 30720, Note_on_c, 0, 63, 67
2, 30720, Note_on_c, 0, 67, 74
2, 31200, Note_on_c, 0, 67, 0
2, 31200, Note_on_c, 0, 63, 0
2, 31200, Note_on_c, 0, 60, 0
2, 31200, Note_on_c, 0, 69, 78
2, 31200, Note_on_c, 0, 63, 69
2, 31200, Note_on_c, 0, 60, 69
2, 31680, Note_on_c, 0, 60, 0
2, 31680, Note_on_c, 0, 63, 0
2, 31680, Note_on_c, 0, 69, 0
2, 31680, Note_on_c, 0, 58, 74
2, 31680, Note_on_c, 0, 62, 74
2, 31680, Note_on_c, 0, 70, 83
2, 32160, Note_on_c, 0, 89, 64
2, 32280, Note_on_c, 0, 89, 0
2, 32280, Note_on_c, 0, 86, 61
2, 32400, Note_on_c, 0, 86, 0
2, 32400, Note_on_c, 0, 82, 64
2, 32520, Note_on_c, 0, 82, 0
2, 32520, Note_on_c, 0, 81, 62
2, 32640, Note_on_c, 0, 81, 0
2, 32640, Note_on_c, 0, 86, 60
2, 32760, Note_on_c, 0, 86, 0
2, 32760, Note_on_c, 0, 82, 55
2, 32880, Note_on_c, 0, 82, 0
2, 32880, Note_on_c, 0, 77, 58
2, 33000, Note_on_c, 0, 77, 0
2, 33000, Note_on_c, 0, 76, 54
2, 33120, Note_on_c, 0, 76, 0
2, 33120, Note_on_c, 0, 82, 58
2, 33240, Note_on_c, 0, 82, 0
2, 33240, Note_on_c, 0, 77, 53
2, 33360, Note_on_c, 0, 77, 0
2, 33360, Note_on_c, 0, 74, 56
2, 33480, Note_on_c, 0, 74, 0
2, 33480, Note_on_c, 0, 72, 53
2, 33600, Note_on_c, 0, 72, 0
2, 33600, Note_on_c, 0, 70, 0
2, 33600, Note_on_c, 0, 62, 0
2, 33600, Note_on_c, 0, 58, 0
2, 33600, Note_on_c, 0, 70, 64
2, 34080, Note_on_c, 0, 70, 0
2, 34080, Note_on_c, 0, 66, 65
2, 34080, Note_on_c, 0, 70, 65
2, 34560, Note_on_c, 0, 70, 0
2, 34560, Note_on_c, 0, 66, 0
2, 34560, Note_on_c, 0, 66, 62
2, 34560, Note_on_c, 0, 63, 62
2, 34560, Note_on_c, 0, 70, 69
2, 35040, Note_on_c, 0, 70, 0
2, 35040, Note_on_c, 0, 63, 0
2, 35040, Note_on_c, 0, 66, 0
2, 35040, Note_on_c, 0, 66, 68
2, 35040, Note_on_c, 0, 63, 68
2, 35040, Note_on_c, 0, 71, 68
2, 35040, Note_on_c, 0, 75, 77
2, 35520, Note_on_c, 0, 75, 0
2, 35520, Note_on_c, 0, 66, 0
2, 35520, Note_on_c, 0, 63, 0
2, 35520, Note_on_c, 0, 71, 0
2, 35520, Note_on_c, 0, 63, 71
2, 35520, Note_on_c, 0, 75, 80
2, 35520, Note_on_c, 0, 68, 71
2, 35520, Note_on_c, 0, 71, 71
2, 36000, Note_on_c, 0, 71, 0
2, 36000, Note_on_c, 0, 63, 0
2, 36000, Note_on_c, 0, 75, 0
2, 36000, Note_on_c, 0, 68, 0
2, 36000, Note_on_c, 0, 71, 79
2, 36000, Note_on_c, 0, 68, 79
2, 36000, Note_on_c, 0, 76, 88
2, 36000, Note_on_c, 0, 80, 88
2, 36480, Note_on_c, 0, 80, 0
2, 36480, Note_on_c, 0, 71, 0
2, 36480, Note_on_c, 0, 68, 0
2, 36480, Note_on_c, 0, 76, 0
2, 36480, Note_on_c, 0, 66, 88
2, 36480, Note_on_c, 0, 78, 97
2, 36480, Note_on_c, 0, 71, 88
2, 36480, Note_on_c, 0, 75, 97
2, 36960, Note_on_c, 0, 83, 89
2, 36960, Note_on_c, 0, 87, 99
2, 36960, Note_on_c, 0, 75, 89
2, 37440, Note_on_c, 0, 75, 0
2, 37440, Note_on_c, 0, 83, 0
2, 37440, Note_on_c, 0, 78, 0
2, 37440, Note_on_c, 0, 71, 0
2, 37440, Note_on_c, 0, 66, 0
2, 37440, Note_on_c, 0, 87, 0
2, 37440, Note_on_c, 0, 75, 0
2, 37440, Note_on_c, 0, 82, 89
2, 37440, Note_on_c, 0, 75, 89
2, 37440, Note_on_c, 0, 87, 99
2, 37920, Note_on_c, 0, 87, 0
2, 37920, Note_on_c, 0, 75, 0
2, 37920, Note_on_c, 0, 82, 0
2, 37920, Note_on_c, 0, 75, 89
2, 37920, Note_on_c, 0, 87, 99
2, 37920, Note_on_c, 0, 81, 89
2, 38400, Note_on_c, 0, 81, 0
2, 38400, Note_on_c, 0, 87, 0
2, 38400, Note_on_c, 0, 75, 0
2, 38400, Control_c, 0, 91, 127
2, 38400, Note_on_c, 0, 87, 102
2, 38400, Note_on_c, 0, 82, 91
2, 38400, Note_on_c, 0, 79, 91
2, 38400, Note_on_c, 0, 75, 91
2, 38760, Note_on_c, 0, 75, 0
2, 38760, Note_on_c, 0, 87, 0
2, 38760, Note_on_c, 0, 82, 0
2, 38760, Note_on_c, 0, 79, 0
2, 38880, Note_on_c, 0, 70, 66
2, 38880, Note_on_c, 0, 65, 66
2, 38880, Note_on_c, 0, 74, 66
2, 38880, Note_on_c, 0, 77, 73
2, 39000, Note_on_c, 0, 77, 0
2, 39000, Note_on_c, 0, 70, 0
2, 39000, Note_on_c, 0, 65, 0
2, 39000, Note_on_c, 0, 74, 0
2, 39120, Note_on_c, 0, 67, 66
2, 39120, Note_on_c, 0, 79, 73
2, 39120, Note_on_c, 0, 70, 66
2, 39120, Note_on_c, 0, 75, 66
2, 39240, Note_on_c, 0, 75, 0
2, 39240, Note_on_c, 0, 67, 0
2, 39240, Note_on_c, 0, 79, 0
2, 39240, Note_on_c, 0, 70, 0
2, 39360, Note_on_c, 0, 72, 77
2, 39360, Note_on_c, 0, 68, 77
2, 39360, Note_on_c, 0, 75, 77
2, 39360, Note_on_c, 0, 80, 85
2, 39840, Note_on_c, 0, 80, 0
2, 39840, Note_on_c, 0, 72, 0
2, 39840, Note_on_c, 0, 68, 0
2, 39840, Note_on_c, 0, 75, 0
2, 39840, Note_on_c, 0, 67, 64
2, 39840, Note_on_c, 0, 79, 72
2, 39840, Note_on_c, 0, 70, 64
2, 39840, Note_on_c, 0, 75, 72
2, 39960, Note_on_c, 0, 75, 0
2, 39960, Note_on_c, 0, 67, 0
2, 39960, Note_on_c, 0, 79, 0
2, 39960, Note_on_c, 0, 70, 0
2, 40080, Note_on_c, 0, 65, 64
2, 40080, Note_on_c, 0, 72, 64
2, 40080, Note_on_c, 0, 77, 72
2, 40080, Note_on_c, 0, 75, 64
2, 40200, Note_on_c, 0, 75, 0
2, 40200, Note_on_c, 0, 65, 0
2, 40200, Note_on_c, 0, 72, 0
2, 40200, Note_on_c, 0, 77, 0
2, 40320, Note_on_c, 0, 79, 86
2, 40320, Note_on_c, 0, 75, 78
2, 40320, Note_on_c, 0, 67, 78
2, 40320, Note_on_c, 0, 70, 78
2, 40800, Note_on_c, 0, 70, 0
2, 40800, Note_on_c, 0, 79, 0
2, 40800, Note_on_c, 0, 75, 0
2, 40800, Note_on_c, 0, 67, 0
2, 40800, Note_on_c, 0, 65, 64
2, 40800, Note_on_c, 0, 68, 64
2, 40800, Note_on_c, 0, 74, 64
2, 40800, Note_on_c, 0, 77, 72
2, 40920, Note_on_c, 0, 77, 0
2, 40920, Note_on_c, 0, 65, 0
2, 40920, Note_on_c, 0, 68, 0
2, 40920, Note_on_c, 0, 74, 0
2, 41040, Note_on_c, 0, 75, 71
2, 41040, Note_on_c, 0, 63, 63
2, 41040, Note_on_c, 0, 67, 63
2, 41040, Note_on_c, 0, 70, 63
2, 41160, Note_on_c, 0, 70, 0
2, 41160, Note_on_c, 0, 75, 0
2, 41160, Note_on_c, 0, 63, 0
2, 41160, Note_on_c, 0, 67, 0
2, 41280, Note_on_c, 0, 65, 62
2, 41280, Note_on_c, 0, 74, 62
2, 41280, Note_on_c, 0, 77, 70
2, 41400, Note_on_c, 0, 77, 0
2, 41400, Note_on_c, 0, 74, 0
2, 41400, Note_on_c, 0, 65, 0
2, 41520, Note_on_c, 0, 70, 69
2, 41640, Note_on_c, 0, 70, 0
2, 41760, Note_on_c, 0, 75, 79
2, 41760, Note_on_c, 0, 72, 70
2, 41760, Note_on_c, 0, 63, 70
2, 42240, Note_on_c, 0, 63, 0
2, 42240, Note_on_c, 0, 72, 0
2, 42240, Note_on_c, 0, 75, 0
2, 42240, Note_on_c, 0, 63, 69
2, 42240, Note_on_c, 0, 70, 69
2, 42240, Note_on_c, 0, 74, 78
2, 42240, Note_on_c, 0, 75, 78
2, 42720, Note_on_c, 0, 75, 0
2, 42720, Note_on_c, 0, 63, 0
2, 42720, Note_on_c, 0, 70, 0
2, 42720, Note_on_c, 0, 74, 0
2, 42720, Note_on_c, 0, 75, 77
2, 42720, Note_on_c, 0, 63, 69
2, 42720, Note_on_c, 0, 68, 69
2, 42720, Note_on_c, 0, 72, 69
2, 43200, Note_on_c, 0, 72, 0
2, 43200, Note_on_c, 0, 75, 0
2, 43200, Note_on_c, 0, 63, 0
2, 43200, Note_on_c, 0, 68, 0
2, 43200, Note_on_c, 0, 63, 67
2, 43200, Note_on_c, 0, 67, 67
2, 43200, Note_on_c, 0, 70, 67
2, 43200, Note_on_c, 0, 75, 74
2, 43680, Note_on_c, 0, 75, 0
2, 43680, Note_on_c, 0, 63, 0
2, 43680, Note_on_c, 0, 67, 0
2, 43680, Note_on_c, 0, 70, 0
2, 43680, Note_on_c, 0, 74, 77
2, 43680, Note_on_c, 0, 65, 69
2, 43680, Note_on_c, 0, 70, 69
2, 43680, Note_on_c, 0, 62, 69
2, 43800, Note_on_c, 0, 62, 0
2, 43800, Note_on_c, 0, 74, 0
2, 43800, Note_on_c, 0, 65, 0
2, 43800, Note_on_c, 0, 70, 0
2, 43920, Note_on_c, 0, 63, 69
2, 43920, Note_on_c, 0, 67, 69
2, 43920, Note_on_c, 0, 70, 69
2, 43920, Note_on_c, 0, 75, 77
2, 44040, Note_on_c, 0, 75, 0
2, 44040, Note_on_c, 0, 63, 0
2, 44040, Note_on_c, 0, 67, 0
2, 44040, Note_on_c, 0, 70, 0
2, 44160, Note_on_c, 0, 67, 73
2, 44160, Note_on_c, 0, 72, 73
2, 44160, Note_on_c, 0, 75, 73
2, 44160, Note_on_c, 0, 79, 82
2, 44640, Note_on_c, 0, 79, 0
2, 44640, Note_on_c, 0, 67, 0
2, 44640, Note_on_c, 0, 72, 0
2, 44640, Note_on_c, 0, 75, 0
2, 44640, Note_on_c, 0, 65, 68
2, 44640, Note_on_c, 0, 68, 68
2, 44640, Note_on_c, 0, 72, 68
2, 44640, Note_on_c, 0, 77, 75
2, 44760, Note_on_c, 0, 77, 0
2, 44760, Note_on_c, 0, 65, 0
2, 44760, Note_on_c, 0, 68, 0
2, 44760, Note_on_c, 0, 72, 0
2, 44880, Note_on_c, 0, 72, 68
2, 44880, Note_on_c, 0, 75, 75
2, 44880, Note_on_c, 0, 63, 68
2, 44880, Note_on_c, 0, 67, 68
2, 45000, Note_on_c, 0, 67, 0
2, 45000, Note_on_c, 0, 72, 0
2, 45000, Note_on_c, 0, 75, 0
2, 45000, Note_on_c, 0, 63, 0
2, 45120, Note_on_c, 0, 62, 71
2, 45120, Note_on_c, 0, 67, 71
2, 45120, Note_on_c, 0, 70, 71
2, 45120, Note_on_c, 0, 74, 80
2, 45600, Note_on_c, 0, 74, 0
2, 45600, Note_on_c, 0, 62, 0
2, 45600, Note_on_c, 0, 67, 0
2, 45600, Note_on_c, 0, 70, 0
2, 45600, Note_on_c, 0, 67, 64
2, 45600, Note_on_c, 0, 60, 64
2, 45600, Note_on_c, 0, 63, 64
2, 45600, Note_on_c, 0, 72, 72
2, 45720, Note_on_c, 0, 72, 0
2, 45720, Note_on_c, 0, 67, 0
2, 45720, Note_on_c, 0, 60, 0
2, 45720, Note_on_c, 0, 63, 0
2, 45840, Note_on_c, 0, 58, 62
2, 45840, Note_on_c, 0, 62, 62
2, 45840, Note_on_c, 0, 70, 70
2, 45840, Note_on_c, 0, 67, 62
2, 45960, Note_on_c, 0, 67, 0
2, 45960, Note_on_c, 0, 58, 0
2, 45960, Note_on_c, 0, 62, 0
2, 45960, Note_on_c, 0, 70, 0
2, 46080, Note_on_c, 0, 69, 70
2, 46080, Note_on_c, 0, 66, 62
2, 46080, Note_on_c, 0, 57, 62
2, 46200, Note_on_c, 0, 57, 0
2, 46200, Note_on_c, 0, 66, 0
2, 46200, Note_on_c, 0, 69, 0
2, 46320, Note_on_c, 0, 62, 68
2, 46440, Note_on_c, 0, 62, 0
2, 46560, Note_on_c, 0, 55, 59
2, 46560, Note_on_c, 0, 67, 66
2, 47040, Note_on_c, 0, 67, 0
2, 47040, Note_on_c, 0, 55, 0
2, 47040, Note_on_c, 0, 67, 75
2, 47040, Note_on_c, 0, 55, 68
2, 47040, Note_on_c, 0, 66, 75
2, 47520, Note_on_c, 0, 66, 0
2, 47520, Note_on_c, 0, 55, 0
2, 47520, Note_on_c, 0, 67, 0
2, 47520, Note_on_c, 0, 55, 67
2, 47520, Note_on_c, 0, 65, 74
2, 47520, Note_on_c, 0, 67, 74
2, 47880, Note_on_c, 0, 67, 0
2, 47880, Note_on_c, 0, 65, 0
2, 47880, Note_on_c, 0, 55, 0
2, 48000, Control_c, 0, 91, 127
2, 48000, Note_on_c, 0, 79, 77
2, 48000, Note_on_c, 0, 75, 65
2, 48000, Note_on_c, 0, 67, 65
2, 48000, Note_on_c, 0, 70, 65
2, 48480, Note_on_c, 0, 70, 0
2, 48480, Note_on_c, 0, 79, 0
2, 48480, Note_on_c, 0, 75, 0
2, 48480, Note_on_c, 0, 67, 0
2, 48480, Note_on_c, 0, 65, 61
2, 48480, Note_on_c, 0, 70, 61
2, 48480, Note_on_c, 0, 74, 61
2, 48480, Note_on_c, 0, 77, 72
2, 48600, Note_on_c, 0, 77, 0
2, 48600, Note_on_c, 0, 65, 0
2, 48600, Note_on_c, 0, 70, 0
2, 48600, Note_on_c, 0, 74, 0
2, 48720, Note_on_c, 0, 79, 73
2, 48720, Note_on_c, 0, 67, 62
2, 48720, Note_on_c, 0, 70, 62
2, 48720, Note_on_c, 0, 75, 62
2, 48840, Note_on_c, 0, 75, 0
2, 48840, Note_on_c, 0, 79, 0
2, 48840, Note_on_c, 0, 67, 0
2, 48840, Note_on_c, 0, 70, 0
2, 48960, Note_on_c, 0, 68, 65
2, 48960, Note_on_c, 0, 72, 65
2, 48960, Note_on_c, 0, 75, 65
2, 48960, Note_on_c, 0, 80, 77
2, 49440, Note_on_c, 0, 80, 0
2, 49440, Note_on_c, 0, 68, 0
2, 49440, Note_on_c, 0, 72, 0
2, 49440, Note_on_c, 0, 75, 0
2, 49440, Note_on_c, 0, 75, 62
2, 49440, Note_on_c, 0, 79, 74
2, 49440, Note_on_c, 0, 67, 62
2, 49440, Note_on_c, 0, 70, 62
2, 49560, Note_on_c, 0, 70, 0
2, 49560, Note_on_c, 0, 75, 0
2, 49560, Note_on_c, 0, 79, 0
2, 49560, Note_on_c, 0, 67, 0
2, 49680, Note_on_c, 0, 65, 53
2, 49680, Note_on_c, 0, 72, 53
2, 49680, Note_on_c, 0, 77, 72
2, 49680, Note_on_c, 0, 75, 53
2, 49800, Note_on_c, 0, 75, 0
2, 49800, Note_on_c, 0, 65, 0
2, 49800, Note_on_c, 0, 72, 0
2, 49800, Note_on_c, 0, 77, 0
2, 49920, Note_on_c, 0, 75, 58
2, 49920, Note_on_c, 0, 67, 58
2, 49920, Note_on_c, 0, 70, 58
2, 49920, Note_on_c, 0, 79, 76
2, 50400, Note_on_c, 0, 79, 0
2, 50400, Note_on_c, 0, 75, 0
2, 50400, Note_on_c, 0, 67, 0
2, 50400, Note_on_c, 0, 70, 0
2, 50400, Note_on_c, 0, 65, 63
2, 50400, Note_on_c, 0, 68, 63
2, 50400, Note_on_c, 0, 77, 75
2, 50400, Note_on_c, 0, 74, 75
2, 50520, Note_on_c, 0, 74, 0
2, 50520, Note_on_c, 0, 65, 0
2, 50520, Note_on_c, 0, 68, 0
2, 50520, Note_on_c, 0, 77, 0
2, 50640, Note_on_c, 0, 70, 62
2, 50640, Note_on_c, 0, 67, 62
2, 50640, Note_on_c, 0, 63, 62
2, 50640, Note_on_c, 0, 75, 73
2, 50760, Note_on_c, 0, 75, 0
2, 50760, Note_on_c, 0, 70, 0
2, 50760, Note_on_c, 0, 67, 0
2, 50760, Note_on_c, 0, 63, 0
2, 50880, Note_on_c, 0, 65, 62
2, 50880, Note_on_c, 0, 74, 74
2, 50880, Note_on_c, 0, 77, 74
2, 51000, Note_on_c, 0, 77, 0
2, 51000, Note_on_c, 0, 74, 0
2, 51000, Note_on_c, 0, 65, 0
2, 51120, Note_on_c, 0, 70, 71
2, 51240, Note_on_c, 0, 70, 0
2, 51360, Note_on_c, 0, 75, 69
2, 51360, Note_on_c, 0, 63, 61
2, 51840, Note_on_c, 0, 63, 0
2, 51840, Note_on_c, 0, 75, 0
2, 51840, Note_on_c, 0, 74, 68
2, 51840, Note_on_c, 0, 63, 68
2, 51840, Note_on_c, 0, 75, 75
2, 52320, Note_on_c, 0, 75, 0
2, 52320, Note_on_c, 0, 63, 0
2, 52320, Note_on_c, 0, 74, 0
2, 52320, Note_on_c, 0, 75, 81
2, 52320, Note_on_c, 0, 63, 72
2, 52320, Note_on_c, 0, 72, 72
2, 52800, Note_on_c, 0, 72, 0
2, 52800, Note_on_c, 0, 63, 0
2, 52800, Note_on_c, 0, 75, 0
2, 52800, Note_on_c, 0, 87, 90
2, 52800, Note_on_c, 0, 91, 101
2, 52800, Note_on_c, 0, 84, 90
2, 52800, Note_on_c, 0, 79, 90
2, 53280, Note_on_c, 0, 79, 0
2, 53280, Note_on_c, 0, 87, 0
2, 53280, Note_on_c, 0, 91, 0
2, 53280, Note_on_c, 0, 84, 0
2, 53280, Note_on_c, 0, 86, 93
2, 53280, Note_on_c, 0, 83, 93
2, 53280, Note_on_c, 0, 74, 83
2, 53400, Note_on_c, 0, 74, 0
2, 53400, Note_on_c, 0, 83, 0
2, 53400, Note_on_c, 0, 86, 0
2, 53520, Note_on_c, 0, 84, 79
2, 53520, Note_on_c, 0, 87, 89
2, 53520, Note_on_c, 0, 75, 79
2, 53640, Note_on_c, 0, 75, 0
2, 53640, Note_on_c, 0, 87, 0
2, 53640, Note_on_c, 0, 84, 0
2, 53760, Note_on_c, 0, 83, 92
2, 53760, Note_on_c, 0, 80, 82
2, 53760, Note_on_c, 0, 71, 82
2, 53760, Note_on_c, 0, 75, 82
2, 54240, Note_on_c, 0, 75, 0
2, 54240, Note_on_c, 0, 83, 0
2, 54240, Note_on_c, 0, 80, 0
2, 54240, Note_on_c, 0, 71, 0
2, 54240, Note_on_c, 0, 75, 79
2, 54240, Note_on_c, 0, 80, 79
2, 54240, Note_on_c, 0, 84, 88
2, 54240, Note_on_c, 0, 72, 79
2, 54360, Note_on_c, 0, 72, 0
2, 54360, Note_on_c, 0, 75, 0
2, 54360, Note_on_c, 0, 80, 0
2, 54360, Note_on_c, 0, 84, 0
2, 54480, Note_on_c, 0, 79, 84
2, 54480, Note_on_c, 0, 76, 84
2, 54480, Note_on_c, 0, 67, 75
2, 54600, Note_on_c, 0, 67, 0
2, 54600, Note_on_c, 0, 76, 0
2, 54600, Note_on_c, 0, 79, 0
2, 54720, Note_on_c, 0, 72, 80
2, 54720, Note_on_c, 0, 80, 90
2, 54720, Note_on_c, 0, 77, 80
2, 54720, Note_on_c, 0, 68, 80
2, 55200, Note_on_c, 0, 68, 0
2, 55200, Note_on_c, 0, 72, 0
2, 55200, Note_on_c, 0, 80, 0
2, 55200, Note_on_c, 0, 77, 0
2, 55200, Note_on_c, 0, 76, 83
2, 55200, Note_on_c, 0, 73, 83
2, 55200, Note_on_c, 0, 63, 74
2, 55440, Note_on_c, 0, 63, 0
2, 55440, Note_on_c, 0, 73, 0
2, 55440, Note_on_c, 0, 76, 0
2, 55440, Note_on_c, 0, 74, 74
2, 55440, Note_on_c, 0, 77, 83
2, 55440, Note_on_c, 0, 65, 74
2, 55680, Note_on_c, 0, 65, 0
2, 55680, Note_on_c, 0, 77, 0
2, 55680, Note_on_c, 0, 74, 0
2, 55680, Note_on_c, 0, 69, 88
2, 55680, Note_on_c, 0, 66, 79
2, 55680, Note_on_c, 0, 63, 79
2, 55680, Note_on_c, 0, 75, 88
2, 56280, Note_on_c, 0, 74, 78
2, 56290, Note_on_c, 0, 75, 0
2, 56400, Note_on_c, 0, 72, 76
2, 56410, Note_on_c, 0, 74, 0
2, 56520, Note_on_c, 0, 71, 78
2, 56530, Note_on_c, 0, 72, 0
2, 56640, Note_on_c, 0, 63, 0
2, 56640, Note_on_c, 0, 69, 0
2, 56640, Note_on_c, 0, 66, 0
2, 56640, Note_on_c, 0, 71, 0
2, 56640, Note_on_c, 0, 66, 65
2, 56640, Note_on_c, 0, 60, 65
2, 56640, Note_on_c, 0, 63, 65
2, 56640, Note_on_c, 0, 72, 74
2, 56820, Note_on_c, 0, 72, 0
2, 56820, Note_on_c, 0, 66, 0
2, 56820, Note_on_c, 0, 60, 0
2, 56820, Note_on_c, 0, 63, 0
2, 57120, Note_on_c, 0, 59, 62
2, 57120, Note_on_c, 0, 62, 62
2, 57120, Note_on_c, 0, 67, 69
2, 57300, Note_on_c, 0, 67, 0
2, 57300, Note_on_c, 0, 62, 0
2, 57300, Note_on_c, 0, 59, 0
2, 57600, Note_on_c, 0, 60, 64
2, 57600, Note_on_c, 0, 48, 58
2, 58560, Note_on_c, 0, 48, 0
2, 58560, Note_on_c, 0, 50, 47
2, 58560, Note_on_c, 0, 62, 52
2, 59520, Note_on_c, 0, 62, 0
2, 59520, Note_on_c, 0, 50, 0
2, 59520, Note_on_c, 0, 60, 0
2, 59520, Note_on_c, 0, 63, 39
2, 59520, Note_on_c, 0, 72, 44
2, 59520, Note_on_c, 0, 75, 44
2, 61440, Note_on_c, 0, 75, 0
2, 61440, Note_on_c, 0, 72, 0
2, 61440, Note_on_c, 0, 63, 0
2, 61440, Note_on_c, 0, 60, 45
2, 61440, Control_c, 0, 91, 60
2, 61440, Note_on_c, 0, 51, 37
2, 61600, Note_on_c, 0, 51, 0
2, 61600, Note_on_c, 0, 60, 0
2, 61600, Note_on_c, 0, 55, 41
2, 61760, Note_on_c, 0, 55, 0
2, 61760, Note_on_c, 0, 51, 35
2, 61760, Note_on_c, 0, 60, 41
2, 61920, Note_on_c, 0, 60, 0
2, 61920, Note_on_c, 0, 51, 0
2, 61920, Note_on_c, 0, 50, 33
2, 61920, Note_on_c, 0, 62, 39
2, 61920, Note_on_c, 0, 55, 33
2, 62400, Note_on_c, 0, 55, 0
2, 62400, Note_on_c, 0, 62, 0
2, 62400, Note_on_c, 0, 50, 0
2, 62400, Note_on_c, 0, 51, 37
2, 62400, Note_on_c, 0, 63, 45
2, 62560, Note_on_c, 0, 63, 0
2, 62560, Note_on_c, 0, 51, 0
2, 62560, Note_on_c, 0, 55, 41
2, 62720, Note_on_c, 0, 55, 0
2, 62720, Note_on_c, 0, 51, 35
2, 62720, Note_on_c, 0, 63, 41
2, 62880, Note_on_c, 0, 63, 0
2, 62880, Note_on_c, 0, 51, 0
2, 62880, Note_on_c, 0, 50, 34
2, 62880, Note_on_c, 0, 55, 34
2, 62880, Note_on_c, 0, 62, 40
2, 63360, Note_on_c, 0, 62, 0
2, 63360, Note_on_c, 0, 55, 0
2, 63360, Note_on_c, 0, 50, 0
2, 63360, Note_on_c, 0, 55, 40
2, 63360, Note_on_c, 0, 67, 48
2, 63520, Note_on_c, 0, 67, 0
2, 63520, Note_on_c, 0, 55, 0
2, 63520, Note_on_c, 0, 63, 44
2, 63680, Note_on_c, 0, 63, 0
2, 63680, Note_on_c, 0, 53, 37
2, 63680, Note_on_c, 0, 65, 44
2, 63840, Note_on_c, 0, 65, 0
2, 63840, Note_on_c, 0, 53, 0
2, 63840, Note_on_c, 0, 62, 46
2, 64320, Note_on_c, 0, 62, 0
2, 64320, Note_on_c, 0, 60, 44
2, 64320, Note_on_c, 0, 51, 37
2, 64480, Note_on_c, 0, 51, 0
2, 64480, Note_on_c, 0, 60, 0
2, 64480, Note_on_c, 0, 55, 41
2, 64640, Note_on_c, 0, 55, 0
2, 64640, Note_on_c, 0, 49, 35
2, 64640, Note_on_c, 0, 61, 41
2, 64800, Note_on_c, 0, 61, 0
2, 64800, Note_on_c, 0, 49, 0
2, 64800, Note_on_c, 0, 58, 45
2, 65280, Note_on_c, 0, 58, 0
2, 65280, Note_on_c, 0, 60, 39
2, 65280, Note_on_c, 0, 72, 47
2, 65440, Note_on_c, 0, 72, 0
2, 65440, Note_on_c, 0, 60, 0
2, 65440, Note_on_c, 0, 68, 45
2, 65600, Note_on_c, 0, 68, 0
2, 65600, Note_on_c, 0, 58, 37
2, 65600, Note_on_c, 0, 70, 44
2, 65756, Note_on_c, 0, 67, 41
2, 65760, Note_on_c, 0, 70, 0
2, 65760, Note_on_c, 0, 58, 0
2, 66236, Note_on_c, 0, 67, 0
2, 66240, Note_on_c, 0, 60, 39
2, 66240, Note_on_c, 0, 72, 47
2, 66400, Note_on_c, 0, 72, 0
2, 66400, Note_on_c, 0, 60, 0
2, 66400, Note_on_c, 0, 68, 44
2, 66560, Note_on_c, 0, 68, 0
2, 66560, Note_on_c, 0, 58, 38
2, 66560, Note_on_c, 0, 70, 46
2, 66720, Note_on_c, 0, 70, 0
2, 66720, Note_on_c, 0, 58, 0
2, 66720, Note_on_c, 0, 67, 44
2, 66880, Note_on_c, 0, 67, 0
2, 66880, Note_on_c, 0, 56, 37
2, 66880, Note_on_c, 0, 68, 45
2, 67040, Note_on_c, 0, 68, 0
2, 67040, Note_on_c, 0, 56, 0
2, 67040, Note_on_c, 0, 65, 41
2, 67200, Note_on_c, 0, 65, 0
2, 67200, Note_on_c, 0, 54, 37
2, 67200, Note_on_c, 0, 66, 44
2, 67360, Note_on_c, 0, 66, 0
2, 67360, Note_on_c, 0, 54, 0
2, 67360, Note_on_c, 0, 63, 41
2, 67520, Note_on_c, 0, 63, 0
2, 67520, Note_on_c, 0, 66, 41
2, 67520, Note_on_c, 0, 54, 35
2, 67680, Note_on_c, 0, 54, 0
2, 67680, Note_on_c, 0, 66, 0
2, 67680, Note_on_c, 0, 55, 37
2, 67680, Note_on_c, 0, 62, 37
2, 67680, Note_on_c, 0, 67, 44
2, 68160, Note_on_c, 0, 67, 0
2, 68160, Note_on_c, 0, 62, 0
2, 68160, Note_on_c, 0, 55, 0
2, 68160, Note_on_c, 0, 69, 44
2, 68164, Note_on_c, 0, 57, 37
2, 68320, Note_on_c, 0, 69, 0
2, 68320, Note_on_c, 0, 63, 42
2, 68324, Note_on_c, 0, 57, 0
2, 68480, Note_on_c, 0, 63, 0
2, 68480, Note_on_c, 0, 69, 42
2, 68484, Note_on_c, 0, 57, 36
2, 68640, Note_on_c, 0, 69, 0
2, 68640, Note_on_c, 0, 55, 37
2, 68640, Note_on_c, 0, 62, 37
2, 68640, Note_on_c, 0, 67, 44
2, 68644, Note_on_c, 0, 57, 0
2, 69120, Note_on_c, 0, 55, 0
2, 69120, Note_on_c, 0, 62, 0
2, 69120, Note_on_c, 0, 67, 0
2, 69120, Note_on_c, 0, 60, 52
2, 69120, Note_on_c, 0, 72, 52
2, 69280, Note_on_c, 0, 72, 0
2, 69280, Note_on_c, 0, 60, 0
2, 69280, Note_on_c, 0, 67, 48
2, 69440, Note_on_c, 0, 67, 0
2, 69440, Note_on_c, 0, 60, 48
2, 69440, Note_on_c, 0, 72, 48
2, 69600, Note_on_c, 0, 72, 0
2, 69600, Note_on_c, 0, 60, 0
2, 69600, Note_on_c, 0, 62, 48
2, 69600, Note_on_c, 0, 67, 48
2, 69600, Note_on_c, 0, 74, 48
2, 70080, Note_on_c, 0, 74, 0
2, 70080, Note_on_c, 0, 67, 0
2, 70080, Note_on_c, 0, 62, 0
2, 70080, Note_on_c, 0, 76, 61
2, 70080, Note_on_c, 0, 64, 61
2, 70240, Note_on_c, 0, 64, 0
2, 70240, Note_on_c, 0, 76, 0
2, 70240, Note_on_c, 0, 67, 57
2, 70400, Note_on_c, 0, 67, 0
2, 70400, Note_on_c, 0, 64, 56
2, 70400, Note_on_c, 0, 76, 56
2, 70560, Note_on_c, 0, 76, 0
2, 70560, Note_on_c, 0, 64, 0
2, 70560, Note_on_c, 0, 74, 61
2, 70560, Note_on_c, 0, 67, 61
2, 70560, Note_on_c, 0, 62, 61
2, 71040, Note_on_c, 0, 62, 0
2, 71040, Note_on_c, 0, 67, 0
2, 71040, Note_on_c, 0, 74, 0
2, 71040, Note_on_c, 0, 79, 66
2, 71040, Note_on_c, 0, 67, 66
2, 71200, Note_on_c, 0, 67, 0
2, 71200, Note_on_c, 0, 79, 0
2, 71200, Note_on_c, 0, 76, 61
2, 71360, Note_on_c, 0, 76, 0
2, 71360, Note_on_c, 0, 65, 61
2, 71360, Note_on_c, 0, 77, 61
2, 71520, Note_on_c, 0, 77, 0
2, 71520, Note_on_c, 0, 65, 0
2, 71520, Note_on_c, 0, 62, 60
2, 71520, Note_on_c, 0, 74, 60
2, 71520, Note_on_c, 0, 67, 60
2, 72000, Note_on_c, 0, 67, 0
2, 72000, Note_on_c, 0, 74, 0
2, 72000, Note_on_c, 0, 62, 0
2, 72000, Note_on_c, 0, 64, 78
2, 72000, Note_on_c, 0, 76, 78
2, 72160, Note_on_c, 0, 76, 0
2, 72160, Note_on_c, 0, 64, 0
2, 72160, Note_on_c, 0, 72, 71
2, 72320, Note_on_c, 0, 72, 0
2, 72320, Note_on_c, 0, 62, 71
2, 72320, Note_on_c, 0, 74, 71
2, 72480, Note_on_c, 0, 74, 0
2, 72480, Note_on_c, 0, 62, 0
2, 72480, Note_on_c, 0, 70, 71
2, 72480, Note_on_c, 0, 64, 71
2, 72480, Note_on_c, 0, 58, 71
2, 72960, Note_on_c, 0, 58, 0
2, 72960, Note_on_c, 0, 64, 0
2, 72960, Note_on_c, 0, 70, 0
2, 72960, Note_on_c, 0, 84, 90
2, 72960, Note_on_c, 0, 72, 76
2, 73120, Note_on_c, 0, 72, 0
2, 73120, Note_on_c, 0, 84, 0
2, 73120, Note_on_c, 0, 77, 67
2, 73120, Note_on_c, 0, 81, 79
2, 73200, Note_on_c, 0, 81, 0
2, 73200, Note_on_c, 0, 77, 0
2, 73280, Note_on_c, 0, 72, 67
2, 73280, Note_on_c, 0, 84, 79
2, 73400, Note_on_c, 0, 84, 0
2, 73400, Note_on_c, 0, 72, 0
2, 73440, Note_on_c, 0, 76, 68
2, 73440, Note_on_c, 0, 79, 80
2, 73920, Note_on_c, 0, 79, 0
2, 73920, Note_on_c, 0, 76, 0
2, 73920, Note_on_c, 0, 69, 74
2, 73920, Note_on_c, 0, 81, 88
2, 74080, Note_on_c, 0, 81, 0
2, 74080, Note_on_c, 0, 69, 0
2, 74080, Note_on_c, 0, 74, 67
2, 74080, Note_on_c, 0, 77, 79
2, 74160, Note_on_c, 0, 77, 0
2, 74160, Note_on_c, 0, 74, 0
2, 74240, Note_on_c, 0, 69, 67
2, 74240, Note_on_c, 0, 81, 79
2, 74320, Note_on_c, 0, 81, 0
2, 74320, Note_on_c, 0, 69, 0
2, 74400, Note_on_c, 0, 72, 68
2, 74400, Note_on_c, 0, 76, 80
2, 74880, Note_on_c, 0, 76, 0
2, 74880, Note_on_c, 0, 72, 0
2, 74880, Note_on_c, 0, 79, 86
2, 74880, Note_on_c, 0, 67, 73
2, 75040, Note_on_c, 0, 67, 0
2, 75040, Note_on_c, 0, 79, 0
2, 75040, Note_on_c, 0, 72, 58
2, 75040, Note_on_c, 0, 76, 69
2, 75200, Note_on_c, 0, 76, 0
2, 75200, Note_on_c, 0, 72, 0
2, 75200, Note_on_c, 0, 67, 72
2, 75200, Note_on_c, 0, 79, 85
2, 75360, Note_on_c, 0, 79, 0
2, 75360, Note_on_c, 0, 67, 0
2, 75360, Note_on_c, 0, 77, 66
2, 75360, Note_on_c, 0, 74, 56
2, 75520, Note_on_c, 0, 74, 0
2, 75520, Note_on_c, 0, 77, 0
2, 75520, Note_on_c, 0, 79, 79
2, 75520, Note_on_c, 0, 67, 67
2, 75680, Note_on_c, 0, 67, 0
2, 75680, Note_on_c, 0, 79, 0
2, 75680, Note_on_c, 0, 72, 51
2, 75680, Note_on_c, 0, 76, 61
2, 75840, Note_on_c, 0, 76, 0
2, 75840, Note_on_c, 0, 72, 0
2, 75840, Note_on_c, 0, 67, 72
2, 75840, Note_on_c, 0, 79, 85
2, 76000, Note_on_c, 0, 79, 0
2, 76000, Note_on_c, 0, 67, 0
2, 76000, Note_on_c, 0, 69, 56
2, 76000, Note_on_c, 0, 72, 67
2, 76160, Note_on_c, 0, 72, 0
2, 76160, Note_on_c, 0, 69, 0
2, 76160, Note_on_c, 0, 67, 67
2, 76160, Note_on_c, 0, 79, 79
2, 76320, Note_on_c, 0, 79, 0
2, 76320, Note_on_c, 0, 67, 0
2, 76320, Note_on_c, 0, 67, 62
2, 76320, Note_on_c, 0, 71, 62
2, 76320, Note_on_c, 0, 79, 74
2, 76320, Note_on_c, 0, 74, 62
2, 76800, Note_on_c, 0, 74, 0
2, 76800, Note_on_c, 0, 67, 0
2, 76800, Note_on_c, 0, 71, 0
2, 76800, Note_on_c, 0, 79, 0
2, 76800, Note_on_c, 0, 72, 75
2, 76800, Note_on_c, 0, 84, 89
2, 76960, Note_on_c, 0, 84, 0
2, 76960, Note_on_c, 0, 72, 0
2, 76960, Note_on_c, 0, 79, 59
2, 76960, Note_on_c, 0, 83, 70
2, 77120, Note_on_c, 0, 83, 0
2, 77120, Note_on_c, 0, 79, 0
2, 77120, Note_on_c, 0, 72, 67
2, 77120, Note_on_c, 0, 84, 79
2, 77280, Note_on_c, 0, 84, 0
2, 77280, Note_on_c, 0, 72, 0
2, 77280, Note_on_c, 0, 77, 52
2, 77280, Note_on_c, 0, 81, 62
2, 77440, Note_on_c, 0, 81, 0
2, 77440, Note_on_c, 0, 77, 0
2, 77440, Note_on_c, 0, 84, 78
2, 77440, Note_on_c, 0, 72, 66
2, 77600, Note_on_c, 0, 72, 0
2, 77600, Note_on_c, 0, 84, 0
2, 77600, Note_on_c, 0, 76, 52
2, 77600, Note_on_c, 0, 79, 62
2, 77760, Note_on_c, 0, 79, 0
2, 77760, Note_on_c, 0, 76, 0
2, 77760, Note_on_c, 0, 69, 72
2, 77760, Note_on_c, 0, 81, 85
2, 77920, Note_on_c, 0, 81, 0
2, 77920, Note_on_c, 0, 69, 0
2, 77920, Note_on_c, 0, 79, 70
2, 77920, Note_on_c, 0, 76, 59
2, 78080, Note_on_c, 0, 76, 0
2, 78080, Note_on_c, 0, 79, 0
2, 78080, Note_on_c, 0, 81, 79
2, 78080, Note_on_c, 0, 69, 67
2, 78240, Note_on_c, 0, 69, 0
2, 78240, Note_on_c, 0, 81, 0
2, 78240, Note_on_c, 0, 74, 53
2, 78240, Note_on_c, 0, 77, 63
2, 78400, Note_on_c, 0, 77, 0
2, 78400, Note_on_c, 0, 74, 0
2, 78400, Note_on_c, 0, 69, 68
2, 78400, Note_on_c, 0, 81, 80
2, 78560, Note_on_c, 0, 81, 0
2, 78560, Note_on_c, 0, 69, 0
2, 78560, Note_on_c, 0, 76, 61
2, 78560, Note_on_c, 0, 72, 51
2, 78720, Note_on_c, 0, 72, 0
2, 78720, Note_on_c, 0, 76, 0
2, 78720, Note_on_c, 0, 67, 74
2, 78720, Note_on_c, 0, 79, 88
2, 78880, Note_on_c, 0, 79, 0
2, 78880, Note_on_c, 0, 67, 0
2, 78880, Note_on_c, 0, 74, 59
2, 78880, Note_on_c, 0, 77, 70
2, 79040, Note_on_c, 0, 77, 0
2, 79040, Note_on_c, 0, 74, 0
2, 79040, Note_on_c, 0, 79, 85
2, 79040, Note_on_c, 0, 67, 72
2, 79200, Note_on_c, 0, 67, 0
2, 79200, Note_on_c, 0, 79, 0
2, 79200, Note_on_c, 0, 72, 56
2, 79200, Note_on_c, 0, 76, 66
2, 79360, Note_on_c, 0, 76, 0
2, 79360, Note_on_c, 0, 72, 0
2, 79360, Note_on_c, 0, 67, 70
2, 79360, Note_on_c, 0, 79, 83
2, 79520, Note_on_c, 0, 79, 0
2, 79520, Note_on_c, 0, 67, 0
2, 79520, Note_on_c, 0, 69, 56
2, 79520, Note_on_c, 0, 72, 66
2, 79680, Note_on_c, 0, 72, 0
2, 79680, Note_on_c, 0, 69, 0
2, 79680, Note_on_c, 0, 79, 82
2, 79680, Note_on_c, 0, 67, 69
2, 79680, Note_on_c, 0, 71, 69
2, 79680, Note_on_c, 0, 74, 69
2, 80160, Note_on_c, 0, 74, 0
2, 80160, Note_on_c, 0, 79, 0
2, 80160, Note_on_c, 0, 67, 0
2, 80160, Note_on_c, 0, 71, 0
2, 80160, Note_on_c, 0, 60, 73
2, 80160, Note_on_c, 0, 72, 84
2, 80400, Note_on_c, 0, 72, 0
2, 80400, Note_on_c, 0, 60, 0
2, 80640, Note_on_c, 0, 48, 70
2, 80640, Note_on_c, 0, 60, 79
2, 81600, Note_on_c, 0, 48, 0
2, 81600, Note_on_c, 0, 62, 61
2, 81600, Note_on_c, 0, 50, 55
2, 82560, Note_on_c, 0, 50, 0
2, 82560, Note_on_c, 0, 62, 0
2, 82560, Note_on_c, 0, 60, 0
2, 82560, Note_on_c, 0, 72, 48
2, 82560, Note_on_c, 0, 63, 42
2, 82560, Note_on_c, 0, 75, 48
2, 84480, Note_on_c, 0, 75, 0
2, 84480, Note_on_c, 0, 63, 0
2, 84480, Note_on_c, 0, 72, 0
2, 84480, Note_on_c, 0, 48, 41
2, 84480, Note_on_c, 0, 60, 47
2, 84960, Note_on_c, 0, 48, 0
2, 84960, Note_on_c, 0, 62, 49
2, 84960, Note_on_c, 0, 50, 44
2, 85440, Note_on_c, 0, 50, 0
2, 85440, Note_on_c, 0, 62, 0
2, 85440, Note_on_c, 0, 60, 0
2, 85440, Note_on_c, 0, 77, 52
2, 85440, Note_on_c, 0, 65, 47
2, 85440, Note_on_c, 0, 72, 52
2, 85920, Note_on_c, 0, 65, 0
2, 85920, Note_on_c, 0, 77, 0
2, 85920, Note_on_c, 0, 64, 45
2, 85920, Note_on_c, 0, 76, 50
2, 86400, Note_on_c, 0, 76, 0
2, 86400, Note_on_c, 0, 64, 0
2, 86400, Note_on_c, 0, 72, 0
2, 86400, Note_on_c, 0, 75, 37
2, 86400, Note_on_c, 0, 87, 41
2, 86400, Note_on_c, 0, 84, 41
2, 88200, Note_on_c, 0, 60, 27
2, 88240, Note_on_c, 0, 63, 27
2, 88280, Note_on_c, 0, 68, 27
2, 88320, Note_on_c, 0, 84, 0
2, 88320, Note_on_c, 0, 75, 0
2, 88320, Note_on_c, 0, 87, 0
2, 88320, Control_c, 0, 91, 127
2, 88320, Note_on_c, 0, 72, 39
2, 88560, Note_on_c, 0, 72, 0
2, 88560, Note_on_c, 0, 68, 0
2, 88560, Note_on_c, 0, 63, 0
2, 88560, Note_on_c, 0, 60, 0
2, 88560, Note_on_c, 0, 73, 39
2, 88680, Note_on_c, 0, 73, 0
2, 88680, Note_on_c, 0, 60, 26
2, 88712, Note_on_c, 0, 63, 26
2, 88744, Note_on_c, 0, 68, 26
2, 88776, Note_on_c, 0, 72, 39
2, 88808, Note_on_c, 0, 74, 39
2, 89040, Note_on_c, 0, 74, 0
2, 89040, Note_on_c, 0, 68, 0
2, 89040, Note_on_c, 0, 60, 0
2, 89040, Note_on_c, 0, 63, 0
2, 89040, Note_on_c, 0, 72, 0
2, 89040, Note_on_c, 0, 75, 41
2, 89160, Note_on_c, 0, 75, 0
2, 89160, Note_on_c, 0, 68, 28
2, 89220, Note_on_c, 0, 80, 29
2, 89280, Note_on_c, 0, 84, 44
2, 89400, Note_on_c, 0, 84, 0
2, 89400, Note_on_c, 0, 68, 0
2, 89520, Note_on_c, 0, 80, 0
2, 89520, Note_on_c, 0, 79, 42
2, 89640, Note_on_c, 0, 79, 0
2, 89640, Note_on_c, 0, 68, 28
2, 89680, Note_on_c, 0, 80, 28
2, 89720, Note_on_c, 0, 77, 27
2, 89760, Note_on_c, 0, 84, 40
2, 89880, Note_on_c, 0, 84, 0
2, 89880, Note_on_c, 0, 68, 0
2, 89880, Note_on_c, 0, 80, 0
2, 90000, Note_on_c, 0, 77, 0
2, 90000, Note_on_c, 0, 76, 39
2, 90120, Note_on_c, 0, 76, 0
2, 90120, Note_on_c, 0, 68, 26
2, 90180, Note_on_c, 0, 80, 26
2, 90240, Note_on_c, 0, 84, 26
2, 90240, Note_on_c, 0, 75, 39
2, 90360, Note_on_c, 0, 84, 0
2, 90360, Note_on_c, 0, 68, 0
2, 90360, Note_on_c, 0, 80, 0
2, 90600, Note_on_c, 0, 68, 24
2, 90660, Note_on_c, 0, 80, 25
2, 90720, Note_on_c, 0, 84, 40
2, 90840, Note_on_c, 0, 84, 0
2, 90840, Note_on_c, 0, 80, 0
2, 90840, Note_on_c, 0, 68, 0
2, 91080, Note_on_c, 0, 82, 26
2, 91140, Note_on_c, 0, 79, 26
2, 91200, Note_on_c, 0, 75, 0
2, 91200, Note_on_c, 0, 73, 41
2, 91440, Note_on_c, 0, 73, 0
2, 91440, Note_on_c, 0, 79, 0
2, 91440, Note_on_c, 0, 82, 0
2, 91440, Note_on_c, 0, 72, 40
2, 91560, Note_on_c, 0, 72, 0
2, 91560, Note_on_c, 0, 79, 26
2, 91620, Note_on_c, 0, 75, 26
2, 91680, Note_on_c, 0, 70, 39
2, 91920, Note_on_c, 0, 70, 0
2, 91920, Note_on_c, 0, 75, 0
2, 91920, Note_on_c, 0, 79, 0
2, 91920, Note_on_c, 0, 72, 40
2, 92040, Note_on_c, 0, 72, 0
2, 92040, Note_on_c, 0, 80, 25
2, 92100, Note_on_c, 0, 77, 25
2, 92160, Note_on_c, 0, 73, 42
2, 92400, Note_on_c, 0, 73, 0
2, 92400, Note_on_c, 0, 77, 0
2, 92400, Note_on_c, 0, 80, 0
2, 92400, Note_on_c, 0, 72, 42
2, 92520, Note_on_c, 0, 72, 0
2, 92520, Note_on_c, 0, 77, 26
2, 92580, Note_on_c, 0, 73, 26
2, 92640, Note_on_c, 0, 70, 41
2, 92880, Note_on_c, 0, 70, 0
2, 92880, Note_on_c, 0, 73, 0
2, 92880, Note_on_c, 0, 77, 0
2, 92880, Note_on_c, 0, 68, 40
2, 93000, Note_on_c, 0, 68, 0
2, 93000, Note_on_c, 0, 75, 25
2, 93060, Note_on_c, 0, 70, 25
2, 93120, Note_on_c, 0, 67, 42
2, 93360, Note_on_c, 0, 67, 0
2, 93360, Note_on_c, 0, 70, 0
2, 93360, Note_on_c, 0, 75, 0
2, 93360, Note_on_c, 0, 65, 41
2, 93480, Note_on_c, 0, 65, 0
2, 93480, Note_on_c, 0, 73, 24
2, 93540, Note_on_c, 0, 70, 24
2, 93600, Note_on_c, 0, 63, 40
2, 93840, Note_on_c, 0, 63, 0
2, 93840, Note_on_c, 0, 70, 0
2, 93840, Note_on_c, 0, 73, 0
2, 93840, Note_on_c, 0, 65, 41
2, 93960, Note_on_c, 0, 65, 0
2, 93960, Note_on_c, 0, 75, 28
2, 94020, Note_on_c, 0, 73, 28
2, 94080, Note_on_c, 0, 67, 44
2, 94320, Note_on_c, 0, 67, 0
2, 94320, Note_on_c, 0, 73, 0
2, 94320, Note_on_c, 0, 75, 0
2, 94320, Note_on_c, 0, 70, 40
2, 94440, Note_on_c, 0, 70, 0
2, 94440, Note_on_c, 0, 75, 26
2, 94500, Note_on_c, 0, 73, 26
2, 94560, Note_on_c, 0, 65, 42
2, 94800, Note_on_c, 0, 65, 0
2, 94800, Note_on_c, 0, 73, 0
2, 94800, Note_on_c, 0, 75, 0
2, 94800, Note_on_c, 0, 68, 38
2, 94920, Note_on_c, 0, 68, 0
2, 94920, Note_on_c, 0, 75, 26
2, 94980, Note_on_c, 0, 72, 26
2, 95040, Note_on_c, 0, 63, 40
2, 95280, Note_on_c, 0, 63, 0
2, 95280, Note_on_c, 0, 72, 0
2, 95280, Note_on_c, 0, 75, 0
2, 95280, Note_on_c, 0, 67, 35
2, 95400, Note_on_c, 0, 67, 0
2, 95400, Note_on_c, 0, 75, 25
2, 95460, Note_on_c, 0, 70, 25
2, 95520, Note_on_c, 0, 61, 39
2, 95760, Note_on_c, 0, 61, 0
2, 95760, Note_on_c, 0, 70, 0
2, 95760, Note_on_c, 0, 75, 0
2, 95760, Note_on_c, 0, 65, 33
2, 95880, Note_on_c, 0, 65, 0
2, 96000, Control_c, 0, 91, 127
2, 96000, Note_on_c, 0, 60, 39
2, 96060, Note_on_c, 0, 68, 30
2, 96120, Note_on_c, 0, 72, 30
2, 96180, Note_on_c, 0, 68, 0
2, 96240, Note_on_c, 0, 72, 0
2, 96240, Note_on_c, 0, 60, 0
2, 96240, Note_on_c, 0, 61, 39
2, 96480, Note_on_c, 0, 61, 0
2, 96480, Note_on_c, 0, 62, 39
2, 96540, Note_on_c, 0, 68, 30
2, 96600, Note_on_c, 0, 72, 30
2, 96660, Note_on_c, 0, 68, 0
2, 96720, Note_on_c, 0, 72, 0
2, 96720, Note_on_c, 0, 62, 0
2, 96720, Note_on_c, 0, 63, 41
2, 96900, Note_on_c, 0, 60, 31
2, 96960, Note_on_c, 0, 63, 0
2, 96960, Note_on_c, 0, 72, 44
2, 97020, Note_on_c, 0, 60, 0
2, 97020, Note_on_c, 0, 75, 33
2, 97140, Note_on_c, 0, 75, 0
2, 97200, Note_on_c, 0, 72, 0
2, 97200, Note_on_c, 0, 68, 42
2, 97440, Note_on_c, 0, 68, 0
2, 97440, Note_on_c, 0, 65, 40
2, 97500, Note_on_c, 0, 72, 33
2, 97560, Note_on_c, 0, 75, 33
2, 97620, Note_on_c, 0, 72, 0
2, 97680, Note_on_c, 0, 75, 0
2, 97680, Note_on_c, 0, 65, 0
2, 97680, Note_on_c, 0, 66, 39
2, 97860, Note_on_c, 0, 66, 0
2, 97920, Note_on_c, 0, 67, 39
2, 97980, Note_on_c, 0, 72, 31
2, 98040, Note_on_c, 0, 75, 31
2, 98100, Note_on_c, 0, 72, 0
2, 98160, Note_on_c, 0, 75, 0
2, 98400, Note_on_c, 0, 72, 31
2, 98460, Note_on_c, 0, 75, 31
2, 98520, Note_on_c, 0, 72, 0
2, 98520, Note_on_c, 0, 79, 31
2, 98580, Note_on_c, 0, 75, 0
2, 98640, Note_on_c, 0, 79, 0
2, 98760, Note_on_c, 0, 83, 26
2, 98820, Note_on_c, 0, 79, 26
2, 98880, Note_on_c, 0, 67, 0
2, 98880, Note_on_c, 0, 75, 41
2, 99120, Note_on_c, 0, 75, 0
2, 99120, Note_on_c, 0, 79, 0
2, 99120, Note_on_c, 0, 83, 0
2, 99120, Note_on_c, 0, 74, 40
2, 99240, Note_on_c, 0, 74, 0
2, 99240, Note_on_c, 0, 79, 26
2, 99300, Note_on_c, 0, 75, 26
2, 99360, Note_on_c, 0, 72, 39
2, 99600, Note_on_c, 0, 72, 0
2, 99600, Note_on_c, 0, 75, 0
2, 99600, Note_on_c, 0, 79, 0
2, 99600, Note_on_c, 0, 67, 40
2, 99720, Note_on_c, 0, 67, 0
2, 99720, Note_on_c, 0, 77, 25
2, 99780, Note_on_c, 0, 74, 25
2, 99840, Note_on_c, 0, 70, 42
2, 100080, Note_on_c, 0, 70, 0
2, 100080, Note_on_c, 0, 74, 0
2, 100080, Note_on_c, 0, 77, 0
2, 100080, Note_on_c, 0, 68, 42
2, 100200, Note_on_c, 0, 68, 0
2, 100200, Note_on_c, 0, 74, 26
2, 100260, Note_on_c, 0, 71, 26
2, 100320, Note_on_c, 0, 67, 41
2, 100560, Note_on_c, 0, 67, 0
2, 100560, Note_on_c, 0, 71, 0
2, 100560, Note_on_c, 0, 74, 0
2, 100560, Note_on_c, 0, 65, 40
2, 100680, Note_on_c, 0, 65, 0
2, 100680, Note_on_c, 0, 71, 25
2, 100740, Note_on_c, 0, 67, 25
2, 100800, Note_on_c, 0, 63, 42
2, 101040, Note_on_c, 0, 63, 0
2, 101040, Note_on_c, 0, 67, 0
2, 101040, Note_on_c, 0, 71, 0
2, 101040, Note_on_c, 0, 62, 41
2, 101160, Note_on_c, 0, 62, 0
2, 101160, Note_on_c, 0, 67, 24
2, 101220, Note_on_c, 0, 63, 24
2, 101280, Note_on_c, 0, 60, 40
2, 101520, Note_on_c, 0, 60, 0
2, 101520, Note_on_c, 0, 63, 0
2, 101520, Note_on_c, 0, 67, 0
2, 101520, Note_on_c, 0, 55, 41
2, 101640, Note_on_c, 0, 55, 0
2, 101640, Note_on_c, 0, 67, 28
2, 101700, Note_on_c, 0, 63, 28
2, 101760, Note_on_c, 0, 60, 44
2, 102000, Note_on_c, 0, 60, 0
2, 102000, Note_on_c, 0, 63, 0
2, 102000, Note_on_c, 0, 67, 0
2, 102000, Note_on_c, 0, 58, 40
2, 102120, Note_on_c, 0, 58, 0
2, 102120, Note_on_c, 0, 63, 26
2, 102180, Note_on_c, 0, 60, 26
2, 102240, Note_on_c, 0, 56, 42
2, 102480, Note_on_c, 0, 56, 0
2, 102480, Note_on_c, 0, 63, 0
2, 102720, Note_on_c, 0, 60, 0
2, 102720, Note_on_c, 0, 62, 39
2, 102720, Note_on_c, 0, 59, 39
2, 102720, Note_on_c, 0, 55, 39
2, 103200, Note_on_c, 0, 55, 0
2, 103200, Note_on_c, 0, 53, 38
2, 103680, Note_on_c, 0, 53, 0
2, 103680, Note_on_c, 0, 59, 0
2, 103680, Note_on_c, 0, 62, 0
2, 103680, Note_on_c, 0, 67, 30
2, 103680, Note_on_c, 0, 55, 30
2, 103680, Note_on_c, 0, 63, 30
2, 104160, Note_on_c, 0, 63, 0
2, 104160, Note_on_c, 0, 55, 0
2, 104160, Note_on_c, 0, 67, 0
2, 104160, Note_on_c, 0, 57, 36
2, 104160, Note_on_c, 0, 66, 36
2, 104160, Note_on_c, 0, 69, 36
2, 104640, Note_on_c, 0, 69, 0
2, 104640, Note_on_c, 0, 66, 0
2, 104640, Note_on_c, 0, 57, 0
2, 104640, Note_on_c, 0, 58, 39
2, 104640, Note_on_c, 0, 70, 39
2, 104640, Note_on_c, 0, 67, 39
2, 105600, Note_on_c, 0, 67, 0
2, 105600, Note_on_c, 0, 70, 0
2, 105600, Note_on_c, 0, 58, 0
2, 105600, Note_on_c, 0, 79, 30
2, 105600, Note_on_c, 0, 75, 30
2, 105600, Note_on_c, 0, 67, 30
2, 106080, Note_on_c, 0, 67, 0
2, 106080, Note_on_c, 0, 75, 0
2, 106080, Note_on_c, 0, 79, 0
2, 106080, Note_on_c, 0, 69, 34
2, 106080, Note_on_c, 0, 78, 34
2, 106080, Note_on_c, 0, 81, 34
2, 106560, Note_on_c, 0, 81, 0
2, 106560, Note_on_c, 0, 78, 0
2, 106560, Note_on_c, 0, 69, 0
2, 106560, Note_on_c, 0, 82, 30
2, 106560, Note_on_c, 0, 70, 30
2, 106560, Note_on_c, 0, 79, 30
2, 107520, Note_on_c, 0, 79, 0
2, 107520, Note_on_c, 0, 70, 0
2, 107520, Note_on_c, 0, 82, 0
2, 107520, Note_on_c, 0, 55, 30
2, 107520, Note_on_c, 0, 64, 30
2, 107520, Note_on_c, 0, 67, 30
2, 108000, Note_on_c, 0, 67, 0
2, 108000, Note_on_c, 0, 64, 0
2, 108000, Note_on_c, 0, 55, 0
2, 108000, Note_on_c, 0, 57, 33
2, 108000, Note_on_c, 0, 69, 33
2, 108000, Note_on_c, 0, 66, 33
2, 108480, Note_on_c, 0, 66, 0
2, 108480, Note_on_c, 0, 69, 0
2, 108480, Note_on_c, 0, 57, 0
2, 108480, Note_on_c, 0, 70, 36
2, 108480, Note_on_c, 0, 58, 36
2, 108480, Note_on_c, 0, 67, 36
2, 108960, Note_on_c, 0, 67, 0
2, 108960, Note_on_c, 0, 58, 0
2, 108960, Note_on_c, 0, 70, 0
2, 108960, Note_on_c, 0, 60, 39
2, 108960, Note_on_c, 0, 69, 39
2, 108960, Note_on_c, 0, 72, 39
2, 109440, Note_on_c, 0, 72, 0
2, 109440, Note_on_c, 0, 69, 0
2, 109440, Note_on_c, 0, 60, 0
2, 109440, Note_on_c, 0, 61, 44
2, 109440, Note_on_c, 0, 70, 44
2, 109440, Note_on_c, 0, 73, 44
2, 109920, Note_on_c, 0, 73, 0
2, 109920, Note_on_c, 0, 70, 0
2, 109920, Note_on_c, 0, 61, 0
2, 109920, Note_on_c, 0, 72, 48
2, 109920, Note_on_c, 0, 64, 48
2, 109920, Note_on_c, 0, 76, 48
2, 110400, Note_on_c, 0, 76, 0
2, 110400, Note_on_c, 0, 64, 0
2, 110400, Note_on_c, 0, 72, 0
2, 110400, Note_on_c, 0, 73, 51
2, 110400, Note_on_c, 0, 65, 51
2, 110400, Note_on_c, 0, 77, 51
2, 110880, Note_on_c, 0, 77, 0
2, 110880, Note_on_c, 0, 65, 0
2, 110880, Note_on_c, 0, 79, 55
2, 110880, Note_on_c, 0, 67, 55
2, 111360, Note_on_c, 0, 67, 0
2, 111360, Note_on_c, 0, 79, 0
2, 111360, Note_on_c, 0, 73, 0
2, 111360, Note_on_c, 0, 72, 45
2, 111420, Note_on_c, 0, 80, 30
2, 111480, Note_on_c, 0, 84, 34
2, 111540, Note_on_c, 0, 80, 0
2, 111600, Note_on_c, 0, 84, 0
2, 111600, Note_on_c, 0, 72, 0
2, 111600, Note_on_c, 0, 73, 46
2, 111840, Note_on_c, 0, 73, 0
2, 111840, Note_on_c, 0, 74, 48
2, 111900, Note_on_c, 0, 80, 35
2, 111960, Note_on_c, 0, 84, 35
2, 112080, Note_on_c, 0, 84, 0
2, 112080, Note_on_c, 0, 80, 0
2, 112080, Note_on_c, 0, 74, 0
2, 112080, Note_on_c, 0, 75, 49
2, 112260, Note_on_c, 0, 72, 35
2, 112320, Note_on_c, 0, 75, 0
2, 112320, Note_on_c, 0, 80, 53
2, 112380, Note_on_c, 0, 72, 0
2, 112380, Note_on_c, 0, 84, 38
2, 112500, Note_on_c, 0, 84, 0
2, 112560, Note_on_c, 0, 80, 0
2, 112560, Note_on_c, 0, 79, 49
2, 112800, Note_on_c, 0, 79, 0
2, 112800, Note_on_c, 0, 77, 49
2, 112860, Note_on_c, 0, 80, 35
2, 112920, Note_on_c, 0, 84, 35
2, 112980, Note_on_c, 0, 80, 0
2, 113040, Note_on_c, 0, 84, 0
2, 113040, Note_on_c, 0, 77, 0
2, 113040, Note_on_c, 0, 76, 48
2, 113280, Note_on_c, 0, 76, 0
2, 113280, Note_on_c, 0, 72, 31
2, 113280, Note_on_c, 0, 75, 47
2, 113340, Note_on_c, 0, 80, 31
2, 113400, Note_on_c, 0, 72, 0
2, 113400, Note_on_c, 0, 84, 31
2, 113460, Note_on_c, 0, 80, 0
2, 113520, Note_on_c, 0, 84, 0
2, 113760, Note_on_c, 0, 72, 31
2, 113820, Note_on_c, 0, 80, 31
2, 113880, Note_on_c, 0, 72, 0
2, 113880, Note_on_c, 0, 84, 31
2, 113940, Note_on_c, 0, 80, 0
2, 114000, Note_on_c, 0, 84, 0
2, 114120, Note_on_c, 0, 82, 26
2, 114180, Note_on_c, 0, 79, 26
2, 114240, Note_on_c, 0, 75, 0
2, 114240, Note_on_c, 0, 73, 41
2, 114480, Note_on_c, 0, 73, 0
2, 114480, Note_on_c, 0, 79, 0
2, 114480, Note_on_c, 0, 82, 0
2, 114480, Note_on_c, 0, 72, 40
2, 114600, Note_on_c, 0, 72, 0
2, 114600, Note_on_c, 0, 79, 26
2, 114660, Note_on_c, 0, 75, 26
2, 114720, Note_on_c, 0, 70, 39
2, 114960, Note_on_c, 0, 70, 0
2, 114960, Note_on_c, 0, 75, 0
2, 114960, Note_on_c, 0, 79, 0
2, 114960, Note_on_c, 0, 72, 40
2, 115080, Note_on_c, 0, 72, 0
2, 115080, Note_on_c, 0, 80, 25
2, 115140, Note_on_c, 0, 77, 25
2, 115200, Note_on_c, 0, 73, 42
2, 115440, Note_on_c, 0, 73, 0
2, 115440, Note_on_c, 0, 77, 0
2, 115440, Note_on_c, 0, 80, 0
2, 115440, Note_on_c, 0, 72, 42
2, 115560, Note_on_c, 0, 72, 0
2, 115560, Note_on_c, 0, 77, 26
2, 115620, Note_on_c, 0, 73, 26
2, 115680, Note_on_c, 0, 70, 41
2, 115920, Note_on_c, 0, 70, 0
2, 115920, Note_on_c, 0, 73, 0
2, 115920, Note_on_c, 0, 77, 0
2, 115920, Note_on_c, 0, 68, 40
2, 116040, Note_on_c, 0, 68, 0
2, 116040, Note_on_c, 0, 75, 25
2, 116100, Note_on_c, 0, 70, 25
2, 116160, Note_on_c, 0, 67, 42
2, 116400, Note_on_c, 0, 67, 0
2, 116400, Note_on_c, 0, 70, 0
2, 116400, Note_on_c, 0, 75, 0
2, 116400, Note_on_c, 0, 65, 41
2, 116520, Note_on_c, 0, 65, 0
2, 116520, Note_on_c, 0, 73, 24
2, 116580, Note_on_c, 0, 70, 24
2, 116640, Note_on_c, 0, 63, 40
2, 116880, Note_on_c, 0, 63, 0
2, 116880, Note_on_c, 0, 70, 0
2, 116880, Note_on_c, 0, 73, 0
2, 116880, Note_on_c, 0, 65, 41
2, 117000, Note_on_c, 0, 65, 0
2, 117000, Note_on_c, 0, 75, 28
2, 117060, Note_on_c, 0, 73, 28
2, 117120, Note_on_c, 0, 67, 44
2, 117360, Note_on_c, 0, 67, 0
2, 117360, Note_on_c, 0, 73, 0
2, 117360, Note_on_c, 0, 75, 0
2, 117360, Note_on_c, 0, 70, 40
2, 117480, Note_on_c, 0, 70, 0
2, 117480, Note_on_c, 0, 75, 26
2, 117540, Note_on_c, 0, 73, 26
2, 117600, Note_on_c, 0, 65, 42
2, 117840, Note_on_c, 0, 65, 0
2, 117840, Note_on_c, 0, 73, 0
2, 117840, Note_on_c, 0, 75, 0
2, 117840, Note_on_c, 0, 68, 38
2, 117960, Note_on_c, 0, 68, 0
2, 117960, Note_on_c, 0, 75, 26
2, 118020, Note_on_c, 0, 72, 26
2, 118080, Note_on_c, 0, 63, 40
2, 118320, Note_on_c, 0, 63, 0
2, 118320, Note_on_c, 0, 72, 0
2, 118320, Note_on_c, 0, 75, 0
2, 118320, Note_on_c, 0, 67, 35
2, 118440, Note_on_c, 0, 67, 0
2, 118440, Note_on_c, 0, 75, 25
2, 118500, Note_on_c, 0, 70, 25
2, 118560, Note_on_c, 0, 61, 39
2, 118800, Note_on_c, 0, 61, 0
2, 118800, Note_on_c, 0, 70, 0
2, 118800, Note_on_c, 0, 75, 0
2, 118800, Note_on_c, 0, 65, 33
2, 118920, Note_on_c, 0, 65, 0
2, 119040, Note_on_c, 0, 60, 39
2, 119040, Control_c, 0, 91, 127
2, 119100, Note_on_c, 0, 68, 30
2, 119160, Note_on_c, 0, 72, 30
2, 119220, Note_on_c, 0, 68, 0
2, 119280, Note_on_c, 0, 72, 0
2, 119280, Note_on_c, 0, 60, 0
2, 119280, Note_on_c, 0, 61, 39
2, 119520, Note_on_c, 0, 61, 0
2, 119520, Note_on_c, 0, 62, 39
2, 119580, Note_on_c, 0, 68, 30
2, 119640, Note_on_c, 0, 72, 30
2, 119700, Note_on_c, 0, 68, 0
2, 119760, Note_on_c, 0, 72, 0
2, 119760, Note_on_c, 0, 62, 0
2, 119760, Note_on_c, 0, 63, 41
2, 120000, Note_on_c, 0, 63, 0
2, 120000, Note_on_c, 0, 60, 39
2, 120060, Note_on_c, 0, 72, 44
2, 120120, Note_on_c, 0, 75, 33
2, 120180, Note_on_c, 0, 72, 0
2, 120240, Note_on_c, 0, 75, 0
2, 120240, Note_on_c, 0, 60, 0
2, 120240, Note_on_c, 0, 68, 42
2, 120480, Note_on_c, 0, 68, 0
2, 120480, Note_on_c, 0, 65, 40
2, 120540, Note_on_c, 0, 72, 33
2, 120600, Note_on_c, 0, 75, 33
2, 120660, Note_on_c, 0, 72, 0
2, 120720, Note_on_c, 0, 75, 0
2, 120720, Note_on_c, 0, 65, 0
2, 120720, Note_on_c, 0, 64, 39
2, 120960, Note_on_c, 0, 64, 0
2, 120960, Note_on_c, 0, 60, 42
2, 121020, Note_on_c, 0, 63, 35
2, 121080, Note_on_c, 0, 67, 35
2, 121140, Note_on_c, 0, 72, 35
2, 121200, Note_on_c, 0, 72, 0
2, 121200, Note_on_c, 0, 60, 0
2, 121200, Note_on_c, 0, 63, 0
2, 121200, Note_on_c, 0, 67, 0
2, 121200, Note_on_c, 0, 73, 42
2, 121200, Note_on_c, 0, 70, 42
2, 121200, Note_on_c, 0, 61, 42
2, 121440, Note_on_c, 0, 61, 0
2, 121440, Note_on_c, 0, 70, 0
2, 121440, Note_on_c, 0, 73, 0
2, 121440, Note_on_c, 0, 62, 49
2, 121440, Note_on_c, 0, 74, 49
2, 121440, Note_on_c, 0, 71, 49
2, 121680, Note_on_c, 0, 71, 0
2, 121680, Note_on_c, 0, 74, 0
2, 121680, Note_on_c, 0, 62, 0
2, 121680, Note_on_c, 0, 75, 53
2, 121680, Note_on_c, 0, 72, 53
2, 121680, Note_on_c, 0, 63, 53
2, 121920, Note_on_c, 0, 63, 0
2, 121920, Note_on_c, 0, 72, 0
2, 121920, Note_on_c, 0, 75, 0
2, 121920, Note_on_c, 0, 87, 63
2, 121920, Note_on_c, 0, 78, 63
2, 121920, Note_on_c, 0, 75, 63
2, 122160, Note_on_c, 0, 75, 0
2, 122160, Note_on_c, 0, 78, 0
2, 122160, Note_on_c, 0, 87, 0
2, 122160, Note_on_c, 0, 84, 50
2, 122160, Note_on_c, 0, 72, 50
2, 122160, Note_on_c, 0, 80, 50
2, 122400, Note_on_c, 0, 80, 0
2, 122400, Note_on_c, 0, 72, 0
2, 122400, Note_on_c, 0, 84, 0
2, 122400, Note_on_c, 0, 80, 46
2, 122400, Note_on_c, 0, 77, 46
2, 122400, Note_on_c, 0, 68, 46
2, 122640, Note_on_c, 0, 68, 0
2, 122640, Note_on_c, 0, 77, 0
2, 122640, Note_on_c, 0, 80, 0
2, 122640, Note_on_c, 0, 78, 42
2, 122640, Note_on_c, 0, 75, 42
2, 122640, Note_on_c, 0, 66, 42
2, 122880, Note_on_c, 0, 66, 0
2, 122880, Note_on_c, 0, 75, 0
2, 122880, Note_on_c, 0, 78, 0
2, 122880, Note_on_c, 0, 77, 41
2, 122880, Note_on_c, 0, 65, 41
2, 122880, Note_on_c, 0, 73, 41
2, 123360, Note_on_c, 0, 73, 0
2, 123360, Note_on_c, 0, 65, 0
2, 123360, Note_on_c, 0, 77, 0
2, 123360, Note_on_c, 0, 73, 39
2, 123360, Note_on_c, 0, 76, 39
2, 123360, Note_on_c, 0, 64, 39
2, 123840, Note_on_c, 0, 64, 0
2, 123840, Note_on_c, 0, 76, 0
2, 123840, Note_on_c, 0, 73, 0
2, 123840, Note_on_c, 0, 63, 35
2, 123840, Note_on_c, 0, 72, 35
2, 123840, Note_on_c, 0, 75, 35
2, 124800, Note_on_c, 0, 75, 0
2, 124800, Note_on_c, 0, 72, 0
2, 124800, Note_on_c, 0, 63, 0
2, 124800, Note_on_c, 0, 68, 31
2, 124800, Note_on_c, 0, 56, 31
2, 124800, Note_on_c, 0, 63, 31
2, 125280, Note_on_c, 0, 63, 0
2, 125280, Note_on_c, 0, 56, 0
2, 125280, Note_on_c, 0, 68, 0
2, 125280, Note_on_c, 0, 55, 30
2, 125280, Note_on_c, 0, 63, 30
2, 125280, Note_on_c, 0, 67, 30
2, 125760, Note_on_c, 0, 67, 0
2, 125760, Note_on_c, 0, 63, 0
2, 125760, Note_on_c, 0, 55, 0
2, 125760, Note_on_c, 0, 63, 25
2, 125760, Note_on_c, 0, 54, 25
2, 125760, Note_on_c, 0, 66, 25
2, 126720, Note_on_c, 0, 66, 0
2, 126720, Note_on_c, 0, 54, 0
2, 126720, Note_on_c, 0, 63, 0
2, 126720, Note_on_c, 0, 79, 35
2, 126720, Control_c, 0, 91, 127
2, 126720, Note_on_c, 0, 72, 35
2, 126720, Note_on_c, 0, 67, 35
2, 127200, Note_on_c, 0, 67, 0
2, 127200, Note_on_c, 0, 72, 0
2, 127200, Note_on_c, 0, 79, 0
2, 127200, Note_on_c, 0, 79, 31
2, 127200, Note_on_c, 0, 74, 31
2, 127200, Note_on_c, 0, 67, 31
2, 127680, Note_on_c, 0, 67, 0
2, 127680, Note_on_c, 0, 74, 0
2, 127680, Note_on_c, 0, 79, 0
2, 127680, Note_on_c, 0, 75, 35
2, 127680, Note_on_c, 0, 79, 35
2, 127680, Note_on_c, 0, 67, 35
2, 128160, Note_on_c, 0, 67, 0
2, 128160, Note_on_c, 0, 79, 0
2, 128160, Note_on_c, 0, 75, 0
2, 128160, Note_on_c, 0, 79, 33
2, 128160, Note_on_c, 0, 74, 33
2, 128160, Note_on_c, 0, 67, 33
2, 128640, Note_on_c, 0, 67, 0
2, 128640, Note_on_c, 0, 74, 0
2, 128640, Note_on_c, 0, 79, 0
2, 128640, Note_on_c, 0, 79, 39
2, 128640, Note_on_c, 0, 67, 39
2, 128800, Note_on_c, 0, 75, 35
2, 128960, Note_on_c, 0, 75, 0
2, 128960, Note_on_c, 0, 77, 35
2, 129120, Note_on_c, 0, 77, 0
2, 129120, Note_on_c, 0, 67, 0
2, 129120, Note_on_c, 0, 79, 0
2, 129120, Note_on_c, 0, 74, 36
2, 129120, Note_on_c, 0, 67, 36
2, 129120, Note_on_c, 0, 79, 36
2, 129600, Note_on_c, 0, 79, 0
2, 129600, Note_on_c, 0, 67, 0
2, 129600, Note_on_c, 0, 74, 0
2, 129600, Note_on_c, 0, 79, 37
2, 129600, Note_on_c, 0, 75, 37
2, 129600, Note_on_c, 0, 67, 37
2, 129760, Note_on_c, 0, 75, 0
2, 129760, Note_on_c, 0, 72, 34
2, 129920, Note_on_c, 0, 72, 0
2, 129920, Note_on_c, 0, 73, 34
2, 130080, Note_on_c, 0, 73, 0
2, 130080, Note_on_c, 0, 67, 0
2, 130080, Note_on_c, 0, 79, 0
2, 130080, Note_on_c, 0, 70, 36
2, 130080, Note_on_c, 0, 67, 36
2, 130080, Note_on_c, 0, 79, 36
2, 130560, Note_on_c, 0, 79, 0
2, 130560, Note_on_c, 0, 67, 0
2, 130560, Note_on_c, 0, 70, 0
2, 130560, Note_on_c, 0, 84, 52
2, 130560, Note_on_c, 0, 72, 52
2, 130720, Note_on_c, 0, 72, 0
2, 130720, Note_on_c, 0, 84, 0
2, 130720, Note_on_c, 0, 80, 48
2, 130880, Note_on_c, 0, 80, 0
2, 130880, Note_on_c, 0, 70, 48
2, 130880, Note_on_c, 0, 82, 48
2, 131040, Note_on_c, 0, 82, 0
2, 131040, Note_on_c, 0, 70, 0
2, 131040, Note_on_c, 0, 79, 53
2, 131520, Note_on_c, 0, 79, 0
2, 131520, Note_on_c, 0, 72, 50
2, 131520, Note_on_c, 0, 84, 50
2, 131680, Note_on_c, 0, 84, 0
2, 131680, Note_on_c, 0, 72, 0
2, 131680, Note_on_c, 0, 80, 44
2, 131840, Note_on_c, 0, 80, 0
2, 131840, Note_on_c, 0, 82, 48
2, 131840, Note_on_c, 0, 70, 48
2, 132000, Note_on_c, 0, 70, 0
2, 132000, Note_on_c, 0, 82, 0
2, 132000, Note_on_c, 0, 79, 40
2, 132160, Note_on_c, 0, 79, 0
2, 132160, Note_on_c, 0, 68, 44
2, 132160, Note_on_c, 0, 80, 44
2, 132320, Note_on_c, 0, 80, 0
2, 132320, Note_on_c, 0, 68, 0
2, 132320, Note_on_c, 0, 77, 42
2, 132480, Note_on_c, 0, 77, 0
2, 132480, Note_on_c, 0, 78, 45
2, 132480, Note_on_c, 0, 66, 45
2, 132640, Note_on_c, 0, 66, 0
2, 132640, Note_on_c, 0, 78, 0
2, 132640, Note_on_c, 0, 75, 45
2, 132800, Note_on_c, 0, 75, 0
2, 132800, Note_on_c, 0, 66, 45
2, 132800, Note_on_c, 0, 78, 45
2, 132960, Note_on_c, 0, 78, 0
2, 132960, Note_on_c, 0, 66, 0
2, 132960, Note_on_c, 0, 67, 41
2, 132960, Note_on_c, 0, 74, 41
2, 132960, Note_on_c, 0, 79, 41
2, 133440, Note_on_c, 0, 79, 0
2, 133440, Note_on_c, 0, 74, 0
2, 133440, Note_on_c, 0, 67, 0
2, 133440, Note_on_c, 0, 81, 48
2, 133440, Note_on_c, 0, 69, 48
2, 133600, Note_on_c, 0, 69, 0
2, 133600, Note_on_c, 0, 81, 0
2, 133600, Note_on_c, 0, 75, 48
2, 133760, Note_on_c, 0, 75, 0
2, 133760, Note_on_c, 0, 69, 48
2, 133760, Note_on_c, 0, 81, 48
2, 133920, Note_on_c, 0, 81, 0
2, 133920, Note_on_c, 0, 69, 0
2, 133920, Note_on_c, 0, 67, 45
2, 133920, Note_on_c, 0, 79, 45
2, 133920, Note_on_c, 0, 74, 45
2, 134400, Note_on_c, 0, 74, 0
2, 134400, Note_on_c, 0, 79, 0
2, 134400, Note_on_c, 0, 67, 0
2, 134400, Note_on_c, 0, 72, 61
2, 134400, Note_on_c, 0, 84, 61
2, 134560, Note_on_c, 0, 84, 0
2, 134560, Note_on_c, 0, 72, 0
2, 134560, Note_on_c, 0, 79, 59
2, 134720, Note_on_c, 0, 79, 0
2, 134720, Note_on_c, 0, 72, 59
2, 134720, Note_on_c, 0, 84, 59
2, 134880, Note_on_c, 0, 84, 0
2, 134880, Note_on_c, 0, 72, 0
2, 134880, Note_on_c, 0, 86, 58
2, 134880, Note_on_c, 0, 79, 58
2, 134880, Note_on_c, 0, 74, 58
2, 135360, Note_on_c, 0, 74, 0
2, 135360, Note_on_c, 0, 79, 0
2, 135360, Note_on_c, 0, 86, 0
2, 135360, Note_on_c, 0, 88, 69
2, 135360, Note_on_c, 0, 76, 69
2, 135520, Note_on_c, 0, 76, 0
2, 135520, Note_on_c, 0, 88, 0
2, 135520, Note_on_c, 0, 79, 66
2, 135680, Note_on_c, 0, 79, 0
2, 135680, Note_on_c, 0, 76, 66
2, 135680, Note_on_c, 0, 88, 66
2, 135840, Note_on_c, 0, 88, 0
2, 135840, Note_on_c, 0, 76, 0
2, 135840, Note_on_c, 0, 74, 69
2, 135840, Note_on_c, 0, 86, 69
2, 135840, Note_on_c, 0, 79, 69
2, 136320, Note_on_c, 0, 79, 0
2, 136320, Note_on_c, 0, 86, 0
2, 136320, Note_on_c, 0, 74, 0
2, 136320, Note_on_c, 0, 79, 80
2, 136320, Note_on_c, 0, 91, 80
2, 136480, Note_on_c, 0, 91, 0
2, 136480, Note_on_c, 0, 79, 0
2, 136480, Note_on_c, 0, 88, 77
2, 136640, Note_on_c, 0, 88, 0
2, 136640, Note_on_c, 0, 89, 77
2, 136640, Note_on_c, 0, 77, 65
2, 136800, Note_on_c, 0, 77, 0
2, 136800, Note_on_c, 0, 89, 0
2, 136800, Note_on_c, 0, 74, 70
2, 136800, Note_on_c, 0, 62, 70
2, 136800, Note_on_c, 0, 67, 70
2, 137280, Note_on_c, 0, 67, 0
2, 137280, Note_on_c, 0, 62, 0
2, 137280, Note_on_c, 0, 74, 0
2, 137280, Note_on_c, 0, 88, 88
2, 137280, Note_on_c, 0, 76, 74
2, 137440, Note_on_c, 0, 76, 0
2, 137440, Note_on_c, 0, 88, 0
2, 137440, Note_on_c, 0, 79, 84
2, 137600, Note_on_c, 0, 79, 0
2, 137600, Note_on_c, 0, 86, 84
2, 137600, Note_on_c, 0, 74, 71
2, 137760, Note_on_c, 0, 74, 0
2, 137760, Note_on_c, 0, 86, 0
2, 137760, Note_on_c, 0, 70, 79
2, 137760, Note_on_c, 0, 64, 79
2, 137760, Note_on_c, 0, 58, 67
2, 138240, Note_on_c, 0, 58, 0
2, 138240, Note_on_c, 0, 64, 0
2, 138240, Note_on_c, 0, 70, 0
2, 138240, Note_on_c, 0, 72, 78
2, 138240, Note_on_c, 0, 84, 92
2, 138400, Note_on_c, 0, 84, 0
2, 138400, Note_on_c, 0, 72, 0
2, 138400, Note_on_c, 0, 77, 74
2, 138400, Note_on_c, 0, 81, 88
2, 138480, Note_on_c, 0, 81, 0
2, 138480, Note_on_c, 0, 77, 0
2, 138560, Note_on_c, 0, 72, 74
2, 138560, Note_on_c, 0, 84, 88
2, 138680, Note_on_c, 0, 84, 0
2, 138680, Note_on_c, 0, 72, 0
2, 138720, Note_on_c, 0, 76, 92
2, 138720, Note_on_c, 0, 67, 78
2, 138720, Note_on_c, 0, 79, 92
2, 139200, Note_on_c, 0, 79, 0
2, 139200, Note_on_c, 0, 67, 0
2, 139200, Note_on_c, 0, 76, 0
2, 139200, Note_on_c, 0, 69, 77
2, 139200, Note_on_c, 0, 81, 91
2, 139360, Note_on_c, 0, 81, 0
2, 139360, Note_on_c, 0, 69, 0
2, 139360, Note_on_c, 0, 77, 86
2, 139360, Note_on_c, 0, 74, 73
2, 139440, Note_on_c, 0, 74, 0
2, 139440, Note_on_c, 0, 77, 0
2, 139520, Note_on_c, 0, 69, 73
2, 139520, Note_on_c, 0, 81, 86
2, 139640, Note_on_c, 0, 81, 0
2, 139640, Note_on_c, 0, 69, 0
2, 139680, Note_on_c, 0, 72, 92
2, 139680, Note_on_c, 0, 64, 78
2, 139680, Note_on_c, 0, 76, 92
2, 140160, Note_on_c, 0, 76, 0
2, 140160, Note_on_c, 0, 64, 0
2, 140160, Note_on_c, 0, 72, 0
2, 140160, Note_on_c, 0, 67, 78
2, 140160, Note_on_c, 0, 79, 92
2, 140320, Note_on_c, 0, 79, 0
2, 140320, Note_on_c, 0, 67, 0
2, 140320, Note_on_c, 0, 72, 70
2, 140320, Note_on_c, 0, 76, 83
2, 140480, Note_on_c, 0, 76, 0
2, 140480, Note_on_c, 0, 72, 0
2, 140480, Note_on_c, 0, 79, 92
2, 140480, Note_on_c, 0, 67, 78
2, 140640, Note_on_c, 0, 67, 0
2, 140640, Note_on_c, 0, 79, 0
2, 140640, Note_on_c, 0, 74, 70
2, 140640, Note_on_c, 0, 77, 83
2, 140800, Note_on_c, 0, 77, 0
2, 140800, Note_on_c, 0, 74, 0
2, 140800, Note_on_c, 0, 67, 78
2, 140800, Note_on_c, 0, 79, 92
2, 140960, Note_on_c, 0, 79, 0
2, 140960, Note_on_c, 0, 67, 0
2, 140960, Note_on_c, 0, 76, 83
2, 140960, Note_on_c, 0, 72, 70
2, 141120, Note_on_c, 0, 72, 0
2, 141120, Note_on_c, 0, 76, 0
2, 141120, Note_on_c, 0, 79, 92
2, 141120, Note_on_c, 0, 67, 78
2, 141280, Note_on_c, 0, 67, 0
2, 141280, Note_on_c, 0, 79, 0
2, 141280, Note_on_c, 0, 69, 73
2, 141280, Note_on_c, 0, 72, 86
2, 141440, Note_on_c, 0, 72, 0
2, 141440, Note_on_c, 0, 69, 0
2, 141440, Note_on_c, 0, 67, 73
2, 141440, Note_on_c, 0, 79, 86
2, 141600, Note_on_c, 0, 79, 0
2, 141600, Note_on_c, 0, 67, 0
2, 141600, Note_on_c, 0, 74, 77
2, 141600, Note_on_c, 0, 67, 69
2, 141600, Note_on_c, 0, 71, 76
2, 141600, Note_on_c, 0, 79, 92
2, 142080, Note_on_c, 0, 79, 0
2, 142080, Note_on_c, 0, 74, 0
2, 142080, Note_on_c, 0, 67, 0
2, 142080, Note_on_c, 0, 71, 0
2, 142080, Note_on_c, 0, 72, 75
2, 142080, Note_on_c, 0, 84, 89
2, 142240, Note_on_c, 0, 84, 0
2, 142240, Note_on_c, 0, 72, 0
2, 142240, Note_on_c, 0, 83, 70
2, 142240, Note_on_c, 0, 79, 59
2, 142400, Note_on_c, 0, 79, 0
2, 142400, Note_on_c, 0, 83, 0
2, 142400, Note_on_c, 0, 72, 67
2, 142400, Note_on_c, 0, 84, 79
2, 142560, Note_on_c, 0, 84, 0
2, 142560, Note_on_c, 0, 72, 0
2, 142560, Note_on_c, 0, 77, 52
2, 142560, Note_on_c, 0, 81, 62
2, 142720, Note_on_c, 0, 81, 0
2, 142720, Note_on_c, 0, 77, 0
2, 142720, Note_on_c, 0, 72, 66
2, 142720, Note_on_c, 0, 84, 78
2, 142880, Note_on_c, 0, 84, 0
2, 142880, Note_on_c, 0, 72, 0
2, 142880, Note_on_c, 0, 76, 52
2, 142880, Note_on_c, 0, 79, 62
2, 143040, Note_on_c, 0, 79, 0
2, 143040, Note_on_c, 0, 76, 0
2, 143040, Note_on_c, 0, 81, 85
2, 143040, Note_on_c, 0, 69, 72
2, 143200, Note_on_c, 0, 69, 0
2, 143200, Note_on_c, 0, 81, 0
2, 143200, Note_on_c, 0, 76, 59
2, 143200, Note_on_c, 0, 79, 70
2, 143360, Note_on_c, 0, 79, 0
2, 143360, Note_on_c, 0, 76, 0
2, 143360, Note_on_c, 0, 69, 67
2, 143360, Note_on_c, 0, 81, 79
2, 143520, Note_on_c, 0, 81, 0
2, 143520, Note_on_c, 0, 69, 0
2, 143520, Note_on_c, 0, 77, 63
2, 143520, Note_on_c, 0, 74, 53
2, 143680, Note_on_c, 0, 74, 0
2, 143680, Note_on_c, 0, 77, 0
2, 143680, Note_on_c, 0, 81, 80
2, 143680, Note_on_c, 0, 69, 68
2, 143840, Note_on_c, 0, 69, 0
2, 143840, Note_on_c, 0, 81, 0
2, 143840, Note_on_c, 0, 72, 51
2, 143840, Note_on_c, 0, 76, 61
2, 144000, Note_on_c, 0, 76, 0
2, 144000, Note_on_c, 0, 72, 0
2, 144000, Note_on_c, 0, 67, 74
2, 144000, Note_on_c, 0, 79, 88
2, 144160, Note_on_c, 0, 79, 0
2, 144160, Note_on_c, 0, 67, 0
2, 144160, Note_on_c, 0, 77, 70
2, 144160, Note_on_c, 0, 74, 59
2, 144320, Note_on_c, 0, 74, 0
2, 144320, Note_on_c, 0, 77, 0
2, 144320, Note_on_c, 0, 67, 72
2, 144320, Note_on_c, 0, 79, 85
2, 144480, Note_on_c, 0, 79, 0
2, 144480, Note_on_c, 0, 67, 0
2, 144480, Note_on_c, 0, 72, 56
2, 144480, Note_on_c, 0, 76, 66
2, 144640, Note_on_c, 0, 76, 0
2, 144640, Note_on_c, 0, 72, 0
2, 144640, Note_on_c, 0, 79, 83
2, 144640, Note_on_c, 0, 67, 70
2, 144800, Note_on_c, 0, 67, 0
2, 144800, Note_on_c, 0, 79, 0
2, 144800, Note_on_c, 0, 69, 56
2, 144800, Note_on_c, 0, 72, 66
2, 144960, Note_on_c, 0, 72, 0
2, 144960, Note_on_c, 0, 69, 0
2, 144960, Note_on_c, 0, 67, 66
2, 144960, Note_on_c, 0, 72, 66
2, 144960, Note_on_c, 0, 76, 92
2, 144960, Note_on_c, 0, 79, 92
2, 145440, Note_on_c, 0, 79, 0
2, 145440, Note_on_c, 0, 67, 0
2, 145440, Note_on_c, 0, 72, 0
2, 145440, Note_on_c, 0, 76, 0
2, 145440, Note_on_c, 0, 79, 89
2, 145440, Note_on_c, 0, 67, 62
2, 145440, Note_on_c, 0, 71, 70
2, 145440, Note_on_c, 0, 74, 79
2, 145560, Note_on_c, 0, 74, 0
2, 145560, Note_on_c, 0, 79, 0
2, 145560, Note_on_c, 0, 67, 0
2, 145560, Note_on_c, 0, 71, 0
2, 145920, Control_c, 0, 91, 127
2, 146160, Note_on_c, 0, 64, 37
2, 146160, Note_on_c, 0, 60, 37
2, 146160, Note_on_c, 0, 55, 37
2, 146280, Note_on_c, 0, 55, 0
2, 146280, Note_on_c, 0, 60, 0
2, 146280, Note_on_c, 0, 64, 0
2, 146400, Note_on_c, 0, 55, 37
2, 146400, Note_on_c, 0, 59, 37
2, 146400, Note_on_c, 0, 62, 37
2, 146520, Note_on_c, 0, 62, 0
2, 146520, Note_on_c, 0, 59, 0
2, 146520, Note_on_c, 0, 55, 0
2, 146640, Note_on_c, 0, 64, 35
2, 146640, Note_on_c, 0, 60, 35
2, 146640, Note_on_c, 0, 55, 35
2, 146760, Note_on_c, 0, 55, 0
2, 146760, Note_on_c, 0, 60, 0
2, 146760, Note_on_c, 0, 64, 0
2, 147120, Note_on_c, 0, 65, 37
2, 147120, Note_on_c, 0, 60, 37
2, 147120, Note_on_c, 0, 57, 37
2, 147240, Note_on_c, 0, 57, 0
2, 147240, Note_on_c, 0, 60, 0
2, 147240, Note_on_c, 0, 65, 0
2, 147360, Note_on_c, 0, 60, 37
2, 147360, Note_on_c, 0, 64, 37
2, 147360, Note_on_c, 0, 55, 37
2, 147480, Note_on_c, 0, 55, 0
2, 147480, Note_on_c, 0, 64, 0
2, 147480, Note_on_c, 0, 60, 0
2, 147600, Note_on_c, 0, 60, 35
2, 147600, Note_on_c, 0, 57, 35
2, 147600, Note_on_c, 0, 62, 35
2, 147720, Note_on_c, 0, 62, 0
2, 147720, Note_on_c, 0, 57, 0
2, 147720, Note_on_c, 0, 60, 0
2, 148080, Note_on_c, 0, 55, 37
2, 148080, Note_on_c, 0, 60, 37
2, 148080, Note_on_c, 0, 64, 37
2, 148200, Note_on_c, 0, 64, 0
2, 148200, Note_on_c, 0, 60, 0
2, 148200, Note_on_c, 0, 55, 0
2, 148320, Note_on_c, 0, 62, 37
2, 148320, Note_on_c, 0, 59, 37
2, 148320, Note_on_c, 0, 53, 37
2, 148440, Note_on_c, 0, 53, 0
2, 148440, Note_on_c, 0, 59, 0
2, 148440, Note_on_c, 0, 62, 0
2, 148560, Note_on_c, 0, 52, 35
2, 148560, Note_on_c, 0, 60, 35
2, 148680, Note_on_c, 0, 60, 0
2, 148680, Note_on_c, 0, 52, 0
2, 148800, Note_on_c, 0, 59, 37
2, 148800, Note_on_c, 0, 50, 37
2, 148800, Note_on_c, 0, 62, 37
2, 148920, Note_on_c, 0, 62, 0
2, 148920, Note_on_c, 0, 50, 0
2, 148920, Note_on_c, 0, 59, 0
2, 149040, Note_on_c, 0, 55, 37
2, 149160, Note_on_c, 0, 55, 0
2, 149520, Note_on_c, 0, 60, 37
2, 149520, Note_on_c, 0, 57, 37
2, 149520, Note_on_c, 0, 48, 37
2, 149640, Note_on_c, 0, 48, 0
2, 149640, Note_on_c, 0, 57, 0
2, 149640, Note_on_c, 0, 60, 0
2, 150000, Note_on_c, 0, 67, 37
2, 150000, Note_on_c, 0, 60, 37
2, 150000, Note_on_c, 0, 72, 37
2, 150000, Note_on_c, 0, 71, 37
2, 150120, Note_on_c, 0, 71, 0
2, 150120, Note_on_c, 0, 67, 0
2, 150120, Note_on_c, 0, 60, 0
2, 150120, Note_on_c, 0, 72, 0
2, 150480, Note_on_c, 0, 84, 37
2, 150480, Note_on_c, 0, 81, 37
2, 150480, Note_on_c, 0, 77, 37
2, 150480, Note_on_c, 0, 72, 37
2, 150600, Note_on_c, 0, 72, 0
2, 150600, Note_on_c, 0, 84, 0
2, 150600, Note_on_c, 0, 81, 0
2, 150600, Note_on_c, 0, 77, 0
2, 150960, Note_on_c, 0, 76, 36
2, 150960, Note_on_c, 0, 84, 36
2, 150960, Note_on_c, 0, 79, 36
2, 151080, Note_on_c, 0, 79, 0
2, 151080, Note_on_c, 0, 84, 0
2, 151080, Note_on_c, 0, 76, 0
2, 151200, Note_on_c, 0, 83, 37
2, 151200, Note_on_c, 0, 79, 37
2, 151200, Note_on_c, 0, 74, 37
2, 151320, Note_on_c, 0, 74, 0
2, 151320, Note_on_c, 0, 79, 0
2, 151320, Note_on_c, 0, 83, 0
2, 151440, Note_on_c, 0, 76, 35
2, 151440, Note_on_c, 0, 79, 35
2, 151440, Note_on_c, 0, 84, 35
2, 151560, Note_on_c, 0, 84, 0
2, 151560, Note_on_c, 0, 79, 0
2, 151560, Note_on_c, 0, 76, 0
2, 151920, Note_on_c, 0, 81, 35
2, 151920, Note_on_c, 0, 84, 35
2, 151920, Note_on_c, 0, 88, 35
2, 152040, Note_on_c, 0, 88, 0
2, 152040, Note_on_c, 0, 84, 0
2, 152040, Note_on_c, 0, 81, 0
2, 152160, Note_on_c, 0, 86, 37
2, 152160, Note_on_c, 0, 81, 37
2, 152160, Note_on_c, 0, 77, 37
2, 152280, Note_on_c, 0, 77, 0
2, 152280, Note_on_c, 0, 81, 0
2, 152280, Note_on_c, 0, 86, 0
2, 152400, Note_on_c, 0, 76, 35
2, 152400, Note_on_c, 0, 84, 35
2, 152400, Note_on_c, 0, 81, 35
2, 152520, Note_on_c, 0, 81, 0
2, 152520, Note_on_c, 0, 84, 0
2, 152520, Note_on_c, 0, 76, 0
2, 152880, Note_on_c, 0, 83, 35
2, 152880, Note_on_c, 0, 79, 35
2, 152880, Note_on_c, 0, 76, 35
2, 153000, Note_on_c, 0, 76, 0
2, 153000, Note_on_c, 0, 79, 0
2, 153000, Note_on_c, 0, 83, 0
2, 153120, Note_on_c, 0, 81, 37
2, 153120, Note_on_c, 0, 76, 37
2, 153120, Note_on_c, 0, 72, 37
2, 153240, Note_on_c, 0, 72, 0
2, 153240, Note_on_c, 0, 76, 0
2, 153240, Note_on_c, 0, 81, 0
2, 153360, Note_on_c, 0, 79, 35
2, 153360, Note_on_c, 0, 76, 35
2, 153360, Note_on_c, 0, 71, 35
2, 153480, Note_on_c, 0, 71, 0
2, 153480, Note_on_c, 0, 76, 0
2, 153480, Note_on_c, 0, 79, 0
2, 153600, Note_on_c, 0, 66, 39
2, 153600, Note_on_c, 0, 75, 39
2, 153600, Note_on_c, 0, 78, 39
2, 153720, Note_on_c, 0, 78, 0
2, 153720, Note_on_c, 0, 75, 0
2, 153720, Note_on_c, 0, 66, 0
2, 153840, Note_on_c, 0, 71, 37
2, 153960, Note_on_c, 0, 71, 0
2, 154320, Note_on_c, 0, 76, 37
2, 154440, Note_on_c, 0, 76, 0
2, 154800, Note_on_c, 0, 76, 28
2, 154800, Note_on_c, 0, 75, 28
2, 154800, Note_on_c, 0, 64, 28
2, 154920, Note_on_c, 0, 64, 0
2, 154920, Note_on_c, 0, 75, 0
2, 154920, Note_on_c, 0, 76, 0
2, 155280, Note_on_c, 0, 64, 27
2, 155280, Note_on_c, 0, 62, 27
2, 155280, Note_on_c, 0, 52, 27
2, 155400, Note_on_c, 0, 52, 0
2, 155400, Note_on_c, 0, 62, 0
2, 155400, Note_on_c, 0, 64, 0
2, 155520, Control_c, 0, 91, 127
2, 155760, Note_on_c, 0, 55, 28
2, 155760, Note_on_c, 0, 60, 28
2, 155760, Note_on_c, 0, 64, 28
2, 155880, Note_on_c, 0, 64, 0
2, 155880, Note_on_c, 0, 60, 0
2, 155880, Note_on_c, 0, 55, 0
2, 156000, Note_on_c, 0, 62, 29
2, 156000, Note_on_c, 0, 59, 29
2, 156000, Note_on_c, 0, 55, 29
2, 156120, Note_on_c, 0, 55, 0
2, 156120, Note_on_c, 0, 59, 0
2, 156120, Note_on_c, 0, 62, 0
2, 156240, Note_on_c, 0, 55, 27
2, 156240, Note_on_c, 0, 64, 27
2, 156240, Note_on_c, 0, 60, 27
2, 156360, Note_on_c, 0, 60, 0
2, 156360, Note_on_c, 0, 64, 0
2, 156360, Note_on_c, 0, 55, 0
2, 156720, Note_on_c, 0, 65, 35
2, 156720, Note_on_c, 0, 60, 35
2, 156720, Note_on_c, 0, 57, 35
2, 156840, Note_on_c, 0, 57, 0
2, 156840, Note_on_c, 0, 60, 0
2, 156840, Note_on_c, 0, 65, 0
2, 156960, Note_on_c, 0, 64, 35
2, 156960, Note_on_c, 0, 55, 35
2, 156960, Note_on_c, 0, 60, 35
2, 157080, Note_on_c, 0, 60, 0
2, 157080, Note_on_c, 0, 55, 0
2, 157080, Note_on_c, 0, 64, 0
2, 157200, Note_on_c, 0, 62, 33
2, 157200, Note_on_c, 0, 57, 33
2, 157200, Note_on_c, 0, 60, 33
2, 157320, Note_on_c, 0, 60, 0
2, 157320, Note_on_c, 0, 57, 0
2, 157320, Note_on_c, 0, 62, 0
2, 157680, Note_on_c, 0, 64, 33
2, 157680, Note_on_c, 0, 60, 33
2, 157680, Note_on_c, 0, 55, 33
2, 157800, Note_on_c, 0, 55, 0
2, 157800, Note_on_c, 0, 60, 0
2, 157800, Note_on_c, 0, 64, 0
2, 157920, Note_on_c, 0, 53, 33
2, 157920, Note_on_c, 0, 62, 33
2, 157920, Note_on_c, 0, 59, 33
2, 158040, Note_on_c, 0, 59, 0
2, 158040, Note_on_c, 0, 62, 0
2, 158040, Note_on_c, 0, 53, 0
2, 158160, Note_on_c, 0, 52, 31
2, 158160, Note_on_c, 0, 60, 31
2, 158280, Note_on_c, 0, 60, 0
2, 158280, Note_on_c, 0, 52, 0
2, 158400, Note_on_c, 0, 50, 31
2, 158400, Note_on_c, 0, 62, 31
2, 158400, Note_on_c, 0, 59, 31
2, 158520, Note_on_c, 0, 59, 0
2, 158520, Note_on_c, 0, 62, 0
2, 158520, Note_on_c, 0, 50, 0
2, 158640, Note_on_c, 0, 55, 30
2, 158760, Note_on_c, 0, 55, 0
2, 159120, Note_on_c, 0, 60, 30
2, 159120, Note_on_c, 0, 48, 30
2, 159240, Note_on_c, 0, 48, 0
2, 159240, Note_on_c, 0, 60, 0
2, 159600, Note_on_c, 0, 72, 26
2, 159600, Note_on_c, 0, 70, 26
2, 159600, Note_on_c, 0, 60, 26
2, 159720, Note_on_c, 0, 60, 0
2, 159720, Note_on_c, 0, 70, 0
2, 159720, Note_on_c, 0, 72, 0
2, 160080, Note_on_c, 0, 84, 24
2, 160080, Note_on_c, 0, 80, 24
2, 160080, Note_on_c, 0, 72, 24
2, 160200, Note_on_c, 0, 72, 0
2, 160200, Note_on_c, 0, 80, 0
2, 160200, Note_on_c, 0, 84, 0
2, 160560, Note_on_c, 0, 84, 29
2, 160560, Note_on_c, 0, 79, 29
2, 160560, Note_on_c, 0, 75, 29
2, 160800, Note_on_c, 0, 75, 0
2, 160800, Note_on_c, 0, 84, 0
2, 160800, Note_on_c, 0, 83, 29
2, 160800, Note_on_c, 0, 74, 29
2, 161040, Note_on_c, 0, 74, 0
2, 161040, Note_on_c, 0, 83, 0
2, 161040, Note_on_c, 0, 75, 28
2, 161040, Note_on_c, 0, 84, 28
2, 161280, Note_on_c, 0, 84, 0
2, 161280, Note_on_c, 0, 75, 0
2, 161280, Note_on_c, 0, 79, 0
2, 161520, Note_on_c, 0, 72, 26
2, 161520, Note_on_c, 0, 79, 26
2, 161520, Note_on_c, 0, 75, 26
2, 161760, Note_on_c, 0, 75, 0
2, 161760, Note_on_c, 0, 79, 0
2, 161760, Note_on_c, 0, 74, 26
2, 161760, Note_on_c, 0, 77, 26
2, 162000, Note_on_c, 0, 77, 0
2, 162000, Note_on_c, 0, 74, 0
2, 162000, Note_on_c, 0, 75, 25
2, 162000, Note_on_c, 0, 79, 25
2, 162240, Note_on_c, 0, 79, 0
2, 162240, Note_on_c, 0, 75, 0
2, 162240, Note_on_c, 0, 72, 0
2, 162480, Note_on_c, 0, 75, 26
2, 162480, Note_on_c, 0, 67, 26
2, 162480, Note_on_c, 0, 72, 26
2, 162720, Note_on_c, 0, 72, 0
2, 162720, Note_on_c, 0, 75, 0
2, 162720, Note_on_c, 0, 71, 26
2, 162720, Note_on_c, 0, 74, 26
2, 162960, Note_on_c, 0, 74, 0
2, 162960, Note_on_c, 0, 71, 0
2, 162960, Note_on_c, 0, 72, 26
2, 162960, Note_on_c, 0, 75, 26
2, 163200, Note_on_c, 0, 75, 0
2, 163200, Note_on_c, 0, 72, 0
2, 163200, Note_on_c, 0, 67, 0
2, 163200, Note_on_c, 0, 72, 29
2, 163200, Note_on_c, 0, 68, 29
2, 163680, Note_on_c, 0, 68, 0
2, 163680, Note_on_c, 0, 72, 0
2, 163680, Note_on_c, 0, 68, 27
2, 163680, Note_on_c, 0, 65, 27
2, 163680, Note_on_c, 0, 72, 27
2, 164160, Note_on_c, 0, 72, 0
2, 164160, Note_on_c, 0, 65, 0
2, 164160, Note_on_c, 0, 68, 0
2, 164160, Note_on_c, 0, 72, 26
2, 164160, Note_on_c, 0, 68, 26
2, 164160, Note_on_c, 0, 60, 26
2, 164640, Note_on_c, 0, 60, 0
2, 164640, Note_on_c, 0, 68, 0
2, 164640, Note_on_c, 0, 72, 0
2, 164640, Note_on_c, 0, 65, 25
2, 164640, Note_on_c, 0, 73, 25
2, 165120, Note_on_c, 0, 73, 0
2, 165120, Note_on_c, 0, 65, 0
2, 165360, Note_on_c, 0, 80, 29
2, 165360, Note_on_c, 0, 86, 29
2, 165360, Note_on_c, 0, 77, 29
2, 165600, Note_on_c, 0, 77, 0
2, 165600, Note_on_c, 0, 86, 0
2, 165600, Note_on_c, 0, 84, 29
2, 165600, Note_on_c, 0, 75, 29
2, 165840, Note_on_c, 0, 75, 0
2, 165840, Note_on_c, 0, 84, 0
2, 165840, Note_on_c, 0, 77, 27
2, 165840, Note_on_c, 0, 86, 27
2, 166080, Note_on_c, 0, 86, 0
2, 166080, Note_on_c, 0, 77, 0
2, 166080, Note_on_c, 0, 80, 0
2, 166320, Note_on_c, 0, 82, 26
2, 166320, Note_on_c, 0, 79, 26
2, 166320, Note_on_c, 0, 74, 26
2, 166560, Note_on_c, 0, 79, 0
2, 166560, Note_on_c, 0, 82, 0
2, 166560, Note_on_c, 0, 77, 26
2, 166560, Note_on_c, 0, 80, 26
2, 166800, Note_on_c, 0, 80, 0
2, 166800, Note_on_c, 0, 77, 0
2, 166800, Note_on_c, 0, 82, 26
2, 166800, Note_on_c, 0, 79, 26
2, 167040, Note_on_c, 0, 79, 0
2, 167040, Note_on_c, 0, 82, 0
2, 167040, Note_on_c, 0, 74, 0
2, 167280, Note_on_c, 0, 79, 26
2, 167280, Note_on_c, 0, 70, 26
2, 167280, Note_on_c, 0, 75, 26
2, 167520, Note_on_c, 0, 75, 0
2, 167520, Note_on_c, 0, 79, 0
2, 167520, Note_on_c, 0, 77, 26
2, 167520, Note_on_c, 0, 74, 26
2, 167760, Note_on_c, 0, 74, 0
2, 167760, Note_on_c, 0, 77, 0
2, 167760, Note_on_c, 0, 75, 26
2, 167760, Note_on_c, 0, 79, 26
2, 168000, Note_on_c, 0, 79, 0
2, 168000, Note_on_c, 0, 75, 0
2, 168000, Note_on_c, 0, 70, 0
2, 168000, Note_on_c, 0, 75, 29
2, 168000, Note_on_c, 0, 72, 29
2, 168480, Note_on_c, 0, 72, 0
2, 168480, Note_on_c, 0, 75, 0
2, 168480, Note_on_c, 0, 68, 27
2, 168480, Note_on_c, 0, 75, 27
2, 168480, Note_on_c, 0, 72, 27
2, 168960, Note_on_c, 0, 72, 0
2, 168960, Note_on_c, 0, 75, 0
2, 168960, Note_on_c, 0, 68, 0
2, 168960, Note_on_c, 0, 72, 26
2, 168960, Note_on_c, 0, 75, 26
2, 168960, Note_on_c, 0, 63, 26
2, 169440, Note_on_c, 0, 63, 0
2, 169440, Note_on_c, 0, 75, 0
2, 169440, Note_on_c, 0, 72, 0
2, 169440, Note_on_c, 0, 68, 25
2, 169440, Note_on_c, 0, 77, 25
2, 169920, Note_on_c, 0, 77, 0
2, 169920, Note_on_c, 0, 68, 0
2, 170160, Note_on_c, 0, 86, 29
2, 170160, Note_on_c, 0, 91, 29
2, 170160, Note_on_c, 0, 82, 29
2, 170400, Note_on_c, 0, 82, 0
2, 170400, Note_on_c, 0, 91, 0
2, 170400, Note_on_c, 0, 89, 29
2, 170400, Note_on_c, 0, 80, 29
2, 170640, Note_on_c, 0, 80, 0
2, 170640, Note_on_c, 0, 89, 0
2, 170640, Note_on_c, 0, 82, 27
2, 170640, Note_on_c, 0, 91, 27
2, 170880, Note_on_c, 0, 91, 0
2, 170880, Note_on_c, 0, 82, 0
2, 170880, Note_on_c, 0, 86, 0
2, 171120, Note_on_c, 0, 84, 26
2, 171120, Note_on_c, 0, 87, 26
2, 171120, Note_on_c, 0, 79, 26
2, 171360, Note_on_c, 0, 87, 0
2, 171360, Note_on_c, 0, 84, 0
2, 171360, Note_on_c, 0, 82, 26
2, 171360, Note_on_c, 0, 86, 26
2, 171600, Note_on_c, 0, 86, 0
2, 171600, Note_on_c, 0, 82, 0
2, 171600, Note_on_c, 0, 87, 26
2, 171600, Note_on_c, 0, 84, 26
2, 171840, Note_on_c, 0, 84, 0
2, 171840, Note_on_c, 0, 87, 0
2, 171840, Note_on_c, 0, 79, 0
2, 172080, Note_on_c, 0, 84, 26
2, 172080, Note_on_c, 0, 75, 26
2, 172080, Note_on_c, 0, 80, 26
2, 172320, Note_on_c, 0, 80, 0
2, 172320, Note_on_c, 0, 84, 0
2, 172320, Note_on_c, 0, 82, 26
2, 172320, Note_on_c, 0, 79, 26
2, 172560, Note_on_c, 0, 79, 0
2, 172560, Note_on_c, 0, 82, 0
2, 172560, Note_on_c, 0, 80, 26
2, 172560, Note_on_c, 0, 84, 26
2, 172800, Note_on_c, 0, 84, 0
2, 172800, Note_on_c, 0, 80, 0
2, 172800, Note_on_c, 0, 75, 0
2, 172800, Note_on_c, 0, 80, 30
2, 172800, Note_on_c, 0, 77, 30
2, 173280, Note_on_c, 0, 77, 0
2, 173280, Note_on_c, 0, 80, 0
2, 173280, Note_on_c, 0, 80, 30
2, 173280, Note_on_c, 0, 74, 30
2, 173280, Note_on_c, 0, 77, 30
2, 173760, Note_on_c, 0, 77, 0
2, 173760, Note_on_c, 0, 74, 0
2, 173760, Note_on_c, 0, 80, 0
2, 173760, Note_on_c, 0, 77, 30
2, 173760, Note_on_c, 0, 80, 30
2, 173760, Note_on_c, 0, 68, 30
2, 174240, Note_on_c, 0, 68, 0
2, 174240, Note_on_c, 0, 80, 0
2, 174240, Note_on_c, 0, 77, 0
2, 174240, Note_on_c, 0, 74, 30
2, 174240, Note_on_c, 0, 80, 30
2, 174720, Note_on_c, 0, 80, 0
2, 174720, Note_on_c, 0, 74, 0
2, 174720, Note_on_c, 0, 72, 29
2, 174720, Note_on_c, 0, 75, 29
2, 174720, Note_on_c, 0, 78, 29
2, 174720, Note_on_c, 0, 81, 29
2, 175200, Note_on_c, 0, 81, 0
2, 175200, Note_on_c, 0, 72, 0
2, 175200, Note_on_c, 0, 75, 0
2, 175200, Note_on_c, 0, 78, 0
2, 175200, Note_on_c, 0, 78, 28
2, 175200, Note_on_c, 0, 81, 28
2, 175200, Note_on_c, 0, 72, 28
2, 175200, Note_on_c, 0, 75, 28
2, 175680, Note_on_c, 0, 75, 0
2, 175680, Note_on_c, 0, 78, 0
2, 175680, Note_on_c, 0, 81, 0
2, 175680, Note_on_c, 0, 72, 0
2, 175680, Note_on_c, 0, 72, 30
2, 175680, Note_on_c, 0, 75, 30
2, 175680, Note_on_c, 0, 78, 30
2, 175680, Note_on_c, 0, 81, 30
2, 176160, Note_on_c, 0, 81, 0
2, 176160, Note_on_c, 0, 72, 0
2, 176160, Note_on_c, 0, 75, 0
2, 176160, Note_on_c, 0, 78, 0
2, 176160, Note_on_c, 0, 78, 30
2, 176160, Note_on_c, 0, 72, 30
2, 176160, Note_on_c, 0, 75, 30
2, 176160, Note_on_c, 0, 81, 30
2, 176640, Note_on_c, 0, 81, 0
2, 176640, Note_on_c, 0, 78, 0
2, 176640, Note_on_c, 0, 72, 0
2, 176640, Note_on_c, 0, 75, 0
2, 176640, Control_c, 0, 91, 127
2, 177120, Note_on_c, 0, 87, 31
2, 177240, Note_on_c, 0, 87, 0
2, 177240, Note_on_c, 0, 84, 30
2, 177360, Note_on_c, 0, 84, 0
2, 177360, Note_on_c, 0, 81, 34
2, 177480, Note_on_c, 0, 81, 0
2, 177480, Note_on_c, 0, 78, 34
2, 177600, Note_on_c, 0, 78, 0
2, 177600, Note_on_c, 0, 72, 37
2, 177720, Note_on_c, 0, 72, 0
2, 177720, Note_on_c, 0, 69, 36
2, 177840, Note_on_c, 0, 69, 0
2, 177840, Note_on_c, 0, 66, 39
2, 177960, Note_on_c, 0, 66, 0
2, 177960, Note_on_c, 0, 63, 38
2, 178080, Note_on_c, 0, 63, 0
2, 181920, Note_on_c, 0, 101, 45
2, 182040, Note_on_c, 0, 101, 0
2, 182040, Note_on_c, 0, 98, 41
2, 182160, Note_on_c, 0, 98, 0
2, 182160, Note_on_c, 0, 89, 35
2, 182280, Note_on_c, 0, 89, 0
2, 182280, Note_on_c, 0, 85, 33
2, 182400, Note_on_c, 0, 85, 0
2, 182400, Note_on_c, 0, 86, 35
2, 182520, Note_on_c, 0, 86, 0
2, 182520, Note_on_c, 0, 82, 33
2, 182640, Note_on_c, 0, 82, 0
2, 182640, Note_on_c, 0, 74, 35
2, 182760, Note_on_c, 0, 74, 0
2, 182760, Note_on_c, 0, 69, 35
2, 182880, Note_on_c, 0, 69, 0
2, 182880, Note_on_c, 0, 70, 35
2, 183000, Note_on_c, 0, 70, 0
2, 183000, Note_on_c, 0, 65, 33
2, 183120, Note_on_c, 0, 65, 0
2, 183120, Note_on_c, 0, 62, 35
2, 183240, Note_on_c, 0, 62, 0
2, 183240, Note_on_c, 0, 60, 33
2, 183360, Note_on_c, 0, 60, 0
2, 186720, Note_on_c, 0, 102, 48
2, 186840, Note_on_c, 0, 102, 0
2, 186840, Note_on_c, 0, 99, 35
2, 186960, Note_on_c, 0, 99, 0
2, 186960, Note_on_c, 0, 90, 35
2, 187080, Note_on_c, 0, 90, 0
2, 187080, Note_on_c, 0, 86, 31
2, 187200, Note_on_c, 0, 86, 0
2, 187200, Note_on_c, 0, 87, 35
2, 187320, Note_on_c, 0, 87, 0
2, 187320, Note_on_c, 0, 83, 33
2, 187440, Note_on_c, 0, 83, 0
2, 187440, Note_on_c, 0, 75, 35
2, 187560, Note_on_c, 0, 75, 0
2, 187560, Note_on_c, 0, 70, 35
2, 187680, Note_on_c, 0, 70, 0
2, 187680, Note_on_c, 0, 71, 35
2, 187800, Note_on_c, 0, 71, 0
2, 187800, Note_on_c, 0, 66, 33
2, 187920, Note_on_c, 0, 66, 0
2, 187920, Note_on_c, 0, 63, 35
2, 188040, Note_on_c, 0, 63, 0
2, 188040, Note_on_c, 0, 61, 33
2, 188160, Note_on_c, 0, 61, 0
2, 191520, Note_on_c, 0, 104, 52
2, 191640, Note_on_c, 0, 104, 0
2, 191640, Note_on_c, 0, 101, 35
2, 191760, Note_on_c, 0, 101, 0
2, 191760, Note_on_c, 0, 92, 35
2, 191880, Note_on_c, 0, 92, 0
2, 191880, Note_on_c, 0, 88, 34
2, 192000, Note_on_c, 0, 88, 0
2, 192000, Note_on_c, 0, 89, 35
2, 192120, Note_on_c, 0, 89, 0
2, 192120, Note_on_c, 0, 85, 34
2, 192240, Note_on_c, 0, 85, 0
2, 192240, Note_on_c, 0, 77, 35
2, 192360, Note_on_c, 0, 77, 0
2, 192360, Note_on_c, 0, 72, 33
2, 192480, Note_on_c, 0, 72, 0
2, 192480, Note_on_c, 0, 73, 35
2, 192600, Note_on_c, 0, 73, 0
2, 192600, Note_on_c, 0, 68, 34
2, 192720, Note_on_c, 0, 68, 0
2, 192720, Note_on_c, 0, 65, 35
2, 192840, Note_on_c, 0, 65, 0
2, 192840, Note_on_c, 0, 63, 34
2, 192960, Note_on_c, 0, 63, 0
2, 193440, Note_on_c, 0, 73, 41
2, 193440, Note_on_c, 0, 61, 41
2, 193920, Note_on_c, 0, 61, 0
2, 193920, Note_on_c, 0, 73, 0
2, 193920, Note_on_c, 0, 73, 41
2, 193920, Note_on_c, 0, 61, 41
2, 193920, Note_on_c, 0, 70, 41
2, 194400, Note_on_c, 0, 70, 0
2, 194400, Note_on_c, 0, 61, 0
2, 194400, Note_on_c, 0, 73, 0
2, 194400, Note_on_c, 0, 70, 52
2, 194400, Note_on_c, 0, 66, 52
2, 194400, Note_on_c, 0, 75, 52
2, 194400, Note_on_c, 0, 78, 52
2, 194880, Note_on_c, 0, 78, 0
2, 194880, Note_on_c, 0, 70, 0
2, 194880, Note_on_c, 0, 66, 0
2, 194880, Note_on_c, 0, 75, 0
2, 194880, Note_on_c, 0, 66, 57
2, 194880, Note_on_c, 0, 78, 57
2, 194880, Note_on_c, 0, 71, 57
2, 194880, Note_on_c, 0, 75, 57
2, 195360, Note_on_c, 0, 75, 0
2, 195360, Note_on_c, 0, 66, 0
2, 195360, Note_on_c, 0, 78, 0
2, 195360, Note_on_c, 0, 71, 0
2, 195360, Note_on_c, 0, 83, 63
2, 195360, Note_on_c, 0, 80, 63
2, 195360, Note_on_c, 0, 75, 63
2, 195360, Note_on_c, 0, 71, 63
2, 195840, Note_on_c, 0, 71, 0
2, 195840, Note_on_c, 0, 83, 0
2, 195840, Note_on_c, 0, 80, 0
2, 195840, Note_on_c, 0, 75, 0
2, 195840, Note_on_c, 0, 70, 63
2, 195840, Note_on_c, 0, 74, 63
2, 195840, Note_on_c, 0, 77, 63
2, 195840, Note_on_c, 0, 82, 63
2, 196320, Note_on_c, 0, 101, 70
2, 196440, Note_on_c, 0, 101, 0
2, 196440, Note_on_c, 0, 98, 56
2, 196560, Note_on_c, 0, 98, 0
2, 196560, Note_on_c, 0, 89, 56
2, 196680, Note_on_c, 0, 89, 0
2, 196680, Note_on_c, 0, 86, 53
2, 196800, Note_on_c, 0, 86, 0
2, 196800, Note_on_c, 0, 82, 0
2, 196800, Note_on_c, 0, 70, 0
2, 196800, Note_on_c, 0, 74, 0
2, 196800, Note_on_c, 0, 77, 0
2, 196800, Note_on_c, 0, 82, 56
2, 196920, Note_on_c, 0, 82, 0
2, 196920, Note_on_c, 0, 74, 53
2, 197040, Note_on_c, 0, 74, 0
2, 197040, Note_on_c, 0, 70, 56
2, 197280, Note_on_c, 0, 70, 0
2, 197280, Note_on_c, 0, 82, 62
2, 197280, Note_on_c, 0, 90, 62
2, 197280, Note_on_c, 0, 87, 62
2, 197280, Note_on_c, 0, 78, 62
2, 197760, Note_on_c, 0, 78, 0
2, 197760, Note_on_c, 0, 82, 0
2, 197760, Note_on_c, 0, 90, 0
2, 197760, Note_on_c, 0, 87, 0
2, 197760, Note_on_c, 0, 89, 62
2, 197760, Note_on_c, 0, 86, 62
2, 197760, Note_on_c, 0, 77, 62
2, 197760, Note_on_c, 0, 82, 62
2, 198240, Note_on_c, 0, 74, 57
2, 198240, Note_on_c, 0, 70, 57
2, 198240, Note_on_c, 0, 65, 57
2, 198240, Note_on_c, 0, 77, 57
2, 198720, Note_on_c, 0, 65, 0
2, 198720, Note_on_c, 0, 77, 0
2, 198720, Note_on_c, 0, 86, 0
2, 198720, Note_on_c, 0, 89, 0
2, 198720, Note_on_c, 0, 82, 0
2, 199200, Note_on_c, 0, 77, 0
2, 199200, Note_on_c, 0, 74, 0
2, 199200, Note_on_c, 0, 70, 0
2, 199200, Note_on_c, 0, 87, 67
2, 199200, Note_on_c, 0, 83, 67
2, 199200, Note_on_c, 0, 78, 67
2, 199200, Note_on_c, 0, 75, 67
2, 199680, Note_on_c, 0, 75, 0
2, 199680, Note_on_c, 0, 87, 0
2, 199680, Note_on_c, 0, 83, 0
2, 199680, Note_on_c, 0, 78, 0
2, 199680, Note_on_c, 0, 73, 67
2, 199680, Note_on_c, 0, 85, 67
2, 199680, Note_on_c, 0, 80, 67
2, 199680, Note_on_c, 0, 77, 67
2, 200160, Note_on_c, 0, 104, 72
2, 200280, Note_on_c, 0, 104, 0
2, 200280, Note_on_c, 0, 101, 68
2, 200400, Note_on_c, 0, 101, 0
2, 200400, Note_on_c, 0, 92, 68
2, 200520, Note_on_c, 0, 92, 0
2, 200520, Note_on_c, 0, 89, 66
2, 200640, Note_on_c, 0, 89, 0
2, 200640, Note_on_c, 0, 77, 0
2, 200640, Note_on_c, 0, 73, 0
2, 200640, Note_on_c, 0, 85, 0
2, 200640, Note_on_c, 0, 80, 0
2, 200640, Note_on_c, 0, 85, 68
2, 200760, Note_on_c, 0, 85, 0
2, 200760, Note_on_c, 0, 77, 67
2, 200880, Note_on_c, 0, 77, 0
2, 200880, Note_on_c, 0, 73, 68
2, 201120, Note_on_c, 0, 73, 0
2, 201120, Note_on_c, 0, 94, 76
2, 201120, Note_on_c, 0, 90, 76
2, 201120, Note_on_c, 0, 85, 69
2, 201120, Note_on_c, 0, 82, 69
2, 201600, Note_on_c, 0, 82, 0
2, 201600, Note_on_c, 0, 94, 0
2, 201600, Note_on_c, 0, 90, 0
2, 201600, Note_on_c, 0, 85, 0
2, 201600, Note_on_c, 0, 85, 69
2, 201600, Note_on_c, 0, 80, 69
2, 201600, Note_on_c, 0, 89, 76
2, 201600, Note_on_c, 0, 92, 76
2, 202080, Note_on_c, 0, 68, 73
2, 202080, Note_on_c, 0, 80, 73
2, 202080, Note_on_c, 0, 77, 73
2, 202080, Note_on_c, 0, 73, 73
2, 202560, Note_on_c, 0, 92, 0
2, 202560, Note_on_c, 0, 89, 0
2, 202560, Note_on_c, 0, 85, 0
2, 202560, Note_on_c, 0, 80, 0
2, 203040, Note_on_c, 0, 68, 0
2, 203040, Note_on_c, 0, 73, 0
2, 203040, Note_on_c, 0, 80, 0
2, 203040, Note_on_c, 0, 77, 0
2, 203040, Note_on_c, 0, 73, 66
2, 203040, Note_on_c, 0, 68, 66
2, 203040, Note_on_c, 0, 76, 66
2, 203040, Note_on_c, 0, 80, 66
2, 203520, Note_on_c, 0, 68, 0
2, 204000, Note_on_c, 0, 73, 0
2, 204000, Note_on_c, 0, 76, 0
2, 204000, Note_on_c, 0, 80, 0
2, 204000, Note_on_c, 0, 80, 79
2, 204000, Note_on_c, 0, 92, 88
2, 204000, Note_on_c, 0, 85, 79
2, 204000, Note_on_c, 0, 88, 79
2, 204480, Note_on_c, 0, 88, 0
2, 204480, Note_on_c, 0, 80, 0
2, 204480, Note_on_c, 0, 92, 0
2, 204480, Note_on_c, 0, 85, 0
2, 204480, Note_on_c, 0, 78, 79
2, 204480, Note_on_c, 0, 82, 79
2, 204480, Note_on_c, 0, 85, 79
2, 204480, Note_on_c, 0, 90, 88
2, 204960, Note_on_c, 0, 90, 0
2, 204960, Note_on_c, 0, 78, 0
2, 204960, Note_on_c, 0, 82, 0
2, 204960, Note_on_c, 0, 85, 0
2, 204960, Note_on_c, 0, 89, 88
2, 204960, Note_on_c, 0, 85, 79
2, 204960, Note_on_c, 0, 77, 79
2, 204960, Note_on_c, 0, 82, 79
2, 205440, Note_on_c, 0, 82, 0
2, 205440, Note_on_c, 0, 89, 0
2, 205440, Note_on_c, 0, 85, 0
2, 205440, Note_on_c, 0, 77, 0
2, 205440, Note_on_c, 0, 76, 82
2, 205440, Note_on_c, 0, 82, 82
2, 205440, Note_on_c, 0, 85, 82
2, 205440, Note_on_c, 0, 88, 92
2, 205920, Note_on_c, 0, 88, 0
2, 205920, Note_on_c, 0, 76, 0
2, 205920, Note_on_c, 0, 82, 0
2, 205920, Note_on_c, 0, 85, 0
2, 205920, Note_on_c, 0, 87, 94
2, 205920, Note_on_c, 0, 75, 84
2, 205920, Note_on_c, 0, 83, 84
2, 206400, Note_on_c, 0, 83, 0
2, 206400, Note_on_c, 0, 75, 0
2, 206400, Note_on_c, 0, 87, 0
2, 206400, Note_on_c, 0, 87, 97
2, 206400, Note_on_c, 0, 82, 88
2, 206400, Note_on_c, 0, 75, 88
2, 206880, Note_on_c, 0, 75, 0
2, 206880, Note_on_c, 0, 82, 0
2, 206880, Note_on_c, 0, 87, 0
2, 206880, Note_on_c, 0, 75, 89
2, 206880, Note_on_c, 0, 87, 100
2, 206880, Note_on_c, 0, 81, 89
2, 207360, Note_on_c, 0, 81, 0
2, 207360, Note_on_c, 0, 87, 0
2, 207360, Note_on_c, 0, 75, 0
2, 207360, Note_on_c, 0, 82, 91
2, 207360, Note_on_c, 0, 87, 102
2, 207360, Control_c, 0, 91, 127
2, 207360, Note_on_c, 0, 79, 91
2, 207360, Note_on_c, 0, 75, 91
2, 207720, Note_on_c, 0, 75, 0
2, 207720, Note_on_c, 0, 82, 0
2, 207720, Note_on_c, 0, 87, 0
2, 207720, Note_on_c, 0, 79, 0
2, 207840, Note_on_c, 0, 65, 75
2, 207840, Note_on_c, 0, 77, 84
2, 207840, Note_on_c, 0, 70, 75
2, 207840, Note_on_c, 0, 74, 75
2, 207960, Note_on_c, 0, 74, 0
2, 207960, Note_on_c, 0, 65, 0
2, 207960, Note_on_c, 0, 77, 0
2, 207960, Note_on_c, 0, 70, 0
2, 208080, Note_on_c, 0, 67, 74
2, 208080, Note_on_c, 0, 70, 74
2, 208080, Note_on_c, 0, 75, 83
2, 208080, Note_on_c, 0, 79, 83
2, 208200, Note_on_c, 0, 79, 0
2, 208200, Note_on_c, 0, 67, 0
2, 208200, Note_on_c, 0, 70, 0
2, 208200, Note_on_c, 0, 75, 0
2, 208320, Note_on_c, 0, 80, 95
2, 208320, Note_on_c, 0, 75, 85
2, 208320, Note_on_c, 0, 68, 85
2, 208320, Note_on_c, 0, 72, 85
2, 208800, Note_on_c, 0, 72, 0
2, 208800, Note_on_c, 0, 80, 0
2, 208800, Note_on_c, 0, 75, 0
2, 208800, Note_on_c, 0, 68, 0
2, 208800, Note_on_c, 0, 67, 74
2, 208800, Note_on_c, 0, 70, 74
2, 208800, Note_on_c, 0, 75, 74
2, 208800, Note_on_c, 0, 79, 83
2, 208920, Note_on_c, 0, 79, 0
2, 208920, Note_on_c, 0, 67, 0
2, 208920, Note_on_c, 0, 70, 0
2, 208920, Note_on_c, 0, 75, 0
2, 209040, Note_on_c, 0, 75, 73
2, 209040, Note_on_c, 0, 65, 73
2, 209040, Note_on_c, 0, 72, 73
2, 209040, Note_on_c, 0, 77, 82
2, 209160, Note_on_c, 0, 77, 0
2, 209160, Note_on_c, 0, 75, 0
2, 209160, Note_on_c, 0, 65, 0
2, 209160, Note_on_c, 0, 72, 0
2, 209280, Note_on_c, 0, 67, 85
2, 209280, Note_on_c, 0, 70, 85
2, 209280, Note_on_c, 0, 75, 85
2, 209280, Note_on_c, 0, 79, 95
2, 209760, Note_on_c, 0, 79, 0
2, 209760, Note_on_c, 0, 67, 0
2, 209760, Note_on_c, 0, 70, 0
2, 209760, Note_on_c, 0, 75, 0
2, 209760, Note_on_c, 0, 74, 88
2, 209760, Note_on_c, 0, 77, 88
2, 209760, Note_on_c, 0, 65, 79
2, 209760, Note_on_c, 0, 68, 79
2, 209880, Note_on_c, 0, 68, 0
2, 209880, Note_on_c, 0, 74, 0
2, 209880, Note_on_c, 0, 77, 0
2, 209880, Note_on_c, 0, 65, 0
2, 210000, Note_on_c, 0, 63, 74
2, 210000, Note_on_c, 0, 67, 74
2, 210000, Note_on_c, 0, 70, 74
2, 210000, Note_on_c, 0, 75, 83
2, 210120, Note_on_c, 0, 75, 0
2, 210120, Note_on_c, 0, 63, 0
2, 210120, Note_on_c, 0, 67, 0
2, 210120, Note_on_c, 0, 70, 0
2, 210240, Note_on_c, 0, 77, 82
2, 210240, Note_on_c, 0, 65, 73
2, 210240, Note_on_c, 0, 74, 73
2, 210360, Note_on_c, 0, 74, 0
2, 210360, Note_on_c, 0, 65, 0
2, 210360, Note_on_c, 0, 77, 0
2, 210480, Note_on_c, 0, 70, 79
2, 210600, Note_on_c, 0, 70, 0
2, 210720, Note_on_c, 0, 63, 83
2, 210720, Note_on_c, 0, 72, 93
2, 210720, Note_on_c, 0, 75, 93
2, 211200, Note_on_c, 0, 75, 0
2, 211200, Note_on_c, 0, 72, 0
2, 211200, Note_on_c, 0, 63, 0
2, 211200, Note_on_c, 0, 75, 86
2, 211200, Note_on_c, 0, 70, 78
2, 211200, Note_on_c, 0, 74, 86
2, 211200, Note_on_c, 0, 63, 78
2, 211680, Note_on_c, 0, 63, 0
2, 211680, Note_on_c, 0, 75, 0
2, 211680, Note_on_c, 0, 70, 0
2, 211680, Note_on_c, 0, 74, 0
2, 211680, Note_on_c, 0, 63, 77
2, 211680, Note_on_c, 0, 68, 77
2, 211680, Note_on_c, 0, 72, 85
2, 211680, Note_on_c, 0, 75, 85
2, 212100, Note_on_c, 0, 75, 0
2, 212100, Note_on_c, 0, 63, 0
2, 212100, Note_on_c, 0, 68, 0
2, 212100, Note_on_c, 0, 72, 0
2, 212160, Note_on_c, 0, 75, 88
2, 212160, Note_on_c, 0, 63, 79
2, 212160, Note_on_c, 0, 67, 79
2, 212160, Note_on_c, 0, 70, 88
2, 212640, Note_on_c, 0, 70, 0
2, 212640, Note_on_c, 0, 75, 0
2, 212640, Note_on_c, 0, 63, 0
2, 212640, Note_on_c, 0, 67, 0
2, 212640, Note_on_c, 0, 62, 82
2, 212640, Note_on_c, 0, 65, 82
2, 212640, Note_on_c, 0, 70, 82
2, 212640, Note_on_c, 0, 74, 92
2, 212760, Note_on_c, 0, 74, 0
2, 212760, Note_on_c, 0, 62, 0
2, 212760, Note_on_c, 0, 65, 0
2, 212760, Note_on_c, 0, 70, 0
2, 212880, Note_on_c, 0, 70, 79
2, 212880, Note_on_c, 0, 75, 88
2, 212880, Note_on_c, 0, 63, 79
2, 212880, Note_on_c, 0, 67, 79
2, 213000, Note_on_c, 0, 67, 0
2, 213000, Note_on_c, 0, 70, 0
2, 213000, Note_on_c, 0, 75, 0
2, 213000, Note_on_c, 0, 63, 0
2, 213120, Note_on_c, 0, 72, 86
2, 213120, Note_on_c, 0, 75, 86
2, 213120, Note_on_c, 0, 79, 96
2, 213120, Note_on_c, 0, 67, 86
2, 213600, Note_on_c, 0, 67, 0
2, 213600, Note_on_c, 0, 72, 0
2, 213600, Note_on_c, 0, 75, 0
2, 213600, Note_on_c, 0, 79, 0
2, 213600, Note_on_c, 0, 72, 81
2, 213600, Note_on_c, 0, 65, 81
2, 213600, Note_on_c, 0, 68, 81
2, 213600, Note_on_c, 0, 77, 91
2, 213720, Note_on_c, 0, 77, 0
2, 213720, Note_on_c, 0, 72, 0
2, 213720, Note_on_c, 0, 65, 0
2, 213720, Note_on_c, 0, 68, 0
2, 213840, Note_on_c, 0, 63, 80
2, 213840, Note_on_c, 0, 67, 80
2, 213840, Note_on_c, 0, 75, 90
2, 213840, Note_on_c, 0, 72, 80
2, 213960, Note_on_c, 0, 72, 0
2, 213960, Note_on_c, 0, 63, 0
2, 213960, Note_on_c, 0, 67, 0
2, 213960, Note_on_c, 0, 75, 0
2, 214080, Note_on_c, 0, 70, 84
2, 214080, Note_on_c, 0, 67, 84
2, 214080, Note_on_c, 0, 62, 84
2, 214080, Note_on_c, 0, 74, 94
2, 214560, Note_on_c, 0, 74, 0
2, 214560, Note_on_c, 0, 70, 0
2, 214560, Note_on_c, 0, 67, 0
2, 214560, Note_on_c, 0, 62, 0
2, 214560, Note_on_c, 0, 60, 75
2, 214560, Note_on_c, 0, 63, 75
2, 214560, Note_on_c, 0, 67, 75
2, 214560, Note_on_c, 0, 72, 84
2, 214680, Note_on_c, 0, 72, 0
2, 214680, Note_on_c, 0, 60, 0
2, 214680, Note_on_c, 0, 63, 0
2, 214680, Note_on_c, 0, 67, 0
2, 214800, Note_on_c, 0, 62, 72
2, 214800, Note_on_c, 0, 58, 72
2, 214800, Note_on_c, 0, 67, 81
2, 214800, Note_on_c, 0, 70, 81
2, 214920, Note_on_c, 0, 70, 0
2, 214920, Note_on_c, 0, 62, 0
2, 214920, Note_on_c, 0, 58, 0
2, 214920, Note_on_c, 0, 67, 0
2, 215040, Note_on_c, 0, 57, 75
2, 215040, Note_on_c, 0, 69, 84
2, 215040, Note_on_c, 0, 66, 84
2, 215160, Note_on_c, 0, 66, 0
2, 215160, Note_on_c, 0, 69, 0
2, 215160, Note_on_c, 0, 57, 0
2, 215280, Note_on_c, 0, 62, 80
2, 215400, Note_on_c, 0, 62, 0
2, 215520, Note_on_c, 0, 67, 90
2, 215520, Note_on_c, 0, 55, 80
2, 216000, Note_on_c, 0, 55, 0
2, 216000, Note_on_c, 0, 67, 0
2, 216000, Note_on_c, 0, 55, 79
2, 216000, Note_on_c, 0, 66, 88
2, 216000, Note_on_c, 0, 67, 88
2, 216480, Note_on_c, 0, 67, 0
2, 216480, Note_on_c, 0, 66, 0
2, 216480, Note_on_c, 0, 55, 0
2, 216480, Note_on_c, 0, 67, 82
2, 216480, Note_on_c, 0, 55, 73
2, 216480, Note_on_c, 0, 65, 82
2, 216900, Note_on_c, 0, 65, 0
2, 216900, Note_on_c, 0, 55, 0
2, 216900, Note_on_c, 0, 67, 0
2, 216960, Control_c, 0, 91, 127
2, 216960, Note_on_c, 0, 67, 67
2, 216960, Note_on_c, 0, 70, 67
2, 216960, Note_on_c, 0, 75, 67
2, 216960, Note_on_c, 0, 79, 74
2, 217440, Note_on_c, 0, 79, 0
2, 217440, Note_on_c, 0, 67, 0
2, 217440, Note_on_c, 0, 70, 0
2, 217440, Note_on_c, 0, 75, 0
2, 217440, Note_on_c, 0, 74, 59
2, 217440, Note_on_c, 0, 77, 67
2, 217440, Note_on_c, 0, 65, 59
2, 217440, Note_on_c, 0, 70, 59
2, 217680, Note_on_c, 0, 70, 0
2, 217680, Note_on_c, 0, 74, 0
2, 217680, Note_on_c, 0, 77, 0
2, 217680, Note_on_c, 0, 65, 0
2, 217680, Note_on_c, 0, 67, 64
2, 217680, Note_on_c, 0, 70, 64
2, 217680, Note_on_c, 0, 75, 64
2, 217680, Note_on_c, 0, 79, 72
2, 217920, Note_on_c, 0, 79, 0
2, 217920, Note_on_c, 0, 67, 0
2, 217920, Note_on_c, 0, 70, 0
2, 217920, Note_on_c, 0, 75, 0
2, 217920, Note_on_c, 0, 75, 70
2, 217920, Note_on_c, 0, 68, 70
2, 217920, Note_on_c, 0, 72, 70
2, 217920, Note_on_c, 0, 80, 79
2, 218400, Note_on_c, 0, 80, 0
2, 218400, Note_on_c, 0, 75, 0
2, 218400, Note_on_c, 0, 68, 0
2, 218400, Note_on_c, 0, 72, 0
2, 218400, Note_on_c, 0, 67, 60
2, 218400, Note_on_c, 0, 70, 60
2, 218400, Note_on_c, 0, 79, 68
2, 218400, Note_on_c, 0, 75, 60
2, 218640, Note_on_c, 0, 75, 0
2, 218640, Note_on_c, 0, 67, 0
2, 218640, Note_on_c, 0, 70, 0
2, 218640, Note_on_c, 0, 79, 0
2, 218640, Note_on_c, 0, 77, 70
2, 218640, Note_on_c, 0, 72, 62
2, 218640, Note_on_c, 0, 65, 62
2, 218640, Note_on_c, 0, 75, 62
2, 218880, Note_on_c, 0, 75, 0
2, 218880, Note_on_c, 0, 77, 0
2, 218880, Note_on_c, 0, 72, 0
2, 218880, Note_on_c, 0, 65, 0
2, 218880, Note_on_c, 0, 67, 67
2, 218880, Note_on_c, 0, 70, 67
2, 218880, Note_on_c, 0, 75, 67
2, 218880, Note_on_c, 0, 79, 74
2, 219360, Note_on_c, 0, 79, 0
2, 219360, Note_on_c, 0, 67, 0
2, 219360, Note_on_c, 0, 70, 0
2, 219360, Note_on_c, 0, 75, 0
2, 219360, Note_on_c, 0, 68, 66
2, 219360, Note_on_c, 0, 65, 66
2, 219360, Note_on_c, 0, 74, 66
2, 219360, Note_on_c, 0, 77, 73
2, 219600, Note_on_c, 0, 77, 0
2, 219600, Note_on_c, 0, 68, 0
2, 219600, Note_on_c, 0, 65, 0
2, 219600, Note_on_c, 0, 74, 0
2, 219600, Note_on_c, 0, 63, 63
2, 219600, Note_on_c, 0, 75, 71
2, 219600, Note_on_c, 0, 67, 63
2, 219600, Note_on_c, 0, 70, 63
2, 219840, Note_on_c, 0, 70, 0
2, 219840, Note_on_c, 0, 63, 0
2, 219840, Note_on_c, 0, 75, 0
2, 219840, Note_on_c, 0, 67, 0
2, 219840, Note_on_c, 0, 74, 72
2, 219840, Note_on_c, 0, 65, 64
2, 219840, Note_on_c, 0, 77, 72
2, 220080, Note_on_c, 0, 77, 0
2, 220080, Note_on_c, 0, 65, 0
2, 220080, Note_on_c, 0, 74, 0
2, 220080, Note_on_c, 0, 70, 70
2, 220320, Note_on_c, 0, 70, 0
2, 220320, Note_on_c, 0, 63, 80
2, 220320, Note_on_c, 0, 75, 80
2, 220800, Note_on_c, 0, 75, 0
2, 220800, Note_on_c, 0, 63, 0
2, 220800, Note_on_c, 0, 75, 83
2, 220800, Note_on_c, 0, 73, 83
2, 220800, Note_on_c, 0, 63, 74
2, 221280, Note_on_c, 0, 63, 0
2, 221280, Note_on_c, 0, 73, 0
2, 221280, Note_on_c, 0, 75, 0
2, 221280, Note_on_c, 0, 63, 79
2, 221280, Note_on_c, 0, 70, 89
2, 221280, Note_on_c, 0, 75, 89
2, 221700, Note_on_c, 0, 75, 0
2, 221700, Note_on_c, 0, 70, 0
2, 221700, Note_on_c, 0, 63, 0
2, 221760, Note_on_c, 0, 80, 90
2, 221760, Note_on_c, 0, 83, 90
2, 221760, Note_on_c, 0, 92, 101
2, 221760, Note_on_c, 0, 87, 90
2, 222240, Note_on_c, 0, 87, 0
2, 222240, Note_on_c, 0, 80, 0
2, 222240, Note_on_c, 0, 83, 0
2, 222240, Note_on_c, 0, 92, 0
2, 222240, Note_on_c, 0, 86, 93
2, 222240, Note_on_c, 0, 82, 93
2, 222240, Note_on_c, 0, 74, 83
2, 222360, Note_on_c, 0, 74, 0
2, 222360, Note_on_c, 0, 82, 0
2, 222360, Note_on_c, 0, 86, 0
2, 222480, Note_on_c, 0, 87, 90
2, 222480, Note_on_c, 0, 83, 90
2, 222480, Note_on_c, 0, 75, 80
2, 222600, Note_on_c, 0, 75, 0
2, 222600, Note_on_c, 0, 83, 0
2, 222600, Note_on_c, 0, 87, 0
2, 222720, Note_on_c, 0, 80, 89
2, 222720, Note_on_c, 0, 83, 100
2, 222720, Note_on_c, 0, 76, 89
2, 222720, Note_on_c, 0, 71, 89
2, 223200, Note_on_c, 0, 71, 0
2, 223200, Note_on_c, 0, 80, 0
2, 223200, Note_on_c, 0, 83, 0
2, 223200, Note_on_c, 0, 76, 0
2, 223200, Note_on_c, 0, 79, 88
2, 223200, Note_on_c, 0, 67, 79
2, 223200, Note_on_c, 0, 75, 79
2, 223320, Note_on_c, 0, 75, 0
2, 223320, Note_on_c, 0, 67, 0
2, 223320, Note_on_c, 0, 79, 0
2, 223440, Note_on_c, 0, 68, 77
2, 223440, Note_on_c, 0, 80, 85
2, 223440, Note_on_c, 0, 76, 77
2, 223560, Note_on_c, 0, 76, 0
2, 223560, Note_on_c, 0, 80, 0
2, 223560, Note_on_c, 0, 68, 0
2, 223680, Note_on_c, 0, 76, 96
2, 223680, Note_on_c, 0, 73, 86
2, 223680, Note_on_c, 0, 68, 86
2, 223680, Note_on_c, 0, 64, 86
2, 224160, Note_on_c, 0, 64, 0
2, 224160, Note_on_c, 0, 76, 0
2, 224160, Note_on_c, 0, 73, 0
2, 224160, Note_on_c, 0, 68, 0
2, 224160, Note_on_c, 0, 60, 74
2, 224160, Note_on_c, 0, 72, 83
2, 224160, Note_on_c, 0, 68, 74
2, 224280, Note_on_c, 0, 68, 0
2, 224280, Note_on_c, 0, 72, 0
2, 224280, Note_on_c, 0, 60, 0
2, 224400, Note_on_c, 0, 73, 83
2, 224400, Note_on_c, 0, 64, 74
2, 224400, Note_on_c, 0, 61, 74
2, 224520, Note_on_c, 0, 61, 0
2, 224520, Note_on_c, 0, 64, 0
2, 224520, Note_on_c, 0, 73, 0
2, 224640, Note_on_c, 0, 59, 81
2, 224640, Note_on_c, 0, 71, 91
2, 224640, Note_on_c, 0, 62, 81
2, 224640, Note_on_c, 0, 65, 81
2, 225120, Note_on_c, 0, 65, 0
2, 225120, Note_on_c, 0, 59, 0
2, 225120, Note_on_c, 0, 71, 0
2, 225120, Note_on_c, 0, 62, 0
2, 225120, Note_on_c, 0, 63, 83
2, 225120, Note_on_c, 0, 58, 83
2, 225120, Note_on_c, 0, 70, 93
2, 225240, Note_on_c, 0, 58, 0
2, 225240, Note_on_c, 0, 63, 0
2, 225360, Note_on_c, 0, 59, 82
2, 225360, Note_on_c, 0, 63, 82
2, 225360, Note_on_c, 0, 68, 92
2, 225480, Note_on_c, 0, 68, 0
2, 225480, Note_on_c, 0, 63, 0
2, 225480, Note_on_c, 0, 59, 0
2, 225600, Note_on_c, 0, 70, 0
2, 225600, Note_on_c, 0, 66, 93
2, 225600, Note_on_c, 0, 58, 83
2, 225600, Note_on_c, 0, 63, 83
2, 225600, Note_on_c, 0, 70, 93
2, 225960, Note_on_c, 0, 70, 0
2, 225960, Note_on_c, 0, 66, 0
2, 225960, Note_on_c, 0, 58, 0
2, 225960, Note_on_c, 0, 63, 0
2, 226080, Note_on_c, 0, 56, 83
2, 226080, Note_on_c, 0, 62, 83
2, 226080, Note_on_c, 0, 70, 93
2, 226080, Note_on_c, 0, 65, 83
2, 226440, Note_on_c, 0, 65, 0
2, 226440, Note_on_c, 0, 56, 0
2, 226440, Note_on_c, 0, 62, 0
2, 226440, Note_on_c, 0, 70, 0
2, 226560, Note_on_c, 0, 58, 83
2, 226560, Note_on_c, 0, 54, 83
2, 226560, Control_c, 0, 91, 127
2, 226560, Note_on_c, 0, 63, 93
2, 226680, Note_on_c, 0, 63, 0
2, 226680, Note_on_c, 0, 54, 0
2, 226680, Note_on_c, 0, 58, 0
2, 226920, Note_on_c, 0, 82, 79
2, 226920, Note_on_c, 0, 70, 67
2, 227040, Note_on_c, 0, 70, 0
2, 227040, Note_on_c, 0, 82, 0
2, 227040, Note_on_c, 0, 65, 72
2, 227160, Note_on_c, 0, 65, 0
2, 227400, Note_on_c, 0, 66, 67
2, 227400, Note_on_c, 0, 78, 79
2, 227520, Note_on_c, 0, 78, 0
2, 227520, Note_on_c, 0, 66, 0
2, 227520, Note_on_c, 0, 63, 72
2, 227640, Note_on_c, 0, 63, 0
2, 227880, Note_on_c, 0, 82, 81
2, 227880, Note_on_c, 0, 70, 69
2, 228000, Note_on_c, 0, 70, 0
2, 228000, Note_on_c, 0, 82, 0
2, 228000, Note_on_c, 0, 65, 74
2, 228120, Note_on_c, 0, 65, 0
2, 228360, Note_on_c, 0, 66, 69
2, 228360, Note_on_c, 0, 78, 81
2, 228480, Note_on_c, 0, 78, 0
2, 228480, Note_on_c, 0, 66, 0
2, 228480, Note_on_c, 0, 63, 74
2, 228600, Note_on_c, 0, 63, 0
2, 228840, Note_on_c, 0, 75, 73
2, 228840, Note_on_c, 0, 87, 86
2, 228960, Note_on_c, 0, 87, 0
2, 228960, Note_on_c, 0, 75, 0
2, 228960, Note_on_c, 0, 65, 74
2, 229080, Note_on_c, 0, 65, 0
2, 229320, Note_on_c, 0, 89, 82
2, 229320, Note_on_c, 0, 77, 69
2, 229440, Note_on_c, 0, 77, 0
2, 229440, Note_on_c, 0, 89, 0
2, 229440, Note_on_c, 0, 66, 74
2, 229560, Note_on_c, 0, 66, 0
2, 229800, Note_on_c, 0, 78, 69
2, 229800, Note_on_c, 0, 90, 82
2, 229920, Note_on_c, 0, 90, 0
2, 229920, Note_on_c, 0, 78, 0
2, 229920, Note_on_c, 0, 69, 74
2, 230040, Note_on_c, 0, 69, 0
2, 230280, Note_on_c, 0, 93, 93
2, 230280, Note_on_c, 0, 81, 79
2, 230400, Note_on_c, 0, 81, 0
2, 230400, Note_on_c, 0, 93, 0
2, 230400, Note_on_c, 0, 94, 83
2, 230400, Note_on_c, 0, 82, 74
2, 230400, Note_on_c, 0, 90, 74
2, 230400, Note_on_c, 0, 87, 74
2, 230880, Note_on_c, 0, 87, 0
2, 230880, Note_on_c, 0, 94, 0
2, 230880, Note_on_c, 0, 82, 0
2, 230880, Note_on_c, 0, 90, 0
2, 230880, Note_on_c, 0, 68, 79
2, 230880, Note_on_c, 0, 62, 79
2, 230880, Note_on_c, 0, 70, 79
2, 230880, Note_on_c, 0, 74, 88
2, 231360, Note_on_c, 0, 74, 0
2, 231360, Note_on_c, 0, 68, 0
2, 231360, Note_on_c, 0, 62, 0
2, 231360, Note_on_c, 0, 70, 0
2, 231360, Control_c, 0, 91, 127
2, 231360, Note_on_c, 0, 63, 70
2, 231360, Note_on_c, 0, 66, 70
2, 231360, Note_on_c, 0, 75, 79
2, 231480, Note_on_c, 0, 75, 0
2, 231480, Note_on_c, 0, 66, 0
2, 231480, Note_on_c, 0, 63, 0
2, 231720, Note_on_c, 0, 83, 71
2, 231720, Note_on_c, 0, 71, 59
2, 231840, Note_on_c, 0, 71, 0
2, 231840, Note_on_c, 0, 83, 0
2, 231840, Note_on_c, 0, 66, 66
2, 231960, Note_on_c, 0, 66, 0
2, 232200, Note_on_c, 0, 79, 73
2, 232200, Note_on_c, 0, 67, 73
2, 232320, Note_on_c, 0, 67, 0
2, 232320, Note_on_c, 0, 79, 0
2, 232320, Note_on_c, 0, 63, 66
2, 232440, Note_on_c, 0, 63, 0
2, 232680, Note_on_c, 0, 83, 77
2, 232680, Note_on_c, 0, 71, 65
2, 232800, Note_on_c, 0, 71, 0
2, 232800, Note_on_c, 0, 83, 0
2, 232800, Note_on_c, 0, 66, 66
2, 232920, Note_on_c, 0, 66, 0
2, 233160, Note_on_c, 0, 79, 74
2, 233160, Note_on_c, 0, 67, 62
2, 233280, Note_on_c, 0, 67, 0
2, 233280, Note_on_c, 0, 79, 0
2, 233280, Note_on_c, 0, 63, 66
2, 233400, Note_on_c, 0, 63, 0
2, 233640, Note_on_c, 0, 90, 77
2, 233640, Note_on_c, 0, 78, 57
2, 233760, Note_on_c, 0, 78, 0
2, 233760, Note_on_c, 0, 90, 0
2, 233760, Note_on_c, 0, 65, 72
2, 233880, Note_on_c, 0, 65, 0
2, 234120, Note_on_c, 0, 89, 80
2, 234120, Note_on_c, 0, 77, 60
2, 234240, Note_on_c, 0, 77, 0
2, 234240, Note_on_c, 0, 89, 0
2, 234240, Note_on_c, 0, 63, 71
2, 234360, Note_on_c, 0, 63, 0
2, 234600, Note_on_c, 0, 87, 80
2, 234600, Note_on_c, 0, 75, 60
2, 234720, Note_on_c, 0, 75, 0
2, 234720, Note_on_c, 0, 87, 0
2, 234720, Note_on_c, 0, 57, 69
2, 234840, Note_on_c, 0, 57, 0
2, 235080, Note_on_c, 0, 93, 86
2, 235080, Note_on_c, 0, 81, 78
2, 235200, Note_on_c, 0, 81, 0
2, 235200, Note_on_c, 0, 93, 0
2, 235200, Note_on_c, 0, 94, 82
2, 235200, Note_on_c, 0, 90, 73
2, 235200, Note_on_c, 0, 87, 73
2, 235200, Note_on_c, 0, 82, 73
2, 235680, Note_on_c, 0, 82, 0
2, 235680, Note_on_c, 0, 94, 0
2, 235680, Note_on_c, 0, 90, 0
2, 235680, Note_on_c, 0, 87, 0
2, 235680, Note_on_c, 0, 87, 78
2, 235680, Note_on_c, 0, 75, 71
2, 235680, Note_on_c, 0, 80, 71
2, 235680, Note_on_c, 0, 83, 78
2, 236160, Note_on_c, 0, 83, 0
2, 236160, Note_on_c, 0, 87, 0
2, 236160, Note_on_c, 0, 75, 0
2, 236160, Note_on_c, 0, 80, 0
2, 236160, Note_on_c, 0, 63, 66
2, 236160, Note_on_c, 0, 69, 66
2, 236160, Note_on_c, 0, 72, 66
2, 236160, Note_on_c, 0, 75, 74
2, 236640, Note_on_c, 0, 75, 0
2, 236640, Note_on_c, 0, 63, 0
2, 236640, Note_on_c, 0, 69, 0
2, 236640, Note_on_c, 0, 72, 0
2, 236640, Note_on_c, 0, 62, 63
2, 236640, Note_on_c, 0, 65, 63
2, 236640, Note_on_c, 0, 56, 63
2, 236640, Note_on_c, 0, 58, 63
2, 236640, Note_on_c, 0, 70, 71
2, 237120, Note_on_c, 0, 70, 0
2, 237120, Note_on_c, 0, 56, 0
2, 237120, Note_on_c, 0, 62, 0
2, 237120, Note_on_c, 0, 65, 0
2, 237120, Note_on_c, 0, 58, 0
2, 237120, Control_c, 0, 91, 127
2, 239040, Note_on_c, 0, 63, 53
2, 239120, Note_on_c, 0, 63, 0
2, 239200, Note_on_c, 0, 62, 51
2, 239280, Note_on_c, 0, 62, 0
2, 239360, Note_on_c, 0, 63, 53
2, 239440, Note_on_c, 0, 63, 0
2, 239520, Note_on_c, 0, 65, 53
2, 239600, Note_on_c, 0, 65, 0
2, 239680, Note_on_c, 0, 63, 51
2, 239760, Note_on_c, 0, 63, 0
2, 239840, Note_on_c, 0, 62, 53
2, 239920, Note_on_c, 0, 62, 0
2, 240000, Note_on_c, 0, 66, 56
2, 240080, Note_on_c, 0, 66, 0
2, 240160, Note_on_c, 0, 62, 53
2, 240160, Note_on_c, 0, 65, 53
2, 240240, Note_on_c, 0, 65, 0
2, 240240, Note_on_c, 0, 62, 0
2, 240320, Note_on_c, 0, 63, 56
2, 240320, Note_on_c, 0, 66, 56
2, 240400, Note_on_c, 0, 66, 0
2, 240400, Note_on_c, 0, 63, 0
2, 240480, Note_on_c, 0, 68, 56
2, 240560, Note_on_c, 0, 68, 0
2, 240640, Note_on_c, 0, 66, 52
2, 240640, Note_on_c, 0, 63, 52
2, 240720, Note_on_c, 0, 63, 0
2, 240720, Note_on_c, 0, 66, 0
2, 240800, Note_on_c, 0, 65, 56
2, 240800, Note_on_c, 0, 62, 56
2, 240880, Note_on_c, 0, 62, 0
2, 240880, Note_on_c, 0, 65, 0
2, 240960, Note_on_c, 0, 75, 66
2, 241040, Note_on_c, 0, 75, 0
2, 241120, Note_on_c, 0, 86, 63
2, 241120, Note_on_c, 0, 74, 63
2, 241200, Note_on_c, 0, 74, 0
2, 241200, Note_on_c, 0, 86, 0
2, 241280, Note_on_c, 0, 75, 66
2, 241280, Note_on_c, 0, 87, 66
2, 241360, Note_on_c, 0, 87, 0
2, 241360, Note_on_c, 0, 75, 0
2, 241440, Note_on_c, 0, 77, 66
2, 241520, Note_on_c, 0, 77, 0
2, 241600, Note_on_c, 0, 87, 63
2, 241600, Note_on_c, 0, 75, 63
2, 241680, Note_on_c, 0, 75, 0
2, 241680, Note_on_c, 0, 87, 0
2, 241760, Note_on_c, 0, 77, 66
2, 241760, Note_on_c, 0, 89, 66
2, 241840, Note_on_c, 0, 89, 0
2, 241840, Note_on_c, 0, 77, 0
2, 241920, Note_on_c, 0, 78, 77
2, 242000, Note_on_c, 0, 78, 0
2, 242080, Note_on_c, 0, 77, 74
2, 242080, Note_on_c, 0, 89, 74
2, 242160, Note_on_c, 0, 89, 0
2, 242160, Note_on_c, 0, 77, 0
2, 242240, Note_on_c, 0, 90, 77
2, 242240, Note_on_c, 0, 78, 77
2, 242320, Note_on_c, 0, 78, 0
2, 242320, Note_on_c, 0, 90, 0
2, 242400, Note_on_c, 0, 80, 85
2, 242480, Note_on_c, 0, 80, 0
2, 242560, Note_on_c, 0, 90, 83
2, 242560, Note_on_c, 0, 78, 83
2, 242640, Note_on_c, 0, 78, 0
2, 242640, Note_on_c, 0, 90, 0
2, 242720, Note_on_c, 0, 77, 85
2, 242720, Note_on_c, 0, 89, 85
2, 242800, Note_on_c, 0, 89, 0
2, 242800, Note_on_c, 0, 77, 0
2, 242880, Note_on_c, 0, 87, 78
2, 242880, Note_on_c, 0, 82, 78
2, 242880, Note_on_c, 0, 90, 86
2, 242880, Note_on_c, 0, 78, 78
2, 242960, Note_on_c, 0, 78, 0
2, 242960, Note_on_c, 0, 87, 0
2, 242960, Note_on_c, 0, 82, 0
2, 242960, Note_on_c, 0, 90, 0
2, 243040, Note_on_c, 0, 77, 84
2, 243040, Note_on_c, 0, 89, 84
2, 243120, Note_on_c, 0, 89, 0
2, 243120, Note_on_c, 0, 77, 0
2, 243200, Note_on_c, 0, 78, 86
2, 243200, Note_on_c, 0, 90, 86
2, 243280, Note_on_c, 0, 90, 0
2, 243280, Note_on_c, 0, 78, 0
2, 243360, Note_on_c, 0, 87, 78
2, 243360, Note_on_c, 0, 83, 78
2, 243360, Note_on_c, 0, 92, 86
2, 243360, Note_on_c, 0, 80, 78
2, 243440, Note_on_c, 0, 80, 0
2, 243440, Note_on_c, 0, 87, 0
2, 243440, Note_on_c, 0, 83, 0
2, 243440, Note_on_c, 0, 92, 0
2, 243520, Note_on_c, 0, 78, 83
2, 243520, Note_on_c, 0, 90, 83
2, 243600, Note_on_c, 0, 90, 0
2, 243600, Note_on_c, 0, 78, 0
2, 243680, Note_on_c, 0, 89, 86
2, 243680, Note_on_c, 0, 77, 86
2, 243760, Note_on_c, 0, 77, 0
2, 243760, Note_on_c, 0, 89, 0
2, 243840, Note_on_c, 0, 90, 88
2, 243840, Note_on_c, 0, 87, 79
2, 243840, Note_on_c, 0, 78, 79
2, 243840, Note_on_c, 0, 82, 79
2, 243920, Note_on_c, 0, 82, 0
2, 243920, Note_on_c, 0, 90, 0
2, 243920, Note_on_c, 0, 87, 0
2, 243920, Note_on_c, 0, 78, 0
2, 244000, Note_on_c, 0, 77, 85
2, 244000, Note_on_c, 0, 89, 85
2, 244080, Note_on_c, 0, 89, 0
2, 244080, Note_on_c, 0, 77, 0
2, 244160, Note_on_c, 0, 90, 88
2, 244160, Note_on_c, 0, 78, 88
2, 244240, Note_on_c, 0, 78, 0
2, 244240, Note_on_c, 0, 90, 0
2, 244320, Note_on_c, 0, 83, 79
2, 244320, Note_on_c, 0, 87, 79
2, 244320, Note_on_c, 0, 92, 88
2, 244320, Note_on_c, 0, 80, 79
2, 244400, Note_on_c, 0, 80, 0
2, 244400, Note_on_c, 0, 83, 0
2, 244400, Note_on_c, 0, 87, 0
2, 244400, Note_on_c, 0, 92, 0
2, 244480, Note_on_c, 0, 90, 85
2, 244480, Note_on_c, 0, 78, 85
2, 244560, Note_on_c, 0, 78, 0
2, 244560, Note_on_c, 0, 90, 0
2, 244640, Note_on_c, 0, 77, 88
2, 244640, Note_on_c, 0, 89, 88
2, 244720, Note_on_c, 0, 89, 0
2, 244720, Note_on_c, 0, 77, 0
2, 244800, Note_on_c, 0, 82, 79
2, 244800, Note_on_c, 0, 87, 79
2, 244800, Note_on_c, 0, 90, 88
2, 244800, Note_on_c, 0, 78, 79
2, 244880, Note_on_c, 0, 78, 0
2, 244880, Note_on_c, 0, 82, 0
2, 244880, Note_on_c, 0, 87, 0
2, 244880, Note_on_c, 0, 90, 0
2, 244960, Note_on_c, 0, 77, 85
2, 244960, Note_on_c, 0, 89, 85
2, 245040, Note_on_c, 0, 89, 0
2, 245040, Note_on_c, 0, 77, 0
2, 245120, Note_on_c, 0, 75, 88
2, 245120, Note_on_c, 0, 87, 88
2, 245200, Note_on_c, 0, 87, 0
2, 245200, Note_on_c, 0, 75, 0
2, 245280, Note_on_c, 0, 87, 79
2, 245280, Note_on_c, 0, 83, 79
2, 245280, Note_on_c, 0, 90, 88
2, 245280, Note_on_c, 0, 78, 79
2, 245360, Note_on_c, 0, 78, 0
2, 245360, Note_on_c, 0, 87, 0
2, 245360, Note_on_c, 0, 83, 0
2, 245360, Note_on_c, 0, 90, 0
2, 245440, Note_on_c, 0, 89, 85
2, 245440, Note_on_c, 0, 77, 85
2, 245520, Note_on_c, 0, 77, 0
2, 245520, Note_on_c, 0, 89, 0
2, 245600, Note_on_c, 0, 87, 88
2, 245600, Note_on_c, 0, 75, 88
2, 245680, Note_on_c, 0, 75, 0
2, 245680, Note_on_c, 0, 87, 0
2, 245760, Note_on_c, 0, 90, 89
2, 245760, Note_on_c, 0, 78, 79
2, 245760, Note_on_c, 0, 87, 79
2, 245760, Note_on_c, 0, 84, 79
2, 245760, Note_on_c, 0, 81, 79
2, 245840, Note_on_c, 0, 81, 0
2, 245840, Note_on_c, 0, 87, 0
2, 245840, Note_on_c, 0, 90, 0
2, 245840, Note_on_c, 0, 78, 0
2, 245840, Note_on_c, 0, 84, 0
2, 245920, Note_on_c, 0, 89, 85
2, 245920, Note_on_c, 0, 77, 85
2, 246000, Note_on_c, 0, 77, 0
2, 246000, Note_on_c, 0, 89, 0
2, 246080, Note_on_c, 0, 87, 89
2, 246080, Note_on_c, 0, 75, 89
2, 246160, Note_on_c, 0, 75, 0
2, 246160, Note_on_c, 0, 87, 0
2, 246240, Note_on_c, 0, 82, 79
2, 246240, Note_on_c, 0, 89, 89
2, 246240, Note_on_c, 0, 86, 79
2, 246240, Note_on_c, 0, 77, 79
2, 246320, Note_on_c, 0, 77, 0
2, 246320, Note_on_c, 0, 82, 0
2, 246320, Note_on_c, 0, 89, 0
2, 246320, Note_on_c, 0, 86, 0
2, 246480, Note_on_c, 0, 70, 92
2, 246480, Note_on_c, 0, 82, 92
2, 246560, Note_on_c, 0, 82, 0
2, 246560, Note_on_c, 0, 70, 0
2, 246720, Note_on_c, 0, 75, 101
2, 246720, Note_on_c, 0, 87, 101
2, 246880, Note_on_c, 0, 87, 0
2, 246880, Note_on_c, 0, 75, 0
2, 247200, Note_on_c, 0, 78, 86
2, 247200, Note_on_c, 0, 83, 86
2, 247200, Note_on_c, 0, 87, 96
2, 247200, Note_on_c, 0, 75, 86
2, 247680, Note_on_c, 0, 75, 0
2, 247680, Note_on_c, 0, 78, 0
2, 247680, Note_on_c, 0, 83, 0
2, 247680, Note_on_c, 0, 87, 0
2, 247680, Note_on_c, 0, 85, 96
2, 247680, Note_on_c, 0, 82, 86
2, 247680, Note_on_c, 0, 78, 86
2, 247680, Note_on_c, 0, 73, 86
2, 248160, Note_on_c, 0, 73, 0
2, 248160, Note_on_c, 0, 85, 0
2, 248160, Note_on_c, 0, 82, 0
2, 248160, Note_on_c, 0, 78, 0
2, 248160, Note_on_c, 0, 80, 82
2, 248160, Note_on_c, 0, 83, 92
2, 248160, Note_on_c, 0, 71, 82
2, 248160, Note_on_c, 0, 75, 82
2, 248640, Note_on_c, 0, 75, 0
2, 248640, Note_on_c, 0, 80, 0
2, 248640, Note_on_c, 0, 83, 0
2, 248640, Note_on_c, 0, 71, 0
2, 248640, Note_on_c, 0, 70, 86
2, 248640, Note_on_c, 0, 82, 96
2, 248640, Note_on_c, 0, 75, 86
2, 248640, Note_on_c, 0, 78, 86
2, 249600, Note_on_c, 0, 75, 0
2, 249600, Note_on_c, 0, 70, 0
2, 249600, Note_on_c, 0, 70, 90
2, 249600, Note_on_c, 0, 63, 80
2, 249600, Note_on_c, 0, 66, 80
2, 249600, Note_on_c, 0, 75, 90
2, 249840, Note_on_c, 0, 75, 0
2, 249840, Note_on_c, 0, 63, 0
2, 249840, Note_on_c, 0, 70, 0
2, 249840, Note_on_c, 0, 66, 0
2, 250080, Note_on_c, 0, 63, 80
2, 250080, Note_on_c, 0, 75, 90
2, 250080, Note_on_c, 0, 66, 80
2, 250080, Note_on_c, 0, 70, 80
2, 250320, Note_on_c, 0, 70, 0
2, 250320, Note_on_c, 0, 75, 0
2, 250320, Note_on_c, 0, 63, 0
2, 250320, Note_on_c, 0, 66, 0
2, 250560, Note_on_c, 0, 82, 0
2, 250560, Note_on_c, 0, 78, 0
2, 250560, Note_on_c, 0, 99, 90
2, 250560, Note_on_c, 0, 94, 80
2, 250560, Note_on_c, 0, 90, 76
2, 250560, Note_on_c, 0, 87, 75
2, 251520, Note_on_c, 0, 87, 0
2, 251520, Note_on_c, 0, 99, 0
2, 251520, Note_on_c, 0, 94, 0
2, 251520, Note_on_c, 0, 90, 0
2, 251520, End_track
3, 0, Start_track
3, 0, Title_t, "Piano left"
3, 0, Program_c, 0, 0
3, 0, Control_c, 0, 7, 100
3, 0, Control_c, 0, 10, 64
3, 0, Note_on_c, 0, 39, 62
3, 0, Note_on_c, 0, 46, 62
3, 0, Note_on_c, 0, 51, 70
3, 0, Control_c, 0, 91, 127
3, 28, Control_c, 0, 64, 127
3, 480, Note_on_c, 0, 51, 0
3, 480, Note_on_c, 0, 46, 0
3, 480, Note_on_c, 0, 39, 0
3, 480, Note_on_c, 0, 34, 50
3, 480, Note_on_c, 0, 46, 57
3, 487, Control_c, 0, 64, 0
3, 600, Note_on_c, 0, 46, 0
3, 600, Note_on_c, 0, 34, 0
3, 720, Note_on_c, 0, 39, 50
3, 720, Note_on_c, 0, 51, 57
3, 840, Note_on_c, 0, 51, 0
3, 840, Note_on_c, 0, 39, 0
3, 960, Note_on_c, 0, 32, 62
3, 960, Note_on_c, 0, 44, 70
3, 996, Control_c, 0, 64, 127
3, 1440, Note_on_c, 0, 44, 0
3, 1440, Note_on_c, 0, 32, 0
3, 1440, Note_on_c, 0, 39, 49
3, 1440, Note_on_c, 0, 51, 55
3, 1443, Control_c, 0, 64, 0
3, 1560, Note_on_c, 0, 51, 0
3, 1560, Note_on_c, 0, 39, 0
3, 1680, Note_on_c, 0, 32, 49
3, 1680, Note_on_c, 0, 44, 55
3, 1800, Note_on_c, 0, 44, 0
3, 1800, Note_on_c, 0, 32, 0
3, 1920, Note_on_c, 0, 39, 62
3, 1920, Note_on_c, 0, 46, 62
3, 1920, Note_on_c, 0, 51, 70
3, 1968, Control_c, 0, 64, 127
3, 2400, Note_on_c, 0, 51, 0
3, 2400, Note_on_c, 0, 46, 0
3, 2400, Note_on_c, 0, 39, 0
3, 2400, Note_on_c, 0, 34, 48
3, 2400, Note_on_c, 0, 46, 53
3, 2410, Control_c, 0, 64, 0
3, 2520, Note_on_c, 0, 46, 0
3, 2520, Note_on_c, 0, 34, 0
3, 2640, Note_on_c, 0, 27, 48
3, 2640, Note_on_c, 0, 39, 53
3, 2760, Note_on_c, 0, 39, 0
3, 2760, Note_on_c, 0, 27, 0
3, 2880, Note_on_c, 0, 34, 48
3, 2880, Note_on_c, 0, 46, 53
3, 3000, Note_on_c, 0, 46, 0
3, 3000, Note_on_c, 0, 34, 0
3, 3120, Note_on_c, 0, 58, 53
3, 3120, Note_on_c, 0, 46, 48
3, 3240, Note_on_c, 0, 46, 0
3, 3240, Note_on_c, 0, 58, 0
3, 3360, Note_on_c, 0, 39, 61
3, 3360, Note_on_c, 0, 51, 61
3, 3459, Control_c, 0, 64, 127
3, 3840, Note_on_c, 0, 51, 0
3, 3840, Note_on_c, 0, 39, 0
3, 3840, Note_on_c, 0, 62, 62
3, 3840, Note_on_c, 0, 58, 56
3, 3840, Note_on_c, 0, 51, 56
3, 3846, Control_c, 0, 64, 0
3, 3939, Control_c, 0, 64, 127
3, 4320, Note_on_c, 0, 51, 0
3, 4320, Note_on_c, 0, 58, 0
3, 4320, Note_on_c, 0, 62, 0
3, 4320, Note_on_c, 0, 51, 61
3, 4320, Note_on_c, 0, 56, 55
3, 4320, Note_on_c, 0, 60, 61
3, 4339, Control_c, 0, 64, 0
3, 4440, Control_c, 0, 64, 127
3, 4740, Note_on_c, 0, 60, 0
3, 4740, Note_on_c, 0, 56, 0
3, 4740, Note_on_c, 0, 51, 0
3, 4765, Control_c, 0, 64, 0
3, 4800, Note_on_c, 0, 39, 53
3, 4800, Note_on_c, 0, 46, 53
3, 4800, Note_on_c, 0, 51, 60
3, 4885, Control_c, 0, 64, 127
3, 5280, Note_on_c, 0, 51, 0
3, 5280, Note_on_c, 0, 46, 0
3, 5280, Note_on_c, 0, 39, 0
3, 5280, Note_on_c, 0, 34, 49
3, 5280, Note_on_c, 0, 46, 56
3, 5294, Control_c, 0, 64, 0
3, 5400, Note_on_c, 0, 46, 0
3, 5400, Note_on_c, 0, 34, 0
3, 5520, Note_on_c, 0, 39, 49
3, 5520, Note_on_c, 0, 51, 56
3, 5640, Note_on_c, 0, 51, 0
3, 5640, Note_on_c, 0, 39, 0
3, 5760, Note_on_c, 0, 36, 59
3, 5760, Note_on_c, 0, 48, 67
3, 5852, Control_c, 0, 64, 127
3, 6240, Note_on_c, 0, 48, 0
3, 6240, Note_on_c, 0, 36, 0
3, 6240, Note_on_c, 0, 41, 48
3, 6240, Note_on_c, 0, 53, 53
3, 6254, Control_c, 0, 64, 0
3, 6360, Note_on_c, 0, 53, 0
3, 6360, Note_on_c, 0, 41, 0
3, 6480, Note_on_c, 0, 36, 48
3, 6480, Note_on_c, 0, 48, 53
3, 6600, Note_on_c, 0, 48, 0
3, 6600, Note_on_c, 0, 36, 0
3, 6720, Note_on_c, 0, 43, 52
3, 6720, Note_on_c, 0, 46, 52
3, 6720, Note_on_c, 0, 50, 52
3, 6720, Note_on_c, 0, 55, 59
3, 6791, Control_c, 0, 64, 127
3, 7200, Note_on_c, 0, 55, 0
3, 7200, Note_on_c, 0, 43, 0
3, 7200, Note_on_c, 0, 46, 0
3, 7200, Note_on_c, 0, 50, 0
3, 7200, Note_on_c, 0, 36, 50
3, 7200, Note_on_c, 0, 48, 57
3, 7216, Control_c, 0, 64, 0
3, 7320, Note_on_c, 0, 48, 0
3, 7320, Note_on_c, 0, 36, 0
3, 7440, Note_on_c, 0, 31, 49
3, 7440, Note_on_c, 0, 43, 56
3, 7560, Note_on_c, 0, 43, 0
3, 7560, Note_on_c, 0, 31, 0
3, 7680, Note_on_c, 0, 26, 49
3, 7680, Note_on_c, 0, 38, 55
3, 7800, Note_on_c, 0, 38, 0
3, 7800, Note_on_c, 0, 26, 0
3, 7920, Note_on_c, 0, 50, 52
3, 7920, Note_on_c, 0, 38, 47
3, 8040, Note_on_c, 0, 38, 0
3, 8040, Note_on_c, 0, 50, 0
3, 8160, Note_on_c, 0, 31, 55
3, 8160, Note_on_c, 0, 43, 61
3, 8252, Control_c, 0, 64, 127
3, 8640, Note_on_c, 0, 43, 0
3, 8640, Note_on_c, 0, 31, 0
3, 8640, Note_on_c, 0, 54, 61
3, 8640, Note_on_c, 0, 43, 55
3, 8642, Control_c, 0, 64, 0
3, 8760, Control_c, 0, 64, 127
3, 9120, Note_on_c, 0, 43, 0
3, 9120, Note_on_c, 0, 54, 0
3, 9120, Note_on_c, 0, 43, 52
3, 9120, Note_on_c, 0, 53, 59
3, 9139, Control_c, 0, 64, 0
3, 9248, Control_c, 0, 64, 127
3, 9531, Control_c, 0, 64, 0
3, 9540, Note_on_c, 0, 53, 0
3, 9540, Note_on_c, 0, 43, 0
3, 9600, Note_on_c, 0, 39, 70
3, 9600, Note_on_c, 0, 46, 70
3, 9600, Note_on_c, 0, 51, 70
3, 9600, Control_c, 0, 91, 127
3, 9644, Control_c, 0, 64, 127
3, 10080, Note_on_c, 0, 51, 0
3, 10080, Note_on_c, 0, 46, 0
3, 10080, Note_on_c, 0, 39, 0
3, 10080, Note_on_c, 0, 34, 49
3, 10080, Note_on_c, 0, 46, 56
3, 10101, Control_c, 0, 64, 0
3, 10200, Note_on_c, 0, 46, 0
3, 10200, Note_on_c, 0, 34, 0
3, 10320, Note_on_c, 0, 39, 49
3, 10320, Note_on_c, 0, 51, 56
3, 10440, Note_on_c, 0, 51, 0
3, 10440, Note_on_c, 0, 39, 0
3, 10560, Note_on_c, 0, 32, 62
3, 10560, Note_on_c, 0, 44, 70
3, 10592, Control_c, 0, 64, 127
3, 11040, Note_on_c, 0, 44, 0
3, 11040, Note_on_c, 0, 32, 0
3, 11040, Note_on_c, 0, 39, 49
3, 11040, Note_on_c, 0, 51, 56
3, 11050, Control_c, 0, 64, 0
3, 11160, Note_on_c, 0, 51, 0
3, 11160, Note_on_c, 0, 39, 0
3, 11280, Note_on_c, 0, 32, 49
3, 11280, Note_on_c, 0, 44, 56
3, 11400, Note_on_c, 0, 44, 0
3, 11400, Note_on_c, 0, 32, 0
3, 11520, Note_on_c, 0, 39, 62
3, 11520, Note_on_c, 0, 46, 62
3, 11520, Note_on_c, 0, 51, 70
3, 11568, Control_c, 0, 64, 127
3, 12000, Note_on_c, 0, 51, 0
3, 12000, Note_on_c, 0, 46, 0
3, 12000, Note_on_c, 0, 39, 0
3, 12000, Note_on_c, 0, 34, 49
3, 12000, Note_on_c, 0, 46, 56
3, 12022, Control_c, 0, 64, 0
3, 12120, Note_on_c, 0, 46, 0
3, 12120, Note_on_c, 0, 34, 0
3, 12240, Note_on_c, 0, 27, 48
3, 12240, Note_on_c, 0, 39, 53
3, 12360, Note_on_c, 0, 39, 0
3, 12360, Note_on_c, 0, 27, 0
3, 12480, Note_on_c, 0, 34, 47
3, 12480, Note_on_c, 0, 46, 52
3, 12600, Note_on_c, 0, 46, 0
3, 12600, Note_on_c, 0, 34, 0
3, 12720, Note_on_c, 0, 58, 52
3, 12720, Note_on_c, 0, 46, 47
3, 12840, Note_on_c, 0, 46, 0
3, 12840, Note_on_c, 0, 58, 0
3, 12960, Note_on_c, 0, 39, 59
3, 12960, Note_on_c, 0, 51, 66
3, 13052, Control_c, 0, 64, 127
3, 13440, Note_on_c, 0, 51, 0
3, 13440, Note_on_c, 0, 39, 0
3, 13440, Note_on_c, 0, 39, 66
3, 13440, Note_on_c, 0, 37, 66
3, 13440, Note_on_c, 0, 49, 73
3, 13449, Control_c, 0, 64, 0
3, 13635, Control_c, 0, 64, 127
3, 13920, Note_on_c, 0, 49, 0
3, 13920, Note_on_c, 0, 37, 0
3, 13920, Note_on_c, 0, 39, 0
3, 13920, Note_on_c, 0, 35, 68
3, 13920, Note_on_c, 0, 39, 68
3, 13920, Note_on_c, 0, 47, 75
3, 13933, Control_c, 0, 64, 0
3, 14115, Control_c, 0, 64, 127
3, 14370, Note_on_c, 0, 47, 0
3, 14370, Note_on_c, 0, 39, 0
3, 14370, Note_on_c, 0, 35, 0
3, 14400, Note_on_c, 0, 34, 72
3, 14400, Note_on_c, 0, 39, 72
3, 14400, Note_on_c, 0, 42, 72
3, 14400, Note_on_c, 0, 46, 81
3, 14407, Control_c, 0, 64, 0
3, 14606, Control_c, 0, 64, 127
3, 14880, Note_on_c, 0, 46, 0
3, 14880, Note_on_c, 0, 34, 0
3, 14880, Note_on_c, 0, 39, 0
3, 14880, Note_on_c, 0, 42, 0
3, 14880, Note_on_c, 0, 42, 67
3, 14880, Note_on_c, 0, 54, 74
3, 14892, Control_c, 0, 64, 0
3, 14960, Control_c, 0, 64, 127
3, 15120, Note_on_c, 0, 54, 0
3, 15120, Note_on_c, 0, 42, 0
3, 15120, Note_on_c, 0, 39, 64
3, 15120, Note_on_c, 0, 51, 72
3, 15135, Control_c, 0, 64, 0
3, 15269, Control_c, 0, 64, 127
3, 15360, Note_on_c, 0, 51, 0
3, 15360, Note_on_c, 0, 39, 0
3, 15360, Note_on_c, 0, 47, 69
3, 15360, Note_on_c, 0, 51, 69
3, 15360, Note_on_c, 0, 54, 69
3, 15360, Note_on_c, 0, 59, 77
3, 15369, Control_c, 0, 64, 0
3, 15520, Control_c, 0, 64, 127
3, 15840, Note_on_c, 0, 59, 0
3, 15840, Note_on_c, 0, 47, 0
3, 15840, Note_on_c, 0, 51, 0
3, 15840, Note_on_c, 0, 54, 0
3, 15840, Note_on_c, 0, 39, 62
3, 15840, Note_on_c, 0, 51, 70
3, 15859, Control_c, 0, 64, 0
3, 15966, Control_c, 0, 64, 127
3, 16080, Note_on_c, 0, 51, 0
3, 16080, Note_on_c, 0, 39, 0
3, 16080, Note_on_c, 0, 35, 62
3, 16080, Note_on_c, 0, 47, 70
3, 16090, Control_c, 0, 64, 0
3, 16252, Control_c, 0, 64, 127
3, 16320, Note_on_c, 0, 47, 0
3, 16320, Note_on_c, 0, 35, 0
3, 16320, Note_on_c, 0, 56, 73
3, 16320, Note_on_c, 0, 51, 66
3, 16320, Note_on_c, 0, 47, 66
3, 16320, Note_on_c, 0, 44, 66
3, 16328, Control_c, 0, 64, 0
3, 16469, Control_c, 0, 64, 127
3, 16800, Note_on_c, 0, 44, 0
3, 16800, Note_on_c, 0, 56, 0
3, 16800, Note_on_c, 0, 51, 0
3, 16800, Note_on_c, 0, 47, 0
3, 16800, Note_on_c, 0, 35, 59
3, 16800, Note_on_c, 0, 47, 66
3, 16815, Control_c, 0, 64, 0
3, 16926, Control_c, 0, 64, 127
3, 17040, Note_on_c, 0, 47, 0
3, 17040, Note_on_c, 0, 35, 0
3, 17040, Note_on_c, 0, 32, 59
3, 17040, Note_on_c, 0, 44, 66
3, 17057, Control_c, 0, 64, 0
3, 17189, Control_c, 0, 64, 127
3, 17280, Note_on_c, 0, 44, 0
3, 17280, Note_on_c, 0, 32, 0
3, 17280, Note_on_c, 0, 39, 62
3, 17280, Note_on_c, 0, 45, 62
3, 17280, Note_on_c, 0, 48, 62
3, 17280, Note_on_c, 0, 51, 70
3, 17285, Control_c, 0, 64, 0
3, 17421, Control_c, 0, 64, 127
3, 17760, Note_on_c, 0, 51, 0
3, 17760, Note_on_c, 0, 39, 0
3, 17760, Note_on_c, 0, 45, 0
3, 17760, Note_on_c, 0, 48, 0
3, 17760, Note_on_c, 0, 22, 49
3, 17760, Note_on_c, 0, 34, 56
3, 17774, Control_c, 0, 64, 0
3, 17908, Control_c, 0, 64, 127
3, 18240, Note_on_c, 0, 34, 0
3, 18240, Note_on_c, 0, 22, 0
3, 18240, Note_on_c, 0, 22, 49
3, 18240, Note_on_c, 0, 34, 56
3, 18720, Note_on_c, 0, 34, 0
3, 18720, Note_on_c, 0, 22, 0
3, 18720, Note_on_c, 0, 22, 51
3, 18720, Note_on_c, 0, 34, 51
3, 19200, Note_on_c, 0, 34, 0
3, 19200, Note_on_c, 0, 22, 0
3, 19200, Note_on_c, 0, 46, 59
3, 19200, Note_on_c, 0, 58, 66
3, 19207, Control_c, 0, 64, 0
3, 19408, Control_c, 0, 64, 127
3, 19680, Note_on_c, 0, 58, 0
3, 19680, Note_on_c, 0, 46, 0
3, 19680, Note_on_c, 0, 45, 42
3, 19680, Note_on_c, 0, 46, 42
3, 19680, Note_on_c, 0, 58, 48
3, 19695, Control_c, 0, 64, 0
3, 19966, Control_c, 0, 64, 127
3, 20160, Note_on_c, 0, 58, 0
3, 20160, Note_on_c, 0, 46, 0
3, 20160, Note_on_c, 0, 45, 0
3, 20160, Note_on_c, 0, 43, 42
3, 20160, Note_on_c, 0, 46, 42
3, 20160, Note_on_c, 0, 58, 48
3, 20169, Control_c, 0, 64, 0
3, 20329, Control_c, 0, 64, 127
3, 20640, Note_on_c, 0, 58, 0
3, 20640, Note_on_c, 0, 46, 0
3, 20640, Note_on_c, 0, 43, 0
3, 20640, Note_on_c, 0, 41, 42
3, 20640, Note_on_c, 0, 46, 42
3, 20640, Note_on_c, 0, 57, 48
3, 20640, Note_on_c, 0, 58, 48
3, 20648, Control_c, 0, 64, 0
3, 20835, Control_c, 0, 64, 127
3, 21120, Note_on_c, 0, 58, 0
3, 21120, Note_on_c, 0, 41, 0
3, 21120, Note_on_c, 0, 46, 0
3, 21120, Note_on_c, 0, 57, 0
3, 21120, Note_on_c, 0, 39, 46
3, 21120, Note_on_c, 0, 46, 46
3, 21120, Note_on_c, 0, 55, 51
3, 21120, Note_on_c, 0, 58, 51
3, 21129, Control_c, 0, 64, 0
3, 21326, Control_c, 0, 64, 127
3, 21600, Note_on_c, 0, 58, 0
3, 21600, Note_on_c, 0, 39, 0
3, 21600, Note_on_c, 0, 46, 0
3, 21600, Note_on_c, 0, 55, 0
3, 21600, Note_on_c, 0, 36, 40
3, 21600, Note_on_c, 0, 46, 40
3, 21600, Note_on_c, 0, 51, 40
3, 21600, Note_on_c, 0, 57, 46
3, 21600, Note_on_c, 0, 60, 46
3, 21619, Control_c, 0, 64, 0
3, 21966, Control_c, 0, 64, 127
3, 22080, Note_on_c, 0, 60, 0
3, 22080, Note_on_c, 0, 51, 0
3, 22080, Note_on_c, 0, 36, 0
3, 22080, Note_on_c, 0, 46, 0
3, 22080, Note_on_c, 0, 57, 0
3, 22080, Note_on_c, 0, 34, 40
3, 22080, Note_on_c, 0, 46, 46
3, 22080, Note_on_c, 0, 53, 46
3, 22080, Note_on_c, 0, 58, 46
3, 22080, Note_on_c, 0, 62, 46
3, 22100, Control_c, 0, 64, 0
3, 22252, Control_c, 0, 64, 127
3, 22560, Note_on_c, 0, 22, 39
3, 22560, Note_on_c, 0, 34, 44
3, 22577, Control_c, 0, 64, 0
3, 22697, Control_c, 0, 64, 127
3, 23040, Note_on_c, 0, 34, 0
3, 23040, Note_on_c, 0, 22, 0
3, 23040, Note_on_c, 0, 34, 44
3, 23040, Note_on_c, 0, 22, 39
3, 23520, Note_on_c, 0, 22, 0
3, 23520, Note_on_c, 0, 34, 0
3, 23520, Note_on_c, 0, 22, 39
3, 23520, Note_on_c, 0, 34, 44
3, 24000, Note_on_c, 0, 34, 0
3, 24000, Note_on_c, 0, 62, 0
3, 24000, Note_on_c, 0, 46, 0
3, 24000, Note_on_c, 0, 53, 0
3, 24000, Note_on_c, 0, 34, 0
3, 24000, Note_on_c, 0, 22, 0
3, 24000, Note_on_c, 0, 58, 0
3, 24000, Note_on_c, 0, 58, 51
3, 24009, Control_c, 0, 64, 0
3, 24320, Control_c, 0, 64, 127
3, 24480, Note_on_c, 0, 58, 0
3, 24480, Note_on_c, 0, 55, 47
3, 24480, Note_on_c, 0, 58, 52
3, 24960, Note_on_c, 0, 58, 0
3, 24960, Note_on_c, 0, 55, 0
3, 24960, Note_on_c, 0, 51, 49
3, 24960, Note_on_c, 0, 55, 56
3, 24970, Control_c, 0, 64, 0
3, 25147, Control_c, 0, 64, 127
3, 25440, Note_on_c, 0, 55, 0
3, 25440, Note_on_c, 0, 51, 0
3, 25440, Note_on_c, 0, 48, 52
3, 25440, Note_on_c, 0, 51, 52
3, 25440, Note_on_c, 0, 55, 59
3, 25460, Control_c, 0, 64, 0
3, 25734, Control_c, 0, 64, 127
3, 25920, Note_on_c, 0, 55, 0
3, 25920, Note_on_c, 0, 51, 0
3, 25920, Note_on_c, 0, 48, 0
3, 25920, Note_on_c, 0, 44, 52
3, 25920, Note_on_c, 0, 48, 52
3, 25920, Note_on_c, 0, 51, 59
3, 25920, Note_on_c, 0, 56, 59
3, 25933, Control_c, 0, 64, 0
3, 26107, Control_c, 0, 64, 127
3, 26400, Note_on_c, 0, 56, 0
3, 26400, Note_on_c, 0, 44, 0
3, 26400, Note_on_c, 0, 48, 0
3, 26400, Note_on_c, 0, 51, 0
3, 26400, Note_on_c, 0, 41, 57
3, 26400, Note_on_c, 0, 44, 57
3, 26400, Note_on_c, 0, 48, 57
3, 26400, Note_on_c, 0, 53, 63
3, 26413, Control_c, 0, 64, 0
3, 26747, Control_c, 0, 64, 127
3, 26880, Note_on_c, 0, 53, 0
3, 26880, Note_on_c, 0, 41, 0
3, 26880, Note_on_c, 0, 44, 0
3, 26880, Note_on_c, 0, 48, 0
3, 26880, Note_on_c, 0, 43, 62
3, 26880, Note_on_c, 0, 47, 62
3, 26880, Note_on_c, 0, 50, 62
3, 26880, Note_on_c, 0, 55, 70
3, 26895, Control_c, 0, 64, 0
3, 27012, Control_c, 0, 64, 127
3, 27360, Note_on_c, 0, 31, 43
3, 27840, Note_on_c, 0, 31, 0
3, 27840, Note_on_c, 0, 31, 43
3, 28320, Note_on_c, 0, 31, 0
3, 28320, Note_on_c, 0, 31, 43
3, 28800, Note_on_c, 0, 31, 0
3, 28800, Note_on_c, 0, 50, 0
3, 28800, Note_on_c, 0, 43, 0
3, 28800, Note_on_c, 0, 47, 0
3, 28800, Note_on_c, 0, 55, 0
3, 28800, Note_on_c, 0, 55, 51
3, 28815, Control_c, 0, 64, 0
3, 29076, Control_c, 0, 64, 127
3, 29280, Note_on_c, 0, 55, 0
3, 29280, Note_on_c, 0, 53, 51
3, 29280, Note_on_c, 0, 55, 51
3, 29296, Control_c, 0, 64, 0
3, 29583, Control_c, 0, 64, 127
3, 29760, Note_on_c, 0, 55, 0
3, 29760, Note_on_c, 0, 53, 0
3, 29760, Note_on_c, 0, 51, 47
3, 29760, Note_on_c, 0, 55, 52
3, 29769, Control_c, 0, 64, 0
3, 29937, Control_c, 0, 64, 127
3, 30240, Note_on_c, 0, 55, 0
3, 30240, Note_on_c, 0, 51, 0
3, 30240, Note_on_c, 0, 50, 49
3, 30240, Note_on_c, 0, 53, 56
3, 30240, Note_on_c, 0, 55, 56
3, 30365, Control_c, 0, 64, 0
3, 30569, Control_c, 0, 64, 127
3, 30720, Note_on_c, 0, 55, 0
3, 30720, Note_on_c, 0, 53, 0
3, 30720, Note_on_c, 0, 50, 0
3, 30720, Note_on_c, 0, 48, 52
3, 30720, Note_on_c, 0, 51, 59
3, 30720, Note_on_c, 0, 55, 59
3, 30736, Control_c, 0, 64, 0
3, 30903, Control_c, 0, 64, 127
3, 31200, Note_on_c, 0, 55, 0
3, 31200, Note_on_c, 0, 51, 0
3, 31200, Note_on_c, 0, 48, 0
3, 31200, Note_on_c, 0, 41, 56
3, 31200, Note_on_c, 0, 48, 56
3, 31200, Note_on_c, 0, 53, 62
3, 31217, Control_c, 0, 64, 0
3, 31520, Control_c, 0, 64, 127
3, 31680, Note_on_c, 0, 53, 0
3, 31680, Note_on_c, 0, 48, 0
3, 31680, Note_on_c, 0, 41, 0
3, 31680, Note_on_c, 0, 46, 59
3, 31680, Note_on_c, 0, 50, 66
3, 31680, Note_on_c, 0, 53, 66
3, 31695, Control_c, 0, 64, 0
3, 31835, Control_c, 0, 64, 127
3, 32160, Note_on_c, 0, 22, 39
3, 32160, Note_on_c, 0, 34, 44
3, 32640, Note_on_c, 0, 34, 0
3, 32640, Note_on_c, 0, 22, 0
3, 32640, Note_on_c, 0, 22, 41
3, 32640, Note_on_c, 0, 34, 41
3, 33120, Note_on_c, 0, 34, 0
3, 33120, Note_on_c, 0, 22, 0
3, 33120, Note_on_c, 0, 22, 38
3, 33120, Note_on_c, 0, 34, 38
3, 33600, Note_on_c, 0, 34, 0
3, 33600, Note_on_c, 0, 53, 0
3, 33600, Note_on_c, 0, 46, 0
3, 33600, Note_on_c, 0, 50, 0
3, 33600, Note_on_c, 0, 22, 0
3, 33600, Note_on_c, 0, 58, 51
3, 33607, Control_c, 0, 64, 0
3, 33806, Control_c, 0, 64, 127
3, 34080, Note_on_c, 0, 58, 0
3, 34080, Note_on_c, 0, 54, 45
3, 34080, Note_on_c, 0, 58, 51
3, 34560, Note_on_c, 0, 58, 0
3, 34560, Note_on_c, 0, 54, 0
3, 34560, Note_on_c, 0, 51, 54
3, 34560, Note_on_c, 0, 54, 47
3, 34560, Note_on_c, 0, 58, 54
3, 35040, Note_on_c, 0, 58, 0
3, 35040, Note_on_c, 0, 54, 0
3, 35040, Note_on_c, 0, 51, 0
3, 35040, Note_on_c, 0, 47, 54
3, 35040, Note_on_c, 0, 51, 54
3, 35040, Note_on_c, 0, 54, 60
3, 35040, Note_on_c, 0, 59, 60
3, 35053, Control_c, 0, 64, 0
3, 35269, Control_c, 0, 64, 127
3, 35520, Note_on_c, 0, 59, 0
3, 35520, Note_on_c, 0, 47, 0
3, 35520, Note_on_c, 0, 51, 0
3, 35520, Note_on_c, 0, 54, 0
3, 35520, Note_on_c, 0, 44, 57
3, 35520, Note_on_c, 0, 47, 57
3, 35520, Note_on_c, 0, 51, 64
3, 35520, Note_on_c, 0, 56, 64
3, 35954, Control_c, 0, 64, 0
3, 36000, Note_on_c, 0, 56, 0
3, 36000, Note_on_c, 0, 44, 0
3, 36000, Note_on_c, 0, 47, 0
3, 36000, Note_on_c, 0, 51, 0
3, 36000, Note_on_c, 0, 40, 61
3, 36000, Note_on_c, 0, 44, 61
3, 36000, Note_on_c, 0, 47, 69
3, 36000, Note_on_c, 0, 52, 69
3, 36160, Control_c, 0, 64, 127
3, 36480, Note_on_c, 0, 52, 0
3, 36480, Note_on_c, 0, 40, 0
3, 36480, Note_on_c, 0, 44, 0
3, 36480, Note_on_c, 0, 47, 0
3, 36480, Note_on_c, 0, 47, 69
3, 36480, Note_on_c, 0, 51, 69
3, 36480, Note_on_c, 0, 54, 69
3, 36480, Note_on_c, 0, 59, 77
3, 36488, Control_c, 0, 64, 0
3, 36595, Control_c, 0, 64, 127
3, 36960, Note_on_c, 0, 27, 70
3, 37080, Note_on_c, 0, 30, 67
3, 37200, Note_on_c, 0, 30, 0
3, 37200, Note_on_c, 0, 35, 70
3, 37320, Note_on_c, 0, 35, 0
3, 37320, Note_on_c, 0, 39, 67
3, 37440, Note_on_c, 0, 39, 0
3, 37440, Note_on_c, 0, 51, 0
3, 37440, Note_on_c, 0, 54, 0
3, 37440, Note_on_c, 0, 47, 0
3, 37440, Note_on_c, 0, 27, 0
3, 37440, Note_on_c, 0, 59, 0
3, 37440, Note_on_c, 0, 42, 70
3, 37449, Control_c, 0, 64, 0
3, 37560, Note_on_c, 0, 47, 67
3, 37572, Control_c, 0, 64, 127
3, 37680, Note_on_c, 0, 47, 0
3, 37680, Note_on_c, 0, 51, 70
3, 37800, Note_on_c, 0, 51, 0
3, 37800, Note_on_c, 0, 54, 67
3, 37920, Note_on_c, 0, 54, 0
3, 37920, Note_on_c, 0, 42, 0
3, 37920, Note_on_c, 0, 59, 70
3, 37941, Control_c, 0, 64, 0
3, 38029, Control_c, 0, 64, 127
3, 38040, Note_on_c, 0, 63, 67
3, 38160, Note_on_c, 0, 63, 0
3, 38160, Note_on_c, 0, 66, 70
3, 38280, Note_on_c, 0, 66, 0
3, 38280, Note_on_c, 0, 71, 67
3, 38400, Note_on_c, 0, 71, 0
3, 38400, Note_on_c, 0, 59, 0
3, 38400, Note_on_c, 0, 58, 67
3, 38400, Note_on_c, 0, 63, 67
3, 38400, Note_on_c, 0, 67, 67
3, 38400, Note_on_c, 0, 70, 74
3, 38400, Control_c, 0, 91, 127
3, 38414, Control_c, 0, 64, 0
3, 38541, Control_c, 0, 64, 127
3, 38760, Note_on_c, 0, 70, 0
3, 38760, Note_on_c, 0, 58, 0
3, 38760, Note_on_c, 0, 63, 0
3, 38760, Note_on_c, 0, 67, 0
3, 38781, Control_c, 0, 64, 0
3, 38880, Note_on_c, 0, 58, 58
3, 38880, Note_on_c, 0, 46, 51
3, 39000, Note_on_c, 0, 46, 0
3, 39000, Note_on_c, 0, 58, 0
3, 39120, Note_on_c, 0, 39, 51
3, 39120, Note_on_c, 0, 51, 58
3, 39240, Note_on_c, 0, 51, 0
3, 39240, Note_on_c, 0, 39, 0
3, 39360, Note_on_c, 0, 63, 70
3, 39360, Note_on_c, 0, 60, 62
3, 39360, Note_on_c, 0, 56, 62
3, 39360, Note_on_c, 0, 51, 62
3, 39392, Control_c, 0, 64, 127
3, 39840, Note_on_c, 0, 51, 0
3, 39840, Note_on_c, 0, 63, 0
3, 39840, Note_on_c, 0, 60, 0
3, 39840, Note_on_c, 0, 56, 0
3, 39840, Note_on_c, 0, 39, 50
3, 39840, Note_on_c, 0, 51, 57
3, 39852, Control_c, 0, 64, 0
3, 39960, Note_on_c, 0, 51, 0
3, 39960, Note_on_c, 0, 39, 0
3, 40080, Note_on_c, 0, 32, 50
3, 40080, Note_on_c, 0, 44, 57
3, 40200, Note_on_c, 0, 44, 0
3, 40200, Note_on_c, 0, 32, 0
3, 40320, Note_on_c, 0, 39, 62
3, 40320, Note_on_c, 0, 46, 62
3, 40320, Note_on_c, 0, 51, 70
3, 40433, Control_c, 0, 64, 127
3, 40800, Note_on_c, 0, 51, 0
3, 40800, Note_on_c, 0, 46, 0
3, 40800, Note_on_c, 0, 39, 0
3, 40800, Note_on_c, 0, 34, 50
3, 40800, Note_on_c, 0, 46, 57
3, 40816, Control_c, 0, 64, 0
3, 40920, Note_on_c, 0, 46, 0
3, 40920, Note_on_c, 0, 34, 0
3, 41040, Note_on_c, 0, 27, 49
3, 41040, Note_on_c, 0, 39, 56
3, 41160, Note_on_c, 0, 39, 0
3, 41160, Note_on_c, 0, 27, 0
3, 41280, Note_on_c, 0, 34, 49
3, 41280, Note_on_c, 0, 46, 55
3, 41400, Note_on_c, 0, 46, 0
3, 41400, Note_on_c, 0, 34, 0
3, 41520, Note_on_c, 0, 58, 52
3, 41520, Note_on_c, 0, 46, 47
3, 41640, Note_on_c, 0, 46, 0
3, 41640, Note_on_c, 0, 58, 0
3, 41760, Note_on_c, 0, 39, 57
3, 41760, Note_on_c, 0, 51, 63
3, 41873, Control_c, 0, 64, 127
3, 42240, Note_on_c, 0, 51, 0
3, 42240, Note_on_c, 0, 39, 0
3, 42240, Note_on_c, 0, 62, 62
3, 42240, Note_on_c, 0, 58, 56
3, 42240, Note_on_c, 0, 51, 56
3, 42252, Control_c, 0, 64, 0
3, 42442, Control_c, 0, 64, 127
3, 42720, Note_on_c, 0, 51, 0
3, 42720, Note_on_c, 0, 58, 0
3, 42720, Note_on_c, 0, 62, 0
3, 42720, Note_on_c, 0, 51, 55
3, 42720, Note_on_c, 0, 56, 55
3, 42720, Note_on_c, 0, 60, 61
3, 42732, Control_c, 0, 64, 0
3, 42948, Control_c, 0, 64, 127
3, 43200, Note_on_c, 0, 60, 0
3, 43200, Note_on_c, 0, 56, 0
3, 43200, Note_on_c, 0, 51, 0
3, 43200, Note_on_c, 0, 39, 53
3, 43200, Note_on_c, 0, 46, 53
3, 43200, Note_on_c, 0, 51, 60
3, 43209, Control_c, 0, 64, 0
3, 43348, Control_c, 0, 64, 127
3, 43680, Note_on_c, 0, 51, 0
3, 43680, Note_on_c, 0, 46, 0
3, 43680, Note_on_c, 0, 39, 0
3, 43680, Note_on_c, 0, 34, 53
3, 43680, Note_on_c, 0, 46, 60
3, 43695, Control_c, 0, 64, 0
3, 43800, Note_on_c, 0, 46, 0
3, 43800, Note_on_c, 0, 34, 0
3, 43920, Note_on_c, 0, 39, 53
3, 43920, Note_on_c, 0, 51, 60
3, 44040, Note_on_c, 0, 51, 0
3, 44040, Note_on_c, 0, 39, 0
3, 44160, Note_on_c, 0, 36, 58
3, 44160, Note_on_c, 0, 48, 64
3, 44231, Control_c, 0, 64, 127
3, 44640, Note_on_c, 0, 48, 0
3, 44640, Note_on_c, 0, 36, 0
3, 44640, Note_on_c, 0, 41, 51
3, 44640, Note_on_c, 0, 53, 58
3, 44661, Control_c, 0, 64, 0
3, 44760, Note_on_c, 0, 53, 0
3, 44760, Note_on_c, 0, 41, 0
3, 44880, Note_on_c, 0, 36, 51
3, 44880, Note_on_c, 0, 48, 58
3, 45000, Note_on_c, 0, 48, 0
3, 45000, Note_on_c, 0, 36, 0
3, 45120, Note_on_c, 0, 43, 56
3, 45120, Note_on_c, 0, 50, 56
3, 45120, Note_on_c, 0, 55, 62
3, 45191, Control_c, 0, 64, 127
3, 45600, Note_on_c, 0, 55, 0
3, 45600, Note_on_c, 0, 50, 0
3, 45600, Note_on_c, 0, 43, 0
3, 45600, Note_on_c, 0, 36, 50
3, 45600, Note_on_c, 0, 48, 57
3, 45614, Control_c, 0, 64, 0
3, 45720, Note_on_c, 0, 48, 0
3, 45720, Note_on_c, 0, 36, 0
3, 45840, Note_on_c, 0, 31, 50
3, 45840, Note_on_c, 0, 43, 57
3, 45960, Note_on_c, 0, 43, 0
3, 45960, Note_on_c, 0, 31, 0
3, 46080, Note_on_c, 0, 26, 49
3, 46080, Note_on_c, 0, 38, 56
3, 46200, Note_on_c, 0, 38, 0
3, 46200, Note_on_c, 0, 26, 0
3, 46320, Note_on_c, 0, 50, 53
3, 46320, Note_on_c, 0, 38, 48
3, 46440, Note_on_c, 0, 38, 0
3, 46440, Note_on_c, 0, 50, 0
3, 46560, Note_on_c, 0, 31, 47
3, 46560, Note_on_c, 0, 43, 52
3, 46623, Control_c, 0, 64, 127
3, 47040, Note_on_c, 0, 43, 0
3, 47040, Note_on_c, 0, 31, 0
3, 47040, Note_on_c, 0, 54, 61
3, 47040, Note_on_c, 0, 43, 55
3, 47053, Control_c, 0, 64, 0
3, 47144, Control_c, 0, 64, 127
3, 47520, Note_on_c, 0, 43, 0
3, 47520, Note_on_c, 0, 54, 0
3, 47520, Note_on_c, 0, 43, 52
3, 47520, Note_on_c, 0, 53, 59
3, 47535, Control_c, 0, 64, 0
3, 47676, Control_c, 0, 64, 127
3, 47880, Note_on_c, 0, 53, 0
3, 47880, Note_on_c, 0, 43, 0
3, 47958, Control_c, 0, 64, 0
3, 48000, Note_on_c, 0, 39, 50
3, 48000, Note_on_c, 0, 46, 50
3, 48000, Note_on_c, 0, 51, 59
3, 48000, Control_c, 0, 91, 127
3, 48184, Control_c, 0, 64, 127
3, 48480, Note_on_c, 0, 51, 0
3, 48480, Note_on_c, 0, 46, 0
3, 48480, Note_on_c, 0, 39, 0
3, 48480, Note_on_c, 0, 34, 46
3, 48480, Note_on_c, 0, 46, 55
3, 48498, Control_c, 0, 64, 0
3, 48600, Note_on_c, 0, 46, 0
3, 48600, Note_on_c, 0, 34, 0
3, 48720, Note_on_c, 0, 39, 49
3, 48720, Note_on_c, 0, 51, 58
3, 48840, Note_on_c, 0, 51, 0
3, 48840, Note_on_c, 0, 39, 0
3, 48960, Note_on_c, 0, 32, 51
3, 48960, Note_on_c, 0, 44, 61
3, 49061, Control_c, 0, 64, 127
3, 49440, Note_on_c, 0, 44, 0
3, 49440, Note_on_c, 0, 32, 0
3, 49440, Note_on_c, 0, 39, 48
3, 49440, Note_on_c, 0, 51, 57
3, 49462, Control_c, 0, 64, 0
3, 49560, Note_on_c, 0, 51, 0
3, 49560, Note_on_c, 0, 39, 0
3, 49680, Note_on_c, 0, 32, 45
3, 49680, Note_on_c, 0, 44, 54
3, 49800, Note_on_c, 0, 44, 0
3, 49800, Note_on_c, 0, 32, 0
3, 49920, Note_on_c, 0, 39, 47
3, 49920, Note_on_c, 0, 46, 47
3, 49920, Note_on_c, 0, 51, 56
3, 49991, Control_c, 0, 64, 127
3, 50400, Note_on_c, 0, 51, 0
3, 50400, Note_on_c, 0, 46, 0
3, 50400, Note_on_c, 0, 39, 0
3, 50400, Note_on_c, 0, 34, 49
3, 50400, Note_on_c, 0, 46, 58
3, 50421, Control_c, 0, 64, 0
3, 50520, Note_on_c, 0, 46, 0
3, 50520, Note_on_c, 0, 34, 0
3, 50640, Note_on_c, 0, 51, 56
3, 50640, Note_on_c, 0, 39, 47
3, 50760, Note_on_c, 0, 39, 0
3, 50760, Note_on_c, 0, 51, 0
3, 50880, Note_on_c, 0, 34, 48
3, 50880, Note_on_c, 0, 46, 57
3, 51000, Note_on_c, 0, 46, 0
3, 51000, Note_on_c, 0, 34, 0
3, 51120, Note_on_c, 0, 58, 57
3, 51120, Note_on_c, 0, 46, 50
3, 51240, Note_on_c, 0, 46, 0
3, 51240, Note_on_c, 0, 58, 0
3, 51360, Note_on_c, 0, 39, 49
3, 51360, Note_on_c, 0, 51, 56
3, 51445, Control_c, 0, 64, 127
3, 51840, Note_on_c, 0, 51, 0
3, 51840, Note_on_c, 0, 39, 0
3, 51840, Note_on_c, 0, 39, 55
3, 51840, Note_on_c, 0, 38, 55
3, 51840, Note_on_c, 0, 50, 61
3, 51849, Control_c, 0, 64, 0
3, 52042, Control_c, 0, 64, 127
3, 52320, Note_on_c, 0, 50, 0
3, 52320, Note_on_c, 0, 38, 0
3, 52320, Note_on_c, 0, 39, 0
3, 52320, Note_on_c, 0, 36, 58
3, 52320, Note_on_c, 0, 39, 58
3, 52320, Note_on_c, 0, 48, 64
3, 52337, Control_c, 0, 64, 0
3, 52598, Control_c, 0, 64, 127
3, 52800, Note_on_c, 0, 48, 0
3, 52800, Note_on_c, 0, 39, 0
3, 52800, Note_on_c, 0, 36, 0
3, 52800, Note_on_c, 0, 31, 72
3, 52800, Note_on_c, 0, 36, 72
3, 52800, Note_on_c, 0, 39, 72
3, 52800, Note_on_c, 0, 43, 81
3, 52814, Control_c, 0, 64, 0
3, 52926, Control_c, 0, 64, 127
3, 53280, Note_on_c, 0, 43, 0
3, 53280, Note_on_c, 0, 31, 0
3, 53280, Note_on_c, 0, 36, 0
3, 53280, Note_on_c, 0, 39, 0
3, 53280, Note_on_c, 0, 39, 67
3, 53280, Note_on_c, 0, 51, 74
3, 53296, Control_c, 0, 64, 0
3, 53400, Note_on_c, 0, 51, 0
3, 53400, Note_on_c, 0, 39, 0
3, 53520, Note_on_c, 0, 48, 74
3, 53520, Note_on_c, 0, 36, 67
3, 53640, Note_on_c, 0, 36, 0
3, 53640, Note_on_c, 0, 48, 0
3, 53760, Note_on_c, 0, 44, 69
3, 53760, Note_on_c, 0, 51, 69
3, 53760, Note_on_c, 0, 56, 77
3, 53909, Control_c, 0, 64, 127
3, 54240, Note_on_c, 0, 56, 0
3, 54240, Note_on_c, 0, 51, 0
3, 54240, Note_on_c, 0, 44, 0
3, 54240, Note_on_c, 0, 36, 62
3, 54240, Note_on_c, 0, 48, 70
3, 54259, Control_c, 0, 64, 0
3, 54360, Note_on_c, 0, 48, 0
3, 54360, Note_on_c, 0, 36, 0
3, 54480, Note_on_c, 0, 32, 62
3, 54480, Note_on_c, 0, 44, 70
3, 54600, Note_on_c, 0, 44, 0
3, 54600, Note_on_c, 0, 32, 0
3, 54720, Note_on_c, 0, 53, 74
3, 54720, Note_on_c, 0, 48, 67
3, 54720, Note_on_c, 0, 44, 67
3, 54720, Note_on_c, 0, 41, 67
3, 54811, Control_c, 0, 64, 127
3, 55200, Note_on_c, 0, 41, 0
3, 55200, Note_on_c, 0, 53, 0
3, 55200, Note_on_c, 0, 48, 0
3, 55200, Note_on_c, 0, 44, 0
3, 55200, Note_on_c, 0, 32, 59
3, 55200, Note_on_c, 0, 44, 66
3, 55212, Control_c, 0, 64, 0
3, 55440, Note_on_c, 0, 44, 0
3, 55440, Note_on_c, 0, 32, 0
3, 55440, Note_on_c, 0, 29, 59
3, 55440, Note_on_c, 0, 41, 66
3, 55680, Note_on_c, 0, 41, 0
3, 55680, Note_on_c, 0, 29, 0
3, 55680, Note_on_c, 0, 48, 62
3, 55680, Note_on_c, 0, 51, 62
3, 55680, Note_on_c, 0, 54, 62
3, 55680, Note_on_c, 0, 57, 70
3, 55680, Note_on_c, 0, 60, 70
3, 55772, Control_c, 0, 64, 127
3, 56160, Note_on_c, 0, 60, 0
3, 56160, Note_on_c, 0, 54, 0
3, 56160, Note_on_c, 0, 48, 0
3, 56160, Note_on_c, 0, 51, 0
3, 56160, Note_on_c, 0, 57, 0
3, 56160, Note_on_c, 0, 31, 62
3, 56160, Note_on_c, 0, 43, 70
3, 56177, Control_c, 0, 64, 0
3, 56400, Note_on_c, 0, 43, 0
3, 56400, Note_on_c, 0, 31, 0
3, 56640, Note_on_c, 0, 31, 53
3, 56640, Note_on_c, 0, 43, 58
3, 56820, Note_on_c, 0, 43, 0
3, 56820, Note_on_c, 0, 31, 0
3, 57120, Note_on_c, 0, 31, 48
3, 57120, Note_on_c, 0, 43, 55
3, 57300, Note_on_c, 0, 43, 0
3, 57300, Note_on_c, 0, 31, 0
3, 57600, Control_c, 0, 64, 127
3, 57600, Note_on_c, 0, 32, 46
3, 57600, Note_on_c, 0, 36, 46
3, 57600, Note_on_c, 0, 44, 51
3, 58570, Control_c, 0, 64, 0
3, 58960, Control_c, 0, 64, 127
3, 59520, Note_on_c, 0, 44, 0
3, 59520, Note_on_c, 0, 36, 0
3, 59520, Note_on_c, 0, 32, 0
3, 59520, Note_on_c, 0, 60, 35
3, 59520, Note_on_c, 0, 56, 35
3, 59520, Note_on_c, 0, 51, 30
3, 59532, Control_c, 0, 64, 0
3, 59867, Control_c, 0, 64, 127
3, 61430, Note_on_c, 0, 51, 0
3, 61430, Note_on_c, 0, 60, 0
3, 61440, Note_on_c, 0, 56, 0
3, 61440, Control_c, 0, 64, 0
3, 61440, Note_on_c, 0, 36, 27
3, 61440, Note_on_c, 0, 48, 33
3, 61440, Control_c, 0, 91, 60
3, 61553, Control_c, 0, 64, 127
3, 61600, Note_on_c, 0, 48, 0
3, 61600, Note_on_c, 0, 43, 33
3, 61760, Note_on_c, 0, 43, 0
3, 61760, Note_on_c, 0, 48, 33
3, 61920, Note_on_c, 0, 48, 0
3, 61920, Note_on_c, 0, 36, 0
3, 61920, Note_on_c, 0, 36, 25
3, 61920, Note_on_c, 0, 43, 30
3, 61939, Control_c, 0, 64, 0
3, 62400, Note_on_c, 0, 43, 0
3, 62400, Note_on_c, 0, 36, 0
3, 62400, Note_on_c, 0, 36, 27
3, 62400, Note_on_c, 0, 48, 33
3, 62464, Control_c, 0, 64, 127
3, 62560, Note_on_c, 0, 48, 0
3, 62560, Note_on_c, 0, 43, 33
3, 62720, Note_on_c, 0, 43, 0
3, 62720, Note_on_c, 0, 48, 33
3, 62880, Note_on_c, 0, 48, 0
3, 62880, Note_on_c, 0, 36, 0
3, 62880, Note_on_c, 0, 36, 25
3, 62880, Note_on_c, 0, 43, 30
3, 62901, Control_c, 0, 64, 0
3, 63360, Note_on_c, 0, 43, 0
3, 63360, Note_on_c, 0, 36, 0
3, 63360, Note_on_c, 0, 36, 29
3, 63360, Note_on_c, 0, 51, 35
3, 63445, Control_c, 0, 64, 127
3, 63520, Note_on_c, 0, 51, 0
3, 63520, Note_on_c, 0, 43, 35
3, 63680, Note_on_c, 0, 43, 0
3, 63680, Note_on_c, 0, 50, 35
3, 63840, Note_on_c, 0, 50, 0
3, 63840, Note_on_c, 0, 36, 0
3, 63840, Note_on_c, 0, 36, 29
3, 63840, Note_on_c, 0, 43, 35
3, 63861, Control_c, 0, 64, 0
3, 64320, Note_on_c, 0, 43, 0
3, 64320, Note_on_c, 0, 36, 0
3, 64320, Note_on_c, 0, 36, 27
3, 64320, Note_on_c, 0, 48, 33
3, 64389, Control_c, 0, 64, 127
3, 64480, Note_on_c, 0, 48, 0
3, 64480, Note_on_c, 0, 43, 33
3, 64640, Note_on_c, 0, 43, 0
3, 64640, Note_on_c, 0, 46, 33
3, 64659, Control_c, 0, 64, 0
3, 64800, Note_on_c, 0, 46, 0
3, 64800, Note_on_c, 0, 36, 0
3, 64800, Note_on_c, 0, 43, 33
3, 64800, Note_on_c, 0, 36, 27
3, 65280, Note_on_c, 0, 36, 0
3, 65280, Note_on_c, 0, 43, 0
3, 65280, Note_on_c, 0, 36, 35
3, 65288, Note_on_c, 0, 44, 35
3, 65326, Control_c, 0, 64, 127
3, 65440, Note_on_c, 0, 48, 35
3, 65448, Note_on_c, 0, 44, 0
3, 65600, Note_on_c, 0, 48, 0
3, 65600, Note_on_c, 0, 36, 0
3, 65600, Note_on_c, 0, 43, 33
3, 65600, Note_on_c, 0, 36, 33
3, 65614, Control_c, 0, 64, 0
3, 65756, Note_on_c, 0, 46, 31
3, 65760, Note_on_c, 0, 43, 0
3, 66236, Note_on_c, 0, 46, 0
3, 66240, Note_on_c, 0, 36, 0
3, 66240, Note_on_c, 0, 36, 31
3, 66240, Note_on_c, 0, 44, 38
3, 66297, Control_c, 0, 64, 127
3, 66400, Note_on_c, 0, 44, 0
3, 66400, Note_on_c, 0, 48, 35
3, 66560, Note_on_c, 0, 48, 0
3, 66560, Note_on_c, 0, 36, 0
3, 66560, Note_on_c, 0, 36, 29
3, 66560, Note_on_c, 0, 43, 35
3, 66564, Control_c, 0, 64, 0
3, 66650, Control_c, 0, 64, 127
3, 66720, Note_on_c, 0, 43, 0
3, 66720, Note_on_c, 0, 46, 34
3, 66880, Note_on_c, 0, 46, 0
3, 66880, Note_on_c, 0, 36, 0
3, 66880, Note_on_c, 0, 36, 26
3, 66880, Note_on_c, 0, 41, 35
3, 66897, Control_c, 0, 64, 0
3, 67003, Control_c, 0, 64, 127
3, 67040, Note_on_c, 0, 41, 0
3, 67040, Note_on_c, 0, 44, 31
3, 67200, Note_on_c, 0, 44, 0
3, 67200, Note_on_c, 0, 36, 0
3, 67200, Note_on_c, 0, 36, 29
3, 67204, Note_on_c, 0, 39, 35
3, 67207, Control_c, 0, 64, 0
3, 67303, Control_c, 0, 64, 127
3, 67360, Note_on_c, 0, 44, 33
3, 67364, Note_on_c, 0, 39, 0
3, 67520, Note_on_c, 0, 44, 0
3, 67524, Note_on_c, 0, 39, 33
3, 67680, Note_on_c, 0, 36, 0
3, 67680, Note_on_c, 0, 31, 29
3, 67680, Note_on_c, 0, 43, 35
3, 67684, Note_on_c, 0, 39, 0
3, 67695, Control_c, 0, 64, 0
3, 68160, Note_on_c, 0, 43, 0
3, 68160, Note_on_c, 0, 31, 0
3, 68160, Note_on_c, 0, 36, 29
3, 68160, Note_on_c, 0, 39, 35
3, 68206, Control_c, 0, 64, 127
3, 68320, Note_on_c, 0, 39, 0
3, 68320, Note_on_c, 0, 45, 34
3, 68480, Note_on_c, 0, 45, 0
3, 68480, Note_on_c, 0, 39, 34
3, 68640, Note_on_c, 0, 39, 0
3, 68640, Note_on_c, 0, 36, 0
3, 68640, Note_on_c, 0, 31, 29
3, 68640, Note_on_c, 0, 43, 35
3, 68660, Control_c, 0, 64, 0
3, 69120, Note_on_c, 0, 43, 0
3, 69120, Note_on_c, 0, 31, 0
3, 69120, Note_on_c, 0, 52, 41
3, 69120, Note_on_c, 0, 36, 41
3, 69172, Control_c, 0, 64, 127
3, 69280, Note_on_c, 0, 52, 0
3, 69280, Note_on_c, 0, 43, 38
3, 69440, Note_on_c, 0, 43, 0
3, 69440, Note_on_c, 0, 52, 38
3, 69600, Note_on_c, 0, 52, 0
3, 69600, Note_on_c, 0, 36, 0
3, 69600, Note_on_c, 0, 50, 37
3, 69600, Note_on_c, 0, 55, 37
3, 69600, Note_on_c, 0, 43, 37
3, 69600, Note_on_c, 0, 48, 37
3, 69619, Control_c, 0, 64, 0
3, 70080, Note_on_c, 0, 48, 0
3, 70080, Note_on_c, 0, 50, 0
3, 70080, Note_on_c, 0, 55, 0
3, 70080, Note_on_c, 0, 43, 0
3, 70080, Note_on_c, 0, 36, 48
3, 70080, Note_on_c, 0, 48, 48
3, 70137, Control_c, 0, 64, 127
3, 70240, Note_on_c, 0, 48, 0
3, 70240, Note_on_c, 0, 43, 44
3, 70400, Note_on_c, 0, 43, 0
3, 70400, Note_on_c, 0, 48, 44
3, 70560, Note_on_c, 0, 48, 0
3, 70560, Note_on_c, 0, 36, 0
3, 70560, Note_on_c, 0, 55, 39
3, 70560, Note_on_c, 0, 50, 39
3, 70560, Note_on_c, 0, 48, 39
3, 70560, Note_on_c, 0, 43, 39
3, 70571, Control_c, 0, 64, 0
3, 71040, Note_on_c, 0, 43, 0
3, 71040, Note_on_c, 0, 55, 0
3, 71040, Note_on_c, 0, 50, 0
3, 71040, Note_on_c, 0, 48, 0
3, 71040, Note_on_c, 0, 36, 52
3, 71040, Note_on_c, 0, 52, 52
3, 71115, Control_c, 0, 64, 127
3, 71200, Note_on_c, 0, 52, 0
3, 71200, Note_on_c, 0, 43, 48
3, 71360, Note_on_c, 0, 43, 0
3, 71360, Note_on_c, 0, 50, 48
3, 71520, Note_on_c, 0, 50, 0
3, 71520, Note_on_c, 0, 36, 0
3, 71520, Note_on_c, 0, 43, 46
3, 71520, Note_on_c, 0, 48, 46
3, 71520, Note_on_c, 0, 50, 46
3, 71520, Note_on_c, 0, 55, 46
3, 71532, Control_c, 0, 64, 0
3, 72000, Note_on_c, 0, 55, 0
3, 72000, Note_on_c, 0, 43, 0
3, 72000, Note_on_c, 0, 48, 0
3, 72000, Note_on_c, 0, 50, 0
3, 72000, Note_on_c, 0, 36, 54
3, 72000, Control_c, 0, 64, 127
3, 72000, Note_on_c, 0, 48, 60
3, 72160, Note_on_c, 0, 48, 0
3, 72160, Note_on_c, 0, 43, 53
3, 72320, Note_on_c, 0, 43, 0
3, 72320, Note_on_c, 0, 46, 53
3, 72480, Note_on_c, 0, 46, 0
3, 72480, Note_on_c, 0, 36, 0
3, 72480, Note_on_c, 0, 55, 53
3, 72480, Note_on_c, 0, 48, 53
3, 72480, Note_on_c, 0, 43, 53
3, 72497, Control_c, 0, 64, 0
3, 72960, Note_on_c, 0, 43, 0
3, 72960, Note_on_c, 0, 48, 0
3, 72960, Note_on_c, 0, 55, 0
3, 72960, Note_on_c, 0, 36, 56
3, 72960, Note_on_c, 0, 41, 56
3, 72960, Note_on_c, 0, 45, 66
3, 73003, Control_c, 0, 64, 127
3, 73120, Note_on_c, 0, 45, 0
3, 73120, Note_on_c, 0, 41, 0
3, 73120, Note_on_c, 0, 36, 0
3, 73120, Note_on_c, 0, 48, 52
3, 73200, Note_on_c, 0, 48, 0
3, 73280, Note_on_c, 0, 55, 56
3, 73280, Note_on_c, 0, 48, 47
3, 73280, Note_on_c, 0, 52, 47
3, 73440, Note_on_c, 0, 60, 64
3, 73448, Control_c, 0, 64, 0
3, 73920, Note_on_c, 0, 60, 0
3, 73920, Note_on_c, 0, 55, 0
3, 73920, Note_on_c, 0, 48, 0
3, 73920, Note_on_c, 0, 52, 0
3, 73920, Note_on_c, 0, 38, 56
3, 73920, Note_on_c, 0, 41, 56
3, 73920, Note_on_c, 0, 45, 66
3, 73963, Control_c, 0, 64, 127
3, 74080, Note_on_c, 0, 45, 0
3, 74080, Note_on_c, 0, 41, 0
3, 74080, Note_on_c, 0, 38, 0
3, 74080, Note_on_c, 0, 50, 62
3, 74160, Note_on_c, 0, 50, 0
3, 74240, Note_on_c, 0, 45, 47
3, 74240, Note_on_c, 0, 48, 47
3, 74240, Note_on_c, 0, 52, 56
3, 74400, Note_on_c, 0, 57, 63
3, 74405, Control_c, 0, 64, 0
3, 74880, Note_on_c, 0, 57, 0
3, 74880, Note_on_c, 0, 45, 0
3, 74880, Note_on_c, 0, 48, 0
3, 74880, Note_on_c, 0, 52, 0
3, 74880, Note_on_c, 0, 31, 67
3, 74960, Control_c, 0, 64, 127
3, 75040, Note_on_c, 0, 31, 0
3, 75040, Note_on_c, 0, 43, 52
3, 75200, Note_on_c, 0, 43, 0
3, 75200, Note_on_c, 0, 52, 64
3, 75200, Note_on_c, 0, 48, 54
3, 75223, Control_c, 0, 64, 0
3, 75292, Control_c, 0, 64, 127
3, 75360, Note_on_c, 0, 48, 0
3, 75360, Note_on_c, 0, 52, 0
3, 75360, Note_on_c, 0, 43, 42
3, 75360, Note_on_c, 0, 55, 50
3, 75520, Note_on_c, 0, 55, 0
3, 75520, Note_on_c, 0, 43, 0
3, 75520, Note_on_c, 0, 50, 52
3, 75520, Note_on_c, 0, 53, 62
3, 75537, Control_c, 0, 64, 0
3, 75623, Control_c, 0, 64, 127
3, 75680, Note_on_c, 0, 53, 0
3, 75680, Note_on_c, 0, 50, 0
3, 75680, Note_on_c, 0, 43, 40
3, 75680, Note_on_c, 0, 55, 48
3, 75840, Note_on_c, 0, 55, 0
3, 75840, Note_on_c, 0, 43, 0
3, 75840, Control_c, 0, 64, 0
3, 75840, Note_on_c, 0, 48, 57
3, 75840, Note_on_c, 0, 52, 68
3, 75897, Control_c, 0, 64, 127
3, 76000, Note_on_c, 0, 52, 0
3, 76000, Note_on_c, 0, 48, 0
3, 76000, Note_on_c, 0, 43, 44
3, 76000, Note_on_c, 0, 55, 52
3, 76160, Note_on_c, 0, 55, 0
3, 76160, Note_on_c, 0, 43, 0
3, 76160, Note_on_c, 0, 45, 52
3, 76160, Note_on_c, 0, 48, 62
3, 76320, Note_on_c, 0, 48, 0
3, 76320, Note_on_c, 0, 45, 0
3, 76320, Note_on_c, 0, 43, 49
3, 76320, Note_on_c, 0, 47, 49
3, 76320, Note_on_c, 0, 50, 58
3, 76320, Note_on_c, 0, 55, 58
3, 76343, Control_c, 0, 64, 0
3, 76800, Note_on_c, 0, 55, 0
3, 76800, Note_on_c, 0, 43, 0
3, 76800, Note_on_c, 0, 47, 0
3, 76800, Note_on_c, 0, 50, 0
3, 76800, Note_on_c, 0, 36, 62
3, 76835, Control_c, 0, 64, 127
3, 76960, Note_on_c, 0, 36, 0
3, 76960, Note_on_c, 0, 48, 58
3, 77120, Note_on_c, 0, 48, 0
3, 77120, Note_on_c, 0, 57, 57
3, 77120, Note_on_c, 0, 53, 48
3, 77125, Control_c, 0, 64, 0
3, 77178, Control_c, 0, 64, 127
3, 77280, Note_on_c, 0, 48, 44
3, 77280, Note_on_c, 0, 60, 52
3, 77460, Control_c, 0, 64, 0
3, 77513, Control_c, 0, 64, 127
3, 77600, Note_on_c, 0, 53, 0
3, 77600, Note_on_c, 0, 57, 0
3, 77600, Note_on_c, 0, 52, 51
3, 77600, Note_on_c, 0, 55, 51
3, 77760, Note_on_c, 0, 55, 0
3, 77760, Note_on_c, 0, 60, 0
3, 77760, Note_on_c, 0, 48, 0
3, 77760, Note_on_c, 0, 52, 0
3, 77760, Note_on_c, 0, 33, 58
3, 77767, Control_c, 0, 64, 0
3, 77809, Control_c, 0, 64, 127
3, 77920, Note_on_c, 0, 33, 0
3, 77920, Note_on_c, 0, 45, 58
3, 78080, Note_on_c, 0, 45, 0
3, 78080, Note_on_c, 0, 53, 58
3, 78080, Note_on_c, 0, 50, 49
3, 78101, Control_c, 0, 64, 0
3, 78141, Control_c, 0, 64, 127
3, 78240, Note_on_c, 0, 45, 44
3, 78240, Note_on_c, 0, 57, 52
3, 78420, Control_c, 0, 64, 0
3, 78466, Control_c, 0, 64, 127
3, 78560, Note_on_c, 0, 50, 0
3, 78560, Note_on_c, 0, 53, 0
3, 78560, Note_on_c, 0, 48, 49
3, 78560, Note_on_c, 0, 52, 49
3, 78720, Note_on_c, 0, 52, 0
3, 78720, Note_on_c, 0, 57, 0
3, 78720, Note_on_c, 0, 45, 0
3, 78720, Note_on_c, 0, 48, 0
3, 78720, Note_on_c, 0, 31, 58
3, 78728, Control_c, 0, 64, 0
3, 78783, Control_c, 0, 64, 127
3, 78880, Note_on_c, 0, 31, 0
3, 78880, Note_on_c, 0, 43, 52
3, 79040, Note_on_c, 0, 43, 0
3, 79040, Note_on_c, 0, 52, 59
3, 79040, Note_on_c, 0, 48, 50
3, 79057, Control_c, 0, 64, 0
3, 79155, Control_c, 0, 64, 127
3, 79200, Note_on_c, 0, 48, 0
3, 79200, Note_on_c, 0, 52, 0
3, 79200, Note_on_c, 0, 43, 52
3, 79200, Note_on_c, 0, 55, 52
3, 79360, Note_on_c, 0, 55, 0
3, 79360, Note_on_c, 0, 43, 0
3, 79360, Note_on_c, 0, 45, 59
3, 79360, Note_on_c, 0, 48, 59
3, 79380, Control_c, 0, 64, 0
3, 79480, Control_c, 0, 64, 127
3, 79520, Note_on_c, 0, 48, 0
3, 79520, Note_on_c, 0, 45, 0
3, 79520, Note_on_c, 0, 43, 51
3, 79520, Note_on_c, 0, 55, 51
3, 79680, Note_on_c, 0, 55, 0
3, 79680, Note_on_c, 0, 43, 0
3, 79680, Note_on_c, 0, 31, 37
3, 79680, Note_on_c, 0, 35, 37
3, 79680, Note_on_c, 0, 38, 44
3, 79680, Note_on_c, 0, 43, 44
3, 79701, Control_c, 0, 64, 0
3, 79740, Control_c, 0, 64, 127
3, 80160, Note_on_c, 0, 43, 0
3, 80160, Note_on_c, 0, 31, 0
3, 80160, Note_on_c, 0, 35, 0
3, 80160, Note_on_c, 0, 38, 0
3, 80160, Note_on_c, 0, 36, 50
3, 80160, Note_on_c, 0, 48, 59
3, 80174, Control_c, 0, 64, 0
3, 80340, Note_on_c, 0, 48, 0
3, 80340, Note_on_c, 0, 36, 0
3, 80400, Note_on_c, 0, 34, 50
3, 80400, Note_on_c, 0, 46, 59
3, 80580, Note_on_c, 0, 46, 0
3, 80580, Note_on_c, 0, 34, 0
3, 80640, Note_on_c, 0, 32, 53
3, 80640, Note_on_c, 0, 36, 53
3, 80640, Note_on_c, 0, 44, 60
3, 80880, Control_c, 0, 64, 127
3, 81612, Control_c, 0, 64, 0
3, 81920, Control_c, 0, 64, 127
3, 82560, Note_on_c, 0, 44, 0
3, 82560, Note_on_c, 0, 36, 0
3, 82560, Note_on_c, 0, 32, 0
3, 82560, Note_on_c, 0, 51, 34
3, 82560, Note_on_c, 0, 56, 38
3, 82560, Note_on_c, 0, 60, 38
3, 82568, Control_c, 0, 64, 0
3, 82880, Control_c, 0, 64, 127
3, 84470, Note_on_c, 0, 60, 0
3, 84480, Note_on_c, 0, 56, 0
3, 84480, Note_on_c, 0, 51, 0
3, 84480, Note_on_c, 0, 32, 29
3, 84480, Note_on_c, 0, 36, 29
3, 84480, Note_on_c, 0, 44, 33
3, 84490, Control_c, 0, 64, 0
3, 84640, Control_c, 0, 64, 127
3, 84980, Control_c, 0, 64, 0
3, 85254, Control_c, 0, 64, 127
3, 85440, Note_on_c, 0, 44, 0
3, 85440, Note_on_c, 0, 36, 0
3, 85440, Note_on_c, 0, 32, 0
3, 85440, Note_on_c, 0, 48, 37
3, 85440, Note_on_c, 0, 44, 37
3, 85440, Note_on_c, 0, 53, 37
3, 85459, Control_c, 0, 64, 0
3, 85623, Control_c, 0, 64, 127
3, 85920, Note_on_c, 0, 53, 0
3, 85920, Note_on_c, 0, 52, 35
3, 85939, Control_c, 0, 64, 0
3, 86217, Control_c, 0, 64, 127
3, 86400, Note_on_c, 0, 52, 0
3, 86400, Note_on_c, 0, 44, 0
3, 86400, Note_on_c, 0, 48, 0
3, 86400, Note_on_c, 0, 63, 28
3, 86400, Note_on_c, 0, 60, 28
3, 86400, Note_on_c, 0, 56, 25
3, 86400, Note_on_c, 0, 51, 25
3, 86413, Control_c, 0, 64, 0
3, 86907, Control_c, 0, 64, 127
3, 87840, Control_c, 0, 64, 0
3, 88200, Note_on_c, 0, 32, 22
3, 88204, Control_c, 0, 64, 127
3, 88320, Note_on_c, 0, 51, 0
3, 88320, Note_on_c, 0, 56, 0
3, 88320, Note_on_c, 0, 63, 0
3, 88320, Note_on_c, 0, 60, 0
3, 88320, Note_on_c, 0, 44, 27
3, 88320, Control_c, 0, 91, 127
3, 88440, Note_on_c, 0, 44, 0
3, 88440, Note_on_c, 0, 32, 0
3, 88560, Note_on_c, 0, 48, 22
3, 88680, Note_on_c, 0, 48, 0
3, 88705, Control_c, 0, 64, 0
3, 88740, Note_on_c, 0, 44, 17
3, 88800, Note_on_c, 0, 56, 26
3, 88867, Control_c, 0, 64, 127
3, 88920, Note_on_c, 0, 56, 0
3, 88920, Note_on_c, 0, 44, 0
3, 89040, Note_on_c, 0, 60, 22
3, 89160, Note_on_c, 0, 60, 0
3, 89220, Note_on_c, 0, 56, 17
3, 89227, Control_c, 0, 64, 0
3, 89280, Note_on_c, 0, 68, 27
3, 89368, Control_c, 0, 64, 127
3, 89400, Note_on_c, 0, 68, 0
3, 89400, Note_on_c, 0, 56, 0
3, 89520, Note_on_c, 0, 60, 23
3, 89640, Note_on_c, 0, 60, 0
3, 89700, Note_on_c, 0, 44, 17
3, 89714, Control_c, 0, 64, 0
3, 89760, Note_on_c, 0, 56, 27
3, 89834, Control_c, 0, 64, 127
3, 89880, Note_on_c, 0, 56, 0
3, 89880, Note_on_c, 0, 44, 0
3, 90000, Note_on_c, 0, 48, 24
3, 90120, Note_on_c, 0, 48, 0
3, 90180, Control_c, 0, 64, 0
3, 90180, Note_on_c, 0, 32, 16
3, 90240, Note_on_c, 0, 44, 27
3, 90304, Control_c, 0, 64, 127
3, 90360, Note_on_c, 0, 44, 0
3, 90360, Note_on_c, 0, 32, 0
3, 90480, Note_on_c, 0, 48, 22
3, 90600, Note_on_c, 0, 48, 0
3, 90604, Control_c, 0, 64, 0
3, 90660, Note_on_c, 0, 44, 17
3, 90720, Note_on_c, 0, 56, 26
3, 90791, Control_c, 0, 64, 127
3, 90840, Note_on_c, 0, 56, 0
3, 90840, Note_on_c, 0, 44, 0
3, 90960, Note_on_c, 0, 60, 22
3, 91080, Note_on_c, 0, 60, 0
3, 91105, Control_c, 0, 64, 0
3, 91140, Note_on_c, 0, 56, 16
3, 91200, Note_on_c, 0, 63, 27
3, 91260, Control_c, 0, 64, 127
3, 91320, Note_on_c, 0, 63, 0
3, 91320, Note_on_c, 0, 56, 0
3, 91440, Note_on_c, 0, 67, 24
3, 91560, Note_on_c, 0, 67, 0
3, 91592, Control_c, 0, 64, 0
3, 91620, Note_on_c, 0, 56, 15
3, 91680, Note_on_c, 0, 61, 27
3, 91747, Control_c, 0, 64, 127
3, 91800, Note_on_c, 0, 61, 0
3, 91800, Note_on_c, 0, 56, 0
3, 91920, Note_on_c, 0, 63, 24
3, 92040, Note_on_c, 0, 63, 0
3, 92079, Control_c, 0, 64, 0
3, 92100, Note_on_c, 0, 56, 15
3, 92160, Note_on_c, 0, 65, 26
3, 92245, Control_c, 0, 64, 127
3, 92280, Note_on_c, 0, 65, 0
3, 92280, Note_on_c, 0, 56, 0
3, 92400, Note_on_c, 0, 68, 24
3, 92520, Note_on_c, 0, 68, 0
3, 92580, Note_on_c, 0, 56, 16
3, 92640, Note_on_c, 0, 61, 27
3, 92649, Control_c, 0, 64, 0
3, 92707, Control_c, 0, 64, 127
3, 92760, Note_on_c, 0, 61, 0
3, 92760, Note_on_c, 0, 56, 0
3, 92880, Note_on_c, 0, 65, 24
3, 93000, Note_on_c, 0, 65, 0
3, 93060, Note_on_c, 0, 44, 16
3, 93120, Note_on_c, 0, 49, 26
3, 93133, Control_c, 0, 64, 0
3, 93191, Control_c, 0, 64, 127
3, 93240, Note_on_c, 0, 49, 0
3, 93240, Note_on_c, 0, 44, 0
3, 93360, Note_on_c, 0, 51, 24
3, 93480, Note_on_c, 0, 51, 0
3, 93480, Note_on_c, 0, 44, 17
3, 93540, Note_on_c, 0, 51, 17
3, 93600, Note_on_c, 0, 55, 26
3, 93607, Control_c, 0, 64, 0
3, 93664, Control_c, 0, 64, 127
3, 93720, Note_on_c, 0, 55, 0
3, 93720, Note_on_c, 0, 51, 0
3, 93720, Note_on_c, 0, 44, 0
3, 93840, Note_on_c, 0, 56, 24
3, 93960, Note_on_c, 0, 56, 0
3, 93960, Note_on_c, 0, 44, 17
3, 94020, Note_on_c, 0, 51, 17
3, 94080, Note_on_c, 0, 58, 24
3, 94089, Control_c, 0, 64, 0
3, 94147, Control_c, 0, 64, 127
3, 94200, Note_on_c, 0, 58, 0
3, 94200, Note_on_c, 0, 51, 0
3, 94200, Note_on_c, 0, 44, 0
3, 94320, Note_on_c, 0, 61, 24
3, 94440, Note_on_c, 0, 61, 0
3, 94440, Note_on_c, 0, 44, 17
3, 94500, Note_on_c, 0, 51, 17
3, 94560, Note_on_c, 0, 56, 24
3, 94566, Control_c, 0, 64, 0
3, 94624, Control_c, 0, 64, 127
3, 94680, Note_on_c, 0, 56, 0
3, 94680, Note_on_c, 0, 51, 0
3, 94680, Note_on_c, 0, 44, 0
3, 94800, Note_on_c, 0, 60, 24
3, 94920, Note_on_c, 0, 60, 0
3, 94920, Note_on_c, 0, 44, 17
3, 94980, Note_on_c, 0, 51, 17
3, 95040, Note_on_c, 0, 55, 22
3, 95048, Control_c, 0, 64, 0
3, 95121, Control_c, 0, 64, 127
3, 95160, Note_on_c, 0, 55, 0
3, 95160, Note_on_c, 0, 51, 0
3, 95160, Note_on_c, 0, 44, 0
3, 95280, Note_on_c, 0, 58, 24
3, 95400, Note_on_c, 0, 58, 0
3, 95400, Note_on_c, 0, 44, 16
3, 95460, Note_on_c, 0, 51, 16
3, 95520, Note_on_c, 0, 56, 22
3, 95527, Control_c, 0, 64, 0
3, 95605, Control_c, 0, 64, 127
3, 95640, Note_on_c, 0, 56, 0
3, 95640, Note_on_c, 0, 51, 0
3, 95640, Note_on_c, 0, 44, 0
3, 95760, Note_on_c, 0, 55, 19
3, 95880, Note_on_c, 0, 55, 0
3, 95940, Note_on_c, 0, 44, 22
3, 96000, Control_c, 0, 64, 0
3, 96000, Note_on_c, 0, 56, 27
3, 96000, Control_c, 0, 91, 127
3, 96064, Control_c, 0, 64, 127
3, 96120, Note_on_c, 0, 56, 0
3, 96120, Note_on_c, 0, 44, 0
3, 96240, Note_on_c, 0, 48, 22
3, 96360, Note_on_c, 0, 48, 0
3, 96420, Note_on_c, 0, 32, 17
3, 96480, Note_on_c, 0, 44, 26
3, 96493, Control_c, 0, 64, 0
3, 96565, Control_c, 0, 64, 127
3, 96600, Note_on_c, 0, 44, 0
3, 96600, Note_on_c, 0, 32, 0
3, 96720, Note_on_c, 0, 48, 22
3, 96840, Note_on_c, 0, 48, 0
3, 96900, Note_on_c, 0, 44, 17
3, 96960, Note_on_c, 0, 56, 27
3, 96970, Control_c, 0, 64, 0
3, 97013, Control_c, 0, 64, 127
3, 97080, Note_on_c, 0, 56, 0
3, 97080, Note_on_c, 0, 44, 0
3, 97200, Note_on_c, 0, 48, 23
3, 97320, Note_on_c, 0, 48, 0
3, 97380, Note_on_c, 0, 32, 17
3, 97440, Note_on_c, 0, 44, 27
3, 97458, Control_c, 0, 64, 0
3, 97539, Control_c, 0, 64, 127
3, 97560, Note_on_c, 0, 44, 0
3, 97560, Note_on_c, 0, 32, 0
3, 97680, Note_on_c, 0, 48, 24
3, 97800, Note_on_c, 0, 48, 0
3, 97860, Note_on_c, 0, 31, 16
3, 97920, Note_on_c, 0, 43, 27
3, 97929, Control_c, 0, 64, 0
3, 97994, Control_c, 0, 64, 127
3, 98040, Note_on_c, 0, 43, 0
3, 98040, Note_on_c, 0, 31, 0
3, 98160, Note_on_c, 0, 48, 22
3, 98280, Note_on_c, 0, 48, 0
3, 98340, Note_on_c, 0, 43, 17
3, 98361, Control_c, 0, 64, 0
3, 98400, Note_on_c, 0, 55, 26
3, 98478, Control_c, 0, 64, 127
3, 98520, Note_on_c, 0, 55, 0
3, 98520, Note_on_c, 0, 43, 0
3, 98640, Note_on_c, 0, 60, 22
3, 98760, Note_on_c, 0, 60, 0
3, 98820, Note_on_c, 0, 53, 16
3, 98841, Control_c, 0, 64, 0
3, 98880, Note_on_c, 0, 55, 27
3, 98926, Control_c, 0, 64, 127
3, 99000, Note_on_c, 0, 55, 0
3, 99000, Note_on_c, 0, 53, 0
3, 99120, Note_on_c, 0, 59, 24
3, 99240, Note_on_c, 0, 59, 0
3, 99251, Control_c, 0, 64, 0
3, 99300, Note_on_c, 0, 51, 15
3, 99360, Note_on_c, 0, 60, 27
3, 99413, Control_c, 0, 64, 127
3, 99480, Note_on_c, 0, 60, 0
3, 99480, Note_on_c, 0, 51, 0
3, 99600, Note_on_c, 0, 63, 24
3, 99720, Note_on_c, 0, 63, 0
3, 99780, Note_on_c, 0, 53, 15
3, 99840, Note_on_c, 0, 62, 26
3, 99852, Control_c, 0, 64, 0
3, 99886, Control_c, 0, 64, 127
3, 99960, Note_on_c, 0, 62, 0
3, 99960, Note_on_c, 0, 53, 0
3, 100080, Note_on_c, 0, 65, 24
3, 100200, Note_on_c, 0, 65, 0
3, 100260, Note_on_c, 0, 55, 16
3, 100320, Note_on_c, 0, 59, 27
3, 100336, Control_c, 0, 64, 0
3, 100377, Control_c, 0, 64, 127
3, 100440, Note_on_c, 0, 59, 0
3, 100440, Note_on_c, 0, 55, 0
3, 100560, Note_on_c, 0, 62, 24
3, 100680, Note_on_c, 0, 62, 0
3, 100740, Note_on_c, 0, 43, 16
3, 100800, Note_on_c, 0, 55, 26
3, 100813, Control_c, 0, 64, 0
3, 100871, Control_c, 0, 64, 127
3, 100920, Note_on_c, 0, 55, 0
3, 100920, Note_on_c, 0, 43, 0
3, 101040, Note_on_c, 0, 59, 24
3, 101160, Note_on_c, 0, 59, 0
3, 101220, Note_on_c, 0, 39, 17
3, 101280, Note_on_c, 0, 48, 26
3, 101295, Control_c, 0, 64, 0
3, 101347, Control_c, 0, 64, 127
3, 101400, Note_on_c, 0, 48, 0
3, 101400, Note_on_c, 0, 39, 0
3, 101520, Note_on_c, 0, 51, 24
3, 101640, Note_on_c, 0, 51, 0
3, 101700, Note_on_c, 0, 39, 17
3, 101760, Note_on_c, 0, 49, 24
3, 101769, Control_c, 0, 64, 0
3, 101831, Control_c, 0, 64, 127
3, 101880, Note_on_c, 0, 49, 0
3, 101880, Note_on_c, 0, 39, 0
3, 102000, Note_on_c, 0, 51, 24
3, 102120, Note_on_c, 0, 51, 0
3, 102180, Note_on_c, 0, 44, 17
3, 102240, Note_on_c, 0, 48, 24
3, 102246, Control_c, 0, 64, 0
3, 102290, Control_c, 0, 64, 127
3, 102360, Note_on_c, 0, 48, 0
3, 102360, Note_on_c, 0, 44, 0
3, 102480, Note_on_c, 0, 51, 24
3, 102491, Control_c, 0, 64, 0
3, 102600, Note_on_c, 0, 51, 0
3, 102660, Note_on_c, 0, 32, 28
3, 102720, Note_on_c, 0, 39, 35
3, 102840, Note_on_c, 0, 39, 0
3, 102840, Note_on_c, 0, 32, 0
3, 102960, Note_on_c, 0, 44, 30
3, 103080, Note_on_c, 0, 44, 0
3, 103680, Note_on_c, 0, 51, 38
3, 103800, Note_on_c, 0, 51, 0
3, 103920, Note_on_c, 0, 39, 33
3, 104040, Note_on_c, 0, 39, 0
3, 104160, Note_on_c, 0, 27, 40
3, 104280, Note_on_c, 0, 27, 0
3, 104400, Note_on_c, 0, 39, 33
3, 104520, Note_on_c, 0, 39, 0
3, 104640, Note_on_c, 0, 61, 27
3, 104640, Note_on_c, 0, 51, 27
3, 104800, Control_c, 0, 64, 127
3, 105600, Note_on_c, 0, 51, 0
3, 105600, Note_on_c, 0, 61, 0
3, 105600, Control_c, 0, 64, 0
3, 105600, Note_on_c, 0, 49, 36
3, 105720, Note_on_c, 0, 49, 0
3, 105840, Note_on_c, 0, 37, 30
3, 105960, Note_on_c, 0, 37, 0
3, 106080, Note_on_c, 0, 25, 36
3, 106200, Note_on_c, 0, 25, 0
3, 106320, Note_on_c, 0, 37, 29
3, 106440, Note_on_c, 0, 37, 0
3, 106560, Note_on_c, 0, 64, 23
3, 106560, Note_on_c, 0, 61, 23
3, 106560, Note_on_c, 0, 52, 23
3, 106720, Control_c, 0, 64, 127
3, 107510, Note_on_c, 0, 64, 0
3, 107520, Note_on_c, 0, 52, 0
3, 107520, Note_on_c, 0, 61, 0
3, 107520, Control_c, 0, 64, 0
3, 107520, Note_on_c, 0, 48, 28
3, 107640, Note_on_c, 0, 48, 0
3, 107760, Note_on_c, 0, 36, 29
3, 107880, Note_on_c, 0, 36, 0
3, 108000, Note_on_c, 0, 24, 30
3, 108120, Note_on_c, 0, 24, 0
3, 108240, Note_on_c, 0, 36, 31
3, 108360, Note_on_c, 0, 36, 0
3, 108420, Note_on_c, 0, 48, 22
3, 108480, Note_on_c, 0, 52, 34
3, 108540, Note_on_c, 0, 52, 0
3, 108540, Note_on_c, 0, 48, 0
3, 108720, Note_on_c, 0, 48, 35
3, 108840, Note_on_c, 0, 48, 0
3, 108960, Note_on_c, 0, 36, 35
3, 109080, Note_on_c, 0, 36, 0
3, 109200, Note_on_c, 0, 48, 37
3, 109320, Note_on_c, 0, 48, 0
3, 109380, Note_on_c, 0, 46, 26
3, 109440, Note_on_c, 0, 53, 38
3, 109500, Note_on_c, 0, 53, 0
3, 109500, Note_on_c, 0, 46, 0
3, 109680, Note_on_c, 0, 46, 39
3, 109800, Note_on_c, 0, 46, 0
3, 109920, Note_on_c, 0, 34, 40
3, 110040, Note_on_c, 0, 34, 0
3, 110160, Note_on_c, 0, 53, 42
3, 110280, Note_on_c, 0, 53, 0
3, 110340, Note_on_c, 0, 51, 27
3, 110400, Note_on_c, 0, 58, 44
3, 110460, Note_on_c, 0, 58, 0
3, 110460, Note_on_c, 0, 51, 0
3, 110640, Note_on_c, 0, 39, 44
3, 110760, Note_on_c, 0, 39, 0
3, 110880, Note_on_c, 0, 27, 46
3, 111000, Note_on_c, 0, 27, 0
3, 111120, Note_on_c, 0, 51, 47
3, 111212, Control_c, 0, 64, 127
3, 111240, Note_on_c, 0, 51, 0
3, 111300, Note_on_c, 0, 32, 22
3, 111360, Note_on_c, 0, 44, 27
3, 111480, Note_on_c, 0, 44, 0
3, 111480, Note_on_c, 0, 32, 0
3, 111600, Note_on_c, 0, 48, 22
3, 111720, Note_on_c, 0, 48, 0
3, 111780, Note_on_c, 0, 44, 17
3, 111840, Note_on_c, 0, 56, 26
3, 111849, Control_c, 0, 64, 0
3, 111886, Control_c, 0, 64, 127
3, 111960, Note_on_c, 0, 56, 0
3, 111960, Note_on_c, 0, 44, 0
3, 112080, Note_on_c, 0, 60, 22
3, 112200, Note_on_c, 0, 60, 0
3, 112260, Note_on_c, 0, 56, 17
3, 112320, Control_c, 0, 64, 0
3, 112320, Note_on_c, 0, 68, 27
3, 112363, Control_c, 0, 64, 127
3, 112440, Note_on_c, 0, 68, 0
3, 112440, Note_on_c, 0, 56, 0
3, 112560, Note_on_c, 0, 60, 23
3, 112680, Note_on_c, 0, 60, 0
3, 112740, Note_on_c, 0, 44, 17
3, 112800, Note_on_c, 0, 56, 27
3, 112805, Control_c, 0, 64, 0
3, 112860, Control_c, 0, 64, 127
3, 112920, Note_on_c, 0, 56, 0
3, 112920, Note_on_c, 0, 44, 0
3, 113040, Note_on_c, 0, 48, 24
3, 113160, Note_on_c, 0, 48, 0
3, 113220, Note_on_c, 0, 32, 16
3, 113280, Note_on_c, 0, 44, 27
3, 113282, Control_c, 0, 64, 0
3, 113340, Control_c, 0, 64, 127
3, 113400, Note_on_c, 0, 44, 0
3, 113400, Note_on_c, 0, 32, 0
3, 113520, Note_on_c, 0, 48, 22
3, 113640, Note_on_c, 0, 48, 0
3, 113700, Note_on_c, 0, 44, 17
3, 113704, Control_c, 0, 64, 0
3, 113760, Note_on_c, 0, 56, 26
3, 113799, Control_c, 0, 64, 127
3, 113880, Note_on_c, 0, 56, 0
3, 113880, Note_on_c, 0, 44, 0
3, 114000, Note_on_c, 0, 60, 22
3, 114120, Note_on_c, 0, 60, 0
3, 114145, Control_c, 0, 64, 0
3, 114180, Note_on_c, 0, 56, 16
3, 114240, Note_on_c, 0, 63, 27
3, 114279, Control_c, 0, 64, 127
3, 114360, Note_on_c, 0, 63, 0
3, 114360, Note_on_c, 0, 56, 0
3, 114480, Note_on_c, 0, 67, 24
3, 114600, Note_on_c, 0, 67, 0
3, 114628, Control_c, 0, 64, 0
3, 114660, Note_on_c, 0, 56, 15
3, 114720, Note_on_c, 0, 61, 27
3, 114759, Control_c, 0, 64, 127
3, 114840, Note_on_c, 0, 61, 0
3, 114840, Note_on_c, 0, 56, 0
3, 114960, Note_on_c, 0, 63, 24
3, 115080, Note_on_c, 0, 63, 0
3, 115119, Control_c, 0, 64, 0
3, 115140, Note_on_c, 0, 56, 15
3, 115200, Note_on_c, 0, 65, 26
3, 115250, Control_c, 0, 64, 127
3, 115320, Note_on_c, 0, 65, 0
3, 115320, Note_on_c, 0, 56, 0
3, 115440, Note_on_c, 0, 68, 24
3, 115560, Note_on_c, 0, 68, 0
3, 115592, Control_c, 0, 64, 0
3, 115620, Note_on_c, 0, 56, 16
3, 115680, Note_on_c, 0, 61, 27
3, 115747, Control_c, 0, 64, 127
3, 115800, Note_on_c, 0, 61, 0
3, 115800, Note_on_c, 0, 56, 0
3, 115920, Note_on_c, 0, 65, 24
3, 116040, Note_on_c, 0, 65, 0
3, 116100, Note_on_c, 0, 44, 16
3, 116160, Control_c, 0, 64, 0
3, 116160, Note_on_c, 0, 49, 26
3, 116206, Control_c, 0, 64, 127
3, 116280, Note_on_c, 0, 49, 0
3, 116280, Note_on_c, 0, 44, 0
3, 116400, Note_on_c, 0, 51, 24
3, 116520, Note_on_c, 0, 51, 0
3, 116520, Note_on_c, 0, 44, 17
3, 116580, Note_on_c, 0, 51, 17
3, 116640, Note_on_c, 0, 55, 26
3, 116644, Control_c, 0, 64, 0
3, 116697, Control_c, 0, 64, 127
3, 116760, Note_on_c, 0, 55, 0
3, 116760, Note_on_c, 0, 51, 0
3, 116760, Note_on_c, 0, 44, 0
3, 116880, Note_on_c, 0, 56, 24
3, 117000, Note_on_c, 0, 56, 0
3, 117000, Note_on_c, 0, 44, 17
3, 117060, Note_on_c, 0, 51, 17
3, 117120, Note_on_c, 0, 58, 24
3, 117126, Control_c, 0, 64, 0
3, 117170, Control_c, 0, 64, 127
3, 117240, Note_on_c, 0, 58, 0
3, 117240, Note_on_c, 0, 51, 0
3, 117240, Note_on_c, 0, 44, 0
3, 117360, Note_on_c, 0, 61, 24
3, 117480, Note_on_c, 0, 61, 0
3, 117480, Note_on_c, 0, 44, 17
3, 117540, Note_on_c, 0, 51, 17
3, 117600, Note_on_c, 0, 56, 24
3, 117603, Control_c, 0, 64, 0
3, 117667, Control_c, 0, 64, 127
3, 117720, Note_on_c, 0, 56, 0
3, 117720, Note_on_c, 0, 51, 0
3, 117720, Note_on_c, 0, 44, 0
3, 117840, Note_on_c, 0, 60, 24
3, 117960, Note_on_c, 0, 60, 0
3, 117960, Note_on_c, 0, 44, 17
3, 118020, Note_on_c, 0, 51, 17
3, 118080, Note_on_c, 0, 55, 22
3, 118084, Control_c, 0, 64, 0
3, 118130, Control_c, 0, 64, 127
3, 118200, Note_on_c, 0, 55, 0
3, 118200, Note_on_c, 0, 51, 0
3, 118200, Note_on_c, 0, 44, 0
3, 118320, Note_on_c, 0, 58, 24
3, 118440, Note_on_c, 0, 58, 0
3, 118440, Note_on_c, 0, 44, 16
3, 118500, Note_on_c, 0, 51, 16
3, 118560, Note_on_c, 0, 56, 22
3, 118566, Control_c, 0, 64, 0
3, 118631, Control_c, 0, 64, 127
3, 118680, Note_on_c, 0, 56, 0
3, 118680, Note_on_c, 0, 51, 0
3, 118680, Note_on_c, 0, 44, 0
3, 118800, Note_on_c, 0, 55, 19
3, 118920, Note_on_c, 0, 55, 0
3, 118980, Note_on_c, 0, 44, 22
3, 119040, Note_on_c, 0, 56, 27
3, 119040, Control_c, 0, 91, 127
3, 119043, Control_c, 0, 64, 0
3, 119104, Control_c, 0, 64, 127
3, 119160, Note_on_c, 0, 56, 0
3, 119160, Note_on_c, 0, 44, 0
3, 119280, Note_on_c, 0, 48, 22
3, 119400, Note_on_c, 0, 48, 0
3, 119460, Note_on_c, 0, 32, 17
3, 119520, Note_on_c, 0, 44, 26
3, 119527, Control_c, 0, 64, 0
3, 119587, Control_c, 0, 64, 127
3, 119640, Note_on_c, 0, 44, 0
3, 119640, Note_on_c, 0, 32, 0
3, 119760, Note_on_c, 0, 48, 22
3, 119880, Note_on_c, 0, 48, 0
3, 119940, Note_on_c, 0, 44, 22
3, 120000, Note_on_c, 0, 56, 27
3, 120003, Control_c, 0, 64, 0
3, 120050, Control_c, 0, 64, 127
3, 120120, Note_on_c, 0, 56, 0
3, 120120, Note_on_c, 0, 44, 0
3, 120240, Note_on_c, 0, 48, 23
3, 120360, Note_on_c, 0, 48, 0
3, 120420, Note_on_c, 0, 32, 17
3, 120480, Note_on_c, 0, 44, 27
3, 120494, Control_c, 0, 64, 0
3, 120530, Control_c, 0, 64, 127
3, 120600, Note_on_c, 0, 44, 0
3, 120600, Note_on_c, 0, 32, 0
3, 120720, Note_on_c, 0, 48, 29
3, 120840, Note_on_c, 0, 48, 0
3, 120900, Note_on_c, 0, 44, 26
3, 120960, Note_on_c, 0, 56, 34
3, 120963, Control_c, 0, 64, 0
3, 121020, Control_c, 0, 64, 127
3, 121080, Note_on_c, 0, 56, 0
3, 121080, Note_on_c, 0, 44, 0
3, 121200, Note_on_c, 0, 51, 30
3, 121320, Note_on_c, 0, 51, 0
3, 121320, Note_on_c, 0, 32, 26
3, 121440, Note_on_c, 0, 44, 35
3, 121454, Control_c, 0, 64, 0
3, 121536, Control_c, 0, 64, 127
3, 121560, Note_on_c, 0, 44, 0
3, 121560, Note_on_c, 0, 32, 0
3, 121680, Note_on_c, 0, 48, 40
3, 121698, Control_c, 0, 64, 0
3, 121744, Control_c, 0, 64, 127
3, 121800, Note_on_c, 0, 48, 0
3, 121800, Note_on_c, 0, 56, 37
3, 121920, Note_on_c, 0, 68, 46
3, 121928, Control_c, 0, 64, 0
3, 122040, Note_on_c, 0, 68, 0
3, 122040, Note_on_c, 0, 56, 0
3, 122040, Control_c, 0, 64, 127
3, 122160, Note_on_c, 0, 60, 37
3, 122167, Control_c, 0, 64, 0
3, 122266, Control_c, 0, 64, 127
3, 122280, Note_on_c, 0, 60, 0
3, 122280, Note_on_c, 0, 44, 32
3, 122400, Note_on_c, 0, 56, 40
3, 122414, Control_c, 0, 64, 0
3, 122520, Note_on_c, 0, 56, 0
3, 122520, Note_on_c, 0, 44, 0
3, 122520, Control_c, 0, 64, 127
3, 122640, Note_on_c, 0, 48, 28
3, 122661, Control_c, 0, 64, 0
3, 122760, Note_on_c, 0, 48, 0
3, 122760, Note_on_c, 0, 25, 28
3, 122767, Control_c, 0, 64, 127
3, 122880, Note_on_c, 0, 37, 35
3, 122886, Control_c, 0, 64, 0
3, 123000, Note_on_c, 0, 37, 0
3, 123000, Note_on_c, 0, 25, 0
3, 123120, Note_on_c, 0, 44, 35
3, 123240, Note_on_c, 0, 44, 0
3, 123300, Note_on_c, 0, 37, 26
3, 123360, Note_on_c, 0, 49, 33
3, 123480, Note_on_c, 0, 49, 0
3, 123480, Note_on_c, 0, 37, 0
3, 123600, Note_on_c, 0, 56, 29
3, 123720, Note_on_c, 0, 56, 0
3, 123840, Note_on_c, 0, 68, 35
3, 123840, Note_on_c, 0, 56, 35
3, 123840, Note_on_c, 0, 60, 35
3, 123981, Control_c, 0, 64, 127
3, 124680, Note_on_c, 0, 24, 27
3, 124740, Note_on_c, 0, 60, 0
3, 124740, Note_on_c, 0, 68, 0
3, 124740, Note_on_c, 0, 56, 0
3, 124800, Note_on_c, 0, 36, 34
3, 124821, Control_c, 0, 64, 0
3, 124920, Note_on_c, 0, 36, 0
3, 124920, Note_on_c, 0, 24, 0
3, 125040, Note_on_c, 0, 44, 28
3, 125160, Note_on_c, 0, 44, 0
3, 125220, Note_on_c, 0, 36, 23
3, 125280, Note_on_c, 0, 48, 30
3, 125400, Note_on_c, 0, 48, 0
3, 125400, Note_on_c, 0, 36, 0
3, 125520, Note_on_c, 0, 56, 23
3, 125640, Note_on_c, 0, 56, 0
3, 125760, Note_on_c, 0, 60, 26
3, 125760, Note_on_c, 0, 56, 26
3, 125760, Note_on_c, 0, 48, 26
3, 125867, Control_c, 0, 64, 127
3, 126720, Note_on_c, 0, 48, 0
3, 126720, Note_on_c, 0, 56, 0
3, 126720, Note_on_c, 0, 60, 0
3, 126720, Note_on_c, 0, 48, 30
3, 126720, Note_on_c, 0, 36, 25
3, 126720, Control_c, 0, 91, 127
3, 126727, Control_c, 0, 64, 0
3, 126805, Control_c, 0, 64, 127
3, 126880, Note_on_c, 0, 48, 0
3, 126880, Note_on_c, 0, 43, 28
3, 127040, Note_on_c, 0, 43, 0
3, 127040, Note_on_c, 0, 48, 28
3, 127200, Note_on_c, 0, 48, 0
3, 127200, Note_on_c, 0, 36, 0
3, 127200, Note_on_c, 0, 62, 18
3, 127200, Note_on_c, 0, 55, 18
3, 127200, Note_on_c, 0, 50, 18
3, 127214, Control_c, 0, 64, 0
3, 127680, Note_on_c, 0, 50, 0
3, 127680, Note_on_c, 0, 55, 0
3, 127680, Note_on_c, 0, 62, 0
3, 127680, Note_on_c, 0, 51, 30
3, 127680, Note_on_c, 0, 36, 25
3, 127744, Control_c, 0, 64, 127
3, 127840, Note_on_c, 0, 51, 0
3, 127840, Note_on_c, 0, 43, 27
3, 128000, Note_on_c, 0, 43, 0
3, 128000, Note_on_c, 0, 51, 27
3, 128160, Note_on_c, 0, 51, 0
3, 128160, Note_on_c, 0, 36, 0
3, 128160, Note_on_c, 0, 62, 19
3, 128160, Note_on_c, 0, 50, 19
3, 128160, Note_on_c, 0, 55, 19
3, 128169, Control_c, 0, 64, 0
3, 128640, Note_on_c, 0, 55, 0
3, 128640, Note_on_c, 0, 50, 0
3, 128640, Note_on_c, 0, 62, 0
3, 128640, Note_on_c, 0, 51, 27
3, 128640, Note_on_c, 0, 36, 23
3, 128697, Control_c, 0, 64, 127
3, 128800, Note_on_c, 0, 51, 0
3, 128800, Note_on_c, 0, 43, 24
3, 128960, Note_on_c, 0, 43, 0
3, 128960, Note_on_c, 0, 50, 24
3, 129120, Note_on_c, 0, 50, 0
3, 129120, Note_on_c, 0, 36, 0
3, 129120, Note_on_c, 0, 43, 20
3, 129120, Note_on_c, 0, 48, 20
3, 129120, Note_on_c, 0, 55, 20
3, 129131, Control_c, 0, 64, 0
3, 129600, Note_on_c, 0, 55, 0
3, 129600, Note_on_c, 0, 48, 0
3, 129600, Note_on_c, 0, 43, 0
3, 129600, Note_on_c, 0, 48, 27
3, 129600, Note_on_c, 0, 36, 23
3, 129663, Control_c, 0, 64, 127
3, 129760, Note_on_c, 0, 48, 0
3, 129760, Note_on_c, 0, 43, 26
3, 129920, Note_on_c, 0, 43, 0
3, 129920, Note_on_c, 0, 46, 26
3, 130080, Note_on_c, 0, 46, 0
3, 130080, Note_on_c, 0, 36, 0
3, 130080, Note_on_c, 0, 43, 22
3, 130080, Note_on_c, 0, 48, 22
3, 130080, Note_on_c, 0, 55, 22
3, 130092, Control_c, 0, 64, 0
3, 130560, Note_on_c, 0, 55, 0
3, 130560, Note_on_c, 0, 48, 0
3, 130560, Note_on_c, 0, 43, 0
3, 130560, Note_on_c, 0, 44, 41
3, 130560, Note_on_c, 0, 36, 41
3, 130659, Control_c, 0, 64, 127
3, 130720, Note_on_c, 0, 44, 0
3, 130720, Note_on_c, 0, 48, 35
3, 130880, Note_on_c, 0, 48, 0
3, 130880, Note_on_c, 0, 48, 35
3, 130880, Note_on_c, 0, 55, 35
3, 131040, Note_on_c, 0, 55, 0
3, 131040, Note_on_c, 0, 36, 0
3, 131040, Note_on_c, 0, 58, 35
3, 131048, Control_c, 0, 64, 0
3, 131520, Note_on_c, 0, 58, 0
3, 131520, Note_on_c, 0, 48, 0
3, 131520, Note_on_c, 0, 36, 36
3, 131520, Note_on_c, 0, 44, 36
3, 131569, Control_c, 0, 64, 127
3, 131680, Note_on_c, 0, 44, 0
3, 131680, Note_on_c, 0, 48, 30
3, 131840, Note_on_c, 0, 48, 0
3, 131840, Note_on_c, 0, 36, 0
3, 131840, Note_on_c, 0, 48, 35
3, 131840, Note_on_c, 0, 55, 35
3, 131859, Control_c, 0, 64, 0
3, 131929, Control_c, 0, 64, 127
3, 132000, Note_on_c, 0, 55, 0
3, 132000, Note_on_c, 0, 58, 29
3, 132160, Note_on_c, 0, 58, 0
3, 132160, Note_on_c, 0, 48, 0
3, 132160, Note_on_c, 0, 48, 31
3, 132160, Note_on_c, 0, 53, 31
3, 132180, Control_c, 0, 64, 0
3, 132261, Control_c, 0, 64, 127
3, 132320, Note_on_c, 0, 53, 0
3, 132320, Note_on_c, 0, 56, 30
3, 132480, Note_on_c, 0, 56, 0
3, 132480, Note_on_c, 0, 48, 0
3, 132480, Control_c, 0, 64, 0
3, 132480, Note_on_c, 0, 36, 35
3, 132480, Note_on_c, 0, 39, 35
3, 132560, Control_c, 0, 64, 127
3, 132640, Note_on_c, 0, 39, 0
3, 132640, Note_on_c, 0, 44, 35
3, 132800, Note_on_c, 0, 44, 0
3, 132800, Note_on_c, 0, 51, 35
3, 132960, Note_on_c, 0, 51, 0
3, 132960, Note_on_c, 0, 36, 0
3, 132960, Note_on_c, 0, 43, 25
3, 132960, Note_on_c, 0, 48, 25
3, 132960, Note_on_c, 0, 50, 25
3, 132960, Note_on_c, 0, 55, 25
3, 132976, Control_c, 0, 64, 0
3, 133440, Note_on_c, 0, 55, 0
3, 133440, Note_on_c, 0, 43, 0
3, 133440, Note_on_c, 0, 48, 0
3, 133440, Note_on_c, 0, 50, 0
3, 133440, Note_on_c, 0, 36, 38
3, 133440, Note_on_c, 0, 39, 38
3, 133520, Control_c, 0, 64, 127
3, 133600, Note_on_c, 0, 39, 0
3, 133600, Note_on_c, 0, 45, 38
3, 133760, Note_on_c, 0, 45, 0
3, 133760, Note_on_c, 0, 51, 38
3, 133920, Note_on_c, 0, 51, 0
3, 133920, Note_on_c, 0, 36, 0
3, 133920, Note_on_c, 0, 43, 30
3, 133920, Note_on_c, 0, 48, 30
3, 133920, Note_on_c, 0, 50, 30
3, 133920, Note_on_c, 0, 55, 30
3, 133935, Control_c, 0, 64, 0
3, 134400, Note_on_c, 0, 55, 0
3, 134400, Note_on_c, 0, 43, 0
3, 134400, Note_on_c, 0, 48, 0
3, 134400, Note_on_c, 0, 50, 0
3, 134400, Control_c, 0, 64, 127
3, 134400, Note_on_c, 0, 36, 46
3, 134400, Note_on_c, 0, 43, 46
3, 134400, Note_on_c, 0, 52, 46
3, 134880, Note_on_c, 0, 52, 0
3, 134880, Note_on_c, 0, 43, 0
3, 134880, Note_on_c, 0, 36, 0
3, 134880, Note_on_c, 0, 50, 39
3, 134880, Note_on_c, 0, 48, 39
3, 134880, Note_on_c, 0, 55, 39
3, 134887, Control_c, 0, 64, 0
3, 134981, Control_c, 0, 64, 127
3, 135040, Note_on_c, 0, 55, 0
3, 135040, Note_on_c, 0, 48, 0
3, 135040, Note_on_c, 0, 50, 0
3, 135040, Note_on_c, 0, 43, 48
3, 135200, Note_on_c, 0, 43, 0
3, 135200, Note_on_c, 0, 50, 38
3, 135200, Note_on_c, 0, 48, 38
3, 135200, Note_on_c, 0, 55, 38
3, 135360, Note_on_c, 0, 55, 0
3, 135360, Note_on_c, 0, 48, 0
3, 135360, Note_on_c, 0, 50, 0
3, 135360, Note_on_c, 0, 36, 48
3, 135360, Note_on_c, 0, 43, 48
3, 135360, Note_on_c, 0, 48, 48
3, 135369, Control_c, 0, 64, 0
3, 135429, Control_c, 0, 64, 127
3, 135840, Note_on_c, 0, 48, 0
3, 135840, Note_on_c, 0, 43, 0
3, 135840, Note_on_c, 0, 36, 0
3, 135840, Note_on_c, 0, 48, 39
3, 135840, Note_on_c, 0, 50, 39
3, 135840, Note_on_c, 0, 55, 39
3, 135857, Control_c, 0, 64, 0
3, 135932, Control_c, 0, 64, 127
3, 136000, Note_on_c, 0, 55, 0
3, 136000, Note_on_c, 0, 50, 0
3, 136000, Note_on_c, 0, 48, 0
3, 136000, Note_on_c, 0, 43, 49
3, 136160, Note_on_c, 0, 43, 0
3, 136160, Note_on_c, 0, 48, 39
3, 136160, Note_on_c, 0, 50, 39
3, 136160, Note_on_c, 0, 55, 39
3, 136320, Note_on_c, 0, 55, 0
3, 136320, Note_on_c, 0, 50, 0
3, 136320, Note_on_c, 0, 48, 0
3, 136320, Note_on_c, 0, 36, 55
3, 136320, Note_on_c, 0, 43, 55
3, 136320, Note_on_c, 0, 52, 55
3, 136330, Control_c, 0, 64, 0
3, 136417, Control_c, 0, 64, 127
3, 136560, Note_on_c, 0, 52, 0
3, 136560, Note_on_c, 0, 50, 49
3, 136800, Note_on_c, 0, 50, 0
3, 136800, Note_on_c, 0, 43, 0
3, 136800, Note_on_c, 0, 36, 0
3, 136800, Note_on_c, 0, 50, 45
3, 136800, Note_on_c, 0, 48, 45
3, 136800, Note_on_c, 0, 55, 45
3, 136817, Control_c, 0, 64, 0
3, 136903, Control_c, 0, 64, 127
3, 136960, Note_on_c, 0, 55, 0
3, 136960, Note_on_c, 0, 48, 0
3, 136960, Note_on_c, 0, 50, 0
3, 136960, Note_on_c, 0, 43, 57
3, 137120, Note_on_c, 0, 43, 0
3, 137120, Note_on_c, 0, 50, 47
3, 137120, Note_on_c, 0, 48, 47
3, 137120, Note_on_c, 0, 55, 47
3, 137280, Note_on_c, 0, 55, 0
3, 137280, Note_on_c, 0, 48, 0
3, 137280, Note_on_c, 0, 50, 0
3, 137280, Note_on_c, 0, 36, 62
3, 137280, Note_on_c, 0, 43, 62
3, 137280, Note_on_c, 0, 48, 62
3, 137290, Control_c, 0, 64, 0
3, 137366, Control_c, 0, 64, 127
3, 137520, Note_on_c, 0, 48, 0
3, 137520, Note_on_c, 0, 46, 61
3, 137760, Note_on_c, 0, 46, 0
3, 137760, Note_on_c, 0, 43, 0
3, 137760, Note_on_c, 0, 36, 0
3, 137760, Note_on_c, 0, 48, 53
3, 137760, Note_on_c, 0, 55, 53
3, 137778, Control_c, 0, 64, 0
3, 137846, Control_c, 0, 64, 127
3, 137920, Note_on_c, 0, 55, 0
3, 137920, Note_on_c, 0, 48, 0
3, 137920, Note_on_c, 0, 43, 62
3, 138080, Note_on_c, 0, 43, 0
3, 138080, Note_on_c, 0, 48, 52
3, 138080, Note_on_c, 0, 55, 52
3, 138240, Note_on_c, 0, 55, 0
3, 138240, Note_on_c, 0, 48, 0
3, 138240, Note_on_c, 0, 36, 52
3, 138240, Note_on_c, 0, 41, 52
3, 138240, Note_on_c, 0, 45, 62
3, 138240, Note_on_c, 0, 48, 62
3, 138248, Control_c, 0, 64, 0
3, 138720, Note_on_c, 0, 48, 0
3, 138720, Note_on_c, 0, 36, 0
3, 138720, Note_on_c, 0, 41, 0
3, 138720, Note_on_c, 0, 45, 0
3, 138720, Note_on_c, 0, 52, 51
3, 138720, Note_on_c, 0, 55, 51
3, 138720, Note_on_c, 0, 60, 60
3, 138763, Control_c, 0, 64, 127
3, 138880, Note_on_c, 0, 60, 0
3, 138880, Note_on_c, 0, 55, 0
3, 138880, Note_on_c, 0, 52, 0
3, 138880, Note_on_c, 0, 48, 62
3, 139040, Note_on_c, 0, 48, 0
3, 139040, Note_on_c, 0, 52, 48
3, 139040, Note_on_c, 0, 55, 48
3, 139040, Note_on_c, 0, 60, 57
3, 139174, Control_c, 0, 64, 0
3, 139200, Note_on_c, 0, 60, 0
3, 139200, Note_on_c, 0, 55, 0
3, 139200, Note_on_c, 0, 52, 0
3, 139200, Note_on_c, 0, 38, 52
3, 139200, Note_on_c, 0, 41, 52
3, 139200, Note_on_c, 0, 45, 52
3, 139200, Note_on_c, 0, 50, 62
3, 139680, Note_on_c, 0, 50, 0
3, 139680, Note_on_c, 0, 38, 0
3, 139680, Note_on_c, 0, 41, 0
3, 139680, Note_on_c, 0, 45, 0
3, 139680, Note_on_c, 0, 48, 45
3, 139680, Note_on_c, 0, 52, 45
3, 139680, Note_on_c, 0, 57, 53
3, 139730, Control_c, 0, 64, 127
3, 139840, Note_on_c, 0, 57, 0
3, 139840, Note_on_c, 0, 52, 0
3, 139840, Note_on_c, 0, 48, 0
3, 139840, Note_on_c, 0, 45, 60
3, 140000, Note_on_c, 0, 45, 0
3, 140000, Note_on_c, 0, 48, 46
3, 140000, Note_on_c, 0, 52, 46
3, 140000, Note_on_c, 0, 57, 55
3, 140160, Note_on_c, 0, 57, 0
3, 140160, Note_on_c, 0, 52, 0
3, 140160, Note_on_c, 0, 48, 0
3, 140160, Note_on_c, 0, 31, 59
3, 140160, Note_on_c, 0, 43, 70
3, 140172, Control_c, 0, 64, 0
3, 140238, Control_c, 0, 64, 127
3, 140480, Note_on_c, 0, 43, 0
3, 140480, Note_on_c, 0, 31, 0
3, 140480, Note_on_c, 0, 52, 63
3, 140480, Note_on_c, 0, 48, 53
3, 140488, Control_c, 0, 64, 0
3, 140556, Control_c, 0, 64, 127
3, 140640, Note_on_c, 0, 48, 0
3, 140640, Note_on_c, 0, 52, 0
3, 140640, Note_on_c, 0, 43, 59
3, 140640, Note_on_c, 0, 55, 70
3, 140800, Note_on_c, 0, 55, 0
3, 140800, Note_on_c, 0, 43, 0
3, 140800, Note_on_c, 0, 50, 56
3, 140800, Note_on_c, 0, 53, 67
3, 140818, Control_c, 0, 64, 0
3, 140894, Control_c, 0, 64, 127
3, 140960, Note_on_c, 0, 53, 0
3, 140960, Note_on_c, 0, 50, 0
3, 140960, Note_on_c, 0, 43, 56
3, 140960, Note_on_c, 0, 55, 67
3, 141120, Note_on_c, 0, 55, 0
3, 141120, Note_on_c, 0, 43, 0
3, 141120, Control_c, 0, 64, 0
3, 141120, Note_on_c, 0, 48, 59
3, 141120, Note_on_c, 0, 52, 70
3, 141177, Control_c, 0, 64, 127
3, 141280, Note_on_c, 0, 52, 0
3, 141280, Note_on_c, 0, 48, 0
3, 141280, Note_on_c, 0, 43, 56
3, 141280, Note_on_c, 0, 55, 66
3, 141440, Note_on_c, 0, 55, 0
3, 141440, Note_on_c, 0, 43, 0
3, 141440, Note_on_c, 0, 45, 56
3, 141440, Note_on_c, 0, 48, 66
3, 141600, Note_on_c, 0, 48, 0
3, 141600, Note_on_c, 0, 45, 0
3, 141600, Note_on_c, 0, 43, 56
3, 141600, Note_on_c, 0, 47, 56
3, 141600, Note_on_c, 0, 50, 56
3, 141600, Note_on_c, 0, 55, 73
3, 141617, Control_c, 0, 64, 0
3, 141709, Control_c, 0, 64, 127
3, 142080, Note_on_c, 0, 55, 0
3, 142080, Note_on_c, 0, 43, 0
3, 142080, Note_on_c, 0, 47, 0
3, 142080, Note_on_c, 0, 50, 0
3, 142080, Note_on_c, 0, 36, 62
3, 142088, Control_c, 0, 64, 0
3, 142133, Control_c, 0, 64, 127
3, 142240, Note_on_c, 0, 36, 0
3, 142240, Note_on_c, 0, 48, 58
3, 142400, Note_on_c, 0, 48, 0
3, 142400, Note_on_c, 0, 57, 57
3, 142400, Note_on_c, 0, 53, 48
3, 142408, Control_c, 0, 64, 0
3, 142458, Control_c, 0, 64, 127
3, 142560, Note_on_c, 0, 48, 44
3, 142560, Note_on_c, 0, 60, 52
3, 142729, Control_c, 0, 64, 0
3, 142790, Control_c, 0, 64, 127
3, 142880, Note_on_c, 0, 53, 0
3, 142880, Note_on_c, 0, 57, 0
3, 142880, Note_on_c, 0, 52, 51
3, 142880, Note_on_c, 0, 55, 51
3, 143040, Note_on_c, 0, 55, 0
3, 143040, Note_on_c, 0, 60, 0
3, 143040, Note_on_c, 0, 48, 0
3, 143040, Note_on_c, 0, 52, 0
3, 143040, Note_on_c, 0, 33, 58
3, 143048, Control_c, 0, 64, 0
3, 143104, Control_c, 0, 64, 127
3, 143200, Note_on_c, 0, 33, 0
3, 143200, Note_on_c, 0, 45, 58
3, 143360, Note_on_c, 0, 45, 0
3, 143360, Note_on_c, 0, 53, 58
3, 143360, Note_on_c, 0, 50, 58
3, 143372, Control_c, 0, 64, 0
3, 143432, Control_c, 0, 64, 127
3, 143520, Note_on_c, 0, 45, 44
3, 143520, Note_on_c, 0, 57, 52
3, 143702, Control_c, 0, 64, 0
3, 143753, Control_c, 0, 64, 127
3, 143840, Note_on_c, 0, 50, 0
3, 143840, Note_on_c, 0, 53, 0
3, 143840, Note_on_c, 0, 48, 49
3, 143840, Note_on_c, 0, 52, 49
3, 144000, Note_on_c, 0, 52, 0
3, 144000, Note_on_c, 0, 57, 0
3, 144000, Note_on_c, 0, 45, 0
3, 144000, Note_on_c, 0, 48, 0
3, 144000, Note_on_c, 0, 31, 58
3, 144022, Control_c, 0, 64, 0
3, 144103, Control_c, 0, 64, 127
3, 144160, Note_on_c, 0, 31, 0
3, 144160, Note_on_c, 0, 43, 52
3, 144320, Note_on_c, 0, 43, 0
3, 144320, Note_on_c, 0, 53, 59
3, 144320, Note_on_c, 0, 50, 50
3, 144341, Control_c, 0, 64, 0
3, 144423, Control_c, 0, 64, 127
3, 144480, Note_on_c, 0, 50, 0
3, 144480, Note_on_c, 0, 53, 0
3, 144480, Note_on_c, 0, 43, 44
3, 144480, Note_on_c, 0, 55, 52
3, 144640, Note_on_c, 0, 55, 0
3, 144640, Note_on_c, 0, 43, 0
3, 144640, Note_on_c, 0, 48, 50
3, 144640, Note_on_c, 0, 52, 59
3, 144669, Control_c, 0, 64, 0
3, 144749, Control_c, 0, 64, 127
3, 144800, Note_on_c, 0, 52, 0
3, 144800, Note_on_c, 0, 48, 0
3, 144800, Note_on_c, 0, 43, 43
3, 144800, Note_on_c, 0, 55, 51
3, 144960, Note_on_c, 0, 45, 66
3, 144960, Note_on_c, 0, 48, 66
3, 144965, Control_c, 0, 64, 0
3, 145006, Control_c, 0, 64, 127
3, 145260, Note_on_c, 0, 43, 42
3, 145274, Control_c, 0, 64, 0
3, 145320, Note_on_c, 0, 47, 46
3, 145356, Control_c, 0, 64, 127
3, 145380, Note_on_c, 0, 50, 48
3, 145440, Note_on_c, 0, 48, 0
3, 145440, Note_on_c, 0, 45, 0
3, 145440, Note_on_c, 0, 43, 0
3, 145440, Note_on_c, 0, 55, 0
3, 145440, Note_on_c, 0, 55, 52
3, 145539, Control_c, 0, 64, 0
3, 145560, Note_on_c, 0, 55, 0
3, 145560, Note_on_c, 0, 47, 0
3, 145560, Note_on_c, 0, 43, 0
3, 145560, Note_on_c, 0, 50, 0
3, 145920, Control_c, 0, 91, 127
3, 145920, Note_on_c, 0, 36, 39
3, 146040, Note_on_c, 0, 36, 0
3, 146400, Note_on_c, 0, 31, 29
3, 146520, Note_on_c, 0, 31, 0
3, 146640, Note_on_c, 0, 36, 29
3, 146760, Note_on_c, 0, 36, 0
3, 146880, Note_on_c, 0, 29, 30
3, 147000, Note_on_c, 0, 29, 0
3, 147360, Note_on_c, 0, 36, 29
3, 147480, Note_on_c, 0, 36, 0
3, 147600, Note_on_c, 0, 29, 29
3, 147720, Note_on_c, 0, 29, 0
3, 147840, Note_on_c, 0, 36, 33
3, 147960, Note_on_c, 0, 36, 0
3, 148320, Note_on_c, 0, 31, 29
3, 148440, Note_on_c, 0, 31, 0
3, 148560, Note_on_c, 0, 36, 29
3, 148680, Note_on_c, 0, 36, 0
3, 148800, Note_on_c, 0, 31, 29
3, 148920, Note_on_c, 0, 31, 0
3, 149040, Note_on_c, 0, 43, 29
3, 149160, Note_on_c, 0, 43, 0
3, 149280, Note_on_c, 0, 36, 30
3, 149400, Note_on_c, 0, 36, 0
3, 149760, Note_on_c, 0, 55, 29
3, 149760, Note_on_c, 0, 59, 29
3, 149760, Note_on_c, 0, 48, 29
3, 149880, Note_on_c, 0, 48, 0
3, 149880, Note_on_c, 0, 59, 0
3, 149880, Note_on_c, 0, 55, 0
3, 150240, Note_on_c, 0, 69, 29
3, 150240, Note_on_c, 0, 65, 29
3, 150240, Note_on_c, 0, 60, 29
3, 150360, Note_on_c, 0, 60, 0
3, 150360, Note_on_c, 0, 65, 0
3, 150360, Note_on_c, 0, 69, 0
3, 150720, Note_on_c, 0, 67, 33
3, 150720, Note_on_c, 0, 64, 33
3, 150720, Note_on_c, 0, 60, 33
3, 150840, Note_on_c, 0, 60, 0
3, 150840, Note_on_c, 0, 64, 0
3, 150840, Note_on_c, 0, 67, 0
3, 151200, Note_on_c, 0, 55, 29
3, 151320, Note_on_c, 0, 55, 0
3, 151440, Note_on_c, 0, 60, 29
3, 151560, Note_on_c, 0, 60, 0
3, 151680, Note_on_c, 0, 57, 29
3, 151800, Note_on_c, 0, 57, 0
3, 152160, Note_on_c, 0, 62, 29
3, 152280, Note_on_c, 0, 62, 0
3, 152400, Note_on_c, 0, 57, 29
3, 152520, Note_on_c, 0, 57, 0
3, 152640, Note_on_c, 0, 64, 30
3, 152760, Note_on_c, 0, 64, 0
3, 153120, Note_on_c, 0, 57, 29
3, 153240, Note_on_c, 0, 57, 0
3, 153360, Note_on_c, 0, 64, 29
3, 153480, Note_on_c, 0, 64, 0
3, 153600, Note_on_c, 0, 59, 29
3, 153720, Note_on_c, 0, 59, 0
3, 154080, Note_on_c, 0, 64, 29
3, 154200, Note_on_c, 0, 64, 0
3, 154560, Note_on_c, 0, 51, 27
3, 154560, Note_on_c, 0, 52, 27
3, 154560, Note_on_c, 0, 63, 27
3, 154680, Note_on_c, 0, 63, 0
3, 154680, Note_on_c, 0, 52, 0
3, 154680, Note_on_c, 0, 51, 0
3, 155040, Note_on_c, 0, 38, 24
3, 155040, Note_on_c, 0, 40, 24
3, 155040, Note_on_c, 0, 50, 24
3, 155160, Note_on_c, 0, 50, 0
3, 155160, Note_on_c, 0, 40, 0
3, 155160, Note_on_c, 0, 38, 0
3, 155520, Note_on_c, 0, 24, 27
3, 155520, Control_c, 0, 91, 127
3, 155520, Note_on_c, 0, 36, 29
3, 155640, Note_on_c, 0, 36, 0
3, 155640, Note_on_c, 0, 24, 0
3, 156000, Note_on_c, 0, 31, 24
3, 156120, Note_on_c, 0, 31, 0
3, 156240, Note_on_c, 0, 36, 23
3, 156360, Note_on_c, 0, 36, 0
3, 156480, Note_on_c, 0, 29, 29
3, 156600, Note_on_c, 0, 29, 0
3, 156960, Note_on_c, 0, 36, 27
3, 157080, Note_on_c, 0, 36, 0
3, 157200, Note_on_c, 0, 29, 27
3, 157320, Note_on_c, 0, 29, 0
3, 157440, Note_on_c, 0, 36, 29
3, 157560, Note_on_c, 0, 36, 0
3, 157920, Note_on_c, 0, 31, 26
3, 158040, Note_on_c, 0, 31, 0
3, 158160, Note_on_c, 0, 36, 25
3, 158280, Note_on_c, 0, 36, 0
3, 158400, Note_on_c, 0, 31, 25
3, 158520, Note_on_c, 0, 31, 0
3, 158640, Note_on_c, 0, 43, 24
3, 158760, Note_on_c, 0, 43, 0
3, 158880, Note_on_c, 0, 36, 26
3, 159000, Note_on_c, 0, 36, 0
3, 159360, Note_on_c, 0, 46, 22
3, 159360, Note_on_c, 0, 58, 22
3, 159360, Note_on_c, 0, 48, 22
3, 159480, Note_on_c, 0, 48, 0
3, 159480, Note_on_c, 0, 58, 0
3, 159480, Note_on_c, 0, 46, 0
3, 159840, Note_on_c, 0, 68, 19
3, 159840, Note_on_c, 0, 60, 19
3, 159840, Note_on_c, 0, 56, 19
3, 159960, Note_on_c, 0, 56, 0
3, 159960, Note_on_c, 0, 60, 0
3, 159960, Note_on_c, 0, 68, 0
3, 160320, Control_c, 0, 64, 127
3, 160320, Note_on_c, 0, 31, 27
3, 160800, Note_on_c, 0, 48, 18
3, 160815, Control_c, 0, 64, 0
3, 161029, Control_c, 0, 64, 127
3, 161280, Note_on_c, 0, 48, 0
3, 161280, Note_on_c, 0, 31, 0
3, 161280, Note_on_c, 0, 43, 24
3, 161280, Note_on_c, 0, 51, 24
3, 161286, Control_c, 0, 64, 0
3, 161464, Control_c, 0, 64, 127
3, 161760, Note_on_c, 0, 51, 0
3, 161760, Note_on_c, 0, 55, 19
3, 161773, Control_c, 0, 64, 0
3, 161986, Control_c, 0, 64, 127
3, 162240, Note_on_c, 0, 43, 0
3, 162240, Note_on_c, 0, 60, 22
3, 162248, Control_c, 0, 64, 0
3, 162355, Control_c, 0, 64, 127
3, 162720, Note_on_c, 0, 60, 0
3, 162720, Note_on_c, 0, 63, 20
3, 162737, Control_c, 0, 64, 0
3, 162892, Control_c, 0, 64, 127
3, 163200, Note_on_c, 0, 63, 0
3, 163200, Note_on_c, 0, 55, 0
3, 163200, Note_on_c, 0, 31, 22
3, 163203, Control_c, 0, 64, 0
3, 163494, Control_c, 0, 64, 127
3, 164160, Note_on_c, 0, 31, 0
3, 164160, Note_on_c, 0, 43, 18
3, 164164, Control_c, 0, 64, 0
3, 164343, Control_c, 0, 64, 127
3, 164640, Note_on_c, 0, 56, 17
3, 164657, Control_c, 0, 64, 0
3, 164983, Control_c, 0, 64, 127
3, 165120, Note_on_c, 0, 56, 0
3, 165120, Note_on_c, 0, 43, 0
3, 165120, Note_on_c, 0, 31, 24
3, 165127, Control_c, 0, 64, 0
3, 165332, Control_c, 0, 64, 127
3, 165600, Note_on_c, 0, 50, 18
3, 165615, Control_c, 0, 64, 0
3, 165727, Control_c, 0, 64, 127
3, 166080, Note_on_c, 0, 50, 0
3, 166080, Note_on_c, 0, 31, 0
3, 166080, Note_on_c, 0, 43, 19
3, 166080, Note_on_c, 0, 55, 19
3, 166094, Control_c, 0, 64, 0
3, 166334, Control_c, 0, 64, 127
3, 166560, Note_on_c, 0, 55, 0
3, 166560, Note_on_c, 0, 58, 19
3, 166574, Control_c, 0, 64, 0
3, 166843, Control_c, 0, 64, 127
3, 167040, Note_on_c, 0, 58, 0
3, 167040, Note_on_c, 0, 43, 0
3, 167040, Note_on_c, 0, 55, 20
3, 167040, Note_on_c, 0, 63, 20
3, 167043, Control_c, 0, 64, 0
3, 167167, Control_c, 0, 64, 127
3, 167520, Note_on_c, 0, 63, 0
3, 167520, Note_on_c, 0, 67, 20
3, 167528, Control_c, 0, 64, 0
3, 167690, Control_c, 0, 64, 127
3, 168000, Note_on_c, 0, 67, 0
3, 168000, Note_on_c, 0, 55, 0
3, 168000, Note_on_c, 0, 31, 22
3, 168006, Control_c, 0, 64, 0
3, 168294, Control_c, 0, 64, 127
3, 168960, Note_on_c, 0, 31, 0
3, 168960, Note_on_c, 0, 43, 18
3, 168968, Control_c, 0, 64, 0
3, 169227, Control_c, 0, 64, 127
3, 169440, Note_on_c, 0, 60, 17
3, 169456, Control_c, 0, 64, 0
3, 169760, Control_c, 0, 64, 127
3, 169920, Note_on_c, 0, 60, 0
3, 169920, Note_on_c, 0, 43, 0
3, 169920, Note_on_c, 0, 31, 22
3, 169922, Control_c, 0, 64, 0
3, 170104, Control_c, 0, 64, 127
3, 170400, Note_on_c, 0, 55, 18
3, 170412, Control_c, 0, 64, 0
3, 170640, Note_on_c, 0, 43, 20
3, 170654, Control_c, 0, 64, 127
3, 170880, Note_on_c, 0, 55, 0
3, 170880, Note_on_c, 0, 31, 0
3, 170880, Control_c, 0, 64, 0
3, 170880, Note_on_c, 0, 60, 20
3, 171050, Control_c, 0, 64, 127
3, 171247, Control_c, 0, 64, 0
3, 171360, Note_on_c, 0, 60, 0
3, 171360, Control_c, 0, 64, 127
3, 171360, Note_on_c, 0, 63, 19
3, 171840, Note_on_c, 0, 63, 0
3, 171840, Note_on_c, 0, 43, 0
3, 171840, Note_on_c, 0, 55, 18
3, 171840, Note_on_c, 0, 68, 18
3, 171851, Control_c, 0, 64, 0
3, 171996, Control_c, 0, 64, 127
3, 172320, Note_on_c, 0, 68, 0
3, 172320, Note_on_c, 0, 72, 20
3, 172334, Control_c, 0, 64, 0
3, 172490, Control_c, 0, 64, 127
3, 172800, Note_on_c, 0, 72, 0
3, 172800, Note_on_c, 0, 55, 0
3, 172800, Note_on_c, 0, 31, 22
3, 172814, Control_c, 0, 64, 0
3, 173120, Control_c, 0, 64, 127
3, 173760, Note_on_c, 0, 31, 0
3, 173760, Note_on_c, 0, 43, 22
3, 173773, Control_c, 0, 64, 0
3, 173974, Control_c, 0, 64, 127
3, 174240, Note_on_c, 0, 65, 22
3, 174263, Control_c, 0, 64, 0
3, 174587, Control_c, 0, 64, 127
3, 174720, Note_on_c, 0, 65, 0
3, 174720, Note_on_c, 0, 43, 0
3, 174720, Note_on_c, 0, 63, 22
3, 174720, Note_on_c, 0, 55, 22
3, 174735, Control_c, 0, 64, 0
3, 174969, Control_c, 0, 64, 127
3, 175200, Note_on_c, 0, 63, 0
3, 175200, Note_on_c, 0, 60, 22
3, 175680, Note_on_c, 0, 60, 0
3, 175680, Note_on_c, 0, 57, 22
3, 176160, Note_on_c, 0, 57, 0
3, 176160, Note_on_c, 0, 55, 0
3, 176160, Note_on_c, 0, 54, 22
3, 176492, Control_c, 0, 64, 0
3, 176520, Note_on_c, 0, 54, 0
3, 176520, Note_on_c, 0, 43, 17
3, 176580, Note_on_c, 0, 48, 17
3, 176640, Control_c, 0, 91, 127
3, 176640, Note_on_c, 0, 51, 28
3, 176760, Note_on_c, 0, 51, 0
3, 176760, Note_on_c, 0, 48, 0
3, 176760, Note_on_c, 0, 43, 0
3, 177000, Note_on_c, 0, 43, 24
3, 177060, Note_on_c, 0, 48, 24
3, 177120, Note_on_c, 0, 51, 29
3, 177159, Control_c, 0, 64, 127
3, 177240, Note_on_c, 0, 51, 0
3, 177240, Note_on_c, 0, 48, 0
3, 177240, Note_on_c, 0, 43, 0
3, 177480, Note_on_c, 0, 43, 26
3, 177540, Note_on_c, 0, 48, 26
3, 177600, Note_on_c, 0, 51, 29
3, 177720, Note_on_c, 0, 51, 0
3, 177720, Note_on_c, 0, 48, 0
3, 177720, Note_on_c, 0, 43, 0
3, 177960, Note_on_c, 0, 43, 26
3, 178020, Note_on_c, 0, 48, 26
3, 178080, Note_on_c, 0, 51, 30
3, 178080, Note_on_c, 0, 57, 30
3, 178200, Note_on_c, 0, 57, 0
3, 178200, Note_on_c, 0, 43, 0
3, 178200, Note_on_c, 0, 48, 0
3, 178200, Note_on_c, 0, 51, 0
3, 178200, Note_on_c, 0, 54, 35
3, 178320, Note_on_c, 0, 54, 0
3, 178320, Note_on_c, 0, 51, 37
3, 178440, Note_on_c, 0, 51, 0
3, 178440, Note_on_c, 0, 48, 39
3, 178560, Note_on_c, 0, 48, 0
3, 178560, Control_c, 0, 64, 0
3, 178560, Note_on_c, 0, 43, 41
3, 178560, Note_on_c, 0, 55, 41
3, 178737, Control_c, 0, 64, 127
3, 179040, Note_on_c, 0, 55, 0
3, 179040, Note_on_c, 0, 43, 0
3, 179040, Note_on_c, 0, 41, 27
3, 179040, Note_on_c, 0, 43, 27
3, 179040, Note_on_c, 0, 55, 27
3, 179055, Control_c, 0, 64, 0
3, 179343, Control_c, 0, 64, 127
3, 179520, Note_on_c, 0, 55, 0
3, 179520, Note_on_c, 0, 43, 0
3, 179520, Note_on_c, 0, 41, 0
3, 179520, Note_on_c, 0, 39, 27
3, 179520, Note_on_c, 0, 43, 27
3, 179520, Note_on_c, 0, 55, 27
3, 179529, Control_c, 0, 64, 0
3, 179722, Control_c, 0, 64, 127
3, 180000, Note_on_c, 0, 55, 0
3, 180000, Note_on_c, 0, 43, 0
3, 180000, Note_on_c, 0, 39, 0
3, 180000, Note_on_c, 0, 38, 27
3, 180000, Note_on_c, 0, 43, 27
3, 180000, Note_on_c, 0, 53, 27
3, 180000, Note_on_c, 0, 55, 27
3, 180011, Control_c, 0, 64, 0
3, 180303, Control_c, 0, 64, 127
3, 180480, Note_on_c, 0, 55, 0
3, 180480, Note_on_c, 0, 38, 0
3, 180480, Note_on_c, 0, 43, 0
3, 180480, Note_on_c, 0, 53, 0
3, 180480, Note_on_c, 0, 51, 27
3, 180480, Note_on_c, 0, 55, 27
3, 180480, Note_on_c, 0, 36, 27
3, 180480, Note_on_c, 0, 43, 27
3, 180493, Control_c, 0, 64, 0
3, 180732, Control_c, 0, 64, 127
3, 180960, Note_on_c, 0, 43, 0
3, 180960, Note_on_c, 0, 51, 0
3, 180960, Note_on_c, 0, 55, 0
3, 180960, Note_on_c, 0, 36, 0
3, 180960, Note_on_c, 0, 35, 26
3, 180960, Note_on_c, 0, 39, 26
3, 180960, Note_on_c, 0, 47, 26
3, 180960, Note_on_c, 0, 51, 26
3, 180960, Note_on_c, 0, 57, 26
3, 180972, Control_c, 0, 64, 0
3, 181257, Control_c, 0, 64, 127
3, 181440, Note_on_c, 0, 57, 0
3, 181440, Note_on_c, 0, 47, 0
3, 181440, Note_on_c, 0, 35, 0
3, 181440, Note_on_c, 0, 39, 0
3, 181440, Note_on_c, 0, 51, 0
3, 181440, Note_on_c, 0, 34, 26
3, 181440, Note_on_c, 0, 41, 26
3, 181440, Note_on_c, 0, 46, 26
3, 181440, Note_on_c, 0, 50, 26
3, 181440, Note_on_c, 0, 58, 26
3, 181453, Control_c, 0, 64, 0
3, 181549, Control_c, 0, 64, 127
3, 181920, Note_on_c, 0, 22, 25
3, 181920, Note_on_c, 0, 34, 25
3, 182160, Note_on_c, 0, 34, 0
3, 182160, Note_on_c, 0, 22, 0
3, 182400, Note_on_c, 0, 34, 0
3, 182400, Note_on_c, 0, 41, 0
3, 182400, Note_on_c, 0, 22, 25
3, 182400, Note_on_c, 0, 34, 25
3, 182640, Note_on_c, 0, 34, 0
3, 182640, Note_on_c, 0, 22, 0
3, 182880, Note_on_c, 0, 22, 25
3, 182880, Note_on_c, 0, 34, 25
3, 183120, Note_on_c, 0, 34, 0
3, 183120, Note_on_c, 0, 22, 0
3, 183360, Note_on_c, 0, 50, 0
3, 183360, Note_on_c, 0, 58, 0
3, 183360, Note_on_c, 0, 46, 0
3, 183360, Note_on_c, 0, 46, 25
3, 183360, Note_on_c, 0, 58, 25
3, 183368, Control_c, 0, 64, 0
3, 183566, Control_c, 0, 64, 127
3, 183840, Note_on_c, 0, 58, 0
3, 183840, Note_on_c, 0, 46, 0
3, 183840, Note_on_c, 0, 42, 25
3, 183840, Note_on_c, 0, 58, 25
3, 183856, Control_c, 0, 64, 0
3, 184137, Control_c, 0, 64, 127
3, 184320, Note_on_c, 0, 58, 0
3, 184320, Note_on_c, 0, 42, 0
3, 184320, Note_on_c, 0, 39, 25
3, 184320, Note_on_c, 0, 54, 25
3, 184320, Note_on_c, 0, 58, 25
3, 184328, Control_c, 0, 64, 0
3, 184572, Control_c, 0, 64, 127
3, 184800, Note_on_c, 0, 58, 0
3, 184800, Note_on_c, 0, 54, 0
3, 184800, Note_on_c, 0, 39, 0
3, 184800, Note_on_c, 0, 35, 22
3, 184800, Note_on_c, 0, 51, 22
3, 184800, Note_on_c, 0, 54, 22
3, 184800, Note_on_c, 0, 59, 22
3, 184815, Control_c, 0, 64, 0
3, 185143, Control_c, 0, 64, 127
3, 185280, Note_on_c, 0, 59, 0
3, 185280, Note_on_c, 0, 35, 0
3, 185280, Note_on_c, 0, 51, 0
3, 185280, Note_on_c, 0, 54, 0
3, 185280, Note_on_c, 0, 32, 22
3, 185280, Note_on_c, 0, 51, 22
3, 185280, Note_on_c, 0, 56, 22
3, 185280, Note_on_c, 0, 59, 22
3, 185720, Note_on_c, 0, 59, 0
3, 185720, Note_on_c, 0, 32, 0
3, 185720, Note_on_c, 0, 51, 0
3, 185720, Note_on_c, 0, 56, 0
3, 185720, Control_c, 0, 64, 0
3, 185760, Note_on_c, 0, 28, 18
3, 185760, Note_on_c, 0, 40, 18
3, 185760, Note_on_c, 0, 56, 18
3, 185760, Note_on_c, 0, 59, 18
3, 185760, Note_on_c, 0, 64, 18
3, 185859, Control_c, 0, 64, 127
3, 186240, Note_on_c, 0, 64, 0
3, 186240, Note_on_c, 0, 56, 0
3, 186240, Note_on_c, 0, 28, 0
3, 186240, Note_on_c, 0, 40, 0
3, 186240, Note_on_c, 0, 59, 0
3, 186240, Note_on_c, 0, 35, 18
3, 186240, Note_on_c, 0, 47, 18
3, 186240, Note_on_c, 0, 54, 18
3, 186240, Note_on_c, 0, 59, 18
3, 186240, Note_on_c, 0, 63, 18
3, 186257, Control_c, 0, 64, 0
3, 186440, Control_c, 0, 64, 127
3, 186720, Note_on_c, 0, 23, 25
3, 186720, Note_on_c, 0, 35, 25
3, 186960, Note_on_c, 0, 35, 0
3, 186960, Note_on_c, 0, 23, 0
3, 187200, Note_on_c, 0, 35, 0
3, 187200, Note_on_c, 0, 47, 0
3, 187200, Note_on_c, 0, 23, 25
3, 187200, Note_on_c, 0, 35, 25
3, 187440, Note_on_c, 0, 35, 0
3, 187440, Note_on_c, 0, 23, 0
3, 187680, Note_on_c, 0, 23, 25
3, 187680, Note_on_c, 0, 35, 25
3, 187920, Note_on_c, 0, 35, 0
3, 187920, Note_on_c, 0, 23, 0
3, 188160, Note_on_c, 0, 59, 0
3, 188160, Note_on_c, 0, 63, 0
3, 188160, Note_on_c, 0, 54, 0
3, 188160, Note_on_c, 0, 47, 27
3, 188160, Note_on_c, 0, 59, 27
3, 188169, Control_c, 0, 64, 0
3, 188316, Control_c, 0, 64, 127
3, 188640, Note_on_c, 0, 59, 0
3, 188640, Note_on_c, 0, 47, 0
3, 188640, Note_on_c, 0, 47, 27
3, 188640, Note_on_c, 0, 59, 27
3, 188640, Note_on_c, 0, 45, 27
3, 188662, Control_c, 0, 64, 0
3, 188913, Control_c, 0, 64, 127
3, 189120, Note_on_c, 0, 45, 0
3, 189120, Note_on_c, 0, 59, 0
3, 189120, Note_on_c, 0, 47, 0
3, 189120, Note_on_c, 0, 43, 27
3, 189120, Note_on_c, 0, 47, 27
3, 189120, Note_on_c, 0, 59, 27
3, 189128, Control_c, 0, 64, 0
3, 189276, Control_c, 0, 64, 127
3, 189600, Note_on_c, 0, 59, 0
3, 189600, Note_on_c, 0, 47, 0
3, 189600, Note_on_c, 0, 43, 0
3, 189600, Note_on_c, 0, 42, 30
3, 189600, Note_on_c, 0, 47, 30
3, 189600, Note_on_c, 0, 59, 30
3, 189600, Note_on_c, 0, 57, 30
3, 189620, Control_c, 0, 64, 0
3, 189847, Control_c, 0, 64, 127
3, 190080, Note_on_c, 0, 57, 0
3, 190080, Note_on_c, 0, 42, 0
3, 190080, Note_on_c, 0, 47, 0
3, 190080, Note_on_c, 0, 59, 0
3, 190080, Note_on_c, 0, 40, 30
3, 190080, Note_on_c, 0, 47, 30
3, 190080, Note_on_c, 0, 55, 30
3, 190080, Note_on_c, 0, 59, 30
3, 190088, Control_c, 0, 64, 0
3, 190240, Control_c, 0, 64, 127
3, 190560, Note_on_c, 0, 59, 0
3, 190560, Note_on_c, 0, 40, 0
3, 190560, Note_on_c, 0, 47, 0
3, 190560, Note_on_c, 0, 55, 0
3, 190560, Note_on_c, 0, 38, 29
3, 190560, Note_on_c, 0, 42, 29
3, 190560, Note_on_c, 0, 50, 29
3, 190560, Note_on_c, 0, 54, 29
3, 190560, Note_on_c, 0, 60, 29
3, 190576, Control_c, 0, 64, 0
3, 190812, Control_c, 0, 64, 127
3, 191040, Note_on_c, 0, 60, 0
3, 191040, Note_on_c, 0, 50, 0
3, 191040, Note_on_c, 0, 38, 0
3, 191040, Note_on_c, 0, 42, 0
3, 191040, Note_on_c, 0, 54, 0
3, 191040, Note_on_c, 0, 37, 27
3, 191040, Note_on_c, 0, 44, 27
3, 191040, Note_on_c, 0, 49, 27
3, 191040, Note_on_c, 0, 53, 27
3, 191040, Note_on_c, 0, 61, 27
3, 191051, Control_c, 0, 64, 0
3, 191172, Control_c, 0, 64, 127
3, 191520, Note_on_c, 0, 25, 25
3, 191520, Note_on_c, 0, 37, 25
3, 191760, Note_on_c, 0, 37, 0
3, 191760, Note_on_c, 0, 25, 0
3, 192000, Note_on_c, 0, 44, 0
3, 192000, Note_on_c, 0, 37, 0
3, 192000, Note_on_c, 0, 49, 0
3, 192000, Note_on_c, 0, 25, 25
3, 192000, Note_on_c, 0, 37, 25
3, 192240, Note_on_c, 0, 37, 0
3, 192240, Note_on_c, 0, 25, 0
3, 192480, Note_on_c, 0, 25, 25
3, 192480, Note_on_c, 0, 37, 25
3, 192720, Note_on_c, 0, 37, 0
3, 192720, Note_on_c, 0, 25, 0
3, 192960, Note_on_c, 0, 53, 0
3, 192960, Note_on_c, 0, 61, 0
3, 192960, Note_on_c, 0, 49, 30
3, 192960, Note_on_c, 0, 61, 30
3, 192974, Control_c, 0, 64, 0
3, 193189, Control_c, 0, 64, 127
3, 193435, Note_on_c, 0, 61, 0
3, 193440, Note_on_c, 0, 49, 0
3, 193440, Note_on_c, 0, 46, 30
3, 193440, Note_on_c, 0, 58, 30
3, 193456, Control_c, 0, 64, 0
3, 193692, Control_c, 0, 64, 127
3, 193920, Note_on_c, 0, 58, 0
3, 193920, Note_on_c, 0, 46, 0
3, 193920, Note_on_c, 0, 42, 30
3, 193920, Note_on_c, 0, 46, 30
3, 193920, Note_on_c, 0, 54, 30
3, 193927, Control_c, 0, 64, 0
3, 194080, Control_c, 0, 64, 127
3, 194400, Note_on_c, 0, 54, 0
3, 194400, Note_on_c, 0, 46, 0
3, 194400, Note_on_c, 0, 42, 0
3, 194400, Note_on_c, 0, 39, 40
3, 194400, Note_on_c, 0, 46, 40
3, 194400, Note_on_c, 0, 51, 40
3, 194417, Control_c, 0, 64, 0
3, 194720, Control_c, 0, 64, 127
3, 194880, Note_on_c, 0, 51, 0
3, 194880, Note_on_c, 0, 46, 0
3, 194880, Note_on_c, 0, 39, 0
3, 194880, Note_on_c, 0, 35, 44
3, 194880, Note_on_c, 0, 39, 44
3, 194880, Note_on_c, 0, 47, 44
3, 194889, Control_c, 0, 64, 0
3, 195063, Control_c, 0, 64, 127
3, 195360, Note_on_c, 0, 47, 0
3, 195360, Note_on_c, 0, 39, 0
3, 195360, Note_on_c, 0, 35, 0
3, 195360, Note_on_c, 0, 32, 50
3, 195360, Note_on_c, 0, 39, 50
3, 195360, Note_on_c, 0, 44, 50
3, 195372, Control_c, 0, 64, 0
3, 195680, Control_c, 0, 64, 127
3, 195840, Note_on_c, 0, 44, 0
3, 195840, Note_on_c, 0, 39, 0
3, 195840, Note_on_c, 0, 32, 0
3, 195840, Note_on_c, 0, 34, 51
3, 195840, Note_on_c, 0, 38, 51
3, 195840, Note_on_c, 0, 41, 51
3, 195840, Note_on_c, 0, 46, 51
3, 195849, Control_c, 0, 64, 0
3, 195974, Control_c, 0, 64, 127
3, 196320, Note_on_c, 0, 58, 41
3, 196320, Note_on_c, 0, 62, 41
3, 196320, Note_on_c, 0, 65, 41
3, 196320, Note_on_c, 0, 70, 41
3, 196800, Note_on_c, 0, 70, 0
3, 196800, Note_on_c, 0, 34, 0
3, 196800, Note_on_c, 0, 46, 0
3, 196800, Note_on_c, 0, 41, 0
3, 196800, Note_on_c, 0, 38, 0
3, 197280, Note_on_c, 0, 65, 0
3, 197280, Note_on_c, 0, 58, 0
3, 197280, Note_on_c, 0, 62, 0
3, 197280, Note_on_c, 0, 51, 48
3, 197280, Note_on_c, 0, 54, 48
3, 197280, Note_on_c, 0, 58, 48
3, 197280, Note_on_c, 0, 63, 48
3, 197297, Control_c, 0, 64, 0
3, 197443, Control_c, 0, 64, 127
3, 197760, Note_on_c, 0, 63, 0
3, 197760, Note_on_c, 0, 51, 0
3, 197760, Note_on_c, 0, 54, 0
3, 197760, Note_on_c, 0, 58, 0
3, 197760, Note_on_c, 0, 58, 48
3, 197760, Note_on_c, 0, 62, 48
3, 197760, Note_on_c, 0, 65, 48
3, 197760, Note_on_c, 0, 70, 48
3, 197771, Control_c, 0, 64, 0
3, 197894, Control_c, 0, 64, 127
3, 198240, Note_on_c, 0, 34, 45
3, 198360, Note_on_c, 0, 34, 0
3, 198360, Note_on_c, 0, 41, 44
3, 198480, Note_on_c, 0, 41, 0
3, 198480, Note_on_c, 0, 46, 45
3, 198600, Note_on_c, 0, 46, 0
3, 198600, Note_on_c, 0, 50, 44
3, 198720, Note_on_c, 0, 50, 0
3, 198720, Note_on_c, 0, 70, 0
3, 198720, Note_on_c, 0, 58, 0
3, 198720, Note_on_c, 0, 62, 0
3, 198720, Note_on_c, 0, 65, 0
3, 198720, Note_on_c, 0, 58, 45
3, 198840, Note_on_c, 0, 58, 0
3, 198840, Note_on_c, 0, 62, 44
3, 198960, Note_on_c, 0, 62, 0
3, 198960, Note_on_c, 0, 65, 45
3, 199200, Note_on_c, 0, 65, 0
3, 199200, Note_on_c, 0, 35, 52
3, 199200, Note_on_c, 0, 39, 52
3, 199200, Note_on_c, 0, 42, 52
3, 199200, Note_on_c, 0, 47, 52
3, 199221, Control_c, 0, 64, 0
3, 199348, Control_c, 0, 64, 127
3, 199680, Note_on_c, 0, 47, 0
3, 199680, Note_on_c, 0, 35, 0
3, 199680, Note_on_c, 0, 39, 0
3, 199680, Note_on_c, 0, 42, 0
3, 199680, Note_on_c, 0, 37, 52
3, 199680, Note_on_c, 0, 41, 52
3, 199680, Note_on_c, 0, 44, 52
3, 199680, Note_on_c, 0, 49, 52
3, 199691, Control_c, 0, 64, 0
3, 199857, Control_c, 0, 64, 127
3, 200160, Note_on_c, 0, 61, 53
3, 200160, Note_on_c, 0, 65, 53
3, 200160, Note_on_c, 0, 68, 53
3, 200160, Note_on_c, 0, 73, 53
3, 200640, Note_on_c, 0, 73, 0
3, 200640, Note_on_c, 0, 37, 0
3, 200640, Note_on_c, 0, 49, 0
3, 200640, Note_on_c, 0, 44, 0
3, 200640, Note_on_c, 0, 41, 0
3, 201120, Note_on_c, 0, 68, 0
3, 201120, Note_on_c, 0, 61, 0
3, 201120, Note_on_c, 0, 65, 0
3, 201120, Note_on_c, 0, 54, 52
3, 201120, Note_on_c, 0, 58, 52
3, 201120, Note_on_c, 0, 61, 52
3, 201120, Note_on_c, 0, 66, 59
3, 201142, Control_c, 0, 64, 0
3, 201263, Control_c, 0, 64, 127
3, 201600, Note_on_c, 0, 66, 0
3, 201600, Note_on_c, 0, 54, 0
3, 201600, Note_on_c, 0, 58, 0
3, 201600, Note_on_c, 0, 61, 0
3, 201600, Note_on_c, 0, 61, 52
3, 201600, Note_on_c, 0, 65, 52
3, 201600, Note_on_c, 0, 68, 59
3, 201600, Note_on_c, 0, 73, 59
3, 201610, Control_c, 0, 64, 0
3, 201709, Control_c, 0, 64, 127
3, 202080, Note_on_c, 0, 37, 55
3, 202200, Note_on_c, 0, 37, 0
3, 202200, Note_on_c, 0, 44, 52
3, 202320, Note_on_c, 0, 44, 0
3, 202320, Note_on_c, 0, 49, 55
3, 202440, Note_on_c, 0, 49, 0
3, 202440, Note_on_c, 0, 53, 52
3, 202560, Note_on_c, 0, 53, 0
3, 202560, Note_on_c, 0, 73, 0
3, 202560, Note_on_c, 0, 61, 0
3, 202560, Note_on_c, 0, 65, 0
3, 202560, Note_on_c, 0, 68, 0
3, 202560, Note_on_c, 0, 61, 55
3, 202680, Note_on_c, 0, 61, 0
3, 202680, Note_on_c, 0, 65, 52
3, 202800, Note_on_c, 0, 65, 0
3, 202800, Note_on_c, 0, 68, 55
3, 203040, Note_on_c, 0, 68, 0
3, 203040, Note_on_c, 0, 37, 49
3, 203061, Control_c, 0, 64, 0
3, 203160, Note_on_c, 0, 37, 0
3, 203160, Note_on_c, 0, 44, 48
3, 203177, Control_c, 0, 64, 127
3, 203280, Note_on_c, 0, 44, 0
3, 203280, Note_on_c, 0, 49, 50
3, 203400, Note_on_c, 0, 49, 0
3, 203400, Note_on_c, 0, 52, 48
3, 203520, Note_on_c, 0, 52, 0
3, 203520, Note_on_c, 0, 61, 50
3, 203640, Note_on_c, 0, 61, 0
3, 203640, Note_on_c, 0, 64, 48
3, 203760, Note_on_c, 0, 64, 0
3, 203760, Note_on_c, 0, 68, 50
3, 204000, Note_on_c, 0, 68, 0
3, 204000, Note_on_c, 0, 30, 49
3, 204017, Control_c, 0, 64, 0
3, 204109, Control_c, 0, 64, 127
3, 204120, Note_on_c, 0, 34, 50
3, 204240, Note_on_c, 0, 34, 0
3, 204240, Note_on_c, 0, 30, 0
3, 204240, Note_on_c, 0, 37, 51
3, 204360, Note_on_c, 0, 37, 0
3, 204360, Note_on_c, 0, 42, 52
3, 204480, Note_on_c, 0, 42, 0
3, 204480, Note_on_c, 0, 46, 52
3, 204489, Control_c, 0, 64, 0
3, 204561, Control_c, 0, 64, 127
3, 204600, Note_on_c, 0, 46, 0
3, 204600, Note_on_c, 0, 49, 52
3, 204720, Note_on_c, 0, 49, 0
3, 204720, Note_on_c, 0, 54, 53
3, 204840, Note_on_c, 0, 54, 0
3, 204840, Note_on_c, 0, 58, 55
3, 204960, Note_on_c, 0, 58, 0
3, 204960, Note_on_c, 0, 61, 56
3, 204976, Control_c, 0, 64, 0
3, 205034, Control_c, 0, 64, 127
3, 205080, Note_on_c, 0, 66, 56
3, 205200, Note_on_c, 0, 66, 0
3, 205200, Note_on_c, 0, 61, 0
3, 205200, Note_on_c, 0, 70, 57
3, 205320, Note_on_c, 0, 70, 0
3, 205320, Note_on_c, 0, 73, 59
3, 205340, Note_on_c, 0, 66, 51
3, 205380, Note_on_c, 0, 70, 51
3, 205420, Note_on_c, 0, 73, 51
3, 205440, Note_on_c, 0, 73, 0
3, 205440, Note_on_c, 0, 78, 59
3, 205450, Control_c, 0, 64, 0
3, 205555, Control_c, 0, 64, 127
3, 205560, Note_on_c, 0, 78, 0
3, 205560, Note_on_c, 0, 73, 0
3, 205560, Note_on_c, 0, 70, 0
3, 205560, Note_on_c, 0, 66, 0
3, 205920, Note_on_c, 0, 71, 59
3, 205939, Control_c, 0, 64, 0
3, 206035, Control_c, 0, 64, 127
3, 206040, Note_on_c, 0, 66, 60
3, 206160, Note_on_c, 0, 66, 0
3, 206160, Note_on_c, 0, 71, 0
3, 206160, Note_on_c, 0, 63, 61
3, 206280, Note_on_c, 0, 63, 0
3, 206280, Note_on_c, 0, 59, 61
3, 206400, Note_on_c, 0, 59, 0
3, 206400, Note_on_c, 0, 54, 62
3, 206417, Control_c, 0, 64, 0
3, 206475, Control_c, 0, 64, 127
3, 206520, Note_on_c, 0, 51, 62
3, 206640, Note_on_c, 0, 51, 0
3, 206640, Note_on_c, 0, 54, 0
3, 206640, Note_on_c, 0, 47, 64
3, 206760, Note_on_c, 0, 47, 0
3, 206760, Note_on_c, 0, 42, 66
3, 206880, Note_on_c, 0, 42, 0
3, 206880, Note_on_c, 0, 39, 66
3, 206890, Control_c, 0, 64, 0
3, 206977, Control_c, 0, 64, 127
3, 207000, Note_on_c, 0, 35, 66
3, 207120, Note_on_c, 0, 35, 0
3, 207120, Note_on_c, 0, 39, 0
3, 207120, Note_on_c, 0, 30, 67
3, 207240, Note_on_c, 0, 30, 0
3, 207240, Note_on_c, 0, 27, 68
3, 207360, Note_on_c, 0, 27, 0
3, 207360, Note_on_c, 0, 58, 69
3, 207360, Note_on_c, 0, 63, 69
3, 207360, Note_on_c, 0, 67, 69
3, 207360, Note_on_c, 0, 70, 78
3, 207360, Control_c, 0, 91, 127
3, 207368, Control_c, 0, 64, 0
3, 207523, Control_c, 0, 64, 127
3, 207720, Note_on_c, 0, 70, 0
3, 207720, Note_on_c, 0, 58, 0
3, 207720, Note_on_c, 0, 63, 0
3, 207720, Note_on_c, 0, 67, 0
3, 207840, Note_on_c, 0, 58, 67
3, 207840, Note_on_c, 0, 46, 59
3, 207849, Control_c, 0, 64, 0
3, 207960, Note_on_c, 0, 46, 0
3, 207960, Note_on_c, 0, 58, 0
3, 208080, Note_on_c, 0, 39, 57
3, 208080, Note_on_c, 0, 51, 63
3, 208200, Note_on_c, 0, 51, 0
3, 208200, Note_on_c, 0, 39, 0
3, 208320, Note_on_c, 0, 63, 77
3, 208320, Note_on_c, 0, 60, 69
3, 208320, Note_on_c, 0, 56, 69
3, 208320, Note_on_c, 0, 51, 69
3, 208345, Control_c, 0, 64, 127
3, 208800, Note_on_c, 0, 51, 0
3, 208800, Note_on_c, 0, 63, 0
3, 208800, Note_on_c, 0, 60, 0
3, 208800, Note_on_c, 0, 56, 0
3, 208800, Note_on_c, 0, 39, 59
3, 208800, Note_on_c, 0, 51, 66
3, 208816, Control_c, 0, 64, 0
3, 208920, Note_on_c, 0, 51, 0
3, 208920, Note_on_c, 0, 39, 0
3, 209040, Note_on_c, 0, 32, 57
3, 209040, Note_on_c, 0, 44, 63
3, 209160, Note_on_c, 0, 44, 0
3, 209160, Note_on_c, 0, 32, 0
3, 209280, Note_on_c, 0, 39, 69
3, 209280, Note_on_c, 0, 46, 69
3, 209280, Note_on_c, 0, 51, 77
3, 209372, Control_c, 0, 64, 127
3, 209760, Note_on_c, 0, 51, 0
3, 209760, Note_on_c, 0, 46, 0
3, 209760, Note_on_c, 0, 39, 0
3, 209760, Note_on_c, 0, 34, 62
3, 209760, Note_on_c, 0, 46, 70
3, 209773, Control_c, 0, 64, 0
3, 209880, Note_on_c, 0, 46, 0
3, 209880, Note_on_c, 0, 34, 0
3, 210000, Note_on_c, 0, 27, 59
3, 210000, Note_on_c, 0, 39, 66
3, 210120, Note_on_c, 0, 39, 0
3, 210120, Note_on_c, 0, 27, 0
3, 210240, Note_on_c, 0, 34, 59
3, 210240, Note_on_c, 0, 46, 66
3, 210360, Note_on_c, 0, 46, 0
3, 210360, Note_on_c, 0, 34, 0
3, 210480, Note_on_c, 0, 58, 62
3, 210480, Note_on_c, 0, 46, 62
3, 210600, Note_on_c, 0, 46, 0
3, 210600, Note_on_c, 0, 58, 0
3, 210720, Note_on_c, 0, 39, 66
3, 210720, Note_on_c, 0, 51, 73
3, 210826, Control_c, 0, 64, 127
3, 211200, Note_on_c, 0, 51, 0
3, 211200, Note_on_c, 0, 39, 0
3, 211200, Note_on_c, 0, 62, 72
3, 211200, Note_on_c, 0, 58, 64
3, 211200, Note_on_c, 0, 51, 64
3, 211207, Control_c, 0, 64, 0
3, 211292, Control_c, 0, 64, 127
3, 211680, Note_on_c, 0, 51, 0
3, 211680, Note_on_c, 0, 58, 0
3, 211680, Note_on_c, 0, 62, 0
3, 211680, Note_on_c, 0, 51, 62
3, 211680, Note_on_c, 0, 56, 62
3, 211680, Note_on_c, 0, 60, 70
3, 211692, Control_c, 0, 64, 0
3, 211772, Control_c, 0, 64, 127
3, 212160, Note_on_c, 0, 60, 0
3, 212160, Note_on_c, 0, 56, 0
3, 212160, Note_on_c, 0, 51, 0
3, 212160, Control_c, 0, 64, 0
3, 212160, Note_on_c, 0, 39, 62
3, 212160, Note_on_c, 0, 46, 62
3, 212160, Note_on_c, 0, 51, 70
3, 212266, Control_c, 0, 64, 127
3, 212640, Note_on_c, 0, 51, 0
3, 212640, Note_on_c, 0, 46, 0
3, 212640, Note_on_c, 0, 39, 0
3, 212640, Note_on_c, 0, 34, 64
3, 212640, Note_on_c, 0, 46, 72
3, 212656, Control_c, 0, 64, 0
3, 212760, Note_on_c, 0, 46, 0
3, 212760, Note_on_c, 0, 34, 0
3, 212880, Note_on_c, 0, 39, 68
3, 212880, Note_on_c, 0, 27, 60
3, 213000, Note_on_c, 0, 27, 0
3, 213000, Note_on_c, 0, 39, 0
3, 213120, Note_on_c, 0, 60, 77
3, 213120, Note_on_c, 0, 55, 69
3, 213120, Note_on_c, 0, 51, 69
3, 213120, Note_on_c, 0, 48, 69
3, 213184, Control_c, 0, 64, 127
3, 213600, Note_on_c, 0, 48, 0
3, 213600, Note_on_c, 0, 60, 0
3, 213600, Note_on_c, 0, 55, 0
3, 213600, Note_on_c, 0, 51, 0
3, 213600, Note_on_c, 0, 41, 62
3, 213600, Note_on_c, 0, 53, 70
3, 213615, Control_c, 0, 64, 0
3, 213720, Note_on_c, 0, 53, 0
3, 213720, Note_on_c, 0, 41, 0
3, 213840, Note_on_c, 0, 36, 62
3, 213840, Note_on_c, 0, 48, 70
3, 213960, Note_on_c, 0, 48, 0
3, 213960, Note_on_c, 0, 36, 0
3, 214080, Note_on_c, 0, 43, 67
3, 214080, Note_on_c, 0, 46, 67
3, 214080, Note_on_c, 0, 50, 67
3, 214080, Note_on_c, 0, 55, 74
3, 214115, Control_c, 0, 64, 127
3, 214560, Note_on_c, 0, 55, 0
3, 214560, Note_on_c, 0, 43, 0
3, 214560, Note_on_c, 0, 46, 0
3, 214560, Note_on_c, 0, 50, 0
3, 214560, Note_on_c, 0, 36, 59
3, 214560, Note_on_c, 0, 48, 66
3, 214583, Control_c, 0, 64, 0
3, 214680, Note_on_c, 0, 48, 0
3, 214680, Note_on_c, 0, 36, 0
3, 214800, Note_on_c, 0, 31, 56
3, 214800, Note_on_c, 0, 43, 62
3, 214920, Note_on_c, 0, 43, 0
3, 214920, Note_on_c, 0, 31, 0
3, 215040, Note_on_c, 0, 26, 59
3, 215040, Note_on_c, 0, 38, 67
3, 215160, Note_on_c, 0, 38, 0
3, 215160, Note_on_c, 0, 26, 0
3, 215280, Note_on_c, 0, 50, 61
3, 215280, Note_on_c, 0, 38, 55
3, 215400, Note_on_c, 0, 38, 0
3, 215400, Note_on_c, 0, 50, 0
3, 215520, Note_on_c, 0, 31, 63
3, 215520, Note_on_c, 0, 43, 71
3, 215583, Control_c, 0, 64, 127
3, 216000, Note_on_c, 0, 43, 0
3, 216000, Note_on_c, 0, 31, 0
3, 216000, Note_on_c, 0, 54, 70
3, 216000, Note_on_c, 0, 43, 62
3, 216007, Control_c, 0, 64, 0
3, 216066, Control_c, 0, 64, 127
3, 216480, Note_on_c, 0, 43, 0
3, 216480, Note_on_c, 0, 54, 0
3, 216480, Note_on_c, 0, 43, 58
3, 216480, Note_on_c, 0, 53, 64
3, 216492, Control_c, 0, 64, 0
3, 216584, Control_c, 0, 64, 127
3, 216900, Note_on_c, 0, 53, 0
3, 216900, Note_on_c, 0, 43, 0
3, 216910, Control_c, 0, 64, 0
3, 216960, Note_on_c, 0, 51, 52
3, 216960, Note_on_c, 0, 55, 52
3, 216960, Note_on_c, 0, 58, 52
3, 216960, Note_on_c, 0, 63, 59
3, 216960, Control_c, 0, 91, 127
3, 217129, Control_c, 0, 64, 127
3, 217440, Note_on_c, 0, 63, 0
3, 217440, Note_on_c, 0, 51, 0
3, 217440, Note_on_c, 0, 55, 0
3, 217440, Note_on_c, 0, 58, 0
3, 217440, Note_on_c, 0, 58, 53
3, 217440, Note_on_c, 0, 46, 48
3, 217449, Control_c, 0, 64, 0
3, 217553, Control_c, 0, 64, 127
3, 217680, Note_on_c, 0, 46, 0
3, 217680, Note_on_c, 0, 58, 0
3, 217680, Note_on_c, 0, 39, 53
3, 217680, Note_on_c, 0, 51, 60
3, 217696, Control_c, 0, 64, 0
3, 217807, Control_c, 0, 64, 127
3, 217920, Note_on_c, 0, 51, 0
3, 217920, Note_on_c, 0, 39, 0
3, 217920, Note_on_c, 0, 51, 59
3, 217920, Note_on_c, 0, 56, 66
3, 217920, Note_on_c, 0, 44, 59
3, 217929, Control_c, 0, 64, 0
3, 218110, Control_c, 0, 64, 127
3, 218400, Note_on_c, 0, 44, 0
3, 218400, Note_on_c, 0, 56, 0
3, 218400, Note_on_c, 0, 51, 0
3, 218400, Note_on_c, 0, 39, 48
3, 218400, Note_on_c, 0, 51, 53
3, 218408, Control_c, 0, 64, 0
3, 218489, Control_c, 0, 64, 127
3, 218640, Note_on_c, 0, 51, 0
3, 218640, Note_on_c, 0, 39, 0
3, 218640, Note_on_c, 0, 32, 49
3, 218640, Note_on_c, 0, 44, 56
3, 218651, Control_c, 0, 64, 0
3, 218792, Control_c, 0, 64, 127
3, 218880, Note_on_c, 0, 44, 0
3, 218880, Note_on_c, 0, 32, 0
3, 218880, Note_on_c, 0, 39, 50
3, 218880, Note_on_c, 0, 46, 50
3, 218880, Note_on_c, 0, 51, 57
3, 218896, Control_c, 0, 64, 0
3, 219064, Control_c, 0, 64, 127
3, 219360, Note_on_c, 0, 51, 0
3, 219360, Note_on_c, 0, 46, 0
3, 219360, Note_on_c, 0, 39, 0
3, 219360, Note_on_c, 0, 34, 52
3, 219360, Note_on_c, 0, 46, 59
3, 219373, Control_c, 0, 64, 0
3, 219487, Control_c, 0, 64, 127
3, 219600, Note_on_c, 0, 46, 0
3, 219600, Note_on_c, 0, 34, 0
3, 219600, Note_on_c, 0, 27, 50
3, 219600, Note_on_c, 0, 39, 57
3, 219614, Control_c, 0, 64, 0
3, 219741, Control_c, 0, 64, 127
3, 219840, Note_on_c, 0, 39, 0
3, 219840, Note_on_c, 0, 27, 0
3, 219840, Note_on_c, 0, 34, 50
3, 219840, Note_on_c, 0, 46, 57
3, 219848, Control_c, 0, 64, 0
3, 220024, Control_c, 0, 64, 127
3, 220080, Note_on_c, 0, 46, 0
3, 220080, Note_on_c, 0, 34, 0
3, 220080, Note_on_c, 0, 58, 56
3, 220080, Note_on_c, 0, 46, 49
3, 220320, Note_on_c, 0, 46, 0
3, 220320, Note_on_c, 0, 58, 0
3, 220320, Note_on_c, 0, 39, 58
3, 220320, Note_on_c, 0, 51, 64
3, 220337, Control_c, 0, 64, 0
3, 220546, Control_c, 0, 64, 127
3, 220800, Note_on_c, 0, 51, 0
3, 220800, Note_on_c, 0, 39, 0
3, 220800, Note_on_c, 0, 39, 59
3, 220800, Note_on_c, 0, 37, 59
3, 220800, Note_on_c, 0, 49, 66
3, 220806, Control_c, 0, 64, 0
3, 220943, Control_c, 0, 64, 127
3, 221280, Note_on_c, 0, 49, 0
3, 221280, Note_on_c, 0, 37, 0
3, 221280, Note_on_c, 0, 39, 0
3, 221280, Note_on_c, 0, 34, 62
3, 221280, Note_on_c, 0, 39, 62
3, 221280, Note_on_c, 0, 46, 70
3, 221300, Control_c, 0, 64, 0
3, 221386, Control_c, 0, 64, 127
3, 221693, Control_c, 0, 64, 0
3, 221700, Note_on_c, 0, 46, 0
3, 221700, Note_on_c, 0, 39, 0
3, 221700, Note_on_c, 0, 34, 0
3, 221760, Note_on_c, 0, 32, 72
3, 221760, Note_on_c, 0, 39, 72
3, 221760, Note_on_c, 0, 44, 81
3, 221852, Control_c, 0, 64, 127
3, 222240, Note_on_c, 0, 44, 0
3, 222240, Note_on_c, 0, 39, 0
3, 222240, Note_on_c, 0, 32, 0
3, 222240, Note_on_c, 0, 35, 67
3, 222240, Note_on_c, 0, 47, 74
3, 222247, Control_c, 0, 64, 0
3, 222360, Note_on_c, 0, 47, 0
3, 222360, Note_on_c, 0, 35, 0
3, 222480, Note_on_c, 0, 44, 72
3, 222480, Note_on_c, 0, 32, 64
3, 222600, Note_on_c, 0, 32, 0
3, 222600, Note_on_c, 0, 44, 0
3, 222720, Note_on_c, 0, 47, 70
3, 222720, Note_on_c, 0, 40, 70
3, 222720, Note_on_c, 0, 44, 70
3, 222720, Note_on_c, 0, 52, 79
3, 222755, Control_c, 0, 64, 127
3, 223200, Note_on_c, 0, 52, 0
3, 223200, Note_on_c, 0, 47, 0
3, 223200, Note_on_c, 0, 40, 0
3, 223200, Note_on_c, 0, 44, 0
3, 223200, Note_on_c, 0, 44, 62
3, 223200, Note_on_c, 0, 56, 70
3, 223210, Control_c, 0, 64, 0
3, 223320, Note_on_c, 0, 56, 0
3, 223320, Note_on_c, 0, 44, 0
3, 223440, Note_on_c, 0, 40, 60
3, 223440, Note_on_c, 0, 52, 68
3, 223560, Note_on_c, 0, 52, 0
3, 223560, Note_on_c, 0, 40, 0
3, 223680, Note_on_c, 0, 61, 77
3, 223680, Note_on_c, 0, 56, 69
3, 223680, Note_on_c, 0, 52, 69
3, 223680, Note_on_c, 0, 49, 69
3, 223697, Control_c, 0, 64, 127
3, 224160, Note_on_c, 0, 49, 0
3, 224160, Note_on_c, 0, 61, 0
3, 224160, Note_on_c, 0, 56, 0
3, 224160, Note_on_c, 0, 52, 0
3, 224160, Note_on_c, 0, 40, 59
3, 224160, Note_on_c, 0, 52, 66
3, 224169, Control_c, 0, 64, 0
3, 224280, Note_on_c, 0, 52, 0
3, 224280, Note_on_c, 0, 40, 0
3, 224400, Note_on_c, 0, 37, 59
3, 224400, Note_on_c, 0, 49, 66
3, 224520, Note_on_c, 0, 49, 0
3, 224520, Note_on_c, 0, 37, 0
3, 224640, Note_on_c, 0, 44, 64
3, 224640, Note_on_c, 0, 50, 64
3, 224640, Note_on_c, 0, 53, 64
3, 224640, Note_on_c, 0, 56, 72
3, 224692, Control_c, 0, 64, 127
3, 225120, Note_on_c, 0, 56, 0
3, 225120, Note_on_c, 0, 44, 0
3, 225120, Note_on_c, 0, 50, 0
3, 225120, Note_on_c, 0, 53, 0
3, 225120, Note_on_c, 0, 42, 67
3, 225120, Note_on_c, 0, 54, 74
3, 225137, Control_c, 0, 64, 0
3, 225240, Note_on_c, 0, 54, 0
3, 225240, Note_on_c, 0, 42, 0
3, 225360, Note_on_c, 0, 53, 71
3, 225360, Note_on_c, 0, 41, 63
3, 225480, Note_on_c, 0, 41, 0
3, 225480, Note_on_c, 0, 53, 0
3, 225600, Control_c, 0, 64, 127
3, 225600, Note_on_c, 0, 46, 67
3, 225600, Note_on_c, 0, 58, 74
3, 225784, Control_c, 0, 64, 0
3, 225960, Note_on_c, 0, 58, 0
3, 225960, Note_on_c, 0, 46, 0
3, 226080, Note_on_c, 0, 34, 67
3, 226080, Note_on_c, 0, 46, 74
3, 226186, Control_c, 0, 64, 127
3, 226341, Control_c, 0, 64, 0
3, 226440, Note_on_c, 0, 46, 0
3, 226440, Note_on_c, 0, 34, 0
3, 226560, Note_on_c, 0, 39, 55
3, 226560, Control_c, 0, 91, 127
3, 226594, Control_c, 0, 64, 127
3, 226680, Note_on_c, 0, 39, 0
3, 226680, Note_on_c, 0, 46, 52
3, 226800, Note_on_c, 0, 46, 0
3, 226800, Note_on_c, 0, 51, 55
3, 226920, Note_on_c, 0, 51, 0
3, 226920, Note_on_c, 0, 54, 52
3, 226926, Control_c, 0, 64, 0
3, 227040, Note_on_c, 0, 54, 0
3, 227040, Note_on_c, 0, 46, 40
3, 227040, Note_on_c, 0, 50, 40
3, 227040, Note_on_c, 0, 56, 48
3, 227229, Control_c, 0, 64, 127
3, 227432, Control_c, 0, 64, 0
3, 227520, Note_on_c, 0, 56, 0
3, 227520, Note_on_c, 0, 50, 0
3, 227520, Note_on_c, 0, 46, 0
3, 227520, Note_on_c, 0, 39, 53
3, 227640, Note_on_c, 0, 39, 0
3, 227640, Note_on_c, 0, 46, 52
3, 227703, Control_c, 0, 64, 127
3, 227760, Note_on_c, 0, 46, 0
3, 227760, Note_on_c, 0, 51, 53
3, 227880, Note_on_c, 0, 51, 0
3, 227880, Note_on_c, 0, 54, 53
3, 227886, Control_c, 0, 64, 0
3, 228000, Note_on_c, 0, 54, 0
3, 228000, Note_on_c, 0, 46, 40
3, 228000, Note_on_c, 0, 50, 40
3, 228000, Note_on_c, 0, 56, 48
3, 228166, Control_c, 0, 64, 127
3, 228383, Control_c, 0, 64, 0
3, 228480, Note_on_c, 0, 56, 0
3, 228480, Note_on_c, 0, 50, 0
3, 228480, Note_on_c, 0, 46, 0
3, 228480, Note_on_c, 0, 39, 52
3, 228600, Note_on_c, 0, 47, 50
3, 228623, Control_c, 0, 64, 127
3, 228720, Note_on_c, 0, 47, 0
3, 228720, Note_on_c, 0, 39, 0
3, 228720, Note_on_c, 0, 51, 52
3, 228840, Note_on_c, 0, 51, 0
3, 228840, Note_on_c, 0, 54, 50
3, 228863, Control_c, 0, 64, 0
3, 228960, Note_on_c, 0, 54, 0
3, 228960, Note_on_c, 0, 48, 40
3, 228960, Note_on_c, 0, 51, 40
3, 228960, Note_on_c, 0, 57, 48
3, 229120, Control_c, 0, 64, 127
3, 229360, Control_c, 0, 64, 0
3, 229440, Note_on_c, 0, 57, 0
3, 229440, Note_on_c, 0, 51, 0
3, 229440, Note_on_c, 0, 48, 0
3, 229440, Note_on_c, 0, 39, 52
3, 229560, Note_on_c, 0, 48, 51
3, 229623, Control_c, 0, 64, 127
3, 229680, Note_on_c, 0, 48, 0
3, 229680, Note_on_c, 0, 39, 0
3, 229680, Note_on_c, 0, 51, 52
3, 229800, Note_on_c, 0, 51, 0
3, 229800, Note_on_c, 0, 57, 50
3, 229835, Control_c, 0, 64, 0
3, 229920, Note_on_c, 0, 57, 0
3, 229920, Note_on_c, 0, 51, 41
3, 229920, Note_on_c, 0, 54, 41
3, 229920, Note_on_c, 0, 60, 49
3, 230074, Control_c, 0, 64, 127
3, 230297, Control_c, 0, 64, 0
3, 230400, Note_on_c, 0, 60, 0
3, 230400, Note_on_c, 0, 54, 0
3, 230400, Note_on_c, 0, 51, 0
3, 230400, Note_on_c, 0, 34, 49
3, 230400, Note_on_c, 0, 39, 49
3, 230400, Note_on_c, 0, 42, 56
3, 230400, Note_on_c, 0, 46, 56
3, 230515, Control_c, 0, 64, 127
3, 230880, Note_on_c, 0, 46, 0
3, 230880, Note_on_c, 0, 34, 0
3, 230880, Note_on_c, 0, 39, 0
3, 230880, Note_on_c, 0, 42, 0
3, 230880, Note_on_c, 0, 46, 49
3, 230880, Note_on_c, 0, 53, 49
3, 230880, Note_on_c, 0, 56, 56
3, 230880, Note_on_c, 0, 58, 56
3, 230892, Control_c, 0, 64, 0
3, 231109, Control_c, 0, 64, 127
3, 231360, Note_on_c, 0, 58, 0
3, 231360, Note_on_c, 0, 46, 0
3, 231360, Note_on_c, 0, 53, 0
3, 231360, Note_on_c, 0, 56, 0
3, 231360, Control_c, 0, 64, 0
3, 231360, Note_on_c, 0, 35, 46
3, 231360, Control_c, 0, 91, 127
3, 231480, Note_on_c, 0, 35, 0
3, 231480, Note_on_c, 0, 42, 45
3, 231549, Control_c, 0, 64, 127
3, 231600, Note_on_c, 0, 42, 0
3, 231600, Note_on_c, 0, 47, 46
3, 231720, Note_on_c, 0, 47, 0
3, 231720, Note_on_c, 0, 51, 45
3, 231740, Control_c, 0, 64, 0
3, 231840, Note_on_c, 0, 51, 0
3, 231840, Note_on_c, 0, 47, 34
3, 231840, Note_on_c, 0, 52, 34
3, 231840, Note_on_c, 0, 58, 40
3, 232006, Control_c, 0, 64, 127
3, 232235, Control_c, 0, 64, 0
3, 232320, Note_on_c, 0, 58, 0
3, 232320, Note_on_c, 0, 52, 0
3, 232320, Note_on_c, 0, 47, 0
3, 232320, Note_on_c, 0, 35, 46
3, 232440, Note_on_c, 0, 35, 0
3, 232440, Note_on_c, 0, 42, 45
3, 232463, Control_c, 0, 64, 127
3, 232560, Note_on_c, 0, 42, 0
3, 232560, Note_on_c, 0, 47, 46
3, 232680, Note_on_c, 0, 47, 0
3, 232680, Note_on_c, 0, 51, 45
3, 232732, Control_c, 0, 64, 0
3, 232800, Note_on_c, 0, 51, 0
3, 232800, Note_on_c, 0, 47, 33
3, 232800, Note_on_c, 0, 52, 33
3, 232800, Note_on_c, 0, 58, 39
3, 233017, Control_c, 0, 64, 127
3, 233177, Control_c, 0, 64, 0
3, 233280, Note_on_c, 0, 58, 0
3, 233280, Note_on_c, 0, 52, 0
3, 233280, Note_on_c, 0, 47, 0
3, 233280, Note_on_c, 0, 35, 41
3, 233400, Note_on_c, 0, 35, 0
3, 233400, Note_on_c, 0, 42, 39
3, 233457, Control_c, 0, 64, 127
3, 233520, Note_on_c, 0, 42, 0
3, 233520, Note_on_c, 0, 47, 41
3, 233640, Note_on_c, 0, 47, 0
3, 233640, Note_on_c, 0, 51, 39
3, 233670, Control_c, 0, 64, 0
3, 233760, Note_on_c, 0, 48, 33
3, 233760, Note_on_c, 0, 57, 39
3, 233954, Control_c, 0, 64, 127
3, 234155, Control_c, 0, 64, 0
3, 234240, Note_on_c, 0, 57, 0
3, 234240, Note_on_c, 0, 48, 0
3, 234240, Note_on_c, 0, 51, 0
3, 234240, Note_on_c, 0, 29, 41
3, 234360, Note_on_c, 0, 29, 0
3, 234360, Note_on_c, 0, 41, 40
3, 234389, Control_c, 0, 64, 127
3, 234480, Note_on_c, 0, 41, 0
3, 234480, Note_on_c, 0, 45, 41
3, 234600, Note_on_c, 0, 45, 0
3, 234600, Note_on_c, 0, 48, 40
3, 234630, Control_c, 0, 64, 0
3, 234720, Note_on_c, 0, 51, 38
3, 234720, Note_on_c, 0, 41, 32
3, 234851, Control_c, 0, 64, 127
3, 235110, Control_c, 0, 64, 0
3, 235200, Note_on_c, 0, 41, 0
3, 235200, Note_on_c, 0, 51, 0
3, 235200, Note_on_c, 0, 48, 0
3, 235200, Note_on_c, 0, 34, 57
3, 235200, Note_on_c, 0, 39, 57
3, 235200, Note_on_c, 0, 42, 57
3, 235200, Note_on_c, 0, 46, 64
3, 235269, Control_c, 0, 64, 127
3, 235680, Note_on_c, 0, 46, 0
3, 235680, Note_on_c, 0, 34, 0
3, 235680, Note_on_c, 0, 39, 0
3, 235680, Note_on_c, 0, 42, 0
3, 235680, Note_on_c, 0, 46, 54
3, 235680, Note_on_c, 0, 51, 54
3, 235680, Note_on_c, 0, 56, 54
3, 235680, Note_on_c, 0, 59, 61
3, 235700, Control_c, 0, 64, 0
3, 235955, Control_c, 0, 64, 127
3, 236160, Note_on_c, 0, 59, 0
3, 236160, Note_on_c, 0, 46, 0
3, 236160, Note_on_c, 0, 51, 0
3, 236160, Note_on_c, 0, 56, 0
3, 236160, Note_on_c, 0, 46, 52
3, 236160, Note_on_c, 0, 53, 52
3, 236160, Note_on_c, 0, 60, 59
3, 236175, Control_c, 0, 64, 0
3, 236246, Control_c, 0, 64, 127
3, 236640, Note_on_c, 0, 60, 0
3, 236640, Note_on_c, 0, 53, 0
3, 236640, Note_on_c, 0, 46, 0
3, 236640, Note_on_c, 0, 34, 55
3, 236640, Note_on_c, 0, 46, 55
3, 236652, Control_c, 0, 64, 0
3, 236697, Control_c, 0, 64, 127
3, 237051, Control_c, 0, 64, 0
3, 237060, Note_on_c, 0, 39, 27
3, 237080, Note_on_c, 0, 42, 27
3, 237100, Note_on_c, 0, 46, 26
3, 237120, Note_on_c, 0, 46, 0
3, 237120, Note_on_c, 0, 34, 0
3, 237120, Control_c, 0, 91, 127
3, 237120, Note_on_c, 0, 51, 52
3, 237200, Note_on_c, 0, 51, 0
3, 237200, Note_on_c, 0, 46, 0
3, 237200, Note_on_c, 0, 39, 0
3, 237200, Note_on_c, 0, 42, 0
3, 237280, Note_on_c, 0, 50, 37
3, 237360, Note_on_c, 0, 50, 0
3, 237440, Note_on_c, 0, 51, 36
3, 237520, Note_on_c, 0, 51, 0
3, 237540, Note_on_c, 0, 39, 26
3, 237560, Note_on_c, 0, 44, 26
3, 237580, Note_on_c, 0, 47, 26
3, 237600, Note_on_c, 0, 53, 36
3, 237680, Note_on_c, 0, 53, 0
3, 237680, Note_on_c, 0, 39, 0
3, 237680, Note_on_c, 0, 44, 0
3, 237680, Note_on_c, 0, 47, 0
3, 237760, Note_on_c, 0, 51, 35
3, 237840, Note_on_c, 0, 51, 0
3, 237920, Note_on_c, 0, 50, 35
3, 238000, Note_on_c, 0, 50, 0
3, 238040, Note_on_c, 0, 39, 28
3, 238060, Note_on_c, 0, 46, 28
3, 238080, Note_on_c, 0, 54, 38
3, 238160, Note_on_c, 0, 54, 0
3, 238160, Note_on_c, 0, 46, 0
3, 238160, Note_on_c, 0, 39, 0
3, 238240, Note_on_c, 0, 50, 37
3, 238240, Note_on_c, 0, 53, 37
3, 238320, Note_on_c, 0, 53, 0
3, 238320, Note_on_c, 0, 50, 0
3, 238400, Note_on_c, 0, 51, 37
3, 238400, Note_on_c, 0, 54, 37
3, 238480, Note_on_c, 0, 54, 0
3, 238480, Note_on_c, 0, 51, 0
3, 238520, Note_on_c, 0, 39, 28
3, 238540, Note_on_c, 0, 47, 28
3, 238560, Note_on_c, 0, 56, 37
3, 238640, Note_on_c, 0, 56, 0
3, 238640, Note_on_c, 0, 47, 0
3, 238640, Note_on_c, 0, 39, 0
3, 238720, Note_on_c, 0, 54, 36
3, 238720, Note_on_c, 0, 51, 36
3, 238800, Note_on_c, 0, 51, 0
3, 238800, Note_on_c, 0, 54, 0
3, 238880, Note_on_c, 0, 53, 36
3, 238880, Note_on_c, 0, 50, 36
3, 238960, Note_on_c, 0, 50, 0
3, 238960, Note_on_c, 0, 53, 0
3, 238980, Note_on_c, 0, 51, 30
3, 239000, Note_on_c, 0, 54, 30
3, 239020, Note_on_c, 0, 58, 30
3, 239120, Note_on_c, 0, 58, 0
3, 239120, Note_on_c, 0, 54, 0
3, 239120, Note_on_c, 0, 51, 0
3, 239460, Note_on_c, 0, 51, 31
3, 239480, Note_on_c, 0, 56, 31
3, 239500, Note_on_c, 0, 59, 31
3, 239600, Note_on_c, 0, 59, 0
3, 239600, Note_on_c, 0, 56, 0
3, 239600, Note_on_c, 0, 51, 0
3, 239960, Note_on_c, 0, 51, 35
3, 239980, Note_on_c, 0, 58, 37
3, 240080, Note_on_c, 0, 58, 0
3, 240080, Note_on_c, 0, 51, 0
3, 240440, Note_on_c, 0, 51, 35
3, 240460, Note_on_c, 0, 59, 35
3, 240560, Note_on_c, 0, 59, 0
3, 240560, Note_on_c, 0, 51, 0
3, 240900, Note_on_c, 0, 63, 40
3, 240920, Note_on_c, 0, 66, 40
3, 240940, Note_on_c, 0, 70, 40
3, 241040, Note_on_c, 0, 70, 0
3, 241040, Note_on_c, 0, 66, 0
3, 241040, Note_on_c, 0, 63, 0
3, 241380, Note_on_c, 0, 63, 41
3, 241400, Note_on_c, 0, 68, 44
3, 241420, Note_on_c, 0, 71, 41
3, 241520, Note_on_c, 0, 71, 0
3, 241520, Note_on_c, 0, 68, 0
3, 241520, Note_on_c, 0, 63, 0
3, 241880, Note_on_c, 0, 63, 48
3, 241900, Note_on_c, 0, 70, 48
3, 242000, Note_on_c, 0, 70, 0
3, 242000, Note_on_c, 0, 63, 0
3, 242360, Note_on_c, 0, 63, 52
3, 242380, Note_on_c, 0, 71, 53
3, 242480, Note_on_c, 0, 71, 0
3, 242480, Note_on_c, 0, 63, 0
3, 242880, Note_on_c, 0, 63, 42
3, 242880, Note_on_c, 0, 66, 42
3, 242880, Note_on_c, 0, 70, 42
3, 242880, Note_on_c, 0, 75, 48
3, 242883, Control_c, 0, 64, 127
3, 243000, Note_on_c, 0, 75, 0
3, 243000, Note_on_c, 0, 63, 0
3, 243000, Note_on_c, 0, 66, 0
3, 243000, Note_on_c, 0, 70, 0
3, 243120, Note_on_c, 0, 51, 52
3, 243120, Note_on_c, 0, 63, 52
3, 243240, Note_on_c, 0, 63, 0
3, 243240, Note_on_c, 0, 51, 0
3, 243360, Note_on_c, 0, 63, 42
3, 243360, Note_on_c, 0, 68, 42
3, 243360, Note_on_c, 0, 71, 42
3, 243360, Note_on_c, 0, 75, 48
3, 243367, Control_c, 0, 64, 0
3, 243400, Control_c, 0, 64, 127
3, 243480, Note_on_c, 0, 75, 0
3, 243480, Note_on_c, 0, 63, 0
3, 243480, Note_on_c, 0, 68, 0
3, 243480, Note_on_c, 0, 71, 0
3, 243600, Note_on_c, 0, 44, 49
3, 243600, Note_on_c, 0, 56, 49
3, 243720, Note_on_c, 0, 56, 0
3, 243720, Note_on_c, 0, 44, 0
3, 243800, Control_c, 0, 64, 0
3, 243840, Note_on_c, 0, 63, 48
3, 243840, Note_on_c, 0, 51, 42
3, 243840, Note_on_c, 0, 54, 42
3, 243840, Note_on_c, 0, 58, 42
3, 243854, Control_c, 0, 64, 127
3, 243960, Note_on_c, 0, 58, 0
3, 243960, Note_on_c, 0, 63, 0
3, 243960, Note_on_c, 0, 51, 0
3, 243960, Note_on_c, 0, 54, 0
3, 244080, Note_on_c, 0, 39, 52
3, 244080, Note_on_c, 0, 51, 52
3, 244200, Note_on_c, 0, 51, 0
3, 244200, Note_on_c, 0, 39, 0
3, 244320, Note_on_c, 0, 51, 42
3, 244320, Note_on_c, 0, 56, 42
3, 244320, Note_on_c, 0, 59, 42
3, 244320, Note_on_c, 0, 63, 48
3, 244330, Control_c, 0, 64, 0
3, 244377, Control_c, 0, 64, 127
3, 244440, Note_on_c, 0, 63, 0
3, 244440, Note_on_c, 0, 51, 0
3, 244440, Note_on_c, 0, 56, 0
3, 244440, Note_on_c, 0, 59, 0
3, 244560, Note_on_c, 0, 32, 53
3, 244560, Note_on_c, 0, 44, 53
3, 244680, Note_on_c, 0, 44, 0
3, 244680, Note_on_c, 0, 32, 0
3, 244749, Control_c, 0, 64, 0
3, 244800, Note_on_c, 0, 46, 48
3, 244800, Note_on_c, 0, 51, 48
3, 244800, Note_on_c, 0, 54, 48
3, 244800, Note_on_c, 0, 58, 53
3, 244811, Control_c, 0, 64, 127
3, 244920, Note_on_c, 0, 58, 0
3, 244920, Note_on_c, 0, 46, 0
3, 244920, Note_on_c, 0, 51, 0
3, 244920, Note_on_c, 0, 54, 0
3, 245040, Note_on_c, 0, 27, 58
3, 245040, Note_on_c, 0, 39, 58
3, 245160, Note_on_c, 0, 39, 0
3, 245160, Note_on_c, 0, 27, 0
3, 245246, Control_c, 0, 64, 0
3, 245280, Note_on_c, 0, 47, 47
3, 245280, Note_on_c, 0, 51, 47
3, 245280, Note_on_c, 0, 54, 47
3, 245280, Note_on_c, 0, 59, 52
3, 245309, Control_c, 0, 64, 127
3, 245400, Note_on_c, 0, 59, 0
3, 245400, Note_on_c, 0, 47, 0
3, 245400, Note_on_c, 0, 51, 0
3, 245400, Note_on_c, 0, 54, 0
3, 245520, Note_on_c, 0, 27, 57
3, 245520, Note_on_c, 0, 39, 57
3, 245640, Note_on_c, 0, 39, 0
3, 245640, Note_on_c, 0, 27, 0
3, 245723, Control_c, 0, 64, 0
3, 245760, Note_on_c, 0, 60, 52
3, 245760, Note_on_c, 0, 57, 52
3, 245760, Note_on_c, 0, 54, 47
3, 245760, Note_on_c, 0, 51, 47
3, 245760, Note_on_c, 0, 48, 47
3, 245801, Control_c, 0, 64, 127
3, 246152, Control_c, 0, 64, 0
3, 246180, Note_on_c, 0, 46, 55
3, 246200, Note_on_c, 0, 53, 55
3, 246220, Note_on_c, 0, 58, 61
3, 246240, Note_on_c, 0, 48, 0
3, 246240, Note_on_c, 0, 51, 0
3, 246240, Note_on_c, 0, 60, 0
3, 246240, Note_on_c, 0, 54, 0
3, 246240, Note_on_c, 0, 57, 0
3, 246240, Note_on_c, 0, 62, 61
3, 246360, Note_on_c, 0, 62, 0
3, 246360, Note_on_c, 0, 46, 0
3, 246360, Note_on_c, 0, 53, 0
3, 246360, Note_on_c, 0, 58, 0
3, 246480, Note_on_c, 0, 34, 70
3, 246480, Note_on_c, 0, 46, 70
3, 246600, Note_on_c, 0, 46, 0
3, 246600, Note_on_c, 0, 34, 0
3, 246720, Note_on_c, 0, 27, 74
3, 246720, Note_on_c, 0, 39, 74
3, 246880, Note_on_c, 0, 39, 0
3, 246880, Note_on_c, 0, 27, 0
3, 247200, Note_on_c, 0, 35, 63
3, 247200, Note_on_c, 0, 39, 63
3, 247200, Note_on_c, 0, 42, 63
3, 247200, Note_on_c, 0, 47, 71
3, 247267, Control_c, 0, 64, 127
3, 247680, Note_on_c, 0, 47, 0
3, 247680, Note_on_c, 0, 35, 0
3, 247680, Note_on_c, 0, 39, 0
3, 247680, Note_on_c, 0, 42, 0
3, 247680, Note_on_c, 0, 42, 63
3, 247680, Note_on_c, 0, 46, 63
3, 247680, Note_on_c, 0, 49, 63
3, 247680, Note_on_c, 0, 54, 71
3, 247691, Control_c, 0, 64, 0
3, 247840, Control_c, 0, 64, 127
3, 248160, Note_on_c, 0, 54, 0
3, 248160, Note_on_c, 0, 42, 0
3, 248160, Note_on_c, 0, 46, 0
3, 248160, Note_on_c, 0, 49, 0
3, 248160, Note_on_c, 0, 44, 62
3, 248160, Note_on_c, 0, 47, 62
3, 248160, Note_on_c, 0, 51, 62
3, 248160, Note_on_c, 0, 56, 70
3, 248175, Control_c, 0, 64, 0
3, 248389, Control_c, 0, 64, 127
3, 248640, Note_on_c, 0, 56, 0
3, 248640, Note_on_c, 0, 44, 0
3, 248640, Note_on_c, 0, 47, 0
3, 248640, Note_on_c, 0, 51, 0
3, 248640, Note_on_c, 0, 51, 63
3, 248640, Note_on_c, 0, 54, 63
3, 248640, Note_on_c, 0, 58, 63
3, 248640, Note_on_c, 0, 63, 71
3, 248650, Control_c, 0, 64, 0
3, 248960, Control_c, 0, 64, 127
3, 249600, Note_on_c, 0, 63, 0
3, 249600, Note_on_c, 0, 27, 62
3, 249600, Note_on_c, 0, 39, 70
3, 249840, Note_on_c, 0, 39, 0
3, 249840, Note_on_c, 0, 27, 0
3, 250080, Note_on_c, 0, 54, 0
3, 250080, Note_on_c, 0, 51, 0
3, 250080, Note_on_c, 0, 46, 62
3, 250080, Note_on_c, 0, 51, 62
3, 250080, Note_on_c, 0, 54, 62
3, 250080, Note_on_c, 0, 58, 70
3, 250320, Note_on_c, 0, 58, 0
3, 250320, Note_on_c, 0, 51, 0
3, 250320, Note_on_c, 0, 54, 0
3, 250320, Note_on_c, 0, 46, 0
3, 250560, Note_on_c, 0, 58, 0
3, 250560, Note_on_c, 0, 78, 69
3, 250560, Note_on_c, 0, 75, 61
3, 250560, Note_on_c, 0, 70, 58
3, 250560, Note_on_c, 0, 66, 58
3, 251520, Note_on_c, 0, 66, 0
3, 251520, Note_on_c, 0, 78, 0
3, 251520, Note_on_c, 0, 75, 0
3, 251520, Note_on_c, 0, 70, 0
3, 252133, Control_c, 0, 64, 0
3, 252133, End_track
4, 0, Start_track
4, 0, Title_t, "Rhapsodie No. 4 in Es-Dur, Op. 119"
4, 0, End_track
5, 0, Start_track
5, 0, Title_t, "Produced 1997 by Bernd Krüger."
5, 0, End_track
6, 0, Start_track
6, 0, Title_t, "http://www.piano-midi.de"
6, 0, End_track
7, 0, Start_track
7, 0, Title_t, "Edition: 2010-11-04"
7, 0, End_track
0, 0, End_of_file
