0, 0, Header, 1, 17, 480
1, 0, Start_track
1, 0, Title_t, "Intermezzo Opus 117 Nr. 1"
1, 0, Copyright_t, "Copyright © 2010 by Bernd Krueger"
1, 0, Text_t, "Johannes Brahms"
1, 0, Text_t, "Andante moderato"
1, 0, Text_t, "Erstellt: 9.10.2010\012"
1, 0, Text_t, "Dauer: 4:39 Minuten\012"
1, 0, Time_signature, 6, 3, 12, 8
1, 0, Key_signature, -3, "major"
1, 0, Tempo, 845189
1, 1200, Tempo, 1379628
1, 1200, Marker_t, "Andante moderato"
1, 1440, Tempo, 1290600
1, 1680, Tempo, 1348618
1, 2880, Tempo, 1379628
1, 3360, Tempo, 1481847
1, 4080, Tempo, 1348618
1, 4200, Tempo, 1558846
1, 4320, Tempo, 1348618
1, 4800, Tempo, 1363946
1, 5520, Tempo, 1395673
1, 5760, Tempo, 1348618
1, 6000, Tempo, 1428912
1, 6120, Tempo, 1318971
1, 6240, Tempo, 1481847
1, 6480, Tempo, 1428912
1, 6840, Tempo, 1363946
1, 6960, Tempo, 1318971
1, 7080, Tempo, 1446132
1, 7200, Tempo, 1363946
1, 7680, Tempo, 1446132
1, 8280, Tempo, 1363946
1, 8640, Tempo, 1318971
1, 8880, Tempo, 1348618
1, 9120, Tempo, 1446132
1, 9600, Tempo, 1395673
1, 9840, Tempo, 1363946
1, 10560, Tempo, 1428912
1, 11280, Tempo, 1348618
1, 11400, Tempo, 1481847
1, 11520, Tempo, 1379628
1, 12000, Tempo, 1395673
1, 12120, Tempo, 1579363
1, 12240, Tempo, 1412097
1, 12480, Tempo, 1558846
1, 12720, Tempo, 1770434
1, 12840, Tempo, 2190581
1, 12960, Tempo, 1382807
1, 13200, Tempo, 1348618
1, 14400, Tempo, 1379628
1, 14880, Tempo, 1481847
1, 15600, Tempo, 1348618
1, 15720, Tempo, 1558846
1, 15840, Tempo, 1348618
1, 16320, Tempo, 1363946
1, 17040, Tempo, 1395673
1, 17280, Tempo, 1348618
1, 17520, Tempo, 1428912
1, 17640, Tempo, 1318971
1, 17760, Tempo, 1481847
1, 18000, Tempo, 1428912
1, 18360, Tempo, 1363946
1, 18480, Tempo, 1318971
1, 18600, Tempo, 1446132
1, 18720, Tempo, 1290600
1, 18960, Tempo, 1348618
1, 19200, Tempo, 1304631
1, 19920, Tempo, 1304631
1, 20160, Tempo, 1290600
1, 20400, Tempo, 1304631
1, 20520, Tempo, 1290600
1, 20880, Tempo, 1318971
1, 21120, Tempo, 1379628
1, 21360, Tempo, 1428912
1, 21480, Tempo, 1644286
1, 21600, Tempo, 1395673
1, 22080, Tempo, 1428912
1, 22800, Tempo, 1538856
1, 23040, Tempo, 1446132
1, 23280, Tempo, 1644286
1, 23400, Tempo, 1481847
1, 23520, Tempo, 1667130
1, 23760, Tempo, 1714776
1, 24240, Tempo, 1542813
1, 24360, Tempo, 1744693
1, 24480, Tempo, 1583531
1, 24960, Tempo, 1671775
1, 25680, Tempo, 1583531
1, 25800, Tempo, 1796945
1, 25920, Tempo, 1562907
1, 26400, Tempo, 1744693
1, 26640, Tempo, 1648805
1, 27120, Tempo, 1542813
1, 27240, Tempo, 1744693
1, 27360, Tempo, 1583531
1, 27840, Tempo, 1671775
1, 28560, Tempo, 1542813
1, 28680, Tempo, 1744693
1, 28800, Tempo, 1648805
1, 29280, Tempo, 1796945
1, 29520, Tempo, 1942376
1, 29760, Tempo, 2231313
1, 30000, Tempo, 4654771
1, 30240, Key_signature, -6, "major"
1, 30240, Tempo, 1974334
1, 30240, Marker_t, "Piu Adagio"
1, 30360, Tempo, 1796945
1, 30480, Tempo, 1744693
1, 30600, Tempo, 1744693
1, 30720, Tempo, 1648805
1, 30840, Tempo, 2076843
1, 30960, Tempo, 1744693
1, 31200, Tempo, 1626457
1, 31320, Tempo, 1744693
1, 31560, Tempo, 1796945
1, 31680, Tempo, 1770434
1, 31800, Tempo, 1671775
1, 31920, Tempo, 1695394
1, 32040, Tempo, 1648805
1, 32160, Tempo, 1796945
1, 32280, Tempo, 2076843
1, 32400, Tempo, 1770434
1, 32760, Tempo, 1648805
1, 33000, Tempo, 1796945
1, 33120, Tempo, 1796945
1, 33240, Tempo, 1796945
1, 33360, Tempo, 1744693
1, 33480, Tempo, 1744693
1, 33600, Tempo, 1648805
1, 33720, Tempo, 2076843
1, 33840, Tempo, 1744693
1, 34080, Tempo, 1626457
1, 34200, Tempo, 1744693
1, 34440, Tempo, 1796945
1, 34560, Tempo, 1824263
1, 34680, Tempo, 1796945
1, 34800, Tempo, 1744693
1, 34920, Tempo, 1744693
1, 35040, Tempo, 1648805
1, 35160, Tempo, 2076843
1, 35280, Tempo, 1744693
1, 35520, Tempo, 1626457
1, 35640, Tempo, 1744693
1, 35880, Tempo, 1796945
1, 36000, Tempo, 1796945
1, 36120, Tempo, 1796945
1, 36240, Tempo, 1744693
1, 36360, Tempo, 1744693
1, 36480, Tempo, 1648805
1, 36600, Tempo, 2076843
1, 36720, Tempo, 1744693
1, 36960, Tempo, 1626457
1, 37080, Tempo, 1744693
1, 37320, Tempo, 1796945
1, 37680, Tempo, 1695394
1, 38040, Tempo, 1881468
1, 38160, Tempo, 1695394
1, 38760, Tempo, 1852424
1, 38880, Tempo, 1796945
1, 39000, Tempo, 1796945
1, 39120, Tempo, 1744693
1, 39240, Tempo, 1744693
1, 39360, Tempo, 1648805
1, 39480, Tempo, 2076843
1, 39600, Tempo, 1744693
1, 39840, Tempo, 1626457
1, 39960, Tempo, 1744693
1, 40200, Tempo, 1911437
1, 40320, Tempo, 1770434
1, 40560, Tempo, 1695394
1, 40920, Tempo, 2151309
1, 41040, Tempo, 1881468
1, 41280, Tempo, 2007360
1, 41520, Tempo, 2231313
1, 41760, Tempo, 1974334
1, 41880, Tempo, 1796945
1, 42000, Tempo, 1744693
1, 42120, Tempo, 1744693
1, 42240, Tempo, 1648805
1, 42360, Tempo, 2076843
1, 42480, Tempo, 1744693
1, 42720, Tempo, 1626457
1, 42840, Tempo, 1744693
1, 43080, Tempo, 1796945
1, 43200, Tempo, 1770434
1, 43320, Tempo, 1671775
1, 43440, Tempo, 1695394
1, 43560, Tempo, 1648805
1, 43680, Tempo, 1796945
1, 43800, Tempo, 2076843
1, 43920, Tempo, 1770434
1, 44280, Tempo, 1648805
1, 44520, Tempo, 1796945
1, 44640, Tempo, 1796945
1, 44760, Tempo, 1796945
1, 44880, Tempo, 1744693
1, 45000, Tempo, 1744693
1, 45120, Tempo, 1648805
1, 45240, Tempo, 2076843
1, 45360, Tempo, 1744693
1, 45600, Tempo, 1626457
1, 45720, Tempo, 1744693
1, 45960, Tempo, 1796945
1, 46080, Tempo, 1824263
1, 46200, Tempo, 1796945
1, 46320, Tempo, 1744693
1, 46440, Tempo, 1744693
1, 46560, Tempo, 1648805
1, 46680, Tempo, 2076843
1, 46800, Tempo, 1744693
1, 47040, Tempo, 1626457
1, 47160, Tempo, 1744693
1, 47400, Tempo, 1796945
1, 47520, Tempo, 1796945
1, 47640, Tempo, 1796945
1, 47760, Tempo, 1744693
1, 47880, Tempo, 1744693
1, 48000, Tempo, 1648805
1, 48120, Tempo, 2076843
1, 48240, Tempo, 1744693
1, 48480, Tempo, 1626457
1, 48600, Tempo, 1744693
1, 48840, Tempo, 1796945
1, 49200, Tempo, 1695394
1, 49560, Tempo, 1881468
1, 49680, Tempo, 1695394
1, 50280, Tempo, 1852424
1, 50400, Tempo, 1796945
1, 50520, Tempo, 1796945
1, 50640, Tempo, 1744693
1, 50760, Tempo, 1744693
1, 50880, Tempo, 1648805
1, 51000, Tempo, 2076843
1, 51120, Tempo, 1744693
1, 51360, Tempo, 1626457
1, 51480, Tempo, 1744693
1, 51720, Tempo, 1796945
1, 51840, Tempo, 1796945
1, 54720, Key_signature, -3, "major"
1, 54720, Tempo, 1449626
1, 54720, Marker_t, "Un poco piu Andante"
1, 54960, Tempo, 1348618
1, 56160, Tempo, 1379628
1, 56640, Tempo, 1481847
1, 57360, Tempo, 1348618
1, 57480, Tempo, 1558846
1, 57600, Tempo, 1348618
1, 58080, Tempo, 1363946
1, 58800, Tempo, 1395673
1, 59040, Tempo, 1348618
1, 59280, Tempo, 1428912
1, 59400, Tempo, 1318971
1, 59520, Tempo, 1481847
1, 59760, Tempo, 1428912
1, 60120, Tempo, 1363946
1, 60240, Tempo, 1318971
1, 60360, Tempo, 1446132
1, 60480, Tempo, 1363946
1, 60960, Tempo, 1446132
1, 61560, Tempo, 1363946
1, 61920, Tempo, 1318971
1, 62160, Tempo, 1348618
1, 62400, Tempo, 1446132
1, 62880, Tempo, 1395673
1, 63120, Tempo, 1363946
1, 63840, Tempo, 1428912
1, 64440, Tempo, 1523229
1, 64560, Tempo, 1398927
1, 64680, Tempo, 1583531
1, 64800, Tempo, 1379628
1, 65280, Tempo, 1395673
1, 65400, Tempo, 1579363
1, 65520, Tempo, 1412097
1, 65760, Tempo, 1558846
1, 66000, Tempo, 1824263
1, 66120, Tempo, 2231313
1, 66240, Tempo, 1398927
1, 66480, Tempo, 1348618
1, 67680, Tempo, 1379628
1, 68160, Tempo, 1481847
1, 68880, Tempo, 1348618
1, 69000, Tempo, 1558846
1, 69120, Tempo, 1348618
1, 69600, Tempo, 1363946
1, 70320, Tempo, 1395673
1, 70560, Tempo, 1348618
1, 70800, Tempo, 1428912
1, 70920, Tempo, 1318971
1, 71040, Tempo, 1481847
1, 71280, Tempo, 1428912
1, 71640, Tempo, 1363946
1, 71760, Tempo, 1318971
1, 71880, Tempo, 1446132
1, 72000, Tempo, 1290600
1, 72240, Tempo, 1348618
1, 72480, Tempo, 1304631
1, 73200, Tempo, 1304631
1, 73440, Tempo, 1290600
1, 73680, Tempo, 1304631
1, 73800, Tempo, 1290600
1, 74160, Tempo, 1318971
1, 74400, Tempo, 1379628
1, 74640, Tempo, 1428912
1, 74760, Tempo, 1644286
1, 74880, Tempo, 1395673
1, 75360, Tempo, 1428912
1, 76080, Tempo, 1538856
1, 76320, Tempo, 1446132
1, 76560, Tempo, 1739635
1, 76680, Tempo, 1500375
1, 76800, Tempo, 1667130
1, 77040, Tempo, 1714776
1, 77520, Tempo, 1905367
1, 78240, Tempo, 2034588
1, 78960, Tempo, 2143623
1, 79680, Tempo, 2308580
1, 80400, Tempo, 2554278
1, 80400, End_track
2, 0, Start_track
2, 0, Title_t, "Piano right"
2, 0, Program_c, 0, 0
2, 1200, Note_on_c, 0, 70, 36
2, 1440, Note_on_c, 0, 70, 0
2, 1440, Note_on_c, 0, 63, 23
2, 1440, Note_on_c, 0, 75, 40
2, 1680, Note_on_c, 0, 74, 36
2, 1920, Note_on_c, 0, 74, 0
2, 1920, Note_on_c, 0, 75, 0
2, 1920, Note_on_c, 0, 63, 0
2, 1920, Note_on_c, 0, 63, 23
2, 1920, Note_on_c, 0, 75, 23
2, 1920, Note_on_c, 0, 72, 33
2, 2160, Note_on_c, 0, 72, 0
2, 2160, Note_on_c, 0, 75, 0
2, 2160, Note_on_c, 0, 63, 0
2, 2160, Note_on_c, 0, 63, 25
2, 2160, Note_on_c, 0, 75, 25
2, 2160, Note_on_c, 0, 70, 37
2, 2640, Note_on_c, 0, 70, 0
2, 2640, Note_on_c, 0, 75, 0
2, 2640, Note_on_c, 0, 63, 0
2, 2640, Note_on_c, 0, 63, 23
2, 2640, Note_on_c, 0, 75, 23
2, 2640, Note_on_c, 0, 68, 33
2, 2760, Note_on_c, 0, 68, 0
2, 2760, Note_on_c, 0, 67, 31
2, 2880, Note_on_c, 0, 67, 0
2, 2880, Note_on_c, 0, 75, 0
2, 2880, Note_on_c, 0, 63, 0
2, 2880, Note_on_c, 0, 75, 28
2, 2880, Note_on_c, 0, 65, 36
2, 3120, Note_on_c, 0, 65, 0
2, 3120, Note_on_c, 0, 63, 32
2, 3360, Note_on_c, 0, 63, 0
2, 3360, Note_on_c, 0, 75, 0
2, 3360, Note_on_c, 0, 75, 24
2, 3360, Note_on_c, 0, 67, 36
2, 3600, Note_on_c, 0, 67, 0
2, 3600, Note_on_c, 0, 75, 0
2, 3600, Note_on_c, 0, 63, 22
2, 3600, Note_on_c, 0, 75, 22
2, 3600, Note_on_c, 0, 70, 32
2, 4080, Note_on_c, 0, 70, 0
2, 4080, Note_on_c, 0, 75, 0
2, 4080, Note_on_c, 0, 63, 0
2, 4080, Note_on_c, 0, 63, 23
2, 4080, Note_on_c, 0, 75, 23
2, 4080, Note_on_c, 0, 72, 33
2, 4200, Note_on_c, 0, 72, 0
2, 4200, Note_on_c, 0, 74, 31
2, 4320, Note_on_c, 0, 74, 0
2, 4320, Note_on_c, 0, 75, 0
2, 4320, Note_on_c, 0, 63, 0
2, 4320, Note_on_c, 0, 63, 23
2, 4320, Note_on_c, 0, 75, 40
2, 4560, Note_on_c, 0, 74, 36
2, 4800, Note_on_c, 0, 74, 0
2, 4800, Note_on_c, 0, 75, 0
2, 4800, Note_on_c, 0, 63, 0
2, 4800, Note_on_c, 0, 63, 23
2, 4800, Note_on_c, 0, 75, 23
2, 4800, Note_on_c, 0, 72, 33
2, 5040, Note_on_c, 0, 72, 0
2, 5040, Note_on_c, 0, 75, 0
2, 5040, Note_on_c, 0, 63, 0
2, 5040, Note_on_c, 0, 63, 25
2, 5040, Note_on_c, 0, 75, 25
2, 5040, Note_on_c, 0, 70, 37
2, 5520, Note_on_c, 0, 70, 0
2, 5520, Note_on_c, 0, 75, 0
2, 5520, Note_on_c, 0, 63, 0
2, 5520, Note_on_c, 0, 63, 23
2, 5520, Note_on_c, 0, 75, 23
2, 5520, Note_on_c, 0, 68, 33
2, 5640, Note_on_c, 0, 68, 0
2, 5640, Note_on_c, 0, 67, 31
2, 5760, Note_on_c, 0, 67, 0
2, 5760, Note_on_c, 0, 75, 0
2, 5760, Note_on_c, 0, 63, 0
2, 5760, Note_on_c, 0, 75, 28
2, 5760, Note_on_c, 0, 70, 36
2, 6000, Note_on_c, 0, 70, 0
2, 6000, Note_on_c, 0, 63, 32
2, 6180, Note_on_c, 0, 67, 25
2, 6240, Note_on_c, 0, 67, 0
2, 6240, Note_on_c, 0, 63, 0
2, 6240, Note_on_c, 0, 75, 0
2, 6240, Note_on_c, 0, 74, 21
2, 6240, Note_on_c, 0, 65, 32
2, 6480, Note_on_c, 0, 65, 0
2, 6480, Note_on_c, 0, 74, 0
2, 6480, Note_on_c, 0, 63, 20
2, 6480, Note_on_c, 0, 75, 20
2, 6840, Note_on_c, 0, 63, 0
2, 6840, Note_on_c, 0, 67, 20
2, 6960, Note_on_c, 0, 67, 0
2, 6960, Note_on_c, 0, 75, 0
2, 6960, Note_on_c, 0, 70, 23
2, 7080, Note_on_c, 0, 70, 0
2, 7080, Note_on_c, 0, 79, 23
2, 7200, Note_on_c, 0, 79, 0
2, 7200, Note_on_c, 0, 80, 26
2, 7200, Note_on_c, 0, 68, 23
2, 7200, Note_on_c, 0, 77, 40
2, 7440, Note_on_c, 0, 77, 0
2, 7440, Note_on_c, 0, 72, 30
2, 7680, Note_on_c, 0, 72, 0
2, 7680, Note_on_c, 0, 68, 0
2, 7680, Note_on_c, 0, 80, 0
2, 7680, Note_on_c, 0, 74, 33
2, 7680, Note_on_c, 0, 65, 23
2, 7680, Note_on_c, 0, 77, 23
2, 7920, Note_on_c, 0, 77, 0
2, 7920, Note_on_c, 0, 65, 0
2, 7920, Note_on_c, 0, 74, 0
2, 7920, Note_on_c, 0, 67, 25
2, 7920, Note_on_c, 0, 79, 25
2, 7920, Note_on_c, 0, 70, 37
2, 8280, Note_on_c, 0, 75, 23
2, 8400, Note_on_c, 0, 75, 0
2, 8400, Note_on_c, 0, 67, 0
2, 8400, Note_on_c, 0, 79, 0
2, 8400, Note_on_c, 0, 70, 0
2, 8400, Note_on_c, 0, 70, 23
2, 8400, Note_on_c, 0, 82, 26
2, 8400, Note_on_c, 0, 79, 34
2, 8520, Note_on_c, 0, 79, 0
2, 8520, Note_on_c, 0, 75, 35
2, 8640, Note_on_c, 0, 75, 0
2, 8640, Note_on_c, 0, 82, 0
2, 8640, Note_on_c, 0, 70, 0
2, 8640, Note_on_c, 0, 80, 26
2, 8640, Note_on_c, 0, 68, 23
2, 8640, Note_on_c, 0, 77, 40
2, 8880, Note_on_c, 0, 77, 0
2, 8880, Note_on_c, 0, 72, 33
2, 9120, Note_on_c, 0, 72, 0
2, 9120, Note_on_c, 0, 68, 0
2, 9120, Note_on_c, 0, 80, 0
2, 9120, Note_on_c, 0, 74, 33
2, 9120, Note_on_c, 0, 65, 23
2, 9120, Note_on_c, 0, 77, 23
2, 9360, Note_on_c, 0, 77, 0
2, 9360, Note_on_c, 0, 65, 0
2, 9360, Note_on_c, 0, 74, 0
2, 9360, Note_on_c, 0, 67, 23
2, 9360, Note_on_c, 0, 79, 23
2, 9360, Note_on_c, 0, 75, 40
2, 9600, Note_on_c, 0, 75, 0
2, 9600, Note_on_c, 0, 70, 36
2, 9840, Note_on_c, 0, 70, 0
2, 9840, Note_on_c, 0, 79, 0
2, 9840, Note_on_c, 0, 67, 0
2, 9840, Note_on_c, 0, 75, 28
2, 9840, Note_on_c, 0, 72, 40
2, 9840, Note_on_c, 0, 67, 28
2, 10080, Note_on_c, 0, 67, 0
2, 10080, Note_on_c, 0, 72, 0
2, 10080, Note_on_c, 0, 75, 0
2, 10080, Note_on_c, 0, 77, 37
2, 10080, Note_on_c, 0, 74, 43
2, 10080, Note_on_c, 0, 65, 37
2, 10560, Note_on_c, 0, 65, 0
2, 10560, Note_on_c, 0, 74, 0
2, 10560, Note_on_c, 0, 77, 0
2, 10560, Note_on_c, 0, 82, 53
2, 10560, Note_on_c, 0, 74, 45
2, 10560, Note_on_c, 0, 70, 45
2, 11040, Note_on_c, 0, 70, 0
2, 11040, Note_on_c, 0, 74, 0
2, 11040, Note_on_c, 0, 82, 0
2, 11040, Note_on_c, 0, 74, 50
2, 11040, Note_on_c, 0, 70, 43
2, 11280, Note_on_c, 0, 70, 0
2, 11280, Note_on_c, 0, 74, 0
2, 11280, Note_on_c, 0, 70, 42
2, 11280, Note_on_c, 0, 77, 42
2, 11280, Note_on_c, 0, 81, 50
2, 11520, Note_on_c, 0, 81, 0
2, 11520, Note_on_c, 0, 77, 0
2, 11520, Note_on_c, 0, 70, 0
2, 11520, Note_on_c, 0, 70, 41
2, 11520, Note_on_c, 0, 75, 41
2, 11520, Note_on_c, 0, 79, 51
2, 11760, Note_on_c, 0, 79, 0
2, 11760, Note_on_c, 0, 75, 0
2, 11760, Note_on_c, 0, 70, 0
2, 11760, Note_on_c, 0, 77, 43
2, 11760, Note_on_c, 0, 74, 36
2, 11760, Note_on_c, 0, 69, 36
2, 12000, Note_on_c, 0, 69, 0
2, 12000, Note_on_c, 0, 74, 0
2, 12000, Note_on_c, 0, 77, 0
2, 12000, Note_on_c, 0, 75, 35
2, 12000, Note_on_c, 0, 72, 28
2, 12000, Note_on_c, 0, 67, 28
2, 12120, Note_on_c, 0, 67, 0
2, 12120, Note_on_c, 0, 72, 0
2, 12120, Note_on_c, 0, 75, 0
2, 12120, Note_on_c, 0, 65, 25
2, 12120, Note_on_c, 0, 70, 25
2, 12120, Note_on_c, 0, 74, 30
2, 12195, Note_on_c, 0, 74, 0
2, 12195, Note_on_c, 0, 70, 0
2, 12195, Note_on_c, 0, 65, 0
2, 12195, Note_on_c, 0, 63, 20
2, 12210, Note_on_c, 0, 68, 24
2, 12225, Note_on_c, 0, 72, 26
2, 12240, Note_on_c, 0, 77, 34
2, 12480, Note_on_c, 0, 77, 0
2, 12480, Note_on_c, 0, 72, 0
2, 12480, Note_on_c, 0, 63, 0
2, 12480, Note_on_c, 0, 70, 33
2, 12480, Note_on_c, 0, 62, 28
2, 12720, Note_on_c, 0, 62, 0
2, 12720, Note_on_c, 0, 70, 0
2, 12720, Note_on_c, 0, 68, 0
2, 12720, Note_on_c, 0, 72, 30
2, 12720, Note_on_c, 0, 63, 25
2, 12720, Note_on_c, 0, 60, 25
2, 12840, Note_on_c, 0, 60, 0
2, 12840, Note_on_c, 0, 63, 0
2, 12840, Note_on_c, 0, 72, 0
2, 12840, Note_on_c, 0, 70, 30
2, 12840, Note_on_c, 0, 65, 25
2, 12840, Note_on_c, 0, 62, 25
2, 12960, Note_on_c, 0, 62, 0
2, 12960, Note_on_c, 0, 65, 0
2, 12960, Note_on_c, 0, 70, 0
2, 12960, Note_on_c, 0, 63, 23
2, 12960, Note_on_c, 0, 75, 40
2, 13200, Note_on_c, 0, 74, 34
2, 13440, Note_on_c, 0, 74, 0
2, 13440, Note_on_c, 0, 75, 0
2, 13440, Note_on_c, 0, 63, 0
2, 13440, Note_on_c, 0, 63, 23
2, 13440, Note_on_c, 0, 75, 23
2, 13440, Note_on_c, 0, 72, 33
2, 13680, Note_on_c, 0, 72, 0
2, 13680, Note_on_c, 0, 75, 0
2, 13680, Note_on_c, 0, 63, 0
2, 13680, Note_on_c, 0, 63, 25
2, 13680, Note_on_c, 0, 75, 25
2, 13680, Note_on_c, 0, 70, 37
2, 14160, Note_on_c, 0, 70, 0
2, 14160, Note_on_c, 0, 75, 0
2, 14160, Note_on_c, 0, 63, 0
2, 14160, Note_on_c, 0, 63, 23
2, 14160, Note_on_c, 0, 75, 23
2, 14160, Note_on_c, 0, 68, 33
2, 14280, Note_on_c, 0, 68, 0
2, 14280, Note_on_c, 0, 67, 31
2, 14400, Note_on_c, 0, 67, 0
2, 14400, Note_on_c, 0, 75, 0
2, 14400, Note_on_c, 0, 63, 0
2, 14400, Note_on_c, 0, 75, 28
2, 14400, Note_on_c, 0, 65, 36
2, 14640, Note_on_c, 0, 65, 0
2, 14640, Note_on_c, 0, 63, 32
2, 14880, Note_on_c, 0, 63, 0
2, 14880, Note_on_c, 0, 75, 0
2, 14880, Note_on_c, 0, 75, 24
2, 14880, Note_on_c, 0, 67, 36
2, 15120, Note_on_c, 0, 67, 0
2, 15120, Note_on_c, 0, 75, 0
2, 15120, Note_on_c, 0, 63, 22
2, 15120, Note_on_c, 0, 75, 22
2, 15120, Note_on_c, 0, 70, 32
2, 15600, Note_on_c, 0, 70, 0
2, 15600, Note_on_c, 0, 75, 0
2, 15600, Note_on_c, 0, 63, 0
2, 15600, Note_on_c, 0, 63, 23
2, 15600, Note_on_c, 0, 75, 23
2, 15600, Note_on_c, 0, 72, 33
2, 15720, Note_on_c, 0, 72, 0
2, 15720, Note_on_c, 0, 74, 31
2, 15840, Note_on_c, 0, 74, 0
2, 15840, Note_on_c, 0, 75, 0
2, 15840, Note_on_c, 0, 63, 0
2, 15840, Note_on_c, 0, 63, 23
2, 15840, Note_on_c, 0, 75, 40
2, 16080, Note_on_c, 0, 74, 33
2, 16320, Note_on_c, 0, 74, 0
2, 16320, Note_on_c, 0, 75, 0
2, 16320, Note_on_c, 0, 63, 0
2, 16320, Note_on_c, 0, 63, 23
2, 16320, Note_on_c, 0, 75, 23
2, 16320, Note_on_c, 0, 72, 33
2, 16560, Note_on_c, 0, 72, 0
2, 16560, Note_on_c, 0, 75, 0
2, 16560, Note_on_c, 0, 63, 0
2, 16560, Note_on_c, 0, 63, 25
2, 16560, Note_on_c, 0, 75, 25
2, 16560, Note_on_c, 0, 70, 37
2, 17040, Note_on_c, 0, 70, 0
2, 17040, Note_on_c, 0, 75, 0
2, 17040, Note_on_c, 0, 63, 0
2, 17040, Note_on_c, 0, 63, 23
2, 17040, Note_on_c, 0, 75, 23
2, 17040, Note_on_c, 0, 69, 33
2, 17160, Note_on_c, 0, 69, 0
2, 17160, Note_on_c, 0, 67, 31
2, 17280, Note_on_c, 0, 67, 0
2, 17280, Note_on_c, 0, 75, 0
2, 17280, Note_on_c, 0, 63, 0
2, 17280, Note_on_c, 0, 65, 23
2, 17280, Note_on_c, 0, 75, 28
2, 17280, Note_on_c, 0, 69, 36
2, 17520, Note_on_c, 0, 69, 0
2, 17520, Note_on_c, 0, 70, 32
2, 17760, Note_on_c, 0, 70, 0
2, 17760, Note_on_c, 0, 75, 0
2, 17760, Note_on_c, 0, 65, 0
2, 17760, Note_on_c, 0, 65, 19
2, 17760, Note_on_c, 0, 75, 24
2, 17760, Note_on_c, 0, 72, 36
2, 18000, Note_on_c, 0, 72, 0
2, 18000, Note_on_c, 0, 75, 0
2, 18000, Note_on_c, 0, 65, 0
2, 18000, Note_on_c, 0, 75, 42
2, 18000, Note_on_c, 0, 70, 26
2, 18000, Note_on_c, 0, 65, 26
2, 18000, Note_on_c, 0, 77, 26
2, 18360, Note_on_c, 0, 65, 0
2, 18360, Note_on_c, 0, 75, 0
2, 18360, Note_on_c, 0, 70, 0
2, 18360, Note_on_c, 0, 74, 35
2, 18480, Note_on_c, 0, 74, 0
2, 18480, Note_on_c, 0, 77, 0
2, 18480, Note_on_c, 0, 82, 38
2, 18480, Note_on_c, 0, 72, 29
2, 18600, Note_on_c, 0, 72, 0
2, 18600, Note_on_c, 0, 70, 23
2, 18720, Note_on_c, 0, 70, 0
2, 18720, Note_on_c, 0, 82, 0
2, 18720, Note_on_c, 0, 75, 23
2, 18720, Note_on_c, 0, 87, 40
2, 18960, Note_on_c, 0, 86, 36
2, 19200, Note_on_c, 0, 86, 0
2, 19200, Note_on_c, 0, 87, 0
2, 19200, Note_on_c, 0, 75, 0
2, 19200, Note_on_c, 0, 75, 23
2, 19200, Note_on_c, 0, 87, 23
2, 19200, Note_on_c, 0, 84, 33
2, 19440, Note_on_c, 0, 84, 0
2, 19440, Note_on_c, 0, 75, 0
2, 19440, Note_on_c, 0, 74, 34
2, 19440, Note_on_c, 0, 82, 40
2, 19680, Note_on_c, 0, 82, 0
2, 19680, Note_on_c, 0, 74, 0
2, 19680, Note_on_c, 0, 87, 0
2, 19680, Note_on_c, 0, 75, 23
2, 19680, Note_on_c, 0, 72, 30
2, 19680, Note_on_c, 0, 80, 36
2, 19920, Note_on_c, 0, 80, 0
2, 19920, Note_on_c, 0, 72, 0
2, 19920, Note_on_c, 0, 70, 26
2, 19920, Note_on_c, 0, 79, 31
2, 20160, Note_on_c, 0, 79, 0
2, 20160, Note_on_c, 0, 70, 0
2, 20160, Note_on_c, 0, 75, 0
2, 20160, Note_on_c, 0, 68, 24
2, 20160, Note_on_c, 0, 75, 24
2, 20160, Note_on_c, 0, 77, 33
2, 20400, Note_on_c, 0, 77, 0
2, 20400, Note_on_c, 0, 75, 0
2, 20400, Note_on_c, 0, 68, 0
2, 20400, Note_on_c, 0, 67, 24
2, 20400, Note_on_c, 0, 75, 29
2, 20520, Note_on_c, 0, 67, 0
2, 20520, Note_on_c, 0, 65, 20
2, 20640, Note_on_c, 0, 65, 0
2, 20640, Note_on_c, 0, 75, 0
2, 20640, Note_on_c, 0, 63, 19
2, 20640, Note_on_c, 0, 72, 27
2, 20760, Note_on_c, 0, 63, 0
2, 20760, Note_on_c, 0, 67, 22
2, 20880, Note_on_c, 0, 67, 0
2, 20880, Note_on_c, 0, 72, 0
2, 20907, Note_on_c, 0, 70, 32
2, 21360, Note_on_c, 0, 63, 23
2, 21360, Note_on_c, 0, 72, 33
2, 21387, Note_on_c, 0, 70, 0
2, 21480, Note_on_c, 0, 72, 0
2, 21480, Note_on_c, 0, 74, 31
2, 21600, Note_on_c, 0, 74, 0
2, 21600, Note_on_c, 0, 63, 0
2, 21600, Note_on_c, 0, 63, 23
2, 21600, Note_on_c, 0, 75, 40
2, 21840, Note_on_c, 0, 74, 35
2, 22080, Note_on_c, 0, 74, 0
2, 22080, Note_on_c, 0, 75, 0
2, 22080, Note_on_c, 0, 63, 0
2, 22080, Note_on_c, 0, 63, 23
2, 22080, Note_on_c, 0, 75, 23
2, 22080, Note_on_c, 0, 72, 33
2, 22320, Note_on_c, 0, 72, 0
2, 22320, Note_on_c, 0, 75, 0
2, 22320, Note_on_c, 0, 63, 0
2, 22320, Note_on_c, 0, 70, 37
2, 22560, Note_on_c, 0, 63, 23
2, 22560, Note_on_c, 0, 75, 23
2, 22800, Note_on_c, 0, 70, 0
2, 22800, Note_on_c, 0, 68, 33
2, 22920, Note_on_c, 0, 68, 0
2, 22920, Note_on_c, 0, 67, 31
2, 23040, Note_on_c, 0, 67, 0
2, 23040, Note_on_c, 0, 75, 0
2, 23040, Note_on_c, 0, 63, 0
2, 23040, Note_on_c, 0, 75, 28
2, 23040, Note_on_c, 0, 70, 36
2, 23280, Note_on_c, 0, 70, 0
2, 23280, Note_on_c, 0, 63, 32
2, 23460, Note_on_c, 0, 67, 25
2, 23520, Note_on_c, 0, 67, 0
2, 23520, Note_on_c, 0, 63, 0
2, 23520, Note_on_c, 0, 75, 0
2, 23520, Note_on_c, 0, 74, 21
2, 23520, Note_on_c, 0, 65, 32
2, 23760, Note_on_c, 0, 65, 0
2, 23760, Note_on_c, 0, 74, 0
2, 23760, Note_on_c, 0, 63, 20
2, 23760, Note_on_c, 0, 75, 20
2, 24240, Note_on_c, 0, 75, 0
2, 24240, Note_on_c, 0, 63, 0
2, 24240, Note_on_c, 0, 76, 33
2, 24240, Note_on_c, 0, 64, 28
2, 24360, Note_on_c, 0, 64, 0
2, 24360, Note_on_c, 0, 76, 0
2, 24360, Note_on_c, 0, 78, 36
2, 24360, Note_on_c, 0, 66, 30
2, 24480, Note_on_c, 0, 66, 0
2, 24480, Note_on_c, 0, 78, 0
2, 24480, Note_on_c, 0, 68, 34
2, 24480, Note_on_c, 0, 80, 40
2, 24720, Note_on_c, 0, 80, 0
2, 24720, Note_on_c, 0, 68, 0
2, 24720, Note_on_c, 0, 78, 35
2, 24720, Note_on_c, 0, 66, 29
2, 24960, Note_on_c, 0, 66, 0
2, 24960, Note_on_c, 0, 78, 0
2, 24960, Note_on_c, 0, 76, 25
2, 24960, Note_on_c, 0, 64, 21
2, 25200, Note_on_c, 0, 64, 0
2, 25200, Note_on_c, 0, 76, 0
2, 25200, Note_on_c, 0, 75, 25
2, 25200, Note_on_c, 0, 63, 21
2, 25680, Note_on_c, 0, 63, 0
2, 25680, Note_on_c, 0, 75, 0
2, 25680, Note_on_c, 0, 63, 27
2, 25680, Note_on_c, 0, 61, 22
2, 25680, Note_on_c, 0, 51, 22
2, 25920, Note_on_c, 0, 51, 0
2, 25920, Note_on_c, 0, 61, 0
2, 25920, Note_on_c, 0, 63, 0
2, 25920, Note_on_c, 0, 51, 27
2, 25920, Note_on_c, 0, 59, 27
2, 25920, Note_on_c, 0, 63, 32
2, 26400, Note_on_c, 0, 63, 0
2, 26400, Note_on_c, 0, 59, 0
2, 26400, Note_on_c, 0, 51, 0
2, 26400, Note_on_c, 0, 63, 23
2, 26400, Note_on_c, 0, 56, 19
2, 26400, Note_on_c, 0, 51, 19
2, 26640, Note_on_c, 0, 51, 0
2, 26640, Note_on_c, 0, 56, 0
2, 26640, Note_on_c, 0, 63, 0
2, 26640, Note_on_c, 0, 63, 23
2, 26640, Note_on_c, 0, 51, 19
2, 27120, Note_on_c, 0, 51, 0
2, 27120, Note_on_c, 0, 63, 0
2, 27120, Note_on_c, 0, 76, 33
2, 27120, Note_on_c, 0, 64, 28
2, 27240, Note_on_c, 0, 64, 0
2, 27240, Note_on_c, 0, 76, 0
2, 27240, Note_on_c, 0, 78, 36
2, 27240, Note_on_c, 0, 66, 30
2, 27360, Note_on_c, 0, 66, 0
2, 27360, Note_on_c, 0, 78, 0
2, 27360, Note_on_c, 0, 68, 34
2, 27360, Note_on_c, 0, 80, 40
2, 27600, Note_on_c, 0, 80, 0
2, 27600, Note_on_c, 0, 68, 0
2, 27600, Note_on_c, 0, 66, 33
2, 27600, Note_on_c, 0, 78, 33
2, 27840, Note_on_c, 0, 78, 0
2, 27840, Note_on_c, 0, 66, 0
2, 27840, Note_on_c, 0, 76, 25
2, 27840, Note_on_c, 0, 64, 21
2, 28080, Note_on_c, 0, 64, 0
2, 28080, Note_on_c, 0, 76, 0
2, 28080, Note_on_c, 0, 75, 25
2, 28080, Note_on_c, 0, 63, 21
2, 28560, Note_on_c, 0, 63, 0
2, 28560, Note_on_c, 0, 75, 0
2, 28560, Note_on_c, 0, 76, 33
2, 28560, Note_on_c, 0, 64, 28
2, 28680, Note_on_c, 0, 64, 0
2, 28680, Note_on_c, 0, 76, 0
2, 28680, Note_on_c, 0, 75, 30
2, 28680, Note_on_c, 0, 78, 36
2, 28680, Note_on_c, 0, 66, 30
2, 28800, Note_on_c, 0, 66, 0
2, 28800, Note_on_c, 0, 78, 0
2, 28800, Note_on_c, 0, 75, 0
2, 28800, Note_on_c, 0, 76, 34
2, 28800, Note_on_c, 0, 68, 34
2, 28800, Note_on_c, 0, 80, 40
2, 29040, Note_on_c, 0, 80, 0
2, 29040, Note_on_c, 0, 68, 0
2, 29040, Note_on_c, 0, 76, 0
2, 29040, Note_on_c, 0, 75, 29
2, 29040, Note_on_c, 0, 78, 35
2, 29040, Note_on_c, 0, 66, 29
2, 29280, Note_on_c, 0, 66, 0
2, 29280, Note_on_c, 0, 78, 0
2, 29280, Note_on_c, 0, 75, 0
2, 29280, Note_on_c, 0, 73, 21
2, 29280, Note_on_c, 0, 76, 25
2, 29280, Note_on_c, 0, 64, 21
2, 29520, Note_on_c, 0, 64, 0
2, 29520, Note_on_c, 0, 76, 0
2, 29520, Note_on_c, 0, 73, 0
2, 29520, Note_on_c, 0, 75, 21
2, 29520, Note_on_c, 0, 63, 17
2, 29520, Note_on_c, 0, 71, 17
2, 29760, Note_on_c, 0, 71, 0
2, 29760, Note_on_c, 0, 63, 0
2, 29760, Note_on_c, 0, 75, 0
2, 29760, Note_on_c, 0, 70, 15
2, 29760, Note_on_c, 0, 73, 18
2, 29760, Note_on_c, 0, 61, 15
2, 30000, Note_on_c, 0, 61, 0
2, 30000, Note_on_c, 0, 73, 0
2, 30000, Note_on_c, 0, 70, 0
2, 30000, Note_on_c, 0, 59, 13
2, 30000, Note_on_c, 0, 71, 16
2, 30000, Note_on_c, 0, 68, 13
2, 30240, Note_on_c, 0, 68, 0
2, 30240, Note_on_c, 0, 71, 0
2, 30240, Note_on_c, 0, 59, 0
2, 30480, Note_on_c, 0, 66, 23
2, 30480, Note_on_c, 0, 70, 27
2, 30720, Note_on_c, 0, 70, 0
2, 30720, Note_on_c, 0, 58, 17
2, 30840, Note_on_c, 0, 58, 0
2, 30960, Note_on_c, 0, 66, 0
2, 30960, Note_on_c, 0, 68, 26
2, 30960, Note_on_c, 0, 71, 31
2, 31200, Note_on_c, 0, 71, 0
2, 31200, Note_on_c, 0, 59, 18
2, 31320, Note_on_c, 0, 59, 0
2, 31440, Note_on_c, 0, 68, 0
2, 31440, Note_on_c, 0, 65, 23
2, 31440, Note_on_c, 0, 68, 28
2, 31680, Note_on_c, 0, 68, 0
2, 31680, Note_on_c, 0, 65, 0
2, 31680, Note_on_c, 0, 56, 16
2, 31800, Note_on_c, 0, 56, 0
2, 31920, Note_on_c, 0, 77, 23
2, 31920, Note_on_c, 0, 80, 27
2, 32160, Note_on_c, 0, 77, 0
2, 32160, Note_on_c, 0, 68, 17
2, 32280, Note_on_c, 0, 68, 0
2, 32400, Note_on_c, 0, 80, 0
2, 32400, Note_on_c, 0, 78, 26
2, 32400, Note_on_c, 0, 82, 31
2, 32640, Note_on_c, 0, 78, 0
2, 32640, Note_on_c, 0, 70, 18
2, 32760, Note_on_c, 0, 70, 0
2, 32880, Note_on_c, 0, 82, 0
2, 32880, Note_on_c, 0, 75, 23
2, 32880, Note_on_c, 0, 78, 28
2, 33120, Note_on_c, 0, 78, 0
2, 33120, Note_on_c, 0, 75, 0
2, 33120, Note_on_c, 0, 66, 18
2, 33240, Note_on_c, 0, 66, 0
2, 33360, Note_on_c, 0, 63, 21
2, 33360, Note_on_c, 0, 66, 26
2, 33600, Note_on_c, 0, 66, 0
2, 33600, Note_on_c, 0, 54, 15
2, 33720, Note_on_c, 0, 54, 0
2, 33840, Note_on_c, 0, 63, 0
2, 33840, Note_on_c, 0, 59, 21
2, 33840, Note_on_c, 0, 63, 21
2, 33840, Note_on_c, 0, 65, 26
2, 34080, Note_on_c, 0, 65, 0
2, 34080, Note_on_c, 0, 63, 0
2, 34080, Note_on_c, 0, 53, 16
2, 34200, Note_on_c, 0, 53, 0
2, 34320, Note_on_c, 0, 59, 0
2, 34320, Note_on_c, 0, 59, 21
2, 34320, Note_on_c, 0, 63, 21
2, 34320, Note_on_c, 0, 65, 26
2, 34560, Note_on_c, 0, 65, 0
2, 34560, Note_on_c, 0, 63, 0
2, 34560, Note_on_c, 0, 59, 0
2, 34800, Note_on_c, 0, 70, 24
2, 34800, Note_on_c, 0, 73, 24
2, 34800, Note_on_c, 0, 77, 29
2, 35040, Note_on_c, 0, 73, 0
2, 35040, Note_on_c, 0, 70, 0
2, 35040, Note_on_c, 0, 65, 17
2, 35160, Note_on_c, 0, 65, 0
2, 35280, Note_on_c, 0, 77, 0
2, 35280, Note_on_c, 0, 70, 24
2, 35280, Note_on_c, 0, 73, 24
2, 35280, Note_on_c, 0, 75, 29
2, 35520, Note_on_c, 0, 73, 0
2, 35520, Note_on_c, 0, 70, 0
2, 35520, Note_on_c, 0, 63, 18
2, 35640, Note_on_c, 0, 63, 0
2, 35760, Note_on_c, 0, 75, 0
2, 35760, Note_on_c, 0, 70, 24
2, 35760, Note_on_c, 0, 73, 24
2, 35760, Note_on_c, 0, 75, 29
2, 36000, Note_on_c, 0, 75, 0
2, 36000, Note_on_c, 0, 73, 0
2, 36000, Note_on_c, 0, 70, 0
2, 36240, Note_on_c, 0, 58, 20
2, 36240, Note_on_c, 0, 60, 20
2, 36240, Note_on_c, 0, 64, 25
2, 36480, Note_on_c, 0, 60, 0
2, 36480, Note_on_c, 0, 58, 0
2, 36480, Note_on_c, 0, 52, 15
2, 36720, Note_on_c, 0, 52, 0
2, 36720, Note_on_c, 0, 64, 0
2, 36720, Note_on_c, 0, 58, 24
2, 36720, Note_on_c, 0, 60, 24
2, 36720, Note_on_c, 0, 65, 29
2, 36960, Note_on_c, 0, 60, 0
2, 36960, Note_on_c, 0, 58, 0
2, 36960, Note_on_c, 0, 53, 16
2, 37200, Note_on_c, 0, 53, 0
2, 37200, Note_on_c, 0, 65, 0
2, 37200, Note_on_c, 0, 58, 20
2, 37200, Note_on_c, 0, 60, 25
2, 37440, Note_on_c, 0, 60, 0
2, 37440, Note_on_c, 0, 58, 0
2, 37440, Note_on_c, 0, 65, 21
2, 37440, Note_on_c, 0, 69, 21
2, 37440, Note_on_c, 0, 77, 25
2, 37440, Note_on_c, 0, 75, 21
2, 37680, Note_on_c, 0, 73, 21
2, 37920, Note_on_c, 0, 73, 0
2, 37920, Note_on_c, 0, 72, 21
2, 38160, Note_on_c, 0, 72, 0
2, 38160, Note_on_c, 0, 75, 0
2, 38160, Note_on_c, 0, 65, 0
2, 38160, Note_on_c, 0, 69, 0
2, 38160, Note_on_c, 0, 77, 0
2, 38160, Note_on_c, 0, 75, 21
2, 38160, Note_on_c, 0, 65, 21
2, 38160, Note_on_c, 0, 70, 21
2, 38160, Note_on_c, 0, 77, 25
2, 38640, Note_on_c, 0, 75, 0
2, 38640, Note_on_c, 0, 73, 19
2, 38880, Note_on_c, 0, 73, 0
2, 38880, Note_on_c, 0, 77, 0
2, 38880, Note_on_c, 0, 70, 0
2, 38880, Note_on_c, 0, 65, 0
2, 39120, Note_on_c, 0, 58, 31
2, 39120, Note_on_c, 0, 60, 31
2, 39120, Note_on_c, 0, 64, 40
2, 39360, Note_on_c, 0, 60, 0
2, 39360, Note_on_c, 0, 58, 0
2, 39360, Note_on_c, 0, 52, 23
2, 39600, Note_on_c, 0, 52, 0
2, 39600, Note_on_c, 0, 64, 0
2, 39600, Note_on_c, 0, 58, 36
2, 39600, Note_on_c, 0, 63, 36
2, 39600, Note_on_c, 0, 66, 46
2, 39840, Note_on_c, 0, 58, 0
2, 39840, Note_on_c, 0, 54, 24
2, 40080, Note_on_c, 0, 54, 0
2, 40080, Note_on_c, 0, 66, 0
2, 40080, Note_on_c, 0, 63, 0
2, 40080, Note_on_c, 0, 54, 31
2, 40080, Note_on_c, 0, 51, 31
2, 40080, Note_on_c, 0, 60, 40
2, 40320, Note_on_c, 0, 60, 0
2, 40320, Note_on_c, 0, 51, 0
2, 40320, Note_on_c, 0, 54, 0
2, 40320, Note_on_c, 0, 65, 21
2, 40320, Note_on_c, 0, 69, 21
2, 40320, Note_on_c, 0, 77, 25
2, 40320, Note_on_c, 0, 75, 21
2, 40560, Note_on_c, 0, 73, 21
2, 40800, Note_on_c, 0, 73, 0
2, 40800, Note_on_c, 0, 72, 21
2, 41040, Note_on_c, 0, 72, 0
2, 41040, Note_on_c, 0, 75, 0
2, 41040, Note_on_c, 0, 65, 0
2, 41040, Note_on_c, 0, 69, 0
2, 41040, Note_on_c, 0, 77, 0
2, 41040, Note_on_c, 0, 68, 18
2, 41040, Note_on_c, 0, 70, 18
2, 41040, Note_on_c, 0, 80, 22
2, 41040, Note_on_c, 0, 74, 18
2, 41280, Note_on_c, 0, 80, 0
2, 41280, Note_on_c, 0, 68, 0
2, 41280, Note_on_c, 0, 66, 14
2, 41280, Note_on_c, 0, 78, 17
2, 41520, Note_on_c, 0, 78, 0
2, 41520, Note_on_c, 0, 66, 0
2, 41520, Note_on_c, 0, 65, 13
2, 41520, Note_on_c, 0, 77, 16
2, 41760, Note_on_c, 0, 77, 0
2, 41760, Note_on_c, 0, 74, 0
2, 41760, Note_on_c, 0, 70, 0
2, 41760, Note_on_c, 0, 65, 0
2, 42000, Note_on_c, 0, 66, 26
2, 42000, Note_on_c, 0, 70, 31
2, 42240, Note_on_c, 0, 70, 0
2, 42240, Note_on_c, 0, 58, 19
2, 42360, Note_on_c, 0, 58, 0
2, 42480, Note_on_c, 0, 66, 0
2, 42480, Note_on_c, 0, 68, 29
2, 42480, Note_on_c, 0, 71, 35
2, 42720, Note_on_c, 0, 71, 0
2, 42720, Note_on_c, 0, 59, 20
2, 42840, Note_on_c, 0, 59, 0
2, 42960, Note_on_c, 0, 68, 0
2, 42960, Note_on_c, 0, 64, 26
2, 42960, Note_on_c, 0, 68, 32
2, 43200, Note_on_c, 0, 68, 0
2, 43200, Note_on_c, 0, 64, 0
2, 43200, Note_on_c, 0, 56, 18
2, 43320, Note_on_c, 0, 56, 0
2, 43440, Note_on_c, 0, 70, 26
2, 43440, Note_on_c, 0, 73, 26
2, 43440, Note_on_c, 0, 76, 26
2, 43440, Note_on_c, 0, 80, 31
2, 43680, Note_on_c, 0, 70, 0
2, 43680, Note_on_c, 0, 68, 19
2, 43800, Note_on_c, 0, 68, 0
2, 43920, Note_on_c, 0, 80, 0
2, 43920, Note_on_c, 0, 76, 0
2, 43920, Note_on_c, 0, 73, 0
2, 43920, Note_on_c, 0, 73, 29
2, 43920, Note_on_c, 0, 79, 29
2, 43920, Note_on_c, 0, 82, 35
2, 44160, Note_on_c, 0, 73, 0
2, 44160, Note_on_c, 0, 70, 20
2, 44280, Note_on_c, 0, 70, 0
2, 44400, Note_on_c, 0, 82, 0
2, 44400, Note_on_c, 0, 79, 0
2, 44400, Note_on_c, 0, 61, 26
2, 44400, Note_on_c, 0, 70, 26
2, 44400, Note_on_c, 0, 73, 32
2, 44640, Note_on_c, 0, 73, 0
2, 44640, Note_on_c, 0, 70, 0
2, 44640, Note_on_c, 0, 61, 0
2, 44880, Note_on_c, 0, 60, 24
2, 44880, Note_on_c, 0, 63, 24
2, 44880, Note_on_c, 0, 66, 29
2, 45120, Note_on_c, 0, 60, 0
2, 45120, Note_on_c, 0, 54, 17
2, 45240, Note_on_c, 0, 54, 0
2, 45360, Note_on_c, 0, 66, 0
2, 45360, Note_on_c, 0, 63, 0
2, 45360, Note_on_c, 0, 59, 24
2, 45360, Note_on_c, 0, 63, 24
2, 45360, Note_on_c, 0, 66, 29
2, 45600, Note_on_c, 0, 59, 0
2, 45600, Note_on_c, 0, 54, 18
2, 45720, Note_on_c, 0, 54, 0
2, 45840, Note_on_c, 0, 66, 0
2, 45840, Note_on_c, 0, 63, 0
2, 45840, Note_on_c, 0, 59, 24
2, 45840, Note_on_c, 0, 63, 24
2, 45840, Note_on_c, 0, 64, 29
2, 46080, Note_on_c, 0, 64, 0
2, 46080, Note_on_c, 0, 63, 0
2, 46080, Note_on_c, 0, 59, 0
2, 46320, Note_on_c, 0, 76, 27
2, 46320, Note_on_c, 0, 70, 27
2, 46320, Note_on_c, 0, 73, 27
2, 46320, Note_on_c, 0, 80, 33
2, 46560, Note_on_c, 0, 70, 0
2, 46560, Note_on_c, 0, 68, 19
2, 46680, Note_on_c, 0, 68, 0
2, 46800, Note_on_c, 0, 80, 0
2, 46800, Note_on_c, 0, 73, 0
2, 46800, Note_on_c, 0, 76, 0
2, 46800, Note_on_c, 0, 70, 27
2, 46800, Note_on_c, 0, 73, 27
2, 46800, Note_on_c, 0, 76, 33
2, 47040, Note_on_c, 0, 70, 0
2, 47040, Note_on_c, 0, 64, 20
2, 47160, Note_on_c, 0, 64, 0
2, 47280, Note_on_c, 0, 76, 0
2, 47280, Note_on_c, 0, 73, 0
2, 47280, Note_on_c, 0, 70, 27
2, 47280, Note_on_c, 0, 73, 27
2, 47280, Note_on_c, 0, 75, 33
2, 47520, Note_on_c, 0, 75, 0
2, 47520, Note_on_c, 0, 73, 0
2, 47520, Note_on_c, 0, 70, 0
2, 47760, Note_on_c, 0, 59, 23
2, 47760, Note_on_c, 0, 62, 28
2, 48000, Note_on_c, 0, 59, 0
2, 48000, Note_on_c, 0, 53, 17
2, 48240, Note_on_c, 0, 53, 0
2, 48240, Note_on_c, 0, 62, 0
2, 48240, Note_on_c, 0, 58, 27
2, 48240, Note_on_c, 0, 63, 33
2, 48480, Note_on_c, 0, 58, 0
2, 48480, Note_on_c, 0, 51, 18
2, 48720, Note_on_c, 0, 51, 0
2, 48720, Note_on_c, 0, 63, 0
2, 48720, Note_on_c, 0, 54, 23
2, 48720, Note_on_c, 0, 58, 28
2, 48960, Note_on_c, 0, 58, 0
2, 48960, Note_on_c, 0, 54, 0
2, 48960, Note_on_c, 0, 58, 21
2, 48960, Note_on_c, 0, 62, 21
2, 48960, Note_on_c, 0, 70, 25
2, 48960, Note_on_c, 0, 68, 21
2, 49200, Note_on_c, 0, 66, 21
2, 49440, Note_on_c, 0, 66, 0
2, 49440, Note_on_c, 0, 65, 21
2, 49680, Note_on_c, 0, 65, 0
2, 49680, Note_on_c, 0, 68, 0
2, 49680, Note_on_c, 0, 58, 0
2, 49680, Note_on_c, 0, 62, 0
2, 49680, Note_on_c, 0, 70, 0
2, 49680, Note_on_c, 0, 68, 21
2, 49680, Note_on_c, 0, 58, 21
2, 49680, Note_on_c, 0, 63, 21
2, 49680, Note_on_c, 0, 70, 25
2, 50160, Note_on_c, 0, 68, 0
2, 50160, Note_on_c, 0, 66, 19
2, 50400, Note_on_c, 0, 66, 0
2, 50400, Note_on_c, 0, 70, 0
2, 50400, Note_on_c, 0, 63, 0
2, 50400, Note_on_c, 0, 58, 0
2, 50640, Note_on_c, 0, 68, 27
2, 50640, Note_on_c, 0, 71, 27
2, 50640, Note_on_c, 0, 76, 34
2, 50880, Note_on_c, 0, 68, 0
2, 50880, Note_on_c, 0, 64, 19
2, 51120, Note_on_c, 0, 64, 0
2, 51120, Note_on_c, 0, 76, 0
2, 51120, Note_on_c, 0, 71, 0
2, 51120, Note_on_c, 0, 66, 29
2, 51120, Note_on_c, 0, 70, 29
2, 51120, Note_on_c, 0, 75, 36
2, 51360, Note_on_c, 0, 66, 0
2, 51360, Note_on_c, 0, 63, 19
2, 51600, Note_on_c, 0, 63, 0
2, 51600, Note_on_c, 0, 75, 0
2, 51600, Note_on_c, 0, 70, 0
2, 51600, Note_on_c, 0, 66, 23
2, 51600, Note_on_c, 0, 70, 30
2, 51840, Note_on_c, 0, 70, 0
2, 51840, Note_on_c, 0, 66, 0
2, 51840, Note_on_c, 0, 50, 21
2, 51840, Note_on_c, 0, 58, 25
2, 51840, Note_on_c, 0, 56, 21
2, 52560, Note_on_c, 0, 56, 0
2, 52560, Note_on_c, 0, 58, 0
2, 52560, Note_on_c, 0, 50, 0
2, 52560, Note_on_c, 0, 50, 21
2, 52560, Note_on_c, 0, 56, 21
2, 52560, Note_on_c, 0, 58, 25
2, 53280, Note_on_c, 0, 58, 0
2, 53280, Note_on_c, 0, 56, 0
2, 53280, Note_on_c, 0, 50, 0
2, 53280, Note_on_c, 0, 61, 17
2, 53280, Note_on_c, 0, 51, 21
2, 53280, Note_on_c, 0, 55, 21
2, 53280, Note_on_c, 0, 63, 25
2, 53760, Note_on_c, 0, 61, 0
2, 53760, Note_on_c, 0, 59, 16
2, 54000, Note_on_c, 0, 51, 0
2, 54000, Note_on_c, 0, 63, 0
2, 54000, Note_on_c, 0, 55, 0
2, 54000, Note_on_c, 0, 63, 23
2, 54000, Note_on_c, 0, 55, 19
2, 54000, Note_on_c, 0, 51, 19
2, 54240, Note_on_c, 0, 59, 0
2, 54240, Note_on_c, 0, 58, 15
2, 54390, Note_on_c, 0, 58, 0
2, 54720, Note_on_c, 0, 51, 0
2, 54720, Note_on_c, 0, 55, 0
2, 54720, Note_on_c, 0, 63, 0
2, 54720, Note_on_c, 0, 67, 22
2, 54720, Note_on_c, 0, 63, 22
2, 54720, Note_on_c, 0, 75, 39
2, 54960, Note_on_c, 0, 62, 23
2, 54960, Note_on_c, 0, 74, 34
2, 55200, Note_on_c, 0, 74, 0
2, 55200, Note_on_c, 0, 75, 0
2, 55200, Note_on_c, 0, 67, 0
2, 55200, Note_on_c, 0, 63, 0
2, 55200, Note_on_c, 0, 62, 0
2, 55200, Note_on_c, 0, 87, 27
2, 55200, Note_on_c, 0, 79, 27
2, 55200, Note_on_c, 0, 60, 22
2, 55200, Note_on_c, 0, 63, 22
2, 55200, Note_on_c, 0, 75, 22
2, 55200, Note_on_c, 0, 72, 31
2, 55440, Note_on_c, 0, 72, 0
2, 55440, Note_on_c, 0, 79, 0
2, 55440, Note_on_c, 0, 60, 0
2, 55440, Note_on_c, 0, 87, 0
2, 55440, Note_on_c, 0, 75, 0
2, 55440, Note_on_c, 0, 63, 0
2, 55440, Note_on_c, 0, 87, 29
2, 55440, Note_on_c, 0, 79, 29
2, 55440, Note_on_c, 0, 58, 23
2, 55440, Note_on_c, 0, 63, 23
2, 55440, Note_on_c, 0, 75, 23
2, 55440, Note_on_c, 0, 70, 35
2, 55920, Note_on_c, 0, 70, 0
2, 55920, Note_on_c, 0, 79, 0
2, 55920, Note_on_c, 0, 58, 0
2, 55920, Note_on_c, 0, 87, 0
2, 55920, Note_on_c, 0, 75, 0
2, 55920, Note_on_c, 0, 63, 0
2, 55920, Note_on_c, 0, 56, 23
2, 55920, Note_on_c, 0, 63, 23
2, 55920, Note_on_c, 0, 68, 33
2, 56040, Note_on_c, 0, 68, 0
2, 56040, Note_on_c, 0, 63, 0
2, 56040, Note_on_c, 0, 56, 0
2, 56040, Note_on_c, 0, 55, 21
2, 56040, Note_on_c, 0, 67, 31
2, 56160, Note_on_c, 0, 67, 0
2, 56160, Note_on_c, 0, 55, 0
2, 56160, Note_on_c, 0, 55, 28
2, 56160, Note_on_c, 0, 65, 36
2, 56400, Note_on_c, 0, 65, 0
2, 56400, Note_on_c, 0, 63, 32
2, 56640, Note_on_c, 0, 63, 0
2, 56640, Note_on_c, 0, 55, 0
2, 56640, Note_on_c, 0, 87, 34
2, 56640, Note_on_c, 0, 79, 34
2, 56640, Note_on_c, 0, 55, 27
2, 56640, Note_on_c, 0, 63, 27
2, 56640, Note_on_c, 0, 75, 27
2, 56640, Note_on_c, 0, 67, 41
2, 56880, Note_on_c, 0, 67, 0
2, 56880, Note_on_c, 0, 79, 0
2, 56880, Note_on_c, 0, 55, 0
2, 56880, Note_on_c, 0, 87, 0
2, 56880, Note_on_c, 0, 75, 0
2, 56880, Note_on_c, 0, 63, 0
2, 56880, Note_on_c, 0, 87, 31
2, 56880, Note_on_c, 0, 79, 31
2, 56880, Note_on_c, 0, 58, 25
2, 56880, Note_on_c, 0, 63, 25
2, 56880, Note_on_c, 0, 75, 25
2, 56880, Note_on_c, 0, 70, 36
2, 57360, Note_on_c, 0, 70, 0
2, 57360, Note_on_c, 0, 79, 0
2, 57360, Note_on_c, 0, 58, 0
2, 57360, Note_on_c, 0, 87, 0
2, 57360, Note_on_c, 0, 75, 0
2, 57360, Note_on_c, 0, 63, 0
2, 57360, Note_on_c, 0, 60, 35
2, 57360, Note_on_c, 0, 72, 40
2, 57480, Note_on_c, 0, 72, 0
2, 57480, Note_on_c, 0, 60, 0
2, 57480, Note_on_c, 0, 62, 33
2, 57480, Note_on_c, 0, 74, 38
2, 57600, Note_on_c, 0, 74, 0
2, 57600, Note_on_c, 0, 62, 0
2, 57600, Note_on_c, 0, 70, 28
2, 57600, Note_on_c, 0, 63, 28
2, 57600, Note_on_c, 0, 75, 50
2, 57840, Note_on_c, 0, 75, 0
2, 57840, Note_on_c, 0, 63, 0
2, 57840, Note_on_c, 0, 70, 0
2, 57840, Note_on_c, 0, 62, 27
2, 57840, Note_on_c, 0, 74, 35
2, 58080, Note_on_c, 0, 74, 0
2, 58080, Note_on_c, 0, 62, 0
2, 58080, Note_on_c, 0, 87, 32
2, 58080, Note_on_c, 0, 79, 32
2, 58080, Note_on_c, 0, 60, 26
2, 58080, Note_on_c, 0, 63, 26
2, 58080, Note_on_c, 0, 75, 26
2, 58080, Note_on_c, 0, 72, 37
2, 58320, Note_on_c, 0, 72, 0
2, 58320, Note_on_c, 0, 79, 0
2, 58320, Note_on_c, 0, 60, 0
2, 58320, Note_on_c, 0, 87, 0
2, 58320, Note_on_c, 0, 75, 0
2, 58320, Note_on_c, 0, 63, 0
2, 58320, Note_on_c, 0, 87, 35
2, 58320, Note_on_c, 0, 79, 35
2, 58320, Note_on_c, 0, 58, 28
2, 58320, Note_on_c, 0, 63, 28
2, 58320, Note_on_c, 0, 75, 28
2, 58320, Note_on_c, 0, 70, 42
2, 58800, Note_on_c, 0, 70, 0
2, 58800, Note_on_c, 0, 79, 0
2, 58800, Note_on_c, 0, 58, 0
2, 58800, Note_on_c, 0, 87, 0
2, 58800, Note_on_c, 0, 75, 0
2, 58800, Note_on_c, 0, 63, 0
2, 58800, Note_on_c, 0, 56, 26
2, 58800, Note_on_c, 0, 63, 26
2, 58800, Note_on_c, 0, 68, 37
2, 58920, Note_on_c, 0, 68, 0
2, 58920, Note_on_c, 0, 63, 0
2, 58920, Note_on_c, 0, 56, 0
2, 58920, Note_on_c, 0, 55, 24
2, 58920, Note_on_c, 0, 67, 35
2, 59040, Note_on_c, 0, 67, 0
2, 59040, Note_on_c, 0, 55, 0
2, 59040, Note_on_c, 0, 58, 32
2, 59040, Note_on_c, 0, 70, 41
2, 59280, Note_on_c, 0, 70, 0
2, 59280, Note_on_c, 0, 63, 36
2, 59460, Note_on_c, 0, 67, 28
2, 59520, Note_on_c, 0, 67, 0
2, 59520, Note_on_c, 0, 63, 0
2, 59520, Note_on_c, 0, 58, 0
2, 59520, Note_on_c, 0, 56, 24
2, 59520, Note_on_c, 0, 62, 24
2, 59520, Note_on_c, 0, 65, 36
2, 59760, Note_on_c, 0, 65, 0
2, 59760, Note_on_c, 0, 62, 0
2, 59760, Note_on_c, 0, 56, 0
2, 59760, Note_on_c, 0, 63, 23
2, 59760, Note_on_c, 0, 55, 23
2, 60120, Note_on_c, 0, 63, 0
2, 60120, Note_on_c, 0, 67, 23
2, 60240, Note_on_c, 0, 67, 0
2, 60240, Note_on_c, 0, 55, 0
2, 60240, Note_on_c, 0, 67, 23
2, 60240, Note_on_c, 0, 70, 26
2, 60360, Note_on_c, 0, 70, 0
2, 60360, Note_on_c, 0, 79, 26
2, 60480, Note_on_c, 0, 79, 0
2, 60480, Note_on_c, 0, 67, 0
2, 60480, Note_on_c, 0, 80, 29
2, 60480, Note_on_c, 0, 68, 26
2, 60480, Note_on_c, 0, 77, 46
2, 60720, Note_on_c, 0, 77, 0
2, 60720, Note_on_c, 0, 72, 37
2, 60960, Note_on_c, 0, 72, 0
2, 60960, Note_on_c, 0, 68, 0
2, 60960, Note_on_c, 0, 80, 0
2, 60960, Note_on_c, 0, 74, 37
2, 60960, Note_on_c, 0, 65, 26
2, 60960, Note_on_c, 0, 77, 26
2, 61200, Note_on_c, 0, 77, 0
2, 61200, Note_on_c, 0, 65, 0
2, 61200, Note_on_c, 0, 74, 0
2, 61200, Note_on_c, 0, 67, 28
2, 61200, Note_on_c, 0, 79, 28
2, 61200, Note_on_c, 0, 70, 42
2, 61560, Note_on_c, 0, 75, 26
2, 61680, Note_on_c, 0, 75, 0
2, 61680, Note_on_c, 0, 67, 0
2, 61680, Note_on_c, 0, 79, 0
2, 61680, Note_on_c, 0, 70, 0
2, 61680, Note_on_c, 0, 70, 26
2, 61680, Note_on_c, 0, 82, 29
2, 61680, Note_on_c, 0, 79, 39
2, 61800, Note_on_c, 0, 79, 0
2, 61800, Note_on_c, 0, 75, 37
2, 61920, Note_on_c, 0, 75, 0
2, 61920, Note_on_c, 0, 82, 0
2, 61920, Note_on_c, 0, 70, 0
2, 61920, Note_on_c, 0, 80, 29
2, 61920, Note_on_c, 0, 68, 26
2, 61920, Note_on_c, 0, 77, 46
2, 62040, Note_on_c, 0, 77, 0
2, 62040, Note_on_c, 0, 75, 37
2, 62160, Note_on_c, 0, 75, 0
2, 62160, Note_on_c, 0, 77, 41
2, 62280, Note_on_c, 0, 77, 0
2, 62280, Note_on_c, 0, 72, 34
2, 62400, Note_on_c, 0, 72, 0
2, 62400, Note_on_c, 0, 68, 0
2, 62400, Note_on_c, 0, 80, 0
2, 62400, Note_on_c, 0, 75, 37
2, 62400, Note_on_c, 0, 65, 26
2, 62400, Note_on_c, 0, 77, 26
2, 62520, Note_on_c, 0, 75, 0
2, 62520, Note_on_c, 0, 74, 33
2, 62640, Note_on_c, 0, 74, 0
2, 62640, Note_on_c, 0, 77, 0
2, 62640, Note_on_c, 0, 65, 0
2, 62640, Note_on_c, 0, 67, 26
2, 62640, Note_on_c, 0, 79, 26
2, 62640, Note_on_c, 0, 75, 46
2, 62760, Note_on_c, 0, 75, 0
2, 62760, Note_on_c, 0, 74, 41
2, 62880, Note_on_c, 0, 74, 0
2, 62880, Note_on_c, 0, 75, 41
2, 63000, Note_on_c, 0, 75, 0
2, 63000, Note_on_c, 0, 70, 36
2, 63120, Note_on_c, 0, 70, 0
2, 63120, Note_on_c, 0, 79, 0
2, 63120, Note_on_c, 0, 67, 0
2, 63120, Note_on_c, 0, 75, 33
2, 63120, Note_on_c, 0, 72, 47
2, 63120, Note_on_c, 0, 67, 33
2, 63240, Note_on_c, 0, 72, 0
2, 63240, Note_on_c, 0, 70, 43
2, 63360, Note_on_c, 0, 70, 0
2, 63360, Note_on_c, 0, 67, 0
2, 63360, Note_on_c, 0, 75, 0
2, 63360, Note_on_c, 0, 77, 39
2, 63360, Note_on_c, 0, 74, 49
2, 63360, Note_on_c, 0, 65, 39
2, 63480, Note_on_c, 0, 74, 0
2, 63480, Note_on_c, 0, 72, 44
2, 63600, Note_on_c, 0, 72, 0
2, 63600, Note_on_c, 0, 74, 50
2, 63720, Note_on_c, 0, 74, 0
2, 63720, Note_on_c, 0, 70, 43
2, 63840, Note_on_c, 0, 70, 0
2, 63840, Note_on_c, 0, 65, 0
2, 63840, Note_on_c, 0, 77, 0
2, 63840, Note_on_c, 0, 75, 57
2, 63840, Note_on_c, 0, 72, 48
2, 63840, Note_on_c, 0, 63, 48
2, 63960, Note_on_c, 0, 72, 0
2, 63960, Note_on_c, 0, 70, 46
2, 64080, Note_on_c, 0, 70, 0
2, 64080, Note_on_c, 0, 63, 0
2, 64080, Note_on_c, 0, 75, 0
2, 64080, Note_on_c, 0, 65, 49
2, 64080, Note_on_c, 0, 74, 57
2, 64080, Note_on_c, 0, 77, 49
2, 64200, Note_on_c, 0, 74, 0
2, 64200, Note_on_c, 0, 72, 55
2, 64320, Note_on_c, 0, 72, 0
2, 64320, Note_on_c, 0, 74, 61
2, 64440, Note_on_c, 0, 74, 0
2, 64440, Note_on_c, 0, 70, 55
2, 64560, Note_on_c, 0, 70, 0
2, 64560, Note_on_c, 0, 77, 0
2, 64560, Note_on_c, 0, 65, 0
2, 64560, Note_on_c, 0, 81, 62
2, 64560, Note_on_c, 0, 77, 62
2, 64560, Note_on_c, 0, 69, 53
2, 64680, Note_on_c, 0, 69, 0
2, 64680, Note_on_c, 0, 70, 46
2, 64800, Note_on_c, 0, 70, 0
2, 64800, Note_on_c, 0, 77, 0
2, 64800, Note_on_c, 0, 81, 0
2, 64800, Note_on_c, 0, 75, 51
2, 64800, Note_on_c, 0, 70, 51
2, 64800, Note_on_c, 0, 79, 62
2, 64920, Note_on_c, 0, 70, 0
2, 64920, Note_on_c, 0, 67, 49
2, 65040, Note_on_c, 0, 67, 0
2, 65040, Note_on_c, 0, 79, 0
2, 65040, Note_on_c, 0, 75, 0
2, 65040, Note_on_c, 0, 77, 55
2, 65040, Note_on_c, 0, 69, 46
2, 65040, Note_on_c, 0, 74, 46
2, 65160, Note_on_c, 0, 69, 0
2, 65160, Note_on_c, 0, 67, 38
2, 65280, Note_on_c, 0, 67, 0
2, 65280, Note_on_c, 0, 74, 0
2, 65280, Note_on_c, 0, 77, 0
2, 65280, Note_on_c, 0, 72, 37
2, 65280, Note_on_c, 0, 67, 37
2, 65280, Note_on_c, 0, 75, 46
2, 65400, Note_on_c, 0, 75, 0
2, 65400, Note_on_c, 0, 67, 0
2, 65400, Note_on_c, 0, 72, 0
2, 65400, Note_on_c, 0, 70, 32
2, 65400, Note_on_c, 0, 65, 32
2, 65400, Note_on_c, 0, 74, 39
2, 65520, Note_on_c, 0, 74, 0
2, 65520, Note_on_c, 0, 65, 0
2, 65520, Note_on_c, 0, 70, 0
2, 65520, Note_on_c, 0, 68, 29
2, 65520, Note_on_c, 0, 63, 25
2, 65520, Note_on_c, 0, 72, 42
2, 65640, Note_on_c, 0, 63, 0
2, 65640, Note_on_c, 0, 60, 33
2, 65760, Note_on_c, 0, 60, 0
2, 65760, Note_on_c, 0, 72, 0
2, 65760, Note_on_c, 0, 67, 32
2, 65760, Note_on_c, 0, 62, 32
2, 65760, Note_on_c, 0, 70, 38
2, 65880, Note_on_c, 0, 62, 0
2, 65880, Note_on_c, 0, 58, 27
2, 66000, Note_on_c, 0, 58, 0
2, 66000, Note_on_c, 0, 70, 0
2, 66000, Note_on_c, 0, 67, 0
2, 66000, Note_on_c, 0, 68, 0
2, 66000, Note_on_c, 0, 70, 33
2, 66000, Note_on_c, 0, 63, 27
2, 66000, Note_on_c, 0, 68, 33
2, 66000, Note_on_c, 0, 60, 27
2, 66120, Note_on_c, 0, 60, 0
2, 66120, Note_on_c, 0, 68, 0
2, 66120, Note_on_c, 0, 63, 0
2, 66120, Note_on_c, 0, 62, 27
2, 66120, Note_on_c, 0, 65, 27
2, 66240, Note_on_c, 0, 65, 0
2, 66240, Note_on_c, 0, 62, 0
2, 66240, Note_on_c, 0, 70, 0
2, 66240, Note_on_c, 0, 63, 23
2, 66240, Note_on_c, 0, 75, 40
2, 66480, Note_on_c, 0, 74, 36
2, 66720, Note_on_c, 0, 74, 0
2, 66720, Note_on_c, 0, 75, 0
2, 66720, Note_on_c, 0, 63, 0
2, 66720, Note_on_c, 0, 63, 23
2, 66720, Note_on_c, 0, 75, 23
2, 66720, Note_on_c, 0, 72, 33
2, 66960, Note_on_c, 0, 72, 0
2, 66960, Note_on_c, 0, 75, 0
2, 66960, Note_on_c, 0, 63, 0
2, 66960, Note_on_c, 0, 63, 25
2, 66960, Note_on_c, 0, 75, 25
2, 66960, Note_on_c, 0, 70, 37
2, 67440, Note_on_c, 0, 70, 0
2, 67440, Note_on_c, 0, 75, 0
2, 67440, Note_on_c, 0, 63, 0
2, 67440, Note_on_c, 0, 63, 23
2, 67440, Note_on_c, 0, 75, 23
2, 67440, Note_on_c, 0, 68, 33
2, 67560, Note_on_c, 0, 68, 0
2, 67560, Note_on_c, 0, 67, 31
2, 67680, Note_on_c, 0, 67, 0
2, 67680, Note_on_c, 0, 75, 0
2, 67680, Note_on_c, 0, 63, 0
2, 67680, Note_on_c, 0, 75, 28
2, 67680, Note_on_c, 0, 65, 36
2, 67920, Note_on_c, 0, 65, 0
2, 67920, Note_on_c, 0, 63, 32
2, 68160, Note_on_c, 0, 63, 0
2, 68160, Note_on_c, 0, 75, 0
2, 68160, Note_on_c, 0, 75, 24
2, 68160, Note_on_c, 0, 67, 36
2, 68400, Note_on_c, 0, 67, 0
2, 68400, Note_on_c, 0, 75, 0
2, 68400, Note_on_c, 0, 63, 22
2, 68400, Note_on_c, 0, 75, 22
2, 68400, Note_on_c, 0, 70, 32
2, 68880, Note_on_c, 0, 70, 0
2, 68880, Note_on_c, 0, 75, 0
2, 68880, Note_on_c, 0, 63, 0
2, 68880, Note_on_c, 0, 63, 23
2, 68880, Note_on_c, 0, 75, 23
2, 68880, Note_on_c, 0, 72, 33
2, 69000, Note_on_c, 0, 72, 0
2, 69000, Note_on_c, 0, 74, 31
2, 69120, Note_on_c, 0, 74, 0
2, 69120, Note_on_c, 0, 75, 0
2, 69120, Note_on_c, 0, 63, 0
2, 69120, Note_on_c, 0, 63, 23
2, 69120, Note_on_c, 0, 75, 40
2, 69360, Note_on_c, 0, 74, 36
2, 69600, Note_on_c, 0, 74, 0
2, 69600, Note_on_c, 0, 75, 0
2, 69600, Note_on_c, 0, 63, 0
2, 69600, Note_on_c, 0, 63, 23
2, 69600, Note_on_c, 0, 75, 23
2, 69600, Note_on_c, 0, 72, 33
2, 69840, Note_on_c, 0, 72, 0
2, 69840, Note_on_c, 0, 75, 0
2, 69840, Note_on_c, 0, 63, 0
2, 69840, Note_on_c, 0, 63, 25
2, 69840, Note_on_c, 0, 75, 25
2, 69840, Note_on_c, 0, 70, 37
2, 70320, Note_on_c, 0, 70, 0
2, 70320, Note_on_c, 0, 75, 0
2, 70320, Note_on_c, 0, 63, 0
2, 70320, Note_on_c, 0, 63, 23
2, 70320, Note_on_c, 0, 75, 23
2, 70320, Note_on_c, 0, 69, 33
2, 70440, Note_on_c, 0, 69, 0
2, 70440, Note_on_c, 0, 67, 31
2, 70560, Note_on_c, 0, 67, 0
2, 70560, Note_on_c, 0, 75, 0
2, 70560, Note_on_c, 0, 63, 0
2, 70560, Note_on_c, 0, 63, 20
2, 70560, Note_on_c, 0, 75, 28
2, 70560, Note_on_c, 0, 69, 36
2, 70800, Note_on_c, 0, 69, 0
2, 70800, Note_on_c, 0, 70, 32
2, 71040, Note_on_c, 0, 70, 0
2, 71040, Note_on_c, 0, 75, 0
2, 71040, Note_on_c, 0, 63, 0
2, 71040, Note_on_c, 0, 62, 19
2, 71040, Note_on_c, 0, 74, 24
2, 71040, Note_on_c, 0, 72, 36
2, 71280, Note_on_c, 0, 72, 0
2, 71280, Note_on_c, 0, 74, 0
2, 71280, Note_on_c, 0, 62, 0
2, 71280, Note_on_c, 0, 70, 26
2, 71280, Note_on_c, 0, 62, 26
2, 71280, Note_on_c, 0, 74, 26
2, 71640, Note_on_c, 0, 62, 0
2, 71640, Note_on_c, 0, 70, 0
2, 71640, Note_on_c, 0, 74, 24
2, 71760, Note_on_c, 0, 74, 0
2, 71760, Note_on_c, 0, 74, 0
2, 71760, Note_on_c, 0, 82, 41
2, 71760, Note_on_c, 0, 72, 23
2, 71880, Note_on_c, 0, 72, 0
2, 71880, Note_on_c, 0, 70, 32
2, 72000, Note_on_c, 0, 70, 0
2, 72000, Note_on_c, 0, 82, 0
2, 72000, Note_on_c, 0, 75, 23
2, 72000, Note_on_c, 0, 87, 44
2, 72360, Note_on_c, 0, 87, 0
2, 72360, Note_on_c, 0, 86, 39
2, 72480, Note_on_c, 0, 86, 0
2, 72480, Note_on_c, 0, 75, 0
2, 72480, Note_on_c, 0, 87, 31
2, 72480, Note_on_c, 0, 75, 31
2, 72600, Note_on_c, 0, 87, 0
2, 72600, Note_on_c, 0, 84, 36
2, 72720, Note_on_c, 0, 84, 0
2, 72720, Note_on_c, 0, 87, 34
2, 72840, Note_on_c, 0, 87, 0
2, 72840, Note_on_c, 0, 75, 0
2, 72840, Note_on_c, 0, 74, 34
2, 72840, Note_on_c, 0, 82, 44
2, 72960, Note_on_c, 0, 74, 0
2, 72960, Note_on_c, 0, 75, 23
2, 73080, Note_on_c, 0, 75, 0
2, 73080, Note_on_c, 0, 82, 0
2, 73080, Note_on_c, 0, 72, 30
2, 73080, Note_on_c, 0, 80, 39
2, 73200, Note_on_c, 0, 72, 0
2, 73200, Note_on_c, 0, 75, 26
2, 73320, Note_on_c, 0, 75, 0
2, 73320, Note_on_c, 0, 80, 0
2, 73320, Note_on_c, 0, 70, 26
2, 73320, Note_on_c, 0, 79, 37
2, 73440, Note_on_c, 0, 79, 0
2, 73440, Note_on_c, 0, 77, 36
2, 73560, Note_on_c, 0, 77, 0
2, 73560, Note_on_c, 0, 70, 0
2, 73560, Note_on_c, 0, 68, 24
2, 73560, Note_on_c, 0, 74, 36
2, 73680, Note_on_c, 0, 74, 0
2, 73680, Note_on_c, 0, 75, 37
2, 73800, Note_on_c, 0, 75, 0
2, 73800, Note_on_c, 0, 68, 0
2, 73800, Note_on_c, 0, 67, 29
2, 73800, Note_on_c, 0, 79, 38
2, 73920, Note_on_c, 0, 79, 0
2, 73920, Note_on_c, 0, 67, 0
2, 73920, Note_on_c, 0, 82, 39
2, 73920, Note_on_c, 0, 65, 26
2, 74040, Note_on_c, 0, 65, 0
2, 74040, Note_on_c, 0, 62, 30
2, 74160, Note_on_c, 0, 62, 0
2, 74160, Note_on_c, 0, 63, 28
2, 74280, Note_on_c, 0, 63, 0
2, 74280, Note_on_c, 0, 67, 33
2, 74400, Note_on_c, 0, 67, 0
2, 74400, Note_on_c, 0, 70, 44
2, 74520, Note_on_c, 0, 82, 0
2, 74520, Note_on_c, 0, 72, 47
2, 74640, Note_on_c, 0, 72, 0
2, 74640, Note_on_c, 0, 70, 0
2, 74640, Note_on_c, 0, 74, 49
2, 74760, Note_on_c, 0, 74, 0
2, 74760, Note_on_c, 0, 77, 46
2, 74880, Note_on_c, 0, 77, 0
2, 74880, Note_on_c, 0, 63, 28
2, 74880, Note_on_c, 0, 75, 52
2, 75120, Note_on_c, 0, 74, 42
2, 75360, Note_on_c, 0, 74, 0
2, 75360, Note_on_c, 0, 75, 0
2, 75360, Note_on_c, 0, 63, 0
2, 75360, Note_on_c, 0, 63, 25
2, 75360, Note_on_c, 0, 75, 25
2, 75360, Note_on_c, 0, 72, 36
2, 75600, Note_on_c, 0, 72, 0
2, 75600, Note_on_c, 0, 75, 0
2, 75600, Note_on_c, 0, 63, 0
2, 75600, Note_on_c, 0, 70, 38
2, 75840, Note_on_c, 0, 63, 23
2, 75840, Note_on_c, 0, 75, 23
2, 76080, Note_on_c, 0, 70, 0
2, 76080, Note_on_c, 0, 68, 33
2, 76200, Note_on_c, 0, 68, 0
2, 76200, Note_on_c, 0, 67, 31
2, 76320, Note_on_c, 0, 67, 0
2, 76320, Note_on_c, 0, 75, 0
2, 76320, Note_on_c, 0, 63, 0
2, 76320, Note_on_c, 0, 75, 28
2, 76320, Note_on_c, 0, 70, 36
2, 76560, Note_on_c, 0, 70, 0
2, 76560, Note_on_c, 0, 63, 32
2, 76800, Note_on_c, 0, 63, 0
2, 76800, Note_on_c, 0, 75, 0
2, 76800, Note_on_c, 0, 67, 25
2, 76800, Note_on_c, 0, 74, 21
2, 76920, Note_on_c, 0, 67, 0
2, 76920, Note_on_c, 0, 65, 32
2, 77460, Note_on_c, 0, 65, 0
2, 77460, Note_on_c, 0, 74, 0
2, 77520, Note_on_c, 0, 63, 35
2, 77520, Note_on_c, 0, 75, 35
2, 77520, Note_on_c, 0, 72, 31
2, 77760, Note_on_c, 0, 72, 0
2, 77760, Note_on_c, 0, 70, 21
2, 78240, Note_on_c, 0, 70, 0
2, 78240, Note_on_c, 0, 75, 0
2, 78240, Note_on_c, 0, 63, 0
2, 78240, Note_on_c, 0, 63, 23
2, 78240, Note_on_c, 0, 75, 23
2, 78240, Note_on_c, 0, 69, 21
2, 78480, Note_on_c, 0, 69, 0
2, 78480, Note_on_c, 0, 68, 17
2, 78960, Note_on_c, 0, 68, 0
2, 78960, Note_on_c, 0, 75, 0
2, 78960, Note_on_c, 0, 63, 0
2, 78960, Note_on_c, 0, 63, 17
2, 78960, Note_on_c, 0, 75, 17
2, 78960, Note_on_c, 0, 67, 18
2, 79200, Note_on_c, 0, 67, 0
2, 79200, Note_on_c, 0, 63, 0
2, 79200, Note_on_c, 0, 70, 21
2, 79440, Note_on_c, 0, 70, 0
2, 79440, Note_on_c, 0, 63, 21
2, 79680, Note_on_c, 0, 63, 0
2, 79680, Note_on_c, 0, 75, 0
2, 79680, Note_on_c, 0, 74, 17
2, 79680, Note_on_c, 0, 67, 19
2, 79800, Note_on_c, 0, 67, 0
2, 79800, Note_on_c, 0, 65, 18
2, 80520, Note_on_c, 0, 65, 0
2, 80520, Note_on_c, 0, 63, 17
2, 80640, Note_on_c, 0, 63, 0
2, 80640, Note_on_c, 0, 74, 0
2, 80640, Note_on_c, 0, 63, 21
2, 80640, Note_on_c, 0, 75, 24
2, 81120, Note_on_c, 0, 75, 0
2, 81120, Note_on_c, 0, 63, 0
2, 81360, Note_on_c, 0, 46, 12
2, 81360, Note_on_c, 0, 55, 15
2, 81360, Note_on_c, 0, 58, 15
2, 81840, Note_on_c, 0, 58, 0
2, 81840, Note_on_c, 0, 55, 0
2, 81840, Note_on_c, 0, 46, 0
2, 82080, Note_on_c, 0, 67, 20
2, 82080, Note_on_c, 0, 75, 24
2, 82080, Note_on_c, 0, 79, 24
2, 82800, Note_on_c, 0, 79, 0
2, 82800, Note_on_c, 0, 75, 0
2, 82800, Note_on_c, 0, 67, 0
2, 82800, End_track
3, 0, Start_track
3, 0, Title_t, "Piano left"
3, 0, Program_c, 0, 0
3, 1200, Note_on_c, 0, 39, 25
3, 1440, Note_on_c, 0, 39, 0
3, 1440, Note_on_c, 0, 51, 19
3, 1440, Note_on_c, 0, 55, 19
3, 1920, Note_on_c, 0, 55, 0
3, 1920, Note_on_c, 0, 51, 0
3, 1920, Note_on_c, 0, 51, 19
3, 1920, Note_on_c, 0, 55, 19
3, 2160, Note_on_c, 0, 55, 0
3, 2160, Note_on_c, 0, 51, 0
3, 2160, Note_on_c, 0, 51, 21
3, 2160, Note_on_c, 0, 55, 21
3, 2640, Note_on_c, 0, 55, 0
3, 2640, Note_on_c, 0, 51, 0
3, 2640, Note_on_c, 0, 39, 23
3, 2880, Note_on_c, 0, 39, 0
3, 2880, Note_on_c, 0, 51, 23
3, 2880, Note_on_c, 0, 55, 23
3, 3360, Note_on_c, 0, 55, 0
3, 3360, Note_on_c, 0, 51, 0
3, 3360, Note_on_c, 0, 51, 20
3, 3360, Note_on_c, 0, 55, 20
3, 3600, Note_on_c, 0, 55, 0
3, 3600, Note_on_c, 0, 51, 0
3, 3600, Note_on_c, 0, 51, 18
3, 3600, Note_on_c, 0, 55, 18
3, 4080, Note_on_c, 0, 55, 0
3, 4080, Note_on_c, 0, 51, 0
3, 4080, Note_on_c, 0, 31, 23
3, 4320, Note_on_c, 0, 31, 0
3, 4320, Note_on_c, 0, 43, 16
3, 4320, Note_on_c, 0, 51, 19
3, 4320, Note_on_c, 0, 55, 19
3, 4800, Note_on_c, 0, 55, 0
3, 4800, Note_on_c, 0, 51, 0
3, 4800, Note_on_c, 0, 43, 0
3, 4800, Note_on_c, 0, 43, 16
3, 4800, Note_on_c, 0, 51, 19
3, 4800, Note_on_c, 0, 55, 19
3, 5040, Note_on_c, 0, 55, 0
3, 5040, Note_on_c, 0, 51, 0
3, 5040, Note_on_c, 0, 43, 0
3, 5040, Note_on_c, 0, 43, 17
3, 5040, Note_on_c, 0, 51, 21
3, 5040, Note_on_c, 0, 55, 21
3, 5520, Note_on_c, 0, 55, 0
3, 5520, Note_on_c, 0, 51, 0
3, 5520, Note_on_c, 0, 43, 0
3, 5520, Note_on_c, 0, 34, 23
3, 5760, Note_on_c, 0, 34, 0
3, 5760, Note_on_c, 0, 46, 23
3, 5760, Note_on_c, 0, 55, 23
3, 6240, Note_on_c, 0, 55, 0
3, 6240, Note_on_c, 0, 46, 0
3, 6240, Note_on_c, 0, 46, 18
3, 6240, Note_on_c, 0, 56, 18
3, 6480, Note_on_c, 0, 56, 0
3, 6480, Note_on_c, 0, 46, 0
3, 6480, Note_on_c, 0, 51, 16
3, 6480, Note_on_c, 0, 55, 16
3, 6960, Note_on_c, 0, 55, 0
3, 6960, Note_on_c, 0, 51, 0
3, 6960, Note_on_c, 0, 39, 23
3, 7200, Note_on_c, 0, 39, 0
3, 7200, Note_on_c, 0, 51, 19
3, 7200, Note_on_c, 0, 60, 19
3, 7680, Note_on_c, 0, 60, 0
3, 7680, Note_on_c, 0, 51, 0
3, 7680, Note_on_c, 0, 51, 19
3, 7680, Note_on_c, 0, 56, 19
3, 7920, Note_on_c, 0, 56, 0
3, 7920, Note_on_c, 0, 51, 0
3, 7920, Note_on_c, 0, 51, 21
3, 7920, Note_on_c, 0, 58, 21
3, 8400, Note_on_c, 0, 58, 0
3, 8400, Note_on_c, 0, 51, 0
3, 8400, Note_on_c, 0, 39, 23
3, 8640, Note_on_c, 0, 39, 0
3, 8640, Note_on_c, 0, 51, 19
3, 8640, Note_on_c, 0, 60, 19
3, 9120, Note_on_c, 0, 60, 0
3, 9120, Note_on_c, 0, 51, 0
3, 9120, Note_on_c, 0, 51, 19
3, 9120, Note_on_c, 0, 56, 19
3, 9360, Note_on_c, 0, 56, 0
3, 9360, Note_on_c, 0, 51, 0
3, 9360, Note_on_c, 0, 51, 19
3, 9360, Note_on_c, 0, 58, 19
3, 9840, Note_on_c, 0, 58, 0
3, 9840, Note_on_c, 0, 51, 0
3, 9840, Note_on_c, 0, 39, 29
3, 9840, Note_on_c, 0, 51, 29
3, 10080, Note_on_c, 0, 51, 0
3, 10080, Note_on_c, 0, 39, 0
3, 10080, Note_on_c, 0, 58, 30
3, 10080, Note_on_c, 0, 46, 25
3, 10320, Note_on_c, 0, 46, 0
3, 10320, Note_on_c, 0, 58, 0
3, 10320, Note_on_c, 0, 57, 35
3, 10320, Note_on_c, 0, 45, 29
3, 10560, Note_on_c, 0, 45, 0
3, 10560, Note_on_c, 0, 57, 0
3, 10560, Note_on_c, 0, 55, 39
3, 10560, Note_on_c, 0, 43, 32
3, 10800, Note_on_c, 0, 43, 0
3, 10800, Note_on_c, 0, 55, 0
3, 10800, Note_on_c, 0, 53, 39
3, 10800, Note_on_c, 0, 41, 32
3, 11280, Note_on_c, 0, 41, 0
3, 11280, Note_on_c, 0, 53, 0
3, 11280, Note_on_c, 0, 51, 42
3, 11280, Note_on_c, 0, 39, 36
3, 11400, Note_on_c, 0, 39, 0
3, 11400, Note_on_c, 0, 51, 0
3, 11400, Note_on_c, 0, 38, 37
3, 11400, Note_on_c, 0, 50, 42
3, 11520, Note_on_c, 0, 50, 0
3, 11520, Note_on_c, 0, 38, 0
3, 11520, Note_on_c, 0, 53, 41
3, 11520, Note_on_c, 0, 41, 36
3, 12000, Note_on_c, 0, 41, 0
3, 12000, Note_on_c, 0, 53, 0
3, 12000, Note_on_c, 0, 46, 23
3, 12000, Note_on_c, 0, 34, 19
3, 12240, Note_on_c, 0, 34, 0
3, 12240, Note_on_c, 0, 46, 0
3, 12240, Note_on_c, 0, 46, 27
3, 12240, Note_on_c, 0, 34, 22
3, 12720, Note_on_c, 0, 34, 0
3, 12720, Note_on_c, 0, 46, 0
3, 12720, Note_on_c, 0, 56, 23
3, 12720, Note_on_c, 0, 46, 19
3, 12900, Note_on_c, 0, 46, 0
3, 12900, Note_on_c, 0, 56, 0
3, 12900, Note_on_c, 0, 39, 19
3, 12960, Note_on_c, 0, 55, 19
3, 13440, Note_on_c, 0, 55, 0
3, 13440, Note_on_c, 0, 39, 0
3, 13440, Note_on_c, 0, 51, 19
3, 13440, Note_on_c, 0, 55, 19
3, 13680, Note_on_c, 0, 55, 0
3, 13680, Note_on_c, 0, 51, 0
3, 13680, Note_on_c, 0, 51, 21
3, 13680, Note_on_c, 0, 55, 21
3, 14160, Note_on_c, 0, 55, 0
3, 14160, Note_on_c, 0, 51, 0
3, 14160, Note_on_c, 0, 39, 23
3, 14400, Note_on_c, 0, 39, 0
3, 14400, Note_on_c, 0, 51, 23
3, 14400, Note_on_c, 0, 55, 23
3, 14880, Note_on_c, 0, 55, 0
3, 14880, Note_on_c, 0, 51, 0
3, 14880, Note_on_c, 0, 51, 20
3, 14880, Note_on_c, 0, 55, 20
3, 15120, Note_on_c, 0, 55, 0
3, 15120, Note_on_c, 0, 51, 0
3, 15120, Note_on_c, 0, 51, 18
3, 15120, Note_on_c, 0, 55, 18
3, 15600, Note_on_c, 0, 55, 0
3, 15600, Note_on_c, 0, 51, 0
3, 15600, Note_on_c, 0, 36, 23
3, 15840, Note_on_c, 0, 36, 0
3, 15840, Note_on_c, 0, 48, 16
3, 15840, Note_on_c, 0, 55, 19
3, 16320, Note_on_c, 0, 55, 0
3, 16320, Note_on_c, 0, 48, 0
3, 16320, Note_on_c, 0, 48, 16
3, 16320, Note_on_c, 0, 55, 19
3, 16560, Note_on_c, 0, 55, 0
3, 16560, Note_on_c, 0, 48, 0
3, 16560, Note_on_c, 0, 48, 17
3, 16560, Note_on_c, 0, 55, 21
3, 17040, Note_on_c, 0, 55, 0
3, 17040, Note_on_c, 0, 48, 0
3, 17040, Note_on_c, 0, 41, 23
3, 17280, Note_on_c, 0, 41, 0
3, 17280, Note_on_c, 0, 53, 23
3, 17280, Note_on_c, 0, 60, 23
3, 17760, Note_on_c, 0, 60, 0
3, 17760, Note_on_c, 0, 53, 0
3, 17760, Note_on_c, 0, 53, 20
3, 17760, Note_on_c, 0, 57, 20
3, 18000, Note_on_c, 0, 57, 0
3, 18000, Note_on_c, 0, 53, 0
3, 18000, Note_on_c, 0, 46, 20
3, 18000, Note_on_c, 0, 58, 20
3, 18480, Note_on_c, 0, 58, 0
3, 18480, Note_on_c, 0, 46, 0
3, 18480, Note_on_c, 0, 62, 16
3, 18480, Note_on_c, 0, 58, 16
3, 18480, Note_on_c, 0, 68, 19
3, 18660, Note_on_c, 0, 68, 0
3, 18660, Note_on_c, 0, 58, 0
3, 18660, Note_on_c, 0, 62, 0
3, 18660, Note_on_c, 0, 51, 19
3, 18690, Note_on_c, 0, 58, 19
3, 18720, Note_on_c, 0, 67, 19
3, 19140, Note_on_c, 0, 67, 0
3, 19140, Note_on_c, 0, 58, 0
3, 19140, Note_on_c, 0, 51, 0
3, 19140, Note_on_c, 0, 51, 19
3, 19170, Note_on_c, 0, 58, 19
3, 19200, Note_on_c, 0, 67, 19
3, 19680, Note_on_c, 0, 67, 0
3, 19680, Note_on_c, 0, 58, 0
3, 19680, Note_on_c, 0, 51, 0
3, 19680, Note_on_c, 0, 51, 16
3, 19680, Note_on_c, 0, 58, 19
3, 20160, Note_on_c, 0, 58, 0
3, 20160, Note_on_c, 0, 51, 0
3, 20160, Note_on_c, 0, 51, 16
3, 20160, Note_on_c, 0, 58, 19
3, 20640, Note_on_c, 0, 58, 0
3, 20640, Note_on_c, 0, 51, 0
3, 20640, Note_on_c, 0, 51, 16
3, 20640, Note_on_c, 0, 55, 19
3, 21120, Note_on_c, 0, 55, 0
3, 21120, Note_on_c, 0, 51, 0
3, 21120, Note_on_c, 0, 43, 16
3, 21120, Note_on_c, 0, 51, 16
3, 21120, Note_on_c, 0, 55, 19
3, 21600, Note_on_c, 0, 55, 0
3, 21600, Note_on_c, 0, 51, 0
3, 21600, Note_on_c, 0, 43, 0
3, 21600, Note_on_c, 0, 45, 16
3, 21600, Note_on_c, 0, 51, 19
3, 21600, Note_on_c, 0, 55, 19
3, 22080, Note_on_c, 0, 55, 0
3, 22080, Note_on_c, 0, 51, 0
3, 22080, Note_on_c, 0, 45, 0
3, 22080, Note_on_c, 0, 46, 16
3, 22080, Note_on_c, 0, 51, 19
3, 22080, Note_on_c, 0, 55, 19
3, 22560, Note_on_c, 0, 55, 0
3, 22560, Note_on_c, 0, 51, 0
3, 22560, Note_on_c, 0, 46, 0
3, 22560, Note_on_c, 0, 48, 17
3, 22560, Note_on_c, 0, 51, 21
3, 22560, Note_on_c, 0, 55, 21
3, 23040, Note_on_c, 0, 55, 0
3, 23040, Note_on_c, 0, 51, 0
3, 23040, Note_on_c, 0, 48, 0
3, 23040, Note_on_c, 0, 46, 23
3, 23040, Note_on_c, 0, 55, 23
3, 23520, Note_on_c, 0, 55, 0
3, 23520, Note_on_c, 0, 46, 0
3, 23520, Note_on_c, 0, 46, 18
3, 23520, Note_on_c, 0, 56, 18
3, 23760, Note_on_c, 0, 56, 0
3, 23760, Note_on_c, 0, 46, 0
3, 23760, Note_on_c, 0, 51, 16
3, 23760, Note_on_c, 0, 55, 16
3, 24240, Note_on_c, 0, 55, 0
3, 24240, Note_on_c, 0, 51, 0
3, 24240, Note_on_c, 0, 40, 19
3, 24240, Note_on_c, 0, 52, 23
3, 24360, Note_on_c, 0, 52, 0
3, 24360, Note_on_c, 0, 40, 0
3, 24360, Note_on_c, 0, 42, 21
3, 24360, Note_on_c, 0, 54, 25
3, 24480, Note_on_c, 0, 54, 0
3, 24480, Note_on_c, 0, 42, 0
3, 24480, Note_on_c, 0, 44, 23
3, 24480, Note_on_c, 0, 56, 28
3, 24720, Note_on_c, 0, 56, 0
3, 24720, Note_on_c, 0, 44, 0
3, 24720, Note_on_c, 0, 42, 20
3, 24720, Note_on_c, 0, 54, 24
3, 24960, Note_on_c, 0, 54, 0
3, 24960, Note_on_c, 0, 42, 0
3, 24960, Note_on_c, 0, 40, 14
3, 24960, Note_on_c, 0, 52, 17
3, 25200, Note_on_c, 0, 52, 0
3, 25200, Note_on_c, 0, 40, 0
3, 25200, Note_on_c, 0, 39, 14
3, 25200, Note_on_c, 0, 51, 17
3, 25680, Note_on_c, 0, 51, 0
3, 25680, Note_on_c, 0, 39, 0
3, 25680, Note_on_c, 0, 37, 19
3, 25680, Note_on_c, 0, 49, 23
3, 25800, Note_on_c, 0, 49, 0
3, 25800, Note_on_c, 0, 37, 0
3, 25800, Note_on_c, 0, 35, 21
3, 25800, Note_on_c, 0, 47, 25
3, 25920, Note_on_c, 0, 47, 0
3, 25920, Note_on_c, 0, 35, 0
3, 25920, Note_on_c, 0, 34, 23
3, 25920, Note_on_c, 0, 46, 28
3, 26160, Note_on_c, 0, 46, 0
3, 26160, Note_on_c, 0, 34, 0
3, 26160, Note_on_c, 0, 32, 20
3, 26160, Note_on_c, 0, 44, 24
3, 26400, Note_on_c, 0, 44, 0
3, 26400, Note_on_c, 0, 32, 0
3, 26400, Note_on_c, 0, 35, 16
3, 26400, Note_on_c, 0, 47, 20
3, 26640, Note_on_c, 0, 47, 0
3, 26640, Note_on_c, 0, 35, 0
3, 26640, Note_on_c, 0, 39, 17
3, 27120, Note_on_c, 0, 39, 0
3, 27120, Note_on_c, 0, 51, 19
3, 27120, Note_on_c, 0, 61, 23
3, 27360, Note_on_c, 0, 61, 0
3, 27360, Note_on_c, 0, 51, 0
3, 27360, Note_on_c, 0, 51, 23
3, 27360, Note_on_c, 0, 59, 28
3, 27840, Note_on_c, 0, 59, 0
3, 27840, Note_on_c, 0, 51, 0
3, 27840, Note_on_c, 0, 51, 14
3, 27840, Note_on_c, 0, 56, 17
3, 28080, Note_on_c, 0, 56, 0
3, 28080, Note_on_c, 0, 51, 0
3, 28080, Note_on_c, 0, 51, 14
3, 28080, Note_on_c, 0, 63, 17
3, 28560, Note_on_c, 0, 63, 0
3, 28560, Note_on_c, 0, 51, 0
3, 28560, Note_on_c, 0, 37, 19
3, 28560, Note_on_c, 0, 49, 23
3, 28800, Note_on_c, 0, 49, 0
3, 28800, Note_on_c, 0, 37, 0
3, 28800, Note_on_c, 0, 34, 23
3, 28800, Note_on_c, 0, 46, 28
3, 29280, Note_on_c, 0, 46, 0
3, 29280, Note_on_c, 0, 34, 0
3, 29280, Note_on_c, 0, 31, 14
3, 29280, Note_on_c, 0, 43, 17
3, 29760, Note_on_c, 0, 43, 0
3, 29760, Note_on_c, 0, 31, 0
3, 29760, Note_on_c, 0, 32, 11
3, 29760, Note_on_c, 0, 44, 14
3, 30240, Note_on_c, 0, 44, 0
3, 30240, Note_on_c, 0, 32, 0
3, 30240, Note_on_c, 0, 34, 16
3, 30360, Note_on_c, 0, 34, 0
3, 30360, Note_on_c, 0, 46, 16
3, 30480, Note_on_c, 0, 46, 0
3, 30480, Note_on_c, 0, 51, 15
3, 30600, Note_on_c, 0, 51, 0
3, 30600, Note_on_c, 0, 54, 16
3, 30720, Note_on_c, 0, 54, 0
3, 30960, Note_on_c, 0, 34, 19
3, 31080, Note_on_c, 0, 34, 0
3, 31080, Note_on_c, 0, 46, 19
3, 31200, Note_on_c, 0, 46, 0
3, 31200, Note_on_c, 0, 53, 17
3, 31320, Note_on_c, 0, 53, 0
3, 31320, Note_on_c, 0, 56, 17
3, 31440, Note_on_c, 0, 56, 0
3, 31680, Note_on_c, 0, 34, 16
3, 31800, Note_on_c, 0, 34, 0
3, 31800, Note_on_c, 0, 46, 16
3, 31920, Note_on_c, 0, 46, 0
3, 31920, Note_on_c, 0, 50, 15
3, 32040, Note_on_c, 0, 50, 0
3, 32040, Note_on_c, 0, 53, 16
3, 32160, Note_on_c, 0, 53, 0
3, 32400, Note_on_c, 0, 34, 19
3, 32520, Note_on_c, 0, 34, 0
3, 32520, Note_on_c, 0, 46, 19
3, 32640, Note_on_c, 0, 46, 0
3, 32640, Note_on_c, 0, 51, 17
3, 32760, Note_on_c, 0, 51, 0
3, 32760, Note_on_c, 0, 54, 17
3, 32880, Note_on_c, 0, 54, 0
3, 33120, Note_on_c, 0, 34, 18
3, 33240, Note_on_c, 0, 34, 0
3, 33240, Note_on_c, 0, 46, 16
3, 33360, Note_on_c, 0, 46, 0
3, 33360, Note_on_c, 0, 47, 14
3, 33480, Note_on_c, 0, 47, 0
3, 33480, Note_on_c, 0, 51, 14
3, 33600, Note_on_c, 0, 51, 0
3, 33840, Note_on_c, 0, 32, 16
3, 33960, Note_on_c, 0, 32, 0
3, 33960, Note_on_c, 0, 44, 16
3, 34080, Note_on_c, 0, 44, 0
3, 34080, Note_on_c, 0, 47, 15
3, 34200, Note_on_c, 0, 47, 0
3, 34200, Note_on_c, 0, 51, 15
3, 34320, Note_on_c, 0, 51, 0
3, 34560, Note_on_c, 0, 32, 18
3, 34680, Note_on_c, 0, 32, 0
3, 34680, Note_on_c, 0, 44, 18
3, 34800, Note_on_c, 0, 44, 0
3, 34800, Note_on_c, 0, 46, 16
3, 34920, Note_on_c, 0, 46, 0
3, 34920, Note_on_c, 0, 49, 16
3, 35040, Note_on_c, 0, 49, 0
3, 35280, Note_on_c, 0, 30, 18
3, 35400, Note_on_c, 0, 30, 0
3, 35400, Note_on_c, 0, 42, 18
3, 35520, Note_on_c, 0, 42, 0
3, 35520, Note_on_c, 0, 46, 17
3, 35640, Note_on_c, 0, 46, 0
3, 35640, Note_on_c, 0, 49, 17
3, 35760, Note_on_c, 0, 49, 0
3, 36000, Note_on_c, 0, 30, 14
3, 36120, Note_on_c, 0, 30, 0
3, 36120, Note_on_c, 0, 42, 14
3, 36240, Note_on_c, 0, 42, 0
3, 36240, Note_on_c, 0, 46, 13
3, 36360, Note_on_c, 0, 46, 0
3, 36360, Note_on_c, 0, 48, 14
3, 36480, Note_on_c, 0, 48, 0
3, 36720, Note_on_c, 0, 29, 18
3, 36840, Note_on_c, 0, 29, 0
3, 36840, Note_on_c, 0, 41, 17
3, 36960, Note_on_c, 0, 41, 0
3, 36960, Note_on_c, 0, 46, 15
3, 37080, Note_on_c, 0, 46, 0
3, 37080, Note_on_c, 0, 48, 15
3, 37200, Note_on_c, 0, 48, 0
3, 37440, Note_on_c, 0, 41, 17
3, 37440, Note_on_c, 0, 45, 17
3, 37440, Note_on_c, 0, 53, 21
3, 37440, Note_on_c, 0, 51, 17
3, 37680, Note_on_c, 0, 49, 17
3, 37920, Note_on_c, 0, 49, 0
3, 37920, Note_on_c, 0, 48, 17
3, 38160, Note_on_c, 0, 48, 0
3, 38160, Note_on_c, 0, 51, 0
3, 38160, Note_on_c, 0, 41, 0
3, 38160, Note_on_c, 0, 45, 0
3, 38160, Note_on_c, 0, 53, 0
3, 38160, Note_on_c, 0, 51, 17
3, 38160, Note_on_c, 0, 41, 17
3, 38160, Note_on_c, 0, 46, 17
3, 38160, Note_on_c, 0, 53, 21
3, 38640, Note_on_c, 0, 51, 0
3, 38640, Note_on_c, 0, 49, 16
3, 38880, Note_on_c, 0, 49, 0
3, 38880, Note_on_c, 0, 53, 0
3, 38880, Note_on_c, 0, 46, 0
3, 38880, Note_on_c, 0, 41, 0
3, 38880, Note_on_c, 0, 30, 32
3, 39000, Note_on_c, 0, 30, 0
3, 39000, Note_on_c, 0, 42, 20
3, 39120, Note_on_c, 0, 42, 0
3, 39120, Note_on_c, 0, 46, 19
3, 39240, Note_on_c, 0, 46, 0
3, 39240, Note_on_c, 0, 48, 20
3, 39360, Note_on_c, 0, 48, 0
3, 39600, Note_on_c, 0, 24, 38
3, 39720, Note_on_c, 0, 24, 0
3, 39720, Note_on_c, 0, 36, 27
3, 39840, Note_on_c, 0, 36, 0
3, 39840, Note_on_c, 0, 39, 23
3, 39960, Note_on_c, 0, 39, 0
3, 39960, Note_on_c, 0, 46, 23
3, 40080, Note_on_c, 0, 46, 0
3, 40320, Note_on_c, 0, 41, 17
3, 40320, Note_on_c, 0, 45, 17
3, 40320, Note_on_c, 0, 53, 21
3, 40320, Note_on_c, 0, 51, 17
3, 40560, Note_on_c, 0, 49, 17
3, 40800, Note_on_c, 0, 49, 0
3, 40800, Note_on_c, 0, 48, 17
3, 41040, Note_on_c, 0, 48, 0
3, 41040, Note_on_c, 0, 51, 0
3, 41040, Note_on_c, 0, 41, 0
3, 41040, Note_on_c, 0, 45, 0
3, 41040, Note_on_c, 0, 53, 0
3, 41040, Note_on_c, 0, 44, 15
3, 41040, Note_on_c, 0, 46, 15
3, 41040, Note_on_c, 0, 56, 18
3, 41040, Note_on_c, 0, 50, 15
3, 41280, Note_on_c, 0, 56, 0
3, 41280, Note_on_c, 0, 44, 0
3, 41280, Note_on_c, 0, 42, 11
3, 41280, Note_on_c, 0, 54, 14
3, 41520, Note_on_c, 0, 54, 0
3, 41520, Note_on_c, 0, 42, 0
3, 41520, Note_on_c, 0, 41, 11
3, 41520, Note_on_c, 0, 53, 13
3, 41760, Note_on_c, 0, 53, 0
3, 41760, Note_on_c, 0, 50, 0
3, 41760, Note_on_c, 0, 46, 0
3, 41760, Note_on_c, 0, 41, 0
3, 41760, Note_on_c, 0, 39, 18
3, 41880, Note_on_c, 0, 39, 0
3, 41880, Note_on_c, 0, 46, 18
3, 42000, Note_on_c, 0, 46, 0
3, 42000, Note_on_c, 0, 51, 17
3, 42120, Note_on_c, 0, 51, 0
3, 42120, Note_on_c, 0, 54, 18
3, 42240, Note_on_c, 0, 54, 0
3, 42480, Note_on_c, 0, 32, 21
3, 42600, Note_on_c, 0, 32, 0
3, 42600, Note_on_c, 0, 44, 21
3, 42720, Note_on_c, 0, 44, 0
3, 42720, Note_on_c, 0, 47, 19
3, 42840, Note_on_c, 0, 47, 0
3, 42840, Note_on_c, 0, 52, 19
3, 42960, Note_on_c, 0, 52, 0
3, 43200, Note_on_c, 0, 34, 18
3, 43320, Note_on_c, 0, 34, 0
3, 43320, Note_on_c, 0, 46, 18
3, 43440, Note_on_c, 0, 46, 0
3, 43440, Note_on_c, 0, 49, 17
3, 43560, Note_on_c, 0, 49, 0
3, 43560, Note_on_c, 0, 52, 18
3, 43680, Note_on_c, 0, 52, 0
3, 43920, Note_on_c, 0, 39, 21
3, 44040, Note_on_c, 0, 39, 0
3, 44040, Note_on_c, 0, 46, 21
3, 44160, Note_on_c, 0, 46, 0
3, 44160, Note_on_c, 0, 51, 19
3, 44280, Note_on_c, 0, 51, 0
3, 44280, Note_on_c, 0, 55, 19
3, 44400, Note_on_c, 0, 55, 0
3, 44640, Note_on_c, 0, 32, 20
3, 44760, Note_on_c, 0, 32, 0
3, 44760, Note_on_c, 0, 39, 18
3, 44880, Note_on_c, 0, 39, 0
3, 44880, Note_on_c, 0, 44, 16
3, 45000, Note_on_c, 0, 44, 0
3, 45000, Note_on_c, 0, 48, 16
3, 45120, Note_on_c, 0, 48, 0
3, 45360, Note_on_c, 0, 32, 18
3, 45480, Note_on_c, 0, 32, 0
3, 45480, Note_on_c, 0, 39, 18
3, 45600, Note_on_c, 0, 39, 0
3, 45600, Note_on_c, 0, 44, 17
3, 45720, Note_on_c, 0, 44, 0
3, 45720, Note_on_c, 0, 47, 17
3, 45840, Note_on_c, 0, 47, 0
3, 46080, Note_on_c, 0, 34, 20
3, 46200, Note_on_c, 0, 34, 0
3, 46200, Note_on_c, 0, 46, 20
3, 46320, Note_on_c, 0, 46, 0
3, 46320, Note_on_c, 0, 49, 18
3, 46440, Note_on_c, 0, 49, 0
3, 46440, Note_on_c, 0, 52, 18
3, 46560, Note_on_c, 0, 52, 0
3, 46800, Note_on_c, 0, 31, 20
3, 46920, Note_on_c, 0, 31, 0
3, 46920, Note_on_c, 0, 43, 20
3, 47040, Note_on_c, 0, 43, 0
3, 47040, Note_on_c, 0, 46, 19
3, 47160, Note_on_c, 0, 46, 0
3, 47160, Note_on_c, 0, 51, 19
3, 47280, Note_on_c, 0, 51, 0
3, 47520, Note_on_c, 0, 32, 16
3, 47640, Note_on_c, 0, 32, 0
3, 47640, Note_on_c, 0, 39, 16
3, 47760, Note_on_c, 0, 39, 0
3, 47760, Note_on_c, 0, 44, 14
3, 47880, Note_on_c, 0, 44, 0
3, 47880, Note_on_c, 0, 47, 16
3, 48000, Note_on_c, 0, 47, 0
3, 48240, Note_on_c, 0, 30, 20
3, 48360, Note_on_c, 0, 30, 0
3, 48360, Note_on_c, 0, 39, 19
3, 48480, Note_on_c, 0, 39, 0
3, 48480, Note_on_c, 0, 42, 17
3, 48600, Note_on_c, 0, 42, 0
3, 48600, Note_on_c, 0, 46, 17
3, 48720, Note_on_c, 0, 46, 0
3, 48960, Note_on_c, 0, 46, 17
3, 48960, Note_on_c, 0, 56, 21
3, 48960, Note_on_c, 0, 50, 17
3, 49200, Note_on_c, 0, 54, 17
3, 49440, Note_on_c, 0, 54, 0
3, 49440, Note_on_c, 0, 53, 17
3, 49680, Note_on_c, 0, 53, 0
3, 49680, Note_on_c, 0, 50, 0
3, 49680, Note_on_c, 0, 56, 0
3, 49680, Note_on_c, 0, 46, 0
3, 49680, Note_on_c, 0, 56, 17
3, 49680, Note_on_c, 0, 46, 17
3, 49680, Note_on_c, 0, 51, 21
3, 50160, Note_on_c, 0, 56, 0
3, 50160, Note_on_c, 0, 54, 16
3, 50400, Note_on_c, 0, 54, 0
3, 50400, Note_on_c, 0, 51, 0
3, 50400, Note_on_c, 0, 46, 0
3, 50400, Note_on_c, 0, 32, 27
3, 50520, Note_on_c, 0, 32, 0
3, 50520, Note_on_c, 0, 44, 18
3, 50640, Note_on_c, 0, 44, 0
3, 50640, Note_on_c, 0, 47, 17
3, 50760, Note_on_c, 0, 47, 0
3, 50760, Note_on_c, 0, 52, 18
3, 50880, Note_on_c, 0, 52, 0
3, 51120, Note_on_c, 0, 34, 26
3, 51240, Note_on_c, 0, 34, 0
3, 51240, Note_on_c, 0, 42, 21
3, 51360, Note_on_c, 0, 42, 0
3, 51360, Note_on_c, 0, 46, 18
3, 51480, Note_on_c, 0, 46, 0
3, 51480, Note_on_c, 0, 51, 17
3, 51600, Note_on_c, 0, 51, 0
3, 51840, Note_on_c, 0, 44, 17
3, 51840, Note_on_c, 0, 46, 21
3, 52320, Note_on_c, 0, 44, 0
3, 52320, Note_on_c, 0, 42, 17
3, 52560, Note_on_c, 0, 46, 0
3, 52560, Note_on_c, 0, 46, 17
3, 52800, Note_on_c, 0, 42, 0
3, 52800, Note_on_c, 0, 41, 17
3, 53280, Note_on_c, 0, 41, 0
3, 53280, Note_on_c, 0, 46, 0
3, 53280, Note_on_c, 0, 49, 14
3, 53280, Note_on_c, 0, 39, 17
3, 53760, Note_on_c, 0, 49, 0
3, 53760, Note_on_c, 0, 47, 13
3, 54000, Note_on_c, 0, 39, 0
3, 54000, Note_on_c, 0, 39, 15
3, 54240, Note_on_c, 0, 47, 0
3, 54240, Note_on_c, 0, 46, 12
3, 54390, Note_on_c, 0, 46, 0
3, 54660, Note_on_c, 0, 39, 17
3, 54690, Note_on_c, 0, 46, 17
3, 54720, Note_on_c, 0, 39, 0
3, 54720, Note_on_c, 0, 55, 17
3, 55200, Note_on_c, 0, 55, 0
3, 55200, Note_on_c, 0, 46, 0
3, 55200, Note_on_c, 0, 39, 0
3, 55920, Note_on_c, 0, 46, 23
3, 55920, Note_on_c, 0, 39, 23
3, 56160, Note_on_c, 0, 39, 0
3, 56160, Note_on_c, 0, 46, 0
3, 56160, Note_on_c, 0, 39, 23
3, 56160, Note_on_c, 0, 46, 23
3, 56160, Note_on_c, 0, 53, 23
3, 56400, Note_on_c, 0, 53, 0
3, 56400, Note_on_c, 0, 46, 0
3, 56400, Note_on_c, 0, 39, 0
3, 56400, Note_on_c, 0, 51, 23
3, 56640, Note_on_c, 0, 51, 0
3, 57360, Note_on_c, 0, 43, 21
3, 57360, Note_on_c, 0, 51, 26
3, 57600, Note_on_c, 0, 51, 0
3, 57600, Note_on_c, 0, 43, 0
3, 57600, Note_on_c, 0, 43, 18
3, 57600, Note_on_c, 0, 51, 21
3, 58080, Note_on_c, 0, 51, 0
3, 58080, Note_on_c, 0, 43, 0
3, 58800, Note_on_c, 0, 34, 23
3, 58800, Note_on_c, 0, 46, 26
3, 59040, Note_on_c, 0, 46, 0
3, 59040, Note_on_c, 0, 34, 0
3, 59040, Note_on_c, 0, 51, 26
3, 59040, Note_on_c, 0, 46, 26
3, 59040, Note_on_c, 0, 55, 26
3, 59520, Note_on_c, 0, 55, 0
3, 59520, Note_on_c, 0, 46, 0
3, 59520, Note_on_c, 0, 51, 0
3, 59520, Note_on_c, 0, 34, 20
3, 59520, Note_on_c, 0, 46, 20
3, 59760, Note_on_c, 0, 46, 0
3, 59760, Note_on_c, 0, 34, 0
3, 59760, Note_on_c, 0, 39, 18
3, 59760, Note_on_c, 0, 46, 18
3, 60240, Note_on_c, 0, 46, 0
3, 60240, Note_on_c, 0, 39, 0
3, 60240, Note_on_c, 0, 39, 26
3, 60480, Note_on_c, 0, 39, 0
3, 60480, Note_on_c, 0, 51, 21
3, 60480, Note_on_c, 0, 60, 21
3, 60960, Note_on_c, 0, 60, 0
3, 60960, Note_on_c, 0, 51, 0
3, 60960, Note_on_c, 0, 51, 21
3, 60960, Note_on_c, 0, 56, 21
3, 61200, Note_on_c, 0, 56, 0
3, 61200, Note_on_c, 0, 51, 0
3, 61200, Note_on_c, 0, 51, 24
3, 61200, Note_on_c, 0, 58, 24
3, 61680, Note_on_c, 0, 58, 0
3, 61680, Note_on_c, 0, 51, 0
3, 61680, Note_on_c, 0, 39, 26
3, 61920, Note_on_c, 0, 39, 0
3, 61920, Note_on_c, 0, 51, 21
3, 61920, Note_on_c, 0, 60, 21
3, 62400, Note_on_c, 0, 60, 0
3, 62400, Note_on_c, 0, 51, 0
3, 62400, Note_on_c, 0, 51, 21
3, 62400, Note_on_c, 0, 56, 21
3, 62640, Note_on_c, 0, 56, 0
3, 62640, Note_on_c, 0, 51, 0
3, 62640, Note_on_c, 0, 51, 21
3, 62640, Note_on_c, 0, 58, 21
3, 63120, Note_on_c, 0, 58, 0
3, 63120, Note_on_c, 0, 51, 0
3, 63120, Note_on_c, 0, 39, 35
3, 63120, Note_on_c, 0, 51, 35
3, 63360, Note_on_c, 0, 51, 0
3, 63360, Note_on_c, 0, 39, 0
3, 63360, Note_on_c, 0, 58, 34
3, 63360, Note_on_c, 0, 46, 27
3, 63600, Note_on_c, 0, 46, 0
3, 63600, Note_on_c, 0, 58, 0
3, 63600, Note_on_c, 0, 57, 37
3, 63600, Note_on_c, 0, 45, 31
3, 63840, Note_on_c, 0, 45, 0
3, 63840, Note_on_c, 0, 57, 0
3, 63840, Note_on_c, 0, 46, 34
3, 63840, Note_on_c, 0, 55, 41
3, 63840, Note_on_c, 0, 43, 34
3, 64080, Note_on_c, 0, 43, 0
3, 64080, Note_on_c, 0, 55, 0
3, 64080, Note_on_c, 0, 46, 0
3, 64080, Note_on_c, 0, 46, 42
3, 64080, Note_on_c, 0, 53, 53
3, 64080, Note_on_c, 0, 41, 42
3, 64560, Note_on_c, 0, 41, 0
3, 64560, Note_on_c, 0, 53, 0
3, 64560, Note_on_c, 0, 46, 0
3, 64560, Note_on_c, 0, 51, 46
3, 64560, Note_on_c, 0, 39, 40
3, 64680, Note_on_c, 0, 39, 0
3, 64680, Note_on_c, 0, 51, 0
3, 64680, Note_on_c, 0, 38, 41
3, 64680, Note_on_c, 0, 50, 47
3, 64800, Note_on_c, 0, 50, 0
3, 64800, Note_on_c, 0, 38, 0
3, 64800, Note_on_c, 0, 53, 51
3, 64800, Note_on_c, 0, 41, 43
3, 65280, Note_on_c, 0, 41, 0
3, 65280, Note_on_c, 0, 53, 0
3, 65280, Note_on_c, 0, 46, 31
3, 65280, Note_on_c, 0, 34, 25
3, 65520, Note_on_c, 0, 34, 0
3, 65520, Note_on_c, 0, 46, 0
3, 65520, Note_on_c, 0, 46, 34
3, 65520, Note_on_c, 0, 34, 27
3, 66000, Note_on_c, 0, 34, 0
3, 66000, Note_on_c, 0, 46, 0
3, 66000, Note_on_c, 0, 46, 20
3, 66120, Note_on_c, 0, 56, 24
3, 66180, Note_on_c, 0, 56, 0
3, 66180, Note_on_c, 0, 46, 0
3, 66180, Note_on_c, 0, 39, 20
3, 66240, Note_on_c, 0, 55, 19
3, 66720, Note_on_c, 0, 55, 0
3, 66720, Note_on_c, 0, 39, 0
3, 66720, Note_on_c, 0, 51, 19
3, 66720, Note_on_c, 0, 55, 19
3, 66960, Note_on_c, 0, 55, 0
3, 66960, Note_on_c, 0, 51, 0
3, 66960, Note_on_c, 0, 51, 21
3, 66960, Note_on_c, 0, 55, 21
3, 67440, Note_on_c, 0, 55, 0
3, 67440, Note_on_c, 0, 51, 0
3, 67440, Note_on_c, 0, 39, 23
3, 67680, Note_on_c, 0, 39, 0
3, 67680, Note_on_c, 0, 51, 23
3, 67680, Note_on_c, 0, 55, 23
3, 68160, Note_on_c, 0, 55, 0
3, 68160, Note_on_c, 0, 51, 0
3, 68160, Note_on_c, 0, 51, 20
3, 68160, Note_on_c, 0, 55, 20
3, 68400, Note_on_c, 0, 55, 0
3, 68400, Note_on_c, 0, 51, 0
3, 68400, Note_on_c, 0, 51, 18
3, 68400, Note_on_c, 0, 55, 18
3, 68880, Note_on_c, 0, 55, 0
3, 68880, Note_on_c, 0, 51, 0
3, 68880, Note_on_c, 0, 36, 23
3, 69120, Note_on_c, 0, 36, 0
3, 69120, Note_on_c, 0, 48, 16
3, 69120, Note_on_c, 0, 55, 19
3, 69600, Note_on_c, 0, 55, 0
3, 69600, Note_on_c, 0, 48, 0
3, 69600, Note_on_c, 0, 48, 16
3, 69600, Note_on_c, 0, 55, 19
3, 69840, Note_on_c, 0, 55, 0
3, 69840, Note_on_c, 0, 48, 0
3, 69840, Note_on_c, 0, 48, 17
3, 69840, Note_on_c, 0, 55, 21
3, 70320, Note_on_c, 0, 55, 0
3, 70320, Note_on_c, 0, 48, 0
3, 70320, Note_on_c, 0, 38, 23
3, 70560, Note_on_c, 0, 38, 0
3, 70560, Note_on_c, 0, 50, 19
3, 70560, Note_on_c, 0, 54, 23
3, 70560, Note_on_c, 0, 60, 23
3, 71040, Note_on_c, 0, 60, 0
3, 71040, Note_on_c, 0, 54, 0
3, 71040, Note_on_c, 0, 50, 0
3, 71040, Note_on_c, 0, 50, 20
3, 71040, Note_on_c, 0, 54, 20
3, 71040, Note_on_c, 0, 57, 20
3, 71280, Note_on_c, 0, 57, 0
3, 71280, Note_on_c, 0, 54, 0
3, 71280, Note_on_c, 0, 50, 0
3, 71280, Note_on_c, 0, 46, 20
3, 71280, Note_on_c, 0, 58, 20
3, 71760, Note_on_c, 0, 58, 0
3, 71760, Note_on_c, 0, 46, 0
3, 71760, Note_on_c, 0, 62, 16
3, 71760, Note_on_c, 0, 58, 16
3, 71760, Note_on_c, 0, 68, 19
3, 71940, Note_on_c, 0, 68, 0
3, 71940, Note_on_c, 0, 58, 0
3, 71940, Note_on_c, 0, 62, 0
3, 71940, Note_on_c, 0, 51, 19
3, 71970, Note_on_c, 0, 58, 19
3, 72000, Note_on_c, 0, 67, 19
3, 72420, Note_on_c, 0, 67, 0
3, 72420, Note_on_c, 0, 58, 0
3, 72420, Note_on_c, 0, 51, 0
3, 72420, Note_on_c, 0, 51, 19
3, 72450, Note_on_c, 0, 58, 19
3, 72480, Note_on_c, 0, 67, 19
3, 72660, Note_on_c, 0, 67, 0
3, 72660, Note_on_c, 0, 58, 0
3, 72660, Note_on_c, 0, 51, 0
3, 72660, Note_on_c, 0, 51, 19
3, 72690, Note_on_c, 0, 58, 19
3, 72720, Note_on_c, 0, 67, 19
3, 73200, Note_on_c, 0, 67, 0
3, 73200, Note_on_c, 0, 58, 0
3, 73200, Note_on_c, 0, 51, 0
3, 73200, Note_on_c, 0, 51, 16
3, 73200, Note_on_c, 0, 58, 19
3, 73440, Note_on_c, 0, 58, 0
3, 73440, Note_on_c, 0, 51, 0
3, 73440, Note_on_c, 0, 51, 16
3, 73440, Note_on_c, 0, 58, 19
3, 73860, Note_on_c, 0, 58, 0
3, 73860, Note_on_c, 0, 51, 0
3, 73860, Note_on_c, 0, 51, 16
3, 73890, Note_on_c, 0, 56, 19
3, 74100, Note_on_c, 0, 56, 0
3, 74100, Note_on_c, 0, 51, 0
3, 74100, Note_on_c, 0, 51, 16
3, 74130, Note_on_c, 0, 55, 19
3, 74640, Note_on_c, 0, 55, 0
3, 74640, Note_on_c, 0, 51, 0
3, 74640, Note_on_c, 0, 43, 25
3, 74640, Note_on_c, 0, 51, 25
3, 74640, Note_on_c, 0, 55, 28
3, 74880, Note_on_c, 0, 43, 0
3, 74880, Note_on_c, 0, 45, 20
3, 75360, Note_on_c, 0, 45, 0
3, 75360, Note_on_c, 0, 55, 0
3, 75360, Note_on_c, 0, 51, 0
3, 75360, Note_on_c, 0, 46, 17
3, 75360, Note_on_c, 0, 51, 21
3, 75360, Note_on_c, 0, 55, 21
3, 75840, Note_on_c, 0, 55, 0
3, 75840, Note_on_c, 0, 51, 0
3, 75840, Note_on_c, 0, 46, 0
3, 75840, Note_on_c, 0, 48, 17
3, 75840, Note_on_c, 0, 51, 21
3, 75840, Note_on_c, 0, 55, 21
3, 76320, Note_on_c, 0, 55, 0
3, 76320, Note_on_c, 0, 51, 0
3, 76320, Note_on_c, 0, 48, 0
3, 76320, Note_on_c, 0, 46, 23
3, 76320, Note_on_c, 0, 55, 23
3, 76800, Note_on_c, 0, 55, 0
3, 76800, Note_on_c, 0, 46, 0
3, 76800, Note_on_c, 0, 46, 18
3, 76800, Note_on_c, 0, 56, 18
3, 77460, Note_on_c, 0, 56, 0
3, 77460, Note_on_c, 0, 46, 0
3, 77460, Note_on_c, 0, 44, 22
3, 77490, Note_on_c, 0, 51, 22
3, 77520, Note_on_c, 0, 60, 27
3, 78240, Note_on_c, 0, 60, 0
3, 78240, Note_on_c, 0, 51, 0
3, 78240, Note_on_c, 0, 44, 0
3, 78240, Note_on_c, 0, 48, 15
3, 78240, Note_on_c, 0, 51, 18
3, 78960, Note_on_c, 0, 51, 0
3, 78960, Note_on_c, 0, 48, 0
3, 78960, Note_on_c, 0, 46, 14
3, 78960, Note_on_c, 0, 55, 14
3, 79680, Note_on_c, 0, 55, 0
3, 79680, Note_on_c, 0, 46, 0
3, 79680, Note_on_c, 0, 46, 14
3, 79680, Note_on_c, 0, 56, 14
3, 80640, Note_on_c, 0, 56, 0
3, 80640, Note_on_c, 0, 46, 0
3, 80640, Note_on_c, 0, 51, 13
3, 80640, Note_on_c, 0, 55, 17
3, 81120, Note_on_c, 0, 55, 0
3, 81120, Note_on_c, 0, 51, 0
3, 81360, Note_on_c, 0, 27, 10
3, 81360, Note_on_c, 0, 39, 12
3, 81840, Note_on_c, 0, 39, 0
3, 81840, Note_on_c, 0, 27, 0
3, 82080, Note_on_c, 0, 51, 11
3, 82080, Note_on_c, 0, 55, 11
3, 82080, Note_on_c, 0, 63, 14
3, 82800, Note_on_c, 0, 63, 0
3, 82800, Note_on_c, 0, 55, 0
3, 82800, Note_on_c, 0, 51, 0
3, 82800, End_track
4, 0, Start_track
4, 0, Title_t, "Pedale"
4, 0, Program_c, 0, 0
4, 1200, Control_c, 0, 64, 127
4, 1941, Control_c, 0, 64, 0
4, 2047, Control_c, 0, 64, 127
4, 2177, Control_c, 0, 64, 0
4, 2252, Control_c, 0, 64, 127
4, 2653, Control_c, 0, 64, 0
4, 2711, Control_c, 0, 64, 127
4, 2892, Control_c, 0, 64, 0
4, 3028, Control_c, 0, 64, 127
4, 3373, Control_c, 0, 64, 0
4, 3445, Control_c, 0, 64, 127
4, 4098, Control_c, 0, 64, 0
4, 4165, Control_c, 0, 64, 127
4, 4328, Control_c, 0, 64, 0
4, 4405, Control_c, 0, 64, 127
4, 4820, Control_c, 0, 64, 0
4, 4899, Control_c, 0, 64, 127
4, 5057, Control_c, 0, 64, 0
4, 5139, Control_c, 0, 64, 127
4, 5538, Control_c, 0, 64, 0
4, 5626, Control_c, 0, 64, 127
4, 5774, Control_c, 0, 64, 0
4, 5810, Control_c, 0, 64, 127
4, 6259, Control_c, 0, 64, 0
4, 6332, Control_c, 0, 64, 127
4, 6496, Control_c, 0, 64, 0
4, 6632, Control_c, 0, 64, 127
4, 7200, Control_c, 0, 64, 0
4, 7299, Control_c, 0, 64, 127
4, 7701, Control_c, 0, 64, 0
4, 7807, Control_c, 0, 64, 127
4, 7937, Control_c, 0, 64, 0
4, 8012, Control_c, 0, 64, 127
4, 8413, Control_c, 0, 64, 0
4, 8471, Control_c, 0, 64, 127
4, 8640, Control_c, 0, 64, 0
4, 8739, Control_c, 0, 64, 127
4, 9141, Control_c, 0, 64, 0
4, 9247, Control_c, 0, 64, 127
4, 9347, Control_c, 0, 64, 0
4, 9446, Control_c, 0, 64, 127
4, 9848, Control_c, 0, 64, 0
4, 9954, Control_c, 0, 64, 127
4, 10080, Control_c, 0, 64, 0
4, 10207, Control_c, 0, 64, 127
4, 10577, Control_c, 0, 64, 0
4, 10624, Control_c, 0, 64, 127
4, 10814, Control_c, 0, 64, 0
4, 10899, Control_c, 0, 64, 127
4, 11298, Control_c, 0, 64, 0
4, 11358, Control_c, 0, 64, 127
4, 11526, Control_c, 0, 64, 0
4, 11598, Control_c, 0, 64, 127
4, 12014, Control_c, 0, 64, 0
4, 12078, Control_c, 0, 64, 127
4, 12256, Control_c, 0, 64, 0
4, 12325, Control_c, 0, 64, 127
4, 12736, Control_c, 0, 64, 0
4, 12791, Control_c, 0, 64, 127
4, 12960, Control_c, 0, 64, 0
4, 13017, Control_c, 0, 64, 127
4, 13461, Control_c, 0, 64, 0
4, 13567, Control_c, 0, 64, 127
4, 13697, Control_c, 0, 64, 0
4, 13772, Control_c, 0, 64, 127
4, 14173, Control_c, 0, 64, 0
4, 14231, Control_c, 0, 64, 127
4, 14412, Control_c, 0, 64, 0
4, 14548, Control_c, 0, 64, 127
4, 14893, Control_c, 0, 64, 0
4, 14965, Control_c, 0, 64, 127
4, 15618, Control_c, 0, 64, 0
4, 15685, Control_c, 0, 64, 127
4, 15848, Control_c, 0, 64, 0
4, 15925, Control_c, 0, 64, 127
4, 16340, Control_c, 0, 64, 0
4, 16419, Control_c, 0, 64, 127
4, 16577, Control_c, 0, 64, 0
4, 16659, Control_c, 0, 64, 127
4, 17058, Control_c, 0, 64, 0
4, 17146, Control_c, 0, 64, 127
4, 17294, Control_c, 0, 64, 0
4, 17330, Control_c, 0, 64, 127
4, 17779, Control_c, 0, 64, 0
4, 17852, Control_c, 0, 64, 127
4, 18016, Control_c, 0, 64, 0
4, 18152, Control_c, 0, 64, 127
4, 18720, Control_c, 0, 64, 0
4, 18827, Control_c, 0, 64, 127
4, 19221, Control_c, 0, 64, 0
4, 19327, Control_c, 0, 64, 127
4, 19697, Control_c, 0, 64, 0
4, 19827, Control_c, 0, 64, 127
4, 20160, Control_c, 0, 64, 0
4, 20238, Control_c, 0, 64, 127
4, 20418, Control_c, 0, 64, 0
4, 20478, Control_c, 0, 64, 127
4, 20651, Control_c, 0, 64, 0
4, 20718, Control_c, 0, 64, 127
4, 20901, Control_c, 0, 64, 0
4, 21000, Control_c, 0, 64, 127
4, 21378, Control_c, 0, 64, 0
4, 21445, Control_c, 0, 64, 127
4, 21608, Control_c, 0, 64, 0
4, 21685, Control_c, 0, 64, 127
4, 22100, Control_c, 0, 64, 0
4, 22179, Control_c, 0, 64, 127
4, 22337, Control_c, 0, 64, 0
4, 22419, Control_c, 0, 64, 127
4, 22576, Control_c, 0, 64, 0
4, 22659, Control_c, 0, 64, 127
4, 22818, Control_c, 0, 64, 0
4, 22906, Control_c, 0, 64, 127
4, 23054, Control_c, 0, 64, 0
4, 23090, Control_c, 0, 64, 127
4, 23539, Control_c, 0, 64, 0
4, 23612, Control_c, 0, 64, 127
4, 23776, Control_c, 0, 64, 0
4, 23880, Control_c, 0, 64, 127
4, 24258, Control_c, 0, 64, 0
4, 24488, Control_c, 0, 64, 0
4, 24565, Control_c, 0, 64, 127
4, 24731, Control_c, 0, 64, 0
4, 24812, Control_c, 0, 64, 127
4, 24980, Control_c, 0, 64, 0
4, 25059, Control_c, 0, 64, 127
4, 25217, Control_c, 0, 64, 0
4, 25299, Control_c, 0, 64, 127
4, 25700, Control_c, 0, 64, 0
4, 25977, Control_c, 0, 64, 127
4, 26170, Control_c, 0, 64, 0
4, 26252, Control_c, 0, 64, 127
4, 26477, Control_c, 0, 64, 0
4, 26560, Control_c, 0, 64, 127
4, 26659, Control_c, 0, 64, 0
4, 26812, Control_c, 0, 64, 127
4, 27138, Control_c, 0, 64, 0
4, 27368, Control_c, 0, 64, 0
4, 27445, Control_c, 0, 64, 127
4, 27611, Control_c, 0, 64, 0
4, 27692, Control_c, 0, 64, 127
4, 27860, Control_c, 0, 64, 0
4, 27939, Control_c, 0, 64, 127
4, 28097, Control_c, 0, 64, 0
4, 28179, Control_c, 0, 64, 127
4, 28578, Control_c, 0, 64, 0
4, 28808, Control_c, 0, 64, 0
4, 28885, Control_c, 0, 64, 127
4, 29051, Control_c, 0, 64, 0
4, 29132, Control_c, 0, 64, 127
4, 29300, Control_c, 0, 64, 0
4, 29379, Control_c, 0, 64, 127
4, 29537, Control_c, 0, 64, 0
4, 29619, Control_c, 0, 64, 127
4, 29779, Control_c, 0, 64, 0
4, 29852, Control_c, 0, 64, 127
4, 30018, Control_c, 0, 64, 0
4, 30103, Control_c, 0, 64, 127
4, 30254, Control_c, 0, 64, 0
4, 30297, Control_c, 0, 64, 127
4, 30968, Control_c, 0, 64, 0
4, 31038, Control_c, 0, 64, 127
4, 31694, Control_c, 0, 64, 0
4, 31749, Control_c, 0, 64, 127
4, 32408, Control_c, 0, 64, 0
4, 32457, Control_c, 0, 64, 127
4, 33134, Control_c, 0, 64, 0
4, 33205, Control_c, 0, 64, 127
4, 33848, Control_c, 0, 64, 0
4, 33939, Control_c, 0, 64, 127
4, 34574, Control_c, 0, 64, 0
4, 34652, Control_c, 0, 64, 127
4, 35288, Control_c, 0, 64, 0
4, 35351, Control_c, 0, 64, 127
4, 36014, Control_c, 0, 64, 0
4, 36069, Control_c, 0, 64, 127
4, 36728, Control_c, 0, 64, 0
4, 36783, Control_c, 0, 64, 127
4, 37447, Control_c, 0, 64, 0
4, 38400, Control_c, 0, 64, 127
4, 38894, Control_c, 0, 64, 0
4, 38932, Control_c, 0, 64, 127
4, 39608, Control_c, 0, 64, 0
4, 39652, Control_c, 0, 64, 127
4, 40320, Control_c, 0, 64, 0
4, 40515, Control_c, 0, 64, 127
4, 41052, Control_c, 0, 64, 0
4, 41200, Control_c, 0, 64, 127
4, 41774, Control_c, 0, 64, 0
4, 41817, Control_c, 0, 64, 127
4, 42488, Control_c, 0, 64, 0
4, 42558, Control_c, 0, 64, 127
4, 43214, Control_c, 0, 64, 0
4, 43269, Control_c, 0, 64, 127
4, 43928, Control_c, 0, 64, 0
4, 43977, Control_c, 0, 64, 127
4, 44654, Control_c, 0, 64, 0
4, 44725, Control_c, 0, 64, 127
4, 45368, Control_c, 0, 64, 0
4, 45459, Control_c, 0, 64, 127
4, 46094, Control_c, 0, 64, 0
4, 46172, Control_c, 0, 64, 127
4, 46808, Control_c, 0, 64, 0
4, 46871, Control_c, 0, 64, 127
4, 47534, Control_c, 0, 64, 0
4, 47589, Control_c, 0, 64, 127
4, 48248, Control_c, 0, 64, 0
4, 48303, Control_c, 0, 64, 127
4, 48967, Control_c, 0, 64, 0
4, 49920, Control_c, 0, 64, 127
4, 50414, Control_c, 0, 64, 0
4, 50452, Control_c, 0, 64, 127
4, 51128, Control_c, 0, 64, 0
4, 51172, Control_c, 0, 64, 127
4, 51847, Control_c, 0, 64, 0
4, 52035, Control_c, 0, 64, 127
4, 53280, Control_c, 0, 64, 0
4, 53454, Control_c, 0, 64, 127
4, 54720, Control_c, 0, 64, 0
4, 54808, Control_c, 0, 64, 127
4, 55221, Control_c, 0, 64, 0
4, 55327, Control_c, 0, 64, 127
4, 55457, Control_c, 0, 64, 0
4, 55532, Control_c, 0, 64, 127
4, 55933, Control_c, 0, 64, 0
4, 55991, Control_c, 0, 64, 127
4, 56172, Control_c, 0, 64, 0
4, 56308, Control_c, 0, 64, 127
4, 56653, Control_c, 0, 64, 0
4, 56725, Control_c, 0, 64, 127
4, 56893, Control_c, 0, 64, 0
4, 56972, Control_c, 0, 64, 127
4, 57378, Control_c, 0, 64, 0
4, 57445, Control_c, 0, 64, 127
4, 57608, Control_c, 0, 64, 0
4, 57685, Control_c, 0, 64, 127
4, 58100, Control_c, 0, 64, 0
4, 58179, Control_c, 0, 64, 127
4, 58337, Control_c, 0, 64, 0
4, 58419, Control_c, 0, 64, 127
4, 58818, Control_c, 0, 64, 0
4, 58906, Control_c, 0, 64, 127
4, 59054, Control_c, 0, 64, 0
4, 59090, Control_c, 0, 64, 127
4, 59539, Control_c, 0, 64, 0
4, 59612, Control_c, 0, 64, 127
4, 59776, Control_c, 0, 64, 0
4, 59912, Control_c, 0, 64, 127
4, 60480, Control_c, 0, 64, 0
4, 60579, Control_c, 0, 64, 127
4, 60981, Control_c, 0, 64, 0
4, 61087, Control_c, 0, 64, 127
4, 61217, Control_c, 0, 64, 0
4, 61292, Control_c, 0, 64, 127
4, 61693, Control_c, 0, 64, 0
4, 61751, Control_c, 0, 64, 127
4, 61920, Control_c, 0, 64, 0
4, 62019, Control_c, 0, 64, 127
4, 62421, Control_c, 0, 64, 0
4, 62527, Control_c, 0, 64, 127
4, 62627, Control_c, 0, 64, 0
4, 62726, Control_c, 0, 64, 127
4, 63128, Control_c, 0, 64, 0
4, 63234, Control_c, 0, 64, 127
4, 63360, Control_c, 0, 64, 0
4, 63487, Control_c, 0, 64, 127
4, 63857, Control_c, 0, 64, 0
4, 63904, Control_c, 0, 64, 127
4, 64094, Control_c, 0, 64, 0
4, 64179, Control_c, 0, 64, 127
4, 64578, Control_c, 0, 64, 0
4, 64638, Control_c, 0, 64, 127
4, 64806, Control_c, 0, 64, 0
4, 64878, Control_c, 0, 64, 127
4, 65294, Control_c, 0, 64, 0
4, 65358, Control_c, 0, 64, 127
4, 65536, Control_c, 0, 64, 0
4, 65605, Control_c, 0, 64, 127
4, 66016, Control_c, 0, 64, 0
4, 66071, Control_c, 0, 64, 127
4, 66240, Control_c, 0, 64, 0
4, 66297, Control_c, 0, 64, 127
4, 66741, Control_c, 0, 64, 0
4, 66847, Control_c, 0, 64, 127
4, 66977, Control_c, 0, 64, 0
4, 67052, Control_c, 0, 64, 127
4, 67453, Control_c, 0, 64, 0
4, 67511, Control_c, 0, 64, 127
4, 67692, Control_c, 0, 64, 0
4, 67828, Control_c, 0, 64, 127
4, 68173, Control_c, 0, 64, 0
4, 68245, Control_c, 0, 64, 127
4, 68898, Control_c, 0, 64, 0
4, 68965, Control_c, 0, 64, 127
4, 69128, Control_c, 0, 64, 0
4, 69205, Control_c, 0, 64, 127
4, 69620, Control_c, 0, 64, 0
4, 69699, Control_c, 0, 64, 127
4, 69857, Control_c, 0, 64, 0
4, 69939, Control_c, 0, 64, 127
4, 70338, Control_c, 0, 64, 0
4, 70426, Control_c, 0, 64, 127
4, 70574, Control_c, 0, 64, 0
4, 70610, Control_c, 0, 64, 127
4, 71059, Control_c, 0, 64, 0
4, 71132, Control_c, 0, 64, 127
4, 71296, Control_c, 0, 64, 0
4, 71432, Control_c, 0, 64, 127
4, 72000, Control_c, 0, 64, 0
4, 72107, Control_c, 0, 64, 127
4, 72501, Control_c, 0, 64, 0
4, 72607, Control_c, 0, 64, 127
4, 72977, Control_c, 0, 64, 0
4, 73038, Control_c, 0, 64, 127
4, 73440, Control_c, 0, 64, 0
4, 73518, Control_c, 0, 64, 127
4, 73698, Control_c, 0, 64, 0
4, 73758, Control_c, 0, 64, 127
4, 73931, Control_c, 0, 64, 0
4, 73998, Control_c, 0, 64, 127
4, 74181, Control_c, 0, 64, 0
4, 74280, Control_c, 0, 64, 127
4, 74658, Control_c, 0, 64, 0
4, 74725, Control_c, 0, 64, 127
4, 74888, Control_c, 0, 64, 0
4, 74965, Control_c, 0, 64, 127
4, 75380, Control_c, 0, 64, 0
4, 75459, Control_c, 0, 64, 127
4, 75617, Control_c, 0, 64, 0
4, 75699, Control_c, 0, 64, 127
4, 75856, Control_c, 0, 64, 0
4, 75939, Control_c, 0, 64, 127
4, 76098, Control_c, 0, 64, 0
4, 76186, Control_c, 0, 64, 127
4, 76334, Control_c, 0, 64, 0
4, 76370, Control_c, 0, 64, 127
4, 76819, Control_c, 0, 64, 0
4, 76892, Control_c, 0, 64, 127
4, 77056, Control_c, 0, 64, 0
4, 77160, Control_c, 0, 64, 127
4, 77476, Control_c, 0, 64, 0
4, 77520, Control_c, 0, 64, 127
4, 78255, Control_c, 0, 64, 0
4, 78377, Control_c, 0, 64, 127
4, 78968, Control_c, 0, 64, 0
4, 79120, Control_c, 0, 64, 127
4, 79691, Control_c, 0, 64, 0
4, 79772, Control_c, 0, 64, 127
4, 80654, Control_c, 0, 64, 0
4, 80827, Control_c, 0, 64, 127
4, 83520, Control_c, 0, 64, 0
4, 83520, End_track
5, 0, Start_track
5, 0, Title_t, "Brahms: Intermezzo Opus 117 No. 1"
5, 0, End_track
6, 0, Start_track
6, 0, Title_t, "Copyright © 2010 by Bernd Krueger"
6, 0, End_track
7, 0, Start_track
7, 0, Title_t, "http://www.piano-midi.de/"
7, 0, End_track
8, 0, Start_track
8, 0, Title_t, "Edition: 2010-10-09"
8, 0, End_track
9, 0, Start_track
9, 0, Title_t, "Spur 8"
9, 0, End_track
10, 0, Start_track
10, 0, Title_t, "Spur 9"
10, 0, End_track
11, 0, Start_track
11, 0, Title_t, "Spur 10"
11, 0, End_track
12, 0, Start_track
12, 0, Title_t, "Spur 11"
12, 0, End_track
13, 0, Start_track
13, 0, Title_t, "Spur 12"
13, 0, End_track
14, 0, Start_track
14, 0, Title_t, "Spur 13"
14, 0, End_track
15, 0, Start_track
15, 0, Title_t, "Spur 14"
15, 0, End_track
16, 0, Start_track
16, 0, Title_t, "Spur 15"
16, 0, End_track
17, 0, Start_track
17, 0, Title_t, "Spur 16"
17, 0, End_track
0, 0, End_of_file
