0, 0, Header, 1, 8, 480
1, 0, Start_track
1, 0, Title_t, "Etueden Opus 109"
1, 0, Title_t, "Geschwindigkeit"
1, 0, Copyright_t, "Copyright © 2012 by Bernd Krueger"
1, 0, Text_t, "Friedrich Burgmueller"
1, 0, Text_t, "Vivo"
1, 0, Text_t, "Erstellt:  22.4.2012\012"
1, 0, Text_t, "Dauer: 1:10 Minuten\012"
1, 0, SMPTE_offset, 96, 0, 3, 0, 0
1, 0, Time_signature, 6, 3, 12, 8
1, 0, Key_signature, 0, "major"
1, 0, Tempo, 478088
1, 0, Marker_t, "Teil 1"
1, 40, Tempo, 476190
1, 80, Tempo, 474308
1, 120, Tempo, 472441
1, 140, Tempo, 470588
1, 180, Tempo, 468750
1, 220, Tempo, 466926
1, 240, Tempo, 465116
1, 280, Tempo, 463320
1, 320, Tempo, 461538
1, 340, Tempo, 459770
1, 380, Tempo, 458015
1, 420, Tempo, 456274
1, 440, Tempo, 454545
1, 560, Tempo, 452830
1, 720, Tempo, 449438
1, 820, Tempo, 451128
1, 900, Tempo, 452830
1, 1000, Tempo, 454545
1, 1080, Tempo, 456274
1, 1180, Tempo, 458015
1, 1260, Tempo, 459770
1, 1340, Tempo, 461538
1, 1420, Tempo, 461538
1, 1560, Tempo, 459770
1, 1680, Tempo, 458015
1, 1820, Tempo, 456274
1, 1940, Tempo, 454545
1, 2080, Tempo, 452830
1, 2200, Tempo, 451128
1, 2320, Tempo, 452830
1, 2420, Tempo, 454545
1, 2520, Tempo, 456274
1, 2640, Tempo, 458015
1, 2740, Tempo, 459770
1, 2760, Tempo, 497925
1, 2840, Tempo, 461538
1, 2860, Tempo, 463320
1, 3020, Tempo, 461538
1, 3180, Tempo, 459770
1, 3340, Tempo, 458015
1, 3500, Tempo, 456274
1, 3660, Tempo, 458015
1, 3820, Tempo, 459770
1, 3980, Tempo, 461538
1, 4140, Tempo, 463320
1, 4280, Tempo, 465116
1, 4320, Tempo, 463320
1, 4520, Tempo, 461538
1, 4720, Tempo, 459770
1, 4920, Tempo, 458015
1, 5120, Tempo, 456274
1, 5180, Tempo, 458015
1, 5220, Tempo, 459770
1, 5260, Tempo, 461538
1, 5300, Tempo, 463320
1, 5340, Tempo, 465116
1, 5400, Tempo, 466926
1, 5440, Tempo, 468750
1, 5480, Tempo, 470588
1, 5520, Tempo, 472441
1, 5560, Tempo, 474308
1, 5600, Tempo, 476190
1, 5640, Tempo, 530973
1, 5740, Tempo, 468750
1, 5860, Tempo, 466926
1, 5980, Tempo, 465116
1, 6080, Tempo, 463320
1, 6200, Tempo, 461538
1, 6300, Tempo, 459770
1, 6420, Tempo, 458015
1, 6520, Tempo, 456274
1, 6660, Tempo, 458015
1, 6800, Tempo, 459770
1, 6920, Tempo, 461538
1, 7060, Tempo, 463320
1, 7180, Tempo, 465116
1, 7200, Tempo, 461538
1, 7220, Tempo, 466926
1, 7340, Tempo, 465116
1, 7460, Tempo, 463320
1, 7580, Tempo, 461538
1, 7700, Tempo, 459770
1, 7820, Tempo, 458015
1, 7900, Tempo, 454545
1, 7980, Tempo, 456274
1, 8060, Tempo, 458015
1, 8140, Tempo, 459770
1, 8200, Tempo, 461538
1, 8280, Tempo, 463320
1, 8360, Tempo, 465116
1, 8440, Tempo, 466926
1, 8500, Tempo, 468750
1, 8520, Tempo, 489796
1, 8620, Tempo, 468750
1, 8720, Tempo, 466926
1, 8820, Tempo, 465116
1, 8920, Tempo, 463320
1, 9020, Tempo, 461538
1, 9120, Tempo, 459770
1, 9300, Tempo, 461538
1, 9680, Tempo, 463320
1, 10040, Tempo, 465116
1, 10280, Tempo, 463320
1, 10520, Tempo, 461538
1, 10700, Tempo, 465116
1, 10780, Tempo, 466926
1, 10840, Tempo, 468750
1, 10900, Tempo, 470588
1, 10920, Tempo, 470588
1, 10940, Tempo, 472441
1, 10960, Tempo, 474308
1, 10980, Tempo, 476190
1, 11000, Tempo, 478088
1, 11020, Tempo, 480000
1, 11040, Tempo, 481928
1, 11060, Tempo, 483871
1, 11080, Tempo, 481928
1, 11100, Tempo, 483871
1, 11120, Tempo, 485830
1, 11140, Tempo, 487805
1, 11160, Tempo, 491803
1, 11180, Tempo, 493827
1, 11200, Tempo, 495868
1, 11220, Tempo, 500000
1, 11240, Tempo, 502092
1, 11260, Tempo, 504202
1, 11280, Tempo, 508475
1, 11320, Tempo, 519481
1, 11360, Tempo, 521739
1, 11380, Tempo, 524017
1, 11400, Tempo, 526316
1, 11500, Tempo, 483871
1, 11520, Tempo, 485830
1, 11520, Marker_t, "Teil 1 Wiederholung"
1, 11560, Tempo, 483871
1, 11600, Tempo, 481928
1, 11620, Tempo, 480000
1, 11660, Tempo, 478088
1, 11680, Tempo, 476190
1, 11720, Tempo, 474308
1, 11740, Tempo, 472441
1, 11780, Tempo, 470588
1, 11820, Tempo, 468750
1, 11840, Tempo, 466926
1, 11880, Tempo, 465116
1, 11900, Tempo, 463320
1, 11940, Tempo, 461538
1, 11960, Tempo, 459770
1, 12080, Tempo, 452830
1, 12240, Tempo, 449438
1, 12340, Tempo, 451128
1, 12420, Tempo, 452830
1, 12520, Tempo, 454545
1, 12600, Tempo, 456274
1, 12700, Tempo, 458015
1, 12780, Tempo, 459770
1, 12860, Tempo, 461538
1, 12940, Tempo, 461538
1, 13080, Tempo, 459770
1, 13200, Tempo, 458015
1, 13340, Tempo, 456274
1, 13460, Tempo, 454545
1, 13600, Tempo, 452830
1, 13720, Tempo, 451128
1, 13840, Tempo, 452830
1, 13940, Tempo, 454545
1, 14040, Tempo, 456274
1, 14160, Tempo, 458015
1, 14260, Tempo, 459770
1, 14280, Tempo, 497925
1, 14360, Tempo, 461538
1, 14380, Tempo, 463320
1, 14540, Tempo, 461538
1, 14700, Tempo, 459770
1, 14860, Tempo, 458015
1, 15020, Tempo, 456274
1, 15180, Tempo, 458015
1, 15340, Tempo, 459770
1, 15500, Tempo, 461538
1, 15660, Tempo, 463320
1, 15800, Tempo, 465116
1, 15840, Tempo, 463320
1, 16040, Tempo, 461538
1, 16240, Tempo, 459770
1, 16440, Tempo, 458015
1, 16640, Tempo, 456274
1, 16700, Tempo, 458015
1, 16740, Tempo, 459770
1, 16780, Tempo, 461538
1, 16820, Tempo, 463320
1, 16860, Tempo, 465116
1, 16920, Tempo, 466926
1, 16960, Tempo, 468750
1, 17000, Tempo, 470588
1, 17040, Tempo, 472441
1, 17080, Tempo, 474308
1, 17120, Tempo, 476190
1, 17160, Tempo, 530973
1, 17260, Tempo, 468750
1, 17380, Tempo, 466926
1, 17500, Tempo, 465116
1, 17600, Tempo, 463320
1, 17720, Tempo, 461538
1, 17820, Tempo, 459770
1, 17940, Tempo, 458015
1, 18040, Tempo, 456274
1, 18180, Tempo, 458015
1, 18320, Tempo, 459770
1, 18440, Tempo, 461538
1, 18580, Tempo, 463320
1, 18700, Tempo, 465116
1, 18720, Tempo, 461538
1, 18740, Tempo, 466926
1, 18860, Tempo, 465116
1, 18980, Tempo, 463320
1, 19100, Tempo, 461538
1, 19220, Tempo, 459770
1, 19340, Tempo, 458015
1, 19420, Tempo, 454545
1, 19500, Tempo, 456274
1, 19580, Tempo, 458015
1, 19660, Tempo, 459770
1, 19720, Tempo, 461538
1, 19800, Tempo, 463320
1, 19880, Tempo, 465116
1, 19960, Tempo, 466926
1, 20020, Tempo, 468750
1, 20040, Tempo, 489796
1, 20140, Tempo, 468750
1, 20240, Tempo, 466926
1, 20340, Tempo, 465116
1, 20440, Tempo, 463320
1, 20540, Tempo, 461538
1, 20640, Tempo, 459770
1, 20820, Tempo, 461538
1, 21200, Tempo, 463320
1, 21560, Tempo, 465116
1, 21800, Tempo, 463320
1, 22040, Tempo, 461538
1, 22220, Tempo, 485830
1, 22360, Tempo, 491803
1, 22400, Tempo, 493827
1, 22440, Tempo, 495868
1, 22480, Tempo, 497925
1, 22520, Tempo, 500000
1, 22540, Tempo, 502092
1, 22580, Tempo, 504202
1, 22620, Tempo, 506329
1, 22660, Tempo, 508475
1, 22700, Tempo, 510638
1, 22720, Tempo, 512821
1, 22760, Tempo, 515021
1, 22800, Tempo, 517241
1, 22840, Tempo, 519481
1, 22880, Tempo, 521739
1, 22900, Tempo, 524017
1, 22920, Tempo, 538117
1, 23012, Tempo, 485830
1, 23032, Tempo, 483871
1, 23040, Marker_t, "Teil 2"
1, 23052, Tempo, 481928
1, 23072, Tempo, 480000
1, 23092, Tempo, 478088
1, 23112, Tempo, 476190
1, 23132, Tempo, 474308
1, 23152, Tempo, 472441
1, 23172, Tempo, 470588
1, 23192, Tempo, 468750
1, 23212, Tempo, 466926
1, 23232, Tempo, 465116
1, 23252, Tempo, 461538
1, 23282, Tempo, 461538
1, 23362, Tempo, 459770
1, 23442, Tempo, 458015
1, 23502, Tempo, 456274
1, 23542, Tempo, 458015
1, 23582, Tempo, 459770
1, 23622, Tempo, 461538
1, 23662, Tempo, 463320
1, 23702, Tempo, 465116
1, 23742, Tempo, 466926
1, 23760, Tempo, 502092
1, 23862, Tempo, 465116
1, 24182, Tempo, 463320
1, 24342, Tempo, 465116
1, 24360, Tempo, 512821
1, 24460, Tempo, 461538
1, 24462, Tempo, 468750
1, 24502, Tempo, 470588
1, 24582, Tempo, 468750
1, 24662, Tempo, 466926
1, 24742, Tempo, 465116
1, 24822, Tempo, 463320
1, 24882, Tempo, 461538
1, 25080, Tempo, 515021
1, 25200, Tempo, 483871
1, 25440, Tempo, 493827
1, 25780, Tempo, 459770
1, 25800, Tempo, 542986
1, 25920, Tempo, 461538
1, 25922, Tempo, 468750
1, 26002, Tempo, 466926
1, 26082, Tempo, 465116
1, 26162, Tempo, 463320
1, 26242, Tempo, 461538
1, 26322, Tempo, 459770
1, 26342, Tempo, 458015
1, 26402, Tempo, 459770
1, 26462, Tempo, 461538
1, 26502, Tempo, 463320
1, 26562, Tempo, 465116
1, 26602, Tempo, 466926
1, 26640, Tempo, 502092
1, 26742, Tempo, 454545
1, 26782, Tempo, 466926
1, 26862, Tempo, 465116
1, 26942, Tempo, 463320
1, 27022, Tempo, 461538
1, 27082, Tempo, 459770
1, 27122, Tempo, 451128
1, 27142, Tempo, 452830
1, 27162, Tempo, 454545
1, 27182, Tempo, 456274
1, 27202, Tempo, 459770
1, 27240, Tempo, 512821
1, 27340, Tempo, 461538
1, 27342, Tempo, 468750
1, 27382, Tempo, 470588
1, 27502, Tempo, 468750
1, 27602, Tempo, 466926
1, 27702, Tempo, 465116
1, 27802, Tempo, 463320
1, 27842, Tempo, 465116
1, 27882, Tempo, 466926
1, 27922, Tempo, 468750
1, 27960, Tempo, 515021
1, 28080, Tempo, 485830
1, 28320, Tempo, 493827
1, 28660, Tempo, 459770
1, 28680, Tempo, 497925
1, 28760, Tempo, 461538
1, 28780, Tempo, 463320
1, 28800, Tempo, 483871
1, 28812, Tempo, 481928
1, 28832, Tempo, 480000
1, 28852, Tempo, 478088
1, 28872, Tempo, 476190
1, 28892, Tempo, 474308
1, 28912, Tempo, 472441
1, 28932, Tempo, 470588
1, 28952, Tempo, 468750
1, 28972, Tempo, 466926
1, 28992, Tempo, 465116
1, 29012, Tempo, 461538
1, 29042, Tempo, 461538
1, 29122, Tempo, 459770
1, 29202, Tempo, 458015
1, 29262, Tempo, 456274
1, 29302, Tempo, 458015
1, 29342, Tempo, 459770
1, 29382, Tempo, 461538
1, 29422, Tempo, 463320
1, 29462, Tempo, 465116
1, 29502, Tempo, 466926
1, 29520, Tempo, 502092
1, 29622, Tempo, 465116
1, 29942, Tempo, 463320
1, 30102, Tempo, 465116
1, 30120, Tempo, 512821
1, 30220, Tempo, 461538
1, 30222, Tempo, 468750
1, 30262, Tempo, 470588
1, 30342, Tempo, 468750
1, 30422, Tempo, 466926
1, 30502, Tempo, 465116
1, 30582, Tempo, 463320
1, 30642, Tempo, 461538
1, 30840, Tempo, 515021
1, 30960, Tempo, 483871
1, 31200, Tempo, 493827
1, 31540, Tempo, 459770
1, 31560, Tempo, 542986
1, 31680, Tempo, 461538
1, 31682, Tempo, 468750
1, 31762, Tempo, 466926
1, 31842, Tempo, 465116
1, 31922, Tempo, 463320
1, 32002, Tempo, 461538
1, 32082, Tempo, 459770
1, 32102, Tempo, 458015
1, 32162, Tempo, 459770
1, 32222, Tempo, 461538
1, 32262, Tempo, 463320
1, 32322, Tempo, 465116
1, 32362, Tempo, 466926
1, 32400, Tempo, 502092
1, 32502, Tempo, 454545
1, 32542, Tempo, 466926
1, 32622, Tempo, 465116
1, 32702, Tempo, 463320
1, 32782, Tempo, 461538
1, 32842, Tempo, 459770
1, 32882, Tempo, 451128
1, 32902, Tempo, 452830
1, 32922, Tempo, 454545
1, 32942, Tempo, 456274
1, 32962, Tempo, 459770
1, 33000, Tempo, 512821
1, 33100, Tempo, 461538
1, 33102, Tempo, 468750
1, 33142, Tempo, 470588
1, 33262, Tempo, 468750
1, 33362, Tempo, 466926
1, 33462, Tempo, 465116
1, 33562, Tempo, 463320
1, 33602, Tempo, 465116
1, 33642, Tempo, 466926
1, 33682, Tempo, 468750
1, 33720, Tempo, 515021
1, 33840, Tempo, 485830
1, 34080, Tempo, 493827
1, 34420, Tempo, 459770
1, 34440, Tempo, 497925
1, 34520, Tempo, 461538
1, 34540, Tempo, 463320
1, 34560, Tempo, 483871
1, 34572, Tempo, 481928
1, 34592, Tempo, 480000
1, 34612, Tempo, 478088
1, 34632, Tempo, 476190
1, 34652, Tempo, 474308
1, 34672, Tempo, 472441
1, 34692, Tempo, 465116
1, 34852, Tempo, 463320
1, 34992, Tempo, 461538
1, 35052, Tempo, 463320
1, 35092, Tempo, 465116
1, 35152, Tempo, 466926
1, 35192, Tempo, 468750
1, 35232, Tempo, 470588
1, 35262, Tempo, 466926
1, 35280, Tempo, 502092
1, 35382, Tempo, 465116
1, 35702, Tempo, 463320
1, 35862, Tempo, 465116
1, 35880, Tempo, 566038
1, 35980, Tempo, 461538
1, 35982, Tempo, 468750
1, 36000, Tempo, 483871
1, 36012, Tempo, 481928
1, 36032, Tempo, 480000
1, 36052, Tempo, 478088
1, 36072, Tempo, 476190
1, 36092, Tempo, 474308
1, 36112, Tempo, 472441
1, 36132, Tempo, 465116
1, 36292, Tempo, 463320
1, 36432, Tempo, 461538
1, 36492, Tempo, 463320
1, 36532, Tempo, 465116
1, 36592, Tempo, 466926
1, 36632, Tempo, 468750
1, 36672, Tempo, 470588
1, 36702, Tempo, 466926
1, 36720, Tempo, 502092
1, 36822, Tempo, 465116
1, 37142, Tempo, 463320
1, 37302, Tempo, 465116
1, 37320, Tempo, 558140
1, 37420, Tempo, 461538
1, 37422, Tempo, 468750
1, 37440, Tempo, 483871
1, 37452, Tempo, 481928
1, 37472, Tempo, 480000
1, 37492, Tempo, 478088
1, 37512, Tempo, 476190
1, 37532, Tempo, 474308
1, 37552, Tempo, 472441
1, 37572, Tempo, 465116
1, 37732, Tempo, 463320
1, 37872, Tempo, 461538
1, 37932, Tempo, 463320
1, 37972, Tempo, 465116
1, 38032, Tempo, 466926
1, 38072, Tempo, 468750
1, 38112, Tempo, 470588
1, 38142, Tempo, 466926
1, 38160, Tempo, 483871
1, 38172, Tempo, 481928
1, 38192, Tempo, 480000
1, 38212, Tempo, 478088
1, 38232, Tempo, 476190
1, 38252, Tempo, 474308
1, 38272, Tempo, 472441
1, 38292, Tempo, 465116
1, 38452, Tempo, 463320
1, 38592, Tempo, 461538
1, 38652, Tempo, 463320
1, 38692, Tempo, 465116
1, 38752, Tempo, 466926
1, 38792, Tempo, 468750
1, 38832, Tempo, 470588
1, 38862, Tempo, 466926
1, 38880, Tempo, 483871
1, 38892, Tempo, 481928
1, 38912, Tempo, 480000
1, 38932, Tempo, 478088
1, 38952, Tempo, 476190
1, 38972, Tempo, 474308
1, 38992, Tempo, 472441
1, 39012, Tempo, 465116
1, 39172, Tempo, 463320
1, 39312, Tempo, 461538
1, 39372, Tempo, 463320
1, 39412, Tempo, 465116
1, 39472, Tempo, 466926
1, 39512, Tempo, 468750
1, 39552, Tempo, 470588
1, 39582, Tempo, 466926
1, 39600, Tempo, 483871
1, 39612, Tempo, 481928
1, 39632, Tempo, 480000
1, 39652, Tempo, 478088
1, 39672, Tempo, 476190
1, 39692, Tempo, 474308
1, 39712, Tempo, 472441
1, 39732, Tempo, 465116
1, 39892, Tempo, 463320
1, 40032, Tempo, 461538
1, 40092, Tempo, 463320
1, 40132, Tempo, 465116
1, 40192, Tempo, 466926
1, 40232, Tempo, 468750
1, 40272, Tempo, 470588
1, 40302, Tempo, 466926
1, 40312, Tempo, 447427
1, 40352, Tempo, 449102
1, 40392, Tempo, 450789
1, 40412, Tempo, 452489
1, 40452, Tempo, 454201
1, 40472, Tempo, 455927
1, 40512, Tempo, 457666
1, 40552, Tempo, 459418
1, 40572, Tempo, 461184
1, 40612, Tempo, 462963
1, 40632, Tempo, 464756
1, 40680, Tempo, 528634
1, 40800, Tempo, 466926
1, 40824, Tempo, 454201
1, 40864, Tempo, 455927
1, 40904, Tempo, 457666
1, 40944, Tempo, 459418
1, 40964, Tempo, 461184
1, 41004, Tempo, 462963
1, 41044, Tempo, 464756
1, 41084, Tempo, 466563
1, 41104, Tempo, 468384
1, 41160, Tempo, 526316
1, 41280, Tempo, 465116
1, 41284, Tempo, 459418
1, 41364, Tempo, 461184
1, 41424, Tempo, 462963
1, 41504, Tempo, 464756
1, 41564, Tempo, 466563
1, 41624, Tempo, 468384
1, 41640, Tempo, 519481
1, 41760, Tempo, 466926
1, 41764, Tempo, 455927
1, 41844, Tempo, 457666
1, 41904, Tempo, 459418
1, 41964, Tempo, 461184
1, 42024, Tempo, 462963
1, 42084, Tempo, 464756
1, 42120, Tempo, 528634
1, 42240, Tempo, 466926
1, 42244, Tempo, 455927
1, 42284, Tempo, 457666
1, 42324, Tempo, 459418
1, 42364, Tempo, 461184
1, 42404, Tempo, 462963
1, 42444, Tempo, 464756
1, 42484, Tempo, 466563
1, 42524, Tempo, 468384
1, 42544, Tempo, 470219
1, 42600, Tempo, 526316
1, 42720, Tempo, 465116
1, 42764, Tempo, 455927
1, 42804, Tempo, 457666
1, 42824, Tempo, 459418
1, 42844, Tempo, 461184
1, 42864, Tempo, 462963
1, 42904, Tempo, 464756
1, 42924, Tempo, 466563
1, 42944, Tempo, 468384
1, 42964, Tempo, 470219
1, 43004, Tempo, 472069
1, 43024, Tempo, 473934
1, 43044, Tempo, 475813
1, 43064, Tempo, 477707
1, 43080, Tempo, 519481
1, 43680, Tempo, 558140
1, 43920, Tempo, 540541
1, 44640, Tempo, 574163
1, 45120, Tempo, 613497
1, 45360, Tempo, 639659
1, 45600, Tempo, 696864
1, 45840, Tempo, 1039861
1, 46080, Tempo, 478088
1, 46080, Marker_t, "Teil 3"
1, 46120, Tempo, 476190
1, 46160, Tempo, 474308
1, 46200, Tempo, 472441
1, 46220, Tempo, 470588
1, 46260, Tempo, 468750
1, 46300, Tempo, 466926
1, 46320, Tempo, 465116
1, 46360, Tempo, 463320
1, 46400, Tempo, 461538
1, 46420, Tempo, 459770
1, 46460, Tempo, 458015
1, 46500, Tempo, 456274
1, 46520, Tempo, 454545
1, 46640, Tempo, 452830
1, 46800, Tempo, 449438
1, 46900, Tempo, 451128
1, 46980, Tempo, 452830
1, 47080, Tempo, 454545
1, 47160, Tempo, 456274
1, 47260, Tempo, 458015
1, 47340, Tempo, 459770
1, 47420, Tempo, 461538
1, 47500, Tempo, 461538
1, 47640, Tempo, 459770
1, 47760, Tempo, 458015
1, 47900, Tempo, 456274
1, 48020, Tempo, 454545
1, 48160, Tempo, 452830
1, 48280, Tempo, 451128
1, 48400, Tempo, 452830
1, 48500, Tempo, 454545
1, 48600, Tempo, 456274
1, 48720, Tempo, 458015
1, 48820, Tempo, 459770
1, 48840, Tempo, 497925
1, 48940, Tempo, 463320
1, 49100, Tempo, 461538
1, 49260, Tempo, 459770
1, 49420, Tempo, 458015
1, 49580, Tempo, 456274
1, 49740, Tempo, 458015
1, 49900, Tempo, 459770
1, 50060, Tempo, 461538
1, 50220, Tempo, 463320
1, 50360, Tempo, 465116
1, 50400, Tempo, 463320
1, 50600, Tempo, 461538
1, 50800, Tempo, 459770
1, 51000, Tempo, 458015
1, 51200, Tempo, 456274
1, 51260, Tempo, 458015
1, 51300, Tempo, 459770
1, 51340, Tempo, 461538
1, 51380, Tempo, 463320
1, 51420, Tempo, 465116
1, 51480, Tempo, 466926
1, 51520, Tempo, 468750
1, 51560, Tempo, 470588
1, 51600, Tempo, 472441
1, 51640, Tempo, 474308
1, 51680, Tempo, 476190
1, 51720, Tempo, 530973
1, 51820, Tempo, 468750
1, 51940, Tempo, 466926
1, 52060, Tempo, 465116
1, 52160, Tempo, 463320
1, 52280, Tempo, 461538
1, 52380, Tempo, 459770
1, 52500, Tempo, 458015
1, 52600, Tempo, 456274
1, 52740, Tempo, 458015
1, 52880, Tempo, 459770
1, 53000, Tempo, 461538
1, 53140, Tempo, 463320
1, 53160, Tempo, 506329
1, 53260, Tempo, 465116
1, 53280, Tempo, 468750
1, 53342, Tempo, 465116
1, 53422, Tempo, 463320
1, 53502, Tempo, 461538
1, 53562, Tempo, 459770
1, 53642, Tempo, 458015
1, 53702, Tempo, 456274
1, 53742, Tempo, 458015
1, 53782, Tempo, 459770
1, 53802, Tempo, 461538
1, 53842, Tempo, 463320
1, 53880, Tempo, 502092
1, 54000, Tempo, 502092
1, 54022, Tempo, 465116
1, 54102, Tempo, 463320
1, 54182, Tempo, 461538
1, 54262, Tempo, 459770
1, 54342, Tempo, 458015
1, 54382, Tempo, 459770
1, 54422, Tempo, 461538
1, 54462, Tempo, 463320
1, 54502, Tempo, 465116
1, 54542, Tempo, 466926
1, 54562, Tempo, 468750
1, 54580, Tempo, 463320
1, 54600, Tempo, 483871
1, 54700, Tempo, 465116
1, 54720, Tempo, 466926
1, 54820, Tempo, 466926
1, 54940, Tempo, 465116
1, 55040, Tempo, 463320
1, 55160, Tempo, 461538
1, 55260, Tempo, 459770
1, 55320, Tempo, 500000
1, 55380, Tempo, 458015
1, 55440, Tempo, 456274
1, 55480, Tempo, 456274
1, 55620, Tempo, 458015
1, 55760, Tempo, 459770
1, 55880, Tempo, 461538
1, 56020, Tempo, 463320
1, 56040, Tempo, 512821
1, 56140, Tempo, 465116
1, 56160, Tempo, 472441
1, 56280, Tempo, 451128
1, 56382, Tempo, 449438
1, 56562, Tempo, 451128
1, 56722, Tempo, 452830
1, 56902, Tempo, 454545
1, 57062, Tempo, 456274
1, 57102, Tempo, 458015
1, 57142, Tempo, 459770
1, 57182, Tempo, 461538
1, 57222, Tempo, 463320
1, 57262, Tempo, 465116
1, 57302, Tempo, 466926
1, 57322, Tempo, 468750
1, 57362, Tempo, 470588
1, 57402, Tempo, 472441
1, 57442, Tempo, 474308
1, 57482, Tempo, 476190
1, 57522, Tempo, 478088
1, 57562, Tempo, 480000
1, 57582, Tempo, 446097
1, 57642, Tempo, 447761
1, 57702, Tempo, 449438
1, 57742, Tempo, 451128
1, 57802, Tempo, 452830
1, 57862, Tempo, 454545
1, 57902, Tempo, 456274
1, 57962, Tempo, 458015
1, 58022, Tempo, 459770
1, 58062, Tempo, 461538
1, 58122, Tempo, 463320
1, 58162, Tempo, 465116
1, 58200, Tempo, 542986
1, 58322, Tempo, 447761
1, 58382, Tempo, 449438
1, 58442, Tempo, 451128
1, 58482, Tempo, 452830
1, 58542, Tempo, 454545
1, 58582, Tempo, 456274
1, 58642, Tempo, 458015
1, 58702, Tempo, 459770
1, 58742, Tempo, 461538
1, 58802, Tempo, 463320
1, 58842, Tempo, 465116
1, 58920, Tempo, 538117
1, 59040, Tempo, 446097
1, 59082, Tempo, 447761
1, 59142, Tempo, 449438
1, 59182, Tempo, 451128
1, 59242, Tempo, 452830
1, 59302, Tempo, 454545
1, 59342, Tempo, 456274
1, 59402, Tempo, 458015
1, 59462, Tempo, 459770
1, 59502, Tempo, 461538
1, 59562, Tempo, 463320
1, 59640, Tempo, 538117
1, 59762, Tempo, 447761
1, 59822, Tempo, 449438
1, 59882, Tempo, 451128
1, 59922, Tempo, 452830
1, 59982, Tempo, 454545
1, 60022, Tempo, 456274
1, 60082, Tempo, 458015
1, 60142, Tempo, 459770
1, 60182, Tempo, 461538
1, 60242, Tempo, 463320
1, 60282, Tempo, 465116
1, 60360, Tempo, 540541
1, 60480, Tempo, 446097
1, 60522, Tempo, 447761
1, 60582, Tempo, 449438
1, 60622, Tempo, 451128
1, 60682, Tempo, 452830
1, 60742, Tempo, 454545
1, 60782, Tempo, 456274
1, 60842, Tempo, 458015
1, 60902, Tempo, 459770
1, 60942, Tempo, 461538
1, 61002, Tempo, 463320
1, 61042, Tempo, 465116
1, 61080, Tempo, 535714
1, 61200, Tempo, 454545
1, 61302, Tempo, 456274
1, 61422, Tempo, 454545
1, 61522, Tempo, 452830
1, 61622, Tempo, 451128
1, 61680, Tempo, 504202
1, 61882, Tempo, 459770
1, 61982, Tempo, 458015
1, 62062, Tempo, 456274
1, 62142, Tempo, 454545
1, 62242, Tempo, 452830
1, 62322, Tempo, 451128
1, 62400, Tempo, 508475
1, 62640, Tempo, 456274
1, 62642, Tempo, 463320
1, 62722, Tempo, 461538
1, 62782, Tempo, 459770
1, 62862, Tempo, 458015
1, 62922, Tempo, 456274
1, 62982, Tempo, 454545
1, 63062, Tempo, 452830
1, 63120, Tempo, 558140
1, 63360, Tempo, 449438
1, 64080, Tempo, 465116
1, 64800, Tempo, 446097
1, 65520, Tempo, 487805
1, 66240, Tempo, 504202
1, 66240, End_track
2, 0, Start_track
2, 0, Title_t, "Piano right"
2, 0, Program_c, 0, 0
2, 0, Control_c, 0, 7, 127
2, 0, Control_c, 0, 10, 64
2, 0, Note_on_c, 0, 72, 40
2, 120, Note_on_c, 0, 72, 0
2, 120, Note_on_c, 0, 74, 42
2, 240, Note_on_c, 0, 74, 0
2, 240, Note_on_c, 0, 76, 46
2, 360, Note_on_c, 0, 76, 0
2, 360, Note_on_c, 0, 77, 49
2, 480, Note_on_c, 0, 77, 0
2, 480, Note_on_c, 0, 78, 52
2, 600, Note_on_c, 0, 78, 0
2, 600, Note_on_c, 0, 79, 54
2, 720, Note_on_c, 0, 79, 0
2, 720, Note_on_c, 0, 81, 55
2, 840, Note_on_c, 0, 81, 0
2, 840, Note_on_c, 0, 79, 51
2, 960, Note_on_c, 0, 79, 0
2, 960, Note_on_c, 0, 78, 53
2, 1080, Note_on_c, 0, 78, 0
2, 1080, Note_on_c, 0, 79, 50
2, 1200, Note_on_c, 0, 79, 0
2, 1200, Note_on_c, 0, 81, 53
2, 1320, Note_on_c, 0, 81, 0
2, 1320, Note_on_c, 0, 83, 49
2, 1440, Note_on_c, 0, 83, 0
2, 1440, Note_on_c, 0, 84, 46
2, 1560, Note_on_c, 0, 84, 0
2, 1560, Note_on_c, 0, 86, 48
2, 1680, Note_on_c, 0, 86, 0
2, 1680, Note_on_c, 0, 88, 52
2, 1800, Note_on_c, 0, 88, 0
2, 1800, Note_on_c, 0, 89, 56
2, 1920, Note_on_c, 0, 89, 0
2, 1920, Note_on_c, 0, 90, 59
2, 2040, Note_on_c, 0, 90, 0
2, 2040, Note_on_c, 0, 91, 62
2, 2160, Note_on_c, 0, 91, 0
2, 2160, Note_on_c, 0, 93, 63
2, 2280, Note_on_c, 0, 93, 0
2, 2280, Note_on_c, 0, 91, 58
2, 2400, Note_on_c, 0, 91, 0
2, 2400, Note_on_c, 0, 90, 60
2, 2520, Note_on_c, 0, 90, 0
2, 2520, Note_on_c, 0, 91, 57
2, 2640, Note_on_c, 0, 91, 0
2, 2640, Note_on_c, 0, 93, 60
2, 2760, Note_on_c, 0, 93, 0
2, 2760, Note_on_c, 0, 95, 56
2, 2880, Note_on_c, 0, 95, 0
2, 2880, Note_on_c, 0, 96, 65
2, 3000, Note_on_c, 0, 96, 0
2, 3000, Note_on_c, 0, 100, 67
2, 3120, Note_on_c, 0, 100, 0
2, 3120, Note_on_c, 0, 103, 69
2, 3240, Note_on_c, 0, 103, 0
2, 3240, Note_on_c, 0, 101, 64
2, 3360, Note_on_c, 0, 101, 0
2, 3360, Note_on_c, 0, 100, 69
2, 3480, Note_on_c, 0, 100, 0
2, 3480, Note_on_c, 0, 98, 64
2, 3600, Note_on_c, 0, 98, 0
2, 3600, Note_on_c, 0, 96, 68
2, 3720, Note_on_c, 0, 96, 0
2, 3720, Note_on_c, 0, 95, 59
2, 3840, Note_on_c, 0, 95, 0
2, 3840, Note_on_c, 0, 93, 68
2, 3960, Note_on_c, 0, 93, 0
2, 3960, Note_on_c, 0, 91, 61
2, 4080, Note_on_c, 0, 91, 0
2, 4080, Note_on_c, 0, 89, 66
2, 4200, Note_on_c, 0, 89, 0
2, 4200, Note_on_c, 0, 88, 61
2, 4320, Note_on_c, 0, 88, 0
2, 4320, Note_on_c, 0, 86, 63
2, 4440, Note_on_c, 0, 86, 0
2, 4440, Note_on_c, 0, 88, 65
2, 4560, Note_on_c, 0, 88, 0
2, 4560, Note_on_c, 0, 89, 65
2, 4680, Note_on_c, 0, 89, 0
2, 4680, Note_on_c, 0, 88, 62
2, 4800, Note_on_c, 0, 88, 0
2, 4800, Note_on_c, 0, 86, 61
2, 4920, Note_on_c, 0, 86, 0
2, 4920, Note_on_c, 0, 84, 59
2, 5040, Note_on_c, 0, 84, 0
2, 5040, Note_on_c, 0, 83, 57
2, 5160, Note_on_c, 0, 83, 0
2, 5160, Note_on_c, 0, 81, 51
2, 5280, Note_on_c, 0, 81, 0
2, 5280, Note_on_c, 0, 79, 53
2, 5400, Note_on_c, 0, 79, 0
2, 5400, Note_on_c, 0, 77, 48
2, 5520, Note_on_c, 0, 77, 0
2, 5520, Note_on_c, 0, 76, 54
2, 5640, Note_on_c, 0, 76, 0
2, 5640, Note_on_c, 0, 74, 46
2, 5760, Note_on_c, 0, 74, 0
2, 5760, Note_on_c, 0, 72, 40
2, 5880, Note_on_c, 0, 72, 0
2, 5880, Note_on_c, 0, 74, 42
2, 6000, Note_on_c, 0, 74, 0
2, 6000, Note_on_c, 0, 76, 46
2, 6120, Note_on_c, 0, 76, 0
2, 6120, Note_on_c, 0, 77, 49
2, 6240, Note_on_c, 0, 77, 0
2, 6240, Note_on_c, 0, 78, 52
2, 6360, Note_on_c, 0, 78, 0
2, 6360, Note_on_c, 0, 79, 54
2, 6480, Note_on_c, 0, 79, 0
2, 6480, Note_on_c, 0, 81, 55
2, 6600, Note_on_c, 0, 81, 0
2, 6600, Note_on_c, 0, 79, 51
2, 6720, Note_on_c, 0, 79, 0
2, 6720, Note_on_c, 0, 78, 53
2, 6840, Note_on_c, 0, 78, 0
2, 6840, Note_on_c, 0, 79, 50
2, 6960, Note_on_c, 0, 79, 0
2, 6960, Note_on_c, 0, 81, 53
2, 7080, Note_on_c, 0, 81, 0
2, 7080, Note_on_c, 0, 83, 49
2, 7200, Note_on_c, 0, 83, 0
2, 7200, Note_on_c, 0, 84, 46
2, 7320, Note_on_c, 0, 84, 0
2, 7320, Note_on_c, 0, 86, 48
2, 7440, Note_on_c, 0, 86, 0
2, 7440, Note_on_c, 0, 88, 52
2, 7560, Note_on_c, 0, 88, 0
2, 7560, Note_on_c, 0, 89, 54
2, 7680, Note_on_c, 0, 89, 0
2, 7680, Note_on_c, 0, 90, 59
2, 7800, Note_on_c, 0, 90, 0
2, 7800, Note_on_c, 0, 91, 62
2, 7920, Note_on_c, 0, 91, 0
2, 7920, Note_on_c, 0, 93, 63
2, 8040, Note_on_c, 0, 93, 0
2, 8040, Note_on_c, 0, 91, 58
2, 8160, Note_on_c, 0, 91, 0
2, 8160, Note_on_c, 0, 90, 60
2, 8280, Note_on_c, 0, 90, 0
2, 8280, Note_on_c, 0, 91, 57
2, 8400, Note_on_c, 0, 91, 0
2, 8400, Note_on_c, 0, 93, 60
2, 8520, Note_on_c, 0, 93, 0
2, 8520, Note_on_c, 0, 95, 56
2, 8640, Note_on_c, 0, 95, 0
2, 8640, Note_on_c, 0, 96, 65
2, 8760, Note_on_c, 0, 96, 0
2, 8760, Note_on_c, 0, 98, 67
2, 8880, Note_on_c, 0, 98, 0
2, 8880, Note_on_c, 0, 100, 69
2, 9000, Note_on_c, 0, 100, 0
2, 9000, Note_on_c, 0, 98, 64
2, 9120, Note_on_c, 0, 98, 0
2, 9120, Note_on_c, 0, 96, 69
2, 9240, Note_on_c, 0, 96, 0
2, 9240, Note_on_c, 0, 95, 64
2, 9360, Note_on_c, 0, 95, 0
2, 9360, Note_on_c, 0, 93, 68
2, 9480, Note_on_c, 0, 93, 0
2, 9480, Note_on_c, 0, 95, 59
2, 9600, Note_on_c, 0, 95, 0
2, 9600, Note_on_c, 0, 96, 68
2, 9720, Note_on_c, 0, 96, 0
2, 9720, Note_on_c, 0, 95, 61
2, 9840, Note_on_c, 0, 95, 0
2, 9840, Note_on_c, 0, 93, 66
2, 9960, Note_on_c, 0, 93, 0
2, 9960, Note_on_c, 0, 91, 61
2, 10080, Note_on_c, 0, 91, 0
2, 10080, Note_on_c, 0, 90, 63
2, 10200, Note_on_c, 0, 90, 0
2, 10200, Note_on_c, 0, 88, 64
2, 10320, Note_on_c, 0, 88, 0
2, 10320, Note_on_c, 0, 86, 62
2, 10440, Note_on_c, 0, 86, 0
2, 10440, Note_on_c, 0, 84, 62
2, 10560, Note_on_c, 0, 84, 0
2, 10560, Note_on_c, 0, 83, 61
2, 10680, Note_on_c, 0, 83, 0
2, 10680, Note_on_c, 0, 81, 59
2, 10800, Note_on_c, 0, 81, 0
2, 10800, Note_on_c, 0, 79, 51
2, 10920, Note_on_c, 0, 79, 0
2, 10920, Note_on_c, 0, 78, 40
2, 11040, Note_on_c, 0, 78, 0
2, 11040, Note_on_c, 0, 81, 48
2, 11160, Note_on_c, 0, 81, 0
2, 11160, Note_on_c, 0, 79, 37
2, 11280, Note_on_c, 0, 79, 0
2, 11280, Note_on_c, 0, 77, 42
2, 11400, Note_on_c, 0, 77, 0
2, 11400, Note_on_c, 0, 74, 35
2, 11520, Note_on_c, 0, 74, 0
2, 11520, Note_on_c, 0, 72, 40
2, 11640, Note_on_c, 0, 72, 0
2, 11640, Note_on_c, 0, 74, 42
2, 11760, Note_on_c, 0, 74, 0
2, 11760, Note_on_c, 0, 76, 46
2, 11880, Note_on_c, 0, 76, 0
2, 11880, Note_on_c, 0, 77, 49
2, 12000, Note_on_c, 0, 77, 0
2, 12000, Note_on_c, 0, 78, 52
2, 12120, Note_on_c, 0, 78, 0
2, 12120, Note_on_c, 0, 79, 54
2, 12240, Note_on_c, 0, 79, 0
2, 12240, Note_on_c, 0, 81, 55
2, 12360, Note_on_c, 0, 81, 0
2, 12360, Note_on_c, 0, 79, 51
2, 12480, Note_on_c, 0, 79, 0
2, 12480, Note_on_c, 0, 78, 53
2, 12600, Note_on_c, 0, 78, 0
2, 12600, Note_on_c, 0, 79, 50
2, 12720, Note_on_c, 0, 79, 0
2, 12720, Note_on_c, 0, 81, 53
2, 12840, Note_on_c, 0, 81, 0
2, 12840, Note_on_c, 0, 83, 49
2, 12960, Note_on_c, 0, 83, 0
2, 12960, Note_on_c, 0, 84, 46
2, 13080, Note_on_c, 0, 84, 0
2, 13080, Note_on_c, 0, 86, 48
2, 13200, Note_on_c, 0, 86, 0
2, 13200, Note_on_c, 0, 88, 52
2, 13320, Note_on_c, 0, 88, 0
2, 13320, Note_on_c, 0, 89, 56
2, 13440, Note_on_c, 0, 89, 0
2, 13440, Note_on_c, 0, 90, 59
2, 13560, Note_on_c, 0, 90, 0
2, 13560, Note_on_c, 0, 91, 62
2, 13680, Note_on_c, 0, 91, 0
2, 13680, Note_on_c, 0, 93, 63
2, 13800, Note_on_c, 0, 93, 0
2, 13800, Note_on_c, 0, 91, 58
2, 13920, Note_on_c, 0, 91, 0
2, 13920, Note_on_c, 0, 90, 60
2, 14040, Note_on_c, 0, 90, 0
2, 14040, Note_on_c, 0, 91, 57
2, 14160, Note_on_c, 0, 91, 0
2, 14160, Note_on_c, 0, 93, 60
2, 14280, Note_on_c, 0, 93, 0
2, 14280, Note_on_c, 0, 95, 56
2, 14400, Note_on_c, 0, 95, 0
2, 14400, Note_on_c, 0, 96, 65
2, 14520, Note_on_c, 0, 96, 0
2, 14520, Note_on_c, 0, 100, 67
2, 14640, Note_on_c, 0, 100, 0
2, 14640, Note_on_c, 0, 103, 69
2, 14760, Note_on_c, 0, 103, 0
2, 14760, Note_on_c, 0, 101, 64
2, 14880, Note_on_c, 0, 101, 0
2, 14880, Note_on_c, 0, 100, 69
2, 15000, Note_on_c, 0, 100, 0
2, 15000, Note_on_c, 0, 98, 64
2, 15120, Note_on_c, 0, 98, 0
2, 15120, Note_on_c, 0, 96, 68
2, 15240, Note_on_c, 0, 96, 0
2, 15240, Note_on_c, 0, 95, 59
2, 15360, Note_on_c, 0, 95, 0
2, 15360, Note_on_c, 0, 93, 68
2, 15480, Note_on_c, 0, 93, 0
2, 15480, Note_on_c, 0, 91, 61
2, 15600, Note_on_c, 0, 91, 0
2, 15600, Note_on_c, 0, 89, 66
2, 15720, Note_on_c, 0, 89, 0
2, 15720, Note_on_c, 0, 88, 61
2, 15840, Note_on_c, 0, 88, 0
2, 15840, Note_on_c, 0, 86, 63
2, 15960, Note_on_c, 0, 86, 0
2, 15960, Note_on_c, 0, 88, 65
2, 16080, Note_on_c, 0, 88, 0
2, 16080, Note_on_c, 0, 89, 65
2, 16200, Note_on_c, 0, 89, 0
2, 16200, Note_on_c, 0, 88, 62
2, 16320, Note_on_c, 0, 88, 0
2, 16320, Note_on_c, 0, 86, 61
2, 16440, Note_on_c, 0, 86, 0
2, 16440, Note_on_c, 0, 84, 59
2, 16560, Note_on_c, 0, 84, 0
2, 16560, Note_on_c, 0, 83, 57
2, 16680, Note_on_c, 0, 83, 0
2, 16680, Note_on_c, 0, 81, 51
2, 16800, Note_on_c, 0, 81, 0
2, 16800, Note_on_c, 0, 79, 53
2, 16920, Note_on_c, 0, 79, 0
2, 16920, Note_on_c, 0, 77, 48
2, 17040, Note_on_c, 0, 77, 0
2, 17040, Note_on_c, 0, 76, 54
2, 17160, Note_on_c, 0, 76, 0
2, 17160, Note_on_c, 0, 74, 46
2, 17280, Note_on_c, 0, 74, 0
2, 17280, Note_on_c, 0, 72, 40
2, 17400, Note_on_c, 0, 72, 0
2, 17400, Note_on_c, 0, 74, 42
2, 17520, Note_on_c, 0, 74, 0
2, 17520, Note_on_c, 0, 76, 46
2, 17640, Note_on_c, 0, 76, 0
2, 17640, Note_on_c, 0, 77, 49
2, 17760, Note_on_c, 0, 77, 0
2, 17760, Note_on_c, 0, 78, 52
2, 17880, Note_on_c, 0, 78, 0
2, 17880, Note_on_c, 0, 79, 54
2, 18000, Note_on_c, 0, 79, 0
2, 18000, Note_on_c, 0, 81, 55
2, 18120, Note_on_c, 0, 81, 0
2, 18120, Note_on_c, 0, 79, 51
2, 18240, Note_on_c, 0, 79, 0
2, 18240, Note_on_c, 0, 78, 53
2, 18360, Note_on_c, 0, 78, 0
2, 18360, Note_on_c, 0, 79, 50
2, 18480, Note_on_c, 0, 79, 0
2, 18480, Note_on_c, 0, 81, 53
2, 18600, Note_on_c, 0, 81, 0
2, 18600, Note_on_c, 0, 83, 49
2, 18720, Note_on_c, 0, 83, 0
2, 18720, Note_on_c, 0, 84, 46
2, 18840, Note_on_c, 0, 84, 0
2, 18840, Note_on_c, 0, 86, 48
2, 18960, Note_on_c, 0, 86, 0
2, 18960, Note_on_c, 0, 88, 52
2, 19080, Note_on_c, 0, 88, 0
2, 19080, Note_on_c, 0, 89, 54
2, 19200, Note_on_c, 0, 89, 0
2, 19200, Note_on_c, 0, 90, 59
2, 19320, Note_on_c, 0, 90, 0
2, 19320, Note_on_c, 0, 91, 62
2, 19440, Note_on_c, 0, 91, 0
2, 19440, Note_on_c, 0, 93, 63
2, 19560, Note_on_c, 0, 93, 0
2, 19560, Note_on_c, 0, 91, 58
2, 19680, Note_on_c, 0, 91, 0
2, 19680, Note_on_c, 0, 90, 60
2, 19800, Note_on_c, 0, 90, 0
2, 19800, Note_on_c, 0, 91, 57
2, 19920, Note_on_c, 0, 91, 0
2, 19920, Note_on_c, 0, 93, 60
2, 20040, Note_on_c, 0, 93, 0
2, 20040, Note_on_c, 0, 95, 56
2, 20160, Note_on_c, 0, 95, 0
2, 20160, Note_on_c, 0, 96, 65
2, 20280, Note_on_c, 0, 96, 0
2, 20280, Note_on_c, 0, 98, 67
2, 20400, Note_on_c, 0, 98, 0
2, 20400, Note_on_c, 0, 100, 69
2, 20520, Note_on_c, 0, 100, 0
2, 20520, Note_on_c, 0, 98, 64
2, 20640, Note_on_c, 0, 98, 0
2, 20640, Note_on_c, 0, 96, 69
2, 20760, Note_on_c, 0, 96, 0
2, 20760, Note_on_c, 0, 95, 64
2, 20880, Note_on_c, 0, 95, 0
2, 20880, Note_on_c, 0, 93, 68
2, 21000, Note_on_c, 0, 93, 0
2, 21000, Note_on_c, 0, 95, 59
2, 21120, Note_on_c, 0, 95, 0
2, 21120, Note_on_c, 0, 96, 68
2, 21240, Note_on_c, 0, 96, 0
2, 21240, Note_on_c, 0, 95, 61
2, 21360, Note_on_c, 0, 95, 0
2, 21360, Note_on_c, 0, 93, 66
2, 21480, Note_on_c, 0, 93, 0
2, 21480, Note_on_c, 0, 91, 61
2, 21600, Note_on_c, 0, 91, 0
2, 21600, Note_on_c, 0, 90, 63
2, 21720, Note_on_c, 0, 90, 0
2, 21720, Note_on_c, 0, 88, 64
2, 21840, Note_on_c, 0, 88, 0
2, 21840, Note_on_c, 0, 86, 62
2, 21960, Note_on_c, 0, 86, 0
2, 21960, Note_on_c, 0, 84, 62
2, 22080, Note_on_c, 0, 84, 0
2, 22080, Note_on_c, 0, 83, 61
2, 22200, Note_on_c, 0, 83, 0
2, 22200, Note_on_c, 0, 81, 59
2, 22320, Note_on_c, 0, 81, 0
2, 22320, Note_on_c, 0, 79, 53
2, 22440, Note_on_c, 0, 79, 0
2, 23040, Note_on_c, 0, 77, 63
2, 23160, Note_on_c, 0, 77, 0
2, 23160, Note_on_c, 0, 79, 65
2, 23280, Note_on_c, 0, 79, 0
2, 23280, Note_on_c, 0, 81, 68
2, 23400, Note_on_c, 0, 81, 0
2, 23400, Note_on_c, 0, 79, 70
2, 23520, Note_on_c, 0, 79, 0
2, 23520, Note_on_c, 0, 77, 68
2, 23640, Note_on_c, 0, 77, 0
2, 23640, Note_on_c, 0, 76, 62
2, 23760, Note_on_c, 0, 76, 0
2, 23760, Note_on_c, 0, 74, 64
2, 23880, Note_on_c, 0, 74, 0
2, 23880, Note_on_c, 0, 76, 65
2, 24000, Note_on_c, 0, 76, 0
2, 24000, Note_on_c, 0, 77, 67
2, 24120, Note_on_c, 0, 77, 0
2, 24120, Note_on_c, 0, 76, 68
2, 24240, Note_on_c, 0, 76, 0
2, 24240, Note_on_c, 0, 74, 65
2, 24360, Note_on_c, 0, 74, 0
2, 24360, Note_on_c, 0, 72, 61
2, 24480, Note_on_c, 0, 72, 0
2, 24480, Note_on_c, 0, 71, 65
2, 24600, Note_on_c, 0, 71, 0
2, 24600, Note_on_c, 0, 72, 57
2, 24720, Note_on_c, 0, 72, 0
2, 24720, Note_on_c, 0, 71, 62
2, 24840, Note_on_c, 0, 71, 0
2, 24840, Note_on_c, 0, 70, 58
2, 24960, Note_on_c, 0, 70, 0
2, 24960, Note_on_c, 0, 71, 53
2, 25080, Note_on_c, 0, 71, 0
2, 25080, Note_on_c, 0, 81, 69
2, 25200, Note_on_c, 0, 79, 59
2, 25220, Note_on_c, 0, 81, 0
2, 25320, Note_on_c, 0, 79, 0
2, 25920, Note_on_c, 0, 42, 63
2, 26040, Note_on_c, 0, 43, 65
2, 26064, Note_on_c, 0, 42, 0
2, 26160, Note_on_c, 0, 45, 68
2, 26184, Note_on_c, 0, 43, 0
2, 26280, Note_on_c, 0, 43, 70
2, 26304, Note_on_c, 0, 45, 0
2, 26400, Note_on_c, 0, 42, 68
2, 26424, Note_on_c, 0, 43, 0
2, 26520, Note_on_c, 0, 43, 62
2, 26544, Note_on_c, 0, 42, 0
2, 26640, Note_on_c, 0, 47, 64
2, 26664, Note_on_c, 0, 43, 0
2, 26760, Note_on_c, 0, 48, 65
2, 26784, Note_on_c, 0, 47, 0
2, 26880, Note_on_c, 0, 50, 67
2, 26904, Note_on_c, 0, 48, 0
2, 27000, Note_on_c, 0, 48, 68
2, 27024, Note_on_c, 0, 50, 0
2, 27120, Note_on_c, 0, 47, 65
2, 27144, Note_on_c, 0, 48, 0
2, 27240, Note_on_c, 0, 48, 61
2, 27264, Note_on_c, 0, 47, 0
2, 27360, Note_on_c, 0, 51, 72
2, 27384, Note_on_c, 0, 48, 0
2, 27480, Note_on_c, 0, 52, 67
2, 27504, Note_on_c, 0, 51, 0
2, 27600, Note_on_c, 0, 53, 73
2, 27624, Note_on_c, 0, 52, 0
2, 27720, Note_on_c, 0, 52, 70
2, 27744, Note_on_c, 0, 53, 0
2, 27840, Note_on_c, 0, 51, 68
2, 27864, Note_on_c, 0, 52, 0
2, 27960, Note_on_c, 0, 52, 72
2, 27984, Note_on_c, 0, 51, 0
2, 28080, Note_on_c, 0, 55, 78
2, 28104, Note_on_c, 0, 52, 0
2, 28200, Note_on_c, 0, 55, 0
2, 28800, Note_on_c, 0, 77, 63
2, 28920, Note_on_c, 0, 77, 0
2, 28920, Note_on_c, 0, 79, 65
2, 29040, Note_on_c, 0, 79, 0
2, 29040, Note_on_c, 0, 80, 68
2, 29160, Note_on_c, 0, 80, 0
2, 29160, Note_on_c, 0, 79, 70
2, 29280, Note_on_c, 0, 79, 0
2, 29280, Note_on_c, 0, 77, 68
2, 29400, Note_on_c, 0, 77, 0
2, 29400, Note_on_c, 0, 75, 62
2, 29520, Note_on_c, 0, 75, 0
2, 29520, Note_on_c, 0, 74, 64
2, 29640, Note_on_c, 0, 74, 0
2, 29640, Note_on_c, 0, 75, 65
2, 29760, Note_on_c, 0, 75, 0
2, 29760, Note_on_c, 0, 77, 67
2, 29880, Note_on_c, 0, 77, 0
2, 29880, Note_on_c, 0, 75, 68
2, 30000, Note_on_c, 0, 75, 0
2, 30000, Note_on_c, 0, 74, 65
2, 30120, Note_on_c, 0, 74, 0
2, 30120, Note_on_c, 0, 72, 61
2, 30240, Note_on_c, 0, 72, 0
2, 30240, Note_on_c, 0, 71, 65
2, 30360, Note_on_c, 0, 71, 0
2, 30360, Note_on_c, 0, 72, 57
2, 30480, Note_on_c, 0, 72, 0
2, 30480, Note_on_c, 0, 71, 62
2, 30600, Note_on_c, 0, 71, 0
2, 30600, Note_on_c, 0, 70, 58
2, 30720, Note_on_c, 0, 70, 0
2, 30720, Note_on_c, 0, 71, 53
2, 30840, Note_on_c, 0, 71, 0
2, 30840, Note_on_c, 0, 80, 68
2, 30960, Note_on_c, 0, 79, 59
2, 30980, Note_on_c, 0, 80, 0
2, 31080, Note_on_c, 0, 79, 0
2, 31680, Note_on_c, 0, 42, 63
2, 31800, Note_on_c, 0, 43, 65
2, 31824, Note_on_c, 0, 42, 0
2, 31920, Note_on_c, 0, 44, 68
2, 31944, Note_on_c, 0, 43, 0
2, 32040, Note_on_c, 0, 43, 70
2, 32064, Note_on_c, 0, 44, 0
2, 32160, Note_on_c, 0, 42, 68
2, 32184, Note_on_c, 0, 43, 0
2, 32280, Note_on_c, 0, 43, 62
2, 32304, Note_on_c, 0, 42, 0
2, 32400, Note_on_c, 0, 47, 64
2, 32424, Note_on_c, 0, 43, 0
2, 32520, Note_on_c, 0, 48, 65
2, 32544, Note_on_c, 0, 47, 0
2, 32640, Note_on_c, 0, 50, 67
2, 32664, Note_on_c, 0, 48, 0
2, 32760, Note_on_c, 0, 48, 68
2, 32784, Note_on_c, 0, 50, 0
2, 32880, Note_on_c, 0, 47, 65
2, 32904, Note_on_c, 0, 48, 0
2, 33000, Note_on_c, 0, 48, 61
2, 33024, Note_on_c, 0, 47, 0
2, 33120, Note_on_c, 0, 50, 72
2, 33144, Note_on_c, 0, 48, 0
2, 33240, Note_on_c, 0, 51, 67
2, 33264, Note_on_c, 0, 50, 0
2, 33360, Note_on_c, 0, 53, 73
2, 33384, Note_on_c, 0, 51, 0
2, 33480, Note_on_c, 0, 51, 70
2, 33504, Note_on_c, 0, 53, 0
2, 33600, Note_on_c, 0, 50, 68
2, 33624, Note_on_c, 0, 51, 0
2, 33720, Note_on_c, 0, 51, 72
2, 33744, Note_on_c, 0, 50, 0
2, 33840, Note_on_c, 0, 55, 78
2, 33864, Note_on_c, 0, 51, 0
2, 33960, Note_on_c, 0, 55, 0
2, 34560, Note_on_c, 0, 75, 45
2, 34680, Note_on_c, 0, 75, 0
2, 34680, Note_on_c, 0, 77, 47
2, 34800, Note_on_c, 0, 77, 0
2, 34800, Note_on_c, 0, 75, 50
2, 34920, Note_on_c, 0, 75, 0
2, 34920, Note_on_c, 0, 72, 45
2, 35040, Note_on_c, 0, 72, 0
2, 35040, Note_on_c, 0, 84, 51
2, 35160, Note_on_c, 0, 84, 0
2, 35520, Note_on_c, 0, 85, 68
2, 35760, Note_on_c, 0, 85, 0
2, 35760, Note_on_c, 0, 75, 61
2, 36000, Note_on_c, 0, 75, 0
2, 36000, Note_on_c, 0, 75, 45
2, 36120, Note_on_c, 0, 75, 0
2, 36120, Note_on_c, 0, 77, 47
2, 36240, Note_on_c, 0, 77, 0
2, 36240, Note_on_c, 0, 75, 50
2, 36360, Note_on_c, 0, 75, 0
2, 36360, Note_on_c, 0, 72, 45
2, 36480, Note_on_c, 0, 72, 0
2, 36480, Note_on_c, 0, 84, 51
2, 36600, Note_on_c, 0, 84, 0
2, 36960, Note_on_c, 0, 85, 68
2, 37200, Note_on_c, 0, 85, 0
2, 37200, Note_on_c, 0, 75, 61
2, 37440, Note_on_c, 0, 75, 0
2, 37440, Note_on_c, 0, 75, 47
2, 37560, Note_on_c, 0, 75, 0
2, 37560, Note_on_c, 0, 77, 50
2, 37680, Note_on_c, 0, 77, 0
2, 37680, Note_on_c, 0, 75, 53
2, 37800, Note_on_c, 0, 75, 0
2, 37800, Note_on_c, 0, 72, 47
2, 37920, Note_on_c, 0, 72, 0
2, 37920, Note_on_c, 0, 84, 54
2, 38040, Note_on_c, 0, 84, 0
2, 38160, Note_on_c, 0, 76, 53
2, 38280, Note_on_c, 0, 76, 0
2, 38280, Note_on_c, 0, 77, 56
2, 38400, Note_on_c, 0, 77, 0
2, 38400, Note_on_c, 0, 76, 59
2, 38520, Note_on_c, 0, 76, 0
2, 38520, Note_on_c, 0, 72, 53
2, 38640, Note_on_c, 0, 72, 0
2, 38640, Note_on_c, 0, 84, 61
2, 38760, Note_on_c, 0, 84, 0
2, 38880, Note_on_c, 0, 77, 60
2, 39000, Note_on_c, 0, 77, 0
2, 39000, Note_on_c, 0, 79, 64
2, 39120, Note_on_c, 0, 79, 0
2, 39120, Note_on_c, 0, 77, 67
2, 39240, Note_on_c, 0, 77, 0
2, 39240, Note_on_c, 0, 72, 60
2, 39360, Note_on_c, 0, 72, 0
2, 39360, Note_on_c, 0, 84, 70
2, 39480, Note_on_c, 0, 84, 0
2, 39600, Note_on_c, 0, 78, 68
2, 39720, Note_on_c, 0, 78, 0
2, 39720, Note_on_c, 0, 79, 72
2, 39840, Note_on_c, 0, 79, 0
2, 39840, Note_on_c, 0, 78, 76
2, 39960, Note_on_c, 0, 78, 0
2, 39960, Note_on_c, 0, 72, 68
2, 40080, Note_on_c, 0, 72, 0
2, 40080, Note_on_c, 0, 84, 79
2, 40200, Note_on_c, 0, 84, 0
2, 40320, Note_on_c, 0, 79, 81
2, 40440, Note_on_c, 0, 79, 0
2, 40440, Note_on_c, 0, 81, 69
2, 40560, Note_on_c, 0, 81, 0
2, 40560, Note_on_c, 0, 83, 65
2, 40680, Note_on_c, 0, 83, 0
2, 40680, Note_on_c, 0, 84, 65
2, 40770, Note_on_c, 0, 84, 0
2, 40800, Note_on_c, 0, 76, 79
2, 40920, Note_on_c, 0, 76, 0
2, 40920, Note_on_c, 0, 77, 68
2, 41040, Note_on_c, 0, 77, 0
2, 41040, Note_on_c, 0, 78, 65
2, 41160, Note_on_c, 0, 78, 0
2, 41160, Note_on_c, 0, 79, 65
2, 41280, Note_on_c, 0, 79, 0
2, 41280, Note_on_c, 0, 72, 77
2, 41400, Note_on_c, 0, 72, 0
2, 41400, Note_on_c, 0, 74, 68
2, 41520, Note_on_c, 0, 74, 0
2, 41520, Note_on_c, 0, 75, 64
2, 41640, Note_on_c, 0, 75, 0
2, 41640, Note_on_c, 0, 76, 64
2, 41730, Note_on_c, 0, 76, 0
2, 41760, Note_on_c, 0, 67, 73
2, 41880, Note_on_c, 0, 69, 58
2, 41904, Note_on_c, 0, 67, 0
2, 42000, Note_on_c, 0, 71, 55
2, 42024, Note_on_c, 0, 69, 0
2, 42120, Note_on_c, 0, 72, 55
2, 42144, Note_on_c, 0, 71, 0
2, 42210, Note_on_c, 0, 72, 0
2, 42240, Note_on_c, 0, 64, 67
2, 42360, Note_on_c, 0, 65, 57
2, 42384, Note_on_c, 0, 64, 0
2, 42480, Note_on_c, 0, 66, 55
2, 42504, Note_on_c, 0, 65, 0
2, 42600, Note_on_c, 0, 67, 55
2, 42624, Note_on_c, 0, 66, 0
2, 42690, Note_on_c, 0, 67, 0
2, 42720, Note_on_c, 0, 60, 65
2, 42840, Note_on_c, 0, 62, 57
2, 42864, Note_on_c, 0, 60, 0
2, 42960, Note_on_c, 0, 63, 54
2, 42984, Note_on_c, 0, 62, 0
2, 43080, Note_on_c, 0, 64, 54
2, 43104, Note_on_c, 0, 63, 0
2, 43170, Note_on_c, 0, 64, 0
2, 43200, Note_on_c, 0, 55, 63
2, 43680, Note_on_c, 0, 55, 0
2, 43920, Note_on_c, 0, 64, 57
2, 43920, Note_on_c, 0, 67, 57
2, 44640, Note_on_c, 0, 67, 0
2, 44640, Note_on_c, 0, 64, 0
2, 44640, Note_on_c, 0, 63, 47
2, 44640, Note_on_c, 0, 66, 47
2, 44640, Note_on_c, 0, 69, 47
2, 45360, Note_on_c, 0, 69, 0
2, 45360, Note_on_c, 0, 66, 0
2, 45360, Note_on_c, 0, 63, 0
2, 45360, Note_on_c, 0, 71, 39
2, 45360, Note_on_c, 0, 65, 39
2, 45360, Note_on_c, 0, 62, 39
2, 46080, Note_on_c, 0, 62, 0
2, 46080, Note_on_c, 0, 65, 0
2, 46080, Note_on_c, 0, 71, 0
2, 46080, Note_on_c, 0, 72, 40
2, 46200, Note_on_c, 0, 72, 0
2, 46200, Note_on_c, 0, 74, 42
2, 46320, Note_on_c, 0, 74, 0
2, 46320, Note_on_c, 0, 76, 46
2, 46440, Note_on_c, 0, 76, 0
2, 46440, Note_on_c, 0, 77, 49
2, 46560, Note_on_c, 0, 77, 0
2, 46560, Note_on_c, 0, 78, 52
2, 46680, Note_on_c, 0, 78, 0
2, 46680, Note_on_c, 0, 79, 54
2, 46800, Note_on_c, 0, 79, 0
2, 46800, Note_on_c, 0, 81, 55
2, 46920, Note_on_c, 0, 81, 0
2, 46920, Note_on_c, 0, 79, 51
2, 47040, Note_on_c, 0, 79, 0
2, 47040, Note_on_c, 0, 78, 53
2, 47160, Note_on_c, 0, 78, 0
2, 47160, Note_on_c, 0, 79, 50
2, 47280, Note_on_c, 0, 79, 0
2, 47280, Note_on_c, 0, 81, 53
2, 47400, Note_on_c, 0, 81, 0
2, 47400, Note_on_c, 0, 83, 49
2, 47520, Note_on_c, 0, 83, 0
2, 47520, Note_on_c, 0, 84, 46
2, 47640, Note_on_c, 0, 84, 0
2, 47640, Note_on_c, 0, 86, 48
2, 47760, Note_on_c, 0, 86, 0
2, 47760, Note_on_c, 0, 88, 52
2, 47880, Note_on_c, 0, 88, 0
2, 47880, Note_on_c, 0, 89, 56
2, 48000, Note_on_c, 0, 89, 0
2, 48000, Note_on_c, 0, 90, 59
2, 48120, Note_on_c, 0, 90, 0
2, 48120, Note_on_c, 0, 91, 62
2, 48240, Note_on_c, 0, 91, 0
2, 48240, Note_on_c, 0, 93, 63
2, 48360, Note_on_c, 0, 93, 0
2, 48360, Note_on_c, 0, 91, 58
2, 48480, Note_on_c, 0, 91, 0
2, 48480, Note_on_c, 0, 90, 60
2, 48600, Note_on_c, 0, 90, 0
2, 48600, Note_on_c, 0, 91, 57
2, 48720, Note_on_c, 0, 91, 0
2, 48720, Note_on_c, 0, 93, 60
2, 48840, Note_on_c, 0, 93, 0
2, 48840, Note_on_c, 0, 95, 56
2, 48960, Note_on_c, 0, 95, 0
2, 48960, Note_on_c, 0, 96, 65
2, 49080, Note_on_c, 0, 96, 0
2, 49080, Note_on_c, 0, 100, 67
2, 49200, Note_on_c, 0, 100, 0
2, 49200, Note_on_c, 0, 103, 69
2, 49320, Note_on_c, 0, 103, 0
2, 49320, Note_on_c, 0, 101, 64
2, 49440, Note_on_c, 0, 101, 0
2, 49440, Note_on_c, 0, 100, 69
2, 49560, Note_on_c, 0, 100, 0
2, 49560, Note_on_c, 0, 98, 64
2, 49680, Note_on_c, 0, 98, 0
2, 49680, Note_on_c, 0, 96, 68
2, 49800, Note_on_c, 0, 96, 0
2, 49800, Note_on_c, 0, 95, 59
2, 49920, Note_on_c, 0, 95, 0
2, 49920, Note_on_c, 0, 93, 68
2, 50040, Note_on_c, 0, 93, 0
2, 50040, Note_on_c, 0, 91, 61
2, 50160, Note_on_c, 0, 91, 0
2, 50160, Note_on_c, 0, 89, 66
2, 50280, Note_on_c, 0, 89, 0
2, 50280, Note_on_c, 0, 88, 61
2, 50400, Note_on_c, 0, 88, 0
2, 50400, Note_on_c, 0, 86, 63
2, 50520, Note_on_c, 0, 86, 0
2, 50520, Note_on_c, 0, 88, 65
2, 50640, Note_on_c, 0, 88, 0
2, 50640, Note_on_c, 0, 89, 65
2, 50760, Note_on_c, 0, 89, 0
2, 50760, Note_on_c, 0, 88, 62
2, 50880, Note_on_c, 0, 88, 0
2, 50880, Note_on_c, 0, 86, 61
2, 51000, Note_on_c, 0, 86, 0
2, 51000, Note_on_c, 0, 84, 59
2, 51120, Note_on_c, 0, 84, 0
2, 51120, Note_on_c, 0, 83, 57
2, 51240, Note_on_c, 0, 83, 0
2, 51240, Note_on_c, 0, 81, 51
2, 51360, Note_on_c, 0, 81, 0
2, 51360, Note_on_c, 0, 79, 53
2, 51480, Note_on_c, 0, 79, 0
2, 51480, Note_on_c, 0, 77, 48
2, 51600, Note_on_c, 0, 77, 0
2, 51600, Note_on_c, 0, 76, 54
2, 51720, Note_on_c, 0, 76, 0
2, 51720, Note_on_c, 0, 74, 46
2, 51840, Note_on_c, 0, 74, 0
2, 51840, Note_on_c, 0, 72, 48
2, 51960, Note_on_c, 0, 72, 0
2, 51960, Note_on_c, 0, 74, 50
2, 52080, Note_on_c, 0, 74, 0
2, 52080, Note_on_c, 0, 76, 53
2, 52200, Note_on_c, 0, 76, 0
2, 52200, Note_on_c, 0, 77, 55
2, 52320, Note_on_c, 0, 77, 0
2, 52320, Note_on_c, 0, 78, 58
2, 52440, Note_on_c, 0, 78, 0
2, 52440, Note_on_c, 0, 79, 62
2, 52560, Note_on_c, 0, 79, 0
2, 52560, Note_on_c, 0, 81, 77
2, 52680, Note_on_c, 0, 81, 0
2, 52680, Note_on_c, 0, 79, 66
2, 52800, Note_on_c, 0, 79, 0
2, 52800, Note_on_c, 0, 78, 66
2, 52920, Note_on_c, 0, 78, 0
2, 52920, Note_on_c, 0, 79, 57
2, 53040, Note_on_c, 0, 79, 0
2, 53040, Note_on_c, 0, 81, 60
2, 53160, Note_on_c, 0, 81, 0
2, 53160, Note_on_c, 0, 79, 56
2, 53250, Note_on_c, 0, 79, 0
2, 53280, Note_on_c, 0, 79, 76
2, 53400, Note_on_c, 0, 79, 0
2, 53400, Note_on_c, 0, 77, 54
2, 53520, Note_on_c, 0, 77, 0
2, 53520, Note_on_c, 0, 76, 52
2, 53640, Note_on_c, 0, 76, 0
2, 53640, Note_on_c, 0, 77, 49
2, 53760, Note_on_c, 0, 77, 0
2, 53760, Note_on_c, 0, 79, 57
2, 53880, Note_on_c, 0, 79, 0
2, 53880, Note_on_c, 0, 77, 51
2, 53970, Note_on_c, 0, 77, 0
2, 54000, Note_on_c, 0, 77, 72
2, 54120, Note_on_c, 0, 77, 0
2, 54120, Note_on_c, 0, 76, 49
2, 54240, Note_on_c, 0, 76, 0
2, 54240, Note_on_c, 0, 75, 55
2, 54360, Note_on_c, 0, 75, 0
2, 54360, Note_on_c, 0, 76, 47
2, 54480, Note_on_c, 0, 76, 0
2, 54480, Note_on_c, 0, 77, 55
2, 54600, Note_on_c, 0, 77, 0
2, 54600, Note_on_c, 0, 76, 49
2, 54690, Note_on_c, 0, 76, 0
2, 54720, Note_on_c, 0, 76, 74
2, 54840, Note_on_c, 0, 76, 0
2, 54840, Note_on_c, 0, 74, 48
2, 54960, Note_on_c, 0, 74, 0
2, 54960, Note_on_c, 0, 73, 52
2, 55080, Note_on_c, 0, 73, 0
2, 55080, Note_on_c, 0, 74, 56
2, 55200, Note_on_c, 0, 74, 0
2, 55200, Note_on_c, 0, 73, 59
2, 55320, Note_on_c, 0, 73, 0
2, 55320, Note_on_c, 0, 74, 62
2, 55410, Note_on_c, 0, 74, 0
2, 55440, Note_on_c, 0, 75, 70
2, 55560, Note_on_c, 0, 75, 0
2, 55560, Note_on_c, 0, 72, 62
2, 55680, Note_on_c, 0, 72, 0
2, 55680, Note_on_c, 0, 71, 70
2, 55800, Note_on_c, 0, 71, 0
2, 55800, Note_on_c, 0, 72, 63
2, 55920, Note_on_c, 0, 72, 0
2, 55920, Note_on_c, 0, 71, 67
2, 56040, Note_on_c, 0, 71, 0
2, 56040, Note_on_c, 0, 72, 56
2, 56160, Note_on_c, 0, 72, 0
2, 56160, Note_on_c, 0, 67, 59
2, 56280, Note_on_c, 0, 67, 0
2, 56280, Note_on_c, 0, 79, 66
2, 56400, Note_on_c, 0, 79, 0
2, 56400, Note_on_c, 0, 77, 63
2, 56520, Note_on_c, 0, 77, 0
2, 56520, Note_on_c, 0, 76, 63
2, 56640, Note_on_c, 0, 76, 0
2, 56640, Note_on_c, 0, 74, 62
2, 56760, Note_on_c, 0, 74, 0
2, 56760, Note_on_c, 0, 72, 62
2, 56880, Note_on_c, 0, 72, 0
2, 56880, Note_on_c, 0, 71, 61
2, 57000, Note_on_c, 0, 71, 0
2, 57000, Note_on_c, 0, 69, 55
2, 57120, Note_on_c, 0, 69, 0
2, 57120, Note_on_c, 0, 67, 54
2, 57240, Note_on_c, 0, 67, 0
2, 57240, Note_on_c, 0, 65, 51
2, 57360, Note_on_c, 0, 65, 0
2, 57360, Note_on_c, 0, 64, 49
2, 57480, Note_on_c, 0, 64, 0
2, 57480, Note_on_c, 0, 62, 46
2, 57600, Note_on_c, 0, 62, 0
2, 57600, Note_on_c, 0, 60, 48
2, 57720, Note_on_c, 0, 62, 55
2, 57744, Note_on_c, 0, 60, 0
2, 57840, Note_on_c, 0, 63, 57
2, 57864, Note_on_c, 0, 62, 0
2, 57960, Note_on_c, 0, 64, 60
2, 57984, Note_on_c, 0, 63, 0
2, 58080, Note_on_c, 0, 64, 0
2, 58320, Note_on_c, 0, 59, 59
2, 58440, Note_on_c, 0, 60, 58
2, 58464, Note_on_c, 0, 59, 0
2, 58560, Note_on_c, 0, 61, 53
2, 58584, Note_on_c, 0, 60, 0
2, 58680, Note_on_c, 0, 62, 50
2, 58704, Note_on_c, 0, 61, 0
2, 58800, Note_on_c, 0, 62, 0
2, 59040, Note_on_c, 0, 60, 48
2, 59160, Note_on_c, 0, 62, 55
2, 59184, Note_on_c, 0, 60, 0
2, 59280, Note_on_c, 0, 63, 57
2, 59304, Note_on_c, 0, 62, 0
2, 59400, Note_on_c, 0, 64, 60
2, 59424, Note_on_c, 0, 63, 0
2, 59520, Note_on_c, 0, 64, 0
2, 59760, Note_on_c, 0, 59, 59
2, 59880, Note_on_c, 0, 60, 58
2, 59904, Note_on_c, 0, 59, 0
2, 60000, Note_on_c, 0, 61, 53
2, 60024, Note_on_c, 0, 60, 0
2, 60120, Note_on_c, 0, 62, 50
2, 60144, Note_on_c, 0, 61, 0
2, 60240, Note_on_c, 0, 62, 0
2, 60480, Note_on_c, 0, 60, 52
2, 60600, Note_on_c, 0, 62, 61
2, 60624, Note_on_c, 0, 60, 0
2, 60720, Note_on_c, 0, 63, 63
2, 60744, Note_on_c, 0, 62, 0
2, 60840, Note_on_c, 0, 64, 67
2, 60864, Note_on_c, 0, 63, 0
2, 60960, Note_on_c, 0, 64, 0
2, 61200, Note_on_c, 0, 55, 64
2, 61320, Note_on_c, 0, 57, 59
2, 61344, Note_on_c, 0, 55, 0
2, 61440, Note_on_c, 0, 59, 60
2, 61464, Note_on_c, 0, 57, 0
2, 61560, Note_on_c, 0, 60, 60
2, 61584, Note_on_c, 0, 59, 0
2, 61680, Note_on_c, 0, 60, 0
2, 61920, Note_on_c, 0, 52, 68
2, 62040, Note_on_c, 0, 53, 62
2, 62064, Note_on_c, 0, 52, 0
2, 62160, Note_on_c, 0, 54, 63
2, 62184, Note_on_c, 0, 53, 0
2, 62280, Note_on_c, 0, 55, 63
2, 62304, Note_on_c, 0, 54, 0
2, 62400, Note_on_c, 0, 55, 0
2, 62640, Note_on_c, 0, 48, 71
2, 62760, Note_on_c, 0, 50, 65
2, 62784, Note_on_c, 0, 48, 0
2, 62880, Note_on_c, 0, 51, 66
2, 62904, Note_on_c, 0, 50, 0
2, 63000, Note_on_c, 0, 52, 66
2, 63024, Note_on_c, 0, 51, 0
2, 63120, Note_on_c, 0, 52, 0
2, 63360, Note_on_c, 0, 56, 92
2, 63540, Note_on_c, 0, 56, 0
2, 64080, Note_on_c, 0, 66, 69
2, 64080, Note_on_c, 0, 74, 81
2, 64080, Note_on_c, 0, 72, 69
2, 64260, Note_on_c, 0, 72, 0
2, 64260, Note_on_c, 0, 74, 0
2, 64260, Note_on_c, 0, 66, 0
2, 64800, Note_on_c, 0, 55, 88
2, 64980, Note_on_c, 0, 55, 0
2, 65520, Note_on_c, 0, 79, 80
2, 65520, Note_on_c, 0, 71, 68
2, 65520, Note_on_c, 0, 67, 68
2, 65700, Note_on_c, 0, 67, 0
2, 65700, Note_on_c, 0, 71, 0
2, 65700, Note_on_c, 0, 79, 0
2, 66240, Note_on_c, 0, 60, 96
2, 66420, Note_on_c, 0, 60, 0
2, 66960, Note_on_c, 0, 72, 76
2, 66960, Note_on_c, 0, 76, 76
2, 66960, Note_on_c, 0, 84, 90
2, 67140, Note_on_c, 0, 84, 0
2, 67140, Note_on_c, 0, 76, 0
2, 67140, Note_on_c, 0, 72, 0
2, 67140, End_track
3, 0, Start_track
3, 0, Title_t, "Piano left"
3, 0, Program_c, 0, 0
3, 0, Control_c, 0, 7, 127
3, 0, Control_c, 0, 10, 64
3, 0, Note_on_c, 0, 64, 30
3, 0, Note_on_c, 0, 60, 25
3, 120, Note_on_c, 0, 60, 0
3, 120, Note_on_c, 0, 64, 0
3, 240, Note_on_c, 0, 55, 29
3, 360, Note_on_c, 0, 55, 0
3, 480, Note_on_c, 0, 55, 29
3, 600, Note_on_c, 0, 55, 0
3, 720, Note_on_c, 0, 59, 22
3, 720, Note_on_c, 0, 65, 26
3, 840, Note_on_c, 0, 65, 0
3, 840, Note_on_c, 0, 59, 0
3, 960, Note_on_c, 0, 55, 33
3, 1080, Note_on_c, 0, 55, 0
3, 1200, Note_on_c, 0, 55, 24
3, 1320, Note_on_c, 0, 55, 0
3, 1440, Note_on_c, 0, 64, 30
3, 1440, Note_on_c, 0, 60, 25
3, 1560, Note_on_c, 0, 60, 0
3, 1560, Note_on_c, 0, 64, 0
3, 1680, Note_on_c, 0, 55, 29
3, 1800, Note_on_c, 0, 55, 0
3, 1920, Note_on_c, 0, 55, 29
3, 2040, Note_on_c, 0, 55, 0
3, 2160, Note_on_c, 0, 65, 35
3, 2160, Note_on_c, 0, 59, 29
3, 2280, Note_on_c, 0, 59, 0
3, 2280, Note_on_c, 0, 65, 0
3, 2400, Note_on_c, 0, 55, 45
3, 2520, Note_on_c, 0, 55, 0
3, 2640, Note_on_c, 0, 55, 41
3, 2760, Note_on_c, 0, 55, 0
3, 2880, Note_on_c, 0, 60, 54
3, 2880, Note_on_c, 0, 64, 64
3, 3000, Note_on_c, 0, 64, 0
3, 3000, Note_on_c, 0, 60, 0
3, 3120, Note_on_c, 0, 60, 46
3, 3120, Note_on_c, 0, 64, 56
3, 3240, Note_on_c, 0, 64, 0
3, 3240, Note_on_c, 0, 60, 0
3, 3600, Note_on_c, 0, 52, 49
3, 3600, Note_on_c, 0, 55, 49
3, 3600, Note_on_c, 0, 60, 58
3, 3720, Note_on_c, 0, 60, 0
3, 3720, Note_on_c, 0, 55, 0
3, 3720, Note_on_c, 0, 52, 0
3, 3840, Note_on_c, 0, 52, 44
3, 3840, Note_on_c, 0, 60, 52
3, 3840, Note_on_c, 0, 55, 44
3, 3960, Note_on_c, 0, 55, 0
3, 3960, Note_on_c, 0, 60, 0
3, 3960, Note_on_c, 0, 52, 0
3, 4320, Note_on_c, 0, 62, 56
3, 4320, Note_on_c, 0, 57, 47
3, 4320, Note_on_c, 0, 53, 47
3, 4440, Note_on_c, 0, 53, 0
3, 4440, Note_on_c, 0, 57, 0
3, 4440, Note_on_c, 0, 62, 0
3, 4560, Note_on_c, 0, 62, 48
3, 4560, Note_on_c, 0, 57, 40
3, 4560, Note_on_c, 0, 53, 40
3, 4680, Note_on_c, 0, 53, 0
3, 4680, Note_on_c, 0, 57, 0
3, 4680, Note_on_c, 0, 62, 0
3, 5040, Note_on_c, 0, 55, 34
3, 5040, Note_on_c, 0, 59, 34
3, 5040, Note_on_c, 0, 65, 41
3, 5160, Note_on_c, 0, 65, 0
3, 5160, Note_on_c, 0, 59, 0
3, 5160, Note_on_c, 0, 55, 0
3, 5280, Note_on_c, 0, 55, 26
3, 5280, Note_on_c, 0, 59, 26
3, 5280, Note_on_c, 0, 65, 31
3, 5400, Note_on_c, 0, 65, 0
3, 5400, Note_on_c, 0, 59, 0
3, 5400, Note_on_c, 0, 55, 0
3, 5760, Note_on_c, 0, 64, 30
3, 5760, Note_on_c, 0, 60, 25
3, 5880, Note_on_c, 0, 60, 0
3, 5880, Note_on_c, 0, 64, 0
3, 6000, Note_on_c, 0, 55, 29
3, 6120, Note_on_c, 0, 55, 0
3, 6240, Note_on_c, 0, 55, 29
3, 6360, Note_on_c, 0, 55, 0
3, 6480, Note_on_c, 0, 59, 22
3, 6480, Note_on_c, 0, 65, 26
3, 6600, Note_on_c, 0, 65, 0
3, 6600, Note_on_c, 0, 59, 0
3, 6720, Note_on_c, 0, 55, 33
3, 6840, Note_on_c, 0, 55, 0
3, 6960, Note_on_c, 0, 55, 24
3, 7080, Note_on_c, 0, 55, 0
3, 7200, Note_on_c, 0, 64, 30
3, 7200, Note_on_c, 0, 60, 25
3, 7320, Note_on_c, 0, 60, 0
3, 7320, Note_on_c, 0, 64, 0
3, 7440, Note_on_c, 0, 55, 29
3, 7560, Note_on_c, 0, 55, 0
3, 7680, Note_on_c, 0, 55, 29
3, 7800, Note_on_c, 0, 55, 0
3, 7920, Note_on_c, 0, 65, 35
3, 7920, Note_on_c, 0, 59, 29
3, 8040, Note_on_c, 0, 59, 0
3, 8040, Note_on_c, 0, 65, 0
3, 8160, Note_on_c, 0, 55, 45
3, 8280, Note_on_c, 0, 55, 0
3, 8400, Note_on_c, 0, 55, 41
3, 8520, Note_on_c, 0, 55, 0
3, 8640, Note_on_c, 0, 60, 54
3, 8640, Note_on_c, 0, 64, 64
3, 8760, Note_on_c, 0, 64, 0
3, 8760, Note_on_c, 0, 60, 0
3, 8880, Note_on_c, 0, 60, 46
3, 8880, Note_on_c, 0, 64, 56
3, 9000, Note_on_c, 0, 64, 0
3, 9000, Note_on_c, 0, 60, 0
3, 9360, Note_on_c, 0, 48, 49
3, 9360, Note_on_c, 0, 52, 49
3, 9360, Note_on_c, 0, 57, 58
3, 9480, Note_on_c, 0, 57, 0
3, 9480, Note_on_c, 0, 52, 0
3, 9480, Note_on_c, 0, 48, 0
3, 9600, Note_on_c, 0, 48, 44
3, 9600, Note_on_c, 0, 57, 52
3, 9600, Note_on_c, 0, 52, 44
3, 9720, Note_on_c, 0, 52, 0
3, 9720, Note_on_c, 0, 57, 0
3, 9720, Note_on_c, 0, 48, 0
3, 10080, Note_on_c, 0, 60, 56
3, 10080, Note_on_c, 0, 54, 47
3, 10080, Note_on_c, 0, 50, 47
3, 10200, Note_on_c, 0, 50, 0
3, 10200, Note_on_c, 0, 54, 0
3, 10200, Note_on_c, 0, 60, 0
3, 10320, Note_on_c, 0, 60, 47
3, 10320, Note_on_c, 0, 54, 39
3, 10320, Note_on_c, 0, 50, 39
3, 10440, Note_on_c, 0, 50, 0
3, 10440, Note_on_c, 0, 54, 0
3, 10440, Note_on_c, 0, 60, 0
3, 10800, Note_on_c, 0, 55, 34
3, 10800, Note_on_c, 0, 59, 40
3, 10920, Note_on_c, 0, 59, 0
3, 10920, Note_on_c, 0, 55, 0
3, 11520, Note_on_c, 0, 64, 30
3, 11520, Note_on_c, 0, 60, 25
3, 11640, Note_on_c, 0, 60, 0
3, 11640, Note_on_c, 0, 64, 0
3, 11760, Note_on_c, 0, 55, 29
3, 11880, Note_on_c, 0, 55, 0
3, 12000, Note_on_c, 0, 55, 29
3, 12120, Note_on_c, 0, 55, 0
3, 12240, Note_on_c, 0, 59, 22
3, 12240, Note_on_c, 0, 65, 26
3, 12360, Note_on_c, 0, 65, 0
3, 12360, Note_on_c, 0, 59, 0
3, 12480, Note_on_c, 0, 55, 33
3, 12600, Note_on_c, 0, 55, 0
3, 12720, Note_on_c, 0, 55, 24
3, 12840, Note_on_c, 0, 55, 0
3, 12960, Note_on_c, 0, 64, 30
3, 12960, Note_on_c, 0, 60, 25
3, 13080, Note_on_c, 0, 60, 0
3, 13080, Note_on_c, 0, 64, 0
3, 13200, Note_on_c, 0, 55, 29
3, 13320, Note_on_c, 0, 55, 0
3, 13440, Note_on_c, 0, 55, 29
3, 13560, Note_on_c, 0, 55, 0
3, 13680, Note_on_c, 0, 65, 35
3, 13680, Note_on_c, 0, 59, 29
3, 13800, Note_on_c, 0, 59, 0
3, 13800, Note_on_c, 0, 65, 0
3, 13920, Note_on_c, 0, 55, 45
3, 14040, Note_on_c, 0, 55, 0
3, 14160, Note_on_c, 0, 55, 41
3, 14280, Note_on_c, 0, 55, 0
3, 14400, Note_on_c, 0, 60, 54
3, 14400, Note_on_c, 0, 64, 64
3, 14520, Note_on_c, 0, 64, 0
3, 14520, Note_on_c, 0, 60, 0
3, 14640, Note_on_c, 0, 60, 46
3, 14640, Note_on_c, 0, 64, 56
3, 14760, Note_on_c, 0, 64, 0
3, 14760, Note_on_c, 0, 60, 0
3, 15120, Note_on_c, 0, 52, 49
3, 15120, Note_on_c, 0, 55, 49
3, 15120, Note_on_c, 0, 60, 58
3, 15240, Note_on_c, 0, 60, 0
3, 15240, Note_on_c, 0, 55, 0
3, 15240, Note_on_c, 0, 52, 0
3, 15360, Note_on_c, 0, 52, 44
3, 15360, Note_on_c, 0, 60, 52
3, 15360, Note_on_c, 0, 55, 44
3, 15480, Note_on_c, 0, 55, 0
3, 15480, Note_on_c, 0, 60, 0
3, 15480, Note_on_c, 0, 52, 0
3, 15840, Note_on_c, 0, 62, 57
3, 15840, Note_on_c, 0, 57, 48
3, 15840, Note_on_c, 0, 53, 48
3, 15960, Note_on_c, 0, 53, 0
3, 15960, Note_on_c, 0, 57, 0
3, 15960, Note_on_c, 0, 62, 0
3, 16080, Note_on_c, 0, 62, 48
3, 16080, Note_on_c, 0, 57, 40
3, 16080, Note_on_c, 0, 53, 40
3, 16200, Note_on_c, 0, 53, 0
3, 16200, Note_on_c, 0, 57, 0
3, 16200, Note_on_c, 0, 62, 0
3, 16560, Note_on_c, 0, 55, 34
3, 16560, Note_on_c, 0, 59, 34
3, 16560, Note_on_c, 0, 65, 41
3, 16680, Note_on_c, 0, 65, 0
3, 16680, Note_on_c, 0, 59, 0
3, 16680, Note_on_c, 0, 55, 0
3, 16800, Note_on_c, 0, 55, 26
3, 16800, Note_on_c, 0, 59, 26
3, 16800, Note_on_c, 0, 65, 31
3, 16920, Note_on_c, 0, 65, 0
3, 16920, Note_on_c, 0, 59, 0
3, 16920, Note_on_c, 0, 55, 0
3, 17280, Note_on_c, 0, 64, 30
3, 17280, Note_on_c, 0, 60, 25
3, 17400, Note_on_c, 0, 60, 0
3, 17400, Note_on_c, 0, 64, 0
3, 17520, Note_on_c, 0, 55, 29
3, 17640, Note_on_c, 0, 55, 0
3, 17760, Note_on_c, 0, 55, 29
3, 17880, Note_on_c, 0, 55, 0
3, 18000, Note_on_c, 0, 59, 22
3, 18000, Note_on_c, 0, 65, 26
3, 18120, Note_on_c, 0, 65, 0
3, 18120, Note_on_c, 0, 59, 0
3, 18240, Note_on_c, 0, 55, 33
3, 18360, Note_on_c, 0, 55, 0
3, 18480, Note_on_c, 0, 55, 24
3, 18600, Note_on_c, 0, 55, 0
3, 18720, Note_on_c, 0, 64, 30
3, 18720, Note_on_c, 0, 60, 25
3, 18840, Note_on_c, 0, 60, 0
3, 18840, Note_on_c, 0, 64, 0
3, 18960, Note_on_c, 0, 55, 29
3, 19080, Note_on_c, 0, 55, 0
3, 19200, Note_on_c, 0, 55, 29
3, 19320, Note_on_c, 0, 55, 0
3, 19440, Note_on_c, 0, 65, 35
3, 19440, Note_on_c, 0, 59, 29
3, 19560, Note_on_c, 0, 59, 0
3, 19560, Note_on_c, 0, 65, 0
3, 19680, Note_on_c, 0, 55, 45
3, 19800, Note_on_c, 0, 55, 0
3, 19920, Note_on_c, 0, 55, 41
3, 20040, Note_on_c, 0, 55, 0
3, 20160, Note_on_c, 0, 60, 54
3, 20160, Note_on_c, 0, 64, 64
3, 20280, Note_on_c, 0, 64, 0
3, 20280, Note_on_c, 0, 60, 0
3, 20400, Note_on_c, 0, 60, 46
3, 20400, Note_on_c, 0, 64, 56
3, 20520, Note_on_c, 0, 64, 0
3, 20520, Note_on_c, 0, 60, 0
3, 20880, Note_on_c, 0, 48, 49
3, 20880, Note_on_c, 0, 52, 49
3, 20880, Note_on_c, 0, 57, 58
3, 21000, Note_on_c, 0, 57, 0
3, 21000, Note_on_c, 0, 52, 0
3, 21000, Note_on_c, 0, 48, 0
3, 21120, Note_on_c, 0, 48, 44
3, 21120, Note_on_c, 0, 57, 52
3, 21120, Note_on_c, 0, 52, 44
3, 21240, Note_on_c, 0, 52, 0
3, 21240, Note_on_c, 0, 57, 0
3, 21240, Note_on_c, 0, 48, 0
3, 21600, Note_on_c, 0, 60, 56
3, 21600, Note_on_c, 0, 54, 46
3, 21600, Note_on_c, 0, 50, 46
3, 21720, Note_on_c, 0, 50, 0
3, 21720, Note_on_c, 0, 54, 0
3, 21720, Note_on_c, 0, 60, 0
3, 21840, Note_on_c, 0, 60, 46
3, 21840, Note_on_c, 0, 54, 38
3, 21840, Note_on_c, 0, 50, 38
3, 21960, Note_on_c, 0, 50, 0
3, 21960, Note_on_c, 0, 54, 0
3, 21960, Note_on_c, 0, 60, 0
3, 22320, Note_on_c, 0, 55, 32
3, 22320, Note_on_c, 0, 59, 38
3, 22440, Note_on_c, 0, 59, 0
3, 22440, Note_on_c, 0, 55, 0
3, 22560, Note_on_c, 0, 55, 38
3, 22680, Note_on_c, 0, 55, 0
3, 22800, Note_on_c, 0, 55, 38
3, 22920, Note_on_c, 0, 55, 0
3, 23040, Note_on_c, 0, 59, 32
3, 23040, Note_on_c, 0, 65, 38
3, 23040, Note_on_c, 0, 55, 32
3, 23160, Note_on_c, 0, 55, 0
3, 23160, Note_on_c, 0, 65, 0
3, 23160, Note_on_c, 0, 59, 0
3, 23280, Note_on_c, 0, 65, 32
3, 23280, Note_on_c, 0, 59, 27
3, 23280, Note_on_c, 0, 55, 27
3, 23400, Note_on_c, 0, 55, 0
3, 23400, Note_on_c, 0, 59, 0
3, 23400, Note_on_c, 0, 65, 0
3, 23520, Note_on_c, 0, 65, 32
3, 23520, Note_on_c, 0, 59, 27
3, 23520, Note_on_c, 0, 55, 27
3, 23640, Note_on_c, 0, 55, 0
3, 23640, Note_on_c, 0, 59, 0
3, 23640, Note_on_c, 0, 65, 0
3, 23760, Note_on_c, 0, 65, 38
3, 23760, Note_on_c, 0, 59, 32
3, 23760, Note_on_c, 0, 55, 32
3, 23880, Note_on_c, 0, 55, 0
3, 23880, Note_on_c, 0, 59, 0
3, 23880, Note_on_c, 0, 65, 0
3, 24000, Note_on_c, 0, 65, 33
3, 24000, Note_on_c, 0, 59, 28
3, 24000, Note_on_c, 0, 55, 28
3, 24120, Note_on_c, 0, 55, 0
3, 24120, Note_on_c, 0, 59, 0
3, 24120, Note_on_c, 0, 65, 0
3, 24240, Note_on_c, 0, 65, 32
3, 24240, Note_on_c, 0, 59, 27
3, 24240, Note_on_c, 0, 55, 27
3, 24360, Note_on_c, 0, 55, 0
3, 24360, Note_on_c, 0, 59, 0
3, 24360, Note_on_c, 0, 65, 0
3, 24480, Note_on_c, 0, 55, 34
3, 24480, Note_on_c, 0, 65, 40
3, 24480, Note_on_c, 0, 59, 34
3, 24600, Note_on_c, 0, 59, 0
3, 24600, Note_on_c, 0, 65, 0
3, 24600, Note_on_c, 0, 55, 0
3, 24720, Note_on_c, 0, 65, 32
3, 24720, Note_on_c, 0, 59, 27
3, 24720, Note_on_c, 0, 55, 27
3, 24840, Note_on_c, 0, 55, 0
3, 24840, Note_on_c, 0, 59, 0
3, 24840, Note_on_c, 0, 65, 0
3, 24960, Note_on_c, 0, 55, 22
3, 24960, Note_on_c, 0, 59, 22
3, 24960, Note_on_c, 0, 65, 27
3, 25080, Note_on_c, 0, 65, 0
3, 25080, Note_on_c, 0, 59, 0
3, 25080, Note_on_c, 0, 55, 0
3, 25200, Note_on_c, 0, 59, 29
3, 25200, Note_on_c, 0, 65, 35
3, 25200, Note_on_c, 0, 55, 29
3, 25320, Note_on_c, 0, 55, 0
3, 25320, Note_on_c, 0, 65, 0
3, 25320, Note_on_c, 0, 59, 0
3, 25440, Note_on_c, 0, 65, 24
3, 25440, Note_on_c, 0, 59, 20
3, 25440, Note_on_c, 0, 55, 20
3, 25560, Note_on_c, 0, 55, 0
3, 25560, Note_on_c, 0, 59, 0
3, 25560, Note_on_c, 0, 65, 0
3, 25680, Note_on_c, 0, 65, 22
3, 25680, Note_on_c, 0, 59, 18
3, 25680, Note_on_c, 0, 55, 18
3, 25800, Note_on_c, 0, 55, 0
3, 25800, Note_on_c, 0, 59, 0
3, 25800, Note_on_c, 0, 65, 0
3, 25920, Note_on_c, 0, 60, 40
3, 25920, Note_on_c, 0, 64, 47
3, 26040, Note_on_c, 0, 64, 0
3, 26040, Note_on_c, 0, 60, 0
3, 26160, Note_on_c, 0, 64, 40
3, 26160, Note_on_c, 0, 60, 33
3, 26280, Note_on_c, 0, 60, 0
3, 26280, Note_on_c, 0, 64, 0
3, 26400, Note_on_c, 0, 64, 40
3, 26400, Note_on_c, 0, 60, 33
3, 26520, Note_on_c, 0, 60, 0
3, 26520, Note_on_c, 0, 64, 0
3, 26640, Note_on_c, 0, 64, 47
3, 26640, Note_on_c, 0, 60, 40
3, 26760, Note_on_c, 0, 60, 0
3, 26760, Note_on_c, 0, 64, 0
3, 26880, Note_on_c, 0, 64, 41
3, 26880, Note_on_c, 0, 60, 35
3, 27000, Note_on_c, 0, 60, 0
3, 27000, Note_on_c, 0, 64, 0
3, 27120, Note_on_c, 0, 64, 40
3, 27120, Note_on_c, 0, 60, 33
3, 27240, Note_on_c, 0, 60, 0
3, 27240, Note_on_c, 0, 64, 0
3, 27360, Note_on_c, 0, 60, 50
3, 27360, Note_on_c, 0, 64, 60
3, 27480, Note_on_c, 0, 64, 0
3, 27480, Note_on_c, 0, 60, 0
3, 27600, Note_on_c, 0, 64, 56
3, 27600, Note_on_c, 0, 60, 47
3, 27720, Note_on_c, 0, 60, 0
3, 27720, Note_on_c, 0, 64, 0
3, 27840, Note_on_c, 0, 60, 43
3, 27840, Note_on_c, 0, 64, 52
3, 27960, Note_on_c, 0, 64, 0
3, 27960, Note_on_c, 0, 60, 0
3, 28080, Note_on_c, 0, 64, 60
3, 28080, Note_on_c, 0, 60, 50
3, 28200, Note_on_c, 0, 60, 0
3, 28200, Note_on_c, 0, 64, 0
3, 28320, Note_on_c, 0, 60, 45
3, 28320, Note_on_c, 0, 64, 53
3, 28440, Note_on_c, 0, 64, 0
3, 28440, Note_on_c, 0, 60, 0
3, 28560, Note_on_c, 0, 60, 45
3, 28560, Note_on_c, 0, 64, 53
3, 28680, Note_on_c, 0, 64, 0
3, 28680, Note_on_c, 0, 60, 0
3, 28800, Note_on_c, 0, 59, 32
3, 28800, Note_on_c, 0, 65, 38
3, 28800, Note_on_c, 0, 55, 32
3, 28920, Note_on_c, 0, 55, 0
3, 28920, Note_on_c, 0, 65, 0
3, 28920, Note_on_c, 0, 59, 0
3, 29040, Note_on_c, 0, 65, 32
3, 29040, Note_on_c, 0, 59, 27
3, 29040, Note_on_c, 0, 55, 27
3, 29160, Note_on_c, 0, 55, 0
3, 29160, Note_on_c, 0, 59, 0
3, 29160, Note_on_c, 0, 65, 0
3, 29280, Note_on_c, 0, 65, 32
3, 29280, Note_on_c, 0, 59, 27
3, 29280, Note_on_c, 0, 55, 27
3, 29400, Note_on_c, 0, 55, 0
3, 29400, Note_on_c, 0, 59, 0
3, 29400, Note_on_c, 0, 65, 0
3, 29520, Note_on_c, 0, 65, 38
3, 29520, Note_on_c, 0, 59, 32
3, 29520, Note_on_c, 0, 55, 32
3, 29640, Note_on_c, 0, 55, 0
3, 29640, Note_on_c, 0, 59, 0
3, 29640, Note_on_c, 0, 65, 0
3, 29760, Note_on_c, 0, 65, 33
3, 29760, Note_on_c, 0, 59, 28
3, 29760, Note_on_c, 0, 55, 28
3, 29880, Note_on_c, 0, 55, 0
3, 29880, Note_on_c, 0, 59, 0
3, 29880, Note_on_c, 0, 65, 0
3, 30000, Note_on_c, 0, 65, 32
3, 30000, Note_on_c, 0, 59, 27
3, 30000, Note_on_c, 0, 55, 27
3, 30120, Note_on_c, 0, 55, 0
3, 30120, Note_on_c, 0, 59, 0
3, 30120, Note_on_c, 0, 65, 0
3, 30240, Note_on_c, 0, 55, 34
3, 30240, Note_on_c, 0, 65, 40
3, 30240, Note_on_c, 0, 59, 34
3, 30360, Note_on_c, 0, 59, 0
3, 30360, Note_on_c, 0, 65, 0
3, 30360, Note_on_c, 0, 55, 0
3, 30480, Note_on_c, 0, 65, 32
3, 30480, Note_on_c, 0, 59, 27
3, 30480, Note_on_c, 0, 55, 27
3, 30600, Note_on_c, 0, 55, 0
3, 30600, Note_on_c, 0, 59, 0
3, 30600, Note_on_c, 0, 65, 0
3, 30720, Note_on_c, 0, 55, 22
3, 30720, Note_on_c, 0, 59, 22
3, 30720, Note_on_c, 0, 65, 27
3, 30840, Note_on_c, 0, 65, 0
3, 30840, Note_on_c, 0, 59, 0
3, 30840, Note_on_c, 0, 55, 0
3, 30960, Note_on_c, 0, 59, 29
3, 30960, Note_on_c, 0, 65, 35
3, 30960, Note_on_c, 0, 55, 29
3, 31080, Note_on_c, 0, 55, 0
3, 31080, Note_on_c, 0, 65, 0
3, 31080, Note_on_c, 0, 59, 0
3, 31200, Note_on_c, 0, 65, 24
3, 31200, Note_on_c, 0, 59, 20
3, 31200, Note_on_c, 0, 55, 20
3, 31320, Note_on_c, 0, 55, 0
3, 31320, Note_on_c, 0, 59, 0
3, 31320, Note_on_c, 0, 65, 0
3, 31440, Note_on_c, 0, 65, 22
3, 31440, Note_on_c, 0, 59, 18
3, 31440, Note_on_c, 0, 55, 18
3, 31560, Note_on_c, 0, 55, 0
3, 31560, Note_on_c, 0, 59, 0
3, 31560, Note_on_c, 0, 65, 0
3, 31680, Note_on_c, 0, 60, 40
3, 31680, Note_on_c, 0, 63, 47
3, 31800, Note_on_c, 0, 63, 0
3, 31800, Note_on_c, 0, 60, 0
3, 31920, Note_on_c, 0, 63, 40
3, 31920, Note_on_c, 0, 60, 33
3, 32040, Note_on_c, 0, 60, 0
3, 32040, Note_on_c, 0, 63, 0
3, 32160, Note_on_c, 0, 63, 40
3, 32160, Note_on_c, 0, 60, 33
3, 32280, Note_on_c, 0, 60, 0
3, 32280, Note_on_c, 0, 63, 0
3, 32400, Note_on_c, 0, 63, 47
3, 32400, Note_on_c, 0, 60, 40
3, 32520, Note_on_c, 0, 60, 0
3, 32520, Note_on_c, 0, 63, 0
3, 32640, Note_on_c, 0, 63, 41
3, 32640, Note_on_c, 0, 60, 35
3, 32760, Note_on_c, 0, 60, 0
3, 32760, Note_on_c, 0, 63, 0
3, 32880, Note_on_c, 0, 63, 40
3, 32880, Note_on_c, 0, 60, 33
3, 33000, Note_on_c, 0, 60, 0
3, 33000, Note_on_c, 0, 63, 0
3, 33120, Note_on_c, 0, 60, 50
3, 33120, Note_on_c, 0, 63, 60
3, 33240, Note_on_c, 0, 63, 0
3, 33240, Note_on_c, 0, 60, 0
3, 33360, Note_on_c, 0, 63, 56
3, 33360, Note_on_c, 0, 60, 47
3, 33480, Note_on_c, 0, 60, 0
3, 33480, Note_on_c, 0, 63, 0
3, 33600, Note_on_c, 0, 60, 43
3, 33600, Note_on_c, 0, 63, 52
3, 33720, Note_on_c, 0, 63, 0
3, 33720, Note_on_c, 0, 60, 0
3, 33840, Note_on_c, 0, 63, 60
3, 33840, Note_on_c, 0, 60, 50
3, 33960, Note_on_c, 0, 60, 0
3, 33960, Note_on_c, 0, 63, 0
3, 34080, Note_on_c, 0, 60, 38
3, 34080, Note_on_c, 0, 63, 45
3, 34200, Note_on_c, 0, 63, 0
3, 34200, Note_on_c, 0, 60, 0
3, 34320, Note_on_c, 0, 60, 38
3, 34320, Note_on_c, 0, 63, 45
3, 34440, Note_on_c, 0, 63, 0
3, 34440, Note_on_c, 0, 60, 0
3, 34560, Note_on_c, 0, 60, 27
3, 34560, Note_on_c, 0, 63, 32
3, 34560, Note_on_c, 0, 56, 27
3, 34680, Note_on_c, 0, 56, 0
3, 34680, Note_on_c, 0, 63, 0
3, 34680, Note_on_c, 0, 60, 0
3, 34800, Note_on_c, 0, 63, 27
3, 34800, Note_on_c, 0, 60, 22
3, 34800, Note_on_c, 0, 56, 22
3, 34920, Note_on_c, 0, 56, 0
3, 34920, Note_on_c, 0, 60, 0
3, 34920, Note_on_c, 0, 63, 0
3, 35040, Note_on_c, 0, 63, 27
3, 35040, Note_on_c, 0, 60, 22
3, 35040, Note_on_c, 0, 56, 22
3, 35160, Note_on_c, 0, 56, 0
3, 35160, Note_on_c, 0, 60, 0
3, 35160, Note_on_c, 0, 63, 0
3, 35280, Note_on_c, 0, 55, 37
3, 35280, Note_on_c, 0, 58, 37
3, 35280, Note_on_c, 0, 63, 44
3, 35400, Note_on_c, 0, 63, 0
3, 35400, Note_on_c, 0, 58, 0
3, 35400, Note_on_c, 0, 55, 0
3, 35520, Note_on_c, 0, 55, 39
3, 35520, Note_on_c, 0, 58, 39
3, 35520, Note_on_c, 0, 63, 46
3, 35640, Note_on_c, 0, 63, 0
3, 35640, Note_on_c, 0, 58, 0
3, 35640, Note_on_c, 0, 55, 0
3, 35760, Note_on_c, 0, 63, 32
3, 35760, Note_on_c, 0, 58, 27
3, 35760, Note_on_c, 0, 55, 27
3, 35880, Note_on_c, 0, 55, 0
3, 35880, Note_on_c, 0, 58, 0
3, 35880, Note_on_c, 0, 63, 0
3, 36000, Note_on_c, 0, 60, 27
3, 36000, Note_on_c, 0, 63, 32
3, 36000, Note_on_c, 0, 56, 27
3, 36120, Note_on_c, 0, 56, 0
3, 36120, Note_on_c, 0, 63, 0
3, 36120, Note_on_c, 0, 60, 0
3, 36240, Note_on_c, 0, 63, 27
3, 36240, Note_on_c, 0, 60, 22
3, 36240, Note_on_c, 0, 56, 22
3, 36360, Note_on_c, 0, 56, 0
3, 36360, Note_on_c, 0, 60, 0
3, 36360, Note_on_c, 0, 63, 0
3, 36480, Note_on_c, 0, 63, 27
3, 36480, Note_on_c, 0, 60, 22
3, 36480, Note_on_c, 0, 56, 22
3, 36600, Note_on_c, 0, 56, 0
3, 36600, Note_on_c, 0, 60, 0
3, 36600, Note_on_c, 0, 63, 0
3, 36720, Note_on_c, 0, 55, 37
3, 36720, Note_on_c, 0, 58, 37
3, 36720, Note_on_c, 0, 63, 44
3, 36840, Note_on_c, 0, 63, 0
3, 36840, Note_on_c, 0, 58, 0
3, 36840, Note_on_c, 0, 55, 0
3, 36960, Note_on_c, 0, 55, 39
3, 36960, Note_on_c, 0, 58, 39
3, 36960, Note_on_c, 0, 63, 46
3, 37080, Note_on_c, 0, 63, 0
3, 37080, Note_on_c, 0, 58, 0
3, 37080, Note_on_c, 0, 55, 0
3, 37200, Note_on_c, 0, 63, 32
3, 37200, Note_on_c, 0, 58, 27
3, 37200, Note_on_c, 0, 55, 27
3, 37320, Note_on_c, 0, 55, 0
3, 37320, Note_on_c, 0, 58, 0
3, 37320, Note_on_c, 0, 63, 0
3, 37440, Note_on_c, 0, 60, 28
3, 37440, Note_on_c, 0, 63, 34
3, 37440, Note_on_c, 0, 56, 28
3, 37560, Note_on_c, 0, 56, 0
3, 37560, Note_on_c, 0, 63, 0
3, 37560, Note_on_c, 0, 60, 0
3, 37680, Note_on_c, 0, 63, 28
3, 37680, Note_on_c, 0, 60, 24
3, 37680, Note_on_c, 0, 56, 24
3, 37800, Note_on_c, 0, 56, 0
3, 37800, Note_on_c, 0, 60, 0
3, 37800, Note_on_c, 0, 63, 0
3, 37920, Note_on_c, 0, 63, 28
3, 37920, Note_on_c, 0, 60, 24
3, 37920, Note_on_c, 0, 56, 24
3, 38040, Note_on_c, 0, 56, 0
3, 38040, Note_on_c, 0, 60, 0
3, 38040, Note_on_c, 0, 63, 0
3, 38160, Note_on_c, 0, 60, 33
3, 38160, Note_on_c, 0, 64, 39
3, 38160, Note_on_c, 0, 56, 33
3, 38280, Note_on_c, 0, 56, 0
3, 38280, Note_on_c, 0, 64, 0
3, 38280, Note_on_c, 0, 60, 0
3, 38400, Note_on_c, 0, 64, 33
3, 38400, Note_on_c, 0, 60, 28
3, 38400, Note_on_c, 0, 56, 28
3, 38520, Note_on_c, 0, 56, 0
3, 38520, Note_on_c, 0, 60, 0
3, 38520, Note_on_c, 0, 64, 0
3, 38640, Note_on_c, 0, 64, 34
3, 38640, Note_on_c, 0, 60, 29
3, 38640, Note_on_c, 0, 56, 29
3, 38760, Note_on_c, 0, 56, 0
3, 38760, Note_on_c, 0, 60, 0
3, 38760, Note_on_c, 0, 64, 0
3, 38880, Note_on_c, 0, 60, 39
3, 38880, Note_on_c, 0, 65, 47
3, 38880, Note_on_c, 0, 56, 39
3, 39000, Note_on_c, 0, 56, 0
3, 39000, Note_on_c, 0, 65, 0
3, 39000, Note_on_c, 0, 60, 0
3, 39120, Note_on_c, 0, 65, 39
3, 39120, Note_on_c, 0, 60, 34
3, 39120, Note_on_c, 0, 56, 34
3, 39240, Note_on_c, 0, 56, 0
3, 39240, Note_on_c, 0, 60, 0
3, 39240, Note_on_c, 0, 65, 0
3, 39360, Note_on_c, 0, 65, 40
3, 39360, Note_on_c, 0, 60, 35
3, 39360, Note_on_c, 0, 56, 35
3, 39480, Note_on_c, 0, 56, 0
3, 39480, Note_on_c, 0, 60, 0
3, 39480, Note_on_c, 0, 65, 0
3, 39600, Note_on_c, 0, 60, 46
3, 39600, Note_on_c, 0, 63, 55
3, 39600, Note_on_c, 0, 56, 46
3, 39720, Note_on_c, 0, 56, 0
3, 39720, Note_on_c, 0, 63, 0
3, 39720, Note_on_c, 0, 60, 0
3, 39840, Note_on_c, 0, 63, 47
3, 39840, Note_on_c, 0, 60, 40
3, 39840, Note_on_c, 0, 56, 40
3, 39960, Note_on_c, 0, 56, 0
3, 39960, Note_on_c, 0, 60, 0
3, 39960, Note_on_c, 0, 63, 0
3, 40080, Note_on_c, 0, 63, 48
3, 40080, Note_on_c, 0, 60, 41
3, 40080, Note_on_c, 0, 56, 41
3, 40200, Note_on_c, 0, 56, 0
3, 40200, Note_on_c, 0, 60, 0
3, 40200, Note_on_c, 0, 63, 0
3, 40320, Note_on_c, 0, 64, 78
3, 40320, Note_on_c, 0, 60, 66
3, 40320, Note_on_c, 0, 55, 66
3, 41760, Note_on_c, 0, 55, 0
3, 41760, Note_on_c, 0, 60, 0
3, 41760, Note_on_c, 0, 64, 0
3, 41760, Note_on_c, 0, 55, 58
3, 41880, Note_on_c, 0, 57, 46
3, 41904, Note_on_c, 0, 55, 0
3, 42000, Note_on_c, 0, 59, 44
3, 42024, Note_on_c, 0, 57, 0
3, 42120, Note_on_c, 0, 60, 44
3, 42144, Note_on_c, 0, 59, 0
3, 42210, Note_on_c, 0, 60, 0
3, 42240, Note_on_c, 0, 52, 53
3, 42360, Note_on_c, 0, 53, 45
3, 42384, Note_on_c, 0, 52, 0
3, 42480, Note_on_c, 0, 54, 44
3, 42504, Note_on_c, 0, 53, 0
3, 42600, Note_on_c, 0, 55, 44
3, 42624, Note_on_c, 0, 54, 0
3, 42690, Note_on_c, 0, 55, 0
3, 42720, Note_on_c, 0, 48, 52
3, 42840, Note_on_c, 0, 50, 45
3, 42864, Note_on_c, 0, 48, 0
3, 42960, Note_on_c, 0, 51, 43
3, 42984, Note_on_c, 0, 50, 0
3, 43080, Note_on_c, 0, 52, 43
3, 43104, Note_on_c, 0, 51, 0
3, 43170, Note_on_c, 0, 52, 0
3, 43200, Note_on_c, 0, 43, 43
3, 43320, Note_on_c, 0, 43, 0
3, 43440, Note_on_c, 0, 43, 37
3, 43560, Note_on_c, 0, 43, 0
3, 43680, Note_on_c, 0, 43, 37
3, 43800, Note_on_c, 0, 43, 0
3, 44160, Note_on_c, 0, 43, 30
3, 44160, Note_on_c, 0, 55, 36
3, 44280, Note_on_c, 0, 55, 0
3, 44280, Note_on_c, 0, 43, 0
3, 44400, Note_on_c, 0, 43, 30
3, 44400, Note_on_c, 0, 55, 36
3, 44520, Note_on_c, 0, 55, 0
3, 44520, Note_on_c, 0, 43, 0
3, 44880, Note_on_c, 0, 55, 34
3, 44880, Note_on_c, 0, 43, 28
3, 45000, Note_on_c, 0, 43, 0
3, 45000, Note_on_c, 0, 55, 0
3, 45120, Note_on_c, 0, 55, 34
3, 45120, Note_on_c, 0, 43, 28
3, 45240, Note_on_c, 0, 43, 0
3, 45240, Note_on_c, 0, 55, 0
3, 45600, Note_on_c, 0, 55, 32
3, 45600, Note_on_c, 0, 43, 27
3, 45720, Note_on_c, 0, 43, 0
3, 45720, Note_on_c, 0, 55, 0
3, 45840, Note_on_c, 0, 55, 32
3, 45840, Note_on_c, 0, 43, 27
3, 45960, Note_on_c, 0, 43, 0
3, 45960, Note_on_c, 0, 55, 0
3, 46080, Note_on_c, 0, 64, 30
3, 46080, Note_on_c, 0, 60, 25
3, 46200, Note_on_c, 0, 60, 0
3, 46200, Note_on_c, 0, 64, 0
3, 46320, Note_on_c, 0, 55, 29
3, 46440, Note_on_c, 0, 55, 0
3, 46560, Note_on_c, 0, 55, 29
3, 46680, Note_on_c, 0, 55, 0
3, 46800, Note_on_c, 0, 59, 22
3, 46800, Note_on_c, 0, 65, 26
3, 46920, Note_on_c, 0, 65, 0
3, 46920, Note_on_c, 0, 59, 0
3, 47040, Note_on_c, 0, 55, 33
3, 47160, Note_on_c, 0, 55, 0
3, 47280, Note_on_c, 0, 55, 24
3, 47400, Note_on_c, 0, 55, 0
3, 47520, Note_on_c, 0, 64, 30
3, 47520, Note_on_c, 0, 60, 25
3, 47640, Note_on_c, 0, 60, 0
3, 47640, Note_on_c, 0, 64, 0
3, 47760, Note_on_c, 0, 55, 29
3, 47880, Note_on_c, 0, 55, 0
3, 48000, Note_on_c, 0, 55, 29
3, 48120, Note_on_c, 0, 55, 0
3, 48240, Note_on_c, 0, 65, 35
3, 48240, Note_on_c, 0, 59, 29
3, 48360, Note_on_c, 0, 59, 0
3, 48360, Note_on_c, 0, 65, 0
3, 48480, Note_on_c, 0, 55, 45
3, 48600, Note_on_c, 0, 55, 0
3, 48720, Note_on_c, 0, 55, 41
3, 48840, Note_on_c, 0, 55, 0
3, 48960, Note_on_c, 0, 60, 54
3, 48960, Note_on_c, 0, 64, 64
3, 49080, Note_on_c, 0, 64, 0
3, 49080, Note_on_c, 0, 60, 0
3, 49200, Note_on_c, 0, 60, 46
3, 49200, Note_on_c, 0, 64, 56
3, 49320, Note_on_c, 0, 64, 0
3, 49320, Note_on_c, 0, 60, 0
3, 49680, Note_on_c, 0, 52, 49
3, 49680, Note_on_c, 0, 55, 49
3, 49680, Note_on_c, 0, 60, 58
3, 49800, Note_on_c, 0, 60, 0
3, 49800, Note_on_c, 0, 55, 0
3, 49800, Note_on_c, 0, 52, 0
3, 49920, Note_on_c, 0, 52, 44
3, 49920, Note_on_c, 0, 60, 52
3, 49920, Note_on_c, 0, 55, 44
3, 50040, Note_on_c, 0, 55, 0
3, 50040, Note_on_c, 0, 60, 0
3, 50040, Note_on_c, 0, 52, 0
3, 50400, Note_on_c, 0, 62, 57
3, 50400, Note_on_c, 0, 57, 47
3, 50400, Note_on_c, 0, 53, 47
3, 50520, Note_on_c, 0, 53, 0
3, 50520, Note_on_c, 0, 57, 0
3, 50520, Note_on_c, 0, 62, 0
3, 50640, Note_on_c, 0, 62, 48
3, 50640, Note_on_c, 0, 57, 40
3, 50640, Note_on_c, 0, 53, 40
3, 50760, Note_on_c, 0, 53, 0
3, 50760, Note_on_c, 0, 57, 0
3, 50760, Note_on_c, 0, 62, 0
3, 51120, Note_on_c, 0, 55, 34
3, 51120, Note_on_c, 0, 59, 34
3, 51120, Note_on_c, 0, 65, 41
3, 51240, Note_on_c, 0, 65, 0
3, 51240, Note_on_c, 0, 59, 0
3, 51240, Note_on_c, 0, 55, 0
3, 51360, Note_on_c, 0, 55, 26
3, 51360, Note_on_c, 0, 59, 26
3, 51360, Note_on_c, 0, 65, 31
3, 51480, Note_on_c, 0, 65, 0
3, 51480, Note_on_c, 0, 59, 0
3, 51480, Note_on_c, 0, 55, 0
3, 51840, Note_on_c, 0, 64, 44
3, 51840, Note_on_c, 0, 60, 37
3, 51960, Note_on_c, 0, 60, 0
3, 51960, Note_on_c, 0, 64, 0
3, 52080, Note_on_c, 0, 55, 35
3, 52200, Note_on_c, 0, 55, 0
3, 52320, Note_on_c, 0, 55, 39
3, 52440, Note_on_c, 0, 55, 0
3, 52560, Note_on_c, 0, 58, 70
3, 52800, Note_on_c, 0, 64, 48
3, 52800, Note_on_c, 0, 60, 48
3, 52920, Note_on_c, 0, 60, 0
3, 52920, Note_on_c, 0, 64, 0
3, 53040, Note_on_c, 0, 64, 48
3, 53040, Note_on_c, 0, 60, 48
3, 53160, Note_on_c, 0, 60, 0
3, 53160, Note_on_c, 0, 64, 0
3, 53280, Note_on_c, 0, 58, 0
3, 53280, Note_on_c, 0, 57, 71
3, 53520, Note_on_c, 0, 65, 47
3, 53520, Note_on_c, 0, 60, 39
3, 53736, Note_on_c, 0, 60, 0
3, 53736, Note_on_c, 0, 65, 0
3, 53760, Note_on_c, 0, 65, 47
3, 53760, Note_on_c, 0, 60, 39
3, 53976, Note_on_c, 0, 60, 0
3, 53976, Note_on_c, 0, 65, 0
3, 54000, Note_on_c, 0, 57, 0
3, 54000, Note_on_c, 0, 55, 75
3, 54240, Note_on_c, 0, 64, 49
3, 54240, Note_on_c, 0, 60, 41
3, 54456, Note_on_c, 0, 60, 0
3, 54456, Note_on_c, 0, 64, 0
3, 54480, Note_on_c, 0, 60, 41
3, 54480, Note_on_c, 0, 64, 49
3, 54696, Note_on_c, 0, 64, 0
3, 54696, Note_on_c, 0, 60, 0
3, 54720, Note_on_c, 0, 55, 0
3, 54720, Note_on_c, 0, 53, 76
3, 54960, Note_on_c, 0, 57, 41
3, 54960, Note_on_c, 0, 62, 49
3, 55176, Note_on_c, 0, 62, 0
3, 55176, Note_on_c, 0, 57, 0
3, 55200, Note_on_c, 0, 62, 50
3, 55200, Note_on_c, 0, 57, 42
3, 55416, Note_on_c, 0, 57, 0
3, 55416, Note_on_c, 0, 62, 0
3, 55440, Note_on_c, 0, 53, 0
3, 55440, Note_on_c, 0, 54, 80
3, 55680, Note_on_c, 0, 63, 50
3, 55680, Note_on_c, 0, 57, 42
3, 55896, Note_on_c, 0, 57, 0
3, 55896, Note_on_c, 0, 63, 0
3, 55920, Note_on_c, 0, 63, 52
3, 55920, Note_on_c, 0, 57, 44
3, 56136, Note_on_c, 0, 57, 0
3, 56136, Note_on_c, 0, 63, 0
3, 56160, Note_on_c, 0, 54, 0
3, 56160, Note_on_c, 0, 64, 73
3, 56160, Note_on_c, 0, 60, 62
3, 56160, Note_on_c, 0, 55, 62
3, 56280, Note_on_c, 0, 55, 0
3, 56280, Note_on_c, 0, 60, 0
3, 56280, Note_on_c, 0, 64, 0
3, 56880, Note_on_c, 0, 55, 35
3, 56880, Note_on_c, 0, 62, 35
3, 56880, Note_on_c, 0, 65, 42
3, 57000, Note_on_c, 0, 65, 0
3, 57000, Note_on_c, 0, 62, 0
3, 57000, Note_on_c, 0, 55, 0
3, 57600, Note_on_c, 0, 48, 56
3, 57600, Note_on_c, 0, 52, 66
3, 58080, Note_on_c, 0, 52, 0
3, 58080, Note_on_c, 0, 48, 0
3, 58080, Note_on_c, 0, 55, 66
3, 58320, Note_on_c, 0, 55, 0
3, 58320, Note_on_c, 0, 48, 53
3, 58320, Note_on_c, 0, 53, 63
3, 58800, Note_on_c, 0, 53, 0
3, 58800, Note_on_c, 0, 48, 0
3, 58800, Note_on_c, 0, 55, 70
3, 59040, Note_on_c, 0, 55, 0
3, 59040, Note_on_c, 0, 48, 56
3, 59040, Note_on_c, 0, 52, 66
3, 59520, Note_on_c, 0, 52, 0
3, 59520, Note_on_c, 0, 48, 0
3, 59520, Note_on_c, 0, 55, 66
3, 59760, Note_on_c, 0, 55, 0
3, 59760, Note_on_c, 0, 48, 53
3, 59760, Note_on_c, 0, 53, 63
3, 60240, Note_on_c, 0, 53, 0
3, 60240, Note_on_c, 0, 48, 0
3, 60240, Note_on_c, 0, 55, 70
3, 60480, Note_on_c, 0, 55, 0
3, 60480, Note_on_c, 0, 48, 61
3, 60480, Note_on_c, 0, 52, 72
3, 60960, Note_on_c, 0, 52, 0
3, 60960, Note_on_c, 0, 48, 0
3, 60960, Note_on_c, 0, 55, 74
3, 61200, Note_on_c, 0, 55, 0
3, 61680, Note_on_c, 0, 52, 73
3, 61800, Note_on_c, 0, 52, 0
3, 62400, Note_on_c, 0, 48, 78
3, 62520, Note_on_c, 0, 48, 0
3, 63120, Note_on_c, 0, 43, 84
3, 63240, Note_on_c, 0, 43, 0
3, 63360, Note_on_c, 0, 44, 79
3, 63540, Note_on_c, 0, 44, 0
3, 64080, Note_on_c, 0, 56, 65
3, 64080, Note_on_c, 0, 60, 65
3, 64080, Note_on_c, 0, 62, 78
3, 64260, Note_on_c, 0, 62, 0
3, 64260, Note_on_c, 0, 60, 0
3, 64260, Note_on_c, 0, 56, 0
3, 64800, Note_on_c, 0, 43, 77
3, 64980, Note_on_c, 0, 43, 0
3, 65520, Note_on_c, 0, 55, 56
3, 65520, Note_on_c, 0, 62, 56
3, 65520, Note_on_c, 0, 65, 67
3, 65700, Note_on_c, 0, 65, 0
3, 65700, Note_on_c, 0, 62, 0
3, 65700, Note_on_c, 0, 55, 0
3, 66240, Note_on_c, 0, 48, 80
3, 66240, Note_on_c, 0, 36, 80
3, 66420, Note_on_c, 0, 36, 0
3, 66420, Note_on_c, 0, 48, 0
3, 66960, Note_on_c, 0, 60, 60
3, 66960, Note_on_c, 0, 64, 60
3, 66960, Note_on_c, 0, 67, 71
3, 67140, Note_on_c, 0, 67, 0
3, 67140, Note_on_c, 0, 64, 0
3, 67140, Note_on_c, 0, 60, 0
3, 67140, End_track
4, 0, Start_track
4, 0, Title_t, "Pedale"
4, 75, Control_c, 0, 64, 127
4, 728, Control_c, 0, 64, 0
4, 795, Control_c, 0, 64, 127
4, 1443, Control_c, 0, 64, 0
4, 1497, Control_c, 0, 64, 127
4, 2177, Control_c, 0, 64, 0
4, 2235, Control_c, 0, 64, 127
4, 2886, Control_c, 0, 64, 0
4, 2951, Control_c, 0, 64, 127
4, 4320, Control_c, 0, 64, 0
4, 4412, Control_c, 0, 64, 127
4, 5057, Control_c, 0, 64, 0
4, 5146, Control_c, 0, 64, 127
4, 5760, Control_c, 0, 64, 0
4, 5835, Control_c, 0, 64, 127
4, 6488, Control_c, 0, 64, 0
4, 6555, Control_c, 0, 64, 127
4, 7203, Control_c, 0, 64, 0
4, 7257, Control_c, 0, 64, 127
4, 7937, Control_c, 0, 64, 0
4, 7995, Control_c, 0, 64, 127
4, 8646, Control_c, 0, 64, 0
4, 8711, Control_c, 0, 64, 127
4, 10080, Control_c, 0, 64, 0
4, 10172, Control_c, 0, 64, 127
4, 10817, Control_c, 0, 64, 0
4, 11595, Control_c, 0, 64, 127
4, 12248, Control_c, 0, 64, 0
4, 12315, Control_c, 0, 64, 127
4, 12963, Control_c, 0, 64, 0
4, 13017, Control_c, 0, 64, 127
4, 13697, Control_c, 0, 64, 0
4, 13755, Control_c, 0, 64, 127
4, 14406, Control_c, 0, 64, 0
4, 14471, Control_c, 0, 64, 127
4, 15840, Control_c, 0, 64, 0
4, 15932, Control_c, 0, 64, 127
4, 16577, Control_c, 0, 64, 0
4, 16666, Control_c, 0, 64, 127
4, 17280, Control_c, 0, 64, 0
4, 17355, Control_c, 0, 64, 127
4, 18008, Control_c, 0, 64, 0
4, 18075, Control_c, 0, 64, 127
4, 18723, Control_c, 0, 64, 0
4, 18777, Control_c, 0, 64, 127
4, 19457, Control_c, 0, 64, 0
4, 19515, Control_c, 0, 64, 127
4, 20166, Control_c, 0, 64, 0
4, 20231, Control_c, 0, 64, 127
4, 21600, Control_c, 0, 64, 0
4, 21692, Control_c, 0, 64, 127
4, 22337, Control_c, 0, 64, 0
4, 23115, Control_c, 0, 64, 127
4, 23768, Control_c, 0, 64, 0
4, 23835, Control_c, 0, 64, 127
4, 24483, Control_c, 0, 64, 0
4, 24537, Control_c, 0, 64, 127
4, 25103, Control_c, 0, 64, 0
4, 25320, Control_c, 0, 64, 127
4, 25920, Control_c, 0, 64, 0
4, 28875, Control_c, 0, 64, 127
4, 29528, Control_c, 0, 64, 0
4, 29595, Control_c, 0, 64, 127
4, 30243, Control_c, 0, 64, 0
4, 30297, Control_c, 0, 64, 127
4, 30851, Control_c, 0, 64, 0
4, 31080, Control_c, 0, 64, 127
4, 31680, Control_c, 0, 64, 0
4, 34635, Control_c, 0, 64, 127
4, 35288, Control_c, 0, 64, 0
4, 35400, Control_c, 0, 64, 127
4, 36014, Control_c, 0, 64, 0
4, 36075, Control_c, 0, 64, 127
4, 36728, Control_c, 0, 64, 0
4, 36840, Control_c, 0, 64, 127
4, 37454, Control_c, 0, 64, 0
4, 37515, Control_c, 0, 64, 127
4, 38174, Control_c, 0, 64, 0
4, 38235, Control_c, 0, 64, 127
4, 38894, Control_c, 0, 64, 0
4, 38955, Control_c, 0, 64, 127
4, 39614, Control_c, 0, 64, 0
4, 39675, Control_c, 0, 64, 127
4, 40332, Control_c, 0, 64, 0
4, 40440, Control_c, 0, 64, 127
4, 40815, Control_c, 0, 64, 0
4, 40920, Control_c, 0, 64, 127
4, 41290, Control_c, 0, 64, 0
4, 41400, Control_c, 0, 64, 127
4, 41778, Control_c, 0, 64, 0
4, 43306, Control_c, 0, 64, 127
4, 44644, Control_c, 0, 64, 0
4, 44760, Control_c, 0, 64, 127
4, 45379, Control_c, 0, 64, 0
4, 45438, Control_c, 0, 64, 127
4, 46080, Control_c, 0, 64, 0
4, 46155, Control_c, 0, 64, 127
4, 46808, Control_c, 0, 64, 0
4, 46875, Control_c, 0, 64, 127
4, 47523, Control_c, 0, 64, 0
4, 47577, Control_c, 0, 64, 127
4, 48257, Control_c, 0, 64, 0
4, 48315, Control_c, 0, 64, 127
4, 48966, Control_c, 0, 64, 0
4, 49031, Control_c, 0, 64, 127
4, 50400, Control_c, 0, 64, 0
4, 50492, Control_c, 0, 64, 127
4, 51137, Control_c, 0, 64, 0
4, 51226, Control_c, 0, 64, 127
4, 51840, Control_c, 0, 64, 0
4, 51915, Control_c, 0, 64, 127
4, 52568, Control_c, 0, 64, 0
4, 52635, Control_c, 0, 64, 127
4, 53280, Control_c, 0, 64, 0
4, 53355, Control_c, 0, 64, 127
4, 54008, Control_c, 0, 64, 0
4, 54075, Control_c, 0, 64, 127
4, 54720, Control_c, 0, 64, 0
4, 54795, Control_c, 0, 64, 127
4, 55448, Control_c, 0, 64, 0
4, 55515, Control_c, 0, 64, 127
4, 56175, Control_c, 0, 64, 0
4, 56308, Control_c, 0, 64, 127
4, 56892, Control_c, 0, 64, 0
4, 57007, Control_c, 0, 64, 127
4, 57600, Control_c, 0, 64, 0
4, 63451, Control_c, 0, 64, 127
4, 64800, Control_c, 0, 64, 0
4, 64896, Control_c, 0, 64, 127
4, 66240, Control_c, 0, 64, 0
4, 66321, Control_c, 0, 64, 127
4, 68880, Control_c, 0, 64, 0
4, 68880, End_track
5, 0, Start_track
5, 0, Title_t, "Buegmueller: Etueden Op. 109 - Spinning Song"
5, 0, End_track
6, 0, Start_track
6, 0, Title_t, "Copyright © 2012 by Bernd Krüger"
6, 0, End_track
7, 0, Start_track
7, 0, Title_t, "http://piano-midi.de"
7, 0, End_track
8, 0, Start_track
8, 0, Title_t, "Edition: 2012-04-22"
8, 0, End_track
0, 0, End_of_file
