0, 0, Header, 1, 7, 480
1, 0, Start_track
1, 0, Title_t, "Etueden Opus 109"
1, 0, Title_t, "Trennung"
1, 0, Copyright_t, "Copyright © 2012 by Bernd Krueger"
1, 0, Text_t, "Friedrich Burgmueller"
1, 0, Text_t, "Allegro vivace"
1, 0, Text_t, "Erstellt: 28.3.2012\012"
1, 0, Text_t, "Dauer: 1:19 Minuten\012"
1, 0, SMPTE_offset, 96, 0, 3, 0, 0
1, 0, Time_signature, 4, 2, 24, 8
1, 0, Key_signature, -3, "major"
1, 0, Tempo, 452182
1, 1440, Marker_t, "Teil 1"
1, 1920, Tempo, 445467
1, 2400, Tempo, 443820
1, 2880, Tempo, 442184
1, 3360, Tempo, 457352
1, 3840, Tempo, 442184
1, 5280, Tempo, 452182
1, 5760, Tempo, 447127
1, 6240, Tempo, 442184
1, 6720, Tempo, 440561
1, 7200, Tempo, 464432
1, 7680, Tempo, 443820
1, 8160, Tempo, 447127
1, 8640, Tempo, 455615
1, 9120, Tempo, 487053
1, 9280, Tempo, 516396
1, 9440, Tempo, 554580
1, 9600, Tempo, 462642
1, 10080, Tempo, 455615
1, 10560, Tempo, 448799
1, 11040, Tempo, 462642
1, 11520, Tempo, 448799
1, 12000, Tempo, 455615
1, 12120, Tempo, 453892
1, 12480, Tempo, 447127
1, 12960, Tempo, 460865
1, 13120, Tempo, 485084
1, 13280, Tempo, 511989
1, 13440, Tempo, 570396
1, 13600, Tempo, 518627
1, 13920, Tempo, 493056
1, 14080, Tempo, 479272
1, 14400, Tempo, 460865
1, 14880, Tempo, 469888
1, 15040, Tempo, 485084
1, 15200, Tempo, 499210
1, 15360, Tempo, 466237
1, 15680, Tempo, 495090
1, 15840, Tempo, 477365
1, 16000, Tempo, 511989
1, 16160, Tempo, 592944
1, 16320, Tempo, 540103
1, 16800, Tempo, 452182
1, 16800, Marker_t, "Teil 1 - Wiederholung"
1, 17280, Tempo, 445467
1, 17760, Tempo, 443820
1, 18240, Tempo, 442184
1, 18720, Tempo, 457352
1, 19200, Tempo, 442184
1, 20640, Tempo, 452182
1, 21120, Tempo, 447127
1, 21600, Tempo, 442184
1, 22080, Tempo, 440561
1, 22560, Tempo, 464432
1, 23040, Tempo, 443820
1, 23520, Tempo, 447127
1, 24000, Tempo, 455615
1, 24480, Tempo, 493462
1, 24640, Tempo, 528216
1, 24800, Tempo, 579206
1, 24960, Tempo, 464792
1, 25440, Tempo, 455962
1, 25920, Tempo, 448799
1, 26400, Tempo, 462642
1, 26880, Tempo, 448799
1, 27360, Tempo, 455615
1, 27480, Tempo, 453892
1, 27840, Tempo, 447127
1, 28320, Tempo, 460865
1, 28480, Tempo, 485084
1, 28640, Tempo, 511989
1, 28800, Tempo, 570396
1, 28960, Tempo, 518627
1, 29280, Tempo, 493056
1, 29440, Tempo, 479272
1, 29760, Tempo, 460865
1, 30240, Tempo, 469888
1, 30400, Tempo, 485084
1, 30560, Tempo, 499210
1, 30720, Tempo, 466237
1, 31040, Tempo, 495090
1, 31200, Tempo, 477365
1, 31360, Tempo, 511989
1, 31520, Tempo, 592944
1, 31680, Tempo, 560276
1, 32160, Tempo, 466599
1, 32160, Marker_t, "Teil 2"
1, 32640, Tempo, 457701
1, 33120, Tempo, 449135
1, 33600, Tempo, 442511
1, 34080, Tempo, 452182
1, 34560, Tempo, 447127
1, 35040, Tempo, 442184
1, 35520, Tempo, 440561
1, 36000, Tempo, 457352
1, 36480, Tempo, 447127
1, 36960, Tempo, 452182
1, 37440, Tempo, 459102
1, 37920, Tempo, 475473
1, 38080, Tempo, 505519
1, 38240, Tempo, 542054
1, 38400, Tempo, 634317
1, 38560, Tempo, 542545
1, 38720, Tempo, 537683
1, 38880, Tempo, 509814
1, 39040, Tempo, 491039
1, 39360, Tempo, 471735
1, 39840, Tempo, 481193
1, 40000, Tempo, 525901
1, 40160, Tempo, 568236
1, 40320, Tempo, 468421
1, 40800, Tempo, 455615
1, 41280, Tempo, 448799
1, 41760, Tempo, 462642
1, 42240, Tempo, 448799
1, 42720, Tempo, 455615
1, 42840, Tempo, 453892
1, 43200, Tempo, 447127
1, 43680, Tempo, 460865
1, 43840, Tempo, 485084
1, 44000, Tempo, 525901
1, 44160, Tempo, 596481
1, 44320, Tempo, 518627
1, 44640, Tempo, 493056
1, 44800, Tempo, 479272
1, 45120, Tempo, 460865
1, 45600, Tempo, 469888
1, 45760, Tempo, 485084
1, 45920, Tempo, 499210
1, 46080, Tempo, 466237
1, 46400, Tempo, 495090
1, 46560, Tempo, 477365
1, 46720, Tempo, 511989
1, 46880, Tempo, 592944
1, 47040, Tempo, 493462
1, 47520, Tempo, 459453
1, 48000, Tempo, 452523
1, 48480, Tempo, 445798
1, 48960, Tempo, 440885
1, 49440, Tempo, 452182
1, 49920, Tempo, 447127
1, 50400, Tempo, 442184
1, 50880, Tempo, 440561
1, 51360, Tempo, 457352
1, 51840, Tempo, 447127
1, 52320, Tempo, 452182
1, 52800, Tempo, 459102
1, 53280, Tempo, 475473
1, 53440, Tempo, 516840
1, 53600, Tempo, 552537
1, 53760, Tempo, 655093
1, 53920, Tempo, 547495
1, 54080, Tempo, 537683
1, 54240, Tempo, 509814
1, 54400, Tempo, 491039
1, 54720, Tempo, 471735
1, 55200, Tempo, 491441
1, 55360, Tempo, 540103
1, 55520, Tempo, 658689
1, 55680, Tempo, 499625
1, 55840, Tempo, 472106
1, 56160, Tempo, 455615
1, 56640, Tempo, 448799
1, 57120, Tempo, 462642
1, 57600, Tempo, 448799
1, 58080, Tempo, 455615
1, 58200, Tempo, 453892
1, 58560, Tempo, 447127
1, 59040, Tempo, 460865
1, 59200, Tempo, 485084
1, 59360, Tempo, 532907
1, 59520, Tempo, 587717
1, 59680, Tempo, 518627
1, 60000, Tempo, 493056
1, 60160, Tempo, 479272
1, 60480, Tempo, 460865
1, 60960, Tempo, 469888
1, 61120, Tempo, 485084
1, 61280, Tempo, 499210
1, 61440, Tempo, 469888
1, 61600, Tempo, 485084
1, 61760, Tempo, 499210
1, 61920, Tempo, 493056
1, 62080, Tempo, 479272
1, 62400, Tempo, 466237
1, 62880, Tempo, 469888
1, 63040, Tempo, 485084
1, 63200, Tempo, 499210
1, 63360, Tempo, 469888
1, 63520, Tempo, 485084
1, 63680, Tempo, 499210
1, 63840, Tempo, 493056
1, 64000, Tempo, 479272
1, 64320, Tempo, 466237
1, 64800, Tempo, 469888
1, 64960, Tempo, 485084
1, 65120, Tempo, 499210
1, 65280, Tempo, 469888
1, 65440, Tempo, 485084
1, 65600, Tempo, 499210
1, 65760, Tempo, 493056
1, 65920, Tempo, 479272
1, 66240, Tempo, 487053
1, 66400, Tempo, 477365
1, 66720, Tempo, 495090
1, 66880, Tempo, 514183
1, 67040, Tempo, 542054
1, 67200, Tempo, 575871
1, 67360, Tempo, 528216
1, 67520, Tempo, 512426
1, 67680, Tempo, 497554
1, 67840, Tempo, 485476
1, 68160, Tempo, 470256
1, 68640, Tempo, 469888
1, 68800, Tempo, 485084
1, 68960, Tempo, 499210
1, 69120, Tempo, 469888
1, 69280, Tempo, 485084
1, 69440, Tempo, 499210
1, 69600, Tempo, 493056
1, 69760, Tempo, 479272
1, 70080, Tempo, 475473
1, 70240, Tempo, 489037
1, 70560, Tempo, 493056
1, 70720, Tempo, 479272
1, 71040, Tempo, 475473
1, 71200, Tempo, 489037
1, 71520, Tempo, 493056
1, 71680, Tempo, 483131
1, 72000, Tempo, 485084
1, 72160, Tempo, 505519
1, 72480, Tempo, 539617
1, 72640, Tempo, 562377
1, 72800, Tempo, 590029
1, 72960, Tempo, 534807
1, 73120, Tempo, 489037
1, 73920, Tempo, 495090
1, 74400, Tempo, 607964
1, 74400, End_track
2, 0, Start_track
2, 0, Title_t, "Piano right"
2, 0, Program_c, 0, 0
2, 0, Control_c, 0, 7, 127
2, 0, Control_c, 0, 10, 64
2, 2080, Note_on_c, 0, 63, 32
2, 2080, Note_on_c, 0, 67, 38
2, 2200, Note_on_c, 0, 67, 0
2, 2200, Note_on_c, 0, 63, 0
2, 2240, Note_on_c, 0, 63, 32
2, 2240, Note_on_c, 0, 67, 38
2, 2360, Note_on_c, 0, 67, 0
2, 2360, Note_on_c, 0, 63, 0
2, 2560, Note_on_c, 0, 67, 43
2, 2560, Note_on_c, 0, 63, 36
2, 2680, Note_on_c, 0, 63, 0
2, 2680, Note_on_c, 0, 67, 0
2, 2720, Note_on_c, 0, 67, 44
2, 2720, Note_on_c, 0, 63, 36
2, 2840, Note_on_c, 0, 63, 0
2, 2840, Note_on_c, 0, 67, 0
2, 3040, Note_on_c, 0, 63, 41
2, 3040, Note_on_c, 0, 67, 49
2, 3160, Note_on_c, 0, 67, 0
2, 3160, Note_on_c, 0, 63, 0
2, 3200, Note_on_c, 0, 63, 42
2, 3200, Note_on_c, 0, 67, 49
2, 3320, Note_on_c, 0, 67, 0
2, 3320, Note_on_c, 0, 63, 0
2, 3520, Note_on_c, 0, 63, 44
2, 3520, Note_on_c, 0, 67, 53
2, 3640, Note_on_c, 0, 67, 0
2, 3640, Note_on_c, 0, 63, 0
2, 3680, Note_on_c, 0, 63, 44
2, 3680, Note_on_c, 0, 67, 53
2, 3800, Note_on_c, 0, 67, 0
2, 3800, Note_on_c, 0, 63, 0
2, 4000, Note_on_c, 0, 63, 44
2, 4000, Note_on_c, 0, 67, 53
2, 4120, Note_on_c, 0, 67, 0
2, 4120, Note_on_c, 0, 63, 0
2, 4160, Note_on_c, 0, 63, 43
2, 4160, Note_on_c, 0, 67, 52
2, 4280, Note_on_c, 0, 67, 0
2, 4280, Note_on_c, 0, 63, 0
2, 4480, Note_on_c, 0, 63, 39
2, 4480, Note_on_c, 0, 67, 46
2, 4600, Note_on_c, 0, 67, 0
2, 4600, Note_on_c, 0, 63, 0
2, 4640, Note_on_c, 0, 63, 38
2, 4640, Note_on_c, 0, 67, 46
2, 4760, Note_on_c, 0, 67, 0
2, 4760, Note_on_c, 0, 63, 0
2, 4960, Note_on_c, 0, 67, 47
2, 4960, Note_on_c, 0, 63, 40
2, 5080, Note_on_c, 0, 63, 0
2, 5080, Note_on_c, 0, 67, 0
2, 5120, Note_on_c, 0, 67, 46
2, 5120, Note_on_c, 0, 63, 39
2, 5240, Note_on_c, 0, 63, 0
2, 5240, Note_on_c, 0, 67, 0
2, 5440, Note_on_c, 0, 67, 41
2, 5440, Note_on_c, 0, 63, 34
2, 5560, Note_on_c, 0, 63, 0
2, 5560, Note_on_c, 0, 67, 0
2, 5600, Note_on_c, 0, 67, 41
2, 5600, Note_on_c, 0, 63, 34
2, 5720, Note_on_c, 0, 63, 0
2, 5720, Note_on_c, 0, 67, 0
2, 5920, Note_on_c, 0, 70, 44
2, 5920, Note_on_c, 0, 65, 37
2, 6040, Note_on_c, 0, 65, 0
2, 6040, Note_on_c, 0, 70, 0
2, 6080, Note_on_c, 0, 70, 45
2, 6080, Note_on_c, 0, 65, 38
2, 6200, Note_on_c, 0, 65, 0
2, 6200, Note_on_c, 0, 70, 0
2, 6400, Note_on_c, 0, 68, 51
2, 6400, Note_on_c, 0, 65, 44
2, 6520, Note_on_c, 0, 65, 0
2, 6520, Note_on_c, 0, 68, 0
2, 6560, Note_on_c, 0, 68, 53
2, 6560, Note_on_c, 0, 65, 45
2, 6680, Note_on_c, 0, 65, 0
2, 6680, Note_on_c, 0, 68, 0
2, 6880, Note_on_c, 0, 65, 49
2, 6880, Note_on_c, 0, 68, 59
2, 7000, Note_on_c, 0, 68, 0
2, 7000, Note_on_c, 0, 65, 0
2, 7040, Note_on_c, 0, 65, 49
2, 7040, Note_on_c, 0, 68, 59
2, 7160, Note_on_c, 0, 68, 0
2, 7160, Note_on_c, 0, 65, 0
2, 7360, Note_on_c, 0, 63, 42
2, 7360, Note_on_c, 0, 67, 51
2, 7480, Note_on_c, 0, 67, 0
2, 7480, Note_on_c, 0, 63, 0
2, 7520, Note_on_c, 0, 63, 42
2, 7520, Note_on_c, 0, 67, 50
2, 7640, Note_on_c, 0, 67, 0
2, 7640, Note_on_c, 0, 63, 0
2, 7840, Note_on_c, 0, 63, 44
2, 7840, Note_on_c, 0, 67, 53
2, 7960, Note_on_c, 0, 67, 0
2, 7960, Note_on_c, 0, 63, 0
2, 8000, Note_on_c, 0, 63, 43
2, 8000, Note_on_c, 0, 67, 52
2, 8120, Note_on_c, 0, 67, 0
2, 8120, Note_on_c, 0, 63, 0
2, 8320, Note_on_c, 0, 72, 44
2, 8320, Note_on_c, 0, 66, 37
2, 8320, Note_on_c, 0, 63, 37
2, 8440, Note_on_c, 0, 63, 0
2, 8440, Note_on_c, 0, 66, 0
2, 8440, Note_on_c, 0, 72, 0
2, 8480, Note_on_c, 0, 72, 44
2, 8480, Note_on_c, 0, 66, 36
2, 8480, Note_on_c, 0, 63, 36
2, 8600, Note_on_c, 0, 63, 0
2, 8600, Note_on_c, 0, 66, 0
2, 8600, Note_on_c, 0, 72, 0
2, 8800, Note_on_c, 0, 65, 40
2, 8800, Note_on_c, 0, 62, 33
2, 8920, Note_on_c, 0, 62, 0
2, 8920, Note_on_c, 0, 65, 0
2, 8960, Note_on_c, 0, 65, 39
2, 8960, Note_on_c, 0, 62, 33
2, 9080, Note_on_c, 0, 62, 0
2, 9080, Note_on_c, 0, 65, 0
2, 9280, Note_on_c, 0, 70, 37
2, 9280, Note_on_c, 0, 68, 31
2, 9280, Note_on_c, 0, 62, 31
2, 9400, Note_on_c, 0, 62, 0
2, 9400, Note_on_c, 0, 68, 0
2, 9400, Note_on_c, 0, 70, 0
2, 9440, Note_on_c, 0, 70, 37
2, 9440, Note_on_c, 0, 68, 31
2, 9440, Note_on_c, 0, 62, 31
2, 9560, Note_on_c, 0, 62, 0
2, 9560, Note_on_c, 0, 68, 0
2, 9560, Note_on_c, 0, 70, 0
2, 9760, Note_on_c, 0, 75, 43
2, 9760, Note_on_c, 0, 67, 36
2, 9760, Note_on_c, 0, 63, 36
2, 9880, Note_on_c, 0, 63, 0
2, 9880, Note_on_c, 0, 67, 0
2, 9880, Note_on_c, 0, 75, 0
2, 9920, Note_on_c, 0, 75, 43
2, 9920, Note_on_c, 0, 67, 36
2, 9920, Note_on_c, 0, 63, 36
2, 10040, Note_on_c, 0, 63, 0
2, 10040, Note_on_c, 0, 67, 0
2, 10040, Note_on_c, 0, 75, 0
2, 10240, Note_on_c, 0, 63, 42
2, 10240, Note_on_c, 0, 67, 42
2, 10240, Note_on_c, 0, 75, 50
2, 10360, Note_on_c, 0, 75, 0
2, 10360, Note_on_c, 0, 67, 0
2, 10360, Note_on_c, 0, 63, 0
2, 10400, Note_on_c, 0, 63, 42
2, 10400, Note_on_c, 0, 67, 42
2, 10400, Note_on_c, 0, 75, 51
2, 10520, Note_on_c, 0, 75, 0
2, 10520, Note_on_c, 0, 67, 0
2, 10520, Note_on_c, 0, 63, 0
2, 10720, Note_on_c, 0, 63, 48
2, 10720, Note_on_c, 0, 67, 48
2, 10720, Note_on_c, 0, 75, 57
2, 10840, Note_on_c, 0, 75, 0
2, 10840, Note_on_c, 0, 67, 0
2, 10840, Note_on_c, 0, 63, 0
2, 10880, Note_on_c, 0, 63, 49
2, 10880, Note_on_c, 0, 67, 49
2, 10880, Note_on_c, 0, 75, 58
2, 11000, Note_on_c, 0, 75, 0
2, 11000, Note_on_c, 0, 67, 0
2, 11000, Note_on_c, 0, 63, 0
2, 11200, Note_on_c, 0, 63, 52
2, 11200, Note_on_c, 0, 68, 52
2, 11200, Note_on_c, 0, 75, 62
2, 11320, Note_on_c, 0, 75, 0
2, 11320, Note_on_c, 0, 68, 0
2, 11320, Note_on_c, 0, 63, 0
2, 11360, Note_on_c, 0, 75, 63
2, 11360, Note_on_c, 0, 68, 53
2, 11360, Note_on_c, 0, 63, 53
2, 11480, Note_on_c, 0, 63, 0
2, 11480, Note_on_c, 0, 68, 0
2, 11480, Note_on_c, 0, 75, 0
2, 11680, Note_on_c, 0, 63, 59
2, 11680, Note_on_c, 0, 70, 59
2, 11680, Note_on_c, 0, 75, 70
2, 11800, Note_on_c, 0, 75, 0
2, 11800, Note_on_c, 0, 70, 0
2, 11800, Note_on_c, 0, 63, 0
2, 11840, Note_on_c, 0, 63, 59
2, 11840, Note_on_c, 0, 70, 59
2, 11840, Note_on_c, 0, 75, 70
2, 11960, Note_on_c, 0, 75, 0
2, 11960, Note_on_c, 0, 70, 0
2, 11960, Note_on_c, 0, 63, 0
2, 12160, Note_on_c, 0, 75, 64
2, 12160, Note_on_c, 0, 71, 55
2, 12160, Note_on_c, 0, 63, 55
2, 12280, Note_on_c, 0, 63, 0
2, 12280, Note_on_c, 0, 71, 0
2, 12280, Note_on_c, 0, 75, 0
2, 12320, Note_on_c, 0, 75, 64
2, 12320, Note_on_c, 0, 71, 54
2, 12320, Note_on_c, 0, 63, 54
2, 12440, Note_on_c, 0, 63, 0
2, 12440, Note_on_c, 0, 71, 0
2, 12440, Note_on_c, 0, 75, 0
2, 12640, Note_on_c, 0, 63, 58
2, 12640, Note_on_c, 0, 72, 58
2, 12640, Note_on_c, 0, 75, 69
2, 12760, Note_on_c, 0, 75, 0
2, 12760, Note_on_c, 0, 72, 0
2, 12760, Note_on_c, 0, 63, 0
2, 12800, Note_on_c, 0, 63, 57
2, 12800, Note_on_c, 0, 72, 57
2, 12800, Note_on_c, 0, 75, 68
2, 12920, Note_on_c, 0, 75, 0
2, 12920, Note_on_c, 0, 72, 0
2, 12920, Note_on_c, 0, 63, 0
2, 13120, Note_on_c, 0, 65, 64
2, 13120, Note_on_c, 0, 72, 64
2, 13120, Note_on_c, 0, 75, 77
2, 13120, Note_on_c, 0, 77, 77
2, 13240, Note_on_c, 0, 77, 0
2, 13240, Note_on_c, 0, 65, 0
2, 13240, Note_on_c, 0, 72, 0
2, 13240, Note_on_c, 0, 75, 0
2, 13280, Note_on_c, 0, 65, 64
2, 13280, Note_on_c, 0, 72, 64
2, 13280, Note_on_c, 0, 75, 77
2, 13280, Note_on_c, 0, 77, 77
2, 13400, Note_on_c, 0, 77, 0
2, 13400, Note_on_c, 0, 65, 0
2, 13400, Note_on_c, 0, 72, 0
2, 13400, Note_on_c, 0, 75, 0
2, 13600, Note_on_c, 0, 79, 78
2, 13600, Note_on_c, 0, 75, 78
2, 13600, Note_on_c, 0, 70, 66
2, 13600, Note_on_c, 0, 67, 66
2, 13720, Note_on_c, 0, 67, 0
2, 13720, Note_on_c, 0, 79, 0
2, 13720, Note_on_c, 0, 75, 0
2, 13720, Note_on_c, 0, 70, 0
2, 13760, Note_on_c, 0, 79, 78
2, 13760, Note_on_c, 0, 75, 78
2, 13760, Note_on_c, 0, 70, 66
2, 13760, Note_on_c, 0, 67, 66
2, 13880, Note_on_c, 0, 67, 0
2, 13880, Note_on_c, 0, 79, 0
2, 13880, Note_on_c, 0, 75, 0
2, 13880, Note_on_c, 0, 70, 0
2, 14080, Note_on_c, 0, 75, 50
2, 14080, Note_on_c, 0, 70, 42
2, 14080, Note_on_c, 0, 67, 42
2, 14200, Note_on_c, 0, 67, 0
2, 14200, Note_on_c, 0, 70, 0
2, 14200, Note_on_c, 0, 75, 0
2, 14240, Note_on_c, 0, 75, 49
2, 14240, Note_on_c, 0, 70, 41
2, 14240, Note_on_c, 0, 67, 41
2, 14360, Note_on_c, 0, 67, 0
2, 14360, Note_on_c, 0, 70, 0
2, 14360, Note_on_c, 0, 75, 0
2, 14560, Note_on_c, 0, 70, 49
2, 14560, Note_on_c, 0, 63, 40
2, 14680, Note_on_c, 0, 63, 0
2, 14680, Note_on_c, 0, 70, 0
2, 14720, Note_on_c, 0, 70, 47
2, 14720, Note_on_c, 0, 63, 39
2, 14840, Note_on_c, 0, 63, 0
2, 14840, Note_on_c, 0, 70, 0
2, 15040, Note_on_c, 0, 62, 32
2, 15040, Note_on_c, 0, 68, 32
2, 15040, Note_on_c, 0, 70, 38
2, 15160, Note_on_c, 0, 70, 0
2, 15160, Note_on_c, 0, 68, 0
2, 15160, Note_on_c, 0, 62, 0
2, 15200, Note_on_c, 0, 70, 37
2, 15200, Note_on_c, 0, 68, 31
2, 15200, Note_on_c, 0, 62, 31
2, 15320, Note_on_c, 0, 62, 0
2, 15320, Note_on_c, 0, 68, 0
2, 15320, Note_on_c, 0, 70, 0
2, 15520, Note_on_c, 0, 70, 35
2, 15520, Note_on_c, 0, 68, 29
2, 15520, Note_on_c, 0, 62, 29
2, 15640, Note_on_c, 0, 62, 0
2, 15640, Note_on_c, 0, 68, 0
2, 15640, Note_on_c, 0, 70, 0
2, 15680, Note_on_c, 0, 70, 35
2, 15680, Note_on_c, 0, 68, 29
2, 15680, Note_on_c, 0, 62, 29
2, 15800, Note_on_c, 0, 62, 0
2, 15800, Note_on_c, 0, 68, 0
2, 15800, Note_on_c, 0, 70, 0
2, 15840, Note_on_c, 0, 62, 32
2, 15840, Note_on_c, 0, 68, 32
2, 15840, Note_on_c, 0, 71, 38
2, 15960, Note_on_c, 0, 71, 0
2, 15960, Note_on_c, 0, 68, 0
2, 15960, Note_on_c, 0, 62, 0
2, 16000, Note_on_c, 0, 70, 35
2, 16000, Note_on_c, 0, 68, 29
2, 16000, Note_on_c, 0, 62, 29
2, 16120, Note_on_c, 0, 62, 0
2, 16120, Note_on_c, 0, 68, 0
2, 16120, Note_on_c, 0, 70, 0
2, 16160, Note_on_c, 0, 70, 35
2, 16160, Note_on_c, 0, 68, 29
2, 16160, Note_on_c, 0, 62, 29
2, 16280, Note_on_c, 0, 62, 0
2, 16280, Note_on_c, 0, 68, 0
2, 16280, Note_on_c, 0, 70, 0
2, 16320, Note_on_c, 0, 75, 39
2, 16320, Note_on_c, 0, 67, 33
2, 16320, Note_on_c, 0, 63, 33
2, 16800, Note_on_c, 0, 63, 0
2, 16800, Note_on_c, 0, 67, 0
2, 16800, Note_on_c, 0, 75, 0
2, 17440, Note_on_c, 0, 63, 32
2, 17440, Note_on_c, 0, 67, 38
2, 17560, Note_on_c, 0, 67, 0
2, 17560, Note_on_c, 0, 63, 0
2, 17600, Note_on_c, 0, 63, 32
2, 17600, Note_on_c, 0, 67, 38
2, 17720, Note_on_c, 0, 67, 0
2, 17720, Note_on_c, 0, 63, 0
2, 17920, Note_on_c, 0, 67, 43
2, 17920, Note_on_c, 0, 63, 36
2, 18040, Note_on_c, 0, 63, 0
2, 18040, Note_on_c, 0, 67, 0
2, 18080, Note_on_c, 0, 67, 44
2, 18080, Note_on_c, 0, 63, 36
2, 18200, Note_on_c, 0, 63, 0
2, 18200, Note_on_c, 0, 67, 0
2, 18400, Note_on_c, 0, 63, 41
2, 18400, Note_on_c, 0, 67, 49
2, 18520, Note_on_c, 0, 67, 0
2, 18520, Note_on_c, 0, 63, 0
2, 18560, Note_on_c, 0, 63, 42
2, 18560, Note_on_c, 0, 67, 49
2, 18680, Note_on_c, 0, 67, 0
2, 18680, Note_on_c, 0, 63, 0
2, 18880, Note_on_c, 0, 63, 44
2, 18880, Note_on_c, 0, 67, 53
2, 19000, Note_on_c, 0, 67, 0
2, 19000, Note_on_c, 0, 63, 0
2, 19040, Note_on_c, 0, 63, 44
2, 19040, Note_on_c, 0, 67, 53
2, 19160, Note_on_c, 0, 67, 0
2, 19160, Note_on_c, 0, 63, 0
2, 19360, Note_on_c, 0, 63, 44
2, 19360, Note_on_c, 0, 67, 53
2, 19480, Note_on_c, 0, 67, 0
2, 19480, Note_on_c, 0, 63, 0
2, 19520, Note_on_c, 0, 63, 43
2, 19520, Note_on_c, 0, 67, 52
2, 19640, Note_on_c, 0, 67, 0
2, 19640, Note_on_c, 0, 63, 0
2, 19840, Note_on_c, 0, 63, 39
2, 19840, Note_on_c, 0, 67, 46
2, 19960, Note_on_c, 0, 67, 0
2, 19960, Note_on_c, 0, 63, 0
2, 20000, Note_on_c, 0, 63, 38
2, 20000, Note_on_c, 0, 67, 46
2, 20120, Note_on_c, 0, 67, 0
2, 20120, Note_on_c, 0, 63, 0
2, 20320, Note_on_c, 0, 67, 47
2, 20320, Note_on_c, 0, 63, 40
2, 20440, Note_on_c, 0, 63, 0
2, 20440, Note_on_c, 0, 67, 0
2, 20480, Note_on_c, 0, 67, 46
2, 20480, Note_on_c, 0, 63, 39
2, 20600, Note_on_c, 0, 63, 0
2, 20600, Note_on_c, 0, 67, 0
2, 20800, Note_on_c, 0, 67, 41
2, 20800, Note_on_c, 0, 63, 34
2, 20920, Note_on_c, 0, 63, 0
2, 20920, Note_on_c, 0, 67, 0
2, 20960, Note_on_c, 0, 67, 41
2, 20960, Note_on_c, 0, 63, 34
2, 21080, Note_on_c, 0, 63, 0
2, 21080, Note_on_c, 0, 67, 0
2, 21280, Note_on_c, 0, 70, 44
2, 21280, Note_on_c, 0, 65, 37
2, 21400, Note_on_c, 0, 65, 0
2, 21400, Note_on_c, 0, 70, 0
2, 21440, Note_on_c, 0, 70, 45
2, 21440, Note_on_c, 0, 65, 38
2, 21560, Note_on_c, 0, 65, 0
2, 21560, Note_on_c, 0, 70, 0
2, 21760, Note_on_c, 0, 68, 51
2, 21760, Note_on_c, 0, 65, 44
2, 21880, Note_on_c, 0, 65, 0
2, 21880, Note_on_c, 0, 68, 0
2, 21920, Note_on_c, 0, 68, 53
2, 21920, Note_on_c, 0, 65, 45
2, 22040, Note_on_c, 0, 65, 0
2, 22040, Note_on_c, 0, 68, 0
2, 22240, Note_on_c, 0, 65, 49
2, 22240, Note_on_c, 0, 68, 59
2, 22360, Note_on_c, 0, 68, 0
2, 22360, Note_on_c, 0, 65, 0
2, 22400, Note_on_c, 0, 65, 49
2, 22400, Note_on_c, 0, 68, 59
2, 22520, Note_on_c, 0, 68, 0
2, 22520, Note_on_c, 0, 65, 0
2, 22720, Note_on_c, 0, 63, 42
2, 22720, Note_on_c, 0, 67, 51
2, 22840, Note_on_c, 0, 67, 0
2, 22840, Note_on_c, 0, 63, 0
2, 22880, Note_on_c, 0, 63, 42
2, 22880, Note_on_c, 0, 67, 50
2, 23000, Note_on_c, 0, 67, 0
2, 23000, Note_on_c, 0, 63, 0
2, 23200, Note_on_c, 0, 63, 44
2, 23200, Note_on_c, 0, 67, 53
2, 23320, Note_on_c, 0, 67, 0
2, 23320, Note_on_c, 0, 63, 0
2, 23360, Note_on_c, 0, 63, 43
2, 23360, Note_on_c, 0, 67, 52
2, 23480, Note_on_c, 0, 67, 0
2, 23480, Note_on_c, 0, 63, 0
2, 23680, Note_on_c, 0, 72, 44
2, 23680, Note_on_c, 0, 66, 37
2, 23680, Note_on_c, 0, 63, 37
2, 23800, Note_on_c, 0, 63, 0
2, 23800, Note_on_c, 0, 66, 0
2, 23800, Note_on_c, 0, 72, 0
2, 23840, Note_on_c, 0, 72, 44
2, 23840, Note_on_c, 0, 66, 36
2, 23840, Note_on_c, 0, 63, 36
2, 23960, Note_on_c, 0, 63, 0
2, 23960, Note_on_c, 0, 66, 0
2, 23960, Note_on_c, 0, 72, 0
2, 24160, Note_on_c, 0, 65, 40
2, 24160, Note_on_c, 0, 62, 33
2, 24280, Note_on_c, 0, 62, 0
2, 24280, Note_on_c, 0, 65, 0
2, 24320, Note_on_c, 0, 65, 39
2, 24320, Note_on_c, 0, 62, 33
2, 24440, Note_on_c, 0, 62, 0
2, 24440, Note_on_c, 0, 65, 0
2, 24640, Note_on_c, 0, 70, 37
2, 24640, Note_on_c, 0, 68, 31
2, 24640, Note_on_c, 0, 62, 31
2, 24760, Note_on_c, 0, 62, 0
2, 24760, Note_on_c, 0, 68, 0
2, 24760, Note_on_c, 0, 70, 0
2, 24800, Note_on_c, 0, 70, 37
2, 24800, Note_on_c, 0, 68, 31
2, 24800, Note_on_c, 0, 62, 31
2, 24920, Note_on_c, 0, 62, 0
2, 24920, Note_on_c, 0, 68, 0
2, 24920, Note_on_c, 0, 70, 0
2, 25120, Note_on_c, 0, 75, 43
2, 25120, Note_on_c, 0, 67, 36
2, 25120, Note_on_c, 0, 63, 36
2, 25240, Note_on_c, 0, 63, 0
2, 25240, Note_on_c, 0, 67, 0
2, 25240, Note_on_c, 0, 75, 0
2, 25280, Note_on_c, 0, 75, 43
2, 25280, Note_on_c, 0, 67, 36
2, 25280, Note_on_c, 0, 63, 36
2, 25400, Note_on_c, 0, 63, 0
2, 25400, Note_on_c, 0, 67, 0
2, 25400, Note_on_c, 0, 75, 0
2, 25600, Note_on_c, 0, 63, 42
2, 25600, Note_on_c, 0, 67, 42
2, 25600, Note_on_c, 0, 75, 50
2, 25720, Note_on_c, 0, 75, 0
2, 25720, Note_on_c, 0, 67, 0
2, 25720, Note_on_c, 0, 63, 0
2, 25760, Note_on_c, 0, 63, 42
2, 25760, Note_on_c, 0, 67, 42
2, 25760, Note_on_c, 0, 75, 51
2, 25880, Note_on_c, 0, 75, 0
2, 25880, Note_on_c, 0, 67, 0
2, 25880, Note_on_c, 0, 63, 0
2, 26080, Note_on_c, 0, 63, 48
2, 26080, Note_on_c, 0, 67, 48
2, 26080, Note_on_c, 0, 75, 57
2, 26200, Note_on_c, 0, 75, 0
2, 26200, Note_on_c, 0, 67, 0
2, 26200, Note_on_c, 0, 63, 0
2, 26240, Note_on_c, 0, 63, 49
2, 26240, Note_on_c, 0, 67, 49
2, 26240, Note_on_c, 0, 75, 58
2, 26360, Note_on_c, 0, 75, 0
2, 26360, Note_on_c, 0, 67, 0
2, 26360, Note_on_c, 0, 63, 0
2, 26560, Note_on_c, 0, 63, 52
2, 26560, Note_on_c, 0, 68, 52
2, 26560, Note_on_c, 0, 75, 62
2, 26680, Note_on_c, 0, 75, 0
2, 26680, Note_on_c, 0, 68, 0
2, 26680, Note_on_c, 0, 63, 0
2, 26720, Note_on_c, 0, 75, 63
2, 26720, Note_on_c, 0, 68, 53
2, 26720, Note_on_c, 0, 63, 53
2, 26840, Note_on_c, 0, 63, 0
2, 26840, Note_on_c, 0, 68, 0
2, 26840, Note_on_c, 0, 75, 0
2, 27040, Note_on_c, 0, 63, 59
2, 27040, Note_on_c, 0, 70, 59
2, 27040, Note_on_c, 0, 75, 70
2, 27160, Note_on_c, 0, 75, 0
2, 27160, Note_on_c, 0, 70, 0
2, 27160, Note_on_c, 0, 63, 0
2, 27200, Note_on_c, 0, 63, 59
2, 27200, Note_on_c, 0, 70, 59
2, 27200, Note_on_c, 0, 75, 70
2, 27320, Note_on_c, 0, 75, 0
2, 27320, Note_on_c, 0, 70, 0
2, 27320, Note_on_c, 0, 63, 0
2, 27520, Note_on_c, 0, 75, 64
2, 27520, Note_on_c, 0, 71, 55
2, 27520, Note_on_c, 0, 63, 55
2, 27640, Note_on_c, 0, 63, 0
2, 27640, Note_on_c, 0, 71, 0
2, 27640, Note_on_c, 0, 75, 0
2, 27680, Note_on_c, 0, 75, 64
2, 27680, Note_on_c, 0, 71, 54
2, 27680, Note_on_c, 0, 63, 54
2, 27800, Note_on_c, 0, 63, 0
2, 27800, Note_on_c, 0, 71, 0
2, 27800, Note_on_c, 0, 75, 0
2, 28000, Note_on_c, 0, 63, 58
2, 28000, Note_on_c, 0, 72, 58
2, 28000, Note_on_c, 0, 75, 69
2, 28120, Note_on_c, 0, 75, 0
2, 28120, Note_on_c, 0, 72, 0
2, 28120, Note_on_c, 0, 63, 0
2, 28160, Note_on_c, 0, 63, 57
2, 28160, Note_on_c, 0, 72, 57
2, 28160, Note_on_c, 0, 75, 68
2, 28280, Note_on_c, 0, 75, 0
2, 28280, Note_on_c, 0, 72, 0
2, 28280, Note_on_c, 0, 63, 0
2, 28480, Note_on_c, 0, 65, 64
2, 28480, Note_on_c, 0, 72, 64
2, 28480, Note_on_c, 0, 75, 77
2, 28480, Note_on_c, 0, 77, 77
2, 28600, Note_on_c, 0, 77, 0
2, 28600, Note_on_c, 0, 65, 0
2, 28600, Note_on_c, 0, 72, 0
2, 28600, Note_on_c, 0, 75, 0
2, 28640, Note_on_c, 0, 65, 64
2, 28640, Note_on_c, 0, 72, 64
2, 28640, Note_on_c, 0, 75, 77
2, 28640, Note_on_c, 0, 77, 77
2, 28760, Note_on_c, 0, 77, 0
2, 28760, Note_on_c, 0, 65, 0
2, 28760, Note_on_c, 0, 72, 0
2, 28760, Note_on_c, 0, 75, 0
2, 28960, Note_on_c, 0, 79, 78
2, 28960, Note_on_c, 0, 75, 78
2, 28960, Note_on_c, 0, 70, 66
2, 28960, Note_on_c, 0, 67, 66
2, 29080, Note_on_c, 0, 67, 0
2, 29080, Note_on_c, 0, 79, 0
2, 29080, Note_on_c, 0, 75, 0
2, 29080, Note_on_c, 0, 70, 0
2, 29120, Note_on_c, 0, 79, 78
2, 29120, Note_on_c, 0, 75, 78
2, 29120, Note_on_c, 0, 70, 66
2, 29120, Note_on_c, 0, 67, 66
2, 29240, Note_on_c, 0, 67, 0
2, 29240, Note_on_c, 0, 79, 0
2, 29240, Note_on_c, 0, 75, 0
2, 29240, Note_on_c, 0, 70, 0
2, 29440, Note_on_c, 0, 75, 50
2, 29440, Note_on_c, 0, 70, 42
2, 29440, Note_on_c, 0, 67, 42
2, 29560, Note_on_c, 0, 67, 0
2, 29560, Note_on_c, 0, 70, 0
2, 29560, Note_on_c, 0, 75, 0
2, 29600, Note_on_c, 0, 75, 49
2, 29600, Note_on_c, 0, 70, 41
2, 29600, Note_on_c, 0, 67, 41
2, 29720, Note_on_c, 0, 67, 0
2, 29720, Note_on_c, 0, 70, 0
2, 29720, Note_on_c, 0, 75, 0
2, 29920, Note_on_c, 0, 70, 49
2, 29920, Note_on_c, 0, 63, 40
2, 30040, Note_on_c, 0, 63, 0
2, 30040, Note_on_c, 0, 70, 0
2, 30080, Note_on_c, 0, 70, 47
2, 30080, Note_on_c, 0, 63, 39
2, 30200, Note_on_c, 0, 63, 0
2, 30200, Note_on_c, 0, 70, 0
2, 30400, Note_on_c, 0, 62, 32
2, 30400, Note_on_c, 0, 68, 32
2, 30400, Note_on_c, 0, 70, 38
2, 30520, Note_on_c, 0, 70, 0
2, 30520, Note_on_c, 0, 68, 0
2, 30520, Note_on_c, 0, 62, 0
2, 30560, Note_on_c, 0, 70, 37
2, 30560, Note_on_c, 0, 68, 31
2, 30560, Note_on_c, 0, 62, 31
2, 30680, Note_on_c, 0, 62, 0
2, 30680, Note_on_c, 0, 68, 0
2, 30680, Note_on_c, 0, 70, 0
2, 30880, Note_on_c, 0, 70, 35
2, 30880, Note_on_c, 0, 68, 29
2, 30880, Note_on_c, 0, 62, 29
2, 31000, Note_on_c, 0, 62, 0
2, 31000, Note_on_c, 0, 68, 0
2, 31000, Note_on_c, 0, 70, 0
2, 31040, Note_on_c, 0, 70, 35
2, 31040, Note_on_c, 0, 68, 29
2, 31040, Note_on_c, 0, 62, 29
2, 31160, Note_on_c, 0, 62, 0
2, 31160, Note_on_c, 0, 68, 0
2, 31160, Note_on_c, 0, 70, 0
2, 31200, Note_on_c, 0, 62, 32
2, 31200, Note_on_c, 0, 68, 32
2, 31200, Note_on_c, 0, 71, 38
2, 31320, Note_on_c, 0, 71, 0
2, 31320, Note_on_c, 0, 68, 0
2, 31320, Note_on_c, 0, 62, 0
2, 31360, Note_on_c, 0, 70, 35
2, 31360, Note_on_c, 0, 68, 29
2, 31360, Note_on_c, 0, 62, 29
2, 31480, Note_on_c, 0, 62, 0
2, 31480, Note_on_c, 0, 68, 0
2, 31480, Note_on_c, 0, 70, 0
2, 31520, Note_on_c, 0, 70, 35
2, 31520, Note_on_c, 0, 68, 29
2, 31520, Note_on_c, 0, 62, 29
2, 31640, Note_on_c, 0, 62, 0
2, 31640, Note_on_c, 0, 68, 0
2, 31640, Note_on_c, 0, 70, 0
2, 31680, Note_on_c, 0, 75, 39
2, 31680, Note_on_c, 0, 67, 33
2, 31680, Note_on_c, 0, 63, 33
2, 32160, Note_on_c, 0, 63, 0
2, 32160, Note_on_c, 0, 67, 0
2, 32160, Note_on_c, 0, 75, 0
2, 32320, Note_on_c, 0, 65, 39
2, 32320, Note_on_c, 0, 67, 46
2, 32440, Note_on_c, 0, 67, 0
2, 32440, Note_on_c, 0, 65, 0
2, 32480, Note_on_c, 0, 67, 41
2, 32480, Note_on_c, 0, 65, 28
2, 32600, Note_on_c, 0, 65, 0
2, 32600, Note_on_c, 0, 67, 0
2, 32800, Note_on_c, 0, 63, 43
2, 32800, Note_on_c, 0, 72, 51
2, 32920, Note_on_c, 0, 72, 0
2, 32920, Note_on_c, 0, 63, 0
2, 32960, Note_on_c, 0, 63, 32
2, 32960, Note_on_c, 0, 72, 45
2, 33080, Note_on_c, 0, 72, 0
2, 33080, Note_on_c, 0, 63, 0
2, 33280, Note_on_c, 0, 63, 48
2, 33280, Note_on_c, 0, 72, 57
2, 33400, Note_on_c, 0, 72, 0
2, 33400, Note_on_c, 0, 63, 0
2, 33440, Note_on_c, 0, 63, 49
2, 33440, Note_on_c, 0, 72, 58
2, 33560, Note_on_c, 0, 72, 0
2, 33560, Note_on_c, 0, 63, 0
2, 33760, Note_on_c, 0, 72, 56
2, 33760, Note_on_c, 0, 63, 47
2, 33880, Note_on_c, 0, 63, 0
2, 33880, Note_on_c, 0, 72, 0
2, 33920, Note_on_c, 0, 72, 56
2, 33920, Note_on_c, 0, 63, 47
2, 34040, Note_on_c, 0, 63, 0
2, 34040, Note_on_c, 0, 72, 0
2, 34240, Note_on_c, 0, 60, 39
2, 34240, Note_on_c, 0, 67, 39
2, 34240, Note_on_c, 0, 72, 46
2, 34360, Note_on_c, 0, 72, 0
2, 34360, Note_on_c, 0, 67, 0
2, 34360, Note_on_c, 0, 60, 0
2, 34400, Note_on_c, 0, 67, 35
2, 34400, Note_on_c, 0, 72, 42
2, 34400, Note_on_c, 0, 60, 35
2, 34520, Note_on_c, 0, 60, 0
2, 34520, Note_on_c, 0, 72, 0
2, 34520, Note_on_c, 0, 67, 0
2, 34720, Note_on_c, 0, 70, 59
2, 34720, Note_on_c, 0, 67, 50
2, 34720, Note_on_c, 0, 60, 50
2, 34840, Note_on_c, 0, 60, 0
2, 34840, Note_on_c, 0, 67, 0
2, 34840, Note_on_c, 0, 70, 0
2, 34880, Note_on_c, 0, 60, 50
2, 34880, Note_on_c, 0, 67, 50
2, 34880, Note_on_c, 0, 70, 59
2, 35000, Note_on_c, 0, 70, 0
2, 35000, Note_on_c, 0, 67, 0
2, 35000, Note_on_c, 0, 60, 0
2, 35200, Note_on_c, 0, 68, 52
2, 35200, Note_on_c, 0, 65, 44
2, 35200, Note_on_c, 0, 60, 44
2, 35320, Note_on_c, 0, 60, 0
2, 35320, Note_on_c, 0, 65, 0
2, 35320, Note_on_c, 0, 68, 0
2, 35360, Note_on_c, 0, 68, 52
2, 35360, Note_on_c, 0, 65, 44
2, 35360, Note_on_c, 0, 60, 44
2, 35480, Note_on_c, 0, 60, 0
2, 35480, Note_on_c, 0, 65, 0
2, 35480, Note_on_c, 0, 68, 0
2, 35680, Note_on_c, 0, 59, 47
2, 35680, Note_on_c, 0, 67, 56
2, 35680, Note_on_c, 0, 65, 47
2, 35800, Note_on_c, 0, 65, 0
2, 35800, Note_on_c, 0, 67, 0
2, 35800, Note_on_c, 0, 59, 0
2, 35840, Note_on_c, 0, 59, 47
2, 35840, Note_on_c, 0, 67, 56
2, 35840, Note_on_c, 0, 65, 47
2, 35960, Note_on_c, 0, 65, 0
2, 35960, Note_on_c, 0, 67, 0
2, 35960, Note_on_c, 0, 59, 0
2, 36160, Note_on_c, 0, 71, 54
2, 36160, Note_on_c, 0, 67, 45
2, 36160, Note_on_c, 0, 62, 45
2, 36280, Note_on_c, 0, 62, 0
2, 36280, Note_on_c, 0, 67, 0
2, 36280, Note_on_c, 0, 71, 0
2, 36320, Note_on_c, 0, 67, 45
2, 36320, Note_on_c, 0, 71, 54
2, 36320, Note_on_c, 0, 62, 45
2, 36440, Note_on_c, 0, 62, 0
2, 36440, Note_on_c, 0, 71, 0
2, 36440, Note_on_c, 0, 67, 0
2, 36640, Note_on_c, 0, 60, 49
2, 36640, Note_on_c, 0, 67, 49
2, 36640, Note_on_c, 0, 72, 58
2, 36760, Note_on_c, 0, 72, 0
2, 36760, Note_on_c, 0, 67, 0
2, 36760, Note_on_c, 0, 60, 0
2, 36800, Note_on_c, 0, 72, 55
2, 36800, Note_on_c, 0, 67, 46
2, 36800, Note_on_c, 0, 60, 46
2, 36920, Note_on_c, 0, 60, 0
2, 36920, Note_on_c, 0, 67, 0
2, 36920, Note_on_c, 0, 72, 0
2, 37120, Note_on_c, 0, 65, 56
2, 37120, Note_on_c, 0, 67, 56
2, 37120, Note_on_c, 0, 74, 66
2, 37240, Note_on_c, 0, 74, 0
2, 37240, Note_on_c, 0, 67, 0
2, 37240, Note_on_c, 0, 65, 0
2, 37280, Note_on_c, 0, 65, 57
2, 37280, Note_on_c, 0, 67, 57
2, 37280, Note_on_c, 0, 74, 68
2, 37400, Note_on_c, 0, 74, 0
2, 37400, Note_on_c, 0, 67, 0
2, 37400, Note_on_c, 0, 65, 0
2, 37600, Note_on_c, 0, 67, 62
2, 37600, Note_on_c, 0, 75, 74
2, 37600, Note_on_c, 0, 63, 62
2, 37720, Note_on_c, 0, 63, 0
2, 37720, Note_on_c, 0, 75, 0
2, 37720, Note_on_c, 0, 67, 0
2, 37760, Note_on_c, 0, 67, 62
2, 37760, Note_on_c, 0, 75, 75
2, 37760, Note_on_c, 0, 63, 62
2, 37880, Note_on_c, 0, 63, 0
2, 37880, Note_on_c, 0, 75, 0
2, 37880, Note_on_c, 0, 67, 0
2, 38080, Note_on_c, 0, 79, 82
2, 38080, Note_on_c, 0, 72, 69
2, 38080, Note_on_c, 0, 67, 69
2, 38200, Note_on_c, 0, 67, 0
2, 38200, Note_on_c, 0, 72, 0
2, 38200, Note_on_c, 0, 79, 0
2, 38240, Note_on_c, 0, 79, 82
2, 38240, Note_on_c, 0, 72, 69
2, 38240, Note_on_c, 0, 67, 69
2, 38360, Note_on_c, 0, 67, 0
2, 38360, Note_on_c, 0, 72, 0
2, 38360, Note_on_c, 0, 79, 0
2, 38560, Note_on_c, 0, 84, 85
2, 38560, Note_on_c, 0, 79, 85
2, 38560, Note_on_c, 0, 72, 72
2, 38680, Note_on_c, 0, 72, 0
2, 38680, Note_on_c, 0, 79, 0
2, 38680, Note_on_c, 0, 84, 0
2, 38720, Note_on_c, 0, 84, 85
2, 38720, Note_on_c, 0, 79, 85
2, 38720, Note_on_c, 0, 72, 72
2, 38840, Note_on_c, 0, 72, 0
2, 38840, Note_on_c, 0, 79, 0
2, 38840, Note_on_c, 0, 84, 0
2, 39040, Note_on_c, 0, 72, 50
2, 39040, Note_on_c, 0, 66, 42
2, 39040, Note_on_c, 0, 62, 42
2, 39160, Note_on_c, 0, 62, 0
2, 39160, Note_on_c, 0, 66, 0
2, 39160, Note_on_c, 0, 72, 0
2, 39200, Note_on_c, 0, 72, 49
2, 39200, Note_on_c, 0, 66, 41
2, 39200, Note_on_c, 0, 62, 41
2, 39320, Note_on_c, 0, 62, 0
2, 39320, Note_on_c, 0, 66, 0
2, 39320, Note_on_c, 0, 72, 0
2, 39520, Note_on_c, 0, 67, 40
2, 39520, Note_on_c, 0, 71, 49
2, 39520, Note_on_c, 0, 62, 40
2, 39640, Note_on_c, 0, 62, 0
2, 39640, Note_on_c, 0, 71, 0
2, 39640, Note_on_c, 0, 67, 0
2, 39680, Note_on_c, 0, 67, 39
2, 39680, Note_on_c, 0, 71, 47
2, 39680, Note_on_c, 0, 62, 39
2, 39800, Note_on_c, 0, 62, 0
2, 39800, Note_on_c, 0, 71, 0
2, 39800, Note_on_c, 0, 67, 0
2, 40000, Note_on_c, 0, 62, 27
2, 40000, Note_on_c, 0, 68, 27
2, 40000, Note_on_c, 0, 70, 32
2, 40120, Note_on_c, 0, 70, 0
2, 40120, Note_on_c, 0, 68, 0
2, 40120, Note_on_c, 0, 62, 0
2, 40160, Note_on_c, 0, 70, 31
2, 40160, Note_on_c, 0, 68, 26
2, 40160, Note_on_c, 0, 62, 26
2, 40280, Note_on_c, 0, 62, 0
2, 40280, Note_on_c, 0, 68, 0
2, 40280, Note_on_c, 0, 70, 0
2, 40480, Note_on_c, 0, 75, 36
2, 40480, Note_on_c, 0, 67, 30
2, 40480, Note_on_c, 0, 63, 30
2, 40600, Note_on_c, 0, 63, 0
2, 40600, Note_on_c, 0, 67, 0
2, 40600, Note_on_c, 0, 75, 0
2, 40640, Note_on_c, 0, 75, 37
2, 40640, Note_on_c, 0, 67, 31
2, 40640, Note_on_c, 0, 63, 31
2, 40760, Note_on_c, 0, 63, 0
2, 40760, Note_on_c, 0, 67, 0
2, 40760, Note_on_c, 0, 75, 0
2, 40960, Note_on_c, 0, 63, 37
2, 40960, Note_on_c, 0, 67, 37
2, 40960, Note_on_c, 0, 75, 45
2, 41080, Note_on_c, 0, 75, 0
2, 41080, Note_on_c, 0, 67, 0
2, 41080, Note_on_c, 0, 63, 0
2, 41120, Note_on_c, 0, 63, 38
2, 41120, Note_on_c, 0, 67, 38
2, 41120, Note_on_c, 0, 75, 46
2, 41240, Note_on_c, 0, 75, 0
2, 41240, Note_on_c, 0, 67, 0
2, 41240, Note_on_c, 0, 63, 0
2, 41440, Note_on_c, 0, 63, 44
2, 41440, Note_on_c, 0, 67, 44
2, 41440, Note_on_c, 0, 75, 53
2, 41560, Note_on_c, 0, 75, 0
2, 41560, Note_on_c, 0, 67, 0
2, 41560, Note_on_c, 0, 63, 0
2, 41600, Note_on_c, 0, 63, 46
2, 41600, Note_on_c, 0, 67, 46
2, 41600, Note_on_c, 0, 75, 55
2, 41720, Note_on_c, 0, 75, 0
2, 41720, Note_on_c, 0, 67, 0
2, 41720, Note_on_c, 0, 63, 0
2, 41920, Note_on_c, 0, 63, 50
2, 41920, Note_on_c, 0, 68, 50
2, 41920, Note_on_c, 0, 75, 60
2, 42040, Note_on_c, 0, 75, 0
2, 42040, Note_on_c, 0, 68, 0
2, 42040, Note_on_c, 0, 63, 0
2, 42080, Note_on_c, 0, 75, 61
2, 42080, Note_on_c, 0, 68, 51
2, 42080, Note_on_c, 0, 63, 51
2, 42200, Note_on_c, 0, 63, 0
2, 42200, Note_on_c, 0, 68, 0
2, 42200, Note_on_c, 0, 75, 0
2, 42400, Note_on_c, 0, 63, 59
2, 42400, Note_on_c, 0, 70, 59
2, 42400, Note_on_c, 0, 75, 70
2, 42520, Note_on_c, 0, 75, 0
2, 42520, Note_on_c, 0, 70, 0
2, 42520, Note_on_c, 0, 63, 0
2, 42560, Note_on_c, 0, 63, 59
2, 42560, Note_on_c, 0, 70, 59
2, 42560, Note_on_c, 0, 75, 70
2, 42680, Note_on_c, 0, 75, 0
2, 42680, Note_on_c, 0, 70, 0
2, 42680, Note_on_c, 0, 63, 0
2, 42880, Note_on_c, 0, 75, 64
2, 42880, Note_on_c, 0, 71, 55
2, 42880, Note_on_c, 0, 63, 55
2, 43000, Note_on_c, 0, 63, 0
2, 43000, Note_on_c, 0, 71, 0
2, 43000, Note_on_c, 0, 75, 0
2, 43040, Note_on_c, 0, 75, 64
2, 43040, Note_on_c, 0, 71, 54
2, 43040, Note_on_c, 0, 63, 54
2, 43160, Note_on_c, 0, 63, 0
2, 43160, Note_on_c, 0, 71, 0
2, 43160, Note_on_c, 0, 75, 0
2, 43360, Note_on_c, 0, 63, 58
2, 43360, Note_on_c, 0, 72, 58
2, 43360, Note_on_c, 0, 75, 69
2, 43480, Note_on_c, 0, 75, 0
2, 43480, Note_on_c, 0, 72, 0
2, 43480, Note_on_c, 0, 63, 0
2, 43520, Note_on_c, 0, 63, 57
2, 43520, Note_on_c, 0, 72, 57
2, 43520, Note_on_c, 0, 75, 68
2, 43640, Note_on_c, 0, 75, 0
2, 43640, Note_on_c, 0, 72, 0
2, 43640, Note_on_c, 0, 63, 0
2, 43840, Note_on_c, 0, 65, 64
2, 43840, Note_on_c, 0, 72, 64
2, 43840, Note_on_c, 0, 75, 77
2, 43840, Note_on_c, 0, 77, 77
2, 43960, Note_on_c, 0, 77, 0
2, 43960, Note_on_c, 0, 65, 0
2, 43960, Note_on_c, 0, 72, 0
2, 43960, Note_on_c, 0, 75, 0
2, 44000, Note_on_c, 0, 65, 64
2, 44000, Note_on_c, 0, 72, 64
2, 44000, Note_on_c, 0, 75, 77
2, 44000, Note_on_c, 0, 77, 77
2, 44120, Note_on_c, 0, 77, 0
2, 44120, Note_on_c, 0, 65, 0
2, 44120, Note_on_c, 0, 72, 0
2, 44120, Note_on_c, 0, 75, 0
2, 44320, Note_on_c, 0, 79, 78
2, 44320, Note_on_c, 0, 75, 78
2, 44320, Note_on_c, 0, 70, 66
2, 44320, Note_on_c, 0, 67, 66
2, 44440, Note_on_c, 0, 67, 0
2, 44440, Note_on_c, 0, 79, 0
2, 44440, Note_on_c, 0, 75, 0
2, 44440, Note_on_c, 0, 70, 0
2, 44480, Note_on_c, 0, 79, 78
2, 44480, Note_on_c, 0, 75, 78
2, 44480, Note_on_c, 0, 70, 66
2, 44480, Note_on_c, 0, 67, 66
2, 44600, Note_on_c, 0, 67, 0
2, 44600, Note_on_c, 0, 79, 0
2, 44600, Note_on_c, 0, 75, 0
2, 44600, Note_on_c, 0, 70, 0
2, 44800, Note_on_c, 0, 75, 50
2, 44800, Note_on_c, 0, 70, 42
2, 44800, Note_on_c, 0, 67, 42
2, 44920, Note_on_c, 0, 67, 0
2, 44920, Note_on_c, 0, 70, 0
2, 44920, Note_on_c, 0, 75, 0
2, 44960, Note_on_c, 0, 75, 49
2, 44960, Note_on_c, 0, 70, 41
2, 44960, Note_on_c, 0, 67, 41
2, 45080, Note_on_c, 0, 67, 0
2, 45080, Note_on_c, 0, 70, 0
2, 45080, Note_on_c, 0, 75, 0
2, 45280, Note_on_c, 0, 70, 49
2, 45280, Note_on_c, 0, 63, 40
2, 45400, Note_on_c, 0, 63, 0
2, 45400, Note_on_c, 0, 70, 0
2, 45440, Note_on_c, 0, 70, 47
2, 45440, Note_on_c, 0, 63, 39
2, 45560, Note_on_c, 0, 63, 0
2, 45560, Note_on_c, 0, 70, 0
2, 45760, Note_on_c, 0, 62, 32
2, 45760, Note_on_c, 0, 68, 32
2, 45760, Note_on_c, 0, 70, 38
2, 45880, Note_on_c, 0, 70, 0
2, 45880, Note_on_c, 0, 68, 0
2, 45880, Note_on_c, 0, 62, 0
2, 45920, Note_on_c, 0, 70, 37
2, 45920, Note_on_c, 0, 68, 31
2, 45920, Note_on_c, 0, 62, 31
2, 46040, Note_on_c, 0, 62, 0
2, 46040, Note_on_c, 0, 68, 0
2, 46040, Note_on_c, 0, 70, 0
2, 46240, Note_on_c, 0, 70, 35
2, 46240, Note_on_c, 0, 68, 29
2, 46240, Note_on_c, 0, 62, 29
2, 46360, Note_on_c, 0, 62, 0
2, 46360, Note_on_c, 0, 68, 0
2, 46360, Note_on_c, 0, 70, 0
2, 46400, Note_on_c, 0, 70, 35
2, 46400, Note_on_c, 0, 68, 29
2, 46400, Note_on_c, 0, 62, 29
2, 46520, Note_on_c, 0, 62, 0
2, 46520, Note_on_c, 0, 68, 0
2, 46520, Note_on_c, 0, 70, 0
2, 46560, Note_on_c, 0, 62, 32
2, 46560, Note_on_c, 0, 68, 32
2, 46560, Note_on_c, 0, 71, 38
2, 46680, Note_on_c, 0, 71, 0
2, 46680, Note_on_c, 0, 68, 0
2, 46680, Note_on_c, 0, 62, 0
2, 46720, Note_on_c, 0, 70, 35
2, 46720, Note_on_c, 0, 68, 29
2, 46720, Note_on_c, 0, 62, 29
2, 46840, Note_on_c, 0, 62, 0
2, 46840, Note_on_c, 0, 68, 0
2, 46840, Note_on_c, 0, 70, 0
2, 46880, Note_on_c, 0, 70, 35
2, 46880, Note_on_c, 0, 68, 29
2, 46880, Note_on_c, 0, 62, 29
2, 47000, Note_on_c, 0, 62, 0
2, 47000, Note_on_c, 0, 68, 0
2, 47000, Note_on_c, 0, 70, 0
2, 47040, Note_on_c, 0, 75, 39
2, 47040, Note_on_c, 0, 67, 33
2, 47040, Note_on_c, 0, 63, 33
2, 47520, Note_on_c, 0, 63, 0
2, 47520, Note_on_c, 0, 67, 0
2, 47520, Note_on_c, 0, 75, 0
2, 47680, Note_on_c, 0, 65, 39
2, 47680, Note_on_c, 0, 67, 46
2, 47800, Note_on_c, 0, 67, 0
2, 47800, Note_on_c, 0, 65, 0
2, 47840, Note_on_c, 0, 67, 41
2, 47840, Note_on_c, 0, 65, 28
2, 47960, Note_on_c, 0, 65, 0
2, 47960, Note_on_c, 0, 67, 0
2, 48160, Note_on_c, 0, 63, 43
2, 48160, Note_on_c, 0, 72, 51
2, 48280, Note_on_c, 0, 72, 0
2, 48280, Note_on_c, 0, 63, 0
2, 48320, Note_on_c, 0, 63, 32
2, 48320, Note_on_c, 0, 72, 45
2, 48440, Note_on_c, 0, 72, 0
2, 48440, Note_on_c, 0, 63, 0
2, 48640, Note_on_c, 0, 63, 48
2, 48640, Note_on_c, 0, 72, 57
2, 48760, Note_on_c, 0, 72, 0
2, 48760, Note_on_c, 0, 63, 0
2, 48800, Note_on_c, 0, 63, 49
2, 48800, Note_on_c, 0, 72, 58
2, 48920, Note_on_c, 0, 72, 0
2, 48920, Note_on_c, 0, 63, 0
2, 49120, Note_on_c, 0, 72, 56
2, 49120, Note_on_c, 0, 63, 47
2, 49240, Note_on_c, 0, 63, 0
2, 49240, Note_on_c, 0, 72, 0
2, 49280, Note_on_c, 0, 72, 56
2, 49280, Note_on_c, 0, 63, 47
2, 49400, Note_on_c, 0, 63, 0
2, 49400, Note_on_c, 0, 72, 0
2, 49600, Note_on_c, 0, 60, 39
2, 49600, Note_on_c, 0, 67, 39
2, 49600, Note_on_c, 0, 72, 46
2, 49720, Note_on_c, 0, 72, 0
2, 49720, Note_on_c, 0, 67, 0
2, 49720, Note_on_c, 0, 60, 0
2, 49760, Note_on_c, 0, 67, 35
2, 49760, Note_on_c, 0, 72, 42
2, 49760, Note_on_c, 0, 60, 35
2, 49880, Note_on_c, 0, 60, 0
2, 49880, Note_on_c, 0, 72, 0
2, 49880, Note_on_c, 0, 67, 0
2, 50080, Note_on_c, 0, 70, 59
2, 50080, Note_on_c, 0, 67, 50
2, 50080, Note_on_c, 0, 60, 50
2, 50200, Note_on_c, 0, 60, 0
2, 50200, Note_on_c, 0, 67, 0
2, 50200, Note_on_c, 0, 70, 0
2, 50240, Note_on_c, 0, 60, 50
2, 50240, Note_on_c, 0, 67, 50
2, 50240, Note_on_c, 0, 70, 59
2, 50360, Note_on_c, 0, 70, 0
2, 50360, Note_on_c, 0, 67, 0
2, 50360, Note_on_c, 0, 60, 0
2, 50560, Note_on_c, 0, 68, 52
2, 50560, Note_on_c, 0, 65, 44
2, 50560, Note_on_c, 0, 60, 44
2, 50680, Note_on_c, 0, 60, 0
2, 50680, Note_on_c, 0, 65, 0
2, 50680, Note_on_c, 0, 68, 0
2, 50720, Note_on_c, 0, 68, 52
2, 50720, Note_on_c, 0, 65, 44
2, 50720, Note_on_c, 0, 60, 44
2, 50840, Note_on_c, 0, 60, 0
2, 50840, Note_on_c, 0, 65, 0
2, 50840, Note_on_c, 0, 68, 0
2, 51040, Note_on_c, 0, 59, 47
2, 51040, Note_on_c, 0, 67, 56
2, 51040, Note_on_c, 0, 65, 47
2, 51160, Note_on_c, 0, 65, 0
2, 51160, Note_on_c, 0, 67, 0
2, 51160, Note_on_c, 0, 59, 0
2, 51200, Note_on_c, 0, 59, 47
2, 51200, Note_on_c, 0, 67, 56
2, 51200, Note_on_c, 0, 65, 47
2, 51320, Note_on_c, 0, 65, 0
2, 51320, Note_on_c, 0, 67, 0
2, 51320, Note_on_c, 0, 59, 0
2, 51520, Note_on_c, 0, 71, 54
2, 51520, Note_on_c, 0, 67, 45
2, 51520, Note_on_c, 0, 62, 45
2, 51640, Note_on_c, 0, 62, 0
2, 51640, Note_on_c, 0, 67, 0
2, 51640, Note_on_c, 0, 71, 0
2, 51680, Note_on_c, 0, 67, 45
2, 51680, Note_on_c, 0, 71, 54
2, 51680, Note_on_c, 0, 62, 45
2, 51800, Note_on_c, 0, 62, 0
2, 51800, Note_on_c, 0, 71, 0
2, 51800, Note_on_c, 0, 67, 0
2, 52000, Note_on_c, 0, 60, 49
2, 52000, Note_on_c, 0, 67, 49
2, 52000, Note_on_c, 0, 72, 58
2, 52120, Note_on_c, 0, 72, 0
2, 52120, Note_on_c, 0, 67, 0
2, 52120, Note_on_c, 0, 60, 0
2, 52160, Note_on_c, 0, 72, 55
2, 52160, Note_on_c, 0, 67, 46
2, 52160, Note_on_c, 0, 60, 46
2, 52280, Note_on_c, 0, 60, 0
2, 52280, Note_on_c, 0, 67, 0
2, 52280, Note_on_c, 0, 72, 0
2, 52480, Note_on_c, 0, 65, 56
2, 52480, Note_on_c, 0, 67, 56
2, 52480, Note_on_c, 0, 74, 66
2, 52600, Note_on_c, 0, 74, 0
2, 52600, Note_on_c, 0, 67, 0
2, 52600, Note_on_c, 0, 65, 0
2, 52640, Note_on_c, 0, 65, 57
2, 52640, Note_on_c, 0, 67, 57
2, 52640, Note_on_c, 0, 74, 68
2, 52760, Note_on_c, 0, 74, 0
2, 52760, Note_on_c, 0, 67, 0
2, 52760, Note_on_c, 0, 65, 0
2, 52960, Note_on_c, 0, 67, 62
2, 52960, Note_on_c, 0, 75, 74
2, 52960, Note_on_c, 0, 63, 62
2, 53080, Note_on_c, 0, 63, 0
2, 53080, Note_on_c, 0, 75, 0
2, 53080, Note_on_c, 0, 67, 0
2, 53120, Note_on_c, 0, 67, 62
2, 53120, Note_on_c, 0, 75, 75
2, 53120, Note_on_c, 0, 63, 62
2, 53240, Note_on_c, 0, 63, 0
2, 53240, Note_on_c, 0, 75, 0
2, 53240, Note_on_c, 0, 67, 0
2, 53440, Note_on_c, 0, 79, 82
2, 53440, Note_on_c, 0, 72, 69
2, 53440, Note_on_c, 0, 67, 69
2, 53560, Note_on_c, 0, 67, 0
2, 53560, Note_on_c, 0, 72, 0
2, 53560, Note_on_c, 0, 79, 0
2, 53600, Note_on_c, 0, 79, 82
2, 53600, Note_on_c, 0, 72, 69
2, 53600, Note_on_c, 0, 67, 69
2, 53720, Note_on_c, 0, 67, 0
2, 53720, Note_on_c, 0, 72, 0
2, 53720, Note_on_c, 0, 79, 0
2, 53920, Note_on_c, 0, 84, 85
2, 53920, Note_on_c, 0, 79, 85
2, 53920, Note_on_c, 0, 72, 72
2, 54040, Note_on_c, 0, 72, 0
2, 54040, Note_on_c, 0, 79, 0
2, 54040, Note_on_c, 0, 84, 0
2, 54080, Note_on_c, 0, 84, 85
2, 54080, Note_on_c, 0, 79, 85
2, 54080, Note_on_c, 0, 72, 72
2, 54200, Note_on_c, 0, 72, 0
2, 54200, Note_on_c, 0, 79, 0
2, 54200, Note_on_c, 0, 84, 0
2, 54400, Note_on_c, 0, 72, 50
2, 54400, Note_on_c, 0, 66, 42
2, 54400, Note_on_c, 0, 62, 42
2, 54520, Note_on_c, 0, 62, 0
2, 54520, Note_on_c, 0, 66, 0
2, 54520, Note_on_c, 0, 72, 0
2, 54560, Note_on_c, 0, 72, 49
2, 54560, Note_on_c, 0, 66, 41
2, 54560, Note_on_c, 0, 62, 41
2, 54680, Note_on_c, 0, 62, 0
2, 54680, Note_on_c, 0, 66, 0
2, 54680, Note_on_c, 0, 72, 0
2, 54880, Note_on_c, 0, 67, 40
2, 54880, Note_on_c, 0, 71, 49
2, 54880, Note_on_c, 0, 62, 40
2, 55000, Note_on_c, 0, 62, 0
2, 55000, Note_on_c, 0, 71, 0
2, 55000, Note_on_c, 0, 67, 0
2, 55040, Note_on_c, 0, 67, 39
2, 55040, Note_on_c, 0, 71, 47
2, 55040, Note_on_c, 0, 62, 39
2, 55160, Note_on_c, 0, 62, 0
2, 55160, Note_on_c, 0, 71, 0
2, 55160, Note_on_c, 0, 67, 0
2, 55360, Note_on_c, 0, 62, 32
2, 55360, Note_on_c, 0, 68, 32
2, 55360, Note_on_c, 0, 70, 38
2, 55480, Note_on_c, 0, 70, 0
2, 55480, Note_on_c, 0, 68, 0
2, 55480, Note_on_c, 0, 62, 0
2, 55520, Note_on_c, 0, 70, 37
2, 55520, Note_on_c, 0, 68, 31
2, 55520, Note_on_c, 0, 62, 31
2, 55640, Note_on_c, 0, 62, 0
2, 55640, Note_on_c, 0, 68, 0
2, 55640, Note_on_c, 0, 70, 0
2, 55840, Note_on_c, 0, 75, 36
2, 55840, Note_on_c, 0, 67, 30
2, 55840, Note_on_c, 0, 63, 30
2, 55960, Note_on_c, 0, 63, 0
2, 55960, Note_on_c, 0, 67, 0
2, 55960, Note_on_c, 0, 75, 0
2, 56000, Note_on_c, 0, 75, 37
2, 56000, Note_on_c, 0, 67, 31
2, 56000, Note_on_c, 0, 63, 31
2, 56120, Note_on_c, 0, 63, 0
2, 56120, Note_on_c, 0, 67, 0
2, 56120, Note_on_c, 0, 75, 0
2, 56320, Note_on_c, 0, 63, 37
2, 56320, Note_on_c, 0, 67, 37
2, 56320, Note_on_c, 0, 75, 45
2, 56440, Note_on_c, 0, 75, 0
2, 56440, Note_on_c, 0, 67, 0
2, 56440, Note_on_c, 0, 63, 0
2, 56480, Note_on_c, 0, 63, 38
2, 56480, Note_on_c, 0, 67, 38
2, 56480, Note_on_c, 0, 75, 46
2, 56600, Note_on_c, 0, 75, 0
2, 56600, Note_on_c, 0, 67, 0
2, 56600, Note_on_c, 0, 63, 0
2, 56800, Note_on_c, 0, 63, 44
2, 56800, Note_on_c, 0, 67, 44
2, 56800, Note_on_c, 0, 75, 53
2, 56920, Note_on_c, 0, 75, 0
2, 56920, Note_on_c, 0, 67, 0
2, 56920, Note_on_c, 0, 63, 0
2, 56960, Note_on_c, 0, 63, 46
2, 56960, Note_on_c, 0, 67, 46
2, 56960, Note_on_c, 0, 75, 55
2, 57080, Note_on_c, 0, 75, 0
2, 57080, Note_on_c, 0, 67, 0
2, 57080, Note_on_c, 0, 63, 0
2, 57280, Note_on_c, 0, 63, 50
2, 57280, Note_on_c, 0, 68, 50
2, 57280, Note_on_c, 0, 75, 60
2, 57400, Note_on_c, 0, 75, 0
2, 57400, Note_on_c, 0, 68, 0
2, 57400, Note_on_c, 0, 63, 0
2, 57440, Note_on_c, 0, 75, 61
2, 57440, Note_on_c, 0, 68, 51
2, 57440, Note_on_c, 0, 63, 51
2, 57560, Note_on_c, 0, 63, 0
2, 57560, Note_on_c, 0, 68, 0
2, 57560, Note_on_c, 0, 75, 0
2, 57760, Note_on_c, 0, 63, 59
2, 57760, Note_on_c, 0, 70, 59
2, 57760, Note_on_c, 0, 75, 70
2, 57880, Note_on_c, 0, 75, 0
2, 57880, Note_on_c, 0, 70, 0
2, 57880, Note_on_c, 0, 63, 0
2, 57920, Note_on_c, 0, 63, 59
2, 57920, Note_on_c, 0, 70, 59
2, 57920, Note_on_c, 0, 75, 70
2, 58040, Note_on_c, 0, 75, 0
2, 58040, Note_on_c, 0, 70, 0
2, 58040, Note_on_c, 0, 63, 0
2, 58240, Note_on_c, 0, 75, 59
2, 58240, Note_on_c, 0, 71, 50
2, 58240, Note_on_c, 0, 63, 50
2, 58360, Note_on_c, 0, 63, 0
2, 58360, Note_on_c, 0, 71, 0
2, 58360, Note_on_c, 0, 75, 0
2, 58400, Note_on_c, 0, 75, 59
2, 58400, Note_on_c, 0, 71, 49
2, 58400, Note_on_c, 0, 63, 49
2, 58520, Note_on_c, 0, 63, 0
2, 58520, Note_on_c, 0, 71, 0
2, 58520, Note_on_c, 0, 75, 0
2, 58720, Note_on_c, 0, 63, 58
2, 58720, Note_on_c, 0, 72, 58
2, 58720, Note_on_c, 0, 75, 69
2, 58840, Note_on_c, 0, 75, 0
2, 58840, Note_on_c, 0, 72, 0
2, 58840, Note_on_c, 0, 63, 0
2, 58880, Note_on_c, 0, 63, 57
2, 58880, Note_on_c, 0, 72, 57
2, 58880, Note_on_c, 0, 75, 68
2, 59000, Note_on_c, 0, 75, 0
2, 59000, Note_on_c, 0, 72, 0
2, 59000, Note_on_c, 0, 63, 0
2, 59200, Note_on_c, 0, 65, 64
2, 59200, Note_on_c, 0, 72, 64
2, 59200, Note_on_c, 0, 75, 77
2, 59200, Note_on_c, 0, 77, 77
2, 59320, Note_on_c, 0, 77, 0
2, 59320, Note_on_c, 0, 65, 0
2, 59320, Note_on_c, 0, 72, 0
2, 59320, Note_on_c, 0, 75, 0
2, 59360, Note_on_c, 0, 65, 64
2, 59360, Note_on_c, 0, 72, 64
2, 59360, Note_on_c, 0, 75, 77
2, 59360, Note_on_c, 0, 77, 77
2, 59480, Note_on_c, 0, 77, 0
2, 59480, Note_on_c, 0, 65, 0
2, 59480, Note_on_c, 0, 72, 0
2, 59480, Note_on_c, 0, 75, 0
2, 59680, Note_on_c, 0, 79, 78
2, 59680, Note_on_c, 0, 75, 78
2, 59680, Note_on_c, 0, 70, 66
2, 59680, Note_on_c, 0, 67, 66
2, 59800, Note_on_c, 0, 67, 0
2, 59800, Note_on_c, 0, 79, 0
2, 59800, Note_on_c, 0, 75, 0
2, 59800, Note_on_c, 0, 70, 0
2, 59840, Note_on_c, 0, 79, 78
2, 59840, Note_on_c, 0, 75, 78
2, 59840, Note_on_c, 0, 70, 66
2, 59840, Note_on_c, 0, 67, 66
2, 59960, Note_on_c, 0, 67, 0
2, 59960, Note_on_c, 0, 79, 0
2, 59960, Note_on_c, 0, 75, 0
2, 59960, Note_on_c, 0, 70, 0
2, 60160, Note_on_c, 0, 75, 50
2, 60160, Note_on_c, 0, 70, 42
2, 60160, Note_on_c, 0, 67, 42
2, 60280, Note_on_c, 0, 67, 0
2, 60280, Note_on_c, 0, 70, 0
2, 60280, Note_on_c, 0, 75, 0
2, 60320, Note_on_c, 0, 75, 49
2, 60320, Note_on_c, 0, 70, 41
2, 60320, Note_on_c, 0, 67, 41
2, 60440, Note_on_c, 0, 67, 0
2, 60440, Note_on_c, 0, 70, 0
2, 60440, Note_on_c, 0, 75, 0
2, 60640, Note_on_c, 0, 70, 49
2, 60640, Note_on_c, 0, 63, 40
2, 60760, Note_on_c, 0, 63, 0
2, 60760, Note_on_c, 0, 70, 0
2, 60800, Note_on_c, 0, 70, 47
2, 60800, Note_on_c, 0, 63, 39
2, 60920, Note_on_c, 0, 63, 0
2, 60920, Note_on_c, 0, 70, 0
2, 61120, Note_on_c, 0, 62, 32
2, 61120, Note_on_c, 0, 68, 32
2, 61120, Note_on_c, 0, 70, 38
2, 61240, Note_on_c, 0, 70, 0
2, 61240, Note_on_c, 0, 68, 0
2, 61240, Note_on_c, 0, 62, 0
2, 61280, Note_on_c, 0, 70, 37
2, 61280, Note_on_c, 0, 68, 31
2, 61280, Note_on_c, 0, 62, 31
2, 61400, Note_on_c, 0, 62, 0
2, 61400, Note_on_c, 0, 68, 0
2, 61400, Note_on_c, 0, 70, 0
2, 61600, Note_on_c, 0, 63, 30
2, 61600, Note_on_c, 0, 67, 30
2, 61600, Note_on_c, 0, 70, 36
2, 61720, Note_on_c, 0, 70, 0
2, 61720, Note_on_c, 0, 67, 0
2, 61720, Note_on_c, 0, 63, 0
2, 61760, Note_on_c, 0, 70, 35
2, 61760, Note_on_c, 0, 67, 29
2, 61760, Note_on_c, 0, 63, 29
2, 61880, Note_on_c, 0, 63, 0
2, 61880, Note_on_c, 0, 67, 0
2, 61880, Note_on_c, 0, 70, 0
2, 62080, Note_on_c, 0, 70, 43
2, 62080, Note_on_c, 0, 63, 36
2, 62080, Note_on_c, 0, 58, 36
2, 62200, Note_on_c, 0, 58, 0
2, 62200, Note_on_c, 0, 63, 0
2, 62200, Note_on_c, 0, 70, 0
2, 62240, Note_on_c, 0, 70, 42
2, 62240, Note_on_c, 0, 63, 35
2, 62240, Note_on_c, 0, 58, 35
2, 62360, Note_on_c, 0, 58, 0
2, 62360, Note_on_c, 0, 63, 0
2, 62360, Note_on_c, 0, 70, 0
2, 62560, Note_on_c, 0, 57, 31
2, 62560, Note_on_c, 0, 69, 37
2, 62560, Note_on_c, 0, 63, 31
2, 62680, Note_on_c, 0, 63, 0
2, 62680, Note_on_c, 0, 69, 0
2, 62680, Note_on_c, 0, 57, 0
2, 62720, Note_on_c, 0, 57, 31
2, 62720, Note_on_c, 0, 69, 37
2, 62720, Note_on_c, 0, 63, 31
2, 62840, Note_on_c, 0, 63, 0
2, 62840, Note_on_c, 0, 69, 0
2, 62840, Note_on_c, 0, 57, 0
2, 63040, Note_on_c, 0, 56, 28
2, 63040, Note_on_c, 0, 63, 28
2, 63040, Note_on_c, 0, 68, 34
2, 63160, Note_on_c, 0, 68, 0
2, 63160, Note_on_c, 0, 63, 0
2, 63160, Note_on_c, 0, 56, 0
2, 63200, Note_on_c, 0, 56, 28
2, 63200, Note_on_c, 0, 63, 28
2, 63200, Note_on_c, 0, 68, 34
2, 63320, Note_on_c, 0, 68, 0
2, 63320, Note_on_c, 0, 63, 0
2, 63320, Note_on_c, 0, 56, 0
2, 63520, Note_on_c, 0, 67, 34
2, 63520, Note_on_c, 0, 63, 28
2, 63520, Note_on_c, 0, 55, 28
2, 63640, Note_on_c, 0, 55, 0
2, 63640, Note_on_c, 0, 63, 0
2, 63640, Note_on_c, 0, 67, 0
2, 63680, Note_on_c, 0, 55, 28
2, 63680, Note_on_c, 0, 63, 28
2, 63680, Note_on_c, 0, 67, 34
2, 63800, Note_on_c, 0, 67, 0
2, 63800, Note_on_c, 0, 63, 0
2, 63800, Note_on_c, 0, 55, 0
2, 64000, Note_on_c, 0, 70, 43
2, 64000, Note_on_c, 0, 63, 36
2, 64000, Note_on_c, 0, 58, 36
2, 64120, Note_on_c, 0, 58, 0
2, 64120, Note_on_c, 0, 63, 0
2, 64120, Note_on_c, 0, 70, 0
2, 64160, Note_on_c, 0, 70, 42
2, 64160, Note_on_c, 0, 63, 35
2, 64160, Note_on_c, 0, 58, 35
2, 64280, Note_on_c, 0, 58, 0
2, 64280, Note_on_c, 0, 63, 0
2, 64280, Note_on_c, 0, 70, 0
2, 64480, Note_on_c, 0, 57, 31
2, 64480, Note_on_c, 0, 69, 37
2, 64480, Note_on_c, 0, 63, 31
2, 64600, Note_on_c, 0, 63, 0
2, 64600, Note_on_c, 0, 69, 0
2, 64600, Note_on_c, 0, 57, 0
2, 64640, Note_on_c, 0, 57, 31
2, 64640, Note_on_c, 0, 69, 37
2, 64640, Note_on_c, 0, 63, 31
2, 64760, Note_on_c, 0, 63, 0
2, 64760, Note_on_c, 0, 69, 0
2, 64760, Note_on_c, 0, 57, 0
2, 64960, Note_on_c, 0, 56, 28
2, 64960, Note_on_c, 0, 63, 28
2, 64960, Note_on_c, 0, 68, 34
2, 65080, Note_on_c, 0, 68, 0
2, 65080, Note_on_c, 0, 63, 0
2, 65080, Note_on_c, 0, 56, 0
2, 65120, Note_on_c, 0, 56, 28
2, 65120, Note_on_c, 0, 63, 28
2, 65120, Note_on_c, 0, 68, 34
2, 65240, Note_on_c, 0, 68, 0
2, 65240, Note_on_c, 0, 63, 0
2, 65240, Note_on_c, 0, 56, 0
2, 65440, Note_on_c, 0, 67, 34
2, 65440, Note_on_c, 0, 63, 28
2, 65440, Note_on_c, 0, 55, 28
2, 65560, Note_on_c, 0, 55, 0
2, 65560, Note_on_c, 0, 63, 0
2, 65560, Note_on_c, 0, 67, 0
2, 65600, Note_on_c, 0, 55, 28
2, 65600, Note_on_c, 0, 63, 28
2, 65600, Note_on_c, 0, 67, 34
2, 65720, Note_on_c, 0, 67, 0
2, 65720, Note_on_c, 0, 63, 0
2, 65720, Note_on_c, 0, 55, 0
2, 65920, Note_on_c, 0, 67, 47
2, 65920, Note_on_c, 0, 65, 47
2, 65920, Note_on_c, 0, 55, 39
2, 66040, Note_on_c, 0, 55, 0
2, 66040, Note_on_c, 0, 65, 0
2, 66040, Note_on_c, 0, 67, 0
2, 66080, Note_on_c, 0, 67, 47
2, 66080, Note_on_c, 0, 65, 47
2, 66080, Note_on_c, 0, 55, 39
2, 66200, Note_on_c, 0, 55, 0
2, 66200, Note_on_c, 0, 65, 0
2, 66200, Note_on_c, 0, 67, 0
2, 66400, Note_on_c, 0, 55, 43
2, 66400, Note_on_c, 0, 67, 51
2, 66400, Note_on_c, 0, 63, 51
2, 66520, Note_on_c, 0, 63, 0
2, 66520, Note_on_c, 0, 67, 0
2, 66520, Note_on_c, 0, 55, 0
2, 66560, Note_on_c, 0, 55, 43
2, 66560, Note_on_c, 0, 67, 52
2, 66560, Note_on_c, 0, 63, 52
2, 66680, Note_on_c, 0, 63, 0
2, 66680, Note_on_c, 0, 67, 0
2, 66680, Note_on_c, 0, 55, 0
2, 66880, Note_on_c, 0, 55, 51
2, 66880, Note_on_c, 0, 63, 61
2, 66880, Note_on_c, 0, 67, 61
2, 67000, Note_on_c, 0, 67, 0
2, 67000, Note_on_c, 0, 63, 0
2, 67000, Note_on_c, 0, 55, 0
2, 67040, Note_on_c, 0, 55, 52
2, 67040, Note_on_c, 0, 63, 62
2, 67040, Note_on_c, 0, 67, 62
2, 67160, Note_on_c, 0, 67, 0
2, 67160, Note_on_c, 0, 63, 0
2, 67160, Note_on_c, 0, 55, 0
2, 67360, Note_on_c, 0, 60, 60
2, 67360, Note_on_c, 0, 67, 71
2, 67360, Note_on_c, 0, 70, 71
2, 67480, Note_on_c, 0, 70, 0
2, 67480, Note_on_c, 0, 67, 0
2, 67480, Note_on_c, 0, 60, 0
2, 67520, Note_on_c, 0, 70, 71
2, 67520, Note_on_c, 0, 67, 71
2, 67520, Note_on_c, 0, 60, 60
2, 67640, Note_on_c, 0, 60, 0
2, 67640, Note_on_c, 0, 67, 0
2, 67640, Note_on_c, 0, 70, 0
2, 67840, Note_on_c, 0, 68, 49
2, 67840, Note_on_c, 0, 65, 41
2, 67840, Note_on_c, 0, 60, 41
2, 67960, Note_on_c, 0, 60, 0
2, 67960, Note_on_c, 0, 65, 0
2, 67960, Note_on_c, 0, 68, 0
2, 68000, Note_on_c, 0, 68, 49
2, 68000, Note_on_c, 0, 65, 41
2, 68000, Note_on_c, 0, 60, 41
2, 68120, Note_on_c, 0, 60, 0
2, 68120, Note_on_c, 0, 65, 0
2, 68120, Note_on_c, 0, 68, 0
2, 68320, Note_on_c, 0, 58, 26
2, 68320, Note_on_c, 0, 67, 37
2, 68320, Note_on_c, 0, 63, 26
2, 68440, Note_on_c, 0, 63, 0
2, 68440, Note_on_c, 0, 67, 0
2, 68440, Note_on_c, 0, 58, 0
2, 68480, Note_on_c, 0, 58, 26
2, 68480, Note_on_c, 0, 67, 37
2, 68480, Note_on_c, 0, 63, 26
2, 68600, Note_on_c, 0, 63, 0
2, 68600, Note_on_c, 0, 67, 0
2, 68600, Note_on_c, 0, 58, 0
2, 68800, Note_on_c, 0, 56, 23
2, 68800, Note_on_c, 0, 62, 23
2, 68800, Note_on_c, 0, 65, 34
2, 68920, Note_on_c, 0, 65, 0
2, 68920, Note_on_c, 0, 62, 0
2, 68920, Note_on_c, 0, 56, 0
2, 68960, Note_on_c, 0, 56, 23
2, 68960, Note_on_c, 0, 62, 23
2, 68960, Note_on_c, 0, 65, 34
2, 69080, Note_on_c, 0, 65, 0
2, 69080, Note_on_c, 0, 62, 0
2, 69080, Note_on_c, 0, 56, 0
2, 69280, Note_on_c, 0, 63, 34
2, 69280, Note_on_c, 0, 55, 28
2, 69400, Note_on_c, 0, 55, 0
2, 69400, Note_on_c, 0, 63, 0
2, 69440, Note_on_c, 0, 55, 28
2, 69440, Note_on_c, 0, 63, 34
2, 69560, Note_on_c, 0, 63, 0
2, 69560, Note_on_c, 0, 55, 0
2, 69760, Note_on_c, 0, 56, 38
2, 69760, Note_on_c, 0, 62, 45
2, 69880, Note_on_c, 0, 62, 0
2, 69880, Note_on_c, 0, 56, 0
2, 69920, Note_on_c, 0, 56, 38
2, 69920, Note_on_c, 0, 62, 45
2, 70040, Note_on_c, 0, 62, 0
2, 70040, Note_on_c, 0, 56, 0
2, 70240, Note_on_c, 0, 63, 32
2, 70240, Note_on_c, 0, 55, 27
2, 70360, Note_on_c, 0, 55, 0
2, 70360, Note_on_c, 0, 63, 0
2, 70400, Note_on_c, 0, 63, 32
2, 70400, Note_on_c, 0, 55, 27
2, 70520, Note_on_c, 0, 55, 0
2, 70520, Note_on_c, 0, 63, 0
2, 70720, Note_on_c, 0, 56, 38
2, 70720, Note_on_c, 0, 62, 45
2, 70840, Note_on_c, 0, 62, 0
2, 70840, Note_on_c, 0, 56, 0
2, 70880, Note_on_c, 0, 56, 38
2, 70880, Note_on_c, 0, 62, 45
2, 71000, Note_on_c, 0, 62, 0
2, 71000, Note_on_c, 0, 56, 0
2, 71200, Note_on_c, 0, 63, 32
2, 71200, Note_on_c, 0, 55, 27
2, 71320, Note_on_c, 0, 55, 0
2, 71320, Note_on_c, 0, 63, 0
2, 71360, Note_on_c, 0, 63, 32
2, 71360, Note_on_c, 0, 55, 27
2, 71480, Note_on_c, 0, 55, 0
2, 71480, Note_on_c, 0, 63, 0
2, 71680, Note_on_c, 0, 56, 30
2, 71680, Note_on_c, 0, 62, 36
2, 71800, Note_on_c, 0, 62, 0
2, 71800, Note_on_c, 0, 56, 0
2, 71840, Note_on_c, 0, 56, 30
2, 71840, Note_on_c, 0, 62, 36
2, 71960, Note_on_c, 0, 62, 0
2, 71960, Note_on_c, 0, 56, 0
2, 72160, Note_on_c, 0, 63, 25
2, 72160, Note_on_c, 0, 55, 21
2, 72280, Note_on_c, 0, 55, 0
2, 72280, Note_on_c, 0, 63, 0
2, 72320, Note_on_c, 0, 63, 25
2, 72320, Note_on_c, 0, 55, 21
2, 72440, Note_on_c, 0, 55, 0
2, 72440, Note_on_c, 0, 63, 0
2, 72640, Note_on_c, 0, 56, 24
2, 72640, Note_on_c, 0, 62, 28
2, 72760, Note_on_c, 0, 62, 0
2, 72760, Note_on_c, 0, 56, 0
2, 72800, Note_on_c, 0, 56, 24
2, 72800, Note_on_c, 0, 62, 28
2, 72920, Note_on_c, 0, 62, 0
2, 72920, Note_on_c, 0, 56, 0
2, 72960, Note_on_c, 0, 55, 16
2, 72960, Note_on_c, 0, 63, 20
2, 73440, Note_on_c, 0, 63, 0
2, 73440, Note_on_c, 0, 55, 0
2, 73920, Note_on_c, 0, 70, 66
2, 73920, Note_on_c, 0, 67, 66
2, 73920, Note_on_c, 0, 75, 78
2, 73920, Note_on_c, 0, 79, 78
2, 74160, Note_on_c, 0, 79, 0
2, 74160, Note_on_c, 0, 70, 0
2, 74160, Note_on_c, 0, 67, 0
2, 74160, Note_on_c, 0, 75, 0
2, 74400, Note_on_c, 0, 79, 71
2, 74400, Note_on_c, 0, 82, 71
2, 74400, Note_on_c, 0, 87, 85
2, 74400, Note_on_c, 0, 91, 85
2, 74640, Note_on_c, 0, 91, 0
2, 74640, Note_on_c, 0, 79, 0
2, 74640, Note_on_c, 0, 82, 0
2, 74640, Note_on_c, 0, 87, 0
2, 74880, Note_on_c, 0, 55, 74
2, 74880, Note_on_c, 0, 58, 74
2, 74880, Note_on_c, 0, 63, 88
2, 75840, Note_on_c, 0, 63, 0
2, 75840, Note_on_c, 0, 58, 0
2, 75840, Note_on_c, 0, 55, 0
2, 75840, End_track
3, 0, Start_track
3, 0, Title_t, "Piano left"
3, 0, Program_c, 0, 0
3, 0, Control_c, 0, 7, 127
3, 0, Control_c, 0, 10, 64
3, 1440, Note_on_c, 0, 46, 39
3, 1920, Note_on_c, 0, 46, 0
3, 1920, Note_on_c, 0, 51, 48
3, 2005, Control_c, 0, 64, 127
3, 2400, Note_on_c, 0, 51, 0
3, 2400, Note_on_c, 0, 55, 51
3, 2421, Control_c, 0, 64, 0
3, 2474, Control_c, 0, 64, 127
3, 2880, Note_on_c, 0, 55, 0
3, 2880, Note_on_c, 0, 58, 56
3, 2901, Control_c, 0, 64, 0
3, 2954, Control_c, 0, 64, 127
3, 3360, Note_on_c, 0, 58, 0
3, 3360, Note_on_c, 0, 59, 66
3, 3371, Control_c, 0, 64, 0
3, 3445, Control_c, 0, 64, 127
3, 3840, Note_on_c, 0, 59, 0
3, 3840, Note_on_c, 0, 60, 73
3, 3861, Control_c, 0, 64, 0
3, 3893, Control_c, 0, 64, 127
3, 4320, Note_on_c, 0, 60, 0
3, 4320, Note_on_c, 0, 57, 50
3, 4345, Control_c, 0, 64, 0
3, 4800, Note_on_c, 0, 57, 0
3, 4800, Note_on_c, 0, 58, 55
3, 5280, Note_on_c, 0, 58, 0
3, 5280, Note_on_c, 0, 51, 47
3, 5760, Note_on_c, 0, 51, 0
3, 5760, Note_on_c, 0, 50, 46
3, 6240, Note_on_c, 0, 58, 56
3, 6660, Note_on_c, 0, 51, 50
3, 6720, Note_on_c, 0, 58, 0
3, 6720, Note_on_c, 0, 50, 0
3, 6720, Note_on_c, 0, 59, 72
3, 7200, Note_on_c, 0, 59, 0
3, 7200, Note_on_c, 0, 58, 58
3, 7615, Note_on_c, 0, 58, 0
3, 7620, Note_on_c, 0, 46, 54
3, 7680, Note_on_c, 0, 46, 0
3, 7680, Note_on_c, 0, 51, 0
3, 7680, Note_on_c, 0, 58, 69
3, 8160, Note_on_c, 0, 58, 0
3, 8160, Note_on_c, 0, 57, 55
3, 8640, Note_on_c, 0, 57, 0
3, 8640, Note_on_c, 0, 56, 51
3, 9120, Note_on_c, 0, 56, 0
3, 9120, Note_on_c, 0, 53, 44
3, 9120, Note_on_c, 0, 41, 37
3, 9170, Control_c, 0, 64, 127
3, 9600, Note_on_c, 0, 41, 0
3, 9600, Note_on_c, 0, 53, 0
3, 9600, Note_on_c, 0, 51, 53
3, 9600, Note_on_c, 0, 39, 45
3, 9613, Control_c, 0, 64, 0
3, 9713, Control_c, 0, 64, 127
3, 10080, Note_on_c, 0, 39, 0
3, 10080, Note_on_c, 0, 51, 0
3, 10080, Note_on_c, 0, 55, 58
3, 10080, Note_on_c, 0, 43, 49
3, 10112, Control_c, 0, 64, 0
3, 10161, Control_c, 0, 64, 127
3, 10560, Note_on_c, 0, 43, 0
3, 10560, Note_on_c, 0, 55, 0
3, 10560, Note_on_c, 0, 58, 63
3, 10560, Note_on_c, 0, 46, 53
3, 10574, Control_c, 0, 64, 0
3, 10631, Control_c, 0, 64, 127
3, 11040, Note_on_c, 0, 46, 0
3, 11040, Note_on_c, 0, 58, 0
3, 11040, Note_on_c, 0, 60, 71
3, 11040, Note_on_c, 0, 48, 59
3, 11061, Control_c, 0, 64, 0
3, 11111, Control_c, 0, 64, 127
3, 11520, Note_on_c, 0, 48, 0
3, 11520, Note_on_c, 0, 60, 0
3, 11520, Note_on_c, 0, 61, 79
3, 11520, Note_on_c, 0, 49, 67
3, 11538, Control_c, 0, 64, 0
3, 11623, Control_c, 0, 64, 127
3, 12000, Note_on_c, 0, 49, 0
3, 12000, Note_on_c, 0, 61, 0
3, 12000, Note_on_c, 0, 55, 76
3, 12000, Note_on_c, 0, 43, 63
3, 12019, Control_c, 0, 64, 0
3, 12085, Control_c, 0, 64, 127
3, 12480, Note_on_c, 0, 43, 0
3, 12480, Note_on_c, 0, 55, 0
3, 12480, Note_on_c, 0, 56, 85
3, 12480, Note_on_c, 0, 44, 72
3, 12494, Control_c, 0, 64, 0
3, 12551, Control_c, 0, 64, 127
3, 12960, Note_on_c, 0, 44, 0
3, 12960, Note_on_c, 0, 56, 0
3, 12960, Note_on_c, 0, 45, 73
3, 12960, Note_on_c, 0, 57, 88
3, 12974, Control_c, 0, 64, 0
3, 13024, Control_c, 0, 64, 127
3, 13440, Note_on_c, 0, 57, 0
3, 13440, Note_on_c, 0, 45, 0
3, 13440, Note_on_c, 0, 58, 93
3, 13440, Note_on_c, 0, 46, 78
3, 13447, Control_c, 0, 64, 0
3, 13497, Control_c, 0, 64, 127
3, 13920, Note_on_c, 0, 46, 0
3, 13920, Note_on_c, 0, 58, 0
3, 13920, Note_on_c, 0, 34, 53
3, 13920, Note_on_c, 0, 46, 63
3, 13939, Control_c, 0, 64, 0
3, 14023, Control_c, 0, 64, 127
3, 14400, Note_on_c, 0, 46, 0
3, 14400, Note_on_c, 0, 34, 0
3, 14400, Note_on_c, 0, 43, 56
3, 14400, Note_on_c, 0, 55, 67
3, 14416, Control_c, 0, 64, 0
3, 14506, Control_c, 0, 64, 127
3, 14880, Note_on_c, 0, 55, 0
3, 14880, Note_on_c, 0, 43, 0
3, 14880, Note_on_c, 0, 41, 37
3, 14880, Note_on_c, 0, 53, 45
3, 14916, Control_c, 0, 64, 0
3, 15360, Note_on_c, 0, 53, 0
3, 15360, Note_on_c, 0, 41, 0
3, 15360, Note_on_c, 0, 41, 41
3, 15360, Note_on_c, 0, 53, 49
3, 16320, Note_on_c, 0, 53, 0
3, 16320, Note_on_c, 0, 41, 0
3, 16320, Note_on_c, 0, 39, 31
3, 16320, Note_on_c, 0, 51, 37
3, 16800, Note_on_c, 0, 51, 0
3, 16800, Note_on_c, 0, 39, 0
3, 16800, Note_on_c, 0, 46, 39
3, 17280, Note_on_c, 0, 46, 0
3, 17280, Note_on_c, 0, 51, 48
3, 17365, Control_c, 0, 64, 127
3, 17760, Note_on_c, 0, 51, 0
3, 17760, Note_on_c, 0, 55, 51
3, 17781, Control_c, 0, 64, 0
3, 17834, Control_c, 0, 64, 127
3, 18240, Note_on_c, 0, 55, 0
3, 18240, Note_on_c, 0, 58, 56
3, 18261, Control_c, 0, 64, 0
3, 18314, Control_c, 0, 64, 127
3, 18720, Note_on_c, 0, 58, 0
3, 18720, Note_on_c, 0, 59, 66
3, 18731, Control_c, 0, 64, 0
3, 18805, Control_c, 0, 64, 127
3, 19200, Note_on_c, 0, 59, 0
3, 19200, Note_on_c, 0, 60, 73
3, 19221, Control_c, 0, 64, 0
3, 19253, Control_c, 0, 64, 127
3, 19680, Note_on_c, 0, 60, 0
3, 19680, Note_on_c, 0, 57, 50
3, 19705, Control_c, 0, 64, 0
3, 20160, Note_on_c, 0, 57, 0
3, 20160, Note_on_c, 0, 58, 55
3, 20640, Note_on_c, 0, 58, 0
3, 20640, Note_on_c, 0, 51, 47
3, 21120, Note_on_c, 0, 51, 0
3, 21120, Note_on_c, 0, 50, 46
3, 21600, Note_on_c, 0, 58, 56
3, 22020, Note_on_c, 0, 51, 54
3, 22080, Note_on_c, 0, 58, 0
3, 22080, Note_on_c, 0, 50, 0
3, 22080, Note_on_c, 0, 59, 68
3, 22560, Note_on_c, 0, 59, 0
3, 22560, Note_on_c, 0, 58, 58
3, 22975, Note_on_c, 0, 58, 0
3, 22980, Note_on_c, 0, 46, 54
3, 23040, Note_on_c, 0, 46, 0
3, 23040, Note_on_c, 0, 51, 0
3, 23040, Note_on_c, 0, 58, 69
3, 23520, Note_on_c, 0, 58, 0
3, 23520, Note_on_c, 0, 57, 55
3, 24000, Note_on_c, 0, 57, 0
3, 24000, Note_on_c, 0, 56, 51
3, 24480, Note_on_c, 0, 56, 0
3, 24480, Note_on_c, 0, 53, 44
3, 24480, Note_on_c, 0, 41, 37
3, 24530, Control_c, 0, 64, 127
3, 24960, Note_on_c, 0, 41, 0
3, 24960, Note_on_c, 0, 53, 0
3, 24960, Note_on_c, 0, 51, 53
3, 24960, Note_on_c, 0, 39, 45
3, 24973, Control_c, 0, 64, 0
3, 25073, Control_c, 0, 64, 127
3, 25440, Note_on_c, 0, 39, 0
3, 25440, Note_on_c, 0, 51, 0
3, 25440, Note_on_c, 0, 55, 58
3, 25440, Note_on_c, 0, 43, 49
3, 25472, Control_c, 0, 64, 0
3, 25521, Control_c, 0, 64, 127
3, 25920, Note_on_c, 0, 43, 0
3, 25920, Note_on_c, 0, 55, 0
3, 25920, Note_on_c, 0, 58, 63
3, 25920, Note_on_c, 0, 46, 53
3, 25934, Control_c, 0, 64, 0
3, 25991, Control_c, 0, 64, 127
3, 26400, Note_on_c, 0, 46, 0
3, 26400, Note_on_c, 0, 58, 0
3, 26400, Note_on_c, 0, 60, 71
3, 26400, Note_on_c, 0, 48, 59
3, 26421, Control_c, 0, 64, 0
3, 26471, Control_c, 0, 64, 127
3, 26880, Note_on_c, 0, 48, 0
3, 26880, Note_on_c, 0, 60, 0
3, 26880, Note_on_c, 0, 61, 79
3, 26880, Note_on_c, 0, 49, 67
3, 26898, Control_c, 0, 64, 0
3, 26983, Control_c, 0, 64, 127
3, 27360, Note_on_c, 0, 49, 0
3, 27360, Note_on_c, 0, 61, 0
3, 27360, Note_on_c, 0, 55, 76
3, 27360, Note_on_c, 0, 43, 63
3, 27379, Control_c, 0, 64, 0
3, 27445, Control_c, 0, 64, 127
3, 27840, Note_on_c, 0, 43, 0
3, 27840, Note_on_c, 0, 55, 0
3, 27840, Note_on_c, 0, 56, 85
3, 27840, Note_on_c, 0, 44, 72
3, 27854, Control_c, 0, 64, 0
3, 27911, Control_c, 0, 64, 127
3, 28320, Note_on_c, 0, 44, 0
3, 28320, Note_on_c, 0, 56, 0
3, 28320, Note_on_c, 0, 45, 73
3, 28320, Note_on_c, 0, 57, 88
3, 28334, Control_c, 0, 64, 0
3, 28384, Control_c, 0, 64, 127
3, 28800, Note_on_c, 0, 57, 0
3, 28800, Note_on_c, 0, 45, 0
3, 28800, Note_on_c, 0, 58, 93
3, 28800, Note_on_c, 0, 46, 78
3, 28807, Control_c, 0, 64, 0
3, 28857, Control_c, 0, 64, 127
3, 29280, Note_on_c, 0, 46, 0
3, 29280, Note_on_c, 0, 58, 0
3, 29280, Note_on_c, 0, 34, 53
3, 29280, Note_on_c, 0, 46, 63
3, 29299, Control_c, 0, 64, 0
3, 29383, Control_c, 0, 64, 127
3, 29760, Note_on_c, 0, 46, 0
3, 29760, Note_on_c, 0, 34, 0
3, 29760, Note_on_c, 0, 43, 56
3, 29760, Note_on_c, 0, 55, 67
3, 29776, Control_c, 0, 64, 0
3, 29866, Control_c, 0, 64, 127
3, 30240, Note_on_c, 0, 55, 0
3, 30240, Note_on_c, 0, 43, 0
3, 30240, Note_on_c, 0, 41, 37
3, 30240, Note_on_c, 0, 53, 45
3, 30276, Control_c, 0, 64, 0
3, 30720, Note_on_c, 0, 53, 0
3, 30720, Note_on_c, 0, 41, 0
3, 30720, Note_on_c, 0, 41, 41
3, 30720, Note_on_c, 0, 53, 49
3, 31680, Note_on_c, 0, 53, 0
3, 31680, Note_on_c, 0, 41, 0
3, 31680, Note_on_c, 0, 39, 31
3, 31680, Note_on_c, 0, 51, 37
3, 32160, Note_on_c, 0, 51, 0
3, 32160, Note_on_c, 0, 39, 0
3, 32160, Note_on_c, 0, 50, 55
3, 32160, Note_on_c, 0, 38, 46
3, 32640, Note_on_c, 0, 38, 0
3, 32640, Note_on_c, 0, 50, 0
3, 32640, Note_on_c, 0, 48, 53
3, 32640, Note_on_c, 0, 36, 45
3, 33120, Note_on_c, 0, 36, 0
3, 33120, Note_on_c, 0, 48, 0
3, 33120, Note_on_c, 0, 60, 68
3, 33120, Note_on_c, 0, 48, 57
3, 33600, Note_on_c, 0, 48, 0
3, 33600, Note_on_c, 0, 60, 0
3, 33600, Note_on_c, 0, 56, 59
3, 33600, Note_on_c, 0, 44, 50
3, 34080, Note_on_c, 0, 44, 0
3, 34080, Note_on_c, 0, 56, 0
3, 34080, Note_on_c, 0, 51, 55
3, 34080, Note_on_c, 0, 39, 46
3, 34560, Note_on_c, 0, 39, 0
3, 34560, Note_on_c, 0, 51, 0
3, 34560, Note_on_c, 0, 41, 60
3, 34560, Note_on_c, 0, 53, 67
3, 35040, Note_on_c, 0, 53, 0
3, 35040, Note_on_c, 0, 41, 0
3, 35040, Note_on_c, 0, 38, 49
3, 35040, Note_on_c, 0, 50, 58
3, 35520, Note_on_c, 0, 50, 0
3, 35520, Note_on_c, 0, 38, 0
3, 35520, Note_on_c, 0, 43, 57
3, 35520, Note_on_c, 0, 55, 68
3, 36000, Note_on_c, 0, 55, 0
3, 36000, Note_on_c, 0, 43, 0
3, 36000, Note_on_c, 0, 41, 56
3, 36000, Note_on_c, 0, 53, 67
3, 36480, Note_on_c, 0, 53, 0
3, 36480, Note_on_c, 0, 41, 0
3, 36480, Note_on_c, 0, 39, 59
3, 36480, Note_on_c, 0, 51, 71
3, 36960, Note_on_c, 0, 51, 0
3, 36960, Note_on_c, 0, 39, 0
3, 36960, Note_on_c, 0, 47, 78
3, 36960, Note_on_c, 0, 35, 66
3, 37440, Note_on_c, 0, 35, 0
3, 37440, Note_on_c, 0, 47, 0
3, 37440, Note_on_c, 0, 36, 72
3, 37440, Note_on_c, 0, 48, 85
3, 37920, Note_on_c, 0, 48, 0
3, 37920, Note_on_c, 0, 36, 0
3, 37920, Note_on_c, 0, 34, 81
3, 37920, Note_on_c, 0, 46, 97
3, 37934, Control_c, 0, 64, 0
3, 37984, Control_c, 0, 64, 127
3, 38400, Note_on_c, 0, 46, 0
3, 38400, Note_on_c, 0, 34, 0
3, 38400, Note_on_c, 0, 44, 96
3, 38400, Note_on_c, 0, 32, 85
3, 38407, Control_c, 0, 64, 0
3, 38457, Control_c, 0, 64, 127
3, 38880, Note_on_c, 0, 32, 0
3, 38880, Note_on_c, 0, 44, 0
3, 38880, Note_on_c, 0, 44, 53
3, 38880, Note_on_c, 0, 56, 63
3, 38896, Control_c, 0, 64, 0
3, 38983, Control_c, 0, 64, 127
3, 39360, Note_on_c, 0, 56, 0
3, 39360, Note_on_c, 0, 44, 0
3, 39360, Note_on_c, 0, 43, 56
3, 39360, Note_on_c, 0, 55, 67
3, 39376, Control_c, 0, 64, 0
3, 39466, Control_c, 0, 64, 127
3, 39840, Note_on_c, 0, 55, 0
3, 39840, Note_on_c, 0, 43, 0
3, 39840, Note_on_c, 0, 41, 31
3, 39840, Note_on_c, 0, 53, 38
3, 39876, Control_c, 0, 64, 0
3, 40320, Note_on_c, 0, 53, 0
3, 40320, Note_on_c, 0, 41, 0
3, 40320, Note_on_c, 0, 51, 45
3, 40320, Note_on_c, 0, 39, 38
3, 40333, Control_c, 0, 64, 0
3, 40433, Control_c, 0, 64, 127
3, 40800, Note_on_c, 0, 39, 0
3, 40800, Note_on_c, 0, 51, 0
3, 40800, Note_on_c, 0, 55, 51
3, 40800, Note_on_c, 0, 43, 43
3, 40832, Control_c, 0, 64, 0
3, 40881, Control_c, 0, 64, 127
3, 41280, Note_on_c, 0, 43, 0
3, 41280, Note_on_c, 0, 55, 0
3, 41280, Note_on_c, 0, 58, 57
3, 41280, Note_on_c, 0, 46, 48
3, 41294, Control_c, 0, 64, 0
3, 41351, Control_c, 0, 64, 127
3, 41760, Note_on_c, 0, 46, 0
3, 41760, Note_on_c, 0, 58, 0
3, 41760, Note_on_c, 0, 60, 68
3, 41760, Note_on_c, 0, 48, 56
3, 41781, Control_c, 0, 64, 0
3, 41831, Control_c, 0, 64, 127
3, 42240, Note_on_c, 0, 48, 0
3, 42240, Note_on_c, 0, 60, 0
3, 42240, Note_on_c, 0, 61, 79
3, 42240, Note_on_c, 0, 49, 67
3, 42258, Control_c, 0, 64, 0
3, 42343, Control_c, 0, 64, 127
3, 42720, Note_on_c, 0, 49, 0
3, 42720, Note_on_c, 0, 61, 0
3, 42720, Note_on_c, 0, 55, 76
3, 42720, Note_on_c, 0, 43, 63
3, 42739, Control_c, 0, 64, 0
3, 42805, Control_c, 0, 64, 127
3, 43200, Note_on_c, 0, 43, 0
3, 43200, Note_on_c, 0, 55, 0
3, 43200, Note_on_c, 0, 56, 85
3, 43200, Note_on_c, 0, 44, 72
3, 43214, Control_c, 0, 64, 0
3, 43271, Control_c, 0, 64, 127
3, 43680, Note_on_c, 0, 44, 0
3, 43680, Note_on_c, 0, 56, 0
3, 43680, Note_on_c, 0, 45, 73
3, 43680, Note_on_c, 0, 57, 88
3, 43694, Control_c, 0, 64, 0
3, 43744, Control_c, 0, 64, 127
3, 44160, Note_on_c, 0, 57, 0
3, 44160, Note_on_c, 0, 45, 0
3, 44160, Note_on_c, 0, 58, 93
3, 44160, Note_on_c, 0, 46, 78
3, 44167, Control_c, 0, 64, 0
3, 44217, Control_c, 0, 64, 127
3, 44640, Note_on_c, 0, 46, 0
3, 44640, Note_on_c, 0, 58, 0
3, 44640, Note_on_c, 0, 34, 53
3, 44640, Note_on_c, 0, 46, 63
3, 44659, Control_c, 0, 64, 0
3, 44743, Control_c, 0, 64, 127
3, 45120, Note_on_c, 0, 46, 0
3, 45120, Note_on_c, 0, 34, 0
3, 45120, Note_on_c, 0, 43, 56
3, 45120, Note_on_c, 0, 55, 67
3, 45136, Control_c, 0, 64, 0
3, 45226, Control_c, 0, 64, 127
3, 45600, Note_on_c, 0, 55, 0
3, 45600, Note_on_c, 0, 43, 0
3, 45600, Note_on_c, 0, 41, 37
3, 45600, Note_on_c, 0, 53, 45
3, 45636, Control_c, 0, 64, 0
3, 46080, Note_on_c, 0, 53, 0
3, 46080, Note_on_c, 0, 41, 0
3, 46080, Note_on_c, 0, 41, 41
3, 46080, Note_on_c, 0, 53, 49
3, 47040, Note_on_c, 0, 53, 0
3, 47040, Note_on_c, 0, 41, 0
3, 47040, Note_on_c, 0, 39, 31
3, 47040, Note_on_c, 0, 51, 37
3, 47520, Note_on_c, 0, 51, 0
3, 47520, Note_on_c, 0, 39, 0
3, 47520, Note_on_c, 0, 50, 55
3, 47520, Note_on_c, 0, 38, 46
3, 48000, Note_on_c, 0, 38, 0
3, 48000, Note_on_c, 0, 50, 0
3, 48000, Note_on_c, 0, 48, 53
3, 48000, Note_on_c, 0, 36, 45
3, 48480, Note_on_c, 0, 36, 0
3, 48480, Note_on_c, 0, 48, 0
3, 48480, Note_on_c, 0, 60, 68
3, 48480, Note_on_c, 0, 48, 57
3, 48960, Note_on_c, 0, 48, 0
3, 48960, Note_on_c, 0, 60, 0
3, 48960, Note_on_c, 0, 56, 59
3, 48960, Note_on_c, 0, 44, 50
3, 49440, Note_on_c, 0, 44, 0
3, 49440, Note_on_c, 0, 56, 0
3, 49440, Note_on_c, 0, 51, 55
3, 49440, Note_on_c, 0, 39, 46
3, 49920, Note_on_c, 0, 39, 0
3, 49920, Note_on_c, 0, 51, 0
3, 49920, Note_on_c, 0, 41, 60
3, 49920, Note_on_c, 0, 53, 67
3, 50400, Note_on_c, 0, 53, 0
3, 50400, Note_on_c, 0, 41, 0
3, 50400, Note_on_c, 0, 38, 49
3, 50400, Note_on_c, 0, 50, 58
3, 50880, Note_on_c, 0, 50, 0
3, 50880, Note_on_c, 0, 38, 0
3, 50880, Note_on_c, 0, 43, 57
3, 50880, Note_on_c, 0, 55, 68
3, 51360, Note_on_c, 0, 55, 0
3, 51360, Note_on_c, 0, 43, 0
3, 51360, Note_on_c, 0, 41, 56
3, 51360, Note_on_c, 0, 53, 67
3, 51840, Note_on_c, 0, 53, 0
3, 51840, Note_on_c, 0, 41, 0
3, 51840, Note_on_c, 0, 39, 59
3, 51840, Note_on_c, 0, 51, 71
3, 52320, Note_on_c, 0, 51, 0
3, 52320, Note_on_c, 0, 39, 0
3, 52320, Note_on_c, 0, 47, 78
3, 52320, Note_on_c, 0, 35, 66
3, 52800, Note_on_c, 0, 35, 0
3, 52800, Note_on_c, 0, 47, 0
3, 52800, Note_on_c, 0, 36, 72
3, 52800, Note_on_c, 0, 48, 85
3, 53280, Note_on_c, 0, 48, 0
3, 53280, Note_on_c, 0, 36, 0
3, 53280, Note_on_c, 0, 34, 81
3, 53280, Note_on_c, 0, 46, 97
3, 53294, Control_c, 0, 64, 0
3, 53344, Control_c, 0, 64, 127
3, 53760, Note_on_c, 0, 46, 0
3, 53760, Note_on_c, 0, 34, 0
3, 53760, Note_on_c, 0, 44, 96
3, 53760, Note_on_c, 0, 32, 85
3, 53767, Control_c, 0, 64, 0
3, 53817, Control_c, 0, 64, 127
3, 54240, Note_on_c, 0, 32, 0
3, 54240, Note_on_c, 0, 44, 0
3, 54240, Note_on_c, 0, 44, 53
3, 54240, Note_on_c, 0, 56, 63
3, 54256, Control_c, 0, 64, 0
3, 54343, Control_c, 0, 64, 127
3, 54720, Note_on_c, 0, 56, 0
3, 54720, Note_on_c, 0, 44, 0
3, 54720, Note_on_c, 0, 43, 56
3, 54720, Note_on_c, 0, 55, 67
3, 54736, Control_c, 0, 64, 0
3, 54826, Control_c, 0, 64, 127
3, 55200, Note_on_c, 0, 55, 0
3, 55200, Note_on_c, 0, 43, 0
3, 55200, Note_on_c, 0, 41, 37
3, 55200, Note_on_c, 0, 53, 45
3, 55236, Control_c, 0, 64, 0
3, 55680, Note_on_c, 0, 53, 0
3, 55680, Note_on_c, 0, 41, 0
3, 55680, Note_on_c, 0, 51, 45
3, 55680, Note_on_c, 0, 39, 38
3, 55693, Control_c, 0, 64, 0
3, 55793, Control_c, 0, 64, 127
3, 56160, Note_on_c, 0, 39, 0
3, 56160, Note_on_c, 0, 51, 0
3, 56160, Note_on_c, 0, 55, 51
3, 56160, Note_on_c, 0, 43, 43
3, 56192, Control_c, 0, 64, 0
3, 56241, Control_c, 0, 64, 127
3, 56640, Note_on_c, 0, 43, 0
3, 56640, Note_on_c, 0, 55, 0
3, 56640, Note_on_c, 0, 58, 57
3, 56640, Note_on_c, 0, 46, 48
3, 56654, Control_c, 0, 64, 0
3, 56711, Control_c, 0, 64, 127
3, 57120, Note_on_c, 0, 46, 0
3, 57120, Note_on_c, 0, 58, 0
3, 57120, Note_on_c, 0, 60, 68
3, 57120, Note_on_c, 0, 48, 56
3, 57141, Control_c, 0, 64, 0
3, 57191, Control_c, 0, 64, 127
3, 57600, Note_on_c, 0, 48, 0
3, 57600, Note_on_c, 0, 60, 0
3, 57600, Note_on_c, 0, 61, 79
3, 57600, Note_on_c, 0, 49, 67
3, 57618, Control_c, 0, 64, 0
3, 57703, Control_c, 0, 64, 127
3, 58080, Note_on_c, 0, 49, 0
3, 58080, Note_on_c, 0, 61, 0
3, 58080, Note_on_c, 0, 55, 70
3, 58080, Note_on_c, 0, 43, 58
3, 58099, Control_c, 0, 64, 0
3, 58165, Control_c, 0, 64, 127
3, 58560, Note_on_c, 0, 43, 0
3, 58560, Note_on_c, 0, 55, 0
3, 58560, Note_on_c, 0, 56, 78
3, 58560, Note_on_c, 0, 44, 66
3, 58574, Control_c, 0, 64, 0
3, 58631, Control_c, 0, 64, 127
3, 59040, Note_on_c, 0, 44, 0
3, 59040, Note_on_c, 0, 56, 0
3, 59040, Note_on_c, 0, 45, 73
3, 59040, Note_on_c, 0, 57, 88
3, 59054, Control_c, 0, 64, 0
3, 59104, Control_c, 0, 64, 127
3, 59520, Note_on_c, 0, 57, 0
3, 59520, Note_on_c, 0, 45, 0
3, 59520, Note_on_c, 0, 58, 93
3, 59520, Note_on_c, 0, 46, 78
3, 59527, Control_c, 0, 64, 0
3, 59577, Control_c, 0, 64, 127
3, 60000, Note_on_c, 0, 46, 0
3, 60000, Note_on_c, 0, 58, 0
3, 60000, Note_on_c, 0, 34, 53
3, 60000, Note_on_c, 0, 46, 63
3, 60019, Control_c, 0, 64, 0
3, 60103, Control_c, 0, 64, 127
3, 60480, Note_on_c, 0, 46, 0
3, 60480, Note_on_c, 0, 34, 0
3, 60480, Note_on_c, 0, 43, 56
3, 60480, Note_on_c, 0, 55, 67
3, 60496, Control_c, 0, 64, 0
3, 60586, Control_c, 0, 64, 127
3, 60960, Note_on_c, 0, 55, 0
3, 60960, Note_on_c, 0, 43, 0
3, 60960, Note_on_c, 0, 41, 37
3, 60960, Note_on_c, 0, 53, 45
3, 60996, Control_c, 0, 64, 0
3, 61440, Note_on_c, 0, 53, 0
3, 61440, Note_on_c, 0, 41, 0
3, 61440, Note_on_c, 0, 39, 35
3, 61440, Note_on_c, 0, 51, 42
3, 61920, Note_on_c, 0, 51, 0
3, 61920, Note_on_c, 0, 39, 0
3, 61920, Note_on_c, 0, 49, 47
3, 61920, Note_on_c, 0, 39, 39
3, 62400, Note_on_c, 0, 39, 0
3, 62400, Note_on_c, 0, 49, 0
3, 62400, Note_on_c, 0, 48, 43
3, 62400, Note_on_c, 0, 39, 36
3, 62880, Note_on_c, 0, 39, 0
3, 62880, Note_on_c, 0, 48, 0
3, 62880, Note_on_c, 0, 47, 42
3, 62880, Note_on_c, 0, 39, 35
3, 63360, Note_on_c, 0, 39, 0
3, 63360, Note_on_c, 0, 47, 0
3, 63360, Note_on_c, 0, 46, 40
3, 63360, Note_on_c, 0, 39, 34
3, 63840, Note_on_c, 0, 39, 0
3, 63840, Note_on_c, 0, 46, 0
3, 63840, Note_on_c, 0, 49, 47
3, 63840, Note_on_c, 0, 39, 39
3, 64320, Note_on_c, 0, 39, 0
3, 64320, Note_on_c, 0, 49, 0
3, 64320, Note_on_c, 0, 48, 43
3, 64320, Note_on_c, 0, 39, 36
3, 64800, Note_on_c, 0, 39, 0
3, 64800, Note_on_c, 0, 48, 0
3, 64800, Note_on_c, 0, 47, 42
3, 64800, Note_on_c, 0, 39, 35
3, 65280, Note_on_c, 0, 39, 0
3, 65280, Note_on_c, 0, 47, 0
3, 65280, Note_on_c, 0, 46, 40
3, 65280, Note_on_c, 0, 39, 34
3, 65286, Control_c, 0, 64, 0
3, 65760, Note_on_c, 0, 39, 0
3, 65760, Note_on_c, 0, 46, 0
3, 65760, Note_on_c, 0, 47, 56
3, 65760, Note_on_c, 0, 38, 47
3, 65779, Control_c, 0, 64, 0
3, 65863, Control_c, 0, 64, 127
3, 66240, Note_on_c, 0, 38, 0
3, 66240, Note_on_c, 0, 47, 0
3, 66240, Note_on_c, 0, 48, 61
3, 66240, Note_on_c, 0, 36, 52
3, 66256, Control_c, 0, 64, 0
3, 66346, Control_c, 0, 64, 127
3, 66720, Note_on_c, 0, 36, 0
3, 66720, Note_on_c, 0, 48, 0
3, 66720, Note_on_c, 0, 46, 71
3, 66720, Note_on_c, 0, 34, 60
3, 66736, Control_c, 0, 64, 0
3, 66801, Control_c, 0, 64, 127
3, 67200, Note_on_c, 0, 34, 0
3, 67200, Note_on_c, 0, 46, 0
3, 67200, Note_on_c, 0, 32, 74
3, 67200, Note_on_c, 0, 44, 87
3, 67206, Control_c, 0, 64, 0
3, 67292, Control_c, 0, 64, 127
3, 67680, Note_on_c, 0, 44, 0
3, 67680, Note_on_c, 0, 32, 0
3, 67680, Note_on_c, 0, 41, 55
3, 67680, Note_on_c, 0, 29, 46
3, 67699, Control_c, 0, 64, 0
3, 67783, Control_c, 0, 64, 127
3, 68160, Note_on_c, 0, 29, 0
3, 68160, Note_on_c, 0, 41, 0
3, 68160, Note_on_c, 0, 46, 53
3, 68160, Note_on_c, 0, 34, 45
3, 68176, Control_c, 0, 64, 0
3, 68266, Control_c, 0, 64, 127
3, 68640, Note_on_c, 0, 34, 0
3, 68640, Note_on_c, 0, 46, 0
3, 68640, Note_on_c, 0, 46, 46
3, 68640, Note_on_c, 0, 34, 39
3, 68656, Control_c, 0, 64, 0
3, 68721, Control_c, 0, 64, 127
3, 69120, Note_on_c, 0, 34, 0
3, 69120, Note_on_c, 0, 46, 0
3, 69120, Note_on_c, 0, 46, 40
3, 69120, Note_on_c, 0, 39, 34
3, 69126, Control_c, 0, 64, 0
3, 69600, Note_on_c, 0, 39, 0
3, 69600, Note_on_c, 0, 46, 0
3, 69600, Note_on_c, 0, 39, 45
3, 69600, Note_on_c, 0, 47, 53
3, 70080, Note_on_c, 0, 47, 0
3, 70080, Note_on_c, 0, 39, 0
3, 70080, Note_on_c, 0, 39, 40
3, 70080, Note_on_c, 0, 46, 48
3, 70560, Note_on_c, 0, 46, 0
3, 70560, Note_on_c, 0, 39, 0
3, 70560, Note_on_c, 0, 39, 45
3, 70560, Note_on_c, 0, 47, 53
3, 71040, Note_on_c, 0, 47, 0
3, 71040, Note_on_c, 0, 39, 0
3, 71040, Note_on_c, 0, 39, 40
3, 71040, Note_on_c, 0, 46, 48
3, 71520, Note_on_c, 0, 46, 0
3, 71520, Note_on_c, 0, 39, 0
3, 71520, Note_on_c, 0, 39, 36
3, 71520, Note_on_c, 0, 47, 42
3, 72000, Note_on_c, 0, 47, 0
3, 72000, Note_on_c, 0, 39, 0
3, 72000, Note_on_c, 0, 39, 32
3, 72000, Note_on_c, 0, 46, 38
3, 72480, Note_on_c, 0, 46, 0
3, 72480, Note_on_c, 0, 39, 0
3, 72480, Note_on_c, 0, 39, 28
3, 72480, Note_on_c, 0, 47, 33
3, 72960, Note_on_c, 0, 47, 0
3, 72960, Note_on_c, 0, 39, 0
3, 72960, Note_on_c, 0, 39, 21
3, 72960, Note_on_c, 0, 46, 30
3, 73440, Note_on_c, 0, 46, 0
3, 73440, Note_on_c, 0, 39, 0
3, 73920, Note_on_c, 0, 63, 50
3, 73920, Note_on_c, 0, 58, 42
3, 73920, Note_on_c, 0, 51, 42
3, 74104, Control_c, 0, 64, 127
3, 74160, Note_on_c, 0, 51, 0
3, 74160, Note_on_c, 0, 58, 0
3, 74160, Note_on_c, 0, 63, 0
3, 74400, Note_on_c, 0, 63, 48
3, 74400, Note_on_c, 0, 70, 48
3, 74400, Note_on_c, 0, 75, 48
3, 74640, Note_on_c, 0, 75, 0
3, 74640, Note_on_c, 0, 70, 0
3, 74640, Note_on_c, 0, 63, 0
3, 74880, Note_on_c, 0, 39, 49
3, 74880, Note_on_c, 0, 46, 49
3, 74880, Note_on_c, 0, 51, 58
3, 75840, Note_on_c, 0, 51, 0
3, 75840, Note_on_c, 0, 46, 0
3, 75840, Note_on_c, 0, 39, 0
3, 76800, Control_c, 0, 64, 0
3, 76800, End_track
4, 0, Start_track
4, 0, Title_t, "Buegmueller: Etueden Op. 109 - Separation"
4, 0, End_track
5, 0, Start_track
5, 0, Title_t, "Copyright © 2012 by Bernd Krüger"
5, 0, End_track
6, 0, Start_track
6, 0, Title_t, "http://piano-midi.de"
6, 0, End_track
7, 0, Start_track
7, 0, Title_t, "Edition: 2012-03-28"
7, 0, End_track
0, 0, End_of_file
