0, 0, Header, 1, 8, 480
1, 0, Start_track
1, 0, Title_t, "Etueden Opus 109"
1, 0, Title_t, "Die Sylphen"
1, 0, Copyright_t, "Copyright © 2012 by Bernd Krueger"
1, 0, Text_t, "Friedrich Burgmueller"
1, 0, Text_t, "Vivo"
1, 0, Text_t, "Erstellt: 5.4.2012\012"
1, 0, Text_t, "Dauer: 1:30 Minuten\012"
1, 0, SMPTE_offset, 96, 0, 3, 0, 0
1, 0, Time_signature, 3, 3, 12, 8
1, 0, Key_signature, -2, "major"
1, 0, Tempo, 459453
1, 0, Marker_t, "Einleitung"
1, 240, Tempo, 516396
1, 480, Tempo, 530551
1, 720, Tempo, 464792
1, 960, Tempo, 514183
1, 1200, Tempo, 535284
1, 1440, Tempo, 466599
1, 1680, Tempo, 516396
1, 1920, Tempo, 532907
1, 2160, Tempo, 466599
1, 2400, Tempo, 514183
1, 2640, Tempo, 530551
1, 2880, Tempo, 468750
1, 3120, Tempo, 516396
1, 3360, Tempo, 571157
1, 3480, Tempo, 619515
1, 3600, Tempo, 589565
1, 4320, Tempo, 468421
1, 4560, Tempo, 500793
1, 4680, Tempo, 519796
1, 4800, Tempo, 619515
1, 5040, Tempo, 514889
1, 5760, Tempo, 453241
1, 5760, Marker_t, "Teil 1"
1, 6000, Tempo, 572028
1, 6240, Tempo, 453241
1, 6480, Tempo, 500793
1, 6720, Tempo, 496278
1, 6960, Tempo, 505433
1, 7200, Tempo, 512514
1, 7440, Tempo, 494030
1, 7680, Tempo, 514889
1, 7920, Tempo, 498546
1, 8400, Tempo, 553863
1, 8640, Tempo, 453241
1, 8880, Tempo, 556122
1, 9120, Tempo, 453241
1, 9360, Tempo, 500793
1, 9600, Tempo, 496278
1, 9840, Tempo, 505433
1, 10080, Tempo, 512514
1, 10320, Tempo, 494030
1, 10560, Tempo, 514889
1, 10800, Tempo, 498546
1, 11280, Tempo, 545603
1, 11520, Tempo, 453241
1, 11760, Tempo, 553557
1, 12000, Tempo, 453241
1, 12240, Tempo, 500793
1, 12480, Tempo, 496278
1, 12720, Tempo, 505433
1, 12960, Tempo, 512514
1, 13200, Tempo, 494030
1, 13440, Tempo, 514889
1, 13680, Tempo, 498546
1, 14160, Tempo, 545603
1, 14400, Tempo, 453241
1, 14640, Tempo, 548496
1, 14880, Tempo, 453241
1, 15120, Tempo, 500793
1, 15360, Tempo, 496278
1, 15600, Tempo, 505433
1, 15840, Tempo, 512514
1, 16080, Tempo, 494030
1, 16320, Tempo, 514889
1, 16560, Tempo, 498546
1, 17040, Tempo, 556690
1, 17280, Tempo, 453241
1, 17520, Tempo, 553557
1, 17760, Tempo, 453241
1, 18000, Tempo, 500793
1, 18240, Tempo, 496278
1, 18480, Tempo, 505433
1, 18720, Tempo, 470736
1, 18960, Tempo, 494030
1, 19200, Tempo, 545603
1, 19440, Tempo, 498546
1, 19920, Tempo, 512514
1, 20160, Tempo, 453241
1, 20400, Tempo, 556122
1, 20640, Tempo, 453241
1, 20880, Tempo, 500793
1, 21120, Tempo, 496278
1, 21360, Tempo, 505433
1, 21600, Tempo, 470736
1, 21840, Tempo, 494030
1, 22080, Tempo, 545603
1, 22320, Tempo, 498546
1, 22800, Tempo, 548346
1, 23040, Tempo, 448799
1, 23280, Tempo, 487448
1, 23520, Tempo, 505433
1, 23760, Tempo, 442184
1, 24000, Tempo, 487448
1, 24240, Tempo, 500793
1, 24480, Tempo, 437350
1, 24720, Tempo, 476607
1, 24960, Tempo, 496278
1, 25200, Tempo, 428480
1, 25440, Tempo, 463714
1, 25680, Tempo, 492247
1, 25920, Tempo, 425864
1, 26160, Tempo, 461929
1, 26400, Tempo, 490236
1, 26640, Tempo, 436999
1, 26880, Tempo, 500793
1, 27120, Tempo, 556690
1, 27360, Tempo, 456656
1, 27600, Tempo, 500793
1, 27680, Tempo, 529801
1, 27840, Tempo, 556690
1, 28080, Tempo, 583317
1, 28320, Tempo, 562377
1, 28800, Tempo, 431997
1, 29040, Tempo, 454925
1, 29280, Tempo, 502555
1, 29520, Tempo, 436713
1, 29760, Tempo, 460158
1, 30000, Tempo, 526824
1, 30240, Tempo, 481039
1, 30480, Tempo, 574163
1, 30720, Tempo, 667482
1, 30960, Key_signature, 1, "major"
1, 30960, Tempo, 491441
1, 30960, Marker_t, "Teil 2"
1, 31200, Tempo, 510247
1, 31440, Tempo, 582016
1, 31680, Tempo, 503821
1, 31920, Tempo, 523606
1, 32160, Tempo, 590609
1, 32400, Tempo, 497554
1, 32640, Tempo, 523606
1, 32880, Tempo, 582016
1, 33120, Tempo, 495499
1, 33360, Tempo, 454925
1, 33600, Tempo, 582016
1, 33840, Tempo, 495499
1, 34080, Tempo, 510247
1, 34320, Tempo, 565558
1, 34560, Tempo, 503821
1, 34800, Tempo, 512426
1, 35040, Tempo, 530551
1, 35280, Tempo, 497554
1, 35520, Tempo, 523606
1, 35760, Tempo, 582016
1, 36000, Tempo, 495499
1, 36240, Tempo, 458400
1, 36480, Tempo, 582016
1, 36720, Tempo, 495499
1, 36960, Tempo, 510247
1, 37200, Tempo, 555093
1, 37440, Tempo, 503821
1, 37680, Tempo, 523606
1, 37920, Tempo, 573669
1, 38160, Tempo, 497554
1, 38400, Tempo, 523606
1, 38640, Tempo, 624415
1, 38880, Tempo, 495499
1, 39120, Tempo, 510247
1, 39360, Tempo, 542545
1, 39600, Tempo, 503821
1, 39840, Tempo, 523606
1, 40080, Tempo, 552537
1, 40320, Tempo, 497554
1, 40560, Tempo, 523606
1, 40800, Tempo, 582016
1, 41040, Tempo, 497554
1, 41280, Tempo, 523606
1, 41520, Tempo, 525901
1, 41760, Tempo, 514624
1, 42000, Tempo, 528216
1, 42240, Tempo, 658689
1, 42480, Tempo, 495499
1, 42480, Marker_t, "Teil 2 Wiederholung"
1, 42720, Tempo, 510247
1, 42960, Tempo, 614188
1, 43200, Tempo, 503821
1, 43440, Tempo, 523606
1, 43680, Tempo, 590609
1, 43920, Tempo, 497554
1, 44160, Tempo, 523606
1, 44400, Tempo, 582016
1, 44640, Tempo, 495499
1, 44880, Tempo, 445467
1, 45120, Tempo, 582016
1, 45360, Tempo, 495499
1, 45600, Tempo, 510247
1, 45840, Tempo, 565558
1, 46080, Tempo, 503821
1, 46320, Tempo, 518627
1, 46560, Tempo, 542054
1, 46800, Tempo, 497554
1, 47040, Tempo, 523606
1, 47280, Tempo, 582016
1, 47520, Tempo, 495499
1, 47760, Tempo, 452182
1, 48000, Tempo, 582016
1, 48240, Tempo, 495499
1, 48480, Tempo, 510247
1, 48720, Tempo, 555093
1, 48960, Tempo, 503821
1, 49200, Tempo, 523606
1, 49440, Tempo, 587142
1, 49680, Tempo, 497554
1, 49920, Tempo, 523606
1, 50160, Tempo, 624415
1, 50400, Tempo, 495499
1, 50640, Tempo, 510247
1, 50880, Tempo, 542545
1, 51120, Tempo, 503821
1, 51360, Tempo, 523606
1, 51600, Tempo, 552537
1, 51840, Tempo, 505519
1, 52080, Tempo, 523606
1, 52320, Tempo, 582016
1, 52560, Tempo, 501295
1, 52800, Tempo, 523606
1, 53040, Tempo, 602470
1, 53280, Tempo, 514624
1, 53280, Marker_t, "Teil 3"
1, 53520, Tempo, 528216
1, 53760, Tempo, 568236
1, 54000, Tempo, 514624
1, 54240, Tempo, 528216
1, 54480, Tempo, 550005
1, 54720, Tempo, 514624
1, 54960, Tempo, 528216
1, 55200, Tempo, 550005
1, 55440, Tempo, 514624
1, 55680, Tempo, 528216
1, 55920, Tempo, 555093
1, 56160, Tempo, 514624
1, 56400, Tempo, 528216
1, 56640, Tempo, 568236
1, 56880, Tempo, 519076
1, 57120, Tempo, 540103
1, 57360, Tempo, 587717
1, 57600, Tempo, 568236
1, 57840, Tempo, 599460
1, 58080, Tempo, 648018
1, 58320, Tempo, 579206
1, 58560, Tempo, 630981
1, 58800, Tempo, 716932
1, 59040, Key_signature, -2, "major"
1, 59040, Tempo, 453241
1, 59040, Marker_t, "Teil 1 Wiederholung"
1, 59280, Tempo, 572028
1, 59520, Tempo, 453241
1, 59760, Tempo, 500793
1, 60000, Tempo, 496278
1, 60240, Tempo, 505433
1, 60480, Tempo, 512514
1, 60720, Tempo, 494030
1, 60960, Tempo, 530082
1, 61200, Tempo, 498546
1, 61680, Tempo, 553863
1, 61920, Tempo, 453241
1, 62160, Tempo, 556122
1, 62400, Tempo, 453241
1, 62640, Tempo, 500793
1, 62880, Tempo, 496278
1, 63120, Tempo, 505433
1, 63360, Tempo, 512514
1, 63600, Tempo, 494030
1, 63840, Tempo, 514889
1, 64080, Tempo, 498546
1, 64560, Tempo, 557155
1, 64800, Tempo, 453241
1, 65040, Tempo, 553557
1, 65280, Tempo, 453241
1, 65520, Tempo, 500793
1, 65760, Tempo, 496278
1, 66000, Tempo, 505433
1, 66240, Tempo, 512514
1, 66480, Tempo, 494030
1, 66720, Tempo, 525440
1, 66960, Tempo, 498546
1, 67440, Tempo, 545603
1, 67680, Tempo, 453241
1, 67920, Tempo, 548496
1, 68160, Tempo, 453241
1, 68400, Tempo, 500793
1, 68640, Tempo, 496278
1, 68880, Tempo, 505433
1, 69120, Tempo, 512514
1, 69360, Tempo, 494030
1, 69600, Tempo, 514889
1, 69840, Tempo, 498546
1, 70320, Tempo, 556690
1, 70560, Tempo, 453241
1, 70800, Tempo, 553557
1, 71040, Tempo, 453241
1, 71280, Tempo, 500793
1, 71520, Tempo, 496278
1, 71760, Tempo, 505433
1, 72000, Tempo, 470736
1, 72240, Tempo, 494030
1, 72480, Tempo, 545603
1, 72720, Tempo, 498546
1, 73200, Tempo, 512514
1, 73440, Tempo, 453241
1, 73680, Tempo, 556122
1, 73920, Tempo, 453241
1, 74160, Tempo, 500793
1, 74400, Tempo, 496278
1, 74640, Tempo, 505433
1, 74880, Tempo, 470736
1, 75120, Tempo, 494030
1, 75360, Tempo, 545603
1, 75600, Tempo, 498546
1, 76080, Tempo, 548346
1, 76320, Tempo, 440529
1, 76560, Tempo, 487448
1, 76800, Tempo, 505433
1, 77040, Tempo, 435287
1, 77280, Tempo, 487448
1, 77520, Tempo, 500793
1, 77760, Tempo, 433557
1, 78000, Tempo, 476607
1, 78240, Tempo, 496278
1, 78480, Tempo, 428480
1, 78720, Tempo, 463714
1, 78960, Tempo, 492247
1, 79200, Tempo, 425864
1, 79440, Tempo, 461929
1, 79680, Tempo, 490236
1, 79920, Tempo, 436999
1, 80160, Tempo, 519526
1, 80400, Tempo, 558191
1, 80640, Tempo, 480038
1, 80880, Tempo, 526362
1, 80960, Tempo, 529801
1, 81120, Tempo, 571483
1, 81360, Tempo, 612307
1, 81600, Tempo, 562377
1, 81600, End_track
2, 0, Start_track
2, 0, Title_t, "Piano right"
2, 0, Program_c, 0, 0
2, 0, Control_c, 0, 7, 127
2, 0, Control_c, 0, 10, 64
2, 0, Note_on_c, 0, 76, 54
2, 80, Note_on_c, 0, 76, 0
2, 80, Note_on_c, 0, 82, 46
2, 160, Note_on_c, 0, 82, 0
2, 160, Note_on_c, 0, 85, 40
2, 240, Note_on_c, 0, 85, 0
2, 240, Note_on_c, 0, 76, 56
2, 360, Note_on_c, 0, 76, 0
2, 720, Note_on_c, 0, 74, 51
2, 800, Note_on_c, 0, 74, 0
2, 800, Note_on_c, 0, 81, 43
2, 880, Note_on_c, 0, 81, 0
2, 880, Note_on_c, 0, 86, 40
2, 960, Note_on_c, 0, 86, 0
2, 960, Note_on_c, 0, 74, 53
2, 1080, Note_on_c, 0, 74, 0
2, 1440, Note_on_c, 0, 74, 51
2, 1520, Note_on_c, 0, 74, 0
2, 1520, Note_on_c, 0, 80, 43
2, 1600, Note_on_c, 0, 80, 0
2, 1600, Note_on_c, 0, 83, 40
2, 1680, Note_on_c, 0, 83, 0
2, 1680, Note_on_c, 0, 74, 50
2, 1800, Note_on_c, 0, 74, 0
2, 2160, Note_on_c, 0, 72, 49
2, 2240, Note_on_c, 0, 72, 0
2, 2240, Note_on_c, 0, 79, 40
2, 2320, Note_on_c, 0, 79, 0
2, 2320, Note_on_c, 0, 84, 38
2, 2400, Note_on_c, 0, 84, 0
2, 2400, Note_on_c, 0, 72, 51
2, 2520, Note_on_c, 0, 72, 0
2, 2880, Note_on_c, 0, 72, 51
2, 2960, Note_on_c, 0, 72, 0
2, 2960, Note_on_c, 0, 79, 40
2, 3040, Note_on_c, 0, 79, 0
2, 3040, Note_on_c, 0, 81, 37
2, 3120, Note_on_c, 0, 81, 0
2, 3120, Note_on_c, 0, 72, 49
2, 3240, Note_on_c, 0, 72, 0
2, 3570, Note_on_c, 0, 75, 54
2, 3580, Note_on_c, 0, 79, 58
2, 3590, Note_on_c, 0, 84, 62
2, 3600, Note_on_c, 0, 87, 64
2, 3840, Note_on_c, 0, 87, 0
2, 3840, Note_on_c, 0, 75, 0
2, 3840, Note_on_c, 0, 79, 0
2, 3840, Note_on_c, 0, 84, 0
2, 4320, Note_on_c, 0, 62, 54
2, 4400, Note_on_c, 0, 62, 0
2, 4400, Note_on_c, 0, 66, 46
2, 4480, Note_on_c, 0, 66, 0
2, 4480, Note_on_c, 0, 74, 40
2, 4560, Note_on_c, 0, 74, 0
2, 4560, Note_on_c, 0, 62, 50
2, 4680, Note_on_c, 0, 62, 0
2, 5040, Note_on_c, 0, 67, 40
2, 5040, Note_on_c, 0, 62, 40
2, 5040, Note_on_c, 0, 58, 40
2, 5280, Note_on_c, 0, 58, 0
2, 5280, Note_on_c, 0, 62, 0
2, 5280, Note_on_c, 0, 67, 0
2, 5760, Note_on_c, 0, 86, 54
2, 5840, Note_on_c, 0, 86, 0
2, 5840, Note_on_c, 0, 94, 46
2, 5920, Note_on_c, 0, 94, 0
2, 5920, Note_on_c, 0, 98, 40
2, 6000, Note_on_c, 0, 98, 0
2, 6000, Note_on_c, 0, 86, 50
2, 6240, Note_on_c, 0, 86, 0
2, 6240, Note_on_c, 0, 74, 54
2, 6320, Note_on_c, 0, 74, 0
2, 6320, Note_on_c, 0, 82, 46
2, 6400, Note_on_c, 0, 82, 0
2, 6400, Note_on_c, 0, 86, 40
2, 6480, Note_on_c, 0, 86, 0
2, 6480, Note_on_c, 0, 74, 59
2, 6720, Note_on_c, 0, 74, 0
2, 6960, Note_on_c, 0, 72, 50
2, 7080, Note_on_c, 0, 72, 0
2, 7080, Note_on_c, 0, 70, 49
2, 7140, Note_on_c, 0, 70, 0
2, 7140, Note_on_c, 0, 72, 49
2, 7200, Note_on_c, 0, 72, 0
2, 7200, Note_on_c, 0, 70, 58
2, 7440, Note_on_c, 0, 70, 0
2, 7680, Note_on_c, 0, 69, 49
2, 7800, Note_on_c, 0, 69, 0
2, 7860, Note_on_c, 0, 69, 42
2, 7920, Note_on_c, 0, 69, 0
2, 7920, Note_on_c, 0, 72, 50
2, 8400, Note_on_c, 0, 72, 0
2, 8400, Note_on_c, 0, 70, 46
2, 8640, Note_on_c, 0, 70, 0
2, 8640, Note_on_c, 0, 79, 54
2, 8720, Note_on_c, 0, 79, 0
2, 8720, Note_on_c, 0, 86, 46
2, 8800, Note_on_c, 0, 86, 0
2, 8800, Note_on_c, 0, 91, 40
2, 8880, Note_on_c, 0, 91, 0
2, 8880, Note_on_c, 0, 79, 50
2, 9120, Note_on_c, 0, 79, 0
2, 9120, Note_on_c, 0, 67, 54
2, 9200, Note_on_c, 0, 67, 0
2, 9200, Note_on_c, 0, 74, 46
2, 9280, Note_on_c, 0, 74, 0
2, 9280, Note_on_c, 0, 79, 40
2, 9360, Note_on_c, 0, 79, 0
2, 9360, Note_on_c, 0, 67, 59
2, 9600, Note_on_c, 0, 67, 0
2, 9840, Note_on_c, 0, 63, 50
2, 10080, Note_on_c, 0, 63, 0
2, 10080, Note_on_c, 0, 62, 58
2, 10320, Note_on_c, 0, 62, 0
2, 10320, Note_on_c, 0, 70, 54
2, 10560, Note_on_c, 0, 70, 0
2, 10560, Note_on_c, 0, 69, 49
2, 10677, Note_on_c, 0, 69, 0
2, 10680, Note_on_c, 0, 69, 42
2, 10720, Note_on_c, 0, 70, 42
2, 10740, Note_on_c, 0, 69, 0
2, 10780, Note_on_c, 0, 70, 0
2, 10800, Note_on_c, 0, 69, 50
2, 11280, Note_on_c, 0, 69, 0
2, 11280, Note_on_c, 0, 67, 46
2, 11520, Note_on_c, 0, 67, 0
2, 11520, Note_on_c, 0, 86, 54
2, 11600, Note_on_c, 0, 86, 0
2, 11600, Note_on_c, 0, 94, 46
2, 11680, Note_on_c, 0, 94, 0
2, 11680, Note_on_c, 0, 98, 40
2, 11760, Note_on_c, 0, 98, 0
2, 11760, Note_on_c, 0, 86, 50
2, 12000, Note_on_c, 0, 86, 0
2, 12000, Note_on_c, 0, 74, 54
2, 12080, Note_on_c, 0, 74, 0
2, 12080, Note_on_c, 0, 82, 46
2, 12160, Note_on_c, 0, 82, 0
2, 12160, Note_on_c, 0, 86, 40
2, 12240, Note_on_c, 0, 86, 0
2, 12240, Note_on_c, 0, 74, 59
2, 12480, Note_on_c, 0, 74, 0
2, 12720, Note_on_c, 0, 72, 50
2, 12840, Note_on_c, 0, 72, 0
2, 12840, Note_on_c, 0, 70, 49
2, 12900, Note_on_c, 0, 70, 0
2, 12900, Note_on_c, 0, 72, 49
2, 12960, Note_on_c, 0, 72, 0
2, 12960, Note_on_c, 0, 70, 58
2, 13200, Note_on_c, 0, 70, 0
2, 13440, Note_on_c, 0, 69, 49
2, 13560, Note_on_c, 0, 69, 0
2, 13620, Note_on_c, 0, 69, 42
2, 13680, Note_on_c, 0, 69, 0
2, 13680, Note_on_c, 0, 72, 50
2, 14160, Note_on_c, 0, 72, 0
2, 14160, Note_on_c, 0, 70, 46
2, 14400, Note_on_c, 0, 70, 0
2, 14400, Note_on_c, 0, 79, 54
2, 14480, Note_on_c, 0, 79, 0
2, 14480, Note_on_c, 0, 86, 46
2, 14560, Note_on_c, 0, 86, 0
2, 14560, Note_on_c, 0, 91, 40
2, 14640, Note_on_c, 0, 91, 0
2, 14640, Note_on_c, 0, 79, 50
2, 14880, Note_on_c, 0, 79, 0
2, 14880, Note_on_c, 0, 67, 54
2, 14960, Note_on_c, 0, 67, 0
2, 14960, Note_on_c, 0, 74, 46
2, 15040, Note_on_c, 0, 74, 0
2, 15040, Note_on_c, 0, 79, 40
2, 15120, Note_on_c, 0, 79, 0
2, 15120, Note_on_c, 0, 67, 59
2, 15360, Note_on_c, 0, 67, 0
2, 15600, Note_on_c, 0, 63, 50
2, 15840, Note_on_c, 0, 63, 0
2, 15840, Note_on_c, 0, 62, 58
2, 16080, Note_on_c, 0, 62, 0
2, 16080, Note_on_c, 0, 70, 54
2, 16320, Note_on_c, 0, 70, 0
2, 16320, Note_on_c, 0, 69, 49
2, 16437, Note_on_c, 0, 69, 0
2, 16440, Note_on_c, 0, 69, 42
2, 16480, Note_on_c, 0, 70, 42
2, 16500, Note_on_c, 0, 69, 0
2, 16540, Note_on_c, 0, 70, 0
2, 16560, Note_on_c, 0, 69, 50
2, 17040, Note_on_c, 0, 69, 0
2, 17040, Note_on_c, 0, 67, 46
2, 17280, Note_on_c, 0, 67, 0
2, 17280, Note_on_c, 0, 77, 54
2, 17360, Note_on_c, 0, 77, 0
2, 17360, Note_on_c, 0, 82, 46
2, 17440, Note_on_c, 0, 82, 0
2, 17440, Note_on_c, 0, 89, 40
2, 17520, Note_on_c, 0, 89, 0
2, 17520, Note_on_c, 0, 77, 50
2, 17760, Note_on_c, 0, 77, 0
2, 17760, Note_on_c, 0, 65, 54
2, 17840, Note_on_c, 0, 65, 0
2, 17840, Note_on_c, 0, 74, 46
2, 17920, Note_on_c, 0, 74, 0
2, 17920, Note_on_c, 0, 77, 40
2, 18000, Note_on_c, 0, 77, 0
2, 18000, Note_on_c, 0, 65, 59
2, 18240, Note_on_c, 0, 65, 0
2, 18480, Note_on_c, 0, 63, 50
2, 18600, Note_on_c, 0, 63, 0
2, 18720, Note_on_c, 0, 63, 58
2, 18800, Note_on_c, 0, 63, 0
2, 18800, Note_on_c, 0, 65, 48
2, 18880, Note_on_c, 0, 65, 0
2, 18880, Note_on_c, 0, 63, 48
2, 18960, Note_on_c, 0, 63, 0
2, 18960, Note_on_c, 0, 62, 55
2, 19200, Note_on_c, 0, 62, 0
2, 19200, Note_on_c, 0, 60, 50
2, 19320, Note_on_c, 0, 60, 0
2, 19380, Note_on_c, 0, 60, 45
2, 19440, Note_on_c, 0, 60, 0
2, 19440, Note_on_c, 0, 63, 50
2, 19920, Note_on_c, 0, 63, 0
2, 19920, Note_on_c, 0, 62, 46
2, 20160, Note_on_c, 0, 62, 0
2, 20160, Note_on_c, 0, 74, 54
2, 20240, Note_on_c, 0, 74, 0
2, 20240, Note_on_c, 0, 79, 46
2, 20320, Note_on_c, 0, 79, 0
2, 20320, Note_on_c, 0, 86, 40
2, 20400, Note_on_c, 0, 86, 0
2, 20400, Note_on_c, 0, 74, 50
2, 20640, Note_on_c, 0, 74, 0
2, 20640, Note_on_c, 0, 62, 54
2, 20720, Note_on_c, 0, 62, 0
2, 20720, Note_on_c, 0, 67, 46
2, 20800, Note_on_c, 0, 67, 0
2, 20800, Note_on_c, 0, 74, 40
2, 20880, Note_on_c, 0, 74, 0
2, 20880, Note_on_c, 0, 62, 59
2, 21120, Note_on_c, 0, 62, 0
2, 21360, Note_on_c, 0, 60, 50
2, 21480, Note_on_c, 0, 60, 0
2, 21600, Note_on_c, 0, 60, 58
2, 21680, Note_on_c, 0, 60, 0
2, 21680, Note_on_c, 0, 62, 48
2, 21760, Note_on_c, 0, 62, 0
2, 21760, Note_on_c, 0, 60, 48
2, 21840, Note_on_c, 0, 60, 0
2, 21840, Note_on_c, 0, 58, 55
2, 22080, Note_on_c, 0, 58, 0
2, 22080, Note_on_c, 0, 57, 50
2, 22200, Note_on_c, 0, 57, 0
2, 22240, Note_on_c, 0, 57, 45
2, 22300, Note_on_c, 0, 57, 0
2, 22320, Note_on_c, 0, 60, 50
2, 22800, Note_on_c, 0, 60, 0
2, 22800, Note_on_c, 0, 58, 46
2, 23040, Note_on_c, 0, 58, 0
2, 23040, Note_on_c, 0, 67, 54
2, 23120, Note_on_c, 0, 67, 0
2, 23120, Note_on_c, 0, 75, 46
2, 23200, Note_on_c, 0, 75, 0
2, 23200, Note_on_c, 0, 79, 40
2, 23280, Note_on_c, 0, 79, 0
2, 23280, Note_on_c, 0, 67, 57
2, 23520, Note_on_c, 0, 67, 0
2, 23760, Note_on_c, 0, 68, 59
2, 23840, Note_on_c, 0, 68, 0
2, 23840, Note_on_c, 0, 75, 50
2, 23920, Note_on_c, 0, 75, 0
2, 23920, Note_on_c, 0, 80, 44
2, 24000, Note_on_c, 0, 80, 0
2, 24000, Note_on_c, 0, 68, 50
2, 24240, Note_on_c, 0, 68, 0
2, 24480, Note_on_c, 0, 66, 64
2, 24560, Note_on_c, 0, 66, 0
2, 24560, Note_on_c, 0, 72, 55
2, 24640, Note_on_c, 0, 72, 0
2, 24640, Note_on_c, 0, 78, 48
2, 24720, Note_on_c, 0, 78, 0
2, 24720, Note_on_c, 0, 66, 68
2, 24960, Note_on_c, 0, 66, 0
2, 25200, Note_on_c, 0, 67, 67
2, 25280, Note_on_c, 0, 67, 0
2, 25280, Note_on_c, 0, 74, 57
2, 25360, Note_on_c, 0, 74, 0
2, 25360, Note_on_c, 0, 79, 50
2, 25440, Note_on_c, 0, 79, 0
2, 25440, Note_on_c, 0, 67, 57
2, 25680, Note_on_c, 0, 67, 0
2, 25920, Note_on_c, 0, 63, 73
2, 26000, Note_on_c, 0, 63, 0
2, 26000, Note_on_c, 0, 67, 63
2, 26080, Note_on_c, 0, 67, 0
2, 26080, Note_on_c, 0, 75, 55
2, 26160, Note_on_c, 0, 75, 0
2, 26160, Note_on_c, 0, 63, 78
2, 26400, Note_on_c, 0, 63, 0
2, 26640, Note_on_c, 0, 60, 80
2, 26720, Note_on_c, 0, 60, 0
2, 26720, Note_on_c, 0, 67, 69
2, 26800, Note_on_c, 0, 67, 0
2, 26800, Note_on_c, 0, 72, 59
2, 26880, Note_on_c, 0, 72, 0
2, 26880, Note_on_c, 0, 60, 85
2, 27120, Note_on_c, 0, 60, 0
2, 27360, Note_on_c, 0, 62, 85
2, 27440, Note_on_c, 0, 62, 0
2, 27440, Note_on_c, 0, 67, 74
2, 27520, Note_on_c, 0, 67, 0
2, 27520, Note_on_c, 0, 62, 64
2, 27600, Note_on_c, 0, 62, 0
2, 27600, Note_on_c, 0, 61, 86
2, 27720, Note_on_c, 0, 61, 0
2, 27840, Note_on_c, 0, 62, 93
2, 27960, Note_on_c, 0, 62, 0
2, 28080, Note_on_c, 0, 67, 96
2, 28200, Note_on_c, 0, 67, 0
2, 28320, Note_on_c, 0, 67, 87
2, 28320, Note_on_c, 0, 70, 87
2, 28320, Note_on_c, 0, 79, 103
2, 28440, Note_on_c, 0, 79, 0
2, 28440, Note_on_c, 0, 70, 0
2, 28440, Note_on_c, 0, 67, 0
2, 28800, Note_on_c, 0, 86, 54
2, 28920, Note_on_c, 0, 86, 0
2, 29040, Note_on_c, 0, 74, 50
2, 29160, Note_on_c, 0, 74, 0
2, 29520, Note_on_c, 0, 79, 54
2, 29640, Note_on_c, 0, 79, 0
2, 29760, Note_on_c, 0, 67, 50
2, 29880, Note_on_c, 0, 67, 0
2, 30240, Note_on_c, 0, 74, 54
2, 30360, Note_on_c, 0, 74, 0
2, 30480, Note_on_c, 0, 62, 50
2, 30600, Note_on_c, 0, 62, 0
2, 30960, Note_on_c, 0, 74, 54
2, 31200, Note_on_c, 0, 71, 34
2, 31200, Note_on_c, 0, 67, 28
2, 31440, Note_on_c, 0, 67, 0
2, 31440, Note_on_c, 0, 71, 0
2, 31440, Note_on_c, 0, 71, 34
2, 31440, Note_on_c, 0, 67, 28
2, 31680, Note_on_c, 0, 67, 0
2, 31680, Note_on_c, 0, 71, 0
2, 31680, Note_on_c, 0, 74, 0
2, 31680, Note_on_c, 0, 76, 59
2, 31920, Note_on_c, 0, 71, 38
2, 31920, Note_on_c, 0, 67, 31
2, 32160, Note_on_c, 0, 67, 0
2, 32160, Note_on_c, 0, 71, 0
2, 32160, Note_on_c, 0, 71, 38
2, 32160, Note_on_c, 0, 67, 31
2, 32400, Note_on_c, 0, 67, 0
2, 32400, Note_on_c, 0, 71, 0
2, 32400, Note_on_c, 0, 76, 0
2, 32400, Note_on_c, 0, 76, 64
2, 32640, Note_on_c, 0, 69, 33
2, 32640, Note_on_c, 0, 66, 28
2, 32880, Note_on_c, 0, 66, 0
2, 32880, Note_on_c, 0, 69, 0
2, 32880, Note_on_c, 0, 69, 33
2, 32880, Note_on_c, 0, 66, 28
2, 33120, Note_on_c, 0, 66, 0
2, 33120, Note_on_c, 0, 69, 0
2, 33120, Note_on_c, 0, 76, 0
2, 33120, Note_on_c, 0, 74, 54
2, 33240, Note_on_c, 0, 74, 0
2, 33360, Note_on_c, 0, 74, 70
2, 33440, Note_on_c, 0, 74, 0
2, 33440, Note_on_c, 0, 81, 49
2, 33520, Note_on_c, 0, 81, 0
2, 33520, Note_on_c, 0, 86, 49
2, 33600, Note_on_c, 0, 86, 0
2, 33600, Note_on_c, 0, 74, 63
2, 33840, Note_on_c, 0, 74, 0
2, 33840, Note_on_c, 0, 74, 54
2, 34080, Note_on_c, 0, 67, 34
2, 34080, Note_on_c, 0, 64, 28
2, 34320, Note_on_c, 0, 64, 0
2, 34320, Note_on_c, 0, 67, 0
2, 34320, Note_on_c, 0, 67, 34
2, 34320, Note_on_c, 0, 64, 28
2, 34560, Note_on_c, 0, 64, 0
2, 34560, Note_on_c, 0, 67, 0
2, 34560, Note_on_c, 0, 74, 0
2, 34560, Note_on_c, 0, 72, 59
2, 34800, Note_on_c, 0, 67, 38
2, 34800, Note_on_c, 0, 64, 31
2, 35040, Note_on_c, 0, 72, 0
2, 35040, Note_on_c, 0, 74, 45
2, 35280, Note_on_c, 0, 74, 0
2, 35280, Note_on_c, 0, 64, 0
2, 35280, Note_on_c, 0, 67, 0
2, 35280, Note_on_c, 0, 72, 61
2, 35520, Note_on_c, 0, 66, 33
2, 35520, Note_on_c, 0, 63, 28
2, 35760, Note_on_c, 0, 63, 0
2, 35760, Note_on_c, 0, 66, 0
2, 35760, Note_on_c, 0, 66, 33
2, 35760, Note_on_c, 0, 63, 28
2, 36000, Note_on_c, 0, 63, 0
2, 36000, Note_on_c, 0, 66, 0
2, 36000, Note_on_c, 0, 72, 0
2, 36000, Note_on_c, 0, 71, 54
2, 36120, Note_on_c, 0, 71, 0
2, 36240, Note_on_c, 0, 71, 65
2, 36320, Note_on_c, 0, 71, 0
2, 36320, Note_on_c, 0, 78, 46
2, 36400, Note_on_c, 0, 78, 0
2, 36400, Note_on_c, 0, 83, 46
2, 36480, Note_on_c, 0, 83, 0
2, 36480, Note_on_c, 0, 71, 65
2, 36720, Note_on_c, 0, 71, 0
2, 36720, Note_on_c, 0, 71, 54
2, 36960, Note_on_c, 0, 67, 34
2, 36960, Note_on_c, 0, 62, 28
2, 37200, Note_on_c, 0, 62, 0
2, 37200, Note_on_c, 0, 67, 0
2, 37200, Note_on_c, 0, 67, 34
2, 37200, Note_on_c, 0, 62, 28
2, 37440, Note_on_c, 0, 62, 0
2, 37440, Note_on_c, 0, 67, 0
2, 37440, Note_on_c, 0, 71, 0
2, 37440, Note_on_c, 0, 67, 59
2, 37680, Note_on_c, 0, 62, 34
2, 37680, Note_on_c, 0, 59, 28
2, 37920, Note_on_c, 0, 59, 0
2, 37920, Note_on_c, 0, 62, 0
2, 37920, Note_on_c, 0, 62, 34
2, 37920, Note_on_c, 0, 59, 28
2, 38160, Note_on_c, 0, 59, 0
2, 38160, Note_on_c, 0, 62, 0
2, 38160, Note_on_c, 0, 67, 0
2, 38160, Note_on_c, 0, 69, 64
2, 38400, Note_on_c, 0, 63, 33
2, 38400, Note_on_c, 0, 67, 39
2, 38640, Note_on_c, 0, 67, 0
2, 38640, Note_on_c, 0, 63, 0
2, 38640, Note_on_c, 0, 63, 33
2, 38640, Note_on_c, 0, 67, 39
2, 38880, Note_on_c, 0, 67, 0
2, 38880, Note_on_c, 0, 63, 0
2, 38880, Note_on_c, 0, 69, 0
2, 38880, Note_on_c, 0, 72, 68
2, 39120, Note_on_c, 0, 67, 34
2, 39120, Note_on_c, 0, 69, 41
2, 39360, Note_on_c, 0, 69, 0
2, 39360, Note_on_c, 0, 67, 0
2, 39360, Note_on_c, 0, 67, 34
2, 39360, Note_on_c, 0, 69, 41
2, 39600, Note_on_c, 0, 69, 0
2, 39600, Note_on_c, 0, 67, 0
2, 39600, Note_on_c, 0, 72, 0
2, 39600, Note_on_c, 0, 71, 64
2, 39840, Note_on_c, 0, 62, 33
2, 39840, Note_on_c, 0, 67, 39
2, 40080, Note_on_c, 0, 67, 0
2, 40080, Note_on_c, 0, 62, 0
2, 40080, Note_on_c, 0, 62, 32
2, 40080, Note_on_c, 0, 67, 39
2, 40320, Note_on_c, 0, 67, 0
2, 40320, Note_on_c, 0, 62, 0
2, 40320, Note_on_c, 0, 71, 0
2, 40320, Note_on_c, 0, 69, 63
2, 40560, Note_on_c, 0, 62, 34
2, 40560, Note_on_c, 0, 60, 29
2, 40800, Note_on_c, 0, 60, 0
2, 40800, Note_on_c, 0, 62, 0
2, 40800, Note_on_c, 0, 62, 34
2, 40800, Note_on_c, 0, 60, 28
2, 41040, Note_on_c, 0, 60, 0
2, 41040, Note_on_c, 0, 62, 0
2, 41040, Note_on_c, 0, 69, 0
2, 41040, Note_on_c, 0, 67, 63
2, 41280, Note_on_c, 0, 59, 27
2, 41280, Note_on_c, 0, 62, 32
2, 41520, Note_on_c, 0, 62, 0
2, 41520, Note_on_c, 0, 59, 0
2, 41520, Note_on_c, 0, 59, 25
2, 41520, Note_on_c, 0, 62, 30
2, 41760, Note_on_c, 0, 62, 0
2, 41760, Note_on_c, 0, 59, 0
2, 41760, Note_on_c, 0, 67, 0
2, 41760, Note_on_c, 0, 62, 28
2, 41760, Note_on_c, 0, 59, 22
2, 42000, Note_on_c, 0, 59, 0
2, 42000, Note_on_c, 0, 62, 0
2, 42000, Note_on_c, 0, 62, 25
2, 42000, Note_on_c, 0, 59, 22
2, 42240, Note_on_c, 0, 59, 0
2, 42240, Note_on_c, 0, 62, 0
2, 42240, Note_on_c, 0, 62, 22
2, 42240, Note_on_c, 0, 59, 19
2, 42480, Note_on_c, 0, 59, 0
2, 42480, Note_on_c, 0, 62, 0
2, 42480, Note_on_c, 0, 74, 54
2, 42720, Note_on_c, 0, 71, 34
2, 42720, Note_on_c, 0, 67, 28
2, 42960, Note_on_c, 0, 67, 0
2, 42960, Note_on_c, 0, 71, 0
2, 42960, Note_on_c, 0, 71, 34
2, 42960, Note_on_c, 0, 67, 28
2, 43200, Note_on_c, 0, 67, 0
2, 43200, Note_on_c, 0, 71, 0
2, 43200, Note_on_c, 0, 74, 0
2, 43200, Note_on_c, 0, 76, 59
2, 43440, Note_on_c, 0, 71, 38
2, 43440, Note_on_c, 0, 67, 31
2, 43680, Note_on_c, 0, 67, 0
2, 43680, Note_on_c, 0, 71, 0
2, 43680, Note_on_c, 0, 71, 38
2, 43680, Note_on_c, 0, 67, 31
2, 43920, Note_on_c, 0, 67, 0
2, 43920, Note_on_c, 0, 71, 0
2, 43920, Note_on_c, 0, 76, 0
2, 43920, Note_on_c, 0, 76, 64
2, 44160, Note_on_c, 0, 69, 33
2, 44160, Note_on_c, 0, 66, 28
2, 44400, Note_on_c, 0, 66, 0
2, 44400, Note_on_c, 0, 69, 0
2, 44400, Note_on_c, 0, 69, 33
2, 44400, Note_on_c, 0, 66, 28
2, 44640, Note_on_c, 0, 66, 0
2, 44640, Note_on_c, 0, 69, 0
2, 44640, Note_on_c, 0, 76, 0
2, 44640, Note_on_c, 0, 74, 54
2, 44760, Note_on_c, 0, 74, 0
2, 44880, Note_on_c, 0, 74, 68
2, 44960, Note_on_c, 0, 74, 0
2, 44960, Note_on_c, 0, 81, 49
2, 45040, Note_on_c, 0, 81, 0
2, 45040, Note_on_c, 0, 86, 49
2, 45120, Note_on_c, 0, 86, 0
2, 45120, Note_on_c, 0, 74, 63
2, 45360, Note_on_c, 0, 74, 0
2, 45360, Note_on_c, 0, 74, 54
2, 45600, Note_on_c, 0, 67, 34
2, 45600, Note_on_c, 0, 64, 28
2, 45840, Note_on_c, 0, 64, 0
2, 45840, Note_on_c, 0, 67, 0
2, 45840, Note_on_c, 0, 67, 34
2, 45840, Note_on_c, 0, 64, 28
2, 46080, Note_on_c, 0, 64, 0
2, 46080, Note_on_c, 0, 67, 0
2, 46080, Note_on_c, 0, 74, 0
2, 46080, Note_on_c, 0, 72, 59
2, 46320, Note_on_c, 0, 67, 38
2, 46320, Note_on_c, 0, 64, 31
2, 46560, Note_on_c, 0, 72, 0
2, 46560, Note_on_c, 0, 74, 45
2, 46800, Note_on_c, 0, 74, 0
2, 46800, Note_on_c, 0, 64, 0
2, 46800, Note_on_c, 0, 67, 0
2, 46800, Note_on_c, 0, 72, 61
2, 47040, Note_on_c, 0, 66, 33
2, 47040, Note_on_c, 0, 63, 28
2, 47280, Note_on_c, 0, 63, 0
2, 47280, Note_on_c, 0, 66, 0
2, 47280, Note_on_c, 0, 66, 33
2, 47280, Note_on_c, 0, 63, 28
2, 47520, Note_on_c, 0, 63, 0
2, 47520, Note_on_c, 0, 66, 0
2, 47520, Note_on_c, 0, 72, 0
2, 47520, Note_on_c, 0, 71, 54
2, 47640, Note_on_c, 0, 71, 0
2, 47760, Note_on_c, 0, 71, 66
2, 47840, Note_on_c, 0, 71, 0
2, 47840, Note_on_c, 0, 78, 46
2, 47920, Note_on_c, 0, 78, 0
2, 47920, Note_on_c, 0, 83, 46
2, 48000, Note_on_c, 0, 83, 0
2, 48000, Note_on_c, 0, 71, 65
2, 48240, Note_on_c, 0, 71, 0
2, 48240, Note_on_c, 0, 71, 54
2, 48480, Note_on_c, 0, 67, 34
2, 48480, Note_on_c, 0, 62, 28
2, 48720, Note_on_c, 0, 62, 0
2, 48720, Note_on_c, 0, 67, 0
2, 48720, Note_on_c, 0, 67, 34
2, 48720, Note_on_c, 0, 62, 28
2, 48960, Note_on_c, 0, 62, 0
2, 48960, Note_on_c, 0, 67, 0
2, 48960, Note_on_c, 0, 71, 0
2, 48960, Note_on_c, 0, 67, 59
2, 49200, Note_on_c, 0, 62, 34
2, 49200, Note_on_c, 0, 59, 28
2, 49440, Note_on_c, 0, 59, 0
2, 49440, Note_on_c, 0, 62, 0
2, 49440, Note_on_c, 0, 62, 34
2, 49440, Note_on_c, 0, 59, 28
2, 49680, Note_on_c, 0, 59, 0
2, 49680, Note_on_c, 0, 62, 0
2, 49680, Note_on_c, 0, 67, 0
2, 49680, Note_on_c, 0, 69, 64
2, 49920, Note_on_c, 0, 63, 33
2, 49920, Note_on_c, 0, 67, 39
2, 50160, Note_on_c, 0, 67, 0
2, 50160, Note_on_c, 0, 63, 0
2, 50160, Note_on_c, 0, 63, 33
2, 50160, Note_on_c, 0, 67, 39
2, 50400, Note_on_c, 0, 67, 0
2, 50400, Note_on_c, 0, 63, 0
2, 50400, Note_on_c, 0, 69, 0
2, 50400, Note_on_c, 0, 72, 68
2, 50640, Note_on_c, 0, 67, 34
2, 50640, Note_on_c, 0, 69, 41
2, 50880, Note_on_c, 0, 69, 0
2, 50880, Note_on_c, 0, 67, 0
2, 50880, Note_on_c, 0, 67, 34
2, 50880, Note_on_c, 0, 69, 41
2, 51120, Note_on_c, 0, 69, 0
2, 51120, Note_on_c, 0, 67, 0
2, 51120, Note_on_c, 0, 72, 0
2, 51120, Note_on_c, 0, 71, 64
2, 51360, Note_on_c, 0, 62, 33
2, 51360, Note_on_c, 0, 67, 39
2, 51600, Note_on_c, 0, 67, 0
2, 51600, Note_on_c, 0, 62, 0
2, 51600, Note_on_c, 0, 62, 32
2, 51600, Note_on_c, 0, 67, 39
2, 51840, Note_on_c, 0, 67, 0
2, 51840, Note_on_c, 0, 62, 0
2, 51840, Note_on_c, 0, 71, 0
2, 51840, Note_on_c, 0, 69, 63
2, 52080, Note_on_c, 0, 62, 34
2, 52080, Note_on_c, 0, 60, 29
2, 52320, Note_on_c, 0, 60, 0
2, 52320, Note_on_c, 0, 62, 0
2, 52320, Note_on_c, 0, 62, 34
2, 52320, Note_on_c, 0, 60, 28
2, 52560, Note_on_c, 0, 60, 0
2, 52560, Note_on_c, 0, 62, 0
2, 52560, Note_on_c, 0, 69, 0
2, 52560, Note_on_c, 0, 67, 63
2, 52800, Note_on_c, 0, 59, 27
2, 52800, Note_on_c, 0, 62, 32
2, 53040, Note_on_c, 0, 62, 0
2, 53040, Note_on_c, 0, 59, 0
2, 53040, Note_on_c, 0, 59, 25
2, 53040, Note_on_c, 0, 62, 30
2, 53280, Note_on_c, 0, 62, 0
2, 53280, Note_on_c, 0, 59, 0
2, 53280, Note_on_c, 0, 67, 0
2, 53520, Note_on_c, 0, 55, 51
2, 53520, Note_on_c, 0, 67, 61
2, 53640, Note_on_c, 0, 67, 0
2, 53640, Note_on_c, 0, 55, 0
2, 53760, Note_on_c, 0, 55, 43
2, 53760, Note_on_c, 0, 67, 52
2, 53880, Note_on_c, 0, 67, 0
2, 53880, Note_on_c, 0, 55, 0
2, 54000, Note_on_c, 0, 67, 65
2, 54000, Note_on_c, 0, 55, 55
2, 54120, Note_on_c, 0, 55, 0
2, 54120, Note_on_c, 0, 67, 0
2, 54240, Note_on_c, 0, 55, 48
2, 54240, Note_on_c, 0, 67, 58
2, 54360, Note_on_c, 0, 67, 0
2, 54360, Note_on_c, 0, 55, 0
2, 54480, Note_on_c, 0, 55, 40
2, 54480, Note_on_c, 0, 67, 47
2, 54600, Note_on_c, 0, 67, 0
2, 54600, Note_on_c, 0, 55, 0
2, 54720, Note_on_c, 0, 63, 49
2, 54960, Note_on_c, 0, 55, 48
2, 54960, Note_on_c, 0, 67, 57
2, 55080, Note_on_c, 0, 67, 0
2, 55080, Note_on_c, 0, 55, 0
2, 55200, Note_on_c, 0, 55, 41
2, 55200, Note_on_c, 0, 67, 48
2, 55320, Note_on_c, 0, 67, 0
2, 55320, Note_on_c, 0, 55, 0
2, 55440, Note_on_c, 0, 63, 0
2, 55440, Note_on_c, 0, 62, 53
2, 55680, Note_on_c, 0, 55, 45
2, 55680, Note_on_c, 0, 67, 53
2, 55800, Note_on_c, 0, 67, 0
2, 55800, Note_on_c, 0, 55, 0
2, 55920, Note_on_c, 0, 67, 41
2, 55920, Note_on_c, 0, 55, 35
2, 56040, Note_on_c, 0, 55, 0
2, 56040, Note_on_c, 0, 67, 0
2, 56160, Note_on_c, 0, 62, 0
2, 56160, Note_on_c, 0, 60, 54
2, 56400, Note_on_c, 0, 67, 48
2, 56400, Note_on_c, 0, 55, 41
2, 56520, Note_on_c, 0, 55, 0
2, 56520, Note_on_c, 0, 67, 0
2, 56640, Note_on_c, 0, 67, 41
2, 56640, Note_on_c, 0, 55, 35
2, 56760, Note_on_c, 0, 55, 0
2, 56760, Note_on_c, 0, 67, 0
2, 56880, Note_on_c, 0, 60, 0
2, 56880, Note_on_c, 0, 67, 68
2, 56880, Note_on_c, 0, 58, 56
2, 56880, Note_on_c, 0, 55, 56
2, 57120, Note_on_c, 0, 55, 0
2, 57120, Note_on_c, 0, 58, 0
2, 57120, Note_on_c, 0, 67, 0
2, 57600, Note_on_c, 0, 62, 47
2, 57600, Note_on_c, 0, 57, 39
2, 57600, Note_on_c, 0, 54, 39
2, 57840, Note_on_c, 0, 54, 0
2, 57840, Note_on_c, 0, 57, 0
2, 57840, Note_on_c, 0, 62, 0
2, 58320, Note_on_c, 0, 55, 39
2, 58560, Note_on_c, 0, 55, 0
2, 59040, Note_on_c, 0, 86, 54
2, 59120, Note_on_c, 0, 86, 0
2, 59120, Note_on_c, 0, 94, 46
2, 59200, Note_on_c, 0, 94, 0
2, 59200, Note_on_c, 0, 98, 40
2, 59280, Note_on_c, 0, 98, 0
2, 59280, Note_on_c, 0, 86, 50
2, 59520, Note_on_c, 0, 86, 0
2, 59520, Note_on_c, 0, 74, 54
2, 59600, Note_on_c, 0, 74, 0
2, 59600, Note_on_c, 0, 82, 46
2, 59680, Note_on_c, 0, 82, 0
2, 59680, Note_on_c, 0, 86, 40
2, 59760, Note_on_c, 0, 86, 0
2, 59760, Note_on_c, 0, 74, 59
2, 60000, Note_on_c, 0, 74, 0
2, 60240, Note_on_c, 0, 72, 50
2, 60360, Note_on_c, 0, 72, 0
2, 60360, Note_on_c, 0, 70, 49
2, 60420, Note_on_c, 0, 70, 0
2, 60420, Note_on_c, 0, 72, 49
2, 60480, Note_on_c, 0, 72, 0
2, 60480, Note_on_c, 0, 70, 58
2, 60720, Note_on_c, 0, 70, 0
2, 60960, Note_on_c, 0, 69, 49
2, 61080, Note_on_c, 0, 69, 0
2, 61140, Note_on_c, 0, 69, 42
2, 61200, Note_on_c, 0, 69, 0
2, 61200, Note_on_c, 0, 72, 50
2, 61680, Note_on_c, 0, 72, 0
2, 61680, Note_on_c, 0, 70, 46
2, 61920, Note_on_c, 0, 70, 0
2, 61920, Note_on_c, 0, 79, 54
2, 62000, Note_on_c, 0, 79, 0
2, 62000, Note_on_c, 0, 86, 46
2, 62080, Note_on_c, 0, 86, 0
2, 62080, Note_on_c, 0, 91, 40
2, 62160, Note_on_c, 0, 91, 0
2, 62160, Note_on_c, 0, 79, 50
2, 62400, Note_on_c, 0, 79, 0
2, 62400, Note_on_c, 0, 67, 54
2, 62480, Note_on_c, 0, 67, 0
2, 62480, Note_on_c, 0, 74, 46
2, 62560, Note_on_c, 0, 74, 0
2, 62560, Note_on_c, 0, 79, 40
2, 62640, Note_on_c, 0, 79, 0
2, 62640, Note_on_c, 0, 67, 59
2, 62880, Note_on_c, 0, 67, 0
2, 63120, Note_on_c, 0, 63, 50
2, 63360, Note_on_c, 0, 63, 0
2, 63360, Note_on_c, 0, 62, 58
2, 63600, Note_on_c, 0, 62, 0
2, 63600, Note_on_c, 0, 70, 54
2, 63840, Note_on_c, 0, 70, 0
2, 63840, Note_on_c, 0, 69, 49
2, 63957, Note_on_c, 0, 69, 0
2, 63960, Note_on_c, 0, 69, 42
2, 64000, Note_on_c, 0, 70, 42
2, 64020, Note_on_c, 0, 69, 0
2, 64060, Note_on_c, 0, 70, 0
2, 64080, Note_on_c, 0, 69, 50
2, 64560, Note_on_c, 0, 69, 0
2, 64560, Note_on_c, 0, 67, 46
2, 64800, Note_on_c, 0, 67, 0
2, 64800, Note_on_c, 0, 86, 54
2, 64880, Note_on_c, 0, 86, 0
2, 64880, Note_on_c, 0, 94, 46
2, 64960, Note_on_c, 0, 94, 0
2, 64960, Note_on_c, 0, 98, 40
2, 65040, Note_on_c, 0, 98, 0
2, 65040, Note_on_c, 0, 86, 50
2, 65280, Note_on_c, 0, 86, 0
2, 65280, Note_on_c, 0, 74, 54
2, 65360, Note_on_c, 0, 74, 0
2, 65360, Note_on_c, 0, 82, 46
2, 65440, Note_on_c, 0, 82, 0
2, 65440, Note_on_c, 0, 86, 40
2, 65520, Note_on_c, 0, 86, 0
2, 65520, Note_on_c, 0, 74, 59
2, 65760, Note_on_c, 0, 74, 0
2, 66000, Note_on_c, 0, 72, 50
2, 66120, Note_on_c, 0, 72, 0
2, 66120, Note_on_c, 0, 70, 49
2, 66180, Note_on_c, 0, 70, 0
2, 66180, Note_on_c, 0, 72, 49
2, 66240, Note_on_c, 0, 72, 0
2, 66240, Note_on_c, 0, 70, 58
2, 66480, Note_on_c, 0, 70, 0
2, 66720, Note_on_c, 0, 69, 49
2, 66840, Note_on_c, 0, 69, 0
2, 66900, Note_on_c, 0, 69, 42
2, 66960, Note_on_c, 0, 69, 0
2, 66960, Note_on_c, 0, 72, 50
2, 67440, Note_on_c, 0, 72, 0
2, 67440, Note_on_c, 0, 70, 46
2, 67680, Note_on_c, 0, 70, 0
2, 67680, Note_on_c, 0, 79, 54
2, 67760, Note_on_c, 0, 79, 0
2, 67760, Note_on_c, 0, 86, 46
2, 67840, Note_on_c, 0, 86, 0
2, 67840, Note_on_c, 0, 91, 40
2, 67920, Note_on_c, 0, 91, 0
2, 67920, Note_on_c, 0, 79, 50
2, 68160, Note_on_c, 0, 79, 0
2, 68160, Note_on_c, 0, 67, 54
2, 68240, Note_on_c, 0, 67, 0
2, 68240, Note_on_c, 0, 74, 46
2, 68320, Note_on_c, 0, 74, 0
2, 68320, Note_on_c, 0, 79, 40
2, 68400, Note_on_c, 0, 79, 0
2, 68400, Note_on_c, 0, 67, 59
2, 68640, Note_on_c, 0, 67, 0
2, 68880, Note_on_c, 0, 63, 50
2, 69120, Note_on_c, 0, 63, 0
2, 69120, Note_on_c, 0, 62, 58
2, 69360, Note_on_c, 0, 62, 0
2, 69360, Note_on_c, 0, 70, 54
2, 69600, Note_on_c, 0, 70, 0
2, 69600, Note_on_c, 0, 69, 49
2, 69717, Note_on_c, 0, 69, 0
2, 69720, Note_on_c, 0, 69, 42
2, 69760, Note_on_c, 0, 70, 42
2, 69780, Note_on_c, 0, 69, 0
2, 69820, Note_on_c, 0, 70, 0
2, 69840, Note_on_c, 0, 69, 50
2, 70320, Note_on_c, 0, 69, 0
2, 70320, Note_on_c, 0, 67, 46
2, 70560, Note_on_c, 0, 67, 0
2, 70560, Note_on_c, 0, 77, 54
2, 70640, Note_on_c, 0, 77, 0
2, 70640, Note_on_c, 0, 82, 46
2, 70720, Note_on_c, 0, 82, 0
2, 70720, Note_on_c, 0, 89, 40
2, 70800, Note_on_c, 0, 89, 0
2, 70800, Note_on_c, 0, 77, 50
2, 71040, Note_on_c, 0, 77, 0
2, 71040, Note_on_c, 0, 65, 54
2, 71120, Note_on_c, 0, 65, 0
2, 71120, Note_on_c, 0, 74, 46
2, 71200, Note_on_c, 0, 74, 0
2, 71200, Note_on_c, 0, 77, 40
2, 71280, Note_on_c, 0, 77, 0
2, 71280, Note_on_c, 0, 65, 59
2, 71520, Note_on_c, 0, 65, 0
2, 71760, Note_on_c, 0, 63, 50
2, 71880, Note_on_c, 0, 63, 0
2, 72000, Note_on_c, 0, 63, 58
2, 72080, Note_on_c, 0, 63, 0
2, 72080, Note_on_c, 0, 65, 48
2, 72160, Note_on_c, 0, 65, 0
2, 72160, Note_on_c, 0, 63, 48
2, 72240, Note_on_c, 0, 63, 0
2, 72240, Note_on_c, 0, 62, 55
2, 72480, Note_on_c, 0, 62, 0
2, 72480, Note_on_c, 0, 60, 50
2, 72600, Note_on_c, 0, 60, 0
2, 72660, Note_on_c, 0, 60, 45
2, 72720, Note_on_c, 0, 60, 0
2, 72720, Note_on_c, 0, 63, 50
2, 73200, Note_on_c, 0, 63, 0
2, 73200, Note_on_c, 0, 62, 46
2, 73440, Note_on_c, 0, 62, 0
2, 73440, Note_on_c, 0, 74, 54
2, 73520, Note_on_c, 0, 74, 0
2, 73520, Note_on_c, 0, 79, 46
2, 73600, Note_on_c, 0, 79, 0
2, 73600, Note_on_c, 0, 86, 40
2, 73680, Note_on_c, 0, 86, 0
2, 73680, Note_on_c, 0, 74, 50
2, 73920, Note_on_c, 0, 74, 0
2, 73920, Note_on_c, 0, 62, 54
2, 74000, Note_on_c, 0, 62, 0
2, 74000, Note_on_c, 0, 67, 46
2, 74080, Note_on_c, 0, 67, 0
2, 74080, Note_on_c, 0, 74, 40
2, 74160, Note_on_c, 0, 74, 0
2, 74160, Note_on_c, 0, 62, 59
2, 74400, Note_on_c, 0, 62, 0
2, 74640, Note_on_c, 0, 60, 50
2, 74760, Note_on_c, 0, 60, 0
2, 74880, Note_on_c, 0, 60, 58
2, 74960, Note_on_c, 0, 60, 0
2, 74960, Note_on_c, 0, 62, 48
2, 75040, Note_on_c, 0, 62, 0
2, 75040, Note_on_c, 0, 60, 48
2, 75120, Note_on_c, 0, 60, 0
2, 75120, Note_on_c, 0, 58, 55
2, 75360, Note_on_c, 0, 58, 0
2, 75360, Note_on_c, 0, 57, 50
2, 75480, Note_on_c, 0, 57, 0
2, 75520, Note_on_c, 0, 57, 45
2, 75580, Note_on_c, 0, 57, 0
2, 75600, Note_on_c, 0, 60, 50
2, 76080, Note_on_c, 0, 60, 0
2, 76080, Note_on_c, 0, 58, 46
2, 76320, Note_on_c, 0, 58, 0
2, 76320, Note_on_c, 0, 67, 54
2, 76400, Note_on_c, 0, 67, 0
2, 76400, Note_on_c, 0, 75, 46
2, 76480, Note_on_c, 0, 75, 0
2, 76480, Note_on_c, 0, 79, 40
2, 76560, Note_on_c, 0, 79, 0
2, 76560, Note_on_c, 0, 67, 57
2, 76800, Note_on_c, 0, 67, 0
2, 77040, Note_on_c, 0, 68, 59
2, 77120, Note_on_c, 0, 68, 0
2, 77120, Note_on_c, 0, 75, 50
2, 77200, Note_on_c, 0, 75, 0
2, 77200, Note_on_c, 0, 80, 44
2, 77280, Note_on_c, 0, 80, 0
2, 77280, Note_on_c, 0, 68, 50
2, 77520, Note_on_c, 0, 68, 0
2, 77760, Note_on_c, 0, 66, 64
2, 77840, Note_on_c, 0, 66, 0
2, 77840, Note_on_c, 0, 72, 55
2, 77920, Note_on_c, 0, 72, 0
2, 77920, Note_on_c, 0, 78, 48
2, 78000, Note_on_c, 0, 78, 0
2, 78000, Note_on_c, 0, 66, 68
2, 78240, Note_on_c, 0, 66, 0
2, 78480, Note_on_c, 0, 67, 67
2, 78560, Note_on_c, 0, 67, 0
2, 78560, Note_on_c, 0, 74, 57
2, 78640, Note_on_c, 0, 74, 0
2, 78640, Note_on_c, 0, 79, 50
2, 78720, Note_on_c, 0, 79, 0
2, 78720, Note_on_c, 0, 67, 57
2, 78960, Note_on_c, 0, 67, 0
2, 79200, Note_on_c, 0, 63, 73
2, 79280, Note_on_c, 0, 63, 0
2, 79280, Note_on_c, 0, 67, 63
2, 79360, Note_on_c, 0, 67, 0
2, 79360, Note_on_c, 0, 75, 55
2, 79440, Note_on_c, 0, 75, 0
2, 79440, Note_on_c, 0, 63, 78
2, 79680, Note_on_c, 0, 63, 0
2, 79920, Note_on_c, 0, 60, 80
2, 80000, Note_on_c, 0, 60, 0
2, 80000, Note_on_c, 0, 67, 69
2, 80080, Note_on_c, 0, 67, 0
2, 80080, Note_on_c, 0, 72, 59
2, 80160, Note_on_c, 0, 72, 0
2, 80160, Note_on_c, 0, 60, 85
2, 80400, Note_on_c, 0, 60, 0
2, 80640, Note_on_c, 0, 62, 85
2, 80720, Note_on_c, 0, 62, 0
2, 80720, Note_on_c, 0, 67, 74
2, 80800, Note_on_c, 0, 67, 0
2, 80800, Note_on_c, 0, 62, 64
2, 80880, Note_on_c, 0, 62, 0
2, 80880, Note_on_c, 0, 61, 86
2, 81000, Note_on_c, 0, 61, 0
2, 81120, Note_on_c, 0, 62, 93
2, 81240, Note_on_c, 0, 62, 0
2, 81360, Note_on_c, 0, 67, 96
2, 81480, Note_on_c, 0, 67, 0
2, 81600, Note_on_c, 0, 67, 87
2, 81600, Note_on_c, 0, 70, 87
2, 81600, Note_on_c, 0, 79, 103
2, 81720, Note_on_c, 0, 79, 0
2, 81720, Note_on_c, 0, 70, 0
2, 81720, Note_on_c, 0, 67, 0
2, 81720, End_track
3, 0, Start_track
3, 0, Title_t, "Piano left"
3, 0, Program_c, 0, 0
3, 0, Control_c, 0, 7, 127
3, 0, Control_c, 0, 10, 64
3, 0, Note_on_c, 0, 67, 37
3, 240, Note_on_c, 0, 67, 0
3, 480, Note_on_c, 0, 67, 38
3, 600, Note_on_c, 0, 67, 0
3, 720, Note_on_c, 0, 66, 46
3, 960, Note_on_c, 0, 66, 0
3, 1200, Note_on_c, 0, 66, 38
3, 1320, Note_on_c, 0, 66, 0
3, 1440, Note_on_c, 0, 65, 46
3, 1680, Note_on_c, 0, 65, 0
3, 1920, Note_on_c, 0, 65, 37
3, 2040, Note_on_c, 0, 65, 0
3, 2160, Note_on_c, 0, 64, 45
3, 2400, Note_on_c, 0, 64, 0
3, 2640, Note_on_c, 0, 64, 40
3, 2760, Note_on_c, 0, 64, 0
3, 2880, Note_on_c, 0, 63, 47
3, 3120, Note_on_c, 0, 63, 0
3, 3360, Note_on_c, 0, 63, 34
3, 3540, Note_on_c, 0, 63, 0
3, 3540, Note_on_c, 0, 60, 41
3, 3550, Note_on_c, 0, 67, 44
3, 3560, Note_on_c, 0, 69, 45
3, 3840, Note_on_c, 0, 69, 0
3, 3840, Note_on_c, 0, 67, 0
3, 3840, Note_on_c, 0, 60, 0
3, 4320, Note_on_c, 0, 50, 31
3, 4320, Note_on_c, 0, 57, 31
3, 4320, Note_on_c, 0, 60, 37
3, 4560, Note_on_c, 0, 60, 0
3, 4560, Note_on_c, 0, 57, 0
3, 4560, Note_on_c, 0, 50, 0
3, 4800, Note_on_c, 0, 38, 31
3, 4800, Note_on_c, 0, 50, 31
3, 4920, Note_on_c, 0, 50, 0
3, 4920, Note_on_c, 0, 38, 0
3, 5040, Note_on_c, 0, 43, 31
3, 5040, Note_on_c, 0, 55, 31
3, 5280, Note_on_c, 0, 55, 0
3, 5280, Note_on_c, 0, 43, 0
3, 5760, Note_on_c, 0, 55, 37
3, 6000, Note_on_c, 0, 58, 26
3, 6000, Note_on_c, 0, 62, 31
3, 6180, Note_on_c, 0, 62, 0
3, 6180, Note_on_c, 0, 58, 0
3, 6240, Note_on_c, 0, 58, 26
3, 6240, Note_on_c, 0, 62, 31
3, 6420, Note_on_c, 0, 62, 0
3, 6420, Note_on_c, 0, 58, 0
3, 6480, Note_on_c, 0, 55, 0
3, 6480, Note_on_c, 0, 55, 37
3, 6720, Note_on_c, 0, 57, 26
3, 6720, Note_on_c, 0, 60, 26
3, 6720, Note_on_c, 0, 63, 31
3, 6900, Note_on_c, 0, 63, 0
3, 6900, Note_on_c, 0, 60, 0
3, 6900, Note_on_c, 0, 57, 0
3, 6960, Note_on_c, 0, 57, 26
3, 6960, Note_on_c, 0, 60, 26
3, 6960, Note_on_c, 0, 63, 31
3, 7140, Note_on_c, 0, 63, 0
3, 7140, Note_on_c, 0, 60, 0
3, 7140, Note_on_c, 0, 57, 0
3, 7200, Note_on_c, 0, 55, 0
3, 7200, Note_on_c, 0, 54, 37
3, 7440, Note_on_c, 0, 60, 26
3, 7440, Note_on_c, 0, 62, 31
3, 7620, Note_on_c, 0, 62, 0
3, 7620, Note_on_c, 0, 60, 0
3, 7680, Note_on_c, 0, 60, 26
3, 7680, Note_on_c, 0, 62, 31
3, 7860, Note_on_c, 0, 62, 0
3, 7860, Note_on_c, 0, 60, 0
3, 7920, Note_on_c, 0, 54, 0
3, 7920, Note_on_c, 0, 55, 37
3, 8160, Note_on_c, 0, 62, 31
3, 8160, Note_on_c, 0, 58, 26
3, 8340, Note_on_c, 0, 58, 0
3, 8340, Note_on_c, 0, 62, 0
3, 8400, Note_on_c, 0, 58, 26
3, 8400, Note_on_c, 0, 62, 31
3, 8580, Note_on_c, 0, 62, 0
3, 8580, Note_on_c, 0, 58, 0
3, 8640, Note_on_c, 0, 55, 0
3, 8640, Note_on_c, 0, 46, 37
3, 8880, Note_on_c, 0, 50, 26
3, 8880, Note_on_c, 0, 55, 31
3, 9060, Note_on_c, 0, 55, 0
3, 9060, Note_on_c, 0, 50, 0
3, 9120, Note_on_c, 0, 50, 26
3, 9120, Note_on_c, 0, 55, 31
3, 9300, Note_on_c, 0, 55, 0
3, 9300, Note_on_c, 0, 50, 0
3, 9360, Note_on_c, 0, 46, 0
3, 9360, Note_on_c, 0, 48, 37
3, 9600, Note_on_c, 0, 55, 26
3, 9600, Note_on_c, 0, 57, 31
3, 9780, Note_on_c, 0, 57, 0
3, 9780, Note_on_c, 0, 55, 0
3, 9840, Note_on_c, 0, 55, 26
3, 9840, Note_on_c, 0, 57, 31
3, 10020, Note_on_c, 0, 57, 0
3, 10020, Note_on_c, 0, 55, 0
3, 10080, Note_on_c, 0, 48, 0
3, 10080, Note_on_c, 0, 55, 37
3, 10320, Note_on_c, 0, 54, 26
3, 10320, Note_on_c, 0, 60, 31
3, 10500, Note_on_c, 0, 60, 0
3, 10500, Note_on_c, 0, 54, 0
3, 10560, Note_on_c, 0, 54, 26
3, 10560, Note_on_c, 0, 60, 31
3, 10740, Note_on_c, 0, 60, 0
3, 10740, Note_on_c, 0, 54, 0
3, 10800, Note_on_c, 0, 55, 0
3, 10800, Note_on_c, 0, 55, 37
3, 11040, Note_on_c, 0, 62, 31
3, 11040, Note_on_c, 0, 58, 26
3, 11220, Note_on_c, 0, 58, 0
3, 11220, Note_on_c, 0, 62, 0
3, 11280, Note_on_c, 0, 58, 26
3, 11280, Note_on_c, 0, 62, 31
3, 11460, Note_on_c, 0, 62, 0
3, 11460, Note_on_c, 0, 58, 0
3, 11520, Note_on_c, 0, 55, 0
3, 11520, Note_on_c, 0, 55, 37
3, 11760, Note_on_c, 0, 58, 26
3, 11760, Note_on_c, 0, 62, 31
3, 11940, Note_on_c, 0, 62, 0
3, 11940, Note_on_c, 0, 58, 0
3, 12000, Note_on_c, 0, 58, 26
3, 12000, Note_on_c, 0, 62, 31
3, 12180, Note_on_c, 0, 62, 0
3, 12180, Note_on_c, 0, 58, 0
3, 12240, Note_on_c, 0, 55, 0
3, 12240, Note_on_c, 0, 55, 37
3, 12480, Note_on_c, 0, 57, 26
3, 12480, Note_on_c, 0, 60, 26
3, 12480, Note_on_c, 0, 63, 31
3, 12660, Note_on_c, 0, 63, 0
3, 12660, Note_on_c, 0, 60, 0
3, 12660, Note_on_c, 0, 57, 0
3, 12720, Note_on_c, 0, 57, 26
3, 12720, Note_on_c, 0, 60, 26
3, 12720, Note_on_c, 0, 63, 31
3, 12900, Note_on_c, 0, 63, 0
3, 12900, Note_on_c, 0, 60, 0
3, 12900, Note_on_c, 0, 57, 0
3, 12960, Note_on_c, 0, 55, 0
3, 12960, Note_on_c, 0, 54, 37
3, 13200, Note_on_c, 0, 60, 26
3, 13200, Note_on_c, 0, 62, 31
3, 13380, Note_on_c, 0, 62, 0
3, 13380, Note_on_c, 0, 60, 0
3, 13440, Note_on_c, 0, 60, 26
3, 13440, Note_on_c, 0, 62, 31
3, 13620, Note_on_c, 0, 62, 0
3, 13620, Note_on_c, 0, 60, 0
3, 13680, Note_on_c, 0, 54, 0
3, 13680, Note_on_c, 0, 55, 37
3, 13920, Note_on_c, 0, 62, 31
3, 13920, Note_on_c, 0, 58, 26
3, 14100, Note_on_c, 0, 58, 0
3, 14100, Note_on_c, 0, 62, 0
3, 14160, Note_on_c, 0, 58, 26
3, 14160, Note_on_c, 0, 62, 31
3, 14340, Note_on_c, 0, 62, 0
3, 14340, Note_on_c, 0, 58, 0
3, 14400, Note_on_c, 0, 55, 0
3, 14400, Note_on_c, 0, 46, 37
3, 14640, Note_on_c, 0, 50, 26
3, 14640, Note_on_c, 0, 55, 31
3, 14820, Note_on_c, 0, 55, 0
3, 14820, Note_on_c, 0, 50, 0
3, 14880, Note_on_c, 0, 50, 26
3, 14880, Note_on_c, 0, 55, 31
3, 15060, Note_on_c, 0, 55, 0
3, 15060, Note_on_c, 0, 50, 0
3, 15120, Note_on_c, 0, 46, 0
3, 15120, Note_on_c, 0, 48, 37
3, 15360, Note_on_c, 0, 55, 26
3, 15360, Note_on_c, 0, 57, 31
3, 15540, Note_on_c, 0, 57, 0
3, 15540, Note_on_c, 0, 55, 0
3, 15600, Note_on_c, 0, 55, 26
3, 15600, Note_on_c, 0, 57, 31
3, 15780, Note_on_c, 0, 57, 0
3, 15780, Note_on_c, 0, 55, 0
3, 15840, Note_on_c, 0, 48, 0
3, 15840, Note_on_c, 0, 55, 37
3, 16080, Note_on_c, 0, 54, 26
3, 16080, Note_on_c, 0, 60, 31
3, 16260, Note_on_c, 0, 60, 0
3, 16260, Note_on_c, 0, 54, 0
3, 16320, Note_on_c, 0, 54, 26
3, 16320, Note_on_c, 0, 60, 31
3, 16500, Note_on_c, 0, 60, 0
3, 16500, Note_on_c, 0, 54, 0
3, 16560, Note_on_c, 0, 55, 0
3, 16560, Note_on_c, 0, 55, 37
3, 16800, Note_on_c, 0, 62, 31
3, 16800, Note_on_c, 0, 58, 26
3, 16980, Note_on_c, 0, 58, 0
3, 16980, Note_on_c, 0, 62, 0
3, 17040, Note_on_c, 0, 58, 26
3, 17040, Note_on_c, 0, 62, 31
3, 17220, Note_on_c, 0, 62, 0
3, 17220, Note_on_c, 0, 58, 0
3, 17280, Note_on_c, 0, 55, 0
3, 17280, Note_on_c, 0, 50, 37
3, 17520, Note_on_c, 0, 53, 26
3, 17520, Note_on_c, 0, 58, 31
3, 17700, Note_on_c, 0, 58, 0
3, 17700, Note_on_c, 0, 53, 0
3, 17760, Note_on_c, 0, 53, 26
3, 17760, Note_on_c, 0, 58, 31
3, 17940, Note_on_c, 0, 58, 0
3, 17940, Note_on_c, 0, 53, 0
3, 18000, Note_on_c, 0, 50, 0
3, 18000, Note_on_c, 0, 48, 37
3, 18240, Note_on_c, 0, 55, 26
3, 18240, Note_on_c, 0, 58, 31
3, 18420, Note_on_c, 0, 58, 0
3, 18420, Note_on_c, 0, 55, 0
3, 18480, Note_on_c, 0, 55, 26
3, 18480, Note_on_c, 0, 58, 31
3, 18660, Note_on_c, 0, 58, 0
3, 18660, Note_on_c, 0, 55, 0
3, 18720, Note_on_c, 0, 48, 0
3, 18720, Note_on_c, 0, 41, 37
3, 18960, Note_on_c, 0, 53, 26
3, 18960, Note_on_c, 0, 57, 31
3, 19140, Note_on_c, 0, 57, 0
3, 19140, Note_on_c, 0, 53, 0
3, 19200, Note_on_c, 0, 53, 26
3, 19200, Note_on_c, 0, 57, 31
3, 19380, Note_on_c, 0, 57, 0
3, 19380, Note_on_c, 0, 53, 0
3, 19440, Note_on_c, 0, 41, 0
3, 19440, Note_on_c, 0, 46, 37
3, 19680, Note_on_c, 0, 58, 31
3, 19680, Note_on_c, 0, 53, 26
3, 19860, Note_on_c, 0, 53, 0
3, 19860, Note_on_c, 0, 58, 0
3, 19920, Note_on_c, 0, 53, 26
3, 19920, Note_on_c, 0, 58, 31
3, 20100, Note_on_c, 0, 58, 0
3, 20100, Note_on_c, 0, 53, 0
3, 20160, Note_on_c, 0, 46, 0
3, 20160, Note_on_c, 0, 46, 37
3, 20400, Note_on_c, 0, 50, 26
3, 20400, Note_on_c, 0, 55, 31
3, 20580, Note_on_c, 0, 55, 0
3, 20580, Note_on_c, 0, 50, 0
3, 20640, Note_on_c, 0, 50, 26
3, 20640, Note_on_c, 0, 55, 31
3, 20820, Note_on_c, 0, 55, 0
3, 20820, Note_on_c, 0, 50, 0
3, 20880, Note_on_c, 0, 46, 0
3, 20880, Note_on_c, 0, 45, 37
3, 21120, Note_on_c, 0, 51, 26
3, 21120, Note_on_c, 0, 55, 31
3, 21300, Note_on_c, 0, 55, 0
3, 21300, Note_on_c, 0, 51, 0
3, 21360, Note_on_c, 0, 51, 26
3, 21360, Note_on_c, 0, 55, 31
3, 21540, Note_on_c, 0, 55, 0
3, 21540, Note_on_c, 0, 51, 0
3, 21600, Note_on_c, 0, 45, 0
3, 21600, Note_on_c, 0, 38, 37
3, 21840, Note_on_c, 0, 38, 0
3, 21840, Note_on_c, 0, 50, 26
3, 21840, Note_on_c, 0, 54, 31
3, 22020, Note_on_c, 0, 54, 0
3, 22020, Note_on_c, 0, 50, 0
3, 22080, Note_on_c, 0, 50, 26
3, 22080, Note_on_c, 0, 54, 31
3, 22260, Note_on_c, 0, 54, 0
3, 22260, Note_on_c, 0, 50, 0
3, 22320, Note_on_c, 0, 43, 37
3, 22560, Note_on_c, 0, 55, 31
3, 22560, Note_on_c, 0, 50, 26
3, 22740, Note_on_c, 0, 50, 0
3, 22740, Note_on_c, 0, 55, 0
3, 22800, Note_on_c, 0, 50, 26
3, 22800, Note_on_c, 0, 55, 31
3, 22980, Note_on_c, 0, 55, 0
3, 22980, Note_on_c, 0, 50, 0
3, 23040, Note_on_c, 0, 43, 0
3, 23040, Note_on_c, 0, 39, 33
3, 23040, Note_on_c, 0, 51, 40
3, 23160, Note_on_c, 0, 51, 0
3, 23160, Note_on_c, 0, 39, 0
3, 23280, Note_on_c, 0, 50, 42
3, 23280, Note_on_c, 0, 38, 34
3, 23400, Note_on_c, 0, 38, 0
3, 23400, Note_on_c, 0, 50, 0
3, 23520, Note_on_c, 0, 51, 46
3, 23520, Note_on_c, 0, 39, 38
3, 23640, Note_on_c, 0, 39, 0
3, 23640, Note_on_c, 0, 51, 0
3, 23760, Note_on_c, 0, 36, 36
3, 23760, Note_on_c, 0, 48, 44
3, 23880, Note_on_c, 0, 48, 0
3, 23880, Note_on_c, 0, 36, 0
3, 24000, Note_on_c, 0, 47, 46
3, 24000, Note_on_c, 0, 35, 37
3, 24120, Note_on_c, 0, 35, 0
3, 24120, Note_on_c, 0, 47, 0
3, 24240, Note_on_c, 0, 36, 33
3, 24240, Note_on_c, 0, 48, 37
3, 24360, Note_on_c, 0, 48, 0
3, 24360, Note_on_c, 0, 36, 0
3, 24480, Note_on_c, 0, 38, 40
3, 24480, Note_on_c, 0, 50, 49
3, 24600, Note_on_c, 0, 50, 0
3, 24600, Note_on_c, 0, 38, 0
3, 24720, Note_on_c, 0, 49, 50
3, 24720, Note_on_c, 0, 37, 42
3, 24840, Note_on_c, 0, 37, 0
3, 24840, Note_on_c, 0, 49, 0
3, 24960, Note_on_c, 0, 50, 55
3, 24960, Note_on_c, 0, 38, 44
3, 25080, Note_on_c, 0, 38, 0
3, 25080, Note_on_c, 0, 50, 0
3, 25200, Note_on_c, 0, 34, 46
3, 25200, Note_on_c, 0, 46, 55
3, 25320, Note_on_c, 0, 46, 0
3, 25320, Note_on_c, 0, 34, 0
3, 25440, Note_on_c, 0, 45, 57
3, 25440, Note_on_c, 0, 33, 47
3, 25560, Note_on_c, 0, 33, 0
3, 25560, Note_on_c, 0, 45, 0
3, 25680, Note_on_c, 0, 34, 40
3, 25680, Note_on_c, 0, 46, 47
3, 25800, Note_on_c, 0, 46, 0
3, 25800, Note_on_c, 0, 34, 0
3, 25920, Note_on_c, 0, 36, 46
3, 25920, Note_on_c, 0, 48, 56
3, 26040, Note_on_c, 0, 48, 0
3, 26040, Note_on_c, 0, 36, 0
3, 26160, Note_on_c, 0, 47, 57
3, 26160, Note_on_c, 0, 35, 48
3, 26280, Note_on_c, 0, 35, 0
3, 26280, Note_on_c, 0, 47, 0
3, 26400, Note_on_c, 0, 48, 62
3, 26400, Note_on_c, 0, 36, 50
3, 26520, Note_on_c, 0, 36, 0
3, 26520, Note_on_c, 0, 48, 0
3, 26640, Note_on_c, 0, 39, 50
3, 26640, Note_on_c, 0, 51, 60
3, 26760, Note_on_c, 0, 51, 0
3, 26760, Note_on_c, 0, 39, 0
3, 26880, Note_on_c, 0, 50, 62
3, 26880, Note_on_c, 0, 38, 52
3, 27000, Note_on_c, 0, 38, 0
3, 27000, Note_on_c, 0, 50, 0
3, 27120, Note_on_c, 0, 51, 68
3, 27120, Note_on_c, 0, 39, 56
3, 27240, Note_on_c, 0, 39, 0
3, 27240, Note_on_c, 0, 51, 0
3, 27360, Note_on_c, 0, 38, 49
3, 27360, Note_on_c, 0, 50, 58
3, 27480, Note_on_c, 0, 50, 0
3, 27480, Note_on_c, 0, 38, 0
3, 27600, Note_on_c, 0, 37, 48
3, 27600, Note_on_c, 0, 49, 57
3, 27720, Note_on_c, 0, 49, 0
3, 27720, Note_on_c, 0, 37, 0
3, 27840, Note_on_c, 0, 38, 57
3, 27840, Note_on_c, 0, 50, 67
3, 27960, Note_on_c, 0, 50, 0
3, 27960, Note_on_c, 0, 38, 0
3, 28080, Note_on_c, 0, 55, 80
3, 28080, Note_on_c, 0, 43, 67
3, 28200, Note_on_c, 0, 43, 0
3, 28200, Note_on_c, 0, 55, 0
3, 28320, Note_on_c, 0, 55, 78
3, 28320, Note_on_c, 0, 50, 65
3, 28320, Note_on_c, 0, 43, 65
3, 28440, Note_on_c, 0, 43, 0
3, 28440, Note_on_c, 0, 50, 0
3, 28440, Note_on_c, 0, 55, 0
3, 29280, Note_on_c, 0, 62, 39
3, 29400, Note_on_c, 0, 62, 0
3, 30000, Note_on_c, 0, 55, 39
3, 30120, Note_on_c, 0, 55, 0
3, 30720, Note_on_c, 0, 50, 39
3, 30840, Note_on_c, 0, 50, 0
3, 30960, Note_on_c, 0, 62, 37
3, 31200, Note_on_c, 0, 55, 22
3, 31200, Note_on_c, 0, 59, 26
3, 31440, Note_on_c, 0, 59, 0
3, 31440, Note_on_c, 0, 55, 0
3, 31440, Note_on_c, 0, 55, 22
3, 31440, Note_on_c, 0, 59, 26
3, 31680, Note_on_c, 0, 59, 0
3, 31680, Note_on_c, 0, 55, 0
3, 31680, Note_on_c, 0, 62, 0
3, 31680, Note_on_c, 0, 64, 40
3, 31920, Note_on_c, 0, 55, 24
3, 31920, Note_on_c, 0, 59, 28
3, 32160, Note_on_c, 0, 59, 0
3, 32160, Note_on_c, 0, 55, 0
3, 32160, Note_on_c, 0, 55, 24
3, 32160, Note_on_c, 0, 59, 28
3, 32400, Note_on_c, 0, 59, 0
3, 32400, Note_on_c, 0, 55, 0
3, 32400, Note_on_c, 0, 64, 0
3, 32400, Note_on_c, 0, 64, 46
3, 32640, Note_on_c, 0, 54, 21
3, 32640, Note_on_c, 0, 57, 24
3, 32880, Note_on_c, 0, 57, 0
3, 32880, Note_on_c, 0, 54, 0
3, 32880, Note_on_c, 0, 54, 21
3, 32880, Note_on_c, 0, 57, 24
3, 33120, Note_on_c, 0, 57, 0
3, 33120, Note_on_c, 0, 54, 0
3, 33120, Note_on_c, 0, 64, 0
3, 33120, Note_on_c, 0, 62, 37
3, 33360, Note_on_c, 0, 54, 22
3, 33360, Note_on_c, 0, 57, 26
3, 33600, Note_on_c, 0, 57, 0
3, 33600, Note_on_c, 0, 54, 0
3, 33600, Note_on_c, 0, 54, 18
3, 33600, Note_on_c, 0, 57, 22
3, 33840, Note_on_c, 0, 57, 0
3, 33840, Note_on_c, 0, 54, 0
3, 33840, Note_on_c, 0, 62, 0
3, 33840, Note_on_c, 0, 62, 37
3, 34080, Note_on_c, 0, 52, 17
3, 34080, Note_on_c, 0, 55, 20
3, 34320, Note_on_c, 0, 55, 0
3, 34320, Note_on_c, 0, 52, 0
3, 34320, Note_on_c, 0, 52, 17
3, 34320, Note_on_c, 0, 55, 20
3, 34560, Note_on_c, 0, 55, 0
3, 34560, Note_on_c, 0, 52, 0
3, 34560, Note_on_c, 0, 62, 0
3, 34560, Note_on_c, 0, 60, 40
3, 34800, Note_on_c, 0, 52, 19
3, 34800, Note_on_c, 0, 55, 22
3, 35040, Note_on_c, 0, 60, 0
3, 35040, Note_on_c, 0, 62, 28
3, 35280, Note_on_c, 0, 62, 0
3, 35280, Note_on_c, 0, 55, 0
3, 35280, Note_on_c, 0, 52, 0
3, 35280, Note_on_c, 0, 60, 46
3, 35520, Note_on_c, 0, 51, 16
3, 35520, Note_on_c, 0, 54, 19
3, 35760, Note_on_c, 0, 54, 0
3, 35760, Note_on_c, 0, 51, 0
3, 35760, Note_on_c, 0, 51, 16
3, 35760, Note_on_c, 0, 54, 19
3, 36000, Note_on_c, 0, 54, 0
3, 36000, Note_on_c, 0, 51, 0
3, 36000, Note_on_c, 0, 60, 0
3, 36000, Note_on_c, 0, 59, 37
3, 36240, Note_on_c, 0, 51, 22
3, 36240, Note_on_c, 0, 54, 26
3, 36480, Note_on_c, 0, 54, 0
3, 36480, Note_on_c, 0, 51, 0
3, 36480, Note_on_c, 0, 51, 18
3, 36480, Note_on_c, 0, 54, 22
3, 36720, Note_on_c, 0, 54, 0
3, 36720, Note_on_c, 0, 51, 0
3, 36720, Note_on_c, 0, 59, 0
3, 36720, Note_on_c, 0, 59, 37
3, 36960, Note_on_c, 0, 50, 22
3, 36960, Note_on_c, 0, 55, 26
3, 37200, Note_on_c, 0, 55, 0
3, 37200, Note_on_c, 0, 50, 0
3, 37200, Note_on_c, 0, 50, 22
3, 37200, Note_on_c, 0, 55, 26
3, 37440, Note_on_c, 0, 55, 0
3, 37440, Note_on_c, 0, 50, 0
3, 37440, Note_on_c, 0, 59, 0
3, 37440, Note_on_c, 0, 55, 40
3, 37680, Note_on_c, 0, 47, 24
3, 37680, Note_on_c, 0, 50, 28
3, 37920, Note_on_c, 0, 50, 0
3, 37920, Note_on_c, 0, 47, 0
3, 37920, Note_on_c, 0, 47, 24
3, 37920, Note_on_c, 0, 50, 28
3, 38160, Note_on_c, 0, 50, 0
3, 38160, Note_on_c, 0, 47, 0
3, 38160, Note_on_c, 0, 55, 0
3, 38160, Note_on_c, 0, 57, 49
3, 38400, Note_on_c, 0, 55, 31
3, 38400, Note_on_c, 0, 48, 26
3, 38640, Note_on_c, 0, 48, 0
3, 38640, Note_on_c, 0, 55, 0
3, 38640, Note_on_c, 0, 55, 31
3, 38640, Note_on_c, 0, 48, 26
3, 38880, Note_on_c, 0, 48, 0
3, 38880, Note_on_c, 0, 55, 0
3, 38880, Note_on_c, 0, 57, 0
3, 38880, Note_on_c, 0, 60, 54
3, 39120, Note_on_c, 0, 55, 38
3, 39120, Note_on_c, 0, 51, 32
3, 39360, Note_on_c, 0, 51, 0
3, 39360, Note_on_c, 0, 55, 0
3, 39360, Note_on_c, 0, 55, 38
3, 39360, Note_on_c, 0, 51, 32
3, 39600, Note_on_c, 0, 51, 0
3, 39600, Note_on_c, 0, 55, 0
3, 39600, Note_on_c, 0, 60, 0
3, 39600, Note_on_c, 0, 59, 51
3, 39840, Note_on_c, 0, 55, 37
3, 39840, Note_on_c, 0, 50, 31
3, 40080, Note_on_c, 0, 50, 0
3, 40080, Note_on_c, 0, 55, 0
3, 40080, Note_on_c, 0, 55, 37
3, 40080, Note_on_c, 0, 50, 31
3, 40320, Note_on_c, 0, 50, 0
3, 40320, Note_on_c, 0, 55, 0
3, 40320, Note_on_c, 0, 59, 0
3, 40320, Note_on_c, 0, 57, 50
3, 40560, Note_on_c, 0, 50, 30
3, 40560, Note_on_c, 0, 54, 36
3, 40800, Note_on_c, 0, 54, 0
3, 40800, Note_on_c, 0, 50, 0
3, 40800, Note_on_c, 0, 50, 31
3, 40800, Note_on_c, 0, 54, 37
3, 41040, Note_on_c, 0, 54, 0
3, 41040, Note_on_c, 0, 50, 0
3, 41040, Note_on_c, 0, 57, 0
3, 41040, Note_on_c, 0, 55, 50
3, 41280, Note_on_c, 0, 43, 21
3, 41280, Note_on_c, 0, 50, 30
3, 41520, Note_on_c, 0, 50, 0
3, 41520, Note_on_c, 0, 43, 0
3, 41520, Note_on_c, 0, 50, 27
3, 41520, Note_on_c, 0, 43, 22
3, 41760, Note_on_c, 0, 43, 0
3, 41760, Note_on_c, 0, 50, 0
3, 41760, Note_on_c, 0, 55, 0
3, 41760, Note_on_c, 0, 50, 25
3, 41760, Note_on_c, 0, 43, 22
3, 42000, Note_on_c, 0, 43, 0
3, 42000, Note_on_c, 0, 50, 0
3, 42000, Note_on_c, 0, 50, 24
3, 42000, Note_on_c, 0, 43, 21
3, 42240, Note_on_c, 0, 43, 0
3, 42240, Note_on_c, 0, 50, 0
3, 42240, Note_on_c, 0, 50, 22
3, 42240, Note_on_c, 0, 43, 19
3, 42480, Note_on_c, 0, 43, 0
3, 42480, Note_on_c, 0, 50, 0
3, 42480, Note_on_c, 0, 62, 37
3, 42720, Note_on_c, 0, 55, 22
3, 42720, Note_on_c, 0, 59, 26
3, 42960, Note_on_c, 0, 59, 0
3, 42960, Note_on_c, 0, 55, 0
3, 42960, Note_on_c, 0, 55, 22
3, 42960, Note_on_c, 0, 59, 26
3, 43200, Note_on_c, 0, 59, 0
3, 43200, Note_on_c, 0, 55, 0
3, 43200, Note_on_c, 0, 62, 0
3, 43200, Note_on_c, 0, 64, 40
3, 43440, Note_on_c, 0, 55, 24
3, 43440, Note_on_c, 0, 59, 28
3, 43680, Note_on_c, 0, 59, 0
3, 43680, Note_on_c, 0, 55, 0
3, 43680, Note_on_c, 0, 55, 24
3, 43680, Note_on_c, 0, 59, 28
3, 43920, Note_on_c, 0, 59, 0
3, 43920, Note_on_c, 0, 55, 0
3, 43920, Note_on_c, 0, 64, 0
3, 43920, Note_on_c, 0, 64, 46
3, 44160, Note_on_c, 0, 54, 21
3, 44160, Note_on_c, 0, 57, 24
3, 44400, Note_on_c, 0, 57, 0
3, 44400, Note_on_c, 0, 54, 0
3, 44400, Note_on_c, 0, 54, 21
3, 44400, Note_on_c, 0, 57, 24
3, 44640, Note_on_c, 0, 57, 0
3, 44640, Note_on_c, 0, 54, 0
3, 44640, Note_on_c, 0, 64, 0
3, 44640, Note_on_c, 0, 62, 37
3, 44880, Note_on_c, 0, 54, 22
3, 44880, Note_on_c, 0, 57, 26
3, 45120, Note_on_c, 0, 57, 0
3, 45120, Note_on_c, 0, 54, 0
3, 45120, Note_on_c, 0, 54, 18
3, 45120, Note_on_c, 0, 57, 22
3, 45360, Note_on_c, 0, 57, 0
3, 45360, Note_on_c, 0, 54, 0
3, 45360, Note_on_c, 0, 62, 0
3, 45360, Note_on_c, 0, 62, 37
3, 45600, Note_on_c, 0, 52, 17
3, 45600, Note_on_c, 0, 55, 20
3, 45840, Note_on_c, 0, 55, 0
3, 45840, Note_on_c, 0, 52, 0
3, 45840, Note_on_c, 0, 52, 17
3, 45840, Note_on_c, 0, 55, 20
3, 46080, Note_on_c, 0, 55, 0
3, 46080, Note_on_c, 0, 52, 0
3, 46080, Note_on_c, 0, 62, 0
3, 46080, Note_on_c, 0, 60, 40
3, 46320, Note_on_c, 0, 52, 19
3, 46320, Note_on_c, 0, 55, 22
3, 46560, Note_on_c, 0, 60, 0
3, 46560, Note_on_c, 0, 62, 28
3, 46800, Note_on_c, 0, 62, 0
3, 46800, Note_on_c, 0, 55, 0
3, 46800, Note_on_c, 0, 52, 0
3, 46800, Note_on_c, 0, 60, 46
3, 47040, Note_on_c, 0, 51, 16
3, 47040, Note_on_c, 0, 54, 19
3, 47280, Note_on_c, 0, 54, 0
3, 47280, Note_on_c, 0, 51, 0
3, 47280, Note_on_c, 0, 51, 16
3, 47280, Note_on_c, 0, 54, 19
3, 47520, Note_on_c, 0, 54, 0
3, 47520, Note_on_c, 0, 51, 0
3, 47520, Note_on_c, 0, 60, 0
3, 47520, Note_on_c, 0, 59, 37
3, 47760, Note_on_c, 0, 51, 22
3, 47760, Note_on_c, 0, 54, 26
3, 48000, Note_on_c, 0, 54, 0
3, 48000, Note_on_c, 0, 51, 0
3, 48000, Note_on_c, 0, 51, 18
3, 48000, Note_on_c, 0, 54, 22
3, 48240, Note_on_c, 0, 54, 0
3, 48240, Note_on_c, 0, 51, 0
3, 48240, Note_on_c, 0, 59, 0
3, 48240, Note_on_c, 0, 59, 37
3, 48480, Note_on_c, 0, 50, 22
3, 48480, Note_on_c, 0, 55, 26
3, 48720, Note_on_c, 0, 55, 0
3, 48720, Note_on_c, 0, 50, 0
3, 48720, Note_on_c, 0, 50, 22
3, 48720, Note_on_c, 0, 55, 26
3, 48960, Note_on_c, 0, 55, 0
3, 48960, Note_on_c, 0, 50, 0
3, 48960, Note_on_c, 0, 59, 0
3, 48960, Note_on_c, 0, 55, 40
3, 49200, Note_on_c, 0, 47, 24
3, 49200, Note_on_c, 0, 50, 28
3, 49440, Note_on_c, 0, 50, 0
3, 49440, Note_on_c, 0, 47, 0
3, 49440, Note_on_c, 0, 47, 24
3, 49440, Note_on_c, 0, 50, 28
3, 49680, Note_on_c, 0, 50, 0
3, 49680, Note_on_c, 0, 47, 0
3, 49680, Note_on_c, 0, 55, 0
3, 49680, Note_on_c, 0, 57, 49
3, 49920, Note_on_c, 0, 55, 31
3, 49920, Note_on_c, 0, 48, 26
3, 50160, Note_on_c, 0, 48, 0
3, 50160, Note_on_c, 0, 55, 0
3, 50160, Note_on_c, 0, 55, 31
3, 50160, Note_on_c, 0, 48, 26
3, 50400, Note_on_c, 0, 48, 0
3, 50400, Note_on_c, 0, 55, 0
3, 50400, Note_on_c, 0, 57, 0
3, 50400, Note_on_c, 0, 60, 54
3, 50640, Note_on_c, 0, 55, 38
3, 50640, Note_on_c, 0, 51, 32
3, 50880, Note_on_c, 0, 51, 0
3, 50880, Note_on_c, 0, 55, 0
3, 50880, Note_on_c, 0, 55, 38
3, 50880, Note_on_c, 0, 51, 32
3, 51120, Note_on_c, 0, 51, 0
3, 51120, Note_on_c, 0, 55, 0
3, 51120, Note_on_c, 0, 60, 0
3, 51120, Note_on_c, 0, 59, 51
3, 51360, Note_on_c, 0, 55, 37
3, 51360, Note_on_c, 0, 50, 31
3, 51600, Note_on_c, 0, 50, 0
3, 51600, Note_on_c, 0, 55, 0
3, 51600, Note_on_c, 0, 55, 37
3, 51600, Note_on_c, 0, 50, 31
3, 51840, Note_on_c, 0, 50, 0
3, 51840, Note_on_c, 0, 55, 0
3, 51840, Note_on_c, 0, 59, 0
3, 51840, Note_on_c, 0, 57, 50
3, 52080, Note_on_c, 0, 50, 30
3, 52080, Note_on_c, 0, 54, 36
3, 52320, Note_on_c, 0, 54, 0
3, 52320, Note_on_c, 0, 50, 0
3, 52320, Note_on_c, 0, 50, 31
3, 52320, Note_on_c, 0, 54, 37
3, 52560, Note_on_c, 0, 54, 0
3, 52560, Note_on_c, 0, 50, 0
3, 52560, Note_on_c, 0, 57, 0
3, 52560, Note_on_c, 0, 55, 50
3, 52800, Note_on_c, 0, 43, 21
3, 52800, Note_on_c, 0, 50, 30
3, 53040, Note_on_c, 0, 50, 0
3, 53040, Note_on_c, 0, 43, 0
3, 53040, Note_on_c, 0, 50, 27
3, 53040, Note_on_c, 0, 43, 22
3, 53280, Note_on_c, 0, 43, 0
3, 53280, Note_on_c, 0, 50, 0
3, 53280, Note_on_c, 0, 55, 0
3, 53280, Note_on_c, 0, 39, 66
3, 53280, Note_on_c, 0, 51, 79
3, 54000, Note_on_c, 0, 51, 0
3, 54000, Note_on_c, 0, 39, 0
3, 54000, Note_on_c, 0, 38, 63
3, 54000, Note_on_c, 0, 50, 74
3, 54720, Note_on_c, 0, 50, 0
3, 54720, Note_on_c, 0, 38, 0
3, 54720, Note_on_c, 0, 36, 69
3, 54720, Note_on_c, 0, 48, 81
3, 55440, Note_on_c, 0, 48, 0
3, 55440, Note_on_c, 0, 36, 0
3, 55440, Note_on_c, 0, 34, 69
3, 55440, Note_on_c, 0, 46, 81
3, 56160, Note_on_c, 0, 46, 0
3, 56160, Note_on_c, 0, 34, 0
3, 56160, Note_on_c, 0, 39, 63
3, 56160, Note_on_c, 0, 51, 74
3, 56880, Note_on_c, 0, 51, 0
3, 56880, Note_on_c, 0, 39, 0
3, 57120, Note_on_c, 0, 50, 46
3, 57120, Note_on_c, 0, 38, 39
3, 57360, Note_on_c, 0, 38, 0
3, 57360, Note_on_c, 0, 50, 0
3, 57360, Note_on_c, 0, 50, 40
3, 57360, Note_on_c, 0, 38, 34
3, 57600, Note_on_c, 0, 38, 0
3, 57600, Note_on_c, 0, 50, 0
3, 57840, Note_on_c, 0, 38, 33
3, 57840, Note_on_c, 0, 50, 39
3, 58080, Note_on_c, 0, 50, 0
3, 58080, Note_on_c, 0, 38, 0
3, 58080, Note_on_c, 0, 38, 28
3, 58080, Note_on_c, 0, 50, 33
3, 58320, Note_on_c, 0, 50, 0
3, 58320, Note_on_c, 0, 38, 0
3, 58560, Note_on_c, 0, 62, 34
3, 58560, Note_on_c, 0, 58, 28
3, 58800, Note_on_c, 0, 58, 0
3, 58800, Note_on_c, 0, 62, 0
3, 58800, Note_on_c, 0, 62, 25
3, 58800, Note_on_c, 0, 58, 21
3, 59040, Note_on_c, 0, 58, 0
3, 59040, Note_on_c, 0, 62, 0
3, 59040, Note_on_c, 0, 55, 37
3, 59280, Note_on_c, 0, 58, 26
3, 59280, Note_on_c, 0, 62, 31
3, 59460, Note_on_c, 0, 62, 0
3, 59460, Note_on_c, 0, 58, 0
3, 59520, Note_on_c, 0, 58, 26
3, 59520, Note_on_c, 0, 62, 31
3, 59700, Note_on_c, 0, 62, 0
3, 59700, Note_on_c, 0, 58, 0
3, 59760, Note_on_c, 0, 55, 0
3, 59760, Note_on_c, 0, 55, 37
3, 60000, Note_on_c, 0, 57, 26
3, 60000, Note_on_c, 0, 60, 26
3, 60000, Note_on_c, 0, 63, 31
3, 60180, Note_on_c, 0, 63, 0
3, 60180, Note_on_c, 0, 60, 0
3, 60180, Note_on_c, 0, 57, 0
3, 60240, Note_on_c, 0, 57, 26
3, 60240, Note_on_c, 0, 60, 26
3, 60240, Note_on_c, 0, 63, 31
3, 60420, Note_on_c, 0, 63, 0
3, 60420, Note_on_c, 0, 60, 0
3, 60420, Note_on_c, 0, 57, 0
3, 60480, Note_on_c, 0, 55, 0
3, 60480, Note_on_c, 0, 54, 37
3, 60720, Note_on_c, 0, 60, 26
3, 60720, Note_on_c, 0, 62, 31
3, 60900, Note_on_c, 0, 62, 0
3, 60900, Note_on_c, 0, 60, 0
3, 60960, Note_on_c, 0, 60, 26
3, 60960, Note_on_c, 0, 62, 31
3, 61140, Note_on_c, 0, 62, 0
3, 61140, Note_on_c, 0, 60, 0
3, 61200, Note_on_c, 0, 54, 0
3, 61200, Note_on_c, 0, 55, 37
3, 61440, Note_on_c, 0, 62, 31
3, 61440, Note_on_c, 0, 58, 26
3, 61620, Note_on_c, 0, 58, 0
3, 61620, Note_on_c, 0, 62, 0
3, 61680, Note_on_c, 0, 58, 26
3, 61680, Note_on_c, 0, 62, 31
3, 61860, Note_on_c, 0, 62, 0
3, 61860, Note_on_c, 0, 58, 0
3, 61920, Note_on_c, 0, 55, 0
3, 61920, Note_on_c, 0, 46, 37
3, 62160, Note_on_c, 0, 50, 26
3, 62160, Note_on_c, 0, 55, 31
3, 62340, Note_on_c, 0, 55, 0
3, 62340, Note_on_c, 0, 50, 0
3, 62400, Note_on_c, 0, 50, 26
3, 62400, Note_on_c, 0, 55, 31
3, 62580, Note_on_c, 0, 55, 0
3, 62580, Note_on_c, 0, 50, 0
3, 62640, Note_on_c, 0, 46, 0
3, 62640, Note_on_c, 0, 48, 37
3, 62880, Note_on_c, 0, 55, 26
3, 62880, Note_on_c, 0, 57, 31
3, 63060, Note_on_c, 0, 57, 0
3, 63060, Note_on_c, 0, 55, 0
3, 63120, Note_on_c, 0, 55, 26
3, 63120, Note_on_c, 0, 57, 31
3, 63300, Note_on_c, 0, 57, 0
3, 63300, Note_on_c, 0, 55, 0
3, 63360, Note_on_c, 0, 48, 0
3, 63360, Note_on_c, 0, 55, 37
3, 63600, Note_on_c, 0, 54, 26
3, 63600, Note_on_c, 0, 60, 31
3, 63780, Note_on_c, 0, 60, 0
3, 63780, Note_on_c, 0, 54, 0
3, 63840, Note_on_c, 0, 54, 26
3, 63840, Note_on_c, 0, 60, 31
3, 64020, Note_on_c, 0, 60, 0
3, 64020, Note_on_c, 0, 54, 0
3, 64080, Note_on_c, 0, 55, 0
3, 64080, Note_on_c, 0, 55, 37
3, 64320, Note_on_c, 0, 62, 31
3, 64320, Note_on_c, 0, 58, 26
3, 64500, Note_on_c, 0, 58, 0
3, 64500, Note_on_c, 0, 62, 0
3, 64560, Note_on_c, 0, 58, 26
3, 64560, Note_on_c, 0, 62, 31
3, 64740, Note_on_c, 0, 62, 0
3, 64740, Note_on_c, 0, 58, 0
3, 64800, Note_on_c, 0, 55, 0
3, 64800, Note_on_c, 0, 55, 37
3, 65040, Note_on_c, 0, 58, 26
3, 65040, Note_on_c, 0, 62, 31
3, 65220, Note_on_c, 0, 62, 0
3, 65220, Note_on_c, 0, 58, 0
3, 65280, Note_on_c, 0, 58, 26
3, 65280, Note_on_c, 0, 62, 31
3, 65460, Note_on_c, 0, 62, 0
3, 65460, Note_on_c, 0, 58, 0
3, 65520, Note_on_c, 0, 55, 0
3, 65520, Note_on_c, 0, 55, 37
3, 65760, Note_on_c, 0, 57, 26
3, 65760, Note_on_c, 0, 60, 26
3, 65760, Note_on_c, 0, 63, 31
3, 65940, Note_on_c, 0, 63, 0
3, 65940, Note_on_c, 0, 60, 0
3, 65940, Note_on_c, 0, 57, 0
3, 66000, Note_on_c, 0, 57, 26
3, 66000, Note_on_c, 0, 60, 26
3, 66000, Note_on_c, 0, 63, 31
3, 66180, Note_on_c, 0, 63, 0
3, 66180, Note_on_c, 0, 60, 0
3, 66180, Note_on_c, 0, 57, 0
3, 66240, Note_on_c, 0, 55, 0
3, 66240, Note_on_c, 0, 54, 37
3, 66480, Note_on_c, 0, 60, 26
3, 66480, Note_on_c, 0, 62, 31
3, 66660, Note_on_c, 0, 62, 0
3, 66660, Note_on_c, 0, 60, 0
3, 66720, Note_on_c, 0, 60, 26
3, 66720, Note_on_c, 0, 62, 31
3, 66900, Note_on_c, 0, 62, 0
3, 66900, Note_on_c, 0, 60, 0
3, 66960, Note_on_c, 0, 54, 0
3, 66960, Note_on_c, 0, 55, 37
3, 67200, Note_on_c, 0, 62, 31
3, 67200, Note_on_c, 0, 58, 26
3, 67380, Note_on_c, 0, 58, 0
3, 67380, Note_on_c, 0, 62, 0
3, 67440, Note_on_c, 0, 58, 26
3, 67440, Note_on_c, 0, 62, 31
3, 67620, Note_on_c, 0, 62, 0
3, 67620, Note_on_c, 0, 58, 0
3, 67680, Note_on_c, 0, 55, 0
3, 67680, Note_on_c, 0, 46, 37
3, 67920, Note_on_c, 0, 50, 26
3, 67920, Note_on_c, 0, 55, 31
3, 68100, Note_on_c, 0, 55, 0
3, 68100, Note_on_c, 0, 50, 0
3, 68160, Note_on_c, 0, 50, 26
3, 68160, Note_on_c, 0, 55, 31
3, 68340, Note_on_c, 0, 55, 0
3, 68340, Note_on_c, 0, 50, 0
3, 68400, Note_on_c, 0, 46, 0
3, 68400, Note_on_c, 0, 48, 37
3, 68640, Note_on_c, 0, 55, 26
3, 68640, Note_on_c, 0, 57, 31
3, 68820, Note_on_c, 0, 57, 0
3, 68820, Note_on_c, 0, 55, 0
3, 68880, Note_on_c, 0, 55, 26
3, 68880, Note_on_c, 0, 57, 31
3, 69060, Note_on_c, 0, 57, 0
3, 69060, Note_on_c, 0, 55, 0
3, 69120, Note_on_c, 0, 48, 0
3, 69120, Note_on_c, 0, 55, 37
3, 69360, Note_on_c, 0, 54, 26
3, 69360, Note_on_c, 0, 60, 31
3, 69540, Note_on_c, 0, 60, 0
3, 69540, Note_on_c, 0, 54, 0
3, 69600, Note_on_c, 0, 54, 26
3, 69600, Note_on_c, 0, 60, 31
3, 69780, Note_on_c, 0, 60, 0
3, 69780, Note_on_c, 0, 54, 0
3, 69840, Note_on_c, 0, 55, 0
3, 69840, Note_on_c, 0, 55, 37
3, 70080, Note_on_c, 0, 62, 31
3, 70080, Note_on_c, 0, 58, 26
3, 70260, Note_on_c, 0, 58, 0
3, 70260, Note_on_c, 0, 62, 0
3, 70320, Note_on_c, 0, 58, 26
3, 70320, Note_on_c, 0, 62, 31
3, 70500, Note_on_c, 0, 62, 0
3, 70500, Note_on_c, 0, 58, 0
3, 70560, Note_on_c, 0, 55, 0
3, 70560, Note_on_c, 0, 50, 37
3, 70800, Note_on_c, 0, 53, 26
3, 70800, Note_on_c, 0, 58, 31
3, 70980, Note_on_c, 0, 58, 0
3, 70980, Note_on_c, 0, 53, 0
3, 71040, Note_on_c, 0, 53, 26
3, 71040, Note_on_c, 0, 58, 31
3, 71220, Note_on_c, 0, 58, 0
3, 71220, Note_on_c, 0, 53, 0
3, 71280, Note_on_c, 0, 50, 0
3, 71280, Note_on_c, 0, 48, 37
3, 71520, Note_on_c, 0, 55, 26
3, 71520, Note_on_c, 0, 58, 31
3, 71700, Note_on_c, 0, 58, 0
3, 71700, Note_on_c, 0, 55, 0
3, 71760, Note_on_c, 0, 55, 26
3, 71760, Note_on_c, 0, 58, 31
3, 71940, Note_on_c, 0, 58, 0
3, 71940, Note_on_c, 0, 55, 0
3, 72000, Note_on_c, 0, 48, 0
3, 72000, Note_on_c, 0, 41, 37
3, 72240, Note_on_c, 0, 53, 26
3, 72240, Note_on_c, 0, 57, 31
3, 72420, Note_on_c, 0, 57, 0
3, 72420, Note_on_c, 0, 53, 0
3, 72480, Note_on_c, 0, 53, 26
3, 72480, Note_on_c, 0, 57, 31
3, 72660, Note_on_c, 0, 57, 0
3, 72660, Note_on_c, 0, 53, 0
3, 72720, Note_on_c, 0, 41, 0
3, 72720, Note_on_c, 0, 46, 37
3, 72960, Note_on_c, 0, 58, 31
3, 72960, Note_on_c, 0, 53, 26
3, 73140, Note_on_c, 0, 53, 0
3, 73140, Note_on_c, 0, 58, 0
3, 73200, Note_on_c, 0, 53, 26
3, 73200, Note_on_c, 0, 58, 31
3, 73380, Note_on_c, 0, 58, 0
3, 73380, Note_on_c, 0, 53, 0
3, 73440, Note_on_c, 0, 46, 0
3, 73440, Note_on_c, 0, 46, 37
3, 73680, Note_on_c, 0, 50, 26
3, 73680, Note_on_c, 0, 55, 31
3, 73860, Note_on_c, 0, 55, 0
3, 73860, Note_on_c, 0, 50, 0
3, 73920, Note_on_c, 0, 50, 26
3, 73920, Note_on_c, 0, 55, 31
3, 74100, Note_on_c, 0, 55, 0
3, 74100, Note_on_c, 0, 50, 0
3, 74160, Note_on_c, 0, 46, 0
3, 74160, Note_on_c, 0, 45, 37
3, 74400, Note_on_c, 0, 51, 26
3, 74400, Note_on_c, 0, 55, 31
3, 74580, Note_on_c, 0, 55, 0
3, 74580, Note_on_c, 0, 51, 0
3, 74640, Note_on_c, 0, 51, 26
3, 74640, Note_on_c, 0, 55, 31
3, 74820, Note_on_c, 0, 55, 0
3, 74820, Note_on_c, 0, 51, 0
3, 74880, Note_on_c, 0, 45, 0
3, 74880, Note_on_c, 0, 38, 37
3, 75120, Note_on_c, 0, 38, 0
3, 75120, Note_on_c, 0, 50, 26
3, 75120, Note_on_c, 0, 54, 31
3, 75300, Note_on_c, 0, 54, 0
3, 75300, Note_on_c, 0, 50, 0
3, 75360, Note_on_c, 0, 50, 26
3, 75360, Note_on_c, 0, 54, 31
3, 75540, Note_on_c, 0, 54, 0
3, 75540, Note_on_c, 0, 50, 0
3, 75600, Note_on_c, 0, 43, 37
3, 75840, Note_on_c, 0, 55, 31
3, 75840, Note_on_c, 0, 50, 26
3, 76020, Note_on_c, 0, 50, 0
3, 76020, Note_on_c, 0, 55, 0
3, 76080, Note_on_c, 0, 50, 26
3, 76080, Note_on_c, 0, 55, 31
3, 76260, Note_on_c, 0, 55, 0
3, 76260, Note_on_c, 0, 50, 0
3, 76320, Note_on_c, 0, 43, 0
3, 76320, Note_on_c, 0, 39, 33
3, 76320, Note_on_c, 0, 51, 40
3, 76440, Note_on_c, 0, 51, 0
3, 76440, Note_on_c, 0, 39, 0
3, 76560, Note_on_c, 0, 50, 42
3, 76560, Note_on_c, 0, 38, 34
3, 76680, Note_on_c, 0, 38, 0
3, 76680, Note_on_c, 0, 50, 0
3, 76800, Note_on_c, 0, 51, 46
3, 76800, Note_on_c, 0, 39, 38
3, 76920, Note_on_c, 0, 39, 0
3, 76920, Note_on_c, 0, 51, 0
3, 77040, Note_on_c, 0, 36, 36
3, 77040, Note_on_c, 0, 48, 44
3, 77160, Note_on_c, 0, 48, 0
3, 77160, Note_on_c, 0, 36, 0
3, 77280, Note_on_c, 0, 47, 46
3, 77280, Note_on_c, 0, 35, 37
3, 77400, Note_on_c, 0, 35, 0
3, 77400, Note_on_c, 0, 47, 0
3, 77520, Note_on_c, 0, 36, 33
3, 77520, Note_on_c, 0, 48, 37
3, 77640, Note_on_c, 0, 48, 0
3, 77640, Note_on_c, 0, 36, 0
3, 77760, Note_on_c, 0, 38, 40
3, 77760, Note_on_c, 0, 50, 49
3, 77880, Note_on_c, 0, 50, 0
3, 77880, Note_on_c, 0, 38, 0
3, 78000, Note_on_c, 0, 49, 50
3, 78000, Note_on_c, 0, 37, 42
3, 78120, Note_on_c, 0, 37, 0
3, 78120, Note_on_c, 0, 49, 0
3, 78240, Note_on_c, 0, 50, 55
3, 78240, Note_on_c, 0, 38, 44
3, 78360, Note_on_c, 0, 38, 0
3, 78360, Note_on_c, 0, 50, 0
3, 78480, Note_on_c, 0, 34, 46
3, 78480, Note_on_c, 0, 46, 55
3, 78600, Note_on_c, 0, 46, 0
3, 78600, Note_on_c, 0, 34, 0
3, 78720, Note_on_c, 0, 45, 57
3, 78720, Note_on_c, 0, 33, 47
3, 78840, Note_on_c, 0, 33, 0
3, 78840, Note_on_c, 0, 45, 0
3, 78960, Note_on_c, 0, 34, 40
3, 78960, Note_on_c, 0, 46, 47
3, 79080, Note_on_c, 0, 46, 0
3, 79080, Note_on_c, 0, 34, 0
3, 79200, Note_on_c, 0, 36, 46
3, 79200, Note_on_c, 0, 48, 56
3, 79320, Note_on_c, 0, 48, 0
3, 79320, Note_on_c, 0, 36, 0
3, 79440, Note_on_c, 0, 47, 57
3, 79440, Note_on_c, 0, 35, 48
3, 79560, Note_on_c, 0, 35, 0
3, 79560, Note_on_c, 0, 47, 0
3, 79680, Note_on_c, 0, 48, 62
3, 79680, Note_on_c, 0, 36, 50
3, 79800, Note_on_c, 0, 36, 0
3, 79800, Note_on_c, 0, 48, 0
3, 79920, Note_on_c, 0, 39, 50
3, 79920, Note_on_c, 0, 51, 60
3, 80040, Note_on_c, 0, 51, 0
3, 80040, Note_on_c, 0, 39, 0
3, 80160, Note_on_c, 0, 50, 62
3, 80160, Note_on_c, 0, 38, 52
3, 80280, Note_on_c, 0, 38, 0
3, 80280, Note_on_c, 0, 50, 0
3, 80400, Note_on_c, 0, 51, 68
3, 80400, Note_on_c, 0, 39, 56
3, 80520, Note_on_c, 0, 39, 0
3, 80520, Note_on_c, 0, 51, 0
3, 80640, Note_on_c, 0, 38, 49
3, 80640, Note_on_c, 0, 50, 58
3, 80760, Note_on_c, 0, 50, 0
3, 80760, Note_on_c, 0, 38, 0
3, 80880, Note_on_c, 0, 37, 48
3, 80880, Note_on_c, 0, 49, 57
3, 81000, Note_on_c, 0, 49, 0
3, 81000, Note_on_c, 0, 37, 0
3, 81120, Note_on_c, 0, 38, 57
3, 81120, Note_on_c, 0, 50, 67
3, 81240, Note_on_c, 0, 50, 0
3, 81240, Note_on_c, 0, 38, 0
3, 81360, Note_on_c, 0, 55, 80
3, 81360, Note_on_c, 0, 43, 67
3, 81480, Note_on_c, 0, 43, 0
3, 81480, Note_on_c, 0, 55, 0
3, 81600, Note_on_c, 0, 55, 78
3, 81600, Note_on_c, 0, 50, 65
3, 81600, Note_on_c, 0, 43, 65
3, 81720, Note_on_c, 0, 43, 0
3, 81720, Note_on_c, 0, 50, 0
3, 81720, Note_on_c, 0, 55, 0
3, 81720, End_track
4, 0, Start_track
4, 0, Title_t, "Pedale"
4, 66, Control_c, 0, 64, 127
4, 240, Control_c, 0, 64, 0
4, 773, Control_c, 0, 64, 127
4, 1020, Control_c, 0, 64, 0
4, 1495, Control_c, 0, 64, 127
4, 1740, Control_c, 0, 64, 0
4, 2227, Control_c, 0, 64, 127
4, 2436, Control_c, 0, 64, 0
4, 2950, Control_c, 0, 64, 127
4, 3155, Control_c, 0, 64, 0
4, 3344, Control_c, 0, 64, 127
4, 4017, Control_c, 0, 64, 0
4, 4386, Control_c, 0, 64, 127
4, 4577, Control_c, 0, 64, 0
4, 5826, Control_c, 0, 64, 127
4, 6229, Control_c, 0, 64, 0
4, 6286, Control_c, 0, 64, 127
4, 6501, Control_c, 0, 64, 0
4, 6600, Control_c, 0, 64, 127
4, 7232, Control_c, 0, 64, 0
4, 7334, Control_c, 0, 64, 127
4, 7947, Control_c, 0, 64, 0
4, 8080, Control_c, 0, 64, 127
4, 8694, Control_c, 0, 64, 0
4, 8732, Control_c, 0, 64, 127
4, 9109, Control_c, 0, 64, 0
4, 9166, Control_c, 0, 64, 127
4, 9381, Control_c, 0, 64, 0
4, 9480, Control_c, 0, 64, 127
4, 10112, Control_c, 0, 64, 0
4, 10416, Control_c, 0, 64, 127
4, 10827, Control_c, 0, 64, 0
4, 10960, Control_c, 0, 64, 127
4, 11520, Control_c, 0, 64, 0
4, 11586, Control_c, 0, 64, 127
4, 11989, Control_c, 0, 64, 0
4, 12046, Control_c, 0, 64, 127
4, 12261, Control_c, 0, 64, 0
4, 12360, Control_c, 0, 64, 127
4, 12992, Control_c, 0, 64, 0
4, 13094, Control_c, 0, 64, 127
4, 13707, Control_c, 0, 64, 0
4, 13840, Control_c, 0, 64, 127
4, 14454, Control_c, 0, 64, 0
4, 14492, Control_c, 0, 64, 127
4, 14869, Control_c, 0, 64, 0
4, 14926, Control_c, 0, 64, 127
4, 15141, Control_c, 0, 64, 0
4, 15240, Control_c, 0, 64, 127
4, 15872, Control_c, 0, 64, 0
4, 16158, Control_c, 0, 64, 127
4, 16587, Control_c, 0, 64, 0
4, 16720, Control_c, 0, 64, 127
4, 17280, Control_c, 0, 64, 0
4, 17346, Control_c, 0, 64, 127
4, 17749, Control_c, 0, 64, 0
4, 17806, Control_c, 0, 64, 127
4, 18021, Control_c, 0, 64, 0
4, 18120, Control_c, 0, 64, 127
4, 18752, Control_c, 0, 64, 0
4, 18854, Control_c, 0, 64, 127
4, 18988, Control_c, 0, 64, 0
4, 19600, Control_c, 0, 64, 127
4, 20160, Control_c, 0, 64, 0
4, 20226, Control_c, 0, 64, 127
4, 20629, Control_c, 0, 64, 0
4, 20686, Control_c, 0, 64, 127
4, 20901, Control_c, 0, 64, 0
4, 21000, Control_c, 0, 64, 127
4, 21632, Control_c, 0, 64, 0
4, 21734, Control_c, 0, 64, 127
4, 21872, Control_c, 0, 64, 0
4, 22480, Control_c, 0, 64, 127
4, 23054, Control_c, 0, 64, 0
4, 23106, Control_c, 0, 64, 127
4, 23280, Control_c, 0, 64, 0
4, 23774, Control_c, 0, 64, 0
4, 23826, Control_c, 0, 64, 127
4, 24000, Control_c, 0, 64, 0
4, 24494, Control_c, 0, 64, 0
4, 24546, Control_c, 0, 64, 127
4, 24720, Control_c, 0, 64, 0
4, 25214, Control_c, 0, 64, 0
4, 25266, Control_c, 0, 64, 127
4, 25440, Control_c, 0, 64, 0
4, 25934, Control_c, 0, 64, 0
4, 25986, Control_c, 0, 64, 127
4, 26160, Control_c, 0, 64, 0
4, 26654, Control_c, 0, 64, 0
4, 26706, Control_c, 0, 64, 127
4, 26880, Control_c, 0, 64, 0
4, 27374, Control_c, 0, 64, 0
4, 27426, Control_c, 0, 64, 127
4, 27600, Control_c, 0, 64, 0
4, 28151, Control_c, 0, 64, 127
4, 28560, Control_c, 0, 64, 0
4, 31026, Control_c, 0, 64, 127
4, 31688, Control_c, 0, 64, 0
4, 31800, Control_c, 0, 64, 127
4, 32408, Control_c, 0, 64, 0
4, 32534, Control_c, 0, 64, 127
4, 33120, Control_c, 0, 64, 0
4, 33186, Control_c, 0, 64, 127
4, 33846, Control_c, 0, 64, 0
4, 34014, Control_c, 0, 64, 127
4, 34568, Control_c, 0, 64, 0
4, 34680, Control_c, 0, 64, 127
4, 35280, Control_c, 0, 64, 0
4, 35395, Control_c, 0, 64, 127
4, 36000, Control_c, 0, 64, 0
4, 36066, Control_c, 0, 64, 127
4, 36720, Control_c, 0, 64, 0
4, 36854, Control_c, 0, 64, 127
4, 37448, Control_c, 0, 64, 0
4, 37560, Control_c, 0, 64, 127
4, 38160, Control_c, 0, 64, 0
4, 38309, Control_c, 0, 64, 127
4, 38880, Control_c, 0, 64, 0
4, 39014, Control_c, 0, 64, 127
4, 39608, Control_c, 0, 64, 0
4, 39720, Control_c, 0, 64, 127
4, 40320, Control_c, 0, 64, 0
4, 40469, Control_c, 0, 64, 127
4, 41040, Control_c, 0, 64, 0
4, 41189, Control_c, 0, 64, 127
4, 42480, Control_c, 0, 64, 0
4, 42546, Control_c, 0, 64, 127
4, 43208, Control_c, 0, 64, 0
4, 43320, Control_c, 0, 64, 127
4, 43928, Control_c, 0, 64, 0
4, 44054, Control_c, 0, 64, 127
4, 44640, Control_c, 0, 64, 0
4, 44706, Control_c, 0, 64, 127
4, 45366, Control_c, 0, 64, 0
4, 45534, Control_c, 0, 64, 127
4, 46088, Control_c, 0, 64, 0
4, 46200, Control_c, 0, 64, 127
4, 46800, Control_c, 0, 64, 0
4, 46915, Control_c, 0, 64, 127
4, 47520, Control_c, 0, 64, 0
4, 47586, Control_c, 0, 64, 127
4, 48240, Control_c, 0, 64, 0
4, 48374, Control_c, 0, 64, 127
4, 48968, Control_c, 0, 64, 0
4, 49080, Control_c, 0, 64, 127
4, 49680, Control_c, 0, 64, 0
4, 49829, Control_c, 0, 64, 127
4, 50400, Control_c, 0, 64, 0
4, 50534, Control_c, 0, 64, 127
4, 51128, Control_c, 0, 64, 0
4, 51240, Control_c, 0, 64, 127
4, 51840, Control_c, 0, 64, 0
4, 51989, Control_c, 0, 64, 127
4, 52560, Control_c, 0, 64, 0
4, 52709, Control_c, 0, 64, 127
4, 53280, Control_c, 0, 64, 0
4, 53454, Control_c, 0, 64, 127
4, 54004, Control_c, 0, 64, 0
4, 54120, Control_c, 0, 64, 127
4, 54720, Control_c, 0, 64, 0
4, 54880, Control_c, 0, 64, 127
4, 55449, Control_c, 0, 64, 0
4, 55600, Control_c, 0, 64, 127
4, 56167, Control_c, 0, 64, 0
4, 56294, Control_c, 0, 64, 127
4, 56883, Control_c, 0, 64, 0
4, 56995, Control_c, 0, 64, 127
4, 57600, Control_c, 0, 64, 0
4, 57734, Control_c, 0, 64, 127
4, 58320, Control_c, 0, 64, 0
4, 58435, Control_c, 0, 64, 127
4, 59059, Control_c, 0, 64, 0
4, 59106, Control_c, 0, 64, 127
4, 59509, Control_c, 0, 64, 0
4, 59566, Control_c, 0, 64, 127
4, 59781, Control_c, 0, 64, 0
4, 59880, Control_c, 0, 64, 127
4, 60512, Control_c, 0, 64, 0
4, 60614, Control_c, 0, 64, 127
4, 61227, Control_c, 0, 64, 0
4, 61360, Control_c, 0, 64, 127
4, 61974, Control_c, 0, 64, 0
4, 62012, Control_c, 0, 64, 127
4, 62389, Control_c, 0, 64, 0
4, 62446, Control_c, 0, 64, 127
4, 62661, Control_c, 0, 64, 0
4, 62760, Control_c, 0, 64, 127
4, 63392, Control_c, 0, 64, 0
4, 63696, Control_c, 0, 64, 127
4, 64107, Control_c, 0, 64, 0
4, 64240, Control_c, 0, 64, 127
4, 64800, Control_c, 0, 64, 0
4, 64866, Control_c, 0, 64, 127
4, 65269, Control_c, 0, 64, 0
4, 65326, Control_c, 0, 64, 127
4, 65541, Control_c, 0, 64, 0
4, 65640, Control_c, 0, 64, 127
4, 66272, Control_c, 0, 64, 0
4, 66374, Control_c, 0, 64, 127
4, 66987, Control_c, 0, 64, 0
4, 67120, Control_c, 0, 64, 127
4, 67734, Control_c, 0, 64, 0
4, 67772, Control_c, 0, 64, 127
4, 68149, Control_c, 0, 64, 0
4, 68206, Control_c, 0, 64, 127
4, 68421, Control_c, 0, 64, 0
4, 68520, Control_c, 0, 64, 127
4, 69152, Control_c, 0, 64, 0
4, 69438, Control_c, 0, 64, 127
4, 69867, Control_c, 0, 64, 0
4, 70000, Control_c, 0, 64, 127
4, 70560, Control_c, 0, 64, 0
4, 70626, Control_c, 0, 64, 127
4, 71029, Control_c, 0, 64, 0
4, 71086, Control_c, 0, 64, 127
4, 71301, Control_c, 0, 64, 0
4, 71400, Control_c, 0, 64, 127
4, 72032, Control_c, 0, 64, 0
4, 72134, Control_c, 0, 64, 127
4, 72268, Control_c, 0, 64, 0
4, 72880, Control_c, 0, 64, 127
4, 73440, Control_c, 0, 64, 0
4, 73506, Control_c, 0, 64, 127
4, 73909, Control_c, 0, 64, 0
4, 73966, Control_c, 0, 64, 127
4, 74181, Control_c, 0, 64, 0
4, 74280, Control_c, 0, 64, 127
4, 74912, Control_c, 0, 64, 0
4, 75014, Control_c, 0, 64, 127
4, 75152, Control_c, 0, 64, 0
4, 75760, Control_c, 0, 64, 127
4, 76334, Control_c, 0, 64, 0
4, 76386, Control_c, 0, 64, 127
4, 76560, Control_c, 0, 64, 0
4, 77054, Control_c, 0, 64, 0
4, 77106, Control_c, 0, 64, 127
4, 77280, Control_c, 0, 64, 0
4, 77774, Control_c, 0, 64, 0
4, 77826, Control_c, 0, 64, 127
4, 78000, Control_c, 0, 64, 0
4, 78494, Control_c, 0, 64, 0
4, 78546, Control_c, 0, 64, 127
4, 78720, Control_c, 0, 64, 0
4, 79214, Control_c, 0, 64, 0
4, 79266, Control_c, 0, 64, 127
4, 79440, Control_c, 0, 64, 0
4, 79934, Control_c, 0, 64, 0
4, 79986, Control_c, 0, 64, 127
4, 80160, Control_c, 0, 64, 0
4, 80654, Control_c, 0, 64, 0
4, 80706, Control_c, 0, 64, 127
4, 80880, Control_c, 0, 64, 0
4, 81431, Control_c, 0, 64, 127
4, 81840, Control_c, 0, 64, 0
4, 81840, End_track
5, 0, Start_track
5, 0, Title_t, "Buegmueller: Etueden Op. 109 - The sylphs"
5, 0, End_track
6, 0, Start_track
6, 0, Title_t, "Copyright © 2012 by Bernd Krüger"
6, 0, End_track
7, 0, Start_track
7, 0, Title_t, "http://piano-midi.de"
7, 0, End_track
8, 0, Start_track
8, 0, Title_t, "Edition: 2012-04-05"
8, 0, End_track
0, 0, End_of_file
