0, 0, Header, 1, 8, 480
1, 0, Start_track
1, 0, Title_t, "Etueden Opus 109"
1, 0, Title_t, "Die Quelle"
1, 0, Copyright_t, "Copyright © 2004 by Bernd Krueger"
1, 0, Text_t, "Friedrich Buergmueller"
1, 0, Text_t, "Andante grazioso"
1, 0, Text_t, "Erstellt am 8.9.2000\012"
1, 0, Text_t, "Normierung: 23.12.2002\012"
1, 0, Text_t, "Update am 28.7.2004\012"
1, 0, Text_t, "Update am 4.3.2012\012"
1, 0, Text_t, "Dauer: 1:53 Minuten\012"
1, 0, SMPTE_offset, 96, 0, 3, 0, 0
1, 0, Time_signature, 2, 2, 24, 8
1, 0, Key_signature, 1, "major"
1, 0, Tempo, 1016949
1, 80, Tempo, 1007557
1, 160, Tempo, 998336
1, 240, Tempo, 989446
1, 320, Tempo, 980552
1, 400, Tempo, 971975
1, 480, Tempo, 963391
1, 520, Tempo, 971975
1, 680, Tempo, 980552
1, 800, Tempo, 989446
1, 920, Tempo, 998336
1, 960, Tempo, 989446
1, 1040, Tempo, 980552
1, 1120, Tempo, 971975
1, 1200, Tempo, 963391
1, 1280, Tempo, 955110
1, 1360, Tempo, 946820
1, 1440, Tempo, 938673
1, 1600, Tempo, 946820
1, 1760, Tempo, 955110
1, 1880, Tempo, 963391
1, 2080, Tempo, 946820
1, 2240, Tempo, 938673
1, 2400, Tempo, 930665
1, 2480, Tempo, 938673
1, 2520, Tempo, 946820
1, 2600, Tempo, 955110
1, 2640, Tempo, 963391
1, 2720, Tempo, 971975
1, 2760, Tempo, 980552
1, 2800, Tempo, 989446
1, 2840, Tempo, 946820
1, 2880, Tempo, 980552
1, 2920, Tempo, 980552
1, 3160, Tempo, 971975
1, 3360, Tempo, 955110
1, 3480, Tempo, 963391
1, 3600, Tempo, 971975
1, 3720, Tempo, 980552
1, 3800, Tempo, 980552
1, 3880, Tempo, 971975
1, 3960, Tempo, 963391
1, 4040, Tempo, 955110
1, 4080, Tempo, 946820
1, 4160, Tempo, 938673
1, 4200, Tempo, 930665
1, 4280, Tempo, 922935
1, 4320, Tempo, 915192
1, 4400, Tempo, 907716
1, 4520, Tempo, 915192
1, 4640, Tempo, 922935
1, 4720, Tempo, 930665
1, 4800, Tempo, 946820
1, 5080, Tempo, 955110
1, 5360, Tempo, 963391
1, 5600, Tempo, 971975
1, 5960, Tempo, 963391
1, 6040, Tempo, 971975
1, 6120, Tempo, 980552
1, 6200, Tempo, 1046025
1, 6240, Tempo, 989446
1, 6280, Tempo, 980552
1, 6320, Tempo, 971975
1, 6360, Tempo, 963391
1, 6400, Tempo, 955110
1, 6440, Tempo, 938673
1, 6480, Tempo, 946820
1, 6500, Tempo, 955110
1, 6520, Tempo, 963391
1, 6560, Tempo, 971975
1, 6580, Tempo, 980552
1, 6600, Tempo, 989446
1, 6640, Tempo, 998336
1, 6660, Tempo, 1007557
1, 6680, Tempo, 1016949
1, 6700, Tempo, 1026518
1, 6720, Tempo, 1076619
1, 6840, Tempo, 1016949
1, 6860, Tempo, 971975
1, 6900, Tempo, 980552
1, 6920, Tempo, 989446
1, 6960, Tempo, 998336
1, 6980, Tempo, 1007557
1, 7000, Tempo, 1016949
1, 7040, Tempo, 1026518
1, 7060, Tempo, 1036090
1, 7080, Tempo, 1046025
1, 7120, Tempo, 1055966
1, 7140, Tempo, 1066288
1, 7160, Tempo, 1076619
1, 7180, Tempo, 1055966
1, 7200, Tempo, 1087548
1, 7240, Tempo, 1076619
1, 7280, Tempo, 1066288
1, 7320, Tempo, 1055966
1, 7360, Tempo, 1046025
1, 7400, Tempo, 1036090
1, 7420, Tempo, 1026518
1, 7500, Tempo, 1036090
1, 7580, Tempo, 1046025
1, 7640, Tempo, 989446
1, 7680, Tempo, 1026518
1, 7760, Tempo, 1016949
1, 7840, Tempo, 1007557
1, 7920, Tempo, 998336
1, 8000, Tempo, 989446
1, 8080, Tempo, 980552
1, 8160, Tempo, 971975
1, 8200, Tempo, 963391
1, 8400, Tempo, 971975
1, 8600, Tempo, 980552
1, 8640, Tempo, 971975
1, 8800, Tempo, 963391
1, 8960, Tempo, 955110
1, 9120, Tempo, 946820
1, 9240, Tempo, 955110
1, 9360, Tempo, 963391
1, 9480, Tempo, 971975
1, 9600, Tempo, 980552
1, 9720, Tempo, 971975
1, 9800, Tempo, 963391
1, 9920, Tempo, 955110
1, 10000, Tempo, 946820
1, 10080, Tempo, 938673
1, 10200, Tempo, 946820
1, 10320, Tempo, 955110
1, 10440, Tempo, 963391
1, 10520, Tempo, 971975
1, 10560, Tempo, 980552
1, 10720, Tempo, 971975
1, 10880, Tempo, 963391
1, 11040, Tempo, 955110
1, 11160, Tempo, 963391
1, 11280, Tempo, 971975
1, 11400, Tempo, 980552
1, 11480, Tempo, 989446
1, 11520, Tempo, 980552
1, 11600, Tempo, 971975
1, 11680, Tempo, 963391
1, 11760, Tempo, 955110
1, 11840, Tempo, 946820
1, 11920, Tempo, 938673
1, 12000, Tempo, 922935
1, 12120, Tempo, 930665
1, 12200, Tempo, 938673
1, 12280, Tempo, 946820
1, 12360, Tempo, 955110
1, 12440, Tempo, 963391
1, 12480, Tempo, 938673
1, 12760, Tempo, 955110
1, 13040, Tempo, 963391
1, 13280, Tempo, 971975
1, 13640, Tempo, 963391
1, 13720, Tempo, 971975
1, 13800, Tempo, 980552
1, 13880, Tempo, 1046025
1, 13920, Tempo, 1016949
1, 13960, Tempo, 1007557
1, 14000, Tempo, 998336
1, 14040, Tempo, 989446
1, 14080, Tempo, 980552
1, 14120, Tempo, 971975
1, 14140, Tempo, 963391
1, 14160, Tempo, 1007557
1, 14200, Tempo, 998336
1, 14240, Tempo, 1007557
1, 14280, Tempo, 1026518
1, 14320, Tempo, 1036090
1, 14360, Tempo, 1055966
1, 14400, Tempo, 1076619
1, 14520, Tempo, 1016949
1, 14560, Tempo, 1026518
1, 14580, Tempo, 1036090
1, 14620, Tempo, 1046025
1, 14640, Tempo, 1055966
1, 14680, Tempo, 1066288
1, 14700, Tempo, 1076619
1, 14740, Tempo, 1087548
1, 14760, Tempo, 1098298
1, 14800, Tempo, 1109467
1, 14820, Tempo, 1120657
1, 14860, Tempo, 1132289
1, 14880, Tempo, 1098298
1, 14960, Tempo, 1087548
1, 15000, Tempo, 1046025
1, 15040, Tempo, 1036090
1, 15080, Tempo, 1026518
1, 15120, Tempo, 1016949
1, 15140, Tempo, 1007557
1, 15200, Tempo, 1016949
1, 15240, Tempo, 1026518
1, 15280, Tempo, 1036090
1, 15320, Tempo, 1046025
1, 15340, Tempo, 1046025
1, 15360, Tempo, 989446
1, 15440, Tempo, 980552
1, 15520, Tempo, 971975
1, 15600, Tempo, 963391
1, 15680, Tempo, 955110
1, 15760, Tempo, 946820
1, 15840, Tempo, 938673
1, 16000, Tempo, 955110
1, 16160, Tempo, 963391
1, 16280, Tempo, 971975
1, 16300, Tempo, 980552
1, 16440, Tempo, 971975
1, 16560, Tempo, 963391
1, 16680, Tempo, 955110
1, 16780, Tempo, 946820
1, 16880, Tempo, 955110
1, 16960, Tempo, 963391
1, 17040, Tempo, 971975
1, 17120, Tempo, 980552
1, 17144, Tempo, 989446
1, 17160, Tempo, 998336
1, 17172, Tempo, 1007557
1, 17184, Tempo, 1016949
1, 17200, Tempo, 1026518
1, 17212, Tempo, 1036090
1, 17224, Tempo, 1046025
1, 17240, Tempo, 1055966
1, 17252, Tempo, 1066288
1, 17264, Tempo, 1076619
1, 17280, Tempo, 998336
1, 17300, Tempo, 1007557
1, 17380, Tempo, 998336
1, 17460, Tempo, 989446
1, 17520, Tempo, 980552
1, 17600, Tempo, 971975
1, 17680, Tempo, 963391
1, 17740, Tempo, 955110
1, 17800, Tempo, 963391
1, 17840, Tempo, 971975
1, 17880, Tempo, 980552
1, 17940, Tempo, 989446
1, 17980, Tempo, 998336
1, 18020, Tempo, 1007557
1, 18080, Tempo, 1016949
1, 18120, Tempo, 1026518
1, 18160, Tempo, 1036090
1, 18200, Tempo, 1046025
1, 18480, Tempo, 1026518
1, 18560, Tempo, 1016949
1, 18640, Tempo, 1007557
1, 18680, Tempo, 998336
1, 18760, Tempo, 989446
1, 18800, Tempo, 980552
1, 18840, Tempo, 989446
1, 18920, Tempo, 998336
1, 19020, Tempo, 1007557
1, 19092, Tempo, 1016949
1, 19104, Tempo, 1026518
1, 19120, Tempo, 1036090
1, 19132, Tempo, 1046025
1, 19144, Tempo, 1066288
1, 19160, Tempo, 1076619
1, 19172, Tempo, 1087548
1, 19184, Tempo, 1109467
1, 19200, Tempo, 989446
1, 19280, Tempo, 980552
1, 19360, Tempo, 971975
1, 19440, Tempo, 963391
1, 19520, Tempo, 955110
1, 19600, Tempo, 946820
1, 19680, Tempo, 938673
1, 19840, Tempo, 955110
1, 20000, Tempo, 963391
1, 20120, Tempo, 971975
1, 20140, Tempo, 980552
1, 20160, Tempo, 989446
1, 20240, Tempo, 980552
1, 20320, Tempo, 971975
1, 20400, Tempo, 963391
1, 20480, Tempo, 955110
1, 20560, Tempo, 946820
1, 20640, Tempo, 938673
1, 20800, Tempo, 955110
1, 20960, Tempo, 963391
1, 21080, Tempo, 971975
1, 21100, Tempo, 980552
1, 21120, Tempo, 989446
1, 21200, Tempo, 980552
1, 21280, Tempo, 971975
1, 21360, Tempo, 963391
1, 21440, Tempo, 955110
1, 21520, Tempo, 946820
1, 21600, Tempo, 938673
1, 21760, Tempo, 955110
1, 21920, Tempo, 963391
1, 22040, Tempo, 971975
1, 22060, Tempo, 980552
1, 22080, Tempo, 980552
1, 22360, Tempo, 989446
1, 22560, Tempo, 989446
1, 22640, Tempo, 998336
1, 22680, Tempo, 1007557
1, 22720, Tempo, 1016949
1, 22760, Tempo, 1026518
1, 22800, Tempo, 1036090
1, 22840, Tempo, 1046025
1, 23010, Tempo, 1026518
1, 23130, Tempo, 1016949
1, 23210, Tempo, 1007557
1, 23330, Tempo, 998336
1, 23410, Tempo, 989446
1, 23490, Tempo, 980552
1, 23730, Tempo, 989446
1, 23970, Tempo, 998336
1, 24050, Tempo, 989446
1, 24130, Tempo, 980552
1, 24210, Tempo, 971975
1, 24290, Tempo, 963391
1, 24370, Tempo, 955110
1, 24410, Tempo, 938673
1, 24570, Tempo, 946820
1, 24690, Tempo, 955110
1, 24810, Tempo, 963391
1, 24930, Tempo, 971975
1, 25120, Tempo, 946820
1, 25280, Tempo, 938673
1, 25440, Tempo, 930665
1, 25520, Tempo, 938673
1, 25560, Tempo, 946820
1, 25640, Tempo, 955110
1, 25680, Tempo, 963391
1, 25760, Tempo, 971975
1, 25800, Tempo, 980552
1, 25840, Tempo, 989446
1, 25880, Tempo, 946820
1, 25920, Tempo, 980552
1, 25960, Tempo, 980552
1, 26200, Tempo, 971975
1, 26400, Tempo, 955110
1, 26520, Tempo, 963391
1, 26640, Tempo, 971975
1, 26760, Tempo, 980552
1, 26840, Tempo, 980552
1, 26920, Tempo, 971975
1, 27000, Tempo, 963391
1, 27080, Tempo, 955110
1, 27120, Tempo, 946820
1, 27200, Tempo, 938673
1, 27240, Tempo, 930665
1, 27320, Tempo, 922935
1, 27360, Tempo, 915192
1, 27440, Tempo, 907716
1, 27560, Tempo, 915192
1, 27680, Tempo, 922935
1, 27760, Tempo, 930665
1, 27840, Tempo, 946820
1, 28120, Tempo, 955110
1, 28400, Tempo, 963391
1, 28640, Tempo, 971975
1, 29000, Tempo, 963391
1, 29080, Tempo, 971975
1, 29160, Tempo, 980552
1, 29240, Tempo, 1046025
1, 29280, Tempo, 989446
1, 29320, Tempo, 980552
1, 29360, Tempo, 971975
1, 29400, Tempo, 963391
1, 29440, Tempo, 955110
1, 29480, Tempo, 938673
1, 29520, Tempo, 946820
1, 29540, Tempo, 955110
1, 29560, Tempo, 963391
1, 29600, Tempo, 971975
1, 29620, Tempo, 980552
1, 29640, Tempo, 989446
1, 29680, Tempo, 998336
1, 29700, Tempo, 1007557
1, 29720, Tempo, 1016949
1, 29740, Tempo, 1026518
1, 29760, Tempo, 1076619
1, 29880, Tempo, 1016949
1, 29920, Tempo, 1026518
1, 29940, Tempo, 1036090
1, 29980, Tempo, 1046025
1, 30000, Tempo, 1055966
1, 30040, Tempo, 1066288
1, 30060, Tempo, 1076619
1, 30100, Tempo, 1087548
1, 30120, Tempo, 1098298
1, 30160, Tempo, 1109467
1, 30180, Tempo, 1120657
1, 30220, Tempo, 1132289
1, 30240, Tempo, 1098298
1, 30320, Tempo, 1087548
1, 30360, Tempo, 1046025
1, 30400, Tempo, 1036090
1, 30440, Tempo, 1026518
1, 30480, Tempo, 1016949
1, 30500, Tempo, 1007557
1, 30560, Tempo, 1016949
1, 30600, Tempo, 1026518
1, 30640, Tempo, 1036090
1, 30680, Tempo, 1046025
1, 30700, Tempo, 1046025
1, 30800, Tempo, 980552
1, 30880, Tempo, 971975
1, 30960, Tempo, 963391
1, 31040, Tempo, 955110
1, 31120, Tempo, 946820
1, 31200, Tempo, 938673
1, 31360, Tempo, 955110
1, 31520, Tempo, 963391
1, 31640, Tempo, 971975
1, 31660, Tempo, 980552
1, 31800, Tempo, 971975
1, 31920, Tempo, 963391
1, 32040, Tempo, 955110
1, 32140, Tempo, 946820
1, 32240, Tempo, 955110
1, 32320, Tempo, 963391
1, 32400, Tempo, 971975
1, 32480, Tempo, 980552
1, 32504, Tempo, 989446
1, 32520, Tempo, 998336
1, 32532, Tempo, 1007557
1, 32544, Tempo, 1016949
1, 32560, Tempo, 1026518
1, 32572, Tempo, 1036090
1, 32584, Tempo, 1046025
1, 32600, Tempo, 1055966
1, 32612, Tempo, 1066288
1, 32624, Tempo, 1076619
1, 32640, Tempo, 998336
1, 32660, Tempo, 1007557
1, 32740, Tempo, 998336
1, 32820, Tempo, 989446
1, 32880, Tempo, 980552
1, 32960, Tempo, 971975
1, 33040, Tempo, 963391
1, 33100, Tempo, 955110
1, 33160, Tempo, 963391
1, 33200, Tempo, 971975
1, 33240, Tempo, 980552
1, 33300, Tempo, 989446
1, 33340, Tempo, 998336
1, 33380, Tempo, 1007557
1, 33440, Tempo, 1016949
1, 33480, Tempo, 1026518
1, 33520, Tempo, 1036090
1, 33560, Tempo, 1046025
1, 33840, Tempo, 1026518
1, 33920, Tempo, 1016949
1, 34000, Tempo, 1007557
1, 34040, Tempo, 998336
1, 34120, Tempo, 989446
1, 34160, Tempo, 980552
1, 34200, Tempo, 989446
1, 34280, Tempo, 998336
1, 34380, Tempo, 1007557
1, 34452, Tempo, 1016949
1, 34464, Tempo, 1026518
1, 34480, Tempo, 1036090
1, 34492, Tempo, 1046025
1, 34504, Tempo, 1066288
1, 34520, Tempo, 1076619
1, 34532, Tempo, 1087548
1, 34544, Tempo, 1109467
1, 34560, Tempo, 989446
1, 34640, Tempo, 980552
1, 34720, Tempo, 971975
1, 34800, Tempo, 963391
1, 34880, Tempo, 955110
1, 34960, Tempo, 946820
1, 35040, Tempo, 938673
1, 35200, Tempo, 955110
1, 35360, Tempo, 963391
1, 35480, Tempo, 971975
1, 35500, Tempo, 980552
1, 35520, Tempo, 989446
1, 35600, Tempo, 980552
1, 35680, Tempo, 971975
1, 35760, Tempo, 963391
1, 35840, Tempo, 955110
1, 35920, Tempo, 946820
1, 36000, Tempo, 938673
1, 36160, Tempo, 955110
1, 36320, Tempo, 963391
1, 36440, Tempo, 971975
1, 36460, Tempo, 980552
1, 36480, Tempo, 989446
1, 36560, Tempo, 980552
1, 36640, Tempo, 971975
1, 36720, Tempo, 963391
1, 36800, Tempo, 955110
1, 36880, Tempo, 946820
1, 36960, Tempo, 938673
1, 37120, Tempo, 955110
1, 37280, Tempo, 963391
1, 37400, Tempo, 971975
1, 37420, Tempo, 980552
1, 37440, Tempo, 980552
1, 37720, Tempo, 989446
1, 37920, Tempo, 989446
1, 38000, Tempo, 998336
1, 38040, Tempo, 1007557
1, 38080, Tempo, 1016949
1, 38120, Tempo, 1026518
1, 38160, Tempo, 1036090
1, 38200, Tempo, 1046025
1, 38370, Tempo, 1026518
1, 38490, Tempo, 1016949
1, 38570, Tempo, 1007557
1, 38690, Tempo, 998336
1, 38770, Tempo, 989446
1, 38850, Tempo, 980552
1, 39090, Tempo, 989446
1, 39330, Tempo, 998336
1, 39410, Tempo, 989446
1, 39490, Tempo, 980552
1, 39570, Tempo, 971975
1, 39650, Tempo, 963391
1, 39730, Tempo, 955110
1, 39770, Tempo, 938673
1, 39930, Tempo, 946820
1, 40050, Tempo, 955110
1, 40170, Tempo, 963391
1, 40290, Tempo, 971975
1, 40480, Tempo, 946820
1, 40640, Tempo, 938673
1, 40800, Tempo, 930665
1, 40880, Tempo, 938673
1, 40920, Tempo, 946820
1, 41000, Tempo, 955110
1, 41040, Tempo, 963391
1, 41120, Tempo, 971975
1, 41160, Tempo, 980552
1, 41200, Tempo, 989446
1, 41240, Tempo, 946820
1, 41280, Tempo, 980552
1, 41320, Tempo, 980552
1, 41560, Tempo, 971975
1, 41760, Tempo, 955110
1, 41880, Tempo, 963391
1, 42000, Tempo, 971975
1, 42120, Tempo, 980552
1, 42200, Tempo, 980552
1, 42280, Tempo, 971975
1, 42360, Tempo, 963391
1, 42440, Tempo, 955110
1, 42480, Tempo, 946820
1, 42560, Tempo, 938673
1, 42600, Tempo, 930665
1, 42680, Tempo, 922935
1, 42720, Tempo, 915192
1, 42800, Tempo, 907716
1, 42920, Tempo, 915192
1, 43040, Tempo, 922935
1, 43120, Tempo, 930665
1, 43200, Tempo, 946820
1, 43480, Tempo, 955110
1, 43760, Tempo, 963391
1, 44000, Tempo, 971975
1, 44160, Tempo, 1076619
1, 44360, Tempo, 963391
1, 44440, Tempo, 971975
1, 44520, Tempo, 980552
1, 44600, Tempo, 1046025
1, 44640, Tempo, 989446
1, 44680, Tempo, 980552
1, 44720, Tempo, 971975
1, 44760, Tempo, 963391
1, 44800, Tempo, 955110
1, 44840, Tempo, 938673
1, 44880, Tempo, 946820
1, 44900, Tempo, 955110
1, 44920, Tempo, 963391
1, 44960, Tempo, 971975
1, 44980, Tempo, 980552
1, 45000, Tempo, 989446
1, 45040, Tempo, 998336
1, 45060, Tempo, 1007557
1, 45080, Tempo, 1016949
1, 45100, Tempo, 1026518
1, 45120, Tempo, 1025641
1, 45200, Tempo, 1016949
1, 45280, Tempo, 1008403
1, 45360, Tempo, 1000000
1, 45440, Tempo, 983607
1, 45520, Tempo, 975610
1, 45580, Tempo, 967742
1, 45600, Tempo, 975610
1, 45640, Tempo, 967742
1, 45800, Tempo, 975610
1, 45960, Tempo, 983607
1, 46040, Tempo, 1007557
1, 46120, Tempo, 998336
1, 46200, Tempo, 989446
1, 46280, Tempo, 980552
1, 46360, Tempo, 971975
1, 46440, Tempo, 963391
1, 46520, Tempo, 955110
1, 46580, Tempo, 955110
1, 46660, Tempo, 963391
1, 46740, Tempo, 971975
1, 46820, Tempo, 980552
1, 46900, Tempo, 989446
1, 46980, Tempo, 998336
1, 47060, Tempo, 1007557
1, 47080, Tempo, 989446
1, 47160, Tempo, 980552
1, 47240, Tempo, 971975
1, 47320, Tempo, 963391
1, 47400, Tempo, 1025641
1, 47480, Tempo, 946820
1, 47560, Tempo, 938673
1, 47640, Tempo, 946820
1, 47680, Tempo, 955110
1, 47760, Tempo, 963391
1, 47800, Tempo, 971975
1, 47840, Tempo, 980552
1, 47920, Tempo, 989446
1, 47960, Tempo, 998336
1, 47980, Tempo, 989446
1, 48080, Tempo, 980552
1, 48180, Tempo, 971975
1, 48280, Tempo, 963391
1, 48380, Tempo, 955110
1, 48460, Tempo, 946820
1, 48480, Tempo, 946820
1, 48580, Tempo, 955110
1, 48680, Tempo, 963391
1, 48760, Tempo, 971975
1, 48860, Tempo, 980552
1, 48940, Tempo, 989446
1, 48960, Tempo, 1007557
1, 49040, Tempo, 998336
1, 49120, Tempo, 989446
1, 49200, Tempo, 980552
1, 49280, Tempo, 971975
1, 49360, Tempo, 963391
1, 49420, Tempo, 971975
1, 49500, Tempo, 963391
1, 49580, Tempo, 955110
1, 49660, Tempo, 946820
1, 49740, Tempo, 938673
1, 49820, Tempo, 930665
1, 49900, Tempo, 922935
1, 49920, Tempo, 955110
1, 50020, Tempo, 963391
1, 50100, Tempo, 971975
1, 50180, Tempo, 980552
1, 50260, Tempo, 989446
1, 50340, Tempo, 998336
1, 50440, Tempo, 1007557
1, 50520, Tempo, 1016949
1, 50600, Tempo, 1026518
1, 50680, Tempo, 1036090
1, 50760, Tempo, 1046025
1, 50840, Tempo, 1055966
1, 50880, Tempo, 1504514
1, 51160, Tempo, 1193792
1, 51200, Tempo, 1168452
1, 51240, Tempo, 1132289
1, 51280, Tempo, 1098298
1, 51360, Tempo, 1046025
1, 53760, Tempo, 1200000
1, 53760, End_track
2, 0, Start_track
2, 0, Title_t, "Piano right"
2, 0, Program_c, 0, 0
2, 0, Control_c, 0, 7, 127
2, 0, Control_c, 0, 10, 64
2, 0, Note_on_c, 0, 71, 49
2, 0, Control_c, 0, 91, 127
2, 0, Text_t, "bdca426d104a26ac9dcb070447587523"
2, 60, Note_on_c, 0, 74, 37
2, 120, Note_on_c, 0, 74, 0
2, 120, Note_on_c, 0, 62, 31
2, 180, Note_on_c, 0, 62, 0
2, 180, Note_on_c, 0, 74, 38
2, 240, Note_on_c, 0, 74, 0
2, 240, Note_on_c, 0, 71, 0
2, 240, Note_on_c, 0, 71, 44
2, 300, Note_on_c, 0, 74, 37
2, 360, Note_on_c, 0, 74, 0
2, 360, Note_on_c, 0, 62, 31
2, 420, Note_on_c, 0, 62, 0
2, 420, Note_on_c, 0, 74, 37
2, 480, Note_on_c, 0, 74, 0
2, 480, Note_on_c, 0, 71, 0
2, 480, Note_on_c, 0, 69, 44
2, 540, Note_on_c, 0, 74, 36
2, 600, Note_on_c, 0, 74, 0
2, 600, Note_on_c, 0, 62, 30
2, 660, Note_on_c, 0, 62, 0
2, 660, Note_on_c, 0, 74, 36
2, 720, Note_on_c, 0, 74, 0
2, 720, Note_on_c, 0, 69, 0
2, 720, Note_on_c, 0, 67, 44
2, 780, Note_on_c, 0, 74, 37
2, 840, Note_on_c, 0, 74, 0
2, 840, Note_on_c, 0, 62, 33
2, 900, Note_on_c, 0, 62, 0
2, 900, Note_on_c, 0, 74, 37
2, 960, Note_on_c, 0, 74, 0
2, 960, Note_on_c, 0, 67, 0
2, 960, Note_on_c, 0, 66, 48
2, 1020, Note_on_c, 0, 74, 37
2, 1080, Note_on_c, 0, 74, 0
2, 1080, Note_on_c, 0, 62, 33
2, 1140, Note_on_c, 0, 62, 0
2, 1140, Note_on_c, 0, 74, 37
2, 1200, Note_on_c, 0, 74, 0
2, 1200, Note_on_c, 0, 66, 0
2, 1200, Note_on_c, 0, 67, 47
2, 1260, Note_on_c, 0, 74, 37
2, 1320, Note_on_c, 0, 74, 0
2, 1320, Note_on_c, 0, 62, 30
2, 1380, Note_on_c, 0, 62, 0
2, 1380, Note_on_c, 0, 74, 37
2, 1440, Note_on_c, 0, 74, 0
2, 1440, Note_on_c, 0, 67, 0
2, 1440, Note_on_c, 0, 72, 51
2, 1500, Note_on_c, 0, 74, 38
2, 1560, Note_on_c, 0, 74, 0
2, 1560, Note_on_c, 0, 62, 34
2, 1620, Note_on_c, 0, 62, 0
2, 1620, Note_on_c, 0, 74, 38
2, 1680, Note_on_c, 0, 74, 0
2, 1680, Note_on_c, 0, 72, 0
2, 1680, Note_on_c, 0, 71, 47
2, 1740, Note_on_c, 0, 74, 36
2, 1800, Note_on_c, 0, 74, 0
2, 1800, Note_on_c, 0, 62, 31
2, 1860, Note_on_c, 0, 62, 0
2, 1860, Note_on_c, 0, 74, 36
2, 1920, Note_on_c, 0, 74, 0
2, 1920, Note_on_c, 0, 71, 0
2, 1920, Note_on_c, 0, 71, 49
2, 1980, Note_on_c, 0, 74, 37
2, 2040, Note_on_c, 0, 74, 0
2, 2040, Note_on_c, 0, 62, 33
2, 2100, Note_on_c, 0, 62, 0
2, 2100, Note_on_c, 0, 74, 38
2, 2160, Note_on_c, 0, 74, 0
2, 2160, Note_on_c, 0, 71, 0
2, 2160, Note_on_c, 0, 69, 53
2, 2220, Note_on_c, 0, 74, 39
2, 2280, Note_on_c, 0, 74, 0
2, 2280, Note_on_c, 0, 62, 36
2, 2340, Note_on_c, 0, 62, 0
2, 2340, Note_on_c, 0, 74, 41
2, 2400, Note_on_c, 0, 74, 0
2, 2400, Note_on_c, 0, 69, 0
2, 2400, Note_on_c, 0, 67, 55
2, 2460, Note_on_c, 0, 74, 42
2, 2520, Note_on_c, 0, 74, 0
2, 2520, Note_on_c, 0, 62, 38
2, 2580, Note_on_c, 0, 62, 0
2, 2580, Note_on_c, 0, 74, 45
2, 2640, Note_on_c, 0, 74, 0
2, 2640, Note_on_c, 0, 67, 0
2, 2640, Note_on_c, 0, 69, 57
2, 2700, Note_on_c, 0, 74, 47
2, 2760, Note_on_c, 0, 74, 0
2, 2760, Note_on_c, 0, 62, 42
2, 2820, Note_on_c, 0, 62, 0
2, 2820, Note_on_c, 0, 74, 50
2, 2880, Note_on_c, 0, 74, 0
2, 2880, Note_on_c, 0, 69, 0
2, 2880, Note_on_c, 0, 71, 66
2, 2940, Note_on_c, 0, 74, 52
2, 3000, Note_on_c, 0, 74, 0
2, 3000, Note_on_c, 0, 71, 0
2, 3000, Note_on_c, 0, 62, 58
2, 3060, Note_on_c, 0, 74, 49
2, 3120, Note_on_c, 0, 74, 0
2, 3120, Note_on_c, 0, 62, 0
2, 3120, Note_on_c, 0, 63, 57
2, 3180, Note_on_c, 0, 74, 47
2, 3240, Note_on_c, 0, 74, 0
2, 3240, Note_on_c, 0, 63, 0
2, 3240, Note_on_c, 0, 64, 57
2, 3300, Note_on_c, 0, 74, 47
2, 3360, Note_on_c, 0, 74, 0
2, 3360, Note_on_c, 0, 64, 0
2, 3360, Note_on_c, 0, 65, 56
2, 3420, Note_on_c, 0, 74, 47
2, 3480, Note_on_c, 0, 74, 0
2, 3480, Note_on_c, 0, 65, 0
2, 3480, Note_on_c, 0, 66, 55
2, 3540, Note_on_c, 0, 74, 47
2, 3600, Note_on_c, 0, 74, 0
2, 3600, Note_on_c, 0, 66, 0
2, 3600, Note_on_c, 0, 67, 53
2, 3660, Note_on_c, 0, 74, 45
2, 3720, Note_on_c, 0, 74, 0
2, 3720, Note_on_c, 0, 67, 0
2, 3720, Note_on_c, 0, 69, 53
2, 3780, Note_on_c, 0, 74, 42
2, 3840, Note_on_c, 0, 74, 0
2, 3840, Note_on_c, 0, 69, 0
2, 3840, Note_on_c, 0, 71, 53
2, 3900, Note_on_c, 0, 74, 39
2, 3960, Note_on_c, 0, 74, 0
2, 3960, Note_on_c, 0, 76, 46
2, 4020, Note_on_c, 0, 76, 0
2, 4020, Note_on_c, 0, 74, 38
2, 4080, Note_on_c, 0, 74, 0
2, 4080, Note_on_c, 0, 71, 0
2, 4080, Note_on_c, 0, 71, 55
2, 4140, Note_on_c, 0, 74, 40
2, 4200, Note_on_c, 0, 74, 0
2, 4200, Note_on_c, 0, 76, 48
2, 4260, Note_on_c, 0, 76, 0
2, 4260, Note_on_c, 0, 74, 39
2, 4320, Note_on_c, 0, 74, 0
2, 4320, Note_on_c, 0, 71, 0
2, 4320, Note_on_c, 0, 69, 60
2, 4380, Note_on_c, 0, 74, 46
2, 4440, Note_on_c, 0, 74, 0
2, 4440, Note_on_c, 0, 76, 53
2, 4500, Note_on_c, 0, 76, 0
2, 4500, Note_on_c, 0, 74, 47
2, 4560, Note_on_c, 0, 74, 0
2, 4560, Note_on_c, 0, 69, 0
2, 4560, Note_on_c, 0, 71, 63
2, 4620, Note_on_c, 0, 79, 50
2, 4680, Note_on_c, 0, 79, 0
2, 4680, Note_on_c, 0, 81, 59
2, 4740, Note_on_c, 0, 81, 0
2, 4740, Note_on_c, 0, 79, 52
2, 4800, Note_on_c, 0, 79, 0
2, 4800, Note_on_c, 0, 71, 0
2, 4800, Note_on_c, 0, 74, 69
2, 4860, Note_on_c, 0, 79, 52
2, 4920, Note_on_c, 0, 79, 0
2, 4920, Note_on_c, 0, 81, 58
2, 4980, Note_on_c, 0, 81, 0
2, 4980, Note_on_c, 0, 79, 51
2, 5040, Note_on_c, 0, 79, 0
2, 5040, Note_on_c, 0, 74, 0
2, 5040, Note_on_c, 0, 72, 62
2, 5100, Note_on_c, 0, 79, 48
2, 5160, Note_on_c, 0, 79, 0
2, 5160, Note_on_c, 0, 81, 52
2, 5220, Note_on_c, 0, 81, 0
2, 5220, Note_on_c, 0, 79, 46
2, 5280, Note_on_c, 0, 79, 0
2, 5280, Note_on_c, 0, 72, 0
2, 5280, Note_on_c, 0, 71, 61
2, 5340, Note_on_c, 0, 79, 49
2, 5400, Note_on_c, 0, 79, 0
2, 5400, Note_on_c, 0, 81, 53
2, 5460, Note_on_c, 0, 81, 0
2, 5460, Note_on_c, 0, 79, 48
2, 5520, Note_on_c, 0, 79, 0
2, 5520, Note_on_c, 0, 71, 0
2, 5520, Note_on_c, 0, 70, 60
2, 5580, Note_on_c, 0, 79, 49
2, 5640, Note_on_c, 0, 79, 0
2, 5640, Note_on_c, 0, 78, 51
2, 5700, Note_on_c, 0, 78, 0
2, 5700, Note_on_c, 0, 76, 49
2, 5760, Note_on_c, 0, 76, 0
2, 5760, Note_on_c, 0, 70, 0
2, 5760, Note_on_c, 0, 71, 51
2, 5820, Note_on_c, 0, 74, 40
2, 5880, Note_on_c, 0, 74, 0
2, 5880, Note_on_c, 0, 76, 44
2, 5940, Note_on_c, 0, 76, 0
2, 5940, Note_on_c, 0, 74, 38
2, 6000, Note_on_c, 0, 74, 0
2, 6000, Note_on_c, 0, 71, 0
2, 6000, Note_on_c, 0, 67, 47
2, 6060, Note_on_c, 0, 74, 37
2, 6120, Note_on_c, 0, 74, 0
2, 6120, Note_on_c, 0, 76, 41
2, 6180, Note_on_c, 0, 76, 0
2, 6180, Note_on_c, 0, 74, 34
2, 6240, Note_on_c, 0, 74, 0
2, 6240, Note_on_c, 0, 67, 0
2, 6240, Note_on_c, 0, 66, 50
2, 6300, Note_on_c, 0, 74, 44
2, 6360, Note_on_c, 0, 74, 0
2, 6360, Note_on_c, 0, 66, 0
2, 6360, Note_on_c, 0, 69, 48
2, 6420, Note_on_c, 0, 74, 41
2, 6480, Note_on_c, 0, 74, 0
2, 6480, Note_on_c, 0, 69, 0
2, 6480, Note_on_c, 0, 72, 51
2, 6540, Note_on_c, 0, 74, 40
2, 6600, Note_on_c, 0, 74, 0
2, 6600, Note_on_c, 0, 72, 0
2, 6600, Note_on_c, 0, 71, 50
2, 6660, Note_on_c, 0, 74, 39
2, 6720, Note_on_c, 0, 74, 0
2, 6720, Note_on_c, 0, 71, 0
2, 6720, Note_on_c, 0, 69, 49
2, 6780, Note_on_c, 0, 74, 39
2, 6840, Note_on_c, 0, 74, 0
2, 6840, Note_on_c, 0, 73, 42
2, 6900, Note_on_c, 0, 73, 0
2, 6900, Note_on_c, 0, 74, 37
2, 6960, Note_on_c, 0, 74, 0
2, 6960, Note_on_c, 0, 76, 42
2, 7020, Note_on_c, 0, 76, 0
2, 7020, Note_on_c, 0, 74, 36
2, 7080, Note_on_c, 0, 74, 0
2, 7080, Note_on_c, 0, 73, 41
2, 7140, Note_on_c, 0, 73, 0
2, 7140, Note_on_c, 0, 74, 36
2, 7200, Note_on_c, 0, 74, 0
2, 7200, Note_on_c, 0, 69, 0
2, 7200, Note_on_c, 0, 67, 52
2, 7200, Note_on_c, 0, 79, 52
2, 7320, Note_on_c, 0, 79, 0
2, 7320, Note_on_c, 0, 67, 0
2, 7320, Note_on_c, 0, 66, 36
2, 7380, Note_on_c, 0, 66, 0
2, 7380, Note_on_c, 0, 67, 39
2, 7440, Note_on_c, 0, 67, 0
2, 7440, Note_on_c, 0, 69, 42
2, 7500, Note_on_c, 0, 69, 0
2, 7500, Note_on_c, 0, 67, 38
2, 7560, Note_on_c, 0, 67, 0
2, 7560, Note_on_c, 0, 66, 41
2, 7620, Note_on_c, 0, 66, 0
2, 7620, Note_on_c, 0, 67, 37
2, 7680, Note_on_c, 0, 67, 0
2, 7680, Note_on_c, 0, 71, 44
2, 7740, Note_on_c, 0, 74, 37
2, 7800, Note_on_c, 0, 74, 0
2, 7800, Note_on_c, 0, 62, 31
2, 7860, Note_on_c, 0, 62, 0
2, 7860, Note_on_c, 0, 74, 38
2, 7920, Note_on_c, 0, 74, 0
2, 7920, Note_on_c, 0, 71, 0
2, 7920, Note_on_c, 0, 71, 44
2, 7980, Note_on_c, 0, 74, 37
2, 8040, Note_on_c, 0, 74, 0
2, 8040, Note_on_c, 0, 62, 31
2, 8100, Note_on_c, 0, 62, 0
2, 8100, Note_on_c, 0, 74, 37
2, 8160, Note_on_c, 0, 74, 0
2, 8160, Note_on_c, 0, 71, 0
2, 8160, Note_on_c, 0, 69, 44
2, 8220, Note_on_c, 0, 74, 36
2, 8280, Note_on_c, 0, 74, 0
2, 8280, Note_on_c, 0, 62, 30
2, 8340, Note_on_c, 0, 62, 0
2, 8340, Note_on_c, 0, 74, 36
2, 8400, Note_on_c, 0, 74, 0
2, 8400, Note_on_c, 0, 69, 0
2, 8400, Note_on_c, 0, 67, 44
2, 8460, Note_on_c, 0, 74, 37
2, 8520, Note_on_c, 0, 74, 0
2, 8520, Note_on_c, 0, 62, 33
2, 8580, Note_on_c, 0, 62, 0
2, 8580, Note_on_c, 0, 74, 37
2, 8640, Note_on_c, 0, 74, 0
2, 8640, Note_on_c, 0, 67, 0
2, 8640, Note_on_c, 0, 66, 48
2, 8700, Note_on_c, 0, 74, 37
2, 8760, Note_on_c, 0, 74, 0
2, 8760, Note_on_c, 0, 62, 33
2, 8820, Note_on_c, 0, 62, 0
2, 8820, Note_on_c, 0, 74, 37
2, 8880, Note_on_c, 0, 74, 0
2, 8880, Note_on_c, 0, 66, 0
2, 8880, Note_on_c, 0, 67, 47
2, 8940, Note_on_c, 0, 74, 37
2, 9000, Note_on_c, 0, 74, 0
2, 9000, Note_on_c, 0, 62, 30
2, 9060, Note_on_c, 0, 62, 0
2, 9060, Note_on_c, 0, 74, 37
2, 9120, Note_on_c, 0, 74, 0
2, 9120, Note_on_c, 0, 67, 0
2, 9120, Note_on_c, 0, 72, 51
2, 9180, Note_on_c, 0, 74, 38
2, 9240, Note_on_c, 0, 74, 0
2, 9240, Note_on_c, 0, 62, 34
2, 9300, Note_on_c, 0, 62, 0
2, 9300, Note_on_c, 0, 74, 38
2, 9360, Note_on_c, 0, 74, 0
2, 9360, Note_on_c, 0, 72, 0
2, 9360, Note_on_c, 0, 71, 47
2, 9420, Note_on_c, 0, 74, 36
2, 9480, Note_on_c, 0, 74, 0
2, 9480, Note_on_c, 0, 62, 31
2, 9540, Note_on_c, 0, 62, 0
2, 9540, Note_on_c, 0, 74, 36
2, 9600, Note_on_c, 0, 74, 0
2, 9600, Note_on_c, 0, 71, 0
2, 9600, Note_on_c, 0, 71, 49
2, 9660, Note_on_c, 0, 74, 37
2, 9720, Note_on_c, 0, 74, 0
2, 9720, Note_on_c, 0, 62, 33
2, 9780, Note_on_c, 0, 62, 0
2, 9780, Note_on_c, 0, 74, 38
2, 9840, Note_on_c, 0, 74, 0
2, 9840, Note_on_c, 0, 71, 0
2, 9840, Note_on_c, 0, 69, 53
2, 9900, Note_on_c, 0, 74, 39
2, 9960, Note_on_c, 0, 74, 0
2, 9960, Note_on_c, 0, 62, 36
2, 10020, Note_on_c, 0, 62, 0
2, 10020, Note_on_c, 0, 74, 41
2, 10080, Note_on_c, 0, 74, 0
2, 10080, Note_on_c, 0, 69, 0
2, 10080, Note_on_c, 0, 67, 55
2, 10140, Note_on_c, 0, 74, 42
2, 10200, Note_on_c, 0, 74, 0
2, 10200, Note_on_c, 0, 62, 38
2, 10260, Note_on_c, 0, 62, 0
2, 10260, Note_on_c, 0, 74, 45
2, 10320, Note_on_c, 0, 74, 0
2, 10320, Note_on_c, 0, 67, 0
2, 10320, Note_on_c, 0, 69, 57
2, 10380, Note_on_c, 0, 74, 47
2, 10440, Note_on_c, 0, 74, 0
2, 10440, Note_on_c, 0, 62, 42
2, 10500, Note_on_c, 0, 62, 0
2, 10500, Note_on_c, 0, 74, 50
2, 10560, Note_on_c, 0, 74, 0
2, 10560, Note_on_c, 0, 69, 0
2, 10560, Note_on_c, 0, 71, 66
2, 10620, Note_on_c, 0, 74, 52
2, 10680, Note_on_c, 0, 74, 0
2, 10680, Note_on_c, 0, 71, 0
2, 10680, Note_on_c, 0, 62, 58
2, 10740, Note_on_c, 0, 74, 49
2, 10800, Note_on_c, 0, 74, 0
2, 10800, Note_on_c, 0, 62, 0
2, 10800, Note_on_c, 0, 63, 57
2, 10860, Note_on_c, 0, 74, 47
2, 10920, Note_on_c, 0, 74, 0
2, 10920, Note_on_c, 0, 63, 0
2, 10920, Note_on_c, 0, 64, 57
2, 10980, Note_on_c, 0, 74, 47
2, 11040, Note_on_c, 0, 74, 0
2, 11040, Note_on_c, 0, 64, 0
2, 11040, Note_on_c, 0, 65, 56
2, 11100, Note_on_c, 0, 74, 47
2, 11160, Note_on_c, 0, 74, 0
2, 11160, Note_on_c, 0, 65, 0
2, 11160, Note_on_c, 0, 66, 55
2, 11220, Note_on_c, 0, 74, 47
2, 11280, Note_on_c, 0, 74, 0
2, 11280, Note_on_c, 0, 66, 0
2, 11280, Note_on_c, 0, 67, 53
2, 11340, Note_on_c, 0, 74, 45
2, 11400, Note_on_c, 0, 74, 0
2, 11400, Note_on_c, 0, 67, 0
2, 11400, Note_on_c, 0, 69, 53
2, 11460, Note_on_c, 0, 74, 42
2, 11520, Note_on_c, 0, 74, 0
2, 11520, Note_on_c, 0, 69, 0
2, 11520, Note_on_c, 0, 71, 53
2, 11580, Note_on_c, 0, 74, 39
2, 11640, Note_on_c, 0, 74, 0
2, 11640, Note_on_c, 0, 76, 46
2, 11700, Note_on_c, 0, 76, 0
2, 11700, Note_on_c, 0, 74, 38
2, 11760, Note_on_c, 0, 74, 0
2, 11760, Note_on_c, 0, 71, 0
2, 11760, Note_on_c, 0, 71, 55
2, 11820, Note_on_c, 0, 74, 40
2, 11880, Note_on_c, 0, 74, 0
2, 11880, Note_on_c, 0, 76, 48
2, 11940, Note_on_c, 0, 76, 0
2, 11940, Note_on_c, 0, 74, 39
2, 12000, Note_on_c, 0, 74, 0
2, 12000, Note_on_c, 0, 71, 0
2, 12000, Note_on_c, 0, 69, 60
2, 12060, Note_on_c, 0, 74, 46
2, 12120, Note_on_c, 0, 74, 0
2, 12120, Note_on_c, 0, 76, 53
2, 12180, Note_on_c, 0, 76, 0
2, 12180, Note_on_c, 0, 74, 47
2, 12240, Note_on_c, 0, 74, 0
2, 12240, Note_on_c, 0, 69, 0
2, 12240, Note_on_c, 0, 71, 63
2, 12300, Note_on_c, 0, 79, 50
2, 12360, Note_on_c, 0, 79, 0
2, 12360, Note_on_c, 0, 81, 59
2, 12420, Note_on_c, 0, 81, 0
2, 12420, Note_on_c, 0, 79, 52
2, 12480, Note_on_c, 0, 79, 0
2, 12480, Note_on_c, 0, 71, 0
2, 12480, Note_on_c, 0, 74, 69
2, 12540, Note_on_c, 0, 79, 52
2, 12600, Note_on_c, 0, 79, 0
2, 12600, Note_on_c, 0, 81, 58
2, 12660, Note_on_c, 0, 81, 0
2, 12660, Note_on_c, 0, 79, 51
2, 12720, Note_on_c, 0, 79, 0
2, 12720, Note_on_c, 0, 74, 0
2, 12720, Note_on_c, 0, 72, 62
2, 12780, Note_on_c, 0, 79, 48
2, 12840, Note_on_c, 0, 79, 0
2, 12840, Note_on_c, 0, 81, 52
2, 12900, Note_on_c, 0, 81, 0
2, 12900, Note_on_c, 0, 79, 46
2, 12960, Note_on_c, 0, 79, 0
2, 12960, Note_on_c, 0, 72, 0
2, 12960, Note_on_c, 0, 71, 61
2, 13020, Note_on_c, 0, 79, 49
2, 13080, Note_on_c, 0, 79, 0
2, 13080, Note_on_c, 0, 81, 53
2, 13140, Note_on_c, 0, 81, 0
2, 13140, Note_on_c, 0, 79, 48
2, 13200, Note_on_c, 0, 79, 0
2, 13200, Note_on_c, 0, 71, 0
2, 13200, Note_on_c, 0, 70, 60
2, 13260, Note_on_c, 0, 79, 49
2, 13320, Note_on_c, 0, 79, 0
2, 13320, Note_on_c, 0, 78, 51
2, 13380, Note_on_c, 0, 78, 0
2, 13380, Note_on_c, 0, 76, 49
2, 13440, Note_on_c, 0, 76, 0
2, 13440, Note_on_c, 0, 70, 0
2, 13440, Note_on_c, 0, 71, 51
2, 13500, Note_on_c, 0, 74, 40
2, 13560, Note_on_c, 0, 74, 0
2, 13560, Note_on_c, 0, 76, 44
2, 13620, Note_on_c, 0, 76, 0
2, 13620, Note_on_c, 0, 74, 38
2, 13680, Note_on_c, 0, 74, 0
2, 13680, Note_on_c, 0, 71, 0
2, 13680, Note_on_c, 0, 67, 47
2, 13740, Note_on_c, 0, 74, 37
2, 13800, Note_on_c, 0, 74, 0
2, 13800, Note_on_c, 0, 76, 41
2, 13860, Note_on_c, 0, 76, 0
2, 13860, Note_on_c, 0, 74, 34
2, 13920, Note_on_c, 0, 74, 0
2, 13920, Note_on_c, 0, 67, 0
2, 13920, Note_on_c, 0, 66, 50
2, 13980, Note_on_c, 0, 74, 44
2, 14040, Note_on_c, 0, 74, 0
2, 14040, Note_on_c, 0, 66, 0
2, 14040, Note_on_c, 0, 69, 48
2, 14100, Note_on_c, 0, 74, 41
2, 14160, Note_on_c, 0, 74, 0
2, 14160, Note_on_c, 0, 69, 0
2, 14160, Note_on_c, 0, 72, 51
2, 14220, Note_on_c, 0, 74, 40
2, 14280, Note_on_c, 0, 74, 0
2, 14280, Note_on_c, 0, 72, 0
2, 14280, Note_on_c, 0, 71, 50
2, 14340, Note_on_c, 0, 74, 39
2, 14400, Note_on_c, 0, 74, 0
2, 14400, Note_on_c, 0, 71, 0
2, 14400, Note_on_c, 0, 69, 49
2, 14460, Note_on_c, 0, 74, 39
2, 14520, Note_on_c, 0, 74, 0
2, 14520, Note_on_c, 0, 73, 42
2, 14580, Note_on_c, 0, 73, 0
2, 14580, Note_on_c, 0, 74, 37
2, 14640, Note_on_c, 0, 74, 0
2, 14640, Note_on_c, 0, 76, 42
2, 14700, Note_on_c, 0, 76, 0
2, 14700, Note_on_c, 0, 74, 36
2, 14760, Note_on_c, 0, 74, 0
2, 14760, Note_on_c, 0, 73, 41
2, 14820, Note_on_c, 0, 73, 0
2, 14820, Note_on_c, 0, 74, 36
2, 14880, Note_on_c, 0, 74, 0
2, 14880, Note_on_c, 0, 69, 0
2, 14880, Note_on_c, 0, 79, 52
2, 14880, Note_on_c, 0, 67, 52
2, 15000, Note_on_c, 0, 67, 0
2, 15000, Note_on_c, 0, 79, 0
2, 15000, Note_on_c, 0, 66, 45
2, 15060, Note_on_c, 0, 66, 0
2, 15060, Note_on_c, 0, 67, 49
2, 15120, Note_on_c, 0, 67, 0
2, 15120, Note_on_c, 0, 69, 53
2, 15180, Note_on_c, 0, 69, 0
2, 15180, Note_on_c, 0, 67, 49
2, 15240, Note_on_c, 0, 67, 0
2, 15240, Note_on_c, 0, 66, 56
2, 15300, Note_on_c, 0, 66, 0
2, 15300, Note_on_c, 0, 67, 50
2, 15360, Note_on_c, 0, 67, 0
2, 15360, Note_on_c, 0, 79, 75
2, 15420, Note_on_c, 0, 67, 51
2, 15480, Note_on_c, 0, 67, 0
2, 15480, Note_on_c, 0, 72, 57
2, 15540, Note_on_c, 0, 72, 0
2, 15540, Note_on_c, 0, 67, 51
2, 15600, Note_on_c, 0, 67, 0
2, 15600, Note_on_c, 0, 79, 0
2, 15600, Note_on_c, 0, 76, 68
2, 15660, Note_on_c, 0, 67, 51
2, 15720, Note_on_c, 0, 67, 0
2, 15720, Note_on_c, 0, 72, 55
2, 15780, Note_on_c, 0, 72, 0
2, 15780, Note_on_c, 0, 67, 50
2, 15840, Note_on_c, 0, 67, 0
2, 15840, Note_on_c, 0, 76, 0
2, 15840, Note_on_c, 0, 79, 73
2, 15900, Note_on_c, 0, 67, 51
2, 15960, Note_on_c, 0, 67, 0
2, 15960, Note_on_c, 0, 72, 57
2, 16020, Note_on_c, 0, 72, 0
2, 16020, Note_on_c, 0, 67, 52
2, 16080, Note_on_c, 0, 67, 0
2, 16080, Note_on_c, 0, 79, 0
2, 16080, Note_on_c, 0, 76, 67
2, 16140, Note_on_c, 0, 67, 50
2, 16200, Note_on_c, 0, 67, 0
2, 16200, Note_on_c, 0, 72, 53
2, 16260, Note_on_c, 0, 72, 0
2, 16260, Note_on_c, 0, 67, 50
2, 16320, Note_on_c, 0, 67, 0
2, 16320, Note_on_c, 0, 76, 0
2, 16320, Note_on_c, 0, 76, 70
2, 16380, Note_on_c, 0, 67, 51
2, 16440, Note_on_c, 0, 67, 0
2, 16440, Note_on_c, 0, 66, 56
2, 16500, Note_on_c, 0, 66, 0
2, 16500, Note_on_c, 0, 67, 51
2, 16560, Note_on_c, 0, 67, 0
2, 16560, Note_on_c, 0, 76, 0
2, 16560, Note_on_c, 0, 74, 68
2, 16620, Note_on_c, 0, 62, 45
2, 16680, Note_on_c, 0, 62, 0
2, 16680, Note_on_c, 0, 67, 48
2, 16740, Note_on_c, 0, 67, 0
2, 16740, Note_on_c, 0, 62, 45
2, 16800, Note_on_c, 0, 62, 0
2, 16800, Note_on_c, 0, 74, 0
2, 16800, Note_on_c, 0, 72, 67
2, 16860, Note_on_c, 0, 62, 40
2, 16920, Note_on_c, 0, 62, 0
2, 16920, Note_on_c, 0, 66, 48
2, 16980, Note_on_c, 0, 66, 0
2, 16980, Note_on_c, 0, 62, 40
2, 17040, Note_on_c, 0, 62, 0
2, 17040, Note_on_c, 0, 72, 0
2, 17040, Note_on_c, 0, 71, 66
2, 17100, Note_on_c, 0, 62, 39
2, 17160, Note_on_c, 0, 62, 0
2, 17160, Note_on_c, 0, 67, 45
2, 17220, Note_on_c, 0, 67, 0
2, 17220, Note_on_c, 0, 62, 39
2, 17280, Note_on_c, 0, 62, 0
2, 17280, Note_on_c, 0, 71, 0
2, 17280, Note_on_c, 0, 71, 64
2, 17340, Note_on_c, 0, 62, 40
2, 17400, Note_on_c, 0, 62, 0
2, 17400, Note_on_c, 0, 65, 45
2, 17460, Note_on_c, 0, 65, 0
2, 17460, Note_on_c, 0, 62, 40
2, 17520, Note_on_c, 0, 62, 0
2, 17520, Note_on_c, 0, 71, 0
2, 17520, Note_on_c, 0, 72, 66
2, 17580, Note_on_c, 0, 62, 41
2, 17640, Note_on_c, 0, 62, 0
2, 17640, Note_on_c, 0, 66, 45
2, 17700, Note_on_c, 0, 66, 0
2, 17700, Note_on_c, 0, 62, 39
2, 17760, Note_on_c, 0, 62, 0
2, 17760, Note_on_c, 0, 72, 0
2, 17760, Note_on_c, 0, 76, 67
2, 17820, Note_on_c, 0, 62, 44
2, 17880, Note_on_c, 0, 62, 0
2, 17880, Note_on_c, 0, 66, 48
2, 17940, Note_on_c, 0, 66, 0
2, 17940, Note_on_c, 0, 62, 42
2, 18000, Note_on_c, 0, 62, 0
2, 18000, Note_on_c, 0, 76, 0
2, 18000, Note_on_c, 0, 72, 62
2, 18060, Note_on_c, 0, 62, 39
2, 18120, Note_on_c, 0, 62, 0
2, 18120, Note_on_c, 0, 66, 45
2, 18180, Note_on_c, 0, 66, 0
2, 18180, Note_on_c, 0, 62, 39
2, 18240, Note_on_c, 0, 62, 0
2, 18240, Note_on_c, 0, 72, 0
2, 18240, Note_on_c, 0, 71, 57
2, 18300, Note_on_c, 0, 62, 39
2, 18360, Note_on_c, 0, 62, 0
2, 18360, Note_on_c, 0, 67, 45
2, 18420, Note_on_c, 0, 67, 0
2, 18420, Note_on_c, 0, 62, 39
2, 18480, Note_on_c, 0, 62, 0
2, 18480, Note_on_c, 0, 71, 0
2, 18540, Note_on_c, 0, 67, 42
2, 18600, Note_on_c, 0, 67, 0
2, 18600, Note_on_c, 0, 66, 47
2, 18660, Note_on_c, 0, 66, 0
2, 18660, Note_on_c, 0, 67, 41
2, 18720, Note_on_c, 0, 67, 0
2, 18720, Note_on_c, 0, 79, 70
2, 18780, Note_on_c, 0, 79, 0
2, 18780, Note_on_c, 0, 67, 47
2, 18840, Note_on_c, 0, 67, 0
2, 18840, Note_on_c, 0, 66, 53
2, 18900, Note_on_c, 0, 66, 0
2, 18900, Note_on_c, 0, 67, 50
2, 18960, Note_on_c, 0, 67, 0
2, 18960, Note_on_c, 0, 79, 75
2, 19020, Note_on_c, 0, 79, 0
2, 19020, Note_on_c, 0, 67, 55
2, 19080, Note_on_c, 0, 67, 0
2, 19080, Note_on_c, 0, 66, 59
2, 19140, Note_on_c, 0, 66, 0
2, 19140, Note_on_c, 0, 67, 53
2, 19200, Note_on_c, 0, 67, 0
2, 19200, Note_on_c, 0, 79, 81
2, 19260, Note_on_c, 0, 67, 56
2, 19320, Note_on_c, 0, 67, 0
2, 19320, Note_on_c, 0, 70, 60
2, 19380, Note_on_c, 0, 70, 0
2, 19380, Note_on_c, 0, 67, 55
2, 19440, Note_on_c, 0, 67, 0
2, 19440, Note_on_c, 0, 79, 0
2, 19440, Note_on_c, 0, 75, 82
2, 19500, Note_on_c, 0, 67, 59
2, 19560, Note_on_c, 0, 67, 0
2, 19560, Note_on_c, 0, 70, 63
2, 19620, Note_on_c, 0, 70, 0
2, 19620, Note_on_c, 0, 67, 58
2, 19680, Note_on_c, 0, 67, 0
2, 19680, Note_on_c, 0, 75, 0
2, 19680, Note_on_c, 0, 74, 80
2, 19740, Note_on_c, 0, 67, 58
2, 19800, Note_on_c, 0, 67, 0
2, 19800, Note_on_c, 0, 70, 61
2, 19860, Note_on_c, 0, 70, 0
2, 19860, Note_on_c, 0, 67, 56
2, 19920, Note_on_c, 0, 67, 0
2, 19920, Note_on_c, 0, 74, 0
2, 19920, Note_on_c, 0, 73, 80
2, 19980, Note_on_c, 0, 67, 56
2, 20040, Note_on_c, 0, 67, 0
2, 20040, Note_on_c, 0, 70, 59
2, 20100, Note_on_c, 0, 70, 0
2, 20100, Note_on_c, 0, 67, 55
2, 20160, Note_on_c, 0, 67, 0
2, 20160, Note_on_c, 0, 73, 0
2, 20160, Note_on_c, 0, 76, 79
2, 20220, Note_on_c, 0, 67, 56
2, 20280, Note_on_c, 0, 67, 0
2, 20280, Note_on_c, 0, 71, 60
2, 20340, Note_on_c, 0, 71, 0
2, 20340, Note_on_c, 0, 67, 55
2, 20400, Note_on_c, 0, 67, 0
2, 20400, Note_on_c, 0, 76, 0
2, 20400, Note_on_c, 0, 74, 78
2, 20460, Note_on_c, 0, 62, 56
2, 20520, Note_on_c, 0, 62, 0
2, 20520, Note_on_c, 0, 67, 60
2, 20580, Note_on_c, 0, 67, 0
2, 20580, Note_on_c, 0, 62, 58
2, 20640, Note_on_c, 0, 62, 0
2, 20640, Note_on_c, 0, 74, 0
2, 20640, Note_on_c, 0, 72, 75
2, 20700, Note_on_c, 0, 62, 53
2, 20760, Note_on_c, 0, 62, 0
2, 20760, Note_on_c, 0, 66, 58
2, 20820, Note_on_c, 0, 66, 0
2, 20820, Note_on_c, 0, 62, 53
2, 20880, Note_on_c, 0, 62, 0
2, 20880, Note_on_c, 0, 72, 0
2, 20880, Note_on_c, 0, 71, 73
2, 20940, Note_on_c, 0, 62, 56
2, 21000, Note_on_c, 0, 62, 0
2, 21000, Note_on_c, 0, 67, 59
2, 21060, Note_on_c, 0, 67, 0
2, 21060, Note_on_c, 0, 62, 55
2, 21120, Note_on_c, 0, 62, 0
2, 21120, Note_on_c, 0, 71, 0
2, 21120, Note_on_c, 0, 71, 72
2, 21180, Note_on_c, 0, 61, 47
2, 21240, Note_on_c, 0, 61, 0
2, 21240, Note_on_c, 0, 67, 51
2, 21300, Note_on_c, 0, 67, 0
2, 21300, Note_on_c, 0, 61, 46
2, 21360, Note_on_c, 0, 61, 0
2, 21360, Note_on_c, 0, 71, 0
2, 21360, Note_on_c, 0, 69, 59
2, 21420, Note_on_c, 0, 61, 42
2, 21480, Note_on_c, 0, 61, 0
2, 21480, Note_on_c, 0, 67, 49
2, 21540, Note_on_c, 0, 67, 0
2, 21540, Note_on_c, 0, 61, 41
2, 21600, Note_on_c, 0, 61, 0
2, 21600, Note_on_c, 0, 69, 0
2, 21600, Note_on_c, 0, 71, 64
2, 21660, Note_on_c, 0, 60, 41
2, 21720, Note_on_c, 0, 60, 0
2, 21720, Note_on_c, 0, 66, 47
2, 21780, Note_on_c, 0, 66, 0
2, 21780, Note_on_c, 0, 60, 40
2, 21840, Note_on_c, 0, 60, 0
2, 21840, Note_on_c, 0, 71, 0
2, 21840, Note_on_c, 0, 69, 61
2, 21900, Note_on_c, 0, 60, 40
2, 21960, Note_on_c, 0, 60, 0
2, 21960, Note_on_c, 0, 66, 47
2, 22020, Note_on_c, 0, 66, 0
2, 22020, Note_on_c, 0, 60, 40
2, 22080, Note_on_c, 0, 60, 0
2, 22080, Note_on_c, 0, 69, 0
2, 22080, Note_on_c, 0, 71, 61
2, 22140, Note_on_c, 0, 59, 36
2, 22200, Note_on_c, 0, 59, 0
2, 22200, Note_on_c, 0, 62, 40
2, 22260, Note_on_c, 0, 62, 0
2, 22260, Note_on_c, 0, 69, 36
2, 22320, Note_on_c, 0, 69, 0
2, 22320, Note_on_c, 0, 71, 0
2, 22320, Note_on_c, 0, 67, 53
2, 22380, Note_on_c, 0, 67, 0
2, 22380, Note_on_c, 0, 59, 35
2, 22440, Note_on_c, 0, 59, 0
2, 22440, Note_on_c, 0, 62, 40
2, 22500, Note_on_c, 0, 62, 0
2, 22500, Note_on_c, 0, 69, 35
2, 22560, Note_on_c, 0, 69, 0
2, 22560, Note_on_c, 0, 67, 49
2, 22620, Note_on_c, 0, 67, 0
2, 22620, Note_on_c, 0, 59, 31
2, 22680, Note_on_c, 0, 59, 0
2, 22680, Note_on_c, 0, 62, 36
2, 22740, Note_on_c, 0, 62, 0
2, 22740, Note_on_c, 0, 69, 30
2, 22800, Note_on_c, 0, 69, 0
2, 22800, Note_on_c, 0, 67, 46
2, 22860, Note_on_c, 0, 67, 0
2, 22860, Note_on_c, 0, 62, 31
2, 22920, Note_on_c, 0, 62, 0
2, 22920, Note_on_c, 0, 67, 34
2, 22980, Note_on_c, 0, 67, 0
2, 22980, Note_on_c, 0, 69, 33
2, 23040, Note_on_c, 0, 69, 0
2, 23040, Note_on_c, 0, 71, 49
2, 23100, Note_on_c, 0, 74, 37
2, 23160, Note_on_c, 0, 74, 0
2, 23160, Note_on_c, 0, 62, 31
2, 23220, Note_on_c, 0, 62, 0
2, 23220, Note_on_c, 0, 74, 38
2, 23280, Note_on_c, 0, 74, 0
2, 23280, Note_on_c, 0, 71, 0
2, 23280, Note_on_c, 0, 71, 44
2, 23340, Note_on_c, 0, 74, 37
2, 23400, Note_on_c, 0, 74, 0
2, 23400, Note_on_c, 0, 62, 31
2, 23460, Note_on_c, 0, 62, 0
2, 23460, Note_on_c, 0, 74, 37
2, 23520, Note_on_c, 0, 74, 0
2, 23520, Note_on_c, 0, 71, 0
2, 23520, Note_on_c, 0, 69, 44
2, 23580, Note_on_c, 0, 74, 36
2, 23640, Note_on_c, 0, 74, 0
2, 23640, Note_on_c, 0, 62, 30
2, 23700, Note_on_c, 0, 62, 0
2, 23700, Note_on_c, 0, 74, 36
2, 23760, Note_on_c, 0, 74, 0
2, 23760, Note_on_c, 0, 69, 0
2, 23760, Note_on_c, 0, 67, 44
2, 23820, Note_on_c, 0, 74, 37
2, 23880, Note_on_c, 0, 74, 0
2, 23880, Note_on_c, 0, 62, 33
2, 23940, Note_on_c, 0, 62, 0
2, 23940, Note_on_c, 0, 74, 37
2, 24000, Note_on_c, 0, 74, 0
2, 24000, Note_on_c, 0, 67, 0
2, 24000, Note_on_c, 0, 66, 48
2, 24060, Note_on_c, 0, 74, 37
2, 24120, Note_on_c, 0, 74, 0
2, 24120, Note_on_c, 0, 62, 33
2, 24180, Note_on_c, 0, 62, 0
2, 24180, Note_on_c, 0, 74, 37
2, 24240, Note_on_c, 0, 74, 0
2, 24240, Note_on_c, 0, 66, 0
2, 24240, Note_on_c, 0, 67, 47
2, 24300, Note_on_c, 0, 74, 37
2, 24360, Note_on_c, 0, 74, 0
2, 24360, Note_on_c, 0, 62, 30
2, 24420, Note_on_c, 0, 62, 0
2, 24420, Note_on_c, 0, 74, 37
2, 24480, Note_on_c, 0, 74, 0
2, 24480, Note_on_c, 0, 67, 0
2, 24480, Note_on_c, 0, 72, 51
2, 24540, Note_on_c, 0, 74, 38
2, 24600, Note_on_c, 0, 74, 0
2, 24600, Note_on_c, 0, 62, 34
2, 24660, Note_on_c, 0, 62, 0
2, 24660, Note_on_c, 0, 74, 38
2, 24720, Note_on_c, 0, 74, 0
2, 24720, Note_on_c, 0, 72, 0
2, 24720, Note_on_c, 0, 71, 47
2, 24780, Note_on_c, 0, 74, 36
2, 24840, Note_on_c, 0, 74, 0
2, 24840, Note_on_c, 0, 62, 31
2, 24900, Note_on_c, 0, 62, 0
2, 24900, Note_on_c, 0, 74, 36
2, 24960, Note_on_c, 0, 74, 0
2, 24960, Note_on_c, 0, 71, 0
2, 24960, Note_on_c, 0, 71, 49
2, 25020, Note_on_c, 0, 74, 37
2, 25080, Note_on_c, 0, 74, 0
2, 25080, Note_on_c, 0, 62, 33
2, 25140, Note_on_c, 0, 62, 0
2, 25140, Note_on_c, 0, 74, 38
2, 25200, Note_on_c, 0, 74, 0
2, 25200, Note_on_c, 0, 71, 0
2, 25200, Note_on_c, 0, 69, 53
2, 25260, Note_on_c, 0, 74, 39
2, 25320, Note_on_c, 0, 74, 0
2, 25320, Note_on_c, 0, 62, 36
2, 25380, Note_on_c, 0, 62, 0
2, 25380, Note_on_c, 0, 74, 41
2, 25440, Note_on_c, 0, 74, 0
2, 25440, Note_on_c, 0, 69, 0
2, 25440, Note_on_c, 0, 67, 55
2, 25500, Note_on_c, 0, 74, 42
2, 25560, Note_on_c, 0, 74, 0
2, 25560, Note_on_c, 0, 62, 38
2, 25620, Note_on_c, 0, 62, 0
2, 25620, Note_on_c, 0, 74, 45
2, 25680, Note_on_c, 0, 74, 0
2, 25680, Note_on_c, 0, 67, 0
2, 25680, Note_on_c, 0, 69, 57
2, 25740, Note_on_c, 0, 74, 47
2, 25800, Note_on_c, 0, 74, 0
2, 25800, Note_on_c, 0, 62, 42
2, 25860, Note_on_c, 0, 62, 0
2, 25860, Note_on_c, 0, 74, 50
2, 25920, Note_on_c, 0, 74, 0
2, 25920, Note_on_c, 0, 69, 0
2, 25920, Note_on_c, 0, 71, 66
2, 25980, Note_on_c, 0, 74, 52
2, 26040, Note_on_c, 0, 74, 0
2, 26040, Note_on_c, 0, 71, 0
2, 26040, Note_on_c, 0, 62, 58
2, 26100, Note_on_c, 0, 74, 49
2, 26160, Note_on_c, 0, 74, 0
2, 26160, Note_on_c, 0, 62, 0
2, 26160, Note_on_c, 0, 63, 57
2, 26220, Note_on_c, 0, 74, 47
2, 26280, Note_on_c, 0, 74, 0
2, 26280, Note_on_c, 0, 63, 0
2, 26280, Note_on_c, 0, 64, 57
2, 26340, Note_on_c, 0, 74, 47
2, 26400, Note_on_c, 0, 74, 0
2, 26400, Note_on_c, 0, 64, 0
2, 26400, Note_on_c, 0, 65, 56
2, 26460, Note_on_c, 0, 74, 47
2, 26520, Note_on_c, 0, 74, 0
2, 26520, Note_on_c, 0, 65, 0
2, 26520, Note_on_c, 0, 66, 55
2, 26580, Note_on_c, 0, 74, 47
2, 26640, Note_on_c, 0, 74, 0
2, 26640, Note_on_c, 0, 66, 0
2, 26640, Note_on_c, 0, 67, 53
2, 26700, Note_on_c, 0, 74, 45
2, 26760, Note_on_c, 0, 74, 0
2, 26760, Note_on_c, 0, 67, 0
2, 26760, Note_on_c, 0, 69, 53
2, 26820, Note_on_c, 0, 74, 42
2, 26880, Note_on_c, 0, 74, 0
2, 26880, Note_on_c, 0, 69, 0
2, 26880, Note_on_c, 0, 71, 53
2, 26940, Note_on_c, 0, 74, 39
2, 27000, Note_on_c, 0, 74, 0
2, 27000, Note_on_c, 0, 76, 46
2, 27060, Note_on_c, 0, 76, 0
2, 27060, Note_on_c, 0, 74, 38
2, 27120, Note_on_c, 0, 74, 0
2, 27120, Note_on_c, 0, 71, 0
2, 27120, Note_on_c, 0, 71, 55
2, 27180, Note_on_c, 0, 74, 40
2, 27240, Note_on_c, 0, 74, 0
2, 27240, Note_on_c, 0, 76, 48
2, 27300, Note_on_c, 0, 76, 0
2, 27300, Note_on_c, 0, 74, 39
2, 27360, Note_on_c, 0, 74, 0
2, 27360, Note_on_c, 0, 71, 0
2, 27360, Note_on_c, 0, 69, 60
2, 27420, Note_on_c, 0, 74, 46
2, 27480, Note_on_c, 0, 74, 0
2, 27480, Note_on_c, 0, 76, 53
2, 27540, Note_on_c, 0, 76, 0
2, 27540, Note_on_c, 0, 74, 47
2, 27600, Note_on_c, 0, 74, 0
2, 27600, Note_on_c, 0, 69, 0
2, 27600, Note_on_c, 0, 71, 63
2, 27660, Note_on_c, 0, 79, 50
2, 27720, Note_on_c, 0, 79, 0
2, 27720, Note_on_c, 0, 81, 59
2, 27780, Note_on_c, 0, 81, 0
2, 27780, Note_on_c, 0, 79, 52
2, 27840, Note_on_c, 0, 79, 0
2, 27840, Note_on_c, 0, 71, 0
2, 27840, Note_on_c, 0, 74, 69
2, 27900, Note_on_c, 0, 79, 52
2, 27960, Note_on_c, 0, 79, 0
2, 27960, Note_on_c, 0, 81, 58
2, 28020, Note_on_c, 0, 81, 0
2, 28020, Note_on_c, 0, 79, 51
2, 28080, Note_on_c, 0, 79, 0
2, 28080, Note_on_c, 0, 74, 0
2, 28080, Note_on_c, 0, 72, 62
2, 28140, Note_on_c, 0, 79, 48
2, 28200, Note_on_c, 0, 79, 0
2, 28200, Note_on_c, 0, 81, 52
2, 28260, Note_on_c, 0, 81, 0
2, 28260, Note_on_c, 0, 79, 46
2, 28320, Note_on_c, 0, 79, 0
2, 28320, Note_on_c, 0, 72, 0
2, 28320, Note_on_c, 0, 71, 61
2, 28380, Note_on_c, 0, 79, 49
2, 28440, Note_on_c, 0, 79, 0
2, 28440, Note_on_c, 0, 81, 53
2, 28500, Note_on_c, 0, 81, 0
2, 28500, Note_on_c, 0, 79, 48
2, 28560, Note_on_c, 0, 79, 0
2, 28560, Note_on_c, 0, 71, 0
2, 28560, Note_on_c, 0, 70, 60
2, 28620, Note_on_c, 0, 79, 49
2, 28680, Note_on_c, 0, 79, 0
2, 28680, Note_on_c, 0, 78, 51
2, 28740, Note_on_c, 0, 78, 0
2, 28740, Note_on_c, 0, 76, 49
2, 28800, Note_on_c, 0, 76, 0
2, 28800, Note_on_c, 0, 70, 0
2, 28800, Note_on_c, 0, 71, 51
2, 28860, Note_on_c, 0, 74, 40
2, 28920, Note_on_c, 0, 74, 0
2, 28920, Note_on_c, 0, 76, 44
2, 28980, Note_on_c, 0, 76, 0
2, 28980, Note_on_c, 0, 74, 38
2, 29040, Note_on_c, 0, 74, 0
2, 29040, Note_on_c, 0, 71, 0
2, 29040, Note_on_c, 0, 67, 47
2, 29100, Note_on_c, 0, 74, 37
2, 29160, Note_on_c, 0, 74, 0
2, 29160, Note_on_c, 0, 76, 41
2, 29220, Note_on_c, 0, 76, 0
2, 29220, Note_on_c, 0, 74, 34
2, 29280, Note_on_c, 0, 74, 0
2, 29280, Note_on_c, 0, 67, 0
2, 29280, Note_on_c, 0, 66, 50
2, 29340, Note_on_c, 0, 74, 44
2, 29400, Note_on_c, 0, 74, 0
2, 29400, Note_on_c, 0, 66, 0
2, 29400, Note_on_c, 0, 69, 48
2, 29460, Note_on_c, 0, 74, 41
2, 29520, Note_on_c, 0, 74, 0
2, 29520, Note_on_c, 0, 69, 0
2, 29520, Note_on_c, 0, 72, 51
2, 29580, Note_on_c, 0, 74, 40
2, 29640, Note_on_c, 0, 74, 0
2, 29640, Note_on_c, 0, 72, 0
2, 29640, Note_on_c, 0, 71, 50
2, 29700, Note_on_c, 0, 74, 39
2, 29760, Note_on_c, 0, 74, 0
2, 29760, Note_on_c, 0, 71, 0
2, 29760, Note_on_c, 0, 69, 49
2, 29820, Note_on_c, 0, 74, 39
2, 29880, Note_on_c, 0, 74, 0
2, 29880, Note_on_c, 0, 73, 42
2, 29940, Note_on_c, 0, 73, 0
2, 29940, Note_on_c, 0, 74, 37
2, 30000, Note_on_c, 0, 74, 0
2, 30000, Note_on_c, 0, 76, 42
2, 30060, Note_on_c, 0, 76, 0
2, 30060, Note_on_c, 0, 74, 36
2, 30120, Note_on_c, 0, 74, 0
2, 30120, Note_on_c, 0, 73, 41
2, 30180, Note_on_c, 0, 73, 0
2, 30180, Note_on_c, 0, 74, 36
2, 30240, Note_on_c, 0, 74, 0
2, 30240, Note_on_c, 0, 69, 0
2, 30240, Note_on_c, 0, 67, 52
2, 30240, Note_on_c, 0, 79, 52
2, 30360, Note_on_c, 0, 79, 0
2, 30360, Note_on_c, 0, 67, 0
2, 30360, Note_on_c, 0, 66, 45
2, 30420, Note_on_c, 0, 66, 0
2, 30420, Note_on_c, 0, 67, 49
2, 30480, Note_on_c, 0, 67, 0
2, 30480, Note_on_c, 0, 69, 53
2, 30540, Note_on_c, 0, 69, 0
2, 30540, Note_on_c, 0, 67, 49
2, 30600, Note_on_c, 0, 67, 0
2, 30600, Note_on_c, 0, 66, 56
2, 30660, Note_on_c, 0, 66, 0
2, 30660, Note_on_c, 0, 67, 50
2, 30720, Note_on_c, 0, 67, 0
2, 30720, Note_on_c, 0, 79, 75
2, 30780, Note_on_c, 0, 67, 51
2, 30840, Note_on_c, 0, 67, 0
2, 30840, Note_on_c, 0, 72, 57
2, 30900, Note_on_c, 0, 72, 0
2, 30900, Note_on_c, 0, 67, 51
2, 30960, Note_on_c, 0, 67, 0
2, 30960, Note_on_c, 0, 79, 0
2, 30960, Note_on_c, 0, 76, 68
2, 31020, Note_on_c, 0, 67, 51
2, 31080, Note_on_c, 0, 67, 0
2, 31080, Note_on_c, 0, 72, 55
2, 31140, Note_on_c, 0, 72, 0
2, 31140, Note_on_c, 0, 67, 50
2, 31200, Note_on_c, 0, 67, 0
2, 31200, Note_on_c, 0, 76, 0
2, 31200, Note_on_c, 0, 79, 73
2, 31260, Note_on_c, 0, 67, 51
2, 31320, Note_on_c, 0, 67, 0
2, 31320, Note_on_c, 0, 72, 57
2, 31380, Note_on_c, 0, 72, 0
2, 31380, Note_on_c, 0, 67, 52
2, 31440, Note_on_c, 0, 67, 0
2, 31440, Note_on_c, 0, 79, 0
2, 31440, Note_on_c, 0, 76, 67
2, 31500, Note_on_c, 0, 67, 50
2, 31560, Note_on_c, 0, 67, 0
2, 31560, Note_on_c, 0, 72, 53
2, 31620, Note_on_c, 0, 72, 0
2, 31620, Note_on_c, 0, 67, 50
2, 31680, Note_on_c, 0, 67, 0
2, 31680, Note_on_c, 0, 76, 0
2, 31680, Note_on_c, 0, 76, 70
2, 31740, Note_on_c, 0, 67, 51
2, 31800, Note_on_c, 0, 67, 0
2, 31800, Note_on_c, 0, 66, 56
2, 31860, Note_on_c, 0, 66, 0
2, 31860, Note_on_c, 0, 67, 51
2, 31920, Note_on_c, 0, 67, 0
2, 31920, Note_on_c, 0, 76, 0
2, 31920, Note_on_c, 0, 74, 68
2, 31980, Note_on_c, 0, 62, 45
2, 32040, Note_on_c, 0, 62, 0
2, 32040, Note_on_c, 0, 67, 48
2, 32100, Note_on_c, 0, 67, 0
2, 32100, Note_on_c, 0, 62, 45
2, 32160, Note_on_c, 0, 62, 0
2, 32160, Note_on_c, 0, 74, 0
2, 32160, Note_on_c, 0, 72, 67
2, 32220, Note_on_c, 0, 62, 40
2, 32280, Note_on_c, 0, 62, 0
2, 32280, Note_on_c, 0, 66, 48
2, 32340, Note_on_c, 0, 66, 0
2, 32340, Note_on_c, 0, 62, 40
2, 32400, Note_on_c, 0, 62, 0
2, 32400, Note_on_c, 0, 72, 0
2, 32400, Note_on_c, 0, 71, 66
2, 32460, Note_on_c, 0, 62, 39
2, 32520, Note_on_c, 0, 62, 0
2, 32520, Note_on_c, 0, 67, 45
2, 32580, Note_on_c, 0, 67, 0
2, 32580, Note_on_c, 0, 62, 39
2, 32640, Note_on_c, 0, 62, 0
2, 32640, Note_on_c, 0, 71, 0
2, 32640, Note_on_c, 0, 71, 64
2, 32700, Note_on_c, 0, 62, 40
2, 32760, Note_on_c, 0, 62, 0
2, 32760, Note_on_c, 0, 65, 45
2, 32820, Note_on_c, 0, 65, 0
2, 32820, Note_on_c, 0, 62, 40
2, 32880, Note_on_c, 0, 62, 0
2, 32880, Note_on_c, 0, 71, 0
2, 32880, Note_on_c, 0, 72, 66
2, 32940, Note_on_c, 0, 62, 41
2, 33000, Note_on_c, 0, 62, 0
2, 33000, Note_on_c, 0, 66, 45
2, 33060, Note_on_c, 0, 66, 0
2, 33060, Note_on_c, 0, 62, 39
2, 33120, Note_on_c, 0, 62, 0
2, 33120, Note_on_c, 0, 72, 0
2, 33120, Note_on_c, 0, 76, 67
2, 33180, Note_on_c, 0, 62, 44
2, 33240, Note_on_c, 0, 62, 0
2, 33240, Note_on_c, 0, 66, 48
2, 33300, Note_on_c, 0, 66, 0
2, 33300, Note_on_c, 0, 62, 42
2, 33360, Note_on_c, 0, 62, 0
2, 33360, Note_on_c, 0, 76, 0
2, 33360, Note_on_c, 0, 72, 62
2, 33420, Note_on_c, 0, 62, 39
2, 33480, Note_on_c, 0, 62, 0
2, 33480, Note_on_c, 0, 66, 45
2, 33540, Note_on_c, 0, 66, 0
2, 33540, Note_on_c, 0, 62, 39
2, 33600, Note_on_c, 0, 62, 0
2, 33600, Note_on_c, 0, 72, 0
2, 33600, Note_on_c, 0, 71, 57
2, 33660, Note_on_c, 0, 62, 39
2, 33720, Note_on_c, 0, 62, 0
2, 33720, Note_on_c, 0, 67, 45
2, 33780, Note_on_c, 0, 67, 0
2, 33780, Note_on_c, 0, 62, 39
2, 33840, Note_on_c, 0, 62, 0
2, 33840, Note_on_c, 0, 71, 0
2, 33900, Note_on_c, 0, 67, 42
2, 33960, Note_on_c, 0, 67, 0
2, 33960, Note_on_c, 0, 66, 47
2, 34020, Note_on_c, 0, 66, 0
2, 34020, Note_on_c, 0, 67, 41
2, 34080, Note_on_c, 0, 67, 0
2, 34080, Note_on_c, 0, 79, 70
2, 34140, Note_on_c, 0, 79, 0
2, 34140, Note_on_c, 0, 67, 47
2, 34200, Note_on_c, 0, 67, 0
2, 34200, Note_on_c, 0, 66, 53
2, 34260, Note_on_c, 0, 66, 0
2, 34260, Note_on_c, 0, 67, 50
2, 34320, Note_on_c, 0, 67, 0
2, 34320, Note_on_c, 0, 79, 75
2, 34380, Note_on_c, 0, 79, 0
2, 34380, Note_on_c, 0, 67, 55
2, 34440, Note_on_c, 0, 67, 0
2, 34440, Note_on_c, 0, 66, 59
2, 34500, Note_on_c, 0, 66, 0
2, 34500, Note_on_c, 0, 67, 53
2, 34560, Note_on_c, 0, 67, 0
2, 34560, Note_on_c, 0, 79, 81
2, 34620, Note_on_c, 0, 67, 56
2, 34680, Note_on_c, 0, 67, 0
2, 34680, Note_on_c, 0, 70, 60
2, 34740, Note_on_c, 0, 70, 0
2, 34740, Note_on_c, 0, 67, 55
2, 34800, Note_on_c, 0, 67, 0
2, 34800, Note_on_c, 0, 79, 0
2, 34800, Note_on_c, 0, 75, 82
2, 34860, Note_on_c, 0, 67, 59
2, 34920, Note_on_c, 0, 67, 0
2, 34920, Note_on_c, 0, 70, 63
2, 34980, Note_on_c, 0, 70, 0
2, 34980, Note_on_c, 0, 67, 58
2, 35040, Note_on_c, 0, 67, 0
2, 35040, Note_on_c, 0, 75, 0
2, 35040, Note_on_c, 0, 74, 80
2, 35100, Note_on_c, 0, 67, 58
2, 35160, Note_on_c, 0, 67, 0
2, 35160, Note_on_c, 0, 70, 61
2, 35220, Note_on_c, 0, 70, 0
2, 35220, Note_on_c, 0, 67, 56
2, 35280, Note_on_c, 0, 67, 0
2, 35280, Note_on_c, 0, 74, 0
2, 35280, Note_on_c, 0, 73, 80
2, 35340, Note_on_c, 0, 67, 56
2, 35400, Note_on_c, 0, 67, 0
2, 35400, Note_on_c, 0, 70, 59
2, 35460, Note_on_c, 0, 70, 0
2, 35460, Note_on_c, 0, 67, 55
2, 35520, Note_on_c, 0, 67, 0
2, 35520, Note_on_c, 0, 73, 0
2, 35520, Note_on_c, 0, 76, 79
2, 35580, Note_on_c, 0, 67, 56
2, 35640, Note_on_c, 0, 67, 0
2, 35640, Note_on_c, 0, 71, 60
2, 35700, Note_on_c, 0, 71, 0
2, 35700, Note_on_c, 0, 67, 55
2, 35760, Note_on_c, 0, 67, 0
2, 35760, Note_on_c, 0, 76, 0
2, 35760, Note_on_c, 0, 74, 78
2, 35820, Note_on_c, 0, 62, 56
2, 35880, Note_on_c, 0, 62, 0
2, 35880, Note_on_c, 0, 67, 60
2, 35940, Note_on_c, 0, 67, 0
2, 35940, Note_on_c, 0, 62, 58
2, 36000, Note_on_c, 0, 62, 0
2, 36000, Note_on_c, 0, 74, 0
2, 36000, Note_on_c, 0, 72, 75
2, 36060, Note_on_c, 0, 62, 53
2, 36120, Note_on_c, 0, 62, 0
2, 36120, Note_on_c, 0, 66, 58
2, 36180, Note_on_c, 0, 66, 0
2, 36180, Note_on_c, 0, 62, 53
2, 36240, Note_on_c, 0, 62, 0
2, 36240, Note_on_c, 0, 72, 0
2, 36240, Note_on_c, 0, 71, 73
2, 36300, Note_on_c, 0, 62, 56
2, 36360, Note_on_c, 0, 62, 0
2, 36360, Note_on_c, 0, 67, 59
2, 36420, Note_on_c, 0, 67, 0
2, 36420, Note_on_c, 0, 62, 55
2, 36480, Note_on_c, 0, 62, 0
2, 36480, Note_on_c, 0, 71, 0
2, 36480, Note_on_c, 0, 71, 72
2, 36540, Note_on_c, 0, 61, 47
2, 36600, Note_on_c, 0, 61, 0
2, 36600, Note_on_c, 0, 67, 51
2, 36660, Note_on_c, 0, 67, 0
2, 36660, Note_on_c, 0, 61, 46
2, 36720, Note_on_c, 0, 61, 0
2, 36720, Note_on_c, 0, 71, 0
2, 36720, Note_on_c, 0, 69, 59
2, 36780, Note_on_c, 0, 61, 42
2, 36840, Note_on_c, 0, 61, 0
2, 36840, Note_on_c, 0, 67, 49
2, 36900, Note_on_c, 0, 67, 0
2, 36900, Note_on_c, 0, 61, 41
2, 36960, Note_on_c, 0, 61, 0
2, 36960, Note_on_c, 0, 69, 0
2, 36960, Note_on_c, 0, 71, 64
2, 37020, Note_on_c, 0, 60, 41
2, 37080, Note_on_c, 0, 60, 0
2, 37080, Note_on_c, 0, 66, 47
2, 37140, Note_on_c, 0, 66, 0
2, 37140, Note_on_c, 0, 60, 40
2, 37200, Note_on_c, 0, 60, 0
2, 37200, Note_on_c, 0, 71, 0
2, 37200, Note_on_c, 0, 69, 61
2, 37260, Note_on_c, 0, 60, 40
2, 37320, Note_on_c, 0, 60, 0
2, 37320, Note_on_c, 0, 66, 47
2, 37380, Note_on_c, 0, 66, 0
2, 37380, Note_on_c, 0, 60, 40
2, 37440, Note_on_c, 0, 60, 0
2, 37440, Note_on_c, 0, 69, 0
2, 37440, Note_on_c, 0, 71, 61
2, 37500, Note_on_c, 0, 59, 36
2, 37560, Note_on_c, 0, 59, 0
2, 37560, Note_on_c, 0, 62, 40
2, 37620, Note_on_c, 0, 62, 0
2, 37620, Note_on_c, 0, 69, 36
2, 37680, Note_on_c, 0, 69, 0
2, 37680, Note_on_c, 0, 71, 0
2, 37680, Note_on_c, 0, 67, 53
2, 37740, Note_on_c, 0, 67, 0
2, 37740, Note_on_c, 0, 59, 35
2, 37800, Note_on_c, 0, 59, 0
2, 37800, Note_on_c, 0, 62, 39
2, 37860, Note_on_c, 0, 62, 0
2, 37860, Note_on_c, 0, 69, 35
2, 37920, Note_on_c, 0, 69, 0
2, 37920, Note_on_c, 0, 67, 50
2, 37980, Note_on_c, 0, 67, 0
2, 37980, Note_on_c, 0, 59, 31
2, 38040, Note_on_c, 0, 59, 0
2, 38040, Note_on_c, 0, 62, 36
2, 38100, Note_on_c, 0, 62, 0
2, 38100, Note_on_c, 0, 69, 30
2, 38160, Note_on_c, 0, 69, 0
2, 38160, Note_on_c, 0, 67, 48
2, 38220, Note_on_c, 0, 67, 0
2, 38220, Note_on_c, 0, 62, 34
2, 38280, Note_on_c, 0, 62, 0
2, 38280, Note_on_c, 0, 67, 36
2, 38340, Note_on_c, 0, 67, 0
2, 38340, Note_on_c, 0, 69, 33
2, 38400, Note_on_c, 0, 69, 0
2, 38400, Note_on_c, 0, 71, 49
2, 38460, Note_on_c, 0, 74, 37
2, 38520, Note_on_c, 0, 74, 0
2, 38520, Note_on_c, 0, 62, 31
2, 38580, Note_on_c, 0, 62, 0
2, 38580, Note_on_c, 0, 74, 38
2, 38640, Note_on_c, 0, 74, 0
2, 38640, Note_on_c, 0, 71, 0
2, 38640, Note_on_c, 0, 71, 44
2, 38700, Note_on_c, 0, 74, 37
2, 38760, Note_on_c, 0, 74, 0
2, 38760, Note_on_c, 0, 62, 31
2, 38820, Note_on_c, 0, 62, 0
2, 38820, Note_on_c, 0, 74, 37
2, 38880, Note_on_c, 0, 74, 0
2, 38880, Note_on_c, 0, 71, 0
2, 38880, Note_on_c, 0, 69, 44
2, 38940, Note_on_c, 0, 74, 36
2, 39000, Note_on_c, 0, 74, 0
2, 39000, Note_on_c, 0, 62, 30
2, 39060, Note_on_c, 0, 62, 0
2, 39060, Note_on_c, 0, 74, 36
2, 39120, Note_on_c, 0, 74, 0
2, 39120, Note_on_c, 0, 69, 0
2, 39120, Note_on_c, 0, 67, 44
2, 39180, Note_on_c, 0, 74, 37
2, 39240, Note_on_c, 0, 74, 0
2, 39240, Note_on_c, 0, 62, 33
2, 39300, Note_on_c, 0, 62, 0
2, 39300, Note_on_c, 0, 74, 37
2, 39360, Note_on_c, 0, 74, 0
2, 39360, Note_on_c, 0, 67, 0
2, 39360, Note_on_c, 0, 66, 48
2, 39420, Note_on_c, 0, 74, 37
2, 39480, Note_on_c, 0, 74, 0
2, 39480, Note_on_c, 0, 62, 33
2, 39540, Note_on_c, 0, 62, 0
2, 39540, Note_on_c, 0, 74, 37
2, 39600, Note_on_c, 0, 74, 0
2, 39600, Note_on_c, 0, 66, 0
2, 39600, Note_on_c, 0, 67, 47
2, 39660, Note_on_c, 0, 74, 37
2, 39720, Note_on_c, 0, 74, 0
2, 39720, Note_on_c, 0, 62, 30
2, 39780, Note_on_c, 0, 62, 0
2, 39780, Note_on_c, 0, 74, 37
2, 39840, Note_on_c, 0, 74, 0
2, 39840, Note_on_c, 0, 67, 0
2, 39840, Note_on_c, 0, 72, 51
2, 39900, Note_on_c, 0, 74, 38
2, 39960, Note_on_c, 0, 74, 0
2, 39960, Note_on_c, 0, 62, 34
2, 40020, Note_on_c, 0, 62, 0
2, 40020, Note_on_c, 0, 74, 38
2, 40080, Note_on_c, 0, 74, 0
2, 40080, Note_on_c, 0, 72, 0
2, 40080, Note_on_c, 0, 71, 47
2, 40140, Note_on_c, 0, 74, 36
2, 40200, Note_on_c, 0, 74, 0
2, 40200, Note_on_c, 0, 62, 31
2, 40260, Note_on_c, 0, 62, 0
2, 40260, Note_on_c, 0, 74, 36
2, 40320, Note_on_c, 0, 74, 0
2, 40320, Note_on_c, 0, 71, 0
2, 40320, Note_on_c, 0, 71, 49
2, 40380, Note_on_c, 0, 74, 37
2, 40440, Note_on_c, 0, 74, 0
2, 40440, Note_on_c, 0, 62, 33
2, 40500, Note_on_c, 0, 62, 0
2, 40500, Note_on_c, 0, 74, 38
2, 40560, Note_on_c, 0, 74, 0
2, 40560, Note_on_c, 0, 71, 0
2, 40560, Note_on_c, 0, 69, 53
2, 40620, Note_on_c, 0, 74, 39
2, 40680, Note_on_c, 0, 74, 0
2, 40680, Note_on_c, 0, 62, 36
2, 40740, Note_on_c, 0, 62, 0
2, 40740, Note_on_c, 0, 74, 41
2, 40800, Note_on_c, 0, 74, 0
2, 40800, Note_on_c, 0, 69, 0
2, 40800, Note_on_c, 0, 67, 55
2, 40860, Note_on_c, 0, 74, 42
2, 40920, Note_on_c, 0, 74, 0
2, 40920, Note_on_c, 0, 62, 38
2, 40980, Note_on_c, 0, 62, 0
2, 40980, Note_on_c, 0, 74, 45
2, 41040, Note_on_c, 0, 74, 0
2, 41040, Note_on_c, 0, 67, 0
2, 41040, Note_on_c, 0, 69, 57
2, 41100, Note_on_c, 0, 74, 47
2, 41160, Note_on_c, 0, 74, 0
2, 41160, Note_on_c, 0, 62, 42
2, 41220, Note_on_c, 0, 62, 0
2, 41220, Note_on_c, 0, 74, 50
2, 41280, Note_on_c, 0, 74, 0
2, 41280, Note_on_c, 0, 69, 0
2, 41280, Note_on_c, 0, 71, 66
2, 41340, Note_on_c, 0, 74, 52
2, 41400, Note_on_c, 0, 74, 0
2, 41400, Note_on_c, 0, 71, 0
2, 41400, Note_on_c, 0, 62, 58
2, 41460, Note_on_c, 0, 74, 49
2, 41520, Note_on_c, 0, 74, 0
2, 41520, Note_on_c, 0, 62, 0
2, 41520, Note_on_c, 0, 63, 57
2, 41580, Note_on_c, 0, 74, 47
2, 41640, Note_on_c, 0, 74, 0
2, 41640, Note_on_c, 0, 63, 0
2, 41640, Note_on_c, 0, 64, 57
2, 41700, Note_on_c, 0, 74, 47
2, 41760, Note_on_c, 0, 74, 0
2, 41760, Note_on_c, 0, 64, 0
2, 41760, Note_on_c, 0, 65, 56
2, 41820, Note_on_c, 0, 74, 47
2, 41880, Note_on_c, 0, 74, 0
2, 41880, Note_on_c, 0, 65, 0
2, 41880, Note_on_c, 0, 66, 55
2, 41940, Note_on_c, 0, 74, 47
2, 42000, Note_on_c, 0, 74, 0
2, 42000, Note_on_c, 0, 66, 0
2, 42000, Note_on_c, 0, 67, 53
2, 42060, Note_on_c, 0, 74, 45
2, 42120, Note_on_c, 0, 74, 0
2, 42120, Note_on_c, 0, 67, 0
2, 42120, Note_on_c, 0, 69, 53
2, 42180, Note_on_c, 0, 74, 42
2, 42240, Note_on_c, 0, 74, 0
2, 42240, Note_on_c, 0, 69, 0
2, 42240, Note_on_c, 0, 71, 53
2, 42300, Note_on_c, 0, 74, 39
2, 42360, Note_on_c, 0, 74, 0
2, 42360, Note_on_c, 0, 76, 46
2, 42420, Note_on_c, 0, 76, 0
2, 42420, Note_on_c, 0, 74, 38
2, 42480, Note_on_c, 0, 74, 0
2, 42480, Note_on_c, 0, 71, 0
2, 42480, Note_on_c, 0, 71, 55
2, 42540, Note_on_c, 0, 74, 40
2, 42600, Note_on_c, 0, 74, 0
2, 42600, Note_on_c, 0, 76, 48
2, 42660, Note_on_c, 0, 76, 0
2, 42660, Note_on_c, 0, 74, 39
2, 42720, Note_on_c, 0, 74, 0
2, 42720, Note_on_c, 0, 71, 0
2, 42720, Note_on_c, 0, 69, 60
2, 42780, Note_on_c, 0, 74, 46
2, 42840, Note_on_c, 0, 74, 0
2, 42840, Note_on_c, 0, 76, 53
2, 42900, Note_on_c, 0, 76, 0
2, 42900, Note_on_c, 0, 74, 47
2, 42960, Note_on_c, 0, 74, 0
2, 42960, Note_on_c, 0, 69, 0
2, 42960, Note_on_c, 0, 71, 63
2, 43020, Note_on_c, 0, 79, 50
2, 43080, Note_on_c, 0, 79, 0
2, 43080, Note_on_c, 0, 81, 59
2, 43140, Note_on_c, 0, 81, 0
2, 43140, Note_on_c, 0, 79, 52
2, 43200, Note_on_c, 0, 79, 0
2, 43200, Note_on_c, 0, 71, 0
2, 43200, Note_on_c, 0, 74, 69
2, 43260, Note_on_c, 0, 79, 52
2, 43320, Note_on_c, 0, 79, 0
2, 43320, Note_on_c, 0, 81, 58
2, 43380, Note_on_c, 0, 81, 0
2, 43380, Note_on_c, 0, 79, 51
2, 43440, Note_on_c, 0, 79, 0
2, 43440, Note_on_c, 0, 74, 0
2, 43440, Note_on_c, 0, 72, 62
2, 43500, Note_on_c, 0, 79, 48
2, 43560, Note_on_c, 0, 79, 0
2, 43560, Note_on_c, 0, 81, 52
2, 43620, Note_on_c, 0, 81, 0
2, 43620, Note_on_c, 0, 79, 46
2, 43680, Note_on_c, 0, 79, 0
2, 43680, Note_on_c, 0, 72, 0
2, 43680, Note_on_c, 0, 71, 61
2, 43740, Note_on_c, 0, 79, 49
2, 43800, Note_on_c, 0, 79, 0
2, 43800, Note_on_c, 0, 81, 53
2, 43860, Note_on_c, 0, 81, 0
2, 43860, Note_on_c, 0, 79, 48
2, 43920, Note_on_c, 0, 79, 0
2, 43920, Note_on_c, 0, 71, 0
2, 43920, Note_on_c, 0, 70, 60
2, 43980, Note_on_c, 0, 79, 49
2, 44040, Note_on_c, 0, 79, 0
2, 44040, Note_on_c, 0, 78, 51
2, 44100, Note_on_c, 0, 78, 0
2, 44100, Note_on_c, 0, 76, 49
2, 44160, Note_on_c, 0, 76, 0
2, 44160, Note_on_c, 0, 70, 0
2, 44160, Note_on_c, 0, 71, 51
2, 44220, Note_on_c, 0, 74, 40
2, 44280, Note_on_c, 0, 74, 0
2, 44280, Note_on_c, 0, 76, 44
2, 44340, Note_on_c, 0, 76, 0
2, 44340, Note_on_c, 0, 74, 38
2, 44400, Note_on_c, 0, 74, 0
2, 44400, Note_on_c, 0, 71, 0
2, 44400, Note_on_c, 0, 67, 47
2, 44460, Note_on_c, 0, 74, 37
2, 44520, Note_on_c, 0, 74, 0
2, 44520, Note_on_c, 0, 76, 41
2, 44580, Note_on_c, 0, 76, 0
2, 44580, Note_on_c, 0, 74, 34
2, 44640, Note_on_c, 0, 74, 0
2, 44640, Note_on_c, 0, 67, 0
2, 44640, Note_on_c, 0, 66, 50
2, 44700, Note_on_c, 0, 74, 44
2, 44760, Note_on_c, 0, 74, 0
2, 44760, Note_on_c, 0, 66, 0
2, 44760, Note_on_c, 0, 69, 48
2, 44820, Note_on_c, 0, 74, 41
2, 44880, Note_on_c, 0, 74, 0
2, 44880, Note_on_c, 0, 69, 0
2, 44880, Note_on_c, 0, 72, 51
2, 44940, Note_on_c, 0, 74, 40
2, 45000, Note_on_c, 0, 74, 0
2, 45000, Note_on_c, 0, 72, 0
2, 45000, Note_on_c, 0, 71, 50
2, 45060, Note_on_c, 0, 74, 39
2, 45120, Note_on_c, 0, 74, 0
2, 45120, Note_on_c, 0, 71, 0
2, 45120, Note_on_c, 0, 71, 51
2, 45180, Note_on_c, 0, 74, 40
2, 45240, Note_on_c, 0, 74, 0
2, 45240, Note_on_c, 0, 62, 34
2, 45300, Note_on_c, 0, 62, 0
2, 45300, Note_on_c, 0, 74, 41
2, 45360, Note_on_c, 0, 74, 0
2, 45360, Note_on_c, 0, 71, 0
2, 45360, Note_on_c, 0, 71, 48
2, 45420, Note_on_c, 0, 74, 40
2, 45480, Note_on_c, 0, 74, 0
2, 45480, Note_on_c, 0, 62, 34
2, 45540, Note_on_c, 0, 62, 0
2, 45540, Note_on_c, 0, 74, 40
2, 45600, Note_on_c, 0, 74, 0
2, 45600, Note_on_c, 0, 71, 0
2, 45600, Note_on_c, 0, 72, 53
2, 45660, Note_on_c, 0, 76, 41
2, 45720, Note_on_c, 0, 76, 0
2, 45720, Note_on_c, 0, 64, 36
2, 45780, Note_on_c, 0, 64, 0
2, 45780, Note_on_c, 0, 76, 41
2, 45840, Note_on_c, 0, 76, 0
2, 45840, Note_on_c, 0, 72, 0
2, 45840, Note_on_c, 0, 71, 48
2, 45900, Note_on_c, 0, 74, 40
2, 45960, Note_on_c, 0, 74, 0
2, 45960, Note_on_c, 0, 62, 36
2, 46020, Note_on_c, 0, 62, 0
2, 46020, Note_on_c, 0, 74, 40
2, 46080, Note_on_c, 0, 74, 0
2, 46080, Note_on_c, 0, 71, 0
2, 46080, Note_on_c, 0, 71, 53
2, 46140, Note_on_c, 0, 74, 40
2, 46200, Note_on_c, 0, 74, 0
2, 46200, Note_on_c, 0, 62, 34
2, 46260, Note_on_c, 0, 62, 0
2, 46260, Note_on_c, 0, 74, 41
2, 46320, Note_on_c, 0, 74, 0
2, 46320, Note_on_c, 0, 71, 0
2, 46320, Note_on_c, 0, 70, 51
2, 46380, Note_on_c, 0, 74, 40
2, 46440, Note_on_c, 0, 74, 0
2, 46440, Note_on_c, 0, 62, 34
2, 46500, Note_on_c, 0, 62, 0
2, 46500, Note_on_c, 0, 74, 39
2, 46560, Note_on_c, 0, 74, 0
2, 46560, Note_on_c, 0, 70, 0
2, 46560, Note_on_c, 0, 69, 49
2, 46620, Note_on_c, 0, 74, 39
2, 46680, Note_on_c, 0, 74, 0
2, 46680, Note_on_c, 0, 62, 35
2, 46740, Note_on_c, 0, 62, 0
2, 46740, Note_on_c, 0, 74, 39
2, 46800, Note_on_c, 0, 74, 0
2, 46800, Note_on_c, 0, 69, 0
2, 46800, Note_on_c, 0, 66, 48
2, 46860, Note_on_c, 0, 74, 40
2, 46920, Note_on_c, 0, 74, 0
2, 46920, Note_on_c, 0, 62, 33
2, 46980, Note_on_c, 0, 62, 0
2, 46980, Note_on_c, 0, 74, 38
2, 47040, Note_on_c, 0, 74, 0
2, 47040, Note_on_c, 0, 66, 0
2, 47040, Note_on_c, 0, 71, 51
2, 47100, Note_on_c, 0, 74, 40
2, 47160, Note_on_c, 0, 74, 0
2, 47160, Note_on_c, 0, 62, 34
2, 47220, Note_on_c, 0, 62, 0
2, 47220, Note_on_c, 0, 74, 41
2, 47280, Note_on_c, 0, 74, 0
2, 47280, Note_on_c, 0, 71, 0
2, 47280, Note_on_c, 0, 71, 48
2, 47340, Note_on_c, 0, 74, 40
2, 47400, Note_on_c, 0, 74, 0
2, 47400, Note_on_c, 0, 62, 34
2, 47460, Note_on_c, 0, 62, 0
2, 47460, Note_on_c, 0, 74, 40
2, 47520, Note_on_c, 0, 74, 0
2, 47520, Note_on_c, 0, 71, 0
2, 47520, Note_on_c, 0, 72, 53
2, 47580, Note_on_c, 0, 76, 41
2, 47640, Note_on_c, 0, 76, 0
2, 47640, Note_on_c, 0, 64, 36
2, 47700, Note_on_c, 0, 64, 0
2, 47700, Note_on_c, 0, 76, 41
2, 47760, Note_on_c, 0, 76, 0
2, 47760, Note_on_c, 0, 72, 0
2, 47760, Note_on_c, 0, 71, 48
2, 47820, Note_on_c, 0, 74, 40
2, 47880, Note_on_c, 0, 74, 0
2, 47880, Note_on_c, 0, 62, 36
2, 47940, Note_on_c, 0, 62, 0
2, 47940, Note_on_c, 0, 74, 40
2, 48000, Note_on_c, 0, 74, 0
2, 48000, Note_on_c, 0, 71, 0
2, 48000, Note_on_c, 0, 71, 53
2, 48060, Note_on_c, 0, 74, 40
2, 48120, Note_on_c, 0, 74, 0
2, 48120, Note_on_c, 0, 62, 34
2, 48180, Note_on_c, 0, 62, 0
2, 48180, Note_on_c, 0, 74, 41
2, 48240, Note_on_c, 0, 74, 0
2, 48240, Note_on_c, 0, 71, 0
2, 48240, Note_on_c, 0, 70, 51
2, 48300, Note_on_c, 0, 74, 40
2, 48360, Note_on_c, 0, 74, 0
2, 48360, Note_on_c, 0, 62, 34
2, 48420, Note_on_c, 0, 62, 0
2, 48420, Note_on_c, 0, 74, 39
2, 48480, Note_on_c, 0, 74, 0
2, 48480, Note_on_c, 0, 70, 0
2, 48480, Note_on_c, 0, 69, 49
2, 48540, Note_on_c, 0, 74, 39
2, 48600, Note_on_c, 0, 74, 0
2, 48600, Note_on_c, 0, 62, 35
2, 48660, Note_on_c, 0, 62, 0
2, 48660, Note_on_c, 0, 74, 39
2, 48720, Note_on_c, 0, 74, 0
2, 48720, Note_on_c, 0, 69, 0
2, 48720, Note_on_c, 0, 66, 48
2, 48780, Note_on_c, 0, 74, 40
2, 48840, Note_on_c, 0, 74, 0
2, 48840, Note_on_c, 0, 62, 33
2, 48900, Note_on_c, 0, 62, 0
2, 48900, Note_on_c, 0, 74, 38
2, 48960, Note_on_c, 0, 74, 0
2, 48960, Note_on_c, 0, 66, 0
2, 48960, Note_on_c, 0, 71, 51
2, 49020, Note_on_c, 0, 74, 40
2, 49080, Note_on_c, 0, 74, 0
2, 49080, Note_on_c, 0, 62, 34
2, 49140, Note_on_c, 0, 62, 0
2, 49140, Note_on_c, 0, 74, 41
2, 49200, Note_on_c, 0, 74, 0
2, 49200, Note_on_c, 0, 71, 0
2, 49200, Note_on_c, 0, 59, 48
2, 49260, Note_on_c, 0, 59, 0
2, 49260, Note_on_c, 0, 67, 37
2, 49320, Note_on_c, 0, 67, 0
2, 49320, Note_on_c, 0, 62, 31
2, 49380, Note_on_c, 0, 62, 0
2, 49380, Note_on_c, 0, 67, 37
2, 49440, Note_on_c, 0, 67, 0
2, 49440, Note_on_c, 0, 62, 47
2, 49500, Note_on_c, 0, 62, 0
2, 49500, Note_on_c, 0, 71, 35
2, 49560, Note_on_c, 0, 71, 0
2, 49560, Note_on_c, 0, 67, 33
2, 49620, Note_on_c, 0, 67, 0
2, 49620, Note_on_c, 0, 71, 35
2, 49680, Note_on_c, 0, 71, 0
2, 49680, Note_on_c, 0, 67, 47
2, 49740, Note_on_c, 0, 67, 0
2, 49740, Note_on_c, 0, 74, 33
2, 49800, Note_on_c, 0, 74, 0
2, 49800, Note_on_c, 0, 71, 28
2, 49860, Note_on_c, 0, 71, 0
2, 49860, Note_on_c, 0, 74, 33
2, 49920, Note_on_c, 0, 74, 0
2, 49920, Note_on_c, 0, 71, 46
2, 49980, Note_on_c, 0, 71, 0
2, 49980, Note_on_c, 0, 79, 31
2, 50040, Note_on_c, 0, 79, 0
2, 50040, Note_on_c, 0, 74, 29
2, 50100, Note_on_c, 0, 74, 0
2, 50100, Note_on_c, 0, 79, 33
2, 50160, Note_on_c, 0, 79, 0
2, 50160, Note_on_c, 0, 74, 44
2, 50220, Note_on_c, 0, 74, 0
2, 50220, Note_on_c, 0, 83, 30
2, 50280, Note_on_c, 0, 83, 0
2, 50280, Note_on_c, 0, 79, 27
2, 50340, Note_on_c, 0, 79, 0
2, 50340, Note_on_c, 0, 83, 30
2, 50400, Note_on_c, 0, 83, 0
2, 50400, Note_on_c, 0, 79, 41
2, 50460, Note_on_c, 0, 79, 0
2, 50460, Note_on_c, 0, 86, 30
2, 50520, Note_on_c, 0, 86, 0
2, 50520, Note_on_c, 0, 83, 26
2, 50580, Note_on_c, 0, 83, 0
2, 50580, Note_on_c, 0, 86, 30
2, 50640, Note_on_c, 0, 86, 0
2, 50640, Note_on_c, 0, 83, 41
2, 50700, Note_on_c, 0, 83, 0
2, 50700, Note_on_c, 0, 91, 30
2, 50760, Note_on_c, 0, 91, 0
2, 50760, Note_on_c, 0, 86, 26
2, 50820, Note_on_c, 0, 86, 0
2, 50820, Note_on_c, 0, 91, 30
2, 50880, Note_on_c, 0, 91, 0
2, 50880, Note_on_c, 0, 86, 41
2, 50880, Note_on_c, 0, 79, 41
2, 50880, Note_on_c, 0, 95, 41
2, 51000, Note_on_c, 0, 95, 0
2, 51000, Note_on_c, 0, 79, 0
2, 51000, Note_on_c, 0, 86, 0
2, 51270, Note_on_c, 0, 71, 38
2, 51300, Note_on_c, 0, 74, 38
2, 51330, Note_on_c, 0, 79, 38
2, 51360, Note_on_c, 0, 83, 38
2, 51480, Note_on_c, 0, 83, 0
2, 51480, Note_on_c, 0, 71, 0
2, 51480, Note_on_c, 0, 74, 0
2, 51480, Note_on_c, 0, 79, 0
2, 51840, Note_on_c, 0, 59, 32
2, 51840, Note_on_c, 0, 67, 38
2, 52320, Note_on_c, 0, 67, 0
2, 52320, Note_on_c, 0, 59, 0
2, 52320, End_track
3, 0, Start_track
3, 0, Title_t, "Piano left"
3, 0, Program_c, 0, 0
3, 0, Control_c, 0, 7, 127
3, 0, Control_c, 0, 10, 64
3, 0, Note_on_c, 0, 43, 39
3, 25, Control_c, 0, 64, 127
3, 120, Note_on_c, 0, 43, 0
3, 240, Note_on_c, 0, 50, 36
3, 480, Note_on_c, 0, 50, 0
3, 480, Note_on_c, 0, 60, 37
3, 490, Control_c, 0, 64, 0
3, 515, Control_c, 0, 64, 127
3, 720, Note_on_c, 0, 60, 0
3, 720, Note_on_c, 0, 59, 34
3, 725, Control_c, 0, 64, 0
3, 763, Control_c, 0, 64, 127
3, 960, Note_on_c, 0, 59, 0
3, 960, Note_on_c, 0, 43, 38
3, 968, Control_c, 0, 64, 0
3, 995, Control_c, 0, 64, 127
3, 1080, Note_on_c, 0, 43, 0
3, 1200, Control_c, 0, 64, 0
3, 1200, Note_on_c, 0, 50, 39
3, 1239, Control_c, 0, 64, 127
3, 1440, Note_on_c, 0, 50, 0
3, 1440, Note_on_c, 0, 57, 40
3, 1447, Control_c, 0, 64, 0
3, 1479, Control_c, 0, 64, 127
3, 1680, Note_on_c, 0, 57, 0
3, 1680, Control_c, 0, 64, 0
3, 1680, Note_on_c, 0, 55, 36
3, 1719, Control_c, 0, 64, 127
3, 1920, Note_on_c, 0, 55, 0
3, 1920, Control_c, 0, 64, 0
3, 1920, Note_on_c, 0, 38, 41
3, 1966, Control_c, 0, 64, 127
3, 2040, Note_on_c, 0, 38, 0
3, 2160, Note_on_c, 0, 54, 38
3, 2166, Control_c, 0, 64, 0
3, 2203, Control_c, 0, 64, 127
3, 2400, Note_on_c, 0, 54, 0
3, 2400, Note_on_c, 0, 52, 41
3, 2412, Control_c, 0, 64, 0
3, 2446, Control_c, 0, 64, 127
3, 2640, Note_on_c, 0, 52, 0
3, 2640, Note_on_c, 0, 54, 44
3, 2880, Note_on_c, 0, 54, 0
3, 2880, Note_on_c, 0, 43, 41
3, 2887, Control_c, 0, 64, 0
3, 2922, Control_c, 0, 64, 127
3, 3000, Note_on_c, 0, 43, 0
3, 3120, Note_on_c, 0, 50, 36
3, 3127, Control_c, 0, 64, 0
3, 3173, Control_c, 0, 64, 127
3, 3360, Note_on_c, 0, 50, 0
3, 3360, Note_on_c, 0, 55, 39
3, 3360, Note_on_c, 0, 59, 39
3, 3370, Control_c, 0, 64, 0
3, 3406, Control_c, 0, 64, 127
3, 3600, Note_on_c, 0, 59, 0
3, 3600, Note_on_c, 0, 55, 0
3, 3600, Note_on_c, 0, 50, 37
3, 3610, Control_c, 0, 64, 0
3, 3635, Control_c, 0, 64, 127
3, 3840, Note_on_c, 0, 50, 0
3, 3840, Control_c, 0, 64, 0
3, 3840, Note_on_c, 0, 43, 51
3, 3900, Control_c, 0, 64, 127
3, 3960, Note_on_c, 0, 43, 0
3, 4080, Note_on_c, 0, 55, 49
3, 4080, Note_on_c, 0, 67, 49
3, 4320, Note_on_c, 0, 67, 0
3, 4320, Note_on_c, 0, 66, 52
3, 4331, Control_c, 0, 64, 0
3, 4362, Control_c, 0, 64, 127
3, 4560, Note_on_c, 0, 66, 0
3, 4560, Note_on_c, 0, 65, 56
3, 4800, Note_on_c, 0, 65, 0
3, 4800, Note_on_c, 0, 55, 0
3, 4800, Note_on_c, 0, 55, 49
3, 4800, Note_on_c, 0, 64, 56
3, 4807, Control_c, 0, 64, 0
3, 4846, Control_c, 0, 64, 127
3, 5040, Note_on_c, 0, 64, 0
3, 5040, Note_on_c, 0, 63, 49
3, 5053, Control_c, 0, 64, 0
3, 5100, Control_c, 0, 64, 127
3, 5280, Note_on_c, 0, 63, 0
3, 5280, Note_on_c, 0, 62, 48
3, 5287, Control_c, 0, 64, 0
3, 5329, Control_c, 0, 64, 127
3, 5520, Note_on_c, 0, 62, 0
3, 5520, Note_on_c, 0, 61, 48
3, 5531, Control_c, 0, 64, 0
3, 5591, Control_c, 0, 64, 127
3, 5760, Note_on_c, 0, 61, 0
3, 5760, Note_on_c, 0, 55, 0
3, 5760, Note_on_c, 0, 50, 49
3, 5760, Note_on_c, 0, 62, 49
3, 5767, Control_c, 0, 64, 0
3, 5799, Control_c, 0, 64, 127
3, 6000, Note_on_c, 0, 62, 0
3, 6000, Note_on_c, 0, 59, 38
3, 6240, Note_on_c, 0, 59, 0
3, 6240, Note_on_c, 0, 57, 42
3, 6247, Control_c, 0, 64, 0
3, 6275, Control_c, 0, 64, 127
3, 6360, Note_on_c, 0, 57, 0
3, 6360, Note_on_c, 0, 60, 39
3, 6480, Note_on_c, 0, 60, 0
3, 6480, Note_on_c, 0, 50, 0
3, 6480, Note_on_c, 0, 64, 42
3, 6491, Control_c, 0, 64, 0
3, 6529, Control_c, 0, 64, 127
3, 6600, Note_on_c, 0, 64, 0
3, 6600, Note_on_c, 0, 62, 42
3, 6720, Note_on_c, 0, 62, 0
3, 6720, Note_on_c, 0, 60, 40
3, 6720, Note_on_c, 0, 55, 40
3, 6730, Control_c, 0, 64, 0
3, 7200, Note_on_c, 0, 60, 0
3, 7200, Note_on_c, 0, 59, 36
3, 7214, Control_c, 0, 64, 0
3, 7320, Note_on_c, 0, 59, 0
3, 7320, Note_on_c, 0, 55, 0
3, 7680, Note_on_c, 0, 43, 39
3, 7686, Control_c, 0, 64, 0
3, 7740, Control_c, 0, 64, 127
3, 7800, Note_on_c, 0, 43, 0
3, 7920, Note_on_c, 0, 50, 36
3, 8160, Note_on_c, 0, 50, 0
3, 8160, Note_on_c, 0, 60, 37
3, 8169, Control_c, 0, 64, 0
3, 8224, Control_c, 0, 64, 127
3, 8400, Note_on_c, 0, 60, 0
3, 8400, Note_on_c, 0, 59, 34
3, 8406, Control_c, 0, 64, 0
3, 8453, Control_c, 0, 64, 127
3, 8640, Note_on_c, 0, 59, 0
3, 8640, Note_on_c, 0, 43, 38
3, 8651, Control_c, 0, 64, 0
3, 8689, Control_c, 0, 64, 127
3, 8760, Note_on_c, 0, 43, 0
3, 8880, Note_on_c, 0, 50, 39
3, 8891, Control_c, 0, 64, 0
3, 8937, Control_c, 0, 64, 127
3, 9120, Note_on_c, 0, 50, 0
3, 9120, Note_on_c, 0, 57, 40
3, 9130, Control_c, 0, 64, 0
3, 9176, Control_c, 0, 64, 127
3, 9360, Note_on_c, 0, 57, 0
3, 9360, Note_on_c, 0, 55, 36
3, 9366, Control_c, 0, 64, 0
3, 9420, Control_c, 0, 64, 127
3, 9600, Note_on_c, 0, 55, 0
3, 9600, Note_on_c, 0, 38, 41
3, 9606, Control_c, 0, 64, 0
3, 9656, Control_c, 0, 64, 127
3, 9720, Note_on_c, 0, 38, 0
3, 9840, Note_on_c, 0, 54, 38
3, 9853, Control_c, 0, 64, 0
3, 9900, Control_c, 0, 64, 127
3, 10080, Note_on_c, 0, 54, 0
3, 10080, Note_on_c, 0, 52, 41
3, 10091, Control_c, 0, 64, 0
3, 10129, Control_c, 0, 64, 127
3, 10320, Note_on_c, 0, 52, 0
3, 10320, Note_on_c, 0, 54, 44
3, 10560, Note_on_c, 0, 54, 0
3, 10560, Note_on_c, 0, 43, 41
3, 10567, Control_c, 0, 64, 0
3, 10602, Control_c, 0, 64, 127
3, 10680, Note_on_c, 0, 43, 0
3, 10800, Note_on_c, 0, 50, 36
3, 10810, Control_c, 0, 64, 0
3, 10835, Control_c, 0, 64, 127
3, 11040, Note_on_c, 0, 50, 0
3, 11040, Note_on_c, 0, 55, 39
3, 11040, Note_on_c, 0, 59, 39
3, 11049, Control_c, 0, 64, 0
3, 11079, Control_c, 0, 64, 127
3, 11280, Note_on_c, 0, 59, 0
3, 11280, Note_on_c, 0, 55, 0
3, 11280, Note_on_c, 0, 50, 37
3, 11285, Control_c, 0, 64, 0
3, 11308, Control_c, 0, 64, 127
3, 11520, Note_on_c, 0, 50, 0
3, 11520, Note_on_c, 0, 43, 51
3, 11528, Control_c, 0, 64, 0
3, 11569, Control_c, 0, 64, 127
3, 11640, Note_on_c, 0, 43, 0
3, 11760, Note_on_c, 0, 55, 49
3, 11760, Note_on_c, 0, 67, 49
3, 12000, Note_on_c, 0, 67, 0
3, 12000, Note_on_c, 0, 66, 52
3, 12011, Control_c, 0, 64, 0
3, 12053, Control_c, 0, 64, 127
3, 12240, Note_on_c, 0, 66, 0
3, 12240, Note_on_c, 0, 65, 56
3, 12245, Control_c, 0, 64, 0
3, 12290, Control_c, 0, 64, 127
3, 12480, Note_on_c, 0, 65, 0
3, 12480, Note_on_c, 0, 55, 0
3, 12480, Note_on_c, 0, 55, 49
3, 12480, Note_on_c, 0, 64, 56
3, 12491, Control_c, 0, 64, 0
3, 12519, Control_c, 0, 64, 127
3, 12720, Note_on_c, 0, 64, 0
3, 12720, Note_on_c, 0, 63, 49
3, 12731, Control_c, 0, 64, 0
3, 12784, Control_c, 0, 64, 127
3, 12960, Note_on_c, 0, 63, 0
3, 12960, Note_on_c, 0, 62, 48
3, 12971, Control_c, 0, 64, 0
3, 13013, Control_c, 0, 64, 127
3, 13200, Note_on_c, 0, 62, 0
3, 13200, Note_on_c, 0, 61, 48
3, 13207, Control_c, 0, 64, 0
3, 13271, Control_c, 0, 64, 127
3, 13440, Note_on_c, 0, 61, 0
3, 13440, Note_on_c, 0, 55, 0
3, 13440, Note_on_c, 0, 50, 49
3, 13440, Note_on_c, 0, 62, 49
3, 13450, Control_c, 0, 64, 0
3, 13479, Control_c, 0, 64, 127
3, 13680, Note_on_c, 0, 62, 0
3, 13680, Note_on_c, 0, 59, 38
3, 13920, Note_on_c, 0, 59, 0
3, 13920, Note_on_c, 0, 57, 42
3, 13929, Control_c, 0, 64, 0
3, 13966, Control_c, 0, 64, 127
3, 14040, Note_on_c, 0, 57, 0
3, 14040, Note_on_c, 0, 60, 39
3, 14160, Note_on_c, 0, 60, 0
3, 14160, Note_on_c, 0, 50, 0
3, 14160, Note_on_c, 0, 64, 42
3, 14172, Control_c, 0, 64, 0
3, 14209, Control_c, 0, 64, 127
3, 14280, Note_on_c, 0, 64, 0
3, 14280, Note_on_c, 0, 62, 42
3, 14400, Note_on_c, 0, 62, 0
3, 14400, Note_on_c, 0, 60, 40
3, 14400, Note_on_c, 0, 55, 40
3, 14410, Control_c, 0, 64, 0
3, 14860, Control_c, 0, 64, 0
3, 14880, Note_on_c, 0, 60, 0
3, 14880, Note_on_c, 0, 59, 36
3, 15000, Note_on_c, 0, 59, 0
3, 15000, Note_on_c, 0, 55, 0
3, 15360, Control_c, 0, 64, 0
3, 15360, Note_on_c, 0, 36, 57
3, 15360, Note_on_c, 0, 48, 57
3, 15416, Control_c, 0, 64, 127
3, 15600, Note_on_c, 0, 48, 0
3, 15600, Note_on_c, 0, 36, 0
3, 15600, Note_on_c, 0, 60, 51
3, 15840, Note_on_c, 0, 60, 0
3, 15840, Note_on_c, 0, 64, 56
3, 15847, Control_c, 0, 64, 0
3, 15875, Control_c, 0, 64, 127
3, 16080, Note_on_c, 0, 64, 0
3, 16080, Note_on_c, 0, 60, 50
3, 16320, Note_on_c, 0, 60, 0
3, 16320, Note_on_c, 0, 55, 51
3, 16320, Note_on_c, 0, 60, 51
3, 16327, Control_c, 0, 64, 0
3, 16359, Control_c, 0, 64, 127
3, 16560, Note_on_c, 0, 60, 0
3, 16560, Note_on_c, 0, 59, 45
3, 16571, Control_c, 0, 64, 0
3, 16599, Control_c, 0, 64, 127
3, 16800, Note_on_c, 0, 59, 0
3, 16800, Note_on_c, 0, 57, 52
3, 16811, Control_c, 0, 64, 0
3, 16846, Control_c, 0, 64, 127
3, 17040, Note_on_c, 0, 57, 0
3, 17040, Note_on_c, 0, 55, 0
3, 17040, Note_on_c, 0, 55, 44
3, 17046, Control_c, 0, 64, 0
3, 17090, Control_c, 0, 64, 127
3, 17280, Note_on_c, 0, 55, 0
3, 17280, Note_on_c, 0, 50, 46
3, 17280, Note_on_c, 0, 56, 46
3, 17292, Control_c, 0, 64, 0
3, 17326, Control_c, 0, 64, 127
3, 17520, Note_on_c, 0, 56, 0
3, 17520, Note_on_c, 0, 57, 38
3, 17523, Control_c, 0, 64, 0
3, 17566, Control_c, 0, 64, 127
3, 17760, Note_on_c, 0, 57, 0
3, 17760, Note_on_c, 0, 60, 46
3, 17771, Control_c, 0, 64, 0
3, 17794, Control_c, 0, 64, 127
3, 18000, Note_on_c, 0, 60, 0
3, 18000, Note_on_c, 0, 57, 39
3, 18240, Note_on_c, 0, 57, 0
3, 18240, Note_on_c, 0, 50, 0
3, 18240, Control_c, 0, 64, 0
3, 18240, Note_on_c, 0, 43, 41
3, 18240, Note_on_c, 0, 55, 41
3, 18480, Note_on_c, 0, 55, 0
3, 18480, Note_on_c, 0, 43, 0
3, 18480, Note_on_c, 0, 59, 53
3, 18480, Note_on_c, 0, 55, 53
3, 18720, Note_on_c, 0, 55, 0
3, 18720, Note_on_c, 0, 59, 0
3, 18720, Note_on_c, 0, 60, 59
3, 18720, Note_on_c, 0, 57, 59
3, 18960, Note_on_c, 0, 57, 0
3, 18960, Note_on_c, 0, 60, 0
3, 18960, Note_on_c, 0, 62, 63
3, 18960, Note_on_c, 0, 59, 63
3, 19200, Note_on_c, 0, 59, 0
3, 19200, Note_on_c, 0, 62, 0
3, 19200, Note_on_c, 0, 39, 78
3, 19200, Note_on_c, 0, 51, 78
3, 19235, Control_c, 0, 64, 127
3, 19320, Note_on_c, 0, 51, 0
3, 19320, Note_on_c, 0, 39, 0
3, 19440, Note_on_c, 0, 58, 72
3, 19440, Note_on_c, 0, 63, 72
3, 19680, Note_on_c, 0, 63, 0
3, 19680, Note_on_c, 0, 62, 74
3, 19691, Control_c, 0, 64, 0
3, 19731, Control_c, 0, 64, 127
3, 19920, Note_on_c, 0, 62, 0
3, 19920, Note_on_c, 0, 61, 69
3, 19923, Control_c, 0, 64, 0
3, 19969, Control_c, 0, 64, 127
3, 20160, Note_on_c, 0, 61, 0
3, 20160, Note_on_c, 0, 58, 0
3, 20160, Note_on_c, 0, 38, 69
3, 20160, Note_on_c, 0, 50, 69
3, 20166, Control_c, 0, 64, 0
3, 20213, Control_c, 0, 64, 127
3, 20280, Note_on_c, 0, 50, 0
3, 20280, Note_on_c, 0, 38, 0
3, 20400, Note_on_c, 0, 50, 59
3, 20400, Note_on_c, 0, 59, 59
3, 20413, Control_c, 0, 64, 0
3, 20460, Control_c, 0, 64, 127
3, 20640, Note_on_c, 0, 59, 0
3, 20640, Note_on_c, 0, 57, 62
3, 20650, Control_c, 0, 64, 0
3, 20693, Control_c, 0, 64, 127
3, 20880, Note_on_c, 0, 57, 0
3, 20880, Note_on_c, 0, 55, 53
3, 20891, Control_c, 0, 64, 0
3, 20954, Control_c, 0, 64, 127
3, 21120, Note_on_c, 0, 55, 0
3, 21120, Note_on_c, 0, 50, 0
3, 21120, Note_on_c, 0, 50, 59
3, 21120, Note_on_c, 0, 52, 59
3, 21126, Control_c, 0, 64, 0
3, 21157, Control_c, 0, 64, 127
3, 21360, Note_on_c, 0, 52, 0
3, 21360, Note_on_c, 0, 57, 50
3, 21600, Note_on_c, 0, 57, 0
3, 21600, Note_on_c, 0, 50, 0
3, 21600, Note_on_c, 0, 38, 55
3, 21611, Control_c, 0, 64, 0
3, 21646, Control_c, 0, 64, 127
3, 21840, Note_on_c, 0, 38, 0
3, 21840, Note_on_c, 0, 50, 47
3, 22080, Note_on_c, 0, 50, 0
3, 22080, Note_on_c, 0, 43, 50
3, 22085, Control_c, 0, 64, 0
3, 22129, Control_c, 0, 64, 127
3, 22320, Note_on_c, 0, 50, 35
3, 22330, Control_c, 0, 64, 0
3, 22387, Control_c, 0, 64, 127
3, 23040, Note_on_c, 0, 50, 0
3, 23040, Note_on_c, 0, 43, 0
3, 23040, Note_on_c, 0, 43, 39
3, 23044, Control_c, 0, 64, 0
3, 23096, Control_c, 0, 64, 127
3, 23160, Note_on_c, 0, 43, 0
3, 23280, Note_on_c, 0, 50, 36
3, 23520, Note_on_c, 0, 50, 0
3, 23520, Note_on_c, 0, 60, 37
3, 23533, Control_c, 0, 64, 0
3, 23584, Control_c, 0, 64, 127
3, 23760, Note_on_c, 0, 60, 0
3, 23760, Note_on_c, 0, 59, 34
3, 23767, Control_c, 0, 64, 0
3, 23810, Control_c, 0, 64, 127
3, 24000, Note_on_c, 0, 59, 0
3, 24000, Note_on_c, 0, 43, 38
3, 24010, Control_c, 0, 64, 0
3, 24032, Control_c, 0, 64, 127
3, 24120, Note_on_c, 0, 43, 0
3, 24240, Note_on_c, 0, 50, 39
3, 24480, Note_on_c, 0, 50, 0
3, 24480, Note_on_c, 0, 57, 40
3, 24494, Control_c, 0, 64, 0
3, 24544, Control_c, 0, 64, 127
3, 24720, Note_on_c, 0, 57, 0
3, 24720, Note_on_c, 0, 55, 36
3, 24725, Control_c, 0, 64, 0
3, 24756, Control_c, 0, 64, 127
3, 24960, Note_on_c, 0, 55, 0
3, 24960, Note_on_c, 0, 38, 41
3, 24966, Control_c, 0, 64, 0
3, 25024, Control_c, 0, 64, 127
3, 25080, Note_on_c, 0, 38, 0
3, 25200, Note_on_c, 0, 54, 38
3, 25211, Control_c, 0, 64, 0
3, 25260, Control_c, 0, 64, 127
3, 25440, Note_on_c, 0, 54, 0
3, 25440, Note_on_c, 0, 52, 41
3, 25452, Control_c, 0, 64, 0
3, 25482, Control_c, 0, 64, 127
3, 25680, Note_on_c, 0, 52, 0
3, 25680, Note_on_c, 0, 54, 44
3, 25920, Note_on_c, 0, 54, 0
3, 25920, Control_c, 0, 64, 0
3, 25920, Note_on_c, 0, 43, 41
3, 25969, Control_c, 0, 64, 127
3, 26040, Note_on_c, 0, 43, 0
3, 26160, Note_on_c, 0, 50, 36
3, 26170, Control_c, 0, 64, 0
3, 26213, Control_c, 0, 64, 127
3, 26400, Note_on_c, 0, 50, 0
3, 26400, Note_on_c, 0, 55, 39
3, 26400, Note_on_c, 0, 59, 39
3, 26410, Control_c, 0, 64, 0
3, 26446, Control_c, 0, 64, 127
3, 26640, Note_on_c, 0, 59, 0
3, 26640, Note_on_c, 0, 55, 0
3, 26640, Note_on_c, 0, 50, 37
3, 26647, Control_c, 0, 64, 0
3, 26682, Control_c, 0, 64, 127
3, 26880, Note_on_c, 0, 50, 0
3, 26880, Note_on_c, 0, 43, 51
3, 26888, Control_c, 0, 64, 0
3, 26915, Control_c, 0, 64, 127
3, 27000, Note_on_c, 0, 43, 0
3, 27120, Note_on_c, 0, 55, 49
3, 27120, Note_on_c, 0, 67, 49
3, 27360, Note_on_c, 0, 67, 0
3, 27360, Note_on_c, 0, 66, 52
3, 27373, Control_c, 0, 64, 0
3, 27416, Control_c, 0, 64, 127
3, 27600, Note_on_c, 0, 66, 0
3, 27600, Note_on_c, 0, 65, 56
3, 27840, Note_on_c, 0, 65, 0
3, 27840, Note_on_c, 0, 55, 0
3, 27840, Note_on_c, 0, 55, 49
3, 27840, Note_on_c, 0, 64, 56
3, 27850, Control_c, 0, 64, 0
3, 27882, Control_c, 0, 64, 127
3, 28080, Note_on_c, 0, 64, 0
3, 28080, Note_on_c, 0, 63, 49
3, 28087, Control_c, 0, 64, 0
3, 28126, Control_c, 0, 64, 127
3, 28320, Note_on_c, 0, 63, 0
3, 28320, Note_on_c, 0, 62, 48
3, 28331, Control_c, 0, 64, 0
3, 28380, Control_c, 0, 64, 127
3, 28560, Note_on_c, 0, 62, 0
3, 28560, Note_on_c, 0, 61, 48
3, 28567, Control_c, 0, 64, 0
3, 28606, Control_c, 0, 64, 127
3, 28800, Note_on_c, 0, 61, 0
3, 28800, Note_on_c, 0, 55, 0
3, 28800, Note_on_c, 0, 50, 49
3, 28800, Note_on_c, 0, 62, 49
3, 28809, Control_c, 0, 64, 0
3, 28842, Control_c, 0, 64, 127
3, 29040, Note_on_c, 0, 62, 0
3, 29040, Note_on_c, 0, 59, 38
3, 29280, Note_on_c, 0, 59, 0
3, 29280, Note_on_c, 0, 57, 42
3, 29290, Control_c, 0, 64, 0
3, 29340, Control_c, 0, 64, 127
3, 29400, Note_on_c, 0, 57, 0
3, 29400, Note_on_c, 0, 60, 39
3, 29520, Note_on_c, 0, 60, 0
3, 29520, Note_on_c, 0, 50, 0
3, 29520, Note_on_c, 0, 64, 42
3, 29530, Control_c, 0, 64, 0
3, 29576, Control_c, 0, 64, 127
3, 29640, Note_on_c, 0, 64, 0
3, 29640, Note_on_c, 0, 62, 42
3, 29760, Note_on_c, 0, 62, 0
3, 29760, Note_on_c, 0, 60, 40
3, 29760, Note_on_c, 0, 55, 40
3, 29770, Control_c, 0, 64, 0
3, 30240, Note_on_c, 0, 60, 0
3, 30240, Note_on_c, 0, 59, 36
3, 30360, Note_on_c, 0, 59, 0
3, 30360, Note_on_c, 0, 55, 0
3, 30720, Note_on_c, 0, 48, 57
3, 30720, Note_on_c, 0, 36, 57
3, 30801, Control_c, 0, 64, 127
3, 30960, Note_on_c, 0, 36, 0
3, 30960, Note_on_c, 0, 48, 0
3, 30960, Note_on_c, 0, 60, 51
3, 31200, Note_on_c, 0, 60, 0
3, 31200, Note_on_c, 0, 64, 56
3, 31211, Control_c, 0, 64, 0
3, 31249, Control_c, 0, 64, 127
3, 31440, Note_on_c, 0, 64, 0
3, 31440, Note_on_c, 0, 60, 50
3, 31680, Note_on_c, 0, 60, 0
3, 31680, Note_on_c, 0, 55, 51
3, 31680, Note_on_c, 0, 60, 51
3, 31687, Control_c, 0, 64, 0
3, 31736, Control_c, 0, 64, 127
3, 31920, Note_on_c, 0, 60, 0
3, 31920, Note_on_c, 0, 59, 45
3, 31934, Control_c, 0, 64, 0
3, 31977, Control_c, 0, 64, 127
3, 32160, Note_on_c, 0, 59, 0
3, 32160, Note_on_c, 0, 57, 52
3, 32173, Control_c, 0, 64, 0
3, 32206, Control_c, 0, 64, 127
3, 32400, Note_on_c, 0, 57, 0
3, 32400, Note_on_c, 0, 55, 0
3, 32400, Note_on_c, 0, 55, 44
3, 32407, Control_c, 0, 64, 0
3, 32439, Control_c, 0, 64, 127
3, 32640, Note_on_c, 0, 55, 0
3, 32640, Note_on_c, 0, 56, 46
3, 32640, Note_on_c, 0, 50, 46
3, 32651, Control_c, 0, 64, 0
3, 32680, Control_c, 0, 64, 127
3, 32880, Note_on_c, 0, 56, 0
3, 32880, Note_on_c, 0, 57, 38
3, 32885, Control_c, 0, 64, 0
3, 32932, Control_c, 0, 64, 127
3, 33120, Note_on_c, 0, 57, 0
3, 33120, Note_on_c, 0, 60, 46
3, 33129, Control_c, 0, 64, 0
3, 33163, Control_c, 0, 64, 127
3, 33360, Note_on_c, 0, 60, 0
3, 33360, Note_on_c, 0, 57, 39
3, 33600, Note_on_c, 0, 57, 0
3, 33600, Note_on_c, 0, 50, 0
3, 33600, Control_c, 0, 64, 0
3, 33600, Note_on_c, 0, 55, 41
3, 33600, Note_on_c, 0, 43, 41
3, 33840, Note_on_c, 0, 43, 0
3, 33840, Note_on_c, 0, 55, 0
3, 33840, Note_on_c, 0, 59, 53
3, 33840, Note_on_c, 0, 55, 53
3, 34080, Note_on_c, 0, 55, 0
3, 34080, Note_on_c, 0, 59, 0
3, 34080, Note_on_c, 0, 57, 59
3, 34080, Note_on_c, 0, 60, 59
3, 34320, Note_on_c, 0, 60, 0
3, 34320, Note_on_c, 0, 57, 0
3, 34320, Note_on_c, 0, 62, 63
3, 34320, Note_on_c, 0, 59, 63
3, 34560, Note_on_c, 0, 59, 0
3, 34560, Note_on_c, 0, 62, 0
3, 34560, Note_on_c, 0, 51, 78
3, 34560, Note_on_c, 0, 39, 78
3, 34600, Control_c, 0, 64, 127
3, 34680, Note_on_c, 0, 39, 0
3, 34680, Note_on_c, 0, 51, 0
3, 34800, Note_on_c, 0, 58, 72
3, 34800, Note_on_c, 0, 63, 72
3, 35040, Note_on_c, 0, 63, 0
3, 35040, Note_on_c, 0, 62, 74
3, 35051, Control_c, 0, 64, 0
3, 35080, Control_c, 0, 64, 127
3, 35280, Note_on_c, 0, 62, 0
3, 35280, Note_on_c, 0, 61, 69
3, 35283, Control_c, 0, 64, 0
3, 35337, Control_c, 0, 64, 127
3, 35520, Note_on_c, 0, 61, 0
3, 35520, Note_on_c, 0, 58, 0
3, 35520, Note_on_c, 0, 38, 69
3, 35520, Note_on_c, 0, 50, 69
3, 35531, Control_c, 0, 64, 0
3, 35573, Control_c, 0, 64, 127
3, 35640, Note_on_c, 0, 50, 0
3, 35640, Note_on_c, 0, 38, 0
3, 35760, Note_on_c, 0, 59, 59
3, 35760, Note_on_c, 0, 50, 59
3, 35767, Control_c, 0, 64, 0
3, 35803, Control_c, 0, 64, 127
3, 36000, Note_on_c, 0, 59, 0
3, 36000, Note_on_c, 0, 57, 62
3, 36011, Control_c, 0, 64, 0
3, 36049, Control_c, 0, 64, 127
3, 36240, Note_on_c, 0, 57, 0
3, 36240, Note_on_c, 0, 55, 53
3, 36254, Control_c, 0, 64, 0
3, 36307, Control_c, 0, 64, 127
3, 36480, Note_on_c, 0, 55, 0
3, 36480, Note_on_c, 0, 50, 0
3, 36480, Note_on_c, 0, 50, 59
3, 36480, Note_on_c, 0, 52, 59
3, 36487, Control_c, 0, 64, 0
3, 36523, Control_c, 0, 64, 127
3, 36720, Note_on_c, 0, 52, 0
3, 36720, Note_on_c, 0, 57, 50
3, 36960, Note_on_c, 0, 57, 0
3, 36960, Note_on_c, 0, 50, 0
3, 36960, Note_on_c, 0, 38, 55
3, 36971, Control_c, 0, 64, 0
3, 37009, Control_c, 0, 64, 127
3, 37200, Note_on_c, 0, 38, 0
3, 37200, Note_on_c, 0, 50, 47
3, 37440, Note_on_c, 0, 50, 0
3, 37440, Note_on_c, 0, 43, 50
3, 37445, Control_c, 0, 64, 0
3, 37479, Control_c, 0, 64, 127
3, 37680, Note_on_c, 0, 50, 35
3, 37690, Control_c, 0, 64, 0
3, 37754, Control_c, 0, 64, 127
3, 38400, Note_on_c, 0, 50, 0
3, 38400, Note_on_c, 0, 43, 0
3, 38400, Note_on_c, 0, 43, 39
3, 38410, Control_c, 0, 64, 0
3, 38481, Control_c, 0, 64, 127
3, 38520, Note_on_c, 0, 43, 0
3, 38640, Note_on_c, 0, 50, 36
3, 38880, Note_on_c, 0, 50, 0
3, 38880, Note_on_c, 0, 60, 37
3, 38891, Control_c, 0, 64, 0
3, 38926, Control_c, 0, 64, 127
3, 39120, Note_on_c, 0, 60, 0
3, 39120, Note_on_c, 0, 59, 34
3, 39130, Control_c, 0, 64, 0
3, 39163, Control_c, 0, 64, 127
3, 39360, Note_on_c, 0, 59, 0
3, 39360, Note_on_c, 0, 43, 38
3, 39369, Control_c, 0, 64, 0
3, 39413, Control_c, 0, 64, 127
3, 39480, Note_on_c, 0, 43, 0
3, 39600, Note_on_c, 0, 50, 39
3, 39840, Note_on_c, 0, 50, 0
3, 39840, Note_on_c, 0, 57, 40
3, 39852, Control_c, 0, 64, 0
3, 39900, Control_c, 0, 64, 127
3, 40080, Note_on_c, 0, 57, 0
3, 40080, Note_on_c, 0, 55, 36
3, 40086, Control_c, 0, 64, 0
3, 40133, Control_c, 0, 64, 127
3, 40320, Note_on_c, 0, 55, 0
3, 40320, Note_on_c, 0, 38, 41
3, 40326, Control_c, 0, 64, 0
3, 40380, Control_c, 0, 64, 127
3, 40440, Note_on_c, 0, 38, 0
3, 40560, Note_on_c, 0, 54, 38
3, 40568, Control_c, 0, 64, 0
3, 40610, Control_c, 0, 64, 127
3, 40800, Note_on_c, 0, 54, 0
3, 40800, Note_on_c, 0, 52, 41
3, 40810, Control_c, 0, 64, 0
3, 40835, Control_c, 0, 64, 127
3, 41040, Note_on_c, 0, 52, 0
3, 41040, Note_on_c, 0, 54, 44
3, 41280, Note_on_c, 0, 54, 0
3, 41280, Note_on_c, 0, 43, 41
3, 41287, Control_c, 0, 64, 0
3, 41312, Control_c, 0, 64, 127
3, 41400, Note_on_c, 0, 43, 0
3, 41520, Note_on_c, 0, 50, 36
3, 41530, Control_c, 0, 64, 0
3, 41569, Control_c, 0, 64, 127
3, 41760, Note_on_c, 0, 50, 0
3, 41760, Note_on_c, 0, 55, 39
3, 41760, Note_on_c, 0, 59, 39
3, 41771, Control_c, 0, 64, 0
3, 41809, Control_c, 0, 64, 127
3, 42000, Note_on_c, 0, 59, 0
3, 42000, Note_on_c, 0, 55, 0
3, 42000, Note_on_c, 0, 50, 37
3, 42007, Control_c, 0, 64, 0
3, 42049, Control_c, 0, 64, 127
3, 42240, Note_on_c, 0, 50, 0
3, 42240, Note_on_c, 0, 43, 51
3, 42245, Control_c, 0, 64, 0
3, 42289, Control_c, 0, 64, 127
3, 42360, Note_on_c, 0, 43, 0
3, 42480, Note_on_c, 0, 55, 49
3, 42480, Note_on_c, 0, 67, 49
3, 42720, Note_on_c, 0, 67, 0
3, 42720, Note_on_c, 0, 66, 52
3, 42731, Control_c, 0, 64, 0
3, 42773, Control_c, 0, 64, 127
3, 42960, Note_on_c, 0, 66, 0
3, 42960, Note_on_c, 0, 65, 56
3, 43200, Note_on_c, 0, 65, 0
3, 43200, Note_on_c, 0, 55, 0
3, 43200, Note_on_c, 0, 55, 49
3, 43200, Note_on_c, 0, 64, 56
3, 43207, Control_c, 0, 64, 0
3, 43246, Control_c, 0, 64, 127
3, 43440, Note_on_c, 0, 64, 0
3, 43440, Note_on_c, 0, 63, 49
3, 43444, Control_c, 0, 64, 0
3, 43490, Control_c, 0, 64, 127
3, 43680, Note_on_c, 0, 63, 0
3, 43680, Note_on_c, 0, 62, 48
3, 43690, Control_c, 0, 64, 0
3, 43747, Control_c, 0, 64, 127
3, 43920, Note_on_c, 0, 62, 0
3, 43920, Note_on_c, 0, 61, 48
3, 43930, Control_c, 0, 64, 0
3, 43963, Control_c, 0, 64, 127
3, 44160, Note_on_c, 0, 61, 0
3, 44160, Note_on_c, 0, 55, 0
3, 44160, Note_on_c, 0, 62, 49
3, 44160, Note_on_c, 0, 50, 49
3, 44167, Control_c, 0, 64, 0
3, 44202, Control_c, 0, 64, 127
3, 44400, Note_on_c, 0, 62, 0
3, 44400, Note_on_c, 0, 59, 38
3, 44640, Note_on_c, 0, 59, 0
3, 44640, Note_on_c, 0, 57, 42
3, 44650, Control_c, 0, 64, 0
3, 44689, Control_c, 0, 64, 127
3, 44760, Note_on_c, 0, 57, 0
3, 44760, Note_on_c, 0, 60, 39
3, 44880, Note_on_c, 0, 60, 0
3, 44880, Note_on_c, 0, 50, 0
3, 44880, Note_on_c, 0, 64, 42
3, 44894, Control_c, 0, 64, 0
3, 44936, Control_c, 0, 64, 127
3, 45000, Note_on_c, 0, 64, 0
3, 45000, Note_on_c, 0, 62, 42
3, 45120, Note_on_c, 0, 62, 0
3, 45120, Note_on_c, 0, 55, 42
3, 45120, Note_on_c, 0, 59, 42
3, 45125, Control_c, 0, 64, 0
3, 45159, Control_c, 0, 64, 127
3, 45240, Note_on_c, 0, 59, 0
3, 45240, Note_on_c, 0, 55, 0
3, 45360, Note_on_c, 0, 55, 39
3, 45600, Note_on_c, 0, 55, 0
3, 45600, Note_on_c, 0, 43, 48
3, 45606, Control_c, 0, 64, 0
3, 45642, Control_c, 0, 64, 127
3, 45840, Note_on_c, 0, 43, 0
3, 45840, Note_on_c, 0, 55, 37
3, 46080, Note_on_c, 0, 55, 0
3, 46080, Note_on_c, 0, 38, 42
3, 46086, Control_c, 0, 64, 0
3, 46151, Control_c, 0, 64, 127
3, 46200, Note_on_c, 0, 38, 0
3, 46320, Note_on_c, 0, 50, 35
3, 46320, Note_on_c, 0, 61, 35
3, 46327, Control_c, 0, 64, 0
3, 46380, Control_c, 0, 64, 127
3, 46500, Note_on_c, 0, 61, 0
3, 46500, Note_on_c, 0, 50, 0
3, 46560, Note_on_c, 0, 50, 35
3, 46560, Note_on_c, 0, 60, 35
3, 46567, Control_c, 0, 64, 0
3, 46606, Control_c, 0, 64, 127
3, 46740, Note_on_c, 0, 60, 0
3, 46740, Note_on_c, 0, 50, 0
3, 46800, Note_on_c, 0, 50, 34
3, 46800, Note_on_c, 0, 57, 34
3, 46980, Note_on_c, 0, 57, 0
3, 46980, Note_on_c, 0, 50, 0
3, 47040, Note_on_c, 0, 55, 42
3, 47040, Note_on_c, 0, 59, 42
3, 47048, Control_c, 0, 64, 0
3, 47082, Control_c, 0, 64, 127
3, 47160, Note_on_c, 0, 59, 0
3, 47160, Note_on_c, 0, 55, 0
3, 47280, Note_on_c, 0, 55, 39
3, 47520, Note_on_c, 0, 55, 0
3, 47520, Note_on_c, 0, 43, 48
3, 47530, Control_c, 0, 64, 0
3, 47569, Control_c, 0, 64, 127
3, 47760, Note_on_c, 0, 43, 0
3, 47760, Note_on_c, 0, 55, 37
3, 48000, Note_on_c, 0, 55, 0
3, 48000, Note_on_c, 0, 38, 42
3, 48009, Control_c, 0, 64, 0
3, 48046, Control_c, 0, 64, 127
3, 48120, Note_on_c, 0, 38, 0
3, 48240, Note_on_c, 0, 61, 35
3, 48240, Note_on_c, 0, 50, 35
3, 48244, Control_c, 0, 64, 0
3, 48276, Control_c, 0, 64, 127
3, 48420, Note_on_c, 0, 50, 0
3, 48420, Note_on_c, 0, 61, 0
3, 48480, Note_on_c, 0, 50, 35
3, 48480, Note_on_c, 0, 60, 35
3, 48491, Control_c, 0, 64, 0
3, 48515, Control_c, 0, 64, 127
3, 48660, Note_on_c, 0, 60, 0
3, 48660, Note_on_c, 0, 50, 0
3, 48720, Note_on_c, 0, 50, 34
3, 48720, Note_on_c, 0, 57, 34
3, 48724, Control_c, 0, 64, 0
3, 48773, Control_c, 0, 64, 127
3, 48900, Note_on_c, 0, 57, 0
3, 48900, Note_on_c, 0, 50, 0
3, 48960, Note_on_c, 0, 55, 42
3, 48960, Note_on_c, 0, 59, 42
3, 48970, Control_c, 0, 64, 0
3, 49020, Control_c, 0, 64, 127
3, 49080, Note_on_c, 0, 59, 0
3, 49080, Note_on_c, 0, 55, 0
3, 51180, Note_on_c, 0, 55, 31
3, 51210, Note_on_c, 0, 62, 31
3, 51240, Note_on_c, 0, 67, 31
3, 51480, Note_on_c, 0, 67, 0
3, 51480, Note_on_c, 0, 62, 0
3, 51480, Note_on_c, 0, 55, 0
3, 51840, Note_on_c, 0, 43, 26
3, 51840, Note_on_c, 0, 50, 31
3, 52320, Note_on_c, 0, 50, 0
3, 52320, Note_on_c, 0, 43, 0
3, 54027, Control_c, 0, 64, 0
3, 54027, End_track
4, 0, Start_track
4, 0, Title_t, "Buegmueller: Etueden Op. 109 - Die Quelle"
4, 0, End_track
5, 0, Start_track
5, 0, Title_t, "Copyright © 2004 by Bernd Krüger"
5, 0, End_track
6, 0, Start_track
6, 0, Title_t, "http://www.piano-midi.de"
6, 0, End_track
7, 0, Start_track
7, 0, Title_t, "Edition: 2012-03-04"
7, 0, End_track
8, 0, Start_track
8, 0, Title_t, "Spur 7"
8, 0, End_track
0, 0, End_of_file
