0, 0, Header, 1, 9, 480
1, 0, Start_track
1, 0, Title_t, "Etueden Opus 109"
1, 0, Title_t, "Erwachen im Walde"
1, 0, Copyright_t, "Copyright © 2012 by Bernd Krueger"
1, 0, Text_t, "Friedrich Buergmueller"
1, 0, Text_t, "Allegro"
1, 0, Text_t, "Erstellt am  13.3.2012\012"
1, 0, Text_t, "Dauer: 1:21 Minuten\012"
1, 0, SMPTE_offset, 96, 0, 3, 0, 0
1, 0, Time_signature, 4, 2, 24, 8
1, 0, Key_signature, -1, "major"
1, 0, Tempo, 379747
1, 0, Marker_t, "Teil 1"
1, 1460, Tempo, 380952
1, 1640, Tempo, 379747
1, 1820, Tempo, 378549
1, 1980, Tempo, 377358
1, 2400, Tempo, 379747
1, 2880, Tempo, 387097
1, 3360, Tempo, 392157
1, 3840, Tempo, 378549
1, 4560, Tempo, 400534
1, 4800, Tempo, 387597
1, 5520, Tempo, 401875
1, 5760, Tempo, 387597
1, 6480, Tempo, 401875
1, 6720, Tempo, 387597
1, 7200, Tempo, 393959
1, 7440, Tempo, 419580
1, 7680, Tempo, 389610
1, 7680, Marker_t, "Teil 2"
1, 8160, Tempo, 383387
1, 8640, Tempo, 377358
1, 9120, Tempo, 380952
1, 9360, Tempo, 396040
1, 9600, Tempo, 382166
1, 10560, Tempo, 378549
1, 11040, Tempo, 383387
1, 11280, Tempo, 397351
1, 11520, Tempo, 387097
1, 12000, Tempo, 382166
1, 12480, Tempo, 384615
1, 12960, Tempo, 385852
1, 13200, Tempo, 392157
1, 13440, Tempo, 384615
1, 13920, Tempo, 384615
1, 14160, Tempo, 393443
1, 14400, Tempo, 389610
1, 14880, Tempo, 397351
1, 15120, Tempo, 418118
1, 15360, Tempo, 392157
1, 15840, Tempo, 384615
1, 16080, Tempo, 393443
1, 16320, Tempo, 383387
1, 17040, Tempo, 397351
1, 17280, Tempo, 385852
1, 18000, Tempo, 391134
1, 18240, Tempo, 384615
1, 18960, Tempo, 397351
1, 19200, Tempo, 385852
1, 19920, Tempo, 392157
1, 20160, Tempo, 384615
1, 20640, Tempo, 385852
1, 20880, Tempo, 397351
1, 21120, Tempo, 382166
1, 21360, Tempo, 394737
1, 21600, Tempo, 385852
1, 21840, Tempo, 393443
1, 22080, Tempo, 393443
1, 22560, Tempo, 398671
1, 22800, Tempo, 470588
1, 23040, Tempo, 389610
1, 23040, Marker_t, "Teil 2 Wiederholung"
1, 23520, Tempo, 383387
1, 24000, Tempo, 377358
1, 24480, Tempo, 380952
1, 24720, Tempo, 396040
1, 24960, Tempo, 382166
1, 25920, Tempo, 378549
1, 26400, Tempo, 383387
1, 26640, Tempo, 397351
1, 26880, Tempo, 387097
1, 27360, Tempo, 382166
1, 27840, Tempo, 384615
1, 28320, Tempo, 385852
1, 28560, Tempo, 392157
1, 28800, Tempo, 384615
1, 29280, Tempo, 384615
1, 29520, Tempo, 393443
1, 29760, Tempo, 389610
1, 30240, Tempo, 397351
1, 30480, Tempo, 418118
1, 30720, Tempo, 392157
1, 31200, Tempo, 384615
1, 31440, Tempo, 393443
1, 31680, Tempo, 383387
1, 32400, Tempo, 397351
1, 32640, Tempo, 385852
1, 33360, Tempo, 389864
1, 33600, Tempo, 384615
1, 34320, Tempo, 397351
1, 34560, Tempo, 385852
1, 35280, Tempo, 392157
1, 35520, Tempo, 384615
1, 36000, Tempo, 385852
1, 36240, Tempo, 397351
1, 36480, Tempo, 382166
1, 36720, Tempo, 394737
1, 36960, Tempo, 385852
1, 37200, Tempo, 393443
1, 37440, Tempo, 393443
1, 37920, Tempo, 398671
1, 38160, Tempo, 419580
1, 38400, Tempo, 389610
1, 38400, Marker_t, "Teil 3"
1, 38880, Tempo, 383387
1, 39360, Tempo, 377358
1, 39840, Tempo, 380952
1, 40080, Tempo, 396040
1, 40320, Tempo, 382166
1, 41280, Tempo, 378549
1, 41760, Tempo, 383387
1, 42000, Tempo, 397351
1, 42240, Tempo, 389610
1, 42720, Tempo, 383387
1, 43200, Tempo, 377358
1, 43680, Tempo, 380952
1, 43920, Tempo, 396040
1, 44160, Tempo, 382166
1, 45120, Tempo, 383632
1, 45600, Tempo, 389864
1, 45840, Tempo, 397351
1, 46080, Tempo, 389610
1, 46560, Tempo, 383387
1, 47040, Tempo, 377358
1, 47520, Tempo, 380952
1, 47760, Tempo, 396040
1, 48000, Tempo, 385852
1, 48480, Tempo, 383387
1, 48960, Tempo, 377358
1, 49440, Tempo, 380952
1, 49680, Tempo, 396040
1, 49920, Tempo, 382166
1, 50880, Tempo, 378549
1, 51360, Tempo, 383387
1, 51600, Tempo, 397351
1, 51840, Tempo, 382166
1, 52560, Tempo, 398671
1, 52800, Tempo, 419874
1, 53040, Tempo, 425834
1, 53280, Tempo, 435098
1, 53520, Tempo, 470958
1, 53760, Tempo, 389610
1, 54240, Tempo, 383387
1, 54720, Tempo, 377358
1, 55200, Tempo, 380952
1, 55440, Tempo, 396040
1, 55680, Tempo, 382166
1, 56640, Tempo, 378549
1, 57120, Tempo, 383387
1, 57360, Tempo, 397351
1, 57600, Tempo, 387097
1, 58080, Tempo, 382166
1, 58560, Tempo, 384615
1, 59040, Tempo, 385852
1, 59280, Tempo, 392157
1, 59520, Tempo, 384615
1, 60000, Tempo, 384615
1, 60240, Tempo, 393443
1, 60480, Tempo, 389610
1, 60960, Tempo, 397351
1, 61200, Tempo, 418118
1, 61440, Tempo, 392157
1, 61920, Tempo, 384615
1, 62160, Tempo, 393443
1, 62400, Tempo, 383387
1, 63120, Tempo, 397351
1, 63360, Tempo, 385852
1, 64080, Tempo, 391134
1, 64320, Tempo, 384615
1, 65040, Tempo, 397351
1, 65280, Tempo, 385852
1, 66000, Tempo, 392157
1, 66240, Tempo, 384615
1, 66720, Tempo, 385852
1, 66960, Tempo, 397351
1, 67200, Tempo, 382166
1, 67440, Tempo, 394737
1, 67680, Tempo, 385852
1, 67920, Tempo, 393443
1, 68160, Tempo, 393443
1, 68640, Tempo, 398671
1, 68880, Tempo, 419580
1, 69360, Tempo, 390879
1, 69600, Tempo, 385852
1, 69840, Tempo, 393443
1, 70080, Tempo, 393443
1, 70560, Tempo, 398671
1, 70800, Tempo, 412655
1, 71040, Tempo, 416956
1, 71280, Tempo, 394737
1, 71520, Tempo, 385852
1, 71760, Tempo, 393443
1, 72000, Tempo, 393443
1, 72480, Tempo, 398671
1, 72720, Tempo, 411241
1, 72960, Tempo, 416956
1, 73200, Tempo, 392157
1, 73440, Tempo, 385852
1, 73680, Tempo, 393443
1, 73920, Tempo, 393443
1, 74400, Tempo, 398671
1, 74640, Tempo, 433526
1, 74880, Tempo, 416956
1, 75120, Tempo, 392157
1, 75360, Tempo, 385852
1, 75600, Tempo, 406780
1, 75840, Tempo, 392157
1, 76320, Tempo, 387097
1, 76560, Tempo, 400000
1, 76800, Tempo, 408163
1, 77040, Tempo, 392157
1, 77280, Tempo, 385852
1, 77520, Tempo, 398671
1, 77760, Tempo, 390879
1, 78240, Tempo, 413793
1, 78480, Tempo, 555556
1, 78600, Tempo, 463320
1, 78720, Tempo, 552486
1, 79200, Tempo, 401338
1, 79680, Tempo, 394997
1, 80400, Tempo, 430108
1, 80640, Tempo, 401338
1, 81360, Tempo, 430108
1, 81600, Tempo, 401338
1, 82500, Tempo, 463320
1, 82560, Tempo, 549954
1, 83040, Tempo, 396301
1, 83520, Tempo, 392413
1, 84240, Tempo, 430108
1, 84480, Tempo, 401338
1, 85200, Tempo, 430108
1, 85440, Tempo, 401338
1, 86340, Tempo, 463320
1, 86400, Tempo, 410959
1, 86962, Tempo, 410959
1, 87162, Tempo, 412371
1, 87362, Tempo, 413793
1, 87562, Tempo, 415225
1, 87742, Tempo, 416667
1, 87942, Tempo, 418118
1, 88142, Tempo, 419580
1, 88322, Tempo, 421053
1, 88560, Tempo, 415225
1, 89760, Tempo, 419580
1, 90000, Tempo, 433213
1, 90240, Tempo, 416667
1, 91162, Tempo, 421053
1, 91242, Tempo, 422535
1, 91302, Tempo, 424028
1, 91362, Tempo, 425532
1, 91442, Tempo, 427046
1, 91502, Tempo, 428571
1, 91562, Tempo, 430108
1, 91642, Tempo, 431655
1, 91702, Tempo, 433213
1, 91762, Tempo, 434783
1, 91842, Tempo, 436364
1, 91902, Tempo, 437956
1, 91962, Tempo, 439560
1, 92042, Tempo, 441176
1, 92102, Tempo, 442804
1, 92160, Tempo, 428571
1, 93120, Tempo, 430108
1, 93600, Tempo, 433213
1, 93840, Tempo, 480000
1, 94320, Tempo, 476569
1, 94320, End_track
2, 0, Start_track
2, 0, Title_t, "Piano right"
2, 0, Program_c, 0, 0
2, 0, Control_c, 0, 7, 127
2, 0, Control_c, 0, 10, 64
2, 0, Note_on_c, 0, 72, 50
2, 120, Note_on_c, 0, 72, 0
2, 240, Note_on_c, 0, 84, 41
2, 360, Note_on_c, 0, 84, 0
2, 480, Note_on_c, 0, 72, 47
2, 600, Note_on_c, 0, 72, 0
2, 720, Note_on_c, 0, 84, 40
2, 840, Note_on_c, 0, 84, 0
2, 960, Note_on_c, 0, 72, 49
2, 1080, Note_on_c, 0, 72, 0
2, 1200, Note_on_c, 0, 84, 40
2, 1320, Note_on_c, 0, 84, 0
2, 1440, Note_on_c, 0, 72, 56
2, 1560, Note_on_c, 0, 72, 0
2, 1680, Note_on_c, 0, 84, 49
2, 1800, Note_on_c, 0, 84, 0
2, 1920, Note_on_c, 0, 72, 61
2, 2040, Note_on_c, 0, 72, 0
2, 2160, Note_on_c, 0, 84, 52
2, 2280, Note_on_c, 0, 84, 0
2, 2400, Note_on_c, 0, 72, 63
2, 2520, Note_on_c, 0, 72, 0
2, 2640, Note_on_c, 0, 84, 55
2, 2760, Note_on_c, 0, 84, 0
2, 2880, Note_on_c, 0, 72, 68
2, 3000, Note_on_c, 0, 72, 0
2, 3120, Note_on_c, 0, 84, 59
2, 3240, Note_on_c, 0, 84, 0
2, 3360, Note_on_c, 0, 72, 63
2, 3480, Note_on_c, 0, 72, 0
2, 3600, Note_on_c, 0, 84, 51
2, 3720, Note_on_c, 0, 84, 0
2, 3840, Note_on_c, 0, 72, 58
2, 3960, Note_on_c, 0, 72, 0
2, 4080, Note_on_c, 0, 84, 41
2, 4200, Note_on_c, 0, 84, 0
2, 4320, Note_on_c, 0, 72, 47
2, 4440, Note_on_c, 0, 72, 0
2, 4560, Note_on_c, 0, 84, 52
2, 4680, Note_on_c, 0, 84, 0
2, 4800, Note_on_c, 0, 72, 64
2, 4920, Note_on_c, 0, 72, 0
2, 5040, Note_on_c, 0, 84, 34
2, 5160, Note_on_c, 0, 84, 0
2, 5280, Note_on_c, 0, 72, 46
2, 5400, Note_on_c, 0, 72, 0
2, 5520, Note_on_c, 0, 84, 51
2, 5640, Note_on_c, 0, 84, 0
2, 5760, Note_on_c, 0, 72, 63
2, 5880, Note_on_c, 0, 72, 0
2, 6000, Note_on_c, 0, 84, 43
2, 6120, Note_on_c, 0, 84, 0
2, 6240, Note_on_c, 0, 72, 55
2, 6360, Note_on_c, 0, 72, 0
2, 6480, Note_on_c, 0, 84, 50
2, 6600, Note_on_c, 0, 84, 0
2, 6720, Note_on_c, 0, 72, 63
2, 6840, Note_on_c, 0, 72, 0
2, 6960, Note_on_c, 0, 84, 38
2, 7080, Note_on_c, 0, 84, 0
2, 7200, Note_on_c, 0, 72, 47
2, 7320, Note_on_c, 0, 72, 0
2, 7440, Note_on_c, 0, 84, 39
2, 7560, Note_on_c, 0, 84, 0
2, 7680, Note_on_c, 0, 72, 37
2, 7800, Note_on_c, 0, 72, 0
2, 7920, Note_on_c, 0, 84, 35
2, 8040, Note_on_c, 0, 84, 0
2, 8160, Note_on_c, 0, 77, 39
2, 8280, Note_on_c, 0, 77, 0
2, 8400, Note_on_c, 0, 89, 38
2, 8520, Note_on_c, 0, 89, 0
2, 8640, Note_on_c, 0, 81, 41
2, 8760, Note_on_c, 0, 81, 0
2, 8880, Note_on_c, 0, 93, 40
2, 9000, Note_on_c, 0, 93, 0
2, 9120, Note_on_c, 0, 79, 46
2, 9240, Note_on_c, 0, 79, 0
2, 9360, Note_on_c, 0, 91, 42
2, 9480, Note_on_c, 0, 91, 0
2, 9600, Note_on_c, 0, 77, 49
2, 9720, Note_on_c, 0, 77, 0
2, 9840, Note_on_c, 0, 89, 43
2, 9960, Note_on_c, 0, 89, 0
2, 10080, Note_on_c, 0, 76, 49
2, 10200, Note_on_c, 0, 76, 0
2, 10320, Note_on_c, 0, 88, 46
2, 10440, Note_on_c, 0, 88, 0
2, 10560, Note_on_c, 0, 79, 58
2, 10680, Note_on_c, 0, 79, 0
2, 10800, Note_on_c, 0, 91, 41
2, 10920, Note_on_c, 0, 91, 0
2, 11040, Note_on_c, 0, 77, 51
2, 11160, Note_on_c, 0, 77, 0
2, 11280, Note_on_c, 0, 89, 42
2, 11400, Note_on_c, 0, 89, 0
2, 11520, Note_on_c, 0, 76, 50
2, 11640, Note_on_c, 0, 76, 0
2, 11760, Note_on_c, 0, 88, 39
2, 11880, Note_on_c, 0, 88, 0
2, 12000, Note_on_c, 0, 74, 44
2, 12120, Note_on_c, 0, 74, 0
2, 12240, Note_on_c, 0, 86, 40
2, 12360, Note_on_c, 0, 86, 0
2, 12480, Note_on_c, 0, 67, 44
2, 12600, Note_on_c, 0, 67, 0
2, 12720, Note_on_c, 0, 79, 43
2, 12840, Note_on_c, 0, 79, 0
2, 12960, Note_on_c, 0, 69, 48
2, 13080, Note_on_c, 0, 69, 0
2, 13200, Note_on_c, 0, 81, 45
2, 13320, Note_on_c, 0, 81, 0
2, 13440, Note_on_c, 0, 70, 58
2, 13560, Note_on_c, 0, 70, 0
2, 13680, Note_on_c, 0, 82, 51
2, 13800, Note_on_c, 0, 82, 0
2, 13920, Note_on_c, 0, 71, 53
2, 14040, Note_on_c, 0, 71, 0
2, 14160, Note_on_c, 0, 83, 50
2, 14280, Note_on_c, 0, 83, 0
2, 14400, Note_on_c, 0, 72, 58
2, 14520, Note_on_c, 0, 72, 0
2, 14640, Note_on_c, 0, 84, 43
2, 14760, Note_on_c, 0, 84, 0
2, 14880, Note_on_c, 0, 70, 52
2, 15000, Note_on_c, 0, 70, 0
2, 15120, Note_on_c, 0, 82, 43
2, 15240, Note_on_c, 0, 82, 0
2, 15360, Note_on_c, 0, 72, 55
2, 15480, Note_on_c, 0, 72, 0
2, 15600, Note_on_c, 0, 84, 46
2, 15720, Note_on_c, 0, 84, 0
2, 15840, Note_on_c, 0, 77, 55
2, 15960, Note_on_c, 0, 77, 0
2, 16080, Note_on_c, 0, 89, 44
2, 16200, Note_on_c, 0, 89, 0
2, 16320, Note_on_c, 0, 77, 62
2, 16440, Note_on_c, 0, 77, 0
2, 16560, Note_on_c, 0, 89, 52
2, 16680, Note_on_c, 0, 89, 0
2, 16800, Note_on_c, 0, 76, 64
2, 16920, Note_on_c, 0, 76, 0
2, 17040, Note_on_c, 0, 88, 50
2, 17160, Note_on_c, 0, 88, 0
2, 17280, Note_on_c, 0, 76, 72
2, 17400, Note_on_c, 0, 76, 0
2, 17520, Note_on_c, 0, 88, 65
2, 17640, Note_on_c, 0, 88, 0
2, 17760, Note_on_c, 0, 74, 70
2, 17880, Note_on_c, 0, 74, 0
2, 18000, Note_on_c, 0, 86, 57
2, 18120, Note_on_c, 0, 86, 0
2, 18240, Note_on_c, 0, 72, 63
2, 18360, Note_on_c, 0, 72, 0
2, 18480, Note_on_c, 0, 84, 49
2, 18600, Note_on_c, 0, 84, 0
2, 18720, Note_on_c, 0, 70, 58
2, 18840, Note_on_c, 0, 70, 0
2, 18960, Note_on_c, 0, 82, 48
2, 19080, Note_on_c, 0, 82, 0
2, 19200, Note_on_c, 0, 69, 60
2, 19320, Note_on_c, 0, 69, 0
2, 19440, Note_on_c, 0, 81, 48
2, 19560, Note_on_c, 0, 81, 0
2, 19680, Note_on_c, 0, 65, 58
2, 19800, Note_on_c, 0, 65, 0
2, 19920, Note_on_c, 0, 77, 50
2, 20040, Note_on_c, 0, 77, 0
2, 20160, Note_on_c, 0, 65, 66
2, 20280, Note_on_c, 0, 65, 0
2, 20400, Note_on_c, 0, 77, 60
2, 20520, Note_on_c, 0, 77, 0
2, 20640, Note_on_c, 0, 64, 64
2, 20760, Note_on_c, 0, 64, 0
2, 20880, Note_on_c, 0, 76, 51
2, 21000, Note_on_c, 0, 76, 0
2, 21120, Note_on_c, 0, 65, 59
2, 21240, Note_on_c, 0, 65, 0
2, 21360, Note_on_c, 0, 77, 52
2, 21480, Note_on_c, 0, 77, 0
2, 21600, Note_on_c, 0, 70, 67
2, 21720, Note_on_c, 0, 70, 0
2, 21840, Note_on_c, 0, 82, 55
2, 21960, Note_on_c, 0, 82, 0
2, 22080, Note_on_c, 0, 69, 62
2, 22200, Note_on_c, 0, 69, 0
2, 22320, Note_on_c, 0, 81, 56
2, 22440, Note_on_c, 0, 81, 0
2, 22560, Note_on_c, 0, 74, 59
2, 22680, Note_on_c, 0, 74, 0
2, 22800, Note_on_c, 0, 86, 49
2, 22920, Note_on_c, 0, 86, 0
2, 23040, Note_on_c, 0, 72, 37
2, 23160, Note_on_c, 0, 72, 0
2, 23280, Note_on_c, 0, 84, 35
2, 23400, Note_on_c, 0, 84, 0
2, 23520, Note_on_c, 0, 77, 39
2, 23640, Note_on_c, 0, 77, 0
2, 23760, Note_on_c, 0, 89, 38
2, 23880, Note_on_c, 0, 89, 0
2, 24000, Note_on_c, 0, 81, 41
2, 24120, Note_on_c, 0, 81, 0
2, 24240, Note_on_c, 0, 93, 40
2, 24360, Note_on_c, 0, 93, 0
2, 24480, Note_on_c, 0, 79, 46
2, 24600, Note_on_c, 0, 79, 0
2, 24720, Note_on_c, 0, 91, 42
2, 24840, Note_on_c, 0, 91, 0
2, 24960, Note_on_c, 0, 77, 49
2, 25080, Note_on_c, 0, 77, 0
2, 25200, Note_on_c, 0, 89, 43
2, 25320, Note_on_c, 0, 89, 0
2, 25440, Note_on_c, 0, 76, 49
2, 25560, Note_on_c, 0, 76, 0
2, 25680, Note_on_c, 0, 88, 46
2, 25800, Note_on_c, 0, 88, 0
2, 25920, Note_on_c, 0, 79, 58
2, 26040, Note_on_c, 0, 79, 0
2, 26160, Note_on_c, 0, 91, 41
2, 26280, Note_on_c, 0, 91, 0
2, 26400, Note_on_c, 0, 77, 51
2, 26520, Note_on_c, 0, 77, 0
2, 26640, Note_on_c, 0, 89, 42
2, 26760, Note_on_c, 0, 89, 0
2, 26880, Note_on_c, 0, 76, 50
2, 27000, Note_on_c, 0, 76, 0
2, 27120, Note_on_c, 0, 88, 35
2, 27240, Note_on_c, 0, 88, 0
2, 27360, Note_on_c, 0, 74, 44
2, 27480, Note_on_c, 0, 74, 0
2, 27600, Note_on_c, 0, 86, 40
2, 27720, Note_on_c, 0, 86, 0
2, 27840, Note_on_c, 0, 67, 44
2, 27960, Note_on_c, 0, 67, 0
2, 28080, Note_on_c, 0, 79, 43
2, 28200, Note_on_c, 0, 79, 0
2, 28320, Note_on_c, 0, 69, 48
2, 28440, Note_on_c, 0, 69, 0
2, 28560, Note_on_c, 0, 81, 45
2, 28680, Note_on_c, 0, 81, 0
2, 28800, Note_on_c, 0, 70, 58
2, 28920, Note_on_c, 0, 70, 0
2, 29040, Note_on_c, 0, 82, 51
2, 29160, Note_on_c, 0, 82, 0
2, 29280, Note_on_c, 0, 71, 53
2, 29400, Note_on_c, 0, 71, 0
2, 29520, Note_on_c, 0, 83, 50
2, 29640, Note_on_c, 0, 83, 0
2, 29760, Note_on_c, 0, 72, 58
2, 29880, Note_on_c, 0, 72, 0
2, 30000, Note_on_c, 0, 84, 43
2, 30120, Note_on_c, 0, 84, 0
2, 30240, Note_on_c, 0, 70, 52
2, 30360, Note_on_c, 0, 70, 0
2, 30480, Note_on_c, 0, 82, 43
2, 30600, Note_on_c, 0, 82, 0
2, 30720, Note_on_c, 0, 72, 55
2, 30840, Note_on_c, 0, 72, 0
2, 30960, Note_on_c, 0, 84, 46
2, 31080, Note_on_c, 0, 84, 0
2, 31200, Note_on_c, 0, 77, 55
2, 31320, Note_on_c, 0, 77, 0
2, 31440, Note_on_c, 0, 89, 44
2, 31560, Note_on_c, 0, 89, 0
2, 31680, Note_on_c, 0, 77, 62
2, 31800, Note_on_c, 0, 77, 0
2, 31920, Note_on_c, 0, 89, 52
2, 32040, Note_on_c, 0, 89, 0
2, 32160, Note_on_c, 0, 76, 64
2, 32280, Note_on_c, 0, 76, 0
2, 32400, Note_on_c, 0, 88, 50
2, 32520, Note_on_c, 0, 88, 0
2, 32640, Note_on_c, 0, 76, 72
2, 32760, Note_on_c, 0, 76, 0
2, 32880, Note_on_c, 0, 88, 65
2, 33000, Note_on_c, 0, 88, 0
2, 33120, Note_on_c, 0, 74, 70
2, 33240, Note_on_c, 0, 74, 0
2, 33360, Note_on_c, 0, 86, 57
2, 33480, Note_on_c, 0, 86, 0
2, 33600, Note_on_c, 0, 72, 63
2, 33720, Note_on_c, 0, 72, 0
2, 33840, Note_on_c, 0, 84, 49
2, 33960, Note_on_c, 0, 84, 0
2, 34080, Note_on_c, 0, 70, 58
2, 34200, Note_on_c, 0, 70, 0
2, 34320, Note_on_c, 0, 82, 48
2, 34440, Note_on_c, 0, 82, 0
2, 34560, Note_on_c, 0, 69, 60
2, 34680, Note_on_c, 0, 69, 0
2, 34800, Note_on_c, 0, 81, 48
2, 34920, Note_on_c, 0, 81, 0
2, 35040, Note_on_c, 0, 65, 58
2, 35160, Note_on_c, 0, 65, 0
2, 35280, Note_on_c, 0, 77, 50
2, 35400, Note_on_c, 0, 77, 0
2, 35520, Note_on_c, 0, 65, 66
2, 35640, Note_on_c, 0, 65, 0
2, 35760, Note_on_c, 0, 77, 60
2, 35880, Note_on_c, 0, 77, 0
2, 36000, Note_on_c, 0, 64, 64
2, 36120, Note_on_c, 0, 64, 0
2, 36240, Note_on_c, 0, 76, 51
2, 36360, Note_on_c, 0, 76, 0
2, 36480, Note_on_c, 0, 65, 59
2, 36600, Note_on_c, 0, 65, 0
2, 36720, Note_on_c, 0, 77, 52
2, 36840, Note_on_c, 0, 77, 0
2, 36960, Note_on_c, 0, 65, 61
2, 37080, Note_on_c, 0, 65, 0
2, 37200, Note_on_c, 0, 77, 60
2, 37320, Note_on_c, 0, 77, 0
2, 37440, Note_on_c, 0, 65, 68
2, 37560, Note_on_c, 0, 65, 0
2, 37680, Note_on_c, 0, 77, 45
2, 37800, Note_on_c, 0, 77, 0
2, 37920, Note_on_c, 0, 65, 51
2, 38040, Note_on_c, 0, 65, 0
2, 38160, Note_on_c, 0, 77, 43
2, 38280, Note_on_c, 0, 77, 0
2, 38400, Note_on_c, 0, 77, 31
2, 38400, Note_on_c, 0, 74, 24
2, 38400, Note_on_c, 0, 65, 24
2, 38520, Note_on_c, 0, 65, 0
2, 38520, Note_on_c, 0, 74, 0
2, 38520, Note_on_c, 0, 77, 0
2, 38640, Note_on_c, 0, 65, 20
2, 38640, Note_on_c, 0, 74, 20
2, 38640, Note_on_c, 0, 77, 26
2, 38760, Note_on_c, 0, 77, 0
2, 38760, Note_on_c, 0, 74, 0
2, 38760, Note_on_c, 0, 65, 0
2, 38880, Note_on_c, 0, 77, 31
2, 38880, Note_on_c, 0, 74, 24
2, 38880, Note_on_c, 0, 65, 24
2, 39000, Note_on_c, 0, 65, 0
2, 39000, Note_on_c, 0, 74, 0
2, 39000, Note_on_c, 0, 77, 0
2, 39120, Note_on_c, 0, 65, 23
2, 39120, Note_on_c, 0, 74, 23
2, 39120, Note_on_c, 0, 77, 29
2, 39240, Note_on_c, 0, 77, 0
2, 39240, Note_on_c, 0, 74, 0
2, 39240, Note_on_c, 0, 65, 0
2, 39360, Note_on_c, 0, 65, 28
2, 39360, Note_on_c, 0, 74, 28
2, 39360, Note_on_c, 0, 77, 36
2, 39480, Note_on_c, 0, 77, 0
2, 39480, Note_on_c, 0, 74, 0
2, 39480, Note_on_c, 0, 65, 0
2, 39600, Note_on_c, 0, 65, 24
2, 39600, Note_on_c, 0, 74, 24
2, 39600, Note_on_c, 0, 77, 31
2, 39720, Note_on_c, 0, 77, 0
2, 39720, Note_on_c, 0, 74, 0
2, 39720, Note_on_c, 0, 65, 0
2, 39840, Note_on_c, 0, 77, 42
2, 39840, Note_on_c, 0, 74, 35
2, 39840, Note_on_c, 0, 65, 35
2, 39960, Note_on_c, 0, 65, 0
2, 39960, Note_on_c, 0, 74, 0
2, 39960, Note_on_c, 0, 77, 0
2, 40080, Note_on_c, 0, 77, 34
2, 40080, Note_on_c, 0, 74, 28
2, 40080, Note_on_c, 0, 65, 28
2, 40200, Note_on_c, 0, 65, 0
2, 40200, Note_on_c, 0, 74, 0
2, 40200, Note_on_c, 0, 77, 0
2, 40320, Note_on_c, 0, 65, 39
2, 40320, Note_on_c, 0, 74, 39
2, 40320, Note_on_c, 0, 77, 46
2, 40440, Note_on_c, 0, 77, 0
2, 40440, Note_on_c, 0, 74, 0
2, 40440, Note_on_c, 0, 65, 0
2, 40560, Note_on_c, 0, 77, 33
2, 40560, Note_on_c, 0, 74, 28
2, 40560, Note_on_c, 0, 65, 28
2, 40680, Note_on_c, 0, 65, 0
2, 40680, Note_on_c, 0, 74, 0
2, 40680, Note_on_c, 0, 77, 0
2, 40800, Note_on_c, 0, 65, 35
2, 40800, Note_on_c, 0, 74, 35
2, 40800, Note_on_c, 0, 77, 42
2, 40920, Note_on_c, 0, 77, 0
2, 40920, Note_on_c, 0, 74, 0
2, 40920, Note_on_c, 0, 65, 0
2, 41040, Note_on_c, 0, 77, 33
2, 41040, Note_on_c, 0, 74, 28
2, 41040, Note_on_c, 0, 65, 28
2, 41160, Note_on_c, 0, 65, 0
2, 41160, Note_on_c, 0, 74, 0
2, 41160, Note_on_c, 0, 77, 0
2, 41280, Note_on_c, 0, 77, 40
2, 41280, Note_on_c, 0, 74, 34
2, 41280, Note_on_c, 0, 65, 34
2, 41400, Note_on_c, 0, 65, 0
2, 41400, Note_on_c, 0, 74, 0
2, 41400, Note_on_c, 0, 77, 0
2, 41520, Note_on_c, 0, 77, 30
2, 41520, Note_on_c, 0, 74, 25
2, 41520, Note_on_c, 0, 65, 25
2, 41640, Note_on_c, 0, 65, 0
2, 41640, Note_on_c, 0, 74, 0
2, 41640, Note_on_c, 0, 77, 0
2, 41760, Note_on_c, 0, 65, 24
2, 41760, Note_on_c, 0, 74, 24
2, 41760, Note_on_c, 0, 77, 37
2, 41880, Note_on_c, 0, 77, 0
2, 41880, Note_on_c, 0, 74, 0
2, 41880, Note_on_c, 0, 65, 0
2, 42000, Note_on_c, 0, 65, 20
2, 42000, Note_on_c, 0, 74, 20
2, 42000, Note_on_c, 0, 77, 31
2, 42120, Note_on_c, 0, 77, 0
2, 42120, Note_on_c, 0, 74, 0
2, 42120, Note_on_c, 0, 65, 0
2, 42240, Note_on_c, 0, 76, 35
2, 42240, Note_on_c, 0, 74, 27
2, 42240, Note_on_c, 0, 70, 27
2, 42360, Note_on_c, 0, 70, 0
2, 42360, Note_on_c, 0, 74, 0
2, 42360, Note_on_c, 0, 76, 0
2, 42480, Note_on_c, 0, 70, 23
2, 42480, Note_on_c, 0, 74, 23
2, 42480, Note_on_c, 0, 76, 29
2, 42600, Note_on_c, 0, 76, 0
2, 42600, Note_on_c, 0, 74, 0
2, 42600, Note_on_c, 0, 70, 0
2, 42720, Note_on_c, 0, 76, 35
2, 42720, Note_on_c, 0, 74, 27
2, 42720, Note_on_c, 0, 69, 27
2, 42840, Note_on_c, 0, 69, 0
2, 42840, Note_on_c, 0, 74, 0
2, 42840, Note_on_c, 0, 76, 0
2, 42960, Note_on_c, 0, 69, 26
2, 42960, Note_on_c, 0, 74, 26
2, 42960, Note_on_c, 0, 76, 33
2, 43080, Note_on_c, 0, 76, 0
2, 43080, Note_on_c, 0, 74, 0
2, 43080, Note_on_c, 0, 69, 0
2, 43200, Note_on_c, 0, 67, 32
2, 43200, Note_on_c, 0, 74, 32
2, 43200, Note_on_c, 0, 76, 41
2, 43320, Note_on_c, 0, 76, 0
2, 43320, Note_on_c, 0, 74, 0
2, 43320, Note_on_c, 0, 67, 0
2, 43440, Note_on_c, 0, 67, 27
2, 43440, Note_on_c, 0, 74, 27
2, 43440, Note_on_c, 0, 76, 35
2, 43560, Note_on_c, 0, 76, 0
2, 43560, Note_on_c, 0, 74, 0
2, 43560, Note_on_c, 0, 67, 0
2, 43680, Note_on_c, 0, 76, 48
2, 43680, Note_on_c, 0, 74, 40
2, 43680, Note_on_c, 0, 70, 40
2, 43800, Note_on_c, 0, 70, 0
2, 43800, Note_on_c, 0, 74, 0
2, 43800, Note_on_c, 0, 76, 0
2, 43920, Note_on_c, 0, 76, 39
2, 43920, Note_on_c, 0, 74, 32
2, 43920, Note_on_c, 0, 70, 32
2, 44040, Note_on_c, 0, 70, 0
2, 44040, Note_on_c, 0, 74, 0
2, 44040, Note_on_c, 0, 76, 0
2, 44160, Note_on_c, 0, 69, 44
2, 44160, Note_on_c, 0, 73, 44
2, 44160, Note_on_c, 0, 76, 52
2, 44280, Note_on_c, 0, 76, 0
2, 44280, Note_on_c, 0, 73, 0
2, 44280, Note_on_c, 0, 69, 0
2, 44400, Note_on_c, 0, 76, 37
2, 44400, Note_on_c, 0, 73, 32
2, 44400, Note_on_c, 0, 69, 32
2, 44520, Note_on_c, 0, 69, 0
2, 44520, Note_on_c, 0, 73, 0
2, 44520, Note_on_c, 0, 76, 0
2, 44640, Note_on_c, 0, 69, 40
2, 44640, Note_on_c, 0, 73, 40
2, 44640, Note_on_c, 0, 76, 48
2, 44760, Note_on_c, 0, 76, 0
2, 44760, Note_on_c, 0, 73, 0
2, 44760, Note_on_c, 0, 69, 0
2, 44880, Note_on_c, 0, 76, 37
2, 44880, Note_on_c, 0, 73, 32
2, 44880, Note_on_c, 0, 69, 32
2, 45000, Note_on_c, 0, 69, 0
2, 45000, Note_on_c, 0, 73, 0
2, 45000, Note_on_c, 0, 76, 0
2, 45120, Note_on_c, 0, 74, 55
2, 45120, Note_on_c, 0, 69, 46
2, 45240, Note_on_c, 0, 69, 0
2, 45240, Note_on_c, 0, 74, 0
2, 45360, Note_on_c, 0, 74, 41
2, 45360, Note_on_c, 0, 69, 33
2, 45480, Note_on_c, 0, 69, 0
2, 45480, Note_on_c, 0, 74, 0
2, 45600, Note_on_c, 0, 76, 57
2, 45600, Note_on_c, 0, 73, 48
2, 45600, Note_on_c, 0, 69, 48
2, 45720, Note_on_c, 0, 69, 0
2, 45720, Note_on_c, 0, 73, 0
2, 45720, Note_on_c, 0, 76, 0
2, 45840, Note_on_c, 0, 76, 50
2, 45840, Note_on_c, 0, 73, 42
2, 45840, Note_on_c, 0, 69, 42
2, 45960, Note_on_c, 0, 69, 0
2, 45960, Note_on_c, 0, 73, 0
2, 45960, Note_on_c, 0, 76, 0
2, 46080, Note_on_c, 0, 69, 55
2, 46080, Note_on_c, 0, 74, 55
2, 46080, Note_on_c, 0, 77, 55
2, 46200, Note_on_c, 0, 77, 0
2, 46200, Note_on_c, 0, 74, 0
2, 46200, Note_on_c, 0, 69, 0
2, 46320, Note_on_c, 0, 69, 42
2, 46320, Note_on_c, 0, 74, 42
2, 46320, Note_on_c, 0, 77, 42
2, 46440, Note_on_c, 0, 77, 0
2, 46440, Note_on_c, 0, 74, 0
2, 46440, Note_on_c, 0, 69, 0
2, 46560, Note_on_c, 0, 69, 58
2, 46560, Note_on_c, 0, 73, 58
2, 46560, Note_on_c, 0, 76, 58
2, 46680, Note_on_c, 0, 76, 0
2, 46680, Note_on_c, 0, 73, 0
2, 46680, Note_on_c, 0, 69, 0
2, 46800, Note_on_c, 0, 76, 46
2, 46800, Note_on_c, 0, 73, 46
2, 46800, Note_on_c, 0, 69, 46
2, 46920, Note_on_c, 0, 69, 0
2, 46920, Note_on_c, 0, 73, 0
2, 46920, Note_on_c, 0, 76, 0
2, 47040, Note_on_c, 0, 77, 61
2, 47040, Note_on_c, 0, 74, 61
2, 47040, Note_on_c, 0, 69, 61
2, 47160, Note_on_c, 0, 69, 0
2, 47160, Note_on_c, 0, 74, 0
2, 47160, Note_on_c, 0, 77, 0
2, 47280, Note_on_c, 0, 77, 48
2, 47280, Note_on_c, 0, 74, 48
2, 47280, Note_on_c, 0, 69, 48
2, 47400, Note_on_c, 0, 69, 0
2, 47400, Note_on_c, 0, 74, 0
2, 47400, Note_on_c, 0, 77, 0
2, 47520, Note_on_c, 0, 72, 64
2, 47520, Note_on_c, 0, 76, 64
2, 47520, Note_on_c, 0, 79, 64
2, 47640, Note_on_c, 0, 79, 0
2, 47640, Note_on_c, 0, 76, 0
2, 47640, Note_on_c, 0, 72, 0
2, 47760, Note_on_c, 0, 72, 54
2, 47760, Note_on_c, 0, 76, 54
2, 47760, Note_on_c, 0, 79, 54
2, 47880, Note_on_c, 0, 79, 0
2, 47880, Note_on_c, 0, 76, 0
2, 47880, Note_on_c, 0, 72, 0
2, 48000, Note_on_c, 0, 72, 66
2, 48000, Note_on_c, 0, 77, 66
2, 48000, Note_on_c, 0, 81, 66
2, 48120, Note_on_c, 0, 81, 0
2, 48120, Note_on_c, 0, 77, 0
2, 48120, Note_on_c, 0, 72, 0
2, 48240, Note_on_c, 0, 72, 51
2, 48240, Note_on_c, 0, 77, 51
2, 48240, Note_on_c, 0, 81, 51
2, 48360, Note_on_c, 0, 81, 0
2, 48360, Note_on_c, 0, 77, 0
2, 48360, Note_on_c, 0, 72, 0
2, 48480, Note_on_c, 0, 76, 70
2, 48480, Note_on_c, 0, 80, 70
2, 48480, Note_on_c, 0, 83, 70
2, 48600, Note_on_c, 0, 83, 0
2, 48600, Note_on_c, 0, 80, 0
2, 48600, Note_on_c, 0, 76, 0
2, 48720, Note_on_c, 0, 83, 56
2, 48720, Note_on_c, 0, 80, 56
2, 48720, Note_on_c, 0, 76, 56
2, 48840, Note_on_c, 0, 76, 0
2, 48840, Note_on_c, 0, 80, 0
2, 48840, Note_on_c, 0, 83, 0
2, 48960, Note_on_c, 0, 84, 73
2, 48960, Note_on_c, 0, 81, 73
2, 48960, Note_on_c, 0, 76, 73
2, 49080, Note_on_c, 0, 76, 0
2, 49080, Note_on_c, 0, 81, 0
2, 49080, Note_on_c, 0, 84, 0
2, 49200, Note_on_c, 0, 84, 59
2, 49200, Note_on_c, 0, 81, 59
2, 49200, Note_on_c, 0, 76, 59
2, 49320, Note_on_c, 0, 76, 0
2, 49320, Note_on_c, 0, 81, 0
2, 49320, Note_on_c, 0, 84, 0
2, 49440, Note_on_c, 0, 79, 77
2, 49440, Note_on_c, 0, 83, 77
2, 49440, Note_on_c, 0, 86, 77
2, 49560, Note_on_c, 0, 86, 0
2, 49560, Note_on_c, 0, 83, 0
2, 49560, Note_on_c, 0, 79, 0
2, 49680, Note_on_c, 0, 83, 65
2, 49680, Note_on_c, 0, 79, 65
2, 49680, Note_on_c, 0, 86, 65
2, 49800, Note_on_c, 0, 86, 0
2, 49800, Note_on_c, 0, 79, 0
2, 49800, Note_on_c, 0, 83, 0
2, 49920, Note_on_c, 0, 79, 68
2, 49920, Note_on_c, 0, 84, 81
2, 49920, Note_on_c, 0, 88, 81
2, 50040, Note_on_c, 0, 88, 0
2, 50040, Note_on_c, 0, 84, 0
2, 50040, Note_on_c, 0, 79, 0
2, 50160, Note_on_c, 0, 88, 64
2, 50160, Note_on_c, 0, 84, 64
2, 50160, Note_on_c, 0, 79, 53
2, 50280, Note_on_c, 0, 79, 0
2, 50280, Note_on_c, 0, 84, 0
2, 50280, Note_on_c, 0, 88, 0
2, 50400, Note_on_c, 0, 82, 66
2, 50400, Note_on_c, 0, 86, 79
2, 50520, Note_on_c, 0, 86, 0
2, 50520, Note_on_c, 0, 82, 0
2, 50640, Note_on_c, 0, 86, 62
2, 50640, Note_on_c, 0, 82, 51
2, 50760, Note_on_c, 0, 82, 0
2, 50760, Note_on_c, 0, 86, 0
2, 50880, Note_on_c, 0, 81, 62
2, 50880, Note_on_c, 0, 84, 73
2, 51000, Note_on_c, 0, 84, 0
2, 51000, Note_on_c, 0, 81, 0
2, 51120, Note_on_c, 0, 81, 52
2, 51120, Note_on_c, 0, 84, 61
2, 51240, Note_on_c, 0, 84, 0
2, 51240, Note_on_c, 0, 81, 0
2, 51360, Note_on_c, 0, 80, 59
2, 51360, Note_on_c, 0, 83, 72
2, 51480, Note_on_c, 0, 83, 0
2, 51480, Note_on_c, 0, 80, 0
2, 51600, Note_on_c, 0, 83, 54
2, 51600, Note_on_c, 0, 80, 45
2, 51720, Note_on_c, 0, 80, 0
2, 51720, Note_on_c, 0, 83, 0
2, 51840, Note_on_c, 0, 79, 56
2, 51840, Note_on_c, 0, 82, 67
2, 51960, Note_on_c, 0, 82, 0
2, 51960, Note_on_c, 0, 79, 0
2, 52080, Note_on_c, 0, 82, 51
2, 52080, Note_on_c, 0, 79, 43
2, 52200, Note_on_c, 0, 79, 0
2, 52200, Note_on_c, 0, 82, 0
2, 52320, Note_on_c, 0, 78, 51
2, 52320, Note_on_c, 0, 81, 61
2, 52440, Note_on_c, 0, 81, 0
2, 52440, Note_on_c, 0, 78, 0
2, 52560, Note_on_c, 0, 81, 47
2, 52560, Note_on_c, 0, 78, 39
2, 52680, Note_on_c, 0, 78, 0
2, 52680, Note_on_c, 0, 81, 0
2, 52800, Note_on_c, 0, 79, 41
2, 52800, Note_on_c, 0, 82, 49
2, 52920, Note_on_c, 0, 82, 0
2, 52920, Note_on_c, 0, 79, 0
2, 53040, Note_on_c, 0, 79, 32
2, 53040, Note_on_c, 0, 82, 38
2, 53160, Note_on_c, 0, 82, 0
2, 53160, Note_on_c, 0, 79, 0
2, 53280, Note_on_c, 0, 72, 34
2, 53280, Note_on_c, 0, 84, 41
2, 53400, Note_on_c, 0, 84, 0
2, 53400, Note_on_c, 0, 72, 0
2, 53520, Note_on_c, 0, 84, 29
2, 53520, Note_on_c, 0, 72, 24
2, 53640, Note_on_c, 0, 72, 0
2, 53640, Note_on_c, 0, 84, 0
2, 53760, Note_on_c, 0, 72, 37
2, 53880, Note_on_c, 0, 72, 0
2, 54000, Note_on_c, 0, 84, 35
2, 54120, Note_on_c, 0, 84, 0
2, 54240, Note_on_c, 0, 77, 39
2, 54360, Note_on_c, 0, 77, 0
2, 54480, Note_on_c, 0, 89, 38
2, 54600, Note_on_c, 0, 89, 0
2, 54720, Note_on_c, 0, 81, 41
2, 54840, Note_on_c, 0, 81, 0
2, 54960, Note_on_c, 0, 93, 40
2, 55080, Note_on_c, 0, 93, 0
2, 55200, Note_on_c, 0, 79, 46
2, 55320, Note_on_c, 0, 79, 0
2, 55440, Note_on_c, 0, 91, 42
2, 55560, Note_on_c, 0, 91, 0
2, 55680, Note_on_c, 0, 77, 49
2, 55800, Note_on_c, 0, 77, 0
2, 55920, Note_on_c, 0, 89, 43
2, 56040, Note_on_c, 0, 89, 0
2, 56160, Note_on_c, 0, 76, 49
2, 56280, Note_on_c, 0, 76, 0
2, 56400, Note_on_c, 0, 88, 46
2, 56520, Note_on_c, 0, 88, 0
2, 56640, Note_on_c, 0, 79, 58
2, 56760, Note_on_c, 0, 79, 0
2, 56880, Note_on_c, 0, 91, 41
2, 57000, Note_on_c, 0, 91, 0
2, 57120, Note_on_c, 0, 77, 51
2, 57240, Note_on_c, 0, 77, 0
2, 57360, Note_on_c, 0, 89, 42
2, 57480, Note_on_c, 0, 89, 0
2, 57600, Note_on_c, 0, 76, 55
2, 57720, Note_on_c, 0, 76, 0
2, 57840, Note_on_c, 0, 88, 43
2, 57960, Note_on_c, 0, 88, 0
2, 58080, Note_on_c, 0, 74, 49
2, 58200, Note_on_c, 0, 74, 0
2, 58320, Note_on_c, 0, 86, 40
2, 58440, Note_on_c, 0, 86, 0
2, 58560, Note_on_c, 0, 67, 44
2, 58680, Note_on_c, 0, 67, 0
2, 58800, Note_on_c, 0, 79, 43
2, 58920, Note_on_c, 0, 79, 0
2, 59040, Note_on_c, 0, 69, 48
2, 59160, Note_on_c, 0, 69, 0
2, 59280, Note_on_c, 0, 81, 45
2, 59400, Note_on_c, 0, 81, 0
2, 59520, Note_on_c, 0, 70, 58
2, 59640, Note_on_c, 0, 70, 0
2, 59760, Note_on_c, 0, 82, 51
2, 59880, Note_on_c, 0, 82, 0
2, 60000, Note_on_c, 0, 71, 53
2, 60120, Note_on_c, 0, 71, 0
2, 60240, Note_on_c, 0, 83, 50
2, 60360, Note_on_c, 0, 83, 0
2, 60480, Note_on_c, 0, 72, 58
2, 60600, Note_on_c, 0, 72, 0
2, 60720, Note_on_c, 0, 84, 43
2, 60840, Note_on_c, 0, 84, 0
2, 60960, Note_on_c, 0, 70, 52
2, 61080, Note_on_c, 0, 70, 0
2, 61200, Note_on_c, 0, 82, 43
2, 61320, Note_on_c, 0, 82, 0
2, 61440, Note_on_c, 0, 72, 55
2, 61560, Note_on_c, 0, 72, 0
2, 61680, Note_on_c, 0, 84, 46
2, 61800, Note_on_c, 0, 84, 0
2, 61920, Note_on_c, 0, 77, 55
2, 62040, Note_on_c, 0, 77, 0
2, 62160, Note_on_c, 0, 89, 44
2, 62280, Note_on_c, 0, 89, 0
2, 62400, Note_on_c, 0, 77, 62
2, 62520, Note_on_c, 0, 77, 0
2, 62640, Note_on_c, 0, 89, 52
2, 62760, Note_on_c, 0, 89, 0
2, 62880, Note_on_c, 0, 76, 64
2, 63000, Note_on_c, 0, 76, 0
2, 63120, Note_on_c, 0, 88, 50
2, 63240, Note_on_c, 0, 88, 0
2, 63360, Note_on_c, 0, 76, 72
2, 63480, Note_on_c, 0, 76, 0
2, 63600, Note_on_c, 0, 88, 65
2, 63720, Note_on_c, 0, 88, 0
2, 63840, Note_on_c, 0, 74, 70
2, 63960, Note_on_c, 0, 74, 0
2, 64080, Note_on_c, 0, 86, 57
2, 64200, Note_on_c, 0, 86, 0
2, 64320, Note_on_c, 0, 72, 63
2, 64440, Note_on_c, 0, 72, 0
2, 64560, Note_on_c, 0, 84, 49
2, 64680, Note_on_c, 0, 84, 0
2, 64800, Note_on_c, 0, 70, 58
2, 64920, Note_on_c, 0, 70, 0
2, 65040, Note_on_c, 0, 82, 48
2, 65160, Note_on_c, 0, 82, 0
2, 65280, Note_on_c, 0, 69, 60
2, 65400, Note_on_c, 0, 69, 0
2, 65520, Note_on_c, 0, 81, 48
2, 65640, Note_on_c, 0, 81, 0
2, 65760, Note_on_c, 0, 65, 58
2, 65880, Note_on_c, 0, 65, 0
2, 66000, Note_on_c, 0, 77, 50
2, 66120, Note_on_c, 0, 77, 0
2, 66240, Note_on_c, 0, 65, 66
2, 66360, Note_on_c, 0, 65, 0
2, 66480, Note_on_c, 0, 77, 60
2, 66600, Note_on_c, 0, 77, 0
2, 66720, Note_on_c, 0, 64, 64
2, 66840, Note_on_c, 0, 64, 0
2, 66960, Note_on_c, 0, 76, 51
2, 67080, Note_on_c, 0, 76, 0
2, 67200, Note_on_c, 0, 65, 59
2, 67320, Note_on_c, 0, 65, 0
2, 67440, Note_on_c, 0, 65, 44
2, 67440, Note_on_c, 0, 77, 52
2, 67560, Note_on_c, 0, 77, 0
2, 67560, Note_on_c, 0, 65, 0
2, 67680, Note_on_c, 0, 77, 61
2, 67680, Note_on_c, 0, 65, 51
2, 67800, Note_on_c, 0, 65, 0
2, 67800, Note_on_c, 0, 77, 0
2, 68400, Note_on_c, 0, 65, 38
2, 68400, Note_on_c, 0, 77, 45
2, 68520, Note_on_c, 0, 77, 0
2, 68520, Note_on_c, 0, 65, 0
2, 68640, Note_on_c, 0, 77, 51
2, 68640, Note_on_c, 0, 65, 43
2, 68760, Note_on_c, 0, 65, 0
2, 68760, Note_on_c, 0, 77, 0
2, 69360, Note_on_c, 0, 65, 44
2, 69360, Note_on_c, 0, 77, 52
2, 69480, Note_on_c, 0, 77, 0
2, 69480, Note_on_c, 0, 65, 0
2, 69600, Note_on_c, 0, 77, 61
2, 69600, Note_on_c, 0, 65, 51
2, 69720, Note_on_c, 0, 65, 0
2, 69720, Note_on_c, 0, 77, 0
2, 70320, Note_on_c, 0, 77, 53
2, 70320, Note_on_c, 0, 65, 45
2, 70440, Note_on_c, 0, 65, 0
2, 70440, Note_on_c, 0, 77, 0
2, 70560, Note_on_c, 0, 65, 48
2, 70560, Note_on_c, 0, 77, 57
2, 70680, Note_on_c, 0, 77, 0
2, 70680, Note_on_c, 0, 65, 0
2, 71280, Note_on_c, 0, 75, 52
2, 71280, Note_on_c, 0, 65, 44
2, 71280, Note_on_c, 0, 77, 52
2, 71400, Note_on_c, 0, 77, 0
2, 71400, Note_on_c, 0, 65, 0
2, 71400, Note_on_c, 0, 75, 0
2, 71520, Note_on_c, 0, 75, 61
2, 71520, Note_on_c, 0, 77, 61
2, 71520, Note_on_c, 0, 65, 51
2, 71640, Note_on_c, 0, 65, 0
2, 71640, Note_on_c, 0, 77, 0
2, 71640, Note_on_c, 0, 75, 0
2, 72240, Note_on_c, 0, 77, 51
2, 72240, Note_on_c, 0, 65, 43
2, 72240, Note_on_c, 0, 75, 51
2, 72360, Note_on_c, 0, 75, 0
2, 72360, Note_on_c, 0, 65, 0
2, 72360, Note_on_c, 0, 77, 0
2, 72480, Note_on_c, 0, 65, 48
2, 72480, Note_on_c, 0, 77, 57
2, 72480, Note_on_c, 0, 75, 57
2, 72600, Note_on_c, 0, 75, 0
2, 72600, Note_on_c, 0, 77, 0
2, 72600, Note_on_c, 0, 65, 0
2, 73200, Note_on_c, 0, 77, 57
2, 73200, Note_on_c, 0, 65, 48
2, 73200, Note_on_c, 0, 73, 57
2, 73320, Note_on_c, 0, 73, 0
2, 73320, Note_on_c, 0, 65, 0
2, 73320, Note_on_c, 0, 77, 0
2, 73440, Note_on_c, 0, 65, 56
2, 73440, Note_on_c, 0, 77, 66
2, 73440, Note_on_c, 0, 73, 66
2, 73560, Note_on_c, 0, 73, 0
2, 73560, Note_on_c, 0, 77, 0
2, 73560, Note_on_c, 0, 65, 0
2, 74160, Note_on_c, 0, 77, 54
2, 74160, Note_on_c, 0, 65, 45
2, 74160, Note_on_c, 0, 73, 54
2, 74280, Note_on_c, 0, 73, 0
2, 74280, Note_on_c, 0, 65, 0
2, 74280, Note_on_c, 0, 77, 0
2, 74400, Note_on_c, 0, 65, 50
2, 74400, Note_on_c, 0, 77, 59
2, 74400, Note_on_c, 0, 73, 59
2, 74520, Note_on_c, 0, 73, 0
2, 74520, Note_on_c, 0, 77, 0
2, 74520, Note_on_c, 0, 65, 0
2, 75120, Note_on_c, 0, 77, 60
2, 75120, Note_on_c, 0, 72, 51
2, 75120, Note_on_c, 0, 65, 51
2, 75240, Note_on_c, 0, 65, 0
2, 75240, Note_on_c, 0, 72, 0
2, 75240, Note_on_c, 0, 77, 0
2, 75360, Note_on_c, 0, 77, 60
2, 75360, Note_on_c, 0, 72, 51
2, 75360, Note_on_c, 0, 65, 51
2, 75480, Note_on_c, 0, 65, 0
2, 75480, Note_on_c, 0, 72, 0
2, 75480, Note_on_c, 0, 77, 0
2, 75600, Note_on_c, 0, 77, 66
2, 75600, Note_on_c, 0, 72, 56
2, 75600, Note_on_c, 0, 65, 56
2, 75720, Note_on_c, 0, 65, 0
2, 75720, Note_on_c, 0, 72, 0
2, 75720, Note_on_c, 0, 77, 0
2, 75840, Note_on_c, 0, 77, 78
2, 75840, Note_on_c, 0, 72, 64
2, 75840, Note_on_c, 0, 65, 64
2, 76080, Note_on_c, 0, 65, 0
2, 76080, Note_on_c, 0, 72, 0
2, 76080, Note_on_c, 0, 77, 0
2, 76080, Note_on_c, 0, 78, 66
2, 76080, Note_on_c, 0, 75, 56
2, 76080, Note_on_c, 0, 66, 56
2, 76200, Note_on_c, 0, 66, 0
2, 76200, Note_on_c, 0, 75, 0
2, 76200, Note_on_c, 0, 78, 0
2, 76320, Note_on_c, 0, 66, 55
2, 76320, Note_on_c, 0, 75, 55
2, 76320, Note_on_c, 0, 78, 65
2, 76440, Note_on_c, 0, 78, 0
2, 76440, Note_on_c, 0, 75, 0
2, 76440, Note_on_c, 0, 66, 0
2, 76560, Note_on_c, 0, 66, 52
2, 76560, Note_on_c, 0, 75, 52
2, 76560, Note_on_c, 0, 78, 62
2, 76680, Note_on_c, 0, 78, 0
2, 76680, Note_on_c, 0, 75, 0
2, 76680, Note_on_c, 0, 66, 0
2, 76800, Note_on_c, 0, 66, 63
2, 76800, Note_on_c, 0, 75, 63
2, 76800, Note_on_c, 0, 78, 75
2, 77040, Note_on_c, 0, 78, 0
2, 77040, Note_on_c, 0, 75, 0
2, 77040, Note_on_c, 0, 66, 0
2, 77040, Note_on_c, 0, 79, 63
2, 77040, Note_on_c, 0, 74, 53
2, 77040, Note_on_c, 0, 67, 53
2, 77160, Note_on_c, 0, 67, 0
2, 77160, Note_on_c, 0, 74, 0
2, 77160, Note_on_c, 0, 79, 0
2, 77280, Note_on_c, 0, 79, 63
2, 77280, Note_on_c, 0, 74, 54
2, 77280, Note_on_c, 0, 67, 54
2, 77400, Note_on_c, 0, 67, 0
2, 77400, Note_on_c, 0, 74, 0
2, 77400, Note_on_c, 0, 79, 0
2, 77520, Note_on_c, 0, 79, 69
2, 77520, Note_on_c, 0, 74, 59
2, 77520, Note_on_c, 0, 67, 59
2, 77640, Note_on_c, 0, 67, 0
2, 77640, Note_on_c, 0, 74, 0
2, 77640, Note_on_c, 0, 79, 0
2, 77760, Note_on_c, 0, 79, 82
2, 77760, Note_on_c, 0, 74, 69
2, 77760, Note_on_c, 0, 67, 69
2, 78000, Note_on_c, 0, 67, 0
2, 78000, Note_on_c, 0, 74, 0
2, 78000, Note_on_c, 0, 79, 0
2, 78000, Note_on_c, 0, 80, 78
2, 78000, Note_on_c, 0, 74, 66
2, 78000, Note_on_c, 0, 68, 66
2, 78120, Note_on_c, 0, 68, 0
2, 78120, Note_on_c, 0, 74, 0
2, 78120, Note_on_c, 0, 80, 0
2, 78240, Note_on_c, 0, 80, 77
2, 78240, Note_on_c, 0, 74, 65
2, 78240, Note_on_c, 0, 68, 65
2, 78360, Note_on_c, 0, 68, 0
2, 78360, Note_on_c, 0, 74, 0
2, 78360, Note_on_c, 0, 80, 0
2, 78480, Note_on_c, 0, 80, 71
2, 78480, Note_on_c, 0, 74, 60
2, 78480, Note_on_c, 0, 68, 60
2, 78600, Note_on_c, 0, 68, 0
2, 78600, Note_on_c, 0, 74, 0
2, 78600, Note_on_c, 0, 80, 0
2, 78660, Note_on_c, 0, 69, 67
2, 78690, Note_on_c, 0, 72, 67
2, 78720, Note_on_c, 0, 81, 79
2, 78960, Note_on_c, 0, 81, 0
2, 78960, Note_on_c, 0, 72, 0
2, 78960, Note_on_c, 0, 69, 0
2, 79200, Note_on_c, 0, 65, 42
2, 79200, Note_on_c, 0, 69, 50
2, 79290, Note_on_c, 0, 69, 0
2, 79290, Note_on_c, 0, 65, 0
2, 79440, Note_on_c, 0, 65, 45
2, 79440, Note_on_c, 0, 60, 38
2, 79530, Note_on_c, 0, 60, 0
2, 79530, Note_on_c, 0, 65, 0
2, 79680, Note_on_c, 0, 65, 42
2, 79680, Note_on_c, 0, 69, 50
2, 79770, Note_on_c, 0, 69, 0
2, 79770, Note_on_c, 0, 65, 0
2, 79920, Note_on_c, 0, 65, 38
2, 79920, Note_on_c, 0, 60, 38
2, 80010, Note_on_c, 0, 60, 0
2, 80010, Note_on_c, 0, 65, 0
2, 80160, Note_on_c, 0, 69, 54
2, 80160, Note_on_c, 0, 65, 45
2, 80250, Note_on_c, 0, 65, 0
2, 80250, Note_on_c, 0, 69, 0
2, 80400, Note_on_c, 0, 60, 48
2, 80400, Note_on_c, 0, 65, 57
2, 80490, Note_on_c, 0, 65, 0
2, 80490, Note_on_c, 0, 60, 0
2, 80640, Note_on_c, 0, 64, 60
2, 80640, Note_on_c, 0, 67, 72
2, 80880, Note_on_c, 0, 67, 0
2, 80880, Note_on_c, 0, 64, 0
2, 80880, Note_on_c, 0, 72, 47
2, 80880, Note_on_c, 0, 60, 39
2, 81000, Note_on_c, 0, 60, 0
2, 81000, Note_on_c, 0, 72, 0
2, 81120, Note_on_c, 0, 72, 47
2, 81120, Note_on_c, 0, 60, 39
2, 81240, Note_on_c, 0, 60, 0
2, 81240, Note_on_c, 0, 72, 0
2, 81360, Note_on_c, 0, 63, 48
2, 81360, Note_on_c, 0, 66, 57
2, 81480, Note_on_c, 0, 66, 0
2, 81480, Note_on_c, 0, 63, 0
2, 81600, Note_on_c, 0, 64, 60
2, 81600, Note_on_c, 0, 67, 72
2, 81840, Note_on_c, 0, 67, 0
2, 81840, Note_on_c, 0, 64, 0
2, 81840, Note_on_c, 0, 72, 47
2, 81840, Note_on_c, 0, 60, 39
2, 81960, Note_on_c, 0, 60, 0
2, 81960, Note_on_c, 0, 72, 0
2, 82080, Note_on_c, 0, 72, 47
2, 82080, Note_on_c, 0, 60, 39
2, 82200, Note_on_c, 0, 60, 0
2, 82200, Note_on_c, 0, 72, 0
2, 82470, Note_on_c, 0, 69, 64
2, 82500, Note_on_c, 0, 72, 64
2, 82530, Note_on_c, 0, 77, 64
2, 82560, Note_on_c, 0, 81, 75
2, 82800, Note_on_c, 0, 81, 0
2, 82800, Note_on_c, 0, 69, 0
2, 82800, Note_on_c, 0, 72, 0
2, 82800, Note_on_c, 0, 77, 0
2, 83040, Note_on_c, 0, 65, 42
2, 83040, Note_on_c, 0, 69, 50
2, 83130, Note_on_c, 0, 69, 0
2, 83130, Note_on_c, 0, 65, 0
2, 83280, Note_on_c, 0, 65, 45
2, 83280, Note_on_c, 0, 60, 38
2, 83370, Note_on_c, 0, 60, 0
2, 83370, Note_on_c, 0, 65, 0
2, 83520, Note_on_c, 0, 65, 42
2, 83520, Note_on_c, 0, 69, 50
2, 83610, Note_on_c, 0, 69, 0
2, 83610, Note_on_c, 0, 65, 0
2, 83760, Note_on_c, 0, 65, 38
2, 83760, Note_on_c, 0, 60, 38
2, 83850, Note_on_c, 0, 60, 0
2, 83850, Note_on_c, 0, 65, 0
2, 84000, Note_on_c, 0, 69, 54
2, 84000, Note_on_c, 0, 65, 45
2, 84090, Note_on_c, 0, 65, 0
2, 84090, Note_on_c, 0, 69, 0
2, 84240, Note_on_c, 0, 60, 46
2, 84240, Note_on_c, 0, 65, 55
2, 84330, Note_on_c, 0, 65, 0
2, 84330, Note_on_c, 0, 60, 0
2, 84480, Note_on_c, 0, 64, 60
2, 84480, Note_on_c, 0, 67, 72
2, 84720, Note_on_c, 0, 67, 0
2, 84720, Note_on_c, 0, 64, 0
2, 84720, Note_on_c, 0, 72, 47
2, 84720, Note_on_c, 0, 60, 39
2, 84840, Note_on_c, 0, 60, 0
2, 84840, Note_on_c, 0, 72, 0
2, 84960, Note_on_c, 0, 72, 47
2, 84960, Note_on_c, 0, 60, 39
2, 85080, Note_on_c, 0, 60, 0
2, 85080, Note_on_c, 0, 72, 0
2, 85200, Note_on_c, 0, 63, 46
2, 85200, Note_on_c, 0, 66, 55
2, 85320, Note_on_c, 0, 66, 0
2, 85320, Note_on_c, 0, 63, 0
2, 85440, Note_on_c, 0, 64, 60
2, 85440, Note_on_c, 0, 67, 72
2, 85680, Note_on_c, 0, 67, 0
2, 85680, Note_on_c, 0, 64, 0
2, 85680, Note_on_c, 0, 72, 47
2, 85680, Note_on_c, 0, 60, 39
2, 85800, Note_on_c, 0, 60, 0
2, 85800, Note_on_c, 0, 72, 0
2, 85920, Note_on_c, 0, 72, 47
2, 85920, Note_on_c, 0, 60, 39
2, 86040, Note_on_c, 0, 60, 0
2, 86040, Note_on_c, 0, 72, 0
2, 86310, Note_on_c, 0, 69, 61
2, 86340, Note_on_c, 0, 72, 61
2, 86370, Note_on_c, 0, 77, 61
2, 86400, Note_on_c, 0, 81, 72
2, 86610, Note_on_c, 0, 77, 0
2, 86640, Note_on_c, 0, 69, 0
2, 86640, Note_on_c, 0, 72, 0
2, 86640, Note_on_c, 0, 81, 0
2, 86640, Note_on_c, 0, 77, 63
2, 86640, Note_on_c, 0, 65, 53
2, 86760, Note_on_c, 0, 65, 0
2, 86760, Note_on_c, 0, 77, 0
2, 86880, Note_on_c, 0, 77, 64
2, 86880, Note_on_c, 0, 65, 54
2, 87000, Note_on_c, 0, 65, 0
2, 87000, Note_on_c, 0, 77, 0
2, 87120, Note_on_c, 0, 77, 65
2, 87120, Note_on_c, 0, 65, 55
2, 87240, Note_on_c, 0, 65, 0
2, 87240, Note_on_c, 0, 77, 0
2, 87360, Note_on_c, 0, 77, 65
2, 87360, Note_on_c, 0, 65, 55
2, 87480, Note_on_c, 0, 65, 0
2, 87480, Note_on_c, 0, 77, 0
2, 87600, Note_on_c, 0, 77, 67
2, 87600, Note_on_c, 0, 65, 56
2, 87720, Note_on_c, 0, 65, 0
2, 87720, Note_on_c, 0, 77, 0
2, 87840, Note_on_c, 0, 77, 69
2, 87840, Note_on_c, 0, 65, 58
2, 87960, Note_on_c, 0, 65, 0
2, 87960, Note_on_c, 0, 77, 0
2, 88080, Note_on_c, 0, 77, 70
2, 88080, Note_on_c, 0, 65, 59
2, 88200, Note_on_c, 0, 65, 0
2, 88200, Note_on_c, 0, 77, 0
2, 88320, Note_on_c, 0, 77, 77
2, 88320, Note_on_c, 0, 67, 65
2, 88320, Note_on_c, 0, 79, 77
2, 88440, Note_on_c, 0, 79, 0
2, 88440, Note_on_c, 0, 67, 0
2, 88440, Note_on_c, 0, 77, 0
2, 88560, Note_on_c, 0, 79, 69
2, 88560, Note_on_c, 0, 67, 58
2, 88560, Note_on_c, 0, 77, 69
2, 88680, Note_on_c, 0, 77, 0
2, 88680, Note_on_c, 0, 67, 0
2, 88680, Note_on_c, 0, 79, 0
2, 88800, Note_on_c, 0, 77, 71
2, 88800, Note_on_c, 0, 67, 60
2, 88800, Note_on_c, 0, 79, 71
2, 88920, Note_on_c, 0, 79, 0
2, 88920, Note_on_c, 0, 67, 0
2, 88920, Note_on_c, 0, 77, 0
2, 89040, Note_on_c, 0, 77, 72
2, 89040, Note_on_c, 0, 67, 61
2, 89040, Note_on_c, 0, 79, 72
2, 89160, Note_on_c, 0, 79, 0
2, 89160, Note_on_c, 0, 67, 0
2, 89160, Note_on_c, 0, 77, 0
2, 89280, Note_on_c, 0, 76, 73
2, 89280, Note_on_c, 0, 67, 62
2, 89280, Note_on_c, 0, 79, 73
2, 89400, Note_on_c, 0, 79, 0
2, 89400, Note_on_c, 0, 67, 0
2, 89400, Note_on_c, 0, 76, 0
2, 89520, Note_on_c, 0, 79, 73
2, 89520, Note_on_c, 0, 67, 62
2, 89520, Note_on_c, 0, 76, 73
2, 89640, Note_on_c, 0, 76, 0
2, 89640, Note_on_c, 0, 67, 0
2, 89640, Note_on_c, 0, 79, 0
2, 89760, Note_on_c, 0, 81, 73
2, 89760, Note_on_c, 0, 79, 73
2, 89760, Note_on_c, 0, 69, 62
2, 89760, Note_on_c, 0, 76, 62
2, 89880, Note_on_c, 0, 76, 0
2, 89880, Note_on_c, 0, 81, 0
2, 89880, Note_on_c, 0, 79, 0
2, 89880, Note_on_c, 0, 69, 0
2, 90000, Note_on_c, 0, 81, 73
2, 90000, Note_on_c, 0, 79, 73
2, 90000, Note_on_c, 0, 69, 62
2, 90000, Note_on_c, 0, 76, 62
2, 90120, Note_on_c, 0, 76, 0
2, 90120, Note_on_c, 0, 81, 0
2, 90120, Note_on_c, 0, 79, 0
2, 90120, Note_on_c, 0, 69, 0
2, 90240, Note_on_c, 0, 77, 78
2, 90240, Note_on_c, 0, 69, 66
2, 90240, Note_on_c, 0, 81, 78
2, 90360, Note_on_c, 0, 81, 0
2, 90360, Note_on_c, 0, 69, 0
2, 90360, Note_on_c, 0, 77, 0
2, 90480, Note_on_c, 0, 77, 70
2, 90480, Note_on_c, 0, 69, 59
2, 90480, Note_on_c, 0, 81, 70
2, 90600, Note_on_c, 0, 81, 0
2, 90600, Note_on_c, 0, 69, 0
2, 90600, Note_on_c, 0, 77, 0
2, 90720, Note_on_c, 0, 81, 74
2, 90720, Note_on_c, 0, 69, 62
2, 90720, Note_on_c, 0, 77, 74
2, 90840, Note_on_c, 0, 77, 0
2, 90840, Note_on_c, 0, 69, 0
2, 90840, Note_on_c, 0, 81, 0
2, 90960, Note_on_c, 0, 81, 76
2, 90960, Note_on_c, 0, 69, 64
2, 90960, Note_on_c, 0, 77, 76
2, 91080, Note_on_c, 0, 77, 0
2, 91080, Note_on_c, 0, 69, 0
2, 91080, Note_on_c, 0, 81, 0
2, 91200, Note_on_c, 0, 82, 77
2, 91200, Note_on_c, 0, 70, 65
2, 91200, Note_on_c, 0, 77, 77
2, 91320, Note_on_c, 0, 77, 0
2, 91320, Note_on_c, 0, 70, 0
2, 91320, Note_on_c, 0, 82, 0
2, 91440, Note_on_c, 0, 82, 79
2, 91440, Note_on_c, 0, 70, 67
2, 91440, Note_on_c, 0, 77, 79
2, 91560, Note_on_c, 0, 77, 0
2, 91560, Note_on_c, 0, 70, 0
2, 91560, Note_on_c, 0, 82, 0
2, 91680, Note_on_c, 0, 83, 81
2, 91680, Note_on_c, 0, 80, 81
2, 91680, Note_on_c, 0, 71, 68
2, 91680, Note_on_c, 0, 77, 68
2, 91800, Note_on_c, 0, 77, 0
2, 91800, Note_on_c, 0, 83, 0
2, 91800, Note_on_c, 0, 80, 0
2, 91800, Note_on_c, 0, 71, 0
2, 91920, Note_on_c, 0, 77, 72
2, 91920, Note_on_c, 0, 71, 72
2, 91920, Note_on_c, 0, 80, 85
2, 91920, Note_on_c, 0, 83, 85
2, 92040, Note_on_c, 0, 83, 0
2, 92040, Note_on_c, 0, 77, 0
2, 92040, Note_on_c, 0, 71, 0
2, 92040, Note_on_c, 0, 80, 0
2, 92160, Note_on_c, 0, 84, 94
2, 92160, Note_on_c, 0, 81, 79
2, 92160, Note_on_c, 0, 77, 79
2, 92160, Note_on_c, 0, 72, 79
2, 92280, Note_on_c, 0, 72, 0
2, 92280, Note_on_c, 0, 84, 0
2, 92280, Note_on_c, 0, 81, 0
2, 92280, Note_on_c, 0, 77, 0
2, 92400, Note_on_c, 0, 84, 84
2, 92400, Note_on_c, 0, 72, 71
2, 92520, Note_on_c, 0, 72, 0
2, 92520, Note_on_c, 0, 84, 0
2, 92640, Note_on_c, 0, 84, 84
2, 92640, Note_on_c, 0, 72, 71
2, 92760, Note_on_c, 0, 72, 0
2, 92760, Note_on_c, 0, 84, 0
2, 92880, Note_on_c, 0, 72, 66
2, 92880, Note_on_c, 0, 84, 78
2, 93000, Note_on_c, 0, 84, 0
2, 93000, Note_on_c, 0, 72, 0
2, 93120, Note_on_c, 0, 84, 94
2, 93120, Note_on_c, 0, 79, 79
2, 93120, Note_on_c, 0, 76, 79
2, 93120, Note_on_c, 0, 72, 79
2, 93240, Note_on_c, 0, 72, 0
2, 93240, Note_on_c, 0, 84, 0
2, 93240, Note_on_c, 0, 79, 0
2, 93240, Note_on_c, 0, 76, 0
2, 93360, Note_on_c, 0, 84, 84
2, 93360, Note_on_c, 0, 72, 71
2, 93480, Note_on_c, 0, 72, 0
2, 93480, Note_on_c, 0, 84, 0
2, 93600, Note_on_c, 0, 84, 84
2, 93600, Note_on_c, 0, 72, 71
2, 93720, Note_on_c, 0, 72, 0
2, 93720, Note_on_c, 0, 84, 0
2, 93840, Note_on_c, 0, 72, 66
2, 93840, Note_on_c, 0, 84, 78
2, 93960, Note_on_c, 0, 84, 0
2, 93960, Note_on_c, 0, 72, 0
2, 94140, Note_on_c, 0, 77, 86
2, 94170, Note_on_c, 0, 81, 86
2, 94200, Note_on_c, 0, 84, 86
2, 94230, Note_on_c, 0, 89, 103
2, 94320, Note_on_c, 0, 89, 0
2, 94320, Note_on_c, 0, 77, 0
2, 94320, Note_on_c, 0, 81, 0
2, 94320, Note_on_c, 0, 84, 0
2, 94320, End_track
3, 0, Start_track
3, 0, Title_t, "Piano left"
3, 0, Program_c, 0, 0
3, 0, Control_c, 0, 7, 127
3, 0, Control_c, 0, 10, 64
3, 960, Note_on_c, 0, 69, 26
3, 960, Note_on_c, 0, 65, 20
3, 960, Note_on_c, 0, 60, 20
3, 1920, Note_on_c, 0, 60, 0
3, 1920, Note_on_c, 0, 65, 0
3, 1920, Note_on_c, 0, 69, 0
3, 1920, Note_on_c, 0, 64, 28
3, 1920, Note_on_c, 0, 67, 36
3, 1920, Note_on_c, 0, 58, 28
3, 1920, Note_on_c, 0, 60, 28
3, 2880, Note_on_c, 0, 60, 0
3, 2880, Note_on_c, 0, 64, 0
3, 2880, Note_on_c, 0, 67, 0
3, 2880, Note_on_c, 0, 58, 0
3, 2880, Note_on_c, 0, 57, 38
3, 2880, Note_on_c, 0, 60, 38
3, 2880, Note_on_c, 0, 63, 38
3, 2880, Note_on_c, 0, 66, 48
3, 3840, Note_on_c, 0, 66, 0
3, 3840, Note_on_c, 0, 57, 0
3, 3840, Note_on_c, 0, 60, 0
3, 3840, Note_on_c, 0, 63, 0
3, 3840, Note_on_c, 0, 67, 34
3, 3840, Note_on_c, 0, 64, 27
3, 3840, Note_on_c, 0, 60, 27
3, 3840, Note_on_c, 0, 58, 27
3, 4080, Note_on_c, 0, 58, 0
3, 4080, Note_on_c, 0, 67, 0
3, 4080, Note_on_c, 0, 64, 0
3, 4080, Note_on_c, 0, 60, 0
3, 4560, Note_on_c, 0, 48, 43
3, 4560, Note_on_c, 0, 60, 52
3, 4680, Note_on_c, 0, 60, 0
3, 4680, Note_on_c, 0, 48, 0
3, 4800, Note_on_c, 0, 60, 62
3, 4800, Note_on_c, 0, 48, 52
3, 5280, Note_on_c, 0, 48, 0
3, 5280, Note_on_c, 0, 60, 0
3, 5520, Note_on_c, 0, 48, 42
3, 5520, Note_on_c, 0, 60, 51
3, 5640, Note_on_c, 0, 60, 0
3, 5640, Note_on_c, 0, 48, 0
3, 5760, Note_on_c, 0, 60, 66
3, 5760, Note_on_c, 0, 48, 56
3, 6240, Note_on_c, 0, 48, 0
3, 6240, Note_on_c, 0, 60, 0
3, 6480, Note_on_c, 0, 60, 53
3, 6480, Note_on_c, 0, 48, 45
3, 6600, Note_on_c, 0, 48, 0
3, 6600, Note_on_c, 0, 60, 0
3, 6720, Note_on_c, 0, 60, 66
3, 6720, Note_on_c, 0, 48, 56
3, 7200, Note_on_c, 0, 48, 0
3, 7200, Note_on_c, 0, 60, 0
3, 7680, Note_on_c, 0, 60, 31
3, 7680, Note_on_c, 0, 57, 24
3, 7680, Note_on_c, 0, 53, 24
3, 7800, Note_on_c, 0, 53, 0
3, 7800, Note_on_c, 0, 57, 0
3, 7800, Note_on_c, 0, 60, 0
3, 7920, Note_on_c, 0, 53, 16
3, 7920, Note_on_c, 0, 57, 16
3, 7920, Note_on_c, 0, 60, 20
3, 8040, Note_on_c, 0, 60, 0
3, 8040, Note_on_c, 0, 57, 0
3, 8040, Note_on_c, 0, 53, 0
3, 8160, Note_on_c, 0, 60, 31
3, 8160, Note_on_c, 0, 57, 24
3, 8160, Note_on_c, 0, 53, 24
3, 8280, Note_on_c, 0, 53, 0
3, 8280, Note_on_c, 0, 57, 0
3, 8280, Note_on_c, 0, 60, 0
3, 8400, Note_on_c, 0, 53, 18
3, 8400, Note_on_c, 0, 57, 18
3, 8400, Note_on_c, 0, 60, 23
3, 8520, Note_on_c, 0, 60, 0
3, 8520, Note_on_c, 0, 57, 0
3, 8520, Note_on_c, 0, 53, 0
3, 8640, Note_on_c, 0, 53, 28
3, 8640, Note_on_c, 0, 57, 28
3, 8640, Note_on_c, 0, 60, 36
3, 8760, Note_on_c, 0, 60, 0
3, 8760, Note_on_c, 0, 57, 0
3, 8760, Note_on_c, 0, 53, 0
3, 8880, Note_on_c, 0, 53, 19
3, 8880, Note_on_c, 0, 57, 19
3, 8880, Note_on_c, 0, 60, 24
3, 9000, Note_on_c, 0, 60, 0
3, 9000, Note_on_c, 0, 57, 0
3, 9000, Note_on_c, 0, 53, 0
3, 9120, Note_on_c, 0, 53, 29
3, 9120, Note_on_c, 0, 57, 29
3, 9120, Note_on_c, 0, 60, 37
3, 9240, Note_on_c, 0, 60, 0
3, 9240, Note_on_c, 0, 57, 0
3, 9240, Note_on_c, 0, 53, 0
3, 9360, Note_on_c, 0, 53, 19
3, 9360, Note_on_c, 0, 57, 19
3, 9360, Note_on_c, 0, 60, 24
3, 9480, Note_on_c, 0, 60, 0
3, 9480, Note_on_c, 0, 57, 0
3, 9480, Note_on_c, 0, 53, 0
3, 9600, Note_on_c, 0, 53, 30
3, 9600, Note_on_c, 0, 57, 30
3, 9600, Note_on_c, 0, 61, 38
3, 9720, Note_on_c, 0, 61, 0
3, 9720, Note_on_c, 0, 57, 0
3, 9720, Note_on_c, 0, 53, 0
3, 9840, Note_on_c, 0, 61, 24
3, 9840, Note_on_c, 0, 57, 19
3, 9840, Note_on_c, 0, 53, 19
3, 9960, Note_on_c, 0, 53, 0
3, 9960, Note_on_c, 0, 57, 0
3, 9960, Note_on_c, 0, 61, 0
3, 10080, Note_on_c, 0, 53, 33
3, 10080, Note_on_c, 0, 57, 33
3, 10080, Note_on_c, 0, 61, 42
3, 10200, Note_on_c, 0, 61, 0
3, 10200, Note_on_c, 0, 57, 0
3, 10200, Note_on_c, 0, 53, 0
3, 10320, Note_on_c, 0, 61, 27
3, 10320, Note_on_c, 0, 57, 21
3, 10320, Note_on_c, 0, 53, 21
3, 10440, Note_on_c, 0, 53, 0
3, 10440, Note_on_c, 0, 57, 0
3, 10440, Note_on_c, 0, 61, 0
3, 10560, Note_on_c, 0, 62, 47
3, 10560, Note_on_c, 0, 57, 37
3, 10560, Note_on_c, 0, 53, 37
3, 10680, Note_on_c, 0, 53, 0
3, 10680, Note_on_c, 0, 57, 0
3, 10680, Note_on_c, 0, 62, 0
3, 10800, Note_on_c, 0, 53, 21
3, 10800, Note_on_c, 0, 57, 21
3, 10800, Note_on_c, 0, 62, 27
3, 10920, Note_on_c, 0, 62, 0
3, 10920, Note_on_c, 0, 57, 0
3, 10920, Note_on_c, 0, 53, 0
3, 11040, Note_on_c, 0, 53, 29
3, 11040, Note_on_c, 0, 57, 29
3, 11040, Note_on_c, 0, 62, 37
3, 11160, Note_on_c, 0, 62, 0
3, 11160, Note_on_c, 0, 57, 0
3, 11160, Note_on_c, 0, 53, 0
3, 11280, Note_on_c, 0, 53, 19
3, 11280, Note_on_c, 0, 57, 19
3, 11280, Note_on_c, 0, 62, 24
3, 11400, Note_on_c, 0, 62, 0
3, 11400, Note_on_c, 0, 57, 0
3, 11400, Note_on_c, 0, 53, 0
3, 11520, Note_on_c, 0, 55, 33
3, 11520, Note_on_c, 0, 58, 33
3, 11520, Note_on_c, 0, 62, 42
3, 11520, Note_on_c, 0, 53, 33
3, 11640, Note_on_c, 0, 53, 0
3, 11640, Note_on_c, 0, 55, 0
3, 11640, Note_on_c, 0, 58, 0
3, 11640, Note_on_c, 0, 62, 0
3, 11760, Note_on_c, 0, 62, 27
3, 11760, Note_on_c, 0, 58, 21
3, 11760, Note_on_c, 0, 55, 21
3, 11760, Note_on_c, 0, 53, 21
3, 11880, Note_on_c, 0, 53, 0
3, 11880, Note_on_c, 0, 62, 0
3, 11880, Note_on_c, 0, 58, 0
3, 11880, Note_on_c, 0, 55, 0
3, 12000, Note_on_c, 0, 55, 24
3, 12000, Note_on_c, 0, 62, 31
3, 12000, Note_on_c, 0, 58, 24
3, 12000, Note_on_c, 0, 53, 24
3, 12120, Note_on_c, 0, 53, 0
3, 12120, Note_on_c, 0, 55, 0
3, 12120, Note_on_c, 0, 62, 0
3, 12120, Note_on_c, 0, 58, 0
3, 12240, Note_on_c, 0, 55, 18
3, 12240, Note_on_c, 0, 53, 18
3, 12240, Note_on_c, 0, 58, 18
3, 12240, Note_on_c, 0, 62, 23
3, 12360, Note_on_c, 0, 62, 0
3, 12360, Note_on_c, 0, 55, 0
3, 12360, Note_on_c, 0, 53, 0
3, 12360, Note_on_c, 0, 58, 0
3, 12480, Note_on_c, 0, 55, 28
3, 12480, Note_on_c, 0, 53, 28
3, 12480, Note_on_c, 0, 58, 28
3, 12480, Note_on_c, 0, 62, 36
3, 12600, Note_on_c, 0, 62, 0
3, 12600, Note_on_c, 0, 55, 0
3, 12600, Note_on_c, 0, 53, 0
3, 12600, Note_on_c, 0, 58, 0
3, 12720, Note_on_c, 0, 55, 19
3, 12720, Note_on_c, 0, 53, 19
3, 12720, Note_on_c, 0, 58, 19
3, 12720, Note_on_c, 0, 62, 24
3, 12840, Note_on_c, 0, 62, 0
3, 12840, Note_on_c, 0, 55, 0
3, 12840, Note_on_c, 0, 53, 0
3, 12840, Note_on_c, 0, 58, 0
3, 12960, Note_on_c, 0, 55, 29
3, 12960, Note_on_c, 0, 53, 29
3, 12960, Note_on_c, 0, 58, 29
3, 12960, Note_on_c, 0, 62, 37
3, 13080, Note_on_c, 0, 62, 0
3, 13080, Note_on_c, 0, 55, 0
3, 13080, Note_on_c, 0, 53, 0
3, 13080, Note_on_c, 0, 58, 0
3, 13200, Note_on_c, 0, 55, 19
3, 13200, Note_on_c, 0, 53, 19
3, 13200, Note_on_c, 0, 58, 19
3, 13200, Note_on_c, 0, 62, 24
3, 13320, Note_on_c, 0, 62, 0
3, 13320, Note_on_c, 0, 55, 0
3, 13320, Note_on_c, 0, 53, 0
3, 13320, Note_on_c, 0, 58, 0
3, 13440, Note_on_c, 0, 52, 30
3, 13440, Note_on_c, 0, 55, 30
3, 13440, Note_on_c, 0, 60, 38
3, 13560, Note_on_c, 0, 60, 0
3, 13560, Note_on_c, 0, 55, 0
3, 13560, Note_on_c, 0, 52, 0
3, 13680, Note_on_c, 0, 60, 24
3, 13680, Note_on_c, 0, 55, 19
3, 13680, Note_on_c, 0, 52, 19
3, 13800, Note_on_c, 0, 52, 0
3, 13800, Note_on_c, 0, 55, 0
3, 13800, Note_on_c, 0, 60, 0
3, 13920, Note_on_c, 0, 52, 33
3, 13920, Note_on_c, 0, 55, 33
3, 13920, Note_on_c, 0, 60, 42
3, 14040, Note_on_c, 0, 60, 0
3, 14040, Note_on_c, 0, 55, 0
3, 14040, Note_on_c, 0, 52, 0
3, 14160, Note_on_c, 0, 60, 27
3, 14160, Note_on_c, 0, 55, 21
3, 14160, Note_on_c, 0, 52, 21
3, 14280, Note_on_c, 0, 52, 0
3, 14280, Note_on_c, 0, 55, 0
3, 14280, Note_on_c, 0, 60, 0
3, 14400, Note_on_c, 0, 60, 47
3, 14400, Note_on_c, 0, 55, 37
3, 14400, Note_on_c, 0, 52, 37
3, 14520, Note_on_c, 0, 52, 0
3, 14520, Note_on_c, 0, 55, 0
3, 14520, Note_on_c, 0, 60, 0
3, 14640, Note_on_c, 0, 52, 21
3, 14640, Note_on_c, 0, 55, 21
3, 14640, Note_on_c, 0, 60, 27
3, 14760, Note_on_c, 0, 60, 0
3, 14760, Note_on_c, 0, 55, 0
3, 14760, Note_on_c, 0, 52, 0
3, 14880, Note_on_c, 0, 52, 29
3, 14880, Note_on_c, 0, 55, 29
3, 14880, Note_on_c, 0, 60, 37
3, 15000, Note_on_c, 0, 60, 0
3, 15000, Note_on_c, 0, 55, 0
3, 15000, Note_on_c, 0, 52, 0
3, 15120, Note_on_c, 0, 52, 19
3, 15120, Note_on_c, 0, 55, 19
3, 15120, Note_on_c, 0, 60, 24
3, 15240, Note_on_c, 0, 60, 0
3, 15240, Note_on_c, 0, 55, 0
3, 15240, Note_on_c, 0, 52, 0
3, 15360, Note_on_c, 0, 53, 29
3, 15360, Note_on_c, 0, 57, 29
3, 15360, Note_on_c, 0, 60, 37
3, 15480, Note_on_c, 0, 60, 0
3, 15480, Note_on_c, 0, 57, 0
3, 15480, Note_on_c, 0, 53, 0
3, 15600, Note_on_c, 0, 60, 24
3, 15600, Note_on_c, 0, 57, 19
3, 15600, Note_on_c, 0, 53, 19
3, 15720, Note_on_c, 0, 53, 0
3, 15720, Note_on_c, 0, 57, 0
3, 15720, Note_on_c, 0, 60, 0
3, 15840, Note_on_c, 0, 53, 32
3, 15840, Note_on_c, 0, 57, 32
3, 15840, Note_on_c, 0, 60, 40
3, 15960, Note_on_c, 0, 60, 0
3, 15960, Note_on_c, 0, 57, 0
3, 15960, Note_on_c, 0, 53, 0
3, 16080, Note_on_c, 0, 60, 28
3, 16080, Note_on_c, 0, 57, 21
3, 16080, Note_on_c, 0, 53, 21
3, 16200, Note_on_c, 0, 53, 0
3, 16200, Note_on_c, 0, 57, 0
3, 16200, Note_on_c, 0, 60, 0
3, 16320, Note_on_c, 0, 67, 47
3, 16320, Note_on_c, 0, 57, 36
3, 16320, Note_on_c, 0, 61, 36
3, 16440, Note_on_c, 0, 61, 0
3, 16440, Note_on_c, 0, 57, 0
3, 16440, Note_on_c, 0, 67, 0
3, 16560, Note_on_c, 0, 67, 31
3, 16560, Note_on_c, 0, 57, 24
3, 16560, Note_on_c, 0, 61, 24
3, 16680, Note_on_c, 0, 61, 0
3, 16680, Note_on_c, 0, 57, 0
3, 16680, Note_on_c, 0, 67, 0
3, 16800, Note_on_c, 0, 67, 44
3, 16800, Note_on_c, 0, 57, 35
3, 16800, Note_on_c, 0, 61, 35
3, 16920, Note_on_c, 0, 61, 0
3, 16920, Note_on_c, 0, 57, 0
3, 16920, Note_on_c, 0, 67, 0
3, 17040, Note_on_c, 0, 67, 30
3, 17040, Note_on_c, 0, 57, 24
3, 17040, Note_on_c, 0, 61, 24
3, 17160, Note_on_c, 0, 61, 0
3, 17160, Note_on_c, 0, 57, 0
3, 17160, Note_on_c, 0, 67, 0
3, 17280, Note_on_c, 0, 67, 50
3, 17280, Note_on_c, 0, 61, 38
3, 17280, Note_on_c, 0, 58, 38
3, 17400, Note_on_c, 0, 58, 0
3, 17400, Note_on_c, 0, 61, 0
3, 17400, Note_on_c, 0, 67, 0
3, 17520, Note_on_c, 0, 67, 33
3, 17520, Note_on_c, 0, 61, 26
3, 17520, Note_on_c, 0, 58, 26
3, 17640, Note_on_c, 0, 58, 0
3, 17640, Note_on_c, 0, 61, 0
3, 17640, Note_on_c, 0, 67, 0
3, 17760, Note_on_c, 0, 65, 49
3, 17760, Note_on_c, 0, 62, 39
3, 17760, Note_on_c, 0, 58, 39
3, 17880, Note_on_c, 0, 58, 0
3, 17880, Note_on_c, 0, 62, 0
3, 17880, Note_on_c, 0, 65, 0
3, 18000, Note_on_c, 0, 58, 22
3, 18000, Note_on_c, 0, 62, 22
3, 18000, Note_on_c, 0, 65, 28
3, 18120, Note_on_c, 0, 65, 0
3, 18120, Note_on_c, 0, 62, 0
3, 18120, Note_on_c, 0, 58, 0
3, 18240, Note_on_c, 0, 69, 47
3, 18240, Note_on_c, 0, 62, 36
3, 18240, Note_on_c, 0, 58, 36
3, 18360, Note_on_c, 0, 58, 0
3, 18360, Note_on_c, 0, 62, 0
3, 18360, Note_on_c, 0, 69, 0
3, 18480, Note_on_c, 0, 69, 27
3, 18480, Note_on_c, 0, 62, 21
3, 18480, Note_on_c, 0, 58, 21
3, 18600, Note_on_c, 0, 58, 0
3, 18600, Note_on_c, 0, 62, 0
3, 18600, Note_on_c, 0, 69, 0
3, 18720, Note_on_c, 0, 67, 46
3, 18720, Note_on_c, 0, 62, 36
3, 18720, Note_on_c, 0, 58, 36
3, 18840, Note_on_c, 0, 58, 0
3, 18840, Note_on_c, 0, 62, 0
3, 18840, Note_on_c, 0, 67, 0
3, 18960, Note_on_c, 0, 67, 29
3, 18960, Note_on_c, 0, 62, 23
3, 18960, Note_on_c, 0, 58, 23
3, 19080, Note_on_c, 0, 58, 0
3, 19080, Note_on_c, 0, 62, 0
3, 19080, Note_on_c, 0, 67, 0
3, 19200, Note_on_c, 0, 60, 39
3, 19200, Note_on_c, 0, 65, 46
3, 19320, Note_on_c, 0, 65, 0
3, 19320, Note_on_c, 0, 60, 0
3, 19440, Note_on_c, 0, 65, 28
3, 19440, Note_on_c, 0, 60, 24
3, 19560, Note_on_c, 0, 60, 0
3, 19560, Note_on_c, 0, 65, 0
3, 19680, Note_on_c, 0, 57, 36
3, 19680, Note_on_c, 0, 60, 44
3, 19800, Note_on_c, 0, 60, 0
3, 19800, Note_on_c, 0, 57, 0
3, 19920, Note_on_c, 0, 60, 29
3, 19920, Note_on_c, 0, 57, 24
3, 20040, Note_on_c, 0, 57, 0
3, 20040, Note_on_c, 0, 60, 0
3, 20160, Note_on_c, 0, 61, 49
3, 20160, Note_on_c, 0, 58, 41
3, 20160, Note_on_c, 0, 55, 41
3, 20280, Note_on_c, 0, 55, 0
3, 20280, Note_on_c, 0, 58, 0
3, 20280, Note_on_c, 0, 61, 0
3, 20400, Note_on_c, 0, 61, 35
3, 20400, Note_on_c, 0, 58, 28
3, 20400, Note_on_c, 0, 55, 28
3, 20520, Note_on_c, 0, 55, 0
3, 20520, Note_on_c, 0, 58, 0
3, 20520, Note_on_c, 0, 61, 0
3, 20640, Note_on_c, 0, 60, 54
3, 20640, Note_on_c, 0, 58, 44
3, 20640, Note_on_c, 0, 55, 44
3, 20760, Note_on_c, 0, 55, 0
3, 20760, Note_on_c, 0, 58, 0
3, 20760, Note_on_c, 0, 60, 0
3, 20880, Note_on_c, 0, 60, 37
3, 20880, Note_on_c, 0, 58, 31
3, 20880, Note_on_c, 0, 55, 31
3, 21000, Note_on_c, 0, 55, 0
3, 21000, Note_on_c, 0, 58, 0
3, 21000, Note_on_c, 0, 60, 0
3, 21120, Note_on_c, 0, 60, 43
3, 21120, Note_on_c, 0, 57, 36
3, 21120, Note_on_c, 0, 53, 36
3, 21240, Note_on_c, 0, 53, 0
3, 21240, Note_on_c, 0, 57, 0
3, 21240, Note_on_c, 0, 60, 0
3, 21360, Note_on_c, 0, 53, 31
3, 21360, Note_on_c, 0, 57, 31
3, 21360, Note_on_c, 0, 60, 36
3, 21480, Note_on_c, 0, 60, 0
3, 21480, Note_on_c, 0, 57, 0
3, 21480, Note_on_c, 0, 53, 0
3, 21600, Note_on_c, 0, 62, 50
3, 21600, Note_on_c, 0, 53, 42
3, 21720, Note_on_c, 0, 53, 0
3, 21720, Note_on_c, 0, 62, 0
3, 21840, Note_on_c, 0, 53, 35
3, 21840, Note_on_c, 0, 62, 42
3, 21960, Note_on_c, 0, 62, 0
3, 21960, Note_on_c, 0, 53, 0
3, 22080, Note_on_c, 0, 53, 41
3, 22080, Note_on_c, 0, 60, 49
3, 22200, Note_on_c, 0, 60, 0
3, 22200, Note_on_c, 0, 53, 0
3, 22320, Note_on_c, 0, 60, 39
3, 22320, Note_on_c, 0, 53, 32
3, 22440, Note_on_c, 0, 53, 0
3, 22440, Note_on_c, 0, 60, 0
3, 22560, Note_on_c, 0, 53, 27
3, 22560, Note_on_c, 0, 58, 42
3, 22680, Note_on_c, 0, 58, 0
3, 22680, Note_on_c, 0, 53, 0
3, 22800, Note_on_c, 0, 53, 23
3, 22800, Note_on_c, 0, 58, 35
3, 22920, Note_on_c, 0, 58, 0
3, 22920, Note_on_c, 0, 53, 0
3, 23040, Note_on_c, 0, 60, 31
3, 23040, Note_on_c, 0, 57, 24
3, 23040, Note_on_c, 0, 53, 24
3, 23160, Note_on_c, 0, 53, 0
3, 23160, Note_on_c, 0, 57, 0
3, 23160, Note_on_c, 0, 60, 0
3, 23280, Note_on_c, 0, 53, 16
3, 23280, Note_on_c, 0, 57, 16
3, 23280, Note_on_c, 0, 60, 20
3, 23400, Note_on_c, 0, 60, 0
3, 23400, Note_on_c, 0, 57, 0
3, 23400, Note_on_c, 0, 53, 0
3, 23520, Note_on_c, 0, 60, 31
3, 23520, Note_on_c, 0, 57, 24
3, 23520, Note_on_c, 0, 53, 24
3, 23640, Note_on_c, 0, 53, 0
3, 23640, Note_on_c, 0, 57, 0
3, 23640, Note_on_c, 0, 60, 0
3, 23760, Note_on_c, 0, 53, 18
3, 23760, Note_on_c, 0, 57, 18
3, 23760, Note_on_c, 0, 60, 23
3, 23880, Note_on_c, 0, 60, 0
3, 23880, Note_on_c, 0, 57, 0
3, 23880, Note_on_c, 0, 53, 0
3, 24000, Note_on_c, 0, 53, 28
3, 24000, Note_on_c, 0, 57, 28
3, 24000, Note_on_c, 0, 60, 36
3, 24120, Note_on_c, 0, 60, 0
3, 24120, Note_on_c, 0, 57, 0
3, 24120, Note_on_c, 0, 53, 0
3, 24240, Note_on_c, 0, 53, 19
3, 24240, Note_on_c, 0, 57, 19
3, 24240, Note_on_c, 0, 60, 24
3, 24360, Note_on_c, 0, 60, 0
3, 24360, Note_on_c, 0, 57, 0
3, 24360, Note_on_c, 0, 53, 0
3, 24480, Note_on_c, 0, 53, 29
3, 24480, Note_on_c, 0, 57, 29
3, 24480, Note_on_c, 0, 60, 37
3, 24600, Note_on_c, 0, 60, 0
3, 24600, Note_on_c, 0, 57, 0
3, 24600, Note_on_c, 0, 53, 0
3, 24720, Note_on_c, 0, 53, 19
3, 24720, Note_on_c, 0, 57, 19
3, 24720, Note_on_c, 0, 60, 24
3, 24840, Note_on_c, 0, 60, 0
3, 24840, Note_on_c, 0, 57, 0
3, 24840, Note_on_c, 0, 53, 0
3, 24960, Note_on_c, 0, 53, 30
3, 24960, Note_on_c, 0, 57, 30
3, 24960, Note_on_c, 0, 61, 38
3, 25080, Note_on_c, 0, 61, 0
3, 25080, Note_on_c, 0, 57, 0
3, 25080, Note_on_c, 0, 53, 0
3, 25200, Note_on_c, 0, 61, 24
3, 25200, Note_on_c, 0, 57, 19
3, 25200, Note_on_c, 0, 53, 19
3, 25320, Note_on_c, 0, 53, 0
3, 25320, Note_on_c, 0, 57, 0
3, 25320, Note_on_c, 0, 61, 0
3, 25440, Note_on_c, 0, 53, 33
3, 25440, Note_on_c, 0, 57, 33
3, 25440, Note_on_c, 0, 61, 42
3, 25560, Note_on_c, 0, 61, 0
3, 25560, Note_on_c, 0, 57, 0
3, 25560, Note_on_c, 0, 53, 0
3, 25680, Note_on_c, 0, 61, 27
3, 25680, Note_on_c, 0, 57, 21
3, 25680, Note_on_c, 0, 53, 21
3, 25800, Note_on_c, 0, 53, 0
3, 25800, Note_on_c, 0, 57, 0
3, 25800, Note_on_c, 0, 61, 0
3, 25920, Note_on_c, 0, 62, 47
3, 25920, Note_on_c, 0, 57, 37
3, 25920, Note_on_c, 0, 53, 37
3, 26040, Note_on_c, 0, 53, 0
3, 26040, Note_on_c, 0, 57, 0
3, 26040, Note_on_c, 0, 62, 0
3, 26160, Note_on_c, 0, 53, 21
3, 26160, Note_on_c, 0, 57, 21
3, 26160, Note_on_c, 0, 62, 27
3, 26280, Note_on_c, 0, 62, 0
3, 26280, Note_on_c, 0, 57, 0
3, 26280, Note_on_c, 0, 53, 0
3, 26400, Note_on_c, 0, 53, 29
3, 26400, Note_on_c, 0, 57, 29
3, 26400, Note_on_c, 0, 62, 37
3, 26520, Note_on_c, 0, 62, 0
3, 26520, Note_on_c, 0, 57, 0
3, 26520, Note_on_c, 0, 53, 0
3, 26640, Note_on_c, 0, 53, 19
3, 26640, Note_on_c, 0, 57, 19
3, 26640, Note_on_c, 0, 62, 24
3, 26760, Note_on_c, 0, 62, 0
3, 26760, Note_on_c, 0, 57, 0
3, 26760, Note_on_c, 0, 53, 0
3, 26880, Note_on_c, 0, 53, 27
3, 26880, Note_on_c, 0, 62, 35
3, 26880, Note_on_c, 0, 58, 27
3, 26880, Note_on_c, 0, 55, 27
3, 27000, Note_on_c, 0, 55, 0
3, 27000, Note_on_c, 0, 53, 0
3, 27000, Note_on_c, 0, 62, 0
3, 27000, Note_on_c, 0, 58, 0
3, 27120, Note_on_c, 0, 53, 16
3, 27120, Note_on_c, 0, 55, 16
3, 27120, Note_on_c, 0, 58, 16
3, 27120, Note_on_c, 0, 62, 20
3, 27240, Note_on_c, 0, 62, 0
3, 27240, Note_on_c, 0, 53, 0
3, 27240, Note_on_c, 0, 55, 0
3, 27240, Note_on_c, 0, 58, 0
3, 27360, Note_on_c, 0, 55, 24
3, 27360, Note_on_c, 0, 62, 31
3, 27360, Note_on_c, 0, 58, 24
3, 27360, Note_on_c, 0, 53, 24
3, 27480, Note_on_c, 0, 53, 0
3, 27480, Note_on_c, 0, 55, 0
3, 27480, Note_on_c, 0, 62, 0
3, 27480, Note_on_c, 0, 58, 0
3, 27600, Note_on_c, 0, 55, 18
3, 27600, Note_on_c, 0, 53, 18
3, 27600, Note_on_c, 0, 58, 18
3, 27600, Note_on_c, 0, 62, 23
3, 27720, Note_on_c, 0, 62, 0
3, 27720, Note_on_c, 0, 55, 0
3, 27720, Note_on_c, 0, 53, 0
3, 27720, Note_on_c, 0, 58, 0
3, 27840, Note_on_c, 0, 55, 28
3, 27840, Note_on_c, 0, 53, 28
3, 27840, Note_on_c, 0, 58, 28
3, 27840, Note_on_c, 0, 62, 36
3, 27960, Note_on_c, 0, 62, 0
3, 27960, Note_on_c, 0, 55, 0
3, 27960, Note_on_c, 0, 53, 0
3, 27960, Note_on_c, 0, 58, 0
3, 28080, Note_on_c, 0, 55, 19
3, 28080, Note_on_c, 0, 53, 19
3, 28080, Note_on_c, 0, 58, 19
3, 28080, Note_on_c, 0, 62, 24
3, 28200, Note_on_c, 0, 62, 0
3, 28200, Note_on_c, 0, 55, 0
3, 28200, Note_on_c, 0, 53, 0
3, 28200, Note_on_c, 0, 58, 0
3, 28320, Note_on_c, 0, 55, 29
3, 28320, Note_on_c, 0, 53, 29
3, 28320, Note_on_c, 0, 58, 29
3, 28320, Note_on_c, 0, 62, 37
3, 28440, Note_on_c, 0, 62, 0
3, 28440, Note_on_c, 0, 55, 0
3, 28440, Note_on_c, 0, 53, 0
3, 28440, Note_on_c, 0, 58, 0
3, 28560, Note_on_c, 0, 55, 19
3, 28560, Note_on_c, 0, 53, 19
3, 28560, Note_on_c, 0, 58, 19
3, 28560, Note_on_c, 0, 62, 24
3, 28680, Note_on_c, 0, 62, 0
3, 28680, Note_on_c, 0, 55, 0
3, 28680, Note_on_c, 0, 53, 0
3, 28680, Note_on_c, 0, 58, 0
3, 28800, Note_on_c, 0, 52, 30
3, 28800, Note_on_c, 0, 55, 30
3, 28800, Note_on_c, 0, 60, 38
3, 28920, Note_on_c, 0, 60, 0
3, 28920, Note_on_c, 0, 55, 0
3, 28920, Note_on_c, 0, 52, 0
3, 29040, Note_on_c, 0, 60, 24
3, 29040, Note_on_c, 0, 55, 19
3, 29040, Note_on_c, 0, 52, 19
3, 29160, Note_on_c, 0, 52, 0
3, 29160, Note_on_c, 0, 55, 0
3, 29160, Note_on_c, 0, 60, 0
3, 29280, Note_on_c, 0, 52, 33
3, 29280, Note_on_c, 0, 55, 33
3, 29280, Note_on_c, 0, 60, 42
3, 29400, Note_on_c, 0, 60, 0
3, 29400, Note_on_c, 0, 55, 0
3, 29400, Note_on_c, 0, 52, 0
3, 29520, Note_on_c, 0, 60, 27
3, 29520, Note_on_c, 0, 55, 21
3, 29520, Note_on_c, 0, 52, 21
3, 29640, Note_on_c, 0, 52, 0
3, 29640, Note_on_c, 0, 55, 0
3, 29640, Note_on_c, 0, 60, 0
3, 29760, Note_on_c, 0, 60, 47
3, 29760, Note_on_c, 0, 55, 37
3, 29760, Note_on_c, 0, 52, 37
3, 29880, Note_on_c, 0, 52, 0
3, 29880, Note_on_c, 0, 55, 0
3, 29880, Note_on_c, 0, 60, 0
3, 30000, Note_on_c, 0, 52, 21
3, 30000, Note_on_c, 0, 55, 21
3, 30000, Note_on_c, 0, 60, 27
3, 30120, Note_on_c, 0, 60, 0
3, 30120, Note_on_c, 0, 55, 0
3, 30120, Note_on_c, 0, 52, 0
3, 30240, Note_on_c, 0, 52, 29
3, 30240, Note_on_c, 0, 55, 29
3, 30240, Note_on_c, 0, 60, 37
3, 30360, Note_on_c, 0, 60, 0
3, 30360, Note_on_c, 0, 55, 0
3, 30360, Note_on_c, 0, 52, 0
3, 30480, Note_on_c, 0, 52, 19
3, 30480, Note_on_c, 0, 55, 19
3, 30480, Note_on_c, 0, 60, 24
3, 30600, Note_on_c, 0, 60, 0
3, 30600, Note_on_c, 0, 55, 0
3, 30600, Note_on_c, 0, 52, 0
3, 30720, Note_on_c, 0, 53, 29
3, 30720, Note_on_c, 0, 57, 29
3, 30720, Note_on_c, 0, 60, 37
3, 30840, Note_on_c, 0, 60, 0
3, 30840, Note_on_c, 0, 57, 0
3, 30840, Note_on_c, 0, 53, 0
3, 30960, Note_on_c, 0, 60, 24
3, 30960, Note_on_c, 0, 57, 19
3, 30960, Note_on_c, 0, 53, 19
3, 31080, Note_on_c, 0, 53, 0
3, 31080, Note_on_c, 0, 57, 0
3, 31080, Note_on_c, 0, 60, 0
3, 31200, Note_on_c, 0, 53, 32
3, 31200, Note_on_c, 0, 57, 32
3, 31200, Note_on_c, 0, 60, 40
3, 31320, Note_on_c, 0, 60, 0
3, 31320, Note_on_c, 0, 57, 0
3, 31320, Note_on_c, 0, 53, 0
3, 31440, Note_on_c, 0, 60, 28
3, 31440, Note_on_c, 0, 57, 21
3, 31440, Note_on_c, 0, 53, 21
3, 31560, Note_on_c, 0, 53, 0
3, 31560, Note_on_c, 0, 57, 0
3, 31560, Note_on_c, 0, 60, 0
3, 31680, Note_on_c, 0, 67, 47
3, 31680, Note_on_c, 0, 57, 36
3, 31680, Note_on_c, 0, 61, 36
3, 31800, Note_on_c, 0, 61, 0
3, 31800, Note_on_c, 0, 57, 0
3, 31800, Note_on_c, 0, 67, 0
3, 31920, Note_on_c, 0, 67, 31
3, 31920, Note_on_c, 0, 57, 24
3, 31920, Note_on_c, 0, 61, 24
3, 32040, Note_on_c, 0, 61, 0
3, 32040, Note_on_c, 0, 57, 0
3, 32040, Note_on_c, 0, 67, 0
3, 32160, Note_on_c, 0, 67, 44
3, 32160, Note_on_c, 0, 57, 35
3, 32160, Note_on_c, 0, 61, 35
3, 32280, Note_on_c, 0, 61, 0
3, 32280, Note_on_c, 0, 57, 0
3, 32280, Note_on_c, 0, 67, 0
3, 32400, Note_on_c, 0, 67, 30
3, 32400, Note_on_c, 0, 57, 24
3, 32400, Note_on_c, 0, 61, 24
3, 32520, Note_on_c, 0, 61, 0
3, 32520, Note_on_c, 0, 57, 0
3, 32520, Note_on_c, 0, 67, 0
3, 32640, Note_on_c, 0, 67, 50
3, 32640, Note_on_c, 0, 61, 38
3, 32640, Note_on_c, 0, 58, 38
3, 32760, Note_on_c, 0, 58, 0
3, 32760, Note_on_c, 0, 61, 0
3, 32760, Note_on_c, 0, 67, 0
3, 32880, Note_on_c, 0, 67, 33
3, 32880, Note_on_c, 0, 61, 26
3, 32880, Note_on_c, 0, 58, 26
3, 33000, Note_on_c, 0, 58, 0
3, 33000, Note_on_c, 0, 61, 0
3, 33000, Note_on_c, 0, 67, 0
3, 33120, Note_on_c, 0, 65, 49
3, 33120, Note_on_c, 0, 62, 39
3, 33120, Note_on_c, 0, 58, 39
3, 33240, Note_on_c, 0, 58, 0
3, 33240, Note_on_c, 0, 62, 0
3, 33240, Note_on_c, 0, 65, 0
3, 33360, Note_on_c, 0, 58, 22
3, 33360, Note_on_c, 0, 62, 22
3, 33360, Note_on_c, 0, 65, 28
3, 33480, Note_on_c, 0, 65, 0
3, 33480, Note_on_c, 0, 62, 0
3, 33480, Note_on_c, 0, 58, 0
3, 33600, Note_on_c, 0, 69, 47
3, 33600, Note_on_c, 0, 62, 36
3, 33600, Note_on_c, 0, 58, 36
3, 33720, Note_on_c, 0, 58, 0
3, 33720, Note_on_c, 0, 62, 0
3, 33720, Note_on_c, 0, 69, 0
3, 33840, Note_on_c, 0, 69, 27
3, 33840, Note_on_c, 0, 62, 21
3, 33840, Note_on_c, 0, 58, 21
3, 33960, Note_on_c, 0, 58, 0
3, 33960, Note_on_c, 0, 62, 0
3, 33960, Note_on_c, 0, 69, 0
3, 34080, Note_on_c, 0, 67, 46
3, 34080, Note_on_c, 0, 62, 36
3, 34080, Note_on_c, 0, 58, 36
3, 34200, Note_on_c, 0, 58, 0
3, 34200, Note_on_c, 0, 62, 0
3, 34200, Note_on_c, 0, 67, 0
3, 34320, Note_on_c, 0, 67, 29
3, 34320, Note_on_c, 0, 62, 23
3, 34320, Note_on_c, 0, 58, 23
3, 34440, Note_on_c, 0, 58, 0
3, 34440, Note_on_c, 0, 62, 0
3, 34440, Note_on_c, 0, 67, 0
3, 34560, Note_on_c, 0, 60, 39
3, 34560, Note_on_c, 0, 65, 46
3, 34680, Note_on_c, 0, 65, 0
3, 34680, Note_on_c, 0, 60, 0
3, 34800, Note_on_c, 0, 65, 36
3, 34800, Note_on_c, 0, 60, 31
3, 34920, Note_on_c, 0, 60, 0
3, 34920, Note_on_c, 0, 65, 0
3, 35040, Note_on_c, 0, 57, 36
3, 35040, Note_on_c, 0, 60, 44
3, 35160, Note_on_c, 0, 60, 0
3, 35160, Note_on_c, 0, 57, 0
3, 35280, Note_on_c, 0, 60, 37
3, 35280, Note_on_c, 0, 57, 31
3, 35400, Note_on_c, 0, 57, 0
3, 35400, Note_on_c, 0, 60, 0
3, 35520, Note_on_c, 0, 61, 49
3, 35520, Note_on_c, 0, 58, 41
3, 35520, Note_on_c, 0, 55, 41
3, 35640, Note_on_c, 0, 55, 0
3, 35640, Note_on_c, 0, 58, 0
3, 35640, Note_on_c, 0, 61, 0
3, 35760, Note_on_c, 0, 61, 44
3, 35760, Note_on_c, 0, 58, 36
3, 35760, Note_on_c, 0, 55, 36
3, 35880, Note_on_c, 0, 55, 0
3, 35880, Note_on_c, 0, 58, 0
3, 35880, Note_on_c, 0, 61, 0
3, 36000, Note_on_c, 0, 60, 54
3, 36000, Note_on_c, 0, 58, 44
3, 36000, Note_on_c, 0, 55, 44
3, 36120, Note_on_c, 0, 55, 0
3, 36120, Note_on_c, 0, 58, 0
3, 36120, Note_on_c, 0, 60, 0
3, 36240, Note_on_c, 0, 60, 47
3, 36240, Note_on_c, 0, 58, 39
3, 36240, Note_on_c, 0, 55, 39
3, 36360, Note_on_c, 0, 55, 0
3, 36360, Note_on_c, 0, 58, 0
3, 36360, Note_on_c, 0, 60, 0
3, 36480, Note_on_c, 0, 60, 43
3, 36480, Note_on_c, 0, 57, 36
3, 36480, Note_on_c, 0, 53, 36
3, 36960, Note_on_c, 0, 53, 0
3, 36960, Note_on_c, 0, 57, 0
3, 36960, Note_on_c, 0, 60, 0
3, 37200, Note_on_c, 0, 53, 42
3, 37200, Note_on_c, 0, 41, 35
3, 37320, Note_on_c, 0, 41, 0
3, 37320, Note_on_c, 0, 53, 0
3, 37440, Note_on_c, 0, 53, 52
3, 37440, Note_on_c, 0, 41, 43
3, 37920, Note_on_c, 0, 41, 0
3, 37920, Note_on_c, 0, 53, 0
3, 38400, Note_on_c, 0, 38, 37
3, 38520, Note_on_c, 0, 38, 0
3, 38640, Note_on_c, 0, 50, 35
3, 38760, Note_on_c, 0, 50, 0
3, 38880, Note_on_c, 0, 41, 39
3, 39000, Note_on_c, 0, 41, 0
3, 39120, Note_on_c, 0, 53, 38
3, 39240, Note_on_c, 0, 53, 0
3, 39360, Note_on_c, 0, 44, 48
3, 39480, Note_on_c, 0, 44, 0
3, 39600, Note_on_c, 0, 56, 42
3, 39720, Note_on_c, 0, 56, 0
3, 39840, Note_on_c, 0, 45, 54
3, 39960, Note_on_c, 0, 45, 0
3, 40080, Note_on_c, 0, 57, 48
3, 40200, Note_on_c, 0, 57, 0
3, 40320, Note_on_c, 0, 46, 60
3, 40440, Note_on_c, 0, 46, 0
3, 40560, Note_on_c, 0, 58, 49
3, 40680, Note_on_c, 0, 58, 0
3, 40800, Note_on_c, 0, 45, 57
3, 40920, Note_on_c, 0, 45, 0
3, 41040, Note_on_c, 0, 57, 46
3, 41160, Note_on_c, 0, 57, 0
3, 41280, Note_on_c, 0, 41, 53
3, 41400, Note_on_c, 0, 41, 0
3, 41520, Note_on_c, 0, 53, 41
3, 41640, Note_on_c, 0, 53, 0
3, 41760, Note_on_c, 0, 38, 51
3, 41880, Note_on_c, 0, 38, 0
3, 42000, Note_on_c, 0, 50, 42
3, 42120, Note_on_c, 0, 50, 0
3, 42240, Note_on_c, 0, 43, 42
3, 42360, Note_on_c, 0, 43, 0
3, 42480, Note_on_c, 0, 55, 40
3, 42600, Note_on_c, 0, 55, 0
3, 42720, Note_on_c, 0, 45, 44
3, 42840, Note_on_c, 0, 45, 0
3, 42960, Note_on_c, 0, 57, 43
3, 43080, Note_on_c, 0, 57, 0
3, 43200, Note_on_c, 0, 46, 55
3, 43320, Note_on_c, 0, 46, 0
3, 43440, Note_on_c, 0, 58, 48
3, 43560, Note_on_c, 0, 58, 0
3, 43680, Note_on_c, 0, 43, 62
3, 43800, Note_on_c, 0, 43, 0
3, 43920, Note_on_c, 0, 55, 55
3, 44040, Note_on_c, 0, 55, 0
3, 44160, Note_on_c, 0, 45, 69
3, 44280, Note_on_c, 0, 45, 0
3, 44400, Note_on_c, 0, 57, 56
3, 44520, Note_on_c, 0, 57, 0
3, 44640, Note_on_c, 0, 43, 65
3, 44760, Note_on_c, 0, 43, 0
3, 44880, Note_on_c, 0, 55, 52
3, 45000, Note_on_c, 0, 55, 0
3, 45120, Note_on_c, 0, 41, 66
3, 45240, Note_on_c, 0, 41, 0
3, 45360, Note_on_c, 0, 53, 53
3, 45480, Note_on_c, 0, 53, 0
3, 45600, Note_on_c, 0, 40, 67
3, 45720, Note_on_c, 0, 40, 0
3, 45840, Note_on_c, 0, 52, 58
3, 45960, Note_on_c, 0, 52, 0
3, 46080, Note_on_c, 0, 38, 59
3, 46320, Note_on_c, 0, 38, 0
3, 46320, Note_on_c, 0, 50, 49
3, 46440, Note_on_c, 0, 50, 0
3, 46560, Note_on_c, 0, 33, 58
3, 46800, Note_on_c, 0, 33, 0
3, 46800, Note_on_c, 0, 45, 52
3, 46920, Note_on_c, 0, 45, 0
3, 47040, Note_on_c, 0, 38, 59
3, 47280, Note_on_c, 0, 38, 0
3, 47280, Note_on_c, 0, 50, 53
3, 47400, Note_on_c, 0, 50, 0
3, 47520, Note_on_c, 0, 36, 64
3, 47760, Note_on_c, 0, 36, 0
3, 47760, Note_on_c, 0, 48, 55
3, 47880, Note_on_c, 0, 48, 0
3, 48000, Note_on_c, 0, 41, 73
3, 48240, Note_on_c, 0, 41, 0
3, 48240, Note_on_c, 0, 53, 60
3, 48360, Note_on_c, 0, 53, 0
3, 48480, Note_on_c, 0, 40, 71
3, 48720, Note_on_c, 0, 40, 0
3, 48720, Note_on_c, 0, 52, 63
3, 48840, Note_on_c, 0, 52, 0
3, 48960, Note_on_c, 0, 45, 71
3, 49200, Note_on_c, 0, 45, 0
3, 49200, Note_on_c, 0, 57, 63
3, 49320, Note_on_c, 0, 57, 0
3, 49440, Note_on_c, 0, 43, 77
3, 49680, Note_on_c, 0, 43, 0
3, 49680, Note_on_c, 0, 55, 66
3, 49800, Note_on_c, 0, 55, 0
3, 49920, Note_on_c, 0, 48, 82
3, 50040, Note_on_c, 0, 48, 0
3, 50160, Note_on_c, 0, 60, 65
3, 50280, Note_on_c, 0, 60, 0
3, 50400, Note_on_c, 0, 48, 74
3, 50520, Note_on_c, 0, 48, 0
3, 50640, Note_on_c, 0, 60, 58
3, 50760, Note_on_c, 0, 60, 0
3, 50880, Note_on_c, 0, 48, 67
3, 51000, Note_on_c, 0, 48, 0
3, 51120, Note_on_c, 0, 60, 55
3, 51240, Note_on_c, 0, 60, 0
3, 51360, Note_on_c, 0, 48, 67
3, 51480, Note_on_c, 0, 48, 0
3, 51600, Note_on_c, 0, 60, 58
3, 51720, Note_on_c, 0, 60, 0
3, 51840, Note_on_c, 0, 48, 68
3, 51960, Note_on_c, 0, 48, 0
3, 52080, Note_on_c, 0, 60, 52
3, 52200, Note_on_c, 0, 60, 0
3, 52320, Note_on_c, 0, 48, 58
3, 52440, Note_on_c, 0, 48, 0
3, 52560, Note_on_c, 0, 60, 44
3, 52680, Note_on_c, 0, 60, 0
3, 52800, Note_on_c, 0, 48, 45
3, 52920, Note_on_c, 0, 48, 0
3, 53040, Note_on_c, 0, 60, 34
3, 53160, Note_on_c, 0, 60, 0
3, 53280, Note_on_c, 0, 48, 39
3, 53400, Note_on_c, 0, 48, 0
3, 53520, Note_on_c, 0, 60, 30
3, 53640, Note_on_c, 0, 60, 0
3, 53760, Note_on_c, 0, 60, 31
3, 53760, Note_on_c, 0, 57, 24
3, 53760, Note_on_c, 0, 53, 24
3, 53880, Note_on_c, 0, 53, 0
3, 53880, Note_on_c, 0, 57, 0
3, 53880, Note_on_c, 0, 60, 0
3, 54000, Note_on_c, 0, 53, 16
3, 54000, Note_on_c, 0, 57, 16
3, 54000, Note_on_c, 0, 60, 20
3, 54120, Note_on_c, 0, 60, 0
3, 54120, Note_on_c, 0, 57, 0
3, 54120, Note_on_c, 0, 53, 0
3, 54240, Note_on_c, 0, 60, 31
3, 54240, Note_on_c, 0, 57, 24
3, 54240, Note_on_c, 0, 53, 24
3, 54360, Note_on_c, 0, 53, 0
3, 54360, Note_on_c, 0, 57, 0
3, 54360, Note_on_c, 0, 60, 0
3, 54480, Note_on_c, 0, 53, 18
3, 54480, Note_on_c, 0, 57, 18
3, 54480, Note_on_c, 0, 60, 23
3, 54600, Note_on_c, 0, 60, 0
3, 54600, Note_on_c, 0, 57, 0
3, 54600, Note_on_c, 0, 53, 0
3, 54720, Note_on_c, 0, 53, 28
3, 54720, Note_on_c, 0, 57, 28
3, 54720, Note_on_c, 0, 60, 36
3, 54840, Note_on_c, 0, 60, 0
3, 54840, Note_on_c, 0, 57, 0
3, 54840, Note_on_c, 0, 53, 0
3, 54960, Note_on_c, 0, 53, 19
3, 54960, Note_on_c, 0, 57, 19
3, 54960, Note_on_c, 0, 60, 24
3, 55080, Note_on_c, 0, 60, 0
3, 55080, Note_on_c, 0, 57, 0
3, 55080, Note_on_c, 0, 53, 0
3, 55200, Note_on_c, 0, 53, 29
3, 55200, Note_on_c, 0, 57, 29
3, 55200, Note_on_c, 0, 60, 37
3, 55320, Note_on_c, 0, 60, 0
3, 55320, Note_on_c, 0, 57, 0
3, 55320, Note_on_c, 0, 53, 0
3, 55440, Note_on_c, 0, 53, 19
3, 55440, Note_on_c, 0, 57, 19
3, 55440, Note_on_c, 0, 60, 24
3, 55560, Note_on_c, 0, 60, 0
3, 55560, Note_on_c, 0, 57, 0
3, 55560, Note_on_c, 0, 53, 0
3, 55680, Note_on_c, 0, 53, 30
3, 55680, Note_on_c, 0, 57, 30
3, 55680, Note_on_c, 0, 61, 38
3, 55800, Note_on_c, 0, 61, 0
3, 55800, Note_on_c, 0, 57, 0
3, 55800, Note_on_c, 0, 53, 0
3, 55920, Note_on_c, 0, 61, 24
3, 55920, Note_on_c, 0, 57, 19
3, 55920, Note_on_c, 0, 53, 19
3, 56040, Note_on_c, 0, 53, 0
3, 56040, Note_on_c, 0, 57, 0
3, 56040, Note_on_c, 0, 61, 0
3, 56160, Note_on_c, 0, 53, 33
3, 56160, Note_on_c, 0, 57, 33
3, 56160, Note_on_c, 0, 61, 42
3, 56280, Note_on_c, 0, 61, 0
3, 56280, Note_on_c, 0, 57, 0
3, 56280, Note_on_c, 0, 53, 0
3, 56400, Note_on_c, 0, 61, 27
3, 56400, Note_on_c, 0, 57, 21
3, 56400, Note_on_c, 0, 53, 21
3, 56520, Note_on_c, 0, 53, 0
3, 56520, Note_on_c, 0, 57, 0
3, 56520, Note_on_c, 0, 61, 0
3, 56640, Note_on_c, 0, 62, 47
3, 56640, Note_on_c, 0, 57, 37
3, 56640, Note_on_c, 0, 53, 37
3, 56760, Note_on_c, 0, 53, 0
3, 56760, Note_on_c, 0, 57, 0
3, 56760, Note_on_c, 0, 62, 0
3, 56880, Note_on_c, 0, 53, 21
3, 56880, Note_on_c, 0, 57, 21
3, 56880, Note_on_c, 0, 62, 27
3, 57000, Note_on_c, 0, 62, 0
3, 57000, Note_on_c, 0, 57, 0
3, 57000, Note_on_c, 0, 53, 0
3, 57120, Note_on_c, 0, 53, 29
3, 57120, Note_on_c, 0, 57, 29
3, 57120, Note_on_c, 0, 62, 37
3, 57240, Note_on_c, 0, 62, 0
3, 57240, Note_on_c, 0, 57, 0
3, 57240, Note_on_c, 0, 53, 0
3, 57360, Note_on_c, 0, 53, 19
3, 57360, Note_on_c, 0, 57, 19
3, 57360, Note_on_c, 0, 62, 24
3, 57480, Note_on_c, 0, 62, 0
3, 57480, Note_on_c, 0, 57, 0
3, 57480, Note_on_c, 0, 53, 0
3, 57600, Note_on_c, 0, 53, 27
3, 57600, Note_on_c, 0, 62, 35
3, 57600, Note_on_c, 0, 58, 27
3, 57600, Note_on_c, 0, 55, 27
3, 57720, Note_on_c, 0, 55, 0
3, 57720, Note_on_c, 0, 53, 0
3, 57720, Note_on_c, 0, 62, 0
3, 57720, Note_on_c, 0, 58, 0
3, 57840, Note_on_c, 0, 53, 16
3, 57840, Note_on_c, 0, 55, 16
3, 57840, Note_on_c, 0, 58, 16
3, 57840, Note_on_c, 0, 62, 20
3, 57960, Note_on_c, 0, 62, 0
3, 57960, Note_on_c, 0, 53, 0
3, 57960, Note_on_c, 0, 55, 0
3, 57960, Note_on_c, 0, 58, 0
3, 58080, Note_on_c, 0, 55, 24
3, 58080, Note_on_c, 0, 62, 31
3, 58080, Note_on_c, 0, 58, 24
3, 58080, Note_on_c, 0, 53, 24
3, 58200, Note_on_c, 0, 53, 0
3, 58200, Note_on_c, 0, 55, 0
3, 58200, Note_on_c, 0, 62, 0
3, 58200, Note_on_c, 0, 58, 0
3, 58320, Note_on_c, 0, 55, 18
3, 58320, Note_on_c, 0, 53, 18
3, 58320, Note_on_c, 0, 58, 18
3, 58320, Note_on_c, 0, 62, 23
3, 58440, Note_on_c, 0, 62, 0
3, 58440, Note_on_c, 0, 55, 0
3, 58440, Note_on_c, 0, 53, 0
3, 58440, Note_on_c, 0, 58, 0
3, 58560, Note_on_c, 0, 55, 28
3, 58560, Note_on_c, 0, 53, 28
3, 58560, Note_on_c, 0, 58, 28
3, 58560, Note_on_c, 0, 62, 36
3, 58680, Note_on_c, 0, 62, 0
3, 58680, Note_on_c, 0, 55, 0
3, 58680, Note_on_c, 0, 53, 0
3, 58680, Note_on_c, 0, 58, 0
3, 58800, Note_on_c, 0, 55, 19
3, 58800, Note_on_c, 0, 53, 19
3, 58800, Note_on_c, 0, 58, 19
3, 58800, Note_on_c, 0, 62, 24
3, 58920, Note_on_c, 0, 62, 0
3, 58920, Note_on_c, 0, 55, 0
3, 58920, Note_on_c, 0, 53, 0
3, 58920, Note_on_c, 0, 58, 0
3, 59040, Note_on_c, 0, 55, 29
3, 59040, Note_on_c, 0, 53, 29
3, 59040, Note_on_c, 0, 58, 29
3, 59040, Note_on_c, 0, 62, 37
3, 59160, Note_on_c, 0, 62, 0
3, 59160, Note_on_c, 0, 55, 0
3, 59160, Note_on_c, 0, 53, 0
3, 59160, Note_on_c, 0, 58, 0
3, 59280, Note_on_c, 0, 55, 19
3, 59280, Note_on_c, 0, 53, 19
3, 59280, Note_on_c, 0, 58, 19
3, 59280, Note_on_c, 0, 62, 24
3, 59400, Note_on_c, 0, 62, 0
3, 59400, Note_on_c, 0, 55, 0
3, 59400, Note_on_c, 0, 53, 0
3, 59400, Note_on_c, 0, 58, 0
3, 59520, Note_on_c, 0, 52, 30
3, 59520, Note_on_c, 0, 55, 30
3, 59520, Note_on_c, 0, 60, 38
3, 59640, Note_on_c, 0, 60, 0
3, 59640, Note_on_c, 0, 55, 0
3, 59640, Note_on_c, 0, 52, 0
3, 59760, Note_on_c, 0, 60, 24
3, 59760, Note_on_c, 0, 55, 19
3, 59760, Note_on_c, 0, 52, 19
3, 59880, Note_on_c, 0, 52, 0
3, 59880, Note_on_c, 0, 55, 0
3, 59880, Note_on_c, 0, 60, 0
3, 60000, Note_on_c, 0, 52, 33
3, 60000, Note_on_c, 0, 55, 33
3, 60000, Note_on_c, 0, 60, 42
3, 60120, Note_on_c, 0, 60, 0
3, 60120, Note_on_c, 0, 55, 0
3, 60120, Note_on_c, 0, 52, 0
3, 60240, Note_on_c, 0, 60, 27
3, 60240, Note_on_c, 0, 55, 21
3, 60240, Note_on_c, 0, 52, 21
3, 60360, Note_on_c, 0, 52, 0
3, 60360, Note_on_c, 0, 55, 0
3, 60360, Note_on_c, 0, 60, 0
3, 60480, Note_on_c, 0, 60, 47
3, 60480, Note_on_c, 0, 55, 37
3, 60480, Note_on_c, 0, 52, 37
3, 60600, Note_on_c, 0, 52, 0
3, 60600, Note_on_c, 0, 55, 0
3, 60600, Note_on_c, 0, 60, 0
3, 60720, Note_on_c, 0, 52, 21
3, 60720, Note_on_c, 0, 55, 21
3, 60720, Note_on_c, 0, 60, 27
3, 60840, Note_on_c, 0, 60, 0
3, 60840, Note_on_c, 0, 55, 0
3, 60840, Note_on_c, 0, 52, 0
3, 60960, Note_on_c, 0, 52, 29
3, 60960, Note_on_c, 0, 55, 29
3, 60960, Note_on_c, 0, 60, 37
3, 61080, Note_on_c, 0, 60, 0
3, 61080, Note_on_c, 0, 55, 0
3, 61080, Note_on_c, 0, 52, 0
3, 61200, Note_on_c, 0, 52, 19
3, 61200, Note_on_c, 0, 55, 19
3, 61200, Note_on_c, 0, 60, 24
3, 61320, Note_on_c, 0, 60, 0
3, 61320, Note_on_c, 0, 55, 0
3, 61320, Note_on_c, 0, 52, 0
3, 61440, Note_on_c, 0, 53, 29
3, 61440, Note_on_c, 0, 57, 29
3, 61440, Note_on_c, 0, 60, 37
3, 61560, Note_on_c, 0, 60, 0
3, 61560, Note_on_c, 0, 57, 0
3, 61560, Note_on_c, 0, 53, 0
3, 61680, Note_on_c, 0, 60, 24
3, 61680, Note_on_c, 0, 57, 19
3, 61680, Note_on_c, 0, 53, 19
3, 61800, Note_on_c, 0, 53, 0
3, 61800, Note_on_c, 0, 57, 0
3, 61800, Note_on_c, 0, 60, 0
3, 61920, Note_on_c, 0, 53, 32
3, 61920, Note_on_c, 0, 57, 32
3, 61920, Note_on_c, 0, 60, 40
3, 62040, Note_on_c, 0, 60, 0
3, 62040, Note_on_c, 0, 57, 0
3, 62040, Note_on_c, 0, 53, 0
3, 62160, Note_on_c, 0, 60, 28
3, 62160, Note_on_c, 0, 57, 21
3, 62160, Note_on_c, 0, 53, 21
3, 62280, Note_on_c, 0, 53, 0
3, 62280, Note_on_c, 0, 57, 0
3, 62280, Note_on_c, 0, 60, 0
3, 62400, Note_on_c, 0, 67, 47
3, 62400, Note_on_c, 0, 57, 36
3, 62400, Note_on_c, 0, 61, 36
3, 62520, Note_on_c, 0, 61, 0
3, 62520, Note_on_c, 0, 57, 0
3, 62520, Note_on_c, 0, 67, 0
3, 62640, Note_on_c, 0, 67, 31
3, 62640, Note_on_c, 0, 57, 24
3, 62640, Note_on_c, 0, 61, 24
3, 62760, Note_on_c, 0, 61, 0
3, 62760, Note_on_c, 0, 57, 0
3, 62760, Note_on_c, 0, 67, 0
3, 62880, Note_on_c, 0, 67, 44
3, 62880, Note_on_c, 0, 57, 35
3, 62880, Note_on_c, 0, 61, 35
3, 63000, Note_on_c, 0, 61, 0
3, 63000, Note_on_c, 0, 57, 0
3, 63000, Note_on_c, 0, 67, 0
3, 63120, Note_on_c, 0, 67, 30
3, 63120, Note_on_c, 0, 57, 24
3, 63120, Note_on_c, 0, 61, 24
3, 63240, Note_on_c, 0, 61, 0
3, 63240, Note_on_c, 0, 57, 0
3, 63240, Note_on_c, 0, 67, 0
3, 63360, Note_on_c, 0, 67, 50
3, 63360, Note_on_c, 0, 61, 38
3, 63360, Note_on_c, 0, 58, 38
3, 63480, Note_on_c, 0, 58, 0
3, 63480, Note_on_c, 0, 61, 0
3, 63480, Note_on_c, 0, 67, 0
3, 63600, Note_on_c, 0, 67, 33
3, 63600, Note_on_c, 0, 61, 26
3, 63600, Note_on_c, 0, 58, 26
3, 63720, Note_on_c, 0, 58, 0
3, 63720, Note_on_c, 0, 61, 0
3, 63720, Note_on_c, 0, 67, 0
3, 63840, Note_on_c, 0, 65, 49
3, 63840, Note_on_c, 0, 62, 39
3, 63840, Note_on_c, 0, 58, 39
3, 63960, Note_on_c, 0, 58, 0
3, 63960, Note_on_c, 0, 62, 0
3, 63960, Note_on_c, 0, 65, 0
3, 64080, Note_on_c, 0, 58, 22
3, 64080, Note_on_c, 0, 62, 22
3, 64080, Note_on_c, 0, 65, 28
3, 64200, Note_on_c, 0, 65, 0
3, 64200, Note_on_c, 0, 62, 0
3, 64200, Note_on_c, 0, 58, 0
3, 64320, Note_on_c, 0, 69, 47
3, 64320, Note_on_c, 0, 62, 36
3, 64320, Note_on_c, 0, 58, 36
3, 64440, Note_on_c, 0, 58, 0
3, 64440, Note_on_c, 0, 62, 0
3, 64440, Note_on_c, 0, 69, 0
3, 64560, Note_on_c, 0, 69, 27
3, 64560, Note_on_c, 0, 62, 21
3, 64560, Note_on_c, 0, 58, 21
3, 64680, Note_on_c, 0, 58, 0
3, 64680, Note_on_c, 0, 62, 0
3, 64680, Note_on_c, 0, 69, 0
3, 64800, Note_on_c, 0, 67, 46
3, 64800, Note_on_c, 0, 62, 36
3, 64800, Note_on_c, 0, 58, 36
3, 64920, Note_on_c, 0, 58, 0
3, 64920, Note_on_c, 0, 62, 0
3, 64920, Note_on_c, 0, 67, 0
3, 65040, Note_on_c, 0, 67, 29
3, 65040, Note_on_c, 0, 62, 23
3, 65040, Note_on_c, 0, 58, 23
3, 65160, Note_on_c, 0, 58, 0
3, 65160, Note_on_c, 0, 62, 0
3, 65160, Note_on_c, 0, 67, 0
3, 65280, Note_on_c, 0, 60, 39
3, 65280, Note_on_c, 0, 65, 46
3, 65400, Note_on_c, 0, 65, 0
3, 65400, Note_on_c, 0, 60, 0
3, 65520, Note_on_c, 0, 65, 36
3, 65520, Note_on_c, 0, 60, 31
3, 65640, Note_on_c, 0, 60, 0
3, 65640, Note_on_c, 0, 65, 0
3, 65760, Note_on_c, 0, 57, 36
3, 65760, Note_on_c, 0, 60, 44
3, 65880, Note_on_c, 0, 60, 0
3, 65880, Note_on_c, 0, 57, 0
3, 66000, Note_on_c, 0, 60, 37
3, 66000, Note_on_c, 0, 57, 31
3, 66120, Note_on_c, 0, 57, 0
3, 66120, Note_on_c, 0, 60, 0
3, 66240, Note_on_c, 0, 61, 49
3, 66240, Note_on_c, 0, 58, 41
3, 66240, Note_on_c, 0, 55, 41
3, 66360, Note_on_c, 0, 55, 0
3, 66360, Note_on_c, 0, 58, 0
3, 66360, Note_on_c, 0, 61, 0
3, 66480, Note_on_c, 0, 61, 44
3, 66480, Note_on_c, 0, 58, 36
3, 66480, Note_on_c, 0, 55, 36
3, 66600, Note_on_c, 0, 55, 0
3, 66600, Note_on_c, 0, 58, 0
3, 66600, Note_on_c, 0, 61, 0
3, 66720, Note_on_c, 0, 60, 54
3, 66720, Note_on_c, 0, 58, 44
3, 66720, Note_on_c, 0, 55, 44
3, 66840, Note_on_c, 0, 55, 0
3, 66840, Note_on_c, 0, 58, 0
3, 66840, Note_on_c, 0, 60, 0
3, 66960, Note_on_c, 0, 60, 47
3, 66960, Note_on_c, 0, 58, 39
3, 66960, Note_on_c, 0, 55, 39
3, 67080, Note_on_c, 0, 55, 0
3, 67080, Note_on_c, 0, 58, 0
3, 67080, Note_on_c, 0, 60, 0
3, 67200, Note_on_c, 0, 60, 43
3, 67200, Note_on_c, 0, 57, 36
3, 67200, Note_on_c, 0, 53, 36
3, 67680, Note_on_c, 0, 53, 0
3, 67680, Note_on_c, 0, 57, 0
3, 67680, Note_on_c, 0, 60, 0
3, 67920, Note_on_c, 0, 53, 39
3, 67920, Note_on_c, 0, 65, 47
3, 68040, Note_on_c, 0, 65, 0
3, 68040, Note_on_c, 0, 53, 0
3, 68160, Note_on_c, 0, 53, 45
3, 68160, Note_on_c, 0, 65, 53
3, 68640, Note_on_c, 0, 65, 0
3, 68640, Note_on_c, 0, 53, 0
3, 68880, Note_on_c, 0, 51, 42
3, 68880, Note_on_c, 0, 63, 51
3, 69000, Note_on_c, 0, 63, 0
3, 69000, Note_on_c, 0, 51, 0
3, 69120, Note_on_c, 0, 49, 49
3, 69120, Note_on_c, 0, 61, 58
3, 69600, Note_on_c, 0, 61, 0
3, 69600, Note_on_c, 0, 49, 0
3, 69840, Note_on_c, 0, 53, 39
3, 69840, Note_on_c, 0, 65, 47
3, 69960, Note_on_c, 0, 65, 0
3, 69960, Note_on_c, 0, 53, 0
3, 70080, Note_on_c, 0, 53, 45
3, 70080, Note_on_c, 0, 65, 53
3, 70560, Note_on_c, 0, 65, 0
3, 70560, Note_on_c, 0, 53, 0
3, 70800, Note_on_c, 0, 61, 61
3, 70800, Note_on_c, 0, 49, 51
3, 70920, Note_on_c, 0, 49, 0
3, 70920, Note_on_c, 0, 61, 0
3, 71040, Note_on_c, 0, 60, 69
3, 71040, Note_on_c, 0, 48, 58
3, 71520, Note_on_c, 0, 48, 0
3, 71520, Note_on_c, 0, 60, 0
3, 71760, Note_on_c, 0, 65, 54
3, 71760, Note_on_c, 0, 53, 45
3, 71880, Note_on_c, 0, 53, 0
3, 71880, Note_on_c, 0, 65, 0
3, 72000, Note_on_c, 0, 65, 63
3, 72000, Note_on_c, 0, 53, 53
3, 72480, Note_on_c, 0, 53, 0
3, 72480, Note_on_c, 0, 65, 0
3, 72720, Note_on_c, 0, 60, 62
3, 72720, Note_on_c, 0, 48, 52
3, 72840, Note_on_c, 0, 48, 0
3, 72840, Note_on_c, 0, 60, 0
3, 72960, Note_on_c, 0, 58, 79
3, 72960, Note_on_c, 0, 46, 67
3, 73440, Note_on_c, 0, 46, 0
3, 73440, Note_on_c, 0, 58, 0
3, 73680, Note_on_c, 0, 65, 64
3, 73680, Note_on_c, 0, 53, 54
3, 73800, Note_on_c, 0, 53, 0
3, 73800, Note_on_c, 0, 65, 0
3, 73920, Note_on_c, 0, 65, 78
3, 73920, Note_on_c, 0, 53, 66
3, 74400, Note_on_c, 0, 53, 0
3, 74400, Note_on_c, 0, 65, 0
3, 74640, Note_on_c, 0, 58, 81
3, 74640, Note_on_c, 0, 46, 68
3, 74760, Note_on_c, 0, 46, 0
3, 74760, Note_on_c, 0, 58, 0
3, 74880, Note_on_c, 0, 57, 88
3, 74880, Note_on_c, 0, 45, 74
3, 75120, Note_on_c, 0, 45, 0
3, 75120, Note_on_c, 0, 57, 0
3, 75120, Note_on_c, 0, 60, 54
3, 75120, Note_on_c, 0, 57, 45
3, 75240, Note_on_c, 0, 57, 0
3, 75240, Note_on_c, 0, 60, 0
3, 75360, Note_on_c, 0, 60, 54
3, 75360, Note_on_c, 0, 57, 45
3, 75480, Note_on_c, 0, 57, 0
3, 75480, Note_on_c, 0, 60, 0
3, 75600, Note_on_c, 0, 60, 59
3, 75600, Note_on_c, 0, 57, 49
3, 75720, Note_on_c, 0, 57, 0
3, 75720, Note_on_c, 0, 60, 0
3, 75840, Note_on_c, 0, 57, 60
3, 75840, Note_on_c, 0, 60, 71
3, 76080, Note_on_c, 0, 60, 0
3, 76080, Note_on_c, 0, 57, 0
3, 76080, Note_on_c, 0, 57, 46
3, 76080, Note_on_c, 0, 60, 55
3, 76200, Note_on_c, 0, 60, 0
3, 76200, Note_on_c, 0, 57, 0
3, 76320, Note_on_c, 0, 57, 46
3, 76320, Note_on_c, 0, 60, 55
3, 76440, Note_on_c, 0, 60, 0
3, 76440, Note_on_c, 0, 57, 0
3, 76560, Note_on_c, 0, 57, 50
3, 76560, Note_on_c, 0, 60, 60
3, 76680, Note_on_c, 0, 60, 0
3, 76680, Note_on_c, 0, 57, 0
3, 76800, Note_on_c, 0, 60, 78
3, 76800, Note_on_c, 0, 57, 64
3, 77040, Note_on_c, 0, 57, 0
3, 77040, Note_on_c, 0, 60, 0
3, 77040, Note_on_c, 0, 62, 56
3, 77040, Note_on_c, 0, 58, 47
3, 77160, Note_on_c, 0, 58, 0
3, 77160, Note_on_c, 0, 62, 0
3, 77280, Note_on_c, 0, 62, 57
3, 77280, Note_on_c, 0, 58, 47
3, 77400, Note_on_c, 0, 58, 0
3, 77400, Note_on_c, 0, 62, 0
3, 77520, Note_on_c, 0, 62, 62
3, 77520, Note_on_c, 0, 58, 51
3, 77640, Note_on_c, 0, 58, 0
3, 77640, Note_on_c, 0, 62, 0
3, 77760, Note_on_c, 0, 58, 63
3, 77760, Note_on_c, 0, 62, 75
3, 78000, Note_on_c, 0, 62, 0
3, 78000, Note_on_c, 0, 58, 0
3, 78000, Note_on_c, 0, 59, 53
3, 78000, Note_on_c, 0, 65, 64
3, 78120, Note_on_c, 0, 65, 0
3, 78120, Note_on_c, 0, 59, 0
3, 78240, Note_on_c, 0, 59, 54
3, 78240, Note_on_c, 0, 65, 66
3, 78360, Note_on_c, 0, 65, 0
3, 78360, Note_on_c, 0, 59, 0
3, 78480, Note_on_c, 0, 59, 57
3, 78480, Note_on_c, 0, 65, 67
3, 78600, Note_on_c, 0, 65, 0
3, 78600, Note_on_c, 0, 59, 0
3, 78720, Note_on_c, 0, 60, 62
3, 78720, Note_on_c, 0, 65, 74
3, 78960, Note_on_c, 0, 65, 0
3, 78960, Note_on_c, 0, 60, 0
3, 79200, Note_on_c, 0, 60, 47
3, 79290, Note_on_c, 0, 60, 0
3, 79440, Note_on_c, 0, 57, 40
3, 79530, Note_on_c, 0, 57, 0
3, 79680, Note_on_c, 0, 60, 47
3, 79770, Note_on_c, 0, 60, 0
3, 79920, Note_on_c, 0, 57, 41
3, 80010, Note_on_c, 0, 57, 0
3, 80160, Note_on_c, 0, 60, 50
3, 80250, Note_on_c, 0, 60, 0
3, 80400, Note_on_c, 0, 57, 48
3, 80490, Note_on_c, 0, 57, 0
3, 80640, Note_on_c, 0, 48, 51
3, 80640, Note_on_c, 0, 58, 62
3, 80880, Note_on_c, 0, 58, 0
3, 80880, Note_on_c, 0, 48, 0
3, 81360, Note_on_c, 0, 48, 40
3, 81360, Note_on_c, 0, 57, 48
3, 81480, Note_on_c, 0, 57, 0
3, 81480, Note_on_c, 0, 48, 0
3, 81600, Note_on_c, 0, 48, 51
3, 81600, Note_on_c, 0, 58, 62
3, 81840, Note_on_c, 0, 58, 0
3, 81840, Note_on_c, 0, 48, 0
3, 82320, Note_on_c, 0, 48, 56
3, 82320, Note_on_c, 0, 36, 47
3, 82560, Note_on_c, 0, 36, 0
3, 82560, Note_on_c, 0, 48, 0
3, 82560, Note_on_c, 0, 41, 59
3, 82567, Note_on_c, 0, 53, 69
3, 82800, Note_on_c, 0, 41, 0
3, 82807, Note_on_c, 0, 53, 0
3, 83040, Note_on_c, 0, 60, 47
3, 83130, Note_on_c, 0, 60, 0
3, 83280, Note_on_c, 0, 57, 40
3, 83370, Note_on_c, 0, 57, 0
3, 83520, Note_on_c, 0, 60, 47
3, 83610, Note_on_c, 0, 60, 0
3, 83760, Note_on_c, 0, 57, 41
3, 83850, Note_on_c, 0, 57, 0
3, 84000, Note_on_c, 0, 60, 50
3, 84090, Note_on_c, 0, 60, 0
3, 84240, Note_on_c, 0, 57, 46
3, 84330, Note_on_c, 0, 57, 0
3, 84480, Note_on_c, 0, 48, 51
3, 84480, Note_on_c, 0, 58, 62
3, 84720, Note_on_c, 0, 58, 0
3, 84720, Note_on_c, 0, 48, 0
3, 85200, Note_on_c, 0, 48, 38
3, 85200, Note_on_c, 0, 57, 46
3, 85320, Note_on_c, 0, 57, 0
3, 85320, Note_on_c, 0, 48, 0
3, 85440, Note_on_c, 0, 48, 51
3, 85440, Note_on_c, 0, 58, 62
3, 85680, Note_on_c, 0, 58, 0
3, 85680, Note_on_c, 0, 48, 0
3, 86160, Note_on_c, 0, 48, 56
3, 86160, Note_on_c, 0, 36, 47
3, 86400, Note_on_c, 0, 36, 0
3, 86400, Note_on_c, 0, 48, 0
3, 86400, Note_on_c, 0, 41, 57
3, 86407, Note_on_c, 0, 53, 68
3, 86880, Note_on_c, 0, 41, 0
3, 86880, Note_on_c, 0, 40, 55
3, 86880, Note_on_c, 0, 52, 65
3, 86887, Note_on_c, 0, 53, 0
3, 87360, Note_on_c, 0, 52, 0
3, 87360, Note_on_c, 0, 40, 0
3, 87360, Note_on_c, 0, 38, 57
3, 87360, Note_on_c, 0, 50, 68
3, 87840, Note_on_c, 0, 50, 0
3, 87840, Note_on_c, 0, 38, 0
3, 87840, Note_on_c, 0, 48, 69
3, 87840, Note_on_c, 0, 36, 58
3, 88320, Note_on_c, 0, 36, 0
3, 88320, Note_on_c, 0, 48, 0
3, 88320, Note_on_c, 0, 46, 70
3, 88320, Note_on_c, 0, 34, 59
3, 88800, Note_on_c, 0, 34, 0
3, 88800, Note_on_c, 0, 46, 0
3, 88800, Note_on_c, 0, 47, 64
3, 88800, Note_on_c, 0, 35, 54
3, 89280, Note_on_c, 0, 35, 0
3, 89280, Note_on_c, 0, 47, 0
3, 89280, Note_on_c, 0, 48, 67
3, 89280, Note_on_c, 0, 36, 56
3, 89760, Note_on_c, 0, 36, 0
3, 89760, Note_on_c, 0, 48, 0
3, 89760, Note_on_c, 0, 49, 70
3, 89760, Note_on_c, 0, 37, 59
3, 90240, Note_on_c, 0, 37, 0
3, 90240, Note_on_c, 0, 49, 0
3, 90240, Note_on_c, 0, 38, 58
3, 90240, Note_on_c, 0, 50, 69
3, 90720, Note_on_c, 0, 50, 0
3, 90720, Note_on_c, 0, 38, 0
3, 90720, Note_on_c, 0, 51, 70
3, 90720, Note_on_c, 0, 39, 59
3, 91200, Note_on_c, 0, 39, 0
3, 91200, Note_on_c, 0, 51, 0
3, 91200, Note_on_c, 0, 50, 73
3, 91200, Note_on_c, 0, 38, 62
3, 91680, Note_on_c, 0, 38, 0
3, 91680, Note_on_c, 0, 50, 0
3, 91680, Note_on_c, 0, 49, 77
3, 91680, Note_on_c, 0, 37, 65
3, 92160, Note_on_c, 0, 37, 0
3, 92160, Note_on_c, 0, 49, 0
3, 92160, Note_on_c, 0, 48, 85
3, 92160, Note_on_c, 0, 36, 72
3, 92280, Note_on_c, 0, 36, 0
3, 92280, Note_on_c, 0, 48, 0
3, 92400, Note_on_c, 0, 60, 69
3, 92400, Note_on_c, 0, 48, 58
3, 92520, Note_on_c, 0, 48, 0
3, 92520, Note_on_c, 0, 60, 0
3, 92640, Note_on_c, 0, 60, 69
3, 92640, Note_on_c, 0, 48, 58
3, 92760, Note_on_c, 0, 48, 0
3, 92760, Note_on_c, 0, 60, 0
3, 92880, Note_on_c, 0, 60, 69
3, 92880, Note_on_c, 0, 48, 58
3, 93000, Note_on_c, 0, 48, 0
3, 93000, Note_on_c, 0, 60, 0
3, 93120, Note_on_c, 0, 48, 85
3, 93120, Note_on_c, 0, 36, 72
3, 93240, Note_on_c, 0, 36, 0
3, 93240, Note_on_c, 0, 48, 0
3, 93360, Note_on_c, 0, 60, 69
3, 93360, Note_on_c, 0, 48, 58
3, 93480, Note_on_c, 0, 48, 0
3, 93480, Note_on_c, 0, 60, 0
3, 93600, Note_on_c, 0, 60, 69
3, 93600, Note_on_c, 0, 48, 58
3, 93720, Note_on_c, 0, 48, 0
3, 93720, Note_on_c, 0, 60, 0
3, 93840, Note_on_c, 0, 60, 69
3, 93840, Note_on_c, 0, 48, 58
3, 93960, Note_on_c, 0, 48, 0
3, 93960, Note_on_c, 0, 60, 0
3, 94080, Note_on_c, 0, 41, 76
3, 94110, Note_on_c, 0, 53, 80
3, 94320, Note_on_c, 0, 53, 0
3, 94320, Note_on_c, 0, 41, 0
3, 94320, End_track
4, 0, Start_track
4, 0, Title_t, "Pedal"
4, 4814, Control_c, 0, 64, 127
4, 5026, Control_c, 0, 64, 0
4, 5760, Control_c, 0, 64, 127
4, 6021, Control_c, 0, 64, 0
4, 6780, Control_c, 0, 64, 127
4, 6946, Control_c, 0, 64, 0
4, 37419, Control_c, 0, 64, 127
4, 37631, Control_c, 0, 64, 0
4, 69247, Control_c, 0, 64, 127
4, 69904, Control_c, 0, 64, 0
4, 70137, Control_c, 0, 64, 127
4, 70603, Control_c, 0, 64, 0
4, 71095, Control_c, 0, 64, 127
4, 71686, Control_c, 0, 64, 0
4, 72042, Control_c, 0, 64, 127
4, 72662, Control_c, 0, 64, 0
4, 73069, Control_c, 0, 64, 127
4, 73577, Control_c, 0, 64, 0
4, 74040, Control_c, 0, 64, 127
4, 74537, Control_c, 0, 64, 0
4, 74880, Control_c, 0, 64, 127
4, 75655, Control_c, 0, 64, 0
4, 78748, Control_c, 0, 64, 127
4, 79031, Control_c, 0, 64, 0
4, 80743, Control_c, 0, 64, 127
4, 81075, Control_c, 0, 64, 0
4, 81629, Control_c, 0, 64, 127
4, 82017, Control_c, 0, 64, 0
4, 82599, Control_c, 0, 64, 127
4, 82945, Control_c, 0, 64, 0
4, 84583, Control_c, 0, 64, 127
4, 84915, Control_c, 0, 64, 0
4, 85469, Control_c, 0, 64, 127
4, 85857, Control_c, 0, 64, 0
4, 86439, Control_c, 0, 64, 127
4, 86880, Control_c, 0, 64, 0
4, 87000, Control_c, 0, 64, 127
4, 87375, Control_c, 0, 64, 0
4, 87445, Control_c, 0, 64, 127
4, 87864, Control_c, 0, 64, 0
4, 87946, Control_c, 0, 64, 127
4, 88326, Control_c, 0, 64, 0
4, 88396, Control_c, 0, 64, 127
4, 88817, Control_c, 0, 64, 0
4, 88882, Control_c, 0, 64, 127
4, 89290, Control_c, 0, 64, 0
4, 89362, Control_c, 0, 64, 127
4, 89781, Control_c, 0, 64, 0
4, 89868, Control_c, 0, 64, 127
4, 90245, Control_c, 0, 64, 0
4, 90312, Control_c, 0, 64, 127
4, 90731, Control_c, 0, 64, 0
4, 90808, Control_c, 0, 64, 127
4, 91216, Control_c, 0, 64, 0
4, 91291, Control_c, 0, 64, 127
4, 91691, Control_c, 0, 64, 0
4, 91735, Control_c, 0, 64, 127
4, 92180, Control_c, 0, 64, 0
4, 92280, Control_c, 0, 64, 127
4, 93140, Control_c, 0, 64, 0
4, 93240, Control_c, 0, 64, 127
4, 94080, Control_c, 0, 64, 0
4, 94168, Control_c, 0, 64, 127
4, 94617, Control_c, 0, 64, 0
4, 94617, End_track
5, 0, Start_track
5, 0, Title_t, "Buegmueller: Etueden Op. 109 - Erwachen im Walde"
5, 0, End_track
6, 0, Start_track
6, 0, Title_t, "Copyright © 2004 by Bernd Krüger"
6, 0, End_track
7, 0, Start_track
7, 0, Title_t, "http://www.piano-midi.de"
7, 0, End_track
8, 0, Start_track
8, 0, Title_t, "Edition: 2012-03-12"
8, 0, End_track
9, 0, Start_track
9, 0, Title_t, "Spur 8"
9, 0, End_track
0, 0, End_of_file
