0, 0, Header, 1, 8, 480
1, 0, Start_track
1, 0, Title_t, "Chopin Prelude  No. 17, Opus 28"
1, 0, Copyright_t, "Copyright © 2002 by Bernd Krueger "
1, 0, Text_t, "Frederic Chopin"
1, 0, Text_t, "Allegretto"
1, 0, Text_t, "Fertiggestellt am 22.10.2002\012"
1, 0, Text_t, "Normierung: 23.12.2002\012"
1, 0, Text_t, "Update am 20.7.2003\012"
1, 0, Text_t, "Update am 23.6.2010\012"
1, 0, Text_t, "Update am 21.2.2014\012"
1, 0, Text_t, "Dauer: 2:42 Minuten\012"
1, 0, SMPTE_offset, 96, 0, 3, 0, 0
1, 0, Time_signature, 6, 3, 12, 8
1, 0, Key_signature, -4, "major"
1, 0, Tempo, 582355
1, 240, Tempo, 552334
1, 720, Tempo, 528961
1, 960, Tempo, 521603
1, 1898, Tempo, 518001
1, 1942, Tempo, 521603
1, 1986, Tempo, 525256
1, 2008, Tempo, 528961
1, 2051, Tempo, 532718
1, 2095, Tempo, 536529
1, 2117, Tempo, 540394
1, 2160, Tempo, 544316
1, 2204, Tempo, 548296
1, 2226, Tempo, 552334
1, 2280, Tempo, 556019
1, 2360, Tempo, 558815
1, 2400, Tempo, 567430
1, 2640, Tempo, 573285
1, 2880, Tempo, 604656
1, 3120, Tempo, 525256
1, 3360, Tempo, 536529
1, 3380, Tempo, 550459
1, 3600, Tempo, 518001
1, 3840, Tempo, 545058
1, 4080, Tempo, 570342
1, 4320, Tempo, 591716
1, 4560, Tempo, 518001
1, 4800, Tempo, 528961
1, 5280, Tempo, 564546
1, 5520, Tempo, 576314
1, 5760, Tempo, 588524
1, 6000, Tempo, 532718
1, 6240, Tempo, 528961
1, 6480, Tempo, 521603
1, 6720, Tempo, 548296
1, 6960, Tempo, 573285
1, 7440, Tempo, 535714
1, 7680, Tempo, 579318
1, 7920, Tempo, 539568
1, 8160, Tempo, 564546
1, 8640, Tempo, 594884
1, 8880, Tempo, 525256
1, 9120, Tempo, 525256
1, 9360, Tempo, 510943
1, 9600, Tempo, 521603
1, 9840, Tempo, 573285
1, 10320, Tempo, 556019
1, 10560, Tempo, 579318
1, 10800, Tempo, 556019
1, 11040, Tempo, 564546
1, 11520, Tempo, 594884
1, 11760, Tempo, 542397
1, 12000, Tempo, 528961
1, 12240, Tempo, 514447
1, 12480, Tempo, 548296
1, 12720, Tempo, 585423
1, 12960, Tempo, 573285
1, 13200, Tempo, 550459
1, 14160, Tempo, 582355
1, 14400, Tempo, 604656
1, 14640, Tempo, 539763
1, 14880, Tempo, 521603
1, 15120, Tempo, 514447
1, 15360, Tempo, 545058
1, 15600, Tempo, 570342
1, 15840, Tempo, 591716
1, 16080, Tempo, 518001
1, 16320, Tempo, 525256
1, 16800, Tempo, 564546
1, 17040, Tempo, 576314
1, 17280, Tempo, 588524
1, 17520, Tempo, 532718
1, 17760, Tempo, 514447
1, 18000, Tempo, 504075
1, 18240, Tempo, 528961
1, 18480, Tempo, 573285
1, 18960, Tempo, 524476
1, 19200, Tempo, 579318
1, 19440, Tempo, 520833
1, 19680, Tempo, 564546
1, 20160, Tempo, 594884
1, 20400, Tempo, 542397
1, 20640, Tempo, 528961
1, 20880, Tempo, 514447
1, 21120, Tempo, 532718
1, 21360, Tempo, 573285
1, 21840, Tempo, 540394
1, 22080, Tempo, 604656
1, 22320, Tempo, 548296
1, 22560, Tempo, 579318
1, 23040, Tempo, 621633
1, 23280, Tempo, 564546
1, 23520, Tempo, 573285
1, 24000, Tempo, 588524
1, 24240, Tempo, 604656
1, 24360, Tempo, 682982
1, 24480, Tempo, 585423
1, 24720, Tempo, 564546
1, 25440, Tempo, 582355
1, 25680, Tempo, 601323
1, 25920, Tempo, 582355
1, 26160, Tempo, 567430
1, 26640, Tempo, 544316
1, 26880, Tempo, 582355
1, 27360, Tempo, 576314
1, 27600, Tempo, 561640
1, 27680, Tempo, 558815
1, 27760, Tempo, 556019
1, 27820, Tempo, 553250
1, 27840, Tempo, 548296
1, 27900, Tempo, 550459
1, 27980, Tempo, 547745
1, 28040, Tempo, 545058
1, 28080, Tempo, 532718
1, 28320, Tempo, 564546
1, 28800, Tempo, 567430
1, 29040, Tempo, 550459
1, 29520, Tempo, 536529
1, 29760, Tempo, 564546
1, 30240, Tempo, 567430
1, 30480, Tempo, 535714
1, 30720, Tempo, 528169
1, 30960, Tempo, 536529
1, 31200, Tempo, 564546
1, 31680, Tempo, 567430
1, 31920, Tempo, 550459
1, 32400, Tempo, 532718
1, 32640, Tempo, 564546
1, 33120, Tempo, 567430
1, 33360, Tempo, 550459
1, 33600, Tempo, 536529
1, 33840, Tempo, 532718
1, 34080, Tempo, 564546
1, 34320, Tempo, 579318
1, 34560, Tempo, 567430
1, 34800, Tempo, 550459
1, 35280, Tempo, 532718
1, 35520, Tempo, 564546
1, 35760, Tempo, 585423
1, 36000, Tempo, 576314
1, 36240, Tempo, 564546
1, 36500, Tempo, 576314
1, 36720, Tempo, 556019
1, 36960, Tempo, 576314
1, 37440, Tempo, 567430
1, 37680, Tempo, 550459
1, 37920, Tempo, 542397
1, 38160, Tempo, 545058
1, 38400, Tempo, 564546
1, 38880, Tempo, 567430
1, 39120, Tempo, 550459
1, 39360, Tempo, 536529
1, 39600, Tempo, 521603
1, 39840, Tempo, 564546
1, 40320, Tempo, 567430
1, 40560, Tempo, 550459
1, 40800, Tempo, 532718
1, 41040, Tempo, 518001
1, 41280, Tempo, 564546
1, 41760, Tempo, 567430
1, 42000, Tempo, 550459
1, 42480, Tempo, 525256
1, 42720, Tempo, 564546
1, 43200, Tempo, 567430
1, 43440, Tempo, 550459
1, 43680, Tempo, 542397
1, 43920, Tempo, 545058
1, 44160, Tempo, 564546
1, 44640, Tempo, 567430
1, 44880, Tempo, 550459
1, 45120, Tempo, 542397
1, 45360, Tempo, 545058
1, 45600, Tempo, 564546
1, 46080, Tempo, 567430
1, 46320, Tempo, 550459
1, 46560, Tempo, 542397
1, 46800, Tempo, 545058
1, 47040, Tempo, 564546
1, 47520, Tempo, 567430
1, 47760, Tempo, 550459
1, 48000, Tempo, 542397
1, 48240, Tempo, 545058
1, 48480, Tempo, 564546
1, 48960, Tempo, 604656
1, 49200, Tempo, 539763
1, 49440, Tempo, 525256
1, 49680, Tempo, 510943
1, 49920, Tempo, 545058
1, 50160, Tempo, 570342
1, 50400, Tempo, 591716
1, 50640, Tempo, 537105
1, 50880, Tempo, 528961
1, 51120, Tempo, 525256
1, 51360, Tempo, 564546
1, 51600, Tempo, 576314
1, 51840, Tempo, 588524
1, 52080, Tempo, 542397
1, 52320, Tempo, 521603
1, 52560, Tempo, 510943
1, 52800, Tempo, 532718
1, 53040, Tempo, 573285
1, 53520, Tempo, 556019
1, 53760, Tempo, 579318
1, 54000, Tempo, 556019
1, 54240, Tempo, 564546
1, 54720, Tempo, 594884
1, 54960, Tempo, 542397
1, 55200, Tempo, 532718
1, 55440, Tempo, 525256
1, 55680, Tempo, 536529
1, 55920, Tempo, 573285
1, 56160, Tempo, 585423
1, 56400, Tempo, 570342
1, 56640, Tempo, 579318
1, 56880, Tempo, 567430
1, 57120, Tempo, 579318
1, 57600, Tempo, 648649
1, 57840, Tempo, 567430
1, 58080, Tempo, 585423
1, 58560, Tempo, 576314
1, 58800, Tempo, 607964
1, 58920, Tempo, 662544
1, 59040, Tempo, 588524
1, 59280, Tempo, 564546
1, 60000, Tempo, 577868
1, 60240, Tempo, 631380
1, 60480, Tempo, 576314
1, 60720, Tempo, 561640
1, 60960, Tempo, 573285
1, 61140, Tempo, 526870
1, 61200, Tempo, 544316
1, 61440, Tempo, 576314
1, 61920, Tempo, 582355
1, 62160, Tempo, 564546
1, 62400, Tempo, 553250
1, 62640, Tempo, 561640
1, 62880, Tempo, 564546
1, 63360, Tempo, 567430
1, 63600, Tempo, 550459
1, 63840, Tempo, 528961
1, 64080, Tempo, 525256
1, 64320, Tempo, 564546
1, 64680, Tempo, 576314
1, 64800, Tempo, 567430
1, 65040, Tempo, 550459
1, 65280, Tempo, 525256
1, 65520, Tempo, 545058
1, 65760, Tempo, 564546
1, 66240, Tempo, 567430
1, 66480, Tempo, 550459
1, 66720, Tempo, 561640
1, 66900, Tempo, 526870
1, 66960, Tempo, 525256
1, 67200, Tempo, 564546
1, 67680, Tempo, 567430
1, 67920, Tempo, 550459
1, 68160, Tempo, 525256
1, 68400, Tempo, 545058
1, 68640, Tempo, 564546
1, 69120, Tempo, 567430
1, 69360, Tempo, 550459
1, 69600, Tempo, 528961
1, 69840, Tempo, 514447
1, 70080, Tempo, 564546
1, 70440, Tempo, 576314
1, 70560, Tempo, 567430
1, 70800, Tempo, 550459
1, 71040, Tempo, 540394
1, 71280, Tempo, 545058
1, 71520, Tempo, 564546
1, 71760, Tempo, 573285
1, 72240, Tempo, 550459
1, 72720, Tempo, 564546
1, 72960, Tempo, 550459
1, 73200, Tempo, 576314
1, 73440, Tempo, 553250
1, 73680, Tempo, 550459
1, 74160, Tempo, 564546
1, 74400, Tempo, 550459
1, 74640, Tempo, 579318
1, 74880, Tempo, 553250
1, 75120, Tempo, 550459
1, 75600, Tempo, 564546
1, 75840, Tempo, 550459
1, 76320, Tempo, 539763
1, 76560, Tempo, 545058
1, 76640, Tempo, 547745
1, 76720, Tempo, 550459
1, 76800, Tempo, 553250
1, 76880, Tempo, 556019
1, 76960, Tempo, 558815
1, 77040, Tempo, 561640
1, 77120, Tempo, 564546
1, 77200, Tempo, 567430
1, 77280, Tempo, 570342
1, 77360, Tempo, 573285
1, 77440, Tempo, 576314
1, 77500, Tempo, 579318
1, 77760, Tempo, 567430
1, 78000, Tempo, 550459
1, 78480, Tempo, 545058
1, 78720, Tempo, 564546
1, 78960, Tempo, 579318
1, 79200, Tempo, 560748
1, 79320, Tempo, 509901
1, 79440, Tempo, 550459
1, 79920, Tempo, 545058
1, 80160, Tempo, 564546
1, 80640, Tempo, 567430
1, 80880, Tempo, 550459
1, 81120, Tempo, 528961
1, 81360, Tempo, 536529
1, 81600, Tempo, 564546
1, 82080, Tempo, 567430
1, 82320, Tempo, 550459
1, 82560, Tempo, 536529
1, 82800, Tempo, 525256
1, 83040, Tempo, 564546
1, 83520, Tempo, 567430
1, 83760, Tempo, 550459
1, 84000, Tempo, 525256
1, 84240, Tempo, 545058
1, 84480, Tempo, 564546
1, 84960, Tempo, 567430
1, 85200, Tempo, 550459
1, 85440, Tempo, 528961
1, 85680, Tempo, 528961
1, 85920, Tempo, 564546
1, 86400, Tempo, 567430
1, 86640, Tempo, 550459
1, 86880, Tempo, 542397
1, 87120, Tempo, 545058
1, 87360, Tempo, 550459
1, 87412, Tempo, 552995
1, 87424, Tempo, 555556
1, 87440, Tempo, 558140
1, 87452, Tempo, 560748
1, 87492, Tempo, 558140
1, 87504, Tempo, 550459
1, 87532, Tempo, 555556
1, 87560, Tempo, 563380
1, 87600, Tempo, 560748
1, 87612, Tempo, 555556
1, 87624, Tempo, 552995
1, 87680, Tempo, 560748
1, 87692, Tempo, 563380
1, 87720, Tempo, 560748
1, 87732, Tempo, 558140
1, 87760, Tempo, 555556
1, 87784, Tempo, 558140
1, 87840, Tempo, 558140
1, 87880, Tempo, 555556
1, 87904, Tempo, 552995
1, 87944, Tempo, 550459
1, 87972, Tempo, 547945
1, 88012, Tempo, 545455
1, 88040, Tempo, 542986
1, 88080, Tempo, 540541
1, 88320, Tempo, 530973
1, 88560, Tempo, 545058
1, 88800, Tempo, 555556
1, 88812, Tempo, 552995
1, 88824, Tempo, 550459
1, 88852, Tempo, 547945
1, 88880, Tempo, 558140
1, 88892, Tempo, 560748
1, 88932, Tempo, 555556
1, 88944, Tempo, 550459
1, 88960, Tempo, 547945
1, 88984, Tempo, 550459
1, 89000, Tempo, 558140
1, 89012, Tempo, 563380
1, 89052, Tempo, 560748
1, 89064, Tempo, 558140
1, 89080, Tempo, 555556
1, 89092, Tempo, 550459
1, 89120, Tempo, 552995
1, 89132, Tempo, 558140
1, 89252, Tempo, 563380
1, 89280, Tempo, 563380
1, 89360, Tempo, 560748
1, 89440, Tempo, 558140
1, 89480, Tempo, 555556
1, 89560, Tempo, 552995
1, 89600, Tempo, 550459
1, 89680, Tempo, 547945
1, 89760, Tempo, 545455
1, 89800, Tempo, 542986
1, 89880, Tempo, 540541
1, 89920, Tempo, 538117
1, 89960, Tempo, 538117
1, 90040, Tempo, 540541
1, 90120, Tempo, 542986
1, 90200, Tempo, 545455
1, 90240, Tempo, 547945
1, 90320, Tempo, 550459
1, 90400, Tempo, 552995
1, 90440, Tempo, 555556
1, 90520, Tempo, 558140
1, 90600, Tempo, 560748
1, 90640, Tempo, 563380
1, 90720, Tempo, 567430
1, 90960, Tempo, 550459
1, 91200, Tempo, 550459
1, 91260, Tempo, 553250
1, 91320, Tempo, 556019
1, 91380, Tempo, 558815
1, 91420, Tempo, 561640
1, 91440, Tempo, 560748
1, 91480, Tempo, 563380
1, 91520, Tempo, 568720
1, 91560, Tempo, 571429
1, 91600, Tempo, 576923
1, 91640, Tempo, 579710
1, 91680, Tempo, 585366
1, 91720, Tempo, 591133
1, 91760, Tempo, 594059
1, 91800, Tempo, 600000
1, 91840, Tempo, 603015
1, 91880, Tempo, 609137
1, 91920, Tempo, 615385
1, 92040, Tempo, 689655
1, 92160, Tempo, 722892
1, 92400, Tempo, 539763
1, 92640, Tempo, 521603
1, 92880, Tempo, 514447
1, 93120, Tempo, 545058
1, 93360, Tempo, 570342
1, 93600, Tempo, 591716
1, 93840, Tempo, 537105
1, 94080, Tempo, 542397
1, 94560, Tempo, 564546
1, 94800, Tempo, 576314
1, 94920, Tempo, 647040
1, 95040, Tempo, 639591
1, 95280, Tempo, 533333
1, 95520, Tempo, 528961
1, 95760, Tempo, 518001
1, 96000, Tempo, 532718
1, 96240, Tempo, 573285
1, 96480, Tempo, 588235
1, 96720, Tempo, 568720
1, 96960, Tempo, 594059
1, 97200, Tempo, 568720
1, 97440, Tempo, 579710
1, 97800, Tempo, 647040
1, 97920, Tempo, 647040
1, 98160, Tempo, 542397
1, 98400, Tempo, 536529
1, 98640, Tempo, 521603
1, 98880, Tempo, 532718
1, 99120, Tempo, 573285
1, 99360, Tempo, 585366
1, 99600, Tempo, 568720
1, 99840, Tempo, 606061
1, 100080, Tempo, 585366
1, 100320, Tempo, 603015
1, 100680, Tempo, 658617
1, 100800, Tempo, 662544
1, 101040, Tempo, 542397
1, 101280, Tempo, 544316
1, 101520, Tempo, 521603
1, 101760, Tempo, 540394
1, 102000, Tempo, 585423
1, 102240, Tempo, 573285
1, 102480, Tempo, 550459
1, 102760, Tempo, 547945
1, 102840, Tempo, 550459
1, 102920, Tempo, 552995
1, 103000, Tempo, 555556
1, 103080, Tempo, 558140
1, 103160, Tempo, 560748
1, 103240, Tempo, 563380
1, 103320, Tempo, 566038
1, 103400, Tempo, 568720
1, 103440, Tempo, 582355
1, 103560, Tempo, 704804
1, 103680, Tempo, 695894
1, 103920, Tempo, 539763
1, 104160, Tempo, 536529
1, 104180, Tempo, 550459
1, 104400, Tempo, 525256
1, 104640, Tempo, 545058
1, 104880, Tempo, 570342
1, 105120, Tempo, 591716
1, 105360, Tempo, 537105
1, 105600, Tempo, 542397
1, 106080, Tempo, 564546
1, 106320, Tempo, 576314
1, 106440, Tempo, 670616
1, 106560, Tempo, 666519
1, 106800, Tempo, 542397
1, 107040, Tempo, 550459
1, 107280, Tempo, 518001
1, 107520, Tempo, 540394
1, 107760, Tempo, 573285
1, 108000, Tempo, 591133
1, 108240, Tempo, 555556
1, 108480, Tempo, 609137
1, 108720, Tempo, 568182
1, 108960, Tempo, 591133
1, 109320, Tempo, 666519
1, 109440, Tempo, 710059
1, 109680, Tempo, 542397
1, 109920, Tempo, 528961
1, 110160, Tempo, 514447
1, 110400, Tempo, 540394
1, 110640, Tempo, 566038
1, 110880, Tempo, 591133
1, 111120, Tempo, 571429
1, 111360, Tempo, 628272
1, 111600, Tempo, 600000
1, 111840, Tempo, 618557
1, 112200, Tempo, 647040
1, 112320, Tempo, 685714
1, 112560, Tempo, 552995
1, 112800, Tempo, 552334
1, 113040, Tempo, 540394
1, 113280, Tempo, 564546
1, 113520, Tempo, 585423
1, 113640, Tempo, 643294
1, 113760, Tempo, 573285
1, 114000, Tempo, 560748
1, 114720, Tempo, 564546
1, 114960, Tempo, 601323
1, 115200, Tempo, 639591
1, 115440, Tempo, 555556
1, 115680, Tempo, 566038
1, 116160, Tempo, 576923
1, 116400, Tempo, 585423
1, 116640, Tempo, 573285
1, 116880, Tempo, 558140
1, 117360, Tempo, 566038
1, 117600, Tempo, 576923
1, 117840, Tempo, 585423
1, 118080, Tempo, 573285
1, 118320, Tempo, 558140
1, 118800, Tempo, 566038
1, 119040, Tempo, 579710
1, 119280, Tempo, 585423
1, 119400, Tempo, 643294
1, 119520, Tempo, 654736
1, 119760, Tempo, 560748
1, 120240, Tempo, 568720
1, 120480, Tempo, 579710
1, 120720, Tempo, 585423
1, 120960, Tempo, 573285
1, 121200, Tempo, 558140
1, 121680, Tempo, 566038
1, 121920, Tempo, 579710
1, 122160, Tempo, 585423
1, 122280, Tempo, 643294
1, 122400, Tempo, 643294
1, 122640, Tempo, 576923
1, 123120, Tempo, 528961
1, 123360, Tempo, 588235
1, 123600, Tempo, 585423
1, 123840, Tempo, 604656
1, 124080, Tempo, 582355
1, 124140, Tempo, 579318
1, 124180, Tempo, 582355
1, 124220, Tempo, 585423
1, 124260, Tempo, 588524
1, 124300, Tempo, 591716
1, 124340, Tempo, 594884
1, 124380, Tempo, 598086
1, 124420, Tempo, 601323
1, 124460, Tempo, 604656
1, 124500, Tempo, 607964
1, 124520, Tempo, 611309
1, 124560, Tempo, 614691
1, 124600, Tempo, 618111
1, 124640, Tempo, 621633
1, 124680, Tempo, 625130
1, 124720, Tempo, 628667
1, 124760, Tempo, 632244
1, 124800, Tempo, 635930
1, 124840, Tempo, 639591
1, 124860, Tempo, 643294
1, 124900, Tempo, 647040
1, 124940, Tempo, 650900
1, 124980, Tempo, 654736
1, 125020, Tempo, 658617
1, 125060, Tempo, 662544
1, 125100, Tempo, 666519
1, 125140, Tempo, 670616
1, 125160, Tempo, 885217
1, 125280, Tempo, 838223
1, 125520, Tempo, 666519
1, 125540, Tempo, 662983
1, 125560, Tempo, 659341
1, 125580, Tempo, 655738
1, 125620, Tempo, 652174
1, 125640, Tempo, 662983
1, 125680, Tempo, 670391
1, 125720, Tempo, 666667
1, 125740, Tempo, 662983
1, 125760, Tempo, 659341
1, 125780, Tempo, 655738
1, 125800, Tempo, 652174
1, 125820, Tempo, 659341
1, 125840, Tempo, 670391
1, 125880, Tempo, 666667
1, 125900, Tempo, 662983
1, 125920, Tempo, 659341
1, 125940, Tempo, 655738
1, 125960, Tempo, 652174
1, 125980, Tempo, 659341
1, 126000, Tempo, 666667
1, 126020, Tempo, 674157
1, 126100, Tempo, 670391
1, 126120, Tempo, 666667
1, 126140, Tempo, 662983
1, 126160, Tempo, 655738
1, 126200, Tempo, 659341
1, 126240, Tempo, 666667
1, 126260, Tempo, 674157
1, 126280, Tempo, 677966
1, 126300, Tempo, 681818
1, 126340, Tempo, 670391
1, 126360, Tempo, 666667
1, 126380, Tempo, 662983
1, 126400, Tempo, 655738
1, 126420, Tempo, 652174
1, 126460, Tempo, 648649
1, 126500, Tempo, 659341
1, 126520, Tempo, 674157
1, 126580, Tempo, 670391
1, 126600, Tempo, 659341
1, 126620, Tempo, 655738
1, 126640, Tempo, 652174
1, 126660, Tempo, 655738
1, 126680, Tempo, 659341
1, 126720, Tempo, 666519
1, 126780, Tempo, 670616
1, 126840, Tempo, 674688
1, 126880, Tempo, 678810
1, 126940, Tempo, 682982
1, 126980, Tempo, 687285
1, 127040, Tempo, 691563
1, 127080, Tempo, 695894
1, 127140, Tempo, 700280
1, 127180, Tempo, 704804
1, 127240, Tempo, 709304
1, 127300, Tempo, 713861
1, 127340, Tempo, 718477
1, 127400, Tempo, 723153
1, 127440, Tempo, 851064
1, 127680, Tempo, 1276596
1, 127920, Tempo, 1764706
1, 128160, Tempo, 1500000
1, 129600, Tempo, 1000000
1, 129600, End_track
2, 0, Start_track
2, 0, Title_t, "Piano right"
2, 0, Program_c, 0, 0
2, 0, Control_c, 0, 7, 100
2, 0, Control_c, 0, 10, 64
2, 0, Note_on_c, 0, 60, 34
2, 0, Control_c, 0, 91, 127
2, 0, Text_t, "bdca426d104a26ac9dcb070447587523"
2, 228, Note_on_c, 0, 60, 0
2, 240, Note_on_c, 0, 60, 35
2, 468, Note_on_c, 0, 60, 0
2, 480, Note_on_c, 0, 60, 37
2, 708, Note_on_c, 0, 60, 0
2, 720, Note_on_c, 0, 60, 38
2, 948, Note_on_c, 0, 60, 0
2, 960, Note_on_c, 0, 60, 39
2, 1188, Note_on_c, 0, 60, 0
2, 1200, Note_on_c, 0, 60, 41
2, 1428, Note_on_c, 0, 60, 0
2, 1440, Note_on_c, 0, 60, 43
2, 1668, Note_on_c, 0, 60, 0
2, 1680, Note_on_c, 0, 60, 45
2, 1908, Note_on_c, 0, 60, 0
2, 1920, Note_on_c, 0, 60, 47
2, 2148, Note_on_c, 0, 60, 0
2, 2160, Note_on_c, 0, 60, 47
2, 2388, Note_on_c, 0, 60, 0
2, 2400, Note_on_c, 0, 60, 45
2, 2628, Note_on_c, 0, 60, 0
2, 2640, Note_on_c, 0, 60, 40
2, 2868, Note_on_c, 0, 60, 0
2, 2880, Note_on_c, 0, 61, 48
2, 3108, Note_on_c, 0, 61, 0
2, 3120, Note_on_c, 0, 67, 55
2, 3120, Note_on_c, 0, 61, 42
2, 3348, Note_on_c, 0, 61, 0
2, 3348, Note_on_c, 0, 67, 0
2, 3360, Note_on_c, 0, 72, 57
2, 3360, Note_on_c, 0, 61, 44
2, 3588, Note_on_c, 0, 61, 0
2, 3588, Note_on_c, 0, 72, 0
2, 3600, Note_on_c, 0, 73, 59
2, 3600, Note_on_c, 0, 61, 45
2, 3828, Note_on_c, 0, 61, 0
2, 3828, Note_on_c, 0, 73, 0
2, 3840, Note_on_c, 0, 65, 56
2, 3840, Note_on_c, 0, 61, 43
2, 4068, Note_on_c, 0, 61, 0
2, 4068, Note_on_c, 0, 65, 0
2, 4080, Note_on_c, 0, 67, 55
2, 4080, Note_on_c, 0, 61, 42
2, 4308, Note_on_c, 0, 61, 0
2, 4308, Note_on_c, 0, 67, 0
2, 4320, Note_on_c, 0, 70, 61
2, 4560, Note_on_c, 0, 60, 26
2, 4560, Note_on_c, 0, 66, 31
2, 4788, Note_on_c, 0, 66, 0
2, 4788, Note_on_c, 0, 60, 0
2, 4800, Note_on_c, 0, 60, 26
2, 4800, Note_on_c, 0, 66, 31
2, 5028, Note_on_c, 0, 66, 0
2, 5028, Note_on_c, 0, 60, 0
2, 5040, Note_on_c, 0, 70, 0
2, 5040, Note_on_c, 0, 68, 52
2, 5040, Note_on_c, 0, 60, 30
2, 5040, Note_on_c, 0, 66, 36
2, 5268, Note_on_c, 0, 66, 0
2, 5268, Note_on_c, 0, 60, 0
2, 5280, Note_on_c, 0, 66, 31
2, 5280, Note_on_c, 0, 60, 26
2, 5508, Note_on_c, 0, 60, 0
2, 5508, Note_on_c, 0, 66, 0
2, 5520, Note_on_c, 0, 66, 31
2, 5520, Note_on_c, 0, 60, 26
2, 5748, Note_on_c, 0, 60, 0
2, 5748, Note_on_c, 0, 66, 0
2, 6000, Note_on_c, 0, 68, 0
2, 6000, Note_on_c, 0, 73, 59
2, 6000, Note_on_c, 0, 68, 45
2, 6228, Note_on_c, 0, 68, 0
2, 6228, Note_on_c, 0, 73, 0
2, 6240, Note_on_c, 0, 79, 63
2, 6240, Note_on_c, 0, 68, 49
2, 6468, Note_on_c, 0, 68, 0
2, 6468, Note_on_c, 0, 79, 0
2, 6480, Note_on_c, 0, 82, 68
2, 6480, Note_on_c, 0, 68, 52
2, 6708, Note_on_c, 0, 68, 0
2, 6708, Note_on_c, 0, 82, 0
2, 6720, Note_on_c, 0, 80, 61
2, 6720, Note_on_c, 0, 68, 47
2, 6948, Note_on_c, 0, 68, 0
2, 6948, Note_on_c, 0, 80, 0
2, 6960, Note_on_c, 0, 77, 61
2, 6960, Note_on_c, 0, 68, 47
2, 7188, Note_on_c, 0, 68, 0
2, 7188, Note_on_c, 0, 77, 0
2, 7200, Note_on_c, 0, 75, 71
2, 7440, Note_on_c, 0, 63, 42
2, 7440, Note_on_c, 0, 70, 50
2, 7668, Note_on_c, 0, 70, 0
2, 7668, Note_on_c, 0, 63, 0
2, 7680, Note_on_c, 0, 63, 42
2, 7680, Note_on_c, 0, 70, 50
2, 7908, Note_on_c, 0, 70, 0
2, 7908, Note_on_c, 0, 63, 0
2, 7920, Note_on_c, 0, 75, 0
2, 7920, Note_on_c, 0, 77, 69
2, 8160, Note_on_c, 0, 73, 50
2, 8160, Note_on_c, 0, 65, 42
2, 8388, Note_on_c, 0, 65, 0
2, 8388, Note_on_c, 0, 73, 0
2, 8400, Note_on_c, 0, 73, 48
2, 8400, Note_on_c, 0, 65, 40
2, 8628, Note_on_c, 0, 65, 0
2, 8628, Note_on_c, 0, 73, 0
2, 8880, Note_on_c, 0, 77, 0
2, 8880, Note_on_c, 0, 70, 59
2, 9108, Note_on_c, 0, 70, 0
2, 9120, Note_on_c, 0, 75, 63
2, 9120, Note_on_c, 0, 63, 49
2, 9120, Note_on_c, 0, 70, 49
2, 9348, Note_on_c, 0, 70, 0
2, 9348, Note_on_c, 0, 63, 0
2, 9348, Note_on_c, 0, 75, 0
2, 9360, Note_on_c, 0, 79, 64
2, 9360, Note_on_c, 0, 70, 52
2, 9588, Note_on_c, 0, 70, 0
2, 9588, Note_on_c, 0, 79, 0
2, 9600, Note_on_c, 0, 77, 61
2, 9600, Note_on_c, 0, 70, 47
2, 9828, Note_on_c, 0, 70, 0
2, 9828, Note_on_c, 0, 77, 0
2, 9840, Note_on_c, 0, 73, 61
2, 9840, Note_on_c, 0, 70, 47
2, 10068, Note_on_c, 0, 70, 0
2, 10068, Note_on_c, 0, 73, 0
2, 10080, Note_on_c, 0, 72, 70
2, 10320, Note_on_c, 0, 63, 37
2, 10320, Note_on_c, 0, 69, 45
2, 10548, Note_on_c, 0, 69, 0
2, 10548, Note_on_c, 0, 63, 0
2, 10560, Note_on_c, 0, 63, 37
2, 10560, Note_on_c, 0, 69, 45
2, 10788, Note_on_c, 0, 69, 0
2, 10788, Note_on_c, 0, 63, 0
2, 10800, Note_on_c, 0, 72, 0
2, 10800, Note_on_c, 0, 73, 58
2, 11040, Note_on_c, 0, 68, 35
2, 11040, Note_on_c, 0, 61, 29
2, 11268, Note_on_c, 0, 61, 0
2, 11268, Note_on_c, 0, 68, 0
2, 11280, Note_on_c, 0, 68, 34
2, 11280, Note_on_c, 0, 61, 28
2, 11508, Note_on_c, 0, 61, 0
2, 11508, Note_on_c, 0, 68, 0
2, 11760, Note_on_c, 0, 73, 0
2, 11760, Note_on_c, 0, 68, 50
2, 11760, Note_on_c, 0, 61, 41
2, 11988, Note_on_c, 0, 61, 0
2, 11988, Note_on_c, 0, 68, 0
2, 12000, Note_on_c, 0, 67, 41
2, 12000, Note_on_c, 0, 61, 34
2, 12000, Note_on_c, 0, 70, 53
2, 12228, Note_on_c, 0, 70, 0
2, 12228, Note_on_c, 0, 61, 0
2, 12228, Note_on_c, 0, 67, 0
2, 12240, Note_on_c, 0, 73, 57
2, 12468, Note_on_c, 0, 73, 0
2, 12480, Note_on_c, 0, 68, 39
2, 12480, Note_on_c, 0, 60, 33
2, 12480, Note_on_c, 0, 72, 51
2, 12708, Note_on_c, 0, 72, 0
2, 12708, Note_on_c, 0, 60, 0
2, 12708, Note_on_c, 0, 68, 0
2, 12720, Note_on_c, 0, 68, 46
2, 12720, Note_on_c, 0, 60, 29
2, 12720, Note_on_c, 0, 65, 35
2, 12948, Note_on_c, 0, 65, 0
2, 12948, Note_on_c, 0, 60, 0
2, 12948, Note_on_c, 0, 68, 0
2, 12960, Note_on_c, 0, 70, 55
2, 13200, Note_on_c, 0, 58, 34
2, 13200, Note_on_c, 0, 67, 40
2, 13428, Note_on_c, 0, 67, 0
2, 13428, Note_on_c, 0, 58, 0
2, 13440, Note_on_c, 0, 58, 33
2, 13440, Note_on_c, 0, 67, 39
2, 13668, Note_on_c, 0, 67, 0
2, 13668, Note_on_c, 0, 58, 0
2, 13680, Note_on_c, 0, 58, 34
2, 13680, Note_on_c, 0, 67, 40
2, 13908, Note_on_c, 0, 67, 0
2, 13908, Note_on_c, 0, 58, 0
2, 13920, Note_on_c, 0, 58, 32
2, 13920, Note_on_c, 0, 67, 38
2, 14148, Note_on_c, 0, 67, 0
2, 14148, Note_on_c, 0, 58, 0
2, 14160, Note_on_c, 0, 58, 32
2, 14160, Note_on_c, 0, 67, 38
2, 14388, Note_on_c, 0, 67, 0
2, 14388, Note_on_c, 0, 58, 0
2, 14400, Note_on_c, 0, 61, 64
2, 14628, Note_on_c, 0, 61, 0
2, 14640, Note_on_c, 0, 70, 0
2, 14640, Note_on_c, 0, 67, 68
2, 14640, Note_on_c, 0, 61, 52
2, 14868, Note_on_c, 0, 61, 0
2, 14868, Note_on_c, 0, 67, 0
2, 14880, Note_on_c, 0, 61, 54
2, 14880, Note_on_c, 0, 67, 54
2, 14880, Note_on_c, 0, 72, 70
2, 15108, Note_on_c, 0, 72, 0
2, 15108, Note_on_c, 0, 67, 0
2, 15108, Note_on_c, 0, 61, 0
2, 15120, Note_on_c, 0, 73, 72
2, 15120, Note_on_c, 0, 67, 55
2, 15120, Note_on_c, 0, 61, 55
2, 15348, Note_on_c, 0, 61, 0
2, 15348, Note_on_c, 0, 67, 0
2, 15348, Note_on_c, 0, 73, 0
2, 15360, Note_on_c, 0, 65, 69
2, 15360, Note_on_c, 0, 61, 53
2, 15588, Note_on_c, 0, 61, 0
2, 15588, Note_on_c, 0, 65, 0
2, 15600, Note_on_c, 0, 67, 68
2, 15600, Note_on_c, 0, 61, 52
2, 15828, Note_on_c, 0, 61, 0
2, 15828, Note_on_c, 0, 67, 0
2, 15840, Note_on_c, 0, 70, 72
2, 16080, Note_on_c, 0, 60, 37
2, 16080, Note_on_c, 0, 66, 44
2, 16308, Note_on_c, 0, 66, 0
2, 16308, Note_on_c, 0, 60, 0
2, 16320, Note_on_c, 0, 60, 37
2, 16320, Note_on_c, 0, 66, 44
2, 16548, Note_on_c, 0, 66, 0
2, 16548, Note_on_c, 0, 60, 0
2, 16560, Note_on_c, 0, 70, 0
2, 16560, Note_on_c, 0, 68, 73
2, 16560, Note_on_c, 0, 60, 43
2, 16560, Note_on_c, 0, 66, 52
2, 16788, Note_on_c, 0, 66, 0
2, 16788, Note_on_c, 0, 60, 0
2, 16800, Note_on_c, 0, 66, 44
2, 16800, Note_on_c, 0, 60, 37
2, 17028, Note_on_c, 0, 60, 0
2, 17028, Note_on_c, 0, 66, 0
2, 17040, Note_on_c, 0, 66, 44
2, 17040, Note_on_c, 0, 60, 37
2, 17268, Note_on_c, 0, 60, 0
2, 17268, Note_on_c, 0, 66, 0
2, 17520, Note_on_c, 0, 68, 0
2, 17520, Note_on_c, 0, 73, 72
2, 17520, Note_on_c, 0, 68, 55
2, 17748, Note_on_c, 0, 68, 0
2, 17748, Note_on_c, 0, 73, 0
2, 17760, Note_on_c, 0, 68, 50
2, 17760, Note_on_c, 0, 73, 59
2, 17760, Note_on_c, 0, 79, 75
2, 17988, Note_on_c, 0, 79, 0
2, 17988, Note_on_c, 0, 73, 0
2, 17988, Note_on_c, 0, 68, 0
2, 18000, Note_on_c, 0, 73, 62
2, 18000, Note_on_c, 0, 82, 80
2, 18000, Note_on_c, 0, 68, 52
2, 18228, Note_on_c, 0, 68, 0
2, 18228, Note_on_c, 0, 82, 0
2, 18228, Note_on_c, 0, 73, 0
2, 18240, Note_on_c, 0, 73, 57
2, 18240, Note_on_c, 0, 80, 75
2, 18240, Note_on_c, 0, 68, 48
2, 18468, Note_on_c, 0, 68, 0
2, 18468, Note_on_c, 0, 80, 0
2, 18468, Note_on_c, 0, 73, 0
2, 18480, Note_on_c, 0, 68, 48
2, 18480, Note_on_c, 0, 73, 57
2, 18480, Note_on_c, 0, 77, 75
2, 18708, Note_on_c, 0, 77, 0
2, 18708, Note_on_c, 0, 73, 0
2, 18708, Note_on_c, 0, 68, 0
2, 18720, Note_on_c, 0, 75, 88
2, 18960, Note_on_c, 0, 70, 65
2, 18960, Note_on_c, 0, 63, 54
2, 19188, Note_on_c, 0, 63, 0
2, 19188, Note_on_c, 0, 70, 0
2, 19200, Note_on_c, 0, 70, 65
2, 19200, Note_on_c, 0, 63, 54
2, 19428, Note_on_c, 0, 63, 0
2, 19428, Note_on_c, 0, 70, 0
2, 19440, Note_on_c, 0, 75, 0
2, 19440, Note_on_c, 0, 77, 84
2, 19680, Note_on_c, 0, 65, 54
2, 19680, Note_on_c, 0, 73, 65
2, 19908, Note_on_c, 0, 73, 0
2, 19908, Note_on_c, 0, 65, 0
2, 19920, Note_on_c, 0, 65, 52
2, 19920, Note_on_c, 0, 73, 62
2, 20148, Note_on_c, 0, 73, 0
2, 20148, Note_on_c, 0, 65, 0
2, 20400, Note_on_c, 0, 77, 0
2, 20400, Note_on_c, 0, 70, 72
2, 20628, Note_on_c, 0, 70, 0
2, 20640, Note_on_c, 0, 70, 59
2, 20640, Note_on_c, 0, 63, 51
2, 20640, Note_on_c, 0, 75, 75
2, 20868, Note_on_c, 0, 75, 0
2, 20868, Note_on_c, 0, 63, 0
2, 20868, Note_on_c, 0, 70, 0
2, 20880, Note_on_c, 0, 70, 64
2, 20880, Note_on_c, 0, 79, 80
2, 21108, Note_on_c, 0, 79, 0
2, 21108, Note_on_c, 0, 70, 0
2, 21120, Note_on_c, 0, 70, 57
2, 21120, Note_on_c, 0, 77, 75
2, 21348, Note_on_c, 0, 77, 0
2, 21348, Note_on_c, 0, 70, 0
2, 21360, Note_on_c, 0, 63, 51
2, 21360, Note_on_c, 0, 73, 75
2, 21360, Note_on_c, 0, 70, 57
2, 21588, Note_on_c, 0, 70, 0
2, 21588, Note_on_c, 0, 73, 0
2, 21588, Note_on_c, 0, 63, 0
2, 21600, Note_on_c, 0, 72, 81
2, 21840, Note_on_c, 0, 63, 49
2, 21840, Note_on_c, 0, 69, 58
2, 22068, Note_on_c, 0, 69, 0
2, 22068, Note_on_c, 0, 63, 0
2, 22080, Note_on_c, 0, 63, 49
2, 22080, Note_on_c, 0, 69, 58
2, 22308, Note_on_c, 0, 69, 0
2, 22308, Note_on_c, 0, 63, 0
2, 22320, Note_on_c, 0, 72, 0
2, 22320, Note_on_c, 0, 73, 81
2, 22560, Note_on_c, 0, 68, 56
2, 22560, Note_on_c, 0, 61, 47
2, 22788, Note_on_c, 0, 61, 0
2, 22788, Note_on_c, 0, 68, 0
2, 22800, Note_on_c, 0, 68, 53
2, 22800, Note_on_c, 0, 61, 44
2, 23028, Note_on_c, 0, 61, 0
2, 23028, Note_on_c, 0, 68, 0
2, 23280, Note_on_c, 0, 73, 0
2, 23280, Note_on_c, 0, 61, 64
2, 23508, Note_on_c, 0, 61, 0
2, 23520, Note_on_c, 0, 61, 45
2, 23520, Note_on_c, 0, 68, 68
2, 23748, Note_on_c, 0, 68, 0
2, 23748, Note_on_c, 0, 61, 0
2, 23760, Note_on_c, 0, 72, 57
2, 23988, Note_on_c, 0, 72, 0
2, 24000, Note_on_c, 0, 67, 43
2, 24000, Note_on_c, 0, 61, 35
2, 24000, Note_on_c, 0, 70, 57
2, 24228, Note_on_c, 0, 61, 0
2, 24228, Note_on_c, 0, 67, 0
2, 24240, Note_on_c, 0, 61, 28
2, 24240, Note_on_c, 0, 67, 34
2, 24360, Note_on_c, 0, 70, 0
2, 24360, Note_on_c, 0, 68, 51
2, 24468, Note_on_c, 0, 67, 0
2, 24468, Note_on_c, 0, 61, 0
2, 24480, Note_on_c, 0, 68, 0
2, 24480, Note_on_c, 0, 68, 56
2, 24720, Note_on_c, 0, 60, 39
2, 24948, Note_on_c, 0, 60, 0
2, 24960, Note_on_c, 0, 60, 38
2, 25188, Note_on_c, 0, 60, 0
2, 25200, Note_on_c, 0, 60, 39
2, 25428, Note_on_c, 0, 60, 0
2, 25440, Note_on_c, 0, 60, 37
2, 25668, Note_on_c, 0, 60, 0
2, 25680, Note_on_c, 0, 60, 37
2, 25908, Note_on_c, 0, 60, 0
2, 25920, Note_on_c, 0, 68, 0
2, 25920, Note_on_c, 0, 68, 52
2, 26160, Note_on_c, 0, 56, 26
2, 26160, Note_on_c, 0, 62, 34
2, 26388, Note_on_c, 0, 62, 0
2, 26388, Note_on_c, 0, 56, 0
2, 26400, Note_on_c, 0, 56, 26
2, 26400, Note_on_c, 0, 62, 34
2, 26628, Note_on_c, 0, 62, 0
2, 26628, Note_on_c, 0, 56, 0
2, 26640, Note_on_c, 0, 68, 0
2, 26640, Note_on_c, 0, 68, 51
2, 26640, Note_on_c, 0, 56, 26
2, 26640, Note_on_c, 0, 62, 34
2, 26868, Note_on_c, 0, 62, 0
2, 26868, Note_on_c, 0, 56, 0
2, 26868, Note_on_c, 0, 68, 0
2, 26880, Note_on_c, 0, 62, 34
2, 26880, Note_on_c, 0, 56, 26
2, 26880, Note_on_c, 0, 66, 49
2, 27108, Note_on_c, 0, 66, 0
2, 27108, Note_on_c, 0, 56, 0
2, 27108, Note_on_c, 0, 62, 0
2, 27120, Note_on_c, 0, 56, 22
2, 27120, Note_on_c, 0, 64, 49
2, 27120, Note_on_c, 0, 62, 28
2, 27348, Note_on_c, 0, 62, 0
2, 27348, Note_on_c, 0, 64, 0
2, 27348, Note_on_c, 0, 56, 0
2, 27360, Note_on_c, 0, 73, 62
2, 27600, Note_on_c, 0, 61, 40
2, 27600, Note_on_c, 0, 69, 48
2, 27828, Note_on_c, 0, 69, 0
2, 27828, Note_on_c, 0, 61, 0
2, 27840, Note_on_c, 0, 61, 42
2, 27840, Note_on_c, 0, 69, 50
2, 28068, Note_on_c, 0, 69, 0
2, 28068, Note_on_c, 0, 61, 0
2, 28080, Note_on_c, 0, 61, 44
2, 28080, Note_on_c, 0, 69, 53
2, 28308, Note_on_c, 0, 69, 0
2, 28308, Note_on_c, 0, 61, 0
2, 28320, Note_on_c, 0, 61, 47
2, 28320, Note_on_c, 0, 69, 56
2, 28548, Note_on_c, 0, 69, 0
2, 28548, Note_on_c, 0, 61, 0
2, 28560, Note_on_c, 0, 61, 49
2, 28560, Note_on_c, 0, 69, 59
2, 28788, Note_on_c, 0, 69, 0
2, 28788, Note_on_c, 0, 61, 0
2, 28800, Note_on_c, 0, 73, 0
2, 28800, Note_on_c, 0, 73, 79
2, 29040, Note_on_c, 0, 68, 51
2, 29040, Note_on_c, 0, 61, 39
2, 29268, Note_on_c, 0, 61, 0
2, 29268, Note_on_c, 0, 68, 0
2, 29280, Note_on_c, 0, 60, 33
2, 29280, Note_on_c, 0, 72, 67
2, 29280, Note_on_c, 0, 68, 42
2, 29508, Note_on_c, 0, 68, 0
2, 29508, Note_on_c, 0, 72, 0
2, 29508, Note_on_c, 0, 60, 0
2, 29520, Note_on_c, 0, 73, 0
2, 29520, Note_on_c, 0, 60, 39
2, 29520, Note_on_c, 0, 72, 70
2, 29520, Note_on_c, 0, 68, 48
2, 29748, Note_on_c, 0, 68, 0
2, 29748, Note_on_c, 0, 72, 0
2, 29748, Note_on_c, 0, 60, 0
2, 29760, Note_on_c, 0, 70, 69
2, 29760, Note_on_c, 0, 60, 49
2, 29988, Note_on_c, 0, 60, 0
2, 29988, Note_on_c, 0, 70, 0
2, 30000, Note_on_c, 0, 68, 70
2, 30000, Note_on_c, 0, 60, 39
2, 30228, Note_on_c, 0, 60, 0
2, 30228, Note_on_c, 0, 68, 0
2, 30240, Note_on_c, 0, 76, 72
2, 30480, Note_on_c, 0, 64, 44
2, 30480, Note_on_c, 0, 73, 52
2, 30708, Note_on_c, 0, 73, 0
2, 30708, Note_on_c, 0, 64, 0
2, 30720, Note_on_c, 0, 64, 45
2, 30720, Note_on_c, 0, 73, 54
2, 30948, Note_on_c, 0, 73, 0
2, 30948, Note_on_c, 0, 64, 0
2, 30960, Note_on_c, 0, 64, 47
2, 30960, Note_on_c, 0, 73, 58
2, 31188, Note_on_c, 0, 73, 0
2, 31188, Note_on_c, 0, 64, 0
2, 31200, Note_on_c, 0, 64, 52
2, 31200, Note_on_c, 0, 73, 61
2, 31428, Note_on_c, 0, 73, 0
2, 31428, Note_on_c, 0, 64, 0
2, 31440, Note_on_c, 0, 64, 54
2, 31440, Note_on_c, 0, 72, 64
2, 31668, Note_on_c, 0, 72, 0
2, 31668, Note_on_c, 0, 64, 0
2, 31680, Note_on_c, 0, 76, 0
2, 31680, Note_on_c, 0, 76, 82
2, 31920, Note_on_c, 0, 71, 53
2, 31920, Note_on_c, 0, 64, 40
2, 32148, Note_on_c, 0, 64, 0
2, 32148, Note_on_c, 0, 71, 0
2, 32160, Note_on_c, 0, 71, 53
2, 32160, Note_on_c, 0, 75, 75
2, 32388, Note_on_c, 0, 75, 0
2, 32388, Note_on_c, 0, 71, 0
2, 32400, Note_on_c, 0, 76, 0
2, 32400, Note_on_c, 0, 75, 80
2, 32400, Note_on_c, 0, 71, 53
2, 32628, Note_on_c, 0, 71, 0
2, 32628, Note_on_c, 0, 75, 0
2, 32640, Note_on_c, 0, 73, 77
2, 32640, Note_on_c, 0, 71, 53
2, 32868, Note_on_c, 0, 71, 0
2, 32868, Note_on_c, 0, 73, 0
2, 32880, Note_on_c, 0, 71, 77
2, 33108, Note_on_c, 0, 71, 0
2, 33120, Note_on_c, 0, 80, 84
2, 33360, Note_on_c, 0, 74, 56
2, 33360, Note_on_c, 0, 68, 42
2, 33588, Note_on_c, 0, 68, 0
2, 33588, Note_on_c, 0, 74, 0
2, 33600, Note_on_c, 0, 80, 0
2, 33600, Note_on_c, 0, 74, 57
2, 33600, Note_on_c, 0, 80, 73
2, 33600, Note_on_c, 0, 68, 46
2, 33828, Note_on_c, 0, 68, 0
2, 33828, Note_on_c, 0, 80, 0
2, 33828, Note_on_c, 0, 74, 0
2, 33840, Note_on_c, 0, 80, 77
2, 34068, Note_on_c, 0, 80, 0
2, 34080, Note_on_c, 0, 75, 46
2, 34080, Note_on_c, 0, 67, 45
2, 34080, Note_on_c, 0, 79, 70
2, 34308, Note_on_c, 0, 79, 0
2, 34308, Note_on_c, 0, 67, 0
2, 34308, Note_on_c, 0, 75, 0
2, 34320, Note_on_c, 0, 67, 47
2, 34320, Note_on_c, 0, 75, 68
2, 34548, Note_on_c, 0, 75, 0
2, 34548, Note_on_c, 0, 67, 0
2, 34560, Note_on_c, 0, 78, 61
2, 34800, Note_on_c, 0, 72, 39
2, 34800, Note_on_c, 0, 66, 30
2, 35028, Note_on_c, 0, 66, 0
2, 35028, Note_on_c, 0, 72, 0
2, 35040, Note_on_c, 0, 78, 0
2, 35040, Note_on_c, 0, 72, 45
2, 35040, Note_on_c, 0, 66, 36
2, 35040, Note_on_c, 0, 78, 55
2, 35268, Note_on_c, 0, 78, 0
2, 35268, Note_on_c, 0, 66, 0
2, 35268, Note_on_c, 0, 72, 0
2, 35280, Note_on_c, 0, 78, 59
2, 35508, Note_on_c, 0, 78, 0
2, 35520, Note_on_c, 0, 73, 36
2, 35520, Note_on_c, 0, 65, 36
2, 35520, Note_on_c, 0, 77, 54
2, 35748, Note_on_c, 0, 77, 0
2, 35748, Note_on_c, 0, 65, 0
2, 35748, Note_on_c, 0, 73, 0
2, 35760, Note_on_c, 0, 65, 36
2, 35760, Note_on_c, 0, 73, 52
2, 35988, Note_on_c, 0, 73, 0
2, 35988, Note_on_c, 0, 65, 0
2, 36000, Note_on_c, 0, 76, 58
2, 36228, Note_on_c, 0, 76, 0
2, 36240, Note_on_c, 0, 63, 28
2, 36240, Note_on_c, 0, 75, 53
2, 36240, Note_on_c, 0, 70, 35
2, 36468, Note_on_c, 0, 70, 0
2, 36468, Note_on_c, 0, 75, 0
2, 36468, Note_on_c, 0, 63, 0
2, 36480, Note_on_c, 0, 64, 35
2, 36480, Note_on_c, 0, 76, 53
2, 36480, Note_on_c, 0, 70, 44
2, 36708, Note_on_c, 0, 70, 0
2, 36708, Note_on_c, 0, 76, 0
2, 36708, Note_on_c, 0, 64, 0
2, 36720, Note_on_c, 0, 80, 56
2, 36960, Note_on_c, 0, 68, 36
2, 36960, Note_on_c, 0, 76, 36
2, 37188, Note_on_c, 0, 76, 0
2, 37188, Note_on_c, 0, 68, 0
2, 37200, Note_on_c, 0, 80, 0
2, 37200, Note_on_c, 0, 78, 52
2, 37200, Note_on_c, 0, 71, 44
2, 37200, Note_on_c, 0, 66, 36
2, 37428, Note_on_c, 0, 66, 0
2, 37428, Note_on_c, 0, 71, 0
2, 37428, Note_on_c, 0, 78, 0
2, 37440, Note_on_c, 0, 76, 55
2, 37680, Note_on_c, 0, 64, 29
2, 37680, Note_on_c, 0, 71, 35
2, 37908, Note_on_c, 0, 71, 0
2, 37908, Note_on_c, 0, 64, 0
2, 37920, Note_on_c, 0, 64, 30
2, 37920, Note_on_c, 0, 71, 36
2, 38148, Note_on_c, 0, 71, 0
2, 38148, Note_on_c, 0, 64, 0
2, 38160, Note_on_c, 0, 64, 31
2, 38160, Note_on_c, 0, 71, 37
2, 38388, Note_on_c, 0, 71, 0
2, 38388, Note_on_c, 0, 64, 0
2, 38400, Note_on_c, 0, 64, 32
2, 38400, Note_on_c, 0, 71, 39
2, 38628, Note_on_c, 0, 71, 0
2, 38628, Note_on_c, 0, 64, 0
2, 38640, Note_on_c, 0, 64, 33
2, 38640, Note_on_c, 0, 71, 40
2, 38868, Note_on_c, 0, 71, 0
2, 38868, Note_on_c, 0, 64, 0
2, 39120, Note_on_c, 0, 76, 0
2, 39120, Note_on_c, 0, 76, 60
2, 39120, Note_on_c, 0, 72, 46
2, 39120, Note_on_c, 0, 64, 46
2, 39348, Note_on_c, 0, 64, 0
2, 39348, Note_on_c, 0, 72, 0
2, 39348, Note_on_c, 0, 76, 0
2, 39360, Note_on_c, 0, 63, 44
2, 39360, Note_on_c, 0, 75, 57
2, 39360, Note_on_c, 0, 72, 44
2, 39588, Note_on_c, 0, 72, 0
2, 39588, Note_on_c, 0, 75, 0
2, 39588, Note_on_c, 0, 63, 0
2, 39600, Note_on_c, 0, 66, 50
2, 39600, Note_on_c, 0, 78, 64
2, 39600, Note_on_c, 0, 72, 50
2, 39828, Note_on_c, 0, 72, 0
2, 39828, Note_on_c, 0, 78, 0
2, 39828, Note_on_c, 0, 66, 0
2, 39840, Note_on_c, 0, 64, 45
2, 39840, Note_on_c, 0, 72, 45
2, 39840, Note_on_c, 0, 76, 58
2, 40068, Note_on_c, 0, 76, 0
2, 40068, Note_on_c, 0, 72, 0
2, 40068, Note_on_c, 0, 64, 0
2, 40080, Note_on_c, 0, 64, 45
2, 40080, Note_on_c, 0, 72, 59
2, 40308, Note_on_c, 0, 72, 0
2, 40308, Note_on_c, 0, 64, 0
2, 40320, Note_on_c, 0, 76, 62
2, 40560, Note_on_c, 0, 71, 39
2, 40560, Note_on_c, 0, 64, 33
2, 40788, Note_on_c, 0, 64, 0
2, 40788, Note_on_c, 0, 71, 0
2, 40800, Note_on_c, 0, 71, 40
2, 40800, Note_on_c, 0, 64, 34
2, 41028, Note_on_c, 0, 64, 0
2, 41028, Note_on_c, 0, 71, 0
2, 41040, Note_on_c, 0, 71, 42
2, 41040, Note_on_c, 0, 64, 35
2, 41268, Note_on_c, 0, 64, 0
2, 41268, Note_on_c, 0, 71, 0
2, 41280, Note_on_c, 0, 71, 44
2, 41280, Note_on_c, 0, 64, 36
2, 41508, Note_on_c, 0, 64, 0
2, 41508, Note_on_c, 0, 71, 0
2, 41520, Note_on_c, 0, 71, 45
2, 41520, Note_on_c, 0, 64, 37
2, 41748, Note_on_c, 0, 64, 0
2, 41748, Note_on_c, 0, 71, 0
2, 42000, Note_on_c, 0, 76, 0
2, 42000, Note_on_c, 0, 64, 46
2, 42000, Note_on_c, 0, 72, 46
2, 42000, Note_on_c, 0, 76, 60
2, 42228, Note_on_c, 0, 76, 0
2, 42228, Note_on_c, 0, 72, 0
2, 42228, Note_on_c, 0, 64, 0
2, 42240, Note_on_c, 0, 72, 44
2, 42240, Note_on_c, 0, 75, 57
2, 42240, Note_on_c, 0, 63, 44
2, 42468, Note_on_c, 0, 63, 0
2, 42468, Note_on_c, 0, 75, 0
2, 42468, Note_on_c, 0, 72, 0
2, 42480, Note_on_c, 0, 72, 50
2, 42480, Note_on_c, 0, 66, 50
2, 42480, Note_on_c, 0, 78, 64
2, 42708, Note_on_c, 0, 78, 0
2, 42708, Note_on_c, 0, 66, 0
2, 42708, Note_on_c, 0, 72, 0
2, 42720, Note_on_c, 0, 72, 45
2, 42720, Note_on_c, 0, 76, 58
2, 42720, Note_on_c, 0, 64, 45
2, 42948, Note_on_c, 0, 64, 0
2, 42948, Note_on_c, 0, 76, 0
2, 42948, Note_on_c, 0, 72, 0
2, 42960, Note_on_c, 0, 72, 59
2, 42960, Note_on_c, 0, 64, 45
2, 43188, Note_on_c, 0, 64, 0
2, 43188, Note_on_c, 0, 72, 0
2, 43200, Note_on_c, 0, 76, 62
2, 43440, Note_on_c, 0, 64, 33
2, 43440, Note_on_c, 0, 71, 39
2, 43668, Note_on_c, 0, 71, 0
2, 43668, Note_on_c, 0, 64, 0
2, 43680, Note_on_c, 0, 64, 34
2, 43680, Note_on_c, 0, 71, 40
2, 43908, Note_on_c, 0, 71, 0
2, 43908, Note_on_c, 0, 64, 0
2, 43920, Note_on_c, 0, 64, 35
2, 43920, Note_on_c, 0, 71, 42
2, 44148, Note_on_c, 0, 71, 0
2, 44148, Note_on_c, 0, 64, 0
2, 44160, Note_on_c, 0, 64, 36
2, 44160, Note_on_c, 0, 71, 44
2, 44388, Note_on_c, 0, 71, 0
2, 44388, Note_on_c, 0, 64, 0
2, 44400, Note_on_c, 0, 64, 37
2, 44400, Note_on_c, 0, 71, 45
2, 44628, Note_on_c, 0, 71, 0
2, 44628, Note_on_c, 0, 64, 0
2, 44640, Note_on_c, 0, 64, 35
2, 44640, Note_on_c, 0, 71, 42
2, 44868, Note_on_c, 0, 71, 0
2, 44868, Note_on_c, 0, 64, 0
2, 44880, Note_on_c, 0, 64, 33
2, 44880, Note_on_c, 0, 71, 39
2, 45108, Note_on_c, 0, 71, 0
2, 45108, Note_on_c, 0, 64, 0
2, 45120, Note_on_c, 0, 64, 35
2, 45120, Note_on_c, 0, 71, 41
2, 45348, Note_on_c, 0, 71, 0
2, 45348, Note_on_c, 0, 64, 0
2, 45360, Note_on_c, 0, 76, 0
2, 45360, Note_on_c, 0, 71, 49
2, 45360, Note_on_c, 0, 75, 64
2, 45360, Note_on_c, 0, 63, 40
2, 45588, Note_on_c, 0, 63, 0
2, 45588, Note_on_c, 0, 71, 0
2, 45600, Note_on_c, 0, 71, 51
2, 45600, Note_on_c, 0, 63, 43
2, 45828, Note_on_c, 0, 63, 0
2, 45828, Note_on_c, 0, 71, 0
2, 45840, Note_on_c, 0, 75, 0
2, 45840, Note_on_c, 0, 63, 45
2, 45840, Note_on_c, 0, 75, 67
2, 45840, Note_on_c, 0, 71, 54
2, 46068, Note_on_c, 0, 71, 0
2, 46068, Note_on_c, 0, 75, 0
2, 46068, Note_on_c, 0, 63, 0
2, 46080, Note_on_c, 0, 71, 51
2, 46080, Note_on_c, 0, 75, 71
2, 46080, Note_on_c, 0, 63, 42
2, 46308, Note_on_c, 0, 63, 0
2, 46308, Note_on_c, 0, 71, 0
2, 46320, Note_on_c, 0, 71, 48
2, 46320, Note_on_c, 0, 63, 40
2, 46548, Note_on_c, 0, 63, 0
2, 46548, Note_on_c, 0, 71, 0
2, 46560, Note_on_c, 0, 71, 50
2, 46560, Note_on_c, 0, 63, 42
2, 46788, Note_on_c, 0, 63, 0
2, 46788, Note_on_c, 0, 71, 0
2, 46800, Note_on_c, 0, 71, 53
2, 46800, Note_on_c, 0, 63, 44
2, 47028, Note_on_c, 0, 63, 0
2, 47028, Note_on_c, 0, 71, 0
2, 47040, Note_on_c, 0, 71, 56
2, 47040, Note_on_c, 0, 63, 47
2, 47268, Note_on_c, 0, 63, 0
2, 47268, Note_on_c, 0, 71, 0
2, 47280, Note_on_c, 0, 71, 59
2, 47280, Note_on_c, 0, 63, 49
2, 47508, Note_on_c, 0, 63, 0
2, 47508, Note_on_c, 0, 71, 0
2, 47520, Note_on_c, 0, 75, 0
2, 47520, Note_on_c, 0, 62, 39
2, 47520, Note_on_c, 0, 74, 78
2, 47520, Note_on_c, 0, 71, 56
2, 47748, Note_on_c, 0, 71, 0
2, 47748, Note_on_c, 0, 62, 0
2, 47760, Note_on_c, 0, 71, 60
2, 47760, Note_on_c, 0, 68, 60
2, 47760, Note_on_c, 0, 62, 51
2, 47988, Note_on_c, 0, 62, 0
2, 47988, Note_on_c, 0, 68, 0
2, 47988, Note_on_c, 0, 71, 0
2, 48000, Note_on_c, 0, 62, 53
2, 48000, Note_on_c, 0, 68, 63
2, 48000, Note_on_c, 0, 71, 63
2, 48228, Note_on_c, 0, 71, 0
2, 48228, Note_on_c, 0, 68, 0
2, 48228, Note_on_c, 0, 62, 0
2, 48240, Note_on_c, 0, 68, 67
2, 48240, Note_on_c, 0, 71, 67
2, 48240, Note_on_c, 0, 62, 56
2, 48468, Note_on_c, 0, 62, 0
2, 48468, Note_on_c, 0, 71, 0
2, 48468, Note_on_c, 0, 68, 0
2, 48480, Note_on_c, 0, 62, 59
2, 48480, Note_on_c, 0, 68, 69
2, 48480, Note_on_c, 0, 71, 69
2, 48708, Note_on_c, 0, 71, 0
2, 48708, Note_on_c, 0, 68, 0
2, 48708, Note_on_c, 0, 62, 0
2, 48720, Note_on_c, 0, 71, 73
2, 48720, Note_on_c, 0, 68, 73
2, 48720, Note_on_c, 0, 62, 61
2, 48948, Note_on_c, 0, 62, 0
2, 48948, Note_on_c, 0, 68, 0
2, 48948, Note_on_c, 0, 71, 0
2, 48960, Note_on_c, 0, 74, 0
2, 48960, Note_on_c, 0, 67, 81
2, 48960, Note_on_c, 0, 61, 74
2, 49188, Note_on_c, 0, 61, 0
2, 49188, Note_on_c, 0, 67, 0
2, 49200, Note_on_c, 0, 67, 78
2, 49200, Note_on_c, 0, 61, 59
2, 49428, Note_on_c, 0, 61, 0
2, 49428, Note_on_c, 0, 67, 0
2, 49440, Note_on_c, 0, 67, 62
2, 49440, Note_on_c, 0, 72, 80
2, 49440, Note_on_c, 0, 61, 62
2, 49668, Note_on_c, 0, 61, 0
2, 49668, Note_on_c, 0, 72, 0
2, 49668, Note_on_c, 0, 67, 0
2, 49680, Note_on_c, 0, 61, 63
2, 49680, Note_on_c, 0, 67, 63
2, 49680, Note_on_c, 0, 73, 82
2, 49908, Note_on_c, 0, 73, 0
2, 49908, Note_on_c, 0, 67, 0
2, 49908, Note_on_c, 0, 61, 0
2, 49920, Note_on_c, 0, 61, 60
2, 49920, Note_on_c, 0, 65, 79
2, 50148, Note_on_c, 0, 65, 0
2, 50148, Note_on_c, 0, 61, 0
2, 50160, Note_on_c, 0, 61, 59
2, 50160, Note_on_c, 0, 67, 78
2, 50388, Note_on_c, 0, 67, 0
2, 50388, Note_on_c, 0, 61, 0
2, 50400, Note_on_c, 0, 70, 86
2, 50640, Note_on_c, 0, 66, 50
2, 50640, Note_on_c, 0, 60, 42
2, 50868, Note_on_c, 0, 60, 0
2, 50868, Note_on_c, 0, 66, 0
2, 50880, Note_on_c, 0, 66, 50
2, 50880, Note_on_c, 0, 60, 42
2, 51108, Note_on_c, 0, 60, 0
2, 51108, Note_on_c, 0, 66, 0
2, 51120, Note_on_c, 0, 70, 0
2, 51120, Note_on_c, 0, 66, 59
2, 51120, Note_on_c, 0, 60, 49
2, 51120, Note_on_c, 0, 68, 84
2, 51348, Note_on_c, 0, 60, 0
2, 51348, Note_on_c, 0, 66, 0
2, 51360, Note_on_c, 0, 60, 42
2, 51360, Note_on_c, 0, 66, 50
2, 51588, Note_on_c, 0, 66, 0
2, 51588, Note_on_c, 0, 60, 0
2, 51600, Note_on_c, 0, 60, 42
2, 51600, Note_on_c, 0, 66, 50
2, 51828, Note_on_c, 0, 66, 0
2, 51828, Note_on_c, 0, 60, 0
2, 52080, Note_on_c, 0, 68, 0
2, 52080, Note_on_c, 0, 68, 63
2, 52080, Note_on_c, 0, 73, 82
2, 52308, Note_on_c, 0, 73, 0
2, 52308, Note_on_c, 0, 68, 0
2, 52320, Note_on_c, 0, 73, 67
2, 52320, Note_on_c, 0, 79, 86
2, 52320, Note_on_c, 0, 68, 57
2, 52548, Note_on_c, 0, 68, 0
2, 52548, Note_on_c, 0, 79, 0
2, 52548, Note_on_c, 0, 73, 0
2, 52560, Note_on_c, 0, 68, 59
2, 52560, Note_on_c, 0, 73, 71
2, 52560, Note_on_c, 0, 82, 91
2, 52788, Note_on_c, 0, 82, 0
2, 52788, Note_on_c, 0, 73, 0
2, 52788, Note_on_c, 0, 68, 0
2, 52800, Note_on_c, 0, 80, 86
2, 52800, Note_on_c, 0, 73, 65
2, 52800, Note_on_c, 0, 68, 55
2, 53028, Note_on_c, 0, 68, 0
2, 53028, Note_on_c, 0, 73, 0
2, 53028, Note_on_c, 0, 80, 0
2, 53040, Note_on_c, 0, 68, 55
2, 53040, Note_on_c, 0, 73, 65
2, 53040, Note_on_c, 0, 77, 86
2, 53268, Note_on_c, 0, 77, 0
2, 53268, Note_on_c, 0, 73, 0
2, 53268, Note_on_c, 0, 68, 0
2, 53280, Note_on_c, 0, 75, 101
2, 53520, Note_on_c, 0, 70, 74
2, 53520, Note_on_c, 0, 63, 62
2, 53748, Note_on_c, 0, 63, 0
2, 53748, Note_on_c, 0, 70, 0
2, 53760, Note_on_c, 0, 70, 74
2, 53760, Note_on_c, 0, 63, 62
2, 53988, Note_on_c, 0, 63, 0
2, 53988, Note_on_c, 0, 70, 0
2, 54000, Note_on_c, 0, 75, 0
2, 54000, Note_on_c, 0, 77, 96
2, 54240, Note_on_c, 0, 65, 62
2, 54240, Note_on_c, 0, 73, 74
2, 54468, Note_on_c, 0, 73, 0
2, 54468, Note_on_c, 0, 65, 0
2, 54480, Note_on_c, 0, 65, 59
2, 54480, Note_on_c, 0, 73, 71
2, 54708, Note_on_c, 0, 73, 0
2, 54708, Note_on_c, 0, 65, 0
2, 54960, Note_on_c, 0, 77, 0
2, 54960, Note_on_c, 0, 70, 82
2, 55188, Note_on_c, 0, 70, 0
2, 55200, Note_on_c, 0, 70, 67
2, 55200, Note_on_c, 0, 63, 58
2, 55200, Note_on_c, 0, 75, 86
2, 55428, Note_on_c, 0, 75, 0
2, 55428, Note_on_c, 0, 63, 0
2, 55428, Note_on_c, 0, 70, 0
2, 55440, Note_on_c, 0, 70, 69
2, 55440, Note_on_c, 0, 79, 89
2, 55668, Note_on_c, 0, 79, 0
2, 55668, Note_on_c, 0, 70, 0
2, 55680, Note_on_c, 0, 70, 65
2, 55680, Note_on_c, 0, 77, 86
2, 55908, Note_on_c, 0, 77, 0
2, 55908, Note_on_c, 0, 70, 0
2, 55920, Note_on_c, 0, 73, 86
2, 55920, Note_on_c, 0, 63, 38
2, 55920, Note_on_c, 0, 70, 65
2, 56148, Note_on_c, 0, 70, 0
2, 56148, Note_on_c, 0, 63, 0
2, 56148, Note_on_c, 0, 73, 0
2, 56160, Note_on_c, 0, 72, 96
2, 56400, Note_on_c, 0, 63, 56
2, 56400, Note_on_c, 0, 69, 66
2, 56628, Note_on_c, 0, 69, 0
2, 56628, Note_on_c, 0, 63, 0
2, 56640, Note_on_c, 0, 63, 56
2, 56640, Note_on_c, 0, 69, 66
2, 56868, Note_on_c, 0, 69, 0
2, 56868, Note_on_c, 0, 63, 0
2, 56880, Note_on_c, 0, 72, 0
2, 56880, Note_on_c, 0, 73, 95
2, 57120, Note_on_c, 0, 68, 64
2, 57120, Note_on_c, 0, 61, 54
2, 57348, Note_on_c, 0, 61, 0
2, 57348, Note_on_c, 0, 68, 0
2, 57360, Note_on_c, 0, 68, 61
2, 57360, Note_on_c, 0, 61, 50
2, 57588, Note_on_c, 0, 61, 0
2, 57588, Note_on_c, 0, 68, 0
2, 57840, Note_on_c, 0, 73, 0
2, 57840, Note_on_c, 0, 68, 66
2, 57840, Note_on_c, 0, 61, 54
2, 58068, Note_on_c, 0, 61, 0
2, 58068, Note_on_c, 0, 68, 0
2, 58080, Note_on_c, 0, 61, 45
2, 58080, Note_on_c, 0, 67, 45
2, 58080, Note_on_c, 0, 70, 69
2, 58308, Note_on_c, 0, 70, 0
2, 58308, Note_on_c, 0, 67, 0
2, 58308, Note_on_c, 0, 61, 0
2, 58320, Note_on_c, 0, 61, 54
2, 58320, Note_on_c, 0, 73, 69
2, 58320, Note_on_c, 0, 68, 54
2, 58548, Note_on_c, 0, 68, 0
2, 58548, Note_on_c, 0, 73, 0
2, 58548, Note_on_c, 0, 61, 0
2, 58560, Note_on_c, 0, 68, 52
2, 58560, Note_on_c, 0, 60, 43
2, 58560, Note_on_c, 0, 72, 69
2, 58788, Note_on_c, 0, 72, 0
2, 58788, Note_on_c, 0, 60, 0
2, 58788, Note_on_c, 0, 68, 0
2, 58800, Note_on_c, 0, 65, 46
2, 58800, Note_on_c, 0, 68, 61
2, 58800, Note_on_c, 0, 60, 37
2, 59028, Note_on_c, 0, 60, 0
2, 59028, Note_on_c, 0, 68, 0
2, 59028, Note_on_c, 0, 65, 0
2, 59040, Note_on_c, 0, 70, 70
2, 59280, Note_on_c, 0, 58, 37
2, 59280, Note_on_c, 0, 67, 43
2, 59508, Note_on_c, 0, 67, 0
2, 59508, Note_on_c, 0, 58, 0
2, 59520, Note_on_c, 0, 58, 36
2, 59520, Note_on_c, 0, 67, 42
2, 59748, Note_on_c, 0, 67, 0
2, 59748, Note_on_c, 0, 58, 0
2, 59760, Note_on_c, 0, 58, 37
2, 59760, Note_on_c, 0, 67, 43
2, 59988, Note_on_c, 0, 67, 0
2, 59988, Note_on_c, 0, 58, 0
2, 60000, Note_on_c, 0, 58, 33
2, 60000, Note_on_c, 0, 67, 39
2, 60228, Note_on_c, 0, 67, 0
2, 60228, Note_on_c, 0, 58, 0
2, 60240, Note_on_c, 0, 58, 31
2, 60240, Note_on_c, 0, 67, 37
2, 60468, Note_on_c, 0, 67, 0
2, 60468, Note_on_c, 0, 58, 0
2, 60480, Note_on_c, 0, 70, 0
2, 60480, Note_on_c, 0, 71, 52
2, 60720, Note_on_c, 0, 66, 34
2, 60720, Note_on_c, 0, 59, 26
2, 60948, Note_on_c, 0, 59, 0
2, 60948, Note_on_c, 0, 66, 0
2, 60960, Note_on_c, 0, 66, 34
2, 60960, Note_on_c, 0, 59, 26
2, 61080, Note_on_c, 0, 71, 0
2, 61080, Note_on_c, 0, 71, 34
2, 61140, Note_on_c, 0, 71, 0
2, 61140, Note_on_c, 0, 73, 34
2, 61188, Note_on_c, 0, 59, 0
2, 61188, Note_on_c, 0, 66, 0
2, 61200, Note_on_c, 0, 73, 0
2, 61200, Note_on_c, 0, 66, 34
2, 61200, Note_on_c, 0, 59, 26
2, 61200, Note_on_c, 0, 71, 51
2, 61428, Note_on_c, 0, 71, 0
2, 61428, Note_on_c, 0, 59, 0
2, 61428, Note_on_c, 0, 66, 0
2, 61440, Note_on_c, 0, 70, 49
2, 61440, Note_on_c, 0, 58, 26
2, 61440, Note_on_c, 0, 66, 34
2, 61668, Note_on_c, 0, 66, 0
2, 61668, Note_on_c, 0, 58, 0
2, 61668, Note_on_c, 0, 70, 0
2, 61680, Note_on_c, 0, 66, 28
2, 61680, Note_on_c, 0, 59, 22
2, 61680, Note_on_c, 0, 71, 49
2, 61908, Note_on_c, 0, 71, 0
2, 61908, Note_on_c, 0, 59, 0
2, 61908, Note_on_c, 0, 66, 0
2, 61920, Note_on_c, 0, 73, 52
2, 62160, Note_on_c, 0, 68, 33
2, 62160, Note_on_c, 0, 61, 28
2, 62388, Note_on_c, 0, 61, 0
2, 62388, Note_on_c, 0, 68, 0
2, 62400, Note_on_c, 0, 68, 34
2, 62400, Note_on_c, 0, 61, 28
2, 62628, Note_on_c, 0, 61, 0
2, 62628, Note_on_c, 0, 68, 0
2, 62640, Note_on_c, 0, 73, 0
2, 62640, Note_on_c, 0, 59, 27
2, 62640, Note_on_c, 0, 71, 51
2, 62640, Note_on_c, 0, 68, 32
2, 62868, Note_on_c, 0, 68, 0
2, 62868, Note_on_c, 0, 59, 0
2, 62880, Note_on_c, 0, 68, 37
2, 63108, Note_on_c, 0, 68, 0
2, 63120, Note_on_c, 0, 71, 0
2, 63120, Note_on_c, 0, 68, 38
2, 63348, Note_on_c, 0, 68, 0
2, 63360, Note_on_c, 0, 71, 56
2, 63588, Note_on_c, 0, 71, 0
2, 63600, Note_on_c, 0, 71, 47
2, 63600, Note_on_c, 0, 66, 36
2, 63828, Note_on_c, 0, 66, 0
2, 63828, Note_on_c, 0, 71, 0
2, 63840, Note_on_c, 0, 73, 60
2, 63840, Note_on_c, 0, 71, 47
2, 63840, Note_on_c, 0, 66, 47
2, 64068, Note_on_c, 0, 66, 0
2, 64068, Note_on_c, 0, 71, 0
2, 64068, Note_on_c, 0, 73, 0
2, 64080, Note_on_c, 0, 66, 36
2, 64080, Note_on_c, 0, 75, 63
2, 64080, Note_on_c, 0, 71, 47
2, 64308, Note_on_c, 0, 71, 0
2, 64308, Note_on_c, 0, 75, 0
2, 64308, Note_on_c, 0, 66, 0
2, 64320, Note_on_c, 0, 66, 47
2, 64320, Note_on_c, 0, 76, 67
2, 64320, Note_on_c, 0, 71, 47
2, 64548, Note_on_c, 0, 71, 0
2, 64548, Note_on_c, 0, 76, 0
2, 64548, Note_on_c, 0, 66, 0
2, 64560, Note_on_c, 0, 71, 47
2, 64560, Note_on_c, 0, 78, 67
2, 64560, Note_on_c, 0, 66, 38
2, 64788, Note_on_c, 0, 66, 0
2, 64788, Note_on_c, 0, 78, 0
2, 64788, Note_on_c, 0, 71, 0
2, 64800, Note_on_c, 0, 80, 72
2, 65040, Note_on_c, 0, 68, 40
2, 65040, Note_on_c, 0, 76, 48
2, 65268, Note_on_c, 0, 76, 0
2, 65268, Note_on_c, 0, 68, 0
2, 65280, Note_on_c, 0, 68, 41
2, 65280, Note_on_c, 0, 76, 49
2, 65508, Note_on_c, 0, 76, 0
2, 65508, Note_on_c, 0, 68, 0
2, 65520, Note_on_c, 0, 68, 42
2, 65520, Note_on_c, 0, 76, 51
2, 65748, Note_on_c, 0, 76, 0
2, 65748, Note_on_c, 0, 68, 0
2, 65760, Note_on_c, 0, 76, 53
2, 65760, Note_on_c, 0, 71, 45
2, 65760, Note_on_c, 0, 68, 45
2, 65988, Note_on_c, 0, 68, 0
2, 65988, Note_on_c, 0, 71, 0
2, 65988, Note_on_c, 0, 76, 0
2, 66000, Note_on_c, 0, 68, 46
2, 66000, Note_on_c, 0, 71, 45
2, 66000, Note_on_c, 0, 76, 55
2, 66228, Note_on_c, 0, 76, 0
2, 66228, Note_on_c, 0, 71, 0
2, 66228, Note_on_c, 0, 68, 0
2, 66480, Note_on_c, 0, 80, 0
2, 66480, Note_on_c, 0, 61, 31
2, 66708, Note_on_c, 0, 61, 0
2, 66720, Note_on_c, 0, 61, 31
2, 66720, Note_on_c, 0, 68, 31
2, 66720, Note_on_c, 0, 73, 40
2, 66839, Note_on_c, 0, 73, 0
2, 66840, Note_on_c, 0, 73, 40
2, 66900, Note_on_c, 0, 73, 0
2, 66900, Note_on_c, 0, 75, 40
2, 66948, Note_on_c, 0, 68, 0
2, 66948, Note_on_c, 0, 61, 0
2, 66960, Note_on_c, 0, 75, 0
2, 66960, Note_on_c, 0, 73, 61
2, 66960, Note_on_c, 0, 61, 31
2, 66960, Note_on_c, 0, 68, 40
2, 67188, Note_on_c, 0, 68, 0
2, 67188, Note_on_c, 0, 61, 0
2, 67188, Note_on_c, 0, 73, 0
2, 67200, Note_on_c, 0, 68, 38
2, 67200, Note_on_c, 0, 60, 31
2, 67200, Note_on_c, 0, 72, 56
2, 67428, Note_on_c, 0, 72, 0
2, 67428, Note_on_c, 0, 60, 0
2, 67428, Note_on_c, 0, 68, 0
2, 67440, Note_on_c, 0, 61, 27
2, 67440, Note_on_c, 0, 73, 58
2, 67440, Note_on_c, 0, 68, 33
2, 67668, Note_on_c, 0, 68, 0
2, 67668, Note_on_c, 0, 73, 0
2, 67668, Note_on_c, 0, 61, 0
2, 67680, Note_on_c, 0, 75, 62
2, 67920, Note_on_c, 0, 61, 33
2, 67920, Note_on_c, 0, 70, 39
2, 68148, Note_on_c, 0, 70, 0
2, 68148, Note_on_c, 0, 61, 0
2, 68160, Note_on_c, 0, 61, 34
2, 68160, Note_on_c, 0, 70, 40
2, 68388, Note_on_c, 0, 70, 0
2, 68388, Note_on_c, 0, 61, 0
2, 68400, Note_on_c, 0, 75, 0
2, 68400, Note_on_c, 0, 73, 60
2, 68400, Note_on_c, 0, 70, 38
2, 68400, Note_on_c, 0, 61, 32
2, 68628, Note_on_c, 0, 61, 0
2, 68628, Note_on_c, 0, 70, 0
2, 68640, Note_on_c, 0, 70, 44
2, 68640, Note_on_c, 0, 61, 32
2, 68868, Note_on_c, 0, 61, 0
2, 68868, Note_on_c, 0, 70, 0
2, 68880, Note_on_c, 0, 70, 45
2, 68880, Note_on_c, 0, 61, 32
2, 69108, Note_on_c, 0, 61, 0
2, 69108, Note_on_c, 0, 70, 0
2, 69120, Note_on_c, 0, 73, 0
2, 69120, Note_on_c, 0, 73, 56
2, 69348, Note_on_c, 0, 73, 0
2, 69360, Note_on_c, 0, 65, 36
2, 69360, Note_on_c, 0, 73, 47
2, 69360, Note_on_c, 0, 71, 36
2, 69588, Note_on_c, 0, 71, 0
2, 69588, Note_on_c, 0, 73, 0
2, 69588, Note_on_c, 0, 65, 0
2, 69600, Note_on_c, 0, 75, 60
2, 69600, Note_on_c, 0, 71, 47
2, 69600, Note_on_c, 0, 65, 47
2, 69828, Note_on_c, 0, 65, 0
2, 69828, Note_on_c, 0, 71, 0
2, 69828, Note_on_c, 0, 75, 0
2, 69840, Note_on_c, 0, 77, 63
2, 69840, Note_on_c, 0, 65, 36
2, 69840, Note_on_c, 0, 71, 47
2, 70068, Note_on_c, 0, 71, 0
2, 70068, Note_on_c, 0, 65, 0
2, 70068, Note_on_c, 0, 77, 0
2, 70080, Note_on_c, 0, 78, 67
2, 70080, Note_on_c, 0, 71, 47
2, 70080, Note_on_c, 0, 73, 47
2, 70080, Note_on_c, 0, 66, 47
2, 70308, Note_on_c, 0, 66, 0
2, 70308, Note_on_c, 0, 78, 0
2, 70308, Note_on_c, 0, 71, 0
2, 70308, Note_on_c, 0, 73, 0
2, 70320, Note_on_c, 0, 80, 67
2, 70320, Note_on_c, 0, 71, 47
2, 70320, Note_on_c, 0, 73, 47
2, 70320, Note_on_c, 0, 68, 38
2, 70548, Note_on_c, 0, 68, 0
2, 70548, Note_on_c, 0, 80, 0
2, 70548, Note_on_c, 0, 71, 0
2, 70548, Note_on_c, 0, 73, 0
2, 70560, Note_on_c, 0, 82, 72
2, 70800, Note_on_c, 0, 70, 50
2, 70800, Note_on_c, 0, 78, 59
2, 71028, Note_on_c, 0, 78, 0
2, 71028, Note_on_c, 0, 70, 0
2, 71040, Note_on_c, 0, 70, 46
2, 71040, Note_on_c, 0, 78, 55
2, 71268, Note_on_c, 0, 78, 0
2, 71268, Note_on_c, 0, 70, 0
2, 71280, Note_on_c, 0, 78, 62
2, 71280, Note_on_c, 0, 73, 52
2, 71280, Note_on_c, 0, 70, 52
2, 71508, Note_on_c, 0, 70, 0
2, 71508, Note_on_c, 0, 73, 0
2, 71508, Note_on_c, 0, 78, 0
2, 71520, Note_on_c, 0, 70, 56
2, 71520, Note_on_c, 0, 73, 56
2, 71520, Note_on_c, 0, 78, 66
2, 71748, Note_on_c, 0, 78, 0
2, 71748, Note_on_c, 0, 73, 0
2, 71748, Note_on_c, 0, 70, 0
2, 71760, Note_on_c, 0, 73, 59
2, 71760, Note_on_c, 0, 78, 70
2, 71760, Note_on_c, 0, 70, 59
2, 71988, Note_on_c, 0, 70, 0
2, 71988, Note_on_c, 0, 78, 0
2, 71988, Note_on_c, 0, 73, 0
2, 72000, Note_on_c, 0, 82, 0
2, 72000, Note_on_c, 0, 83, 78
2, 72240, Note_on_c, 0, 69, 48
2, 72240, Note_on_c, 0, 78, 58
2, 72240, Note_on_c, 0, 71, 48
2, 72468, Note_on_c, 0, 71, 0
2, 72468, Note_on_c, 0, 78, 0
2, 72468, Note_on_c, 0, 69, 0
2, 72480, Note_on_c, 0, 71, 48
2, 72480, Note_on_c, 0, 69, 48
2, 72480, Note_on_c, 0, 78, 58
2, 72708, Note_on_c, 0, 78, 0
2, 72708, Note_on_c, 0, 69, 0
2, 72708, Note_on_c, 0, 71, 0
2, 72720, Note_on_c, 0, 83, 0
2, 72720, Note_on_c, 0, 80, 74
2, 72960, Note_on_c, 0, 76, 57
2, 72960, Note_on_c, 0, 68, 48
2, 73188, Note_on_c, 0, 68, 0
2, 73188, Note_on_c, 0, 76, 0
2, 73200, Note_on_c, 0, 76, 57
2, 73200, Note_on_c, 0, 68, 48
2, 73428, Note_on_c, 0, 68, 0
2, 73428, Note_on_c, 0, 76, 0
2, 73440, Note_on_c, 0, 80, 0
2, 73440, Note_on_c, 0, 82, 74
2, 73680, Note_on_c, 0, 68, 44
2, 73680, Note_on_c, 0, 77, 55
2, 73908, Note_on_c, 0, 77, 0
2, 73908, Note_on_c, 0, 68, 0
2, 73920, Note_on_c, 0, 68, 44
2, 73920, Note_on_c, 0, 77, 55
2, 74148, Note_on_c, 0, 77, 0
2, 74148, Note_on_c, 0, 68, 0
2, 74160, Note_on_c, 0, 82, 0
2, 74160, Note_on_c, 0, 79, 70
2, 74400, Note_on_c, 0, 75, 52
2, 74400, Note_on_c, 0, 67, 43
2, 74628, Note_on_c, 0, 67, 0
2, 74628, Note_on_c, 0, 75, 0
2, 74640, Note_on_c, 0, 75, 52
2, 74640, Note_on_c, 0, 67, 43
2, 74868, Note_on_c, 0, 67, 0
2, 74868, Note_on_c, 0, 75, 0
2, 74880, Note_on_c, 0, 79, 0
2, 74880, Note_on_c, 0, 81, 66
2, 75120, Note_on_c, 0, 67, 42
2, 75120, Note_on_c, 0, 76, 51
2, 75348, Note_on_c, 0, 76, 0
2, 75348, Note_on_c, 0, 67, 0
2, 75360, Note_on_c, 0, 67, 42
2, 75360, Note_on_c, 0, 76, 51
2, 75588, Note_on_c, 0, 76, 0
2, 75588, Note_on_c, 0, 67, 0
2, 75600, Note_on_c, 0, 81, 0
2, 75600, Note_on_c, 0, 78, 63
2, 75840, Note_on_c, 0, 74, 48
2, 75840, Note_on_c, 0, 66, 40
2, 76068, Note_on_c, 0, 66, 0
2, 76068, Note_on_c, 0, 74, 0
2, 76080, Note_on_c, 0, 73, 48
2, 76080, Note_on_c, 0, 66, 40
2, 76308, Note_on_c, 0, 66, 0
2, 76308, Note_on_c, 0, 73, 0
2, 76320, Note_on_c, 0, 72, 56
2, 76320, Note_on_c, 0, 66, 47
2, 76548, Note_on_c, 0, 66, 0
2, 76548, Note_on_c, 0, 72, 0
2, 76560, Note_on_c, 0, 69, 49
2, 76560, Note_on_c, 0, 66, 49
2, 76560, Note_on_c, 0, 72, 58
2, 76788, Note_on_c, 0, 72, 0
2, 76788, Note_on_c, 0, 66, 0
2, 76788, Note_on_c, 0, 69, 0
2, 76800, Note_on_c, 0, 66, 51
2, 76800, Note_on_c, 0, 73, 60
2, 76800, Note_on_c, 0, 69, 51
2, 77028, Note_on_c, 0, 69, 0
2, 77028, Note_on_c, 0, 73, 0
2, 77028, Note_on_c, 0, 66, 0
2, 77040, Note_on_c, 0, 69, 52
2, 77040, Note_on_c, 0, 66, 52
2, 77040, Note_on_c, 0, 74, 62
2, 77268, Note_on_c, 0, 74, 0
2, 77268, Note_on_c, 0, 66, 0
2, 77268, Note_on_c, 0, 69, 0
2, 77280, Note_on_c, 0, 74, 64
2, 77280, Note_on_c, 0, 66, 54
2, 77280, Note_on_c, 0, 69, 54
2, 77508, Note_on_c, 0, 69, 0
2, 77508, Note_on_c, 0, 66, 0
2, 77508, Note_on_c, 0, 74, 0
2, 77520, Note_on_c, 0, 69, 56
2, 77520, Note_on_c, 0, 66, 56
2, 77520, Note_on_c, 0, 75, 66
2, 77748, Note_on_c, 0, 75, 0
2, 77748, Note_on_c, 0, 66, 0
2, 77748, Note_on_c, 0, 69, 0
2, 77760, Note_on_c, 0, 78, 0
2, 77760, Note_on_c, 0, 79, 77
2, 78000, Note_on_c, 0, 67, 39
2, 78000, Note_on_c, 0, 75, 51
2, 78228, Note_on_c, 0, 75, 0
2, 78228, Note_on_c, 0, 67, 0
2, 78240, Note_on_c, 0, 67, 45
2, 78240, Note_on_c, 0, 75, 55
2, 78468, Note_on_c, 0, 75, 0
2, 78468, Note_on_c, 0, 67, 0
2, 78480, Note_on_c, 0, 67, 48
2, 78480, Note_on_c, 0, 73, 48
2, 78708, Note_on_c, 0, 73, 0
2, 78708, Note_on_c, 0, 67, 0
2, 78720, Note_on_c, 0, 79, 0
2, 78720, Note_on_c, 0, 73, 56
2, 78720, Note_on_c, 0, 80, 66
2, 78720, Note_on_c, 0, 67, 48
2, 78948, Note_on_c, 0, 67, 0
2, 78948, Note_on_c, 0, 80, 0
2, 78948, Note_on_c, 0, 73, 0
2, 78960, Note_on_c, 0, 73, 49
2, 78960, Note_on_c, 0, 67, 49
2, 78960, Note_on_c, 0, 76, 64
2, 79188, Note_on_c, 0, 76, 0
2, 79188, Note_on_c, 0, 67, 0
2, 79188, Note_on_c, 0, 73, 0
2, 79200, Note_on_c, 0, 79, 69
2, 79320, Note_on_c, 0, 79, 0
2, 79320, Note_on_c, 0, 77, 54
2, 79380, Note_on_c, 0, 77, 0
2, 79380, Note_on_c, 0, 79, 49
2, 79440, Note_on_c, 0, 79, 0
2, 79440, Note_on_c, 0, 68, 53
2, 79440, Note_on_c, 0, 77, 62
2, 79440, Note_on_c, 0, 74, 51
2, 79668, Note_on_c, 0, 74, 0
2, 79668, Note_on_c, 0, 77, 0
2, 79668, Note_on_c, 0, 68, 0
2, 79680, Note_on_c, 0, 68, 35
2, 79680, Note_on_c, 0, 76, 64
2, 79680, Note_on_c, 0, 74, 44
2, 79908, Note_on_c, 0, 74, 0
2, 79908, Note_on_c, 0, 76, 0
2, 79908, Note_on_c, 0, 68, 0
2, 79920, Note_on_c, 0, 74, 55
2, 79920, Note_on_c, 0, 68, 57
2, 79920, Note_on_c, 0, 77, 64
2, 80148, Note_on_c, 0, 77, 0
2, 80148, Note_on_c, 0, 68, 0
2, 80148, Note_on_c, 0, 74, 0
2, 80160, Note_on_c, 0, 68, 51
2, 80160, Note_on_c, 0, 79, 60
2, 80160, Note_on_c, 0, 74, 51
2, 80388, Note_on_c, 0, 74, 0
2, 80388, Note_on_c, 0, 79, 0
2, 80388, Note_on_c, 0, 68, 0
2, 80400, Note_on_c, 0, 74, 63
2, 80400, Note_on_c, 0, 68, 51
2, 80628, Note_on_c, 0, 68, 0
2, 80628, Note_on_c, 0, 74, 0
2, 80640, Note_on_c, 0, 75, 62
2, 80880, Note_on_c, 0, 63, 35
2, 80880, Note_on_c, 0, 70, 41
2, 81108, Note_on_c, 0, 70, 0
2, 81108, Note_on_c, 0, 63, 0
2, 81120, Note_on_c, 0, 63, 36
2, 81120, Note_on_c, 0, 70, 42
2, 81348, Note_on_c, 0, 70, 0
2, 81348, Note_on_c, 0, 63, 0
2, 81360, Note_on_c, 0, 63, 37
2, 81360, Note_on_c, 0, 70, 44
2, 81588, Note_on_c, 0, 70, 0
2, 81588, Note_on_c, 0, 63, 0
2, 81600, Note_on_c, 0, 63, 38
2, 81600, Note_on_c, 0, 70, 46
2, 81828, Note_on_c, 0, 70, 0
2, 81828, Note_on_c, 0, 63, 0
2, 81840, Note_on_c, 0, 63, 39
2, 81840, Note_on_c, 0, 70, 47
2, 82068, Note_on_c, 0, 70, 0
2, 82068, Note_on_c, 0, 63, 0
2, 82080, Note_on_c, 0, 63, 45
2, 82080, Note_on_c, 0, 71, 48
2, 82308, Note_on_c, 0, 71, 0
2, 82308, Note_on_c, 0, 63, 0
2, 82320, Note_on_c, 0, 75, 0
2, 82320, Note_on_c, 0, 75, 60
2, 82320, Note_on_c, 0, 71, 46
2, 82320, Note_on_c, 0, 63, 46
2, 82548, Note_on_c, 0, 63, 0
2, 82548, Note_on_c, 0, 71, 0
2, 82548, Note_on_c, 0, 75, 0
2, 82560, Note_on_c, 0, 62, 44
2, 82560, Note_on_c, 0, 74, 57
2, 82560, Note_on_c, 0, 71, 44
2, 82788, Note_on_c, 0, 71, 0
2, 82788, Note_on_c, 0, 74, 0
2, 82788, Note_on_c, 0, 62, 0
2, 82800, Note_on_c, 0, 65, 48
2, 82800, Note_on_c, 0, 77, 62
2, 82800, Note_on_c, 0, 71, 48
2, 83028, Note_on_c, 0, 71, 0
2, 83028, Note_on_c, 0, 77, 0
2, 83028, Note_on_c, 0, 65, 0
2, 83040, Note_on_c, 0, 63, 45
2, 83040, Note_on_c, 0, 71, 45
2, 83040, Note_on_c, 0, 75, 58
2, 83268, Note_on_c, 0, 75, 0
2, 83268, Note_on_c, 0, 71, 0
2, 83268, Note_on_c, 0, 63, 0
2, 83280, Note_on_c, 0, 63, 45
2, 83280, Note_on_c, 0, 71, 59
2, 83508, Note_on_c, 0, 71, 0
2, 83508, Note_on_c, 0, 63, 0
2, 83520, Note_on_c, 0, 75, 62
2, 83760, Note_on_c, 0, 70, 41
2, 83760, Note_on_c, 0, 63, 35
2, 83988, Note_on_c, 0, 63, 0
2, 83988, Note_on_c, 0, 70, 0
2, 84000, Note_on_c, 0, 70, 42
2, 84000, Note_on_c, 0, 63, 36
2, 84228, Note_on_c, 0, 63, 0
2, 84228, Note_on_c, 0, 70, 0
2, 84240, Note_on_c, 0, 70, 44
2, 84240, Note_on_c, 0, 63, 37
2, 84468, Note_on_c, 0, 63, 0
2, 84468, Note_on_c, 0, 70, 0
2, 84480, Note_on_c, 0, 70, 46
2, 84480, Note_on_c, 0, 63, 38
2, 84708, Note_on_c, 0, 63, 0
2, 84708, Note_on_c, 0, 70, 0
2, 84720, Note_on_c, 0, 70, 47
2, 84720, Note_on_c, 0, 63, 39
2, 84948, Note_on_c, 0, 63, 0
2, 84948, Note_on_c, 0, 70, 0
2, 84960, Note_on_c, 0, 71, 48
2, 84960, Note_on_c, 0, 63, 45
2, 85188, Note_on_c, 0, 63, 0
2, 85188, Note_on_c, 0, 71, 0
2, 85200, Note_on_c, 0, 75, 0
2, 85200, Note_on_c, 0, 63, 39
2, 85200, Note_on_c, 0, 71, 39
2, 85200, Note_on_c, 0, 75, 51
2, 85428, Note_on_c, 0, 75, 0
2, 85428, Note_on_c, 0, 71, 0
2, 85428, Note_on_c, 0, 63, 0
2, 85440, Note_on_c, 0, 74, 48
2, 85440, Note_on_c, 0, 71, 37
2, 85440, Note_on_c, 0, 62, 37
2, 85668, Note_on_c, 0, 62, 0
2, 85668, Note_on_c, 0, 71, 0
2, 85668, Note_on_c, 0, 74, 0
2, 85680, Note_on_c, 0, 71, 40
2, 85680, Note_on_c, 0, 65, 40
2, 85680, Note_on_c, 0, 77, 52
2, 85908, Note_on_c, 0, 77, 0
2, 85908, Note_on_c, 0, 65, 0
2, 85908, Note_on_c, 0, 71, 0
2, 85920, Note_on_c, 0, 75, 49
2, 85920, Note_on_c, 0, 71, 38
2, 85920, Note_on_c, 0, 63, 38
2, 86148, Note_on_c, 0, 63, 0
2, 86148, Note_on_c, 0, 71, 0
2, 86148, Note_on_c, 0, 75, 0
2, 86160, Note_on_c, 0, 71, 50
2, 86160, Note_on_c, 0, 63, 38
2, 86388, Note_on_c, 0, 63, 0
2, 86388, Note_on_c, 0, 71, 0
2, 86400, Note_on_c, 0, 75, 47
2, 86640, Note_on_c, 0, 63, 23
2, 86640, Note_on_c, 0, 70, 28
2, 86868, Note_on_c, 0, 70, 0
2, 86868, Note_on_c, 0, 63, 0
2, 86880, Note_on_c, 0, 63, 24
2, 86880, Note_on_c, 0, 70, 29
2, 87108, Note_on_c, 0, 70, 0
2, 87108, Note_on_c, 0, 63, 0
2, 87120, Note_on_c, 0, 63, 25
2, 87120, Note_on_c, 0, 70, 30
2, 87348, Note_on_c, 0, 70, 0
2, 87348, Note_on_c, 0, 63, 0
2, 87360, Note_on_c, 0, 63, 26
2, 87360, Note_on_c, 0, 70, 31
2, 87588, Note_on_c, 0, 70, 0
2, 87588, Note_on_c, 0, 63, 0
2, 87600, Note_on_c, 0, 63, 28
2, 87600, Note_on_c, 0, 70, 33
2, 87828, Note_on_c, 0, 70, 0
2, 87828, Note_on_c, 0, 63, 0
2, 87840, Note_on_c, 0, 63, 28
2, 87840, Note_on_c, 0, 70, 34
2, 88068, Note_on_c, 0, 70, 0
2, 88068, Note_on_c, 0, 63, 0
2, 88080, Note_on_c, 0, 63, 28
2, 88080, Note_on_c, 0, 70, 34
2, 88308, Note_on_c, 0, 70, 0
2, 88308, Note_on_c, 0, 63, 0
2, 88320, Note_on_c, 0, 63, 31
2, 88320, Note_on_c, 0, 70, 37
2, 88548, Note_on_c, 0, 70, 0
2, 88548, Note_on_c, 0, 63, 0
2, 88560, Note_on_c, 0, 63, 32
2, 88560, Note_on_c, 0, 70, 39
2, 88788, Note_on_c, 0, 70, 0
2, 88788, Note_on_c, 0, 63, 0
2, 88800, Note_on_c, 0, 63, 34
2, 88800, Note_on_c, 0, 70, 39
2, 89028, Note_on_c, 0, 70, 0
2, 89028, Note_on_c, 0, 63, 0
2, 89040, Note_on_c, 0, 63, 35
2, 89040, Note_on_c, 0, 70, 42
2, 89268, Note_on_c, 0, 70, 0
2, 89268, Note_on_c, 0, 63, 0
2, 89280, Note_on_c, 0, 75, 0
2, 89280, Note_on_c, 0, 63, 35
2, 89280, Note_on_c, 0, 70, 43
2, 89508, Note_on_c, 0, 70, 0
2, 89508, Note_on_c, 0, 63, 0
2, 89520, Note_on_c, 0, 63, 35
2, 89520, Note_on_c, 0, 70, 42
2, 89748, Note_on_c, 0, 70, 0
2, 89748, Note_on_c, 0, 63, 0
2, 89760, Note_on_c, 0, 63, 34
2, 89760, Note_on_c, 0, 70, 41
2, 89988, Note_on_c, 0, 70, 0
2, 89988, Note_on_c, 0, 63, 0
2, 90000, Note_on_c, 0, 63, 33
2, 90000, Note_on_c, 0, 70, 39
2, 90228, Note_on_c, 0, 70, 0
2, 90228, Note_on_c, 0, 63, 0
2, 90240, Note_on_c, 0, 63, 32
2, 90240, Note_on_c, 0, 70, 39
2, 90468, Note_on_c, 0, 70, 0
2, 90468, Note_on_c, 0, 63, 0
2, 90480, Note_on_c, 0, 63, 30
2, 90480, Note_on_c, 0, 70, 36
2, 90708, Note_on_c, 0, 70, 0
2, 90708, Note_on_c, 0, 63, 0
2, 90720, Note_on_c, 0, 63, 29
2, 90720, Note_on_c, 0, 70, 35
2, 90948, Note_on_c, 0, 70, 0
2, 90948, Note_on_c, 0, 63, 0
2, 90960, Note_on_c, 0, 63, 28
2, 90960, Note_on_c, 0, 70, 34
2, 91188, Note_on_c, 0, 70, 0
2, 91188, Note_on_c, 0, 63, 0
2, 91200, Note_on_c, 0, 63, 28
2, 91200, Note_on_c, 0, 70, 33
2, 91428, Note_on_c, 0, 70, 0
2, 91428, Note_on_c, 0, 63, 0
2, 91440, Note_on_c, 0, 63, 26
2, 91440, Note_on_c, 0, 70, 32
2, 91668, Note_on_c, 0, 70, 0
2, 91668, Note_on_c, 0, 63, 0
2, 91680, Note_on_c, 0, 63, 24
2, 91680, Note_on_c, 0, 70, 29
2, 91908, Note_on_c, 0, 70, 0
2, 91908, Note_on_c, 0, 63, 0
2, 91920, Note_on_c, 0, 63, 23
2, 91920, Note_on_c, 0, 70, 28
2, 92400, Note_on_c, 0, 70, 0
2, 92400, Note_on_c, 0, 63, 0
2, 92400, Note_on_c, 0, 70, 39
2, 92400, Note_on_c, 0, 63, 28
2, 92628, Note_on_c, 0, 63, 0
2, 92628, Note_on_c, 0, 70, 0
2, 92640, Note_on_c, 0, 72, 39
2, 92640, Note_on_c, 0, 63, 29
2, 92868, Note_on_c, 0, 63, 0
2, 92868, Note_on_c, 0, 72, 0
2, 92880, Note_on_c, 0, 63, 30
2, 92880, Note_on_c, 0, 73, 41
2, 93108, Note_on_c, 0, 73, 0
2, 93108, Note_on_c, 0, 63, 0
2, 93120, Note_on_c, 0, 61, 28
2, 93120, Note_on_c, 0, 65, 39
2, 93348, Note_on_c, 0, 65, 0
2, 93348, Note_on_c, 0, 61, 0
2, 93360, Note_on_c, 0, 61, 28
2, 93360, Note_on_c, 0, 67, 39
2, 93588, Note_on_c, 0, 67, 0
2, 93588, Note_on_c, 0, 61, 0
2, 93600, Note_on_c, 0, 60, 19
2, 93600, Note_on_c, 0, 70, 42
2, 93828, Note_on_c, 0, 60, 0
2, 93840, Note_on_c, 0, 60, 19
2, 94068, Note_on_c, 0, 60, 0
2, 94080, Note_on_c, 0, 60, 19
2, 94308, Note_on_c, 0, 60, 0
2, 94320, Note_on_c, 0, 70, 0
2, 94320, Note_on_c, 0, 60, 22
2, 94320, Note_on_c, 0, 68, 40
2, 94548, Note_on_c, 0, 60, 0
2, 94560, Note_on_c, 0, 60, 19
2, 94788, Note_on_c, 0, 60, 0
2, 94800, Note_on_c, 0, 60, 19
2, 95028, Note_on_c, 0, 60, 0
2, 95040, Note_on_c, 0, 68, 0
2, 95280, Note_on_c, 0, 68, 30
2, 95280, Note_on_c, 0, 73, 41
2, 95508, Note_on_c, 0, 73, 0
2, 95508, Note_on_c, 0, 68, 0
2, 95520, Note_on_c, 0, 73, 33
2, 95520, Note_on_c, 0, 79, 44
2, 95520, Note_on_c, 0, 68, 33
2, 95748, Note_on_c, 0, 68, 0
2, 95748, Note_on_c, 0, 79, 0
2, 95748, Note_on_c, 0, 73, 0
2, 95760, Note_on_c, 0, 68, 34
2, 95760, Note_on_c, 0, 73, 34
2, 95760, Note_on_c, 0, 82, 47
2, 95988, Note_on_c, 0, 82, 0
2, 95988, Note_on_c, 0, 73, 0
2, 95988, Note_on_c, 0, 68, 0
2, 96000, Note_on_c, 0, 80, 42
2, 96000, Note_on_c, 0, 73, 31
2, 96000, Note_on_c, 0, 68, 31
2, 96228, Note_on_c, 0, 68, 0
2, 96228, Note_on_c, 0, 73, 0
2, 96228, Note_on_c, 0, 80, 0
2, 96240, Note_on_c, 0, 68, 31
2, 96240, Note_on_c, 0, 73, 31
2, 96240, Note_on_c, 0, 77, 42
2, 96468, Note_on_c, 0, 77, 0
2, 96468, Note_on_c, 0, 73, 0
2, 96468, Note_on_c, 0, 68, 0
2, 96480, Note_on_c, 0, 63, 31
2, 96480, Note_on_c, 0, 75, 49
2, 96480, Note_on_c, 0, 70, 37
2, 96708, Note_on_c, 0, 70, 0
2, 96708, Note_on_c, 0, 63, 0
2, 96720, Note_on_c, 0, 70, 37
2, 96720, Note_on_c, 0, 63, 31
2, 96948, Note_on_c, 0, 63, 0
2, 96948, Note_on_c, 0, 70, 0
2, 96960, Note_on_c, 0, 70, 37
2, 96960, Note_on_c, 0, 63, 31
2, 97188, Note_on_c, 0, 63, 0
2, 97188, Note_on_c, 0, 70, 0
2, 97200, Note_on_c, 0, 75, 0
2, 97200, Note_on_c, 0, 73, 37
2, 97200, Note_on_c, 0, 65, 31
2, 97200, Note_on_c, 0, 77, 48
2, 97428, Note_on_c, 0, 65, 0
2, 97428, Note_on_c, 0, 73, 0
2, 97440, Note_on_c, 0, 65, 31
2, 97440, Note_on_c, 0, 73, 37
2, 97668, Note_on_c, 0, 73, 0
2, 97668, Note_on_c, 0, 65, 0
2, 97680, Note_on_c, 0, 65, 30
2, 97680, Note_on_c, 0, 73, 36
2, 97908, Note_on_c, 0, 73, 0
2, 97908, Note_on_c, 0, 65, 0
2, 97920, Note_on_c, 0, 77, 0
2, 98160, Note_on_c, 0, 63, 33
2, 98160, Note_on_c, 0, 70, 41
2, 98388, Note_on_c, 0, 70, 0
2, 98388, Note_on_c, 0, 63, 0
2, 98400, Note_on_c, 0, 75, 44
2, 98400, Note_on_c, 0, 70, 33
2, 98628, Note_on_c, 0, 70, 0
2, 98628, Note_on_c, 0, 75, 0
2, 98640, Note_on_c, 0, 79, 47
2, 98640, Note_on_c, 0, 70, 34
2, 98868, Note_on_c, 0, 70, 0
2, 98868, Note_on_c, 0, 79, 0
2, 98880, Note_on_c, 0, 77, 42
2, 98880, Note_on_c, 0, 70, 31
2, 99108, Note_on_c, 0, 70, 0
2, 99108, Note_on_c, 0, 77, 0
2, 99120, Note_on_c, 0, 73, 42
2, 99120, Note_on_c, 0, 70, 31
2, 99348, Note_on_c, 0, 70, 0
2, 99348, Note_on_c, 0, 73, 0
2, 99360, Note_on_c, 0, 68, 34
2, 99360, Note_on_c, 0, 63, 28
2, 99360, Note_on_c, 0, 72, 49
2, 99588, Note_on_c, 0, 63, 0
2, 99588, Note_on_c, 0, 68, 0
2, 99600, Note_on_c, 0, 63, 28
2, 99600, Note_on_c, 0, 68, 34
2, 99828, Note_on_c, 0, 68, 0
2, 99828, Note_on_c, 0, 63, 0
2, 99840, Note_on_c, 0, 63, 28
2, 99840, Note_on_c, 0, 68, 34
2, 100068, Note_on_c, 0, 68, 0
2, 100068, Note_on_c, 0, 63, 0
2, 100080, Note_on_c, 0, 72, 0
2, 100080, Note_on_c, 0, 61, 28
2, 100080, Note_on_c, 0, 73, 48
2, 100080, Note_on_c, 0, 68, 34
2, 100308, Note_on_c, 0, 68, 0
2, 100308, Note_on_c, 0, 61, 0
2, 100320, Note_on_c, 0, 68, 34
2, 100320, Note_on_c, 0, 61, 28
2, 100548, Note_on_c, 0, 61, 0
2, 100548, Note_on_c, 0, 68, 0
2, 100560, Note_on_c, 0, 68, 32
2, 100560, Note_on_c, 0, 61, 27
2, 100788, Note_on_c, 0, 61, 0
2, 100788, Note_on_c, 0, 68, 0
2, 100800, Note_on_c, 0, 73, 0
2, 101040, Note_on_c, 0, 61, 34
2, 101268, Note_on_c, 0, 61, 0
2, 101280, Note_on_c, 0, 61, 27
2, 101280, Note_on_c, 0, 70, 44
2, 101508, Note_on_c, 0, 70, 0
2, 101508, Note_on_c, 0, 61, 0
2, 101520, Note_on_c, 0, 73, 47
2, 101520, Note_on_c, 0, 60, 26
2, 101520, Note_on_c, 0, 68, 31
2, 101748, Note_on_c, 0, 68, 0
2, 101748, Note_on_c, 0, 60, 0
2, 101748, Note_on_c, 0, 73, 0
2, 101760, Note_on_c, 0, 68, 31
2, 101760, Note_on_c, 0, 60, 26
2, 101760, Note_on_c, 0, 72, 42
2, 101988, Note_on_c, 0, 72, 0
2, 101988, Note_on_c, 0, 60, 0
2, 101988, Note_on_c, 0, 68, 0
2, 102000, Note_on_c, 0, 60, 23
2, 102000, Note_on_c, 0, 68, 39
2, 102000, Note_on_c, 0, 65, 28
2, 102228, Note_on_c, 0, 65, 0
2, 102228, Note_on_c, 0, 68, 0
2, 102228, Note_on_c, 0, 60, 0
2, 102240, Note_on_c, 0, 67, 32
2, 102240, Note_on_c, 0, 58, 27
2, 102240, Note_on_c, 0, 70, 45
2, 102468, Note_on_c, 0, 58, 0
2, 102468, Note_on_c, 0, 67, 0
2, 102480, Note_on_c, 0, 58, 27
2, 102480, Note_on_c, 0, 67, 32
2, 102708, Note_on_c, 0, 67, 0
2, 102708, Note_on_c, 0, 58, 0
2, 102720, Note_on_c, 0, 58, 26
2, 102720, Note_on_c, 0, 67, 30
2, 102948, Note_on_c, 0, 67, 0
2, 102948, Note_on_c, 0, 58, 0
2, 102960, Note_on_c, 0, 58, 27
2, 102960, Note_on_c, 0, 67, 32
2, 103188, Note_on_c, 0, 67, 0
2, 103188, Note_on_c, 0, 58, 0
2, 103200, Note_on_c, 0, 58, 25
2, 103200, Note_on_c, 0, 67, 30
2, 103428, Note_on_c, 0, 67, 0
2, 103428, Note_on_c, 0, 58, 0
2, 103440, Note_on_c, 0, 58, 25
2, 103440, Note_on_c, 0, 67, 30
2, 103668, Note_on_c, 0, 67, 0
2, 103668, Note_on_c, 0, 58, 0
2, 103680, Note_on_c, 0, 70, 0
2, 103920, Note_on_c, 0, 70, 39
2, 103920, Note_on_c, 0, 67, 38
2, 103920, Note_on_c, 0, 61, 28
2, 104148, Note_on_c, 0, 61, 0
2, 104148, Note_on_c, 0, 67, 0
2, 104148, Note_on_c, 0, 70, 0
2, 104160, Note_on_c, 0, 61, 30
2, 104160, Note_on_c, 0, 67, 30
2, 104160, Note_on_c, 0, 72, 41
2, 104388, Note_on_c, 0, 72, 0
2, 104388, Note_on_c, 0, 67, 0
2, 104388, Note_on_c, 0, 61, 0
2, 104400, Note_on_c, 0, 73, 42
2, 104400, Note_on_c, 0, 67, 31
2, 104400, Note_on_c, 0, 61, 31
2, 104628, Note_on_c, 0, 61, 0
2, 104628, Note_on_c, 0, 67, 0
2, 104628, Note_on_c, 0, 73, 0
2, 104640, Note_on_c, 0, 65, 40
2, 104640, Note_on_c, 0, 61, 29
2, 104868, Note_on_c, 0, 61, 0
2, 104868, Note_on_c, 0, 65, 0
2, 104880, Note_on_c, 0, 67, 39
2, 104880, Note_on_c, 0, 61, 28
2, 105108, Note_on_c, 0, 61, 0
2, 105108, Note_on_c, 0, 67, 0
2, 105120, Note_on_c, 0, 66, 24
2, 105120, Note_on_c, 0, 61, 20
2, 105120, Note_on_c, 0, 70, 42
2, 105348, Note_on_c, 0, 61, 0
2, 105348, Note_on_c, 0, 66, 0
2, 105360, Note_on_c, 0, 61, 20
2, 105360, Note_on_c, 0, 66, 24
2, 105588, Note_on_c, 0, 66, 0
2, 105588, Note_on_c, 0, 61, 0
2, 105600, Note_on_c, 0, 61, 20
2, 105600, Note_on_c, 0, 66, 24
2, 105828, Note_on_c, 0, 66, 0
2, 105828, Note_on_c, 0, 61, 0
2, 105840, Note_on_c, 0, 70, 0
2, 105840, Note_on_c, 0, 60, 23
2, 105840, Note_on_c, 0, 68, 43
2, 105840, Note_on_c, 0, 66, 28
2, 106068, Note_on_c, 0, 66, 0
2, 106068, Note_on_c, 0, 60, 0
2, 106080, Note_on_c, 0, 66, 24
2, 106080, Note_on_c, 0, 60, 20
2, 106308, Note_on_c, 0, 60, 0
2, 106308, Note_on_c, 0, 66, 0
2, 106320, Note_on_c, 0, 66, 24
2, 106320, Note_on_c, 0, 60, 20
2, 106548, Note_on_c, 0, 60, 0
2, 106548, Note_on_c, 0, 66, 0
2, 106560, Note_on_c, 0, 68, 0
2, 106800, Note_on_c, 0, 73, 42
2, 106800, Note_on_c, 0, 68, 31
2, 107028, Note_on_c, 0, 68, 0
2, 107028, Note_on_c, 0, 73, 0
2, 107040, Note_on_c, 0, 68, 28
2, 107040, Note_on_c, 0, 73, 33
2, 107040, Note_on_c, 0, 79, 45
2, 107268, Note_on_c, 0, 79, 0
2, 107268, Note_on_c, 0, 73, 0
2, 107268, Note_on_c, 0, 68, 0
2, 107280, Note_on_c, 0, 73, 34
2, 107280, Note_on_c, 0, 68, 28
2, 107280, Note_on_c, 0, 82, 47
2, 107508, Note_on_c, 0, 82, 0
2, 107508, Note_on_c, 0, 68, 0
2, 107508, Note_on_c, 0, 73, 0
2, 107520, Note_on_c, 0, 68, 27
2, 107520, Note_on_c, 0, 80, 45
2, 107520, Note_on_c, 0, 73, 32
2, 107748, Note_on_c, 0, 73, 0
2, 107748, Note_on_c, 0, 80, 0
2, 107748, Note_on_c, 0, 68, 0
2, 107760, Note_on_c, 0, 68, 27
2, 107760, Note_on_c, 0, 73, 32
2, 107760, Note_on_c, 0, 77, 45
2, 107988, Note_on_c, 0, 77, 0
2, 107988, Note_on_c, 0, 73, 0
2, 107988, Note_on_c, 0, 68, 0
2, 108000, Note_on_c, 0, 63, 30
2, 108000, Note_on_c, 0, 75, 51
2, 108000, Note_on_c, 0, 70, 37
2, 108228, Note_on_c, 0, 70, 0
2, 108228, Note_on_c, 0, 63, 0
2, 108240, Note_on_c, 0, 70, 37
2, 108240, Note_on_c, 0, 63, 30
2, 108468, Note_on_c, 0, 63, 0
2, 108468, Note_on_c, 0, 70, 0
2, 108480, Note_on_c, 0, 70, 37
2, 108480, Note_on_c, 0, 63, 30
2, 108708, Note_on_c, 0, 63, 0
2, 108708, Note_on_c, 0, 70, 0
2, 108720, Note_on_c, 0, 75, 0
2, 108720, Note_on_c, 0, 73, 37
2, 108720, Note_on_c, 0, 65, 30
2, 108720, Note_on_c, 0, 77, 49
2, 108948, Note_on_c, 0, 65, 0
2, 108948, Note_on_c, 0, 73, 0
2, 108960, Note_on_c, 0, 65, 30
2, 108960, Note_on_c, 0, 73, 37
2, 109188, Note_on_c, 0, 73, 0
2, 109188, Note_on_c, 0, 65, 0
2, 109200, Note_on_c, 0, 65, 28
2, 109200, Note_on_c, 0, 73, 34
2, 109428, Note_on_c, 0, 73, 0
2, 109428, Note_on_c, 0, 65, 0
2, 109440, Note_on_c, 0, 77, 0
2, 109680, Note_on_c, 0, 63, 28
2, 109680, Note_on_c, 0, 70, 42
2, 109908, Note_on_c, 0, 70, 0
2, 109908, Note_on_c, 0, 63, 0
2, 109920, Note_on_c, 0, 63, 28
2, 109920, Note_on_c, 0, 75, 45
2, 109920, Note_on_c, 0, 70, 33
2, 110148, Note_on_c, 0, 70, 0
2, 110148, Note_on_c, 0, 75, 0
2, 110148, Note_on_c, 0, 63, 0
2, 110160, Note_on_c, 0, 79, 48
2, 110160, Note_on_c, 0, 70, 36
2, 110388, Note_on_c, 0, 70, 0
2, 110388, Note_on_c, 0, 79, 0
2, 110400, Note_on_c, 0, 77, 45
2, 110400, Note_on_c, 0, 70, 32
2, 110628, Note_on_c, 0, 70, 0
2, 110628, Note_on_c, 0, 77, 0
2, 110640, Note_on_c, 0, 73, 45
2, 110640, Note_on_c, 0, 70, 32
2, 110868, Note_on_c, 0, 70, 0
2, 110868, Note_on_c, 0, 73, 0
2, 110880, Note_on_c, 0, 68, 33
2, 110880, Note_on_c, 0, 63, 28
2, 110880, Note_on_c, 0, 72, 47
2, 111108, Note_on_c, 0, 63, 0
2, 111108, Note_on_c, 0, 68, 0
2, 111120, Note_on_c, 0, 63, 28
2, 111120, Note_on_c, 0, 68, 33
2, 111348, Note_on_c, 0, 68, 0
2, 111348, Note_on_c, 0, 63, 0
2, 111360, Note_on_c, 0, 63, 28
2, 111360, Note_on_c, 0, 68, 33
2, 111588, Note_on_c, 0, 68, 0
2, 111588, Note_on_c, 0, 63, 0
2, 111600, Note_on_c, 0, 72, 0
2, 111600, Note_on_c, 0, 61, 28
2, 111600, Note_on_c, 0, 73, 47
2, 111600, Note_on_c, 0, 68, 33
2, 111828, Note_on_c, 0, 68, 0
2, 111828, Note_on_c, 0, 61, 0
2, 111840, Note_on_c, 0, 68, 31
2, 111840, Note_on_c, 0, 61, 26
2, 112068, Note_on_c, 0, 61, 0
2, 112068, Note_on_c, 0, 68, 0
2, 112080, Note_on_c, 0, 68, 27
2, 112080, Note_on_c, 0, 61, 22
2, 112308, Note_on_c, 0, 61, 0
2, 112308, Note_on_c, 0, 68, 0
2, 112320, Note_on_c, 0, 73, 0
2, 112560, Note_on_c, 0, 61, 38
2, 112788, Note_on_c, 0, 61, 0
2, 112800, Note_on_c, 0, 61, 25
2, 112800, Note_on_c, 0, 68, 39
2, 113028, Note_on_c, 0, 68, 0
2, 113028, Note_on_c, 0, 61, 0
2, 113040, Note_on_c, 0, 61, 23
2, 113040, Note_on_c, 0, 72, 39
2, 113268, Note_on_c, 0, 72, 0
2, 113268, Note_on_c, 0, 61, 0
2, 113280, Note_on_c, 0, 61, 23
2, 113280, Note_on_c, 0, 70, 39
2, 113508, Note_on_c, 0, 70, 0
2, 113508, Note_on_c, 0, 61, 0
2, 113520, Note_on_c, 0, 68, 35
2, 113520, Note_on_c, 0, 61, 20
2, 113748, Note_on_c, 0, 61, 0
2, 113748, Note_on_c, 0, 68, 0
2, 113760, Note_on_c, 0, 60, 30
2, 113760, Note_on_c, 0, 72, 46
2, 113988, Note_on_c, 0, 60, 0
2, 114000, Note_on_c, 0, 60, 30
2, 114228, Note_on_c, 0, 60, 0
2, 114240, Note_on_c, 0, 60, 30
2, 114468, Note_on_c, 0, 60, 0
2, 114480, Note_on_c, 0, 60, 30
2, 114708, Note_on_c, 0, 60, 0
2, 114720, Note_on_c, 0, 60, 29
2, 114948, Note_on_c, 0, 60, 0
2, 114960, Note_on_c, 0, 60, 29
2, 115188, Note_on_c, 0, 60, 0
2, 115200, Note_on_c, 0, 61, 36
2, 115428, Note_on_c, 0, 61, 0
2, 115440, Note_on_c, 0, 61, 38
2, 115668, Note_on_c, 0, 61, 0
2, 115680, Note_on_c, 0, 72, 0
2, 115680, Note_on_c, 0, 68, 39
2, 115680, Note_on_c, 0, 61, 25
2, 115908, Note_on_c, 0, 61, 0
2, 115908, Note_on_c, 0, 68, 0
2, 115920, Note_on_c, 0, 72, 39
2, 115920, Note_on_c, 0, 61, 23
2, 116148, Note_on_c, 0, 61, 0
2, 116148, Note_on_c, 0, 72, 0
2, 116160, Note_on_c, 0, 70, 39
2, 116160, Note_on_c, 0, 61, 23
2, 116388, Note_on_c, 0, 61, 0
2, 116388, Note_on_c, 0, 70, 0
2, 116400, Note_on_c, 0, 61, 20
2, 116400, Note_on_c, 0, 68, 35
2, 116628, Note_on_c, 0, 68, 0
2, 116628, Note_on_c, 0, 61, 0
2, 116640, Note_on_c, 0, 72, 46
2, 116640, Note_on_c, 0, 60, 30
2, 116868, Note_on_c, 0, 60, 0
2, 116880, Note_on_c, 0, 60, 30
2, 117108, Note_on_c, 0, 60, 0
2, 117120, Note_on_c, 0, 60, 30
2, 117348, Note_on_c, 0, 60, 0
2, 117360, Note_on_c, 0, 61, 24
2, 117588, Note_on_c, 0, 61, 0
2, 117600, Note_on_c, 0, 72, 0
2, 117600, Note_on_c, 0, 61, 23
2, 117600, Note_on_c, 0, 70, 39
2, 117828, Note_on_c, 0, 70, 0
2, 117828, Note_on_c, 0, 61, 0
2, 117840, Note_on_c, 0, 68, 35
2, 117840, Note_on_c, 0, 61, 20
2, 118068, Note_on_c, 0, 61, 0
2, 118068, Note_on_c, 0, 68, 0
2, 118080, Note_on_c, 0, 60, 30
2, 118080, Note_on_c, 0, 72, 46
2, 118308, Note_on_c, 0, 60, 0
2, 118320, Note_on_c, 0, 60, 30
2, 118548, Note_on_c, 0, 60, 0
2, 118560, Note_on_c, 0, 60, 30
2, 118788, Note_on_c, 0, 60, 0
2, 118800, Note_on_c, 0, 60, 23
2, 119028, Note_on_c, 0, 60, 0
2, 119040, Note_on_c, 0, 72, 0
2, 119040, Note_on_c, 0, 70, 39
2, 119040, Note_on_c, 0, 60, 23
2, 119268, Note_on_c, 0, 60, 0
2, 119268, Note_on_c, 0, 70, 0
2, 119280, Note_on_c, 0, 60, 20
2, 119280, Note_on_c, 0, 68, 35
2, 119508, Note_on_c, 0, 68, 0
2, 119508, Note_on_c, 0, 60, 0
2, 119520, Note_on_c, 0, 68, 45
2, 119760, Note_on_c, 0, 60, 30
2, 119988, Note_on_c, 0, 60, 0
2, 120000, Note_on_c, 0, 60, 30
2, 120228, Note_on_c, 0, 60, 0
2, 120240, Note_on_c, 0, 60, 23
2, 120468, Note_on_c, 0, 60, 0
2, 120480, Note_on_c, 0, 58, 23
2, 120708, Note_on_c, 0, 58, 0
2, 120720, Note_on_c, 0, 65, 20
2, 120948, Note_on_c, 0, 65, 0
2, 120960, Note_on_c, 0, 68, 0
2, 120960, Note_on_c, 0, 68, 45
2, 120960, Note_on_c, 0, 60, 30
2, 121188, Note_on_c, 0, 60, 0
2, 121200, Note_on_c, 0, 60, 30
2, 121428, Note_on_c, 0, 60, 0
2, 121440, Note_on_c, 0, 60, 30
2, 121668, Note_on_c, 0, 60, 0
2, 121680, Note_on_c, 0, 60, 23
2, 121908, Note_on_c, 0, 60, 0
2, 121920, Note_on_c, 0, 58, 23
2, 122148, Note_on_c, 0, 58, 0
2, 122160, Note_on_c, 0, 65, 20
2, 122388, Note_on_c, 0, 65, 0
2, 122400, Note_on_c, 0, 68, 0
2, 122400, Note_on_c, 0, 60, 30
2, 122400, Note_on_c, 0, 68, 45
2, 122880, Note_on_c, 0, 68, 0
2, 122880, Note_on_c, 0, 60, 0
2, 122880, Note_on_c, 0, 58, 30
2, 123108, Note_on_c, 0, 58, 0
2, 123120, Note_on_c, 0, 60, 23
2, 123120, Note_on_c, 0, 68, 45
2, 123600, Note_on_c, 0, 68, 0
2, 123600, Note_on_c, 0, 60, 0
2, 123600, Note_on_c, 0, 58, 20
2, 123828, Note_on_c, 0, 58, 0
2, 123840, Note_on_c, 0, 60, 30
2, 123840, Note_on_c, 0, 68, 45
2, 124320, Note_on_c, 0, 68, 0
2, 124320, Note_on_c, 0, 60, 0
2, 124320, Note_on_c, 0, 58, 30
2, 124548, Note_on_c, 0, 58, 0
2, 124560, Note_on_c, 0, 60, 23
2, 124560, Note_on_c, 0, 68, 45
2, 125040, Note_on_c, 0, 68, 0
2, 125040, Note_on_c, 0, 60, 0
2, 125040, Note_on_c, 0, 58, 20
2, 125268, Note_on_c, 0, 58, 0
2, 125520, Note_on_c, 0, 60, 30
2, 125748, Note_on_c, 0, 60, 0
2, 125760, Note_on_c, 0, 60, 30
2, 125988, Note_on_c, 0, 60, 0
2, 126000, Note_on_c, 0, 60, 23
2, 126228, Note_on_c, 0, 60, 0
2, 126240, Note_on_c, 0, 60, 23
2, 126468, Note_on_c, 0, 60, 0
2, 126480, Note_on_c, 0, 60, 20
2, 126708, Note_on_c, 0, 60, 0
2, 126720, Note_on_c, 0, 60, 23
2, 126948, Note_on_c, 0, 60, 0
2, 126960, Note_on_c, 0, 60, 30
2, 127188, Note_on_c, 0, 60, 0
2, 127200, Note_on_c, 0, 60, 30
2, 127428, Note_on_c, 0, 60, 0
2, 127440, Note_on_c, 0, 60, 23
2, 127620, Note_on_c, 0, 60, 0
2, 127620, Note_on_c, 0, 63, 23
2, 127680, Note_on_c, 0, 63, 0
2, 127680, Note_on_c, 0, 61, 23
2, 127908, Note_on_c, 0, 61, 0
2, 127920, Note_on_c, 0, 60, 20
2, 128148, Note_on_c, 0, 60, 0
2, 128160, Note_on_c, 0, 60, 17
2, 129600, Note_on_c, 0, 60, 0
2, 129600, End_track
3, 0, Start_track
3, 0, Title_t, "Piano left"
3, 0, Program_c, 0, 0
3, 0, Control_c, 0, 7, 100
3, 0, Control_c, 0, 10, 64
3, 0, Control_c, 0, 64, 127
3, 0, Note_on_c, 0, 51, 17
3, 0, Note_on_c, 0, 56, 23
3, 0, Note_on_c, 0, 63, 28
3, 228, Note_on_c, 0, 63, 0
3, 228, Note_on_c, 0, 56, 0
3, 228, Note_on_c, 0, 51, 0
3, 240, Note_on_c, 0, 51, 17
3, 240, Note_on_c, 0, 56, 24
3, 240, Note_on_c, 0, 63, 29
3, 468, Note_on_c, 0, 63, 0
3, 468, Note_on_c, 0, 56, 0
3, 468, Note_on_c, 0, 51, 0
3, 480, Note_on_c, 0, 51, 18
3, 480, Note_on_c, 0, 56, 25
3, 480, Note_on_c, 0, 63, 30
3, 708, Note_on_c, 0, 63, 0
3, 708, Note_on_c, 0, 56, 0
3, 708, Note_on_c, 0, 51, 0
3, 720, Note_on_c, 0, 51, 18
3, 720, Note_on_c, 0, 56, 25
3, 720, Note_on_c, 0, 63, 30
3, 948, Note_on_c, 0, 63, 0
3, 948, Note_on_c, 0, 56, 0
3, 948, Note_on_c, 0, 51, 0
3, 960, Note_on_c, 0, 51, 20
3, 960, Note_on_c, 0, 56, 27
3, 960, Note_on_c, 0, 63, 33
3, 1188, Note_on_c, 0, 63, 0
3, 1188, Note_on_c, 0, 56, 0
3, 1188, Note_on_c, 0, 51, 0
3, 1200, Note_on_c, 0, 51, 21
3, 1200, Note_on_c, 0, 56, 28
3, 1200, Note_on_c, 0, 63, 34
3, 1428, Note_on_c, 0, 63, 0
3, 1428, Note_on_c, 0, 56, 0
3, 1428, Note_on_c, 0, 51, 0
3, 1440, Note_on_c, 0, 51, 22
3, 1440, Note_on_c, 0, 56, 29
3, 1440, Note_on_c, 0, 63, 35
3, 1668, Note_on_c, 0, 63, 0
3, 1668, Note_on_c, 0, 56, 0
3, 1668, Note_on_c, 0, 51, 0
3, 1680, Note_on_c, 0, 51, 22
3, 1680, Note_on_c, 0, 56, 31
3, 1680, Note_on_c, 0, 63, 38
3, 1908, Note_on_c, 0, 63, 0
3, 1908, Note_on_c, 0, 56, 0
3, 1908, Note_on_c, 0, 51, 0
3, 1920, Note_on_c, 0, 51, 24
3, 1920, Note_on_c, 0, 56, 33
3, 1920, Note_on_c, 0, 63, 39
3, 2148, Note_on_c, 0, 63, 0
3, 2148, Note_on_c, 0, 56, 0
3, 2148, Note_on_c, 0, 51, 0
3, 2160, Note_on_c, 0, 51, 24
3, 2160, Note_on_c, 0, 56, 33
3, 2160, Note_on_c, 0, 63, 39
3, 2388, Note_on_c, 0, 63, 0
3, 2388, Note_on_c, 0, 56, 0
3, 2388, Note_on_c, 0, 51, 0
3, 2400, Note_on_c, 0, 51, 22
3, 2400, Note_on_c, 0, 56, 31
3, 2400, Note_on_c, 0, 63, 37
3, 2628, Note_on_c, 0, 63, 0
3, 2628, Note_on_c, 0, 56, 0
3, 2628, Note_on_c, 0, 51, 0
3, 2640, Note_on_c, 0, 51, 21
3, 2640, Note_on_c, 0, 56, 28
3, 2640, Note_on_c, 0, 63, 34
3, 2868, Note_on_c, 0, 63, 0
3, 2868, Note_on_c, 0, 56, 0
3, 2868, Note_on_c, 0, 51, 0
3, 2880, Note_on_c, 0, 39, 46
3, 2891, Control_c, 0, 64, 0
3, 2987, Control_c, 0, 64, 127
3, 3108, Note_on_c, 0, 39, 0
3, 3120, Note_on_c, 0, 51, 24
3, 3120, Note_on_c, 0, 58, 32
3, 3120, Note_on_c, 0, 63, 32
3, 3348, Note_on_c, 0, 63, 0
3, 3348, Note_on_c, 0, 58, 0
3, 3348, Note_on_c, 0, 51, 0
3, 3360, Note_on_c, 0, 51, 25
3, 3360, Note_on_c, 0, 58, 34
3, 3360, Note_on_c, 0, 63, 34
3, 3588, Note_on_c, 0, 63, 0
3, 3588, Note_on_c, 0, 58, 0
3, 3588, Note_on_c, 0, 51, 0
3, 3600, Note_on_c, 0, 51, 27
3, 3600, Note_on_c, 0, 58, 36
3, 3600, Note_on_c, 0, 63, 36
3, 3828, Note_on_c, 0, 63, 0
3, 3828, Note_on_c, 0, 58, 0
3, 3828, Note_on_c, 0, 51, 0
3, 3840, Note_on_c, 0, 51, 25
3, 3840, Note_on_c, 0, 58, 34
3, 3840, Note_on_c, 0, 63, 34
3, 4068, Note_on_c, 0, 63, 0
3, 4068, Note_on_c, 0, 58, 0
3, 4068, Note_on_c, 0, 51, 0
3, 4080, Note_on_c, 0, 51, 25
3, 4080, Note_on_c, 0, 58, 34
3, 4080, Note_on_c, 0, 63, 34
3, 4308, Note_on_c, 0, 63, 0
3, 4308, Note_on_c, 0, 58, 0
3, 4308, Note_on_c, 0, 51, 0
3, 4320, Note_on_c, 0, 44, 47
3, 4331, Control_c, 0, 64, 0
3, 4411, Control_c, 0, 64, 127
3, 4548, Note_on_c, 0, 44, 0
3, 4560, Note_on_c, 0, 56, 22
3, 4560, Note_on_c, 0, 63, 30
3, 4788, Note_on_c, 0, 63, 0
3, 4788, Note_on_c, 0, 56, 0
3, 4800, Note_on_c, 0, 56, 21
3, 4800, Note_on_c, 0, 63, 29
3, 5028, Note_on_c, 0, 63, 0
3, 5028, Note_on_c, 0, 56, 0
3, 5040, Note_on_c, 0, 56, 25
3, 5040, Note_on_c, 0, 63, 34
3, 5055, Control_c, 0, 64, 0
3, 5189, Control_c, 0, 64, 127
3, 5268, Note_on_c, 0, 63, 0
3, 5268, Note_on_c, 0, 56, 0
3, 5280, Note_on_c, 0, 56, 22
3, 5280, Note_on_c, 0, 63, 30
3, 5508, Note_on_c, 0, 63, 0
3, 5508, Note_on_c, 0, 56, 0
3, 5520, Note_on_c, 0, 56, 22
3, 5520, Note_on_c, 0, 63, 30
3, 5748, Note_on_c, 0, 63, 0
3, 5748, Note_on_c, 0, 56, 0
3, 5760, Note_on_c, 0, 49, 47
3, 5768, Control_c, 0, 64, 0
3, 5880, Control_c, 0, 64, 127
3, 5988, Note_on_c, 0, 49, 0
3, 6000, Note_on_c, 0, 56, 21
3, 6000, Note_on_c, 0, 61, 28
3, 6000, Note_on_c, 0, 65, 34
3, 6228, Note_on_c, 0, 65, 0
3, 6228, Note_on_c, 0, 61, 0
3, 6228, Note_on_c, 0, 56, 0
3, 6240, Note_on_c, 0, 56, 21
3, 6240, Note_on_c, 0, 61, 28
3, 6240, Note_on_c, 0, 65, 34
3, 6468, Note_on_c, 0, 65, 0
3, 6468, Note_on_c, 0, 61, 0
3, 6468, Note_on_c, 0, 56, 0
3, 6480, Note_on_c, 0, 56, 22
3, 6480, Note_on_c, 0, 61, 30
3, 6480, Note_on_c, 0, 65, 36
3, 6708, Note_on_c, 0, 65, 0
3, 6708, Note_on_c, 0, 61, 0
3, 6708, Note_on_c, 0, 56, 0
3, 6720, Note_on_c, 0, 56, 21
3, 6720, Note_on_c, 0, 61, 28
3, 6720, Note_on_c, 0, 65, 34
3, 6948, Note_on_c, 0, 65, 0
3, 6948, Note_on_c, 0, 61, 0
3, 6948, Note_on_c, 0, 56, 0
3, 6960, Note_on_c, 0, 56, 21
3, 6960, Note_on_c, 0, 61, 28
3, 6960, Note_on_c, 0, 65, 34
3, 7188, Note_on_c, 0, 65, 0
3, 7188, Note_on_c, 0, 61, 0
3, 7188, Note_on_c, 0, 56, 0
3, 7200, Note_on_c, 0, 51, 47
3, 7213, Control_c, 0, 64, 0
3, 7347, Control_c, 0, 64, 127
3, 7428, Note_on_c, 0, 51, 0
3, 7440, Note_on_c, 0, 58, 18
3, 7440, Note_on_c, 0, 61, 24
3, 7440, Note_on_c, 0, 67, 29
3, 7668, Note_on_c, 0, 67, 0
3, 7668, Note_on_c, 0, 61, 0
3, 7668, Note_on_c, 0, 58, 0
3, 7680, Note_on_c, 0, 58, 18
3, 7680, Note_on_c, 0, 61, 25
3, 7680, Note_on_c, 0, 67, 30
3, 7908, Note_on_c, 0, 67, 0
3, 7908, Note_on_c, 0, 61, 0
3, 7908, Note_on_c, 0, 58, 0
3, 7920, Note_on_c, 0, 49, 47
3, 7930, Control_c, 0, 64, 0
3, 8053, Control_c, 0, 64, 127
3, 8148, Note_on_c, 0, 49, 0
3, 8160, Note_on_c, 0, 56, 16
3, 8160, Note_on_c, 0, 61, 22
3, 8160, Note_on_c, 0, 68, 27
3, 8388, Note_on_c, 0, 68, 0
3, 8388, Note_on_c, 0, 61, 0
3, 8388, Note_on_c, 0, 56, 0
3, 8400, Note_on_c, 0, 56, 16
3, 8400, Note_on_c, 0, 61, 22
3, 8400, Note_on_c, 0, 68, 27
3, 8628, Note_on_c, 0, 68, 0
3, 8628, Note_on_c, 0, 61, 0
3, 8628, Note_on_c, 0, 56, 0
3, 8640, Note_on_c, 0, 51, 47
3, 8640, Control_c, 0, 64, 0
3, 8649, Control_c, 0, 64, 0
3, 8760, Control_c, 0, 64, 127
3, 8868, Note_on_c, 0, 51, 0
3, 8880, Note_on_c, 0, 58, 21
3, 8880, Note_on_c, 0, 61, 28
3, 8880, Note_on_c, 0, 67, 34
3, 9108, Note_on_c, 0, 67, 0
3, 9108, Note_on_c, 0, 61, 0
3, 9108, Note_on_c, 0, 58, 0
3, 9120, Note_on_c, 0, 58, 21
3, 9120, Note_on_c, 0, 61, 28
3, 9120, Note_on_c, 0, 67, 34
3, 9348, Note_on_c, 0, 67, 0
3, 9348, Note_on_c, 0, 61, 0
3, 9348, Note_on_c, 0, 58, 0
3, 9360, Note_on_c, 0, 58, 22
3, 9360, Note_on_c, 0, 61, 30
3, 9360, Note_on_c, 0, 67, 36
3, 9588, Note_on_c, 0, 67, 0
3, 9588, Note_on_c, 0, 61, 0
3, 9588, Note_on_c, 0, 58, 0
3, 9600, Note_on_c, 0, 58, 21
3, 9600, Note_on_c, 0, 61, 28
3, 9600, Note_on_c, 0, 67, 34
3, 9828, Note_on_c, 0, 67, 0
3, 9828, Note_on_c, 0, 61, 0
3, 9828, Note_on_c, 0, 58, 0
3, 9840, Note_on_c, 0, 58, 21
3, 9840, Note_on_c, 0, 61, 28
3, 9840, Note_on_c, 0, 67, 34
3, 10068, Note_on_c, 0, 67, 0
3, 10068, Note_on_c, 0, 61, 0
3, 10068, Note_on_c, 0, 58, 0
3, 10080, Note_on_c, 0, 53, 47
3, 10093, Control_c, 0, 64, 0
3, 10227, Control_c, 0, 64, 127
3, 10320, Note_on_c, 0, 60, 21
3, 10320, Note_on_c, 0, 65, 29
3, 10548, Note_on_c, 0, 65, 0
3, 10548, Note_on_c, 0, 60, 0
3, 10560, Note_on_c, 0, 60, 22
3, 10560, Note_on_c, 0, 65, 30
3, 10788, Note_on_c, 0, 65, 0
3, 10788, Note_on_c, 0, 60, 0
3, 10800, Note_on_c, 0, 53, 0
3, 10800, Note_on_c, 0, 46, 39
3, 10810, Control_c, 0, 64, 0
3, 10933, Control_c, 0, 64, 127
3, 11028, Note_on_c, 0, 46, 0
3, 11040, Note_on_c, 0, 53, 13
3, 11040, Note_on_c, 0, 58, 15
3, 11040, Note_on_c, 0, 65, 18
3, 11268, Note_on_c, 0, 65, 0
3, 11268, Note_on_c, 0, 58, 0
3, 11268, Note_on_c, 0, 53, 0
3, 11280, Note_on_c, 0, 53, 13
3, 11280, Note_on_c, 0, 58, 15
3, 11280, Note_on_c, 0, 65, 18
3, 11508, Note_on_c, 0, 65, 0
3, 11508, Note_on_c, 0, 58, 0
3, 11508, Note_on_c, 0, 53, 0
3, 11520, Note_on_c, 0, 51, 39
3, 11520, Control_c, 0, 64, 0
3, 11531, Control_c, 0, 64, 0
3, 11640, Control_c, 0, 64, 127
3, 11760, Note_on_c, 0, 58, 21
3, 11760, Note_on_c, 0, 65, 28
3, 11988, Note_on_c, 0, 65, 0
3, 11988, Note_on_c, 0, 58, 0
3, 12000, Note_on_c, 0, 58, 21
3, 12000, Note_on_c, 0, 63, 28
3, 12228, Note_on_c, 0, 63, 0
3, 12228, Note_on_c, 0, 58, 0
3, 12240, Note_on_c, 0, 51, 0
3, 12240, Note_on_c, 0, 44, 39
3, 12254, Control_c, 0, 64, 0
3, 12334, Control_c, 0, 64, 127
3, 12468, Note_on_c, 0, 44, 0
3, 12480, Note_on_c, 0, 51, 17
3, 12480, Note_on_c, 0, 56, 23
3, 12480, Note_on_c, 0, 63, 28
3, 12708, Note_on_c, 0, 63, 0
3, 12708, Note_on_c, 0, 56, 0
3, 12708, Note_on_c, 0, 51, 0
3, 12720, Note_on_c, 0, 51, 15
3, 12720, Note_on_c, 0, 56, 21
3, 12720, Note_on_c, 0, 63, 25
3, 12948, Note_on_c, 0, 63, 0
3, 12948, Note_on_c, 0, 56, 0
3, 12948, Note_on_c, 0, 51, 0
3, 12960, Note_on_c, 0, 39, 39
3, 12973, Control_c, 0, 64, 0
3, 13133, Control_c, 0, 64, 127
3, 13188, Note_on_c, 0, 39, 0
3, 13200, Note_on_c, 0, 51, 18
3, 13200, Note_on_c, 0, 63, 25
3, 13428, Note_on_c, 0, 63, 0
3, 13428, Note_on_c, 0, 51, 0
3, 13440, Note_on_c, 0, 51, 17
3, 13440, Note_on_c, 0, 63, 23
3, 13668, Note_on_c, 0, 63, 0
3, 13668, Note_on_c, 0, 51, 0
3, 13680, Note_on_c, 0, 51, 18
3, 13680, Note_on_c, 0, 63, 25
3, 13908, Note_on_c, 0, 63, 0
3, 13908, Note_on_c, 0, 51, 0
3, 13920, Note_on_c, 0, 51, 17
3, 13920, Note_on_c, 0, 63, 23
3, 14148, Note_on_c, 0, 63, 0
3, 14148, Note_on_c, 0, 51, 0
3, 14160, Note_on_c, 0, 51, 17
3, 14160, Note_on_c, 0, 63, 23
3, 14388, Note_on_c, 0, 63, 0
3, 14388, Note_on_c, 0, 51, 0
3, 14400, Note_on_c, 0, 39, 69
3, 14409, Control_c, 0, 64, 0
3, 14507, Control_c, 0, 64, 127
3, 14628, Note_on_c, 0, 39, 0
3, 14640, Note_on_c, 0, 51, 28
3, 14640, Note_on_c, 0, 58, 39
3, 14640, Note_on_c, 0, 63, 39
3, 14868, Note_on_c, 0, 63, 0
3, 14868, Note_on_c, 0, 58, 0
3, 14868, Note_on_c, 0, 51, 0
3, 14880, Note_on_c, 0, 51, 30
3, 14880, Note_on_c, 0, 58, 42
3, 14880, Note_on_c, 0, 63, 42
3, 15108, Note_on_c, 0, 63, 0
3, 15108, Note_on_c, 0, 58, 0
3, 15108, Note_on_c, 0, 51, 0
3, 15120, Note_on_c, 0, 51, 32
3, 15120, Note_on_c, 0, 58, 44
3, 15120, Note_on_c, 0, 63, 44
3, 15348, Note_on_c, 0, 63, 0
3, 15348, Note_on_c, 0, 58, 0
3, 15348, Note_on_c, 0, 51, 0
3, 15360, Note_on_c, 0, 51, 30
3, 15360, Note_on_c, 0, 58, 42
3, 15360, Note_on_c, 0, 63, 42
3, 15588, Note_on_c, 0, 63, 0
3, 15588, Note_on_c, 0, 58, 0
3, 15588, Note_on_c, 0, 51, 0
3, 15600, Note_on_c, 0, 51, 30
3, 15600, Note_on_c, 0, 58, 42
3, 15600, Note_on_c, 0, 63, 42
3, 15828, Note_on_c, 0, 63, 0
3, 15828, Note_on_c, 0, 58, 0
3, 15828, Note_on_c, 0, 51, 0
3, 15840, Note_on_c, 0, 44, 66
3, 15851, Control_c, 0, 64, 0
3, 15931, Control_c, 0, 64, 127
3, 16068, Note_on_c, 0, 44, 0
3, 16080, Note_on_c, 0, 51, 32
3, 16080, Note_on_c, 0, 56, 32
3, 16080, Note_on_c, 0, 63, 43
3, 16308, Note_on_c, 0, 63, 0
3, 16308, Note_on_c, 0, 56, 0
3, 16308, Note_on_c, 0, 51, 0
3, 16320, Note_on_c, 0, 51, 32
3, 16320, Note_on_c, 0, 56, 32
3, 16320, Note_on_c, 0, 63, 42
3, 16548, Note_on_c, 0, 63, 0
3, 16548, Note_on_c, 0, 56, 0
3, 16548, Note_on_c, 0, 51, 0
3, 16560, Note_on_c, 0, 51, 36
3, 16560, Note_on_c, 0, 56, 36
3, 16560, Note_on_c, 0, 63, 50
3, 16575, Control_c, 0, 64, 0
3, 16709, Control_c, 0, 64, 127
3, 16788, Note_on_c, 0, 63, 0
3, 16788, Note_on_c, 0, 56, 0
3, 16788, Note_on_c, 0, 51, 0
3, 16800, Note_on_c, 0, 51, 32
3, 16800, Note_on_c, 0, 56, 32
3, 16800, Note_on_c, 0, 63, 43
3, 17028, Note_on_c, 0, 63, 0
3, 17028, Note_on_c, 0, 56, 0
3, 17028, Note_on_c, 0, 51, 0
3, 17040, Note_on_c, 0, 51, 32
3, 17040, Note_on_c, 0, 56, 32
3, 17040, Note_on_c, 0, 63, 43
3, 17268, Note_on_c, 0, 63, 0
3, 17268, Note_on_c, 0, 56, 0
3, 17268, Note_on_c, 0, 51, 0
3, 17280, Note_on_c, 0, 37, 71
3, 17291, Control_c, 0, 64, 0
3, 17400, Control_c, 0, 64, 127
3, 17508, Note_on_c, 0, 37, 0
3, 17520, Note_on_c, 0, 53, 20
3, 17520, Note_on_c, 0, 56, 20
3, 17520, Note_on_c, 0, 61, 34
3, 17520, Note_on_c, 0, 65, 41
3, 17748, Note_on_c, 0, 65, 0
3, 17748, Note_on_c, 0, 53, 0
3, 17748, Note_on_c, 0, 56, 0
3, 17748, Note_on_c, 0, 61, 0
3, 17760, Note_on_c, 0, 53, 20
3, 17760, Note_on_c, 0, 56, 20
3, 17760, Note_on_c, 0, 61, 34
3, 17760, Note_on_c, 0, 65, 41
3, 17988, Note_on_c, 0, 65, 0
3, 17988, Note_on_c, 0, 53, 0
3, 17988, Note_on_c, 0, 56, 0
3, 17988, Note_on_c, 0, 61, 0
3, 18000, Note_on_c, 0, 53, 22
3, 18000, Note_on_c, 0, 56, 22
3, 18000, Note_on_c, 0, 61, 36
3, 18000, Note_on_c, 0, 65, 45
3, 18228, Note_on_c, 0, 65, 0
3, 18228, Note_on_c, 0, 53, 0
3, 18228, Note_on_c, 0, 56, 0
3, 18228, Note_on_c, 0, 61, 0
3, 18240, Note_on_c, 0, 53, 20
3, 18240, Note_on_c, 0, 56, 20
3, 18240, Note_on_c, 0, 61, 34
3, 18240, Note_on_c, 0, 65, 41
3, 18468, Note_on_c, 0, 65, 0
3, 18468, Note_on_c, 0, 53, 0
3, 18468, Note_on_c, 0, 56, 0
3, 18468, Note_on_c, 0, 61, 0
3, 18480, Note_on_c, 0, 53, 20
3, 18480, Note_on_c, 0, 56, 20
3, 18480, Note_on_c, 0, 61, 34
3, 18480, Note_on_c, 0, 65, 41
3, 18708, Note_on_c, 0, 65, 0
3, 18708, Note_on_c, 0, 53, 0
3, 18708, Note_on_c, 0, 56, 0
3, 18708, Note_on_c, 0, 61, 0
3, 18720, Note_on_c, 0, 51, 65
3, 18733, Control_c, 0, 64, 0
3, 18867, Control_c, 0, 64, 127
3, 18948, Note_on_c, 0, 51, 0
3, 18960, Note_on_c, 0, 58, 19
3, 18960, Note_on_c, 0, 61, 27
3, 18960, Note_on_c, 0, 67, 33
3, 19188, Note_on_c, 0, 67, 0
3, 19188, Note_on_c, 0, 61, 0
3, 19188, Note_on_c, 0, 58, 0
3, 19200, Note_on_c, 0, 58, 20
3, 19200, Note_on_c, 0, 61, 28
3, 19200, Note_on_c, 0, 67, 34
3, 19428, Note_on_c, 0, 67, 0
3, 19428, Note_on_c, 0, 61, 0
3, 19428, Note_on_c, 0, 58, 0
3, 19440, Note_on_c, 0, 49, 57
3, 19456, Control_c, 0, 64, 0
3, 19573, Control_c, 0, 64, 127
3, 19668, Note_on_c, 0, 49, 0
3, 19680, Note_on_c, 0, 56, 18
3, 19680, Note_on_c, 0, 61, 25
3, 19680, Note_on_c, 0, 68, 30
3, 19908, Note_on_c, 0, 68, 0
3, 19908, Note_on_c, 0, 61, 0
3, 19908, Note_on_c, 0, 56, 0
3, 19920, Note_on_c, 0, 56, 18
3, 19920, Note_on_c, 0, 61, 25
3, 19920, Note_on_c, 0, 68, 30
3, 20148, Note_on_c, 0, 68, 0
3, 20148, Note_on_c, 0, 61, 0
3, 20148, Note_on_c, 0, 56, 0
3, 20160, Note_on_c, 0, 51, 69
3, 20160, Control_c, 0, 64, 0
3, 20170, Control_c, 0, 64, 0
3, 20280, Control_c, 0, 64, 127
3, 20388, Note_on_c, 0, 51, 0
3, 20400, Note_on_c, 0, 58, 25
3, 20400, Note_on_c, 0, 61, 34
3, 20400, Note_on_c, 0, 67, 41
3, 20628, Note_on_c, 0, 67, 0
3, 20628, Note_on_c, 0, 61, 0
3, 20628, Note_on_c, 0, 58, 0
3, 20640, Note_on_c, 0, 58, 25
3, 20640, Note_on_c, 0, 61, 34
3, 20640, Note_on_c, 0, 67, 41
3, 20868, Note_on_c, 0, 67, 0
3, 20868, Note_on_c, 0, 61, 0
3, 20868, Note_on_c, 0, 58, 0
3, 20880, Note_on_c, 0, 63, 36
3, 20880, Note_on_c, 0, 58, 27
3, 20880, Note_on_c, 0, 61, 36
3, 20880, Note_on_c, 0, 67, 45
3, 21108, Note_on_c, 0, 67, 0
3, 21108, Note_on_c, 0, 63, 0
3, 21108, Note_on_c, 0, 58, 0
3, 21108, Note_on_c, 0, 61, 0
3, 21120, Note_on_c, 0, 63, 34
3, 21120, Note_on_c, 0, 58, 25
3, 21120, Note_on_c, 0, 61, 34
3, 21120, Note_on_c, 0, 67, 41
3, 21348, Note_on_c, 0, 67, 0
3, 21348, Note_on_c, 0, 63, 0
3, 21348, Note_on_c, 0, 58, 0
3, 21348, Note_on_c, 0, 61, 0
3, 21360, Note_on_c, 0, 58, 25
3, 21360, Note_on_c, 0, 61, 34
3, 21360, Note_on_c, 0, 67, 41
3, 21588, Note_on_c, 0, 67, 0
3, 21588, Note_on_c, 0, 61, 0
3, 21588, Note_on_c, 0, 58, 0
3, 21600, Note_on_c, 0, 41, 68
3, 21613, Control_c, 0, 64, 0
3, 21747, Control_c, 0, 64, 127
3, 21828, Note_on_c, 0, 41, 0
3, 21840, Note_on_c, 0, 53, 24
3, 21840, Note_on_c, 0, 60, 24
3, 21840, Note_on_c, 0, 65, 33
3, 22068, Note_on_c, 0, 65, 0
3, 22068, Note_on_c, 0, 60, 0
3, 22068, Note_on_c, 0, 53, 0
3, 22080, Note_on_c, 0, 53, 25
3, 22080, Note_on_c, 0, 60, 25
3, 22080, Note_on_c, 0, 65, 34
3, 22308, Note_on_c, 0, 65, 0
3, 22308, Note_on_c, 0, 60, 0
3, 22308, Note_on_c, 0, 53, 0
3, 22320, Note_on_c, 0, 46, 57
3, 22334, Control_c, 0, 64, 0
3, 22453, Control_c, 0, 64, 127
3, 22548, Note_on_c, 0, 46, 0
3, 22560, Note_on_c, 0, 53, 21
3, 22560, Note_on_c, 0, 58, 24
3, 22560, Note_on_c, 0, 65, 29
3, 22788, Note_on_c, 0, 65, 0
3, 22788, Note_on_c, 0, 58, 0
3, 22788, Note_on_c, 0, 53, 0
3, 22800, Note_on_c, 0, 53, 21
3, 22800, Note_on_c, 0, 58, 24
3, 22800, Note_on_c, 0, 65, 29
3, 23028, Note_on_c, 0, 65, 0
3, 23028, Note_on_c, 0, 58, 0
3, 23028, Note_on_c, 0, 53, 0
3, 23040, Note_on_c, 0, 51, 57
3, 23040, Control_c, 0, 64, 0
3, 23050, Control_c, 0, 64, 0
3, 23160, Control_c, 0, 64, 127
3, 23268, Note_on_c, 0, 51, 0
3, 23280, Note_on_c, 0, 53, 27
3, 23280, Note_on_c, 0, 58, 30
3, 23280, Note_on_c, 0, 65, 36
3, 23508, Note_on_c, 0, 65, 0
3, 23508, Note_on_c, 0, 58, 0
3, 23508, Note_on_c, 0, 53, 0
3, 23520, Note_on_c, 0, 53, 27
3, 23520, Note_on_c, 0, 58, 30
3, 23520, Note_on_c, 0, 65, 36
3, 23748, Note_on_c, 0, 65, 0
3, 23748, Note_on_c, 0, 58, 0
3, 23748, Note_on_c, 0, 53, 0
3, 23760, Note_on_c, 0, 39, 39
3, 23774, Control_c, 0, 64, 0
3, 23859, Control_c, 0, 64, 127
3, 23988, Note_on_c, 0, 39, 0
3, 24000, Note_on_c, 0, 51, 18
3, 24000, Note_on_c, 0, 58, 25
3, 24000, Note_on_c, 0, 63, 30
3, 24228, Note_on_c, 0, 63, 0
3, 24228, Note_on_c, 0, 58, 0
3, 24228, Note_on_c, 0, 51, 0
3, 24240, Note_on_c, 0, 51, 14
3, 24240, Note_on_c, 0, 58, 20
3, 24240, Note_on_c, 0, 63, 23
3, 24468, Note_on_c, 0, 63, 0
3, 24468, Note_on_c, 0, 58, 0
3, 24468, Note_on_c, 0, 51, 0
3, 24480, Note_on_c, 0, 44, 39
3, 24495, Control_c, 0, 64, 0
3, 24653, Control_c, 0, 64, 127
3, 24708, Note_on_c, 0, 44, 0
3, 24720, Note_on_c, 0, 56, 20
3, 24720, Note_on_c, 0, 51, 13
3, 24720, Note_on_c, 0, 63, 23
3, 24948, Note_on_c, 0, 63, 0
3, 24948, Note_on_c, 0, 51, 0
3, 24948, Note_on_c, 0, 56, 0
3, 24960, Note_on_c, 0, 56, 18
3, 24960, Note_on_c, 0, 51, 12
3, 24960, Note_on_c, 0, 63, 22
3, 25188, Note_on_c, 0, 63, 0
3, 25188, Note_on_c, 0, 51, 0
3, 25188, Note_on_c, 0, 56, 0
3, 25200, Note_on_c, 0, 56, 20
3, 25200, Note_on_c, 0, 51, 13
3, 25200, Note_on_c, 0, 63, 23
3, 25428, Note_on_c, 0, 63, 0
3, 25428, Note_on_c, 0, 51, 0
3, 25428, Note_on_c, 0, 56, 0
3, 25440, Note_on_c, 0, 56, 18
3, 25440, Note_on_c, 0, 51, 12
3, 25440, Note_on_c, 0, 63, 22
3, 25668, Note_on_c, 0, 63, 0
3, 25668, Note_on_c, 0, 51, 0
3, 25668, Note_on_c, 0, 56, 0
3, 25680, Note_on_c, 0, 56, 18
3, 25680, Note_on_c, 0, 51, 12
3, 25680, Note_on_c, 0, 63, 22
3, 25908, Note_on_c, 0, 63, 0
3, 25908, Note_on_c, 0, 51, 0
3, 25908, Note_on_c, 0, 56, 0
3, 25920, Note_on_c, 0, 40, 28
3, 25930, Control_c, 0, 64, 0
3, 26023, Control_c, 0, 64, 127
3, 26148, Note_on_c, 0, 40, 0
3, 26160, Note_on_c, 0, 52, 18
3, 26160, Note_on_c, 0, 59, 21
3, 26160, Note_on_c, 0, 64, 25
3, 26388, Note_on_c, 0, 64, 0
3, 26388, Note_on_c, 0, 59, 0
3, 26388, Note_on_c, 0, 52, 0
3, 26400, Note_on_c, 0, 52, 18
3, 26400, Note_on_c, 0, 59, 21
3, 26400, Note_on_c, 0, 64, 25
3, 26628, Note_on_c, 0, 64, 0
3, 26628, Note_on_c, 0, 59, 0
3, 26628, Note_on_c, 0, 52, 0
3, 26640, Note_on_c, 0, 52, 18
3, 26640, Note_on_c, 0, 59, 21
3, 26640, Note_on_c, 0, 64, 25
3, 26655, Control_c, 0, 64, 0
3, 26868, Note_on_c, 0, 64, 0
3, 26868, Note_on_c, 0, 59, 0
3, 26868, Note_on_c, 0, 52, 0
3, 26880, Note_on_c, 0, 52, 18
3, 26880, Note_on_c, 0, 59, 21
3, 26880, Note_on_c, 0, 64, 25
3, 27108, Note_on_c, 0, 59, 0
3, 27108, Note_on_c, 0, 52, 0
3, 27115, Note_on_c, 0, 64, 0
3, 27120, Note_on_c, 0, 52, 16
3, 27120, Note_on_c, 0, 59, 22
3, 27348, Note_on_c, 0, 59, 0
3, 27348, Note_on_c, 0, 52, 0
3, 27360, Note_on_c, 0, 45, 34
3, 27451, Control_c, 0, 64, 127
3, 27588, Note_on_c, 0, 45, 0
3, 27600, Note_on_c, 0, 52, 20
3, 27600, Note_on_c, 0, 57, 29
3, 27600, Note_on_c, 0, 64, 39
3, 27828, Note_on_c, 0, 64, 0
3, 27828, Note_on_c, 0, 57, 0
3, 27828, Note_on_c, 0, 52, 0
3, 27840, Note_on_c, 0, 53, 23
3, 27840, Note_on_c, 0, 57, 31
3, 27840, Note_on_c, 0, 65, 42
3, 27852, Control_c, 0, 64, 0
3, 28068, Note_on_c, 0, 65, 0
3, 28068, Note_on_c, 0, 57, 0
3, 28068, Note_on_c, 0, 53, 0
3, 28080, Note_on_c, 0, 53, 25
3, 28080, Note_on_c, 0, 57, 34
3, 28080, Note_on_c, 0, 65, 45
3, 28308, Note_on_c, 0, 65, 0
3, 28308, Note_on_c, 0, 57, 0
3, 28308, Note_on_c, 0, 53, 0
3, 28320, Note_on_c, 0, 54, 26
3, 28320, Note_on_c, 0, 57, 35
3, 28320, Note_on_c, 0, 66, 48
3, 28548, Note_on_c, 0, 66, 0
3, 28548, Note_on_c, 0, 57, 0
3, 28548, Note_on_c, 0, 54, 0
3, 28560, Note_on_c, 0, 57, 38
3, 28560, Note_on_c, 0, 55, 28
3, 28560, Note_on_c, 0, 67, 51
3, 28788, Note_on_c, 0, 67, 0
3, 28788, Note_on_c, 0, 55, 0
3, 28788, Note_on_c, 0, 57, 0
3, 28800, Note_on_c, 0, 44, 42
3, 28903, Control_c, 0, 64, 127
3, 29028, Note_on_c, 0, 44, 0
3, 29040, Note_on_c, 0, 56, 28
3, 29040, Note_on_c, 0, 63, 31
3, 29040, Note_on_c, 0, 66, 38
3, 29268, Note_on_c, 0, 66, 0
3, 29268, Note_on_c, 0, 63, 0
3, 29268, Note_on_c, 0, 56, 0
3, 29280, Note_on_c, 0, 56, 28
3, 29280, Note_on_c, 0, 63, 31
3, 29280, Note_on_c, 0, 66, 38
3, 29291, Control_c, 0, 64, 0
3, 29508, Note_on_c, 0, 66, 0
3, 29508, Note_on_c, 0, 63, 0
3, 29508, Note_on_c, 0, 56, 0
3, 29520, Note_on_c, 0, 56, 28
3, 29520, Note_on_c, 0, 63, 31
3, 29520, Note_on_c, 0, 66, 38
3, 29748, Note_on_c, 0, 66, 0
3, 29748, Note_on_c, 0, 63, 0
3, 29748, Note_on_c, 0, 56, 0
3, 29760, Note_on_c, 0, 56, 26
3, 29760, Note_on_c, 0, 63, 29
3, 29760, Note_on_c, 0, 66, 36
3, 29988, Note_on_c, 0, 66, 0
3, 29988, Note_on_c, 0, 63, 0
3, 29988, Note_on_c, 0, 56, 0
3, 30000, Note_on_c, 0, 66, 36
3, 30000, Note_on_c, 0, 56, 23
3, 30000, Note_on_c, 0, 63, 32
3, 30228, Note_on_c, 0, 63, 0
3, 30228, Note_on_c, 0, 56, 0
3, 30228, Note_on_c, 0, 66, 0
3, 30240, Note_on_c, 0, 49, 39
3, 30331, Control_c, 0, 64, 127
3, 30468, Note_on_c, 0, 49, 0
3, 30480, Note_on_c, 0, 55, 23
3, 30480, Note_on_c, 0, 61, 31
3, 30480, Note_on_c, 0, 67, 42
3, 30708, Note_on_c, 0, 67, 0
3, 30708, Note_on_c, 0, 61, 0
3, 30708, Note_on_c, 0, 55, 0
3, 30720, Note_on_c, 0, 56, 25
3, 30720, Note_on_c, 0, 61, 34
3, 30720, Note_on_c, 0, 68, 45
3, 30732, Control_c, 0, 64, 0
3, 30948, Note_on_c, 0, 68, 0
3, 30948, Note_on_c, 0, 61, 0
3, 30948, Note_on_c, 0, 56, 0
3, 30960, Note_on_c, 0, 56, 27
3, 30960, Note_on_c, 0, 61, 37
3, 30960, Note_on_c, 0, 68, 50
3, 31188, Note_on_c, 0, 68, 0
3, 31188, Note_on_c, 0, 61, 0
3, 31188, Note_on_c, 0, 56, 0
3, 31200, Note_on_c, 0, 57, 27
3, 31200, Note_on_c, 0, 61, 39
3, 31200, Note_on_c, 0, 69, 53
3, 31428, Note_on_c, 0, 69, 0
3, 31428, Note_on_c, 0, 61, 0
3, 31428, Note_on_c, 0, 57, 0
3, 31440, Note_on_c, 0, 60, 42
3, 31440, Note_on_c, 0, 58, 31
3, 31440, Note_on_c, 0, 70, 56
3, 31668, Note_on_c, 0, 70, 0
3, 31668, Note_on_c, 0, 58, 0
3, 31668, Note_on_c, 0, 60, 0
3, 31680, Note_on_c, 0, 47, 67
3, 31746, Control_c, 0, 64, 127
3, 31908, Note_on_c, 0, 47, 0
3, 31920, Note_on_c, 0, 59, 29
3, 31920, Note_on_c, 0, 66, 33
3, 31920, Note_on_c, 0, 69, 39
3, 32148, Note_on_c, 0, 69, 0
3, 32148, Note_on_c, 0, 66, 0
3, 32148, Note_on_c, 0, 59, 0
3, 32160, Note_on_c, 0, 63, 33
3, 32160, Note_on_c, 0, 59, 29
3, 32160, Note_on_c, 0, 66, 33
3, 32160, Note_on_c, 0, 69, 39
3, 32388, Note_on_c, 0, 69, 0
3, 32388, Note_on_c, 0, 63, 0
3, 32388, Note_on_c, 0, 59, 0
3, 32388, Note_on_c, 0, 66, 0
3, 32400, Note_on_c, 0, 63, 33
3, 32400, Note_on_c, 0, 59, 29
3, 32400, Note_on_c, 0, 66, 33
3, 32400, Note_on_c, 0, 69, 39
3, 32408, Control_c, 0, 64, 0
3, 32628, Note_on_c, 0, 69, 0
3, 32628, Note_on_c, 0, 63, 0
3, 32628, Note_on_c, 0, 59, 0
3, 32628, Note_on_c, 0, 66, 0
3, 32640, Note_on_c, 0, 61, 33
3, 32640, Note_on_c, 0, 59, 29
3, 32640, Note_on_c, 0, 66, 33
3, 32640, Note_on_c, 0, 69, 39
3, 32868, Note_on_c, 0, 69, 0
3, 32868, Note_on_c, 0, 61, 0
3, 32868, Note_on_c, 0, 59, 0
3, 32868, Note_on_c, 0, 66, 0
3, 32880, Note_on_c, 0, 63, 29
3, 32880, Note_on_c, 0, 69, 39
3, 32880, Note_on_c, 0, 59, 26
3, 32880, Note_on_c, 0, 66, 35
3, 33108, Note_on_c, 0, 66, 0
3, 33108, Note_on_c, 0, 63, 0
3, 33108, Note_on_c, 0, 69, 0
3, 33108, Note_on_c, 0, 59, 0
3, 33120, Note_on_c, 0, 52, 52
3, 33223, Control_c, 0, 64, 127
3, 33348, Note_on_c, 0, 52, 0
3, 33360, Note_on_c, 0, 59, 35
3, 33360, Note_on_c, 0, 64, 35
3, 33360, Note_on_c, 0, 71, 41
3, 33588, Note_on_c, 0, 71, 0
3, 33588, Note_on_c, 0, 64, 0
3, 33588, Note_on_c, 0, 59, 0
3, 33600, Note_on_c, 0, 58, 29
3, 33600, Note_on_c, 0, 64, 33
3, 33600, Note_on_c, 0, 70, 40
3, 33828, Note_on_c, 0, 70, 0
3, 33828, Note_on_c, 0, 64, 0
3, 33828, Note_on_c, 0, 58, 0
3, 33840, Note_on_c, 0, 51, 52
3, 33848, Control_c, 0, 64, 0
3, 33920, Control_c, 0, 64, 127
3, 34068, Note_on_c, 0, 51, 0
3, 34080, Note_on_c, 0, 58, 27
3, 34080, Note_on_c, 0, 63, 31
3, 34080, Note_on_c, 0, 70, 36
3, 34308, Note_on_c, 0, 70, 0
3, 34308, Note_on_c, 0, 63, 0
3, 34308, Note_on_c, 0, 58, 0
3, 34320, Note_on_c, 0, 58, 23
3, 34320, Note_on_c, 0, 70, 35
3, 34320, Note_on_c, 0, 63, 31
3, 34548, Note_on_c, 0, 63, 0
3, 34548, Note_on_c, 0, 70, 0
3, 34548, Note_on_c, 0, 58, 0
3, 34560, Note_on_c, 0, 50, 38
3, 34571, Control_c, 0, 64, 0
3, 34674, Control_c, 0, 64, 127
3, 34788, Note_on_c, 0, 50, 0
3, 34800, Note_on_c, 0, 57, 20
3, 34800, Note_on_c, 0, 62, 22
3, 34800, Note_on_c, 0, 69, 28
3, 35028, Note_on_c, 0, 69, 0
3, 35028, Note_on_c, 0, 62, 0
3, 35028, Note_on_c, 0, 57, 0
3, 35040, Note_on_c, 0, 56, 20
3, 35040, Note_on_c, 0, 62, 23
3, 35040, Note_on_c, 0, 68, 28
3, 35268, Note_on_c, 0, 68, 0
3, 35268, Note_on_c, 0, 62, 0
3, 35268, Note_on_c, 0, 56, 0
3, 35280, Note_on_c, 0, 49, 38
3, 35290, Control_c, 0, 64, 0
3, 35406, Control_c, 0, 64, 127
3, 35508, Note_on_c, 0, 49, 0
3, 35520, Note_on_c, 0, 56, 17
3, 35520, Note_on_c, 0, 61, 20
3, 35520, Note_on_c, 0, 68, 23
3, 35748, Note_on_c, 0, 68, 0
3, 35748, Note_on_c, 0, 61, 0
3, 35748, Note_on_c, 0, 56, 0
3, 35760, Note_on_c, 0, 56, 15
3, 35760, Note_on_c, 0, 68, 23
3, 35760, Note_on_c, 0, 61, 21
3, 35988, Note_on_c, 0, 61, 0
3, 35988, Note_on_c, 0, 68, 0
3, 35988, Note_on_c, 0, 56, 0
3, 36000, Note_on_c, 0, 48, 36
3, 36011, Control_c, 0, 64, 0
3, 36114, Control_c, 0, 64, 127
3, 36228, Note_on_c, 0, 48, 0
3, 36240, Note_on_c, 0, 55, 20
3, 36240, Note_on_c, 0, 60, 22
3, 36240, Note_on_c, 0, 67, 27
3, 36468, Note_on_c, 0, 67, 0
3, 36468, Note_on_c, 0, 60, 0
3, 36468, Note_on_c, 0, 55, 0
3, 36480, Note_on_c, 0, 54, 20
3, 36480, Note_on_c, 0, 60, 22
3, 36480, Note_on_c, 0, 66, 27
3, 36708, Note_on_c, 0, 66, 0
3, 36708, Note_on_c, 0, 60, 0
3, 36708, Note_on_c, 0, 54, 0
3, 36720, Note_on_c, 0, 47, 37
3, 36727, Control_c, 0, 64, 0
3, 36800, Control_c, 0, 64, 127
3, 36948, Note_on_c, 0, 47, 0
3, 36960, Note_on_c, 0, 59, 20
3, 36960, Note_on_c, 0, 64, 22
3, 36960, Note_on_c, 0, 71, 27
3, 37188, Note_on_c, 0, 71, 0
3, 37188, Note_on_c, 0, 64, 0
3, 37188, Note_on_c, 0, 59, 0
3, 37200, Note_on_c, 0, 59, 17
3, 37200, Note_on_c, 0, 69, 27
3, 37200, Note_on_c, 0, 63, 23
3, 37213, Control_c, 0, 64, 0
3, 37292, Control_c, 0, 64, 127
3, 37428, Note_on_c, 0, 63, 0
3, 37428, Note_on_c, 0, 69, 0
3, 37428, Note_on_c, 0, 59, 0
3, 37440, Note_on_c, 0, 40, 39
3, 37455, Control_c, 0, 64, 0
3, 37577, Control_c, 0, 64, 127
3, 37668, Note_on_c, 0, 40, 0
3, 37680, Note_on_c, 0, 56, 13
3, 37680, Note_on_c, 0, 59, 18
3, 37680, Note_on_c, 0, 68, 22
3, 37908, Note_on_c, 0, 68, 0
3, 37908, Note_on_c, 0, 59, 0
3, 37908, Note_on_c, 0, 56, 0
3, 37920, Note_on_c, 0, 56, 14
3, 37920, Note_on_c, 0, 59, 19
3, 37920, Note_on_c, 0, 68, 24
3, 38148, Note_on_c, 0, 68, 0
3, 38148, Note_on_c, 0, 59, 0
3, 38148, Note_on_c, 0, 56, 0
3, 38160, Note_on_c, 0, 56, 15
3, 38160, Note_on_c, 0, 59, 21
3, 38160, Note_on_c, 0, 68, 25
3, 38388, Note_on_c, 0, 68, 0
3, 38388, Note_on_c, 0, 59, 0
3, 38388, Note_on_c, 0, 56, 0
3, 38400, Note_on_c, 0, 56, 16
3, 38400, Note_on_c, 0, 59, 21
3, 38400, Note_on_c, 0, 68, 26
3, 38628, Note_on_c, 0, 68, 0
3, 38628, Note_on_c, 0, 59, 0
3, 38628, Note_on_c, 0, 56, 0
3, 38640, Note_on_c, 0, 59, 23
3, 38640, Note_on_c, 0, 56, 16
3, 38640, Note_on_c, 0, 68, 27
3, 38868, Note_on_c, 0, 68, 0
3, 38868, Note_on_c, 0, 56, 0
3, 38868, Note_on_c, 0, 59, 0
3, 38880, Note_on_c, 0, 52, 53
3, 38896, Control_c, 0, 64, 0
3, 38983, Control_c, 0, 64, 127
3, 39108, Note_on_c, 0, 52, 0
3, 39120, Note_on_c, 0, 57, 22
3, 39120, Note_on_c, 0, 60, 25
3, 39120, Note_on_c, 0, 69, 35
3, 39348, Note_on_c, 0, 69, 0
3, 39348, Note_on_c, 0, 60, 0
3, 39348, Note_on_c, 0, 57, 0
3, 39360, Note_on_c, 0, 57, 23
3, 39360, Note_on_c, 0, 60, 26
3, 39360, Note_on_c, 0, 69, 31
3, 39588, Note_on_c, 0, 69, 0
3, 39588, Note_on_c, 0, 60, 0
3, 39588, Note_on_c, 0, 57, 0
3, 39600, Note_on_c, 0, 57, 22
3, 39600, Note_on_c, 0, 60, 25
3, 39600, Note_on_c, 0, 69, 35
3, 39828, Note_on_c, 0, 69, 0
3, 39828, Note_on_c, 0, 60, 0
3, 39828, Note_on_c, 0, 57, 0
3, 39840, Note_on_c, 0, 57, 24
3, 39840, Note_on_c, 0, 60, 27
3, 39840, Note_on_c, 0, 69, 32
3, 40068, Note_on_c, 0, 69, 0
3, 40068, Note_on_c, 0, 60, 0
3, 40068, Note_on_c, 0, 57, 0
3, 40080, Note_on_c, 0, 69, 32
3, 40080, Note_on_c, 0, 57, 24
3, 40080, Note_on_c, 0, 60, 27
3, 40308, Note_on_c, 0, 60, 0
3, 40308, Note_on_c, 0, 57, 0
3, 40308, Note_on_c, 0, 69, 0
3, 40320, Note_on_c, 0, 40, 44
3, 40335, Control_c, 0, 64, 0
3, 40435, Control_c, 0, 64, 127
3, 40548, Note_on_c, 0, 40, 0
3, 40560, Note_on_c, 0, 56, 15
3, 40560, Note_on_c, 0, 59, 21
3, 40560, Note_on_c, 0, 68, 25
3, 40788, Note_on_c, 0, 68, 0
3, 40788, Note_on_c, 0, 59, 0
3, 40788, Note_on_c, 0, 56, 0
3, 40800, Note_on_c, 0, 56, 16
3, 40800, Note_on_c, 0, 59, 22
3, 40800, Note_on_c, 0, 68, 27
3, 41028, Note_on_c, 0, 68, 0
3, 41028, Note_on_c, 0, 59, 0
3, 41028, Note_on_c, 0, 56, 0
3, 41040, Note_on_c, 0, 56, 17
3, 41040, Note_on_c, 0, 59, 24
3, 41040, Note_on_c, 0, 68, 28
3, 41268, Note_on_c, 0, 68, 0
3, 41268, Note_on_c, 0, 59, 0
3, 41268, Note_on_c, 0, 56, 0
3, 41280, Note_on_c, 0, 56, 18
3, 41280, Note_on_c, 0, 59, 24
3, 41280, Note_on_c, 0, 68, 29
3, 41508, Note_on_c, 0, 68, 0
3, 41508, Note_on_c, 0, 59, 0
3, 41508, Note_on_c, 0, 56, 0
3, 41520, Note_on_c, 0, 59, 26
3, 41520, Note_on_c, 0, 56, 18
3, 41520, Note_on_c, 0, 68, 31
3, 41748, Note_on_c, 0, 68, 0
3, 41748, Note_on_c, 0, 56, 0
3, 41748, Note_on_c, 0, 59, 0
3, 41760, Note_on_c, 0, 52, 53
3, 41777, Control_c, 0, 64, 0
3, 41863, Control_c, 0, 64, 127
3, 41988, Note_on_c, 0, 52, 0
3, 42000, Note_on_c, 0, 57, 22
3, 42000, Note_on_c, 0, 60, 25
3, 42000, Note_on_c, 0, 69, 35
3, 42228, Note_on_c, 0, 69, 0
3, 42228, Note_on_c, 0, 60, 0
3, 42228, Note_on_c, 0, 57, 0
3, 42240, Note_on_c, 0, 57, 23
3, 42240, Note_on_c, 0, 60, 26
3, 42240, Note_on_c, 0, 69, 31
3, 42468, Note_on_c, 0, 69, 0
3, 42468, Note_on_c, 0, 60, 0
3, 42468, Note_on_c, 0, 57, 0
3, 42480, Note_on_c, 0, 57, 22
3, 42480, Note_on_c, 0, 60, 25
3, 42480, Note_on_c, 0, 69, 35
3, 42708, Note_on_c, 0, 69, 0
3, 42708, Note_on_c, 0, 60, 0
3, 42708, Note_on_c, 0, 57, 0
3, 42720, Note_on_c, 0, 57, 24
3, 42720, Note_on_c, 0, 60, 27
3, 42720, Note_on_c, 0, 69, 32
3, 42948, Note_on_c, 0, 69, 0
3, 42948, Note_on_c, 0, 60, 0
3, 42948, Note_on_c, 0, 57, 0
3, 42960, Note_on_c, 0, 69, 32
3, 42960, Note_on_c, 0, 57, 24
3, 42960, Note_on_c, 0, 60, 27
3, 43188, Note_on_c, 0, 60, 0
3, 43188, Note_on_c, 0, 57, 0
3, 43188, Note_on_c, 0, 69, 0
3, 43200, Note_on_c, 0, 40, 44
3, 43216, Control_c, 0, 64, 0
3, 43371, Control_c, 0, 64, 127
3, 43428, Note_on_c, 0, 40, 0
3, 43440, Note_on_c, 0, 56, 15
3, 43440, Note_on_c, 0, 59, 21
3, 43440, Note_on_c, 0, 68, 25
3, 43668, Note_on_c, 0, 68, 0
3, 43668, Note_on_c, 0, 59, 0
3, 43668, Note_on_c, 0, 56, 0
3, 43680, Note_on_c, 0, 56, 16
3, 43680, Note_on_c, 0, 59, 22
3, 43680, Note_on_c, 0, 68, 27
3, 43908, Note_on_c, 0, 68, 0
3, 43908, Note_on_c, 0, 59, 0
3, 43908, Note_on_c, 0, 56, 0
3, 43920, Note_on_c, 0, 56, 17
3, 43920, Note_on_c, 0, 59, 24
3, 43920, Note_on_c, 0, 68, 28
3, 44148, Note_on_c, 0, 68, 0
3, 44148, Note_on_c, 0, 59, 0
3, 44148, Note_on_c, 0, 56, 0
3, 44160, Note_on_c, 0, 56, 18
3, 44160, Note_on_c, 0, 59, 24
3, 44160, Note_on_c, 0, 68, 29
3, 44388, Note_on_c, 0, 68, 0
3, 44388, Note_on_c, 0, 59, 0
3, 44388, Note_on_c, 0, 56, 0
3, 44400, Note_on_c, 0, 59, 26
3, 44400, Note_on_c, 0, 56, 18
3, 44400, Note_on_c, 0, 68, 31
3, 44628, Note_on_c, 0, 68, 0
3, 44628, Note_on_c, 0, 56, 0
3, 44628, Note_on_c, 0, 59, 0
3, 44640, Note_on_c, 0, 56, 17
3, 44640, Note_on_c, 0, 59, 24
3, 44640, Note_on_c, 0, 68, 28
3, 44868, Note_on_c, 0, 68, 0
3, 44868, Note_on_c, 0, 59, 0
3, 44868, Note_on_c, 0, 56, 0
3, 44880, Note_on_c, 0, 56, 15
3, 44880, Note_on_c, 0, 59, 21
3, 44880, Note_on_c, 0, 68, 25
3, 45108, Note_on_c, 0, 68, 0
3, 45108, Note_on_c, 0, 59, 0
3, 45108, Note_on_c, 0, 56, 0
3, 45120, Note_on_c, 0, 56, 16
3, 45120, Note_on_c, 0, 59, 22
3, 45120, Note_on_c, 0, 68, 27
3, 45348, Note_on_c, 0, 68, 0
3, 45348, Note_on_c, 0, 59, 0
3, 45348, Note_on_c, 0, 56, 0
3, 45360, Note_on_c, 0, 56, 20
3, 45360, Note_on_c, 0, 59, 27
3, 45360, Note_on_c, 0, 68, 33
3, 45379, Control_c, 0, 64, 0
3, 45480, Control_c, 0, 64, 127
3, 45588, Note_on_c, 0, 68, 0
3, 45588, Note_on_c, 0, 59, 0
3, 45588, Note_on_c, 0, 56, 0
3, 45600, Note_on_c, 0, 56, 21
3, 45600, Note_on_c, 0, 59, 28
3, 45600, Note_on_c, 0, 68, 35
3, 45828, Note_on_c, 0, 68, 0
3, 45828, Note_on_c, 0, 59, 0
3, 45828, Note_on_c, 0, 56, 0
3, 45840, Note_on_c, 0, 59, 31
3, 45840, Note_on_c, 0, 56, 23
3, 45840, Note_on_c, 0, 68, 37
3, 46068, Note_on_c, 0, 68, 0
3, 46068, Note_on_c, 0, 56, 0
3, 46068, Note_on_c, 0, 59, 0
3, 46080, Note_on_c, 0, 56, 21
3, 46080, Note_on_c, 0, 59, 29
3, 46080, Note_on_c, 0, 68, 35
3, 46091, Control_c, 0, 64, 0
3, 46171, Control_c, 0, 64, 127
3, 46308, Note_on_c, 0, 68, 0
3, 46308, Note_on_c, 0, 59, 0
3, 46308, Note_on_c, 0, 56, 0
3, 46320, Note_on_c, 0, 56, 18
3, 46320, Note_on_c, 0, 59, 26
3, 46320, Note_on_c, 0, 68, 31
3, 46548, Note_on_c, 0, 68, 0
3, 46548, Note_on_c, 0, 59, 0
3, 46548, Note_on_c, 0, 56, 0
3, 46560, Note_on_c, 0, 56, 20
3, 46560, Note_on_c, 0, 59, 27
3, 46560, Note_on_c, 0, 68, 34
3, 46788, Note_on_c, 0, 68, 0
3, 46788, Note_on_c, 0, 59, 0
3, 46788, Note_on_c, 0, 56, 0
3, 46800, Note_on_c, 0, 56, 22
3, 46800, Note_on_c, 0, 59, 30
3, 46800, Note_on_c, 0, 68, 36
3, 47028, Note_on_c, 0, 68, 0
3, 47028, Note_on_c, 0, 59, 0
3, 47028, Note_on_c, 0, 56, 0
3, 47040, Note_on_c, 0, 56, 23
3, 47040, Note_on_c, 0, 59, 31
3, 47040, Note_on_c, 0, 68, 37
3, 47268, Note_on_c, 0, 68, 0
3, 47268, Note_on_c, 0, 59, 0
3, 47268, Note_on_c, 0, 56, 0
3, 47280, Note_on_c, 0, 59, 34
3, 47280, Note_on_c, 0, 56, 24
3, 47280, Note_on_c, 0, 68, 41
3, 47508, Note_on_c, 0, 68, 0
3, 47508, Note_on_c, 0, 56, 0
3, 47508, Note_on_c, 0, 59, 0
3, 47520, Note_on_c, 0, 56, 42
3, 47520, Note_on_c, 0, 59, 42
3, 47520, Note_on_c, 0, 68, 50
3, 47527, Control_c, 0, 64, 0
3, 47611, Control_c, 0, 64, 127
3, 47748, Note_on_c, 0, 68, 0
3, 47748, Note_on_c, 0, 59, 0
3, 47748, Note_on_c, 0, 56, 0
3, 47760, Note_on_c, 0, 41, 40
3, 47760, Note_on_c, 0, 53, 48
3, 47988, Note_on_c, 0, 53, 0
3, 47988, Note_on_c, 0, 41, 0
3, 48000, Note_on_c, 0, 38, 45
3, 48000, Note_on_c, 0, 50, 53
3, 48228, Note_on_c, 0, 50, 0
3, 48228, Note_on_c, 0, 38, 0
3, 48240, Note_on_c, 0, 35, 49
3, 48240, Note_on_c, 0, 47, 58
3, 48468, Note_on_c, 0, 47, 0
3, 48468, Note_on_c, 0, 35, 0
3, 48480, Note_on_c, 0, 32, 54
3, 48480, Note_on_c, 0, 44, 63
3, 48708, Note_on_c, 0, 44, 0
3, 48708, Note_on_c, 0, 32, 0
3, 48720, Note_on_c, 0, 29, 58
3, 48720, Note_on_c, 0, 41, 69
3, 48948, Note_on_c, 0, 41, 0
3, 48948, Note_on_c, 0, 29, 0
3, 48960, Note_on_c, 0, 27, 77
3, 48960, Note_on_c, 0, 39, 86
3, 48969, Control_c, 0, 64, 0
3, 49067, Control_c, 0, 64, 127
3, 49188, Note_on_c, 0, 39, 0
3, 49188, Note_on_c, 0, 27, 0
3, 49200, Note_on_c, 0, 51, 32
3, 49200, Note_on_c, 0, 58, 45
3, 49200, Note_on_c, 0, 63, 45
3, 49428, Note_on_c, 0, 63, 0
3, 49428, Note_on_c, 0, 58, 0
3, 49428, Note_on_c, 0, 51, 0
3, 49440, Note_on_c, 0, 51, 34
3, 49440, Note_on_c, 0, 58, 48
3, 49440, Note_on_c, 0, 63, 48
3, 49668, Note_on_c, 0, 63, 0
3, 49668, Note_on_c, 0, 58, 0
3, 49668, Note_on_c, 0, 51, 0
3, 49680, Note_on_c, 0, 51, 37
3, 49680, Note_on_c, 0, 58, 50
3, 49680, Note_on_c, 0, 63, 50
3, 49908, Note_on_c, 0, 63, 0
3, 49908, Note_on_c, 0, 58, 0
3, 49908, Note_on_c, 0, 51, 0
3, 49920, Note_on_c, 0, 51, 34
3, 49920, Note_on_c, 0, 58, 48
3, 49920, Note_on_c, 0, 63, 48
3, 50148, Note_on_c, 0, 63, 0
3, 50148, Note_on_c, 0, 58, 0
3, 50148, Note_on_c, 0, 51, 0
3, 50160, Note_on_c, 0, 51, 34
3, 50160, Note_on_c, 0, 58, 48
3, 50160, Note_on_c, 0, 63, 48
3, 50388, Note_on_c, 0, 63, 0
3, 50388, Note_on_c, 0, 58, 0
3, 50388, Note_on_c, 0, 51, 0
3, 50400, Note_on_c, 0, 32, 71
3, 50400, Note_on_c, 0, 44, 77
3, 50410, Control_c, 0, 64, 0
3, 50491, Control_c, 0, 64, 127
3, 50628, Note_on_c, 0, 44, 0
3, 50628, Note_on_c, 0, 32, 0
3, 50640, Note_on_c, 0, 51, 36
3, 50640, Note_on_c, 0, 56, 41
3, 50640, Note_on_c, 0, 63, 49
3, 50868, Note_on_c, 0, 63, 0
3, 50868, Note_on_c, 0, 56, 0
3, 50868, Note_on_c, 0, 51, 0
3, 50880, Note_on_c, 0, 51, 36
3, 50880, Note_on_c, 0, 56, 41
3, 50880, Note_on_c, 0, 63, 48
3, 51108, Note_on_c, 0, 63, 0
3, 51108, Note_on_c, 0, 56, 0
3, 51108, Note_on_c, 0, 51, 0
3, 51120, Note_on_c, 0, 51, 41
3, 51120, Note_on_c, 0, 56, 46
3, 51120, Note_on_c, 0, 63, 57
3, 51137, Control_c, 0, 64, 0
3, 51269, Control_c, 0, 64, 127
3, 51348, Note_on_c, 0, 63, 0
3, 51348, Note_on_c, 0, 56, 0
3, 51348, Note_on_c, 0, 51, 0
3, 51360, Note_on_c, 0, 51, 36
3, 51360, Note_on_c, 0, 56, 41
3, 51360, Note_on_c, 0, 63, 49
3, 51588, Note_on_c, 0, 63, 0
3, 51588, Note_on_c, 0, 56, 0
3, 51588, Note_on_c, 0, 51, 0
3, 51600, Note_on_c, 0, 51, 36
3, 51600, Note_on_c, 0, 56, 41
3, 51600, Note_on_c, 0, 63, 49
3, 51828, Note_on_c, 0, 63, 0
3, 51828, Note_on_c, 0, 56, 0
3, 51828, Note_on_c, 0, 51, 0
3, 51840, Note_on_c, 0, 25, 69
3, 51840, Note_on_c, 0, 37, 82
3, 51850, Control_c, 0, 64, 0
3, 51960, Control_c, 0, 64, 127
3, 52068, Note_on_c, 0, 37, 0
3, 52068, Note_on_c, 0, 25, 0
3, 52080, Note_on_c, 0, 53, 23
3, 52080, Note_on_c, 0, 56, 26
3, 52080, Note_on_c, 0, 61, 38
3, 52080, Note_on_c, 0, 65, 46
3, 52308, Note_on_c, 0, 65, 0
3, 52308, Note_on_c, 0, 53, 0
3, 52308, Note_on_c, 0, 56, 0
3, 52308, Note_on_c, 0, 61, 0
3, 52320, Note_on_c, 0, 53, 23
3, 52320, Note_on_c, 0, 56, 26
3, 52320, Note_on_c, 0, 61, 38
3, 52320, Note_on_c, 0, 65, 46
3, 52548, Note_on_c, 0, 65, 0
3, 52548, Note_on_c, 0, 53, 0
3, 52548, Note_on_c, 0, 56, 0
3, 52548, Note_on_c, 0, 61, 0
3, 52560, Note_on_c, 0, 53, 25
3, 52560, Note_on_c, 0, 56, 28
3, 52560, Note_on_c, 0, 61, 42
3, 52560, Note_on_c, 0, 65, 51
3, 52788, Note_on_c, 0, 65, 0
3, 52788, Note_on_c, 0, 53, 0
3, 52788, Note_on_c, 0, 56, 0
3, 52788, Note_on_c, 0, 61, 0
3, 52800, Note_on_c, 0, 53, 23
3, 52800, Note_on_c, 0, 56, 26
3, 52800, Note_on_c, 0, 61, 38
3, 52800, Note_on_c, 0, 65, 46
3, 53028, Note_on_c, 0, 65, 0
3, 53028, Note_on_c, 0, 53, 0
3, 53028, Note_on_c, 0, 56, 0
3, 53028, Note_on_c, 0, 61, 0
3, 53040, Note_on_c, 0, 53, 23
3, 53040, Note_on_c, 0, 56, 26
3, 53040, Note_on_c, 0, 61, 38
3, 53040, Note_on_c, 0, 65, 46
3, 53268, Note_on_c, 0, 65, 0
3, 53268, Note_on_c, 0, 53, 0
3, 53268, Note_on_c, 0, 56, 0
3, 53268, Note_on_c, 0, 61, 0
3, 53280, Note_on_c, 0, 27, 60
3, 53280, Note_on_c, 0, 39, 71
3, 53293, Control_c, 0, 64, 0
3, 53427, Control_c, 0, 64, 127
3, 53508, Note_on_c, 0, 39, 0
3, 53508, Note_on_c, 0, 27, 0
3, 53520, Note_on_c, 0, 55, 22
3, 53520, Note_on_c, 0, 58, 30
3, 53520, Note_on_c, 0, 67, 37
3, 53748, Note_on_c, 0, 67, 0
3, 53748, Note_on_c, 0, 58, 0
3, 53748, Note_on_c, 0, 55, 0
3, 53760, Note_on_c, 0, 55, 23
3, 53760, Note_on_c, 0, 58, 32
3, 53760, Note_on_c, 0, 67, 38
3, 53988, Note_on_c, 0, 67, 0
3, 53988, Note_on_c, 0, 58, 0
3, 53988, Note_on_c, 0, 55, 0
3, 54000, Note_on_c, 0, 29, 55
3, 54000, Note_on_c, 0, 41, 65
3, 54017, Control_c, 0, 64, 0
3, 54133, Control_c, 0, 64, 127
3, 54228, Note_on_c, 0, 41, 0
3, 54228, Note_on_c, 0, 29, 0
3, 54240, Note_on_c, 0, 53, 23
3, 54240, Note_on_c, 0, 56, 23
3, 54240, Note_on_c, 0, 61, 32
3, 54240, Note_on_c, 0, 68, 38
3, 54468, Note_on_c, 0, 68, 0
3, 54468, Note_on_c, 0, 53, 0
3, 54468, Note_on_c, 0, 56, 0
3, 54468, Note_on_c, 0, 61, 0
3, 54480, Note_on_c, 0, 53, 23
3, 54480, Note_on_c, 0, 56, 23
3, 54480, Note_on_c, 0, 61, 32
3, 54480, Note_on_c, 0, 68, 38
3, 54708, Note_on_c, 0, 68, 0
3, 54708, Note_on_c, 0, 53, 0
3, 54708, Note_on_c, 0, 56, 0
3, 54708, Note_on_c, 0, 61, 0
3, 54720, Note_on_c, 0, 27, 64
3, 54720, Note_on_c, 0, 39, 71
3, 54720, Control_c, 0, 64, 0
3, 54729, Control_c, 0, 64, 0
3, 54840, Control_c, 0, 64, 127
3, 54948, Note_on_c, 0, 39, 0
3, 54948, Note_on_c, 0, 27, 0
3, 54960, Note_on_c, 0, 55, 28
3, 54960, Note_on_c, 0, 58, 32
3, 54960, Note_on_c, 0, 61, 38
3, 54960, Note_on_c, 0, 67, 46
3, 55188, Note_on_c, 0, 67, 0
3, 55188, Note_on_c, 0, 55, 0
3, 55188, Note_on_c, 0, 58, 0
3, 55188, Note_on_c, 0, 61, 0
3, 55200, Note_on_c, 0, 55, 28
3, 55200, Note_on_c, 0, 58, 32
3, 55200, Note_on_c, 0, 61, 38
3, 55200, Note_on_c, 0, 67, 46
3, 55428, Note_on_c, 0, 67, 0
3, 55428, Note_on_c, 0, 55, 0
3, 55428, Note_on_c, 0, 58, 0
3, 55428, Note_on_c, 0, 61, 0
3, 55440, Note_on_c, 0, 63, 42
3, 55440, Note_on_c, 0, 55, 31
3, 55440, Note_on_c, 0, 58, 35
3, 55440, Note_on_c, 0, 61, 42
3, 55440, Note_on_c, 0, 67, 51
3, 55668, Note_on_c, 0, 67, 0
3, 55668, Note_on_c, 0, 58, 0
3, 55668, Note_on_c, 0, 63, 0
3, 55668, Note_on_c, 0, 55, 0
3, 55668, Note_on_c, 0, 61, 0
3, 55680, Note_on_c, 0, 63, 38
3, 55680, Note_on_c, 0, 55, 28
3, 55680, Note_on_c, 0, 58, 32
3, 55680, Note_on_c, 0, 61, 38
3, 55680, Note_on_c, 0, 67, 46
3, 55908, Note_on_c, 0, 67, 0
3, 55908, Note_on_c, 0, 58, 0
3, 55908, Note_on_c, 0, 63, 0
3, 55908, Note_on_c, 0, 55, 0
3, 55908, Note_on_c, 0, 61, 0
3, 55920, Note_on_c, 0, 55, 28
3, 55920, Note_on_c, 0, 58, 32
3, 55920, Note_on_c, 0, 61, 38
3, 55920, Note_on_c, 0, 67, 46
3, 56148, Note_on_c, 0, 67, 0
3, 56148, Note_on_c, 0, 55, 0
3, 56148, Note_on_c, 0, 58, 0
3, 56148, Note_on_c, 0, 61, 0
3, 56160, Note_on_c, 0, 29, 63
3, 56160, Note_on_c, 0, 41, 71
3, 56173, Control_c, 0, 64, 0
3, 56307, Control_c, 0, 64, 127
3, 56388, Note_on_c, 0, 41, 0
3, 56388, Note_on_c, 0, 29, 0
3, 56400, Note_on_c, 0, 53, 27
3, 56400, Note_on_c, 0, 60, 30
3, 56400, Note_on_c, 0, 65, 37
3, 56628, Note_on_c, 0, 65, 0
3, 56628, Note_on_c, 0, 60, 0
3, 56628, Note_on_c, 0, 53, 0
3, 56640, Note_on_c, 0, 53, 28
3, 56640, Note_on_c, 0, 60, 32
3, 56640, Note_on_c, 0, 65, 38
3, 56868, Note_on_c, 0, 65, 0
3, 56868, Note_on_c, 0, 60, 0
3, 56868, Note_on_c, 0, 53, 0
3, 56880, Note_on_c, 0, 34, 59
3, 56880, Note_on_c, 0, 46, 65
3, 56895, Control_c, 0, 64, 0
3, 57013, Control_c, 0, 64, 127
3, 57108, Note_on_c, 0, 46, 0
3, 57108, Note_on_c, 0, 34, 0
3, 57120, Note_on_c, 0, 53, 27
3, 57120, Note_on_c, 0, 58, 31
3, 57120, Note_on_c, 0, 65, 36
3, 57348, Note_on_c, 0, 65, 0
3, 57348, Note_on_c, 0, 58, 0
3, 57348, Note_on_c, 0, 53, 0
3, 57360, Note_on_c, 0, 53, 27
3, 57360, Note_on_c, 0, 58, 31
3, 57360, Note_on_c, 0, 65, 36
3, 57588, Note_on_c, 0, 65, 0
3, 57588, Note_on_c, 0, 58, 0
3, 57588, Note_on_c, 0, 53, 0
3, 57600, Note_on_c, 0, 39, 65
3, 57600, Note_on_c, 0, 51, 65
3, 57610, Control_c, 0, 64, 0
3, 57611, Control_c, 0, 64, 0
3, 57720, Control_c, 0, 64, 127
3, 57828, Note_on_c, 0, 51, 0
3, 57828, Note_on_c, 0, 39, 0
3, 57840, Note_on_c, 0, 53, 27
3, 57840, Note_on_c, 0, 58, 31
3, 57840, Note_on_c, 0, 65, 37
3, 58068, Note_on_c, 0, 65, 0
3, 58068, Note_on_c, 0, 58, 0
3, 58068, Note_on_c, 0, 53, 0
3, 58080, Note_on_c, 0, 51, 27
3, 58080, Note_on_c, 0, 58, 31
3, 58080, Note_on_c, 0, 63, 37
3, 58308, Note_on_c, 0, 63, 0
3, 58308, Note_on_c, 0, 58, 0
3, 58308, Note_on_c, 0, 51, 0
3, 58320, Note_on_c, 0, 44, 48
3, 58330, Control_c, 0, 64, 0
3, 58427, Control_c, 0, 64, 127
3, 58548, Note_on_c, 0, 44, 0
3, 58560, Note_on_c, 0, 51, 22
3, 58560, Note_on_c, 0, 56, 31
3, 58560, Note_on_c, 0, 63, 37
3, 58788, Note_on_c, 0, 63, 0
3, 58788, Note_on_c, 0, 56, 0
3, 58788, Note_on_c, 0, 51, 0
3, 58800, Note_on_c, 0, 51, 19
3, 58800, Note_on_c, 0, 56, 27
3, 58800, Note_on_c, 0, 63, 32
3, 59028, Note_on_c, 0, 63, 0
3, 59028, Note_on_c, 0, 56, 0
3, 59028, Note_on_c, 0, 51, 0
3, 59040, Note_on_c, 0, 39, 48
3, 59059, Control_c, 0, 64, 0
3, 59213, Control_c, 0, 64, 127
3, 59268, Note_on_c, 0, 39, 0
3, 59280, Note_on_c, 0, 51, 15
3, 59280, Note_on_c, 0, 63, 26
3, 59508, Note_on_c, 0, 63, 0
3, 59508, Note_on_c, 0, 51, 0
3, 59520, Note_on_c, 0, 51, 13
3, 59520, Note_on_c, 0, 63, 25
3, 59748, Note_on_c, 0, 63, 0
3, 59748, Note_on_c, 0, 51, 0
3, 59760, Note_on_c, 0, 51, 15
3, 59760, Note_on_c, 0, 63, 26
3, 59988, Note_on_c, 0, 63, 0
3, 59988, Note_on_c, 0, 51, 0
3, 60000, Note_on_c, 0, 51, 12
3, 60000, Note_on_c, 0, 63, 23
3, 60228, Note_on_c, 0, 63, 0
3, 60228, Note_on_c, 0, 51, 0
3, 60240, Note_on_c, 0, 51, 11
3, 60240, Note_on_c, 0, 63, 22
3, 60468, Note_on_c, 0, 63, 0
3, 60468, Note_on_c, 0, 51, 0
3, 60480, Note_on_c, 0, 39, 28
3, 60490, Control_c, 0, 64, 0
3, 60583, Control_c, 0, 64, 127
3, 60708, Note_on_c, 0, 39, 0
3, 60720, Note_on_c, 0, 51, 18
3, 60720, Note_on_c, 0, 57, 21
3, 60720, Note_on_c, 0, 63, 25
3, 60948, Note_on_c, 0, 63, 0
3, 60948, Note_on_c, 0, 57, 0
3, 60948, Note_on_c, 0, 51, 0
3, 60960, Note_on_c, 0, 51, 18
3, 60960, Note_on_c, 0, 57, 21
3, 60960, Note_on_c, 0, 63, 25
3, 61188, Note_on_c, 0, 63, 0
3, 61188, Note_on_c, 0, 57, 0
3, 61188, Note_on_c, 0, 51, 0
3, 61200, Note_on_c, 0, 51, 18
3, 61200, Note_on_c, 0, 57, 21
3, 61200, Note_on_c, 0, 63, 25
3, 61209, Control_c, 0, 64, 0
3, 61428, Note_on_c, 0, 63, 0
3, 61428, Note_on_c, 0, 57, 0
3, 61428, Note_on_c, 0, 51, 0
3, 61440, Note_on_c, 0, 51, 18
3, 61440, Note_on_c, 0, 57, 21
3, 61440, Note_on_c, 0, 63, 25
3, 61668, Note_on_c, 0, 63, 0
3, 61668, Note_on_c, 0, 57, 0
3, 61668, Note_on_c, 0, 51, 0
3, 61680, Note_on_c, 0, 63, 25
3, 61680, Note_on_c, 0, 51, 16
3, 61680, Note_on_c, 0, 57, 22
3, 61908, Note_on_c, 0, 57, 0
3, 61908, Note_on_c, 0, 51, 0
3, 61908, Note_on_c, 0, 63, 0
3, 61920, Note_on_c, 0, 40, 28
3, 62011, Control_c, 0, 64, 127
3, 62148, Note_on_c, 0, 40, 0
3, 62160, Note_on_c, 0, 52, 14
3, 62160, Note_on_c, 0, 56, 20
3, 62160, Note_on_c, 0, 64, 23
3, 62388, Note_on_c, 0, 64, 0
3, 62388, Note_on_c, 0, 56, 0
3, 62388, Note_on_c, 0, 52, 0
3, 62400, Note_on_c, 0, 52, 15
3, 62400, Note_on_c, 0, 56, 21
3, 62400, Note_on_c, 0, 64, 25
3, 62628, Note_on_c, 0, 64, 0
3, 62628, Note_on_c, 0, 56, 0
3, 62628, Note_on_c, 0, 52, 0
3, 62640, Note_on_c, 0, 52, 16
3, 62640, Note_on_c, 0, 56, 22
3, 62640, Note_on_c, 0, 64, 27
3, 62650, Control_c, 0, 64, 0
3, 62868, Note_on_c, 0, 64, 0
3, 62868, Note_on_c, 0, 56, 0
3, 62868, Note_on_c, 0, 52, 0
3, 62880, Note_on_c, 0, 52, 17
3, 62880, Note_on_c, 0, 56, 22
3, 62880, Note_on_c, 0, 63, 28
3, 63108, Note_on_c, 0, 63, 0
3, 63108, Note_on_c, 0, 56, 0
3, 63108, Note_on_c, 0, 52, 0
3, 63120, Note_on_c, 0, 56, 24
3, 63120, Note_on_c, 0, 52, 17
3, 63120, Note_on_c, 0, 61, 29
3, 63348, Note_on_c, 0, 61, 0
3, 63348, Note_on_c, 0, 52, 0
3, 63348, Note_on_c, 0, 56, 0
3, 63360, Note_on_c, 0, 35, 39
3, 63360, Note_on_c, 0, 47, 39
3, 63463, Control_c, 0, 64, 127
3, 63588, Note_on_c, 0, 47, 0
3, 63588, Note_on_c, 0, 35, 0
3, 63600, Note_on_c, 0, 59, 26
3, 63600, Note_on_c, 0, 63, 29
3, 63600, Note_on_c, 0, 69, 35
3, 63828, Note_on_c, 0, 69, 0
3, 63828, Note_on_c, 0, 63, 0
3, 63828, Note_on_c, 0, 59, 0
3, 63840, Note_on_c, 0, 59, 26
3, 63840, Note_on_c, 0, 63, 29
3, 63840, Note_on_c, 0, 69, 35
3, 64068, Note_on_c, 0, 69, 0
3, 64068, Note_on_c, 0, 63, 0
3, 64068, Note_on_c, 0, 59, 0
3, 64080, Note_on_c, 0, 59, 26
3, 64080, Note_on_c, 0, 63, 29
3, 64080, Note_on_c, 0, 69, 35
3, 64093, Control_c, 0, 64, 0
3, 64308, Note_on_c, 0, 69, 0
3, 64308, Note_on_c, 0, 63, 0
3, 64308, Note_on_c, 0, 59, 0
3, 64320, Note_on_c, 0, 59, 26
3, 64320, Note_on_c, 0, 61, 29
3, 64320, Note_on_c, 0, 69, 35
3, 64548, Note_on_c, 0, 69, 0
3, 64548, Note_on_c, 0, 61, 0
3, 64548, Note_on_c, 0, 59, 0
3, 64560, Note_on_c, 0, 69, 35
3, 64560, Note_on_c, 0, 59, 23
3, 64560, Note_on_c, 0, 63, 31
3, 64788, Note_on_c, 0, 63, 0
3, 64788, Note_on_c, 0, 59, 0
3, 64788, Note_on_c, 0, 69, 0
3, 64800, Note_on_c, 0, 40, 39
3, 64800, Note_on_c, 0, 52, 50
3, 64891, Control_c, 0, 64, 127
3, 65028, Note_on_c, 0, 52, 0
3, 65028, Note_on_c, 0, 40, 0
3, 65040, Note_on_c, 0, 59, 21
3, 65040, Note_on_c, 0, 64, 29
3, 65040, Note_on_c, 0, 71, 35
3, 65268, Note_on_c, 0, 71, 0
3, 65268, Note_on_c, 0, 64, 0
3, 65268, Note_on_c, 0, 59, 0
3, 65280, Note_on_c, 0, 59, 23
3, 65280, Note_on_c, 0, 64, 31
3, 65280, Note_on_c, 0, 71, 36
3, 65508, Note_on_c, 0, 71, 0
3, 65508, Note_on_c, 0, 64, 0
3, 65508, Note_on_c, 0, 59, 0
3, 65520, Note_on_c, 0, 59, 24
3, 65520, Note_on_c, 0, 64, 33
3, 65520, Note_on_c, 0, 71, 39
3, 65748, Note_on_c, 0, 71, 0
3, 65748, Note_on_c, 0, 64, 0
3, 65748, Note_on_c, 0, 59, 0
3, 65760, Note_on_c, 0, 39, 40
3, 65760, Note_on_c, 0, 51, 49
3, 65773, Control_c, 0, 64, 0
3, 65988, Note_on_c, 0, 51, 0
3, 65988, Note_on_c, 0, 39, 0
3, 66000, Note_on_c, 0, 50, 55
3, 66000, Note_on_c, 0, 38, 46
3, 66228, Note_on_c, 0, 38, 0
3, 66228, Note_on_c, 0, 50, 0
3, 66240, Note_on_c, 0, 37, 48
3, 66240, Note_on_c, 0, 49, 60
3, 66312, Control_c, 0, 64, 127
3, 66468, Note_on_c, 0, 49, 0
3, 66468, Note_on_c, 0, 37, 0
3, 66480, Note_on_c, 0, 53, 22
3, 66480, Note_on_c, 0, 59, 25
3, 66480, Note_on_c, 0, 65, 30
3, 66708, Note_on_c, 0, 65, 0
3, 66708, Note_on_c, 0, 59, 0
3, 66708, Note_on_c, 0, 53, 0
3, 66720, Note_on_c, 0, 53, 22
3, 66720, Note_on_c, 0, 59, 25
3, 66720, Note_on_c, 0, 65, 30
3, 66948, Note_on_c, 0, 65, 0
3, 66948, Note_on_c, 0, 59, 0
3, 66948, Note_on_c, 0, 53, 0
3, 66960, Note_on_c, 0, 53, 22
3, 66960, Note_on_c, 0, 59, 25
3, 66960, Note_on_c, 0, 65, 30
3, 67188, Note_on_c, 0, 65, 0
3, 67188, Note_on_c, 0, 59, 0
3, 67188, Note_on_c, 0, 53, 0
3, 67200, Note_on_c, 0, 53, 22
3, 67200, Note_on_c, 0, 59, 25
3, 67200, Note_on_c, 0, 65, 30
3, 67212, Control_c, 0, 64, 0
3, 67428, Note_on_c, 0, 65, 0
3, 67428, Note_on_c, 0, 59, 0
3, 67428, Note_on_c, 0, 53, 0
3, 67440, Note_on_c, 0, 65, 30
3, 67440, Note_on_c, 0, 53, 19
3, 67440, Note_on_c, 0, 59, 27
3, 67668, Note_on_c, 0, 59, 0
3, 67668, Note_on_c, 0, 53, 0
3, 67668, Note_on_c, 0, 65, 0
3, 67680, Note_on_c, 0, 42, 34
3, 67771, Control_c, 0, 64, 127
3, 67908, Note_on_c, 0, 42, 0
3, 67920, Note_on_c, 0, 54, 17
3, 67920, Note_on_c, 0, 58, 24
3, 67920, Note_on_c, 0, 66, 28
3, 68148, Note_on_c, 0, 66, 0
3, 68148, Note_on_c, 0, 58, 0
3, 68148, Note_on_c, 0, 54, 0
3, 68160, Note_on_c, 0, 54, 18
3, 68160, Note_on_c, 0, 58, 25
3, 68160, Note_on_c, 0, 66, 30
3, 68388, Note_on_c, 0, 66, 0
3, 68388, Note_on_c, 0, 58, 0
3, 68388, Note_on_c, 0, 54, 0
3, 68400, Note_on_c, 0, 54, 19
3, 68400, Note_on_c, 0, 58, 27
3, 68400, Note_on_c, 0, 66, 32
3, 68412, Control_c, 0, 64, 0
3, 68628, Note_on_c, 0, 66, 0
3, 68628, Note_on_c, 0, 58, 0
3, 68628, Note_on_c, 0, 54, 0
3, 68640, Note_on_c, 0, 54, 20
3, 68640, Note_on_c, 0, 58, 27
3, 68640, Note_on_c, 0, 65, 33
3, 68868, Note_on_c, 0, 65, 0
3, 68868, Note_on_c, 0, 58, 0
3, 68868, Note_on_c, 0, 54, 0
3, 68880, Note_on_c, 0, 58, 29
3, 68880, Note_on_c, 0, 54, 21
3, 68880, Note_on_c, 0, 63, 35
3, 69108, Note_on_c, 0, 63, 0
3, 69108, Note_on_c, 0, 54, 0
3, 69108, Note_on_c, 0, 58, 0
3, 69120, Note_on_c, 0, 37, 39
3, 69120, Note_on_c, 0, 49, 39
3, 69205, Control_c, 0, 64, 127
3, 69348, Note_on_c, 0, 49, 0
3, 69348, Note_on_c, 0, 37, 0
3, 69360, Note_on_c, 0, 61, 29
3, 69360, Note_on_c, 0, 56, 26
3, 69360, Note_on_c, 0, 59, 29
3, 69360, Note_on_c, 0, 68, 35
3, 69588, Note_on_c, 0, 68, 0
3, 69588, Note_on_c, 0, 61, 0
3, 69588, Note_on_c, 0, 56, 0
3, 69588, Note_on_c, 0, 59, 0
3, 69600, Note_on_c, 0, 61, 29
3, 69600, Note_on_c, 0, 56, 26
3, 69600, Note_on_c, 0, 59, 29
3, 69600, Note_on_c, 0, 68, 35
3, 69828, Note_on_c, 0, 68, 0
3, 69828, Note_on_c, 0, 61, 0
3, 69828, Note_on_c, 0, 56, 0
3, 69828, Note_on_c, 0, 59, 0
3, 69840, Note_on_c, 0, 61, 29
3, 69840, Note_on_c, 0, 56, 26
3, 69840, Note_on_c, 0, 59, 29
3, 69840, Note_on_c, 0, 68, 35
3, 69853, Control_c, 0, 64, 0
3, 70068, Note_on_c, 0, 68, 0
3, 70068, Note_on_c, 0, 61, 0
3, 70068, Note_on_c, 0, 56, 0
3, 70068, Note_on_c, 0, 59, 0
3, 70080, Note_on_c, 0, 61, 29
3, 70080, Note_on_c, 0, 56, 26
3, 70080, Note_on_c, 0, 59, 29
3, 70080, Note_on_c, 0, 63, 35
3, 70308, Note_on_c, 0, 63, 0
3, 70308, Note_on_c, 0, 61, 0
3, 70308, Note_on_c, 0, 56, 0
3, 70308, Note_on_c, 0, 59, 0
3, 70320, Note_on_c, 0, 61, 31
3, 70320, Note_on_c, 0, 65, 35
3, 70320, Note_on_c, 0, 56, 23
3, 70320, Note_on_c, 0, 59, 31
3, 70548, Note_on_c, 0, 59, 0
3, 70548, Note_on_c, 0, 61, 0
3, 70548, Note_on_c, 0, 65, 0
3, 70548, Note_on_c, 0, 56, 0
3, 70560, Note_on_c, 0, 42, 45
3, 70651, Control_c, 0, 64, 127
3, 70788, Note_on_c, 0, 42, 0
3, 70800, Note_on_c, 0, 54, 21
3, 70800, Note_on_c, 0, 61, 29
3, 70800, Note_on_c, 0, 66, 35
3, 71028, Note_on_c, 0, 66, 0
3, 71028, Note_on_c, 0, 61, 0
3, 71028, Note_on_c, 0, 54, 0
3, 71040, Note_on_c, 0, 54, 23
3, 71040, Note_on_c, 0, 61, 31
3, 71040, Note_on_c, 0, 66, 36
3, 71268, Note_on_c, 0, 66, 0
3, 71268, Note_on_c, 0, 61, 0
3, 71268, Note_on_c, 0, 54, 0
3, 71280, Note_on_c, 0, 42, 42
3, 71280, Note_on_c, 0, 54, 50
3, 71508, Note_on_c, 0, 54, 0
3, 71508, Note_on_c, 0, 42, 0
3, 71520, Note_on_c, 0, 41, 45
3, 71520, Note_on_c, 0, 53, 53
3, 71589, Control_c, 0, 64, 0
3, 71748, Note_on_c, 0, 53, 0
3, 71748, Note_on_c, 0, 41, 0
3, 71760, Note_on_c, 0, 52, 56
3, 71760, Note_on_c, 0, 40, 47
3, 71988, Note_on_c, 0, 40, 0
3, 71988, Note_on_c, 0, 52, 0
3, 72000, Note_on_c, 0, 39, 63
3, 72000, Note_on_c, 0, 51, 63
3, 72097, Control_c, 0, 64, 127
3, 72228, Note_on_c, 0, 51, 0
3, 72228, Note_on_c, 0, 39, 0
3, 72240, Note_on_c, 0, 59, 34
3, 72240, Note_on_c, 0, 66, 41
3, 72468, Note_on_c, 0, 66, 0
3, 72468, Note_on_c, 0, 59, 0
3, 72480, Note_on_c, 0, 59, 34
3, 72480, Note_on_c, 0, 66, 41
3, 72708, Note_on_c, 0, 66, 0
3, 72708, Note_on_c, 0, 59, 0
3, 72720, Note_on_c, 0, 52, 59
3, 72732, Control_c, 0, 64, 0
3, 72843, Control_c, 0, 64, 127
3, 72948, Note_on_c, 0, 52, 0
3, 72960, Note_on_c, 0, 59, 34
3, 72960, Note_on_c, 0, 64, 34
3, 72960, Note_on_c, 0, 71, 40
3, 73188, Note_on_c, 0, 71, 0
3, 73188, Note_on_c, 0, 64, 0
3, 73188, Note_on_c, 0, 59, 0
3, 73200, Note_on_c, 0, 59, 34
3, 73200, Note_on_c, 0, 64, 34
3, 73200, Note_on_c, 0, 71, 40
3, 73428, Note_on_c, 0, 71, 0
3, 73428, Note_on_c, 0, 64, 0
3, 73428, Note_on_c, 0, 59, 0
3, 73440, Note_on_c, 0, 50, 59
3, 73457, Control_c, 0, 64, 0
3, 73537, Control_c, 0, 64, 127
3, 73668, Note_on_c, 0, 50, 0
3, 73680, Note_on_c, 0, 70, 39
3, 73680, Note_on_c, 0, 58, 28
3, 73680, Note_on_c, 0, 65, 34
3, 73908, Note_on_c, 0, 65, 0
3, 73908, Note_on_c, 0, 58, 0
3, 73908, Note_on_c, 0, 70, 0
3, 73920, Note_on_c, 0, 70, 39
3, 73920, Note_on_c, 0, 58, 28
3, 73920, Note_on_c, 0, 65, 34
3, 74148, Note_on_c, 0, 65, 0
3, 74148, Note_on_c, 0, 58, 0
3, 74148, Note_on_c, 0, 70, 0
3, 74160, Note_on_c, 0, 51, 56
3, 74172, Control_c, 0, 64, 0
3, 74283, Control_c, 0, 64, 127
3, 74388, Note_on_c, 0, 51, 0
3, 74400, Note_on_c, 0, 58, 27
3, 74400, Note_on_c, 0, 63, 27
3, 74400, Note_on_c, 0, 70, 32
3, 74628, Note_on_c, 0, 70, 0
3, 74628, Note_on_c, 0, 63, 0
3, 74628, Note_on_c, 0, 58, 0
3, 74640, Note_on_c, 0, 58, 27
3, 74640, Note_on_c, 0, 63, 27
3, 74640, Note_on_c, 0, 70, 32
3, 74868, Note_on_c, 0, 70, 0
3, 74868, Note_on_c, 0, 63, 0
3, 74868, Note_on_c, 0, 58, 0
3, 74880, Note_on_c, 0, 49, 53
3, 74897, Control_c, 0, 64, 0
3, 74977, Control_c, 0, 64, 127
3, 75108, Note_on_c, 0, 49, 0
3, 75120, Note_on_c, 0, 69, 36
3, 75120, Note_on_c, 0, 57, 30
3, 75120, Note_on_c, 0, 64, 36
3, 75348, Note_on_c, 0, 64, 0
3, 75348, Note_on_c, 0, 57, 0
3, 75348, Note_on_c, 0, 69, 0
3, 75360, Note_on_c, 0, 69, 36
3, 75360, Note_on_c, 0, 57, 30
3, 75360, Note_on_c, 0, 64, 36
3, 75588, Note_on_c, 0, 64, 0
3, 75588, Note_on_c, 0, 57, 0
3, 75588, Note_on_c, 0, 69, 0
3, 75600, Note_on_c, 0, 50, 50
3, 75612, Control_c, 0, 64, 0
3, 75723, Control_c, 0, 64, 127
3, 75828, Note_on_c, 0, 50, 0
3, 75840, Note_on_c, 0, 57, 28
3, 75840, Note_on_c, 0, 62, 28
3, 75840, Note_on_c, 0, 69, 34
3, 76068, Note_on_c, 0, 69, 0
3, 76068, Note_on_c, 0, 62, 0
3, 76068, Note_on_c, 0, 57, 0
3, 76080, Note_on_c, 0, 57, 28
3, 76080, Note_on_c, 0, 62, 28
3, 76080, Note_on_c, 0, 69, 34
3, 76308, Note_on_c, 0, 69, 0
3, 76308, Note_on_c, 0, 62, 0
3, 76308, Note_on_c, 0, 57, 0
3, 76320, Note_on_c, 0, 57, 43
3, 76320, Note_on_c, 0, 62, 43
3, 76320, Note_on_c, 0, 69, 43
3, 76548, Note_on_c, 0, 69, 0
3, 76548, Note_on_c, 0, 62, 0
3, 76548, Note_on_c, 0, 57, 0
3, 76560, Note_on_c, 0, 38, 35
3, 76560, Note_on_c, 0, 50, 42
3, 76576, Control_c, 0, 64, 0
3, 76625, Control_c, 0, 64, 127
3, 76788, Note_on_c, 0, 50, 0
3, 76788, Note_on_c, 0, 38, 0
3, 76800, Note_on_c, 0, 37, 38
3, 76800, Note_on_c, 0, 49, 45
3, 76816, Control_c, 0, 64, 0
3, 76871, Control_c, 0, 64, 127
3, 77028, Note_on_c, 0, 49, 0
3, 77028, Note_on_c, 0, 37, 0
3, 77040, Note_on_c, 0, 36, 39
3, 77040, Note_on_c, 0, 48, 47
3, 77056, Control_c, 0, 64, 0
3, 77131, Control_c, 0, 64, 127
3, 77268, Note_on_c, 0, 48, 0
3, 77268, Note_on_c, 0, 36, 0
3, 77280, Note_on_c, 0, 36, 42
3, 77280, Note_on_c, 0, 48, 50
3, 77508, Note_on_c, 0, 48, 0
3, 77508, Note_on_c, 0, 36, 0
3, 77520, Note_on_c, 0, 35, 44
3, 77520, Note_on_c, 0, 47, 52
3, 77527, Control_c, 0, 64, 0
3, 77618, Control_c, 0, 64, 127
3, 77748, Note_on_c, 0, 47, 0
3, 77748, Note_on_c, 0, 35, 0
3, 77760, Note_on_c, 0, 34, 48
3, 77760, Note_on_c, 0, 46, 48
3, 77771, Control_c, 0, 64, 0
3, 77863, Control_c, 0, 64, 127
3, 77988, Note_on_c, 0, 46, 0
3, 77988, Note_on_c, 0, 34, 0
3, 78000, Note_on_c, 0, 58, 27
3, 78000, Note_on_c, 0, 63, 31
3, 78000, Note_on_c, 0, 70, 37
3, 78228, Note_on_c, 0, 70, 0
3, 78228, Note_on_c, 0, 63, 0
3, 78228, Note_on_c, 0, 58, 0
3, 78240, Note_on_c, 0, 58, 28
3, 78240, Note_on_c, 0, 63, 32
3, 78240, Note_on_c, 0, 70, 38
3, 78468, Note_on_c, 0, 70, 0
3, 78468, Note_on_c, 0, 63, 0
3, 78468, Note_on_c, 0, 58, 0
3, 78480, Note_on_c, 0, 58, 31
3, 78480, Note_on_c, 0, 64, 35
3, 78480, Note_on_c, 0, 70, 42
3, 78490, Control_c, 0, 64, 0
3, 78629, Control_c, 0, 64, 127
3, 78708, Note_on_c, 0, 70, 0
3, 78708, Note_on_c, 0, 64, 0
3, 78708, Note_on_c, 0, 58, 0
3, 78720, Note_on_c, 0, 58, 30
3, 78720, Note_on_c, 0, 64, 34
3, 78720, Note_on_c, 0, 70, 41
3, 78948, Note_on_c, 0, 70, 0
3, 78948, Note_on_c, 0, 64, 0
3, 78948, Note_on_c, 0, 58, 0
3, 78960, Note_on_c, 0, 58, 18
3, 78960, Note_on_c, 0, 70, 35
3, 78960, Note_on_c, 0, 64, 26
3, 79188, Note_on_c, 0, 64, 0
3, 79188, Note_on_c, 0, 70, 0
3, 79188, Note_on_c, 0, 58, 0
3, 79200, Note_on_c, 0, 46, 46
3, 79211, Control_c, 0, 64, 0
3, 79246, Control_c, 0, 64, 127
3, 79428, Note_on_c, 0, 46, 0
3, 79440, Note_on_c, 0, 58, 27
3, 79440, Note_on_c, 0, 65, 30
3, 79440, Note_on_c, 0, 70, 36
3, 79668, Note_on_c, 0, 70, 0
3, 79668, Note_on_c, 0, 65, 0
3, 79668, Note_on_c, 0, 58, 0
3, 79680, Note_on_c, 0, 58, 27
3, 79680, Note_on_c, 0, 65, 30
3, 79680, Note_on_c, 0, 70, 36
3, 79908, Note_on_c, 0, 70, 0
3, 79908, Note_on_c, 0, 65, 0
3, 79908, Note_on_c, 0, 58, 0
3, 79920, Note_on_c, 0, 58, 29
3, 79920, Note_on_c, 0, 65, 33
3, 79920, Note_on_c, 0, 70, 39
3, 80148, Note_on_c, 0, 70, 0
3, 80148, Note_on_c, 0, 65, 0
3, 80148, Note_on_c, 0, 58, 0
3, 80160, Note_on_c, 0, 58, 24
3, 80160, Note_on_c, 0, 65, 27
3, 80160, Note_on_c, 0, 70, 33
3, 80388, Note_on_c, 0, 70, 0
3, 80388, Note_on_c, 0, 65, 0
3, 80388, Note_on_c, 0, 58, 0
3, 80400, Note_on_c, 0, 58, 24
3, 80400, Note_on_c, 0, 70, 33
3, 80400, Note_on_c, 0, 65, 27
3, 80628, Note_on_c, 0, 65, 0
3, 80628, Note_on_c, 0, 70, 0
3, 80628, Note_on_c, 0, 58, 0
3, 80640, Note_on_c, 0, 39, 44
3, 80656, Control_c, 0, 64, 0
3, 80811, Control_c, 0, 64, 127
3, 80868, Note_on_c, 0, 39, 0
3, 80880, Note_on_c, 0, 55, 16
3, 80880, Note_on_c, 0, 58, 22
3, 80880, Note_on_c, 0, 67, 26
3, 81108, Note_on_c, 0, 67, 0
3, 81108, Note_on_c, 0, 58, 0
3, 81108, Note_on_c, 0, 55, 0
3, 81120, Note_on_c, 0, 55, 17
3, 81120, Note_on_c, 0, 58, 23
3, 81120, Note_on_c, 0, 67, 28
3, 81348, Note_on_c, 0, 67, 0
3, 81348, Note_on_c, 0, 58, 0
3, 81348, Note_on_c, 0, 55, 0
3, 81360, Note_on_c, 0, 55, 18
3, 81360, Note_on_c, 0, 58, 25
3, 81360, Note_on_c, 0, 67, 30
3, 81588, Note_on_c, 0, 67, 0
3, 81588, Note_on_c, 0, 58, 0
3, 81588, Note_on_c, 0, 55, 0
3, 81600, Note_on_c, 0, 55, 19
3, 81600, Note_on_c, 0, 58, 25
3, 81600, Note_on_c, 0, 67, 31
3, 81828, Note_on_c, 0, 67, 0
3, 81828, Note_on_c, 0, 58, 0
3, 81828, Note_on_c, 0, 55, 0
3, 81840, Note_on_c, 0, 58, 27
3, 81840, Note_on_c, 0, 55, 19
3, 81840, Note_on_c, 0, 67, 33
3, 82068, Note_on_c, 0, 67, 0
3, 82068, Note_on_c, 0, 55, 0
3, 82068, Note_on_c, 0, 58, 0
3, 82080, Note_on_c, 0, 51, 53
3, 82097, Control_c, 0, 64, 0
3, 82183, Control_c, 0, 64, 127
3, 82308, Note_on_c, 0, 51, 0
3, 82320, Note_on_c, 0, 56, 22
3, 82320, Note_on_c, 0, 59, 25
3, 82320, Note_on_c, 0, 68, 35
3, 82548, Note_on_c, 0, 68, 0
3, 82548, Note_on_c, 0, 59, 0
3, 82548, Note_on_c, 0, 56, 0
3, 82560, Note_on_c, 0, 56, 23
3, 82560, Note_on_c, 0, 59, 26
3, 82560, Note_on_c, 0, 68, 31
3, 82788, Note_on_c, 0, 68, 0
3, 82788, Note_on_c, 0, 59, 0
3, 82788, Note_on_c, 0, 56, 0
3, 82800, Note_on_c, 0, 56, 22
3, 82800, Note_on_c, 0, 59, 25
3, 82800, Note_on_c, 0, 68, 35
3, 83028, Note_on_c, 0, 68, 0
3, 83028, Note_on_c, 0, 59, 0
3, 83028, Note_on_c, 0, 56, 0
3, 83040, Note_on_c, 0, 56, 24
3, 83040, Note_on_c, 0, 59, 27
3, 83040, Note_on_c, 0, 68, 32
3, 83268, Note_on_c, 0, 68, 0
3, 83268, Note_on_c, 0, 59, 0
3, 83268, Note_on_c, 0, 56, 0
3, 83280, Note_on_c, 0, 68, 32
3, 83280, Note_on_c, 0, 56, 24
3, 83280, Note_on_c, 0, 59, 27
3, 83508, Note_on_c, 0, 59, 0
3, 83508, Note_on_c, 0, 56, 0
3, 83508, Note_on_c, 0, 68, 0
3, 83520, Note_on_c, 0, 39, 44
3, 83538, Control_c, 0, 64, 0
3, 83691, Control_c, 0, 64, 127
3, 83748, Note_on_c, 0, 39, 0
3, 83760, Note_on_c, 0, 55, 16
3, 83760, Note_on_c, 0, 58, 22
3, 83760, Note_on_c, 0, 67, 26
3, 83988, Note_on_c, 0, 67, 0
3, 83988, Note_on_c, 0, 58, 0
3, 83988, Note_on_c, 0, 55, 0
3, 84000, Note_on_c, 0, 55, 17
3, 84000, Note_on_c, 0, 58, 23
3, 84000, Note_on_c, 0, 67, 28
3, 84228, Note_on_c, 0, 67, 0
3, 84228, Note_on_c, 0, 58, 0
3, 84228, Note_on_c, 0, 55, 0
3, 84240, Note_on_c, 0, 55, 18
3, 84240, Note_on_c, 0, 58, 25
3, 84240, Note_on_c, 0, 67, 30
3, 84468, Note_on_c, 0, 67, 0
3, 84468, Note_on_c, 0, 58, 0
3, 84468, Note_on_c, 0, 55, 0
3, 84480, Note_on_c, 0, 55, 19
3, 84480, Note_on_c, 0, 58, 25
3, 84480, Note_on_c, 0, 67, 31
3, 84708, Note_on_c, 0, 67, 0
3, 84708, Note_on_c, 0, 58, 0
3, 84708, Note_on_c, 0, 55, 0
3, 84720, Note_on_c, 0, 58, 27
3, 84720, Note_on_c, 0, 55, 19
3, 84720, Note_on_c, 0, 67, 33
3, 84948, Note_on_c, 0, 67, 0
3, 84948, Note_on_c, 0, 55, 0
3, 84948, Note_on_c, 0, 58, 0
3, 84960, Note_on_c, 0, 51, 53
3, 84977, Control_c, 0, 64, 0
3, 85063, Control_c, 0, 64, 127
3, 85188, Note_on_c, 0, 51, 0
3, 85200, Note_on_c, 0, 56, 18
3, 85200, Note_on_c, 0, 59, 21
3, 85200, Note_on_c, 0, 68, 29
3, 85428, Note_on_c, 0, 68, 0
3, 85428, Note_on_c, 0, 59, 0
3, 85428, Note_on_c, 0, 56, 0
3, 85440, Note_on_c, 0, 56, 19
3, 85440, Note_on_c, 0, 59, 22
3, 85440, Note_on_c, 0, 68, 26
3, 85668, Note_on_c, 0, 68, 0
3, 85668, Note_on_c, 0, 59, 0
3, 85668, Note_on_c, 0, 56, 0
3, 85680, Note_on_c, 0, 56, 18
3, 85680, Note_on_c, 0, 59, 21
3, 85680, Note_on_c, 0, 68, 29
3, 85908, Note_on_c, 0, 68, 0
3, 85908, Note_on_c, 0, 59, 0
3, 85908, Note_on_c, 0, 56, 0
3, 85920, Note_on_c, 0, 56, 20
3, 85920, Note_on_c, 0, 59, 22
3, 85920, Note_on_c, 0, 68, 27
3, 86148, Note_on_c, 0, 68, 0
3, 86148, Note_on_c, 0, 59, 0
3, 86148, Note_on_c, 0, 56, 0
3, 86160, Note_on_c, 0, 68, 27
3, 86160, Note_on_c, 0, 56, 20
3, 86160, Note_on_c, 0, 59, 22
3, 86388, Note_on_c, 0, 59, 0
3, 86388, Note_on_c, 0, 56, 0
3, 86388, Note_on_c, 0, 68, 0
3, 86400, Note_on_c, 0, 39, 33
3, 86417, Control_c, 0, 64, 0
3, 86571, Control_c, 0, 64, 127
3, 86628, Note_on_c, 0, 39, 0
3, 86640, Note_on_c, 0, 55, 13
3, 86640, Note_on_c, 0, 58, 15
3, 86640, Note_on_c, 0, 67, 17
3, 86868, Note_on_c, 0, 67, 0
3, 86868, Note_on_c, 0, 58, 0
3, 86868, Note_on_c, 0, 55, 0
3, 86880, Note_on_c, 0, 55, 13
3, 86880, Note_on_c, 0, 58, 15
3, 86880, Note_on_c, 0, 67, 17
3, 87108, Note_on_c, 0, 67, 0
3, 87108, Note_on_c, 0, 58, 0
3, 87108, Note_on_c, 0, 55, 0
3, 87120, Note_on_c, 0, 55, 13
3, 87120, Note_on_c, 0, 58, 15
3, 87120, Note_on_c, 0, 67, 18
3, 87348, Note_on_c, 0, 67, 0
3, 87348, Note_on_c, 0, 58, 0
3, 87348, Note_on_c, 0, 55, 0
3, 87360, Note_on_c, 0, 55, 14
3, 87360, Note_on_c, 0, 58, 16
3, 87360, Note_on_c, 0, 67, 19
3, 87588, Note_on_c, 0, 67, 0
3, 87588, Note_on_c, 0, 58, 0
3, 87588, Note_on_c, 0, 55, 0
3, 87600, Note_on_c, 0, 58, 16
3, 87600, Note_on_c, 0, 55, 14
3, 87600, Note_on_c, 0, 67, 20
3, 87828, Note_on_c, 0, 67, 0
3, 87828, Note_on_c, 0, 55, 0
3, 87828, Note_on_c, 0, 58, 0
3, 87840, Note_on_c, 0, 55, 15
3, 87840, Note_on_c, 0, 58, 17
3, 87840, Note_on_c, 0, 67, 21
3, 88068, Note_on_c, 0, 67, 0
3, 88068, Note_on_c, 0, 58, 0
3, 88068, Note_on_c, 0, 55, 0
3, 88080, Note_on_c, 0, 55, 15
3, 88080, Note_on_c, 0, 58, 17
3, 88080, Note_on_c, 0, 67, 22
3, 88308, Note_on_c, 0, 67, 0
3, 88308, Note_on_c, 0, 58, 0
3, 88308, Note_on_c, 0, 55, 0
3, 88320, Note_on_c, 0, 55, 16
3, 88320, Note_on_c, 0, 58, 18
3, 88320, Note_on_c, 0, 67, 22
3, 88548, Note_on_c, 0, 67, 0
3, 88548, Note_on_c, 0, 58, 0
3, 88548, Note_on_c, 0, 55, 0
3, 88560, Note_on_c, 0, 55, 17
3, 88560, Note_on_c, 0, 58, 20
3, 88560, Note_on_c, 0, 67, 23
3, 88788, Note_on_c, 0, 67, 0
3, 88788, Note_on_c, 0, 58, 0
3, 88788, Note_on_c, 0, 55, 0
3, 88800, Note_on_c, 0, 55, 18
3, 88800, Note_on_c, 0, 58, 21
3, 88800, Note_on_c, 0, 67, 24
3, 89028, Note_on_c, 0, 67, 0
3, 89028, Note_on_c, 0, 58, 0
3, 89028, Note_on_c, 0, 55, 0
3, 89040, Note_on_c, 0, 58, 22
3, 89040, Note_on_c, 0, 55, 19
3, 89040, Note_on_c, 0, 67, 26
3, 89268, Note_on_c, 0, 67, 0
3, 89268, Note_on_c, 0, 55, 0
3, 89268, Note_on_c, 0, 58, 0
3, 89280, Note_on_c, 0, 55, 20
3, 89280, Note_on_c, 0, 58, 22
3, 89280, Note_on_c, 0, 67, 28
3, 89508, Note_on_c, 0, 67, 0
3, 89508, Note_on_c, 0, 58, 0
3, 89508, Note_on_c, 0, 55, 0
3, 89520, Note_on_c, 0, 55, 20
3, 89520, Note_on_c, 0, 58, 22
3, 89520, Note_on_c, 0, 67, 28
3, 89748, Note_on_c, 0, 67, 0
3, 89748, Note_on_c, 0, 58, 0
3, 89748, Note_on_c, 0, 55, 0
3, 89760, Note_on_c, 0, 55, 19
3, 89760, Note_on_c, 0, 58, 22
3, 89760, Note_on_c, 0, 67, 26
3, 89988, Note_on_c, 0, 67, 0
3, 89988, Note_on_c, 0, 58, 0
3, 89988, Note_on_c, 0, 55, 0
3, 90000, Note_on_c, 0, 55, 19
3, 90000, Note_on_c, 0, 58, 22
3, 90000, Note_on_c, 0, 67, 26
3, 90228, Note_on_c, 0, 67, 0
3, 90228, Note_on_c, 0, 58, 0
3, 90228, Note_on_c, 0, 55, 0
3, 90240, Note_on_c, 0, 55, 18
3, 90240, Note_on_c, 0, 58, 21
3, 90240, Note_on_c, 0, 67, 24
3, 90468, Note_on_c, 0, 67, 0
3, 90468, Note_on_c, 0, 58, 0
3, 90468, Note_on_c, 0, 55, 0
3, 90480, Note_on_c, 0, 58, 21
3, 90480, Note_on_c, 0, 55, 18
3, 90480, Note_on_c, 0, 67, 24
3, 90708, Note_on_c, 0, 67, 0
3, 90708, Note_on_c, 0, 55, 0
3, 90708, Note_on_c, 0, 58, 0
3, 90720, Note_on_c, 0, 55, 17
3, 90720, Note_on_c, 0, 58, 20
3, 90720, Note_on_c, 0, 67, 23
3, 90948, Note_on_c, 0, 67, 0
3, 90948, Note_on_c, 0, 58, 0
3, 90948, Note_on_c, 0, 55, 0
3, 90960, Note_on_c, 0, 55, 17
3, 90960, Note_on_c, 0, 58, 20
3, 90960, Note_on_c, 0, 67, 23
3, 91188, Note_on_c, 0, 67, 0
3, 91188, Note_on_c, 0, 58, 0
3, 91188, Note_on_c, 0, 55, 0
3, 91200, Note_on_c, 0, 55, 16
3, 91200, Note_on_c, 0, 58, 18
3, 91200, Note_on_c, 0, 67, 23
3, 91428, Note_on_c, 0, 67, 0
3, 91428, Note_on_c, 0, 58, 0
3, 91428, Note_on_c, 0, 55, 0
3, 91440, Note_on_c, 0, 55, 16
3, 91440, Note_on_c, 0, 58, 18
3, 91440, Note_on_c, 0, 67, 22
3, 91668, Note_on_c, 0, 67, 0
3, 91668, Note_on_c, 0, 58, 0
3, 91668, Note_on_c, 0, 55, 0
3, 91680, Note_on_c, 0, 55, 15
3, 91680, Note_on_c, 0, 58, 17
3, 91680, Note_on_c, 0, 67, 22
3, 91908, Note_on_c, 0, 67, 0
3, 91908, Note_on_c, 0, 58, 0
3, 91908, Note_on_c, 0, 55, 0
3, 91920, Note_on_c, 0, 58, 17
3, 91920, Note_on_c, 0, 55, 15
3, 91920, Note_on_c, 0, 67, 22
3, 92148, Note_on_c, 0, 67, 0
3, 92148, Note_on_c, 0, 55, 0
3, 92148, Note_on_c, 0, 58, 0
3, 92160, Note_on_c, 0, 32, 61
3, 92171, Control_c, 0, 64, 0
3, 92267, Control_c, 0, 64, 127
3, 92400, Note_on_c, 0, 44, 17
3, 92400, Note_on_c, 0, 51, 21
3, 92628, Note_on_c, 0, 51, 0
3, 92628, Note_on_c, 0, 44, 0
3, 92640, Note_on_c, 0, 44, 18
3, 92640, Note_on_c, 0, 51, 22
3, 92868, Note_on_c, 0, 51, 0
3, 92868, Note_on_c, 0, 44, 0
3, 92880, Note_on_c, 0, 44, 20
3, 92880, Note_on_c, 0, 51, 23
3, 92880, Note_on_c, 0, 58, 23
3, 93108, Note_on_c, 0, 58, 0
3, 93108, Note_on_c, 0, 51, 0
3, 93108, Note_on_c, 0, 44, 0
3, 93120, Note_on_c, 0, 51, 18
3, 93120, Note_on_c, 0, 58, 22
3, 93348, Note_on_c, 0, 58, 0
3, 93348, Note_on_c, 0, 51, 0
3, 93360, Note_on_c, 0, 51, 18
3, 93360, Note_on_c, 0, 58, 22
3, 93588, Note_on_c, 0, 58, 0
3, 93588, Note_on_c, 0, 51, 0
3, 93600, Note_on_c, 0, 32, 0
3, 93600, Note_on_c, 0, 51, 16
3, 93600, Note_on_c, 0, 56, 18
3, 93600, Note_on_c, 0, 63, 22
3, 93613, Control_c, 0, 64, 0
3, 93734, Control_c, 0, 64, 127
3, 93828, Note_on_c, 0, 63, 0
3, 93828, Note_on_c, 0, 56, 0
3, 93828, Note_on_c, 0, 51, 0
3, 93840, Note_on_c, 0, 51, 14
3, 93840, Note_on_c, 0, 56, 16
3, 93840, Note_on_c, 0, 63, 20
3, 94068, Note_on_c, 0, 63, 0
3, 94068, Note_on_c, 0, 56, 0
3, 94068, Note_on_c, 0, 51, 0
3, 94080, Note_on_c, 0, 51, 13
3, 94080, Note_on_c, 0, 56, 15
3, 94080, Note_on_c, 0, 63, 19
3, 94308, Note_on_c, 0, 63, 0
3, 94308, Note_on_c, 0, 56, 0
3, 94308, Note_on_c, 0, 51, 0
3, 94320, Note_on_c, 0, 51, 16
3, 94320, Note_on_c, 0, 56, 18
3, 94320, Note_on_c, 0, 63, 22
3, 94337, Control_c, 0, 64, 0
3, 94469, Control_c, 0, 64, 127
3, 94548, Note_on_c, 0, 63, 0
3, 94548, Note_on_c, 0, 56, 0
3, 94548, Note_on_c, 0, 51, 0
3, 94560, Note_on_c, 0, 51, 14
3, 94560, Note_on_c, 0, 56, 16
3, 94560, Note_on_c, 0, 63, 20
3, 94788, Note_on_c, 0, 63, 0
3, 94788, Note_on_c, 0, 56, 0
3, 94788, Note_on_c, 0, 51, 0
3, 94800, Note_on_c, 0, 51, 14
3, 94800, Note_on_c, 0, 56, 16
3, 94800, Note_on_c, 0, 63, 20
3, 95028, Note_on_c, 0, 63, 0
3, 95028, Note_on_c, 0, 56, 0
3, 95028, Note_on_c, 0, 51, 0
3, 95040, Note_on_c, 0, 32, 57
3, 95050, Control_c, 0, 64, 0
3, 95160, Control_c, 0, 64, 127
3, 95280, Note_on_c, 0, 53, 13
3, 95280, Note_on_c, 0, 56, 15
3, 95280, Note_on_c, 0, 61, 18
3, 95280, Note_on_c, 0, 65, 22
3, 95508, Note_on_c, 0, 65, 0
3, 95508, Note_on_c, 0, 56, 0
3, 95508, Note_on_c, 0, 61, 0
3, 95508, Note_on_c, 0, 53, 0
3, 95520, Note_on_c, 0, 53, 13
3, 95520, Note_on_c, 0, 56, 15
3, 95520, Note_on_c, 0, 61, 18
3, 95520, Note_on_c, 0, 65, 22
3, 95748, Note_on_c, 0, 65, 0
3, 95748, Note_on_c, 0, 56, 0
3, 95748, Note_on_c, 0, 61, 0
3, 95748, Note_on_c, 0, 53, 0
3, 95760, Note_on_c, 0, 53, 14
3, 95760, Note_on_c, 0, 56, 16
3, 95760, Note_on_c, 0, 61, 20
3, 95760, Note_on_c, 0, 65, 23
3, 95988, Note_on_c, 0, 65, 0
3, 95988, Note_on_c, 0, 56, 0
3, 95988, Note_on_c, 0, 61, 0
3, 95988, Note_on_c, 0, 53, 0
3, 96000, Note_on_c, 0, 53, 13
3, 96000, Note_on_c, 0, 56, 15
3, 96000, Note_on_c, 0, 61, 18
3, 96000, Note_on_c, 0, 65, 22
3, 96228, Note_on_c, 0, 65, 0
3, 96228, Note_on_c, 0, 56, 0
3, 96228, Note_on_c, 0, 61, 0
3, 96228, Note_on_c, 0, 53, 0
3, 96240, Note_on_c, 0, 53, 13
3, 96240, Note_on_c, 0, 56, 15
3, 96240, Note_on_c, 0, 61, 18
3, 96240, Note_on_c, 0, 65, 22
3, 96468, Note_on_c, 0, 65, 0
3, 96468, Note_on_c, 0, 56, 0
3, 96468, Note_on_c, 0, 61, 0
3, 96468, Note_on_c, 0, 53, 0
3, 96480, Note_on_c, 0, 32, 0
3, 96480, Note_on_c, 0, 55, 11
3, 96480, Note_on_c, 0, 58, 13
3, 96480, Note_on_c, 0, 61, 15
3, 96480, Note_on_c, 0, 67, 19
3, 96493, Control_c, 0, 64, 0
3, 96627, Control_c, 0, 64, 127
3, 96708, Note_on_c, 0, 67, 0
3, 96708, Note_on_c, 0, 55, 0
3, 96708, Note_on_c, 0, 58, 0
3, 96708, Note_on_c, 0, 61, 0
3, 96720, Note_on_c, 0, 55, 11
3, 96720, Note_on_c, 0, 58, 13
3, 96720, Note_on_c, 0, 61, 15
3, 96720, Note_on_c, 0, 67, 19
3, 96948, Note_on_c, 0, 67, 0
3, 96948, Note_on_c, 0, 55, 0
3, 96948, Note_on_c, 0, 58, 0
3, 96948, Note_on_c, 0, 61, 0
3, 96960, Note_on_c, 0, 55, 12
3, 96960, Note_on_c, 0, 58, 14
3, 96960, Note_on_c, 0, 61, 16
3, 96960, Note_on_c, 0, 67, 20
3, 97188, Note_on_c, 0, 67, 0
3, 97188, Note_on_c, 0, 55, 0
3, 97188, Note_on_c, 0, 58, 0
3, 97188, Note_on_c, 0, 61, 0
3, 97200, Note_on_c, 0, 56, 12
3, 97200, Note_on_c, 0, 61, 16
3, 97200, Note_on_c, 0, 68, 20
3, 97217, Control_c, 0, 64, 0
3, 97333, Control_c, 0, 64, 127
3, 97428, Note_on_c, 0, 68, 0
3, 97428, Note_on_c, 0, 61, 0
3, 97428, Note_on_c, 0, 56, 0
3, 97440, Note_on_c, 0, 56, 12
3, 97440, Note_on_c, 0, 61, 16
3, 97440, Note_on_c, 0, 68, 20
3, 97668, Note_on_c, 0, 68, 0
3, 97668, Note_on_c, 0, 61, 0
3, 97668, Note_on_c, 0, 56, 0
3, 97680, Note_on_c, 0, 56, 12
3, 97680, Note_on_c, 0, 61, 16
3, 97680, Note_on_c, 0, 68, 20
3, 97908, Note_on_c, 0, 68, 0
3, 97908, Note_on_c, 0, 61, 0
3, 97908, Note_on_c, 0, 56, 0
3, 97920, Note_on_c, 0, 32, 57
3, 97920, Control_c, 0, 64, 0
3, 97929, Control_c, 0, 64, 0
3, 98040, Control_c, 0, 64, 127
3, 98160, Note_on_c, 0, 55, 13
3, 98160, Note_on_c, 0, 58, 18
3, 98160, Note_on_c, 0, 67, 22
3, 98388, Note_on_c, 0, 67, 0
3, 98388, Note_on_c, 0, 58, 0
3, 98388, Note_on_c, 0, 55, 0
3, 98400, Note_on_c, 0, 55, 13
3, 98400, Note_on_c, 0, 58, 18
3, 98400, Note_on_c, 0, 67, 22
3, 98628, Note_on_c, 0, 67, 0
3, 98628, Note_on_c, 0, 58, 0
3, 98628, Note_on_c, 0, 55, 0
3, 98640, Note_on_c, 0, 63, 20
3, 98640, Note_on_c, 0, 55, 14
3, 98640, Note_on_c, 0, 58, 14
3, 98640, Note_on_c, 0, 61, 20
3, 98640, Note_on_c, 0, 67, 23
3, 98868, Note_on_c, 0, 67, 0
3, 98868, Note_on_c, 0, 63, 0
3, 98868, Note_on_c, 0, 55, 0
3, 98868, Note_on_c, 0, 58, 0
3, 98868, Note_on_c, 0, 61, 0
3, 98880, Note_on_c, 0, 63, 18
3, 98880, Note_on_c, 0, 55, 13
3, 98880, Note_on_c, 0, 58, 13
3, 98880, Note_on_c, 0, 61, 18
3, 98880, Note_on_c, 0, 67, 22
3, 99108, Note_on_c, 0, 67, 0
3, 99108, Note_on_c, 0, 63, 0
3, 99108, Note_on_c, 0, 55, 0
3, 99108, Note_on_c, 0, 58, 0
3, 99108, Note_on_c, 0, 61, 0
3, 99120, Note_on_c, 0, 63, 18
3, 99120, Note_on_c, 0, 55, 13
3, 99120, Note_on_c, 0, 58, 13
3, 99120, Note_on_c, 0, 61, 18
3, 99120, Note_on_c, 0, 67, 22
3, 99348, Note_on_c, 0, 67, 0
3, 99348, Note_on_c, 0, 63, 0
3, 99348, Note_on_c, 0, 55, 0
3, 99348, Note_on_c, 0, 58, 0
3, 99348, Note_on_c, 0, 61, 0
3, 99360, Note_on_c, 0, 32, 0
3, 99360, Note_on_c, 0, 56, 13
3, 99360, Note_on_c, 0, 60, 15
3, 99360, Note_on_c, 0, 66, 19
3, 99373, Control_c, 0, 64, 0
3, 99507, Control_c, 0, 64, 127
3, 99588, Note_on_c, 0, 66, 0
3, 99588, Note_on_c, 0, 60, 0
3, 99588, Note_on_c, 0, 56, 0
3, 99600, Note_on_c, 0, 56, 13
3, 99600, Note_on_c, 0, 60, 15
3, 99600, Note_on_c, 0, 66, 19
3, 99828, Note_on_c, 0, 66, 0
3, 99828, Note_on_c, 0, 60, 0
3, 99828, Note_on_c, 0, 56, 0
3, 99840, Note_on_c, 0, 56, 13
3, 99840, Note_on_c, 0, 60, 16
3, 99840, Note_on_c, 0, 66, 20
3, 100068, Note_on_c, 0, 66, 0
3, 100068, Note_on_c, 0, 60, 0
3, 100068, Note_on_c, 0, 56, 0
3, 100080, Note_on_c, 0, 53, 13
3, 100080, Note_on_c, 0, 56, 15
3, 100080, Note_on_c, 0, 65, 17
3, 100097, Control_c, 0, 64, 0
3, 100213, Control_c, 0, 64, 127
3, 100308, Note_on_c, 0, 65, 0
3, 100308, Note_on_c, 0, 56, 0
3, 100308, Note_on_c, 0, 53, 0
3, 100320, Note_on_c, 0, 53, 13
3, 100320, Note_on_c, 0, 56, 15
3, 100320, Note_on_c, 0, 65, 17
3, 100548, Note_on_c, 0, 65, 0
3, 100548, Note_on_c, 0, 56, 0
3, 100548, Note_on_c, 0, 53, 0
3, 100560, Note_on_c, 0, 53, 13
3, 100560, Note_on_c, 0, 56, 15
3, 100560, Note_on_c, 0, 65, 17
3, 100788, Note_on_c, 0, 65, 0
3, 100788, Note_on_c, 0, 56, 0
3, 100788, Note_on_c, 0, 53, 0
3, 100800, Note_on_c, 0, 32, 58
3, 100800, Control_c, 0, 64, 0
3, 100812, Control_c, 0, 64, 0
3, 100920, Control_c, 0, 64, 127
3, 101040, Note_on_c, 0, 51, 18
3, 101040, Note_on_c, 0, 56, 18
3, 101040, Note_on_c, 0, 63, 22
3, 101268, Note_on_c, 0, 63, 0
3, 101268, Note_on_c, 0, 56, 0
3, 101268, Note_on_c, 0, 51, 0
3, 101280, Note_on_c, 0, 51, 18
3, 101280, Note_on_c, 0, 56, 18
3, 101280, Note_on_c, 0, 63, 22
3, 101508, Note_on_c, 0, 63, 0
3, 101508, Note_on_c, 0, 56, 0
3, 101508, Note_on_c, 0, 51, 0
3, 101520, Note_on_c, 0, 51, 15
3, 101520, Note_on_c, 0, 56, 18
3, 101520, Note_on_c, 0, 63, 22
3, 101534, Control_c, 0, 64, 0
3, 101680, Control_c, 0, 64, 127
3, 101748, Note_on_c, 0, 63, 0
3, 101748, Note_on_c, 0, 56, 0
3, 101748, Note_on_c, 0, 51, 0
3, 101760, Note_on_c, 0, 51, 15
3, 101760, Note_on_c, 0, 56, 18
3, 101760, Note_on_c, 0, 63, 22
3, 101988, Note_on_c, 0, 63, 0
3, 101988, Note_on_c, 0, 56, 0
3, 101988, Note_on_c, 0, 51, 0
3, 102000, Note_on_c, 0, 51, 14
3, 102000, Note_on_c, 0, 56, 16
3, 102000, Note_on_c, 0, 63, 20
3, 102228, Note_on_c, 0, 63, 0
3, 102228, Note_on_c, 0, 56, 0
3, 102228, Note_on_c, 0, 51, 0
3, 102240, Note_on_c, 0, 32, 0
3, 102240, Note_on_c, 0, 51, 16
3, 102240, Note_on_c, 0, 63, 20
3, 102250, Control_c, 0, 64, 0
3, 102360, Control_c, 0, 64, 127
3, 102468, Note_on_c, 0, 63, 0
3, 102468, Note_on_c, 0, 51, 0
3, 102480, Note_on_c, 0, 51, 16
3, 102480, Note_on_c, 0, 63, 20
3, 102708, Note_on_c, 0, 63, 0
3, 102708, Note_on_c, 0, 51, 0
3, 102720, Note_on_c, 0, 51, 15
3, 102720, Note_on_c, 0, 63, 18
3, 102948, Note_on_c, 0, 63, 0
3, 102948, Note_on_c, 0, 51, 0
3, 102960, Note_on_c, 0, 51, 16
3, 102960, Note_on_c, 0, 63, 20
3, 103188, Note_on_c, 0, 63, 0
3, 103188, Note_on_c, 0, 51, 0
3, 103200, Note_on_c, 0, 51, 15
3, 103200, Note_on_c, 0, 63, 18
3, 103428, Note_on_c, 0, 63, 0
3, 103428, Note_on_c, 0, 51, 0
3, 103440, Note_on_c, 0, 51, 15
3, 103440, Note_on_c, 0, 63, 18
3, 103668, Note_on_c, 0, 63, 0
3, 103668, Note_on_c, 0, 51, 0
3, 103680, Note_on_c, 0, 32, 62
3, 103691, Control_c, 0, 64, 0
3, 103840, Control_c, 0, 64, 127
3, 103920, Note_on_c, 0, 51, 17
3, 103920, Note_on_c, 0, 63, 22
3, 104148, Note_on_c, 0, 63, 0
3, 104148, Note_on_c, 0, 51, 0
3, 104160, Note_on_c, 0, 51, 18
3, 104160, Note_on_c, 0, 63, 22
3, 104388, Note_on_c, 0, 63, 0
3, 104388, Note_on_c, 0, 51, 0
3, 104400, Note_on_c, 0, 51, 20
3, 104400, Note_on_c, 0, 63, 24
3, 104628, Note_on_c, 0, 63, 0
3, 104628, Note_on_c, 0, 51, 0
3, 104640, Note_on_c, 0, 51, 18
3, 104640, Note_on_c, 0, 63, 22
3, 104868, Note_on_c, 0, 63, 0
3, 104868, Note_on_c, 0, 51, 0
3, 104880, Note_on_c, 0, 51, 18
3, 104880, Note_on_c, 0, 63, 22
3, 105108, Note_on_c, 0, 63, 0
3, 105108, Note_on_c, 0, 51, 0
3, 105120, Note_on_c, 0, 32, 0
3, 105120, Note_on_c, 0, 51, 15
3, 105120, Note_on_c, 0, 56, 17
3, 105120, Note_on_c, 0, 63, 21
3, 105131, Control_c, 0, 64, 0
3, 105211, Control_c, 0, 64, 127
3, 105348, Note_on_c, 0, 63, 0
3, 105348, Note_on_c, 0, 56, 0
3, 105348, Note_on_c, 0, 51, 0
3, 105360, Note_on_c, 0, 51, 15
3, 105360, Note_on_c, 0, 56, 17
3, 105360, Note_on_c, 0, 63, 21
3, 105588, Note_on_c, 0, 63, 0
3, 105588, Note_on_c, 0, 56, 0
3, 105588, Note_on_c, 0, 51, 0
3, 105600, Note_on_c, 0, 51, 15
3, 105600, Note_on_c, 0, 56, 17
3, 105600, Note_on_c, 0, 63, 21
3, 105828, Note_on_c, 0, 63, 0
3, 105828, Note_on_c, 0, 56, 0
3, 105828, Note_on_c, 0, 51, 0
3, 105840, Note_on_c, 0, 51, 15
3, 105840, Note_on_c, 0, 56, 20
3, 105840, Note_on_c, 0, 63, 25
3, 105857, Control_c, 0, 64, 0
3, 105989, Control_c, 0, 64, 127
3, 106068, Note_on_c, 0, 63, 0
3, 106068, Note_on_c, 0, 56, 0
3, 106068, Note_on_c, 0, 51, 0
3, 106080, Note_on_c, 0, 51, 15
3, 106080, Note_on_c, 0, 56, 17
3, 106080, Note_on_c, 0, 63, 21
3, 106308, Note_on_c, 0, 63, 0
3, 106308, Note_on_c, 0, 56, 0
3, 106308, Note_on_c, 0, 51, 0
3, 106320, Note_on_c, 0, 51, 15
3, 106320, Note_on_c, 0, 56, 17
3, 106320, Note_on_c, 0, 63, 21
3, 106548, Note_on_c, 0, 63, 0
3, 106548, Note_on_c, 0, 56, 0
3, 106548, Note_on_c, 0, 51, 0
3, 106560, Note_on_c, 0, 32, 56
3, 106570, Control_c, 0, 64, 0
3, 106680, Control_c, 0, 64, 127
3, 106800, Note_on_c, 0, 53, 11
3, 106800, Note_on_c, 0, 56, 12
3, 106800, Note_on_c, 0, 61, 18
3, 106800, Note_on_c, 0, 65, 22
3, 107028, Note_on_c, 0, 65, 0
3, 107028, Note_on_c, 0, 56, 0
3, 107028, Note_on_c, 0, 61, 0
3, 107028, Note_on_c, 0, 53, 0
3, 107040, Note_on_c, 0, 53, 11
3, 107040, Note_on_c, 0, 56, 12
3, 107040, Note_on_c, 0, 61, 18
3, 107040, Note_on_c, 0, 65, 22
3, 107268, Note_on_c, 0, 65, 0
3, 107268, Note_on_c, 0, 56, 0
3, 107268, Note_on_c, 0, 61, 0
3, 107268, Note_on_c, 0, 53, 0
3, 107280, Note_on_c, 0, 53, 11
3, 107280, Note_on_c, 0, 56, 13
3, 107280, Note_on_c, 0, 61, 20
3, 107280, Note_on_c, 0, 65, 25
3, 107508, Note_on_c, 0, 65, 0
3, 107508, Note_on_c, 0, 56, 0
3, 107508, Note_on_c, 0, 61, 0
3, 107508, Note_on_c, 0, 53, 0
3, 107520, Note_on_c, 0, 53, 11
3, 107520, Note_on_c, 0, 56, 12
3, 107520, Note_on_c, 0, 61, 18
3, 107520, Note_on_c, 0, 65, 22
3, 107748, Note_on_c, 0, 65, 0
3, 107748, Note_on_c, 0, 56, 0
3, 107748, Note_on_c, 0, 61, 0
3, 107748, Note_on_c, 0, 53, 0
3, 107760, Note_on_c, 0, 53, 11
3, 107760, Note_on_c, 0, 56, 12
3, 107760, Note_on_c, 0, 61, 18
3, 107760, Note_on_c, 0, 65, 22
3, 107988, Note_on_c, 0, 65, 0
3, 107988, Note_on_c, 0, 56, 0
3, 107988, Note_on_c, 0, 61, 0
3, 107988, Note_on_c, 0, 53, 0
3, 108000, Note_on_c, 0, 32, 0
3, 108000, Note_on_c, 0, 55, 11
3, 108000, Note_on_c, 0, 58, 12
3, 108000, Note_on_c, 0, 61, 15
3, 108000, Note_on_c, 0, 67, 17
3, 108013, Control_c, 0, 64, 0
3, 108147, Control_c, 0, 64, 127
3, 108228, Note_on_c, 0, 67, 0
3, 108228, Note_on_c, 0, 55, 0
3, 108228, Note_on_c, 0, 58, 0
3, 108228, Note_on_c, 0, 61, 0
3, 108240, Note_on_c, 0, 55, 11
3, 108240, Note_on_c, 0, 58, 12
3, 108240, Note_on_c, 0, 61, 15
3, 108240, Note_on_c, 0, 67, 17
3, 108468, Note_on_c, 0, 67, 0
3, 108468, Note_on_c, 0, 55, 0
3, 108468, Note_on_c, 0, 58, 0
3, 108468, Note_on_c, 0, 61, 0
3, 108480, Note_on_c, 0, 55, 11
3, 108480, Note_on_c, 0, 58, 12
3, 108480, Note_on_c, 0, 61, 15
3, 108480, Note_on_c, 0, 67, 18
3, 108708, Note_on_c, 0, 67, 0
3, 108708, Note_on_c, 0, 55, 0
3, 108708, Note_on_c, 0, 58, 0
3, 108708, Note_on_c, 0, 61, 0
3, 108720, Note_on_c, 0, 56, 13
3, 108720, Note_on_c, 0, 61, 15
3, 108720, Note_on_c, 0, 68, 18
3, 108739, Control_c, 0, 64, 0
3, 108853, Control_c, 0, 64, 127
3, 108948, Note_on_c, 0, 68, 0
3, 108948, Note_on_c, 0, 61, 0
3, 108948, Note_on_c, 0, 56, 0
3, 108960, Note_on_c, 0, 56, 11
3, 108960, Note_on_c, 0, 61, 15
3, 108960, Note_on_c, 0, 68, 18
3, 109188, Note_on_c, 0, 68, 0
3, 109188, Note_on_c, 0, 61, 0
3, 109188, Note_on_c, 0, 56, 0
3, 109200, Note_on_c, 0, 56, 11
3, 109200, Note_on_c, 0, 61, 15
3, 109200, Note_on_c, 0, 68, 18
3, 109428, Note_on_c, 0, 68, 0
3, 109428, Note_on_c, 0, 61, 0
3, 109428, Note_on_c, 0, 56, 0
3, 109440, Note_on_c, 0, 32, 57
3, 109440, Control_c, 0, 64, 0
3, 109453, Control_c, 0, 64, 0
3, 109560, Control_c, 0, 64, 127
3, 109680, Note_on_c, 0, 55, 13
3, 109680, Note_on_c, 0, 58, 18
3, 109680, Note_on_c, 0, 67, 22
3, 109908, Note_on_c, 0, 67, 0
3, 109908, Note_on_c, 0, 58, 0
3, 109908, Note_on_c, 0, 55, 0
3, 109920, Note_on_c, 0, 55, 13
3, 109920, Note_on_c, 0, 58, 18
3, 109920, Note_on_c, 0, 67, 22
3, 110148, Note_on_c, 0, 67, 0
3, 110148, Note_on_c, 0, 58, 0
3, 110148, Note_on_c, 0, 55, 0
3, 110160, Note_on_c, 0, 61, 18
3, 110160, Note_on_c, 0, 63, 18
3, 110160, Note_on_c, 0, 55, 14
3, 110160, Note_on_c, 0, 58, 20
3, 110160, Note_on_c, 0, 67, 25
3, 110388, Note_on_c, 0, 67, 0
3, 110388, Note_on_c, 0, 61, 0
3, 110388, Note_on_c, 0, 63, 0
3, 110388, Note_on_c, 0, 55, 0
3, 110388, Note_on_c, 0, 58, 0
3, 110400, Note_on_c, 0, 61, 18
3, 110400, Note_on_c, 0, 63, 18
3, 110400, Note_on_c, 0, 55, 13
3, 110400, Note_on_c, 0, 58, 18
3, 110400, Note_on_c, 0, 67, 22
3, 110628, Note_on_c, 0, 67, 0
3, 110628, Note_on_c, 0, 61, 0
3, 110628, Note_on_c, 0, 63, 0
3, 110628, Note_on_c, 0, 55, 0
3, 110628, Note_on_c, 0, 58, 0
3, 110640, Note_on_c, 0, 61, 18
3, 110640, Note_on_c, 0, 63, 18
3, 110640, Note_on_c, 0, 55, 13
3, 110640, Note_on_c, 0, 58, 18
3, 110640, Note_on_c, 0, 67, 22
3, 110868, Note_on_c, 0, 67, 0
3, 110868, Note_on_c, 0, 61, 0
3, 110868, Note_on_c, 0, 63, 0
3, 110868, Note_on_c, 0, 55, 0
3, 110868, Note_on_c, 0, 58, 0
3, 110880, Note_on_c, 0, 32, 0
3, 110880, Note_on_c, 0, 56, 13
3, 110880, Note_on_c, 0, 60, 15
3, 110880, Note_on_c, 0, 66, 17
3, 110893, Control_c, 0, 64, 0
3, 111027, Control_c, 0, 64, 127
3, 111108, Note_on_c, 0, 66, 0
3, 111108, Note_on_c, 0, 60, 0
3, 111108, Note_on_c, 0, 56, 0
3, 111120, Note_on_c, 0, 56, 13
3, 111120, Note_on_c, 0, 60, 15
3, 111120, Note_on_c, 0, 66, 17
3, 111348, Note_on_c, 0, 66, 0
3, 111348, Note_on_c, 0, 60, 0
3, 111348, Note_on_c, 0, 56, 0
3, 111360, Note_on_c, 0, 56, 13
3, 111360, Note_on_c, 0, 60, 15
3, 111360, Note_on_c, 0, 66, 18
3, 111588, Note_on_c, 0, 66, 0
3, 111588, Note_on_c, 0, 60, 0
3, 111588, Note_on_c, 0, 56, 0
3, 111600, Note_on_c, 0, 53, 13
3, 111600, Note_on_c, 0, 56, 15
3, 111600, Note_on_c, 0, 65, 18
3, 111618, Control_c, 0, 64, 0
3, 111733, Control_c, 0, 64, 127
3, 111828, Note_on_c, 0, 65, 0
3, 111828, Note_on_c, 0, 56, 0
3, 111828, Note_on_c, 0, 53, 0
3, 111840, Note_on_c, 0, 53, 12
3, 111840, Note_on_c, 0, 56, 14
3, 111840, Note_on_c, 0, 65, 17
3, 112068, Note_on_c, 0, 65, 0
3, 112068, Note_on_c, 0, 56, 0
3, 112068, Note_on_c, 0, 53, 0
3, 112080, Note_on_c, 0, 53, 11
3, 112080, Note_on_c, 0, 56, 13
3, 112080, Note_on_c, 0, 65, 16
3, 112308, Note_on_c, 0, 65, 0
3, 112308, Note_on_c, 0, 56, 0
3, 112308, Note_on_c, 0, 53, 0
3, 112320, Note_on_c, 0, 32, 56
3, 112320, Control_c, 0, 64, 0
3, 112333, Control_c, 0, 64, 0
3, 112440, Control_c, 0, 64, 127
3, 112560, Note_on_c, 0, 52, 14
3, 112560, Note_on_c, 0, 56, 16
3, 112560, Note_on_c, 0, 64, 20
3, 112788, Note_on_c, 0, 64, 0
3, 112788, Note_on_c, 0, 56, 0
3, 112788, Note_on_c, 0, 52, 0
3, 112800, Note_on_c, 0, 52, 14
3, 112800, Note_on_c, 0, 56, 16
3, 112800, Note_on_c, 0, 64, 20
3, 113028, Note_on_c, 0, 64, 0
3, 113028, Note_on_c, 0, 56, 0
3, 113028, Note_on_c, 0, 52, 0
3, 113040, Note_on_c, 0, 52, 14
3, 113040, Note_on_c, 0, 56, 16
3, 113040, Note_on_c, 0, 64, 20
3, 113268, Note_on_c, 0, 64, 0
3, 113268, Note_on_c, 0, 56, 0
3, 113268, Note_on_c, 0, 52, 0
3, 113280, Note_on_c, 0, 52, 11
3, 113280, Note_on_c, 0, 56, 16
3, 113280, Note_on_c, 0, 64, 20
3, 113508, Note_on_c, 0, 64, 0
3, 113508, Note_on_c, 0, 56, 0
3, 113508, Note_on_c, 0, 52, 0
3, 113520, Note_on_c, 0, 52, 11
3, 113520, Note_on_c, 0, 56, 15
3, 113520, Note_on_c, 0, 64, 17
3, 113748, Note_on_c, 0, 64, 0
3, 113748, Note_on_c, 0, 56, 0
3, 113748, Note_on_c, 0, 52, 0
3, 113760, Note_on_c, 0, 32, 0
3, 113760, Note_on_c, 0, 51, 10
3, 113760, Note_on_c, 0, 56, 15
3, 113760, Note_on_c, 0, 63, 18
3, 113777, Control_c, 0, 64, 0
3, 113933, Control_c, 0, 64, 127
3, 113988, Note_on_c, 0, 63, 0
3, 113988, Note_on_c, 0, 56, 0
3, 113988, Note_on_c, 0, 51, 0
3, 114000, Note_on_c, 0, 56, 15
3, 114000, Note_on_c, 0, 51, 10
3, 114000, Note_on_c, 0, 63, 18
3, 114228, Note_on_c, 0, 63, 0
3, 114228, Note_on_c, 0, 51, 0
3, 114228, Note_on_c, 0, 56, 0
3, 114240, Note_on_c, 0, 56, 15
3, 114240, Note_on_c, 0, 51, 9
3, 114240, Note_on_c, 0, 63, 17
3, 114468, Note_on_c, 0, 63, 0
3, 114468, Note_on_c, 0, 51, 0
3, 114468, Note_on_c, 0, 56, 0
3, 114480, Note_on_c, 0, 56, 15
3, 114480, Note_on_c, 0, 51, 10
3, 114480, Note_on_c, 0, 63, 18
3, 114708, Note_on_c, 0, 63, 0
3, 114708, Note_on_c, 0, 51, 0
3, 114708, Note_on_c, 0, 56, 0
3, 114720, Note_on_c, 0, 56, 15
3, 114720, Note_on_c, 0, 51, 9
3, 114720, Note_on_c, 0, 63, 17
3, 114948, Note_on_c, 0, 63, 0
3, 114948, Note_on_c, 0, 51, 0
3, 114948, Note_on_c, 0, 56, 0
3, 114960, Note_on_c, 0, 56, 15
3, 114960, Note_on_c, 0, 51, 9
3, 114960, Note_on_c, 0, 63, 17
3, 115188, Note_on_c, 0, 63, 0
3, 115188, Note_on_c, 0, 51, 0
3, 115188, Note_on_c, 0, 56, 0
3, 115200, Note_on_c, 0, 32, 56
3, 115200, Control_c, 0, 64, 0
3, 115212, Control_c, 0, 64, 0
3, 115320, Control_c, 0, 64, 127
3, 115440, Note_on_c, 0, 52, 14
3, 115440, Note_on_c, 0, 56, 16
3, 115440, Note_on_c, 0, 64, 20
3, 115668, Note_on_c, 0, 64, 0
3, 115668, Note_on_c, 0, 56, 0
3, 115668, Note_on_c, 0, 52, 0
3, 115680, Note_on_c, 0, 52, 14
3, 115680, Note_on_c, 0, 56, 16
3, 115680, Note_on_c, 0, 64, 20
3, 115908, Note_on_c, 0, 64, 0
3, 115908, Note_on_c, 0, 56, 0
3, 115908, Note_on_c, 0, 52, 0
3, 115920, Note_on_c, 0, 52, 14
3, 115920, Note_on_c, 0, 56, 16
3, 115920, Note_on_c, 0, 64, 20
3, 116148, Note_on_c, 0, 64, 0
3, 116148, Note_on_c, 0, 56, 0
3, 116148, Note_on_c, 0, 52, 0
3, 116160, Note_on_c, 0, 52, 11
3, 116160, Note_on_c, 0, 56, 16
3, 116160, Note_on_c, 0, 64, 20
3, 116388, Note_on_c, 0, 64, 0
3, 116388, Note_on_c, 0, 56, 0
3, 116388, Note_on_c, 0, 52, 0
3, 116400, Note_on_c, 0, 52, 11
3, 116400, Note_on_c, 0, 56, 15
3, 116400, Note_on_c, 0, 64, 17
3, 116628, Note_on_c, 0, 64, 0
3, 116628, Note_on_c, 0, 56, 0
3, 116628, Note_on_c, 0, 52, 0
3, 116640, Note_on_c, 0, 32, 0
3, 116640, Note_on_c, 0, 51, 10
3, 116640, Note_on_c, 0, 56, 15
3, 116640, Note_on_c, 0, 63, 18
3, 116658, Control_c, 0, 64, 0
3, 116813, Control_c, 0, 64, 127
3, 116868, Note_on_c, 0, 63, 0
3, 116868, Note_on_c, 0, 56, 0
3, 116868, Note_on_c, 0, 51, 0
3, 116880, Note_on_c, 0, 56, 15
3, 116880, Note_on_c, 0, 51, 10
3, 116880, Note_on_c, 0, 63, 18
3, 117108, Note_on_c, 0, 63, 0
3, 117108, Note_on_c, 0, 51, 0
3, 117108, Note_on_c, 0, 56, 0
3, 117120, Note_on_c, 0, 56, 15
3, 117120, Note_on_c, 0, 51, 9
3, 117120, Note_on_c, 0, 63, 17
3, 117348, Note_on_c, 0, 63, 0
3, 117348, Note_on_c, 0, 51, 0
3, 117348, Note_on_c, 0, 56, 0
3, 117360, Note_on_c, 0, 52, 14
3, 117360, Note_on_c, 0, 56, 16
3, 117360, Note_on_c, 0, 64, 20
3, 117375, Control_c, 0, 64, 0
3, 117486, Control_c, 0, 64, 127
3, 117588, Note_on_c, 0, 64, 0
3, 117588, Note_on_c, 0, 56, 0
3, 117588, Note_on_c, 0, 52, 0
3, 117600, Note_on_c, 0, 52, 11
3, 117600, Note_on_c, 0, 56, 16
3, 117600, Note_on_c, 0, 64, 20
3, 117828, Note_on_c, 0, 64, 0
3, 117828, Note_on_c, 0, 56, 0
3, 117828, Note_on_c, 0, 52, 0
3, 117840, Note_on_c, 0, 52, 11
3, 117840, Note_on_c, 0, 56, 15
3, 117840, Note_on_c, 0, 64, 17
3, 118068, Note_on_c, 0, 64, 0
3, 118068, Note_on_c, 0, 56, 0
3, 118068, Note_on_c, 0, 52, 0
3, 118080, Note_on_c, 0, 51, 10
3, 118080, Note_on_c, 0, 56, 15
3, 118080, Note_on_c, 0, 63, 18
3, 118097, Control_c, 0, 64, 0
3, 118217, Control_c, 0, 64, 127
3, 118308, Note_on_c, 0, 63, 0
3, 118308, Note_on_c, 0, 56, 0
3, 118308, Note_on_c, 0, 51, 0
3, 118320, Note_on_c, 0, 56, 15
3, 118320, Note_on_c, 0, 51, 10
3, 118320, Note_on_c, 0, 63, 18
3, 118548, Note_on_c, 0, 63, 0
3, 118548, Note_on_c, 0, 51, 0
3, 118548, Note_on_c, 0, 56, 0
3, 118560, Note_on_c, 0, 56, 15
3, 118560, Note_on_c, 0, 51, 9
3, 118560, Note_on_c, 0, 63, 17
3, 118788, Note_on_c, 0, 63, 0
3, 118788, Note_on_c, 0, 51, 0
3, 118788, Note_on_c, 0, 56, 0
3, 118800, Note_on_c, 0, 51, 14
3, 118800, Note_on_c, 0, 56, 16
3, 118800, Note_on_c, 0, 63, 20
3, 119028, Note_on_c, 0, 63, 0
3, 119028, Note_on_c, 0, 56, 0
3, 119028, Note_on_c, 0, 51, 0
3, 119040, Note_on_c, 0, 51, 11
3, 119040, Note_on_c, 0, 56, 16
3, 119040, Note_on_c, 0, 63, 20
3, 119268, Note_on_c, 0, 63, 0
3, 119268, Note_on_c, 0, 56, 0
3, 119268, Note_on_c, 0, 51, 0
3, 119280, Note_on_c, 0, 51, 11
3, 119280, Note_on_c, 0, 56, 15
3, 119280, Note_on_c, 0, 63, 17
3, 119508, Note_on_c, 0, 63, 0
3, 119508, Note_on_c, 0, 56, 0
3, 119508, Note_on_c, 0, 51, 0
3, 119520, Note_on_c, 0, 32, 55
3, 119560, Control_c, 0, 64, 0
3, 119657, Control_c, 0, 64, 127
3, 119760, Note_on_c, 0, 56, 15
3, 119760, Note_on_c, 0, 51, 10
3, 119760, Note_on_c, 0, 63, 18
3, 119988, Note_on_c, 0, 63, 0
3, 119988, Note_on_c, 0, 51, 0
3, 119988, Note_on_c, 0, 56, 0
3, 120000, Note_on_c, 0, 56, 15
3, 120000, Note_on_c, 0, 51, 9
3, 120000, Note_on_c, 0, 63, 17
3, 120228, Note_on_c, 0, 63, 0
3, 120228, Note_on_c, 0, 51, 0
3, 120228, Note_on_c, 0, 56, 0
3, 120240, Note_on_c, 0, 51, 14
3, 120240, Note_on_c, 0, 56, 16
3, 120240, Note_on_c, 0, 63, 20
3, 120468, Note_on_c, 0, 63, 0
3, 120468, Note_on_c, 0, 56, 0
3, 120468, Note_on_c, 0, 51, 0
3, 120480, Note_on_c, 0, 51, 11
3, 120480, Note_on_c, 0, 56, 16
3, 120480, Note_on_c, 0, 61, 20
3, 120493, Control_c, 0, 64, 0
3, 120560, Control_c, 0, 64, 127
3, 120708, Note_on_c, 0, 61, 0
3, 120708, Note_on_c, 0, 56, 0
3, 120708, Note_on_c, 0, 51, 0
3, 120720, Note_on_c, 0, 51, 11
3, 120720, Note_on_c, 0, 56, 15
3, 120720, Note_on_c, 0, 61, 17
3, 120948, Note_on_c, 0, 61, 0
3, 120948, Note_on_c, 0, 56, 0
3, 120948, Note_on_c, 0, 51, 0
3, 120960, Note_on_c, 0, 32, 0
3, 120960, Note_on_c, 0, 51, 13
3, 120960, Note_on_c, 0, 56, 15
3, 120960, Note_on_c, 0, 63, 18
3, 121000, Control_c, 0, 64, 0
3, 121097, Control_c, 0, 64, 127
3, 121188, Note_on_c, 0, 63, 0
3, 121188, Note_on_c, 0, 56, 0
3, 121188, Note_on_c, 0, 51, 0
3, 121200, Note_on_c, 0, 56, 15
3, 121200, Note_on_c, 0, 51, 10
3, 121200, Note_on_c, 0, 63, 18
3, 121428, Note_on_c, 0, 63, 0
3, 121428, Note_on_c, 0, 51, 0
3, 121428, Note_on_c, 0, 56, 0
3, 121440, Note_on_c, 0, 56, 15
3, 121440, Note_on_c, 0, 51, 9
3, 121440, Note_on_c, 0, 63, 17
3, 121668, Note_on_c, 0, 63, 0
3, 121668, Note_on_c, 0, 51, 0
3, 121668, Note_on_c, 0, 56, 0
3, 121680, Note_on_c, 0, 51, 14
3, 121680, Note_on_c, 0, 56, 16
3, 121680, Note_on_c, 0, 63, 20
3, 121908, Note_on_c, 0, 63, 0
3, 121908, Note_on_c, 0, 56, 0
3, 121908, Note_on_c, 0, 51, 0
3, 121920, Note_on_c, 0, 51, 11
3, 121920, Note_on_c, 0, 56, 16
3, 121920, Note_on_c, 0, 61, 20
3, 121936, Control_c, 0, 64, 0
3, 122014, Control_c, 0, 64, 127
3, 122148, Note_on_c, 0, 61, 0
3, 122148, Note_on_c, 0, 56, 0
3, 122148, Note_on_c, 0, 51, 0
3, 122160, Note_on_c, 0, 51, 11
3, 122160, Note_on_c, 0, 56, 15
3, 122160, Note_on_c, 0, 61, 17
3, 122388, Note_on_c, 0, 61, 0
3, 122388, Note_on_c, 0, 56, 0
3, 122388, Note_on_c, 0, 51, 0
3, 122400, Note_on_c, 0, 51, 13
3, 122400, Note_on_c, 0, 56, 15
3, 122400, Note_on_c, 0, 63, 18
3, 122418, Control_c, 0, 64, 0
3, 122537, Control_c, 0, 64, 127
3, 122628, Note_on_c, 0, 63, 0
3, 122628, Note_on_c, 0, 56, 0
3, 122628, Note_on_c, 0, 51, 0
3, 122640, Note_on_c, 0, 56, 15
3, 122640, Note_on_c, 0, 51, 10
3, 122640, Note_on_c, 0, 63, 18
3, 122868, Note_on_c, 0, 63, 0
3, 122868, Note_on_c, 0, 51, 0
3, 122868, Note_on_c, 0, 56, 0
3, 122880, Note_on_c, 0, 55, 15
3, 122880, Note_on_c, 0, 51, 9
3, 122880, Note_on_c, 0, 63, 17
3, 123108, Note_on_c, 0, 63, 0
3, 123108, Note_on_c, 0, 51, 0
3, 123108, Note_on_c, 0, 55, 0
3, 123120, Note_on_c, 0, 51, 14
3, 123120, Note_on_c, 0, 56, 16
3, 123120, Note_on_c, 0, 63, 20
3, 123134, Control_c, 0, 64, 0
3, 123227, Control_c, 0, 64, 127
3, 123348, Note_on_c, 0, 63, 0
3, 123348, Note_on_c, 0, 56, 0
3, 123348, Note_on_c, 0, 51, 0
3, 123360, Note_on_c, 0, 51, 11
3, 123360, Note_on_c, 0, 56, 16
3, 123360, Note_on_c, 0, 63, 20
3, 123588, Note_on_c, 0, 63, 0
3, 123588, Note_on_c, 0, 56, 0
3, 123588, Note_on_c, 0, 51, 0
3, 123600, Note_on_c, 0, 51, 11
3, 123600, Note_on_c, 0, 55, 15
3, 123600, Note_on_c, 0, 63, 17
3, 123828, Note_on_c, 0, 63, 0
3, 123828, Note_on_c, 0, 55, 0
3, 123828, Note_on_c, 0, 51, 0
3, 123840, Note_on_c, 0, 51, 13
3, 123840, Note_on_c, 0, 56, 15
3, 123840, Note_on_c, 0, 63, 18
3, 123856, Control_c, 0, 64, 0
3, 123977, Control_c, 0, 64, 127
3, 124068, Note_on_c, 0, 63, 0
3, 124068, Note_on_c, 0, 56, 0
3, 124068, Note_on_c, 0, 51, 0
3, 124080, Note_on_c, 0, 56, 15
3, 124080, Note_on_c, 0, 51, 10
3, 124080, Note_on_c, 0, 63, 18
3, 124308, Note_on_c, 0, 63, 0
3, 124308, Note_on_c, 0, 51, 0
3, 124308, Note_on_c, 0, 56, 0
3, 124320, Note_on_c, 0, 55, 15
3, 124320, Note_on_c, 0, 51, 9
3, 124320, Note_on_c, 0, 63, 17
3, 124548, Note_on_c, 0, 63, 0
3, 124548, Note_on_c, 0, 51, 0
3, 124548, Note_on_c, 0, 55, 0
3, 124560, Note_on_c, 0, 51, 14
3, 124560, Note_on_c, 0, 56, 16
3, 124560, Note_on_c, 0, 63, 20
3, 124572, Control_c, 0, 64, 0
3, 124694, Control_c, 0, 64, 127
3, 124788, Note_on_c, 0, 63, 0
3, 124788, Note_on_c, 0, 56, 0
3, 124788, Note_on_c, 0, 51, 0
3, 124800, Note_on_c, 0, 51, 11
3, 124800, Note_on_c, 0, 56, 16
3, 124800, Note_on_c, 0, 63, 20
3, 125028, Note_on_c, 0, 63, 0
3, 125028, Note_on_c, 0, 56, 0
3, 125028, Note_on_c, 0, 51, 0
3, 125040, Note_on_c, 0, 51, 11
3, 125040, Note_on_c, 0, 55, 15
3, 125040, Note_on_c, 0, 63, 17
3, 125268, Note_on_c, 0, 63, 0
3, 125268, Note_on_c, 0, 55, 0
3, 125268, Note_on_c, 0, 51, 0
3, 125280, Note_on_c, 0, 32, 53
3, 125298, Control_c, 0, 64, 0
3, 125417, Control_c, 0, 64, 127
3, 125520, Note_on_c, 0, 56, 15
3, 125520, Note_on_c, 0, 51, 10
3, 125520, Note_on_c, 0, 63, 18
3, 125748, Note_on_c, 0, 63, 0
3, 125748, Note_on_c, 0, 51, 0
3, 125748, Note_on_c, 0, 56, 0
3, 125760, Note_on_c, 0, 56, 15
3, 125760, Note_on_c, 0, 51, 9
3, 125760, Note_on_c, 0, 63, 17
3, 125988, Note_on_c, 0, 63, 0
3, 125988, Note_on_c, 0, 51, 0
3, 125988, Note_on_c, 0, 56, 0
3, 126000, Note_on_c, 0, 51, 14
3, 126000, Note_on_c, 0, 56, 16
3, 126000, Note_on_c, 0, 63, 20
3, 126228, Note_on_c, 0, 63, 0
3, 126228, Note_on_c, 0, 56, 0
3, 126228, Note_on_c, 0, 51, 0
3, 126240, Note_on_c, 0, 51, 11
3, 126240, Note_on_c, 0, 56, 16
3, 126240, Note_on_c, 0, 63, 20
3, 126468, Note_on_c, 0, 63, 0
3, 126468, Note_on_c, 0, 56, 0
3, 126468, Note_on_c, 0, 51, 0
3, 126480, Note_on_c, 0, 51, 11
3, 126480, Note_on_c, 0, 56, 15
3, 126480, Note_on_c, 0, 63, 17
3, 126708, Note_on_c, 0, 63, 0
3, 126708, Note_on_c, 0, 56, 0
3, 126708, Note_on_c, 0, 51, 0
3, 126720, Note_on_c, 0, 32, 0
3, 126720, Note_on_c, 0, 51, 13
3, 126720, Note_on_c, 0, 56, 15
3, 126720, Note_on_c, 0, 63, 18
3, 126948, Note_on_c, 0, 63, 0
3, 126948, Note_on_c, 0, 56, 0
3, 126948, Note_on_c, 0, 51, 0
3, 126960, Note_on_c, 0, 56, 15
3, 126960, Note_on_c, 0, 51, 10
3, 126960, Note_on_c, 0, 63, 18
3, 127188, Note_on_c, 0, 63, 0
3, 127188, Note_on_c, 0, 51, 0
3, 127188, Note_on_c, 0, 56, 0
3, 127200, Note_on_c, 0, 56, 15
3, 127200, Note_on_c, 0, 51, 9
3, 127200, Note_on_c, 0, 63, 17
3, 127428, Note_on_c, 0, 63, 0
3, 127428, Note_on_c, 0, 51, 0
3, 127428, Note_on_c, 0, 56, 0
3, 127440, Note_on_c, 0, 51, 14
3, 127440, Note_on_c, 0, 56, 16
3, 127440, Note_on_c, 0, 63, 20
3, 127668, Note_on_c, 0, 63, 0
3, 127668, Note_on_c, 0, 56, 0
3, 127668, Note_on_c, 0, 51, 0
3, 127680, Note_on_c, 0, 51, 11
3, 127680, Note_on_c, 0, 56, 16
3, 127908, Note_on_c, 0, 56, 0
3, 127908, Note_on_c, 0, 51, 0
3, 127920, Note_on_c, 0, 51, 11
3, 127920, Note_on_c, 0, 56, 15
3, 127920, Note_on_c, 0, 63, 17
3, 127934, Control_c, 0, 64, 0
3, 127973, Control_c, 0, 64, 127
3, 128148, Note_on_c, 0, 63, 0
3, 128148, Note_on_c, 0, 56, 0
3, 128148, Note_on_c, 0, 51, 0
3, 128160, Note_on_c, 0, 51, 11
3, 128160, Note_on_c, 0, 56, 13
3, 128160, Note_on_c, 0, 63, 15
3, 129600, Note_on_c, 0, 63, 0
3, 129600, Note_on_c, 0, 56, 0
3, 129600, Note_on_c, 0, 51, 0
3, 130880, Control_c, 0, 64, 0
3, 130880, End_track
4, 0, Start_track
4, 0, Title_t, "Chopin: Prelude No.17 in Ab Major Op. 28"
4, 0, End_track
5, 0, Start_track
5, 0, Title_t, "Copyright © 2002 by Bernd Krueger"
5, 0, End_track
6, 0, Start_track
6, 0, Title_t, "http://www.piano-midi.de"
6, 0, End_track
7, 0, Start_track
7, 0, Title_t, "Edition: 2014-02-21"
7, 0, End_track
8, 0, Start_track
8, 0, Title_t, "Spur 7"
8, 0, End_track
0, 0, End_of_file
