0, 0, Header, 1, 7, 480
1, 0, Start_track
1, 0, Title_t, "Chopin Prelude  No. 1, Opus 28"
1, 0, Copyright_t, "Copyright © 2002 by Bernd Krueger "
1, 0, Text_t, "Frederic Chopin"
1, 0, Text_t, "Agitato"
1, 0, Text_t, "Fertiggestellt am 27.8.2002\012"
1, 0, Text_t, "Normierung: 23.12.2002\012"
1, 0, Text_t, "Update am 24.12.2002\012"
1, 0, Text_t, "Update am 2.6.2010\012"
1, 0, Text_t, "Update am 20.2.2014\012"
1, 0, Text_t, "Dauer: 0:34 Minuten\012"
1, 0, SMPTE_offset, 96, 0, 3, 0, 0
1, 0, Time_signature, 2, 3, 12, 8
1, 0, Key_signature, 0, "major"
1, 0, Tempo, 869565
1, 40, Tempo, 863309
1, 64, Tempo, 857143
1, 92, Tempo, 851064
1, 120, Tempo, 845070
1, 144, Tempo, 839161
1, 172, Tempo, 833333
1, 200, Tempo, 827586
1, 224, Tempo, 821918
1, 240, Tempo, 822820
1, 260, Tempo, 827472
1, 268, Tempo, 832293
1, 280, Tempo, 837054
1, 288, Tempo, 841987
1, 300, Tempo, 846860
1, 308, Tempo, 851910
1, 328, Tempo, 856898
1, 360, Tempo, 805369
1, 480, Tempo, 821918
1, 532, Tempo, 816327
1, 584, Tempo, 810811
1, 640, Tempo, 805369
1, 680, Tempo, 800000
1, 688, Tempo, 795650
1, 708, Tempo, 791348
1, 720, Tempo, 809061
1, 740, Tempo, 813559
1, 748, Tempo, 818219
1, 768, Tempo, 822820
1, 780, Tempo, 827472
1, 800, Tempo, 832293
1, 808, Tempo, 837054
1, 828, Tempo, 841987
1, 840, Tempo, 774194
1, 940, Tempo, 779221
1, 960, Tempo, 800000
1, 1000, Tempo, 794702
1, 1024, Tempo, 789474
1, 1052, Tempo, 784314
1, 1080, Tempo, 779221
1, 1104, Tempo, 774194
1, 1132, Tempo, 769231
1, 1160, Tempo, 764331
1, 1180, Tempo, 764331
1, 1200, Tempo, 769231
1, 1220, Tempo, 774194
1, 1240, Tempo, 779221
1, 1260, Tempo, 784314
1, 1280, Tempo, 789474
1, 1320, Tempo, 740741
1, 1420, Tempo, 789474
1, 1440, Tempo, 769231
1, 1480, Tempo, 764331
1, 1520, Tempo, 759494
1, 1540, Tempo, 754717
1, 1580, Tempo, 750000
1, 1620, Tempo, 745342
1, 1640, Tempo, 740741
1, 1660, Tempo, 745342
1, 1680, Tempo, 750000
1, 1700, Tempo, 754717
1, 1720, Tempo, 764331
1, 1740, Tempo, 769231
1, 1760, Tempo, 774194
1, 1780, Tempo, 784314
1, 1788, Tempo, 827472
1, 1800, Tempo, 718563
1, 1900, Tempo, 754717
1, 1940, Tempo, 750000
1, 1980, Tempo, 745342
1, 2020, Tempo, 740741
1, 2060, Tempo, 736196
1, 2100, Tempo, 731707
1, 2140, Tempo, 727273
1, 2160, Tempo, 722892
1, 2180, Tempo, 727273
1, 2200, Tempo, 736196
1, 2220, Tempo, 745342
1, 2240, Tempo, 754717
1, 2248, Tempo, 774393
1, 2260, Tempo, 778614
1, 2280, Tempo, 745342
1, 2380, Tempo, 769231
1, 2440, Tempo, 764331
1, 2480, Tempo, 759494
1, 2540, Tempo, 754717
1, 2580, Tempo, 750000
1, 2620, Tempo, 745342
1, 2628, Tempo, 766186
1, 2640, Tempo, 778614
1, 2660, Tempo, 782779
1, 2680, Tempo, 787092
1, 2700, Tempo, 791348
1, 2720, Tempo, 795650
1, 2740, Tempo, 800107
1, 2760, Tempo, 804505
1, 2780, Tempo, 809061
1, 2800, Tempo, 873490
1, 2880, Tempo, 837054
1, 2928, Tempo, 832293
1, 2968, Tempo, 827472
1, 3020, Tempo, 822820
1, 3060, Tempo, 818219
1, 3100, Tempo, 813559
1, 3120, Tempo, 818219
1, 3140, Tempo, 822820
1, 3148, Tempo, 827472
1, 3160, Tempo, 832293
1, 3168, Tempo, 837054
1, 3188, Tempo, 841987
1, 3200, Tempo, 846860
1, 3208, Tempo, 851910
1, 3240, Tempo, 888889
1, 3348, Tempo, 869565
1, 3360, Tempo, 909091
1, 3384, Tempo, 902256
1, 3400, Tempo, 895522
1, 3412, Tempo, 888889
1, 3424, Tempo, 882353
1, 3440, Tempo, 875912
1, 3452, Tempo, 869565
1, 3464, Tempo, 863309
1, 3492, Tempo, 857143
1, 3504, Tempo, 851064
1, 3520, Tempo, 845070
1, 3532, Tempo, 839161
1, 3544, Tempo, 833333
1, 3560, Tempo, 827586
1, 3572, Tempo, 821918
1, 3580, Tempo, 821918
1, 3588, Tempo, 839161
1, 3600, Tempo, 851064
1, 3620, Tempo, 857143
1, 3628, Tempo, 863309
1, 3648, Tempo, 869565
1, 3660, Tempo, 875912
1, 3668, Tempo, 882353
1, 3688, Tempo, 888889
1, 3700, Tempo, 895522
1, 3840, Tempo, 822820
1, 3888, Tempo, 818219
1, 3928, Tempo, 813559
1, 3968, Tempo, 809061
1, 4008, Tempo, 804505
1, 4048, Tempo, 800107
1, 4080, Tempo, 822820
1, 4100, Tempo, 827472
1, 4108, Tempo, 832293
1, 4120, Tempo, 837054
1, 4128, Tempo, 841987
1, 4140, Tempo, 846860
1, 4148, Tempo, 851910
1, 4168, Tempo, 856898
1, 4200, Tempo, 774194
1, 4320, Tempo, 805369
1, 4420, Tempo, 800000
1, 4500, Tempo, 794702
1, 4528, Tempo, 795650
1, 4548, Tempo, 791348
1, 4560, Tempo, 809061
1, 4580, Tempo, 813559
1, 4588, Tempo, 818219
1, 4608, Tempo, 822820
1, 4620, Tempo, 827472
1, 4640, Tempo, 832293
1, 4648, Tempo, 837054
1, 4668, Tempo, 841987
1, 4680, Tempo, 754717
1, 4800, Tempo, 779221
1, 5020, Tempo, 778614
1, 5040, Tempo, 782779
1, 5048, Tempo, 787092
1, 5068, Tempo, 791348
1, 5080, Tempo, 795650
1, 5088, Tempo, 800107
1, 5160, Tempo, 750000
1, 5268, Tempo, 795650
1, 5280, Tempo, 769231
1, 5420, Tempo, 764331
1, 5440, Tempo, 769231
1, 5480, Tempo, 764331
1, 5488, Tempo, 782779
1, 5520, Tempo, 778614
1, 5528, Tempo, 782779
1, 5540, Tempo, 787092
1, 5548, Tempo, 791348
1, 5560, Tempo, 795650
1, 5568, Tempo, 800107
1, 5580, Tempo, 804505
1, 5588, Tempo, 809061
1, 5600, Tempo, 813559
1, 5608, Tempo, 818219
1, 5620, Tempo, 822820
1, 5628, Tempo, 827472
1, 5640, Tempo, 727273
1, 5760, Tempo, 769231
1, 5860, Tempo, 764331
1, 5960, Tempo, 759494
1, 5980, Tempo, 759494
1, 6000, Tempo, 764331
1, 6020, Tempo, 769231
1, 6040, Tempo, 774194
1, 6060, Tempo, 779221
1, 6080, Tempo, 784314
1, 6100, Tempo, 794702
1, 6108, Tempo, 827472
1, 6120, Tempo, 759494
1, 6220, Tempo, 789474
1, 6240, Tempo, 764331
1, 6340, Tempo, 759494
1, 6440, Tempo, 754717
1, 6480, Tempo, 764331
1, 6500, Tempo, 769231
1, 6540, Tempo, 774194
1, 6560, Tempo, 779221
1, 6580, Tempo, 784314
1, 6588, Tempo, 827472
1, 6600, Tempo, 731707
1, 6686, Tempo, 774194
1, 6766, Tempo, 769231
1, 6826, Tempo, 764331
1, 6886, Tempo, 759494
1, 6946, Tempo, 754717
1, 6986, Tempo, 759494
1, 7026, Tempo, 764331
1, 7080, Tempo, 794702
1, 7180, Tempo, 789474
1, 7186, Tempo, 759494
1, 7306, Tempo, 754717
1, 7406, Tempo, 750000
1, 7446, Tempo, 754717
1, 7486, Tempo, 759494
1, 7526, Tempo, 764331
1, 7540, Tempo, 784314
1, 7548, Tempo, 827472
1, 7560, Tempo, 731707
1, 7680, Tempo, 764331
1, 7720, Tempo, 759494
1, 7760, Tempo, 754717
1, 7780, Tempo, 750000
1, 7820, Tempo, 745342
1, 7860, Tempo, 740741
1, 7880, Tempo, 736196
1, 7900, Tempo, 754717
1, 7920, Tempo, 759494
1, 7940, Tempo, 764331
1, 7960, Tempo, 769231
1, 7980, Tempo, 774194
1, 8000, Tempo, 779221
1, 8020, Tempo, 784314
1, 8028, Tempo, 827472
1, 8040, Tempo, 789474
1, 8160, Tempo, 750000
1, 8200, Tempo, 745342
1, 8240, Tempo, 740741
1, 8280, Tempo, 736196
1, 8320, Tempo, 731707
1, 8360, Tempo, 727273
1, 8380, Tempo, 722892
1, 8400, Tempo, 727273
1, 8420, Tempo, 731707
1, 8440, Tempo, 736196
1, 8460, Tempo, 740741
1, 8480, Tempo, 745342
1, 8520, Tempo, 759494
1, 8620, Tempo, 754717
1, 8640, Tempo, 764331
1, 8660, Tempo, 736196
1, 8700, Tempo, 731707
1, 8740, Tempo, 727273
1, 8780, Tempo, 722892
1, 8820, Tempo, 718563
1, 8860, Tempo, 714286
1, 8880, Tempo, 722892
1, 8920, Tempo, 727273
1, 8940, Tempo, 731707
1, 8960, Tempo, 736196
1, 9000, Tempo, 759494
1, 9120, Tempo, 731707
1, 9180, Tempo, 727273
1, 9220, Tempo, 722892
1, 9280, Tempo, 718563
1, 9320, Tempo, 714286
1, 9360, Tempo, 710059
1, 9380, Tempo, 718563
1, 9400, Tempo, 722892
1, 9420, Tempo, 727273
1, 9440, Tempo, 731707
1, 9460, Tempo, 740741
1, 9480, Tempo, 827586
1, 9580, Tempo, 902256
1, 9582, Tempo, 952381
1, 9594, Tempo, 944882
1, 9610, Tempo, 937500
1, 9622, Tempo, 930233
1, 9634, Tempo, 916031
1, 9650, Tempo, 909091
1, 9662, Tempo, 902256
1, 9674, Tempo, 895522
1, 9690, Tempo, 882353
1, 9692, Tempo, 863309
1, 9720, Tempo, 869565
1, 9732, Tempo, 875912
1, 9760, Tempo, 882353
1, 9772, Tempo, 888889
1, 9800, Tempo, 895522
1, 9812, Tempo, 902256
1, 9824, Tempo, 909091
1, 9840, Tempo, 869565
1, 9892, Tempo, 875912
1, 9932, Tempo, 882353
1, 9940, Tempo, 869565
1, 9960, Tempo, 821918
1, 10080, Tempo, 875912
1, 10100, Tempo, 882353
1, 10140, Tempo, 875912
1, 10160, Tempo, 869565
1, 10200, Tempo, 863309
1, 10220, Tempo, 857143
1, 10260, Tempo, 851064
1, 10280, Tempo, 845070
1, 10320, Tempo, 851064
1, 10360, Tempo, 857143
1, 10440, Tempo, 805369
1, 10540, Tempo, 833333
1, 10560, Tempo, 882353
1, 10600, Tempo, 875912
1, 10620, Tempo, 869565
1, 10660, Tempo, 863309
1, 10680, Tempo, 857143
1, 10720, Tempo, 851064
1, 10740, Tempo, 845070
1, 10780, Tempo, 839161
1, 10800, Tempo, 833333
1, 10820, Tempo, 845070
1, 10840, Tempo, 857143
1, 10860, Tempo, 869565
1, 10880, Tempo, 882353
1, 10900, Tempo, 895522
1, 10920, Tempo, 916031
1, 11032, Tempo, 916031
1, 11044, Tempo, 930233
1, 11072, Tempo, 923077
1, 11100, Tempo, 916031
1, 11124, Tempo, 909091
1, 11152, Tempo, 902256
1, 11180, Tempo, 895522
1, 11204, Tempo, 888889
1, 11232, Tempo, 882353
1, 11244, Tempo, 888889
1, 11260, Tempo, 895522
1, 11280, Tempo, 902256
1, 11300, Tempo, 909091
1, 11320, Tempo, 916031
1, 11340, Tempo, 923077
1, 11360, Tempo, 930233
1, 11400, Tempo, 975610
1, 11508, Tempo, 869565
1, 11520, Tempo, 822820
1, 11568, Tempo, 818219
1, 11608, Tempo, 813559
1, 11648, Tempo, 809061
1, 11688, Tempo, 804505
1, 11728, Tempo, 800107
1, 11760, Tempo, 822820
1, 11780, Tempo, 827472
1, 11788, Tempo, 832293
1, 11800, Tempo, 837054
1, 11808, Tempo, 841987
1, 11820, Tempo, 846860
1, 11828, Tempo, 851910
1, 11848, Tempo, 856898
1, 12000, Tempo, 822820
1, 12048, Tempo, 818219
1, 12088, Tempo, 813559
1, 12128, Tempo, 809061
1, 12168, Tempo, 804505
1, 12208, Tempo, 800107
1, 12240, Tempo, 822820
1, 12260, Tempo, 827472
1, 12268, Tempo, 832293
1, 12280, Tempo, 837054
1, 12288, Tempo, 841987
1, 12300, Tempo, 846860
1, 12308, Tempo, 851910
1, 12328, Tempo, 856898
1, 12360, Tempo, 869565
1, 12480, Tempo, 822820
1, 12528, Tempo, 818219
1, 12568, Tempo, 813559
1, 12608, Tempo, 809061
1, 12648, Tempo, 804505
1, 12688, Tempo, 800107
1, 12720, Tempo, 822820
1, 12740, Tempo, 827472
1, 12748, Tempo, 832293
1, 12760, Tempo, 837054
1, 12768, Tempo, 841987
1, 12780, Tempo, 846860
1, 12788, Tempo, 851910
1, 12808, Tempo, 856898
1, 12840, Tempo, 827586
1, 12960, Tempo, 822820
1, 13008, Tempo, 818219
1, 13048, Tempo, 813559
1, 13088, Tempo, 809061
1, 13128, Tempo, 804505
1, 13168, Tempo, 800107
1, 13200, Tempo, 822820
1, 13220, Tempo, 827472
1, 13228, Tempo, 832293
1, 13240, Tempo, 837054
1, 13248, Tempo, 841987
1, 13260, Tempo, 846860
1, 13268, Tempo, 851910
1, 13288, Tempo, 856898
1, 13320, Tempo, 869565
1, 13440, Tempo, 822820
1, 13488, Tempo, 818219
1, 13528, Tempo, 813559
1, 13568, Tempo, 809061
1, 13608, Tempo, 804505
1, 13648, Tempo, 800107
1, 13680, Tempo, 822820
1, 13700, Tempo, 827472
1, 13708, Tempo, 832293
1, 13720, Tempo, 837054
1, 13728, Tempo, 841987
1, 13740, Tempo, 846860
1, 13748, Tempo, 851910
1, 13768, Tempo, 856898
1, 13800, Tempo, 857143
1, 13920, Tempo, 822820
1, 13968, Tempo, 818219
1, 14008, Tempo, 813559
1, 14048, Tempo, 809061
1, 14088, Tempo, 804505
1, 14128, Tempo, 800107
1, 14160, Tempo, 822820
1, 14180, Tempo, 827472
1, 14188, Tempo, 832293
1, 14200, Tempo, 837054
1, 14208, Tempo, 841987
1, 14220, Tempo, 846860
1, 14228, Tempo, 851910
1, 14248, Tempo, 856898
1, 14280, Tempo, 882353
1, 14400, Tempo, 923077
1, 14440, Tempo, 916031
1, 14480, Tempo, 909091
1, 14520, Tempo, 902256
1, 14560, Tempo, 895522
1, 14600, Tempo, 888889
1, 14640, Tempo, 882353
1, 14660, Tempo, 895522
1, 14680, Tempo, 909091
1, 14700, Tempo, 923077
1, 14720, Tempo, 937500
1, 14740, Tempo, 952381
1, 14760, Tempo, 975610
1, 14860, Tempo, 983607
1, 14920, Tempo, 975610
1, 14960, Tempo, 967742
1, 15000, Tempo, 960000
1, 15040, Tempo, 952381
1, 15080, Tempo, 944882
1, 15120, Tempo, 937500
1, 15140, Tempo, 960000
1, 15160, Tempo, 983607
1, 15180, Tempo, 1008403
1, 15200, Tempo, 1034483
1, 15220, Tempo, 1061947
1, 15240, Tempo, 1090909
1, 15360, Tempo, 1250000
1, 15400, Tempo, 1263158
1, 15420, Tempo, 1276596
1, 15440, Tempo, 1290323
1, 15480, Tempo, 1304348
1, 15500, Tempo, 1318681
1, 15520, Tempo, 1333333
1, 15560, Tempo, 1348315
1, 15580, Tempo, 1363636
1, 15600, Tempo, 1379310
1, 15640, Tempo, 1395349
1, 15660, Tempo, 1411765
1, 15680, Tempo, 1428571
1, 15720, Tempo, 1445783
1, 15740, Tempo, 1463415
1, 15760, Tempo, 1481481
1, 15800, Tempo, 1500000
1, 15820, Tempo, 1518987
1, 15840, Tempo, 2000000
1, 16800, Tempo, 2000000
1, 16800, End_track
2, 0, Start_track
2, 0, Title_t, "Piano right"
2, 0, Program_c, 0, 0
2, 0, Control_c, 0, 7, 100
2, 0, Control_c, 0, 10, 64
2, 0, Control_c, 0, 91, 127
2, 0, Text_t, "bdca426d104a26ac9dcb070447587523"
2, 160, Note_on_c, 0, 60, 49
2, 240, Note_on_c, 0, 60, 0
2, 240, Note_on_c, 0, 67, 53
2, 240, Note_on_c, 0, 64, 33
2, 320, Note_on_c, 0, 64, 0
2, 320, Note_on_c, 0, 60, 43
2, 400, Note_on_c, 0, 60, 0
2, 400, Note_on_c, 0, 67, 0
2, 400, Note_on_c, 0, 69, 43
2, 480, Note_on_c, 0, 69, 0
2, 640, Note_on_c, 0, 62, 51
2, 720, Note_on_c, 0, 62, 0
2, 720, Note_on_c, 0, 67, 59
2, 720, Note_on_c, 0, 65, 40
2, 800, Note_on_c, 0, 65, 0
2, 800, Note_on_c, 0, 62, 47
2, 880, Note_on_c, 0, 62, 0
2, 880, Note_on_c, 0, 67, 0
2, 880, Note_on_c, 0, 69, 45
2, 960, Note_on_c, 0, 69, 0
2, 1120, Note_on_c, 0, 60, 59
2, 1200, Note_on_c, 0, 60, 0
2, 1200, Note_on_c, 0, 67, 67
2, 1200, Note_on_c, 0, 64, 46
2, 1280, Note_on_c, 0, 64, 0
2, 1280, Note_on_c, 0, 60, 61
2, 1360, Note_on_c, 0, 60, 0
2, 1360, Note_on_c, 0, 67, 0
2, 1360, Note_on_c, 0, 69, 65
2, 1440, Note_on_c, 0, 69, 0
2, 1600, Note_on_c, 0, 64, 70
2, 1680, Note_on_c, 0, 64, 0
2, 1680, Note_on_c, 0, 71, 75
2, 1680, Note_on_c, 0, 67, 52
2, 1760, Note_on_c, 0, 67, 0
2, 1760, Note_on_c, 0, 64, 70
2, 1840, Note_on_c, 0, 64, 0
2, 1840, Note_on_c, 0, 71, 0
2, 1840, Note_on_c, 0, 72, 78
2, 1920, Note_on_c, 0, 72, 0
2, 2000, Note_on_c, 0, 64, 79
2, 2080, Note_on_c, 0, 69, 75
2, 2160, Note_on_c, 0, 69, 0
2, 2160, Note_on_c, 0, 76, 80
2, 2160, Note_on_c, 0, 72, 58
2, 2240, Note_on_c, 0, 72, 0
2, 2240, Note_on_c, 0, 69, 75
2, 2320, Note_on_c, 0, 69, 0
2, 2320, Note_on_c, 0, 76, 0
2, 2320, Note_on_c, 0, 64, 0
2, 2320, Note_on_c, 0, 62, 80
2, 2320, Note_on_c, 0, 74, 80
2, 2400, Note_on_c, 0, 74, 0
2, 2400, Note_on_c, 0, 62, 0
2, 2480, Note_on_c, 0, 64, 86
2, 2560, Note_on_c, 0, 69, 82
2, 2640, Note_on_c, 0, 69, 0
2, 2640, Note_on_c, 0, 76, 88
2, 2640, Note_on_c, 0, 72, 61
2, 2720, Note_on_c, 0, 72, 0
2, 2720, Note_on_c, 0, 69, 82
2, 2800, Note_on_c, 0, 69, 0
2, 2800, Note_on_c, 0, 76, 0
2, 2800, Note_on_c, 0, 64, 0
2, 2800, Note_on_c, 0, 62, 84
2, 2800, Note_on_c, 0, 74, 84
2, 2880, Note_on_c, 0, 74, 0
2, 2880, Note_on_c, 0, 62, 0
2, 2960, Note_on_c, 0, 64, 86
2, 3040, Note_on_c, 0, 67, 82
2, 3120, Note_on_c, 0, 67, 0
2, 3120, Note_on_c, 0, 76, 88
2, 3120, Note_on_c, 0, 71, 55
2, 3200, Note_on_c, 0, 71, 0
2, 3200, Note_on_c, 0, 67, 74
2, 3280, Note_on_c, 0, 67, 0
2, 3280, Note_on_c, 0, 76, 0
2, 3280, Note_on_c, 0, 64, 0
2, 3280, Note_on_c, 0, 62, 67
2, 3280, Note_on_c, 0, 74, 82
2, 3360, Note_on_c, 0, 74, 0
2, 3360, Note_on_c, 0, 62, 0
2, 3520, Note_on_c, 0, 62, 56
2, 3600, Note_on_c, 0, 62, 0
2, 3600, Note_on_c, 0, 71, 59
2, 3600, Note_on_c, 0, 65, 41
2, 3680, Note_on_c, 0, 65, 0
2, 3680, Note_on_c, 0, 62, 50
2, 3760, Note_on_c, 0, 62, 0
2, 3760, Note_on_c, 0, 71, 0
2, 3760, Note_on_c, 0, 69, 47
2, 3840, Note_on_c, 0, 69, 0
2, 4000, Note_on_c, 0, 60, 53
2, 4080, Note_on_c, 0, 60, 0
2, 4080, Note_on_c, 0, 67, 60
2, 4080, Note_on_c, 0, 64, 36
2, 4160, Note_on_c, 0, 64, 0
2, 4160, Note_on_c, 0, 60, 51
2, 4240, Note_on_c, 0, 60, 0
2, 4240, Note_on_c, 0, 67, 0
2, 4240, Note_on_c, 0, 69, 45
2, 4320, Note_on_c, 0, 69, 0
2, 4480, Note_on_c, 0, 62, 58
2, 4560, Note_on_c, 0, 62, 0
2, 4560, Note_on_c, 0, 67, 61
2, 4560, Note_on_c, 0, 65, 45
2, 4640, Note_on_c, 0, 65, 0
2, 4640, Note_on_c, 0, 62, 58
2, 4720, Note_on_c, 0, 62, 0
2, 4720, Note_on_c, 0, 67, 0
2, 4720, Note_on_c, 0, 69, 51
2, 4800, Note_on_c, 0, 69, 0
2, 4960, Note_on_c, 0, 60, 64
2, 5040, Note_on_c, 0, 60, 0
2, 5040, Note_on_c, 0, 67, 72
2, 5040, Note_on_c, 0, 64, 49
2, 5120, Note_on_c, 0, 64, 0
2, 5120, Note_on_c, 0, 60, 66
2, 5200, Note_on_c, 0, 60, 0
2, 5200, Note_on_c, 0, 67, 0
2, 5200, Note_on_c, 0, 69, 62
2, 5280, Note_on_c, 0, 69, 0
2, 5440, Note_on_c, 0, 64, 70
2, 5520, Note_on_c, 0, 64, 0
2, 5520, Note_on_c, 0, 71, 75
2, 5520, Note_on_c, 0, 67, 52
2, 5600, Note_on_c, 0, 67, 0
2, 5600, Note_on_c, 0, 64, 70
2, 5680, Note_on_c, 0, 64, 0
2, 5680, Note_on_c, 0, 71, 0
2, 5680, Note_on_c, 0, 72, 69
2, 5760, Note_on_c, 0, 72, 0
2, 5840, Note_on_c, 0, 61, 69
2, 5920, Note_on_c, 0, 65, 75
2, 6000, Note_on_c, 0, 65, 0
2, 6000, Note_on_c, 0, 73, 80
2, 6000, Note_on_c, 0, 69, 55
2, 6080, Note_on_c, 0, 69, 0
2, 6080, Note_on_c, 0, 65, 75
2, 6160, Note_on_c, 0, 65, 0
2, 6160, Note_on_c, 0, 73, 0
2, 6160, Note_on_c, 0, 61, 0
2, 6160, Note_on_c, 0, 62, 58
2, 6160, Note_on_c, 0, 74, 73
2, 6240, Note_on_c, 0, 74, 0
2, 6240, Note_on_c, 0, 62, 0
2, 6320, Note_on_c, 0, 63, 72
2, 6400, Note_on_c, 0, 67, 78
2, 6480, Note_on_c, 0, 67, 0
2, 6480, Note_on_c, 0, 75, 82
2, 6480, Note_on_c, 0, 72, 57
2, 6560, Note_on_c, 0, 72, 0
2, 6560, Note_on_c, 0, 67, 78
2, 6640, Note_on_c, 0, 67, 0
2, 6640, Note_on_c, 0, 75, 0
2, 6640, Note_on_c, 0, 63, 0
2, 6640, Note_on_c, 0, 76, 78
2, 6640, Note_on_c, 0, 64, 61
2, 6720, Note_on_c, 0, 64, 0
2, 6720, Note_on_c, 0, 76, 0
2, 6800, Note_on_c, 0, 67, 75
2, 6880, Note_on_c, 0, 69, 80
2, 6960, Note_on_c, 0, 69, 0
2, 6960, Note_on_c, 0, 79, 86
2, 6960, Note_on_c, 0, 72, 60
2, 7040, Note_on_c, 0, 72, 0
2, 7040, Note_on_c, 0, 69, 75
2, 7120, Note_on_c, 0, 69, 0
2, 7120, Note_on_c, 0, 79, 0
2, 7120, Note_on_c, 0, 67, 0
2, 7120, Note_on_c, 0, 65, 63
2, 7120, Note_on_c, 0, 77, 81
2, 7200, Note_on_c, 0, 77, 0
2, 7200, Note_on_c, 0, 65, 0
2, 7280, Note_on_c, 0, 63, 91
2, 7360, Note_on_c, 0, 67, 82
2, 7440, Note_on_c, 0, 67, 0
2, 7440, Note_on_c, 0, 75, 91
2, 7440, Note_on_c, 0, 72, 61
2, 7520, Note_on_c, 0, 72, 0
2, 7520, Note_on_c, 0, 67, 79
2, 7600, Note_on_c, 0, 67, 0
2, 7600, Note_on_c, 0, 75, 0
2, 7600, Note_on_c, 0, 63, 0
2, 7600, Note_on_c, 0, 64, 66
2, 7600, Note_on_c, 0, 76, 86
2, 7680, Note_on_c, 0, 76, 0
2, 7680, Note_on_c, 0, 64, 0
2, 7760, Note_on_c, 0, 64, 92
2, 7840, Note_on_c, 0, 69, 86
2, 7920, Note_on_c, 0, 69, 0
2, 7920, Note_on_c, 0, 76, 96
2, 7920, Note_on_c, 0, 72, 63
2, 8000, Note_on_c, 0, 72, 0
2, 8000, Note_on_c, 0, 69, 82
2, 8080, Note_on_c, 0, 69, 0
2, 8080, Note_on_c, 0, 76, 0
2, 8080, Note_on_c, 0, 64, 0
2, 8080, Note_on_c, 0, 65, 85
2, 8080, Note_on_c, 0, 77, 85
2, 8160, Note_on_c, 0, 77, 0
2, 8160, Note_on_c, 0, 65, 0
2, 8160, Note_on_c, 0, 66, 97
2, 8280, Note_on_c, 0, 71, 81
2, 8400, Note_on_c, 0, 71, 0
2, 8400, Note_on_c, 0, 78, 89
2, 8400, Note_on_c, 0, 74, 70
2, 8480, Note_on_c, 0, 74, 0
2, 8480, Note_on_c, 0, 71, 84
2, 8560, Note_on_c, 0, 71, 0
2, 8560, Note_on_c, 0, 78, 0
2, 8560, Note_on_c, 0, 66, 0
2, 8560, Note_on_c, 0, 67, 62
2, 8560, Note_on_c, 0, 79, 81
2, 8640, Note_on_c, 0, 79, 0
2, 8640, Note_on_c, 0, 67, 0
2, 8640, Note_on_c, 0, 68, 99
2, 8760, Note_on_c, 0, 72, 82
2, 8880, Note_on_c, 0, 72, 0
2, 8880, Note_on_c, 0, 80, 91
2, 8880, Note_on_c, 0, 76, 72
2, 8960, Note_on_c, 0, 76, 0
2, 8960, Note_on_c, 0, 72, 82
2, 9040, Note_on_c, 0, 72, 0
2, 9040, Note_on_c, 0, 80, 0
2, 9040, Note_on_c, 0, 68, 0
2, 9040, Note_on_c, 0, 69, 64
2, 9040, Note_on_c, 0, 81, 85
2, 9120, Note_on_c, 0, 81, 0
2, 9120, Note_on_c, 0, 69, 0
2, 9120, Note_on_c, 0, 70, 100
2, 9240, Note_on_c, 0, 74, 82
2, 9360, Note_on_c, 0, 74, 0
2, 9360, Note_on_c, 0, 82, 100
2, 9360, Note_on_c, 0, 79, 61
2, 9440, Note_on_c, 0, 79, 0
2, 9440, Note_on_c, 0, 74, 97
2, 9520, Note_on_c, 0, 74, 0
2, 9520, Note_on_c, 0, 82, 0
2, 9520, Note_on_c, 0, 70, 0
2, 9520, Note_on_c, 0, 71, 67
2, 9520, Note_on_c, 0, 83, 93
2, 9600, Note_on_c, 0, 83, 0
2, 9600, Note_on_c, 0, 71, 0
2, 9680, Note_on_c, 0, 74, 103
2, 9760, Note_on_c, 0, 76, 97
2, 9840, Note_on_c, 0, 76, 0
2, 9840, Note_on_c, 0, 86, 108
2, 9840, Note_on_c, 0, 79, 82
2, 9920, Note_on_c, 0, 79, 0
2, 9920, Note_on_c, 0, 76, 73
2, 10000, Note_on_c, 0, 76, 0
2, 10000, Note_on_c, 0, 86, 0
2, 10000, Note_on_c, 0, 74, 0
2, 10000, Note_on_c, 0, 72, 54
2, 10000, Note_on_c, 0, 84, 75
2, 10080, Note_on_c, 0, 84, 0
2, 10080, Note_on_c, 0, 72, 0
2, 10160, Note_on_c, 0, 71, 66
2, 10240, Note_on_c, 0, 72, 67
2, 10320, Note_on_c, 0, 72, 0
2, 10320, Note_on_c, 0, 83, 72
2, 10320, Note_on_c, 0, 75, 49
2, 10400, Note_on_c, 0, 75, 0
2, 10400, Note_on_c, 0, 72, 63
2, 10480, Note_on_c, 0, 72, 0
2, 10480, Note_on_c, 0, 83, 0
2, 10480, Note_on_c, 0, 71, 0
2, 10480, Note_on_c, 0, 69, 50
2, 10480, Note_on_c, 0, 81, 62
2, 10560, Note_on_c, 0, 81, 0
2, 10560, Note_on_c, 0, 69, 0
2, 10560, Note_on_c, 0, 69, 61
2, 10680, Note_on_c, 0, 72, 59
2, 10800, Note_on_c, 0, 72, 0
2, 10800, Note_on_c, 0, 81, 63
2, 10800, Note_on_c, 0, 76, 41
2, 10880, Note_on_c, 0, 76, 0
2, 10880, Note_on_c, 0, 72, 61
2, 10960, Note_on_c, 0, 72, 0
2, 10960, Note_on_c, 0, 81, 0
2, 10960, Note_on_c, 0, 69, 0
2, 10960, Note_on_c, 0, 67, 47
2, 10960, Note_on_c, 0, 79, 60
2, 11040, Note_on_c, 0, 79, 0
2, 11040, Note_on_c, 0, 67, 0
2, 11120, Note_on_c, 0, 64, 56
2, 11200, Note_on_c, 0, 67, 55
2, 11280, Note_on_c, 0, 67, 0
2, 11280, Note_on_c, 0, 76, 57
2, 11280, Note_on_c, 0, 71, 36
2, 11360, Note_on_c, 0, 71, 0
2, 11360, Note_on_c, 0, 67, 49
2, 11440, Note_on_c, 0, 67, 0
2, 11440, Note_on_c, 0, 76, 0
2, 11440, Note_on_c, 0, 64, 0
2, 11440, Note_on_c, 0, 62, 49
2, 11440, Note_on_c, 0, 74, 49
2, 11520, Note_on_c, 0, 74, 0
2, 11520, Note_on_c, 0, 62, 0
2, 11640, Note_on_c, 0, 60, 51
2, 11760, Note_on_c, 0, 60, 0
2, 11760, Note_on_c, 0, 67, 56
2, 11760, Note_on_c, 0, 64, 35
2, 11840, Note_on_c, 0, 64, 0
2, 11840, Note_on_c, 0, 60, 48
2, 11920, Note_on_c, 0, 60, 0
2, 11920, Note_on_c, 0, 67, 0
2, 11920, Note_on_c, 0, 69, 48
2, 12000, Note_on_c, 0, 69, 0
2, 12000, Note_on_c, 0, 64, 41
2, 12120, Note_on_c, 0, 67, 55
2, 12240, Note_on_c, 0, 67, 0
2, 12240, Note_on_c, 0, 76, 61
2, 12240, Note_on_c, 0, 71, 38
2, 12320, Note_on_c, 0, 71, 0
2, 12320, Note_on_c, 0, 67, 48
2, 12400, Note_on_c, 0, 67, 0
2, 12400, Note_on_c, 0, 76, 0
2, 12400, Note_on_c, 0, 64, 0
2, 12400, Note_on_c, 0, 62, 41
2, 12400, Note_on_c, 0, 74, 48
2, 12480, Note_on_c, 0, 74, 0
2, 12480, Note_on_c, 0, 62, 0
2, 12640, Note_on_c, 0, 60, 51
2, 12720, Note_on_c, 0, 60, 0
2, 12720, Note_on_c, 0, 67, 56
2, 12720, Note_on_c, 0, 64, 35
2, 12800, Note_on_c, 0, 64, 0
2, 12800, Note_on_c, 0, 60, 48
2, 12880, Note_on_c, 0, 60, 0
2, 12880, Note_on_c, 0, 67, 0
2, 12880, Note_on_c, 0, 69, 48
2, 12960, Note_on_c, 0, 69, 0
2, 13040, Note_on_c, 0, 64, 41
2, 13120, Note_on_c, 0, 67, 55
2, 13200, Note_on_c, 0, 67, 0
2, 13200, Note_on_c, 0, 76, 61
2, 13200, Note_on_c, 0, 71, 38
2, 13280, Note_on_c, 0, 71, 0
2, 13280, Note_on_c, 0, 67, 48
2, 13360, Note_on_c, 0, 67, 0
2, 13360, Note_on_c, 0, 76, 0
2, 13360, Note_on_c, 0, 64, 0
2, 13360, Note_on_c, 0, 62, 41
2, 13360, Note_on_c, 0, 74, 48
2, 13440, Note_on_c, 0, 74, 0
2, 13440, Note_on_c, 0, 62, 0
2, 13520, Note_on_c, 0, 60, 41
2, 13600, Note_on_c, 0, 65, 51
2, 13680, Note_on_c, 0, 65, 0
2, 13680, Note_on_c, 0, 60, 0
2, 13680, Note_on_c, 0, 72, 56
2, 13680, Note_on_c, 0, 69, 35
2, 13760, Note_on_c, 0, 69, 0
2, 13760, Note_on_c, 0, 65, 45
2, 13840, Note_on_c, 0, 65, 0
2, 13840, Note_on_c, 0, 64, 41
2, 13840, Note_on_c, 0, 67, 41
2, 13920, Note_on_c, 0, 67, 0
2, 13920, Note_on_c, 0, 64, 0
2, 14000, Note_on_c, 0, 60, 42
2, 14080, Note_on_c, 0, 65, 56
2, 14160, Note_on_c, 0, 65, 0
2, 14160, Note_on_c, 0, 60, 0
2, 14160, Note_on_c, 0, 72, 0
2, 14160, Note_on_c, 0, 72, 64
2, 14160, Note_on_c, 0, 69, 39
2, 14240, Note_on_c, 0, 69, 0
2, 14240, Note_on_c, 0, 65, 45
2, 14320, Note_on_c, 0, 65, 0
2, 14320, Note_on_c, 0, 64, 41
2, 14320, Note_on_c, 0, 67, 41
2, 14400, Note_on_c, 0, 67, 0
2, 14400, Note_on_c, 0, 64, 0
2, 14480, Note_on_c, 0, 60, 40
2, 14560, Note_on_c, 0, 65, 49
2, 14640, Note_on_c, 0, 65, 0
2, 14640, Note_on_c, 0, 60, 0
2, 14640, Note_on_c, 0, 72, 0
2, 14640, Note_on_c, 0, 72, 52
2, 14640, Note_on_c, 0, 69, 33
2, 14720, Note_on_c, 0, 69, 0
2, 14720, Note_on_c, 0, 65, 41
2, 14800, Note_on_c, 0, 65, 0
2, 14800, Note_on_c, 0, 64, 38
2, 14800, Note_on_c, 0, 67, 38
2, 14880, Note_on_c, 0, 67, 0
2, 14880, Note_on_c, 0, 64, 0
2, 14960, Note_on_c, 0, 60, 37
2, 15040, Note_on_c, 0, 65, 44
2, 15120, Note_on_c, 0, 65, 0
2, 15120, Note_on_c, 0, 60, 0
2, 15120, Note_on_c, 0, 72, 0
2, 15120, Note_on_c, 0, 72, 46
2, 15120, Note_on_c, 0, 69, 29
2, 15200, Note_on_c, 0, 69, 0
2, 15200, Note_on_c, 0, 65, 36
2, 15280, Note_on_c, 0, 65, 0
2, 15280, Note_on_c, 0, 64, 33
2, 15280, Note_on_c, 0, 67, 33
2, 15360, Note_on_c, 0, 67, 0
2, 15360, Note_on_c, 0, 64, 0
2, 15360, Note_on_c, 0, 72, 0
2, 15760, Note_on_c, 0, 60, 33
2, 15840, Note_on_c, 0, 64, 33
2, 16320, Note_on_c, 0, 64, 0
2, 16320, Note_on_c, 0, 60, 0
2, 16320, End_track
3, 0, Start_track
3, 0, Title_t, "Piano left"
3, 0, Program_c, 0, 0
3, 0, Control_c, 0, 7, 100
3, 0, Control_c, 0, 10, 64
3, 0, Control_c, 0, 91, 127
3, 0, Control_c, 0, 91, 127
3, 0, Control_c, 0, 64, 127
3, 1, Note_on_c, 0, 36, 46
3, 80, Note_on_c, 0, 36, 0
3, 80, Note_on_c, 0, 55, 36
3, 80, Note_on_c, 0, 43, 30
3, 160, Note_on_c, 0, 43, 0
3, 160, Note_on_c, 0, 52, 36
3, 240, Note_on_c, 0, 52, 0
3, 400, Note_on_c, 0, 55, 0
3, 400, Note_on_c, 0, 57, 27
3, 480, Note_on_c, 0, 57, 0
3, 480, Note_on_c, 0, 35, 51
3, 490, Control_c, 0, 64, 0
3, 515, Control_c, 0, 64, 127
3, 560, Note_on_c, 0, 35, 0
3, 560, Note_on_c, 0, 55, 47
3, 560, Note_on_c, 0, 43, 38
3, 640, Note_on_c, 0, 43, 0
3, 640, Note_on_c, 0, 53, 36
3, 720, Note_on_c, 0, 53, 0
3, 880, Note_on_c, 0, 55, 0
3, 880, Note_on_c, 0, 57, 33
3, 960, Note_on_c, 0, 57, 0
3, 960, Note_on_c, 0, 36, 53
3, 971, Control_c, 0, 64, 0
3, 995, Control_c, 0, 64, 127
3, 1040, Note_on_c, 0, 36, 0
3, 1040, Note_on_c, 0, 55, 56
3, 1040, Note_on_c, 0, 43, 47
3, 1120, Note_on_c, 0, 43, 0
3, 1120, Note_on_c, 0, 52, 47
3, 1200, Note_on_c, 0, 52, 0
3, 1360, Note_on_c, 0, 55, 0
3, 1360, Note_on_c, 0, 57, 52
3, 1440, Note_on_c, 0, 57, 0
3, 1440, Note_on_c, 0, 40, 79
3, 1450, Control_c, 0, 64, 0
3, 1475, Control_c, 0, 64, 127
3, 1520, Note_on_c, 0, 40, 0
3, 1520, Note_on_c, 0, 59, 66
3, 1520, Note_on_c, 0, 52, 55
3, 1600, Note_on_c, 0, 52, 0
3, 1600, Note_on_c, 0, 55, 56
3, 1680, Note_on_c, 0, 55, 0
3, 1840, Note_on_c, 0, 59, 0
3, 1840, Note_on_c, 0, 60, 62
3, 1920, Note_on_c, 0, 60, 0
3, 1920, Note_on_c, 0, 41, 84
3, 1937, Control_c, 0, 64, 0
3, 1955, Control_c, 0, 64, 127
3, 2000, Note_on_c, 0, 41, 0
3, 2000, Note_on_c, 0, 52, 68
3, 2080, Note_on_c, 0, 52, 0
3, 2080, Note_on_c, 0, 57, 59
3, 2160, Note_on_c, 0, 57, 0
3, 2400, Note_on_c, 0, 42, 91
3, 2413, Control_c, 0, 64, 0
3, 2435, Control_c, 0, 64, 127
3, 2480, Note_on_c, 0, 42, 0
3, 2480, Note_on_c, 0, 50, 75
3, 2560, Note_on_c, 0, 50, 0
3, 2560, Note_on_c, 0, 60, 64
3, 2640, Note_on_c, 0, 60, 0
3, 2880, Note_on_c, 0, 43, 97
3, 2885, Control_c, 0, 64, 0
3, 2911, Control_c, 0, 64, 127
3, 2960, Note_on_c, 0, 43, 0
3, 2960, Note_on_c, 0, 53, 79
3, 3040, Note_on_c, 0, 53, 0
3, 3040, Note_on_c, 0, 59, 67
3, 3120, Note_on_c, 0, 59, 0
3, 3360, Note_on_c, 0, 31, 58
3, 3371, Control_c, 0, 64, 0
3, 3417, Control_c, 0, 64, 127
3, 3440, Note_on_c, 0, 31, 0
3, 3440, Note_on_c, 0, 59, 50
3, 3440, Note_on_c, 0, 43, 42
3, 3520, Note_on_c, 0, 43, 0
3, 3520, Note_on_c, 0, 53, 38
3, 3600, Note_on_c, 0, 53, 0
3, 3760, Note_on_c, 0, 59, 0
3, 3760, Note_on_c, 0, 57, 39
3, 3768, Control_c, 0, 64, 0
3, 3840, Note_on_c, 0, 57, 0
3, 3840, Note_on_c, 0, 36, 51
3, 3872, Control_c, 0, 64, 127
3, 3920, Note_on_c, 0, 36, 0
3, 3920, Note_on_c, 0, 55, 44
3, 3920, Note_on_c, 0, 43, 37
3, 4000, Note_on_c, 0, 43, 0
3, 4000, Note_on_c, 0, 52, 39
3, 4080, Note_on_c, 0, 52, 0
3, 4240, Note_on_c, 0, 55, 0
3, 4240, Note_on_c, 0, 57, 38
3, 4320, Note_on_c, 0, 57, 0
3, 4320, Note_on_c, 0, 35, 53
3, 4327, Control_c, 0, 64, 0
3, 4355, Control_c, 0, 64, 127
3, 4400, Note_on_c, 0, 35, 0
3, 4400, Note_on_c, 0, 55, 51
3, 4400, Note_on_c, 0, 43, 42
3, 4480, Note_on_c, 0, 43, 0
3, 4480, Note_on_c, 0, 53, 44
3, 4560, Note_on_c, 0, 53, 0
3, 4720, Note_on_c, 0, 55, 0
3, 4720, Note_on_c, 0, 57, 44
3, 4800, Note_on_c, 0, 57, 0
3, 4800, Note_on_c, 0, 36, 63
3, 4806, Control_c, 0, 64, 0
3, 4835, Control_c, 0, 64, 127
3, 4880, Note_on_c, 0, 36, 0
3, 4880, Note_on_c, 0, 55, 60
3, 4880, Note_on_c, 0, 43, 50
3, 4960, Note_on_c, 0, 43, 0
3, 4960, Note_on_c, 0, 52, 63
3, 5040, Note_on_c, 0, 52, 0
3, 5200, Note_on_c, 0, 55, 0
3, 5200, Note_on_c, 0, 57, 50
3, 5280, Note_on_c, 0, 57, 0
3, 5280, Note_on_c, 0, 40, 79
3, 5286, Control_c, 0, 64, 0
3, 5315, Control_c, 0, 64, 127
3, 5360, Note_on_c, 0, 40, 0
3, 5360, Note_on_c, 0, 59, 66
3, 5360, Note_on_c, 0, 52, 66
3, 5440, Note_on_c, 0, 52, 0
3, 5440, Note_on_c, 0, 55, 56
3, 5520, Note_on_c, 0, 55, 0
3, 5680, Note_on_c, 0, 59, 0
3, 5680, Note_on_c, 0, 60, 55
3, 5760, Note_on_c, 0, 60, 0
3, 5760, Note_on_c, 0, 41, 84
3, 5774, Control_c, 0, 64, 0
3, 5795, Control_c, 0, 64, 127
3, 5840, Note_on_c, 0, 41, 0
3, 5840, Note_on_c, 0, 48, 69
3, 5920, Note_on_c, 0, 48, 0
3, 5920, Note_on_c, 0, 57, 60
3, 6000, Note_on_c, 0, 57, 0
3, 6240, Note_on_c, 0, 43, 89
3, 6245, Control_c, 0, 64, 0
3, 6280, Control_c, 0, 64, 127
3, 6320, Note_on_c, 0, 43, 0
3, 6320, Note_on_c, 0, 48, 72
3, 6400, Note_on_c, 0, 48, 0
3, 6400, Note_on_c, 0, 58, 61
3, 6480, Note_on_c, 0, 58, 0
3, 6720, Note_on_c, 0, 45, 91
3, 6730, Control_c, 0, 64, 0
3, 6755, Control_c, 0, 64, 127
3, 6800, Note_on_c, 0, 45, 0
3, 6800, Note_on_c, 0, 53, 75
3, 6880, Note_on_c, 0, 53, 0
3, 6880, Note_on_c, 0, 60, 58
3, 6960, Note_on_c, 0, 60, 0
3, 7200, Note_on_c, 0, 43, 91
3, 7210, Control_c, 0, 64, 0
3, 7246, Control_c, 0, 64, 127
3, 7280, Note_on_c, 0, 43, 0
3, 7280, Note_on_c, 0, 48, 78
3, 7360, Note_on_c, 0, 48, 0
3, 7360, Note_on_c, 0, 60, 61
3, 7440, Note_on_c, 0, 60, 0
3, 7680, Note_on_c, 0, 45, 92
3, 7695, Control_c, 0, 64, 0
3, 7715, Control_c, 0, 64, 127
3, 7760, Note_on_c, 0, 45, 0
3, 7760, Note_on_c, 0, 53, 77
3, 7840, Note_on_c, 0, 53, 0
3, 7840, Note_on_c, 0, 60, 61
3, 7920, Note_on_c, 0, 60, 0
3, 8160, Note_on_c, 0, 47, 67
3, 8171, Control_c, 0, 64, 0
3, 8195, Control_c, 0, 64, 127
3, 8240, Note_on_c, 0, 47, 0
3, 8240, Note_on_c, 0, 55, 72
3, 8320, Note_on_c, 0, 55, 0
3, 8320, Note_on_c, 0, 62, 74
3, 8400, Note_on_c, 0, 62, 0
3, 8640, Note_on_c, 0, 48, 73
3, 8655, Control_c, 0, 64, 0
3, 8675, Control_c, 0, 64, 127
3, 8720, Note_on_c, 0, 48, 0
3, 8720, Note_on_c, 0, 55, 80
3, 8800, Note_on_c, 0, 55, 0
3, 8800, Note_on_c, 0, 64, 80
3, 8880, Note_on_c, 0, 64, 0
3, 9120, Note_on_c, 0, 50, 77
3, 9134, Control_c, 0, 64, 0
3, 9155, Control_c, 0, 64, 127
3, 9200, Note_on_c, 0, 50, 0
3, 9200, Note_on_c, 0, 55, 84
3, 9280, Note_on_c, 0, 55, 0
3, 9280, Note_on_c, 0, 65, 84
3, 9360, Note_on_c, 0, 65, 0
3, 9600, Note_on_c, 0, 52, 102
3, 9611, Control_c, 0, 64, 0
3, 9635, Control_c, 0, 64, 127
3, 9680, Note_on_c, 0, 52, 0
3, 9680, Note_on_c, 0, 60, 90
3, 9760, Note_on_c, 0, 60, 0
3, 9760, Note_on_c, 0, 67, 71
3, 9840, Note_on_c, 0, 67, 0
3, 10080, Note_on_c, 0, 42, 74
3, 10095, Control_c, 0, 64, 0
3, 10115, Control_c, 0, 64, 127
3, 10160, Note_on_c, 0, 42, 0
3, 10160, Note_on_c, 0, 51, 63
3, 10240, Note_on_c, 0, 51, 0
3, 10240, Note_on_c, 0, 60, 50
3, 10320, Note_on_c, 0, 60, 0
3, 10560, Note_on_c, 0, 43, 57
3, 10575, Control_c, 0, 64, 0
3, 10595, Control_c, 0, 64, 127
3, 10640, Note_on_c, 0, 43, 0
3, 10640, Note_on_c, 0, 52, 61
3, 10720, Note_on_c, 0, 52, 0
3, 10720, Note_on_c, 0, 60, 56
3, 10800, Note_on_c, 0, 60, 0
3, 11040, Note_on_c, 0, 43, 59
3, 11056, Control_c, 0, 64, 0
3, 11075, Control_c, 0, 64, 127
3, 11120, Note_on_c, 0, 43, 0
3, 11120, Note_on_c, 0, 53, 53
3, 11200, Note_on_c, 0, 53, 0
3, 11200, Note_on_c, 0, 59, 41
3, 11280, Note_on_c, 0, 59, 0
3, 11520, Note_on_c, 0, 55, 41
3, 11520, Note_on_c, 0, 36, 48
3, 11535, Control_c, 0, 64, 0
3, 11562, Control_c, 0, 64, 127
3, 11600, Note_on_c, 0, 36, 0
3, 11600, Note_on_c, 0, 43, 41
3, 11680, Note_on_c, 0, 43, 0
3, 11680, Note_on_c, 0, 52, 36
3, 11760, Note_on_c, 0, 52, 0
3, 11920, Note_on_c, 0, 55, 0
3, 11920, Note_on_c, 0, 57, 41
3, 12000, Note_on_c, 0, 57, 0
3, 12000, Note_on_c, 0, 36, 48
3, 12018, Control_c, 0, 64, 0
3, 12032, Control_c, 0, 64, 127
3, 12080, Note_on_c, 0, 36, 0
3, 12080, Note_on_c, 0, 43, 41
3, 12160, Note_on_c, 0, 43, 0
3, 12160, Note_on_c, 0, 53, 46
3, 12240, Note_on_c, 0, 53, 0
3, 12480, Note_on_c, 0, 36, 48
3, 12490, Control_c, 0, 64, 0
3, 12515, Control_c, 0, 64, 127
3, 12560, Note_on_c, 0, 36, 0
3, 12560, Note_on_c, 0, 55, 41
3, 12560, Note_on_c, 0, 43, 41
3, 12640, Note_on_c, 0, 43, 0
3, 12640, Note_on_c, 0, 52, 36
3, 12720, Note_on_c, 0, 52, 0
3, 12880, Note_on_c, 0, 55, 0
3, 12880, Note_on_c, 0, 57, 41
3, 12960, Note_on_c, 0, 57, 0
3, 12960, Note_on_c, 0, 36, 48
3, 12979, Control_c, 0, 64, 0
3, 12992, Control_c, 0, 64, 127
3, 13040, Note_on_c, 0, 36, 0
3, 13040, Note_on_c, 0, 43, 41
3, 13120, Note_on_c, 0, 43, 0
3, 13120, Note_on_c, 0, 53, 36
3, 13200, Note_on_c, 0, 53, 0
3, 13440, Note_on_c, 0, 36, 48
3, 13457, Control_c, 0, 64, 0
3, 13475, Control_c, 0, 64, 127
3, 13520, Note_on_c, 0, 36, 0
3, 13520, Note_on_c, 0, 43, 41
3, 13600, Note_on_c, 0, 43, 0
3, 13600, Note_on_c, 0, 55, 36
3, 13680, Note_on_c, 0, 55, 0
3, 13920, Note_on_c, 0, 36, 48
3, 13937, Control_c, 0, 64, 0
3, 13954, Control_c, 0, 64, 127
3, 14000, Note_on_c, 0, 36, 0
3, 14000, Note_on_c, 0, 43, 42
3, 14080, Note_on_c, 0, 43, 0
3, 14080, Note_on_c, 0, 55, 39
3, 14160, Note_on_c, 0, 55, 0
3, 14400, Note_on_c, 0, 36, 48
3, 14417, Control_c, 0, 64, 0
3, 14439, Control_c, 0, 64, 127
3, 14480, Note_on_c, 0, 36, 0
3, 14480, Note_on_c, 0, 43, 40
3, 14560, Note_on_c, 0, 43, 0
3, 14560, Note_on_c, 0, 55, 35
3, 14640, Note_on_c, 0, 55, 0
3, 14880, Note_on_c, 0, 36, 42
3, 14896, Control_c, 0, 64, 0
3, 14915, Control_c, 0, 64, 127
3, 14960, Note_on_c, 0, 36, 0
3, 14960, Note_on_c, 0, 43, 37
3, 15040, Note_on_c, 0, 43, 0
3, 15040, Note_on_c, 0, 55, 30
3, 15120, Note_on_c, 0, 55, 0
3, 15360, Note_on_c, 0, 36, 38
3, 15369, Control_c, 0, 64, 0
3, 15392, Control_c, 0, 64, 127
3, 15440, Note_on_c, 0, 43, 33
3, 15520, Note_on_c, 0, 48, 37
3, 15600, Note_on_c, 0, 52, 34
3, 15680, Note_on_c, 0, 55, 38
3, 16320, Note_on_c, 0, 55, 0
3, 16320, Note_on_c, 0, 48, 0
3, 16320, Note_on_c, 0, 36, 0
3, 16320, Note_on_c, 0, 43, 0
3, 16320, Note_on_c, 0, 52, 0
3, 16627, Control_c, 0, 64, 0
3, 16627, End_track
4, 0, Start_track
4, 0, Title_t, "Chopin: Prelude No.1 in C, Op. 28"
4, 0, End_track
5, 0, Start_track
5, 0, Title_t, "Copyright © 2002 by Bernd Krueger"
5, 0, End_track
6, 0, Start_track
6, 0, Title_t, "http://www.piano-midi.de"
6, 0, End_track
7, 0, Start_track
7, 0, Title_t, "Edition: 2014-02-20"
7, 0, End_track
0, 0, End_of_file
