0, 0, Header, 1, 8, 480
1, 0, Start_track
1, 0, Title_t, "Chopin Etude  No. 4, Opus 25"
1, 0, Copyright_t, "Copyright © 2003 by Bernd Krueger "
1, 0, Text_t, "Frederic Chopin"
1, 0, Text_t, "Agitato"
1, 0, Text_t, "Fertiggestellt am 27.2.2003\012"
1, 0, Text_t, "Update am 16.5.2010\012"
1, 0, Text_t, "Update am 17.2.2014\012"
1, 0, Text_t, "Dauer: 1:26 Minuten\012"
1, 0, SMPTE_offset, 96, 0, 3, 0, 0
1, 0, Time_signature, 4, 2, 24, 8
1, 0, Key_signature, 0, "major"
1, 0, Tempo, 303046
1, 1440, Tempo, 306607
1, 1920, Tempo, 298003
1, 1960, Tempo, 305795
1, 2880, Tempo, 299536
1, 3840, Tempo, 295014
1, 4680, Tempo, 300225
1, 4800, Tempo, 290332
1, 4960, Tempo, 291191
1, 5080, Tempo, 292099
1, 5200, Tempo, 292969
1, 5320, Tempo, 293858
1, 5440, Tempo, 294753
1, 5560, Tempo, 295654
1, 5680, Tempo, 296560
1, 5760, Tempo, 295654
1, 5960, Tempo, 294753
1, 6160, Tempo, 293858
1, 6320, Tempo, 292969
1, 6600, Tempo, 315889
1, 6760, Tempo, 290332
1, 6920, Tempo, 291191
1, 7040, Tempo, 292099
1, 7160, Tempo, 292969
1, 7320, Tempo, 293858
1, 7440, Tempo, 294753
1, 7560, Tempo, 316940
1, 7680, Tempo, 296560
1, 9480, Tempo, 311802
1, 9640, Tempo, 295654
1, 10120, Tempo, 294753
1, 10600, Tempo, 293858
1, 11080, Tempo, 292969
1, 11560, Tempo, 292099
1, 11800, Tempo, 290332
1, 13320, Tempo, 306890
1, 13440, Tempo, 297457
1, 14400, Tempo, 293858
1, 15360, Tempo, 292070
1, 15480, Tempo, 292797
1, 15600, Tempo, 293542
1, 15720, Tempo, 294262
1, 15840, Tempo, 295014
1, 15960, Tempo, 295727
1, 16080, Tempo, 296516
1, 16200, Tempo, 297265
1, 16320, Tempo, 298003
1, 16440, Tempo, 298790
1, 16560, Tempo, 299536
1, 16680, Tempo, 300315
1, 16800, Tempo, 301069
1, 16920, Tempo, 301856
1, 17040, Tempo, 302633
1, 17120, Tempo, 303413
1, 17161, Tempo, 302297
1, 17200, Tempo, 303214
1, 17280, Tempo, 298003
1, 17320, Tempo, 305795
1, 18240, Tempo, 310897
1, 18480, Tempo, 299521
1, 19200, Tempo, 295014
1, 20040, Tempo, 300225
1, 20160, Tempo, 299521
1, 20440, Tempo, 292099
1, 20560, Tempo, 292969
1, 20680, Tempo, 293858
1, 20800, Tempo, 294753
1, 20920, Tempo, 295654
1, 21040, Tempo, 296560
1, 21120, Tempo, 295654
1, 21320, Tempo, 294753
1, 21520, Tempo, 293858
1, 21680, Tempo, 292969
1, 22120, Tempo, 290332
1, 22280, Tempo, 291191
1, 22400, Tempo, 292099
1, 22520, Tempo, 292969
1, 22680, Tempo, 293858
1, 22800, Tempo, 294753
1, 23040, Tempo, 296560
1, 24840, Tempo, 311802
1, 24960, Tempo, 295916
1, 25000, Tempo, 295654
1, 25480, Tempo, 294753
1, 25960, Tempo, 293858
1, 26440, Tempo, 292969
1, 26920, Tempo, 292099
1, 27160, Tempo, 290332
1, 28680, Tempo, 306890
1, 28800, Tempo, 299177
1, 29760, Tempo, 297693
1, 30715, Tempo, 294046
1, 30835, Tempo, 294768
1, 30955, Tempo, 295494
1, 31051, Tempo, 296223
1, 31171, Tempo, 296956
1, 31291, Tempo, 297693
1, 31387, Tempo, 298433
1, 31507, Tempo, 299177
1, 31603, Tempo, 299925
1, 31723, Tempo, 300677
1, 31843, Tempo, 301432
1, 31939, Tempo, 302191
1, 32059, Tempo, 302954
1, 32155, Tempo, 303721
1, 32160, Tempo, 300451
1, 32200, Tempo, 302297
1, 32240, Tempo, 305095
1, 32280, Tempo, 307977
1, 32320, Tempo, 309917
1, 32360, Tempo, 312891
1, 32400, Tempo, 315889
1, 32440, Tempo, 318962
1, 32480, Tempo, 321044
1, 32520, Tempo, 324237
1, 32560, Tempo, 327457
1, 32600, Tempo, 330779
1, 32640, Tempo, 322494
1, 33120, Tempo, 317376
1, 33600, Tempo, 312419
1, 34080, Tempo, 325115
1, 34531, Tempo, 292612
1, 34579, Tempo, 297693
1, 34699, Tempo, 298433
1, 34819, Tempo, 299177
1, 34939, Tempo, 299925
1, 35059, Tempo, 300677
1, 35179, Tempo, 301432
1, 35299, Tempo, 302191
1, 35419, Tempo, 302954
1, 35515, Tempo, 303721
1, 35635, Tempo, 304491
1, 35755, Tempo, 305266
1, 35875, Tempo, 306044
1, 35995, Tempo, 306827
1, 36115, Tempo, 307613
1, 36235, Tempo, 308404
1, 36355, Tempo, 309199
1, 36451, Tempo, 309997
1, 36480, Tempo, 295916
1, 36520, Tempo, 295654
1, 37000, Tempo, 294753
1, 37480, Tempo, 293858
1, 37920, Tempo, 288948
1, 39400, Tempo, 293255
1, 40320, Tempo, 295916
1, 40360, Tempo, 295654
1, 40840, Tempo, 294753
1, 41320, Tempo, 293858
1, 41760, Tempo, 288948
1, 42960, Tempo, 295916
1, 43240, Tempo, 293255
1, 43680, Tempo, 290670
1, 44160, Tempo, 293255
1, 45160, Tempo, 293255
1, 45600, Tempo, 300451
1, 46080, Tempo, 293255
1, 47080, Tempo, 293255
1, 47520, Tempo, 296809
1, 48000, Tempo, 293255
1, 49000, Tempo, 293255
1, 49920, Tempo, 293255
1, 50920, Tempo, 293255
1, 51360, Tempo, 296809
1, 51840, Tempo, 295916
1, 51880, Tempo, 295654
1, 52360, Tempo, 294753
1, 52840, Tempo, 293858
1, 53280, Tempo, 288948
1, 53760, Tempo, 295916
1, 53800, Tempo, 295654
1, 54280, Tempo, 294753
1, 54760, Tempo, 293858
1, 55200, Tempo, 288948
1, 55680, Tempo, 295916
1, 55720, Tempo, 295654
1, 57120, Tempo, 300451
1, 57600, Tempo, 307613
1, 57960, Tempo, 306044
1, 59280, Tempo, 327779
1, 59520, Tempo, 322494
1, 60480, Tempo, 314878
1, 60960, Tempo, 326886
1, 61440, Tempo, 318218
1, 63360, Tempo, 313234
1, 63840, Tempo, 307613
1, 64200, Tempo, 304491
1, 64320, Tempo, 306044
1, 64800, Tempo, 310800
1, 65280, Tempo, 299521
1, 66240, Tempo, 300451
1, 66720, Tempo, 304152
1, 67200, Tempo, 293255
1, 68200, Tempo, 293255
1, 68640, Tempo, 300451
1, 69120, Tempo, 293255
1, 70120, Tempo, 293255
1, 70560, Tempo, 296809
1, 71040, Tempo, 291900
1, 71520, Tempo, 294046
1, 72040, Tempo, 293255
1, 72480, Tempo, 296223
1, 72960, Tempo, 292612
1, 73320, Tempo, 294768
1, 73960, Tempo, 293255
1, 74400, Tempo, 296809
1, 74880, Tempo, 295916
1, 74920, Tempo, 295654
1, 75400, Tempo, 294753
1, 75880, Tempo, 293858
1, 76320, Tempo, 288948
1, 76800, Tempo, 295916
1, 76840, Tempo, 295654
1, 77320, Tempo, 294753
1, 77800, Tempo, 293858
1, 78240, Tempo, 288948
1, 79200, Tempo, 293255
1, 79280, Tempo, 292969
1, 79560, Tempo, 315889
1, 79720, Tempo, 290332
1, 79880, Tempo, 291191
1, 80000, Tempo, 292099
1, 80120, Tempo, 292969
1, 80280, Tempo, 293858
1, 80400, Tempo, 294753
1, 80520, Tempo, 316940
1, 80640, Tempo, 296560
1, 82440, Tempo, 311802
1, 82600, Tempo, 295654
1, 83080, Tempo, 294753
1, 83560, Tempo, 293858
1, 84040, Tempo, 292969
1, 84520, Tempo, 292099
1, 84760, Tempo, 290332
1, 85360, Tempo, 293858
1, 86280, Tempo, 306890
1, 86400, Tempo, 297457
1, 87360, Tempo, 293858
1, 88320, Tempo, 292070
1, 88440, Tempo, 292797
1, 88560, Tempo, 293542
1, 88680, Tempo, 294262
1, 88800, Tempo, 295014
1, 88920, Tempo, 295727
1, 89040, Tempo, 296516
1, 89160, Tempo, 297265
1, 89280, Tempo, 295000
1, 89328, Tempo, 295814
1, 89352, Tempo, 296633
1, 89400, Tempo, 297442
1, 89424, Tempo, 298270
1, 89472, Tempo, 299088
1, 89496, Tempo, 299925
1, 89544, Tempo, 300767
1, 89568, Tempo, 301598
1, 89616, Tempo, 302450
1, 89640, Tempo, 303306
1, 89688, Tempo, 304152
1, 89712, Tempo, 305018
1, 89736, Tempo, 305873
1, 89784, Tempo, 306748
1, 89808, Tempo, 307629
1, 89856, Tempo, 308499
1, 89880, Tempo, 309390
1, 89928, Tempo, 310270
1, 89952, Tempo, 311171
1, 90000, Tempo, 312077
1, 90024, Tempo, 312973
1, 90072, Tempo, 313890
1, 90096, Tempo, 314812
1, 90144, Tempo, 315723
1, 90168, Tempo, 316656
1, 90192, Tempo, 317578
1, 90240, Tempo, 306748
1, 90280, Tempo, 305795
1, 91200, Tempo, 310897
1, 91440, Tempo, 299521
1, 92160, Tempo, 295014
1, 93000, Tempo, 300225
1, 93120, Tempo, 299521
1, 93400, Tempo, 292099
1, 93520, Tempo, 292969
1, 93640, Tempo, 293858
1, 93760, Tempo, 294753
1, 93880, Tempo, 295654
1, 94000, Tempo, 296560
1, 94080, Tempo, 295654
1, 94280, Tempo, 294753
1, 94480, Tempo, 293858
1, 94640, Tempo, 292969
1, 95080, Tempo, 290332
1, 95240, Tempo, 291191
1, 95360, Tempo, 292099
1, 95480, Tempo, 292969
1, 95640, Tempo, 293858
1, 95760, Tempo, 294753
1, 96000, Tempo, 296560
1, 97800, Tempo, 311802
1, 97920, Tempo, 295916
1, 97960, Tempo, 295654
1, 98440, Tempo, 294753
1, 98920, Tempo, 293858
1, 99400, Tempo, 292969
1, 99880, Tempo, 292099
1, 100120, Tempo, 290332
1, 101640, Tempo, 306890
1, 101760, Tempo, 300451
1, 102720, Tempo, 297708
1, 103200, Tempo, 302450
1, 103680, Tempo, 306748
1, 103960, Tempo, 297708
1, 103967, Tempo, 301598
1, 104159, Tempo, 302450
1, 104351, Tempo, 303306
1, 104519, Tempo, 304152
1, 104711, Tempo, 305018
1, 104903, Tempo, 305873
1, 105071, Tempo, 304152
1, 105095, Tempo, 305018
1, 105119, Tempo, 306748
1, 105143, Tempo, 307629
1, 105167, Tempo, 309390
1, 105191, Tempo, 310270
1, 105215, Tempo, 312077
1, 105239, Tempo, 312973
1, 105263, Tempo, 314812
1, 105287, Tempo, 315723
1, 105311, Tempo, 317578
1, 105335, Tempo, 319472
1, 105359, Tempo, 320410
1, 105383, Tempo, 322338
1, 105407, Tempo, 323293
1, 105431, Tempo, 325239
1, 105455, Tempo, 326229
1, 105479, Tempo, 328210
1, 105503, Tempo, 329218
1, 105527, Tempo, 331236
1, 105551, Tempo, 332263
1, 105599, Tempo, 336398
1, 105600, Tempo, 335102
1, 106080, Tempo, 325998
1, 106560, Tempo, 322494
1, 107040, Tempo, 333241
1, 107479, Tempo, 303721
1, 107527, Tempo, 304491
1, 107575, Tempo, 305266
1, 107623, Tempo, 306044
1, 107671, Tempo, 306827
1, 107719, Tempo, 307613
1, 107767, Tempo, 308404
1, 107815, Tempo, 309199
1, 107863, Tempo, 309997
1, 107911, Tempo, 310800
1, 107959, Tempo, 310800
1, 108079, Tempo, 311607
1, 108199, Tempo, 312419
1, 108319, Tempo, 313234
1, 108415, Tempo, 314054
1, 108535, Tempo, 314878
1, 108655, Tempo, 315706
1, 108751, Tempo, 316539
1, 108871, Tempo, 317376
1, 108991, Tempo, 318218
1, 109087, Tempo, 319064
1, 109207, Tempo, 319915
1, 109327, Tempo, 320770
1, 109440, Tempo, 314054
1, 109920, Tempo, 309199
1, 110400, Tempo, 299925
1, 110520, Tempo, 298270
1, 110880, Tempo, 309997
1, 111360, Tempo, 300677
1, 111840, Tempo, 309997
1, 112320, Tempo, 300677
1, 112440, Tempo, 297442
1, 112800, Tempo, 311171
1, 113280, Tempo, 292070
1, 113303, Tempo, 293399
1, 113423, Tempo, 294204
1, 113519, Tempo, 295000
1, 113615, Tempo, 295814
1, 113711, Tempo, 296633
1, 113831, Tempo, 297442
1, 113927, Tempo, 298270
1, 114023, Tempo, 299088
1, 114119, Tempo, 299925
1, 114215, Tempo, 300767
1, 114335, Tempo, 301598
1, 114431, Tempo, 302450
1, 114527, Tempo, 303306
1, 114623, Tempo, 304152
1, 114743, Tempo, 305018
1, 114839, Tempo, 305873
1, 114935, Tempo, 306748
1, 115031, Tempo, 307629
1, 115127, Tempo, 308499
1, 115200, Tempo, 301598
1, 115680, Tempo, 304152
1, 116160, Tempo, 299521
1, 117120, Tempo, 297708
1, 117215, Tempo, 299925
1, 117311, Tempo, 300767
1, 117407, Tempo, 301598
1, 117503, Tempo, 302450
1, 117599, Tempo, 303306
1, 117695, Tempo, 304152
1, 117791, Tempo, 305018
1, 117863, Tempo, 305873
1, 117959, Tempo, 306748
1, 118055, Tempo, 307629
1, 118151, Tempo, 308499
1, 118247, Tempo, 309390
1, 118343, Tempo, 310270
1, 118439, Tempo, 311171
1, 118511, Tempo, 312077
1, 118607, Tempo, 312973
1, 118703, Tempo, 313890
1, 118799, Tempo, 314812
1, 118895, Tempo, 315723
1, 118991, Tempo, 316656
1, 119063, Tempo, 317578
1, 119520, Tempo, 326389
1, 119760, Tempo, 317948
1, 120000, Tempo, 336436
1, 120240, Tempo, 350877
1, 120960, Tempo, 307015
1, 121680, Tempo, 377858
1, 122880, Tempo, 441014
1, 123840, Tempo, 735745
1, 124320, Tempo, 862689
1, 124800, Tempo, 338773
1, 125520, Tempo, 545852
1, 126720, Tempo, 545852
1, 128214, Tempo, 666667
1, 128214, End_track
2, 0, Start_track
2, 0, Title_t, "Piano right"
2, 0, Program_c, 0, 0
2, 0, Control_c, 0, 7, 100
2, 0, Control_c, 0, 10, 64
2, 0, Text_t, "bdca426d104a26ac9dcb070447587523"
2, 0, Control_c, 0, 91, 127
2, 2160, Note_on_c, 0, 64, 48
2, 2160, Note_on_c, 0, 69, 48
2, 2160, Note_on_c, 0, 76, 55
2, 2280, Note_on_c, 0, 76, 0
2, 2280, Note_on_c, 0, 69, 0
2, 2280, Note_on_c, 0, 64, 0
2, 2640, Note_on_c, 0, 69, 48
2, 2640, Note_on_c, 0, 76, 48
2, 2640, Note_on_c, 0, 81, 55
2, 2760, Note_on_c, 0, 81, 0
2, 2760, Note_on_c, 0, 76, 0
2, 2760, Note_on_c, 0, 69, 0
2, 3120, Note_on_c, 0, 69, 48
2, 3120, Note_on_c, 0, 74, 48
2, 3120, Note_on_c, 0, 81, 55
2, 3240, Note_on_c, 0, 81, 0
2, 3240, Note_on_c, 0, 74, 0
2, 3240, Note_on_c, 0, 69, 0
2, 3600, Note_on_c, 0, 68, 48
2, 3600, Note_on_c, 0, 76, 48
2, 3600, Note_on_c, 0, 80, 55
2, 3720, Note_on_c, 0, 80, 0
2, 3720, Note_on_c, 0, 76, 0
2, 3720, Note_on_c, 0, 68, 0
2, 4080, Note_on_c, 0, 69, 48
2, 4080, Note_on_c, 0, 76, 55
2, 4200, Note_on_c, 0, 76, 0
2, 4200, Note_on_c, 0, 69, 0
2, 4560, Note_on_c, 0, 72, 48
2, 4560, Note_on_c, 0, 76, 48
2, 4560, Note_on_c, 0, 84, 55
2, 4680, Note_on_c, 0, 84, 0
2, 4680, Note_on_c, 0, 76, 0
2, 4680, Note_on_c, 0, 72, 0
2, 5040, Note_on_c, 0, 84, 56
2, 5040, Note_on_c, 0, 77, 49
2, 5040, Note_on_c, 0, 72, 49
2, 5160, Note_on_c, 0, 72, 0
2, 5160, Note_on_c, 0, 77, 0
2, 5160, Note_on_c, 0, 84, 0
2, 5520, Note_on_c, 0, 71, 51
2, 5520, Note_on_c, 0, 77, 51
2, 5520, Note_on_c, 0, 83, 58
2, 5640, Note_on_c, 0, 83, 0
2, 5640, Note_on_c, 0, 77, 0
2, 5640, Note_on_c, 0, 71, 0
2, 6000, Note_on_c, 0, 81, 61
2, 6000, Note_on_c, 0, 77, 53
2, 6000, Note_on_c, 0, 69, 53
2, 6120, Note_on_c, 0, 69, 0
2, 6120, Note_on_c, 0, 77, 0
2, 6120, Note_on_c, 0, 81, 0
2, 6480, Note_on_c, 0, 88, 62
2, 6480, Note_on_c, 0, 81, 55
2, 6480, Note_on_c, 0, 76, 55
2, 6600, Note_on_c, 0, 76, 0
2, 6600, Note_on_c, 0, 81, 0
2, 6600, Note_on_c, 0, 88, 0
2, 6960, Note_on_c, 0, 74, 57
2, 6960, Note_on_c, 0, 81, 57
2, 6960, Note_on_c, 0, 86, 64
2, 7080, Note_on_c, 0, 86, 0
2, 7080, Note_on_c, 0, 81, 0
2, 7080, Note_on_c, 0, 74, 0
2, 7440, Note_on_c, 0, 88, 66
2, 7440, Note_on_c, 0, 80, 58
2, 7440, Note_on_c, 0, 76, 58
2, 7560, Note_on_c, 0, 76, 0
2, 7560, Note_on_c, 0, 80, 0
2, 7560, Note_on_c, 0, 88, 0
2, 7920, Note_on_c, 0, 84, 66
2, 7920, Note_on_c, 0, 76, 58
2, 7920, Note_on_c, 0, 72, 58
2, 8040, Note_on_c, 0, 72, 0
2, 8040, Note_on_c, 0, 76, 0
2, 8040, Note_on_c, 0, 84, 0
2, 8400, Note_on_c, 0, 80, 63
2, 8400, Note_on_c, 0, 76, 56
2, 8400, Note_on_c, 0, 68, 56
2, 8520, Note_on_c, 0, 68, 0
2, 8520, Note_on_c, 0, 76, 0
2, 8520, Note_on_c, 0, 80, 0
2, 8880, Note_on_c, 0, 81, 58
2, 8880, Note_on_c, 0, 76, 51
2, 8880, Note_on_c, 0, 69, 51
2, 9000, Note_on_c, 0, 69, 0
2, 9000, Note_on_c, 0, 76, 0
2, 9000, Note_on_c, 0, 81, 0
2, 9360, Note_on_c, 0, 84, 55
2, 9360, Note_on_c, 0, 76, 48
2, 9360, Note_on_c, 0, 72, 48
2, 9480, Note_on_c, 0, 72, 0
2, 9480, Note_on_c, 0, 76, 0
2, 9480, Note_on_c, 0, 84, 0
2, 9840, Note_on_c, 0, 71, 48
2, 9840, Note_on_c, 0, 76, 48
2, 9840, Note_on_c, 0, 83, 55
2, 9960, Note_on_c, 0, 83, 0
2, 9960, Note_on_c, 0, 76, 0
2, 9960, Note_on_c, 0, 71, 0
2, 10320, Note_on_c, 0, 69, 48
2, 10320, Note_on_c, 0, 76, 48
2, 10320, Note_on_c, 0, 81, 55
2, 10440, Note_on_c, 0, 81, 0
2, 10440, Note_on_c, 0, 76, 0
2, 10440, Note_on_c, 0, 69, 0
2, 10800, Note_on_c, 0, 64, 48
2, 10800, Note_on_c, 0, 71, 48
2, 10800, Note_on_c, 0, 76, 55
2, 10920, Note_on_c, 0, 76, 0
2, 10920, Note_on_c, 0, 71, 0
2, 10920, Note_on_c, 0, 64, 0
2, 11280, Note_on_c, 0, 69, 48
2, 11280, Note_on_c, 0, 76, 48
2, 11280, Note_on_c, 0, 81, 55
2, 11400, Note_on_c, 0, 81, 0
2, 11400, Note_on_c, 0, 76, 0
2, 11400, Note_on_c, 0, 69, 0
2, 11760, Note_on_c, 0, 76, 48
2, 11760, Note_on_c, 0, 71, 48
2, 11760, Note_on_c, 0, 83, 55
2, 11880, Note_on_c, 0, 83, 0
2, 11880, Note_on_c, 0, 71, 0
2, 11880, Note_on_c, 0, 76, 0
2, 12240, Note_on_c, 0, 69, 48
2, 12240, Note_on_c, 0, 76, 48
2, 12240, Note_on_c, 0, 81, 55
2, 12360, Note_on_c, 0, 81, 0
2, 12360, Note_on_c, 0, 76, 0
2, 12360, Note_on_c, 0, 69, 0
2, 12720, Note_on_c, 0, 76, 57
2, 12720, Note_on_c, 0, 71, 50
2, 12720, Note_on_c, 0, 64, 50
2, 12840, Note_on_c, 0, 64, 0
2, 12840, Note_on_c, 0, 71, 0
2, 12840, Note_on_c, 0, 76, 0
2, 13200, Note_on_c, 0, 69, 53
2, 13200, Note_on_c, 0, 76, 53
2, 13200, Note_on_c, 0, 81, 61
2, 13320, Note_on_c, 0, 81, 0
2, 13320, Note_on_c, 0, 76, 0
2, 13320, Note_on_c, 0, 69, 0
2, 13680, Note_on_c, 0, 83, 66
2, 13680, Note_on_c, 0, 76, 58
2, 13680, Note_on_c, 0, 71, 58
2, 13800, Note_on_c, 0, 71, 0
2, 13800, Note_on_c, 0, 76, 0
2, 13800, Note_on_c, 0, 83, 0
2, 14160, Note_on_c, 0, 84, 72
2, 14160, Note_on_c, 0, 76, 62
2, 14160, Note_on_c, 0, 72, 62
2, 14280, Note_on_c, 0, 72, 0
2, 14280, Note_on_c, 0, 76, 0
2, 14280, Note_on_c, 0, 84, 0
2, 14640, Note_on_c, 0, 67, 56
2, 14640, Note_on_c, 0, 71, 56
2, 14640, Note_on_c, 0, 79, 63
2, 14760, Note_on_c, 0, 79, 0
2, 14760, Note_on_c, 0, 71, 0
2, 14760, Note_on_c, 0, 67, 0
2, 15120, Note_on_c, 0, 78, 62
2, 15120, Note_on_c, 0, 71, 55
2, 15120, Note_on_c, 0, 69, 55
2, 15240, Note_on_c, 0, 69, 0
2, 15240, Note_on_c, 0, 71, 0
2, 15240, Note_on_c, 0, 78, 0
2, 15600, Note_on_c, 0, 76, 62
2, 15600, Note_on_c, 0, 71, 55
2, 15600, Note_on_c, 0, 68, 55
2, 15720, Note_on_c, 0, 68, 0
2, 15720, Note_on_c, 0, 71, 0
2, 15720, Note_on_c, 0, 76, 0
2, 16080, Note_on_c, 0, 78, 61
2, 16080, Note_on_c, 0, 72, 53
2, 16080, Note_on_c, 0, 69, 53
2, 16200, Note_on_c, 0, 69, 0
2, 16200, Note_on_c, 0, 72, 0
2, 16200, Note_on_c, 0, 78, 0
2, 16560, Note_on_c, 0, 71, 51
2, 16560, Note_on_c, 0, 79, 58
2, 16560, Note_on_c, 0, 77, 51
2, 16560, Note_on_c, 0, 67, 51
2, 16680, Note_on_c, 0, 67, 0
2, 16680, Note_on_c, 0, 71, 0
2, 16680, Note_on_c, 0, 79, 0
2, 16680, Note_on_c, 0, 77, 0
2, 17040, Note_on_c, 0, 74, 48
2, 17040, Note_on_c, 0, 80, 55
2, 17040, Note_on_c, 0, 76, 48
2, 17040, Note_on_c, 0, 68, 48
2, 17160, Note_on_c, 0, 68, 0
2, 17160, Note_on_c, 0, 74, 0
2, 17160, Note_on_c, 0, 80, 0
2, 17160, Note_on_c, 0, 76, 0
2, 17520, Note_on_c, 0, 69, 47
2, 17520, Note_on_c, 0, 72, 47
2, 17520, Note_on_c, 0, 76, 47
2, 17520, Note_on_c, 0, 81, 56
2, 17640, Note_on_c, 0, 81, 0
2, 17640, Note_on_c, 0, 69, 0
2, 17640, Note_on_c, 0, 72, 0
2, 17640, Note_on_c, 0, 76, 0
2, 18000, Note_on_c, 0, 69, 51
2, 18000, Note_on_c, 0, 76, 51
2, 18000, Note_on_c, 0, 81, 71
2, 18120, Note_on_c, 0, 76, 0
2, 18120, Note_on_c, 0, 69, 0
2, 18480, Note_on_c, 0, 69, 48
2, 18480, Note_on_c, 0, 74, 57
2, 18600, Note_on_c, 0, 74, 0
2, 18600, Note_on_c, 0, 69, 0
2, 18960, Note_on_c, 0, 81, 0
2, 18960, Note_on_c, 0, 68, 44
2, 18960, Note_on_c, 0, 76, 44
2, 18960, Note_on_c, 0, 80, 53
2, 19080, Note_on_c, 0, 80, 0
2, 19080, Note_on_c, 0, 76, 0
2, 19080, Note_on_c, 0, 68, 0
2, 19440, Note_on_c, 0, 69, 47
2, 19440, Note_on_c, 0, 76, 56
2, 19560, Note_on_c, 0, 76, 0
2, 19560, Note_on_c, 0, 69, 0
2, 19920, Note_on_c, 0, 72, 52
2, 19920, Note_on_c, 0, 76, 52
2, 19920, Note_on_c, 0, 84, 71
2, 20040, Note_on_c, 0, 76, 0
2, 20040, Note_on_c, 0, 72, 0
2, 20400, Note_on_c, 0, 77, 56
2, 20400, Note_on_c, 0, 72, 47
2, 20520, Note_on_c, 0, 72, 0
2, 20520, Note_on_c, 0, 77, 0
2, 20880, Note_on_c, 0, 84, 0
2, 20880, Note_on_c, 0, 71, 47
2, 20880, Note_on_c, 0, 77, 47
2, 20880, Note_on_c, 0, 83, 56
2, 21000, Note_on_c, 0, 77, 0
2, 21000, Note_on_c, 0, 71, 0
2, 21360, Note_on_c, 0, 83, 0
2, 21360, Note_on_c, 0, 81, 58
2, 21360, Note_on_c, 0, 77, 49
2, 21360, Note_on_c, 0, 69, 49
2, 21480, Note_on_c, 0, 69, 0
2, 21480, Note_on_c, 0, 77, 0
2, 21600, Note_on_c, 0, 81, 0
2, 21840, Note_on_c, 0, 88, 75
2, 21840, Note_on_c, 0, 81, 51
2, 21840, Note_on_c, 0, 76, 51
2, 21960, Note_on_c, 0, 76, 0
2, 21960, Note_on_c, 0, 81, 0
2, 22320, Note_on_c, 0, 88, 0
2, 22320, Note_on_c, 0, 74, 55
2, 22320, Note_on_c, 0, 81, 55
2, 22320, Note_on_c, 0, 86, 77
2, 22440, Note_on_c, 0, 81, 0
2, 22440, Note_on_c, 0, 74, 0
2, 22800, Note_on_c, 0, 86, 0
2, 22800, Note_on_c, 0, 88, 82
2, 22800, Note_on_c, 0, 80, 58
2, 22800, Note_on_c, 0, 76, 58
2, 22920, Note_on_c, 0, 76, 0
2, 22920, Note_on_c, 0, 80, 0
2, 23280, Note_on_c, 0, 88, 0
2, 23280, Note_on_c, 0, 84, 77
2, 23280, Note_on_c, 0, 76, 55
2, 23280, Note_on_c, 0, 72, 55
2, 23400, Note_on_c, 0, 72, 0
2, 23400, Note_on_c, 0, 76, 0
2, 23520, Note_on_c, 0, 84, 0
2, 23760, Note_on_c, 0, 83, 66
2, 23760, Note_on_c, 0, 76, 51
2, 23760, Note_on_c, 0, 71, 51
2, 23880, Note_on_c, 0, 71, 0
2, 23880, Note_on_c, 0, 76, 0
2, 24240, Note_on_c, 0, 83, 0
2, 24240, Note_on_c, 0, 81, 61
2, 24240, Note_on_c, 0, 76, 47
2, 24240, Note_on_c, 0, 69, 47
2, 24360, Note_on_c, 0, 69, 0
2, 24360, Note_on_c, 0, 76, 0
2, 24720, Note_on_c, 0, 76, 52
2, 24720, Note_on_c, 0, 72, 44
2, 24840, Note_on_c, 0, 72, 0
2, 24840, Note_on_c, 0, 76, 0
2, 24960, Note_on_c, 0, 81, 0
2, 25200, Note_on_c, 0, 71, 53
2, 25200, Note_on_c, 0, 76, 53
2, 25200, Note_on_c, 0, 83, 71
2, 25440, Note_on_c, 0, 76, 0
2, 25440, Note_on_c, 0, 71, 0
2, 25680, Note_on_c, 0, 83, 0
2, 25680, Note_on_c, 0, 69, 51
2, 25680, Note_on_c, 0, 76, 51
2, 25680, Note_on_c, 0, 81, 66
2, 25920, Note_on_c, 0, 76, 0
2, 25920, Note_on_c, 0, 69, 0
2, 26160, Note_on_c, 0, 81, 0
2, 26160, Note_on_c, 0, 64, 50
2, 26160, Note_on_c, 0, 71, 50
2, 26160, Note_on_c, 0, 76, 64
2, 26400, Note_on_c, 0, 71, 0
2, 26400, Note_on_c, 0, 64, 0
2, 26640, Note_on_c, 0, 76, 0
2, 26640, Note_on_c, 0, 69, 46
2, 26640, Note_on_c, 0, 76, 46
2, 26640, Note_on_c, 0, 81, 60
2, 26880, Note_on_c, 0, 81, 0
2, 26880, Note_on_c, 0, 76, 0
2, 26880, Note_on_c, 0, 69, 0
2, 27120, Note_on_c, 0, 76, 50
2, 27120, Note_on_c, 0, 71, 50
2, 27120, Note_on_c, 0, 83, 67
2, 27240, Note_on_c, 0, 76, 0
2, 27360, Note_on_c, 0, 71, 0
2, 27600, Note_on_c, 0, 83, 0
2, 27600, Note_on_c, 0, 69, 53
2, 27600, Note_on_c, 0, 76, 53
2, 27600, Note_on_c, 0, 81, 69
2, 27720, Note_on_c, 0, 76, 0
2, 27840, Note_on_c, 0, 69, 0
2, 28080, Note_on_c, 0, 81, 0
2, 28080, Note_on_c, 0, 76, 75
2, 28080, Note_on_c, 0, 71, 58
2, 28080, Note_on_c, 0, 64, 58
2, 28320, Note_on_c, 0, 64, 0
2, 28320, Note_on_c, 0, 71, 0
2, 28560, Note_on_c, 0, 76, 0
2, 28560, Note_on_c, 0, 69, 57
2, 28560, Note_on_c, 0, 76, 57
2, 28560, Note_on_c, 0, 81, 67
2, 28800, Note_on_c, 0, 81, 0
2, 28800, Note_on_c, 0, 76, 0
2, 28800, Note_on_c, 0, 69, 0
2, 29040, Note_on_c, 0, 83, 75
2, 29040, Note_on_c, 0, 76, 61
2, 29040, Note_on_c, 0, 71, 61
2, 29280, Note_on_c, 0, 71, 0
2, 29280, Note_on_c, 0, 76, 0
2, 29520, Note_on_c, 0, 83, 0
2, 29520, Note_on_c, 0, 84, 77
2, 29520, Note_on_c, 0, 76, 63
2, 29520, Note_on_c, 0, 72, 63
2, 29760, Note_on_c, 0, 72, 0
2, 29760, Note_on_c, 0, 76, 0
2, 30000, Note_on_c, 0, 84, 0
2, 30000, Note_on_c, 0, 67, 59
2, 30000, Note_on_c, 0, 71, 59
2, 30000, Note_on_c, 0, 79, 73
2, 30240, Note_on_c, 0, 71, 0
2, 30240, Note_on_c, 0, 67, 0
2, 30480, Note_on_c, 0, 79, 0
2, 30480, Note_on_c, 0, 78, 68
2, 30480, Note_on_c, 0, 71, 56
2, 30480, Note_on_c, 0, 69, 56
2, 30720, Note_on_c, 0, 69, 0
2, 30720, Note_on_c, 0, 71, 0
2, 30960, Note_on_c, 0, 78, 0
2, 30960, Note_on_c, 0, 76, 64
2, 30960, Note_on_c, 0, 71, 53
2, 30960, Note_on_c, 0, 67, 53
2, 31200, Note_on_c, 0, 67, 0
2, 31200, Note_on_c, 0, 71, 0
2, 31440, Note_on_c, 0, 72, 53
2, 31440, Note_on_c, 0, 69, 44
2, 31680, Note_on_c, 0, 69, 0
2, 31680, Note_on_c, 0, 72, 0
2, 31920, Note_on_c, 0, 71, 51
2, 31920, Note_on_c, 0, 67, 42
2, 32160, Note_on_c, 0, 67, 0
2, 32160, Note_on_c, 0, 71, 0
2, 32400, Note_on_c, 0, 72, 48
2, 32400, Note_on_c, 0, 69, 39
2, 32640, Note_on_c, 0, 69, 0
2, 32640, Note_on_c, 0, 72, 0
2, 32640, Note_on_c, 0, 76, 0
2, 32880, Note_on_c, 0, 83, 61
2, 32880, Note_on_c, 0, 76, 51
2, 32880, Note_on_c, 0, 71, 51
2, 33120, Note_on_c, 0, 71, 0
2, 33120, Note_on_c, 0, 76, 0
2, 33360, Note_on_c, 0, 83, 0
2, 33360, Note_on_c, 0, 84, 64
2, 33360, Note_on_c, 0, 76, 53
2, 33360, Note_on_c, 0, 72, 53
2, 33600, Note_on_c, 0, 72, 0
2, 33600, Note_on_c, 0, 76, 0
2, 33840, Note_on_c, 0, 84, 0
2, 33840, Note_on_c, 0, 67, 49
2, 33840, Note_on_c, 0, 71, 49
2, 33840, Note_on_c, 0, 79, 60
2, 34080, Note_on_c, 0, 71, 0
2, 34080, Note_on_c, 0, 67, 0
2, 34320, Note_on_c, 0, 79, 0
2, 34320, Note_on_c, 0, 78, 56
2, 34320, Note_on_c, 0, 71, 47
2, 34320, Note_on_c, 0, 69, 47
2, 34560, Note_on_c, 0, 69, 0
2, 34560, Note_on_c, 0, 71, 0
2, 34560, Note_on_c, 0, 78, 0
2, 34800, Note_on_c, 0, 76, 63
2, 34800, Note_on_c, 0, 71, 53
2, 34800, Note_on_c, 0, 67, 53
2, 35040, Note_on_c, 0, 67, 0
2, 35040, Note_on_c, 0, 71, 0
2, 35280, Note_on_c, 0, 71, 60
2, 35280, Note_on_c, 0, 67, 50
2, 35520, Note_on_c, 0, 67, 0
2, 35520, Note_on_c, 0, 71, 0
2, 35760, Note_on_c, 0, 76, 0
2, 35760, Note_on_c, 0, 77, 80
2, 35760, Note_on_c, 0, 71, 63
2, 35760, Note_on_c, 0, 68, 53
2, 36000, Note_on_c, 0, 68, 0
2, 36000, Note_on_c, 0, 71, 0
2, 36240, Note_on_c, 0, 71, 64
2, 36240, Note_on_c, 0, 68, 52
2, 36480, Note_on_c, 0, 68, 0
2, 36480, Note_on_c, 0, 71, 0
2, 36480, Note_on_c, 0, 77, 0
2, 36720, Note_on_c, 0, 69, 74
2, 36720, Note_on_c, 0, 72, 74
2, 36720, Note_on_c, 0, 81, 89
2, 37200, Note_on_c, 0, 81, 0
2, 37200, Note_on_c, 0, 72, 0
2, 37200, Note_on_c, 0, 69, 0
2, 37200, Note_on_c, 0, 68, 71
2, 37200, Note_on_c, 0, 71, 71
2, 37200, Note_on_c, 0, 80, 84
2, 37680, Note_on_c, 0, 80, 0
2, 37680, Note_on_c, 0, 71, 0
2, 37680, Note_on_c, 0, 68, 0
2, 37680, Note_on_c, 0, 67, 70
2, 37680, Note_on_c, 0, 70, 70
2, 37680, Note_on_c, 0, 79, 82
2, 37800, Note_on_c, 0, 79, 0
2, 37800, Note_on_c, 0, 70, 0
2, 37800, Note_on_c, 0, 67, 0
2, 38160, Note_on_c, 0, 64, 63
2, 38160, Note_on_c, 0, 70, 63
2, 38160, Note_on_c, 0, 72, 77
2, 38280, Note_on_c, 0, 72, 0
2, 38280, Note_on_c, 0, 70, 0
2, 38280, Note_on_c, 0, 64, 0
2, 38640, Note_on_c, 0, 67, 70
2, 38640, Note_on_c, 0, 70, 70
2, 38640, Note_on_c, 0, 79, 82
2, 38760, Note_on_c, 0, 79, 0
2, 38760, Note_on_c, 0, 70, 0
2, 38760, Note_on_c, 0, 67, 0
2, 39120, Note_on_c, 0, 64, 63
2, 39120, Note_on_c, 0, 70, 63
2, 39120, Note_on_c, 0, 72, 77
2, 39240, Note_on_c, 0, 72, 0
2, 39240, Note_on_c, 0, 70, 0
2, 39240, Note_on_c, 0, 64, 0
2, 39600, Note_on_c, 0, 67, 70
2, 39600, Note_on_c, 0, 70, 70
2, 39600, Note_on_c, 0, 79, 82
2, 39720, Note_on_c, 0, 79, 0
2, 39720, Note_on_c, 0, 70, 0
2, 39720, Note_on_c, 0, 67, 0
2, 40080, Note_on_c, 0, 69, 63
2, 40080, Note_on_c, 0, 77, 77
2, 40200, Note_on_c, 0, 77, 0
2, 40200, Note_on_c, 0, 69, 0
2, 40560, Note_on_c, 0, 65, 59
2, 40560, Note_on_c, 0, 68, 59
2, 40560, Note_on_c, 0, 77, 70
2, 41040, Note_on_c, 0, 77, 0
2, 41040, Note_on_c, 0, 68, 0
2, 41040, Note_on_c, 0, 65, 0
2, 41040, Note_on_c, 0, 64, 57
2, 41040, Note_on_c, 0, 67, 57
2, 41040, Note_on_c, 0, 76, 67
2, 41520, Note_on_c, 0, 76, 0
2, 41520, Note_on_c, 0, 67, 0
2, 41520, Note_on_c, 0, 64, 0
2, 41520, Note_on_c, 0, 63, 56
2, 41520, Note_on_c, 0, 66, 56
2, 41520, Note_on_c, 0, 75, 66
2, 41640, Note_on_c, 0, 75, 0
2, 41640, Note_on_c, 0, 66, 0
2, 41640, Note_on_c, 0, 63, 0
2, 42000, Note_on_c, 0, 60, 50
2, 42000, Note_on_c, 0, 66, 50
2, 42000, Note_on_c, 0, 68, 61
2, 42120, Note_on_c, 0, 68, 0
2, 42120, Note_on_c, 0, 66, 0
2, 42120, Note_on_c, 0, 60, 0
2, 42480, Note_on_c, 0, 66, 56
2, 42480, Note_on_c, 0, 68, 56
2, 42480, Note_on_c, 0, 75, 66
2, 42600, Note_on_c, 0, 75, 0
2, 42600, Note_on_c, 0, 68, 0
2, 42600, Note_on_c, 0, 66, 0
2, 42960, Note_on_c, 0, 60, 50
2, 42960, Note_on_c, 0, 66, 50
2, 42960, Note_on_c, 0, 68, 61
2, 43080, Note_on_c, 0, 68, 0
2, 43080, Note_on_c, 0, 66, 0
2, 43080, Note_on_c, 0, 60, 0
2, 43440, Note_on_c, 0, 66, 56
2, 43440, Note_on_c, 0, 68, 56
2, 43440, Note_on_c, 0, 75, 66
2, 43560, Note_on_c, 0, 75, 0
2, 43560, Note_on_c, 0, 68, 0
2, 43560, Note_on_c, 0, 66, 0
2, 43920, Note_on_c, 0, 68, 50
2, 43920, Note_on_c, 0, 65, 50
2, 43920, Note_on_c, 0, 73, 61
2, 44160, Note_on_c, 0, 65, 0
2, 44160, Note_on_c, 0, 68, 0
2, 44400, Note_on_c, 0, 73, 0
2, 44400, Note_on_c, 0, 63, 56
2, 44400, Note_on_c, 0, 68, 56
2, 44400, Note_on_c, 0, 72, 66
2, 44640, Note_on_c, 0, 68, 0
2, 44640, Note_on_c, 0, 63, 0
2, 44880, Note_on_c, 0, 72, 0
2, 44880, Note_on_c, 0, 61, 50
2, 44880, Note_on_c, 0, 68, 50
2, 44880, Note_on_c, 0, 70, 62
2, 45120, Note_on_c, 0, 68, 0
2, 45120, Note_on_c, 0, 61, 0
2, 45360, Note_on_c, 0, 70, 0
2, 45360, Note_on_c, 0, 60, 57
2, 45360, Note_on_c, 0, 68, 67
2, 45600, Note_on_c, 0, 60, 0
2, 45840, Note_on_c, 0, 68, 0
2, 45840, Note_on_c, 0, 68, 52
2, 45840, Note_on_c, 0, 66, 52
2, 45840, Note_on_c, 0, 75, 63
2, 46080, Note_on_c, 0, 66, 0
2, 46080, Note_on_c, 0, 68, 0
2, 46320, Note_on_c, 0, 75, 0
2, 46320, Note_on_c, 0, 65, 59
2, 46320, Note_on_c, 0, 68, 59
2, 46320, Note_on_c, 0, 73, 70
2, 46560, Note_on_c, 0, 68, 0
2, 46560, Note_on_c, 0, 65, 0
2, 46800, Note_on_c, 0, 73, 0
2, 46800, Note_on_c, 0, 61, 53
2, 46800, Note_on_c, 0, 68, 53
2, 46800, Note_on_c, 0, 70, 66
2, 47040, Note_on_c, 0, 68, 0
2, 47040, Note_on_c, 0, 61, 0
2, 47280, Note_on_c, 0, 70, 0
2, 47280, Note_on_c, 0, 68, 61
2, 47280, Note_on_c, 0, 65, 61
2, 47280, Note_on_c, 0, 73, 72
2, 47520, Note_on_c, 0, 65, 0
2, 47520, Note_on_c, 0, 68, 0
2, 47760, Note_on_c, 0, 73, 0
2, 47760, Note_on_c, 0, 68, 56
2, 47760, Note_on_c, 0, 63, 56
2, 47760, Note_on_c, 0, 72, 68
2, 48000, Note_on_c, 0, 63, 0
2, 48000, Note_on_c, 0, 68, 0
2, 48240, Note_on_c, 0, 72, 0
2, 48240, Note_on_c, 0, 66, 62
2, 48240, Note_on_c, 0, 68, 62
2, 48240, Note_on_c, 0, 75, 73
2, 48480, Note_on_c, 0, 68, 0
2, 48480, Note_on_c, 0, 66, 0
2, 48720, Note_on_c, 0, 75, 0
2, 48720, Note_on_c, 0, 65, 57
2, 48720, Note_on_c, 0, 68, 57
2, 48720, Note_on_c, 0, 73, 69
2, 48960, Note_on_c, 0, 68, 0
2, 48960, Note_on_c, 0, 65, 0
2, 49200, Note_on_c, 0, 73, 0
2, 49200, Note_on_c, 0, 68, 64
2, 49200, Note_on_c, 0, 63, 64
2, 49200, Note_on_c, 0, 72, 75
2, 49440, Note_on_c, 0, 63, 0
2, 49440, Note_on_c, 0, 68, 0
2, 49680, Note_on_c, 0, 72, 0
2, 49680, Note_on_c, 0, 72, 58
2, 49680, Note_on_c, 0, 66, 58
2, 49680, Note_on_c, 0, 77, 71
2, 49920, Note_on_c, 0, 66, 0
2, 49920, Note_on_c, 0, 72, 0
2, 50160, Note_on_c, 0, 77, 0
2, 50160, Note_on_c, 0, 66, 66
2, 50160, Note_on_c, 0, 72, 66
2, 50160, Note_on_c, 0, 75, 78
2, 50400, Note_on_c, 0, 72, 0
2, 50400, Note_on_c, 0, 66, 0
2, 50640, Note_on_c, 0, 75, 0
2, 50640, Note_on_c, 0, 63, 60
2, 50640, Note_on_c, 0, 66, 60
2, 50640, Note_on_c, 0, 72, 73
2, 50880, Note_on_c, 0, 66, 0
2, 50880, Note_on_c, 0, 63, 0
2, 51120, Note_on_c, 0, 72, 0
2, 51120, Note_on_c, 0, 70, 68
2, 51120, Note_on_c, 0, 66, 68
2, 51120, Note_on_c, 0, 75, 80
2, 51360, Note_on_c, 0, 66, 0
2, 51360, Note_on_c, 0, 70, 0
2, 51600, Note_on_c, 0, 75, 0
2, 51600, Note_on_c, 0, 70, 62
2, 51600, Note_on_c, 0, 65, 62
2, 51600, Note_on_c, 0, 74, 75
2, 51840, Note_on_c, 0, 65, 0
2, 51840, Note_on_c, 0, 70, 0
2, 52080, Note_on_c, 0, 74, 0
2, 52080, Note_on_c, 0, 68, 71
2, 52080, Note_on_c, 0, 74, 71
2, 52080, Note_on_c, 0, 80, 84
2, 52320, Note_on_c, 0, 74, 0
2, 52320, Note_on_c, 0, 68, 0
2, 52560, Note_on_c, 0, 80, 0
2, 52560, Note_on_c, 0, 67, 71
2, 52560, Note_on_c, 0, 74, 71
2, 52560, Note_on_c, 0, 79, 84
2, 52800, Note_on_c, 0, 74, 0
2, 52800, Note_on_c, 0, 67, 0
2, 53040, Note_on_c, 0, 79, 0
2, 53040, Note_on_c, 0, 64, 70
2, 53040, Note_on_c, 0, 70, 70
2, 53040, Note_on_c, 0, 72, 82
2, 53280, Note_on_c, 0, 72, 0
2, 53520, Note_on_c, 0, 70, 0
2, 53520, Note_on_c, 0, 64, 0
2, 53520, Note_on_c, 0, 65, 63
2, 53520, Note_on_c, 0, 68, 63
2, 53520, Note_on_c, 0, 77, 77
2, 53760, Note_on_c, 0, 77, 0
2, 53760, Note_on_c, 0, 68, 0
2, 53760, Note_on_c, 0, 65, 0
2, 54000, Note_on_c, 0, 68, 70
2, 54000, Note_on_c, 0, 74, 70
2, 54000, Note_on_c, 0, 80, 83
2, 54240, Note_on_c, 0, 80, 0
2, 54240, Note_on_c, 0, 74, 0
2, 54240, Note_on_c, 0, 68, 0
2, 54480, Note_on_c, 0, 67, 71
2, 54480, Note_on_c, 0, 74, 71
2, 54480, Note_on_c, 0, 79, 84
2, 54720, Note_on_c, 0, 79, 0
2, 54720, Note_on_c, 0, 74, 0
2, 54720, Note_on_c, 0, 67, 0
2, 54960, Note_on_c, 0, 64, 70
2, 54960, Note_on_c, 0, 70, 70
2, 54960, Note_on_c, 0, 72, 82
2, 55200, Note_on_c, 0, 72, 0
2, 55200, Note_on_c, 0, 70, 0
2, 55200, Note_on_c, 0, 64, 0
2, 55440, Note_on_c, 0, 65, 63
2, 55440, Note_on_c, 0, 68, 63
2, 55440, Note_on_c, 0, 77, 77
2, 55680, Note_on_c, 0, 77, 0
2, 55680, Note_on_c, 0, 68, 0
2, 55680, Note_on_c, 0, 65, 0
2, 55920, Note_on_c, 0, 67, 62
2, 55920, Note_on_c, 0, 72, 62
2, 55920, Note_on_c, 0, 79, 74
2, 56040, Note_on_c, 0, 79, 0
2, 56040, Note_on_c, 0, 72, 0
2, 56040, Note_on_c, 0, 67, 0
2, 56400, Note_on_c, 0, 68, 63
2, 56400, Note_on_c, 0, 72, 63
2, 56400, Note_on_c, 0, 80, 75
2, 56520, Note_on_c, 0, 80, 0
2, 56520, Note_on_c, 0, 72, 0
2, 56520, Note_on_c, 0, 68, 0
2, 56880, Note_on_c, 0, 63, 62
2, 56880, Note_on_c, 0, 67, 62
2, 56880, Note_on_c, 0, 75, 73
2, 57000, Note_on_c, 0, 75, 0
2, 57000, Note_on_c, 0, 67, 0
2, 57000, Note_on_c, 0, 63, 0
2, 57360, Note_on_c, 0, 65, 57
2, 57360, Note_on_c, 0, 67, 57
2, 57360, Note_on_c, 0, 74, 69
2, 57480, Note_on_c, 0, 74, 0
2, 57480, Note_on_c, 0, 67, 0
2, 57480, Note_on_c, 0, 65, 0
2, 57840, Note_on_c, 0, 63, 56
2, 57840, Note_on_c, 0, 67, 56
2, 57840, Note_on_c, 0, 72, 67
2, 58080, Note_on_c, 0, 67, 0
2, 58080, Note_on_c, 0, 63, 0
2, 58320, Note_on_c, 0, 65, 57
2, 58320, Note_on_c, 0, 68, 57
2, 58560, Note_on_c, 0, 68, 0
2, 58560, Note_on_c, 0, 65, 0
2, 58800, Note_on_c, 0, 63, 56
2, 58800, Note_on_c, 0, 67, 56
2, 59040, Note_on_c, 0, 67, 0
2, 59040, Note_on_c, 0, 63, 0
2, 59280, Note_on_c, 0, 65, 50
2, 59280, Note_on_c, 0, 68, 50
2, 59520, Note_on_c, 0, 68, 0
2, 59520, Note_on_c, 0, 65, 0
2, 59520, Note_on_c, 0, 72, 0
2, 59760, Note_on_c, 0, 67, 44
2, 59760, Note_on_c, 0, 72, 44
2, 59760, Note_on_c, 0, 79, 52
2, 60240, Note_on_c, 0, 79, 0
2, 60240, Note_on_c, 0, 72, 0
2, 60240, Note_on_c, 0, 67, 0
2, 60240, Note_on_c, 0, 68, 45
2, 60240, Note_on_c, 0, 72, 45
2, 60240, Note_on_c, 0, 80, 53
2, 60720, Note_on_c, 0, 80, 0
2, 60720, Note_on_c, 0, 72, 0
2, 60720, Note_on_c, 0, 68, 0
2, 60720, Note_on_c, 0, 63, 44
2, 60720, Note_on_c, 0, 67, 44
2, 60720, Note_on_c, 0, 75, 51
2, 61200, Note_on_c, 0, 75, 0
2, 61200, Note_on_c, 0, 67, 0
2, 61200, Note_on_c, 0, 63, 0
2, 61200, Note_on_c, 0, 65, 39
2, 61200, Note_on_c, 0, 67, 39
2, 61200, Note_on_c, 0, 74, 49
2, 61440, Note_on_c, 0, 67, 0
2, 61440, Note_on_c, 0, 65, 0
2, 61680, Note_on_c, 0, 74, 0
2, 61680, Note_on_c, 0, 63, 39
2, 61680, Note_on_c, 0, 67, 39
2, 61680, Note_on_c, 0, 72, 47
2, 61920, Note_on_c, 0, 67, 0
2, 61920, Note_on_c, 0, 63, 0
2, 62160, Note_on_c, 0, 65, 45
2, 62160, Note_on_c, 0, 68, 45
2, 62400, Note_on_c, 0, 68, 0
2, 62400, Note_on_c, 0, 65, 0
2, 62640, Note_on_c, 0, 63, 44
2, 62640, Note_on_c, 0, 67, 44
2, 62880, Note_on_c, 0, 67, 0
2, 62880, Note_on_c, 0, 63, 0
2, 63120, Note_on_c, 0, 65, 39
2, 63120, Note_on_c, 0, 68, 39
2, 63360, Note_on_c, 0, 68, 0
2, 63360, Note_on_c, 0, 65, 0
2, 63360, Note_on_c, 0, 72, 0
2, 63600, Note_on_c, 0, 67, 57
2, 63600, Note_on_c, 0, 72, 57
2, 63600, Note_on_c, 0, 79, 68
2, 64080, Note_on_c, 0, 79, 0
2, 64080, Note_on_c, 0, 72, 0
2, 64080, Note_on_c, 0, 67, 0
2, 64080, Note_on_c, 0, 68, 60
2, 64080, Note_on_c, 0, 72, 60
2, 64080, Note_on_c, 0, 80, 72
2, 64560, Note_on_c, 0, 80, 0
2, 64560, Note_on_c, 0, 72, 0
2, 64560, Note_on_c, 0, 68, 0
2, 64560, Note_on_c, 0, 72, 59
2, 64560, Note_on_c, 0, 77, 59
2, 64560, Note_on_c, 0, 84, 73
2, 65040, Note_on_c, 0, 84, 0
2, 65040, Note_on_c, 0, 77, 0
2, 65040, Note_on_c, 0, 72, 0
2, 65040, Note_on_c, 0, 74, 53
2, 65040, Note_on_c, 0, 79, 53
2, 65040, Note_on_c, 0, 83, 72
2, 65280, Note_on_c, 0, 83, 0
2, 65280, Note_on_c, 0, 79, 0
2, 65280, Note_on_c, 0, 74, 0
2, 65520, Note_on_c, 0, 82, 63
2, 65520, Note_on_c, 0, 70, 52
2, 65520, Note_on_c, 0, 76, 52
2, 66000, Note_on_c, 0, 76, 0
2, 66000, Note_on_c, 0, 70, 0
2, 66000, Note_on_c, 0, 82, 0
2, 66000, Note_on_c, 0, 68, 53
2, 66000, Note_on_c, 0, 72, 53
2, 66000, Note_on_c, 0, 80, 64
2, 66480, Note_on_c, 0, 80, 0
2, 66480, Note_on_c, 0, 72, 0
2, 66480, Note_on_c, 0, 68, 0
2, 66480, Note_on_c, 0, 67, 50
2, 66480, Note_on_c, 0, 75, 50
2, 66480, Note_on_c, 0, 79, 59
2, 66960, Note_on_c, 0, 79, 0
2, 66960, Note_on_c, 0, 75, 0
2, 66960, Note_on_c, 0, 67, 0
2, 66960, Note_on_c, 0, 65, 39
2, 66960, Note_on_c, 0, 67, 39
2, 66960, Note_on_c, 0, 71, 50
2, 67200, Note_on_c, 0, 67, 0
2, 67200, Note_on_c, 0, 65, 0
2, 67440, Note_on_c, 0, 71, 0
2, 67440, Note_on_c, 0, 64, 44
2, 67440, Note_on_c, 0, 67, 44
2, 67440, Note_on_c, 0, 72, 52
2, 67680, Note_on_c, 0, 67, 0
2, 67680, Note_on_c, 0, 64, 0
2, 67920, Note_on_c, 0, 72, 0
2, 67920, Note_on_c, 0, 65, 39
2, 67920, Note_on_c, 0, 68, 39
2, 67920, Note_on_c, 0, 73, 49
2, 68160, Note_on_c, 0, 68, 0
2, 68160, Note_on_c, 0, 65, 0
2, 68400, Note_on_c, 0, 73, 0
2, 68400, Note_on_c, 0, 67, 45
2, 68400, Note_on_c, 0, 64, 45
2, 68400, Note_on_c, 0, 72, 52
2, 68640, Note_on_c, 0, 64, 0
2, 68640, Note_on_c, 0, 67, 0
2, 68880, Note_on_c, 0, 72, 0
2, 68880, Note_on_c, 0, 68, 41
2, 68880, Note_on_c, 0, 65, 41
2, 68880, Note_on_c, 0, 74, 50
2, 69120, Note_on_c, 0, 65, 0
2, 69120, Note_on_c, 0, 68, 0
2, 69360, Note_on_c, 0, 74, 0
2, 69360, Note_on_c, 0, 64, 47
2, 69360, Note_on_c, 0, 67, 47
2, 69360, Note_on_c, 0, 72, 56
2, 69600, Note_on_c, 0, 67, 0
2, 69600, Note_on_c, 0, 64, 0
2, 69840, Note_on_c, 0, 72, 0
2, 69840, Note_on_c, 0, 65, 42
2, 69840, Note_on_c, 0, 68, 42
2, 69840, Note_on_c, 0, 73, 52
2, 70080, Note_on_c, 0, 68, 0
2, 70080, Note_on_c, 0, 65, 0
2, 70320, Note_on_c, 0, 73, 0
2, 70320, Note_on_c, 0, 67, 49
2, 70320, Note_on_c, 0, 64, 49
2, 70320, Note_on_c, 0, 72, 58
2, 70560, Note_on_c, 0, 64, 0
2, 70560, Note_on_c, 0, 67, 0
2, 70800, Note_on_c, 0, 72, 0
2, 70800, Note_on_c, 0, 68, 44
2, 70800, Note_on_c, 0, 65, 44
2, 70800, Note_on_c, 0, 74, 53
2, 71040, Note_on_c, 0, 65, 0
2, 71040, Note_on_c, 0, 68, 0
2, 71280, Note_on_c, 0, 74, 0
2, 71280, Note_on_c, 0, 64, 49
2, 71280, Note_on_c, 0, 67, 49
2, 71280, Note_on_c, 0, 72, 58
2, 71520, Note_on_c, 0, 67, 0
2, 71520, Note_on_c, 0, 64, 0
2, 71760, Note_on_c, 0, 72, 0
2, 71760, Note_on_c, 0, 65, 42
2, 71760, Note_on_c, 0, 68, 42
2, 71760, Note_on_c, 0, 74, 52
2, 72000, Note_on_c, 0, 68, 0
2, 72000, Note_on_c, 0, 65, 0
2, 72240, Note_on_c, 0, 74, 0
2, 72240, Note_on_c, 0, 67, 48
2, 72240, Note_on_c, 0, 64, 48
2, 72240, Note_on_c, 0, 72, 57
2, 72480, Note_on_c, 0, 64, 0
2, 72480, Note_on_c, 0, 67, 0
2, 72720, Note_on_c, 0, 72, 0
2, 72720, Note_on_c, 0, 68, 41
2, 72720, Note_on_c, 0, 65, 41
2, 72720, Note_on_c, 0, 73, 51
2, 72960, Note_on_c, 0, 65, 0
2, 72960, Note_on_c, 0, 68, 0
2, 73200, Note_on_c, 0, 73, 0
2, 73200, Note_on_c, 0, 64, 47
2, 73200, Note_on_c, 0, 67, 47
2, 73200, Note_on_c, 0, 72, 55
2, 73440, Note_on_c, 0, 67, 0
2, 73440, Note_on_c, 0, 64, 0
2, 73680, Note_on_c, 0, 72, 0
2, 73680, Note_on_c, 0, 65, 40
2, 73680, Note_on_c, 0, 68, 40
2, 73680, Note_on_c, 0, 74, 50
2, 73920, Note_on_c, 0, 68, 0
2, 73920, Note_on_c, 0, 65, 0
2, 74160, Note_on_c, 0, 74, 0
2, 74160, Note_on_c, 0, 69, 45
2, 74160, Note_on_c, 0, 66, 45
2, 74160, Note_on_c, 0, 75, 52
2, 74400, Note_on_c, 0, 66, 0
2, 74400, Note_on_c, 0, 69, 0
2, 74640, Note_on_c, 0, 75, 0
2, 74640, Note_on_c, 0, 68, 39
2, 74640, Note_on_c, 0, 64, 39
2, 74640, Note_on_c, 0, 76, 49
2, 74880, Note_on_c, 0, 64, 0
2, 74880, Note_on_c, 0, 68, 0
2, 75120, Note_on_c, 0, 76, 0
2, 75120, Note_on_c, 0, 64, 50
2, 75120, Note_on_c, 0, 69, 50
2, 75120, Note_on_c, 0, 76, 50
2, 75360, Note_on_c, 0, 69, 0
2, 75360, Note_on_c, 0, 64, 0
2, 75600, Note_on_c, 0, 76, 0
2, 75600, Note_on_c, 0, 81, 70
2, 75600, Note_on_c, 0, 69, 60
2, 75600, Note_on_c, 0, 76, 60
2, 75840, Note_on_c, 0, 76, 0
2, 75840, Note_on_c, 0, 69, 0
2, 76080, Note_on_c, 0, 74, 60
2, 76080, Note_on_c, 0, 69, 59
2, 76320, Note_on_c, 0, 69, 0
2, 76320, Note_on_c, 0, 74, 0
2, 76560, Note_on_c, 0, 81, 0
2, 76560, Note_on_c, 0, 68, 53
2, 76560, Note_on_c, 0, 76, 53
2, 76560, Note_on_c, 0, 80, 64
2, 76800, Note_on_c, 0, 80, 0
2, 76800, Note_on_c, 0, 76, 0
2, 76800, Note_on_c, 0, 68, 0
2, 77040, Note_on_c, 0, 64, 50
2, 77040, Note_on_c, 0, 69, 50
2, 77040, Note_on_c, 0, 76, 50
2, 77280, Note_on_c, 0, 76, 0
2, 77280, Note_on_c, 0, 69, 0
2, 77280, Note_on_c, 0, 64, 0
2, 77520, Note_on_c, 0, 84, 70
2, 77520, Note_on_c, 0, 69, 60
2, 77520, Note_on_c, 0, 76, 60
2, 77760, Note_on_c, 0, 76, 0
2, 77760, Note_on_c, 0, 69, 0
2, 78000, Note_on_c, 0, 77, 60
2, 78000, Note_on_c, 0, 72, 59
2, 78240, Note_on_c, 0, 72, 0
2, 78240, Note_on_c, 0, 77, 0
2, 78480, Note_on_c, 0, 84, 0
2, 78480, Note_on_c, 0, 71, 53
2, 78480, Note_on_c, 0, 83, 64
2, 78480, Note_on_c, 0, 77, 53
2, 78720, Note_on_c, 0, 77, 0
2, 78720, Note_on_c, 0, 71, 0
2, 78960, Note_on_c, 0, 83, 0
2, 78960, Note_on_c, 0, 81, 64
2, 78960, Note_on_c, 0, 69, 48
2, 78960, Note_on_c, 0, 77, 55
2, 79080, Note_on_c, 0, 77, 0
2, 79080, Note_on_c, 0, 69, 0
2, 79200, Note_on_c, 0, 81, 0
2, 79440, Note_on_c, 0, 88, 68
2, 79440, Note_on_c, 0, 81, 55
2, 79440, Note_on_c, 0, 76, 55
2, 79560, Note_on_c, 0, 76, 0
2, 79560, Note_on_c, 0, 81, 0
2, 79560, Note_on_c, 0, 88, 0
2, 79920, Note_on_c, 0, 74, 57
2, 79920, Note_on_c, 0, 81, 57
2, 79920, Note_on_c, 0, 86, 70
2, 80040, Note_on_c, 0, 86, 0
2, 80040, Note_on_c, 0, 81, 0
2, 80040, Note_on_c, 0, 74, 0
2, 80400, Note_on_c, 0, 88, 72
2, 80400, Note_on_c, 0, 80, 58
2, 80400, Note_on_c, 0, 76, 58
2, 80520, Note_on_c, 0, 76, 0
2, 80520, Note_on_c, 0, 80, 0
2, 80520, Note_on_c, 0, 88, 0
2, 80880, Note_on_c, 0, 84, 72
2, 80880, Note_on_c, 0, 76, 58
2, 80880, Note_on_c, 0, 72, 58
2, 81000, Note_on_c, 0, 72, 0
2, 81000, Note_on_c, 0, 76, 0
2, 81000, Note_on_c, 0, 84, 0
2, 81360, Note_on_c, 0, 80, 63
2, 81360, Note_on_c, 0, 76, 56
2, 81360, Note_on_c, 0, 68, 56
2, 81480, Note_on_c, 0, 68, 0
2, 81480, Note_on_c, 0, 76, 0
2, 81480, Note_on_c, 0, 80, 0
2, 81840, Note_on_c, 0, 81, 58
2, 81840, Note_on_c, 0, 76, 51
2, 81840, Note_on_c, 0, 69, 51
2, 81960, Note_on_c, 0, 69, 0
2, 81960, Note_on_c, 0, 76, 0
2, 81960, Note_on_c, 0, 81, 0
2, 82320, Note_on_c, 0, 84, 55
2, 82320, Note_on_c, 0, 76, 48
2, 82320, Note_on_c, 0, 72, 48
2, 82440, Note_on_c, 0, 72, 0
2, 82440, Note_on_c, 0, 76, 0
2, 82440, Note_on_c, 0, 84, 0
2, 82800, Note_on_c, 0, 71, 48
2, 82800, Note_on_c, 0, 76, 48
2, 82800, Note_on_c, 0, 83, 55
2, 82920, Note_on_c, 0, 83, 0
2, 82920, Note_on_c, 0, 76, 0
2, 82920, Note_on_c, 0, 71, 0
2, 83280, Note_on_c, 0, 69, 48
2, 83280, Note_on_c, 0, 76, 48
2, 83280, Note_on_c, 0, 81, 55
2, 83400, Note_on_c, 0, 81, 0
2, 83400, Note_on_c, 0, 76, 0
2, 83400, Note_on_c, 0, 69, 0
2, 83760, Note_on_c, 0, 64, 48
2, 83760, Note_on_c, 0, 71, 48
2, 83760, Note_on_c, 0, 76, 55
2, 83880, Note_on_c, 0, 76, 0
2, 83880, Note_on_c, 0, 71, 0
2, 83880, Note_on_c, 0, 64, 0
2, 84240, Note_on_c, 0, 69, 48
2, 84240, Note_on_c, 0, 76, 48
2, 84240, Note_on_c, 0, 81, 55
2, 84360, Note_on_c, 0, 81, 0
2, 84360, Note_on_c, 0, 76, 0
2, 84360, Note_on_c, 0, 69, 0
2, 84720, Note_on_c, 0, 76, 48
2, 84720, Note_on_c, 0, 71, 48
2, 84720, Note_on_c, 0, 83, 55
2, 84840, Note_on_c, 0, 83, 0
2, 84840, Note_on_c, 0, 71, 0
2, 84840, Note_on_c, 0, 76, 0
2, 85200, Note_on_c, 0, 69, 48
2, 85200, Note_on_c, 0, 76, 48
2, 85200, Note_on_c, 0, 81, 55
2, 85320, Note_on_c, 0, 81, 0
2, 85320, Note_on_c, 0, 76, 0
2, 85320, Note_on_c, 0, 69, 0
2, 85680, Note_on_c, 0, 76, 57
2, 85680, Note_on_c, 0, 71, 50
2, 85680, Note_on_c, 0, 64, 50
2, 85800, Note_on_c, 0, 64, 0
2, 85800, Note_on_c, 0, 71, 0
2, 85800, Note_on_c, 0, 76, 0
2, 86160, Note_on_c, 0, 69, 53
2, 86160, Note_on_c, 0, 76, 53
2, 86160, Note_on_c, 0, 81, 61
2, 86280, Note_on_c, 0, 81, 0
2, 86280, Note_on_c, 0, 76, 0
2, 86280, Note_on_c, 0, 69, 0
2, 86640, Note_on_c, 0, 83, 66
2, 86640, Note_on_c, 0, 76, 58
2, 86640, Note_on_c, 0, 71, 58
2, 86760, Note_on_c, 0, 71, 0
2, 86760, Note_on_c, 0, 76, 0
2, 86760, Note_on_c, 0, 83, 0
2, 87120, Note_on_c, 0, 84, 72
2, 87120, Note_on_c, 0, 76, 62
2, 87120, Note_on_c, 0, 72, 62
2, 87240, Note_on_c, 0, 72, 0
2, 87240, Note_on_c, 0, 76, 0
2, 87240, Note_on_c, 0, 84, 0
2, 87600, Note_on_c, 0, 67, 56
2, 87600, Note_on_c, 0, 71, 56
2, 87600, Note_on_c, 0, 79, 63
2, 87720, Note_on_c, 0, 79, 0
2, 87720, Note_on_c, 0, 71, 0
2, 87720, Note_on_c, 0, 67, 0
2, 88080, Note_on_c, 0, 78, 62
2, 88080, Note_on_c, 0, 71, 55
2, 88080, Note_on_c, 0, 69, 55
2, 88200, Note_on_c, 0, 69, 0
2, 88200, Note_on_c, 0, 71, 0
2, 88200, Note_on_c, 0, 78, 0
2, 88560, Note_on_c, 0, 76, 62
2, 88560, Note_on_c, 0, 71, 55
2, 88560, Note_on_c, 0, 68, 55
2, 88680, Note_on_c, 0, 68, 0
2, 88680, Note_on_c, 0, 71, 0
2, 88680, Note_on_c, 0, 76, 0
2, 89040, Note_on_c, 0, 78, 61
2, 89040, Note_on_c, 0, 72, 53
2, 89040, Note_on_c, 0, 69, 53
2, 89160, Note_on_c, 0, 69, 0
2, 89160, Note_on_c, 0, 72, 0
2, 89160, Note_on_c, 0, 78, 0
2, 89520, Note_on_c, 0, 71, 51
2, 89520, Note_on_c, 0, 79, 58
2, 89520, Note_on_c, 0, 77, 51
2, 89520, Note_on_c, 0, 67, 51
2, 89640, Note_on_c, 0, 67, 0
2, 89640, Note_on_c, 0, 71, 0
2, 89640, Note_on_c, 0, 79, 0
2, 89640, Note_on_c, 0, 77, 0
2, 90000, Note_on_c, 0, 74, 48
2, 90000, Note_on_c, 0, 80, 55
2, 90000, Note_on_c, 0, 76, 48
2, 90000, Note_on_c, 0, 68, 48
2, 90120, Note_on_c, 0, 68, 0
2, 90120, Note_on_c, 0, 74, 0
2, 90120, Note_on_c, 0, 80, 0
2, 90120, Note_on_c, 0, 76, 0
2, 90480, Note_on_c, 0, 69, 47
2, 90480, Note_on_c, 0, 72, 47
2, 90480, Note_on_c, 0, 76, 47
2, 90480, Note_on_c, 0, 81, 56
2, 90600, Note_on_c, 0, 81, 0
2, 90600, Note_on_c, 0, 69, 0
2, 90600, Note_on_c, 0, 72, 0
2, 90600, Note_on_c, 0, 76, 0
2, 90960, Note_on_c, 0, 69, 51
2, 90960, Note_on_c, 0, 76, 51
2, 90960, Note_on_c, 0, 81, 71
2, 91080, Note_on_c, 0, 76, 0
2, 91080, Note_on_c, 0, 69, 0
2, 91440, Note_on_c, 0, 69, 48
2, 91440, Note_on_c, 0, 74, 57
2, 91560, Note_on_c, 0, 74, 0
2, 91560, Note_on_c, 0, 69, 0
2, 91920, Note_on_c, 0, 81, 0
2, 91920, Note_on_c, 0, 68, 44
2, 91920, Note_on_c, 0, 76, 44
2, 91920, Note_on_c, 0, 80, 53
2, 92040, Note_on_c, 0, 76, 0
2, 92040, Note_on_c, 0, 68, 0
2, 92400, Note_on_c, 0, 80, 0
2, 92400, Note_on_c, 0, 81, 58
2, 92400, Note_on_c, 0, 69, 47
2, 92400, Note_on_c, 0, 76, 56
2, 92520, Note_on_c, 0, 76, 0
2, 92520, Note_on_c, 0, 69, 0
2, 92880, Note_on_c, 0, 81, 0
2, 92880, Note_on_c, 0, 72, 52
2, 92880, Note_on_c, 0, 76, 52
2, 92880, Note_on_c, 0, 84, 71
2, 93000, Note_on_c, 0, 76, 0
2, 93000, Note_on_c, 0, 72, 0
2, 93360, Note_on_c, 0, 77, 56
2, 93360, Note_on_c, 0, 72, 47
2, 93480, Note_on_c, 0, 72, 0
2, 93480, Note_on_c, 0, 77, 0
2, 93840, Note_on_c, 0, 84, 0
2, 93840, Note_on_c, 0, 71, 47
2, 93840, Note_on_c, 0, 77, 47
2, 93840, Note_on_c, 0, 83, 56
2, 93960, Note_on_c, 0, 77, 0
2, 93960, Note_on_c, 0, 71, 0
2, 94320, Note_on_c, 0, 83, 0
2, 94320, Note_on_c, 0, 81, 58
2, 94320, Note_on_c, 0, 77, 49
2, 94320, Note_on_c, 0, 69, 49
2, 94440, Note_on_c, 0, 69, 0
2, 94440, Note_on_c, 0, 77, 0
2, 94800, Note_on_c, 0, 81, 0
2, 94800, Note_on_c, 0, 88, 73
2, 94800, Note_on_c, 0, 81, 51
2, 94800, Note_on_c, 0, 76, 51
2, 94920, Note_on_c, 0, 76, 0
2, 94920, Note_on_c, 0, 81, 0
2, 95280, Note_on_c, 0, 88, 0
2, 95280, Note_on_c, 0, 74, 55
2, 95280, Note_on_c, 0, 81, 55
2, 95280, Note_on_c, 0, 86, 70
2, 95400, Note_on_c, 0, 81, 0
2, 95400, Note_on_c, 0, 74, 0
2, 95760, Note_on_c, 0, 86, 0
2, 95760, Note_on_c, 0, 88, 82
2, 95760, Note_on_c, 0, 80, 58
2, 95760, Note_on_c, 0, 76, 58
2, 95880, Note_on_c, 0, 76, 0
2, 95880, Note_on_c, 0, 80, 0
2, 96240, Note_on_c, 0, 88, 0
2, 96240, Note_on_c, 0, 84, 70
2, 96240, Note_on_c, 0, 76, 55
2, 96240, Note_on_c, 0, 72, 55
2, 96480, Note_on_c, 0, 72, 0
2, 96480, Note_on_c, 0, 76, 0
2, 96480, Note_on_c, 0, 84, 0
2, 96720, Note_on_c, 0, 83, 66
2, 96720, Note_on_c, 0, 76, 51
2, 96720, Note_on_c, 0, 71, 51
2, 96960, Note_on_c, 0, 71, 0
2, 96960, Note_on_c, 0, 76, 0
2, 97200, Note_on_c, 0, 83, 0
2, 97200, Note_on_c, 0, 81, 61
2, 97200, Note_on_c, 0, 76, 47
2, 97200, Note_on_c, 0, 69, 47
2, 97440, Note_on_c, 0, 69, 0
2, 97440, Note_on_c, 0, 76, 0
2, 97680, Note_on_c, 0, 76, 52
2, 97680, Note_on_c, 0, 72, 44
2, 97920, Note_on_c, 0, 72, 0
2, 97920, Note_on_c, 0, 76, 0
2, 97920, Note_on_c, 0, 81, 0
2, 98160, Note_on_c, 0, 71, 53
2, 98160, Note_on_c, 0, 76, 53
2, 98160, Note_on_c, 0, 83, 69
2, 98400, Note_on_c, 0, 76, 0
2, 98400, Note_on_c, 0, 71, 0
2, 98640, Note_on_c, 0, 83, 0
2, 98640, Note_on_c, 0, 69, 51
2, 98640, Note_on_c, 0, 76, 51
2, 98640, Note_on_c, 0, 81, 66
2, 98880, Note_on_c, 0, 76, 0
2, 98880, Note_on_c, 0, 69, 0
2, 99120, Note_on_c, 0, 81, 0
2, 99120, Note_on_c, 0, 64, 50
2, 99120, Note_on_c, 0, 71, 50
2, 99120, Note_on_c, 0, 76, 64
2, 99360, Note_on_c, 0, 71, 0
2, 99360, Note_on_c, 0, 64, 0
2, 99600, Note_on_c, 0, 76, 0
2, 99600, Note_on_c, 0, 69, 46
2, 99600, Note_on_c, 0, 76, 46
2, 99600, Note_on_c, 0, 81, 60
2, 99840, Note_on_c, 0, 76, 0
2, 99840, Note_on_c, 0, 69, 0
2, 100080, Note_on_c, 0, 81, 0
2, 100080, Note_on_c, 0, 76, 50
2, 100080, Note_on_c, 0, 71, 50
2, 100080, Note_on_c, 0, 83, 64
2, 100320, Note_on_c, 0, 71, 0
2, 100320, Note_on_c, 0, 76, 0
2, 100560, Note_on_c, 0, 83, 0
2, 100560, Note_on_c, 0, 69, 53
2, 100560, Note_on_c, 0, 76, 53
2, 100560, Note_on_c, 0, 81, 69
2, 100800, Note_on_c, 0, 76, 0
2, 100800, Note_on_c, 0, 69, 0
2, 101040, Note_on_c, 0, 81, 0
2, 101040, Note_on_c, 0, 76, 75
2, 101040, Note_on_c, 0, 71, 58
2, 101040, Note_on_c, 0, 64, 58
2, 101280, Note_on_c, 0, 64, 0
2, 101280, Note_on_c, 0, 71, 0
2, 101520, Note_on_c, 0, 76, 0
2, 101520, Note_on_c, 0, 67, 57
2, 101520, Note_on_c, 0, 70, 57
2, 101520, Note_on_c, 0, 79, 67
2, 101760, Note_on_c, 0, 79, 0
2, 101760, Note_on_c, 0, 70, 0
2, 101760, Note_on_c, 0, 67, 0
2, 102000, Note_on_c, 0, 78, 75
2, 102000, Note_on_c, 0, 70, 61
2, 102000, Note_on_c, 0, 66, 61
2, 102240, Note_on_c, 0, 66, 0
2, 102240, Note_on_c, 0, 70, 0
2, 102240, Note_on_c, 0, 78, 0
2, 102480, Note_on_c, 0, 77, 77
2, 102480, Note_on_c, 0, 70, 63
2, 102480, Note_on_c, 0, 65, 63
2, 102720, Note_on_c, 0, 65, 0
2, 102720, Note_on_c, 0, 70, 0
2, 102720, Note_on_c, 0, 77, 0
2, 102960, Note_on_c, 0, 65, 59
2, 102960, Note_on_c, 0, 70, 59
2, 102960, Note_on_c, 0, 74, 73
2, 103200, Note_on_c, 0, 74, 0
2, 103200, Note_on_c, 0, 70, 0
2, 103200, Note_on_c, 0, 65, 0
2, 103440, Note_on_c, 0, 71, 63
2, 103440, Note_on_c, 0, 68, 52
2, 103440, Note_on_c, 0, 62, 52
2, 103680, Note_on_c, 0, 62, 0
2, 103680, Note_on_c, 0, 68, 0
2, 103680, Note_on_c, 0, 71, 0
2, 103920, Note_on_c, 0, 69, 61
2, 103920, Note_on_c, 0, 60, 50
2, 104160, Note_on_c, 0, 60, 0
2, 104400, Note_on_c, 0, 65, 50
2, 104400, Note_on_c, 0, 62, 41
2, 104640, Note_on_c, 0, 62, 0
2, 104640, Note_on_c, 0, 65, 0
2, 104880, Note_on_c, 0, 64, 48
2, 104880, Note_on_c, 0, 60, 40
2, 105120, Note_on_c, 0, 60, 0
2, 105120, Note_on_c, 0, 64, 0
2, 105360, Note_on_c, 0, 65, 45
2, 105360, Note_on_c, 0, 62, 37
2, 105600, Note_on_c, 0, 62, 0
2, 105600, Note_on_c, 0, 65, 0
2, 105600, Note_on_c, 0, 69, 0
2, 105840, Note_on_c, 0, 64, 38
2, 105840, Note_on_c, 0, 60, 38
2, 106320, Note_on_c, 0, 60, 0
2, 106320, Note_on_c, 0, 64, 0
2, 106320, Note_on_c, 0, 76, 51
2, 106320, Note_on_c, 0, 69, 42
2, 106320, Note_on_c, 0, 64, 42
2, 106800, Note_on_c, 0, 64, 0
2, 106800, Note_on_c, 0, 69, 0
2, 106800, Note_on_c, 0, 76, 0
2, 106800, Note_on_c, 0, 65, 39
2, 106800, Note_on_c, 0, 70, 39
2, 106800, Note_on_c, 0, 74, 50
2, 107040, Note_on_c, 0, 70, 0
2, 107040, Note_on_c, 0, 65, 0
2, 107280, Note_on_c, 0, 74, 0
2, 107280, Note_on_c, 0, 71, 44
2, 107280, Note_on_c, 0, 68, 37
2, 107280, Note_on_c, 0, 62, 37
2, 107760, Note_on_c, 0, 62, 0
2, 107760, Note_on_c, 0, 68, 0
2, 107760, Note_on_c, 0, 71, 0
2, 107760, Note_on_c, 0, 69, 50
2, 107760, Note_on_c, 0, 60, 42
2, 108000, Note_on_c, 0, 60, 0
2, 108240, Note_on_c, 0, 65, 45
2, 108240, Note_on_c, 0, 62, 37
2, 108480, Note_on_c, 0, 62, 0
2, 108480, Note_on_c, 0, 65, 0
2, 108720, Note_on_c, 0, 64, 47
2, 108720, Note_on_c, 0, 60, 40
2, 108960, Note_on_c, 0, 60, 0
2, 108960, Note_on_c, 0, 64, 0
2, 109200, Note_on_c, 0, 65, 48
2, 109200, Note_on_c, 0, 62, 39
2, 109440, Note_on_c, 0, 62, 0
2, 109440, Note_on_c, 0, 65, 0
2, 109680, Note_on_c, 0, 60, 41
2, 109680, Note_on_c, 0, 64, 50
2, 109920, Note_on_c, 0, 64, 0
2, 109920, Note_on_c, 0, 60, 0
2, 110160, Note_on_c, 0, 69, 0
2, 110160, Note_on_c, 0, 64, 63
2, 110160, Note_on_c, 0, 69, 63
2, 110160, Note_on_c, 0, 76, 75
2, 110400, Note_on_c, 0, 69, 0
2, 110400, Note_on_c, 0, 64, 0
2, 110640, Note_on_c, 0, 76, 0
2, 110640, Note_on_c, 0, 69, 62
2, 110640, Note_on_c, 0, 75, 62
2, 110640, Note_on_c, 0, 81, 73
2, 110880, Note_on_c, 0, 75, 0
2, 110880, Note_on_c, 0, 69, 0
2, 111120, Note_on_c, 0, 81, 0
2, 111120, Note_on_c, 0, 68, 57
2, 111120, Note_on_c, 0, 76, 57
2, 111120, Note_on_c, 0, 80, 69
2, 111360, Note_on_c, 0, 76, 0
2, 111360, Note_on_c, 0, 68, 0
2, 111600, Note_on_c, 0, 80, 0
2, 111600, Note_on_c, 0, 67, 62
2, 111600, Note_on_c, 0, 73, 62
2, 111600, Note_on_c, 0, 79, 73
2, 111840, Note_on_c, 0, 73, 0
2, 111840, Note_on_c, 0, 67, 0
2, 112080, Note_on_c, 0, 79, 0
2, 112080, Note_on_c, 0, 66, 57
2, 112080, Note_on_c, 0, 74, 57
2, 112080, Note_on_c, 0, 78, 69
2, 112320, Note_on_c, 0, 74, 0
2, 112320, Note_on_c, 0, 66, 0
2, 112560, Note_on_c, 0, 78, 0
2, 112560, Note_on_c, 0, 65, 52
2, 112560, Note_on_c, 0, 70, 52
2, 112560, Note_on_c, 0, 77, 62
2, 112800, Note_on_c, 0, 70, 0
2, 112800, Note_on_c, 0, 65, 0
2, 113040, Note_on_c, 0, 77, 0
2, 113040, Note_on_c, 0, 71, 44
2, 113040, Note_on_c, 0, 68, 37
2, 113040, Note_on_c, 0, 62, 37
2, 113520, Note_on_c, 0, 62, 0
2, 113520, Note_on_c, 0, 68, 0
2, 113520, Note_on_c, 0, 71, 0
2, 113520, Note_on_c, 0, 64, 42
2, 113520, Note_on_c, 0, 69, 50
2, 113520, Note_on_c, 0, 60, 42
2, 113760, Note_on_c, 0, 60, 0
2, 113760, Note_on_c, 0, 64, 0
2, 114000, Note_on_c, 0, 65, 48
2, 114000, Note_on_c, 0, 62, 39
2, 114240, Note_on_c, 0, 62, 0
2, 114240, Note_on_c, 0, 69, 0
2, 114480, Note_on_c, 0, 74, 47
2, 114480, Note_on_c, 0, 70, 40
2, 114720, Note_on_c, 0, 65, 0
2, 114960, Note_on_c, 0, 70, 0
2, 114960, Note_on_c, 0, 74, 0
2, 114960, Note_on_c, 0, 62, 35
2, 114960, Note_on_c, 0, 71, 42
2, 114960, Note_on_c, 0, 68, 35
2, 115440, Note_on_c, 0, 68, 0
2, 115440, Note_on_c, 0, 71, 0
2, 115440, Note_on_c, 0, 62, 0
2, 115440, Note_on_c, 0, 60, 37
2, 115440, Note_on_c, 0, 69, 45
2, 115920, Note_on_c, 0, 69, 0
2, 115920, Note_on_c, 0, 60, 0
2, 115920, Note_on_c, 0, 64, 50
2, 115920, Note_on_c, 0, 69, 50
2, 115920, Note_on_c, 0, 76, 60
2, 116400, Note_on_c, 0, 76, 0
2, 116400, Note_on_c, 0, 69, 0
2, 116400, Note_on_c, 0, 64, 0
2, 116400, Note_on_c, 0, 65, 49
2, 116400, Note_on_c, 0, 70, 49
2, 116400, Note_on_c, 0, 74, 58
2, 116880, Note_on_c, 0, 74, 0
2, 116880, Note_on_c, 0, 70, 0
2, 116880, Note_on_c, 0, 65, 0
2, 116880, Note_on_c, 0, 62, 45
2, 116880, Note_on_c, 0, 68, 55
2, 117360, Note_on_c, 0, 68, 0
2, 117360, Note_on_c, 0, 62, 0
2, 117360, Note_on_c, 0, 69, 47
2, 117360, Note_on_c, 0, 60, 40
2, 117600, Note_on_c, 0, 60, 0
2, 117840, Note_on_c, 0, 65, 45
2, 117840, Note_on_c, 0, 62, 37
2, 118080, Note_on_c, 0, 62, 0
2, 118080, Note_on_c, 0, 65, 0
2, 118320, Note_on_c, 0, 69, 0
2, 118320, Note_on_c, 0, 72, 46
2, 118320, Note_on_c, 0, 64, 46
2, 118320, Note_on_c, 0, 60, 39
2, 118560, Note_on_c, 0, 60, 0
2, 118560, Note_on_c, 0, 64, 0
2, 118800, Note_on_c, 0, 72, 0
2, 118800, Note_on_c, 0, 70, 42
2, 118800, Note_on_c, 0, 65, 38
2, 118800, Note_on_c, 0, 62, 37
2, 119040, Note_on_c, 0, 62, 0
2, 119040, Note_on_c, 0, 65, 0
2, 119280, Note_on_c, 0, 70, 0
2, 119280, Note_on_c, 0, 64, 37
2, 119280, Note_on_c, 0, 69, 42
2, 119280, Note_on_c, 0, 60, 37
2, 119520, Note_on_c, 0, 60, 0
2, 119520, Note_on_c, 0, 64, 0
2, 119760, Note_on_c, 0, 65, 40
2, 119760, Note_on_c, 0, 62, 33
2, 120000, Note_on_c, 0, 62, 0
2, 120000, Note_on_c, 0, 65, 0
2, 120240, Note_on_c, 0, 69, 0
2, 120240, Note_on_c, 0, 72, 41
2, 120240, Note_on_c, 0, 64, 41
2, 120240, Note_on_c, 0, 60, 35
2, 120480, Note_on_c, 0, 60, 0
2, 120480, Note_on_c, 0, 64, 0
2, 120720, Note_on_c, 0, 72, 0
2, 120720, Note_on_c, 0, 70, 38
2, 120720, Note_on_c, 0, 65, 35
2, 120720, Note_on_c, 0, 62, 34
2, 120960, Note_on_c, 0, 62, 0
2, 120960, Note_on_c, 0, 65, 0
2, 120960, Note_on_c, 0, 70, 0
2, 121440, Note_on_c, 0, 62, 35
2, 121560, Note_on_c, 0, 65, 40
2, 121680, Note_on_c, 0, 70, 49
2, 123840, Note_on_c, 0, 70, 0
2, 123840, Note_on_c, 0, 74, 41
2, 124320, Note_on_c, 0, 74, 0
2, 124320, Note_on_c, 0, 73, 41
2, 124800, Note_on_c, 0, 73, 0
2, 124800, Note_on_c, 0, 65, 0
2, 124800, Note_on_c, 0, 62, 0
2, 125160, Note_on_c, 0, 61, 35
2, 125280, Note_on_c, 0, 64, 35
2, 125400, Note_on_c, 0, 69, 41
2, 126720, Note_on_c, 0, 69, 0
2, 126720, Note_on_c, 0, 64, 0
2, 126720, Note_on_c, 0, 61, 0
2, 126720, End_track
3, 0, Start_track
3, 0, Title_t, "Piano left"
3, 0, Program_c, 0, 0
3, 0, Control_c, 0, 7, 100
3, 0, Control_c, 0, 10, 64
3, 0, Control_c, 0, 64, 0
3, 1440, Note_on_c, 0, 52, 55
3, 1920, Note_on_c, 0, 52, 0
3, 1920, Note_on_c, 0, 45, 55
3, 2040, Note_on_c, 0, 45, 0
3, 2160, Note_on_c, 0, 60, 38
3, 2160, Note_on_c, 0, 52, 31
3, 2280, Note_on_c, 0, 52, 0
3, 2280, Note_on_c, 0, 60, 0
3, 2400, Note_on_c, 0, 48, 55
3, 2520, Note_on_c, 0, 48, 0
3, 2640, Note_on_c, 0, 64, 38
3, 2640, Note_on_c, 0, 57, 31
3, 2760, Note_on_c, 0, 57, 0
3, 2760, Note_on_c, 0, 64, 0
3, 2880, Note_on_c, 0, 47, 55
3, 3000, Note_on_c, 0, 47, 0
3, 3120, Note_on_c, 0, 62, 38
3, 3120, Note_on_c, 0, 53, 31
3, 3240, Note_on_c, 0, 53, 0
3, 3240, Note_on_c, 0, 62, 0
3, 3360, Note_on_c, 0, 52, 55
3, 3480, Note_on_c, 0, 52, 0
3, 3600, Note_on_c, 0, 64, 38
3, 3600, Note_on_c, 0, 59, 31
3, 3720, Note_on_c, 0, 59, 0
3, 3720, Note_on_c, 0, 64, 0
3, 3840, Note_on_c, 0, 48, 55
3, 3960, Note_on_c, 0, 48, 0
3, 4080, Note_on_c, 0, 64, 38
3, 4080, Note_on_c, 0, 57, 31
3, 4200, Note_on_c, 0, 57, 0
3, 4200, Note_on_c, 0, 64, 0
3, 4320, Note_on_c, 0, 45, 55
3, 4440, Note_on_c, 0, 45, 0
3, 4560, Note_on_c, 0, 64, 38
3, 4560, Note_on_c, 0, 57, 31
3, 4680, Note_on_c, 0, 57, 0
3, 4680, Note_on_c, 0, 64, 0
3, 4800, Note_on_c, 0, 50, 56
3, 4920, Note_on_c, 0, 50, 0
3, 5040, Note_on_c, 0, 65, 39
3, 5040, Note_on_c, 0, 57, 33
3, 5160, Note_on_c, 0, 57, 0
3, 5160, Note_on_c, 0, 65, 0
3, 5280, Note_on_c, 0, 50, 58
3, 5400, Note_on_c, 0, 50, 0
3, 5520, Note_on_c, 0, 65, 41
3, 5520, Note_on_c, 0, 56, 35
3, 5640, Note_on_c, 0, 56, 0
3, 5640, Note_on_c, 0, 65, 0
3, 5760, Note_on_c, 0, 48, 60
3, 5880, Note_on_c, 0, 48, 0
3, 6000, Note_on_c, 0, 65, 41
3, 6000, Note_on_c, 0, 57, 35
3, 6120, Note_on_c, 0, 57, 0
3, 6120, Note_on_c, 0, 65, 0
3, 6240, Note_on_c, 0, 48, 61
3, 6360, Note_on_c, 0, 48, 0
3, 6480, Note_on_c, 0, 64, 44
3, 6480, Note_on_c, 0, 57, 37
3, 6600, Note_on_c, 0, 57, 0
3, 6600, Note_on_c, 0, 64, 0
3, 6720, Note_on_c, 0, 47, 63
3, 6840, Note_on_c, 0, 47, 0
3, 6960, Note_on_c, 0, 62, 45
3, 6960, Note_on_c, 0, 53, 37
3, 7080, Note_on_c, 0, 53, 0
3, 7080, Note_on_c, 0, 62, 0
3, 7200, Note_on_c, 0, 40, 66
3, 7320, Note_on_c, 0, 40, 0
3, 7440, Note_on_c, 0, 62, 46
3, 7440, Note_on_c, 0, 59, 38
3, 7440, Note_on_c, 0, 52, 38
3, 7560, Note_on_c, 0, 52, 0
3, 7560, Note_on_c, 0, 59, 0
3, 7560, Note_on_c, 0, 62, 0
3, 7680, Note_on_c, 0, 45, 68
3, 7800, Note_on_c, 0, 45, 0
3, 7920, Note_on_c, 0, 60, 46
3, 7920, Note_on_c, 0, 52, 38
3, 8040, Note_on_c, 0, 52, 0
3, 8040, Note_on_c, 0, 60, 0
3, 8160, Note_on_c, 0, 47, 66
3, 8280, Note_on_c, 0, 47, 0
3, 8400, Note_on_c, 0, 62, 44
3, 8400, Note_on_c, 0, 52, 37
3, 8520, Note_on_c, 0, 52, 0
3, 8520, Note_on_c, 0, 62, 0
3, 8640, Note_on_c, 0, 48, 61
3, 8760, Note_on_c, 0, 48, 0
3, 8880, Note_on_c, 0, 64, 41
3, 8880, Note_on_c, 0, 52, 35
3, 9000, Note_on_c, 0, 52, 0
3, 9000, Note_on_c, 0, 64, 0
3, 9120, Note_on_c, 0, 45, 58
3, 9240, Note_on_c, 0, 45, 0
3, 9360, Note_on_c, 0, 60, 38
3, 9360, Note_on_c, 0, 52, 31
3, 9480, Note_on_c, 0, 52, 0
3, 9480, Note_on_c, 0, 60, 0
3, 9600, Note_on_c, 0, 40, 55
3, 9720, Note_on_c, 0, 40, 0
3, 9840, Note_on_c, 0, 62, 38
3, 9840, Note_on_c, 0, 52, 31
3, 9960, Note_on_c, 0, 52, 0
3, 9960, Note_on_c, 0, 62, 0
3, 10080, Note_on_c, 0, 45, 55
3, 10200, Note_on_c, 0, 45, 0
3, 10320, Note_on_c, 0, 60, 38
3, 10320, Note_on_c, 0, 52, 31
3, 10440, Note_on_c, 0, 52, 0
3, 10440, Note_on_c, 0, 60, 0
3, 10560, Note_on_c, 0, 47, 55
3, 10680, Note_on_c, 0, 47, 0
3, 10800, Note_on_c, 0, 52, 31
3, 10800, Note_on_c, 0, 62, 38
3, 10800, Note_on_c, 0, 56, 31
3, 10920, Note_on_c, 0, 56, 0
3, 10920, Note_on_c, 0, 62, 0
3, 10920, Note_on_c, 0, 52, 0
3, 11040, Note_on_c, 0, 45, 55
3, 11160, Note_on_c, 0, 45, 0
3, 11280, Note_on_c, 0, 52, 31
3, 11280, Note_on_c, 0, 60, 38
3, 11280, Note_on_c, 0, 57, 31
3, 11400, Note_on_c, 0, 57, 0
3, 11400, Note_on_c, 0, 60, 0
3, 11400, Note_on_c, 0, 52, 0
3, 11520, Note_on_c, 0, 40, 55
3, 11640, Note_on_c, 0, 40, 0
3, 11760, Note_on_c, 0, 52, 31
3, 11760, Note_on_c, 0, 62, 38
3, 11760, Note_on_c, 0, 56, 31
3, 11880, Note_on_c, 0, 56, 0
3, 11880, Note_on_c, 0, 62, 0
3, 11880, Note_on_c, 0, 52, 0
3, 12000, Note_on_c, 0, 45, 55
3, 12120, Note_on_c, 0, 45, 0
3, 12240, Note_on_c, 0, 52, 31
3, 12240, Note_on_c, 0, 60, 38
3, 12240, Note_on_c, 0, 57, 31
3, 12360, Note_on_c, 0, 57, 0
3, 12360, Note_on_c, 0, 60, 0
3, 12360, Note_on_c, 0, 52, 0
3, 12480, Note_on_c, 0, 47, 56
3, 12600, Note_on_c, 0, 47, 0
3, 12720, Note_on_c, 0, 52, 35
3, 12720, Note_on_c, 0, 62, 41
3, 12720, Note_on_c, 0, 56, 35
3, 12840, Note_on_c, 0, 56, 0
3, 12840, Note_on_c, 0, 62, 0
3, 12840, Note_on_c, 0, 52, 0
3, 12960, Note_on_c, 0, 45, 60
3, 13080, Note_on_c, 0, 45, 0
3, 13200, Note_on_c, 0, 57, 38
3, 13200, Note_on_c, 0, 60, 46
3, 13200, Note_on_c, 0, 52, 38
3, 13320, Note_on_c, 0, 52, 0
3, 13320, Note_on_c, 0, 60, 0
3, 13320, Note_on_c, 0, 57, 0
3, 13440, Note_on_c, 0, 43, 64
3, 13560, Note_on_c, 0, 43, 0
3, 13680, Note_on_c, 0, 64, 46
3, 13680, Note_on_c, 0, 55, 38
3, 13800, Note_on_c, 0, 55, 0
3, 13800, Note_on_c, 0, 64, 0
3, 13920, Note_on_c, 0, 45, 68
3, 14040, Note_on_c, 0, 45, 0
3, 14160, Note_on_c, 0, 64, 44
3, 14160, Note_on_c, 0, 57, 37
3, 14280, Note_on_c, 0, 57, 0
3, 14280, Note_on_c, 0, 64, 0
3, 14400, Note_on_c, 0, 47, 63
3, 14520, Note_on_c, 0, 47, 0
3, 14640, Note_on_c, 0, 64, 45
3, 14640, Note_on_c, 0, 59, 37
3, 14760, Note_on_c, 0, 59, 0
3, 14760, Note_on_c, 0, 64, 0
3, 14880, Note_on_c, 0, 47, 62
3, 15000, Note_on_c, 0, 47, 0
3, 15120, Note_on_c, 0, 63, 44
3, 15120, Note_on_c, 0, 59, 37
3, 15240, Note_on_c, 0, 59, 0
3, 15240, Note_on_c, 0, 63, 0
3, 15360, Note_on_c, 0, 52, 61
3, 15480, Note_on_c, 0, 52, 0
3, 15600, Note_on_c, 0, 64, 44
3, 15600, Note_on_c, 0, 59, 37
3, 15720, Note_on_c, 0, 59, 0
3, 15720, Note_on_c, 0, 64, 0
3, 15840, Note_on_c, 0, 51, 60
3, 15960, Note_on_c, 0, 51, 0
3, 16080, Note_on_c, 0, 66, 44
3, 16080, Note_on_c, 0, 60, 37
3, 16200, Note_on_c, 0, 60, 0
3, 16200, Note_on_c, 0, 66, 0
3, 16320, Note_on_c, 0, 50, 61
3, 16440, Note_on_c, 0, 50, 0
3, 16560, Note_on_c, 0, 65, 41
3, 16560, Note_on_c, 0, 59, 35
3, 16680, Note_on_c, 0, 59, 0
3, 16680, Note_on_c, 0, 65, 0
3, 16800, Note_on_c, 0, 40, 58
3, 16920, Note_on_c, 0, 40, 0
3, 17040, Note_on_c, 0, 64, 38
3, 17040, Note_on_c, 0, 59, 31
3, 17160, Note_on_c, 0, 59, 0
3, 17160, Note_on_c, 0, 64, 0
3, 17280, Note_on_c, 0, 45, 55
3, 17400, Note_on_c, 0, 45, 0
3, 17520, Note_on_c, 0, 64, 38
3, 17520, Note_on_c, 0, 57, 31
3, 17640, Note_on_c, 0, 57, 0
3, 17640, Note_on_c, 0, 64, 0
3, 17760, Note_on_c, 0, 48, 55
3, 17880, Note_on_c, 0, 48, 0
3, 18000, Note_on_c, 0, 64, 38
3, 18000, Note_on_c, 0, 57, 31
3, 18120, Note_on_c, 0, 57, 0
3, 18120, Note_on_c, 0, 64, 0
3, 18240, Note_on_c, 0, 47, 55
3, 18360, Note_on_c, 0, 47, 0
3, 18480, Note_on_c, 0, 62, 38
3, 18480, Note_on_c, 0, 53, 31
3, 18600, Note_on_c, 0, 53, 0
3, 18600, Note_on_c, 0, 62, 0
3, 18720, Note_on_c, 0, 52, 55
3, 18840, Note_on_c, 0, 52, 0
3, 18960, Note_on_c, 0, 64, 38
3, 18960, Note_on_c, 0, 59, 31
3, 19080, Note_on_c, 0, 59, 0
3, 19080, Note_on_c, 0, 64, 0
3, 19200, Note_on_c, 0, 48, 55
3, 19320, Note_on_c, 0, 48, 0
3, 19440, Note_on_c, 0, 64, 38
3, 19440, Note_on_c, 0, 57, 31
3, 19560, Note_on_c, 0, 57, 0
3, 19560, Note_on_c, 0, 64, 0
3, 19680, Note_on_c, 0, 45, 55
3, 19800, Note_on_c, 0, 45, 0
3, 19920, Note_on_c, 0, 64, 38
3, 19920, Note_on_c, 0, 57, 31
3, 20040, Note_on_c, 0, 57, 0
3, 20040, Note_on_c, 0, 64, 0
3, 20160, Note_on_c, 0, 50, 56
3, 20280, Note_on_c, 0, 50, 0
3, 20400, Note_on_c, 0, 65, 39
3, 20400, Note_on_c, 0, 57, 33
3, 20520, Note_on_c, 0, 57, 0
3, 20520, Note_on_c, 0, 65, 0
3, 20640, Note_on_c, 0, 50, 58
3, 20760, Note_on_c, 0, 50, 0
3, 20880, Note_on_c, 0, 65, 41
3, 20880, Note_on_c, 0, 56, 35
3, 21000, Note_on_c, 0, 56, 0
3, 21000, Note_on_c, 0, 65, 0
3, 21120, Note_on_c, 0, 48, 60
3, 21240, Note_on_c, 0, 48, 0
3, 21360, Note_on_c, 0, 65, 41
3, 21360, Note_on_c, 0, 57, 35
3, 21480, Note_on_c, 0, 57, 0
3, 21480, Note_on_c, 0, 65, 0
3, 21600, Note_on_c, 0, 48, 61
3, 21720, Note_on_c, 0, 48, 0
3, 21840, Note_on_c, 0, 64, 44
3, 21840, Note_on_c, 0, 57, 37
3, 21960, Note_on_c, 0, 57, 0
3, 21960, Note_on_c, 0, 64, 0
3, 22080, Note_on_c, 0, 47, 63
3, 22200, Note_on_c, 0, 47, 0
3, 22320, Note_on_c, 0, 62, 45
3, 22320, Note_on_c, 0, 53, 37
3, 22440, Note_on_c, 0, 53, 0
3, 22440, Note_on_c, 0, 62, 0
3, 22560, Note_on_c, 0, 40, 66
3, 22680, Note_on_c, 0, 40, 0
3, 22800, Note_on_c, 0, 62, 46
3, 22800, Note_on_c, 0, 59, 38
3, 22800, Note_on_c, 0, 52, 38
3, 22920, Note_on_c, 0, 52, 0
3, 22920, Note_on_c, 0, 59, 0
3, 22920, Note_on_c, 0, 62, 0
3, 23040, Note_on_c, 0, 45, 68
3, 23160, Note_on_c, 0, 45, 0
3, 23280, Note_on_c, 0, 60, 46
3, 23280, Note_on_c, 0, 52, 38
3, 23400, Note_on_c, 0, 52, 0
3, 23400, Note_on_c, 0, 60, 0
3, 23520, Note_on_c, 0, 47, 66
3, 23640, Note_on_c, 0, 47, 0
3, 23760, Note_on_c, 0, 56, 37
3, 23760, Note_on_c, 0, 62, 44
3, 23760, Note_on_c, 0, 52, 37
3, 23880, Note_on_c, 0, 52, 0
3, 23880, Note_on_c, 0, 62, 0
3, 23880, Note_on_c, 0, 56, 0
3, 24000, Note_on_c, 0, 48, 61
3, 24120, Note_on_c, 0, 48, 0
3, 24240, Note_on_c, 0, 57, 35
3, 24240, Note_on_c, 0, 64, 41
3, 24240, Note_on_c, 0, 52, 35
3, 24360, Note_on_c, 0, 52, 0
3, 24360, Note_on_c, 0, 64, 0
3, 24360, Note_on_c, 0, 57, 0
3, 24480, Note_on_c, 0, 45, 58
3, 24600, Note_on_c, 0, 45, 0
3, 24720, Note_on_c, 0, 60, 38
3, 24720, Note_on_c, 0, 52, 31
3, 24840, Note_on_c, 0, 52, 0
3, 24840, Note_on_c, 0, 60, 0
3, 24960, Note_on_c, 0, 40, 55
3, 25080, Note_on_c, 0, 40, 0
3, 25200, Note_on_c, 0, 62, 38
3, 25200, Note_on_c, 0, 52, 31
3, 25320, Note_on_c, 0, 52, 0
3, 25320, Note_on_c, 0, 62, 0
3, 25440, Note_on_c, 0, 45, 55
3, 25560, Note_on_c, 0, 45, 0
3, 25680, Note_on_c, 0, 60, 38
3, 25680, Note_on_c, 0, 52, 31
3, 25800, Note_on_c, 0, 52, 0
3, 25800, Note_on_c, 0, 60, 0
3, 25920, Note_on_c, 0, 47, 55
3, 26040, Note_on_c, 0, 47, 0
3, 26160, Note_on_c, 0, 52, 31
3, 26160, Note_on_c, 0, 62, 38
3, 26160, Note_on_c, 0, 56, 31
3, 26280, Note_on_c, 0, 56, 0
3, 26280, Note_on_c, 0, 62, 0
3, 26280, Note_on_c, 0, 52, 0
3, 26400, Note_on_c, 0, 45, 55
3, 26520, Note_on_c, 0, 45, 0
3, 26640, Note_on_c, 0, 52, 31
3, 26640, Note_on_c, 0, 60, 38
3, 26640, Note_on_c, 0, 57, 31
3, 26760, Note_on_c, 0, 57, 0
3, 26760, Note_on_c, 0, 60, 0
3, 26760, Note_on_c, 0, 52, 0
3, 26880, Note_on_c, 0, 40, 55
3, 27000, Note_on_c, 0, 40, 0
3, 27120, Note_on_c, 0, 52, 31
3, 27120, Note_on_c, 0, 62, 38
3, 27120, Note_on_c, 0, 56, 31
3, 27240, Note_on_c, 0, 56, 0
3, 27240, Note_on_c, 0, 62, 0
3, 27240, Note_on_c, 0, 52, 0
3, 27360, Note_on_c, 0, 45, 55
3, 27480, Note_on_c, 0, 45, 0
3, 27600, Note_on_c, 0, 52, 31
3, 27600, Note_on_c, 0, 60, 38
3, 27600, Note_on_c, 0, 57, 31
3, 27720, Note_on_c, 0, 57, 0
3, 27720, Note_on_c, 0, 60, 0
3, 27720, Note_on_c, 0, 52, 0
3, 27840, Note_on_c, 0, 47, 56
3, 27960, Note_on_c, 0, 47, 0
3, 28080, Note_on_c, 0, 52, 35
3, 28080, Note_on_c, 0, 62, 41
3, 28080, Note_on_c, 0, 56, 35
3, 28200, Note_on_c, 0, 56, 0
3, 28200, Note_on_c, 0, 62, 0
3, 28200, Note_on_c, 0, 52, 0
3, 28320, Note_on_c, 0, 45, 60
3, 28440, Note_on_c, 0, 45, 0
3, 28560, Note_on_c, 0, 57, 38
3, 28560, Note_on_c, 0, 60, 46
3, 28560, Note_on_c, 0, 52, 38
3, 28680, Note_on_c, 0, 52, 0
3, 28680, Note_on_c, 0, 60, 0
3, 28680, Note_on_c, 0, 57, 0
3, 28800, Note_on_c, 0, 43, 64
3, 28920, Note_on_c, 0, 43, 0
3, 29040, Note_on_c, 0, 64, 46
3, 29040, Note_on_c, 0, 55, 38
3, 29160, Note_on_c, 0, 55, 0
3, 29160, Note_on_c, 0, 64, 0
3, 29280, Note_on_c, 0, 45, 68
3, 29400, Note_on_c, 0, 45, 0
3, 29520, Note_on_c, 0, 64, 44
3, 29520, Note_on_c, 0, 57, 37
3, 29640, Note_on_c, 0, 57, 0
3, 29640, Note_on_c, 0, 64, 0
3, 29760, Note_on_c, 0, 47, 63
3, 29880, Note_on_c, 0, 47, 0
3, 30000, Note_on_c, 0, 64, 45
3, 30000, Note_on_c, 0, 59, 37
3, 30120, Note_on_c, 0, 59, 0
3, 30120, Note_on_c, 0, 64, 0
3, 30240, Note_on_c, 0, 47, 62
3, 30360, Note_on_c, 0, 47, 0
3, 30480, Note_on_c, 0, 63, 44
3, 30480, Note_on_c, 0, 59, 37
3, 30600, Note_on_c, 0, 59, 0
3, 30600, Note_on_c, 0, 63, 0
3, 30720, Note_on_c, 0, 52, 61
3, 30840, Note_on_c, 0, 52, 0
3, 30960, Note_on_c, 0, 64, 44
3, 30960, Note_on_c, 0, 59, 37
3, 31080, Note_on_c, 0, 59, 0
3, 31080, Note_on_c, 0, 64, 0
3, 31200, Note_on_c, 0, 45, 60
3, 31320, Note_on_c, 0, 45, 0
3, 31440, Note_on_c, 0, 64, 44
3, 31440, Note_on_c, 0, 57, 37
3, 31560, Note_on_c, 0, 57, 0
3, 31560, Note_on_c, 0, 64, 0
3, 31680, Note_on_c, 0, 52, 61
3, 31800, Note_on_c, 0, 52, 0
3, 31920, Note_on_c, 0, 64, 41
3, 31920, Note_on_c, 0, 59, 35
3, 32040, Note_on_c, 0, 59, 0
3, 32040, Note_on_c, 0, 64, 0
3, 32160, Note_on_c, 0, 45, 58
3, 32280, Note_on_c, 0, 45, 0
3, 32400, Note_on_c, 0, 64, 38
3, 32400, Note_on_c, 0, 57, 31
3, 32520, Note_on_c, 0, 57, 0
3, 32520, Note_on_c, 0, 64, 0
3, 32640, Note_on_c, 0, 43, 55
3, 32760, Note_on_c, 0, 43, 0
3, 32880, Note_on_c, 0, 64, 38
3, 32880, Note_on_c, 0, 55, 31
3, 33000, Note_on_c, 0, 55, 0
3, 33000, Note_on_c, 0, 64, 0
3, 33120, Note_on_c, 0, 45, 57
3, 33240, Note_on_c, 0, 45, 0
3, 33360, Note_on_c, 0, 64, 37
3, 33360, Note_on_c, 0, 57, 30
3, 33480, Note_on_c, 0, 57, 0
3, 33480, Note_on_c, 0, 64, 0
3, 33600, Note_on_c, 0, 47, 53
3, 33720, Note_on_c, 0, 47, 0
3, 33840, Note_on_c, 0, 64, 37
3, 33840, Note_on_c, 0, 59, 30
3, 33960, Note_on_c, 0, 59, 0
3, 33960, Note_on_c, 0, 64, 0
3, 34080, Note_on_c, 0, 47, 52
3, 34200, Note_on_c, 0, 47, 0
3, 34320, Note_on_c, 0, 63, 37
3, 34320, Note_on_c, 0, 59, 30
3, 34440, Note_on_c, 0, 59, 0
3, 34440, Note_on_c, 0, 63, 0
3, 34560, Note_on_c, 0, 52, 59
3, 34680, Note_on_c, 0, 52, 0
3, 34800, Note_on_c, 0, 55, 36
3, 34800, Note_on_c, 0, 64, 45
3, 34800, Note_on_c, 0, 59, 36
3, 34920, Note_on_c, 0, 59, 0
3, 34920, Note_on_c, 0, 64, 0
3, 34920, Note_on_c, 0, 55, 0
3, 35040, Note_on_c, 0, 51, 63
3, 35160, Note_on_c, 0, 51, 0
3, 35280, Note_on_c, 0, 59, 40
3, 35280, Note_on_c, 0, 64, 50
3, 35280, Note_on_c, 0, 55, 40
3, 35400, Note_on_c, 0, 55, 0
3, 35400, Note_on_c, 0, 64, 0
3, 35400, Note_on_c, 0, 59, 0
3, 35520, Note_on_c, 0, 50, 72
3, 35640, Note_on_c, 0, 50, 0
3, 35760, Note_on_c, 0, 56, 44
3, 35760, Note_on_c, 0, 65, 51
3, 35760, Note_on_c, 0, 59, 44
3, 35880, Note_on_c, 0, 59, 0
3, 35880, Note_on_c, 0, 65, 0
3, 35880, Note_on_c, 0, 56, 0
3, 36000, Note_on_c, 0, 49, 77
3, 36120, Note_on_c, 0, 49, 0
3, 36240, Note_on_c, 0, 56, 42
3, 36240, Note_on_c, 0, 65, 51
3, 36240, Note_on_c, 0, 59, 42
3, 36360, Note_on_c, 0, 59, 0
3, 36360, Note_on_c, 0, 65, 0
3, 36360, Note_on_c, 0, 56, 0
3, 36480, Note_on_c, 0, 48, 77
3, 36526, Control_c, 0, 64, 127
3, 36600, Note_on_c, 0, 48, 0
3, 36720, Note_on_c, 0, 65, 53
3, 36720, Note_on_c, 0, 57, 44
3, 36840, Note_on_c, 0, 57, 0
3, 36840, Note_on_c, 0, 65, 0
3, 36960, Note_on_c, 0, 48, 77
3, 37080, Note_on_c, 0, 48, 0
3, 37200, Note_on_c, 0, 65, 53
3, 37200, Note_on_c, 0, 56, 44
3, 37210, Control_c, 0, 64, 0
3, 37280, Control_c, 0, 64, 127
3, 37320, Note_on_c, 0, 56, 0
3, 37320, Note_on_c, 0, 65, 0
3, 37440, Note_on_c, 0, 48, 77
3, 37560, Note_on_c, 0, 48, 0
3, 37680, Note_on_c, 0, 55, 44
3, 37680, Note_on_c, 0, 64, 53
3, 37695, Control_c, 0, 64, 0
3, 37800, Note_on_c, 0, 64, 0
3, 37800, Note_on_c, 0, 55, 0
3, 37920, Note_on_c, 0, 48, 77
3, 38040, Note_on_c, 0, 48, 0
3, 38160, Note_on_c, 0, 55, 44
3, 38160, Note_on_c, 0, 60, 53
3, 38280, Note_on_c, 0, 60, 0
3, 38280, Note_on_c, 0, 55, 0
3, 38400, Note_on_c, 0, 48, 77
3, 38520, Note_on_c, 0, 48, 0
3, 38640, Note_on_c, 0, 55, 44
3, 38640, Note_on_c, 0, 64, 53
3, 38760, Note_on_c, 0, 64, 0
3, 38760, Note_on_c, 0, 55, 0
3, 38880, Note_on_c, 0, 48, 77
3, 39000, Note_on_c, 0, 48, 0
3, 39120, Note_on_c, 0, 55, 44
3, 39120, Note_on_c, 0, 60, 53
3, 39240, Note_on_c, 0, 60, 0
3, 39240, Note_on_c, 0, 55, 0
3, 39360, Note_on_c, 0, 48, 77
3, 39480, Note_on_c, 0, 48, 0
3, 39600, Note_on_c, 0, 55, 44
3, 39600, Note_on_c, 0, 64, 53
3, 39720, Note_on_c, 0, 64, 0
3, 39720, Note_on_c, 0, 55, 0
3, 39840, Note_on_c, 0, 53, 77
3, 39960, Note_on_c, 0, 53, 0
3, 40080, Note_on_c, 0, 57, 44
3, 40080, Note_on_c, 0, 65, 53
3, 40200, Note_on_c, 0, 65, 0
3, 40200, Note_on_c, 0, 57, 0
3, 40320, Control_c, 0, 64, 127
3, 40320, Note_on_c, 0, 44, 61
3, 40440, Note_on_c, 0, 44, 0
3, 40560, Note_on_c, 0, 61, 42
3, 40560, Note_on_c, 0, 53, 35
3, 40680, Note_on_c, 0, 53, 0
3, 40680, Note_on_c, 0, 61, 0
3, 40800, Note_on_c, 0, 44, 61
3, 40920, Note_on_c, 0, 44, 0
3, 41040, Note_on_c, 0, 61, 42
3, 41040, Note_on_c, 0, 52, 35
3, 41050, Control_c, 0, 64, 0
3, 41120, Control_c, 0, 64, 127
3, 41160, Note_on_c, 0, 52, 0
3, 41160, Note_on_c, 0, 61, 0
3, 41280, Note_on_c, 0, 44, 61
3, 41400, Note_on_c, 0, 44, 0
3, 41520, Note_on_c, 0, 51, 35
3, 41520, Note_on_c, 0, 60, 42
3, 41528, Control_c, 0, 64, 0
3, 41640, Note_on_c, 0, 60, 0
3, 41640, Note_on_c, 0, 51, 0
3, 41760, Note_on_c, 0, 44, 61
3, 41880, Note_on_c, 0, 44, 0
3, 42000, Note_on_c, 0, 51, 35
3, 42000, Note_on_c, 0, 56, 42
3, 42120, Note_on_c, 0, 56, 0
3, 42120, Note_on_c, 0, 51, 0
3, 42240, Note_on_c, 0, 44, 61
3, 42360, Note_on_c, 0, 44, 0
3, 42480, Note_on_c, 0, 51, 35
3, 42480, Note_on_c, 0, 60, 42
3, 42600, Note_on_c, 0, 60, 0
3, 42600, Note_on_c, 0, 51, 0
3, 42720, Note_on_c, 0, 44, 61
3, 42840, Note_on_c, 0, 44, 0
3, 42960, Note_on_c, 0, 51, 35
3, 42960, Note_on_c, 0, 56, 42
3, 43080, Note_on_c, 0, 56, 0
3, 43080, Note_on_c, 0, 51, 0
3, 43200, Note_on_c, 0, 44, 61
3, 43320, Note_on_c, 0, 44, 0
3, 43440, Note_on_c, 0, 51, 35
3, 43440, Note_on_c, 0, 60, 42
3, 43560, Note_on_c, 0, 60, 0
3, 43560, Note_on_c, 0, 51, 0
3, 43680, Note_on_c, 0, 44, 61
3, 43800, Note_on_c, 0, 44, 0
3, 43920, Note_on_c, 0, 53, 35
3, 43920, Note_on_c, 0, 61, 42
3, 44040, Note_on_c, 0, 61, 0
3, 44040, Note_on_c, 0, 53, 0
3, 44160, Note_on_c, 0, 44, 61
3, 44280, Note_on_c, 0, 44, 0
3, 44400, Note_on_c, 0, 51, 35
3, 44400, Note_on_c, 0, 60, 42
3, 44520, Note_on_c, 0, 60, 0
3, 44520, Note_on_c, 0, 51, 0
3, 44640, Note_on_c, 0, 44, 61
3, 44760, Note_on_c, 0, 44, 0
3, 44880, Note_on_c, 0, 49, 35
3, 44880, Note_on_c, 0, 58, 42
3, 45000, Note_on_c, 0, 58, 0
3, 45000, Note_on_c, 0, 49, 0
3, 45120, Note_on_c, 0, 44, 62
3, 45240, Note_on_c, 0, 44, 0
3, 45360, Note_on_c, 0, 48, 35
3, 45360, Note_on_c, 0, 56, 44
3, 45480, Note_on_c, 0, 56, 0
3, 45480, Note_on_c, 0, 48, 0
3, 45600, Note_on_c, 0, 44, 63
3, 45720, Note_on_c, 0, 44, 0
3, 45840, Note_on_c, 0, 54, 36
3, 45840, Note_on_c, 0, 63, 44
3, 45960, Note_on_c, 0, 63, 0
3, 45960, Note_on_c, 0, 54, 0
3, 46080, Note_on_c, 0, 44, 64
3, 46200, Note_on_c, 0, 44, 0
3, 46320, Note_on_c, 0, 53, 37
3, 46320, Note_on_c, 0, 61, 45
3, 46440, Note_on_c, 0, 61, 0
3, 46440, Note_on_c, 0, 53, 0
3, 46560, Note_on_c, 0, 44, 64
3, 46680, Note_on_c, 0, 44, 0
3, 46800, Note_on_c, 0, 49, 37
3, 46800, Note_on_c, 0, 58, 46
3, 46920, Note_on_c, 0, 58, 0
3, 46920, Note_on_c, 0, 49, 0
3, 47040, Note_on_c, 0, 44, 67
3, 47160, Note_on_c, 0, 44, 0
3, 47280, Note_on_c, 0, 53, 38
3, 47280, Note_on_c, 0, 61, 46
3, 47400, Note_on_c, 0, 61, 0
3, 47400, Note_on_c, 0, 53, 0
3, 47520, Note_on_c, 0, 44, 67
3, 47640, Note_on_c, 0, 44, 0
3, 47760, Note_on_c, 0, 51, 38
3, 47760, Note_on_c, 0, 60, 47
3, 47880, Note_on_c, 0, 60, 0
3, 47880, Note_on_c, 0, 51, 0
3, 48000, Note_on_c, 0, 44, 68
3, 48120, Note_on_c, 0, 44, 0
3, 48240, Note_on_c, 0, 54, 39
3, 48240, Note_on_c, 0, 63, 48
3, 48360, Note_on_c, 0, 63, 0
3, 48360, Note_on_c, 0, 54, 0
3, 48480, Note_on_c, 0, 44, 69
3, 48600, Note_on_c, 0, 44, 0
3, 48720, Note_on_c, 0, 53, 39
3, 48720, Note_on_c, 0, 61, 48
3, 48840, Note_on_c, 0, 61, 0
3, 48840, Note_on_c, 0, 53, 0
3, 48960, Note_on_c, 0, 44, 70
3, 49080, Note_on_c, 0, 44, 0
3, 49200, Note_on_c, 0, 51, 40
3, 49200, Note_on_c, 0, 60, 49
3, 49320, Note_on_c, 0, 60, 0
3, 49320, Note_on_c, 0, 51, 0
3, 49440, Note_on_c, 0, 45, 71
3, 49497, Control_c, 0, 64, 127
3, 49560, Note_on_c, 0, 45, 0
3, 49680, Note_on_c, 0, 54, 40
3, 49680, Note_on_c, 0, 65, 49
3, 49800, Note_on_c, 0, 65, 0
3, 49800, Note_on_c, 0, 54, 0
3, 49920, Note_on_c, 0, 44, 72
3, 50040, Note_on_c, 0, 44, 0
3, 50160, Note_on_c, 0, 54, 41
3, 50160, Note_on_c, 0, 63, 50
3, 50171, Control_c, 0, 64, 0
3, 50280, Note_on_c, 0, 63, 0
3, 50280, Note_on_c, 0, 54, 0
3, 50400, Note_on_c, 0, 44, 73
3, 50520, Note_on_c, 0, 44, 0
3, 50640, Note_on_c, 0, 54, 41
3, 50640, Note_on_c, 0, 60, 51
3, 50760, Note_on_c, 0, 60, 0
3, 50760, Note_on_c, 0, 54, 0
3, 50880, Note_on_c, 0, 46, 73
3, 51000, Note_on_c, 0, 46, 0
3, 51120, Note_on_c, 0, 54, 42
3, 51120, Note_on_c, 0, 63, 51
3, 51240, Note_on_c, 0, 63, 0
3, 51240, Note_on_c, 0, 54, 0
3, 51360, Note_on_c, 0, 46, 74
3, 51480, Note_on_c, 0, 46, 0
3, 51600, Note_on_c, 0, 53, 42
3, 51600, Note_on_c, 0, 62, 52
3, 51720, Note_on_c, 0, 62, 0
3, 51720, Note_on_c, 0, 53, 0
3, 51840, Note_on_c, 0, 47, 77
3, 51960, Note_on_c, 0, 47, 0
3, 52080, Note_on_c, 0, 65, 53
3, 52080, Note_on_c, 0, 56, 44
3, 52200, Note_on_c, 0, 56, 0
3, 52200, Note_on_c, 0, 65, 0
3, 52320, Note_on_c, 0, 47, 77
3, 52440, Note_on_c, 0, 47, 0
3, 52560, Note_on_c, 0, 65, 53
3, 52560, Note_on_c, 0, 55, 44
3, 52680, Note_on_c, 0, 55, 0
3, 52680, Note_on_c, 0, 65, 0
3, 52800, Note_on_c, 0, 48, 77
3, 52920, Note_on_c, 0, 48, 0
3, 53040, Note_on_c, 0, 55, 44
3, 53040, Note_on_c, 0, 60, 53
3, 53160, Note_on_c, 0, 60, 0
3, 53160, Note_on_c, 0, 55, 0
3, 53280, Note_on_c, 0, 41, 77
3, 53400, Note_on_c, 0, 41, 0
3, 53520, Note_on_c, 0, 53, 44
3, 53520, Note_on_c, 0, 60, 53
3, 53640, Note_on_c, 0, 60, 0
3, 53640, Note_on_c, 0, 53, 0
3, 53760, Note_on_c, 0, 47, 77
3, 53880, Note_on_c, 0, 47, 0
3, 54000, Note_on_c, 0, 65, 53
3, 54000, Note_on_c, 0, 56, 44
3, 54120, Note_on_c, 0, 56, 0
3, 54120, Note_on_c, 0, 65, 0
3, 54240, Note_on_c, 0, 47, 77
3, 54360, Note_on_c, 0, 47, 0
3, 54480, Note_on_c, 0, 65, 53
3, 54480, Note_on_c, 0, 55, 44
3, 54600, Note_on_c, 0, 55, 0
3, 54600, Note_on_c, 0, 65, 0
3, 54720, Note_on_c, 0, 48, 77
3, 54840, Note_on_c, 0, 48, 0
3, 54960, Note_on_c, 0, 55, 44
3, 54960, Note_on_c, 0, 60, 53
3, 55080, Note_on_c, 0, 60, 0
3, 55080, Note_on_c, 0, 55, 0
3, 55200, Note_on_c, 0, 41, 77
3, 55320, Note_on_c, 0, 41, 0
3, 55440, Note_on_c, 0, 53, 44
3, 55440, Note_on_c, 0, 60, 53
3, 55560, Note_on_c, 0, 60, 0
3, 55560, Note_on_c, 0, 53, 0
3, 55680, Note_on_c, 0, 39, 69
3, 55800, Note_on_c, 0, 39, 0
3, 55920, Note_on_c, 0, 60, 48
3, 55920, Note_on_c, 0, 51, 39
3, 56040, Note_on_c, 0, 51, 0
3, 56040, Note_on_c, 0, 60, 0
3, 56160, Note_on_c, 0, 41, 69
3, 56280, Note_on_c, 0, 41, 0
3, 56400, Note_on_c, 0, 60, 48
3, 56400, Note_on_c, 0, 53, 39
3, 56520, Note_on_c, 0, 53, 0
3, 56520, Note_on_c, 0, 60, 0
3, 56640, Note_on_c, 0, 43, 69
3, 56760, Note_on_c, 0, 43, 0
3, 56880, Note_on_c, 0, 55, 39
3, 56880, Note_on_c, 0, 60, 48
3, 57000, Note_on_c, 0, 60, 0
3, 57000, Note_on_c, 0, 55, 0
3, 57120, Note_on_c, 0, 43, 69
3, 57240, Note_on_c, 0, 43, 0
3, 57360, Note_on_c, 0, 55, 39
3, 57360, Note_on_c, 0, 59, 48
3, 57480, Note_on_c, 0, 59, 0
3, 57480, Note_on_c, 0, 55, 0
3, 57600, Note_on_c, 0, 48, 61
3, 57720, Note_on_c, 0, 48, 0
3, 57840, Note_on_c, 0, 60, 42
3, 57840, Note_on_c, 0, 55, 35
3, 57960, Note_on_c, 0, 55, 0
3, 57960, Note_on_c, 0, 60, 0
3, 58080, Note_on_c, 0, 41, 61
3, 58200, Note_on_c, 0, 41, 0
3, 58320, Note_on_c, 0, 60, 42
3, 58320, Note_on_c, 0, 53, 35
3, 58440, Note_on_c, 0, 53, 0
3, 58440, Note_on_c, 0, 60, 0
3, 58560, Note_on_c, 0, 48, 61
3, 58680, Note_on_c, 0, 48, 0
3, 58800, Note_on_c, 0, 55, 35
3, 58800, Note_on_c, 0, 60, 42
3, 58920, Note_on_c, 0, 60, 0
3, 58920, Note_on_c, 0, 55, 0
3, 59040, Note_on_c, 0, 41, 61
3, 59160, Note_on_c, 0, 41, 0
3, 59280, Note_on_c, 0, 53, 35
3, 59280, Note_on_c, 0, 60, 42
3, 59400, Note_on_c, 0, 60, 0
3, 59400, Note_on_c, 0, 53, 0
3, 59520, Note_on_c, 0, 39, 55
3, 59640, Note_on_c, 0, 39, 0
3, 59760, Control_c, 0, 64, 127
3, 59760, Note_on_c, 0, 60, 34
3, 59760, Note_on_c, 0, 51, 27
3, 59880, Note_on_c, 0, 51, 0
3, 59880, Note_on_c, 0, 60, 0
3, 60000, Note_on_c, 0, 41, 49
3, 60120, Note_on_c, 0, 41, 0
3, 60240, Note_on_c, 0, 53, 27
3, 60240, Note_on_c, 0, 60, 34
3, 60246, Control_c, 0, 64, 0
3, 60314, Control_c, 0, 64, 127
3, 60360, Note_on_c, 0, 60, 0
3, 60360, Note_on_c, 0, 53, 0
3, 60480, Note_on_c, 0, 43, 49
3, 60600, Note_on_c, 0, 43, 0
3, 60720, Note_on_c, 0, 60, 34
3, 60720, Note_on_c, 0, 55, 27
3, 60737, Control_c, 0, 64, 0
3, 60829, Control_c, 0, 64, 127
3, 60840, Note_on_c, 0, 55, 0
3, 60840, Note_on_c, 0, 60, 0
3, 60960, Note_on_c, 0, 43, 49
3, 61080, Note_on_c, 0, 43, 0
3, 61200, Note_on_c, 0, 59, 34
3, 61200, Note_on_c, 0, 55, 27
3, 61214, Control_c, 0, 64, 0
3, 61320, Note_on_c, 0, 55, 0
3, 61320, Note_on_c, 0, 59, 0
3, 61343, Control_c, 0, 64, 127
3, 61440, Note_on_c, 0, 48, 42
3, 61560, Note_on_c, 0, 48, 0
3, 61680, Control_c, 0, 64, 0
3, 61680, Note_on_c, 0, 60, 29
3, 61680, Note_on_c, 0, 55, 24
3, 61751, Control_c, 0, 64, 127
3, 61800, Note_on_c, 0, 55, 0
3, 61800, Note_on_c, 0, 60, 0
3, 61920, Note_on_c, 0, 41, 39
3, 62040, Note_on_c, 0, 41, 0
3, 62160, Control_c, 0, 64, 0
3, 62160, Note_on_c, 0, 60, 34
3, 62160, Note_on_c, 0, 53, 27
3, 62280, Note_on_c, 0, 53, 0
3, 62280, Note_on_c, 0, 60, 0
3, 62400, Note_on_c, 0, 48, 41
3, 62520, Note_on_c, 0, 48, 0
3, 62640, Note_on_c, 0, 55, 27
3, 62640, Note_on_c, 0, 60, 34
3, 62760, Note_on_c, 0, 60, 0
3, 62760, Note_on_c, 0, 55, 0
3, 62880, Note_on_c, 0, 41, 42
3, 63000, Note_on_c, 0, 41, 0
3, 63120, Note_on_c, 0, 53, 27
3, 63120, Note_on_c, 0, 60, 34
3, 63240, Note_on_c, 0, 60, 0
3, 63240, Note_on_c, 0, 53, 0
3, 63360, Note_on_c, 0, 39, 58
3, 63411, Control_c, 0, 64, 127
3, 63480, Note_on_c, 0, 39, 0
3, 63600, Note_on_c, 0, 60, 44
3, 63600, Note_on_c, 0, 51, 35
3, 63606, Control_c, 0, 64, 0
3, 63691, Control_c, 0, 64, 127
3, 63720, Note_on_c, 0, 51, 0
3, 63720, Note_on_c, 0, 60, 0
3, 63840, Note_on_c, 0, 41, 64
3, 63960, Note_on_c, 0, 41, 0
3, 64080, Note_on_c, 0, 60, 46
3, 64080, Note_on_c, 0, 53, 36
3, 64097, Control_c, 0, 64, 0
3, 64189, Control_c, 0, 64, 127
3, 64200, Note_on_c, 0, 53, 0
3, 64200, Note_on_c, 0, 60, 0
3, 64320, Note_on_c, 0, 44, 68
3, 64440, Note_on_c, 0, 44, 0
3, 64560, Note_on_c, 0, 60, 37
3, 64560, Note_on_c, 0, 56, 37
3, 64560, Note_on_c, 0, 65, 47
3, 64570, Control_c, 0, 64, 0
3, 64669, Control_c, 0, 64, 127
3, 64680, Note_on_c, 0, 65, 0
3, 64680, Note_on_c, 0, 56, 0
3, 64680, Note_on_c, 0, 60, 0
3, 64800, Note_on_c, 0, 43, 70
3, 64920, Note_on_c, 0, 43, 0
3, 65040, Note_on_c, 0, 62, 39
3, 65040, Note_on_c, 0, 55, 39
3, 65040, Note_on_c, 0, 67, 49
3, 65061, Control_c, 0, 64, 0
3, 65137, Control_c, 0, 64, 127
3, 65160, Note_on_c, 0, 67, 0
3, 65160, Note_on_c, 0, 55, 0
3, 65160, Note_on_c, 0, 62, 0
3, 65280, Control_c, 0, 64, 0
3, 65280, Note_on_c, 0, 48, 71
3, 65372, Control_c, 0, 64, 127
3, 65400, Note_on_c, 0, 48, 0
3, 65520, Note_on_c, 0, 67, 42
3, 65520, Note_on_c, 0, 60, 34
3, 65640, Note_on_c, 0, 60, 0
3, 65640, Note_on_c, 0, 67, 0
3, 65760, Note_on_c, 0, 53, 60
3, 65880, Note_on_c, 0, 53, 0
3, 66000, Note_on_c, 0, 65, 40
3, 66000, Note_on_c, 0, 60, 33
3, 66015, Control_c, 0, 64, 0
3, 66080, Control_c, 0, 64, 127
3, 66120, Note_on_c, 0, 60, 0
3, 66120, Note_on_c, 0, 65, 0
3, 66240, Note_on_c, 0, 55, 57
3, 66360, Note_on_c, 0, 55, 0
3, 66480, Note_on_c, 0, 60, 30
3, 66480, Note_on_c, 0, 63, 38
3, 66488, Control_c, 0, 64, 0
3, 66577, Control_c, 0, 64, 127
3, 66600, Note_on_c, 0, 63, 0
3, 66600, Note_on_c, 0, 60, 0
3, 66720, Note_on_c, 0, 43, 55
3, 66840, Note_on_c, 0, 43, 0
3, 66960, Note_on_c, 0, 55, 27
3, 66960, Note_on_c, 0, 62, 35
3, 66972, Control_c, 0, 64, 0
3, 67080, Note_on_c, 0, 62, 0
3, 67080, Note_on_c, 0, 55, 0
3, 67200, Note_on_c, 0, 48, 49
3, 67320, Note_on_c, 0, 48, 0
3, 67440, Note_on_c, 0, 55, 27
3, 67440, Note_on_c, 0, 60, 34
3, 67560, Note_on_c, 0, 60, 0
3, 67560, Note_on_c, 0, 55, 0
3, 67680, Note_on_c, 0, 47, 49
3, 67800, Note_on_c, 0, 47, 0
3, 67920, Note_on_c, 0, 56, 27
3, 67920, Note_on_c, 0, 61, 34
3, 68040, Note_on_c, 0, 61, 0
3, 68040, Note_on_c, 0, 56, 0
3, 68160, Note_on_c, 0, 48, 49
3, 68280, Note_on_c, 0, 48, 0
3, 68400, Note_on_c, 0, 55, 27
3, 68400, Note_on_c, 0, 60, 35
3, 68520, Note_on_c, 0, 60, 0
3, 68520, Note_on_c, 0, 55, 0
3, 68640, Note_on_c, 0, 47, 50
3, 68760, Note_on_c, 0, 47, 0
3, 68880, Note_on_c, 0, 56, 28
3, 68880, Note_on_c, 0, 62, 35
3, 69000, Note_on_c, 0, 62, 0
3, 69000, Note_on_c, 0, 56, 0
3, 69120, Note_on_c, 0, 48, 51
3, 69240, Note_on_c, 0, 48, 0
3, 69360, Note_on_c, 0, 55, 29
3, 69360, Note_on_c, 0, 60, 35
3, 69480, Note_on_c, 0, 60, 0
3, 69480, Note_on_c, 0, 55, 0
3, 69600, Note_on_c, 0, 47, 51
3, 69720, Note_on_c, 0, 47, 0
3, 69840, Note_on_c, 0, 56, 29
3, 69840, Note_on_c, 0, 61, 36
3, 69960, Note_on_c, 0, 61, 0
3, 69960, Note_on_c, 0, 56, 0
3, 70080, Note_on_c, 0, 48, 52
3, 70200, Note_on_c, 0, 48, 0
3, 70320, Note_on_c, 0, 55, 29
3, 70320, Note_on_c, 0, 60, 36
3, 70440, Note_on_c, 0, 60, 0
3, 70440, Note_on_c, 0, 55, 0
3, 70560, Note_on_c, 0, 47, 52
3, 70680, Note_on_c, 0, 47, 0
3, 70800, Note_on_c, 0, 56, 29
3, 70800, Note_on_c, 0, 62, 37
3, 70920, Note_on_c, 0, 62, 0
3, 70920, Note_on_c, 0, 56, 0
3, 71040, Note_on_c, 0, 48, 53
3, 71160, Note_on_c, 0, 48, 0
3, 71280, Note_on_c, 0, 55, 29
3, 71280, Note_on_c, 0, 60, 37
3, 71400, Note_on_c, 0, 60, 0
3, 71400, Note_on_c, 0, 55, 0
3, 71520, Note_on_c, 0, 47, 52
3, 71640, Note_on_c, 0, 47, 0
3, 71760, Note_on_c, 0, 56, 29
3, 71760, Note_on_c, 0, 62, 36
3, 71880, Note_on_c, 0, 62, 0
3, 71880, Note_on_c, 0, 56, 0
3, 72000, Note_on_c, 0, 48, 52
3, 72120, Note_on_c, 0, 48, 0
3, 72240, Note_on_c, 0, 55, 29
3, 72240, Note_on_c, 0, 60, 36
3, 72360, Note_on_c, 0, 60, 0
3, 72360, Note_on_c, 0, 55, 0
3, 72480, Note_on_c, 0, 47, 51
3, 72600, Note_on_c, 0, 47, 0
3, 72720, Note_on_c, 0, 56, 29
3, 72720, Note_on_c, 0, 61, 35
3, 72840, Note_on_c, 0, 61, 0
3, 72840, Note_on_c, 0, 56, 0
3, 72960, Note_on_c, 0, 48, 51
3, 73080, Note_on_c, 0, 48, 0
3, 73200, Note_on_c, 0, 55, 29
3, 73200, Note_on_c, 0, 60, 35
3, 73320, Note_on_c, 0, 60, 0
3, 73320, Note_on_c, 0, 55, 0
3, 73440, Note_on_c, 0, 47, 50
3, 73560, Note_on_c, 0, 47, 0
3, 73680, Note_on_c, 0, 56, 28
3, 73680, Note_on_c, 0, 62, 35
3, 73800, Note_on_c, 0, 62, 0
3, 73800, Note_on_c, 0, 56, 0
3, 73920, Note_on_c, 0, 47, 49
3, 74040, Note_on_c, 0, 47, 0
3, 74160, Note_on_c, 0, 57, 28
3, 74160, Note_on_c, 0, 63, 34
3, 74280, Note_on_c, 0, 63, 0
3, 74280, Note_on_c, 0, 57, 0
3, 74400, Note_on_c, 0, 40, 49
3, 74417, Control_c, 0, 64, 127
3, 74520, Note_on_c, 0, 40, 0
3, 74640, Note_on_c, 0, 59, 27
3, 74640, Note_on_c, 0, 52, 27
3, 74640, Note_on_c, 0, 62, 34
3, 74760, Note_on_c, 0, 62, 0
3, 74760, Note_on_c, 0, 52, 0
3, 74760, Note_on_c, 0, 59, 0
3, 74880, Control_c, 0, 64, 0
3, 74880, Note_on_c, 0, 45, 55
3, 75000, Note_on_c, 0, 45, 0
3, 75120, Note_on_c, 0, 60, 38
3, 75120, Note_on_c, 0, 52, 30
3, 75240, Note_on_c, 0, 52, 0
3, 75240, Note_on_c, 0, 60, 0
3, 75360, Note_on_c, 0, 48, 64
3, 75480, Note_on_c, 0, 48, 0
3, 75600, Note_on_c, 0, 64, 45
3, 75600, Note_on_c, 0, 57, 37
3, 75720, Note_on_c, 0, 57, 0
3, 75720, Note_on_c, 0, 64, 0
3, 75840, Note_on_c, 0, 47, 64
3, 75960, Note_on_c, 0, 47, 0
3, 76080, Note_on_c, 0, 53, 37
3, 76080, Note_on_c, 0, 62, 45
3, 76200, Note_on_c, 0, 62, 0
3, 76200, Note_on_c, 0, 53, 0
3, 76320, Note_on_c, 0, 52, 64
3, 76440, Note_on_c, 0, 52, 0
3, 76560, Note_on_c, 0, 59, 37
3, 76560, Note_on_c, 0, 64, 45
3, 76680, Note_on_c, 0, 64, 0
3, 76680, Note_on_c, 0, 59, 0
3, 76800, Note_on_c, 0, 48, 55
3, 76920, Note_on_c, 0, 48, 0
3, 77040, Note_on_c, 0, 64, 38
3, 77040, Note_on_c, 0, 57, 30
3, 77160, Note_on_c, 0, 57, 0
3, 77160, Note_on_c, 0, 64, 0
3, 77280, Note_on_c, 0, 45, 64
3, 77400, Note_on_c, 0, 45, 0
3, 77520, Note_on_c, 0, 57, 37
3, 77520, Note_on_c, 0, 64, 45
3, 77640, Note_on_c, 0, 64, 0
3, 77640, Note_on_c, 0, 57, 0
3, 77760, Note_on_c, 0, 50, 64
3, 77880, Note_on_c, 0, 50, 0
3, 78000, Note_on_c, 0, 57, 37
3, 78000, Note_on_c, 0, 65, 45
3, 78120, Note_on_c, 0, 65, 0
3, 78120, Note_on_c, 0, 57, 0
3, 78240, Note_on_c, 0, 50, 64
3, 78360, Note_on_c, 0, 50, 0
3, 78480, Note_on_c, 0, 65, 45
3, 78480, Note_on_c, 0, 56, 37
3, 78600, Note_on_c, 0, 56, 0
3, 78600, Note_on_c, 0, 65, 0
3, 78720, Note_on_c, 0, 48, 55
3, 78840, Note_on_c, 0, 48, 0
3, 78960, Note_on_c, 0, 65, 38
3, 78960, Note_on_c, 0, 57, 31
3, 79080, Note_on_c, 0, 57, 0
3, 79080, Note_on_c, 0, 65, 0
3, 79200, Note_on_c, 0, 48, 61
3, 79320, Note_on_c, 0, 48, 0
3, 79440, Note_on_c, 0, 64, 44
3, 79440, Note_on_c, 0, 57, 37
3, 79560, Note_on_c, 0, 57, 0
3, 79560, Note_on_c, 0, 64, 0
3, 79680, Note_on_c, 0, 47, 63
3, 79800, Note_on_c, 0, 47, 0
3, 79920, Note_on_c, 0, 62, 45
3, 79920, Note_on_c, 0, 53, 37
3, 80040, Note_on_c, 0, 53, 0
3, 80040, Note_on_c, 0, 62, 0
3, 80160, Note_on_c, 0, 40, 66
3, 80280, Note_on_c, 0, 40, 0
3, 80400, Note_on_c, 0, 62, 46
3, 80400, Note_on_c, 0, 59, 38
3, 80400, Note_on_c, 0, 52, 38
3, 80520, Note_on_c, 0, 52, 0
3, 80520, Note_on_c, 0, 59, 0
3, 80520, Note_on_c, 0, 62, 0
3, 80640, Note_on_c, 0, 45, 68
3, 80760, Note_on_c, 0, 45, 0
3, 80880, Note_on_c, 0, 60, 46
3, 80880, Note_on_c, 0, 52, 38
3, 81000, Note_on_c, 0, 52, 0
3, 81000, Note_on_c, 0, 60, 0
3, 81120, Note_on_c, 0, 47, 66
3, 81240, Note_on_c, 0, 47, 0
3, 81360, Note_on_c, 0, 62, 44
3, 81360, Note_on_c, 0, 52, 37
3, 81480, Note_on_c, 0, 52, 0
3, 81480, Note_on_c, 0, 62, 0
3, 81600, Note_on_c, 0, 48, 61
3, 81720, Note_on_c, 0, 48, 0
3, 81840, Note_on_c, 0, 64, 41
3, 81840, Note_on_c, 0, 52, 35
3, 81960, Note_on_c, 0, 52, 0
3, 81960, Note_on_c, 0, 64, 0
3, 82080, Note_on_c, 0, 45, 58
3, 82200, Note_on_c, 0, 45, 0
3, 82320, Note_on_c, 0, 60, 38
3, 82320, Note_on_c, 0, 52, 31
3, 82440, Note_on_c, 0, 52, 0
3, 82440, Note_on_c, 0, 60, 0
3, 82560, Note_on_c, 0, 40, 55
3, 82680, Note_on_c, 0, 40, 0
3, 82800, Note_on_c, 0, 62, 38
3, 82800, Note_on_c, 0, 52, 31
3, 82920, Note_on_c, 0, 52, 0
3, 82920, Note_on_c, 0, 62, 0
3, 83040, Note_on_c, 0, 45, 55
3, 83160, Note_on_c, 0, 45, 0
3, 83280, Note_on_c, 0, 60, 38
3, 83280, Note_on_c, 0, 52, 31
3, 83400, Note_on_c, 0, 52, 0
3, 83400, Note_on_c, 0, 60, 0
3, 83520, Note_on_c, 0, 47, 55
3, 83640, Note_on_c, 0, 47, 0
3, 83760, Note_on_c, 0, 52, 31
3, 83760, Note_on_c, 0, 62, 38
3, 83760, Note_on_c, 0, 56, 31
3, 83880, Note_on_c, 0, 56, 0
3, 83880, Note_on_c, 0, 62, 0
3, 83880, Note_on_c, 0, 52, 0
3, 84000, Note_on_c, 0, 45, 55
3, 84120, Note_on_c, 0, 45, 0
3, 84240, Note_on_c, 0, 52, 31
3, 84240, Note_on_c, 0, 60, 38
3, 84240, Note_on_c, 0, 57, 31
3, 84360, Note_on_c, 0, 57, 0
3, 84360, Note_on_c, 0, 60, 0
3, 84360, Note_on_c, 0, 52, 0
3, 84480, Note_on_c, 0, 40, 55
3, 84600, Note_on_c, 0, 40, 0
3, 84720, Note_on_c, 0, 52, 31
3, 84720, Note_on_c, 0, 62, 38
3, 84720, Note_on_c, 0, 56, 31
3, 84840, Note_on_c, 0, 56, 0
3, 84840, Note_on_c, 0, 62, 0
3, 84840, Note_on_c, 0, 52, 0
3, 84960, Note_on_c, 0, 45, 55
3, 85080, Note_on_c, 0, 45, 0
3, 85200, Note_on_c, 0, 52, 31
3, 85200, Note_on_c, 0, 60, 38
3, 85200, Note_on_c, 0, 57, 31
3, 85320, Note_on_c, 0, 57, 0
3, 85320, Note_on_c, 0, 60, 0
3, 85320, Note_on_c, 0, 52, 0
3, 85440, Note_on_c, 0, 47, 56
3, 85560, Note_on_c, 0, 47, 0
3, 85680, Note_on_c, 0, 52, 35
3, 85680, Note_on_c, 0, 62, 41
3, 85680, Note_on_c, 0, 56, 35
3, 85800, Note_on_c, 0, 56, 0
3, 85800, Note_on_c, 0, 62, 0
3, 85800, Note_on_c, 0, 52, 0
3, 85920, Note_on_c, 0, 45, 60
3, 86040, Note_on_c, 0, 45, 0
3, 86160, Note_on_c, 0, 57, 38
3, 86160, Note_on_c, 0, 60, 46
3, 86160, Note_on_c, 0, 52, 38
3, 86280, Note_on_c, 0, 52, 0
3, 86280, Note_on_c, 0, 60, 0
3, 86280, Note_on_c, 0, 57, 0
3, 86400, Note_on_c, 0, 43, 64
3, 86520, Note_on_c, 0, 43, 0
3, 86640, Note_on_c, 0, 64, 46
3, 86640, Note_on_c, 0, 55, 38
3, 86760, Note_on_c, 0, 55, 0
3, 86760, Note_on_c, 0, 64, 0
3, 86880, Note_on_c, 0, 45, 68
3, 87000, Note_on_c, 0, 45, 0
3, 87120, Note_on_c, 0, 64, 44
3, 87120, Note_on_c, 0, 57, 37
3, 87240, Note_on_c, 0, 57, 0
3, 87240, Note_on_c, 0, 64, 0
3, 87360, Note_on_c, 0, 47, 63
3, 87480, Note_on_c, 0, 47, 0
3, 87600, Note_on_c, 0, 64, 45
3, 87600, Note_on_c, 0, 59, 37
3, 87720, Note_on_c, 0, 59, 0
3, 87720, Note_on_c, 0, 64, 0
3, 87840, Note_on_c, 0, 47, 62
3, 87960, Note_on_c, 0, 47, 0
3, 88080, Note_on_c, 0, 63, 44
3, 88080, Note_on_c, 0, 59, 37
3, 88200, Note_on_c, 0, 59, 0
3, 88200, Note_on_c, 0, 63, 0
3, 88320, Note_on_c, 0, 52, 61
3, 88440, Note_on_c, 0, 52, 0
3, 88560, Note_on_c, 0, 64, 44
3, 88560, Note_on_c, 0, 59, 37
3, 88680, Note_on_c, 0, 59, 0
3, 88680, Note_on_c, 0, 64, 0
3, 88800, Note_on_c, 0, 51, 60
3, 88920, Note_on_c, 0, 51, 0
3, 89040, Note_on_c, 0, 66, 44
3, 89040, Note_on_c, 0, 60, 37
3, 89160, Note_on_c, 0, 60, 0
3, 89160, Note_on_c, 0, 66, 0
3, 89280, Note_on_c, 0, 50, 61
3, 89400, Note_on_c, 0, 50, 0
3, 89520, Note_on_c, 0, 65, 41
3, 89520, Note_on_c, 0, 59, 35
3, 89640, Note_on_c, 0, 59, 0
3, 89640, Note_on_c, 0, 65, 0
3, 89760, Note_on_c, 0, 40, 58
3, 89789, Control_c, 0, 64, 127
3, 89880, Note_on_c, 0, 40, 0
3, 90000, Note_on_c, 0, 64, 38
3, 90000, Note_on_c, 0, 59, 31
3, 90120, Note_on_c, 0, 59, 0
3, 90120, Note_on_c, 0, 64, 0
3, 90240, Note_on_c, 0, 45, 55
3, 90280, Control_c, 0, 64, 0
3, 90360, Note_on_c, 0, 45, 0
3, 90480, Note_on_c, 0, 64, 38
3, 90480, Note_on_c, 0, 57, 31
3, 90600, Note_on_c, 0, 57, 0
3, 90600, Note_on_c, 0, 64, 0
3, 90720, Note_on_c, 0, 48, 55
3, 90840, Note_on_c, 0, 48, 0
3, 90960, Note_on_c, 0, 64, 38
3, 90960, Note_on_c, 0, 57, 31
3, 91080, Note_on_c, 0, 57, 0
3, 91080, Note_on_c, 0, 64, 0
3, 91200, Note_on_c, 0, 47, 55
3, 91320, Note_on_c, 0, 47, 0
3, 91440, Note_on_c, 0, 62, 38
3, 91440, Note_on_c, 0, 53, 31
3, 91560, Note_on_c, 0, 53, 0
3, 91560, Note_on_c, 0, 62, 0
3, 91680, Note_on_c, 0, 52, 55
3, 91800, Note_on_c, 0, 52, 0
3, 91920, Note_on_c, 0, 64, 38
3, 91920, Note_on_c, 0, 59, 31
3, 92040, Note_on_c, 0, 59, 0
3, 92040, Note_on_c, 0, 64, 0
3, 92160, Note_on_c, 0, 48, 55
3, 92280, Note_on_c, 0, 48, 0
3, 92400, Note_on_c, 0, 64, 38
3, 92400, Note_on_c, 0, 57, 31
3, 92520, Note_on_c, 0, 57, 0
3, 92520, Note_on_c, 0, 64, 0
3, 92640, Note_on_c, 0, 45, 55
3, 92760, Note_on_c, 0, 45, 0
3, 92880, Note_on_c, 0, 64, 38
3, 92880, Note_on_c, 0, 57, 31
3, 93000, Note_on_c, 0, 57, 0
3, 93000, Note_on_c, 0, 64, 0
3, 93120, Note_on_c, 0, 50, 56
3, 93240, Note_on_c, 0, 50, 0
3, 93360, Note_on_c, 0, 65, 39
3, 93360, Note_on_c, 0, 57, 33
3, 93480, Note_on_c, 0, 57, 0
3, 93480, Note_on_c, 0, 65, 0
3, 93600, Note_on_c, 0, 50, 58
3, 93720, Note_on_c, 0, 50, 0
3, 93840, Note_on_c, 0, 65, 41
3, 93840, Note_on_c, 0, 56, 35
3, 93960, Note_on_c, 0, 56, 0
3, 93960, Note_on_c, 0, 65, 0
3, 94080, Note_on_c, 0, 48, 60
3, 94200, Note_on_c, 0, 48, 0
3, 94320, Note_on_c, 0, 65, 41
3, 94320, Note_on_c, 0, 57, 35
3, 94440, Note_on_c, 0, 57, 0
3, 94440, Note_on_c, 0, 65, 0
3, 94560, Note_on_c, 0, 48, 61
3, 94680, Note_on_c, 0, 48, 0
3, 94800, Note_on_c, 0, 64, 44
3, 94800, Note_on_c, 0, 57, 37
3, 94920, Note_on_c, 0, 57, 0
3, 94920, Note_on_c, 0, 64, 0
3, 95040, Note_on_c, 0, 47, 63
3, 95160, Note_on_c, 0, 47, 0
3, 95280, Note_on_c, 0, 62, 45
3, 95280, Note_on_c, 0, 53, 37
3, 95400, Note_on_c, 0, 53, 0
3, 95400, Note_on_c, 0, 62, 0
3, 95520, Note_on_c, 0, 40, 66
3, 95640, Note_on_c, 0, 40, 0
3, 95760, Note_on_c, 0, 62, 46
3, 95760, Note_on_c, 0, 59, 38
3, 95760, Note_on_c, 0, 52, 38
3, 95880, Note_on_c, 0, 52, 0
3, 95880, Note_on_c, 0, 59, 0
3, 95880, Note_on_c, 0, 62, 0
3, 96000, Note_on_c, 0, 45, 68
3, 96120, Note_on_c, 0, 45, 0
3, 96240, Note_on_c, 0, 57, 38
3, 96240, Note_on_c, 0, 60, 46
3, 96240, Note_on_c, 0, 52, 38
3, 96360, Note_on_c, 0, 52, 0
3, 96360, Note_on_c, 0, 60, 0
3, 96360, Note_on_c, 0, 57, 0
3, 96480, Note_on_c, 0, 47, 66
3, 96600, Note_on_c, 0, 47, 0
3, 96720, Note_on_c, 0, 56, 37
3, 96720, Note_on_c, 0, 62, 44
3, 96720, Note_on_c, 0, 52, 37
3, 96840, Note_on_c, 0, 52, 0
3, 96840, Note_on_c, 0, 62, 0
3, 96840, Note_on_c, 0, 56, 0
3, 96960, Note_on_c, 0, 48, 61
3, 97080, Note_on_c, 0, 48, 0
3, 97200, Note_on_c, 0, 57, 35
3, 97200, Note_on_c, 0, 64, 41
3, 97200, Note_on_c, 0, 52, 35
3, 97320, Note_on_c, 0, 52, 0
3, 97320, Note_on_c, 0, 64, 0
3, 97320, Note_on_c, 0, 57, 0
3, 97440, Note_on_c, 0, 45, 58
3, 97560, Note_on_c, 0, 45, 0
3, 97680, Note_on_c, 0, 57, 31
3, 97680, Note_on_c, 0, 60, 38
3, 97680, Note_on_c, 0, 52, 31
3, 97800, Note_on_c, 0, 52, 0
3, 97800, Note_on_c, 0, 60, 0
3, 97800, Note_on_c, 0, 57, 0
3, 97920, Note_on_c, 0, 40, 55
3, 98040, Note_on_c, 0, 40, 0
3, 98160, Note_on_c, 0, 62, 38
3, 98160, Note_on_c, 0, 52, 31
3, 98280, Note_on_c, 0, 52, 0
3, 98280, Note_on_c, 0, 62, 0
3, 98400, Note_on_c, 0, 45, 55
3, 98520, Note_on_c, 0, 45, 0
3, 98640, Note_on_c, 0, 60, 38
3, 98640, Note_on_c, 0, 52, 31
3, 98760, Note_on_c, 0, 52, 0
3, 98760, Note_on_c, 0, 60, 0
3, 98880, Note_on_c, 0, 47, 55
3, 99000, Note_on_c, 0, 47, 0
3, 99120, Note_on_c, 0, 52, 31
3, 99120, Note_on_c, 0, 62, 38
3, 99120, Note_on_c, 0, 56, 31
3, 99240, Note_on_c, 0, 56, 0
3, 99240, Note_on_c, 0, 62, 0
3, 99240, Note_on_c, 0, 52, 0
3, 99360, Note_on_c, 0, 45, 55
3, 99480, Note_on_c, 0, 45, 0
3, 99600, Note_on_c, 0, 52, 31
3, 99600, Note_on_c, 0, 60, 38
3, 99600, Note_on_c, 0, 57, 31
3, 99720, Note_on_c, 0, 57, 0
3, 99720, Note_on_c, 0, 60, 0
3, 99720, Note_on_c, 0, 52, 0
3, 99840, Note_on_c, 0, 40, 55
3, 99960, Note_on_c, 0, 40, 0
3, 100080, Note_on_c, 0, 52, 31
3, 100080, Note_on_c, 0, 62, 38
3, 100200, Note_on_c, 0, 62, 0
3, 100200, Note_on_c, 0, 52, 0
3, 100320, Note_on_c, 0, 45, 55
3, 100440, Note_on_c, 0, 45, 0
3, 100560, Note_on_c, 0, 52, 31
3, 100560, Note_on_c, 0, 60, 38
3, 100680, Note_on_c, 0, 60, 0
3, 100680, Note_on_c, 0, 52, 0
3, 100800, Note_on_c, 0, 47, 56
3, 100920, Note_on_c, 0, 47, 0
3, 101040, Note_on_c, 0, 52, 35
3, 101040, Note_on_c, 0, 62, 41
3, 101160, Note_on_c, 0, 62, 0
3, 101160, Note_on_c, 0, 52, 0
3, 101280, Note_on_c, 0, 49, 60
3, 101309, Control_c, 0, 64, 127
3, 101400, Note_on_c, 0, 49, 0
3, 101520, Note_on_c, 0, 58, 38
3, 101520, Note_on_c, 0, 64, 46
3, 101640, Note_on_c, 0, 64, 0
3, 101640, Note_on_c, 0, 58, 0
3, 101760, Note_on_c, 0, 50, 64
3, 101767, Control_c, 0, 64, 0
3, 102000, Note_on_c, 0, 62, 46
3, 102000, Note_on_c, 0, 58, 38
3, 102120, Note_on_c, 0, 58, 0
3, 102120, Note_on_c, 0, 62, 0
3, 102240, Note_on_c, 0, 53, 68
3, 102360, Note_on_c, 0, 53, 0
3, 102480, Note_on_c, 0, 62, 44
3, 102480, Note_on_c, 0, 58, 37
3, 102600, Note_on_c, 0, 58, 0
3, 102600, Note_on_c, 0, 62, 0
3, 102720, Note_on_c, 0, 50, 0
3, 102720, Note_on_c, 0, 38, 63
3, 102766, Control_c, 0, 64, 127
3, 102840, Note_on_c, 0, 38, 0
3, 102960, Note_on_c, 0, 58, 45
3, 102960, Note_on_c, 0, 53, 37
3, 103080, Note_on_c, 0, 53, 0
3, 103080, Note_on_c, 0, 58, 0
3, 103200, Note_on_c, 0, 40, 62
3, 103214, Control_c, 0, 64, 0
3, 103310, Control_c, 0, 64, 127
3, 103320, Note_on_c, 0, 40, 0
3, 103440, Note_on_c, 0, 59, 41
3, 103440, Note_on_c, 0, 52, 35
3, 103560, Note_on_c, 0, 52, 0
3, 103560, Note_on_c, 0, 59, 0
3, 103680, Note_on_c, 0, 45, 58
3, 103686, Control_c, 0, 64, 0
3, 103800, Note_on_c, 0, 45, 0
3, 103920, Note_on_c, 0, 57, 41
3, 103920, Note_on_c, 0, 52, 35
3, 104040, Note_on_c, 0, 52, 0
3, 104040, Note_on_c, 0, 57, 0
3, 104160, Note_on_c, 0, 50, 57
3, 104280, Note_on_c, 0, 50, 0
3, 104400, Note_on_c, 0, 57, 41
3, 104400, Note_on_c, 0, 53, 35
3, 104520, Note_on_c, 0, 53, 0
3, 104520, Note_on_c, 0, 57, 0
3, 104640, Note_on_c, 0, 45, 58
3, 104760, Note_on_c, 0, 45, 0
3, 104880, Note_on_c, 0, 57, 39
3, 104880, Note_on_c, 0, 52, 33
3, 105000, Note_on_c, 0, 52, 0
3, 105000, Note_on_c, 0, 57, 0
3, 105120, Note_on_c, 0, 50, 55
3, 105240, Note_on_c, 0, 50, 0
3, 105360, Note_on_c, 0, 57, 36
3, 105360, Note_on_c, 0, 53, 29
3, 105480, Note_on_c, 0, 53, 0
3, 105480, Note_on_c, 0, 57, 0
3, 105600, Note_on_c, 0, 45, 51
3, 105720, Note_on_c, 0, 45, 0
3, 105840, Note_on_c, 0, 57, 28
3, 105840, Note_on_c, 0, 52, 23
3, 105960, Note_on_c, 0, 52, 0
3, 105960, Note_on_c, 0, 57, 0
3, 106080, Note_on_c, 0, 36, 45
3, 106200, Note_on_c, 0, 36, 0
3, 106320, Note_on_c, 0, 57, 29
3, 106320, Note_on_c, 0, 52, 24
3, 106440, Note_on_c, 0, 52, 0
3, 106440, Note_on_c, 0, 57, 0
3, 106560, Note_on_c, 0, 38, 42
3, 106680, Note_on_c, 0, 38, 0
3, 106800, Note_on_c, 0, 58, 29
3, 106800, Note_on_c, 0, 53, 24
3, 106920, Note_on_c, 0, 53, 0
3, 106920, Note_on_c, 0, 58, 0
3, 107040, Note_on_c, 0, 40, 41
3, 107160, Note_on_c, 0, 40, 0
3, 107280, Note_on_c, 0, 59, 29
3, 107280, Note_on_c, 0, 52, 24
3, 107400, Note_on_c, 0, 52, 0
3, 107400, Note_on_c, 0, 59, 0
3, 107520, Note_on_c, 0, 45, 44
3, 107640, Note_on_c, 0, 45, 0
3, 107760, Note_on_c, 0, 52, 25
3, 107760, Note_on_c, 0, 57, 30
3, 107880, Note_on_c, 0, 57, 0
3, 107880, Note_on_c, 0, 52, 0
3, 108000, Note_on_c, 0, 50, 41
3, 108120, Note_on_c, 0, 50, 0
3, 108240, Note_on_c, 0, 57, 28
3, 108240, Note_on_c, 0, 53, 23
3, 108360, Note_on_c, 0, 53, 0
3, 108360, Note_on_c, 0, 57, 0
3, 108480, Note_on_c, 0, 45, 39
3, 108600, Note_on_c, 0, 45, 0
3, 108720, Note_on_c, 0, 52, 25
3, 108720, Note_on_c, 0, 57, 30
3, 108840, Note_on_c, 0, 57, 0
3, 108840, Note_on_c, 0, 52, 0
3, 108960, Note_on_c, 0, 50, 38
3, 109080, Note_on_c, 0, 50, 0
3, 109200, Note_on_c, 0, 53, 27
3, 109200, Note_on_c, 0, 57, 33
3, 109320, Note_on_c, 0, 57, 0
3, 109320, Note_on_c, 0, 53, 0
3, 109440, Note_on_c, 0, 45, 40
3, 109560, Note_on_c, 0, 45, 0
3, 109680, Note_on_c, 0, 57, 34
3, 109680, Note_on_c, 0, 52, 28
3, 109800, Note_on_c, 0, 52, 0
3, 109800, Note_on_c, 0, 57, 0
3, 109920, Note_on_c, 0, 48, 64
3, 110040, Note_on_c, 0, 48, 0
3, 110160, Note_on_c, 0, 60, 48
3, 110160, Note_on_c, 0, 52, 39
3, 110280, Note_on_c, 0, 52, 0
3, 110280, Note_on_c, 0, 60, 0
3, 110400, Note_on_c, 0, 47, 62
3, 110520, Note_on_c, 0, 47, 0
3, 110640, Control_c, 0, 64, 0
3, 110640, Note_on_c, 0, 59, 39
3, 110640, Note_on_c, 0, 65, 48
3, 110760, Note_on_c, 0, 65, 0
3, 110760, Note_on_c, 0, 59, 0
3, 110760, Control_c, 0, 64, 127
3, 110880, Note_on_c, 0, 52, 62
3, 111000, Note_on_c, 0, 52, 0
3, 111120, Note_on_c, 0, 59, 39
3, 111120, Note_on_c, 0, 64, 48
3, 111127, Control_c, 0, 64, 0
3, 111240, Note_on_c, 0, 64, 0
3, 111240, Note_on_c, 0, 59, 0
3, 111240, Control_c, 0, 64, 127
3, 111360, Note_on_c, 0, 45, 69
3, 111480, Note_on_c, 0, 45, 0
3, 111600, Note_on_c, 0, 57, 39
3, 111600, Note_on_c, 0, 64, 48
3, 111610, Control_c, 0, 64, 0
3, 111686, Control_c, 0, 64, 127
3, 111720, Note_on_c, 0, 64, 0
3, 111720, Note_on_c, 0, 57, 0
3, 111840, Note_on_c, 0, 50, 59
3, 111960, Note_on_c, 0, 50, 0
3, 112080, Note_on_c, 0, 57, 39
3, 112080, Note_on_c, 0, 62, 48
3, 112088, Control_c, 0, 64, 0
3, 112131, Control_c, 0, 64, 127
3, 112200, Note_on_c, 0, 62, 0
3, 112200, Note_on_c, 0, 57, 0
3, 112320, Note_on_c, 0, 38, 59
3, 112440, Note_on_c, 0, 38, 0
3, 112560, Note_on_c, 0, 53, 33
3, 112560, Note_on_c, 0, 58, 40
3, 112577, Control_c, 0, 64, 0
3, 112680, Note_on_c, 0, 58, 0
3, 112680, Note_on_c, 0, 53, 0
3, 112680, Control_c, 0, 64, 127
3, 112800, Note_on_c, 0, 40, 41
3, 112920, Note_on_c, 0, 40, 0
3, 113040, Note_on_c, 0, 59, 29
3, 113040, Note_on_c, 0, 52, 24
3, 113041, Control_c, 0, 64, 0
3, 113132, Control_c, 0, 64, 127
3, 113160, Note_on_c, 0, 52, 0
3, 113160, Note_on_c, 0, 59, 0
3, 113280, Control_c, 0, 64, 0
3, 113280, Note_on_c, 0, 45, 44
3, 113400, Note_on_c, 0, 45, 0
3, 113520, Note_on_c, 0, 52, 25
3, 113520, Note_on_c, 0, 57, 30
3, 113640, Note_on_c, 0, 57, 0
3, 113640, Note_on_c, 0, 52, 0
3, 113760, Note_on_c, 0, 50, 41
3, 113880, Note_on_c, 0, 50, 0
3, 114000, Note_on_c, 0, 57, 30
3, 114000, Note_on_c, 0, 53, 25
3, 114120, Note_on_c, 0, 53, 0
3, 114120, Note_on_c, 0, 57, 0
3, 114240, Note_on_c, 0, 38, 39
3, 114360, Note_on_c, 0, 38, 0
3, 114480, Note_on_c, 0, 53, 25
3, 114480, Note_on_c, 0, 58, 30
3, 114600, Note_on_c, 0, 58, 0
3, 114600, Note_on_c, 0, 53, 0
3, 114720, Note_on_c, 0, 40, 38
3, 114840, Note_on_c, 0, 40, 0
3, 114960, Note_on_c, 0, 52, 24
3, 114960, Note_on_c, 0, 59, 28
3, 115017, Control_c, 0, 64, 127
3, 115080, Note_on_c, 0, 59, 0
3, 115080, Note_on_c, 0, 52, 0
3, 115200, Note_on_c, 0, 41, 36
3, 115320, Note_on_c, 0, 41, 0
3, 115440, Note_on_c, 0, 57, 29
3, 115440, Note_on_c, 0, 53, 25
3, 115451, Control_c, 0, 64, 0
3, 115537, Control_c, 0, 64, 127
3, 115560, Note_on_c, 0, 53, 0
3, 115560, Note_on_c, 0, 57, 0
3, 115680, Note_on_c, 0, 36, 55
3, 115800, Note_on_c, 0, 36, 0
3, 115920, Note_on_c, 0, 57, 38
3, 115920, Note_on_c, 0, 48, 30
3, 115931, Control_c, 0, 64, 0
3, 116006, Control_c, 0, 64, 127
3, 116040, Note_on_c, 0, 48, 0
3, 116040, Note_on_c, 0, 57, 0
3, 116160, Note_on_c, 0, 38, 55
3, 116280, Note_on_c, 0, 38, 0
3, 116400, Note_on_c, 0, 50, 30
3, 116400, Note_on_c, 0, 58, 38
3, 116411, Control_c, 0, 64, 0
3, 116480, Control_c, 0, 64, 127
3, 116520, Note_on_c, 0, 58, 0
3, 116520, Note_on_c, 0, 50, 0
3, 116640, Note_on_c, 0, 40, 55
3, 116760, Note_on_c, 0, 40, 0
3, 116880, Note_on_c, 0, 52, 30
3, 116880, Note_on_c, 0, 59, 38
3, 116880, Control_c, 0, 64, 0
3, 117000, Note_on_c, 0, 59, 0
3, 117000, Note_on_c, 0, 52, 0
3, 117120, Note_on_c, 0, 45, 41
3, 117240, Note_on_c, 0, 45, 0
3, 117360, Note_on_c, 0, 52, 23
3, 117360, Note_on_c, 0, 57, 28
3, 117480, Note_on_c, 0, 57, 0
3, 117480, Note_on_c, 0, 52, 0
3, 117600, Note_on_c, 0, 50, 39
3, 117720, Note_on_c, 0, 50, 0
3, 117840, Note_on_c, 0, 57, 28
3, 117840, Note_on_c, 0, 53, 23
3, 117960, Note_on_c, 0, 53, 0
3, 117960, Note_on_c, 0, 57, 0
3, 118080, Note_on_c, 0, 45, 38
3, 118200, Note_on_c, 0, 45, 0
3, 118320, Note_on_c, 0, 52, 24
3, 118320, Note_on_c, 0, 57, 29
3, 118440, Note_on_c, 0, 57, 0
3, 118440, Note_on_c, 0, 52, 0
3, 118560, Note_on_c, 0, 50, 36
3, 118680, Note_on_c, 0, 50, 0
3, 118800, Note_on_c, 0, 53, 26
3, 118800, Note_on_c, 0, 57, 30
3, 118920, Note_on_c, 0, 57, 0
3, 118920, Note_on_c, 0, 53, 0
3, 119040, Note_on_c, 0, 45, 39
3, 119160, Note_on_c, 0, 45, 0
3, 119280, Note_on_c, 0, 52, 20
3, 119280, Note_on_c, 0, 57, 26
3, 119400, Note_on_c, 0, 57, 0
3, 119400, Note_on_c, 0, 52, 0
3, 119520, Note_on_c, 0, 50, 36
3, 119640, Note_on_c, 0, 50, 0
3, 119760, Note_on_c, 0, 57, 25
3, 119760, Note_on_c, 0, 53, 20
3, 119880, Note_on_c, 0, 53, 0
3, 119880, Note_on_c, 0, 57, 0
3, 120000, Note_on_c, 0, 45, 35
3, 120120, Note_on_c, 0, 45, 0
3, 120240, Note_on_c, 0, 52, 22
3, 120240, Note_on_c, 0, 57, 26
3, 120360, Note_on_c, 0, 57, 0
3, 120360, Note_on_c, 0, 52, 0
3, 120480, Note_on_c, 0, 45, 33
3, 120530, Control_c, 0, 64, 127
3, 120720, Note_on_c, 0, 45, 0
3, 120720, Note_on_c, 0, 50, 23
3, 120720, Note_on_c, 0, 58, 28
3, 120960, Note_on_c, 0, 58, 0
3, 120960, Note_on_c, 0, 50, 0
3, 120960, Note_on_c, 0, 45, 27
3, 121080, Note_on_c, 0, 50, 27
3, 121200, Note_on_c, 0, 53, 33
3, 121320, Note_on_c, 0, 58, 33
3, 122880, Note_on_c, 0, 58, 0
3, 122880, Note_on_c, 0, 50, 0
3, 124800, Note_on_c, 0, 53, 0
3, 124800, Note_on_c, 0, 45, 0
3, 124800, Control_c, 0, 64, 0
3, 124800, Note_on_c, 0, 45, 27
3, 124920, Note_on_c, 0, 52, 27
3, 124949, Control_c, 0, 64, 127
3, 125040, Note_on_c, 0, 57, 33
3, 126720, Note_on_c, 0, 57, 0
3, 126720, Note_on_c, 0, 52, 0
3, 126720, Note_on_c, 0, 45, 0
3, 128213, Control_c, 0, 64, 0
3, 128213, End_track
4, 0, Start_track
4, 0, Title_t, "Chopin: Etude No. 4 in A Minor Op. 25"
4, 0, End_track
5, 0, Start_track
5, 0, Title_t, "Copyright © 2003 by Bernd Krueger"
5, 0, End_track
6, 0, Start_track
6, 0, Title_t, "http://www.piano-midi.de"
6, 0, End_track
7, 0, Start_track
7, 0, Title_t, "Edition: 2014-02-17"
7, 0, End_track
8, 0, Start_track
8, 0, Title_t, "Spur 7"
8, 0, End_track
0, 0, End_of_file
