0, 0, Header, 1, 9, 480
1, 0, Start_track
1, 0, Title_t, "Chopin Prelude  No. 3, Opus 28"
1, 0, Copyright_t, "Copyright © 2002 by Bernd Krueger "
1, 0, Text_t, "Frederic Chopin"
1, 0, Text_t, "Vivace"
1, 0, Text_t, "Fertiggestellt am 27.8.2002\012"
1, 0, Text_t, "Normierung: 23.12.2002\012"
1, 0, Text_t, "Update am 20.7.2003\012"
1, 0, Text_t, "Update am 4.6.2010\012"
1, 0, Text_t, "Update am 20.2.2014\012"
1, 0, Text_t, "Dauer: 0:54 Minuten\012"
1, 0, SMPTE_offset, 96, 0, 3, 0, 0
1, 0, Time_signature, 4, 2, 24, 8
1, 0, Key_signature, 1, "major"
1, 0, Tempo, 373832
1, 200, Tempo, 372671
1, 400, Tempo, 371517
1, 560, Tempo, 370370
1, 760, Tempo, 369231
1, 920, Tempo, 366972
1, 1080, Tempo, 368098
1, 1240, Tempo, 369231
1, 1360, Tempo, 370370
1, 1520, Tempo, 371517
1, 1640, Tempo, 372671
1, 1800, Tempo, 373832
1, 1920, Tempo, 373832
1, 2080, Tempo, 372671
1, 2200, Tempo, 371517
1, 2360, Tempo, 370370
1, 2480, Tempo, 369231
1, 2640, Tempo, 368098
1, 2760, Tempo, 366972
1, 2880, Tempo, 365854
1, 3000, Tempo, 366972
1, 3120, Tempo, 368098
1, 3240, Tempo, 369231
1, 3360, Tempo, 370370
1, 3480, Tempo, 371517
1, 3600, Tempo, 372671
1, 3720, Tempo, 373832
1, 3800, Tempo, 375000
1, 3960, Tempo, 373832
1, 4120, Tempo, 372671
1, 4280, Tempo, 371517
1, 4440, Tempo, 370370
1, 4600, Tempo, 369231
1, 4760, Tempo, 368098
1, 4800, Tempo, 366972
1, 4960, Tempo, 368098
1, 5120, Tempo, 369231
1, 5280, Tempo, 370370
1, 5440, Tempo, 371517
1, 5600, Tempo, 372671
1, 5760, Tempo, 372671
1, 5960, Tempo, 371517
1, 6120, Tempo, 370370
1, 6320, Tempo, 369231
1, 6480, Tempo, 368098
1, 6640, Tempo, 366972
1, 6760, Tempo, 368098
1, 6880, Tempo, 369231
1, 6960, Tempo, 370370
1, 7080, Tempo, 371517
1, 7160, Tempo, 372671
1, 7280, Tempo, 373832
1, 7360, Tempo, 375000
1, 7440, Tempo, 385852
1, 7680, Tempo, 375000
1, 7880, Tempo, 373832
1, 8080, Tempo, 372671
1, 8280, Tempo, 371517
1, 8480, Tempo, 370370
1, 8640, Tempo, 369231
1, 8840, Tempo, 370370
1, 9040, Tempo, 371517
1, 9240, Tempo, 372671
1, 9440, Tempo, 373832
1, 9600, Tempo, 375000
1, 9760, Tempo, 373832
1, 9920, Tempo, 372671
1, 10080, Tempo, 371517
1, 10240, Tempo, 370370
1, 10400, Tempo, 369231
1, 10520, Tempo, 368098
1, 10720, Tempo, 369231
1, 10880, Tempo, 370370
1, 11040, Tempo, 371517
1, 11200, Tempo, 372671
1, 11360, Tempo, 373832
1, 11480, Tempo, 375000
1, 11680, Tempo, 373832
1, 11880, Tempo, 372671
1, 12080, Tempo, 371517
1, 12280, Tempo, 370370
1, 12480, Tempo, 369231
1, 12720, Tempo, 370370
1, 12960, Tempo, 371517
1, 13200, Tempo, 372671
1, 13320, Tempo, 419580
1, 13440, Tempo, 372671
1, 13760, Tempo, 371517
1, 14080, Tempo, 370370
1, 14400, Tempo, 369231
1, 14560, Tempo, 370370
1, 14680, Tempo, 371517
1, 14800, Tempo, 372671
1, 14920, Tempo, 373832
1, 15040, Tempo, 375000
1, 15160, Tempo, 376176
1, 15360, Tempo, 377358
1, 15560, Tempo, 376176
1, 15760, Tempo, 375000
1, 15960, Tempo, 373832
1, 16160, Tempo, 372671
1, 16320, Tempo, 371517
1, 16440, Tempo, 372671
1, 16560, Tempo, 373832
1, 16640, Tempo, 375000
1, 16760, Tempo, 376176
1, 16840, Tempo, 377358
1, 16960, Tempo, 378549
1, 17040, Tempo, 379747
1, 17160, Tempo, 405405
1, 17280, Tempo, 376176
1, 17520, Tempo, 375000
1, 17760, Tempo, 373832
1, 18000, Tempo, 372671
1, 18200, Tempo, 371517
1, 18480, Tempo, 372671
1, 18720, Tempo, 373832
1, 18960, Tempo, 375000
1, 19200, Tempo, 376176
1, 19240, Tempo, 375000
1, 19400, Tempo, 373832
1, 19560, Tempo, 372671
1, 19680, Tempo, 371517
1, 19840, Tempo, 370370
1, 20000, Tempo, 369231
1, 20120, Tempo, 368098
1, 20280, Tempo, 369231
1, 20440, Tempo, 370370
1, 20560, Tempo, 371517
1, 20720, Tempo, 372671
1, 20840, Tempo, 373832
1, 21000, Tempo, 375000
1, 21080, Tempo, 376176
1, 21240, Tempo, 375000
1, 21360, Tempo, 373832
1, 21480, Tempo, 372671
1, 21600, Tempo, 371517
1, 21720, Tempo, 370370
1, 21840, Tempo, 369231
1, 21960, Tempo, 368098
1, 22080, Tempo, 366972
1, 22240, Tempo, 368098
1, 22360, Tempo, 369231
1, 22520, Tempo, 370370
1, 22640, Tempo, 371517
1, 22800, Tempo, 372671
1, 22920, Tempo, 373832
1, 23040, Tempo, 375000
1, 23080, Tempo, 375000
1, 23240, Tempo, 373832
1, 23360, Tempo, 372671
1, 23480, Tempo, 371517
1, 23600, Tempo, 370370
1, 23720, Tempo, 369231
1, 23840, Tempo, 368098
1, 23960, Tempo, 366972
1, 24000, Tempo, 366972
1, 24160, Tempo, 368098
1, 24280, Tempo, 369231
1, 24440, Tempo, 370370
1, 24560, Tempo, 371517
1, 24720, Tempo, 372671
1, 24840, Tempo, 373832
1, 24960, Tempo, 375000
1, 25000, Tempo, 373832
1, 25160, Tempo, 372671
1, 25320, Tempo, 371517
1, 25480, Tempo, 370370
1, 25640, Tempo, 369231
1, 25800, Tempo, 368098
1, 25880, Tempo, 366972
1, 26040, Tempo, 368098
1, 26160, Tempo, 369231
1, 26280, Tempo, 370370
1, 26400, Tempo, 371517
1, 26520, Tempo, 372671
1, 26640, Tempo, 373832
1, 26760, Tempo, 375000
1, 26880, Tempo, 375000
1, 27120, Tempo, 373832
1, 27320, Tempo, 372671
1, 27560, Tempo, 371517
1, 27760, Tempo, 370370
1, 27880, Tempo, 371517
1, 28000, Tempo, 372671
1, 28080, Tempo, 373832
1, 28200, Tempo, 375000
1, 28280, Tempo, 376176
1, 28400, Tempo, 377358
1, 28480, Tempo, 378549
1, 28760, Tempo, 376176
1, 28920, Tempo, 375000
1, 29080, Tempo, 373832
1, 29240, Tempo, 372671
1, 29400, Tempo, 371517
1, 29560, Tempo, 370370
1, 29720, Tempo, 369231
1, 29800, Tempo, 370370
1, 30040, Tempo, 371517
1, 30240, Tempo, 372671
1, 30480, Tempo, 373832
1, 30680, Tempo, 375000
1, 31440, Tempo, 364742
1, 31560, Tempo, 380952
1, 31680, Tempo, 382166
1, 31800, Tempo, 383387
1, 31880, Tempo, 384615
1, 32000, Tempo, 385852
1, 32080, Tempo, 387097
1, 32152, Tempo, 388350
1, 32164, Tempo, 389610
1, 32180, Tempo, 390879
1, 32192, Tempo, 392157
1, 32204, Tempo, 393443
1, 32220, Tempo, 396040
1, 32232, Tempo, 397351
1, 32244, Tempo, 398671
1, 32260, Tempo, 400000
1, 32272, Tempo, 402685
1, 32284, Tempo, 404040
1, 32300, Tempo, 405405
1, 32312, Tempo, 406780
1, 32324, Tempo, 409556
1, 32340, Tempo, 410959
1, 32352, Tempo, 412371
1, 32364, Tempo, 413793
1, 32380, Tempo, 415225
1, 32392, Tempo, 418118
1, 32404, Tempo, 419580
1, 32420, Tempo, 421053
1, 32432, Tempo, 422535
1, 32444, Tempo, 425532
1, 32460, Tempo, 427046
1, 32472, Tempo, 428571
1, 32484, Tempo, 430108
1, 32500, Tempo, 433213
1, 32520, Tempo, 430108
1, 32524, Tempo, 470588
1, 32640, Tempo, 376176
1, 32800, Tempo, 375000
1, 32960, Tempo, 373832
1, 33120, Tempo, 372671
1, 33280, Tempo, 371517
1, 33440, Tempo, 370370
1, 33560, Tempo, 369231
1, 33720, Tempo, 370370
1, 33880, Tempo, 371517
1, 34040, Tempo, 372671
1, 34200, Tempo, 373832
1, 34360, Tempo, 375000
1, 34480, Tempo, 376176
1, 34520, Tempo, 380952
1, 34560, Tempo, 375000
1, 34760, Tempo, 373832
1, 34960, Tempo, 372671
1, 35120, Tempo, 371517
1, 35320, Tempo, 370370
1, 35480, Tempo, 369231
1, 35680, Tempo, 370370
1, 35840, Tempo, 371517
1, 36000, Tempo, 372671
1, 36160, Tempo, 373832
1, 36320, Tempo, 375000
1, 36440, Tempo, 376176
1, 36640, Tempo, 375000
1, 36840, Tempo, 373832
1, 37040, Tempo, 372671
1, 37240, Tempo, 371517
1, 37400, Tempo, 370370
1, 37440, Tempo, 369231
1, 37560, Tempo, 370370
1, 37680, Tempo, 371517
1, 37800, Tempo, 372671
1, 37920, Tempo, 373832
1, 38040, Tempo, 375000
1, 38160, Tempo, 376176
1, 38280, Tempo, 377358
1, 38400, Tempo, 378549
1, 38640, Tempo, 379747
1, 38880, Tempo, 378549
1, 39120, Tempo, 377358
1, 39320, Tempo, 376176
1, 39400, Tempo, 377358
1, 39440, Tempo, 378549
1, 39520, Tempo, 379747
1, 39560, Tempo, 380952
1, 39640, Tempo, 382166
1, 39680, Tempo, 383387
1, 39760, Tempo, 384615
1, 39800, Tempo, 385852
1, 39840, Tempo, 387097
1, 39920, Tempo, 388350
1, 39960, Tempo, 389610
1, 40040, Tempo, 390879
1, 40080, Tempo, 392157
1, 40160, Tempo, 393443
1, 40200, Tempo, 394737
1, 40240, Tempo, 396040
1, 40320, Tempo, 382166
1, 40480, Tempo, 380952
1, 40600, Tempo, 379747
1, 40760, Tempo, 378549
1, 40880, Tempo, 377358
1, 41040, Tempo, 376176
1, 41160, Tempo, 375000
1, 41240, Tempo, 373832
1, 41400, Tempo, 375000
1, 41560, Tempo, 376176
1, 41720, Tempo, 377358
1, 41880, Tempo, 378549
1, 42040, Tempo, 379747
1, 42160, Tempo, 380952
1, 42240, Tempo, 384615
1, 42440, Tempo, 383387
1, 42640, Tempo, 382166
1, 42800, Tempo, 380952
1, 43000, Tempo, 379747
1, 43160, Tempo, 378549
1, 43240, Tempo, 379747
1, 43280, Tempo, 380952
1, 43360, Tempo, 382166
1, 43400, Tempo, 383387
1, 43480, Tempo, 384615
1, 43520, Tempo, 385852
1, 43600, Tempo, 387097
1, 43640, Tempo, 388350
1, 43720, Tempo, 389610
1, 43760, Tempo, 390879
1, 43840, Tempo, 392157
1, 43880, Tempo, 393443
1, 43960, Tempo, 394737
1, 44000, Tempo, 396040
1, 44040, Tempo, 412371
1, 44160, Tempo, 378549
1, 44320, Tempo, 377358
1, 44440, Tempo, 376176
1, 44560, Tempo, 375000
1, 44720, Tempo, 373832
1, 44840, Tempo, 372671
1, 44960, Tempo, 371517
1, 45040, Tempo, 372671
1, 45240, Tempo, 373832
1, 45400, Tempo, 375000
1, 45560, Tempo, 376176
1, 45720, Tempo, 377358
1, 45880, Tempo, 378549
1, 46000, Tempo, 378549
1, 46160, Tempo, 377358
1, 46320, Tempo, 376176
1, 46440, Tempo, 375000
1, 46600, Tempo, 373832
1, 46720, Tempo, 372671
1, 46880, Tempo, 371517
1, 47000, Tempo, 370370
1, 47120, Tempo, 371517
1, 47240, Tempo, 372671
1, 47360, Tempo, 373832
1, 47480, Tempo, 375000
1, 47520, Tempo, 376176
1, 47560, Tempo, 377358
1, 47600, Tempo, 379747
1, 47640, Tempo, 382166
1, 47680, Tempo, 384615
1, 47720, Tempo, 387097
1, 47760, Tempo, 389610
1, 47800, Tempo, 392157
1, 47840, Tempo, 378549
1, 47880, Tempo, 425532
1, 48000, Tempo, 378549
1, 48160, Tempo, 377358
1, 48280, Tempo, 376176
1, 48400, Tempo, 375000
1, 48560, Tempo, 373832
1, 48680, Tempo, 372671
1, 48800, Tempo, 371517
1, 48920, Tempo, 370370
1, 48960, Tempo, 370370
1, 49160, Tempo, 371517
1, 49360, Tempo, 372671
1, 49520, Tempo, 373832
1, 49720, Tempo, 375000
1, 49880, Tempo, 376176
1, 49960, Tempo, 377358
1, 50160, Tempo, 376176
1, 50360, Tempo, 375000
1, 50520, Tempo, 373832
1, 50720, Tempo, 372671
1, 50880, Tempo, 371517
1, 51120, Tempo, 372671
1, 51360, Tempo, 373832
1, 51600, Tempo, 375000
1, 51800, Tempo, 376176
1, 51840, Tempo, 376176
1, 52040, Tempo, 375000
1, 52200, Tempo, 373832
1, 52360, Tempo, 372671
1, 52520, Tempo, 371517
1, 52680, Tempo, 370370
1, 52840, Tempo, 369231
1, 52880, Tempo, 369231
1, 53000, Tempo, 370370
1, 53120, Tempo, 371517
1, 53240, Tempo, 372671
1, 53320, Tempo, 373832
1, 53440, Tempo, 375000
1, 53560, Tempo, 376176
1, 53680, Tempo, 377358
1, 53760, Tempo, 376176
1, 53920, Tempo, 375000
1, 54080, Tempo, 373832
1, 54240, Tempo, 372671
1, 54400, Tempo, 371517
1, 54560, Tempo, 370370
1, 54680, Tempo, 371517
1, 54880, Tempo, 372671
1, 55080, Tempo, 373832
1, 55280, Tempo, 375000
1, 55480, Tempo, 376176
1, 55640, Tempo, 376176
1, 55800, Tempo, 375000
1, 55960, Tempo, 373832
1, 56120, Tempo, 372671
1, 56240, Tempo, 371517
1, 56400, Tempo, 370370
1, 56560, Tempo, 369231
1, 56680, Tempo, 368098
1, 56840, Tempo, 369231
1, 57000, Tempo, 370370
1, 57160, Tempo, 371517
1, 57320, Tempo, 372671
1, 57480, Tempo, 373832
1, 57600, Tempo, 378549
1, 57760, Tempo, 377358
1, 57880, Tempo, 376176
1, 58040, Tempo, 375000
1, 58160, Tempo, 373832
1, 58320, Tempo, 372671
1, 58440, Tempo, 371517
1, 58560, Tempo, 370370
1, 58640, Tempo, 371517
1, 58680, Tempo, 372671
1, 58720, Tempo, 373832
1, 58760, Tempo, 375000
1, 58800, Tempo, 376176
1, 58840, Tempo, 377358
1, 58880, Tempo, 378549
1, 58920, Tempo, 379747
1, 58960, Tempo, 380952
1, 59000, Tempo, 382166
1, 59040, Tempo, 383387
1, 59120, Tempo, 384615
1, 59160, Tempo, 385852
1, 59200, Tempo, 387097
1, 59240, Tempo, 388350
1, 59280, Tempo, 389610
1, 59320, Tempo, 390879
1, 59360, Tempo, 392157
1, 59400, Tempo, 393443
1, 59440, Tempo, 394737
1, 59480, Tempo, 396040
1, 59520, Tempo, 500000
1, 60280, Tempo, 839161
1, 60292, Tempo, 833333
1, 60304, Tempo, 827586
1, 60320, Tempo, 816327
1, 60332, Tempo, 810811
1, 60344, Tempo, 800000
1, 60360, Tempo, 794702
1, 60372, Tempo, 789474
1, 60384, Tempo, 779221
1, 60400, Tempo, 774194
1, 60412, Tempo, 764331
1, 60424, Tempo, 759494
1, 60440, Tempo, 750000
1, 60480, Tempo, 461538
1, 61440, Tempo, 930233
1, 61452, Tempo, 916031
1, 61464, Tempo, 902256
1, 61480, Tempo, 882353
1, 61492, Tempo, 869565
1, 61504, Tempo, 851064
1, 61520, Tempo, 839161
1, 61532, Tempo, 821918
1, 61544, Tempo, 810811
1, 61560, Tempo, 794702
1, 61572, Tempo, 784314
1, 61584, Tempo, 769231
1, 61600, Tempo, 759494
1, 61612, Tempo, 745342
1, 61920, Tempo, 621762
1, 63360, Tempo, 600000
1, 63360, End_track
2, 0, Start_track
2, 0, Title_t, "Piano right"
2, 0, Program_c, 0, 0
2, 0, Control_c, 0, 7, 100
2, 0, Control_c, 0, 10, 64
2, 0, Text_t, "bdca426d104a26ac9dcb070447587523"
2, 3840, Note_on_c, 0, 62, 77
2, 4560, Note_on_c, 0, 62, 0
2, 4800, Note_on_c, 0, 71, 77
2, 4800, Note_on_c, 0, 67, 69
2, 5520, Note_on_c, 0, 67, 0
2, 5520, Note_on_c, 0, 71, 0
2, 5640, Note_on_c, 0, 72, 66
2, 5640, Note_on_c, 0, 76, 74
2, 5760, Note_on_c, 0, 76, 0
2, 5760, Note_on_c, 0, 72, 0
2, 5760, Note_on_c, 0, 71, 73
2, 5760, Note_on_c, 0, 74, 82
2, 7200, Note_on_c, 0, 74, 0
2, 7200, Note_on_c, 0, 71, 0
2, 7560, Note_on_c, 0, 76, 78
2, 7560, Note_on_c, 0, 84, 92
2, 7680, Note_on_c, 0, 84, 0
2, 7680, Note_on_c, 0, 76, 0
2, 7680, Note_on_c, 0, 74, 74
2, 7680, Note_on_c, 0, 83, 89
2, 9600, Note_on_c, 0, 83, 0
2, 9600, Note_on_c, 0, 74, 0
2, 9600, Note_on_c, 0, 79, 74
2, 9600, Note_on_c, 0, 71, 62
2, 10560, Note_on_c, 0, 71, 0
2, 10560, Note_on_c, 0, 79, 0
2, 11520, Note_on_c, 0, 67, 53
2, 11520, Note_on_c, 0, 69, 53
2, 11520, Note_on_c, 0, 73, 61
2, 11520, Note_on_c, 0, 78, 77
2, 13320, Note_on_c, 0, 78, 0
2, 13320, Note_on_c, 0, 76, 67
2, 13380, Note_on_c, 0, 76, 0
2, 13380, Note_on_c, 0, 66, 55
2, 13410, Note_on_c, 0, 74, 60
2, 13440, Note_on_c, 0, 73, 0
2, 13440, Note_on_c, 0, 67, 0
2, 13440, Note_on_c, 0, 69, 0
2, 13440, Note_on_c, 0, 81, 69
2, 13920, Note_on_c, 0, 66, 0
2, 13920, Note_on_c, 0, 74, 0
2, 14400, Note_on_c, 0, 81, 0
2, 15360, Note_on_c, 0, 69, 55
2, 15360, Note_on_c, 0, 73, 55
2, 15360, Note_on_c, 0, 67, 55
2, 15360, Note_on_c, 0, 78, 69
2, 17160, Note_on_c, 0, 78, 0
2, 17160, Note_on_c, 0, 76, 60
2, 17220, Note_on_c, 0, 76, 0
2, 17220, Note_on_c, 0, 66, 49
2, 17250, Note_on_c, 0, 72, 56
2, 17280, Note_on_c, 0, 67, 0
2, 17280, Note_on_c, 0, 69, 0
2, 17280, Note_on_c, 0, 73, 0
2, 17280, Note_on_c, 0, 81, 72
2, 17760, Note_on_c, 0, 66, 0
2, 17760, Note_on_c, 0, 72, 0
2, 18240, Note_on_c, 0, 81, 0
2, 20040, Note_on_c, 0, 81, 55
2, 20040, Note_on_c, 0, 84, 66
2, 20160, Note_on_c, 0, 84, 0
2, 20160, Note_on_c, 0, 81, 0
2, 20160, Note_on_c, 0, 76, 70
2, 20160, Note_on_c, 0, 72, 58
2, 20880, Note_on_c, 0, 72, 0
2, 20880, Note_on_c, 0, 76, 0
2, 21000, Note_on_c, 0, 72, 55
2, 21000, Note_on_c, 0, 74, 66
2, 21120, Note_on_c, 0, 74, 0
2, 21120, Note_on_c, 0, 72, 0
2, 21120, Note_on_c, 0, 62, 77
2, 21840, Note_on_c, 0, 62, 0
2, 22080, Note_on_c, 0, 71, 77
2, 22080, Note_on_c, 0, 67, 69
2, 22800, Note_on_c, 0, 67, 0
2, 22800, Note_on_c, 0, 71, 0
2, 22920, Note_on_c, 0, 72, 66
2, 22920, Note_on_c, 0, 76, 74
2, 23040, Note_on_c, 0, 76, 0
2, 23040, Note_on_c, 0, 72, 0
2, 23040, Note_on_c, 0, 71, 73
2, 23040, Note_on_c, 0, 74, 82
2, 24480, Note_on_c, 0, 74, 0
2, 24480, Note_on_c, 0, 71, 0
2, 24840, Note_on_c, 0, 76, 81
2, 24840, Note_on_c, 0, 84, 96
2, 24960, Note_on_c, 0, 84, 0
2, 24960, Note_on_c, 0, 76, 0
2, 24960, Note_on_c, 0, 74, 74
2, 24960, Note_on_c, 0, 83, 89
2, 26880, Note_on_c, 0, 83, 0
2, 26880, Note_on_c, 0, 74, 0
2, 26880, Note_on_c, 0, 79, 74
2, 26880, Note_on_c, 0, 71, 62
2, 27840, Note_on_c, 0, 71, 0
2, 27840, Note_on_c, 0, 79, 0
2, 28800, Note_on_c, 0, 71, 61
2, 28800, Note_on_c, 0, 77, 75
2, 29760, Note_on_c, 0, 77, 0
2, 29760, Note_on_c, 0, 77, 70
2, 30600, Note_on_c, 0, 77, 0
2, 30600, Note_on_c, 0, 77, 75
2, 30720, Note_on_c, 0, 77, 0
2, 30720, Note_on_c, 0, 71, 0
2, 30720, Note_on_c, 0, 77, 75
2, 30720, Note_on_c, 0, 71, 61
2, 31440, Note_on_c, 0, 77, 0
2, 31440, Note_on_c, 0, 77, 64
2, 31500, Note_on_c, 0, 77, 0
2, 31500, Note_on_c, 0, 79, 59
2, 31560, Note_on_c, 0, 79, 0
2, 31560, Note_on_c, 0, 77, 62
2, 31680, Note_on_c, 0, 77, 0
2, 31680, Note_on_c, 0, 76, 68
2, 32520, Note_on_c, 0, 76, 0
2, 32520, Note_on_c, 0, 75, 72
2, 32580, Note_on_c, 0, 75, 0
2, 32580, Note_on_c, 0, 64, 46
2, 32600, Note_on_c, 0, 67, 50
2, 32620, Note_on_c, 0, 72, 51
2, 32640, Note_on_c, 0, 71, 0
2, 32640, Note_on_c, 0, 76, 66
2, 36480, Note_on_c, 0, 76, 0
2, 36480, Note_on_c, 0, 72, 0
2, 36480, Note_on_c, 0, 67, 0
2, 36480, Note_on_c, 0, 64, 0
2, 36480, Note_on_c, 0, 64, 58
2, 36480, Note_on_c, 0, 67, 60
2, 36480, Note_on_c, 0, 72, 75
2, 37440, Note_on_c, 0, 72, 0
2, 37440, Note_on_c, 0, 72, 75
2, 38280, Note_on_c, 0, 72, 0
2, 38280, Note_on_c, 0, 72, 81
2, 38400, Note_on_c, 0, 72, 0
2, 38400, Note_on_c, 0, 67, 0
2, 38400, Note_on_c, 0, 64, 0
2, 38400, Note_on_c, 0, 64, 53
2, 38400, Note_on_c, 0, 67, 60
2, 38400, Note_on_c, 0, 72, 78
2, 40080, Note_on_c, 0, 72, 0
2, 40200, Note_on_c, 0, 71, 75
2, 40320, Note_on_c, 0, 71, 0
2, 40320, Note_on_c, 0, 67, 0
2, 40320, Note_on_c, 0, 64, 0
2, 40320, Note_on_c, 0, 67, 56
2, 40320, Note_on_c, 0, 64, 53
2, 40320, Note_on_c, 0, 71, 74
2, 42240, Note_on_c, 0, 71, 0
2, 42240, Note_on_c, 0, 69, 72
2, 44040, Note_on_c, 0, 69, 0
2, 44040, Note_on_c, 0, 71, 70
2, 44100, Note_on_c, 0, 71, 0
2, 44100, Note_on_c, 0, 57, 46
2, 44130, Note_on_c, 0, 62, 49
2, 44160, Note_on_c, 0, 64, 0
2, 44160, Note_on_c, 0, 67, 0
2, 44160, Note_on_c, 0, 67, 68
2, 44640, Note_on_c, 0, 57, 0
2, 46080, Note_on_c, 0, 67, 0
2, 46080, Note_on_c, 0, 62, 0
2, 46080, Note_on_c, 0, 66, 74
2, 46080, Note_on_c, 0, 60, 49
2, 46080, Note_on_c, 0, 62, 62
2, 47880, Note_on_c, 0, 66, 0
2, 47880, Note_on_c, 0, 67, 67
2, 48000, Note_on_c, 0, 67, 0
2, 48000, Note_on_c, 0, 62, 0
2, 48000, Note_on_c, 0, 60, 0
2, 48000, Note_on_c, 0, 59, 49
2, 48000, Note_on_c, 0, 62, 52
2, 48000, Note_on_c, 0, 67, 73
2, 49920, Note_on_c, 0, 67, 0
2, 49920, Note_on_c, 0, 62, 0
2, 49920, Note_on_c, 0, 59, 0
2, 51840, Note_on_c, 0, 59, 46
2, 51948, Note_on_c, 0, 59, 0
2, 51960, Note_on_c, 0, 62, 40
2, 52068, Note_on_c, 0, 62, 0
2, 52080, Note_on_c, 0, 67, 41
2, 52188, Note_on_c, 0, 67, 0
2, 52200, Note_on_c, 0, 69, 34
2, 52308, Note_on_c, 0, 69, 0
2, 52320, Note_on_c, 0, 71, 41
2, 52428, Note_on_c, 0, 71, 0
2, 52440, Note_on_c, 0, 69, 39
2, 52548, Note_on_c, 0, 69, 0
2, 52560, Note_on_c, 0, 67, 39
2, 52668, Note_on_c, 0, 67, 0
2, 52680, Note_on_c, 0, 76, 46
2, 52788, Note_on_c, 0, 76, 0
2, 52800, Note_on_c, 0, 74, 46
2, 52908, Note_on_c, 0, 74, 0
2, 52920, Note_on_c, 0, 72, 40
2, 53028, Note_on_c, 0, 72, 0
2, 53040, Note_on_c, 0, 71, 36
2, 53148, Note_on_c, 0, 71, 0
2, 53160, Note_on_c, 0, 69, 37
2, 53268, Note_on_c, 0, 69, 0
2, 53280, Note_on_c, 0, 67, 42
2, 53388, Note_on_c, 0, 67, 0
2, 53400, Note_on_c, 0, 69, 36
2, 53508, Note_on_c, 0, 69, 0
2, 53520, Note_on_c, 0, 71, 40
2, 53628, Note_on_c, 0, 71, 0
2, 53640, Note_on_c, 0, 62, 36
2, 53748, Note_on_c, 0, 62, 0
2, 53760, Note_on_c, 0, 59, 46
2, 53868, Note_on_c, 0, 59, 0
2, 53880, Note_on_c, 0, 62, 40
2, 53988, Note_on_c, 0, 62, 0
2, 54000, Note_on_c, 0, 67, 41
2, 54108, Note_on_c, 0, 67, 0
2, 54120, Note_on_c, 0, 69, 34
2, 54228, Note_on_c, 0, 69, 0
2, 54240, Note_on_c, 0, 71, 41
2, 54348, Note_on_c, 0, 71, 0
2, 54360, Note_on_c, 0, 69, 39
2, 54468, Note_on_c, 0, 69, 0
2, 54480, Note_on_c, 0, 67, 39
2, 54588, Note_on_c, 0, 67, 0
2, 54600, Note_on_c, 0, 76, 46
2, 54708, Note_on_c, 0, 76, 0
2, 54720, Note_on_c, 0, 74, 46
2, 54828, Note_on_c, 0, 74, 0
2, 54840, Note_on_c, 0, 72, 40
2, 54948, Note_on_c, 0, 72, 0
2, 54960, Note_on_c, 0, 71, 36
2, 55068, Note_on_c, 0, 71, 0
2, 55080, Note_on_c, 0, 69, 37
2, 55188, Note_on_c, 0, 69, 0
2, 55200, Note_on_c, 0, 67, 42
2, 55308, Note_on_c, 0, 67, 0
2, 55320, Note_on_c, 0, 69, 36
2, 55428, Note_on_c, 0, 69, 0
2, 55440, Note_on_c, 0, 71, 40
2, 55548, Note_on_c, 0, 71, 0
2, 55560, Note_on_c, 0, 62, 36
2, 55668, Note_on_c, 0, 62, 0
2, 55680, Note_on_c, 0, 59, 46
2, 55788, Note_on_c, 0, 59, 0
2, 55800, Note_on_c, 0, 62, 40
2, 55908, Note_on_c, 0, 62, 0
2, 55920, Note_on_c, 0, 67, 41
2, 56028, Note_on_c, 0, 67, 0
2, 56040, Note_on_c, 0, 69, 34
2, 56148, Note_on_c, 0, 69, 0
2, 56160, Note_on_c, 0, 67, 41
2, 56268, Note_on_c, 0, 67, 0
2, 56280, Note_on_c, 0, 69, 39
2, 56388, Note_on_c, 0, 69, 0
2, 56400, Note_on_c, 0, 71, 39
2, 56508, Note_on_c, 0, 71, 0
2, 56520, Note_on_c, 0, 62, 46
2, 56628, Note_on_c, 0, 62, 0
2, 56640, Note_on_c, 0, 59, 46
2, 56748, Note_on_c, 0, 59, 0
2, 56760, Note_on_c, 0, 62, 40
2, 56868, Note_on_c, 0, 62, 0
2, 56880, Note_on_c, 0, 67, 36
2, 56988, Note_on_c, 0, 67, 0
2, 57000, Note_on_c, 0, 69, 37
2, 57108, Note_on_c, 0, 69, 0
2, 57120, Note_on_c, 0, 67, 42
2, 57228, Note_on_c, 0, 67, 0
2, 57240, Note_on_c, 0, 69, 36
2, 57348, Note_on_c, 0, 69, 0
2, 57360, Note_on_c, 0, 71, 40
2, 57468, Note_on_c, 0, 71, 0
2, 57480, Note_on_c, 0, 62, 36
2, 57588, Note_on_c, 0, 62, 0
2, 57600, Note_on_c, 0, 59, 46
2, 57708, Note_on_c, 0, 59, 0
2, 57720, Note_on_c, 0, 62, 40
2, 57828, Note_on_c, 0, 62, 0
2, 57840, Note_on_c, 0, 67, 41
2, 57948, Note_on_c, 0, 67, 0
2, 57960, Note_on_c, 0, 69, 34
2, 58068, Note_on_c, 0, 69, 0
2, 58080, Note_on_c, 0, 67, 41
2, 58188, Note_on_c, 0, 67, 0
2, 58200, Note_on_c, 0, 69, 38
2, 58308, Note_on_c, 0, 69, 0
2, 58320, Note_on_c, 0, 71, 37
2, 58428, Note_on_c, 0, 71, 0
2, 58440, Note_on_c, 0, 74, 42
2, 58548, Note_on_c, 0, 74, 0
2, 58560, Note_on_c, 0, 79, 42
2, 58680, Note_on_c, 0, 79, 0
2, 58680, Note_on_c, 0, 81, 38
2, 58800, Note_on_c, 0, 81, 0
2, 58800, Note_on_c, 0, 83, 40
2, 58920, Note_on_c, 0, 83, 0
2, 58920, Note_on_c, 0, 86, 34
2, 59040, Note_on_c, 0, 86, 0
2, 59040, Note_on_c, 0, 91, 39
2, 59160, Note_on_c, 0, 91, 0
2, 59160, Note_on_c, 0, 93, 38
2, 59280, Note_on_c, 0, 93, 0
2, 59280, Note_on_c, 0, 95, 37
2, 59400, Note_on_c, 0, 95, 0
2, 59400, Note_on_c, 0, 98, 37
2, 59520, Note_on_c, 0, 98, 0
2, 59520, Note_on_c, 0, 95, 50
2, 60000, Note_on_c, 0, 95, 0
2, 60390, Note_on_c, 0, 59, 34
2, 60420, Note_on_c, 0, 62, 37
2, 60450, Note_on_c, 0, 67, 40
2, 60480, Note_on_c, 0, 71, 44
2, 61440, Note_on_c, 0, 71, 0
2, 61440, Note_on_c, 0, 59, 0
2, 61440, Note_on_c, 0, 62, 0
2, 61440, Note_on_c, 0, 67, 0
2, 61530, Note_on_c, 0, 59, 33
2, 61560, Note_on_c, 0, 62, 35
2, 61590, Note_on_c, 0, 67, 37
2, 61620, Note_on_c, 0, 71, 39
2, 63360, Note_on_c, 0, 71, 0
2, 63360, Note_on_c, 0, 59, 0
2, 63360, Note_on_c, 0, 62, 0
2, 63360, Note_on_c, 0, 67, 0
2, 63360, End_track
3, 0, Start_track
3, 0, Title_t, "Piano left"
3, 0, Program_c, 0, 0
3, 0, Control_c, 0, 7, 100
3, 0, Control_c, 0, 10, 64
3, 0, Control_c, 0, 64, 127
3, 0, Control_c, 0, 91, 127
3, 0, Control_c, 0, 91, 127
3, 1, Note_on_c, 0, 43, 52
3, 120, Note_on_c, 0, 43, 0
3, 120, Note_on_c, 0, 50, 45
3, 240, Note_on_c, 0, 50, 0
3, 240, Note_on_c, 0, 55, 48
3, 360, Note_on_c, 0, 55, 0
3, 360, Note_on_c, 0, 57, 40
3, 480, Note_on_c, 0, 57, 0
3, 480, Note_on_c, 0, 59, 48
3, 600, Note_on_c, 0, 57, 44
3, 620, Note_on_c, 0, 59, 0
3, 720, Note_on_c, 0, 55, 44
3, 740, Note_on_c, 0, 57, 0
3, 840, Note_on_c, 0, 64, 52
3, 860, Note_on_c, 0, 55, 0
3, 960, Note_on_c, 0, 62, 52
3, 967, Control_c, 0, 64, 0
3, 980, Note_on_c, 0, 64, 0
3, 1009, Control_c, 0, 64, 127
3, 1080, Note_on_c, 0, 60, 45
3, 1100, Note_on_c, 0, 62, 0
3, 1200, Note_on_c, 0, 59, 41
3, 1220, Note_on_c, 0, 60, 0
3, 1320, Note_on_c, 0, 57, 42
3, 1340, Note_on_c, 0, 59, 0
3, 1440, Note_on_c, 0, 55, 49
3, 1460, Note_on_c, 0, 57, 0
3, 1560, Note_on_c, 0, 57, 41
3, 1580, Note_on_c, 0, 55, 0
3, 1680, Note_on_c, 0, 59, 45
3, 1700, Note_on_c, 0, 57, 0
3, 1800, Note_on_c, 0, 50, 41
3, 1820, Note_on_c, 0, 59, 0
3, 1920, Note_on_c, 0, 43, 52
3, 1931, Control_c, 0, 64, 0
3, 1940, Note_on_c, 0, 50, 0
3, 1991, Control_c, 0, 64, 127
3, 2040, Note_on_c, 0, 43, 0
3, 2040, Note_on_c, 0, 50, 45
3, 2160, Note_on_c, 0, 50, 0
3, 2160, Note_on_c, 0, 55, 48
3, 2280, Note_on_c, 0, 55, 0
3, 2280, Note_on_c, 0, 57, 40
3, 2400, Note_on_c, 0, 57, 0
3, 2400, Note_on_c, 0, 59, 48
3, 2520, Note_on_c, 0, 57, 44
3, 2540, Note_on_c, 0, 59, 0
3, 2640, Note_on_c, 0, 55, 44
3, 2660, Note_on_c, 0, 57, 0
3, 2760, Note_on_c, 0, 64, 52
3, 2780, Note_on_c, 0, 55, 0
3, 2880, Note_on_c, 0, 62, 52
3, 2896, Control_c, 0, 64, 0
3, 2900, Note_on_c, 0, 64, 0
3, 2958, Control_c, 0, 64, 127
3, 3000, Note_on_c, 0, 60, 45
3, 3020, Note_on_c, 0, 62, 0
3, 3120, Note_on_c, 0, 59, 41
3, 3140, Note_on_c, 0, 60, 0
3, 3240, Note_on_c, 0, 57, 42
3, 3260, Note_on_c, 0, 59, 0
3, 3360, Note_on_c, 0, 55, 49
3, 3380, Note_on_c, 0, 57, 0
3, 3480, Note_on_c, 0, 57, 41
3, 3500, Note_on_c, 0, 55, 0
3, 3600, Note_on_c, 0, 59, 45
3, 3620, Note_on_c, 0, 57, 0
3, 3720, Note_on_c, 0, 50, 41
3, 3740, Note_on_c, 0, 59, 0
3, 3840, Note_on_c, 0, 43, 52
3, 3851, Control_c, 0, 64, 0
3, 3860, Note_on_c, 0, 50, 0
3, 3918, Control_c, 0, 64, 127
3, 3960, Note_on_c, 0, 43, 0
3, 3960, Note_on_c, 0, 50, 45
3, 4080, Note_on_c, 0, 50, 0
3, 4080, Note_on_c, 0, 55, 48
3, 4200, Note_on_c, 0, 55, 0
3, 4200, Note_on_c, 0, 57, 40
3, 4320, Note_on_c, 0, 57, 0
3, 4320, Note_on_c, 0, 59, 48
3, 4440, Note_on_c, 0, 59, 0
3, 4440, Note_on_c, 0, 57, 44
3, 4560, Note_on_c, 0, 57, 0
3, 4560, Note_on_c, 0, 55, 44
3, 4680, Note_on_c, 0, 55, 0
3, 4680, Note_on_c, 0, 64, 52
3, 4800, Note_on_c, 0, 64, 0
3, 4800, Note_on_c, 0, 62, 52
3, 4807, Control_c, 0, 64, 0
3, 4849, Control_c, 0, 64, 127
3, 4920, Note_on_c, 0, 62, 0
3, 4920, Note_on_c, 0, 60, 45
3, 5040, Note_on_c, 0, 60, 0
3, 5040, Note_on_c, 0, 59, 41
3, 5160, Note_on_c, 0, 59, 0
3, 5160, Note_on_c, 0, 57, 42
3, 5280, Note_on_c, 0, 57, 0
3, 5280, Note_on_c, 0, 55, 49
3, 5400, Note_on_c, 0, 55, 0
3, 5400, Note_on_c, 0, 57, 41
3, 5520, Note_on_c, 0, 57, 0
3, 5520, Note_on_c, 0, 59, 45
3, 5640, Note_on_c, 0, 59, 0
3, 5640, Note_on_c, 0, 50, 41
3, 5760, Note_on_c, 0, 50, 0
3, 5760, Note_on_c, 0, 43, 52
3, 5767, Control_c, 0, 64, 0
3, 5838, Control_c, 0, 64, 127
3, 5880, Note_on_c, 0, 43, 0
3, 5880, Note_on_c, 0, 50, 46
3, 6000, Note_on_c, 0, 50, 0
3, 6000, Note_on_c, 0, 55, 50
3, 6120, Note_on_c, 0, 55, 0
3, 6120, Note_on_c, 0, 57, 44
3, 6240, Note_on_c, 0, 57, 0
3, 6240, Note_on_c, 0, 59, 55
3, 6360, Note_on_c, 0, 59, 0
3, 6360, Note_on_c, 0, 57, 53
3, 6480, Note_on_c, 0, 57, 0
3, 6480, Note_on_c, 0, 55, 55
3, 6600, Note_on_c, 0, 55, 0
3, 6600, Note_on_c, 0, 64, 68
3, 6720, Note_on_c, 0, 64, 0
3, 6720, Note_on_c, 0, 62, 70
3, 6735, Control_c, 0, 64, 0
3, 6798, Control_c, 0, 64, 127
3, 6840, Note_on_c, 0, 62, 0
3, 6840, Note_on_c, 0, 60, 61
3, 6960, Note_on_c, 0, 60, 0
3, 6960, Note_on_c, 0, 59, 55
3, 7080, Note_on_c, 0, 59, 0
3, 7080, Note_on_c, 0, 57, 56
3, 7200, Note_on_c, 0, 57, 0
3, 7200, Note_on_c, 0, 55, 66
3, 7320, Note_on_c, 0, 55, 0
3, 7320, Note_on_c, 0, 57, 55
3, 7440, Note_on_c, 0, 57, 0
3, 7440, Note_on_c, 0, 59, 60
3, 7560, Note_on_c, 0, 59, 0
3, 7560, Note_on_c, 0, 50, 55
3, 7680, Note_on_c, 0, 50, 0
3, 7680, Note_on_c, 0, 43, 68
3, 7688, Control_c, 0, 64, 0
3, 7751, Control_c, 0, 64, 127
3, 7800, Note_on_c, 0, 43, 0
3, 7800, Note_on_c, 0, 50, 58
3, 7920, Note_on_c, 0, 50, 0
3, 7920, Note_on_c, 0, 55, 60
3, 8040, Note_on_c, 0, 55, 0
3, 8040, Note_on_c, 0, 57, 49
3, 8160, Note_on_c, 0, 57, 0
3, 8160, Note_on_c, 0, 59, 58
3, 8280, Note_on_c, 0, 59, 0
3, 8280, Note_on_c, 0, 57, 52
3, 8400, Note_on_c, 0, 57, 0
3, 8400, Note_on_c, 0, 55, 52
3, 8520, Note_on_c, 0, 55, 0
3, 8520, Note_on_c, 0, 64, 60
3, 8640, Note_on_c, 0, 64, 0
3, 8640, Note_on_c, 0, 62, 60
3, 8647, Control_c, 0, 64, 0
3, 8689, Control_c, 0, 64, 127
3, 8760, Note_on_c, 0, 62, 0
3, 8760, Note_on_c, 0, 60, 50
3, 8880, Note_on_c, 0, 60, 0
3, 8880, Note_on_c, 0, 59, 45
3, 9000, Note_on_c, 0, 59, 0
3, 9000, Note_on_c, 0, 57, 45
3, 9120, Note_on_c, 0, 57, 0
3, 9120, Note_on_c, 0, 55, 52
3, 9240, Note_on_c, 0, 55, 0
3, 9240, Note_on_c, 0, 57, 42
3, 9360, Note_on_c, 0, 57, 0
3, 9360, Note_on_c, 0, 59, 46
3, 9480, Note_on_c, 0, 59, 0
3, 9480, Note_on_c, 0, 50, 41
3, 9600, Note_on_c, 0, 50, 0
3, 9600, Note_on_c, 0, 43, 46
3, 9606, Control_c, 0, 64, 0
3, 9706, Control_c, 0, 64, 127
3, 9720, Note_on_c, 0, 43, 0
3, 9720, Note_on_c, 0, 50, 40
3, 9840, Note_on_c, 0, 50, 0
3, 9840, Note_on_c, 0, 55, 42
3, 9960, Note_on_c, 0, 55, 0
3, 9960, Note_on_c, 0, 57, 38
3, 10080, Note_on_c, 0, 57, 0
3, 10080, Note_on_c, 0, 59, 46
3, 10200, Note_on_c, 0, 59, 0
3, 10200, Note_on_c, 0, 57, 42
3, 10320, Note_on_c, 0, 57, 0
3, 10320, Note_on_c, 0, 55, 44
3, 10440, Note_on_c, 0, 55, 0
3, 10440, Note_on_c, 0, 64, 53
3, 10560, Note_on_c, 0, 64, 0
3, 10560, Note_on_c, 0, 62, 55
3, 10575, Control_c, 0, 64, 0
3, 10680, Note_on_c, 0, 60, 48
3, 10700, Note_on_c, 0, 62, 0
3, 10800, Note_on_c, 0, 59, 41
3, 10820, Note_on_c, 0, 60, 0
3, 10920, Note_on_c, 0, 57, 42
3, 10940, Note_on_c, 0, 59, 0
3, 11040, Note_on_c, 0, 55, 48
3, 11060, Note_on_c, 0, 57, 0
3, 11160, Note_on_c, 0, 57, 39
3, 11180, Note_on_c, 0, 55, 0
3, 11280, Note_on_c, 0, 59, 41
3, 11300, Note_on_c, 0, 57, 0
3, 11400, Note_on_c, 0, 50, 37
3, 11420, Note_on_c, 0, 59, 0
3, 11520, Note_on_c, 0, 45, 46
3, 11540, Note_on_c, 0, 50, 0
3, 11577, Control_c, 0, 64, 127
3, 11640, Note_on_c, 0, 45, 0
3, 11640, Note_on_c, 0, 52, 40
3, 11760, Note_on_c, 0, 52, 0
3, 11760, Note_on_c, 0, 57, 42
3, 11880, Note_on_c, 0, 57, 0
3, 11880, Note_on_c, 0, 59, 34
3, 12000, Note_on_c, 0, 59, 0
3, 12000, Note_on_c, 0, 61, 42
3, 12120, Note_on_c, 0, 61, 0
3, 12120, Note_on_c, 0, 59, 39
3, 12240, Note_on_c, 0, 59, 0
3, 12240, Note_on_c, 0, 57, 39
3, 12360, Note_on_c, 0, 57, 0
3, 12360, Note_on_c, 0, 66, 46
3, 12480, Note_on_c, 0, 66, 0
3, 12480, Note_on_c, 0, 64, 46
3, 12491, Control_c, 0, 64, 0
3, 12547, Control_c, 0, 64, 127
3, 12600, Note_on_c, 0, 64, 0
3, 12600, Note_on_c, 0, 62, 40
3, 12720, Note_on_c, 0, 62, 0
3, 12720, Note_on_c, 0, 61, 36
3, 12840, Note_on_c, 0, 61, 0
3, 12840, Note_on_c, 0, 59, 37
3, 12960, Note_on_c, 0, 59, 0
3, 12960, Note_on_c, 0, 57, 44
3, 13080, Note_on_c, 0, 57, 0
3, 13080, Note_on_c, 0, 59, 36
3, 13200, Note_on_c, 0, 59, 0
3, 13200, Note_on_c, 0, 61, 40
3, 13320, Note_on_c, 0, 61, 0
3, 13320, Note_on_c, 0, 52, 36
3, 13440, Note_on_c, 0, 52, 0
3, 13440, Note_on_c, 0, 38, 46
3, 13452, Control_c, 0, 64, 0
3, 13528, Control_c, 0, 64, 127
3, 13560, Note_on_c, 0, 38, 0
3, 13560, Note_on_c, 0, 45, 40
3, 13680, Note_on_c, 0, 45, 0
3, 13680, Note_on_c, 0, 50, 42
3, 13800, Note_on_c, 0, 50, 0
3, 13800, Note_on_c, 0, 52, 34
3, 13920, Note_on_c, 0, 52, 0
3, 13920, Note_on_c, 0, 54, 42
3, 13926, Control_c, 0, 64, 0
3, 14040, Note_on_c, 0, 52, 39
3, 14060, Note_on_c, 0, 54, 0
3, 14160, Note_on_c, 0, 50, 39
3, 14180, Note_on_c, 0, 52, 0
3, 14280, Note_on_c, 0, 59, 46
3, 14300, Note_on_c, 0, 50, 0
3, 14400, Note_on_c, 0, 57, 46
3, 14420, Note_on_c, 0, 59, 0
3, 14520, Note_on_c, 0, 55, 40
3, 14540, Note_on_c, 0, 57, 0
3, 14640, Note_on_c, 0, 54, 36
3, 14660, Note_on_c, 0, 55, 0
3, 14760, Note_on_c, 0, 52, 37
3, 14780, Note_on_c, 0, 54, 0
3, 14880, Note_on_c, 0, 50, 44
3, 14900, Note_on_c, 0, 52, 0
3, 15000, Note_on_c, 0, 52, 36
3, 15020, Note_on_c, 0, 50, 0
3, 15120, Note_on_c, 0, 54, 40
3, 15140, Note_on_c, 0, 52, 0
3, 15240, Note_on_c, 0, 47, 36
3, 15260, Note_on_c, 0, 54, 0
3, 15360, Note_on_c, 0, 45, 46
3, 15380, Note_on_c, 0, 47, 0
3, 15417, Control_c, 0, 64, 127
3, 15480, Note_on_c, 0, 45, 0
3, 15480, Note_on_c, 0, 52, 40
3, 15600, Note_on_c, 0, 52, 0
3, 15600, Note_on_c, 0, 57, 42
3, 15720, Note_on_c, 0, 57, 0
3, 15720, Note_on_c, 0, 59, 34
3, 15840, Note_on_c, 0, 59, 0
3, 15840, Note_on_c, 0, 61, 44
3, 15960, Note_on_c, 0, 61, 0
3, 15960, Note_on_c, 0, 59, 40
3, 16080, Note_on_c, 0, 59, 0
3, 16080, Note_on_c, 0, 57, 41
3, 16200, Note_on_c, 0, 57, 0
3, 16200, Note_on_c, 0, 66, 49
3, 16320, Note_on_c, 0, 66, 0
3, 16320, Note_on_c, 0, 64, 50
3, 16332, Control_c, 0, 64, 0
3, 16380, Control_c, 0, 64, 127
3, 16440, Note_on_c, 0, 64, 0
3, 16440, Note_on_c, 0, 62, 44
3, 16560, Note_on_c, 0, 62, 0
3, 16560, Note_on_c, 0, 61, 40
3, 16680, Note_on_c, 0, 61, 0
3, 16680, Note_on_c, 0, 59, 41
3, 16800, Note_on_c, 0, 59, 0
3, 16800, Note_on_c, 0, 57, 50
3, 16920, Note_on_c, 0, 57, 0
3, 16920, Note_on_c, 0, 59, 41
3, 17040, Note_on_c, 0, 59, 0
3, 17040, Note_on_c, 0, 61, 46
3, 17160, Note_on_c, 0, 61, 0
3, 17160, Note_on_c, 0, 52, 42
3, 17280, Note_on_c, 0, 52, 0
3, 17280, Note_on_c, 0, 38, 41
3, 17290, Control_c, 0, 64, 0
3, 17340, Control_c, 0, 64, 127
3, 17400, Note_on_c, 0, 38, 0
3, 17400, Note_on_c, 0, 45, 38
3, 17520, Note_on_c, 0, 45, 0
3, 17520, Note_on_c, 0, 50, 38
3, 17640, Note_on_c, 0, 50, 0
3, 17640, Note_on_c, 0, 52, 37
3, 17760, Note_on_c, 0, 52, 0
3, 17760, Note_on_c, 0, 54, 45
3, 17775, Control_c, 0, 64, 0
3, 17880, Note_on_c, 0, 52, 41
3, 17900, Note_on_c, 0, 54, 0
3, 18000, Note_on_c, 0, 50, 41
3, 18020, Note_on_c, 0, 52, 0
3, 18120, Note_on_c, 0, 59, 41
3, 18140, Note_on_c, 0, 50, 0
3, 18240, Note_on_c, 0, 57, 46
3, 18260, Note_on_c, 0, 59, 0
3, 18360, Note_on_c, 0, 55, 41
3, 18380, Note_on_c, 0, 57, 0
3, 18480, Note_on_c, 0, 54, 37
3, 18500, Note_on_c, 0, 55, 0
3, 18600, Note_on_c, 0, 52, 39
3, 18620, Note_on_c, 0, 54, 0
3, 18720, Note_on_c, 0, 50, 45
3, 18740, Note_on_c, 0, 52, 0
3, 18840, Note_on_c, 0, 52, 36
3, 18860, Note_on_c, 0, 50, 0
3, 18960, Note_on_c, 0, 54, 40
3, 18980, Note_on_c, 0, 52, 0
3, 19080, Note_on_c, 0, 45, 36
3, 19100, Note_on_c, 0, 54, 0
3, 19200, Note_on_c, 0, 38, 46
3, 19220, Note_on_c, 0, 45, 0
3, 19249, Control_c, 0, 64, 127
3, 19320, Note_on_c, 0, 38, 0
3, 19320, Note_on_c, 0, 45, 40
3, 19440, Note_on_c, 0, 45, 0
3, 19440, Note_on_c, 0, 50, 42
3, 19560, Note_on_c, 0, 50, 0
3, 19560, Note_on_c, 0, 52, 34
3, 19680, Note_on_c, 0, 52, 0
3, 19680, Note_on_c, 0, 54, 42
3, 19800, Note_on_c, 0, 54, 0
3, 19800, Note_on_c, 0, 52, 39
3, 19920, Note_on_c, 0, 52, 0
3, 19920, Note_on_c, 0, 50, 39
3, 20040, Note_on_c, 0, 50, 0
3, 20040, Note_on_c, 0, 59, 46
3, 20160, Note_on_c, 0, 59, 0
3, 20160, Note_on_c, 0, 57, 46
3, 20173, Control_c, 0, 64, 0
3, 20242, Control_c, 0, 64, 127
3, 20280, Note_on_c, 0, 57, 0
3, 20280, Note_on_c, 0, 55, 40
3, 20400, Note_on_c, 0, 55, 0
3, 20400, Note_on_c, 0, 54, 36
3, 20520, Note_on_c, 0, 54, 0
3, 20520, Note_on_c, 0, 52, 37
3, 20640, Note_on_c, 0, 52, 0
3, 20640, Note_on_c, 0, 50, 44
3, 20760, Note_on_c, 0, 50, 0
3, 20760, Note_on_c, 0, 52, 36
3, 20880, Note_on_c, 0, 52, 0
3, 20880, Note_on_c, 0, 54, 40
3, 21000, Note_on_c, 0, 54, 0
3, 21000, Note_on_c, 0, 45, 36
3, 21120, Note_on_c, 0, 45, 0
3, 21120, Note_on_c, 0, 43, 52
3, 21131, Control_c, 0, 64, 0
3, 21219, Control_c, 0, 64, 127
3, 21240, Note_on_c, 0, 43, 0
3, 21240, Note_on_c, 0, 50, 45
3, 21360, Note_on_c, 0, 50, 0
3, 21360, Note_on_c, 0, 55, 48
3, 21480, Note_on_c, 0, 55, 0
3, 21480, Note_on_c, 0, 57, 40
3, 21600, Note_on_c, 0, 57, 0
3, 21600, Note_on_c, 0, 59, 48
3, 21720, Note_on_c, 0, 59, 0
3, 21720, Note_on_c, 0, 57, 44
3, 21840, Note_on_c, 0, 57, 0
3, 21840, Note_on_c, 0, 55, 44
3, 21960, Note_on_c, 0, 55, 0
3, 21960, Note_on_c, 0, 64, 52
3, 22080, Note_on_c, 0, 64, 0
3, 22080, Note_on_c, 0, 62, 52
3, 22087, Control_c, 0, 64, 0
3, 22129, Control_c, 0, 64, 127
3, 22200, Note_on_c, 0, 62, 0
3, 22200, Note_on_c, 0, 60, 45
3, 22320, Note_on_c, 0, 60, 0
3, 22320, Note_on_c, 0, 59, 41
3, 22440, Note_on_c, 0, 59, 0
3, 22440, Note_on_c, 0, 57, 42
3, 22560, Note_on_c, 0, 57, 0
3, 22560, Note_on_c, 0, 55, 49
3, 22680, Note_on_c, 0, 55, 0
3, 22680, Note_on_c, 0, 57, 41
3, 22800, Note_on_c, 0, 57, 0
3, 22800, Note_on_c, 0, 59, 45
3, 22920, Note_on_c, 0, 59, 0
3, 22920, Note_on_c, 0, 50, 41
3, 23040, Note_on_c, 0, 50, 0
3, 23040, Note_on_c, 0, 43, 52
3, 23049, Control_c, 0, 64, 0
3, 23118, Control_c, 0, 64, 127
3, 23160, Note_on_c, 0, 43, 0
3, 23160, Note_on_c, 0, 50, 46
3, 23280, Note_on_c, 0, 50, 0
3, 23280, Note_on_c, 0, 55, 50
3, 23400, Note_on_c, 0, 55, 0
3, 23400, Note_on_c, 0, 57, 44
3, 23520, Note_on_c, 0, 57, 0
3, 23520, Note_on_c, 0, 59, 55
3, 23640, Note_on_c, 0, 59, 0
3, 23640, Note_on_c, 0, 57, 53
3, 23760, Note_on_c, 0, 57, 0
3, 23760, Note_on_c, 0, 55, 55
3, 23880, Note_on_c, 0, 55, 0
3, 23880, Note_on_c, 0, 64, 68
3, 24000, Note_on_c, 0, 64, 0
3, 24000, Note_on_c, 0, 62, 70
3, 24015, Control_c, 0, 64, 0
3, 24078, Control_c, 0, 64, 127
3, 24120, Note_on_c, 0, 62, 0
3, 24120, Note_on_c, 0, 60, 61
3, 24240, Note_on_c, 0, 60, 0
3, 24240, Note_on_c, 0, 59, 55
3, 24360, Note_on_c, 0, 59, 0
3, 24360, Note_on_c, 0, 57, 56
3, 24480, Note_on_c, 0, 57, 0
3, 24480, Note_on_c, 0, 55, 66
3, 24600, Note_on_c, 0, 55, 0
3, 24600, Note_on_c, 0, 57, 55
3, 24720, Note_on_c, 0, 57, 0
3, 24720, Note_on_c, 0, 59, 60
3, 24840, Note_on_c, 0, 59, 0
3, 24840, Note_on_c, 0, 50, 55
3, 24960, Note_on_c, 0, 50, 0
3, 24960, Note_on_c, 0, 43, 68
3, 24968, Control_c, 0, 64, 0
3, 25031, Control_c, 0, 64, 127
3, 25080, Note_on_c, 0, 43, 0
3, 25080, Note_on_c, 0, 50, 58
3, 25200, Note_on_c, 0, 50, 0
3, 25200, Note_on_c, 0, 55, 60
3, 25320, Note_on_c, 0, 55, 0
3, 25320, Note_on_c, 0, 57, 49
3, 25440, Note_on_c, 0, 57, 0
3, 25440, Note_on_c, 0, 59, 58
3, 25560, Note_on_c, 0, 59, 0
3, 25560, Note_on_c, 0, 57, 52
3, 25680, Note_on_c, 0, 57, 0
3, 25680, Note_on_c, 0, 55, 52
3, 25800, Note_on_c, 0, 55, 0
3, 25800, Note_on_c, 0, 64, 60
3, 25920, Note_on_c, 0, 64, 0
3, 25920, Note_on_c, 0, 62, 60
3, 25927, Control_c, 0, 64, 0
3, 26005, Control_c, 0, 64, 127
3, 26040, Note_on_c, 0, 62, 0
3, 26040, Note_on_c, 0, 60, 50
3, 26160, Note_on_c, 0, 60, 0
3, 26160, Note_on_c, 0, 59, 45
3, 26280, Note_on_c, 0, 59, 0
3, 26280, Note_on_c, 0, 57, 45
3, 26400, Note_on_c, 0, 57, 0
3, 26400, Note_on_c, 0, 55, 52
3, 26520, Note_on_c, 0, 55, 0
3, 26520, Note_on_c, 0, 57, 42
3, 26640, Note_on_c, 0, 57, 0
3, 26640, Note_on_c, 0, 59, 46
3, 26760, Note_on_c, 0, 59, 0
3, 26760, Note_on_c, 0, 50, 41
3, 26880, Note_on_c, 0, 50, 0
3, 26880, Note_on_c, 0, 43, 46
3, 26890, Control_c, 0, 64, 0
3, 26965, Control_c, 0, 64, 127
3, 27000, Note_on_c, 0, 43, 0
3, 27000, Note_on_c, 0, 50, 40
3, 27120, Note_on_c, 0, 50, 0
3, 27120, Note_on_c, 0, 55, 42
3, 27240, Note_on_c, 0, 55, 0
3, 27240, Note_on_c, 0, 57, 38
3, 27360, Note_on_c, 0, 57, 0
3, 27360, Note_on_c, 0, 59, 46
3, 27480, Note_on_c, 0, 59, 0
3, 27480, Note_on_c, 0, 57, 42
3, 27600, Note_on_c, 0, 57, 0
3, 27600, Note_on_c, 0, 55, 44
3, 27720, Note_on_c, 0, 55, 0
3, 27720, Note_on_c, 0, 64, 53
3, 27840, Note_on_c, 0, 64, 0
3, 27840, Note_on_c, 0, 62, 55
3, 27855, Control_c, 0, 64, 0
3, 27960, Note_on_c, 0, 60, 48
3, 27980, Note_on_c, 0, 62, 0
3, 28080, Note_on_c, 0, 59, 41
3, 28100, Note_on_c, 0, 60, 0
3, 28200, Note_on_c, 0, 57, 42
3, 28220, Note_on_c, 0, 59, 0
3, 28320, Note_on_c, 0, 55, 48
3, 28340, Note_on_c, 0, 57, 0
3, 28440, Note_on_c, 0, 57, 39
3, 28460, Note_on_c, 0, 55, 0
3, 28560, Note_on_c, 0, 59, 41
3, 28580, Note_on_c, 0, 57, 0
3, 28680, Note_on_c, 0, 50, 37
3, 28700, Note_on_c, 0, 59, 0
3, 28800, Note_on_c, 0, 43, 41
3, 28820, Note_on_c, 0, 50, 0
3, 28857, Control_c, 0, 64, 127
3, 28920, Note_on_c, 0, 43, 0
3, 28920, Note_on_c, 0, 50, 36
3, 29040, Note_on_c, 0, 50, 0
3, 29040, Note_on_c, 0, 55, 38
3, 29160, Note_on_c, 0, 55, 0
3, 29160, Note_on_c, 0, 57, 30
3, 29280, Note_on_c, 0, 57, 0
3, 29280, Note_on_c, 0, 59, 38
3, 29400, Note_on_c, 0, 59, 0
3, 29400, Note_on_c, 0, 57, 34
3, 29520, Note_on_c, 0, 57, 0
3, 29520, Note_on_c, 0, 55, 34
3, 29640, Note_on_c, 0, 55, 0
3, 29640, Note_on_c, 0, 64, 42
3, 29760, Note_on_c, 0, 64, 0
3, 29760, Note_on_c, 0, 62, 42
3, 29766, Control_c, 0, 64, 0
3, 29831, Control_c, 0, 64, 127
3, 29880, Note_on_c, 0, 62, 0
3, 29880, Note_on_c, 0, 60, 37
3, 30000, Note_on_c, 0, 60, 0
3, 30000, Note_on_c, 0, 59, 31
3, 30120, Note_on_c, 0, 59, 0
3, 30120, Note_on_c, 0, 57, 34
3, 30240, Note_on_c, 0, 57, 0
3, 30240, Note_on_c, 0, 55, 41
3, 30360, Note_on_c, 0, 55, 0
3, 30360, Note_on_c, 0, 57, 34
3, 30480, Note_on_c, 0, 57, 0
3, 30480, Note_on_c, 0, 59, 38
3, 30600, Note_on_c, 0, 59, 0
3, 30600, Note_on_c, 0, 50, 34
3, 30720, Note_on_c, 0, 50, 0
3, 30720, Note_on_c, 0, 43, 44
3, 30732, Control_c, 0, 64, 0
3, 30777, Control_c, 0, 64, 127
3, 30840, Note_on_c, 0, 43, 0
3, 30840, Note_on_c, 0, 50, 39
3, 30960, Note_on_c, 0, 50, 0
3, 30960, Note_on_c, 0, 55, 41
3, 31080, Note_on_c, 0, 55, 0
3, 31080, Note_on_c, 0, 57, 31
3, 31200, Note_on_c, 0, 57, 0
3, 31200, Note_on_c, 0, 59, 41
3, 31320, Note_on_c, 0, 59, 0
3, 31320, Note_on_c, 0, 57, 38
3, 31440, Note_on_c, 0, 57, 0
3, 31440, Note_on_c, 0, 55, 38
3, 31455, Control_c, 0, 64, 0
3, 31475, Control_c, 0, 64, 127
3, 31560, Note_on_c, 0, 55, 0
3, 31560, Note_on_c, 0, 64, 42
3, 31680, Note_on_c, 0, 64, 0
3, 31680, Note_on_c, 0, 62, 45
3, 31694, Control_c, 0, 64, 0
3, 31734, Control_c, 0, 64, 127
3, 31800, Note_on_c, 0, 62, 0
3, 31800, Note_on_c, 0, 60, 40
3, 31920, Note_on_c, 0, 60, 0
3, 31920, Note_on_c, 0, 59, 37
3, 32040, Note_on_c, 0, 59, 0
3, 32040, Note_on_c, 0, 57, 38
3, 32160, Note_on_c, 0, 57, 0
3, 32160, Note_on_c, 0, 55, 44
3, 32280, Note_on_c, 0, 55, 0
3, 32280, Note_on_c, 0, 57, 38
3, 32400, Note_on_c, 0, 57, 0
3, 32400, Note_on_c, 0, 59, 41
3, 32520, Note_on_c, 0, 59, 0
3, 32520, Note_on_c, 0, 43, 38
3, 32640, Note_on_c, 0, 43, 0
3, 32640, Note_on_c, 0, 36, 44
3, 32650, Control_c, 0, 64, 0
3, 32731, Control_c, 0, 64, 127
3, 32760, Note_on_c, 0, 36, 0
3, 32760, Note_on_c, 0, 43, 39
3, 32880, Note_on_c, 0, 48, 46
3, 32900, Note_on_c, 0, 43, 0
3, 33000, Note_on_c, 0, 50, 41
3, 33020, Note_on_c, 0, 48, 0
3, 33120, Note_on_c, 0, 52, 49
3, 33132, Control_c, 0, 64, 0
3, 33140, Note_on_c, 0, 50, 0
3, 33240, Note_on_c, 0, 50, 45
3, 33260, Note_on_c, 0, 52, 0
3, 33360, Note_on_c, 0, 48, 45
3, 33380, Note_on_c, 0, 50, 0
3, 33480, Note_on_c, 0, 57, 53
3, 33500, Note_on_c, 0, 48, 0
3, 33600, Note_on_c, 0, 55, 53
3, 33620, Note_on_c, 0, 57, 0
3, 33720, Note_on_c, 0, 53, 45
3, 33740, Note_on_c, 0, 55, 0
3, 33840, Note_on_c, 0, 52, 40
3, 33860, Note_on_c, 0, 53, 0
3, 33960, Note_on_c, 0, 50, 41
3, 33980, Note_on_c, 0, 52, 0
3, 34080, Note_on_c, 0, 48, 49
3, 34100, Note_on_c, 0, 50, 0
3, 34200, Note_on_c, 0, 50, 40
3, 34220, Note_on_c, 0, 48, 0
3, 34320, Note_on_c, 0, 52, 44
3, 34340, Note_on_c, 0, 50, 0
3, 34440, Note_on_c, 0, 43, 40
3, 34460, Note_on_c, 0, 52, 0
3, 34560, Note_on_c, 0, 36, 50
3, 34580, Note_on_c, 0, 43, 0
3, 34606, Control_c, 0, 64, 127
3, 34680, Note_on_c, 0, 43, 44
3, 34700, Note_on_c, 0, 36, 0
3, 34800, Note_on_c, 0, 48, 45
3, 34820, Note_on_c, 0, 43, 0
3, 34920, Note_on_c, 0, 50, 37
3, 34940, Note_on_c, 0, 48, 0
3, 35040, Note_on_c, 0, 52, 45
3, 35051, Control_c, 0, 64, 0
3, 35060, Note_on_c, 0, 50, 0
3, 35160, Note_on_c, 0, 50, 41
3, 35180, Note_on_c, 0, 52, 0
3, 35280, Note_on_c, 0, 48, 40
3, 35300, Note_on_c, 0, 50, 0
3, 35400, Note_on_c, 0, 57, 49
3, 35420, Note_on_c, 0, 48, 0
3, 35520, Note_on_c, 0, 55, 48
3, 35540, Note_on_c, 0, 57, 0
3, 35640, Note_on_c, 0, 53, 41
3, 35660, Note_on_c, 0, 55, 0
3, 35760, Note_on_c, 0, 52, 37
3, 35780, Note_on_c, 0, 53, 0
3, 35880, Note_on_c, 0, 50, 37
3, 35900, Note_on_c, 0, 52, 0
3, 36000, Note_on_c, 0, 48, 44
3, 36020, Note_on_c, 0, 50, 0
3, 36120, Note_on_c, 0, 50, 36
3, 36140, Note_on_c, 0, 48, 0
3, 36240, Note_on_c, 0, 52, 40
3, 36260, Note_on_c, 0, 50, 0
3, 36360, Note_on_c, 0, 43, 36
3, 36380, Note_on_c, 0, 52, 0
3, 36480, Note_on_c, 0, 36, 46
3, 36500, Note_on_c, 0, 43, 0
3, 36537, Control_c, 0, 64, 127
3, 36600, Note_on_c, 0, 36, 0
3, 36600, Note_on_c, 0, 43, 40
3, 36720, Note_on_c, 0, 43, 0
3, 36720, Note_on_c, 0, 48, 42
3, 36840, Note_on_c, 0, 48, 0
3, 36840, Note_on_c, 0, 50, 34
3, 36960, Note_on_c, 0, 50, 0
3, 36960, Note_on_c, 0, 52, 42
3, 37080, Note_on_c, 0, 52, 0
3, 37080, Note_on_c, 0, 50, 39
3, 37200, Note_on_c, 0, 50, 0
3, 37200, Note_on_c, 0, 48, 39
3, 37320, Note_on_c, 0, 48, 0
3, 37320, Note_on_c, 0, 57, 48
3, 37440, Note_on_c, 0, 57, 0
3, 37440, Note_on_c, 0, 55, 48
3, 37452, Control_c, 0, 64, 0
3, 37515, Control_c, 0, 64, 127
3, 37560, Note_on_c, 0, 55, 0
3, 37560, Note_on_c, 0, 53, 41
3, 37680, Note_on_c, 0, 53, 0
3, 37680, Note_on_c, 0, 52, 37
3, 37800, Note_on_c, 0, 52, 0
3, 37800, Note_on_c, 0, 50, 39
3, 37920, Note_on_c, 0, 50, 0
3, 37920, Note_on_c, 0, 48, 46
3, 38040, Note_on_c, 0, 48, 0
3, 38040, Note_on_c, 0, 50, 39
3, 38160, Note_on_c, 0, 50, 0
3, 38160, Note_on_c, 0, 52, 42
3, 38280, Note_on_c, 0, 52, 0
3, 38280, Note_on_c, 0, 43, 39
3, 38400, Note_on_c, 0, 43, 0
3, 38400, Note_on_c, 0, 36, 50
3, 38410, Control_c, 0, 64, 0
3, 38457, Control_c, 0, 64, 127
3, 38520, Note_on_c, 0, 36, 0
3, 38520, Note_on_c, 0, 43, 44
3, 38640, Note_on_c, 0, 43, 0
3, 38640, Note_on_c, 0, 48, 48
3, 38760, Note_on_c, 0, 48, 0
3, 38760, Note_on_c, 0, 50, 40
3, 38880, Note_on_c, 0, 50, 0
3, 38880, Note_on_c, 0, 52, 50
3, 39000, Note_on_c, 0, 52, 0
3, 39000, Note_on_c, 0, 50, 48
3, 39120, Note_on_c, 0, 50, 0
3, 39120, Note_on_c, 0, 48, 49
3, 39240, Note_on_c, 0, 48, 0
3, 39240, Note_on_c, 0, 57, 63
3, 39360, Note_on_c, 0, 57, 0
3, 39360, Note_on_c, 0, 55, 63
3, 39371, Control_c, 0, 64, 0
3, 39457, Control_c, 0, 64, 127
3, 39480, Note_on_c, 0, 55, 0
3, 39480, Note_on_c, 0, 53, 52
3, 39600, Note_on_c, 0, 53, 0
3, 39600, Note_on_c, 0, 52, 46
3, 39720, Note_on_c, 0, 52, 0
3, 39720, Note_on_c, 0, 50, 46
3, 39840, Note_on_c, 0, 50, 0
3, 39840, Note_on_c, 0, 48, 55
3, 39960, Note_on_c, 0, 48, 0
3, 39960, Note_on_c, 0, 50, 44
3, 40080, Note_on_c, 0, 50, 0
3, 40080, Note_on_c, 0, 52, 48
3, 40200, Note_on_c, 0, 52, 0
3, 40200, Note_on_c, 0, 43, 42
3, 40320, Note_on_c, 0, 43, 0
3, 40320, Note_on_c, 0, 36, 56
3, 40329, Control_c, 0, 64, 0
3, 40376, Control_c, 0, 64, 127
3, 40440, Note_on_c, 0, 36, 0
3, 40440, Note_on_c, 0, 43, 48
3, 40560, Note_on_c, 0, 43, 0
3, 40560, Note_on_c, 0, 48, 50
3, 40680, Note_on_c, 0, 48, 0
3, 40680, Note_on_c, 0, 50, 41
3, 40800, Note_on_c, 0, 50, 0
3, 40800, Note_on_c, 0, 52, 49
3, 40810, Control_c, 0, 64, 0
3, 40920, Note_on_c, 0, 50, 45
3, 40940, Note_on_c, 0, 52, 0
3, 41040, Note_on_c, 0, 48, 45
3, 41060, Note_on_c, 0, 50, 0
3, 41160, Note_on_c, 0, 57, 53
3, 41180, Note_on_c, 0, 48, 0
3, 41280, Note_on_c, 0, 55, 53
3, 41300, Note_on_c, 0, 57, 0
3, 41400, Note_on_c, 0, 54, 45
3, 41420, Note_on_c, 0, 55, 0
3, 41520, Note_on_c, 0, 52, 40
3, 41540, Note_on_c, 0, 54, 0
3, 41640, Note_on_c, 0, 50, 41
3, 41660, Note_on_c, 0, 52, 0
3, 41760, Note_on_c, 0, 48, 49
3, 41780, Note_on_c, 0, 50, 0
3, 41880, Note_on_c, 0, 50, 40
3, 41900, Note_on_c, 0, 48, 0
3, 42000, Note_on_c, 0, 52, 44
3, 42020, Note_on_c, 0, 50, 0
3, 42120, Note_on_c, 0, 43, 40
3, 42140, Note_on_c, 0, 52, 0
3, 42240, Note_on_c, 0, 36, 50
3, 42260, Note_on_c, 0, 43, 0
3, 42297, Control_c, 0, 64, 127
3, 42360, Note_on_c, 0, 36, 0
3, 42360, Note_on_c, 0, 43, 44
3, 42480, Note_on_c, 0, 43, 0
3, 42480, Note_on_c, 0, 48, 45
3, 42600, Note_on_c, 0, 48, 0
3, 42600, Note_on_c, 0, 50, 37
3, 42720, Note_on_c, 0, 50, 0
3, 42720, Note_on_c, 0, 52, 45
3, 42734, Control_c, 0, 64, 0
3, 42840, Note_on_c, 0, 50, 41
3, 42860, Note_on_c, 0, 52, 0
3, 42960, Note_on_c, 0, 48, 40
3, 42980, Note_on_c, 0, 50, 0
3, 43080, Note_on_c, 0, 57, 49
3, 43100, Note_on_c, 0, 48, 0
3, 43200, Note_on_c, 0, 55, 48
3, 43220, Note_on_c, 0, 57, 0
3, 43320, Note_on_c, 0, 54, 41
3, 43340, Note_on_c, 0, 55, 0
3, 43440, Note_on_c, 0, 52, 37
3, 43460, Note_on_c, 0, 54, 0
3, 43560, Note_on_c, 0, 50, 37
3, 43580, Note_on_c, 0, 52, 0
3, 43680, Note_on_c, 0, 48, 44
3, 43700, Note_on_c, 0, 50, 0
3, 43800, Note_on_c, 0, 50, 36
3, 43820, Note_on_c, 0, 48, 0
3, 43920, Note_on_c, 0, 52, 40
3, 43940, Note_on_c, 0, 50, 0
3, 44040, Note_on_c, 0, 43, 36
3, 44060, Note_on_c, 0, 52, 0
3, 44160, Note_on_c, 0, 38, 50
3, 44180, Note_on_c, 0, 43, 0
3, 44231, Control_c, 0, 64, 127
3, 44280, Note_on_c, 0, 38, 0
3, 44280, Note_on_c, 0, 45, 44
3, 44400, Note_on_c, 0, 45, 0
3, 44400, Note_on_c, 0, 48, 45
3, 44520, Note_on_c, 0, 48, 0
3, 44520, Note_on_c, 0, 50, 37
3, 44640, Note_on_c, 0, 50, 0
3, 44640, Note_on_c, 0, 52, 45
3, 44760, Note_on_c, 0, 52, 0
3, 44760, Note_on_c, 0, 50, 41
3, 44880, Note_on_c, 0, 50, 0
3, 44880, Note_on_c, 0, 48, 40
3, 45000, Note_on_c, 0, 48, 0
3, 45000, Note_on_c, 0, 59, 49
3, 45120, Note_on_c, 0, 59, 0
3, 45120, Note_on_c, 0, 57, 48
3, 45134, Control_c, 0, 64, 0
3, 45240, Note_on_c, 0, 55, 41
3, 45260, Note_on_c, 0, 57, 0
3, 45360, Note_on_c, 0, 52, 37
3, 45380, Note_on_c, 0, 55, 0
3, 45480, Note_on_c, 0, 50, 37
3, 45500, Note_on_c, 0, 52, 0
3, 45600, Note_on_c, 0, 48, 44
3, 45620, Note_on_c, 0, 50, 0
3, 45720, Note_on_c, 0, 50, 36
3, 45740, Note_on_c, 0, 48, 0
3, 45840, Note_on_c, 0, 52, 40
3, 45860, Note_on_c, 0, 50, 0
3, 45960, Note_on_c, 0, 45, 36
3, 45980, Note_on_c, 0, 52, 0
3, 46080, Note_on_c, 0, 38, 50
3, 46100, Note_on_c, 0, 45, 0
3, 46126, Control_c, 0, 64, 127
3, 46200, Note_on_c, 0, 38, 0
3, 46200, Note_on_c, 0, 45, 44
3, 46320, Note_on_c, 0, 45, 0
3, 46320, Note_on_c, 0, 50, 45
3, 46440, Note_on_c, 0, 50, 0
3, 46440, Note_on_c, 0, 52, 37
3, 46560, Note_on_c, 0, 52, 0
3, 46560, Note_on_c, 0, 54, 45
3, 46571, Control_c, 0, 64, 0
3, 46680, Note_on_c, 0, 52, 41
3, 46700, Note_on_c, 0, 54, 0
3, 46800, Note_on_c, 0, 50, 40
3, 46820, Note_on_c, 0, 52, 0
3, 46920, Note_on_c, 0, 59, 49
3, 46940, Note_on_c, 0, 50, 0
3, 47040, Note_on_c, 0, 57, 48
3, 47060, Note_on_c, 0, 59, 0
3, 47160, Note_on_c, 0, 55, 41
3, 47180, Note_on_c, 0, 57, 0
3, 47280, Note_on_c, 0, 54, 37
3, 47300, Note_on_c, 0, 55, 0
3, 47400, Note_on_c, 0, 52, 37
3, 47420, Note_on_c, 0, 54, 0
3, 47520, Note_on_c, 0, 50, 44
3, 47540, Note_on_c, 0, 52, 0
3, 47640, Note_on_c, 0, 52, 36
3, 47660, Note_on_c, 0, 50, 0
3, 47760, Note_on_c, 0, 54, 40
3, 47780, Note_on_c, 0, 52, 0
3, 47880, Note_on_c, 0, 45, 36
3, 47900, Note_on_c, 0, 54, 0
3, 48000, Note_on_c, 0, 43, 50
3, 48020, Note_on_c, 0, 45, 0
3, 48064, Control_c, 0, 64, 127
3, 48120, Note_on_c, 0, 43, 0
3, 48120, Note_on_c, 0, 50, 44
3, 48240, Note_on_c, 0, 50, 0
3, 48240, Note_on_c, 0, 55, 45
3, 48360, Note_on_c, 0, 55, 0
3, 48360, Note_on_c, 0, 57, 37
3, 48480, Note_on_c, 0, 57, 0
3, 48480, Note_on_c, 0, 59, 45
3, 48494, Control_c, 0, 64, 0
3, 48600, Note_on_c, 0, 57, 41
3, 48620, Note_on_c, 0, 59, 0
3, 48720, Note_on_c, 0, 55, 40
3, 48740, Note_on_c, 0, 57, 0
3, 48840, Note_on_c, 0, 64, 49
3, 48860, Note_on_c, 0, 55, 0
3, 48960, Note_on_c, 0, 62, 48
3, 48980, Note_on_c, 0, 64, 0
3, 49080, Note_on_c, 0, 60, 41
3, 49100, Note_on_c, 0, 62, 0
3, 49200, Note_on_c, 0, 59, 37
3, 49220, Note_on_c, 0, 60, 0
3, 49320, Note_on_c, 0, 57, 37
3, 49340, Note_on_c, 0, 59, 0
3, 49440, Note_on_c, 0, 55, 44
3, 49460, Note_on_c, 0, 57, 0
3, 49560, Note_on_c, 0, 57, 36
3, 49580, Note_on_c, 0, 55, 0
3, 49680, Note_on_c, 0, 59, 40
3, 49700, Note_on_c, 0, 57, 0
3, 49800, Note_on_c, 0, 50, 36
3, 49820, Note_on_c, 0, 59, 0
3, 49920, Note_on_c, 0, 43, 50
3, 49940, Note_on_c, 0, 50, 0
3, 49977, Control_c, 0, 64, 127
3, 50040, Note_on_c, 0, 43, 0
3, 50040, Note_on_c, 0, 50, 44
3, 50160, Note_on_c, 0, 50, 0
3, 50160, Note_on_c, 0, 55, 45
3, 50280, Note_on_c, 0, 55, 0
3, 50280, Note_on_c, 0, 57, 37
3, 50400, Note_on_c, 0, 57, 0
3, 50400, Note_on_c, 0, 59, 45
3, 50520, Note_on_c, 0, 59, 0
3, 50520, Note_on_c, 0, 57, 41
3, 50640, Note_on_c, 0, 57, 0
3, 50640, Note_on_c, 0, 55, 40
3, 50760, Note_on_c, 0, 55, 0
3, 50760, Note_on_c, 0, 64, 49
3, 50880, Note_on_c, 0, 64, 0
3, 50880, Note_on_c, 0, 62, 48
3, 50889, Control_c, 0, 64, 0
3, 50940, Control_c, 0, 64, 127
3, 51000, Note_on_c, 0, 62, 0
3, 51000, Note_on_c, 0, 60, 41
3, 51120, Note_on_c, 0, 60, 0
3, 51120, Note_on_c, 0, 59, 37
3, 51240, Note_on_c, 0, 59, 0
3, 51240, Note_on_c, 0, 57, 37
3, 51360, Note_on_c, 0, 57, 0
3, 51360, Note_on_c, 0, 55, 44
3, 51480, Note_on_c, 0, 55, 0
3, 51480, Note_on_c, 0, 57, 36
3, 51600, Note_on_c, 0, 57, 0
3, 51600, Note_on_c, 0, 59, 40
3, 51720, Note_on_c, 0, 59, 0
3, 51720, Note_on_c, 0, 50, 36
3, 51840, Note_on_c, 0, 50, 0
3, 51840, Note_on_c, 0, 43, 40
3, 51850, Control_c, 0, 64, 0
3, 51948, Note_on_c, 0, 43, 0
3, 51960, Note_on_c, 0, 50, 34
3, 52068, Note_on_c, 0, 50, 0
3, 52080, Note_on_c, 0, 55, 37
3, 52188, Note_on_c, 0, 55, 0
3, 52200, Note_on_c, 0, 57, 30
3, 52308, Note_on_c, 0, 57, 0
3, 52320, Note_on_c, 0, 59, 37
3, 52428, Note_on_c, 0, 59, 0
3, 52440, Note_on_c, 0, 57, 33
3, 52548, Note_on_c, 0, 57, 0
3, 52560, Note_on_c, 0, 55, 33
3, 52668, Note_on_c, 0, 55, 0
3, 52680, Note_on_c, 0, 64, 40
3, 52788, Note_on_c, 0, 64, 0
3, 52800, Note_on_c, 0, 62, 40
3, 52908, Note_on_c, 0, 62, 0
3, 52920, Note_on_c, 0, 60, 34
3, 53028, Note_on_c, 0, 60, 0
3, 53040, Note_on_c, 0, 59, 31
3, 53148, Note_on_c, 0, 59, 0
3, 53160, Note_on_c, 0, 57, 33
3, 53268, Note_on_c, 0, 57, 0
3, 53280, Note_on_c, 0, 55, 38
3, 53388, Note_on_c, 0, 55, 0
3, 53400, Note_on_c, 0, 57, 31
3, 53508, Note_on_c, 0, 57, 0
3, 53520, Note_on_c, 0, 59, 34
3, 53628, Note_on_c, 0, 59, 0
3, 53640, Note_on_c, 0, 50, 31
3, 53748, Note_on_c, 0, 50, 0
3, 53760, Note_on_c, 0, 43, 40
3, 53868, Note_on_c, 0, 43, 0
3, 53880, Note_on_c, 0, 50, 34
3, 53988, Note_on_c, 0, 50, 0
3, 54000, Note_on_c, 0, 55, 37
3, 54108, Note_on_c, 0, 55, 0
3, 54120, Note_on_c, 0, 57, 30
3, 54228, Note_on_c, 0, 57, 0
3, 54240, Note_on_c, 0, 59, 37
3, 54348, Note_on_c, 0, 59, 0
3, 54360, Note_on_c, 0, 57, 33
3, 54468, Note_on_c, 0, 57, 0
3, 54480, Note_on_c, 0, 55, 33
3, 54588, Note_on_c, 0, 55, 0
3, 54600, Note_on_c, 0, 64, 40
3, 54708, Note_on_c, 0, 64, 0
3, 54720, Note_on_c, 0, 62, 40
3, 54828, Note_on_c, 0, 62, 0
3, 54840, Note_on_c, 0, 60, 34
3, 54948, Note_on_c, 0, 60, 0
3, 54960, Note_on_c, 0, 59, 31
3, 55068, Note_on_c, 0, 59, 0
3, 55080, Note_on_c, 0, 57, 33
3, 55188, Note_on_c, 0, 57, 0
3, 55200, Note_on_c, 0, 55, 38
3, 55308, Note_on_c, 0, 55, 0
3, 55320, Note_on_c, 0, 57, 31
3, 55428, Note_on_c, 0, 57, 0
3, 55440, Note_on_c, 0, 59, 34
3, 55548, Note_on_c, 0, 59, 0
3, 55560, Note_on_c, 0, 50, 31
3, 55668, Note_on_c, 0, 50, 0
3, 55680, Note_on_c, 0, 43, 40
3, 55788, Note_on_c, 0, 43, 0
3, 55800, Note_on_c, 0, 50, 34
3, 55908, Note_on_c, 0, 50, 0
3, 55920, Note_on_c, 0, 55, 37
3, 56028, Note_on_c, 0, 55, 0
3, 56040, Note_on_c, 0, 57, 30
3, 56148, Note_on_c, 0, 57, 0
3, 56160, Note_on_c, 0, 55, 37
3, 56268, Note_on_c, 0, 55, 0
3, 56280, Note_on_c, 0, 57, 33
3, 56388, Note_on_c, 0, 57, 0
3, 56400, Note_on_c, 0, 59, 33
3, 56508, Note_on_c, 0, 59, 0
3, 56520, Note_on_c, 0, 50, 40
3, 56628, Note_on_c, 0, 50, 0
3, 56640, Note_on_c, 0, 43, 40
3, 56748, Note_on_c, 0, 43, 0
3, 56760, Note_on_c, 0, 50, 34
3, 56868, Note_on_c, 0, 50, 0
3, 56880, Note_on_c, 0, 55, 31
3, 56988, Note_on_c, 0, 55, 0
3, 57000, Note_on_c, 0, 57, 33
3, 57108, Note_on_c, 0, 57, 0
3, 57120, Note_on_c, 0, 55, 38
3, 57228, Note_on_c, 0, 55, 0
3, 57240, Note_on_c, 0, 57, 31
3, 57348, Note_on_c, 0, 57, 0
3, 57360, Note_on_c, 0, 59, 34
3, 57468, Note_on_c, 0, 59, 0
3, 57480, Note_on_c, 0, 50, 31
3, 57588, Note_on_c, 0, 50, 0
3, 57600, Note_on_c, 0, 43, 40
3, 57643, Control_c, 0, 64, 127
3, 57708, Note_on_c, 0, 43, 0
3, 57720, Note_on_c, 0, 50, 34
3, 57828, Note_on_c, 0, 50, 0
3, 57840, Note_on_c, 0, 55, 37
3, 57948, Note_on_c, 0, 55, 0
3, 57960, Note_on_c, 0, 57, 30
3, 58068, Note_on_c, 0, 57, 0
3, 58080, Note_on_c, 0, 55, 37
3, 58188, Note_on_c, 0, 55, 0
3, 58200, Note_on_c, 0, 57, 33
3, 58308, Note_on_c, 0, 57, 0
3, 58320, Note_on_c, 0, 59, 31
3, 58428, Note_on_c, 0, 59, 0
3, 58440, Note_on_c, 0, 62, 38
3, 58548, Note_on_c, 0, 62, 0
3, 58560, Note_on_c, 0, 67, 37
3, 58680, Note_on_c, 0, 67, 0
3, 58680, Note_on_c, 0, 69, 31
3, 58800, Note_on_c, 0, 69, 0
3, 58800, Note_on_c, 0, 71, 38
3, 58920, Note_on_c, 0, 71, 0
3, 58920, Note_on_c, 0, 74, 31
3, 59040, Note_on_c, 0, 74, 0
3, 59040, Note_on_c, 0, 79, 34
3, 59160, Note_on_c, 0, 79, 0
3, 59160, Note_on_c, 0, 81, 33
3, 59280, Note_on_c, 0, 81, 0
3, 59280, Note_on_c, 0, 83, 31
3, 59400, Note_on_c, 0, 83, 0
3, 59400, Note_on_c, 0, 86, 30
3, 59520, Note_on_c, 0, 86, 0
3, 59520, Note_on_c, 0, 83, 40
3, 59530, Control_c, 0, 64, 0
3, 59707, Control_c, 0, 64, 127
3, 60000, Note_on_c, 0, 83, 0
3, 60027, Control_c, 0, 64, 0
3, 60275, Control_c, 0, 64, 127
3, 60300, Note_on_c, 0, 43, 31
3, 60330, Note_on_c, 0, 50, 33
3, 60360, Note_on_c, 0, 55, 36
3, 61440, Note_on_c, 0, 55, 0
3, 61440, Note_on_c, 0, 50, 0
3, 61440, Note_on_c, 0, 43, 0
3, 61440, Note_on_c, 0, 43, 27
3, 61470, Note_on_c, 0, 50, 30
3, 61500, Note_on_c, 0, 55, 35
3, 63360, Note_on_c, 0, 55, 0
3, 63360, Note_on_c, 0, 50, 0
3, 63360, Note_on_c, 0, 43, 0
3, 63360, Control_c, 0, 64, 0
3, 63360, End_track
4, 0, Start_track
4, 0, Title_t, "Chopin: Prelude No.3 in G Major, Op. 28"
4, 0, End_track
5, 0, Start_track
5, 0, Title_t, "Copyright © 2002 by Bernd Krueger"
5, 0, End_track
6, 0, Start_track
6, 0, Title_t, "http://www.piano-midi.de"
6, 0, End_track
7, 0, Start_track
7, 0, Title_t, "Edition: 2014-02-20"
7, 0, End_track
8, 0, Start_track
8, 0, Title_t, "Spur 7"
8, 0, Control_c, 0, 7, 127
8, 0, Control_c, 0, 10, 64
8, 0, End_track
9, 0, Start_track
9, 0, Title_t, "Spur 8"
9, 0, Control_c, 0, 7, 127
9, 0, Control_c, 0, 10, 64
9, 0, End_track
0, 0, End_of_file
