0, 0, Header, 1, 9, 480
1, 0, Start_track
1, 0, Title_t, "Chopin Prelude  No. 13, Opus 28"
1, 0, Copyright_t, "Copyright © 2002 by Bernd Krueger "
1, 0, Text_t, "Frederic Chopin"
1, 0, Text_t, "Lento"
1, 0, Text_t, "Fertiggestellt am 28.09.2002\012"
1, 0, Text_t, "Normierung: 23.12.2002\012"
1, 0, Text_t, "Update am 24.12.2002\012"
1, 0, Text_t, "Update am 20.7.2003\012"
1, 0, Text_t, "Update am 17.6.2010\012"
1, 0, Text_t, "Update am 21.2.2014\012"
1, 0, Text_t, "Dauer: 2:34 Minuten\012"
1, 0, SMPTE_offset, 96, 0, 3, 0, 0
1, 0, Time_signature, 6, 2, 24, 8
1, 0, Key_signature, 6, "major"
1, 0, Tempo, 693642
1, 240, Tempo, 662983
1, 480, Tempo, 588235
1, 960, Tempo, 603015
1, 1200, Tempo, 638298
1, 1440, Tempo, 670391
1, 1680, Tempo, 594059
1, 1920, Tempo, 574163
1, 2160, Tempo, 588235
1, 2400, Tempo, 609137
1, 2640, Tempo, 615385
1, 2880, Tempo, 634921
1, 3120, Tempo, 615385
1, 3360, Tempo, 582524
1, 3600, Tempo, 600000
1, 3840, Tempo, 597015
1, 4080, Tempo, 634921
1, 4320, Tempo, 655738
1, 4560, Tempo, 618557
1, 4800, Tempo, 600000
1, 5040, Tempo, 618557
1, 5280, Tempo, 615385
1, 5320, Tempo, 625000
1, 5520, Tempo, 648649
1, 5760, Tempo, 641711
1, 6000, Tempo, 618557
1, 6240, Tempo, 600000
1, 6720, Tempo, 615385
1, 6960, Tempo, 641711
1, 7200, Tempo, 666667
1, 7440, Tempo, 612245
1, 7680, Tempo, 588235
1, 8160, Tempo, 603015
1, 8400, Tempo, 638298
1, 8640, Tempo, 568720
1, 8880, Tempo, 576923
1, 9120, Tempo, 591133
1, 9360, Tempo, 574163
1, 9600, Tempo, 597015
1, 9840, Tempo, 670391
1, 10080, Tempo, 655738
1, 10320, Tempo, 603015
1, 10560, Tempo, 600000
1, 11280, Tempo, 648649
1, 11520, Tempo, 666667
1, 11760, Tempo, 612245
1, 12000, Tempo, 588235
1, 12480, Tempo, 603015
1, 12720, Tempo, 638298
1, 12960, Tempo, 645161
1, 13200, Tempo, 600000
1, 13440, Tempo, 588235
1, 13680, Tempo, 576923
1, 13920, Tempo, 603015
1, 14160, Tempo, 618557
1, 14400, Tempo, 628272
1, 14640, Tempo, 597015
1, 14880, Tempo, 579710
1, 15360, Tempo, 582524
1, 15600, Tempo, 621762
1, 15840, Tempo, 621762
1, 16080, Tempo, 594059
1, 16320, Tempo, 579710
1, 16800, Tempo, 603015
1, 17040, Tempo, 750000
1, 17160, Tempo, 710059
1, 17240, Tempo, 1025641
1, 17260, Tempo, 1304348
1, 17280, Tempo, 655738
1, 17520, Tempo, 612245
1, 17760, Tempo, 588235
1, 18240, Tempo, 603015
1, 18480, Tempo, 638298
1, 18720, Tempo, 666667
1, 18960, Tempo, 612245
1, 19200, Tempo, 588235
1, 19680, Tempo, 603015
1, 19920, Tempo, 638298
1, 20160, Tempo, 618557
1, 20400, Tempo, 600000
1, 20640, Tempo, 594059
1, 20760, Tempo, 597015
1, 20840, Tempo, 600000
1, 20960, Tempo, 603015
1, 21040, Tempo, 606061
1, 21160, Tempo, 609137
1, 21240, Tempo, 612245
1, 21360, Tempo, 615385
1, 21440, Tempo, 618557
1, 21520, Tempo, 621762
1, 21600, Tempo, 625000
1, 21840, Tempo, 648649
1, 22080, Tempo, 634921
1, 22320, Tempo, 681818
1, 22560, Tempo, 662983
1, 22800, Tempo, 923077
1, 22920, Tempo, 430108
1, 23040, Tempo, 666667
1, 23280, Tempo, 612245
1, 23520, Tempo, 588235
1, 24000, Tempo, 603015
1, 24240, Tempo, 638298
1, 24480, Tempo, 638298
1, 24720, Tempo, 594059
1, 24960, Tempo, 588235
1, 25200, Tempo, 571429
1, 25440, Tempo, 609137
1, 25480, Tempo, 588235
1, 25680, Tempo, 615385
1, 25920, Tempo, 634921
1, 26160, Tempo, 615385
1, 26400, Tempo, 594059
1, 26880, Tempo, 597015
1, 27120, Tempo, 634921
1, 27360, Tempo, 655738
1, 27600, Tempo, 618557
1, 27840, Tempo, 600000
1, 28320, Tempo, 615385
1, 28360, Tempo, 625000
1, 28560, Tempo, 648649
1, 28800, Tempo, 641711
1, 29040, Tempo, 618557
1, 29280, Tempo, 600000
1, 29760, Tempo, 615385
1, 30000, Tempo, 641711
1, 30240, Tempo, 666667
1, 30480, Tempo, 612245
1, 30720, Tempo, 588235
1, 30880, Tempo, 634921
1, 30920, Tempo, 648649
1, 30960, Tempo, 645161
1, 31000, Tempo, 641711
1, 31040, Tempo, 634921
1, 31080, Tempo, 631579
1, 31120, Tempo, 625000
1, 31160, Tempo, 621762
1, 31200, Tempo, 597015
1, 31440, Tempo, 638298
1, 31680, Tempo, 597015
1, 31920, Tempo, 576923
1, 32160, Tempo, 591133
1, 32400, Tempo, 574163
1, 32640, Tempo, 597015
1, 32880, Tempo, 652174
1, 33120, Tempo, 655738
1, 33360, Tempo, 603015
1, 33600, Tempo, 600000
1, 34320, Tempo, 648649
1, 34560, Tempo, 666667
1, 34800, Tempo, 612245
1, 35040, Tempo, 588235
1, 35520, Tempo, 603015
1, 35760, Tempo, 638298
1, 36000, Tempo, 645161
1, 36240, Tempo, 600000
1, 36480, Tempo, 588235
1, 36720, Tempo, 576923
1, 36960, Tempo, 603015
1, 37200, Tempo, 618557
1, 37440, Tempo, 628272
1, 37680, Tempo, 597015
1, 37920, Tempo, 579710
1, 38400, Tempo, 582524
1, 38640, Tempo, 645161
1, 38880, Tempo, 621762
1, 39120, Tempo, 594059
1, 39360, Tempo, 579710
1, 39840, Tempo, 603015
1, 40200, Tempo, 645161
1, 40320, Tempo, 655738
1, 40560, Tempo, 612245
1, 40800, Tempo, 588235
1, 41280, Tempo, 603015
1, 41520, Tempo, 638298
1, 41760, Tempo, 666667
1, 42000, Tempo, 612245
1, 42240, Tempo, 588235
1, 42720, Tempo, 603015
1, 42960, Tempo, 638298
1, 43200, Tempo, 628272
1, 43440, Tempo, 597015
1, 43680, Tempo, 579710
1, 44160, Tempo, 582524
1, 44400, Tempo, 645161
1, 44640, Tempo, 621762
1, 44880, Tempo, 594059
1, 45120, Tempo, 579710
1, 45600, Tempo, 603015
1, 45960, Tempo, 645161
1, 46080, Tempo, 655738
1, 46320, Tempo, 612245
1, 46560, Tempo, 588235
1, 47040, Tempo, 603015
1, 47280, Tempo, 638298
1, 47520, Tempo, 666667
1, 47760, Tempo, 612245
1, 48000, Tempo, 588235
1, 48480, Tempo, 603015
1, 48720, Tempo, 638298
1, 48960, Tempo, 666667
1, 49200, Tempo, 612245
1, 49440, Tempo, 588235
1, 49920, Tempo, 603015
1, 50160, Tempo, 670391
1, 50400, Tempo, 621762
1, 50640, Tempo, 594059
1, 50880, Tempo, 579710
1, 51360, Tempo, 603015
1, 51720, Tempo, 645161
1, 51840, Tempo, 677966
1, 52080, Tempo, 625000
1, 52320, Tempo, 603015
1, 52800, Tempo, 603015
1, 53040, Tempo, 638298
1, 53280, Tempo, 677966
1, 53520, Tempo, 638298
1, 53760, Tempo, 612245
1, 54240, Tempo, 625000
1, 54480, Tempo, 638298
1, 54720, Tempo, 689655
1, 54960, Tempo, 641711
1, 55200, Tempo, 615385
1, 55680, Tempo, 638298
1, 55920, Tempo, 655738
1, 56160, Tempo, 666667
1, 56200, Tempo, 710059
1, 56400, Tempo, 645161
1, 56640, Tempo, 621762
1, 57120, Tempo, 652174
1, 57360, Tempo, 714286
1, 57600, Tempo, 805369
1, 57840, Tempo, 779221
1, 58080, Tempo, 750000
1, 58800, Tempo, 816327
1, 59040, Tempo, 784314
1, 59280, Tempo, 764331
1, 60000, Tempo, 789474
1, 60720, Tempo, 774194
1, 60960, Tempo, 754717
1, 61560, Tempo, 727273
1, 61680, Tempo, 710059
1, 61920, Tempo, 745342
1, 62360, Tempo, 727273
1, 62440, Tempo, 731707
1, 62480, Tempo, 736196
1, 62520, Tempo, 740741
1, 62560, Tempo, 745342
1, 62600, Tempo, 750000
1, 62640, Tempo, 754717
1, 62680, Tempo, 759494
1, 62720, Tempo, 764331
1, 62760, Tempo, 769231
1, 62800, Tempo, 774194
1, 62840, Tempo, 779221
1, 62880, Tempo, 784314
1, 63360, Tempo, 805369
1, 63600, Tempo, 779221
1, 63840, Tempo, 750000
1, 64560, Tempo, 816327
1, 64800, Tempo, 784314
1, 65040, Tempo, 764331
1, 65760, Tempo, 789474
1, 66480, Tempo, 774194
1, 66720, Tempo, 754717
1, 67191, Tempo, 731707
1, 67200, Tempo, 718563
1, 67440, Tempo, 701754
1, 67680, Tempo, 774194
1, 68120, Tempo, 731707
1, 68160, Tempo, 754717
1, 68240, Tempo, 759494
1, 68320, Tempo, 764331
1, 68400, Tempo, 769231
1, 68480, Tempo, 774194
1, 68560, Tempo, 779221
1, 68600, Tempo, 784314
1, 68640, Tempo, 784314
1, 69120, Tempo, 736196
1, 69360, Tempo, 774194
1, 69600, Tempo, 754717
1, 69840, Tempo, 701754
1, 70080, Tempo, 705882
1, 70320, Tempo, 685714
1, 70560, Tempo, 736196
1, 70800, Tempo, 774194
1, 71040, Tempo, 754717
1, 71280, Tempo, 736196
1, 71520, Tempo, 710059
1, 71760, Tempo, 689655
1, 72000, Tempo, 736196
1, 72240, Tempo, 774194
1, 72480, Tempo, 745342
1, 73080, Tempo, 727273
1, 73200, Tempo, 710059
1, 73440, Tempo, 736196
1, 73680, Tempo, 774194
1, 74520, Tempo, 727273
1, 74640, Tempo, 731707
1, 74880, Tempo, 754717
1, 75120, Tempo, 800000
1, 75360, Tempo, 769231
1, 75840, Tempo, 740741
1, 76080, Tempo, 794702
1, 76320, Tempo, 774194
1, 76360, Tempo, 759494
1, 76560, Tempo, 805369
1, 76800, Tempo, 774194
1, 77280, Tempo, 784314
1, 77760, Tempo, 736196
1, 77800, Tempo, 769231
1, 78000, Tempo, 805369
1, 78240, Tempo, 779221
1, 79200, Tempo, 784314
1, 79440, Tempo, 727273
1, 80400, Tempo, 789474
1, 80640, Tempo, 693642
1, 80880, Tempo, 612245
1, 81120, Tempo, 588235
1, 81600, Tempo, 603015
1, 81840, Tempo, 638298
1, 82080, Tempo, 645161
1, 82320, Tempo, 600000
1, 82560, Tempo, 588235
1, 82800, Tempo, 576923
1, 83040, Tempo, 603015
1, 83280, Tempo, 618557
1, 83520, Tempo, 628272
1, 83760, Tempo, 597015
1, 84000, Tempo, 579710
1, 84480, Tempo, 582524
1, 84720, Tempo, 645161
1, 84960, Tempo, 621762
1, 85200, Tempo, 594059
1, 85440, Tempo, 579710
1, 85920, Tempo, 603015
1, 86280, Tempo, 645161
1, 86400, Tempo, 655738
1, 86640, Tempo, 612245
1, 86880, Tempo, 588235
1, 87360, Tempo, 603015
1, 87600, Tempo, 638298
1, 87840, Tempo, 666667
1, 88080, Tempo, 612245
1, 88320, Tempo, 588235
1, 88800, Tempo, 603015
1, 89040, Tempo, 638298
1, 89280, Tempo, 628272
1, 89520, Tempo, 597015
1, 89760, Tempo, 579710
1, 90240, Tempo, 582524
1, 90480, Tempo, 645161
1, 90720, Tempo, 621762
1, 90960, Tempo, 594059
1, 91200, Tempo, 579710
1, 91680, Tempo, 603015
1, 92040, Tempo, 645161
1, 92160, Tempo, 585366
1, 92400, Tempo, 612245
1, 92640, Tempo, 588235
1, 93120, Tempo, 603015
1, 93360, Tempo, 638298
1, 93600, Tempo, 666667
1, 93840, Tempo, 612245
1, 94080, Tempo, 588235
1, 94560, Tempo, 603015
1, 94800, Tempo, 638298
1, 95040, Tempo, 597015
1, 95280, Tempo, 612245
1, 95520, Tempo, 588235
1, 96000, Tempo, 603015
1, 96240, Tempo, 638298
1, 96480, Tempo, 585366
1, 96720, Tempo, 594059
1, 96960, Tempo, 579710
1, 97440, Tempo, 603015
1, 97800, Tempo, 645161
1, 97920, Tempo, 615385
1, 98160, Tempo, 625000
1, 98400, Tempo, 603015
1, 98880, Tempo, 618557
1, 99120, Tempo, 645161
1, 99360, Tempo, 685714
1, 99600, Tempo, 631579
1, 99840, Tempo, 609137
1, 100320, Tempo, 621762
1, 100560, Tempo, 655738
1, 100800, Tempo, 621762
1, 101040, Tempo, 631579
1, 101280, Tempo, 609137
1, 101760, Tempo, 621762
1, 102000, Tempo, 652174
1, 102240, Tempo, 681818
1, 102480, Tempo, 666667
1, 102720, Tempo, 621762
1, 103200, Tempo, 603015
1, 103240, Tempo, 631579
1, 103440, Tempo, 659341
1, 103680, Tempo, 740741
1, 103920, Tempo, 715137
1, 104840, Tempo, 745249
1, 104880, Tempo, 804290
1, 105080, Tempo, 702905
1, 105088, Tempo, 733496
1, 105153, Tempo, 740741
1, 105219, Tempo, 748130
1, 105284, Tempo, 755668
1, 105350, Tempo, 763359
1, 105415, Tempo, 771208
1, 105481, Tempo, 779221
1, 105546, Tempo, 787402
1, 105568, Tempo, 787402
1, 105590, Tempo, 795756
1, 105611, Tempo, 804290
1, 105633, Tempo, 813008
1, 105655, Tempo, 821918
1, 105677, Tempo, 831025
1, 105699, Tempo, 840336
1, 105721, Tempo, 849858
1, 105742, Tempo, 859599
1, 105764, Tempo, 869565
1, 105786, Tempo, 879765
1, 105808, Tempo, 900901
1, 105840, Tempo, 1010101
1, 106080, Tempo, 900901
1, 106320, Tempo, 1023891
1, 106440, Tempo, 1775148
1, 106560, Tempo, 857143
1, 110880, Tempo, 666667
1, 110880, End_track
2, 0, Start_track
2, 0, Title_t, "Piano right"
2, 0, Program_c, 0, 0
2, 0, Control_c, 0, 7, 100
2, 0, Control_c, 0, 10, 64
2, 0, Note_on_c, 0, 61, 34
2, 0, Note_on_c, 0, 66, 41
2, 0, Note_on_c, 0, 70, 55
2, 0, Text_t, "bdca426d104a26ac9dcb070447587523"
2, 0, Control_c, 0, 91, 127
2, 1440, Note_on_c, 0, 70, 0
2, 1440, Note_on_c, 0, 66, 0
2, 1440, Note_on_c, 0, 61, 0
2, 1440, Note_on_c, 0, 66, 41
2, 1440, Note_on_c, 0, 61, 34
2, 1440, Note_on_c, 0, 70, 55
2, 2880, Note_on_c, 0, 70, 0
2, 2880, Note_on_c, 0, 61, 0
2, 2880, Note_on_c, 0, 66, 0
2, 2880, Note_on_c, 0, 61, 34
2, 2880, Note_on_c, 0, 70, 55
2, 2880, Note_on_c, 0, 66, 41
2, 4320, Note_on_c, 0, 66, 0
2, 4320, Note_on_c, 0, 70, 0
2, 4320, Note_on_c, 0, 61, 0
2, 4320, Note_on_c, 0, 65, 41
2, 4320, Note_on_c, 0, 71, 55
2, 5280, Note_on_c, 0, 71, 0
2, 5280, Note_on_c, 0, 68, 49
2, 5760, Note_on_c, 0, 68, 0
2, 5760, Note_on_c, 0, 65, 0
2, 5760, Note_on_c, 0, 66, 37
2, 5760, Note_on_c, 0, 70, 51
2, 5760, Note_on_c, 0, 61, 32
2, 7200, Note_on_c, 0, 61, 0
2, 7200, Note_on_c, 0, 70, 0
2, 7200, Note_on_c, 0, 66, 0
2, 7200, Note_on_c, 0, 61, 35
2, 7200, Note_on_c, 0, 66, 43
2, 7200, Note_on_c, 0, 70, 57
2, 8160, Note_on_c, 0, 70, 0
2, 8160, Note_on_c, 0, 66, 0
2, 8160, Note_on_c, 0, 70, 59
2, 8160, Note_on_c, 0, 66, 44
2, 8640, Note_on_c, 0, 66, 0
2, 8640, Note_on_c, 0, 70, 0
2, 8640, Note_on_c, 0, 61, 0
2, 8640, Note_on_c, 0, 61, 33
2, 8640, Note_on_c, 0, 70, 66
2, 8640, Note_on_c, 0, 66, 49
2, 8928, Note_on_c, 0, 66, 0
2, 8928, Note_on_c, 0, 70, 0
2, 8928, Note_on_c, 0, 71, 49
2, 8928, Note_on_c, 0, 68, 36
2, 9216, Note_on_c, 0, 68, 0
2, 9216, Note_on_c, 0, 71, 0
2, 9216, Note_on_c, 0, 70, 49
2, 9216, Note_on_c, 0, 66, 36
2, 9504, Note_on_c, 0, 66, 0
2, 9504, Note_on_c, 0, 70, 0
2, 9504, Note_on_c, 0, 65, 36
2, 9504, Note_on_c, 0, 68, 49
2, 9792, Note_on_c, 0, 68, 0
2, 9792, Note_on_c, 0, 65, 0
2, 9792, Note_on_c, 0, 70, 47
2, 9792, Note_on_c, 0, 66, 36
2, 10080, Note_on_c, 0, 66, 0
2, 10080, Note_on_c, 0, 70, 0
2, 10080, Note_on_c, 0, 61, 0
2, 10080, Note_on_c, 0, 65, 32
2, 10080, Note_on_c, 0, 73, 66
2, 10080, Note_on_c, 0, 70, 49
2, 10560, Note_on_c, 0, 70, 0
2, 10560, Note_on_c, 0, 73, 0
2, 10560, Note_on_c, 0, 71, 49
2, 10560, Note_on_c, 0, 68, 36
2, 11040, Note_on_c, 0, 68, 0
2, 11040, Note_on_c, 0, 71, 0
2, 11040, Note_on_c, 0, 65, 0
2, 11280, Note_on_c, 0, 68, 50
2, 11280, Note_on_c, 0, 61, 32
2, 11520, Note_on_c, 0, 61, 0
2, 11520, Note_on_c, 0, 68, 0
2, 11520, Note_on_c, 0, 61, 34
2, 11520, Note_on_c, 0, 66, 46
2, 11520, Note_on_c, 0, 70, 55
2, 12960, Note_on_c, 0, 70, 0
2, 12960, Note_on_c, 0, 66, 0
2, 12960, Note_on_c, 0, 61, 0
2, 12960, Note_on_c, 0, 70, 55
2, 12960, Note_on_c, 0, 61, 41
2, 12960, Note_on_c, 0, 73, 66
2, 14400, Note_on_c, 0, 73, 0
2, 14400, Note_on_c, 0, 61, 0
2, 14400, Note_on_c, 0, 70, 0
2, 14400, Note_on_c, 0, 70, 62
2, 14400, Note_on_c, 0, 78, 72
2, 14400, Note_on_c, 0, 66, 46
2, 15840, Note_on_c, 0, 66, 0
2, 15840, Note_on_c, 0, 78, 0
2, 15840, Note_on_c, 0, 70, 0
2, 15840, Note_on_c, 0, 73, 50
2, 15840, Note_on_c, 0, 77, 60
2, 15840, Note_on_c, 0, 68, 37
2, 17160, Note_on_c, 0, 77, 0
2, 17160, Note_on_c, 0, 66, 36
2, 17200, Note_on_c, 0, 68, 42
2, 17240, Note_on_c, 0, 77, 44
2, 17280, Note_on_c, 0, 77, 0
2, 17280, Note_on_c, 0, 73, 0
2, 17280, Note_on_c, 0, 68, 0
2, 17280, Note_on_c, 0, 75, 56
2, 18720, Note_on_c, 0, 75, 0
2, 18720, Note_on_c, 0, 66, 0
2, 18720, Note_on_c, 0, 68, 0
2, 18720, Note_on_c, 0, 65, 28
2, 18720, Note_on_c, 0, 73, 45
2, 18720, Note_on_c, 0, 68, 37
2, 20160, Note_on_c, 0, 68, 0
2, 20160, Note_on_c, 0, 73, 0
2, 20160, Note_on_c, 0, 65, 0
2, 22920, Note_on_c, 0, 58, 27
2, 23040, Note_on_c, 0, 66, 36
2, 23040, Note_on_c, 0, 70, 49
2, 23040, Note_on_c, 0, 61, 27
2, 23060, Note_on_c, 0, 58, 0
2, 24480, Note_on_c, 0, 66, 0
2, 24480, Note_on_c, 0, 70, 0
2, 24480, Note_on_c, 0, 61, 0
2, 24480, Note_on_c, 0, 61, 34
2, 24480, Note_on_c, 0, 66, 41
2, 24480, Note_on_c, 0, 70, 55
2, 25920, Note_on_c, 0, 70, 0
2, 25920, Note_on_c, 0, 66, 0
2, 25920, Note_on_c, 0, 61, 0
2, 25920, Note_on_c, 0, 66, 41
2, 25920, Note_on_c, 0, 61, 34
2, 25920, Note_on_c, 0, 70, 55
2, 27360, Note_on_c, 0, 70, 0
2, 27360, Note_on_c, 0, 66, 0
2, 27360, Note_on_c, 0, 71, 55
2, 27360, Note_on_c, 0, 65, 46
2, 28680, Note_on_c, 0, 71, 0
2, 28680, Note_on_c, 0, 68, 46
2, 28800, Note_on_c, 0, 68, 0
2, 28800, Note_on_c, 0, 65, 0
2, 28800, Note_on_c, 0, 61, 0
2, 28800, Note_on_c, 0, 66, 37
2, 28800, Note_on_c, 0, 61, 32
2, 28800, Note_on_c, 0, 70, 51
2, 30240, Note_on_c, 0, 70, 0
2, 30240, Note_on_c, 0, 61, 0
2, 30240, Note_on_c, 0, 66, 0
2, 30240, Note_on_c, 0, 61, 41
2, 30240, Note_on_c, 0, 70, 55
2, 30240, Note_on_c, 0, 66, 41
2, 30720, Note_on_c, 0, 66, 0
2, 30880, Note_on_c, 0, 70, 0
2, 30880, Note_on_c, 0, 61, 0
2, 30880, Note_on_c, 0, 61, 26
2, 30880, Note_on_c, 0, 70, 48
2, 30880, Note_on_c, 0, 66, 35
2, 31032, Note_on_c, 0, 66, 0
2, 31032, Note_on_c, 0, 70, 0
2, 31032, Note_on_c, 0, 61, 0
2, 31040, Note_on_c, 0, 66, 36
2, 31040, Note_on_c, 0, 70, 49
2, 31040, Note_on_c, 0, 61, 27
2, 31192, Note_on_c, 0, 61, 0
2, 31192, Note_on_c, 0, 70, 0
2, 31192, Note_on_c, 0, 66, 0
2, 31200, Note_on_c, 0, 61, 28
2, 31200, Note_on_c, 0, 66, 36
2, 31200, Note_on_c, 0, 70, 51
2, 31352, Note_on_c, 0, 70, 0
2, 31352, Note_on_c, 0, 66, 0
2, 31352, Note_on_c, 0, 61, 0
2, 31360, Note_on_c, 0, 66, 39
2, 31360, Note_on_c, 0, 70, 52
2, 31360, Note_on_c, 0, 61, 29
2, 31512, Note_on_c, 0, 61, 0
2, 31512, Note_on_c, 0, 70, 0
2, 31512, Note_on_c, 0, 66, 0
2, 31520, Note_on_c, 0, 70, 56
2, 31520, Note_on_c, 0, 66, 41
2, 31520, Note_on_c, 0, 61, 31
2, 31672, Note_on_c, 0, 61, 0
2, 31672, Note_on_c, 0, 66, 0
2, 31672, Note_on_c, 0, 70, 0
2, 31680, Note_on_c, 0, 66, 49
2, 31680, Note_on_c, 0, 70, 66
2, 31680, Note_on_c, 0, 61, 36
2, 32160, Note_on_c, 0, 70, 0
2, 32160, Note_on_c, 0, 66, 0
2, 32160, Note_on_c, 0, 68, 41
2, 32160, Note_on_c, 0, 71, 57
2, 32400, Note_on_c, 0, 71, 0
2, 32400, Note_on_c, 0, 68, 0
2, 32400, Note_on_c, 0, 66, 43
2, 32400, Note_on_c, 0, 70, 58
2, 32640, Note_on_c, 0, 70, 0
2, 32640, Note_on_c, 0, 66, 0
2, 32640, Note_on_c, 0, 68, 60
2, 32640, Note_on_c, 0, 65, 44
2, 32880, Note_on_c, 0, 65, 0
2, 32880, Note_on_c, 0, 68, 0
2, 32880, Note_on_c, 0, 70, 60
2, 32880, Note_on_c, 0, 66, 45
2, 33120, Note_on_c, 0, 66, 0
2, 33120, Note_on_c, 0, 70, 0
2, 33120, Note_on_c, 0, 61, 0
2, 33120, Note_on_c, 0, 70, 49
2, 33120, Note_on_c, 0, 73, 66
2, 33120, Note_on_c, 0, 65, 36
2, 33600, Note_on_c, 0, 73, 0
2, 33600, Note_on_c, 0, 70, 0
2, 33600, Note_on_c, 0, 68, 34
2, 33600, Note_on_c, 0, 71, 46
2, 34080, Note_on_c, 0, 71, 0
2, 34080, Note_on_c, 0, 68, 0
2, 34080, Note_on_c, 0, 65, 0
2, 34320, Note_on_c, 0, 61, 32
2, 34320, Note_on_c, 0, 68, 50
2, 34560, Note_on_c, 0, 68, 0
2, 34560, Note_on_c, 0, 61, 0
2, 34560, Note_on_c, 0, 64, 46
2, 34560, Note_on_c, 0, 61, 34
2, 34560, Note_on_c, 0, 70, 55
2, 36000, Note_on_c, 0, 70, 0
2, 36000, Note_on_c, 0, 61, 0
2, 36000, Note_on_c, 0, 64, 0
2, 36000, Note_on_c, 0, 70, 66
2, 36000, Note_on_c, 0, 64, 55
2, 37320, Note_on_c, 0, 70, 0
2, 37320, Note_on_c, 0, 71, 62
2, 37440, Note_on_c, 0, 71, 0
2, 37440, Note_on_c, 0, 64, 0
2, 37440, Note_on_c, 0, 70, 59
2, 37440, Note_on_c, 0, 64, 44
2, 37440, Note_on_c, 0, 73, 71
2, 38880, Note_on_c, 0, 73, 0
2, 38880, Note_on_c, 0, 64, 0
2, 38880, Note_on_c, 0, 70, 0
2, 38880, Note_on_c, 0, 64, 45
2, 38880, Note_on_c, 0, 75, 72
2, 38880, Note_on_c, 0, 70, 60
2, 40200, Note_on_c, 0, 75, 0
2, 40200, Note_on_c, 0, 73, 60
2, 40320, Note_on_c, 0, 73, 0
2, 40320, Note_on_c, 0, 70, 0
2, 40320, Note_on_c, 0, 64, 0
2, 40320, Note_on_c, 0, 73, 62
2, 40320, Note_on_c, 0, 64, 34
2, 40320, Note_on_c, 0, 70, 42
2, 41760, Note_on_c, 0, 70, 0
2, 41760, Note_on_c, 0, 64, 0
2, 41760, Note_on_c, 0, 73, 0
2, 41760, Note_on_c, 0, 68, 42
2, 41760, Note_on_c, 0, 71, 51
2, 41760, Note_on_c, 0, 63, 32
2, 43200, Note_on_c, 0, 63, 0
2, 43200, Note_on_c, 0, 71, 0
2, 43200, Note_on_c, 0, 68, 0
2, 43200, Note_on_c, 0, 61, 50
2, 43200, Note_on_c, 0, 67, 56
2, 43200, Note_on_c, 0, 70, 56
2, 44640, Note_on_c, 0, 70, 0
2, 44640, Note_on_c, 0, 67, 0
2, 44640, Note_on_c, 0, 61, 0
2, 44640, Note_on_c, 0, 68, 50
2, 44640, Note_on_c, 0, 59, 45
2, 44640, Note_on_c, 0, 71, 60
2, 45960, Note_on_c, 0, 71, 0
2, 45960, Note_on_c, 0, 63, 49
2, 46080, Note_on_c, 0, 63, 0
2, 46080, Note_on_c, 0, 59, 0
2, 46080, Note_on_c, 0, 68, 0
2, 46080, Note_on_c, 0, 68, 57
2, 46080, Note_on_c, 0, 65, 31
2, 46080, Note_on_c, 0, 59, 37
2, 47520, Note_on_c, 0, 59, 0
2, 47520, Note_on_c, 0, 68, 0
2, 47520, Note_on_c, 0, 70, 51
2, 47520, Note_on_c, 0, 61, 33
2, 48960, Note_on_c, 0, 61, 0
2, 48960, Note_on_c, 0, 70, 0
2, 48960, Note_on_c, 0, 65, 0
2, 48960, Note_on_c, 0, 58, 33
2, 48960, Note_on_c, 0, 66, 51
2, 49920, Note_on_c, 0, 66, 0
2, 49920, Note_on_c, 0, 58, 0
2, 50400, Note_on_c, 0, 71, 53
2, 50400, Note_on_c, 0, 63, 36
2, 51840, Note_on_c, 0, 63, 0
2, 51840, Note_on_c, 0, 71, 0
2, 51840, Note_on_c, 0, 59, 32
2, 51840, Note_on_c, 0, 68, 50
2, 51840, Note_on_c, 0, 65, 41
2, 53280, Note_on_c, 0, 68, 0
2, 53280, Note_on_c, 0, 59, 0
2, 53280, Note_on_c, 0, 70, 42
2, 53280, Note_on_c, 0, 61, 35
2, 54240, Note_on_c, 0, 61, 0
2, 54240, Note_on_c, 0, 59, 39
2, 54720, Note_on_c, 0, 59, 0
2, 54720, Note_on_c, 0, 70, 0
2, 54720, Note_on_c, 0, 65, 0
2, 54720, Note_on_c, 0, 58, 24
2, 54720, Note_on_c, 0, 66, 38
2, 56640, Note_on_c, 0, 66, 0
2, 56640, Note_on_c, 0, 58, 0
2, 57600, Note_on_c, 0, 78, 60
2, 57840, Note_on_c, 0, 66, 24
2, 58068, Note_on_c, 0, 66, 0
2, 58080, Note_on_c, 0, 66, 26
2, 58308, Note_on_c, 0, 66, 0
2, 58320, Note_on_c, 0, 66, 28
2, 58548, Note_on_c, 0, 66, 0
2, 58560, Note_on_c, 0, 66, 31
2, 58788, Note_on_c, 0, 66, 0
2, 58800, Note_on_c, 0, 66, 28
2, 59028, Note_on_c, 0, 66, 0
2, 59040, Note_on_c, 0, 78, 0
2, 59040, Note_on_c, 0, 70, 57
2, 59040, Note_on_c, 0, 66, 29
2, 59268, Note_on_c, 0, 66, 0
2, 59280, Note_on_c, 0, 66, 29
2, 59508, Note_on_c, 0, 66, 0
2, 59520, Note_on_c, 0, 66, 28
2, 59748, Note_on_c, 0, 66, 0
2, 59760, Note_on_c, 0, 66, 27
2, 59988, Note_on_c, 0, 66, 0
2, 60000, Note_on_c, 0, 70, 0
2, 60000, Note_on_c, 0, 66, 26
2, 60000, Note_on_c, 0, 72, 58
2, 60228, Note_on_c, 0, 66, 0
2, 60240, Note_on_c, 0, 66, 26
2, 60468, Note_on_c, 0, 66, 0
2, 60480, Note_on_c, 0, 72, 0
2, 60480, Note_on_c, 0, 65, 30
2, 60480, Note_on_c, 0, 72, 60
2, 60708, Note_on_c, 0, 65, 0
2, 60720, Note_on_c, 0, 65, 27
2, 60948, Note_on_c, 0, 65, 0
2, 60960, Note_on_c, 0, 65, 31
2, 61188, Note_on_c, 0, 65, 0
2, 61200, Note_on_c, 0, 65, 30
2, 61428, Note_on_c, 0, 65, 0
2, 61440, Note_on_c, 0, 65, 26
2, 61560, Note_on_c, 0, 72, 0
2, 61560, Note_on_c, 0, 73, 43
2, 61668, Note_on_c, 0, 65, 0
2, 61680, Note_on_c, 0, 73, 0
2, 61680, Note_on_c, 0, 65, 26
2, 61680, Note_on_c, 0, 77, 42
2, 61800, Note_on_c, 0, 77, 0
2, 61800, Note_on_c, 0, 75, 40
2, 61908, Note_on_c, 0, 65, 0
2, 61920, Note_on_c, 0, 75, 0
2, 61920, Note_on_c, 0, 73, 52
2, 61920, Note_on_c, 0, 65, 26
2, 62148, Note_on_c, 0, 65, 0
2, 62160, Note_on_c, 0, 65, 26
2, 62388, Note_on_c, 0, 65, 0
2, 62400, Note_on_c, 0, 65, 26
2, 62628, Note_on_c, 0, 65, 0
2, 62640, Note_on_c, 0, 65, 26
2, 62868, Note_on_c, 0, 65, 0
2, 62880, Note_on_c, 0, 65, 26
2, 63108, Note_on_c, 0, 65, 0
2, 63120, Note_on_c, 0, 65, 26
2, 63348, Note_on_c, 0, 65, 0
2, 63360, Note_on_c, 0, 73, 0
2, 63360, Note_on_c, 0, 76, 60
2, 63600, Note_on_c, 0, 64, 24
2, 63828, Note_on_c, 0, 64, 0
2, 63840, Note_on_c, 0, 64, 26
2, 64068, Note_on_c, 0, 64, 0
2, 64080, Note_on_c, 0, 64, 28
2, 64308, Note_on_c, 0, 64, 0
2, 64320, Note_on_c, 0, 64, 31
2, 64548, Note_on_c, 0, 64, 0
2, 64560, Note_on_c, 0, 64, 28
2, 64788, Note_on_c, 0, 64, 0
2, 64800, Note_on_c, 0, 76, 0
2, 64800, Note_on_c, 0, 64, 29
2, 64800, Note_on_c, 0, 68, 57
2, 65028, Note_on_c, 0, 64, 0
2, 65040, Note_on_c, 0, 64, 29
2, 65268, Note_on_c, 0, 64, 0
2, 65280, Note_on_c, 0, 64, 28
2, 65508, Note_on_c, 0, 64, 0
2, 65520, Note_on_c, 0, 64, 27
2, 65748, Note_on_c, 0, 64, 0
2, 65760, Note_on_c, 0, 68, 0
2, 65760, Note_on_c, 0, 70, 58
2, 65760, Note_on_c, 0, 64, 26
2, 65988, Note_on_c, 0, 64, 0
2, 66000, Note_on_c, 0, 64, 26
2, 66228, Note_on_c, 0, 64, 0
2, 66240, Note_on_c, 0, 70, 0
2, 66240, Note_on_c, 0, 63, 30
2, 66240, Note_on_c, 0, 70, 60
2, 66468, Note_on_c, 0, 63, 0
2, 66480, Note_on_c, 0, 63, 27
2, 66708, Note_on_c, 0, 63, 0
2, 66720, Note_on_c, 0, 63, 31
2, 66948, Note_on_c, 0, 63, 0
2, 66960, Note_on_c, 0, 63, 30
2, 67188, Note_on_c, 0, 63, 0
2, 67200, Note_on_c, 0, 63, 26
2, 67320, Note_on_c, 0, 70, 0
2, 67320, Note_on_c, 0, 71, 43
2, 67428, Note_on_c, 0, 63, 0
2, 67440, Note_on_c, 0, 71, 0
2, 67440, Note_on_c, 0, 75, 42
2, 67440, Note_on_c, 0, 63, 26
2, 67560, Note_on_c, 0, 75, 0
2, 67560, Note_on_c, 0, 73, 40
2, 67668, Note_on_c, 0, 63, 0
2, 67680, Note_on_c, 0, 73, 0
2, 67680, Note_on_c, 0, 63, 24
2, 67680, Note_on_c, 0, 71, 45
2, 67908, Note_on_c, 0, 63, 0
2, 67920, Note_on_c, 0, 63, 26
2, 68148, Note_on_c, 0, 63, 0
2, 68160, Note_on_c, 0, 63, 26
2, 68388, Note_on_c, 0, 63, 0
2, 68400, Note_on_c, 0, 63, 26
2, 68628, Note_on_c, 0, 63, 0
2, 68640, Note_on_c, 0, 71, 0
2, 68640, Note_on_c, 0, 63, 26
2, 68640, Note_on_c, 0, 70, 56
2, 68868, Note_on_c, 0, 63, 0
2, 68880, Note_on_c, 0, 61, 26
2, 69108, Note_on_c, 0, 61, 0
2, 69120, Note_on_c, 0, 70, 0
2, 69120, Note_on_c, 0, 59, 30
2, 69120, Note_on_c, 0, 70, 60
2, 69348, Note_on_c, 0, 59, 0
2, 69360, Note_on_c, 0, 59, 27
2, 69588, Note_on_c, 0, 59, 0
2, 69600, Note_on_c, 0, 70, 0
2, 69600, Note_on_c, 0, 68, 55
2, 69600, Note_on_c, 0, 59, 21
2, 69828, Note_on_c, 0, 59, 0
2, 69840, Note_on_c, 0, 59, 30
2, 70068, Note_on_c, 0, 59, 0
2, 70080, Note_on_c, 0, 61, 26
2, 70200, Note_on_c, 0, 68, 0
2, 70200, Note_on_c, 0, 70, 43
2, 70308, Note_on_c, 0, 61, 0
2, 70320, Note_on_c, 0, 70, 0
2, 70320, Note_on_c, 0, 73, 42
2, 70320, Note_on_c, 0, 61, 26
2, 70440, Note_on_c, 0, 73, 0
2, 70440, Note_on_c, 0, 71, 40
2, 70548, Note_on_c, 0, 61, 0
2, 70560, Note_on_c, 0, 71, 0
2, 70560, Note_on_c, 0, 63, 30
2, 70560, Note_on_c, 0, 70, 60
2, 70788, Note_on_c, 0, 63, 0
2, 70800, Note_on_c, 0, 63, 27
2, 71028, Note_on_c, 0, 63, 0
2, 71040, Note_on_c, 0, 70, 0
2, 71040, Note_on_c, 0, 68, 54
2, 71040, Note_on_c, 0, 63, 21
2, 71268, Note_on_c, 0, 63, 0
2, 71280, Note_on_c, 0, 63, 30
2, 71508, Note_on_c, 0, 63, 0
2, 71520, Note_on_c, 0, 61, 26
2, 71640, Note_on_c, 0, 68, 0
2, 71640, Note_on_c, 0, 70, 40
2, 71748, Note_on_c, 0, 61, 0
2, 71760, Note_on_c, 0, 70, 0
2, 71760, Note_on_c, 0, 61, 26
2, 71760, Note_on_c, 0, 73, 39
2, 71880, Note_on_c, 0, 73, 0
2, 71880, Note_on_c, 0, 71, 38
2, 71988, Note_on_c, 0, 61, 0
2, 72000, Note_on_c, 0, 71, 0
2, 72000, Note_on_c, 0, 59, 33
2, 72000, Note_on_c, 0, 70, 57
2, 72228, Note_on_c, 0, 59, 0
2, 72240, Note_on_c, 0, 59, 29
2, 72468, Note_on_c, 0, 59, 0
2, 72480, Note_on_c, 0, 70, 0
2, 72480, Note_on_c, 0, 68, 53
2, 72480, Note_on_c, 0, 63, 40
2, 72708, Note_on_c, 0, 63, 0
2, 72720, Note_on_c, 0, 63, 44
2, 72948, Note_on_c, 0, 63, 0
2, 72960, Note_on_c, 0, 65, 53
2, 73188, Note_on_c, 0, 65, 0
2, 73200, Note_on_c, 0, 63, 42
2, 73428, Note_on_c, 0, 63, 0
2, 73440, Note_on_c, 0, 65, 48
2, 73680, Note_on_c, 0, 65, 0
2, 73680, Note_on_c, 0, 63, 42
2, 73920, Note_on_c, 0, 63, 0
2, 73920, Note_on_c, 0, 65, 40
2, 74160, Note_on_c, 0, 65, 0
2, 74160, Note_on_c, 0, 68, 0
2, 74160, Note_on_c, 0, 63, 46
2, 74160, Note_on_c, 0, 70, 55
2, 74400, Note_on_c, 0, 70, 0
2, 74400, Note_on_c, 0, 63, 0
2, 74400, Note_on_c, 0, 61, 51
2, 74400, Note_on_c, 0, 73, 61
2, 74640, Note_on_c, 0, 73, 0
2, 74640, Note_on_c, 0, 61, 0
2, 74640, Note_on_c, 0, 70, 55
2, 74640, Note_on_c, 0, 61, 46
2, 74880, Note_on_c, 0, 61, 0
2, 74880, Note_on_c, 0, 70, 0
2, 74880, Note_on_c, 0, 58, 30
2, 74880, Note_on_c, 0, 66, 60
2, 75108, Note_on_c, 0, 58, 0
2, 75120, Note_on_c, 0, 58, 34
2, 75348, Note_on_c, 0, 58, 0
2, 75360, Note_on_c, 0, 66, 0
2, 75360, Note_on_c, 0, 63, 46
2, 75360, Note_on_c, 0, 66, 58
2, 75588, Note_on_c, 0, 63, 0
2, 75600, Note_on_c, 0, 63, 34
2, 75828, Note_on_c, 0, 63, 0
2, 75840, Note_on_c, 0, 66, 0
2, 75840, Note_on_c, 0, 66, 57
2, 75840, Note_on_c, 0, 60, 48
2, 75840, Note_on_c, 0, 63, 48
2, 76068, Note_on_c, 0, 60, 0
2, 76080, Note_on_c, 0, 60, 37
2, 76308, Note_on_c, 0, 60, 0
2, 76320, Note_on_c, 0, 63, 0
2, 76320, Note_on_c, 0, 66, 0
2, 76320, Note_on_c, 0, 68, 54
2, 76320, Note_on_c, 0, 66, 60
2, 76320, Note_on_c, 0, 59, 34
2, 76320, Note_on_c, 0, 63, 51
2, 76548, Note_on_c, 0, 59, 0
2, 76560, Note_on_c, 0, 59, 41
2, 76788, Note_on_c, 0, 59, 0
2, 76800, Note_on_c, 0, 63, 0
2, 76800, Note_on_c, 0, 66, 0
2, 76800, Note_on_c, 0, 61, 42
2, 76800, Note_on_c, 0, 65, 56
2, 76800, Note_on_c, 0, 59, 50
2, 77028, Note_on_c, 0, 59, 0
2, 77040, Note_on_c, 0, 59, 41
2, 77268, Note_on_c, 0, 59, 0
2, 77280, Note_on_c, 0, 65, 0
2, 77280, Note_on_c, 0, 61, 0
2, 77280, Note_on_c, 0, 68, 0
2, 77280, Note_on_c, 0, 63, 42
2, 77280, Note_on_c, 0, 59, 50
2, 77280, Note_on_c, 0, 68, 56
2, 77508, Note_on_c, 0, 59, 0
2, 77520, Note_on_c, 0, 59, 41
2, 77748, Note_on_c, 0, 59, 0
2, 77760, Note_on_c, 0, 68, 0
2, 77760, Note_on_c, 0, 63, 0
2, 77760, Note_on_c, 0, 63, 42
2, 77760, Note_on_c, 0, 68, 56
2, 77760, Note_on_c, 0, 59, 42
2, 78240, Note_on_c, 0, 59, 0
2, 78240, Note_on_c, 0, 68, 0
2, 78240, Note_on_c, 0, 63, 0
2, 78240, Note_on_c, 0, 70, 52
2, 78240, Note_on_c, 0, 58, 39
2, 78240, Note_on_c, 0, 61, 39
2, 78720, Note_on_c, 0, 61, 0
2, 78720, Note_on_c, 0, 58, 0
2, 78720, Note_on_c, 0, 70, 0
2, 78720, Note_on_c, 0, 63, 37
2, 78720, Note_on_c, 0, 68, 50
2, 78720, Note_on_c, 0, 59, 32
2, 79200, Note_on_c, 0, 59, 0
2, 79200, Note_on_c, 0, 68, 0
2, 79200, Note_on_c, 0, 63, 0
2, 79200, Note_on_c, 0, 58, 38
2, 79200, Note_on_c, 0, 61, 38
2, 79200, Note_on_c, 0, 70, 51
2, 80640, Note_on_c, 0, 70, 0
2, 80640, Note_on_c, 0, 61, 0
2, 80640, Note_on_c, 0, 58, 0
2, 80640, Note_on_c, 0, 70, 55
2, 80640, Note_on_c, 0, 64, 46
2, 82080, Note_on_c, 0, 64, 0
2, 82080, Note_on_c, 0, 70, 0
2, 82080, Note_on_c, 0, 70, 66
2, 82080, Note_on_c, 0, 64, 55
2, 83400, Note_on_c, 0, 70, 0
2, 83400, Note_on_c, 0, 71, 62
2, 83520, Note_on_c, 0, 71, 0
2, 83520, Note_on_c, 0, 64, 0
2, 83520, Note_on_c, 0, 70, 59
2, 83520, Note_on_c, 0, 73, 71
2, 83520, Note_on_c, 0, 64, 44
2, 84960, Note_on_c, 0, 64, 0
2, 84960, Note_on_c, 0, 73, 0
2, 84960, Note_on_c, 0, 70, 0
2, 84960, Note_on_c, 0, 75, 67
2, 84960, Note_on_c, 0, 64, 30
2, 84960, Note_on_c, 0, 78, 67
2, 84960, Note_on_c, 0, 70, 45
2, 86280, Note_on_c, 0, 75, 0
2, 86280, Note_on_c, 0, 73, 66
2, 86400, Note_on_c, 0, 73, 0
2, 86400, Note_on_c, 0, 70, 0
2, 86400, Note_on_c, 0, 78, 0
2, 86400, Note_on_c, 0, 64, 0
2, 86400, Note_on_c, 0, 78, 69
2, 86400, Note_on_c, 0, 64, 30
2, 86400, Note_on_c, 0, 73, 48
2, 87840, Note_on_c, 0, 73, 0
2, 87840, Note_on_c, 0, 64, 0
2, 87840, Note_on_c, 0, 78, 0
2, 87840, Note_on_c, 0, 71, 50
2, 87840, Note_on_c, 0, 75, 61
2, 87840, Note_on_c, 0, 63, 37
2, 89280, Note_on_c, 0, 63, 0
2, 89280, Note_on_c, 0, 71, 0
2, 89280, Note_on_c, 0, 61, 50
2, 89280, Note_on_c, 0, 67, 50
2, 89280, Note_on_c, 0, 71, 56
2, 90720, Note_on_c, 0, 71, 0
2, 90720, Note_on_c, 0, 75, 0
2, 90720, Note_on_c, 0, 61, 0
2, 90720, Note_on_c, 0, 67, 0
2, 90720, Note_on_c, 0, 68, 47
2, 90720, Note_on_c, 0, 59, 42
2, 90720, Note_on_c, 0, 71, 57
2, 92040, Note_on_c, 0, 71, 0
2, 92040, Note_on_c, 0, 63, 49
2, 92160, Note_on_c, 0, 63, 0
2, 92160, Note_on_c, 0, 59, 0
2, 92160, Note_on_c, 0, 68, 0
2, 92160, Note_on_c, 0, 68, 59
2, 92160, Note_on_c, 0, 65, 47
2, 92160, Note_on_c, 0, 59, 42
2, 92400, Note_on_c, 0, 77, 54
2, 93600, Note_on_c, 0, 59, 0
2, 93600, Note_on_c, 0, 68, 0
2, 93600, Note_on_c, 0, 65, 0
2, 93600, Note_on_c, 0, 65, 42
2, 93600, Note_on_c, 0, 59, 37
2, 93600, Note_on_c, 0, 68, 51
2, 94560, Note_on_c, 0, 68, 0
2, 94560, Note_on_c, 0, 59, 0
2, 94560, Note_on_c, 0, 65, 0
2, 94560, Note_on_c, 0, 70, 51
2, 94560, Note_on_c, 0, 61, 42
2, 95040, Note_on_c, 0, 61, 0
2, 95040, Note_on_c, 0, 70, 0
2, 95040, Note_on_c, 0, 77, 0
2, 95040, Note_on_c, 0, 58, 42
2, 95040, Note_on_c, 0, 66, 54
2, 95280, Note_on_c, 0, 78, 59
2, 96000, Note_on_c, 0, 66, 0
2, 96000, Note_on_c, 0, 58, 0
2, 96480, Note_on_c, 0, 78, 0
2, 96480, Note_on_c, 0, 63, 40
2, 96480, Note_on_c, 0, 71, 57
2, 96480, Note_on_c, 0, 68, 45
2, 96720, Note_on_c, 0, 80, 61
2, 97920, Note_on_c, 0, 80, 0
2, 97920, Note_on_c, 0, 63, 0
2, 97920, Note_on_c, 0, 71, 0
2, 97920, Note_on_c, 0, 68, 0
2, 97920, Note_on_c, 0, 59, 34
2, 97920, Note_on_c, 0, 65, 38
2, 97920, Note_on_c, 0, 68, 51
2, 98160, Note_on_c, 0, 77, 58
2, 99360, Note_on_c, 0, 68, 0
2, 99360, Note_on_c, 0, 70, 56
2, 100680, Note_on_c, 0, 77, 0
2, 100680, Note_on_c, 0, 78, 54
2, 100800, Note_on_c, 0, 78, 0
2, 100800, Note_on_c, 0, 70, 0
2, 100800, Note_on_c, 0, 65, 0
2, 100800, Note_on_c, 0, 59, 0
2, 100800, Note_on_c, 0, 66, 42
2, 100800, Note_on_c, 0, 58, 27
2, 101040, Note_on_c, 0, 78, 57
2, 103680, Note_on_c, 0, 78, 0
2, 103680, Note_on_c, 0, 58, 0
2, 103680, Note_on_c, 0, 66, 0
2, 103920, Note_on_c, 0, 58, 30
2, 104148, Note_on_c, 0, 58, 0
2, 104160, Note_on_c, 0, 58, 33
2, 104388, Note_on_c, 0, 58, 0
2, 104400, Note_on_c, 0, 58, 34
2, 104628, Note_on_c, 0, 58, 0
2, 104640, Note_on_c, 0, 63, 37
2, 104868, Note_on_c, 0, 63, 0
2, 104880, Note_on_c, 0, 58, 40
2, 105108, Note_on_c, 0, 58, 0
2, 105120, Note_on_c, 0, 58, 25
2, 105120, Note_on_c, 0, 70, 52
2, 105348, Note_on_c, 0, 58, 0
2, 105360, Note_on_c, 0, 61, 38
2, 105588, Note_on_c, 0, 61, 0
2, 105600, Note_on_c, 0, 59, 37
2, 105828, Note_on_c, 0, 59, 0
2, 105840, Note_on_c, 0, 58, 30
2, 106068, Note_on_c, 0, 58, 0
2, 106080, Note_on_c, 0, 70, 0
2, 106080, Note_on_c, 0, 58, 18
2, 106080, Note_on_c, 0, 69, 40
2, 106200, Note_on_c, 0, 69, 0
2, 106200, Note_on_c, 0, 70, 35
2, 106308, Note_on_c, 0, 58, 0
2, 106320, Note_on_c, 0, 70, 0
2, 106320, Note_on_c, 0, 73, 40
2, 106320, Note_on_c, 0, 58, 18
2, 106440, Note_on_c, 0, 73, 0
2, 106440, Note_on_c, 0, 71, 35
2, 106548, Note_on_c, 0, 58, 0
2, 106560, Note_on_c, 0, 71, 0
2, 106560, Note_on_c, 0, 70, 33
2, 106560, Note_on_c, 0, 58, 30
2, 109440, Note_on_c, 0, 58, 0
2, 109440, Note_on_c, 0, 70, 0
2, 109440, End_track
3, 0, Start_track
3, 0, Title_t, "Piano left"
3, 0, Program_c, 0, 0
3, 0, Control_c, 0, 7, 100
3, 0, Control_c, 0, 10, 64
3, 0, Note_on_c, 0, 42, 39
3, 113, Control_c, 0, 64, 127
3, 240, Note_on_c, 0, 42, 0
3, 240, Note_on_c, 0, 53, 20
3, 480, Note_on_c, 0, 53, 0
3, 480, Note_on_c, 0, 56, 25
3, 720, Note_on_c, 0, 56, 0
3, 720, Note_on_c, 0, 54, 21
3, 960, Note_on_c, 0, 54, 0
3, 960, Note_on_c, 0, 58, 28
3, 1200, Note_on_c, 0, 58, 0
3, 1200, Note_on_c, 0, 49, 25
3, 1440, Note_on_c, 0, 49, 0
3, 1440, Note_on_c, 0, 42, 39
3, 1451, Control_c, 0, 64, 0
3, 1595, Control_c, 0, 64, 127
3, 1680, Note_on_c, 0, 42, 0
3, 1680, Note_on_c, 0, 53, 22
3, 1920, Note_on_c, 0, 53, 0
3, 1920, Note_on_c, 0, 56, 29
3, 2160, Note_on_c, 0, 56, 0
3, 2160, Note_on_c, 0, 54, 23
3, 2400, Note_on_c, 0, 54, 0
3, 2400, Note_on_c, 0, 58, 31
3, 2640, Note_on_c, 0, 58, 0
3, 2640, Note_on_c, 0, 49, 27
3, 2880, Note_on_c, 0, 49, 0
3, 2880, Note_on_c, 0, 42, 39
3, 2894, Control_c, 0, 64, 0
3, 2993, Control_c, 0, 64, 127
3, 3120, Note_on_c, 0, 42, 0
3, 3120, Note_on_c, 0, 53, 25
3, 3360, Note_on_c, 0, 53, 0
3, 3360, Note_on_c, 0, 56, 28
3, 3600, Note_on_c, 0, 56, 0
3, 3600, Note_on_c, 0, 54, 25
3, 3840, Note_on_c, 0, 54, 0
3, 3840, Note_on_c, 0, 58, 32
3, 4080, Note_on_c, 0, 58, 0
3, 4080, Note_on_c, 0, 49, 28
3, 4320, Note_on_c, 0, 49, 0
3, 4320, Note_on_c, 0, 37, 39
3, 4330, Control_c, 0, 64, 0
3, 4492, Control_c, 0, 64, 127
3, 4560, Note_on_c, 0, 37, 0
3, 4560, Note_on_c, 0, 55, 29
3, 4800, Note_on_c, 0, 55, 0
3, 4800, Note_on_c, 0, 58, 32
3, 5040, Note_on_c, 0, 58, 0
3, 5040, Note_on_c, 0, 56, 28
3, 5280, Note_on_c, 0, 56, 0
3, 5280, Note_on_c, 0, 59, 32
3, 5520, Note_on_c, 0, 59, 0
3, 5520, Note_on_c, 0, 49, 27
3, 5760, Note_on_c, 0, 49, 0
3, 5760, Note_on_c, 0, 42, 39
3, 5774, Control_c, 0, 64, 0
3, 5930, Control_c, 0, 64, 127
3, 6000, Note_on_c, 0, 42, 0
3, 6000, Note_on_c, 0, 53, 25
3, 6240, Note_on_c, 0, 53, 0
3, 6240, Note_on_c, 0, 56, 28
3, 6480, Note_on_c, 0, 56, 0
3, 6480, Note_on_c, 0, 54, 26
3, 6720, Note_on_c, 0, 54, 0
3, 6720, Note_on_c, 0, 58, 28
3, 6960, Note_on_c, 0, 58, 0
3, 6960, Note_on_c, 0, 49, 27
3, 7200, Note_on_c, 0, 49, 0
3, 7200, Note_on_c, 0, 42, 40
3, 7214, Control_c, 0, 64, 0
3, 7370, Control_c, 0, 64, 127
3, 7440, Note_on_c, 0, 42, 0
3, 7440, Note_on_c, 0, 53, 33
3, 7680, Note_on_c, 0, 53, 0
3, 7680, Note_on_c, 0, 56, 38
3, 7920, Note_on_c, 0, 56, 0
3, 7920, Note_on_c, 0, 54, 33
3, 8160, Note_on_c, 0, 54, 0
3, 8160, Note_on_c, 0, 58, 38
3, 8400, Note_on_c, 0, 58, 0
3, 8400, Note_on_c, 0, 49, 33
3, 8640, Note_on_c, 0, 49, 0
3, 8640, Note_on_c, 0, 42, 44
3, 8654, Control_c, 0, 64, 0
3, 8753, Control_c, 0, 64, 127
3, 8880, Note_on_c, 0, 42, 0
3, 8880, Note_on_c, 0, 53, 33
3, 9120, Note_on_c, 0, 53, 0
3, 9120, Note_on_c, 0, 56, 37
3, 9360, Note_on_c, 0, 56, 0
3, 9360, Note_on_c, 0, 54, 30
3, 9600, Note_on_c, 0, 54, 0
3, 9600, Note_on_c, 0, 58, 38
3, 9840, Note_on_c, 0, 58, 0
3, 9840, Note_on_c, 0, 49, 33
3, 10080, Note_on_c, 0, 49, 0
3, 10080, Note_on_c, 0, 37, 39
3, 10094, Control_c, 0, 64, 0
3, 10171, Control_c, 0, 64, 127
3, 10320, Note_on_c, 0, 37, 0
3, 10320, Note_on_c, 0, 55, 28
3, 10560, Note_on_c, 0, 55, 0
3, 10560, Note_on_c, 0, 58, 33
3, 10574, Control_c, 0, 64, 0
3, 10652, Control_c, 0, 64, 127
3, 10800, Note_on_c, 0, 58, 0
3, 10800, Note_on_c, 0, 56, 28
3, 11040, Note_on_c, 0, 56, 0
3, 11040, Note_on_c, 0, 59, 32
3, 11054, Control_c, 0, 64, 0
3, 11143, Control_c, 0, 64, 127
3, 11280, Note_on_c, 0, 59, 0
3, 11280, Note_on_c, 0, 49, 29
3, 11520, Note_on_c, 0, 49, 0
3, 11520, Note_on_c, 0, 42, 39
3, 11532, Control_c, 0, 64, 0
3, 11760, Note_on_c, 0, 42, 0
3, 11760, Control_c, 0, 64, 127
3, 11760, Note_on_c, 0, 53, 26
3, 12000, Note_on_c, 0, 53, 0
3, 12000, Note_on_c, 0, 56, 31
3, 12240, Note_on_c, 0, 56, 0
3, 12240, Note_on_c, 0, 54, 30
3, 12480, Note_on_c, 0, 54, 0
3, 12480, Note_on_c, 0, 58, 35
3, 12720, Note_on_c, 0, 58, 0
3, 12720, Note_on_c, 0, 49, 33
3, 12960, Note_on_c, 0, 49, 0
3, 12960, Note_on_c, 0, 42, 46
3, 12972, Control_c, 0, 64, 0
3, 13172, Control_c, 0, 64, 127
3, 13200, Note_on_c, 0, 42, 0
3, 13200, Note_on_c, 0, 53, 30
3, 13440, Note_on_c, 0, 53, 0
3, 13440, Note_on_c, 0, 56, 43
3, 13680, Note_on_c, 0, 56, 0
3, 13680, Note_on_c, 0, 54, 37
3, 13920, Note_on_c, 0, 54, 0
3, 13920, Note_on_c, 0, 58, 46
3, 14160, Note_on_c, 0, 58, 0
3, 14160, Note_on_c, 0, 49, 41
3, 14400, Note_on_c, 0, 49, 0
3, 14400, Note_on_c, 0, 39, 53
3, 14412, Control_c, 0, 64, 0
3, 14527, Control_c, 0, 64, 127
3, 14640, Note_on_c, 0, 39, 0
3, 14640, Note_on_c, 0, 57, 39
3, 14880, Note_on_c, 0, 57, 0
3, 14880, Note_on_c, 0, 60, 46
3, 15120, Note_on_c, 0, 60, 0
3, 15120, Note_on_c, 0, 58, 38
3, 15360, Note_on_c, 0, 58, 0
3, 15360, Note_on_c, 0, 63, 43
3, 15600, Note_on_c, 0, 63, 0
3, 15600, Note_on_c, 0, 54, 34
3, 15840, Note_on_c, 0, 54, 0
3, 15840, Note_on_c, 0, 44, 42
3, 15852, Control_c, 0, 64, 0
3, 15967, Control_c, 0, 64, 127
3, 16080, Note_on_c, 0, 44, 0
3, 16080, Note_on_c, 0, 55, 28
3, 16320, Note_on_c, 0, 55, 0
3, 16320, Note_on_c, 0, 58, 33
3, 16560, Note_on_c, 0, 58, 0
3, 16560, Note_on_c, 0, 56, 28
3, 16800, Note_on_c, 0, 56, 0
3, 16800, Note_on_c, 0, 61, 31
3, 16811, Control_c, 0, 64, 0
3, 16878, Control_c, 0, 64, 127
3, 17040, Note_on_c, 0, 61, 0
3, 17040, Note_on_c, 0, 53, 27
3, 17172, Control_c, 0, 64, 0
3, 17220, Note_on_c, 0, 53, 0
3, 17224, Control_c, 0, 64, 127
3, 17280, Note_on_c, 0, 44, 39
3, 17520, Note_on_c, 0, 44, 0
3, 17520, Note_on_c, 0, 55, 26
3, 17760, Note_on_c, 0, 55, 0
3, 17760, Note_on_c, 0, 58, 29
3, 18000, Note_on_c, 0, 58, 0
3, 18000, Note_on_c, 0, 56, 26
3, 18240, Note_on_c, 0, 56, 0
3, 18240, Note_on_c, 0, 60, 29
3, 18480, Note_on_c, 0, 60, 0
3, 18480, Note_on_c, 0, 51, 25
3, 18720, Note_on_c, 0, 51, 0
3, 18720, Note_on_c, 0, 49, 36
3, 18732, Control_c, 0, 64, 0
3, 18847, Control_c, 0, 64, 127
3, 18960, Note_on_c, 0, 49, 0
3, 18960, Note_on_c, 0, 55, 26
3, 19200, Note_on_c, 0, 55, 0
3, 19200, Note_on_c, 0, 58, 29
3, 19440, Note_on_c, 0, 58, 0
3, 19440, Note_on_c, 0, 56, 26
3, 19680, Note_on_c, 0, 56, 0
3, 19680, Note_on_c, 0, 61, 29
3, 19920, Note_on_c, 0, 61, 0
3, 19920, Note_on_c, 0, 53, 25
3, 20160, Note_on_c, 0, 53, 0
3, 20160, Control_c, 0, 64, 0
3, 20160, Note_on_c, 0, 56, 33
3, 20273, Control_c, 0, 64, 127
3, 20400, Note_on_c, 0, 56, 0
3, 20400, Note_on_c, 0, 54, 26
3, 20640, Note_on_c, 0, 54, 0
3, 20640, Note_on_c, 0, 59, 30
3, 20649, Control_c, 0, 64, 0
3, 20739, Control_c, 0, 64, 127
3, 20880, Note_on_c, 0, 59, 0
3, 20880, Note_on_c, 0, 51, 27
3, 21120, Note_on_c, 0, 51, 0
3, 21120, Note_on_c, 0, 54, 31
3, 21128, Control_c, 0, 64, 0
3, 21219, Control_c, 0, 64, 127
3, 21360, Note_on_c, 0, 54, 0
3, 21360, Note_on_c, 0, 53, 27
3, 21600, Note_on_c, 0, 53, 0
3, 21600, Control_c, 0, 64, 0
3, 21600, Note_on_c, 0, 58, 30
3, 21699, Control_c, 0, 64, 127
3, 21840, Note_on_c, 0, 58, 0
3, 21840, Note_on_c, 0, 49, 28
3, 22080, Note_on_c, 0, 49, 0
3, 22080, Note_on_c, 0, 58, 31
3, 22089, Control_c, 0, 64, 0
3, 22186, Control_c, 0, 64, 127
3, 22320, Note_on_c, 0, 58, 0
3, 22320, Note_on_c, 0, 47, 28
3, 22560, Note_on_c, 0, 47, 0
3, 22560, Note_on_c, 0, 58, 33
3, 22575, Control_c, 0, 64, 0
3, 22687, Control_c, 0, 64, 127
3, 22800, Note_on_c, 0, 58, 0
3, 22800, Note_on_c, 0, 56, 28
3, 22920, Note_on_c, 0, 56, 0
3, 22927, Control_c, 0, 64, 0
3, 23023, Control_c, 0, 64, 127
3, 23040, Note_on_c, 0, 42, 39
3, 23280, Note_on_c, 0, 42, 0
3, 23280, Note_on_c, 0, 53, 21
3, 23520, Note_on_c, 0, 53, 0
3, 23520, Note_on_c, 0, 56, 27
3, 23760, Note_on_c, 0, 56, 0
3, 23760, Note_on_c, 0, 54, 26
3, 24000, Note_on_c, 0, 54, 0
3, 24000, Note_on_c, 0, 58, 29
3, 24240, Note_on_c, 0, 58, 0
3, 24240, Note_on_c, 0, 49, 25
3, 24480, Note_on_c, 0, 49, 0
3, 24480, Note_on_c, 0, 42, 39
3, 24498, Control_c, 0, 64, 0
3, 24644, Control_c, 0, 64, 127
3, 24720, Note_on_c, 0, 42, 0
3, 24720, Note_on_c, 0, 53, 23
3, 24960, Note_on_c, 0, 53, 0
3, 24960, Note_on_c, 0, 56, 27
3, 25200, Note_on_c, 0, 56, 0
3, 25200, Note_on_c, 0, 54, 26
3, 25440, Note_on_c, 0, 54, 0
3, 25440, Note_on_c, 0, 58, 31
3, 25680, Note_on_c, 0, 58, 0
3, 25680, Note_on_c, 0, 49, 28
3, 25920, Note_on_c, 0, 49, 0
3, 25920, Note_on_c, 0, 42, 39
3, 25948, Control_c, 0, 64, 0
3, 26033, Control_c, 0, 64, 127
3, 26160, Note_on_c, 0, 42, 0
3, 26160, Note_on_c, 0, 53, 25
3, 26400, Note_on_c, 0, 53, 0
3, 26400, Note_on_c, 0, 56, 28
3, 26640, Note_on_c, 0, 56, 0
3, 26640, Note_on_c, 0, 54, 25
3, 26880, Note_on_c, 0, 54, 0
3, 26880, Note_on_c, 0, 58, 33
3, 27120, Note_on_c, 0, 58, 0
3, 27120, Note_on_c, 0, 49, 29
3, 27349, Control_c, 0, 64, 0
3, 27360, Note_on_c, 0, 49, 0
3, 27360, Note_on_c, 0, 37, 39
3, 27451, Control_c, 0, 64, 127
3, 27600, Note_on_c, 0, 37, 0
3, 27600, Note_on_c, 0, 55, 25
3, 27840, Note_on_c, 0, 55, 0
3, 27840, Note_on_c, 0, 58, 28
3, 28080, Note_on_c, 0, 58, 0
3, 28080, Note_on_c, 0, 56, 25
3, 28320, Note_on_c, 0, 56, 0
3, 28320, Note_on_c, 0, 59, 28
3, 28560, Note_on_c, 0, 59, 0
3, 28560, Note_on_c, 0, 49, 25
3, 28800, Note_on_c, 0, 49, 0
3, 28800, Note_on_c, 0, 42, 39
3, 28828, Control_c, 0, 64, 0
3, 28913, Control_c, 0, 64, 127
3, 29040, Note_on_c, 0, 42, 0
3, 29040, Note_on_c, 0, 53, 25
3, 29280, Note_on_c, 0, 53, 0
3, 29280, Note_on_c, 0, 56, 28
3, 29520, Note_on_c, 0, 56, 0
3, 29520, Note_on_c, 0, 54, 26
3, 29760, Note_on_c, 0, 54, 0
3, 29760, Note_on_c, 0, 58, 28
3, 30000, Note_on_c, 0, 58, 0
3, 30000, Note_on_c, 0, 49, 26
3, 30240, Note_on_c, 0, 49, 0
3, 30240, Note_on_c, 0, 42, 39
3, 30254, Control_c, 0, 64, 0
3, 30403, Control_c, 0, 64, 127
3, 30480, Note_on_c, 0, 42, 0
3, 30480, Note_on_c, 0, 53, 32
3, 30720, Note_on_c, 0, 53, 0
3, 30720, Note_on_c, 0, 56, 36
3, 30960, Note_on_c, 0, 56, 0
3, 30960, Note_on_c, 0, 54, 30
3, 31200, Note_on_c, 0, 54, 0
3, 31200, Note_on_c, 0, 58, 35
3, 31440, Note_on_c, 0, 58, 0
3, 31440, Note_on_c, 0, 49, 31
3, 31680, Note_on_c, 0, 49, 0
3, 31680, Note_on_c, 0, 42, 39
3, 31708, Control_c, 0, 64, 0
3, 31793, Control_c, 0, 64, 127
3, 31920, Note_on_c, 0, 42, 0
3, 31920, Note_on_c, 0, 53, 32
3, 32160, Note_on_c, 0, 53, 0
3, 32160, Note_on_c, 0, 56, 36
3, 32400, Note_on_c, 0, 56, 0
3, 32400, Note_on_c, 0, 54, 31
3, 32640, Note_on_c, 0, 54, 0
3, 32640, Note_on_c, 0, 58, 36
3, 32880, Note_on_c, 0, 58, 0
3, 32880, Note_on_c, 0, 49, 31
3, 33120, Note_on_c, 0, 49, 0
3, 33120, Note_on_c, 0, 37, 39
3, 33132, Control_c, 0, 64, 0
3, 33326, Control_c, 0, 64, 127
3, 33360, Note_on_c, 0, 37, 0
3, 33360, Note_on_c, 0, 55, 30
3, 33600, Note_on_c, 0, 55, 0
3, 33600, Note_on_c, 0, 58, 34
3, 33615, Control_c, 0, 64, 0
3, 33840, Note_on_c, 0, 58, 0
3, 33840, Note_on_c, 0, 56, 28
3, 33863, Control_c, 0, 64, 127
3, 34080, Note_on_c, 0, 56, 0
3, 34080, Note_on_c, 0, 59, 34
3, 34320, Note_on_c, 0, 59, 0
3, 34320, Note_on_c, 0, 49, 31
3, 34560, Note_on_c, 0, 49, 0
3, 34560, Note_on_c, 0, 42, 39
3, 34572, Control_c, 0, 64, 0
3, 34687, Control_c, 0, 64, 127
3, 34800, Note_on_c, 0, 42, 0
3, 34800, Note_on_c, 0, 53, 26
3, 35040, Note_on_c, 0, 53, 0
3, 35040, Note_on_c, 0, 56, 31
3, 35280, Note_on_c, 0, 56, 0
3, 35280, Note_on_c, 0, 54, 30
3, 35520, Note_on_c, 0, 54, 0
3, 35520, Note_on_c, 0, 58, 35
3, 35760, Note_on_c, 0, 58, 0
3, 35760, Note_on_c, 0, 49, 33
3, 36000, Note_on_c, 0, 49, 0
3, 36000, Note_on_c, 0, 42, 46
3, 36012, Control_c, 0, 64, 0
3, 36127, Control_c, 0, 64, 127
3, 36240, Note_on_c, 0, 42, 0
3, 36240, Note_on_c, 0, 53, 30
3, 36480, Note_on_c, 0, 53, 0
3, 36480, Note_on_c, 0, 56, 40
3, 36720, Note_on_c, 0, 56, 0
3, 36720, Note_on_c, 0, 54, 35
3, 36960, Note_on_c, 0, 54, 0
3, 36960, Note_on_c, 0, 58, 42
3, 37200, Note_on_c, 0, 58, 0
3, 37200, Note_on_c, 0, 49, 37
3, 37440, Note_on_c, 0, 49, 0
3, 37440, Note_on_c, 0, 42, 47
3, 37452, Control_c, 0, 64, 0
3, 37567, Control_c, 0, 64, 127
3, 37680, Note_on_c, 0, 42, 0
3, 37680, Note_on_c, 0, 53, 34
3, 37920, Note_on_c, 0, 53, 0
3, 37920, Note_on_c, 0, 56, 45
3, 38160, Note_on_c, 0, 56, 0
3, 38160, Note_on_c, 0, 54, 37
3, 38400, Note_on_c, 0, 54, 0
3, 38400, Note_on_c, 0, 58, 44
3, 38640, Note_on_c, 0, 58, 0
3, 38640, Note_on_c, 0, 49, 29
3, 38880, Note_on_c, 0, 49, 0
3, 38880, Note_on_c, 0, 42, 51
3, 38892, Control_c, 0, 64, 0
3, 39007, Control_c, 0, 64, 127
3, 39120, Note_on_c, 0, 42, 0
3, 39120, Note_on_c, 0, 53, 38
3, 39360, Note_on_c, 0, 53, 0
3, 39360, Note_on_c, 0, 56, 46
3, 39600, Note_on_c, 0, 56, 0
3, 39600, Note_on_c, 0, 54, 37
3, 39840, Note_on_c, 0, 54, 0
3, 39840, Note_on_c, 0, 58, 44
3, 40080, Note_on_c, 0, 58, 0
3, 40080, Note_on_c, 0, 49, 34
3, 40320, Note_on_c, 0, 49, 0
3, 40320, Note_on_c, 0, 47, 39
3, 40328, Control_c, 0, 64, 0
3, 40480, Control_c, 0, 64, 127
3, 40560, Note_on_c, 0, 47, 0
3, 40560, Note_on_c, 0, 54, 29
3, 40800, Note_on_c, 0, 54, 0
3, 40800, Note_on_c, 0, 56, 34
3, 41040, Note_on_c, 0, 56, 0
3, 41040, Note_on_c, 0, 55, 29
3, 41280, Note_on_c, 0, 55, 0
3, 41280, Note_on_c, 0, 58, 29
3, 41520, Note_on_c, 0, 58, 0
3, 41520, Note_on_c, 0, 49, 25
3, 41760, Note_on_c, 0, 49, 0
3, 41760, Note_on_c, 0, 47, 36
3, 41772, Control_c, 0, 64, 0
3, 41932, Control_c, 0, 64, 127
3, 42000, Note_on_c, 0, 47, 0
3, 42000, Note_on_c, 0, 55, 26
3, 42240, Note_on_c, 0, 55, 0
3, 42240, Note_on_c, 0, 58, 29
3, 42480, Note_on_c, 0, 58, 0
3, 42480, Note_on_c, 0, 56, 26
3, 42720, Note_on_c, 0, 56, 0
3, 42720, Note_on_c, 0, 59, 29
3, 42960, Note_on_c, 0, 59, 0
3, 42960, Note_on_c, 0, 51, 25
3, 43200, Note_on_c, 0, 51, 0
3, 43200, Note_on_c, 0, 39, 41
3, 43242, Control_c, 0, 64, 0
3, 43327, Control_c, 0, 64, 127
3, 43440, Note_on_c, 0, 39, 0
3, 43440, Note_on_c, 0, 50, 30
3, 43680, Note_on_c, 0, 50, 0
3, 43680, Note_on_c, 0, 52, 38
3, 43920, Note_on_c, 0, 52, 0
3, 43920, Note_on_c, 0, 51, 30
3, 44160, Note_on_c, 0, 51, 0
3, 44160, Note_on_c, 0, 55, 36
3, 44400, Note_on_c, 0, 55, 0
3, 44400, Note_on_c, 0, 46, 29
3, 44640, Note_on_c, 0, 46, 0
3, 44640, Note_on_c, 0, 44, 38
3, 44652, Control_c, 0, 64, 0
3, 44767, Control_c, 0, 64, 127
3, 44880, Note_on_c, 0, 44, 0
3, 44880, Note_on_c, 0, 50, 33
3, 45120, Note_on_c, 0, 50, 0
3, 45120, Note_on_c, 0, 52, 37
3, 45360, Note_on_c, 0, 52, 0
3, 45360, Note_on_c, 0, 51, 29
3, 45600, Note_on_c, 0, 51, 0
3, 45600, Note_on_c, 0, 56, 34
3, 45840, Note_on_c, 0, 56, 0
3, 45840, Note_on_c, 0, 44, 28
3, 46080, Note_on_c, 0, 44, 0
3, 46080, Note_on_c, 0, 37, 39
3, 46091, Control_c, 0, 64, 0
3, 46275, Control_c, 0, 64, 127
3, 46320, Note_on_c, 0, 37, 0
3, 46320, Note_on_c, 0, 48, 26
3, 46560, Note_on_c, 0, 48, 0
3, 46560, Note_on_c, 0, 51, 29
3, 46800, Note_on_c, 0, 51, 0
3, 46800, Note_on_c, 0, 49, 26
3, 47040, Note_on_c, 0, 49, 0
3, 47040, Note_on_c, 0, 53, 29
3, 47280, Note_on_c, 0, 53, 0
3, 47280, Note_on_c, 0, 44, 25
3, 47520, Note_on_c, 0, 44, 0
3, 47520, Note_on_c, 0, 37, 36
3, 47532, Control_c, 0, 64, 0
3, 47715, Control_c, 0, 64, 127
3, 47760, Note_on_c, 0, 37, 0
3, 47760, Note_on_c, 0, 48, 26
3, 48000, Note_on_c, 0, 48, 0
3, 48000, Note_on_c, 0, 51, 29
3, 48240, Note_on_c, 0, 51, 0
3, 48240, Note_on_c, 0, 49, 26
3, 48480, Note_on_c, 0, 49, 0
3, 48480, Note_on_c, 0, 53, 29
3, 48720, Note_on_c, 0, 53, 0
3, 48720, Note_on_c, 0, 44, 25
3, 48960, Note_on_c, 0, 44, 0
3, 48960, Note_on_c, 0, 42, 36
3, 48972, Control_c, 0, 64, 0
3, 49132, Control_c, 0, 64, 127
3, 49200, Note_on_c, 0, 42, 0
3, 49200, Note_on_c, 0, 48, 26
3, 49440, Note_on_c, 0, 48, 0
3, 49440, Note_on_c, 0, 51, 29
3, 49680, Note_on_c, 0, 51, 0
3, 49680, Note_on_c, 0, 49, 26
3, 49920, Note_on_c, 0, 49, 0
3, 49920, Note_on_c, 0, 54, 29
3, 50160, Note_on_c, 0, 54, 0
3, 50160, Note_on_c, 0, 42, 25
3, 50400, Note_on_c, 0, 42, 0
3, 50400, Note_on_c, 0, 35, 34
3, 50412, Control_c, 0, 64, 0
3, 50572, Control_c, 0, 64, 127
3, 50640, Note_on_c, 0, 35, 0
3, 50640, Note_on_c, 0, 53, 29
3, 50880, Note_on_c, 0, 53, 0
3, 50880, Note_on_c, 0, 56, 33
3, 51120, Note_on_c, 0, 56, 0
3, 51120, Note_on_c, 0, 54, 26
3, 51360, Note_on_c, 0, 54, 0
3, 51360, Note_on_c, 0, 59, 29
3, 51600, Note_on_c, 0, 59, 0
3, 51600, Note_on_c, 0, 47, 25
3, 51840, Note_on_c, 0, 47, 0
3, 51840, Control_c, 0, 64, 0
3, 51840, Note_on_c, 0, 37, 35
3, 52000, Control_c, 0, 64, 127
3, 52080, Note_on_c, 0, 37, 0
3, 52080, Note_on_c, 0, 48, 23
3, 52320, Note_on_c, 0, 48, 0
3, 52320, Note_on_c, 0, 51, 25
3, 52560, Note_on_c, 0, 51, 0
3, 52560, Note_on_c, 0, 49, 22
3, 52800, Note_on_c, 0, 49, 0
3, 52800, Note_on_c, 0, 53, 24
3, 53040, Note_on_c, 0, 53, 0
3, 53040, Note_on_c, 0, 44, 20
3, 53280, Note_on_c, 0, 44, 0
3, 53280, Note_on_c, 0, 37, 29
3, 53292, Control_c, 0, 64, 0
3, 53463, Control_c, 0, 64, 127
3, 53520, Note_on_c, 0, 37, 0
3, 53520, Note_on_c, 0, 48, 20
3, 53760, Note_on_c, 0, 48, 0
3, 53760, Note_on_c, 0, 51, 23
3, 54000, Note_on_c, 0, 51, 0
3, 54000, Note_on_c, 0, 49, 19
3, 54240, Note_on_c, 0, 49, 0
3, 54240, Note_on_c, 0, 53, 23
3, 54255, Control_c, 0, 64, 0
3, 54423, Control_c, 0, 64, 127
3, 54480, Note_on_c, 0, 53, 0
3, 54480, Note_on_c, 0, 44, 18
3, 54720, Note_on_c, 0, 44, 0
3, 54720, Note_on_c, 0, 42, 26
3, 54732, Control_c, 0, 64, 0
3, 54880, Control_c, 0, 64, 127
3, 54960, Note_on_c, 0, 42, 0
3, 54960, Note_on_c, 0, 48, 19
3, 55200, Note_on_c, 0, 48, 0
3, 55200, Note_on_c, 0, 51, 22
3, 55440, Note_on_c, 0, 51, 0
3, 55440, Note_on_c, 0, 49, 19
3, 55680, Note_on_c, 0, 49, 0
3, 55680, Note_on_c, 0, 54, 22
3, 55920, Note_on_c, 0, 54, 0
3, 55920, Note_on_c, 0, 37, 18
3, 56160, Note_on_c, 0, 37, 0
3, 56160, Note_on_c, 0, 42, 26
3, 56175, Control_c, 0, 64, 0
3, 56355, Control_c, 0, 64, 127
3, 56400, Note_on_c, 0, 42, 0
3, 56400, Note_on_c, 0, 48, 19
3, 56640, Note_on_c, 0, 48, 0
3, 56640, Note_on_c, 0, 51, 22
3, 56880, Note_on_c, 0, 51, 0
3, 56880, Note_on_c, 0, 49, 19
3, 57120, Note_on_c, 0, 49, 0
3, 57120, Note_on_c, 0, 54, 22
3, 57360, Note_on_c, 0, 54, 0
3, 57360, Note_on_c, 0, 41, 18
3, 57600, Note_on_c, 0, 41, 0
3, 57600, Note_on_c, 0, 39, 31
3, 57602, Control_c, 0, 64, 0
3, 57691, Control_c, 0, 64, 127
3, 57840, Note_on_c, 0, 39, 0
3, 57840, Note_on_c, 0, 51, 20
3, 57840, Note_on_c, 0, 58, 30
3, 58068, Note_on_c, 0, 58, 0
3, 58068, Note_on_c, 0, 51, 0
3, 58080, Note_on_c, 0, 51, 22
3, 58080, Note_on_c, 0, 58, 33
3, 58308, Note_on_c, 0, 58, 0
3, 58308, Note_on_c, 0, 51, 0
3, 58320, Note_on_c, 0, 51, 23
3, 58320, Note_on_c, 0, 58, 36
3, 58548, Note_on_c, 0, 58, 0
3, 58548, Note_on_c, 0, 51, 0
3, 58560, Note_on_c, 0, 51, 26
3, 58560, Note_on_c, 0, 63, 40
3, 58788, Note_on_c, 0, 63, 0
3, 58788, Note_on_c, 0, 51, 0
3, 58800, Note_on_c, 0, 51, 23
3, 58800, Note_on_c, 0, 58, 36
3, 59028, Note_on_c, 0, 58, 0
3, 59028, Note_on_c, 0, 51, 0
3, 59040, Note_on_c, 0, 51, 24
3, 59040, Note_on_c, 0, 58, 37
3, 59109, Control_c, 0, 64, 0
3, 59177, Control_c, 0, 64, 127
3, 59268, Note_on_c, 0, 58, 0
3, 59268, Note_on_c, 0, 51, 0
3, 59280, Note_on_c, 0, 51, 24
3, 59280, Note_on_c, 0, 61, 37
3, 59508, Note_on_c, 0, 61, 0
3, 59508, Note_on_c, 0, 51, 0
3, 59520, Note_on_c, 0, 51, 23
3, 59520, Note_on_c, 0, 60, 36
3, 59528, Control_c, 0, 64, 0
3, 59623, Control_c, 0, 64, 127
3, 59748, Note_on_c, 0, 60, 0
3, 59748, Note_on_c, 0, 51, 0
3, 59760, Note_on_c, 0, 51, 22
3, 59760, Note_on_c, 0, 58, 34
3, 59988, Note_on_c, 0, 58, 0
3, 59988, Note_on_c, 0, 51, 0
3, 60000, Note_on_c, 0, 44, 22
3, 60000, Note_on_c, 0, 58, 33
3, 60006, Control_c, 0, 64, 0
3, 60091, Control_c, 0, 64, 127
3, 60228, Note_on_c, 0, 58, 0
3, 60228, Note_on_c, 0, 44, 0
3, 60240, Note_on_c, 0, 44, 22
3, 60240, Note_on_c, 0, 56, 33
3, 60468, Note_on_c, 0, 56, 0
3, 60468, Note_on_c, 0, 44, 0
3, 60480, Note_on_c, 0, 37, 30
3, 60489, Control_c, 0, 64, 0
3, 60593, Control_c, 0, 64, 127
3, 60720, Note_on_c, 0, 37, 0
3, 60720, Note_on_c, 0, 56, 27
3, 60720, Note_on_c, 0, 44, 28
3, 60948, Note_on_c, 0, 44, 0
3, 60948, Note_on_c, 0, 56, 0
3, 60960, Note_on_c, 0, 49, 33
3, 60960, Note_on_c, 0, 56, 31
3, 61188, Note_on_c, 0, 56, 0
3, 61188, Note_on_c, 0, 49, 0
3, 61200, Note_on_c, 0, 51, 31
3, 61200, Note_on_c, 0, 56, 30
3, 61428, Note_on_c, 0, 56, 0
3, 61428, Note_on_c, 0, 51, 0
3, 61440, Note_on_c, 0, 49, 28
3, 61440, Note_on_c, 0, 56, 26
3, 61668, Note_on_c, 0, 56, 0
3, 61668, Note_on_c, 0, 49, 0
3, 61680, Note_on_c, 0, 44, 28
3, 61680, Note_on_c, 0, 56, 26
3, 61908, Note_on_c, 0, 56, 0
3, 61908, Note_on_c, 0, 44, 0
3, 61920, Note_on_c, 0, 49, 28
3, 61920, Note_on_c, 0, 56, 26
3, 61941, Control_c, 0, 64, 0
3, 61991, Control_c, 0, 64, 127
3, 62148, Note_on_c, 0, 56, 0
3, 62148, Note_on_c, 0, 49, 0
3, 62160, Note_on_c, 0, 51, 28
3, 62160, Note_on_c, 0, 56, 26
3, 62388, Note_on_c, 0, 56, 0
3, 62388, Note_on_c, 0, 51, 0
3, 62400, Note_on_c, 0, 49, 28
3, 62400, Note_on_c, 0, 56, 26
3, 62416, Control_c, 0, 64, 0
3, 62534, Control_c, 0, 64, 127
3, 62628, Note_on_c, 0, 56, 0
3, 62628, Note_on_c, 0, 49, 0
3, 62640, Note_on_c, 0, 54, 28
3, 62640, Note_on_c, 0, 56, 26
3, 62868, Note_on_c, 0, 56, 0
3, 62868, Note_on_c, 0, 54, 0
3, 62880, Note_on_c, 0, 53, 28
3, 62880, Note_on_c, 0, 56, 26
3, 62894, Control_c, 0, 64, 0
3, 63014, Control_c, 0, 64, 127
3, 63108, Note_on_c, 0, 56, 0
3, 63108, Note_on_c, 0, 53, 0
3, 63120, Note_on_c, 0, 44, 28
3, 63120, Note_on_c, 0, 56, 26
3, 63348, Note_on_c, 0, 56, 0
3, 63348, Note_on_c, 0, 44, 0
3, 63360, Note_on_c, 0, 37, 31
3, 63367, Control_c, 0, 64, 0
3, 63486, Control_c, 0, 64, 127
3, 63600, Note_on_c, 0, 37, 0
3, 63600, Note_on_c, 0, 49, 20
3, 63600, Note_on_c, 0, 56, 30
3, 63828, Note_on_c, 0, 56, 0
3, 63828, Note_on_c, 0, 49, 0
3, 63840, Note_on_c, 0, 49, 22
3, 63840, Note_on_c, 0, 56, 33
3, 64068, Note_on_c, 0, 56, 0
3, 64068, Note_on_c, 0, 49, 0
3, 64080, Note_on_c, 0, 49, 23
3, 64080, Note_on_c, 0, 56, 36
3, 64308, Note_on_c, 0, 56, 0
3, 64308, Note_on_c, 0, 49, 0
3, 64320, Note_on_c, 0, 49, 26
3, 64320, Note_on_c, 0, 61, 40
3, 64548, Note_on_c, 0, 61, 0
3, 64548, Note_on_c, 0, 49, 0
3, 64560, Note_on_c, 0, 49, 23
3, 64560, Note_on_c, 0, 56, 36
3, 64743, Control_c, 0, 64, 0
3, 64788, Note_on_c, 0, 56, 0
3, 64788, Note_on_c, 0, 49, 0
3, 64800, Note_on_c, 0, 49, 24
3, 64800, Note_on_c, 0, 56, 37
3, 64846, Control_c, 0, 64, 127
3, 65028, Note_on_c, 0, 56, 0
3, 65028, Note_on_c, 0, 49, 0
3, 65040, Note_on_c, 0, 49, 24
3, 65040, Note_on_c, 0, 59, 37
3, 65268, Note_on_c, 0, 59, 0
3, 65268, Note_on_c, 0, 49, 0
3, 65280, Note_on_c, 0, 49, 23
3, 65280, Note_on_c, 0, 58, 36
3, 65293, Control_c, 0, 64, 0
3, 65429, Control_c, 0, 64, 127
3, 65508, Note_on_c, 0, 58, 0
3, 65508, Note_on_c, 0, 49, 0
3, 65520, Note_on_c, 0, 49, 22
3, 65520, Note_on_c, 0, 56, 34
3, 65748, Note_on_c, 0, 56, 0
3, 65748, Note_on_c, 0, 49, 0
3, 65760, Note_on_c, 0, 42, 22
3, 65760, Note_on_c, 0, 56, 33
3, 65769, Control_c, 0, 64, 0
3, 65897, Control_c, 0, 64, 127
3, 65988, Note_on_c, 0, 56, 0
3, 65988, Note_on_c, 0, 42, 0
3, 66000, Note_on_c, 0, 42, 22
3, 66000, Note_on_c, 0, 54, 33
3, 66228, Note_on_c, 0, 54, 0
3, 66228, Note_on_c, 0, 42, 0
3, 66240, Note_on_c, 0, 35, 30
3, 66247, Control_c, 0, 64, 0
3, 66339, Control_c, 0, 64, 127
3, 66480, Note_on_c, 0, 35, 0
3, 66480, Note_on_c, 0, 54, 27
3, 66480, Note_on_c, 0, 42, 28
3, 66708, Note_on_c, 0, 42, 0
3, 66708, Note_on_c, 0, 54, 0
3, 66720, Note_on_c, 0, 47, 33
3, 66720, Note_on_c, 0, 54, 31
3, 66948, Note_on_c, 0, 54, 0
3, 66948, Note_on_c, 0, 47, 0
3, 66960, Note_on_c, 0, 49, 31
3, 66960, Note_on_c, 0, 54, 30
3, 67188, Note_on_c, 0, 54, 0
3, 67188, Note_on_c, 0, 49, 0
3, 67200, Note_on_c, 0, 47, 28
3, 67200, Note_on_c, 0, 54, 26
3, 67428, Note_on_c, 0, 54, 0
3, 67428, Note_on_c, 0, 47, 0
3, 67440, Note_on_c, 0, 42, 28
3, 67440, Note_on_c, 0, 54, 26
3, 67668, Note_on_c, 0, 54, 0
3, 67668, Note_on_c, 0, 42, 0
3, 67680, Note_on_c, 0, 47, 28
3, 67680, Note_on_c, 0, 54, 26
3, 67693, Control_c, 0, 64, 0
3, 67807, Control_c, 0, 64, 127
3, 67908, Note_on_c, 0, 54, 0
3, 67908, Note_on_c, 0, 47, 0
3, 67920, Note_on_c, 0, 49, 28
3, 67920, Note_on_c, 0, 54, 26
3, 68148, Note_on_c, 0, 54, 0
3, 68148, Note_on_c, 0, 49, 0
3, 68160, Note_on_c, 0, 47, 28
3, 68160, Note_on_c, 0, 54, 26
3, 68388, Note_on_c, 0, 54, 0
3, 68388, Note_on_c, 0, 47, 0
3, 68400, Note_on_c, 0, 42, 28
3, 68400, Note_on_c, 0, 54, 26
3, 68628, Note_on_c, 0, 54, 0
3, 68628, Note_on_c, 0, 42, 0
3, 68640, Note_on_c, 0, 47, 28
3, 68640, Note_on_c, 0, 54, 26
3, 68654, Control_c, 0, 64, 0
3, 68781, Control_c, 0, 64, 127
3, 68868, Note_on_c, 0, 54, 0
3, 68868, Note_on_c, 0, 47, 0
3, 68880, Note_on_c, 0, 49, 28
3, 68880, Note_on_c, 0, 54, 26
3, 69108, Note_on_c, 0, 54, 0
3, 69108, Note_on_c, 0, 49, 0
3, 69120, Note_on_c, 0, 51, 22
3, 69120, Note_on_c, 0, 54, 30
3, 69127, Control_c, 0, 64, 0
3, 69233, Control_c, 0, 64, 127
3, 69348, Note_on_c, 0, 54, 0
3, 69348, Note_on_c, 0, 51, 0
3, 69360, Note_on_c, 0, 54, 27
3, 69360, Note_on_c, 0, 51, 22
3, 69588, Note_on_c, 0, 51, 0
3, 69588, Note_on_c, 0, 54, 0
3, 69600, Note_on_c, 0, 51, 26
3, 69600, Note_on_c, 0, 54, 31
3, 69608, Control_c, 0, 64, 0
3, 69678, Control_c, 0, 64, 127
3, 69828, Note_on_c, 0, 54, 0
3, 69828, Note_on_c, 0, 51, 0
3, 69840, Note_on_c, 0, 51, 25
3, 69840, Note_on_c, 0, 54, 30
3, 70068, Note_on_c, 0, 54, 0
3, 70068, Note_on_c, 0, 51, 0
3, 70080, Note_on_c, 0, 49, 22
3, 70080, Note_on_c, 0, 54, 26
3, 70094, Control_c, 0, 64, 0
3, 70221, Control_c, 0, 64, 127
3, 70308, Note_on_c, 0, 54, 0
3, 70308, Note_on_c, 0, 49, 0
3, 70320, Note_on_c, 0, 49, 22
3, 70320, Note_on_c, 0, 54, 26
3, 70548, Note_on_c, 0, 54, 0
3, 70548, Note_on_c, 0, 49, 0
3, 70560, Note_on_c, 0, 47, 22
3, 70560, Note_on_c, 0, 54, 30
3, 70573, Control_c, 0, 64, 0
3, 70638, Control_c, 0, 64, 127
3, 70788, Note_on_c, 0, 54, 0
3, 70788, Note_on_c, 0, 47, 0
3, 70800, Note_on_c, 0, 54, 27
3, 70800, Note_on_c, 0, 47, 22
3, 71028, Note_on_c, 0, 47, 0
3, 71028, Note_on_c, 0, 54, 0
3, 71040, Note_on_c, 0, 47, 26
3, 71040, Note_on_c, 0, 54, 31
3, 71054, Control_c, 0, 64, 0
3, 71132, Control_c, 0, 64, 127
3, 71268, Note_on_c, 0, 54, 0
3, 71268, Note_on_c, 0, 47, 0
3, 71280, Note_on_c, 0, 47, 25
3, 71280, Note_on_c, 0, 54, 30
3, 71508, Note_on_c, 0, 54, 0
3, 71508, Note_on_c, 0, 47, 0
3, 71520, Note_on_c, 0, 49, 22
3, 71520, Note_on_c, 0, 54, 26
3, 71532, Control_c, 0, 64, 0
3, 71612, Control_c, 0, 64, 127
3, 71748, Note_on_c, 0, 54, 0
3, 71748, Note_on_c, 0, 49, 0
3, 71760, Note_on_c, 0, 49, 22
3, 71760, Note_on_c, 0, 54, 26
3, 71988, Note_on_c, 0, 54, 0
3, 71988, Note_on_c, 0, 49, 0
3, 72000, Note_on_c, 0, 51, 22
3, 72000, Note_on_c, 0, 54, 30
3, 72007, Control_c, 0, 64, 0
3, 72095, Control_c, 0, 64, 127
3, 72228, Note_on_c, 0, 54, 0
3, 72228, Note_on_c, 0, 51, 0
3, 72240, Note_on_c, 0, 54, 27
3, 72240, Note_on_c, 0, 51, 22
3, 72468, Note_on_c, 0, 51, 0
3, 72468, Note_on_c, 0, 54, 0
3, 72480, Note_on_c, 0, 47, 26
3, 72480, Note_on_c, 0, 54, 31
3, 72493, Control_c, 0, 64, 0
3, 72650, Control_c, 0, 64, 127
3, 72708, Note_on_c, 0, 54, 0
3, 72708, Note_on_c, 0, 47, 0
3, 72720, Note_on_c, 0, 47, 25
3, 72720, Note_on_c, 0, 54, 30
3, 72948, Note_on_c, 0, 54, 0
3, 72948, Note_on_c, 0, 47, 0
3, 72960, Note_on_c, 0, 47, 29
3, 72960, Note_on_c, 0, 56, 35
3, 72967, Control_c, 0, 64, 0
3, 73087, Control_c, 0, 64, 127
3, 73188, Note_on_c, 0, 56, 0
3, 73188, Note_on_c, 0, 47, 0
3, 73200, Note_on_c, 0, 47, 24
3, 73200, Note_on_c, 0, 56, 29
3, 73428, Note_on_c, 0, 56, 0
3, 73428, Note_on_c, 0, 47, 0
3, 73440, Note_on_c, 0, 47, 22
3, 73440, Note_on_c, 0, 56, 30
3, 73449, Control_c, 0, 64, 0
3, 73610, Control_c, 0, 64, 127
3, 73668, Note_on_c, 0, 56, 0
3, 73668, Note_on_c, 0, 47, 0
3, 73680, Note_on_c, 0, 54, 27
3, 73680, Note_on_c, 0, 47, 22
3, 73908, Note_on_c, 0, 47, 0
3, 73908, Note_on_c, 0, 54, 0
3, 73920, Note_on_c, 0, 47, 26
3, 73920, Note_on_c, 0, 56, 31
3, 73928, Control_c, 0, 64, 0
3, 74076, Control_c, 0, 64, 127
3, 74148, Note_on_c, 0, 56, 0
3, 74148, Note_on_c, 0, 47, 0
3, 74160, Note_on_c, 0, 47, 27
3, 74160, Note_on_c, 0, 54, 32
3, 74388, Note_on_c, 0, 54, 0
3, 74388, Note_on_c, 0, 47, 0
3, 74400, Note_on_c, 0, 46, 28
3, 74400, Note_on_c, 0, 54, 34
3, 74407, Control_c, 0, 64, 0
3, 74541, Control_c, 0, 64, 127
3, 74628, Note_on_c, 0, 54, 0
3, 74628, Note_on_c, 0, 46, 0
3, 74640, Note_on_c, 0, 49, 29
3, 74640, Note_on_c, 0, 54, 35
3, 74868, Note_on_c, 0, 54, 0
3, 74868, Note_on_c, 0, 49, 0
3, 74880, Note_on_c, 0, 51, 22
3, 74880, Note_on_c, 0, 54, 30
3, 74887, Control_c, 0, 64, 0
3, 75017, Control_c, 0, 64, 127
3, 75108, Note_on_c, 0, 54, 0
3, 75108, Note_on_c, 0, 51, 0
3, 75120, Note_on_c, 0, 54, 27
3, 75120, Note_on_c, 0, 51, 22
3, 75348, Note_on_c, 0, 51, 0
3, 75348, Note_on_c, 0, 54, 0
3, 75360, Note_on_c, 0, 51, 26
3, 75360, Note_on_c, 0, 58, 31
3, 75588, Note_on_c, 0, 58, 0
3, 75588, Note_on_c, 0, 51, 0
3, 75600, Note_on_c, 0, 51, 25
3, 75600, Note_on_c, 0, 58, 30
3, 75828, Note_on_c, 0, 58, 0
3, 75828, Note_on_c, 0, 51, 0
3, 75840, Note_on_c, 0, 44, 24
3, 75840, Note_on_c, 0, 51, 29
3, 75840, Note_on_c, 0, 56, 35
3, 75856, Control_c, 0, 64, 0
3, 75955, Control_c, 0, 64, 127
3, 76068, Note_on_c, 0, 56, 0
3, 76068, Note_on_c, 0, 51, 0
3, 76068, Note_on_c, 0, 44, 0
3, 76080, Note_on_c, 0, 44, 24
3, 76080, Note_on_c, 0, 51, 24
3, 76080, Note_on_c, 0, 56, 29
3, 76308, Note_on_c, 0, 56, 0
3, 76308, Note_on_c, 0, 51, 0
3, 76308, Note_on_c, 0, 44, 0
3, 76320, Note_on_c, 0, 49, 33
3, 76320, Note_on_c, 0, 56, 39
3, 76332, Control_c, 0, 64, 0
3, 76423, Control_c, 0, 64, 127
3, 76548, Note_on_c, 0, 56, 0
3, 76548, Note_on_c, 0, 49, 0
3, 76560, Note_on_c, 0, 56, 34
3, 76560, Note_on_c, 0, 49, 28
3, 76788, Note_on_c, 0, 49, 0
3, 76788, Note_on_c, 0, 56, 0
3, 76800, Note_on_c, 0, 49, 31
3, 76800, Note_on_c, 0, 56, 37
3, 76812, Control_c, 0, 64, 0
3, 76892, Control_c, 0, 64, 127
3, 77028, Note_on_c, 0, 56, 0
3, 77028, Note_on_c, 0, 49, 0
3, 77040, Note_on_c, 0, 49, 27
3, 77040, Note_on_c, 0, 56, 32
3, 77268, Note_on_c, 0, 56, 0
3, 77268, Note_on_c, 0, 49, 0
3, 77280, Note_on_c, 0, 49, 30
3, 77280, Note_on_c, 0, 56, 36
3, 77286, Control_c, 0, 64, 0
3, 77383, Control_c, 0, 64, 127
3, 77508, Note_on_c, 0, 56, 0
3, 77508, Note_on_c, 0, 49, 0
3, 77520, Note_on_c, 0, 49, 27
3, 77520, Note_on_c, 0, 56, 32
3, 77748, Note_on_c, 0, 56, 0
3, 77748, Note_on_c, 0, 49, 0
3, 77760, Note_on_c, 0, 49, 22
3, 77760, Note_on_c, 0, 56, 30
3, 77773, Control_c, 0, 64, 0
3, 77958, Control_c, 0, 64, 127
3, 77988, Note_on_c, 0, 56, 0
3, 77988, Note_on_c, 0, 49, 0
3, 78000, Note_on_c, 0, 49, 27
3, 78000, Note_on_c, 0, 42, 19
3, 78228, Note_on_c, 0, 42, 0
3, 78228, Note_on_c, 0, 49, 0
3, 78240, Note_on_c, 0, 42, 23
3, 78240, Note_on_c, 0, 49, 31
3, 78253, Control_c, 0, 64, 0
3, 78396, Control_c, 0, 64, 127
3, 78468, Note_on_c, 0, 49, 0
3, 78468, Note_on_c, 0, 42, 0
3, 78480, Note_on_c, 0, 42, 22
3, 78480, Note_on_c, 0, 49, 30
3, 78708, Note_on_c, 0, 49, 0
3, 78708, Note_on_c, 0, 42, 0
3, 78720, Note_on_c, 0, 42, 21
3, 78720, Note_on_c, 0, 49, 35
3, 78734, Control_c, 0, 64, 0
3, 78918, Control_c, 0, 64, 127
3, 78948, Note_on_c, 0, 49, 0
3, 78948, Note_on_c, 0, 42, 0
3, 78960, Note_on_c, 0, 42, 21
3, 78960, Note_on_c, 0, 53, 29
3, 79188, Note_on_c, 0, 53, 0
3, 79188, Note_on_c, 0, 42, 0
3, 79200, Note_on_c, 0, 42, 34
3, 79200, Note_on_c, 0, 54, 34
3, 79214, Control_c, 0, 64, 0
3, 79370, Control_c, 0, 64, 127
3, 79428, Note_on_c, 0, 54, 0
3, 79428, Note_on_c, 0, 42, 0
3, 79440, Note_on_c, 0, 41, 29
3, 79680, Note_on_c, 0, 41, 0
3, 79680, Note_on_c, 0, 44, 32
3, 79694, Control_c, 0, 64, 0
3, 79807, Control_c, 0, 64, 127
3, 79920, Note_on_c, 0, 44, 0
3, 79920, Note_on_c, 0, 42, 29
3, 80160, Note_on_c, 0, 42, 0
3, 80160, Note_on_c, 0, 46, 32
3, 80174, Control_c, 0, 64, 0
3, 80316, Control_c, 0, 64, 127
3, 80400, Note_on_c, 0, 46, 0
3, 80400, Note_on_c, 0, 37, 29
3, 80640, Note_on_c, 0, 37, 0
3, 80640, Note_on_c, 0, 30, 39
3, 80652, Control_c, 0, 64, 0
3, 80796, Control_c, 0, 64, 127
3, 80880, Note_on_c, 0, 30, 0
3, 80880, Note_on_c, 0, 53, 26
3, 81120, Note_on_c, 0, 53, 0
3, 81120, Note_on_c, 0, 56, 31
3, 81360, Note_on_c, 0, 56, 0
3, 81360, Note_on_c, 0, 54, 30
3, 81600, Note_on_c, 0, 54, 0
3, 81600, Note_on_c, 0, 58, 35
3, 81840, Note_on_c, 0, 58, 0
3, 81840, Note_on_c, 0, 49, 33
3, 82080, Note_on_c, 0, 49, 0
3, 82080, Note_on_c, 0, 42, 46
3, 82092, Control_c, 0, 64, 0
3, 82207, Control_c, 0, 64, 127
3, 82320, Note_on_c, 0, 42, 0
3, 82320, Note_on_c, 0, 53, 30
3, 82560, Note_on_c, 0, 53, 0
3, 82560, Note_on_c, 0, 56, 40
3, 82800, Note_on_c, 0, 56, 0
3, 82800, Note_on_c, 0, 54, 35
3, 83040, Note_on_c, 0, 54, 0
3, 83040, Note_on_c, 0, 58, 42
3, 83280, Note_on_c, 0, 58, 0
3, 83280, Note_on_c, 0, 49, 37
3, 83520, Note_on_c, 0, 49, 0
3, 83520, Note_on_c, 0, 42, 47
3, 83532, Control_c, 0, 64, 0
3, 83647, Control_c, 0, 64, 127
3, 83760, Note_on_c, 0, 42, 0
3, 83760, Note_on_c, 0, 53, 34
3, 84000, Note_on_c, 0, 53, 0
3, 84000, Note_on_c, 0, 56, 45
3, 84240, Note_on_c, 0, 56, 0
3, 84240, Note_on_c, 0, 54, 37
3, 84480, Note_on_c, 0, 54, 0
3, 84480, Note_on_c, 0, 58, 44
3, 84720, Note_on_c, 0, 58, 0
3, 84720, Note_on_c, 0, 49, 29
3, 84960, Note_on_c, 0, 49, 0
3, 84960, Note_on_c, 0, 42, 48
3, 84972, Control_c, 0, 64, 0
3, 85087, Control_c, 0, 64, 127
3, 85200, Note_on_c, 0, 42, 0
3, 85200, Note_on_c, 0, 53, 33
3, 85440, Note_on_c, 0, 53, 0
3, 85440, Note_on_c, 0, 56, 39
3, 85680, Note_on_c, 0, 56, 0
3, 85680, Note_on_c, 0, 54, 34
3, 85920, Note_on_c, 0, 54, 0
3, 85920, Note_on_c, 0, 58, 38
3, 86160, Note_on_c, 0, 58, 0
3, 86160, Note_on_c, 0, 49, 34
3, 86400, Note_on_c, 0, 49, 0
3, 86400, Note_on_c, 0, 47, 44
3, 86409, Control_c, 0, 64, 0
3, 86556, Control_c, 0, 64, 127
3, 86640, Note_on_c, 0, 47, 0
3, 86640, Note_on_c, 0, 53, 29
3, 86880, Note_on_c, 0, 53, 0
3, 86880, Note_on_c, 0, 56, 33
3, 87120, Note_on_c, 0, 56, 0
3, 87120, Note_on_c, 0, 54, 29
3, 87360, Note_on_c, 0, 54, 0
3, 87360, Note_on_c, 0, 58, 32
3, 87600, Note_on_c, 0, 58, 0
3, 87600, Note_on_c, 0, 49, 27
3, 87840, Note_on_c, 0, 49, 0
3, 87840, Note_on_c, 0, 47, 39
3, 87852, Control_c, 0, 64, 0
3, 88024, Control_c, 0, 64, 127
3, 88080, Note_on_c, 0, 47, 0
3, 88080, Note_on_c, 0, 53, 28
3, 88320, Note_on_c, 0, 53, 0
3, 88320, Note_on_c, 0, 56, 31
3, 88560, Note_on_c, 0, 56, 0
3, 88560, Note_on_c, 0, 54, 28
3, 88800, Note_on_c, 0, 54, 0
3, 88800, Note_on_c, 0, 59, 31
3, 89040, Note_on_c, 0, 59, 0
3, 89040, Note_on_c, 0, 47, 26
3, 89280, Note_on_c, 0, 47, 0
3, 89280, Note_on_c, 0, 39, 41
3, 89292, Control_c, 0, 64, 0
3, 89407, Control_c, 0, 64, 127
3, 89520, Note_on_c, 0, 39, 0
3, 89520, Note_on_c, 0, 50, 30
3, 89760, Note_on_c, 0, 50, 0
3, 89760, Note_on_c, 0, 52, 38
3, 90000, Note_on_c, 0, 52, 0
3, 90000, Note_on_c, 0, 51, 30
3, 90240, Note_on_c, 0, 51, 0
3, 90240, Note_on_c, 0, 55, 36
3, 90480, Note_on_c, 0, 55, 0
3, 90480, Note_on_c, 0, 46, 29
3, 90720, Note_on_c, 0, 46, 0
3, 90720, Note_on_c, 0, 44, 38
3, 90762, Control_c, 0, 64, 0
3, 90847, Control_c, 0, 64, 127
3, 90960, Note_on_c, 0, 44, 0
3, 90960, Note_on_c, 0, 50, 33
3, 91200, Note_on_c, 0, 50, 0
3, 91200, Note_on_c, 0, 52, 37
3, 91440, Note_on_c, 0, 52, 0
3, 91440, Note_on_c, 0, 51, 29
3, 91680, Note_on_c, 0, 51, 0
3, 91680, Note_on_c, 0, 56, 34
3, 91920, Note_on_c, 0, 56, 0
3, 91920, Note_on_c, 0, 44, 28
3, 92160, Note_on_c, 0, 44, 0
3, 92160, Note_on_c, 0, 37, 39
3, 92167, Control_c, 0, 64, 0
3, 92309, Control_c, 0, 64, 127
3, 92400, Note_on_c, 0, 37, 0
3, 92400, Note_on_c, 0, 48, 26
3, 92640, Note_on_c, 0, 48, 0
3, 92640, Note_on_c, 0, 51, 29
3, 92880, Note_on_c, 0, 51, 0
3, 92880, Note_on_c, 0, 49, 26
3, 93120, Note_on_c, 0, 49, 0
3, 93120, Note_on_c, 0, 53, 29
3, 93360, Note_on_c, 0, 53, 0
3, 93360, Note_on_c, 0, 44, 25
3, 93600, Note_on_c, 0, 44, 0
3, 93600, Note_on_c, 0, 37, 36
3, 93840, Note_on_c, 0, 37, 0
3, 93840, Note_on_c, 0, 48, 26
3, 94080, Note_on_c, 0, 48, 0
3, 94080, Note_on_c, 0, 51, 29
3, 94320, Note_on_c, 0, 51, 0
3, 94320, Note_on_c, 0, 49, 26
3, 94560, Note_on_c, 0, 49, 0
3, 94560, Note_on_c, 0, 53, 29
3, 94800, Note_on_c, 0, 53, 0
3, 94800, Note_on_c, 0, 44, 25
3, 95040, Note_on_c, 0, 44, 0
3, 95040, Note_on_c, 0, 42, 36
3, 95052, Control_c, 0, 64, 0
3, 95167, Control_c, 0, 64, 127
3, 95280, Note_on_c, 0, 42, 0
3, 95280, Note_on_c, 0, 48, 26
3, 95520, Note_on_c, 0, 48, 0
3, 95520, Note_on_c, 0, 51, 29
3, 95760, Note_on_c, 0, 51, 0
3, 95760, Note_on_c, 0, 49, 26
3, 96000, Note_on_c, 0, 49, 0
3, 96000, Note_on_c, 0, 54, 29
3, 96240, Note_on_c, 0, 54, 0
3, 96240, Note_on_c, 0, 42, 25
3, 96480, Note_on_c, 0, 42, 0
3, 96480, Note_on_c, 0, 35, 34
3, 96492, Control_c, 0, 64, 0
3, 96607, Control_c, 0, 64, 127
3, 96720, Note_on_c, 0, 35, 0
3, 96720, Note_on_c, 0, 50, 29
3, 96960, Note_on_c, 0, 50, 0
3, 96960, Note_on_c, 0, 53, 33
3, 97200, Note_on_c, 0, 53, 0
3, 97200, Note_on_c, 0, 51, 26
3, 97440, Note_on_c, 0, 51, 0
3, 97440, Note_on_c, 0, 59, 29
3, 97680, Note_on_c, 0, 59, 0
3, 97680, Note_on_c, 0, 44, 25
3, 97920, Note_on_c, 0, 44, 0
3, 97920, Note_on_c, 0, 37, 35
3, 97930, Control_c, 0, 64, 0
3, 98080, Control_c, 0, 64, 127
3, 98160, Note_on_c, 0, 37, 0
3, 98160, Note_on_c, 0, 48, 23
3, 98400, Note_on_c, 0, 48, 0
3, 98400, Note_on_c, 0, 51, 25
3, 98640, Note_on_c, 0, 51, 0
3, 98640, Note_on_c, 0, 49, 22
3, 98880, Note_on_c, 0, 49, 0
3, 98880, Note_on_c, 0, 53, 24
3, 99120, Note_on_c, 0, 53, 0
3, 99120, Note_on_c, 0, 44, 20
3, 99360, Note_on_c, 0, 44, 0
3, 99360, Note_on_c, 0, 37, 29
3, 99600, Note_on_c, 0, 37, 0
3, 99600, Note_on_c, 0, 48, 20
3, 99840, Note_on_c, 0, 48, 0
3, 99840, Note_on_c, 0, 51, 23
3, 100080, Note_on_c, 0, 51, 0
3, 100080, Note_on_c, 0, 49, 19
3, 100320, Note_on_c, 0, 49, 0
3, 100320, Note_on_c, 0, 56, 23
3, 100560, Note_on_c, 0, 56, 0
3, 100560, Note_on_c, 0, 37, 18
3, 100800, Note_on_c, 0, 37, 0
3, 100800, Note_on_c, 0, 30, 26
3, 100812, Control_c, 0, 64, 0
3, 100995, Control_c, 0, 64, 127
3, 101040, Note_on_c, 0, 30, 0
3, 101040, Note_on_c, 0, 48, 19
3, 101280, Note_on_c, 0, 48, 0
3, 101280, Note_on_c, 0, 51, 22
3, 101520, Note_on_c, 0, 51, 0
3, 101520, Note_on_c, 0, 49, 19
3, 101760, Note_on_c, 0, 49, 0
3, 101760, Note_on_c, 0, 54, 22
3, 102000, Note_on_c, 0, 54, 0
3, 102000, Note_on_c, 0, 37, 18
3, 102240, Note_on_c, 0, 37, 0
3, 102240, Note_on_c, 0, 42, 26
3, 102480, Note_on_c, 0, 42, 0
3, 102480, Note_on_c, 0, 48, 19
3, 102720, Note_on_c, 0, 48, 0
3, 102720, Note_on_c, 0, 51, 22
3, 102960, Note_on_c, 0, 51, 0
3, 102960, Note_on_c, 0, 49, 19
3, 103200, Note_on_c, 0, 49, 0
3, 103200, Note_on_c, 0, 54, 22
3, 103440, Note_on_c, 0, 54, 0
3, 103440, Note_on_c, 0, 37, 18
3, 103680, Note_on_c, 0, 37, 0
3, 103680, Note_on_c, 0, 30, 33
3, 103688, Control_c, 0, 64, 0
3, 103783, Control_c, 0, 64, 127
3, 103920, Note_on_c, 0, 30, 0
3, 103920, Note_on_c, 0, 42, 25
3, 103920, Note_on_c, 0, 51, 25
3, 104148, Note_on_c, 0, 51, 0
3, 104148, Note_on_c, 0, 42, 0
3, 104160, Note_on_c, 0, 42, 27
3, 104160, Note_on_c, 0, 51, 27
3, 104388, Note_on_c, 0, 51, 0
3, 104388, Note_on_c, 0, 42, 0
3, 104400, Note_on_c, 0, 42, 28
3, 104400, Note_on_c, 0, 51, 28
3, 104628, Note_on_c, 0, 51, 0
3, 104628, Note_on_c, 0, 42, 0
3, 104640, Note_on_c, 0, 42, 30
3, 104640, Note_on_c, 0, 51, 30
3, 104868, Note_on_c, 0, 51, 0
3, 104868, Note_on_c, 0, 42, 0
3, 104880, Note_on_c, 0, 42, 26
3, 104880, Note_on_c, 0, 51, 26
3, 105108, Note_on_c, 0, 51, 0
3, 105108, Note_on_c, 0, 42, 0
3, 105120, Note_on_c, 0, 42, 26
3, 105120, Note_on_c, 0, 51, 26
3, 105348, Note_on_c, 0, 51, 0
3, 105348, Note_on_c, 0, 42, 0
3, 105360, Note_on_c, 0, 42, 26
3, 105360, Note_on_c, 0, 51, 26
3, 105588, Note_on_c, 0, 51, 0
3, 105588, Note_on_c, 0, 42, 0
3, 105600, Note_on_c, 0, 42, 25
3, 105600, Note_on_c, 0, 51, 25
3, 105615, Control_c, 0, 64, 0
3, 105686, Control_c, 0, 64, 127
3, 105828, Note_on_c, 0, 51, 0
3, 105828, Note_on_c, 0, 42, 0
3, 105840, Note_on_c, 0, 42, 25
3, 105840, Note_on_c, 0, 49, 25
3, 105854, Control_c, 0, 64, 0
3, 105903, Control_c, 0, 64, 127
3, 106068, Note_on_c, 0, 49, 0
3, 106068, Note_on_c, 0, 42, 0
3, 106080, Note_on_c, 0, 42, 21
3, 106080, Note_on_c, 0, 49, 21
3, 106097, Control_c, 0, 64, 0
3, 106149, Control_c, 0, 64, 127
3, 106308, Note_on_c, 0, 49, 0
3, 106308, Note_on_c, 0, 42, 0
3, 106320, Note_on_c, 0, 42, 17
3, 106320, Note_on_c, 0, 49, 17
3, 106334, Control_c, 0, 64, 0
3, 106412, Control_c, 0, 64, 127
3, 106548, Note_on_c, 0, 49, 0
3, 106548, Note_on_c, 0, 42, 0
3, 106560, Note_on_c, 0, 42, 20
3, 106560, Note_on_c, 0, 49, 25
3, 106573, Control_c, 0, 64, 0
3, 107067, Control_c, 0, 64, 127
3, 109440, Note_on_c, 0, 49, 0
3, 109440, Note_on_c, 0, 42, 0
3, 111467, Control_c, 0, 64, 0
3, 111467, End_track
4, 0, Start_track
4, 0, Title_t, "Chopin: Prelude No.13 in F# Major, Op. 28"
4, 0, End_track
5, 0, Start_track
5, 0, Title_t, "Copyright © 2002 by Bernd Krueger"
5, 0, End_track
6, 0, Start_track
6, 0, Title_t, "http://www.piano-midi.de"
6, 0, End_track
7, 0, Start_track
7, 0, Title_t, "Edition: 2014-02-21"
7, 0, End_track
8, 0, Start_track
8, 0, Title_t, "Spur 7"
8, 0, Control_c, 0, 7, 127
8, 0, Control_c, 0, 10, 64
8, 0, End_track
9, 0, Start_track
9, 0, Title_t, "Spur 8"
9, 0, Control_c, 0, 7, 127
9, 0, Control_c, 0, 10, 64
9, 0, End_track
0, 0, End_of_file
