0, 0, Header, 1, 8, 480
1, 0, Start_track
1, 0, Title_t, "Chopin Mazurka Opus 33 Nr. 4"
1, 0, Copyright_t, "Copyright © 2003 by Bernd Krueger "
1, 0, Text_t, "Frederic Chopin"
1, 0, Text_t, "Fertiggestellt am  14.7.2003\012"
1, 0, Text_t, "Update am 14.7.2010\012"
1, 0, Text_t, "Update am 25.2.2014\012"
1, 0, Text_t, "Dauer: 5:18 Minuten\012"
1, 0, SMPTE_offset, 96, 0, 3, 0, 0
1, 0, Time_signature, 3, 2, 24, 8
1, 0, Key_signature, 2, "major"
1, 0, Tempo, 500000
1, 1920, Tempo, 552995
1, 2040, Tempo, 491803
1, 2400, Tempo, 478088
1, 2640, Tempo, 500000
1, 2880, Tempo, 436364
1, 3020, Tempo, 600000
1, 3120, Tempo, 500000
1, 3360, Tempo, 500000
1, 4320, Tempo, 500000
1, 4800, Tempo, 560748
1, 4920, Tempo, 487805
1, 5280, Tempo, 478088
1, 5520, Tempo, 500000
1, 5760, Tempo, 436364
1, 5900, Tempo, 600000
1, 6000, Tempo, 500000
1, 6240, Tempo, 491803
1, 6720, Tempo, 500000
1, 7200, Tempo, 500000
1, 7680, Tempo, 585366
1, 7800, Tempo, 489796
1, 8160, Tempo, 478088
1, 8400, Tempo, 500000
1, 8640, Tempo, 436364
1, 8780, Tempo, 600000
1, 8880, Tempo, 500000
1, 9600, Tempo, 480000
1, 10440, Tempo, 512821
1, 10560, Tempo, 470588
1, 11040, Tempo, 485830
1, 11520, Tempo, 463320
1, 12000, Tempo, 471661
1, 13440, Tempo, 462036
1, 13920, Tempo, 471661
1, 14400, Tempo, 531444
1, 14520, Tempo, 447761
1, 14880, Tempo, 471661
1, 15840, Tempo, 528961
1, 15960, Tempo, 449438
1, 16320, Tempo, 462036
1, 16800, Tempo, 471661
1, 17280, Tempo, 528961
1, 17400, Tempo, 458295
1, 17760, Tempo, 471661
1, 18240, Tempo, 500000
1, 19200, Tempo, 552995
1, 19320, Tempo, 491803
1, 19680, Tempo, 478088
1, 19920, Tempo, 500000
1, 20160, Tempo, 436364
1, 20300, Tempo, 600000
1, 20400, Tempo, 500000
1, 21600, Tempo, 500000
1, 22080, Tempo, 560748
1, 22200, Tempo, 487805
1, 22560, Tempo, 478088
1, 22800, Tempo, 500000
1, 23040, Tempo, 436364
1, 23180, Tempo, 600000
1, 23280, Tempo, 500000
1, 24000, Tempo, 472441
1, 24960, Tempo, 433213
1, 25440, Tempo, 472441
1, 25920, Tempo, 476190
1, 27360, Tempo, 472441
1, 27840, Tempo, 433213
1, 28320, Tempo, 472441
1, 28800, Tempo, 476190
1, 30240, Tempo, 452830
1, 30720, Tempo, 487805
1, 31200, Tempo, 466926
1, 31680, Tempo, 493827
1, 32160, Tempo, 470588
1, 32640, Tempo, 502092
1, 36000, Tempo, 500000
1, 36480, Tempo, 552995
1, 36600, Tempo, 491803
1, 36960, Tempo, 478088
1, 37200, Tempo, 500000
1, 37440, Tempo, 436364
1, 37580, Tempo, 600000
1, 37680, Tempo, 500000
1, 38880, Tempo, 500000
1, 39360, Tempo, 560748
1, 39480, Tempo, 487805
1, 39840, Tempo, 478088
1, 40080, Tempo, 500000
1, 40320, Tempo, 436364
1, 40460, Tempo, 600000
1, 40560, Tempo, 500000
1, 40800, Tempo, 493827
1, 41760, Tempo, 500000
1, 42240, Tempo, 585366
1, 42360, Tempo, 489796
1, 42720, Tempo, 478088
1, 42960, Tempo, 500000
1, 43200, Tempo, 436364
1, 43340, Tempo, 600000
1, 43440, Tempo, 500000
1, 44160, Tempo, 481928
1, 45000, Tempo, 510638
1, 45120, Tempo, 465116
1, 45600, Tempo, 485830
1, 46080, Tempo, 465116
1, 46560, Tempo, 472515
1, 48000, Tempo, 462892
1, 48480, Tempo, 472515
1, 48960, Tempo, 532434
1, 49080, Tempo, 449438
1, 49440, Tempo, 472515
1, 50400, Tempo, 529942
1, 50520, Tempo, 447761
1, 50880, Tempo, 462892
1, 51360, Tempo, 472515
1, 51840, Tempo, 529942
1, 51960, Tempo, 459137
1, 52320, Tempo, 472515
1, 52800, Tempo, 500000
1, 53760, Tempo, 552995
1, 53880, Tempo, 491803
1, 54240, Tempo, 478088
1, 54480, Tempo, 500000
1, 54720, Tempo, 436364
1, 54860, Tempo, 600000
1, 54960, Tempo, 500000
1, 55200, Tempo, 487805
1, 55680, Tempo, 500000
1, 56160, Tempo, 500000
1, 56640, Tempo, 560748
1, 56760, Tempo, 487805
1, 57120, Tempo, 478088
1, 57360, Tempo, 500000
1, 57600, Tempo, 436364
1, 57740, Tempo, 600000
1, 57840, Tempo, 500000
1, 58560, Tempo, 472441
1, 59520, Tempo, 433213
1, 60000, Tempo, 472441
1, 60480, Tempo, 476190
1, 61920, Tempo, 472441
1, 62400, Tempo, 433213
1, 62880, Tempo, 472441
1, 63360, Tempo, 476190
1, 64800, Tempo, 452830
1, 65280, Tempo, 487805
1, 65760, Tempo, 466926
1, 66240, Tempo, 493827
1, 66720, Tempo, 470588
1, 67200, Tempo, 502092
1, 69120, Tempo, 515021
1, 70080, Tempo, 582524
1, 70560, Key_signature, -2, "major"
1, 70560, Tempo, 400000
1, 71040, Tempo, 377358
1, 72000, Tempo, 361446
1, 72360, Tempo, 342857
1, 72460, Tempo, 349854
1, 72960, Tempo, 384615
1, 73920, Tempo, 377358
1, 74880, Tempo, 361446
1, 75240, Tempo, 343840
1, 75360, Tempo, 351906
1, 75840, Tempo, 384615
1, 76320, Tempo, 400000
1, 76800, Tempo, 377358
1, 77760, Tempo, 361446
1, 78120, Tempo, 342857
1, 78240, Tempo, 347826
1, 78720, Tempo, 384615
1, 79680, Tempo, 377358
1, 80640, Tempo, 361446
1, 81000, Tempo, 344828
1, 81120, Tempo, 349854
1, 81600, Tempo, 384615
1, 82080, Tempo, 400000
1, 82560, Tempo, 377358
1, 83520, Tempo, 361446
1, 84000, Tempo, 350877
1, 84480, Tempo, 384615
1, 85440, Tempo, 377358
1, 86400, Tempo, 373832
1, 86880, Tempo, 363636
1, 87360, Tempo, 384615
1, 88320, Tempo, 371517
1, 88800, Tempo, 384615
1, 89280, Tempo, 375000
1, 89360, Tempo, 376176
1, 89440, Tempo, 377358
1, 89520, Tempo, 378549
1, 89600, Tempo, 379747
1, 89680, Tempo, 380952
1, 89760, Tempo, 382166
1, 89840, Tempo, 383387
1, 89920, Tempo, 384615
1, 90000, Tempo, 385852
1, 90040, Tempo, 387097
1, 90120, Tempo, 388350
1, 90200, Tempo, 389610
1, 90280, Tempo, 390879
1, 90360, Tempo, 392157
1, 90440, Tempo, 393443
1, 90520, Tempo, 394737
1, 90600, Tempo, 396040
1, 90680, Tempo, 397351
1, 90720, Tempo, 398671
1, 91200, Tempo, 390879
1, 92120, Tempo, 397351
1, 92200, Tempo, 398671
1, 92240, Tempo, 400000
1, 92280, Tempo, 401338
1, 92320, Tempo, 402685
1, 92360, Tempo, 404040
1, 92400, Tempo, 405405
1, 92440, Tempo, 406780
1, 92480, Tempo, 408163
1, 92520, Tempo, 409556
1, 92560, Tempo, 410959
1, 92640, Tempo, 412371
1, 92680, Tempo, 413793
1, 92720, Tempo, 415225
1, 92760, Tempo, 416667
1, 92800, Tempo, 418118
1, 92840, Tempo, 419580
1, 92880, Tempo, 421053
1, 92920, Tempo, 422535
1, 92960, Tempo, 424028
1, 93000, Tempo, 425532
1, 93040, Tempo, 427046
1, 93120, Tempo, 428571
1, 93160, Tempo, 430108
1, 93200, Tempo, 431655
1, 93240, Tempo, 433213
1, 93280, Tempo, 434783
1, 93320, Tempo, 436364
1, 93360, Tempo, 437956
1, 93400, Tempo, 439560
1, 93440, Tempo, 441176
1, 93480, Tempo, 442804
1, 93520, Tempo, 444444
1, 93600, Key_signature, 2, "major"
1, 93600, Tempo, 500000
1, 94080, Tempo, 552995
1, 94200, Tempo, 491803
1, 94560, Tempo, 478088
1, 94800, Tempo, 500000
1, 95040, Tempo, 436364
1, 95180, Tempo, 600000
1, 95280, Tempo, 500000
1, 95560, Tempo, 481928
1, 96480, Tempo, 500000
1, 96960, Tempo, 560748
1, 97080, Tempo, 487805
1, 97440, Tempo, 478088
1, 97680, Tempo, 500000
1, 97920, Tempo, 436364
1, 98060, Tempo, 600000
1, 98160, Tempo, 500000
1, 98400, Tempo, 489796
1, 99360, Tempo, 500000
1, 99840, Tempo, 585366
1, 99960, Tempo, 489796
1, 100320, Tempo, 478088
1, 100560, Tempo, 500000
1, 100800, Tempo, 436364
1, 100940, Tempo, 600000
1, 101040, Tempo, 500000
1, 101760, Tempo, 481928
1, 102600, Tempo, 510638
1, 102720, Tempo, 466926
1, 103200, Tempo, 485830
1, 103680, Tempo, 465116
1, 104160, Tempo, 472813
1, 105600, Tempo, 463177
1, 106080, Tempo, 472813
1, 106560, Tempo, 532765
1, 106680, Tempo, 446097
1, 107040, Tempo, 472813
1, 108000, Tempo, 530270
1, 108120, Tempo, 437956
1, 108480, Tempo, 463177
1, 108960, Tempo, 472813
1, 109440, Tempo, 530270
1, 109560, Tempo, 459418
1, 109920, Tempo, 472813
1, 110400, Tempo, 500000
1, 111360, Tempo, 552995
1, 111480, Tempo, 491803
1, 111840, Tempo, 478088
1, 112080, Tempo, 500000
1, 112320, Tempo, 436364
1, 112460, Tempo, 600000
1, 112560, Tempo, 500000
1, 113760, Tempo, 500000
1, 114240, Tempo, 560748
1, 114360, Tempo, 487805
1, 114720, Tempo, 478088
1, 114960, Tempo, 500000
1, 115200, Tempo, 436364
1, 115340, Tempo, 600000
1, 115440, Tempo, 500000
1, 115680, Tempo, 489796
1, 116160, Tempo, 472441
1, 117120, Tempo, 433213
1, 117600, Tempo, 472441
1, 118080, Tempo, 476190
1, 119520, Tempo, 472441
1, 120000, Tempo, 433213
1, 120480, Tempo, 472441
1, 120960, Tempo, 476190
1, 122400, Tempo, 452830
1, 122880, Tempo, 487805
1, 123360, Tempo, 466926
1, 123840, Tempo, 493827
1, 124320, Tempo, 470588
1, 124800, Tempo, 502092
1, 128160, Tempo, 500000
1, 128640, Tempo, 552995
1, 128760, Tempo, 491803
1, 129120, Tempo, 478088
1, 129360, Tempo, 500000
1, 129600, Tempo, 436364
1, 129740, Tempo, 600000
1, 129840, Tempo, 500000
1, 131040, Tempo, 500000
1, 131520, Tempo, 560748
1, 131640, Tempo, 487805
1, 132000, Tempo, 478088
1, 132240, Tempo, 500000
1, 132480, Tempo, 436364
1, 132620, Tempo, 600000
1, 132720, Tempo, 500000
1, 133920, Tempo, 500000
1, 134400, Tempo, 585366
1, 134520, Tempo, 489796
1, 134880, Tempo, 478088
1, 135120, Tempo, 500000
1, 135360, Tempo, 436364
1, 135500, Tempo, 600000
1, 135600, Tempo, 500000
1, 136320, Tempo, 483871
1, 137160, Tempo, 508475
1, 137280, Tempo, 472441
1, 137760, Tempo, 481928
1, 138240, Tempo, 463320
1, 138720, Tempo, 472701
1, 140160, Tempo, 463070
1, 140640, Tempo, 472701
1, 141120, Tempo, 532623
1, 141240, Tempo, 431655
1, 141600, Tempo, 472701
1, 142560, Tempo, 530129
1, 142680, Tempo, 439560
1, 143040, Tempo, 463070
1, 143520, Tempo, 472701
1, 144000, Tempo, 530129
1, 144120, Tempo, 459313
1, 144480, Tempo, 472701
1, 144960, Tempo, 500000
1, 145920, Tempo, 552995
1, 146040, Tempo, 491803
1, 146400, Tempo, 478088
1, 146640, Tempo, 500000
1, 146880, Tempo, 436364
1, 147020, Tempo, 600000
1, 147120, Tempo, 500000
1, 147360, Tempo, 489796
1, 148320, Tempo, 500000
1, 148800, Tempo, 560748
1, 148920, Tempo, 487805
1, 149280, Tempo, 478088
1, 149520, Tempo, 500000
1, 149760, Tempo, 436364
1, 149900, Tempo, 600000
1, 150000, Tempo, 500000
1, 150240, Tempo, 489796
1, 150720, Tempo, 472441
1, 151680, Tempo, 433213
1, 152160, Tempo, 472441
1, 152640, Tempo, 476190
1, 154080, Tempo, 472441
1, 154560, Tempo, 433213
1, 155040, Tempo, 472441
1, 155520, Tempo, 476190
1, 156960, Tempo, 452830
1, 157440, Tempo, 487805
1, 157920, Tempo, 466926
1, 158400, Tempo, 493827
1, 158880, Tempo, 470588
1, 159360, Tempo, 502092
1, 161280, Tempo, 515021
1, 162240, Tempo, 582524
1, 162720, Key_signature, -2, "major"
1, 162720, Tempo, 400000
1, 163200, Tempo, 377358
1, 164160, Tempo, 361446
1, 164560, Tempo, 333333
1, 164620, Tempo, 349854
1, 165120, Tempo, 384615
1, 166080, Tempo, 377358
1, 167040, Tempo, 361446
1, 167440, Tempo, 335196
1, 167520, Tempo, 351906
1, 168000, Tempo, 384615
1, 168480, Tempo, 400000
1, 168960, Tempo, 377358
1, 169920, Tempo, 361446
1, 170280, Tempo, 336134
1, 170400, Tempo, 347826
1, 170880, Tempo, 384615
1, 171840, Tempo, 377358
1, 172800, Tempo, 361446
1, 173160, Tempo, 338028
1, 173280, Tempo, 349854
1, 173760, Tempo, 384615
1, 174240, Tempo, 400000
1, 174720, Tempo, 377358
1, 175680, Tempo, 361446
1, 176160, Tempo, 350877
1, 176640, Tempo, 384615
1, 177600, Tempo, 377358
1, 178560, Tempo, 373832
1, 179040, Tempo, 363636
1, 179520, Tempo, 384615
1, 180480, Tempo, 371517
1, 180960, Tempo, 384615
1, 181440, Tempo, 375000
1, 181520, Tempo, 376176
1, 181600, Tempo, 377358
1, 181680, Tempo, 378549
1, 181760, Tempo, 379747
1, 181840, Tempo, 380952
1, 181920, Tempo, 382166
1, 182000, Tempo, 383387
1, 182080, Tempo, 384615
1, 182160, Tempo, 385852
1, 182200, Tempo, 387097
1, 182280, Tempo, 388350
1, 182360, Tempo, 389610
1, 182440, Tempo, 390879
1, 182520, Tempo, 392157
1, 182600, Tempo, 393443
1, 182680, Tempo, 394737
1, 182760, Tempo, 396040
1, 182840, Tempo, 397351
1, 182880, Tempo, 398671
1, 183360, Tempo, 390879
1, 184240, Tempo, 400000
1, 184320, Tempo, 401338
1, 184400, Tempo, 402685
1, 184480, Tempo, 404040
1, 184520, Tempo, 405405
1, 184600, Tempo, 406780
1, 184680, Tempo, 408163
1, 184760, Tempo, 409556
1, 184800, Tempo, 410959
1, 184880, Tempo, 412371
1, 184960, Tempo, 413793
1, 185040, Tempo, 415225
1, 185080, Tempo, 416667
1, 185160, Tempo, 418118
1, 185240, Tempo, 419580
1, 185320, Tempo, 421053
1, 185360, Tempo, 422535
1, 185440, Tempo, 424028
1, 185520, Tempo, 425532
1, 185600, Tempo, 427046
1, 185640, Tempo, 428571
1, 185760, Key_signature, 5, "major"
1, 185760, Tempo, 493827
1, 186240, Tempo, 487805
1, 186720, Tempo, 508475
1, 187200, Tempo, 502092
1, 187680, Tempo, 495868
1, 188160, Tempo, 510638
1, 188640, Tempo, 495868
1, 188880, Tempo, 515021
1, 189000, Tempo, 495868
1, 189600, Tempo, 535714
1, 190080, Tempo, 506329
1, 190560, Tempo, 491803
1, 191040, Tempo, 508475
1, 192000, Tempo, 497925
1, 192480, Tempo, 515021
1, 193440, Tempo, 504202
1, 193920, Tempo, 540541
1, 194040, Tempo, 466926
1, 194160, Tempo, 517241
1, 194880, Tempo, 504202
1, 195360, Tempo, 515021
1, 196320, Tempo, 526316
1, 196800, Tempo, 568182
1, 197280, Tempo, 493827
1, 197760, Tempo, 487805
1, 198000, Tempo, 539568
1, 198240, Tempo, 555556
1, 198720, Tempo, 502092
1, 199200, Tempo, 495868
1, 199680, Tempo, 510638
1, 200160, Tempo, 495868
1, 200400, Tempo, 515021
1, 200520, Tempo, 495868
1, 201120, Tempo, 535714
1, 201600, Tempo, 506329
1, 202080, Tempo, 491803
1, 202560, Tempo, 543478
1, 203040, Tempo, 506329
1, 203520, Tempo, 497925
1, 204000, Tempo, 515021
1, 204960, Tempo, 504202
1, 205440, Tempo, 510638
1, 205680, Tempo, 517241
1, 206400, Tempo, 504202
1, 206880, Tempo, 515021
1, 207840, Tempo, 568182
1, 208080, Tempo, 542986
1, 208320, Tempo, 547445
1, 208560, Tempo, 585938
1, 208800, Tempo, 493827
1, 209280, Tempo, 487805
1, 209760, Tempo, 508475
1, 210240, Tempo, 502092
1, 210720, Tempo, 495868
1, 211200, Tempo, 510638
1, 211680, Tempo, 495868
1, 211920, Tempo, 515021
1, 212040, Tempo, 495868
1, 212640, Tempo, 524017
1, 212880, Tempo, 585938
1, 213120, Tempo, 506329
1, 213600, Tempo, 491803
1, 214080, Tempo, 508475
1, 215040, Tempo, 497925
1, 215520, Tempo, 515021
1, 216480, Tempo, 504202
1, 216960, Tempo, 540541
1, 217080, Tempo, 466926
1, 217200, Tempo, 517241
1, 217920, Tempo, 504202
1, 218400, Tempo, 515021
1, 219360, Tempo, 528169
1, 219840, Tempo, 547445
1, 220320, Tempo, 493827
1, 220800, Tempo, 487805
1, 221040, Tempo, 528169
1, 221280, Tempo, 555556
1, 221760, Tempo, 502092
1, 222240, Tempo, 495868
1, 222720, Tempo, 510638
1, 223200, Tempo, 495868
1, 223440, Tempo, 515021
1, 223560, Tempo, 495868
1, 224160, Tempo, 539568
1, 224640, Tempo, 506329
1, 225120, Tempo, 491803
1, 225600, Tempo, 524017
1, 226080, Tempo, 506329
1, 226560, Tempo, 497925
1, 227040, Tempo, 515021
1, 228000, Tempo, 504202
1, 228480, Tempo, 510638
1, 228720, Tempo, 517241
1, 229440, Tempo, 504202
1, 229920, Tempo, 515021
1, 230880, Tempo, 526316
1, 231120, Tempo, 542986
1, 231360, Tempo, 483871
1, 231840, Tempo, 442804
1, 231860, Tempo, 416667
1, 232200, Tempo, 394737
1, 232320, Tempo, 428571
1, 232800, Tempo, 421053
1, 233280, Tempo, 412371
1, 233640, Tempo, 397351
1, 233760, Tempo, 412371
1, 234240, Tempo, 421053
1, 234720, Tempo, 412371
1, 235080, Tempo, 394737
1, 235200, Tempo, 412371
1, 235680, Tempo, 422535
1, 236160, Tempo, 412371
1, 236520, Tempo, 397351
1, 236640, Tempo, 433213
1, 237120, Tempo, 422535
1, 237600, Tempo, 413793
1, 237960, Tempo, 380952
1, 238080, Tempo, 405405
1, 238440, Tempo, 389610
1, 238560, Tempo, 427046
1, 239040, Tempo, 415225
1, 239400, Tempo, 382166
1, 239520, Tempo, 408163
1, 239880, Tempo, 390879
1, 240000, Tempo, 424028
1, 240480, Tempo, 413793
1, 240840, Tempo, 397351
1, 240960, Tempo, 421053
1, 241320, Tempo, 400000
1, 241440, Tempo, 468750
1, 241920, Tempo, 456274
1, 242280, Tempo, 526316
1, 242400, Tempo, 487805
1, 243360, Tempo, 442804
1, 243380, Tempo, 416667
1, 243720, Tempo, 394737
1, 243840, Tempo, 428571
1, 244320, Tempo, 421053
1, 244800, Tempo, 412371
1, 245160, Tempo, 397351
1, 245280, Tempo, 431655
1, 245760, Tempo, 421053
1, 246240, Tempo, 412371
1, 246600, Tempo, 394737
1, 246720, Tempo, 413793
1, 247200, Tempo, 422535
1, 247680, Tempo, 412371
1, 248040, Tempo, 397351
1, 248160, Tempo, 433213
1, 248640, Tempo, 422535
1, 249120, Tempo, 413793
1, 249480, Tempo, 380952
1, 249600, Tempo, 405405
1, 249960, Tempo, 389610
1, 250080, Tempo, 427046
1, 250560, Tempo, 415225
1, 250920, Tempo, 382166
1, 251040, Tempo, 408163
1, 251400, Tempo, 390879
1, 251520, Tempo, 424028
1, 252000, Tempo, 413793
1, 252360, Tempo, 397351
1, 252480, Tempo, 421053
1, 252840, Tempo, 400000
1, 252960, Tempo, 437956
1, 253440, Tempo, 451128
1, 253800, Tempo, 396040
1, 253920, Tempo, 442804
1, 254280, Tempo, 398671
1, 254400, Tempo, 456274
1, 254880, Tempo, 412371
1, 255240, Tempo, 394737
1, 255360, Tempo, 431655
1, 255840, Tempo, 422535
1, 256320, Tempo, 413793
1, 256680, Tempo, 393443
1, 256800, Tempo, 422535
1, 256820, Tempo, 408163
1, 257280, Tempo, 412371
1, 257760, Tempo, 419580
1, 258120, Tempo, 394737
1, 258240, Tempo, 424028
1, 258720, Tempo, 415225
1, 259200, Tempo, 413793
1, 259560, Tempo, 393443
1, 259680, Tempo, 422535
1, 259700, Tempo, 408163
1, 260160, Tempo, 412371
1, 260640, Tempo, 413793
1, 261000, Tempo, 380952
1, 261120, Tempo, 405405
1, 261480, Tempo, 389610
1, 261600, Tempo, 427046
1, 262080, Tempo, 413793
1, 262440, Tempo, 380952
1, 262560, Tempo, 405405
1, 262920, Tempo, 389610
1, 263040, Tempo, 427046
1, 263520, Tempo, 413793
1, 263880, Tempo, 380952
1, 264000, Tempo, 405405
1, 264360, Tempo, 389610
1, 264480, Tempo, 427046
1, 264960, Tempo, 456274
1, 265320, Tempo, 526316
1, 265440, Tempo, 487805
1, 266760, Tempo, 394737
1, 266880, Tempo, 424028
1, 267360, Tempo, 415225
1, 267840, Tempo, 413793
1, 268200, Tempo, 393443
1, 268320, Tempo, 422535
1, 268340, Tempo, 408163
1, 268800, Tempo, 444444
1, 269280, Tempo, 489796
1, 269640, Tempo, 419580
1, 269760, Tempo, 437956
1, 270240, Tempo, 422535
1, 270720, Tempo, 454545
1, 271080, Tempo, 422535
1, 271200, Tempo, 444444
1, 271680, Tempo, 444444
1, 272160, Tempo, 456274
1, 272640, Tempo, 437956
1, 273120, Tempo, 466926
1, 273600, Tempo, 456274
1, 274080, Tempo, 437956
1, 274560, Tempo, 476190
1, 275040, Tempo, 466926
1, 275520, Tempo, 454545
1, 276000, Tempo, 483871
1, 276480, Tempo, 491803
1, 276960, Tempo, 474308
1, 277440, Tempo, 521739
1, 277920, Key_signature, 2, "major"
1, 277920, Tempo, 504202
1, 278400, Tempo, 552995
1, 278520, Tempo, 491803
1, 278880, Tempo, 478088
1, 279120, Tempo, 500000
1, 279360, Tempo, 436364
1, 279500, Tempo, 600000
1, 279600, Tempo, 500000
1, 280800, Tempo, 500000
1, 281280, Tempo, 560748
1, 281400, Tempo, 487805
1, 281760, Tempo, 478088
1, 282000, Tempo, 500000
1, 282240, Tempo, 436364
1, 282380, Tempo, 600000
1, 282480, Tempo, 500000
1, 283680, Tempo, 500000
1, 284160, Tempo, 585366
1, 284280, Tempo, 489796
1, 284640, Tempo, 478088
1, 284880, Tempo, 500000
1, 285120, Tempo, 436364
1, 285260, Tempo, 600000
1, 285360, Tempo, 500000
1, 286080, Tempo, 481928
1, 286920, Tempo, 508475
1, 287040, Tempo, 468750
1, 287520, Tempo, 491803
1, 288000, Tempo, 461538
1, 288480, Tempo, 473111
1, 289480, Tempo, 461538
1, 289920, Tempo, 449438
1, 290400, Tempo, 466926
1, 290880, Tempo, 533096
1, 291000, Tempo, 459700
1, 291040, Tempo, 436364
1, 291360, Tempo, 473111
1, 292320, Tempo, 530598
1, 292440, Tempo, 457841
1, 292480, Tempo, 434783
1, 292800, Tempo, 463464
1, 293280, Tempo, 473111
1, 293760, Tempo, 530598
1, 293880, Tempo, 459700
1, 294240, Tempo, 473111
1, 294720, Tempo, 500000
1, 295680, Tempo, 552995
1, 295800, Tempo, 491803
1, 296160, Tempo, 478088
1, 296400, Tempo, 500000
1, 296640, Tempo, 436364
1, 296780, Tempo, 600000
1, 296880, Tempo, 500000
1, 297120, Tempo, 478088
1, 297600, Tempo, 500000
1, 298080, Tempo, 500000
1, 298560, Tempo, 560748
1, 298680, Tempo, 487805
1, 299040, Tempo, 478088
1, 299280, Tempo, 500000
1, 299520, Tempo, 436364
1, 299660, Tempo, 600000
1, 299760, Tempo, 500000
1, 300000, Tempo, 483871
1, 300480, Tempo, 472441
1, 301440, Tempo, 433213
1, 301920, Tempo, 472441
1, 302400, Tempo, 476190
1, 303360, Tempo, 463320
1, 303840, Tempo, 472441
1, 303880, Tempo, 461538
1, 304320, Tempo, 433213
1, 304800, Tempo, 472441
1, 305280, Tempo, 476190
1, 306720, Tempo, 452830
1, 307200, Tempo, 487805
1, 307680, Tempo, 466926
1, 308160, Tempo, 493827
1, 308640, Tempo, 470588
1, 309120, Tempo, 502092
1, 309600, Tempo, 489796
1, 310560, Tempo, 510638
1, 311040, Tempo, 497925
1, 311520, Tempo, 512821
1, 312000, Tempo, 530973
1, 312480, Tempo, 519481
1, 313920, Tempo, 530973
1, 315360, Tempo, 519481
1, 316800, Tempo, 533333
1, 318240, Tempo, 521739
1, 321120, Tempo, 493827
1, 321600, Tempo, 442804
1, 322320, Tempo, 487805
1, 322560, Tempo, 470588
1, 323040, Tempo, 506329
1, 323520, Tempo, 588235
1, 325440, Tempo, 600000
1, 325440, End_track
2, 0, Start_track
2, 0, Title_t, "Piano right"
2, 0, Program_c, 0, 0
2, 0, Control_c, 0, 7, 100
2, 0, Control_c, 0, 10, 64
2, 0, Text_t, "bdca426d104a26ac9dcb070447587523"
2, 0, Control_c, 0, 91, 127
2, 960, Note_on_c, 0, 78, 55
2, 1680, Note_on_c, 0, 78, 0
2, 1680, Note_on_c, 0, 83, 50
2, 1920, Note_on_c, 0, 83, 0
2, 1920, Note_on_c, 0, 79, 50
2, 1980, Note_on_c, 0, 79, 0
2, 1980, Note_on_c, 0, 81, 50
2, 2040, Note_on_c, 0, 81, 0
2, 2040, Note_on_c, 0, 79, 57
2, 2400, Note_on_c, 0, 79, 0
2, 2400, Note_on_c, 0, 78, 53
2, 2640, Note_on_c, 0, 78, 0
2, 2640, Note_on_c, 0, 76, 50
2, 2880, Note_on_c, 0, 76, 0
2, 2880, Note_on_c, 0, 78, 55
2, 3120, Note_on_c, 0, 78, 0
2, 3120, Note_on_c, 0, 71, 50
2, 4320, Note_on_c, 0, 71, 0
2, 4320, Note_on_c, 0, 73, 58
2, 4560, Note_on_c, 0, 73, 0
2, 4560, Note_on_c, 0, 76, 50
2, 4800, Note_on_c, 0, 76, 0
2, 4800, Note_on_c, 0, 74, 50
2, 4860, Note_on_c, 0, 74, 0
2, 4860, Note_on_c, 0, 76, 50
2, 4920, Note_on_c, 0, 76, 0
2, 4920, Note_on_c, 0, 74, 57
2, 5280, Note_on_c, 0, 74, 0
2, 5280, Note_on_c, 0, 73, 53
2, 5760, Note_on_c, 0, 73, 0
2, 5760, Note_on_c, 0, 74, 55
2, 6000, Note_on_c, 0, 74, 0
2, 6000, Note_on_c, 0, 71, 50
2, 7200, Note_on_c, 0, 71, 0
2, 7200, Note_on_c, 0, 73, 58
2, 7440, Note_on_c, 0, 73, 0
2, 7440, Note_on_c, 0, 71, 50
2, 7680, Note_on_c, 0, 71, 0
2, 7680, Note_on_c, 0, 69, 46
2, 7740, Note_on_c, 0, 69, 0
2, 7740, Note_on_c, 0, 71, 47
2, 7800, Note_on_c, 0, 71, 0
2, 7800, Note_on_c, 0, 69, 55
2, 8160, Note_on_c, 0, 69, 0
2, 8160, Note_on_c, 0, 68, 53
2, 8640, Note_on_c, 0, 68, 0
2, 8640, Note_on_c, 0, 69, 55
2, 8880, Note_on_c, 0, 69, 0
2, 8880, Note_on_c, 0, 73, 50
2, 9360, Note_on_c, 0, 73, 0
2, 9600, Note_on_c, 0, 61, 68
2, 10320, Note_on_c, 0, 61, 0
2, 10320, Note_on_c, 0, 59, 60
2, 10560, Note_on_c, 0, 59, 0
2, 10560, Note_on_c, 0, 57, 57
2, 10620, Note_on_c, 0, 57, 0
2, 10620, Note_on_c, 0, 59, 57
2, 10680, Note_on_c, 0, 59, 0
2, 10680, Note_on_c, 0, 57, 68
2, 11040, Note_on_c, 0, 57, 0
2, 11040, Note_on_c, 0, 56, 67
2, 11520, Note_on_c, 0, 56, 0
2, 11520, Note_on_c, 0, 57, 71
2, 12000, Note_on_c, 0, 57, 0
2, 12000, Note_on_c, 0, 61, 67
2, 12960, Note_on_c, 0, 61, 0
2, 12960, Note_on_c, 0, 59, 71
2, 13440, Note_on_c, 0, 59, 0
2, 13440, Note_on_c, 0, 57, 68
2, 13920, Note_on_c, 0, 57, 0
2, 13920, Note_on_c, 0, 61, 68
2, 14400, Note_on_c, 0, 61, 0
2, 14400, Note_on_c, 0, 59, 63
2, 14460, Note_on_c, 0, 59, 0
2, 14460, Note_on_c, 0, 61, 63
2, 14520, Note_on_c, 0, 61, 0
2, 14520, Note_on_c, 0, 59, 73
2, 14640, Note_on_c, 0, 59, 0
2, 14640, Note_on_c, 0, 57, 66
2, 14877, Note_on_c, 0, 57, 0
2, 14880, Note_on_c, 0, 61, 72
2, 15360, Note_on_c, 0, 61, 0
2, 15360, Note_on_c, 0, 61, 68
2, 15840, Note_on_c, 0, 61, 0
2, 15840, Note_on_c, 0, 59, 61
2, 15900, Note_on_c, 0, 59, 0
2, 15900, Note_on_c, 0, 61, 61
2, 15960, Note_on_c, 0, 61, 0
2, 15960, Note_on_c, 0, 59, 72
2, 16320, Note_on_c, 0, 59, 0
2, 16320, Note_on_c, 0, 58, 72
2, 16800, Note_on_c, 0, 58, 0
2, 16800, Note_on_c, 0, 61, 68
2, 17280, Note_on_c, 0, 61, 0
2, 17280, Note_on_c, 0, 59, 62
2, 17340, Note_on_c, 0, 59, 0
2, 17340, Note_on_c, 0, 61, 63
2, 17400, Note_on_c, 0, 61, 0
2, 17400, Note_on_c, 0, 59, 73
2, 17520, Note_on_c, 0, 59, 0
2, 17520, Note_on_c, 0, 58, 66
2, 17760, Note_on_c, 0, 58, 0
2, 17760, Note_on_c, 0, 66, 72
2, 18240, Note_on_c, 0, 66, 0
2, 18240, Note_on_c, 0, 78, 58
2, 18960, Note_on_c, 0, 78, 0
2, 18960, Note_on_c, 0, 83, 50
2, 19200, Note_on_c, 0, 83, 0
2, 19200, Note_on_c, 0, 79, 50
2, 19260, Note_on_c, 0, 79, 0
2, 19260, Note_on_c, 0, 81, 50
2, 19320, Note_on_c, 0, 81, 0
2, 19320, Note_on_c, 0, 79, 57
2, 19680, Note_on_c, 0, 79, 0
2, 19680, Note_on_c, 0, 78, 53
2, 19920, Note_on_c, 0, 78, 0
2, 19920, Note_on_c, 0, 76, 50
2, 20160, Note_on_c, 0, 76, 0
2, 20160, Note_on_c, 0, 78, 55
2, 20400, Note_on_c, 0, 78, 0
2, 20400, Note_on_c, 0, 71, 50
2, 21600, Note_on_c, 0, 71, 0
2, 21600, Note_on_c, 0, 73, 58
2, 21840, Note_on_c, 0, 73, 0
2, 21840, Note_on_c, 0, 76, 50
2, 22080, Note_on_c, 0, 76, 0
2, 22080, Note_on_c, 0, 74, 50
2, 22140, Note_on_c, 0, 74, 0
2, 22140, Note_on_c, 0, 76, 50
2, 22200, Note_on_c, 0, 76, 0
2, 22200, Note_on_c, 0, 74, 57
2, 22560, Note_on_c, 0, 74, 0
2, 22560, Note_on_c, 0, 73, 53
2, 23040, Note_on_c, 0, 73, 0
2, 23040, Note_on_c, 0, 74, 55
2, 23280, Note_on_c, 0, 74, 0
2, 23280, Note_on_c, 0, 71, 50
2, 24000, Note_on_c, 0, 71, 0
2, 24000, Note_on_c, 0, 50, 66
2, 24720, Note_on_c, 0, 50, 0
2, 24720, Note_on_c, 0, 55, 58
2, 24960, Note_on_c, 0, 55, 0
2, 24960, Note_on_c, 0, 52, 65
2, 25120, Note_on_c, 0, 52, 0
2, 25120, Note_on_c, 0, 53, 57
2, 25280, Note_on_c, 0, 53, 0
2, 25280, Note_on_c, 0, 52, 55
2, 25440, Note_on_c, 0, 52, 0
2, 25440, Note_on_c, 0, 50, 63
2, 25680, Note_on_c, 0, 50, 0
2, 25680, Note_on_c, 0, 48, 57
2, 25920, Note_on_c, 0, 48, 0
2, 25920, Note_on_c, 0, 50, 64
2, 26280, Note_on_c, 0, 50, 0
2, 26280, Note_on_c, 0, 43, 55
2, 26400, Note_on_c, 0, 43, 0
2, 26400, Note_on_c, 0, 50, 64
2, 26880, Note_on_c, 0, 50, 0
2, 26880, Note_on_c, 0, 48, 59
2, 27360, Note_on_c, 0, 48, 0
2, 27360, Note_on_c, 0, 50, 66
2, 27600, Note_on_c, 0, 50, 0
2, 27600, Note_on_c, 0, 55, 58
2, 27840, Note_on_c, 0, 55, 0
2, 27840, Note_on_c, 0, 52, 65
2, 28000, Note_on_c, 0, 52, 0
2, 28000, Note_on_c, 0, 53, 57
2, 28160, Note_on_c, 0, 53, 0
2, 28160, Note_on_c, 0, 52, 55
2, 28320, Note_on_c, 0, 52, 0
2, 28320, Note_on_c, 0, 50, 63
2, 28560, Note_on_c, 0, 50, 0
2, 28560, Note_on_c, 0, 48, 57
2, 28800, Note_on_c, 0, 48, 0
2, 28800, Note_on_c, 0, 50, 64
2, 29160, Note_on_c, 0, 50, 0
2, 29160, Note_on_c, 0, 43, 54
2, 29280, Note_on_c, 0, 43, 0
2, 29280, Note_on_c, 0, 50, 62
2, 29760, Note_on_c, 0, 50, 0
2, 29760, Note_on_c, 0, 48, 56
2, 30240, Note_on_c, 0, 48, 0
2, 30240, Note_on_c, 0, 50, 60
2, 30600, Note_on_c, 0, 50, 0
2, 30600, Note_on_c, 0, 43, 51
2, 30720, Note_on_c, 0, 43, 0
2, 30720, Note_on_c, 0, 48, 58
2, 31200, Note_on_c, 0, 48, 0
2, 31200, Note_on_c, 0, 50, 57
2, 31560, Note_on_c, 0, 50, 0
2, 31560, Note_on_c, 0, 43, 48
2, 31680, Note_on_c, 0, 43, 0
2, 31680, Note_on_c, 0, 48, 56
2, 32160, Note_on_c, 0, 48, 0
2, 32160, Note_on_c, 0, 50, 55
2, 32520, Note_on_c, 0, 50, 0
2, 32520, Note_on_c, 0, 43, 46
2, 32640, Note_on_c, 0, 43, 0
2, 32640, Note_on_c, 0, 48, 53
2, 33120, Note_on_c, 0, 48, 0
2, 33120, Note_on_c, 0, 43, 52
2, 34560, Note_on_c, 0, 43, 0
2, 34560, Note_on_c, 0, 42, 48
2, 36000, Note_on_c, 0, 42, 0
2, 36000, Note_on_c, 0, 78, 55
2, 36240, Note_on_c, 0, 78, 0
2, 36240, Note_on_c, 0, 83, 50
2, 36480, Note_on_c, 0, 83, 0
2, 36480, Note_on_c, 0, 79, 50
2, 36540, Note_on_c, 0, 79, 0
2, 36540, Note_on_c, 0, 81, 50
2, 36600, Note_on_c, 0, 81, 0
2, 36600, Note_on_c, 0, 79, 57
2, 36960, Note_on_c, 0, 79, 0
2, 36960, Note_on_c, 0, 78, 53
2, 37200, Note_on_c, 0, 78, 0
2, 37200, Note_on_c, 0, 76, 50
2, 37440, Note_on_c, 0, 76, 0
2, 37440, Note_on_c, 0, 78, 55
2, 37680, Note_on_c, 0, 78, 0
2, 37680, Note_on_c, 0, 71, 50
2, 38880, Note_on_c, 0, 71, 0
2, 38880, Note_on_c, 0, 73, 58
2, 39120, Note_on_c, 0, 73, 0
2, 39120, Note_on_c, 0, 76, 50
2, 39360, Note_on_c, 0, 76, 0
2, 39360, Note_on_c, 0, 74, 50
2, 39420, Note_on_c, 0, 74, 0
2, 39420, Note_on_c, 0, 76, 50
2, 39480, Note_on_c, 0, 76, 0
2, 39480, Note_on_c, 0, 74, 57
2, 39840, Note_on_c, 0, 74, 0
2, 39840, Note_on_c, 0, 73, 53
2, 40320, Note_on_c, 0, 73, 0
2, 40320, Note_on_c, 0, 74, 55
2, 40560, Note_on_c, 0, 74, 0
2, 40560, Note_on_c, 0, 71, 50
2, 41760, Note_on_c, 0, 71, 0
2, 41760, Note_on_c, 0, 73, 58
2, 42000, Note_on_c, 0, 73, 0
2, 42000, Note_on_c, 0, 71, 50
2, 42240, Note_on_c, 0, 71, 0
2, 42240, Note_on_c, 0, 69, 46
2, 42300, Note_on_c, 0, 69, 0
2, 42300, Note_on_c, 0, 71, 47
2, 42360, Note_on_c, 0, 71, 0
2, 42360, Note_on_c, 0, 69, 55
2, 42720, Note_on_c, 0, 69, 0
2, 42720, Note_on_c, 0, 68, 53
2, 43200, Note_on_c, 0, 68, 0
2, 43200, Note_on_c, 0, 69, 55
2, 43440, Note_on_c, 0, 69, 0
2, 43440, Note_on_c, 0, 73, 50
2, 43920, Note_on_c, 0, 73, 0
2, 44160, Note_on_c, 0, 61, 68
2, 44880, Note_on_c, 0, 61, 0
2, 44880, Note_on_c, 0, 59, 60
2, 45120, Note_on_c, 0, 59, 0
2, 45120, Note_on_c, 0, 57, 57
2, 45180, Note_on_c, 0, 57, 0
2, 45180, Note_on_c, 0, 59, 57
2, 45240, Note_on_c, 0, 59, 0
2, 45240, Note_on_c, 0, 57, 68
2, 45600, Note_on_c, 0, 57, 0
2, 45600, Note_on_c, 0, 56, 67
2, 46080, Note_on_c, 0, 56, 0
2, 46080, Note_on_c, 0, 57, 71
2, 46560, Note_on_c, 0, 57, 0
2, 46560, Note_on_c, 0, 61, 67
2, 47520, Note_on_c, 0, 61, 0
2, 47520, Note_on_c, 0, 59, 71
2, 48000, Note_on_c, 0, 59, 0
2, 48000, Note_on_c, 0, 57, 68
2, 48480, Note_on_c, 0, 57, 0
2, 48480, Note_on_c, 0, 61, 68
2, 48960, Note_on_c, 0, 61, 0
2, 48960, Note_on_c, 0, 59, 63
2, 49020, Note_on_c, 0, 59, 0
2, 49020, Note_on_c, 0, 61, 63
2, 49080, Note_on_c, 0, 61, 0
2, 49080, Note_on_c, 0, 59, 73
2, 49200, Note_on_c, 0, 59, 0
2, 49200, Note_on_c, 0, 57, 66
2, 49436, Note_on_c, 0, 57, 0
2, 49440, Note_on_c, 0, 61, 72
2, 49920, Note_on_c, 0, 61, 0
2, 49920, Note_on_c, 0, 61, 68
2, 50400, Note_on_c, 0, 61, 0
2, 50400, Note_on_c, 0, 59, 61
2, 50460, Note_on_c, 0, 59, 0
2, 50460, Note_on_c, 0, 61, 61
2, 50520, Note_on_c, 0, 61, 0
2, 50520, Note_on_c, 0, 59, 72
2, 50880, Note_on_c, 0, 59, 0
2, 50880, Note_on_c, 0, 58, 72
2, 51360, Note_on_c, 0, 58, 0
2, 51360, Note_on_c, 0, 61, 68
2, 51840, Note_on_c, 0, 61, 0
2, 51840, Note_on_c, 0, 59, 62
2, 51900, Note_on_c, 0, 59, 0
2, 51900, Note_on_c, 0, 61, 63
2, 51960, Note_on_c, 0, 61, 0
2, 51960, Note_on_c, 0, 59, 73
2, 52080, Note_on_c, 0, 59, 0
2, 52080, Note_on_c, 0, 58, 66
2, 52320, Note_on_c, 0, 58, 0
2, 52320, Note_on_c, 0, 66, 72
2, 52800, Note_on_c, 0, 66, 0
2, 52800, Note_on_c, 0, 78, 58
2, 53520, Note_on_c, 0, 78, 0
2, 53520, Note_on_c, 0, 83, 50
2, 53760, Note_on_c, 0, 83, 0
2, 53760, Note_on_c, 0, 79, 50
2, 53820, Note_on_c, 0, 79, 0
2, 53820, Note_on_c, 0, 81, 50
2, 53880, Note_on_c, 0, 81, 0
2, 53880, Note_on_c, 0, 79, 57
2, 54240, Note_on_c, 0, 79, 0
2, 54240, Note_on_c, 0, 78, 53
2, 54480, Note_on_c, 0, 78, 0
2, 54480, Note_on_c, 0, 76, 50
2, 54720, Note_on_c, 0, 76, 0
2, 54720, Note_on_c, 0, 78, 55
2, 54960, Note_on_c, 0, 78, 0
2, 54960, Note_on_c, 0, 71, 50
2, 56160, Note_on_c, 0, 71, 0
2, 56160, Note_on_c, 0, 73, 58
2, 56400, Note_on_c, 0, 73, 0
2, 56400, Note_on_c, 0, 76, 50
2, 56640, Note_on_c, 0, 76, 0
2, 56640, Note_on_c, 0, 74, 50
2, 56700, Note_on_c, 0, 74, 0
2, 56700, Note_on_c, 0, 76, 50
2, 56760, Note_on_c, 0, 76, 0
2, 56760, Note_on_c, 0, 74, 57
2, 57120, Note_on_c, 0, 74, 0
2, 57120, Note_on_c, 0, 73, 53
2, 57600, Note_on_c, 0, 73, 0
2, 57600, Note_on_c, 0, 74, 55
2, 57840, Note_on_c, 0, 74, 0
2, 57840, Note_on_c, 0, 71, 50
2, 58560, Note_on_c, 0, 71, 0
2, 58560, Note_on_c, 0, 50, 66
2, 59280, Note_on_c, 0, 50, 0
2, 59280, Note_on_c, 0, 55, 58
2, 59520, Note_on_c, 0, 55, 0
2, 59520, Note_on_c, 0, 52, 65
2, 59680, Note_on_c, 0, 52, 0
2, 59680, Note_on_c, 0, 53, 57
2, 59840, Note_on_c, 0, 53, 0
2, 59840, Note_on_c, 0, 52, 55
2, 60000, Note_on_c, 0, 52, 0
2, 60000, Note_on_c, 0, 50, 63
2, 60240, Note_on_c, 0, 50, 0
2, 60240, Note_on_c, 0, 48, 57
2, 60480, Note_on_c, 0, 48, 0
2, 60480, Note_on_c, 0, 50, 64
2, 60840, Note_on_c, 0, 50, 0
2, 60840, Note_on_c, 0, 43, 55
2, 60960, Note_on_c, 0, 43, 0
2, 60960, Note_on_c, 0, 50, 64
2, 61440, Note_on_c, 0, 50, 0
2, 61440, Note_on_c, 0, 48, 59
2, 61920, Note_on_c, 0, 48, 0
2, 61920, Note_on_c, 0, 50, 66
2, 62160, Note_on_c, 0, 50, 0
2, 62160, Note_on_c, 0, 55, 58
2, 62400, Note_on_c, 0, 55, 0
2, 62400, Note_on_c, 0, 52, 65
2, 62560, Note_on_c, 0, 52, 0
2, 62560, Note_on_c, 0, 53, 57
2, 62720, Note_on_c, 0, 53, 0
2, 62720, Note_on_c, 0, 52, 55
2, 62880, Note_on_c, 0, 52, 0
2, 62880, Note_on_c, 0, 50, 63
2, 63120, Note_on_c, 0, 50, 0
2, 63120, Note_on_c, 0, 48, 57
2, 63360, Note_on_c, 0, 48, 0
2, 63360, Note_on_c, 0, 50, 64
2, 63720, Note_on_c, 0, 50, 0
2, 63720, Note_on_c, 0, 43, 54
2, 63840, Note_on_c, 0, 43, 0
2, 63840, Note_on_c, 0, 50, 62
2, 64320, Note_on_c, 0, 50, 0
2, 64320, Note_on_c, 0, 48, 56
2, 64800, Note_on_c, 0, 48, 0
2, 64800, Note_on_c, 0, 50, 60
2, 65160, Note_on_c, 0, 50, 0
2, 65160, Note_on_c, 0, 43, 51
2, 65280, Note_on_c, 0, 43, 0
2, 65280, Note_on_c, 0, 48, 58
2, 65760, Note_on_c, 0, 48, 0
2, 65760, Note_on_c, 0, 50, 57
2, 66120, Note_on_c, 0, 50, 0
2, 66120, Note_on_c, 0, 43, 48
2, 66240, Note_on_c, 0, 43, 0
2, 66240, Note_on_c, 0, 48, 56
2, 66720, Note_on_c, 0, 48, 0
2, 66720, Note_on_c, 0, 50, 55
2, 67080, Note_on_c, 0, 50, 0
2, 67080, Note_on_c, 0, 43, 46
2, 67200, Note_on_c, 0, 43, 0
2, 67200, Note_on_c, 0, 48, 53
2, 67680, Note_on_c, 0, 48, 0
2, 67680, Note_on_c, 0, 43, 52
2, 69120, Note_on_c, 0, 43, 0
2, 69120, Note_on_c, 0, 42, 60
2, 70080, Note_on_c, 0, 42, 0
2, 70080, Note_on_c, 0, 41, 66
2, 70560, Note_on_c, 0, 41, 0
2, 71040, Note_on_c, 0, 65, 68
2, 71040, Note_on_c, 0, 70, 68
2, 71040, Note_on_c, 0, 74, 80
2, 71520, Note_on_c, 0, 74, 0
2, 71520, Note_on_c, 0, 70, 0
2, 71520, Note_on_c, 0, 65, 0
2, 71520, Note_on_c, 0, 66, 68
2, 71520, Note_on_c, 0, 70, 68
2, 71520, Note_on_c, 0, 75, 80
2, 72000, Note_on_c, 0, 75, 0
2, 72000, Note_on_c, 0, 70, 0
2, 72000, Note_on_c, 0, 66, 0
2, 72000, Note_on_c, 0, 78, 86
2, 72120, Note_on_c, 0, 78, 0
2, 72360, Note_on_c, 0, 77, 80
2, 72360, Note_on_c, 0, 74, 61
2, 72480, Note_on_c, 0, 74, 0
2, 72480, Note_on_c, 0, 72, 61
2, 72840, Note_on_c, 0, 72, 0
2, 72840, Note_on_c, 0, 77, 0
2, 72840, Note_on_c, 0, 74, 61
2, 72840, Note_on_c, 0, 77, 80
2, 72960, Note_on_c, 0, 74, 0
2, 72960, Note_on_c, 0, 70, 80
2, 73320, Note_on_c, 0, 77, 0
2, 73440, Note_on_c, 0, 70, 0
2, 73440, Note_on_c, 0, 82, 85
2, 73680, Note_on_c, 0, 82, 0
2, 73920, Note_on_c, 0, 65, 68
2, 73920, Note_on_c, 0, 70, 68
2, 73920, Note_on_c, 0, 74, 80
2, 74400, Note_on_c, 0, 74, 0
2, 74400, Note_on_c, 0, 70, 0
2, 74400, Note_on_c, 0, 65, 0
2, 74400, Note_on_c, 0, 66, 68
2, 74400, Note_on_c, 0, 70, 68
2, 74400, Note_on_c, 0, 75, 80
2, 74880, Note_on_c, 0, 75, 0
2, 74880, Note_on_c, 0, 70, 0
2, 74880, Note_on_c, 0, 66, 0
2, 74880, Note_on_c, 0, 78, 86
2, 75000, Note_on_c, 0, 78, 0
2, 75240, Note_on_c, 0, 77, 80
2, 75240, Note_on_c, 0, 74, 61
2, 75360, Note_on_c, 0, 74, 0
2, 75360, Note_on_c, 0, 72, 61
2, 75720, Note_on_c, 0, 72, 0
2, 75720, Note_on_c, 0, 77, 0
2, 75720, Note_on_c, 0, 74, 61
2, 75720, Note_on_c, 0, 77, 80
2, 75840, Note_on_c, 0, 74, 0
2, 75840, Note_on_c, 0, 70, 80
2, 76200, Note_on_c, 0, 77, 0
2, 76320, Note_on_c, 0, 70, 0
2, 76800, Note_on_c, 0, 65, 68
2, 76800, Note_on_c, 0, 70, 68
2, 76800, Note_on_c, 0, 74, 80
2, 77280, Note_on_c, 0, 74, 0
2, 77280, Note_on_c, 0, 70, 0
2, 77280, Note_on_c, 0, 65, 0
2, 77280, Note_on_c, 0, 66, 68
2, 77280, Note_on_c, 0, 70, 68
2, 77280, Note_on_c, 0, 75, 80
2, 77760, Note_on_c, 0, 75, 0
2, 77760, Note_on_c, 0, 70, 0
2, 77760, Note_on_c, 0, 66, 0
2, 77760, Note_on_c, 0, 78, 86
2, 77880, Note_on_c, 0, 78, 0
2, 78120, Note_on_c, 0, 77, 80
2, 78120, Note_on_c, 0, 74, 61
2, 78240, Note_on_c, 0, 74, 0
2, 78240, Note_on_c, 0, 72, 61
2, 78600, Note_on_c, 0, 72, 0
2, 78600, Note_on_c, 0, 77, 0
2, 78600, Note_on_c, 0, 74, 61
2, 78600, Note_on_c, 0, 77, 80
2, 78720, Note_on_c, 0, 74, 0
2, 78720, Note_on_c, 0, 70, 80
2, 79080, Note_on_c, 0, 77, 0
2, 79200, Note_on_c, 0, 70, 0
2, 79200, Note_on_c, 0, 94, 85
2, 79200, Note_on_c, 0, 82, 80
2, 79440, Note_on_c, 0, 82, 0
2, 79440, Note_on_c, 0, 94, 0
2, 79680, Note_on_c, 0, 65, 68
2, 79680, Note_on_c, 0, 70, 68
2, 79680, Note_on_c, 0, 74, 80
2, 80160, Note_on_c, 0, 74, 0
2, 80160, Note_on_c, 0, 70, 0
2, 80160, Note_on_c, 0, 65, 0
2, 80160, Note_on_c, 0, 66, 68
2, 80160, Note_on_c, 0, 70, 68
2, 80160, Note_on_c, 0, 75, 80
2, 80640, Note_on_c, 0, 75, 0
2, 80640, Note_on_c, 0, 70, 0
2, 80640, Note_on_c, 0, 66, 0
2, 80640, Note_on_c, 0, 78, 86
2, 80760, Note_on_c, 0, 78, 0
2, 81000, Note_on_c, 0, 77, 80
2, 81000, Note_on_c, 0, 74, 61
2, 81120, Note_on_c, 0, 74, 0
2, 81120, Note_on_c, 0, 72, 61
2, 81480, Note_on_c, 0, 72, 0
2, 81480, Note_on_c, 0, 77, 0
2, 81480, Note_on_c, 0, 74, 61
2, 81480, Note_on_c, 0, 77, 80
2, 81600, Note_on_c, 0, 74, 0
2, 81600, Note_on_c, 0, 70, 80
2, 81960, Note_on_c, 0, 77, 0
2, 82080, Note_on_c, 0, 70, 0
2, 82560, Note_on_c, 0, 70, 68
2, 82560, Note_on_c, 0, 75, 68
2, 82560, Note_on_c, 0, 79, 80
2, 83040, Note_on_c, 0, 79, 0
2, 83040, Note_on_c, 0, 75, 0
2, 83040, Note_on_c, 0, 70, 0
2, 83040, Note_on_c, 0, 71, 68
2, 83040, Note_on_c, 0, 75, 68
2, 83040, Note_on_c, 0, 80, 80
2, 83520, Note_on_c, 0, 80, 0
2, 83520, Note_on_c, 0, 75, 0
2, 83520, Note_on_c, 0, 71, 0
2, 83520, Note_on_c, 0, 83, 88
2, 83640, Note_on_c, 0, 83, 0
2, 83880, Note_on_c, 0, 82, 88
2, 83880, Note_on_c, 0, 79, 61
2, 84000, Note_on_c, 0, 79, 0
2, 84000, Note_on_c, 0, 77, 61
2, 84360, Note_on_c, 0, 77, 0
2, 84360, Note_on_c, 0, 82, 0
2, 84360, Note_on_c, 0, 79, 61
2, 84360, Note_on_c, 0, 82, 88
2, 84480, Note_on_c, 0, 79, 0
2, 84480, Note_on_c, 0, 75, 80
2, 84840, Note_on_c, 0, 82, 0
2, 84960, Note_on_c, 0, 75, 0
2, 84960, Note_on_c, 0, 99, 93
2, 84960, Note_on_c, 0, 87, 88
2, 85200, Note_on_c, 0, 87, 0
2, 85200, Note_on_c, 0, 99, 0
2, 85440, Note_on_c, 0, 70, 68
2, 85440, Note_on_c, 0, 75, 68
2, 85440, Note_on_c, 0, 79, 80
2, 85920, Note_on_c, 0, 79, 0
2, 85920, Note_on_c, 0, 75, 0
2, 85920, Note_on_c, 0, 70, 0
2, 85920, Note_on_c, 0, 71, 68
2, 85920, Note_on_c, 0, 75, 68
2, 85920, Note_on_c, 0, 80, 80
2, 86400, Note_on_c, 0, 80, 0
2, 86400, Note_on_c, 0, 75, 0
2, 86400, Note_on_c, 0, 71, 0
2, 86400, Note_on_c, 0, 83, 87
2, 86520, Note_on_c, 0, 83, 0
2, 86760, Note_on_c, 0, 82, 88
2, 86760, Note_on_c, 0, 79, 61
2, 86880, Note_on_c, 0, 79, 0
2, 86880, Note_on_c, 0, 77, 61
2, 87240, Note_on_c, 0, 77, 0
2, 87240, Note_on_c, 0, 82, 0
2, 87240, Note_on_c, 0, 79, 61
2, 87240, Note_on_c, 0, 82, 88
2, 87360, Note_on_c, 0, 79, 0
2, 87360, Note_on_c, 0, 76, 80
2, 87720, Note_on_c, 0, 82, 0
2, 88320, Note_on_c, 0, 70, 68
2, 88320, Note_on_c, 0, 79, 80
2, 88800, Note_on_c, 0, 79, 0
2, 88800, Note_on_c, 0, 70, 0
2, 88800, Note_on_c, 0, 71, 65
2, 88800, Note_on_c, 0, 80, 77
2, 89280, Note_on_c, 0, 80, 0
2, 89280, Note_on_c, 0, 71, 0
2, 89280, Note_on_c, 0, 76, 0
2, 89280, Note_on_c, 0, 70, 65
2, 89280, Note_on_c, 0, 75, 65
2, 89280, Note_on_c, 0, 79, 77
2, 89760, Note_on_c, 0, 79, 0
2, 89760, Note_on_c, 0, 75, 0
2, 89760, Note_on_c, 0, 73, 62
2, 89760, Note_on_c, 0, 78, 74
2, 90240, Note_on_c, 0, 78, 0
2, 90240, Note_on_c, 0, 77, 71
2, 90720, Note_on_c, 0, 77, 0
2, 90720, Note_on_c, 0, 76, 69
2, 91680, Note_on_c, 0, 73, 0
2, 92160, Note_on_c, 0, 76, 0
2, 92160, Note_on_c, 0, 70, 0
2, 93600, Note_on_c, 0, 78, 55
2, 93840, Note_on_c, 0, 78, 0
2, 93840, Note_on_c, 0, 83, 50
2, 94080, Note_on_c, 0, 83, 0
2, 94080, Note_on_c, 0, 79, 50
2, 94140, Note_on_c, 0, 79, 0
2, 94140, Note_on_c, 0, 81, 50
2, 94200, Note_on_c, 0, 81, 0
2, 94200, Note_on_c, 0, 79, 57
2, 94560, Note_on_c, 0, 79, 0
2, 94560, Note_on_c, 0, 78, 53
2, 94800, Note_on_c, 0, 78, 0
2, 94800, Note_on_c, 0, 76, 50
2, 95040, Note_on_c, 0, 76, 0
2, 95040, Note_on_c, 0, 78, 55
2, 95280, Note_on_c, 0, 78, 0
2, 95280, Note_on_c, 0, 71, 50
2, 96480, Note_on_c, 0, 71, 0
2, 96480, Note_on_c, 0, 73, 58
2, 96720, Note_on_c, 0, 73, 0
2, 96720, Note_on_c, 0, 76, 50
2, 96960, Note_on_c, 0, 76, 0
2, 96960, Note_on_c, 0, 74, 50
2, 97020, Note_on_c, 0, 74, 0
2, 97020, Note_on_c, 0, 76, 50
2, 97080, Note_on_c, 0, 76, 0
2, 97080, Note_on_c, 0, 74, 57
2, 97440, Note_on_c, 0, 74, 0
2, 97440, Note_on_c, 0, 73, 53
2, 97920, Note_on_c, 0, 73, 0
2, 97920, Note_on_c, 0, 74, 55
2, 98160, Note_on_c, 0, 74, 0
2, 98160, Note_on_c, 0, 71, 50
2, 99360, Note_on_c, 0, 71, 0
2, 99360, Note_on_c, 0, 73, 58
2, 99600, Note_on_c, 0, 73, 0
2, 99600, Note_on_c, 0, 71, 50
2, 99840, Note_on_c, 0, 71, 0
2, 99840, Note_on_c, 0, 69, 46
2, 99900, Note_on_c, 0, 69, 0
2, 99900, Note_on_c, 0, 71, 47
2, 99960, Note_on_c, 0, 71, 0
2, 99960, Note_on_c, 0, 69, 55
2, 100320, Note_on_c, 0, 69, 0
2, 100320, Note_on_c, 0, 68, 53
2, 100800, Note_on_c, 0, 68, 0
2, 100800, Note_on_c, 0, 69, 55
2, 101040, Note_on_c, 0, 69, 0
2, 101040, Note_on_c, 0, 73, 50
2, 101520, Note_on_c, 0, 73, 0
2, 101760, Note_on_c, 0, 61, 68
2, 102480, Note_on_c, 0, 61, 0
2, 102480, Note_on_c, 0, 59, 60
2, 102720, Note_on_c, 0, 59, 0
2, 102720, Note_on_c, 0, 57, 57
2, 102780, Note_on_c, 0, 57, 0
2, 102780, Note_on_c, 0, 59, 57
2, 102840, Note_on_c, 0, 59, 0
2, 102840, Note_on_c, 0, 57, 68
2, 103200, Note_on_c, 0, 57, 0
2, 103200, Note_on_c, 0, 56, 67
2, 103680, Note_on_c, 0, 56, 0
2, 103680, Note_on_c, 0, 57, 71
2, 104160, Note_on_c, 0, 57, 0
2, 104160, Note_on_c, 0, 61, 67
2, 105120, Note_on_c, 0, 61, 0
2, 105120, Note_on_c, 0, 59, 71
2, 105600, Note_on_c, 0, 59, 0
2, 105600, Note_on_c, 0, 57, 68
2, 106080, Note_on_c, 0, 57, 0
2, 106080, Note_on_c, 0, 61, 68
2, 106560, Note_on_c, 0, 61, 0
2, 106560, Note_on_c, 0, 59, 63
2, 106620, Note_on_c, 0, 59, 0
2, 106620, Note_on_c, 0, 61, 63
2, 106680, Note_on_c, 0, 61, 0
2, 106680, Note_on_c, 0, 59, 73
2, 106800, Note_on_c, 0, 59, 0
2, 106800, Note_on_c, 0, 57, 66
2, 107037, Note_on_c, 0, 57, 0
2, 107040, Note_on_c, 0, 61, 72
2, 107520, Note_on_c, 0, 61, 0
2, 107520, Note_on_c, 0, 61, 68
2, 108000, Note_on_c, 0, 61, 0
2, 108000, Note_on_c, 0, 59, 61
2, 108060, Note_on_c, 0, 59, 0
2, 108060, Note_on_c, 0, 61, 61
2, 108120, Note_on_c, 0, 61, 0
2, 108120, Note_on_c, 0, 59, 72
2, 108480, Note_on_c, 0, 59, 0
2, 108480, Note_on_c, 0, 58, 72
2, 108960, Note_on_c, 0, 58, 0
2, 108960, Note_on_c, 0, 61, 68
2, 109440, Note_on_c, 0, 61, 0
2, 109440, Note_on_c, 0, 59, 62
2, 109500, Note_on_c, 0, 59, 0
2, 109500, Note_on_c, 0, 61, 63
2, 109560, Note_on_c, 0, 61, 0
2, 109560, Note_on_c, 0, 59, 73
2, 109680, Note_on_c, 0, 59, 0
2, 109680, Note_on_c, 0, 58, 66
2, 109920, Note_on_c, 0, 58, 0
2, 109920, Note_on_c, 0, 66, 72
2, 110400, Note_on_c, 0, 66, 0
2, 110400, Note_on_c, 0, 78, 58
2, 111120, Note_on_c, 0, 78, 0
2, 111120, Note_on_c, 0, 83, 50
2, 111360, Note_on_c, 0, 83, 0
2, 111360, Note_on_c, 0, 79, 50
2, 111420, Note_on_c, 0, 79, 0
2, 111420, Note_on_c, 0, 81, 50
2, 111480, Note_on_c, 0, 81, 0
2, 111480, Note_on_c, 0, 79, 57
2, 111840, Note_on_c, 0, 79, 0
2, 111840, Note_on_c, 0, 78, 53
2, 112080, Note_on_c, 0, 78, 0
2, 112080, Note_on_c, 0, 76, 50
2, 112320, Note_on_c, 0, 76, 0
2, 112320, Note_on_c, 0, 78, 55
2, 112560, Note_on_c, 0, 78, 0
2, 112560, Note_on_c, 0, 71, 50
2, 113760, Note_on_c, 0, 71, 0
2, 113760, Note_on_c, 0, 73, 58
2, 114000, Note_on_c, 0, 73, 0
2, 114000, Note_on_c, 0, 76, 50
2, 114240, Note_on_c, 0, 76, 0
2, 114240, Note_on_c, 0, 74, 50
2, 114300, Note_on_c, 0, 74, 0
2, 114300, Note_on_c, 0, 76, 50
2, 114360, Note_on_c, 0, 76, 0
2, 114360, Note_on_c, 0, 74, 57
2, 114720, Note_on_c, 0, 74, 0
2, 114720, Note_on_c, 0, 73, 53
2, 115200, Note_on_c, 0, 73, 0
2, 115200, Note_on_c, 0, 74, 55
2, 115440, Note_on_c, 0, 74, 0
2, 115440, Note_on_c, 0, 71, 50
2, 116160, Note_on_c, 0, 71, 0
2, 116160, Note_on_c, 0, 50, 66
2, 116880, Note_on_c, 0, 50, 0
2, 116880, Note_on_c, 0, 55, 58
2, 117120, Note_on_c, 0, 55, 0
2, 117120, Note_on_c, 0, 52, 65
2, 117280, Note_on_c, 0, 52, 0
2, 117280, Note_on_c, 0, 53, 57
2, 117440, Note_on_c, 0, 53, 0
2, 117440, Note_on_c, 0, 52, 55
2, 117600, Note_on_c, 0, 52, 0
2, 117600, Note_on_c, 0, 50, 63
2, 117840, Note_on_c, 0, 50, 0
2, 117840, Note_on_c, 0, 48, 57
2, 118080, Note_on_c, 0, 48, 0
2, 118080, Note_on_c, 0, 50, 64
2, 118440, Note_on_c, 0, 50, 0
2, 118440, Note_on_c, 0, 43, 55
2, 118560, Note_on_c, 0, 43, 0
2, 118560, Note_on_c, 0, 50, 64
2, 119040, Note_on_c, 0, 50, 0
2, 119040, Note_on_c, 0, 48, 59
2, 119520, Note_on_c, 0, 48, 0
2, 119520, Note_on_c, 0, 50, 66
2, 119760, Note_on_c, 0, 50, 0
2, 119760, Note_on_c, 0, 55, 58
2, 120000, Note_on_c, 0, 55, 0
2, 120000, Note_on_c, 0, 52, 65
2, 120160, Note_on_c, 0, 52, 0
2, 120160, Note_on_c, 0, 53, 57
2, 120320, Note_on_c, 0, 53, 0
2, 120320, Note_on_c, 0, 52, 55
2, 120480, Note_on_c, 0, 52, 0
2, 120480, Note_on_c, 0, 50, 63
2, 120720, Note_on_c, 0, 50, 0
2, 120720, Note_on_c, 0, 48, 57
2, 120960, Note_on_c, 0, 48, 0
2, 120960, Note_on_c, 0, 50, 64
2, 121320, Note_on_c, 0, 50, 0
2, 121320, Note_on_c, 0, 43, 54
2, 121440, Note_on_c, 0, 43, 0
2, 121440, Note_on_c, 0, 50, 62
2, 121920, Note_on_c, 0, 50, 0
2, 121920, Note_on_c, 0, 48, 56
2, 122400, Note_on_c, 0, 48, 0
2, 122400, Note_on_c, 0, 50, 60
2, 122760, Note_on_c, 0, 50, 0
2, 122760, Note_on_c, 0, 43, 51
2, 122880, Note_on_c, 0, 43, 0
2, 122880, Note_on_c, 0, 48, 58
2, 123360, Note_on_c, 0, 48, 0
2, 123360, Note_on_c, 0, 50, 57
2, 123720, Note_on_c, 0, 50, 0
2, 123720, Note_on_c, 0, 43, 48
2, 123840, Note_on_c, 0, 43, 0
2, 123840, Note_on_c, 0, 48, 56
2, 124320, Note_on_c, 0, 48, 0
2, 124320, Note_on_c, 0, 50, 55
2, 124680, Note_on_c, 0, 50, 0
2, 124680, Note_on_c, 0, 43, 46
2, 124800, Note_on_c, 0, 43, 0
2, 124800, Note_on_c, 0, 48, 53
2, 125280, Note_on_c, 0, 48, 0
2, 125280, Note_on_c, 0, 43, 52
2, 126720, Note_on_c, 0, 43, 0
2, 126720, Note_on_c, 0, 42, 48
2, 128160, Note_on_c, 0, 42, 0
2, 128160, Note_on_c, 0, 78, 55
2, 128400, Note_on_c, 0, 78, 0
2, 128400, Note_on_c, 0, 83, 50
2, 128640, Note_on_c, 0, 83, 0
2, 128640, Note_on_c, 0, 79, 50
2, 128700, Note_on_c, 0, 79, 0
2, 128700, Note_on_c, 0, 81, 50
2, 128760, Note_on_c, 0, 81, 0
2, 128760, Note_on_c, 0, 79, 57
2, 129120, Note_on_c, 0, 79, 0
2, 129120, Note_on_c, 0, 78, 53
2, 129360, Note_on_c, 0, 78, 0
2, 129360, Note_on_c, 0, 76, 50
2, 129600, Note_on_c, 0, 76, 0
2, 129600, Note_on_c, 0, 78, 55
2, 129840, Note_on_c, 0, 78, 0
2, 129840, Note_on_c, 0, 71, 50
2, 131040, Note_on_c, 0, 71, 0
2, 131040, Note_on_c, 0, 73, 58
2, 131280, Note_on_c, 0, 73, 0
2, 131280, Note_on_c, 0, 76, 50
2, 131520, Note_on_c, 0, 76, 0
2, 131520, Note_on_c, 0, 74, 50
2, 131580, Note_on_c, 0, 74, 0
2, 131580, Note_on_c, 0, 76, 50
2, 131640, Note_on_c, 0, 76, 0
2, 131640, Note_on_c, 0, 74, 57
2, 132000, Note_on_c, 0, 74, 0
2, 132000, Note_on_c, 0, 73, 53
2, 132480, Note_on_c, 0, 73, 0
2, 132480, Note_on_c, 0, 74, 55
2, 132720, Note_on_c, 0, 74, 0
2, 132720, Note_on_c, 0, 71, 50
2, 133920, Note_on_c, 0, 71, 0
2, 133920, Note_on_c, 0, 73, 58
2, 134160, Note_on_c, 0, 73, 0
2, 134160, Note_on_c, 0, 71, 50
2, 134400, Note_on_c, 0, 71, 0
2, 134400, Note_on_c, 0, 69, 46
2, 134460, Note_on_c, 0, 69, 0
2, 134460, Note_on_c, 0, 71, 47
2, 134520, Note_on_c, 0, 71, 0
2, 134520, Note_on_c, 0, 69, 55
2, 134880, Note_on_c, 0, 69, 0
2, 134880, Note_on_c, 0, 68, 53
2, 135360, Note_on_c, 0, 68, 0
2, 135360, Note_on_c, 0, 69, 55
2, 135600, Note_on_c, 0, 69, 0
2, 135600, Note_on_c, 0, 73, 50
2, 136080, Note_on_c, 0, 73, 0
2, 136320, Note_on_c, 0, 61, 68
2, 137040, Note_on_c, 0, 61, 0
2, 137040, Note_on_c, 0, 59, 60
2, 137280, Note_on_c, 0, 59, 0
2, 137280, Note_on_c, 0, 57, 57
2, 137340, Note_on_c, 0, 57, 0
2, 137340, Note_on_c, 0, 59, 57
2, 137400, Note_on_c, 0, 59, 0
2, 137400, Note_on_c, 0, 57, 68
2, 137760, Note_on_c, 0, 57, 0
2, 137760, Note_on_c, 0, 56, 67
2, 138240, Note_on_c, 0, 56, 0
2, 138240, Note_on_c, 0, 57, 71
2, 138720, Note_on_c, 0, 57, 0
2, 138720, Note_on_c, 0, 61, 67
2, 139680, Note_on_c, 0, 61, 0
2, 139680, Note_on_c, 0, 59, 71
2, 140160, Note_on_c, 0, 59, 0
2, 140160, Note_on_c, 0, 57, 68
2, 140640, Note_on_c, 0, 57, 0
2, 140640, Note_on_c, 0, 61, 68
2, 141120, Note_on_c, 0, 61, 0
2, 141120, Note_on_c, 0, 59, 63
2, 141180, Note_on_c, 0, 59, 0
2, 141180, Note_on_c, 0, 61, 63
2, 141240, Note_on_c, 0, 61, 0
2, 141240, Note_on_c, 0, 59, 73
2, 141360, Note_on_c, 0, 59, 0
2, 141360, Note_on_c, 0, 57, 66
2, 141600, Note_on_c, 0, 57, 0
2, 141600, Note_on_c, 0, 61, 72
2, 142080, Note_on_c, 0, 61, 0
2, 142080, Note_on_c, 0, 61, 68
2, 142560, Note_on_c, 0, 61, 0
2, 142560, Note_on_c, 0, 59, 61
2, 142620, Note_on_c, 0, 59, 0
2, 142620, Note_on_c, 0, 61, 61
2, 142680, Note_on_c, 0, 61, 0
2, 142680, Note_on_c, 0, 59, 72
2, 143040, Note_on_c, 0, 59, 0
2, 143040, Note_on_c, 0, 58, 72
2, 143514, Note_on_c, 0, 58, 0
2, 143520, Note_on_c, 0, 61, 68
2, 144000, Note_on_c, 0, 61, 0
2, 144000, Note_on_c, 0, 59, 62
2, 144060, Note_on_c, 0, 59, 0
2, 144060, Note_on_c, 0, 61, 63
2, 144120, Note_on_c, 0, 61, 0
2, 144120, Note_on_c, 0, 59, 73
2, 144240, Note_on_c, 0, 59, 0
2, 144240, Note_on_c, 0, 58, 66
2, 144480, Note_on_c, 0, 58, 0
2, 144480, Note_on_c, 0, 66, 72
2, 144960, Note_on_c, 0, 66, 0
2, 144960, Note_on_c, 0, 78, 58
2, 145680, Note_on_c, 0, 78, 0
2, 145680, Note_on_c, 0, 83, 50
2, 145920, Note_on_c, 0, 83, 0
2, 145920, Note_on_c, 0, 79, 50
2, 145980, Note_on_c, 0, 79, 0
2, 145980, Note_on_c, 0, 81, 50
2, 146040, Note_on_c, 0, 81, 0
2, 146040, Note_on_c, 0, 79, 57
2, 146400, Note_on_c, 0, 79, 0
2, 146400, Note_on_c, 0, 78, 53
2, 146640, Note_on_c, 0, 78, 0
2, 146640, Note_on_c, 0, 76, 50
2, 146880, Note_on_c, 0, 76, 0
2, 146880, Note_on_c, 0, 78, 55
2, 147120, Note_on_c, 0, 78, 0
2, 147120, Note_on_c, 0, 71, 50
2, 148320, Note_on_c, 0, 71, 0
2, 148320, Note_on_c, 0, 73, 58
2, 148560, Note_on_c, 0, 73, 0
2, 148560, Note_on_c, 0, 76, 50
2, 148800, Note_on_c, 0, 76, 0
2, 148800, Note_on_c, 0, 74, 50
2, 148860, Note_on_c, 0, 74, 0
2, 148860, Note_on_c, 0, 76, 50
2, 148920, Note_on_c, 0, 76, 0
2, 148920, Note_on_c, 0, 74, 57
2, 149280, Note_on_c, 0, 74, 0
2, 149280, Note_on_c, 0, 73, 53
2, 149760, Note_on_c, 0, 73, 0
2, 149760, Note_on_c, 0, 74, 55
2, 150000, Note_on_c, 0, 74, 0
2, 150000, Note_on_c, 0, 71, 50
2, 150720, Note_on_c, 0, 71, 0
2, 150720, Note_on_c, 0, 50, 66
2, 151440, Note_on_c, 0, 50, 0
2, 151440, Note_on_c, 0, 55, 58
2, 151680, Note_on_c, 0, 55, 0
2, 151680, Note_on_c, 0, 52, 65
2, 151840, Note_on_c, 0, 52, 0
2, 151840, Note_on_c, 0, 53, 57
2, 152000, Note_on_c, 0, 53, 0
2, 152000, Note_on_c, 0, 52, 55
2, 152160, Note_on_c, 0, 52, 0
2, 152160, Note_on_c, 0, 50, 63
2, 152400, Note_on_c, 0, 50, 0
2, 152400, Note_on_c, 0, 48, 57
2, 152640, Note_on_c, 0, 48, 0
2, 152640, Note_on_c, 0, 50, 64
2, 153000, Note_on_c, 0, 50, 0
2, 153000, Note_on_c, 0, 43, 55
2, 153120, Note_on_c, 0, 43, 0
2, 153120, Note_on_c, 0, 50, 64
2, 153600, Note_on_c, 0, 50, 0
2, 153600, Note_on_c, 0, 48, 59
2, 154080, Note_on_c, 0, 48, 0
2, 154080, Note_on_c, 0, 50, 66
2, 154320, Note_on_c, 0, 50, 0
2, 154320, Note_on_c, 0, 55, 58
2, 154560, Note_on_c, 0, 55, 0
2, 154560, Note_on_c, 0, 52, 65
2, 154720, Note_on_c, 0, 52, 0
2, 154720, Note_on_c, 0, 53, 57
2, 154880, Note_on_c, 0, 53, 0
2, 154880, Note_on_c, 0, 52, 55
2, 155040, Note_on_c, 0, 52, 0
2, 155040, Note_on_c, 0, 50, 63
2, 155280, Note_on_c, 0, 50, 0
2, 155280, Note_on_c, 0, 48, 57
2, 155520, Note_on_c, 0, 48, 0
2, 155520, Note_on_c, 0, 50, 64
2, 155880, Note_on_c, 0, 50, 0
2, 155880, Note_on_c, 0, 43, 54
2, 156000, Note_on_c, 0, 43, 0
2, 156000, Note_on_c, 0, 50, 62
2, 156480, Note_on_c, 0, 50, 0
2, 156480, Note_on_c, 0, 48, 56
2, 156960, Note_on_c, 0, 48, 0
2, 156960, Note_on_c, 0, 50, 60
2, 157320, Note_on_c, 0, 50, 0
2, 157320, Note_on_c, 0, 43, 51
2, 157440, Note_on_c, 0, 43, 0
2, 157440, Note_on_c, 0, 48, 58
2, 157920, Note_on_c, 0, 48, 0
2, 157920, Note_on_c, 0, 50, 57
2, 158280, Note_on_c, 0, 50, 0
2, 158280, Note_on_c, 0, 43, 48
2, 158400, Note_on_c, 0, 43, 0
2, 158400, Note_on_c, 0, 48, 56
2, 158880, Note_on_c, 0, 48, 0
2, 158880, Note_on_c, 0, 50, 55
2, 159240, Note_on_c, 0, 50, 0
2, 159240, Note_on_c, 0, 43, 46
2, 159360, Note_on_c, 0, 43, 0
2, 159360, Note_on_c, 0, 48, 53
2, 159840, Note_on_c, 0, 48, 0
2, 159840, Note_on_c, 0, 43, 52
2, 161280, Note_on_c, 0, 43, 0
2, 161280, Note_on_c, 0, 42, 60
2, 162240, Note_on_c, 0, 42, 0
2, 162240, Note_on_c, 0, 41, 66
2, 162720, Note_on_c, 0, 41, 0
2, 163200, Note_on_c, 0, 65, 68
2, 163200, Note_on_c, 0, 70, 68
2, 163200, Note_on_c, 0, 74, 80
2, 163680, Note_on_c, 0, 74, 0
2, 163680, Note_on_c, 0, 70, 0
2, 163680, Note_on_c, 0, 65, 0
2, 163680, Note_on_c, 0, 66, 68
2, 163680, Note_on_c, 0, 70, 68
2, 163680, Note_on_c, 0, 75, 80
2, 164160, Note_on_c, 0, 75, 0
2, 164160, Note_on_c, 0, 70, 0
2, 164160, Note_on_c, 0, 66, 0
2, 164160, Note_on_c, 0, 78, 86
2, 164280, Note_on_c, 0, 78, 0
2, 164520, Note_on_c, 0, 77, 80
2, 164520, Note_on_c, 0, 74, 61
2, 164640, Note_on_c, 0, 74, 0
2, 164640, Note_on_c, 0, 72, 61
2, 165000, Note_on_c, 0, 72, 0
2, 165000, Note_on_c, 0, 77, 0
2, 165000, Note_on_c, 0, 74, 61
2, 165000, Note_on_c, 0, 77, 80
2, 165120, Note_on_c, 0, 74, 0
2, 165120, Note_on_c, 0, 70, 80
2, 165480, Note_on_c, 0, 77, 0
2, 165600, Note_on_c, 0, 70, 0
2, 165600, Note_on_c, 0, 82, 85
2, 165840, Note_on_c, 0, 82, 0
2, 166080, Note_on_c, 0, 65, 68
2, 166080, Note_on_c, 0, 70, 68
2, 166080, Note_on_c, 0, 74, 80
2, 166560, Note_on_c, 0, 74, 0
2, 166560, Note_on_c, 0, 70, 0
2, 166560, Note_on_c, 0, 65, 0
2, 166560, Note_on_c, 0, 66, 68
2, 166560, Note_on_c, 0, 70, 68
2, 166560, Note_on_c, 0, 75, 80
2, 167040, Note_on_c, 0, 75, 0
2, 167040, Note_on_c, 0, 70, 0
2, 167040, Note_on_c, 0, 66, 0
2, 167040, Note_on_c, 0, 78, 86
2, 167160, Note_on_c, 0, 78, 0
2, 167400, Note_on_c, 0, 77, 80
2, 167400, Note_on_c, 0, 74, 61
2, 167520, Note_on_c, 0, 74, 0
2, 167520, Note_on_c, 0, 72, 61
2, 167880, Note_on_c, 0, 72, 0
2, 167880, Note_on_c, 0, 77, 0
2, 167880, Note_on_c, 0, 74, 61
2, 167880, Note_on_c, 0, 77, 80
2, 168000, Note_on_c, 0, 74, 0
2, 168000, Note_on_c, 0, 70, 80
2, 168360, Note_on_c, 0, 77, 0
2, 168480, Note_on_c, 0, 70, 0
2, 168960, Note_on_c, 0, 65, 68
2, 168960, Note_on_c, 0, 70, 68
2, 168960, Note_on_c, 0, 74, 80
2, 169440, Note_on_c, 0, 74, 0
2, 169440, Note_on_c, 0, 70, 0
2, 169440, Note_on_c, 0, 65, 0
2, 169440, Note_on_c, 0, 66, 68
2, 169440, Note_on_c, 0, 70, 68
2, 169440, Note_on_c, 0, 75, 80
2, 169920, Note_on_c, 0, 75, 0
2, 169920, Note_on_c, 0, 70, 0
2, 169920, Note_on_c, 0, 66, 0
2, 169920, Note_on_c, 0, 78, 86
2, 170040, Note_on_c, 0, 78, 0
2, 170280, Note_on_c, 0, 77, 80
2, 170280, Note_on_c, 0, 74, 61
2, 170400, Note_on_c, 0, 74, 0
2, 170400, Note_on_c, 0, 72, 61
2, 170760, Note_on_c, 0, 72, 0
2, 170760, Note_on_c, 0, 77, 0
2, 170760, Note_on_c, 0, 74, 61
2, 170760, Note_on_c, 0, 77, 80
2, 170880, Note_on_c, 0, 74, 0
2, 170880, Note_on_c, 0, 70, 80
2, 171240, Note_on_c, 0, 77, 0
2, 171360, Note_on_c, 0, 70, 0
2, 171360, Note_on_c, 0, 94, 85
2, 171360, Note_on_c, 0, 82, 80
2, 171600, Note_on_c, 0, 82, 0
2, 171600, Note_on_c, 0, 94, 0
2, 171840, Note_on_c, 0, 65, 68
2, 171840, Note_on_c, 0, 70, 68
2, 171840, Note_on_c, 0, 74, 80
2, 172320, Note_on_c, 0, 74, 0
2, 172320, Note_on_c, 0, 70, 0
2, 172320, Note_on_c, 0, 65, 0
2, 172320, Note_on_c, 0, 66, 68
2, 172320, Note_on_c, 0, 70, 68
2, 172320, Note_on_c, 0, 75, 80
2, 172800, Note_on_c, 0, 75, 0
2, 172800, Note_on_c, 0, 70, 0
2, 172800, Note_on_c, 0, 66, 0
2, 172800, Note_on_c, 0, 78, 86
2, 172920, Note_on_c, 0, 78, 0
2, 173160, Note_on_c, 0, 77, 80
2, 173160, Note_on_c, 0, 74, 61
2, 173280, Note_on_c, 0, 74, 0
2, 173280, Note_on_c, 0, 72, 61
2, 173640, Note_on_c, 0, 72, 0
2, 173640, Note_on_c, 0, 77, 0
2, 173640, Note_on_c, 0, 74, 61
2, 173640, Note_on_c, 0, 77, 80
2, 173760, Note_on_c, 0, 74, 0
2, 173760, Note_on_c, 0, 70, 80
2, 174120, Note_on_c, 0, 77, 0
2, 174240, Note_on_c, 0, 70, 0
2, 174720, Note_on_c, 0, 70, 68
2, 174720, Note_on_c, 0, 75, 68
2, 174720, Note_on_c, 0, 79, 80
2, 175200, Note_on_c, 0, 79, 0
2, 175200, Note_on_c, 0, 75, 0
2, 175200, Note_on_c, 0, 70, 0
2, 175200, Note_on_c, 0, 71, 68
2, 175200, Note_on_c, 0, 75, 68
2, 175200, Note_on_c, 0, 80, 80
2, 175680, Note_on_c, 0, 80, 0
2, 175680, Note_on_c, 0, 75, 0
2, 175680, Note_on_c, 0, 71, 0
2, 175680, Note_on_c, 0, 83, 88
2, 175800, Note_on_c, 0, 83, 0
2, 176040, Note_on_c, 0, 82, 88
2, 176040, Note_on_c, 0, 79, 61
2, 176160, Note_on_c, 0, 79, 0
2, 176160, Note_on_c, 0, 77, 61
2, 176520, Note_on_c, 0, 77, 0
2, 176520, Note_on_c, 0, 82, 0
2, 176520, Note_on_c, 0, 79, 61
2, 176520, Note_on_c, 0, 82, 88
2, 176640, Note_on_c, 0, 79, 0
2, 176640, Note_on_c, 0, 75, 80
2, 177000, Note_on_c, 0, 82, 0
2, 177120, Note_on_c, 0, 75, 0
2, 177120, Note_on_c, 0, 99, 93
2, 177120, Note_on_c, 0, 87, 88
2, 177360, Note_on_c, 0, 87, 0
2, 177360, Note_on_c, 0, 99, 0
2, 177600, Note_on_c, 0, 70, 68
2, 177600, Note_on_c, 0, 75, 68
2, 177600, Note_on_c, 0, 79, 80
2, 178080, Note_on_c, 0, 79, 0
2, 178080, Note_on_c, 0, 75, 0
2, 178080, Note_on_c, 0, 70, 0
2, 178080, Note_on_c, 0, 71, 68
2, 178080, Note_on_c, 0, 75, 68
2, 178080, Note_on_c, 0, 80, 80
2, 178560, Note_on_c, 0, 80, 0
2, 178560, Note_on_c, 0, 75, 0
2, 178560, Note_on_c, 0, 71, 0
2, 178560, Note_on_c, 0, 83, 87
2, 178680, Note_on_c, 0, 83, 0
2, 178920, Note_on_c, 0, 82, 88
2, 178920, Note_on_c, 0, 79, 61
2, 179040, Note_on_c, 0, 79, 0
2, 179040, Note_on_c, 0, 77, 61
2, 179400, Note_on_c, 0, 77, 0
2, 179400, Note_on_c, 0, 82, 0
2, 179400, Note_on_c, 0, 79, 61
2, 179400, Note_on_c, 0, 82, 88
2, 179520, Note_on_c, 0, 79, 0
2, 179520, Note_on_c, 0, 76, 80
2, 179880, Note_on_c, 0, 82, 0
2, 180480, Note_on_c, 0, 70, 68
2, 180480, Note_on_c, 0, 79, 80
2, 180960, Note_on_c, 0, 79, 0
2, 180960, Note_on_c, 0, 70, 0
2, 180960, Note_on_c, 0, 71, 65
2, 180960, Note_on_c, 0, 80, 77
2, 181440, Note_on_c, 0, 80, 0
2, 181440, Note_on_c, 0, 71, 0
2, 181440, Note_on_c, 0, 76, 0
2, 181440, Note_on_c, 0, 70, 65
2, 181440, Note_on_c, 0, 75, 65
2, 181440, Note_on_c, 0, 79, 77
2, 181920, Note_on_c, 0, 79, 0
2, 181920, Note_on_c, 0, 75, 0
2, 181920, Note_on_c, 0, 73, 62
2, 181920, Note_on_c, 0, 78, 74
2, 182400, Note_on_c, 0, 78, 0
2, 182400, Note_on_c, 0, 77, 71
2, 182880, Note_on_c, 0, 77, 0
2, 182880, Note_on_c, 0, 76, 69
2, 184320, Note_on_c, 0, 76, 0
2, 184320, Note_on_c, 0, 73, 0
2, 184320, Note_on_c, 0, 70, 0
2, 185760, Note_on_c, 0, 75, 59
2, 186000, Note_on_c, 0, 75, 0
2, 186000, Note_on_c, 0, 76, 61
2, 186240, Note_on_c, 0, 76, 0
2, 186240, Note_on_c, 0, 77, 63
2, 186720, Note_on_c, 0, 77, 0
2, 186720, Note_on_c, 0, 78, 70
2, 187200, Note_on_c, 0, 78, 0
2, 187200, Note_on_c, 0, 79, 77
2, 187560, Note_on_c, 0, 79, 0
2, 187560, Note_on_c, 0, 80, 64
2, 187680, Note_on_c, 0, 80, 0
2, 187680, Note_on_c, 0, 76, 76
2, 188400, Note_on_c, 0, 76, 0
2, 188400, Note_on_c, 0, 75, 67
2, 188640, Note_on_c, 0, 75, 0
2, 188640, Note_on_c, 0, 75, 71
2, 188880, Note_on_c, 0, 75, 0
2, 188880, Note_on_c, 0, 73, 59
2, 188940, Note_on_c, 0, 73, 0
2, 188940, Note_on_c, 0, 75, 60
2, 189000, Note_on_c, 0, 75, 0
2, 189000, Note_on_c, 0, 73, 69
2, 189120, Note_on_c, 0, 73, 0
2, 189120, Note_on_c, 0, 72, 67
2, 189600, Note_on_c, 0, 72, 0
2, 189600, Note_on_c, 0, 73, 70
2, 190080, Note_on_c, 0, 73, 0
2, 190080, Note_on_c, 0, 76, 74
2, 191040, Note_on_c, 0, 76, 0
2, 191040, Note_on_c, 0, 75, 64
2, 191520, Note_on_c, 0, 75, 0
2, 191520, Note_on_c, 0, 71, 58
2, 191760, Note_on_c, 0, 71, 0
2, 191760, Note_on_c, 0, 73, 60
2, 192000, Note_on_c, 0, 73, 0
2, 192000, Note_on_c, 0, 74, 63
2, 192480, Note_on_c, 0, 74, 0
2, 192480, Note_on_c, 0, 75, 68
2, 192960, Note_on_c, 0, 75, 0
2, 192960, Note_on_c, 0, 78, 72
2, 193200, Note_on_c, 0, 78, 0
2, 193200, Note_on_c, 0, 76, 64
2, 193440, Note_on_c, 0, 76, 0
2, 193440, Note_on_c, 0, 73, 70
2, 193920, Note_on_c, 0, 73, 0
2, 193920, Note_on_c, 0, 68, 56
2, 193980, Note_on_c, 0, 68, 0
2, 193980, Note_on_c, 0, 70, 56
2, 194040, Note_on_c, 0, 70, 0
2, 194040, Note_on_c, 0, 68, 64
2, 194400, Note_on_c, 0, 68, 0
2, 194400, Note_on_c, 0, 67, 64
2, 194760, Note_on_c, 0, 67, 0
2, 194760, Note_on_c, 0, 68, 61
2, 194880, Note_on_c, 0, 68, 0
2, 194880, Note_on_c, 0, 71, 64
2, 195360, Note_on_c, 0, 71, 0
2, 195360, Note_on_c, 0, 70, 64
2, 195840, Note_on_c, 0, 70, 0
2, 195840, Note_on_c, 0, 67, 69
2, 196800, Note_on_c, 0, 67, 0
2, 196800, Note_on_c, 0, 66, 64
2, 197280, Note_on_c, 0, 66, 0
2, 197280, Note_on_c, 0, 75, 59
2, 197520, Note_on_c, 0, 75, 0
2, 197520, Note_on_c, 0, 76, 61
2, 197760, Note_on_c, 0, 76, 0
2, 197760, Note_on_c, 0, 78, 63
2, 198240, Note_on_c, 0, 78, 0
2, 198240, Note_on_c, 0, 87, 69
2, 198720, Note_on_c, 0, 87, 0
2, 198720, Note_on_c, 0, 85, 69
2, 198960, Note_on_c, 0, 85, 0
2, 198960, Note_on_c, 0, 83, 64
2, 199200, Note_on_c, 0, 83, 0
2, 199200, Note_on_c, 0, 80, 69
2, 199680, Note_on_c, 0, 80, 0
2, 199680, Note_on_c, 0, 76, 67
2, 200160, Note_on_c, 0, 76, 0
2, 200160, Note_on_c, 0, 75, 71
2, 200400, Note_on_c, 0, 75, 0
2, 200400, Note_on_c, 0, 73, 59
2, 200460, Note_on_c, 0, 73, 0
2, 200460, Note_on_c, 0, 75, 60
2, 200520, Note_on_c, 0, 75, 0
2, 200520, Note_on_c, 0, 73, 69
2, 200640, Note_on_c, 0, 73, 0
2, 200640, Note_on_c, 0, 72, 67
2, 201120, Note_on_c, 0, 72, 0
2, 201120, Note_on_c, 0, 73, 70
2, 201600, Note_on_c, 0, 73, 0
2, 201600, Note_on_c, 0, 76, 71
2, 202560, Note_on_c, 0, 76, 0
2, 202560, Note_on_c, 0, 75, 64
2, 203040, Note_on_c, 0, 75, 0
2, 203040, Note_on_c, 0, 75, 77
2, 203760, Note_on_c, 0, 75, 0
2, 203760, Note_on_c, 0, 75, 64
2, 203820, Note_on_c, 0, 75, 0
2, 203820, Note_on_c, 0, 77, 64
2, 203880, Note_on_c, 0, 77, 0
2, 203880, Note_on_c, 0, 75, 72
2, 204000, Note_on_c, 0, 75, 0
2, 204000, Note_on_c, 0, 73, 74
2, 204240, Note_on_c, 0, 73, 0
2, 204240, Note_on_c, 0, 71, 71
2, 204480, Note_on_c, 0, 71, 0
2, 204480, Note_on_c, 0, 70, 79
2, 204720, Note_on_c, 0, 70, 0
2, 204720, Note_on_c, 0, 75, 73
2, 204960, Note_on_c, 0, 75, 0
2, 204960, Note_on_c, 0, 78, 80
2, 205440, Note_on_c, 0, 78, 0
2, 205440, Note_on_c, 0, 83, 79
2, 205920, Note_on_c, 0, 83, 0
2, 205920, Note_on_c, 0, 82, 81
2, 206160, Note_on_c, 0, 82, 0
2, 206160, Note_on_c, 0, 77, 70
2, 206400, Note_on_c, 0, 77, 0
2, 206400, Note_on_c, 0, 80, 80
2, 207120, Note_on_c, 0, 80, 0
2, 207120, Note_on_c, 0, 78, 77
2, 207360, Note_on_c, 0, 78, 0
2, 207360, Note_on_c, 0, 75, 81
2, 207840, Note_on_c, 0, 75, 0
2, 207840, Note_on_c, 0, 66, 80
2, 208080, Note_on_c, 0, 66, 0
2, 208080, Note_on_c, 0, 78, 79
2, 208320, Note_on_c, 0, 78, 0
2, 208320, Note_on_c, 0, 77, 78
2, 208560, Note_on_c, 0, 77, 0
2, 208560, Note_on_c, 0, 76, 70
2, 208800, Note_on_c, 0, 76, 0
2, 208800, Note_on_c, 0, 75, 67
2, 209040, Note_on_c, 0, 75, 0
2, 209040, Note_on_c, 0, 76, 70
2, 209280, Note_on_c, 0, 76, 0
2, 209280, Note_on_c, 0, 77, 72
2, 209760, Note_on_c, 0, 77, 0
2, 209760, Note_on_c, 0, 78, 75
2, 210240, Note_on_c, 0, 78, 0
2, 210240, Note_on_c, 0, 79, 75
2, 210600, Note_on_c, 0, 79, 0
2, 210600, Note_on_c, 0, 80, 64
2, 210720, Note_on_c, 0, 80, 0
2, 210720, Note_on_c, 0, 76, 69
2, 211440, Note_on_c, 0, 76, 0
2, 211440, Note_on_c, 0, 75, 67
2, 211680, Note_on_c, 0, 75, 0
2, 211680, Note_on_c, 0, 75, 71
2, 211920, Note_on_c, 0, 75, 0
2, 211920, Note_on_c, 0, 73, 59
2, 211980, Note_on_c, 0, 73, 0
2, 211980, Note_on_c, 0, 75, 60
2, 212040, Note_on_c, 0, 75, 0
2, 212040, Note_on_c, 0, 73, 69
2, 212160, Note_on_c, 0, 73, 0
2, 212160, Note_on_c, 0, 72, 67
2, 212640, Note_on_c, 0, 72, 0
2, 212640, Note_on_c, 0, 73, 70
2, 213120, Note_on_c, 0, 73, 0
2, 213120, Note_on_c, 0, 76, 73
2, 214080, Note_on_c, 0, 76, 0
2, 214080, Note_on_c, 0, 75, 64
2, 214560, Note_on_c, 0, 75, 0
2, 214560, Note_on_c, 0, 71, 58
2, 214800, Note_on_c, 0, 71, 0
2, 214800, Note_on_c, 0, 73, 60
2, 215040, Note_on_c, 0, 73, 0
2, 215040, Note_on_c, 0, 74, 63
2, 215520, Note_on_c, 0, 74, 0
2, 215520, Note_on_c, 0, 75, 67
2, 216000, Note_on_c, 0, 75, 0
2, 216000, Note_on_c, 0, 78, 69
2, 216240, Note_on_c, 0, 78, 0
2, 216240, Note_on_c, 0, 76, 64
2, 216480, Note_on_c, 0, 76, 0
2, 216480, Note_on_c, 0, 73, 70
2, 216960, Note_on_c, 0, 73, 0
2, 216960, Note_on_c, 0, 68, 56
2, 217020, Note_on_c, 0, 68, 0
2, 217020, Note_on_c, 0, 70, 56
2, 217080, Note_on_c, 0, 70, 0
2, 217080, Note_on_c, 0, 68, 64
2, 217440, Note_on_c, 0, 68, 0
2, 217440, Note_on_c, 0, 67, 64
2, 217800, Note_on_c, 0, 67, 0
2, 217800, Note_on_c, 0, 68, 61
2, 217920, Note_on_c, 0, 68, 0
2, 217920, Note_on_c, 0, 71, 64
2, 218400, Note_on_c, 0, 71, 0
2, 218400, Note_on_c, 0, 70, 64
2, 218880, Note_on_c, 0, 70, 0
2, 218880, Note_on_c, 0, 67, 69
2, 219840, Note_on_c, 0, 67, 0
2, 219840, Note_on_c, 0, 66, 64
2, 220320, Note_on_c, 0, 66, 0
2, 220320, Note_on_c, 0, 75, 59
2, 220560, Note_on_c, 0, 75, 0
2, 220560, Note_on_c, 0, 76, 61
2, 220800, Note_on_c, 0, 76, 0
2, 220800, Note_on_c, 0, 78, 63
2, 221280, Note_on_c, 0, 78, 0
2, 221280, Note_on_c, 0, 87, 69
2, 221760, Note_on_c, 0, 87, 0
2, 221760, Note_on_c, 0, 85, 69
2, 222000, Note_on_c, 0, 85, 0
2, 222000, Note_on_c, 0, 83, 64
2, 222240, Note_on_c, 0, 83, 0
2, 222240, Note_on_c, 0, 80, 69
2, 222720, Note_on_c, 0, 80, 0
2, 222720, Note_on_c, 0, 76, 67
2, 223200, Note_on_c, 0, 76, 0
2, 223200, Note_on_c, 0, 75, 71
2, 223440, Note_on_c, 0, 75, 0
2, 223440, Note_on_c, 0, 73, 59
2, 223500, Note_on_c, 0, 73, 0
2, 223500, Note_on_c, 0, 75, 60
2, 223560, Note_on_c, 0, 75, 0
2, 223560, Note_on_c, 0, 73, 69
2, 223680, Note_on_c, 0, 73, 0
2, 223680, Note_on_c, 0, 72, 67
2, 224160, Note_on_c, 0, 72, 0
2, 224160, Note_on_c, 0, 73, 70
2, 224640, Note_on_c, 0, 73, 0
2, 224640, Note_on_c, 0, 76, 71
2, 225600, Note_on_c, 0, 76, 0
2, 225600, Note_on_c, 0, 75, 64
2, 226080, Note_on_c, 0, 75, 0
2, 226080, Note_on_c, 0, 75, 67
2, 226800, Note_on_c, 0, 75, 0
2, 226800, Note_on_c, 0, 75, 56
2, 226860, Note_on_c, 0, 75, 0
2, 226860, Note_on_c, 0, 77, 56
2, 226920, Note_on_c, 0, 77, 0
2, 226920, Note_on_c, 0, 75, 63
2, 227040, Note_on_c, 0, 75, 0
2, 227040, Note_on_c, 0, 73, 65
2, 227280, Note_on_c, 0, 73, 0
2, 227280, Note_on_c, 0, 71, 62
2, 227520, Note_on_c, 0, 71, 0
2, 227520, Note_on_c, 0, 70, 69
2, 227760, Note_on_c, 0, 70, 0
2, 227760, Note_on_c, 0, 75, 64
2, 228000, Note_on_c, 0, 75, 0
2, 228000, Note_on_c, 0, 78, 70
2, 228480, Note_on_c, 0, 78, 0
2, 228480, Note_on_c, 0, 83, 69
2, 228960, Note_on_c, 0, 83, 0
2, 228960, Note_on_c, 0, 82, 71
2, 229200, Note_on_c, 0, 82, 0
2, 229200, Note_on_c, 0, 77, 61
2, 229440, Note_on_c, 0, 77, 0
2, 229440, Note_on_c, 0, 80, 70
2, 230160, Note_on_c, 0, 80, 0
2, 230160, Note_on_c, 0, 78, 67
2, 230400, Note_on_c, 0, 78, 0
2, 230400, Note_on_c, 0, 75, 71
2, 231360, Note_on_c, 0, 75, 0
2, 231360, Note_on_c, 0, 78, 75
2, 231840, Note_on_c, 0, 78, 0
2, 231840, Note_on_c, 0, 92, 82
2, 231840, Note_on_c, 0, 80, 69
2, 232200, Note_on_c, 0, 80, 0
2, 232200, Note_on_c, 0, 92, 0
2, 232200, Note_on_c, 0, 90, 77
2, 232200, Note_on_c, 0, 78, 65
2, 232320, Note_on_c, 0, 78, 0
2, 232320, Note_on_c, 0, 90, 0
2, 232320, Note_on_c, 0, 88, 76
2, 232320, Note_on_c, 0, 76, 64
2, 232680, Note_on_c, 0, 76, 0
2, 232680, Note_on_c, 0, 88, 0
2, 232800, Note_on_c, 0, 64, 63
2, 232800, Note_on_c, 0, 70, 75
2, 233280, Note_on_c, 0, 70, 0
2, 233280, Note_on_c, 0, 64, 0
2, 233280, Note_on_c, 0, 63, 64
2, 233280, Note_on_c, 0, 71, 76
2, 233520, Note_on_c, 0, 71, 0
2, 233520, Note_on_c, 0, 63, 0
2, 233640, Note_on_c, 0, 66, 62
2, 233640, Note_on_c, 0, 73, 73
2, 233760, Note_on_c, 0, 73, 0
2, 233760, Note_on_c, 0, 66, 0
2, 233760, Note_on_c, 0, 71, 68
2, 233760, Note_on_c, 0, 75, 81
2, 234240, Note_on_c, 0, 75, 0
2, 234240, Note_on_c, 0, 71, 0
2, 234240, Note_on_c, 0, 78, 65
2, 234240, Note_on_c, 0, 90, 77
2, 234720, Note_on_c, 0, 90, 0
2, 234720, Note_on_c, 0, 78, 0
2, 234720, Note_on_c, 0, 92, 82
2, 234720, Note_on_c, 0, 80, 69
2, 235080, Note_on_c, 0, 80, 0
2, 235080, Note_on_c, 0, 92, 0
2, 235080, Note_on_c, 0, 90, 77
2, 235080, Note_on_c, 0, 78, 65
2, 235200, Note_on_c, 0, 78, 0
2, 235200, Note_on_c, 0, 90, 0
2, 235200, Note_on_c, 0, 88, 76
2, 235200, Note_on_c, 0, 76, 64
2, 235560, Note_on_c, 0, 76, 0
2, 235560, Note_on_c, 0, 88, 0
2, 235680, Note_on_c, 0, 64, 63
2, 235680, Note_on_c, 0, 70, 75
2, 236160, Note_on_c, 0, 70, 0
2, 236160, Note_on_c, 0, 64, 0
2, 236160, Note_on_c, 0, 63, 64
2, 236160, Note_on_c, 0, 71, 76
2, 236400, Note_on_c, 0, 71, 0
2, 236400, Note_on_c, 0, 63, 0
2, 236520, Note_on_c, 0, 66, 62
2, 236520, Note_on_c, 0, 73, 73
2, 236640, Note_on_c, 0, 73, 0
2, 236640, Note_on_c, 0, 66, 0
2, 236640, Note_on_c, 0, 71, 68
2, 236640, Note_on_c, 0, 75, 81
2, 237120, Note_on_c, 0, 75, 0
2, 237120, Note_on_c, 0, 71, 0
2, 237120, Note_on_c, 0, 75, 65
2, 237120, Note_on_c, 0, 78, 77
2, 237600, Note_on_c, 0, 78, 0
2, 237600, Note_on_c, 0, 75, 0
2, 237600, Note_on_c, 0, 85, 69
2, 237600, Note_on_c, 0, 88, 81
2, 237720, Note_on_c, 0, 88, 0
2, 237720, Note_on_c, 0, 85, 0
2, 237960, Note_on_c, 0, 78, 62
2, 237960, Note_on_c, 0, 82, 73
2, 238080, Note_on_c, 0, 82, 0
2, 238080, Note_on_c, 0, 78, 0
2, 238080, Note_on_c, 0, 76, 66
2, 238080, Note_on_c, 0, 80, 73
2, 238440, Note_on_c, 0, 80, 0
2, 238440, Note_on_c, 0, 76, 0
2, 238440, Note_on_c, 0, 78, 62
2, 238440, Note_on_c, 0, 82, 73
2, 238560, Note_on_c, 0, 82, 0
2, 238560, Note_on_c, 0, 78, 0
2, 238560, Note_on_c, 0, 76, 65
2, 238560, Note_on_c, 0, 80, 77
2, 239040, Note_on_c, 0, 80, 0
2, 239040, Note_on_c, 0, 76, 0
2, 239040, Note_on_c, 0, 83, 69
2, 239040, Note_on_c, 0, 87, 81
2, 239160, Note_on_c, 0, 87, 0
2, 239160, Note_on_c, 0, 83, 0
2, 239400, Note_on_c, 0, 76, 62
2, 239400, Note_on_c, 0, 80, 73
2, 239520, Note_on_c, 0, 80, 0
2, 239520, Note_on_c, 0, 76, 0
2, 239520, Note_on_c, 0, 75, 66
2, 239520, Note_on_c, 0, 78, 73
2, 239880, Note_on_c, 0, 78, 0
2, 239880, Note_on_c, 0, 75, 0
2, 239880, Note_on_c, 0, 76, 62
2, 239880, Note_on_c, 0, 80, 73
2, 240000, Note_on_c, 0, 80, 0
2, 240000, Note_on_c, 0, 76, 0
2, 240000, Note_on_c, 0, 75, 65
2, 240000, Note_on_c, 0, 78, 77
2, 240480, Note_on_c, 0, 78, 0
2, 240480, Note_on_c, 0, 75, 0
2, 240480, Note_on_c, 0, 82, 69
2, 240480, Note_on_c, 0, 85, 81
2, 240600, Note_on_c, 0, 85, 0
2, 240600, Note_on_c, 0, 82, 0
2, 240840, Note_on_c, 0, 75, 62
2, 240840, Note_on_c, 0, 78, 73
2, 240960, Note_on_c, 0, 78, 0
2, 240960, Note_on_c, 0, 75, 0
2, 240960, Note_on_c, 0, 73, 66
2, 240960, Note_on_c, 0, 76, 73
2, 241320, Note_on_c, 0, 76, 0
2, 241320, Note_on_c, 0, 73, 0
2, 241320, Note_on_c, 0, 75, 62
2, 241320, Note_on_c, 0, 78, 73
2, 241440, Note_on_c, 0, 78, 0
2, 241440, Note_on_c, 0, 75, 0
2, 241440, Note_on_c, 0, 73, 65
2, 241440, Note_on_c, 0, 76, 77
2, 241920, Note_on_c, 0, 76, 0
2, 241920, Note_on_c, 0, 73, 0
2, 241920, Note_on_c, 0, 71, 58
2, 241920, Note_on_c, 0, 75, 69
2, 242040, Note_on_c, 0, 75, 0
2, 242040, Note_on_c, 0, 71, 0
2, 242280, Note_on_c, 0, 73, 52
2, 242280, Note_on_c, 0, 76, 62
2, 242400, Note_on_c, 0, 76, 0
2, 242400, Note_on_c, 0, 73, 0
2, 242400, Note_on_c, 0, 74, 56
2, 242400, Note_on_c, 0, 80, 67
2, 242880, Note_on_c, 0, 80, 0
2, 242880, Note_on_c, 0, 74, 0
2, 242880, Note_on_c, 0, 75, 50
2, 242880, Note_on_c, 0, 78, 59
2, 243360, Note_on_c, 0, 78, 0
2, 243360, Note_on_c, 0, 75, 0
2, 243360, Note_on_c, 0, 92, 82
2, 243360, Note_on_c, 0, 80, 69
2, 243720, Note_on_c, 0, 80, 0
2, 243720, Note_on_c, 0, 92, 0
2, 243720, Note_on_c, 0, 90, 77
2, 243720, Note_on_c, 0, 78, 65
2, 243840, Note_on_c, 0, 78, 0
2, 243840, Note_on_c, 0, 90, 0
2, 243840, Note_on_c, 0, 88, 76
2, 243840, Note_on_c, 0, 76, 64
2, 244200, Note_on_c, 0, 76, 0
2, 244200, Note_on_c, 0, 88, 0
2, 244320, Note_on_c, 0, 64, 63
2, 244320, Note_on_c, 0, 70, 75
2, 244800, Note_on_c, 0, 70, 0
2, 244800, Note_on_c, 0, 64, 0
2, 244800, Note_on_c, 0, 63, 64
2, 244800, Note_on_c, 0, 71, 76
2, 245040, Note_on_c, 0, 71, 0
2, 245040, Note_on_c, 0, 63, 0
2, 245160, Note_on_c, 0, 66, 62
2, 245160, Note_on_c, 0, 73, 73
2, 245280, Note_on_c, 0, 73, 0
2, 245280, Note_on_c, 0, 66, 0
2, 245280, Note_on_c, 0, 71, 68
2, 245280, Note_on_c, 0, 75, 81
2, 245760, Note_on_c, 0, 75, 0
2, 245760, Note_on_c, 0, 71, 0
2, 245760, Note_on_c, 0, 78, 65
2, 245760, Note_on_c, 0, 90, 77
2, 246240, Note_on_c, 0, 90, 0
2, 246240, Note_on_c, 0, 78, 0
2, 246240, Note_on_c, 0, 92, 82
2, 246240, Note_on_c, 0, 80, 69
2, 246600, Note_on_c, 0, 80, 0
2, 246600, Note_on_c, 0, 92, 0
2, 246600, Note_on_c, 0, 90, 77
2, 246600, Note_on_c, 0, 78, 65
2, 246720, Note_on_c, 0, 78, 0
2, 246720, Note_on_c, 0, 90, 0
2, 246720, Note_on_c, 0, 88, 76
2, 246720, Note_on_c, 0, 76, 64
2, 247080, Note_on_c, 0, 76, 0
2, 247080, Note_on_c, 0, 88, 0
2, 247200, Note_on_c, 0, 64, 63
2, 247200, Note_on_c, 0, 70, 75
2, 247680, Note_on_c, 0, 70, 0
2, 247680, Note_on_c, 0, 64, 0
2, 247680, Note_on_c, 0, 63, 64
2, 247680, Note_on_c, 0, 71, 76
2, 247920, Note_on_c, 0, 71, 0
2, 247920, Note_on_c, 0, 63, 0
2, 248040, Note_on_c, 0, 66, 62
2, 248040, Note_on_c, 0, 73, 73
2, 248160, Note_on_c, 0, 73, 0
2, 248160, Note_on_c, 0, 66, 0
2, 248160, Note_on_c, 0, 71, 68
2, 248160, Note_on_c, 0, 75, 81
2, 248640, Note_on_c, 0, 75, 0
2, 248640, Note_on_c, 0, 71, 0
2, 248640, Note_on_c, 0, 75, 65
2, 248640, Note_on_c, 0, 78, 77
2, 249120, Note_on_c, 0, 78, 0
2, 249120, Note_on_c, 0, 75, 0
2, 249120, Note_on_c, 0, 85, 69
2, 249120, Note_on_c, 0, 88, 81
2, 249240, Note_on_c, 0, 88, 0
2, 249240, Note_on_c, 0, 85, 0
2, 249480, Note_on_c, 0, 78, 62
2, 249480, Note_on_c, 0, 82, 73
2, 249600, Note_on_c, 0, 82, 0
2, 249600, Note_on_c, 0, 78, 0
2, 249600, Note_on_c, 0, 76, 66
2, 249600, Note_on_c, 0, 80, 73
2, 249960, Note_on_c, 0, 80, 0
2, 249960, Note_on_c, 0, 76, 0
2, 249960, Note_on_c, 0, 78, 62
2, 249960, Note_on_c, 0, 82, 73
2, 250080, Note_on_c, 0, 82, 0
2, 250080, Note_on_c, 0, 78, 0
2, 250080, Note_on_c, 0, 76, 65
2, 250080, Note_on_c, 0, 80, 77
2, 250560, Note_on_c, 0, 80, 0
2, 250560, Note_on_c, 0, 76, 0
2, 250560, Note_on_c, 0, 83, 69
2, 250560, Note_on_c, 0, 87, 81
2, 250680, Note_on_c, 0, 87, 0
2, 250680, Note_on_c, 0, 83, 0
2, 250920, Note_on_c, 0, 76, 62
2, 250920, Note_on_c, 0, 80, 73
2, 251040, Note_on_c, 0, 80, 0
2, 251040, Note_on_c, 0, 76, 0
2, 251040, Note_on_c, 0, 75, 66
2, 251040, Note_on_c, 0, 78, 73
2, 251400, Note_on_c, 0, 78, 0
2, 251400, Note_on_c, 0, 75, 0
2, 251400, Note_on_c, 0, 76, 62
2, 251400, Note_on_c, 0, 80, 73
2, 251520, Note_on_c, 0, 80, 0
2, 251520, Note_on_c, 0, 76, 0
2, 251520, Note_on_c, 0, 75, 65
2, 251520, Note_on_c, 0, 78, 77
2, 252000, Note_on_c, 0, 78, 0
2, 252000, Note_on_c, 0, 75, 0
2, 252000, Note_on_c, 0, 82, 69
2, 252000, Note_on_c, 0, 85, 81
2, 252120, Note_on_c, 0, 85, 0
2, 252120, Note_on_c, 0, 82, 0
2, 252360, Note_on_c, 0, 75, 62
2, 252360, Note_on_c, 0, 78, 73
2, 252480, Note_on_c, 0, 78, 0
2, 252480, Note_on_c, 0, 75, 0
2, 252480, Note_on_c, 0, 73, 66
2, 252480, Note_on_c, 0, 76, 73
2, 252840, Note_on_c, 0, 76, 0
2, 252840, Note_on_c, 0, 73, 0
2, 252840, Note_on_c, 0, 75, 62
2, 252840, Note_on_c, 0, 78, 73
2, 252960, Note_on_c, 0, 78, 0
2, 252960, Note_on_c, 0, 75, 0
2, 252960, Note_on_c, 0, 73, 65
2, 252960, Note_on_c, 0, 76, 77
2, 253440, Note_on_c, 0, 76, 0
2, 253440, Note_on_c, 0, 73, 0
2, 277920, Note_on_c, 0, 78, 46
2, 278160, Note_on_c, 0, 78, 0
2, 278160, Note_on_c, 0, 83, 42
2, 278400, Note_on_c, 0, 83, 0
2, 278400, Note_on_c, 0, 79, 42
2, 278460, Note_on_c, 0, 79, 0
2, 278460, Note_on_c, 0, 81, 42
2, 278520, Note_on_c, 0, 81, 0
2, 278520, Note_on_c, 0, 79, 48
2, 278880, Note_on_c, 0, 79, 0
2, 278880, Note_on_c, 0, 78, 45
2, 279120, Note_on_c, 0, 78, 0
2, 279120, Note_on_c, 0, 76, 42
2, 279360, Note_on_c, 0, 76, 0
2, 279360, Note_on_c, 0, 78, 46
2, 279600, Note_on_c, 0, 78, 0
2, 279600, Note_on_c, 0, 71, 42
2, 280800, Note_on_c, 0, 71, 0
2, 280800, Note_on_c, 0, 73, 49
2, 281040, Note_on_c, 0, 73, 0
2, 281040, Note_on_c, 0, 76, 42
2, 281280, Note_on_c, 0, 76, 0
2, 281280, Note_on_c, 0, 74, 42
2, 281340, Note_on_c, 0, 74, 0
2, 281340, Note_on_c, 0, 76, 42
2, 281400, Note_on_c, 0, 76, 0
2, 281400, Note_on_c, 0, 74, 48
2, 281760, Note_on_c, 0, 74, 0
2, 281760, Note_on_c, 0, 73, 45
2, 282240, Note_on_c, 0, 73, 0
2, 282240, Note_on_c, 0, 74, 46
2, 282480, Note_on_c, 0, 74, 0
2, 282480, Note_on_c, 0, 71, 42
2, 283680, Note_on_c, 0, 71, 0
2, 283680, Note_on_c, 0, 73, 55
2, 283920, Note_on_c, 0, 73, 0
2, 283920, Note_on_c, 0, 71, 47
2, 284160, Note_on_c, 0, 71, 0
2, 284160, Note_on_c, 0, 69, 43
2, 284220, Note_on_c, 0, 69, 0
2, 284220, Note_on_c, 0, 71, 44
2, 284280, Note_on_c, 0, 71, 0
2, 284280, Note_on_c, 0, 69, 52
2, 284640, Note_on_c, 0, 69, 0
2, 284640, Note_on_c, 0, 68, 50
2, 285120, Note_on_c, 0, 68, 0
2, 285120, Note_on_c, 0, 69, 52
2, 285360, Note_on_c, 0, 69, 0
2, 285360, Note_on_c, 0, 73, 47
2, 285840, Note_on_c, 0, 73, 0
2, 286080, Note_on_c, 0, 61, 68
2, 286800, Note_on_c, 0, 61, 0
2, 286800, Note_on_c, 0, 59, 60
2, 287040, Note_on_c, 0, 59, 0
2, 287040, Note_on_c, 0, 57, 57
2, 287100, Note_on_c, 0, 57, 0
2, 287100, Note_on_c, 0, 59, 57
2, 287160, Note_on_c, 0, 59, 0
2, 287160, Note_on_c, 0, 57, 68
2, 287520, Note_on_c, 0, 57, 0
2, 287520, Note_on_c, 0, 56, 67
2, 288000, Note_on_c, 0, 56, 0
2, 288000, Note_on_c, 0, 57, 71
2, 288480, Note_on_c, 0, 57, 0
2, 288480, Note_on_c, 0, 61, 67
2, 289440, Note_on_c, 0, 61, 0
2, 289440, Note_on_c, 0, 59, 71
2, 289920, Note_on_c, 0, 59, 0
2, 289920, Note_on_c, 0, 57, 68
2, 290396, Note_on_c, 0, 57, 0
2, 290400, Note_on_c, 0, 61, 68
2, 290880, Note_on_c, 0, 61, 0
2, 290880, Note_on_c, 0, 59, 63
2, 290940, Note_on_c, 0, 59, 0
2, 290940, Note_on_c, 0, 61, 63
2, 291000, Note_on_c, 0, 61, 0
2, 291000, Note_on_c, 0, 59, 73
2, 291120, Note_on_c, 0, 59, 0
2, 291120, Note_on_c, 0, 57, 66
2, 291360, Note_on_c, 0, 57, 0
2, 291360, Note_on_c, 0, 61, 72
2, 291840, Note_on_c, 0, 61, 0
2, 291840, Note_on_c, 0, 61, 68
2, 292320, Note_on_c, 0, 61, 0
2, 292320, Note_on_c, 0, 59, 61
2, 292380, Note_on_c, 0, 59, 0
2, 292380, Note_on_c, 0, 61, 61
2, 292440, Note_on_c, 0, 61, 0
2, 292440, Note_on_c, 0, 59, 72
2, 292800, Note_on_c, 0, 59, 0
2, 292800, Note_on_c, 0, 58, 72
2, 293275, Note_on_c, 0, 58, 0
2, 293280, Note_on_c, 0, 61, 68
2, 293760, Note_on_c, 0, 61, 0
2, 293760, Note_on_c, 0, 59, 62
2, 293820, Note_on_c, 0, 59, 0
2, 293820, Note_on_c, 0, 61, 63
2, 293880, Note_on_c, 0, 61, 0
2, 293880, Note_on_c, 0, 59, 73
2, 294000, Note_on_c, 0, 59, 0
2, 294000, Note_on_c, 0, 58, 66
2, 294240, Note_on_c, 0, 58, 0
2, 294240, Note_on_c, 0, 66, 72
2, 294720, Note_on_c, 0, 66, 0
2, 294720, Note_on_c, 0, 78, 58
2, 295440, Note_on_c, 0, 78, 0
2, 295440, Note_on_c, 0, 83, 50
2, 295680, Note_on_c, 0, 83, 0
2, 295680, Note_on_c, 0, 79, 50
2, 295740, Note_on_c, 0, 79, 0
2, 295740, Note_on_c, 0, 81, 50
2, 295800, Note_on_c, 0, 81, 0
2, 295800, Note_on_c, 0, 79, 57
2, 296160, Note_on_c, 0, 79, 0
2, 296160, Note_on_c, 0, 78, 53
2, 296400, Note_on_c, 0, 78, 0
2, 296400, Note_on_c, 0, 76, 50
2, 296640, Note_on_c, 0, 76, 0
2, 296640, Note_on_c, 0, 78, 55
2, 296880, Note_on_c, 0, 78, 0
2, 296880, Note_on_c, 0, 71, 50
2, 298080, Note_on_c, 0, 71, 0
2, 298080, Note_on_c, 0, 73, 58
2, 298320, Note_on_c, 0, 73, 0
2, 298320, Note_on_c, 0, 76, 50
2, 298560, Note_on_c, 0, 76, 0
2, 298560, Note_on_c, 0, 74, 50
2, 298620, Note_on_c, 0, 74, 0
2, 298620, Note_on_c, 0, 76, 50
2, 298680, Note_on_c, 0, 76, 0
2, 298680, Note_on_c, 0, 74, 57
2, 299040, Note_on_c, 0, 74, 0
2, 299040, Note_on_c, 0, 73, 53
2, 299520, Note_on_c, 0, 73, 0
2, 299520, Note_on_c, 0, 74, 55
2, 299760, Note_on_c, 0, 74, 0
2, 299760, Note_on_c, 0, 71, 50
2, 300480, Note_on_c, 0, 71, 0
2, 300480, Note_on_c, 0, 50, 66
2, 301200, Note_on_c, 0, 50, 0
2, 301200, Note_on_c, 0, 55, 58
2, 301440, Note_on_c, 0, 55, 0
2, 301440, Note_on_c, 0, 52, 65
2, 301600, Note_on_c, 0, 52, 0
2, 301600, Note_on_c, 0, 53, 57
2, 301760, Note_on_c, 0, 53, 0
2, 301760, Note_on_c, 0, 52, 55
2, 301920, Note_on_c, 0, 52, 0
2, 301920, Note_on_c, 0, 50, 63
2, 302160, Note_on_c, 0, 50, 0
2, 302160, Note_on_c, 0, 48, 57
2, 302400, Note_on_c, 0, 48, 0
2, 302400, Note_on_c, 0, 50, 64
2, 302760, Note_on_c, 0, 50, 0
2, 302760, Note_on_c, 0, 43, 55
2, 302880, Note_on_c, 0, 43, 0
2, 302880, Note_on_c, 0, 50, 64
2, 303360, Note_on_c, 0, 50, 0
2, 303360, Note_on_c, 0, 48, 59
2, 303840, Note_on_c, 0, 48, 0
2, 303840, Note_on_c, 0, 50, 66
2, 304080, Note_on_c, 0, 50, 0
2, 304080, Note_on_c, 0, 55, 58
2, 304320, Note_on_c, 0, 55, 0
2, 304320, Note_on_c, 0, 52, 65
2, 304480, Note_on_c, 0, 52, 0
2, 304480, Note_on_c, 0, 53, 57
2, 304640, Note_on_c, 0, 53, 0
2, 304640, Note_on_c, 0, 52, 55
2, 304800, Note_on_c, 0, 52, 0
2, 304800, Note_on_c, 0, 50, 63
2, 305040, Note_on_c, 0, 50, 0
2, 305040, Note_on_c, 0, 48, 57
2, 305280, Note_on_c, 0, 48, 0
2, 305280, Note_on_c, 0, 50, 64
2, 305640, Note_on_c, 0, 50, 0
2, 305640, Note_on_c, 0, 43, 54
2, 305760, Note_on_c, 0, 43, 0
2, 305760, Note_on_c, 0, 50, 62
2, 306240, Note_on_c, 0, 50, 0
2, 306240, Note_on_c, 0, 48, 56
2, 306720, Note_on_c, 0, 48, 0
2, 306720, Note_on_c, 0, 50, 60
2, 307080, Note_on_c, 0, 50, 0
2, 307080, Note_on_c, 0, 43, 51
2, 307200, Note_on_c, 0, 43, 0
2, 307200, Note_on_c, 0, 48, 58
2, 307680, Note_on_c, 0, 48, 0
2, 307680, Note_on_c, 0, 50, 57
2, 308040, Note_on_c, 0, 50, 0
2, 308040, Note_on_c, 0, 43, 48
2, 308160, Note_on_c, 0, 43, 0
2, 308160, Note_on_c, 0, 48, 56
2, 308640, Note_on_c, 0, 48, 0
2, 308640, Note_on_c, 0, 50, 55
2, 309000, Note_on_c, 0, 50, 0
2, 309000, Note_on_c, 0, 43, 46
2, 309120, Note_on_c, 0, 43, 0
2, 309120, Note_on_c, 0, 48, 53
2, 309600, Note_on_c, 0, 48, 0
2, 309600, Note_on_c, 0, 50, 54
2, 309960, Note_on_c, 0, 50, 0
2, 309960, Note_on_c, 0, 43, 45
2, 310080, Note_on_c, 0, 43, 0
2, 310080, Note_on_c, 0, 50, 51
2, 310560, Note_on_c, 0, 50, 0
2, 310560, Note_on_c, 0, 48, 45
2, 311040, Note_on_c, 0, 48, 0
2, 311040, Note_on_c, 0, 50, 50
2, 311400, Note_on_c, 0, 50, 0
2, 311400, Note_on_c, 0, 43, 41
2, 311520, Note_on_c, 0, 43, 0
2, 311520, Note_on_c, 0, 50, 46
2, 312000, Note_on_c, 0, 50, 0
2, 312000, Note_on_c, 0, 48, 41
2, 312480, Note_on_c, 0, 48, 0
2, 321120, Note_on_c, 0, 67, 54
2, 321600, Note_on_c, 0, 67, 0
2, 321600, Note_on_c, 0, 60, 59
2, 322320, Note_on_c, 0, 60, 0
2, 322320, Note_on_c, 0, 59, 52
2, 322560, Note_on_c, 0, 59, 0
2, 322560, Note_on_c, 0, 52, 50
2, 322560, Note_on_c, 0, 58, 59
2, 322560, Note_on_c, 0, 61, 59
2, 322920, Note_on_c, 0, 61, 0
2, 322920, Note_on_c, 0, 58, 0
2, 322920, Note_on_c, 0, 52, 0
2, 322920, Note_on_c, 0, 54, 45
2, 323040, Note_on_c, 0, 52, 49
2, 323040, Note_on_c, 0, 58, 58
2, 323040, Note_on_c, 0, 61, 58
2, 323520, Note_on_c, 0, 61, 0
2, 323520, Note_on_c, 0, 54, 0
2, 323520, Note_on_c, 0, 52, 0
2, 323520, Note_on_c, 0, 58, 0
2, 323520, Note_on_c, 0, 50, 47
2, 323520, Note_on_c, 0, 54, 47
2, 323520, Note_on_c, 0, 59, 56
2, 324000, Note_on_c, 0, 59, 0
2, 324000, Note_on_c, 0, 54, 0
2, 324000, Note_on_c, 0, 50, 0
2, 324000, End_track
3, 0, Start_track
3, 0, Title_t, "Piano left"
3, 0, Program_c, 0, 0
3, 0, Control_c, 0, 7, 100
3, 0, Control_c, 0, 10, 64
3, 1440, Note_on_c, 0, 47, 50
3, 1493, Control_c, 0, 64, 127
3, 1920, Note_on_c, 0, 47, 0
3, 1920, Note_on_c, 0, 64, 40
3, 1920, Note_on_c, 0, 59, 34
3, 1920, Note_on_c, 0, 55, 34
3, 2400, Note_on_c, 0, 55, 0
3, 2400, Note_on_c, 0, 59, 0
3, 2400, Note_on_c, 0, 64, 0
3, 2400, Note_on_c, 0, 64, 39
3, 2400, Note_on_c, 0, 59, 33
3, 2400, Note_on_c, 0, 55, 33
3, 2880, Note_on_c, 0, 55, 0
3, 2880, Note_on_c, 0, 59, 0
3, 2880, Note_on_c, 0, 64, 0
3, 2880, Note_on_c, 0, 47, 50
3, 2891, Control_c, 0, 64, 0
3, 3078, Control_c, 0, 64, 127
3, 3360, Note_on_c, 0, 47, 0
3, 3360, Note_on_c, 0, 62, 31
3, 3360, Note_on_c, 0, 59, 26
3, 3360, Note_on_c, 0, 54, 26
3, 3840, Note_on_c, 0, 54, 0
3, 3840, Note_on_c, 0, 59, 0
3, 3840, Note_on_c, 0, 62, 0
3, 3840, Note_on_c, 0, 62, 31
3, 3840, Note_on_c, 0, 59, 26
3, 3840, Note_on_c, 0, 54, 26
3, 4320, Note_on_c, 0, 54, 0
3, 4320, Note_on_c, 0, 59, 0
3, 4320, Note_on_c, 0, 62, 0
3, 4320, Note_on_c, 0, 47, 50
3, 4323, Control_c, 0, 64, 0
3, 4366, Control_c, 0, 64, 127
3, 4800, Note_on_c, 0, 47, 0
3, 4800, Note_on_c, 0, 64, 40
3, 4800, Note_on_c, 0, 58, 34
3, 4800, Note_on_c, 0, 54, 34
3, 5280, Note_on_c, 0, 54, 0
3, 5280, Note_on_c, 0, 58, 0
3, 5280, Note_on_c, 0, 64, 0
3, 5280, Note_on_c, 0, 64, 39
3, 5280, Note_on_c, 0, 58, 33
3, 5280, Note_on_c, 0, 54, 33
3, 5292, Control_c, 0, 64, 0
3, 5760, Note_on_c, 0, 54, 0
3, 5760, Note_on_c, 0, 58, 0
3, 5760, Note_on_c, 0, 64, 0
3, 5760, Note_on_c, 0, 47, 50
3, 5958, Control_c, 0, 64, 127
3, 6240, Note_on_c, 0, 47, 0
3, 6240, Note_on_c, 0, 62, 31
3, 6240, Note_on_c, 0, 59, 26
3, 6240, Note_on_c, 0, 54, 26
3, 6720, Note_on_c, 0, 54, 0
3, 6720, Note_on_c, 0, 59, 0
3, 6720, Note_on_c, 0, 62, 0
3, 6720, Note_on_c, 0, 62, 31
3, 6720, Note_on_c, 0, 59, 26
3, 6720, Note_on_c, 0, 54, 26
3, 7200, Note_on_c, 0, 54, 0
3, 7200, Note_on_c, 0, 59, 0
3, 7200, Note_on_c, 0, 62, 0
3, 7200, Note_on_c, 0, 37, 50
3, 7207, Control_c, 0, 64, 0
3, 7246, Control_c, 0, 64, 127
3, 7680, Note_on_c, 0, 37, 0
3, 7680, Note_on_c, 0, 59, 40
3, 7680, Note_on_c, 0, 53, 34
3, 7680, Note_on_c, 0, 49, 34
3, 7698, Control_c, 0, 64, 0
3, 7800, Control_c, 0, 64, 127
3, 8160, Note_on_c, 0, 49, 0
3, 8160, Note_on_c, 0, 53, 0
3, 8160, Note_on_c, 0, 59, 0
3, 8160, Note_on_c, 0, 59, 39
3, 8160, Note_on_c, 0, 53, 33
3, 8160, Note_on_c, 0, 49, 33
3, 8167, Control_c, 0, 64, 0
3, 8640, Note_on_c, 0, 49, 0
3, 8640, Note_on_c, 0, 53, 0
3, 8640, Note_on_c, 0, 59, 0
3, 8640, Note_on_c, 0, 42, 50
3, 8838, Control_c, 0, 64, 127
3, 9120, Note_on_c, 0, 42, 0
3, 9120, Note_on_c, 0, 57, 37
3, 9120, Note_on_c, 0, 49, 31
3, 9600, Note_on_c, 0, 49, 0
3, 9600, Note_on_c, 0, 57, 0
3, 9617, Control_c, 0, 64, 0
3, 12960, Note_on_c, 0, 49, 47
3, 12960, Note_on_c, 0, 56, 58
3, 13440, Note_on_c, 0, 56, 0
3, 13440, Note_on_c, 0, 54, 55
3, 13737, Control_c, 0, 64, 127
3, 13920, Note_on_c, 0, 54, 0
3, 13920, Note_on_c, 0, 57, 55
3, 14400, Note_on_c, 0, 57, 0
3, 14400, Note_on_c, 0, 49, 0
3, 14400, Note_on_c, 0, 49, 47
3, 14400, Note_on_c, 0, 56, 57
3, 14408, Control_c, 0, 64, 0
3, 14640, Note_on_c, 0, 56, 0
3, 14640, Note_on_c, 0, 54, 51
3, 14880, Note_on_c, 0, 54, 0
3, 14880, Note_on_c, 0, 57, 56
3, 15360, Note_on_c, 0, 57, 0
3, 15360, Note_on_c, 0, 57, 54
3, 15840, Note_on_c, 0, 57, 0
3, 15840, Note_on_c, 0, 49, 0
3, 15840, Note_on_c, 0, 49, 47
3, 15840, Note_on_c, 0, 56, 57
3, 16320, Note_on_c, 0, 56, 0
3, 16320, Note_on_c, 0, 54, 56
3, 16479, Control_c, 0, 64, 127
3, 16800, Note_on_c, 0, 54, 0
3, 16800, Note_on_c, 0, 58, 54
3, 17280, Note_on_c, 0, 58, 0
3, 17280, Note_on_c, 0, 49, 0
3, 17280, Note_on_c, 0, 49, 47
3, 17280, Note_on_c, 0, 56, 57
3, 17326, Control_c, 0, 64, 0
3, 17520, Note_on_c, 0, 56, 0
3, 17520, Note_on_c, 0, 54, 51
3, 17760, Note_on_c, 0, 49, 0
3, 17760, Note_on_c, 0, 42, 47
3, 17792, Control_c, 0, 64, 127
3, 18240, Note_on_c, 0, 54, 0
3, 18253, Control_c, 0, 64, 0
3, 18720, Note_on_c, 0, 42, 0
3, 18720, Note_on_c, 0, 47, 50
3, 18823, Control_c, 0, 64, 127
3, 19200, Note_on_c, 0, 47, 0
3, 19200, Note_on_c, 0, 64, 40
3, 19200, Note_on_c, 0, 59, 34
3, 19200, Note_on_c, 0, 55, 34
3, 19680, Note_on_c, 0, 55, 0
3, 19680, Note_on_c, 0, 59, 0
3, 19680, Note_on_c, 0, 64, 0
3, 19680, Note_on_c, 0, 64, 39
3, 19680, Note_on_c, 0, 59, 33
3, 19680, Note_on_c, 0, 55, 33
3, 20160, Note_on_c, 0, 55, 0
3, 20160, Note_on_c, 0, 59, 0
3, 20160, Note_on_c, 0, 64, 0
3, 20160, Note_on_c, 0, 47, 50
3, 20169, Control_c, 0, 64, 0
3, 20358, Control_c, 0, 64, 127
3, 20640, Note_on_c, 0, 47, 0
3, 20640, Note_on_c, 0, 62, 31
3, 20640, Note_on_c, 0, 59, 26
3, 20640, Note_on_c, 0, 54, 26
3, 21120, Note_on_c, 0, 54, 0
3, 21120, Note_on_c, 0, 59, 0
3, 21120, Note_on_c, 0, 62, 0
3, 21120, Note_on_c, 0, 62, 31
3, 21120, Note_on_c, 0, 59, 26
3, 21120, Note_on_c, 0, 54, 26
3, 21600, Note_on_c, 0, 54, 0
3, 21600, Note_on_c, 0, 59, 0
3, 21600, Note_on_c, 0, 62, 0
3, 21600, Note_on_c, 0, 47, 50
3, 21607, Control_c, 0, 64, 0
3, 21646, Control_c, 0, 64, 127
3, 22080, Note_on_c, 0, 47, 0
3, 22080, Note_on_c, 0, 64, 40
3, 22080, Note_on_c, 0, 58, 34
3, 22080, Note_on_c, 0, 54, 34
3, 22560, Note_on_c, 0, 54, 0
3, 22560, Note_on_c, 0, 58, 0
3, 22560, Note_on_c, 0, 64, 0
3, 22560, Note_on_c, 0, 64, 39
3, 22560, Note_on_c, 0, 58, 33
3, 22560, Note_on_c, 0, 54, 33
3, 22571, Control_c, 0, 64, 0
3, 23040, Note_on_c, 0, 54, 0
3, 23040, Note_on_c, 0, 58, 0
3, 23040, Note_on_c, 0, 64, 0
3, 23040, Note_on_c, 0, 47, 50
3, 23238, Control_c, 0, 64, 127
3, 23520, Note_on_c, 0, 47, 0
3, 23520, Note_on_c, 0, 62, 31
3, 23520, Note_on_c, 0, 59, 26
3, 23520, Note_on_c, 0, 54, 26
3, 24000, Note_on_c, 0, 54, 0
3, 24000, Note_on_c, 0, 59, 0
3, 24000, Note_on_c, 0, 62, 0
3, 24004, Control_c, 0, 64, 0
3, 24480, Note_on_c, 0, 59, 38
3, 24480, Note_on_c, 0, 65, 43
3, 24960, Note_on_c, 0, 65, 0
3, 24960, Note_on_c, 0, 59, 0
3, 24960, Note_on_c, 0, 60, 34
3, 24960, Note_on_c, 0, 64, 38
3, 25440, Note_on_c, 0, 64, 0
3, 25440, Note_on_c, 0, 60, 0
3, 25440, Note_on_c, 0, 60, 34
3, 25440, Note_on_c, 0, 64, 38
3, 25920, Note_on_c, 0, 64, 0
3, 25920, Note_on_c, 0, 60, 0
3, 25920, Note_on_c, 0, 55, 41
3, 25920, Note_on_c, 0, 59, 41
3, 25920, Note_on_c, 0, 65, 46
3, 26400, Note_on_c, 0, 65, 0
3, 26400, Note_on_c, 0, 59, 0
3, 26400, Note_on_c, 0, 55, 0
3, 26400, Note_on_c, 0, 55, 34
3, 26400, Note_on_c, 0, 59, 34
3, 26400, Note_on_c, 0, 65, 38
3, 26880, Note_on_c, 0, 65, 0
3, 26880, Note_on_c, 0, 59, 0
3, 26880, Note_on_c, 0, 55, 0
3, 26880, Note_on_c, 0, 60, 34
3, 26880, Note_on_c, 0, 64, 38
3, 27360, Note_on_c, 0, 64, 0
3, 27360, Note_on_c, 0, 60, 0
3, 27360, Note_on_c, 0, 59, 38
3, 27360, Note_on_c, 0, 65, 43
3, 27840, Note_on_c, 0, 65, 0
3, 27840, Note_on_c, 0, 59, 0
3, 27840, Note_on_c, 0, 60, 34
3, 27840, Note_on_c, 0, 64, 38
3, 28320, Note_on_c, 0, 64, 0
3, 28320, Note_on_c, 0, 60, 0
3, 28320, Note_on_c, 0, 60, 34
3, 28320, Note_on_c, 0, 64, 38
3, 28800, Note_on_c, 0, 64, 0
3, 28800, Note_on_c, 0, 60, 0
3, 28800, Note_on_c, 0, 55, 41
3, 28800, Note_on_c, 0, 59, 41
3, 28800, Note_on_c, 0, 65, 46
3, 29280, Note_on_c, 0, 65, 0
3, 29280, Note_on_c, 0, 59, 0
3, 29280, Note_on_c, 0, 55, 0
3, 29280, Note_on_c, 0, 55, 33
3, 29280, Note_on_c, 0, 59, 33
3, 29280, Note_on_c, 0, 65, 37
3, 29760, Note_on_c, 0, 65, 0
3, 29760, Note_on_c, 0, 59, 0
3, 29760, Note_on_c, 0, 55, 0
3, 29760, Note_on_c, 0, 60, 32
3, 29760, Note_on_c, 0, 64, 36
3, 30240, Note_on_c, 0, 64, 0
3, 30240, Note_on_c, 0, 60, 0
3, 30240, Note_on_c, 0, 55, 38
3, 30240, Note_on_c, 0, 59, 38
3, 30240, Note_on_c, 0, 65, 43
3, 30720, Note_on_c, 0, 65, 0
3, 30720, Note_on_c, 0, 59, 0
3, 30720, Note_on_c, 0, 55, 0
3, 30720, Note_on_c, 0, 60, 31
3, 30720, Note_on_c, 0, 64, 34
3, 31200, Note_on_c, 0, 64, 0
3, 31200, Note_on_c, 0, 60, 0
3, 31200, Note_on_c, 0, 55, 36
3, 31200, Note_on_c, 0, 59, 36
3, 31200, Note_on_c, 0, 65, 41
3, 31680, Note_on_c, 0, 65, 0
3, 31680, Note_on_c, 0, 59, 0
3, 31680, Note_on_c, 0, 55, 0
3, 31680, Note_on_c, 0, 60, 29
3, 31680, Note_on_c, 0, 64, 29
3, 32160, Note_on_c, 0, 64, 0
3, 32160, Note_on_c, 0, 60, 0
3, 32160, Note_on_c, 0, 55, 35
3, 32160, Note_on_c, 0, 59, 35
3, 32160, Note_on_c, 0, 65, 39
3, 32640, Note_on_c, 0, 65, 0
3, 32640, Note_on_c, 0, 59, 0
3, 32640, Note_on_c, 0, 55, 0
3, 32640, Note_on_c, 0, 60, 28
3, 32640, Note_on_c, 0, 64, 31
3, 33120, Note_on_c, 0, 64, 0
3, 33120, Note_on_c, 0, 60, 0
3, 33120, Note_on_c, 0, 55, 52
3, 34560, Note_on_c, 0, 55, 0
3, 34560, Note_on_c, 0, 54, 48
3, 36000, Note_on_c, 0, 54, 0
3, 36000, Note_on_c, 0, 35, 46
3, 36000, Note_on_c, 0, 47, 50
3, 36088, Control_c, 0, 64, 127
3, 36480, Note_on_c, 0, 47, 0
3, 36480, Note_on_c, 0, 35, 0
3, 36480, Note_on_c, 0, 64, 40
3, 36480, Note_on_c, 0, 59, 34
3, 36480, Note_on_c, 0, 55, 34
3, 36960, Note_on_c, 0, 55, 0
3, 36960, Note_on_c, 0, 59, 0
3, 36960, Note_on_c, 0, 64, 0
3, 36960, Note_on_c, 0, 64, 39
3, 36960, Note_on_c, 0, 59, 33
3, 36960, Note_on_c, 0, 55, 33
3, 37440, Note_on_c, 0, 55, 0
3, 37440, Note_on_c, 0, 59, 0
3, 37440, Note_on_c, 0, 64, 0
3, 37440, Note_on_c, 0, 47, 50
3, 37451, Control_c, 0, 64, 0
3, 37638, Control_c, 0, 64, 127
3, 37920, Note_on_c, 0, 47, 0
3, 37920, Note_on_c, 0, 62, 31
3, 37920, Note_on_c, 0, 59, 26
3, 37920, Note_on_c, 0, 54, 26
3, 38400, Note_on_c, 0, 54, 0
3, 38400, Note_on_c, 0, 59, 0
3, 38400, Note_on_c, 0, 62, 0
3, 38400, Note_on_c, 0, 62, 31
3, 38400, Note_on_c, 0, 59, 26
3, 38400, Note_on_c, 0, 54, 26
3, 38880, Note_on_c, 0, 54, 0
3, 38880, Note_on_c, 0, 59, 0
3, 38880, Note_on_c, 0, 62, 0
3, 38880, Note_on_c, 0, 47, 50
3, 38887, Control_c, 0, 64, 0
3, 38926, Control_c, 0, 64, 127
3, 39360, Note_on_c, 0, 47, 0
3, 39360, Note_on_c, 0, 64, 40
3, 39360, Note_on_c, 0, 58, 34
3, 39360, Note_on_c, 0, 54, 34
3, 39840, Note_on_c, 0, 54, 0
3, 39840, Note_on_c, 0, 58, 0
3, 39840, Note_on_c, 0, 64, 0
3, 39840, Note_on_c, 0, 64, 39
3, 39840, Note_on_c, 0, 58, 33
3, 39840, Note_on_c, 0, 54, 33
3, 39853, Control_c, 0, 64, 0
3, 40320, Note_on_c, 0, 54, 0
3, 40320, Note_on_c, 0, 58, 0
3, 40320, Note_on_c, 0, 64, 0
3, 40320, Note_on_c, 0, 47, 50
3, 40518, Control_c, 0, 64, 127
3, 40800, Note_on_c, 0, 47, 0
3, 40800, Note_on_c, 0, 62, 31
3, 40800, Note_on_c, 0, 59, 26
3, 40800, Note_on_c, 0, 54, 26
3, 41280, Note_on_c, 0, 54, 0
3, 41280, Note_on_c, 0, 59, 0
3, 41280, Note_on_c, 0, 62, 0
3, 41280, Note_on_c, 0, 62, 31
3, 41280, Note_on_c, 0, 59, 26
3, 41280, Note_on_c, 0, 54, 26
3, 41760, Note_on_c, 0, 54, 0
3, 41760, Note_on_c, 0, 59, 0
3, 41760, Note_on_c, 0, 62, 0
3, 41760, Control_c, 0, 64, 0
3, 41760, Note_on_c, 0, 37, 50
3, 41806, Control_c, 0, 64, 127
3, 42240, Note_on_c, 0, 37, 0
3, 42240, Note_on_c, 0, 59, 40
3, 42240, Note_on_c, 0, 53, 34
3, 42240, Note_on_c, 0, 49, 34
3, 42261, Control_c, 0, 64, 0
3, 42360, Control_c, 0, 64, 127
3, 42720, Note_on_c, 0, 49, 0
3, 42720, Note_on_c, 0, 53, 0
3, 42720, Note_on_c, 0, 59, 0
3, 42720, Note_on_c, 0, 59, 39
3, 42720, Note_on_c, 0, 53, 33
3, 42720, Note_on_c, 0, 49, 33
3, 42732, Control_c, 0, 64, 0
3, 43200, Note_on_c, 0, 49, 0
3, 43200, Note_on_c, 0, 53, 0
3, 43200, Note_on_c, 0, 59, 0
3, 43200, Note_on_c, 0, 42, 50
3, 43398, Control_c, 0, 64, 127
3, 43680, Note_on_c, 0, 42, 0
3, 43680, Note_on_c, 0, 57, 37
3, 43680, Note_on_c, 0, 49, 31
3, 44160, Note_on_c, 0, 49, 0
3, 44160, Note_on_c, 0, 57, 0
3, 44177, Control_c, 0, 64, 0
3, 47520, Note_on_c, 0, 49, 47
3, 47520, Note_on_c, 0, 56, 58
3, 48000, Note_on_c, 0, 56, 0
3, 48000, Note_on_c, 0, 54, 55
3, 48480, Note_on_c, 0, 54, 0
3, 48480, Note_on_c, 0, 57, 55
3, 48960, Note_on_c, 0, 57, 0
3, 48960, Note_on_c, 0, 49, 0
3, 48960, Note_on_c, 0, 49, 47
3, 48960, Note_on_c, 0, 56, 57
3, 49200, Note_on_c, 0, 56, 0
3, 49200, Note_on_c, 0, 54, 51
3, 49440, Note_on_c, 0, 54, 0
3, 49440, Note_on_c, 0, 57, 56
3, 49920, Note_on_c, 0, 57, 0
3, 49920, Note_on_c, 0, 57, 54
3, 50400, Note_on_c, 0, 57, 0
3, 50400, Note_on_c, 0, 49, 0
3, 50400, Note_on_c, 0, 49, 47
3, 50400, Note_on_c, 0, 56, 57
3, 50880, Note_on_c, 0, 56, 0
3, 50880, Note_on_c, 0, 54, 56
3, 50961, Control_c, 0, 64, 127
3, 51360, Note_on_c, 0, 54, 0
3, 51360, Note_on_c, 0, 58, 54
3, 51840, Note_on_c, 0, 58, 0
3, 51840, Note_on_c, 0, 49, 0
3, 51840, Note_on_c, 0, 49, 47
3, 51840, Note_on_c, 0, 56, 57
3, 51847, Control_c, 0, 64, 0
3, 52080, Note_on_c, 0, 56, 0
3, 52080, Note_on_c, 0, 54, 51
3, 52320, Note_on_c, 0, 49, 0
3, 52320, Note_on_c, 0, 42, 47
3, 52352, Control_c, 0, 64, 127
3, 52800, Note_on_c, 0, 54, 0
3, 52811, Control_c, 0, 64, 0
3, 53280, Note_on_c, 0, 42, 0
3, 53280, Note_on_c, 0, 47, 50
3, 53354, Control_c, 0, 64, 127
3, 53760, Note_on_c, 0, 47, 0
3, 53760, Note_on_c, 0, 64, 40
3, 53760, Note_on_c, 0, 59, 34
3, 53760, Note_on_c, 0, 55, 34
3, 54240, Note_on_c, 0, 55, 0
3, 54240, Note_on_c, 0, 59, 0
3, 54240, Note_on_c, 0, 64, 0
3, 54240, Note_on_c, 0, 64, 39
3, 54240, Note_on_c, 0, 59, 33
3, 54240, Note_on_c, 0, 55, 33
3, 54720, Note_on_c, 0, 55, 0
3, 54720, Note_on_c, 0, 59, 0
3, 54720, Note_on_c, 0, 64, 0
3, 54720, Note_on_c, 0, 47, 50
3, 54727, Control_c, 0, 64, 0
3, 54918, Control_c, 0, 64, 127
3, 55200, Note_on_c, 0, 47, 0
3, 55200, Note_on_c, 0, 62, 31
3, 55200, Note_on_c, 0, 59, 26
3, 55200, Note_on_c, 0, 54, 26
3, 55680, Note_on_c, 0, 54, 0
3, 55680, Note_on_c, 0, 59, 0
3, 55680, Note_on_c, 0, 62, 0
3, 55680, Note_on_c, 0, 62, 31
3, 55680, Note_on_c, 0, 59, 26
3, 55680, Note_on_c, 0, 54, 26
3, 56160, Note_on_c, 0, 54, 0
3, 56160, Note_on_c, 0, 59, 0
3, 56160, Note_on_c, 0, 62, 0
3, 56160, Note_on_c, 0, 47, 50
3, 56169, Control_c, 0, 64, 0
3, 56245, Control_c, 0, 64, 127
3, 56640, Note_on_c, 0, 47, 0
3, 56640, Note_on_c, 0, 64, 40
3, 56640, Note_on_c, 0, 58, 34
3, 56640, Note_on_c, 0, 54, 34
3, 57120, Note_on_c, 0, 54, 0
3, 57120, Note_on_c, 0, 58, 0
3, 57120, Note_on_c, 0, 64, 0
3, 57120, Note_on_c, 0, 64, 39
3, 57120, Note_on_c, 0, 58, 33
3, 57120, Note_on_c, 0, 54, 33
3, 57134, Control_c, 0, 64, 0
3, 57600, Note_on_c, 0, 54, 0
3, 57600, Note_on_c, 0, 58, 0
3, 57600, Note_on_c, 0, 64, 0
3, 57600, Note_on_c, 0, 47, 50
3, 57798, Control_c, 0, 64, 127
3, 58080, Note_on_c, 0, 47, 0
3, 58080, Note_on_c, 0, 62, 31
3, 58080, Note_on_c, 0, 59, 26
3, 58080, Note_on_c, 0, 54, 26
3, 58504, Control_c, 0, 64, 0
3, 58560, Note_on_c, 0, 54, 0
3, 58560, Note_on_c, 0, 59, 0
3, 58560, Note_on_c, 0, 62, 0
3, 59040, Note_on_c, 0, 59, 38
3, 59040, Note_on_c, 0, 65, 43
3, 59520, Note_on_c, 0, 65, 0
3, 59520, Note_on_c, 0, 59, 0
3, 59520, Note_on_c, 0, 60, 34
3, 59520, Note_on_c, 0, 64, 38
3, 60000, Note_on_c, 0, 64, 0
3, 60000, Note_on_c, 0, 60, 0
3, 60000, Note_on_c, 0, 60, 34
3, 60000, Note_on_c, 0, 64, 38
3, 60480, Note_on_c, 0, 64, 0
3, 60480, Note_on_c, 0, 60, 0
3, 60480, Note_on_c, 0, 55, 41
3, 60480, Note_on_c, 0, 59, 41
3, 60480, Note_on_c, 0, 65, 46
3, 60960, Note_on_c, 0, 65, 0
3, 60960, Note_on_c, 0, 59, 0
3, 60960, Note_on_c, 0, 55, 0
3, 60960, Note_on_c, 0, 55, 34
3, 60960, Note_on_c, 0, 59, 34
3, 60960, Note_on_c, 0, 65, 38
3, 61440, Note_on_c, 0, 65, 0
3, 61440, Note_on_c, 0, 59, 0
3, 61440, Note_on_c, 0, 55, 0
3, 61440, Note_on_c, 0, 60, 34
3, 61440, Note_on_c, 0, 64, 38
3, 61920, Note_on_c, 0, 64, 0
3, 61920, Note_on_c, 0, 60, 0
3, 61920, Note_on_c, 0, 59, 38
3, 61920, Note_on_c, 0, 65, 43
3, 62400, Note_on_c, 0, 65, 0
3, 62400, Note_on_c, 0, 59, 0
3, 62400, Note_on_c, 0, 60, 34
3, 62400, Note_on_c, 0, 64, 38
3, 62880, Note_on_c, 0, 64, 0
3, 62880, Note_on_c, 0, 60, 0
3, 62880, Note_on_c, 0, 60, 34
3, 62880, Note_on_c, 0, 64, 38
3, 63360, Note_on_c, 0, 64, 0
3, 63360, Note_on_c, 0, 60, 0
3, 63360, Note_on_c, 0, 55, 41
3, 63360, Note_on_c, 0, 59, 41
3, 63360, Note_on_c, 0, 65, 46
3, 63840, Note_on_c, 0, 65, 0
3, 63840, Note_on_c, 0, 59, 0
3, 63840, Note_on_c, 0, 55, 0
3, 63840, Note_on_c, 0, 55, 33
3, 63840, Note_on_c, 0, 59, 33
3, 63840, Note_on_c, 0, 65, 37
3, 64320, Note_on_c, 0, 65, 0
3, 64320, Note_on_c, 0, 59, 0
3, 64320, Note_on_c, 0, 55, 0
3, 64320, Note_on_c, 0, 60, 32
3, 64320, Note_on_c, 0, 64, 36
3, 64800, Note_on_c, 0, 64, 0
3, 64800, Note_on_c, 0, 60, 0
3, 64800, Note_on_c, 0, 55, 38
3, 64800, Note_on_c, 0, 59, 38
3, 64800, Note_on_c, 0, 65, 43
3, 65280, Note_on_c, 0, 65, 0
3, 65280, Note_on_c, 0, 59, 0
3, 65280, Note_on_c, 0, 55, 0
3, 65280, Note_on_c, 0, 60, 31
3, 65280, Note_on_c, 0, 64, 34
3, 65760, Note_on_c, 0, 64, 0
3, 65760, Note_on_c, 0, 60, 0
3, 65760, Note_on_c, 0, 55, 36
3, 65760, Note_on_c, 0, 59, 36
3, 65760, Note_on_c, 0, 65, 41
3, 66240, Note_on_c, 0, 65, 0
3, 66240, Note_on_c, 0, 59, 0
3, 66240, Note_on_c, 0, 55, 0
3, 66240, Note_on_c, 0, 60, 29
3, 66240, Note_on_c, 0, 64, 29
3, 66720, Note_on_c, 0, 64, 0
3, 66720, Note_on_c, 0, 60, 0
3, 66720, Note_on_c, 0, 55, 35
3, 66720, Note_on_c, 0, 59, 35
3, 66720, Note_on_c, 0, 65, 39
3, 67200, Note_on_c, 0, 65, 0
3, 67200, Note_on_c, 0, 59, 0
3, 67200, Note_on_c, 0, 55, 0
3, 67200, Note_on_c, 0, 60, 28
3, 67200, Note_on_c, 0, 64, 31
3, 67680, Note_on_c, 0, 64, 0
3, 67680, Note_on_c, 0, 60, 0
3, 67680, Note_on_c, 0, 55, 52
3, 69120, Note_on_c, 0, 55, 0
3, 69120, Note_on_c, 0, 54, 59
3, 70080, Note_on_c, 0, 54, 0
3, 70080, Note_on_c, 0, 53, 62
3, 70560, Note_on_c, 0, 53, 0
3, 70560, Note_on_c, 0, 34, 74
3, 70659, Control_c, 0, 64, 127
3, 70800, Note_on_c, 0, 34, 0
3, 71040, Note_on_c, 0, 53, 54
3, 71040, Note_on_c, 0, 62, 64
3, 71040, Note_on_c, 0, 58, 54
3, 71520, Note_on_c, 0, 58, 0
3, 71520, Note_on_c, 0, 62, 0
3, 71520, Note_on_c, 0, 53, 0
3, 71520, Note_on_c, 0, 63, 64
3, 71520, Note_on_c, 0, 58, 64
3, 71520, Note_on_c, 0, 54, 64
3, 71539, Control_c, 0, 64, 0
3, 71690, Control_c, 0, 64, 127
3, 72000, Note_on_c, 0, 54, 0
3, 72000, Note_on_c, 0, 58, 0
3, 72000, Note_on_c, 0, 63, 0
3, 72000, Note_on_c, 0, 46, 73
3, 72008, Control_c, 0, 64, 0
3, 72097, Control_c, 0, 64, 127
3, 72240, Note_on_c, 0, 46, 0
3, 72480, Note_on_c, 0, 65, 68
3, 72480, Note_on_c, 0, 62, 57
3, 72480, Note_on_c, 0, 58, 57
3, 72960, Note_on_c, 0, 53, 68
3, 72972, Control_c, 0, 64, 0
3, 73440, Note_on_c, 0, 53, 0
3, 73440, Note_on_c, 0, 65, 0
3, 73440, Note_on_c, 0, 62, 0
3, 73440, Note_on_c, 0, 58, 0
3, 73440, Note_on_c, 0, 34, 72
3, 73560, Control_c, 0, 64, 127
3, 73680, Note_on_c, 0, 34, 0
3, 73920, Note_on_c, 0, 53, 54
3, 73920, Note_on_c, 0, 62, 64
3, 73920, Note_on_c, 0, 58, 54
3, 74400, Note_on_c, 0, 58, 0
3, 74400, Note_on_c, 0, 62, 0
3, 74400, Note_on_c, 0, 53, 0
3, 74400, Note_on_c, 0, 63, 64
3, 74400, Note_on_c, 0, 58, 64
3, 74400, Note_on_c, 0, 54, 64
3, 74408, Control_c, 0, 64, 0
3, 74541, Control_c, 0, 64, 127
3, 74880, Note_on_c, 0, 54, 0
3, 74880, Note_on_c, 0, 58, 0
3, 74880, Note_on_c, 0, 63, 0
3, 74880, Note_on_c, 0, 46, 73
3, 74886, Control_c, 0, 64, 0
3, 74977, Control_c, 0, 64, 127
3, 75120, Note_on_c, 0, 46, 0
3, 75360, Note_on_c, 0, 65, 68
3, 75360, Note_on_c, 0, 62, 57
3, 75360, Note_on_c, 0, 58, 57
3, 75840, Note_on_c, 0, 53, 68
3, 75852, Control_c, 0, 64, 0
3, 76320, Note_on_c, 0, 53, 0
3, 76320, Note_on_c, 0, 65, 0
3, 76320, Note_on_c, 0, 62, 0
3, 76320, Note_on_c, 0, 58, 0
3, 76320, Note_on_c, 0, 34, 79
3, 76419, Control_c, 0, 64, 127
3, 76560, Note_on_c, 0, 34, 0
3, 76800, Note_on_c, 0, 53, 54
3, 76800, Note_on_c, 0, 62, 64
3, 76800, Note_on_c, 0, 58, 54
3, 77280, Note_on_c, 0, 58, 0
3, 77280, Note_on_c, 0, 62, 0
3, 77280, Note_on_c, 0, 53, 0
3, 77280, Note_on_c, 0, 63, 64
3, 77280, Note_on_c, 0, 58, 64
3, 77280, Note_on_c, 0, 54, 64
3, 77289, Control_c, 0, 64, 0
3, 77421, Control_c, 0, 64, 127
3, 77760, Note_on_c, 0, 54, 0
3, 77760, Note_on_c, 0, 58, 0
3, 77760, Note_on_c, 0, 63, 0
3, 77760, Note_on_c, 0, 46, 73
3, 77770, Control_c, 0, 64, 0
3, 77857, Control_c, 0, 64, 127
3, 78000, Note_on_c, 0, 46, 0
3, 78240, Note_on_c, 0, 65, 68
3, 78240, Note_on_c, 0, 62, 57
3, 78240, Note_on_c, 0, 58, 57
3, 78720, Note_on_c, 0, 53, 68
3, 78732, Control_c, 0, 64, 0
3, 79200, Note_on_c, 0, 53, 0
3, 79200, Note_on_c, 0, 65, 0
3, 79200, Note_on_c, 0, 62, 0
3, 79200, Note_on_c, 0, 58, 0
3, 79200, Note_on_c, 0, 46, 72
3, 79200, Note_on_c, 0, 34, 69
3, 79320, Control_c, 0, 64, 127
3, 79440, Note_on_c, 0, 34, 0
3, 79440, Note_on_c, 0, 46, 0
3, 79680, Note_on_c, 0, 53, 54
3, 79680, Note_on_c, 0, 62, 64
3, 79680, Note_on_c, 0, 58, 54
3, 80160, Note_on_c, 0, 58, 0
3, 80160, Note_on_c, 0, 62, 0
3, 80160, Note_on_c, 0, 53, 0
3, 80160, Note_on_c, 0, 63, 64
3, 80160, Note_on_c, 0, 58, 64
3, 80160, Note_on_c, 0, 54, 64
3, 80177, Control_c, 0, 64, 0
3, 80316, Control_c, 0, 64, 127
3, 80640, Note_on_c, 0, 54, 0
3, 80640, Note_on_c, 0, 58, 0
3, 80640, Note_on_c, 0, 63, 0
3, 80640, Note_on_c, 0, 46, 73
3, 80648, Control_c, 0, 64, 0
3, 80737, Control_c, 0, 64, 127
3, 80880, Note_on_c, 0, 46, 0
3, 81120, Note_on_c, 0, 65, 68
3, 81120, Note_on_c, 0, 62, 57
3, 81120, Note_on_c, 0, 58, 57
3, 81600, Note_on_c, 0, 53, 68
3, 81612, Control_c, 0, 64, 0
3, 82080, Note_on_c, 0, 53, 0
3, 82080, Note_on_c, 0, 65, 0
3, 82080, Note_on_c, 0, 62, 0
3, 82080, Note_on_c, 0, 58, 0
3, 82080, Note_on_c, 0, 39, 81
3, 82179, Control_c, 0, 64, 127
3, 82320, Note_on_c, 0, 39, 0
3, 82560, Note_on_c, 0, 58, 54
3, 82560, Note_on_c, 0, 67, 64
3, 82560, Note_on_c, 0, 63, 54
3, 83040, Note_on_c, 0, 63, 0
3, 83040, Note_on_c, 0, 67, 0
3, 83040, Note_on_c, 0, 58, 0
3, 83040, Note_on_c, 0, 68, 64
3, 83040, Note_on_c, 0, 63, 64
3, 83040, Note_on_c, 0, 59, 64
3, 83051, Control_c, 0, 64, 0
3, 83196, Control_c, 0, 64, 127
3, 83520, Note_on_c, 0, 59, 0
3, 83520, Note_on_c, 0, 63, 0
3, 83520, Note_on_c, 0, 68, 0
3, 83520, Control_c, 0, 64, 0
3, 83520, Note_on_c, 0, 51, 73
3, 83617, Control_c, 0, 64, 127
3, 83760, Note_on_c, 0, 51, 0
3, 84000, Note_on_c, 0, 67, 68
3, 84000, Note_on_c, 0, 63, 57
3, 84000, Note_on_c, 0, 58, 57
3, 84480, Note_on_c, 0, 58, 0
3, 84480, Note_on_c, 0, 63, 0
3, 84480, Note_on_c, 0, 67, 0
3, 84480, Note_on_c, 0, 51, 68
3, 84496, Control_c, 0, 64, 0
3, 84960, Note_on_c, 0, 51, 0
3, 84960, Note_on_c, 0, 39, 73
3, 85080, Control_c, 0, 64, 127
3, 85200, Note_on_c, 0, 39, 0
3, 85440, Note_on_c, 0, 58, 54
3, 85440, Note_on_c, 0, 67, 64
3, 85440, Note_on_c, 0, 63, 54
3, 85920, Note_on_c, 0, 63, 0
3, 85920, Note_on_c, 0, 67, 0
3, 85920, Note_on_c, 0, 58, 0
3, 85920, Note_on_c, 0, 68, 64
3, 85920, Note_on_c, 0, 63, 64
3, 85920, Note_on_c, 0, 59, 64
3, 85930, Control_c, 0, 64, 0
3, 86076, Control_c, 0, 64, 127
3, 86400, Note_on_c, 0, 59, 0
3, 86400, Note_on_c, 0, 63, 0
3, 86400, Note_on_c, 0, 68, 0
3, 86400, Note_on_c, 0, 51, 73
3, 86407, Control_c, 0, 64, 0
3, 86497, Control_c, 0, 64, 127
3, 86640, Note_on_c, 0, 51, 0
3, 86880, Note_on_c, 0, 70, 68
3, 86880, Note_on_c, 0, 67, 57
3, 86880, Note_on_c, 0, 61, 57
3, 87360, Note_on_c, 0, 61, 0
3, 87360, Note_on_c, 0, 67, 0
3, 87360, Note_on_c, 0, 70, 0
3, 87360, Note_on_c, 0, 51, 68
3, 87377, Control_c, 0, 64, 0
3, 87840, Note_on_c, 0, 51, 0
3, 87840, Note_on_c, 0, 39, 73
3, 87896, Control_c, 0, 64, 127
3, 88080, Note_on_c, 0, 39, 0
3, 88320, Note_on_c, 0, 61, 65
3, 88800, Note_on_c, 0, 61, 0
3, 88800, Note_on_c, 0, 62, 57
3, 88816, Control_c, 0, 64, 0
3, 89280, Note_on_c, 0, 62, 0
3, 89280, Note_on_c, 0, 63, 59
3, 89760, Note_on_c, 0, 63, 0
3, 89760, Note_on_c, 0, 64, 57
3, 90240, Note_on_c, 0, 64, 0
3, 90240, Note_on_c, 0, 65, 54
3, 90720, Note_on_c, 0, 65, 0
3, 90720, Note_on_c, 0, 66, 52
3, 91200, Note_on_c, 0, 66, 0
3, 91200, Note_on_c, 0, 54, 59
3, 91620, Note_on_c, 0, 54, 0
3, 91620, Note_on_c, 0, 57, 60
3, 91680, Note_on_c, 0, 57, 0
3, 91680, Note_on_c, 0, 55, 68
3, 92160, Note_on_c, 0, 55, 0
3, 92160, Note_on_c, 0, 54, 62
3, 92640, Note_on_c, 0, 54, 0
3, 92640, Note_on_c, 0, 49, 55
3, 93120, Note_on_c, 0, 49, 0
3, 93120, Note_on_c, 0, 50, 54
3, 93600, Note_on_c, 0, 50, 0
3, 93600, Note_on_c, 0, 47, 50
3, 93660, Control_c, 0, 64, 127
3, 94080, Note_on_c, 0, 47, 0
3, 94080, Note_on_c, 0, 64, 40
3, 94080, Note_on_c, 0, 59, 34
3, 94080, Note_on_c, 0, 55, 34
3, 94560, Note_on_c, 0, 55, 0
3, 94560, Note_on_c, 0, 59, 0
3, 94560, Note_on_c, 0, 64, 0
3, 94560, Note_on_c, 0, 64, 39
3, 94560, Note_on_c, 0, 59, 33
3, 94560, Note_on_c, 0, 55, 33
3, 95040, Note_on_c, 0, 55, 0
3, 95040, Note_on_c, 0, 59, 0
3, 95040, Note_on_c, 0, 64, 0
3, 95040, Note_on_c, 0, 47, 50
3, 95047, Control_c, 0, 64, 0
3, 95238, Control_c, 0, 64, 127
3, 95520, Note_on_c, 0, 47, 0
3, 95520, Note_on_c, 0, 62, 31
3, 95520, Note_on_c, 0, 59, 26
3, 95520, Note_on_c, 0, 54, 26
3, 96000, Note_on_c, 0, 54, 0
3, 96000, Note_on_c, 0, 59, 0
3, 96000, Note_on_c, 0, 62, 0
3, 96000, Note_on_c, 0, 62, 31
3, 96000, Note_on_c, 0, 59, 26
3, 96000, Note_on_c, 0, 54, 26
3, 96480, Note_on_c, 0, 54, 0
3, 96480, Note_on_c, 0, 59, 0
3, 96480, Note_on_c, 0, 62, 0
3, 96480, Note_on_c, 0, 47, 50
3, 96487, Control_c, 0, 64, 0
3, 96526, Control_c, 0, 64, 127
3, 96960, Note_on_c, 0, 47, 0
3, 96960, Note_on_c, 0, 64, 40
3, 96960, Note_on_c, 0, 58, 34
3, 96960, Note_on_c, 0, 54, 34
3, 97440, Note_on_c, 0, 54, 0
3, 97440, Note_on_c, 0, 58, 0
3, 97440, Note_on_c, 0, 64, 0
3, 97440, Note_on_c, 0, 64, 39
3, 97440, Note_on_c, 0, 58, 33
3, 97440, Note_on_c, 0, 54, 33
3, 97456, Control_c, 0, 64, 0
3, 97920, Note_on_c, 0, 54, 0
3, 97920, Note_on_c, 0, 58, 0
3, 97920, Note_on_c, 0, 64, 0
3, 97920, Note_on_c, 0, 47, 50
3, 98118, Control_c, 0, 64, 127
3, 98400, Note_on_c, 0, 47, 0
3, 98400, Note_on_c, 0, 62, 31
3, 98400, Note_on_c, 0, 59, 26
3, 98400, Note_on_c, 0, 54, 26
3, 98880, Note_on_c, 0, 54, 0
3, 98880, Note_on_c, 0, 59, 0
3, 98880, Note_on_c, 0, 62, 0
3, 98880, Note_on_c, 0, 62, 31
3, 98880, Note_on_c, 0, 59, 26
3, 98880, Note_on_c, 0, 54, 26
3, 99360, Note_on_c, 0, 54, 0
3, 99360, Note_on_c, 0, 59, 0
3, 99360, Note_on_c, 0, 62, 0
3, 99360, Note_on_c, 0, 37, 50
3, 99367, Control_c, 0, 64, 0
3, 99406, Control_c, 0, 64, 127
3, 99840, Note_on_c, 0, 37, 0
3, 99840, Note_on_c, 0, 59, 40
3, 99840, Note_on_c, 0, 53, 34
3, 99840, Note_on_c, 0, 49, 34
3, 99861, Control_c, 0, 64, 0
3, 99960, Control_c, 0, 64, 127
3, 100320, Note_on_c, 0, 49, 0
3, 100320, Note_on_c, 0, 53, 0
3, 100320, Note_on_c, 0, 59, 0
3, 100320, Note_on_c, 0, 59, 39
3, 100320, Note_on_c, 0, 53, 33
3, 100320, Note_on_c, 0, 49, 33
3, 100336, Control_c, 0, 64, 0
3, 100800, Note_on_c, 0, 49, 0
3, 100800, Note_on_c, 0, 53, 0
3, 100800, Note_on_c, 0, 59, 0
3, 100800, Note_on_c, 0, 42, 50
3, 100998, Control_c, 0, 64, 127
3, 101280, Note_on_c, 0, 42, 0
3, 101280, Note_on_c, 0, 57, 37
3, 101280, Note_on_c, 0, 49, 31
3, 101760, Note_on_c, 0, 49, 0
3, 101760, Note_on_c, 0, 57, 0
3, 101776, Control_c, 0, 64, 0
3, 105120, Note_on_c, 0, 49, 47
3, 105120, Note_on_c, 0, 56, 58
3, 105600, Note_on_c, 0, 56, 0
3, 105600, Note_on_c, 0, 54, 55
3, 105920, Control_c, 0, 64, 127
3, 106080, Note_on_c, 0, 54, 0
3, 106080, Note_on_c, 0, 57, 55
3, 106560, Note_on_c, 0, 57, 0
3, 106560, Note_on_c, 0, 49, 0
3, 106560, Note_on_c, 0, 49, 47
3, 106560, Note_on_c, 0, 56, 57
3, 106575, Control_c, 0, 64, 0
3, 106800, Note_on_c, 0, 56, 0
3, 106800, Note_on_c, 0, 54, 51
3, 107040, Note_on_c, 0, 54, 0
3, 107040, Note_on_c, 0, 57, 56
3, 107520, Note_on_c, 0, 57, 0
3, 107520, Note_on_c, 0, 57, 54
3, 108000, Note_on_c, 0, 57, 0
3, 108000, Note_on_c, 0, 49, 0
3, 108000, Note_on_c, 0, 49, 47
3, 108000, Note_on_c, 0, 56, 57
3, 108480, Note_on_c, 0, 56, 0
3, 108480, Note_on_c, 0, 54, 56
3, 108530, Control_c, 0, 64, 127
3, 108960, Note_on_c, 0, 54, 0
3, 108960, Note_on_c, 0, 58, 54
3, 109440, Note_on_c, 0, 58, 0
3, 109440, Note_on_c, 0, 49, 0
3, 109440, Note_on_c, 0, 49, 47
3, 109440, Note_on_c, 0, 56, 57
3, 109447, Control_c, 0, 64, 0
3, 109680, Note_on_c, 0, 56, 0
3, 109680, Note_on_c, 0, 54, 51
3, 109920, Note_on_c, 0, 49, 0
3, 109920, Note_on_c, 0, 42, 47
3, 109952, Control_c, 0, 64, 127
3, 110400, Note_on_c, 0, 54, 0
3, 110413, Control_c, 0, 64, 0
3, 110880, Note_on_c, 0, 42, 0
3, 110880, Note_on_c, 0, 47, 50
3, 110958, Control_c, 0, 64, 127
3, 111360, Note_on_c, 0, 47, 0
3, 111360, Note_on_c, 0, 64, 40
3, 111360, Note_on_c, 0, 59, 34
3, 111360, Note_on_c, 0, 55, 34
3, 111840, Note_on_c, 0, 55, 0
3, 111840, Note_on_c, 0, 59, 0
3, 111840, Note_on_c, 0, 64, 0
3, 111840, Note_on_c, 0, 64, 39
3, 111840, Note_on_c, 0, 59, 33
3, 111840, Note_on_c, 0, 55, 33
3, 112320, Note_on_c, 0, 55, 0
3, 112320, Note_on_c, 0, 59, 0
3, 112320, Note_on_c, 0, 64, 0
3, 112320, Note_on_c, 0, 47, 50
3, 112333, Control_c, 0, 64, 0
3, 112518, Control_c, 0, 64, 127
3, 112800, Note_on_c, 0, 47, 0
3, 112800, Note_on_c, 0, 62, 31
3, 112800, Note_on_c, 0, 59, 26
3, 112800, Note_on_c, 0, 54, 26
3, 113280, Note_on_c, 0, 54, 0
3, 113280, Note_on_c, 0, 59, 0
3, 113280, Note_on_c, 0, 62, 0
3, 113280, Note_on_c, 0, 62, 31
3, 113280, Note_on_c, 0, 59, 26
3, 113280, Note_on_c, 0, 54, 26
3, 113760, Note_on_c, 0, 54, 0
3, 113760, Note_on_c, 0, 59, 0
3, 113760, Note_on_c, 0, 62, 0
3, 113760, Note_on_c, 0, 47, 50
3, 113767, Control_c, 0, 64, 0
3, 113838, Control_c, 0, 64, 127
3, 114240, Note_on_c, 0, 47, 0
3, 114240, Note_on_c, 0, 64, 40
3, 114240, Note_on_c, 0, 58, 34
3, 114240, Note_on_c, 0, 54, 34
3, 114720, Note_on_c, 0, 54, 0
3, 114720, Note_on_c, 0, 58, 0
3, 114720, Note_on_c, 0, 64, 0
3, 114720, Note_on_c, 0, 64, 39
3, 114720, Note_on_c, 0, 58, 33
3, 114720, Note_on_c, 0, 54, 33
3, 114734, Control_c, 0, 64, 0
3, 115200, Note_on_c, 0, 54, 0
3, 115200, Note_on_c, 0, 58, 0
3, 115200, Note_on_c, 0, 64, 0
3, 115200, Note_on_c, 0, 47, 50
3, 115398, Control_c, 0, 64, 127
3, 115680, Note_on_c, 0, 47, 0
3, 115680, Note_on_c, 0, 62, 31
3, 115680, Note_on_c, 0, 59, 26
3, 115680, Note_on_c, 0, 54, 26
3, 116160, Note_on_c, 0, 54, 0
3, 116160, Note_on_c, 0, 59, 0
3, 116160, Note_on_c, 0, 62, 0
3, 116164, Control_c, 0, 64, 0
3, 116640, Note_on_c, 0, 59, 38
3, 116640, Note_on_c, 0, 65, 43
3, 117120, Note_on_c, 0, 65, 0
3, 117120, Note_on_c, 0, 59, 0
3, 117120, Note_on_c, 0, 60, 34
3, 117120, Note_on_c, 0, 64, 38
3, 117600, Note_on_c, 0, 64, 0
3, 117600, Note_on_c, 0, 60, 0
3, 117600, Note_on_c, 0, 60, 34
3, 117600, Note_on_c, 0, 64, 38
3, 118080, Note_on_c, 0, 64, 0
3, 118080, Note_on_c, 0, 60, 0
3, 118080, Note_on_c, 0, 55, 41
3, 118080, Note_on_c, 0, 59, 41
3, 118080, Note_on_c, 0, 65, 46
3, 118560, Note_on_c, 0, 65, 0
3, 118560, Note_on_c, 0, 59, 0
3, 118560, Note_on_c, 0, 55, 0
3, 118560, Note_on_c, 0, 55, 34
3, 118560, Note_on_c, 0, 59, 34
3, 118560, Note_on_c, 0, 65, 38
3, 119040, Note_on_c, 0, 65, 0
3, 119040, Note_on_c, 0, 59, 0
3, 119040, Note_on_c, 0, 55, 0
3, 119040, Note_on_c, 0, 60, 34
3, 119040, Note_on_c, 0, 64, 38
3, 119520, Note_on_c, 0, 64, 0
3, 119520, Note_on_c, 0, 60, 0
3, 119520, Note_on_c, 0, 59, 38
3, 119520, Note_on_c, 0, 65, 43
3, 120000, Note_on_c, 0, 65, 0
3, 120000, Note_on_c, 0, 59, 0
3, 120000, Note_on_c, 0, 60, 34
3, 120000, Note_on_c, 0, 64, 38
3, 120480, Note_on_c, 0, 64, 0
3, 120480, Note_on_c, 0, 60, 0
3, 120480, Note_on_c, 0, 60, 34
3, 120480, Note_on_c, 0, 64, 38
3, 120960, Note_on_c, 0, 64, 0
3, 120960, Note_on_c, 0, 60, 0
3, 120960, Note_on_c, 0, 55, 41
3, 120960, Note_on_c, 0, 59, 41
3, 120960, Note_on_c, 0, 65, 46
3, 121440, Note_on_c, 0, 65, 0
3, 121440, Note_on_c, 0, 59, 0
3, 121440, Note_on_c, 0, 55, 0
3, 121440, Note_on_c, 0, 55, 33
3, 121440, Note_on_c, 0, 59, 33
3, 121440, Note_on_c, 0, 65, 37
3, 121920, Note_on_c, 0, 65, 0
3, 121920, Note_on_c, 0, 59, 0
3, 121920, Note_on_c, 0, 55, 0
3, 121920, Note_on_c, 0, 60, 32
3, 121920, Note_on_c, 0, 64, 36
3, 122400, Note_on_c, 0, 64, 0
3, 122400, Note_on_c, 0, 60, 0
3, 122400, Note_on_c, 0, 55, 38
3, 122400, Note_on_c, 0, 59, 38
3, 122400, Note_on_c, 0, 65, 43
3, 122880, Note_on_c, 0, 65, 0
3, 122880, Note_on_c, 0, 59, 0
3, 122880, Note_on_c, 0, 55, 0
3, 122880, Note_on_c, 0, 60, 31
3, 122880, Note_on_c, 0, 64, 34
3, 123360, Note_on_c, 0, 64, 0
3, 123360, Note_on_c, 0, 60, 0
3, 123360, Note_on_c, 0, 55, 36
3, 123360, Note_on_c, 0, 59, 36
3, 123360, Note_on_c, 0, 65, 41
3, 123840, Note_on_c, 0, 65, 0
3, 123840, Note_on_c, 0, 59, 0
3, 123840, Note_on_c, 0, 55, 0
3, 123840, Note_on_c, 0, 60, 29
3, 123840, Note_on_c, 0, 64, 29
3, 124320, Note_on_c, 0, 64, 0
3, 124320, Note_on_c, 0, 60, 0
3, 124320, Note_on_c, 0, 55, 35
3, 124320, Note_on_c, 0, 59, 35
3, 124320, Note_on_c, 0, 65, 39
3, 124800, Note_on_c, 0, 65, 0
3, 124800, Note_on_c, 0, 59, 0
3, 124800, Note_on_c, 0, 55, 0
3, 124800, Note_on_c, 0, 60, 28
3, 124800, Note_on_c, 0, 64, 31
3, 125280, Note_on_c, 0, 64, 0
3, 125280, Note_on_c, 0, 60, 0
3, 125280, Note_on_c, 0, 55, 52
3, 126720, Note_on_c, 0, 55, 0
3, 126720, Note_on_c, 0, 54, 48
3, 128160, Note_on_c, 0, 54, 0
3, 128160, Note_on_c, 0, 35, 46
3, 128160, Note_on_c, 0, 47, 50
3, 128248, Control_c, 0, 64, 127
3, 128640, Note_on_c, 0, 47, 0
3, 128640, Note_on_c, 0, 35, 0
3, 128640, Note_on_c, 0, 64, 40
3, 128640, Note_on_c, 0, 59, 34
3, 128640, Note_on_c, 0, 55, 34
3, 129120, Note_on_c, 0, 55, 0
3, 129120, Note_on_c, 0, 59, 0
3, 129120, Note_on_c, 0, 64, 0
3, 129120, Note_on_c, 0, 64, 39
3, 129120, Note_on_c, 0, 59, 33
3, 129120, Note_on_c, 0, 55, 33
3, 129600, Note_on_c, 0, 55, 0
3, 129600, Note_on_c, 0, 59, 0
3, 129600, Note_on_c, 0, 64, 0
3, 129600, Note_on_c, 0, 47, 50
3, 129608, Control_c, 0, 64, 0
3, 129798, Control_c, 0, 64, 127
3, 130080, Note_on_c, 0, 47, 0
3, 130080, Note_on_c, 0, 62, 31
3, 130080, Note_on_c, 0, 59, 26
3, 130080, Note_on_c, 0, 54, 26
3, 130560, Note_on_c, 0, 54, 0
3, 130560, Note_on_c, 0, 59, 0
3, 130560, Note_on_c, 0, 62, 0
3, 130560, Note_on_c, 0, 62, 31
3, 130560, Note_on_c, 0, 59, 26
3, 130560, Note_on_c, 0, 54, 26
3, 131040, Note_on_c, 0, 54, 0
3, 131040, Note_on_c, 0, 59, 0
3, 131040, Note_on_c, 0, 62, 0
3, 131040, Note_on_c, 0, 47, 50
3, 131048, Control_c, 0, 64, 0
3, 131086, Control_c, 0, 64, 127
3, 131520, Note_on_c, 0, 47, 0
3, 131520, Note_on_c, 0, 64, 40
3, 131520, Note_on_c, 0, 58, 34
3, 131520, Note_on_c, 0, 54, 34
3, 132000, Note_on_c, 0, 54, 0
3, 132000, Note_on_c, 0, 58, 0
3, 132000, Note_on_c, 0, 64, 0
3, 132000, Note_on_c, 0, 64, 39
3, 132000, Note_on_c, 0, 58, 33
3, 132000, Note_on_c, 0, 54, 33
3, 132014, Control_c, 0, 64, 0
3, 132480, Note_on_c, 0, 54, 0
3, 132480, Note_on_c, 0, 58, 0
3, 132480, Note_on_c, 0, 64, 0
3, 132480, Note_on_c, 0, 47, 50
3, 132678, Control_c, 0, 64, 127
3, 132960, Note_on_c, 0, 47, 0
3, 132960, Note_on_c, 0, 62, 31
3, 132960, Note_on_c, 0, 59, 26
3, 132960, Note_on_c, 0, 54, 26
3, 133440, Note_on_c, 0, 54, 0
3, 133440, Note_on_c, 0, 59, 0
3, 133440, Note_on_c, 0, 62, 0
3, 133440, Note_on_c, 0, 62, 31
3, 133440, Note_on_c, 0, 59, 26
3, 133440, Note_on_c, 0, 54, 26
3, 133920, Note_on_c, 0, 54, 0
3, 133920, Note_on_c, 0, 59, 0
3, 133920, Note_on_c, 0, 62, 0
3, 133920, Note_on_c, 0, 37, 50
3, 133928, Control_c, 0, 64, 0
3, 133966, Control_c, 0, 64, 127
3, 134400, Note_on_c, 0, 37, 0
3, 134400, Note_on_c, 0, 59, 40
3, 134400, Note_on_c, 0, 53, 34
3, 134400, Note_on_c, 0, 49, 34
3, 134418, Control_c, 0, 64, 0
3, 134520, Control_c, 0, 64, 127
3, 134880, Note_on_c, 0, 49, 0
3, 134880, Note_on_c, 0, 53, 0
3, 134880, Note_on_c, 0, 59, 0
3, 134880, Note_on_c, 0, 59, 39
3, 134880, Note_on_c, 0, 53, 33
3, 134880, Note_on_c, 0, 49, 33
3, 134893, Control_c, 0, 64, 0
3, 135360, Note_on_c, 0, 49, 0
3, 135360, Note_on_c, 0, 53, 0
3, 135360, Note_on_c, 0, 59, 0
3, 135360, Note_on_c, 0, 42, 50
3, 135558, Control_c, 0, 64, 127
3, 135840, Note_on_c, 0, 42, 0
3, 135840, Note_on_c, 0, 57, 37
3, 135840, Note_on_c, 0, 49, 31
3, 136320, Note_on_c, 0, 49, 0
3, 136320, Note_on_c, 0, 57, 0
3, 136337, Control_c, 0, 64, 0
3, 139680, Note_on_c, 0, 49, 47
3, 139680, Note_on_c, 0, 56, 58
3, 140160, Note_on_c, 0, 56, 0
3, 140160, Note_on_c, 0, 54, 55
3, 140366, Control_c, 0, 64, 127
3, 140640, Note_on_c, 0, 54, 0
3, 140640, Note_on_c, 0, 57, 55
3, 141120, Note_on_c, 0, 57, 0
3, 141120, Note_on_c, 0, 49, 0
3, 141120, Note_on_c, 0, 49, 47
3, 141120, Note_on_c, 0, 56, 57
3, 141132, Control_c, 0, 64, 0
3, 141360, Note_on_c, 0, 56, 0
3, 141360, Note_on_c, 0, 54, 51
3, 141600, Note_on_c, 0, 54, 0
3, 141600, Note_on_c, 0, 57, 56
3, 142080, Note_on_c, 0, 57, 0
3, 142080, Note_on_c, 0, 57, 54
3, 142560, Note_on_c, 0, 57, 0
3, 142560, Note_on_c, 0, 49, 0
3, 142560, Note_on_c, 0, 49, 47
3, 142560, Note_on_c, 0, 56, 57
3, 143040, Note_on_c, 0, 56, 0
3, 143040, Note_on_c, 0, 54, 56
3, 143139, Control_c, 0, 64, 127
3, 143520, Note_on_c, 0, 54, 0
3, 143520, Note_on_c, 0, 58, 54
3, 144000, Note_on_c, 0, 58, 0
3, 144000, Note_on_c, 0, 49, 0
3, 144000, Note_on_c, 0, 49, 47
3, 144000, Note_on_c, 0, 56, 57
3, 144015, Control_c, 0, 64, 0
3, 144240, Note_on_c, 0, 56, 0
3, 144240, Note_on_c, 0, 54, 51
3, 144480, Note_on_c, 0, 49, 0
3, 144480, Note_on_c, 0, 42, 47
3, 144512, Control_c, 0, 64, 127
3, 144960, Note_on_c, 0, 54, 0
3, 144971, Control_c, 0, 64, 0
3, 145440, Note_on_c, 0, 42, 0
3, 145440, Note_on_c, 0, 47, 50
3, 145504, Control_c, 0, 64, 127
3, 145920, Note_on_c, 0, 47, 0
3, 145920, Note_on_c, 0, 64, 40
3, 145920, Note_on_c, 0, 59, 34
3, 145920, Note_on_c, 0, 55, 34
3, 146400, Note_on_c, 0, 55, 0
3, 146400, Note_on_c, 0, 59, 0
3, 146400, Note_on_c, 0, 64, 0
3, 146400, Note_on_c, 0, 64, 39
3, 146400, Note_on_c, 0, 59, 33
3, 146400, Note_on_c, 0, 55, 33
3, 146880, Note_on_c, 0, 55, 0
3, 146880, Note_on_c, 0, 59, 0
3, 146880, Note_on_c, 0, 64, 0
3, 146880, Note_on_c, 0, 47, 50
3, 146888, Control_c, 0, 64, 0
3, 147177, Control_c, 0, 64, 127
3, 147360, Note_on_c, 0, 47, 0
3, 147360, Note_on_c, 0, 62, 31
3, 147360, Note_on_c, 0, 59, 26
3, 147360, Note_on_c, 0, 54, 26
3, 147840, Note_on_c, 0, 54, 0
3, 147840, Note_on_c, 0, 59, 0
3, 147840, Note_on_c, 0, 62, 0
3, 147840, Note_on_c, 0, 62, 31
3, 147840, Note_on_c, 0, 59, 26
3, 147840, Note_on_c, 0, 54, 26
3, 148320, Note_on_c, 0, 54, 0
3, 148320, Note_on_c, 0, 59, 0
3, 148320, Note_on_c, 0, 62, 0
3, 148320, Note_on_c, 0, 47, 50
3, 148328, Control_c, 0, 64, 0
3, 148398, Control_c, 0, 64, 127
3, 148800, Note_on_c, 0, 47, 0
3, 148800, Note_on_c, 0, 64, 40
3, 148800, Note_on_c, 0, 58, 34
3, 148800, Note_on_c, 0, 54, 34
3, 149280, Note_on_c, 0, 54, 0
3, 149280, Note_on_c, 0, 58, 0
3, 149280, Note_on_c, 0, 64, 0
3, 149280, Note_on_c, 0, 64, 39
3, 149280, Note_on_c, 0, 58, 33
3, 149280, Note_on_c, 0, 54, 33
3, 149294, Control_c, 0, 64, 0
3, 149760, Note_on_c, 0, 54, 0
3, 149760, Note_on_c, 0, 58, 0
3, 149760, Note_on_c, 0, 64, 0
3, 149760, Note_on_c, 0, 47, 50
3, 149958, Control_c, 0, 64, 127
3, 150240, Note_on_c, 0, 47, 0
3, 150240, Note_on_c, 0, 62, 31
3, 150240, Note_on_c, 0, 59, 26
3, 150240, Note_on_c, 0, 54, 26
3, 150720, Note_on_c, 0, 54, 0
3, 150720, Note_on_c, 0, 59, 0
3, 150720, Note_on_c, 0, 62, 0
3, 150734, Control_c, 0, 64, 0
3, 151200, Note_on_c, 0, 59, 38
3, 151200, Note_on_c, 0, 65, 43
3, 151680, Note_on_c, 0, 65, 0
3, 151680, Note_on_c, 0, 59, 0
3, 151680, Note_on_c, 0, 60, 34
3, 151680, Note_on_c, 0, 64, 38
3, 152160, Note_on_c, 0, 64, 0
3, 152160, Note_on_c, 0, 60, 0
3, 152160, Note_on_c, 0, 60, 34
3, 152160, Note_on_c, 0, 64, 38
3, 152640, Note_on_c, 0, 64, 0
3, 152640, Note_on_c, 0, 60, 0
3, 152640, Note_on_c, 0, 55, 41
3, 152640, Note_on_c, 0, 59, 41
3, 152640, Note_on_c, 0, 65, 46
3, 153120, Note_on_c, 0, 65, 0
3, 153120, Note_on_c, 0, 59, 0
3, 153120, Note_on_c, 0, 55, 0
3, 153120, Note_on_c, 0, 55, 34
3, 153120, Note_on_c, 0, 59, 34
3, 153120, Note_on_c, 0, 65, 38
3, 153600, Note_on_c, 0, 65, 0
3, 153600, Note_on_c, 0, 59, 0
3, 153600, Note_on_c, 0, 55, 0
3, 153600, Note_on_c, 0, 60, 34
3, 153600, Note_on_c, 0, 64, 38
3, 154080, Note_on_c, 0, 64, 0
3, 154080, Note_on_c, 0, 60, 0
3, 154080, Note_on_c, 0, 59, 38
3, 154080, Note_on_c, 0, 65, 43
3, 154560, Note_on_c, 0, 65, 0
3, 154560, Note_on_c, 0, 59, 0
3, 154560, Note_on_c, 0, 60, 34
3, 154560, Note_on_c, 0, 64, 38
3, 155040, Note_on_c, 0, 64, 0
3, 155040, Note_on_c, 0, 60, 0
3, 155040, Note_on_c, 0, 60, 34
3, 155040, Note_on_c, 0, 64, 38
3, 155520, Note_on_c, 0, 64, 0
3, 155520, Note_on_c, 0, 60, 0
3, 155520, Note_on_c, 0, 55, 41
3, 155520, Note_on_c, 0, 59, 41
3, 155520, Note_on_c, 0, 65, 46
3, 156000, Note_on_c, 0, 65, 0
3, 156000, Note_on_c, 0, 59, 0
3, 156000, Note_on_c, 0, 55, 0
3, 156000, Note_on_c, 0, 55, 33
3, 156000, Note_on_c, 0, 59, 33
3, 156000, Note_on_c, 0, 65, 37
3, 156480, Note_on_c, 0, 65, 0
3, 156480, Note_on_c, 0, 59, 0
3, 156480, Note_on_c, 0, 55, 0
3, 156480, Note_on_c, 0, 60, 32
3, 156480, Note_on_c, 0, 64, 36
3, 156960, Note_on_c, 0, 64, 0
3, 156960, Note_on_c, 0, 60, 0
3, 156960, Note_on_c, 0, 55, 38
3, 156960, Note_on_c, 0, 59, 38
3, 156960, Note_on_c, 0, 65, 43
3, 157440, Note_on_c, 0, 65, 0
3, 157440, Note_on_c, 0, 59, 0
3, 157440, Note_on_c, 0, 55, 0
3, 157440, Note_on_c, 0, 60, 31
3, 157440, Note_on_c, 0, 64, 34
3, 157920, Note_on_c, 0, 64, 0
3, 157920, Note_on_c, 0, 60, 0
3, 157920, Note_on_c, 0, 55, 36
3, 157920, Note_on_c, 0, 59, 36
3, 157920, Note_on_c, 0, 65, 41
3, 158400, Note_on_c, 0, 65, 0
3, 158400, Note_on_c, 0, 59, 0
3, 158400, Note_on_c, 0, 55, 0
3, 158400, Note_on_c, 0, 60, 29
3, 158400, Note_on_c, 0, 64, 29
3, 158880, Note_on_c, 0, 64, 0
3, 158880, Note_on_c, 0, 60, 0
3, 158880, Note_on_c, 0, 55, 35
3, 158880, Note_on_c, 0, 59, 35
3, 158880, Note_on_c, 0, 65, 39
3, 159360, Note_on_c, 0, 65, 0
3, 159360, Note_on_c, 0, 59, 0
3, 159360, Note_on_c, 0, 55, 0
3, 159360, Note_on_c, 0, 60, 28
3, 159360, Note_on_c, 0, 64, 31
3, 159840, Note_on_c, 0, 64, 0
3, 159840, Note_on_c, 0, 60, 0
3, 159840, Note_on_c, 0, 55, 52
3, 161280, Note_on_c, 0, 55, 0
3, 161280, Note_on_c, 0, 54, 59
3, 162240, Note_on_c, 0, 54, 0
3, 162240, Note_on_c, 0, 53, 62
3, 162720, Note_on_c, 0, 53, 0
3, 162720, Note_on_c, 0, 34, 74
3, 162819, Control_c, 0, 64, 127
3, 162960, Note_on_c, 0, 34, 0
3, 163200, Note_on_c, 0, 53, 54
3, 163200, Note_on_c, 0, 62, 64
3, 163200, Note_on_c, 0, 58, 54
3, 163680, Note_on_c, 0, 58, 0
3, 163680, Note_on_c, 0, 62, 0
3, 163680, Note_on_c, 0, 53, 0
3, 163680, Note_on_c, 0, 63, 64
3, 163680, Note_on_c, 0, 58, 64
3, 163680, Note_on_c, 0, 54, 64
3, 163692, Control_c, 0, 64, 0
3, 163850, Control_c, 0, 64, 127
3, 164160, Note_on_c, 0, 54, 0
3, 164160, Note_on_c, 0, 58, 0
3, 164160, Note_on_c, 0, 63, 0
3, 164160, Note_on_c, 0, 46, 73
3, 164169, Control_c, 0, 64, 0
3, 164257, Control_c, 0, 64, 127
3, 164400, Note_on_c, 0, 46, 0
3, 164640, Note_on_c, 0, 65, 68
3, 164640, Note_on_c, 0, 62, 57
3, 164640, Note_on_c, 0, 58, 57
3, 165120, Note_on_c, 0, 53, 68
3, 165137, Control_c, 0, 64, 0
3, 165600, Note_on_c, 0, 53, 0
3, 165600, Note_on_c, 0, 65, 0
3, 165600, Note_on_c, 0, 62, 0
3, 165600, Note_on_c, 0, 58, 0
3, 165600, Note_on_c, 0, 34, 72
3, 165720, Control_c, 0, 64, 127
3, 165840, Note_on_c, 0, 34, 0
3, 166080, Note_on_c, 0, 53, 54
3, 166080, Note_on_c, 0, 62, 64
3, 166080, Note_on_c, 0, 58, 54
3, 166560, Note_on_c, 0, 58, 0
3, 166560, Note_on_c, 0, 62, 0
3, 166560, Note_on_c, 0, 53, 0
3, 166560, Note_on_c, 0, 63, 64
3, 166560, Note_on_c, 0, 58, 64
3, 166560, Note_on_c, 0, 54, 64
3, 166574, Control_c, 0, 64, 0
3, 166730, Control_c, 0, 64, 127
3, 167040, Note_on_c, 0, 54, 0
3, 167040, Note_on_c, 0, 58, 0
3, 167040, Note_on_c, 0, 63, 0
3, 167040, Note_on_c, 0, 46, 73
3, 167049, Control_c, 0, 64, 0
3, 167137, Control_c, 0, 64, 127
3, 167280, Note_on_c, 0, 46, 0
3, 167520, Note_on_c, 0, 65, 68
3, 167520, Note_on_c, 0, 62, 57
3, 167520, Note_on_c, 0, 58, 57
3, 168000, Note_on_c, 0, 53, 68
3, 168007, Control_c, 0, 64, 0
3, 168480, Note_on_c, 0, 53, 0
3, 168480, Note_on_c, 0, 65, 0
3, 168480, Note_on_c, 0, 62, 0
3, 168480, Note_on_c, 0, 58, 0
3, 168480, Note_on_c, 0, 34, 79
3, 168579, Control_c, 0, 64, 127
3, 168720, Note_on_c, 0, 34, 0
3, 168960, Note_on_c, 0, 53, 54
3, 168960, Note_on_c, 0, 62, 64
3, 168960, Note_on_c, 0, 58, 54
3, 169440, Note_on_c, 0, 58, 0
3, 169440, Note_on_c, 0, 62, 0
3, 169440, Note_on_c, 0, 53, 0
3, 169440, Note_on_c, 0, 63, 64
3, 169440, Note_on_c, 0, 58, 64
3, 169440, Note_on_c, 0, 54, 64
3, 169449, Control_c, 0, 64, 0
3, 169638, Control_c, 0, 64, 127
3, 169920, Note_on_c, 0, 54, 0
3, 169920, Note_on_c, 0, 58, 0
3, 169920, Note_on_c, 0, 63, 0
3, 169920, Note_on_c, 0, 46, 73
3, 169931, Control_c, 0, 64, 0
3, 170017, Control_c, 0, 64, 127
3, 170160, Note_on_c, 0, 46, 0
3, 170400, Note_on_c, 0, 65, 68
3, 170400, Note_on_c, 0, 62, 57
3, 170400, Note_on_c, 0, 58, 57
3, 170880, Note_on_c, 0, 53, 68
3, 170890, Control_c, 0, 64, 0
3, 171360, Note_on_c, 0, 53, 0
3, 171360, Note_on_c, 0, 65, 0
3, 171360, Note_on_c, 0, 62, 0
3, 171360, Note_on_c, 0, 58, 0
3, 171360, Note_on_c, 0, 46, 72
3, 171360, Note_on_c, 0, 34, 69
3, 171480, Control_c, 0, 64, 127
3, 171600, Note_on_c, 0, 34, 0
3, 171600, Note_on_c, 0, 46, 0
3, 171840, Note_on_c, 0, 53, 54
3, 171840, Note_on_c, 0, 62, 64
3, 171840, Note_on_c, 0, 58, 54
3, 172320, Note_on_c, 0, 58, 0
3, 172320, Note_on_c, 0, 62, 0
3, 172320, Note_on_c, 0, 53, 0
3, 172320, Note_on_c, 0, 63, 64
3, 172320, Note_on_c, 0, 58, 64
3, 172320, Note_on_c, 0, 54, 64
3, 172339, Control_c, 0, 64, 0
3, 172476, Control_c, 0, 64, 127
3, 172800, Note_on_c, 0, 54, 0
3, 172800, Note_on_c, 0, 58, 0
3, 172800, Note_on_c, 0, 63, 0
3, 172800, Note_on_c, 0, 46, 73
3, 172806, Control_c, 0, 64, 0
3, 172897, Control_c, 0, 64, 127
3, 173040, Note_on_c, 0, 46, 0
3, 173280, Note_on_c, 0, 65, 68
3, 173280, Note_on_c, 0, 62, 57
3, 173280, Note_on_c, 0, 58, 57
3, 173760, Note_on_c, 0, 53, 68
3, 173774, Control_c, 0, 64, 0
3, 174240, Note_on_c, 0, 53, 0
3, 174240, Note_on_c, 0, 65, 0
3, 174240, Note_on_c, 0, 62, 0
3, 174240, Note_on_c, 0, 58, 0
3, 174240, Note_on_c, 0, 39, 81
3, 174339, Control_c, 0, 64, 127
3, 174480, Note_on_c, 0, 39, 0
3, 174720, Note_on_c, 0, 58, 54
3, 174720, Note_on_c, 0, 67, 64
3, 174720, Note_on_c, 0, 63, 54
3, 175200, Note_on_c, 0, 63, 0
3, 175200, Note_on_c, 0, 67, 0
3, 175200, Note_on_c, 0, 58, 0
3, 175200, Note_on_c, 0, 68, 64
3, 175200, Note_on_c, 0, 63, 64
3, 175200, Note_on_c, 0, 59, 64
3, 175217, Control_c, 0, 64, 0
3, 175341, Control_c, 0, 64, 127
3, 175680, Note_on_c, 0, 59, 0
3, 175680, Note_on_c, 0, 63, 0
3, 175680, Note_on_c, 0, 68, 0
3, 175680, Note_on_c, 0, 51, 73
3, 175687, Control_c, 0, 64, 0
3, 175777, Control_c, 0, 64, 127
3, 175920, Note_on_c, 0, 51, 0
3, 176160, Note_on_c, 0, 67, 68
3, 176160, Note_on_c, 0, 63, 57
3, 176160, Note_on_c, 0, 58, 57
3, 176640, Note_on_c, 0, 58, 0
3, 176640, Note_on_c, 0, 63, 0
3, 176640, Note_on_c, 0, 67, 0
3, 176640, Note_on_c, 0, 51, 68
3, 176657, Control_c, 0, 64, 0
3, 177120, Note_on_c, 0, 51, 0
3, 177120, Note_on_c, 0, 39, 73
3, 177240, Control_c, 0, 64, 127
3, 177360, Note_on_c, 0, 39, 0
3, 177600, Note_on_c, 0, 58, 54
3, 177600, Note_on_c, 0, 67, 64
3, 177600, Note_on_c, 0, 63, 54
3, 178080, Note_on_c, 0, 63, 0
3, 178080, Note_on_c, 0, 67, 0
3, 178080, Note_on_c, 0, 58, 0
3, 178080, Note_on_c, 0, 68, 64
3, 178080, Note_on_c, 0, 63, 64
3, 178080, Note_on_c, 0, 59, 64
3, 178089, Control_c, 0, 64, 0
3, 178236, Control_c, 0, 64, 127
3, 178560, Note_on_c, 0, 59, 0
3, 178560, Note_on_c, 0, 63, 0
3, 178560, Note_on_c, 0, 68, 0
3, 178560, Note_on_c, 0, 51, 73
3, 178574, Control_c, 0, 64, 0
3, 178657, Control_c, 0, 64, 127
3, 178800, Note_on_c, 0, 51, 0
3, 179040, Note_on_c, 0, 70, 68
3, 179040, Note_on_c, 0, 67, 57
3, 179040, Note_on_c, 0, 61, 57
3, 179520, Note_on_c, 0, 61, 0
3, 179520, Note_on_c, 0, 67, 0
3, 179520, Note_on_c, 0, 70, 0
3, 179520, Note_on_c, 0, 51, 68
3, 179532, Control_c, 0, 64, 0
3, 180000, Note_on_c, 0, 51, 0
3, 180000, Note_on_c, 0, 39, 73
3, 180184, Control_c, 0, 64, 127
3, 180240, Note_on_c, 0, 39, 0
3, 180480, Note_on_c, 0, 61, 65
3, 180960, Note_on_c, 0, 61, 0
3, 180960, Note_on_c, 0, 62, 57
3, 180976, Control_c, 0, 64, 0
3, 181440, Note_on_c, 0, 62, 0
3, 181440, Note_on_c, 0, 63, 59
3, 181920, Note_on_c, 0, 63, 0
3, 181920, Note_on_c, 0, 64, 57
3, 182400, Note_on_c, 0, 64, 0
3, 182400, Note_on_c, 0, 65, 54
3, 182880, Note_on_c, 0, 65, 0
3, 182880, Note_on_c, 0, 66, 52
3, 183360, Note_on_c, 0, 66, 0
3, 183360, Note_on_c, 0, 54, 59
3, 183780, Note_on_c, 0, 54, 0
3, 183780, Note_on_c, 0, 58, 60
3, 183840, Note_on_c, 0, 58, 0
3, 183840, Note_on_c, 0, 56, 68
3, 184320, Note_on_c, 0, 56, 0
3, 184320, Note_on_c, 0, 54, 63
3, 184800, Note_on_c, 0, 54, 0
3, 184800, Note_on_c, 0, 49, 56
3, 185280, Note_on_c, 0, 49, 0
3, 185280, Note_on_c, 0, 54, 53
3, 185760, Note_on_c, 0, 54, 0
3, 185760, Note_on_c, 0, 47, 50
3, 185929, Control_c, 0, 64, 127
3, 186240, Note_on_c, 0, 47, 0
3, 186240, Note_on_c, 0, 63, 43
3, 186240, Note_on_c, 0, 59, 36
3, 186240, Note_on_c, 0, 54, 36
3, 186720, Note_on_c, 0, 54, 0
3, 186720, Note_on_c, 0, 59, 0
3, 186720, Note_on_c, 0, 63, 0
3, 186720, Note_on_c, 0, 63, 36
3, 186720, Note_on_c, 0, 71, 43
3, 186732, Control_c, 0, 64, 0
3, 187200, Note_on_c, 0, 71, 0
3, 187200, Note_on_c, 0, 63, 0
3, 187200, Note_on_c, 0, 40, 53
3, 187313, Control_c, 0, 64, 127
3, 187680, Note_on_c, 0, 40, 0
3, 187680, Note_on_c, 0, 61, 37
3, 187680, Note_on_c, 0, 59, 37
3, 187680, Note_on_c, 0, 64, 37
3, 187680, Note_on_c, 0, 68, 44
3, 187701, Control_c, 0, 64, 0
3, 187878, Control_c, 0, 64, 127
3, 188160, Note_on_c, 0, 68, 0
3, 188160, Note_on_c, 0, 61, 0
3, 188160, Note_on_c, 0, 59, 0
3, 188160, Note_on_c, 0, 64, 0
3, 188640, Control_c, 0, 64, 0
3, 188640, Note_on_c, 0, 42, 50
3, 188725, Control_c, 0, 64, 127
3, 189120, Note_on_c, 0, 42, 0
3, 189120, Note_on_c, 0, 64, 43
3, 189120, Note_on_c, 0, 58, 36
3, 189120, Note_on_c, 0, 54, 36
3, 189600, Note_on_c, 0, 54, 0
3, 189600, Note_on_c, 0, 58, 0
3, 189600, Note_on_c, 0, 64, 0
3, 189600, Note_on_c, 0, 54, 38
3, 189600, Note_on_c, 0, 58, 38
3, 189600, Note_on_c, 0, 64, 45
3, 189613, Control_c, 0, 64, 0
3, 190080, Note_on_c, 0, 64, 0
3, 190080, Note_on_c, 0, 58, 0
3, 190080, Note_on_c, 0, 54, 0
3, 190080, Note_on_c, 0, 43, 54
3, 190309, Control_c, 0, 64, 127
3, 190560, Note_on_c, 0, 43, 0
3, 190560, Note_on_c, 0, 63, 47
3, 190560, Note_on_c, 0, 58, 39
3, 190560, Note_on_c, 0, 51, 39
3, 191040, Note_on_c, 0, 51, 0
3, 191040, Note_on_c, 0, 58, 0
3, 191040, Note_on_c, 0, 63, 0
3, 191040, Note_on_c, 0, 51, 37
3, 191040, Note_on_c, 0, 58, 37
3, 191040, Note_on_c, 0, 63, 44
3, 191520, Note_on_c, 0, 63, 0
3, 191520, Note_on_c, 0, 58, 0
3, 191520, Note_on_c, 0, 51, 0
3, 191520, Note_on_c, 0, 44, 50
3, 191532, Control_c, 0, 64, 0
3, 191675, Control_c, 0, 64, 127
3, 192000, Note_on_c, 0, 44, 0
3, 192000, Note_on_c, 0, 59, 43
3, 192000, Note_on_c, 0, 56, 36
3, 192000, Note_on_c, 0, 51, 36
3, 192480, Note_on_c, 0, 51, 0
3, 192480, Note_on_c, 0, 56, 0
3, 192480, Note_on_c, 0, 59, 0
3, 192480, Note_on_c, 0, 51, 36
3, 192480, Note_on_c, 0, 56, 36
3, 192480, Note_on_c, 0, 59, 43
3, 192494, Control_c, 0, 64, 0
3, 192960, Note_on_c, 0, 59, 0
3, 192960, Note_on_c, 0, 56, 0
3, 192960, Note_on_c, 0, 51, 0
3, 192960, Note_on_c, 0, 37, 53
3, 193002, Control_c, 0, 64, 127
3, 193440, Note_on_c, 0, 37, 0
3, 193440, Note_on_c, 0, 64, 45
3, 193440, Note_on_c, 0, 61, 38
3, 193440, Note_on_c, 0, 56, 38
3, 193920, Note_on_c, 0, 56, 0
3, 193920, Note_on_c, 0, 61, 0
3, 193920, Note_on_c, 0, 64, 0
3, 194050, Control_c, 0, 64, 0
3, 194400, Note_on_c, 0, 50, 50
3, 194492, Control_c, 0, 64, 127
3, 194880, Note_on_c, 0, 50, 0
3, 194880, Note_on_c, 0, 65, 44
3, 194880, Note_on_c, 0, 59, 37
3, 194880, Note_on_c, 0, 56, 37
3, 195360, Note_on_c, 0, 56, 0
3, 195360, Note_on_c, 0, 59, 0
3, 195360, Note_on_c, 0, 65, 0
3, 195360, Note_on_c, 0, 56, 37
3, 195360, Note_on_c, 0, 58, 37
3, 195360, Note_on_c, 0, 65, 44
3, 195379, Control_c, 0, 64, 0
3, 195840, Note_on_c, 0, 65, 0
3, 195840, Note_on_c, 0, 58, 0
3, 195840, Note_on_c, 0, 56, 0
3, 195840, Note_on_c, 0, 51, 55
3, 196023, Control_c, 0, 64, 127
3, 196320, Note_on_c, 0, 51, 0
3, 196320, Note_on_c, 0, 63, 47
3, 196320, Note_on_c, 0, 58, 39
3, 196320, Note_on_c, 0, 55, 39
3, 196800, Note_on_c, 0, 55, 0
3, 196800, Note_on_c, 0, 58, 0
3, 196800, Note_on_c, 0, 63, 0
3, 196800, Note_on_c, 0, 49, 39
3, 196800, Note_on_c, 0, 54, 39
3, 196800, Note_on_c, 0, 58, 39
3, 196800, Note_on_c, 0, 64, 47
3, 196817, Control_c, 0, 64, 0
3, 197280, Note_on_c, 0, 64, 0
3, 197280, Note_on_c, 0, 49, 0
3, 197280, Note_on_c, 0, 54, 0
3, 197280, Note_on_c, 0, 58, 0
3, 197280, Note_on_c, 0, 47, 50
3, 197449, Control_c, 0, 64, 127
3, 197760, Note_on_c, 0, 47, 0
3, 197760, Note_on_c, 0, 63, 43
3, 197760, Note_on_c, 0, 59, 36
3, 197760, Note_on_c, 0, 54, 36
3, 198240, Note_on_c, 0, 54, 0
3, 198240, Note_on_c, 0, 59, 0
3, 198240, Note_on_c, 0, 63, 0
3, 198720, Note_on_c, 0, 40, 51
3, 198727, Control_c, 0, 64, 0
3, 198904, Control_c, 0, 64, 127
3, 199200, Note_on_c, 0, 40, 0
3, 199200, Note_on_c, 0, 61, 37
3, 199200, Note_on_c, 0, 59, 37
3, 199200, Note_on_c, 0, 64, 37
3, 199200, Note_on_c, 0, 68, 44
3, 199680, Note_on_c, 0, 68, 0
3, 199680, Note_on_c, 0, 61, 0
3, 199680, Note_on_c, 0, 59, 0
3, 199680, Note_on_c, 0, 64, 0
3, 200160, Note_on_c, 0, 42, 50
3, 200167, Control_c, 0, 64, 0
3, 200245, Control_c, 0, 64, 127
3, 200640, Note_on_c, 0, 42, 0
3, 200640, Note_on_c, 0, 64, 43
3, 200640, Note_on_c, 0, 58, 36
3, 200640, Note_on_c, 0, 54, 36
3, 201120, Note_on_c, 0, 54, 0
3, 201120, Note_on_c, 0, 58, 0
3, 201120, Note_on_c, 0, 64, 0
3, 201120, Note_on_c, 0, 54, 38
3, 201120, Note_on_c, 0, 58, 38
3, 201120, Note_on_c, 0, 64, 45
3, 201138, Control_c, 0, 64, 0
3, 201600, Note_on_c, 0, 64, 0
3, 201600, Note_on_c, 0, 58, 0
3, 201600, Note_on_c, 0, 54, 0
3, 201600, Note_on_c, 0, 43, 54
3, 201829, Control_c, 0, 64, 127
3, 202080, Note_on_c, 0, 43, 0
3, 202080, Note_on_c, 0, 63, 47
3, 202080, Note_on_c, 0, 58, 39
3, 202080, Note_on_c, 0, 51, 39
3, 202560, Note_on_c, 0, 51, 0
3, 202560, Note_on_c, 0, 58, 0
3, 202560, Note_on_c, 0, 63, 0
3, 202560, Note_on_c, 0, 51, 37
3, 202560, Note_on_c, 0, 58, 37
3, 202560, Note_on_c, 0, 63, 44
3, 203040, Note_on_c, 0, 63, 0
3, 203040, Note_on_c, 0, 58, 0
3, 203040, Note_on_c, 0, 51, 0
3, 203040, Note_on_c, 0, 44, 55
3, 203051, Control_c, 0, 64, 0
3, 203195, Control_c, 0, 64, 127
3, 203520, Note_on_c, 0, 44, 0
3, 203520, Note_on_c, 0, 53, 36
3, 203520, Note_on_c, 0, 63, 43
3, 203520, Note_on_c, 0, 59, 36
3, 203520, Note_on_c, 0, 56, 36
3, 204000, Note_on_c, 0, 56, 0
3, 204000, Note_on_c, 0, 53, 0
3, 204000, Note_on_c, 0, 63, 0
3, 204000, Note_on_c, 0, 59, 0
3, 204015, Control_c, 0, 64, 0
3, 204480, Note_on_c, 0, 46, 53
3, 204522, Control_c, 0, 64, 127
3, 204960, Note_on_c, 0, 46, 0
3, 204960, Note_on_c, 0, 63, 45
3, 204960, Note_on_c, 0, 58, 38
3, 204960, Note_on_c, 0, 54, 38
3, 205440, Note_on_c, 0, 54, 0
3, 205440, Note_on_c, 0, 58, 0
3, 205440, Note_on_c, 0, 63, 0
3, 205440, Note_on_c, 0, 54, 38
3, 205440, Note_on_c, 0, 58, 38
3, 205440, Note_on_c, 0, 63, 45
3, 205453, Control_c, 0, 64, 0
3, 205920, Note_on_c, 0, 63, 0
3, 205920, Note_on_c, 0, 58, 0
3, 205920, Note_on_c, 0, 54, 0
3, 205920, Note_on_c, 0, 46, 50
3, 206012, Control_c, 0, 64, 127
3, 206400, Note_on_c, 0, 46, 0
3, 206400, Note_on_c, 0, 62, 44
3, 206400, Note_on_c, 0, 58, 37
3, 206400, Note_on_c, 0, 56, 37
3, 206880, Note_on_c, 0, 56, 0
3, 206880, Note_on_c, 0, 58, 0
3, 206880, Note_on_c, 0, 62, 0
3, 206880, Note_on_c, 0, 56, 37
3, 206880, Note_on_c, 0, 58, 37
3, 206880, Note_on_c, 0, 65, 44
3, 207360, Note_on_c, 0, 65, 0
3, 207360, Note_on_c, 0, 58, 0
3, 207360, Note_on_c, 0, 56, 0
3, 207360, Note_on_c, 0, 51, 55
3, 207370, Control_c, 0, 64, 0
3, 207543, Control_c, 0, 64, 127
3, 207840, Note_on_c, 0, 51, 0
3, 207840, Note_on_c, 0, 63, 39
3, 207840, Note_on_c, 0, 58, 33
3, 207840, Note_on_c, 0, 54, 29
3, 208320, Note_on_c, 0, 54, 0
3, 208320, Note_on_c, 0, 58, 0
3, 208320, Note_on_c, 0, 63, 0
3, 208320, Note_on_c, 0, 49, 23
3, 208320, Note_on_c, 0, 54, 28
3, 208320, Note_on_c, 0, 58, 30
3, 208320, Note_on_c, 0, 64, 35
3, 208334, Control_c, 0, 64, 0
3, 208480, Control_c, 0, 64, 127
3, 208800, Note_on_c, 0, 64, 0
3, 208800, Note_on_c, 0, 49, 0
3, 208800, Note_on_c, 0, 54, 0
3, 208800, Note_on_c, 0, 58, 0
3, 208800, Note_on_c, 0, 47, 50
3, 208807, Control_c, 0, 64, 0
3, 208969, Control_c, 0, 64, 127
3, 209280, Note_on_c, 0, 47, 0
3, 209280, Note_on_c, 0, 63, 43
3, 209280, Note_on_c, 0, 59, 36
3, 209280, Note_on_c, 0, 57, 36
3, 209760, Note_on_c, 0, 57, 0
3, 209760, Note_on_c, 0, 59, 0
3, 209760, Note_on_c, 0, 63, 0
3, 209760, Note_on_c, 0, 59, 36
3, 209760, Note_on_c, 0, 63, 36
3, 209760, Note_on_c, 0, 69, 43
3, 209773, Control_c, 0, 64, 0
3, 210240, Note_on_c, 0, 69, 0
3, 210240, Note_on_c, 0, 63, 0
3, 210240, Note_on_c, 0, 59, 0
3, 210240, Note_on_c, 0, 40, 53
3, 210353, Control_c, 0, 64, 127
3, 210720, Note_on_c, 0, 40, 0
3, 210720, Note_on_c, 0, 61, 37
3, 210720, Note_on_c, 0, 59, 37
3, 210720, Note_on_c, 0, 64, 37
3, 210720, Note_on_c, 0, 68, 44
3, 210741, Control_c, 0, 64, 0
3, 210836, Control_c, 0, 64, 127
3, 211200, Note_on_c, 0, 68, 0
3, 211200, Note_on_c, 0, 61, 0
3, 211200, Note_on_c, 0, 59, 0
3, 211200, Note_on_c, 0, 64, 0
3, 211680, Control_c, 0, 64, 0
3, 211680, Note_on_c, 0, 42, 50
3, 211765, Control_c, 0, 64, 127
3, 212160, Note_on_c, 0, 42, 0
3, 212160, Note_on_c, 0, 64, 43
3, 212160, Note_on_c, 0, 58, 36
3, 212160, Note_on_c, 0, 54, 36
3, 212640, Note_on_c, 0, 54, 0
3, 212640, Note_on_c, 0, 58, 0
3, 212640, Note_on_c, 0, 64, 0
3, 212640, Note_on_c, 0, 54, 38
3, 212640, Note_on_c, 0, 58, 38
3, 212640, Note_on_c, 0, 64, 45
3, 212654, Control_c, 0, 64, 0
3, 213120, Note_on_c, 0, 64, 0
3, 213120, Note_on_c, 0, 58, 0
3, 213120, Note_on_c, 0, 54, 0
3, 213120, Note_on_c, 0, 43, 54
3, 213349, Control_c, 0, 64, 127
3, 213600, Note_on_c, 0, 43, 0
3, 213600, Note_on_c, 0, 63, 47
3, 213600, Note_on_c, 0, 58, 39
3, 213600, Note_on_c, 0, 51, 39
3, 214080, Note_on_c, 0, 51, 0
3, 214080, Note_on_c, 0, 58, 0
3, 214080, Note_on_c, 0, 63, 0
3, 214080, Note_on_c, 0, 51, 37
3, 214080, Note_on_c, 0, 58, 37
3, 214080, Note_on_c, 0, 63, 44
3, 214560, Note_on_c, 0, 63, 0
3, 214560, Note_on_c, 0, 58, 0
3, 214560, Note_on_c, 0, 51, 0
3, 214560, Note_on_c, 0, 44, 50
3, 214567, Control_c, 0, 64, 0
3, 214715, Control_c, 0, 64, 127
3, 215040, Note_on_c, 0, 44, 0
3, 215040, Note_on_c, 0, 59, 43
3, 215040, Note_on_c, 0, 56, 36
3, 215040, Note_on_c, 0, 51, 36
3, 215520, Note_on_c, 0, 51, 0
3, 215520, Note_on_c, 0, 56, 0
3, 215520, Note_on_c, 0, 59, 0
3, 215520, Note_on_c, 0, 51, 36
3, 215520, Note_on_c, 0, 56, 36
3, 215520, Note_on_c, 0, 59, 43
3, 215534, Control_c, 0, 64, 0
3, 216000, Note_on_c, 0, 59, 0
3, 216000, Note_on_c, 0, 56, 0
3, 216000, Note_on_c, 0, 51, 0
3, 216000, Note_on_c, 0, 37, 53
3, 216042, Control_c, 0, 64, 127
3, 216480, Note_on_c, 0, 37, 0
3, 216480, Note_on_c, 0, 64, 45
3, 216480, Note_on_c, 0, 61, 38
3, 216480, Note_on_c, 0, 56, 38
3, 216960, Note_on_c, 0, 56, 0
3, 216960, Note_on_c, 0, 61, 0
3, 216960, Note_on_c, 0, 64, 0
3, 217110, Control_c, 0, 64, 0
3, 217440, Note_on_c, 0, 50, 50
3, 217532, Control_c, 0, 64, 127
3, 217920, Note_on_c, 0, 50, 0
3, 217920, Note_on_c, 0, 65, 44
3, 217920, Note_on_c, 0, 59, 37
3, 217920, Note_on_c, 0, 56, 37
3, 217936, Control_c, 0, 64, 0
3, 218400, Note_on_c, 0, 56, 0
3, 218400, Note_on_c, 0, 59, 0
3, 218400, Note_on_c, 0, 65, 0
3, 218400, Note_on_c, 0, 56, 37
3, 218400, Note_on_c, 0, 58, 37
3, 218400, Note_on_c, 0, 65, 44
3, 218880, Note_on_c, 0, 65, 0
3, 218880, Note_on_c, 0, 58, 0
3, 218880, Note_on_c, 0, 56, 0
3, 218880, Note_on_c, 0, 51, 55
3, 219063, Control_c, 0, 64, 127
3, 219360, Note_on_c, 0, 51, 0
3, 219360, Note_on_c, 0, 63, 47
3, 219360, Note_on_c, 0, 58, 39
3, 219360, Note_on_c, 0, 55, 39
3, 219840, Note_on_c, 0, 55, 0
3, 219840, Note_on_c, 0, 58, 0
3, 219840, Note_on_c, 0, 63, 0
3, 219840, Note_on_c, 0, 49, 34
3, 219840, Note_on_c, 0, 54, 35
3, 219840, Note_on_c, 0, 58, 39
3, 219840, Note_on_c, 0, 64, 47
3, 219856, Control_c, 0, 64, 0
3, 220320, Note_on_c, 0, 64, 0
3, 220320, Note_on_c, 0, 49, 0
3, 220320, Note_on_c, 0, 54, 0
3, 220320, Note_on_c, 0, 58, 0
3, 220320, Note_on_c, 0, 47, 50
3, 220489, Control_c, 0, 64, 127
3, 220800, Note_on_c, 0, 47, 0
3, 220800, Note_on_c, 0, 63, 43
3, 220800, Note_on_c, 0, 59, 36
3, 220800, Note_on_c, 0, 54, 36
3, 221280, Note_on_c, 0, 54, 0
3, 221280, Note_on_c, 0, 59, 0
3, 221280, Note_on_c, 0, 63, 0
3, 221760, Note_on_c, 0, 40, 51
3, 221771, Control_c, 0, 64, 0
3, 221958, Control_c, 0, 64, 127
3, 222240, Note_on_c, 0, 40, 0
3, 222240, Note_on_c, 0, 61, 37
3, 222240, Note_on_c, 0, 59, 37
3, 222240, Note_on_c, 0, 64, 37
3, 222240, Note_on_c, 0, 68, 44
3, 222720, Note_on_c, 0, 68, 0
3, 222720, Note_on_c, 0, 61, 0
3, 222720, Note_on_c, 0, 59, 0
3, 222720, Note_on_c, 0, 64, 0
3, 223200, Note_on_c, 0, 42, 50
3, 223208, Control_c, 0, 64, 0
3, 223285, Control_c, 0, 64, 127
3, 223680, Note_on_c, 0, 42, 0
3, 223680, Note_on_c, 0, 64, 43
3, 223680, Note_on_c, 0, 58, 36
3, 223680, Note_on_c, 0, 54, 36
3, 224160, Note_on_c, 0, 54, 0
3, 224160, Note_on_c, 0, 58, 0
3, 224160, Note_on_c, 0, 64, 0
3, 224160, Note_on_c, 0, 54, 38
3, 224160, Note_on_c, 0, 58, 38
3, 224160, Note_on_c, 0, 64, 45
3, 224171, Control_c, 0, 64, 0
3, 224640, Note_on_c, 0, 64, 0
3, 224640, Note_on_c, 0, 58, 0
3, 224640, Note_on_c, 0, 54, 0
3, 224640, Note_on_c, 0, 43, 54
3, 224869, Control_c, 0, 64, 127
3, 225120, Note_on_c, 0, 43, 0
3, 225120, Note_on_c, 0, 63, 47
3, 225120, Note_on_c, 0, 58, 39
3, 225120, Note_on_c, 0, 51, 39
3, 225600, Note_on_c, 0, 51, 0
3, 225600, Note_on_c, 0, 58, 0
3, 225600, Note_on_c, 0, 63, 0
3, 225600, Note_on_c, 0, 51, 37
3, 225600, Note_on_c, 0, 58, 37
3, 225600, Note_on_c, 0, 63, 44
3, 226080, Note_on_c, 0, 63, 0
3, 226080, Note_on_c, 0, 58, 0
3, 226080, Note_on_c, 0, 51, 0
3, 226080, Note_on_c, 0, 44, 55
3, 226087, Control_c, 0, 64, 0
3, 226235, Control_c, 0, 64, 127
3, 226560, Note_on_c, 0, 44, 0
3, 226560, Note_on_c, 0, 53, 36
3, 226560, Note_on_c, 0, 63, 43
3, 226560, Note_on_c, 0, 59, 36
3, 226560, Note_on_c, 0, 56, 36
3, 227040, Note_on_c, 0, 56, 0
3, 227040, Note_on_c, 0, 53, 0
3, 227040, Note_on_c, 0, 63, 0
3, 227040, Note_on_c, 0, 59, 0
3, 227052, Control_c, 0, 64, 0
3, 227520, Note_on_c, 0, 46, 53
3, 227633, Control_c, 0, 64, 127
3, 228000, Note_on_c, 0, 46, 0
3, 228000, Note_on_c, 0, 63, 45
3, 228000, Note_on_c, 0, 58, 38
3, 228000, Note_on_c, 0, 54, 38
3, 228480, Note_on_c, 0, 54, 0
3, 228480, Note_on_c, 0, 58, 0
3, 228480, Note_on_c, 0, 63, 0
3, 228480, Note_on_c, 0, 54, 38
3, 228480, Note_on_c, 0, 58, 38
3, 228480, Note_on_c, 0, 63, 45
3, 228960, Note_on_c, 0, 63, 0
3, 228960, Note_on_c, 0, 58, 0
3, 228960, Note_on_c, 0, 54, 0
3, 228960, Note_on_c, 0, 46, 50
3, 228971, Control_c, 0, 64, 0
3, 229177, Control_c, 0, 64, 127
3, 229440, Note_on_c, 0, 46, 0
3, 229440, Note_on_c, 0, 62, 44
3, 229440, Note_on_c, 0, 58, 37
3, 229440, Note_on_c, 0, 56, 37
3, 229920, Note_on_c, 0, 56, 0
3, 229920, Note_on_c, 0, 58, 0
3, 229920, Note_on_c, 0, 62, 0
3, 229920, Note_on_c, 0, 56, 37
3, 229920, Note_on_c, 0, 58, 37
3, 229920, Note_on_c, 0, 65, 44
3, 230400, Note_on_c, 0, 65, 0
3, 230400, Note_on_c, 0, 58, 0
3, 230400, Note_on_c, 0, 56, 0
3, 230400, Note_on_c, 0, 51, 55
3, 230411, Control_c, 0, 64, 0
3, 230720, Control_c, 0, 64, 127
3, 230880, Note_on_c, 0, 51, 0
3, 230880, Note_on_c, 0, 63, 39
3, 230880, Note_on_c, 0, 58, 33
3, 230880, Note_on_c, 0, 54, 29
3, 231360, Note_on_c, 0, 54, 0
3, 231360, Note_on_c, 0, 58, 0
3, 231360, Note_on_c, 0, 63, 0
3, 231360, Note_on_c, 0, 54, 36
3, 231360, Note_on_c, 0, 58, 42
3, 231360, Note_on_c, 0, 66, 50
3, 231840, Note_on_c, 0, 66, 0
3, 231840, Note_on_c, 0, 58, 0
3, 231840, Note_on_c, 0, 54, 0
3, 231840, Note_on_c, 0, 70, 54
3, 231840, Note_on_c, 0, 76, 64
3, 231840, Control_c, 0, 64, 0
3, 231960, Note_on_c, 0, 76, 0
3, 231960, Note_on_c, 0, 70, 0
3, 231974, Control_c, 0, 64, 127
3, 232200, Note_on_c, 0, 66, 60
3, 232320, Note_on_c, 0, 66, 0
3, 232320, Note_on_c, 0, 54, 58
3, 232800, Note_on_c, 0, 54, 0
3, 232800, Note_on_c, 0, 42, 60
3, 232812, Control_c, 0, 64, 0
3, 233280, Note_on_c, 0, 42, 0
3, 233280, Note_on_c, 0, 47, 68
3, 233365, Control_c, 0, 64, 127
3, 233520, Note_on_c, 0, 47, 0
3, 233640, Note_on_c, 0, 54, 59
3, 233760, Note_on_c, 0, 54, 0
3, 233760, Note_on_c, 0, 63, 66
3, 233760, Note_on_c, 0, 59, 56
3, 234240, Note_on_c, 0, 59, 0
3, 234240, Note_on_c, 0, 63, 0
3, 234240, Note_on_c, 0, 71, 51
3, 234240, Note_on_c, 0, 75, 60
3, 234255, Control_c, 0, 64, 0
3, 234720, Note_on_c, 0, 75, 0
3, 234720, Note_on_c, 0, 71, 0
3, 234720, Note_on_c, 0, 70, 54
3, 234720, Note_on_c, 0, 76, 64
3, 234776, Control_c, 0, 64, 127
3, 234840, Note_on_c, 0, 76, 0
3, 234840, Note_on_c, 0, 70, 0
3, 235080, Note_on_c, 0, 66, 60
3, 235200, Note_on_c, 0, 66, 0
3, 235200, Note_on_c, 0, 54, 58
3, 235680, Note_on_c, 0, 54, 0
3, 235680, Note_on_c, 0, 42, 60
3, 235693, Control_c, 0, 64, 0
3, 236160, Note_on_c, 0, 42, 0
3, 236160, Note_on_c, 0, 47, 68
3, 236245, Control_c, 0, 64, 127
3, 236400, Note_on_c, 0, 47, 0
3, 236520, Note_on_c, 0, 54, 59
3, 236640, Note_on_c, 0, 54, 0
3, 236640, Note_on_c, 0, 63, 66
3, 236640, Note_on_c, 0, 59, 56
3, 237120, Note_on_c, 0, 59, 0
3, 237120, Note_on_c, 0, 63, 0
3, 237135, Control_c, 0, 64, 0
3, 237600, Note_on_c, 0, 52, 68
3, 237685, Control_c, 0, 64, 127
3, 237720, Note_on_c, 0, 52, 0
3, 237960, Note_on_c, 0, 73, 62
3, 238080, Note_on_c, 0, 73, 0
3, 238080, Note_on_c, 0, 64, 56
3, 238080, Note_on_c, 0, 68, 66
3, 238440, Note_on_c, 0, 68, 0
3, 238440, Note_on_c, 0, 64, 0
3, 238440, Note_on_c, 0, 73, 62
3, 238560, Note_on_c, 0, 73, 0
3, 238560, Note_on_c, 0, 64, 55
3, 238560, Note_on_c, 0, 68, 65
3, 238575, Control_c, 0, 64, 0
3, 239040, Note_on_c, 0, 68, 0
3, 239040, Note_on_c, 0, 64, 0
3, 239040, Note_on_c, 0, 42, 68
3, 239125, Control_c, 0, 64, 127
3, 239160, Note_on_c, 0, 42, 0
3, 239400, Note_on_c, 0, 71, 62
3, 239520, Note_on_c, 0, 71, 0
3, 239520, Note_on_c, 0, 63, 56
3, 239520, Note_on_c, 0, 66, 66
3, 239880, Note_on_c, 0, 66, 0
3, 239880, Note_on_c, 0, 63, 0
3, 239880, Note_on_c, 0, 71, 62
3, 240000, Note_on_c, 0, 71, 0
3, 240000, Note_on_c, 0, 63, 55
3, 240000, Note_on_c, 0, 66, 65
3, 240015, Control_c, 0, 64, 0
3, 240480, Note_on_c, 0, 66, 0
3, 240480, Note_on_c, 0, 63, 0
3, 240480, Note_on_c, 0, 42, 68
3, 240565, Control_c, 0, 64, 127
3, 240600, Note_on_c, 0, 42, 0
3, 240840, Note_on_c, 0, 70, 62
3, 240960, Note_on_c, 0, 70, 0
3, 240960, Note_on_c, 0, 61, 56
3, 240960, Note_on_c, 0, 64, 66
3, 241320, Note_on_c, 0, 64, 0
3, 241320, Note_on_c, 0, 61, 0
3, 241320, Note_on_c, 0, 70, 62
3, 241440, Note_on_c, 0, 70, 0
3, 241440, Note_on_c, 0, 61, 55
3, 241440, Note_on_c, 0, 64, 65
3, 241455, Control_c, 0, 64, 0
3, 241920, Note_on_c, 0, 64, 0
3, 241920, Note_on_c, 0, 61, 0
3, 241920, Note_on_c, 0, 47, 61
3, 242005, Control_c, 0, 64, 127
3, 242160, Note_on_c, 0, 47, 0
3, 242400, Note_on_c, 0, 59, 46
3, 242400, Note_on_c, 0, 65, 55
3, 242412, Control_c, 0, 64, 0
3, 242880, Note_on_c, 0, 65, 0
3, 242880, Note_on_c, 0, 66, 50
3, 243360, Note_on_c, 0, 66, 0
3, 243360, Note_on_c, 0, 59, 0
3, 243360, Note_on_c, 0, 70, 54
3, 243360, Note_on_c, 0, 76, 64
3, 243360, Control_c, 0, 64, 0
3, 243452, Control_c, 0, 64, 127
3, 243480, Note_on_c, 0, 76, 0
3, 243480, Note_on_c, 0, 70, 0
3, 243720, Note_on_c, 0, 66, 60
3, 243840, Note_on_c, 0, 66, 0
3, 243840, Note_on_c, 0, 54, 58
3, 244320, Note_on_c, 0, 54, 0
3, 244320, Note_on_c, 0, 42, 60
3, 244337, Control_c, 0, 64, 0
3, 244800, Note_on_c, 0, 42, 0
3, 244800, Note_on_c, 0, 47, 68
3, 244885, Control_c, 0, 64, 127
3, 245040, Note_on_c, 0, 47, 0
3, 245160, Note_on_c, 0, 54, 59
3, 245280, Note_on_c, 0, 54, 0
3, 245280, Note_on_c, 0, 63, 66
3, 245280, Note_on_c, 0, 59, 56
3, 245760, Note_on_c, 0, 59, 0
3, 245760, Note_on_c, 0, 63, 0
3, 245760, Note_on_c, 0, 71, 51
3, 245760, Note_on_c, 0, 75, 60
3, 245775, Control_c, 0, 64, 0
3, 246240, Note_on_c, 0, 75, 0
3, 246240, Note_on_c, 0, 71, 0
3, 246240, Note_on_c, 0, 70, 54
3, 246240, Note_on_c, 0, 76, 64
3, 246296, Control_c, 0, 64, 127
3, 246360, Note_on_c, 0, 76, 0
3, 246360, Note_on_c, 0, 70, 0
3, 246600, Note_on_c, 0, 66, 60
3, 246720, Note_on_c, 0, 66, 0
3, 246720, Note_on_c, 0, 54, 58
3, 247200, Note_on_c, 0, 54, 0
3, 247200, Note_on_c, 0, 42, 60
3, 247216, Control_c, 0, 64, 0
3, 247680, Note_on_c, 0, 42, 0
3, 247680, Note_on_c, 0, 47, 68
3, 247765, Control_c, 0, 64, 127
3, 247920, Note_on_c, 0, 47, 0
3, 248040, Note_on_c, 0, 54, 59
3, 248160, Note_on_c, 0, 54, 0
3, 248160, Note_on_c, 0, 63, 66
3, 248160, Note_on_c, 0, 59, 56
3, 248640, Note_on_c, 0, 59, 0
3, 248640, Note_on_c, 0, 63, 0
3, 248655, Control_c, 0, 64, 0
3, 249120, Note_on_c, 0, 52, 68
3, 249205, Control_c, 0, 64, 127
3, 249240, Note_on_c, 0, 52, 0
3, 249480, Note_on_c, 0, 73, 62
3, 249600, Note_on_c, 0, 73, 0
3, 249600, Note_on_c, 0, 64, 56
3, 249600, Note_on_c, 0, 68, 66
3, 249960, Note_on_c, 0, 68, 0
3, 249960, Note_on_c, 0, 64, 0
3, 249960, Note_on_c, 0, 73, 62
3, 250080, Note_on_c, 0, 73, 0
3, 250080, Note_on_c, 0, 64, 55
3, 250080, Note_on_c, 0, 68, 65
3, 250095, Control_c, 0, 64, 0
3, 250560, Note_on_c, 0, 68, 0
3, 250560, Note_on_c, 0, 64, 0
3, 250560, Note_on_c, 0, 42, 68
3, 250645, Control_c, 0, 64, 127
3, 250680, Note_on_c, 0, 42, 0
3, 250920, Note_on_c, 0, 71, 62
3, 251040, Note_on_c, 0, 71, 0
3, 251040, Note_on_c, 0, 63, 56
3, 251040, Note_on_c, 0, 66, 66
3, 251400, Note_on_c, 0, 66, 0
3, 251400, Note_on_c, 0, 63, 0
3, 251400, Note_on_c, 0, 71, 62
3, 251520, Note_on_c, 0, 71, 0
3, 251520, Note_on_c, 0, 63, 55
3, 251520, Note_on_c, 0, 66, 65
3, 251535, Control_c, 0, 64, 0
3, 252000, Note_on_c, 0, 66, 0
3, 252000, Note_on_c, 0, 63, 0
3, 252000, Note_on_c, 0, 42, 68
3, 252085, Control_c, 0, 64, 127
3, 252120, Note_on_c, 0, 42, 0
3, 252360, Note_on_c, 0, 70, 62
3, 252480, Note_on_c, 0, 70, 0
3, 252480, Note_on_c, 0, 61, 56
3, 252480, Note_on_c, 0, 64, 66
3, 252840, Note_on_c, 0, 64, 0
3, 252840, Note_on_c, 0, 61, 0
3, 252840, Note_on_c, 0, 70, 62
3, 252960, Note_on_c, 0, 70, 0
3, 252960, Note_on_c, 0, 61, 55
3, 252960, Note_on_c, 0, 64, 65
3, 252975, Control_c, 0, 64, 0
3, 253440, Note_on_c, 0, 64, 0
3, 253440, Note_on_c, 0, 61, 0
3, 253800, Note_on_c, 0, 56, 41
3, 253920, Note_on_c, 0, 56, 0
3, 253920, Note_on_c, 0, 54, 47
3, 254280, Note_on_c, 0, 54, 0
3, 254280, Note_on_c, 0, 56, 41
3, 254400, Note_on_c, 0, 56, 0
3, 254400, Note_on_c, 0, 54, 46
3, 254880, Note_on_c, 0, 54, 0
3, 254880, Note_on_c, 0, 56, 44
3, 255240, Note_on_c, 0, 56, 0
3, 255240, Note_on_c, 0, 54, 37
3, 255360, Note_on_c, 0, 54, 0
3, 255360, Note_on_c, 0, 52, 44
3, 255840, Note_on_c, 0, 52, 0
3, 255840, Note_on_c, 0, 42, 38
3, 256320, Note_on_c, 0, 42, 0
3, 256320, Note_on_c, 0, 47, 44
3, 256680, Note_on_c, 0, 47, 0
3, 256680, Note_on_c, 0, 49, 41
3, 256800, Note_on_c, 0, 49, 0
3, 256800, Note_on_c, 0, 51, 45
3, 257280, Note_on_c, 0, 51, 0
3, 257280, Note_on_c, 0, 54, 44
3, 257760, Note_on_c, 0, 54, 0
3, 257760, Note_on_c, 0, 56, 46
3, 258120, Note_on_c, 0, 56, 0
3, 258120, Note_on_c, 0, 54, 42
3, 258240, Note_on_c, 0, 54, 0
3, 258240, Note_on_c, 0, 52, 45
3, 258720, Note_on_c, 0, 52, 0
3, 258720, Note_on_c, 0, 42, 39
3, 259200, Note_on_c, 0, 42, 0
3, 259200, Note_on_c, 0, 47, 44
3, 259560, Note_on_c, 0, 47, 0
3, 259560, Note_on_c, 0, 49, 41
3, 259680, Note_on_c, 0, 49, 0
3, 259680, Note_on_c, 0, 51, 45
3, 260160, Note_on_c, 0, 51, 0
3, 260160, Note_on_c, 0, 54, 44
3, 260640, Note_on_c, 0, 54, 0
3, 260640, Note_on_c, 0, 64, 49
3, 261000, Note_on_c, 0, 58, 41
3, 261120, Note_on_c, 0, 58, 0
3, 261120, Note_on_c, 0, 56, 44
3, 261480, Note_on_c, 0, 56, 0
3, 261480, Note_on_c, 0, 58, 41
3, 261600, Note_on_c, 0, 58, 0
3, 261600, Note_on_c, 0, 56, 45
3, 262080, Note_on_c, 0, 56, 0
3, 262080, Note_on_c, 0, 64, 0
3, 262080, Note_on_c, 0, 63, 49
3, 262440, Note_on_c, 0, 56, 41
3, 262560, Note_on_c, 0, 56, 0
3, 262560, Note_on_c, 0, 54, 44
3, 262920, Note_on_c, 0, 54, 0
3, 262920, Note_on_c, 0, 56, 41
3, 263040, Note_on_c, 0, 56, 0
3, 263040, Note_on_c, 0, 54, 45
3, 263520, Note_on_c, 0, 54, 0
3, 263520, Note_on_c, 0, 63, 0
3, 263520, Note_on_c, 0, 61, 49
3, 263880, Note_on_c, 0, 54, 41
3, 264000, Note_on_c, 0, 54, 0
3, 264000, Note_on_c, 0, 52, 44
3, 264360, Note_on_c, 0, 52, 0
3, 264360, Note_on_c, 0, 54, 41
3, 264480, Note_on_c, 0, 54, 0
3, 264480, Note_on_c, 0, 52, 45
3, 264960, Note_on_c, 0, 52, 0
3, 264960, Note_on_c, 0, 61, 0
3, 264960, Note_on_c, 0, 51, 44
3, 265320, Note_on_c, 0, 51, 0
3, 265320, Note_on_c, 0, 52, 41
3, 265440, Note_on_c, 0, 52, 0
3, 265440, Note_on_c, 0, 56, 45
3, 265920, Note_on_c, 0, 56, 0
3, 265920, Note_on_c, 0, 54, 44
3, 266400, Note_on_c, 0, 54, 0
3, 266400, Note_on_c, 0, 56, 46
3, 266760, Note_on_c, 0, 56, 0
3, 266760, Note_on_c, 0, 54, 42
3, 266880, Note_on_c, 0, 54, 0
3, 266880, Note_on_c, 0, 52, 45
3, 267360, Note_on_c, 0, 52, 0
3, 267360, Note_on_c, 0, 42, 39
3, 267840, Note_on_c, 0, 42, 0
3, 267840, Note_on_c, 0, 47, 44
3, 268200, Note_on_c, 0, 47, 0
3, 268200, Note_on_c, 0, 49, 41
3, 268320, Note_on_c, 0, 49, 0
3, 268320, Note_on_c, 0, 51, 45
3, 268800, Note_on_c, 0, 51, 0
3, 268800, Note_on_c, 0, 54, 44
3, 269280, Note_on_c, 0, 54, 0
3, 269280, Note_on_c, 0, 55, 43
3, 269640, Note_on_c, 0, 55, 0
3, 269640, Note_on_c, 0, 54, 39
3, 269760, Note_on_c, 0, 54, 0
3, 269760, Note_on_c, 0, 52, 42
3, 270240, Note_on_c, 0, 52, 0
3, 270240, Note_on_c, 0, 42, 36
3, 270720, Note_on_c, 0, 42, 0
3, 270720, Note_on_c, 0, 47, 41
3, 271080, Note_on_c, 0, 47, 0
3, 271080, Note_on_c, 0, 49, 38
3, 271200, Note_on_c, 0, 49, 0
3, 271200, Note_on_c, 0, 50, 41
3, 271680, Note_on_c, 0, 50, 0
3, 271680, Note_on_c, 0, 54, 40
3, 272160, Note_on_c, 0, 54, 0
3, 272160, Note_on_c, 0, 55, 42
3, 272400, Note_on_c, 0, 55, 0
3, 272400, Note_on_c, 0, 54, 38
3, 272640, Note_on_c, 0, 54, 0
3, 272640, Note_on_c, 0, 52, 41
3, 273120, Note_on_c, 0, 52, 0
3, 273120, Note_on_c, 0, 43, 35
3, 273600, Note_on_c, 0, 43, 0
3, 273600, Note_on_c, 0, 55, 41
3, 273840, Note_on_c, 0, 55, 0
3, 273840, Note_on_c, 0, 54, 37
3, 274080, Note_on_c, 0, 54, 0
3, 274080, Note_on_c, 0, 52, 40
3, 274560, Note_on_c, 0, 52, 0
3, 274560, Note_on_c, 0, 44, 34
3, 275040, Note_on_c, 0, 44, 0
3, 275040, Note_on_c, 0, 55, 40
3, 275400, Note_on_c, 0, 55, 0
3, 275400, Note_on_c, 0, 54, 36
3, 275520, Note_on_c, 0, 54, 0
3, 275520, Note_on_c, 0, 52, 39
3, 276000, Note_on_c, 0, 52, 0
3, 276000, Note_on_c, 0, 45, 34
3, 276480, Note_on_c, 0, 45, 0
3, 276480, Note_on_c, 0, 55, 40
3, 276840, Note_on_c, 0, 55, 0
3, 276840, Note_on_c, 0, 54, 36
3, 276960, Note_on_c, 0, 54, 0
3, 276960, Note_on_c, 0, 52, 39
3, 277440, Note_on_c, 0, 52, 0
3, 277440, Note_on_c, 0, 46, 33
3, 277920, Note_on_c, 0, 46, 0
3, 277920, Note_on_c, 0, 47, 42
3, 278008, Control_c, 0, 64, 127
3, 278400, Note_on_c, 0, 47, 0
3, 278400, Note_on_c, 0, 64, 34
3, 278400, Note_on_c, 0, 59, 28
3, 278400, Note_on_c, 0, 55, 28
3, 278880, Note_on_c, 0, 55, 0
3, 278880, Note_on_c, 0, 59, 0
3, 278880, Note_on_c, 0, 64, 0
3, 278880, Note_on_c, 0, 64, 33
3, 278880, Note_on_c, 0, 59, 28
3, 278880, Note_on_c, 0, 55, 28
3, 279360, Note_on_c, 0, 55, 0
3, 279360, Note_on_c, 0, 59, 0
3, 279360, Note_on_c, 0, 64, 0
3, 279360, Note_on_c, 0, 47, 42
3, 279369, Control_c, 0, 64, 0
3, 279558, Control_c, 0, 64, 127
3, 279840, Note_on_c, 0, 47, 0
3, 279840, Note_on_c, 0, 62, 26
3, 279840, Note_on_c, 0, 59, 22
3, 279840, Note_on_c, 0, 54, 22
3, 280320, Note_on_c, 0, 54, 0
3, 280320, Note_on_c, 0, 59, 0
3, 280320, Note_on_c, 0, 62, 0
3, 280320, Note_on_c, 0, 62, 26
3, 280320, Note_on_c, 0, 59, 22
3, 280320, Note_on_c, 0, 54, 22
3, 280800, Note_on_c, 0, 54, 0
3, 280800, Note_on_c, 0, 59, 0
3, 280800, Note_on_c, 0, 62, 0
3, 280800, Control_c, 0, 64, 0
3, 280800, Note_on_c, 0, 47, 42
3, 280881, Control_c, 0, 64, 127
3, 281280, Note_on_c, 0, 47, 0
3, 281280, Note_on_c, 0, 64, 34
3, 281280, Note_on_c, 0, 58, 28
3, 281280, Note_on_c, 0, 54, 28
3, 281760, Note_on_c, 0, 54, 0
3, 281760, Note_on_c, 0, 58, 0
3, 281760, Note_on_c, 0, 64, 0
3, 281760, Note_on_c, 0, 64, 33
3, 281760, Note_on_c, 0, 58, 28
3, 281760, Note_on_c, 0, 54, 28
3, 281775, Control_c, 0, 64, 0
3, 282240, Note_on_c, 0, 54, 0
3, 282240, Note_on_c, 0, 58, 0
3, 282240, Note_on_c, 0, 64, 0
3, 282240, Note_on_c, 0, 47, 42
3, 282438, Control_c, 0, 64, 127
3, 282720, Note_on_c, 0, 47, 0
3, 282720, Note_on_c, 0, 62, 26
3, 282720, Note_on_c, 0, 59, 22
3, 282720, Note_on_c, 0, 54, 22
3, 283200, Note_on_c, 0, 54, 0
3, 283200, Note_on_c, 0, 59, 0
3, 283200, Note_on_c, 0, 62, 0
3, 283200, Note_on_c, 0, 62, 26
3, 283200, Note_on_c, 0, 59, 22
3, 283200, Note_on_c, 0, 54, 22
3, 283680, Note_on_c, 0, 54, 0
3, 283680, Note_on_c, 0, 59, 0
3, 283680, Note_on_c, 0, 62, 0
3, 283680, Control_c, 0, 64, 0
3, 283680, Note_on_c, 0, 37, 47
3, 283726, Control_c, 0, 64, 127
3, 284160, Note_on_c, 0, 37, 0
3, 284160, Note_on_c, 0, 59, 38
3, 284160, Note_on_c, 0, 53, 32
3, 284160, Note_on_c, 0, 49, 32
3, 284181, Control_c, 0, 64, 0
3, 284280, Control_c, 0, 64, 127
3, 284640, Note_on_c, 0, 49, 0
3, 284640, Note_on_c, 0, 53, 0
3, 284640, Note_on_c, 0, 59, 0
3, 284640, Note_on_c, 0, 59, 37
3, 284640, Note_on_c, 0, 53, 31
3, 284640, Note_on_c, 0, 49, 31
3, 284654, Control_c, 0, 64, 0
3, 285120, Note_on_c, 0, 49, 0
3, 285120, Note_on_c, 0, 53, 0
3, 285120, Note_on_c, 0, 59, 0
3, 285120, Note_on_c, 0, 42, 47
3, 285318, Control_c, 0, 64, 127
3, 285600, Note_on_c, 0, 42, 0
3, 285600, Note_on_c, 0, 57, 35
3, 285600, Note_on_c, 0, 49, 29
3, 286080, Note_on_c, 0, 49, 0
3, 286080, Note_on_c, 0, 57, 0
3, 286108, Control_c, 0, 64, 0
3, 289440, Note_on_c, 0, 49, 47
3, 289440, Note_on_c, 0, 56, 58
3, 289920, Note_on_c, 0, 56, 0
3, 289920, Note_on_c, 0, 54, 55
3, 290103, Control_c, 0, 64, 127
3, 290400, Note_on_c, 0, 54, 0
3, 290400, Note_on_c, 0, 57, 55
3, 290880, Note_on_c, 0, 57, 0
3, 290880, Note_on_c, 0, 49, 0
3, 290880, Note_on_c, 0, 49, 47
3, 290880, Note_on_c, 0, 56, 57
3, 290887, Control_c, 0, 64, 0
3, 291120, Note_on_c, 0, 56, 0
3, 291120, Note_on_c, 0, 54, 51
3, 291360, Note_on_c, 0, 54, 0
3, 291360, Note_on_c, 0, 57, 56
3, 291840, Note_on_c, 0, 57, 0
3, 291840, Note_on_c, 0, 57, 54
3, 292320, Note_on_c, 0, 57, 0
3, 292320, Note_on_c, 0, 49, 0
3, 292320, Note_on_c, 0, 49, 47
3, 292320, Note_on_c, 0, 56, 57
3, 292800, Note_on_c, 0, 56, 0
3, 292800, Note_on_c, 0, 54, 56
3, 292899, Control_c, 0, 64, 127
3, 293280, Note_on_c, 0, 54, 0
3, 293280, Note_on_c, 0, 58, 54
3, 293760, Note_on_c, 0, 58, 0
3, 293760, Note_on_c, 0, 49, 0
3, 293760, Note_on_c, 0, 49, 47
3, 293760, Note_on_c, 0, 56, 57
3, 293768, Control_c, 0, 64, 0
3, 294000, Note_on_c, 0, 56, 0
3, 294000, Note_on_c, 0, 54, 51
3, 294240, Note_on_c, 0, 49, 0
3, 294240, Note_on_c, 0, 42, 47
3, 294272, Control_c, 0, 64, 127
3, 294720, Note_on_c, 0, 54, 0
3, 294731, Control_c, 0, 64, 0
3, 295200, Note_on_c, 0, 42, 0
3, 295200, Note_on_c, 0, 47, 50
3, 295281, Control_c, 0, 64, 127
3, 295680, Note_on_c, 0, 47, 0
3, 295680, Note_on_c, 0, 64, 40
3, 295680, Note_on_c, 0, 59, 34
3, 295680, Note_on_c, 0, 55, 34
3, 296160, Note_on_c, 0, 55, 0
3, 296160, Note_on_c, 0, 59, 0
3, 296160, Note_on_c, 0, 64, 0
3, 296160, Note_on_c, 0, 64, 39
3, 296160, Note_on_c, 0, 59, 33
3, 296160, Note_on_c, 0, 55, 33
3, 296640, Note_on_c, 0, 55, 0
3, 296640, Note_on_c, 0, 59, 0
3, 296640, Note_on_c, 0, 64, 0
3, 296640, Note_on_c, 0, 47, 50
3, 296649, Control_c, 0, 64, 0
3, 296838, Control_c, 0, 64, 127
3, 297120, Note_on_c, 0, 47, 0
3, 297120, Note_on_c, 0, 62, 31
3, 297120, Note_on_c, 0, 59, 26
3, 297120, Note_on_c, 0, 54, 26
3, 297600, Note_on_c, 0, 54, 0
3, 297600, Note_on_c, 0, 59, 0
3, 297600, Note_on_c, 0, 62, 0
3, 297600, Note_on_c, 0, 62, 31
3, 297600, Note_on_c, 0, 59, 26
3, 297600, Note_on_c, 0, 54, 26
3, 298080, Note_on_c, 0, 54, 0
3, 298080, Note_on_c, 0, 59, 0
3, 298080, Note_on_c, 0, 62, 0
3, 298080, Note_on_c, 0, 47, 50
3, 298089, Control_c, 0, 64, 0
3, 298172, Control_c, 0, 64, 127
3, 298560, Note_on_c, 0, 47, 0
3, 298560, Note_on_c, 0, 64, 40
3, 298560, Note_on_c, 0, 58, 34
3, 298560, Note_on_c, 0, 54, 34
3, 299040, Note_on_c, 0, 54, 0
3, 299040, Note_on_c, 0, 58, 0
3, 299040, Note_on_c, 0, 64, 0
3, 299040, Note_on_c, 0, 64, 39
3, 299040, Note_on_c, 0, 58, 33
3, 299040, Note_on_c, 0, 54, 33
3, 299054, Control_c, 0, 64, 0
3, 299520, Note_on_c, 0, 54, 0
3, 299520, Note_on_c, 0, 58, 0
3, 299520, Note_on_c, 0, 64, 0
3, 299520, Note_on_c, 0, 47, 50
3, 299718, Control_c, 0, 64, 127
3, 300000, Note_on_c, 0, 47, 0
3, 300000, Note_on_c, 0, 62, 31
3, 300000, Note_on_c, 0, 59, 26
3, 300000, Note_on_c, 0, 54, 26
3, 300480, Note_on_c, 0, 54, 0
3, 300480, Note_on_c, 0, 59, 0
3, 300480, Note_on_c, 0, 62, 0
3, 300495, Control_c, 0, 64, 0
3, 300960, Note_on_c, 0, 59, 38
3, 300960, Note_on_c, 0, 65, 43
3, 301440, Note_on_c, 0, 65, 0
3, 301440, Note_on_c, 0, 59, 0
3, 301440, Note_on_c, 0, 60, 34
3, 301440, Note_on_c, 0, 64, 38
3, 301920, Note_on_c, 0, 64, 0
3, 301920, Note_on_c, 0, 60, 0
3, 301920, Note_on_c, 0, 60, 34
3, 301920, Note_on_c, 0, 64, 38
3, 302400, Note_on_c, 0, 64, 0
3, 302400, Note_on_c, 0, 60, 0
3, 302400, Note_on_c, 0, 55, 41
3, 302400, Note_on_c, 0, 59, 41
3, 302400, Note_on_c, 0, 65, 46
3, 302880, Note_on_c, 0, 65, 0
3, 302880, Note_on_c, 0, 59, 0
3, 302880, Note_on_c, 0, 55, 0
3, 302880, Note_on_c, 0, 55, 34
3, 302880, Note_on_c, 0, 59, 34
3, 302880, Note_on_c, 0, 65, 38
3, 303360, Note_on_c, 0, 65, 0
3, 303360, Note_on_c, 0, 59, 0
3, 303360, Note_on_c, 0, 55, 0
3, 303360, Note_on_c, 0, 60, 34
3, 303360, Note_on_c, 0, 64, 38
3, 303840, Note_on_c, 0, 64, 0
3, 303840, Note_on_c, 0, 60, 0
3, 303840, Note_on_c, 0, 59, 38
3, 303840, Note_on_c, 0, 65, 43
3, 304320, Note_on_c, 0, 65, 0
3, 304320, Note_on_c, 0, 59, 0
3, 304320, Note_on_c, 0, 60, 34
3, 304320, Note_on_c, 0, 64, 38
3, 304800, Note_on_c, 0, 64, 0
3, 304800, Note_on_c, 0, 60, 0
3, 304800, Note_on_c, 0, 60, 34
3, 304800, Note_on_c, 0, 64, 38
3, 305280, Note_on_c, 0, 64, 0
3, 305280, Note_on_c, 0, 60, 0
3, 305280, Note_on_c, 0, 55, 41
3, 305280, Note_on_c, 0, 59, 41
3, 305280, Note_on_c, 0, 65, 46
3, 305760, Note_on_c, 0, 65, 0
3, 305760, Note_on_c, 0, 59, 0
3, 305760, Note_on_c, 0, 55, 0
3, 305760, Note_on_c, 0, 55, 33
3, 305760, Note_on_c, 0, 59, 33
3, 305760, Note_on_c, 0, 65, 37
3, 306240, Note_on_c, 0, 65, 0
3, 306240, Note_on_c, 0, 59, 0
3, 306240, Note_on_c, 0, 55, 0
3, 306240, Note_on_c, 0, 60, 32
3, 306240, Note_on_c, 0, 64, 36
3, 306720, Note_on_c, 0, 64, 0
3, 306720, Note_on_c, 0, 60, 0
3, 306720, Note_on_c, 0, 55, 38
3, 306720, Note_on_c, 0, 59, 38
3, 306720, Note_on_c, 0, 65, 43
3, 307200, Note_on_c, 0, 65, 0
3, 307200, Note_on_c, 0, 59, 0
3, 307200, Note_on_c, 0, 55, 0
3, 307200, Note_on_c, 0, 60, 31
3, 307200, Note_on_c, 0, 64, 34
3, 307680, Note_on_c, 0, 64, 0
3, 307680, Note_on_c, 0, 60, 0
3, 307680, Note_on_c, 0, 55, 36
3, 307680, Note_on_c, 0, 59, 36
3, 307680, Note_on_c, 0, 65, 41
3, 308160, Note_on_c, 0, 65, 0
3, 308160, Note_on_c, 0, 59, 0
3, 308160, Note_on_c, 0, 55, 0
3, 308160, Note_on_c, 0, 60, 29
3, 308160, Note_on_c, 0, 64, 29
3, 308640, Note_on_c, 0, 64, 0
3, 308640, Note_on_c, 0, 60, 0
3, 308640, Note_on_c, 0, 55, 35
3, 308640, Note_on_c, 0, 59, 35
3, 308640, Note_on_c, 0, 65, 39
3, 309120, Note_on_c, 0, 65, 0
3, 309120, Note_on_c, 0, 59, 0
3, 309120, Note_on_c, 0, 55, 0
3, 309120, Note_on_c, 0, 60, 28
3, 309120, Note_on_c, 0, 64, 31
3, 309600, Note_on_c, 0, 64, 0
3, 309600, Note_on_c, 0, 60, 0
3, 309600, Note_on_c, 0, 55, 34
3, 309600, Note_on_c, 0, 59, 34
3, 309600, Note_on_c, 0, 65, 38
3, 310080, Note_on_c, 0, 65, 0
3, 310080, Note_on_c, 0, 59, 0
3, 310080, Note_on_c, 0, 55, 0
3, 310080, Note_on_c, 0, 55, 26
3, 310080, Note_on_c, 0, 59, 26
3, 310080, Note_on_c, 0, 65, 30
3, 310560, Note_on_c, 0, 65, 0
3, 310560, Note_on_c, 0, 59, 0
3, 310560, Note_on_c, 0, 55, 0
3, 310560, Note_on_c, 0, 60, 25
3, 310560, Note_on_c, 0, 64, 28
3, 311040, Note_on_c, 0, 64, 0
3, 311040, Note_on_c, 0, 60, 0
3, 311040, Note_on_c, 0, 55, 31
3, 311040, Note_on_c, 0, 59, 31
3, 311040, Note_on_c, 0, 65, 36
3, 311520, Note_on_c, 0, 65, 0
3, 311520, Note_on_c, 0, 59, 0
3, 311520, Note_on_c, 0, 55, 0
3, 311520, Note_on_c, 0, 55, 24
3, 311520, Note_on_c, 0, 59, 24
3, 311520, Note_on_c, 0, 65, 28
3, 312000, Note_on_c, 0, 65, 0
3, 312000, Note_on_c, 0, 59, 0
3, 312000, Note_on_c, 0, 55, 0
3, 312000, Note_on_c, 0, 60, 23
3, 312000, Note_on_c, 0, 64, 26
3, 312480, Note_on_c, 0, 64, 0
3, 312480, Note_on_c, 0, 60, 0
3, 312480, Note_on_c, 0, 67, 40
3, 312587, Control_c, 0, 64, 127
3, 313920, Note_on_c, 0, 67, 0
3, 313920, Note_on_c, 0, 60, 45
3, 315360, Note_on_c, 0, 60, 0
3, 315360, Note_on_c, 0, 67, 40
3, 316800, Note_on_c, 0, 67, 0
3, 316800, Note_on_c, 0, 60, 45
3, 318240, Note_on_c, 0, 60, 0
3, 318240, Note_on_c, 0, 67, 41
3, 321115, Note_on_c, 0, 67, 0
3, 321123, Control_c, 0, 64, 0
3, 322560, Note_on_c, 0, 42, 44
3, 322659, Control_c, 0, 64, 127
3, 323040, Note_on_c, 0, 42, 0
3, 323040, Note_on_c, 0, 42, 39
3, 323057, Control_c, 0, 64, 0
3, 323195, Control_c, 0, 64, 127
3, 323520, Note_on_c, 0, 42, 0
3, 323520, Note_on_c, 0, 35, 37
3, 323520, Note_on_c, 0, 47, 44
3, 323536, Control_c, 0, 64, 0
3, 323647, Control_c, 0, 64, 127
3, 324000, Note_on_c, 0, 47, 0
3, 324000, Note_on_c, 0, 35, 0
3, 324000, Control_c, 0, 64, 0
3, 324000, End_track
4, 0, Start_track
4, 0, Title_t, "Chopin:  Nocturne Op. 33 Nr. 4"
4, 0, End_track
5, 0, Start_track
5, 0, Title_t, "Copyright © 2003 by Bernd Krueger"
5, 0, End_track
6, 0, Start_track
6, 0, Title_t, "http://www.piano-midi.de"
6, 0, End_track
7, 0, Start_track
7, 0, Title_t, "Edition: 2014-02-25"
7, 0, End_track
8, 0, Start_track
8, 0, Title_t, "Spur 7"
8, 0, End_track
0, 0, End_of_file
