0, 0, Header, 1, 9, 480
1, 0, Start_track
1, 0, Title_t, "Chopin Prelude  No. 6, Opus 28"
1, 0, Copyright_t, "Copyright © 2002 by Bernd Krueger "
1, 0, Text_t, "Frederic Chopin"
1, 0, Text_t, "Assai lento"
1, 0, Text_t, "Fertiggestellt am 27.8.2002\012"
1, 0, Text_t, "Normierung: 23.12.2002\012"
1, 0, Text_t, "Update am 8.6.2010\012"
1, 0, Text_t, "Update am 20-2-2014 (keine Änderungen)\012"
1, 0, Text_t, "Dauer: 1:38 Minuten\012"
1, 0, SMPTE_offset, 96, 0, 3, 0, 0
1, 0, Time_signature, 3, 2, 24, 8
1, 0, Key_signature, 2, "major"
1, 0, Tempo, 1276596
1, 40, Tempo, 1263158
1, 80, Tempo, 1250000
1, 100, Tempo, 1176471
1, 160, Tempo, 1165049
1, 220, Tempo, 1153846
1, 260, Tempo, 1142857
1, 320, Tempo, 1132075
1, 360, Tempo, 1121495
1, 420, Tempo, 1111111
1, 460, Tempo, 1100917
1, 480, Tempo, 1153846
1, 500, Tempo, 1132075
1, 720, Tempo, 1200000
1, 960, Tempo, 1121495
1, 1200, Tempo, 1165049
1, 1220, Tempo, 1153846
1, 1320, Tempo, 1263158
1, 1440, Tempo, 1165049
1, 1680, Tempo, 1153846
1, 1920, Tempo, 1121495
1, 2160, Tempo, 1176471
1, 2400, Tempo, 1200000
1, 2880, Tempo, 1250000
1, 2960, Tempo, 1237113
1, 3000, Tempo, 1142857
1, 3100, Tempo, 1132075
1, 3180, Tempo, 1121495
1, 3260, Tempo, 1111111
1, 3340, Tempo, 1100917
1, 3360, Tempo, 1132075
1, 3600, Tempo, 1200000
1, 3840, Tempo, 1121495
1, 4080, Tempo, 1176471
1, 4200, Tempo, 1250000
1, 4320, Tempo, 1176471
1, 4560, Tempo, 1132075
1, 4800, Tempo, 1100917
1, 5040, Tempo, 1142857
1, 5280, Tempo, 1224490
1, 5520, Tempo, 1276596
1, 5720, Tempo, 1263158
1, 5800, Tempo, 1250000
1, 5840, Tempo, 1237113
1, 5880, Tempo, 1200000
1, 5960, Tempo, 1188119
1, 6020, Tempo, 1176471
1, 6080, Tempo, 1165049
1, 6140, Tempo, 1153846
1, 6200, Tempo, 1142857
1, 6240, Tempo, 1121495
1, 6480, Tempo, 1165049
1, 6720, Tempo, 1142857
1, 6960, Tempo, 1200000
1, 7200, Tempo, 1153846
1, 7440, Tempo, 1188119
1, 7680, Tempo, 1153846
1, 7920, Tempo, 1200000
1, 8160, Tempo, 1111111
1, 8640, Tempo, 1142857
1, 8760, Tempo, 1061947
1, 8880, Tempo, 1176471
1, 9120, Tempo, 1132075
1, 9600, Tempo, 1142857
1, 10080, Tempo, 1165049
1, 11040, Tempo, 1188119
1, 11120, Tempo, 1200000
1, 11160, Tempo, 1212121
1, 11200, Tempo, 1224490
1, 11240, Tempo, 1237113
1, 11280, Tempo, 1250000
1, 11360, Tempo, 1263158
1, 11400, Tempo, 1276596
1, 11440, Tempo, 1290323
1, 11480, Tempo, 1304348
1, 11520, Tempo, 1276596
1, 11560, Tempo, 1263158
1, 11600, Tempo, 1250000
1, 11640, Tempo, 1188119
1, 11680, Tempo, 1176471
1, 11720, Tempo, 1165049
1, 11760, Tempo, 1153846
1, 11800, Tempo, 1142857
1, 11840, Tempo, 1132075
1, 11880, Tempo, 1121495
1, 11920, Tempo, 1111111
1, 11960, Tempo, 1100917
1, 11980, Tempo, 1090909
1, 12000, Tempo, 1153846
1, 12240, Tempo, 1200000
1, 12480, Tempo, 1121495
1, 12720, Tempo, 1200000
1, 12840, Tempo, 1304348
1, 12960, Tempo, 1200000
1, 13200, Tempo, 1153846
1, 13440, Tempo, 1111111
1, 13680, Tempo, 1165049
1, 13920, Tempo, 1200000
1, 14400, Tempo, 1250000
1, 14480, Tempo, 1237113
1, 14520, Tempo, 1224490
1, 14560, Tempo, 1212121
1, 14600, Tempo, 1200000
1, 14640, Tempo, 1188119
1, 14720, Tempo, 1176471
1, 14760, Tempo, 1165049
1, 14800, Tempo, 1153846
1, 14840, Tempo, 1142857
1, 14880, Tempo, 1121495
1, 15120, Tempo, 1188119
1, 15360, Tempo, 1153846
1, 15600, Tempo, 1188119
1, 15840, Tempo, 1111111
1, 16080, Tempo, 1153846
1, 16560, Tempo, 1100917
1, 16800, Tempo, 1142857
1, 17040, Tempo, 1276596
1, 17240, Tempo, 1263158
1, 17320, Tempo, 1250000
1, 17360, Tempo, 1237113
1, 17440, Tempo, 1224490
1, 17480, Tempo, 1212121
1, 17560, Tempo, 1200000
1, 17600, Tempo, 1188119
1, 17680, Tempo, 1176471
1, 17720, Tempo, 1165049
1, 18236, Tempo, 1304348
1, 18256, Tempo, 1290323
1, 18276, Tempo, 1276596
1, 18284, Tempo, 1263158
1, 18320, Tempo, 1237113
1, 18400, Tempo, 1224490
1, 18440, Tempo, 1212121
1, 18520, Tempo, 1200000
1, 18560, Tempo, 1188119
1, 18640, Tempo, 1176471
1, 18680, Tempo, 1165049
1, 18720, Tempo, 1165049
1, 18960, Tempo, 1165049
1, 19200, Tempo, 1121495
1, 19440, Tempo, 1165049
1, 19920, Tempo, 1200000
1, 20160, Tempo, 1153846
1, 20400, Tempo, 1176471
1, 20640, Tempo, 1200000
1, 20880, Tempo, 1153846
1, 21120, Tempo, 1142857
1, 21240, Tempo, 1153846
1, 21360, Tempo, 1165049
1, 21600, Tempo, 1142857
1, 21840, Tempo, 1153846
1, 22080, Tempo, 1200000
1, 22320, Tempo, 1153846
1, 22560, Tempo, 1142857
1, 22920, Tempo, 1090909
1, 23047, Tempo, 1142857
1, 23167, Tempo, 1153846
1, 23260, Tempo, 1153846
1, 23280, Tempo, 1165049
1, 23300, Tempo, 1176471
1, 23320, Tempo, 1200000
1, 23340, Tempo, 1212121
1, 23360, Tempo, 1224490
1, 23380, Tempo, 1250000
1, 23400, Tempo, 1348315
1, 23487, Tempo, 1188119
1, 23520, Tempo, 1188119
1, 24480, Tempo, 1188119
1, 25440, Tempo, 1153846
1, 25680, Tempo, 1200000
1, 25920, Tempo, 1165049
1, 26160, Tempo, 1153846
1, 26400, Tempo, 1200000
1, 26640, Tempo, 1153846
1, 26880, Tempo, 1142857
1, 27000, Tempo, 1153846
1, 27120, Tempo, 1165049
1, 27360, Tempo, 1153846
1, 27600, Tempo, 1153846
1, 27840, Tempo, 1200000
1, 28080, Tempo, 1153846
1, 28320, Tempo, 1142857
1, 28680, Tempo, 1090909
1, 28807, Tempo, 1142857
1, 28927, Tempo, 1153846
1, 29020, Tempo, 1153846
1, 29040, Tempo, 1165049
1, 29060, Tempo, 1176471
1, 29080, Tempo, 1200000
1, 29100, Tempo, 1212121
1, 29120, Tempo, 1224490
1, 29140, Tempo, 1250000
1, 29160, Tempo, 1348315
1, 29247, Tempo, 1188119
1, 29280, Tempo, 1142857
1, 29520, Tempo, 1188119
1, 30000, Tempo, 1290323
1, 30240, Tempo, 1165049
1, 30480, Tempo, 1188119
1, 30720, Tempo, 1142857
1, 30960, Tempo, 1188119
1, 31200, Tempo, 1202164
1, 31440, Tempo, 1339585
1, 31680, Tempo, 1290323
1, 31760, Tempo, 1276596
1, 31840, Tempo, 1263158
1, 31880, Tempo, 1250000
1, 31960, Tempo, 1237113
1, 32000, Tempo, 1224490
1, 32080, Tempo, 1212121
1, 32120, Tempo, 1200000
1, 32160, Tempo, 1176471
1, 32400, Tempo, 1200000
1, 32640, Tempo, 1165049
1, 32880, Tempo, 1200000
1, 33360, Tempo, 1165049
1, 33840, Tempo, 1302366
1, 34080, Tempo, 1284522
1, 34113, Tempo, 1284522
1, 34179, Tempo, 1302366
1, 34222, Tempo, 1320713
1, 34266, Tempo, 1339585
1, 34310, Tempo, 1359003
1, 34375, Tempo, 1378993
1, 34419, Tempo, 1399580
1, 34462, Tempo, 1420791
1, 34506, Tempo, 1442654
1, 34550, Tempo, 1399580
1, 35480, Tempo, 1263158
1, 35520, Tempo, 1589404
1, 35760, Tempo, 1838799
1, 36000, Tempo, 2287457
1, 37440, Tempo, 1200000
1, 37440, End_track
2, 0, Start_track
2, 0, Title_t, "Piano right"
2, 0, Program_c, 0, 0
2, 0, Control_c, 0, 7, 100
2, 0, Control_c, 0, 10, 64
2, 0, Control_c, 0, 91, 127
2, 0, Control_c, 0, 91, 127
2, 0, Text_t, "bdca426d104a26ac9dcb070447587523"
2, 0, Control_c, 0, 91, 127
2, 1, Note_on_c, 0, 66, 28
2, 1, Note_on_c, 0, 62, 28
2, 1, Note_on_c, 0, 71, 35
2, 240, Note_on_c, 0, 71, 0
2, 240, Note_on_c, 0, 71, 32
2, 480, Note_on_c, 0, 71, 0
2, 480, Note_on_c, 0, 62, 0
2, 480, Note_on_c, 0, 66, 0
2, 480, Note_on_c, 0, 66, 28
2, 480, Note_on_c, 0, 71, 35
2, 720, Note_on_c, 0, 71, 0
2, 720, Note_on_c, 0, 71, 33
2, 960, Note_on_c, 0, 71, 0
2, 960, Note_on_c, 0, 66, 0
2, 960, Note_on_c, 0, 71, 35
2, 960, Note_on_c, 0, 66, 28
2, 1200, Note_on_c, 0, 71, 0
2, 1200, Note_on_c, 0, 71, 32
2, 1440, Note_on_c, 0, 71, 0
2, 1440, Note_on_c, 0, 66, 0
2, 1440, Note_on_c, 0, 62, 28
2, 1440, Note_on_c, 0, 71, 35
2, 1440, Note_on_c, 0, 66, 28
2, 1680, Note_on_c, 0, 71, 0
2, 1680, Note_on_c, 0, 71, 33
2, 1920, Note_on_c, 0, 71, 0
2, 1920, Note_on_c, 0, 66, 0
2, 1920, Note_on_c, 0, 62, 0
2, 1920, Note_on_c, 0, 62, 28
2, 1920, Note_on_c, 0, 66, 28
2, 1920, Note_on_c, 0, 71, 35
2, 2160, Note_on_c, 0, 71, 0
2, 2160, Note_on_c, 0, 71, 32
2, 2400, Note_on_c, 0, 71, 0
2, 2400, Note_on_c, 0, 66, 0
2, 2400, Note_on_c, 0, 62, 0
2, 2400, Note_on_c, 0, 66, 27
2, 2400, Note_on_c, 0, 62, 27
2, 2400, Note_on_c, 0, 71, 33
2, 2640, Note_on_c, 0, 71, 0
2, 2640, Note_on_c, 0, 71, 32
2, 2880, Note_on_c, 0, 71, 0
2, 2880, Note_on_c, 0, 62, 0
2, 2880, Note_on_c, 0, 66, 0
2, 2880, Note_on_c, 0, 66, 28
2, 2880, Note_on_c, 0, 62, 28
2, 2880, Note_on_c, 0, 71, 35
2, 3120, Note_on_c, 0, 71, 0
2, 3120, Note_on_c, 0, 71, 35
2, 3360, Note_on_c, 0, 71, 0
2, 3360, Note_on_c, 0, 62, 0
2, 3360, Note_on_c, 0, 66, 0
2, 3360, Note_on_c, 0, 74, 36
2, 3360, Note_on_c, 0, 71, 28
2, 3600, Note_on_c, 0, 74, 0
2, 3600, Note_on_c, 0, 74, 35
2, 3840, Note_on_c, 0, 74, 0
2, 3840, Note_on_c, 0, 71, 0
2, 3840, Note_on_c, 0, 71, 28
2, 3840, Note_on_c, 0, 74, 36
2, 4080, Note_on_c, 0, 74, 0
2, 4080, Note_on_c, 0, 74, 35
2, 4320, Note_on_c, 0, 74, 0
2, 4320, Note_on_c, 0, 71, 0
2, 4320, Note_on_c, 0, 74, 35
2, 4320, Note_on_c, 0, 66, 28
2, 4320, Note_on_c, 0, 71, 28
2, 4560, Note_on_c, 0, 74, 0
2, 4560, Note_on_c, 0, 74, 35
2, 4800, Note_on_c, 0, 74, 0
2, 4800, Note_on_c, 0, 71, 0
2, 4800, Note_on_c, 0, 66, 0
2, 4800, Note_on_c, 0, 71, 28
2, 4800, Note_on_c, 0, 66, 28
2, 4800, Note_on_c, 0, 74, 35
2, 5040, Note_on_c, 0, 74, 0
2, 5040, Note_on_c, 0, 74, 31
2, 5280, Note_on_c, 0, 74, 0
2, 5280, Note_on_c, 0, 66, 0
2, 5280, Note_on_c, 0, 71, 0
2, 5280, Note_on_c, 0, 71, 26
2, 5280, Note_on_c, 0, 66, 26
2, 5280, Note_on_c, 0, 74, 32
2, 5520, Note_on_c, 0, 74, 0
2, 5520, Note_on_c, 0, 74, 32
2, 5760, Note_on_c, 0, 74, 0
2, 5760, Note_on_c, 0, 66, 0
2, 5760, Note_on_c, 0, 71, 0
2, 5760, Note_on_c, 0, 71, 28
2, 5760, Note_on_c, 0, 67, 28
2, 5760, Note_on_c, 0, 74, 35
2, 6000, Note_on_c, 0, 74, 0
2, 6000, Note_on_c, 0, 74, 36
2, 6240, Note_on_c, 0, 74, 0
2, 6240, Note_on_c, 0, 67, 0
2, 6240, Note_on_c, 0, 71, 0
2, 6240, Note_on_c, 0, 74, 40
2, 6240, Note_on_c, 0, 71, 31
2, 6480, Note_on_c, 0, 74, 0
2, 6480, Note_on_c, 0, 74, 38
2, 6720, Note_on_c, 0, 74, 0
2, 6720, Note_on_c, 0, 71, 0
2, 6720, Note_on_c, 0, 71, 31
2, 6720, Note_on_c, 0, 74, 40
2, 6960, Note_on_c, 0, 74, 0
2, 6960, Note_on_c, 0, 74, 38
2, 7200, Note_on_c, 0, 74, 0
2, 7200, Note_on_c, 0, 71, 0
2, 7200, Note_on_c, 0, 68, 30
2, 7200, Note_on_c, 0, 74, 38
2, 7200, Note_on_c, 0, 71, 30
2, 7440, Note_on_c, 0, 74, 0
2, 7440, Note_on_c, 0, 74, 32
2, 7680, Note_on_c, 0, 74, 0
2, 7680, Note_on_c, 0, 71, 0
2, 7680, Note_on_c, 0, 68, 0
2, 7680, Note_on_c, 0, 68, 28
2, 7680, Note_on_c, 0, 73, 36
2, 7680, Note_on_c, 0, 71, 28
2, 7920, Note_on_c, 0, 73, 0
2, 7920, Note_on_c, 0, 73, 31
2, 8160, Note_on_c, 0, 73, 0
2, 8160, Note_on_c, 0, 71, 0
2, 8160, Note_on_c, 0, 68, 0
2, 8160, Note_on_c, 0, 70, 31
2, 8160, Note_on_c, 0, 73, 37
2, 8160, Note_on_c, 0, 67, 29
2, 8400, Note_on_c, 0, 73, 0
2, 8400, Note_on_c, 0, 70, 0
2, 8400, Note_on_c, 0, 74, 42
2, 8400, Note_on_c, 0, 71, 36
2, 8640, Note_on_c, 0, 71, 0
2, 8640, Note_on_c, 0, 74, 0
2, 8640, Note_on_c, 0, 67, 0
2, 8640, Note_on_c, 0, 76, 47
2, 8640, Note_on_c, 0, 67, 35
2, 8640, Note_on_c, 0, 70, 40
2, 8880, Note_on_c, 0, 70, 0
2, 8880, Note_on_c, 0, 67, 0
2, 8880, Note_on_c, 0, 67, 35
2, 8880, Note_on_c, 0, 71, 40
2, 9120, Note_on_c, 0, 71, 0
2, 9120, Note_on_c, 0, 67, 0
2, 9120, Note_on_c, 0, 67, 36
2, 9120, Note_on_c, 0, 70, 40
2, 9360, Note_on_c, 0, 70, 0
2, 9360, Note_on_c, 0, 67, 0
2, 9360, Note_on_c, 0, 76, 0
2, 9360, Note_on_c, 0, 73, 45
2, 9360, Note_on_c, 0, 66, 45
2, 9360, Note_on_c, 0, 78, 54
2, 9600, Note_on_c, 0, 78, 0
2, 9600, Note_on_c, 0, 66, 0
2, 9600, Note_on_c, 0, 73, 0
2, 9600, Note_on_c, 0, 66, 41
2, 9600, Note_on_c, 0, 76, 49
2, 9600, Note_on_c, 0, 71, 41
2, 9720, Note_on_c, 0, 76, 0
2, 9720, Note_on_c, 0, 74, 45
2, 9800, Note_on_c, 0, 74, 0
2, 9810, Note_on_c, 0, 74, 42
2, 9840, Note_on_c, 0, 74, 0
2, 9840, Note_on_c, 0, 71, 0
2, 9840, Note_on_c, 0, 66, 0
2, 9840, Note_on_c, 0, 73, 50
2, 9840, Note_on_c, 0, 66, 42
2, 9960, Note_on_c, 0, 73, 0
2, 9960, Note_on_c, 0, 71, 44
2, 10080, Note_on_c, 0, 71, 0
2, 10080, Note_on_c, 0, 66, 0
2, 10080, Note_on_c, 0, 61, 40
2, 10080, Note_on_c, 0, 67, 40
2, 10080, Note_on_c, 0, 70, 48
2, 10320, Note_on_c, 0, 70, 0
2, 10320, Note_on_c, 0, 67, 0
2, 10320, Note_on_c, 0, 61, 0
2, 10320, Note_on_c, 0, 68, 41
2, 10320, Note_on_c, 0, 71, 48
2, 10320, Note_on_c, 0, 62, 41
2, 10560, Note_on_c, 0, 62, 0
2, 10560, Note_on_c, 0, 71, 0
2, 10560, Note_on_c, 0, 68, 0
2, 10560, Note_on_c, 0, 71, 44
2, 10560, Note_on_c, 0, 62, 44
2, 10560, Note_on_c, 0, 74, 53
2, 10800, Note_on_c, 0, 74, 0
2, 10800, Note_on_c, 0, 62, 0
2, 10800, Note_on_c, 0, 71, 0
2, 10800, Note_on_c, 0, 61, 40
2, 10800, Note_on_c, 0, 73, 48
2, 10800, Note_on_c, 0, 70, 40
2, 11040, Note_on_c, 0, 70, 0
2, 11040, Note_on_c, 0, 73, 0
2, 11040, Note_on_c, 0, 61, 0
2, 11520, Note_on_c, 0, 66, 28
2, 11520, Note_on_c, 0, 62, 28
2, 11520, Note_on_c, 0, 71, 35
2, 11760, Note_on_c, 0, 71, 0
2, 11760, Note_on_c, 0, 71, 32
2, 12000, Note_on_c, 0, 71, 0
2, 12000, Note_on_c, 0, 62, 0
2, 12000, Note_on_c, 0, 66, 0
2, 12000, Note_on_c, 0, 71, 35
2, 12000, Note_on_c, 0, 66, 28
2, 12240, Note_on_c, 0, 71, 0
2, 12240, Note_on_c, 0, 71, 33
2, 12480, Note_on_c, 0, 71, 0
2, 12480, Note_on_c, 0, 66, 0
2, 12480, Note_on_c, 0, 71, 35
2, 12480, Note_on_c, 0, 66, 28
2, 12720, Note_on_c, 0, 71, 0
2, 12720, Note_on_c, 0, 71, 32
2, 12960, Note_on_c, 0, 71, 0
2, 12960, Note_on_c, 0, 66, 0
2, 12960, Note_on_c, 0, 66, 28
2, 12960, Note_on_c, 0, 62, 28
2, 12960, Note_on_c, 0, 71, 35
2, 13200, Note_on_c, 0, 71, 0
2, 13200, Note_on_c, 0, 71, 33
2, 13440, Note_on_c, 0, 71, 0
2, 13440, Note_on_c, 0, 62, 0
2, 13440, Note_on_c, 0, 66, 0
2, 13440, Note_on_c, 0, 66, 28
2, 13440, Note_on_c, 0, 62, 28
2, 13440, Note_on_c, 0, 71, 35
2, 13680, Note_on_c, 0, 71, 0
2, 13680, Note_on_c, 0, 71, 32
2, 13920, Note_on_c, 0, 71, 0
2, 13920, Note_on_c, 0, 62, 0
2, 13920, Note_on_c, 0, 66, 0
2, 13920, Note_on_c, 0, 66, 27
2, 13920, Note_on_c, 0, 62, 27
2, 13920, Note_on_c, 0, 71, 33
2, 14160, Note_on_c, 0, 71, 0
2, 14160, Note_on_c, 0, 71, 32
2, 14400, Note_on_c, 0, 71, 0
2, 14400, Note_on_c, 0, 62, 0
2, 14400, Note_on_c, 0, 66, 0
2, 14400, Note_on_c, 0, 67, 32
2, 14400, Note_on_c, 0, 62, 32
2, 14400, Note_on_c, 0, 71, 41
2, 14640, Note_on_c, 0, 71, 0
2, 14640, Note_on_c, 0, 71, 41
2, 14880, Note_on_c, 0, 71, 0
2, 14880, Note_on_c, 0, 62, 0
2, 14880, Note_on_c, 0, 67, 0
2, 14880, Note_on_c, 0, 71, 44
2, 14880, Note_on_c, 0, 67, 33
2, 15120, Note_on_c, 0, 71, 0
2, 15120, Note_on_c, 0, 71, 41
2, 15360, Note_on_c, 0, 71, 0
2, 15360, Note_on_c, 0, 67, 0
2, 15360, Note_on_c, 0, 71, 48
2, 15360, Note_on_c, 0, 67, 36
2, 15600, Note_on_c, 0, 71, 0
2, 15600, Note_on_c, 0, 71, 45
2, 15840, Note_on_c, 0, 71, 0
2, 15840, Note_on_c, 0, 67, 0
2, 15840, Note_on_c, 0, 67, 39
2, 15840, Note_on_c, 0, 72, 49
2, 16080, Note_on_c, 0, 72, 0
2, 16080, Note_on_c, 0, 72, 49
2, 16320, Note_on_c, 0, 72, 0
2, 16320, Note_on_c, 0, 67, 0
2, 16320, Note_on_c, 0, 67, 39
2, 16320, Note_on_c, 0, 64, 39
2, 16320, Note_on_c, 0, 72, 49
2, 16560, Note_on_c, 0, 72, 0
2, 16560, Note_on_c, 0, 72, 44
2, 16800, Note_on_c, 0, 72, 0
2, 16800, Note_on_c, 0, 64, 0
2, 16800, Note_on_c, 0, 67, 0
2, 16800, Note_on_c, 0, 67, 36
2, 16800, Note_on_c, 0, 64, 36
2, 16800, Note_on_c, 0, 72, 46
2, 17040, Note_on_c, 0, 72, 0
2, 17040, Note_on_c, 0, 72, 45
2, 17280, Note_on_c, 0, 72, 0
2, 17280, Note_on_c, 0, 64, 0
2, 17280, Note_on_c, 0, 67, 0
2, 17280, Note_on_c, 0, 64, 36
2, 17280, Note_on_c, 0, 72, 45
2, 17280, Note_on_c, 0, 67, 36
2, 17520, Note_on_c, 0, 72, 0
2, 17520, Note_on_c, 0, 72, 45
2, 17760, Note_on_c, 0, 72, 0
2, 17760, Note_on_c, 0, 67, 0
2, 17760, Note_on_c, 0, 64, 0
2, 17760, Note_on_c, 0, 72, 48
2, 17760, Note_on_c, 0, 67, 36
2, 18000, Note_on_c, 0, 72, 0
2, 18000, Note_on_c, 0, 72, 45
2, 18240, Note_on_c, 0, 72, 0
2, 18240, Note_on_c, 0, 67, 0
2, 18240, Note_on_c, 0, 72, 45
2, 18240, Note_on_c, 0, 64, 36
2, 18240, Note_on_c, 0, 67, 36
2, 18480, Note_on_c, 0, 72, 0
2, 18480, Note_on_c, 0, 72, 45
2, 18720, Note_on_c, 0, 72, 0
2, 18720, Note_on_c, 0, 67, 0
2, 18720, Note_on_c, 0, 64, 0
2, 18720, Note_on_c, 0, 67, 36
2, 18720, Note_on_c, 0, 72, 48
2, 18960, Note_on_c, 0, 72, 0
2, 18960, Note_on_c, 0, 72, 44
2, 19200, Note_on_c, 0, 72, 0
2, 19200, Note_on_c, 0, 67, 0
2, 19200, Note_on_c, 0, 67, 32
2, 19200, Note_on_c, 0, 72, 40
2, 19440, Note_on_c, 0, 72, 0
2, 19440, Note_on_c, 0, 72, 40
2, 19680, Note_on_c, 0, 72, 0
2, 19680, Note_on_c, 0, 67, 0
2, 19680, Note_on_c, 0, 71, 38
2, 19680, Note_on_c, 0, 67, 30
2, 19920, Note_on_c, 0, 71, 0
2, 19920, Note_on_c, 0, 71, 32
2, 20160, Note_on_c, 0, 71, 0
2, 20160, Note_on_c, 0, 67, 0
2, 20160, Note_on_c, 0, 67, 28
2, 20160, Note_on_c, 0, 70, 36
2, 20160, Note_on_c, 0, 61, 28
2, 20400, Note_on_c, 0, 70, 0
2, 20400, Note_on_c, 0, 70, 35
2, 20640, Note_on_c, 0, 70, 0
2, 20640, Note_on_c, 0, 61, 0
2, 20640, Note_on_c, 0, 67, 0
2, 20640, Note_on_c, 0, 70, 36
2, 20640, Note_on_c, 0, 61, 28
2, 20640, Note_on_c, 0, 66, 28
2, 20880, Note_on_c, 0, 70, 0
2, 20880, Note_on_c, 0, 70, 36
2, 21120, Note_on_c, 0, 70, 0
2, 21120, Note_on_c, 0, 66, 0
2, 21120, Note_on_c, 0, 61, 0
2, 21120, Note_on_c, 0, 66, 28
2, 21120, Note_on_c, 0, 62, 24
2, 21120, Note_on_c, 0, 71, 36
2, 21360, Note_on_c, 0, 71, 0
2, 21360, Note_on_c, 0, 71, 32
2, 21600, Note_on_c, 0, 71, 0
2, 21600, Note_on_c, 0, 62, 0
2, 21600, Note_on_c, 0, 66, 0
2, 21600, Note_on_c, 0, 71, 36
2, 21600, Note_on_c, 0, 61, 28
2, 21600, Note_on_c, 0, 67, 28
2, 21840, Note_on_c, 0, 71, 0
2, 21840, Note_on_c, 0, 71, 35
2, 22080, Note_on_c, 0, 71, 0
2, 22080, Note_on_c, 0, 67, 0
2, 22080, Note_on_c, 0, 61, 0
2, 22080, Note_on_c, 0, 70, 36
2, 22080, Note_on_c, 0, 61, 28
2, 22080, Note_on_c, 0, 67, 28
2, 22320, Note_on_c, 0, 70, 0
2, 22320, Note_on_c, 0, 70, 36
2, 22560, Note_on_c, 0, 70, 0
2, 22560, Note_on_c, 0, 67, 0
2, 22560, Note_on_c, 0, 61, 0
2, 22560, Note_on_c, 0, 62, 26
2, 22560, Note_on_c, 0, 67, 28
2, 22560, Note_on_c, 0, 71, 36
2, 22800, Note_on_c, 0, 71, 0
2, 22800, Note_on_c, 0, 71, 32
2, 23040, Note_on_c, 0, 71, 0
2, 23040, Note_on_c, 0, 67, 0
2, 23040, Note_on_c, 0, 62, 0
2, 23040, Note_on_c, 0, 62, 26
2, 23040, Note_on_c, 0, 71, 36
2, 23040, Note_on_c, 0, 67, 28
2, 23280, Note_on_c, 0, 71, 0
2, 23280, Note_on_c, 0, 71, 32
2, 23520, Note_on_c, 0, 71, 0
2, 23520, Note_on_c, 0, 67, 0
2, 23520, Note_on_c, 0, 62, 0
2, 23520, Note_on_c, 0, 61, 28
2, 23520, Note_on_c, 0, 71, 36
2, 23520, Note_on_c, 0, 66, 28
2, 23760, Note_on_c, 0, 71, 0
2, 23760, Note_on_c, 0, 71, 31
2, 24000, Note_on_c, 0, 71, 0
2, 24000, Note_on_c, 0, 66, 0
2, 24000, Note_on_c, 0, 61, 0
2, 24000, Note_on_c, 0, 61, 26
2, 24000, Note_on_c, 0, 70, 36
2, 24000, Note_on_c, 0, 64, 28
2, 24240, Note_on_c, 0, 70, 0
2, 24240, Note_on_c, 0, 70, 32
2, 24480, Note_on_c, 0, 70, 0
2, 24480, Note_on_c, 0, 64, 0
2, 24480, Note_on_c, 0, 61, 0
2, 24480, Note_on_c, 0, 64, 28
2, 24480, Note_on_c, 0, 61, 28
2, 24480, Note_on_c, 0, 70, 36
2, 24720, Note_on_c, 0, 70, 0
2, 24720, Note_on_c, 0, 70, 31
2, 24960, Note_on_c, 0, 70, 0
2, 24960, Note_on_c, 0, 61, 0
2, 24960, Note_on_c, 0, 64, 0
2, 24960, Note_on_c, 0, 71, 36
2, 24960, Note_on_c, 0, 59, 26
2, 24960, Note_on_c, 0, 62, 28
2, 25200, Note_on_c, 0, 71, 0
2, 25200, Note_on_c, 0, 71, 32
2, 25440, Note_on_c, 0, 71, 0
2, 25440, Note_on_c, 0, 62, 0
2, 25440, Note_on_c, 0, 59, 0
2, 25440, Note_on_c, 0, 71, 36
2, 25440, Note_on_c, 0, 62, 27
2, 25440, Note_on_c, 0, 67, 28
2, 25680, Note_on_c, 0, 71, 0
2, 25680, Note_on_c, 0, 71, 32
2, 25920, Note_on_c, 0, 71, 0
2, 25920, Note_on_c, 0, 67, 0
2, 25920, Note_on_c, 0, 62, 0
2, 25920, Note_on_c, 0, 67, 28
2, 25920, Note_on_c, 0, 61, 28
2, 25920, Note_on_c, 0, 71, 36
2, 26160, Note_on_c, 0, 71, 0
2, 26160, Note_on_c, 0, 71, 35
2, 26400, Note_on_c, 0, 71, 0
2, 26400, Note_on_c, 0, 61, 0
2, 26400, Note_on_c, 0, 67, 0
2, 26400, Note_on_c, 0, 70, 36
2, 26400, Note_on_c, 0, 67, 28
2, 26400, Note_on_c, 0, 61, 28
2, 26640, Note_on_c, 0, 70, 0
2, 26640, Note_on_c, 0, 70, 36
2, 26880, Note_on_c, 0, 70, 0
2, 26880, Note_on_c, 0, 61, 0
2, 26880, Note_on_c, 0, 67, 0
2, 26880, Note_on_c, 0, 62, 24
2, 26880, Note_on_c, 0, 66, 28
2, 26880, Note_on_c, 0, 71, 36
2, 27120, Note_on_c, 0, 71, 0
2, 27120, Note_on_c, 0, 71, 32
2, 27360, Note_on_c, 0, 71, 0
2, 27360, Note_on_c, 0, 66, 0
2, 27360, Note_on_c, 0, 62, 0
2, 27360, Note_on_c, 0, 61, 28
2, 27360, Note_on_c, 0, 71, 36
2, 27360, Note_on_c, 0, 67, 28
2, 27600, Note_on_c, 0, 71, 0
2, 27600, Note_on_c, 0, 71, 35
2, 27840, Note_on_c, 0, 71, 0
2, 27840, Note_on_c, 0, 67, 0
2, 27840, Note_on_c, 0, 61, 0
2, 27840, Note_on_c, 0, 61, 28
2, 27840, Note_on_c, 0, 70, 36
2, 27840, Note_on_c, 0, 67, 28
2, 28080, Note_on_c, 0, 70, 0
2, 28080, Note_on_c, 0, 70, 36
2, 28320, Note_on_c, 0, 70, 0
2, 28320, Note_on_c, 0, 67, 0
2, 28320, Note_on_c, 0, 61, 0
2, 28320, Note_on_c, 0, 62, 26
2, 28320, Note_on_c, 0, 71, 36
2, 28320, Note_on_c, 0, 67, 28
2, 28560, Note_on_c, 0, 71, 0
2, 28560, Note_on_c, 0, 71, 32
2, 28800, Note_on_c, 0, 71, 0
2, 28800, Note_on_c, 0, 67, 0
2, 28800, Note_on_c, 0, 62, 0
2, 28800, Note_on_c, 0, 67, 28
2, 28800, Note_on_c, 0, 62, 26
2, 28800, Note_on_c, 0, 71, 36
2, 29040, Note_on_c, 0, 71, 0
2, 29040, Note_on_c, 0, 71, 32
2, 29280, Note_on_c, 0, 71, 0
2, 29280, Note_on_c, 0, 62, 0
2, 29280, Note_on_c, 0, 67, 0
2, 29280, Note_on_c, 0, 66, 28
2, 29280, Note_on_c, 0, 61, 28
2, 29280, Note_on_c, 0, 71, 36
2, 29520, Note_on_c, 0, 71, 0
2, 29520, Note_on_c, 0, 71, 31
2, 29760, Note_on_c, 0, 71, 0
2, 29760, Note_on_c, 0, 61, 0
2, 29760, Note_on_c, 0, 66, 0
2, 29760, Note_on_c, 0, 70, 32
2, 29760, Note_on_c, 0, 61, 23
2, 29760, Note_on_c, 0, 66, 24
2, 30000, Note_on_c, 0, 70, 0
2, 30000, Note_on_c, 0, 70, 28
2, 30240, Note_on_c, 0, 70, 0
2, 30240, Note_on_c, 0, 66, 0
2, 30240, Note_on_c, 0, 61, 0
2, 30240, Note_on_c, 0, 66, 24
2, 30240, Note_on_c, 0, 62, 24
2, 30240, Note_on_c, 0, 71, 30
2, 30480, Note_on_c, 0, 71, 0
2, 30480, Note_on_c, 0, 71, 26
2, 30720, Note_on_c, 0, 71, 0
2, 30720, Note_on_c, 0, 62, 0
2, 30720, Note_on_c, 0, 66, 0
2, 30720, Note_on_c, 0, 71, 30
2, 30720, Note_on_c, 0, 66, 24
2, 30720, Note_on_c, 0, 62, 21
2, 30960, Note_on_c, 0, 71, 0
2, 30960, Note_on_c, 0, 71, 27
2, 31200, Note_on_c, 0, 71, 0
2, 31200, Note_on_c, 0, 62, 0
2, 31200, Note_on_c, 0, 66, 0
2, 31200, Note_on_c, 0, 69, 30
2, 31200, Note_on_c, 0, 62, 21
2, 31200, Note_on_c, 0, 66, 24
2, 31440, Note_on_c, 0, 69, 0
2, 31440, Note_on_c, 0, 69, 27
2, 31680, Note_on_c, 0, 69, 0
2, 31680, Note_on_c, 0, 66, 0
2, 31680, Note_on_c, 0, 62, 0
2, 31680, Note_on_c, 0, 66, 29
2, 31680, Note_on_c, 0, 62, 23
2, 31920, Note_on_c, 0, 66, 0
2, 31920, Note_on_c, 0, 66, 27
2, 32160, Note_on_c, 0, 66, 0
2, 32160, Note_on_c, 0, 62, 0
2, 32160, Note_on_c, 0, 66, 29
2, 32400, Note_on_c, 0, 66, 0
2, 32400, Note_on_c, 0, 66, 28
2, 32640, Note_on_c, 0, 66, 0
2, 32640, Note_on_c, 0, 66, 29
2, 32880, Note_on_c, 0, 66, 0
2, 32880, Note_on_c, 0, 66, 28
2, 33120, Note_on_c, 0, 66, 0
2, 33120, Note_on_c, 0, 62, 23
2, 33120, Note_on_c, 0, 66, 29
2, 33360, Note_on_c, 0, 66, 0
2, 33360, Note_on_c, 0, 66, 27
2, 33600, Note_on_c, 0, 66, 0
2, 33600, Note_on_c, 0, 62, 0
2, 33600, Note_on_c, 0, 66, 27
2, 33600, Note_on_c, 0, 62, 21
2, 33840, Note_on_c, 0, 66, 0
2, 33840, Note_on_c, 0, 66, 25
2, 34080, Note_on_c, 0, 66, 0
2, 34080, Note_on_c, 0, 62, 0
2, 34080, Note_on_c, 0, 66, 24
2, 34080, Note_on_c, 0, 62, 19
2, 34320, Note_on_c, 0, 66, 0
2, 34320, Note_on_c, 0, 66, 22
2, 34560, Note_on_c, 0, 66, 0
2, 34560, Note_on_c, 0, 62, 0
2, 34560, Note_on_c, 0, 62, 16
2, 34560, Note_on_c, 0, 66, 20
2, 34800, Note_on_c, 0, 66, 0
2, 34800, Note_on_c, 0, 66, 19
2, 35040, Note_on_c, 0, 66, 0
2, 35040, Note_on_c, 0, 62, 0
2, 35520, Note_on_c, 0, 66, 19
2, 35520, Note_on_c, 0, 62, 15
2, 35760, Note_on_c, 0, 66, 0
2, 35760, Note_on_c, 0, 66, 17
2, 36000, Note_on_c, 0, 66, 0
2, 36000, Note_on_c, 0, 62, 0
2, 36000, Note_on_c, 0, 62, 15
2, 36000, Note_on_c, 0, 66, 19
2, 36240, Note_on_c, 0, 66, 0
2, 36240, Note_on_c, 0, 66, 17
2, 36480, Note_on_c, 0, 66, 0
2, 36480, Note_on_c, 0, 62, 0
2, 36480, End_track
3, 0, Start_track
3, 0, Title_t, "Piano left"
3, 0, Program_c, 0, 0
3, 0, Control_c, 0, 7, 100
3, 0, Control_c, 0, 10, 64
3, 0, Control_c, 0, 67, 127
3, 0, Control_c, 0, 64, 127
3, 1, Note_on_c, 0, 47, 38
3, 120, Note_on_c, 0, 47, 0
3, 120, Note_on_c, 0, 50, 32
3, 240, Note_on_c, 0, 50, 0
3, 240, Note_on_c, 0, 54, 36
3, 360, Note_on_c, 0, 54, 0
3, 360, Note_on_c, 0, 59, 41
3, 480, Note_on_c, 0, 59, 0
3, 480, Note_on_c, 0, 62, 46
3, 960, Note_on_c, 0, 62, 0
3, 960, Note_on_c, 0, 61, 45
3, 971, Control_c, 0, 64, 0
3, 1059, Control_c, 0, 64, 127
3, 1320, Note_on_c, 0, 61, 0
3, 1320, Note_on_c, 0, 62, 35
3, 1438, Note_on_c, 0, 62, 0
3, 1440, Note_on_c, 0, 59, 44
3, 1451, Control_c, 0, 64, 0
3, 1567, Control_c, 0, 64, 127
3, 2160, Note_on_c, 0, 59, 0
3, 2160, Note_on_c, 0, 54, 40
3, 2400, Note_on_c, 0, 54, 0
3, 2400, Note_on_c, 0, 50, 35
3, 2415, Control_c, 0, 64, 0
3, 2584, Control_c, 0, 64, 127
3, 2640, Note_on_c, 0, 50, 0
3, 2640, Note_on_c, 0, 49, 31
3, 2880, Note_on_c, 0, 49, 0
3, 2880, Note_on_c, 0, 47, 38
3, 2886, Control_c, 0, 64, 0
3, 2944, Control_c, 0, 64, 127
3, 3000, Note_on_c, 0, 47, 0
3, 3000, Note_on_c, 0, 54, 32
3, 3120, Note_on_c, 0, 54, 0
3, 3120, Note_on_c, 0, 59, 36
3, 3240, Note_on_c, 0, 59, 0
3, 3240, Note_on_c, 0, 62, 41
3, 3360, Note_on_c, 0, 62, 0
3, 3360, Note_on_c, 0, 66, 46
3, 3840, Note_on_c, 0, 66, 0
3, 3840, Note_on_c, 0, 64, 46
3, 3855, Control_c, 0, 64, 0
3, 3953, Control_c, 0, 64, 127
3, 4200, Note_on_c, 0, 64, 0
3, 4200, Note_on_c, 0, 66, 41
3, 4318, Note_on_c, 0, 66, 0
3, 4320, Note_on_c, 0, 62, 44
3, 4328, Control_c, 0, 64, 0
3, 4475, Control_c, 0, 64, 127
3, 5040, Note_on_c, 0, 62, 0
3, 5040, Note_on_c, 0, 59, 44
3, 5280, Note_on_c, 0, 59, 0
3, 5280, Note_on_c, 0, 54, 39
3, 5292, Control_c, 0, 64, 0
3, 5407, Control_c, 0, 64, 127
3, 5520, Note_on_c, 0, 54, 0
3, 5520, Note_on_c, 0, 50, 38
3, 5760, Note_on_c, 0, 50, 0
3, 5760, Note_on_c, 0, 43, 45
3, 5771, Control_c, 0, 64, 0
3, 5824, Control_c, 0, 64, 127
3, 5880, Note_on_c, 0, 43, 0
3, 5880, Note_on_c, 0, 50, 39
3, 6000, Note_on_c, 0, 50, 0
3, 6000, Note_on_c, 0, 59, 42
3, 6120, Note_on_c, 0, 59, 0
3, 6120, Note_on_c, 0, 62, 45
3, 6240, Note_on_c, 0, 62, 0
3, 6240, Note_on_c, 0, 67, 49
3, 6720, Note_on_c, 0, 67, 0
3, 6720, Note_on_c, 0, 66, 48
3, 6734, Control_c, 0, 64, 0
3, 6826, Control_c, 0, 64, 127
3, 7200, Note_on_c, 0, 66, 0
3, 7200, Note_on_c, 0, 66, 49
3, 7209, Control_c, 0, 64, 0
3, 7355, Control_c, 0, 64, 127
3, 7680, Note_on_c, 0, 66, 0
3, 7680, Note_on_c, 0, 65, 48
3, 7692, Control_c, 0, 64, 0
3, 7840, Control_c, 0, 64, 127
3, 8160, Note_on_c, 0, 65, 0
3, 8160, Note_on_c, 0, 64, 49
3, 8166, Control_c, 0, 64, 0
3, 8320, Control_c, 0, 64, 127
3, 8400, Note_on_c, 0, 64, 0
3, 8400, Note_on_c, 0, 62, 44
3, 8640, Note_on_c, 0, 62, 0
3, 8640, Note_on_c, 0, 61, 49
3, 8647, Control_c, 0, 64, 0
3, 8714, Control_c, 0, 64, 127
3, 8840, Note_on_c, 0, 61, 0
3, 8840, Note_on_c, 0, 64, 28
3, 8880, Note_on_c, 0, 64, 0
3, 8880, Note_on_c, 0, 62, 41
3, 8886, Control_c, 0, 64, 0
3, 8940, Control_c, 0, 64, 127
3, 9120, Note_on_c, 0, 62, 0
3, 9120, Note_on_c, 0, 61, 49
3, 9135, Control_c, 0, 64, 0
3, 9240, Control_c, 0, 64, 127
3, 9360, Note_on_c, 0, 61, 0
3, 9360, Note_on_c, 0, 58, 40
3, 9372, Control_c, 0, 64, 0
3, 9420, Control_c, 0, 64, 127
3, 9600, Note_on_c, 0, 58, 0
3, 9600, Note_on_c, 0, 59, 47
3, 9615, Control_c, 0, 64, 0
3, 9664, Control_c, 0, 64, 127
3, 9840, Note_on_c, 0, 59, 0
3, 9840, Note_on_c, 0, 50, 42
3, 9851, Control_c, 0, 64, 0
3, 9904, Control_c, 0, 64, 127
3, 10080, Note_on_c, 0, 50, 0
3, 10080, Note_on_c, 0, 52, 48
3, 10086, Control_c, 0, 64, 0
3, 10183, Control_c, 0, 64, 127
3, 10320, Note_on_c, 0, 52, 0
3, 10320, Note_on_c, 0, 53, 39
3, 10329, Control_c, 0, 64, 0
3, 10435, Control_c, 0, 64, 127
3, 10560, Note_on_c, 0, 53, 0
3, 10560, Note_on_c, 0, 54, 46
3, 10576, Control_c, 0, 64, 0
3, 10686, Control_c, 0, 64, 127
3, 10810, Control_c, 0, 64, 0
3, 10971, Control_c, 0, 64, 127
3, 11040, Note_on_c, 0, 54, 0
3, 11040, Note_on_c, 0, 50, 41
3, 11050, Control_c, 0, 64, 0
3, 11280, Note_on_c, 0, 50, 0
3, 11280, Note_on_c, 0, 49, 35
3, 11520, Note_on_c, 0, 49, 0
3, 11520, Note_on_c, 0, 47, 38
3, 11570, Control_c, 0, 64, 127
3, 11640, Note_on_c, 0, 47, 0
3, 11640, Note_on_c, 0, 50, 32
3, 11760, Note_on_c, 0, 50, 0
3, 11760, Note_on_c, 0, 54, 36
3, 11880, Note_on_c, 0, 54, 0
3, 11880, Note_on_c, 0, 59, 41
3, 12000, Note_on_c, 0, 59, 0
3, 12000, Note_on_c, 0, 62, 46
3, 12480, Note_on_c, 0, 62, 0
3, 12480, Note_on_c, 0, 61, 45
3, 12490, Control_c, 0, 64, 0
3, 12593, Control_c, 0, 64, 127
3, 12840, Note_on_c, 0, 61, 0
3, 12840, Note_on_c, 0, 62, 33
3, 12958, Note_on_c, 0, 62, 0
3, 12960, Note_on_c, 0, 59, 44
3, 12971, Control_c, 0, 64, 0
3, 13087, Control_c, 0, 64, 127
3, 13680, Note_on_c, 0, 59, 0
3, 13680, Note_on_c, 0, 54, 41
3, 13920, Note_on_c, 0, 54, 0
3, 13920, Note_on_c, 0, 50, 35
3, 13934, Control_c, 0, 64, 0
3, 14047, Control_c, 0, 64, 127
3, 14160, Note_on_c, 0, 50, 0
3, 14160, Note_on_c, 0, 47, 32
3, 14400, Note_on_c, 0, 47, 0
3, 14400, Note_on_c, 0, 43, 51
3, 14412, Control_c, 0, 64, 0
3, 14464, Control_c, 0, 64, 127
3, 14520, Note_on_c, 0, 43, 0
3, 14520, Note_on_c, 0, 50, 46
3, 14640, Note_on_c, 0, 50, 0
3, 14640, Note_on_c, 0, 55, 48
3, 14760, Note_on_c, 0, 55, 0
3, 14760, Note_on_c, 0, 59, 49
3, 14880, Note_on_c, 0, 59, 0
3, 14880, Note_on_c, 0, 62, 50
3, 15360, Note_on_c, 0, 62, 0
3, 15360, Note_on_c, 0, 64, 56
3, 15375, Control_c, 0, 64, 0
3, 15494, Control_c, 0, 64, 127
3, 15600, Note_on_c, 0, 64, 0
3, 15600, Note_on_c, 0, 65, 52
3, 15840, Note_on_c, 0, 65, 0
3, 15840, Note_on_c, 0, 64, 56
3, 15847, Control_c, 0, 64, 0
3, 15995, Control_c, 0, 64, 127
3, 16318, Note_on_c, 0, 64, 0
3, 16560, Note_on_c, 0, 60, 54
3, 16800, Note_on_c, 0, 60, 0
3, 16800, Note_on_c, 0, 55, 50
3, 16806, Control_c, 0, 64, 0
3, 16949, Control_c, 0, 64, 127
3, 17040, Note_on_c, 0, 55, 0
3, 17040, Note_on_c, 0, 48, 48
3, 17280, Note_on_c, 0, 48, 0
3, 17280, Note_on_c, 0, 36, 57
3, 17288, Control_c, 0, 64, 0
3, 17344, Control_c, 0, 64, 127
3, 17400, Note_on_c, 0, 36, 0
3, 17400, Note_on_c, 0, 43, 50
3, 17520, Note_on_c, 0, 43, 0
3, 17520, Note_on_c, 0, 52, 53
3, 17640, Note_on_c, 0, 52, 0
3, 17640, Note_on_c, 0, 55, 56
3, 17760, Note_on_c, 0, 55, 0
3, 17760, Note_on_c, 0, 64, 58
3, 18238, Note_on_c, 0, 64, 0
3, 18240, Note_on_c, 0, 36, 59
3, 18249, Control_c, 0, 64, 0
3, 18304, Control_c, 0, 64, 127
3, 18360, Note_on_c, 0, 36, 0
3, 18360, Note_on_c, 0, 43, 47
3, 18480, Note_on_c, 0, 43, 0
3, 18480, Note_on_c, 0, 52, 51
3, 18600, Note_on_c, 0, 52, 0
3, 18600, Note_on_c, 0, 55, 55
3, 18720, Note_on_c, 0, 55, 0
3, 18720, Note_on_c, 0, 64, 59
3, 19680, Note_on_c, 0, 64, 0
3, 19690, Control_c, 0, 64, 0
3, 19829, Control_c, 0, 64, 127
3, 20160, Note_on_c, 0, 52, 48
3, 20167, Control_c, 0, 64, 0
3, 20252, Control_c, 0, 64, 127
3, 20655, Control_c, 0, 64, 0
3, 20732, Control_c, 0, 64, 127
3, 20880, Note_on_c, 0, 52, 0
3, 20880, Note_on_c, 0, 54, 38
3, 21120, Note_on_c, 0, 54, 0
3, 21120, Note_on_c, 0, 52, 48
3, 21135, Control_c, 0, 64, 0
3, 21226, Control_c, 0, 64, 127
3, 21240, Note_on_c, 0, 52, 0
3, 21240, Note_on_c, 0, 50, 40
3, 21360, Note_on_c, 0, 50, 0
3, 21360, Note_on_c, 0, 49, 41
3, 21374, Control_c, 0, 64, 0
3, 21445, Control_c, 0, 64, 127
3, 21480, Note_on_c, 0, 49, 0
3, 21480, Note_on_c, 0, 47, 36
3, 21600, Note_on_c, 0, 47, 0
3, 21600, Note_on_c, 0, 52, 48
3, 21607, Control_c, 0, 64, 0
3, 21720, Control_c, 0, 64, 127
3, 22094, Control_c, 0, 64, 0
3, 22172, Control_c, 0, 64, 127
3, 22320, Note_on_c, 0, 52, 0
3, 22320, Note_on_c, 0, 54, 38
3, 22560, Note_on_c, 0, 54, 0
3, 22560, Note_on_c, 0, 52, 48
3, 22575, Control_c, 0, 64, 0
3, 22666, Control_c, 0, 64, 127
3, 22680, Note_on_c, 0, 52, 0
3, 22680, Note_on_c, 0, 50, 40
3, 22800, Note_on_c, 0, 50, 0
3, 22800, Note_on_c, 0, 49, 41
3, 22810, Control_c, 0, 64, 0
3, 22885, Control_c, 0, 64, 127
3, 22920, Note_on_c, 0, 49, 0
3, 22920, Note_on_c, 0, 47, 36
3, 23040, Note_on_c, 0, 47, 0
3, 23040, Note_on_c, 0, 45, 45
3, 23053, Control_c, 0, 64, 0
3, 23153, Control_c, 0, 64, 127
3, 23160, Note_on_c, 0, 45, 0
3, 23160, Note_on_c, 0, 43, 40
3, 23280, Note_on_c, 0, 43, 0
3, 23280, Note_on_c, 0, 38, 41
3, 23292, Control_c, 0, 64, 0
3, 23372, Control_c, 0, 64, 127
3, 23400, Note_on_c, 0, 38, 0
3, 23400, Note_on_c, 0, 40, 36
3, 23520, Note_on_c, 0, 40, 0
3, 23520, Note_on_c, 0, 42, 48
3, 23535, Control_c, 0, 64, 0
3, 23654, Control_c, 0, 64, 127
3, 24014, Control_c, 0, 64, 0
3, 24156, Control_c, 0, 64, 127
3, 24480, Note_on_c, 0, 42, 0
3, 24480, Note_on_c, 0, 43, 36
3, 24498, Control_c, 0, 64, 0
3, 24606, Control_c, 0, 64, 127
3, 24975, Control_c, 0, 64, 0
3, 25097, Control_c, 0, 64, 127
3, 25440, Note_on_c, 0, 43, 0
3, 25440, Note_on_c, 0, 55, 35
3, 25455, Control_c, 0, 64, 0
3, 25669, Control_c, 0, 64, 127
3, 25920, Note_on_c, 0, 55, 0
3, 25920, Note_on_c, 0, 52, 48
3, 25927, Control_c, 0, 64, 0
3, 26026, Control_c, 0, 64, 127
3, 26414, Control_c, 0, 64, 0
3, 26492, Control_c, 0, 64, 127
3, 26640, Note_on_c, 0, 52, 0
3, 26640, Note_on_c, 0, 54, 38
3, 26880, Note_on_c, 0, 54, 0
3, 26880, Note_on_c, 0, 52, 47
3, 26895, Control_c, 0, 64, 0
3, 26986, Control_c, 0, 64, 127
3, 27000, Note_on_c, 0, 52, 0
3, 27000, Note_on_c, 0, 50, 40
3, 27120, Note_on_c, 0, 50, 0
3, 27120, Note_on_c, 0, 49, 41
3, 27134, Control_c, 0, 64, 0
3, 27205, Control_c, 0, 64, 127
3, 27240, Note_on_c, 0, 49, 0
3, 27240, Note_on_c, 0, 47, 36
3, 27360, Note_on_c, 0, 47, 0
3, 27360, Note_on_c, 0, 52, 48
3, 27367, Control_c, 0, 64, 0
3, 27487, Control_c, 0, 64, 127
3, 27854, Control_c, 0, 64, 0
3, 27932, Control_c, 0, 64, 127
3, 28080, Note_on_c, 0, 52, 0
3, 28080, Note_on_c, 0, 54, 38
3, 28320, Note_on_c, 0, 54, 0
3, 28320, Note_on_c, 0, 52, 48
3, 28335, Control_c, 0, 64, 0
3, 28426, Control_c, 0, 64, 127
3, 28440, Note_on_c, 0, 52, 0
3, 28440, Note_on_c, 0, 50, 40
3, 28560, Note_on_c, 0, 50, 0
3, 28560, Note_on_c, 0, 49, 41
3, 28573, Control_c, 0, 64, 0
3, 28645, Control_c, 0, 64, 127
3, 28680, Note_on_c, 0, 49, 0
3, 28680, Note_on_c, 0, 47, 36
3, 28800, Note_on_c, 0, 47, 0
3, 28800, Note_on_c, 0, 45, 45
3, 28814, Control_c, 0, 64, 0
3, 28856, Control_c, 0, 64, 127
3, 28920, Note_on_c, 0, 45, 0
3, 28920, Note_on_c, 0, 43, 40
3, 29040, Note_on_c, 0, 43, 0
3, 29040, Note_on_c, 0, 38, 41
3, 29055, Control_c, 0, 64, 0
3, 29118, Control_c, 0, 64, 127
3, 29160, Note_on_c, 0, 38, 0
3, 29160, Note_on_c, 0, 40, 36
3, 29280, Note_on_c, 0, 40, 0
3, 29280, Note_on_c, 0, 42, 48
3, 29295, Control_c, 0, 64, 0
3, 29407, Control_c, 0, 64, 127
3, 29769, Control_c, 0, 64, 0
3, 29887, Control_c, 0, 64, 127
3, 30240, Note_on_c, 0, 42, 0
3, 30240, Note_on_c, 0, 35, 31
3, 30255, Control_c, 0, 64, 0
3, 30381, Control_c, 0, 64, 127
3, 31213, Control_c, 0, 64, 0
3, 31356, Control_c, 0, 64, 127
3, 31688, Control_c, 0, 64, 0
3, 31786, Control_c, 0, 64, 127
3, 31800, Note_on_c, 0, 35, 0
3, 31800, Note_on_c, 0, 50, 27
3, 31920, Note_on_c, 0, 50, 0
3, 31920, Note_on_c, 0, 54, 31
3, 32040, Note_on_c, 0, 54, 0
3, 32040, Note_on_c, 0, 59, 35
3, 32160, Note_on_c, 0, 59, 0
3, 32160, Note_on_c, 0, 62, 40
3, 32640, Note_on_c, 0, 62, 0
3, 32640, Note_on_c, 0, 61, 38
3, 32650, Control_c, 0, 64, 0
3, 32767, Control_c, 0, 64, 127
3, 33000, Note_on_c, 0, 61, 0
3, 33000, Note_on_c, 0, 62, 33
3, 33118, Note_on_c, 0, 62, 0
3, 33120, Note_on_c, 0, 59, 36
3, 33132, Control_c, 0, 64, 0
3, 33332, Control_c, 0, 64, 127
3, 33840, Note_on_c, 0, 59, 0
3, 33840, Note_on_c, 0, 54, 28
3, 34080, Note_on_c, 0, 54, 0
3, 34080, Note_on_c, 0, 50, 25
3, 34094, Control_c, 0, 64, 0
3, 34278, Control_c, 0, 64, 127
3, 34320, Note_on_c, 0, 50, 0
3, 34320, Note_on_c, 0, 49, 21
3, 34560, Note_on_c, 0, 49, 0
3, 34560, Control_c, 0, 64, 0
3, 34560, Note_on_c, 0, 47, 21
3, 34673, Control_c, 0, 64, 127
3, 35054, Control_c, 0, 64, 0
3, 35548, Control_c, 0, 64, 127
3, 36480, Note_on_c, 0, 47, 0
3, 36762, Control_c, 0, 64, 0
3, 36762, End_track
4, 0, Start_track
4, 0, Title_t, "Chopin: Prelude No.6 in B Minor, Op. 28"
4, 0, End_track
5, 0, Start_track
5, 0, Title_t, "Copyright © 2002 by Bernd Krueger"
5, 0, End_track
6, 0, Start_track
6, 0, Title_t, "http://www.piano-midi.de"
6, 0, End_track
7, 0, Start_track
7, 0, Title_t, "Edition: 2014-02-20"
7, 0, End_track
8, 0, Start_track
8, 0, Title_t, "Spur 7"
8, 0, Control_c, 0, 7, 127
8, 0, Control_c, 0, 10, 64
8, 0, End_track
9, 0, Start_track
9, 0, Title_t, "Spur 8"
9, 0, Control_c, 0, 7, 127
9, 0, Control_c, 0, 10, 64
9, 0, End_track
0, 0, End_of_file
