0, 0, Header, 1, 8, 480
1, 0, Start_track
1, 0, Title_t, "Chopin Mazurka Opus 33 Nr. 2"
1, 0, Copyright_t, "Copyright © 2003 by Bernd Krueger "
1, 0, Text_t, "Frederic Chopin"
1, 0, Text_t, "Vivace"
1, 0, Text_t, "Fertiggestellt am 12.7.2003\012"
1, 0, Text_t, "Update am 9.7.2010\012"
1, 0, Text_t, "Update am 25.2.2014\012"
1, 0, Text_t, "Dauer: 2:23 Minuten\012"
1, 0, SMPTE_offset, 96, 0, 3, 0, 0
1, 0, Time_signature, 3, 2, 24, 8
1, 0, Key_signature, 2, "major"
1, 0, Tempo, 343859
1, 1440, Tempo, 294190
1, 1920, Tempo, 287646
1, 2400, Tempo, 297192
1, 2640, Tempo, 333797
1, 2880, Tempo, 302496
1, 3360, Tempo, 293040
1, 4320, Tempo, 287646
1, 4800, Tempo, 309837
1, 5280, Tempo, 303383
1, 5760, Tempo, 316573
1, 6240, Tempo, 331895
1, 6720, Tempo, 366345
1, 7200, Tempo, 294190
1, 7680, Tempo, 287646
1, 8160, Tempo, 297192
1, 8400, Tempo, 319166
1, 8640, Tempo, 302496
1, 9120, Tempo, 293040
1, 10080, Tempo, 287646
1, 10560, Tempo, 309837
1, 11040, Tempo, 303383
1, 11520, Tempo, 313169
1, 12000, Tempo, 317427
1, 12480, Tempo, 353024
1, 12960, Tempo, 301084
1, 13440, Tempo, 294392
1, 13920, Tempo, 304152
1, 14160, Tempo, 335721
1, 14400, Tempo, 309598
1, 14880, Tempo, 299925
1, 15840, Tempo, 294392
1, 16320, Tempo, 317108
1, 16800, Tempo, 310495
1, 17280, Tempo, 320496
1, 17760, Tempo, 341627
1, 18240, Tempo, 355177
1, 18720, Tempo, 301084
1, 19200, Tempo, 294392
1, 19680, Tempo, 304152
1, 19920, Tempo, 331895
1, 20160, Tempo, 309598
1, 20640, Tempo, 299925
1, 21600, Tempo, 294392
1, 22080, Tempo, 317108
1, 22560, Tempo, 310495
1, 23040, Tempo, 320496
1, 23520, Tempo, 324886
1, 24000, Tempo, 339635
1, 24480, Tempo, 294190
1, 24960, Tempo, 287646
1, 25440, Tempo, 297192
1, 25680, Tempo, 336700
1, 25920, Tempo, 302496
1, 26400, Tempo, 293040
1, 27360, Tempo, 287646
1, 27840, Tempo, 309837
1, 28320, Tempo, 303383
1, 28800, Tempo, 319166
1, 29280, Tempo, 330015
1, 29760, Tempo, 356252
1, 30240, Tempo, 294190
1, 30720, Tempo, 287646
1, 31200, Tempo, 297192
1, 31440, Tempo, 330015
1, 31680, Tempo, 302496
1, 32160, Tempo, 293040
1, 33120, Tempo, 287646
1, 33600, Tempo, 309837
1, 34080, Tempo, 303383
1, 34560, Tempo, 313169
1, 35040, Tempo, 325415
1, 35520, Tempo, 355177
1, 36000, Tempo, 301598
1, 36480, Tempo, 294898
1, 36960, Tempo, 314005
1, 37200, Tempo, 345682
1, 37440, Tempo, 310110
1, 37920, Tempo, 300436
1, 38880, Tempo, 294898
1, 39360, Tempo, 317645
1, 39840, Tempo, 311026
1, 40320, Tempo, 326318
1, 40800, Tempo, 337667
1, 41280, Tempo, 365186
1, 41760, Tempo, 309008
1, 42240, Tempo, 301811
1, 42720, Tempo, 310655
1, 42960, Tempo, 342642
1, 43200, Tempo, 316573
1, 43680, Tempo, 309837
1, 44640, Tempo, 301811
1, 45120, Tempo, 327243
1, 45600, Tempo, 315706
1, 46080, Tempo, 327243
1, 46560, Tempo, 335721
1, 47040, Tempo, 351947
1, 47520, Tempo, 294190
1, 48000, Tempo, 287646
1, 48480, Tempo, 297192
1, 48720, Tempo, 319166
1, 48960, Tempo, 302496
1, 49440, Tempo, 293040
1, 50400, Tempo, 287646
1, 50880, Tempo, 309837
1, 51360, Tempo, 303383
1, 51840, Tempo, 313169
1, 52320, Tempo, 317427
1, 52800, Tempo, 351947
1, 53280, Tempo, 294190
1, 53760, Tempo, 287646
1, 54240, Tempo, 297192
1, 54480, Tempo, 330015
1, 54720, Tempo, 302496
1, 55200, Tempo, 293040
1, 56160, Tempo, 287646
1, 56640, Tempo, 309837
1, 57120, Tempo, 303383
1, 57600, Tempo, 313169
1, 58080, Tempo, 323607
1, 58560, Tempo, 349834
1, 59040, Tempo, 306169
1, 59520, Tempo, 299371
1, 60000, Tempo, 309294
1, 60240, Tempo, 362911
1, 60480, Tempo, 314828
1, 60960, Tempo, 304987
1, 61920, Tempo, 299371
1, 62400, Tempo, 322459
1, 62880, Tempo, 315740
1, 63360, Tempo, 331895
1, 63840, Tempo, 342642
1, 64320, Tempo, 373390
1, 64800, Tempo, 324500
1, 65280, Tempo, 311494
1, 65760, Tempo, 317427
1, 66000, Tempo, 344669
1, 66240, Tempo, 330015
1, 66720, Tempo, 320924
1, 67680, Tempo, 312321
1, 68160, Tempo, 341627
1, 68640, Tempo, 323607
1, 69120, Tempo, 336700
1, 69600, Tempo, 354087
1, 70080, Tempo, 387047
1, 70560, Key_signature, -2, "major"
1, 70560, Tempo, 358444
1, 71520, Tempo, 375563
1, 72000, Tempo, 354087
1, 72960, Tempo, 379027
1, 73440, Tempo, 352900
1, 74400, Tempo, 368777
1, 74880, Tempo, 352900
1, 75840, Tempo, 381947
1, 76320, Tempo, 373274
1, 76680, Tempo, 343034
1, 76800, Tempo, 369914
1, 77760, Tempo, 373274
1, 78120, Tempo, 343034
1, 78240, Tempo, 369914
1, 79200, Tempo, 373274
1, 79560, Tempo, 343034
1, 79680, Tempo, 369914
1, 80160, Tempo, 380204
1, 80640, Tempo, 380204
1, 81000, Tempo, 350877
1, 81120, Tempo, 376695
1, 81600, Tempo, 396144
1, 82080, Tempo, 353899
1, 83040, Tempo, 381947
1, 83520, Tempo, 352900
1, 84480, Tempo, 379027
1, 84960, Tempo, 352900
1, 85920, Tempo, 368777
1, 86400, Tempo, 352900
1, 86880, Tempo, 367489
1, 87360, Tempo, 389636
1, 87840, Tempo, 373274
1, 88200, Tempo, 343034
1, 88320, Tempo, 369914
1, 89280, Tempo, 373274
1, 89640, Tempo, 343034
1, 89760, Tempo, 369914
1, 90720, Tempo, 373274
1, 91080, Tempo, 343034
1, 91200, Tempo, 369914
1, 91680, Tempo, 380204
1, 92160, Tempo, 380204
1, 92520, Tempo, 350877
1, 92640, Tempo, 376695
1, 93120, Tempo, 396144
1, 93600, Tempo, 288364
1, 94080, Tempo, 350898
1, 94560, Tempo, 381947
1, 94600, Tempo, 357356
1, 95040, Tempo, 304971
1, 95520, Tempo, 338658
1, 96000, Tempo, 381947
1, 96480, Tempo, 287646
1, 96960, Tempo, 338658
1, 97440, Tempo, 355177
1, 97920, Tempo, 302587
1, 98400, Tempo, 338658
1, 98880, Tempo, 357356
1, 99360, Tempo, 285524
1, 99840, Tempo, 347745
1, 100320, Tempo, 381947
1, 100360, Tempo, 359561
1, 100800, Tempo, 316573
1, 100840, Tempo, 299476
1, 101280, Tempo, 338658
1, 101760, Tempo, 358444
1, 102240, Tempo, 316573
1, 102720, Tempo, 338658
1, 103200, Tempo, 385753
1, 103680, Tempo, 342642
1, 104160, Tempo, 371012
1, 104640, Tempo, 396249
1, 105120, Tempo, 329092
1, 105600, Tempo, 347745
1, 106080, Tempo, 381947
1, 106560, Tempo, 320924
1, 107040, Tempo, 341627
1, 107520, Tempo, 364056
1, 108000, Tempo, 304971
1, 108480, Tempo, 338658
1, 108960, Tempo, 381947
1, 109000, Tempo, 367489
1, 109440, Tempo, 335721
1, 109920, Tempo, 355177
1, 110400, Tempo, 373390
1, 110880, Tempo, 316573
1, 111360, Tempo, 338658
1, 111840, Tempo, 357356
1, 112320, Tempo, 323607
1, 112800, Tempo, 346721
1, 113280, Tempo, 381947
1, 113760, Tempo, 334765
1, 114240, Tempo, 354087
1, 114720, Tempo, 381947
1, 115200, Tempo, 348797
1, 115680, Tempo, 377003
1, 116160, Tempo, 410200
1, 116640, Key_signature, 2, "major"
1, 116640, Tempo, 340638
1, 117120, Tempo, 309008
1, 117600, Tempo, 316573
1, 117840, Tempo, 349834
1, 118080, Tempo, 310655
1, 118560, Tempo, 304971
1, 119520, Tempo, 299476
1, 120000, Tempo, 316573
1, 120480, Tempo, 307377
1, 120960, Tempo, 317427
1, 121440, Tempo, 327243
1, 121920, Tempo, 353024
1, 122400, Tempo, 302587
1, 122880, Tempo, 294927
1, 123360, Tempo, 304167
1, 123600, Tempo, 336700
1, 123840, Tempo, 306576
1, 124320, Tempo, 296428
1, 125280, Tempo, 291971
1, 125760, Tempo, 313169
1, 126240, Tempo, 305764
1, 126720, Tempo, 313169
1, 127200, Tempo, 328156
1, 127680, Tempo, 358444
1, 128160, Tempo, 301084
1, 128640, Tempo, 294392
1, 129120, Tempo, 304152
1, 129360, Tempo, 339635
1, 129600, Tempo, 309598
1, 130080, Tempo, 299925
1, 131040, Tempo, 294392
1, 131520, Tempo, 317108
1, 132000, Tempo, 310495
1, 132480, Tempo, 326318
1, 132960, Tempo, 331895
1, 133440, Tempo, 359561
1, 133920, Tempo, 301084
1, 134400, Tempo, 294392
1, 134880, Tempo, 304152
1, 135120, Tempo, 345682
1, 135360, Tempo, 309598
1, 135840, Tempo, 299925
1, 136800, Tempo, 294392
1, 137280, Tempo, 317108
1, 137760, Tempo, 310495
1, 138240, Tempo, 320496
1, 138720, Tempo, 324886
1, 139200, Tempo, 346721
1, 139680, Tempo, 294190
1, 140160, Tempo, 287646
1, 140640, Tempo, 297192
1, 140880, Tempo, 330015
1, 141120, Tempo, 302496
1, 141600, Tempo, 293040
1, 142560, Tempo, 287646
1, 143040, Tempo, 309837
1, 143520, Tempo, 303383
1, 144000, Tempo, 313169
1, 144480, Tempo, 325415
1, 144960, Tempo, 350898
1, 145440, Tempo, 294190
1, 145920, Tempo, 287646
1, 146400, Tempo, 297192
1, 146640, Tempo, 327243
1, 146880, Tempo, 302496
1, 147360, Tempo, 293040
1, 148320, Tempo, 287646
1, 148800, Tempo, 309837
1, 149280, Tempo, 303383
1, 149760, Tempo, 318302
1, 150240, Tempo, 325415
1, 150720, Tempo, 346721
1, 151200, Tempo, 301598
1, 151680, Tempo, 294898
1, 152160, Tempo, 304677
1, 152400, Tempo, 334765
1, 152640, Tempo, 310110
1, 153120, Tempo, 300436
1, 154080, Tempo, 294898
1, 154560, Tempo, 317645
1, 155040, Tempo, 311026
1, 155520, Tempo, 321044
1, 156000, Tempo, 337667
1, 156480, Tempo, 350898
1, 156960, Tempo, 308198
1, 157440, Tempo, 299476
1, 157920, Tempo, 309837
1, 158160, Tempo, 332853
1, 158400, Tempo, 314005
1, 158880, Tempo, 305764
1, 159840, Tempo, 300255
1, 160320, Tempo, 327243
1, 160800, Tempo, 316573
1, 161280, Tempo, 327243
1, 161760, Tempo, 347745
1, 162720, Tempo, 294190
1, 163200, Tempo, 287646
1, 163680, Tempo, 297192
1, 163920, Tempo, 327243
1, 164160, Tempo, 302496
1, 164640, Tempo, 293040
1, 165600, Tempo, 287646
1, 166080, Tempo, 309837
1, 166560, Tempo, 303383
1, 167040, Tempo, 317427
1, 167520, Tempo, 331895
1, 168000, Tempo, 349834
1, 168480, Tempo, 294190
1, 168960, Tempo, 287646
1, 169440, Tempo, 297192
1, 169680, Tempo, 327243
1, 169920, Tempo, 302496
1, 170400, Tempo, 293040
1, 171360, Tempo, 287646
1, 171840, Tempo, 309837
1, 172320, Tempo, 303383
1, 172800, Tempo, 313169
1, 173280, Tempo, 322702
1, 173760, Tempo, 335721
1, 174240, Tempo, 306169
1, 174720, Tempo, 299371
1, 175200, Tempo, 309294
1, 175440, Tempo, 349834
1, 175680, Tempo, 314828
1, 176160, Tempo, 304987
1, 177120, Tempo, 299371
1, 177600, Tempo, 322459
1, 178080, Tempo, 315740
1, 178560, Tempo, 332853
1, 179040, Tempo, 350898
1, 179520, Tempo, 375799
1, 180000, Tempo, 323607
1, 180480, Tempo, 310655
1, 180960, Tempo, 317427
1, 181200, Tempo, 342642
1, 181440, Tempo, 329092
1, 181920, Tempo, 320924
1, 182880, Tempo, 311494
1, 183360, Tempo, 358444
1, 183840, Tempo, 331895
1, 184320, Tempo, 342642
1, 184800, Tempo, 354087
1, 185280, Tempo, 378239
1, 185760, Tempo, 332410
1, 186240, Tempo, 321716
1, 186480, Tempo, 310881
1, 186720, Tempo, 327869
1, 187200, Tempo, 333333
1, 187680, Tempo, 320856
1, 187920, Tempo, 310078
1, 188160, Tempo, 330579
1, 188640, Tempo, 326087
1, 189120, Tempo, 308483
1, 189360, Tempo, 292683
1, 189600, Tempo, 323450
1, 190080, Tempo, 326975
1, 190560, Tempo, 319166
1, 190600, Tempo, 304569
1, 190800, Tempo, 289855
1, 191040, Tempo, 323450
1, 191520, Tempo, 321819
1, 192000, Tempo, 304167
1, 192240, Tempo, 273461
1, 192480, Tempo, 309278
1, 192960, Tempo, 314961
1, 193440, Tempo, 299476
1, 193680, Tempo, 272826
1, 193920, Tempo, 317427
1, 194400, Tempo, 310881
1, 194880, Tempo, 287770
1, 195120, Tempo, 255864
1, 195360, Tempo, 313169
1, 195840, Tempo, 304569
1, 196320, Tempo, 300255
1, 196560, Tempo, 257511
1, 196800, Tempo, 306122
1, 197280, Tempo, 308483
1, 197760, Tempo, 297030
1, 198000, Tempo, 250522
1, 198240, Tempo, 300000
1, 198720, Tempo, 305344
1, 199200, Tempo, 294840
1, 199440, Tempo, 250522
1, 199680, Tempo, 297030
1, 200160, Tempo, 317292
1, 200640, Tempo, 298359
1, 200880, Tempo, 259179
1, 201120, Tempo, 308166
1, 201600, Tempo, 328407
1, 202080, Tempo, 317292
1, 202320, Tempo, 268456
1, 202560, Tempo, 318640
1, 203040, Tempo, 358209
1, 203946, Tempo, 348230
1, 204077, Tempo, 346620
1, 204208, Tempo, 345026
1, 204339, Tempo, 343446
1, 204448, Tempo, 341880
1, 204470, Tempo, 348230
1, 204492, Tempo, 349854
1, 204514, Tempo, 351494
1, 204536, Tempo, 353149
1, 204557, Tempo, 354820
1, 204579, Tempo, 356506
1, 204601, Tempo, 358209
1, 204623, Tempo, 359928
1, 204645, Tempo, 361664
1, 204666, Tempo, 363416
1, 204688, Tempo, 365186
1, 204710, Tempo, 366972
1, 204732, Tempo, 368777
1, 204754, Tempo, 370599
1, 204776, Tempo, 372439
1, 204797, Tempo, 374298
1, 204819, Tempo, 376176
1, 204841, Tempo, 378072
1, 204863, Tempo, 379987
1, 204885, Tempo, 381922
1, 204906, Tempo, 383877
1, 204928, Tempo, 385852
1, 204950, Tempo, 387847
1, 204972, Tempo, 389864
1, 204994, Tempo, 391901
1, 205016, Tempo, 393959
1, 205037, Tempo, 396040
1, 205059, Tempo, 398142
1, 205081, Tempo, 400267
1, 205103, Tempo, 402414
1, 205125, Tempo, 404585
1, 205146, Tempo, 406780
1, 205168, Tempo, 408998
1, 205190, Tempo, 411241
1, 205212, Tempo, 413508
1, 205234, Tempo, 415800
1, 205256, Tempo, 418118
1, 205277, Tempo, 420463
1, 205299, Tempo, 422833
1, 205321, Tempo, 425230
1, 205343, Tempo, 427655
1, 205365, Tempo, 430108
1, 205386, Tempo, 432588
1, 205408, Tempo, 435098
1, 205430, Tempo, 440205
1, 205452, Tempo, 445434
1, 205474, Tempo, 450789
1, 205496, Tempo, 456274
1, 205517, Tempo, 464756
1, 205539, Tempo, 470588
1, 205561, Tempo, 476569
1, 205583, Tempo, 482703
1, 205605, Tempo, 492207
1, 205626, Tempo, 498753
1, 205648, Tempo, 505476
1, 205680, Tempo, 692042
1, 205920, Tempo, 661521
1, 208800, Tempo, 582524
1, 208802, Tempo, 600000
1, 208802, End_track
2, 0, Start_track
2, 0, Title_t, "Piano right"
2, 0, Program_c, 0, 0
2, 0, Control_c, 0, 7, 100
2, 0, Control_c, 0, 10, 64
2, 0, Text_t, "bdca426d104a26ac9dcb070447587523"
2, 0, Control_c, 0, 91, 127
2, 960, Note_on_c, 0, 69, 77
2, 1440, Note_on_c, 0, 66, 68
2, 1680, Note_on_c, 0, 69, 0
2, 1680, Note_on_c, 0, 73, 70
2, 1920, Note_on_c, 0, 73, 0
2, 1920, Note_on_c, 0, 66, 0
2, 1920, Note_on_c, 0, 74, 71
2, 1920, Note_on_c, 0, 66, 60
2, 2160, Note_on_c, 0, 74, 0
2, 2160, Note_on_c, 0, 76, 71
2, 2400, Note_on_c, 0, 76, 0
2, 2400, Note_on_c, 0, 66, 0
2, 2400, Note_on_c, 0, 78, 72
2, 2400, Note_on_c, 0, 66, 61
2, 2640, Note_on_c, 0, 78, 0
2, 2640, Note_on_c, 0, 79, 73
2, 2760, Note_on_c, 0, 79, 0
2, 2760, Note_on_c, 0, 78, 70
2, 2820, Note_on_c, 0, 78, 0
2, 2820, Note_on_c, 0, 79, 68
2, 2880, Note_on_c, 0, 79, 0
2, 2880, Note_on_c, 0, 66, 0
2, 2880, Note_on_c, 0, 78, 76
2, 3360, Note_on_c, 0, 78, 0
2, 3360, Note_on_c, 0, 67, 62
2, 3360, Note_on_c, 0, 76, 74
2, 3600, Note_on_c, 0, 76, 0
2, 3600, Note_on_c, 0, 74, 74
2, 3840, Note_on_c, 0, 74, 0
2, 3840, Note_on_c, 0, 67, 0
2, 3840, Note_on_c, 0, 67, 62
2, 3840, Note_on_c, 0, 73, 73
2, 4080, Note_on_c, 0, 73, 0
2, 4080, Note_on_c, 0, 71, 72
2, 4320, Note_on_c, 0, 71, 0
2, 4320, Note_on_c, 0, 67, 0
2, 4320, Note_on_c, 0, 69, 74
2, 4560, Note_on_c, 0, 69, 0
2, 4560, Note_on_c, 0, 74, 70
2, 4800, Note_on_c, 0, 74, 0
2, 4800, Note_on_c, 0, 66, 62
2, 4800, Note_on_c, 0, 74, 74
2, 4960, Note_on_c, 0, 74, 0
2, 4960, Note_on_c, 0, 76, 70
2, 5120, Note_on_c, 0, 76, 0
2, 5120, Note_on_c, 0, 74, 70
2, 5280, Note_on_c, 0, 74, 0
2, 5280, Note_on_c, 0, 66, 0
2, 5280, Note_on_c, 0, 66, 59
2, 5280, Note_on_c, 0, 73, 70
2, 5520, Note_on_c, 0, 73, 0
2, 5520, Note_on_c, 0, 71, 70
2, 5760, Note_on_c, 0, 71, 0
2, 5760, Note_on_c, 0, 66, 0
2, 5760, Note_on_c, 0, 73, 73
2, 6240, Note_on_c, 0, 64, 44
2, 6240, Note_on_c, 0, 69, 53
2, 6720, Note_on_c, 0, 69, 0
2, 6720, Note_on_c, 0, 64, 0
2, 6720, Note_on_c, 0, 67, 57
2, 6720, Note_on_c, 0, 69, 68
2, 7200, Note_on_c, 0, 69, 0
2, 7200, Note_on_c, 0, 67, 0
2, 7200, Note_on_c, 0, 73, 0
2, 7200, Note_on_c, 0, 69, 74
2, 7440, Note_on_c, 0, 69, 0
2, 7440, Note_on_c, 0, 73, 70
2, 7680, Note_on_c, 0, 73, 0
2, 7680, Note_on_c, 0, 74, 71
2, 7680, Note_on_c, 0, 66, 60
2, 7920, Note_on_c, 0, 74, 0
2, 7920, Note_on_c, 0, 76, 71
2, 8160, Note_on_c, 0, 76, 0
2, 8160, Note_on_c, 0, 66, 0
2, 8160, Note_on_c, 0, 78, 72
2, 8160, Note_on_c, 0, 66, 61
2, 8400, Note_on_c, 0, 78, 0
2, 8400, Note_on_c, 0, 79, 73
2, 8520, Note_on_c, 0, 79, 0
2, 8520, Note_on_c, 0, 78, 70
2, 8580, Note_on_c, 0, 78, 0
2, 8580, Note_on_c, 0, 79, 68
2, 8640, Note_on_c, 0, 79, 0
2, 8640, Note_on_c, 0, 66, 0
2, 8640, Note_on_c, 0, 78, 76
2, 9120, Note_on_c, 0, 78, 0
2, 9120, Note_on_c, 0, 67, 62
2, 9120, Note_on_c, 0, 76, 74
2, 9360, Note_on_c, 0, 76, 0
2, 9360, Note_on_c, 0, 74, 74
2, 9600, Note_on_c, 0, 74, 0
2, 9600, Note_on_c, 0, 67, 0
2, 9600, Note_on_c, 0, 67, 62
2, 9600, Note_on_c, 0, 73, 73
2, 9840, Note_on_c, 0, 73, 0
2, 9840, Note_on_c, 0, 71, 72
2, 10080, Note_on_c, 0, 71, 0
2, 10080, Note_on_c, 0, 67, 0
2, 10080, Note_on_c, 0, 69, 74
2, 10320, Note_on_c, 0, 69, 0
2, 10320, Note_on_c, 0, 73, 70
2, 10560, Note_on_c, 0, 73, 0
2, 10560, Note_on_c, 0, 67, 62
2, 10560, Note_on_c, 0, 73, 74
2, 10720, Note_on_c, 0, 73, 0
2, 10720, Note_on_c, 0, 74, 70
2, 10880, Note_on_c, 0, 74, 0
2, 10880, Note_on_c, 0, 73, 70
2, 11040, Note_on_c, 0, 73, 0
2, 11040, Note_on_c, 0, 67, 0
2, 11040, Note_on_c, 0, 67, 59
2, 11040, Note_on_c, 0, 71, 70
2, 11280, Note_on_c, 0, 71, 0
2, 11280, Note_on_c, 0, 69, 70
2, 11520, Note_on_c, 0, 69, 0
2, 11520, Note_on_c, 0, 67, 0
2, 11520, Note_on_c, 0, 74, 73
2, 12000, Note_on_c, 0, 66, 53
2, 12480, Note_on_c, 0, 66, 0
2, 12480, Note_on_c, 0, 66, 47
2, 12960, Note_on_c, 0, 74, 0
2, 12960, Note_on_c, 0, 69, 40
2, 13200, Note_on_c, 0, 69, 0
2, 13200, Note_on_c, 0, 73, 39
2, 13440, Note_on_c, 0, 73, 0
2, 13440, Note_on_c, 0, 66, 0
2, 13440, Note_on_c, 0, 74, 39
2, 13440, Note_on_c, 0, 66, 33
2, 13680, Note_on_c, 0, 74, 0
2, 13680, Note_on_c, 0, 76, 39
2, 13920, Note_on_c, 0, 76, 0
2, 13920, Note_on_c, 0, 66, 0
2, 13920, Note_on_c, 0, 78, 40
2, 13920, Note_on_c, 0, 66, 33
2, 14160, Note_on_c, 0, 78, 0
2, 14160, Note_on_c, 0, 79, 40
2, 14280, Note_on_c, 0, 79, 0
2, 14280, Note_on_c, 0, 78, 39
2, 14340, Note_on_c, 0, 78, 0
2, 14340, Note_on_c, 0, 79, 37
2, 14400, Note_on_c, 0, 79, 0
2, 14400, Note_on_c, 0, 66, 0
2, 14400, Note_on_c, 0, 78, 42
2, 14880, Note_on_c, 0, 78, 0
2, 14880, Note_on_c, 0, 67, 34
2, 14880, Note_on_c, 0, 76, 40
2, 15120, Note_on_c, 0, 76, 0
2, 15120, Note_on_c, 0, 74, 40
2, 15360, Note_on_c, 0, 74, 0
2, 15360, Note_on_c, 0, 67, 0
2, 15360, Note_on_c, 0, 67, 34
2, 15360, Note_on_c, 0, 73, 40
2, 15600, Note_on_c, 0, 73, 0
2, 15600, Note_on_c, 0, 71, 40
2, 15840, Note_on_c, 0, 71, 0
2, 15840, Note_on_c, 0, 67, 0
2, 15840, Note_on_c, 0, 69, 40
2, 16080, Note_on_c, 0, 69, 0
2, 16080, Note_on_c, 0, 74, 39
2, 16320, Note_on_c, 0, 74, 0
2, 16320, Note_on_c, 0, 66, 34
2, 16320, Note_on_c, 0, 74, 40
2, 16480, Note_on_c, 0, 74, 0
2, 16480, Note_on_c, 0, 76, 39
2, 16640, Note_on_c, 0, 76, 0
2, 16640, Note_on_c, 0, 74, 39
2, 16800, Note_on_c, 0, 74, 0
2, 16800, Note_on_c, 0, 66, 0
2, 16800, Note_on_c, 0, 66, 32
2, 16800, Note_on_c, 0, 73, 39
2, 17040, Note_on_c, 0, 73, 0
2, 17040, Note_on_c, 0, 71, 39
2, 17280, Note_on_c, 0, 71, 0
2, 17280, Note_on_c, 0, 66, 0
2, 17280, Note_on_c, 0, 73, 40
2, 17760, Note_on_c, 0, 64, 24
2, 17760, Note_on_c, 0, 69, 29
2, 18240, Note_on_c, 0, 69, 0
2, 18240, Note_on_c, 0, 64, 0
2, 18240, Note_on_c, 0, 67, 31
2, 18240, Note_on_c, 0, 69, 37
2, 18720, Note_on_c, 0, 69, 0
2, 18720, Note_on_c, 0, 67, 0
2, 18720, Note_on_c, 0, 73, 0
2, 18720, Note_on_c, 0, 69, 40
2, 18960, Note_on_c, 0, 69, 0
2, 18960, Note_on_c, 0, 73, 39
2, 19200, Note_on_c, 0, 73, 0
2, 19200, Note_on_c, 0, 74, 39
2, 19200, Note_on_c, 0, 66, 33
2, 19440, Note_on_c, 0, 74, 0
2, 19440, Note_on_c, 0, 76, 39
2, 19680, Note_on_c, 0, 76, 0
2, 19680, Note_on_c, 0, 66, 0
2, 19680, Note_on_c, 0, 78, 40
2, 19680, Note_on_c, 0, 66, 33
2, 19920, Note_on_c, 0, 78, 0
2, 19920, Note_on_c, 0, 79, 40
2, 20040, Note_on_c, 0, 79, 0
2, 20040, Note_on_c, 0, 78, 39
2, 20100, Note_on_c, 0, 78, 0
2, 20100, Note_on_c, 0, 79, 37
2, 20160, Note_on_c, 0, 79, 0
2, 20160, Note_on_c, 0, 66, 0
2, 20160, Note_on_c, 0, 78, 42
2, 20640, Note_on_c, 0, 78, 0
2, 20640, Note_on_c, 0, 67, 34
2, 20640, Note_on_c, 0, 76, 40
2, 20880, Note_on_c, 0, 76, 0
2, 20880, Note_on_c, 0, 74, 40
2, 21120, Note_on_c, 0, 74, 0
2, 21120, Note_on_c, 0, 67, 0
2, 21120, Note_on_c, 0, 67, 34
2, 21120, Note_on_c, 0, 73, 40
2, 21360, Note_on_c, 0, 73, 0
2, 21360, Note_on_c, 0, 71, 40
2, 21600, Note_on_c, 0, 71, 0
2, 21600, Note_on_c, 0, 67, 0
2, 21600, Note_on_c, 0, 69, 40
2, 21840, Note_on_c, 0, 69, 0
2, 21840, Note_on_c, 0, 73, 39
2, 22080, Note_on_c, 0, 73, 0
2, 22080, Note_on_c, 0, 67, 34
2, 22080, Note_on_c, 0, 73, 40
2, 22240, Note_on_c, 0, 73, 0
2, 22240, Note_on_c, 0, 74, 39
2, 22400, Note_on_c, 0, 74, 0
2, 22400, Note_on_c, 0, 73, 39
2, 22560, Note_on_c, 0, 73, 0
2, 22560, Note_on_c, 0, 67, 0
2, 22560, Note_on_c, 0, 67, 32
2, 22560, Note_on_c, 0, 71, 39
2, 22800, Note_on_c, 0, 71, 0
2, 22800, Note_on_c, 0, 69, 39
2, 23040, Note_on_c, 0, 69, 0
2, 23040, Note_on_c, 0, 67, 0
2, 23040, Note_on_c, 0, 74, 40
2, 23520, Note_on_c, 0, 66, 29
2, 24000, Note_on_c, 0, 66, 0
2, 24000, Note_on_c, 0, 66, 37
2, 24480, Note_on_c, 0, 66, 0
2, 24480, Note_on_c, 0, 74, 0
2, 24480, Note_on_c, 0, 64, 73
2, 24720, Note_on_c, 0, 64, 0
2, 24720, Note_on_c, 0, 68, 70
2, 24960, Note_on_c, 0, 68, 0
2, 24960, Note_on_c, 0, 69, 71
2, 24960, Note_on_c, 0, 61, 60
2, 25200, Note_on_c, 0, 69, 0
2, 25200, Note_on_c, 0, 71, 71
2, 25440, Note_on_c, 0, 71, 0
2, 25440, Note_on_c, 0, 61, 0
2, 25440, Note_on_c, 0, 73, 72
2, 25440, Note_on_c, 0, 61, 61
2, 25680, Note_on_c, 0, 73, 0
2, 25680, Note_on_c, 0, 74, 73
2, 25800, Note_on_c, 0, 74, 0
2, 25800, Note_on_c, 0, 73, 70
2, 25860, Note_on_c, 0, 73, 0
2, 25860, Note_on_c, 0, 74, 68
2, 25920, Note_on_c, 0, 74, 0
2, 25920, Note_on_c, 0, 61, 0
2, 25920, Note_on_c, 0, 73, 76
2, 26400, Note_on_c, 0, 73, 0
2, 26400, Note_on_c, 0, 62, 62
2, 26400, Note_on_c, 0, 71, 74
2, 26640, Note_on_c, 0, 71, 0
2, 26640, Note_on_c, 0, 69, 74
2, 26880, Note_on_c, 0, 69, 0
2, 26880, Note_on_c, 0, 62, 0
2, 26880, Note_on_c, 0, 62, 62
2, 26880, Note_on_c, 0, 68, 73
2, 27120, Note_on_c, 0, 68, 0
2, 27120, Note_on_c, 0, 66, 72
2, 27360, Note_on_c, 0, 66, 0
2, 27360, Note_on_c, 0, 62, 0
2, 27360, Note_on_c, 0, 64, 74
2, 27600, Note_on_c, 0, 64, 0
2, 27600, Note_on_c, 0, 69, 70
2, 27840, Note_on_c, 0, 69, 0
2, 27840, Note_on_c, 0, 61, 62
2, 27840, Note_on_c, 0, 69, 74
2, 28000, Note_on_c, 0, 69, 0
2, 28000, Note_on_c, 0, 71, 70
2, 28160, Note_on_c, 0, 71, 0
2, 28160, Note_on_c, 0, 69, 70
2, 28320, Note_on_c, 0, 69, 0
2, 28320, Note_on_c, 0, 61, 0
2, 28320, Note_on_c, 0, 61, 59
2, 28320, Note_on_c, 0, 68, 70
2, 28560, Note_on_c, 0, 68, 0
2, 28560, Note_on_c, 0, 66, 70
2, 28800, Note_on_c, 0, 66, 0
2, 28800, Note_on_c, 0, 61, 0
2, 28800, Note_on_c, 0, 68, 73
2, 29280, Note_on_c, 0, 59, 44
2, 29280, Note_on_c, 0, 64, 53
2, 29760, Note_on_c, 0, 64, 0
2, 29760, Note_on_c, 0, 59, 0
2, 29760, Note_on_c, 0, 62, 57
2, 29760, Note_on_c, 0, 64, 68
2, 30240, Note_on_c, 0, 64, 0
2, 30240, Note_on_c, 0, 62, 0
2, 30240, Note_on_c, 0, 68, 0
2, 30240, Note_on_c, 0, 64, 74
2, 30480, Note_on_c, 0, 64, 0
2, 30480, Note_on_c, 0, 68, 70
2, 30720, Note_on_c, 0, 68, 0
2, 30720, Note_on_c, 0, 69, 71
2, 30720, Note_on_c, 0, 61, 60
2, 30960, Note_on_c, 0, 69, 0
2, 30960, Note_on_c, 0, 71, 71
2, 31200, Note_on_c, 0, 71, 0
2, 31200, Note_on_c, 0, 61, 0
2, 31200, Note_on_c, 0, 73, 72
2, 31200, Note_on_c, 0, 61, 61
2, 31440, Note_on_c, 0, 73, 0
2, 31440, Note_on_c, 0, 74, 73
2, 31560, Note_on_c, 0, 74, 0
2, 31560, Note_on_c, 0, 73, 70
2, 31620, Note_on_c, 0, 73, 0
2, 31620, Note_on_c, 0, 74, 68
2, 31680, Note_on_c, 0, 74, 0
2, 31680, Note_on_c, 0, 61, 0
2, 31680, Note_on_c, 0, 73, 76
2, 32160, Note_on_c, 0, 73, 0
2, 32160, Note_on_c, 0, 62, 62
2, 32160, Note_on_c, 0, 71, 74
2, 32400, Note_on_c, 0, 71, 0
2, 32400, Note_on_c, 0, 69, 74
2, 32640, Note_on_c, 0, 69, 0
2, 32640, Note_on_c, 0, 62, 0
2, 32640, Note_on_c, 0, 62, 62
2, 32640, Note_on_c, 0, 68, 73
2, 32880, Note_on_c, 0, 68, 0
2, 32880, Note_on_c, 0, 66, 72
2, 33120, Note_on_c, 0, 66, 0
2, 33120, Note_on_c, 0, 62, 0
2, 33120, Note_on_c, 0, 64, 74
2, 33360, Note_on_c, 0, 64, 0
2, 33360, Note_on_c, 0, 68, 70
2, 33600, Note_on_c, 0, 68, 0
2, 33600, Note_on_c, 0, 62, 62
2, 33600, Note_on_c, 0, 68, 74
2, 33760, Note_on_c, 0, 68, 0
2, 33760, Note_on_c, 0, 69, 70
2, 33920, Note_on_c, 0, 69, 0
2, 33920, Note_on_c, 0, 68, 70
2, 34080, Note_on_c, 0, 68, 0
2, 34080, Note_on_c, 0, 62, 0
2, 34080, Note_on_c, 0, 62, 59
2, 34080, Note_on_c, 0, 66, 70
2, 34320, Note_on_c, 0, 66, 0
2, 34320, Note_on_c, 0, 64, 70
2, 34560, Note_on_c, 0, 64, 0
2, 34560, Note_on_c, 0, 62, 0
2, 34560, Note_on_c, 0, 69, 73
2, 35040, Note_on_c, 0, 61, 53
2, 35520, Note_on_c, 0, 61, 0
2, 35520, Note_on_c, 0, 61, 47
2, 36000, Note_on_c, 0, 69, 0
2, 36000, Note_on_c, 0, 64, 40
2, 36240, Note_on_c, 0, 64, 0
2, 36240, Note_on_c, 0, 68, 39
2, 36480, Note_on_c, 0, 68, 0
2, 36480, Note_on_c, 0, 61, 0
2, 36480, Note_on_c, 0, 69, 39
2, 36480, Note_on_c, 0, 61, 33
2, 36720, Note_on_c, 0, 69, 0
2, 36720, Note_on_c, 0, 71, 39
2, 36960, Note_on_c, 0, 71, 0
2, 36960, Note_on_c, 0, 61, 0
2, 36960, Note_on_c, 0, 73, 40
2, 36960, Note_on_c, 0, 61, 33
2, 37200, Note_on_c, 0, 73, 0
2, 37200, Note_on_c, 0, 74, 40
2, 37320, Note_on_c, 0, 74, 0
2, 37320, Note_on_c, 0, 73, 39
2, 37380, Note_on_c, 0, 73, 0
2, 37380, Note_on_c, 0, 74, 37
2, 37440, Note_on_c, 0, 74, 0
2, 37440, Note_on_c, 0, 61, 0
2, 37440, Note_on_c, 0, 73, 42
2, 37920, Note_on_c, 0, 73, 0
2, 37920, Note_on_c, 0, 62, 34
2, 37920, Note_on_c, 0, 71, 40
2, 38160, Note_on_c, 0, 71, 0
2, 38160, Note_on_c, 0, 69, 40
2, 38400, Note_on_c, 0, 69, 0
2, 38400, Note_on_c, 0, 62, 0
2, 38400, Note_on_c, 0, 62, 34
2, 38400, Note_on_c, 0, 68, 40
2, 38640, Note_on_c, 0, 68, 0
2, 38640, Note_on_c, 0, 66, 40
2, 38880, Note_on_c, 0, 66, 0
2, 38880, Note_on_c, 0, 62, 0
2, 38880, Note_on_c, 0, 64, 40
2, 39120, Note_on_c, 0, 64, 0
2, 39120, Note_on_c, 0, 69, 39
2, 39360, Note_on_c, 0, 69, 0
2, 39360, Note_on_c, 0, 61, 34
2, 39360, Note_on_c, 0, 69, 40
2, 39520, Note_on_c, 0, 69, 0
2, 39520, Note_on_c, 0, 71, 39
2, 39680, Note_on_c, 0, 71, 0
2, 39680, Note_on_c, 0, 69, 39
2, 39840, Note_on_c, 0, 69, 0
2, 39840, Note_on_c, 0, 61, 0
2, 39840, Note_on_c, 0, 61, 32
2, 39840, Note_on_c, 0, 68, 39
2, 40080, Note_on_c, 0, 68, 0
2, 40080, Note_on_c, 0, 66, 39
2, 40320, Note_on_c, 0, 66, 0
2, 40320, Note_on_c, 0, 61, 0
2, 40320, Note_on_c, 0, 68, 40
2, 40800, Note_on_c, 0, 59, 24
2, 40800, Note_on_c, 0, 64, 29
2, 41280, Note_on_c, 0, 64, 0
2, 41280, Note_on_c, 0, 59, 0
2, 41280, Note_on_c, 0, 62, 31
2, 41280, Note_on_c, 0, 64, 37
2, 41760, Note_on_c, 0, 64, 0
2, 41760, Note_on_c, 0, 62, 0
2, 41760, Note_on_c, 0, 68, 0
2, 41760, Note_on_c, 0, 64, 40
2, 42000, Note_on_c, 0, 64, 0
2, 42000, Note_on_c, 0, 68, 39
2, 42240, Note_on_c, 0, 68, 0
2, 42240, Note_on_c, 0, 69, 39
2, 42240, Note_on_c, 0, 61, 33
2, 42480, Note_on_c, 0, 69, 0
2, 42480, Note_on_c, 0, 71, 39
2, 42720, Note_on_c, 0, 71, 0
2, 42720, Note_on_c, 0, 61, 0
2, 42720, Note_on_c, 0, 73, 40
2, 42720, Note_on_c, 0, 61, 33
2, 42960, Note_on_c, 0, 73, 0
2, 42960, Note_on_c, 0, 74, 40
2, 43080, Note_on_c, 0, 74, 0
2, 43080, Note_on_c, 0, 73, 39
2, 43140, Note_on_c, 0, 73, 0
2, 43140, Note_on_c, 0, 74, 37
2, 43200, Note_on_c, 0, 74, 0
2, 43200, Note_on_c, 0, 61, 0
2, 43200, Note_on_c, 0, 73, 42
2, 43680, Note_on_c, 0, 73, 0
2, 43680, Note_on_c, 0, 62, 34
2, 43680, Note_on_c, 0, 71, 40
2, 43920, Note_on_c, 0, 71, 0
2, 43920, Note_on_c, 0, 69, 40
2, 44160, Note_on_c, 0, 69, 0
2, 44160, Note_on_c, 0, 62, 0
2, 44160, Note_on_c, 0, 62, 34
2, 44160, Note_on_c, 0, 68, 40
2, 44400, Note_on_c, 0, 68, 0
2, 44400, Note_on_c, 0, 66, 40
2, 44640, Note_on_c, 0, 66, 0
2, 44640, Note_on_c, 0, 62, 0
2, 44640, Note_on_c, 0, 64, 40
2, 44880, Note_on_c, 0, 64, 0
2, 44880, Note_on_c, 0, 68, 39
2, 45120, Note_on_c, 0, 68, 0
2, 45120, Note_on_c, 0, 62, 34
2, 45120, Note_on_c, 0, 68, 40
2, 45280, Note_on_c, 0, 68, 0
2, 45280, Note_on_c, 0, 69, 39
2, 45440, Note_on_c, 0, 69, 0
2, 45440, Note_on_c, 0, 68, 39
2, 45600, Note_on_c, 0, 68, 0
2, 45600, Note_on_c, 0, 62, 0
2, 45600, Note_on_c, 0, 62, 32
2, 45600, Note_on_c, 0, 66, 39
2, 45840, Note_on_c, 0, 66, 0
2, 45840, Note_on_c, 0, 64, 39
2, 46080, Note_on_c, 0, 64, 0
2, 46080, Note_on_c, 0, 62, 0
2, 46080, Note_on_c, 0, 69, 40
2, 46560, Note_on_c, 0, 61, 37
2, 47040, Note_on_c, 0, 61, 0
2, 47040, Note_on_c, 0, 67, 73
2, 47040, Note_on_c, 0, 61, 73
2, 47520, Note_on_c, 0, 61, 0
2, 47520, Note_on_c, 0, 67, 0
2, 47520, Note_on_c, 0, 66, 78
2, 47760, Note_on_c, 0, 69, 0
2, 47760, Note_on_c, 0, 73, 80
2, 48000, Note_on_c, 0, 73, 0
2, 48000, Note_on_c, 0, 66, 0
2, 48000, Note_on_c, 0, 74, 81
2, 48000, Note_on_c, 0, 66, 69
2, 48240, Note_on_c, 0, 74, 0
2, 48240, Note_on_c, 0, 76, 81
2, 48480, Note_on_c, 0, 76, 0
2, 48480, Note_on_c, 0, 66, 0
2, 48480, Note_on_c, 0, 78, 82
2, 48480, Note_on_c, 0, 66, 70
2, 48720, Note_on_c, 0, 78, 0
2, 48720, Note_on_c, 0, 79, 83
2, 48840, Note_on_c, 0, 79, 0
2, 48840, Note_on_c, 0, 78, 80
2, 48900, Note_on_c, 0, 78, 0
2, 48900, Note_on_c, 0, 79, 78
2, 48960, Note_on_c, 0, 79, 0
2, 48960, Note_on_c, 0, 66, 0
2, 48960, Note_on_c, 0, 78, 87
2, 49440, Note_on_c, 0, 78, 0
2, 49440, Note_on_c, 0, 67, 71
2, 49440, Note_on_c, 0, 76, 85
2, 49680, Note_on_c, 0, 76, 0
2, 49680, Note_on_c, 0, 74, 85
2, 49920, Note_on_c, 0, 74, 0
2, 49920, Note_on_c, 0, 67, 0
2, 49920, Note_on_c, 0, 67, 71
2, 49920, Note_on_c, 0, 73, 83
2, 50160, Note_on_c, 0, 73, 0
2, 50160, Note_on_c, 0, 71, 82
2, 50400, Note_on_c, 0, 71, 0
2, 50400, Note_on_c, 0, 67, 0
2, 50400, Note_on_c, 0, 69, 85
2, 50640, Note_on_c, 0, 69, 0
2, 50640, Note_on_c, 0, 74, 80
2, 50880, Note_on_c, 0, 74, 0
2, 50880, Note_on_c, 0, 66, 71
2, 50880, Note_on_c, 0, 74, 85
2, 51040, Note_on_c, 0, 74, 0
2, 51040, Note_on_c, 0, 76, 80
2, 51200, Note_on_c, 0, 76, 0
2, 51200, Note_on_c, 0, 74, 80
2, 51360, Note_on_c, 0, 74, 0
2, 51360, Note_on_c, 0, 66, 0
2, 51360, Note_on_c, 0, 66, 67
2, 51360, Note_on_c, 0, 73, 80
2, 51600, Note_on_c, 0, 73, 0
2, 51600, Note_on_c, 0, 71, 80
2, 51840, Note_on_c, 0, 71, 0
2, 51840, Note_on_c, 0, 66, 0
2, 51840, Note_on_c, 0, 73, 83
2, 52320, Note_on_c, 0, 64, 50
2, 52320, Note_on_c, 0, 69, 60
2, 52800, Note_on_c, 0, 69, 0
2, 52800, Note_on_c, 0, 64, 0
2, 52800, Note_on_c, 0, 67, 65
2, 52800, Note_on_c, 0, 69, 78
2, 53280, Note_on_c, 0, 69, 0
2, 53280, Note_on_c, 0, 67, 0
2, 53280, Note_on_c, 0, 73, 0
2, 53280, Note_on_c, 0, 69, 85
2, 53520, Note_on_c, 0, 69, 0
2, 53520, Note_on_c, 0, 73, 80
2, 53760, Note_on_c, 0, 73, 0
2, 53760, Note_on_c, 0, 74, 81
2, 53760, Note_on_c, 0, 66, 69
2, 54000, Note_on_c, 0, 74, 0
2, 54000, Note_on_c, 0, 76, 81
2, 54240, Note_on_c, 0, 76, 0
2, 54240, Note_on_c, 0, 66, 0
2, 54240, Note_on_c, 0, 78, 82
2, 54240, Note_on_c, 0, 66, 70
2, 54480, Note_on_c, 0, 78, 0
2, 54480, Note_on_c, 0, 79, 83
2, 54600, Note_on_c, 0, 79, 0
2, 54600, Note_on_c, 0, 78, 80
2, 54660, Note_on_c, 0, 78, 0
2, 54660, Note_on_c, 0, 79, 78
2, 54720, Note_on_c, 0, 79, 0
2, 54720, Note_on_c, 0, 66, 0
2, 54720, Note_on_c, 0, 78, 87
2, 55200, Note_on_c, 0, 78, 0
2, 55200, Note_on_c, 0, 67, 71
2, 55200, Note_on_c, 0, 76, 85
2, 55440, Note_on_c, 0, 76, 0
2, 55440, Note_on_c, 0, 74, 85
2, 55680, Note_on_c, 0, 74, 0
2, 55680, Note_on_c, 0, 67, 0
2, 55680, Note_on_c, 0, 67, 71
2, 55680, Note_on_c, 0, 73, 83
2, 55920, Note_on_c, 0, 73, 0
2, 55920, Note_on_c, 0, 71, 82
2, 56160, Note_on_c, 0, 71, 0
2, 56160, Note_on_c, 0, 67, 0
2, 56160, Note_on_c, 0, 69, 85
2, 56400, Note_on_c, 0, 69, 0
2, 56400, Note_on_c, 0, 73, 80
2, 56640, Note_on_c, 0, 73, 0
2, 56640, Note_on_c, 0, 67, 71
2, 56640, Note_on_c, 0, 73, 85
2, 56800, Note_on_c, 0, 73, 0
2, 56800, Note_on_c, 0, 74, 80
2, 56960, Note_on_c, 0, 74, 0
2, 56960, Note_on_c, 0, 73, 80
2, 57120, Note_on_c, 0, 73, 0
2, 57120, Note_on_c, 0, 67, 0
2, 57120, Note_on_c, 0, 67, 67
2, 57120, Note_on_c, 0, 71, 80
2, 57360, Note_on_c, 0, 71, 0
2, 57360, Note_on_c, 0, 69, 80
2, 57600, Note_on_c, 0, 69, 0
2, 57600, Note_on_c, 0, 67, 0
2, 57600, Note_on_c, 0, 74, 83
2, 58080, Note_on_c, 0, 66, 60
2, 58560, Note_on_c, 0, 66, 0
2, 58560, Note_on_c, 0, 66, 54
2, 59040, Note_on_c, 0, 74, 0
2, 59040, Note_on_c, 0, 69, 40
2, 59280, Note_on_c, 0, 69, 0
2, 59280, Note_on_c, 0, 73, 39
2, 59520, Note_on_c, 0, 73, 0
2, 59520, Note_on_c, 0, 66, 0
2, 59520, Note_on_c, 0, 74, 39
2, 59520, Note_on_c, 0, 66, 33
2, 59760, Note_on_c, 0, 74, 0
2, 59760, Note_on_c, 0, 76, 39
2, 60000, Note_on_c, 0, 76, 0
2, 60000, Note_on_c, 0, 66, 0
2, 60000, Note_on_c, 0, 78, 40
2, 60000, Note_on_c, 0, 66, 33
2, 60240, Note_on_c, 0, 78, 0
2, 60240, Note_on_c, 0, 79, 40
2, 60360, Note_on_c, 0, 79, 0
2, 60360, Note_on_c, 0, 78, 39
2, 60420, Note_on_c, 0, 78, 0
2, 60420, Note_on_c, 0, 79, 37
2, 60480, Note_on_c, 0, 79, 0
2, 60480, Note_on_c, 0, 66, 0
2, 60480, Note_on_c, 0, 78, 42
2, 60960, Note_on_c, 0, 78, 0
2, 60960, Note_on_c, 0, 67, 34
2, 60960, Note_on_c, 0, 76, 40
2, 61200, Note_on_c, 0, 76, 0
2, 61200, Note_on_c, 0, 74, 40
2, 61440, Note_on_c, 0, 74, 0
2, 61440, Note_on_c, 0, 67, 0
2, 61440, Note_on_c, 0, 67, 34
2, 61440, Note_on_c, 0, 73, 40
2, 61680, Note_on_c, 0, 73, 0
2, 61680, Note_on_c, 0, 71, 40
2, 61920, Note_on_c, 0, 71, 0
2, 61920, Note_on_c, 0, 67, 0
2, 61920, Note_on_c, 0, 69, 40
2, 62160, Note_on_c, 0, 69, 0
2, 62160, Note_on_c, 0, 74, 39
2, 62400, Note_on_c, 0, 74, 0
2, 62400, Note_on_c, 0, 66, 34
2, 62400, Note_on_c, 0, 74, 40
2, 62560, Note_on_c, 0, 74, 0
2, 62560, Note_on_c, 0, 76, 39
2, 62720, Note_on_c, 0, 76, 0
2, 62720, Note_on_c, 0, 74, 39
2, 62880, Note_on_c, 0, 74, 0
2, 62880, Note_on_c, 0, 66, 0
2, 62880, Note_on_c, 0, 66, 32
2, 62880, Note_on_c, 0, 73, 39
2, 63120, Note_on_c, 0, 73, 0
2, 63120, Note_on_c, 0, 71, 39
2, 63360, Note_on_c, 0, 71, 0
2, 63360, Note_on_c, 0, 66, 0
2, 63360, Note_on_c, 0, 73, 40
2, 63840, Note_on_c, 0, 64, 24
2, 63840, Note_on_c, 0, 69, 29
2, 64320, Note_on_c, 0, 69, 0
2, 64320, Note_on_c, 0, 64, 0
2, 64320, Note_on_c, 0, 67, 31
2, 64320, Note_on_c, 0, 69, 37
2, 64800, Note_on_c, 0, 69, 0
2, 64800, Note_on_c, 0, 67, 0
2, 64800, Note_on_c, 0, 73, 0
2, 64800, Note_on_c, 0, 69, 40
2, 65040, Note_on_c, 0, 69, 0
2, 65040, Note_on_c, 0, 73, 39
2, 65280, Note_on_c, 0, 73, 0
2, 65280, Note_on_c, 0, 74, 39
2, 65280, Note_on_c, 0, 66, 33
2, 65520, Note_on_c, 0, 74, 0
2, 65520, Note_on_c, 0, 76, 39
2, 65760, Note_on_c, 0, 76, 0
2, 65760, Note_on_c, 0, 66, 0
2, 65760, Note_on_c, 0, 78, 40
2, 65760, Note_on_c, 0, 66, 33
2, 66000, Note_on_c, 0, 78, 0
2, 66000, Note_on_c, 0, 79, 40
2, 66120, Note_on_c, 0, 79, 0
2, 66120, Note_on_c, 0, 78, 39
2, 66180, Note_on_c, 0, 78, 0
2, 66180, Note_on_c, 0, 79, 37
2, 66240, Note_on_c, 0, 79, 0
2, 66240, Note_on_c, 0, 66, 0
2, 66240, Note_on_c, 0, 78, 42
2, 66720, Note_on_c, 0, 78, 0
2, 66720, Note_on_c, 0, 67, 34
2, 66720, Note_on_c, 0, 76, 40
2, 66960, Note_on_c, 0, 76, 0
2, 66960, Note_on_c, 0, 74, 40
2, 67200, Note_on_c, 0, 74, 0
2, 67200, Note_on_c, 0, 67, 0
2, 67200, Note_on_c, 0, 67, 34
2, 67200, Note_on_c, 0, 73, 40
2, 67440, Note_on_c, 0, 73, 0
2, 67440, Note_on_c, 0, 71, 40
2, 67680, Note_on_c, 0, 71, 0
2, 67680, Note_on_c, 0, 67, 0
2, 67680, Note_on_c, 0, 69, 40
2, 67920, Note_on_c, 0, 69, 0
2, 67920, Note_on_c, 0, 73, 39
2, 68160, Note_on_c, 0, 73, 0
2, 68160, Note_on_c, 0, 67, 34
2, 68160, Note_on_c, 0, 73, 40
2, 68320, Note_on_c, 0, 73, 0
2, 68320, Note_on_c, 0, 74, 39
2, 68480, Note_on_c, 0, 74, 0
2, 68480, Note_on_c, 0, 73, 39
2, 68640, Note_on_c, 0, 73, 0
2, 68640, Note_on_c, 0, 67, 0
2, 68640, Note_on_c, 0, 67, 32
2, 68640, Note_on_c, 0, 71, 39
2, 68880, Note_on_c, 0, 71, 0
2, 68880, Note_on_c, 0, 69, 39
2, 69120, Note_on_c, 0, 69, 0
2, 69120, Note_on_c, 0, 67, 0
2, 69120, Note_on_c, 0, 74, 40
2, 69600, Note_on_c, 0, 66, 29
2, 70080, Note_on_c, 0, 66, 0
2, 70080, Note_on_c, 0, 66, 37
2, 70560, Note_on_c, 0, 66, 0
2, 70560, Note_on_c, 0, 65, 54
2, 70920, Note_on_c, 0, 74, 0
2, 70920, Note_on_c, 0, 74, 58
2, 71040, Note_on_c, 0, 74, 0
2, 71040, Note_on_c, 0, 75, 62
2, 71520, Note_on_c, 0, 75, 0
2, 71520, Note_on_c, 0, 65, 0
2, 71520, Note_on_c, 0, 70, 42
2, 71520, Note_on_c, 0, 76, 55
2, 72000, Note_on_c, 0, 76, 0
2, 72000, Note_on_c, 0, 79, 64
2, 72360, Note_on_c, 0, 79, 0
2, 72360, Note_on_c, 0, 77, 60
2, 72480, Note_on_c, 0, 77, 0
2, 72480, Note_on_c, 0, 70, 0
2, 72480, Note_on_c, 0, 69, 49
2, 72480, Note_on_c, 0, 72, 64
2, 72720, Note_on_c, 0, 69, 0
2, 72720, Note_on_c, 0, 67, 47
2, 72960, Note_on_c, 0, 67, 0
2, 72960, Note_on_c, 0, 72, 0
2, 72960, Note_on_c, 0, 65, 48
2, 72960, Note_on_c, 0, 72, 57
2, 73440, Note_on_c, 0, 72, 0
2, 73440, Note_on_c, 0, 74, 64
2, 73800, Note_on_c, 0, 74, 0
2, 73800, Note_on_c, 0, 74, 64
2, 73920, Note_on_c, 0, 74, 0
2, 73920, Note_on_c, 0, 65, 0
2, 73920, Note_on_c, 0, 65, 50
2, 73920, Note_on_c, 0, 70, 50
2, 73920, Note_on_c, 0, 75, 69
2, 74400, Note_on_c, 0, 75, 0
2, 74400, Note_on_c, 0, 70, 0
2, 74400, Note_on_c, 0, 65, 0
2, 74400, Note_on_c, 0, 65, 51
2, 74400, Note_on_c, 0, 70, 51
2, 74400, Note_on_c, 0, 76, 61
2, 74880, Note_on_c, 0, 76, 0
2, 74880, Note_on_c, 0, 70, 0
2, 74880, Note_on_c, 0, 72, 52
2, 74880, Note_on_c, 0, 79, 71
2, 75240, Note_on_c, 0, 79, 0
2, 75240, Note_on_c, 0, 77, 66
2, 75360, Note_on_c, 0, 77, 0
2, 75360, Note_on_c, 0, 72, 0
2, 75360, Note_on_c, 0, 65, 0
2, 75360, Note_on_c, 0, 65, 59
2, 75360, Note_on_c, 0, 72, 71
2, 75840, Note_on_c, 0, 65, 0
2, 75840, Note_on_c, 0, 69, 67
2, 75840, Note_on_c, 0, 77, 81
2, 76320, Note_on_c, 0, 77, 0
2, 76320, Note_on_c, 0, 69, 0
2, 76320, Note_on_c, 0, 72, 0
2, 76320, Note_on_c, 0, 76, 73
2, 76320, Note_on_c, 0, 70, 69
2, 76320, Note_on_c, 0, 82, 86
2, 76560, Note_on_c, 0, 82, 0
2, 76560, Note_on_c, 0, 70, 0
2, 76560, Note_on_c, 0, 76, 0
2, 76680, Note_on_c, 0, 70, 66
2, 76680, Note_on_c, 0, 76, 69
2, 76680, Note_on_c, 0, 82, 82
2, 76800, Note_on_c, 0, 82, 0
2, 76800, Note_on_c, 0, 76, 0
2, 76800, Note_on_c, 0, 70, 0
2, 76800, Note_on_c, 0, 70, 70
2, 76800, Note_on_c, 0, 76, 72
2, 76800, Note_on_c, 0, 82, 85
2, 77280, Note_on_c, 0, 82, 0
2, 77280, Note_on_c, 0, 76, 0
2, 77280, Note_on_c, 0, 70, 0
2, 77280, Note_on_c, 0, 70, 70
2, 77280, Note_on_c, 0, 76, 70
2, 77280, Note_on_c, 0, 82, 83
2, 77760, Note_on_c, 0, 82, 0
2, 77760, Note_on_c, 0, 76, 0
2, 77760, Note_on_c, 0, 70, 0
2, 77760, Note_on_c, 0, 77, 73
2, 77760, Note_on_c, 0, 70, 73
2, 77760, Note_on_c, 0, 82, 86
2, 78000, Note_on_c, 0, 82, 0
2, 78000, Note_on_c, 0, 70, 0
2, 78000, Note_on_c, 0, 77, 0
2, 78120, Note_on_c, 0, 70, 69
2, 78120, Note_on_c, 0, 77, 69
2, 78120, Note_on_c, 0, 82, 82
2, 78240, Note_on_c, 0, 82, 0
2, 78240, Note_on_c, 0, 77, 0
2, 78240, Note_on_c, 0, 70, 0
2, 78240, Note_on_c, 0, 70, 72
2, 78240, Note_on_c, 0, 77, 72
2, 78240, Note_on_c, 0, 82, 85
2, 78720, Note_on_c, 0, 82, 0
2, 78720, Note_on_c, 0, 77, 0
2, 78720, Note_on_c, 0, 70, 0
2, 78720, Note_on_c, 0, 69, 67
2, 78720, Note_on_c, 0, 77, 70
2, 78720, Note_on_c, 0, 81, 83
2, 79200, Note_on_c, 0, 81, 0
2, 79200, Note_on_c, 0, 77, 0
2, 79200, Note_on_c, 0, 69, 0
2, 79200, Note_on_c, 0, 76, 64
2, 79200, Note_on_c, 0, 70, 64
2, 79200, Note_on_c, 0, 81, 78
2, 79440, Note_on_c, 0, 81, 0
2, 79440, Note_on_c, 0, 70, 0
2, 79440, Note_on_c, 0, 76, 0
2, 79560, Note_on_c, 0, 70, 61
2, 79560, Note_on_c, 0, 76, 61
2, 79560, Note_on_c, 0, 81, 73
2, 79680, Note_on_c, 0, 81, 0
2, 79680, Note_on_c, 0, 76, 0
2, 79680, Note_on_c, 0, 70, 0
2, 79680, Note_on_c, 0, 70, 63
2, 79680, Note_on_c, 0, 76, 63
2, 79680, Note_on_c, 0, 81, 76
2, 80160, Note_on_c, 0, 81, 0
2, 80160, Note_on_c, 0, 76, 0
2, 80160, Note_on_c, 0, 70, 0
2, 80160, Note_on_c, 0, 70, 60
2, 80160, Note_on_c, 0, 76, 60
2, 80160, Note_on_c, 0, 79, 72
2, 80640, Note_on_c, 0, 79, 0
2, 80640, Note_on_c, 0, 76, 0
2, 80640, Note_on_c, 0, 70, 0
2, 80640, Note_on_c, 0, 75, 58
2, 80640, Note_on_c, 0, 69, 58
2, 80640, Note_on_c, 0, 79, 70
2, 80880, Note_on_c, 0, 79, 0
2, 80880, Note_on_c, 0, 69, 0
2, 80880, Note_on_c, 0, 75, 0
2, 81000, Note_on_c, 0, 69, 52
2, 81000, Note_on_c, 0, 75, 52
2, 81000, Note_on_c, 0, 79, 62
2, 81120, Note_on_c, 0, 79, 0
2, 81120, Note_on_c, 0, 75, 0
2, 81120, Note_on_c, 0, 69, 0
2, 81120, Note_on_c, 0, 69, 54
2, 81120, Note_on_c, 0, 75, 54
2, 81120, Note_on_c, 0, 79, 64
2, 81600, Note_on_c, 0, 79, 0
2, 81600, Note_on_c, 0, 75, 0
2, 81600, Note_on_c, 0, 69, 0
2, 81600, Note_on_c, 0, 69, 46
2, 81600, Note_on_c, 0, 75, 46
2, 81600, Note_on_c, 0, 77, 56
2, 82080, Note_on_c, 0, 77, 0
2, 82080, Note_on_c, 0, 75, 0
2, 82080, Note_on_c, 0, 69, 0
2, 82080, Note_on_c, 0, 74, 61
2, 82440, Note_on_c, 0, 74, 0
2, 82440, Note_on_c, 0, 74, 58
2, 82560, Note_on_c, 0, 74, 0
2, 82560, Note_on_c, 0, 65, 45
2, 82560, Note_on_c, 0, 70, 45
2, 82560, Note_on_c, 0, 75, 62
2, 83040, Note_on_c, 0, 75, 0
2, 83040, Note_on_c, 0, 70, 0
2, 83040, Note_on_c, 0, 65, 0
2, 83040, Note_on_c, 0, 65, 46
2, 83040, Note_on_c, 0, 70, 46
2, 83040, Note_on_c, 0, 76, 55
2, 83520, Note_on_c, 0, 76, 0
2, 83520, Note_on_c, 0, 70, 0
2, 83520, Note_on_c, 0, 65, 0
2, 83520, Note_on_c, 0, 78, 64
2, 83880, Note_on_c, 0, 78, 0
2, 83880, Note_on_c, 0, 77, 60
2, 84000, Note_on_c, 0, 77, 0
2, 84000, Note_on_c, 0, 65, 53
2, 84000, Note_on_c, 0, 72, 64
2, 84360, Note_on_c, 0, 65, 0
2, 84360, Note_on_c, 0, 66, 47
2, 84480, Note_on_c, 0, 66, 0
2, 84480, Note_on_c, 0, 72, 0
2, 84480, Note_on_c, 0, 65, 48
2, 84480, Note_on_c, 0, 72, 57
2, 84960, Note_on_c, 0, 72, 0
2, 84960, Note_on_c, 0, 65, 0
2, 84960, Note_on_c, 0, 73, 68
2, 85320, Note_on_c, 0, 73, 0
2, 85320, Note_on_c, 0, 73, 64
2, 85440, Note_on_c, 0, 73, 0
2, 85440, Note_on_c, 0, 65, 50
2, 85440, Note_on_c, 0, 70, 50
2, 85440, Note_on_c, 0, 75, 69
2, 85920, Note_on_c, 0, 75, 0
2, 85920, Note_on_c, 0, 70, 0
2, 85920, Note_on_c, 0, 65, 0
2, 85920, Note_on_c, 0, 65, 50
2, 85920, Note_on_c, 0, 70, 50
2, 85920, Note_on_c, 0, 76, 60
2, 86400, Note_on_c, 0, 76, 0
2, 86400, Note_on_c, 0, 70, 0
2, 86400, Note_on_c, 0, 65, 0
2, 86400, Note_on_c, 0, 78, 74
2, 86760, Note_on_c, 0, 78, 0
2, 86760, Note_on_c, 0, 77, 72
2, 86880, Note_on_c, 0, 77, 0
2, 86880, Note_on_c, 0, 73, 62
2, 86880, Note_on_c, 0, 68, 62
2, 86880, Note_on_c, 0, 80, 75
2, 87360, Note_on_c, 0, 80, 0
2, 87360, Note_on_c, 0, 68, 0
2, 87360, Note_on_c, 0, 73, 0
2, 87360, Note_on_c, 0, 73, 73
2, 87360, Note_on_c, 0, 85, 89
2, 87840, Note_on_c, 0, 85, 0
2, 87840, Note_on_c, 0, 73, 0
2, 87840, Note_on_c, 0, 72, 80
2, 87840, Note_on_c, 0, 66, 80
2, 87840, Note_on_c, 0, 78, 94
2, 88080, Note_on_c, 0, 78, 0
2, 88080, Note_on_c, 0, 66, 0
2, 88080, Note_on_c, 0, 72, 0
2, 88200, Note_on_c, 0, 66, 75
2, 88200, Note_on_c, 0, 72, 75
2, 88200, Note_on_c, 0, 78, 90
2, 88320, Note_on_c, 0, 78, 0
2, 88320, Note_on_c, 0, 72, 0
2, 88320, Note_on_c, 0, 66, 0
2, 88320, Note_on_c, 0, 66, 79
2, 88320, Note_on_c, 0, 72, 79
2, 88320, Note_on_c, 0, 78, 93
2, 88800, Note_on_c, 0, 78, 0
2, 88800, Note_on_c, 0, 72, 0
2, 88800, Note_on_c, 0, 66, 0
2, 88800, Note_on_c, 0, 66, 75
2, 88800, Note_on_c, 0, 72, 75
2, 88800, Note_on_c, 0, 78, 90
2, 89280, Note_on_c, 0, 78, 0
2, 89280, Note_on_c, 0, 72, 0
2, 89280, Note_on_c, 0, 66, 0
2, 89280, Note_on_c, 0, 73, 79
2, 89280, Note_on_c, 0, 66, 79
2, 89280, Note_on_c, 0, 78, 93
2, 89520, Note_on_c, 0, 78, 0
2, 89520, Note_on_c, 0, 66, 0
2, 89520, Note_on_c, 0, 73, 0
2, 89640, Note_on_c, 0, 66, 73
2, 89640, Note_on_c, 0, 73, 73
2, 89640, Note_on_c, 0, 78, 88
2, 89760, Note_on_c, 0, 78, 0
2, 89760, Note_on_c, 0, 73, 0
2, 89760, Note_on_c, 0, 66, 0
2, 89760, Note_on_c, 0, 66, 77
2, 89760, Note_on_c, 0, 73, 77
2, 89760, Note_on_c, 0, 78, 91
2, 90240, Note_on_c, 0, 78, 0
2, 90240, Note_on_c, 0, 73, 0
2, 90240, Note_on_c, 0, 66, 0
2, 90240, Note_on_c, 0, 65, 73
2, 90240, Note_on_c, 0, 73, 73
2, 90240, Note_on_c, 0, 77, 88
2, 90720, Note_on_c, 0, 77, 0
2, 90720, Note_on_c, 0, 73, 0
2, 90720, Note_on_c, 0, 65, 0
2, 90720, Note_on_c, 0, 72, 67
2, 90720, Note_on_c, 0, 66, 67
2, 90720, Note_on_c, 0, 77, 81
2, 90960, Note_on_c, 0, 77, 0
2, 90960, Note_on_c, 0, 66, 0
2, 90960, Note_on_c, 0, 72, 0
2, 91080, Note_on_c, 0, 66, 63
2, 91080, Note_on_c, 0, 72, 63
2, 91080, Note_on_c, 0, 77, 76
2, 91200, Note_on_c, 0, 77, 0
2, 91200, Note_on_c, 0, 72, 0
2, 91200, Note_on_c, 0, 66, 0
2, 91200, Note_on_c, 0, 66, 59
2, 91200, Note_on_c, 0, 72, 65
2, 91200, Note_on_c, 0, 77, 77
2, 91680, Note_on_c, 0, 77, 0
2, 91680, Note_on_c, 0, 72, 0
2, 91680, Note_on_c, 0, 66, 0
2, 91680, Note_on_c, 0, 66, 63
2, 91680, Note_on_c, 0, 72, 63
2, 91680, Note_on_c, 0, 75, 74
2, 92160, Note_on_c, 0, 75, 0
2, 92160, Note_on_c, 0, 72, 0
2, 92160, Note_on_c, 0, 66, 0
2, 92160, Note_on_c, 0, 66, 59
2, 92160, Note_on_c, 0, 75, 72
2, 92400, Note_on_c, 0, 75, 0
2, 92400, Note_on_c, 0, 66, 0
2, 92520, Note_on_c, 0, 66, 53
2, 92520, Note_on_c, 0, 68, 53
2, 92520, Note_on_c, 0, 75, 63
2, 92640, Note_on_c, 0, 75, 0
2, 92640, Note_on_c, 0, 68, 0
2, 92640, Note_on_c, 0, 66, 0
2, 92640, Note_on_c, 0, 66, 55
2, 92640, Note_on_c, 0, 68, 55
2, 92640, Note_on_c, 0, 75, 65
2, 93120, Note_on_c, 0, 75, 0
2, 93120, Note_on_c, 0, 66, 0
2, 93120, Note_on_c, 0, 65, 46
2, 93120, Note_on_c, 0, 73, 56
2, 93600, Note_on_c, 0, 73, 0
2, 93600, Note_on_c, 0, 65, 0
2, 93600, Note_on_c, 0, 68, 0
2, 93600, Note_on_c, 0, 68, 52
2, 93600, Note_on_c, 0, 74, 62
2, 93760, Note_on_c, 0, 74, 0
2, 93760, Note_on_c, 0, 68, 0
2, 93760, Note_on_c, 0, 62, 56
2, 93920, Note_on_c, 0, 62, 0
2, 93920, Note_on_c, 0, 68, 47
2, 93920, Note_on_c, 0, 74, 56
2, 94080, Note_on_c, 0, 62, 66
2, 94560, Note_on_c, 0, 62, 0
2, 94560, Note_on_c, 0, 74, 0
2, 94560, Note_on_c, 0, 62, 58
2, 94560, Note_on_c, 0, 74, 63
2, 95040, Note_on_c, 0, 74, 0
2, 95040, Note_on_c, 0, 62, 0
2, 95040, Note_on_c, 0, 68, 0
2, 95040, Note_on_c, 0, 69, 56
2, 95040, Note_on_c, 0, 74, 66
2, 95200, Note_on_c, 0, 74, 0
2, 95200, Note_on_c, 0, 69, 0
2, 95200, Note_on_c, 0, 62, 59
2, 95360, Note_on_c, 0, 62, 0
2, 95360, Note_on_c, 0, 69, 50
2, 95360, Note_on_c, 0, 74, 60
2, 95520, Note_on_c, 0, 62, 70
2, 96240, Note_on_c, 0, 62, 0
2, 96240, Note_on_c, 0, 74, 0
2, 96240, Note_on_c, 0, 61, 60
2, 96240, Note_on_c, 0, 73, 64
2, 96480, Note_on_c, 0, 73, 0
2, 96480, Note_on_c, 0, 61, 0
2, 96480, Note_on_c, 0, 69, 0
2, 96480, Note_on_c, 0, 68, 59
2, 96480, Note_on_c, 0, 74, 70
2, 96640, Note_on_c, 0, 74, 0
2, 96640, Note_on_c, 0, 68, 0
2, 96640, Note_on_c, 0, 62, 63
2, 96800, Note_on_c, 0, 62, 0
2, 96800, Note_on_c, 0, 68, 53
2, 96800, Note_on_c, 0, 74, 63
2, 96960, Note_on_c, 0, 62, 74
2, 97440, Note_on_c, 0, 62, 0
2, 97440, Note_on_c, 0, 74, 0
2, 97440, Note_on_c, 0, 62, 65
2, 97440, Note_on_c, 0, 74, 70
2, 97920, Note_on_c, 0, 74, 0
2, 97920, Note_on_c, 0, 62, 0
2, 97920, Note_on_c, 0, 68, 0
2, 97920, Note_on_c, 0, 69, 62
2, 97920, Note_on_c, 0, 74, 74
2, 98080, Note_on_c, 0, 74, 0
2, 98080, Note_on_c, 0, 69, 0
2, 98080, Note_on_c, 0, 62, 66
2, 98240, Note_on_c, 0, 62, 0
2, 98240, Note_on_c, 0, 69, 56
2, 98240, Note_on_c, 0, 74, 67
2, 98400, Note_on_c, 0, 62, 78
2, 99120, Note_on_c, 0, 62, 0
2, 99120, Note_on_c, 0, 74, 0
2, 99120, Note_on_c, 0, 61, 67
2, 99120, Note_on_c, 0, 73, 72
2, 99360, Note_on_c, 0, 73, 0
2, 99360, Note_on_c, 0, 61, 0
2, 99360, Note_on_c, 0, 69, 0
2, 99360, Note_on_c, 0, 68, 66
2, 99360, Note_on_c, 0, 74, 78
2, 99520, Note_on_c, 0, 74, 0
2, 99520, Note_on_c, 0, 68, 0
2, 99520, Note_on_c, 0, 62, 70
2, 99680, Note_on_c, 0, 62, 0
2, 99680, Note_on_c, 0, 68, 59
2, 99680, Note_on_c, 0, 74, 70
2, 99840, Note_on_c, 0, 62, 82
2, 100320, Note_on_c, 0, 62, 0
2, 100320, Note_on_c, 0, 74, 0
2, 100320, Note_on_c, 0, 62, 70
2, 100320, Note_on_c, 0, 74, 76
2, 100800, Note_on_c, 0, 74, 0
2, 100800, Note_on_c, 0, 62, 0
2, 100800, Note_on_c, 0, 68, 0
2, 100800, Note_on_c, 0, 69, 66
2, 100800, Note_on_c, 0, 74, 78
2, 100960, Note_on_c, 0, 74, 0
2, 100960, Note_on_c, 0, 69, 0
2, 100960, Note_on_c, 0, 62, 70
2, 101120, Note_on_c, 0, 62, 0
2, 101120, Note_on_c, 0, 69, 59
2, 101120, Note_on_c, 0, 74, 70
2, 101280, Note_on_c, 0, 62, 82
2, 102000, Note_on_c, 0, 62, 0
2, 102000, Note_on_c, 0, 74, 0
2, 102000, Note_on_c, 0, 61, 68
2, 102000, Note_on_c, 0, 73, 73
2, 102240, Note_on_c, 0, 73, 0
2, 102240, Note_on_c, 0, 61, 0
2, 102240, Note_on_c, 0, 69, 0
2, 102240, Note_on_c, 0, 68, 66
2, 102240, Note_on_c, 0, 74, 78
2, 102400, Note_on_c, 0, 74, 0
2, 102400, Note_on_c, 0, 68, 0
2, 102400, Note_on_c, 0, 62, 70
2, 102560, Note_on_c, 0, 62, 0
2, 102560, Note_on_c, 0, 68, 59
2, 102560, Note_on_c, 0, 74, 70
2, 102720, Note_on_c, 0, 62, 82
2, 103200, Note_on_c, 0, 62, 0
2, 103200, Note_on_c, 0, 74, 0
2, 103200, Note_on_c, 0, 62, 70
2, 103200, Note_on_c, 0, 74, 76
2, 103680, Note_on_c, 0, 74, 0
2, 103680, Note_on_c, 0, 62, 0
2, 103680, Note_on_c, 0, 68, 0
2, 103680, Note_on_c, 0, 69, 66
2, 103680, Note_on_c, 0, 74, 78
2, 103840, Note_on_c, 0, 74, 0
2, 103840, Note_on_c, 0, 69, 0
2, 103840, Note_on_c, 0, 62, 70
2, 104000, Note_on_c, 0, 62, 0
2, 104000, Note_on_c, 0, 69, 59
2, 104000, Note_on_c, 0, 74, 70
2, 104160, Note_on_c, 0, 62, 82
2, 104880, Note_on_c, 0, 62, 0
2, 104880, Note_on_c, 0, 74, 0
2, 104880, Note_on_c, 0, 61, 68
2, 104880, Note_on_c, 0, 73, 73
2, 105120, Note_on_c, 0, 73, 0
2, 105120, Note_on_c, 0, 61, 0
2, 105120, Note_on_c, 0, 69, 0
2, 105120, Note_on_c, 0, 68, 52
2, 105120, Note_on_c, 0, 74, 62
2, 105280, Note_on_c, 0, 74, 0
2, 105280, Note_on_c, 0, 68, 0
2, 105280, Note_on_c, 0, 62, 56
2, 105440, Note_on_c, 0, 62, 0
2, 105440, Note_on_c, 0, 68, 47
2, 105440, Note_on_c, 0, 74, 56
2, 105600, Note_on_c, 0, 62, 65
2, 106080, Note_on_c, 0, 62, 0
2, 106080, Note_on_c, 0, 74, 0
2, 106080, Note_on_c, 0, 62, 56
2, 106080, Note_on_c, 0, 74, 61
2, 106560, Note_on_c, 0, 74, 0
2, 106560, Note_on_c, 0, 62, 0
2, 106560, Note_on_c, 0, 68, 0
2, 106560, Note_on_c, 0, 69, 54
2, 106560, Note_on_c, 0, 74, 63
2, 106720, Note_on_c, 0, 74, 0
2, 106720, Note_on_c, 0, 69, 0
2, 106720, Note_on_c, 0, 62, 57
2, 106880, Note_on_c, 0, 62, 0
2, 106880, Note_on_c, 0, 69, 48
2, 106880, Note_on_c, 0, 74, 58
2, 107040, Note_on_c, 0, 62, 68
2, 107760, Note_on_c, 0, 62, 0
2, 107760, Note_on_c, 0, 74, 0
2, 107760, Note_on_c, 0, 61, 57
2, 107760, Note_on_c, 0, 73, 61
2, 108000, Note_on_c, 0, 73, 0
2, 108000, Note_on_c, 0, 61, 0
2, 108000, Note_on_c, 0, 69, 0
2, 108000, Note_on_c, 0, 68, 56
2, 108000, Note_on_c, 0, 74, 66
2, 108160, Note_on_c, 0, 74, 0
2, 108160, Note_on_c, 0, 68, 0
2, 108160, Note_on_c, 0, 62, 59
2, 108320, Note_on_c, 0, 62, 0
2, 108320, Note_on_c, 0, 68, 50
2, 108320, Note_on_c, 0, 74, 59
2, 108480, Note_on_c, 0, 62, 69
2, 108960, Note_on_c, 0, 62, 0
2, 108960, Note_on_c, 0, 74, 0
2, 108960, Note_on_c, 0, 62, 60
2, 108960, Note_on_c, 0, 74, 65
2, 109440, Note_on_c, 0, 74, 0
2, 109440, Note_on_c, 0, 62, 0
2, 109440, Note_on_c, 0, 68, 0
2, 109440, Note_on_c, 0, 69, 57
2, 109440, Note_on_c, 0, 74, 67
2, 109600, Note_on_c, 0, 74, 0
2, 109600, Note_on_c, 0, 69, 0
2, 109600, Note_on_c, 0, 62, 60
2, 109760, Note_on_c, 0, 62, 0
2, 109760, Note_on_c, 0, 69, 51
2, 109760, Note_on_c, 0, 74, 61
2, 109920, Note_on_c, 0, 62, 72
2, 110640, Note_on_c, 0, 62, 0
2, 110640, Note_on_c, 0, 74, 0
2, 110640, Note_on_c, 0, 61, 60
2, 110640, Note_on_c, 0, 73, 64
2, 110880, Note_on_c, 0, 73, 0
2, 110880, Note_on_c, 0, 61, 0
2, 110880, Note_on_c, 0, 69, 0
2, 110880, Note_on_c, 0, 68, 59
2, 110880, Note_on_c, 0, 74, 70
2, 111040, Note_on_c, 0, 74, 0
2, 111040, Note_on_c, 0, 68, 0
2, 111040, Note_on_c, 0, 62, 63
2, 111200, Note_on_c, 0, 62, 0
2, 111200, Note_on_c, 0, 68, 53
2, 111200, Note_on_c, 0, 74, 63
2, 111360, Note_on_c, 0, 62, 73
2, 111840, Note_on_c, 0, 62, 0
2, 111840, Note_on_c, 0, 74, 0
2, 111840, Note_on_c, 0, 62, 63
2, 111840, Note_on_c, 0, 74, 68
2, 112320, Note_on_c, 0, 74, 0
2, 112320, Note_on_c, 0, 62, 0
2, 112320, Note_on_c, 0, 68, 0
2, 112320, Note_on_c, 0, 69, 59
2, 112320, Note_on_c, 0, 74, 70
2, 112480, Note_on_c, 0, 74, 0
2, 112480, Note_on_c, 0, 69, 0
2, 112480, Note_on_c, 0, 62, 63
2, 112640, Note_on_c, 0, 62, 0
2, 112640, Note_on_c, 0, 69, 53
2, 112640, Note_on_c, 0, 74, 63
2, 112800, Note_on_c, 0, 62, 73
2, 113520, Note_on_c, 0, 62, 0
2, 113520, Note_on_c, 0, 74, 0
2, 113520, Note_on_c, 0, 61, 61
2, 113520, Note_on_c, 0, 73, 65
2, 113760, Note_on_c, 0, 73, 0
2, 113760, Note_on_c, 0, 61, 0
2, 113760, Note_on_c, 0, 69, 0
2, 113760, Note_on_c, 0, 68, 59
2, 113760, Note_on_c, 0, 74, 70
2, 113920, Note_on_c, 0, 74, 0
2, 113920, Note_on_c, 0, 68, 0
2, 113920, Note_on_c, 0, 62, 63
2, 114080, Note_on_c, 0, 62, 0
2, 114080, Note_on_c, 0, 68, 52
2, 114080, Note_on_c, 0, 74, 62
2, 114240, Note_on_c, 0, 62, 72
2, 114720, Note_on_c, 0, 62, 0
2, 114720, Note_on_c, 0, 74, 0
2, 114720, Note_on_c, 0, 62, 59
2, 114720, Note_on_c, 0, 74, 64
2, 115200, Note_on_c, 0, 74, 0
2, 115200, Note_on_c, 0, 62, 0
2, 115200, Note_on_c, 0, 68, 0
2, 115200, Note_on_c, 0, 67, 54
2, 115200, Note_on_c, 0, 74, 64
2, 115360, Note_on_c, 0, 74, 0
2, 115360, Note_on_c, 0, 67, 0
2, 115360, Note_on_c, 0, 62, 57
2, 115520, Note_on_c, 0, 62, 0
2, 115520, Note_on_c, 0, 67, 47
2, 115520, Note_on_c, 0, 74, 56
2, 115680, Note_on_c, 0, 62, 65
2, 116160, Note_on_c, 0, 62, 0
2, 116160, Note_on_c, 0, 61, 53
2, 116400, Note_on_c, 0, 74, 0
2, 116400, Note_on_c, 0, 73, 56
2, 116640, Note_on_c, 0, 73, 0
2, 116640, Note_on_c, 0, 61, 0
2, 116640, Note_on_c, 0, 67, 0
2, 116640, Note_on_c, 0, 69, 68
2, 116880, Note_on_c, 0, 69, 0
2, 116880, Note_on_c, 0, 73, 70
2, 117120, Note_on_c, 0, 73, 0
2, 117120, Note_on_c, 0, 74, 71
2, 117120, Note_on_c, 0, 66, 60
2, 117360, Note_on_c, 0, 74, 0
2, 117360, Note_on_c, 0, 76, 71
2, 117600, Note_on_c, 0, 76, 0
2, 117600, Note_on_c, 0, 66, 0
2, 117600, Note_on_c, 0, 78, 72
2, 117600, Note_on_c, 0, 66, 61
2, 117840, Note_on_c, 0, 78, 0
2, 117840, Note_on_c, 0, 79, 73
2, 117960, Note_on_c, 0, 79, 0
2, 117960, Note_on_c, 0, 78, 70
2, 118020, Note_on_c, 0, 78, 0
2, 118020, Note_on_c, 0, 79, 68
2, 118080, Note_on_c, 0, 79, 0
2, 118080, Note_on_c, 0, 66, 0
2, 118080, Note_on_c, 0, 78, 76
2, 118560, Note_on_c, 0, 78, 0
2, 118560, Note_on_c, 0, 67, 62
2, 118560, Note_on_c, 0, 76, 74
2, 118800, Note_on_c, 0, 76, 0
2, 118800, Note_on_c, 0, 74, 74
2, 119040, Note_on_c, 0, 74, 0
2, 119040, Note_on_c, 0, 67, 0
2, 119040, Note_on_c, 0, 67, 62
2, 119040, Note_on_c, 0, 73, 73
2, 119280, Note_on_c, 0, 73, 0
2, 119280, Note_on_c, 0, 71, 72
2, 119520, Note_on_c, 0, 71, 0
2, 119520, Note_on_c, 0, 67, 0
2, 119520, Note_on_c, 0, 69, 74
2, 119760, Note_on_c, 0, 69, 0
2, 119760, Note_on_c, 0, 74, 70
2, 120000, Note_on_c, 0, 74, 0
2, 120000, Note_on_c, 0, 66, 62
2, 120000, Note_on_c, 0, 74, 74
2, 120160, Note_on_c, 0, 74, 0
2, 120160, Note_on_c, 0, 76, 70
2, 120320, Note_on_c, 0, 76, 0
2, 120320, Note_on_c, 0, 74, 70
2, 120480, Note_on_c, 0, 74, 0
2, 120480, Note_on_c, 0, 66, 0
2, 120480, Note_on_c, 0, 66, 59
2, 120480, Note_on_c, 0, 73, 70
2, 120720, Note_on_c, 0, 73, 0
2, 120720, Note_on_c, 0, 71, 70
2, 120960, Note_on_c, 0, 71, 0
2, 120960, Note_on_c, 0, 66, 0
2, 120960, Note_on_c, 0, 73, 73
2, 121440, Note_on_c, 0, 64, 44
2, 121440, Note_on_c, 0, 69, 53
2, 121920, Note_on_c, 0, 69, 0
2, 121920, Note_on_c, 0, 64, 0
2, 121920, Note_on_c, 0, 67, 57
2, 121920, Note_on_c, 0, 69, 68
2, 122400, Note_on_c, 0, 69, 0
2, 122400, Note_on_c, 0, 67, 0
2, 122400, Note_on_c, 0, 73, 0
2, 122400, Note_on_c, 0, 69, 74
2, 122640, Note_on_c, 0, 69, 0
2, 122640, Note_on_c, 0, 73, 70
2, 122880, Note_on_c, 0, 73, 0
2, 122880, Note_on_c, 0, 74, 71
2, 122880, Note_on_c, 0, 66, 60
2, 123120, Note_on_c, 0, 74, 0
2, 123120, Note_on_c, 0, 76, 71
2, 123360, Note_on_c, 0, 76, 0
2, 123360, Note_on_c, 0, 66, 0
2, 123360, Note_on_c, 0, 78, 72
2, 123360, Note_on_c, 0, 66, 61
2, 123600, Note_on_c, 0, 78, 0
2, 123600, Note_on_c, 0, 79, 73
2, 123720, Note_on_c, 0, 79, 0
2, 123720, Note_on_c, 0, 78, 70
2, 123780, Note_on_c, 0, 78, 0
2, 123780, Note_on_c, 0, 79, 68
2, 123840, Note_on_c, 0, 79, 0
2, 123840, Note_on_c, 0, 66, 0
2, 123840, Note_on_c, 0, 78, 76
2, 124320, Note_on_c, 0, 78, 0
2, 124320, Note_on_c, 0, 67, 62
2, 124320, Note_on_c, 0, 76, 74
2, 124560, Note_on_c, 0, 76, 0
2, 124560, Note_on_c, 0, 74, 74
2, 124800, Note_on_c, 0, 74, 0
2, 124800, Note_on_c, 0, 67, 0
2, 124800, Note_on_c, 0, 67, 62
2, 124800, Note_on_c, 0, 73, 73
2, 125040, Note_on_c, 0, 73, 0
2, 125040, Note_on_c, 0, 71, 72
2, 125280, Note_on_c, 0, 71, 0
2, 125280, Note_on_c, 0, 67, 0
2, 125280, Note_on_c, 0, 69, 74
2, 125520, Note_on_c, 0, 69, 0
2, 125520, Note_on_c, 0, 73, 70
2, 125760, Note_on_c, 0, 73, 0
2, 125760, Note_on_c, 0, 67, 62
2, 125760, Note_on_c, 0, 73, 74
2, 125920, Note_on_c, 0, 73, 0
2, 125920, Note_on_c, 0, 74, 70
2, 126080, Note_on_c, 0, 74, 0
2, 126080, Note_on_c, 0, 73, 70
2, 126240, Note_on_c, 0, 73, 0
2, 126240, Note_on_c, 0, 67, 0
2, 126240, Note_on_c, 0, 67, 59
2, 126240, Note_on_c, 0, 71, 70
2, 126480, Note_on_c, 0, 71, 0
2, 126480, Note_on_c, 0, 69, 70
2, 126720, Note_on_c, 0, 69, 0
2, 126720, Note_on_c, 0, 67, 0
2, 126720, Note_on_c, 0, 74, 73
2, 127200, Note_on_c, 0, 66, 53
2, 127680, Note_on_c, 0, 66, 0
2, 127680, Note_on_c, 0, 66, 47
2, 128160, Note_on_c, 0, 74, 0
2, 128160, Note_on_c, 0, 69, 40
2, 128400, Note_on_c, 0, 69, 0
2, 128400, Note_on_c, 0, 73, 39
2, 128640, Note_on_c, 0, 73, 0
2, 128640, Note_on_c, 0, 66, 0
2, 128640, Note_on_c, 0, 74, 39
2, 128640, Note_on_c, 0, 66, 33
2, 128880, Note_on_c, 0, 74, 0
2, 128880, Note_on_c, 0, 76, 39
2, 129120, Note_on_c, 0, 76, 0
2, 129120, Note_on_c, 0, 66, 0
2, 129120, Note_on_c, 0, 78, 40
2, 129120, Note_on_c, 0, 66, 33
2, 129360, Note_on_c, 0, 78, 0
2, 129360, Note_on_c, 0, 79, 40
2, 129480, Note_on_c, 0, 79, 0
2, 129480, Note_on_c, 0, 78, 39
2, 129540, Note_on_c, 0, 78, 0
2, 129540, Note_on_c, 0, 79, 37
2, 129600, Note_on_c, 0, 79, 0
2, 129600, Note_on_c, 0, 66, 0
2, 129600, Note_on_c, 0, 78, 42
2, 130080, Note_on_c, 0, 78, 0
2, 130080, Note_on_c, 0, 67, 34
2, 130080, Note_on_c, 0, 76, 40
2, 130320, Note_on_c, 0, 76, 0
2, 130320, Note_on_c, 0, 74, 40
2, 130560, Note_on_c, 0, 74, 0
2, 130560, Note_on_c, 0, 67, 0
2, 130560, Note_on_c, 0, 67, 34
2, 130560, Note_on_c, 0, 73, 40
2, 130800, Note_on_c, 0, 73, 0
2, 130800, Note_on_c, 0, 71, 40
2, 131040, Note_on_c, 0, 71, 0
2, 131040, Note_on_c, 0, 67, 0
2, 131040, Note_on_c, 0, 69, 40
2, 131280, Note_on_c, 0, 69, 0
2, 131280, Note_on_c, 0, 74, 39
2, 131520, Note_on_c, 0, 74, 0
2, 131520, Note_on_c, 0, 66, 34
2, 131520, Note_on_c, 0, 74, 40
2, 131680, Note_on_c, 0, 74, 0
2, 131680, Note_on_c, 0, 76, 39
2, 131840, Note_on_c, 0, 76, 0
2, 131840, Note_on_c, 0, 74, 39
2, 132000, Note_on_c, 0, 74, 0
2, 132000, Note_on_c, 0, 66, 0
2, 132000, Note_on_c, 0, 66, 32
2, 132000, Note_on_c, 0, 73, 39
2, 132240, Note_on_c, 0, 73, 0
2, 132240, Note_on_c, 0, 71, 39
2, 132480, Note_on_c, 0, 71, 0
2, 132480, Note_on_c, 0, 66, 0
2, 132480, Note_on_c, 0, 73, 40
2, 132960, Note_on_c, 0, 64, 24
2, 132960, Note_on_c, 0, 69, 29
2, 133440, Note_on_c, 0, 69, 0
2, 133440, Note_on_c, 0, 64, 0
2, 133440, Note_on_c, 0, 67, 31
2, 133440, Note_on_c, 0, 69, 37
2, 133920, Note_on_c, 0, 69, 0
2, 133920, Note_on_c, 0, 67, 0
2, 133920, Note_on_c, 0, 73, 0
2, 133920, Note_on_c, 0, 69, 40
2, 134160, Note_on_c, 0, 69, 0
2, 134160, Note_on_c, 0, 73, 39
2, 134400, Note_on_c, 0, 73, 0
2, 134400, Note_on_c, 0, 74, 39
2, 134400, Note_on_c, 0, 66, 33
2, 134640, Note_on_c, 0, 74, 0
2, 134640, Note_on_c, 0, 76, 39
2, 134880, Note_on_c, 0, 76, 0
2, 134880, Note_on_c, 0, 66, 0
2, 134880, Note_on_c, 0, 78, 40
2, 134880, Note_on_c, 0, 66, 33
2, 135120, Note_on_c, 0, 78, 0
2, 135120, Note_on_c, 0, 79, 40
2, 135240, Note_on_c, 0, 79, 0
2, 135240, Note_on_c, 0, 78, 39
2, 135300, Note_on_c, 0, 78, 0
2, 135300, Note_on_c, 0, 79, 37
2, 135360, Note_on_c, 0, 79, 0
2, 135360, Note_on_c, 0, 66, 0
2, 135360, Note_on_c, 0, 78, 42
2, 135840, Note_on_c, 0, 78, 0
2, 135840, Note_on_c, 0, 67, 34
2, 135840, Note_on_c, 0, 76, 40
2, 136080, Note_on_c, 0, 76, 0
2, 136080, Note_on_c, 0, 74, 40
2, 136320, Note_on_c, 0, 74, 0
2, 136320, Note_on_c, 0, 67, 0
2, 136320, Note_on_c, 0, 67, 34
2, 136320, Note_on_c, 0, 73, 40
2, 136560, Note_on_c, 0, 73, 0
2, 136560, Note_on_c, 0, 71, 40
2, 136800, Note_on_c, 0, 71, 0
2, 136800, Note_on_c, 0, 67, 0
2, 136800, Note_on_c, 0, 69, 40
2, 137040, Note_on_c, 0, 69, 0
2, 137040, Note_on_c, 0, 73, 39
2, 137280, Note_on_c, 0, 73, 0
2, 137280, Note_on_c, 0, 67, 34
2, 137280, Note_on_c, 0, 73, 40
2, 137440, Note_on_c, 0, 73, 0
2, 137440, Note_on_c, 0, 74, 39
2, 137600, Note_on_c, 0, 74, 0
2, 137600, Note_on_c, 0, 73, 39
2, 137760, Note_on_c, 0, 73, 0
2, 137760, Note_on_c, 0, 67, 0
2, 137760, Note_on_c, 0, 67, 32
2, 137760, Note_on_c, 0, 71, 39
2, 138000, Note_on_c, 0, 71, 0
2, 138000, Note_on_c, 0, 69, 39
2, 138240, Note_on_c, 0, 69, 0
2, 138240, Note_on_c, 0, 67, 0
2, 138240, Note_on_c, 0, 74, 40
2, 138720, Note_on_c, 0, 66, 29
2, 139200, Note_on_c, 0, 66, 0
2, 139200, Note_on_c, 0, 66, 37
2, 139680, Note_on_c, 0, 66, 0
2, 139680, Note_on_c, 0, 74, 0
2, 139680, Note_on_c, 0, 64, 73
2, 139920, Note_on_c, 0, 64, 0
2, 139920, Note_on_c, 0, 68, 70
2, 140160, Note_on_c, 0, 68, 0
2, 140160, Note_on_c, 0, 69, 71
2, 140160, Note_on_c, 0, 61, 60
2, 140400, Note_on_c, 0, 69, 0
2, 140400, Note_on_c, 0, 71, 71
2, 140640, Note_on_c, 0, 71, 0
2, 140640, Note_on_c, 0, 61, 0
2, 140640, Note_on_c, 0, 73, 72
2, 140640, Note_on_c, 0, 61, 61
2, 140880, Note_on_c, 0, 73, 0
2, 140880, Note_on_c, 0, 74, 73
2, 141000, Note_on_c, 0, 74, 0
2, 141000, Note_on_c, 0, 73, 70
2, 141060, Note_on_c, 0, 73, 0
2, 141060, Note_on_c, 0, 74, 68
2, 141120, Note_on_c, 0, 74, 0
2, 141120, Note_on_c, 0, 61, 0
2, 141120, Note_on_c, 0, 73, 76
2, 141600, Note_on_c, 0, 73, 0
2, 141600, Note_on_c, 0, 62, 62
2, 141600, Note_on_c, 0, 71, 74
2, 141840, Note_on_c, 0, 71, 0
2, 141840, Note_on_c, 0, 69, 74
2, 142080, Note_on_c, 0, 69, 0
2, 142080, Note_on_c, 0, 62, 0
2, 142080, Note_on_c, 0, 62, 62
2, 142080, Note_on_c, 0, 68, 73
2, 142320, Note_on_c, 0, 68, 0
2, 142320, Note_on_c, 0, 66, 72
2, 142560, Note_on_c, 0, 66, 0
2, 142560, Note_on_c, 0, 62, 0
2, 142560, Note_on_c, 0, 64, 74
2, 142800, Note_on_c, 0, 64, 0
2, 142800, Note_on_c, 0, 69, 70
2, 143040, Note_on_c, 0, 69, 0
2, 143040, Note_on_c, 0, 61, 62
2, 143040, Note_on_c, 0, 69, 74
2, 143200, Note_on_c, 0, 69, 0
2, 143200, Note_on_c, 0, 71, 70
2, 143360, Note_on_c, 0, 71, 0
2, 143360, Note_on_c, 0, 69, 70
2, 143520, Note_on_c, 0, 69, 0
2, 143520, Note_on_c, 0, 61, 0
2, 143520, Note_on_c, 0, 61, 59
2, 143520, Note_on_c, 0, 68, 70
2, 143760, Note_on_c, 0, 68, 0
2, 143760, Note_on_c, 0, 66, 70
2, 144000, Note_on_c, 0, 66, 0
2, 144000, Note_on_c, 0, 61, 0
2, 144000, Note_on_c, 0, 68, 73
2, 144480, Note_on_c, 0, 59, 44
2, 144480, Note_on_c, 0, 64, 53
2, 144960, Note_on_c, 0, 64, 0
2, 144960, Note_on_c, 0, 59, 0
2, 144960, Note_on_c, 0, 62, 57
2, 144960, Note_on_c, 0, 64, 68
2, 145440, Note_on_c, 0, 64, 0
2, 145440, Note_on_c, 0, 62, 0
2, 145440, Note_on_c, 0, 68, 0
2, 145440, Note_on_c, 0, 64, 74
2, 145680, Note_on_c, 0, 64, 0
2, 145680, Note_on_c, 0, 68, 70
2, 145920, Note_on_c, 0, 68, 0
2, 145920, Note_on_c, 0, 69, 71
2, 145920, Note_on_c, 0, 61, 60
2, 146160, Note_on_c, 0, 69, 0
2, 146160, Note_on_c, 0, 71, 71
2, 146400, Note_on_c, 0, 71, 0
2, 146400, Note_on_c, 0, 61, 0
2, 146400, Note_on_c, 0, 73, 72
2, 146400, Note_on_c, 0, 61, 61
2, 146640, Note_on_c, 0, 73, 0
2, 146640, Note_on_c, 0, 74, 73
2, 146760, Note_on_c, 0, 74, 0
2, 146760, Note_on_c, 0, 73, 70
2, 146820, Note_on_c, 0, 73, 0
2, 146820, Note_on_c, 0, 74, 68
2, 146880, Note_on_c, 0, 74, 0
2, 146880, Note_on_c, 0, 61, 0
2, 146880, Note_on_c, 0, 73, 76
2, 147360, Note_on_c, 0, 73, 0
2, 147360, Note_on_c, 0, 62, 62
2, 147360, Note_on_c, 0, 71, 74
2, 147600, Note_on_c, 0, 71, 0
2, 147600, Note_on_c, 0, 69, 74
2, 147840, Note_on_c, 0, 69, 0
2, 147840, Note_on_c, 0, 62, 0
2, 147840, Note_on_c, 0, 62, 62
2, 147840, Note_on_c, 0, 68, 73
2, 148080, Note_on_c, 0, 68, 0
2, 148080, Note_on_c, 0, 66, 72
2, 148320, Note_on_c, 0, 66, 0
2, 148320, Note_on_c, 0, 62, 0
2, 148320, Note_on_c, 0, 64, 74
2, 148560, Note_on_c, 0, 64, 0
2, 148560, Note_on_c, 0, 68, 70
2, 148800, Note_on_c, 0, 68, 0
2, 148800, Note_on_c, 0, 62, 62
2, 148800, Note_on_c, 0, 68, 74
2, 148960, Note_on_c, 0, 68, 0
2, 148960, Note_on_c, 0, 69, 70
2, 149120, Note_on_c, 0, 69, 0
2, 149120, Note_on_c, 0, 68, 70
2, 149280, Note_on_c, 0, 68, 0
2, 149280, Note_on_c, 0, 62, 0
2, 149280, Note_on_c, 0, 62, 59
2, 149280, Note_on_c, 0, 66, 70
2, 149520, Note_on_c, 0, 66, 0
2, 149520, Note_on_c, 0, 64, 70
2, 149760, Note_on_c, 0, 64, 0
2, 149760, Note_on_c, 0, 62, 0
2, 149760, Note_on_c, 0, 69, 73
2, 150240, Note_on_c, 0, 61, 53
2, 150720, Note_on_c, 0, 61, 0
2, 150720, Note_on_c, 0, 61, 47
2, 151200, Note_on_c, 0, 69, 0
2, 151200, Note_on_c, 0, 64, 40
2, 151440, Note_on_c, 0, 64, 0
2, 151440, Note_on_c, 0, 68, 39
2, 151680, Note_on_c, 0, 68, 0
2, 151680, Note_on_c, 0, 61, 0
2, 151680, Note_on_c, 0, 69, 39
2, 151680, Note_on_c, 0, 61, 33
2, 151920, Note_on_c, 0, 69, 0
2, 151920, Note_on_c, 0, 71, 39
2, 152160, Note_on_c, 0, 71, 0
2, 152160, Note_on_c, 0, 61, 0
2, 152160, Note_on_c, 0, 73, 40
2, 152160, Note_on_c, 0, 61, 33
2, 152400, Note_on_c, 0, 73, 0
2, 152400, Note_on_c, 0, 74, 40
2, 152520, Note_on_c, 0, 74, 0
2, 152520, Note_on_c, 0, 73, 39
2, 152580, Note_on_c, 0, 73, 0
2, 152580, Note_on_c, 0, 74, 37
2, 152640, Note_on_c, 0, 74, 0
2, 152640, Note_on_c, 0, 61, 0
2, 152640, Note_on_c, 0, 73, 42
2, 153120, Note_on_c, 0, 73, 0
2, 153120, Note_on_c, 0, 62, 34
2, 153120, Note_on_c, 0, 71, 40
2, 153360, Note_on_c, 0, 71, 0
2, 153360, Note_on_c, 0, 69, 40
2, 153600, Note_on_c, 0, 69, 0
2, 153600, Note_on_c, 0, 62, 0
2, 153600, Note_on_c, 0, 62, 34
2, 153600, Note_on_c, 0, 68, 40
2, 153840, Note_on_c, 0, 68, 0
2, 153840, Note_on_c, 0, 66, 40
2, 154080, Note_on_c, 0, 66, 0
2, 154080, Note_on_c, 0, 62, 0
2, 154080, Note_on_c, 0, 64, 40
2, 154320, Note_on_c, 0, 64, 0
2, 154320, Note_on_c, 0, 69, 39
2, 154560, Note_on_c, 0, 69, 0
2, 154560, Note_on_c, 0, 61, 34
2, 154560, Note_on_c, 0, 69, 40
2, 154720, Note_on_c, 0, 69, 0
2, 154720, Note_on_c, 0, 71, 39
2, 154880, Note_on_c, 0, 71, 0
2, 154880, Note_on_c, 0, 69, 39
2, 155040, Note_on_c, 0, 69, 0
2, 155040, Note_on_c, 0, 61, 0
2, 155040, Note_on_c, 0, 61, 32
2, 155040, Note_on_c, 0, 68, 39
2, 155280, Note_on_c, 0, 68, 0
2, 155280, Note_on_c, 0, 66, 39
2, 155520, Note_on_c, 0, 66, 0
2, 155520, Note_on_c, 0, 61, 0
2, 155520, Note_on_c, 0, 68, 40
2, 156000, Note_on_c, 0, 59, 24
2, 156000, Note_on_c, 0, 64, 29
2, 156480, Note_on_c, 0, 64, 0
2, 156480, Note_on_c, 0, 59, 0
2, 156480, Note_on_c, 0, 62, 31
2, 156480, Note_on_c, 0, 64, 37
2, 156960, Note_on_c, 0, 64, 0
2, 156960, Note_on_c, 0, 62, 0
2, 156960, Note_on_c, 0, 68, 0
2, 156960, Note_on_c, 0, 64, 40
2, 157200, Note_on_c, 0, 64, 0
2, 157200, Note_on_c, 0, 68, 39
2, 157440, Note_on_c, 0, 68, 0
2, 157440, Note_on_c, 0, 69, 39
2, 157440, Note_on_c, 0, 61, 33
2, 157680, Note_on_c, 0, 69, 0
2, 157680, Note_on_c, 0, 71, 39
2, 157920, Note_on_c, 0, 71, 0
2, 157920, Note_on_c, 0, 61, 0
2, 157920, Note_on_c, 0, 73, 40
2, 157920, Note_on_c, 0, 61, 33
2, 158160, Note_on_c, 0, 73, 0
2, 158160, Note_on_c, 0, 74, 40
2, 158280, Note_on_c, 0, 74, 0
2, 158280, Note_on_c, 0, 73, 39
2, 158340, Note_on_c, 0, 73, 0
2, 158340, Note_on_c, 0, 74, 37
2, 158400, Note_on_c, 0, 74, 0
2, 158400, Note_on_c, 0, 61, 0
2, 158400, Note_on_c, 0, 73, 42
2, 158880, Note_on_c, 0, 73, 0
2, 158880, Note_on_c, 0, 62, 34
2, 158880, Note_on_c, 0, 71, 40
2, 159120, Note_on_c, 0, 71, 0
2, 159120, Note_on_c, 0, 69, 40
2, 159360, Note_on_c, 0, 69, 0
2, 159360, Note_on_c, 0, 62, 0
2, 159360, Note_on_c, 0, 62, 34
2, 159360, Note_on_c, 0, 68, 40
2, 159600, Note_on_c, 0, 68, 0
2, 159600, Note_on_c, 0, 66, 40
2, 159840, Note_on_c, 0, 66, 0
2, 159840, Note_on_c, 0, 62, 0
2, 159840, Note_on_c, 0, 64, 40
2, 160080, Note_on_c, 0, 64, 0
2, 160080, Note_on_c, 0, 68, 39
2, 160320, Note_on_c, 0, 68, 0
2, 160320, Note_on_c, 0, 62, 34
2, 160320, Note_on_c, 0, 68, 40
2, 160480, Note_on_c, 0, 68, 0
2, 160480, Note_on_c, 0, 69, 39
2, 160640, Note_on_c, 0, 69, 0
2, 160640, Note_on_c, 0, 68, 39
2, 160800, Note_on_c, 0, 68, 0
2, 160800, Note_on_c, 0, 62, 0
2, 160800, Note_on_c, 0, 62, 32
2, 160800, Note_on_c, 0, 66, 39
2, 161040, Note_on_c, 0, 66, 0
2, 161040, Note_on_c, 0, 64, 39
2, 161280, Note_on_c, 0, 64, 0
2, 161280, Note_on_c, 0, 62, 0
2, 161280, Note_on_c, 0, 69, 40
2, 161760, Note_on_c, 0, 61, 37
2, 162240, Note_on_c, 0, 61, 0
2, 162240, Note_on_c, 0, 67, 73
2, 162240, Note_on_c, 0, 61, 73
2, 162720, Note_on_c, 0, 61, 0
2, 162720, Note_on_c, 0, 67, 0
2, 162720, Note_on_c, 0, 66, 78
2, 162960, Note_on_c, 0, 69, 0
2, 162960, Note_on_c, 0, 73, 80
2, 163200, Note_on_c, 0, 73, 0
2, 163200, Note_on_c, 0, 66, 0
2, 163200, Note_on_c, 0, 74, 81
2, 163200, Note_on_c, 0, 66, 69
2, 163440, Note_on_c, 0, 74, 0
2, 163440, Note_on_c, 0, 76, 81
2, 163680, Note_on_c, 0, 76, 0
2, 163680, Note_on_c, 0, 66, 0
2, 163680, Note_on_c, 0, 78, 82
2, 163680, Note_on_c, 0, 66, 70
2, 163920, Note_on_c, 0, 78, 0
2, 163920, Note_on_c, 0, 79, 83
2, 164040, Note_on_c, 0, 79, 0
2, 164040, Note_on_c, 0, 78, 80
2, 164100, Note_on_c, 0, 78, 0
2, 164100, Note_on_c, 0, 79, 78
2, 164160, Note_on_c, 0, 79, 0
2, 164160, Note_on_c, 0, 66, 0
2, 164160, Note_on_c, 0, 78, 87
2, 164640, Note_on_c, 0, 78, 0
2, 164640, Note_on_c, 0, 67, 71
2, 164640, Note_on_c, 0, 76, 85
2, 164880, Note_on_c, 0, 76, 0
2, 164880, Note_on_c, 0, 74, 85
2, 165120, Note_on_c, 0, 74, 0
2, 165120, Note_on_c, 0, 67, 0
2, 165120, Note_on_c, 0, 67, 71
2, 165120, Note_on_c, 0, 73, 83
2, 165360, Note_on_c, 0, 73, 0
2, 165360, Note_on_c, 0, 71, 82
2, 165600, Note_on_c, 0, 71, 0
2, 165600, Note_on_c, 0, 67, 0
2, 165600, Note_on_c, 0, 69, 85
2, 165840, Note_on_c, 0, 69, 0
2, 165840, Note_on_c, 0, 74, 80
2, 166080, Note_on_c, 0, 74, 0
2, 166080, Note_on_c, 0, 66, 71
2, 166080, Note_on_c, 0, 74, 85
2, 166240, Note_on_c, 0, 74, 0
2, 166240, Note_on_c, 0, 76, 80
2, 166400, Note_on_c, 0, 76, 0
2, 166400, Note_on_c, 0, 74, 80
2, 166560, Note_on_c, 0, 74, 0
2, 166560, Note_on_c, 0, 66, 0
2, 166560, Note_on_c, 0, 66, 67
2, 166560, Note_on_c, 0, 73, 80
2, 166800, Note_on_c, 0, 73, 0
2, 166800, Note_on_c, 0, 71, 80
2, 167040, Note_on_c, 0, 71, 0
2, 167040, Note_on_c, 0, 66, 0
2, 167040, Note_on_c, 0, 73, 83
2, 167520, Note_on_c, 0, 64, 50
2, 167520, Note_on_c, 0, 69, 60
2, 168000, Note_on_c, 0, 69, 0
2, 168000, Note_on_c, 0, 64, 0
2, 168000, Note_on_c, 0, 67, 65
2, 168000, Note_on_c, 0, 69, 78
2, 168480, Note_on_c, 0, 69, 0
2, 168480, Note_on_c, 0, 67, 0
2, 168480, Note_on_c, 0, 73, 0
2, 168480, Note_on_c, 0, 69, 85
2, 168720, Note_on_c, 0, 69, 0
2, 168720, Note_on_c, 0, 73, 80
2, 168960, Note_on_c, 0, 73, 0
2, 168960, Note_on_c, 0, 74, 81
2, 168960, Note_on_c, 0, 66, 69
2, 169200, Note_on_c, 0, 74, 0
2, 169200, Note_on_c, 0, 76, 81
2, 169440, Note_on_c, 0, 76, 0
2, 169440, Note_on_c, 0, 66, 0
2, 169440, Note_on_c, 0, 78, 82
2, 169440, Note_on_c, 0, 66, 70
2, 169680, Note_on_c, 0, 78, 0
2, 169680, Note_on_c, 0, 79, 83
2, 169800, Note_on_c, 0, 79, 0
2, 169800, Note_on_c, 0, 78, 80
2, 169860, Note_on_c, 0, 78, 0
2, 169860, Note_on_c, 0, 79, 78
2, 169920, Note_on_c, 0, 79, 0
2, 169920, Note_on_c, 0, 66, 0
2, 169920, Note_on_c, 0, 78, 87
2, 170400, Note_on_c, 0, 78, 0
2, 170400, Note_on_c, 0, 67, 71
2, 170400, Note_on_c, 0, 76, 85
2, 170640, Note_on_c, 0, 76, 0
2, 170640, Note_on_c, 0, 74, 85
2, 170880, Note_on_c, 0, 74, 0
2, 170880, Note_on_c, 0, 67, 0
2, 170880, Note_on_c, 0, 67, 71
2, 170880, Note_on_c, 0, 73, 83
2, 171120, Note_on_c, 0, 73, 0
2, 171120, Note_on_c, 0, 71, 82
2, 171360, Note_on_c, 0, 71, 0
2, 171360, Note_on_c, 0, 67, 0
2, 171360, Note_on_c, 0, 69, 85
2, 171600, Note_on_c, 0, 69, 0
2, 171600, Note_on_c, 0, 73, 80
2, 171840, Note_on_c, 0, 73, 0
2, 171840, Note_on_c, 0, 67, 71
2, 171840, Note_on_c, 0, 73, 85
2, 172000, Note_on_c, 0, 73, 0
2, 172000, Note_on_c, 0, 74, 80
2, 172160, Note_on_c, 0, 74, 0
2, 172160, Note_on_c, 0, 73, 80
2, 172320, Note_on_c, 0, 73, 0
2, 172320, Note_on_c, 0, 67, 0
2, 172320, Note_on_c, 0, 67, 67
2, 172320, Note_on_c, 0, 71, 80
2, 172560, Note_on_c, 0, 71, 0
2, 172560, Note_on_c, 0, 69, 80
2, 172800, Note_on_c, 0, 69, 0
2, 172800, Note_on_c, 0, 67, 0
2, 172800, Note_on_c, 0, 74, 83
2, 173280, Note_on_c, 0, 66, 60
2, 173760, Note_on_c, 0, 66, 0
2, 173760, Note_on_c, 0, 66, 54
2, 174240, Note_on_c, 0, 74, 0
2, 174240, Note_on_c, 0, 69, 40
2, 174480, Note_on_c, 0, 69, 0
2, 174480, Note_on_c, 0, 73, 39
2, 174720, Note_on_c, 0, 73, 0
2, 174720, Note_on_c, 0, 66, 0
2, 174720, Note_on_c, 0, 74, 39
2, 174720, Note_on_c, 0, 66, 33
2, 174960, Note_on_c, 0, 74, 0
2, 174960, Note_on_c, 0, 76, 39
2, 175200, Note_on_c, 0, 76, 0
2, 175200, Note_on_c, 0, 66, 0
2, 175200, Note_on_c, 0, 78, 40
2, 175200, Note_on_c, 0, 66, 33
2, 175440, Note_on_c, 0, 78, 0
2, 175440, Note_on_c, 0, 79, 40
2, 175560, Note_on_c, 0, 79, 0
2, 175560, Note_on_c, 0, 78, 39
2, 175620, Note_on_c, 0, 78, 0
2, 175620, Note_on_c, 0, 79, 37
2, 175680, Note_on_c, 0, 79, 0
2, 175680, Note_on_c, 0, 66, 0
2, 175680, Note_on_c, 0, 78, 42
2, 176160, Note_on_c, 0, 78, 0
2, 176160, Note_on_c, 0, 67, 34
2, 176160, Note_on_c, 0, 76, 40
2, 176400, Note_on_c, 0, 76, 0
2, 176400, Note_on_c, 0, 74, 40
2, 176640, Note_on_c, 0, 74, 0
2, 176640, Note_on_c, 0, 67, 0
2, 176640, Note_on_c, 0, 67, 34
2, 176640, Note_on_c, 0, 73, 40
2, 176880, Note_on_c, 0, 73, 0
2, 176880, Note_on_c, 0, 71, 40
2, 177120, Note_on_c, 0, 71, 0
2, 177120, Note_on_c, 0, 67, 0
2, 177120, Note_on_c, 0, 69, 40
2, 177360, Note_on_c, 0, 69, 0
2, 177360, Note_on_c, 0, 74, 39
2, 177600, Note_on_c, 0, 74, 0
2, 177600, Note_on_c, 0, 66, 34
2, 177600, Note_on_c, 0, 74, 40
2, 177760, Note_on_c, 0, 74, 0
2, 177760, Note_on_c, 0, 76, 39
2, 177920, Note_on_c, 0, 76, 0
2, 177920, Note_on_c, 0, 74, 39
2, 178080, Note_on_c, 0, 74, 0
2, 178080, Note_on_c, 0, 66, 0
2, 178080, Note_on_c, 0, 66, 32
2, 178080, Note_on_c, 0, 73, 39
2, 178320, Note_on_c, 0, 73, 0
2, 178320, Note_on_c, 0, 71, 39
2, 178560, Note_on_c, 0, 71, 0
2, 178560, Note_on_c, 0, 66, 0
2, 178560, Note_on_c, 0, 73, 40
2, 179040, Note_on_c, 0, 64, 24
2, 179040, Note_on_c, 0, 69, 29
2, 179520, Note_on_c, 0, 69, 0
2, 179520, Note_on_c, 0, 64, 0
2, 179520, Note_on_c, 0, 67, 31
2, 179520, Note_on_c, 0, 69, 37
2, 180000, Note_on_c, 0, 69, 0
2, 180000, Note_on_c, 0, 67, 0
2, 180000, Note_on_c, 0, 73, 0
2, 180000, Note_on_c, 0, 69, 40
2, 180240, Note_on_c, 0, 69, 0
2, 180240, Note_on_c, 0, 73, 39
2, 180480, Note_on_c, 0, 73, 0
2, 180480, Note_on_c, 0, 74, 39
2, 180480, Note_on_c, 0, 66, 33
2, 180720, Note_on_c, 0, 74, 0
2, 180720, Note_on_c, 0, 76, 39
2, 180960, Note_on_c, 0, 76, 0
2, 180960, Note_on_c, 0, 66, 0
2, 180960, Note_on_c, 0, 78, 40
2, 180960, Note_on_c, 0, 66, 33
2, 181200, Note_on_c, 0, 78, 0
2, 181200, Note_on_c, 0, 79, 40
2, 181320, Note_on_c, 0, 79, 0
2, 181320, Note_on_c, 0, 78, 39
2, 181380, Note_on_c, 0, 78, 0
2, 181380, Note_on_c, 0, 79, 37
2, 181440, Note_on_c, 0, 79, 0
2, 181440, Note_on_c, 0, 66, 0
2, 181440, Note_on_c, 0, 78, 42
2, 181920, Note_on_c, 0, 78, 0
2, 181920, Note_on_c, 0, 67, 34
2, 181920, Note_on_c, 0, 76, 40
2, 182160, Note_on_c, 0, 76, 0
2, 182160, Note_on_c, 0, 74, 40
2, 182400, Note_on_c, 0, 74, 0
2, 182400, Note_on_c, 0, 67, 0
2, 182400, Note_on_c, 0, 67, 34
2, 182400, Note_on_c, 0, 73, 40
2, 182640, Note_on_c, 0, 73, 0
2, 182640, Note_on_c, 0, 71, 40
2, 182880, Note_on_c, 0, 71, 0
2, 182880, Note_on_c, 0, 67, 0
2, 182880, Note_on_c, 0, 69, 40
2, 183120, Note_on_c, 0, 69, 0
2, 183120, Note_on_c, 0, 73, 39
2, 183360, Note_on_c, 0, 73, 0
2, 183360, Note_on_c, 0, 67, 34
2, 183360, Note_on_c, 0, 73, 40
2, 183520, Note_on_c, 0, 73, 0
2, 183520, Note_on_c, 0, 74, 39
2, 183680, Note_on_c, 0, 74, 0
2, 183680, Note_on_c, 0, 73, 39
2, 183840, Note_on_c, 0, 73, 0
2, 183840, Note_on_c, 0, 67, 0
2, 183840, Note_on_c, 0, 67, 32
2, 183840, Note_on_c, 0, 71, 39
2, 184080, Note_on_c, 0, 71, 0
2, 184080, Note_on_c, 0, 69, 39
2, 184320, Note_on_c, 0, 69, 0
2, 184320, Note_on_c, 0, 67, 0
2, 184320, Note_on_c, 0, 74, 40
2, 184800, Note_on_c, 0, 66, 29
2, 185280, Note_on_c, 0, 66, 0
2, 185280, Note_on_c, 0, 66, 37
2, 185760, Note_on_c, 0, 66, 0
2, 185760, Note_on_c, 0, 74, 0
2, 185760, Note_on_c, 0, 74, 43
2, 185760, Note_on_c, 0, 66, 47
2, 186000, Note_on_c, 0, 66, 0
2, 186000, Note_on_c, 0, 69, 45
2, 186240, Note_on_c, 0, 69, 0
2, 186240, Note_on_c, 0, 69, 49
2, 186420, Note_on_c, 0, 69, 0
2, 186420, Note_on_c, 0, 71, 41
2, 186480, Note_on_c, 0, 71, 0
2, 186480, Note_on_c, 0, 69, 46
2, 186720, Note_on_c, 0, 69, 0
2, 186720, Note_on_c, 0, 68, 46
2, 186960, Note_on_c, 0, 68, 0
2, 186960, Note_on_c, 0, 64, 45
2, 187200, Note_on_c, 0, 64, 0
2, 187200, Note_on_c, 0, 74, 0
2, 187200, Note_on_c, 0, 74, 44
2, 187200, Note_on_c, 0, 64, 50
2, 187440, Note_on_c, 0, 64, 0
2, 187440, Note_on_c, 0, 67, 47
2, 187680, Note_on_c, 0, 67, 0
2, 187680, Note_on_c, 0, 67, 51
2, 187860, Note_on_c, 0, 67, 0
2, 187860, Note_on_c, 0, 69, 43
2, 187920, Note_on_c, 0, 69, 0
2, 187920, Note_on_c, 0, 67, 48
2, 188160, Note_on_c, 0, 67, 0
2, 188160, Note_on_c, 0, 66, 48
2, 188400, Note_on_c, 0, 66, 0
2, 188400, Note_on_c, 0, 62, 43
2, 188640, Note_on_c, 0, 62, 0
2, 188640, Note_on_c, 0, 74, 0
2, 188640, Note_on_c, 0, 74, 45
2, 188640, Note_on_c, 0, 66, 50
2, 188880, Note_on_c, 0, 66, 0
2, 188880, Note_on_c, 0, 69, 48
2, 189120, Note_on_c, 0, 69, 0
2, 189120, Note_on_c, 0, 69, 52
2, 189300, Note_on_c, 0, 69, 0
2, 189300, Note_on_c, 0, 71, 44
2, 189360, Note_on_c, 0, 71, 0
2, 189360, Note_on_c, 0, 69, 48
2, 189600, Note_on_c, 0, 69, 0
2, 189600, Note_on_c, 0, 68, 48
2, 189840, Note_on_c, 0, 68, 0
2, 189840, Note_on_c, 0, 64, 44
2, 190080, Note_on_c, 0, 64, 0
2, 190080, Note_on_c, 0, 74, 0
2, 190080, Note_on_c, 0, 74, 46
2, 190080, Note_on_c, 0, 64, 53
2, 190320, Note_on_c, 0, 64, 0
2, 190320, Note_on_c, 0, 67, 50
2, 190560, Note_on_c, 0, 67, 0
2, 190560, Note_on_c, 0, 67, 53
2, 190740, Note_on_c, 0, 67, 0
2, 190740, Note_on_c, 0, 69, 46
2, 190800, Note_on_c, 0, 69, 0
2, 190800, Note_on_c, 0, 67, 50
2, 191040, Note_on_c, 0, 67, 0
2, 191040, Note_on_c, 0, 66, 51
2, 191280, Note_on_c, 0, 66, 0
2, 191280, Note_on_c, 0, 62, 44
2, 191520, Note_on_c, 0, 62, 0
2, 191520, Note_on_c, 0, 74, 0
2, 191520, Note_on_c, 0, 69, 48
2, 191520, Note_on_c, 0, 62, 53
2, 191760, Note_on_c, 0, 62, 0
2, 191760, Note_on_c, 0, 66, 51
2, 192000, Note_on_c, 0, 66, 0
2, 192000, Note_on_c, 0, 66, 55
2, 192180, Note_on_c, 0, 66, 0
2, 192180, Note_on_c, 0, 67, 46
2, 192240, Note_on_c, 0, 67, 0
2, 192240, Note_on_c, 0, 66, 51
2, 192480, Note_on_c, 0, 66, 0
2, 192480, Note_on_c, 0, 64, 51
2, 192720, Note_on_c, 0, 64, 0
2, 192720, Note_on_c, 0, 59, 46
2, 192960, Note_on_c, 0, 59, 0
2, 192960, Note_on_c, 0, 69, 0
2, 192960, Note_on_c, 0, 69, 48
2, 192960, Note_on_c, 0, 61, 55
2, 193200, Note_on_c, 0, 61, 0
2, 193200, Note_on_c, 0, 64, 52
2, 193440, Note_on_c, 0, 64, 0
2, 193440, Note_on_c, 0, 64, 55
2, 193620, Note_on_c, 0, 64, 0
2, 193620, Note_on_c, 0, 66, 47
2, 193680, Note_on_c, 0, 66, 0
2, 193680, Note_on_c, 0, 64, 52
2, 193920, Note_on_c, 0, 64, 0
2, 193920, Note_on_c, 0, 62, 52
2, 194160, Note_on_c, 0, 62, 0
2, 194160, Note_on_c, 0, 57, 46
2, 194400, Note_on_c, 0, 57, 0
2, 194400, Note_on_c, 0, 69, 0
2, 194400, Note_on_c, 0, 69, 48
2, 194400, Note_on_c, 0, 62, 53
2, 194640, Note_on_c, 0, 62, 0
2, 194640, Note_on_c, 0, 66, 51
2, 194880, Note_on_c, 0, 66, 0
2, 194880, Note_on_c, 0, 66, 54
2, 195060, Note_on_c, 0, 66, 0
2, 195060, Note_on_c, 0, 67, 45
2, 195120, Note_on_c, 0, 67, 0
2, 195120, Note_on_c, 0, 66, 50
2, 195360, Note_on_c, 0, 66, 0
2, 195360, Note_on_c, 0, 64, 49
2, 195600, Note_on_c, 0, 64, 0
2, 195600, Note_on_c, 0, 59, 45
2, 195840, Note_on_c, 0, 59, 0
2, 195840, Note_on_c, 0, 69, 0
2, 195840, Note_on_c, 0, 69, 46
2, 195840, Note_on_c, 0, 61, 53
2, 196080, Note_on_c, 0, 61, 0
2, 196080, Note_on_c, 0, 64, 50
2, 196320, Note_on_c, 0, 64, 0
2, 196320, Note_on_c, 0, 64, 52
2, 196500, Note_on_c, 0, 64, 0
2, 196500, Note_on_c, 0, 66, 45
2, 196560, Note_on_c, 0, 66, 0
2, 196560, Note_on_c, 0, 64, 49
2, 196800, Note_on_c, 0, 64, 0
2, 196800, Note_on_c, 0, 62, 49
2, 197040, Note_on_c, 0, 62, 0
2, 197040, Note_on_c, 0, 57, 41
2, 197280, Note_on_c, 0, 57, 0
2, 197280, Note_on_c, 0, 69, 0
2, 197280, Note_on_c, 0, 62, 40
2, 197280, Note_on_c, 0, 54, 44
2, 197520, Note_on_c, 0, 54, 0
2, 197520, Note_on_c, 0, 57, 42
2, 197760, Note_on_c, 0, 57, 0
2, 197760, Note_on_c, 0, 57, 45
2, 197940, Note_on_c, 0, 57, 0
2, 197940, Note_on_c, 0, 59, 38
2, 198000, Note_on_c, 0, 59, 0
2, 198000, Note_on_c, 0, 57, 41
2, 198240, Note_on_c, 0, 57, 0
2, 198240, Note_on_c, 0, 56, 41
2, 198480, Note_on_c, 0, 56, 0
2, 198480, Note_on_c, 0, 52, 35
2, 198720, Note_on_c, 0, 52, 0
2, 198720, Note_on_c, 0, 62, 0
2, 198720, Note_on_c, 0, 62, 39
2, 198720, Note_on_c, 0, 52, 44
2, 198960, Note_on_c, 0, 52, 0
2, 198960, Note_on_c, 0, 55, 41
2, 199200, Note_on_c, 0, 55, 0
2, 199200, Note_on_c, 0, 55, 44
2, 199380, Note_on_c, 0, 55, 0
2, 199380, Note_on_c, 0, 57, 37
2, 199440, Note_on_c, 0, 57, 0
2, 199440, Note_on_c, 0, 55, 41
2, 199680, Note_on_c, 0, 55, 0
2, 199680, Note_on_c, 0, 54, 40
2, 199920, Note_on_c, 0, 54, 0
2, 199920, Note_on_c, 0, 50, 34
2, 200160, Note_on_c, 0, 50, 0
2, 200160, Note_on_c, 0, 62, 0
2, 200160, Note_on_c, 0, 62, 33
2, 200160, Note_on_c, 0, 54, 36
2, 200400, Note_on_c, 0, 54, 0
2, 200400, Note_on_c, 0, 57, 35
2, 200640, Note_on_c, 0, 57, 0
2, 200640, Note_on_c, 0, 57, 38
2, 200820, Note_on_c, 0, 57, 0
2, 200820, Note_on_c, 0, 59, 31
2, 200880, Note_on_c, 0, 59, 0
2, 200880, Note_on_c, 0, 57, 34
2, 201120, Note_on_c, 0, 57, 0
2, 201120, Note_on_c, 0, 56, 34
2, 201360, Note_on_c, 0, 56, 0
2, 201360, Note_on_c, 0, 52, 30
2, 201600, Note_on_c, 0, 52, 0
2, 201600, Note_on_c, 0, 62, 0
2, 201600, Note_on_c, 0, 62, 32
2, 201600, Note_on_c, 0, 52, 37
2, 201840, Note_on_c, 0, 52, 0
2, 201840, Note_on_c, 0, 55, 34
2, 202080, Note_on_c, 0, 55, 0
2, 202080, Note_on_c, 0, 55, 37
2, 202260, Note_on_c, 0, 55, 0
2, 202260, Note_on_c, 0, 57, 31
2, 202320, Note_on_c, 0, 57, 0
2, 202320, Note_on_c, 0, 55, 34
2, 202560, Note_on_c, 0, 55, 0
2, 202560, Note_on_c, 0, 54, 34
2, 202800, Note_on_c, 0, 54, 0
2, 202800, Note_on_c, 0, 50, 30
2, 203040, Note_on_c, 0, 50, 0
2, 203040, Note_on_c, 0, 62, 0
2, 203040, Note_on_c, 0, 50, 39
2, 203040, Note_on_c, 0, 57, 46
2, 203520, Note_on_c, 0, 57, 0
2, 203520, Note_on_c, 0, 50, 0
2, 203520, Note_on_c, 0, 62, 41
2, 203520, Note_on_c, 0, 69, 49
2, 204000, Note_on_c, 0, 69, 0
2, 204000, Note_on_c, 0, 62, 0
2, 204000, Note_on_c, 0, 74, 48
2, 204240, Note_on_c, 0, 74, 0
2, 204240, Note_on_c, 0, 81, 49
2, 204480, Note_on_c, 0, 81, 0
2, 204480, Note_on_c, 0, 86, 51
2, 204600, Note_on_c, 0, 86, 0
2, 204720, Note_on_c, 0, 90, 53
2, 204840, Note_on_c, 0, 90, 0
2, 204960, Note_on_c, 0, 92, 55
2, 205080, Note_on_c, 0, 92, 0
2, 205200, Note_on_c, 0, 93, 57
2, 205320, Note_on_c, 0, 93, 0
2, 205440, Note_on_c, 0, 95, 59
2, 205560, Note_on_c, 0, 95, 0
2, 205680, Note_on_c, 0, 97, 62
2, 205800, Note_on_c, 0, 97, 0
2, 205920, Note_on_c, 0, 98, 64
2, 207360, Note_on_c, 0, 98, 0
2, 207360, End_track
3, 0, Start_track
3, 0, Title_t, "Piano left"
3, 0, Program_c, 0, 0
3, 0, Control_c, 0, 7, 100
3, 0, Control_c, 0, 10, 64
3, 0, Control_c, 0, 64, 0
3, 0, Control_c, 0, 64, 0
3, 1440, Note_on_c, 0, 50, 59
3, 1490, Control_c, 0, 64, 127
3, 1680, Note_on_c, 0, 50, 0
3, 1920, Note_on_c, 0, 50, 52
3, 1920, Note_on_c, 0, 57, 52
3, 1920, Note_on_c, 0, 62, 52
3, 2400, Note_on_c, 0, 62, 0
3, 2400, Note_on_c, 0, 57, 0
3, 2400, Note_on_c, 0, 50, 0
3, 2400, Note_on_c, 0, 50, 52
3, 2400, Note_on_c, 0, 57, 52
3, 2400, Note_on_c, 0, 62, 52
3, 2880, Note_on_c, 0, 62, 0
3, 2880, Note_on_c, 0, 57, 0
3, 2880, Note_on_c, 0, 50, 0
3, 2880, Note_on_c, 0, 45, 59
3, 2888, Control_c, 0, 64, 0
3, 3035, Control_c, 0, 64, 127
3, 3120, Note_on_c, 0, 45, 0
3, 3360, Note_on_c, 0, 52, 54
3, 3360, Note_on_c, 0, 57, 54
3, 3360, Note_on_c, 0, 61, 54
3, 3840, Note_on_c, 0, 61, 0
3, 3840, Note_on_c, 0, 57, 0
3, 3840, Note_on_c, 0, 52, 0
3, 3840, Note_on_c, 0, 52, 54
3, 3840, Note_on_c, 0, 57, 54
3, 3840, Note_on_c, 0, 61, 54
3, 3854, Control_c, 0, 64, 0
3, 4320, Note_on_c, 0, 61, 0
3, 4320, Note_on_c, 0, 57, 0
3, 4320, Note_on_c, 0, 52, 0
3, 4320, Note_on_c, 0, 38, 59
3, 4447, Control_c, 0, 64, 127
3, 4560, Note_on_c, 0, 38, 0
3, 4800, Note_on_c, 0, 50, 54
3, 4800, Note_on_c, 0, 57, 54
3, 4800, Note_on_c, 0, 62, 54
3, 5280, Note_on_c, 0, 62, 0
3, 5280, Note_on_c, 0, 57, 0
3, 5280, Note_on_c, 0, 50, 0
3, 5280, Note_on_c, 0, 50, 54
3, 5280, Note_on_c, 0, 57, 54
3, 5280, Note_on_c, 0, 62, 54
3, 5294, Control_c, 0, 64, 0
3, 5760, Note_on_c, 0, 62, 0
3, 5760, Note_on_c, 0, 57, 0
3, 5760, Note_on_c, 0, 50, 0
3, 5760, Note_on_c, 0, 45, 59
3, 5958, Control_c, 0, 64, 127
3, 6000, Note_on_c, 0, 45, 0
3, 6240, Note_on_c, 0, 57, 43
3, 6720, Note_on_c, 0, 57, 0
3, 6720, Note_on_c, 0, 57, 56
3, 6720, Note_on_c, 0, 64, 56
3, 7200, Note_on_c, 0, 64, 0
3, 7200, Note_on_c, 0, 57, 0
3, 7200, Note_on_c, 0, 50, 59
3, 7206, Control_c, 0, 64, 0
3, 7246, Control_c, 0, 64, 127
3, 7440, Note_on_c, 0, 50, 0
3, 7680, Note_on_c, 0, 57, 52
3, 7680, Note_on_c, 0, 62, 52
3, 8160, Note_on_c, 0, 62, 0
3, 8160, Note_on_c, 0, 57, 0
3, 8160, Note_on_c, 0, 50, 52
3, 8160, Note_on_c, 0, 57, 52
3, 8160, Note_on_c, 0, 62, 52
3, 8640, Note_on_c, 0, 62, 0
3, 8640, Note_on_c, 0, 57, 0
3, 8640, Note_on_c, 0, 50, 0
3, 8640, Note_on_c, 0, 43, 59
3, 8648, Control_c, 0, 64, 0
3, 8838, Control_c, 0, 64, 127
3, 8880, Note_on_c, 0, 43, 0
3, 9120, Note_on_c, 0, 59, 54
3, 9120, Note_on_c, 0, 64, 54
3, 9600, Note_on_c, 0, 64, 0
3, 9600, Note_on_c, 0, 59, 0
3, 9600, Note_on_c, 0, 52, 54
3, 9600, Note_on_c, 0, 59, 54
3, 9600, Note_on_c, 0, 64, 54
3, 9610, Control_c, 0, 64, 0
3, 10080, Note_on_c, 0, 64, 0
3, 10080, Note_on_c, 0, 59, 0
3, 10080, Note_on_c, 0, 52, 0
3, 10080, Note_on_c, 0, 45, 59
3, 10214, Control_c, 0, 64, 127
3, 10320, Note_on_c, 0, 45, 0
3, 10560, Note_on_c, 0, 57, 54
3, 10560, Note_on_c, 0, 64, 54
3, 11040, Note_on_c, 0, 64, 0
3, 11040, Note_on_c, 0, 57, 0
3, 11040, Note_on_c, 0, 57, 54
3, 11040, Note_on_c, 0, 64, 54
3, 11054, Control_c, 0, 64, 0
3, 11520, Note_on_c, 0, 64, 0
3, 11520, Note_on_c, 0, 57, 0
3, 11520, Note_on_c, 0, 38, 59
3, 11689, Control_c, 0, 64, 127
3, 11760, Note_on_c, 0, 38, 0
3, 12000, Note_on_c, 0, 50, 36
3, 12000, Note_on_c, 0, 57, 36
3, 12000, Note_on_c, 0, 62, 43
3, 12480, Note_on_c, 0, 62, 0
3, 12480, Note_on_c, 0, 57, 0
3, 12480, Note_on_c, 0, 50, 0
3, 12480, Note_on_c, 0, 50, 39
3, 12480, Note_on_c, 0, 57, 39
3, 12480, Note_on_c, 0, 62, 39
3, 12976, Control_c, 0, 64, 0
3, 13062, Control_c, 0, 64, 127
3, 13440, Note_on_c, 0, 62, 0
3, 13440, Note_on_c, 0, 57, 0
3, 13440, Note_on_c, 0, 50, 0
3, 13440, Note_on_c, 0, 50, 23
3, 13440, Note_on_c, 0, 57, 23
3, 13440, Note_on_c, 0, 62, 23
3, 13920, Note_on_c, 0, 62, 0
3, 13920, Note_on_c, 0, 57, 0
3, 13920, Note_on_c, 0, 50, 0
3, 13920, Note_on_c, 0, 50, 23
3, 13920, Note_on_c, 0, 57, 23
3, 13920, Note_on_c, 0, 62, 23
3, 14400, Note_on_c, 0, 62, 0
3, 14400, Note_on_c, 0, 57, 0
3, 14400, Note_on_c, 0, 50, 0
3, 14400, Note_on_c, 0, 45, 27
3, 14408, Control_c, 0, 64, 0
3, 14626, Control_c, 0, 64, 127
3, 14640, Note_on_c, 0, 45, 0
3, 14880, Note_on_c, 0, 52, 24
3, 14880, Note_on_c, 0, 57, 24
3, 14880, Note_on_c, 0, 61, 24
3, 15360, Note_on_c, 0, 61, 0
3, 15360, Note_on_c, 0, 57, 0
3, 15360, Note_on_c, 0, 52, 0
3, 15360, Note_on_c, 0, 52, 24
3, 15360, Note_on_c, 0, 57, 24
3, 15360, Note_on_c, 0, 61, 24
3, 15374, Control_c, 0, 64, 0
3, 15840, Note_on_c, 0, 61, 0
3, 15840, Note_on_c, 0, 57, 0
3, 15840, Note_on_c, 0, 52, 0
3, 15840, Note_on_c, 0, 38, 27
3, 15946, Control_c, 0, 64, 127
3, 16080, Note_on_c, 0, 38, 0
3, 16320, Note_on_c, 0, 50, 24
3, 16320, Note_on_c, 0, 57, 24
3, 16320, Note_on_c, 0, 62, 24
3, 16800, Note_on_c, 0, 62, 0
3, 16800, Note_on_c, 0, 57, 0
3, 16800, Note_on_c, 0, 50, 0
3, 16800, Note_on_c, 0, 50, 24
3, 16800, Note_on_c, 0, 57, 24
3, 16800, Note_on_c, 0, 62, 24
3, 16810, Control_c, 0, 64, 0
3, 17280, Note_on_c, 0, 62, 0
3, 17280, Note_on_c, 0, 57, 0
3, 17280, Note_on_c, 0, 50, 0
3, 17280, Note_on_c, 0, 45, 27
3, 17492, Control_c, 0, 64, 127
3, 17520, Note_on_c, 0, 45, 0
3, 17760, Note_on_c, 0, 61, 20
3, 17760, Note_on_c, 0, 57, 20
3, 18240, Note_on_c, 0, 57, 0
3, 18240, Note_on_c, 0, 61, 0
3, 18240, Note_on_c, 0, 57, 26
3, 18240, Note_on_c, 0, 64, 26
3, 18720, Note_on_c, 0, 64, 0
3, 18720, Note_on_c, 0, 50, 27
3, 18728, Control_c, 0, 64, 0
3, 18812, Control_c, 0, 64, 127
3, 19200, Note_on_c, 0, 50, 0
3, 19200, Note_on_c, 0, 57, 0
3, 19200, Note_on_c, 0, 57, 23
3, 19200, Note_on_c, 0, 62, 23
3, 19680, Note_on_c, 0, 62, 0
3, 19680, Note_on_c, 0, 57, 0
3, 19680, Note_on_c, 0, 50, 23
3, 19680, Note_on_c, 0, 57, 23
3, 19680, Note_on_c, 0, 62, 23
3, 20160, Note_on_c, 0, 62, 0
3, 20160, Note_on_c, 0, 57, 0
3, 20160, Note_on_c, 0, 50, 0
3, 20160, Note_on_c, 0, 43, 27
3, 20168, Control_c, 0, 64, 0
3, 20386, Control_c, 0, 64, 127
3, 20400, Note_on_c, 0, 43, 0
3, 20640, Note_on_c, 0, 59, 24
3, 20640, Note_on_c, 0, 64, 24
3, 21120, Note_on_c, 0, 64, 0
3, 21120, Note_on_c, 0, 59, 0
3, 21120, Note_on_c, 0, 52, 24
3, 21120, Note_on_c, 0, 59, 24
3, 21120, Note_on_c, 0, 64, 24
3, 21129, Control_c, 0, 64, 0
3, 21600, Note_on_c, 0, 64, 0
3, 21600, Note_on_c, 0, 59, 0
3, 21600, Note_on_c, 0, 52, 0
3, 21600, Note_on_c, 0, 45, 27
3, 21741, Control_c, 0, 64, 127
3, 21840, Note_on_c, 0, 45, 0
3, 22080, Note_on_c, 0, 57, 24
3, 22080, Note_on_c, 0, 64, 24
3, 22560, Note_on_c, 0, 64, 0
3, 22560, Note_on_c, 0, 57, 0
3, 22560, Note_on_c, 0, 57, 24
3, 22560, Note_on_c, 0, 64, 24
3, 22572, Control_c, 0, 64, 0
3, 23040, Note_on_c, 0, 64, 0
3, 23040, Note_on_c, 0, 57, 0
3, 23040, Note_on_c, 0, 38, 27
3, 23267, Control_c, 0, 64, 127
3, 23280, Note_on_c, 0, 38, 0
3, 23520, Note_on_c, 0, 50, 17
3, 23520, Note_on_c, 0, 57, 17
3, 23520, Note_on_c, 0, 62, 20
3, 24000, Note_on_c, 0, 62, 0
3, 24000, Note_on_c, 0, 57, 0
3, 24000, Note_on_c, 0, 50, 0
3, 24000, Note_on_c, 0, 50, 26
3, 24000, Note_on_c, 0, 57, 26
3, 24000, Note_on_c, 0, 62, 26
3, 24480, Note_on_c, 0, 62, 0
3, 24480, Note_on_c, 0, 57, 0
3, 24480, Note_on_c, 0, 50, 0
3, 24480, Note_on_c, 0, 45, 59
3, 24487, Control_c, 0, 64, 0
3, 24547, Control_c, 0, 64, 127
3, 24720, Note_on_c, 0, 45, 0
3, 24960, Note_on_c, 0, 45, 52
3, 24960, Note_on_c, 0, 52, 52
3, 24960, Note_on_c, 0, 57, 52
3, 25440, Note_on_c, 0, 57, 0
3, 25440, Note_on_c, 0, 52, 0
3, 25440, Note_on_c, 0, 45, 0
3, 25440, Note_on_c, 0, 45, 52
3, 25440, Note_on_c, 0, 52, 52
3, 25440, Note_on_c, 0, 57, 52
3, 25920, Note_on_c, 0, 57, 0
3, 25920, Note_on_c, 0, 52, 0
3, 25920, Note_on_c, 0, 45, 0
3, 25920, Note_on_c, 0, 40, 59
3, 25930, Control_c, 0, 64, 0
3, 26126, Control_c, 0, 64, 127
3, 26160, Note_on_c, 0, 40, 0
3, 26400, Note_on_c, 0, 52, 54
3, 26400, Note_on_c, 0, 59, 54
3, 26880, Note_on_c, 0, 59, 0
3, 26880, Note_on_c, 0, 52, 0
3, 26880, Note_on_c, 0, 52, 54
3, 26880, Note_on_c, 0, 59, 54
3, 26892, Control_c, 0, 64, 0
3, 27360, Note_on_c, 0, 59, 0
3, 27360, Note_on_c, 0, 52, 0
3, 27360, Note_on_c, 0, 33, 59
3, 27480, Control_c, 0, 64, 127
3, 27600, Note_on_c, 0, 33, 0
3, 27840, Note_on_c, 0, 45, 54
3, 27840, Note_on_c, 0, 52, 54
3, 27840, Note_on_c, 0, 57, 54
3, 28320, Note_on_c, 0, 57, 0
3, 28320, Note_on_c, 0, 52, 0
3, 28320, Note_on_c, 0, 45, 0
3, 28320, Note_on_c, 0, 45, 54
3, 28320, Note_on_c, 0, 52, 54
3, 28320, Note_on_c, 0, 57, 54
3, 28334, Control_c, 0, 64, 0
3, 28800, Note_on_c, 0, 57, 0
3, 28800, Note_on_c, 0, 52, 0
3, 28800, Note_on_c, 0, 45, 0
3, 28800, Note_on_c, 0, 40, 59
3, 29040, Note_on_c, 0, 40, 0
3, 29054, Control_c, 0, 64, 127
3, 29280, Note_on_c, 0, 52, 43
3, 29760, Note_on_c, 0, 52, 0
3, 29760, Note_on_c, 0, 52, 56
3, 29760, Note_on_c, 0, 59, 56
3, 30240, Note_on_c, 0, 59, 0
3, 30240, Note_on_c, 0, 52, 0
3, 30240, Note_on_c, 0, 45, 59
3, 30250, Control_c, 0, 64, 0
3, 30339, Control_c, 0, 64, 127
3, 30480, Note_on_c, 0, 45, 0
3, 30720, Note_on_c, 0, 52, 52
3, 30720, Note_on_c, 0, 57, 52
3, 31200, Note_on_c, 0, 57, 0
3, 31200, Note_on_c, 0, 52, 0
3, 31200, Note_on_c, 0, 45, 52
3, 31200, Note_on_c, 0, 52, 52
3, 31200, Note_on_c, 0, 57, 52
3, 31680, Note_on_c, 0, 57, 0
3, 31680, Note_on_c, 0, 52, 0
3, 31680, Note_on_c, 0, 45, 0
3, 31680, Note_on_c, 0, 38, 59
3, 31691, Control_c, 0, 64, 0
3, 31875, Control_c, 0, 64, 127
3, 31920, Note_on_c, 0, 38, 0
3, 32160, Note_on_c, 0, 54, 54
3, 32160, Note_on_c, 0, 59, 54
3, 32640, Note_on_c, 0, 59, 0
3, 32640, Note_on_c, 0, 54, 0
3, 32640, Note_on_c, 0, 47, 54
3, 32640, Note_on_c, 0, 54, 54
3, 32640, Note_on_c, 0, 59, 54
3, 32652, Control_c, 0, 64, 0
3, 33120, Note_on_c, 0, 59, 0
3, 33120, Note_on_c, 0, 54, 0
3, 33120, Note_on_c, 0, 47, 0
3, 33120, Note_on_c, 0, 40, 59
3, 33240, Control_c, 0, 64, 127
3, 33360, Note_on_c, 0, 40, 0
3, 33600, Note_on_c, 0, 52, 54
3, 33600, Note_on_c, 0, 59, 54
3, 34080, Note_on_c, 0, 59, 0
3, 34080, Note_on_c, 0, 52, 0
3, 34080, Note_on_c, 0, 52, 54
3, 34080, Note_on_c, 0, 59, 54
3, 34094, Control_c, 0, 64, 0
3, 34560, Note_on_c, 0, 59, 0
3, 34560, Note_on_c, 0, 52, 0
3, 34560, Note_on_c, 0, 33, 59
3, 34772, Control_c, 0, 64, 127
3, 34800, Note_on_c, 0, 33, 0
3, 35040, Note_on_c, 0, 45, 36
3, 35040, Note_on_c, 0, 52, 36
3, 35040, Note_on_c, 0, 57, 43
3, 35520, Note_on_c, 0, 57, 0
3, 35520, Note_on_c, 0, 52, 0
3, 35520, Note_on_c, 0, 45, 0
3, 35520, Note_on_c, 0, 45, 39
3, 35520, Note_on_c, 0, 52, 39
3, 35520, Note_on_c, 0, 57, 39
3, 36016, Control_c, 0, 64, 0
3, 36102, Control_c, 0, 64, 127
3, 36480, Note_on_c, 0, 57, 0
3, 36480, Note_on_c, 0, 52, 0
3, 36480, Note_on_c, 0, 45, 0
3, 36480, Note_on_c, 0, 45, 23
3, 36480, Note_on_c, 0, 52, 23
3, 36480, Note_on_c, 0, 57, 23
3, 36960, Note_on_c, 0, 57, 0
3, 36960, Note_on_c, 0, 52, 0
3, 36960, Note_on_c, 0, 45, 0
3, 36960, Note_on_c, 0, 45, 23
3, 36960, Note_on_c, 0, 52, 23
3, 36960, Note_on_c, 0, 57, 23
3, 37440, Note_on_c, 0, 57, 0
3, 37440, Note_on_c, 0, 52, 0
3, 37440, Note_on_c, 0, 45, 0
3, 37440, Note_on_c, 0, 40, 27
3, 37447, Control_c, 0, 64, 0
3, 37595, Control_c, 0, 64, 127
3, 37680, Note_on_c, 0, 40, 0
3, 37920, Note_on_c, 0, 52, 24
3, 37920, Note_on_c, 0, 59, 24
3, 38400, Note_on_c, 0, 59, 0
3, 38400, Note_on_c, 0, 52, 0
3, 38400, Note_on_c, 0, 52, 24
3, 38400, Note_on_c, 0, 59, 24
3, 38414, Control_c, 0, 64, 0
3, 38880, Note_on_c, 0, 59, 0
3, 38880, Note_on_c, 0, 52, 0
3, 38880, Note_on_c, 0, 33, 27
3, 39021, Control_c, 0, 64, 127
3, 39120, Note_on_c, 0, 33, 0
3, 39360, Note_on_c, 0, 45, 24
3, 39360, Note_on_c, 0, 52, 24
3, 39360, Note_on_c, 0, 57, 24
3, 39840, Note_on_c, 0, 57, 0
3, 39840, Note_on_c, 0, 52, 0
3, 39840, Note_on_c, 0, 45, 0
3, 39840, Note_on_c, 0, 45, 24
3, 39840, Note_on_c, 0, 52, 24
3, 39840, Note_on_c, 0, 57, 24
3, 39850, Control_c, 0, 64, 0
3, 40320, Note_on_c, 0, 57, 0
3, 40320, Note_on_c, 0, 52, 0
3, 40320, Note_on_c, 0, 45, 0
3, 40320, Note_on_c, 0, 40, 27
3, 40549, Control_c, 0, 64, 127
3, 40560, Note_on_c, 0, 40, 0
3, 40800, Note_on_c, 0, 52, 20
3, 41280, Note_on_c, 0, 52, 0
3, 41280, Note_on_c, 0, 52, 26
3, 41280, Note_on_c, 0, 59, 26
3, 41760, Note_on_c, 0, 59, 0
3, 41760, Note_on_c, 0, 45, 27
3, 41770, Control_c, 0, 64, 0
3, 41852, Control_c, 0, 64, 127
3, 42240, Note_on_c, 0, 45, 0
3, 42240, Note_on_c, 0, 52, 0
3, 42240, Note_on_c, 0, 52, 23
3, 42240, Note_on_c, 0, 57, 23
3, 42720, Note_on_c, 0, 57, 0
3, 42720, Note_on_c, 0, 52, 0
3, 42720, Note_on_c, 0, 45, 23
3, 42720, Note_on_c, 0, 52, 23
3, 42720, Note_on_c, 0, 57, 23
3, 43200, Note_on_c, 0, 57, 0
3, 43200, Note_on_c, 0, 52, 0
3, 43200, Note_on_c, 0, 45, 0
3, 43200, Note_on_c, 0, 38, 27
3, 43210, Control_c, 0, 64, 0
3, 43417, Control_c, 0, 64, 127
3, 43440, Note_on_c, 0, 38, 0
3, 43680, Note_on_c, 0, 54, 24
3, 43680, Note_on_c, 0, 59, 24
3, 44160, Note_on_c, 0, 59, 0
3, 44160, Note_on_c, 0, 54, 0
3, 44160, Note_on_c, 0, 47, 24
3, 44160, Note_on_c, 0, 54, 24
3, 44160, Note_on_c, 0, 59, 24
3, 44173, Control_c, 0, 64, 0
3, 44640, Note_on_c, 0, 59, 0
3, 44640, Note_on_c, 0, 54, 0
3, 44640, Note_on_c, 0, 47, 0
3, 44640, Note_on_c, 0, 40, 27
3, 44781, Control_c, 0, 64, 127
3, 44880, Note_on_c, 0, 40, 0
3, 45120, Note_on_c, 0, 52, 24
3, 45120, Note_on_c, 0, 59, 24
3, 45600, Note_on_c, 0, 59, 0
3, 45600, Note_on_c, 0, 52, 0
3, 45600, Note_on_c, 0, 52, 24
3, 45600, Note_on_c, 0, 59, 24
3, 45614, Control_c, 0, 64, 0
3, 46080, Note_on_c, 0, 59, 0
3, 46080, Note_on_c, 0, 52, 0
3, 46080, Note_on_c, 0, 33, 32
3, 46320, Note_on_c, 0, 33, 0
3, 46334, Control_c, 0, 64, 127
3, 46560, Note_on_c, 0, 57, 25
3, 46560, Note_on_c, 0, 64, 30
3, 47040, Note_on_c, 0, 64, 0
3, 47040, Note_on_c, 0, 57, 0
3, 47040, Note_on_c, 0, 57, 60
3, 47040, Note_on_c, 0, 64, 60
3, 47520, Note_on_c, 0, 64, 0
3, 47520, Note_on_c, 0, 57, 0
3, 47520, Note_on_c, 0, 50, 67
3, 47531, Control_c, 0, 64, 0
3, 47587, Control_c, 0, 64, 127
3, 47760, Note_on_c, 0, 50, 0
3, 48000, Note_on_c, 0, 50, 59
3, 48000, Note_on_c, 0, 57, 59
3, 48000, Note_on_c, 0, 62, 59
3, 48480, Note_on_c, 0, 62, 0
3, 48480, Note_on_c, 0, 57, 0
3, 48480, Note_on_c, 0, 50, 0
3, 48480, Note_on_c, 0, 50, 59
3, 48480, Note_on_c, 0, 57, 59
3, 48480, Note_on_c, 0, 62, 59
3, 48960, Note_on_c, 0, 62, 0
3, 48960, Note_on_c, 0, 57, 0
3, 48960, Note_on_c, 0, 50, 0
3, 48960, Note_on_c, 0, 45, 67
3, 48967, Control_c, 0, 64, 0
3, 49172, Control_c, 0, 64, 127
3, 49200, Note_on_c, 0, 45, 0
3, 49440, Note_on_c, 0, 52, 62
3, 49440, Note_on_c, 0, 57, 62
3, 49440, Note_on_c, 0, 61, 62
3, 49920, Note_on_c, 0, 61, 0
3, 49920, Note_on_c, 0, 57, 0
3, 49920, Note_on_c, 0, 52, 0
3, 49920, Note_on_c, 0, 52, 62
3, 49920, Note_on_c, 0, 57, 62
3, 49920, Note_on_c, 0, 61, 62
3, 49934, Control_c, 0, 64, 0
3, 50400, Note_on_c, 0, 61, 0
3, 50400, Note_on_c, 0, 57, 0
3, 50400, Note_on_c, 0, 52, 0
3, 50400, Note_on_c, 0, 38, 67
3, 50513, Control_c, 0, 64, 127
3, 50640, Note_on_c, 0, 38, 0
3, 50880, Note_on_c, 0, 50, 62
3, 50880, Note_on_c, 0, 57, 62
3, 50880, Note_on_c, 0, 62, 62
3, 51360, Note_on_c, 0, 62, 0
3, 51360, Note_on_c, 0, 57, 0
3, 51360, Note_on_c, 0, 50, 0
3, 51360, Note_on_c, 0, 50, 62
3, 51360, Note_on_c, 0, 57, 62
3, 51360, Note_on_c, 0, 62, 62
3, 51373, Control_c, 0, 64, 0
3, 51840, Note_on_c, 0, 62, 0
3, 51840, Note_on_c, 0, 57, 0
3, 51840, Note_on_c, 0, 50, 0
3, 51840, Note_on_c, 0, 45, 67
3, 52009, Control_c, 0, 64, 127
3, 52080, Note_on_c, 0, 45, 0
3, 52320, Note_on_c, 0, 57, 49
3, 52800, Note_on_c, 0, 57, 0
3, 52800, Note_on_c, 0, 57, 64
3, 52800, Note_on_c, 0, 64, 64
3, 53280, Note_on_c, 0, 64, 0
3, 53280, Note_on_c, 0, 57, 0
3, 53280, Note_on_c, 0, 50, 67
3, 53288, Control_c, 0, 64, 0
3, 53361, Control_c, 0, 64, 127
3, 53520, Note_on_c, 0, 50, 0
3, 53760, Note_on_c, 0, 57, 59
3, 53760, Note_on_c, 0, 62, 59
3, 54240, Note_on_c, 0, 62, 0
3, 54240, Note_on_c, 0, 57, 0
3, 54240, Note_on_c, 0, 50, 59
3, 54240, Note_on_c, 0, 57, 59
3, 54240, Note_on_c, 0, 62, 59
3, 54720, Note_on_c, 0, 62, 0
3, 54720, Note_on_c, 0, 57, 0
3, 54720, Note_on_c, 0, 50, 0
3, 54720, Note_on_c, 0, 43, 67
3, 54728, Control_c, 0, 64, 0
3, 54947, Control_c, 0, 64, 127
3, 54960, Note_on_c, 0, 43, 0
3, 55200, Note_on_c, 0, 59, 62
3, 55200, Note_on_c, 0, 64, 62
3, 55680, Note_on_c, 0, 64, 0
3, 55680, Note_on_c, 0, 59, 0
3, 55680, Note_on_c, 0, 52, 62
3, 55680, Note_on_c, 0, 59, 62
3, 55680, Note_on_c, 0, 64, 62
3, 55686, Control_c, 0, 64, 0
3, 56160, Note_on_c, 0, 64, 0
3, 56160, Note_on_c, 0, 59, 0
3, 56160, Note_on_c, 0, 52, 0
3, 56160, Note_on_c, 0, 45, 67
3, 56273, Control_c, 0, 64, 127
3, 56400, Note_on_c, 0, 45, 0
3, 56640, Note_on_c, 0, 57, 62
3, 56640, Note_on_c, 0, 64, 62
3, 57120, Note_on_c, 0, 64, 0
3, 57120, Note_on_c, 0, 57, 0
3, 57120, Note_on_c, 0, 57, 62
3, 57120, Note_on_c, 0, 64, 62
3, 57132, Control_c, 0, 64, 0
3, 57600, Note_on_c, 0, 64, 0
3, 57600, Note_on_c, 0, 57, 0
3, 57600, Note_on_c, 0, 38, 67
3, 57769, Control_c, 0, 64, 127
3, 57840, Note_on_c, 0, 38, 0
3, 58080, Note_on_c, 0, 50, 41
3, 58080, Note_on_c, 0, 57, 41
3, 58080, Note_on_c, 0, 62, 49
3, 58560, Note_on_c, 0, 62, 0
3, 58560, Note_on_c, 0, 57, 0
3, 58560, Note_on_c, 0, 50, 0
3, 58560, Note_on_c, 0, 50, 44
3, 58560, Note_on_c, 0, 57, 44
3, 58560, Note_on_c, 0, 62, 44
3, 59056, Control_c, 0, 64, 0
3, 59104, Control_c, 0, 64, 127
3, 59520, Note_on_c, 0, 62, 0
3, 59520, Note_on_c, 0, 57, 0
3, 59520, Note_on_c, 0, 50, 0
3, 59520, Note_on_c, 0, 50, 23
3, 59520, Note_on_c, 0, 57, 23
3, 59520, Note_on_c, 0, 62, 23
3, 60000, Note_on_c, 0, 62, 0
3, 60000, Note_on_c, 0, 57, 0
3, 60000, Note_on_c, 0, 50, 0
3, 60000, Note_on_c, 0, 50, 23
3, 60000, Note_on_c, 0, 57, 23
3, 60000, Note_on_c, 0, 62, 23
3, 60480, Note_on_c, 0, 62, 0
3, 60480, Note_on_c, 0, 57, 0
3, 60480, Note_on_c, 0, 50, 0
3, 60480, Note_on_c, 0, 45, 27
3, 60491, Control_c, 0, 64, 0
3, 60635, Control_c, 0, 64, 127
3, 60720, Note_on_c, 0, 45, 0
3, 60960, Note_on_c, 0, 52, 24
3, 60960, Note_on_c, 0, 57, 24
3, 60960, Note_on_c, 0, 61, 24
3, 61440, Note_on_c, 0, 61, 0
3, 61440, Note_on_c, 0, 57, 0
3, 61440, Note_on_c, 0, 52, 0
3, 61440, Note_on_c, 0, 52, 24
3, 61440, Note_on_c, 0, 57, 24
3, 61440, Note_on_c, 0, 61, 24
3, 61454, Control_c, 0, 64, 0
3, 61920, Note_on_c, 0, 61, 0
3, 61920, Note_on_c, 0, 57, 0
3, 61920, Note_on_c, 0, 52, 0
3, 61920, Note_on_c, 0, 38, 27
3, 62047, Control_c, 0, 64, 127
3, 62160, Note_on_c, 0, 38, 0
3, 62400, Note_on_c, 0, 50, 24
3, 62400, Note_on_c, 0, 57, 24
3, 62400, Note_on_c, 0, 62, 24
3, 62880, Note_on_c, 0, 62, 0
3, 62880, Note_on_c, 0, 57, 0
3, 62880, Note_on_c, 0, 50, 0
3, 62880, Note_on_c, 0, 50, 24
3, 62880, Note_on_c, 0, 57, 24
3, 62880, Note_on_c, 0, 62, 24
3, 62895, Control_c, 0, 64, 0
3, 63360, Note_on_c, 0, 62, 0
3, 63360, Note_on_c, 0, 57, 0
3, 63360, Note_on_c, 0, 50, 0
3, 63360, Note_on_c, 0, 45, 27
3, 63583, Control_c, 0, 64, 127
3, 63600, Note_on_c, 0, 45, 0
3, 63840, Note_on_c, 0, 61, 20
3, 63840, Note_on_c, 0, 57, 20
3, 64320, Note_on_c, 0, 57, 0
3, 64320, Note_on_c, 0, 61, 0
3, 64320, Note_on_c, 0, 57, 26
3, 64320, Note_on_c, 0, 64, 26
3, 64800, Note_on_c, 0, 64, 0
3, 64800, Note_on_c, 0, 50, 27
3, 64808, Control_c, 0, 64, 0
3, 64888, Control_c, 0, 64, 127
3, 65280, Note_on_c, 0, 50, 0
3, 65280, Note_on_c, 0, 57, 0
3, 65280, Note_on_c, 0, 57, 23
3, 65280, Note_on_c, 0, 62, 23
3, 65760, Note_on_c, 0, 62, 0
3, 65760, Note_on_c, 0, 57, 0
3, 65760, Note_on_c, 0, 50, 23
3, 65760, Note_on_c, 0, 57, 23
3, 65760, Note_on_c, 0, 62, 23
3, 66240, Note_on_c, 0, 62, 0
3, 66240, Note_on_c, 0, 57, 0
3, 66240, Note_on_c, 0, 50, 0
3, 66240, Note_on_c, 0, 43, 27
3, 66251, Control_c, 0, 64, 0
3, 66452, Control_c, 0, 64, 127
3, 66480, Note_on_c, 0, 43, 0
3, 66720, Note_on_c, 0, 59, 24
3, 66720, Note_on_c, 0, 64, 24
3, 67200, Note_on_c, 0, 64, 0
3, 67200, Note_on_c, 0, 59, 0
3, 67200, Note_on_c, 0, 52, 24
3, 67200, Note_on_c, 0, 59, 24
3, 67200, Note_on_c, 0, 64, 24
3, 67215, Control_c, 0, 64, 0
3, 67680, Note_on_c, 0, 64, 0
3, 67680, Note_on_c, 0, 59, 0
3, 67680, Note_on_c, 0, 52, 0
3, 67680, Note_on_c, 0, 45, 27
3, 67807, Control_c, 0, 64, 127
3, 67920, Note_on_c, 0, 45, 0
3, 68160, Note_on_c, 0, 57, 24
3, 68160, Note_on_c, 0, 64, 24
3, 68640, Note_on_c, 0, 64, 0
3, 68640, Note_on_c, 0, 57, 0
3, 68640, Note_on_c, 0, 57, 24
3, 68640, Note_on_c, 0, 64, 24
3, 68654, Control_c, 0, 64, 0
3, 69120, Note_on_c, 0, 64, 0
3, 69120, Note_on_c, 0, 57, 0
3, 69120, Note_on_c, 0, 38, 27
3, 69440, Control_c, 0, 64, 127
3, 69600, Note_on_c, 0, 38, 0
3, 69600, Note_on_c, 0, 50, 17
3, 69600, Note_on_c, 0, 57, 17
3, 69600, Note_on_c, 0, 62, 20
3, 70080, Note_on_c, 0, 62, 0
3, 70080, Note_on_c, 0, 57, 0
3, 70080, Note_on_c, 0, 50, 0
3, 70080, Note_on_c, 0, 50, 26
3, 70080, Note_on_c, 0, 57, 26
3, 70080, Note_on_c, 0, 62, 26
3, 70560, Note_on_c, 0, 62, 0
3, 70560, Note_on_c, 0, 57, 0
3, 70560, Note_on_c, 0, 50, 0
3, 70560, Note_on_c, 0, 46, 44
3, 70570, Control_c, 0, 64, 0
3, 70687, Control_c, 0, 64, 127
3, 71040, Note_on_c, 0, 46, 0
3, 71040, Note_on_c, 0, 62, 40
3, 71040, Note_on_c, 0, 58, 33
3, 71040, Note_on_c, 0, 53, 33
3, 71520, Note_on_c, 0, 53, 0
3, 71520, Note_on_c, 0, 58, 0
3, 71520, Note_on_c, 0, 62, 0
3, 71520, Note_on_c, 0, 53, 34
3, 71520, Note_on_c, 0, 62, 41
3, 71520, Note_on_c, 0, 58, 34
3, 72000, Note_on_c, 0, 58, 0
3, 72000, Note_on_c, 0, 62, 0
3, 72000, Note_on_c, 0, 53, 0
3, 72000, Note_on_c, 0, 41, 46
3, 72008, Control_c, 0, 64, 0
3, 72148, Control_c, 0, 64, 127
3, 72480, Note_on_c, 0, 41, 0
3, 72480, Note_on_c, 0, 63, 43
3, 72480, Note_on_c, 0, 60, 35
3, 72480, Note_on_c, 0, 53, 35
3, 72960, Note_on_c, 0, 53, 0
3, 72960, Note_on_c, 0, 60, 0
3, 72960, Note_on_c, 0, 63, 0
3, 72960, Note_on_c, 0, 63, 44
3, 72960, Note_on_c, 0, 60, 36
3, 72960, Note_on_c, 0, 53, 36
3, 73440, Note_on_c, 0, 53, 0
3, 73440, Note_on_c, 0, 60, 0
3, 73440, Note_on_c, 0, 63, 0
3, 73440, Note_on_c, 0, 46, 49
3, 73451, Control_c, 0, 64, 0
3, 73567, Control_c, 0, 64, 127
3, 73920, Note_on_c, 0, 46, 0
3, 73920, Note_on_c, 0, 62, 45
3, 73920, Note_on_c, 0, 58, 37
3, 73920, Note_on_c, 0, 53, 37
3, 74400, Note_on_c, 0, 53, 0
3, 74400, Note_on_c, 0, 58, 0
3, 74400, Note_on_c, 0, 62, 0
3, 74400, Note_on_c, 0, 53, 38
3, 74400, Note_on_c, 0, 62, 46
3, 74400, Note_on_c, 0, 58, 38
3, 74414, Control_c, 0, 64, 0
3, 74880, Note_on_c, 0, 58, 0
3, 74880, Note_on_c, 0, 62, 0
3, 74880, Note_on_c, 0, 53, 0
3, 74880, Note_on_c, 0, 45, 51
3, 75050, Control_c, 0, 64, 127
3, 75360, Note_on_c, 0, 60, 47
3, 75720, Note_on_c, 0, 60, 0
3, 75720, Note_on_c, 0, 45, 0
3, 75720, Note_on_c, 0, 43, 48
3, 75840, Note_on_c, 0, 43, 0
3, 75840, Note_on_c, 0, 41, 62
3, 76320, Note_on_c, 0, 41, 0
3, 76320, Note_on_c, 0, 36, 55
3, 76320, Note_on_c, 0, 48, 64
3, 76335, Control_c, 0, 64, 0
3, 76461, Control_c, 0, 64, 127
3, 76800, Note_on_c, 0, 48, 0
3, 76800, Note_on_c, 0, 36, 0
3, 76800, Note_on_c, 0, 67, 64
3, 76800, Note_on_c, 0, 60, 55
3, 77280, Note_on_c, 0, 60, 0
3, 77280, Note_on_c, 0, 67, 0
3, 77760, Note_on_c, 0, 41, 64
3, 77795, Control_c, 0, 64, 0
3, 77894, Control_c, 0, 64, 127
3, 78000, Note_on_c, 0, 41, 0
3, 78120, Note_on_c, 0, 59, 65
3, 78240, Note_on_c, 0, 59, 0
3, 78240, Note_on_c, 0, 60, 72
3, 78600, Note_on_c, 0, 60, 0
3, 78600, Note_on_c, 0, 61, 68
3, 78720, Note_on_c, 0, 61, 0
3, 78720, Note_on_c, 0, 60, 72
3, 78732, Control_c, 0, 64, 0
3, 79200, Note_on_c, 0, 60, 0
3, 79200, Note_on_c, 0, 48, 58
3, 79334, Control_c, 0, 64, 127
3, 79440, Note_on_c, 0, 48, 0
3, 79560, Note_on_c, 0, 59, 58
3, 79680, Note_on_c, 0, 59, 0
3, 79680, Note_on_c, 0, 60, 63
3, 80040, Note_on_c, 0, 60, 0
3, 80040, Note_on_c, 0, 62, 58
3, 80160, Note_on_c, 0, 62, 0
3, 80160, Note_on_c, 0, 60, 62
3, 80172, Control_c, 0, 64, 0
3, 80640, Note_on_c, 0, 60, 0
3, 80640, Note_on_c, 0, 53, 52
3, 80774, Control_c, 0, 64, 127
3, 80880, Note_on_c, 0, 53, 0
3, 81000, Note_on_c, 0, 59, 46
3, 81120, Note_on_c, 0, 59, 0
3, 81120, Note_on_c, 0, 60, 54
3, 81480, Note_on_c, 0, 60, 0
3, 81480, Note_on_c, 0, 64, 45
3, 81600, Note_on_c, 0, 64, 0
3, 81600, Note_on_c, 0, 65, 47
3, 81613, Control_c, 0, 64, 0
3, 82080, Note_on_c, 0, 65, 0
3, 82080, Note_on_c, 0, 46, 44
3, 82207, Control_c, 0, 64, 127
3, 82560, Note_on_c, 0, 46, 0
3, 82560, Note_on_c, 0, 62, 40
3, 82560, Note_on_c, 0, 58, 33
3, 82560, Note_on_c, 0, 53, 33
3, 83040, Note_on_c, 0, 53, 0
3, 83040, Note_on_c, 0, 58, 0
3, 83040, Note_on_c, 0, 62, 0
3, 83040, Note_on_c, 0, 53, 34
3, 83040, Note_on_c, 0, 62, 41
3, 83040, Note_on_c, 0, 58, 34
3, 83061, Control_c, 0, 64, 0
3, 83520, Note_on_c, 0, 58, 0
3, 83520, Note_on_c, 0, 62, 0
3, 83520, Note_on_c, 0, 53, 0
3, 83520, Note_on_c, 0, 45, 46
3, 83646, Control_c, 0, 64, 127
3, 84000, Note_on_c, 0, 45, 0
3, 84000, Note_on_c, 0, 63, 43
3, 84000, Note_on_c, 0, 60, 35
3, 84000, Note_on_c, 0, 53, 35
3, 84480, Note_on_c, 0, 53, 0
3, 84480, Note_on_c, 0, 60, 0
3, 84480, Note_on_c, 0, 63, 0
3, 84480, Note_on_c, 0, 63, 44
3, 84480, Note_on_c, 0, 60, 36
3, 84480, Note_on_c, 0, 53, 36
3, 84960, Note_on_c, 0, 53, 0
3, 84960, Note_on_c, 0, 60, 0
3, 84960, Note_on_c, 0, 63, 0
3, 84960, Note_on_c, 0, 46, 49
3, 84967, Control_c, 0, 64, 0
3, 85087, Control_c, 0, 64, 127
3, 85440, Note_on_c, 0, 46, 0
3, 85440, Note_on_c, 0, 61, 45
3, 85440, Note_on_c, 0, 58, 37
3, 85440, Note_on_c, 0, 53, 37
3, 85920, Note_on_c, 0, 53, 0
3, 85920, Note_on_c, 0, 58, 0
3, 85920, Note_on_c, 0, 61, 0
3, 85920, Note_on_c, 0, 53, 37
3, 85920, Note_on_c, 0, 61, 45
3, 85920, Note_on_c, 0, 58, 37
3, 85934, Control_c, 0, 64, 0
3, 86400, Note_on_c, 0, 58, 0
3, 86400, Note_on_c, 0, 61, 0
3, 86400, Note_on_c, 0, 53, 0
3, 86400, Note_on_c, 0, 44, 53
3, 86548, Control_c, 0, 64, 127
3, 86880, Note_on_c, 0, 44, 0
3, 86880, Note_on_c, 0, 53, 46
3, 86880, Note_on_c, 0, 56, 46
3, 86880, Note_on_c, 0, 65, 54
3, 86880, Note_on_c, 0, 61, 46
3, 87240, Note_on_c, 0, 61, 0
3, 87240, Note_on_c, 0, 53, 0
3, 87240, Note_on_c, 0, 56, 0
3, 87240, Note_on_c, 0, 65, 0
3, 87240, Note_on_c, 0, 46, 54
3, 87360, Note_on_c, 0, 46, 0
3, 87360, Note_on_c, 0, 44, 67
3, 87840, Note_on_c, 0, 44, 0
3, 87840, Note_on_c, 0, 32, 70
3, 87855, Control_c, 0, 64, 0
3, 87974, Control_c, 0, 64, 127
3, 88320, Note_on_c, 0, 32, 0
3, 88320, Note_on_c, 0, 63, 70
3, 88320, Note_on_c, 0, 56, 60
3, 88800, Note_on_c, 0, 56, 0
3, 88800, Note_on_c, 0, 63, 0
3, 89280, Note_on_c, 0, 37, 69
3, 89315, Control_c, 0, 64, 0
3, 89414, Control_c, 0, 64, 127
3, 89520, Note_on_c, 0, 37, 0
3, 89640, Note_on_c, 0, 55, 73
3, 89760, Note_on_c, 0, 55, 0
3, 89760, Note_on_c, 0, 56, 77
3, 90120, Note_on_c, 0, 56, 0
3, 90120, Note_on_c, 0, 58, 72
3, 90240, Note_on_c, 0, 58, 0
3, 90240, Note_on_c, 0, 56, 75
3, 90251, Control_c, 0, 64, 0
3, 90720, Note_on_c, 0, 56, 0
3, 90720, Note_on_c, 0, 44, 60
3, 90854, Control_c, 0, 64, 127
3, 90960, Note_on_c, 0, 44, 0
3, 91080, Note_on_c, 0, 55, 60
3, 91200, Note_on_c, 0, 55, 0
3, 91200, Note_on_c, 0, 56, 65
3, 91560, Note_on_c, 0, 56, 0
3, 91560, Note_on_c, 0, 57, 63
3, 91680, Note_on_c, 0, 57, 0
3, 91680, Note_on_c, 0, 56, 64
3, 91697, Control_c, 0, 64, 0
3, 92160, Note_on_c, 0, 56, 0
3, 92160, Note_on_c, 0, 49, 53
3, 92294, Control_c, 0, 64, 127
3, 92400, Note_on_c, 0, 49, 0
3, 92520, Note_on_c, 0, 55, 46
3, 92640, Note_on_c, 0, 55, 0
3, 92640, Note_on_c, 0, 56, 55
3, 93000, Note_on_c, 0, 56, 0
3, 93000, Note_on_c, 0, 60, 45
3, 93120, Note_on_c, 0, 60, 0
3, 93120, Note_on_c, 0, 61, 47
3, 93136, Control_c, 0, 64, 0
3, 93600, Note_on_c, 0, 61, 0
3, 93600, Note_on_c, 0, 41, 40
3, 93609, Control_c, 0, 64, 0
3, 93734, Control_c, 0, 64, 127
3, 93840, Note_on_c, 0, 41, 0
3, 94080, Note_on_c, 0, 59, 35
3, 94080, Note_on_c, 0, 53, 29
3, 94560, Note_on_c, 0, 53, 0
3, 94560, Note_on_c, 0, 59, 0
3, 94560, Note_on_c, 0, 53, 30
3, 94560, Note_on_c, 0, 59, 36
3, 95040, Note_on_c, 0, 59, 0
3, 95040, Note_on_c, 0, 53, 0
3, 95040, Note_on_c, 0, 42, 43
3, 95047, Control_c, 0, 64, 0
3, 95153, Control_c, 0, 64, 127
3, 95280, Note_on_c, 0, 42, 0
3, 95520, Note_on_c, 0, 57, 37
3, 95520, Note_on_c, 0, 54, 31
3, 96000, Note_on_c, 0, 54, 0
3, 96000, Note_on_c, 0, 57, 0
3, 96000, Note_on_c, 0, 54, 32
3, 96000, Note_on_c, 0, 57, 38
3, 96253, Control_c, 0, 64, 0
3, 96480, Note_on_c, 0, 57, 0
3, 96480, Note_on_c, 0, 54, 0
3, 96480, Note_on_c, 0, 41, 45
3, 96551, Control_c, 0, 64, 127
3, 96720, Note_on_c, 0, 41, 0
3, 96960, Note_on_c, 0, 59, 40
3, 96960, Note_on_c, 0, 53, 33
3, 97440, Note_on_c, 0, 53, 0
3, 97440, Note_on_c, 0, 59, 0
3, 97440, Note_on_c, 0, 53, 34
3, 97440, Note_on_c, 0, 59, 40
3, 97920, Note_on_c, 0, 59, 0
3, 97920, Note_on_c, 0, 53, 0
3, 97920, Note_on_c, 0, 42, 48
3, 97930, Control_c, 0, 64, 0
3, 98047, Control_c, 0, 64, 127
3, 98160, Note_on_c, 0, 42, 0
3, 98400, Note_on_c, 0, 57, 42
3, 98400, Note_on_c, 0, 54, 35
3, 98880, Note_on_c, 0, 54, 0
3, 98880, Note_on_c, 0, 57, 0
3, 98880, Note_on_c, 0, 54, 36
3, 98880, Note_on_c, 0, 57, 43
3, 99127, Control_c, 0, 64, 0
3, 99360, Note_on_c, 0, 57, 0
3, 99360, Note_on_c, 0, 54, 0
3, 99360, Note_on_c, 0, 40, 51
3, 99431, Control_c, 0, 64, 127
3, 99600, Note_on_c, 0, 40, 0
3, 99840, Note_on_c, 0, 59, 44
3, 99840, Note_on_c, 0, 52, 37
3, 100320, Note_on_c, 0, 52, 0
3, 100320, Note_on_c, 0, 59, 0
3, 100320, Note_on_c, 0, 52, 37
3, 100320, Note_on_c, 0, 59, 44
3, 100800, Note_on_c, 0, 59, 0
3, 100800, Note_on_c, 0, 52, 0
3, 100800, Note_on_c, 0, 45, 51
3, 100810, Control_c, 0, 64, 0
3, 100913, Control_c, 0, 64, 127
3, 101040, Note_on_c, 0, 45, 0
3, 101280, Note_on_c, 0, 57, 44
3, 101280, Note_on_c, 0, 52, 37
3, 101760, Note_on_c, 0, 52, 0
3, 101760, Note_on_c, 0, 57, 0
3, 101760, Note_on_c, 0, 52, 37
3, 101760, Note_on_c, 0, 57, 44
3, 102007, Control_c, 0, 64, 0
3, 102240, Note_on_c, 0, 57, 0
3, 102240, Note_on_c, 0, 52, 0
3, 102240, Note_on_c, 0, 40, 51
3, 102311, Control_c, 0, 64, 127
3, 102480, Note_on_c, 0, 40, 0
3, 102720, Note_on_c, 0, 59, 44
3, 102720, Note_on_c, 0, 52, 37
3, 103200, Note_on_c, 0, 52, 0
3, 103200, Note_on_c, 0, 59, 0
3, 103200, Note_on_c, 0, 52, 37
3, 103200, Note_on_c, 0, 59, 44
3, 103680, Note_on_c, 0, 59, 0
3, 103680, Note_on_c, 0, 52, 0
3, 103680, Note_on_c, 0, 45, 51
3, 103690, Control_c, 0, 64, 0
3, 103800, Control_c, 0, 64, 127
3, 103920, Note_on_c, 0, 45, 0
3, 104160, Note_on_c, 0, 57, 44
3, 104160, Note_on_c, 0, 52, 37
3, 104640, Note_on_c, 0, 52, 0
3, 104640, Note_on_c, 0, 57, 0
3, 104640, Note_on_c, 0, 52, 37
3, 104640, Note_on_c, 0, 57, 44
3, 104889, Control_c, 0, 64, 0
3, 105120, Note_on_c, 0, 57, 0
3, 105120, Note_on_c, 0, 52, 0
3, 105120, Note_on_c, 0, 41, 40
3, 105191, Control_c, 0, 64, 127
3, 105360, Note_on_c, 0, 41, 0
3, 105600, Note_on_c, 0, 59, 35
3, 105600, Note_on_c, 0, 53, 29
3, 106080, Note_on_c, 0, 53, 0
3, 106080, Note_on_c, 0, 59, 0
3, 106080, Note_on_c, 0, 53, 29
3, 106080, Note_on_c, 0, 59, 35
3, 106560, Note_on_c, 0, 59, 0
3, 106560, Note_on_c, 0, 53, 0
3, 106560, Note_on_c, 0, 42, 41
3, 106571, Control_c, 0, 64, 0
3, 106680, Control_c, 0, 64, 127
3, 106800, Note_on_c, 0, 42, 0
3, 107040, Note_on_c, 0, 57, 36
3, 107040, Note_on_c, 0, 54, 30
3, 107520, Note_on_c, 0, 54, 0
3, 107520, Note_on_c, 0, 57, 0
3, 107520, Note_on_c, 0, 54, 31
3, 107520, Note_on_c, 0, 57, 36
3, 107778, Control_c, 0, 64, 0
3, 108000, Note_on_c, 0, 57, 0
3, 108000, Note_on_c, 0, 54, 0
3, 108000, Note_on_c, 0, 41, 43
3, 108071, Control_c, 0, 64, 127
3, 108240, Note_on_c, 0, 41, 0
3, 108480, Note_on_c, 0, 59, 37
3, 108480, Note_on_c, 0, 53, 31
3, 108960, Note_on_c, 0, 53, 0
3, 108960, Note_on_c, 0, 59, 0
3, 108960, Note_on_c, 0, 53, 31
3, 108960, Note_on_c, 0, 59, 37
3, 109440, Note_on_c, 0, 59, 0
3, 109440, Note_on_c, 0, 53, 0
3, 109440, Note_on_c, 0, 42, 44
3, 109450, Control_c, 0, 64, 0
3, 109553, Control_c, 0, 64, 127
3, 109680, Note_on_c, 0, 42, 0
3, 109920, Note_on_c, 0, 57, 38
3, 109920, Note_on_c, 0, 54, 32
3, 110400, Note_on_c, 0, 54, 0
3, 110400, Note_on_c, 0, 57, 0
3, 110400, Note_on_c, 0, 54, 32
3, 110400, Note_on_c, 0, 57, 39
3, 110651, Control_c, 0, 64, 0
3, 110880, Note_on_c, 0, 57, 0
3, 110880, Note_on_c, 0, 54, 0
3, 110880, Note_on_c, 0, 40, 45
3, 110951, Control_c, 0, 64, 127
3, 111120, Note_on_c, 0, 40, 0
3, 111360, Note_on_c, 0, 59, 39
3, 111360, Note_on_c, 0, 52, 33
3, 111840, Note_on_c, 0, 52, 0
3, 111840, Note_on_c, 0, 59, 0
3, 111840, Note_on_c, 0, 52, 33
3, 111840, Note_on_c, 0, 59, 39
3, 112320, Note_on_c, 0, 59, 0
3, 112320, Note_on_c, 0, 52, 0
3, 112320, Note_on_c, 0, 45, 45
3, 112330, Control_c, 0, 64, 0
3, 112461, Control_c, 0, 64, 127
3, 112560, Note_on_c, 0, 45, 0
3, 112800, Note_on_c, 0, 57, 39
3, 112800, Note_on_c, 0, 52, 33
3, 113280, Note_on_c, 0, 52, 0
3, 113280, Note_on_c, 0, 57, 0
3, 113280, Note_on_c, 0, 52, 33
3, 113280, Note_on_c, 0, 57, 39
3, 113530, Control_c, 0, 64, 0
3, 113760, Note_on_c, 0, 57, 0
3, 113760, Note_on_c, 0, 52, 0
3, 113760, Note_on_c, 0, 40, 45
3, 113831, Control_c, 0, 64, 127
3, 114000, Note_on_c, 0, 40, 0
3, 114240, Note_on_c, 0, 59, 38
3, 114240, Note_on_c, 0, 52, 32
3, 114720, Note_on_c, 0, 52, 0
3, 114720, Note_on_c, 0, 59, 0
3, 114720, Note_on_c, 0, 52, 31
3, 114720, Note_on_c, 0, 59, 36
3, 115200, Note_on_c, 0, 59, 0
3, 115200, Note_on_c, 0, 52, 0
3, 115200, Note_on_c, 0, 45, 42
3, 115211, Control_c, 0, 64, 0
3, 115363, Control_c, 0, 64, 127
3, 115440, Note_on_c, 0, 45, 0
3, 115680, Note_on_c, 0, 64, 35
3, 115680, Note_on_c, 0, 57, 29
3, 116160, Note_on_c, 0, 57, 0
3, 116160, Note_on_c, 0, 64, 0
3, 116160, Note_on_c, 0, 57, 28
3, 116160, Note_on_c, 0, 64, 34
3, 116415, Control_c, 0, 64, 0
3, 116640, Note_on_c, 0, 64, 0
3, 116640, Note_on_c, 0, 57, 0
3, 116640, Note_on_c, 0, 50, 59
3, 116732, Control_c, 0, 64, 127
3, 116880, Note_on_c, 0, 50, 0
3, 117120, Note_on_c, 0, 50, 52
3, 117120, Note_on_c, 0, 57, 52
3, 117120, Note_on_c, 0, 62, 52
3, 117600, Note_on_c, 0, 62, 0
3, 117600, Note_on_c, 0, 57, 0
3, 117600, Note_on_c, 0, 50, 0
3, 117600, Note_on_c, 0, 50, 52
3, 117600, Note_on_c, 0, 57, 52
3, 117600, Note_on_c, 0, 62, 52
3, 118080, Note_on_c, 0, 62, 0
3, 118080, Note_on_c, 0, 57, 0
3, 118080, Note_on_c, 0, 50, 0
3, 118080, Note_on_c, 0, 45, 59
3, 118090, Control_c, 0, 64, 0
3, 118235, Control_c, 0, 64, 127
3, 118320, Note_on_c, 0, 45, 0
3, 118560, Note_on_c, 0, 52, 54
3, 118560, Note_on_c, 0, 57, 54
3, 118560, Note_on_c, 0, 61, 54
3, 119040, Note_on_c, 0, 61, 0
3, 119040, Note_on_c, 0, 57, 0
3, 119040, Note_on_c, 0, 52, 0
3, 119040, Note_on_c, 0, 52, 54
3, 119040, Note_on_c, 0, 57, 54
3, 119040, Note_on_c, 0, 61, 54
3, 119052, Control_c, 0, 64, 0
3, 119520, Note_on_c, 0, 61, 0
3, 119520, Note_on_c, 0, 57, 0
3, 119520, Note_on_c, 0, 52, 0
3, 119520, Note_on_c, 0, 38, 59
3, 119612, Control_c, 0, 64, 127
3, 119760, Note_on_c, 0, 38, 0
3, 120000, Note_on_c, 0, 50, 54
3, 120000, Note_on_c, 0, 57, 54
3, 120000, Note_on_c, 0, 62, 54
3, 120480, Note_on_c, 0, 62, 0
3, 120480, Note_on_c, 0, 57, 0
3, 120480, Note_on_c, 0, 50, 0
3, 120480, Note_on_c, 0, 50, 54
3, 120480, Note_on_c, 0, 57, 54
3, 120480, Note_on_c, 0, 62, 54
3, 120497, Control_c, 0, 64, 0
3, 120960, Note_on_c, 0, 62, 0
3, 120960, Note_on_c, 0, 57, 0
3, 120960, Note_on_c, 0, 50, 0
3, 120960, Note_on_c, 0, 45, 59
3, 121186, Control_c, 0, 64, 127
3, 121200, Note_on_c, 0, 45, 0
3, 121440, Note_on_c, 0, 57, 43
3, 121920, Note_on_c, 0, 57, 0
3, 121920, Note_on_c, 0, 57, 56
3, 121920, Note_on_c, 0, 64, 56
3, 122400, Note_on_c, 0, 64, 0
3, 122400, Note_on_c, 0, 57, 0
3, 122400, Note_on_c, 0, 50, 59
3, 122408, Control_c, 0, 64, 0
3, 122517, Control_c, 0, 64, 127
3, 122640, Note_on_c, 0, 50, 0
3, 122880, Note_on_c, 0, 57, 52
3, 122880, Note_on_c, 0, 62, 52
3, 123360, Note_on_c, 0, 62, 0
3, 123360, Note_on_c, 0, 57, 0
3, 123360, Note_on_c, 0, 50, 52
3, 123360, Note_on_c, 0, 57, 52
3, 123360, Note_on_c, 0, 62, 52
3, 123840, Note_on_c, 0, 62, 0
3, 123840, Note_on_c, 0, 57, 0
3, 123840, Note_on_c, 0, 50, 0
3, 123840, Note_on_c, 0, 43, 59
3, 123849, Control_c, 0, 64, 0
3, 124038, Control_c, 0, 64, 127
3, 124080, Note_on_c, 0, 43, 0
3, 124320, Note_on_c, 0, 59, 54
3, 124320, Note_on_c, 0, 64, 54
3, 124800, Note_on_c, 0, 64, 0
3, 124800, Note_on_c, 0, 59, 0
3, 124800, Note_on_c, 0, 52, 54
3, 124800, Note_on_c, 0, 59, 54
3, 124800, Note_on_c, 0, 64, 54
3, 124810, Control_c, 0, 64, 0
3, 125280, Note_on_c, 0, 64, 0
3, 125280, Note_on_c, 0, 59, 0
3, 125280, Note_on_c, 0, 52, 0
3, 125280, Note_on_c, 0, 45, 59
3, 125400, Control_c, 0, 64, 127
3, 125520, Note_on_c, 0, 45, 0
3, 125760, Note_on_c, 0, 57, 54
3, 125760, Note_on_c, 0, 64, 54
3, 126240, Note_on_c, 0, 64, 0
3, 126240, Note_on_c, 0, 57, 0
3, 126240, Note_on_c, 0, 57, 54
3, 126240, Note_on_c, 0, 64, 54
3, 126254, Control_c, 0, 64, 0
3, 126720, Note_on_c, 0, 64, 0
3, 126720, Note_on_c, 0, 57, 0
3, 126720, Note_on_c, 0, 38, 59
3, 126960, Note_on_c, 0, 38, 0
3, 126960, Control_c, 0, 64, 127
3, 127200, Note_on_c, 0, 50, 36
3, 127200, Note_on_c, 0, 57, 36
3, 127200, Note_on_c, 0, 62, 43
3, 127680, Note_on_c, 0, 62, 0
3, 127680, Note_on_c, 0, 57, 0
3, 127680, Note_on_c, 0, 50, 0
3, 127680, Note_on_c, 0, 50, 39
3, 127680, Note_on_c, 0, 57, 39
3, 127680, Note_on_c, 0, 62, 39
3, 128176, Control_c, 0, 64, 0
3, 128262, Control_c, 0, 64, 127
3, 128640, Note_on_c, 0, 62, 0
3, 128640, Note_on_c, 0, 57, 0
3, 128640, Note_on_c, 0, 50, 0
3, 128640, Note_on_c, 0, 50, 23
3, 128640, Note_on_c, 0, 57, 23
3, 128640, Note_on_c, 0, 62, 23
3, 129120, Note_on_c, 0, 62, 0
3, 129120, Note_on_c, 0, 57, 0
3, 129120, Note_on_c, 0, 50, 0
3, 129120, Note_on_c, 0, 50, 23
3, 129120, Note_on_c, 0, 57, 23
3, 129120, Note_on_c, 0, 62, 23
3, 129600, Note_on_c, 0, 62, 0
3, 129600, Note_on_c, 0, 57, 0
3, 129600, Note_on_c, 0, 50, 0
3, 129600, Note_on_c, 0, 45, 27
3, 129616, Control_c, 0, 64, 0
3, 129812, Control_c, 0, 64, 127
3, 129840, Note_on_c, 0, 45, 0
3, 130080, Note_on_c, 0, 52, 24
3, 130080, Note_on_c, 0, 57, 24
3, 130080, Note_on_c, 0, 61, 24
3, 130560, Note_on_c, 0, 61, 0
3, 130560, Note_on_c, 0, 57, 0
3, 130560, Note_on_c, 0, 52, 0
3, 130560, Note_on_c, 0, 52, 24
3, 130560, Note_on_c, 0, 57, 24
3, 130560, Note_on_c, 0, 61, 24
3, 130576, Control_c, 0, 64, 0
3, 131040, Note_on_c, 0, 61, 0
3, 131040, Note_on_c, 0, 57, 0
3, 131040, Note_on_c, 0, 52, 0
3, 131040, Note_on_c, 0, 38, 27
3, 131146, Control_c, 0, 64, 127
3, 131280, Note_on_c, 0, 38, 0
3, 131520, Note_on_c, 0, 50, 24
3, 131520, Note_on_c, 0, 57, 24
3, 131520, Note_on_c, 0, 62, 24
3, 132000, Note_on_c, 0, 62, 0
3, 132000, Note_on_c, 0, 57, 0
3, 132000, Note_on_c, 0, 50, 0
3, 132000, Note_on_c, 0, 50, 24
3, 132000, Note_on_c, 0, 57, 24
3, 132000, Note_on_c, 0, 62, 24
3, 132018, Control_c, 0, 64, 0
3, 132480, Note_on_c, 0, 62, 0
3, 132480, Note_on_c, 0, 57, 0
3, 132480, Note_on_c, 0, 50, 0
3, 132480, Note_on_c, 0, 45, 27
3, 132649, Control_c, 0, 64, 127
3, 132720, Note_on_c, 0, 45, 0
3, 132960, Note_on_c, 0, 61, 20
3, 132960, Note_on_c, 0, 57, 20
3, 133440, Note_on_c, 0, 57, 0
3, 133440, Note_on_c, 0, 61, 0
3, 133440, Note_on_c, 0, 57, 26
3, 133440, Note_on_c, 0, 64, 26
3, 133920, Note_on_c, 0, 64, 0
3, 133920, Note_on_c, 0, 50, 27
3, 133928, Control_c, 0, 64, 0
3, 134019, Control_c, 0, 64, 127
3, 134400, Note_on_c, 0, 50, 0
3, 134400, Note_on_c, 0, 57, 0
3, 134400, Note_on_c, 0, 57, 23
3, 134400, Note_on_c, 0, 62, 23
3, 134880, Note_on_c, 0, 62, 0
3, 134880, Note_on_c, 0, 57, 0
3, 134880, Note_on_c, 0, 50, 23
3, 134880, Note_on_c, 0, 57, 23
3, 134880, Note_on_c, 0, 62, 23
3, 135360, Note_on_c, 0, 62, 0
3, 135360, Note_on_c, 0, 57, 0
3, 135360, Note_on_c, 0, 50, 0
3, 135360, Note_on_c, 0, 43, 27
3, 135370, Control_c, 0, 64, 0
3, 135515, Control_c, 0, 64, 127
3, 135600, Note_on_c, 0, 43, 0
3, 135840, Note_on_c, 0, 59, 24
3, 135840, Note_on_c, 0, 64, 24
3, 136320, Note_on_c, 0, 64, 0
3, 136320, Note_on_c, 0, 59, 0
3, 136320, Note_on_c, 0, 52, 24
3, 136320, Note_on_c, 0, 59, 24
3, 136320, Note_on_c, 0, 64, 24
3, 136335, Control_c, 0, 64, 0
3, 136800, Note_on_c, 0, 64, 0
3, 136800, Note_on_c, 0, 59, 0
3, 136800, Note_on_c, 0, 52, 0
3, 136800, Note_on_c, 0, 45, 27
3, 136934, Control_c, 0, 64, 127
3, 137040, Note_on_c, 0, 45, 0
3, 137280, Note_on_c, 0, 57, 24
3, 137280, Note_on_c, 0, 64, 24
3, 137760, Note_on_c, 0, 64, 0
3, 137760, Note_on_c, 0, 57, 0
3, 137760, Note_on_c, 0, 57, 24
3, 137760, Note_on_c, 0, 64, 24
3, 137775, Control_c, 0, 64, 0
3, 138240, Note_on_c, 0, 64, 0
3, 138240, Note_on_c, 0, 57, 0
3, 138240, Note_on_c, 0, 38, 27
3, 138409, Control_c, 0, 64, 127
3, 138480, Note_on_c, 0, 38, 0
3, 138720, Note_on_c, 0, 50, 17
3, 138720, Note_on_c, 0, 57, 17
3, 138720, Note_on_c, 0, 62, 20
3, 139200, Note_on_c, 0, 62, 0
3, 139200, Note_on_c, 0, 57, 0
3, 139200, Note_on_c, 0, 50, 0
3, 139200, Note_on_c, 0, 50, 26
3, 139200, Note_on_c, 0, 57, 26
3, 139200, Note_on_c, 0, 62, 26
3, 139680, Note_on_c, 0, 62, 0
3, 139680, Note_on_c, 0, 57, 0
3, 139680, Note_on_c, 0, 50, 0
3, 139680, Note_on_c, 0, 45, 59
3, 139693, Control_c, 0, 64, 0
3, 139761, Control_c, 0, 64, 127
3, 139920, Note_on_c, 0, 45, 0
3, 140160, Note_on_c, 0, 45, 52
3, 140160, Note_on_c, 0, 52, 52
3, 140160, Note_on_c, 0, 57, 52
3, 140640, Note_on_c, 0, 57, 0
3, 140640, Note_on_c, 0, 52, 0
3, 140640, Note_on_c, 0, 45, 0
3, 140640, Note_on_c, 0, 45, 52
3, 140640, Note_on_c, 0, 52, 52
3, 140640, Note_on_c, 0, 57, 52
3, 141120, Note_on_c, 0, 57, 0
3, 141120, Note_on_c, 0, 52, 0
3, 141120, Note_on_c, 0, 45, 0
3, 141120, Note_on_c, 0, 40, 59
3, 141134, Control_c, 0, 64, 0
3, 141275, Control_c, 0, 64, 127
3, 141360, Note_on_c, 0, 40, 0
3, 141600, Note_on_c, 0, 52, 54
3, 141600, Note_on_c, 0, 59, 54
3, 142080, Note_on_c, 0, 59, 0
3, 142080, Note_on_c, 0, 52, 0
3, 142080, Note_on_c, 0, 52, 54
3, 142080, Note_on_c, 0, 59, 54
3, 142099, Control_c, 0, 64, 0
3, 142560, Note_on_c, 0, 59, 0
3, 142560, Note_on_c, 0, 52, 0
3, 142560, Note_on_c, 0, 33, 59
3, 142694, Control_c, 0, 64, 127
3, 142800, Note_on_c, 0, 33, 0
3, 143040, Note_on_c, 0, 45, 54
3, 143040, Note_on_c, 0, 52, 54
3, 143040, Note_on_c, 0, 57, 54
3, 143520, Note_on_c, 0, 57, 0
3, 143520, Note_on_c, 0, 52, 0
3, 143520, Note_on_c, 0, 45, 0
3, 143520, Note_on_c, 0, 45, 54
3, 143520, Note_on_c, 0, 52, 54
3, 143520, Note_on_c, 0, 57, 54
3, 143535, Control_c, 0, 64, 0
3, 144000, Note_on_c, 0, 57, 0
3, 144000, Note_on_c, 0, 52, 0
3, 144000, Note_on_c, 0, 45, 0
3, 144000, Note_on_c, 0, 40, 59
3, 144213, Control_c, 0, 64, 127
3, 144240, Note_on_c, 0, 40, 0
3, 144480, Note_on_c, 0, 52, 43
3, 144960, Note_on_c, 0, 52, 0
3, 144960, Note_on_c, 0, 52, 56
3, 144960, Note_on_c, 0, 59, 56
3, 145440, Note_on_c, 0, 59, 0
3, 145440, Note_on_c, 0, 52, 0
3, 145440, Note_on_c, 0, 45, 59
3, 145453, Control_c, 0, 64, 0
3, 145536, Control_c, 0, 64, 127
3, 145680, Note_on_c, 0, 45, 0
3, 145920, Note_on_c, 0, 52, 52
3, 145920, Note_on_c, 0, 57, 52
3, 146400, Note_on_c, 0, 57, 0
3, 146400, Note_on_c, 0, 52, 0
3, 146400, Note_on_c, 0, 45, 52
3, 146400, Note_on_c, 0, 52, 52
3, 146400, Note_on_c, 0, 57, 52
3, 146880, Note_on_c, 0, 57, 0
3, 146880, Note_on_c, 0, 52, 0
3, 146880, Note_on_c, 0, 45, 0
3, 146880, Note_on_c, 0, 38, 59
3, 146891, Control_c, 0, 64, 0
3, 147086, Control_c, 0, 64, 127
3, 147120, Note_on_c, 0, 38, 0
3, 147360, Note_on_c, 0, 54, 54
3, 147360, Note_on_c, 0, 59, 54
3, 147840, Note_on_c, 0, 59, 0
3, 147840, Note_on_c, 0, 54, 0
3, 147840, Note_on_c, 0, 47, 54
3, 147840, Note_on_c, 0, 54, 54
3, 147840, Note_on_c, 0, 59, 54
3, 147855, Control_c, 0, 64, 0
3, 148320, Note_on_c, 0, 59, 0
3, 148320, Note_on_c, 0, 54, 0
3, 148320, Note_on_c, 0, 47, 0
3, 148320, Note_on_c, 0, 40, 59
3, 148440, Control_c, 0, 64, 127
3, 148560, Note_on_c, 0, 40, 0
3, 148800, Note_on_c, 0, 52, 54
3, 148800, Note_on_c, 0, 59, 54
3, 149280, Note_on_c, 0, 59, 0
3, 149280, Note_on_c, 0, 52, 0
3, 149280, Note_on_c, 0, 52, 54
3, 149280, Note_on_c, 0, 59, 54
3, 149294, Control_c, 0, 64, 0
3, 149760, Note_on_c, 0, 59, 0
3, 149760, Note_on_c, 0, 52, 0
3, 149760, Note_on_c, 0, 33, 59
3, 149972, Control_c, 0, 64, 127
3, 150000, Note_on_c, 0, 33, 0
3, 150240, Note_on_c, 0, 45, 36
3, 150240, Note_on_c, 0, 52, 36
3, 150240, Note_on_c, 0, 57, 43
3, 150720, Note_on_c, 0, 57, 0
3, 150720, Note_on_c, 0, 52, 0
3, 150720, Note_on_c, 0, 45, 0
3, 150720, Note_on_c, 0, 45, 39
3, 150720, Note_on_c, 0, 52, 39
3, 150720, Note_on_c, 0, 57, 39
3, 151216, Control_c, 0, 64, 0
3, 151302, Control_c, 0, 64, 127
3, 151680, Note_on_c, 0, 57, 0
3, 151680, Note_on_c, 0, 52, 0
3, 151680, Note_on_c, 0, 45, 0
3, 151680, Note_on_c, 0, 45, 23
3, 151680, Note_on_c, 0, 52, 23
3, 151680, Note_on_c, 0, 57, 23
3, 152160, Note_on_c, 0, 57, 0
3, 152160, Note_on_c, 0, 52, 0
3, 152160, Note_on_c, 0, 45, 0
3, 152160, Note_on_c, 0, 45, 23
3, 152160, Note_on_c, 0, 52, 23
3, 152160, Note_on_c, 0, 57, 23
3, 152640, Note_on_c, 0, 57, 0
3, 152640, Note_on_c, 0, 52, 0
3, 152640, Note_on_c, 0, 45, 0
3, 152640, Note_on_c, 0, 40, 27
3, 152650, Control_c, 0, 64, 0
3, 152795, Control_c, 0, 64, 127
3, 152880, Note_on_c, 0, 40, 0
3, 153120, Note_on_c, 0, 52, 24
3, 153120, Note_on_c, 0, 59, 24
3, 153600, Note_on_c, 0, 59, 0
3, 153600, Note_on_c, 0, 52, 0
3, 153600, Note_on_c, 0, 52, 24
3, 153600, Note_on_c, 0, 59, 24
3, 153617, Control_c, 0, 64, 0
3, 154080, Note_on_c, 0, 59, 0
3, 154080, Note_on_c, 0, 52, 0
3, 154080, Note_on_c, 0, 33, 27
3, 154236, Control_c, 0, 64, 127
3, 154320, Note_on_c, 0, 33, 0
3, 154560, Note_on_c, 0, 45, 24
3, 154560, Note_on_c, 0, 52, 24
3, 154560, Note_on_c, 0, 57, 24
3, 155040, Note_on_c, 0, 57, 0
3, 155040, Note_on_c, 0, 52, 0
3, 155040, Note_on_c, 0, 45, 0
3, 155040, Note_on_c, 0, 45, 24
3, 155040, Note_on_c, 0, 52, 24
3, 155040, Note_on_c, 0, 57, 24
3, 155056, Control_c, 0, 64, 0
3, 155520, Note_on_c, 0, 57, 0
3, 155520, Note_on_c, 0, 52, 0
3, 155520, Note_on_c, 0, 45, 0
3, 155520, Note_on_c, 0, 40, 27
3, 155740, Control_c, 0, 64, 127
3, 155760, Note_on_c, 0, 40, 0
3, 156000, Note_on_c, 0, 52, 20
3, 156480, Note_on_c, 0, 52, 0
3, 156480, Note_on_c, 0, 52, 26
3, 156480, Note_on_c, 0, 59, 26
3, 156960, Note_on_c, 0, 59, 0
3, 156960, Note_on_c, 0, 45, 27
3, 156967, Control_c, 0, 64, 0
3, 157038, Control_c, 0, 64, 127
3, 157440, Note_on_c, 0, 45, 0
3, 157440, Note_on_c, 0, 52, 0
3, 157440, Note_on_c, 0, 52, 23
3, 157440, Note_on_c, 0, 57, 23
3, 157920, Note_on_c, 0, 57, 0
3, 157920, Note_on_c, 0, 52, 0
3, 157920, Note_on_c, 0, 45, 23
3, 157920, Note_on_c, 0, 52, 23
3, 157920, Note_on_c, 0, 57, 23
3, 158400, Note_on_c, 0, 57, 0
3, 158400, Note_on_c, 0, 52, 0
3, 158400, Note_on_c, 0, 45, 0
3, 158400, Note_on_c, 0, 38, 27
3, 158408, Control_c, 0, 64, 0
3, 158555, Control_c, 0, 64, 127
3, 158640, Note_on_c, 0, 38, 0
3, 158880, Note_on_c, 0, 54, 24
3, 158880, Note_on_c, 0, 59, 24
3, 159360, Note_on_c, 0, 59, 0
3, 159360, Note_on_c, 0, 54, 0
3, 159360, Note_on_c, 0, 47, 24
3, 159360, Note_on_c, 0, 54, 24
3, 159360, Note_on_c, 0, 59, 24
3, 159369, Control_c, 0, 64, 0
3, 159840, Note_on_c, 0, 59, 0
3, 159840, Note_on_c, 0, 54, 0
3, 159840, Note_on_c, 0, 47, 0
3, 159840, Note_on_c, 0, 40, 27
3, 159953, Control_c, 0, 64, 127
3, 160080, Note_on_c, 0, 40, 0
3, 160320, Note_on_c, 0, 52, 24
3, 160320, Note_on_c, 0, 59, 24
3, 160800, Note_on_c, 0, 59, 0
3, 160800, Note_on_c, 0, 52, 0
3, 160800, Note_on_c, 0, 52, 24
3, 160800, Note_on_c, 0, 59, 24
3, 160819, Control_c, 0, 64, 0
3, 161280, Note_on_c, 0, 59, 0
3, 161280, Note_on_c, 0, 52, 0
3, 161280, Note_on_c, 0, 33, 27
3, 161449, Control_c, 0, 64, 127
3, 161520, Note_on_c, 0, 33, 0
3, 161760, Note_on_c, 0, 57, 21
3, 161760, Note_on_c, 0, 64, 25
3, 162240, Note_on_c, 0, 64, 0
3, 162240, Note_on_c, 0, 57, 0
3, 162240, Note_on_c, 0, 57, 60
3, 162240, Note_on_c, 0, 64, 60
3, 162720, Note_on_c, 0, 64, 0
3, 162720, Note_on_c, 0, 57, 0
3, 162720, Note_on_c, 0, 50, 67
3, 162731, Control_c, 0, 64, 0
3, 162798, Control_c, 0, 64, 127
3, 162960, Note_on_c, 0, 50, 0
3, 163200, Note_on_c, 0, 50, 59
3, 163200, Note_on_c, 0, 57, 59
3, 163200, Note_on_c, 0, 62, 59
3, 163680, Note_on_c, 0, 62, 0
3, 163680, Note_on_c, 0, 57, 0
3, 163680, Note_on_c, 0, 50, 0
3, 163680, Note_on_c, 0, 50, 59
3, 163680, Note_on_c, 0, 57, 59
3, 163680, Note_on_c, 0, 62, 59
3, 164160, Note_on_c, 0, 62, 0
3, 164160, Note_on_c, 0, 57, 0
3, 164160, Note_on_c, 0, 50, 0
3, 164160, Note_on_c, 0, 45, 67
3, 164171, Control_c, 0, 64, 0
3, 164372, Control_c, 0, 64, 127
3, 164400, Note_on_c, 0, 45, 0
3, 164640, Note_on_c, 0, 52, 62
3, 164640, Note_on_c, 0, 57, 62
3, 164640, Note_on_c, 0, 61, 62
3, 165120, Note_on_c, 0, 61, 0
3, 165120, Note_on_c, 0, 57, 0
3, 165120, Note_on_c, 0, 52, 0
3, 165120, Note_on_c, 0, 52, 62
3, 165120, Note_on_c, 0, 57, 62
3, 165120, Note_on_c, 0, 61, 62
3, 165137, Control_c, 0, 64, 0
3, 165600, Note_on_c, 0, 61, 0
3, 165600, Note_on_c, 0, 57, 0
3, 165600, Note_on_c, 0, 52, 0
3, 165600, Note_on_c, 0, 38, 67
3, 165741, Control_c, 0, 64, 127
3, 165840, Note_on_c, 0, 38, 0
3, 166080, Note_on_c, 0, 50, 62
3, 166080, Note_on_c, 0, 57, 62
3, 166080, Note_on_c, 0, 62, 62
3, 166560, Note_on_c, 0, 62, 0
3, 166560, Note_on_c, 0, 57, 0
3, 166560, Note_on_c, 0, 50, 0
3, 166560, Note_on_c, 0, 50, 62
3, 166560, Note_on_c, 0, 57, 62
3, 166560, Note_on_c, 0, 62, 62
3, 166572, Control_c, 0, 64, 0
3, 167040, Note_on_c, 0, 62, 0
3, 167040, Note_on_c, 0, 57, 0
3, 167040, Note_on_c, 0, 50, 0
3, 167040, Note_on_c, 0, 45, 67
3, 167252, Control_c, 0, 64, 127
3, 167280, Note_on_c, 0, 45, 0
3, 167520, Note_on_c, 0, 57, 49
3, 168000, Note_on_c, 0, 57, 0
3, 168000, Note_on_c, 0, 57, 64
3, 168000, Note_on_c, 0, 64, 64
3, 168480, Note_on_c, 0, 64, 0
3, 168480, Note_on_c, 0, 57, 0
3, 168480, Note_on_c, 0, 50, 67
3, 168494, Control_c, 0, 64, 0
3, 168579, Control_c, 0, 64, 127
3, 168720, Note_on_c, 0, 50, 0
3, 168960, Note_on_c, 0, 57, 59
3, 168960, Note_on_c, 0, 62, 59
3, 169440, Note_on_c, 0, 62, 0
3, 169440, Note_on_c, 0, 57, 0
3, 169440, Note_on_c, 0, 50, 59
3, 169440, Note_on_c, 0, 57, 59
3, 169440, Note_on_c, 0, 62, 59
3, 169920, Note_on_c, 0, 62, 0
3, 169920, Note_on_c, 0, 57, 0
3, 169920, Note_on_c, 0, 50, 0
3, 169920, Note_on_c, 0, 43, 67
3, 169930, Control_c, 0, 64, 0
3, 170132, Control_c, 0, 64, 127
3, 170160, Note_on_c, 0, 43, 0
3, 170400, Note_on_c, 0, 59, 62
3, 170400, Note_on_c, 0, 64, 62
3, 170880, Note_on_c, 0, 64, 0
3, 170880, Note_on_c, 0, 59, 0
3, 170880, Note_on_c, 0, 52, 62
3, 170880, Note_on_c, 0, 59, 62
3, 170880, Note_on_c, 0, 64, 62
3, 170894, Control_c, 0, 64, 0
3, 171360, Note_on_c, 0, 64, 0
3, 171360, Note_on_c, 0, 59, 0
3, 171360, Note_on_c, 0, 52, 0
3, 171360, Note_on_c, 0, 45, 67
3, 171480, Control_c, 0, 64, 127
3, 171600, Note_on_c, 0, 45, 0
3, 171840, Note_on_c, 0, 57, 62
3, 171840, Note_on_c, 0, 64, 62
3, 172320, Note_on_c, 0, 64, 0
3, 172320, Note_on_c, 0, 57, 0
3, 172320, Note_on_c, 0, 57, 62
3, 172320, Note_on_c, 0, 64, 62
3, 172327, Control_c, 0, 64, 0
3, 172800, Note_on_c, 0, 64, 0
3, 172800, Note_on_c, 0, 57, 0
3, 172800, Note_on_c, 0, 38, 67
3, 172969, Control_c, 0, 64, 127
3, 173040, Note_on_c, 0, 38, 0
3, 173280, Note_on_c, 0, 50, 41
3, 173280, Note_on_c, 0, 57, 41
3, 173280, Note_on_c, 0, 62, 49
3, 173760, Note_on_c, 0, 62, 0
3, 173760, Note_on_c, 0, 57, 0
3, 173760, Note_on_c, 0, 50, 0
3, 173760, Note_on_c, 0, 50, 44
3, 173760, Note_on_c, 0, 57, 44
3, 173760, Note_on_c, 0, 62, 44
3, 174256, Control_c, 0, 64, 0
3, 174342, Control_c, 0, 64, 127
3, 174720, Note_on_c, 0, 62, 0
3, 174720, Note_on_c, 0, 57, 0
3, 174720, Note_on_c, 0, 50, 0
3, 174720, Note_on_c, 0, 50, 23
3, 174720, Note_on_c, 0, 57, 23
3, 174720, Note_on_c, 0, 62, 23
3, 175200, Note_on_c, 0, 62, 0
3, 175200, Note_on_c, 0, 57, 0
3, 175200, Note_on_c, 0, 50, 0
3, 175200, Note_on_c, 0, 50, 23
3, 175200, Note_on_c, 0, 57, 23
3, 175200, Note_on_c, 0, 62, 23
3, 175680, Note_on_c, 0, 62, 0
3, 175680, Note_on_c, 0, 57, 0
3, 175680, Note_on_c, 0, 50, 0
3, 175680, Note_on_c, 0, 45, 27
3, 175692, Control_c, 0, 64, 0
3, 175835, Control_c, 0, 64, 127
3, 175920, Note_on_c, 0, 45, 0
3, 176160, Note_on_c, 0, 52, 24
3, 176160, Note_on_c, 0, 57, 24
3, 176160, Note_on_c, 0, 61, 24
3, 176640, Note_on_c, 0, 61, 0
3, 176640, Note_on_c, 0, 57, 0
3, 176640, Note_on_c, 0, 52, 0
3, 176640, Note_on_c, 0, 52, 24
3, 176640, Note_on_c, 0, 57, 24
3, 176640, Note_on_c, 0, 61, 24
3, 176651, Control_c, 0, 64, 0
3, 177120, Note_on_c, 0, 61, 0
3, 177120, Note_on_c, 0, 57, 0
3, 177120, Note_on_c, 0, 52, 0
3, 177120, Note_on_c, 0, 38, 27
3, 177261, Control_c, 0, 64, 127
3, 177360, Note_on_c, 0, 38, 0
3, 177600, Note_on_c, 0, 50, 24
3, 177600, Note_on_c, 0, 57, 24
3, 177600, Note_on_c, 0, 62, 24
3, 178080, Note_on_c, 0, 62, 0
3, 178080, Note_on_c, 0, 57, 0
3, 178080, Note_on_c, 0, 50, 0
3, 178080, Note_on_c, 0, 50, 24
3, 178080, Note_on_c, 0, 57, 24
3, 178080, Note_on_c, 0, 62, 24
3, 178094, Control_c, 0, 64, 0
3, 178560, Note_on_c, 0, 62, 0
3, 178560, Note_on_c, 0, 57, 0
3, 178560, Note_on_c, 0, 50, 0
3, 178560, Note_on_c, 0, 45, 27
3, 178729, Control_c, 0, 64, 127
3, 178800, Note_on_c, 0, 45, 0
3, 179040, Note_on_c, 0, 61, 20
3, 179040, Note_on_c, 0, 57, 20
3, 179520, Note_on_c, 0, 57, 0
3, 179520, Note_on_c, 0, 61, 0
3, 179520, Note_on_c, 0, 57, 26
3, 179520, Note_on_c, 0, 64, 26
3, 180000, Note_on_c, 0, 64, 0
3, 180000, Note_on_c, 0, 50, 27
3, 180010, Control_c, 0, 64, 0
3, 180124, Control_c, 0, 64, 127
3, 180480, Note_on_c, 0, 50, 0
3, 180480, Note_on_c, 0, 57, 0
3, 180480, Note_on_c, 0, 57, 23
3, 180480, Note_on_c, 0, 62, 23
3, 180960, Note_on_c, 0, 62, 0
3, 180960, Note_on_c, 0, 57, 0
3, 180960, Note_on_c, 0, 50, 23
3, 180960, Note_on_c, 0, 57, 23
3, 180960, Note_on_c, 0, 62, 23
3, 181440, Note_on_c, 0, 62, 0
3, 181440, Note_on_c, 0, 57, 0
3, 181440, Note_on_c, 0, 50, 0
3, 181440, Note_on_c, 0, 43, 27
3, 181449, Control_c, 0, 64, 0
3, 181595, Control_c, 0, 64, 127
3, 181680, Note_on_c, 0, 43, 0
3, 181920, Note_on_c, 0, 59, 24
3, 181920, Note_on_c, 0, 64, 24
3, 182400, Note_on_c, 0, 64, 0
3, 182400, Note_on_c, 0, 59, 0
3, 182400, Note_on_c, 0, 52, 24
3, 182400, Note_on_c, 0, 59, 24
3, 182400, Note_on_c, 0, 64, 24
3, 182414, Control_c, 0, 64, 0
3, 182880, Note_on_c, 0, 64, 0
3, 182880, Note_on_c, 0, 59, 0
3, 182880, Note_on_c, 0, 52, 0
3, 182880, Note_on_c, 0, 45, 27
3, 183007, Control_c, 0, 64, 127
3, 183120, Note_on_c, 0, 45, 0
3, 183360, Note_on_c, 0, 57, 24
3, 183360, Note_on_c, 0, 64, 24
3, 183840, Note_on_c, 0, 64, 0
3, 183840, Note_on_c, 0, 57, 0
3, 183840, Note_on_c, 0, 57, 24
3, 183840, Note_on_c, 0, 64, 24
3, 183856, Control_c, 0, 64, 0
3, 184320, Note_on_c, 0, 64, 0
3, 184320, Note_on_c, 0, 57, 0
3, 184320, Note_on_c, 0, 38, 27
3, 184546, Control_c, 0, 64, 127
3, 184560, Note_on_c, 0, 38, 0
3, 184800, Note_on_c, 0, 50, 17
3, 184800, Note_on_c, 0, 57, 17
3, 184800, Note_on_c, 0, 62, 20
3, 185280, Note_on_c, 0, 62, 0
3, 185280, Note_on_c, 0, 57, 0
3, 185280, Note_on_c, 0, 50, 0
3, 185280, Note_on_c, 0, 50, 26
3, 185280, Note_on_c, 0, 57, 26
3, 185280, Note_on_c, 0, 62, 26
3, 185760, Note_on_c, 0, 62, 0
3, 185760, Note_on_c, 0, 57, 0
3, 185760, Note_on_c, 0, 50, 0
3, 185760, Note_on_c, 0, 50, 26
3, 185760, Note_on_c, 0, 57, 31
3, 185766, Control_c, 0, 64, 0
3, 185799, Control_c, 0, 64, 127
3, 186240, Note_on_c, 0, 57, 0
3, 186240, Note_on_c, 0, 50, 0
3, 186240, Note_on_c, 0, 60, 27
3, 186240, Note_on_c, 0, 50, 23
3, 186251, Control_c, 0, 64, 0
3, 186318, Control_c, 0, 64, 127
3, 186720, Note_on_c, 0, 50, 0
3, 186720, Note_on_c, 0, 60, 0
3, 186720, Note_on_c, 0, 50, 23
3, 186720, Note_on_c, 0, 59, 28
3, 186728, Control_c, 0, 64, 0
3, 187200, Note_on_c, 0, 59, 0
3, 187200, Note_on_c, 0, 50, 0
3, 187200, Note_on_c, 0, 50, 26
3, 187200, Note_on_c, 0, 55, 32
3, 187274, Control_c, 0, 64, 127
3, 187680, Note_on_c, 0, 55, 0
3, 187680, Note_on_c, 0, 50, 0
3, 187680, Note_on_c, 0, 58, 28
3, 187680, Note_on_c, 0, 50, 24
3, 187695, Control_c, 0, 64, 0
3, 187772, Control_c, 0, 64, 127
3, 188160, Note_on_c, 0, 50, 0
3, 188160, Note_on_c, 0, 58, 0
3, 188160, Note_on_c, 0, 50, 24
3, 188160, Note_on_c, 0, 57, 29
3, 188174, Control_c, 0, 64, 0
3, 188640, Note_on_c, 0, 57, 0
3, 188640, Note_on_c, 0, 50, 0
3, 188640, Note_on_c, 0, 50, 27
3, 188640, Note_on_c, 0, 57, 33
3, 188704, Control_c, 0, 64, 127
3, 189120, Note_on_c, 0, 57, 0
3, 189120, Note_on_c, 0, 50, 0
3, 189120, Note_on_c, 0, 60, 29
3, 189120, Note_on_c, 0, 50, 24
3, 189131, Control_c, 0, 64, 0
3, 189184, Control_c, 0, 64, 127
3, 189600, Note_on_c, 0, 50, 0
3, 189600, Note_on_c, 0, 60, 0
3, 189600, Note_on_c, 0, 50, 24
3, 189600, Note_on_c, 0, 59, 29
3, 189617, Control_c, 0, 64, 0
3, 190080, Note_on_c, 0, 59, 0
3, 190080, Note_on_c, 0, 50, 0
3, 190080, Note_on_c, 0, 50, 28
3, 190080, Note_on_c, 0, 55, 33
3, 190144, Control_c, 0, 64, 127
3, 190560, Note_on_c, 0, 55, 0
3, 190560, Note_on_c, 0, 50, 0
3, 190560, Note_on_c, 0, 58, 30
3, 190560, Note_on_c, 0, 50, 25
3, 190575, Control_c, 0, 64, 0
3, 190634, Control_c, 0, 64, 127
3, 191040, Note_on_c, 0, 50, 0
3, 191040, Note_on_c, 0, 58, 0
3, 191040, Note_on_c, 0, 50, 25
3, 191040, Note_on_c, 0, 57, 30
3, 191044, Control_c, 0, 64, 0
3, 191520, Note_on_c, 0, 57, 0
3, 191520, Note_on_c, 0, 50, 0
3, 191520, Note_on_c, 0, 50, 29
3, 191520, Note_on_c, 0, 54, 35
3, 191566, Control_c, 0, 64, 127
3, 192000, Note_on_c, 0, 54, 0
3, 192000, Note_on_c, 0, 50, 0
3, 192000, Note_on_c, 0, 57, 31
3, 192000, Note_on_c, 0, 50, 26
3, 192014, Control_c, 0, 64, 0
3, 192078, Control_c, 0, 64, 127
3, 192480, Note_on_c, 0, 50, 0
3, 192480, Note_on_c, 0, 57, 0
3, 192480, Note_on_c, 0, 50, 26
3, 192480, Note_on_c, 0, 56, 31
3, 192491, Control_c, 0, 64, 0
3, 192960, Note_on_c, 0, 56, 0
3, 192960, Note_on_c, 0, 50, 0
3, 192960, Note_on_c, 0, 50, 29
3, 192960, Note_on_c, 0, 52, 35
3, 193024, Control_c, 0, 64, 127
3, 193440, Note_on_c, 0, 52, 0
3, 193440, Note_on_c, 0, 50, 0
3, 193440, Note_on_c, 0, 55, 31
3, 193440, Note_on_c, 0, 50, 26
3, 193454, Control_c, 0, 64, 0
3, 193507, Control_c, 0, 64, 127
3, 193920, Note_on_c, 0, 50, 0
3, 193920, Note_on_c, 0, 55, 0
3, 193920, Note_on_c, 0, 50, 26
3, 193920, Note_on_c, 0, 54, 31
3, 193934, Control_c, 0, 64, 0
3, 194400, Note_on_c, 0, 54, 0
3, 194400, Note_on_c, 0, 50, 0
3, 194400, Note_on_c, 0, 50, 29
3, 194400, Note_on_c, 0, 54, 35
3, 194414, Control_c, 0, 64, 0
3, 194457, Control_c, 0, 64, 127
3, 194880, Note_on_c, 0, 54, 0
3, 194880, Note_on_c, 0, 50, 0
3, 194880, Note_on_c, 0, 57, 30
3, 194880, Note_on_c, 0, 50, 25
3, 194891, Control_c, 0, 64, 0
3, 194930, Control_c, 0, 64, 127
3, 195360, Note_on_c, 0, 50, 0
3, 195360, Note_on_c, 0, 57, 0
3, 195360, Note_on_c, 0, 50, 25
3, 195360, Note_on_c, 0, 56, 30
3, 195371, Control_c, 0, 64, 0
3, 195840, Note_on_c, 0, 56, 0
3, 195840, Note_on_c, 0, 50, 0
3, 195840, Note_on_c, 0, 50, 28
3, 195840, Note_on_c, 0, 52, 33
3, 195890, Control_c, 0, 64, 127
3, 196320, Note_on_c, 0, 52, 0
3, 196320, Note_on_c, 0, 50, 0
3, 196320, Note_on_c, 0, 55, 29
3, 196320, Note_on_c, 0, 50, 24
3, 196333, Control_c, 0, 64, 0
3, 196384, Control_c, 0, 64, 127
3, 196800, Note_on_c, 0, 50, 0
3, 196800, Note_on_c, 0, 55, 0
3, 196800, Note_on_c, 0, 50, 24
3, 196800, Note_on_c, 0, 54, 29
3, 196815, Control_c, 0, 64, 0
3, 197280, Note_on_c, 0, 54, 0
3, 197280, Note_on_c, 0, 50, 0
3, 197280, Note_on_c, 0, 38, 24
3, 197280, Note_on_c, 0, 45, 29
3, 197333, Control_c, 0, 64, 127
3, 197760, Note_on_c, 0, 45, 0
3, 197760, Note_on_c, 0, 38, 0
3, 197760, Note_on_c, 0, 48, 25
3, 197760, Note_on_c, 0, 38, 21
3, 197775, Control_c, 0, 64, 0
3, 198240, Note_on_c, 0, 38, 0
3, 198240, Note_on_c, 0, 48, 0
3, 198240, Note_on_c, 0, 38, 21
3, 198240, Note_on_c, 0, 47, 24
3, 198720, Note_on_c, 0, 47, 0
3, 198720, Note_on_c, 0, 38, 0
3, 198720, Note_on_c, 0, 38, 23
3, 198720, Note_on_c, 0, 43, 28
3, 198791, Control_c, 0, 64, 127
3, 199200, Note_on_c, 0, 43, 0
3, 199200, Note_on_c, 0, 38, 0
3, 199200, Note_on_c, 0, 46, 24
3, 199200, Note_on_c, 0, 38, 20
3, 199219, Control_c, 0, 64, 0
3, 199680, Note_on_c, 0, 38, 0
3, 199680, Note_on_c, 0, 46, 0
3, 199680, Note_on_c, 0, 38, 20
3, 199680, Note_on_c, 0, 45, 24
3, 200160, Note_on_c, 0, 45, 0
3, 200160, Note_on_c, 0, 38, 0
3, 200160, Note_on_c, 0, 38, 20
3, 200160, Note_on_c, 0, 45, 23
3, 200227, Control_c, 0, 64, 127
3, 200640, Note_on_c, 0, 45, 0
3, 200640, Note_on_c, 0, 38, 0
3, 200640, Note_on_c, 0, 48, 20
3, 200640, Note_on_c, 0, 38, 17
3, 200655, Control_c, 0, 64, 0
3, 201120, Note_on_c, 0, 38, 0
3, 201120, Note_on_c, 0, 48, 0
3, 201120, Note_on_c, 0, 38, 17
3, 201120, Note_on_c, 0, 47, 20
3, 201600, Note_on_c, 0, 47, 0
3, 201600, Note_on_c, 0, 38, 0
3, 201600, Note_on_c, 0, 38, 19
3, 201600, Note_on_c, 0, 43, 22
3, 201646, Control_c, 0, 64, 127
3, 202080, Note_on_c, 0, 43, 0
3, 202080, Note_on_c, 0, 38, 0
3, 202080, Note_on_c, 0, 46, 20
3, 202080, Note_on_c, 0, 38, 17
3, 202094, Control_c, 0, 64, 0
3, 202560, Note_on_c, 0, 38, 0
3, 202560, Note_on_c, 0, 46, 0
3, 202560, Note_on_c, 0, 38, 17
3, 202560, Note_on_c, 0, 45, 20
3, 203040, Note_on_c, 0, 45, 0
3, 203040, Note_on_c, 0, 38, 0
3, 203040, Note_on_c, 0, 38, 26
3, 203040, Note_on_c, 0, 45, 31
3, 203096, Control_c, 0, 64, 127
3, 203520, Note_on_c, 0, 45, 0
3, 203520, Note_on_c, 0, 38, 0
3, 203520, Note_on_c, 0, 50, 28
3, 203520, Note_on_c, 0, 57, 34
3, 204000, Note_on_c, 0, 57, 0
3, 204000, Note_on_c, 0, 50, 0
3, 204000, Note_on_c, 0, 62, 28
3, 204000, Note_on_c, 0, 69, 34
3, 207360, Note_on_c, 0, 69, 0
3, 207360, Note_on_c, 0, 62, 0
3, 208800, Control_c, 0, 64, 0
3, 208800, End_track
4, 0, Start_track
4, 0, Title_t, "Chopin:  Mazurka Op. 33 Nr. 2"
4, 0, End_track
5, 0, Start_track
5, 0, Title_t, "Copyright © 2003 by Bernd Krueger"
5, 0, End_track
6, 0, Start_track
6, 0, Title_t, "http://www.piano-midi.de"
6, 0, End_track
7, 0, Start_track
7, 0, Title_t, "Edition: 2014-02-25"
7, 0, End_track
8, 0, Start_track
8, 0, Title_t, "Spur 7"
8, 0, End_track
0, 0, End_of_file
