0, 0, Header, 1, 17, 480
1, 0, Start_track
1, 0, Title_t, "Clementi: Sonatine Opus 36 Nr. 5, 3. Satz"
1, 0, Title_t, "Romdo"
1, 0, Copyright_t, "Copyright © 2011 by Bernd Krueger"
1, 0, Text_t, "Muzio Clementi"
1, 0, Text_t, "Allegro di molto"
1, 0, Text_t, "Erstellt:  8.1.2011\012"
1, 0, Text_t, "Dauer: 2:56 Minuten\012"
1, 0, Time_signature, 2, 2, 24, 8
1, 0, Key_signature, 1, "major"
1, 0, Tempo, 497141
1, 480, Marker_t, "Teil 1"
1, 960, Tempo, 516396
1, 1440, Tempo, 499210
1, 1920, Tempo, 516396
1, 2400, Tempo, 497141
1, 2880, Tempo, 514183
1, 3120, Tempo, 539617
1, 3360, Tempo, 497141
1, 3840, Tempo, 514183
1, 4320, Tempo, 497141
1, 4800, Tempo, 516396
1, 5280, Tempo, 499210
1, 5760, Tempo, 505519
1, 6000, Tempo, 534807
1, 6240, Tempo, 497141
1, 6720, Tempo, 514183
1, 7200, Tempo, 497141
1, 7440, Tempo, 525440
1, 7560, Tempo, 590029
1, 7680, Tempo, 557155
1, 8160, Tempo, 497141
1, 8640, Tempo, 516396
1, 9120, Tempo, 499210
1, 9600, Tempo, 516396
1, 10080, Tempo, 497141
1, 10560, Tempo, 514183
1, 10800, Tempo, 539617
1, 11040, Tempo, 497141
1, 11520, Tempo, 514183
1, 12000, Tempo, 497141
1, 12480, Tempo, 507657
1, 12720, Tempo, 518627
1, 12960, Tempo, 499210
1, 13440, Tempo, 516396
1, 13680, Tempo, 534807
1, 13920, Tempo, 497141
1, 14400, Tempo, 509814
1, 14640, Tempo, 518627
1, 14880, Tempo, 497141
1, 15120, Tempo, 525440
1, 15240, Tempo, 534807
1, 15360, Tempo, 505519
1, 15600, Tempo, 567698
1, 15840, Tempo, 499210
1, 16320, Tempo, 523149
1, 16800, Tempo, 499210
1, 17280, Tempo, 523149
1, 17760, Tempo, 499210
1, 18240, Tempo, 523149
1, 18720, Tempo, 499210
1, 19200, Tempo, 523149
1, 19560, Tempo, 507657
1, 19680, Tempo, 499210
1, 20160, Tempo, 523149
1, 20640, Tempo, 499210
1, 21120, Tempo, 523149
1, 21202, Tempo, 514183
1, 21282, Tempo, 511989
1, 21362, Tempo, 509814
1, 21442, Tempo, 507657
1, 21522, Tempo, 505519
1, 21602, Tempo, 507657
1, 21662, Tempo, 509814
1, 21742, Tempo, 511989
1, 21802, Tempo, 514183
1, 21862, Tempo, 516396
1, 21942, Tempo, 518627
1, 22002, Tempo, 520879
1, 22062, Tempo, 523149
1, 22080, Tempo, 523149
1, 22320, Tempo, 509814
1, 22560, Tempo, 503398
1, 23022, Tempo, 520879
1, 23280, Tempo, 507657
1, 24000, Tempo, 514183
1, 24240, Tempo, 505519
1, 24960, Tempo, 518627
1, 25200, Tempo, 505519
1, 25920, Tempo, 523149
1, 26160, Tempo, 507657
1, 26400, Tempo, 520879
1, 26640, Tempo, 507657
1, 26842, Tempo, 503398
1, 26862, Tempo, 499210
1, 26922, Tempo, 501295
1, 26962, Tempo, 503398
1, 27002, Tempo, 505519
1, 27042, Tempo, 507657
1, 27082, Tempo, 509814
1, 27122, Tempo, 511989
1, 27162, Tempo, 514183
1, 27202, Tempo, 516396
1, 27242, Tempo, 518627
1, 27282, Tempo, 520879
1, 27322, Tempo, 523149
1, 27362, Tempo, 525440
1, 27422, Tempo, 520879
1, 27462, Tempo, 518627
1, 27502, Tempo, 516396
1, 27542, Tempo, 514183
1, 27602, Tempo, 511989
1, 27642, Tempo, 509814
1, 27682, Tempo, 507657
1, 27722, Tempo, 505519
1, 27762, Tempo, 503398
1, 27840, Tempo, 516396
1, 28320, Tempo, 499210
1, 28800, Tempo, 516396
1, 29280, Tempo, 497141
1, 29760, Tempo, 514183
1, 30000, Tempo, 539617
1, 30240, Tempo, 497141
1, 30720, Tempo, 514183
1, 31200, Tempo, 497141
1, 31680, Tempo, 505519
1, 31920, Tempo, 516396
1, 32160, Tempo, 499210
1, 32640, Tempo, 505519
1, 32880, Tempo, 534807
1, 33120, Tempo, 497141
1, 33600, Tempo, 503398
1, 33840, Tempo, 516396
1, 34080, Tempo, 497141
1, 34320, Tempo, 525440
1, 34440, Tempo, 590029
1, 34560, Tempo, 562377
1, 35040, Tempo, 497141
1, 35520, Tempo, 516396
1, 36000, Tempo, 499210
1, 36480, Tempo, 516396
1, 36960, Tempo, 497141
1, 37440, Tempo, 514183
1, 37680, Tempo, 532434
1, 37920, Tempo, 497141
1, 38400, Tempo, 514183
1, 38880, Tempo, 497141
1, 39360, Tempo, 507657
1, 39600, Tempo, 516396
1, 39840, Tempo, 499210
1, 40320, Tempo, 505519
1, 40560, Tempo, 534807
1, 40800, Tempo, 497141
1, 41280, Tempo, 503398
1, 41520, Tempo, 516396
1, 41760, Tempo, 497141
1, 42000, Tempo, 525440
1, 42120, Tempo, 534807
1, 42240, Tempo, 525440
1, 42442, Tempo, 518627
1, 42522, Tempo, 516396
1, 42602, Tempo, 514183
1, 42662, Tempo, 511989
1, 42742, Tempo, 509814
1, 42802, Tempo, 507657
1, 42882, Tempo, 505519
1, 42942, Tempo, 501295
1, 42962, Tempo, 503398
1, 42982, Tempo, 505519
1, 43002, Tempo, 507657
1, 43022, Tempo, 509814
1, 43042, Tempo, 511989
1, 43062, Tempo, 514183
1, 43082, Tempo, 516396
1, 43102, Tempo, 518627
1, 43122, Tempo, 520879
1, 43142, Tempo, 525440
1, 43182, Tempo, 523149
1, 43200, Tempo, 537201
1, 43440, Tempo, 520879
1, 43680, Tempo, 525440
1, 43920, Tempo, 546996
1, 44160, Tempo, 525440
1, 44362, Tempo, 518627
1, 44442, Tempo, 516396
1, 44522, Tempo, 514183
1, 44582, Tempo, 511989
1, 44662, Tempo, 509814
1, 44722, Tempo, 507657
1, 44802, Tempo, 505519
1, 44862, Tempo, 501295
1, 44882, Tempo, 503398
1, 44902, Tempo, 505519
1, 44922, Tempo, 507657
1, 44942, Tempo, 509814
1, 44962, Tempo, 511989
1, 44982, Tempo, 514183
1, 45002, Tempo, 516396
1, 45022, Tempo, 518627
1, 45042, Tempo, 520879
1, 45062, Tempo, 525440
1, 45102, Tempo, 523149
1, 45120, Tempo, 537201
1, 45360, Tempo, 520879
1, 45600, Tempo, 523149
1, 45840, Tempo, 539617
1, 46080, Tempo, 525440
1, 46282, Tempo, 518627
1, 46362, Tempo, 516396
1, 46442, Tempo, 514183
1, 46502, Tempo, 511989
1, 46582, Tempo, 509814
1, 46642, Tempo, 507657
1, 46722, Tempo, 505519
1, 46782, Tempo, 501295
1, 46802, Tempo, 503398
1, 46822, Tempo, 505519
1, 46842, Tempo, 507657
1, 46862, Tempo, 509814
1, 46882, Tempo, 511989
1, 46902, Tempo, 514183
1, 46922, Tempo, 516396
1, 46942, Tempo, 518627
1, 46962, Tempo, 520879
1, 46982, Tempo, 525440
1, 47022, Tempo, 523149
1, 47040, Tempo, 537201
1, 47280, Tempo, 523149
1, 47520, Tempo, 516396
1, 47760, Tempo, 532434
1, 48000, Tempo, 518627
1, 48720, Tempo, 537201
1, 48960, Tempo, 518627
1, 49440, Tempo, 554580
1, 49680, Tempo, 590029
1, 49920, Tempo, 537201
1, 50400, Tempo, 497141
1, 50422, Tempo, 485084
1, 50482, Tempo, 487053
1, 50542, Tempo, 489037
1, 50602, Tempo, 491039
1, 50642, Tempo, 493056
1, 50702, Tempo, 495090
1, 50762, Tempo, 497141
1, 50822, Tempo, 499210
1, 50862, Tempo, 501295
1, 50880, Tempo, 516396
1, 51360, Tempo, 534807
1, 51600, Tempo, 552029
1, 51840, Tempo, 516396
1, 52320, Tempo, 497141
1, 52342, Tempo, 487053
1, 52422, Tempo, 489037
1, 52482, Tempo, 491039
1, 52562, Tempo, 493056
1, 52622, Tempo, 495090
1, 52702, Tempo, 497141
1, 52762, Tempo, 499210
1, 52800, Tempo, 516396
1, 53280, Tempo, 534807
1, 53520, Tempo, 552029
1, 53760, Tempo, 516396
1, 54240, Tempo, 542054
1, 54720, Tempo, 537201
1, 55200, Tempo, 552029
1, 55680, Tempo, 730016
1, 56160, Tempo, 514183
1, 56160, Marker_t, "Teil 2"
1, 56400, Tempo, 520879
1, 56640, Tempo, 516396
1, 56880, Tempo, 505519
1, 57120, Tempo, 495090
1, 57600, Tempo, 511989
1, 57840, Tempo, 489037
1, 58080, Tempo, 497141
1, 58320, Tempo, 507657
1, 58560, Tempo, 503398
1, 58920, Tempo, 509814
1, 59040, Tempo, 493056
1, 59520, Tempo, 503398
1, 59760, Tempo, 487053
1, 60000, Tempo, 493056
1, 60240, Tempo, 487053
1, 60480, Tempo, 491039
1, 60720, Tempo, 489037
1, 60960, Tempo, 499210
1, 61200, Tempo, 495090
1, 61440, Tempo, 505519
1, 61800, Tempo, 516396
1, 61920, Tempo, 493056
1, 62400, Tempo, 505519
1, 62640, Tempo, 493056
1, 62880, Tempo, 499210
1, 63360, Tempo, 505519
1, 63840, Tempo, 497141
1, 64080, Tempo, 520879
1, 64320, Tempo, 516396
1, 64560, Tempo, 505519
1, 64800, Tempo, 493056
1, 65280, Tempo, 520879
1, 65520, Tempo, 501295
1, 65760, Tempo, 491039
1, 66240, Tempo, 505519
1, 66600, Tempo, 509814
1, 66720, Tempo, 491039
1, 67200, Tempo, 497141
1, 67440, Tempo, 481193
1, 67680, Tempo, 493056
1, 67920, Tempo, 481193
1, 68160, Tempo, 499210
1, 68400, Tempo, 485084
1, 68640, Tempo, 501295
1, 68880, Tempo, 487053
1, 69120, Tempo, 499210
1, 69480, Tempo, 523149
1, 69600, Tempo, 501295
1, 70080, Tempo, 518627
1, 70320, Tempo, 501295
1, 70560, Tempo, 485084
1, 70920, Tempo, 534807
1, 71040, Tempo, 514183
1, 71520, Tempo, 487053
1, 72000, Tempo, 527751
1, 72480, Tempo, 514183
1, 72960, Tempo, 523149
1, 73440, Tempo, 489037
1, 73920, Tempo, 527751
1, 74400, Tempo, 507657
1, 74640, Tempo, 532434
1, 74880, Tempo, 518627
1, 75360, Tempo, 495090
1, 75600, Tempo, 509814
1, 76080, Tempo, 520879
1, 76320, Tempo, 501295
1, 76560, Tempo, 549501
1, 76800, Tempo, 529895
1, 77280, Tempo, 505348
1, 77760, Tempo, 520698
1, 78240, Tempo, 505348
1, 78720, Tempo, 522967
1, 79200, Tempo, 503229
1, 79680, Tempo, 522967
1, 80160, Tempo, 509641
1, 80162, Tempo, 516218
1, 80202, Tempo, 518448
1, 80242, Tempo, 520698
1, 80282, Tempo, 522967
1, 80322, Tempo, 525256
1, 80342, Tempo, 527565
1, 80382, Tempo, 529895
1, 80422, Tempo, 532245
1, 80462, Tempo, 534616
1, 80482, Tempo, 537009
1, 80522, Tempo, 539423
1, 80562, Tempo, 541859
1, 80602, Tempo, 544316
1, 80622, Tempo, 546797
1, 80640, Tempo, 522967
1, 81120, Tempo, 514183
1, 81360, Tempo, 520879
1, 81600, Tempo, 523149
1, 81840, Tempo, 505519
1, 82080, Tempo, 509814
1, 82560, Tempo, 520879
1, 82800, Tempo, 501295
1, 83040, Tempo, 514183
1, 83280, Tempo, 520879
1, 83520, Tempo, 523149
1, 83760, Tempo, 505519
1, 84000, Tempo, 509814
1, 84480, Tempo, 520879
1, 84720, Tempo, 501295
1, 85440, Tempo, 495090
1, 86160, Tempo, 527565
1, 86400, Tempo, 520698
1, 86880, Tempo, 503229
1, 87120, Tempo, 518448
1, 87360, Tempo, 493056
1, 88080, Tempo, 527565
1, 88320, Tempo, 511814
1, 88800, Tempo, 503229
1, 89040, Tempo, 518448
1, 89280, Tempo, 518448
1, 89760, Tempo, 507485
1, 90000, Tempo, 527565
1, 90720, Tempo, 518448
1, 90722, Tempo, 511989
1, 90942, Tempo, 509814
1, 91162, Tempo, 507657
1, 91680, Tempo, 522967
1, 92160, Tempo, 516218
1, 92622, Tempo, 509814
1, 92760, Tempo, 516218
1, 92782, Tempo, 507657
1, 93120, Tempo, 509814
1, 93600, Tempo, 525256
1, 94080, Tempo, 520879
1, 94560, Tempo, 503398
1, 95040, Tempo, 511989
1, 95520, Tempo, 501295
1, 96000, Tempo, 507657
1, 96480, Tempo, 501295
1, 96946, Tempo, 495090
1, 97026, Tempo, 497141
1, 97106, Tempo, 499210
1, 97186, Tempo, 501295
1, 97266, Tempo, 503398
1, 97326, Tempo, 505519
1, 97406, Tempo, 507657
1, 97486, Tempo, 509814
1, 97566, Tempo, 511989
1, 97626, Tempo, 514183
1, 97706, Tempo, 516396
1, 97786, Tempo, 518627
1, 97866, Tempo, 520879
1, 97920, Tempo, 499210
1, 98400, Tempo, 523149
1, 99360, Tempo, 503398
1, 99720, Tempo, 554580
1, 99840, Tempo, 499210
1, 100320, Tempo, 523149
1, 101280, Tempo, 503398
1, 101640, Tempo, 554580
1, 101760, Tempo, 530082
1, 102240, Tempo, 497141
1, 102720, Tempo, 516396
1, 103200, Tempo, 497141
1, 103680, Tempo, 516396
1, 103920, Tempo, 532434
1, 104160, Tempo, 497141
1, 104640, Tempo, 532434
1, 105120, Tempo, 509814
1, 105600, Tempo, 537201
1, 106080, Tempo, 511989
1, 106560, Tempo, 532434
1, 106800, Tempo, 587142
1, 107040, Tempo, 575871
1, 107400, Tempo, 627025
1, 107520, Tempo, 592944
1, 108000, Tempo, 501295
1, 108960, Tempo, 497141
1, 108960, Marker_t, "Teil 1 Wiederholung"
1, 109440, Tempo, 516396
1, 109920, Tempo, 499210
1, 110400, Tempo, 516396
1, 110880, Tempo, 497141
1, 111360, Tempo, 514183
1, 111600, Tempo, 539617
1, 111840, Tempo, 497141
1, 112320, Tempo, 514183
1, 112800, Tempo, 497141
1, 113280, Tempo, 516396
1, 113760, Tempo, 499210
1, 114240, Tempo, 491039
1, 114480, Tempo, 534807
1, 114720, Tempo, 497141
1, 115200, Tempo, 497141
1, 115440, Tempo, 509814
1, 115680, Tempo, 497141
1, 115920, Tempo, 525440
1, 116040, Tempo, 590029
1, 116160, Tempo, 557155
1, 116640, Tempo, 497141
1, 117120, Tempo, 516396
1, 117600, Tempo, 499210
1, 118080, Tempo, 516396
1, 118560, Tempo, 497141
1, 119040, Tempo, 514183
1, 119280, Tempo, 539617
1, 119520, Tempo, 497141
1, 120000, Tempo, 514183
1, 120480, Tempo, 497141
1, 120960, Tempo, 507657
1, 121200, Tempo, 518627
1, 121440, Tempo, 499210
1, 121920, Tempo, 516396
1, 122160, Tempo, 534807
1, 122400, Tempo, 497141
1, 122880, Tempo, 509814
1, 123120, Tempo, 518627
1, 123360, Tempo, 497141
1, 123600, Tempo, 525440
1, 123720, Tempo, 534807
1, 123840, Tempo, 505519
1, 124080, Tempo, 567698
1, 124320, Tempo, 499210
1, 124800, Tempo, 523149
1, 125280, Tempo, 499210
1, 125760, Tempo, 523149
1, 126240, Tempo, 499210
1, 126720, Tempo, 523149
1, 127200, Tempo, 499210
1, 127680, Tempo, 523149
1, 128040, Tempo, 507657
1, 128160, Tempo, 499210
1, 128640, Tempo, 523149
1, 129120, Tempo, 499210
1, 129600, Tempo, 523149
1, 129682, Tempo, 514183
1, 129762, Tempo, 511989
1, 129842, Tempo, 509814
1, 129922, Tempo, 507657
1, 130002, Tempo, 505519
1, 130082, Tempo, 507657
1, 130142, Tempo, 509814
1, 130222, Tempo, 511989
1, 130282, Tempo, 514183
1, 130342, Tempo, 516396
1, 130422, Tempo, 518627
1, 130482, Tempo, 520879
1, 130542, Tempo, 523149
1, 130560, Tempo, 523149
1, 130800, Tempo, 509814
1, 131040, Tempo, 503398
1, 131502, Tempo, 520879
1, 131760, Tempo, 507657
1, 132480, Tempo, 514183
1, 132720, Tempo, 505519
1, 133440, Tempo, 518627
1, 133680, Tempo, 505519
1, 134400, Tempo, 523149
1, 134640, Tempo, 507657
1, 134880, Tempo, 520879
1, 135120, Tempo, 507657
1, 135322, Tempo, 503398
1, 135342, Tempo, 499210
1, 135402, Tempo, 501295
1, 135442, Tempo, 503398
1, 135482, Tempo, 505519
1, 135522, Tempo, 507657
1, 135562, Tempo, 509814
1, 135602, Tempo, 511989
1, 135642, Tempo, 514183
1, 135682, Tempo, 516396
1, 135722, Tempo, 518627
1, 135762, Tempo, 520879
1, 135802, Tempo, 523149
1, 135842, Tempo, 525440
1, 135902, Tempo, 520879
1, 135942, Tempo, 518627
1, 135982, Tempo, 516396
1, 136022, Tempo, 514183
1, 136082, Tempo, 511989
1, 136122, Tempo, 509814
1, 136162, Tempo, 507657
1, 136202, Tempo, 505519
1, 136242, Tempo, 503398
1, 136320, Tempo, 516396
1, 136800, Tempo, 499210
1, 137280, Tempo, 516396
1, 137760, Tempo, 497141
1, 138240, Tempo, 514183
1, 138480, Tempo, 539617
1, 138720, Tempo, 497141
1, 139200, Tempo, 514183
1, 139680, Tempo, 497141
1, 140160, Tempo, 505519
1, 140400, Tempo, 516396
1, 140640, Tempo, 499210
1, 141120, Tempo, 505519
1, 141360, Tempo, 534807
1, 141600, Tempo, 497141
1, 142080, Tempo, 503398
1, 142320, Tempo, 516396
1, 142560, Tempo, 497141
1, 142800, Tempo, 525440
1, 142920, Tempo, 590029
1, 143040, Tempo, 562377
1, 143520, Tempo, 497141
1, 144000, Tempo, 516396
1, 144480, Tempo, 499210
1, 144960, Tempo, 516396
1, 145440, Tempo, 497141
1, 145920, Tempo, 514183
1, 146160, Tempo, 532434
1, 146400, Tempo, 497141
1, 146880, Tempo, 514183
1, 147360, Tempo, 497141
1, 147502, Tempo, 497141
1, 147562, Tempo, 495090
1, 147622, Tempo, 493056
1, 147682, Tempo, 491039
1, 147742, Tempo, 489037
1, 147802, Tempo, 487053
1, 147840, Tempo, 507657
1, 148080, Tempo, 516396
1, 148320, Tempo, 499210
1, 148502, Tempo, 489037
1, 148562, Tempo, 491039
1, 148622, Tempo, 493056
1, 148662, Tempo, 495090
1, 148722, Tempo, 497141
1, 148762, Tempo, 499210
1, 148800, Tempo, 505519
1, 149040, Tempo, 534807
1, 149280, Tempo, 497141
1, 149322, Tempo, 487053
1, 149402, Tempo, 489037
1, 149482, Tempo, 491039
1, 149562, Tempo, 493056
1, 149642, Tempo, 495090
1, 149702, Tempo, 497141
1, 149760, Tempo, 503398
1, 150000, Tempo, 516396
1, 150240, Tempo, 497141
1, 150480, Tempo, 525440
1, 150600, Tempo, 534807
1, 150720, Tempo, 525440
1, 150922, Tempo, 518627
1, 151002, Tempo, 516396
1, 151082, Tempo, 514183
1, 151142, Tempo, 511989
1, 151222, Tempo, 509814
1, 151282, Tempo, 507657
1, 151362, Tempo, 505519
1, 151422, Tempo, 501295
1, 151442, Tempo, 503398
1, 151462, Tempo, 505519
1, 151482, Tempo, 507657
1, 151502, Tempo, 509814
1, 151522, Tempo, 511989
1, 151542, Tempo, 514183
1, 151562, Tempo, 516396
1, 151582, Tempo, 518627
1, 151602, Tempo, 520879
1, 151622, Tempo, 525440
1, 151662, Tempo, 523149
1, 151680, Tempo, 537201
1, 151920, Tempo, 520879
1, 152160, Tempo, 525440
1, 152400, Tempo, 546996
1, 152640, Tempo, 525440
1, 152782, Tempo, 520879
1, 152842, Tempo, 518627
1, 152882, Tempo, 516396
1, 152922, Tempo, 514183
1, 152962, Tempo, 511989
1, 153022, Tempo, 509814
1, 153062, Tempo, 507657
1, 153102, Tempo, 505519
1, 153142, Tempo, 503398
1, 153202, Tempo, 501295
1, 153242, Tempo, 499210
1, 153282, Tempo, 497141
1, 153322, Tempo, 495090
1, 153342, Tempo, 501295
1, 153362, Tempo, 503398
1, 153382, Tempo, 505519
1, 153402, Tempo, 507657
1, 153422, Tempo, 509814
1, 153442, Tempo, 511989
1, 153462, Tempo, 514183
1, 153482, Tempo, 516396
1, 153502, Tempo, 518627
1, 153522, Tempo, 520879
1, 153542, Tempo, 525440
1, 153582, Tempo, 523149
1, 153600, Tempo, 537201
1, 153840, Tempo, 520879
1, 154080, Tempo, 523149
1, 154320, Tempo, 539617
1, 154560, Tempo, 525440
1, 154762, Tempo, 518627
1, 154802, Tempo, 514183
1, 154862, Tempo, 511989
1, 154922, Tempo, 509814
1, 154962, Tempo, 507657
1, 155022, Tempo, 505519
1, 155062, Tempo, 503398
1, 155122, Tempo, 501295
1, 155162, Tempo, 499210
1, 155222, Tempo, 497141
1, 155262, Tempo, 495090
1, 155282, Tempo, 503398
1, 155302, Tempo, 505519
1, 155322, Tempo, 507657
1, 155342, Tempo, 509814
1, 155362, Tempo, 511989
1, 155382, Tempo, 514183
1, 155402, Tempo, 516396
1, 155422, Tempo, 518627
1, 155442, Tempo, 520879
1, 155462, Tempo, 525440
1, 155502, Tempo, 523149
1, 155520, Tempo, 537201
1, 155760, Tempo, 523149
1, 156000, Tempo, 516396
1, 156240, Tempo, 532434
1, 156480, Tempo, 518627
1, 157200, Tempo, 537201
1, 157440, Tempo, 518627
1, 157920, Tempo, 554580
1, 158160, Tempo, 590029
1, 158400, Tempo, 537201
1, 158880, Tempo, 497141
1, 158902, Tempo, 481193
1, 158962, Tempo, 483131
1, 159002, Tempo, 485084
1, 159042, Tempo, 487053
1, 159082, Tempo, 489037
1, 159122, Tempo, 491039
1, 159162, Tempo, 493056
1, 159202, Tempo, 495090
1, 159242, Tempo, 497141
1, 159282, Tempo, 499210
1, 159322, Tempo, 501295
1, 159342, Tempo, 501295
1, 159360, Tempo, 516396
1, 159840, Tempo, 546996
1, 160080, Tempo, 570396
1, 160320, Tempo, 516396
1, 160800, Tempo, 497141
1, 160822, Tempo, 475473
1, 160862, Tempo, 477365
1, 160902, Tempo, 479272
1, 160942, Tempo, 481193
1, 160962, Tempo, 483131
1, 161002, Tempo, 485084
1, 161042, Tempo, 487053
1, 161082, Tempo, 489037
1, 161102, Tempo, 491039
1, 161142, Tempo, 493056
1, 161182, Tempo, 495090
1, 161222, Tempo, 497141
1, 161242, Tempo, 499210
1, 161280, Tempo, 516396
1, 161760, Tempo, 546996
1, 162000, Tempo, 578648
1, 162120, Tempo, 578648
1, 162240, Tempo, 516396
1, 162720, Tempo, 562377
1, 163200, Tempo, 544514
1, 163680, Tempo, 578648
1, 164160, Tempo, 730016
1, 164160, End_track
2, 0, Start_track
2, 0, Title_t, "Piano right"
2, 0, Program_c, 0, 0
2, 480, Note_on_c, 0, 79, 48
2, 600, Note_on_c, 0, 79, 0
2, 600, Note_on_c, 0, 81, 54
2, 720, Note_on_c, 0, 81, 0
2, 720, Note_on_c, 0, 83, 55
2, 840, Note_on_c, 0, 83, 0
2, 840, Note_on_c, 0, 84, 60
2, 960, Note_on_c, 0, 84, 0
2, 960, Note_on_c, 0, 86, 63
2, 1440, Note_on_c, 0, 86, 0
2, 1440, Note_on_c, 0, 84, 55
2, 1560, Note_on_c, 0, 84, 0
2, 1560, Note_on_c, 0, 83, 51
2, 1680, Note_on_c, 0, 83, 0
2, 1680, Note_on_c, 0, 81, 51
2, 1800, Note_on_c, 0, 81, 0
2, 1800, Note_on_c, 0, 79, 51
2, 1920, Note_on_c, 0, 79, 0
2, 1920, Note_on_c, 0, 78, 58
2, 2400, Note_on_c, 0, 78, 0
2, 2400, Note_on_c, 0, 79, 55
2, 2520, Note_on_c, 0, 79, 0
2, 2520, Note_on_c, 0, 78, 51
2, 2640, Note_on_c, 0, 78, 0
2, 2640, Note_on_c, 0, 76, 53
2, 2760, Note_on_c, 0, 76, 0
2, 2760, Note_on_c, 0, 74, 51
2, 2880, Note_on_c, 0, 74, 0
2, 2880, Note_on_c, 0, 79, 55
2, 3000, Note_on_c, 0, 79, 0
2, 3120, Note_on_c, 0, 79, 50
2, 3240, Note_on_c, 0, 79, 0
2, 3360, Note_on_c, 0, 81, 55
2, 3480, Note_on_c, 0, 81, 0
2, 3480, Note_on_c, 0, 79, 50
2, 3600, Note_on_c, 0, 79, 0
2, 3600, Note_on_c, 0, 78, 51
2, 3720, Note_on_c, 0, 78, 0
2, 3720, Note_on_c, 0, 79, 47
2, 3840, Note_on_c, 0, 79, 0
2, 3840, Note_on_c, 0, 81, 55
2, 4320, Note_on_c, 0, 81, 0
2, 4320, Note_on_c, 0, 81, 48
2, 4440, Note_on_c, 0, 81, 0
2, 4440, Note_on_c, 0, 83, 54
2, 4560, Note_on_c, 0, 83, 0
2, 4560, Note_on_c, 0, 84, 58
2, 4680, Note_on_c, 0, 84, 0
2, 4680, Note_on_c, 0, 86, 62
2, 4800, Note_on_c, 0, 86, 0
2, 4800, Note_on_c, 0, 88, 65
2, 5280, Note_on_c, 0, 88, 0
2, 5280, Note_on_c, 0, 86, 55
2, 5400, Note_on_c, 0, 86, 0
2, 5400, Note_on_c, 0, 84, 51
2, 5520, Note_on_c, 0, 84, 0
2, 5520, Note_on_c, 0, 83, 51
2, 5640, Note_on_c, 0, 83, 0
2, 5640, Note_on_c, 0, 81, 51
2, 5760, Note_on_c, 0, 81, 0
2, 5760, Note_on_c, 0, 86, 58
2, 5850, Note_on_c, 0, 86, 0
2, 6000, Note_on_c, 0, 86, 54
2, 6090, Note_on_c, 0, 86, 0
2, 6240, Note_on_c, 0, 84, 55
2, 6360, Note_on_c, 0, 84, 0
2, 6360, Note_on_c, 0, 83, 51
2, 6480, Note_on_c, 0, 83, 0
2, 6480, Note_on_c, 0, 81, 53
2, 6600, Note_on_c, 0, 81, 0
2, 6600, Note_on_c, 0, 79, 51
2, 6720, Note_on_c, 0, 79, 0
2, 6720, Note_on_c, 0, 84, 55
2, 6810, Note_on_c, 0, 84, 0
2, 6960, Note_on_c, 0, 84, 50
2, 7050, Note_on_c, 0, 84, 0
2, 7200, Note_on_c, 0, 83, 55
2, 7320, Note_on_c, 0, 83, 0
2, 7320, Note_on_c, 0, 81, 50
2, 7440, Note_on_c, 0, 81, 0
2, 7440, Note_on_c, 0, 79, 51
2, 7560, Note_on_c, 0, 79, 0
2, 7560, Note_on_c, 0, 78, 47
2, 7680, Note_on_c, 0, 78, 0
2, 7680, Note_on_c, 0, 79, 55
2, 7920, Note_on_c, 0, 79, 0
2, 8160, Note_on_c, 0, 67, 60
2, 8280, Note_on_c, 0, 67, 0
2, 8280, Note_on_c, 0, 69, 67
2, 8400, Note_on_c, 0, 69, 0
2, 8400, Note_on_c, 0, 71, 70
2, 8520, Note_on_c, 0, 71, 0
2, 8520, Note_on_c, 0, 72, 76
2, 8640, Note_on_c, 0, 72, 0
2, 8640, Note_on_c, 0, 74, 80
2, 9120, Note_on_c, 0, 74, 0
2, 9120, Note_on_c, 0, 72, 68
2, 9240, Note_on_c, 0, 72, 0
2, 9240, Note_on_c, 0, 71, 63
2, 9360, Note_on_c, 0, 71, 0
2, 9360, Note_on_c, 0, 69, 63
2, 9480, Note_on_c, 0, 69, 0
2, 9480, Note_on_c, 0, 67, 63
2, 9600, Note_on_c, 0, 67, 0
2, 9600, Note_on_c, 0, 66, 72
2, 10080, Note_on_c, 0, 66, 0
2, 10080, Note_on_c, 0, 67, 68
2, 10200, Note_on_c, 0, 67, 0
2, 10200, Note_on_c, 0, 66, 63
2, 10320, Note_on_c, 0, 66, 0
2, 10320, Note_on_c, 0, 64, 66
2, 10440, Note_on_c, 0, 64, 0
2, 10440, Note_on_c, 0, 62, 63
2, 10560, Note_on_c, 0, 62, 0
2, 10560, Note_on_c, 0, 67, 68
2, 10680, Note_on_c, 0, 67, 0
2, 10800, Note_on_c, 0, 67, 62
2, 10920, Note_on_c, 0, 67, 0
2, 11040, Note_on_c, 0, 69, 68
2, 11160, Note_on_c, 0, 69, 0
2, 11160, Note_on_c, 0, 67, 62
2, 11280, Note_on_c, 0, 67, 0
2, 11280, Note_on_c, 0, 66, 63
2, 11400, Note_on_c, 0, 66, 0
2, 11400, Note_on_c, 0, 67, 58
2, 11520, Note_on_c, 0, 67, 0
2, 11520, Note_on_c, 0, 69, 68
2, 12000, Note_on_c, 0, 69, 0
2, 12000, Note_on_c, 0, 69, 60
2, 12120, Note_on_c, 0, 69, 0
2, 12120, Note_on_c, 0, 71, 67
2, 12240, Note_on_c, 0, 71, 0
2, 12240, Note_on_c, 0, 72, 70
2, 12360, Note_on_c, 0, 72, 0
2, 12360, Note_on_c, 0, 74, 73
2, 12480, Note_on_c, 0, 74, 0
2, 12480, Note_on_c, 0, 76, 80
2, 12960, Note_on_c, 0, 76, 0
2, 12960, Note_on_c, 0, 74, 68
2, 13080, Note_on_c, 0, 74, 0
2, 13080, Note_on_c, 0, 72, 63
2, 13200, Note_on_c, 0, 72, 0
2, 13200, Note_on_c, 0, 71, 63
2, 13320, Note_on_c, 0, 71, 0
2, 13320, Note_on_c, 0, 69, 63
2, 13440, Note_on_c, 0, 69, 0
2, 13440, Note_on_c, 0, 74, 72
2, 13530, Note_on_c, 0, 74, 0
2, 13680, Note_on_c, 0, 74, 58
2, 13770, Note_on_c, 0, 74, 0
2, 13920, Note_on_c, 0, 72, 68
2, 14040, Note_on_c, 0, 72, 0
2, 14040, Note_on_c, 0, 71, 63
2, 14160, Note_on_c, 0, 71, 0
2, 14160, Note_on_c, 0, 69, 66
2, 14280, Note_on_c, 0, 69, 0
2, 14280, Note_on_c, 0, 67, 63
2, 14400, Note_on_c, 0, 67, 0
2, 14400, Note_on_c, 0, 72, 68
2, 14490, Note_on_c, 0, 72, 0
2, 14640, Note_on_c, 0, 72, 57
2, 14730, Note_on_c, 0, 72, 0
2, 14880, Note_on_c, 0, 71, 68
2, 15000, Note_on_c, 0, 71, 0
2, 15000, Note_on_c, 0, 69, 62
2, 15120, Note_on_c, 0, 69, 0
2, 15120, Note_on_c, 0, 67, 63
2, 15240, Note_on_c, 0, 67, 0
2, 15240, Note_on_c, 0, 66, 58
2, 15360, Note_on_c, 0, 66, 0
2, 15360, Note_on_c, 0, 67, 68
2, 15450, Note_on_c, 0, 67, 0
2, 15600, Note_on_c, 0, 67, 57
2, 15690, Note_on_c, 0, 67, 0
2, 15840, Note_on_c, 0, 79, 54
2, 15960, Note_on_c, 0, 79, 0
2, 15960, Note_on_c, 0, 78, 41
2, 16080, Note_on_c, 0, 78, 0
2, 16080, Note_on_c, 0, 79, 43
2, 16200, Note_on_c, 0, 79, 0
2, 16200, Note_on_c, 0, 76, 40
2, 16320, Note_on_c, 0, 76, 0
2, 16320, Note_on_c, 0, 73, 48
2, 16440, Note_on_c, 0, 73, 0
2, 16560, Note_on_c, 0, 73, 43
2, 16680, Note_on_c, 0, 73, 0
2, 16800, Note_on_c, 0, 74, 48
2, 16920, Note_on_c, 0, 74, 0
2, 16920, Note_on_c, 0, 73, 40
2, 17040, Note_on_c, 0, 73, 0
2, 17040, Note_on_c, 0, 71, 42
2, 17160, Note_on_c, 0, 71, 0
2, 17160, Note_on_c, 0, 69, 40
2, 17280, Note_on_c, 0, 69, 0
2, 17280, Note_on_c, 0, 74, 48
2, 17400, Note_on_c, 0, 74, 0
2, 17520, Note_on_c, 0, 74, 45
2, 17640, Note_on_c, 0, 74, 0
2, 17760, Note_on_c, 0, 81, 53
2, 17880, Note_on_c, 0, 81, 0
2, 17880, Note_on_c, 0, 78, 41
2, 18000, Note_on_c, 0, 78, 0
2, 18000, Note_on_c, 0, 81, 43
2, 18120, Note_on_c, 0, 81, 0
2, 18120, Note_on_c, 0, 74, 40
2, 18240, Note_on_c, 0, 74, 0
2, 18240, Note_on_c, 0, 73, 48
2, 18360, Note_on_c, 0, 73, 0
2, 18480, Note_on_c, 0, 73, 43
2, 18600, Note_on_c, 0, 73, 0
2, 18720, Note_on_c, 0, 74, 48
2, 18840, Note_on_c, 0, 74, 0
2, 18840, Note_on_c, 0, 73, 40
2, 18960, Note_on_c, 0, 73, 0
2, 18960, Note_on_c, 0, 71, 42
2, 19080, Note_on_c, 0, 71, 0
2, 19080, Note_on_c, 0, 73, 40
2, 19200, Note_on_c, 0, 73, 0
2, 19200, Note_on_c, 0, 74, 48
2, 19440, Note_on_c, 0, 74, 0
2, 19440, Note_on_c, 0, 76, 46
2, 19560, Note_on_c, 0, 76, 0
2, 19560, Note_on_c, 0, 78, 49
2, 19680, Note_on_c, 0, 78, 0
2, 19680, Note_on_c, 0, 79, 56
2, 19800, Note_on_c, 0, 79, 0
2, 19800, Note_on_c, 0, 78, 41
2, 19920, Note_on_c, 0, 78, 0
2, 19920, Note_on_c, 0, 79, 43
2, 20040, Note_on_c, 0, 79, 0
2, 20040, Note_on_c, 0, 76, 40
2, 20160, Note_on_c, 0, 76, 0
2, 20160, Note_on_c, 0, 73, 48
2, 20280, Note_on_c, 0, 73, 0
2, 20400, Note_on_c, 0, 73, 43
2, 20520, Note_on_c, 0, 73, 0
2, 20640, Note_on_c, 0, 74, 48
2, 20760, Note_on_c, 0, 74, 0
2, 20760, Note_on_c, 0, 73, 40
2, 20880, Note_on_c, 0, 73, 0
2, 20880, Note_on_c, 0, 71, 42
2, 21000, Note_on_c, 0, 71, 0
2, 21000, Note_on_c, 0, 73, 40
2, 21120, Note_on_c, 0, 73, 0
2, 21120, Note_on_c, 0, 74, 54
2, 21240, Note_on_c, 0, 74, 0
2, 21240, Note_on_c, 0, 76, 52
2, 21360, Note_on_c, 0, 76, 0
2, 21360, Note_on_c, 0, 78, 54
2, 21480, Note_on_c, 0, 78, 0
2, 21480, Note_on_c, 0, 79, 55
2, 21600, Note_on_c, 0, 79, 0
2, 21600, Note_on_c, 0, 81, 57
2, 21720, Note_on_c, 0, 81, 0
2, 21720, Note_on_c, 0, 83, 60
2, 21840, Note_on_c, 0, 83, 0
2, 21840, Note_on_c, 0, 85, 62
2, 21960, Note_on_c, 0, 85, 0
2, 21960, Note_on_c, 0, 86, 63
2, 22080, Note_on_c, 0, 86, 0
2, 22320, Note_on_c, 0, 79, 58
2, 22440, Note_on_c, 0, 79, 0
2, 22440, Note_on_c, 0, 76, 58
2, 22560, Note_on_c, 0, 76, 0
2, 22560, Note_on_c, 0, 73, 65
2, 22680, Note_on_c, 0, 73, 0
2, 22680, Note_on_c, 0, 76, 58
2, 22800, Note_on_c, 0, 76, 0
2, 22800, Note_on_c, 0, 73, 58
2, 22920, Note_on_c, 0, 73, 0
2, 22920, Note_on_c, 0, 76, 58
2, 23040, Note_on_c, 0, 76, 0
2, 23040, Note_on_c, 0, 74, 68
2, 23160, Note_on_c, 0, 74, 0
2, 23160, Note_on_c, 0, 78, 58
2, 23280, Note_on_c, 0, 78, 0
2, 23280, Note_on_c, 0, 81, 58
2, 23400, Note_on_c, 0, 81, 0
2, 23400, Note_on_c, 0, 78, 58
2, 23520, Note_on_c, 0, 78, 0
2, 23520, Note_on_c, 0, 81, 64
2, 23640, Note_on_c, 0, 81, 0
2, 23640, Note_on_c, 0, 78, 58
2, 23760, Note_on_c, 0, 78, 0
2, 23760, Note_on_c, 0, 81, 58
2, 23880, Note_on_c, 0, 81, 0
2, 23880, Note_on_c, 0, 78, 58
2, 24000, Note_on_c, 0, 78, 0
2, 24000, Note_on_c, 0, 76, 68
2, 24120, Note_on_c, 0, 76, 0
2, 24120, Note_on_c, 0, 79, 57
2, 24240, Note_on_c, 0, 79, 0
2, 24240, Note_on_c, 0, 83, 57
2, 24360, Note_on_c, 0, 83, 0
2, 24360, Note_on_c, 0, 79, 57
2, 24480, Note_on_c, 0, 79, 0
2, 24480, Note_on_c, 0, 83, 64
2, 24600, Note_on_c, 0, 83, 0
2, 24600, Note_on_c, 0, 79, 57
2, 24720, Note_on_c, 0, 79, 0
2, 24720, Note_on_c, 0, 83, 57
2, 24840, Note_on_c, 0, 83, 0
2, 24840, Note_on_c, 0, 79, 57
2, 24960, Note_on_c, 0, 79, 0
2, 24960, Note_on_c, 0, 78, 65
2, 25080, Note_on_c, 0, 78, 0
2, 25080, Note_on_c, 0, 81, 54
2, 25200, Note_on_c, 0, 81, 0
2, 25200, Note_on_c, 0, 84, 54
2, 25320, Note_on_c, 0, 84, 0
2, 25320, Note_on_c, 0, 81, 54
2, 25440, Note_on_c, 0, 81, 0
2, 25440, Note_on_c, 0, 84, 62
2, 25560, Note_on_c, 0, 84, 0
2, 25560, Note_on_c, 0, 81, 53
2, 25680, Note_on_c, 0, 81, 0
2, 25680, Note_on_c, 0, 84, 53
2, 25800, Note_on_c, 0, 84, 0
2, 25800, Note_on_c, 0, 81, 53
2, 25920, Note_on_c, 0, 81, 0
2, 25920, Note_on_c, 0, 78, 55
2, 26040, Note_on_c, 0, 78, 0
2, 26040, Note_on_c, 0, 81, 45
2, 26160, Note_on_c, 0, 81, 0
2, 26160, Note_on_c, 0, 84, 44
2, 26280, Note_on_c, 0, 84, 0
2, 26280, Note_on_c, 0, 81, 43
2, 26400, Note_on_c, 0, 81, 0
2, 26400, Note_on_c, 0, 78, 49
2, 26520, Note_on_c, 0, 78, 0
2, 26520, Note_on_c, 0, 81, 42
2, 26640, Note_on_c, 0, 81, 0
2, 26640, Note_on_c, 0, 84, 41
2, 26760, Note_on_c, 0, 84, 0
2, 26760, Note_on_c, 0, 81, 41
2, 26880, Note_on_c, 0, 81, 0
2, 26880, Note_on_c, 0, 78, 51
2, 27000, Note_on_c, 0, 78, 0
2, 27000, Note_on_c, 0, 74, 42
2, 27120, Note_on_c, 0, 74, 0
2, 27120, Note_on_c, 0, 76, 47
2, 27240, Note_on_c, 0, 76, 0
2, 27240, Note_on_c, 0, 78, 48
2, 27360, Note_on_c, 0, 78, 0
2, 27360, Note_on_c, 0, 79, 50
2, 27480, Note_on_c, 0, 79, 0
2, 27480, Note_on_c, 0, 81, 54
2, 27600, Note_on_c, 0, 81, 0
2, 27600, Note_on_c, 0, 83, 56
2, 27720, Note_on_c, 0, 83, 0
2, 27720, Note_on_c, 0, 84, 61
2, 27840, Note_on_c, 0, 84, 0
2, 27840, Note_on_c, 0, 86, 68
2, 28320, Note_on_c, 0, 86, 0
2, 28320, Note_on_c, 0, 84, 55
2, 28440, Note_on_c, 0, 84, 0
2, 28440, Note_on_c, 0, 83, 51
2, 28560, Note_on_c, 0, 83, 0
2, 28560, Note_on_c, 0, 81, 51
2, 28680, Note_on_c, 0, 81, 0
2, 28680, Note_on_c, 0, 79, 51
2, 28800, Note_on_c, 0, 79, 0
2, 28800, Note_on_c, 0, 78, 58
2, 29280, Note_on_c, 0, 78, 0
2, 29280, Note_on_c, 0, 79, 55
2, 29400, Note_on_c, 0, 79, 0
2, 29400, Note_on_c, 0, 78, 51
2, 29520, Note_on_c, 0, 78, 0
2, 29520, Note_on_c, 0, 76, 53
2, 29640, Note_on_c, 0, 76, 0
2, 29640, Note_on_c, 0, 74, 51
2, 29760, Note_on_c, 0, 74, 0
2, 29760, Note_on_c, 0, 79, 55
2, 29880, Note_on_c, 0, 79, 0
2, 30000, Note_on_c, 0, 79, 50
2, 30120, Note_on_c, 0, 79, 0
2, 30240, Note_on_c, 0, 81, 55
2, 30360, Note_on_c, 0, 81, 0
2, 30360, Note_on_c, 0, 79, 50
2, 30480, Note_on_c, 0, 79, 0
2, 30480, Note_on_c, 0, 78, 51
2, 30600, Note_on_c, 0, 78, 0
2, 30600, Note_on_c, 0, 79, 47
2, 30720, Note_on_c, 0, 79, 0
2, 30720, Note_on_c, 0, 81, 55
2, 31200, Note_on_c, 0, 81, 0
2, 31200, Note_on_c, 0, 81, 48
2, 31320, Note_on_c, 0, 81, 0
2, 31320, Note_on_c, 0, 83, 54
2, 31440, Note_on_c, 0, 83, 0
2, 31440, Note_on_c, 0, 84, 56
2, 31560, Note_on_c, 0, 84, 0
2, 31560, Note_on_c, 0, 86, 60
2, 31680, Note_on_c, 0, 86, 0
2, 31680, Note_on_c, 0, 88, 65
2, 32160, Note_on_c, 0, 88, 0
2, 32160, Note_on_c, 0, 86, 55
2, 32280, Note_on_c, 0, 86, 0
2, 32280, Note_on_c, 0, 84, 51
2, 32400, Note_on_c, 0, 84, 0
2, 32400, Note_on_c, 0, 83, 51
2, 32520, Note_on_c, 0, 83, 0
2, 32520, Note_on_c, 0, 81, 51
2, 32640, Note_on_c, 0, 81, 0
2, 32640, Note_on_c, 0, 86, 58
2, 32730, Note_on_c, 0, 86, 0
2, 32880, Note_on_c, 0, 86, 58
2, 32970, Note_on_c, 0, 86, 0
2, 33120, Note_on_c, 0, 84, 55
2, 33240, Note_on_c, 0, 84, 0
2, 33240, Note_on_c, 0, 83, 51
2, 33360, Note_on_c, 0, 83, 0
2, 33360, Note_on_c, 0, 81, 53
2, 33480, Note_on_c, 0, 81, 0
2, 33480, Note_on_c, 0, 79, 51
2, 33600, Note_on_c, 0, 79, 0
2, 33600, Note_on_c, 0, 84, 55
2, 33690, Note_on_c, 0, 84, 0
2, 33840, Note_on_c, 0, 84, 50
2, 33930, Note_on_c, 0, 84, 0
2, 34080, Note_on_c, 0, 83, 55
2, 34200, Note_on_c, 0, 83, 0
2, 34200, Note_on_c, 0, 81, 50
2, 34320, Note_on_c, 0, 81, 0
2, 34320, Note_on_c, 0, 79, 51
2, 34440, Note_on_c, 0, 79, 0
2, 34440, Note_on_c, 0, 78, 47
2, 34560, Note_on_c, 0, 78, 0
2, 34560, Note_on_c, 0, 79, 55
2, 34800, Note_on_c, 0, 79, 0
2, 35040, Note_on_c, 0, 67, 60
2, 35160, Note_on_c, 0, 67, 0
2, 35160, Note_on_c, 0, 69, 67
2, 35280, Note_on_c, 0, 69, 0
2, 35280, Note_on_c, 0, 71, 70
2, 35400, Note_on_c, 0, 71, 0
2, 35400, Note_on_c, 0, 72, 72
2, 35520, Note_on_c, 0, 72, 0
2, 35520, Note_on_c, 0, 74, 76
2, 36000, Note_on_c, 0, 74, 0
2, 36000, Note_on_c, 0, 72, 68
2, 36120, Note_on_c, 0, 72, 0
2, 36120, Note_on_c, 0, 71, 63
2, 36240, Note_on_c, 0, 71, 0
2, 36240, Note_on_c, 0, 69, 63
2, 36360, Note_on_c, 0, 69, 0
2, 36360, Note_on_c, 0, 67, 63
2, 36480, Note_on_c, 0, 67, 0
2, 36480, Note_on_c, 0, 66, 72
2, 36960, Note_on_c, 0, 66, 0
2, 36960, Note_on_c, 0, 67, 68
2, 37080, Note_on_c, 0, 67, 0
2, 37080, Note_on_c, 0, 66, 63
2, 37200, Note_on_c, 0, 66, 0
2, 37200, Note_on_c, 0, 64, 66
2, 37320, Note_on_c, 0, 64, 0
2, 37320, Note_on_c, 0, 62, 63
2, 37440, Note_on_c, 0, 62, 0
2, 37440, Note_on_c, 0, 67, 68
2, 37560, Note_on_c, 0, 67, 0
2, 37680, Note_on_c, 0, 67, 62
2, 37800, Note_on_c, 0, 67, 0
2, 37920, Note_on_c, 0, 69, 68
2, 38040, Note_on_c, 0, 69, 0
2, 38040, Note_on_c, 0, 67, 62
2, 38160, Note_on_c, 0, 67, 0
2, 38160, Note_on_c, 0, 66, 63
2, 38280, Note_on_c, 0, 66, 0
2, 38280, Note_on_c, 0, 67, 58
2, 38400, Note_on_c, 0, 67, 0
2, 38400, Note_on_c, 0, 69, 68
2, 38880, Note_on_c, 0, 69, 0
2, 38880, Note_on_c, 0, 69, 60
2, 39000, Note_on_c, 0, 69, 0
2, 39000, Note_on_c, 0, 71, 67
2, 39120, Note_on_c, 0, 71, 0
2, 39120, Note_on_c, 0, 72, 70
2, 39240, Note_on_c, 0, 72, 0
2, 39240, Note_on_c, 0, 74, 73
2, 39360, Note_on_c, 0, 74, 0
2, 39360, Note_on_c, 0, 76, 80
2, 39840, Note_on_c, 0, 76, 0
2, 39840, Note_on_c, 0, 74, 68
2, 39960, Note_on_c, 0, 74, 0
2, 39960, Note_on_c, 0, 72, 63
2, 40080, Note_on_c, 0, 72, 0
2, 40080, Note_on_c, 0, 71, 63
2, 40200, Note_on_c, 0, 71, 0
2, 40200, Note_on_c, 0, 69, 63
2, 40320, Note_on_c, 0, 69, 0
2, 40320, Note_on_c, 0, 74, 72
2, 40410, Note_on_c, 0, 74, 0
2, 40560, Note_on_c, 0, 74, 62
2, 40650, Note_on_c, 0, 74, 0
2, 40800, Note_on_c, 0, 72, 68
2, 40920, Note_on_c, 0, 72, 0
2, 40920, Note_on_c, 0, 71, 63
2, 41040, Note_on_c, 0, 71, 0
2, 41040, Note_on_c, 0, 69, 66
2, 41160, Note_on_c, 0, 69, 0
2, 41160, Note_on_c, 0, 67, 63
2, 41280, Note_on_c, 0, 67, 0
2, 41280, Note_on_c, 0, 72, 68
2, 41370, Note_on_c, 0, 72, 0
2, 41520, Note_on_c, 0, 72, 57
2, 41610, Note_on_c, 0, 72, 0
2, 41760, Note_on_c, 0, 71, 68
2, 41880, Note_on_c, 0, 71, 0
2, 41880, Note_on_c, 0, 69, 62
2, 42000, Note_on_c, 0, 69, 0
2, 42000, Note_on_c, 0, 67, 63
2, 42120, Note_on_c, 0, 67, 0
2, 42120, Note_on_c, 0, 66, 58
2, 42240, Note_on_c, 0, 66, 0
2, 42240, Note_on_c, 0, 67, 68
2, 42480, Note_on_c, 0, 67, 0
2, 43440, Note_on_c, 0, 76, 46
2, 43440, Note_on_c, 0, 72, 39
2, 43530, Note_on_c, 0, 72, 0
2, 43530, Note_on_c, 0, 76, 0
2, 43680, Note_on_c, 0, 71, 45
2, 43680, Note_on_c, 0, 74, 53
2, 43770, Note_on_c, 0, 74, 0
2, 43770, Note_on_c, 0, 71, 0
2, 43920, Note_on_c, 0, 76, 49
2, 43920, Note_on_c, 0, 72, 41
2, 44010, Note_on_c, 0, 72, 0
2, 44010, Note_on_c, 0, 76, 0
2, 44160, Note_on_c, 0, 71, 45
2, 44160, Note_on_c, 0, 74, 54
2, 44280, Note_on_c, 0, 74, 0
2, 44280, Note_on_c, 0, 71, 0
2, 45360, Note_on_c, 0, 76, 50
2, 45360, Note_on_c, 0, 72, 42
2, 45450, Note_on_c, 0, 72, 0
2, 45450, Note_on_c, 0, 76, 0
2, 45600, Note_on_c, 0, 71, 49
2, 45600, Note_on_c, 0, 74, 58
2, 45690, Note_on_c, 0, 74, 0
2, 45690, Note_on_c, 0, 71, 0
2, 45840, Note_on_c, 0, 76, 53
2, 45840, Note_on_c, 0, 72, 45
2, 45930, Note_on_c, 0, 72, 0
2, 45930, Note_on_c, 0, 76, 0
2, 46080, Note_on_c, 0, 71, 49
2, 46080, Note_on_c, 0, 74, 59
2, 46200, Note_on_c, 0, 74, 0
2, 46200, Note_on_c, 0, 71, 0
2, 47280, Note_on_c, 0, 67, 56
2, 47280, Note_on_c, 0, 76, 64
2, 47400, Note_on_c, 0, 76, 0
2, 47400, Note_on_c, 0, 67, 0
2, 47520, Note_on_c, 0, 74, 74
2, 47520, Note_on_c, 0, 67, 65
2, 47640, Note_on_c, 0, 67, 0
2, 47640, Note_on_c, 0, 74, 0
2, 47760, Note_on_c, 0, 67, 57
2, 47760, Note_on_c, 0, 76, 65
2, 47880, Note_on_c, 0, 76, 0
2, 47880, Note_on_c, 0, 67, 0
2, 48000, Note_on_c, 0, 74, 74
2, 48000, Note_on_c, 0, 67, 65
2, 48120, Note_on_c, 0, 67, 0
2, 48120, Note_on_c, 0, 74, 0
2, 48240, Note_on_c, 0, 67, 55
2, 48240, Note_on_c, 0, 74, 63
2, 48360, Note_on_c, 0, 74, 0
2, 48360, Note_on_c, 0, 67, 0
2, 48480, Note_on_c, 0, 72, 72
2, 48480, Note_on_c, 0, 69, 63
2, 48600, Note_on_c, 0, 69, 0
2, 48600, Note_on_c, 0, 72, 0
2, 48720, Note_on_c, 0, 72, 62
2, 48720, Note_on_c, 0, 69, 54
2, 48840, Note_on_c, 0, 69, 0
2, 48840, Note_on_c, 0, 72, 0
2, 48960, Note_on_c, 0, 71, 71
2, 48960, Note_on_c, 0, 67, 62
2, 49080, Note_on_c, 0, 67, 0
2, 49080, Note_on_c, 0, 71, 0
2, 49200, Note_on_c, 0, 71, 60
2, 49200, Note_on_c, 0, 67, 53
2, 49320, Note_on_c, 0, 67, 0
2, 49320, Note_on_c, 0, 71, 0
2, 49440, Note_on_c, 0, 69, 71
2, 49440, Note_on_c, 0, 66, 62
2, 49560, Note_on_c, 0, 66, 0
2, 49560, Note_on_c, 0, 69, 0
2, 49680, Note_on_c, 0, 69, 58
2, 49680, Note_on_c, 0, 66, 51
2, 49800, Note_on_c, 0, 66, 0
2, 49800, Note_on_c, 0, 69, 0
2, 49920, Note_on_c, 0, 67, 71
2, 50040, Note_on_c, 0, 67, 0
2, 50400, Note_on_c, 0, 86, 48
2, 50520, Note_on_c, 0, 86, 0
2, 50520, Note_on_c, 0, 84, 54
2, 50640, Note_on_c, 0, 84, 0
2, 50640, Note_on_c, 0, 83, 56
2, 50760, Note_on_c, 0, 83, 0
2, 50760, Note_on_c, 0, 81, 58
2, 50880, Note_on_c, 0, 81, 0
2, 50880, Note_on_c, 0, 79, 61
2, 51000, Note_on_c, 0, 79, 0
2, 51120, Note_on_c, 0, 79, 53
2, 51240, Note_on_c, 0, 79, 0
2, 51360, Note_on_c, 0, 74, 58
2, 51480, Note_on_c, 0, 74, 0
2, 51600, Note_on_c, 0, 74, 49
2, 51720, Note_on_c, 0, 74, 0
2, 51840, Note_on_c, 0, 71, 58
2, 51960, Note_on_c, 0, 71, 0
2, 52320, Note_on_c, 0, 86, 48
2, 52440, Note_on_c, 0, 86, 0
2, 52440, Note_on_c, 0, 84, 54
2, 52560, Note_on_c, 0, 84, 0
2, 52560, Note_on_c, 0, 83, 56
2, 52680, Note_on_c, 0, 83, 0
2, 52680, Note_on_c, 0, 81, 58
2, 52800, Note_on_c, 0, 81, 0
2, 52800, Note_on_c, 0, 79, 61
2, 52920, Note_on_c, 0, 79, 0
2, 53040, Note_on_c, 0, 79, 53
2, 53160, Note_on_c, 0, 79, 0
2, 53280, Note_on_c, 0, 74, 58
2, 53400, Note_on_c, 0, 74, 0
2, 53520, Note_on_c, 0, 74, 49
2, 53640, Note_on_c, 0, 74, 0
2, 53760, Note_on_c, 0, 71, 58
2, 53880, Note_on_c, 0, 71, 0
2, 54240, Note_on_c, 0, 78, 80
2, 54240, Note_on_c, 0, 72, 67
2, 54240, Note_on_c, 0, 69, 67
2, 54360, Note_on_c, 0, 69, 0
2, 54360, Note_on_c, 0, 72, 0
2, 54360, Note_on_c, 0, 78, 0
2, 54720, Note_on_c, 0, 79, 87
2, 54720, Note_on_c, 0, 74, 73
2, 54720, Note_on_c, 0, 71, 73
2, 54840, Note_on_c, 0, 71, 0
2, 54840, Note_on_c, 0, 74, 0
2, 54840, Note_on_c, 0, 79, 0
2, 55200, Note_on_c, 0, 78, 80
2, 55200, Note_on_c, 0, 74, 67
2, 55200, Note_on_c, 0, 69, 67
2, 55320, Note_on_c, 0, 69, 0
2, 55320, Note_on_c, 0, 74, 0
2, 55320, Note_on_c, 0, 78, 0
2, 55680, Note_on_c, 0, 79, 90
2, 55680, Note_on_c, 0, 74, 77
2, 55680, Note_on_c, 0, 71, 77
2, 55800, Note_on_c, 0, 71, 0
2, 55800, Note_on_c, 0, 74, 0
2, 55800, Note_on_c, 0, 79, 0
2, 56160, Note_on_c, 0, 71, 52
2, 56280, Note_on_c, 0, 71, 0
2, 56400, Note_on_c, 0, 71, 42
2, 56520, Note_on_c, 0, 71, 0
2, 56640, Note_on_c, 0, 71, 52
2, 56760, Note_on_c, 0, 71, 0
2, 56880, Note_on_c, 0, 71, 40
2, 57000, Note_on_c, 0, 71, 0
2, 57120, Note_on_c, 0, 76, 46
2, 57240, Note_on_c, 0, 76, 0
2, 57360, Note_on_c, 0, 76, 38
2, 57480, Note_on_c, 0, 76, 0
2, 57600, Note_on_c, 0, 75, 52
2, 57720, Note_on_c, 0, 75, 0
2, 57840, Note_on_c, 0, 75, 40
2, 57960, Note_on_c, 0, 75, 0
2, 58080, Note_on_c, 0, 71, 43
2, 58200, Note_on_c, 0, 71, 0
2, 58320, Note_on_c, 0, 71, 33
2, 58440, Note_on_c, 0, 71, 0
2, 58560, Note_on_c, 0, 71, 52
2, 58680, Note_on_c, 0, 71, 0
2, 58800, Note_on_c, 0, 71, 38
2, 58920, Note_on_c, 0, 71, 0
2, 59040, Note_on_c, 0, 79, 45
2, 59160, Note_on_c, 0, 79, 0
2, 59280, Note_on_c, 0, 79, 38
2, 59400, Note_on_c, 0, 79, 0
2, 59520, Note_on_c, 0, 78, 52
2, 59640, Note_on_c, 0, 78, 0
2, 59760, Note_on_c, 0, 78, 42
2, 59880, Note_on_c, 0, 78, 0
2, 60000, Note_on_c, 0, 83, 49
2, 60120, Note_on_c, 0, 83, 0
2, 60240, Note_on_c, 0, 83, 44
2, 60360, Note_on_c, 0, 83, 0
2, 60480, Note_on_c, 0, 76, 52
2, 60600, Note_on_c, 0, 76, 0
2, 60720, Note_on_c, 0, 76, 42
2, 60840, Note_on_c, 0, 76, 0
2, 60960, Note_on_c, 0, 81, 49
2, 61080, Note_on_c, 0, 81, 0
2, 61200, Note_on_c, 0, 81, 44
2, 61320, Note_on_c, 0, 81, 0
2, 61440, Note_on_c, 0, 74, 52
2, 61560, Note_on_c, 0, 74, 0
2, 61680, Note_on_c, 0, 74, 46
2, 61800, Note_on_c, 0, 74, 0
2, 61920, Note_on_c, 0, 81, 62
2, 62040, Note_on_c, 0, 81, 0
2, 62040, Note_on_c, 0, 79, 51
2, 62160, Note_on_c, 0, 79, 0
2, 62160, Note_on_c, 0, 78, 51
2, 62280, Note_on_c, 0, 78, 0
2, 62280, Note_on_c, 0, 79, 52
2, 62400, Note_on_c, 0, 79, 0
2, 62400, Note_on_c, 0, 76, 63
2, 62520, Note_on_c, 0, 76, 0
2, 62640, Note_on_c, 0, 76, 45
2, 62760, Note_on_c, 0, 76, 0
2, 62880, Note_on_c, 0, 73, 52
2, 63000, Note_on_c, 0, 73, 0
2, 63120, Note_on_c, 0, 73, 44
2, 63240, Note_on_c, 0, 73, 0
2, 63360, Note_on_c, 0, 70, 52
2, 63480, Note_on_c, 0, 70, 0
2, 63600, Note_on_c, 0, 70, 42
2, 63720, Note_on_c, 0, 70, 0
2, 63840, Note_on_c, 0, 66, 51
2, 63960, Note_on_c, 0, 66, 0
2, 64080, Note_on_c, 0, 66, 43
2, 64200, Note_on_c, 0, 66, 0
2, 64320, Note_on_c, 0, 66, 53
2, 64440, Note_on_c, 0, 66, 0
2, 64560, Note_on_c, 0, 66, 43
2, 64680, Note_on_c, 0, 66, 0
2, 64800, Note_on_c, 0, 71, 63
2, 64920, Note_on_c, 0, 71, 0
2, 65040, Note_on_c, 0, 71, 55
2, 65160, Note_on_c, 0, 71, 0
2, 65280, Note_on_c, 0, 70, 67
2, 65400, Note_on_c, 0, 70, 0
2, 65520, Note_on_c, 0, 70, 48
2, 65640, Note_on_c, 0, 70, 0
2, 65760, Note_on_c, 0, 66, 57
2, 65880, Note_on_c, 0, 66, 0
2, 66000, Note_on_c, 0, 66, 48
2, 66120, Note_on_c, 0, 66, 0
2, 66240, Note_on_c, 0, 66, 61
2, 66360, Note_on_c, 0, 66, 0
2, 66480, Note_on_c, 0, 66, 50
2, 66600, Note_on_c, 0, 66, 0
2, 66720, Note_on_c, 0, 74, 62
2, 66840, Note_on_c, 0, 74, 0
2, 66960, Note_on_c, 0, 74, 49
2, 67080, Note_on_c, 0, 74, 0
2, 67200, Note_on_c, 0, 73, 71
2, 67320, Note_on_c, 0, 73, 0
2, 67440, Note_on_c, 0, 73, 56
2, 67560, Note_on_c, 0, 73, 0
2, 67680, Note_on_c, 0, 78, 68
2, 67800, Note_on_c, 0, 78, 0
2, 67920, Note_on_c, 0, 78, 50
2, 68040, Note_on_c, 0, 78, 0
2, 68160, Note_on_c, 0, 71, 69
2, 68280, Note_on_c, 0, 71, 0
2, 68400, Note_on_c, 0, 71, 55
2, 68520, Note_on_c, 0, 71, 0
2, 68640, Note_on_c, 0, 76, 65
2, 68760, Note_on_c, 0, 76, 0
2, 68880, Note_on_c, 0, 76, 56
2, 69000, Note_on_c, 0, 76, 0
2, 69120, Note_on_c, 0, 69, 68
2, 69240, Note_on_c, 0, 69, 0
2, 69360, Note_on_c, 0, 69, 60
2, 69480, Note_on_c, 0, 69, 0
2, 69600, Note_on_c, 0, 74, 65
2, 69720, Note_on_c, 0, 74, 0
2, 69840, Note_on_c, 0, 74, 56
2, 69960, Note_on_c, 0, 74, 0
2, 70080, Note_on_c, 0, 74, 74
2, 70320, Note_on_c, 0, 74, 0
2, 70320, Note_on_c, 0, 68, 63
2, 70560, Note_on_c, 0, 68, 0
2, 70560, Note_on_c, 0, 69, 76
2, 70680, Note_on_c, 0, 69, 0
2, 70680, Note_on_c, 0, 68, 55
2, 70800, Note_on_c, 0, 68, 0
2, 70800, Note_on_c, 0, 66, 63
2, 70920, Note_on_c, 0, 66, 0
2, 70920, Note_on_c, 0, 68, 55
2, 71040, Note_on_c, 0, 68, 0
2, 71040, Note_on_c, 0, 71, 73
2, 71280, Note_on_c, 0, 71, 0
2, 71280, Note_on_c, 0, 69, 55
2, 71520, Note_on_c, 0, 69, 0
2, 72480, Note_on_c, 0, 66, 70
2, 72480, Note_on_c, 0, 62, 59
2, 72600, Note_on_c, 0, 62, 0
2, 72600, Note_on_c, 0, 66, 0
2, 72720, Note_on_c, 0, 66, 64
2, 72720, Note_on_c, 0, 62, 54
2, 72840, Note_on_c, 0, 62, 0
2, 72840, Note_on_c, 0, 66, 0
2, 72960, Note_on_c, 0, 61, 58
2, 72960, Note_on_c, 0, 64, 69
2, 73080, Note_on_c, 0, 64, 0
2, 73080, Note_on_c, 0, 61, 0
2, 73200, Note_on_c, 0, 64, 59
2, 73200, Note_on_c, 0, 61, 50
2, 73320, Note_on_c, 0, 61, 0
2, 73320, Note_on_c, 0, 64, 0
2, 74400, Note_on_c, 0, 66, 70
2, 74400, Note_on_c, 0, 63, 59
2, 74520, Note_on_c, 0, 63, 0
2, 74520, Note_on_c, 0, 66, 0
2, 74640, Note_on_c, 0, 66, 64
2, 74640, Note_on_c, 0, 63, 54
2, 74760, Note_on_c, 0, 63, 0
2, 74760, Note_on_c, 0, 66, 0
2, 74880, Note_on_c, 0, 64, 58
2, 74880, Note_on_c, 0, 67, 69
2, 75000, Note_on_c, 0, 67, 0
2, 75000, Note_on_c, 0, 64, 0
2, 75120, Note_on_c, 0, 67, 59
2, 75120, Note_on_c, 0, 64, 50
2, 75240, Note_on_c, 0, 64, 0
2, 75240, Note_on_c, 0, 67, 0
2, 75360, Note_on_c, 0, 79, 73
2, 75360, Note_on_c, 0, 76, 62
2, 75480, Note_on_c, 0, 76, 0
2, 75480, Note_on_c, 0, 79, 0
2, 75600, Note_on_c, 0, 79, 66
2, 75600, Note_on_c, 0, 76, 56
2, 75720, Note_on_c, 0, 76, 0
2, 75720, Note_on_c, 0, 79, 0
2, 75840, Note_on_c, 0, 76, 74
2, 75840, Note_on_c, 0, 73, 62
2, 75960, Note_on_c, 0, 73, 0
2, 75960, Note_on_c, 0, 76, 0
2, 76080, Note_on_c, 0, 76, 68
2, 76080, Note_on_c, 0, 73, 57
2, 76200, Note_on_c, 0, 73, 0
2, 76200, Note_on_c, 0, 76, 0
2, 76320, Note_on_c, 0, 73, 74
2, 76320, Note_on_c, 0, 69, 62
2, 76440, Note_on_c, 0, 69, 0
2, 76440, Note_on_c, 0, 73, 0
2, 76560, Note_on_c, 0, 73, 69
2, 76560, Note_on_c, 0, 69, 58
2, 76680, Note_on_c, 0, 69, 0
2, 76680, Note_on_c, 0, 73, 0
2, 76800, Note_on_c, 0, 81, 76
2, 77280, Note_on_c, 0, 81, 0
2, 77280, Note_on_c, 0, 79, 76
2, 77400, Note_on_c, 0, 79, 0
2, 77400, Note_on_c, 0, 78, 70
2, 77520, Note_on_c, 0, 78, 0
2, 77520, Note_on_c, 0, 76, 70
2, 77640, Note_on_c, 0, 76, 0
2, 77640, Note_on_c, 0, 74, 70
2, 77760, Note_on_c, 0, 74, 0
2, 77760, Note_on_c, 0, 73, 76
2, 78000, Note_on_c, 0, 73, 0
2, 78000, Note_on_c, 0, 71, 69
2, 78240, Note_on_c, 0, 71, 0
2, 78240, Note_on_c, 0, 69, 73
2, 78360, Note_on_c, 0, 69, 0
2, 78360, Note_on_c, 0, 67, 64
2, 78480, Note_on_c, 0, 67, 0
2, 78480, Note_on_c, 0, 66, 64
2, 78600, Note_on_c, 0, 66, 0
2, 78600, Note_on_c, 0, 64, 64
2, 78720, Note_on_c, 0, 64, 0
2, 78720, Note_on_c, 0, 62, 72
2, 79200, Note_on_c, 0, 62, 0
2, 79200, Note_on_c, 0, 64, 59
2, 79320, Note_on_c, 0, 64, 0
2, 79320, Note_on_c, 0, 62, 49
2, 79440, Note_on_c, 0, 62, 0
2, 79440, Note_on_c, 0, 61, 49
2, 79560, Note_on_c, 0, 61, 0
2, 79560, Note_on_c, 0, 59, 49
2, 79680, Note_on_c, 0, 59, 0
2, 79680, Note_on_c, 0, 57, 57
2, 80160, Note_on_c, 0, 57, 0
2, 80160, Note_on_c, 0, 57, 54
2, 80280, Note_on_c, 0, 57, 0
2, 80280, Note_on_c, 0, 55, 48
2, 80400, Note_on_c, 0, 55, 0
2, 80400, Note_on_c, 0, 54, 45
2, 80520, Note_on_c, 0, 54, 0
2, 80520, Note_on_c, 0, 52, 43
2, 80640, Note_on_c, 0, 52, 0
2, 80640, Note_on_c, 0, 50, 48
2, 80760, Note_on_c, 0, 50, 0
2, 80880, Note_on_c, 0, 50, 45
2, 81000, Note_on_c, 0, 50, 0
2, 81120, Note_on_c, 0, 54, 48
2, 81240, Note_on_c, 0, 54, 0
2, 81360, Note_on_c, 0, 54, 39
2, 81480, Note_on_c, 0, 54, 0
2, 81600, Note_on_c, 0, 59, 48
2, 81720, Note_on_c, 0, 59, 0
2, 81840, Note_on_c, 0, 59, 37
2, 81960, Note_on_c, 0, 59, 0
2, 82080, Note_on_c, 0, 56, 42
2, 82200, Note_on_c, 0, 56, 0
2, 82320, Note_on_c, 0, 56, 35
2, 82440, Note_on_c, 0, 56, 0
2, 82560, Note_on_c, 0, 57, 48
2, 82680, Note_on_c, 0, 57, 0
2, 82800, Note_on_c, 0, 57, 37
2, 82920, Note_on_c, 0, 57, 0
2, 83040, Note_on_c, 0, 64, 40
2, 83160, Note_on_c, 0, 64, 0
2, 83280, Note_on_c, 0, 64, 33
2, 83400, Note_on_c, 0, 64, 0
2, 83520, Note_on_c, 0, 69, 42
2, 83640, Note_on_c, 0, 69, 0
2, 83760, Note_on_c, 0, 69, 31
2, 83880, Note_on_c, 0, 69, 0
2, 84000, Note_on_c, 0, 66, 39
2, 84120, Note_on_c, 0, 66, 0
2, 84240, Note_on_c, 0, 66, 32
2, 84360, Note_on_c, 0, 66, 0
2, 84480, Note_on_c, 0, 67, 40
2, 84600, Note_on_c, 0, 67, 0
2, 84720, Note_on_c, 0, 67, 35
2, 84840, Note_on_c, 0, 67, 0
2, 84960, Note_on_c, 0, 71, 45
2, 85080, Note_on_c, 0, 71, 0
2, 85200, Note_on_c, 0, 71, 51
2, 85320, Note_on_c, 0, 71, 0
2, 85440, Note_on_c, 0, 71, 68
2, 85680, Note_on_c, 0, 71, 0
2, 85680, Note_on_c, 0, 64, 53
2, 85920, Note_on_c, 0, 64, 0
2, 85920, Note_on_c, 0, 71, 59
2, 86160, Note_on_c, 0, 71, 0
2, 86160, Note_on_c, 0, 62, 48
2, 86400, Note_on_c, 0, 62, 0
2, 86400, Note_on_c, 0, 62, 57
2, 86640, Note_on_c, 0, 62, 0
2, 86640, Note_on_c, 0, 61, 48
2, 86880, Note_on_c, 0, 61, 0
2, 86880, Note_on_c, 0, 76, 64
2, 87000, Note_on_c, 0, 76, 0
2, 87120, Note_on_c, 0, 76, 56
2, 87240, Note_on_c, 0, 76, 0
2, 87360, Note_on_c, 0, 76, 68
2, 87600, Note_on_c, 0, 76, 0
2, 87600, Note_on_c, 0, 69, 53
2, 87840, Note_on_c, 0, 69, 0
2, 87840, Note_on_c, 0, 76, 65
2, 88080, Note_on_c, 0, 76, 0
2, 88080, Note_on_c, 0, 67, 53
2, 88320, Note_on_c, 0, 67, 0
2, 88320, Note_on_c, 0, 67, 69
2, 88560, Note_on_c, 0, 67, 0
2, 88560, Note_on_c, 0, 66, 59
2, 88800, Note_on_c, 0, 66, 0
2, 88800, Note_on_c, 0, 74, 64
2, 88920, Note_on_c, 0, 74, 0
2, 89040, Note_on_c, 0, 74, 56
2, 89160, Note_on_c, 0, 74, 0
2, 89280, Note_on_c, 0, 64, 61
2, 89400, Note_on_c, 0, 64, 0
2, 89520, Note_on_c, 0, 64, 53
2, 89640, Note_on_c, 0, 64, 0
2, 89760, Note_on_c, 0, 69, 57
2, 89880, Note_on_c, 0, 69, 0
2, 89880, Note_on_c, 0, 67, 51
2, 90000, Note_on_c, 0, 67, 0
2, 90000, Note_on_c, 0, 66, 46
2, 90120, Note_on_c, 0, 66, 0
2, 90120, Note_on_c, 0, 64, 41
2, 90240, Note_on_c, 0, 64, 0
2, 90240, Note_on_c, 0, 62, 35
2, 90360, Note_on_c, 0, 62, 0
2, 90360, Note_on_c, 0, 66, 31
2, 90480, Note_on_c, 0, 66, 0
2, 90480, Note_on_c, 0, 62, 35
2, 90600, Note_on_c, 0, 62, 0
2, 90600, Note_on_c, 0, 66, 31
2, 90720, Note_on_c, 0, 66, 0
2, 90720, Note_on_c, 0, 62, 35
2, 90840, Note_on_c, 0, 62, 0
2, 90840, Note_on_c, 0, 66, 31
2, 90960, Note_on_c, 0, 66, 0
2, 90960, Note_on_c, 0, 62, 35
2, 91080, Note_on_c, 0, 62, 0
2, 91080, Note_on_c, 0, 66, 31
2, 91200, Note_on_c, 0, 66, 0
2, 91200, Note_on_c, 0, 62, 35
2, 91320, Note_on_c, 0, 62, 0
2, 91320, Note_on_c, 0, 66, 31
2, 91440, Note_on_c, 0, 66, 0
2, 91440, Note_on_c, 0, 62, 35
2, 91560, Note_on_c, 0, 62, 0
2, 91560, Note_on_c, 0, 66, 31
2, 91680, Note_on_c, 0, 66, 0
2, 91680, Note_on_c, 0, 62, 35
2, 91800, Note_on_c, 0, 62, 0
2, 91800, Note_on_c, 0, 66, 31
2, 91920, Note_on_c, 0, 66, 0
2, 91920, Note_on_c, 0, 62, 35
2, 92040, Note_on_c, 0, 62, 0
2, 92040, Note_on_c, 0, 66, 31
2, 92160, Note_on_c, 0, 66, 0
2, 92160, Note_on_c, 0, 62, 35
2, 92280, Note_on_c, 0, 62, 0
2, 92280, Note_on_c, 0, 64, 31
2, 92400, Note_on_c, 0, 64, 0
2, 92400, Note_on_c, 0, 62, 35
2, 92520, Note_on_c, 0, 62, 0
2, 92520, Note_on_c, 0, 64, 31
2, 92640, Note_on_c, 0, 64, 0
2, 92640, Note_on_c, 0, 62, 35
2, 92760, Note_on_c, 0, 62, 0
2, 92760, Note_on_c, 0, 64, 31
2, 92880, Note_on_c, 0, 64, 0
2, 92880, Note_on_c, 0, 62, 35
2, 93000, Note_on_c, 0, 62, 0
2, 93000, Note_on_c, 0, 64, 31
2, 93120, Note_on_c, 0, 64, 0
2, 93120, Note_on_c, 0, 61, 35
2, 93240, Note_on_c, 0, 61, 0
2, 93240, Note_on_c, 0, 64, 31
2, 93360, Note_on_c, 0, 64, 0
2, 93360, Note_on_c, 0, 61, 35
2, 93480, Note_on_c, 0, 61, 0
2, 93480, Note_on_c, 0, 64, 31
2, 93600, Note_on_c, 0, 64, 0
2, 93600, Note_on_c, 0, 60, 35
2, 93720, Note_on_c, 0, 60, 0
2, 93720, Note_on_c, 0, 66, 31
2, 93840, Note_on_c, 0, 66, 0
2, 93840, Note_on_c, 0, 60, 35
2, 93960, Note_on_c, 0, 60, 0
2, 93960, Note_on_c, 0, 66, 31
2, 94080, Note_on_c, 0, 66, 0
2, 94080, Note_on_c, 0, 59, 40
2, 94200, Note_on_c, 0, 59, 0
2, 94200, Note_on_c, 0, 67, 37
2, 94320, Note_on_c, 0, 67, 0
2, 94320, Note_on_c, 0, 59, 41
2, 94440, Note_on_c, 0, 59, 0
2, 94440, Note_on_c, 0, 67, 37
2, 94560, Note_on_c, 0, 67, 0
2, 94560, Note_on_c, 0, 71, 46
2, 94680, Note_on_c, 0, 71, 0
2, 94680, Note_on_c, 0, 69, 53
2, 94800, Note_on_c, 0, 69, 0
2, 94800, Note_on_c, 0, 67, 55
2, 94920, Note_on_c, 0, 67, 0
2, 94920, Note_on_c, 0, 66, 53
2, 95040, Note_on_c, 0, 66, 0
2, 95040, Note_on_c, 0, 64, 59
2, 95160, Note_on_c, 0, 64, 0
2, 95160, Note_on_c, 0, 66, 53
2, 95280, Note_on_c, 0, 66, 0
2, 95280, Note_on_c, 0, 64, 53
2, 95400, Note_on_c, 0, 64, 0
2, 95400, Note_on_c, 0, 66, 53
2, 95520, Note_on_c, 0, 66, 0
2, 95520, Note_on_c, 0, 67, 61
2, 95640, Note_on_c, 0, 67, 0
2, 95640, Note_on_c, 0, 66, 55
2, 95760, Note_on_c, 0, 66, 0
2, 95760, Note_on_c, 0, 64, 54
2, 95880, Note_on_c, 0, 64, 0
2, 95880, Note_on_c, 0, 62, 54
2, 96000, Note_on_c, 0, 62, 0
2, 96000, Note_on_c, 0, 61, 61
2, 96120, Note_on_c, 0, 61, 0
2, 96120, Note_on_c, 0, 62, 53
2, 96240, Note_on_c, 0, 62, 0
2, 96240, Note_on_c, 0, 61, 54
2, 96360, Note_on_c, 0, 61, 0
2, 96360, Note_on_c, 0, 62, 54
2, 96480, Note_on_c, 0, 62, 0
2, 96480, Note_on_c, 0, 64, 62
2, 96600, Note_on_c, 0, 64, 0
2, 96600, Note_on_c, 0, 62, 54
2, 96720, Note_on_c, 0, 62, 0
2, 96720, Note_on_c, 0, 61, 54
2, 96840, Note_on_c, 0, 61, 0
2, 96840, Note_on_c, 0, 59, 54
2, 96960, Note_on_c, 0, 59, 0
2, 96960, Note_on_c, 0, 57, 62
2, 97080, Note_on_c, 0, 57, 0
2, 97080, Note_on_c, 0, 59, 62
2, 97200, Note_on_c, 0, 59, 0
2, 97200, Note_on_c, 0, 61, 65
2, 97320, Note_on_c, 0, 61, 0
2, 97320, Note_on_c, 0, 62, 68
2, 97440, Note_on_c, 0, 62, 0
2, 97440, Note_on_c, 0, 64, 73
2, 97560, Note_on_c, 0, 64, 0
2, 97560, Note_on_c, 0, 66, 75
2, 97680, Note_on_c, 0, 66, 0
2, 97680, Note_on_c, 0, 67, 79
2, 97800, Note_on_c, 0, 67, 0
2, 97800, Note_on_c, 0, 69, 83
2, 97920, Note_on_c, 0, 69, 0
2, 97920, Note_on_c, 0, 62, 97
2, 98040, Note_on_c, 0, 62, 0
2, 98040, Note_on_c, 0, 66, 70
2, 98160, Note_on_c, 0, 66, 0
2, 98160, Note_on_c, 0, 69, 78
2, 98280, Note_on_c, 0, 69, 0
2, 98280, Note_on_c, 0, 74, 74
2, 98400, Note_on_c, 0, 74, 0
2, 98400, Note_on_c, 0, 71, 84
2, 98520, Note_on_c, 0, 71, 0
2, 98640, Note_on_c, 0, 71, 79
2, 98760, Note_on_c, 0, 71, 0
2, 98880, Note_on_c, 0, 62, 88
2, 99000, Note_on_c, 0, 62, 0
2, 99120, Note_on_c, 0, 62, 74
2, 99240, Note_on_c, 0, 62, 0
2, 99360, Note_on_c, 0, 66, 78
2, 99480, Note_on_c, 0, 66, 0
2, 99480, Note_on_c, 0, 64, 69
2, 99600, Note_on_c, 0, 64, 0
2, 99600, Note_on_c, 0, 62, 69
2, 99720, Note_on_c, 0, 62, 0
2, 99720, Note_on_c, 0, 64, 69
2, 99840, Note_on_c, 0, 64, 0
2, 99840, Note_on_c, 0, 62, 97
2, 99960, Note_on_c, 0, 62, 0
2, 99960, Note_on_c, 0, 66, 70
2, 100080, Note_on_c, 0, 66, 0
2, 100080, Note_on_c, 0, 69, 78
2, 100200, Note_on_c, 0, 69, 0
2, 100200, Note_on_c, 0, 74, 74
2, 100320, Note_on_c, 0, 74, 0
2, 100320, Note_on_c, 0, 71, 84
2, 100440, Note_on_c, 0, 71, 0
2, 100560, Note_on_c, 0, 71, 79
2, 100680, Note_on_c, 0, 71, 0
2, 100800, Note_on_c, 0, 62, 88
2, 100920, Note_on_c, 0, 62, 0
2, 101040, Note_on_c, 0, 62, 74
2, 101160, Note_on_c, 0, 62, 0
2, 101280, Note_on_c, 0, 66, 69
2, 101400, Note_on_c, 0, 66, 0
2, 101400, Note_on_c, 0, 64, 52
2, 101520, Note_on_c, 0, 64, 0
2, 101520, Note_on_c, 0, 62, 58
2, 101640, Note_on_c, 0, 62, 0
2, 101640, Note_on_c, 0, 64, 49
2, 101760, Note_on_c, 0, 64, 0
2, 101760, Note_on_c, 0, 62, 61
2, 101880, Note_on_c, 0, 62, 0
2, 102240, Note_on_c, 0, 62, 43
2, 102360, Note_on_c, 0, 62, 0
2, 102360, Note_on_c, 0, 64, 48
2, 102480, Note_on_c, 0, 64, 0
2, 102480, Note_on_c, 0, 66, 50
2, 102600, Note_on_c, 0, 66, 0
2, 102600, Note_on_c, 0, 67, 52
2, 102720, Note_on_c, 0, 67, 0
2, 102720, Note_on_c, 0, 69, 54
2, 102960, Note_on_c, 0, 69, 0
2, 103200, Note_on_c, 0, 66, 43
2, 103320, Note_on_c, 0, 66, 0
2, 103320, Note_on_c, 0, 67, 48
2, 103440, Note_on_c, 0, 67, 0
2, 103440, Note_on_c, 0, 69, 50
2, 103560, Note_on_c, 0, 69, 0
2, 103560, Note_on_c, 0, 71, 52
2, 103680, Note_on_c, 0, 71, 0
2, 103680, Note_on_c, 0, 72, 54
2, 103920, Note_on_c, 0, 72, 0
2, 104160, Note_on_c, 0, 74, 32
2, 104280, Note_on_c, 0, 74, 0
2, 104280, Note_on_c, 0, 76, 36
2, 104400, Note_on_c, 0, 76, 0
2, 104400, Note_on_c, 0, 78, 37
2, 104520, Note_on_c, 0, 78, 0
2, 104520, Note_on_c, 0, 79, 39
2, 104640, Note_on_c, 0, 79, 0
2, 104640, Note_on_c, 0, 81, 40
2, 104880, Note_on_c, 0, 81, 0
2, 105120, Note_on_c, 0, 78, 32
2, 105240, Note_on_c, 0, 78, 0
2, 105240, Note_on_c, 0, 79, 36
2, 105360, Note_on_c, 0, 79, 0
2, 105360, Note_on_c, 0, 81, 37
2, 105480, Note_on_c, 0, 81, 0
2, 105480, Note_on_c, 0, 83, 39
2, 105600, Note_on_c, 0, 83, 0
2, 105600, Note_on_c, 0, 84, 40
2, 105840, Note_on_c, 0, 84, 0
2, 106080, Note_on_c, 0, 78, 32
2, 106200, Note_on_c, 0, 78, 0
2, 106200, Note_on_c, 0, 79, 36
2, 106320, Note_on_c, 0, 79, 0
2, 106320, Note_on_c, 0, 81, 37
2, 106440, Note_on_c, 0, 81, 0
2, 106440, Note_on_c, 0, 83, 39
2, 106560, Note_on_c, 0, 83, 0
2, 106560, Note_on_c, 0, 84, 40
2, 106800, Note_on_c, 0, 84, 0
2, 107040, Note_on_c, 0, 84, 39
2, 107160, Note_on_c, 0, 84, 0
2, 107160, Note_on_c, 0, 86, 32
2, 107280, Note_on_c, 0, 86, 0
2, 107280, Note_on_c, 0, 88, 37
2, 107400, Note_on_c, 0, 88, 0
2, 107400, Note_on_c, 0, 86, 32
2, 107520, Note_on_c, 0, 86, 0
2, 107520, Note_on_c, 0, 84, 43
2, 108000, Note_on_c, 0, 84, 0
2, 108960, Note_on_c, 0, 79, 48
2, 109080, Note_on_c, 0, 79, 0
2, 109080, Note_on_c, 0, 81, 54
2, 109200, Note_on_c, 0, 81, 0
2, 109200, Note_on_c, 0, 83, 55
2, 109320, Note_on_c, 0, 83, 0
2, 109320, Note_on_c, 0, 84, 60
2, 109440, Note_on_c, 0, 84, 0
2, 109440, Note_on_c, 0, 86, 63
2, 109920, Note_on_c, 0, 86, 0
2, 109920, Note_on_c, 0, 84, 55
2, 110040, Note_on_c, 0, 84, 0
2, 110040, Note_on_c, 0, 83, 51
2, 110160, Note_on_c, 0, 83, 0
2, 110160, Note_on_c, 0, 81, 51
2, 110280, Note_on_c, 0, 81, 0
2, 110280, Note_on_c, 0, 79, 51
2, 110400, Note_on_c, 0, 79, 0
2, 110400, Note_on_c, 0, 78, 58
2, 110880, Note_on_c, 0, 78, 0
2, 110880, Note_on_c, 0, 79, 55
2, 111000, Note_on_c, 0, 79, 0
2, 111000, Note_on_c, 0, 78, 51
2, 111120, Note_on_c, 0, 78, 0
2, 111120, Note_on_c, 0, 76, 53
2, 111240, Note_on_c, 0, 76, 0
2, 111240, Note_on_c, 0, 74, 51
2, 111360, Note_on_c, 0, 74, 0
2, 111360, Note_on_c, 0, 79, 55
2, 111480, Note_on_c, 0, 79, 0
2, 111600, Note_on_c, 0, 79, 50
2, 111720, Note_on_c, 0, 79, 0
2, 111840, Note_on_c, 0, 81, 55
2, 111960, Note_on_c, 0, 81, 0
2, 111960, Note_on_c, 0, 79, 50
2, 112080, Note_on_c, 0, 79, 0
2, 112080, Note_on_c, 0, 78, 51
2, 112200, Note_on_c, 0, 78, 0
2, 112200, Note_on_c, 0, 79, 47
2, 112320, Note_on_c, 0, 79, 0
2, 112320, Note_on_c, 0, 81, 55
2, 112800, Note_on_c, 0, 81, 0
2, 112800, Note_on_c, 0, 81, 48
2, 112920, Note_on_c, 0, 81, 0
2, 112920, Note_on_c, 0, 83, 54
2, 113040, Note_on_c, 0, 83, 0
2, 113040, Note_on_c, 0, 84, 58
2, 113160, Note_on_c, 0, 84, 0
2, 113160, Note_on_c, 0, 86, 62
2, 113280, Note_on_c, 0, 86, 0
2, 113280, Note_on_c, 0, 88, 65
2, 113760, Note_on_c, 0, 88, 0
2, 113760, Note_on_c, 0, 86, 55
2, 113880, Note_on_c, 0, 86, 0
2, 113880, Note_on_c, 0, 84, 51
2, 114000, Note_on_c, 0, 84, 0
2, 114000, Note_on_c, 0, 83, 51
2, 114120, Note_on_c, 0, 83, 0
2, 114120, Note_on_c, 0, 81, 51
2, 114240, Note_on_c, 0, 81, 0
2, 114240, Note_on_c, 0, 86, 58
2, 114330, Note_on_c, 0, 86, 0
2, 114480, Note_on_c, 0, 86, 54
2, 114570, Note_on_c, 0, 86, 0
2, 114720, Note_on_c, 0, 84, 55
2, 114840, Note_on_c, 0, 84, 0
2, 114840, Note_on_c, 0, 83, 51
2, 114960, Note_on_c, 0, 83, 0
2, 114960, Note_on_c, 0, 81, 53
2, 115080, Note_on_c, 0, 81, 0
2, 115080, Note_on_c, 0, 79, 51
2, 115200, Note_on_c, 0, 79, 0
2, 115200, Note_on_c, 0, 84, 55
2, 115290, Note_on_c, 0, 84, 0
2, 115440, Note_on_c, 0, 84, 50
2, 115530, Note_on_c, 0, 84, 0
2, 115680, Note_on_c, 0, 83, 55
2, 115800, Note_on_c, 0, 83, 0
2, 115800, Note_on_c, 0, 81, 50
2, 115920, Note_on_c, 0, 81, 0
2, 115920, Note_on_c, 0, 79, 51
2, 116040, Note_on_c, 0, 79, 0
2, 116040, Note_on_c, 0, 78, 47
2, 116160, Note_on_c, 0, 78, 0
2, 116160, Note_on_c, 0, 79, 55
2, 116400, Note_on_c, 0, 79, 0
2, 116640, Note_on_c, 0, 67, 60
2, 116760, Note_on_c, 0, 67, 0
2, 116760, Note_on_c, 0, 69, 67
2, 116880, Note_on_c, 0, 69, 0
2, 116880, Note_on_c, 0, 71, 70
2, 117000, Note_on_c, 0, 71, 0
2, 117000, Note_on_c, 0, 72, 76
2, 117120, Note_on_c, 0, 72, 0
2, 117120, Note_on_c, 0, 74, 80
2, 117600, Note_on_c, 0, 74, 0
2, 117600, Note_on_c, 0, 72, 68
2, 117720, Note_on_c, 0, 72, 0
2, 117720, Note_on_c, 0, 71, 63
2, 117840, Note_on_c, 0, 71, 0
2, 117840, Note_on_c, 0, 69, 63
2, 117960, Note_on_c, 0, 69, 0
2, 117960, Note_on_c, 0, 67, 63
2, 118080, Note_on_c, 0, 67, 0
2, 118080, Note_on_c, 0, 66, 72
2, 118560, Note_on_c, 0, 66, 0
2, 118560, Note_on_c, 0, 67, 68
2, 118680, Note_on_c, 0, 67, 0
2, 118680, Note_on_c, 0, 66, 63
2, 118800, Note_on_c, 0, 66, 0
2, 118800, Note_on_c, 0, 64, 66
2, 118920, Note_on_c, 0, 64, 0
2, 118920, Note_on_c, 0, 62, 63
2, 119040, Note_on_c, 0, 62, 0
2, 119040, Note_on_c, 0, 67, 68
2, 119160, Note_on_c, 0, 67, 0
2, 119280, Note_on_c, 0, 67, 62
2, 119400, Note_on_c, 0, 67, 0
2, 119520, Note_on_c, 0, 69, 68
2, 119640, Note_on_c, 0, 69, 0
2, 119640, Note_on_c, 0, 67, 62
2, 119760, Note_on_c, 0, 67, 0
2, 119760, Note_on_c, 0, 66, 63
2, 119880, Note_on_c, 0, 66, 0
2, 119880, Note_on_c, 0, 67, 58
2, 120000, Note_on_c, 0, 67, 0
2, 120000, Note_on_c, 0, 69, 68
2, 120480, Note_on_c, 0, 69, 0
2, 120480, Note_on_c, 0, 69, 60
2, 120600, Note_on_c, 0, 69, 0
2, 120600, Note_on_c, 0, 71, 67
2, 120720, Note_on_c, 0, 71, 0
2, 120720, Note_on_c, 0, 72, 70
2, 120840, Note_on_c, 0, 72, 0
2, 120840, Note_on_c, 0, 74, 73
2, 120960, Note_on_c, 0, 74, 0
2, 120960, Note_on_c, 0, 76, 80
2, 121440, Note_on_c, 0, 76, 0
2, 121440, Note_on_c, 0, 74, 68
2, 121560, Note_on_c, 0, 74, 0
2, 121560, Note_on_c, 0, 72, 63
2, 121680, Note_on_c, 0, 72, 0
2, 121680, Note_on_c, 0, 71, 63
2, 121800, Note_on_c, 0, 71, 0
2, 121800, Note_on_c, 0, 69, 63
2, 121920, Note_on_c, 0, 69, 0
2, 121920, Note_on_c, 0, 74, 72
2, 122010, Note_on_c, 0, 74, 0
2, 122160, Note_on_c, 0, 74, 58
2, 122250, Note_on_c, 0, 74, 0
2, 122400, Note_on_c, 0, 72, 68
2, 122520, Note_on_c, 0, 72, 0
2, 122520, Note_on_c, 0, 71, 63
2, 122640, Note_on_c, 0, 71, 0
2, 122640, Note_on_c, 0, 69, 66
2, 122760, Note_on_c, 0, 69, 0
2, 122760, Note_on_c, 0, 67, 63
2, 122880, Note_on_c, 0, 67, 0
2, 122880, Note_on_c, 0, 72, 68
2, 122970, Note_on_c, 0, 72, 0
2, 123120, Note_on_c, 0, 72, 57
2, 123210, Note_on_c, 0, 72, 0
2, 123360, Note_on_c, 0, 71, 68
2, 123480, Note_on_c, 0, 71, 0
2, 123480, Note_on_c, 0, 69, 62
2, 123600, Note_on_c, 0, 69, 0
2, 123600, Note_on_c, 0, 67, 63
2, 123720, Note_on_c, 0, 67, 0
2, 123720, Note_on_c, 0, 66, 58
2, 123840, Note_on_c, 0, 66, 0
2, 123840, Note_on_c, 0, 67, 68
2, 123930, Note_on_c, 0, 67, 0
2, 124080, Note_on_c, 0, 67, 57
2, 124170, Note_on_c, 0, 67, 0
2, 124320, Note_on_c, 0, 79, 54
2, 124440, Note_on_c, 0, 79, 0
2, 124440, Note_on_c, 0, 78, 41
2, 124560, Note_on_c, 0, 78, 0
2, 124560, Note_on_c, 0, 79, 43
2, 124680, Note_on_c, 0, 79, 0
2, 124680, Note_on_c, 0, 76, 40
2, 124800, Note_on_c, 0, 76, 0
2, 124800, Note_on_c, 0, 73, 48
2, 124920, Note_on_c, 0, 73, 0
2, 125040, Note_on_c, 0, 73, 43
2, 125160, Note_on_c, 0, 73, 0
2, 125280, Note_on_c, 0, 74, 48
2, 125400, Note_on_c, 0, 74, 0
2, 125400, Note_on_c, 0, 73, 40
2, 125520, Note_on_c, 0, 73, 0
2, 125520, Note_on_c, 0, 71, 42
2, 125640, Note_on_c, 0, 71, 0
2, 125640, Note_on_c, 0, 69, 40
2, 125760, Note_on_c, 0, 69, 0
2, 125760, Note_on_c, 0, 74, 48
2, 125880, Note_on_c, 0, 74, 0
2, 126000, Note_on_c, 0, 74, 45
2, 126120, Note_on_c, 0, 74, 0
2, 126240, Note_on_c, 0, 81, 53
2, 126360, Note_on_c, 0, 81, 0
2, 126360, Note_on_c, 0, 78, 41
2, 126480, Note_on_c, 0, 78, 0
2, 126480, Note_on_c, 0, 81, 43
2, 126600, Note_on_c, 0, 81, 0
2, 126600, Note_on_c, 0, 74, 40
2, 126720, Note_on_c, 0, 74, 0
2, 126720, Note_on_c, 0, 73, 48
2, 126840, Note_on_c, 0, 73, 0
2, 126960, Note_on_c, 0, 73, 43
2, 127080, Note_on_c, 0, 73, 0
2, 127200, Note_on_c, 0, 74, 48
2, 127320, Note_on_c, 0, 74, 0
2, 127320, Note_on_c, 0, 73, 40
2, 127440, Note_on_c, 0, 73, 0
2, 127440, Note_on_c, 0, 71, 42
2, 127560, Note_on_c, 0, 71, 0
2, 127560, Note_on_c, 0, 73, 40
2, 127680, Note_on_c, 0, 73, 0
2, 127680, Note_on_c, 0, 74, 48
2, 127920, Note_on_c, 0, 74, 0
2, 127920, Note_on_c, 0, 76, 46
2, 128040, Note_on_c, 0, 76, 0
2, 128040, Note_on_c, 0, 78, 49
2, 128160, Note_on_c, 0, 78, 0
2, 128160, Note_on_c, 0, 79, 56
2, 128280, Note_on_c, 0, 79, 0
2, 128280, Note_on_c, 0, 78, 41
2, 128400, Note_on_c, 0, 78, 0
2, 128400, Note_on_c, 0, 79, 43
2, 128520, Note_on_c, 0, 79, 0
2, 128520, Note_on_c, 0, 76, 40
2, 128640, Note_on_c, 0, 76, 0
2, 128640, Note_on_c, 0, 73, 48
2, 128760, Note_on_c, 0, 73, 0
2, 128880, Note_on_c, 0, 73, 43
2, 129000, Note_on_c, 0, 73, 0
2, 129120, Note_on_c, 0, 74, 48
2, 129240, Note_on_c, 0, 74, 0
2, 129240, Note_on_c, 0, 73, 40
2, 129360, Note_on_c, 0, 73, 0
2, 129360, Note_on_c, 0, 71, 42
2, 129480, Note_on_c, 0, 71, 0
2, 129480, Note_on_c, 0, 73, 40
2, 129600, Note_on_c, 0, 73, 0
2, 129600, Note_on_c, 0, 74, 54
2, 129720, Note_on_c, 0, 74, 0
2, 129720, Note_on_c, 0, 76, 52
2, 129840, Note_on_c, 0, 76, 0
2, 129840, Note_on_c, 0, 78, 54
2, 129960, Note_on_c, 0, 78, 0
2, 129960, Note_on_c, 0, 79, 55
2, 130080, Note_on_c, 0, 79, 0
2, 130080, Note_on_c, 0, 81, 57
2, 130200, Note_on_c, 0, 81, 0
2, 130200, Note_on_c, 0, 83, 60
2, 130320, Note_on_c, 0, 83, 0
2, 130320, Note_on_c, 0, 85, 62
2, 130440, Note_on_c, 0, 85, 0
2, 130440, Note_on_c, 0, 86, 63
2, 130560, Note_on_c, 0, 86, 0
2, 130800, Note_on_c, 0, 79, 58
2, 130920, Note_on_c, 0, 79, 0
2, 130920, Note_on_c, 0, 76, 58
2, 131040, Note_on_c, 0, 76, 0
2, 131040, Note_on_c, 0, 73, 65
2, 131160, Note_on_c, 0, 73, 0
2, 131160, Note_on_c, 0, 76, 58
2, 131280, Note_on_c, 0, 76, 0
2, 131280, Note_on_c, 0, 73, 58
2, 131400, Note_on_c, 0, 73, 0
2, 131400, Note_on_c, 0, 76, 58
2, 131520, Note_on_c, 0, 76, 0
2, 131520, Note_on_c, 0, 74, 68
2, 131640, Note_on_c, 0, 74, 0
2, 131640, Note_on_c, 0, 78, 58
2, 131760, Note_on_c, 0, 78, 0
2, 131760, Note_on_c, 0, 81, 58
2, 131880, Note_on_c, 0, 81, 0
2, 131880, Note_on_c, 0, 78, 58
2, 132000, Note_on_c, 0, 78, 0
2, 132000, Note_on_c, 0, 81, 64
2, 132120, Note_on_c, 0, 81, 0
2, 132120, Note_on_c, 0, 78, 58
2, 132240, Note_on_c, 0, 78, 0
2, 132240, Note_on_c, 0, 81, 58
2, 132360, Note_on_c, 0, 81, 0
2, 132360, Note_on_c, 0, 78, 58
2, 132480, Note_on_c, 0, 78, 0
2, 132480, Note_on_c, 0, 76, 68
2, 132600, Note_on_c, 0, 76, 0
2, 132600, Note_on_c, 0, 79, 57
2, 132720, Note_on_c, 0, 79, 0
2, 132720, Note_on_c, 0, 83, 57
2, 132840, Note_on_c, 0, 83, 0
2, 132840, Note_on_c, 0, 79, 57
2, 132960, Note_on_c, 0, 79, 0
2, 132960, Note_on_c, 0, 83, 64
2, 133080, Note_on_c, 0, 83, 0
2, 133080, Note_on_c, 0, 79, 57
2, 133200, Note_on_c, 0, 79, 0
2, 133200, Note_on_c, 0, 83, 57
2, 133320, Note_on_c, 0, 83, 0
2, 133320, Note_on_c, 0, 79, 57
2, 133440, Note_on_c, 0, 79, 0
2, 133440, Note_on_c, 0, 78, 65
2, 133560, Note_on_c, 0, 78, 0
2, 133560, Note_on_c, 0, 81, 54
2, 133680, Note_on_c, 0, 81, 0
2, 133680, Note_on_c, 0, 84, 54
2, 133800, Note_on_c, 0, 84, 0
2, 133800, Note_on_c, 0, 81, 54
2, 133920, Note_on_c, 0, 81, 0
2, 133920, Note_on_c, 0, 84, 62
2, 134040, Note_on_c, 0, 84, 0
2, 134040, Note_on_c, 0, 81, 53
2, 134160, Note_on_c, 0, 81, 0
2, 134160, Note_on_c, 0, 84, 53
2, 134280, Note_on_c, 0, 84, 0
2, 134280, Note_on_c, 0, 81, 53
2, 134400, Note_on_c, 0, 81, 0
2, 134400, Note_on_c, 0, 78, 55
2, 134520, Note_on_c, 0, 78, 0
2, 134520, Note_on_c, 0, 81, 45
2, 134640, Note_on_c, 0, 81, 0
2, 134640, Note_on_c, 0, 84, 44
2, 134760, Note_on_c, 0, 84, 0
2, 134760, Note_on_c, 0, 81, 43
2, 134880, Note_on_c, 0, 81, 0
2, 134880, Note_on_c, 0, 78, 49
2, 135000, Note_on_c, 0, 78, 0
2, 135000, Note_on_c, 0, 81, 42
2, 135120, Note_on_c, 0, 81, 0
2, 135120, Note_on_c, 0, 84, 41
2, 135240, Note_on_c, 0, 84, 0
2, 135240, Note_on_c, 0, 81, 41
2, 135360, Note_on_c, 0, 81, 0
2, 135360, Note_on_c, 0, 78, 51
2, 135480, Note_on_c, 0, 78, 0
2, 135480, Note_on_c, 0, 74, 42
2, 135600, Note_on_c, 0, 74, 0
2, 135600, Note_on_c, 0, 76, 47
2, 135720, Note_on_c, 0, 76, 0
2, 135720, Note_on_c, 0, 78, 48
2, 135840, Note_on_c, 0, 78, 0
2, 135840, Note_on_c, 0, 79, 50
2, 135960, Note_on_c, 0, 79, 0
2, 135960, Note_on_c, 0, 81, 54
2, 136080, Note_on_c, 0, 81, 0
2, 136080, Note_on_c, 0, 83, 56
2, 136200, Note_on_c, 0, 83, 0
2, 136200, Note_on_c, 0, 84, 61
2, 136320, Note_on_c, 0, 84, 0
2, 136320, Note_on_c, 0, 86, 68
2, 136800, Note_on_c, 0, 86, 0
2, 136800, Note_on_c, 0, 84, 55
2, 136920, Note_on_c, 0, 84, 0
2, 136920, Note_on_c, 0, 83, 51
2, 137040, Note_on_c, 0, 83, 0
2, 137040, Note_on_c, 0, 81, 51
2, 137160, Note_on_c, 0, 81, 0
2, 137160, Note_on_c, 0, 79, 51
2, 137280, Note_on_c, 0, 79, 0
2, 137280, Note_on_c, 0, 78, 58
2, 137760, Note_on_c, 0, 78, 0
2, 137760, Note_on_c, 0, 79, 55
2, 137880, Note_on_c, 0, 79, 0
2, 137880, Note_on_c, 0, 78, 51
2, 138000, Note_on_c, 0, 78, 0
2, 138000, Note_on_c, 0, 76, 53
2, 138120, Note_on_c, 0, 76, 0
2, 138120, Note_on_c, 0, 74, 51
2, 138240, Note_on_c, 0, 74, 0
2, 138240, Note_on_c, 0, 79, 55
2, 138360, Note_on_c, 0, 79, 0
2, 138480, Note_on_c, 0, 79, 50
2, 138600, Note_on_c, 0, 79, 0
2, 138720, Note_on_c, 0, 81, 55
2, 138840, Note_on_c, 0, 81, 0
2, 138840, Note_on_c, 0, 79, 50
2, 138960, Note_on_c, 0, 79, 0
2, 138960, Note_on_c, 0, 78, 51
2, 139080, Note_on_c, 0, 78, 0
2, 139080, Note_on_c, 0, 79, 47
2, 139200, Note_on_c, 0, 79, 0
2, 139200, Note_on_c, 0, 81, 55
2, 139680, Note_on_c, 0, 81, 0
2, 139680, Note_on_c, 0, 81, 48
2, 139800, Note_on_c, 0, 81, 0
2, 139800, Note_on_c, 0, 83, 54
2, 139920, Note_on_c, 0, 83, 0
2, 139920, Note_on_c, 0, 84, 56
2, 140040, Note_on_c, 0, 84, 0
2, 140040, Note_on_c, 0, 86, 60
2, 140160, Note_on_c, 0, 86, 0
2, 140160, Note_on_c, 0, 88, 65
2, 140640, Note_on_c, 0, 88, 0
2, 140640, Note_on_c, 0, 86, 55
2, 140760, Note_on_c, 0, 86, 0
2, 140760, Note_on_c, 0, 84, 51
2, 140880, Note_on_c, 0, 84, 0
2, 140880, Note_on_c, 0, 83, 51
2, 141000, Note_on_c, 0, 83, 0
2, 141000, Note_on_c, 0, 81, 51
2, 141120, Note_on_c, 0, 81, 0
2, 141120, Note_on_c, 0, 86, 58
2, 141210, Note_on_c, 0, 86, 0
2, 141360, Note_on_c, 0, 86, 58
2, 141450, Note_on_c, 0, 86, 0
2, 141600, Note_on_c, 0, 84, 55
2, 141720, Note_on_c, 0, 84, 0
2, 141720, Note_on_c, 0, 83, 51
2, 141840, Note_on_c, 0, 83, 0
2, 141840, Note_on_c, 0, 81, 53
2, 141960, Note_on_c, 0, 81, 0
2, 141960, Note_on_c, 0, 79, 51
2, 142080, Note_on_c, 0, 79, 0
2, 142080, Note_on_c, 0, 84, 55
2, 142170, Note_on_c, 0, 84, 0
2, 142320, Note_on_c, 0, 84, 50
2, 142410, Note_on_c, 0, 84, 0
2, 142560, Note_on_c, 0, 83, 55
2, 142680, Note_on_c, 0, 83, 0
2, 142680, Note_on_c, 0, 81, 50
2, 142800, Note_on_c, 0, 81, 0
2, 142800, Note_on_c, 0, 79, 51
2, 142920, Note_on_c, 0, 79, 0
2, 142920, Note_on_c, 0, 78, 47
2, 143040, Note_on_c, 0, 78, 0
2, 143040, Note_on_c, 0, 79, 55
2, 143280, Note_on_c, 0, 79, 0
2, 143520, Note_on_c, 0, 67, 60
2, 143640, Note_on_c, 0, 67, 0
2, 143640, Note_on_c, 0, 69, 67
2, 143760, Note_on_c, 0, 69, 0
2, 143760, Note_on_c, 0, 71, 70
2, 143880, Note_on_c, 0, 71, 0
2, 143880, Note_on_c, 0, 72, 72
2, 144000, Note_on_c, 0, 72, 0
2, 144000, Note_on_c, 0, 74, 76
2, 144480, Note_on_c, 0, 74, 0
2, 144480, Note_on_c, 0, 72, 68
2, 144600, Note_on_c, 0, 72, 0
2, 144600, Note_on_c, 0, 71, 63
2, 144720, Note_on_c, 0, 71, 0
2, 144720, Note_on_c, 0, 69, 63
2, 144840, Note_on_c, 0, 69, 0
2, 144840, Note_on_c, 0, 67, 63
2, 144960, Note_on_c, 0, 67, 0
2, 144960, Note_on_c, 0, 66, 72
2, 145440, Note_on_c, 0, 66, 0
2, 145440, Note_on_c, 0, 67, 68
2, 145560, Note_on_c, 0, 67, 0
2, 145560, Note_on_c, 0, 66, 63
2, 145680, Note_on_c, 0, 66, 0
2, 145680, Note_on_c, 0, 64, 66
2, 145800, Note_on_c, 0, 64, 0
2, 145800, Note_on_c, 0, 62, 63
2, 145920, Note_on_c, 0, 62, 0
2, 145920, Note_on_c, 0, 67, 68
2, 146040, Note_on_c, 0, 67, 0
2, 146160, Note_on_c, 0, 67, 62
2, 146280, Note_on_c, 0, 67, 0
2, 146400, Note_on_c, 0, 69, 68
2, 146520, Note_on_c, 0, 69, 0
2, 146520, Note_on_c, 0, 67, 62
2, 146640, Note_on_c, 0, 67, 0
2, 146640, Note_on_c, 0, 66, 63
2, 146760, Note_on_c, 0, 66, 0
2, 146760, Note_on_c, 0, 67, 58
2, 146880, Note_on_c, 0, 67, 0
2, 146880, Note_on_c, 0, 69, 68
2, 147360, Note_on_c, 0, 69, 0
2, 147360, Note_on_c, 0, 69, 60
2, 147480, Note_on_c, 0, 69, 0
2, 147480, Note_on_c, 0, 71, 67
2, 147600, Note_on_c, 0, 71, 0
2, 147600, Note_on_c, 0, 72, 70
2, 147720, Note_on_c, 0, 72, 0
2, 147720, Note_on_c, 0, 74, 73
2, 147840, Note_on_c, 0, 74, 0
2, 147840, Note_on_c, 0, 76, 80
2, 148320, Note_on_c, 0, 76, 0
2, 148320, Note_on_c, 0, 74, 68
2, 148440, Note_on_c, 0, 74, 0
2, 148440, Note_on_c, 0, 72, 63
2, 148560, Note_on_c, 0, 72, 0
2, 148560, Note_on_c, 0, 71, 63
2, 148680, Note_on_c, 0, 71, 0
2, 148680, Note_on_c, 0, 69, 63
2, 148800, Note_on_c, 0, 69, 0
2, 148800, Note_on_c, 0, 74, 72
2, 148890, Note_on_c, 0, 74, 0
2, 149040, Note_on_c, 0, 74, 62
2, 149130, Note_on_c, 0, 74, 0
2, 149280, Note_on_c, 0, 72, 68
2, 149400, Note_on_c, 0, 72, 0
2, 149400, Note_on_c, 0, 71, 63
2, 149520, Note_on_c, 0, 71, 0
2, 149520, Note_on_c, 0, 69, 66
2, 149640, Note_on_c, 0, 69, 0
2, 149640, Note_on_c, 0, 67, 63
2, 149760, Note_on_c, 0, 67, 0
2, 149760, Note_on_c, 0, 72, 68
2, 149850, Note_on_c, 0, 72, 0
2, 150000, Note_on_c, 0, 72, 57
2, 150090, Note_on_c, 0, 72, 0
2, 150240, Note_on_c, 0, 71, 68
2, 150360, Note_on_c, 0, 71, 0
2, 150360, Note_on_c, 0, 69, 62
2, 150480, Note_on_c, 0, 69, 0
2, 150480, Note_on_c, 0, 67, 63
2, 150600, Note_on_c, 0, 67, 0
2, 150600, Note_on_c, 0, 66, 58
2, 150720, Note_on_c, 0, 66, 0
2, 150720, Note_on_c, 0, 67, 68
2, 150960, Note_on_c, 0, 67, 0
2, 151920, Note_on_c, 0, 76, 46
2, 151920, Note_on_c, 0, 72, 39
2, 152010, Note_on_c, 0, 72, 0
2, 152010, Note_on_c, 0, 76, 0
2, 152160, Note_on_c, 0, 71, 45
2, 152160, Note_on_c, 0, 74, 53
2, 152250, Note_on_c, 0, 74, 0
2, 152250, Note_on_c, 0, 71, 0
2, 152400, Note_on_c, 0, 76, 49
2, 152400, Note_on_c, 0, 72, 41
2, 152490, Note_on_c, 0, 72, 0
2, 152490, Note_on_c, 0, 76, 0
2, 152640, Note_on_c, 0, 71, 45
2, 152640, Note_on_c, 0, 74, 54
2, 152760, Note_on_c, 0, 74, 0
2, 152760, Note_on_c, 0, 71, 0
2, 153840, Note_on_c, 0, 76, 50
2, 153840, Note_on_c, 0, 72, 42
2, 153930, Note_on_c, 0, 72, 0
2, 153930, Note_on_c, 0, 76, 0
2, 154080, Note_on_c, 0, 71, 49
2, 154080, Note_on_c, 0, 74, 58
2, 154170, Note_on_c, 0, 74, 0
2, 154170, Note_on_c, 0, 71, 0
2, 154320, Note_on_c, 0, 76, 53
2, 154320, Note_on_c, 0, 72, 45
2, 154410, Note_on_c, 0, 72, 0
2, 154410, Note_on_c, 0, 76, 0
2, 154560, Note_on_c, 0, 71, 49
2, 154560, Note_on_c, 0, 74, 59
2, 154680, Note_on_c, 0, 74, 0
2, 154680, Note_on_c, 0, 71, 0
2, 155760, Note_on_c, 0, 67, 56
2, 155760, Note_on_c, 0, 76, 64
2, 155880, Note_on_c, 0, 76, 0
2, 155880, Note_on_c, 0, 67, 0
2, 156000, Note_on_c, 0, 74, 74
2, 156000, Note_on_c, 0, 67, 65
2, 156120, Note_on_c, 0, 67, 0
2, 156120, Note_on_c, 0, 74, 0
2, 156240, Note_on_c, 0, 67, 57
2, 156240, Note_on_c, 0, 76, 65
2, 156360, Note_on_c, 0, 76, 0
2, 156360, Note_on_c, 0, 67, 0
2, 156480, Note_on_c, 0, 74, 74
2, 156480, Note_on_c, 0, 67, 65
2, 156600, Note_on_c, 0, 67, 0
2, 156600, Note_on_c, 0, 74, 0
2, 156720, Note_on_c, 0, 67, 55
2, 156720, Note_on_c, 0, 74, 63
2, 156840, Note_on_c, 0, 74, 0
2, 156840, Note_on_c, 0, 67, 0
2, 156960, Note_on_c, 0, 72, 72
2, 156960, Note_on_c, 0, 69, 63
2, 157080, Note_on_c, 0, 69, 0
2, 157080, Note_on_c, 0, 72, 0
2, 157200, Note_on_c, 0, 72, 62
2, 157200, Note_on_c, 0, 69, 54
2, 157320, Note_on_c, 0, 69, 0
2, 157320, Note_on_c, 0, 72, 0
2, 157440, Note_on_c, 0, 71, 71
2, 157440, Note_on_c, 0, 67, 62
2, 157560, Note_on_c, 0, 67, 0
2, 157560, Note_on_c, 0, 71, 0
2, 157680, Note_on_c, 0, 71, 60
2, 157680, Note_on_c, 0, 67, 53
2, 157800, Note_on_c, 0, 67, 0
2, 157800, Note_on_c, 0, 71, 0
2, 157920, Note_on_c, 0, 69, 71
2, 157920, Note_on_c, 0, 66, 62
2, 158040, Note_on_c, 0, 66, 0
2, 158040, Note_on_c, 0, 69, 0
2, 158160, Note_on_c, 0, 69, 58
2, 158160, Note_on_c, 0, 66, 51
2, 158280, Note_on_c, 0, 66, 0
2, 158280, Note_on_c, 0, 69, 0
2, 158400, Note_on_c, 0, 67, 71
2, 158520, Note_on_c, 0, 67, 0
2, 158880, Note_on_c, 0, 86, 48
2, 159000, Note_on_c, 0, 86, 0
2, 159000, Note_on_c, 0, 84, 54
2, 159120, Note_on_c, 0, 84, 0
2, 159120, Note_on_c, 0, 83, 56
2, 159240, Note_on_c, 0, 83, 0
2, 159240, Note_on_c, 0, 81, 58
2, 159360, Note_on_c, 0, 81, 0
2, 159360, Note_on_c, 0, 79, 61
2, 159480, Note_on_c, 0, 79, 0
2, 159600, Note_on_c, 0, 79, 53
2, 159720, Note_on_c, 0, 79, 0
2, 159840, Note_on_c, 0, 74, 58
2, 159960, Note_on_c, 0, 74, 0
2, 160080, Note_on_c, 0, 74, 49
2, 160200, Note_on_c, 0, 74, 0
2, 160320, Note_on_c, 0, 71, 58
2, 160440, Note_on_c, 0, 71, 0
2, 160800, Note_on_c, 0, 86, 48
2, 160920, Note_on_c, 0, 86, 0
2, 160920, Note_on_c, 0, 84, 54
2, 161040, Note_on_c, 0, 84, 0
2, 161040, Note_on_c, 0, 83, 56
2, 161160, Note_on_c, 0, 83, 0
2, 161160, Note_on_c, 0, 81, 58
2, 161280, Note_on_c, 0, 81, 0
2, 161280, Note_on_c, 0, 79, 61
2, 161400, Note_on_c, 0, 79, 0
2, 161520, Note_on_c, 0, 79, 53
2, 161640, Note_on_c, 0, 79, 0
2, 161760, Note_on_c, 0, 74, 58
2, 161880, Note_on_c, 0, 74, 0
2, 162000, Note_on_c, 0, 74, 49
2, 162120, Note_on_c, 0, 74, 0
2, 162240, Note_on_c, 0, 71, 58
2, 162360, Note_on_c, 0, 71, 0
2, 162720, Note_on_c, 0, 78, 88
2, 162720, Note_on_c, 0, 72, 73
2, 162720, Note_on_c, 0, 69, 73
2, 162840, Note_on_c, 0, 69, 0
2, 162840, Note_on_c, 0, 72, 0
2, 162840, Note_on_c, 0, 78, 0
2, 163200, Note_on_c, 0, 79, 95
2, 163200, Note_on_c, 0, 74, 80
2, 163200, Note_on_c, 0, 71, 80
2, 163320, Note_on_c, 0, 71, 0
2, 163320, Note_on_c, 0, 74, 0
2, 163320, Note_on_c, 0, 79, 0
2, 163680, Note_on_c, 0, 78, 88
2, 163680, Note_on_c, 0, 74, 73
2, 163680, Note_on_c, 0, 69, 73
2, 163800, Note_on_c, 0, 69, 0
2, 163800, Note_on_c, 0, 74, 0
2, 163800, Note_on_c, 0, 78, 0
2, 164160, Note_on_c, 0, 79, 99
2, 164160, Note_on_c, 0, 74, 84
2, 164160, Note_on_c, 0, 71, 84
2, 164280, Note_on_c, 0, 71, 0
2, 164280, Note_on_c, 0, 74, 0
2, 164280, Note_on_c, 0, 79, 0
2, 164280, End_track
3, 0, Start_track
3, 0, Title_t, "Piano left"
3, 0, Program_c, 0, 0
3, 960, Note_on_c, 0, 59, 34
3, 960, Note_on_c, 0, 67, 40
3, 1080, Note_on_c, 0, 67, 0
3, 1080, Note_on_c, 0, 59, 0
3, 1200, Note_on_c, 0, 67, 34
3, 1200, Note_on_c, 0, 59, 28
3, 1320, Note_on_c, 0, 59, 0
3, 1320, Note_on_c, 0, 67, 0
3, 1920, Note_on_c, 0, 62, 34
3, 1920, Note_on_c, 0, 69, 40
3, 2040, Note_on_c, 0, 69, 0
3, 2040, Note_on_c, 0, 62, 0
3, 2160, Note_on_c, 0, 69, 34
3, 2160, Note_on_c, 0, 62, 28
3, 2280, Note_on_c, 0, 62, 0
3, 2280, Note_on_c, 0, 69, 0
3, 2880, Note_on_c, 0, 67, 34
3, 2880, Note_on_c, 0, 71, 40
3, 3000, Note_on_c, 0, 71, 0
3, 3000, Note_on_c, 0, 67, 0
3, 3120, Note_on_c, 0, 71, 36
3, 3120, Note_on_c, 0, 67, 30
3, 3240, Note_on_c, 0, 67, 0
3, 3240, Note_on_c, 0, 71, 0
3, 3360, Note_on_c, 0, 67, 34
3, 3360, Note_on_c, 0, 71, 40
3, 3480, Note_on_c, 0, 71, 0
3, 3480, Note_on_c, 0, 67, 0
3, 3600, Note_on_c, 0, 71, 35
3, 3600, Note_on_c, 0, 67, 29
3, 3720, Note_on_c, 0, 67, 0
3, 3720, Note_on_c, 0, 71, 0
3, 3840, Note_on_c, 0, 62, 34
3, 3840, Note_on_c, 0, 69, 40
3, 3960, Note_on_c, 0, 69, 0
3, 3960, Note_on_c, 0, 62, 0
3, 4080, Note_on_c, 0, 69, 35
3, 4080, Note_on_c, 0, 62, 29
3, 4200, Note_on_c, 0, 62, 0
3, 4200, Note_on_c, 0, 69, 0
3, 4800, Note_on_c, 0, 66, 34
3, 4800, Note_on_c, 0, 72, 40
3, 4920, Note_on_c, 0, 72, 0
3, 4920, Note_on_c, 0, 66, 0
3, 5040, Note_on_c, 0, 72, 34
3, 5040, Note_on_c, 0, 66, 28
3, 5160, Note_on_c, 0, 66, 0
3, 5160, Note_on_c, 0, 72, 0
3, 5760, Note_on_c, 0, 67, 34
3, 5760, Note_on_c, 0, 71, 40
3, 5880, Note_on_c, 0, 71, 0
3, 5880, Note_on_c, 0, 67, 0
3, 6240, Note_on_c, 0, 67, 28
3, 6240, Note_on_c, 0, 71, 34
3, 6360, Note_on_c, 0, 71, 0
3, 6360, Note_on_c, 0, 67, 0
3, 6720, Note_on_c, 0, 62, 34
3, 6720, Note_on_c, 0, 69, 40
3, 6840, Note_on_c, 0, 69, 0
3, 6840, Note_on_c, 0, 62, 0
3, 7200, Note_on_c, 0, 62, 34
3, 7200, Note_on_c, 0, 69, 40
3, 7320, Note_on_c, 0, 69, 0
3, 7320, Note_on_c, 0, 62, 0
3, 7680, Note_on_c, 0, 59, 34
3, 7680, Note_on_c, 0, 67, 40
3, 7800, Note_on_c, 0, 67, 0
3, 7800, Note_on_c, 0, 59, 0
3, 8640, Note_on_c, 0, 55, 42
3, 8640, Note_on_c, 0, 59, 50
3, 8760, Note_on_c, 0, 59, 0
3, 8760, Note_on_c, 0, 55, 0
3, 8880, Note_on_c, 0, 59, 42
3, 8880, Note_on_c, 0, 55, 35
3, 9000, Note_on_c, 0, 55, 0
3, 9000, Note_on_c, 0, 59, 0
3, 9600, Note_on_c, 0, 57, 42
3, 9600, Note_on_c, 0, 60, 50
3, 9720, Note_on_c, 0, 60, 0
3, 9720, Note_on_c, 0, 57, 0
3, 9840, Note_on_c, 0, 60, 42
3, 9840, Note_on_c, 0, 57, 35
3, 9960, Note_on_c, 0, 57, 0
3, 9960, Note_on_c, 0, 60, 0
3, 10560, Note_on_c, 0, 55, 42
3, 10560, Note_on_c, 0, 59, 50
3, 10680, Note_on_c, 0, 59, 0
3, 10680, Note_on_c, 0, 55, 0
3, 10800, Note_on_c, 0, 59, 45
3, 10800, Note_on_c, 0, 55, 37
3, 10920, Note_on_c, 0, 55, 0
3, 10920, Note_on_c, 0, 59, 0
3, 11040, Note_on_c, 0, 55, 42
3, 11040, Note_on_c, 0, 59, 50
3, 11160, Note_on_c, 0, 59, 0
3, 11160, Note_on_c, 0, 55, 0
3, 11280, Note_on_c, 0, 59, 43
3, 11280, Note_on_c, 0, 55, 36
3, 11400, Note_on_c, 0, 55, 0
3, 11400, Note_on_c, 0, 59, 0
3, 11520, Note_on_c, 0, 50, 42
3, 11520, Note_on_c, 0, 57, 50
3, 11640, Note_on_c, 0, 57, 0
3, 11640, Note_on_c, 0, 50, 0
3, 11760, Note_on_c, 0, 57, 43
3, 11760, Note_on_c, 0, 50, 36
3, 11880, Note_on_c, 0, 50, 0
3, 11880, Note_on_c, 0, 57, 0
3, 12480, Note_on_c, 0, 54, 42
3, 12480, Note_on_c, 0, 60, 50
3, 12600, Note_on_c, 0, 60, 0
3, 12600, Note_on_c, 0, 54, 0
3, 12720, Note_on_c, 0, 60, 42
3, 12720, Note_on_c, 0, 54, 35
3, 12840, Note_on_c, 0, 54, 0
3, 12840, Note_on_c, 0, 60, 0
3, 13440, Note_on_c, 0, 55, 42
3, 13440, Note_on_c, 0, 59, 50
3, 13560, Note_on_c, 0, 59, 0
3, 13560, Note_on_c, 0, 55, 0
3, 13920, Note_on_c, 0, 55, 35
3, 13920, Note_on_c, 0, 59, 42
3, 14040, Note_on_c, 0, 59, 0
3, 14040, Note_on_c, 0, 55, 0
3, 14400, Note_on_c, 0, 50, 42
3, 14400, Note_on_c, 0, 57, 50
3, 14520, Note_on_c, 0, 57, 0
3, 14520, Note_on_c, 0, 50, 0
3, 14880, Note_on_c, 0, 50, 42
3, 14880, Note_on_c, 0, 57, 50
3, 15000, Note_on_c, 0, 57, 0
3, 15000, Note_on_c, 0, 50, 0
3, 15360, Note_on_c, 0, 55, 42
3, 15360, Note_on_c, 0, 59, 50
3, 15480, Note_on_c, 0, 59, 0
3, 15480, Note_on_c, 0, 55, 0
3, 16320, Note_on_c, 0, 64, 34
3, 16320, Note_on_c, 0, 67, 40
3, 16800, Note_on_c, 0, 67, 0
3, 16800, Note_on_c, 0, 64, 0
3, 16800, Note_on_c, 0, 67, 37
3, 16800, Note_on_c, 0, 64, 31
3, 17280, Note_on_c, 0, 64, 0
3, 17280, Note_on_c, 0, 67, 0
3, 17280, Note_on_c, 0, 62, 34
3, 17280, Note_on_c, 0, 66, 40
3, 17760, Note_on_c, 0, 66, 0
3, 17760, Note_on_c, 0, 62, 0
3, 18240, Note_on_c, 0, 64, 34
3, 18240, Note_on_c, 0, 67, 40
3, 18720, Note_on_c, 0, 67, 0
3, 18720, Note_on_c, 0, 64, 0
3, 18720, Note_on_c, 0, 67, 37
3, 18720, Note_on_c, 0, 64, 31
3, 19200, Note_on_c, 0, 64, 0
3, 19200, Note_on_c, 0, 67, 0
3, 19200, Note_on_c, 0, 62, 34
3, 19200, Note_on_c, 0, 66, 40
3, 19680, Note_on_c, 0, 66, 0
3, 19680, Note_on_c, 0, 62, 0
3, 20160, Note_on_c, 0, 64, 34
3, 20160, Note_on_c, 0, 67, 40
3, 20640, Note_on_c, 0, 67, 0
3, 20640, Note_on_c, 0, 64, 0
3, 20640, Note_on_c, 0, 67, 37
3, 20640, Note_on_c, 0, 64, 31
3, 21120, Note_on_c, 0, 64, 0
3, 21120, Note_on_c, 0, 67, 0
3, 21120, Note_on_c, 0, 62, 34
3, 21120, Note_on_c, 0, 66, 40
3, 21600, Note_on_c, 0, 66, 0
3, 21600, Note_on_c, 0, 62, 0
3, 22080, Note_on_c, 0, 57, 51
3, 22080, Note_on_c, 0, 64, 51
3, 22080, Note_on_c, 0, 67, 60
3, 22560, Note_on_c, 0, 67, 0
3, 22560, Note_on_c, 0, 64, 0
3, 22560, Note_on_c, 0, 57, 0
3, 22560, Note_on_c, 0, 67, 57
3, 22560, Note_on_c, 0, 64, 48
3, 22560, Note_on_c, 0, 57, 48
3, 23040, Note_on_c, 0, 57, 0
3, 23040, Note_on_c, 0, 64, 0
3, 23040, Note_on_c, 0, 67, 0
3, 23040, Note_on_c, 0, 62, 51
3, 23040, Note_on_c, 0, 66, 60
3, 24000, Note_on_c, 0, 66, 0
3, 24000, Note_on_c, 0, 62, 0
3, 24000, Note_on_c, 0, 62, 51
3, 24000, Note_on_c, 0, 67, 60
3, 24960, Note_on_c, 0, 67, 0
3, 24960, Note_on_c, 0, 62, 0
3, 24960, Note_on_c, 0, 62, 51
3, 24960, Note_on_c, 0, 69, 60
3, 25920, Note_on_c, 0, 69, 0
3, 25920, Note_on_c, 0, 62, 0
3, 27840, Note_on_c, 0, 59, 34
3, 27840, Note_on_c, 0, 67, 40
3, 27960, Note_on_c, 0, 67, 0
3, 27960, Note_on_c, 0, 59, 0
3, 28080, Note_on_c, 0, 67, 34
3, 28080, Note_on_c, 0, 59, 28
3, 28200, Note_on_c, 0, 59, 0
3, 28200, Note_on_c, 0, 67, 0
3, 28800, Note_on_c, 0, 62, 34
3, 28800, Note_on_c, 0, 69, 40
3, 28920, Note_on_c, 0, 69, 0
3, 28920, Note_on_c, 0, 62, 0
3, 29040, Note_on_c, 0, 69, 34
3, 29040, Note_on_c, 0, 62, 28
3, 29160, Note_on_c, 0, 62, 0
3, 29160, Note_on_c, 0, 69, 0
3, 29760, Note_on_c, 0, 67, 34
3, 29760, Note_on_c, 0, 71, 40
3, 29880, Note_on_c, 0, 71, 0
3, 29880, Note_on_c, 0, 67, 0
3, 30000, Note_on_c, 0, 71, 36
3, 30000, Note_on_c, 0, 67, 30
3, 30120, Note_on_c, 0, 67, 0
3, 30120, Note_on_c, 0, 71, 0
3, 30240, Note_on_c, 0, 67, 34
3, 30240, Note_on_c, 0, 71, 40
3, 30360, Note_on_c, 0, 71, 0
3, 30360, Note_on_c, 0, 67, 0
3, 30480, Note_on_c, 0, 71, 35
3, 30480, Note_on_c, 0, 67, 29
3, 30600, Note_on_c, 0, 67, 0
3, 30600, Note_on_c, 0, 71, 0
3, 30720, Note_on_c, 0, 62, 34
3, 30720, Note_on_c, 0, 69, 40
3, 30840, Note_on_c, 0, 69, 0
3, 30840, Note_on_c, 0, 62, 0
3, 30960, Note_on_c, 0, 69, 35
3, 30960, Note_on_c, 0, 62, 29
3, 31080, Note_on_c, 0, 62, 0
3, 31080, Note_on_c, 0, 69, 0
3, 31680, Note_on_c, 0, 66, 34
3, 31680, Note_on_c, 0, 72, 40
3, 31800, Note_on_c, 0, 72, 0
3, 31800, Note_on_c, 0, 66, 0
3, 31920, Note_on_c, 0, 72, 34
3, 31920, Note_on_c, 0, 66, 28
3, 32040, Note_on_c, 0, 66, 0
3, 32040, Note_on_c, 0, 72, 0
3, 32640, Note_on_c, 0, 67, 34
3, 32640, Note_on_c, 0, 71, 40
3, 32760, Note_on_c, 0, 71, 0
3, 32760, Note_on_c, 0, 67, 0
3, 33120, Note_on_c, 0, 67, 28
3, 33120, Note_on_c, 0, 71, 34
3, 33240, Note_on_c, 0, 71, 0
3, 33240, Note_on_c, 0, 67, 0
3, 33600, Note_on_c, 0, 62, 34
3, 33600, Note_on_c, 0, 69, 40
3, 33720, Note_on_c, 0, 69, 0
3, 33720, Note_on_c, 0, 62, 0
3, 34080, Note_on_c, 0, 62, 34
3, 34080, Note_on_c, 0, 69, 40
3, 34200, Note_on_c, 0, 69, 0
3, 34200, Note_on_c, 0, 62, 0
3, 34560, Note_on_c, 0, 59, 34
3, 34560, Note_on_c, 0, 67, 40
3, 34680, Note_on_c, 0, 67, 0
3, 34680, Note_on_c, 0, 59, 0
3, 35520, Note_on_c, 0, 43, 50
3, 35760, Note_on_c, 0, 43, 0
3, 35760, Note_on_c, 0, 47, 46
3, 36000, Note_on_c, 0, 47, 0
3, 36000, Note_on_c, 0, 50, 45
3, 36240, Note_on_c, 0, 50, 0
3, 36240, Note_on_c, 0, 55, 45
3, 36480, Note_on_c, 0, 55, 0
3, 36480, Note_on_c, 0, 45, 50
3, 36720, Note_on_c, 0, 45, 0
3, 36720, Note_on_c, 0, 48, 46
3, 36960, Note_on_c, 0, 48, 0
3, 36960, Note_on_c, 0, 50, 45
3, 37200, Note_on_c, 0, 50, 0
3, 37200, Note_on_c, 0, 54, 45
3, 37440, Note_on_c, 0, 54, 0
3, 37440, Note_on_c, 0, 43, 50
3, 37680, Note_on_c, 0, 43, 0
3, 37680, Note_on_c, 0, 47, 46
3, 37920, Note_on_c, 0, 47, 0
3, 37920, Note_on_c, 0, 50, 45
3, 38160, Note_on_c, 0, 50, 0
3, 38160, Note_on_c, 0, 55, 45
3, 38400, Note_on_c, 0, 55, 0
3, 38400, Note_on_c, 0, 38, 50
3, 38640, Note_on_c, 0, 38, 0
3, 38640, Note_on_c, 0, 50, 46
3, 38880, Note_on_c, 0, 50, 0
3, 38880, Note_on_c, 0, 54, 45
3, 39120, Note_on_c, 0, 54, 0
3, 39120, Note_on_c, 0, 57, 45
3, 39360, Note_on_c, 0, 57, 0
3, 39360, Note_on_c, 0, 60, 50
3, 39360, Note_on_c, 0, 54, 42
3, 39480, Note_on_c, 0, 54, 0
3, 39480, Note_on_c, 0, 60, 0
3, 39600, Note_on_c, 0, 54, 35
3, 39600, Note_on_c, 0, 60, 42
3, 39720, Note_on_c, 0, 60, 0
3, 39720, Note_on_c, 0, 54, 0
3, 40320, Note_on_c, 0, 59, 50
3, 40320, Note_on_c, 0, 55, 42
3, 40440, Note_on_c, 0, 55, 0
3, 40440, Note_on_c, 0, 59, 0
3, 40800, Note_on_c, 0, 59, 42
3, 40800, Note_on_c, 0, 55, 35
3, 40920, Note_on_c, 0, 55, 0
3, 40920, Note_on_c, 0, 59, 0
3, 41280, Note_on_c, 0, 57, 50
3, 41280, Note_on_c, 0, 50, 42
3, 41400, Note_on_c, 0, 50, 0
3, 41400, Note_on_c, 0, 57, 0
3, 41760, Note_on_c, 0, 50, 42
3, 41760, Note_on_c, 0, 57, 50
3, 41880, Note_on_c, 0, 57, 0
3, 41880, Note_on_c, 0, 50, 0
3, 42240, Note_on_c, 0, 43, 50
3, 42480, Note_on_c, 0, 43, 0
3, 42480, Note_on_c, 0, 45, 35
3, 42600, Note_on_c, 0, 45, 0
3, 42600, Note_on_c, 0, 47, 37
3, 42720, Note_on_c, 0, 47, 0
3, 42720, Note_on_c, 0, 48, 39
3, 42840, Note_on_c, 0, 48, 0
3, 42840, Note_on_c, 0, 50, 41
3, 42960, Note_on_c, 0, 50, 0
3, 42960, Note_on_c, 0, 52, 45
3, 43080, Note_on_c, 0, 52, 0
3, 43080, Note_on_c, 0, 54, 48
3, 43200, Note_on_c, 0, 54, 0
3, 43200, Note_on_c, 0, 55, 54
3, 43320, Note_on_c, 0, 55, 0
3, 44160, Note_on_c, 0, 43, 46
3, 44400, Note_on_c, 0, 43, 0
3, 44400, Note_on_c, 0, 45, 35
3, 44520, Note_on_c, 0, 45, 0
3, 44520, Note_on_c, 0, 47, 37
3, 44640, Note_on_c, 0, 47, 0
3, 44640, Note_on_c, 0, 48, 39
3, 44760, Note_on_c, 0, 48, 0
3, 44760, Note_on_c, 0, 50, 41
3, 44880, Note_on_c, 0, 50, 0
3, 44880, Note_on_c, 0, 52, 45
3, 45000, Note_on_c, 0, 52, 0
3, 45000, Note_on_c, 0, 54, 48
3, 45120, Note_on_c, 0, 54, 0
3, 45120, Note_on_c, 0, 55, 54
3, 45240, Note_on_c, 0, 55, 0
3, 46080, Note_on_c, 0, 43, 50
3, 46320, Note_on_c, 0, 43, 0
3, 46320, Note_on_c, 0, 45, 40
3, 46440, Note_on_c, 0, 45, 0
3, 46440, Note_on_c, 0, 47, 44
3, 46560, Note_on_c, 0, 47, 0
3, 46560, Note_on_c, 0, 48, 47
3, 46680, Note_on_c, 0, 48, 0
3, 46680, Note_on_c, 0, 50, 51
3, 46800, Note_on_c, 0, 50, 0
3, 46800, Note_on_c, 0, 52, 54
3, 46920, Note_on_c, 0, 52, 0
3, 46920, Note_on_c, 0, 54, 56
3, 47040, Note_on_c, 0, 54, 0
3, 47040, Note_on_c, 0, 55, 60
3, 47160, Note_on_c, 0, 55, 0
3, 47280, Note_on_c, 0, 60, 52
3, 47400, Note_on_c, 0, 60, 0
3, 47520, Note_on_c, 0, 59, 57
3, 47640, Note_on_c, 0, 59, 0
3, 47760, Note_on_c, 0, 60, 54
3, 47880, Note_on_c, 0, 60, 0
3, 48000, Note_on_c, 0, 59, 57
3, 48120, Note_on_c, 0, 59, 0
3, 48240, Note_on_c, 0, 59, 49
3, 48360, Note_on_c, 0, 59, 0
3, 48480, Note_on_c, 0, 60, 54
3, 48600, Note_on_c, 0, 60, 0
3, 48720, Note_on_c, 0, 60, 50
3, 48840, Note_on_c, 0, 60, 0
3, 48960, Note_on_c, 0, 62, 50
3, 49080, Note_on_c, 0, 62, 0
3, 49200, Note_on_c, 0, 62, 48
3, 49320, Note_on_c, 0, 62, 0
3, 49440, Note_on_c, 0, 50, 54
3, 49560, Note_on_c, 0, 50, 0
3, 49680, Note_on_c, 0, 50, 48
3, 49800, Note_on_c, 0, 50, 0
3, 49920, Note_on_c, 0, 55, 54
3, 50040, Note_on_c, 0, 55, 0
3, 51360, Note_on_c, 0, 62, 25
3, 51360, Note_on_c, 0, 69, 34
3, 51840, Note_on_c, 0, 69, 0
3, 51840, Note_on_c, 0, 62, 0
3, 51840, Note_on_c, 0, 67, 40
3, 51960, Note_on_c, 0, 67, 0
3, 53280, Note_on_c, 0, 62, 25
3, 53280, Note_on_c, 0, 69, 34
3, 53760, Note_on_c, 0, 69, 0
3, 53760, Note_on_c, 0, 62, 0
3, 53760, Note_on_c, 0, 67, 40
3, 53880, Note_on_c, 0, 67, 0
3, 54240, Note_on_c, 0, 50, 39
3, 54240, Note_on_c, 0, 62, 46
3, 54360, Note_on_c, 0, 62, 0
3, 54360, Note_on_c, 0, 50, 0
3, 54720, Note_on_c, 0, 59, 51
3, 54720, Note_on_c, 0, 55, 43
3, 54840, Note_on_c, 0, 55, 0
3, 54840, Note_on_c, 0, 59, 0
3, 55200, Note_on_c, 0, 50, 39
3, 55200, Note_on_c, 0, 62, 46
3, 55320, Note_on_c, 0, 62, 0
3, 55320, Note_on_c, 0, 50, 0
3, 55680, Note_on_c, 0, 59, 52
3, 55680, Note_on_c, 0, 55, 44
3, 55800, Note_on_c, 0, 55, 0
3, 55800, Note_on_c, 0, 59, 0
3, 57120, Note_on_c, 0, 67, 30
3, 57600, Note_on_c, 0, 67, 0
3, 57600, Note_on_c, 0, 66, 30
3, 58080, Note_on_c, 0, 66, 0
3, 59040, Note_on_c, 0, 64, 30
3, 59520, Note_on_c, 0, 64, 0
3, 59520, Note_on_c, 0, 63, 30
3, 60000, Note_on_c, 0, 63, 0
3, 60000, Note_on_c, 0, 62, 30
3, 60480, Note_on_c, 0, 62, 0
3, 60480, Note_on_c, 0, 61, 30
3, 60960, Note_on_c, 0, 61, 0
3, 60960, Note_on_c, 0, 60, 30
3, 61440, Note_on_c, 0, 60, 0
3, 61440, Note_on_c, 0, 59, 30
3, 61920, Note_on_c, 0, 59, 0
3, 61920, Note_on_c, 0, 52, 30
3, 62400, Note_on_c, 0, 52, 0
3, 62400, Note_on_c, 0, 55, 30
3, 62880, Note_on_c, 0, 55, 0
3, 62880, Note_on_c, 0, 52, 30
3, 63360, Note_on_c, 0, 52, 0
3, 63360, Note_on_c, 0, 54, 30
3, 64320, Note_on_c, 0, 54, 0
3, 64800, Note_on_c, 0, 62, 37
3, 65280, Note_on_c, 0, 62, 0
3, 65280, Note_on_c, 0, 61, 37
3, 65760, Note_on_c, 0, 61, 0
3, 66720, Note_on_c, 0, 59, 37
3, 67200, Note_on_c, 0, 59, 0
3, 67200, Note_on_c, 0, 58, 37
3, 67680, Note_on_c, 0, 58, 0
3, 67680, Note_on_c, 0, 57, 37
3, 68160, Note_on_c, 0, 57, 0
3, 68160, Note_on_c, 0, 56, 37
3, 68640, Note_on_c, 0, 56, 0
3, 68640, Note_on_c, 0, 55, 37
3, 69120, Note_on_c, 0, 55, 0
3, 69120, Note_on_c, 0, 54, 37
3, 69600, Note_on_c, 0, 54, 0
3, 69600, Note_on_c, 0, 47, 40
3, 70080, Note_on_c, 0, 47, 0
3, 70080, Note_on_c, 0, 52, 55
3, 70560, Note_on_c, 0, 52, 0
3, 70560, Note_on_c, 0, 40, 53
3, 71040, Note_on_c, 0, 40, 0
3, 71040, Note_on_c, 0, 45, 62
3, 71160, Note_on_c, 0, 45, 0
3, 71520, Note_on_c, 0, 56, 69
3, 71640, Note_on_c, 0, 56, 0
3, 71640, Note_on_c, 0, 57, 62
3, 71760, Note_on_c, 0, 57, 0
3, 71760, Note_on_c, 0, 56, 70
3, 71880, Note_on_c, 0, 56, 0
3, 71880, Note_on_c, 0, 57, 62
3, 72000, Note_on_c, 0, 57, 0
3, 72000, Note_on_c, 0, 45, 72
3, 72120, Note_on_c, 0, 45, 0
3, 72240, Note_on_c, 0, 45, 62
3, 72360, Note_on_c, 0, 45, 0
3, 73440, Note_on_c, 0, 56, 69
3, 73560, Note_on_c, 0, 56, 0
3, 73560, Note_on_c, 0, 57, 62
3, 73680, Note_on_c, 0, 57, 0
3, 73680, Note_on_c, 0, 56, 70
3, 73800, Note_on_c, 0, 56, 0
3, 73800, Note_on_c, 0, 57, 62
3, 73920, Note_on_c, 0, 57, 0
3, 73920, Note_on_c, 0, 45, 72
3, 74040, Note_on_c, 0, 45, 0
3, 74160, Note_on_c, 0, 45, 62
3, 74280, Note_on_c, 0, 45, 0
3, 75360, Note_on_c, 0, 57, 55
3, 75360, Note_on_c, 0, 61, 65
3, 75480, Note_on_c, 0, 61, 0
3, 75480, Note_on_c, 0, 57, 0
3, 75600, Note_on_c, 0, 61, 58
3, 75600, Note_on_c, 0, 57, 49
3, 75720, Note_on_c, 0, 57, 0
3, 75720, Note_on_c, 0, 61, 0
3, 75840, Note_on_c, 0, 61, 55
3, 75840, Note_on_c, 0, 64, 65
3, 75960, Note_on_c, 0, 64, 0
3, 75960, Note_on_c, 0, 61, 0
3, 76080, Note_on_c, 0, 64, 58
3, 76080, Note_on_c, 0, 61, 49
3, 76200, Note_on_c, 0, 61, 0
3, 76200, Note_on_c, 0, 64, 0
3, 76320, Note_on_c, 0, 64, 55
3, 76320, Note_on_c, 0, 67, 65
3, 76440, Note_on_c, 0, 67, 0
3, 76440, Note_on_c, 0, 64, 0
3, 76560, Note_on_c, 0, 67, 59
3, 76560, Note_on_c, 0, 64, 50
3, 76680, Note_on_c, 0, 64, 0
3, 76680, Note_on_c, 0, 67, 0
3, 76800, Note_on_c, 0, 62, 55
3, 76800, Note_on_c, 0, 66, 65
3, 76920, Note_on_c, 0, 66, 0
3, 76920, Note_on_c, 0, 62, 0
3, 77040, Note_on_c, 0, 66, 61
3, 77040, Note_on_c, 0, 62, 51
3, 77160, Note_on_c, 0, 62, 0
3, 77160, Note_on_c, 0, 66, 0
3, 77760, Note_on_c, 0, 43, 45
3, 77760, Note_on_c, 0, 55, 53
3, 77880, Note_on_c, 0, 55, 0
3, 77880, Note_on_c, 0, 43, 0
3, 78000, Note_on_c, 0, 55, 47
3, 78000, Note_on_c, 0, 43, 39
3, 78120, Note_on_c, 0, 43, 0
3, 78120, Note_on_c, 0, 55, 0
3, 78720, Note_on_c, 0, 45, 41
3, 78720, Note_on_c, 0, 54, 49
3, 78840, Note_on_c, 0, 54, 0
3, 78840, Note_on_c, 0, 45, 0
3, 78960, Note_on_c, 0, 45, 36
3, 78960, Note_on_c, 0, 54, 43
3, 79080, Note_on_c, 0, 54, 0
3, 79080, Note_on_c, 0, 45, 0
3, 79680, Note_on_c, 0, 49, 39
3, 79680, Note_on_c, 0, 45, 33
3, 79800, Note_on_c, 0, 45, 0
3, 79800, Note_on_c, 0, 49, 0
3, 79920, Note_on_c, 0, 49, 33
3, 79920, Note_on_c, 0, 45, 28
3, 80040, Note_on_c, 0, 45, 0
3, 80040, Note_on_c, 0, 49, 0
3, 80640, Note_on_c, 0, 38, 31
3, 81120, Note_on_c, 0, 38, 0
3, 82080, Note_on_c, 0, 50, 30
3, 82560, Note_on_c, 0, 50, 0
3, 82560, Note_on_c, 0, 49, 30
3, 83040, Note_on_c, 0, 49, 0
3, 84000, Note_on_c, 0, 48, 25
3, 84480, Note_on_c, 0, 48, 0
3, 84480, Note_on_c, 0, 47, 25
3, 84960, Note_on_c, 0, 47, 0
3, 85440, Note_on_c, 0, 55, 40
3, 85920, Note_on_c, 0, 55, 0
3, 85920, Note_on_c, 0, 56, 42
3, 86400, Note_on_c, 0, 56, 0
3, 86400, Note_on_c, 0, 57, 49
3, 86880, Note_on_c, 0, 57, 0
3, 87360, Note_on_c, 0, 60, 52
3, 87840, Note_on_c, 0, 60, 0
3, 87840, Note_on_c, 0, 59, 47
3, 88320, Note_on_c, 0, 59, 0
3, 88320, Note_on_c, 0, 58, 53
3, 88800, Note_on_c, 0, 58, 0
3, 88800, Note_on_c, 0, 59, 39
3, 89280, Note_on_c, 0, 59, 0
3, 89280, Note_on_c, 0, 55, 46
3, 89760, Note_on_c, 0, 55, 0
3, 89760, Note_on_c, 0, 57, 37
3, 90240, Note_on_c, 0, 57, 0
3, 90240, Note_on_c, 0, 38, 33
3, 90720, Note_on_c, 0, 38, 0
3, 90720, Note_on_c, 0, 42, 32
3, 91200, Note_on_c, 0, 42, 0
3, 91200, Note_on_c, 0, 47, 34
3, 91680, Note_on_c, 0, 47, 0
3, 91680, Note_on_c, 0, 44, 31
3, 92160, Note_on_c, 0, 44, 0
3, 92160, Note_on_c, 0, 45, 34
3, 92640, Note_on_c, 0, 45, 0
3, 92640, Note_on_c, 0, 52, 34
3, 93120, Note_on_c, 0, 52, 0
3, 93120, Note_on_c, 0, 57, 40
3, 93600, Note_on_c, 0, 57, 0
3, 93600, Note_on_c, 0, 50, 31
3, 94080, Note_on_c, 0, 50, 0
3, 94080, Note_on_c, 0, 55, 34
3, 94560, Note_on_c, 0, 55, 0
3, 95040, Note_on_c, 0, 55, 55
3, 95520, Note_on_c, 0, 55, 0
3, 96000, Note_on_c, 0, 55, 60
3, 96000, Note_on_c, 0, 52, 51
3, 96000, Note_on_c, 0, 45, 51
3, 96480, Note_on_c, 0, 45, 0
3, 96480, Note_on_c, 0, 52, 0
3, 96480, Note_on_c, 0, 55, 0
3, 96960, Note_on_c, 0, 55, 64
3, 96960, Note_on_c, 0, 52, 53
3, 96960, Note_on_c, 0, 45, 53
3, 97080, Note_on_c, 0, 45, 0
3, 97080, Note_on_c, 0, 52, 0
3, 97080, Note_on_c, 0, 55, 0
3, 97440, Note_on_c, 0, 55, 62
3, 97440, Note_on_c, 0, 52, 53
3, 97440, Note_on_c, 0, 45, 53
3, 97560, Note_on_c, 0, 45, 0
3, 97560, Note_on_c, 0, 52, 0
3, 97560, Note_on_c, 0, 55, 0
3, 97920, Note_on_c, 0, 54, 76
3, 97920, Note_on_c, 0, 50, 76
3, 98400, Note_on_c, 0, 50, 0
3, 98400, Note_on_c, 0, 54, 0
3, 98400, Note_on_c, 0, 55, 68
3, 98400, Note_on_c, 0, 43, 57
3, 98880, Note_on_c, 0, 43, 0
3, 98880, Note_on_c, 0, 55, 0
3, 98880, Note_on_c, 0, 54, 75
3, 98880, Note_on_c, 0, 50, 63
3, 98880, Note_on_c, 0, 45, 63
3, 99360, Note_on_c, 0, 45, 0
3, 99360, Note_on_c, 0, 50, 0
3, 99360, Note_on_c, 0, 54, 0
3, 99360, Note_on_c, 0, 45, 54
3, 99360, Note_on_c, 0, 49, 54
3, 99360, Note_on_c, 0, 55, 63
3, 99840, Note_on_c, 0, 55, 0
3, 99840, Note_on_c, 0, 49, 0
3, 99840, Note_on_c, 0, 45, 0
3, 99840, Note_on_c, 0, 54, 76
3, 99840, Note_on_c, 0, 50, 76
3, 100320, Note_on_c, 0, 50, 0
3, 100320, Note_on_c, 0, 54, 0
3, 100320, Note_on_c, 0, 55, 68
3, 100320, Note_on_c, 0, 43, 57
3, 100800, Note_on_c, 0, 43, 0
3, 100800, Note_on_c, 0, 55, 0
3, 100800, Note_on_c, 0, 54, 75
3, 100800, Note_on_c, 0, 50, 63
3, 100800, Note_on_c, 0, 45, 63
3, 101280, Note_on_c, 0, 45, 0
3, 101280, Note_on_c, 0, 50, 0
3, 101280, Note_on_c, 0, 54, 0
3, 101280, Note_on_c, 0, 45, 54
3, 101280, Note_on_c, 0, 49, 54
3, 101280, Note_on_c, 0, 55, 63
3, 101760, Note_on_c, 0, 55, 0
3, 101760, Note_on_c, 0, 49, 0
3, 101760, Note_on_c, 0, 45, 0
3, 101760, Note_on_c, 0, 54, 49
3, 101760, Note_on_c, 0, 50, 41
3, 101880, Note_on_c, 0, 50, 0
3, 101880, Note_on_c, 0, 54, 0
3, 102000, Note_on_c, 0, 54, 49
3, 102000, Note_on_c, 0, 50, 41
3, 102120, Note_on_c, 0, 50, 0
3, 102120, Note_on_c, 0, 54, 0
3, 102720, Note_on_c, 0, 50, 30
3, 102720, Note_on_c, 0, 54, 36
3, 102840, Note_on_c, 0, 54, 0
3, 102840, Note_on_c, 0, 50, 0
3, 102960, Note_on_c, 0, 54, 30
3, 102960, Note_on_c, 0, 50, 25
3, 103080, Note_on_c, 0, 50, 0
3, 103080, Note_on_c, 0, 54, 0
3, 103680, Note_on_c, 0, 50, 30
3, 103680, Note_on_c, 0, 54, 36
3, 103800, Note_on_c, 0, 54, 0
3, 103800, Note_on_c, 0, 50, 0
3, 103920, Note_on_c, 0, 54, 30
3, 103920, Note_on_c, 0, 50, 25
3, 104040, Note_on_c, 0, 50, 0
3, 104040, Note_on_c, 0, 54, 0
3, 104640, Note_on_c, 0, 62, 20
3, 104640, Note_on_c, 0, 66, 23
3, 104760, Note_on_c, 0, 66, 0
3, 104760, Note_on_c, 0, 62, 0
3, 104880, Note_on_c, 0, 66, 20
3, 104880, Note_on_c, 0, 62, 16
3, 105000, Note_on_c, 0, 62, 0
3, 105000, Note_on_c, 0, 66, 0
3, 105600, Note_on_c, 0, 66, 20
3, 105600, Note_on_c, 0, 62, 20
3, 105600, Note_on_c, 0, 69, 23
3, 105720, Note_on_c, 0, 69, 0
3, 105720, Note_on_c, 0, 62, 0
3, 105720, Note_on_c, 0, 66, 0
3, 105840, Note_on_c, 0, 66, 16
3, 105840, Note_on_c, 0, 69, 20
3, 105840, Note_on_c, 0, 62, 16
3, 105960, Note_on_c, 0, 62, 0
3, 105960, Note_on_c, 0, 69, 0
3, 105960, Note_on_c, 0, 66, 0
3, 106560, Note_on_c, 0, 66, 20
3, 106560, Note_on_c, 0, 62, 20
3, 106560, Note_on_c, 0, 69, 23
3, 106680, Note_on_c, 0, 69, 0
3, 106680, Note_on_c, 0, 62, 0
3, 106680, Note_on_c, 0, 66, 0
3, 106800, Note_on_c, 0, 66, 16
3, 106800, Note_on_c, 0, 69, 20
3, 106800, Note_on_c, 0, 62, 16
3, 106920, Note_on_c, 0, 62, 0
3, 106920, Note_on_c, 0, 69, 0
3, 106920, Note_on_c, 0, 66, 0
3, 109440, Note_on_c, 0, 59, 34
3, 109440, Note_on_c, 0, 67, 40
3, 109560, Note_on_c, 0, 67, 0
3, 109560, Note_on_c, 0, 59, 0
3, 109680, Note_on_c, 0, 67, 34
3, 109680, Note_on_c, 0, 59, 28
3, 109800, Note_on_c, 0, 59, 0
3, 109800, Note_on_c, 0, 67, 0
3, 110400, Note_on_c, 0, 62, 34
3, 110400, Note_on_c, 0, 69, 40
3, 110520, Note_on_c, 0, 69, 0
3, 110520, Note_on_c, 0, 62, 0
3, 110640, Note_on_c, 0, 69, 34
3, 110640, Note_on_c, 0, 62, 28
3, 110760, Note_on_c, 0, 62, 0
3, 110760, Note_on_c, 0, 69, 0
3, 111360, Note_on_c, 0, 67, 34
3, 111360, Note_on_c, 0, 71, 40
3, 111480, Note_on_c, 0, 71, 0
3, 111480, Note_on_c, 0, 67, 0
3, 111600, Note_on_c, 0, 71, 36
3, 111600, Note_on_c, 0, 67, 30
3, 111720, Note_on_c, 0, 67, 0
3, 111720, Note_on_c, 0, 71, 0
3, 111840, Note_on_c, 0, 67, 34
3, 111840, Note_on_c, 0, 71, 40
3, 111960, Note_on_c, 0, 71, 0
3, 111960, Note_on_c, 0, 67, 0
3, 112080, Note_on_c, 0, 71, 35
3, 112080, Note_on_c, 0, 67, 29
3, 112200, Note_on_c, 0, 67, 0
3, 112200, Note_on_c, 0, 71, 0
3, 112320, Note_on_c, 0, 62, 34
3, 112320, Note_on_c, 0, 69, 40
3, 112440, Note_on_c, 0, 69, 0
3, 112440, Note_on_c, 0, 62, 0
3, 112560, Note_on_c, 0, 69, 35
3, 112560, Note_on_c, 0, 62, 29
3, 112680, Note_on_c, 0, 62, 0
3, 112680, Note_on_c, 0, 69, 0
3, 113280, Note_on_c, 0, 66, 34
3, 113280, Note_on_c, 0, 72, 40
3, 113400, Note_on_c, 0, 72, 0
3, 113400, Note_on_c, 0, 66, 0
3, 113520, Note_on_c, 0, 72, 34
3, 113520, Note_on_c, 0, 66, 28
3, 113640, Note_on_c, 0, 66, 0
3, 113640, Note_on_c, 0, 72, 0
3, 114240, Note_on_c, 0, 67, 34
3, 114240, Note_on_c, 0, 71, 40
3, 114360, Note_on_c, 0, 71, 0
3, 114360, Note_on_c, 0, 67, 0
3, 114720, Note_on_c, 0, 67, 28
3, 114720, Note_on_c, 0, 71, 34
3, 114840, Note_on_c, 0, 71, 0
3, 114840, Note_on_c, 0, 67, 0
3, 115200, Note_on_c, 0, 62, 34
3, 115200, Note_on_c, 0, 69, 40
3, 115320, Note_on_c, 0, 69, 0
3, 115320, Note_on_c, 0, 62, 0
3, 115680, Note_on_c, 0, 62, 34
3, 115680, Note_on_c, 0, 69, 40
3, 115800, Note_on_c, 0, 69, 0
3, 115800, Note_on_c, 0, 62, 0
3, 116160, Note_on_c, 0, 59, 34
3, 116160, Note_on_c, 0, 67, 40
3, 116280, Note_on_c, 0, 67, 0
3, 116280, Note_on_c, 0, 59, 0
3, 117120, Note_on_c, 0, 55, 42
3, 117120, Note_on_c, 0, 59, 50
3, 117240, Note_on_c, 0, 59, 0
3, 117240, Note_on_c, 0, 55, 0
3, 117360, Note_on_c, 0, 59, 42
3, 117360, Note_on_c, 0, 55, 35
3, 117480, Note_on_c, 0, 55, 0
3, 117480, Note_on_c, 0, 59, 0
3, 118080, Note_on_c, 0, 57, 42
3, 118080, Note_on_c, 0, 60, 50
3, 118200, Note_on_c, 0, 60, 0
3, 118200, Note_on_c, 0, 57, 0
3, 118320, Note_on_c, 0, 60, 42
3, 118320, Note_on_c, 0, 57, 35
3, 118440, Note_on_c, 0, 57, 0
3, 118440, Note_on_c, 0, 60, 0
3, 119040, Note_on_c, 0, 55, 42
3, 119040, Note_on_c, 0, 59, 50
3, 119160, Note_on_c, 0, 59, 0
3, 119160, Note_on_c, 0, 55, 0
3, 119280, Note_on_c, 0, 59, 45
3, 119280, Note_on_c, 0, 55, 37
3, 119400, Note_on_c, 0, 55, 0
3, 119400, Note_on_c, 0, 59, 0
3, 119520, Note_on_c, 0, 55, 42
3, 119520, Note_on_c, 0, 59, 50
3, 119640, Note_on_c, 0, 59, 0
3, 119640, Note_on_c, 0, 55, 0
3, 119760, Note_on_c, 0, 59, 43
3, 119760, Note_on_c, 0, 55, 36
3, 119880, Note_on_c, 0, 55, 0
3, 119880, Note_on_c, 0, 59, 0
3, 120000, Note_on_c, 0, 50, 42
3, 120000, Note_on_c, 0, 57, 50
3, 120120, Note_on_c, 0, 57, 0
3, 120120, Note_on_c, 0, 50, 0
3, 120240, Note_on_c, 0, 57, 43
3, 120240, Note_on_c, 0, 50, 36
3, 120360, Note_on_c, 0, 50, 0
3, 120360, Note_on_c, 0, 57, 0
3, 120960, Note_on_c, 0, 54, 42
3, 120960, Note_on_c, 0, 60, 50
3, 121080, Note_on_c, 0, 60, 0
3, 121080, Note_on_c, 0, 54, 0
3, 121200, Note_on_c, 0, 60, 42
3, 121200, Note_on_c, 0, 54, 35
3, 121320, Note_on_c, 0, 54, 0
3, 121320, Note_on_c, 0, 60, 0
3, 121920, Note_on_c, 0, 55, 42
3, 121920, Note_on_c, 0, 59, 50
3, 122040, Note_on_c, 0, 59, 0
3, 122040, Note_on_c, 0, 55, 0
3, 122400, Note_on_c, 0, 55, 35
3, 122400, Note_on_c, 0, 59, 42
3, 122520, Note_on_c, 0, 59, 0
3, 122520, Note_on_c, 0, 55, 0
3, 122880, Note_on_c, 0, 50, 42
3, 122880, Note_on_c, 0, 57, 50
3, 123000, Note_on_c, 0, 57, 0
3, 123000, Note_on_c, 0, 50, 0
3, 123360, Note_on_c, 0, 50, 42
3, 123360, Note_on_c, 0, 57, 50
3, 123480, Note_on_c, 0, 57, 0
3, 123480, Note_on_c, 0, 50, 0
3, 123840, Note_on_c, 0, 55, 42
3, 123840, Note_on_c, 0, 59, 50
3, 123960, Note_on_c, 0, 59, 0
3, 123960, Note_on_c, 0, 55, 0
3, 124800, Note_on_c, 0, 64, 34
3, 124800, Note_on_c, 0, 67, 40
3, 125280, Note_on_c, 0, 67, 0
3, 125280, Note_on_c, 0, 64, 0
3, 125280, Note_on_c, 0, 67, 37
3, 125280, Note_on_c, 0, 64, 31
3, 125760, Note_on_c, 0, 64, 0
3, 125760, Note_on_c, 0, 67, 0
3, 125760, Note_on_c, 0, 62, 34
3, 125760, Note_on_c, 0, 66, 40
3, 126240, Note_on_c, 0, 66, 0
3, 126240, Note_on_c, 0, 62, 0
3, 126720, Note_on_c, 0, 64, 34
3, 126720, Note_on_c, 0, 67, 40
3, 127200, Note_on_c, 0, 67, 0
3, 127200, Note_on_c, 0, 64, 0
3, 127200, Note_on_c, 0, 67, 37
3, 127200, Note_on_c, 0, 64, 31
3, 127680, Note_on_c, 0, 64, 0
3, 127680, Note_on_c, 0, 67, 0
3, 127680, Note_on_c, 0, 62, 34
3, 127680, Note_on_c, 0, 66, 40
3, 128160, Note_on_c, 0, 66, 0
3, 128160, Note_on_c, 0, 62, 0
3, 128640, Note_on_c, 0, 64, 34
3, 128640, Note_on_c, 0, 67, 40
3, 129120, Note_on_c, 0, 67, 0
3, 129120, Note_on_c, 0, 64, 0
3, 129120, Note_on_c, 0, 67, 37
3, 129120, Note_on_c, 0, 64, 31
3, 129600, Note_on_c, 0, 64, 0
3, 129600, Note_on_c, 0, 67, 0
3, 129600, Note_on_c, 0, 62, 34
3, 129600, Note_on_c, 0, 66, 40
3, 130080, Note_on_c, 0, 66, 0
3, 130080, Note_on_c, 0, 62, 0
3, 130560, Note_on_c, 0, 57, 51
3, 130560, Note_on_c, 0, 64, 51
3, 130560, Note_on_c, 0, 67, 60
3, 131040, Note_on_c, 0, 67, 0
3, 131040, Note_on_c, 0, 64, 0
3, 131040, Note_on_c, 0, 57, 0
3, 131040, Note_on_c, 0, 67, 57
3, 131040, Note_on_c, 0, 64, 48
3, 131040, Note_on_c, 0, 57, 48
3, 131520, Note_on_c, 0, 57, 0
3, 131520, Note_on_c, 0, 64, 0
3, 131520, Note_on_c, 0, 67, 0
3, 131520, Note_on_c, 0, 62, 51
3, 131520, Note_on_c, 0, 66, 60
3, 132480, Note_on_c, 0, 66, 0
3, 132480, Note_on_c, 0, 62, 0
3, 132480, Note_on_c, 0, 62, 51
3, 132480, Note_on_c, 0, 67, 60
3, 133440, Note_on_c, 0, 67, 0
3, 133440, Note_on_c, 0, 62, 0
3, 133440, Note_on_c, 0, 62, 51
3, 133440, Note_on_c, 0, 69, 60
3, 134400, Note_on_c, 0, 69, 0
3, 134400, Note_on_c, 0, 62, 0
3, 136320, Note_on_c, 0, 59, 34
3, 136320, Note_on_c, 0, 67, 40
3, 136440, Note_on_c, 0, 67, 0
3, 136440, Note_on_c, 0, 59, 0
3, 136560, Note_on_c, 0, 67, 34
3, 136560, Note_on_c, 0, 59, 28
3, 136680, Note_on_c, 0, 59, 0
3, 136680, Note_on_c, 0, 67, 0
3, 137280, Note_on_c, 0, 62, 34
3, 137280, Note_on_c, 0, 69, 40
3, 137400, Note_on_c, 0, 69, 0
3, 137400, Note_on_c, 0, 62, 0
3, 137520, Note_on_c, 0, 69, 34
3, 137520, Note_on_c, 0, 62, 28
3, 137640, Note_on_c, 0, 62, 0
3, 137640, Note_on_c, 0, 69, 0
3, 138240, Note_on_c, 0, 67, 34
3, 138240, Note_on_c, 0, 71, 40
3, 138360, Note_on_c, 0, 71, 0
3, 138360, Note_on_c, 0, 67, 0
3, 138480, Note_on_c, 0, 71, 36
3, 138480, Note_on_c, 0, 67, 30
3, 138600, Note_on_c, 0, 67, 0
3, 138600, Note_on_c, 0, 71, 0
3, 138720, Note_on_c, 0, 67, 34
3, 138720, Note_on_c, 0, 71, 40
3, 138840, Note_on_c, 0, 71, 0
3, 138840, Note_on_c, 0, 67, 0
3, 138960, Note_on_c, 0, 71, 35
3, 138960, Note_on_c, 0, 67, 29
3, 139080, Note_on_c, 0, 67, 0
3, 139080, Note_on_c, 0, 71, 0
3, 139200, Note_on_c, 0, 62, 34
3, 139200, Note_on_c, 0, 69, 40
3, 139320, Note_on_c, 0, 69, 0
3, 139320, Note_on_c, 0, 62, 0
3, 139440, Note_on_c, 0, 69, 35
3, 139440, Note_on_c, 0, 62, 29
3, 139560, Note_on_c, 0, 62, 0
3, 139560, Note_on_c, 0, 69, 0
3, 140160, Note_on_c, 0, 66, 34
3, 140160, Note_on_c, 0, 72, 40
3, 140280, Note_on_c, 0, 72, 0
3, 140280, Note_on_c, 0, 66, 0
3, 140400, Note_on_c, 0, 72, 34
3, 140400, Note_on_c, 0, 66, 28
3, 140520, Note_on_c, 0, 66, 0
3, 140520, Note_on_c, 0, 72, 0
3, 141120, Note_on_c, 0, 67, 34
3, 141120, Note_on_c, 0, 71, 40
3, 141240, Note_on_c, 0, 71, 0
3, 141240, Note_on_c, 0, 67, 0
3, 141600, Note_on_c, 0, 67, 28
3, 141600, Note_on_c, 0, 71, 34
3, 141720, Note_on_c, 0, 71, 0
3, 141720, Note_on_c, 0, 67, 0
3, 142080, Note_on_c, 0, 62, 34
3, 142080, Note_on_c, 0, 69, 40
3, 142200, Note_on_c, 0, 69, 0
3, 142200, Note_on_c, 0, 62, 0
3, 142560, Note_on_c, 0, 62, 34
3, 142560, Note_on_c, 0, 69, 40
3, 142680, Note_on_c, 0, 69, 0
3, 142680, Note_on_c, 0, 62, 0
3, 143040, Note_on_c, 0, 59, 34
3, 143040, Note_on_c, 0, 67, 40
3, 143160, Note_on_c, 0, 67, 0
3, 143160, Note_on_c, 0, 59, 0
3, 144000, Note_on_c, 0, 43, 50
3, 144240, Note_on_c, 0, 43, 0
3, 144240, Note_on_c, 0, 47, 46
3, 144480, Note_on_c, 0, 47, 0
3, 144480, Note_on_c, 0, 50, 45
3, 144720, Note_on_c, 0, 50, 0
3, 144720, Note_on_c, 0, 55, 45
3, 144960, Note_on_c, 0, 55, 0
3, 144960, Note_on_c, 0, 45, 50
3, 145200, Note_on_c, 0, 45, 0
3, 145200, Note_on_c, 0, 48, 46
3, 145440, Note_on_c, 0, 48, 0
3, 145440, Note_on_c, 0, 50, 45
3, 145680, Note_on_c, 0, 50, 0
3, 145680, Note_on_c, 0, 54, 45
3, 145920, Note_on_c, 0, 54, 0
3, 145920, Note_on_c, 0, 43, 50
3, 146160, Note_on_c, 0, 43, 0
3, 146160, Note_on_c, 0, 47, 46
3, 146400, Note_on_c, 0, 47, 0
3, 146400, Note_on_c, 0, 50, 45
3, 146640, Note_on_c, 0, 50, 0
3, 146640, Note_on_c, 0, 55, 45
3, 146880, Note_on_c, 0, 55, 0
3, 146880, Note_on_c, 0, 38, 50
3, 147120, Note_on_c, 0, 38, 0
3, 147120, Note_on_c, 0, 50, 46
3, 147360, Note_on_c, 0, 50, 0
3, 147360, Note_on_c, 0, 54, 45
3, 147600, Note_on_c, 0, 54, 0
3, 147600, Note_on_c, 0, 57, 45
3, 147840, Note_on_c, 0, 57, 0
3, 147840, Note_on_c, 0, 60, 50
3, 147840, Note_on_c, 0, 54, 42
3, 147960, Note_on_c, 0, 54, 0
3, 147960, Note_on_c, 0, 60, 0
3, 148080, Note_on_c, 0, 54, 35
3, 148080, Note_on_c, 0, 60, 42
3, 148200, Note_on_c, 0, 60, 0
3, 148200, Note_on_c, 0, 54, 0
3, 148800, Note_on_c, 0, 59, 50
3, 148800, Note_on_c, 0, 55, 42
3, 148920, Note_on_c, 0, 55, 0
3, 148920, Note_on_c, 0, 59, 0
3, 149280, Note_on_c, 0, 59, 42
3, 149280, Note_on_c, 0, 55, 35
3, 149400, Note_on_c, 0, 55, 0
3, 149400, Note_on_c, 0, 59, 0
3, 149760, Note_on_c, 0, 57, 50
3, 149760, Note_on_c, 0, 50, 42
3, 149880, Note_on_c, 0, 50, 0
3, 149880, Note_on_c, 0, 57, 0
3, 150240, Note_on_c, 0, 50, 42
3, 150240, Note_on_c, 0, 57, 50
3, 150360, Note_on_c, 0, 57, 0
3, 150360, Note_on_c, 0, 50, 0
3, 150720, Note_on_c, 0, 43, 50
3, 150960, Note_on_c, 0, 43, 0
3, 150960, Note_on_c, 0, 45, 35
3, 151080, Note_on_c, 0, 45, 0
3, 151080, Note_on_c, 0, 47, 37
3, 151200, Note_on_c, 0, 47, 0
3, 151200, Note_on_c, 0, 48, 39
3, 151320, Note_on_c, 0, 48, 0
3, 151320, Note_on_c, 0, 50, 41
3, 151440, Note_on_c, 0, 50, 0
3, 151440, Note_on_c, 0, 52, 45
3, 151560, Note_on_c, 0, 52, 0
3, 151560, Note_on_c, 0, 54, 48
3, 151680, Note_on_c, 0, 54, 0
3, 151680, Note_on_c, 0, 55, 54
3, 151800, Note_on_c, 0, 55, 0
3, 152640, Note_on_c, 0, 43, 46
3, 152880, Note_on_c, 0, 43, 0
3, 152880, Note_on_c, 0, 45, 35
3, 153000, Note_on_c, 0, 45, 0
3, 153000, Note_on_c, 0, 47, 37
3, 153120, Note_on_c, 0, 47, 0
3, 153120, Note_on_c, 0, 48, 39
3, 153240, Note_on_c, 0, 48, 0
3, 153240, Note_on_c, 0, 50, 41
3, 153360, Note_on_c, 0, 50, 0
3, 153360, Note_on_c, 0, 52, 45
3, 153480, Note_on_c, 0, 52, 0
3, 153480, Note_on_c, 0, 54, 48
3, 153600, Note_on_c, 0, 54, 0
3, 153600, Note_on_c, 0, 55, 54
3, 153720, Note_on_c, 0, 55, 0
3, 154560, Note_on_c, 0, 43, 50
3, 154800, Note_on_c, 0, 43, 0
3, 154800, Note_on_c, 0, 45, 40
3, 154920, Note_on_c, 0, 45, 0
3, 154920, Note_on_c, 0, 47, 44
3, 155040, Note_on_c, 0, 47, 0
3, 155040, Note_on_c, 0, 48, 47
3, 155160, Note_on_c, 0, 48, 0
3, 155160, Note_on_c, 0, 50, 51
3, 155280, Note_on_c, 0, 50, 0
3, 155280, Note_on_c, 0, 52, 54
3, 155400, Note_on_c, 0, 52, 0
3, 155400, Note_on_c, 0, 54, 56
3, 155520, Note_on_c, 0, 54, 0
3, 155520, Note_on_c, 0, 55, 60
3, 155640, Note_on_c, 0, 55, 0
3, 155760, Note_on_c, 0, 60, 52
3, 155880, Note_on_c, 0, 60, 0
3, 156000, Note_on_c, 0, 59, 57
3, 156120, Note_on_c, 0, 59, 0
3, 156240, Note_on_c, 0, 60, 54
3, 156360, Note_on_c, 0, 60, 0
3, 156480, Note_on_c, 0, 59, 57
3, 156600, Note_on_c, 0, 59, 0
3, 156720, Note_on_c, 0, 59, 49
3, 156840, Note_on_c, 0, 59, 0
3, 156960, Note_on_c, 0, 60, 54
3, 157080, Note_on_c, 0, 60, 0
3, 157200, Note_on_c, 0, 60, 50
3, 157320, Note_on_c, 0, 60, 0
3, 157440, Note_on_c, 0, 62, 50
3, 157560, Note_on_c, 0, 62, 0
3, 157680, Note_on_c, 0, 62, 48
3, 157800, Note_on_c, 0, 62, 0
3, 157920, Note_on_c, 0, 50, 54
3, 158040, Note_on_c, 0, 50, 0
3, 158160, Note_on_c, 0, 50, 48
3, 158280, Note_on_c, 0, 50, 0
3, 158400, Note_on_c, 0, 55, 54
3, 158520, Note_on_c, 0, 55, 0
3, 159840, Note_on_c, 0, 62, 25
3, 159840, Note_on_c, 0, 69, 34
3, 160320, Note_on_c, 0, 69, 0
3, 160320, Note_on_c, 0, 62, 0
3, 160320, Note_on_c, 0, 67, 40
3, 160440, Note_on_c, 0, 67, 0
3, 161760, Note_on_c, 0, 62, 25
3, 161760, Note_on_c, 0, 69, 34
3, 162240, Note_on_c, 0, 69, 0
3, 162240, Note_on_c, 0, 62, 0
3, 162240, Note_on_c, 0, 67, 40
3, 162360, Note_on_c, 0, 67, 0
3, 162720, Note_on_c, 0, 50, 42
3, 162720, Note_on_c, 0, 62, 50
3, 162840, Note_on_c, 0, 62, 0
3, 162840, Note_on_c, 0, 50, 0
3, 163200, Note_on_c, 0, 59, 56
3, 163200, Note_on_c, 0, 55, 47
3, 163320, Note_on_c, 0, 55, 0
3, 163320, Note_on_c, 0, 59, 0
3, 163680, Note_on_c, 0, 50, 42
3, 163680, Note_on_c, 0, 62, 50
3, 163800, Note_on_c, 0, 62, 0
3, 163800, Note_on_c, 0, 50, 0
3, 164160, Note_on_c, 0, 59, 57
3, 164160, Note_on_c, 0, 55, 48
3, 164280, Note_on_c, 0, 55, 0
3, 164280, Note_on_c, 0, 59, 0
3, 164280, End_track
4, 0, Start_track
4, 0, Title_t, "Pedale"
4, 0, Program_c, 0, 0
4, 23104, Control_c, 0, 64, 127
4, 24021, Control_c, 0, 64, 0
4, 24071, Control_c, 0, 64, 127
4, 24981, Control_c, 0, 64, 0
4, 25052, Control_c, 0, 64, 127
4, 25934, Control_c, 0, 64, 0
4, 90283, Control_c, 0, 64, 127
4, 91200, Control_c, 0, 64, 0
4, 91292, Control_c, 0, 64, 127
4, 91689, Control_c, 0, 64, 0
4, 91786, Control_c, 0, 64, 127
4, 92160, Control_c, 0, 64, 0
4, 92316, Control_c, 0, 64, 127
4, 93120, Control_c, 0, 64, 0
4, 93172, Control_c, 0, 64, 127
4, 93615, Control_c, 0, 64, 0
4, 93675, Control_c, 0, 64, 127
4, 94086, Control_c, 0, 64, 0
4, 94144, Control_c, 0, 64, 127
4, 94576, Control_c, 0, 64, 0
4, 97970, Control_c, 0, 64, 127
4, 98410, Control_c, 0, 64, 0
4, 99918, Control_c, 0, 64, 127
4, 100334, Control_c, 0, 64, 0
4, 131584, Control_c, 0, 64, 127
4, 132501, Control_c, 0, 64, 0
4, 132551, Control_c, 0, 64, 127
4, 133461, Control_c, 0, 64, 0
4, 133532, Control_c, 0, 64, 127
4, 134414, Control_c, 0, 64, 0
4, 134414, End_track
5, 0, Start_track
5, 0, Title_t, "Clementi: Sonatatina Opus 26, No. 5, 3. movement"
5, 0, End_track
6, 0, Start_track
6, 0, Title_t, "Copyright © 2011 by Bernd Krueger"
6, 0, End_track
7, 0, Start_track
7, 0, Title_t, "http://www.piano-midi.de/"
7, 0, End_track
8, 0, Start_track
8, 0, Title_t, "Edition: 2011-01-08"
8, 0, End_track
9, 0, Start_track
9, 0, Title_t, "Spur 8"
9, 0, End_track
10, 0, Start_track
10, 0, Title_t, "Spur 9"
10, 0, End_track
11, 0, Start_track
11, 0, Title_t, "Spur 10"
11, 0, End_track
12, 0, Start_track
12, 0, Title_t, "Spur 11"
12, 0, End_track
13, 0, Start_track
13, 0, Title_t, "Spur 12"
13, 0, End_track
14, 0, Start_track
14, 0, Title_t, "Spur 13"
14, 0, End_track
15, 0, Start_track
15, 0, Title_t, "Spur 14"
15, 0, End_track
16, 0, Start_track
16, 0, Title_t, "Spur 15"
16, 0, End_track
17, 0, Start_track
17, 0, Title_t, "Spur 16"
17, 0, End_track
0, 0, End_of_file
