0, 0, Header, 1, 17, 480
1, 0, Start_track
1, 0, Title_t, "Clementi: Sonatine Opus 36 Nr. 3, 1. Satz"
1, 0, Copyright_t, "Copyright © 2010 by Bernd Krueger"
1, 0, Text_t, "Muzio Clementi"
1, 0, Text_t, "Spiritoso"
1, 0, Text_t, "Erstellt:  12.12.2010\012"
1, 0, Text_t, "Dauer: 2:54 Minuten\012"
1, 0, Time_signature, 4, 2, 24, 8
1, 0, Key_signature, 0, "major"
1, 0, Tempo, 475851
1, 0, Marker_t, "Teil 1"
1, 720, Tempo, 510247
1, 960, Tempo, 472106
1, 1680, Tempo, 508087
1, 1920, Tempo, 472106
1, 2640, Tempo, 491441
1, 2856, Tempo, 475851
1, 2952, Tempo, 473971
1, 3024, Tempo, 472106
1, 3096, Tempo, 470256
1, 3168, Tempo, 468421
1, 3240, Tempo, 466599
1, 3312, Tempo, 468421
1, 3360, Tempo, 470256
1, 3408, Tempo, 472106
1, 3480, Tempo, 473971
1, 3528, Tempo, 475851
1, 3576, Tempo, 477745
1, 3648, Tempo, 479655
1, 3696, Tempo, 481580
1, 3744, Tempo, 483520
1, 3792, Tempo, 485476
1, 3840, Tempo, 470256
1, 4560, Tempo, 489436
1, 4800, Tempo, 468421
1, 5520, Tempo, 505945
1, 5760, Tempo, 481580
1, 6720, Tempo, 475851
1, 6960, Tempo, 462999
1, 7440, Tempo, 487448
1, 7680, Tempo, 468421
1, 8160, Tempo, 475851
1, 8400, Tempo, 495499
1, 8640, Tempo, 470256
1, 9120, Tempo, 475851
1, 9360, Tempo, 491441
1, 9600, Tempo, 468421
1, 10080, Tempo, 475851
1, 10320, Tempo, 495499
1, 10560, Tempo, 470256
1, 11040, Tempo, 475851
1, 11280, Tempo, 491441
1, 11520, Tempo, 462999
1, 12360, Tempo, 512426
1, 12480, Tempo, 485476
1, 12600, Tempo, 472106
1, 13320, Tempo, 525901
1, 13440, Tempo, 468421
1, 13920, Tempo, 475851
1, 14160, Tempo, 495499
1, 14400, Tempo, 470256
1, 14880, Tempo, 475851
1, 15120, Tempo, 491441
1, 15360, Tempo, 468421
1, 15840, Tempo, 475851
1, 16080, Tempo, 495499
1, 16320, Tempo, 470256
1, 16800, Tempo, 475851
1, 17040, Tempo, 491441
1, 17280, Tempo, 472106
1, 17760, Tempo, 475851
1, 18120, Tempo, 479272
1, 18240, Tempo, 473971
1, 19080, Tempo, 503821
1, 19200, Tempo, 473971
1, 20040, Tempo, 510247
1, 20160, Tempo, 472106
1, 21000, Tempo, 540103
1, 21120, Tempo, 499625
1, 23040, Tempo, 468421
1, 23280, Tempo, 468421
1, 23400, Tempo, 508087
1, 23520, Tempo, 468421
1, 24000, Tempo, 464792
1, 24360, Tempo, 491441
1, 24480, Tempo, 466599
1, 24840, Tempo, 477745
1, 24960, Tempo, 485476
1, 25080, Tempo, 464792
1, 25680, Tempo, 473971
1, 25800, Tempo, 495499
1, 25920, Tempo, 483520
1, 26040, Tempo, 470256
1, 26160, Tempo, 464792
1, 26880, Tempo, 462999
1, 26895, Tempo, 454236
1, 26967, Tempo, 455962
1, 27039, Tempo, 457701
1, 27111, Tempo, 459453
1, 27183, Tempo, 461219
1, 27255, Tempo, 462999
1, 27327, Tempo, 464792
1, 27351, Tempo, 452523
1, 27423, Tempo, 454236
1, 27471, Tempo, 455962
1, 27519, Tempo, 457701
1, 27567, Tempo, 459453
1, 27615, Tempo, 461219
1, 27663, Tempo, 462999
1, 27720, Tempo, 493462
1, 27831, Tempo, 454236
1, 27975, Tempo, 455962
1, 28095, Tempo, 457701
1, 28215, Tempo, 459453
1, 28335, Tempo, 461219
1, 28479, Tempo, 462999
1, 28599, Tempo, 464792
1, 28719, Tempo, 466599
1, 28800, Tempo, 483520
1, 29040, Tempo, 461219
1, 29160, Tempo, 481580
1, 29247, Tempo, 470256
1, 29280, Tempo, 547495
1, 29367, Tempo, 468421
1, 29400, Tempo, 468421
1, 29463, Tempo, 466599
1, 29583, Tempo, 464792
1, 29679, Tempo, 462999
1, 29799, Tempo, 461219
1, 29895, Tempo, 459453
1, 30015, Tempo, 457701
1, 30111, Tempo, 455962
1, 30159, Tempo, 454236
1, 30303, Tempo, 452523
1, 30327, Tempo, 454236
1, 30360, Tempo, 489436
1, 30432, Tempo, 478507
1, 30448, Tempo, 480423
1, 30464, Tempo, 482354
1, 30480, Tempo, 484301
1, 30496, Tempo, 486263
1, 30512, Tempo, 488242
1, 30528, Tempo, 490236
1, 30544, Tempo, 492247
1, 30560, Tempo, 494275
1, 30576, Tempo, 496319
1, 30592, Tempo, 498380
1, 30608, Tempo, 500459
1, 30624, Tempo, 502555
1, 30640, Tempo, 504668
1, 30656, Tempo, 506800
1, 30672, Tempo, 508949
1, 30688, Tempo, 511117
1, 30704, Tempo, 515508
1, 30720, Tempo, 461219
1, 31200, Tempo, 530551
1, 31310, Tempo, 473971
1, 31368, Tempo, 472106
1, 31406, Tempo, 470256
1, 31445, Tempo, 468421
1, 31483, Tempo, 466599
1, 31522, Tempo, 464792
1, 31579, Tempo, 462999
1, 31618, Tempo, 461219
1, 31656, Tempo, 459453
1, 31694, Tempo, 457701
1, 31733, Tempo, 455962
1, 31771, Tempo, 454236
1, 32160, Tempo, 459453
1, 32190, Tempo, 461219
1, 32205, Tempo, 462999
1, 32235, Tempo, 464792
1, 32250, Tempo, 466599
1, 32280, Tempo, 468421
1, 32295, Tempo, 470256
1, 32325, Tempo, 472106
1, 32340, Tempo, 473971
1, 32370, Tempo, 475851
1, 32385, Tempo, 477745
1, 32415, Tempo, 479655
1, 32430, Tempo, 481580
1, 32460, Tempo, 483520
1, 32475, Tempo, 485476
1, 32505, Tempo, 487448
1, 32520, Tempo, 489436
1, 32550, Tempo, 491441
1, 32565, Tempo, 493462
1, 32595, Tempo, 495499
1, 32610, Tempo, 497554
1, 32640, Tempo, 472106
1, 32880, Tempo, 485476
1, 33120, Tempo, 472106
1, 33840, Tempo, 485476
1, 34080, Tempo, 472106
1, 34560, Tempo, 470256
1, 35760, Tempo, 483520
1, 36000, Tempo, 468421
1, 37200, Tempo, 489436
1, 37435, Tempo, 487448
1, 37495, Tempo, 485476
1, 37525, Tempo, 483520
1, 37555, Tempo, 481580
1, 37585, Tempo, 479655
1, 37615, Tempo, 477745
1, 37645, Tempo, 475851
1, 37675, Tempo, 473971
1, 37705, Tempo, 472106
1, 37735, Tempo, 470256
1, 37765, Tempo, 468421
1, 38065, Tempo, 468421
1, 38095, Tempo, 470256
1, 38125, Tempo, 472106
1, 38155, Tempo, 473971
1, 38185, Tempo, 475851
1, 38215, Tempo, 477745
1, 38245, Tempo, 479655
1, 38275, Tempo, 481580
1, 38305, Tempo, 483520
1, 38335, Tempo, 485476
1, 38400, Tempo, 506800
1, 38760, Tempo, 472106
1, 39360, Tempo, 475851
1, 39840, Tempo, 487448
1, 40080, Tempo, 521331
1, 40320, Tempo, 475851
1, 40868, Tempo, 479655
1, 41018, Tempo, 477745
1, 41138, Tempo, 475851
1, 41258, Tempo, 473971
1, 41378, Tempo, 472106
1, 41558, Tempo, 473971
1, 41708, Tempo, 475851
1, 41858, Tempo, 477745
1, 42008, Tempo, 479655
1, 42120, Tempo, 510247
1, 42240, Tempo, 475851
1, 42248, Tempo, 487448
1, 42338, Tempo, 485476
1, 42428, Tempo, 483520
1, 42488, Tempo, 481580
1, 42578, Tempo, 479655
1, 42638, Tempo, 477745
1, 42728, Tempo, 475851
1, 42788, Tempo, 473971
1, 43200, Tempo, 487448
1, 43255, Tempo, 485476
1, 43285, Tempo, 483520
1, 43315, Tempo, 481580
1, 43345, Tempo, 479655
1, 43375, Tempo, 477745
1, 43405, Tempo, 475851
1, 43435, Tempo, 473971
1, 43465, Tempo, 472106
1, 43495, Tempo, 470256
1, 43525, Tempo, 468421
1, 43825, Tempo, 468421
1, 43855, Tempo, 470256
1, 43885, Tempo, 472106
1, 43915, Tempo, 473971
1, 43945, Tempo, 475851
1, 43975, Tempo, 477745
1, 44005, Tempo, 479655
1, 44035, Tempo, 481580
1, 44065, Tempo, 483520
1, 44095, Tempo, 485476
1, 45120, Tempo, 461219
1, 45360, Tempo, 483520
1, 46080, Tempo, 461219
1, 46320, Tempo, 502555
1, 46560, Tempo, 482354
1, 47040, Tempo, 462999
1, 47280, Tempo, 481580
1, 47520, Tempo, 503821
1, 47760, Tempo, 537683
1, 48000, Tempo, 516840
1, 48120, Tempo, 519076
1, 48480, Tempo, 599460
1, 48720, Tempo, 673476
1, 48960, Tempo, 621182
1, 49080, Tempo, 617983
1, 49920, Tempo, 475851
1, 49920, Marker_t, "Teil 1 - Wiederholung"
1, 50640, Tempo, 510247
1, 50880, Tempo, 472106
1, 51600, Tempo, 508087
1, 51840, Tempo, 472106
1, 52560, Tempo, 491441
1, 52776, Tempo, 475851
1, 52872, Tempo, 473971
1, 52944, Tempo, 472106
1, 53016, Tempo, 470256
1, 53088, Tempo, 468421
1, 53160, Tempo, 466599
1, 53232, Tempo, 468421
1, 53280, Tempo, 470256
1, 53328, Tempo, 472106
1, 53400, Tempo, 473971
1, 53448, Tempo, 475851
1, 53496, Tempo, 477745
1, 53568, Tempo, 479655
1, 53616, Tempo, 481580
1, 53664, Tempo, 483520
1, 53712, Tempo, 485476
1, 53760, Tempo, 470256
1, 54480, Tempo, 489436
1, 54720, Tempo, 468421
1, 55440, Tempo, 505945
1, 55680, Tempo, 481580
1, 56640, Tempo, 475851
1, 56880, Tempo, 462999
1, 57360, Tempo, 487448
1, 57600, Tempo, 468421
1, 58080, Tempo, 475851
1, 58320, Tempo, 495499
1, 58560, Tempo, 470256
1, 59040, Tempo, 475851
1, 59280, Tempo, 491441
1, 59520, Tempo, 468421
1, 60000, Tempo, 475851
1, 60240, Tempo, 495499
1, 60480, Tempo, 470256
1, 60960, Tempo, 475851
1, 61200, Tempo, 491441
1, 61440, Tempo, 462999
1, 62280, Tempo, 512426
1, 62400, Tempo, 485476
1, 62520, Tempo, 472106
1, 63240, Tempo, 525901
1, 63360, Tempo, 468421
1, 63840, Tempo, 475851
1, 64080, Tempo, 495499
1, 64320, Tempo, 470256
1, 64800, Tempo, 475851
1, 65040, Tempo, 491441
1, 65280, Tempo, 468421
1, 65760, Tempo, 475851
1, 66000, Tempo, 495499
1, 66240, Tempo, 470256
1, 66720, Tempo, 475851
1, 66960, Tempo, 491441
1, 67200, Tempo, 472106
1, 67680, Tempo, 475851
1, 68040, Tempo, 460865
1, 68160, Tempo, 473971
1, 69000, Tempo, 503821
1, 69120, Tempo, 473971
1, 69960, Tempo, 510247
1, 70080, Tempo, 472106
1, 70920, Tempo, 540103
1, 71040, Tempo, 499625
1, 72960, Tempo, 468421
1, 73200, Tempo, 468421
1, 73320, Tempo, 508087
1, 73440, Tempo, 468421
1, 73920, Tempo, 464792
1, 74280, Tempo, 491441
1, 74400, Tempo, 466599
1, 74760, Tempo, 477745
1, 74880, Tempo, 485476
1, 75000, Tempo, 464792
1, 75600, Tempo, 473971
1, 75720, Tempo, 495499
1, 75840, Tempo, 483520
1, 75960, Tempo, 470256
1, 76080, Tempo, 464792
1, 76800, Tempo, 462999
1, 76815, Tempo, 454236
1, 76887, Tempo, 455962
1, 76959, Tempo, 457701
1, 77031, Tempo, 459453
1, 77103, Tempo, 461219
1, 77175, Tempo, 462999
1, 77247, Tempo, 464792
1, 77271, Tempo, 452523
1, 77343, Tempo, 454236
1, 77391, Tempo, 455962
1, 77439, Tempo, 457701
1, 77487, Tempo, 459453
1, 77535, Tempo, 461219
1, 77583, Tempo, 462999
1, 77640, Tempo, 493462
1, 77751, Tempo, 454236
1, 77895, Tempo, 455962
1, 78015, Tempo, 457701
1, 78135, Tempo, 459453
1, 78255, Tempo, 461219
1, 78399, Tempo, 462999
1, 78519, Tempo, 464792
1, 78639, Tempo, 466599
1, 78720, Tempo, 483520
1, 78960, Tempo, 461219
1, 79080, Tempo, 481580
1, 79167, Tempo, 470256
1, 79200, Tempo, 547495
1, 79287, Tempo, 468421
1, 79320, Tempo, 468421
1, 79383, Tempo, 466599
1, 79503, Tempo, 464792
1, 79599, Tempo, 462999
1, 79719, Tempo, 461219
1, 79815, Tempo, 459453
1, 79935, Tempo, 457701
1, 80031, Tempo, 455962
1, 80079, Tempo, 454236
1, 80223, Tempo, 452523
1, 80247, Tempo, 454236
1, 80280, Tempo, 489436
1, 80352, Tempo, 478507
1, 80368, Tempo, 480423
1, 80384, Tempo, 482354
1, 80400, Tempo, 484301
1, 80416, Tempo, 486263
1, 80432, Tempo, 488242
1, 80448, Tempo, 490236
1, 80464, Tempo, 492247
1, 80480, Tempo, 494275
1, 80496, Tempo, 496319
1, 80512, Tempo, 498380
1, 80528, Tempo, 500459
1, 80544, Tempo, 502555
1, 80560, Tempo, 504668
1, 80576, Tempo, 506800
1, 80592, Tempo, 508949
1, 80608, Tempo, 511117
1, 80624, Tempo, 515508
1, 80640, Tempo, 461219
1, 81120, Tempo, 530551
1, 81230, Tempo, 473971
1, 81288, Tempo, 472106
1, 81326, Tempo, 470256
1, 81365, Tempo, 468421
1, 81403, Tempo, 466599
1, 81442, Tempo, 464792
1, 81499, Tempo, 462999
1, 81538, Tempo, 461219
1, 81576, Tempo, 459453
1, 81614, Tempo, 457701
1, 81653, Tempo, 455962
1, 81691, Tempo, 454236
1, 82080, Tempo, 459453
1, 82110, Tempo, 461219
1, 82125, Tempo, 462999
1, 82155, Tempo, 464792
1, 82170, Tempo, 466599
1, 82200, Tempo, 468421
1, 82215, Tempo, 470256
1, 82245, Tempo, 472106
1, 82260, Tempo, 473971
1, 82290, Tempo, 475851
1, 82305, Tempo, 477745
1, 82335, Tempo, 479655
1, 82350, Tempo, 481580
1, 82380, Tempo, 483520
1, 82395, Tempo, 485476
1, 82425, Tempo, 487448
1, 82440, Tempo, 489436
1, 82470, Tempo, 491441
1, 82485, Tempo, 493462
1, 82515, Tempo, 495499
1, 82530, Tempo, 497554
1, 82560, Tempo, 472106
1, 82800, Tempo, 485476
1, 83040, Tempo, 472106
1, 83760, Tempo, 485476
1, 84000, Tempo, 472106
1, 84480, Tempo, 470256
1, 85680, Tempo, 483520
1, 85920, Tempo, 468421
1, 87120, Tempo, 489436
1, 87355, Tempo, 487448
1, 87415, Tempo, 485476
1, 87445, Tempo, 483520
1, 87475, Tempo, 481580
1, 87505, Tempo, 479655
1, 87535, Tempo, 477745
1, 87565, Tempo, 475851
1, 87595, Tempo, 473971
1, 87625, Tempo, 472106
1, 87655, Tempo, 470256
1, 87685, Tempo, 468421
1, 87985, Tempo, 468421
1, 88015, Tempo, 470256
1, 88045, Tempo, 472106
1, 88075, Tempo, 473971
1, 88105, Tempo, 475851
1, 88135, Tempo, 477745
1, 88165, Tempo, 479655
1, 88195, Tempo, 481580
1, 88225, Tempo, 483520
1, 88255, Tempo, 485476
1, 88320, Tempo, 506800
1, 88680, Tempo, 472106
1, 89280, Tempo, 475851
1, 89760, Tempo, 487448
1, 90000, Tempo, 521331
1, 90240, Tempo, 475851
1, 90788, Tempo, 479655
1, 90938, Tempo, 477745
1, 91058, Tempo, 475851
1, 91178, Tempo, 473971
1, 91298, Tempo, 472106
1, 91478, Tempo, 473971
1, 91628, Tempo, 475851
1, 91778, Tempo, 477745
1, 91928, Tempo, 479655
1, 92040, Tempo, 510247
1, 92160, Tempo, 475851
1, 92168, Tempo, 487448
1, 92258, Tempo, 485476
1, 92348, Tempo, 483520
1, 92408, Tempo, 481580
1, 92498, Tempo, 479655
1, 92558, Tempo, 477745
1, 92648, Tempo, 475851
1, 92708, Tempo, 473971
1, 93120, Tempo, 487448
1, 93175, Tempo, 485476
1, 93205, Tempo, 483520
1, 93235, Tempo, 481580
1, 93265, Tempo, 479655
1, 93295, Tempo, 477745
1, 93325, Tempo, 475851
1, 93355, Tempo, 473971
1, 93385, Tempo, 472106
1, 93415, Tempo, 470256
1, 93445, Tempo, 468421
1, 93745, Tempo, 468421
1, 93775, Tempo, 470256
1, 93805, Tempo, 472106
1, 93835, Tempo, 473971
1, 93865, Tempo, 475851
1, 93895, Tempo, 477745
1, 93925, Tempo, 479655
1, 93955, Tempo, 481580
1, 93985, Tempo, 483520
1, 94015, Tempo, 485476
1, 95040, Tempo, 461219
1, 95280, Tempo, 483520
1, 96000, Tempo, 461219
1, 96240, Tempo, 502555
1, 96480, Tempo, 482354
1, 96960, Tempo, 462999
1, 97200, Tempo, 481580
1, 97440, Tempo, 503821
1, 97680, Tempo, 537683
1, 97920, Tempo, 516840
1, 98040, Tempo, 519076
1, 98400, Tempo, 599460
1, 98640, Tempo, 673476
1, 98880, Tempo, 621182
1, 99000, Tempo, 617983
1, 99840, Tempo, 475851
1, 99840, Marker_t, "Teil 2"
1, 100560, Tempo, 510247
1, 100800, Tempo, 472106
1, 101520, Tempo, 508087
1, 101760, Tempo, 472851
1, 102480, Tempo, 515508
1, 102600, Tempo, 470995
1, 103440, Tempo, 508949
1, 103680, Tempo, 475851
1, 104400, Tempo, 510247
1, 104640, Tempo, 472106
1, 105360, Tempo, 508087
1, 105600, Tempo, 472851
1, 106320, Tempo, 515508
1, 106440, Tempo, 470995
1, 107280, Tempo, 490236
1, 107520, Tempo, 472106
1, 107760, Tempo, 485476
1, 108000, Tempo, 472106
1, 108720, Tempo, 485476
1, 108960, Tempo, 465513
1, 109440, Tempo, 470995
1, 109680, Tempo, 485476
1, 109920, Tempo, 472106
1, 110640, Tempo, 485476
1, 110880, Tempo, 465513
1, 111360, Tempo, 469153
1, 112320, Tempo, 474721
1, 113040, Tempo, 502555
1, 113280, Tempo, 478507
1, 114000, Tempo, 492247
1, 114240, Tempo, 478507
1, 114960, Tempo, 513303
1, 115200, Tempo, 490236
1, 115299, Tempo, 486263
1, 115555, Tempo, 488242
1, 115811, Tempo, 490236
1, 116067, Tempo, 492247
1, 116163, Tempo, 513303
1, 116643, Tempo, 513303
1, 116675, Tempo, 515508
1, 116707, Tempo, 519976
1, 116739, Tempo, 522239
1, 116771, Tempo, 526824
1, 116803, Tempo, 515508
1, 116867, Tempo, 517732
1, 116880, Tempo, 566626
1, 117120, Tempo, 475851
1, 117840, Tempo, 510247
1, 118080, Tempo, 472106
1, 118800, Tempo, 508087
1, 119040, Tempo, 472106
1, 119760, Tempo, 491441
1, 119976, Tempo, 475851
1, 120072, Tempo, 473971
1, 120144, Tempo, 472106
1, 120216, Tempo, 470256
1, 120288, Tempo, 468421
1, 120360, Tempo, 466599
1, 120432, Tempo, 468421
1, 120480, Tempo, 470256
1, 120528, Tempo, 472106
1, 120600, Tempo, 473971
1, 120648, Tempo, 475851
1, 120696, Tempo, 477745
1, 120768, Tempo, 479655
1, 120816, Tempo, 481580
1, 120864, Tempo, 483520
1, 120912, Tempo, 485476
1, 120960, Tempo, 470256
1, 121680, Tempo, 489436
1, 121920, Tempo, 468421
1, 122640, Tempo, 505945
1, 122880, Tempo, 481580
1, 123840, Tempo, 475851
1, 124080, Tempo, 462999
1, 124560, Tempo, 487448
1, 124800, Tempo, 468421
1, 125280, Tempo, 475851
1, 125520, Tempo, 495499
1, 125760, Tempo, 470256
1, 126240, Tempo, 475851
1, 126480, Tempo, 491441
1, 126720, Tempo, 468421
1, 127200, Tempo, 475851
1, 127440, Tempo, 478507
1, 127680, Tempo, 470256
1, 128160, Tempo, 475851
1, 128400, Tempo, 491441
1, 128640, Tempo, 472106
1, 129120, Tempo, 470256
1, 129360, Tempo, 461219
1, 129600, Tempo, 473971
1, 129720, Tempo, 470256
1, 130080, Tempo, 470256
1, 130320, Tempo, 466599
1, 130560, Tempo, 470256
1, 131040, Tempo, 470256
1, 131280, Tempo, 473971
1, 131520, Tempo, 472106
1, 132000, Tempo, 475851
1, 132240, Tempo, 468421
1, 132480, Tempo, 472106
1, 133320, Tempo, 466599
1, 133440, Tempo, 470256
1, 133920, Tempo, 475851
1, 134400, Tempo, 472106
1, 134880, Tempo, 475851
1, 135240, Tempo, 493462
1, 135427, Tempo, 482354
1, 135555, Tempo, 484301
1, 135651, Tempo, 486263
1, 135747, Tempo, 488242
1, 135843, Tempo, 490236
1, 135971, Tempo, 492247
1, 136067, Tempo, 494275
1, 136163, Tempo, 496319
1, 136259, Tempo, 498380
1, 136800, Tempo, 488242
1, 137280, Tempo, 500459
1, 137760, Tempo, 490236
1, 138240, Tempo, 500459
1, 138720, Tempo, 490236
1, 139200, Tempo, 504668
1, 139680, Tempo, 494275
1, 140040, Tempo, 506800
1, 142080, Tempo, 468421
1, 142320, Tempo, 468421
1, 142440, Tempo, 508087
1, 142560, Tempo, 468421
1, 143040, Tempo, 464792
1, 143400, Tempo, 491441
1, 143520, Tempo, 466599
1, 143880, Tempo, 477745
1, 144000, Tempo, 485476
1, 144120, Tempo, 464792
1, 144720, Tempo, 473971
1, 144840, Tempo, 495499
1, 144960, Tempo, 483520
1, 145080, Tempo, 470256
1, 145200, Tempo, 464792
1, 145920, Tempo, 462999
1, 145935, Tempo, 454236
1, 146007, Tempo, 455962
1, 146079, Tempo, 457701
1, 146151, Tempo, 459453
1, 146223, Tempo, 461219
1, 146295, Tempo, 462999
1, 146367, Tempo, 464792
1, 146391, Tempo, 452523
1, 146463, Tempo, 454236
1, 146511, Tempo, 455962
1, 146559, Tempo, 457701
1, 146607, Tempo, 459453
1, 146655, Tempo, 461219
1, 146703, Tempo, 462999
1, 146760, Tempo, 493462
1, 146871, Tempo, 454236
1, 147015, Tempo, 455962
1, 147135, Tempo, 457701
1, 147255, Tempo, 459453
1, 147375, Tempo, 461219
1, 147519, Tempo, 462999
1, 147639, Tempo, 464792
1, 147759, Tempo, 466599
1, 147840, Tempo, 483520
1, 148080, Tempo, 461219
1, 148200, Tempo, 481580
1, 148287, Tempo, 470256
1, 148320, Tempo, 547495
1, 148407, Tempo, 468421
1, 148440, Tempo, 468421
1, 148503, Tempo, 466599
1, 148623, Tempo, 464792
1, 148719, Tempo, 462999
1, 148839, Tempo, 461219
1, 148935, Tempo, 459453
1, 149055, Tempo, 457701
1, 149151, Tempo, 455962
1, 149199, Tempo, 454236
1, 149343, Tempo, 452523
1, 149367, Tempo, 454236
1, 149400, Tempo, 489436
1, 149472, Tempo, 478507
1, 149488, Tempo, 480423
1, 149504, Tempo, 482354
1, 149520, Tempo, 484301
1, 149536, Tempo, 486263
1, 149552, Tempo, 488242
1, 149568, Tempo, 490236
1, 149584, Tempo, 492247
1, 149600, Tempo, 494275
1, 149616, Tempo, 496319
1, 149632, Tempo, 498380
1, 149648, Tempo, 500459
1, 149664, Tempo, 502555
1, 149680, Tempo, 504668
1, 149696, Tempo, 506800
1, 149712, Tempo, 508949
1, 149728, Tempo, 511117
1, 149744, Tempo, 515508
1, 149760, Tempo, 461219
1, 150240, Tempo, 530551
1, 150350, Tempo, 473971
1, 150408, Tempo, 472106
1, 150446, Tempo, 470256
1, 150485, Tempo, 468421
1, 150523, Tempo, 466599
1, 150562, Tempo, 464792
1, 150619, Tempo, 462999
1, 150658, Tempo, 461219
1, 150696, Tempo, 459453
1, 150734, Tempo, 457701
1, 150773, Tempo, 455962
1, 150811, Tempo, 454236
1, 151200, Tempo, 459453
1, 151230, Tempo, 461219
1, 151245, Tempo, 462999
1, 151275, Tempo, 464792
1, 151290, Tempo, 466599
1, 151320, Tempo, 468421
1, 151335, Tempo, 470256
1, 151365, Tempo, 472106
1, 151380, Tempo, 473971
1, 151410, Tempo, 475851
1, 151425, Tempo, 477745
1, 151455, Tempo, 479655
1, 151470, Tempo, 481580
1, 151500, Tempo, 483520
1, 151515, Tempo, 485476
1, 151545, Tempo, 487448
1, 151560, Tempo, 489436
1, 151590, Tempo, 491441
1, 151605, Tempo, 493462
1, 151635, Tempo, 495499
1, 151650, Tempo, 497554
1, 151680, Tempo, 472106
1, 151920, Tempo, 485476
1, 152160, Tempo, 472106
1, 152880, Tempo, 485476
1, 153120, Tempo, 472106
1, 153600, Tempo, 470256
1, 154800, Tempo, 483520
1, 155040, Tempo, 468421
1, 156240, Tempo, 489436
1, 156475, Tempo, 487448
1, 156535, Tempo, 485476
1, 156565, Tempo, 483520
1, 156595, Tempo, 481580
1, 156625, Tempo, 479655
1, 156655, Tempo, 477745
1, 156685, Tempo, 475851
1, 156715, Tempo, 473971
1, 156745, Tempo, 472106
1, 156775, Tempo, 470256
1, 156805, Tempo, 468421
1, 157105, Tempo, 468421
1, 157135, Tempo, 470256
1, 157165, Tempo, 472106
1, 157195, Tempo, 473971
1, 157225, Tempo, 475851
1, 157255, Tempo, 477745
1, 157285, Tempo, 479655
1, 157315, Tempo, 481580
1, 157345, Tempo, 483520
1, 157375, Tempo, 485476
1, 157440, Tempo, 483520
1, 157680, Tempo, 461219
1, 157800, Tempo, 481580
1, 157887, Tempo, 470256
1, 157920, Tempo, 547495
1, 158007, Tempo, 468421
1, 158040, Tempo, 468421
1, 158103, Tempo, 466599
1, 158223, Tempo, 464792
1, 158319, Tempo, 462999
1, 158439, Tempo, 461219
1, 158535, Tempo, 459453
1, 158655, Tempo, 457701
1, 158751, Tempo, 455962
1, 158799, Tempo, 454236
1, 158943, Tempo, 452523
1, 158967, Tempo, 454236
1, 159000, Tempo, 489436
1, 159072, Tempo, 478507
1, 159088, Tempo, 480423
1, 159104, Tempo, 482354
1, 159120, Tempo, 484301
1, 159136, Tempo, 486263
1, 159152, Tempo, 488242
1, 159168, Tempo, 490236
1, 159184, Tempo, 492247
1, 159200, Tempo, 494275
1, 159216, Tempo, 496319
1, 159232, Tempo, 498380
1, 159248, Tempo, 500459
1, 159264, Tempo, 502555
1, 159280, Tempo, 504668
1, 159296, Tempo, 506800
1, 159312, Tempo, 508949
1, 159328, Tempo, 511117
1, 159344, Tempo, 515508
1, 159360, Tempo, 461219
1, 159840, Tempo, 530551
1, 159950, Tempo, 473971
1, 160008, Tempo, 472106
1, 160046, Tempo, 470256
1, 160085, Tempo, 468421
1, 160123, Tempo, 466599
1, 160162, Tempo, 464792
1, 160219, Tempo, 462999
1, 160258, Tempo, 461219
1, 160296, Tempo, 459453
1, 160334, Tempo, 457701
1, 160373, Tempo, 455962
1, 160411, Tempo, 454236
1, 160800, Tempo, 459453
1, 160830, Tempo, 461219
1, 160845, Tempo, 462999
1, 160875, Tempo, 464792
1, 160890, Tempo, 466599
1, 160920, Tempo, 468421
1, 160935, Tempo, 470256
1, 160965, Tempo, 472106
1, 160980, Tempo, 473971
1, 161010, Tempo, 475851
1, 161025, Tempo, 477745
1, 161055, Tempo, 479655
1, 161070, Tempo, 481580
1, 161100, Tempo, 483520
1, 161115, Tempo, 485476
1, 161145, Tempo, 487448
1, 161160, Tempo, 489436
1, 161190, Tempo, 491441
1, 161205, Tempo, 493462
1, 161235, Tempo, 495499
1, 161250, Tempo, 497554
1, 161280, Tempo, 506800
1, 161640, Tempo, 472106
1, 162240, Tempo, 475851
1, 162720, Tempo, 487448
1, 162960, Tempo, 521331
1, 163200, Tempo, 475851
1, 163748, Tempo, 479655
1, 163898, Tempo, 477745
1, 164018, Tempo, 475851
1, 164138, Tempo, 473971
1, 164258, Tempo, 472106
1, 164438, Tempo, 473971
1, 164588, Tempo, 475851
1, 164738, Tempo, 477745
1, 164888, Tempo, 479655
1, 165000, Tempo, 510247
1, 165120, Tempo, 475851
1, 165128, Tempo, 487448
1, 165218, Tempo, 485476
1, 165308, Tempo, 483520
1, 165368, Tempo, 481580
1, 165458, Tempo, 479655
1, 165518, Tempo, 477745
1, 165608, Tempo, 475851
1, 165668, Tempo, 473971
1, 166080, Tempo, 487448
1, 166135, Tempo, 485476
1, 166165, Tempo, 483520
1, 166195, Tempo, 481580
1, 166225, Tempo, 479655
1, 166255, Tempo, 477745
1, 166285, Tempo, 475851
1, 166315, Tempo, 473971
1, 166345, Tempo, 472106
1, 166375, Tempo, 470256
1, 166405, Tempo, 468421
1, 166705, Tempo, 468421
1, 166735, Tempo, 470256
1, 166765, Tempo, 472106
1, 166795, Tempo, 473971
1, 166825, Tempo, 475851
1, 166855, Tempo, 477745
1, 166885, Tempo, 479655
1, 166915, Tempo, 481580
1, 166945, Tempo, 483520
1, 166975, Tempo, 485476
1, 168000, Tempo, 461219
1, 168240, Tempo, 483520
1, 168960, Tempo, 461219
1, 169200, Tempo, 502555
1, 169440, Tempo, 482354
1, 169920, Tempo, 462999
1, 170160, Tempo, 535284
1, 170400, Tempo, 516840
1, 170640, Tempo, 595297
1, 170880, Tempo, 636335
1, 171360, Tempo, 761518
1, 171600, Tempo, 940586
1, 171840, Tempo, 738098
1, 171840, End_track
2, 0, Start_track
2, 0, Title_t, "Piano right"
2, 0, Program_c, 0, 0
2, 0, Note_on_c, 0, 79, 70
2, 720, Note_on_c, 0, 79, 0
2, 720, Note_on_c, 0, 76, 65
2, 960, Note_on_c, 0, 76, 0
2, 960, Note_on_c, 0, 72, 70
2, 1200, Note_on_c, 0, 72, 0
2, 1200, Note_on_c, 0, 67, 65
2, 1320, Note_on_c, 0, 67, 0
2, 1440, Note_on_c, 0, 67, 65
2, 1560, Note_on_c, 0, 67, 0
2, 1680, Note_on_c, 0, 67, 65
2, 1800, Note_on_c, 0, 67, 0
2, 1920, Note_on_c, 0, 79, 70
2, 2640, Note_on_c, 0, 79, 0
2, 2640, Note_on_c, 0, 76, 59
2, 2880, Note_on_c, 0, 76, 0
2, 2880, Note_on_c, 0, 72, 63
2, 3000, Note_on_c, 0, 72, 0
2, 3000, Note_on_c, 0, 74, 61
2, 3120, Note_on_c, 0, 74, 0
2, 3120, Note_on_c, 0, 76, 62
2, 3240, Note_on_c, 0, 76, 0
2, 3240, Note_on_c, 0, 77, 63
2, 3360, Note_on_c, 0, 77, 0
2, 3360, Note_on_c, 0, 79, 64
2, 3480, Note_on_c, 0, 79, 0
2, 3480, Note_on_c, 0, 81, 65
2, 3600, Note_on_c, 0, 81, 0
2, 3600, Note_on_c, 0, 83, 67
2, 3720, Note_on_c, 0, 83, 0
2, 3720, Note_on_c, 0, 84, 70
2, 3840, Note_on_c, 0, 84, 0
2, 3840, Note_on_c, 0, 83, 76
2, 4080, Note_on_c, 0, 83, 0
2, 4080, Note_on_c, 0, 81, 65
2, 4200, Note_on_c, 0, 81, 0
2, 4320, Note_on_c, 0, 81, 70
2, 4440, Note_on_c, 0, 81, 0
2, 4560, Note_on_c, 0, 81, 68
2, 4680, Note_on_c, 0, 81, 0
2, 4800, Note_on_c, 0, 83, 70
2, 4920, Note_on_c, 0, 83, 0
2, 4920, Note_on_c, 0, 81, 64
2, 5040, Note_on_c, 0, 81, 0
2, 5040, Note_on_c, 0, 80, 70
2, 5160, Note_on_c, 0, 80, 0
2, 5160, Note_on_c, 0, 81, 65
2, 5280, Note_on_c, 0, 81, 0
2, 5280, Note_on_c, 0, 84, 70
2, 5460, Note_on_c, 0, 84, 0
2, 5520, Note_on_c, 0, 81, 63
2, 5700, Note_on_c, 0, 81, 0
2, 5760, Note_on_c, 0, 78, 73
2, 6000, Note_on_c, 0, 78, 0
2, 6000, Note_on_c, 0, 79, 65
2, 6120, Note_on_c, 0, 79, 0
2, 6240, Note_on_c, 0, 79, 70
2, 6360, Note_on_c, 0, 79, 0
2, 6480, Note_on_c, 0, 79, 64
2, 6600, Note_on_c, 0, 79, 0
2, 6720, Note_on_c, 0, 79, 71
2, 7200, Note_on_c, 0, 79, 0
2, 7680, Note_on_c, 0, 74, 42
2, 7680, Note_on_c, 0, 77, 50
2, 7800, Note_on_c, 0, 77, 0
2, 7800, Note_on_c, 0, 74, 0
2, 7920, Note_on_c, 0, 77, 46
2, 7920, Note_on_c, 0, 74, 39
2, 8040, Note_on_c, 0, 74, 0
2, 8040, Note_on_c, 0, 77, 0
2, 8160, Note_on_c, 0, 72, 42
2, 8160, Note_on_c, 0, 76, 50
2, 8280, Note_on_c, 0, 76, 0
2, 8280, Note_on_c, 0, 72, 0
2, 8400, Note_on_c, 0, 76, 41
2, 8400, Note_on_c, 0, 72, 34
2, 8520, Note_on_c, 0, 72, 0
2, 8520, Note_on_c, 0, 76, 0
2, 8640, Note_on_c, 0, 71, 42
2, 8640, Note_on_c, 0, 74, 50
2, 9120, Note_on_c, 0, 74, 0
2, 9120, Note_on_c, 0, 71, 0
2, 9600, Note_on_c, 0, 76, 42
2, 9600, Note_on_c, 0, 79, 50
2, 9720, Note_on_c, 0, 79, 0
2, 9720, Note_on_c, 0, 76, 0
2, 9840, Note_on_c, 0, 79, 46
2, 9840, Note_on_c, 0, 76, 39
2, 9960, Note_on_c, 0, 76, 0
2, 9960, Note_on_c, 0, 79, 0
2, 10080, Note_on_c, 0, 74, 42
2, 10080, Note_on_c, 0, 77, 50
2, 10200, Note_on_c, 0, 77, 0
2, 10200, Note_on_c, 0, 74, 0
2, 10320, Note_on_c, 0, 77, 41
2, 10320, Note_on_c, 0, 74, 34
2, 10440, Note_on_c, 0, 74, 0
2, 10440, Note_on_c, 0, 77, 0
2, 10560, Note_on_c, 0, 72, 42
2, 10560, Note_on_c, 0, 76, 50
2, 11040, Note_on_c, 0, 76, 0
2, 11040, Note_on_c, 0, 72, 0
2, 11520, Note_on_c, 0, 81, 58
2, 11640, Note_on_c, 0, 81, 0
2, 11640, Note_on_c, 0, 77, 43
2, 11760, Note_on_c, 0, 77, 0
2, 11760, Note_on_c, 0, 76, 43
2, 11880, Note_on_c, 0, 76, 0
2, 11880, Note_on_c, 0, 74, 43
2, 12000, Note_on_c, 0, 74, 0
2, 12000, Note_on_c, 0, 81, 50
2, 12120, Note_on_c, 0, 81, 0
2, 12120, Note_on_c, 0, 77, 43
2, 12240, Note_on_c, 0, 77, 0
2, 12240, Note_on_c, 0, 76, 43
2, 12360, Note_on_c, 0, 76, 0
2, 12360, Note_on_c, 0, 74, 43
2, 12480, Note_on_c, 0, 74, 0
2, 12480, Note_on_c, 0, 76, 58
2, 12600, Note_on_c, 0, 76, 0
2, 12600, Note_on_c, 0, 79, 42
2, 12720, Note_on_c, 0, 79, 0
2, 12720, Note_on_c, 0, 76, 42
2, 12840, Note_on_c, 0, 76, 0
2, 12840, Note_on_c, 0, 72, 42
2, 12960, Note_on_c, 0, 72, 0
2, 12960, Note_on_c, 0, 74, 54
2, 13080, Note_on_c, 0, 74, 0
2, 13080, Note_on_c, 0, 77, 45
2, 13200, Note_on_c, 0, 77, 0
2, 13200, Note_on_c, 0, 74, 45
2, 13320, Note_on_c, 0, 74, 0
2, 13320, Note_on_c, 0, 71, 45
2, 13440, Note_on_c, 0, 71, 0
2, 13440, Note_on_c, 0, 72, 50
2, 13560, Note_on_c, 0, 72, 0
2, 13680, Note_on_c, 0, 72, 46
2, 13800, Note_on_c, 0, 72, 0
2, 13920, Note_on_c, 0, 71, 42
2, 13920, Note_on_c, 0, 74, 50
2, 14040, Note_on_c, 0, 74, 0
2, 14040, Note_on_c, 0, 71, 0
2, 14160, Note_on_c, 0, 74, 41
2, 14160, Note_on_c, 0, 71, 34
2, 14280, Note_on_c, 0, 71, 0
2, 14280, Note_on_c, 0, 74, 0
2, 14400, Note_on_c, 0, 72, 42
2, 14400, Note_on_c, 0, 76, 50
2, 14640, Note_on_c, 0, 76, 0
2, 14640, Note_on_c, 0, 72, 0
2, 15360, Note_on_c, 0, 62, 46
2, 15360, Note_on_c, 0, 65, 55
2, 15480, Note_on_c, 0, 65, 0
2, 15480, Note_on_c, 0, 62, 0
2, 15600, Note_on_c, 0, 65, 50
2, 15600, Note_on_c, 0, 62, 42
2, 15720, Note_on_c, 0, 62, 0
2, 15720, Note_on_c, 0, 65, 0
2, 15840, Note_on_c, 0, 60, 46
2, 15840, Note_on_c, 0, 64, 55
2, 15960, Note_on_c, 0, 64, 0
2, 15960, Note_on_c, 0, 60, 0
2, 16080, Note_on_c, 0, 64, 45
2, 16080, Note_on_c, 0, 60, 37
2, 16200, Note_on_c, 0, 60, 0
2, 16200, Note_on_c, 0, 64, 0
2, 16320, Note_on_c, 0, 59, 46
2, 16320, Note_on_c, 0, 62, 55
2, 16800, Note_on_c, 0, 62, 0
2, 16800, Note_on_c, 0, 59, 0
2, 17280, Note_on_c, 0, 67, 61
2, 17280, Note_on_c, 0, 64, 51
2, 17400, Note_on_c, 0, 64, 0
2, 17400, Note_on_c, 0, 67, 0
2, 17520, Note_on_c, 0, 64, 45
2, 17520, Note_on_c, 0, 67, 54
2, 17640, Note_on_c, 0, 67, 0
2, 17640, Note_on_c, 0, 64, 0
2, 17760, Note_on_c, 0, 71, 62
2, 17760, Note_on_c, 0, 65, 52
2, 17880, Note_on_c, 0, 65, 0
2, 17880, Note_on_c, 0, 71, 0
2, 18000, Note_on_c, 0, 65, 45
2, 18000, Note_on_c, 0, 71, 54
2, 18120, Note_on_c, 0, 71, 0
2, 18120, Note_on_c, 0, 65, 0
2, 18240, Note_on_c, 0, 72, 65
2, 18240, Note_on_c, 0, 64, 55
2, 18360, Note_on_c, 0, 64, 0
2, 18360, Note_on_c, 0, 72, 0
2, 18480, Note_on_c, 0, 64, 45
2, 18480, Note_on_c, 0, 72, 54
2, 18600, Note_on_c, 0, 72, 0
2, 18600, Note_on_c, 0, 64, 0
2, 18720, Note_on_c, 0, 67, 58
2, 18720, Note_on_c, 0, 73, 69
2, 18840, Note_on_c, 0, 73, 0
2, 18840, Note_on_c, 0, 67, 0
2, 18960, Note_on_c, 0, 67, 52
2, 18960, Note_on_c, 0, 73, 63
2, 19080, Note_on_c, 0, 73, 0
2, 19080, Note_on_c, 0, 67, 0
2, 19200, Note_on_c, 0, 69, 62
2, 19200, Note_on_c, 0, 74, 74
2, 19320, Note_on_c, 0, 74, 0
2, 19320, Note_on_c, 0, 69, 0
2, 19440, Note_on_c, 0, 74, 66
2, 19440, Note_on_c, 0, 69, 56
2, 19560, Note_on_c, 0, 69, 0
2, 19560, Note_on_c, 0, 74, 0
2, 19680, Note_on_c, 0, 74, 64
2, 19680, Note_on_c, 0, 77, 76
2, 19800, Note_on_c, 0, 77, 0
2, 19800, Note_on_c, 0, 74, 0
2, 19920, Note_on_c, 0, 77, 70
2, 19920, Note_on_c, 0, 74, 59
2, 20040, Note_on_c, 0, 74, 0
2, 20040, Note_on_c, 0, 77, 0
2, 20160, Note_on_c, 0, 72, 66
2, 20160, Note_on_c, 0, 76, 78
2, 20280, Note_on_c, 0, 76, 0
2, 20280, Note_on_c, 0, 72, 0
2, 20400, Note_on_c, 0, 72, 58
2, 20400, Note_on_c, 0, 76, 69
2, 20520, Note_on_c, 0, 76, 0
2, 20520, Note_on_c, 0, 72, 0
2, 20640, Note_on_c, 0, 71, 66
2, 20640, Note_on_c, 0, 74, 78
2, 20760, Note_on_c, 0, 74, 0
2, 20760, Note_on_c, 0, 71, 0
2, 20880, Note_on_c, 0, 71, 58
2, 20880, Note_on_c, 0, 74, 69
2, 21000, Note_on_c, 0, 74, 0
2, 21000, Note_on_c, 0, 71, 0
2, 21120, Note_on_c, 0, 72, 86
2, 21360, Note_on_c, 0, 72, 0
2, 21600, Note_on_c, 0, 84, 82
2, 21600, Note_on_c, 0, 76, 69
2, 21600, Note_on_c, 0, 79, 69
2, 21840, Note_on_c, 0, 79, 0
2, 21840, Note_on_c, 0, 76, 0
2, 21840, Note_on_c, 0, 84, 0
2, 22080, Note_on_c, 0, 76, 68
2, 22080, Note_on_c, 0, 79, 68
2, 22080, Note_on_c, 0, 84, 80
2, 22320, Note_on_c, 0, 84, 0
2, 22320, Note_on_c, 0, 79, 0
2, 22320, Note_on_c, 0, 76, 0
2, 23040, Note_on_c, 0, 79, 58
2, 23520, Note_on_c, 0, 79, 0
2, 23520, Note_on_c, 0, 81, 55
2, 23640, Note_on_c, 0, 81, 0
2, 23640, Note_on_c, 0, 79, 46
2, 23760, Note_on_c, 0, 79, 0
2, 23760, Note_on_c, 0, 78, 50
2, 23880, Note_on_c, 0, 78, 0
2, 23880, Note_on_c, 0, 76, 46
2, 24000, Note_on_c, 0, 76, 0
2, 24000, Note_on_c, 0, 74, 57
2, 24480, Note_on_c, 0, 74, 0
2, 24480, Note_on_c, 0, 76, 54
2, 24600, Note_on_c, 0, 76, 0
2, 24600, Note_on_c, 0, 74, 42
2, 24720, Note_on_c, 0, 74, 0
2, 24720, Note_on_c, 0, 72, 53
2, 24840, Note_on_c, 0, 72, 0
2, 24840, Note_on_c, 0, 71, 50
2, 24960, Note_on_c, 0, 71, 0
2, 24960, Note_on_c, 0, 69, 55
2, 25080, Note_on_c, 0, 69, 0
2, 25140, Note_on_c, 0, 71, 42
2, 25200, Note_on_c, 0, 71, 0
2, 25200, Note_on_c, 0, 69, 50
2, 25320, Note_on_c, 0, 69, 0
2, 25320, Note_on_c, 0, 68, 47
2, 25440, Note_on_c, 0, 68, 0
2, 25440, Note_on_c, 0, 69, 50
2, 25560, Note_on_c, 0, 69, 0
2, 25680, Note_on_c, 0, 71, 46
2, 25800, Note_on_c, 0, 71, 0
2, 25920, Note_on_c, 0, 72, 50
2, 26160, Note_on_c, 0, 72, 0
2, 26640, Note_on_c, 0, 84, 55
2, 26760, Note_on_c, 0, 84, 0
2, 26760, Note_on_c, 0, 83, 49
2, 26880, Note_on_c, 0, 83, 0
2, 26880, Note_on_c, 0, 81, 55
2, 27000, Note_on_c, 0, 81, 0
2, 27000, Note_on_c, 0, 83, 53
2, 27120, Note_on_c, 0, 83, 0
2, 27120, Note_on_c, 0, 81, 55
2, 27240, Note_on_c, 0, 81, 0
2, 27240, Note_on_c, 0, 83, 54
2, 27360, Note_on_c, 0, 83, 0
2, 27360, Note_on_c, 0, 84, 62
2, 27480, Note_on_c, 0, 84, 0
2, 27480, Note_on_c, 0, 83, 54
2, 27600, Note_on_c, 0, 83, 0
2, 27600, Note_on_c, 0, 81, 55
2, 27720, Note_on_c, 0, 81, 0
2, 27720, Note_on_c, 0, 83, 53
2, 27840, Note_on_c, 0, 83, 0
2, 27840, Note_on_c, 0, 84, 62
2, 27960, Note_on_c, 0, 84, 0
2, 27960, Note_on_c, 0, 83, 55
2, 28080, Note_on_c, 0, 83, 0
2, 28080, Note_on_c, 0, 81, 55
2, 28200, Note_on_c, 0, 81, 0
2, 28200, Note_on_c, 0, 79, 54
2, 28320, Note_on_c, 0, 79, 0
2, 28320, Note_on_c, 0, 78, 61
2, 28440, Note_on_c, 0, 78, 0
2, 28440, Note_on_c, 0, 76, 55
2, 28560, Note_on_c, 0, 76, 0
2, 28560, Note_on_c, 0, 74, 58
2, 28680, Note_on_c, 0, 74, 0
2, 28680, Note_on_c, 0, 72, 54
2, 28800, Note_on_c, 0, 72, 0
2, 28800, Note_on_c, 0, 71, 55
2, 29040, Note_on_c, 0, 71, 0
2, 29400, Note_on_c, 0, 67, 47
2, 29520, Note_on_c, 0, 67, 0
2, 29520, Note_on_c, 0, 69, 48
2, 29640, Note_on_c, 0, 69, 0
2, 29640, Note_on_c, 0, 71, 50
2, 29760, Note_on_c, 0, 71, 0
2, 29760, Note_on_c, 0, 72, 52
2, 29880, Note_on_c, 0, 72, 0
2, 29880, Note_on_c, 0, 74, 52
2, 30000, Note_on_c, 0, 74, 0
2, 30000, Note_on_c, 0, 76, 54
2, 30120, Note_on_c, 0, 76, 0
2, 30120, Note_on_c, 0, 78, 55
2, 30240, Note_on_c, 0, 78, 0
2, 30240, Note_on_c, 0, 79, 56
2, 30360, Note_on_c, 0, 79, 0
2, 30360, Note_on_c, 0, 81, 55
2, 30480, Note_on_c, 0, 81, 0
2, 30480, Note_on_c, 0, 83, 61
2, 30600, Note_on_c, 0, 83, 0
2, 30600, Note_on_c, 0, 81, 57
2, 30720, Note_on_c, 0, 81, 0
2, 30720, Note_on_c, 0, 79, 61
2, 30960, Note_on_c, 0, 79, 0
2, 31320, Note_on_c, 0, 67, 48
2, 31440, Note_on_c, 0, 67, 0
2, 31440, Note_on_c, 0, 69, 49
2, 31560, Note_on_c, 0, 69, 0
2, 31560, Note_on_c, 0, 71, 52
2, 31680, Note_on_c, 0, 71, 0
2, 31680, Note_on_c, 0, 72, 53
2, 31800, Note_on_c, 0, 72, 0
2, 31800, Note_on_c, 0, 74, 56
2, 31920, Note_on_c, 0, 74, 0
2, 31920, Note_on_c, 0, 76, 56
2, 32040, Note_on_c, 0, 76, 0
2, 32040, Note_on_c, 0, 78, 57
2, 32160, Note_on_c, 0, 78, 0
2, 32160, Note_on_c, 0, 79, 58
2, 32280, Note_on_c, 0, 79, 0
2, 32280, Note_on_c, 0, 81, 61
2, 32400, Note_on_c, 0, 81, 0
2, 32400, Note_on_c, 0, 83, 64
2, 32520, Note_on_c, 0, 83, 0
2, 32520, Note_on_c, 0, 84, 70
2, 32640, Note_on_c, 0, 84, 0
2, 32640, Note_on_c, 0, 86, 77
2, 32760, Note_on_c, 0, 86, 0
2, 32880, Note_on_c, 0, 86, 70
2, 33000, Note_on_c, 0, 86, 0
2, 33120, Note_on_c, 0, 84, 70
2, 33240, Note_on_c, 0, 84, 0
2, 33240, Note_on_c, 0, 83, 63
2, 33360, Note_on_c, 0, 83, 0
2, 33360, Note_on_c, 0, 81, 63
2, 33480, Note_on_c, 0, 81, 0
2, 33480, Note_on_c, 0, 83, 63
2, 33600, Note_on_c, 0, 83, 0
2, 33600, Note_on_c, 0, 79, 70
2, 33720, Note_on_c, 0, 79, 0
2, 33840, Note_on_c, 0, 79, 63
2, 33960, Note_on_c, 0, 79, 0
2, 34080, Note_on_c, 0, 75, 70
2, 34200, Note_on_c, 0, 75, 0
2, 34320, Note_on_c, 0, 75, 59
2, 34440, Note_on_c, 0, 75, 0
2, 34560, Note_on_c, 0, 76, 68
2, 34680, Note_on_c, 0, 76, 0
2, 34800, Note_on_c, 0, 76, 62
2, 34920, Note_on_c, 0, 76, 0
2, 35040, Note_on_c, 0, 74, 64
2, 35160, Note_on_c, 0, 74, 0
2, 35160, Note_on_c, 0, 72, 57
2, 35280, Note_on_c, 0, 72, 0
2, 35280, Note_on_c, 0, 71, 57
2, 35400, Note_on_c, 0, 71, 0
2, 35400, Note_on_c, 0, 72, 58
2, 35520, Note_on_c, 0, 72, 0
2, 35520, Note_on_c, 0, 69, 65
2, 35640, Note_on_c, 0, 69, 0
2, 35760, Note_on_c, 0, 69, 54
2, 35880, Note_on_c, 0, 69, 0
2, 36000, Note_on_c, 0, 64, 57
2, 36120, Note_on_c, 0, 64, 0
2, 36240, Note_on_c, 0, 64, 52
2, 36360, Note_on_c, 0, 64, 0
2, 36480, Note_on_c, 0, 62, 63
2, 36600, Note_on_c, 0, 62, 0
2, 36720, Note_on_c, 0, 62, 58
2, 36840, Note_on_c, 0, 62, 0
2, 36960, Note_on_c, 0, 74, 63
2, 37080, Note_on_c, 0, 74, 0
2, 37080, Note_on_c, 0, 71, 56
2, 37200, Note_on_c, 0, 71, 0
2, 37200, Note_on_c, 0, 69, 58
2, 37320, Note_on_c, 0, 69, 0
2, 37320, Note_on_c, 0, 67, 56
2, 37440, Note_on_c, 0, 67, 0
2, 37440, Note_on_c, 0, 69, 47
2, 37520, Note_on_c, 0, 69, 0
2, 37520, Note_on_c, 0, 71, 43
2, 37600, Note_on_c, 0, 71, 0
2, 37600, Note_on_c, 0, 69, 50
2, 37680, Note_on_c, 0, 69, 0
2, 37680, Note_on_c, 0, 71, 46
2, 37760, Note_on_c, 0, 71, 0
2, 37760, Note_on_c, 0, 69, 54
2, 37840, Note_on_c, 0, 69, 0
2, 37840, Note_on_c, 0, 71, 53
2, 37920, Note_on_c, 0, 71, 0
2, 37920, Note_on_c, 0, 69, 57
2, 38000, Note_on_c, 0, 69, 0
2, 38000, Note_on_c, 0, 71, 53
2, 38080, Note_on_c, 0, 71, 0
2, 38080, Note_on_c, 0, 69, 56
2, 38160, Note_on_c, 0, 69, 0
2, 38160, Note_on_c, 0, 71, 51
2, 38220, Note_on_c, 0, 71, 0
2, 38220, Note_on_c, 0, 69, 56
2, 38280, Note_on_c, 0, 69, 0
2, 38280, Note_on_c, 0, 67, 49
2, 38340, Note_on_c, 0, 67, 0
2, 38340, Note_on_c, 0, 69, 49
2, 38400, Note_on_c, 0, 69, 0
2, 38640, Note_on_c, 0, 86, 54
2, 38760, Note_on_c, 0, 86, 0
2, 39120, Note_on_c, 0, 83, 45
2, 39240, Note_on_c, 0, 83, 0
2, 39600, Note_on_c, 0, 79, 57
2, 39720, Note_on_c, 0, 79, 0
2, 40080, Note_on_c, 0, 75, 63
2, 40200, Note_on_c, 0, 75, 0
2, 40560, Note_on_c, 0, 76, 56
2, 40680, Note_on_c, 0, 76, 0
2, 40680, Note_on_c, 0, 75, 50
2, 40800, Note_on_c, 0, 75, 0
2, 40800, Note_on_c, 0, 76, 57
2, 40920, Note_on_c, 0, 76, 0
2, 40920, Note_on_c, 0, 78, 60
2, 41040, Note_on_c, 0, 78, 0
2, 41040, Note_on_c, 0, 79, 61
2, 41160, Note_on_c, 0, 79, 0
2, 41160, Note_on_c, 0, 78, 55
2, 41280, Note_on_c, 0, 78, 0
2, 41280, Note_on_c, 0, 76, 61
2, 41400, Note_on_c, 0, 76, 0
2, 41400, Note_on_c, 0, 74, 53
2, 41520, Note_on_c, 0, 74, 0
2, 41520, Note_on_c, 0, 72, 56
2, 41640, Note_on_c, 0, 72, 0
2, 41640, Note_on_c, 0, 71, 51
2, 41760, Note_on_c, 0, 71, 0
2, 41760, Note_on_c, 0, 69, 56
2, 41880, Note_on_c, 0, 69, 0
2, 41880, Note_on_c, 0, 67, 60
2, 42000, Note_on_c, 0, 67, 0
2, 42000, Note_on_c, 0, 66, 63
2, 42120, Note_on_c, 0, 66, 0
2, 42120, Note_on_c, 0, 64, 65
2, 42240, Note_on_c, 0, 64, 0
2, 42240, Note_on_c, 0, 62, 72
2, 42360, Note_on_c, 0, 62, 0
2, 42360, Note_on_c, 0, 67, 56
2, 42480, Note_on_c, 0, 67, 0
2, 42480, Note_on_c, 0, 71, 56
2, 42600, Note_on_c, 0, 71, 0
2, 42600, Note_on_c, 0, 74, 56
2, 42720, Note_on_c, 0, 74, 0
2, 42720, Note_on_c, 0, 72, 59
2, 42840, Note_on_c, 0, 72, 0
2, 42840, Note_on_c, 0, 71, 50
2, 42960, Note_on_c, 0, 71, 0
2, 42960, Note_on_c, 0, 69, 50
2, 43080, Note_on_c, 0, 69, 0
2, 43080, Note_on_c, 0, 67, 50
2, 43200, Note_on_c, 0, 67, 0
2, 43200, Note_on_c, 0, 69, 51
2, 43280, Note_on_c, 0, 69, 0
2, 43280, Note_on_c, 0, 71, 47
2, 43360, Note_on_c, 0, 71, 0
2, 43360, Note_on_c, 0, 69, 55
2, 43440, Note_on_c, 0, 69, 0
2, 43440, Note_on_c, 0, 71, 50
2, 43520, Note_on_c, 0, 71, 0
2, 43520, Note_on_c, 0, 69, 59
2, 43600, Note_on_c, 0, 69, 0
2, 43600, Note_on_c, 0, 71, 58
2, 43680, Note_on_c, 0, 71, 0
2, 43680, Note_on_c, 0, 69, 62
2, 43760, Note_on_c, 0, 69, 0
2, 43760, Note_on_c, 0, 71, 58
2, 43840, Note_on_c, 0, 71, 0
2, 43840, Note_on_c, 0, 69, 61
2, 43920, Note_on_c, 0, 69, 0
2, 43920, Note_on_c, 0, 71, 56
2, 43980, Note_on_c, 0, 71, 0
2, 43980, Note_on_c, 0, 69, 61
2, 44040, Note_on_c, 0, 69, 0
2, 44040, Note_on_c, 0, 67, 53
2, 44100, Note_on_c, 0, 67, 0
2, 44100, Note_on_c, 0, 69, 53
2, 44160, Note_on_c, 0, 69, 0
2, 44160, Note_on_c, 0, 67, 68
2, 44400, Note_on_c, 0, 67, 0
2, 44654, Note_on_c, 0, 62, 67
2, 44774, Note_on_c, 0, 62, 0
2, 44880, Note_on_c, 0, 62, 62
2, 45000, Note_on_c, 0, 62, 0
2, 45120, Note_on_c, 0, 59, 57
2, 45120, Note_on_c, 0, 67, 68
2, 45240, Note_on_c, 0, 67, 0
2, 45240, Note_on_c, 0, 59, 0
2, 45600, Note_on_c, 0, 62, 64
2, 45720, Note_on_c, 0, 62, 0
2, 45840, Note_on_c, 0, 62, 68
2, 45960, Note_on_c, 0, 62, 0
2, 46080, Note_on_c, 0, 60, 57
2, 46080, Note_on_c, 0, 69, 68
2, 46200, Note_on_c, 0, 69, 0
2, 46200, Note_on_c, 0, 60, 0
2, 46560, Note_on_c, 0, 62, 42
2, 46680, Note_on_c, 0, 62, 0
2, 46800, Note_on_c, 0, 62, 33
2, 46920, Note_on_c, 0, 62, 0
2, 47040, Note_on_c, 0, 57, 35
2, 47040, Note_on_c, 0, 66, 42
2, 47160, Note_on_c, 0, 66, 0
2, 47160, Note_on_c, 0, 57, 0
2, 47520, Note_on_c, 0, 62, 60
2, 47640, Note_on_c, 0, 62, 0
2, 47760, Note_on_c, 0, 62, 69
2, 47880, Note_on_c, 0, 62, 0
2, 48000, Note_on_c, 0, 67, 74
2, 48000, Note_on_c, 0, 59, 62
2, 48480, Note_on_c, 0, 59, 0
2, 48480, Note_on_c, 0, 67, 0
2, 48480, Note_on_c, 0, 67, 62
2, 48480, Note_on_c, 0, 59, 52
2, 48960, Note_on_c, 0, 59, 0
2, 48960, Note_on_c, 0, 67, 0
2, 48960, Note_on_c, 0, 59, 57
2, 48960, Note_on_c, 0, 67, 68
2, 49440, Note_on_c, 0, 67, 0
2, 49440, Note_on_c, 0, 59, 0
2, 49920, Note_on_c, 0, 79, 70
2, 50640, Note_on_c, 0, 79, 0
2, 50640, Note_on_c, 0, 76, 65
2, 50880, Note_on_c, 0, 76, 0
2, 50880, Note_on_c, 0, 72, 70
2, 51120, Note_on_c, 0, 72, 0
2, 51120, Note_on_c, 0, 67, 65
2, 51240, Note_on_c, 0, 67, 0
2, 51360, Note_on_c, 0, 67, 65
2, 51480, Note_on_c, 0, 67, 0
2, 51600, Note_on_c, 0, 67, 65
2, 51720, Note_on_c, 0, 67, 0
2, 51840, Note_on_c, 0, 79, 70
2, 52560, Note_on_c, 0, 79, 0
2, 52560, Note_on_c, 0, 76, 59
2, 52800, Note_on_c, 0, 76, 0
2, 52800, Note_on_c, 0, 72, 63
2, 52920, Note_on_c, 0, 72, 0
2, 52920, Note_on_c, 0, 74, 61
2, 53040, Note_on_c, 0, 74, 0
2, 53040, Note_on_c, 0, 76, 62
2, 53160, Note_on_c, 0, 76, 0
2, 53160, Note_on_c, 0, 77, 63
2, 53280, Note_on_c, 0, 77, 0
2, 53280, Note_on_c, 0, 79, 64
2, 53400, Note_on_c, 0, 79, 0
2, 53400, Note_on_c, 0, 81, 65
2, 53520, Note_on_c, 0, 81, 0
2, 53520, Note_on_c, 0, 83, 67
2, 53640, Note_on_c, 0, 83, 0
2, 53640, Note_on_c, 0, 84, 70
2, 53760, Note_on_c, 0, 84, 0
2, 53760, Note_on_c, 0, 83, 76
2, 54000, Note_on_c, 0, 83, 0
2, 54000, Note_on_c, 0, 81, 65
2, 54120, Note_on_c, 0, 81, 0
2, 54240, Note_on_c, 0, 81, 70
2, 54360, Note_on_c, 0, 81, 0
2, 54480, Note_on_c, 0, 81, 68
2, 54600, Note_on_c, 0, 81, 0
2, 54720, Note_on_c, 0, 83, 70
2, 54840, Note_on_c, 0, 83, 0
2, 54840, Note_on_c, 0, 81, 64
2, 54960, Note_on_c, 0, 81, 0
2, 54960, Note_on_c, 0, 80, 70
2, 55080, Note_on_c, 0, 80, 0
2, 55080, Note_on_c, 0, 81, 65
2, 55200, Note_on_c, 0, 81, 0
2, 55200, Note_on_c, 0, 84, 70
2, 55380, Note_on_c, 0, 84, 0
2, 55440, Note_on_c, 0, 81, 63
2, 55620, Note_on_c, 0, 81, 0
2, 55680, Note_on_c, 0, 78, 73
2, 55920, Note_on_c, 0, 78, 0
2, 55920, Note_on_c, 0, 79, 65
2, 56040, Note_on_c, 0, 79, 0
2, 56160, Note_on_c, 0, 79, 70
2, 56280, Note_on_c, 0, 79, 0
2, 56400, Note_on_c, 0, 79, 64
2, 56520, Note_on_c, 0, 79, 0
2, 56640, Note_on_c, 0, 79, 71
2, 57120, Note_on_c, 0, 79, 0
2, 57600, Note_on_c, 0, 74, 42
2, 57600, Note_on_c, 0, 77, 50
2, 57720, Note_on_c, 0, 77, 0
2, 57720, Note_on_c, 0, 74, 0
2, 57840, Note_on_c, 0, 77, 46
2, 57840, Note_on_c, 0, 74, 39
2, 57960, Note_on_c, 0, 74, 0
2, 57960, Note_on_c, 0, 77, 0
2, 58080, Note_on_c, 0, 72, 42
2, 58080, Note_on_c, 0, 76, 50
2, 58200, Note_on_c, 0, 76, 0
2, 58200, Note_on_c, 0, 72, 0
2, 58320, Note_on_c, 0, 76, 41
2, 58320, Note_on_c, 0, 72, 34
2, 58440, Note_on_c, 0, 72, 0
2, 58440, Note_on_c, 0, 76, 0
2, 58560, Note_on_c, 0, 71, 42
2, 58560, Note_on_c, 0, 74, 50
2, 59040, Note_on_c, 0, 74, 0
2, 59040, Note_on_c, 0, 71, 0
2, 59520, Note_on_c, 0, 76, 42
2, 59520, Note_on_c, 0, 79, 50
2, 59640, Note_on_c, 0, 79, 0
2, 59640, Note_on_c, 0, 76, 0
2, 59760, Note_on_c, 0, 79, 46
2, 59760, Note_on_c, 0, 76, 39
2, 59880, Note_on_c, 0, 76, 0
2, 59880, Note_on_c, 0, 79, 0
2, 60000, Note_on_c, 0, 74, 42
2, 60000, Note_on_c, 0, 77, 50
2, 60120, Note_on_c, 0, 77, 0
2, 60120, Note_on_c, 0, 74, 0
2, 60240, Note_on_c, 0, 77, 41
2, 60240, Note_on_c, 0, 74, 34
2, 60360, Note_on_c, 0, 74, 0
2, 60360, Note_on_c, 0, 77, 0
2, 60480, Note_on_c, 0, 72, 42
2, 60480, Note_on_c, 0, 76, 50
2, 60960, Note_on_c, 0, 76, 0
2, 60960, Note_on_c, 0, 72, 0
2, 61440, Note_on_c, 0, 81, 58
2, 61560, Note_on_c, 0, 81, 0
2, 61560, Note_on_c, 0, 77, 43
2, 61680, Note_on_c, 0, 77, 0
2, 61680, Note_on_c, 0, 76, 43
2, 61800, Note_on_c, 0, 76, 0
2, 61800, Note_on_c, 0, 74, 43
2, 61920, Note_on_c, 0, 74, 0
2, 61920, Note_on_c, 0, 81, 50
2, 62040, Note_on_c, 0, 81, 0
2, 62040, Note_on_c, 0, 77, 43
2, 62160, Note_on_c, 0, 77, 0
2, 62160, Note_on_c, 0, 76, 43
2, 62280, Note_on_c, 0, 76, 0
2, 62280, Note_on_c, 0, 74, 43
2, 62400, Note_on_c, 0, 74, 0
2, 62400, Note_on_c, 0, 76, 58
2, 62520, Note_on_c, 0, 76, 0
2, 62520, Note_on_c, 0, 79, 42
2, 62640, Note_on_c, 0, 79, 0
2, 62640, Note_on_c, 0, 76, 42
2, 62760, Note_on_c, 0, 76, 0
2, 62760, Note_on_c, 0, 72, 42
2, 62880, Note_on_c, 0, 72, 0
2, 62880, Note_on_c, 0, 74, 54
2, 63000, Note_on_c, 0, 74, 0
2, 63000, Note_on_c, 0, 77, 45
2, 63120, Note_on_c, 0, 77, 0
2, 63120, Note_on_c, 0, 74, 45
2, 63240, Note_on_c, 0, 74, 0
2, 63240, Note_on_c, 0, 71, 45
2, 63360, Note_on_c, 0, 71, 0
2, 63360, Note_on_c, 0, 72, 50
2, 63480, Note_on_c, 0, 72, 0
2, 63600, Note_on_c, 0, 72, 46
2, 63720, Note_on_c, 0, 72, 0
2, 63840, Note_on_c, 0, 71, 42
2, 63840, Note_on_c, 0, 74, 50
2, 63960, Note_on_c, 0, 74, 0
2, 63960, Note_on_c, 0, 71, 0
2, 64080, Note_on_c, 0, 74, 41
2, 64080, Note_on_c, 0, 71, 34
2, 64200, Note_on_c, 0, 71, 0
2, 64200, Note_on_c, 0, 74, 0
2, 64320, Note_on_c, 0, 72, 42
2, 64320, Note_on_c, 0, 76, 50
2, 64560, Note_on_c, 0, 76, 0
2, 64560, Note_on_c, 0, 72, 0
2, 65280, Note_on_c, 0, 62, 46
2, 65280, Note_on_c, 0, 65, 55
2, 65400, Note_on_c, 0, 65, 0
2, 65400, Note_on_c, 0, 62, 0
2, 65520, Note_on_c, 0, 65, 50
2, 65520, Note_on_c, 0, 62, 42
2, 65640, Note_on_c, 0, 62, 0
2, 65640, Note_on_c, 0, 65, 0
2, 65760, Note_on_c, 0, 60, 46
2, 65760, Note_on_c, 0, 64, 55
2, 65880, Note_on_c, 0, 64, 0
2, 65880, Note_on_c, 0, 60, 0
2, 66000, Note_on_c, 0, 64, 45
2, 66000, Note_on_c, 0, 60, 37
2, 66120, Note_on_c, 0, 60, 0
2, 66120, Note_on_c, 0, 64, 0
2, 66240, Note_on_c, 0, 59, 46
2, 66240, Note_on_c, 0, 62, 55
2, 66720, Note_on_c, 0, 62, 0
2, 66720, Note_on_c, 0, 59, 0
2, 67200, Note_on_c, 0, 67, 61
2, 67200, Note_on_c, 0, 64, 51
2, 67320, Note_on_c, 0, 64, 0
2, 67320, Note_on_c, 0, 67, 0
2, 67440, Note_on_c, 0, 64, 45
2, 67440, Note_on_c, 0, 67, 54
2, 67560, Note_on_c, 0, 67, 0
2, 67560, Note_on_c, 0, 64, 0
2, 67680, Note_on_c, 0, 71, 62
2, 67680, Note_on_c, 0, 65, 52
2, 67800, Note_on_c, 0, 65, 0
2, 67800, Note_on_c, 0, 71, 0
2, 67920, Note_on_c, 0, 65, 45
2, 67920, Note_on_c, 0, 71, 54
2, 68040, Note_on_c, 0, 71, 0
2, 68040, Note_on_c, 0, 65, 0
2, 68160, Note_on_c, 0, 72, 65
2, 68160, Note_on_c, 0, 64, 55
2, 68280, Note_on_c, 0, 64, 0
2, 68280, Note_on_c, 0, 72, 0
2, 68400, Note_on_c, 0, 64, 45
2, 68400, Note_on_c, 0, 72, 54
2, 68520, Note_on_c, 0, 72, 0
2, 68520, Note_on_c, 0, 64, 0
2, 68640, Note_on_c, 0, 67, 58
2, 68640, Note_on_c, 0, 73, 69
2, 68760, Note_on_c, 0, 73, 0
2, 68760, Note_on_c, 0, 67, 0
2, 68880, Note_on_c, 0, 67, 52
2, 68880, Note_on_c, 0, 73, 63
2, 69000, Note_on_c, 0, 73, 0
2, 69000, Note_on_c, 0, 67, 0
2, 69120, Note_on_c, 0, 69, 62
2, 69120, Note_on_c, 0, 74, 74
2, 69240, Note_on_c, 0, 74, 0
2, 69240, Note_on_c, 0, 69, 0
2, 69360, Note_on_c, 0, 74, 66
2, 69360, Note_on_c, 0, 69, 56
2, 69480, Note_on_c, 0, 69, 0
2, 69480, Note_on_c, 0, 74, 0
2, 69600, Note_on_c, 0, 74, 64
2, 69600, Note_on_c, 0, 77, 76
2, 69720, Note_on_c, 0, 77, 0
2, 69720, Note_on_c, 0, 74, 0
2, 69840, Note_on_c, 0, 77, 70
2, 69840, Note_on_c, 0, 74, 59
2, 69960, Note_on_c, 0, 74, 0
2, 69960, Note_on_c, 0, 77, 0
2, 70080, Note_on_c, 0, 72, 66
2, 70080, Note_on_c, 0, 76, 78
2, 70200, Note_on_c, 0, 76, 0
2, 70200, Note_on_c, 0, 72, 0
2, 70320, Note_on_c, 0, 72, 58
2, 70320, Note_on_c, 0, 76, 69
2, 70440, Note_on_c, 0, 76, 0
2, 70440, Note_on_c, 0, 72, 0
2, 70560, Note_on_c, 0, 71, 66
2, 70560, Note_on_c, 0, 74, 78
2, 70680, Note_on_c, 0, 74, 0
2, 70680, Note_on_c, 0, 71, 0
2, 70800, Note_on_c, 0, 71, 58
2, 70800, Note_on_c, 0, 74, 69
2, 70920, Note_on_c, 0, 74, 0
2, 70920, Note_on_c, 0, 71, 0
2, 71040, Note_on_c, 0, 72, 86
2, 71280, Note_on_c, 0, 72, 0
2, 71520, Note_on_c, 0, 84, 82
2, 71520, Note_on_c, 0, 76, 69
2, 71520, Note_on_c, 0, 79, 69
2, 71760, Note_on_c, 0, 79, 0
2, 71760, Note_on_c, 0, 76, 0
2, 71760, Note_on_c, 0, 84, 0
2, 72000, Note_on_c, 0, 76, 68
2, 72000, Note_on_c, 0, 79, 68
2, 72000, Note_on_c, 0, 84, 80
2, 72240, Note_on_c, 0, 84, 0
2, 72240, Note_on_c, 0, 79, 0
2, 72240, Note_on_c, 0, 76, 0
2, 72960, Note_on_c, 0, 79, 58
2, 73440, Note_on_c, 0, 79, 0
2, 73440, Note_on_c, 0, 81, 55
2, 73560, Note_on_c, 0, 81, 0
2, 73560, Note_on_c, 0, 79, 46
2, 73680, Note_on_c, 0, 79, 0
2, 73680, Note_on_c, 0, 78, 50
2, 73800, Note_on_c, 0, 78, 0
2, 73800, Note_on_c, 0, 76, 46
2, 73920, Note_on_c, 0, 76, 0
2, 73920, Note_on_c, 0, 74, 57
2, 74400, Note_on_c, 0, 74, 0
2, 74400, Note_on_c, 0, 76, 54
2, 74520, Note_on_c, 0, 76, 0
2, 74520, Note_on_c, 0, 74, 42
2, 74640, Note_on_c, 0, 74, 0
2, 74640, Note_on_c, 0, 72, 53
2, 74760, Note_on_c, 0, 72, 0
2, 74760, Note_on_c, 0, 71, 50
2, 74880, Note_on_c, 0, 71, 0
2, 74880, Note_on_c, 0, 69, 55
2, 75000, Note_on_c, 0, 69, 0
2, 75060, Note_on_c, 0, 71, 42
2, 75120, Note_on_c, 0, 71, 0
2, 75120, Note_on_c, 0, 69, 50
2, 75240, Note_on_c, 0, 69, 0
2, 75240, Note_on_c, 0, 68, 47
2, 75360, Note_on_c, 0, 68, 0
2, 75360, Note_on_c, 0, 69, 50
2, 75480, Note_on_c, 0, 69, 0
2, 75600, Note_on_c, 0, 71, 46
2, 75720, Note_on_c, 0, 71, 0
2, 75840, Note_on_c, 0, 72, 50
2, 76080, Note_on_c, 0, 72, 0
2, 76560, Note_on_c, 0, 84, 55
2, 76680, Note_on_c, 0, 84, 0
2, 76680, Note_on_c, 0, 83, 49
2, 76800, Note_on_c, 0, 83, 0
2, 76800, Note_on_c, 0, 81, 55
2, 76920, Note_on_c, 0, 81, 0
2, 76920, Note_on_c, 0, 83, 53
2, 77040, Note_on_c, 0, 83, 0
2, 77040, Note_on_c, 0, 81, 55
2, 77160, Note_on_c, 0, 81, 0
2, 77160, Note_on_c, 0, 83, 54
2, 77280, Note_on_c, 0, 83, 0
2, 77280, Note_on_c, 0, 84, 62
2, 77400, Note_on_c, 0, 84, 0
2, 77400, Note_on_c, 0, 83, 54
2, 77520, Note_on_c, 0, 83, 0
2, 77520, Note_on_c, 0, 81, 55
2, 77640, Note_on_c, 0, 81, 0
2, 77640, Note_on_c, 0, 83, 53
2, 77760, Note_on_c, 0, 83, 0
2, 77760, Note_on_c, 0, 84, 62
2, 77880, Note_on_c, 0, 84, 0
2, 77880, Note_on_c, 0, 83, 55
2, 78000, Note_on_c, 0, 83, 0
2, 78000, Note_on_c, 0, 81, 55
2, 78120, Note_on_c, 0, 81, 0
2, 78120, Note_on_c, 0, 79, 54
2, 78240, Note_on_c, 0, 79, 0
2, 78240, Note_on_c, 0, 78, 61
2, 78360, Note_on_c, 0, 78, 0
2, 78360, Note_on_c, 0, 76, 55
2, 78480, Note_on_c, 0, 76, 0
2, 78480, Note_on_c, 0, 74, 58
2, 78600, Note_on_c, 0, 74, 0
2, 78600, Note_on_c, 0, 72, 54
2, 78720, Note_on_c, 0, 72, 0
2, 78720, Note_on_c, 0, 71, 55
2, 78960, Note_on_c, 0, 71, 0
2, 79320, Note_on_c, 0, 67, 47
2, 79440, Note_on_c, 0, 67, 0
2, 79440, Note_on_c, 0, 69, 48
2, 79560, Note_on_c, 0, 69, 0
2, 79560, Note_on_c, 0, 71, 50
2, 79680, Note_on_c, 0, 71, 0
2, 79680, Note_on_c, 0, 72, 52
2, 79800, Note_on_c, 0, 72, 0
2, 79800, Note_on_c, 0, 74, 52
2, 79920, Note_on_c, 0, 74, 0
2, 79920, Note_on_c, 0, 76, 54
2, 80040, Note_on_c, 0, 76, 0
2, 80040, Note_on_c, 0, 78, 55
2, 80160, Note_on_c, 0, 78, 0
2, 80160, Note_on_c, 0, 79, 56
2, 80280, Note_on_c, 0, 79, 0
2, 80280, Note_on_c, 0, 81, 55
2, 80400, Note_on_c, 0, 81, 0
2, 80400, Note_on_c, 0, 83, 61
2, 80520, Note_on_c, 0, 83, 0
2, 80520, Note_on_c, 0, 81, 57
2, 80640, Note_on_c, 0, 81, 0
2, 80640, Note_on_c, 0, 79, 61
2, 80880, Note_on_c, 0, 79, 0
2, 81240, Note_on_c, 0, 67, 48
2, 81360, Note_on_c, 0, 67, 0
2, 81360, Note_on_c, 0, 69, 49
2, 81480, Note_on_c, 0, 69, 0
2, 81480, Note_on_c, 0, 71, 52
2, 81600, Note_on_c, 0, 71, 0
2, 81600, Note_on_c, 0, 72, 53
2, 81720, Note_on_c, 0, 72, 0
2, 81720, Note_on_c, 0, 74, 56
2, 81840, Note_on_c, 0, 74, 0
2, 81840, Note_on_c, 0, 76, 56
2, 81960, Note_on_c, 0, 76, 0
2, 81960, Note_on_c, 0, 78, 57
2, 82080, Note_on_c, 0, 78, 0
2, 82080, Note_on_c, 0, 79, 58
2, 82200, Note_on_c, 0, 79, 0
2, 82200, Note_on_c, 0, 81, 61
2, 82320, Note_on_c, 0, 81, 0
2, 82320, Note_on_c, 0, 83, 64
2, 82440, Note_on_c, 0, 83, 0
2, 82440, Note_on_c, 0, 84, 70
2, 82560, Note_on_c, 0, 84, 0
2, 82560, Note_on_c, 0, 86, 77
2, 82680, Note_on_c, 0, 86, 0
2, 82800, Note_on_c, 0, 86, 70
2, 82920, Note_on_c, 0, 86, 0
2, 83040, Note_on_c, 0, 84, 70
2, 83160, Note_on_c, 0, 84, 0
2, 83160, Note_on_c, 0, 83, 63
2, 83280, Note_on_c, 0, 83, 0
2, 83280, Note_on_c, 0, 81, 63
2, 83400, Note_on_c, 0, 81, 0
2, 83400, Note_on_c, 0, 83, 63
2, 83520, Note_on_c, 0, 83, 0
2, 83520, Note_on_c, 0, 79, 70
2, 83640, Note_on_c, 0, 79, 0
2, 83760, Note_on_c, 0, 79, 63
2, 83880, Note_on_c, 0, 79, 0
2, 84000, Note_on_c, 0, 75, 70
2, 84120, Note_on_c, 0, 75, 0
2, 84240, Note_on_c, 0, 75, 59
2, 84360, Note_on_c, 0, 75, 0
2, 84480, Note_on_c, 0, 76, 68
2, 84600, Note_on_c, 0, 76, 0
2, 84720, Note_on_c, 0, 76, 62
2, 84840, Note_on_c, 0, 76, 0
2, 84960, Note_on_c, 0, 74, 64
2, 85080, Note_on_c, 0, 74, 0
2, 85080, Note_on_c, 0, 72, 57
2, 85200, Note_on_c, 0, 72, 0
2, 85200, Note_on_c, 0, 71, 57
2, 85320, Note_on_c, 0, 71, 0
2, 85320, Note_on_c, 0, 72, 58
2, 85440, Note_on_c, 0, 72, 0
2, 85440, Note_on_c, 0, 69, 65
2, 85560, Note_on_c, 0, 69, 0
2, 85680, Note_on_c, 0, 69, 54
2, 85800, Note_on_c, 0, 69, 0
2, 85920, Note_on_c, 0, 64, 57
2, 86040, Note_on_c, 0, 64, 0
2, 86160, Note_on_c, 0, 64, 52
2, 86280, Note_on_c, 0, 64, 0
2, 86400, Note_on_c, 0, 62, 63
2, 86520, Note_on_c, 0, 62, 0
2, 86640, Note_on_c, 0, 62, 58
2, 86760, Note_on_c, 0, 62, 0
2, 86880, Note_on_c, 0, 74, 63
2, 87000, Note_on_c, 0, 74, 0
2, 87000, Note_on_c, 0, 71, 56
2, 87120, Note_on_c, 0, 71, 0
2, 87120, Note_on_c, 0, 69, 58
2, 87240, Note_on_c, 0, 69, 0
2, 87240, Note_on_c, 0, 67, 56
2, 87360, Note_on_c, 0, 67, 0
2, 87360, Note_on_c, 0, 69, 47
2, 87440, Note_on_c, 0, 69, 0
2, 87440, Note_on_c, 0, 71, 43
2, 87520, Note_on_c, 0, 71, 0
2, 87520, Note_on_c, 0, 69, 50
2, 87600, Note_on_c, 0, 69, 0
2, 87600, Note_on_c, 0, 71, 46
2, 87680, Note_on_c, 0, 71, 0
2, 87680, Note_on_c, 0, 69, 54
2, 87760, Note_on_c, 0, 69, 0
2, 87760, Note_on_c, 0, 71, 53
2, 87840, Note_on_c, 0, 71, 0
2, 87840, Note_on_c, 0, 69, 57
2, 87920, Note_on_c, 0, 69, 0
2, 87920, Note_on_c, 0, 71, 53
2, 88000, Note_on_c, 0, 71, 0
2, 88000, Note_on_c, 0, 69, 56
2, 88080, Note_on_c, 0, 69, 0
2, 88080, Note_on_c, 0, 71, 51
2, 88140, Note_on_c, 0, 71, 0
2, 88140, Note_on_c, 0, 69, 56
2, 88200, Note_on_c, 0, 69, 0
2, 88200, Note_on_c, 0, 67, 49
2, 88260, Note_on_c, 0, 67, 0
2, 88260, Note_on_c, 0, 69, 49
2, 88320, Note_on_c, 0, 69, 0
2, 88560, Note_on_c, 0, 86, 54
2, 88680, Note_on_c, 0, 86, 0
2, 89040, Note_on_c, 0, 83, 45
2, 89160, Note_on_c, 0, 83, 0
2, 89520, Note_on_c, 0, 79, 57
2, 89640, Note_on_c, 0, 79, 0
2, 90000, Note_on_c, 0, 75, 63
2, 90120, Note_on_c, 0, 75, 0
2, 90480, Note_on_c, 0, 76, 56
2, 90600, Note_on_c, 0, 76, 0
2, 90600, Note_on_c, 0, 75, 50
2, 90720, Note_on_c, 0, 75, 0
2, 90720, Note_on_c, 0, 76, 57
2, 90840, Note_on_c, 0, 76, 0
2, 90840, Note_on_c, 0, 78, 60
2, 90960, Note_on_c, 0, 78, 0
2, 90960, Note_on_c, 0, 79, 61
2, 91080, Note_on_c, 0, 79, 0
2, 91080, Note_on_c, 0, 78, 55
2, 91200, Note_on_c, 0, 78, 0
2, 91200, Note_on_c, 0, 76, 61
2, 91320, Note_on_c, 0, 76, 0
2, 91320, Note_on_c, 0, 74, 53
2, 91440, Note_on_c, 0, 74, 0
2, 91440, Note_on_c, 0, 72, 56
2, 91560, Note_on_c, 0, 72, 0
2, 91560, Note_on_c, 0, 71, 51
2, 91680, Note_on_c, 0, 71, 0
2, 91680, Note_on_c, 0, 69, 56
2, 91800, Note_on_c, 0, 69, 0
2, 91800, Note_on_c, 0, 67, 60
2, 91920, Note_on_c, 0, 67, 0
2, 91920, Note_on_c, 0, 66, 63
2, 92040, Note_on_c, 0, 66, 0
2, 92040, Note_on_c, 0, 64, 65
2, 92160, Note_on_c, 0, 64, 0
2, 92160, Note_on_c, 0, 62, 72
2, 92280, Note_on_c, 0, 62, 0
2, 92280, Note_on_c, 0, 67, 56
2, 92400, Note_on_c, 0, 67, 0
2, 92400, Note_on_c, 0, 71, 56
2, 92520, Note_on_c, 0, 71, 0
2, 92520, Note_on_c, 0, 74, 56
2, 92640, Note_on_c, 0, 74, 0
2, 92640, Note_on_c, 0, 72, 59
2, 92760, Note_on_c, 0, 72, 0
2, 92760, Note_on_c, 0, 71, 50
2, 92880, Note_on_c, 0, 71, 0
2, 92880, Note_on_c, 0, 69, 50
2, 93000, Note_on_c, 0, 69, 0
2, 93000, Note_on_c, 0, 67, 50
2, 93120, Note_on_c, 0, 67, 0
2, 93120, Note_on_c, 0, 69, 51
2, 93200, Note_on_c, 0, 69, 0
2, 93200, Note_on_c, 0, 71, 47
2, 93280, Note_on_c, 0, 71, 0
2, 93280, Note_on_c, 0, 69, 55
2, 93360, Note_on_c, 0, 69, 0
2, 93360, Note_on_c, 0, 71, 50
2, 93440, Note_on_c, 0, 71, 0
2, 93440, Note_on_c, 0, 69, 59
2, 93520, Note_on_c, 0, 69, 0
2, 93520, Note_on_c, 0, 71, 58
2, 93600, Note_on_c, 0, 71, 0
2, 93600, Note_on_c, 0, 69, 62
2, 93680, Note_on_c, 0, 69, 0
2, 93680, Note_on_c, 0, 71, 58
2, 93760, Note_on_c, 0, 71, 0
2, 93760, Note_on_c, 0, 69, 61
2, 93840, Note_on_c, 0, 69, 0
2, 93840, Note_on_c, 0, 71, 56
2, 93900, Note_on_c, 0, 71, 0
2, 93900, Note_on_c, 0, 69, 61
2, 93960, Note_on_c, 0, 69, 0
2, 93960, Note_on_c, 0, 67, 53
2, 94020, Note_on_c, 0, 67, 0
2, 94020, Note_on_c, 0, 69, 53
2, 94080, Note_on_c, 0, 69, 0
2, 94080, Note_on_c, 0, 67, 68
2, 94320, Note_on_c, 0, 67, 0
2, 94574, Note_on_c, 0, 62, 67
2, 94694, Note_on_c, 0, 62, 0
2, 94800, Note_on_c, 0, 62, 62
2, 94920, Note_on_c, 0, 62, 0
2, 95040, Note_on_c, 0, 59, 57
2, 95040, Note_on_c, 0, 67, 68
2, 95160, Note_on_c, 0, 67, 0
2, 95160, Note_on_c, 0, 59, 0
2, 95520, Note_on_c, 0, 62, 64
2, 95640, Note_on_c, 0, 62, 0
2, 95760, Note_on_c, 0, 62, 68
2, 95880, Note_on_c, 0, 62, 0
2, 96000, Note_on_c, 0, 60, 57
2, 96000, Note_on_c, 0, 69, 68
2, 96120, Note_on_c, 0, 69, 0
2, 96120, Note_on_c, 0, 60, 0
2, 96480, Note_on_c, 0, 62, 42
2, 96600, Note_on_c, 0, 62, 0
2, 96720, Note_on_c, 0, 62, 33
2, 96840, Note_on_c, 0, 62, 0
2, 96960, Note_on_c, 0, 57, 35
2, 96960, Note_on_c, 0, 66, 42
2, 97080, Note_on_c, 0, 66, 0
2, 97080, Note_on_c, 0, 57, 0
2, 97440, Note_on_c, 0, 62, 60
2, 97560, Note_on_c, 0, 62, 0
2, 97680, Note_on_c, 0, 62, 69
2, 97800, Note_on_c, 0, 62, 0
2, 97920, Note_on_c, 0, 67, 74
2, 97920, Note_on_c, 0, 59, 62
2, 98400, Note_on_c, 0, 59, 0
2, 98400, Note_on_c, 0, 67, 0
2, 98400, Note_on_c, 0, 67, 62
2, 98400, Note_on_c, 0, 59, 52
2, 98880, Note_on_c, 0, 59, 0
2, 98880, Note_on_c, 0, 67, 0
2, 98880, Note_on_c, 0, 59, 57
2, 98880, Note_on_c, 0, 67, 68
2, 99360, Note_on_c, 0, 67, 0
2, 99360, Note_on_c, 0, 59, 0
2, 99840, Note_on_c, 0, 67, 49
2, 100560, Note_on_c, 0, 67, 0
2, 100560, Note_on_c, 0, 71, 45
2, 100800, Note_on_c, 0, 71, 0
2, 100800, Note_on_c, 0, 74, 49
2, 101040, Note_on_c, 0, 74, 0
2, 101040, Note_on_c, 0, 79, 45
2, 101160, Note_on_c, 0, 79, 0
2, 101280, Note_on_c, 0, 79, 45
2, 101400, Note_on_c, 0, 79, 0
2, 101520, Note_on_c, 0, 79, 45
2, 101640, Note_on_c, 0, 79, 0
2, 101760, Note_on_c, 0, 69, 49
2, 101880, Note_on_c, 0, 69, 0
2, 101880, Note_on_c, 0, 71, 42
2, 102000, Note_on_c, 0, 71, 0
2, 102000, Note_on_c, 0, 72, 42
2, 102120, Note_on_c, 0, 72, 0
2, 102120, Note_on_c, 0, 71, 42
2, 102240, Note_on_c, 0, 71, 0
2, 102240, Note_on_c, 0, 69, 49
2, 102360, Note_on_c, 0, 69, 0
2, 102360, Note_on_c, 0, 71, 42
2, 102480, Note_on_c, 0, 71, 0
2, 102480, Note_on_c, 0, 72, 42
2, 102600, Note_on_c, 0, 72, 0
2, 102600, Note_on_c, 0, 71, 42
2, 102720, Note_on_c, 0, 71, 0
2, 102720, Note_on_c, 0, 69, 49
2, 102960, Note_on_c, 0, 69, 0
2, 103680, Note_on_c, 0, 71, 49
2, 104400, Note_on_c, 0, 71, 0
2, 104400, Note_on_c, 0, 74, 45
2, 104640, Note_on_c, 0, 74, 0
2, 104640, Note_on_c, 0, 77, 53
2, 104880, Note_on_c, 0, 77, 0
2, 104880, Note_on_c, 0, 83, 50
2, 105000, Note_on_c, 0, 83, 0
2, 105120, Note_on_c, 0, 83, 52
2, 105240, Note_on_c, 0, 83, 0
2, 105360, Note_on_c, 0, 83, 54
2, 105480, Note_on_c, 0, 83, 0
2, 105600, Note_on_c, 0, 72, 63
2, 105840, Note_on_c, 0, 72, 0
2, 105840, Note_on_c, 0, 74, 54
2, 105960, Note_on_c, 0, 74, 0
2, 105960, Note_on_c, 0, 76, 56
2, 106080, Note_on_c, 0, 76, 0
2, 106080, Note_on_c, 0, 77, 58
2, 106200, Note_on_c, 0, 77, 0
2, 106200, Note_on_c, 0, 79, 62
2, 106320, Note_on_c, 0, 79, 0
2, 106320, Note_on_c, 0, 81, 63
2, 106440, Note_on_c, 0, 81, 0
2, 106440, Note_on_c, 0, 83, 67
2, 106560, Note_on_c, 0, 83, 0
2, 106560, Note_on_c, 0, 84, 74
2, 106800, Note_on_c, 0, 84, 0
2, 107520, Note_on_c, 0, 86, 77
2, 107640, Note_on_c, 0, 86, 0
2, 107760, Note_on_c, 0, 86, 66
2, 107880, Note_on_c, 0, 86, 0
2, 108000, Note_on_c, 0, 83, 70
2, 108120, Note_on_c, 0, 83, 0
2, 108240, Note_on_c, 0, 83, 63
2, 108360, Note_on_c, 0, 83, 0
2, 108480, Note_on_c, 0, 79, 70
2, 108600, Note_on_c, 0, 79, 0
2, 108720, Note_on_c, 0, 79, 59
2, 108840, Note_on_c, 0, 79, 0
2, 108960, Note_on_c, 0, 79, 70
2, 109080, Note_on_c, 0, 79, 0
2, 109080, Note_on_c, 0, 81, 58
2, 109200, Note_on_c, 0, 81, 0
2, 109200, Note_on_c, 0, 83, 63
2, 109320, Note_on_c, 0, 83, 0
2, 109320, Note_on_c, 0, 79, 56
2, 109440, Note_on_c, 0, 79, 0
2, 109440, Note_on_c, 0, 84, 70
2, 109560, Note_on_c, 0, 84, 0
2, 109680, Note_on_c, 0, 84, 63
2, 109800, Note_on_c, 0, 84, 0
2, 109920, Note_on_c, 0, 79, 70
2, 110040, Note_on_c, 0, 79, 0
2, 110160, Note_on_c, 0, 79, 63
2, 110280, Note_on_c, 0, 79, 0
2, 110400, Note_on_c, 0, 75, 70
2, 110520, Note_on_c, 0, 75, 0
2, 110640, Note_on_c, 0, 75, 59
2, 110760, Note_on_c, 0, 75, 0
2, 110880, Note_on_c, 0, 72, 69
2, 111000, Note_on_c, 0, 72, 0
2, 111000, Note_on_c, 0, 74, 54
2, 111120, Note_on_c, 0, 74, 0
2, 111120, Note_on_c, 0, 75, 62
2, 111240, Note_on_c, 0, 75, 0
2, 111240, Note_on_c, 0, 72, 55
2, 111360, Note_on_c, 0, 72, 0
2, 111360, Note_on_c, 0, 71, 70
2, 111480, Note_on_c, 0, 71, 0
2, 111600, Note_on_c, 0, 71, 58
2, 111720, Note_on_c, 0, 71, 0
2, 111840, Note_on_c, 0, 68, 63
2, 111960, Note_on_c, 0, 68, 0
2, 112080, Note_on_c, 0, 68, 52
2, 112200, Note_on_c, 0, 68, 0
2, 112320, Note_on_c, 0, 67, 58
2, 112440, Note_on_c, 0, 67, 0
2, 112560, Note_on_c, 0, 67, 49
2, 112680, Note_on_c, 0, 67, 0
2, 112800, Note_on_c, 0, 66, 56
2, 112920, Note_on_c, 0, 66, 0
2, 113040, Note_on_c, 0, 66, 51
2, 113160, Note_on_c, 0, 66, 0
2, 113280, Note_on_c, 0, 67, 55
2, 113400, Note_on_c, 0, 67, 0
2, 113520, Note_on_c, 0, 67, 43
2, 113640, Note_on_c, 0, 67, 0
2, 113760, Note_on_c, 0, 66, 54
2, 113880, Note_on_c, 0, 66, 0
2, 114000, Note_on_c, 0, 66, 43
2, 114120, Note_on_c, 0, 66, 0
2, 114240, Note_on_c, 0, 67, 50
2, 114360, Note_on_c, 0, 67, 0
2, 114480, Note_on_c, 0, 67, 40
2, 114600, Note_on_c, 0, 67, 0
2, 114720, Note_on_c, 0, 66, 46
2, 114840, Note_on_c, 0, 66, 0
2, 114960, Note_on_c, 0, 66, 31
2, 115080, Note_on_c, 0, 66, 0
2, 115200, Note_on_c, 0, 67, 41
2, 115320, Note_on_c, 0, 67, 0
2, 115440, Note_on_c, 0, 67, 34
2, 115560, Note_on_c, 0, 67, 0
2, 115680, Note_on_c, 0, 66, 41
2, 115800, Note_on_c, 0, 66, 0
2, 115920, Note_on_c, 0, 66, 35
2, 116040, Note_on_c, 0, 66, 0
2, 116160, Note_on_c, 0, 67, 41
2, 116280, Note_on_c, 0, 67, 0
2, 116400, Note_on_c, 0, 67, 34
2, 116520, Note_on_c, 0, 67, 0
2, 116640, Note_on_c, 0, 66, 40
2, 116760, Note_on_c, 0, 66, 0
2, 116880, Note_on_c, 0, 66, 33
2, 117000, Note_on_c, 0, 66, 0
2, 117120, Note_on_c, 0, 67, 63
2, 117840, Note_on_c, 0, 67, 0
2, 117840, Note_on_c, 0, 64, 58
2, 118080, Note_on_c, 0, 64, 0
2, 118080, Note_on_c, 0, 60, 63
2, 118320, Note_on_c, 0, 60, 0
2, 118320, Note_on_c, 0, 55, 58
2, 118440, Note_on_c, 0, 55, 0
2, 118560, Note_on_c, 0, 55, 58
2, 118680, Note_on_c, 0, 55, 0
2, 118800, Note_on_c, 0, 55, 58
2, 118920, Note_on_c, 0, 55, 0
2, 119040, Note_on_c, 0, 67, 63
2, 119760, Note_on_c, 0, 67, 0
2, 119760, Note_on_c, 0, 64, 53
2, 120000, Note_on_c, 0, 64, 0
2, 120000, Note_on_c, 0, 60, 56
2, 120120, Note_on_c, 0, 60, 0
2, 120120, Note_on_c, 0, 62, 54
2, 120240, Note_on_c, 0, 62, 0
2, 120240, Note_on_c, 0, 64, 55
2, 120360, Note_on_c, 0, 64, 0
2, 120360, Note_on_c, 0, 65, 56
2, 120480, Note_on_c, 0, 65, 0
2, 120480, Note_on_c, 0, 67, 57
2, 120600, Note_on_c, 0, 67, 0
2, 120600, Note_on_c, 0, 69, 58
2, 120720, Note_on_c, 0, 69, 0
2, 120720, Note_on_c, 0, 71, 60
2, 120840, Note_on_c, 0, 71, 0
2, 120840, Note_on_c, 0, 72, 63
2, 120960, Note_on_c, 0, 72, 0
2, 120960, Note_on_c, 0, 71, 68
2, 121200, Note_on_c, 0, 71, 0
2, 121200, Note_on_c, 0, 69, 58
2, 121320, Note_on_c, 0, 69, 0
2, 121440, Note_on_c, 0, 69, 63
2, 121560, Note_on_c, 0, 69, 0
2, 121680, Note_on_c, 0, 69, 61
2, 121800, Note_on_c, 0, 69, 0
2, 121920, Note_on_c, 0, 71, 63
2, 122040, Note_on_c, 0, 71, 0
2, 122040, Note_on_c, 0, 69, 57
2, 122160, Note_on_c, 0, 69, 0
2, 122160, Note_on_c, 0, 68, 63
2, 122280, Note_on_c, 0, 68, 0
2, 122280, Note_on_c, 0, 69, 58
2, 122400, Note_on_c, 0, 69, 0
2, 122400, Note_on_c, 0, 72, 63
2, 122580, Note_on_c, 0, 72, 0
2, 122640, Note_on_c, 0, 69, 56
2, 122820, Note_on_c, 0, 69, 0
2, 122880, Note_on_c, 0, 66, 65
2, 123120, Note_on_c, 0, 66, 0
2, 123120, Note_on_c, 0, 67, 58
2, 123240, Note_on_c, 0, 67, 0
2, 123360, Note_on_c, 0, 67, 63
2, 123480, Note_on_c, 0, 67, 0
2, 123600, Note_on_c, 0, 67, 57
2, 123720, Note_on_c, 0, 67, 0
2, 123840, Note_on_c, 0, 67, 63
2, 124320, Note_on_c, 0, 67, 0
2, 124800, Note_on_c, 0, 62, 37
2, 124800, Note_on_c, 0, 65, 45
2, 124920, Note_on_c, 0, 65, 0
2, 124920, Note_on_c, 0, 62, 0
2, 125040, Note_on_c, 0, 65, 41
2, 125040, Note_on_c, 0, 62, 35
2, 125160, Note_on_c, 0, 62, 0
2, 125160, Note_on_c, 0, 65, 0
2, 125280, Note_on_c, 0, 60, 37
2, 125280, Note_on_c, 0, 64, 45
2, 125400, Note_on_c, 0, 64, 0
2, 125400, Note_on_c, 0, 60, 0
2, 125520, Note_on_c, 0, 64, 36
2, 125520, Note_on_c, 0, 60, 30
2, 125640, Note_on_c, 0, 60, 0
2, 125640, Note_on_c, 0, 64, 0
2, 125760, Note_on_c, 0, 59, 37
2, 125760, Note_on_c, 0, 62, 45
2, 126240, Note_on_c, 0, 62, 0
2, 126240, Note_on_c, 0, 59, 0
2, 126720, Note_on_c, 0, 64, 37
2, 126720, Note_on_c, 0, 67, 45
2, 126840, Note_on_c, 0, 67, 0
2, 126840, Note_on_c, 0, 64, 0
2, 126960, Note_on_c, 0, 67, 41
2, 126960, Note_on_c, 0, 64, 35
2, 127080, Note_on_c, 0, 64, 0
2, 127080, Note_on_c, 0, 67, 0
2, 127200, Note_on_c, 0, 62, 37
2, 127200, Note_on_c, 0, 65, 45
2, 127320, Note_on_c, 0, 65, 0
2, 127320, Note_on_c, 0, 62, 0
2, 127440, Note_on_c, 0, 65, 36
2, 127440, Note_on_c, 0, 62, 30
2, 127560, Note_on_c, 0, 62, 0
2, 127560, Note_on_c, 0, 65, 0
2, 127680, Note_on_c, 0, 60, 37
2, 127680, Note_on_c, 0, 64, 45
2, 128160, Note_on_c, 0, 64, 0
2, 128160, Note_on_c, 0, 60, 0
2, 128640, Note_on_c, 0, 69, 61
2, 128640, Note_on_c, 0, 65, 51
2, 128760, Note_on_c, 0, 65, 0
2, 128760, Note_on_c, 0, 69, 0
2, 128880, Note_on_c, 0, 65, 45
2, 128880, Note_on_c, 0, 69, 54
2, 129000, Note_on_c, 0, 69, 0
2, 129000, Note_on_c, 0, 65, 0
2, 129120, Note_on_c, 0, 73, 66
2, 129120, Note_on_c, 0, 67, 55
2, 129240, Note_on_c, 0, 67, 0
2, 129240, Note_on_c, 0, 73, 0
2, 129360, Note_on_c, 0, 67, 48
2, 129360, Note_on_c, 0, 73, 58
2, 129480, Note_on_c, 0, 73, 0
2, 129480, Note_on_c, 0, 67, 0
2, 129600, Note_on_c, 0, 74, 68
2, 129600, Note_on_c, 0, 65, 58
2, 129720, Note_on_c, 0, 65, 0
2, 129720, Note_on_c, 0, 74, 0
2, 129840, Note_on_c, 0, 65, 48
2, 129840, Note_on_c, 0, 74, 57
2, 129960, Note_on_c, 0, 74, 0
2, 129960, Note_on_c, 0, 65, 0
2, 130080, Note_on_c, 0, 66, 56
2, 130080, Note_on_c, 0, 72, 67
2, 130200, Note_on_c, 0, 72, 0
2, 130200, Note_on_c, 0, 66, 0
2, 130320, Note_on_c, 0, 66, 51
2, 130320, Note_on_c, 0, 72, 62
2, 130440, Note_on_c, 0, 72, 0
2, 130440, Note_on_c, 0, 66, 0
2, 130560, Note_on_c, 0, 71, 68
2, 130560, Note_on_c, 0, 67, 57
2, 130680, Note_on_c, 0, 67, 0
2, 130680, Note_on_c, 0, 71, 0
2, 130800, Note_on_c, 0, 67, 51
2, 130800, Note_on_c, 0, 71, 61
2, 130920, Note_on_c, 0, 71, 0
2, 130920, Note_on_c, 0, 67, 0
2, 131040, Note_on_c, 0, 75, 71
2, 131040, Note_on_c, 0, 69, 59
2, 131160, Note_on_c, 0, 69, 0
2, 131160, Note_on_c, 0, 75, 0
2, 131280, Note_on_c, 0, 69, 52
2, 131280, Note_on_c, 0, 75, 63
2, 131400, Note_on_c, 0, 75, 0
2, 131400, Note_on_c, 0, 69, 0
2, 131520, Note_on_c, 0, 76, 71
2, 131520, Note_on_c, 0, 68, 60
2, 131640, Note_on_c, 0, 68, 0
2, 131640, Note_on_c, 0, 76, 0
2, 131760, Note_on_c, 0, 68, 54
2, 131760, Note_on_c, 0, 76, 64
2, 131880, Note_on_c, 0, 76, 0
2, 131880, Note_on_c, 0, 68, 0
2, 132000, Note_on_c, 0, 68, 62
2, 132000, Note_on_c, 0, 76, 75
2, 132000, Note_on_c, 0, 71, 62
2, 132120, Note_on_c, 0, 71, 0
2, 132120, Note_on_c, 0, 76, 0
2, 132120, Note_on_c, 0, 68, 0
2, 132240, Note_on_c, 0, 68, 55
2, 132240, Note_on_c, 0, 71, 55
2, 132240, Note_on_c, 0, 76, 66
2, 132360, Note_on_c, 0, 76, 0
2, 132360, Note_on_c, 0, 71, 0
2, 132360, Note_on_c, 0, 68, 0
2, 132480, Note_on_c, 0, 72, 63
2, 132480, Note_on_c, 0, 76, 76
2, 132480, Note_on_c, 0, 69, 63
2, 132600, Note_on_c, 0, 69, 0
2, 132600, Note_on_c, 0, 76, 0
2, 132600, Note_on_c, 0, 72, 0
2, 132720, Note_on_c, 0, 72, 56
2, 132720, Note_on_c, 0, 69, 56
2, 132720, Note_on_c, 0, 76, 67
2, 132840, Note_on_c, 0, 76, 0
2, 132840, Note_on_c, 0, 69, 0
2, 132840, Note_on_c, 0, 72, 0
2, 132960, Note_on_c, 0, 71, 65
2, 132960, Note_on_c, 0, 76, 77
2, 132960, Note_on_c, 0, 74, 65
2, 133080, Note_on_c, 0, 74, 0
2, 133080, Note_on_c, 0, 76, 0
2, 133080, Note_on_c, 0, 71, 0
2, 133200, Note_on_c, 0, 74, 56
2, 133200, Note_on_c, 0, 71, 56
2, 133200, Note_on_c, 0, 76, 67
2, 133320, Note_on_c, 0, 76, 0
2, 133320, Note_on_c, 0, 71, 0
2, 133320, Note_on_c, 0, 74, 0
2, 133440, Note_on_c, 0, 72, 63
2, 133440, Note_on_c, 0, 76, 76
2, 133560, Note_on_c, 0, 76, 0
2, 133560, Note_on_c, 0, 72, 0
2, 133680, Note_on_c, 0, 72, 56
2, 133680, Note_on_c, 0, 76, 67
2, 133800, Note_on_c, 0, 76, 0
2, 133800, Note_on_c, 0, 72, 0
2, 133920, Note_on_c, 0, 76, 83
2, 133920, Note_on_c, 0, 73, 70
2, 134040, Note_on_c, 0, 73, 0
2, 134040, Note_on_c, 0, 76, 0
2, 134160, Note_on_c, 0, 73, 60
2, 134160, Note_on_c, 0, 76, 72
2, 134280, Note_on_c, 0, 76, 0
2, 134280, Note_on_c, 0, 73, 0
2, 134400, Note_on_c, 0, 74, 68
2, 134400, Note_on_c, 0, 77, 82
2, 134520, Note_on_c, 0, 77, 0
2, 134520, Note_on_c, 0, 74, 0
2, 134640, Note_on_c, 0, 74, 60
2, 134640, Note_on_c, 0, 77, 72
2, 134760, Note_on_c, 0, 77, 0
2, 134760, Note_on_c, 0, 74, 0
2, 134880, Note_on_c, 0, 79, 83
2, 134880, Note_on_c, 0, 76, 70
2, 135000, Note_on_c, 0, 76, 0
2, 135000, Note_on_c, 0, 79, 0
2, 135120, Note_on_c, 0, 76, 60
2, 135120, Note_on_c, 0, 79, 72
2, 135240, Note_on_c, 0, 79, 0
2, 135240, Note_on_c, 0, 76, 0
2, 135360, Note_on_c, 0, 81, 87
2, 135360, Note_on_c, 0, 77, 73
2, 135600, Note_on_c, 0, 77, 0
2, 135600, Note_on_c, 0, 81, 0
2, 135600, Note_on_c, 0, 79, 80
2, 135600, Note_on_c, 0, 76, 68
2, 135840, Note_on_c, 0, 76, 0
2, 135840, Note_on_c, 0, 79, 0
2, 135840, Note_on_c, 0, 77, 86
2, 135840, Note_on_c, 0, 74, 73
2, 136080, Note_on_c, 0, 74, 0
2, 136080, Note_on_c, 0, 77, 0
2, 136080, Note_on_c, 0, 76, 81
2, 136080, Note_on_c, 0, 72, 68
2, 136320, Note_on_c, 0, 72, 0
2, 136320, Note_on_c, 0, 76, 0
2, 136320, Note_on_c, 0, 71, 73
2, 136320, Note_on_c, 0, 74, 87
2, 136560, Note_on_c, 0, 74, 0
2, 136560, Note_on_c, 0, 71, 0
2, 136800, Note_on_c, 0, 77, 79
2, 136800, Note_on_c, 0, 71, 67
2, 136920, Note_on_c, 0, 71, 0
2, 136920, Note_on_c, 0, 77, 0
2, 137040, Note_on_c, 0, 71, 61
2, 137040, Note_on_c, 0, 77, 72
2, 137160, Note_on_c, 0, 77, 0
2, 137160, Note_on_c, 0, 71, 0
2, 137280, Note_on_c, 0, 76, 79
2, 137280, Note_on_c, 0, 72, 67
2, 137520, Note_on_c, 0, 72, 0
2, 137520, Note_on_c, 0, 76, 0
2, 137760, Note_on_c, 0, 72, 78
2, 137760, Note_on_c, 0, 66, 66
2, 137880, Note_on_c, 0, 66, 0
2, 137880, Note_on_c, 0, 72, 0
2, 138000, Note_on_c, 0, 66, 58
2, 138000, Note_on_c, 0, 72, 69
2, 138120, Note_on_c, 0, 72, 0
2, 138120, Note_on_c, 0, 66, 0
2, 138240, Note_on_c, 0, 67, 66
2, 138240, Note_on_c, 0, 71, 78
2, 138480, Note_on_c, 0, 71, 0
2, 138480, Note_on_c, 0, 67, 0
2, 138720, Note_on_c, 0, 59, 62
2, 138720, Note_on_c, 0, 65, 74
2, 138840, Note_on_c, 0, 65, 0
2, 138840, Note_on_c, 0, 59, 0
2, 138960, Note_on_c, 0, 65, 65
2, 138960, Note_on_c, 0, 59, 55
2, 139080, Note_on_c, 0, 59, 0
2, 139080, Note_on_c, 0, 65, 0
2, 139200, Note_on_c, 0, 60, 62
2, 139200, Note_on_c, 0, 64, 74
2, 139440, Note_on_c, 0, 64, 0
2, 139440, Note_on_c, 0, 60, 0
2, 139680, Note_on_c, 0, 54, 62
2, 139680, Note_on_c, 0, 60, 74
2, 139800, Note_on_c, 0, 60, 0
2, 139800, Note_on_c, 0, 54, 0
2, 139920, Note_on_c, 0, 54, 56
2, 139920, Note_on_c, 0, 60, 66
2, 140040, Note_on_c, 0, 60, 0
2, 140040, Note_on_c, 0, 54, 0
2, 140160, Note_on_c, 0, 55, 64
2, 140160, Note_on_c, 0, 59, 76
2, 140400, Note_on_c, 0, 59, 0
2, 140400, Note_on_c, 0, 55, 0
2, 140640, Note_on_c, 0, 59, 73
2, 140640, Note_on_c, 0, 62, 73
2, 140640, Note_on_c, 0, 67, 87
2, 140880, Note_on_c, 0, 67, 0
2, 140880, Note_on_c, 0, 62, 0
2, 140880, Note_on_c, 0, 59, 0
2, 141120, Note_on_c, 0, 59, 73
2, 141120, Note_on_c, 0, 62, 73
2, 141120, Note_on_c, 0, 67, 87
2, 141360, Note_on_c, 0, 67, 0
2, 141360, Note_on_c, 0, 62, 0
2, 141360, Note_on_c, 0, 59, 0
2, 142080, Note_on_c, 0, 84, 58
2, 142560, Note_on_c, 0, 84, 0
2, 142560, Note_on_c, 0, 86, 55
2, 142680, Note_on_c, 0, 86, 0
2, 142680, Note_on_c, 0, 84, 46
2, 142800, Note_on_c, 0, 84, 0
2, 142800, Note_on_c, 0, 83, 50
2, 142920, Note_on_c, 0, 83, 0
2, 142920, Note_on_c, 0, 81, 46
2, 143040, Note_on_c, 0, 81, 0
2, 143040, Note_on_c, 0, 79, 57
2, 143520, Note_on_c, 0, 79, 0
2, 143520, Note_on_c, 0, 81, 54
2, 143640, Note_on_c, 0, 81, 0
2, 143640, Note_on_c, 0, 79, 42
2, 143760, Note_on_c, 0, 79, 0
2, 143760, Note_on_c, 0, 77, 53
2, 143880, Note_on_c, 0, 77, 0
2, 143880, Note_on_c, 0, 76, 50
2, 144000, Note_on_c, 0, 76, 0
2, 144000, Note_on_c, 0, 74, 55
2, 144120, Note_on_c, 0, 74, 0
2, 144180, Note_on_c, 0, 76, 42
2, 144240, Note_on_c, 0, 76, 0
2, 144240, Note_on_c, 0, 74, 50
2, 144360, Note_on_c, 0, 74, 0
2, 144360, Note_on_c, 0, 73, 47
2, 144480, Note_on_c, 0, 73, 0
2, 144480, Note_on_c, 0, 74, 50
2, 144600, Note_on_c, 0, 74, 0
2, 144720, Note_on_c, 0, 76, 46
2, 144840, Note_on_c, 0, 76, 0
2, 144960, Note_on_c, 0, 77, 50
2, 145200, Note_on_c, 0, 77, 0
2, 145680, Note_on_c, 0, 89, 55
2, 145800, Note_on_c, 0, 89, 0
2, 145800, Note_on_c, 0, 88, 49
2, 145920, Note_on_c, 0, 88, 0
2, 145920, Note_on_c, 0, 86, 55
2, 146040, Note_on_c, 0, 86, 0
2, 146040, Note_on_c, 0, 88, 53
2, 146160, Note_on_c, 0, 88, 0
2, 146160, Note_on_c, 0, 86, 55
2, 146280, Note_on_c, 0, 86, 0
2, 146280, Note_on_c, 0, 88, 54
2, 146400, Note_on_c, 0, 88, 0
2, 146400, Note_on_c, 0, 89, 62
2, 146520, Note_on_c, 0, 89, 0
2, 146520, Note_on_c, 0, 88, 54
2, 146640, Note_on_c, 0, 88, 0
2, 146640, Note_on_c, 0, 86, 55
2, 146760, Note_on_c, 0, 86, 0
2, 146760, Note_on_c, 0, 88, 53
2, 146880, Note_on_c, 0, 88, 0
2, 146880, Note_on_c, 0, 89, 62
2, 147000, Note_on_c, 0, 89, 0
2, 147000, Note_on_c, 0, 88, 55
2, 147120, Note_on_c, 0, 88, 0
2, 147120, Note_on_c, 0, 86, 55
2, 147240, Note_on_c, 0, 86, 0
2, 147240, Note_on_c, 0, 84, 54
2, 147360, Note_on_c, 0, 84, 0
2, 147360, Note_on_c, 0, 83, 61
2, 147480, Note_on_c, 0, 83, 0
2, 147480, Note_on_c, 0, 81, 55
2, 147600, Note_on_c, 0, 81, 0
2, 147600, Note_on_c, 0, 79, 58
2, 147720, Note_on_c, 0, 79, 0
2, 147720, Note_on_c, 0, 77, 54
2, 147840, Note_on_c, 0, 77, 0
2, 147840, Note_on_c, 0, 76, 55
2, 148080, Note_on_c, 0, 76, 0
2, 148440, Note_on_c, 0, 72, 47
2, 148560, Note_on_c, 0, 72, 0
2, 148560, Note_on_c, 0, 74, 48
2, 148680, Note_on_c, 0, 74, 0
2, 148680, Note_on_c, 0, 76, 50
2, 148800, Note_on_c, 0, 76, 0
2, 148800, Note_on_c, 0, 77, 52
2, 148920, Note_on_c, 0, 77, 0
2, 148920, Note_on_c, 0, 79, 52
2, 149040, Note_on_c, 0, 79, 0
2, 149040, Note_on_c, 0, 81, 54
2, 149160, Note_on_c, 0, 81, 0
2, 149160, Note_on_c, 0, 83, 55
2, 149280, Note_on_c, 0, 83, 0
2, 149280, Note_on_c, 0, 84, 56
2, 149400, Note_on_c, 0, 84, 0
2, 149400, Note_on_c, 0, 86, 55
2, 149520, Note_on_c, 0, 86, 0
2, 149520, Note_on_c, 0, 88, 61
2, 149640, Note_on_c, 0, 88, 0
2, 149640, Note_on_c, 0, 86, 57
2, 149760, Note_on_c, 0, 86, 0
2, 149760, Note_on_c, 0, 84, 61
2, 150000, Note_on_c, 0, 84, 0
2, 150360, Note_on_c, 0, 72, 48
2, 150480, Note_on_c, 0, 72, 0
2, 150480, Note_on_c, 0, 74, 49
2, 150600, Note_on_c, 0, 74, 0
2, 150600, Note_on_c, 0, 76, 52
2, 150720, Note_on_c, 0, 76, 0
2, 150720, Note_on_c, 0, 77, 53
2, 150840, Note_on_c, 0, 77, 0
2, 150840, Note_on_c, 0, 79, 56
2, 150960, Note_on_c, 0, 79, 0
2, 150960, Note_on_c, 0, 81, 56
2, 151080, Note_on_c, 0, 81, 0
2, 151080, Note_on_c, 0, 83, 57
2, 151200, Note_on_c, 0, 83, 0
2, 151200, Note_on_c, 0, 84, 58
2, 151320, Note_on_c, 0, 84, 0
2, 151320, Note_on_c, 0, 86, 61
2, 151440, Note_on_c, 0, 86, 0
2, 151440, Note_on_c, 0, 88, 64
2, 151560, Note_on_c, 0, 88, 0
2, 151560, Note_on_c, 0, 86, 70
2, 151680, Note_on_c, 0, 86, 0
2, 151680, Note_on_c, 0, 84, 77
2, 151800, Note_on_c, 0, 84, 0
2, 151920, Note_on_c, 0, 84, 70
2, 152040, Note_on_c, 0, 84, 0
2, 152160, Note_on_c, 0, 79, 70
2, 152280, Note_on_c, 0, 79, 0
2, 152400, Note_on_c, 0, 79, 63
2, 152520, Note_on_c, 0, 79, 0
2, 152640, Note_on_c, 0, 76, 70
2, 152760, Note_on_c, 0, 76, 0
2, 152880, Note_on_c, 0, 76, 63
2, 153000, Note_on_c, 0, 76, 0
2, 153120, Note_on_c, 0, 74, 64
2, 153240, Note_on_c, 0, 74, 0
2, 153240, Note_on_c, 0, 72, 57
2, 153360, Note_on_c, 0, 72, 0
2, 153360, Note_on_c, 0, 71, 57
2, 153480, Note_on_c, 0, 71, 0
2, 153480, Note_on_c, 0, 72, 58
2, 153600, Note_on_c, 0, 72, 0
2, 153600, Note_on_c, 0, 69, 68
2, 153720, Note_on_c, 0, 69, 0
2, 153840, Note_on_c, 0, 69, 68
2, 153960, Note_on_c, 0, 69, 0
2, 154080, Note_on_c, 0, 65, 64
2, 154200, Note_on_c, 0, 65, 0
2, 154320, Note_on_c, 0, 65, 57
2, 154440, Note_on_c, 0, 65, 0
2, 154560, Note_on_c, 0, 62, 65
2, 154680, Note_on_c, 0, 62, 0
2, 154800, Note_on_c, 0, 62, 54
2, 154920, Note_on_c, 0, 62, 0
2, 155040, Note_on_c, 0, 69, 57
2, 155160, Note_on_c, 0, 69, 0
2, 155280, Note_on_c, 0, 69, 52
2, 155400, Note_on_c, 0, 69, 0
2, 155520, Note_on_c, 0, 67, 63
2, 155640, Note_on_c, 0, 67, 0
2, 155760, Note_on_c, 0, 67, 58
2, 155880, Note_on_c, 0, 67, 0
2, 156000, Note_on_c, 0, 69, 63
2, 156120, Note_on_c, 0, 69, 0
2, 156120, Note_on_c, 0, 67, 56
2, 156240, Note_on_c, 0, 67, 0
2, 156240, Note_on_c, 0, 65, 58
2, 156360, Note_on_c, 0, 65, 0
2, 156360, Note_on_c, 0, 64, 56
2, 156480, Note_on_c, 0, 64, 0
2, 156480, Note_on_c, 0, 62, 47
2, 156560, Note_on_c, 0, 62, 0
2, 156560, Note_on_c, 0, 64, 43
2, 156640, Note_on_c, 0, 64, 0
2, 156640, Note_on_c, 0, 62, 50
2, 156720, Note_on_c, 0, 62, 0
2, 156720, Note_on_c, 0, 64, 46
2, 156800, Note_on_c, 0, 64, 0
2, 156800, Note_on_c, 0, 62, 54
2, 156880, Note_on_c, 0, 62, 0
2, 156880, Note_on_c, 0, 64, 53
2, 156960, Note_on_c, 0, 64, 0
2, 156960, Note_on_c, 0, 62, 57
2, 157040, Note_on_c, 0, 62, 0
2, 157040, Note_on_c, 0, 64, 53
2, 157120, Note_on_c, 0, 64, 0
2, 157120, Note_on_c, 0, 62, 56
2, 157200, Note_on_c, 0, 62, 0
2, 157200, Note_on_c, 0, 64, 51
2, 157260, Note_on_c, 0, 64, 0
2, 157260, Note_on_c, 0, 62, 56
2, 157320, Note_on_c, 0, 62, 0
2, 157320, Note_on_c, 0, 60, 49
2, 157380, Note_on_c, 0, 60, 0
2, 157380, Note_on_c, 0, 62, 49
2, 157440, Note_on_c, 0, 62, 0
2, 157440, Note_on_c, 0, 64, 60
2, 157680, Note_on_c, 0, 64, 0
2, 158040, Note_on_c, 0, 60, 47
2, 158160, Note_on_c, 0, 60, 0
2, 158160, Note_on_c, 0, 62, 48
2, 158280, Note_on_c, 0, 62, 0
2, 158280, Note_on_c, 0, 64, 50
2, 158400, Note_on_c, 0, 64, 0
2, 158400, Note_on_c, 0, 65, 52
2, 158520, Note_on_c, 0, 65, 0
2, 158520, Note_on_c, 0, 67, 52
2, 158640, Note_on_c, 0, 67, 0
2, 158640, Note_on_c, 0, 69, 54
2, 158760, Note_on_c, 0, 69, 0
2, 158760, Note_on_c, 0, 71, 55
2, 158880, Note_on_c, 0, 71, 0
2, 158880, Note_on_c, 0, 72, 56
2, 159000, Note_on_c, 0, 72, 0
2, 159000, Note_on_c, 0, 74, 55
2, 159120, Note_on_c, 0, 74, 0
2, 159120, Note_on_c, 0, 76, 61
2, 159240, Note_on_c, 0, 76, 0
2, 159240, Note_on_c, 0, 74, 57
2, 159360, Note_on_c, 0, 74, 0
2, 159360, Note_on_c, 0, 72, 61
2, 159600, Note_on_c, 0, 72, 0
2, 159960, Note_on_c, 0, 60, 48
2, 160080, Note_on_c, 0, 60, 0
2, 160080, Note_on_c, 0, 62, 49
2, 160200, Note_on_c, 0, 62, 0
2, 160200, Note_on_c, 0, 64, 52
2, 160320, Note_on_c, 0, 64, 0
2, 160320, Note_on_c, 0, 65, 53
2, 160440, Note_on_c, 0, 65, 0
2, 160440, Note_on_c, 0, 67, 56
2, 160560, Note_on_c, 0, 67, 0
2, 160560, Note_on_c, 0, 69, 56
2, 160680, Note_on_c, 0, 69, 0
2, 160680, Note_on_c, 0, 71, 57
2, 160800, Note_on_c, 0, 71, 0
2, 160800, Note_on_c, 0, 72, 58
2, 160920, Note_on_c, 0, 72, 0
2, 160920, Note_on_c, 0, 74, 61
2, 161040, Note_on_c, 0, 74, 0
2, 161040, Note_on_c, 0, 76, 64
2, 161160, Note_on_c, 0, 76, 0
2, 161160, Note_on_c, 0, 77, 70
2, 161280, Note_on_c, 0, 77, 0
2, 161280, Note_on_c, 0, 79, 74
2, 161400, Note_on_c, 0, 79, 0
2, 161520, Note_on_c, 0, 79, 61
2, 161640, Note_on_c, 0, 79, 0
2, 162000, Note_on_c, 0, 76, 45
2, 162120, Note_on_c, 0, 76, 0
2, 162480, Note_on_c, 0, 72, 57
2, 162600, Note_on_c, 0, 72, 0
2, 162960, Note_on_c, 0, 68, 63
2, 163080, Note_on_c, 0, 68, 0
2, 163440, Note_on_c, 0, 69, 56
2, 163560, Note_on_c, 0, 69, 0
2, 163560, Note_on_c, 0, 68, 50
2, 163680, Note_on_c, 0, 68, 0
2, 163680, Note_on_c, 0, 69, 57
2, 163800, Note_on_c, 0, 69, 0
2, 163800, Note_on_c, 0, 71, 60
2, 163920, Note_on_c, 0, 71, 0
2, 163920, Note_on_c, 0, 72, 61
2, 164040, Note_on_c, 0, 72, 0
2, 164040, Note_on_c, 0, 71, 55
2, 164160, Note_on_c, 0, 71, 0
2, 164160, Note_on_c, 0, 69, 61
2, 164280, Note_on_c, 0, 69, 0
2, 164280, Note_on_c, 0, 67, 53
2, 164400, Note_on_c, 0, 67, 0
2, 164400, Note_on_c, 0, 65, 56
2, 164520, Note_on_c, 0, 65, 0
2, 164520, Note_on_c, 0, 64, 51
2, 164640, Note_on_c, 0, 64, 0
2, 164640, Note_on_c, 0, 62, 56
2, 164760, Note_on_c, 0, 62, 0
2, 164760, Note_on_c, 0, 60, 60
2, 164880, Note_on_c, 0, 60, 0
2, 164880, Note_on_c, 0, 59, 63
2, 165000, Note_on_c, 0, 59, 0
2, 165000, Note_on_c, 0, 57, 65
2, 165120, Note_on_c, 0, 57, 0
2, 165120, Note_on_c, 0, 55, 72
2, 165240, Note_on_c, 0, 55, 0
2, 165240, Note_on_c, 0, 60, 56
2, 165360, Note_on_c, 0, 60, 0
2, 165360, Note_on_c, 0, 64, 56
2, 165480, Note_on_c, 0, 64, 0
2, 165480, Note_on_c, 0, 67, 56
2, 165600, Note_on_c, 0, 67, 0
2, 165600, Note_on_c, 0, 65, 59
2, 165720, Note_on_c, 0, 65, 0
2, 165720, Note_on_c, 0, 64, 50
2, 165840, Note_on_c, 0, 64, 0
2, 165840, Note_on_c, 0, 62, 50
2, 165960, Note_on_c, 0, 62, 0
2, 165960, Note_on_c, 0, 60, 50
2, 166080, Note_on_c, 0, 60, 0
2, 166080, Note_on_c, 0, 62, 51
2, 166160, Note_on_c, 0, 62, 0
2, 166160, Note_on_c, 0, 64, 47
2, 166240, Note_on_c, 0, 64, 0
2, 166240, Note_on_c, 0, 62, 55
2, 166320, Note_on_c, 0, 62, 0
2, 166320, Note_on_c, 0, 64, 50
2, 166400, Note_on_c, 0, 64, 0
2, 166400, Note_on_c, 0, 62, 59
2, 166480, Note_on_c, 0, 62, 0
2, 166480, Note_on_c, 0, 64, 58
2, 166560, Note_on_c, 0, 64, 0
2, 166560, Note_on_c, 0, 62, 62
2, 166640, Note_on_c, 0, 62, 0
2, 166640, Note_on_c, 0, 64, 58
2, 166720, Note_on_c, 0, 64, 0
2, 166720, Note_on_c, 0, 62, 61
2, 166800, Note_on_c, 0, 62, 0
2, 166800, Note_on_c, 0, 64, 56
2, 166860, Note_on_c, 0, 64, 0
2, 166860, Note_on_c, 0, 62, 61
2, 166920, Note_on_c, 0, 62, 0
2, 166920, Note_on_c, 0, 60, 53
2, 166980, Note_on_c, 0, 60, 0
2, 166980, Note_on_c, 0, 62, 53
2, 167040, Note_on_c, 0, 62, 0
2, 167040, Note_on_c, 0, 60, 68
2, 167280, Note_on_c, 0, 60, 0
2, 167534, Note_on_c, 0, 55, 67
2, 167654, Note_on_c, 0, 55, 0
2, 167760, Note_on_c, 0, 55, 62
2, 167880, Note_on_c, 0, 55, 0
2, 168000, Note_on_c, 0, 52, 57
2, 168000, Note_on_c, 0, 60, 68
2, 168120, Note_on_c, 0, 60, 0
2, 168120, Note_on_c, 0, 52, 0
2, 168480, Note_on_c, 0, 55, 64
2, 168600, Note_on_c, 0, 55, 0
2, 168720, Note_on_c, 0, 55, 68
2, 168840, Note_on_c, 0, 55, 0
2, 168960, Note_on_c, 0, 53, 57
2, 168960, Note_on_c, 0, 62, 68
2, 169080, Note_on_c, 0, 62, 0
2, 169080, Note_on_c, 0, 53, 0
2, 169440, Note_on_c, 0, 55, 37
2, 169560, Note_on_c, 0, 55, 0
2, 169680, Note_on_c, 0, 55, 29
2, 169800, Note_on_c, 0, 55, 0
2, 169920, Note_on_c, 0, 50, 31
2, 169920, Note_on_c, 0, 59, 37
2, 170040, Note_on_c, 0, 59, 0
2, 170040, Note_on_c, 0, 50, 0
2, 170400, Note_on_c, 0, 55, 69
2, 170520, Note_on_c, 0, 55, 0
2, 170640, Note_on_c, 0, 55, 79
2, 170760, Note_on_c, 0, 55, 0
2, 170880, Note_on_c, 0, 60, 74
2, 170880, Note_on_c, 0, 52, 62
2, 171360, Note_on_c, 0, 52, 0
2, 171360, Note_on_c, 0, 60, 0
2, 171360, Note_on_c, 0, 60, 62
2, 171360, Note_on_c, 0, 52, 52
2, 171840, Note_on_c, 0, 52, 0
2, 171840, Note_on_c, 0, 60, 0
2, 171840, Note_on_c, 0, 52, 57
2, 171840, Note_on_c, 0, 60, 68
2, 172320, Note_on_c, 0, 60, 0
2, 172320, Note_on_c, 0, 52, 0
2, 172320, End_track
3, 0, Start_track
3, 0, Title_t, "Piano left"
3, 0, Program_c, 0, 0
3, 0, Note_on_c, 0, 64, 40
3, 240, Note_on_c, 0, 64, 0
3, 240, Note_on_c, 0, 60, 32
3, 480, Note_on_c, 0, 60, 0
3, 480, Note_on_c, 0, 64, 35
3, 720, Note_on_c, 0, 64, 0
3, 720, Note_on_c, 0, 60, 32
3, 960, Note_on_c, 0, 60, 0
3, 960, Note_on_c, 0, 64, 40
3, 1200, Note_on_c, 0, 64, 0
3, 1200, Note_on_c, 0, 60, 29
3, 1440, Note_on_c, 0, 60, 0
3, 1440, Note_on_c, 0, 64, 37
3, 1680, Note_on_c, 0, 64, 0
3, 1680, Note_on_c, 0, 60, 32
3, 1920, Note_on_c, 0, 60, 0
3, 1920, Note_on_c, 0, 64, 40
3, 2160, Note_on_c, 0, 64, 0
3, 2160, Note_on_c, 0, 60, 32
3, 2400, Note_on_c, 0, 60, 0
3, 2400, Note_on_c, 0, 64, 35
3, 2640, Note_on_c, 0, 64, 0
3, 2640, Note_on_c, 0, 60, 32
3, 2880, Note_on_c, 0, 60, 0
3, 2880, Note_on_c, 0, 64, 40
3, 3120, Note_on_c, 0, 64, 0
3, 3120, Note_on_c, 0, 60, 29
3, 3360, Note_on_c, 0, 60, 0
3, 3360, Note_on_c, 0, 64, 37
3, 3600, Note_on_c, 0, 64, 0
3, 3600, Note_on_c, 0, 60, 32
3, 3840, Note_on_c, 0, 60, 0
3, 3840, Note_on_c, 0, 65, 40
3, 4080, Note_on_c, 0, 65, 0
3, 4080, Note_on_c, 0, 60, 32
3, 4320, Note_on_c, 0, 60, 0
3, 4320, Note_on_c, 0, 65, 35
3, 4560, Note_on_c, 0, 65, 0
3, 4560, Note_on_c, 0, 60, 32
3, 4800, Note_on_c, 0, 60, 0
3, 4800, Note_on_c, 0, 65, 40
3, 5040, Note_on_c, 0, 65, 0
3, 5040, Note_on_c, 0, 60, 29
3, 5280, Note_on_c, 0, 60, 0
3, 5280, Note_on_c, 0, 65, 37
3, 5520, Note_on_c, 0, 65, 0
3, 5520, Note_on_c, 0, 60, 32
3, 5760, Note_on_c, 0, 60, 0
3, 5760, Note_on_c, 0, 64, 40
3, 6000, Note_on_c, 0, 64, 0
3, 6000, Note_on_c, 0, 60, 32
3, 6240, Note_on_c, 0, 60, 0
3, 6240, Note_on_c, 0, 64, 35
3, 6480, Note_on_c, 0, 64, 0
3, 6480, Note_on_c, 0, 60, 32
3, 6720, Note_on_c, 0, 60, 0
3, 6720, Note_on_c, 0, 64, 38
3, 6960, Note_on_c, 0, 64, 0
3, 6960, Note_on_c, 0, 60, 29
3, 7200, Note_on_c, 0, 60, 0
3, 7200, Note_on_c, 0, 64, 37
3, 7440, Note_on_c, 0, 64, 0
3, 7440, Note_on_c, 0, 60, 30
3, 7680, Note_on_c, 0, 60, 0
3, 7680, Note_on_c, 0, 67, 35
3, 8160, Note_on_c, 0, 67, 0
3, 8640, Note_on_c, 0, 67, 45
3, 8760, Note_on_c, 0, 67, 0
3, 8880, Note_on_c, 0, 67, 40
3, 9000, Note_on_c, 0, 67, 0
3, 9120, Note_on_c, 0, 65, 45
3, 9240, Note_on_c, 0, 65, 0
3, 9360, Note_on_c, 0, 65, 38
3, 9480, Note_on_c, 0, 65, 0
3, 9600, Note_on_c, 0, 64, 35
3, 10080, Note_on_c, 0, 64, 0
3, 10560, Note_on_c, 0, 69, 45
3, 10680, Note_on_c, 0, 69, 0
3, 10800, Note_on_c, 0, 69, 40
3, 10920, Note_on_c, 0, 69, 0
3, 11040, Note_on_c, 0, 67, 45
3, 11160, Note_on_c, 0, 67, 0
3, 11280, Note_on_c, 0, 67, 38
3, 11400, Note_on_c, 0, 67, 0
3, 11520, Note_on_c, 0, 65, 45
3, 11640, Note_on_c, 0, 65, 0
3, 12240, Note_on_c, 0, 65, 39
3, 12360, Note_on_c, 0, 65, 0
3, 12480, Note_on_c, 0, 67, 45
3, 12600, Note_on_c, 0, 67, 0
3, 12960, Note_on_c, 0, 55, 40
3, 13080, Note_on_c, 0, 55, 0
3, 13440, Note_on_c, 0, 60, 35
3, 13560, Note_on_c, 0, 60, 0
3, 13920, Note_on_c, 0, 55, 39
3, 14040, Note_on_c, 0, 55, 0
3, 14400, Note_on_c, 0, 60, 45
3, 14640, Note_on_c, 0, 60, 0
3, 14640, Note_on_c, 0, 55, 40
3, 14880, Note_on_c, 0, 55, 0
3, 14880, Note_on_c, 0, 52, 45
3, 15120, Note_on_c, 0, 52, 0
3, 15120, Note_on_c, 0, 48, 38
3, 15360, Note_on_c, 0, 48, 0
3, 15360, Note_on_c, 0, 55, 38
3, 15840, Note_on_c, 0, 55, 0
3, 16320, Note_on_c, 0, 55, 49
3, 16440, Note_on_c, 0, 55, 0
3, 16560, Note_on_c, 0, 55, 44
3, 16680, Note_on_c, 0, 55, 0
3, 16800, Note_on_c, 0, 53, 49
3, 16920, Note_on_c, 0, 53, 0
3, 17040, Note_on_c, 0, 53, 41
3, 17160, Note_on_c, 0, 53, 0
3, 17280, Note_on_c, 0, 52, 49
3, 17400, Note_on_c, 0, 52, 0
3, 18000, Note_on_c, 0, 56, 41
3, 18120, Note_on_c, 0, 56, 0
3, 18240, Note_on_c, 0, 57, 49
3, 18360, Note_on_c, 0, 57, 0
3, 18720, Note_on_c, 0, 52, 50
3, 18840, Note_on_c, 0, 52, 0
3, 19200, Note_on_c, 0, 53, 61
3, 19320, Note_on_c, 0, 53, 0
3, 19440, Note_on_c, 0, 53, 46
3, 19560, Note_on_c, 0, 53, 0
3, 19680, Note_on_c, 0, 50, 53
3, 19800, Note_on_c, 0, 50, 0
3, 19920, Note_on_c, 0, 50, 49
3, 20040, Note_on_c, 0, 50, 0
3, 20160, Note_on_c, 0, 55, 58
3, 20280, Note_on_c, 0, 55, 0
3, 20400, Note_on_c, 0, 55, 50
3, 20520, Note_on_c, 0, 55, 0
3, 20640, Note_on_c, 0, 43, 56
3, 20760, Note_on_c, 0, 43, 0
3, 20880, Note_on_c, 0, 43, 50
3, 21000, Note_on_c, 0, 43, 0
3, 21120, Note_on_c, 0, 48, 56
3, 21360, Note_on_c, 0, 48, 0
3, 21600, Note_on_c, 0, 36, 41
3, 21600, Note_on_c, 0, 48, 49
3, 21840, Note_on_c, 0, 48, 0
3, 21840, Note_on_c, 0, 36, 0
3, 22080, Note_on_c, 0, 36, 41
3, 22080, Note_on_c, 0, 48, 49
3, 22320, Note_on_c, 0, 48, 0
3, 22320, Note_on_c, 0, 36, 0
3, 23040, Note_on_c, 0, 55, 40
3, 23280, Note_on_c, 0, 55, 0
3, 23280, Note_on_c, 0, 59, 31
3, 23520, Note_on_c, 0, 59, 0
3, 23520, Note_on_c, 0, 62, 39
3, 23760, Note_on_c, 0, 62, 0
3, 24000, Note_on_c, 0, 55, 40
3, 24240, Note_on_c, 0, 55, 0
3, 24240, Note_on_c, 0, 59, 30
3, 24480, Note_on_c, 0, 59, 0
3, 24480, Note_on_c, 0, 62, 36
3, 24720, Note_on_c, 0, 62, 0
3, 24960, Note_on_c, 0, 55, 40
3, 25200, Note_on_c, 0, 55, 0
3, 25200, Note_on_c, 0, 60, 32
3, 25440, Note_on_c, 0, 60, 0
3, 25440, Note_on_c, 0, 64, 38
3, 25680, Note_on_c, 0, 64, 0
3, 25920, Note_on_c, 0, 55, 40
3, 26160, Note_on_c, 0, 55, 0
3, 26160, Note_on_c, 0, 60, 33
3, 26400, Note_on_c, 0, 60, 0
3, 26400, Note_on_c, 0, 64, 36
3, 26640, Note_on_c, 0, 64, 0
3, 26880, Note_on_c, 0, 54, 40
3, 27120, Note_on_c, 0, 54, 0
3, 27120, Note_on_c, 0, 57, 31
3, 27360, Note_on_c, 0, 57, 0
3, 27360, Note_on_c, 0, 62, 39
3, 27600, Note_on_c, 0, 62, 0
3, 27840, Note_on_c, 0, 54, 40
3, 28080, Note_on_c, 0, 54, 0
3, 28080, Note_on_c, 0, 57, 30
3, 28320, Note_on_c, 0, 57, 0
3, 28320, Note_on_c, 0, 62, 36
3, 28560, Note_on_c, 0, 62, 0
3, 28800, Note_on_c, 0, 55, 40
3, 29040, Note_on_c, 0, 55, 0
3, 29040, Note_on_c, 0, 59, 32
3, 29280, Note_on_c, 0, 59, 0
3, 29280, Note_on_c, 0, 62, 38
3, 29520, Note_on_c, 0, 62, 0
3, 30720, Note_on_c, 0, 52, 40
3, 30960, Note_on_c, 0, 52, 0
3, 30960, Note_on_c, 0, 55, 32
3, 31200, Note_on_c, 0, 55, 0
3, 31200, Note_on_c, 0, 59, 38
3, 31440, Note_on_c, 0, 59, 0
3, 32640, Note_on_c, 0, 47, 54
3, 32880, Note_on_c, 0, 47, 0
3, 32880, Note_on_c, 0, 55, 40
3, 33120, Note_on_c, 0, 55, 0
3, 33120, Note_on_c, 0, 47, 45
3, 33360, Note_on_c, 0, 47, 0
3, 33360, Note_on_c, 0, 55, 40
3, 33600, Note_on_c, 0, 55, 0
3, 33600, Note_on_c, 0, 47, 53
3, 33840, Note_on_c, 0, 47, 0
3, 33840, Note_on_c, 0, 55, 40
3, 34080, Note_on_c, 0, 55, 0
3, 34080, Note_on_c, 0, 47, 48
3, 34320, Note_on_c, 0, 47, 0
3, 34320, Note_on_c, 0, 55, 40
3, 34560, Note_on_c, 0, 55, 0
3, 34560, Note_on_c, 0, 48, 54
3, 34800, Note_on_c, 0, 48, 0
3, 34800, Note_on_c, 0, 55, 40
3, 35040, Note_on_c, 0, 55, 0
3, 35040, Note_on_c, 0, 48, 45
3, 35280, Note_on_c, 0, 48, 0
3, 35280, Note_on_c, 0, 55, 40
3, 35520, Note_on_c, 0, 55, 0
3, 35520, Note_on_c, 0, 48, 53
3, 35760, Note_on_c, 0, 48, 0
3, 35760, Note_on_c, 0, 55, 40
3, 36000, Note_on_c, 0, 55, 0
3, 36000, Note_on_c, 0, 48, 48
3, 36240, Note_on_c, 0, 48, 0
3, 36240, Note_on_c, 0, 55, 40
3, 36480, Note_on_c, 0, 55, 0
3, 36480, Note_on_c, 0, 50, 54
3, 36720, Note_on_c, 0, 50, 0
3, 36720, Note_on_c, 0, 55, 40
3, 36960, Note_on_c, 0, 55, 0
3, 36960, Note_on_c, 0, 50, 45
3, 37200, Note_on_c, 0, 50, 0
3, 37200, Note_on_c, 0, 55, 40
3, 37440, Note_on_c, 0, 55, 0
3, 37440, Note_on_c, 0, 50, 53
3, 37680, Note_on_c, 0, 50, 0
3, 37680, Note_on_c, 0, 54, 40
3, 37920, Note_on_c, 0, 54, 0
3, 37920, Note_on_c, 0, 50, 48
3, 38160, Note_on_c, 0, 50, 0
3, 38160, Note_on_c, 0, 54, 33
3, 38400, Note_on_c, 0, 54, 0
3, 38400, Note_on_c, 0, 47, 40
3, 38640, Note_on_c, 0, 47, 0
3, 38640, Note_on_c, 0, 55, 22
3, 38880, Note_on_c, 0, 55, 0
3, 38880, Note_on_c, 0, 47, 26
3, 39120, Note_on_c, 0, 47, 0
3, 39120, Note_on_c, 0, 55, 21
3, 39360, Note_on_c, 0, 55, 0
3, 39360, Note_on_c, 0, 47, 33
3, 39600, Note_on_c, 0, 47, 0
3, 39600, Note_on_c, 0, 55, 31
3, 39840, Note_on_c, 0, 55, 0
3, 39840, Note_on_c, 0, 47, 39
3, 40080, Note_on_c, 0, 47, 0
3, 40080, Note_on_c, 0, 55, 35
3, 40320, Note_on_c, 0, 55, 0
3, 40320, Note_on_c, 0, 48, 49
3, 40560, Note_on_c, 0, 48, 0
3, 40560, Note_on_c, 0, 55, 41
3, 40800, Note_on_c, 0, 55, 0
3, 40800, Note_on_c, 0, 48, 49
3, 41040, Note_on_c, 0, 48, 0
3, 41040, Note_on_c, 0, 55, 39
3, 41280, Note_on_c, 0, 55, 0
3, 41280, Note_on_c, 0, 48, 49
3, 41520, Note_on_c, 0, 48, 0
3, 41520, Note_on_c, 0, 55, 39
3, 41760, Note_on_c, 0, 55, 0
3, 41760, Note_on_c, 0, 48, 49
3, 42000, Note_on_c, 0, 48, 0
3, 42000, Note_on_c, 0, 55, 40
3, 42240, Note_on_c, 0, 55, 0
3, 42240, Note_on_c, 0, 50, 49
3, 42480, Note_on_c, 0, 50, 0
3, 42480, Note_on_c, 0, 55, 41
3, 42720, Note_on_c, 0, 55, 0
3, 42720, Note_on_c, 0, 50, 49
3, 42960, Note_on_c, 0, 50, 0
3, 42960, Note_on_c, 0, 55, 39
3, 43200, Note_on_c, 0, 55, 0
3, 43200, Note_on_c, 0, 50, 53
3, 43440, Note_on_c, 0, 50, 0
3, 43440, Note_on_c, 0, 54, 40
3, 43680, Note_on_c, 0, 54, 0
3, 43680, Note_on_c, 0, 50, 48
3, 43920, Note_on_c, 0, 50, 0
3, 43920, Note_on_c, 0, 54, 33
3, 44160, Note_on_c, 0, 54, 0
3, 44160, Note_on_c, 0, 43, 58
3, 44280, Note_on_c, 0, 43, 0
3, 44400, Note_on_c, 0, 55, 55
3, 44520, Note_on_c, 0, 55, 0
3, 45120, Note_on_c, 0, 43, 58
3, 45240, Note_on_c, 0, 43, 0
3, 45360, Note_on_c, 0, 55, 52
3, 45480, Note_on_c, 0, 55, 0
3, 46080, Note_on_c, 0, 43, 58
3, 46200, Note_on_c, 0, 43, 0
3, 46320, Note_on_c, 0, 55, 52
3, 46440, Note_on_c, 0, 55, 0
3, 47040, Note_on_c, 0, 43, 34
3, 47160, Note_on_c, 0, 43, 0
3, 47280, Note_on_c, 0, 55, 26
3, 47400, Note_on_c, 0, 55, 0
3, 48000, Note_on_c, 0, 43, 58
3, 48240, Note_on_c, 0, 43, 0
3, 48240, Note_on_c, 0, 55, 48
3, 48480, Note_on_c, 0, 55, 0
3, 48480, Note_on_c, 0, 50, 58
3, 48720, Note_on_c, 0, 50, 0
3, 48720, Note_on_c, 0, 47, 49
3, 48960, Note_on_c, 0, 47, 0
3, 48960, Note_on_c, 0, 43, 58
3, 49440, Note_on_c, 0, 43, 0
3, 49920, Note_on_c, 0, 64, 40
3, 50160, Note_on_c, 0, 64, 0
3, 50160, Note_on_c, 0, 60, 32
3, 50400, Note_on_c, 0, 60, 0
3, 50400, Note_on_c, 0, 64, 35
3, 50640, Note_on_c, 0, 64, 0
3, 50640, Note_on_c, 0, 60, 32
3, 50880, Note_on_c, 0, 60, 0
3, 50880, Note_on_c, 0, 64, 40
3, 51120, Note_on_c, 0, 64, 0
3, 51120, Note_on_c, 0, 60, 29
3, 51360, Note_on_c, 0, 60, 0
3, 51360, Note_on_c, 0, 64, 37
3, 51600, Note_on_c, 0, 64, 0
3, 51600, Note_on_c, 0, 60, 32
3, 51840, Note_on_c, 0, 60, 0
3, 51840, Note_on_c, 0, 64, 40
3, 52080, Note_on_c, 0, 64, 0
3, 52080, Note_on_c, 0, 60, 32
3, 52320, Note_on_c, 0, 60, 0
3, 52320, Note_on_c, 0, 64, 35
3, 52560, Note_on_c, 0, 64, 0
3, 52560, Note_on_c, 0, 60, 32
3, 52800, Note_on_c, 0, 60, 0
3, 52800, Note_on_c, 0, 64, 40
3, 53040, Note_on_c, 0, 64, 0
3, 53040, Note_on_c, 0, 60, 29
3, 53280, Note_on_c, 0, 60, 0
3, 53280, Note_on_c, 0, 64, 37
3, 53520, Note_on_c, 0, 64, 0
3, 53520, Note_on_c, 0, 60, 32
3, 53760, Note_on_c, 0, 60, 0
3, 53760, Note_on_c, 0, 65, 40
3, 54000, Note_on_c, 0, 65, 0
3, 54000, Note_on_c, 0, 60, 32
3, 54240, Note_on_c, 0, 60, 0
3, 54240, Note_on_c, 0, 65, 35
3, 54480, Note_on_c, 0, 65, 0
3, 54480, Note_on_c, 0, 60, 32
3, 54720, Note_on_c, 0, 60, 0
3, 54720, Note_on_c, 0, 65, 40
3, 54960, Note_on_c, 0, 65, 0
3, 54960, Note_on_c, 0, 60, 29
3, 55200, Note_on_c, 0, 60, 0
3, 55200, Note_on_c, 0, 65, 37
3, 55440, Note_on_c, 0, 65, 0
3, 55440, Note_on_c, 0, 60, 32
3, 55680, Note_on_c, 0, 60, 0
3, 55680, Note_on_c, 0, 64, 40
3, 55920, Note_on_c, 0, 64, 0
3, 55920, Note_on_c, 0, 60, 32
3, 56160, Note_on_c, 0, 60, 0
3, 56160, Note_on_c, 0, 64, 35
3, 56400, Note_on_c, 0, 64, 0
3, 56400, Note_on_c, 0, 60, 32
3, 56640, Note_on_c, 0, 60, 0
3, 56640, Note_on_c, 0, 64, 38
3, 56880, Note_on_c, 0, 64, 0
3, 56880, Note_on_c, 0, 60, 29
3, 57120, Note_on_c, 0, 60, 0
3, 57120, Note_on_c, 0, 64, 37
3, 57360, Note_on_c, 0, 64, 0
3, 57360, Note_on_c, 0, 60, 30
3, 57600, Note_on_c, 0, 60, 0
3, 57600, Note_on_c, 0, 67, 35
3, 58080, Note_on_c, 0, 67, 0
3, 58560, Note_on_c, 0, 67, 45
3, 58680, Note_on_c, 0, 67, 0
3, 58800, Note_on_c, 0, 67, 40
3, 58920, Note_on_c, 0, 67, 0
3, 59040, Note_on_c, 0, 65, 45
3, 59160, Note_on_c, 0, 65, 0
3, 59280, Note_on_c, 0, 65, 38
3, 59400, Note_on_c, 0, 65, 0
3, 59520, Note_on_c, 0, 64, 35
3, 60000, Note_on_c, 0, 64, 0
3, 60480, Note_on_c, 0, 69, 45
3, 60600, Note_on_c, 0, 69, 0
3, 60720, Note_on_c, 0, 69, 40
3, 60840, Note_on_c, 0, 69, 0
3, 60960, Note_on_c, 0, 67, 45
3, 61080, Note_on_c, 0, 67, 0
3, 61200, Note_on_c, 0, 67, 38
3, 61320, Note_on_c, 0, 67, 0
3, 61440, Note_on_c, 0, 65, 45
3, 61560, Note_on_c, 0, 65, 0
3, 62160, Note_on_c, 0, 65, 39
3, 62280, Note_on_c, 0, 65, 0
3, 62400, Note_on_c, 0, 67, 45
3, 62520, Note_on_c, 0, 67, 0
3, 62880, Note_on_c, 0, 55, 40
3, 63000, Note_on_c, 0, 55, 0
3, 63360, Note_on_c, 0, 60, 35
3, 63480, Note_on_c, 0, 60, 0
3, 63840, Note_on_c, 0, 55, 39
3, 63960, Note_on_c, 0, 55, 0
3, 64320, Note_on_c, 0, 60, 45
3, 64560, Note_on_c, 0, 60, 0
3, 64560, Note_on_c, 0, 55, 40
3, 64800, Note_on_c, 0, 55, 0
3, 64800, Note_on_c, 0, 52, 45
3, 65040, Note_on_c, 0, 52, 0
3, 65040, Note_on_c, 0, 48, 38
3, 65280, Note_on_c, 0, 48, 0
3, 65280, Note_on_c, 0, 55, 38
3, 65760, Note_on_c, 0, 55, 0
3, 66240, Note_on_c, 0, 55, 49
3, 66360, Note_on_c, 0, 55, 0
3, 66480, Note_on_c, 0, 55, 44
3, 66600, Note_on_c, 0, 55, 0
3, 66720, Note_on_c, 0, 53, 49
3, 66840, Note_on_c, 0, 53, 0
3, 66960, Note_on_c, 0, 53, 41
3, 67080, Note_on_c, 0, 53, 0
3, 67200, Note_on_c, 0, 52, 49
3, 67320, Note_on_c, 0, 52, 0
3, 67920, Note_on_c, 0, 56, 41
3, 68040, Note_on_c, 0, 56, 0
3, 68160, Note_on_c, 0, 57, 49
3, 68280, Note_on_c, 0, 57, 0
3, 68640, Note_on_c, 0, 52, 50
3, 68760, Note_on_c, 0, 52, 0
3, 69120, Note_on_c, 0, 53, 61
3, 69240, Note_on_c, 0, 53, 0
3, 69360, Note_on_c, 0, 53, 46
3, 69480, Note_on_c, 0, 53, 0
3, 69600, Note_on_c, 0, 50, 53
3, 69720, Note_on_c, 0, 50, 0
3, 69840, Note_on_c, 0, 50, 49
3, 69960, Note_on_c, 0, 50, 0
3, 70080, Note_on_c, 0, 55, 58
3, 70200, Note_on_c, 0, 55, 0
3, 70320, Note_on_c, 0, 55, 50
3, 70440, Note_on_c, 0, 55, 0
3, 70560, Note_on_c, 0, 43, 56
3, 70680, Note_on_c, 0, 43, 0
3, 70800, Note_on_c, 0, 43, 50
3, 70920, Note_on_c, 0, 43, 0
3, 71040, Note_on_c, 0, 48, 56
3, 71280, Note_on_c, 0, 48, 0
3, 71520, Note_on_c, 0, 36, 41
3, 71520, Note_on_c, 0, 48, 49
3, 71760, Note_on_c, 0, 48, 0
3, 71760, Note_on_c, 0, 36, 0
3, 72000, Note_on_c, 0, 36, 41
3, 72000, Note_on_c, 0, 48, 49
3, 72240, Note_on_c, 0, 48, 0
3, 72240, Note_on_c, 0, 36, 0
3, 72960, Note_on_c, 0, 55, 40
3, 73200, Note_on_c, 0, 55, 0
3, 73200, Note_on_c, 0, 59, 31
3, 73440, Note_on_c, 0, 59, 0
3, 73440, Note_on_c, 0, 62, 39
3, 73680, Note_on_c, 0, 62, 0
3, 73920, Note_on_c, 0, 55, 40
3, 74160, Note_on_c, 0, 55, 0
3, 74160, Note_on_c, 0, 59, 30
3, 74400, Note_on_c, 0, 59, 0
3, 74400, Note_on_c, 0, 62, 36
3, 74640, Note_on_c, 0, 62, 0
3, 74880, Note_on_c, 0, 55, 40
3, 75120, Note_on_c, 0, 55, 0
3, 75120, Note_on_c, 0, 60, 32
3, 75360, Note_on_c, 0, 60, 0
3, 75360, Note_on_c, 0, 64, 38
3, 75600, Note_on_c, 0, 64, 0
3, 75840, Note_on_c, 0, 55, 40
3, 76080, Note_on_c, 0, 55, 0
3, 76080, Note_on_c, 0, 60, 33
3, 76320, Note_on_c, 0, 60, 0
3, 76320, Note_on_c, 0, 64, 36
3, 76560, Note_on_c, 0, 64, 0
3, 76800, Note_on_c, 0, 54, 40
3, 77040, Note_on_c, 0, 54, 0
3, 77040, Note_on_c, 0, 57, 31
3, 77280, Note_on_c, 0, 57, 0
3, 77280, Note_on_c, 0, 62, 39
3, 77520, Note_on_c, 0, 62, 0
3, 77760, Note_on_c, 0, 54, 40
3, 78000, Note_on_c, 0, 54, 0
3, 78000, Note_on_c, 0, 57, 30
3, 78240, Note_on_c, 0, 57, 0
3, 78240, Note_on_c, 0, 62, 36
3, 78480, Note_on_c, 0, 62, 0
3, 78720, Note_on_c, 0, 55, 40
3, 78960, Note_on_c, 0, 55, 0
3, 78960, Note_on_c, 0, 59, 32
3, 79200, Note_on_c, 0, 59, 0
3, 79200, Note_on_c, 0, 62, 38
3, 79440, Note_on_c, 0, 62, 0
3, 80640, Note_on_c, 0, 52, 40
3, 80880, Note_on_c, 0, 52, 0
3, 80880, Note_on_c, 0, 55, 32
3, 81120, Note_on_c, 0, 55, 0
3, 81120, Note_on_c, 0, 59, 38
3, 81360, Note_on_c, 0, 59, 0
3, 82560, Note_on_c, 0, 47, 54
3, 82800, Note_on_c, 0, 47, 0
3, 82800, Note_on_c, 0, 55, 40
3, 83040, Note_on_c, 0, 55, 0
3, 83040, Note_on_c, 0, 47, 45
3, 83280, Note_on_c, 0, 47, 0
3, 83280, Note_on_c, 0, 55, 40
3, 83520, Note_on_c, 0, 55, 0
3, 83520, Note_on_c, 0, 47, 53
3, 83760, Note_on_c, 0, 47, 0
3, 83760, Note_on_c, 0, 55, 40
3, 84000, Note_on_c, 0, 55, 0
3, 84000, Note_on_c, 0, 47, 48
3, 84240, Note_on_c, 0, 47, 0
3, 84240, Note_on_c, 0, 55, 40
3, 84480, Note_on_c, 0, 55, 0
3, 84480, Note_on_c, 0, 48, 54
3, 84720, Note_on_c, 0, 48, 0
3, 84720, Note_on_c, 0, 55, 40
3, 84960, Note_on_c, 0, 55, 0
3, 84960, Note_on_c, 0, 48, 45
3, 85200, Note_on_c, 0, 48, 0
3, 85200, Note_on_c, 0, 55, 40
3, 85440, Note_on_c, 0, 55, 0
3, 85440, Note_on_c, 0, 48, 53
3, 85680, Note_on_c, 0, 48, 0
3, 85680, Note_on_c, 0, 55, 40
3, 85920, Note_on_c, 0, 55, 0
3, 85920, Note_on_c, 0, 48, 48
3, 86160, Note_on_c, 0, 48, 0
3, 86160, Note_on_c, 0, 55, 40
3, 86400, Note_on_c, 0, 55, 0
3, 86400, Note_on_c, 0, 50, 54
3, 86640, Note_on_c, 0, 50, 0
3, 86640, Note_on_c, 0, 55, 40
3, 86880, Note_on_c, 0, 55, 0
3, 86880, Note_on_c, 0, 50, 45
3, 87120, Note_on_c, 0, 50, 0
3, 87120, Note_on_c, 0, 55, 40
3, 87360, Note_on_c, 0, 55, 0
3, 87360, Note_on_c, 0, 50, 53
3, 87600, Note_on_c, 0, 50, 0
3, 87600, Note_on_c, 0, 54, 40
3, 87840, Note_on_c, 0, 54, 0
3, 87840, Note_on_c, 0, 50, 48
3, 88080, Note_on_c, 0, 50, 0
3, 88080, Note_on_c, 0, 54, 33
3, 88320, Note_on_c, 0, 54, 0
3, 88320, Note_on_c, 0, 47, 40
3, 88560, Note_on_c, 0, 47, 0
3, 88560, Note_on_c, 0, 55, 22
3, 88800, Note_on_c, 0, 55, 0
3, 88800, Note_on_c, 0, 47, 26
3, 89040, Note_on_c, 0, 47, 0
3, 89040, Note_on_c, 0, 55, 21
3, 89280, Note_on_c, 0, 55, 0
3, 89280, Note_on_c, 0, 47, 33
3, 89520, Note_on_c, 0, 47, 0
3, 89520, Note_on_c, 0, 55, 31
3, 89760, Note_on_c, 0, 55, 0
3, 89760, Note_on_c, 0, 47, 39
3, 90000, Note_on_c, 0, 47, 0
3, 90000, Note_on_c, 0, 55, 35
3, 90240, Note_on_c, 0, 55, 0
3, 90240, Note_on_c, 0, 48, 49
3, 90480, Note_on_c, 0, 48, 0
3, 90480, Note_on_c, 0, 55, 41
3, 90720, Note_on_c, 0, 55, 0
3, 90720, Note_on_c, 0, 48, 49
3, 90960, Note_on_c, 0, 48, 0
3, 90960, Note_on_c, 0, 55, 39
3, 91200, Note_on_c, 0, 55, 0
3, 91200, Note_on_c, 0, 48, 49
3, 91440, Note_on_c, 0, 48, 0
3, 91440, Note_on_c, 0, 55, 39
3, 91680, Note_on_c, 0, 55, 0
3, 91680, Note_on_c, 0, 48, 49
3, 91920, Note_on_c, 0, 48, 0
3, 91920, Note_on_c, 0, 55, 40
3, 92160, Note_on_c, 0, 55, 0
3, 92160, Note_on_c, 0, 50, 49
3, 92400, Note_on_c, 0, 50, 0
3, 92400, Note_on_c, 0, 55, 41
3, 92640, Note_on_c, 0, 55, 0
3, 92640, Note_on_c, 0, 50, 49
3, 92880, Note_on_c, 0, 50, 0
3, 92880, Note_on_c, 0, 55, 39
3, 93120, Note_on_c, 0, 55, 0
3, 93120, Note_on_c, 0, 50, 53
3, 93360, Note_on_c, 0, 50, 0
3, 93360, Note_on_c, 0, 54, 40
3, 93600, Note_on_c, 0, 54, 0
3, 93600, Note_on_c, 0, 50, 48
3, 93840, Note_on_c, 0, 50, 0
3, 93840, Note_on_c, 0, 54, 33
3, 94080, Note_on_c, 0, 54, 0
3, 94080, Note_on_c, 0, 43, 58
3, 94200, Note_on_c, 0, 43, 0
3, 94320, Note_on_c, 0, 55, 55
3, 94440, Note_on_c, 0, 55, 0
3, 95040, Note_on_c, 0, 43, 58
3, 95160, Note_on_c, 0, 43, 0
3, 95280, Note_on_c, 0, 55, 52
3, 95400, Note_on_c, 0, 55, 0
3, 96000, Note_on_c, 0, 43, 58
3, 96120, Note_on_c, 0, 43, 0
3, 96240, Note_on_c, 0, 55, 52
3, 96360, Note_on_c, 0, 55, 0
3, 96960, Note_on_c, 0, 43, 34
3, 97080, Note_on_c, 0, 43, 0
3, 97200, Note_on_c, 0, 55, 26
3, 97320, Note_on_c, 0, 55, 0
3, 97920, Note_on_c, 0, 43, 58
3, 98160, Note_on_c, 0, 43, 0
3, 98160, Note_on_c, 0, 55, 48
3, 98400, Note_on_c, 0, 55, 0
3, 98400, Note_on_c, 0, 50, 58
3, 98640, Note_on_c, 0, 50, 0
3, 98640, Note_on_c, 0, 47, 49
3, 98880, Note_on_c, 0, 47, 0
3, 98880, Note_on_c, 0, 43, 58
3, 99360, Note_on_c, 0, 43, 0
3, 99840, Note_on_c, 0, 59, 28
3, 100080, Note_on_c, 0, 59, 0
3, 100080, Note_on_c, 0, 55, 22
3, 100320, Note_on_c, 0, 55, 0
3, 100320, Note_on_c, 0, 59, 24
3, 100560, Note_on_c, 0, 59, 0
3, 100560, Note_on_c, 0, 55, 22
3, 100800, Note_on_c, 0, 55, 0
3, 100800, Note_on_c, 0, 59, 28
3, 101040, Note_on_c, 0, 59, 0
3, 101040, Note_on_c, 0, 55, 20
3, 101280, Note_on_c, 0, 55, 0
3, 101280, Note_on_c, 0, 59, 25
3, 101520, Note_on_c, 0, 59, 0
3, 101520, Note_on_c, 0, 55, 22
3, 101760, Note_on_c, 0, 55, 0
3, 101760, Note_on_c, 0, 60, 28
3, 102000, Note_on_c, 0, 60, 0
3, 102000, Note_on_c, 0, 55, 22
3, 102240, Note_on_c, 0, 55, 0
3, 102240, Note_on_c, 0, 60, 24
3, 102480, Note_on_c, 0, 60, 0
3, 102480, Note_on_c, 0, 55, 22
3, 102720, Note_on_c, 0, 55, 0
3, 102720, Note_on_c, 0, 60, 28
3, 102960, Note_on_c, 0, 60, 0
3, 102960, Note_on_c, 0, 55, 20
3, 103200, Note_on_c, 0, 55, 0
3, 103200, Note_on_c, 0, 60, 25
3, 103440, Note_on_c, 0, 60, 0
3, 103440, Note_on_c, 0, 55, 22
3, 103680, Note_on_c, 0, 55, 0
3, 103680, Note_on_c, 0, 62, 28
3, 103920, Note_on_c, 0, 62, 0
3, 103920, Note_on_c, 0, 55, 22
3, 104160, Note_on_c, 0, 55, 0
3, 104160, Note_on_c, 0, 62, 24
3, 104400, Note_on_c, 0, 62, 0
3, 104400, Note_on_c, 0, 55, 22
3, 104640, Note_on_c, 0, 55, 0
3, 104640, Note_on_c, 0, 62, 30
3, 104880, Note_on_c, 0, 62, 0
3, 104880, Note_on_c, 0, 55, 22
3, 105120, Note_on_c, 0, 55, 0
3, 105120, Note_on_c, 0, 62, 29
3, 105360, Note_on_c, 0, 62, 0
3, 105360, Note_on_c, 0, 55, 26
3, 105600, Note_on_c, 0, 55, 0
3, 105600, Note_on_c, 0, 64, 35
3, 105840, Note_on_c, 0, 64, 0
3, 105840, Note_on_c, 0, 55, 27
3, 106080, Note_on_c, 0, 55, 0
3, 106080, Note_on_c, 0, 64, 30
3, 106320, Note_on_c, 0, 64, 0
3, 106320, Note_on_c, 0, 55, 27
3, 106560, Note_on_c, 0, 55, 0
3, 106560, Note_on_c, 0, 64, 40
3, 106800, Note_on_c, 0, 64, 0
3, 106800, Note_on_c, 0, 55, 33
3, 107040, Note_on_c, 0, 55, 0
3, 107040, Note_on_c, 0, 64, 43
3, 107280, Note_on_c, 0, 64, 0
3, 107280, Note_on_c, 0, 55, 35
3, 107520, Note_on_c, 0, 55, 0
3, 107520, Note_on_c, 0, 65, 54
3, 107760, Note_on_c, 0, 65, 0
3, 107760, Note_on_c, 0, 55, 40
3, 108000, Note_on_c, 0, 55, 0
3, 108000, Note_on_c, 0, 65, 45
3, 108240, Note_on_c, 0, 65, 0
3, 108240, Note_on_c, 0, 55, 40
3, 108480, Note_on_c, 0, 55, 0
3, 108480, Note_on_c, 0, 65, 53
3, 108720, Note_on_c, 0, 65, 0
3, 108720, Note_on_c, 0, 55, 40
3, 108960, Note_on_c, 0, 55, 0
3, 108960, Note_on_c, 0, 65, 48
3, 109200, Note_on_c, 0, 65, 0
3, 109200, Note_on_c, 0, 55, 40
3, 109440, Note_on_c, 0, 55, 0
3, 109440, Note_on_c, 0, 63, 54
3, 109680, Note_on_c, 0, 63, 0
3, 109680, Note_on_c, 0, 55, 40
3, 109920, Note_on_c, 0, 55, 0
3, 109920, Note_on_c, 0, 63, 45
3, 110160, Note_on_c, 0, 63, 0
3, 110160, Note_on_c, 0, 55, 40
3, 110400, Note_on_c, 0, 55, 0
3, 110400, Note_on_c, 0, 63, 53
3, 110640, Note_on_c, 0, 63, 0
3, 110640, Note_on_c, 0, 55, 40
3, 110880, Note_on_c, 0, 55, 0
3, 110880, Note_on_c, 0, 63, 48
3, 111120, Note_on_c, 0, 63, 0
3, 111120, Note_on_c, 0, 55, 40
3, 111360, Note_on_c, 0, 55, 0
3, 111360, Note_on_c, 0, 62, 48
3, 111600, Note_on_c, 0, 62, 0
3, 111600, Note_on_c, 0, 55, 37
3, 111840, Note_on_c, 0, 55, 0
3, 111840, Note_on_c, 0, 60, 42
3, 112080, Note_on_c, 0, 60, 0
3, 112080, Note_on_c, 0, 55, 32
3, 112320, Note_on_c, 0, 55, 0
3, 112320, Note_on_c, 0, 59, 43
3, 112560, Note_on_c, 0, 59, 0
3, 112560, Note_on_c, 0, 55, 32
3, 112800, Note_on_c, 0, 55, 0
3, 112800, Note_on_c, 0, 60, 41
3, 113040, Note_on_c, 0, 60, 0
3, 113040, Note_on_c, 0, 55, 26
3, 113280, Note_on_c, 0, 55, 0
3, 113280, Note_on_c, 0, 59, 33
3, 113280, Note_on_c, 0, 55, 28
3, 113760, Note_on_c, 0, 59, 0
3, 113760, Note_on_c, 0, 60, 25
3, 114240, Note_on_c, 0, 60, 0
3, 114240, Note_on_c, 0, 59, 35
3, 114720, Note_on_c, 0, 59, 0
3, 114720, Note_on_c, 0, 60, 29
3, 115200, Note_on_c, 0, 60, 0
3, 115200, Note_on_c, 0, 55, 0
3, 115200, Note_on_c, 0, 55, 24
3, 115200, Note_on_c, 0, 59, 32
3, 115680, Note_on_c, 0, 59, 0
3, 115680, Note_on_c, 0, 55, 0
3, 117120, Note_on_c, 0, 52, 36
3, 117360, Note_on_c, 0, 52, 0
3, 117360, Note_on_c, 0, 48, 28
3, 117600, Note_on_c, 0, 48, 0
3, 117600, Note_on_c, 0, 52, 31
3, 117840, Note_on_c, 0, 52, 0
3, 117840, Note_on_c, 0, 48, 28
3, 118080, Note_on_c, 0, 48, 0
3, 118080, Note_on_c, 0, 52, 36
3, 118320, Note_on_c, 0, 52, 0
3, 118320, Note_on_c, 0, 48, 26
3, 118560, Note_on_c, 0, 48, 0
3, 118560, Note_on_c, 0, 52, 33
3, 118800, Note_on_c, 0, 52, 0
3, 118800, Note_on_c, 0, 48, 28
3, 119040, Note_on_c, 0, 48, 0
3, 119040, Note_on_c, 0, 52, 36
3, 119280, Note_on_c, 0, 52, 0
3, 119280, Note_on_c, 0, 48, 28
3, 119520, Note_on_c, 0, 48, 0
3, 119520, Note_on_c, 0, 52, 31
3, 119760, Note_on_c, 0, 52, 0
3, 119760, Note_on_c, 0, 48, 28
3, 120000, Note_on_c, 0, 48, 0
3, 120000, Note_on_c, 0, 52, 36
3, 120240, Note_on_c, 0, 52, 0
3, 120240, Note_on_c, 0, 48, 26
3, 120480, Note_on_c, 0, 48, 0
3, 120480, Note_on_c, 0, 52, 33
3, 120720, Note_on_c, 0, 52, 0
3, 120720, Note_on_c, 0, 48, 28
3, 120960, Note_on_c, 0, 48, 0
3, 120960, Note_on_c, 0, 53, 36
3, 121200, Note_on_c, 0, 53, 0
3, 121200, Note_on_c, 0, 48, 28
3, 121440, Note_on_c, 0, 48, 0
3, 121440, Note_on_c, 0, 53, 31
3, 121680, Note_on_c, 0, 53, 0
3, 121680, Note_on_c, 0, 48, 28
3, 121920, Note_on_c, 0, 48, 0
3, 121920, Note_on_c, 0, 53, 36
3, 122160, Note_on_c, 0, 53, 0
3, 122160, Note_on_c, 0, 48, 26
3, 122400, Note_on_c, 0, 48, 0
3, 122400, Note_on_c, 0, 53, 33
3, 122640, Note_on_c, 0, 53, 0
3, 122640, Note_on_c, 0, 48, 28
3, 122880, Note_on_c, 0, 48, 0
3, 122880, Note_on_c, 0, 52, 36
3, 123120, Note_on_c, 0, 52, 0
3, 123120, Note_on_c, 0, 48, 28
3, 123360, Note_on_c, 0, 48, 0
3, 123360, Note_on_c, 0, 52, 31
3, 123600, Note_on_c, 0, 52, 0
3, 123600, Note_on_c, 0, 48, 28
3, 123840, Note_on_c, 0, 48, 0
3, 123840, Note_on_c, 0, 52, 34
3, 124080, Note_on_c, 0, 52, 0
3, 124080, Note_on_c, 0, 48, 26
3, 124320, Note_on_c, 0, 48, 0
3, 124320, Note_on_c, 0, 52, 33
3, 124560, Note_on_c, 0, 52, 0
3, 124560, Note_on_c, 0, 48, 27
3, 124800, Note_on_c, 0, 48, 0
3, 124800, Note_on_c, 0, 55, 31
3, 125280, Note_on_c, 0, 55, 0
3, 125760, Note_on_c, 0, 55, 40
3, 125880, Note_on_c, 0, 55, 0
3, 126000, Note_on_c, 0, 55, 36
3, 126120, Note_on_c, 0, 55, 0
3, 126240, Note_on_c, 0, 53, 40
3, 126360, Note_on_c, 0, 53, 0
3, 126480, Note_on_c, 0, 53, 34
3, 126600, Note_on_c, 0, 53, 0
3, 126720, Note_on_c, 0, 52, 31
3, 127200, Note_on_c, 0, 52, 0
3, 127680, Note_on_c, 0, 57, 40
3, 127800, Note_on_c, 0, 57, 0
3, 127920, Note_on_c, 0, 57, 36
3, 128040, Note_on_c, 0, 57, 0
3, 128160, Note_on_c, 0, 55, 40
3, 128280, Note_on_c, 0, 55, 0
3, 128400, Note_on_c, 0, 55, 34
3, 128520, Note_on_c, 0, 55, 0
3, 128640, Note_on_c, 0, 53, 40
3, 128760, Note_on_c, 0, 53, 0
3, 128880, Note_on_c, 0, 53, 36
3, 129000, Note_on_c, 0, 53, 0
3, 129120, Note_on_c, 0, 52, 43
3, 129240, Note_on_c, 0, 52, 0
3, 129360, Note_on_c, 0, 52, 36
3, 129480, Note_on_c, 0, 52, 0
3, 129600, Note_on_c, 0, 50, 32
3, 130080, Note_on_c, 0, 50, 0
3, 130560, Note_on_c, 0, 55, 44
3, 130680, Note_on_c, 0, 55, 0
3, 130800, Note_on_c, 0, 55, 41
3, 130920, Note_on_c, 0, 55, 0
3, 131040, Note_on_c, 0, 53, 46
3, 131160, Note_on_c, 0, 53, 0
3, 131280, Note_on_c, 0, 53, 39
3, 131400, Note_on_c, 0, 53, 0
3, 131520, Note_on_c, 0, 52, 47
3, 131640, Note_on_c, 0, 52, 0
3, 131760, Note_on_c, 0, 52, 43
3, 131880, Note_on_c, 0, 52, 0
3, 132000, Note_on_c, 0, 50, 48
3, 132120, Note_on_c, 0, 50, 0
3, 132240, Note_on_c, 0, 50, 41
3, 132360, Note_on_c, 0, 50, 0
3, 132480, Note_on_c, 0, 48, 50
3, 132600, Note_on_c, 0, 48, 0
3, 132720, Note_on_c, 0, 48, 45
3, 132840, Note_on_c, 0, 48, 0
3, 132960, Note_on_c, 0, 47, 50
3, 133080, Note_on_c, 0, 47, 0
3, 133200, Note_on_c, 0, 47, 42
3, 133320, Note_on_c, 0, 47, 0
3, 133440, Note_on_c, 0, 45, 50
3, 133560, Note_on_c, 0, 45, 0
3, 133680, Note_on_c, 0, 45, 45
3, 133800, Note_on_c, 0, 45, 0
3, 133920, Note_on_c, 0, 43, 54
3, 134040, Note_on_c, 0, 43, 0
3, 134160, Note_on_c, 0, 43, 45
3, 134280, Note_on_c, 0, 43, 0
3, 134400, Note_on_c, 0, 41, 54
3, 134520, Note_on_c, 0, 41, 0
3, 134640, Note_on_c, 0, 41, 48
3, 134760, Note_on_c, 0, 41, 0
3, 134880, Note_on_c, 0, 40, 54
3, 135000, Note_on_c, 0, 40, 0
3, 135120, Note_on_c, 0, 40, 45
3, 135240, Note_on_c, 0, 40, 0
3, 135360, Note_on_c, 0, 38, 61
3, 135600, Note_on_c, 0, 38, 0
3, 135600, Note_on_c, 0, 40, 51
3, 135840, Note_on_c, 0, 40, 0
3, 135840, Note_on_c, 0, 41, 63
3, 136080, Note_on_c, 0, 41, 0
3, 136080, Note_on_c, 0, 42, 56
3, 136320, Note_on_c, 0, 42, 0
3, 136320, Note_on_c, 0, 43, 66
3, 136440, Note_on_c, 0, 43, 0
3, 136560, Note_on_c, 0, 43, 55
3, 136680, Note_on_c, 0, 43, 0
3, 136800, Note_on_c, 0, 43, 64
3, 136920, Note_on_c, 0, 43, 0
3, 137040, Note_on_c, 0, 43, 55
3, 137160, Note_on_c, 0, 43, 0
3, 137280, Note_on_c, 0, 43, 63
3, 137400, Note_on_c, 0, 43, 0
3, 137520, Note_on_c, 0, 43, 56
3, 137640, Note_on_c, 0, 43, 0
3, 137760, Note_on_c, 0, 43, 66
3, 137880, Note_on_c, 0, 43, 0
3, 138000, Note_on_c, 0, 43, 57
3, 138120, Note_on_c, 0, 43, 0
3, 138240, Note_on_c, 0, 43, 66
3, 138360, Note_on_c, 0, 43, 0
3, 138480, Note_on_c, 0, 43, 55
3, 138600, Note_on_c, 0, 43, 0
3, 138720, Note_on_c, 0, 43, 64
3, 138840, Note_on_c, 0, 43, 0
3, 138960, Note_on_c, 0, 43, 55
3, 139080, Note_on_c, 0, 43, 0
3, 139200, Note_on_c, 0, 43, 63
3, 139320, Note_on_c, 0, 43, 0
3, 139440, Note_on_c, 0, 43, 56
3, 139560, Note_on_c, 0, 43, 0
3, 139680, Note_on_c, 0, 43, 66
3, 139800, Note_on_c, 0, 43, 0
3, 139920, Note_on_c, 0, 43, 57
3, 140040, Note_on_c, 0, 43, 0
3, 140160, Note_on_c, 0, 43, 66
3, 140400, Note_on_c, 0, 43, 0
3, 140640, Note_on_c, 0, 43, 66
3, 140880, Note_on_c, 0, 43, 0
3, 141120, Note_on_c, 0, 43, 66
3, 141360, Note_on_c, 0, 43, 0
3, 142080, Note_on_c, 0, 60, 40
3, 142320, Note_on_c, 0, 60, 0
3, 142320, Note_on_c, 0, 64, 31
3, 142560, Note_on_c, 0, 64, 0
3, 142560, Note_on_c, 0, 67, 39
3, 142800, Note_on_c, 0, 67, 0
3, 143040, Note_on_c, 0, 60, 40
3, 143280, Note_on_c, 0, 60, 0
3, 143280, Note_on_c, 0, 64, 30
3, 143520, Note_on_c, 0, 64, 0
3, 143520, Note_on_c, 0, 67, 36
3, 143760, Note_on_c, 0, 67, 0
3, 144000, Note_on_c, 0, 60, 40
3, 144240, Note_on_c, 0, 60, 0
3, 144240, Note_on_c, 0, 65, 32
3, 144480, Note_on_c, 0, 65, 0
3, 144480, Note_on_c, 0, 69, 38
3, 144720, Note_on_c, 0, 69, 0
3, 144960, Note_on_c, 0, 60, 40
3, 145200, Note_on_c, 0, 60, 0
3, 145200, Note_on_c, 0, 65, 33
3, 145440, Note_on_c, 0, 65, 0
3, 145440, Note_on_c, 0, 69, 36
3, 145680, Note_on_c, 0, 69, 0
3, 145920, Note_on_c, 0, 59, 40
3, 146160, Note_on_c, 0, 59, 0
3, 146160, Note_on_c, 0, 62, 31
3, 146400, Note_on_c, 0, 62, 0
3, 146400, Note_on_c, 0, 67, 39
3, 146640, Note_on_c, 0, 67, 0
3, 146880, Note_on_c, 0, 59, 40
3, 147120, Note_on_c, 0, 59, 0
3, 147120, Note_on_c, 0, 62, 30
3, 147360, Note_on_c, 0, 62, 0
3, 147360, Note_on_c, 0, 67, 36
3, 147600, Note_on_c, 0, 67, 0
3, 147840, Note_on_c, 0, 60, 40
3, 148080, Note_on_c, 0, 60, 0
3, 148080, Note_on_c, 0, 64, 32
3, 148320, Note_on_c, 0, 64, 0
3, 148320, Note_on_c, 0, 67, 38
3, 148560, Note_on_c, 0, 67, 0
3, 149760, Note_on_c, 0, 57, 40
3, 150000, Note_on_c, 0, 57, 0
3, 150000, Note_on_c, 0, 60, 32
3, 150240, Note_on_c, 0, 60, 0
3, 150240, Note_on_c, 0, 64, 38
3, 150480, Note_on_c, 0, 64, 0
3, 151680, Note_on_c, 0, 52, 54
3, 151920, Note_on_c, 0, 52, 0
3, 151920, Note_on_c, 0, 60, 40
3, 152160, Note_on_c, 0, 60, 0
3, 152160, Note_on_c, 0, 52, 45
3, 152400, Note_on_c, 0, 52, 0
3, 152400, Note_on_c, 0, 60, 40
3, 152640, Note_on_c, 0, 60, 0
3, 152640, Note_on_c, 0, 52, 53
3, 152880, Note_on_c, 0, 52, 0
3, 152880, Note_on_c, 0, 60, 40
3, 153120, Note_on_c, 0, 60, 0
3, 153120, Note_on_c, 0, 52, 48
3, 153360, Note_on_c, 0, 52, 0
3, 153360, Note_on_c, 0, 60, 40
3, 153600, Note_on_c, 0, 60, 0
3, 153600, Note_on_c, 0, 53, 54
3, 153840, Note_on_c, 0, 53, 0
3, 153840, Note_on_c, 0, 60, 40
3, 154080, Note_on_c, 0, 60, 0
3, 154080, Note_on_c, 0, 53, 45
3, 154320, Note_on_c, 0, 53, 0
3, 154320, Note_on_c, 0, 60, 40
3, 154560, Note_on_c, 0, 60, 0
3, 154560, Note_on_c, 0, 53, 53
3, 154800, Note_on_c, 0, 53, 0
3, 154800, Note_on_c, 0, 60, 40
3, 155040, Note_on_c, 0, 60, 0
3, 155040, Note_on_c, 0, 53, 48
3, 155280, Note_on_c, 0, 53, 0
3, 155280, Note_on_c, 0, 60, 40
3, 155520, Note_on_c, 0, 60, 0
3, 155520, Note_on_c, 0, 55, 54
3, 155760, Note_on_c, 0, 55, 0
3, 155760, Note_on_c, 0, 60, 40
3, 156000, Note_on_c, 0, 60, 0
3, 156000, Note_on_c, 0, 55, 45
3, 156240, Note_on_c, 0, 55, 0
3, 156240, Note_on_c, 0, 60, 40
3, 156480, Note_on_c, 0, 60, 0
3, 156480, Note_on_c, 0, 55, 53
3, 156720, Note_on_c, 0, 55, 0
3, 156720, Note_on_c, 0, 59, 40
3, 156960, Note_on_c, 0, 59, 0
3, 156960, Note_on_c, 0, 55, 48
3, 157200, Note_on_c, 0, 55, 0
3, 157200, Note_on_c, 0, 59, 33
3, 157440, Note_on_c, 0, 59, 0
3, 157440, Note_on_c, 0, 48, 40
3, 157680, Note_on_c, 0, 48, 0
3, 157680, Note_on_c, 0, 52, 32
3, 157920, Note_on_c, 0, 52, 0
3, 157920, Note_on_c, 0, 55, 38
3, 158160, Note_on_c, 0, 55, 0
3, 159360, Note_on_c, 0, 45, 40
3, 159600, Note_on_c, 0, 45, 0
3, 159600, Note_on_c, 0, 48, 32
3, 159840, Note_on_c, 0, 48, 0
3, 159840, Note_on_c, 0, 52, 38
3, 160080, Note_on_c, 0, 52, 0
3, 161280, Note_on_c, 0, 40, 40
3, 161520, Note_on_c, 0, 40, 0
3, 161520, Note_on_c, 0, 48, 22
3, 161760, Note_on_c, 0, 48, 0
3, 161760, Note_on_c, 0, 40, 26
3, 162000, Note_on_c, 0, 40, 0
3, 162000, Note_on_c, 0, 48, 21
3, 162240, Note_on_c, 0, 48, 0
3, 162240, Note_on_c, 0, 40, 33
3, 162480, Note_on_c, 0, 40, 0
3, 162480, Note_on_c, 0, 48, 31
3, 162720, Note_on_c, 0, 48, 0
3, 162720, Note_on_c, 0, 40, 39
3, 162960, Note_on_c, 0, 40, 0
3, 162960, Note_on_c, 0, 48, 35
3, 163200, Note_on_c, 0, 48, 0
3, 163200, Note_on_c, 0, 41, 49
3, 163440, Note_on_c, 0, 41, 0
3, 163440, Note_on_c, 0, 48, 41
3, 163680, Note_on_c, 0, 48, 0
3, 163680, Note_on_c, 0, 41, 49
3, 163920, Note_on_c, 0, 41, 0
3, 163920, Note_on_c, 0, 48, 39
3, 164160, Note_on_c, 0, 48, 0
3, 164160, Note_on_c, 0, 41, 49
3, 164400, Note_on_c, 0, 41, 0
3, 164400, Note_on_c, 0, 48, 39
3, 164640, Note_on_c, 0, 48, 0
3, 164640, Note_on_c, 0, 41, 49
3, 164880, Note_on_c, 0, 41, 0
3, 164880, Note_on_c, 0, 48, 40
3, 165120, Note_on_c, 0, 48, 0
3, 165120, Note_on_c, 0, 43, 49
3, 165360, Note_on_c, 0, 43, 0
3, 165360, Note_on_c, 0, 48, 41
3, 165600, Note_on_c, 0, 48, 0
3, 165600, Note_on_c, 0, 43, 49
3, 165840, Note_on_c, 0, 43, 0
3, 165840, Note_on_c, 0, 48, 39
3, 166080, Note_on_c, 0, 48, 0
3, 166080, Note_on_c, 0, 43, 53
3, 166320, Note_on_c, 0, 43, 0
3, 166320, Note_on_c, 0, 47, 40
3, 166560, Note_on_c, 0, 47, 0
3, 166560, Note_on_c, 0, 43, 48
3, 166800, Note_on_c, 0, 43, 0
3, 166800, Note_on_c, 0, 47, 33
3, 167040, Note_on_c, 0, 47, 0
3, 167040, Note_on_c, 0, 36, 58
3, 167160, Note_on_c, 0, 36, 0
3, 167280, Note_on_c, 0, 48, 55
3, 167400, Note_on_c, 0, 48, 0
3, 168000, Note_on_c, 0, 36, 58
3, 168120, Note_on_c, 0, 36, 0
3, 168240, Note_on_c, 0, 48, 52
3, 168360, Note_on_c, 0, 48, 0
3, 168960, Note_on_c, 0, 36, 58
3, 169080, Note_on_c, 0, 36, 0
3, 169200, Note_on_c, 0, 48, 52
3, 169320, Note_on_c, 0, 48, 0
3, 169920, Note_on_c, 0, 36, 30
3, 170040, Note_on_c, 0, 36, 0
3, 170160, Note_on_c, 0, 48, 23
3, 170280, Note_on_c, 0, 48, 0
3, 170880, Note_on_c, 0, 36, 49
3, 170880, Note_on_c, 0, 48, 58
3, 171360, Note_on_c, 0, 48, 0
3, 171360, Note_on_c, 0, 36, 0
3, 171360, Note_on_c, 0, 36, 49
3, 171360, Note_on_c, 0, 48, 58
3, 171840, Note_on_c, 0, 48, 0
3, 171840, Note_on_c, 0, 36, 0
3, 171840, Note_on_c, 0, 48, 58
3, 171840, Note_on_c, 0, 36, 49
3, 172320, Note_on_c, 0, 36, 0
3, 172320, Note_on_c, 0, 48, 0
3, 172320, End_track
4, 0, Start_track
4, 0, Title_t, "Pedale"
4, 0, Program_c, 0, 0
4, 28, Control_c, 0, 64, 127
4, 973, Control_c, 0, 64, 0
4, 2012, Control_c, 0, 64, 127
4, 2895, Control_c, 0, 64, 0
4, 6777, Control_c, 0, 64, 127
4, 7207, Control_c, 0, 64, 0
4, 14485, Control_c, 0, 64, 127
4, 15360, Control_c, 0, 64, 0
4, 23052, Control_c, 0, 64, 127
4, 23531, Control_c, 0, 64, 0
4, 24086, Control_c, 0, 64, 127
4, 24499, Control_c, 0, 64, 0
4, 25952, Control_c, 0, 64, 127
4, 26408, Control_c, 0, 64, 0
4, 28903, Control_c, 0, 64, 127
4, 29296, Control_c, 0, 64, 0
4, 30795, Control_c, 0, 64, 127
4, 31220, Control_c, 0, 64, 0
4, 37536, Control_c, 0, 64, 127
4, 38450, Control_c, 0, 64, 0
4, 43296, Control_c, 0, 64, 127
4, 44160, Control_c, 0, 64, 0
4, 48085, Control_c, 0, 64, 127
4, 49341, Control_c, 0, 64, 0
4, 49948, Control_c, 0, 64, 127
4, 50893, Control_c, 0, 64, 0
4, 51932, Control_c, 0, 64, 127
4, 52815, Control_c, 0, 64, 0
4, 56697, Control_c, 0, 64, 127
4, 57127, Control_c, 0, 64, 0
4, 64405, Control_c, 0, 64, 127
4, 65280, Control_c, 0, 64, 0
4, 72972, Control_c, 0, 64, 127
4, 73451, Control_c, 0, 64, 0
4, 74006, Control_c, 0, 64, 127
4, 74419, Control_c, 0, 64, 0
4, 75872, Control_c, 0, 64, 127
4, 76328, Control_c, 0, 64, 0
4, 78823, Control_c, 0, 64, 127
4, 79216, Control_c, 0, 64, 0
4, 80715, Control_c, 0, 64, 127
4, 81140, Control_c, 0, 64, 0
4, 87456, Control_c, 0, 64, 127
4, 88370, Control_c, 0, 64, 0
4, 93216, Control_c, 0, 64, 127
4, 94080, Control_c, 0, 64, 0
4, 98005, Control_c, 0, 64, 127
4, 99261, Control_c, 0, 64, 0
4, 99868, Control_c, 0, 64, 127
4, 100813, Control_c, 0, 64, 0
4, 102812, Control_c, 0, 64, 127
4, 103690, Control_c, 0, 64, 0
4, 103779, Control_c, 0, 64, 127
4, 104653, Control_c, 0, 64, 0
4, 106687, Control_c, 0, 64, 127
4, 107527, Control_c, 0, 64, 0
4, 117148, Control_c, 0, 64, 127
4, 118093, Control_c, 0, 64, 0
4, 119132, Control_c, 0, 64, 127
4, 120015, Control_c, 0, 64, 0
4, 123897, Control_c, 0, 64, 127
4, 124327, Control_c, 0, 64, 0
4, 140760, Control_c, 0, 64, 127
4, 141480, Control_c, 0, 64, 0
4, 142092, Control_c, 0, 64, 127
4, 142571, Control_c, 0, 64, 0
4, 143126, Control_c, 0, 64, 127
4, 143539, Control_c, 0, 64, 0
4, 144992, Control_c, 0, 64, 127
4, 145448, Control_c, 0, 64, 0
4, 147943, Control_c, 0, 64, 127
4, 148336, Control_c, 0, 64, 0
4, 149835, Control_c, 0, 64, 127
4, 150260, Control_c, 0, 64, 0
4, 156576, Control_c, 0, 64, 127
4, 157440, Control_c, 0, 64, 0
4, 157581, Control_c, 0, 64, 127
4, 157936, Control_c, 0, 64, 0
4, 159435, Control_c, 0, 64, 127
4, 159860, Control_c, 0, 64, 0
4, 161330, Control_c, 0, 64, 0
4, 166176, Control_c, 0, 64, 127
4, 167040, Control_c, 0, 64, 0
4, 170965, Control_c, 0, 64, 127
4, 172221, Control_c, 0, 64, 0
4, 172221, End_track
5, 0, Start_track
5, 0, Title_t, "Clementi: Sonatatina Opus 26, No. 3, 1. movement"
5, 0, End_track
6, 0, Start_track
6, 0, Title_t, "Copyright © 2010 by Bernd Krueger"
6, 0, End_track
7, 0, Start_track
7, 0, Title_t, "http://www.piano-midi.de/"
7, 0, End_track
8, 0, Start_track
8, 0, Title_t, "Edition: 2010-12-12"
8, 0, End_track
9, 0, Start_track
9, 0, Title_t, "Spur 8"
9, 0, End_track
10, 0, Start_track
10, 0, Title_t, "Spur 9"
10, 0, End_track
11, 0, Start_track
11, 0, Title_t, "Spur 10"
11, 0, End_track
12, 0, Start_track
12, 0, Title_t, "Spur 11"
12, 0, End_track
13, 0, Start_track
13, 0, Title_t, "Spur 12"
13, 0, End_track
14, 0, Start_track
14, 0, Title_t, "Spur 13"
14, 0, End_track
15, 0, Start_track
15, 0, Title_t, "Spur 14"
15, 0, End_track
16, 0, Start_track
16, 0, Title_t, "Spur 15"
16, 0, End_track
17, 0, Start_track
17, 0, Title_t, "Spur 16"
17, 0, End_track
0, 0, End_of_file
