0, 0, Header, 1, 17, 480
1, 0, Start_track
1, 0, Title_t, "Clementi: Sonatine Opus 36 Nr. 2, 1. Satz"
1, 0, Copyright_t, "Copyright © 2010 by Bernd Krueger"
1, 0, Text_t, "Muzio Clementi"
1, 0, Text_t, "Allegretto"
1, 0, Text_t, "Erstellt: 25.11.2010\012"
1, 0, Text_t, "Dauer: 2:00 Minuten\012"
1, 0, Time_signature, 2, 2, 24, 8
1, 0, Key_signature, 1, "major"
1, 0, Tempo, 497967
1, 720, Marker_t, "Teil 1"
1, 1440, Tempo, 508087
1, 1920, Tempo, 495499
1, 2640, Tempo, 477745
1, 2880, Tempo, 493462
1, 3360, Tempo, 481580
1, 3720, Tempo, 510247
1, 3840, Tempo, 491441
1, 5280, Tempo, 503821
1, 5760, Tempo, 487448
1, 6480, Tempo, 466599
1, 6720, Tempo, 487448
1, 7200, Tempo, 475851
1, 7560, Tempo, 501714
1, 7680, Tempo, 495499
1, 7800, Tempo, 489436
1, 7920, Tempo, 501714
1, 8160, Tempo, 491441
1, 8400, Tempo, 501714
1, 8640, Tempo, 487448
1, 8664, Tempo, 479655
1, 8736, Tempo, 481580
1, 8808, Tempo, 483520
1, 8880, Tempo, 485476
1, 8928, Tempo, 487448
1, 9000, Tempo, 489436
1, 9072, Tempo, 491441
1, 9096, Tempo, 483520
1, 9168, Tempo, 485476
1, 9240, Tempo, 487448
1, 9312, Tempo, 489436
1, 9384, Tempo, 491441
1, 9432, Tempo, 493462
1, 9480, Tempo, 514624
1, 9542, Tempo, 528216
1, 9566, Tempo, 525901
1, 9590, Tempo, 523606
1, 9614, Tempo, 521331
1, 9638, Tempo, 519076
1, 9662, Tempo, 514624
1, 9686, Tempo, 512426
1, 9710, Tempo, 510247
1, 9734, Tempo, 508087
1, 9758, Tempo, 503821
1, 9782, Tempo, 501714
1, 9806, Tempo, 499625
1, 9830, Tempo, 497554
1, 9854, Tempo, 493462
1, 9878, Tempo, 491441
1, 9902, Tempo, 489436
1, 9926, Tempo, 487448
1, 9950, Tempo, 483520
1, 9974, Tempo, 481580
1, 9998, Tempo, 479655
1, 10022, Tempo, 477745
1, 10046, Tempo, 473971
1, 10070, Tempo, 472106
1, 10094, Tempo, 470256
1, 10118, Tempo, 468421
1, 10142, Tempo, 464792
1, 10166, Tempo, 468421
1, 10176, Tempo, 475851
1, 10224, Tempo, 477745
1, 10248, Tempo, 479655
1, 10272, Tempo, 481580
1, 10296, Tempo, 483520
1, 10320, Tempo, 485476
1, 10344, Tempo, 487448
1, 10368, Tempo, 489436
1, 10392, Tempo, 483520
1, 10416, Tempo, 481580
1, 10440, Tempo, 489436
1, 10464, Tempo, 499625
1, 10488, Tempo, 510247
1, 10512, Tempo, 521331
1, 10536, Tempo, 493462
1, 10560, Tempo, 487448
1, 10584, Tempo, 479655
1, 10656, Tempo, 481580
1, 10704, Tempo, 483520
1, 10776, Tempo, 485476
1, 10824, Tempo, 487448
1, 10896, Tempo, 489436
1, 10944, Tempo, 491441
1, 10992, Tempo, 493462
1, 11040, Tempo, 485476
1, 11088, Tempo, 479655
1, 11136, Tempo, 481580
1, 11160, Tempo, 483520
1, 11208, Tempo, 485476
1, 11232, Tempo, 487448
1, 11256, Tempo, 489436
1, 11304, Tempo, 491441
1, 11328, Tempo, 493462
1, 11352, Tempo, 495499
1, 11400, Tempo, 519076
1, 11520, Tempo, 487448
1, 11544, Tempo, 499625
1, 11592, Tempo, 497554
1, 11640, Tempo, 495499
1, 11688, Tempo, 493462
1, 11736, Tempo, 491441
1, 11760, Tempo, 489436
1, 11808, Tempo, 487448
1, 11856, Tempo, 485476
1, 11904, Tempo, 483520
1, 11952, Tempo, 481580
1, 11976, Tempo, 479655
1, 12360, Tempo, 523606
1, 12480, Tempo, 497554
1, 13200, Tempo, 532907
1, 13440, Tempo, 499625
1, 13920, Tempo, 512426
1, 14160, Tempo, 483520
1, 14400, Tempo, 503821
1, 14448, Tempo, 501714
1, 14520, Tempo, 499625
1, 14592, Tempo, 497554
1, 14640, Tempo, 495499
1, 14712, Tempo, 493462
1, 14760, Tempo, 491441
1, 14832, Tempo, 489436
1, 14880, Tempo, 485476
1, 14952, Tempo, 487448
1, 15024, Tempo, 489436
1, 15096, Tempo, 491441
1, 15168, Tempo, 493462
1, 15240, Tempo, 495499
1, 15312, Tempo, 497554
1, 15360, Tempo, 472106
1, 15600, Tempo, 489436
1, 15840, Tempo, 519076
1, 16080, Tempo, 499625
1, 16344, Tempo, 497554
1, 16392, Tempo, 495499
1, 16440, Tempo, 493462
1, 16488, Tempo, 491441
1, 16536, Tempo, 489436
1, 16584, Tempo, 487448
1, 16632, Tempo, 485476
1, 16704, Tempo, 487448
1, 16752, Tempo, 489436
1, 16800, Tempo, 491441
1, 16848, Tempo, 493462
1, 16896, Tempo, 495499
1, 16944, Tempo, 497554
1, 16992, Tempo, 499625
1, 17040, Tempo, 525901
1, 17280, Tempo, 499625
1, 17736, Tempo, 508087
1, 17808, Tempo, 505945
1, 17856, Tempo, 503821
1, 17904, Tempo, 501714
1, 17952, Tempo, 499625
1, 18024, Tempo, 497554
1, 18072, Tempo, 495499
1, 18120, Tempo, 493462
1, 18168, Tempo, 491441
1, 18216, Tempo, 499625
1, 18240, Tempo, 499625
1, 18264, Tempo, 491441
1, 18312, Tempo, 493462
1, 18360, Tempo, 495499
1, 18408, Tempo, 497554
1, 18456, Tempo, 499625
1, 18504, Tempo, 501714
1, 18552, Tempo, 503821
1, 18600, Tempo, 505945
1, 18648, Tempo, 508087
1, 18696, Tempo, 491441
1, 18768, Tempo, 493462
1, 18816, Tempo, 495499
1, 18864, Tempo, 497554
1, 18912, Tempo, 499625
1, 18960, Tempo, 501714
1, 19008, Tempo, 503821
1, 19056, Tempo, 505945
1, 19104, Tempo, 508087
1, 19200, Tempo, 499625
1, 19440, Tempo, 491441
1, 19920, Tempo, 535284
1, 20160, Tempo, 497554
1, 20400, Tempo, 487448
1, 20880, Tempo, 532907
1, 21120, Tempo, 508087
1, 21600, Tempo, 567698
1, 21840, Tempo, 497967
1, 21840, Marker_t, "Teil 1 Wiederholung"
1, 22560, Tempo, 508087
1, 23040, Tempo, 495499
1, 23760, Tempo, 477745
1, 24000, Tempo, 493462
1, 24480, Tempo, 481580
1, 24840, Tempo, 510247
1, 24960, Tempo, 491441
1, 26400, Tempo, 503821
1, 26880, Tempo, 487448
1, 27600, Tempo, 466599
1, 27840, Tempo, 487448
1, 28320, Tempo, 475851
1, 28680, Tempo, 501714
1, 28800, Tempo, 485476
1, 29040, Tempo, 503821
1, 29160, Tempo, 501714
1, 29280, Tempo, 485476
1, 29520, Tempo, 503821
1, 29760, Tempo, 487448
1, 29787, Tempo, 479655
1, 29859, Tempo, 481580
1, 29907, Tempo, 483520
1, 29955, Tempo, 485476
1, 30003, Tempo, 487448
1, 30051, Tempo, 489436
1, 30099, Tempo, 491441
1, 30147, Tempo, 493462
1, 30195, Tempo, 495499
1, 30219, Tempo, 481580
1, 30267, Tempo, 483520
1, 30315, Tempo, 485476
1, 30363, Tempo, 487448
1, 30411, Tempo, 489436
1, 30459, Tempo, 491441
1, 30600, Tempo, 514624
1, 30696, Tempo, 495499
1, 30710, Tempo, 514624
1, 30758, Tempo, 512426
1, 30782, Tempo, 510247
1, 30806, Tempo, 508087
1, 30830, Tempo, 505945
1, 30878, Tempo, 503821
1, 30902, Tempo, 501714
1, 30926, Tempo, 499625
1, 30950, Tempo, 497554
1, 30998, Tempo, 495499
1, 31022, Tempo, 493462
1, 31046, Tempo, 491441
1, 31070, Tempo, 489436
1, 31118, Tempo, 487448
1, 31142, Tempo, 485476
1, 31166, Tempo, 483520
1, 31190, Tempo, 481580
1, 31238, Tempo, 479655
1, 31262, Tempo, 477745
1, 31286, Tempo, 475851
1, 31310, Tempo, 473971
1, 31344, Tempo, 477745
1, 31368, Tempo, 479655
1, 31392, Tempo, 481580
1, 31416, Tempo, 483520
1, 31440, Tempo, 485476
1, 31464, Tempo, 487448
1, 31488, Tempo, 489436
1, 31512, Tempo, 483520
1, 31536, Tempo, 481580
1, 31560, Tempo, 489436
1, 31584, Tempo, 499625
1, 31608, Tempo, 510247
1, 31632, Tempo, 521331
1, 31656, Tempo, 493462
1, 31680, Tempo, 487448
1, 31683, Tempo, 479655
1, 31755, Tempo, 481580
1, 31827, Tempo, 483520
1, 31899, Tempo, 485476
1, 31971, Tempo, 487448
1, 32043, Tempo, 489436
1, 32115, Tempo, 491441
1, 32163, Tempo, 485476
1, 32187, Tempo, 481580
1, 32259, Tempo, 483520
1, 32307, Tempo, 485476
1, 32355, Tempo, 487448
1, 32403, Tempo, 489436
1, 32451, Tempo, 491441
1, 32520, Tempo, 519076
1, 32640, Tempo, 487448
1, 32664, Tempo, 499625
1, 32712, Tempo, 497554
1, 32760, Tempo, 495499
1, 32808, Tempo, 493462
1, 32856, Tempo, 491441
1, 32880, Tempo, 489436
1, 32928, Tempo, 487448
1, 32976, Tempo, 485476
1, 33024, Tempo, 483520
1, 33072, Tempo, 481580
1, 33096, Tempo, 479655
1, 33480, Tempo, 523606
1, 33600, Tempo, 497554
1, 34320, Tempo, 532907
1, 34560, Tempo, 499625
1, 35040, Tempo, 512426
1, 35280, Tempo, 483520
1, 35520, Tempo, 503821
1, 35568, Tempo, 501714
1, 35640, Tempo, 499625
1, 35712, Tempo, 497554
1, 35760, Tempo, 495499
1, 35832, Tempo, 493462
1, 35880, Tempo, 491441
1, 35952, Tempo, 489436
1, 36000, Tempo, 485476
1, 36072, Tempo, 487448
1, 36144, Tempo, 489436
1, 36216, Tempo, 491441
1, 36288, Tempo, 493462
1, 36360, Tempo, 495499
1, 36432, Tempo, 497554
1, 36480, Tempo, 499625
1, 36528, Tempo, 489436
1, 36960, Tempo, 519076
1, 37200, Tempo, 499625
1, 37464, Tempo, 497554
1, 37512, Tempo, 495499
1, 37560, Tempo, 493462
1, 37608, Tempo, 491441
1, 37656, Tempo, 489436
1, 37704, Tempo, 487448
1, 37752, Tempo, 485476
1, 37824, Tempo, 487448
1, 37872, Tempo, 489436
1, 37920, Tempo, 491441
1, 37968, Tempo, 493462
1, 38016, Tempo, 495499
1, 38064, Tempo, 497554
1, 38112, Tempo, 499625
1, 38160, Tempo, 525901
1, 38400, Tempo, 499625
1, 38856, Tempo, 508087
1, 38928, Tempo, 505945
1, 38976, Tempo, 503821
1, 39024, Tempo, 501714
1, 39072, Tempo, 499625
1, 39144, Tempo, 497554
1, 39192, Tempo, 495499
1, 39240, Tempo, 493462
1, 39288, Tempo, 491441
1, 39336, Tempo, 499625
1, 39360, Tempo, 499625
1, 39387, Tempo, 489436
1, 39459, Tempo, 491441
1, 39507, Tempo, 493462
1, 39579, Tempo, 495499
1, 39627, Tempo, 497554
1, 39699, Tempo, 499625
1, 39747, Tempo, 501714
1, 39795, Tempo, 503821
1, 39843, Tempo, 491441
1, 39939, Tempo, 493462
1, 40035, Tempo, 495499
1, 40107, Tempo, 497554
1, 40203, Tempo, 499625
1, 40275, Tempo, 501714
1, 40320, Tempo, 499625
1, 40560, Tempo, 491441
1, 41040, Tempo, 535284
1, 41280, Tempo, 497554
1, 41520, Tempo, 487448
1, 42000, Tempo, 532907
1, 42240, Tempo, 508087
1, 42720, Tempo, 565558
1, 42960, Tempo, 497967
1, 42960, Marker_t, "Teil 2"
1, 43680, Tempo, 508087
1, 44160, Tempo, 495499
1, 44880, Tempo, 477745
1, 45120, Tempo, 493462
1, 45600, Tempo, 481580
1, 45960, Tempo, 510247
1, 46080, Tempo, 491441
1, 46511, Tempo, 497554
1, 46535, Tempo, 495499
1, 46559, Tempo, 491441
1, 46583, Tempo, 489436
1, 46607, Tempo, 485476
1, 46631, Tempo, 483520
1, 46655, Tempo, 479655
1, 46679, Tempo, 477745
1, 46703, Tempo, 473971
1, 46727, Tempo, 472106
1, 46751, Tempo, 468421
1, 46920, Tempo, 510247
1, 47040, Tempo, 491441
1, 47495, Tempo, 493462
1, 47519, Tempo, 491441
1, 47543, Tempo, 489436
1, 47567, Tempo, 487448
1, 47591, Tempo, 485476
1, 47615, Tempo, 483520
1, 47639, Tempo, 479655
1, 47663, Tempo, 477745
1, 47687, Tempo, 475851
1, 47711, Tempo, 473971
1, 47735, Tempo, 472106
1, 47759, Tempo, 470256
1, 47783, Tempo, 466599
1, 47880, Tempo, 510247
1, 48120, Tempo, 497554
1, 48579, Tempo, 497554
1, 48627, Tempo, 499625
1, 48651, Tempo, 501714
1, 48675, Tempo, 501714
1, 48699, Tempo, 503821
1, 48723, Tempo, 505945
1, 48747, Tempo, 508087
1, 48771, Tempo, 512426
1, 48795, Tempo, 514624
1, 48819, Tempo, 516840
1, 48843, Tempo, 519076
1, 48867, Tempo, 523606
1, 48891, Tempo, 525901
1, 48915, Tempo, 528216
1, 48939, Tempo, 501714
1, 48960, Tempo, 512426
1, 49011, Tempo, 501714
1, 50160, Tempo, 491441
1, 50760, Tempo, 523606
1, 50880, Tempo, 491441
1, 51339, Tempo, 493462
1, 51387, Tempo, 495499
1, 51411, Tempo, 497554
1, 51459, Tempo, 499625
1, 51483, Tempo, 501714
1, 51507, Tempo, 503821
1, 51555, Tempo, 505945
1, 51579, Tempo, 508087
1, 51627, Tempo, 510247
1, 51651, Tempo, 512426
1, 51675, Tempo, 514624
1, 51720, Tempo, 523606
1, 51840, Tempo, 491441
1, 52680, Tempo, 528216
1, 52800, Tempo, 491441
1, 53640, Tempo, 528216
1, 53760, Tempo, 497554
1, 54240, Tempo, 508087
1, 54600, Tempo, 530551
1, 54699, Tempo, 523606
1, 54747, Tempo, 525901
1, 54795, Tempo, 528216
1, 54843, Tempo, 530551
1, 54891, Tempo, 532907
1, 54939, Tempo, 535284
1, 54987, Tempo, 537683
1, 55035, Tempo, 540103
1, 55083, Tempo, 542545
1, 55131, Tempo, 545009
1, 55179, Tempo, 547495
1, 55203, Tempo, 542545
1, 55227, Tempo, 550005
1, 55251, Tempo, 552537
1, 55275, Tempo, 555093
1, 55299, Tempo, 557673
1, 55323, Tempo, 560276
1, 55347, Tempo, 562905
1, 55371, Tempo, 565558
1, 55395, Tempo, 568236
1, 55419, Tempo, 570939
1, 55443, Tempo, 573669
1, 55467, Tempo, 576424
1, 55491, Tempo, 579206
1, 55515, Tempo, 582016
1, 55539, Tempo, 587717
1, 55560, Tempo, 772300
1, 55680, Tempo, 637010
1, 55920, Tempo, 559754
1, 56160, Tempo, 507657
1, 56400, Tempo, 497967
1, 57120, Tempo, 508087
1, 57600, Tempo, 495499
1, 58320, Tempo, 477745
1, 58560, Tempo, 493462
1, 59040, Tempo, 481580
1, 59400, Tempo, 510247
1, 59520, Tempo, 491441
1, 60960, Tempo, 503821
1, 61440, Tempo, 487448
1, 62160, Tempo, 466599
1, 62400, Tempo, 487448
1, 62880, Tempo, 475851
1, 63240, Tempo, 501714
1, 63360, Tempo, 485476
1, 63600, Tempo, 503821
1, 63840, Tempo, 487448
1, 64080, Tempo, 501714
1, 64320, Tempo, 487448
1, 64359, Tempo, 477745
1, 64431, Tempo, 479655
1, 64479, Tempo, 481580
1, 64527, Tempo, 483520
1, 64575, Tempo, 485476
1, 64623, Tempo, 487448
1, 64671, Tempo, 489436
1, 64719, Tempo, 491441
1, 64767, Tempo, 483520
1, 64839, Tempo, 485476
1, 64911, Tempo, 487448
1, 64983, Tempo, 489436
1, 65160, Tempo, 514624
1, 65256, Tempo, 495499
1, 65283, Tempo, 519076
1, 65307, Tempo, 559754
1, 65331, Tempo, 552029
1, 65355, Tempo, 542054
1, 65379, Tempo, 532434
1, 65403, Tempo, 523149
1, 65427, Tempo, 514183
1, 65451, Tempo, 505519
1, 65475, Tempo, 497141
1, 65499, Tempo, 497554
1, 65523, Tempo, 495499
1, 65547, Tempo, 493462
1, 65571, Tempo, 489436
1, 65595, Tempo, 487448
1, 65619, Tempo, 485476
1, 65643, Tempo, 483520
1, 65667, Tempo, 481580
1, 65691, Tempo, 479655
1, 65715, Tempo, 475851
1, 65739, Tempo, 473971
1, 65763, Tempo, 472106
1, 65787, Tempo, 470256
1, 65811, Tempo, 468421
1, 65835, Tempo, 466599
1, 65859, Tempo, 462999
1, 65904, Tempo, 477745
1, 65928, Tempo, 479655
1, 65952, Tempo, 481580
1, 65976, Tempo, 483520
1, 66000, Tempo, 485476
1, 66024, Tempo, 487448
1, 66048, Tempo, 489436
1, 66072, Tempo, 483520
1, 66096, Tempo, 481580
1, 66120, Tempo, 489436
1, 66144, Tempo, 499625
1, 66168, Tempo, 510247
1, 66192, Tempo, 521331
1, 66216, Tempo, 493462
1, 66240, Tempo, 487448
1, 66279, Tempo, 477745
1, 66351, Tempo, 479655
1, 66399, Tempo, 481580
1, 66447, Tempo, 483520
1, 66495, Tempo, 485476
1, 66567, Tempo, 487448
1, 66615, Tempo, 489436
1, 66663, Tempo, 491441
1, 66711, Tempo, 493462
1, 66735, Tempo, 483520
1, 66807, Tempo, 485476
1, 66855, Tempo, 487448
1, 66927, Tempo, 489436
1, 66975, Tempo, 491441
1, 67023, Tempo, 493462
1, 67080, Tempo, 519076
1, 67200, Tempo, 487448
1, 67224, Tempo, 499625
1, 67272, Tempo, 497554
1, 67320, Tempo, 495499
1, 67368, Tempo, 493462
1, 67416, Tempo, 491441
1, 67440, Tempo, 489436
1, 67488, Tempo, 487448
1, 67536, Tempo, 485476
1, 67584, Tempo, 483520
1, 67632, Tempo, 481580
1, 67656, Tempo, 479655
1, 68160, Tempo, 503821
1, 68880, Tempo, 532907
1, 69120, Tempo, 499625
1, 69600, Tempo, 512426
1, 69840, Tempo, 483520
1, 70071, Tempo, 499625
1, 70119, Tempo, 497554
1, 70167, Tempo, 495499
1, 70215, Tempo, 493462
1, 70239, Tempo, 491441
1, 70287, Tempo, 489436
1, 70335, Tempo, 487448
1, 70383, Tempo, 485476
1, 70407, Tempo, 483520
1, 70455, Tempo, 481580
1, 70503, Tempo, 479655
1, 70551, Tempo, 477745
1, 70575, Tempo, 475851
1, 70632, Tempo, 487448
1, 70704, Tempo, 489436
1, 70776, Tempo, 491441
1, 70848, Tempo, 493462
1, 70920, Tempo, 495499
1, 70992, Tempo, 497554
1, 71040, Tempo, 499625
1, 71088, Tempo, 489436
1, 71520, Tempo, 519076
1, 71760, Tempo, 499625
1, 72024, Tempo, 497554
1, 72072, Tempo, 495499
1, 72120, Tempo, 493462
1, 72168, Tempo, 491441
1, 72216, Tempo, 489436
1, 72264, Tempo, 487448
1, 72312, Tempo, 485476
1, 72384, Tempo, 487448
1, 72432, Tempo, 489436
1, 72480, Tempo, 491441
1, 72528, Tempo, 493462
1, 72576, Tempo, 495499
1, 72624, Tempo, 497554
1, 72672, Tempo, 499625
1, 72719, Tempo, 499625
1, 72743, Tempo, 501714
1, 72767, Tempo, 503821
1, 72791, Tempo, 505945
1, 72815, Tempo, 510247
1, 72960, Tempo, 499625
1, 73416, Tempo, 508087
1, 73488, Tempo, 505945
1, 73536, Tempo, 503821
1, 73584, Tempo, 501714
1, 73632, Tempo, 499625
1, 73704, Tempo, 497554
1, 73752, Tempo, 495499
1, 73800, Tempo, 493462
1, 73848, Tempo, 491441
1, 73896, Tempo, 499625
1, 73920, Tempo, 499625
1, 73971, Tempo, 503821
1, 74163, Tempo, 501714
1, 74331, Tempo, 499625
1, 74523, Tempo, 497554
1, 74691, Tempo, 495499
1, 74859, Tempo, 493462
1, 74880, Tempo, 499625
1, 75120, Tempo, 491441
1, 75600, Tempo, 535284
1, 75840, Tempo, 497554
1, 76080, Tempo, 487448
1, 76560, Tempo, 532907
1, 76800, Tempo, 514624
1, 77280, Tempo, 555093
1, 77520, Tempo, 641094
1, 77760, Tempo, 505945
1, 78240, Tempo, 590029
1, 78480, Tempo, 508087
1, 78487, Tempo, 497967
1, 78487, Marker_t, "Teil 2 Wiederholung"
1, 79207, Tempo, 508087
1, 79687, Tempo, 495499
1, 80407, Tempo, 477745
1, 80647, Tempo, 493462
1, 81127, Tempo, 481580
1, 81487, Tempo, 510247
1, 81607, Tempo, 491441
1, 82038, Tempo, 497554
1, 82062, Tempo, 495499
1, 82086, Tempo, 491441
1, 82110, Tempo, 489436
1, 82134, Tempo, 485476
1, 82158, Tempo, 483520
1, 82182, Tempo, 479655
1, 82206, Tempo, 477745
1, 82230, Tempo, 473971
1, 82254, Tempo, 472106
1, 82278, Tempo, 468421
1, 82447, Tempo, 510247
1, 82567, Tempo, 491441
1, 83022, Tempo, 493462
1, 83046, Tempo, 491441
1, 83070, Tempo, 489436
1, 83094, Tempo, 487448
1, 83118, Tempo, 485476
1, 83142, Tempo, 483520
1, 83166, Tempo, 479655
1, 83190, Tempo, 477745
1, 83214, Tempo, 475851
1, 83238, Tempo, 473971
1, 83262, Tempo, 472106
1, 83286, Tempo, 470256
1, 83310, Tempo, 466599
1, 83407, Tempo, 510247
1, 83647, Tempo, 497554
1, 84106, Tempo, 497554
1, 84154, Tempo, 499625
1, 84178, Tempo, 501714
1, 84202, Tempo, 501714
1, 84226, Tempo, 503821
1, 84250, Tempo, 505945
1, 84274, Tempo, 508087
1, 84298, Tempo, 512426
1, 84322, Tempo, 514624
1, 84346, Tempo, 516840
1, 84370, Tempo, 519076
1, 84394, Tempo, 523606
1, 84418, Tempo, 525901
1, 84442, Tempo, 528216
1, 84466, Tempo, 501714
1, 84487, Tempo, 512426
1, 84538, Tempo, 501714
1, 85687, Tempo, 491441
1, 86287, Tempo, 523606
1, 86407, Tempo, 491441
1, 86866, Tempo, 493462
1, 86914, Tempo, 495499
1, 86938, Tempo, 497554
1, 86986, Tempo, 499625
1, 87010, Tempo, 501714
1, 87034, Tempo, 503821
1, 87082, Tempo, 505945
1, 87106, Tempo, 508087
1, 87154, Tempo, 510247
1, 87178, Tempo, 512426
1, 87202, Tempo, 514624
1, 87247, Tempo, 523606
1, 87367, Tempo, 491441
1, 88207, Tempo, 528216
1, 88327, Tempo, 491441
1, 89167, Tempo, 528216
1, 89287, Tempo, 497554
1, 89767, Tempo, 508087
1, 90127, Tempo, 530551
1, 90226, Tempo, 523606
1, 90274, Tempo, 525901
1, 90322, Tempo, 528216
1, 90370, Tempo, 530551
1, 90418, Tempo, 532907
1, 90466, Tempo, 535284
1, 90514, Tempo, 537683
1, 90562, Tempo, 540103
1, 90610, Tempo, 542545
1, 90658, Tempo, 545009
1, 90706, Tempo, 547495
1, 90730, Tempo, 542545
1, 90754, Tempo, 550005
1, 90778, Tempo, 552537
1, 90802, Tempo, 555093
1, 90826, Tempo, 557673
1, 90850, Tempo, 560276
1, 90874, Tempo, 562905
1, 90898, Tempo, 565558
1, 90922, Tempo, 568236
1, 90946, Tempo, 570939
1, 90970, Tempo, 573669
1, 90994, Tempo, 576424
1, 91018, Tempo, 579206
1, 91042, Tempo, 582016
1, 91066, Tempo, 587717
1, 91087, Tempo, 814222
1, 91207, Tempo, 637010
1, 91447, Tempo, 559754
1, 91687, Tempo, 507657
1, 91927, Tempo, 497967
1, 92647, Tempo, 508087
1, 93127, Tempo, 495499
1, 93847, Tempo, 477745
1, 94087, Tempo, 493462
1, 94567, Tempo, 481580
1, 94927, Tempo, 510247
1, 95047, Tempo, 491441
1, 96487, Tempo, 503821
1, 96967, Tempo, 487448
1, 97687, Tempo, 466599
1, 97927, Tempo, 487448
1, 98407, Tempo, 475851
1, 98767, Tempo, 501714
1, 98880, Tempo, 477745
1, 99120, Tempo, 505945
1, 99360, Tempo, 487448
1, 99600, Tempo, 503821
1, 99847, Tempo, 487448
1, 99863, Tempo, 479655
1, 99887, Tempo, 479655
1, 100007, Tempo, 481580
1, 100103, Tempo, 483520
1, 100199, Tempo, 485476
1, 100295, Tempo, 487448
1, 100367, Tempo, 483520
1, 100439, Tempo, 485476
1, 100511, Tempo, 487448
1, 100583, Tempo, 489436
1, 100655, Tempo, 491441
1, 100687, Tempo, 514624
1, 100783, Tempo, 495499
1, 100810, Tempo, 519076
1, 100834, Tempo, 559754
1, 100858, Tempo, 552029
1, 100882, Tempo, 542054
1, 100906, Tempo, 532434
1, 100930, Tempo, 523149
1, 100954, Tempo, 514183
1, 100978, Tempo, 505519
1, 101002, Tempo, 497141
1, 101026, Tempo, 497554
1, 101050, Tempo, 495499
1, 101074, Tempo, 493462
1, 101098, Tempo, 489436
1, 101122, Tempo, 487448
1, 101146, Tempo, 485476
1, 101170, Tempo, 483520
1, 101194, Tempo, 481580
1, 101218, Tempo, 479655
1, 101242, Tempo, 475851
1, 101266, Tempo, 473971
1, 101290, Tempo, 472106
1, 101314, Tempo, 470256
1, 101338, Tempo, 468421
1, 101362, Tempo, 466599
1, 101386, Tempo, 462999
1, 101431, Tempo, 477745
1, 101455, Tempo, 479655
1, 101479, Tempo, 481580
1, 101503, Tempo, 483520
1, 101527, Tempo, 485476
1, 101551, Tempo, 487448
1, 101575, Tempo, 489436
1, 101599, Tempo, 483520
1, 101623, Tempo, 481580
1, 101647, Tempo, 489436
1, 101671, Tempo, 499625
1, 101695, Tempo, 510247
1, 101719, Tempo, 521331
1, 101743, Tempo, 493462
1, 101759, Tempo, 479655
1, 101831, Tempo, 481580
1, 101903, Tempo, 483520
1, 101975, Tempo, 485476
1, 102047, Tempo, 487448
1, 102119, Tempo, 489436
1, 102191, Tempo, 491441
1, 102263, Tempo, 483520
1, 102335, Tempo, 485476
1, 102383, Tempo, 487448
1, 102455, Tempo, 489436
1, 102503, Tempo, 491441
1, 102607, Tempo, 519076
1, 102727, Tempo, 487448
1, 102751, Tempo, 499625
1, 102799, Tempo, 497554
1, 102847, Tempo, 495499
1, 102895, Tempo, 493462
1, 102943, Tempo, 491441
1, 102967, Tempo, 489436
1, 103015, Tempo, 487448
1, 103063, Tempo, 485476
1, 103111, Tempo, 483520
1, 103159, Tempo, 481580
1, 103183, Tempo, 479655
1, 103680, Tempo, 503821
1, 104407, Tempo, 532907
1, 104647, Tempo, 499625
1, 105127, Tempo, 512426
1, 105367, Tempo, 483520
1, 105598, Tempo, 499625
1, 105646, Tempo, 497554
1, 105694, Tempo, 495499
1, 105742, Tempo, 493462
1, 105766, Tempo, 491441
1, 105814, Tempo, 489436
1, 105862, Tempo, 487448
1, 105910, Tempo, 485476
1, 105934, Tempo, 483520
1, 105982, Tempo, 481580
1, 106030, Tempo, 479655
1, 106078, Tempo, 477745
1, 106102, Tempo, 475851
1, 106159, Tempo, 487448
1, 106231, Tempo, 489436
1, 106303, Tempo, 491441
1, 106375, Tempo, 493462
1, 106447, Tempo, 495499
1, 106519, Tempo, 497554
1, 106567, Tempo, 499625
1, 106615, Tempo, 489436
1, 107047, Tempo, 519076
1, 107287, Tempo, 499625
1, 107551, Tempo, 497554
1, 107599, Tempo, 495499
1, 107647, Tempo, 493462
1, 107695, Tempo, 491441
1, 107743, Tempo, 489436
1, 107791, Tempo, 487448
1, 107839, Tempo, 485476
1, 107911, Tempo, 487448
1, 107959, Tempo, 489436
1, 108007, Tempo, 491441
1, 108055, Tempo, 493462
1, 108103, Tempo, 495499
1, 108151, Tempo, 497554
1, 108199, Tempo, 499625
1, 108246, Tempo, 499625
1, 108270, Tempo, 501714
1, 108294, Tempo, 503821
1, 108318, Tempo, 505945
1, 108342, Tempo, 510247
1, 108487, Tempo, 499625
1, 108943, Tempo, 508087
1, 109015, Tempo, 505945
1, 109063, Tempo, 503821
1, 109111, Tempo, 501714
1, 109159, Tempo, 499625
1, 109231, Tempo, 497554
1, 109279, Tempo, 495499
1, 109327, Tempo, 493462
1, 109375, Tempo, 491441
1, 109423, Tempo, 499625
1, 109447, Tempo, 499625
1, 109498, Tempo, 503821
1, 109690, Tempo, 501714
1, 109858, Tempo, 499625
1, 110050, Tempo, 497554
1, 110218, Tempo, 495499
1, 110386, Tempo, 493462
1, 110407, Tempo, 499625
1, 110647, Tempo, 491441
1, 111127, Tempo, 535284
1, 111367, Tempo, 497554
1, 111607, Tempo, 487448
1, 112087, Tempo, 532907
1, 112320, Tempo, 525440
1, 112800, Tempo, 607964
1, 113040, Tempo, 777303
1, 113287, Tempo, 505945
1, 113287, End_track
2, 0, Start_track
2, 0, Title_t, "Piano right"
2, 0, Program_c, 0, 0
2, 720, Note_on_c, 0, 74, 46
2, 960, Note_on_c, 0, 74, 0
2, 960, Note_on_c, 0, 74, 50
2, 1200, Note_on_c, 0, 74, 0
2, 1200, Note_on_c, 0, 71, 45
2, 1440, Note_on_c, 0, 71, 0
2, 1440, Note_on_c, 0, 71, 49
2, 1680, Note_on_c, 0, 71, 0
2, 1680, Note_on_c, 0, 79, 62
2, 1920, Note_on_c, 0, 79, 0
2, 1920, Note_on_c, 0, 79, 69
2, 2640, Note_on_c, 0, 79, 0
2, 2640, Note_on_c, 0, 78, 49
2, 2760, Note_on_c, 0, 78, 0
2, 2760, Note_on_c, 0, 76, 45
2, 2880, Note_on_c, 0, 76, 0
2, 2880, Note_on_c, 0, 74, 50
2, 3000, Note_on_c, 0, 74, 0
2, 3120, Note_on_c, 0, 74, 45
2, 3240, Note_on_c, 0, 74, 0
2, 3360, Note_on_c, 0, 74, 50
2, 3480, Note_on_c, 0, 76, 43
2, 3492, Note_on_c, 0, 74, 0
2, 3600, Note_on_c, 0, 74, 43
2, 3612, Note_on_c, 0, 76, 0
2, 3720, Note_on_c, 0, 72, 43
2, 3732, Note_on_c, 0, 74, 0
2, 3840, Note_on_c, 0, 71, 53
2, 3852, Note_on_c, 0, 72, 0
2, 4080, Note_on_c, 0, 71, 0
2, 4080, Note_on_c, 0, 74, 46
2, 4200, Note_on_c, 0, 74, 0
2, 4560, Note_on_c, 0, 79, 46
2, 4800, Note_on_c, 0, 79, 0
2, 4800, Note_on_c, 0, 79, 53
2, 5040, Note_on_c, 0, 79, 0
2, 5040, Note_on_c, 0, 74, 49
2, 5280, Note_on_c, 0, 74, 0
2, 5280, Note_on_c, 0, 74, 58
2, 5520, Note_on_c, 0, 74, 0
2, 5520, Note_on_c, 0, 83, 62
2, 5760, Note_on_c, 0, 83, 0
2, 5760, Note_on_c, 0, 83, 69
2, 6480, Note_on_c, 0, 83, 0
2, 6480, Note_on_c, 0, 79, 49
2, 6600, Note_on_c, 0, 79, 0
2, 6600, Note_on_c, 0, 76, 45
2, 6720, Note_on_c, 0, 76, 0
2, 6720, Note_on_c, 0, 74, 50
2, 6840, Note_on_c, 0, 74, 0
2, 6960, Note_on_c, 0, 74, 45
2, 7080, Note_on_c, 0, 74, 0
2, 7200, Note_on_c, 0, 74, 50
2, 7320, Note_on_c, 0, 73, 43
2, 7332, Note_on_c, 0, 74, 0
2, 7440, Note_on_c, 0, 71, 43
2, 7452, Note_on_c, 0, 73, 0
2, 7560, Note_on_c, 0, 73, 43
2, 7572, Note_on_c, 0, 71, 0
2, 7680, Note_on_c, 0, 74, 53
2, 7692, Note_on_c, 0, 73, 0
2, 8160, Note_on_c, 0, 74, 0
2, 8400, Note_on_c, 0, 81, 50
2, 8520, Note_on_c, 0, 79, 46
2, 8532, Note_on_c, 0, 81, 0
2, 8640, Note_on_c, 0, 78, 50
2, 8652, Note_on_c, 0, 79, 0
2, 8760, Note_on_c, 0, 76, 45
2, 8772, Note_on_c, 0, 78, 0
2, 8880, Note_on_c, 0, 74, 45
2, 8892, Note_on_c, 0, 76, 0
2, 9000, Note_on_c, 0, 73, 45
2, 9012, Note_on_c, 0, 74, 0
2, 9120, Note_on_c, 0, 71, 50
2, 9132, Note_on_c, 0, 73, 0
2, 9240, Note_on_c, 0, 73, 46
2, 9252, Note_on_c, 0, 71, 0
2, 9360, Note_on_c, 0, 74, 46
2, 9372, Note_on_c, 0, 73, 0
2, 9480, Note_on_c, 0, 71, 46
2, 9492, Note_on_c, 0, 74, 0
2, 9600, Note_on_c, 0, 69, 50
2, 9612, Note_on_c, 0, 71, 0
2, 9840, Note_on_c, 0, 69, 0
2, 10320, Note_on_c, 0, 81, 50
2, 10440, Note_on_c, 0, 79, 46
2, 10452, Note_on_c, 0, 81, 0
2, 10560, Note_on_c, 0, 78, 50
2, 10572, Note_on_c, 0, 79, 0
2, 10680, Note_on_c, 0, 76, 45
2, 10692, Note_on_c, 0, 78, 0
2, 10800, Note_on_c, 0, 74, 45
2, 10812, Note_on_c, 0, 76, 0
2, 10920, Note_on_c, 0, 73, 45
2, 10932, Note_on_c, 0, 74, 0
2, 11040, Note_on_c, 0, 71, 50
2, 11052, Note_on_c, 0, 73, 0
2, 11160, Note_on_c, 0, 73, 48
2, 11172, Note_on_c, 0, 71, 0
2, 11280, Note_on_c, 0, 74, 50
2, 11292, Note_on_c, 0, 73, 0
2, 11400, Note_on_c, 0, 71, 55
2, 11412, Note_on_c, 0, 74, 0
2, 11520, Note_on_c, 0, 69, 60
2, 11532, Note_on_c, 0, 71, 0
2, 11760, Note_on_c, 0, 69, 0
2, 12000, Note_on_c, 0, 86, 62
2, 12120, Note_on_c, 0, 86, 0
2, 12120, Note_on_c, 0, 81, 53
2, 12240, Note_on_c, 0, 81, 0
2, 12240, Note_on_c, 0, 78, 56
2, 12360, Note_on_c, 0, 78, 0
2, 12360, Note_on_c, 0, 74, 54
2, 12480, Note_on_c, 0, 74, 0
2, 12480, Note_on_c, 0, 76, 62
2, 12600, Note_on_c, 0, 76, 0
2, 12720, Note_on_c, 0, 76, 58
2, 12840, Note_on_c, 0, 76, 0
2, 12960, Note_on_c, 0, 73, 52
2, 12960, Note_on_c, 0, 81, 62
2, 13080, Note_on_c, 0, 81, 0
2, 13080, Note_on_c, 0, 73, 0
2, 13200, Note_on_c, 0, 81, 57
2, 13200, Note_on_c, 0, 73, 48
2, 13320, Note_on_c, 0, 73, 0
2, 13320, Note_on_c, 0, 81, 0
2, 13440, Note_on_c, 0, 76, 52
2, 13440, Note_on_c, 0, 79, 62
2, 13920, Note_on_c, 0, 79, 0
2, 13920, Note_on_c, 0, 76, 0
2, 13920, Note_on_c, 0, 78, 59
2, 13920, Note_on_c, 0, 74, 50
2, 14160, Note_on_c, 0, 74, 0
2, 14160, Note_on_c, 0, 78, 0
2, 14160, Note_on_c, 0, 81, 50
2, 14280, Note_on_c, 0, 79, 46
2, 14292, Note_on_c, 0, 81, 0
2, 14400, Note_on_c, 0, 78, 50
2, 14412, Note_on_c, 0, 79, 0
2, 14520, Note_on_c, 0, 76, 45
2, 14532, Note_on_c, 0, 78, 0
2, 14640, Note_on_c, 0, 74, 45
2, 14652, Note_on_c, 0, 76, 0
2, 14760, Note_on_c, 0, 73, 45
2, 14772, Note_on_c, 0, 74, 0
2, 14880, Note_on_c, 0, 71, 50
2, 14892, Note_on_c, 0, 73, 0
2, 15000, Note_on_c, 0, 73, 46
2, 15012, Note_on_c, 0, 71, 0
2, 15120, Note_on_c, 0, 74, 46
2, 15132, Note_on_c, 0, 73, 0
2, 15240, Note_on_c, 0, 71, 46
2, 15252, Note_on_c, 0, 74, 0
2, 15360, Note_on_c, 0, 69, 50
2, 15372, Note_on_c, 0, 71, 0
2, 15480, Note_on_c, 0, 67, 46
2, 15492, Note_on_c, 0, 69, 0
2, 15600, Note_on_c, 0, 66, 46
2, 15612, Note_on_c, 0, 67, 0
2, 15720, Note_on_c, 0, 67, 46
2, 15732, Note_on_c, 0, 66, 0
2, 15840, Note_on_c, 0, 69, 50
2, 15852, Note_on_c, 0, 67, 0
2, 15960, Note_on_c, 0, 69, 0
2, 16080, Note_on_c, 0, 81, 50
2, 16200, Note_on_c, 0, 79, 46
2, 16212, Note_on_c, 0, 81, 0
2, 16320, Note_on_c, 0, 78, 50
2, 16332, Note_on_c, 0, 79, 0
2, 16440, Note_on_c, 0, 76, 45
2, 16452, Note_on_c, 0, 78, 0
2, 16560, Note_on_c, 0, 74, 45
2, 16572, Note_on_c, 0, 76, 0
2, 16680, Note_on_c, 0, 73, 45
2, 16692, Note_on_c, 0, 74, 0
2, 16800, Note_on_c, 0, 71, 50
2, 16812, Note_on_c, 0, 73, 0
2, 16920, Note_on_c, 0, 73, 48
2, 16932, Note_on_c, 0, 71, 0
2, 17040, Note_on_c, 0, 74, 50
2, 17052, Note_on_c, 0, 73, 0
2, 17160, Note_on_c, 0, 71, 55
2, 17172, Note_on_c, 0, 74, 0
2, 17280, Note_on_c, 0, 69, 60
2, 17292, Note_on_c, 0, 71, 0
2, 17520, Note_on_c, 0, 69, 0
2, 17760, Note_on_c, 0, 74, 62
2, 17880, Note_on_c, 0, 74, 0
2, 17880, Note_on_c, 0, 78, 53
2, 18000, Note_on_c, 0, 78, 0
2, 18000, Note_on_c, 0, 81, 56
2, 18120, Note_on_c, 0, 81, 0
2, 18120, Note_on_c, 0, 86, 54
2, 18240, Note_on_c, 0, 86, 0
2, 18240, Note_on_c, 0, 85, 67
2, 18360, Note_on_c, 0, 83, 55
2, 18372, Note_on_c, 0, 85, 0
2, 18480, Note_on_c, 0, 81, 58
2, 18492, Note_on_c, 0, 83, 0
2, 18600, Note_on_c, 0, 79, 55
2, 18612, Note_on_c, 0, 81, 0
2, 18720, Note_on_c, 0, 78, 66
2, 18732, Note_on_c, 0, 79, 0
2, 18840, Note_on_c, 0, 76, 53
2, 18852, Note_on_c, 0, 78, 0
2, 18960, Note_on_c, 0, 74, 58
2, 18972, Note_on_c, 0, 76, 0
2, 19080, Note_on_c, 0, 73, 56
2, 19092, Note_on_c, 0, 74, 0
2, 19200, Note_on_c, 0, 73, 0
2, 19200, Note_on_c, 0, 74, 67
2, 19320, Note_on_c, 0, 74, 0
2, 19320, Note_on_c, 0, 78, 58
2, 19440, Note_on_c, 0, 78, 0
2, 19440, Note_on_c, 0, 81, 64
2, 19560, Note_on_c, 0, 81, 0
2, 19560, Note_on_c, 0, 78, 58
2, 19680, Note_on_c, 0, 78, 0
2, 19680, Note_on_c, 0, 81, 67
2, 19800, Note_on_c, 0, 81, 0
2, 19800, Note_on_c, 0, 78, 59
2, 19920, Note_on_c, 0, 78, 0
2, 19920, Note_on_c, 0, 79, 64
2, 20040, Note_on_c, 0, 79, 0
2, 20040, Note_on_c, 0, 76, 58
2, 20160, Note_on_c, 0, 76, 0
2, 20160, Note_on_c, 0, 74, 67
2, 20280, Note_on_c, 0, 74, 0
2, 20280, Note_on_c, 0, 78, 59
2, 20400, Note_on_c, 0, 78, 0
2, 20400, Note_on_c, 0, 81, 63
2, 20520, Note_on_c, 0, 81, 0
2, 20520, Note_on_c, 0, 78, 58
2, 20640, Note_on_c, 0, 78, 0
2, 20640, Note_on_c, 0, 81, 67
2, 20760, Note_on_c, 0, 81, 0
2, 20760, Note_on_c, 0, 78, 59
2, 20880, Note_on_c, 0, 78, 0
2, 20880, Note_on_c, 0, 79, 65
2, 21000, Note_on_c, 0, 79, 0
2, 21000, Note_on_c, 0, 76, 59
2, 21120, Note_on_c, 0, 76, 0
2, 21120, Note_on_c, 0, 74, 70
2, 21600, Note_on_c, 0, 74, 0
2, 21840, Note_on_c, 0, 74, 46
2, 22080, Note_on_c, 0, 74, 0
2, 22080, Note_on_c, 0, 74, 50
2, 22320, Note_on_c, 0, 74, 0
2, 22320, Note_on_c, 0, 71, 45
2, 22560, Note_on_c, 0, 71, 0
2, 22560, Note_on_c, 0, 71, 49
2, 22800, Note_on_c, 0, 71, 0
2, 22800, Note_on_c, 0, 79, 62
2, 23040, Note_on_c, 0, 79, 0
2, 23040, Note_on_c, 0, 79, 69
2, 23760, Note_on_c, 0, 79, 0
2, 23760, Note_on_c, 0, 78, 49
2, 23880, Note_on_c, 0, 78, 0
2, 23880, Note_on_c, 0, 76, 45
2, 24000, Note_on_c, 0, 76, 0
2, 24000, Note_on_c, 0, 74, 50
2, 24120, Note_on_c, 0, 74, 0
2, 24240, Note_on_c, 0, 74, 45
2, 24360, Note_on_c, 0, 74, 0
2, 24480, Note_on_c, 0, 74, 50
2, 24600, Note_on_c, 0, 76, 43
2, 24612, Note_on_c, 0, 74, 0
2, 24720, Note_on_c, 0, 74, 43
2, 24732, Note_on_c, 0, 76, 0
2, 24840, Note_on_c, 0, 72, 43
2, 24852, Note_on_c, 0, 74, 0
2, 24960, Note_on_c, 0, 71, 53
2, 24972, Note_on_c, 0, 72, 0
2, 25200, Note_on_c, 0, 71, 0
2, 25200, Note_on_c, 0, 74, 46
2, 25320, Note_on_c, 0, 74, 0
2, 25680, Note_on_c, 0, 79, 46
2, 25920, Note_on_c, 0, 79, 0
2, 25920, Note_on_c, 0, 79, 53
2, 26160, Note_on_c, 0, 79, 0
2, 26160, Note_on_c, 0, 74, 49
2, 26400, Note_on_c, 0, 74, 0
2, 26400, Note_on_c, 0, 74, 58
2, 26640, Note_on_c, 0, 74, 0
2, 26640, Note_on_c, 0, 83, 62
2, 26880, Note_on_c, 0, 83, 0
2, 26880, Note_on_c, 0, 83, 69
2, 27600, Note_on_c, 0, 83, 0
2, 27600, Note_on_c, 0, 79, 49
2, 27720, Note_on_c, 0, 79, 0
2, 27720, Note_on_c, 0, 76, 45
2, 27840, Note_on_c, 0, 76, 0
2, 27840, Note_on_c, 0, 74, 50
2, 27960, Note_on_c, 0, 74, 0
2, 28080, Note_on_c, 0, 74, 45
2, 28200, Note_on_c, 0, 74, 0
2, 28320, Note_on_c, 0, 74, 50
2, 28440, Note_on_c, 0, 73, 43
2, 28452, Note_on_c, 0, 74, 0
2, 28560, Note_on_c, 0, 71, 43
2, 28572, Note_on_c, 0, 73, 0
2, 28680, Note_on_c, 0, 73, 43
2, 28692, Note_on_c, 0, 71, 0
2, 28800, Note_on_c, 0, 74, 53
2, 28812, Note_on_c, 0, 73, 0
2, 29280, Note_on_c, 0, 74, 0
2, 29520, Note_on_c, 0, 81, 50
2, 29640, Note_on_c, 0, 79, 46
2, 29652, Note_on_c, 0, 81, 0
2, 29760, Note_on_c, 0, 78, 50
2, 29772, Note_on_c, 0, 79, 0
2, 29880, Note_on_c, 0, 76, 45
2, 29892, Note_on_c, 0, 78, 0
2, 30000, Note_on_c, 0, 74, 45
2, 30012, Note_on_c, 0, 76, 0
2, 30120, Note_on_c, 0, 73, 45
2, 30132, Note_on_c, 0, 74, 0
2, 30240, Note_on_c, 0, 71, 50
2, 30252, Note_on_c, 0, 73, 0
2, 30360, Note_on_c, 0, 73, 46
2, 30372, Note_on_c, 0, 71, 0
2, 30480, Note_on_c, 0, 74, 46
2, 30492, Note_on_c, 0, 73, 0
2, 30600, Note_on_c, 0, 71, 46
2, 30612, Note_on_c, 0, 74, 0
2, 30720, Note_on_c, 0, 69, 50
2, 30732, Note_on_c, 0, 71, 0
2, 30960, Note_on_c, 0, 69, 0
2, 31440, Note_on_c, 0, 81, 50
2, 31560, Note_on_c, 0, 79, 46
2, 31572, Note_on_c, 0, 81, 0
2, 31680, Note_on_c, 0, 78, 50
2, 31692, Note_on_c, 0, 79, 0
2, 31800, Note_on_c, 0, 76, 45
2, 31812, Note_on_c, 0, 78, 0
2, 31920, Note_on_c, 0, 74, 45
2, 31932, Note_on_c, 0, 76, 0
2, 32040, Note_on_c, 0, 73, 45
2, 32052, Note_on_c, 0, 74, 0
2, 32160, Note_on_c, 0, 71, 50
2, 32172, Note_on_c, 0, 73, 0
2, 32280, Note_on_c, 0, 73, 48
2, 32292, Note_on_c, 0, 71, 0
2, 32400, Note_on_c, 0, 74, 50
2, 32412, Note_on_c, 0, 73, 0
2, 32520, Note_on_c, 0, 71, 55
2, 32532, Note_on_c, 0, 74, 0
2, 32640, Note_on_c, 0, 69, 60
2, 32652, Note_on_c, 0, 71, 0
2, 32880, Note_on_c, 0, 69, 0
2, 33120, Note_on_c, 0, 86, 62
2, 33240, Note_on_c, 0, 86, 0
2, 33240, Note_on_c, 0, 81, 53
2, 33360, Note_on_c, 0, 81, 0
2, 33360, Note_on_c, 0, 78, 56
2, 33480, Note_on_c, 0, 78, 0
2, 33480, Note_on_c, 0, 74, 54
2, 33600, Note_on_c, 0, 74, 0
2, 33600, Note_on_c, 0, 76, 62
2, 33720, Note_on_c, 0, 76, 0
2, 33840, Note_on_c, 0, 76, 58
2, 33960, Note_on_c, 0, 76, 0
2, 34080, Note_on_c, 0, 73, 52
2, 34080, Note_on_c, 0, 81, 62
2, 34200, Note_on_c, 0, 81, 0
2, 34200, Note_on_c, 0, 73, 0
2, 34320, Note_on_c, 0, 81, 57
2, 34320, Note_on_c, 0, 73, 48
2, 34440, Note_on_c, 0, 73, 0
2, 34440, Note_on_c, 0, 81, 0
2, 34560, Note_on_c, 0, 76, 52
2, 34560, Note_on_c, 0, 79, 62
2, 35040, Note_on_c, 0, 79, 0
2, 35040, Note_on_c, 0, 76, 0
2, 35040, Note_on_c, 0, 78, 59
2, 35040, Note_on_c, 0, 74, 50
2, 35280, Note_on_c, 0, 74, 0
2, 35280, Note_on_c, 0, 78, 0
2, 35280, Note_on_c, 0, 81, 50
2, 35400, Note_on_c, 0, 79, 46
2, 35412, Note_on_c, 0, 81, 0
2, 35520, Note_on_c, 0, 78, 50
2, 35532, Note_on_c, 0, 79, 0
2, 35640, Note_on_c, 0, 76, 45
2, 35652, Note_on_c, 0, 78, 0
2, 35760, Note_on_c, 0, 74, 45
2, 35772, Note_on_c, 0, 76, 0
2, 35880, Note_on_c, 0, 73, 45
2, 35892, Note_on_c, 0, 74, 0
2, 36000, Note_on_c, 0, 71, 50
2, 36012, Note_on_c, 0, 73, 0
2, 36120, Note_on_c, 0, 73, 46
2, 36132, Note_on_c, 0, 71, 0
2, 36240, Note_on_c, 0, 74, 46
2, 36252, Note_on_c, 0, 73, 0
2, 36360, Note_on_c, 0, 71, 46
2, 36372, Note_on_c, 0, 74, 0
2, 36480, Note_on_c, 0, 69, 50
2, 36492, Note_on_c, 0, 71, 0
2, 36600, Note_on_c, 0, 67, 46
2, 36612, Note_on_c, 0, 69, 0
2, 36720, Note_on_c, 0, 66, 46
2, 36732, Note_on_c, 0, 67, 0
2, 36840, Note_on_c, 0, 67, 46
2, 36852, Note_on_c, 0, 66, 0
2, 36960, Note_on_c, 0, 69, 50
2, 36972, Note_on_c, 0, 67, 0
2, 37080, Note_on_c, 0, 69, 0
2, 37200, Note_on_c, 0, 81, 50
2, 37320, Note_on_c, 0, 79, 46
2, 37332, Note_on_c, 0, 81, 0
2, 37440, Note_on_c, 0, 78, 50
2, 37452, Note_on_c, 0, 79, 0
2, 37560, Note_on_c, 0, 76, 45
2, 37572, Note_on_c, 0, 78, 0
2, 37680, Note_on_c, 0, 74, 45
2, 37692, Note_on_c, 0, 76, 0
2, 37800, Note_on_c, 0, 73, 45
2, 37812, Note_on_c, 0, 74, 0
2, 37920, Note_on_c, 0, 71, 50
2, 37932, Note_on_c, 0, 73, 0
2, 38040, Note_on_c, 0, 73, 48
2, 38052, Note_on_c, 0, 71, 0
2, 38160, Note_on_c, 0, 74, 50
2, 38172, Note_on_c, 0, 73, 0
2, 38280, Note_on_c, 0, 71, 55
2, 38292, Note_on_c, 0, 74, 0
2, 38400, Note_on_c, 0, 69, 60
2, 38412, Note_on_c, 0, 71, 0
2, 38640, Note_on_c, 0, 69, 0
2, 38880, Note_on_c, 0, 74, 62
2, 39000, Note_on_c, 0, 74, 0
2, 39000, Note_on_c, 0, 78, 53
2, 39120, Note_on_c, 0, 78, 0
2, 39120, Note_on_c, 0, 81, 56
2, 39240, Note_on_c, 0, 81, 0
2, 39240, Note_on_c, 0, 86, 54
2, 39360, Note_on_c, 0, 86, 0
2, 39360, Note_on_c, 0, 85, 67
2, 39480, Note_on_c, 0, 83, 55
2, 39492, Note_on_c, 0, 85, 0
2, 39600, Note_on_c, 0, 81, 58
2, 39612, Note_on_c, 0, 83, 0
2, 39720, Note_on_c, 0, 79, 55
2, 39732, Note_on_c, 0, 81, 0
2, 39840, Note_on_c, 0, 78, 66
2, 39852, Note_on_c, 0, 79, 0
2, 39960, Note_on_c, 0, 76, 53
2, 39972, Note_on_c, 0, 78, 0
2, 40080, Note_on_c, 0, 74, 58
2, 40092, Note_on_c, 0, 76, 0
2, 40200, Note_on_c, 0, 73, 56
2, 40212, Note_on_c, 0, 74, 0
2, 40320, Note_on_c, 0, 73, 0
2, 40320, Note_on_c, 0, 74, 67
2, 40440, Note_on_c, 0, 74, 0
2, 40440, Note_on_c, 0, 78, 58
2, 40560, Note_on_c, 0, 78, 0
2, 40560, Note_on_c, 0, 81, 64
2, 40680, Note_on_c, 0, 81, 0
2, 40680, Note_on_c, 0, 78, 58
2, 40800, Note_on_c, 0, 78, 0
2, 40800, Note_on_c, 0, 81, 67
2, 40920, Note_on_c, 0, 81, 0
2, 40920, Note_on_c, 0, 78, 59
2, 41040, Note_on_c, 0, 78, 0
2, 41040, Note_on_c, 0, 79, 64
2, 41160, Note_on_c, 0, 79, 0
2, 41160, Note_on_c, 0, 76, 58
2, 41280, Note_on_c, 0, 76, 0
2, 41280, Note_on_c, 0, 74, 67
2, 41400, Note_on_c, 0, 74, 0
2, 41400, Note_on_c, 0, 78, 59
2, 41520, Note_on_c, 0, 78, 0
2, 41520, Note_on_c, 0, 81, 63
2, 41640, Note_on_c, 0, 81, 0
2, 41640, Note_on_c, 0, 78, 58
2, 41760, Note_on_c, 0, 78, 0
2, 41760, Note_on_c, 0, 81, 67
2, 41880, Note_on_c, 0, 81, 0
2, 41880, Note_on_c, 0, 78, 59
2, 42000, Note_on_c, 0, 78, 0
2, 42000, Note_on_c, 0, 79, 65
2, 42120, Note_on_c, 0, 79, 0
2, 42120, Note_on_c, 0, 76, 59
2, 42240, Note_on_c, 0, 76, 0
2, 42240, Note_on_c, 0, 74, 70
2, 42720, Note_on_c, 0, 74, 0
2, 42960, Note_on_c, 0, 74, 46
2, 43200, Note_on_c, 0, 74, 0
2, 43200, Note_on_c, 0, 74, 50
2, 43440, Note_on_c, 0, 74, 0
2, 43440, Note_on_c, 0, 71, 45
2, 43680, Note_on_c, 0, 71, 0
2, 43680, Note_on_c, 0, 71, 49
2, 43920, Note_on_c, 0, 71, 0
2, 43920, Note_on_c, 0, 77, 62
2, 44160, Note_on_c, 0, 77, 0
2, 44160, Note_on_c, 0, 77, 69
2, 44880, Note_on_c, 0, 77, 0
2, 44880, Note_on_c, 0, 76, 49
2, 45000, Note_on_c, 0, 76, 0
2, 45000, Note_on_c, 0, 74, 45
2, 45120, Note_on_c, 0, 74, 0
2, 45120, Note_on_c, 0, 72, 50
2, 45240, Note_on_c, 0, 72, 0
2, 45360, Note_on_c, 0, 72, 45
2, 45480, Note_on_c, 0, 72, 0
2, 45600, Note_on_c, 0, 72, 50
2, 45720, Note_on_c, 0, 71, 43
2, 45732, Note_on_c, 0, 72, 0
2, 45840, Note_on_c, 0, 69, 43
2, 45852, Note_on_c, 0, 71, 0
2, 45960, Note_on_c, 0, 71, 43
2, 45972, Note_on_c, 0, 69, 0
2, 46080, Note_on_c, 0, 72, 53
2, 46092, Note_on_c, 0, 71, 0
2, 46320, Note_on_c, 0, 72, 0
2, 46320, Note_on_c, 0, 81, 46
2, 46440, Note_on_c, 0, 81, 0
2, 46560, Note_on_c, 0, 76, 50
2, 46680, Note_on_c, 0, 77, 43
2, 46692, Note_on_c, 0, 76, 0
2, 46800, Note_on_c, 0, 76, 43
2, 46812, Note_on_c, 0, 77, 0
2, 46920, Note_on_c, 0, 74, 43
2, 46932, Note_on_c, 0, 76, 0
2, 47040, Note_on_c, 0, 72, 53
2, 47052, Note_on_c, 0, 74, 0
2, 47280, Note_on_c, 0, 72, 0
2, 47280, Note_on_c, 0, 81, 46
2, 47400, Note_on_c, 0, 81, 0
2, 47520, Note_on_c, 0, 76, 50
2, 47640, Note_on_c, 0, 77, 43
2, 47652, Note_on_c, 0, 76, 0
2, 47760, Note_on_c, 0, 76, 43
2, 47772, Note_on_c, 0, 77, 0
2, 47880, Note_on_c, 0, 74, 43
2, 47892, Note_on_c, 0, 76, 0
2, 48000, Note_on_c, 0, 72, 50
2, 48012, Note_on_c, 0, 74, 0
2, 48120, Note_on_c, 0, 74, 45
2, 48132, Note_on_c, 0, 72, 0
2, 48240, Note_on_c, 0, 72, 45
2, 48252, Note_on_c, 0, 74, 0
2, 48360, Note_on_c, 0, 71, 45
2, 48372, Note_on_c, 0, 72, 0
2, 48480, Note_on_c, 0, 69, 51
2, 48492, Note_on_c, 0, 71, 0
2, 48600, Note_on_c, 0, 71, 55
2, 48612, Note_on_c, 0, 69, 0
2, 48720, Note_on_c, 0, 72, 58
2, 48732, Note_on_c, 0, 71, 0
2, 48840, Note_on_c, 0, 74, 62
2, 48852, Note_on_c, 0, 72, 0
2, 48960, Note_on_c, 0, 76, 70
2, 48972, Note_on_c, 0, 74, 0
2, 49680, Note_on_c, 0, 76, 0
2, 49680, Note_on_c, 0, 74, 50
2, 49800, Note_on_c, 0, 72, 43
2, 49812, Note_on_c, 0, 74, 0
2, 49920, Note_on_c, 0, 71, 50
2, 49932, Note_on_c, 0, 72, 0
2, 50040, Note_on_c, 0, 71, 0
2, 50040, Note_on_c, 0, 74, 45
2, 50160, Note_on_c, 0, 72, 43
2, 50172, Note_on_c, 0, 74, 0
2, 50280, Note_on_c, 0, 71, 43
2, 50292, Note_on_c, 0, 72, 0
2, 50400, Note_on_c, 0, 69, 50
2, 50412, Note_on_c, 0, 71, 0
2, 50520, Note_on_c, 0, 72, 45
2, 50532, Note_on_c, 0, 69, 0
2, 50640, Note_on_c, 0, 71, 43
2, 50652, Note_on_c, 0, 72, 0
2, 50760, Note_on_c, 0, 69, 43
2, 50772, Note_on_c, 0, 71, 0
2, 50880, Note_on_c, 0, 67, 50
2, 50892, Note_on_c, 0, 69, 0
2, 51000, Note_on_c, 0, 69, 45
2, 51012, Note_on_c, 0, 67, 0
2, 51120, Note_on_c, 0, 67, 45
2, 51132, Note_on_c, 0, 69, 0
2, 51240, Note_on_c, 0, 66, 45
2, 51252, Note_on_c, 0, 67, 0
2, 51360, Note_on_c, 0, 67, 50
2, 51372, Note_on_c, 0, 66, 0
2, 51480, Note_on_c, 0, 69, 46
2, 51492, Note_on_c, 0, 67, 0
2, 51600, Note_on_c, 0, 71, 50
2, 51612, Note_on_c, 0, 69, 0
2, 51720, Note_on_c, 0, 73, 57
2, 51732, Note_on_c, 0, 71, 0
2, 51840, Note_on_c, 0, 74, 67
2, 51852, Note_on_c, 0, 73, 0
2, 52080, Note_on_c, 0, 74, 0
2, 52320, Note_on_c, 0, 66, 54
2, 52440, Note_on_c, 0, 67, 50
2, 52452, Note_on_c, 0, 66, 0
2, 52560, Note_on_c, 0, 66, 53
2, 52572, Note_on_c, 0, 67, 0
2, 52680, Note_on_c, 0, 64, 50
2, 52692, Note_on_c, 0, 66, 0
2, 52800, Note_on_c, 0, 62, 58
2, 52812, Note_on_c, 0, 64, 0
2, 52920, Note_on_c, 0, 62, 0
2, 53280, Note_on_c, 0, 67, 50
2, 53400, Note_on_c, 0, 69, 46
2, 53412, Note_on_c, 0, 67, 0
2, 53520, Note_on_c, 0, 67, 50
2, 53532, Note_on_c, 0, 69, 0
2, 53640, Note_on_c, 0, 66, 47
2, 53652, Note_on_c, 0, 67, 0
2, 53760, Note_on_c, 0, 64, 50
2, 53772, Note_on_c, 0, 66, 0
2, 53880, Note_on_c, 0, 64, 0
2, 54240, Note_on_c, 0, 69, 45
2, 54360, Note_on_c, 0, 71, 41
2, 54372, Note_on_c, 0, 69, 0
2, 54480, Note_on_c, 0, 69, 45
2, 54492, Note_on_c, 0, 71, 0
2, 54600, Note_on_c, 0, 67, 39
2, 54612, Note_on_c, 0, 69, 0
2, 54720, Note_on_c, 0, 66, 45
2, 54732, Note_on_c, 0, 67, 0
2, 54840, Note_on_c, 0, 67, 38
2, 54852, Note_on_c, 0, 66, 0
2, 54960, Note_on_c, 0, 66, 38
2, 54972, Note_on_c, 0, 67, 0
2, 55080, Note_on_c, 0, 64, 38
2, 55092, Note_on_c, 0, 66, 0
2, 55200, Note_on_c, 0, 66, 42
2, 55212, Note_on_c, 0, 64, 0
2, 55320, Note_on_c, 0, 67, 43
2, 55332, Note_on_c, 0, 66, 0
2, 55440, Note_on_c, 0, 69, 41
2, 55452, Note_on_c, 0, 67, 0
2, 55560, Note_on_c, 0, 71, 40
2, 55572, Note_on_c, 0, 69, 0
2, 55680, Note_on_c, 0, 72, 42
2, 55692, Note_on_c, 0, 71, 0
2, 55920, Note_on_c, 0, 72, 0
2, 56400, Note_on_c, 0, 74, 46
2, 56640, Note_on_c, 0, 74, 0
2, 56640, Note_on_c, 0, 74, 50
2, 56880, Note_on_c, 0, 74, 0
2, 56880, Note_on_c, 0, 71, 45
2, 57120, Note_on_c, 0, 71, 0
2, 57120, Note_on_c, 0, 71, 49
2, 57360, Note_on_c, 0, 71, 0
2, 57360, Note_on_c, 0, 79, 62
2, 57600, Note_on_c, 0, 79, 0
2, 57600, Note_on_c, 0, 79, 69
2, 58320, Note_on_c, 0, 79, 0
2, 58320, Note_on_c, 0, 78, 49
2, 58440, Note_on_c, 0, 78, 0
2, 58440, Note_on_c, 0, 76, 45
2, 58560, Note_on_c, 0, 76, 0
2, 58560, Note_on_c, 0, 74, 50
2, 58680, Note_on_c, 0, 74, 0
2, 58800, Note_on_c, 0, 74, 45
2, 58920, Note_on_c, 0, 74, 0
2, 59040, Note_on_c, 0, 74, 50
2, 59160, Note_on_c, 0, 76, 43
2, 59172, Note_on_c, 0, 74, 0
2, 59280, Note_on_c, 0, 74, 43
2, 59292, Note_on_c, 0, 76, 0
2, 59400, Note_on_c, 0, 72, 43
2, 59412, Note_on_c, 0, 74, 0
2, 59520, Note_on_c, 0, 71, 53
2, 59532, Note_on_c, 0, 72, 0
2, 59760, Note_on_c, 0, 71, 0
2, 59760, Note_on_c, 0, 74, 46
2, 59880, Note_on_c, 0, 74, 0
2, 60240, Note_on_c, 0, 71, 46
2, 60480, Note_on_c, 0, 71, 0
2, 60480, Note_on_c, 0, 71, 53
2, 60720, Note_on_c, 0, 71, 0
2, 60720, Note_on_c, 0, 69, 49
2, 60960, Note_on_c, 0, 69, 0
2, 60960, Note_on_c, 0, 69, 58
2, 61200, Note_on_c, 0, 69, 0
2, 61200, Note_on_c, 0, 76, 62
2, 61440, Note_on_c, 0, 76, 0
2, 61440, Note_on_c, 0, 76, 69
2, 62160, Note_on_c, 0, 76, 0
2, 62160, Note_on_c, 0, 72, 49
2, 62280, Note_on_c, 0, 72, 0
2, 62280, Note_on_c, 0, 69, 45
2, 62400, Note_on_c, 0, 69, 0
2, 62400, Note_on_c, 0, 67, 50
2, 62520, Note_on_c, 0, 67, 0
2, 62640, Note_on_c, 0, 67, 45
2, 62760, Note_on_c, 0, 67, 0
2, 62880, Note_on_c, 0, 67, 50
2, 63000, Note_on_c, 0, 66, 43
2, 63012, Note_on_c, 0, 67, 0
2, 63120, Note_on_c, 0, 64, 43
2, 63132, Note_on_c, 0, 66, 0
2, 63240, Note_on_c, 0, 66, 43
2, 63252, Note_on_c, 0, 64, 0
2, 63360, Note_on_c, 0, 67, 53
2, 63372, Note_on_c, 0, 66, 0
2, 63840, Note_on_c, 0, 67, 0
2, 64080, Note_on_c, 0, 74, 50
2, 64200, Note_on_c, 0, 72, 46
2, 64212, Note_on_c, 0, 74, 0
2, 64320, Note_on_c, 0, 71, 50
2, 64332, Note_on_c, 0, 72, 0
2, 64440, Note_on_c, 0, 69, 45
2, 64452, Note_on_c, 0, 71, 0
2, 64560, Note_on_c, 0, 67, 45
2, 64572, Note_on_c, 0, 69, 0
2, 64680, Note_on_c, 0, 66, 45
2, 64692, Note_on_c, 0, 67, 0
2, 64800, Note_on_c, 0, 64, 50
2, 64812, Note_on_c, 0, 66, 0
2, 64920, Note_on_c, 0, 66, 46
2, 64932, Note_on_c, 0, 64, 0
2, 65040, Note_on_c, 0, 67, 46
2, 65052, Note_on_c, 0, 66, 0
2, 65160, Note_on_c, 0, 64, 46
2, 65172, Note_on_c, 0, 67, 0
2, 65280, Note_on_c, 0, 62, 50
2, 65292, Note_on_c, 0, 64, 0
2, 65520, Note_on_c, 0, 62, 0
2, 66000, Note_on_c, 0, 74, 50
2, 66120, Note_on_c, 0, 72, 46
2, 66132, Note_on_c, 0, 74, 0
2, 66240, Note_on_c, 0, 71, 50
2, 66252, Note_on_c, 0, 72, 0
2, 66360, Note_on_c, 0, 69, 45
2, 66372, Note_on_c, 0, 71, 0
2, 66480, Note_on_c, 0, 67, 45
2, 66492, Note_on_c, 0, 69, 0
2, 66600, Note_on_c, 0, 66, 45
2, 66612, Note_on_c, 0, 67, 0
2, 66720, Note_on_c, 0, 64, 50
2, 66732, Note_on_c, 0, 66, 0
2, 66840, Note_on_c, 0, 66, 48
2, 66852, Note_on_c, 0, 64, 0
2, 66960, Note_on_c, 0, 67, 50
2, 66972, Note_on_c, 0, 66, 0
2, 67080, Note_on_c, 0, 64, 55
2, 67092, Note_on_c, 0, 67, 0
2, 67200, Note_on_c, 0, 62, 60
2, 67212, Note_on_c, 0, 64, 0
2, 67320, Note_on_c, 0, 62, 0
2, 67440, Note_on_c, 0, 79, 62
2, 67560, Note_on_c, 0, 79, 0
2, 67560, Note_on_c, 0, 78, 58
2, 67680, Note_on_c, 0, 78, 0
2, 67680, Note_on_c, 0, 76, 56
2, 67800, Note_on_c, 0, 76, 0
2, 67800, Note_on_c, 0, 74, 56
2, 67920, Note_on_c, 0, 74, 0
2, 67920, Note_on_c, 0, 72, 56
2, 68040, Note_on_c, 0, 72, 0
2, 68040, Note_on_c, 0, 71, 56
2, 68160, Note_on_c, 0, 71, 0
2, 68160, Note_on_c, 0, 69, 62
2, 68280, Note_on_c, 0, 69, 0
2, 68400, Note_on_c, 0, 69, 58
2, 68520, Note_on_c, 0, 69, 0
2, 68640, Note_on_c, 0, 66, 52
2, 68640, Note_on_c, 0, 74, 62
2, 68760, Note_on_c, 0, 74, 0
2, 68760, Note_on_c, 0, 66, 0
2, 68880, Note_on_c, 0, 74, 57
2, 68880, Note_on_c, 0, 66, 48
2, 69000, Note_on_c, 0, 66, 0
2, 69000, Note_on_c, 0, 74, 0
2, 69120, Note_on_c, 0, 69, 52
2, 69120, Note_on_c, 0, 72, 62
2, 69600, Note_on_c, 0, 72, 0
2, 69600, Note_on_c, 0, 69, 0
2, 69600, Note_on_c, 0, 71, 59
2, 69600, Note_on_c, 0, 67, 50
2, 69840, Note_on_c, 0, 67, 0
2, 69840, Note_on_c, 0, 71, 0
2, 69840, Note_on_c, 0, 83, 50
2, 69960, Note_on_c, 0, 81, 46
2, 69972, Note_on_c, 0, 83, 0
2, 70080, Note_on_c, 0, 79, 50
2, 70092, Note_on_c, 0, 81, 0
2, 70200, Note_on_c, 0, 78, 45
2, 70212, Note_on_c, 0, 79, 0
2, 70320, Note_on_c, 0, 76, 45
2, 70332, Note_on_c, 0, 78, 0
2, 70440, Note_on_c, 0, 75, 45
2, 70452, Note_on_c, 0, 76, 0
2, 70560, Note_on_c, 0, 76, 50
2, 70572, Note_on_c, 0, 75, 0
2, 70680, Note_on_c, 0, 78, 46
2, 70692, Note_on_c, 0, 76, 0
2, 70800, Note_on_c, 0, 79, 46
2, 70812, Note_on_c, 0, 78, 0
2, 70920, Note_on_c, 0, 76, 46
2, 70932, Note_on_c, 0, 79, 0
2, 71040, Note_on_c, 0, 74, 50
2, 71052, Note_on_c, 0, 76, 0
2, 71160, Note_on_c, 0, 72, 46
2, 71172, Note_on_c, 0, 74, 0
2, 71280, Note_on_c, 0, 71, 46
2, 71292, Note_on_c, 0, 72, 0
2, 71400, Note_on_c, 0, 72, 46
2, 71412, Note_on_c, 0, 71, 0
2, 71520, Note_on_c, 0, 74, 50
2, 71532, Note_on_c, 0, 72, 0
2, 71640, Note_on_c, 0, 74, 0
2, 71760, Note_on_c, 0, 83, 50
2, 71880, Note_on_c, 0, 81, 46
2, 71892, Note_on_c, 0, 83, 0
2, 72000, Note_on_c, 0, 79, 50
2, 72012, Note_on_c, 0, 81, 0
2, 72120, Note_on_c, 0, 78, 45
2, 72132, Note_on_c, 0, 79, 0
2, 72240, Note_on_c, 0, 76, 45
2, 72252, Note_on_c, 0, 78, 0
2, 72360, Note_on_c, 0, 75, 45
2, 72372, Note_on_c, 0, 76, 0
2, 72480, Note_on_c, 0, 76, 50
2, 72492, Note_on_c, 0, 75, 0
2, 72600, Note_on_c, 0, 78, 48
2, 72612, Note_on_c, 0, 76, 0
2, 72720, Note_on_c, 0, 79, 50
2, 72732, Note_on_c, 0, 78, 0
2, 72840, Note_on_c, 0, 76, 55
2, 72852, Note_on_c, 0, 79, 0
2, 72960, Note_on_c, 0, 74, 62
2, 72972, Note_on_c, 0, 76, 0
2, 73080, Note_on_c, 0, 74, 0
2, 73080, Note_on_c, 0, 79, 53
2, 73200, Note_on_c, 0, 79, 0
2, 73200, Note_on_c, 0, 83, 56
2, 73320, Note_on_c, 0, 83, 0
2, 73320, Note_on_c, 0, 86, 54
2, 73440, Note_on_c, 0, 86, 0
2, 73440, Note_on_c, 0, 84, 62
2, 73560, Note_on_c, 0, 84, 0
2, 73560, Note_on_c, 0, 83, 53
2, 73680, Note_on_c, 0, 83, 0
2, 73680, Note_on_c, 0, 81, 56
2, 73800, Note_on_c, 0, 81, 0
2, 73800, Note_on_c, 0, 79, 59
2, 73920, Note_on_c, 0, 79, 0
2, 73920, Note_on_c, 0, 78, 67
2, 74040, Note_on_c, 0, 78, 0
2, 74040, Note_on_c, 0, 76, 55
2, 74160, Note_on_c, 0, 76, 0
2, 74160, Note_on_c, 0, 74, 58
2, 74280, Note_on_c, 0, 74, 0
2, 74280, Note_on_c, 0, 72, 55
2, 74400, Note_on_c, 0, 72, 0
2, 74400, Note_on_c, 0, 71, 66
2, 74520, Note_on_c, 0, 71, 0
2, 74520, Note_on_c, 0, 69, 53
2, 74640, Note_on_c, 0, 69, 0
2, 74640, Note_on_c, 0, 67, 58
2, 74760, Note_on_c, 0, 67, 0
2, 74760, Note_on_c, 0, 66, 56
2, 74880, Note_on_c, 0, 66, 0
2, 74880, Note_on_c, 0, 67, 67
2, 75000, Note_on_c, 0, 67, 0
2, 75000, Note_on_c, 0, 71, 58
2, 75120, Note_on_c, 0, 71, 0
2, 75120, Note_on_c, 0, 74, 64
2, 75240, Note_on_c, 0, 74, 0
2, 75240, Note_on_c, 0, 71, 58
2, 75360, Note_on_c, 0, 71, 0
2, 75360, Note_on_c, 0, 74, 67
2, 75480, Note_on_c, 0, 74, 0
2, 75480, Note_on_c, 0, 71, 59
2, 75600, Note_on_c, 0, 71, 0
2, 75600, Note_on_c, 0, 72, 64
2, 75720, Note_on_c, 0, 72, 0
2, 75720, Note_on_c, 0, 69, 58
2, 75840, Note_on_c, 0, 69, 0
2, 75840, Note_on_c, 0, 67, 67
2, 75960, Note_on_c, 0, 67, 0
2, 75960, Note_on_c, 0, 71, 59
2, 76080, Note_on_c, 0, 71, 0
2, 76080, Note_on_c, 0, 74, 63
2, 76200, Note_on_c, 0, 74, 0
2, 76200, Note_on_c, 0, 71, 58
2, 76320, Note_on_c, 0, 71, 0
2, 76320, Note_on_c, 0, 74, 67
2, 76440, Note_on_c, 0, 74, 0
2, 76440, Note_on_c, 0, 71, 59
2, 76560, Note_on_c, 0, 71, 0
2, 76560, Note_on_c, 0, 72, 65
2, 76680, Note_on_c, 0, 72, 0
2, 76680, Note_on_c, 0, 69, 59
2, 76800, Note_on_c, 0, 69, 0
2, 76800, Note_on_c, 0, 67, 70
2, 77040, Note_on_c, 0, 67, 0
2, 77280, Note_on_c, 0, 71, 59
2, 77280, Note_on_c, 0, 74, 59
2, 77280, Note_on_c, 0, 79, 70
2, 77520, Note_on_c, 0, 79, 0
2, 77520, Note_on_c, 0, 74, 0
2, 77520, Note_on_c, 0, 71, 0
2, 77760, Note_on_c, 0, 71, 59
2, 77760, Note_on_c, 0, 74, 59
2, 77760, Note_on_c, 0, 79, 70
2, 78240, Note_on_c, 0, 79, 0
2, 78240, Note_on_c, 0, 74, 0
2, 78240, Note_on_c, 0, 71, 0
2, 78480, Note_on_c, 0, 74, 46
2, 78720, Note_on_c, 0, 74, 0
2, 78720, Note_on_c, 0, 74, 50
2, 78960, Note_on_c, 0, 74, 0
2, 78960, Note_on_c, 0, 71, 45
2, 79200, Note_on_c, 0, 71, 0
2, 79200, Note_on_c, 0, 71, 49
2, 79440, Note_on_c, 0, 71, 0
2, 79440, Note_on_c, 0, 77, 62
2, 79680, Note_on_c, 0, 77, 0
2, 79680, Note_on_c, 0, 77, 69
2, 80400, Note_on_c, 0, 77, 0
2, 80400, Note_on_c, 0, 76, 49
2, 80520, Note_on_c, 0, 76, 0
2, 80520, Note_on_c, 0, 74, 45
2, 80640, Note_on_c, 0, 74, 0
2, 80640, Note_on_c, 0, 72, 50
2, 80760, Note_on_c, 0, 72, 0
2, 80880, Note_on_c, 0, 72, 45
2, 81000, Note_on_c, 0, 72, 0
2, 81120, Note_on_c, 0, 72, 50
2, 81240, Note_on_c, 0, 71, 43
2, 81252, Note_on_c, 0, 72, 0
2, 81360, Note_on_c, 0, 69, 43
2, 81372, Note_on_c, 0, 71, 0
2, 81480, Note_on_c, 0, 71, 43
2, 81492, Note_on_c, 0, 69, 0
2, 81600, Note_on_c, 0, 72, 53
2, 81612, Note_on_c, 0, 71, 0
2, 81840, Note_on_c, 0, 72, 0
2, 81840, Note_on_c, 0, 81, 46
2, 81960, Note_on_c, 0, 81, 0
2, 82080, Note_on_c, 0, 76, 50
2, 82200, Note_on_c, 0, 77, 43
2, 82212, Note_on_c, 0, 76, 0
2, 82320, Note_on_c, 0, 76, 43
2, 82332, Note_on_c, 0, 77, 0
2, 82440, Note_on_c, 0, 74, 43
2, 82452, Note_on_c, 0, 76, 0
2, 82560, Note_on_c, 0, 72, 53
2, 82572, Note_on_c, 0, 74, 0
2, 82800, Note_on_c, 0, 72, 0
2, 82800, Note_on_c, 0, 81, 46
2, 82920, Note_on_c, 0, 81, 0
2, 83040, Note_on_c, 0, 76, 50
2, 83160, Note_on_c, 0, 77, 43
2, 83172, Note_on_c, 0, 76, 0
2, 83280, Note_on_c, 0, 76, 43
2, 83292, Note_on_c, 0, 77, 0
2, 83400, Note_on_c, 0, 74, 43
2, 83412, Note_on_c, 0, 76, 0
2, 83520, Note_on_c, 0, 72, 50
2, 83532, Note_on_c, 0, 74, 0
2, 83640, Note_on_c, 0, 74, 45
2, 83652, Note_on_c, 0, 72, 0
2, 83760, Note_on_c, 0, 72, 45
2, 83772, Note_on_c, 0, 74, 0
2, 83880, Note_on_c, 0, 71, 45
2, 83892, Note_on_c, 0, 72, 0
2, 84000, Note_on_c, 0, 69, 51
2, 84012, Note_on_c, 0, 71, 0
2, 84120, Note_on_c, 0, 71, 55
2, 84132, Note_on_c, 0, 69, 0
2, 84240, Note_on_c, 0, 72, 58
2, 84252, Note_on_c, 0, 71, 0
2, 84360, Note_on_c, 0, 74, 62
2, 84372, Note_on_c, 0, 72, 0
2, 84480, Note_on_c, 0, 76, 70
2, 84492, Note_on_c, 0, 74, 0
2, 85200, Note_on_c, 0, 76, 0
2, 85200, Note_on_c, 0, 74, 50
2, 85320, Note_on_c, 0, 72, 43
2, 85332, Note_on_c, 0, 74, 0
2, 85440, Note_on_c, 0, 71, 50
2, 85452, Note_on_c, 0, 72, 0
2, 85560, Note_on_c, 0, 71, 0
2, 85560, Note_on_c, 0, 74, 45
2, 85680, Note_on_c, 0, 72, 43
2, 85692, Note_on_c, 0, 74, 0
2, 85800, Note_on_c, 0, 71, 43
2, 85812, Note_on_c, 0, 72, 0
2, 85920, Note_on_c, 0, 69, 50
2, 85932, Note_on_c, 0, 71, 0
2, 86040, Note_on_c, 0, 72, 45
2, 86052, Note_on_c, 0, 69, 0
2, 86160, Note_on_c, 0, 71, 43
2, 86172, Note_on_c, 0, 72, 0
2, 86280, Note_on_c, 0, 69, 43
2, 86292, Note_on_c, 0, 71, 0
2, 86400, Note_on_c, 0, 67, 50
2, 86412, Note_on_c, 0, 69, 0
2, 86520, Note_on_c, 0, 69, 45
2, 86532, Note_on_c, 0, 67, 0
2, 86640, Note_on_c, 0, 67, 45
2, 86652, Note_on_c, 0, 69, 0
2, 86760, Note_on_c, 0, 66, 45
2, 86772, Note_on_c, 0, 67, 0
2, 86880, Note_on_c, 0, 67, 50
2, 86892, Note_on_c, 0, 66, 0
2, 87000, Note_on_c, 0, 69, 46
2, 87012, Note_on_c, 0, 67, 0
2, 87120, Note_on_c, 0, 71, 50
2, 87132, Note_on_c, 0, 69, 0
2, 87240, Note_on_c, 0, 73, 57
2, 87252, Note_on_c, 0, 71, 0
2, 87360, Note_on_c, 0, 74, 67
2, 87372, Note_on_c, 0, 73, 0
2, 87600, Note_on_c, 0, 74, 0
2, 87840, Note_on_c, 0, 66, 54
2, 87960, Note_on_c, 0, 67, 50
2, 87972, Note_on_c, 0, 66, 0
2, 88080, Note_on_c, 0, 66, 53
2, 88092, Note_on_c, 0, 67, 0
2, 88200, Note_on_c, 0, 64, 50
2, 88212, Note_on_c, 0, 66, 0
2, 88320, Note_on_c, 0, 62, 58
2, 88332, Note_on_c, 0, 64, 0
2, 88440, Note_on_c, 0, 62, 0
2, 88800, Note_on_c, 0, 67, 50
2, 88920, Note_on_c, 0, 69, 46
2, 88932, Note_on_c, 0, 67, 0
2, 89040, Note_on_c, 0, 67, 50
2, 89052, Note_on_c, 0, 69, 0
2, 89160, Note_on_c, 0, 66, 47
2, 89172, Note_on_c, 0, 67, 0
2, 89280, Note_on_c, 0, 64, 50
2, 89292, Note_on_c, 0, 66, 0
2, 89400, Note_on_c, 0, 64, 0
2, 89760, Note_on_c, 0, 69, 45
2, 89880, Note_on_c, 0, 71, 41
2, 89892, Note_on_c, 0, 69, 0
2, 90000, Note_on_c, 0, 69, 45
2, 90012, Note_on_c, 0, 71, 0
2, 90120, Note_on_c, 0, 67, 39
2, 90132, Note_on_c, 0, 69, 0
2, 90240, Note_on_c, 0, 66, 45
2, 90252, Note_on_c, 0, 67, 0
2, 90360, Note_on_c, 0, 67, 38
2, 90372, Note_on_c, 0, 66, 0
2, 90480, Note_on_c, 0, 66, 38
2, 90492, Note_on_c, 0, 67, 0
2, 90600, Note_on_c, 0, 64, 38
2, 90612, Note_on_c, 0, 66, 0
2, 90720, Note_on_c, 0, 66, 42
2, 90732, Note_on_c, 0, 64, 0
2, 90840, Note_on_c, 0, 67, 43
2, 90852, Note_on_c, 0, 66, 0
2, 90960, Note_on_c, 0, 69, 41
2, 90972, Note_on_c, 0, 67, 0
2, 91080, Note_on_c, 0, 71, 40
2, 91092, Note_on_c, 0, 69, 0
2, 91200, Note_on_c, 0, 72, 42
2, 91212, Note_on_c, 0, 71, 0
2, 91440, Note_on_c, 0, 72, 0
2, 91920, Note_on_c, 0, 74, 46
2, 92160, Note_on_c, 0, 74, 0
2, 92160, Note_on_c, 0, 74, 50
2, 92400, Note_on_c, 0, 74, 0
2, 92400, Note_on_c, 0, 71, 45
2, 92640, Note_on_c, 0, 71, 0
2, 92640, Note_on_c, 0, 71, 49
2, 92880, Note_on_c, 0, 71, 0
2, 92880, Note_on_c, 0, 79, 62
2, 93120, Note_on_c, 0, 79, 0
2, 93120, Note_on_c, 0, 79, 69
2, 93840, Note_on_c, 0, 79, 0
2, 93840, Note_on_c, 0, 78, 49
2, 93960, Note_on_c, 0, 78, 0
2, 93960, Note_on_c, 0, 76, 45
2, 94080, Note_on_c, 0, 76, 0
2, 94080, Note_on_c, 0, 74, 50
2, 94200, Note_on_c, 0, 74, 0
2, 94320, Note_on_c, 0, 74, 45
2, 94440, Note_on_c, 0, 74, 0
2, 94560, Note_on_c, 0, 74, 50
2, 94680, Note_on_c, 0, 76, 43
2, 94692, Note_on_c, 0, 74, 0
2, 94800, Note_on_c, 0, 74, 43
2, 94812, Note_on_c, 0, 76, 0
2, 94920, Note_on_c, 0, 72, 43
2, 94932, Note_on_c, 0, 74, 0
2, 95040, Note_on_c, 0, 71, 53
2, 95052, Note_on_c, 0, 72, 0
2, 95280, Note_on_c, 0, 71, 0
2, 95280, Note_on_c, 0, 74, 46
2, 95400, Note_on_c, 0, 74, 0
2, 95760, Note_on_c, 0, 71, 46
2, 96000, Note_on_c, 0, 71, 0
2, 96000, Note_on_c, 0, 71, 53
2, 96240, Note_on_c, 0, 71, 0
2, 96240, Note_on_c, 0, 69, 49
2, 96480, Note_on_c, 0, 69, 0
2, 96480, Note_on_c, 0, 69, 58
2, 96720, Note_on_c, 0, 69, 0
2, 96720, Note_on_c, 0, 76, 62
2, 96960, Note_on_c, 0, 76, 0
2, 96960, Note_on_c, 0, 76, 69
2, 97680, Note_on_c, 0, 76, 0
2, 97680, Note_on_c, 0, 72, 49
2, 97800, Note_on_c, 0, 72, 0
2, 97800, Note_on_c, 0, 69, 45
2, 97920, Note_on_c, 0, 69, 0
2, 97920, Note_on_c, 0, 67, 50
2, 98040, Note_on_c, 0, 67, 0
2, 98160, Note_on_c, 0, 67, 45
2, 98280, Note_on_c, 0, 67, 0
2, 98400, Note_on_c, 0, 67, 50
2, 98520, Note_on_c, 0, 66, 43
2, 98532, Note_on_c, 0, 67, 0
2, 98640, Note_on_c, 0, 64, 43
2, 98652, Note_on_c, 0, 66, 0
2, 98760, Note_on_c, 0, 66, 43
2, 98772, Note_on_c, 0, 64, 0
2, 98880, Note_on_c, 0, 67, 53
2, 98892, Note_on_c, 0, 66, 0
2, 99360, Note_on_c, 0, 67, 0
2, 99600, Note_on_c, 0, 74, 50
2, 99720, Note_on_c, 0, 72, 46
2, 99732, Note_on_c, 0, 74, 0
2, 99840, Note_on_c, 0, 71, 50
2, 99852, Note_on_c, 0, 72, 0
2, 99960, Note_on_c, 0, 69, 45
2, 99972, Note_on_c, 0, 71, 0
2, 100080, Note_on_c, 0, 67, 45
2, 100092, Note_on_c, 0, 69, 0
2, 100200, Note_on_c, 0, 66, 45
2, 100212, Note_on_c, 0, 67, 0
2, 100320, Note_on_c, 0, 64, 50
2, 100332, Note_on_c, 0, 66, 0
2, 100440, Note_on_c, 0, 66, 46
2, 100452, Note_on_c, 0, 64, 0
2, 100560, Note_on_c, 0, 67, 46
2, 100572, Note_on_c, 0, 66, 0
2, 100680, Note_on_c, 0, 64, 46
2, 100692, Note_on_c, 0, 67, 0
2, 100800, Note_on_c, 0, 62, 50
2, 100812, Note_on_c, 0, 64, 0
2, 101040, Note_on_c, 0, 62, 0
2, 101520, Note_on_c, 0, 74, 50
2, 101640, Note_on_c, 0, 72, 46
2, 101652, Note_on_c, 0, 74, 0
2, 101760, Note_on_c, 0, 71, 50
2, 101772, Note_on_c, 0, 72, 0
2, 101880, Note_on_c, 0, 69, 45
2, 101892, Note_on_c, 0, 71, 0
2, 102000, Note_on_c, 0, 67, 45
2, 102012, Note_on_c, 0, 69, 0
2, 102120, Note_on_c, 0, 66, 45
2, 102132, Note_on_c, 0, 67, 0
2, 102240, Note_on_c, 0, 64, 50
2, 102252, Note_on_c, 0, 66, 0
2, 102360, Note_on_c, 0, 66, 48
2, 102372, Note_on_c, 0, 64, 0
2, 102480, Note_on_c, 0, 67, 50
2, 102492, Note_on_c, 0, 66, 0
2, 102600, Note_on_c, 0, 64, 55
2, 102612, Note_on_c, 0, 67, 0
2, 102720, Note_on_c, 0, 62, 60
2, 102732, Note_on_c, 0, 64, 0
2, 102840, Note_on_c, 0, 62, 0
2, 102960, Note_on_c, 0, 79, 62
2, 103080, Note_on_c, 0, 79, 0
2, 103080, Note_on_c, 0, 78, 58
2, 103200, Note_on_c, 0, 78, 0
2, 103200, Note_on_c, 0, 76, 56
2, 103320, Note_on_c, 0, 76, 0
2, 103320, Note_on_c, 0, 74, 56
2, 103440, Note_on_c, 0, 74, 0
2, 103440, Note_on_c, 0, 72, 56
2, 103560, Note_on_c, 0, 72, 0
2, 103560, Note_on_c, 0, 71, 56
2, 103680, Note_on_c, 0, 71, 0
2, 103680, Note_on_c, 0, 69, 62
2, 103800, Note_on_c, 0, 69, 0
2, 103920, Note_on_c, 0, 69, 58
2, 104040, Note_on_c, 0, 69, 0
2, 104160, Note_on_c, 0, 66, 52
2, 104160, Note_on_c, 0, 74, 62
2, 104280, Note_on_c, 0, 74, 0
2, 104280, Note_on_c, 0, 66, 0
2, 104400, Note_on_c, 0, 74, 57
2, 104400, Note_on_c, 0, 66, 48
2, 104520, Note_on_c, 0, 66, 0
2, 104520, Note_on_c, 0, 74, 0
2, 104640, Note_on_c, 0, 69, 52
2, 104640, Note_on_c, 0, 72, 62
2, 105120, Note_on_c, 0, 72, 0
2, 105120, Note_on_c, 0, 69, 0
2, 105120, Note_on_c, 0, 71, 59
2, 105120, Note_on_c, 0, 67, 50
2, 105360, Note_on_c, 0, 67, 0
2, 105360, Note_on_c, 0, 71, 0
2, 105360, Note_on_c, 0, 83, 50
2, 105480, Note_on_c, 0, 81, 46
2, 105492, Note_on_c, 0, 83, 0
2, 105600, Note_on_c, 0, 79, 50
2, 105612, Note_on_c, 0, 81, 0
2, 105720, Note_on_c, 0, 78, 45
2, 105732, Note_on_c, 0, 79, 0
2, 105840, Note_on_c, 0, 76, 45
2, 105852, Note_on_c, 0, 78, 0
2, 105960, Note_on_c, 0, 75, 45
2, 105972, Note_on_c, 0, 76, 0
2, 106080, Note_on_c, 0, 76, 50
2, 106092, Note_on_c, 0, 75, 0
2, 106200, Note_on_c, 0, 78, 46
2, 106212, Note_on_c, 0, 76, 0
2, 106320, Note_on_c, 0, 79, 46
2, 106332, Note_on_c, 0, 78, 0
2, 106440, Note_on_c, 0, 76, 46
2, 106452, Note_on_c, 0, 79, 0
2, 106560, Note_on_c, 0, 74, 50
2, 106572, Note_on_c, 0, 76, 0
2, 106680, Note_on_c, 0, 72, 46
2, 106692, Note_on_c, 0, 74, 0
2, 106800, Note_on_c, 0, 71, 46
2, 106812, Note_on_c, 0, 72, 0
2, 106920, Note_on_c, 0, 72, 46
2, 106932, Note_on_c, 0, 71, 0
2, 107040, Note_on_c, 0, 74, 50
2, 107052, Note_on_c, 0, 72, 0
2, 107160, Note_on_c, 0, 74, 0
2, 107280, Note_on_c, 0, 83, 50
2, 107400, Note_on_c, 0, 81, 46
2, 107412, Note_on_c, 0, 83, 0
2, 107520, Note_on_c, 0, 79, 50
2, 107532, Note_on_c, 0, 81, 0
2, 107640, Note_on_c, 0, 78, 45
2, 107652, Note_on_c, 0, 79, 0
2, 107760, Note_on_c, 0, 76, 45
2, 107772, Note_on_c, 0, 78, 0
2, 107880, Note_on_c, 0, 75, 45
2, 107892, Note_on_c, 0, 76, 0
2, 108000, Note_on_c, 0, 76, 50
2, 108012, Note_on_c, 0, 75, 0
2, 108120, Note_on_c, 0, 78, 48
2, 108132, Note_on_c, 0, 76, 0
2, 108240, Note_on_c, 0, 79, 50
2, 108252, Note_on_c, 0, 78, 0
2, 108360, Note_on_c, 0, 76, 55
2, 108372, Note_on_c, 0, 79, 0
2, 108480, Note_on_c, 0, 74, 62
2, 108492, Note_on_c, 0, 76, 0
2, 108600, Note_on_c, 0, 74, 0
2, 108600, Note_on_c, 0, 79, 53
2, 108720, Note_on_c, 0, 79, 0
2, 108720, Note_on_c, 0, 83, 56
2, 108840, Note_on_c, 0, 83, 0
2, 108840, Note_on_c, 0, 86, 54
2, 108960, Note_on_c, 0, 86, 0
2, 108960, Note_on_c, 0, 84, 62
2, 109080, Note_on_c, 0, 84, 0
2, 109080, Note_on_c, 0, 83, 53
2, 109200, Note_on_c, 0, 83, 0
2, 109200, Note_on_c, 0, 81, 56
2, 109320, Note_on_c, 0, 81, 0
2, 109320, Note_on_c, 0, 79, 59
2, 109440, Note_on_c, 0, 79, 0
2, 109440, Note_on_c, 0, 78, 67
2, 109560, Note_on_c, 0, 78, 0
2, 109560, Note_on_c, 0, 76, 55
2, 109680, Note_on_c, 0, 76, 0
2, 109680, Note_on_c, 0, 74, 58
2, 109800, Note_on_c, 0, 74, 0
2, 109800, Note_on_c, 0, 72, 55
2, 109920, Note_on_c, 0, 72, 0
2, 109920, Note_on_c, 0, 71, 66
2, 110040, Note_on_c, 0, 71, 0
2, 110040, Note_on_c, 0, 69, 53
2, 110160, Note_on_c, 0, 69, 0
2, 110160, Note_on_c, 0, 67, 58
2, 110280, Note_on_c, 0, 67, 0
2, 110280, Note_on_c, 0, 66, 56
2, 110400, Note_on_c, 0, 66, 0
2, 110400, Note_on_c, 0, 67, 67
2, 110520, Note_on_c, 0, 67, 0
2, 110520, Note_on_c, 0, 71, 58
2, 110640, Note_on_c, 0, 71, 0
2, 110640, Note_on_c, 0, 74, 64
2, 110760, Note_on_c, 0, 74, 0
2, 110760, Note_on_c, 0, 71, 58
2, 110880, Note_on_c, 0, 71, 0
2, 110880, Note_on_c, 0, 74, 67
2, 111000, Note_on_c, 0, 74, 0
2, 111000, Note_on_c, 0, 71, 59
2, 111120, Note_on_c, 0, 71, 0
2, 111120, Note_on_c, 0, 72, 64
2, 111240, Note_on_c, 0, 72, 0
2, 111240, Note_on_c, 0, 69, 58
2, 111360, Note_on_c, 0, 69, 0
2, 111360, Note_on_c, 0, 67, 67
2, 111480, Note_on_c, 0, 67, 0
2, 111480, Note_on_c, 0, 71, 59
2, 111600, Note_on_c, 0, 71, 0
2, 111600, Note_on_c, 0, 74, 63
2, 111720, Note_on_c, 0, 74, 0
2, 111720, Note_on_c, 0, 71, 58
2, 111840, Note_on_c, 0, 71, 0
2, 111840, Note_on_c, 0, 74, 67
2, 111960, Note_on_c, 0, 74, 0
2, 111960, Note_on_c, 0, 71, 59
2, 112080, Note_on_c, 0, 71, 0
2, 112080, Note_on_c, 0, 72, 65
2, 112200, Note_on_c, 0, 72, 0
2, 112200, Note_on_c, 0, 69, 59
2, 112320, Note_on_c, 0, 69, 0
2, 112320, Note_on_c, 0, 67, 70
2, 112560, Note_on_c, 0, 67, 0
2, 112800, Note_on_c, 0, 71, 59
2, 112800, Note_on_c, 0, 74, 59
2, 112800, Note_on_c, 0, 79, 70
2, 113040, Note_on_c, 0, 79, 0
2, 113040, Note_on_c, 0, 74, 0
2, 113040, Note_on_c, 0, 71, 0
2, 113280, Note_on_c, 0, 71, 59
2, 113280, Note_on_c, 0, 74, 59
2, 113280, Note_on_c, 0, 79, 70
2, 113760, Note_on_c, 0, 79, 0
2, 113760, Note_on_c, 0, 74, 0
2, 113760, Note_on_c, 0, 71, 0
2, 113760, End_track
3, 0, Start_track
3, 0, Title_t, "Piano left"
3, 0, Program_c, 0, 0
3, 960, Note_on_c, 0, 55, 35
3, 1200, Note_on_c, 0, 55, 0
3, 1200, Note_on_c, 0, 59, 28
3, 1440, Note_on_c, 0, 59, 0
3, 1440, Note_on_c, 0, 62, 28
3, 1680, Note_on_c, 0, 62, 0
3, 1680, Note_on_c, 0, 59, 32
3, 1920, Note_on_c, 0, 59, 0
3, 1920, Note_on_c, 0, 55, 41
3, 2160, Note_on_c, 0, 55, 0
3, 2160, Note_on_c, 0, 59, 33
3, 2400, Note_on_c, 0, 59, 0
3, 2400, Note_on_c, 0, 62, 31
3, 2640, Note_on_c, 0, 62, 0
3, 2640, Note_on_c, 0, 59, 31
3, 2880, Note_on_c, 0, 59, 0
3, 2880, Note_on_c, 0, 54, 35
3, 3120, Note_on_c, 0, 54, 0
3, 3120, Note_on_c, 0, 57, 31
3, 3360, Note_on_c, 0, 57, 0
3, 3360, Note_on_c, 0, 62, 35
3, 3600, Note_on_c, 0, 62, 0
3, 3600, Note_on_c, 0, 57, 30
3, 3840, Note_on_c, 0, 57, 0
3, 3840, Note_on_c, 0, 55, 35
3, 4080, Note_on_c, 0, 55, 0
3, 4080, Note_on_c, 0, 59, 30
3, 4320, Note_on_c, 0, 59, 0
3, 4320, Note_on_c, 0, 62, 30
3, 4560, Note_on_c, 0, 62, 0
3, 4560, Note_on_c, 0, 59, 30
3, 4800, Note_on_c, 0, 59, 0
3, 4800, Note_on_c, 0, 55, 35
3, 5040, Note_on_c, 0, 55, 0
3, 5040, Note_on_c, 0, 59, 28
3, 5280, Note_on_c, 0, 59, 0
3, 5280, Note_on_c, 0, 62, 34
3, 5520, Note_on_c, 0, 62, 0
3, 5520, Note_on_c, 0, 59, 39
3, 5760, Note_on_c, 0, 59, 0
3, 5760, Note_on_c, 0, 55, 42
3, 6000, Note_on_c, 0, 55, 0
3, 6000, Note_on_c, 0, 59, 38
3, 6240, Note_on_c, 0, 59, 0
3, 6240, Note_on_c, 0, 64, 31
3, 6480, Note_on_c, 0, 64, 0
3, 6720, Note_on_c, 0, 66, 35
3, 6720, Note_on_c, 0, 57, 35
3, 6840, Note_on_c, 0, 57, 0
3, 6840, Note_on_c, 0, 66, 0
3, 6960, Note_on_c, 0, 66, 31
3, 6960, Note_on_c, 0, 57, 31
3, 7080, Note_on_c, 0, 57, 0
3, 7080, Note_on_c, 0, 66, 0
3, 7200, Note_on_c, 0, 57, 35
3, 7200, Note_on_c, 0, 64, 35
3, 7320, Note_on_c, 0, 64, 0
3, 7320, Note_on_c, 0, 57, 0
3, 7440, Note_on_c, 0, 64, 30
3, 7440, Note_on_c, 0, 57, 30
3, 7560, Note_on_c, 0, 57, 0
3, 7560, Note_on_c, 0, 64, 0
3, 7680, Note_on_c, 0, 50, 35
3, 7800, Note_on_c, 0, 50, 0
3, 7920, Note_on_c, 0, 62, 30
3, 8040, Note_on_c, 0, 62, 0
3, 8160, Note_on_c, 0, 50, 35
3, 8280, Note_on_c, 0, 50, 0
3, 8400, Note_on_c, 0, 62, 35
3, 8520, Note_on_c, 0, 62, 0
3, 8640, Note_on_c, 0, 50, 35
3, 8760, Note_on_c, 0, 50, 0
3, 8880, Note_on_c, 0, 62, 32
3, 9000, Note_on_c, 0, 62, 0
3, 9120, Note_on_c, 0, 50, 35
3, 9240, Note_on_c, 0, 50, 0
3, 9360, Note_on_c, 0, 62, 31
3, 9480, Note_on_c, 0, 62, 0
3, 9600, Note_on_c, 0, 50, 35
3, 9720, Note_on_c, 0, 52, 30
3, 9732, Note_on_c, 0, 50, 0
3, 9840, Note_on_c, 0, 54, 31
3, 9852, Note_on_c, 0, 52, 0
3, 9960, Note_on_c, 0, 55, 31
3, 9972, Note_on_c, 0, 54, 0
3, 10080, Note_on_c, 0, 57, 32
3, 10092, Note_on_c, 0, 55, 0
3, 10200, Note_on_c, 0, 59, 34
3, 10212, Note_on_c, 0, 57, 0
3, 10320, Note_on_c, 0, 61, 34
3, 10332, Note_on_c, 0, 59, 0
3, 10440, Note_on_c, 0, 62, 36
3, 10452, Note_on_c, 0, 61, 0
3, 10560, Note_on_c, 0, 62, 0
3, 10560, Note_on_c, 0, 50, 35
3, 10680, Note_on_c, 0, 50, 0
3, 10800, Note_on_c, 0, 62, 32
3, 10920, Note_on_c, 0, 62, 0
3, 11040, Note_on_c, 0, 50, 42
3, 11160, Note_on_c, 0, 50, 0
3, 11280, Note_on_c, 0, 62, 37
3, 11400, Note_on_c, 0, 62, 0
3, 11520, Note_on_c, 0, 50, 48
3, 11640, Note_on_c, 0, 50, 0
3, 11640, Note_on_c, 0, 54, 41
3, 11760, Note_on_c, 0, 54, 0
3, 11760, Note_on_c, 0, 57, 47
3, 11880, Note_on_c, 0, 57, 0
3, 11880, Note_on_c, 0, 62, 41
3, 12000, Note_on_c, 0, 62, 0
3, 12480, Note_on_c, 0, 55, 40
3, 12480, Note_on_c, 0, 59, 48
3, 12600, Note_on_c, 0, 59, 0
3, 12600, Note_on_c, 0, 55, 0
3, 12720, Note_on_c, 0, 59, 43
3, 12720, Note_on_c, 0, 55, 36
3, 12840, Note_on_c, 0, 55, 0
3, 12840, Note_on_c, 0, 59, 0
3, 12960, Note_on_c, 0, 57, 48
3, 13080, Note_on_c, 0, 57, 0
3, 13200, Note_on_c, 0, 57, 43
3, 13320, Note_on_c, 0, 57, 0
3, 13440, Note_on_c, 0, 50, 35
3, 13560, Note_on_c, 0, 50, 0
3, 13680, Note_on_c, 0, 62, 32
3, 13800, Note_on_c, 0, 62, 0
3, 13920, Note_on_c, 0, 50, 35
3, 14040, Note_on_c, 0, 50, 0
3, 14160, Note_on_c, 0, 62, 35
3, 14280, Note_on_c, 0, 62, 0
3, 14400, Note_on_c, 0, 50, 35
3, 14520, Note_on_c, 0, 50, 0
3, 14640, Note_on_c, 0, 62, 32
3, 14760, Note_on_c, 0, 62, 0
3, 14880, Note_on_c, 0, 50, 35
3, 15000, Note_on_c, 0, 50, 0
3, 15120, Note_on_c, 0, 62, 31
3, 15240, Note_on_c, 0, 62, 0
3, 15360, Note_on_c, 0, 50, 35
3, 15480, Note_on_c, 0, 50, 0
3, 15600, Note_on_c, 0, 62, 32
3, 15720, Note_on_c, 0, 62, 0
3, 15840, Note_on_c, 0, 50, 35
3, 15960, Note_on_c, 0, 50, 0
3, 16080, Note_on_c, 0, 62, 31
3, 16200, Note_on_c, 0, 62, 0
3, 16320, Note_on_c, 0, 50, 35
3, 16440, Note_on_c, 0, 50, 0
3, 16560, Note_on_c, 0, 62, 32
3, 16680, Note_on_c, 0, 62, 0
3, 16800, Note_on_c, 0, 50, 42
3, 16920, Note_on_c, 0, 50, 0
3, 17040, Note_on_c, 0, 62, 37
3, 17160, Note_on_c, 0, 62, 0
3, 17280, Note_on_c, 0, 50, 48
3, 17400, Note_on_c, 0, 50, 0
3, 17400, Note_on_c, 0, 54, 41
3, 17520, Note_on_c, 0, 54, 0
3, 17520, Note_on_c, 0, 57, 47
3, 17640, Note_on_c, 0, 57, 0
3, 17640, Note_on_c, 0, 62, 41
3, 17760, Note_on_c, 0, 62, 0
3, 18240, Note_on_c, 0, 55, 49
3, 18480, Note_on_c, 0, 55, 0
3, 18480, Note_on_c, 0, 52, 40
3, 18720, Note_on_c, 0, 52, 0
3, 18720, Note_on_c, 0, 57, 47
3, 18960, Note_on_c, 0, 57, 0
3, 18960, Note_on_c, 0, 45, 42
3, 19200, Note_on_c, 0, 45, 0
3, 19200, Note_on_c, 0, 50, 49
3, 19440, Note_on_c, 0, 50, 0
3, 19920, Note_on_c, 0, 45, 49
3, 20040, Note_on_c, 0, 45, 0
3, 20160, Note_on_c, 0, 50, 57
3, 20280, Note_on_c, 0, 50, 0
3, 20880, Note_on_c, 0, 45, 49
3, 21000, Note_on_c, 0, 45, 0
3, 21120, Note_on_c, 0, 50, 56
3, 21240, Note_on_c, 0, 50, 0
3, 21360, Note_on_c, 0, 38, 49
3, 21480, Note_on_c, 0, 38, 0
3, 21600, Note_on_c, 0, 38, 54
3, 21720, Note_on_c, 0, 38, 0
3, 22080, Note_on_c, 0, 55, 35
3, 22320, Note_on_c, 0, 55, 0
3, 22320, Note_on_c, 0, 59, 28
3, 22560, Note_on_c, 0, 59, 0
3, 22560, Note_on_c, 0, 62, 28
3, 22800, Note_on_c, 0, 62, 0
3, 22800, Note_on_c, 0, 59, 32
3, 23040, Note_on_c, 0, 59, 0
3, 23040, Note_on_c, 0, 55, 41
3, 23280, Note_on_c, 0, 55, 0
3, 23280, Note_on_c, 0, 59, 33
3, 23520, Note_on_c, 0, 59, 0
3, 23520, Note_on_c, 0, 62, 31
3, 23760, Note_on_c, 0, 62, 0
3, 23760, Note_on_c, 0, 59, 31
3, 24000, Note_on_c, 0, 59, 0
3, 24000, Note_on_c, 0, 54, 35
3, 24240, Note_on_c, 0, 54, 0
3, 24240, Note_on_c, 0, 57, 31
3, 24480, Note_on_c, 0, 57, 0
3, 24480, Note_on_c, 0, 62, 35
3, 24720, Note_on_c, 0, 62, 0
3, 24720, Note_on_c, 0, 57, 30
3, 24960, Note_on_c, 0, 57, 0
3, 24960, Note_on_c, 0, 55, 35
3, 25200, Note_on_c, 0, 55, 0
3, 25200, Note_on_c, 0, 59, 30
3, 25440, Note_on_c, 0, 59, 0
3, 25440, Note_on_c, 0, 62, 30
3, 25680, Note_on_c, 0, 62, 0
3, 25680, Note_on_c, 0, 59, 30
3, 25920, Note_on_c, 0, 59, 0
3, 25920, Note_on_c, 0, 55, 35
3, 26160, Note_on_c, 0, 55, 0
3, 26160, Note_on_c, 0, 59, 28
3, 26400, Note_on_c, 0, 59, 0
3, 26400, Note_on_c, 0, 62, 34
3, 26640, Note_on_c, 0, 62, 0
3, 26640, Note_on_c, 0, 59, 39
3, 26880, Note_on_c, 0, 59, 0
3, 26880, Note_on_c, 0, 55, 42
3, 27120, Note_on_c, 0, 55, 0
3, 27120, Note_on_c, 0, 59, 38
3, 27360, Note_on_c, 0, 59, 0
3, 27360, Note_on_c, 0, 64, 31
3, 27600, Note_on_c, 0, 64, 0
3, 27840, Note_on_c, 0, 66, 35
3, 27840, Note_on_c, 0, 57, 35
3, 27960, Note_on_c, 0, 57, 0
3, 27960, Note_on_c, 0, 66, 0
3, 28080, Note_on_c, 0, 66, 31
3, 28080, Note_on_c, 0, 57, 31
3, 28200, Note_on_c, 0, 57, 0
3, 28200, Note_on_c, 0, 66, 0
3, 28320, Note_on_c, 0, 57, 35
3, 28320, Note_on_c, 0, 64, 35
3, 28440, Note_on_c, 0, 64, 0
3, 28440, Note_on_c, 0, 57, 0
3, 28560, Note_on_c, 0, 64, 30
3, 28560, Note_on_c, 0, 57, 30
3, 28680, Note_on_c, 0, 57, 0
3, 28680, Note_on_c, 0, 64, 0
3, 28800, Note_on_c, 0, 50, 35
3, 28920, Note_on_c, 0, 50, 0
3, 29040, Note_on_c, 0, 62, 30
3, 29160, Note_on_c, 0, 62, 0
3, 29280, Note_on_c, 0, 50, 35
3, 29400, Note_on_c, 0, 50, 0
3, 29520, Note_on_c, 0, 62, 35
3, 29640, Note_on_c, 0, 62, 0
3, 29760, Note_on_c, 0, 50, 35
3, 29880, Note_on_c, 0, 50, 0
3, 30000, Note_on_c, 0, 62, 32
3, 30120, Note_on_c, 0, 62, 0
3, 30240, Note_on_c, 0, 50, 35
3, 30360, Note_on_c, 0, 50, 0
3, 30480, Note_on_c, 0, 62, 31
3, 30600, Note_on_c, 0, 62, 0
3, 30720, Note_on_c, 0, 50, 35
3, 30840, Note_on_c, 0, 52, 30
3, 30852, Note_on_c, 0, 50, 0
3, 30960, Note_on_c, 0, 54, 31
3, 30972, Note_on_c, 0, 52, 0
3, 31080, Note_on_c, 0, 55, 31
3, 31092, Note_on_c, 0, 54, 0
3, 31200, Note_on_c, 0, 57, 32
3, 31212, Note_on_c, 0, 55, 0
3, 31320, Note_on_c, 0, 59, 34
3, 31332, Note_on_c, 0, 57, 0
3, 31440, Note_on_c, 0, 61, 34
3, 31452, Note_on_c, 0, 59, 0
3, 31560, Note_on_c, 0, 62, 36
3, 31572, Note_on_c, 0, 61, 0
3, 31680, Note_on_c, 0, 62, 0
3, 31680, Note_on_c, 0, 50, 35
3, 31800, Note_on_c, 0, 50, 0
3, 31920, Note_on_c, 0, 62, 32
3, 32040, Note_on_c, 0, 62, 0
3, 32160, Note_on_c, 0, 50, 42
3, 32280, Note_on_c, 0, 50, 0
3, 32400, Note_on_c, 0, 62, 37
3, 32520, Note_on_c, 0, 62, 0
3, 32640, Note_on_c, 0, 50, 48
3, 32760, Note_on_c, 0, 50, 0
3, 32760, Note_on_c, 0, 54, 41
3, 32880, Note_on_c, 0, 54, 0
3, 32880, Note_on_c, 0, 57, 47
3, 33000, Note_on_c, 0, 57, 0
3, 33000, Note_on_c, 0, 62, 41
3, 33120, Note_on_c, 0, 62, 0
3, 33600, Note_on_c, 0, 55, 40
3, 33600, Note_on_c, 0, 59, 48
3, 33720, Note_on_c, 0, 59, 0
3, 33720, Note_on_c, 0, 55, 0
3, 33840, Note_on_c, 0, 59, 43
3, 33840, Note_on_c, 0, 55, 36
3, 33960, Note_on_c, 0, 55, 0
3, 33960, Note_on_c, 0, 59, 0
3, 34080, Note_on_c, 0, 57, 48
3, 34200, Note_on_c, 0, 57, 0
3, 34320, Note_on_c, 0, 57, 43
3, 34440, Note_on_c, 0, 57, 0
3, 34560, Note_on_c, 0, 50, 35
3, 34680, Note_on_c, 0, 50, 0
3, 34800, Note_on_c, 0, 62, 32
3, 34920, Note_on_c, 0, 62, 0
3, 35040, Note_on_c, 0, 50, 35
3, 35160, Note_on_c, 0, 50, 0
3, 35280, Note_on_c, 0, 62, 35
3, 35400, Note_on_c, 0, 62, 0
3, 35520, Note_on_c, 0, 50, 35
3, 35640, Note_on_c, 0, 50, 0
3, 35760, Note_on_c, 0, 62, 32
3, 35880, Note_on_c, 0, 62, 0
3, 36000, Note_on_c, 0, 50, 35
3, 36120, Note_on_c, 0, 50, 0
3, 36240, Note_on_c, 0, 62, 31
3, 36360, Note_on_c, 0, 62, 0
3, 36480, Note_on_c, 0, 50, 35
3, 36600, Note_on_c, 0, 50, 0
3, 36720, Note_on_c, 0, 62, 32
3, 36840, Note_on_c, 0, 62, 0
3, 36960, Note_on_c, 0, 50, 35
3, 37080, Note_on_c, 0, 50, 0
3, 37200, Note_on_c, 0, 62, 31
3, 37320, Note_on_c, 0, 62, 0
3, 37440, Note_on_c, 0, 50, 35
3, 37560, Note_on_c, 0, 50, 0
3, 37680, Note_on_c, 0, 62, 32
3, 37800, Note_on_c, 0, 62, 0
3, 37920, Note_on_c, 0, 50, 42
3, 38040, Note_on_c, 0, 50, 0
3, 38160, Note_on_c, 0, 62, 37
3, 38280, Note_on_c, 0, 62, 0
3, 38400, Note_on_c, 0, 50, 48
3, 38520, Note_on_c, 0, 50, 0
3, 38520, Note_on_c, 0, 54, 41
3, 38640, Note_on_c, 0, 54, 0
3, 38640, Note_on_c, 0, 57, 47
3, 38760, Note_on_c, 0, 57, 0
3, 38760, Note_on_c, 0, 62, 41
3, 38880, Note_on_c, 0, 62, 0
3, 39360, Note_on_c, 0, 55, 49
3, 39600, Note_on_c, 0, 55, 0
3, 39600, Note_on_c, 0, 52, 40
3, 39840, Note_on_c, 0, 52, 0
3, 39840, Note_on_c, 0, 57, 47
3, 40080, Note_on_c, 0, 57, 0
3, 40080, Note_on_c, 0, 45, 42
3, 40320, Note_on_c, 0, 45, 0
3, 40320, Note_on_c, 0, 50, 49
3, 40560, Note_on_c, 0, 50, 0
3, 41040, Note_on_c, 0, 45, 49
3, 41160, Note_on_c, 0, 45, 0
3, 41280, Note_on_c, 0, 50, 57
3, 41400, Note_on_c, 0, 50, 0
3, 42000, Note_on_c, 0, 45, 49
3, 42120, Note_on_c, 0, 45, 0
3, 42240, Note_on_c, 0, 50, 56
3, 42360, Note_on_c, 0, 50, 0
3, 42480, Note_on_c, 0, 38, 49
3, 42600, Note_on_c, 0, 38, 0
3, 42720, Note_on_c, 0, 38, 54
3, 42840, Note_on_c, 0, 38, 0
3, 43920, Note_on_c, 0, 56, 32
3, 44160, Note_on_c, 0, 56, 0
3, 44160, Note_on_c, 0, 56, 41
3, 44400, Note_on_c, 0, 56, 0
3, 44400, Note_on_c, 0, 62, 33
3, 44400, Note_on_c, 0, 59, 33
3, 44640, Note_on_c, 0, 59, 0
3, 44640, Note_on_c, 0, 62, 0
3, 44640, Note_on_c, 0, 59, 31
3, 44640, Note_on_c, 0, 62, 31
3, 44880, Note_on_c, 0, 62, 0
3, 44880, Note_on_c, 0, 59, 0
3, 44880, Note_on_c, 0, 56, 31
3, 45120, Note_on_c, 0, 56, 0
3, 45120, Note_on_c, 0, 57, 35
3, 45240, Note_on_c, 0, 57, 0
3, 45600, Note_on_c, 0, 52, 35
3, 45720, Note_on_c, 0, 52, 0
3, 46080, Note_on_c, 0, 45, 35
3, 46320, Note_on_c, 0, 45, 0
3, 46800, Note_on_c, 0, 56, 35
3, 46920, Note_on_c, 0, 56, 0
3, 47040, Note_on_c, 0, 57, 35
3, 47280, Note_on_c, 0, 57, 0
3, 47760, Note_on_c, 0, 56, 35
3, 47880, Note_on_c, 0, 56, 0
3, 48000, Note_on_c, 0, 57, 42
3, 48240, Note_on_c, 0, 57, 0
3, 48240, Note_on_c, 0, 45, 35
3, 48480, Note_on_c, 0, 45, 0
3, 48480, Note_on_c, 0, 57, 39
3, 48720, Note_on_c, 0, 57, 0
3, 48720, Note_on_c, 0, 55, 48
3, 48960, Note_on_c, 0, 55, 0
3, 48960, Note_on_c, 0, 54, 52
3, 49200, Note_on_c, 0, 54, 0
3, 49200, Note_on_c, 0, 57, 35
3, 49200, Note_on_c, 0, 60, 42
3, 49440, Note_on_c, 0, 60, 0
3, 49440, Note_on_c, 0, 57, 0
3, 49440, Note_on_c, 0, 57, 35
3, 49440, Note_on_c, 0, 60, 42
3, 49680, Note_on_c, 0, 60, 0
3, 49680, Note_on_c, 0, 57, 0
3, 49680, Note_on_c, 0, 54, 38
3, 49920, Note_on_c, 0, 54, 0
3, 49920, Note_on_c, 0, 55, 35
3, 50040, Note_on_c, 0, 55, 0
3, 50400, Note_on_c, 0, 50, 29
3, 50520, Note_on_c, 0, 50, 0
3, 50880, Note_on_c, 0, 52, 38
3, 50880, Note_on_c, 0, 40, 38
3, 51840, Note_on_c, 0, 40, 0
3, 51840, Note_on_c, 0, 52, 0
3, 51840, Note_on_c, 0, 50, 49
3, 51960, Note_on_c, 0, 50, 0
3, 52080, Note_on_c, 0, 38, 38
3, 52200, Note_on_c, 0, 38, 0
3, 52800, Note_on_c, 0, 50, 49
3, 52920, Note_on_c, 0, 50, 0
3, 53040, Note_on_c, 0, 38, 38
3, 53160, Note_on_c, 0, 38, 0
3, 53760, Note_on_c, 0, 50, 39
3, 53880, Note_on_c, 0, 50, 0
3, 54000, Note_on_c, 0, 38, 34
3, 54120, Note_on_c, 0, 38, 0
3, 54720, Note_on_c, 0, 50, 34
3, 54960, Note_on_c, 0, 50, 0
3, 54960, Note_on_c, 0, 38, 28
3, 55200, Note_on_c, 0, 38, 0
3, 55200, Note_on_c, 0, 50, 37
3, 55440, Note_on_c, 0, 50, 0
3, 55440, Note_on_c, 0, 38, 31
3, 55680, Note_on_c, 0, 38, 0
3, 55680, Note_on_c, 0, 50, 30
3, 55920, Note_on_c, 0, 50, 0
3, 56640, Note_on_c, 0, 55, 35
3, 56880, Note_on_c, 0, 55, 0
3, 56880, Note_on_c, 0, 59, 28
3, 57120, Note_on_c, 0, 59, 0
3, 57120, Note_on_c, 0, 62, 28
3, 57360, Note_on_c, 0, 62, 0
3, 57360, Note_on_c, 0, 59, 32
3, 57600, Note_on_c, 0, 59, 0
3, 57600, Note_on_c, 0, 55, 41
3, 57840, Note_on_c, 0, 55, 0
3, 57840, Note_on_c, 0, 59, 33
3, 58080, Note_on_c, 0, 59, 0
3, 58080, Note_on_c, 0, 62, 31
3, 58320, Note_on_c, 0, 62, 0
3, 58320, Note_on_c, 0, 59, 31
3, 58560, Note_on_c, 0, 59, 0
3, 58560, Note_on_c, 0, 54, 35
3, 58800, Note_on_c, 0, 54, 0
3, 58800, Note_on_c, 0, 57, 31
3, 59040, Note_on_c, 0, 57, 0
3, 59040, Note_on_c, 0, 62, 35
3, 59280, Note_on_c, 0, 62, 0
3, 59280, Note_on_c, 0, 57, 30
3, 59520, Note_on_c, 0, 57, 0
3, 59520, Note_on_c, 0, 55, 35
3, 59760, Note_on_c, 0, 55, 0
3, 59760, Note_on_c, 0, 50, 30
3, 60000, Note_on_c, 0, 50, 0
3, 60000, Note_on_c, 0, 47, 30
3, 60240, Note_on_c, 0, 47, 0
3, 60240, Note_on_c, 0, 43, 30
3, 60480, Note_on_c, 0, 43, 0
3, 60480, Note_on_c, 0, 48, 35
3, 60720, Note_on_c, 0, 48, 0
3, 60720, Note_on_c, 0, 52, 28
3, 60960, Note_on_c, 0, 52, 0
3, 60960, Note_on_c, 0, 57, 34
3, 61200, Note_on_c, 0, 57, 0
3, 61200, Note_on_c, 0, 52, 39
3, 61440, Note_on_c, 0, 52, 0
3, 61440, Note_on_c, 0, 48, 42
3, 61680, Note_on_c, 0, 48, 0
3, 61680, Note_on_c, 0, 52, 38
3, 61920, Note_on_c, 0, 52, 0
3, 61920, Note_on_c, 0, 57, 31
3, 62160, Note_on_c, 0, 57, 0
3, 62400, Note_on_c, 0, 59, 35
3, 62400, Note_on_c, 0, 50, 35
3, 62520, Note_on_c, 0, 50, 0
3, 62520, Note_on_c, 0, 59, 0
3, 62640, Note_on_c, 0, 59, 31
3, 62640, Note_on_c, 0, 50, 31
3, 62760, Note_on_c, 0, 50, 0
3, 62760, Note_on_c, 0, 59, 0
3, 62880, Note_on_c, 0, 50, 35
3, 62880, Note_on_c, 0, 57, 35
3, 63000, Note_on_c, 0, 57, 0
3, 63000, Note_on_c, 0, 50, 0
3, 63120, Note_on_c, 0, 57, 30
3, 63120, Note_on_c, 0, 50, 30
3, 63240, Note_on_c, 0, 50, 0
3, 63240, Note_on_c, 0, 57, 0
3, 63360, Note_on_c, 0, 43, 35
3, 63480, Note_on_c, 0, 43, 0
3, 63600, Note_on_c, 0, 55, 30
3, 63720, Note_on_c, 0, 55, 0
3, 63840, Note_on_c, 0, 43, 35
3, 63960, Note_on_c, 0, 43, 0
3, 64080, Note_on_c, 0, 55, 35
3, 64200, Note_on_c, 0, 55, 0
3, 64320, Note_on_c, 0, 43, 35
3, 64440, Note_on_c, 0, 43, 0
3, 64560, Note_on_c, 0, 55, 32
3, 64680, Note_on_c, 0, 55, 0
3, 64800, Note_on_c, 0, 43, 35
3, 64920, Note_on_c, 0, 43, 0
3, 65040, Note_on_c, 0, 55, 31
3, 65160, Note_on_c, 0, 55, 0
3, 65280, Note_on_c, 0, 43, 35
3, 65400, Note_on_c, 0, 45, 30
3, 65412, Note_on_c, 0, 43, 0
3, 65520, Note_on_c, 0, 47, 31
3, 65532, Note_on_c, 0, 45, 0
3, 65640, Note_on_c, 0, 48, 31
3, 65652, Note_on_c, 0, 47, 0
3, 65760, Note_on_c, 0, 50, 32
3, 65772, Note_on_c, 0, 48, 0
3, 65880, Note_on_c, 0, 52, 34
3, 65892, Note_on_c, 0, 50, 0
3, 66000, Note_on_c, 0, 54, 34
3, 66012, Note_on_c, 0, 52, 0
3, 66120, Note_on_c, 0, 55, 36
3, 66132, Note_on_c, 0, 54, 0
3, 66240, Note_on_c, 0, 55, 0
3, 66240, Note_on_c, 0, 43, 35
3, 66360, Note_on_c, 0, 43, 0
3, 66480, Note_on_c, 0, 55, 32
3, 66600, Note_on_c, 0, 55, 0
3, 66720, Note_on_c, 0, 43, 42
3, 66840, Note_on_c, 0, 43, 0
3, 66960, Note_on_c, 0, 55, 37
3, 67080, Note_on_c, 0, 55, 0
3, 67200, Note_on_c, 0, 43, 48
3, 67320, Note_on_c, 0, 43, 0
3, 67440, Note_on_c, 0, 47, 42
3, 67680, Note_on_c, 0, 47, 0
3, 67680, Note_on_c, 0, 50, 48
3, 67920, Note_on_c, 0, 50, 0
3, 67920, Note_on_c, 0, 55, 43
3, 68160, Note_on_c, 0, 55, 0
3, 68160, Note_on_c, 0, 48, 48
3, 68280, Note_on_c, 0, 48, 0
3, 68400, Note_on_c, 0, 48, 43
3, 68520, Note_on_c, 0, 48, 0
3, 68640, Note_on_c, 0, 50, 48
3, 68760, Note_on_c, 0, 50, 0
3, 68880, Note_on_c, 0, 50, 43
3, 69000, Note_on_c, 0, 50, 0
3, 69120, Note_on_c, 0, 43, 35
3, 69240, Note_on_c, 0, 43, 0
3, 69360, Note_on_c, 0, 55, 32
3, 69480, Note_on_c, 0, 55, 0
3, 69600, Note_on_c, 0, 43, 35
3, 69720, Note_on_c, 0, 43, 0
3, 69840, Note_on_c, 0, 55, 35
3, 69960, Note_on_c, 0, 55, 0
3, 70080, Note_on_c, 0, 43, 35
3, 70200, Note_on_c, 0, 43, 0
3, 70320, Note_on_c, 0, 55, 32
3, 70440, Note_on_c, 0, 55, 0
3, 70560, Note_on_c, 0, 43, 35
3, 70680, Note_on_c, 0, 43, 0
3, 70800, Note_on_c, 0, 55, 31
3, 70920, Note_on_c, 0, 55, 0
3, 71040, Note_on_c, 0, 43, 35
3, 71160, Note_on_c, 0, 43, 0
3, 71280, Note_on_c, 0, 55, 32
3, 71400, Note_on_c, 0, 55, 0
3, 71520, Note_on_c, 0, 43, 35
3, 71640, Note_on_c, 0, 43, 0
3, 71760, Note_on_c, 0, 55, 31
3, 71880, Note_on_c, 0, 55, 0
3, 72000, Note_on_c, 0, 43, 35
3, 72120, Note_on_c, 0, 43, 0
3, 72240, Note_on_c, 0, 55, 32
3, 72360, Note_on_c, 0, 55, 0
3, 72480, Note_on_c, 0, 43, 42
3, 72600, Note_on_c, 0, 43, 0
3, 72720, Note_on_c, 0, 55, 37
3, 72840, Note_on_c, 0, 55, 0
3, 72960, Note_on_c, 0, 43, 48
3, 73200, Note_on_c, 0, 43, 0
3, 73200, Note_on_c, 0, 55, 41
3, 73440, Note_on_c, 0, 55, 0
3, 73440, Note_on_c, 0, 50, 41
3, 73680, Note_on_c, 0, 50, 0
3, 73680, Note_on_c, 0, 47, 41
3, 73920, Note_on_c, 0, 47, 0
3, 73920, Note_on_c, 0, 48, 49
3, 74160, Note_on_c, 0, 48, 0
3, 74160, Note_on_c, 0, 45, 40
3, 74400, Note_on_c, 0, 45, 0
3, 74400, Note_on_c, 0, 50, 47
3, 74640, Note_on_c, 0, 50, 0
3, 74640, Note_on_c, 0, 38, 42
3, 74880, Note_on_c, 0, 38, 0
3, 74880, Note_on_c, 0, 43, 49
3, 75120, Note_on_c, 0, 43, 0
3, 75600, Note_on_c, 0, 50, 49
3, 75720, Note_on_c, 0, 50, 0
3, 75840, Note_on_c, 0, 55, 57
3, 75960, Note_on_c, 0, 55, 0
3, 76560, Note_on_c, 0, 50, 49
3, 76680, Note_on_c, 0, 50, 0
3, 76800, Note_on_c, 0, 43, 56
3, 76920, Note_on_c, 0, 43, 0
3, 77040, Note_on_c, 0, 55, 41
3, 77280, Note_on_c, 0, 55, 0
3, 77280, Note_on_c, 0, 50, 48
3, 77520, Note_on_c, 0, 50, 0
3, 77520, Note_on_c, 0, 47, 41
3, 77760, Note_on_c, 0, 47, 0
3, 77760, Note_on_c, 0, 43, 56
3, 78240, Note_on_c, 0, 43, 0
3, 79440, Note_on_c, 0, 56, 32
3, 79680, Note_on_c, 0, 56, 0
3, 79680, Note_on_c, 0, 56, 41
3, 79920, Note_on_c, 0, 56, 0
3, 79920, Note_on_c, 0, 62, 33
3, 79920, Note_on_c, 0, 59, 33
3, 80160, Note_on_c, 0, 59, 0
3, 80160, Note_on_c, 0, 62, 0
3, 80160, Note_on_c, 0, 59, 31
3, 80160, Note_on_c, 0, 62, 31
3, 80400, Note_on_c, 0, 62, 0
3, 80400, Note_on_c, 0, 59, 0
3, 80400, Note_on_c, 0, 56, 31
3, 80640, Note_on_c, 0, 56, 0
3, 80640, Note_on_c, 0, 57, 35
3, 80760, Note_on_c, 0, 57, 0
3, 81120, Note_on_c, 0, 52, 35
3, 81240, Note_on_c, 0, 52, 0
3, 81600, Note_on_c, 0, 45, 35
3, 81840, Note_on_c, 0, 45, 0
3, 82320, Note_on_c, 0, 56, 35
3, 82440, Note_on_c, 0, 56, 0
3, 82560, Note_on_c, 0, 57, 35
3, 82800, Note_on_c, 0, 57, 0
3, 83280, Note_on_c, 0, 56, 35
3, 83400, Note_on_c, 0, 56, 0
3, 83520, Note_on_c, 0, 57, 42
3, 83760, Note_on_c, 0, 57, 0
3, 83760, Note_on_c, 0, 45, 35
3, 84000, Note_on_c, 0, 45, 0
3, 84000, Note_on_c, 0, 57, 39
3, 84240, Note_on_c, 0, 57, 0
3, 84240, Note_on_c, 0, 55, 48
3, 84480, Note_on_c, 0, 55, 0
3, 84480, Note_on_c, 0, 54, 52
3, 84720, Note_on_c, 0, 54, 0
3, 84720, Note_on_c, 0, 57, 35
3, 84720, Note_on_c, 0, 60, 42
3, 84960, Note_on_c, 0, 60, 0
3, 84960, Note_on_c, 0, 57, 0
3, 84960, Note_on_c, 0, 57, 35
3, 84960, Note_on_c, 0, 60, 42
3, 85200, Note_on_c, 0, 60, 0
3, 85200, Note_on_c, 0, 57, 0
3, 85200, Note_on_c, 0, 54, 38
3, 85440, Note_on_c, 0, 54, 0
3, 85440, Note_on_c, 0, 55, 35
3, 85560, Note_on_c, 0, 55, 0
3, 85920, Note_on_c, 0, 50, 29
3, 86040, Note_on_c, 0, 50, 0
3, 86400, Note_on_c, 0, 52, 38
3, 86400, Note_on_c, 0, 40, 38
3, 87360, Note_on_c, 0, 40, 0
3, 87360, Note_on_c, 0, 52, 0
3, 87360, Note_on_c, 0, 50, 49
3, 87480, Note_on_c, 0, 50, 0
3, 87600, Note_on_c, 0, 38, 38
3, 87720, Note_on_c, 0, 38, 0
3, 88320, Note_on_c, 0, 50, 49
3, 88440, Note_on_c, 0, 50, 0
3, 88560, Note_on_c, 0, 38, 38
3, 88680, Note_on_c, 0, 38, 0
3, 89280, Note_on_c, 0, 50, 39
3, 89400, Note_on_c, 0, 50, 0
3, 89520, Note_on_c, 0, 38, 34
3, 89640, Note_on_c, 0, 38, 0
3, 90240, Note_on_c, 0, 50, 34
3, 90480, Note_on_c, 0, 50, 0
3, 90480, Note_on_c, 0, 38, 28
3, 90720, Note_on_c, 0, 38, 0
3, 90720, Note_on_c, 0, 50, 37
3, 90960, Note_on_c, 0, 50, 0
3, 90960, Note_on_c, 0, 38, 31
3, 91200, Note_on_c, 0, 38, 0
3, 91200, Note_on_c, 0, 50, 30
3, 91440, Note_on_c, 0, 50, 0
3, 92160, Note_on_c, 0, 55, 35
3, 92400, Note_on_c, 0, 55, 0
3, 92400, Note_on_c, 0, 59, 28
3, 92640, Note_on_c, 0, 59, 0
3, 92640, Note_on_c, 0, 62, 28
3, 92880, Note_on_c, 0, 62, 0
3, 92880, Note_on_c, 0, 59, 32
3, 93120, Note_on_c, 0, 59, 0
3, 93120, Note_on_c, 0, 55, 41
3, 93360, Note_on_c, 0, 55, 0
3, 93360, Note_on_c, 0, 59, 33
3, 93600, Note_on_c, 0, 59, 0
3, 93600, Note_on_c, 0, 62, 31
3, 93840, Note_on_c, 0, 62, 0
3, 93840, Note_on_c, 0, 59, 31
3, 94080, Note_on_c, 0, 59, 0
3, 94080, Note_on_c, 0, 54, 35
3, 94320, Note_on_c, 0, 54, 0
3, 94320, Note_on_c, 0, 57, 31
3, 94560, Note_on_c, 0, 57, 0
3, 94560, Note_on_c, 0, 62, 35
3, 94800, Note_on_c, 0, 62, 0
3, 94800, Note_on_c, 0, 57, 30
3, 95040, Note_on_c, 0, 57, 0
3, 95040, Note_on_c, 0, 55, 35
3, 95280, Note_on_c, 0, 55, 0
3, 95280, Note_on_c, 0, 50, 30
3, 95520, Note_on_c, 0, 50, 0
3, 95520, Note_on_c, 0, 47, 30
3, 95760, Note_on_c, 0, 47, 0
3, 95760, Note_on_c, 0, 43, 30
3, 96000, Note_on_c, 0, 43, 0
3, 96000, Note_on_c, 0, 48, 35
3, 96240, Note_on_c, 0, 48, 0
3, 96240, Note_on_c, 0, 52, 28
3, 96480, Note_on_c, 0, 52, 0
3, 96480, Note_on_c, 0, 57, 34
3, 96720, Note_on_c, 0, 57, 0
3, 96720, Note_on_c, 0, 52, 39
3, 96960, Note_on_c, 0, 52, 0
3, 96960, Note_on_c, 0, 48, 42
3, 97200, Note_on_c, 0, 48, 0
3, 97200, Note_on_c, 0, 52, 38
3, 97440, Note_on_c, 0, 52, 0
3, 97440, Note_on_c, 0, 57, 31
3, 97680, Note_on_c, 0, 57, 0
3, 97920, Note_on_c, 0, 59, 35
3, 97920, Note_on_c, 0, 50, 35
3, 98040, Note_on_c, 0, 50, 0
3, 98040, Note_on_c, 0, 59, 0
3, 98160, Note_on_c, 0, 59, 31
3, 98160, Note_on_c, 0, 50, 31
3, 98280, Note_on_c, 0, 50, 0
3, 98280, Note_on_c, 0, 59, 0
3, 98400, Note_on_c, 0, 50, 35
3, 98400, Note_on_c, 0, 57, 35
3, 98520, Note_on_c, 0, 57, 0
3, 98520, Note_on_c, 0, 50, 0
3, 98640, Note_on_c, 0, 57, 30
3, 98640, Note_on_c, 0, 50, 30
3, 98760, Note_on_c, 0, 50, 0
3, 98760, Note_on_c, 0, 57, 0
3, 98880, Note_on_c, 0, 43, 35
3, 99000, Note_on_c, 0, 43, 0
3, 99120, Note_on_c, 0, 55, 30
3, 99240, Note_on_c, 0, 55, 0
3, 99360, Note_on_c, 0, 43, 35
3, 99480, Note_on_c, 0, 43, 0
3, 99600, Note_on_c, 0, 55, 35
3, 99720, Note_on_c, 0, 55, 0
3, 99840, Note_on_c, 0, 43, 35
3, 99960, Note_on_c, 0, 43, 0
3, 100080, Note_on_c, 0, 55, 32
3, 100200, Note_on_c, 0, 55, 0
3, 100320, Note_on_c, 0, 43, 35
3, 100440, Note_on_c, 0, 43, 0
3, 100560, Note_on_c, 0, 55, 31
3, 100680, Note_on_c, 0, 55, 0
3, 100800, Note_on_c, 0, 43, 35
3, 100920, Note_on_c, 0, 45, 30
3, 100932, Note_on_c, 0, 43, 0
3, 101040, Note_on_c, 0, 47, 31
3, 101052, Note_on_c, 0, 45, 0
3, 101160, Note_on_c, 0, 48, 31
3, 101172, Note_on_c, 0, 47, 0
3, 101280, Note_on_c, 0, 50, 32
3, 101292, Note_on_c, 0, 48, 0
3, 101400, Note_on_c, 0, 52, 34
3, 101412, Note_on_c, 0, 50, 0
3, 101520, Note_on_c, 0, 54, 34
3, 101532, Note_on_c, 0, 52, 0
3, 101640, Note_on_c, 0, 55, 36
3, 101652, Note_on_c, 0, 54, 0
3, 101760, Note_on_c, 0, 55, 0
3, 101760, Note_on_c, 0, 43, 35
3, 101880, Note_on_c, 0, 43, 0
3, 102000, Note_on_c, 0, 55, 32
3, 102120, Note_on_c, 0, 55, 0
3, 102240, Note_on_c, 0, 43, 42
3, 102360, Note_on_c, 0, 43, 0
3, 102480, Note_on_c, 0, 55, 37
3, 102600, Note_on_c, 0, 55, 0
3, 102720, Note_on_c, 0, 43, 48
3, 102840, Note_on_c, 0, 43, 0
3, 102960, Note_on_c, 0, 47, 42
3, 103200, Note_on_c, 0, 47, 0
3, 103200, Note_on_c, 0, 50, 48
3, 103440, Note_on_c, 0, 50, 0
3, 103440, Note_on_c, 0, 55, 43
3, 103680, Note_on_c, 0, 55, 0
3, 103680, Note_on_c, 0, 48, 48
3, 103800, Note_on_c, 0, 48, 0
3, 103920, Note_on_c, 0, 48, 43
3, 104040, Note_on_c, 0, 48, 0
3, 104160, Note_on_c, 0, 50, 48
3, 104280, Note_on_c, 0, 50, 0
3, 104400, Note_on_c, 0, 50, 43
3, 104520, Note_on_c, 0, 50, 0
3, 104640, Note_on_c, 0, 43, 35
3, 104760, Note_on_c, 0, 43, 0
3, 104880, Note_on_c, 0, 55, 32
3, 105000, Note_on_c, 0, 55, 0
3, 105120, Note_on_c, 0, 43, 35
3, 105240, Note_on_c, 0, 43, 0
3, 105360, Note_on_c, 0, 55, 35
3, 105480, Note_on_c, 0, 55, 0
3, 105600, Note_on_c, 0, 43, 35
3, 105720, Note_on_c, 0, 43, 0
3, 105840, Note_on_c, 0, 55, 32
3, 105960, Note_on_c, 0, 55, 0
3, 106080, Note_on_c, 0, 43, 35
3, 106200, Note_on_c, 0, 43, 0
3, 106320, Note_on_c, 0, 55, 31
3, 106440, Note_on_c, 0, 55, 0
3, 106560, Note_on_c, 0, 43, 35
3, 106680, Note_on_c, 0, 43, 0
3, 106800, Note_on_c, 0, 55, 32
3, 106920, Note_on_c, 0, 55, 0
3, 107040, Note_on_c, 0, 43, 35
3, 107160, Note_on_c, 0, 43, 0
3, 107280, Note_on_c, 0, 55, 31
3, 107400, Note_on_c, 0, 55, 0
3, 107520, Note_on_c, 0, 43, 35
3, 107640, Note_on_c, 0, 43, 0
3, 107760, Note_on_c, 0, 55, 32
3, 107880, Note_on_c, 0, 55, 0
3, 108000, Note_on_c, 0, 43, 42
3, 108120, Note_on_c, 0, 43, 0
3, 108240, Note_on_c, 0, 55, 37
3, 108360, Note_on_c, 0, 55, 0
3, 108480, Note_on_c, 0, 43, 48
3, 108720, Note_on_c, 0, 43, 0
3, 108720, Note_on_c, 0, 55, 41
3, 108960, Note_on_c, 0, 55, 0
3, 108960, Note_on_c, 0, 50, 41
3, 109200, Note_on_c, 0, 50, 0
3, 109200, Note_on_c, 0, 47, 41
3, 109440, Note_on_c, 0, 47, 0
3, 109440, Note_on_c, 0, 48, 49
3, 109680, Note_on_c, 0, 48, 0
3, 109680, Note_on_c, 0, 45, 40
3, 109920, Note_on_c, 0, 45, 0
3, 109920, Note_on_c, 0, 50, 47
3, 110160, Note_on_c, 0, 50, 0
3, 110160, Note_on_c, 0, 38, 42
3, 110400, Note_on_c, 0, 38, 0
3, 110400, Note_on_c, 0, 43, 49
3, 110640, Note_on_c, 0, 43, 0
3, 111120, Note_on_c, 0, 50, 49
3, 111240, Note_on_c, 0, 50, 0
3, 111360, Note_on_c, 0, 55, 57
3, 111480, Note_on_c, 0, 55, 0
3, 112080, Note_on_c, 0, 50, 49
3, 112200, Note_on_c, 0, 50, 0
3, 112320, Note_on_c, 0, 43, 56
3, 112440, Note_on_c, 0, 43, 0
3, 112560, Note_on_c, 0, 55, 41
3, 112800, Note_on_c, 0, 55, 0
3, 112800, Note_on_c, 0, 50, 48
3, 113040, Note_on_c, 0, 50, 0
3, 113040, Note_on_c, 0, 47, 41
3, 113280, Note_on_c, 0, 47, 0
3, 113280, Note_on_c, 0, 43, 56
3, 113760, Note_on_c, 0, 43, 0
3, 113760, End_track
4, 0, Start_track
4, 0, Title_t, "Pedale"
4, 0, Program_c, 0, 0
4, 960, Control_c, 0, 64, 127
4, 1920, Control_c, 0, 64, 0
4, 2040, Control_c, 0, 64, 127
4, 2644, Control_c, 0, 64, 0
4, 3974, Control_c, 0, 64, 127
4, 4086, Control_c, 0, 64, 0
4, 4913, Control_c, 0, 64, 127
4, 5760, Control_c, 0, 64, 0
4, 5887, Control_c, 0, 64, 127
4, 6257, Control_c, 0, 64, 0
4, 11591, Control_c, 0, 64, 127
4, 12014, Control_c, 0, 64, 0
4, 12134, Control_c, 0, 64, 127
4, 12482, Control_c, 0, 64, 0
4, 17294, Control_c, 0, 64, 127
4, 17774, Control_c, 0, 64, 0
4, 17852, Control_c, 0, 64, 127
4, 18240, Control_c, 0, 64, 0
4, 19264, Control_c, 0, 64, 127
4, 19699, Control_c, 0, 64, 0
4, 19779, Control_c, 0, 64, 127
4, 19933, Control_c, 0, 64, 0
4, 19991, Control_c, 0, 64, 127
4, 20160, Control_c, 0, 64, 0
4, 20245, Control_c, 0, 64, 127
4, 20657, Control_c, 0, 64, 0
4, 20732, Control_c, 0, 64, 127
4, 20889, Control_c, 0, 64, 0
4, 20951, Control_c, 0, 64, 127
4, 21120, Control_c, 0, 64, 0
4, 22080, Control_c, 0, 64, 127
4, 23040, Control_c, 0, 64, 0
4, 23160, Control_c, 0, 64, 127
4, 23764, Control_c, 0, 64, 0
4, 25094, Control_c, 0, 64, 127
4, 25206, Control_c, 0, 64, 0
4, 26033, Control_c, 0, 64, 127
4, 26880, Control_c, 0, 64, 0
4, 27007, Control_c, 0, 64, 127
4, 27377, Control_c, 0, 64, 0
4, 32711, Control_c, 0, 64, 127
4, 33134, Control_c, 0, 64, 0
4, 33254, Control_c, 0, 64, 127
4, 33602, Control_c, 0, 64, 0
4, 38414, Control_c, 0, 64, 127
4, 38894, Control_c, 0, 64, 0
4, 38972, Control_c, 0, 64, 127
4, 39360, Control_c, 0, 64, 0
4, 40384, Control_c, 0, 64, 127
4, 40819, Control_c, 0, 64, 0
4, 40899, Control_c, 0, 64, 127
4, 41053, Control_c, 0, 64, 0
4, 41111, Control_c, 0, 64, 127
4, 41280, Control_c, 0, 64, 0
4, 41365, Control_c, 0, 64, 127
4, 41777, Control_c, 0, 64, 0
4, 41852, Control_c, 0, 64, 127
4, 42009, Control_c, 0, 64, 0
4, 42071, Control_c, 0, 64, 127
4, 42240, Control_c, 0, 64, 0
4, 43200, Control_c, 0, 64, 127
4, 43927, Control_c, 0, 64, 0
4, 44238, Control_c, 0, 64, 127
4, 44884, Control_c, 0, 64, 0
4, 46179, Control_c, 0, 64, 127
4, 46326, Control_c, 0, 64, 0
4, 47139, Control_c, 0, 64, 127
4, 47286, Control_c, 0, 64, 0
4, 56640, Control_c, 0, 64, 127
4, 57600, Control_c, 0, 64, 0
4, 57720, Control_c, 0, 64, 127
4, 58324, Control_c, 0, 64, 0
4, 59654, Control_c, 0, 64, 127
4, 59766, Control_c, 0, 64, 0
4, 60593, Control_c, 0, 64, 127
4, 61440, Control_c, 0, 64, 0
4, 61567, Control_c, 0, 64, 127
4, 61937, Control_c, 0, 64, 0
4, 72974, Control_c, 0, 64, 127
4, 73454, Control_c, 0, 64, 0
4, 73532, Control_c, 0, 64, 127
4, 73920, Control_c, 0, 64, 0
4, 74040, Control_c, 0, 64, 127
4, 74415, Control_c, 0, 64, 0
4, 74520, Control_c, 0, 64, 127
4, 74880, Control_c, 0, 64, 0
4, 74944, Control_c, 0, 64, 127
4, 75379, Control_c, 0, 64, 0
4, 75459, Control_c, 0, 64, 127
4, 75613, Control_c, 0, 64, 0
4, 75671, Control_c, 0, 64, 127
4, 75840, Control_c, 0, 64, 0
4, 75925, Control_c, 0, 64, 127
4, 76337, Control_c, 0, 64, 0
4, 76412, Control_c, 0, 64, 127
4, 76569, Control_c, 0, 64, 0
4, 76631, Control_c, 0, 64, 127
4, 76800, Control_c, 0, 64, 0
4, 77118, Control_c, 0, 64, 127
4, 78254, Control_c, 0, 64, 0
4, 78759, Control_c, 0, 64, 127
4, 79447, Control_c, 0, 64, 0
4, 79758, Control_c, 0, 64, 127
4, 80404, Control_c, 0, 64, 0
4, 81699, Control_c, 0, 64, 127
4, 81846, Control_c, 0, 64, 0
4, 82659, Control_c, 0, 64, 127
4, 82806, Control_c, 0, 64, 0
4, 92160, Control_c, 0, 64, 127
4, 93120, Control_c, 0, 64, 0
4, 93240, Control_c, 0, 64, 127
4, 93844, Control_c, 0, 64, 0
4, 95174, Control_c, 0, 64, 127
4, 95286, Control_c, 0, 64, 0
4, 96113, Control_c, 0, 64, 127
4, 96960, Control_c, 0, 64, 0
4, 97087, Control_c, 0, 64, 127
4, 97457, Control_c, 0, 64, 0
4, 108494, Control_c, 0, 64, 127
4, 108974, Control_c, 0, 64, 0
4, 109052, Control_c, 0, 64, 127
4, 109440, Control_c, 0, 64, 0
4, 109560, Control_c, 0, 64, 127
4, 109935, Control_c, 0, 64, 0
4, 110040, Control_c, 0, 64, 127
4, 110400, Control_c, 0, 64, 0
4, 110464, Control_c, 0, 64, 127
4, 110899, Control_c, 0, 64, 0
4, 110979, Control_c, 0, 64, 127
4, 111133, Control_c, 0, 64, 0
4, 111191, Control_c, 0, 64, 127
4, 111360, Control_c, 0, 64, 0
4, 111445, Control_c, 0, 64, 127
4, 111857, Control_c, 0, 64, 0
4, 111932, Control_c, 0, 64, 127
4, 112089, Control_c, 0, 64, 0
4, 112151, Control_c, 0, 64, 127
4, 112320, Control_c, 0, 64, 0
4, 112638, Control_c, 0, 64, 127
4, 114720, Control_c, 0, 64, 0
4, 114720, End_track
5, 0, Start_track
5, 0, Title_t, "Clementi: Sonatatina Opus 26, No. 2, 1. movement"
5, 0, End_track
6, 0, Start_track
6, 0, Title_t, "Copyright © 2010 by Bernd Krueger"
6, 0, End_track
7, 0, Start_track
7, 0, Title_t, "http://www.piano-midi.de/"
7, 0, End_track
8, 0, Start_track
8, 0, Title_t, "Edition: 2010-11-25"
8, 0, End_track
9, 0, Start_track
9, 0, Title_t, "Spur 8"
9, 0, End_track
10, 0, Start_track
10, 0, Title_t, "Spur 9"
10, 0, End_track
11, 0, Start_track
11, 0, Title_t, "Spur 10"
11, 0, End_track
12, 0, Start_track
12, 0, Title_t, "Spur 11"
12, 0, End_track
13, 0, Start_track
13, 0, Title_t, "Spur 12"
13, 0, End_track
14, 0, Start_track
14, 0, Title_t, "Spur 13"
14, 0, End_track
15, 0, Start_track
15, 0, Title_t, "Spur 14"
15, 0, End_track
16, 0, Start_track
16, 0, Title_t, "Spur 15"
16, 0, End_track
17, 0, Start_track
17, 0, Title_t, "Spur 16"
17, 0, End_track
0, 0, End_of_file
