0, 0, Header, 1, 17, 480
1, 0, Start_track
1, 0, Title_t, "Clementi: Sonatine Opus 36 Nr. 1, 3. Satz"
1, 0, Copyright_t, "Copyright © 2010 by Bernd Krueger"
1, 0, Text_t, "Muzio Clementi"
1, 0, Text_t, "Vivace"
1, 0, Text_t, "Erstellt: \012"
1, 0, Text_t, "Dauer: \012"
1, 0, Time_signature, 3, 3, 12, 8
1, 0, Key_signature, 0, "major"
1, 0, Tempo, 520879
1, 240, Tempo, 537201
1, 480, Tempo, 575871
1, 720, Tempo, 532434
1, 1920, Tempo, 546996
1, 2160, Tempo, 530082
1, 2880, Tempo, 516396
1, 3120, Tempo, 534807
1, 3360, Tempo, 573121
1, 3600, Tempo, 532434
1, 4282, Tempo, 530082
1, 4378, Tempo, 527751
1, 4474, Tempo, 525440
1, 4570, Tempo, 523149
1, 4666, Tempo, 520879
1, 4920, Tempo, 562377
1, 5040, Tempo, 530082
1, 5760, Tempo, 514183
1, 6000, Tempo, 527751
1, 6240, Tempo, 562377
1, 6480, Tempo, 527751
1, 7680, Tempo, 544514
1, 7920, Tempo, 523149
1, 8640, Tempo, 509814
1, 8880, Tempo, 523149
1, 9120, Tempo, 578648
1, 9360, Tempo, 523149
1, 10320, Tempo, 516396
1, 10680, Tempo, 570396
1, 10800, Tempo, 520879
1, 11520, Tempo, 505519
1, 11760, Tempo, 516396
1, 12240, Tempo, 503398
1, 12480, Tempo, 518627
1, 13200, Tempo, 509814
1, 13560, Tempo, 567698
1, 13680, Tempo, 525440
1, 14160, Tempo, 539617
1, 14400, Tempo, 507657
1, 14640, Tempo, 520879
1, 14880, Tempo, 557155
1, 15120, Tempo, 501295
1, 15360, Tempo, 520879
1, 15600, Tempo, 549501
1, 15840, Tempo, 523149
1, 16320, Tempo, 530082
1, 16440, Tempo, 575871
1, 16560, Tempo, 523149
1, 17261, Tempo, 530082
1, 17338, Tempo, 527751
1, 17415, Tempo, 525440
1, 17491, Tempo, 523149
1, 17568, Tempo, 520879
1, 17645, Tempo, 518627
1, 17779, Tempo, 520879
1, 17914, Tempo, 523149
1, 18029, Tempo, 525440
1, 18048, Tempo, 525440
1, 18202, Tempo, 523149
1, 18336, Tempo, 520879
1, 18509, Tempo, 523149
1, 18682, Tempo, 525440
1, 18759, Tempo, 525440
1, 18855, Tempo, 523149
1, 18951, Tempo, 520879
1, 19047, Tempo, 518627
1, 19085, Tempo, 520879
1, 19104, Tempo, 523149
1, 19143, Tempo, 525440
1, 19162, Tempo, 527751
1, 19200, Tempo, 530082
1, 19219, Tempo, 532434
1, 19258, Tempo, 534807
1, 19277, Tempo, 537201
1, 19296, Tempo, 539617
1, 19320, Tempo, 578648
1, 19440, Tempo, 523149
1, 20040, Tempo, 573121
1, 20160, Tempo, 520879
1, 20640, Tempo, 534807
1, 20880, Tempo, 544514
1, 21360, Tempo, 520879
1, 21600, Tempo, 539617
1, 22080, Tempo, 520879
1, 22320, Tempo, 532434
1, 22800, Tempo, 559754
1, 23040, Tempo, 534807
1, 23520, Tempo, 552029
1, 23760, Tempo, 532434
1, 23789, Tempo, 532434
1, 23827, Tempo, 530082
1, 23866, Tempo, 527751
1, 23885, Tempo, 525440
1, 23923, Tempo, 523149
1, 23943, Tempo, 520879
1, 23981, Tempo, 518627
1, 24000, Tempo, 516396
1, 24039, Tempo, 514183
1, 24058, Tempo, 511989
1, 24079, Tempo, 514183
1, 24098, Tempo, 516396
1, 24118, Tempo, 520879
1, 24137, Tempo, 523149
1, 24156, Tempo, 527751
1, 24175, Tempo, 532434
1, 24194, Tempo, 534807
1, 24214, Tempo, 539617
1, 24233, Tempo, 542054
1, 24252, Tempo, 546996
1, 24271, Tempo, 552029
1, 24290, Tempo, 554580
1, 24310, Tempo, 559754
1, 24329, Tempo, 565025
1, 24360, Tempo, 611060
1, 24480, Tempo, 520879
1, 24720, Tempo, 537201
1, 24960, Tempo, 573121
1, 25200, Tempo, 532434
1, 26400, Tempo, 546996
1, 26640, Tempo, 530082
1, 27360, Tempo, 516396
1, 27600, Tempo, 534807
1, 27840, Tempo, 573121
1, 28080, Tempo, 532434
1, 28762, Tempo, 530082
1, 28858, Tempo, 527751
1, 28954, Tempo, 525440
1, 29050, Tempo, 523149
1, 29146, Tempo, 520879
1, 29400, Tempo, 562377
1, 29520, Tempo, 530082
1, 30240, Tempo, 514183
1, 30480, Tempo, 527751
1, 30720, Tempo, 587142
1, 30960, Tempo, 527751
1, 32160, Tempo, 544514
1, 32400, Tempo, 523149
1, 33120, Tempo, 509814
1, 33360, Tempo, 523149
1, 33600, Tempo, 567698
1, 33840, Tempo, 523149
1, 34800, Tempo, 516396
1, 35160, Tempo, 570396
1, 35280, Tempo, 520879
1, 36000, Tempo, 505519
1, 36240, Tempo, 516396
1, 36720, Tempo, 503398
1, 36960, Tempo, 518627
1, 37680, Tempo, 509814
1, 38040, Tempo, 567698
1, 38160, Tempo, 525440
1, 38880, Tempo, 514183
1, 38882, Tempo, 520879
1, 38940, Tempo, 518627
1, 38997, Tempo, 516396
1, 39055, Tempo, 514183
1, 39113, Tempo, 511989
1, 39170, Tempo, 509814
1, 39381, Tempo, 511989
1, 39593, Tempo, 514183
1, 39746, Tempo, 511989
1, 39900, Tempo, 509814
1, 39996, Tempo, 511989
1, 40073, Tempo, 514183
1, 40149, Tempo, 516396
1, 40226, Tempo, 518627
1, 40303, Tempo, 520879
1, 40341, Tempo, 523149
1, 40437, Tempo, 520879
1, 40514, Tempo, 518627
1, 40591, Tempo, 516396
1, 40649, Tempo, 514183
1, 40668, Tempo, 516396
1, 40687, Tempo, 518627
1, 40706, Tempo, 520879
1, 40725, Tempo, 523149
1, 40745, Tempo, 525440
1, 40764, Tempo, 527751
1, 40783, Tempo, 530082
1, 40802, Tempo, 532434
1, 40821, Tempo, 534807
1, 40841, Tempo, 537201
1, 40860, Tempo, 539617
1, 40879, Tempo, 542054
1, 40898, Tempo, 544514
1, 40917, Tempo, 546996
1, 40937, Tempo, 549501
1, 40956, Tempo, 552029
1, 40975, Tempo, 554580
1, 40994, Tempo, 559754
1, 41040, Tempo, 534807
1, 41520, Tempo, 549501
1, 41760, Tempo, 509814
1, 42000, Tempo, 518627
1, 42240, Tempo, 546996
1, 42480, Tempo, 509814
1, 42720, Tempo, 520879
1, 42960, Tempo, 546996
1, 43200, Tempo, 520879
1, 43440, Tempo, 509814
1, 43800, Tempo, 567698
1, 43920, Tempo, 520879
1, 44604, Tempo, 525440
1, 44700, Tempo, 523149
1, 44796, Tempo, 520879
1, 44892, Tempo, 518627
1, 44988, Tempo, 516396
1, 45084, Tempo, 514183
1, 45161, Tempo, 516396
1, 45237, Tempo, 518627
1, 45314, Tempo, 520879
1, 45372, Tempo, 525440
1, 45545, Tempo, 523149
1, 45698, Tempo, 520879
1, 45871, Tempo, 518627
1, 46025, Tempo, 516396
1, 46159, Tempo, 518627
1, 46293, Tempo, 520879
1, 46428, Tempo, 523149
1, 46562, Tempo, 525440
1, 46601, Tempo, 527751
1, 46620, Tempo, 530082
1, 46658, Tempo, 532434
1, 46677, Tempo, 534807
1, 46716, Tempo, 537201
1, 46735, Tempo, 539617
1, 46773, Tempo, 542054
1, 46793, Tempo, 544514
1, 46800, Tempo, 532434
1, 47040, Tempo, 544514
1, 47520, Tempo, 534807
1, 47760, Tempo, 546996
1, 48720, Tempo, 581452
1, 48960, Tempo, 565025
1, 49440, Tempo, 617347
1, 49440, End_track
2, 0, Start_track
2, 0, Title_t, "Piano right"
2, 0, Program_c, 0, 0
2, 0, Note_on_c, 0, 76, 42
2, 120, Note_on_c, 0, 76, 0
2, 120, Note_on_c, 0, 74, 39
2, 240, Note_on_c, 0, 74, 0
2, 240, Note_on_c, 0, 72, 42
2, 300, Note_on_c, 0, 72, 0
2, 480, Note_on_c, 0, 72, 39
2, 540, Note_on_c, 0, 72, 0
2, 720, Note_on_c, 0, 79, 59
2, 1200, Note_on_c, 0, 79, 0
2, 1200, Note_on_c, 0, 77, 42
2, 1320, Note_on_c, 0, 77, 0
2, 1320, Note_on_c, 0, 76, 38
2, 1440, Note_on_c, 0, 76, 0
2, 1440, Note_on_c, 0, 74, 46
2, 1680, Note_on_c, 0, 74, 0
2, 1680, Note_on_c, 0, 77, 42
2, 1920, Note_on_c, 0, 77, 0
2, 1920, Note_on_c, 0, 71, 39
2, 2160, Note_on_c, 0, 71, 0
2, 2160, Note_on_c, 0, 72, 45
2, 2400, Note_on_c, 0, 72, 0
2, 2400, Note_on_c, 0, 67, 42
2, 2520, Note_on_c, 0, 67, 0
2, 2640, Note_on_c, 0, 67, 42
2, 2760, Note_on_c, 0, 67, 0
2, 2880, Note_on_c, 0, 76, 42
2, 3000, Note_on_c, 0, 76, 0
2, 3000, Note_on_c, 0, 74, 39
2, 3120, Note_on_c, 0, 74, 0
2, 3120, Note_on_c, 0, 72, 42
2, 3180, Note_on_c, 0, 72, 0
2, 3360, Note_on_c, 0, 72, 39
2, 3420, Note_on_c, 0, 72, 0
2, 3600, Note_on_c, 0, 79, 63
2, 4080, Note_on_c, 0, 79, 0
2, 4080, Note_on_c, 0, 77, 42
2, 4200, Note_on_c, 0, 77, 0
2, 4200, Note_on_c, 0, 76, 38
2, 4320, Note_on_c, 0, 76, 0
2, 4320, Note_on_c, 0, 74, 46
2, 4440, Note_on_c, 0, 74, 0
2, 4440, Note_on_c, 0, 76, 40
2, 4560, Note_on_c, 0, 76, 0
2, 4560, Note_on_c, 0, 77, 45
2, 4680, Note_on_c, 0, 77, 0
2, 4680, Note_on_c, 0, 76, 39
2, 4800, Note_on_c, 0, 76, 0
2, 4800, Note_on_c, 0, 77, 39
2, 4920, Note_on_c, 0, 77, 0
2, 4920, Note_on_c, 0, 74, 36
2, 5040, Note_on_c, 0, 74, 0
2, 5040, Note_on_c, 0, 72, 45
2, 5280, Note_on_c, 0, 72, 0
2, 5760, Note_on_c, 0, 76, 67
2, 5880, Note_on_c, 0, 76, 0
2, 5880, Note_on_c, 0, 74, 62
2, 6000, Note_on_c, 0, 74, 0
2, 6000, Note_on_c, 0, 72, 67
2, 6060, Note_on_c, 0, 72, 0
2, 6240, Note_on_c, 0, 72, 63
2, 6300, Note_on_c, 0, 72, 0
2, 6480, Note_on_c, 0, 79, 78
2, 6960, Note_on_c, 0, 79, 0
2, 6960, Note_on_c, 0, 77, 67
2, 7080, Note_on_c, 0, 77, 0
2, 7080, Note_on_c, 0, 76, 60
2, 7200, Note_on_c, 0, 76, 0
2, 7200, Note_on_c, 0, 74, 74
2, 7440, Note_on_c, 0, 74, 0
2, 7440, Note_on_c, 0, 77, 67
2, 7680, Note_on_c, 0, 77, 0
2, 7680, Note_on_c, 0, 71, 63
2, 7920, Note_on_c, 0, 71, 0
2, 7920, Note_on_c, 0, 72, 71
2, 8160, Note_on_c, 0, 72, 0
2, 8160, Note_on_c, 0, 67, 67
2, 8280, Note_on_c, 0, 67, 0
2, 8400, Note_on_c, 0, 67, 67
2, 8520, Note_on_c, 0, 67, 0
2, 8640, Note_on_c, 0, 76, 67
2, 8760, Note_on_c, 0, 76, 0
2, 8760, Note_on_c, 0, 74, 62
2, 8880, Note_on_c, 0, 74, 0
2, 8880, Note_on_c, 0, 72, 67
2, 8940, Note_on_c, 0, 72, 0
2, 9120, Note_on_c, 0, 72, 63
2, 9180, Note_on_c, 0, 72, 0
2, 9360, Note_on_c, 0, 79, 78
2, 9840, Note_on_c, 0, 79, 0
2, 9840, Note_on_c, 0, 77, 67
2, 9960, Note_on_c, 0, 77, 0
2, 9960, Note_on_c, 0, 76, 60
2, 10080, Note_on_c, 0, 76, 0
2, 10080, Note_on_c, 0, 74, 74
2, 10200, Note_on_c, 0, 74, 0
2, 10200, Note_on_c, 0, 76, 64
2, 10320, Note_on_c, 0, 76, 0
2, 10320, Note_on_c, 0, 77, 71
2, 10440, Note_on_c, 0, 77, 0
2, 10440, Note_on_c, 0, 76, 63
2, 10560, Note_on_c, 0, 76, 0
2, 10560, Note_on_c, 0, 77, 63
2, 10680, Note_on_c, 0, 77, 0
2, 10680, Note_on_c, 0, 74, 58
2, 10800, Note_on_c, 0, 74, 0
2, 10800, Note_on_c, 0, 72, 71
2, 11040, Note_on_c, 0, 72, 0
2, 11520, Note_on_c, 0, 67, 42
2, 11640, Note_on_c, 0, 67, 0
2, 11640, Note_on_c, 0, 65, 39
2, 11760, Note_on_c, 0, 65, 0
2, 11760, Note_on_c, 0, 64, 42
2, 11880, Note_on_c, 0, 64, 0
2, 12000, Note_on_c, 0, 64, 39
2, 12120, Note_on_c, 0, 64, 0
2, 12240, Note_on_c, 0, 69, 42
2, 12360, Note_on_c, 0, 69, 0
2, 12360, Note_on_c, 0, 67, 39
2, 12480, Note_on_c, 0, 67, 0
2, 12480, Note_on_c, 0, 65, 42
2, 12600, Note_on_c, 0, 65, 0
2, 12720, Note_on_c, 0, 65, 39
2, 12840, Note_on_c, 0, 65, 0
2, 12960, Note_on_c, 0, 62, 63
2, 13080, Note_on_c, 0, 62, 0
2, 13080, Note_on_c, 0, 65, 57
2, 13200, Note_on_c, 0, 65, 0
2, 13200, Note_on_c, 0, 71, 63
2, 13320, Note_on_c, 0, 71, 0
2, 13320, Note_on_c, 0, 65, 55
2, 13440, Note_on_c, 0, 65, 0
2, 13440, Note_on_c, 0, 71, 62
2, 13560, Note_on_c, 0, 71, 0
2, 13560, Note_on_c, 0, 65, 55
2, 13680, Note_on_c, 0, 65, 0
2, 13680, Note_on_c, 0, 64, 68
2, 13920, Note_on_c, 0, 64, 0
2, 13920, Note_on_c, 0, 67, 55
2, 14160, Note_on_c, 0, 67, 0
2, 14160, Note_on_c, 0, 72, 63
2, 14400, Note_on_c, 0, 72, 0
2, 14400, Note_on_c, 0, 67, 42
2, 14520, Note_on_c, 0, 67, 0
2, 14520, Note_on_c, 0, 65, 39
2, 14640, Note_on_c, 0, 65, 0
2, 14640, Note_on_c, 0, 64, 42
2, 14760, Note_on_c, 0, 64, 0
2, 14880, Note_on_c, 0, 64, 39
2, 15000, Note_on_c, 0, 64, 0
2, 15120, Note_on_c, 0, 76, 42
2, 15240, Note_on_c, 0, 76, 0
2, 15240, Note_on_c, 0, 74, 39
2, 15360, Note_on_c, 0, 74, 0
2, 15360, Note_on_c, 0, 72, 42
2, 15480, Note_on_c, 0, 72, 0
2, 15600, Note_on_c, 0, 72, 39
2, 15720, Note_on_c, 0, 72, 0
2, 15840, Note_on_c, 0, 66, 63
2, 15960, Note_on_c, 0, 66, 0
2, 15960, Note_on_c, 0, 67, 57
2, 16080, Note_on_c, 0, 67, 0
2, 16080, Note_on_c, 0, 69, 63
2, 16200, Note_on_c, 0, 69, 0
2, 16200, Note_on_c, 0, 71, 55
2, 16320, Note_on_c, 0, 71, 0
2, 16320, Note_on_c, 0, 72, 62
2, 16440, Note_on_c, 0, 72, 0
2, 16440, Note_on_c, 0, 69, 55
2, 16560, Note_on_c, 0, 69, 0
2, 16560, Note_on_c, 0, 67, 63
2, 17040, Note_on_c, 0, 67, 0
2, 17040, Note_on_c, 0, 83, 64
2, 17160, Note_on_c, 0, 83, 0
2, 17160, Note_on_c, 0, 84, 67
2, 17280, Note_on_c, 0, 84, 0
2, 17280, Note_on_c, 0, 86, 71
2, 17400, Note_on_c, 0, 86, 0
2, 17400, Note_on_c, 0, 84, 66
2, 17520, Note_on_c, 0, 84, 0
2, 17520, Note_on_c, 0, 83, 68
2, 17640, Note_on_c, 0, 83, 0
2, 17640, Note_on_c, 0, 81, 63
2, 17760, Note_on_c, 0, 81, 0
2, 17760, Note_on_c, 0, 79, 65
2, 17880, Note_on_c, 0, 79, 0
2, 17880, Note_on_c, 0, 78, 63
2, 18000, Note_on_c, 0, 78, 0
2, 18000, Note_on_c, 0, 76, 63
2, 18120, Note_on_c, 0, 76, 0
2, 18120, Note_on_c, 0, 74, 61
2, 18240, Note_on_c, 0, 74, 0
2, 18240, Note_on_c, 0, 72, 63
2, 18360, Note_on_c, 0, 72, 0
2, 18360, Note_on_c, 0, 71, 60
2, 18480, Note_on_c, 0, 71, 0
2, 18480, Note_on_c, 0, 69, 63
2, 18600, Note_on_c, 0, 69, 0
2, 18600, Note_on_c, 0, 67, 62
2, 18720, Note_on_c, 0, 67, 0
2, 18720, Note_on_c, 0, 66, 63
2, 18840, Note_on_c, 0, 66, 0
2, 18840, Note_on_c, 0, 67, 57
2, 18960, Note_on_c, 0, 67, 0
2, 18960, Note_on_c, 0, 69, 63
2, 19080, Note_on_c, 0, 69, 0
2, 19080, Note_on_c, 0, 71, 55
2, 19200, Note_on_c, 0, 71, 0
2, 19200, Note_on_c, 0, 72, 62
2, 19320, Note_on_c, 0, 72, 0
2, 19320, Note_on_c, 0, 69, 55
2, 19440, Note_on_c, 0, 69, 0
2, 19440, Note_on_c, 0, 67, 63
2, 19920, Note_on_c, 0, 67, 0
2, 19920, Note_on_c, 0, 83, 64
2, 20040, Note_on_c, 0, 83, 0
2, 20040, Note_on_c, 0, 84, 67
2, 20160, Note_on_c, 0, 84, 0
2, 20160, Note_on_c, 0, 86, 71
2, 20280, Note_on_c, 0, 86, 0
2, 20280, Note_on_c, 0, 84, 66
2, 20400, Note_on_c, 0, 84, 0
2, 20400, Note_on_c, 0, 83, 68
2, 20520, Note_on_c, 0, 83, 0
2, 20520, Note_on_c, 0, 81, 63
2, 20640, Note_on_c, 0, 81, 0
2, 20640, Note_on_c, 0, 79, 65
2, 20760, Note_on_c, 0, 79, 0
2, 20760, Note_on_c, 0, 78, 63
2, 20880, Note_on_c, 0, 78, 0
2, 20880, Note_on_c, 0, 77, 63
2, 20940, Note_on_c, 0, 77, 0
2, 21120, Note_on_c, 0, 77, 59
2, 21180, Note_on_c, 0, 77, 0
2, 21360, Note_on_c, 0, 86, 59
2, 21480, Note_on_c, 0, 86, 0
2, 21480, Note_on_c, 0, 83, 53
2, 21600, Note_on_c, 0, 83, 0
2, 21600, Note_on_c, 0, 77, 63
2, 21660, Note_on_c, 0, 77, 0
2, 21840, Note_on_c, 0, 77, 61
2, 21900, Note_on_c, 0, 77, 0
2, 22080, Note_on_c, 0, 86, 62
2, 22200, Note_on_c, 0, 86, 0
2, 22200, Note_on_c, 0, 83, 57
2, 22320, Note_on_c, 0, 83, 0
2, 22320, Note_on_c, 0, 77, 63
2, 22440, Note_on_c, 0, 77, 0
2, 23040, Note_on_c, 0, 74, 47
2, 23160, Note_on_c, 0, 74, 0
2, 23760, Note_on_c, 0, 71, 47
2, 23880, Note_on_c, 0, 71, 0
2, 23880, Note_on_c, 0, 67, 39
2, 24000, Note_on_c, 0, 67, 0
2, 24000, Note_on_c, 0, 69, 40
2, 24120, Note_on_c, 0, 69, 0
2, 24120, Note_on_c, 0, 71, 42
2, 24240, Note_on_c, 0, 71, 0
2, 24240, Note_on_c, 0, 72, 44
2, 24360, Note_on_c, 0, 72, 0
2, 24360, Note_on_c, 0, 74, 45
2, 24480, Note_on_c, 0, 74, 0
2, 24480, Note_on_c, 0, 76, 37
2, 24600, Note_on_c, 0, 76, 0
2, 24600, Note_on_c, 0, 74, 35
2, 24720, Note_on_c, 0, 74, 0
2, 24720, Note_on_c, 0, 72, 37
2, 24780, Note_on_c, 0, 72, 0
2, 24960, Note_on_c, 0, 72, 35
2, 25020, Note_on_c, 0, 72, 0
2, 25200, Note_on_c, 0, 79, 47
2, 25680, Note_on_c, 0, 79, 0
2, 25680, Note_on_c, 0, 77, 37
2, 25800, Note_on_c, 0, 77, 0
2, 25800, Note_on_c, 0, 76, 34
2, 25920, Note_on_c, 0, 76, 0
2, 25920, Note_on_c, 0, 74, 41
2, 26160, Note_on_c, 0, 74, 0
2, 26160, Note_on_c, 0, 77, 37
2, 26400, Note_on_c, 0, 77, 0
2, 26400, Note_on_c, 0, 71, 35
2, 26640, Note_on_c, 0, 71, 0
2, 26640, Note_on_c, 0, 72, 40
2, 26880, Note_on_c, 0, 72, 0
2, 26880, Note_on_c, 0, 67, 37
2, 27000, Note_on_c, 0, 67, 0
2, 27120, Note_on_c, 0, 67, 37
2, 27240, Note_on_c, 0, 67, 0
2, 27360, Note_on_c, 0, 76, 37
2, 27480, Note_on_c, 0, 76, 0
2, 27480, Note_on_c, 0, 74, 35
2, 27600, Note_on_c, 0, 74, 0
2, 27600, Note_on_c, 0, 72, 37
2, 27660, Note_on_c, 0, 72, 0
2, 27840, Note_on_c, 0, 72, 35
2, 27900, Note_on_c, 0, 72, 0
2, 28080, Note_on_c, 0, 79, 47
2, 28560, Note_on_c, 0, 79, 0
2, 28560, Note_on_c, 0, 77, 37
2, 28680, Note_on_c, 0, 77, 0
2, 28680, Note_on_c, 0, 76, 34
2, 28800, Note_on_c, 0, 76, 0
2, 28800, Note_on_c, 0, 74, 41
2, 28920, Note_on_c, 0, 74, 0
2, 28920, Note_on_c, 0, 76, 36
2, 29040, Note_on_c, 0, 76, 0
2, 29040, Note_on_c, 0, 77, 40
2, 29160, Note_on_c, 0, 77, 0
2, 29160, Note_on_c, 0, 76, 35
2, 29280, Note_on_c, 0, 76, 0
2, 29280, Note_on_c, 0, 77, 35
2, 29400, Note_on_c, 0, 77, 0
2, 29400, Note_on_c, 0, 74, 32
2, 29520, Note_on_c, 0, 74, 0
2, 29520, Note_on_c, 0, 72, 40
2, 29760, Note_on_c, 0, 72, 0
2, 30240, Note_on_c, 0, 76, 67
2, 30360, Note_on_c, 0, 76, 0
2, 30360, Note_on_c, 0, 74, 62
2, 30480, Note_on_c, 0, 74, 0
2, 30480, Note_on_c, 0, 72, 67
2, 30540, Note_on_c, 0, 72, 0
2, 30720, Note_on_c, 0, 72, 63
2, 30780, Note_on_c, 0, 72, 0
2, 30960, Note_on_c, 0, 79, 78
2, 31440, Note_on_c, 0, 79, 0
2, 31440, Note_on_c, 0, 77, 67
2, 31560, Note_on_c, 0, 77, 0
2, 31560, Note_on_c, 0, 76, 60
2, 31680, Note_on_c, 0, 76, 0
2, 31680, Note_on_c, 0, 74, 74
2, 31920, Note_on_c, 0, 74, 0
2, 31920, Note_on_c, 0, 77, 67
2, 32160, Note_on_c, 0, 77, 0
2, 32160, Note_on_c, 0, 71, 63
2, 32400, Note_on_c, 0, 71, 0
2, 32400, Note_on_c, 0, 72, 71
2, 32640, Note_on_c, 0, 72, 0
2, 32640, Note_on_c, 0, 67, 67
2, 32760, Note_on_c, 0, 67, 0
2, 32880, Note_on_c, 0, 67, 67
2, 33000, Note_on_c, 0, 67, 0
2, 33120, Note_on_c, 0, 76, 67
2, 33240, Note_on_c, 0, 76, 0
2, 33240, Note_on_c, 0, 74, 62
2, 33360, Note_on_c, 0, 74, 0
2, 33360, Note_on_c, 0, 72, 67
2, 33420, Note_on_c, 0, 72, 0
2, 33600, Note_on_c, 0, 72, 63
2, 33660, Note_on_c, 0, 72, 0
2, 33840, Note_on_c, 0, 79, 78
2, 34320, Note_on_c, 0, 79, 0
2, 34320, Note_on_c, 0, 77, 67
2, 34440, Note_on_c, 0, 77, 0
2, 34440, Note_on_c, 0, 76, 60
2, 34560, Note_on_c, 0, 76, 0
2, 34560, Note_on_c, 0, 74, 74
2, 34680, Note_on_c, 0, 74, 0
2, 34680, Note_on_c, 0, 76, 64
2, 34800, Note_on_c, 0, 76, 0
2, 34800, Note_on_c, 0, 77, 71
2, 34920, Note_on_c, 0, 77, 0
2, 34920, Note_on_c, 0, 76, 63
2, 35040, Note_on_c, 0, 76, 0
2, 35040, Note_on_c, 0, 77, 63
2, 35160, Note_on_c, 0, 77, 0
2, 35160, Note_on_c, 0, 74, 58
2, 35280, Note_on_c, 0, 74, 0
2, 35280, Note_on_c, 0, 72, 71
2, 35520, Note_on_c, 0, 72, 0
2, 36000, Note_on_c, 0, 67, 42
2, 36120, Note_on_c, 0, 67, 0
2, 36120, Note_on_c, 0, 65, 39
2, 36240, Note_on_c, 0, 65, 0
2, 36240, Note_on_c, 0, 64, 42
2, 36360, Note_on_c, 0, 64, 0
2, 36480, Note_on_c, 0, 64, 39
2, 36600, Note_on_c, 0, 64, 0
2, 36720, Note_on_c, 0, 69, 42
2, 36840, Note_on_c, 0, 69, 0
2, 36840, Note_on_c, 0, 67, 39
2, 36960, Note_on_c, 0, 67, 0
2, 36960, Note_on_c, 0, 65, 42
2, 37080, Note_on_c, 0, 65, 0
2, 37200, Note_on_c, 0, 65, 39
2, 37320, Note_on_c, 0, 65, 0
2, 37440, Note_on_c, 0, 62, 63
2, 37560, Note_on_c, 0, 62, 0
2, 37560, Note_on_c, 0, 65, 57
2, 37680, Note_on_c, 0, 65, 0
2, 37680, Note_on_c, 0, 71, 63
2, 37800, Note_on_c, 0, 71, 0
2, 37800, Note_on_c, 0, 65, 55
2, 37920, Note_on_c, 0, 65, 0
2, 37920, Note_on_c, 0, 71, 62
2, 38040, Note_on_c, 0, 71, 0
2, 38040, Note_on_c, 0, 65, 55
2, 38160, Note_on_c, 0, 65, 0
2, 38160, Note_on_c, 0, 64, 63
2, 38400, Note_on_c, 0, 64, 0
2, 38640, Note_on_c, 0, 76, 64
2, 38760, Note_on_c, 0, 76, 0
2, 38760, Note_on_c, 0, 77, 67
2, 38880, Note_on_c, 0, 77, 0
2, 38880, Note_on_c, 0, 79, 71
2, 39000, Note_on_c, 0, 79, 0
2, 39000, Note_on_c, 0, 77, 66
2, 39120, Note_on_c, 0, 77, 0
2, 39120, Note_on_c, 0, 76, 68
2, 39240, Note_on_c, 0, 76, 0
2, 39240, Note_on_c, 0, 74, 63
2, 39360, Note_on_c, 0, 74, 0
2, 39360, Note_on_c, 0, 72, 65
2, 39480, Note_on_c, 0, 72, 0
2, 39480, Note_on_c, 0, 71, 63
2, 39600, Note_on_c, 0, 71, 0
2, 39600, Note_on_c, 0, 69, 63
2, 39720, Note_on_c, 0, 67, 61
2, 39732, Note_on_c, 0, 69, 0
2, 39840, Note_on_c, 0, 65, 63
2, 39852, Note_on_c, 0, 67, 0
2, 39960, Note_on_c, 0, 64, 60
2, 39972, Note_on_c, 0, 65, 0
2, 40080, Note_on_c, 0, 62, 63
2, 40092, Note_on_c, 0, 64, 0
2, 40200, Note_on_c, 0, 60, 62
2, 40212, Note_on_c, 0, 62, 0
2, 40320, Note_on_c, 0, 59, 63
2, 40332, Note_on_c, 0, 60, 0
2, 40440, Note_on_c, 0, 60, 57
2, 40452, Note_on_c, 0, 59, 0
2, 40560, Note_on_c, 0, 62, 63
2, 40572, Note_on_c, 0, 60, 0
2, 40680, Note_on_c, 0, 64, 55
2, 40692, Note_on_c, 0, 62, 0
2, 40800, Note_on_c, 0, 65, 62
2, 40812, Note_on_c, 0, 64, 0
2, 40920, Note_on_c, 0, 62, 55
2, 40932, Note_on_c, 0, 65, 0
2, 41040, Note_on_c, 0, 60, 71
2, 41052, Note_on_c, 0, 62, 0
2, 41280, Note_on_c, 0, 60, 0
2, 41760, Note_on_c, 0, 67, 42
2, 41880, Note_on_c, 0, 67, 0
2, 41880, Note_on_c, 0, 65, 39
2, 42000, Note_on_c, 0, 65, 0
2, 42000, Note_on_c, 0, 64, 42
2, 42120, Note_on_c, 0, 64, 0
2, 42240, Note_on_c, 0, 64, 39
2, 42360, Note_on_c, 0, 64, 0
2, 42480, Note_on_c, 0, 69, 42
2, 42600, Note_on_c, 0, 69, 0
2, 42600, Note_on_c, 0, 67, 39
2, 42720, Note_on_c, 0, 67, 0
2, 42720, Note_on_c, 0, 65, 42
2, 42840, Note_on_c, 0, 65, 0
2, 42960, Note_on_c, 0, 65, 39
2, 43080, Note_on_c, 0, 65, 0
2, 43200, Note_on_c, 0, 62, 63
2, 43320, Note_on_c, 0, 62, 0
2, 43320, Note_on_c, 0, 65, 57
2, 43440, Note_on_c, 0, 65, 0
2, 43440, Note_on_c, 0, 71, 63
2, 43560, Note_on_c, 0, 71, 0
2, 43560, Note_on_c, 0, 65, 55
2, 43680, Note_on_c, 0, 65, 0
2, 43680, Note_on_c, 0, 71, 62
2, 43800, Note_on_c, 0, 71, 0
2, 43800, Note_on_c, 0, 65, 55
2, 43920, Note_on_c, 0, 65, 0
2, 43920, Note_on_c, 0, 64, 63
2, 44160, Note_on_c, 0, 64, 0
2, 44400, Note_on_c, 0, 76, 64
2, 44520, Note_on_c, 0, 76, 0
2, 44520, Note_on_c, 0, 77, 67
2, 44640, Note_on_c, 0, 77, 0
2, 44640, Note_on_c, 0, 79, 71
2, 44760, Note_on_c, 0, 79, 0
2, 44760, Note_on_c, 0, 77, 66
2, 44880, Note_on_c, 0, 77, 0
2, 44880, Note_on_c, 0, 76, 68
2, 45000, Note_on_c, 0, 76, 0
2, 45000, Note_on_c, 0, 74, 63
2, 45120, Note_on_c, 0, 74, 0
2, 45120, Note_on_c, 0, 72, 65
2, 45240, Note_on_c, 0, 72, 0
2, 45240, Note_on_c, 0, 71, 63
2, 45360, Note_on_c, 0, 71, 0
2, 45360, Note_on_c, 0, 69, 63
2, 45480, Note_on_c, 0, 69, 0
2, 45480, Note_on_c, 0, 67, 61
2, 45600, Note_on_c, 0, 67, 0
2, 45600, Note_on_c, 0, 65, 63
2, 45720, Note_on_c, 0, 65, 0
2, 45720, Note_on_c, 0, 64, 60
2, 45840, Note_on_c, 0, 64, 0
2, 45840, Note_on_c, 0, 62, 63
2, 45960, Note_on_c, 0, 62, 0
2, 45960, Note_on_c, 0, 60, 62
2, 46080, Note_on_c, 0, 60, 0
2, 46080, Note_on_c, 0, 59, 63
2, 46200, Note_on_c, 0, 59, 0
2, 46200, Note_on_c, 0, 60, 57
2, 46320, Note_on_c, 0, 60, 0
2, 46320, Note_on_c, 0, 62, 63
2, 46440, Note_on_c, 0, 62, 0
2, 46440, Note_on_c, 0, 64, 55
2, 46560, Note_on_c, 0, 64, 0
2, 46560, Note_on_c, 0, 65, 62
2, 46680, Note_on_c, 0, 65, 0
2, 46680, Note_on_c, 0, 62, 55
2, 46800, Note_on_c, 0, 62, 0
2, 46800, Note_on_c, 0, 60, 76
2, 47040, Note_on_c, 0, 60, 0
2, 47520, Note_on_c, 0, 67, 76
2, 47520, Note_on_c, 0, 64, 69
2, 47760, Note_on_c, 0, 64, 0
2, 47760, Note_on_c, 0, 67, 0
2, 48240, Note_on_c, 0, 67, 69
2, 48240, Note_on_c, 0, 72, 76
2, 48240, Note_on_c, 0, 64, 69
2, 48480, Note_on_c, 0, 64, 0
2, 48480, Note_on_c, 0, 72, 0
2, 48480, Note_on_c, 0, 67, 0
2, 48960, Note_on_c, 0, 79, 76
2, 48960, Note_on_c, 0, 76, 69
2, 49200, Note_on_c, 0, 76, 0
2, 49200, Note_on_c, 0, 79, 0
2, 49680, Note_on_c, 0, 79, 75
2, 49680, Note_on_c, 0, 84, 83
2, 49680, Note_on_c, 0, 76, 75
2, 50160, Note_on_c, 0, 76, 0
2, 50160, Note_on_c, 0, 84, 0
2, 50160, Note_on_c, 0, 79, 0
2, 50160, End_track
3, 0, Start_track
3, 0, Title_t, "Piano left"
3, 0, Program_c, 0, 0
3, 0, Note_on_c, 0, 48, 28
3, 240, Note_on_c, 0, 48, 0
3, 240, Note_on_c, 0, 52, 24
3, 480, Note_on_c, 0, 52, 0
3, 480, Note_on_c, 0, 55, 24
3, 720, Note_on_c, 0, 55, 0
3, 720, Note_on_c, 0, 48, 28
3, 960, Note_on_c, 0, 48, 0
3, 960, Note_on_c, 0, 52, 26
3, 1200, Note_on_c, 0, 52, 0
3, 1200, Note_on_c, 0, 55, 26
3, 1440, Note_on_c, 0, 55, 0
3, 1440, Note_on_c, 0, 48, 28
3, 1680, Note_on_c, 0, 48, 0
3, 1680, Note_on_c, 0, 50, 23
3, 1920, Note_on_c, 0, 50, 0
3, 1920, Note_on_c, 0, 53, 23
3, 2160, Note_on_c, 0, 53, 0
3, 2160, Note_on_c, 0, 48, 28
3, 2400, Note_on_c, 0, 48, 0
3, 2400, Note_on_c, 0, 52, 26
3, 2640, Note_on_c, 0, 52, 0
3, 2640, Note_on_c, 0, 55, 26
3, 2880, Note_on_c, 0, 55, 0
3, 2880, Note_on_c, 0, 48, 28
3, 3120, Note_on_c, 0, 48, 0
3, 3120, Note_on_c, 0, 52, 24
3, 3360, Note_on_c, 0, 52, 0
3, 3360, Note_on_c, 0, 55, 24
3, 3600, Note_on_c, 0, 55, 0
3, 3600, Note_on_c, 0, 48, 28
3, 3840, Note_on_c, 0, 48, 0
3, 3840, Note_on_c, 0, 52, 26
3, 4080, Note_on_c, 0, 52, 0
3, 4080, Note_on_c, 0, 55, 26
3, 4320, Note_on_c, 0, 55, 0
3, 4320, Note_on_c, 0, 43, 28
3, 4560, Note_on_c, 0, 43, 0
3, 4560, Note_on_c, 0, 50, 23
3, 4800, Note_on_c, 0, 50, 0
3, 4800, Note_on_c, 0, 55, 23
3, 5040, Note_on_c, 0, 55, 0
3, 5040, Note_on_c, 0, 48, 28
3, 5280, Note_on_c, 0, 48, 0
3, 5280, Note_on_c, 0, 52, 23
3, 5520, Note_on_c, 0, 52, 0
3, 5520, Note_on_c, 0, 55, 23
3, 5760, Note_on_c, 0, 55, 0
3, 5760, Note_on_c, 0, 48, 45
3, 6000, Note_on_c, 0, 48, 0
3, 6000, Note_on_c, 0, 52, 39
3, 6240, Note_on_c, 0, 52, 0
3, 6240, Note_on_c, 0, 55, 39
3, 6480, Note_on_c, 0, 55, 0
3, 6480, Note_on_c, 0, 48, 45
3, 6720, Note_on_c, 0, 48, 0
3, 6720, Note_on_c, 0, 52, 41
3, 6960, Note_on_c, 0, 52, 0
3, 6960, Note_on_c, 0, 55, 41
3, 7200, Note_on_c, 0, 55, 0
3, 7200, Note_on_c, 0, 48, 45
3, 7440, Note_on_c, 0, 48, 0
3, 7440, Note_on_c, 0, 50, 38
3, 7680, Note_on_c, 0, 50, 0
3, 7680, Note_on_c, 0, 53, 38
3, 7920, Note_on_c, 0, 53, 0
3, 7920, Note_on_c, 0, 48, 45
3, 8160, Note_on_c, 0, 48, 0
3, 8160, Note_on_c, 0, 52, 41
3, 8400, Note_on_c, 0, 52, 0
3, 8400, Note_on_c, 0, 55, 41
3, 8640, Note_on_c, 0, 55, 0
3, 8640, Note_on_c, 0, 48, 45
3, 8880, Note_on_c, 0, 48, 0
3, 8880, Note_on_c, 0, 52, 39
3, 9120, Note_on_c, 0, 52, 0
3, 9120, Note_on_c, 0, 55, 39
3, 9360, Note_on_c, 0, 55, 0
3, 9360, Note_on_c, 0, 48, 45
3, 9600, Note_on_c, 0, 48, 0
3, 9600, Note_on_c, 0, 52, 41
3, 9840, Note_on_c, 0, 52, 0
3, 9840, Note_on_c, 0, 55, 41
3, 10080, Note_on_c, 0, 55, 0
3, 10080, Note_on_c, 0, 43, 45
3, 10320, Note_on_c, 0, 43, 0
3, 10320, Note_on_c, 0, 50, 38
3, 10560, Note_on_c, 0, 50, 0
3, 10560, Note_on_c, 0, 55, 38
3, 10800, Note_on_c, 0, 55, 0
3, 10800, Note_on_c, 0, 48, 45
3, 11040, Note_on_c, 0, 48, 0
3, 11040, Note_on_c, 0, 52, 38
3, 11280, Note_on_c, 0, 52, 0
3, 11280, Note_on_c, 0, 55, 38
3, 11520, Note_on_c, 0, 55, 0
3, 11520, Note_on_c, 0, 60, 28
3, 12000, Note_on_c, 0, 60, 0
3, 12240, Note_on_c, 0, 60, 28
3, 12720, Note_on_c, 0, 60, 0
3, 12960, Note_on_c, 0, 60, 45
3, 13200, Note_on_c, 0, 60, 0
3, 13200, Note_on_c, 0, 60, 39
3, 13440, Note_on_c, 0, 60, 0
3, 13440, Note_on_c, 0, 60, 39
3, 13680, Note_on_c, 0, 60, 0
3, 13680, Note_on_c, 0, 60, 45
3, 13920, Note_on_c, 0, 60, 0
3, 13920, Note_on_c, 0, 60, 39
3, 14160, Note_on_c, 0, 60, 0
3, 14160, Note_on_c, 0, 60, 39
3, 14400, Note_on_c, 0, 60, 0
3, 14400, Note_on_c, 0, 60, 28
3, 14880, Note_on_c, 0, 60, 0
3, 15120, Note_on_c, 0, 55, 28
3, 15120, Note_on_c, 0, 60, 28
3, 15600, Note_on_c, 0, 60, 0
3, 15600, Note_on_c, 0, 55, 0
3, 15840, Note_on_c, 0, 50, 38
3, 15840, Note_on_c, 0, 57, 45
3, 16080, Note_on_c, 0, 57, 0
3, 16080, Note_on_c, 0, 50, 0
3, 16080, Note_on_c, 0, 50, 33
3, 16080, Note_on_c, 0, 57, 39
3, 16320, Note_on_c, 0, 57, 0
3, 16320, Note_on_c, 0, 50, 0
3, 16320, Note_on_c, 0, 50, 33
3, 16320, Note_on_c, 0, 57, 39
3, 16560, Note_on_c, 0, 57, 0
3, 16560, Note_on_c, 0, 50, 0
3, 16560, Note_on_c, 0, 55, 38
3, 16560, Note_on_c, 0, 59, 45
3, 16800, Note_on_c, 0, 59, 0
3, 16800, Note_on_c, 0, 55, 0
3, 16800, Note_on_c, 0, 55, 33
3, 16800, Note_on_c, 0, 59, 39
3, 17040, Note_on_c, 0, 59, 0
3, 17040, Note_on_c, 0, 55, 0
3, 17040, Note_on_c, 0, 55, 33
3, 17040, Note_on_c, 0, 59, 39
3, 17280, Note_on_c, 0, 59, 0
3, 17280, Note_on_c, 0, 55, 0
3, 17280, Note_on_c, 0, 55, 38
3, 17280, Note_on_c, 0, 59, 45
3, 17520, Note_on_c, 0, 59, 0
3, 17520, Note_on_c, 0, 55, 0
3, 17520, Note_on_c, 0, 55, 33
3, 17520, Note_on_c, 0, 59, 39
3, 17760, Note_on_c, 0, 59, 0
3, 17760, Note_on_c, 0, 55, 0
3, 17760, Note_on_c, 0, 55, 33
3, 17760, Note_on_c, 0, 59, 39
3, 18000, Note_on_c, 0, 59, 0
3, 18000, Note_on_c, 0, 55, 0
3, 18000, Note_on_c, 0, 55, 38
3, 18000, Note_on_c, 0, 60, 45
3, 18240, Note_on_c, 0, 60, 0
3, 18240, Note_on_c, 0, 55, 0
3, 18240, Note_on_c, 0, 55, 33
3, 18240, Note_on_c, 0, 60, 39
3, 18480, Note_on_c, 0, 60, 0
3, 18480, Note_on_c, 0, 55, 0
3, 18480, Note_on_c, 0, 55, 33
3, 18480, Note_on_c, 0, 60, 39
3, 18720, Note_on_c, 0, 60, 0
3, 18720, Note_on_c, 0, 55, 0
3, 18720, Note_on_c, 0, 50, 38
3, 18720, Note_on_c, 0, 57, 45
3, 18960, Note_on_c, 0, 57, 0
3, 18960, Note_on_c, 0, 50, 0
3, 18960, Note_on_c, 0, 50, 33
3, 18960, Note_on_c, 0, 57, 39
3, 19200, Note_on_c, 0, 57, 0
3, 19200, Note_on_c, 0, 50, 0
3, 19200, Note_on_c, 0, 50, 33
3, 19200, Note_on_c, 0, 57, 39
3, 19440, Note_on_c, 0, 57, 0
3, 19440, Note_on_c, 0, 50, 0
3, 19440, Note_on_c, 0, 55, 38
3, 19440, Note_on_c, 0, 59, 45
3, 19680, Note_on_c, 0, 59, 0
3, 19680, Note_on_c, 0, 55, 0
3, 19680, Note_on_c, 0, 55, 33
3, 19680, Note_on_c, 0, 59, 39
3, 19920, Note_on_c, 0, 59, 0
3, 19920, Note_on_c, 0, 55, 0
3, 19920, Note_on_c, 0, 55, 33
3, 19920, Note_on_c, 0, 59, 39
3, 20160, Note_on_c, 0, 59, 0
3, 20160, Note_on_c, 0, 55, 0
3, 20160, Note_on_c, 0, 55, 38
3, 20160, Note_on_c, 0, 59, 45
3, 20400, Note_on_c, 0, 59, 0
3, 20400, Note_on_c, 0, 55, 0
3, 20400, Note_on_c, 0, 55, 33
3, 20400, Note_on_c, 0, 59, 39
3, 20640, Note_on_c, 0, 59, 0
3, 20640, Note_on_c, 0, 55, 0
3, 20640, Note_on_c, 0, 55, 33
3, 20640, Note_on_c, 0, 59, 39
3, 20880, Note_on_c, 0, 59, 0
3, 20880, Note_on_c, 0, 55, 0
3, 20880, Note_on_c, 0, 55, 38
3, 20880, Note_on_c, 0, 59, 45
3, 21000, Note_on_c, 0, 59, 0
3, 21000, Note_on_c, 0, 55, 0
3, 21600, Note_on_c, 0, 55, 38
3, 21600, Note_on_c, 0, 59, 45
3, 21720, Note_on_c, 0, 59, 0
3, 21720, Note_on_c, 0, 55, 0
3, 22320, Note_on_c, 0, 55, 41
3, 22560, Note_on_c, 0, 55, 0
3, 22560, Note_on_c, 0, 59, 38
3, 22800, Note_on_c, 0, 59, 0
3, 22800, Note_on_c, 0, 62, 34
3, 23040, Note_on_c, 0, 62, 0
3, 23040, Note_on_c, 0, 55, 30
3, 23280, Note_on_c, 0, 55, 0
3, 23280, Note_on_c, 0, 59, 29
3, 23520, Note_on_c, 0, 59, 0
3, 23520, Note_on_c, 0, 62, 24
3, 23760, Note_on_c, 0, 62, 0
3, 24480, Note_on_c, 0, 48, 25
3, 24720, Note_on_c, 0, 48, 0
3, 24720, Note_on_c, 0, 52, 21
3, 24960, Note_on_c, 0, 52, 0
3, 24960, Note_on_c, 0, 55, 21
3, 25200, Note_on_c, 0, 55, 0
3, 25200, Note_on_c, 0, 48, 25
3, 25440, Note_on_c, 0, 48, 0
3, 25440, Note_on_c, 0, 52, 23
3, 25680, Note_on_c, 0, 52, 0
3, 25680, Note_on_c, 0, 55, 23
3, 25920, Note_on_c, 0, 55, 0
3, 25920, Note_on_c, 0, 48, 25
3, 26160, Note_on_c, 0, 48, 0
3, 26160, Note_on_c, 0, 50, 20
3, 26400, Note_on_c, 0, 50, 0
3, 26400, Note_on_c, 0, 53, 20
3, 26640, Note_on_c, 0, 53, 0
3, 26640, Note_on_c, 0, 48, 25
3, 26880, Note_on_c, 0, 48, 0
3, 26880, Note_on_c, 0, 52, 23
3, 27120, Note_on_c, 0, 52, 0
3, 27120, Note_on_c, 0, 55, 23
3, 27360, Note_on_c, 0, 55, 0
3, 27360, Note_on_c, 0, 48, 25
3, 27600, Note_on_c, 0, 48, 0
3, 27600, Note_on_c, 0, 52, 21
3, 27840, Note_on_c, 0, 52, 0
3, 27840, Note_on_c, 0, 55, 21
3, 28080, Note_on_c, 0, 55, 0
3, 28080, Note_on_c, 0, 48, 25
3, 28320, Note_on_c, 0, 48, 0
3, 28320, Note_on_c, 0, 52, 23
3, 28560, Note_on_c, 0, 52, 0
3, 28560, Note_on_c, 0, 55, 23
3, 28800, Note_on_c, 0, 55, 0
3, 28800, Note_on_c, 0, 43, 25
3, 29040, Note_on_c, 0, 43, 0
3, 29040, Note_on_c, 0, 50, 20
3, 29280, Note_on_c, 0, 50, 0
3, 29280, Note_on_c, 0, 55, 20
3, 29520, Note_on_c, 0, 55, 0
3, 29520, Note_on_c, 0, 48, 25
3, 29760, Note_on_c, 0, 48, 0
3, 29760, Note_on_c, 0, 52, 20
3, 30000, Note_on_c, 0, 52, 0
3, 30000, Note_on_c, 0, 55, 20
3, 30240, Note_on_c, 0, 55, 0
3, 30240, Note_on_c, 0, 48, 45
3, 30480, Note_on_c, 0, 48, 0
3, 30480, Note_on_c, 0, 52, 39
3, 30720, Note_on_c, 0, 52, 0
3, 30720, Note_on_c, 0, 55, 39
3, 30960, Note_on_c, 0, 55, 0
3, 30960, Note_on_c, 0, 48, 45
3, 31200, Note_on_c, 0, 48, 0
3, 31200, Note_on_c, 0, 52, 41
3, 31440, Note_on_c, 0, 52, 0
3, 31440, Note_on_c, 0, 55, 41
3, 31680, Note_on_c, 0, 55, 0
3, 31680, Note_on_c, 0, 48, 45
3, 31920, Note_on_c, 0, 48, 0
3, 31920, Note_on_c, 0, 50, 38
3, 32160, Note_on_c, 0, 50, 0
3, 32160, Note_on_c, 0, 53, 38
3, 32400, Note_on_c, 0, 53, 0
3, 32400, Note_on_c, 0, 48, 45
3, 32640, Note_on_c, 0, 48, 0
3, 32640, Note_on_c, 0, 52, 41
3, 32880, Note_on_c, 0, 52, 0
3, 32880, Note_on_c, 0, 55, 41
3, 33120, Note_on_c, 0, 55, 0
3, 33120, Note_on_c, 0, 48, 45
3, 33360, Note_on_c, 0, 48, 0
3, 33360, Note_on_c, 0, 52, 39
3, 33600, Note_on_c, 0, 52, 0
3, 33600, Note_on_c, 0, 55, 39
3, 33840, Note_on_c, 0, 55, 0
3, 33840, Note_on_c, 0, 48, 45
3, 34080, Note_on_c, 0, 48, 0
3, 34080, Note_on_c, 0, 52, 41
3, 34320, Note_on_c, 0, 52, 0
3, 34320, Note_on_c, 0, 55, 41
3, 34560, Note_on_c, 0, 55, 0
3, 34560, Note_on_c, 0, 43, 45
3, 34800, Note_on_c, 0, 43, 0
3, 34800, Note_on_c, 0, 50, 38
3, 35040, Note_on_c, 0, 50, 0
3, 35040, Note_on_c, 0, 55, 38
3, 35280, Note_on_c, 0, 55, 0
3, 35280, Note_on_c, 0, 48, 45
3, 35520, Note_on_c, 0, 48, 0
3, 35520, Note_on_c, 0, 52, 38
3, 35760, Note_on_c, 0, 52, 0
3, 35760, Note_on_c, 0, 55, 38
3, 36000, Note_on_c, 0, 55, 0
3, 36000, Note_on_c, 0, 60, 28
3, 36480, Note_on_c, 0, 60, 0
3, 36720, Note_on_c, 0, 60, 28
3, 37200, Note_on_c, 0, 60, 0
3, 37440, Note_on_c, 0, 60, 45
3, 37680, Note_on_c, 0, 60, 0
3, 37680, Note_on_c, 0, 60, 39
3, 37920, Note_on_c, 0, 60, 0
3, 37920, Note_on_c, 0, 60, 39
3, 38160, Note_on_c, 0, 60, 0
3, 38160, Note_on_c, 0, 60, 45
3, 38400, Note_on_c, 0, 60, 0
3, 38400, Note_on_c, 0, 55, 39
3, 38640, Note_on_c, 0, 55, 0
3, 38640, Note_on_c, 0, 52, 39
3, 38880, Note_on_c, 0, 52, 0
3, 38880, Note_on_c, 0, 48, 45
3, 39120, Note_on_c, 0, 48, 0
3, 39120, Note_on_c, 0, 50, 39
3, 39360, Note_on_c, 0, 50, 0
3, 39360, Note_on_c, 0, 52, 39
3, 39600, Note_on_c, 0, 52, 0
3, 39600, Note_on_c, 0, 53, 45
3, 40080, Note_on_c, 0, 53, 0
3, 40320, Note_on_c, 0, 43, 45
3, 40800, Note_on_c, 0, 43, 0
3, 41040, Note_on_c, 0, 48, 45
3, 41280, Note_on_c, 0, 48, 0
3, 41280, Note_on_c, 0, 52, 38
3, 41520, Note_on_c, 0, 52, 0
3, 41520, Note_on_c, 0, 55, 38
3, 41760, Note_on_c, 0, 55, 0
3, 41760, Note_on_c, 0, 60, 28
3, 42240, Note_on_c, 0, 60, 0
3, 42480, Note_on_c, 0, 60, 28
3, 42960, Note_on_c, 0, 60, 0
3, 43200, Note_on_c, 0, 60, 45
3, 43440, Note_on_c, 0, 60, 0
3, 43440, Note_on_c, 0, 60, 39
3, 43680, Note_on_c, 0, 60, 0
3, 43680, Note_on_c, 0, 60, 39
3, 43920, Note_on_c, 0, 60, 0
3, 43920, Note_on_c, 0, 60, 45
3, 44160, Note_on_c, 0, 60, 0
3, 44160, Note_on_c, 0, 55, 39
3, 44400, Note_on_c, 0, 55, 0
3, 44400, Note_on_c, 0, 52, 39
3, 44640, Note_on_c, 0, 52, 0
3, 44640, Note_on_c, 0, 48, 45
3, 44880, Note_on_c, 0, 48, 0
3, 44880, Note_on_c, 0, 50, 39
3, 45120, Note_on_c, 0, 50, 0
3, 45120, Note_on_c, 0, 52, 39
3, 45360, Note_on_c, 0, 52, 0
3, 45360, Note_on_c, 0, 53, 47
3, 45600, Note_on_c, 0, 53, 0
3, 45600, Note_on_c, 0, 53, 39
3, 45840, Note_on_c, 0, 53, 0
3, 45840, Note_on_c, 0, 53, 39
3, 46080, Note_on_c, 0, 53, 0
3, 46080, Note_on_c, 0, 43, 48
3, 46320, Note_on_c, 0, 43, 0
3, 46320, Note_on_c, 0, 43, 41
3, 46560, Note_on_c, 0, 43, 0
3, 46560, Note_on_c, 0, 43, 42
3, 46800, Note_on_c, 0, 43, 0
3, 46800, Note_on_c, 0, 48, 53
3, 47040, Note_on_c, 0, 48, 0
3, 47040, Note_on_c, 0, 52, 40
3, 47280, Note_on_c, 0, 52, 0
3, 47280, Note_on_c, 0, 55, 40
3, 47520, Note_on_c, 0, 55, 0
3, 47520, Note_on_c, 0, 48, 53
3, 47760, Note_on_c, 0, 48, 0
3, 47760, Note_on_c, 0, 52, 40
3, 48000, Note_on_c, 0, 52, 0
3, 48000, Note_on_c, 0, 55, 40
3, 48240, Note_on_c, 0, 55, 0
3, 48240, Note_on_c, 0, 48, 53
3, 48480, Note_on_c, 0, 48, 0
3, 48480, Note_on_c, 0, 52, 40
3, 48720, Note_on_c, 0, 52, 0
3, 48720, Note_on_c, 0, 55, 40
3, 48960, Note_on_c, 0, 55, 0
3, 48960, Note_on_c, 0, 48, 53
3, 49200, Note_on_c, 0, 48, 0
3, 49200, Note_on_c, 0, 52, 40
3, 49440, Note_on_c, 0, 52, 0
3, 49440, Note_on_c, 0, 55, 40
3, 49680, Note_on_c, 0, 55, 0
3, 49680, Note_on_c, 0, 48, 53
3, 50160, Note_on_c, 0, 48, 0
3, 50160, End_track
4, 0, Start_track
4, 0, Title_t, "Pedale"
4, 0, Program_c, 0, 0
4, 812, Control_c, 0, 64, 127
4, 1216, Control_c, 0, 64, 0
4, 1306, Control_c, 0, 64, 127
4, 1440, Control_c, 0, 64, 0
4, 2231, Control_c, 0, 64, 127
4, 2423, Control_c, 0, 64, 0
4, 3671, Control_c, 0, 64, 127
4, 4092, Control_c, 0, 64, 0
4, 4186, Control_c, 0, 64, 127
4, 4320, Control_c, 0, 64, 0
4, 4398, Control_c, 0, 64, 127
4, 4574, Control_c, 0, 64, 0
4, 4659, Control_c, 0, 64, 127
4, 4811, Control_c, 0, 64, 0
4, 4906, Control_c, 0, 64, 127
4, 5040, Control_c, 0, 64, 0
4, 5134, Control_c, 0, 64, 127
4, 5300, Control_c, 0, 64, 0
4, 6544, Control_c, 0, 64, 127
4, 6977, Control_c, 0, 64, 0
4, 7066, Control_c, 0, 64, 127
4, 7200, Control_c, 0, 64, 0
4, 8012, Control_c, 0, 64, 127
4, 8177, Control_c, 0, 64, 0
4, 9417, Control_c, 0, 64, 127
4, 9850, Control_c, 0, 64, 0
4, 9932, Control_c, 0, 64, 127
4, 10087, Control_c, 0, 64, 0
4, 10179, Control_c, 0, 64, 127
4, 10334, Control_c, 0, 64, 0
4, 10391, Control_c, 0, 64, 127
4, 10573, Control_c, 0, 64, 0
4, 10638, Control_c, 0, 64, 127
4, 10800, Control_c, 0, 64, 0
4, 10960, Control_c, 0, 64, 127
4, 11060, Control_c, 0, 64, 0
4, 13003, Control_c, 0, 64, 127
4, 13689, Control_c, 0, 64, 0
4, 13814, Control_c, 0, 64, 127
4, 14400, Control_c, 0, 64, 0
4, 15892, Control_c, 0, 64, 127
4, 16097, Control_c, 0, 64, 0
4, 16155, Control_c, 0, 64, 127
4, 16331, Control_c, 0, 64, 0
4, 16406, Control_c, 0, 64, 127
4, 16560, Control_c, 0, 64, 0
4, 16694, Control_c, 0, 64, 127
4, 17058, Control_c, 0, 64, 0
4, 17132, Control_c, 0, 64, 127
4, 17280, Control_c, 0, 64, 0
4, 17337, Control_c, 0, 64, 127
4, 17534, Control_c, 0, 64, 0
4, 17595, Control_c, 0, 64, 127
4, 17777, Control_c, 0, 64, 0
4, 17829, Control_c, 0, 64, 127
4, 18007, Control_c, 0, 64, 0
4, 18092, Control_c, 0, 64, 127
4, 18258, Control_c, 0, 64, 0
4, 18311, Control_c, 0, 64, 127
4, 18494, Control_c, 0, 64, 0
4, 18579, Control_c, 0, 64, 127
4, 18720, Control_c, 0, 64, 0
4, 18789, Control_c, 0, 64, 127
4, 18977, Control_c, 0, 64, 0
4, 19023, Control_c, 0, 64, 127
4, 19212, Control_c, 0, 64, 0
4, 19275, Control_c, 0, 64, 127
4, 19449, Control_c, 0, 64, 0
4, 19567, Control_c, 0, 64, 127
4, 19931, Control_c, 0, 64, 0
4, 20005, Control_c, 0, 64, 127
4, 20172, Control_c, 0, 64, 0
4, 20252, Control_c, 0, 64, 127
4, 20416, Control_c, 0, 64, 0
4, 20475, Control_c, 0, 64, 127
4, 20653, Control_c, 0, 64, 0
4, 20715, Control_c, 0, 64, 127
4, 20885, Control_c, 0, 64, 0
4, 21410, Control_c, 0, 64, 127
4, 21600, Control_c, 0, 64, 0
4, 22101, Control_c, 0, 64, 127
4, 22320, Control_c, 0, 64, 0
4, 25264, Control_c, 0, 64, 127
4, 25694, Control_c, 0, 64, 0
4, 25751, Control_c, 0, 64, 127
4, 25920, Control_c, 0, 64, 0
4, 26683, Control_c, 0, 64, 127
4, 26899, Control_c, 0, 64, 0
4, 28179, Control_c, 0, 64, 127
4, 28573, Control_c, 0, 64, 0
4, 28659, Control_c, 0, 64, 127
4, 28800, Control_c, 0, 64, 0
4, 28878, Control_c, 0, 64, 127
4, 29055, Control_c, 0, 64, 0
4, 29139, Control_c, 0, 64, 127
4, 29299, Control_c, 0, 64, 0
4, 29351, Control_c, 0, 64, 127
4, 29520, Control_c, 0, 64, 0
4, 29614, Control_c, 0, 64, 127
4, 29780, Control_c, 0, 64, 0
4, 31017, Control_c, 0, 64, 127
4, 31450, Control_c, 0, 64, 0
4, 31511, Control_c, 0, 64, 127
4, 31687, Control_c, 0, 64, 0
4, 32471, Control_c, 0, 64, 127
4, 32656, Control_c, 0, 64, 0
4, 33911, Control_c, 0, 64, 127
4, 34332, Control_c, 0, 64, 0
4, 34419, Control_c, 0, 64, 127
4, 34576, Control_c, 0, 64, 0
4, 34645, Control_c, 0, 64, 127
4, 34817, Control_c, 0, 64, 0
4, 34899, Control_c, 0, 64, 127
4, 35061, Control_c, 0, 64, 0
4, 35118, Control_c, 0, 64, 127
4, 35280, Control_c, 0, 64, 0
4, 35387, Control_c, 0, 64, 127
4, 35534, Control_c, 0, 64, 0
4, 37525, Control_c, 0, 64, 127
4, 38160, Control_c, 0, 64, 0
4, 38280, Control_c, 0, 64, 127
4, 38417, Control_c, 0, 64, 0
4, 38725, Control_c, 0, 64, 127
4, 38880, Control_c, 0, 64, 0
4, 38958, Control_c, 0, 64, 127
4, 39141, Control_c, 0, 64, 0
4, 39219, Control_c, 0, 64, 127
4, 39373, Control_c, 0, 64, 0
4, 39431, Control_c, 0, 64, 127
4, 39600, Control_c, 0, 64, 0
4, 41080, Control_c, 0, 64, 127
4, 41298, Control_c, 0, 64, 0
4, 43292, Control_c, 0, 64, 127
4, 43920, Control_c, 0, 64, 0
4, 44005, Control_c, 0, 64, 127
4, 44176, Control_c, 0, 64, 0
4, 44464, Control_c, 0, 64, 127
4, 44648, Control_c, 0, 64, 0
4, 44704, Control_c, 0, 64, 127
4, 44897, Control_c, 0, 64, 0
4, 44972, Control_c, 0, 64, 127
4, 45134, Control_c, 0, 64, 0
4, 45184, Control_c, 0, 64, 127
4, 45368, Control_c, 0, 64, 0
4, 45438, Control_c, 0, 64, 127
4, 45614, Control_c, 0, 64, 0
4, 45678, Control_c, 0, 64, 127
4, 45852, Control_c, 0, 64, 0
4, 45918, Control_c, 0, 64, 127
4, 46089, Control_c, 0, 64, 0
4, 46151, Control_c, 0, 64, 127
4, 46337, Control_c, 0, 64, 0
4, 46426, Control_c, 0, 64, 127
4, 46576, Control_c, 0, 64, 0
4, 46645, Control_c, 0, 64, 127
4, 46802, Control_c, 0, 64, 0
4, 46960, Control_c, 0, 64, 127
4, 47520, Control_c, 0, 64, 0
4, 47694, Control_c, 0, 64, 127
4, 48247, Control_c, 0, 64, 0
4, 48480, Control_c, 0, 64, 127
4, 48965, Control_c, 0, 64, 0
4, 49094, Control_c, 0, 64, 127
4, 49680, Control_c, 0, 64, 0
4, 49814, Control_c, 0, 64, 127
4, 50880, Control_c, 0, 64, 0
4, 50880, End_track
5, 0, Start_track
5, 0, Title_t, "Clementi: Sonatatina Opus 26, No. 1, 3. movement"
5, 0, End_track
6, 0, Start_track
6, 0, Title_t, "Copyright © 2010 by Bernd Krueger"
6, 0, End_track
7, 0, Start_track
7, 0, Title_t, "http://www.piano-midi.de/"
7, 0, End_track
8, 0, Start_track
8, 0, Title_t, "Edition: 2010-11-20"
8, 0, End_track
9, 0, Start_track
9, 0, Title_t, "Spur 8"
9, 0, End_track
10, 0, Start_track
10, 0, Title_t, "Spur 9"
10, 0, End_track
11, 0, Start_track
11, 0, Title_t, "Spur 10"
11, 0, End_track
12, 0, Start_track
12, 0, Title_t, "Spur 11"
12, 0, End_track
13, 0, Start_track
13, 0, Title_t, "Spur 12"
13, 0, End_track
14, 0, Start_track
14, 0, Title_t, "Spur 13"
14, 0, End_track
15, 0, Start_track
15, 0, Title_t, "Spur 14"
15, 0, End_track
16, 0, Start_track
16, 0, Title_t, "Spur 15"
16, 0, End_track
17, 0, Start_track
17, 0, Title_t, "Spur 16"
17, 0, End_track
0, 0, End_of_file
