0, 0, Header, 1, 17, 480
1, 0, Start_track
1, 0, Title_t, "Clementi: Sonatine Opus 36 Nr. 1, 1. Satz"
1, 0, Copyright_t, "Copyright © 2010 by Bernd Krueger"
1, 0, Text_t, "Muzio Clementi"
1, 0, Text_t, "Spirituoso"
1, 0, Text_t, "Erstellt: 13.11.2010\012"
1, 0, Text_t, "Dauer: 1:31 Minuten\012"
1, 0, Time_signature, 4, 2, 24, 8
1, 0, Key_signature, 0, "major"
1, 0, Tempo, 298196
1, 0, Marker_t, "Spirituoso - Teil 1"
1, 480, Tempo, 289464
1, 720, Tempo, 298939
1, 960, Tempo, 294493
1, 1440, Tempo, 310688
1, 1920, Tempo, 298939
1, 2400, Tempo, 289464
1, 2640, Tempo, 298939
1, 2880, Tempo, 297442
1, 3360, Tempo, 293772
1, 3821, Tempo, 284603
1, 3840, Tempo, 287370
1, 4627, Tempo, 293040
1, 4666, Tempo, 293772
1, 4704, Tempo, 295960
1, 4762, Tempo, 291602
1, 4781, Tempo, 286670
1, 4800, Tempo, 286670
1, 5491, Tempo, 291602
1, 5520, Tempo, 301220
1, 5741, Tempo, 286670
1, 5837, Tempo, 287370
1, 5914, Tempo, 288060
1, 5991, Tempo, 288753
1, 6087, Tempo, 289464
1, 6163, Tempo, 290177
1, 6240, Tempo, 290881
1, 6336, Tempo, 291602
1, 6413, Tempo, 292312
1, 6490, Tempo, 293040
1, 6720, Tempo, 290881
1, 6759, Tempo, 290881
1, 6835, Tempo, 291602
1, 6893, Tempo, 292312
1, 6970, Tempo, 293040
1, 7027, Tempo, 293772
1, 7104, Tempo, 294493
1, 7162, Tempo, 295217
1, 7219, Tempo, 295960
1, 7296, Tempo, 296707
1, 7354, Tempo, 297442
1, 7431, Tempo, 298196
1, 7440, Tempo, 319898
1, 7680, Tempo, 295217
1, 8160, Tempo, 290177
1, 8400, Tempo, 303536
1, 8640, Tempo, 295217
1, 9120, Tempo, 305095
1, 9600, Tempo, 293772
1, 10080, Tempo, 288060
1, 10320, Tempo, 298196
1, 10560, Tempo, 294493
1, 10800, Tempo, 312321
1, 11040, Tempo, 292312
1, 11520, Tempo, 289464
1, 11539, Tempo, 284603
1, 11597, Tempo, 285293
1, 11655, Tempo, 285973
1, 11712, Tempo, 286670
1, 11770, Tempo, 287370
1, 11808, Tempo, 288060
1, 11866, Tempo, 288753
1, 11923, Tempo, 289464
1, 11981, Tempo, 290177
1, 12019, Tempo, 290881
1, 12077, Tempo, 291602
1, 12135, Tempo, 292312
1, 12192, Tempo, 293040
1, 12231, Tempo, 293772
1, 12288, Tempo, 294493
1, 12346, Tempo, 295217
1, 12403, Tempo, 295960
1, 12442, Tempo, 296707
1, 12480, Tempo, 297442
1, 12499, Tempo, 286670
1, 12557, Tempo, 287370
1, 12615, Tempo, 288060
1, 12653, Tempo, 288753
1, 12711, Tempo, 289464
1, 12768, Tempo, 290177
1, 12807, Tempo, 290881
1, 12864, Tempo, 291602
1, 12903, Tempo, 292312
1, 12922, Tempo, 292312
1, 12960, Tempo, 293040
1, 12979, Tempo, 293772
1, 13018, Tempo, 294493
1, 13037, Tempo, 295217
1, 13075, Tempo, 295960
1, 13095, Tempo, 296707
1, 13133, Tempo, 297442
1, 13152, Tempo, 298196
1, 13171, Tempo, 298939
1, 13210, Tempo, 299700
1, 13229, Tempo, 300466
1, 13267, Tempo, 301220
1, 13287, Tempo, 301978
1, 13325, Tempo, 302755
1, 13344, Tempo, 303536
1, 13383, Tempo, 304306
1, 13402, Tempo, 305095
1, 13421, Tempo, 305873
1, 13440, Tempo, 296707
1, 13594, Tempo, 295960
1, 13728, Tempo, 295217
1, 13863, Tempo, 294493
1, 14016, Tempo, 293772
1, 14151, Tempo, 293040
1, 14285, Tempo, 292312
1, 14400, Tempo, 291602
1, 14688, Tempo, 290881
1, 14957, Tempo, 290177
1, 15053, Tempo, 292312
1, 15120, Tempo, 305095
1, 15360, Tempo, 303536
1, 15600, Tempo, 297442
1, 15840, Tempo, 297442
1, 16320, Tempo, 299700
1, 17040, Tempo, 307472
1, 17280, Tempo, 298196
1, 17453, Tempo, 297442
1, 17607, Tempo, 296707
1, 17779, Tempo, 295960
1, 17933, Tempo, 295217
1, 18106, Tempo, 294493
1, 18259, Tempo, 293772
1, 18432, Tempo, 293040
1, 18586, Tempo, 292312
1, 18663, Tempo, 293040
1, 18960, Tempo, 305873
1, 19200, Tempo, 301978
1, 19440, Tempo, 298939
1, 19680, Tempo, 295960
1, 20880, Tempo, 309869
1, 21082, Tempo, 298196
1, 21235, Tempo, 297442
1, 21389, Tempo, 296707
1, 21523, Tempo, 295960
1, 21677, Tempo, 295217
1, 21811, Tempo, 294493
1, 21965, Tempo, 293772
1, 22080, Tempo, 292312
1, 22215, Tempo, 293040
1, 22349, Tempo, 293772
1, 22483, Tempo, 294493
1, 22599, Tempo, 295217
1, 22733, Tempo, 295960
1, 22867, Tempo, 296707
1, 22983, Tempo, 297442
1, 23040, Tempo, 290177
1, 23280, Tempo, 300466
1, 23520, Tempo, 289464
1, 23760, Tempo, 309055
1, 24000, Tempo, 291602
1, 24240, Tempo, 298939
1, 24480, Tempo, 292312
1, 24720, Tempo, 315640
1, 24960, Tempo, 294493
1, 25680, Tempo, 314812
1, 25920, Tempo, 295217
1, 26640, Tempo, 321630
1, 26880, Tempo, 314812
1, 27120, Tempo, 326052
1, 27600, Tempo, 345006
1, 27840, Tempo, 323642
1, 28800, Tempo, 298196
1, 28800, Marker_t, "Teil 1 Wiederholung"
1, 29280, Tempo, 289464
1, 29520, Tempo, 298939
1, 29760, Tempo, 294493
1, 30240, Tempo, 310688
1, 30720, Tempo, 298939
1, 31200, Tempo, 289464
1, 31440, Tempo, 298939
1, 31680, Tempo, 297442
1, 32160, Tempo, 293772
1, 32621, Tempo, 284603
1, 32640, Tempo, 287370
1, 33427, Tempo, 293040
1, 33466, Tempo, 293772
1, 33504, Tempo, 295960
1, 33562, Tempo, 291602
1, 33581, Tempo, 286670
1, 33600, Tempo, 286670
1, 34291, Tempo, 291602
1, 34320, Tempo, 301220
1, 34541, Tempo, 286670
1, 34637, Tempo, 287370
1, 34714, Tempo, 288060
1, 34791, Tempo, 288753
1, 34887, Tempo, 289464
1, 34963, Tempo, 290177
1, 35040, Tempo, 290881
1, 35136, Tempo, 291602
1, 35213, Tempo, 292312
1, 35290, Tempo, 293040
1, 35520, Tempo, 290881
1, 35559, Tempo, 290881
1, 35635, Tempo, 291602
1, 35693, Tempo, 292312
1, 35770, Tempo, 293040
1, 35827, Tempo, 293772
1, 35904, Tempo, 294493
1, 35962, Tempo, 295217
1, 36019, Tempo, 295960
1, 36096, Tempo, 296707
1, 36154, Tempo, 297442
1, 36231, Tempo, 298196
1, 36240, Tempo, 319898
1, 36480, Tempo, 295217
1, 36960, Tempo, 290177
1, 37200, Tempo, 303536
1, 37440, Tempo, 295217
1, 37920, Tempo, 305095
1, 38400, Tempo, 293772
1, 38880, Tempo, 288060
1, 39120, Tempo, 298196
1, 39360, Tempo, 294493
1, 39600, Tempo, 312321
1, 39840, Tempo, 292312
1, 40320, Tempo, 289464
1, 40339, Tempo, 284603
1, 40397, Tempo, 285293
1, 40455, Tempo, 285973
1, 40512, Tempo, 286670
1, 40570, Tempo, 287370
1, 40608, Tempo, 288060
1, 40666, Tempo, 288753
1, 40723, Tempo, 289464
1, 40781, Tempo, 290177
1, 40819, Tempo, 290881
1, 40877, Tempo, 291602
1, 40935, Tempo, 292312
1, 40992, Tempo, 293040
1, 41031, Tempo, 293772
1, 41088, Tempo, 294493
1, 41146, Tempo, 295217
1, 41203, Tempo, 295960
1, 41242, Tempo, 296707
1, 41280, Tempo, 297442
1, 41299, Tempo, 286670
1, 41357, Tempo, 287370
1, 41415, Tempo, 288060
1, 41453, Tempo, 288753
1, 41511, Tempo, 289464
1, 41568, Tempo, 290177
1, 41607, Tempo, 290881
1, 41664, Tempo, 291602
1, 41703, Tempo, 292312
1, 41722, Tempo, 292312
1, 41760, Tempo, 293040
1, 41779, Tempo, 293772
1, 41818, Tempo, 294493
1, 41837, Tempo, 295217
1, 41875, Tempo, 295960
1, 41895, Tempo, 296707
1, 41933, Tempo, 297442
1, 41952, Tempo, 298196
1, 41971, Tempo, 298939
1, 42010, Tempo, 299700
1, 42029, Tempo, 300466
1, 42067, Tempo, 301220
1, 42087, Tempo, 301978
1, 42125, Tempo, 302755
1, 42144, Tempo, 303536
1, 42183, Tempo, 304306
1, 42202, Tempo, 305095
1, 42221, Tempo, 305873
1, 42240, Tempo, 296707
1, 42394, Tempo, 295960
1, 42528, Tempo, 295217
1, 42663, Tempo, 294493
1, 42816, Tempo, 293772
1, 42951, Tempo, 293040
1, 43085, Tempo, 292312
1, 43200, Tempo, 291602
1, 43488, Tempo, 290881
1, 43757, Tempo, 290177
1, 43853, Tempo, 292312
1, 43920, Tempo, 305095
1, 44160, Tempo, 303536
1, 44400, Tempo, 297442
1, 44640, Tempo, 297442
1, 45120, Tempo, 299700
1, 45840, Tempo, 307472
1, 46080, Tempo, 298196
1, 46253, Tempo, 297442
1, 46407, Tempo, 296707
1, 46579, Tempo, 295960
1, 46733, Tempo, 295217
1, 46906, Tempo, 294493
1, 47059, Tempo, 293772
1, 47232, Tempo, 293040
1, 47386, Tempo, 292312
1, 47463, Tempo, 293040
1, 47760, Tempo, 305873
1, 48000, Tempo, 301978
1, 48240, Tempo, 298939
1, 48480, Tempo, 295960
1, 49680, Tempo, 309869
1, 49882, Tempo, 298196
1, 50035, Tempo, 297442
1, 50189, Tempo, 296707
1, 50323, Tempo, 295960
1, 50477, Tempo, 295217
1, 50611, Tempo, 294493
1, 50765, Tempo, 293772
1, 50880, Tempo, 292312
1, 51015, Tempo, 293040
1, 51149, Tempo, 293772
1, 51283, Tempo, 294493
1, 51399, Tempo, 295217
1, 51533, Tempo, 295960
1, 51667, Tempo, 296707
1, 51783, Tempo, 297442
1, 51840, Tempo, 290177
1, 52080, Tempo, 300466
1, 52320, Tempo, 289464
1, 52560, Tempo, 309055
1, 52800, Tempo, 291602
1, 53040, Tempo, 298939
1, 53280, Tempo, 292312
1, 53520, Tempo, 315640
1, 53760, Tempo, 294493
1, 54480, Tempo, 314812
1, 54720, Tempo, 295217
1, 55440, Tempo, 321630
1, 55680, Tempo, 314812
1, 55920, Tempo, 326052
1, 56400, Tempo, 345006
1, 56640, Tempo, 325256
1, 57600, Tempo, 295217
1, 57600, Marker_t, "Teil 2"
1, 58080, Tempo, 290177
1, 58320, Tempo, 303536
1, 58560, Tempo, 295217
1, 59040, Tempo, 305095
1, 59520, Tempo, 295217
1, 60000, Tempo, 290177
1, 60240, Tempo, 303536
1, 60480, Tempo, 295217
1, 60960, Tempo, 305095
1, 61440, Tempo, 295217
1, 61920, Tempo, 300466
1, 62400, Tempo, 294493
1, 62880, Tempo, 299700
1, 63360, Tempo, 294493
1, 63600, Tempo, 292312
1, 63840, Tempo, 290177
1, 64080, Tempo, 301220
1, 64320, Tempo, 292312
1, 64800, Tempo, 301978
1, 65280, Tempo, 290881
1, 65705, Tempo, 290177
1, 65743, Tempo, 288060
1, 65746, Tempo, 291602
1, 65900, Tempo, 290881
1, 66034, Tempo, 290177
1, 66169, Tempo, 289464
1, 66303, Tempo, 288753
1, 66437, Tempo, 288060
1, 66572, Tempo, 287370
1, 66706, Tempo, 286670
1, 66818, Tempo, 285973
1, 67010, Tempo, 286670
1, 67202, Tempo, 290177
1, 67394, Tempo, 289464
1, 67586, Tempo, 288753
1, 67778, Tempo, 288060
1, 67970, Tempo, 287370
1, 68162, Tempo, 286670
1, 68277, Tempo, 286670
1, 68431, Tempo, 287370
1, 68585, Tempo, 288060
1, 68738, Tempo, 288753
1, 68892, Tempo, 289464
1, 69045, Tempo, 290177
1, 69120, Tempo, 290881
1, 69360, Tempo, 295217
1, 69600, Tempo, 291602
1, 69840, Tempo, 302755
1, 70080, Tempo, 289464
1, 70800, Tempo, 308261
1, 71040, Tempo, 290881
1, 71520, Tempo, 296707
1, 72000, Tempo, 290881
1, 72039, Tempo, 290881
1, 72115, Tempo, 291602
1, 72173, Tempo, 292312
1, 72250, Tempo, 293040
1, 72307, Tempo, 293772
1, 72384, Tempo, 294493
1, 72442, Tempo, 295217
1, 72499, Tempo, 295960
1, 72576, Tempo, 296707
1, 72634, Tempo, 297442
1, 72711, Tempo, 298196
1, 72720, Tempo, 319898
1, 72960, Tempo, 298196
1, 73440, Tempo, 289464
1, 73680, Tempo, 298939
1, 73920, Tempo, 294493
1, 74400, Tempo, 310688
1, 74880, Tempo, 298939
1, 75360, Tempo, 289464
1, 75600, Tempo, 298939
1, 75840, Tempo, 297442
1, 76320, Tempo, 293772
1, 76781, Tempo, 284603
1, 76800, Tempo, 287370
1, 77587, Tempo, 293040
1, 77626, Tempo, 293772
1, 77664, Tempo, 295960
1, 77722, Tempo, 291602
1, 77741, Tempo, 286670
1, 77760, Tempo, 286670
1, 78451, Tempo, 291602
1, 78480, Tempo, 301220
1, 78701, Tempo, 286670
1, 78797, Tempo, 287370
1, 78874, Tempo, 288060
1, 78951, Tempo, 288753
1, 79047, Tempo, 289464
1, 79123, Tempo, 290177
1, 79200, Tempo, 290881
1, 79296, Tempo, 291602
1, 79373, Tempo, 292312
1, 79450, Tempo, 293040
1, 79680, Tempo, 290881
1, 79719, Tempo, 290881
1, 79795, Tempo, 291602
1, 79853, Tempo, 292312
1, 79930, Tempo, 293040
1, 79987, Tempo, 293772
1, 80064, Tempo, 294493
1, 80122, Tempo, 295217
1, 80179, Tempo, 295960
1, 80256, Tempo, 296707
1, 80314, Tempo, 297442
1, 80391, Tempo, 298196
1, 80400, Tempo, 319898
1, 80640, Tempo, 298196
1, 81120, Tempo, 289464
1, 81360, Tempo, 298939
1, 81600, Tempo, 294493
1, 82080, Tempo, 310688
1, 82560, Tempo, 298196
1, 83040, Tempo, 289464
1, 83280, Tempo, 298939
1, 83520, Tempo, 294493
1, 84000, Tempo, 310688
1, 84480, Tempo, 295960
1, 84960, Tempo, 307472
1, 85440, Tempo, 295960
1, 85920, Tempo, 305873
1, 86400, Tempo, 296707
1, 86554, Tempo, 295960
1, 86688, Tempo, 295217
1, 86823, Tempo, 294493
1, 86976, Tempo, 293772
1, 87111, Tempo, 293040
1, 87245, Tempo, 292312
1, 87360, Tempo, 291602
1, 87648, Tempo, 290881
1, 87917, Tempo, 290177
1, 88013, Tempo, 292312
1, 88080, Tempo, 305095
1, 88320, Tempo, 303536
1, 88560, Tempo, 297442
1, 88800, Tempo, 297442
1, 89280, Tempo, 299700
1, 90000, Tempo, 307472
1, 90240, Tempo, 298196
1, 90413, Tempo, 297442
1, 90567, Tempo, 296707
1, 90739, Tempo, 295960
1, 90893, Tempo, 295217
1, 91066, Tempo, 294493
1, 91219, Tempo, 293772
1, 91392, Tempo, 293040
1, 91546, Tempo, 292312
1, 91623, Tempo, 293040
1, 91920, Tempo, 305873
1, 92160, Tempo, 301978
1, 92400, Tempo, 298939
1, 92640, Tempo, 295960
1, 93840, Tempo, 309869
1, 94042, Tempo, 298196
1, 94195, Tempo, 297442
1, 94349, Tempo, 296707
1, 94483, Tempo, 295960
1, 94637, Tempo, 295217
1, 94771, Tempo, 294493
1, 94925, Tempo, 293772
1, 95040, Tempo, 292312
1, 95175, Tempo, 293040
1, 95309, Tempo, 293772
1, 95443, Tempo, 294493
1, 95559, Tempo, 295217
1, 95693, Tempo, 295960
1, 95827, Tempo, 296707
1, 95943, Tempo, 297442
1, 96000, Tempo, 290177
1, 96240, Tempo, 300466
1, 96480, Tempo, 289464
1, 96720, Tempo, 309055
1, 96960, Tempo, 291602
1, 97200, Tempo, 298939
1, 97440, Tempo, 292312
1, 97680, Tempo, 315640
1, 97920, Tempo, 294493
1, 98640, Tempo, 314812
1, 98880, Tempo, 295217
1, 99600, Tempo, 321630
1, 99840, Tempo, 314812
1, 100080, Tempo, 326052
1, 100560, Tempo, 345006
1, 100800, Tempo, 325256
1, 101760, Tempo, 295217
1, 101760, Marker_t, "Teil 2 Wiederholung"
1, 102240, Tempo, 290177
1, 102480, Tempo, 303536
1, 102720, Tempo, 295217
1, 103200, Tempo, 305095
1, 103680, Tempo, 295217
1, 104160, Tempo, 290177
1, 104400, Tempo, 303536
1, 104640, Tempo, 295217
1, 105120, Tempo, 305095
1, 105600, Tempo, 295217
1, 106080, Tempo, 300466
1, 106560, Tempo, 294493
1, 107040, Tempo, 299700
1, 107520, Tempo, 294493
1, 107760, Tempo, 292312
1, 108000, Tempo, 290177
1, 108240, Tempo, 301220
1, 108480, Tempo, 292312
1, 108960, Tempo, 301978
1, 109440, Tempo, 290881
1, 109865, Tempo, 290177
1, 109903, Tempo, 288060
1, 109906, Tempo, 291602
1, 110060, Tempo, 290881
1, 110194, Tempo, 290177
1, 110329, Tempo, 289464
1, 110463, Tempo, 288753
1, 110597, Tempo, 288060
1, 110732, Tempo, 287370
1, 110866, Tempo, 286670
1, 110978, Tempo, 285973
1, 111170, Tempo, 286670
1, 111362, Tempo, 290177
1, 111554, Tempo, 289464
1, 111746, Tempo, 288753
1, 111938, Tempo, 288060
1, 112130, Tempo, 287370
1, 112322, Tempo, 286670
1, 112437, Tempo, 286670
1, 112591, Tempo, 287370
1, 112745, Tempo, 288060
1, 112898, Tempo, 288753
1, 113052, Tempo, 289464
1, 113205, Tempo, 290177
1, 113280, Tempo, 290881
1, 113520, Tempo, 295217
1, 113760, Tempo, 291602
1, 114000, Tempo, 302755
1, 114240, Tempo, 289464
1, 114960, Tempo, 308261
1, 115200, Tempo, 290881
1, 115680, Tempo, 296707
1, 116160, Tempo, 290881
1, 116199, Tempo, 290881
1, 116275, Tempo, 291602
1, 116333, Tempo, 292312
1, 116410, Tempo, 293040
1, 116467, Tempo, 293772
1, 116544, Tempo, 294493
1, 116602, Tempo, 295217
1, 116659, Tempo, 295960
1, 116736, Tempo, 296707
1, 116794, Tempo, 297442
1, 116871, Tempo, 298196
1, 116880, Tempo, 319898
1, 117120, Tempo, 298196
1, 117600, Tempo, 289464
1, 117840, Tempo, 298939
1, 118080, Tempo, 294493
1, 118560, Tempo, 310688
1, 119040, Tempo, 298939
1, 119520, Tempo, 289464
1, 119760, Tempo, 298939
1, 120000, Tempo, 297442
1, 120480, Tempo, 293772
1, 120941, Tempo, 284603
1, 120960, Tempo, 287370
1, 121747, Tempo, 293040
1, 121786, Tempo, 293772
1, 121824, Tempo, 295960
1, 121882, Tempo, 291602
1, 121901, Tempo, 286670
1, 121920, Tempo, 286670
1, 122611, Tempo, 291602
1, 122640, Tempo, 301220
1, 122861, Tempo, 286670
1, 122957, Tempo, 287370
1, 123034, Tempo, 288060
1, 123111, Tempo, 288753
1, 123207, Tempo, 289464
1, 123283, Tempo, 290177
1, 123360, Tempo, 290881
1, 123456, Tempo, 291602
1, 123533, Tempo, 292312
1, 123610, Tempo, 293040
1, 123840, Tempo, 290881
1, 123879, Tempo, 290881
1, 123955, Tempo, 291602
1, 124013, Tempo, 292312
1, 124090, Tempo, 293040
1, 124147, Tempo, 293772
1, 124224, Tempo, 294493
1, 124282, Tempo, 295217
1, 124339, Tempo, 295960
1, 124416, Tempo, 296707
1, 124474, Tempo, 297442
1, 124551, Tempo, 298196
1, 124560, Tempo, 319898
1, 124800, Tempo, 298196
1, 125280, Tempo, 289464
1, 125520, Tempo, 298939
1, 125760, Tempo, 294493
1, 126240, Tempo, 310688
1, 126720, Tempo, 298196
1, 127200, Tempo, 289464
1, 127440, Tempo, 298939
1, 127680, Tempo, 294493
1, 128160, Tempo, 310688
1, 128640, Tempo, 295960
1, 129120, Tempo, 307472
1, 129600, Tempo, 295960
1, 130080, Tempo, 305873
1, 130560, Tempo, 296707
1, 130714, Tempo, 295960
1, 130848, Tempo, 295217
1, 130983, Tempo, 294493
1, 131136, Tempo, 293772
1, 131271, Tempo, 293040
1, 131405, Tempo, 292312
1, 131520, Tempo, 291602
1, 131808, Tempo, 290881
1, 132077, Tempo, 290177
1, 132173, Tempo, 292312
1, 132240, Tempo, 305095
1, 132480, Tempo, 303536
1, 132720, Tempo, 297442
1, 132960, Tempo, 297442
1, 133440, Tempo, 299700
1, 134160, Tempo, 307472
1, 134400, Tempo, 298196
1, 134573, Tempo, 297442
1, 134727, Tempo, 296707
1, 134899, Tempo, 295960
1, 135053, Tempo, 295217
1, 135226, Tempo, 294493
1, 135379, Tempo, 293772
1, 135552, Tempo, 293040
1, 135706, Tempo, 292312
1, 135783, Tempo, 293040
1, 136080, Tempo, 305873
1, 136320, Tempo, 301978
1, 136560, Tempo, 298939
1, 136800, Tempo, 295960
1, 138000, Tempo, 309869
1, 138202, Tempo, 298196
1, 138355, Tempo, 297442
1, 138509, Tempo, 296707
1, 138643, Tempo, 295960
1, 138797, Tempo, 295217
1, 138931, Tempo, 294493
1, 139085, Tempo, 293772
1, 139200, Tempo, 292312
1, 139335, Tempo, 293040
1, 139469, Tempo, 293772
1, 139603, Tempo, 294493
1, 139719, Tempo, 295217
1, 139853, Tempo, 295960
1, 139987, Tempo, 296707
1, 140103, Tempo, 297442
1, 140160, Tempo, 290177
1, 140400, Tempo, 300466
1, 140640, Tempo, 289464
1, 140880, Tempo, 309055
1, 141120, Tempo, 291602
1, 141360, Tempo, 298939
1, 141600, Tempo, 292312
1, 141840, Tempo, 315640
1, 142080, Tempo, 305111
1, 142800, Tempo, 320924
1, 143040, Tempo, 308737
1, 143520, Tempo, 314713
1, 143760, Tempo, 355114
1, 144000, Tempo, 350713
1, 144240, Tempo, 382922
1, 144480, Tempo, 421971
1, 144720, Tempo, 457352
1, 144960, Tempo, 300466
1, 145920, Tempo, 300466
1, 145920, End_track
2, 0, Start_track
2, 0, Title_t, "Piano right"
2, 0, Program_c, 0, 0
2, 0, Note_on_c, 0, 72, 70
2, 480, Note_on_c, 0, 72, 0
2, 480, Note_on_c, 0, 76, 58
2, 720, Note_on_c, 0, 76, 0
2, 720, Note_on_c, 0, 72, 52
2, 960, Note_on_c, 0, 72, 0
2, 960, Note_on_c, 0, 67, 47
2, 1140, Note_on_c, 0, 67, 0
2, 1440, Note_on_c, 0, 67, 43
2, 1620, Note_on_c, 0, 67, 0
2, 1920, Note_on_c, 0, 72, 70
2, 2400, Note_on_c, 0, 72, 0
2, 2400, Note_on_c, 0, 76, 57
2, 2640, Note_on_c, 0, 76, 0
2, 2640, Note_on_c, 0, 72, 51
2, 2880, Note_on_c, 0, 72, 0
2, 2880, Note_on_c, 0, 67, 47
2, 3060, Note_on_c, 0, 67, 0
2, 3360, Note_on_c, 0, 79, 58
2, 3600, Note_on_c, 0, 79, 0
2, 3840, Note_on_c, 0, 77, 65
2, 4080, Note_on_c, 0, 76, 48
2, 4104, Note_on_c, 0, 77, 0
2, 4320, Note_on_c, 0, 74, 55
2, 4344, Note_on_c, 0, 76, 0
2, 4560, Note_on_c, 0, 72, 47
2, 4584, Note_on_c, 0, 74, 0
2, 4800, Note_on_c, 0, 71, 61
2, 4824, Note_on_c, 0, 72, 0
2, 5040, Note_on_c, 0, 72, 54
2, 5064, Note_on_c, 0, 71, 0
2, 5280, Note_on_c, 0, 71, 62
2, 5304, Note_on_c, 0, 72, 0
2, 5520, Note_on_c, 0, 72, 54
2, 5544, Note_on_c, 0, 71, 0
2, 5760, Note_on_c, 0, 74, 68
2, 5784, Note_on_c, 0, 72, 0
2, 6000, Note_on_c, 0, 72, 59
2, 6024, Note_on_c, 0, 74, 0
2, 6240, Note_on_c, 0, 71, 56
2, 6264, Note_on_c, 0, 72, 0
2, 6480, Note_on_c, 0, 69, 53
2, 6504, Note_on_c, 0, 71, 0
2, 6720, Note_on_c, 0, 67, 70
2, 6744, Note_on_c, 0, 69, 0
2, 7200, Note_on_c, 0, 67, 0
2, 7680, Note_on_c, 0, 72, 41
2, 8160, Note_on_c, 0, 72, 0
2, 8160, Note_on_c, 0, 76, 34
2, 8400, Note_on_c, 0, 76, 0
2, 8400, Note_on_c, 0, 72, 28
2, 8640, Note_on_c, 0, 72, 0
2, 8640, Note_on_c, 0, 67, 28
2, 8820, Note_on_c, 0, 67, 0
2, 9120, Note_on_c, 0, 67, 24
2, 9300, Note_on_c, 0, 67, 0
2, 9600, Note_on_c, 0, 76, 41
2, 10080, Note_on_c, 0, 76, 0
2, 10080, Note_on_c, 0, 79, 35
2, 10320, Note_on_c, 0, 79, 0
2, 10320, Note_on_c, 0, 76, 30
2, 10560, Note_on_c, 0, 76, 0
2, 10560, Note_on_c, 0, 72, 28
2, 11040, Note_on_c, 0, 72, 0
2, 11040, Note_on_c, 0, 76, 39
2, 11280, Note_on_c, 0, 76, 0
2, 11280, Note_on_c, 0, 72, 34
2, 11520, Note_on_c, 0, 72, 0
2, 11520, Note_on_c, 0, 74, 38
2, 11760, Note_on_c, 0, 74, 0
2, 11760, Note_on_c, 0, 71, 31
2, 12000, Note_on_c, 0, 71, 0
2, 12000, Note_on_c, 0, 72, 34
2, 12240, Note_on_c, 0, 72, 0
2, 12240, Note_on_c, 0, 69, 29
2, 12480, Note_on_c, 0, 69, 0
2, 12480, Note_on_c, 0, 71, 35
2, 12720, Note_on_c, 0, 71, 0
2, 12720, Note_on_c, 0, 67, 31
2, 12960, Note_on_c, 0, 67, 0
2, 12960, Note_on_c, 0, 69, 36
2, 13200, Note_on_c, 0, 69, 0
2, 13200, Note_on_c, 0, 66, 31
2, 13440, Note_on_c, 0, 66, 0
2, 13440, Note_on_c, 0, 67, 68
2, 13680, Note_on_c, 0, 69, 54
2, 13704, Note_on_c, 0, 67, 0
2, 13920, Note_on_c, 0, 71, 60
2, 13944, Note_on_c, 0, 69, 0
2, 14160, Note_on_c, 0, 72, 58
2, 14184, Note_on_c, 0, 71, 0
2, 14400, Note_on_c, 0, 74, 68
2, 14424, Note_on_c, 0, 72, 0
2, 14640, Note_on_c, 0, 76, 58
2, 14664, Note_on_c, 0, 74, 0
2, 14880, Note_on_c, 0, 78, 62
2, 14904, Note_on_c, 0, 76, 0
2, 15120, Note_on_c, 0, 79, 58
2, 15144, Note_on_c, 0, 78, 0
2, 15360, Note_on_c, 0, 79, 0
2, 15360, Note_on_c, 0, 69, 66
2, 15840, Note_on_c, 0, 69, 0
2, 15840, Note_on_c, 0, 81, 54
2, 16080, Note_on_c, 0, 81, 0
2, 16320, Note_on_c, 0, 81, 57
2, 16560, Note_on_c, 0, 81, 0
2, 16800, Note_on_c, 0, 81, 53
2, 17040, Note_on_c, 0, 81, 0
2, 17280, Note_on_c, 0, 71, 68
2, 17520, Note_on_c, 0, 72, 55
2, 17544, Note_on_c, 0, 71, 0
2, 17760, Note_on_c, 0, 74, 60
2, 17784, Note_on_c, 0, 72, 0
2, 18000, Note_on_c, 0, 76, 56
2, 18024, Note_on_c, 0, 74, 0
2, 18240, Note_on_c, 0, 78, 68
2, 18264, Note_on_c, 0, 76, 0
2, 18480, Note_on_c, 0, 79, 59
2, 18504, Note_on_c, 0, 78, 0
2, 18720, Note_on_c, 0, 81, 62
2, 18744, Note_on_c, 0, 79, 0
2, 18960, Note_on_c, 0, 83, 58
2, 18984, Note_on_c, 0, 81, 0
2, 19200, Note_on_c, 0, 83, 0
2, 19200, Note_on_c, 0, 72, 66
2, 19680, Note_on_c, 0, 72, 0
2, 19680, Note_on_c, 0, 84, 53
2, 19920, Note_on_c, 0, 84, 0
2, 20160, Note_on_c, 0, 84, 57
2, 20400, Note_on_c, 0, 84, 0
2, 20640, Note_on_c, 0, 84, 55
2, 20880, Note_on_c, 0, 84, 0
2, 21120, Note_on_c, 0, 74, 68
2, 21360, Note_on_c, 0, 74, 0
2, 21360, Note_on_c, 0, 79, 59
2, 21600, Note_on_c, 0, 79, 0
2, 21600, Note_on_c, 0, 83, 63
2, 21840, Note_on_c, 0, 83, 0
2, 21840, Note_on_c, 0, 86, 61
2, 22080, Note_on_c, 0, 86, 0
2, 22080, Note_on_c, 0, 84, 68
2, 22320, Note_on_c, 0, 83, 58
2, 22344, Note_on_c, 0, 84, 0
2, 22560, Note_on_c, 0, 81, 62
2, 22584, Note_on_c, 0, 83, 0
2, 22800, Note_on_c, 0, 79, 59
2, 22824, Note_on_c, 0, 81, 0
2, 23040, Note_on_c, 0, 78, 68
2, 23064, Note_on_c, 0, 79, 0
2, 23280, Note_on_c, 0, 76, 61
2, 23304, Note_on_c, 0, 78, 0
2, 23520, Note_on_c, 0, 79, 65
2, 23544, Note_on_c, 0, 76, 0
2, 23760, Note_on_c, 0, 78, 57
2, 23784, Note_on_c, 0, 79, 0
2, 24000, Note_on_c, 0, 81, 68
2, 24024, Note_on_c, 0, 78, 0
2, 24240, Note_on_c, 0, 79, 61
2, 24264, Note_on_c, 0, 81, 0
2, 24480, Note_on_c, 0, 78, 64
2, 24504, Note_on_c, 0, 79, 0
2, 24720, Note_on_c, 0, 76, 59
2, 24744, Note_on_c, 0, 78, 0
2, 24960, Note_on_c, 0, 76, 0
2, 24960, Note_on_c, 0, 76, 65
2, 25200, Note_on_c, 0, 74, 54
2, 25224, Note_on_c, 0, 76, 0
2, 25440, Note_on_c, 0, 72, 60
2, 25464, Note_on_c, 0, 74, 0
2, 25680, Note_on_c, 0, 71, 56
2, 25704, Note_on_c, 0, 72, 0
2, 25920, Note_on_c, 0, 71, 0
2, 25920, Note_on_c, 0, 74, 66
2, 26160, Note_on_c, 0, 72, 59
2, 26184, Note_on_c, 0, 74, 0
2, 26400, Note_on_c, 0, 71, 61
2, 26424, Note_on_c, 0, 72, 0
2, 26640, Note_on_c, 0, 69, 58
2, 26664, Note_on_c, 0, 71, 0
2, 26880, Note_on_c, 0, 67, 68
2, 26904, Note_on_c, 0, 69, 0
2, 27840, Note_on_c, 0, 67, 0
2, 28800, Note_on_c, 0, 72, 70
2, 29280, Note_on_c, 0, 72, 0
2, 29280, Note_on_c, 0, 76, 58
2, 29520, Note_on_c, 0, 76, 0
2, 29520, Note_on_c, 0, 72, 52
2, 29760, Note_on_c, 0, 72, 0
2, 29760, Note_on_c, 0, 67, 48
2, 29940, Note_on_c, 0, 67, 0
2, 30240, Note_on_c, 0, 67, 38
2, 30420, Note_on_c, 0, 67, 0
2, 30720, Note_on_c, 0, 72, 70
2, 31200, Note_on_c, 0, 72, 0
2, 31200, Note_on_c, 0, 76, 57
2, 31440, Note_on_c, 0, 76, 0
2, 31440, Note_on_c, 0, 72, 51
2, 31680, Note_on_c, 0, 72, 0
2, 31680, Note_on_c, 0, 67, 47
2, 31860, Note_on_c, 0, 67, 0
2, 32160, Note_on_c, 0, 79, 58
2, 32400, Note_on_c, 0, 79, 0
2, 32640, Note_on_c, 0, 77, 65
2, 32880, Note_on_c, 0, 76, 48
2, 32904, Note_on_c, 0, 77, 0
2, 33120, Note_on_c, 0, 74, 55
2, 33144, Note_on_c, 0, 76, 0
2, 33360, Note_on_c, 0, 72, 47
2, 33384, Note_on_c, 0, 74, 0
2, 33600, Note_on_c, 0, 71, 61
2, 33624, Note_on_c, 0, 72, 0
2, 33840, Note_on_c, 0, 72, 54
2, 33864, Note_on_c, 0, 71, 0
2, 34080, Note_on_c, 0, 71, 62
2, 34104, Note_on_c, 0, 72, 0
2, 34320, Note_on_c, 0, 72, 54
2, 34344, Note_on_c, 0, 71, 0
2, 34560, Note_on_c, 0, 74, 68
2, 34584, Note_on_c, 0, 72, 0
2, 34800, Note_on_c, 0, 72, 59
2, 34824, Note_on_c, 0, 74, 0
2, 35040, Note_on_c, 0, 71, 56
2, 35064, Note_on_c, 0, 72, 0
2, 35280, Note_on_c, 0, 69, 53
2, 35304, Note_on_c, 0, 71, 0
2, 35520, Note_on_c, 0, 67, 70
2, 35544, Note_on_c, 0, 69, 0
2, 36000, Note_on_c, 0, 67, 0
2, 36480, Note_on_c, 0, 72, 41
2, 36960, Note_on_c, 0, 72, 0
2, 36960, Note_on_c, 0, 76, 34
2, 37200, Note_on_c, 0, 76, 0
2, 37200, Note_on_c, 0, 72, 28
2, 37440, Note_on_c, 0, 72, 0
2, 37440, Note_on_c, 0, 67, 28
2, 37620, Note_on_c, 0, 67, 0
2, 37920, Note_on_c, 0, 67, 25
2, 38100, Note_on_c, 0, 67, 0
2, 38400, Note_on_c, 0, 76, 41
2, 38880, Note_on_c, 0, 76, 0
2, 38880, Note_on_c, 0, 79, 35
2, 39120, Note_on_c, 0, 79, 0
2, 39120, Note_on_c, 0, 76, 30
2, 39360, Note_on_c, 0, 76, 0
2, 39360, Note_on_c, 0, 72, 28
2, 39840, Note_on_c, 0, 72, 0
2, 39840, Note_on_c, 0, 76, 39
2, 40080, Note_on_c, 0, 76, 0
2, 40080, Note_on_c, 0, 72, 34
2, 40320, Note_on_c, 0, 72, 0
2, 40320, Note_on_c, 0, 74, 38
2, 40560, Note_on_c, 0, 74, 0
2, 40560, Note_on_c, 0, 71, 31
2, 40800, Note_on_c, 0, 71, 0
2, 40800, Note_on_c, 0, 72, 34
2, 41040, Note_on_c, 0, 72, 0
2, 41040, Note_on_c, 0, 69, 29
2, 41280, Note_on_c, 0, 69, 0
2, 41280, Note_on_c, 0, 71, 35
2, 41520, Note_on_c, 0, 71, 0
2, 41520, Note_on_c, 0, 67, 31
2, 41760, Note_on_c, 0, 67, 0
2, 41760, Note_on_c, 0, 69, 36
2, 42000, Note_on_c, 0, 69, 0
2, 42000, Note_on_c, 0, 66, 31
2, 42240, Note_on_c, 0, 66, 0
2, 42240, Note_on_c, 0, 67, 68
2, 42480, Note_on_c, 0, 69, 54
2, 42504, Note_on_c, 0, 67, 0
2, 42720, Note_on_c, 0, 71, 60
2, 42744, Note_on_c, 0, 69, 0
2, 42960, Note_on_c, 0, 72, 58
2, 42984, Note_on_c, 0, 71, 0
2, 43200, Note_on_c, 0, 74, 68
2, 43224, Note_on_c, 0, 72, 0
2, 43440, Note_on_c, 0, 76, 58
2, 43464, Note_on_c, 0, 74, 0
2, 43680, Note_on_c, 0, 78, 62
2, 43704, Note_on_c, 0, 76, 0
2, 43920, Note_on_c, 0, 79, 58
2, 43944, Note_on_c, 0, 78, 0
2, 44160, Note_on_c, 0, 79, 0
2, 44160, Note_on_c, 0, 69, 66
2, 44640, Note_on_c, 0, 69, 0
2, 44640, Note_on_c, 0, 81, 54
2, 44880, Note_on_c, 0, 81, 0
2, 45120, Note_on_c, 0, 81, 57
2, 45360, Note_on_c, 0, 81, 0
2, 45600, Note_on_c, 0, 81, 53
2, 45840, Note_on_c, 0, 81, 0
2, 46080, Note_on_c, 0, 71, 68
2, 46320, Note_on_c, 0, 72, 55
2, 46344, Note_on_c, 0, 71, 0
2, 46560, Note_on_c, 0, 74, 60
2, 46584, Note_on_c, 0, 72, 0
2, 46800, Note_on_c, 0, 76, 56
2, 46824, Note_on_c, 0, 74, 0
2, 47040, Note_on_c, 0, 78, 68
2, 47064, Note_on_c, 0, 76, 0
2, 47280, Note_on_c, 0, 79, 59
2, 47304, Note_on_c, 0, 78, 0
2, 47520, Note_on_c, 0, 81, 62
2, 47544, Note_on_c, 0, 79, 0
2, 47760, Note_on_c, 0, 83, 58
2, 47784, Note_on_c, 0, 81, 0
2, 48000, Note_on_c, 0, 83, 0
2, 48000, Note_on_c, 0, 72, 66
2, 48480, Note_on_c, 0, 72, 0
2, 48480, Note_on_c, 0, 84, 53
2, 48720, Note_on_c, 0, 84, 0
2, 48960, Note_on_c, 0, 84, 57
2, 49200, Note_on_c, 0, 84, 0
2, 49440, Note_on_c, 0, 84, 55
2, 49680, Note_on_c, 0, 84, 0
2, 49920, Note_on_c, 0, 74, 68
2, 50160, Note_on_c, 0, 74, 0
2, 50160, Note_on_c, 0, 79, 59
2, 50400, Note_on_c, 0, 79, 0
2, 50400, Note_on_c, 0, 83, 63
2, 50640, Note_on_c, 0, 83, 0
2, 50640, Note_on_c, 0, 86, 61
2, 50880, Note_on_c, 0, 86, 0
2, 50880, Note_on_c, 0, 84, 68
2, 51120, Note_on_c, 0, 83, 58
2, 51144, Note_on_c, 0, 84, 0
2, 51360, Note_on_c, 0, 81, 62
2, 51384, Note_on_c, 0, 83, 0
2, 51600, Note_on_c, 0, 79, 59
2, 51624, Note_on_c, 0, 81, 0
2, 51840, Note_on_c, 0, 78, 68
2, 51864, Note_on_c, 0, 79, 0
2, 52080, Note_on_c, 0, 76, 61
2, 52104, Note_on_c, 0, 78, 0
2, 52320, Note_on_c, 0, 79, 65
2, 52344, Note_on_c, 0, 76, 0
2, 52560, Note_on_c, 0, 78, 57
2, 52584, Note_on_c, 0, 79, 0
2, 52800, Note_on_c, 0, 81, 68
2, 52824, Note_on_c, 0, 78, 0
2, 53040, Note_on_c, 0, 79, 61
2, 53064, Note_on_c, 0, 81, 0
2, 53280, Note_on_c, 0, 78, 64
2, 53304, Note_on_c, 0, 79, 0
2, 53520, Note_on_c, 0, 76, 59
2, 53544, Note_on_c, 0, 78, 0
2, 53760, Note_on_c, 0, 76, 0
2, 53760, Note_on_c, 0, 76, 65
2, 54000, Note_on_c, 0, 74, 54
2, 54024, Note_on_c, 0, 76, 0
2, 54240, Note_on_c, 0, 72, 60
2, 54264, Note_on_c, 0, 74, 0
2, 54480, Note_on_c, 0, 71, 56
2, 54504, Note_on_c, 0, 72, 0
2, 54720, Note_on_c, 0, 71, 0
2, 54720, Note_on_c, 0, 74, 66
2, 54960, Note_on_c, 0, 72, 59
2, 54984, Note_on_c, 0, 74, 0
2, 55200, Note_on_c, 0, 71, 61
2, 55224, Note_on_c, 0, 72, 0
2, 55440, Note_on_c, 0, 69, 58
2, 55464, Note_on_c, 0, 71, 0
2, 55680, Note_on_c, 0, 67, 68
2, 55704, Note_on_c, 0, 69, 0
2, 56640, Note_on_c, 0, 67, 0
2, 57600, Note_on_c, 0, 71, 41
2, 58080, Note_on_c, 0, 71, 0
2, 58080, Note_on_c, 0, 74, 34
2, 58320, Note_on_c, 0, 74, 0
2, 58320, Note_on_c, 0, 71, 28
2, 58560, Note_on_c, 0, 71, 0
2, 58560, Note_on_c, 0, 67, 28
2, 58740, Note_on_c, 0, 67, 0
2, 59040, Note_on_c, 0, 67, 27
2, 59220, Note_on_c, 0, 67, 0
2, 59520, Note_on_c, 0, 72, 41
2, 60000, Note_on_c, 0, 72, 0
2, 60000, Note_on_c, 0, 75, 34
2, 60240, Note_on_c, 0, 75, 0
2, 60240, Note_on_c, 0, 72, 28
2, 60480, Note_on_c, 0, 72, 0
2, 60480, Note_on_c, 0, 67, 26
2, 60660, Note_on_c, 0, 67, 0
2, 60960, Note_on_c, 0, 79, 33
2, 61440, Note_on_c, 0, 79, 0
2, 61440, Note_on_c, 0, 77, 37
2, 61920, Note_on_c, 0, 77, 0
2, 61920, Note_on_c, 0, 74, 33
2, 62400, Note_on_c, 0, 74, 0
2, 62400, Note_on_c, 0, 75, 38
2, 62880, Note_on_c, 0, 75, 0
2, 62880, Note_on_c, 0, 72, 30
2, 63360, Note_on_c, 0, 72, 0
2, 63360, Note_on_c, 0, 71, 35
2, 63600, Note_on_c, 0, 71, 0
2, 63600, Note_on_c, 0, 72, 28
2, 63840, Note_on_c, 0, 72, 0
2, 63840, Note_on_c, 0, 74, 33
2, 64080, Note_on_c, 0, 74, 0
2, 64080, Note_on_c, 0, 71, 30
2, 64320, Note_on_c, 0, 71, 0
2, 64320, Note_on_c, 0, 67, 36
2, 64500, Note_on_c, 0, 67, 0
2, 64800, Note_on_c, 0, 67, 32
2, 64980, Note_on_c, 0, 67, 0
2, 65280, Note_on_c, 0, 79, 56
2, 65520, Note_on_c, 0, 79, 0
2, 65520, Note_on_c, 0, 67, 40
2, 65760, Note_on_c, 0, 67, 0
2, 65760, Note_on_c, 0, 79, 51
2, 66000, Note_on_c, 0, 79, 0
2, 66000, Note_on_c, 0, 67, 35
2, 66240, Note_on_c, 0, 67, 0
2, 66240, Note_on_c, 0, 79, 50
2, 66480, Note_on_c, 0, 79, 0
2, 66480, Note_on_c, 0, 67, 36
2, 66720, Note_on_c, 0, 67, 0
2, 66720, Note_on_c, 0, 79, 50
2, 66960, Note_on_c, 0, 79, 0
2, 66960, Note_on_c, 0, 67, 40
2, 67200, Note_on_c, 0, 67, 0
2, 67200, Note_on_c, 0, 79, 59
2, 67440, Note_on_c, 0, 79, 0
2, 67440, Note_on_c, 0, 67, 43
2, 67680, Note_on_c, 0, 67, 0
2, 67680, Note_on_c, 0, 79, 51
2, 67920, Note_on_c, 0, 79, 0
2, 67920, Note_on_c, 0, 67, 39
2, 68160, Note_on_c, 0, 67, 0
2, 68160, Note_on_c, 0, 79, 49
2, 68400, Note_on_c, 0, 79, 0
2, 68400, Note_on_c, 0, 67, 37
2, 68640, Note_on_c, 0, 67, 0
2, 68640, Note_on_c, 0, 79, 47
2, 68880, Note_on_c, 0, 79, 0
2, 68880, Note_on_c, 0, 67, 37
2, 69120, Note_on_c, 0, 67, 0
2, 69120, Note_on_c, 0, 74, 51
2, 69360, Note_on_c, 0, 75, 43
2, 69384, Note_on_c, 0, 74, 0
2, 69600, Note_on_c, 0, 77, 50
2, 69624, Note_on_c, 0, 75, 0
2, 69840, Note_on_c, 0, 74, 48
2, 69864, Note_on_c, 0, 77, 0
2, 70080, Note_on_c, 0, 77, 60
2, 70104, Note_on_c, 0, 74, 0
2, 70320, Note_on_c, 0, 75, 48
2, 70344, Note_on_c, 0, 77, 0
2, 70560, Note_on_c, 0, 74, 54
2, 70584, Note_on_c, 0, 75, 0
2, 70800, Note_on_c, 0, 72, 48
2, 70824, Note_on_c, 0, 74, 0
2, 71040, Note_on_c, 0, 79, 61
2, 71040, Note_on_c, 0, 71, 61
2, 71064, Note_on_c, 0, 72, 0
2, 71520, Note_on_c, 0, 71, 0
2, 71520, Note_on_c, 0, 79, 0
2, 72960, Note_on_c, 0, 60, 37
2, 73440, Note_on_c, 0, 60, 0
2, 73440, Note_on_c, 0, 64, 30
2, 73680, Note_on_c, 0, 64, 0
2, 73680, Note_on_c, 0, 60, 27
2, 73920, Note_on_c, 0, 60, 0
2, 73920, Note_on_c, 0, 55, 26
2, 74100, Note_on_c, 0, 55, 0
2, 74400, Note_on_c, 0, 55, 24
2, 74580, Note_on_c, 0, 55, 0
2, 74880, Note_on_c, 0, 60, 37
2, 75360, Note_on_c, 0, 60, 0
2, 75360, Note_on_c, 0, 64, 29
2, 75600, Note_on_c, 0, 64, 0
2, 75600, Note_on_c, 0, 60, 26
2, 75840, Note_on_c, 0, 60, 0
2, 75840, Note_on_c, 0, 55, 24
2, 76020, Note_on_c, 0, 55, 0
2, 76320, Note_on_c, 0, 67, 30
2, 76560, Note_on_c, 0, 67, 0
2, 76800, Note_on_c, 0, 65, 34
2, 77040, Note_on_c, 0, 64, 24
2, 77064, Note_on_c, 0, 65, 0
2, 77280, Note_on_c, 0, 62, 28
2, 77304, Note_on_c, 0, 64, 0
2, 77520, Note_on_c, 0, 60, 23
2, 77544, Note_on_c, 0, 62, 0
2, 77760, Note_on_c, 0, 59, 31
2, 77784, Note_on_c, 0, 60, 0
2, 78000, Note_on_c, 0, 60, 28
2, 78024, Note_on_c, 0, 59, 0
2, 78240, Note_on_c, 0, 59, 32
2, 78264, Note_on_c, 0, 60, 0
2, 78480, Note_on_c, 0, 60, 28
2, 78504, Note_on_c, 0, 59, 0
2, 78720, Note_on_c, 0, 62, 35
2, 78744, Note_on_c, 0, 60, 0
2, 78960, Note_on_c, 0, 60, 30
2, 78984, Note_on_c, 0, 62, 0
2, 79200, Note_on_c, 0, 59, 29
2, 79224, Note_on_c, 0, 60, 0
2, 79440, Note_on_c, 0, 57, 28
2, 79464, Note_on_c, 0, 59, 0
2, 79680, Note_on_c, 0, 55, 37
2, 79704, Note_on_c, 0, 57, 0
2, 80160, Note_on_c, 0, 55, 0
2, 80640, Note_on_c, 0, 60, 44
2, 81120, Note_on_c, 0, 60, 0
2, 81120, Note_on_c, 0, 55, 36
2, 81360, Note_on_c, 0, 55, 0
2, 81360, Note_on_c, 0, 60, 32
2, 81600, Note_on_c, 0, 60, 0
2, 81600, Note_on_c, 0, 64, 37
2, 81780, Note_on_c, 0, 64, 0
2, 82080, Note_on_c, 0, 64, 31
2, 82260, Note_on_c, 0, 64, 0
2, 82560, Note_on_c, 0, 64, 48
2, 83040, Note_on_c, 0, 64, 0
2, 83040, Note_on_c, 0, 60, 41
2, 83280, Note_on_c, 0, 60, 0
2, 83280, Note_on_c, 0, 64, 37
2, 83520, Note_on_c, 0, 64, 0
2, 83520, Note_on_c, 0, 67, 44
2, 83700, Note_on_c, 0, 67, 0
2, 84000, Note_on_c, 0, 72, 38
2, 84180, Note_on_c, 0, 72, 0
2, 84480, Note_on_c, 0, 64, 44
2, 84480, Note_on_c, 0, 67, 52
2, 84660, Note_on_c, 0, 67, 0
2, 84660, Note_on_c, 0, 64, 0
2, 84960, Note_on_c, 0, 65, 46
2, 84960, Note_on_c, 0, 62, 39
2, 85140, Note_on_c, 0, 62, 0
2, 85140, Note_on_c, 0, 65, 0
2, 85440, Note_on_c, 0, 60, 50
2, 85440, Note_on_c, 0, 64, 59
2, 85620, Note_on_c, 0, 64, 0
2, 85620, Note_on_c, 0, 60, 0
2, 85920, Note_on_c, 0, 62, 53
2, 85920, Note_on_c, 0, 59, 44
2, 86100, Note_on_c, 0, 59, 0
2, 86100, Note_on_c, 0, 62, 0
2, 86400, Note_on_c, 0, 60, 68
2, 86640, Note_on_c, 0, 62, 54
2, 86664, Note_on_c, 0, 60, 0
2, 86880, Note_on_c, 0, 64, 60
2, 86904, Note_on_c, 0, 62, 0
2, 87120, Note_on_c, 0, 65, 58
2, 87144, Note_on_c, 0, 64, 0
2, 87360, Note_on_c, 0, 67, 68
2, 87384, Note_on_c, 0, 65, 0
2, 87600, Note_on_c, 0, 69, 58
2, 87624, Note_on_c, 0, 67, 0
2, 87840, Note_on_c, 0, 71, 62
2, 87864, Note_on_c, 0, 69, 0
2, 88080, Note_on_c, 0, 72, 58
2, 88104, Note_on_c, 0, 71, 0
2, 88320, Note_on_c, 0, 72, 0
2, 88320, Note_on_c, 0, 62, 66
2, 88800, Note_on_c, 0, 62, 0
2, 88800, Note_on_c, 0, 74, 54
2, 89040, Note_on_c, 0, 74, 0
2, 89280, Note_on_c, 0, 74, 57
2, 89520, Note_on_c, 0, 74, 0
2, 89760, Note_on_c, 0, 74, 53
2, 90000, Note_on_c, 0, 74, 0
2, 90240, Note_on_c, 0, 64, 68
2, 90480, Note_on_c, 0, 65, 55
2, 90504, Note_on_c, 0, 64, 0
2, 90720, Note_on_c, 0, 67, 60
2, 90744, Note_on_c, 0, 65, 0
2, 90960, Note_on_c, 0, 69, 56
2, 90984, Note_on_c, 0, 67, 0
2, 91200, Note_on_c, 0, 71, 68
2, 91224, Note_on_c, 0, 69, 0
2, 91440, Note_on_c, 0, 72, 59
2, 91464, Note_on_c, 0, 71, 0
2, 91680, Note_on_c, 0, 74, 62
2, 91704, Note_on_c, 0, 72, 0
2, 91920, Note_on_c, 0, 76, 58
2, 91944, Note_on_c, 0, 74, 0
2, 92160, Note_on_c, 0, 76, 0
2, 92160, Note_on_c, 0, 65, 66
2, 92640, Note_on_c, 0, 65, 0
2, 92640, Note_on_c, 0, 77, 53
2, 92880, Note_on_c, 0, 77, 0
2, 93120, Note_on_c, 0, 77, 57
2, 93360, Note_on_c, 0, 77, 0
2, 93600, Note_on_c, 0, 77, 55
2, 93840, Note_on_c, 0, 77, 0
2, 94080, Note_on_c, 0, 67, 68
2, 94320, Note_on_c, 0, 67, 0
2, 94320, Note_on_c, 0, 72, 59
2, 94560, Note_on_c, 0, 72, 0
2, 94560, Note_on_c, 0, 76, 63
2, 94800, Note_on_c, 0, 76, 0
2, 94800, Note_on_c, 0, 79, 61
2, 95040, Note_on_c, 0, 79, 0
2, 95040, Note_on_c, 0, 77, 68
2, 95280, Note_on_c, 0, 76, 58
2, 95304, Note_on_c, 0, 77, 0
2, 95520, Note_on_c, 0, 74, 62
2, 95544, Note_on_c, 0, 76, 0
2, 95760, Note_on_c, 0, 72, 59
2, 95784, Note_on_c, 0, 74, 0
2, 96000, Note_on_c, 0, 72, 0
2, 96000, Note_on_c, 0, 81, 68
2, 96240, Note_on_c, 0, 79, 61
2, 96264, Note_on_c, 0, 81, 0
2, 96480, Note_on_c, 0, 77, 65
2, 96504, Note_on_c, 0, 79, 0
2, 96720, Note_on_c, 0, 76, 57
2, 96744, Note_on_c, 0, 77, 0
2, 96960, Note_on_c, 0, 74, 68
2, 96984, Note_on_c, 0, 76, 0
2, 97200, Note_on_c, 0, 72, 61
2, 97224, Note_on_c, 0, 74, 0
2, 97440, Note_on_c, 0, 71, 64
2, 97464, Note_on_c, 0, 72, 0
2, 97680, Note_on_c, 0, 69, 59
2, 97704, Note_on_c, 0, 71, 0
2, 97920, Note_on_c, 0, 69, 0
2, 97920, Note_on_c, 0, 67, 65
2, 98160, Note_on_c, 0, 69, 54
2, 98184, Note_on_c, 0, 67, 0
2, 98400, Note_on_c, 0, 65, 60
2, 98424, Note_on_c, 0, 69, 0
2, 98640, Note_on_c, 0, 67, 56
2, 98664, Note_on_c, 0, 65, 0
2, 98880, Note_on_c, 0, 64, 66
2, 98904, Note_on_c, 0, 67, 0
2, 99120, Note_on_c, 0, 65, 59
2, 99144, Note_on_c, 0, 64, 0
2, 99360, Note_on_c, 0, 62, 61
2, 99384, Note_on_c, 0, 65, 0
2, 99600, Note_on_c, 0, 64, 58
2, 99624, Note_on_c, 0, 62, 0
2, 99840, Note_on_c, 0, 60, 68
2, 99864, Note_on_c, 0, 64, 0
2, 100800, Note_on_c, 0, 60, 0
2, 101760, Note_on_c, 0, 71, 41
2, 102240, Note_on_c, 0, 71, 0
2, 102240, Note_on_c, 0, 74, 34
2, 102480, Note_on_c, 0, 74, 0
2, 102480, Note_on_c, 0, 71, 28
2, 102720, Note_on_c, 0, 71, 0
2, 102720, Note_on_c, 0, 67, 28
2, 102900, Note_on_c, 0, 67, 0
2, 103200, Note_on_c, 0, 67, 24
2, 103380, Note_on_c, 0, 67, 0
2, 103680, Note_on_c, 0, 72, 41
2, 104160, Note_on_c, 0, 72, 0
2, 104160, Note_on_c, 0, 75, 34
2, 104400, Note_on_c, 0, 75, 0
2, 104400, Note_on_c, 0, 72, 28
2, 104640, Note_on_c, 0, 72, 0
2, 104640, Note_on_c, 0, 67, 28
2, 104820, Note_on_c, 0, 67, 0
2, 105120, Note_on_c, 0, 79, 33
2, 105600, Note_on_c, 0, 79, 0
2, 105600, Note_on_c, 0, 77, 37
2, 106080, Note_on_c, 0, 77, 0
2, 106080, Note_on_c, 0, 74, 33
2, 106560, Note_on_c, 0, 74, 0
2, 106560, Note_on_c, 0, 75, 38
2, 107040, Note_on_c, 0, 75, 0
2, 107040, Note_on_c, 0, 72, 30
2, 107520, Note_on_c, 0, 72, 0
2, 107520, Note_on_c, 0, 71, 35
2, 107760, Note_on_c, 0, 71, 0
2, 107760, Note_on_c, 0, 72, 28
2, 108000, Note_on_c, 0, 72, 0
2, 108000, Note_on_c, 0, 74, 33
2, 108240, Note_on_c, 0, 74, 0
2, 108240, Note_on_c, 0, 71, 30
2, 108480, Note_on_c, 0, 71, 0
2, 108480, Note_on_c, 0, 67, 36
2, 108660, Note_on_c, 0, 67, 0
2, 108960, Note_on_c, 0, 67, 32
2, 109140, Note_on_c, 0, 67, 0
2, 109440, Note_on_c, 0, 79, 56
2, 109680, Note_on_c, 0, 79, 0
2, 109680, Note_on_c, 0, 67, 40
2, 109920, Note_on_c, 0, 67, 0
2, 109920, Note_on_c, 0, 79, 51
2, 110160, Note_on_c, 0, 79, 0
2, 110160, Note_on_c, 0, 67, 35
2, 110400, Note_on_c, 0, 67, 0
2, 110400, Note_on_c, 0, 79, 50
2, 110640, Note_on_c, 0, 79, 0
2, 110640, Note_on_c, 0, 67, 36
2, 110880, Note_on_c, 0, 67, 0
2, 110880, Note_on_c, 0, 79, 50
2, 111120, Note_on_c, 0, 79, 0
2, 111120, Note_on_c, 0, 67, 40
2, 111360, Note_on_c, 0, 67, 0
2, 111360, Note_on_c, 0, 79, 59
2, 111600, Note_on_c, 0, 79, 0
2, 111600, Note_on_c, 0, 67, 43
2, 111840, Note_on_c, 0, 67, 0
2, 111840, Note_on_c, 0, 79, 51
2, 112080, Note_on_c, 0, 79, 0
2, 112080, Note_on_c, 0, 67, 39
2, 112320, Note_on_c, 0, 67, 0
2, 112320, Note_on_c, 0, 79, 49
2, 112560, Note_on_c, 0, 79, 0
2, 112560, Note_on_c, 0, 67, 37
2, 112800, Note_on_c, 0, 67, 0
2, 112800, Note_on_c, 0, 79, 47
2, 113040, Note_on_c, 0, 79, 0
2, 113040, Note_on_c, 0, 67, 37
2, 113280, Note_on_c, 0, 67, 0
2, 113280, Note_on_c, 0, 74, 51
2, 113520, Note_on_c, 0, 75, 43
2, 113544, Note_on_c, 0, 74, 0
2, 113760, Note_on_c, 0, 77, 50
2, 113784, Note_on_c, 0, 75, 0
2, 114000, Note_on_c, 0, 74, 48
2, 114024, Note_on_c, 0, 77, 0
2, 114240, Note_on_c, 0, 77, 60
2, 114264, Note_on_c, 0, 74, 0
2, 114480, Note_on_c, 0, 75, 48
2, 114504, Note_on_c, 0, 77, 0
2, 114720, Note_on_c, 0, 74, 54
2, 114744, Note_on_c, 0, 75, 0
2, 114960, Note_on_c, 0, 72, 48
2, 114984, Note_on_c, 0, 74, 0
2, 115200, Note_on_c, 0, 79, 61
2, 115200, Note_on_c, 0, 71, 61
2, 115224, Note_on_c, 0, 72, 0
2, 115680, Note_on_c, 0, 71, 0
2, 115680, Note_on_c, 0, 79, 0
2, 117120, Note_on_c, 0, 60, 37
2, 117600, Note_on_c, 0, 60, 0
2, 117600, Note_on_c, 0, 64, 30
2, 117840, Note_on_c, 0, 64, 0
2, 117840, Note_on_c, 0, 60, 27
2, 118080, Note_on_c, 0, 60, 0
2, 118080, Note_on_c, 0, 55, 25
2, 118260, Note_on_c, 0, 55, 0
2, 118560, Note_on_c, 0, 55, 22
2, 118740, Note_on_c, 0, 55, 0
2, 119040, Note_on_c, 0, 60, 37
2, 119520, Note_on_c, 0, 60, 0
2, 119520, Note_on_c, 0, 64, 29
2, 119760, Note_on_c, 0, 64, 0
2, 119760, Note_on_c, 0, 60, 26
2, 120000, Note_on_c, 0, 60, 0
2, 120000, Note_on_c, 0, 55, 25
2, 120180, Note_on_c, 0, 55, 0
2, 120480, Note_on_c, 0, 67, 30
2, 120720, Note_on_c, 0, 67, 0
2, 120960, Note_on_c, 0, 65, 34
2, 121200, Note_on_c, 0, 64, 24
2, 121224, Note_on_c, 0, 65, 0
2, 121440, Note_on_c, 0, 62, 28
2, 121464, Note_on_c, 0, 64, 0
2, 121680, Note_on_c, 0, 60, 23
2, 121704, Note_on_c, 0, 62, 0
2, 121920, Note_on_c, 0, 59, 31
2, 121944, Note_on_c, 0, 60, 0
2, 122160, Note_on_c, 0, 60, 28
2, 122184, Note_on_c, 0, 59, 0
2, 122400, Note_on_c, 0, 59, 32
2, 122424, Note_on_c, 0, 60, 0
2, 122640, Note_on_c, 0, 60, 28
2, 122664, Note_on_c, 0, 59, 0
2, 122880, Note_on_c, 0, 62, 35
2, 122904, Note_on_c, 0, 60, 0
2, 123120, Note_on_c, 0, 60, 30
2, 123144, Note_on_c, 0, 62, 0
2, 123360, Note_on_c, 0, 59, 29
2, 123384, Note_on_c, 0, 60, 0
2, 123600, Note_on_c, 0, 57, 28
2, 123624, Note_on_c, 0, 59, 0
2, 123840, Note_on_c, 0, 55, 37
2, 123864, Note_on_c, 0, 57, 0
2, 124320, Note_on_c, 0, 55, 0
2, 124800, Note_on_c, 0, 60, 44
2, 125280, Note_on_c, 0, 60, 0
2, 125280, Note_on_c, 0, 55, 36
2, 125520, Note_on_c, 0, 55, 0
2, 125520, Note_on_c, 0, 60, 32
2, 125760, Note_on_c, 0, 60, 0
2, 125760, Note_on_c, 0, 64, 37
2, 125940, Note_on_c, 0, 64, 0
2, 126240, Note_on_c, 0, 64, 31
2, 126420, Note_on_c, 0, 64, 0
2, 126720, Note_on_c, 0, 64, 48
2, 127200, Note_on_c, 0, 64, 0
2, 127200, Note_on_c, 0, 60, 41
2, 127440, Note_on_c, 0, 60, 0
2, 127440, Note_on_c, 0, 64, 37
2, 127680, Note_on_c, 0, 64, 0
2, 127680, Note_on_c, 0, 67, 44
2, 127860, Note_on_c, 0, 67, 0
2, 128160, Note_on_c, 0, 72, 38
2, 128340, Note_on_c, 0, 72, 0
2, 128640, Note_on_c, 0, 64, 44
2, 128640, Note_on_c, 0, 67, 52
2, 128820, Note_on_c, 0, 67, 0
2, 128820, Note_on_c, 0, 64, 0
2, 129120, Note_on_c, 0, 65, 46
2, 129120, Note_on_c, 0, 62, 39
2, 129300, Note_on_c, 0, 62, 0
2, 129300, Note_on_c, 0, 65, 0
2, 129600, Note_on_c, 0, 60, 50
2, 129600, Note_on_c, 0, 64, 59
2, 129780, Note_on_c, 0, 64, 0
2, 129780, Note_on_c, 0, 60, 0
2, 130080, Note_on_c, 0, 62, 53
2, 130080, Note_on_c, 0, 59, 44
2, 130260, Note_on_c, 0, 59, 0
2, 130260, Note_on_c, 0, 62, 0
2, 130560, Note_on_c, 0, 60, 68
2, 130800, Note_on_c, 0, 62, 54
2, 130824, Note_on_c, 0, 60, 0
2, 131040, Note_on_c, 0, 64, 60
2, 131064, Note_on_c, 0, 62, 0
2, 131280, Note_on_c, 0, 65, 58
2, 131304, Note_on_c, 0, 64, 0
2, 131520, Note_on_c, 0, 67, 68
2, 131544, Note_on_c, 0, 65, 0
2, 131760, Note_on_c, 0, 69, 58
2, 131784, Note_on_c, 0, 67, 0
2, 132000, Note_on_c, 0, 71, 62
2, 132024, Note_on_c, 0, 69, 0
2, 132240, Note_on_c, 0, 72, 58
2, 132264, Note_on_c, 0, 71, 0
2, 132480, Note_on_c, 0, 72, 0
2, 132480, Note_on_c, 0, 62, 66
2, 132960, Note_on_c, 0, 62, 0
2, 132960, Note_on_c, 0, 74, 54
2, 133200, Note_on_c, 0, 74, 0
2, 133440, Note_on_c, 0, 74, 57
2, 133680, Note_on_c, 0, 74, 0
2, 133920, Note_on_c, 0, 74, 53
2, 134160, Note_on_c, 0, 74, 0
2, 134400, Note_on_c, 0, 64, 68
2, 134640, Note_on_c, 0, 65, 55
2, 134664, Note_on_c, 0, 64, 0
2, 134880, Note_on_c, 0, 67, 60
2, 134904, Note_on_c, 0, 65, 0
2, 135120, Note_on_c, 0, 69, 56
2, 135144, Note_on_c, 0, 67, 0
2, 135360, Note_on_c, 0, 71, 68
2, 135384, Note_on_c, 0, 69, 0
2, 135600, Note_on_c, 0, 72, 59
2, 135624, Note_on_c, 0, 71, 0
2, 135840, Note_on_c, 0, 74, 62
2, 135864, Note_on_c, 0, 72, 0
2, 136080, Note_on_c, 0, 76, 58
2, 136104, Note_on_c, 0, 74, 0
2, 136320, Note_on_c, 0, 76, 0
2, 136320, Note_on_c, 0, 65, 66
2, 136800, Note_on_c, 0, 65, 0
2, 136800, Note_on_c, 0, 77, 53
2, 137040, Note_on_c, 0, 77, 0
2, 137280, Note_on_c, 0, 77, 57
2, 137520, Note_on_c, 0, 77, 0
2, 137760, Note_on_c, 0, 77, 55
2, 138000, Note_on_c, 0, 77, 0
2, 138240, Note_on_c, 0, 67, 68
2, 138480, Note_on_c, 0, 67, 0
2, 138480, Note_on_c, 0, 72, 59
2, 138720, Note_on_c, 0, 72, 0
2, 138720, Note_on_c, 0, 76, 63
2, 138960, Note_on_c, 0, 76, 0
2, 138960, Note_on_c, 0, 79, 61
2, 139200, Note_on_c, 0, 79, 0
2, 139200, Note_on_c, 0, 77, 68
2, 139440, Note_on_c, 0, 76, 58
2, 139464, Note_on_c, 0, 77, 0
2, 139680, Note_on_c, 0, 74, 62
2, 139704, Note_on_c, 0, 76, 0
2, 139920, Note_on_c, 0, 72, 59
2, 139944, Note_on_c, 0, 74, 0
2, 140160, Note_on_c, 0, 72, 0
2, 140160, Note_on_c, 0, 81, 68
2, 140400, Note_on_c, 0, 79, 61
2, 140424, Note_on_c, 0, 81, 0
2, 140640, Note_on_c, 0, 77, 65
2, 140664, Note_on_c, 0, 79, 0
2, 140880, Note_on_c, 0, 76, 57
2, 140904, Note_on_c, 0, 77, 0
2, 141120, Note_on_c, 0, 74, 68
2, 141144, Note_on_c, 0, 76, 0
2, 141360, Note_on_c, 0, 72, 61
2, 141384, Note_on_c, 0, 74, 0
2, 141600, Note_on_c, 0, 71, 64
2, 141624, Note_on_c, 0, 72, 0
2, 141840, Note_on_c, 0, 69, 59
2, 141864, Note_on_c, 0, 71, 0
2, 142080, Note_on_c, 0, 69, 0
2, 142080, Note_on_c, 0, 67, 65
2, 142320, Note_on_c, 0, 69, 54
2, 142344, Note_on_c, 0, 67, 0
2, 142560, Note_on_c, 0, 65, 60
2, 142584, Note_on_c, 0, 69, 0
2, 142800, Note_on_c, 0, 67, 56
2, 142824, Note_on_c, 0, 65, 0
2, 143040, Note_on_c, 0, 64, 66
2, 143064, Note_on_c, 0, 67, 0
2, 143280, Note_on_c, 0, 65, 59
2, 143304, Note_on_c, 0, 64, 0
2, 143520, Note_on_c, 0, 62, 61
2, 143544, Note_on_c, 0, 65, 0
2, 143760, Note_on_c, 0, 64, 58
2, 143784, Note_on_c, 0, 62, 0
2, 144000, Note_on_c, 0, 60, 68
2, 144024, Note_on_c, 0, 64, 0
2, 144960, Note_on_c, 0, 60, 0
2, 144960, End_track
3, 0, Start_track
3, 0, Title_t, "Piano left"
3, 0, Program_c, 0, 0
3, 0, Note_on_c, 0, 48, 40
3, 480, Note_on_c, 0, 48, 0
3, 1920, Note_on_c, 0, 48, 40
3, 2400, Note_on_c, 0, 48, 0
3, 3840, Note_on_c, 0, 48, 40
3, 4320, Note_on_c, 0, 48, 0
3, 4800, Note_on_c, 0, 48, 35
3, 5280, Note_on_c, 0, 48, 0
3, 5760, Note_on_c, 0, 43, 40
3, 6240, Note_on_c, 0, 43, 0
3, 6720, Note_on_c, 0, 55, 48
3, 6960, Note_on_c, 0, 53, 38
3, 6984, Note_on_c, 0, 55, 0
3, 7200, Note_on_c, 0, 52, 40
3, 7224, Note_on_c, 0, 53, 0
3, 7440, Note_on_c, 0, 50, 38
3, 7464, Note_on_c, 0, 52, 0
3, 7680, Note_on_c, 0, 48, 23
3, 7704, Note_on_c, 0, 50, 0
3, 8160, Note_on_c, 0, 48, 0
3, 9600, Note_on_c, 0, 60, 23
3, 10080, Note_on_c, 0, 60, 0
3, 11040, Note_on_c, 0, 54, 23
3, 11520, Note_on_c, 0, 54, 0
3, 11520, Note_on_c, 0, 55, 23
3, 12000, Note_on_c, 0, 55, 0
3, 12000, Note_on_c, 0, 48, 21
3, 12480, Note_on_c, 0, 48, 0
3, 12480, Note_on_c, 0, 50, 24
3, 12960, Note_on_c, 0, 50, 0
3, 12960, Note_on_c, 0, 38, 20
3, 13440, Note_on_c, 0, 38, 0
3, 13440, Note_on_c, 0, 43, 40
3, 13920, Note_on_c, 0, 43, 0
3, 15360, Note_on_c, 0, 54, 40
3, 15600, Note_on_c, 0, 54, 0
3, 15600, Note_on_c, 0, 62, 35
3, 15840, Note_on_c, 0, 62, 0
3, 15840, Note_on_c, 0, 57, 35
3, 16080, Note_on_c, 0, 57, 0
3, 16080, Note_on_c, 0, 62, 35
3, 16320, Note_on_c, 0, 62, 0
3, 16320, Note_on_c, 0, 54, 40
3, 16560, Note_on_c, 0, 54, 0
3, 16560, Note_on_c, 0, 62, 37
3, 16800, Note_on_c, 0, 62, 0
3, 16800, Note_on_c, 0, 57, 37
3, 17040, Note_on_c, 0, 57, 0
3, 17040, Note_on_c, 0, 62, 37
3, 17280, Note_on_c, 0, 62, 0
3, 17280, Note_on_c, 0, 55, 40
3, 17760, Note_on_c, 0, 55, 0
3, 19200, Note_on_c, 0, 57, 40
3, 19440, Note_on_c, 0, 57, 0
3, 19440, Note_on_c, 0, 62, 35
3, 19680, Note_on_c, 0, 62, 0
3, 19680, Note_on_c, 0, 60, 35
3, 19920, Note_on_c, 0, 60, 0
3, 19920, Note_on_c, 0, 62, 35
3, 20160, Note_on_c, 0, 62, 0
3, 20160, Note_on_c, 0, 57, 40
3, 20400, Note_on_c, 0, 57, 0
3, 20400, Note_on_c, 0, 62, 37
3, 20640, Note_on_c, 0, 62, 0
3, 20640, Note_on_c, 0, 60, 37
3, 20880, Note_on_c, 0, 60, 0
3, 20880, Note_on_c, 0, 62, 37
3, 21120, Note_on_c, 0, 62, 0
3, 21120, Note_on_c, 0, 59, 40
3, 21600, Note_on_c, 0, 59, 0
3, 23040, Note_on_c, 0, 60, 40
3, 23520, Note_on_c, 0, 60, 0
3, 24000, Note_on_c, 0, 48, 37
3, 24480, Note_on_c, 0, 48, 0
3, 24960, Note_on_c, 0, 50, 40
3, 25440, Note_on_c, 0, 50, 0
3, 25920, Note_on_c, 0, 38, 39
3, 26400, Note_on_c, 0, 38, 0
3, 26880, Note_on_c, 0, 43, 48
3, 27120, Note_on_c, 0, 43, 0
3, 27120, Note_on_c, 0, 47, 38
3, 27360, Note_on_c, 0, 47, 0
3, 27360, Note_on_c, 0, 50, 40
3, 27600, Note_on_c, 0, 50, 0
3, 27600, Note_on_c, 0, 55, 38
3, 27840, Note_on_c, 0, 55, 0
3, 27840, Note_on_c, 0, 43, 48
3, 28320, Note_on_c, 0, 43, 0
3, 28800, Note_on_c, 0, 48, 40
3, 29280, Note_on_c, 0, 48, 0
3, 30720, Note_on_c, 0, 48, 40
3, 31200, Note_on_c, 0, 48, 0
3, 32640, Note_on_c, 0, 48, 40
3, 33120, Note_on_c, 0, 48, 0
3, 33600, Note_on_c, 0, 48, 35
3, 34080, Note_on_c, 0, 48, 0
3, 34560, Note_on_c, 0, 43, 40
3, 35040, Note_on_c, 0, 43, 0
3, 35520, Note_on_c, 0, 55, 48
3, 35760, Note_on_c, 0, 53, 38
3, 35784, Note_on_c, 0, 55, 0
3, 36000, Note_on_c, 0, 52, 40
3, 36024, Note_on_c, 0, 53, 0
3, 36240, Note_on_c, 0, 50, 38
3, 36264, Note_on_c, 0, 52, 0
3, 36480, Note_on_c, 0, 48, 23
3, 36504, Note_on_c, 0, 50, 0
3, 36960, Note_on_c, 0, 48, 0
3, 38400, Note_on_c, 0, 60, 23
3, 38880, Note_on_c, 0, 60, 0
3, 39840, Note_on_c, 0, 54, 23
3, 40320, Note_on_c, 0, 54, 0
3, 40320, Note_on_c, 0, 55, 23
3, 40800, Note_on_c, 0, 55, 0
3, 40800, Note_on_c, 0, 48, 21
3, 41280, Note_on_c, 0, 48, 0
3, 41280, Note_on_c, 0, 50, 24
3, 41760, Note_on_c, 0, 50, 0
3, 41760, Note_on_c, 0, 38, 20
3, 42240, Note_on_c, 0, 38, 0
3, 42240, Note_on_c, 0, 43, 40
3, 42720, Note_on_c, 0, 43, 0
3, 44160, Note_on_c, 0, 54, 40
3, 44400, Note_on_c, 0, 54, 0
3, 44400, Note_on_c, 0, 62, 35
3, 44640, Note_on_c, 0, 62, 0
3, 44640, Note_on_c, 0, 57, 35
3, 44880, Note_on_c, 0, 57, 0
3, 44880, Note_on_c, 0, 62, 35
3, 45120, Note_on_c, 0, 62, 0
3, 45120, Note_on_c, 0, 54, 40
3, 45360, Note_on_c, 0, 54, 0
3, 45360, Note_on_c, 0, 62, 37
3, 45600, Note_on_c, 0, 62, 0
3, 45600, Note_on_c, 0, 57, 37
3, 45840, Note_on_c, 0, 57, 0
3, 45840, Note_on_c, 0, 62, 37
3, 46080, Note_on_c, 0, 62, 0
3, 46080, Note_on_c, 0, 55, 40
3, 46560, Note_on_c, 0, 55, 0
3, 48000, Note_on_c, 0, 57, 40
3, 48240, Note_on_c, 0, 57, 0
3, 48240, Note_on_c, 0, 62, 35
3, 48480, Note_on_c, 0, 62, 0
3, 48480, Note_on_c, 0, 60, 35
3, 48720, Note_on_c, 0, 60, 0
3, 48720, Note_on_c, 0, 62, 35
3, 48960, Note_on_c, 0, 62, 0
3, 48960, Note_on_c, 0, 57, 40
3, 49200, Note_on_c, 0, 57, 0
3, 49200, Note_on_c, 0, 62, 37
3, 49440, Note_on_c, 0, 62, 0
3, 49440, Note_on_c, 0, 60, 37
3, 49680, Note_on_c, 0, 60, 0
3, 49680, Note_on_c, 0, 62, 37
3, 49920, Note_on_c, 0, 62, 0
3, 49920, Note_on_c, 0, 59, 40
3, 50400, Note_on_c, 0, 59, 0
3, 51840, Note_on_c, 0, 60, 40
3, 52320, Note_on_c, 0, 60, 0
3, 52800, Note_on_c, 0, 48, 37
3, 53280, Note_on_c, 0, 48, 0
3, 53760, Note_on_c, 0, 50, 40
3, 54240, Note_on_c, 0, 50, 0
3, 54720, Note_on_c, 0, 38, 39
3, 55200, Note_on_c, 0, 38, 0
3, 55680, Note_on_c, 0, 43, 48
3, 55920, Note_on_c, 0, 43, 0
3, 55920, Note_on_c, 0, 47, 38
3, 56160, Note_on_c, 0, 47, 0
3, 56160, Note_on_c, 0, 50, 40
3, 56400, Note_on_c, 0, 50, 0
3, 56400, Note_on_c, 0, 55, 38
3, 56640, Note_on_c, 0, 55, 0
3, 56640, Note_on_c, 0, 43, 48
3, 57120, Note_on_c, 0, 43, 0
3, 57600, Note_on_c, 0, 65, 23
3, 59520, Note_on_c, 0, 65, 0
3, 59520, Note_on_c, 0, 63, 23
3, 61440, Note_on_c, 0, 63, 0
3, 61440, Note_on_c, 0, 59, 23
3, 62400, Note_on_c, 0, 59, 0
3, 62400, Note_on_c, 0, 60, 22
3, 63360, Note_on_c, 0, 60, 0
3, 63360, Note_on_c, 0, 55, 23
3, 64320, Note_on_c, 0, 55, 0
3, 65280, Note_on_c, 0, 65, 55
3, 65760, Note_on_c, 0, 65, 0
3, 65760, Note_on_c, 0, 55, 42
3, 66240, Note_on_c, 0, 55, 0
3, 66240, Note_on_c, 0, 62, 50
3, 66720, Note_on_c, 0, 62, 0
3, 66720, Note_on_c, 0, 55, 44
3, 67200, Note_on_c, 0, 55, 0
3, 67200, Note_on_c, 0, 63, 57
3, 67680, Note_on_c, 0, 63, 0
3, 67680, Note_on_c, 0, 55, 46
3, 68160, Note_on_c, 0, 55, 0
3, 68160, Note_on_c, 0, 60, 53
3, 68640, Note_on_c, 0, 60, 0
3, 68640, Note_on_c, 0, 55, 44
3, 69120, Note_on_c, 0, 55, 0
3, 69120, Note_on_c, 0, 59, 51
3, 69600, Note_on_c, 0, 59, 0
3, 70080, Note_on_c, 0, 60, 47
3, 70560, Note_on_c, 0, 60, 0
3, 71040, Note_on_c, 0, 55, 55
3, 71520, Note_on_c, 0, 55, 0
3, 71520, Note_on_c, 0, 43, 38
3, 72000, Note_on_c, 0, 43, 0
3, 72000, Note_on_c, 0, 55, 48
3, 72240, Note_on_c, 0, 53, 38
3, 72264, Note_on_c, 0, 55, 0
3, 72480, Note_on_c, 0, 52, 40
3, 72504, Note_on_c, 0, 53, 0
3, 72720, Note_on_c, 0, 50, 38
3, 72744, Note_on_c, 0, 52, 0
3, 72960, Note_on_c, 0, 48, 21
3, 72984, Note_on_c, 0, 50, 0
3, 73440, Note_on_c, 0, 48, 0
3, 74880, Note_on_c, 0, 48, 21
3, 75360, Note_on_c, 0, 48, 0
3, 76800, Note_on_c, 0, 48, 21
3, 77280, Note_on_c, 0, 48, 0
3, 77760, Note_on_c, 0, 48, 17
3, 78240, Note_on_c, 0, 48, 0
3, 78720, Note_on_c, 0, 43, 21
3, 79200, Note_on_c, 0, 43, 0
3, 79680, Note_on_c, 0, 43, 24
3, 79920, Note_on_c, 0, 41, 19
3, 79944, Note_on_c, 0, 43, 0
3, 80160, Note_on_c, 0, 40, 21
3, 80184, Note_on_c, 0, 41, 0
3, 80400, Note_on_c, 0, 38, 19
3, 80424, Note_on_c, 0, 40, 0
3, 80640, Note_on_c, 0, 36, 25
3, 80664, Note_on_c, 0, 38, 0
3, 81120, Note_on_c, 0, 36, 0
3, 82560, Note_on_c, 0, 48, 27
3, 83040, Note_on_c, 0, 48, 0
3, 84480, Note_on_c, 0, 55, 35
3, 84960, Note_on_c, 0, 55, 0
3, 85440, Note_on_c, 0, 43, 40
3, 85920, Note_on_c, 0, 43, 0
3, 86400, Note_on_c, 0, 48, 40
3, 86880, Note_on_c, 0, 48, 0
3, 88320, Note_on_c, 0, 47, 40
3, 88560, Note_on_c, 0, 47, 0
3, 88560, Note_on_c, 0, 55, 35
3, 88800, Note_on_c, 0, 55, 0
3, 88800, Note_on_c, 0, 50, 35
3, 89040, Note_on_c, 0, 50, 0
3, 89040, Note_on_c, 0, 55, 35
3, 89280, Note_on_c, 0, 55, 0
3, 89280, Note_on_c, 0, 47, 40
3, 89520, Note_on_c, 0, 47, 0
3, 89520, Note_on_c, 0, 55, 37
3, 89760, Note_on_c, 0, 55, 0
3, 89760, Note_on_c, 0, 50, 37
3, 90000, Note_on_c, 0, 50, 0
3, 90000, Note_on_c, 0, 55, 37
3, 90240, Note_on_c, 0, 55, 0
3, 90240, Note_on_c, 0, 48, 40
3, 90720, Note_on_c, 0, 48, 0
3, 92160, Note_on_c, 0, 50, 40
3, 92400, Note_on_c, 0, 50, 0
3, 92400, Note_on_c, 0, 55, 35
3, 92640, Note_on_c, 0, 55, 0
3, 92640, Note_on_c, 0, 53, 35
3, 92880, Note_on_c, 0, 53, 0
3, 92880, Note_on_c, 0, 55, 35
3, 93120, Note_on_c, 0, 55, 0
3, 93120, Note_on_c, 0, 50, 40
3, 93360, Note_on_c, 0, 50, 0
3, 93360, Note_on_c, 0, 55, 37
3, 93600, Note_on_c, 0, 55, 0
3, 93600, Note_on_c, 0, 53, 37
3, 93840, Note_on_c, 0, 53, 0
3, 93840, Note_on_c, 0, 55, 37
3, 94080, Note_on_c, 0, 55, 0
3, 94080, Note_on_c, 0, 52, 40
3, 94560, Note_on_c, 0, 52, 0
3, 96000, Note_on_c, 0, 53, 40
3, 96480, Note_on_c, 0, 53, 0
3, 96960, Note_on_c, 0, 53, 37
3, 97440, Note_on_c, 0, 53, 0
3, 97920, Note_on_c, 0, 55, 40
3, 98400, Note_on_c, 0, 55, 0
3, 98880, Note_on_c, 0, 43, 39
3, 99360, Note_on_c, 0, 43, 0
3, 99840, Note_on_c, 0, 36, 48
3, 100080, Note_on_c, 0, 36, 0
3, 100080, Note_on_c, 0, 40, 38
3, 100320, Note_on_c, 0, 40, 0
3, 100320, Note_on_c, 0, 43, 40
3, 100560, Note_on_c, 0, 43, 0
3, 100560, Note_on_c, 0, 48, 38
3, 100800, Note_on_c, 0, 48, 0
3, 100800, Note_on_c, 0, 36, 48
3, 101280, Note_on_c, 0, 36, 0
3, 101760, Note_on_c, 0, 65, 23
3, 103680, Note_on_c, 0, 65, 0
3, 103680, Note_on_c, 0, 63, 23
3, 105600, Note_on_c, 0, 63, 0
3, 105600, Note_on_c, 0, 59, 23
3, 106560, Note_on_c, 0, 59, 0
3, 106560, Note_on_c, 0, 60, 22
3, 107520, Note_on_c, 0, 60, 0
3, 107520, Note_on_c, 0, 55, 23
3, 108480, Note_on_c, 0, 55, 0
3, 109440, Note_on_c, 0, 65, 55
3, 109920, Note_on_c, 0, 65, 0
3, 109920, Note_on_c, 0, 55, 42
3, 110400, Note_on_c, 0, 55, 0
3, 110400, Note_on_c, 0, 62, 50
3, 110880, Note_on_c, 0, 62, 0
3, 110880, Note_on_c, 0, 55, 44
3, 111360, Note_on_c, 0, 55, 0
3, 111360, Note_on_c, 0, 63, 57
3, 111840, Note_on_c, 0, 63, 0
3, 111840, Note_on_c, 0, 55, 46
3, 112320, Note_on_c, 0, 55, 0
3, 112320, Note_on_c, 0, 60, 53
3, 112800, Note_on_c, 0, 60, 0
3, 112800, Note_on_c, 0, 55, 44
3, 113280, Note_on_c, 0, 55, 0
3, 113280, Note_on_c, 0, 59, 51
3, 113760, Note_on_c, 0, 59, 0
3, 114240, Note_on_c, 0, 60, 47
3, 114720, Note_on_c, 0, 60, 0
3, 115200, Note_on_c, 0, 55, 55
3, 115680, Note_on_c, 0, 55, 0
3, 115680, Note_on_c, 0, 43, 38
3, 116160, Note_on_c, 0, 43, 0
3, 116160, Note_on_c, 0, 55, 48
3, 116400, Note_on_c, 0, 53, 38
3, 116424, Note_on_c, 0, 55, 0
3, 116640, Note_on_c, 0, 52, 40
3, 116664, Note_on_c, 0, 53, 0
3, 116880, Note_on_c, 0, 50, 38
3, 116904, Note_on_c, 0, 52, 0
3, 117120, Note_on_c, 0, 48, 21
3, 117144, Note_on_c, 0, 50, 0
3, 117600, Note_on_c, 0, 48, 0
3, 119040, Note_on_c, 0, 48, 21
3, 119520, Note_on_c, 0, 48, 0
3, 120960, Note_on_c, 0, 48, 21
3, 121440, Note_on_c, 0, 48, 0
3, 121920, Note_on_c, 0, 48, 17
3, 122400, Note_on_c, 0, 48, 0
3, 122880, Note_on_c, 0, 43, 21
3, 123360, Note_on_c, 0, 43, 0
3, 123840, Note_on_c, 0, 43, 24
3, 124080, Note_on_c, 0, 41, 19
3, 124104, Note_on_c, 0, 43, 0
3, 124320, Note_on_c, 0, 40, 21
3, 124344, Note_on_c, 0, 41, 0
3, 124560, Note_on_c, 0, 38, 19
3, 124584, Note_on_c, 0, 40, 0
3, 124800, Note_on_c, 0, 36, 25
3, 124824, Note_on_c, 0, 38, 0
3, 125280, Note_on_c, 0, 36, 0
3, 126720, Note_on_c, 0, 48, 27
3, 127200, Note_on_c, 0, 48, 0
3, 128640, Note_on_c, 0, 55, 35
3, 129120, Note_on_c, 0, 55, 0
3, 129600, Note_on_c, 0, 43, 40
3, 130080, Note_on_c, 0, 43, 0
3, 130560, Note_on_c, 0, 48, 40
3, 131040, Note_on_c, 0, 48, 0
3, 132480, Note_on_c, 0, 47, 40
3, 132720, Note_on_c, 0, 47, 0
3, 132720, Note_on_c, 0, 55, 35
3, 132960, Note_on_c, 0, 55, 0
3, 132960, Note_on_c, 0, 50, 35
3, 133200, Note_on_c, 0, 50, 0
3, 133200, Note_on_c, 0, 55, 35
3, 133440, Note_on_c, 0, 55, 0
3, 133440, Note_on_c, 0, 47, 40
3, 133680, Note_on_c, 0, 47, 0
3, 133680, Note_on_c, 0, 55, 37
3, 133920, Note_on_c, 0, 55, 0
3, 133920, Note_on_c, 0, 50, 37
3, 134160, Note_on_c, 0, 50, 0
3, 134160, Note_on_c, 0, 55, 37
3, 134400, Note_on_c, 0, 55, 0
3, 134400, Note_on_c, 0, 48, 40
3, 134880, Note_on_c, 0, 48, 0
3, 136320, Note_on_c, 0, 50, 40
3, 136560, Note_on_c, 0, 50, 0
3, 136560, Note_on_c, 0, 55, 35
3, 136800, Note_on_c, 0, 55, 0
3, 136800, Note_on_c, 0, 53, 35
3, 137040, Note_on_c, 0, 53, 0
3, 137040, Note_on_c, 0, 55, 35
3, 137280, Note_on_c, 0, 55, 0
3, 137280, Note_on_c, 0, 50, 40
3, 137520, Note_on_c, 0, 50, 0
3, 137520, Note_on_c, 0, 55, 37
3, 137760, Note_on_c, 0, 55, 0
3, 137760, Note_on_c, 0, 53, 37
3, 138000, Note_on_c, 0, 53, 0
3, 138000, Note_on_c, 0, 55, 37
3, 138240, Note_on_c, 0, 55, 0
3, 138240, Note_on_c, 0, 52, 40
3, 138720, Note_on_c, 0, 52, 0
3, 140160, Note_on_c, 0, 53, 40
3, 140640, Note_on_c, 0, 53, 0
3, 141120, Note_on_c, 0, 53, 37
3, 141600, Note_on_c, 0, 53, 0
3, 142080, Note_on_c, 0, 55, 40
3, 142560, Note_on_c, 0, 55, 0
3, 143040, Note_on_c, 0, 43, 39
3, 143520, Note_on_c, 0, 43, 0
3, 144000, Note_on_c, 0, 36, 48
3, 144240, Note_on_c, 0, 36, 0
3, 144240, Note_on_c, 0, 40, 38
3, 144480, Note_on_c, 0, 40, 0
3, 144480, Note_on_c, 0, 43, 40
3, 144720, Note_on_c, 0, 43, 0
3, 144720, Note_on_c, 0, 48, 38
3, 144960, Note_on_c, 0, 48, 0
3, 144960, Note_on_c, 0, 36, 48
3, 145440, Note_on_c, 0, 36, 0
3, 145440, End_track
4, 0, Start_track
4, 0, Title_t, "Pedale"
4, 0, Program_c, 0, 0
4, 18, Control_c, 0, 64, 127
4, 978, Control_c, 0, 64, 0
4, 1980, Control_c, 0, 64, 127
4, 2900, Control_c, 0, 64, 0
4, 7864, Control_c, 0, 64, 127
4, 8656, Control_c, 0, 64, 0
4, 9600, Control_c, 0, 64, 127
4, 10565, Control_c, 0, 64, 0
4, 11167, Control_c, 0, 64, 127
4, 11526, Control_c, 0, 64, 0
4, 11669, Control_c, 0, 64, 127
4, 12016, Control_c, 0, 64, 0
4, 12126, Control_c, 0, 64, 127
4, 12495, Control_c, 0, 64, 0
4, 12629, Control_c, 0, 64, 127
4, 12977, Control_c, 0, 64, 0
4, 13109, Control_c, 0, 64, 127
4, 13444, Control_c, 0, 64, 0
4, 15520, Control_c, 0, 64, 127
4, 17280, Control_c, 0, 64, 0
4, 19313, Control_c, 0, 64, 127
4, 21120, Control_c, 0, 64, 0
4, 21304, Control_c, 0, 64, 127
4, 22097, Control_c, 0, 64, 0
4, 26993, Control_c, 0, 64, 127
4, 28334, Control_c, 0, 64, 0
4, 28818, Control_c, 0, 64, 127
4, 29778, Control_c, 0, 64, 0
4, 30780, Control_c, 0, 64, 127
4, 31700, Control_c, 0, 64, 0
4, 36664, Control_c, 0, 64, 127
4, 37456, Control_c, 0, 64, 0
4, 38400, Control_c, 0, 64, 127
4, 39365, Control_c, 0, 64, 0
4, 39967, Control_c, 0, 64, 127
4, 40326, Control_c, 0, 64, 0
4, 40469, Control_c, 0, 64, 127
4, 40816, Control_c, 0, 64, 0
4, 40926, Control_c, 0, 64, 127
4, 41295, Control_c, 0, 64, 0
4, 41429, Control_c, 0, 64, 127
4, 41777, Control_c, 0, 64, 0
4, 41909, Control_c, 0, 64, 127
4, 42244, Control_c, 0, 64, 0
4, 44320, Control_c, 0, 64, 127
4, 46080, Control_c, 0, 64, 0
4, 48113, Control_c, 0, 64, 127
4, 49920, Control_c, 0, 64, 0
4, 50104, Control_c, 0, 64, 127
4, 50897, Control_c, 0, 64, 0
4, 55793, Control_c, 0, 64, 127
4, 57134, Control_c, 0, 64, 0
4, 57784, Control_c, 0, 64, 127
4, 58576, Control_c, 0, 64, 0
4, 59704, Control_c, 0, 64, 127
4, 60496, Control_c, 0, 64, 0
4, 61577, Control_c, 0, 64, 127
4, 62416, Control_c, 0, 64, 0
4, 62720, Control_c, 0, 64, 127
4, 63360, Control_c, 0, 64, 0
4, 63946, Control_c, 0, 64, 127
4, 64331, Control_c, 0, 64, 0
4, 65407, Control_c, 0, 64, 127
4, 67218, Control_c, 0, 64, 0
4, 67426, Control_c, 0, 64, 127
4, 69133, Control_c, 0, 64, 0
4, 73140, Control_c, 0, 64, 127
4, 73938, Control_c, 0, 64, 0
4, 74940, Control_c, 0, 64, 127
4, 75860, Control_c, 0, 64, 0
4, 80778, Control_c, 0, 64, 127
4, 81618, Control_c, 0, 64, 0
4, 82758, Control_c, 0, 64, 127
4, 83538, Control_c, 0, 64, 0
4, 86404, Control_c, 0, 64, 0
4, 88480, Control_c, 0, 64, 127
4, 90240, Control_c, 0, 64, 0
4, 92273, Control_c, 0, 64, 127
4, 94080, Control_c, 0, 64, 0
4, 94264, Control_c, 0, 64, 127
4, 95057, Control_c, 0, 64, 0
4, 99953, Control_c, 0, 64, 127
4, 101294, Control_c, 0, 64, 0
4, 101944, Control_c, 0, 64, 127
4, 102736, Control_c, 0, 64, 0
4, 103864, Control_c, 0, 64, 127
4, 104656, Control_c, 0, 64, 0
4, 105737, Control_c, 0, 64, 127
4, 106576, Control_c, 0, 64, 0
4, 106880, Control_c, 0, 64, 127
4, 107520, Control_c, 0, 64, 0
4, 108106, Control_c, 0, 64, 127
4, 108491, Control_c, 0, 64, 0
4, 109567, Control_c, 0, 64, 127
4, 111378, Control_c, 0, 64, 0
4, 111586, Control_c, 0, 64, 127
4, 113293, Control_c, 0, 64, 0
4, 117300, Control_c, 0, 64, 127
4, 118098, Control_c, 0, 64, 0
4, 119100, Control_c, 0, 64, 127
4, 120020, Control_c, 0, 64, 0
4, 124938, Control_c, 0, 64, 127
4, 125778, Control_c, 0, 64, 0
4, 126918, Control_c, 0, 64, 127
4, 127698, Control_c, 0, 64, 0
4, 130564, Control_c, 0, 64, 0
4, 132640, Control_c, 0, 64, 127
4, 134400, Control_c, 0, 64, 0
4, 136433, Control_c, 0, 64, 127
4, 138240, Control_c, 0, 64, 0
4, 138424, Control_c, 0, 64, 127
4, 139217, Control_c, 0, 64, 0
4, 144113, Control_c, 0, 64, 127
4, 145454, Control_c, 0, 64, 0
4, 145454, End_track
5, 0, Start_track
5, 0, Title_t, "Clementi: Sonatatina Opus 26, No. 1, 1. movement"
5, 0, End_track
6, 0, Start_track
6, 0, Title_t, "Copyright © 2010 by Bernd Krueger"
6, 0, End_track
7, 0, Start_track
7, 0, Title_t, "http://www.piano-midi.de/"
7, 0, End_track
8, 0, Start_track
8, 0, Title_t, "Edition: 2010-11-13"
8, 0, End_track
9, 0, Start_track
9, 0, Title_t, "Spur 8"
9, 0, End_track
10, 0, Start_track
10, 0, Title_t, "Spur 9"
10, 0, End_track
11, 0, Start_track
11, 0, Title_t, "Spur 10"
11, 0, End_track
12, 0, Start_track
12, 0, Title_t, "Spur 11"
12, 0, End_track
13, 0, Start_track
13, 0, Title_t, "Spur 12"
13, 0, End_track
14, 0, Start_track
14, 0, Title_t, "Spur 13"
14, 0, End_track
15, 0, Start_track
15, 0, Title_t, "Spur 14"
15, 0, End_track
16, 0, Start_track
16, 0, Title_t, "Spur 15"
16, 0, End_track
17, 0, Start_track
17, 0, Title_t, "Spur 16"
17, 0, End_track
0, 0, End_of_file
