0, 0, Header, 1, 17, 480
1, 0, Start_track
1, 0, Title_t, "Clementi: Sonatine Opus 36 Nr. 4, 3. Satz"
1, 0, Copyright_t, "Copyright © 2011 by Bernd Krueger"
1, 0, Text_t, "Muzio Clementi"
1, 0, Text_t, "Rondo. Allegro vivace"
1, 0, Text_t, "Erstellt: 17.10.2011\012"
1, 0, Text_t, "Dauer: 1:48 Minuten\012"
1, 0, Time_signature, 2, 2, 24, 8
1, 0, Key_signature, -1, "major"
1, 0, Tempo, 662983
1, 480, Marker_t, "Teil 1"
1, 880, Tempo, 750000
1, 960, Tempo, 681818
1, 1440, Tempo, 659341
1, 1840, Tempo, 750000
1, 1920, Tempo, 677966
1, 2400, Tempo, 662983
1, 3840, Tempo, 685714
1, 4320, Tempo, 662983
1, 4800, Tempo, 670391
1, 5680, Tempo, 759494
1, 5760, Tempo, 662983
1, 6720, Tempo, 666667
1, 7360, Tempo, 710059
1, 7440, Tempo, 662983
1, 8800, Tempo, 714286
1, 8880, Tempo, 662983
1, 9360, Tempo, 681818
1, 9520, Tempo, 754717
1, 9600, Tempo, 662983
1, 10579, Tempo, 659341
1, 10637, Tempo, 662983
1, 10675, Tempo, 666667
1, 10733, Tempo, 670391
1, 10771, Tempo, 674157
1, 10829, Tempo, 677966
1, 10867, Tempo, 681818
1, 10925, Tempo, 685714
1, 10963, Tempo, 689655
1, 11021, Tempo, 693642
1, 11040, Tempo, 693642
1, 11079, Tempo, 697674
1, 11098, Tempo, 701754
1, 11136, Tempo, 705882
1, 11155, Tempo, 710059
1, 11194, Tempo, 714286
1, 11213, Tempo, 718563
1, 11232, Tempo, 722892
1, 11271, Tempo, 727273
1, 11290, Tempo, 731707
1, 11328, Tempo, 736196
1, 11347, Tempo, 740741
1, 11386, Tempo, 745342
1, 11405, Tempo, 750000
1, 11424, Tempo, 754717
1, 11520, Tempo, 662983
1, 12400, Tempo, 759494
1, 12480, Tempo, 689655
1, 12960, Tempo, 662983
1, 13360, Tempo, 764331
1, 13440, Tempo, 681818
1, 13920, Tempo, 655738
1, 14000, Tempo, 666667
1, 15360, Tempo, 697674
1, 15840, Tempo, 666667
1, 16320, Tempo, 677966
1, 17200, Tempo, 779221
1, 17280, Tempo, 693642
1, 17760, Tempo, 670391
1, 18880, Tempo, 705882
1, 18960, Tempo, 685714
1, 19200, Tempo, 693642
1, 19360, Tempo, 666667
1, 21040, Tempo, 740741
1, 21120, Tempo, 662983
1, 22080, Tempo, 659341
1, 22240, Tempo, 705882
1, 22320, Tempo, 662983
1, 24000, Tempo, 697674
1, 24240, Tempo, 662983
1, 24517, Tempo, 662983
1, 24594, Tempo, 666667
1, 24652, Tempo, 670391
1, 24709, Tempo, 674157
1, 24786, Tempo, 677966
1, 24844, Tempo, 681818
1, 24901, Tempo, 685714
1, 24959, Tempo, 689655
1, 24960, Tempo, 674157
1, 25440, Tempo, 697674
1, 25458, Tempo, 697674
1, 25497, Tempo, 701754
1, 25516, Tempo, 705882
1, 25535, Tempo, 710059
1, 25554, Tempo, 714286
1, 25573, Tempo, 718563
1, 25593, Tempo, 722892
1, 25612, Tempo, 727273
1, 25650, Tempo, 731707
1, 25669, Tempo, 736196
1, 25689, Tempo, 740741
1, 25708, Tempo, 745342
1, 25727, Tempo, 750000
1, 25746, Tempo, 754717
1, 25765, Tempo, 759494
1, 25840, Tempo, 916031
1, 25919, Tempo, 794702
1, 26160, Tempo, 875912
1, 26400, Tempo, 662983
1, 26400, Marker_t, "Teil 2"
1, 26800, Tempo, 750000
1, 26880, Tempo, 674157
1, 27280, Tempo, 718563
1, 27360, Tempo, 674157
1, 27760, Tempo, 759494
1, 27840, Tempo, 689655
1, 28320, Tempo, 662983
1, 28720, Tempo, 750000
1, 28800, Tempo, 674157
1, 29200, Tempo, 718563
1, 29271, Tempo, 701754
1, 29290, Tempo, 697674
1, 29299, Tempo, 693642
1, 29309, Tempo, 689655
1, 29319, Tempo, 685714
1, 29328, Tempo, 681818
1, 29338, Tempo, 677966
1, 29347, Tempo, 674157
1, 29357, Tempo, 670391
1, 29367, Tempo, 666667
1, 29376, Tempo, 662983
1, 29386, Tempo, 659341
1, 29395, Tempo, 655738
1, 29405, Tempo, 652174
1, 29415, Tempo, 648649
1, 29501, Tempo, 652174
1, 29587, Tempo, 655738
1, 29597, Tempo, 659341
1, 29607, Tempo, 662983
1, 29616, Tempo, 666667
1, 29626, Tempo, 670391
1, 29635, Tempo, 674157
1, 29645, Tempo, 681818
1, 29655, Tempo, 685714
1, 29664, Tempo, 689655
1, 29674, Tempo, 693642
1, 29683, Tempo, 697674
1, 29693, Tempo, 701754
1, 29703, Tempo, 710059
1, 29760, Tempo, 662983
1, 30160, Tempo, 774194
1, 30240, Tempo, 662983
1, 30248, Tempo, 648649
1, 30332, Tempo, 652174
1, 30404, Tempo, 655738
1, 30488, Tempo, 659341
1, 30560, Tempo, 662983
1, 30644, Tempo, 666667
1, 30716, Tempo, 670391
1, 30720, Tempo, 662983
1, 31120, Tempo, 789474
1, 31200, Tempo, 662983
1, 31208, Tempo, 652174
1, 31292, Tempo, 655738
1, 31364, Tempo, 659341
1, 31448, Tempo, 662983
1, 31520, Tempo, 666667
1, 31604, Tempo, 670391
1, 31676, Tempo, 674157
1, 31680, Tempo, 662983
1, 31688, Tempo, 659341
1, 32080, Tempo, 810811
1, 32160, Tempo, 659341
1, 32560, Tempo, 731707
1, 32640, Tempo, 701754
1, 32720, Tempo, 652174
1, 33120, Tempo, 659341
1, 33128, Tempo, 645161
1, 33200, Tempo, 648649
1, 33260, Tempo, 652174
1, 33332, Tempo, 655738
1, 33392, Tempo, 659341
1, 33464, Tempo, 662983
1, 33524, Tempo, 666667
1, 33584, Tempo, 655738
1, 33600, Tempo, 674157
1, 34000, Tempo, 718563
1, 34071, Tempo, 701754
1, 34090, Tempo, 697674
1, 34099, Tempo, 693642
1, 34109, Tempo, 689655
1, 34119, Tempo, 685714
1, 34128, Tempo, 681818
1, 34138, Tempo, 677966
1, 34147, Tempo, 674157
1, 34157, Tempo, 670391
1, 34167, Tempo, 666667
1, 34176, Tempo, 662983
1, 34186, Tempo, 659341
1, 34195, Tempo, 655738
1, 34205, Tempo, 652174
1, 34215, Tempo, 648649
1, 34301, Tempo, 652174
1, 34387, Tempo, 655738
1, 34397, Tempo, 659341
1, 34407, Tempo, 662983
1, 34416, Tempo, 666667
1, 34426, Tempo, 670391
1, 34435, Tempo, 674157
1, 34445, Tempo, 681818
1, 34455, Tempo, 685714
1, 34464, Tempo, 689655
1, 34474, Tempo, 693642
1, 34483, Tempo, 697674
1, 34493, Tempo, 701754
1, 34503, Tempo, 710059
1, 34560, Tempo, 662983
1, 34960, Tempo, 745342
1, 35040, Tempo, 666667
1, 35440, Tempo, 750000
1, 35520, Tempo, 662983
1, 35920, Tempo, 745342
1, 36000, Tempo, 666667
1, 36400, Tempo, 750000
1, 36480, Tempo, 662983
1, 36880, Tempo, 745342
1, 36960, Tempo, 662983
1, 37360, Tempo, 745342
1, 37440, Tempo, 662983
1, 37840, Tempo, 745342
1, 37920, Tempo, 701754
1, 37930, Tempo, 697674
1, 37939, Tempo, 693642
1, 37949, Tempo, 689655
1, 37959, Tempo, 685714
1, 37968, Tempo, 681818
1, 37978, Tempo, 677966
1, 37987, Tempo, 674157
1, 37997, Tempo, 670391
1, 38007, Tempo, 666667
1, 38016, Tempo, 662983
1, 38026, Tempo, 659341
1, 38035, Tempo, 655738
1, 38045, Tempo, 652174
1, 38055, Tempo, 648649
1, 38141, Tempo, 652174
1, 38227, Tempo, 655738
1, 38237, Tempo, 659341
1, 38247, Tempo, 662983
1, 38256, Tempo, 666667
1, 38266, Tempo, 670391
1, 38275, Tempo, 674157
1, 38285, Tempo, 681818
1, 38295, Tempo, 685714
1, 38304, Tempo, 689655
1, 38314, Tempo, 693642
1, 38323, Tempo, 697674
1, 38333, Tempo, 701754
1, 38343, Tempo, 710059
1, 38400, Tempo, 662983
1, 38800, Tempo, 745342
1, 38880, Tempo, 666667
1, 39280, Tempo, 750000
1, 39360, Tempo, 662983
1, 39760, Tempo, 745342
1, 39840, Tempo, 666667
1, 40240, Tempo, 750000
1, 40320, Tempo, 662983
1, 40720, Tempo, 745342
1, 40800, Tempo, 662983
1, 41200, Tempo, 745342
1, 41280, Tempo, 662983
1, 41680, Tempo, 745342
1, 41760, Tempo, 662983
1, 42160, Tempo, 745342
1, 42240, Tempo, 666667
1, 42400, Tempo, 659341
1, 42640, Tempo, 697674
1, 42720, Tempo, 666667
1, 42880, Tempo, 659341
1, 43120, Tempo, 745342
1, 43200, Tempo, 662983
1, 43440, Tempo, 652174
1, 43600, Tempo, 689655
1, 43680, Tempo, 662983
1, 43840, Tempo, 648649
1, 44080, Tempo, 745342
1, 44160, Tempo, 652174
1, 44320, Tempo, 655738
1, 44400, Tempo, 670391
1, 44413, Tempo, 655738
1, 44497, Tempo, 659341
1, 44581, Tempo, 662983
1, 44653, Tempo, 666667
1, 44737, Tempo, 670391
1, 44809, Tempo, 674157
1, 44893, Tempo, 677966
1, 44965, Tempo, 681818
1, 45049, Tempo, 685714
1, 45120, Tempo, 659341
1, 45280, Tempo, 659341
1, 45360, Tempo, 670391
1, 45373, Tempo, 655738
1, 45457, Tempo, 659341
1, 45541, Tempo, 662983
1, 45613, Tempo, 666667
1, 45697, Tempo, 670391
1, 45769, Tempo, 674157
1, 45853, Tempo, 677966
1, 45925, Tempo, 681818
1, 46009, Tempo, 685714
1, 46080, Tempo, 754717
1, 46320, Tempo, 693642
1, 46560, Tempo, 689655
1, 46561, Tempo, 659341
1, 46609, Tempo, 662983
1, 46657, Tempo, 666667
1, 46705, Tempo, 670391
1, 46753, Tempo, 674157
1, 46801, Tempo, 677966
1, 46849, Tempo, 681818
1, 46897, Tempo, 685714
1, 46945, Tempo, 689655
1, 46960, Tempo, 875912
1, 47040, Tempo, 754717
1, 47509, Tempo, 736196
1, 47520, Tempo, 689655
1, 47544, Tempo, 693642
1, 47568, Tempo, 697674
1, 47592, Tempo, 701754
1, 47616, Tempo, 705882
1, 47640, Tempo, 710059
1, 47664, Tempo, 714286
1, 47676, Tempo, 718563
1, 47677, Tempo, 779221
1, 47689, Tempo, 784314
1, 47713, Tempo, 789474
1, 47725, Tempo, 794702
1, 47749, Tempo, 800000
1, 47761, Tempo, 805369
1, 47785, Tempo, 810811
1, 47797, Tempo, 816327
1, 47821, Tempo, 821918
1, 47833, Tempo, 827586
1, 47845, Tempo, 833333
1, 47857, Tempo, 845070
1, 47881, Tempo, 851064
1, 47905, Tempo, 857143
1, 47920, Tempo, 937500
1, 48000, Tempo, 882353
1, 48480, Tempo, 710059
1, 49423, Tempo, 685714
1, 49440, Marker_t, "Teil 1 da Capo al Fine"
1, 49557, Tempo, 681818
1, 49692, Tempo, 677966
1, 49826, Tempo, 674157
1, 49840, Tempo, 750000
1, 49920, Tempo, 681818
1, 50400, Tempo, 659341
1, 50800, Tempo, 750000
1, 50880, Tempo, 677966
1, 51360, Tempo, 662983
1, 51381, Tempo, 641711
1, 51458, Tempo, 645161
1, 51535, Tempo, 648649
1, 51612, Tempo, 652174
1, 51689, Tempo, 655738
1, 51765, Tempo, 659341
1, 51823, Tempo, 662983
1, 51840, Tempo, 659341
1, 52800, Tempo, 685714
1, 53280, Tempo, 662983
1, 53760, Tempo, 652174
1, 54000, Tempo, 670391
1, 54240, Tempo, 652174
1, 54400, Tempo, 666667
1, 54640, Tempo, 759494
1, 54720, Tempo, 662983
1, 55680, Tempo, 666667
1, 55760, Tempo, 652174
1, 55920, Tempo, 666667
1, 56320, Tempo, 710059
1, 56400, Tempo, 662983
1, 56880, Tempo, 645161
1, 57120, Tempo, 662983
1, 57360, Tempo, 648649
1, 57440, Tempo, 645161
1, 57600, Tempo, 659341
1, 57760, Tempo, 714286
1, 57840, Tempo, 662983
1, 58320, Tempo, 681818
1, 58480, Tempo, 754717
1, 58560, Tempo, 662983
1, 59539, Tempo, 659341
1, 59597, Tempo, 662983
1, 59635, Tempo, 666667
1, 59693, Tempo, 670391
1, 59731, Tempo, 674157
1, 59789, Tempo, 677966
1, 59827, Tempo, 681818
1, 59885, Tempo, 685714
1, 59923, Tempo, 689655
1, 59981, Tempo, 693642
1, 60000, Tempo, 693642
1, 60039, Tempo, 697674
1, 60041, Tempo, 693642
1, 60079, Tempo, 697674
1, 60098, Tempo, 701754
1, 60117, Tempo, 705882
1, 60156, Tempo, 710059
1, 60175, Tempo, 714286
1, 60194, Tempo, 718563
1, 60213, Tempo, 722892
1, 60252, Tempo, 727273
1, 60271, Tempo, 731707
1, 60290, Tempo, 736196
1, 60309, Tempo, 740741
1, 60329, Tempo, 759494
1, 60348, Tempo, 764331
1, 60367, Tempo, 769231
1, 60386, Tempo, 774194
1, 60405, Tempo, 779221
1, 60425, Tempo, 784314
1, 60444, Tempo, 794702
1, 60480, Tempo, 662983
1, 61040, Tempo, 652174
1, 61360, Tempo, 759494
1, 61440, Tempo, 689655
1, 61920, Tempo, 655738
1, 62320, Tempo, 710059
1, 62400, Tempo, 681818
1, 62880, Tempo, 655738
1, 62960, Tempo, 666667
1, 64320, Tempo, 697674
1, 64800, Tempo, 666667
1, 65280, Tempo, 677966
1, 65360, Tempo, 662983
1, 65520, Tempo, 677966
1, 65840, Tempo, 659341
1, 66000, Tempo, 674157
1, 66160, Tempo, 779221
1, 66240, Tempo, 693642
1, 66720, Tempo, 670391
1, 67200, Tempo, 655738
1, 67280, Tempo, 655738
1, 67360, Tempo, 662983
1, 67680, Tempo, 652174
1, 67840, Tempo, 705882
1, 67920, Tempo, 685714
1, 68160, Tempo, 693642
1, 68311, Tempo, 655738
1, 68437, Tempo, 659341
1, 68563, Tempo, 662983
1, 68690, Tempo, 666667
1, 68715, Tempo, 648649
1, 68816, Tempo, 652174
1, 68892, Tempo, 655738
1, 68968, Tempo, 659341
1, 69043, Tempo, 662983
1, 69119, Tempo, 666667
1, 69170, Tempo, 662983
1, 69574, Tempo, 662983
1, 70000, Tempo, 740741
1, 70080, Tempo, 662983
1, 70320, Tempo, 645161
1, 70560, Tempo, 659341
1, 70800, Tempo, 645161
1, 71040, Tempo, 659341
1, 71200, Tempo, 705882
1, 71280, Tempo, 662983
1, 72240, Tempo, 645161
1, 72480, Tempo, 659341
1, 72720, Tempo, 648649
1, 72960, Tempo, 697674
1, 73200, Tempo, 670391
1, 73477, Tempo, 662983
1, 73515, Tempo, 666667
1, 73565, Tempo, 670391
1, 73591, Tempo, 674157
1, 73616, Tempo, 677966
1, 73641, Tempo, 681818
1, 73667, Tempo, 685714
1, 73692, Tempo, 689655
1, 73717, Tempo, 693642
1, 73742, Tempo, 697674
1, 73768, Tempo, 701754
1, 73793, Tempo, 705882
1, 73818, Tempo, 710059
1, 73843, Tempo, 714286
1, 73869, Tempo, 718563
1, 73919, Tempo, 689655
1, 73920, Tempo, 693642
1, 74399, Tempo, 710059
1, 74424, Tempo, 714286
1, 74450, Tempo, 718563
1, 74475, Tempo, 727273
1, 74500, Tempo, 731707
1, 74525, Tempo, 736196
1, 74551, Tempo, 745342
1, 74576, Tempo, 750000
1, 74601, Tempo, 759494
1, 74627, Tempo, 764331
1, 74652, Tempo, 769231
1, 74677, Tempo, 779221
1, 74702, Tempo, 784314
1, 74728, Tempo, 789474
1, 74753, Tempo, 800000
1, 74800, Tempo, 1263158
1, 74879, Tempo, 794702
1, 74880, Tempo, 967742
1, 75120, Tempo, 991736
1, 75120, End_track
2, 0, Start_track
2, 0, Title_t, "Piano right"
2, 0, Program_c, 0, 0
2, 480, Note_on_c, 0, 77, 45
2, 560, Note_on_c, 0, 77, 0
2, 560, Note_on_c, 0, 79, 38
2, 640, Note_on_c, 0, 79, 0
2, 640, Note_on_c, 0, 81, 38
2, 720, Note_on_c, 0, 81, 0
2, 720, Note_on_c, 0, 77, 44
2, 800, Note_on_c, 0, 77, 0
2, 800, Note_on_c, 0, 79, 37
2, 880, Note_on_c, 0, 79, 0
2, 880, Note_on_c, 0, 81, 37
2, 960, Note_on_c, 0, 81, 0
2, 960, Note_on_c, 0, 72, 45
2, 1020, Note_on_c, 0, 72, 0
2, 1200, Note_on_c, 0, 72, 45
2, 1260, Note_on_c, 0, 72, 0
2, 1440, Note_on_c, 0, 77, 45
2, 1520, Note_on_c, 0, 77, 0
2, 1520, Note_on_c, 0, 79, 38
2, 1600, Note_on_c, 0, 79, 0
2, 1600, Note_on_c, 0, 81, 38
2, 1680, Note_on_c, 0, 81, 0
2, 1680, Note_on_c, 0, 77, 44
2, 1760, Note_on_c, 0, 77, 0
2, 1760, Note_on_c, 0, 79, 37
2, 1840, Note_on_c, 0, 79, 0
2, 1840, Note_on_c, 0, 81, 37
2, 1920, Note_on_c, 0, 81, 0
2, 1920, Note_on_c, 0, 74, 45
2, 1980, Note_on_c, 0, 74, 0
2, 2160, Note_on_c, 0, 74, 45
2, 2220, Note_on_c, 0, 74, 0
2, 2400, Note_on_c, 0, 86, 53
2, 2480, Note_on_c, 0, 86, 0
2, 2480, Note_on_c, 0, 84, 50
2, 2560, Note_on_c, 0, 84, 0
2, 2560, Note_on_c, 0, 82, 50
2, 2640, Note_on_c, 0, 82, 0
2, 2640, Note_on_c, 0, 81, 55
2, 2720, Note_on_c, 0, 81, 0
2, 2720, Note_on_c, 0, 79, 57
2, 2800, Note_on_c, 0, 79, 0
2, 2800, Note_on_c, 0, 77, 58
2, 2880, Note_on_c, 0, 77, 0
2, 2880, Note_on_c, 0, 76, 63
2, 2960, Note_on_c, 0, 76, 0
2, 2960, Note_on_c, 0, 79, 57
2, 3040, Note_on_c, 0, 79, 0
2, 3040, Note_on_c, 0, 77, 56
2, 3120, Note_on_c, 0, 77, 0
2, 3120, Note_on_c, 0, 76, 62
2, 3200, Note_on_c, 0, 76, 0
2, 3200, Note_on_c, 0, 74, 54
2, 3280, Note_on_c, 0, 74, 0
2, 3280, Note_on_c, 0, 72, 54
2, 3360, Note_on_c, 0, 72, 0
2, 3360, Note_on_c, 0, 70, 56
2, 3440, Note_on_c, 0, 70, 0
2, 3440, Note_on_c, 0, 69, 50
2, 3520, Note_on_c, 0, 69, 0
2, 3520, Note_on_c, 0, 67, 50
2, 3600, Note_on_c, 0, 67, 0
2, 3600, Note_on_c, 0, 74, 61
2, 3680, Note_on_c, 0, 74, 0
2, 3680, Note_on_c, 0, 72, 53
2, 3760, Note_on_c, 0, 72, 0
2, 3760, Note_on_c, 0, 70, 53
2, 3840, Note_on_c, 0, 70, 0
2, 3840, Note_on_c, 0, 69, 63
2, 3900, Note_on_c, 0, 69, 0
2, 4080, Note_on_c, 0, 72, 57
2, 4140, Note_on_c, 0, 72, 0
2, 4560, Note_on_c, 0, 84, 64
2, 4800, Note_on_c, 0, 84, 0
2, 4800, Note_on_c, 0, 81, 69
2, 5040, Note_on_c, 0, 81, 0
2, 5040, Note_on_c, 0, 77, 63
2, 5280, Note_on_c, 0, 77, 0
2, 5280, Note_on_c, 0, 74, 68
2, 5520, Note_on_c, 0, 74, 0
2, 5520, Note_on_c, 0, 70, 54
2, 5760, Note_on_c, 0, 70, 0
2, 5760, Note_on_c, 0, 69, 58
2, 6000, Note_on_c, 0, 69, 0
2, 6000, Note_on_c, 0, 72, 50
2, 6240, Note_on_c, 0, 72, 0
2, 6480, Note_on_c, 0, 84, 64
2, 6720, Note_on_c, 0, 84, 0
2, 6720, Note_on_c, 0, 81, 69
2, 6960, Note_on_c, 0, 81, 0
2, 6960, Note_on_c, 0, 77, 63
2, 7200, Note_on_c, 0, 77, 0
2, 7200, Note_on_c, 0, 74, 68
2, 7440, Note_on_c, 0, 74, 0
2, 7440, Note_on_c, 0, 81, 54
2, 7680, Note_on_c, 0, 81, 0
2, 7680, Note_on_c, 0, 79, 58
2, 7740, Note_on_c, 0, 79, 0
2, 7920, Note_on_c, 0, 79, 53
2, 8000, Note_on_c, 0, 79, 0
2, 8000, Note_on_c, 0, 77, 49
2, 8080, Note_on_c, 0, 77, 0
2, 8080, Note_on_c, 0, 76, 49
2, 8160, Note_on_c, 0, 76, 0
2, 8160, Note_on_c, 0, 74, 58
2, 8220, Note_on_c, 0, 74, 0
2, 8400, Note_on_c, 0, 77, 53
2, 8480, Note_on_c, 0, 77, 0
2, 8480, Note_on_c, 0, 76, 49
2, 8560, Note_on_c, 0, 76, 0
2, 8560, Note_on_c, 0, 74, 49
2, 8640, Note_on_c, 0, 74, 0
2, 8640, Note_on_c, 0, 72, 58
2, 8700, Note_on_c, 0, 72, 0
2, 8880, Note_on_c, 0, 76, 49
2, 8960, Note_on_c, 0, 76, 0
2, 8960, Note_on_c, 0, 74, 45
2, 9040, Note_on_c, 0, 74, 0
2, 9040, Note_on_c, 0, 72, 44
2, 9120, Note_on_c, 0, 72, 0
2, 9120, Note_on_c, 0, 71, 51
2, 9180, Note_on_c, 0, 71, 0
2, 9360, Note_on_c, 0, 67, 43
2, 9440, Note_on_c, 0, 67, 0
2, 9440, Note_on_c, 0, 69, 39
2, 9520, Note_on_c, 0, 69, 0
2, 9520, Note_on_c, 0, 71, 38
2, 9600, Note_on_c, 0, 71, 0
2, 9600, Note_on_c, 0, 72, 50
2, 9660, Note_on_c, 0, 72, 0
2, 10080, Note_on_c, 0, 72, 45
2, 10160, Note_on_c, 0, 72, 0
2, 10160, Note_on_c, 0, 74, 39
2, 10240, Note_on_c, 0, 74, 0
2, 10240, Note_on_c, 0, 76, 40
2, 10320, Note_on_c, 0, 76, 0
2, 10320, Note_on_c, 0, 72, 46
2, 10400, Note_on_c, 0, 72, 0
2, 10400, Note_on_c, 0, 74, 39
2, 10480, Note_on_c, 0, 74, 0
2, 10480, Note_on_c, 0, 76, 39
2, 10560, Note_on_c, 0, 76, 0
2, 10560, Note_on_c, 0, 74, 47
2, 10640, Note_on_c, 0, 74, 0
2, 10640, Note_on_c, 0, 76, 37
2, 10720, Note_on_c, 0, 76, 0
2, 10720, Note_on_c, 0, 77, 37
2, 10800, Note_on_c, 0, 77, 0
2, 10800, Note_on_c, 0, 74, 43
2, 10880, Note_on_c, 0, 74, 0
2, 10880, Note_on_c, 0, 76, 38
2, 10960, Note_on_c, 0, 76, 0
2, 10960, Note_on_c, 0, 77, 38
2, 11040, Note_on_c, 0, 77, 0
2, 11040, Note_on_c, 0, 76, 43
2, 11120, Note_on_c, 0, 76, 0
2, 11120, Note_on_c, 0, 77, 38
2, 11200, Note_on_c, 0, 77, 0
2, 11200, Note_on_c, 0, 79, 33
2, 11280, Note_on_c, 0, 79, 0
2, 11280, Note_on_c, 0, 76, 37
2, 11360, Note_on_c, 0, 76, 0
2, 11360, Note_on_c, 0, 77, 34
2, 11440, Note_on_c, 0, 77, 0
2, 11440, Note_on_c, 0, 79, 29
2, 11520, Note_on_c, 0, 79, 0
2, 12000, Note_on_c, 0, 77, 45
2, 12080, Note_on_c, 0, 77, 0
2, 12080, Note_on_c, 0, 79, 38
2, 12160, Note_on_c, 0, 79, 0
2, 12160, Note_on_c, 0, 81, 38
2, 12240, Note_on_c, 0, 81, 0
2, 12240, Note_on_c, 0, 77, 44
2, 12320, Note_on_c, 0, 77, 0
2, 12320, Note_on_c, 0, 79, 37
2, 12400, Note_on_c, 0, 79, 0
2, 12400, Note_on_c, 0, 81, 37
2, 12480, Note_on_c, 0, 81, 0
2, 12480, Note_on_c, 0, 72, 45
2, 12540, Note_on_c, 0, 72, 0
2, 12720, Note_on_c, 0, 72, 45
2, 12780, Note_on_c, 0, 72, 0
2, 12960, Note_on_c, 0, 77, 45
2, 13040, Note_on_c, 0, 77, 0
2, 13040, Note_on_c, 0, 79, 38
2, 13120, Note_on_c, 0, 79, 0
2, 13120, Note_on_c, 0, 81, 38
2, 13200, Note_on_c, 0, 81, 0
2, 13200, Note_on_c, 0, 77, 44
2, 13280, Note_on_c, 0, 77, 0
2, 13280, Note_on_c, 0, 79, 37
2, 13360, Note_on_c, 0, 79, 0
2, 13360, Note_on_c, 0, 81, 37
2, 13440, Note_on_c, 0, 81, 0
2, 13440, Note_on_c, 0, 74, 45
2, 13500, Note_on_c, 0, 74, 0
2, 13680, Note_on_c, 0, 74, 45
2, 13740, Note_on_c, 0, 74, 0
2, 13920, Note_on_c, 0, 86, 53
2, 14000, Note_on_c, 0, 86, 0
2, 14000, Note_on_c, 0, 84, 50
2, 14080, Note_on_c, 0, 84, 0
2, 14080, Note_on_c, 0, 82, 50
2, 14160, Note_on_c, 0, 82, 0
2, 14160, Note_on_c, 0, 81, 55
2, 14240, Note_on_c, 0, 81, 0
2, 14240, Note_on_c, 0, 79, 57
2, 14320, Note_on_c, 0, 79, 0
2, 14320, Note_on_c, 0, 77, 58
2, 14400, Note_on_c, 0, 77, 0
2, 14400, Note_on_c, 0, 76, 63
2, 14480, Note_on_c, 0, 76, 0
2, 14480, Note_on_c, 0, 79, 57
2, 14560, Note_on_c, 0, 79, 0
2, 14560, Note_on_c, 0, 77, 56
2, 14640, Note_on_c, 0, 77, 0
2, 14640, Note_on_c, 0, 76, 62
2, 14720, Note_on_c, 0, 76, 0
2, 14720, Note_on_c, 0, 74, 54
2, 14800, Note_on_c, 0, 74, 0
2, 14800, Note_on_c, 0, 72, 54
2, 14880, Note_on_c, 0, 72, 0
2, 14880, Note_on_c, 0, 70, 56
2, 14960, Note_on_c, 0, 70, 0
2, 14960, Note_on_c, 0, 69, 50
2, 15040, Note_on_c, 0, 69, 0
2, 15040, Note_on_c, 0, 67, 50
2, 15120, Note_on_c, 0, 67, 0
2, 15120, Note_on_c, 0, 74, 61
2, 15200, Note_on_c, 0, 74, 0
2, 15200, Note_on_c, 0, 72, 53
2, 15280, Note_on_c, 0, 72, 0
2, 15280, Note_on_c, 0, 70, 53
2, 15360, Note_on_c, 0, 70, 0
2, 15360, Note_on_c, 0, 69, 63
2, 15420, Note_on_c, 0, 69, 0
2, 15600, Note_on_c, 0, 72, 57
2, 15660, Note_on_c, 0, 72, 0
2, 16080, Note_on_c, 0, 84, 64
2, 16320, Note_on_c, 0, 84, 0
2, 16320, Note_on_c, 0, 81, 69
2, 16560, Note_on_c, 0, 81, 0
2, 16560, Note_on_c, 0, 77, 63
2, 16800, Note_on_c, 0, 77, 0
2, 16800, Note_on_c, 0, 74, 68
2, 17040, Note_on_c, 0, 74, 0
2, 17040, Note_on_c, 0, 70, 54
2, 17280, Note_on_c, 0, 70, 0
2, 17280, Note_on_c, 0, 69, 58
2, 17520, Note_on_c, 0, 69, 0
2, 17520, Note_on_c, 0, 72, 50
2, 17760, Note_on_c, 0, 72, 0
2, 18000, Note_on_c, 0, 84, 64
2, 18240, Note_on_c, 0, 84, 0
2, 18240, Note_on_c, 0, 81, 69
2, 18480, Note_on_c, 0, 81, 0
2, 18480, Note_on_c, 0, 77, 63
2, 18720, Note_on_c, 0, 77, 0
2, 18720, Note_on_c, 0, 76, 68
2, 18960, Note_on_c, 0, 76, 0
2, 18960, Note_on_c, 0, 86, 69
2, 19200, Note_on_c, 0, 86, 0
2, 19200, Note_on_c, 0, 84, 64
2, 19260, Note_on_c, 0, 84, 0
2, 19440, Note_on_c, 0, 84, 53
2, 19520, Note_on_c, 0, 84, 0
2, 19520, Note_on_c, 0, 82, 49
2, 19600, Note_on_c, 0, 82, 0
2, 19600, Note_on_c, 0, 81, 49
2, 19680, Note_on_c, 0, 81, 0
2, 19680, Note_on_c, 0, 79, 58
2, 19740, Note_on_c, 0, 79, 0
2, 19920, Note_on_c, 0, 82, 53
2, 20000, Note_on_c, 0, 82, 0
2, 20000, Note_on_c, 0, 81, 49
2, 20080, Note_on_c, 0, 81, 0
2, 20080, Note_on_c, 0, 79, 49
2, 20160, Note_on_c, 0, 79, 0
2, 20160, Note_on_c, 0, 77, 54
2, 20220, Note_on_c, 0, 77, 0
2, 20400, Note_on_c, 0, 77, 50
2, 20520, Note_on_c, 0, 77, 0
2, 20520, Note_on_c, 0, 79, 42
2, 20560, Note_on_c, 0, 79, 0
2, 20560, Note_on_c, 0, 77, 41
2, 20600, Note_on_c, 0, 77, 0
2, 20600, Note_on_c, 0, 76, 37
2, 20640, Note_on_c, 0, 76, 0
2, 20640, Note_on_c, 0, 81, 54
2, 20880, Note_on_c, 0, 81, 0
2, 20880, Note_on_c, 0, 79, 43
2, 21120, Note_on_c, 0, 79, 0
2, 21360, Note_on_c, 0, 77, 50
2, 21480, Note_on_c, 0, 77, 0
2, 21480, Note_on_c, 0, 79, 42
2, 21520, Note_on_c, 0, 79, 0
2, 21520, Note_on_c, 0, 77, 41
2, 21560, Note_on_c, 0, 77, 0
2, 21560, Note_on_c, 0, 76, 37
2, 21600, Note_on_c, 0, 76, 0
2, 21840, Note_on_c, 0, 77, 50
2, 21960, Note_on_c, 0, 77, 0
2, 21960, Note_on_c, 0, 79, 42
2, 22000, Note_on_c, 0, 79, 0
2, 22000, Note_on_c, 0, 77, 41
2, 22040, Note_on_c, 0, 77, 0
2, 22040, Note_on_c, 0, 76, 37
2, 22080, Note_on_c, 0, 76, 0
2, 22320, Note_on_c, 0, 81, 53
2, 22400, Note_on_c, 0, 81, 0
2, 22400, Note_on_c, 0, 79, 54
2, 22480, Note_on_c, 0, 79, 0
2, 22480, Note_on_c, 0, 77, 55
2, 22560, Note_on_c, 0, 77, 0
2, 22560, Note_on_c, 0, 76, 57
2, 22640, Note_on_c, 0, 76, 0
2, 22640, Note_on_c, 0, 74, 58
2, 22720, Note_on_c, 0, 74, 0
2, 22720, Note_on_c, 0, 72, 60
2, 22800, Note_on_c, 0, 72, 0
2, 22800, Note_on_c, 0, 70, 61
2, 22880, Note_on_c, 0, 70, 0
2, 22880, Note_on_c, 0, 69, 62
2, 22960, Note_on_c, 0, 69, 0
2, 22960, Note_on_c, 0, 67, 64
2, 23040, Note_on_c, 0, 67, 0
2, 23040, Note_on_c, 0, 65, 70
2, 23100, Note_on_c, 0, 65, 0
2, 23280, Note_on_c, 0, 65, 70
2, 23400, Note_on_c, 0, 65, 0
2, 23400, Note_on_c, 0, 67, 58
2, 23440, Note_on_c, 0, 67, 0
2, 23440, Note_on_c, 0, 65, 57
2, 23480, Note_on_c, 0, 65, 0
2, 23480, Note_on_c, 0, 64, 51
2, 23520, Note_on_c, 0, 64, 0
2, 23760, Note_on_c, 0, 65, 70
2, 23880, Note_on_c, 0, 65, 0
2, 23880, Note_on_c, 0, 67, 58
2, 23920, Note_on_c, 0, 67, 0
2, 23920, Note_on_c, 0, 65, 57
2, 23960, Note_on_c, 0, 65, 0
2, 23960, Note_on_c, 0, 64, 51
2, 24000, Note_on_c, 0, 64, 0
2, 24240, Note_on_c, 0, 69, 67
2, 24320, Note_on_c, 0, 69, 0
2, 24320, Note_on_c, 0, 67, 63
2, 24400, Note_on_c, 0, 67, 0
2, 24400, Note_on_c, 0, 65, 63
2, 24480, Note_on_c, 0, 65, 0
2, 24480, Note_on_c, 0, 64, 67
2, 24560, Note_on_c, 0, 64, 0
2, 24560, Note_on_c, 0, 62, 63
2, 24640, Note_on_c, 0, 62, 0
2, 24640, Note_on_c, 0, 60, 64
2, 24720, Note_on_c, 0, 60, 0
2, 24720, Note_on_c, 0, 58, 67
2, 24800, Note_on_c, 0, 58, 0
2, 24800, Note_on_c, 0, 57, 68
2, 24880, Note_on_c, 0, 57, 0
2, 24880, Note_on_c, 0, 55, 68
2, 24960, Note_on_c, 0, 55, 0
2, 24960, Note_on_c, 0, 53, 76
2, 25080, Note_on_c, 0, 53, 0
2, 25440, Note_on_c, 0, 60, 60
2, 25440, Note_on_c, 0, 65, 76
2, 25440, Note_on_c, 0, 57, 60
2, 25560, Note_on_c, 0, 57, 0
2, 25560, Note_on_c, 0, 65, 0
2, 25560, Note_on_c, 0, 60, 0
2, 25920, Note_on_c, 0, 57, 60
2, 25920, Note_on_c, 0, 60, 60
2, 25920, Note_on_c, 0, 65, 76
2, 26280, Note_on_c, 0, 65, 0
2, 26280, Note_on_c, 0, 60, 0
2, 26280, Note_on_c, 0, 57, 0
2, 26400, Note_on_c, 0, 81, 45
2, 26480, Note_on_c, 0, 81, 0
2, 26480, Note_on_c, 0, 79, 38
2, 26560, Note_on_c, 0, 79, 0
2, 26560, Note_on_c, 0, 77, 38
2, 26640, Note_on_c, 0, 77, 0
2, 26640, Note_on_c, 0, 81, 44
2, 26720, Note_on_c, 0, 81, 0
2, 26720, Note_on_c, 0, 79, 37
2, 26800, Note_on_c, 0, 79, 0
2, 26800, Note_on_c, 0, 77, 37
2, 26880, Note_on_c, 0, 77, 0
2, 26880, Note_on_c, 0, 84, 48
2, 27120, Note_on_c, 0, 84, 0
2, 27120, Note_on_c, 0, 84, 44
2, 27360, Note_on_c, 0, 84, 0
2, 27360, Note_on_c, 0, 81, 47
2, 27600, Note_on_c, 0, 81, 0
2, 27600, Note_on_c, 0, 77, 37
2, 27840, Note_on_c, 0, 77, 0
2, 27840, Note_on_c, 0, 78, 54
2, 28080, Note_on_c, 0, 78, 0
2, 28080, Note_on_c, 0, 79, 48
2, 28320, Note_on_c, 0, 79, 0
2, 28320, Note_on_c, 0, 88, 53
2, 28400, Note_on_c, 0, 88, 0
2, 28400, Note_on_c, 0, 86, 41
2, 28480, Note_on_c, 0, 86, 0
2, 28480, Note_on_c, 0, 84, 38
2, 28560, Note_on_c, 0, 84, 0
2, 28560, Note_on_c, 0, 83, 49
2, 28640, Note_on_c, 0, 83, 0
2, 28640, Note_on_c, 0, 81, 37
2, 28720, Note_on_c, 0, 81, 0
2, 28720, Note_on_c, 0, 79, 37
2, 28790, Note_on_c, 0, 79, 0
2, 28800, Note_on_c, 0, 79, 54
2, 29160, Note_on_c, 0, 79, 0
2, 29160, Note_on_c, 0, 76, 39
2, 29220, Note_on_c, 0, 76, 0
2, 29220, Note_on_c, 0, 77, 38
2, 29280, Note_on_c, 0, 77, 0
2, 29280, Note_on_c, 0, 77, 47
2, 29320, Note_on_c, 0, 77, 0
2, 29320, Note_on_c, 0, 79, 37
2, 29360, Note_on_c, 0, 79, 0
2, 29361, Note_on_c, 0, 77, 43
2, 29401, Note_on_c, 0, 77, 0
2, 29401, Note_on_c, 0, 79, 37
2, 29441, Note_on_c, 0, 79, 0
2, 29441, Note_on_c, 0, 77, 45
2, 29481, Note_on_c, 0, 77, 0
2, 29481, Note_on_c, 0, 79, 34
2, 29521, Note_on_c, 0, 79, 0
2, 29521, Note_on_c, 0, 77, 43
2, 29561, Note_on_c, 0, 77, 0
2, 29562, Note_on_c, 0, 79, 40
2, 29602, Note_on_c, 0, 79, 0
2, 29602, Note_on_c, 0, 77, 45
2, 29640, Note_on_c, 0, 77, 0
2, 29640, Note_on_c, 0, 76, 44
2, 29700, Note_on_c, 0, 76, 0
2, 29700, Note_on_c, 0, 77, 44
2, 29760, Note_on_c, 0, 77, 0
2, 29760, Note_on_c, 0, 76, 45
2, 29840, Note_on_c, 0, 76, 0
2, 29840, Note_on_c, 0, 79, 50
2, 29920, Note_on_c, 0, 79, 0
2, 29920, Note_on_c, 0, 77, 42
2, 30000, Note_on_c, 0, 77, 0
2, 30000, Note_on_c, 0, 76, 44
2, 30080, Note_on_c, 0, 76, 0
2, 30080, Note_on_c, 0, 74, 42
2, 30160, Note_on_c, 0, 74, 0
2, 30160, Note_on_c, 0, 72, 40
2, 30240, Note_on_c, 0, 72, 0
2, 30240, Note_on_c, 0, 77, 45
2, 30320, Note_on_c, 0, 77, 0
2, 30320, Note_on_c, 0, 81, 55
2, 30400, Note_on_c, 0, 81, 0
2, 30400, Note_on_c, 0, 79, 51
2, 30480, Note_on_c, 0, 79, 0
2, 30480, Note_on_c, 0, 77, 53
2, 30560, Note_on_c, 0, 77, 0
2, 30560, Note_on_c, 0, 76, 46
2, 30640, Note_on_c, 0, 76, 0
2, 30640, Note_on_c, 0, 74, 46
2, 30720, Note_on_c, 0, 74, 0
2, 30720, Note_on_c, 0, 76, 53
2, 30800, Note_on_c, 0, 76, 0
2, 30800, Note_on_c, 0, 79, 58
2, 30880, Note_on_c, 0, 79, 0
2, 30880, Note_on_c, 0, 77, 49
2, 30960, Note_on_c, 0, 77, 0
2, 30960, Note_on_c, 0, 76, 52
2, 31040, Note_on_c, 0, 76, 0
2, 31040, Note_on_c, 0, 74, 49
2, 31120, Note_on_c, 0, 74, 0
2, 31120, Note_on_c, 0, 72, 47
2, 31200, Note_on_c, 0, 72, 0
2, 31200, Note_on_c, 0, 77, 53
2, 31280, Note_on_c, 0, 77, 0
2, 31280, Note_on_c, 0, 81, 59
2, 31360, Note_on_c, 0, 81, 0
2, 31360, Note_on_c, 0, 79, 59
2, 31440, Note_on_c, 0, 79, 0
2, 31440, Note_on_c, 0, 77, 61
2, 31520, Note_on_c, 0, 77, 0
2, 31520, Note_on_c, 0, 76, 53
2, 31600, Note_on_c, 0, 76, 0
2, 31600, Note_on_c, 0, 74, 53
2, 31680, Note_on_c, 0, 74, 0
2, 31680, Note_on_c, 0, 76, 61
2, 31760, Note_on_c, 0, 76, 0
2, 31760, Note_on_c, 0, 79, 65
2, 31840, Note_on_c, 0, 79, 0
2, 31840, Note_on_c, 0, 77, 56
2, 31920, Note_on_c, 0, 77, 0
2, 31920, Note_on_c, 0, 76, 60
2, 32000, Note_on_c, 0, 76, 0
2, 32000, Note_on_c, 0, 74, 56
2, 32080, Note_on_c, 0, 74, 0
2, 32080, Note_on_c, 0, 72, 54
2, 32160, Note_on_c, 0, 72, 0
2, 32160, Note_on_c, 0, 82, 63
2, 32240, Note_on_c, 0, 82, 0
2, 32240, Note_on_c, 0, 86, 75
2, 32320, Note_on_c, 0, 86, 0
2, 32320, Note_on_c, 0, 84, 69
2, 32400, Note_on_c, 0, 84, 0
2, 32400, Note_on_c, 0, 82, 70
2, 32480, Note_on_c, 0, 82, 0
2, 32480, Note_on_c, 0, 81, 60
2, 32560, Note_on_c, 0, 81, 0
2, 32560, Note_on_c, 0, 79, 60
2, 32640, Note_on_c, 0, 79, 0
2, 32640, Note_on_c, 0, 81, 63
2, 32720, Note_on_c, 0, 81, 0
2, 32720, Note_on_c, 0, 83, 70
2, 32800, Note_on_c, 0, 83, 0
2, 32800, Note_on_c, 0, 84, 69
2, 32880, Note_on_c, 0, 84, 0
2, 32880, Note_on_c, 0, 83, 62
2, 32960, Note_on_c, 0, 83, 0
2, 32960, Note_on_c, 0, 81, 60
2, 33040, Note_on_c, 0, 81, 0
2, 33040, Note_on_c, 0, 79, 60
2, 33120, Note_on_c, 0, 79, 0
2, 33120, Note_on_c, 0, 77, 66
2, 33200, Note_on_c, 0, 77, 0
2, 33200, Note_on_c, 0, 76, 64
2, 33280, Note_on_c, 0, 76, 0
2, 33280, Note_on_c, 0, 74, 61
2, 33360, Note_on_c, 0, 74, 0
2, 33360, Note_on_c, 0, 72, 61
2, 33440, Note_on_c, 0, 72, 0
2, 33440, Note_on_c, 0, 71, 53
2, 33520, Note_on_c, 0, 71, 0
2, 33520, Note_on_c, 0, 69, 48
2, 33600, Note_on_c, 0, 69, 0
2, 33600, Note_on_c, 0, 67, 58
2, 33960, Note_on_c, 0, 67, 0
2, 33960, Note_on_c, 0, 72, 39
2, 34020, Note_on_c, 0, 72, 0
2, 34020, Note_on_c, 0, 74, 38
2, 34080, Note_on_c, 0, 74, 0
2, 34080, Note_on_c, 0, 74, 47
2, 34120, Note_on_c, 0, 74, 0
2, 34120, Note_on_c, 0, 76, 37
2, 34160, Note_on_c, 0, 76, 0
2, 34161, Note_on_c, 0, 74, 43
2, 34201, Note_on_c, 0, 74, 0
2, 34201, Note_on_c, 0, 76, 37
2, 34241, Note_on_c, 0, 76, 0
2, 34241, Note_on_c, 0, 74, 45
2, 34281, Note_on_c, 0, 74, 0
2, 34281, Note_on_c, 0, 76, 34
2, 34321, Note_on_c, 0, 76, 0
2, 34321, Note_on_c, 0, 74, 43
2, 34361, Note_on_c, 0, 74, 0
2, 34362, Note_on_c, 0, 76, 40
2, 34402, Note_on_c, 0, 76, 0
2, 34402, Note_on_c, 0, 74, 45
2, 34440, Note_on_c, 0, 74, 0
2, 34440, Note_on_c, 0, 72, 44
2, 34500, Note_on_c, 0, 72, 0
2, 34500, Note_on_c, 0, 74, 44
2, 34560, Note_on_c, 0, 74, 0
2, 34560, Note_on_c, 0, 76, 51
2, 34640, Note_on_c, 0, 76, 0
2, 34640, Note_on_c, 0, 77, 43
2, 34720, Note_on_c, 0, 77, 0
2, 34720, Note_on_c, 0, 79, 42
2, 34800, Note_on_c, 0, 79, 0
2, 34800, Note_on_c, 0, 72, 47
2, 34880, Note_on_c, 0, 72, 0
2, 34880, Note_on_c, 0, 74, 42
2, 34960, Note_on_c, 0, 74, 0
2, 34960, Note_on_c, 0, 76, 40
2, 35040, Note_on_c, 0, 76, 0
2, 35040, Note_on_c, 0, 77, 51
2, 35160, Note_on_c, 0, 77, 0
2, 35520, Note_on_c, 0, 76, 51
2, 35600, Note_on_c, 0, 76, 0
2, 35600, Note_on_c, 0, 77, 43
2, 35680, Note_on_c, 0, 77, 0
2, 35680, Note_on_c, 0, 79, 42
2, 35760, Note_on_c, 0, 79, 0
2, 35760, Note_on_c, 0, 72, 47
2, 35840, Note_on_c, 0, 72, 0
2, 35840, Note_on_c, 0, 74, 42
2, 35920, Note_on_c, 0, 74, 0
2, 35920, Note_on_c, 0, 76, 40
2, 36000, Note_on_c, 0, 76, 0
2, 36000, Note_on_c, 0, 77, 51
2, 36120, Note_on_c, 0, 77, 0
2, 36480, Note_on_c, 0, 76, 51
2, 36560, Note_on_c, 0, 76, 0
2, 36560, Note_on_c, 0, 79, 44
2, 36640, Note_on_c, 0, 79, 0
2, 36640, Note_on_c, 0, 76, 44
2, 36720, Note_on_c, 0, 76, 0
2, 36720, Note_on_c, 0, 72, 51
2, 36800, Note_on_c, 0, 72, 0
2, 36800, Note_on_c, 0, 76, 47
2, 36880, Note_on_c, 0, 76, 0
2, 36880, Note_on_c, 0, 72, 46
2, 36960, Note_on_c, 0, 72, 0
2, 36960, Note_on_c, 0, 69, 61
2, 37040, Note_on_c, 0, 69, 0
2, 37040, Note_on_c, 0, 72, 52
2, 37120, Note_on_c, 0, 72, 0
2, 37120, Note_on_c, 0, 69, 52
2, 37200, Note_on_c, 0, 69, 0
2, 37200, Note_on_c, 0, 65, 61
2, 37280, Note_on_c, 0, 65, 0
2, 37280, Note_on_c, 0, 69, 55
2, 37360, Note_on_c, 0, 69, 0
2, 37360, Note_on_c, 0, 65, 54
2, 37440, Note_on_c, 0, 65, 0
2, 37440, Note_on_c, 0, 64, 65
2, 37520, Note_on_c, 0, 64, 0
2, 37520, Note_on_c, 0, 67, 55
2, 37600, Note_on_c, 0, 67, 0
2, 37600, Note_on_c, 0, 65, 58
2, 37680, Note_on_c, 0, 65, 0
2, 37680, Note_on_c, 0, 64, 65
2, 37760, Note_on_c, 0, 64, 0
2, 37760, Note_on_c, 0, 62, 58
2, 37840, Note_on_c, 0, 62, 0
2, 37840, Note_on_c, 0, 60, 56
2, 37920, Note_on_c, 0, 60, 0
2, 37920, Note_on_c, 0, 62, 65
2, 37960, Note_on_c, 0, 62, 0
2, 37960, Note_on_c, 0, 64, 51
2, 38000, Note_on_c, 0, 64, 0
2, 38001, Note_on_c, 0, 62, 60
2, 38041, Note_on_c, 0, 62, 0
2, 38041, Note_on_c, 0, 64, 51
2, 38081, Note_on_c, 0, 64, 0
2, 38081, Note_on_c, 0, 62, 63
2, 38121, Note_on_c, 0, 62, 0
2, 38121, Note_on_c, 0, 64, 47
2, 38161, Note_on_c, 0, 64, 0
2, 38161, Note_on_c, 0, 62, 60
2, 38201, Note_on_c, 0, 62, 0
2, 38202, Note_on_c, 0, 64, 56
2, 38242, Note_on_c, 0, 64, 0
2, 38242, Note_on_c, 0, 62, 63
2, 38280, Note_on_c, 0, 62, 0
2, 38280, Note_on_c, 0, 60, 61
2, 38340, Note_on_c, 0, 60, 0
2, 38340, Note_on_c, 0, 62, 61
2, 38400, Note_on_c, 0, 62, 0
2, 38400, Note_on_c, 0, 64, 71
2, 38480, Note_on_c, 0, 64, 0
2, 38480, Note_on_c, 0, 65, 60
2, 38560, Note_on_c, 0, 65, 0
2, 38560, Note_on_c, 0, 67, 58
2, 38640, Note_on_c, 0, 67, 0
2, 38640, Note_on_c, 0, 60, 65
2, 38720, Note_on_c, 0, 60, 0
2, 38720, Note_on_c, 0, 62, 58
2, 38800, Note_on_c, 0, 62, 0
2, 38800, Note_on_c, 0, 64, 56
2, 38880, Note_on_c, 0, 64, 0
2, 38880, Note_on_c, 0, 65, 71
2, 39000, Note_on_c, 0, 65, 0
2, 39360, Note_on_c, 0, 64, 71
2, 39440, Note_on_c, 0, 64, 0
2, 39440, Note_on_c, 0, 65, 60
2, 39520, Note_on_c, 0, 65, 0
2, 39520, Note_on_c, 0, 67, 58
2, 39600, Note_on_c, 0, 67, 0
2, 39600, Note_on_c, 0, 60, 65
2, 39680, Note_on_c, 0, 60, 0
2, 39680, Note_on_c, 0, 62, 58
2, 39760, Note_on_c, 0, 62, 0
2, 39760, Note_on_c, 0, 64, 56
2, 39840, Note_on_c, 0, 64, 0
2, 39840, Note_on_c, 0, 65, 71
2, 39960, Note_on_c, 0, 65, 0
2, 40320, Note_on_c, 0, 64, 67
2, 40400, Note_on_c, 0, 64, 0
2, 40400, Note_on_c, 0, 67, 57
2, 40480, Note_on_c, 0, 67, 0
2, 40480, Note_on_c, 0, 72, 55
2, 40560, Note_on_c, 0, 72, 0
2, 40560, Note_on_c, 0, 76, 61
2, 40640, Note_on_c, 0, 76, 0
2, 40640, Note_on_c, 0, 72, 55
2, 40720, Note_on_c, 0, 72, 0
2, 40720, Note_on_c, 0, 67, 53
2, 40800, Note_on_c, 0, 67, 0
2, 40800, Note_on_c, 0, 64, 67
2, 40880, Note_on_c, 0, 64, 0
2, 40880, Note_on_c, 0, 69, 57
2, 40960, Note_on_c, 0, 69, 0
2, 40960, Note_on_c, 0, 72, 55
2, 41040, Note_on_c, 0, 72, 0
2, 41040, Note_on_c, 0, 76, 61
2, 41120, Note_on_c, 0, 76, 0
2, 41120, Note_on_c, 0, 72, 55
2, 41200, Note_on_c, 0, 72, 0
2, 41200, Note_on_c, 0, 69, 53
2, 41280, Note_on_c, 0, 69, 0
2, 41280, Note_on_c, 0, 62, 67
2, 41360, Note_on_c, 0, 62, 0
2, 41360, Note_on_c, 0, 65, 57
2, 41440, Note_on_c, 0, 65, 0
2, 41440, Note_on_c, 0, 69, 55
2, 41520, Note_on_c, 0, 69, 0
2, 41520, Note_on_c, 0, 74, 61
2, 41600, Note_on_c, 0, 74, 0
2, 41600, Note_on_c, 0, 69, 55
2, 41680, Note_on_c, 0, 69, 0
2, 41680, Note_on_c, 0, 65, 53
2, 41760, Note_on_c, 0, 65, 0
2, 41760, Note_on_c, 0, 62, 67
2, 41840, Note_on_c, 0, 62, 0
2, 41840, Note_on_c, 0, 65, 57
2, 41920, Note_on_c, 0, 65, 0
2, 41920, Note_on_c, 0, 67, 55
2, 42000, Note_on_c, 0, 67, 0
2, 42000, Note_on_c, 0, 71, 61
2, 42080, Note_on_c, 0, 71, 0
2, 42080, Note_on_c, 0, 67, 55
2, 42160, Note_on_c, 0, 67, 0
2, 42160, Note_on_c, 0, 65, 53
2, 42240, Note_on_c, 0, 65, 0
2, 42240, Note_on_c, 0, 64, 78
2, 42320, Note_on_c, 0, 64, 0
2, 42320, Note_on_c, 0, 67, 66
2, 42400, Note_on_c, 0, 67, 0
2, 42400, Note_on_c, 0, 72, 63
2, 42480, Note_on_c, 0, 72, 0
2, 42480, Note_on_c, 0, 76, 71
2, 42560, Note_on_c, 0, 76, 0
2, 42560, Note_on_c, 0, 72, 63
2, 42640, Note_on_c, 0, 72, 0
2, 42640, Note_on_c, 0, 67, 61
2, 42720, Note_on_c, 0, 67, 0
2, 42720, Note_on_c, 0, 64, 78
2, 42800, Note_on_c, 0, 64, 0
2, 42800, Note_on_c, 0, 69, 66
2, 42880, Note_on_c, 0, 69, 0
2, 42880, Note_on_c, 0, 72, 63
2, 42960, Note_on_c, 0, 72, 0
2, 42960, Note_on_c, 0, 76, 71
2, 43040, Note_on_c, 0, 76, 0
2, 43040, Note_on_c, 0, 72, 63
2, 43120, Note_on_c, 0, 72, 0
2, 43120, Note_on_c, 0, 69, 61
2, 43200, Note_on_c, 0, 69, 0
2, 43200, Note_on_c, 0, 69, 78
2, 43280, Note_on_c, 0, 69, 0
2, 43280, Note_on_c, 0, 74, 66
2, 43360, Note_on_c, 0, 74, 0
2, 43360, Note_on_c, 0, 77, 63
2, 43440, Note_on_c, 0, 77, 0
2, 43440, Note_on_c, 0, 81, 71
2, 43520, Note_on_c, 0, 81, 0
2, 43520, Note_on_c, 0, 77, 63
2, 43600, Note_on_c, 0, 77, 0
2, 43600, Note_on_c, 0, 74, 61
2, 43680, Note_on_c, 0, 74, 0
2, 43680, Note_on_c, 0, 67, 78
2, 43760, Note_on_c, 0, 67, 0
2, 43760, Note_on_c, 0, 71, 66
2, 43840, Note_on_c, 0, 71, 0
2, 43840, Note_on_c, 0, 74, 63
2, 43920, Note_on_c, 0, 74, 0
2, 43920, Note_on_c, 0, 79, 71
2, 44000, Note_on_c, 0, 79, 0
2, 44000, Note_on_c, 0, 74, 63
2, 44080, Note_on_c, 0, 74, 0
2, 44080, Note_on_c, 0, 71, 61
2, 44160, Note_on_c, 0, 71, 0
2, 44160, Note_on_c, 0, 72, 70
2, 44240, Note_on_c, 0, 72, 0
2, 44240, Note_on_c, 0, 71, 64
2, 44320, Note_on_c, 0, 71, 0
2, 44320, Note_on_c, 0, 72, 58
2, 44400, Note_on_c, 0, 72, 0
2, 44400, Note_on_c, 0, 76, 70
2, 44480, Note_on_c, 0, 76, 0
2, 44480, Note_on_c, 0, 74, 61
2, 44560, Note_on_c, 0, 74, 0
2, 44560, Note_on_c, 0, 72, 61
2, 44640, Note_on_c, 0, 72, 0
2, 44640, Note_on_c, 0, 71, 66
2, 44720, Note_on_c, 0, 71, 0
2, 44720, Note_on_c, 0, 69, 61
2, 44800, Note_on_c, 0, 69, 0
2, 44800, Note_on_c, 0, 67, 57
2, 44880, Note_on_c, 0, 67, 0
2, 44880, Note_on_c, 0, 65, 65
2, 44960, Note_on_c, 0, 65, 0
2, 44960, Note_on_c, 0, 64, 59
2, 45040, Note_on_c, 0, 64, 0
2, 45040, Note_on_c, 0, 62, 56
2, 45120, Note_on_c, 0, 62, 0
2, 45120, Note_on_c, 0, 60, 70
2, 45200, Note_on_c, 0, 60, 0
2, 45200, Note_on_c, 0, 59, 64
2, 45280, Note_on_c, 0, 59, 0
2, 45280, Note_on_c, 0, 60, 61
2, 45360, Note_on_c, 0, 60, 0
2, 45360, Note_on_c, 0, 64, 70
2, 45440, Note_on_c, 0, 64, 0
2, 45440, Note_on_c, 0, 62, 63
2, 45520, Note_on_c, 0, 62, 0
2, 45520, Note_on_c, 0, 60, 63
2, 45600, Note_on_c, 0, 60, 0
2, 45600, Note_on_c, 0, 59, 66
2, 45680, Note_on_c, 0, 59, 0
2, 45680, Note_on_c, 0, 57, 61
2, 45760, Note_on_c, 0, 57, 0
2, 45760, Note_on_c, 0, 55, 58
2, 45840, Note_on_c, 0, 55, 0
2, 45840, Note_on_c, 0, 53, 65
2, 45920, Note_on_c, 0, 53, 0
2, 45920, Note_on_c, 0, 52, 59
2, 46000, Note_on_c, 0, 52, 0
2, 46000, Note_on_c, 0, 50, 59
2, 46080, Note_on_c, 0, 50, 0
2, 46560, Note_on_c, 0, 64, 61
2, 46640, Note_on_c, 0, 64, 0
2, 46640, Note_on_c, 0, 62, 50
2, 46720, Note_on_c, 0, 62, 0
2, 46720, Note_on_c, 0, 60, 50
2, 46800, Note_on_c, 0, 60, 0
2, 46800, Note_on_c, 0, 67, 55
2, 46880, Note_on_c, 0, 67, 0
2, 46880, Note_on_c, 0, 65, 47
2, 46960, Note_on_c, 0, 65, 0
2, 46960, Note_on_c, 0, 64, 47
2, 47040, Note_on_c, 0, 64, 0
2, 47040, Note_on_c, 0, 70, 55
2, 47100, Note_on_c, 0, 70, 0
2, 47520, Note_on_c, 0, 76, 53
2, 47600, Note_on_c, 0, 76, 0
2, 47600, Note_on_c, 0, 74, 42
2, 47680, Note_on_c, 0, 74, 0
2, 47680, Note_on_c, 0, 72, 39
2, 47760, Note_on_c, 0, 72, 0
2, 47760, Note_on_c, 0, 79, 48
2, 47840, Note_on_c, 0, 79, 0
2, 47840, Note_on_c, 0, 77, 37
2, 47920, Note_on_c, 0, 77, 0
2, 47920, Note_on_c, 0, 76, 37
2, 48000, Note_on_c, 0, 76, 0
2, 48000, Note_on_c, 0, 82, 47
2, 48060, Note_on_c, 0, 82, 0
2, 49440, Note_on_c, 0, 77, 45
2, 49520, Note_on_c, 0, 77, 0
2, 49520, Note_on_c, 0, 79, 38
2, 49600, Note_on_c, 0, 79, 0
2, 49600, Note_on_c, 0, 81, 38
2, 49680, Note_on_c, 0, 81, 0
2, 49680, Note_on_c, 0, 77, 44
2, 49760, Note_on_c, 0, 77, 0
2, 49760, Note_on_c, 0, 79, 37
2, 49840, Note_on_c, 0, 79, 0
2, 49840, Note_on_c, 0, 81, 37
2, 49920, Note_on_c, 0, 81, 0
2, 49920, Note_on_c, 0, 72, 45
2, 49980, Note_on_c, 0, 72, 0
2, 50160, Note_on_c, 0, 72, 45
2, 50220, Note_on_c, 0, 72, 0
2, 50400, Note_on_c, 0, 77, 45
2, 50480, Note_on_c, 0, 77, 0
2, 50480, Note_on_c, 0, 79, 38
2, 50560, Note_on_c, 0, 79, 0
2, 50560, Note_on_c, 0, 81, 38
2, 50640, Note_on_c, 0, 81, 0
2, 50640, Note_on_c, 0, 77, 44
2, 50720, Note_on_c, 0, 77, 0
2, 50720, Note_on_c, 0, 79, 37
2, 50800, Note_on_c, 0, 79, 0
2, 50800, Note_on_c, 0, 81, 37
2, 50880, Note_on_c, 0, 81, 0
2, 50880, Note_on_c, 0, 74, 45
2, 50940, Note_on_c, 0, 74, 0
2, 51120, Note_on_c, 0, 74, 45
2, 51180, Note_on_c, 0, 74, 0
2, 51360, Note_on_c, 0, 86, 53
2, 51440, Note_on_c, 0, 86, 0
2, 51440, Note_on_c, 0, 84, 50
2, 51520, Note_on_c, 0, 84, 0
2, 51520, Note_on_c, 0, 82, 50
2, 51600, Note_on_c, 0, 82, 0
2, 51600, Note_on_c, 0, 81, 55
2, 51680, Note_on_c, 0, 81, 0
2, 51680, Note_on_c, 0, 79, 57
2, 51760, Note_on_c, 0, 79, 0
2, 51760, Note_on_c, 0, 77, 58
2, 51840, Note_on_c, 0, 77, 0
2, 51840, Note_on_c, 0, 76, 63
2, 51920, Note_on_c, 0, 76, 0
2, 51920, Note_on_c, 0, 79, 57
2, 52000, Note_on_c, 0, 79, 0
2, 52000, Note_on_c, 0, 77, 56
2, 52080, Note_on_c, 0, 77, 0
2, 52080, Note_on_c, 0, 76, 62
2, 52160, Note_on_c, 0, 76, 0
2, 52160, Note_on_c, 0, 74, 54
2, 52240, Note_on_c, 0, 74, 0
2, 52240, Note_on_c, 0, 72, 54
2, 52320, Note_on_c, 0, 72, 0
2, 52320, Note_on_c, 0, 70, 56
2, 52400, Note_on_c, 0, 70, 0
2, 52400, Note_on_c, 0, 69, 50
2, 52480, Note_on_c, 0, 69, 0
2, 52480, Note_on_c, 0, 67, 50
2, 52560, Note_on_c, 0, 67, 0
2, 52560, Note_on_c, 0, 74, 61
2, 52640, Note_on_c, 0, 74, 0
2, 52640, Note_on_c, 0, 72, 53
2, 52720, Note_on_c, 0, 72, 0
2, 52720, Note_on_c, 0, 70, 53
2, 52800, Note_on_c, 0, 70, 0
2, 52800, Note_on_c, 0, 69, 63
2, 52860, Note_on_c, 0, 69, 0
2, 53040, Note_on_c, 0, 72, 57
2, 53100, Note_on_c, 0, 72, 0
2, 53520, Note_on_c, 0, 84, 64
2, 53760, Note_on_c, 0, 84, 0
2, 53760, Note_on_c, 0, 81, 69
2, 54000, Note_on_c, 0, 81, 0
2, 54000, Note_on_c, 0, 77, 63
2, 54240, Note_on_c, 0, 77, 0
2, 54240, Note_on_c, 0, 74, 68
2, 54480, Note_on_c, 0, 74, 0
2, 54480, Note_on_c, 0, 70, 54
2, 54720, Note_on_c, 0, 70, 0
2, 54720, Note_on_c, 0, 69, 58
2, 54960, Note_on_c, 0, 69, 0
2, 54960, Note_on_c, 0, 72, 50
2, 55200, Note_on_c, 0, 72, 0
2, 55440, Note_on_c, 0, 84, 64
2, 55680, Note_on_c, 0, 84, 0
2, 55680, Note_on_c, 0, 81, 69
2, 55920, Note_on_c, 0, 81, 0
2, 55920, Note_on_c, 0, 77, 63
2, 56160, Note_on_c, 0, 77, 0
2, 56160, Note_on_c, 0, 74, 68
2, 56400, Note_on_c, 0, 74, 0
2, 56400, Note_on_c, 0, 81, 54
2, 56640, Note_on_c, 0, 81, 0
2, 56640, Note_on_c, 0, 79, 58
2, 56700, Note_on_c, 0, 79, 0
2, 56880, Note_on_c, 0, 79, 53
2, 56960, Note_on_c, 0, 79, 0
2, 56960, Note_on_c, 0, 77, 49
2, 57040, Note_on_c, 0, 77, 0
2, 57040, Note_on_c, 0, 76, 49
2, 57120, Note_on_c, 0, 76, 0
2, 57120, Note_on_c, 0, 74, 58
2, 57180, Note_on_c, 0, 74, 0
2, 57360, Note_on_c, 0, 77, 53
2, 57440, Note_on_c, 0, 77, 0
2, 57440, Note_on_c, 0, 76, 49
2, 57520, Note_on_c, 0, 76, 0
2, 57520, Note_on_c, 0, 74, 49
2, 57600, Note_on_c, 0, 74, 0
2, 57600, Note_on_c, 0, 72, 58
2, 57660, Note_on_c, 0, 72, 0
2, 57840, Note_on_c, 0, 76, 49
2, 57920, Note_on_c, 0, 76, 0
2, 57920, Note_on_c, 0, 74, 45
2, 58000, Note_on_c, 0, 74, 0
2, 58000, Note_on_c, 0, 72, 44
2, 58080, Note_on_c, 0, 72, 0
2, 58080, Note_on_c, 0, 71, 51
2, 58140, Note_on_c, 0, 71, 0
2, 58320, Note_on_c, 0, 67, 43
2, 58400, Note_on_c, 0, 67, 0
2, 58400, Note_on_c, 0, 69, 39
2, 58480, Note_on_c, 0, 69, 0
2, 58480, Note_on_c, 0, 71, 38
2, 58560, Note_on_c, 0, 71, 0
2, 58560, Note_on_c, 0, 72, 50
2, 58620, Note_on_c, 0, 72, 0
2, 59040, Note_on_c, 0, 72, 45
2, 59120, Note_on_c, 0, 72, 0
2, 59120, Note_on_c, 0, 74, 39
2, 59200, Note_on_c, 0, 74, 0
2, 59200, Note_on_c, 0, 76, 40
2, 59280, Note_on_c, 0, 76, 0
2, 59280, Note_on_c, 0, 72, 46
2, 59360, Note_on_c, 0, 72, 0
2, 59360, Note_on_c, 0, 74, 39
2, 59440, Note_on_c, 0, 74, 0
2, 59440, Note_on_c, 0, 76, 39
2, 59520, Note_on_c, 0, 76, 0
2, 59520, Note_on_c, 0, 74, 47
2, 59600, Note_on_c, 0, 74, 0
2, 59600, Note_on_c, 0, 76, 37
2, 59680, Note_on_c, 0, 76, 0
2, 59680, Note_on_c, 0, 77, 37
2, 59760, Note_on_c, 0, 77, 0
2, 59760, Note_on_c, 0, 74, 43
2, 59840, Note_on_c, 0, 74, 0
2, 59840, Note_on_c, 0, 76, 38
2, 59920, Note_on_c, 0, 76, 0
2, 59920, Note_on_c, 0, 77, 38
2, 60000, Note_on_c, 0, 77, 0
2, 60000, Note_on_c, 0, 76, 43
2, 60080, Note_on_c, 0, 76, 0
2, 60080, Note_on_c, 0, 77, 38
2, 60160, Note_on_c, 0, 77, 0
2, 60160, Note_on_c, 0, 79, 33
2, 60240, Note_on_c, 0, 79, 0
2, 60240, Note_on_c, 0, 76, 37
2, 60320, Note_on_c, 0, 76, 0
2, 60320, Note_on_c, 0, 77, 34
2, 60400, Note_on_c, 0, 77, 0
2, 60400, Note_on_c, 0, 79, 29
2, 60480, Note_on_c, 0, 79, 0
2, 60960, Note_on_c, 0, 77, 45
2, 61040, Note_on_c, 0, 77, 0
2, 61040, Note_on_c, 0, 79, 38
2, 61120, Note_on_c, 0, 79, 0
2, 61120, Note_on_c, 0, 81, 38
2, 61200, Note_on_c, 0, 81, 0
2, 61200, Note_on_c, 0, 77, 44
2, 61280, Note_on_c, 0, 77, 0
2, 61280, Note_on_c, 0, 79, 37
2, 61360, Note_on_c, 0, 79, 0
2, 61360, Note_on_c, 0, 81, 37
2, 61440, Note_on_c, 0, 81, 0
2, 61440, Note_on_c, 0, 72, 45
2, 61500, Note_on_c, 0, 72, 0
2, 61680, Note_on_c, 0, 72, 45
2, 61740, Note_on_c, 0, 72, 0
2, 61920, Note_on_c, 0, 77, 45
2, 62000, Note_on_c, 0, 77, 0
2, 62000, Note_on_c, 0, 79, 38
2, 62080, Note_on_c, 0, 79, 0
2, 62080, Note_on_c, 0, 81, 38
2, 62160, Note_on_c, 0, 81, 0
2, 62160, Note_on_c, 0, 77, 44
2, 62240, Note_on_c, 0, 77, 0
2, 62240, Note_on_c, 0, 79, 37
2, 62320, Note_on_c, 0, 79, 0
2, 62320, Note_on_c, 0, 81, 37
2, 62400, Note_on_c, 0, 81, 0
2, 62400, Note_on_c, 0, 74, 45
2, 62460, Note_on_c, 0, 74, 0
2, 62640, Note_on_c, 0, 74, 45
2, 62700, Note_on_c, 0, 74, 0
2, 62880, Note_on_c, 0, 86, 53
2, 62960, Note_on_c, 0, 86, 0
2, 62960, Note_on_c, 0, 84, 50
2, 63040, Note_on_c, 0, 84, 0
2, 63040, Note_on_c, 0, 82, 50
2, 63120, Note_on_c, 0, 82, 0
2, 63120, Note_on_c, 0, 81, 55
2, 63200, Note_on_c, 0, 81, 0
2, 63200, Note_on_c, 0, 79, 57
2, 63280, Note_on_c, 0, 79, 0
2, 63280, Note_on_c, 0, 77, 58
2, 63360, Note_on_c, 0, 77, 0
2, 63360, Note_on_c, 0, 76, 63
2, 63440, Note_on_c, 0, 76, 0
2, 63440, Note_on_c, 0, 79, 57
2, 63520, Note_on_c, 0, 79, 0
2, 63520, Note_on_c, 0, 77, 56
2, 63600, Note_on_c, 0, 77, 0
2, 63600, Note_on_c, 0, 76, 62
2, 63680, Note_on_c, 0, 76, 0
2, 63680, Note_on_c, 0, 74, 54
2, 63760, Note_on_c, 0, 74, 0
2, 63760, Note_on_c, 0, 72, 54
2, 63840, Note_on_c, 0, 72, 0
2, 63840, Note_on_c, 0, 70, 56
2, 63920, Note_on_c, 0, 70, 0
2, 63920, Note_on_c, 0, 69, 50
2, 64000, Note_on_c, 0, 69, 0
2, 64000, Note_on_c, 0, 67, 50
2, 64080, Note_on_c, 0, 67, 0
2, 64080, Note_on_c, 0, 74, 61
2, 64160, Note_on_c, 0, 74, 0
2, 64160, Note_on_c, 0, 72, 53
2, 64240, Note_on_c, 0, 72, 0
2, 64240, Note_on_c, 0, 70, 53
2, 64320, Note_on_c, 0, 70, 0
2, 64320, Note_on_c, 0, 69, 63
2, 64380, Note_on_c, 0, 69, 0
2, 64560, Note_on_c, 0, 72, 57
2, 64620, Note_on_c, 0, 72, 0
2, 65040, Note_on_c, 0, 84, 64
2, 65280, Note_on_c, 0, 84, 0
2, 65280, Note_on_c, 0, 81, 69
2, 65520, Note_on_c, 0, 81, 0
2, 65520, Note_on_c, 0, 77, 63
2, 65760, Note_on_c, 0, 77, 0
2, 65760, Note_on_c, 0, 74, 68
2, 66000, Note_on_c, 0, 74, 0
2, 66000, Note_on_c, 0, 70, 54
2, 66240, Note_on_c, 0, 70, 0
2, 66240, Note_on_c, 0, 69, 58
2, 66480, Note_on_c, 0, 69, 0
2, 66480, Note_on_c, 0, 72, 50
2, 66720, Note_on_c, 0, 72, 0
2, 66960, Note_on_c, 0, 84, 64
2, 67200, Note_on_c, 0, 84, 0
2, 67200, Note_on_c, 0, 81, 69
2, 67440, Note_on_c, 0, 81, 0
2, 67440, Note_on_c, 0, 77, 63
2, 67680, Note_on_c, 0, 77, 0
2, 67680, Note_on_c, 0, 76, 68
2, 67920, Note_on_c, 0, 76, 0
2, 67920, Note_on_c, 0, 86, 69
2, 68160, Note_on_c, 0, 86, 0
2, 68160, Note_on_c, 0, 84, 64
2, 68220, Note_on_c, 0, 84, 0
2, 68400, Note_on_c, 0, 84, 53
2, 68480, Note_on_c, 0, 84, 0
2, 68480, Note_on_c, 0, 82, 49
2, 68560, Note_on_c, 0, 82, 0
2, 68560, Note_on_c, 0, 81, 49
2, 68640, Note_on_c, 0, 81, 0
2, 68640, Note_on_c, 0, 79, 58
2, 68700, Note_on_c, 0, 79, 0
2, 68880, Note_on_c, 0, 82, 53
2, 68960, Note_on_c, 0, 82, 0
2, 68960, Note_on_c, 0, 81, 49
2, 69040, Note_on_c, 0, 81, 0
2, 69040, Note_on_c, 0, 79, 49
2, 69120, Note_on_c, 0, 79, 0
2, 69120, Note_on_c, 0, 77, 54
2, 69180, Note_on_c, 0, 77, 0
2, 69360, Note_on_c, 0, 77, 50
2, 69480, Note_on_c, 0, 77, 0
2, 69480, Note_on_c, 0, 79, 42
2, 69520, Note_on_c, 0, 79, 0
2, 69520, Note_on_c, 0, 77, 41
2, 69560, Note_on_c, 0, 77, 0
2, 69560, Note_on_c, 0, 76, 37
2, 69600, Note_on_c, 0, 76, 0
2, 69600, Note_on_c, 0, 81, 54
2, 69840, Note_on_c, 0, 81, 0
2, 69840, Note_on_c, 0, 79, 43
2, 70080, Note_on_c, 0, 79, 0
2, 70320, Note_on_c, 0, 77, 50
2, 70440, Note_on_c, 0, 77, 0
2, 70440, Note_on_c, 0, 79, 42
2, 70480, Note_on_c, 0, 79, 0
2, 70480, Note_on_c, 0, 77, 41
2, 70520, Note_on_c, 0, 77, 0
2, 70520, Note_on_c, 0, 76, 37
2, 70560, Note_on_c, 0, 76, 0
2, 70800, Note_on_c, 0, 77, 50
2, 70920, Note_on_c, 0, 77, 0
2, 70920, Note_on_c, 0, 79, 42
2, 70960, Note_on_c, 0, 79, 0
2, 70960, Note_on_c, 0, 77, 41
2, 71000, Note_on_c, 0, 77, 0
2, 71000, Note_on_c, 0, 76, 37
2, 71040, Note_on_c, 0, 76, 0
2, 71280, Note_on_c, 0, 81, 53
2, 71360, Note_on_c, 0, 81, 0
2, 71360, Note_on_c, 0, 79, 54
2, 71440, Note_on_c, 0, 79, 0
2, 71440, Note_on_c, 0, 77, 55
2, 71520, Note_on_c, 0, 77, 0
2, 71520, Note_on_c, 0, 76, 57
2, 71600, Note_on_c, 0, 76, 0
2, 71600, Note_on_c, 0, 74, 58
2, 71680, Note_on_c, 0, 74, 0
2, 71680, Note_on_c, 0, 72, 60
2, 71760, Note_on_c, 0, 72, 0
2, 71760, Note_on_c, 0, 70, 61
2, 71840, Note_on_c, 0, 70, 0
2, 71840, Note_on_c, 0, 69, 62
2, 71920, Note_on_c, 0, 69, 0
2, 71920, Note_on_c, 0, 67, 64
2, 72000, Note_on_c, 0, 67, 0
2, 72000, Note_on_c, 0, 65, 70
2, 72060, Note_on_c, 0, 65, 0
2, 72240, Note_on_c, 0, 65, 70
2, 72360, Note_on_c, 0, 65, 0
2, 72360, Note_on_c, 0, 67, 58
2, 72400, Note_on_c, 0, 67, 0
2, 72400, Note_on_c, 0, 65, 57
2, 72440, Note_on_c, 0, 65, 0
2, 72440, Note_on_c, 0, 64, 51
2, 72480, Note_on_c, 0, 64, 0
2, 72720, Note_on_c, 0, 65, 70
2, 72840, Note_on_c, 0, 65, 0
2, 72840, Note_on_c, 0, 67, 58
2, 72880, Note_on_c, 0, 67, 0
2, 72880, Note_on_c, 0, 65, 57
2, 72920, Note_on_c, 0, 65, 0
2, 72920, Note_on_c, 0, 64, 51
2, 72960, Note_on_c, 0, 64, 0
2, 73200, Note_on_c, 0, 69, 67
2, 73280, Note_on_c, 0, 69, 0
2, 73280, Note_on_c, 0, 67, 63
2, 73360, Note_on_c, 0, 67, 0
2, 73360, Note_on_c, 0, 65, 63
2, 73440, Note_on_c, 0, 65, 0
2, 73440, Note_on_c, 0, 64, 67
2, 73520, Note_on_c, 0, 64, 0
2, 73520, Note_on_c, 0, 62, 63
2, 73600, Note_on_c, 0, 62, 0
2, 73600, Note_on_c, 0, 60, 64
2, 73680, Note_on_c, 0, 60, 0
2, 73680, Note_on_c, 0, 58, 67
2, 73760, Note_on_c, 0, 58, 0
2, 73760, Note_on_c, 0, 57, 68
2, 73840, Note_on_c, 0, 57, 0
2, 73840, Note_on_c, 0, 55, 68
2, 73920, Note_on_c, 0, 55, 0
2, 73920, Note_on_c, 0, 53, 76
2, 74040, Note_on_c, 0, 53, 0
2, 74400, Note_on_c, 0, 60, 60
2, 74400, Note_on_c, 0, 65, 76
2, 74400, Note_on_c, 0, 57, 60
2, 74520, Note_on_c, 0, 57, 0
2, 74520, Note_on_c, 0, 65, 0
2, 74520, Note_on_c, 0, 60, 0
2, 74880, Note_on_c, 0, 57, 60
2, 74880, Note_on_c, 0, 60, 60
2, 74880, Note_on_c, 0, 65, 76
2, 75240, Note_on_c, 0, 65, 0
2, 75240, Note_on_c, 0, 60, 0
2, 75240, Note_on_c, 0, 57, 0
2, 75240, End_track
3, 0, Start_track
3, 0, Title_t, "Piano left"
3, 0, Program_c, 0, 0
3, 960, Note_on_c, 0, 69, 36
3, 960, Note_on_c, 0, 65, 30
3, 1020, Note_on_c, 0, 65, 0
3, 1020, Note_on_c, 0, 69, 0
3, 1200, Note_on_c, 0, 69, 36
3, 1200, Note_on_c, 0, 65, 30
3, 1260, Note_on_c, 0, 65, 0
3, 1260, Note_on_c, 0, 69, 0
3, 1920, Note_on_c, 0, 70, 36
3, 1920, Note_on_c, 0, 65, 30
3, 1980, Note_on_c, 0, 65, 0
3, 1980, Note_on_c, 0, 70, 0
3, 2160, Note_on_c, 0, 70, 36
3, 2160, Note_on_c, 0, 65, 30
3, 2220, Note_on_c, 0, 65, 0
3, 2220, Note_on_c, 0, 70, 0
3, 2880, Note_on_c, 0, 60, 47
3, 2880, Note_on_c, 0, 55, 39
3, 2880, Note_on_c, 0, 52, 39
3, 2880, Note_on_c, 0, 48, 39
3, 3840, Note_on_c, 0, 48, 0
3, 3840, Note_on_c, 0, 60, 0
3, 3840, Note_on_c, 0, 55, 0
3, 3840, Note_on_c, 0, 52, 0
3, 3840, Note_on_c, 0, 53, 41
3, 3920, Note_on_c, 0, 53, 0
3, 3920, Note_on_c, 0, 57, 31
3, 4000, Note_on_c, 0, 57, 0
3, 4000, Note_on_c, 0, 60, 29
3, 4080, Note_on_c, 0, 60, 0
3, 4080, Note_on_c, 0, 53, 37
3, 4160, Note_on_c, 0, 53, 0
3, 4160, Note_on_c, 0, 57, 34
3, 4240, Note_on_c, 0, 57, 0
3, 4240, Note_on_c, 0, 60, 25
3, 4320, Note_on_c, 0, 60, 0
3, 4320, Note_on_c, 0, 53, 39
3, 4400, Note_on_c, 0, 53, 0
3, 4400, Note_on_c, 0, 57, 33
3, 4480, Note_on_c, 0, 57, 0
3, 4480, Note_on_c, 0, 60, 30
3, 4560, Note_on_c, 0, 60, 0
3, 4560, Note_on_c, 0, 53, 41
3, 4640, Note_on_c, 0, 53, 0
3, 4640, Note_on_c, 0, 57, 32
3, 4720, Note_on_c, 0, 57, 0
3, 4720, Note_on_c, 0, 60, 27
3, 4800, Note_on_c, 0, 60, 0
3, 4800, Note_on_c, 0, 53, 41
3, 4880, Note_on_c, 0, 53, 0
3, 4880, Note_on_c, 0, 57, 31
3, 4960, Note_on_c, 0, 57, 0
3, 4960, Note_on_c, 0, 60, 33
3, 5040, Note_on_c, 0, 60, 0
3, 5040, Note_on_c, 0, 53, 38
3, 5120, Note_on_c, 0, 53, 0
3, 5120, Note_on_c, 0, 57, 35
3, 5200, Note_on_c, 0, 57, 0
3, 5200, Note_on_c, 0, 60, 30
3, 5280, Note_on_c, 0, 60, 0
3, 5280, Note_on_c, 0, 53, 39
3, 5360, Note_on_c, 0, 53, 0
3, 5360, Note_on_c, 0, 58, 30
3, 5440, Note_on_c, 0, 58, 0
3, 5440, Note_on_c, 0, 62, 30
3, 5520, Note_on_c, 0, 62, 0
3, 5520, Note_on_c, 0, 53, 37
3, 5600, Note_on_c, 0, 53, 0
3, 5600, Note_on_c, 0, 58, 32
3, 5680, Note_on_c, 0, 58, 0
3, 5680, Note_on_c, 0, 62, 30
3, 5760, Note_on_c, 0, 62, 0
3, 5760, Note_on_c, 0, 53, 41
3, 5840, Note_on_c, 0, 53, 0
3, 5840, Note_on_c, 0, 57, 31
3, 5920, Note_on_c, 0, 57, 0
3, 5920, Note_on_c, 0, 60, 23
3, 6000, Note_on_c, 0, 60, 0
3, 6000, Note_on_c, 0, 53, 35
3, 6080, Note_on_c, 0, 53, 0
3, 6080, Note_on_c, 0, 57, 27
3, 6160, Note_on_c, 0, 57, 0
3, 6160, Note_on_c, 0, 60, 27
3, 6240, Note_on_c, 0, 60, 0
3, 6240, Note_on_c, 0, 53, 37
3, 6320, Note_on_c, 0, 53, 0
3, 6320, Note_on_c, 0, 57, 31
3, 6400, Note_on_c, 0, 57, 0
3, 6400, Note_on_c, 0, 60, 25
3, 6480, Note_on_c, 0, 60, 0
3, 6480, Note_on_c, 0, 53, 41
3, 6560, Note_on_c, 0, 53, 0
3, 6560, Note_on_c, 0, 57, 32
3, 6640, Note_on_c, 0, 57, 0
3, 6640, Note_on_c, 0, 60, 26
3, 6720, Note_on_c, 0, 60, 0
3, 6720, Note_on_c, 0, 53, 41
3, 6800, Note_on_c, 0, 53, 0
3, 6800, Note_on_c, 0, 57, 31
3, 6880, Note_on_c, 0, 57, 0
3, 6880, Note_on_c, 0, 60, 27
3, 6960, Note_on_c, 0, 60, 0
3, 6960, Note_on_c, 0, 53, 38
3, 7040, Note_on_c, 0, 53, 0
3, 7040, Note_on_c, 0, 57, 35
3, 7120, Note_on_c, 0, 57, 0
3, 7120, Note_on_c, 0, 60, 30
3, 7200, Note_on_c, 0, 60, 0
3, 7200, Note_on_c, 0, 53, 39
3, 7280, Note_on_c, 0, 53, 0
3, 7280, Note_on_c, 0, 59, 30
3, 7360, Note_on_c, 0, 59, 0
3, 7360, Note_on_c, 0, 62, 30
3, 7440, Note_on_c, 0, 62, 0
3, 7440, Note_on_c, 0, 53, 37
3, 7520, Note_on_c, 0, 53, 0
3, 7520, Note_on_c, 0, 59, 32
3, 7600, Note_on_c, 0, 59, 0
3, 7600, Note_on_c, 0, 62, 30
3, 7680, Note_on_c, 0, 62, 0
3, 7680, Note_on_c, 0, 52, 41
3, 7760, Note_on_c, 0, 52, 0
3, 7760, Note_on_c, 0, 55, 31
3, 7840, Note_on_c, 0, 55, 0
3, 7840, Note_on_c, 0, 60, 25
3, 7920, Note_on_c, 0, 60, 0
3, 8160, Note_on_c, 0, 53, 41
3, 8240, Note_on_c, 0, 53, 0
3, 8240, Note_on_c, 0, 57, 31
3, 8320, Note_on_c, 0, 57, 0
3, 8320, Note_on_c, 0, 62, 28
3, 8400, Note_on_c, 0, 62, 0
3, 8640, Note_on_c, 0, 55, 41
3, 8720, Note_on_c, 0, 55, 0
3, 8720, Note_on_c, 0, 60, 30
3, 8800, Note_on_c, 0, 60, 0
3, 8800, Note_on_c, 0, 64, 28
3, 8880, Note_on_c, 0, 64, 0
3, 9120, Note_on_c, 0, 55, 36
3, 9200, Note_on_c, 0, 55, 0
3, 9200, Note_on_c, 0, 62, 26
3, 9280, Note_on_c, 0, 62, 0
3, 9280, Note_on_c, 0, 65, 24
3, 9360, Note_on_c, 0, 65, 0
3, 9600, Note_on_c, 0, 60, 34
3, 9680, Note_on_c, 0, 60, 0
3, 9681, Note_on_c, 0, 62, 30
3, 9760, Note_on_c, 0, 64, 30
3, 9761, Note_on_c, 0, 62, 0
3, 9840, Note_on_c, 0, 64, 0
3, 9840, Note_on_c, 0, 60, 34
3, 9920, Note_on_c, 0, 60, 0
3, 9921, Note_on_c, 0, 62, 30
3, 10000, Note_on_c, 0, 64, 30
3, 10001, Note_on_c, 0, 62, 0
3, 10080, Note_on_c, 0, 64, 0
3, 10080, Note_on_c, 0, 60, 34
3, 10140, Note_on_c, 0, 60, 0
3, 10560, Note_on_c, 0, 71, 38
3, 10620, Note_on_c, 0, 71, 0
3, 11040, Note_on_c, 0, 70, 41
3, 11100, Note_on_c, 0, 70, 0
3, 12480, Note_on_c, 0, 69, 36
3, 12480, Note_on_c, 0, 65, 30
3, 12540, Note_on_c, 0, 65, 0
3, 12540, Note_on_c, 0, 69, 0
3, 12720, Note_on_c, 0, 69, 36
3, 12720, Note_on_c, 0, 65, 30
3, 12780, Note_on_c, 0, 65, 0
3, 12780, Note_on_c, 0, 69, 0
3, 13440, Note_on_c, 0, 70, 36
3, 13440, Note_on_c, 0, 65, 30
3, 13500, Note_on_c, 0, 65, 0
3, 13500, Note_on_c, 0, 70, 0
3, 13680, Note_on_c, 0, 70, 36
3, 13680, Note_on_c, 0, 65, 30
3, 13740, Note_on_c, 0, 65, 0
3, 13740, Note_on_c, 0, 70, 0
3, 14400, Note_on_c, 0, 60, 47
3, 14400, Note_on_c, 0, 55, 39
3, 14400, Note_on_c, 0, 52, 39
3, 14400, Note_on_c, 0, 48, 39
3, 15360, Note_on_c, 0, 48, 0
3, 15360, Note_on_c, 0, 60, 0
3, 15360, Note_on_c, 0, 55, 0
3, 15360, Note_on_c, 0, 52, 0
3, 15360, Note_on_c, 0, 53, 41
3, 15440, Note_on_c, 0, 53, 0
3, 15440, Note_on_c, 0, 57, 31
3, 15520, Note_on_c, 0, 57, 0
3, 15520, Note_on_c, 0, 60, 28
3, 15600, Note_on_c, 0, 60, 0
3, 15600, Note_on_c, 0, 53, 37
3, 15680, Note_on_c, 0, 53, 0
3, 15680, Note_on_c, 0, 57, 34
3, 15760, Note_on_c, 0, 57, 0
3, 15760, Note_on_c, 0, 60, 29
3, 15840, Note_on_c, 0, 60, 0
3, 15840, Note_on_c, 0, 53, 39
3, 15920, Note_on_c, 0, 53, 0
3, 15920, Note_on_c, 0, 57, 33
3, 16000, Note_on_c, 0, 57, 0
3, 16000, Note_on_c, 0, 60, 26
3, 16080, Note_on_c, 0, 60, 0
3, 16080, Note_on_c, 0, 53, 41
3, 16160, Note_on_c, 0, 53, 0
3, 16160, Note_on_c, 0, 57, 32
3, 16240, Note_on_c, 0, 57, 0
3, 16240, Note_on_c, 0, 60, 25
3, 16320, Note_on_c, 0, 60, 0
3, 16320, Note_on_c, 0, 53, 41
3, 16400, Note_on_c, 0, 53, 0
3, 16400, Note_on_c, 0, 57, 31
3, 16480, Note_on_c, 0, 57, 0
3, 16480, Note_on_c, 0, 60, 27
3, 16560, Note_on_c, 0, 60, 0
3, 16560, Note_on_c, 0, 53, 38
3, 16640, Note_on_c, 0, 53, 0
3, 16640, Note_on_c, 0, 57, 35
3, 16720, Note_on_c, 0, 57, 0
3, 16720, Note_on_c, 0, 60, 29
3, 16800, Note_on_c, 0, 60, 0
3, 16800, Note_on_c, 0, 53, 39
3, 16880, Note_on_c, 0, 53, 0
3, 16880, Note_on_c, 0, 58, 30
3, 16960, Note_on_c, 0, 58, 0
3, 16960, Note_on_c, 0, 62, 24
3, 17040, Note_on_c, 0, 62, 0
3, 17040, Note_on_c, 0, 53, 37
3, 17120, Note_on_c, 0, 53, 0
3, 17120, Note_on_c, 0, 58, 32
3, 17200, Note_on_c, 0, 58, 0
3, 17200, Note_on_c, 0, 62, 27
3, 17280, Note_on_c, 0, 62, 0
3, 17280, Note_on_c, 0, 53, 41
3, 17360, Note_on_c, 0, 53, 0
3, 17360, Note_on_c, 0, 57, 31
3, 17440, Note_on_c, 0, 57, 0
3, 17440, Note_on_c, 0, 60, 25
3, 17520, Note_on_c, 0, 60, 0
3, 17520, Note_on_c, 0, 53, 35
3, 17600, Note_on_c, 0, 53, 0
3, 17600, Note_on_c, 0, 57, 27
3, 17680, Note_on_c, 0, 57, 0
3, 17680, Note_on_c, 0, 60, 21
3, 17760, Note_on_c, 0, 60, 0
3, 17760, Note_on_c, 0, 53, 37
3, 17840, Note_on_c, 0, 53, 0
3, 17840, Note_on_c, 0, 57, 31
3, 17920, Note_on_c, 0, 57, 0
3, 17920, Note_on_c, 0, 60, 24
3, 18000, Note_on_c, 0, 60, 0
3, 18000, Note_on_c, 0, 53, 41
3, 18080, Note_on_c, 0, 53, 0
3, 18080, Note_on_c, 0, 57, 32
3, 18160, Note_on_c, 0, 57, 0
3, 18160, Note_on_c, 0, 60, 24
3, 18240, Note_on_c, 0, 60, 0
3, 18240, Note_on_c, 0, 53, 41
3, 18320, Note_on_c, 0, 53, 0
3, 18320, Note_on_c, 0, 57, 31
3, 18400, Note_on_c, 0, 57, 0
3, 18400, Note_on_c, 0, 60, 29
3, 18480, Note_on_c, 0, 60, 0
3, 18480, Note_on_c, 0, 53, 38
3, 18560, Note_on_c, 0, 53, 0
3, 18560, Note_on_c, 0, 57, 35
3, 18640, Note_on_c, 0, 57, 0
3, 18640, Note_on_c, 0, 60, 30
3, 18720, Note_on_c, 0, 60, 0
3, 18720, Note_on_c, 0, 55, 39
3, 18800, Note_on_c, 0, 55, 0
3, 18800, Note_on_c, 0, 58, 30
3, 18880, Note_on_c, 0, 58, 0
3, 18880, Note_on_c, 0, 64, 26
3, 18960, Note_on_c, 0, 64, 0
3, 18960, Note_on_c, 0, 55, 37
3, 19040, Note_on_c, 0, 55, 0
3, 19040, Note_on_c, 0, 58, 32
3, 19120, Note_on_c, 0, 58, 0
3, 19120, Note_on_c, 0, 64, 23
3, 19200, Note_on_c, 0, 64, 0
3, 19200, Note_on_c, 0, 57, 41
3, 19280, Note_on_c, 0, 57, 0
3, 19280, Note_on_c, 0, 60, 31
3, 19360, Note_on_c, 0, 60, 0
3, 19360, Note_on_c, 0, 65, 27
3, 19440, Note_on_c, 0, 65, 0
3, 19680, Note_on_c, 0, 58, 41
3, 19760, Note_on_c, 0, 58, 0
3, 19760, Note_on_c, 0, 62, 31
3, 19840, Note_on_c, 0, 62, 0
3, 19840, Note_on_c, 0, 67, 26
3, 19920, Note_on_c, 0, 67, 0
3, 20160, Note_on_c, 0, 60, 41
3, 20240, Note_on_c, 0, 60, 0
3, 20240, Note_on_c, 0, 65, 31
3, 20320, Note_on_c, 0, 65, 0
3, 20320, Note_on_c, 0, 69, 27
3, 20400, Note_on_c, 0, 69, 0
3, 20400, Note_on_c, 0, 60, 33
3, 20480, Note_on_c, 0, 60, 0
3, 20480, Note_on_c, 0, 65, 29
3, 20560, Note_on_c, 0, 65, 0
3, 20560, Note_on_c, 0, 69, 24
3, 20640, Note_on_c, 0, 69, 0
3, 20640, Note_on_c, 0, 60, 34
3, 20720, Note_on_c, 0, 60, 0
3, 20720, Note_on_c, 0, 65, 29
3, 20800, Note_on_c, 0, 65, 0
3, 20800, Note_on_c, 0, 69, 25
3, 20880, Note_on_c, 0, 69, 0
3, 20880, Note_on_c, 0, 60, 31
3, 20959, Note_on_c, 0, 64, 26
3, 20960, Note_on_c, 0, 60, 0
3, 21039, Note_on_c, 0, 64, 0
3, 21041, Note_on_c, 0, 70, 22
3, 21120, Note_on_c, 0, 65, 36
3, 21121, Note_on_c, 0, 70, 0
3, 21200, Note_on_c, 0, 65, 0
3, 21200, Note_on_c, 0, 69, 26
3, 21280, Note_on_c, 0, 69, 0
3, 21280, Note_on_c, 0, 72, 26
3, 21360, Note_on_c, 0, 72, 0
3, 21360, Note_on_c, 0, 65, 33
3, 21440, Note_on_c, 0, 65, 0
3, 21440, Note_on_c, 0, 69, 27
3, 21520, Note_on_c, 0, 69, 0
3, 21520, Note_on_c, 0, 72, 27
3, 21600, Note_on_c, 0, 72, 0
3, 21600, Note_on_c, 0, 65, 41
3, 21680, Note_on_c, 0, 65, 0
3, 21680, Note_on_c, 0, 70, 29
3, 21760, Note_on_c, 0, 70, 0
3, 21760, Note_on_c, 0, 74, 24
3, 21840, Note_on_c, 0, 74, 0
3, 21840, Note_on_c, 0, 65, 33
3, 21920, Note_on_c, 0, 65, 0
3, 21920, Note_on_c, 0, 70, 27
3, 22000, Note_on_c, 0, 70, 0
3, 22000, Note_on_c, 0, 74, 25
3, 22080, Note_on_c, 0, 74, 0
3, 22080, Note_on_c, 0, 65, 41
3, 22160, Note_on_c, 0, 65, 0
3, 22160, Note_on_c, 0, 69, 29
3, 22240, Note_on_c, 0, 69, 0
3, 22240, Note_on_c, 0, 72, 25
3, 22320, Note_on_c, 0, 72, 0
3, 22800, Note_on_c, 0, 48, 41
3, 22800, Note_on_c, 0, 60, 49
3, 23040, Note_on_c, 0, 60, 0
3, 23040, Note_on_c, 0, 48, 0
3, 23040, Note_on_c, 0, 53, 57
3, 23120, Note_on_c, 0, 53, 0
3, 23120, Note_on_c, 0, 57, 40
3, 23200, Note_on_c, 0, 57, 0
3, 23200, Note_on_c, 0, 60, 32
3, 23280, Note_on_c, 0, 60, 0
3, 23280, Note_on_c, 0, 53, 46
3, 23360, Note_on_c, 0, 53, 0
3, 23360, Note_on_c, 0, 57, 37
3, 23440, Note_on_c, 0, 57, 0
3, 23440, Note_on_c, 0, 60, 32
3, 23520, Note_on_c, 0, 60, 0
3, 23520, Note_on_c, 0, 53, 57
3, 23600, Note_on_c, 0, 53, 0
3, 23600, Note_on_c, 0, 58, 40
3, 23680, Note_on_c, 0, 58, 0
3, 23680, Note_on_c, 0, 62, 33
3, 23760, Note_on_c, 0, 62, 0
3, 23760, Note_on_c, 0, 53, 46
3, 23840, Note_on_c, 0, 53, 0
3, 23840, Note_on_c, 0, 58, 37
3, 23920, Note_on_c, 0, 58, 0
3, 23920, Note_on_c, 0, 62, 32
3, 24000, Note_on_c, 0, 62, 0
3, 24000, Note_on_c, 0, 53, 57
3, 24080, Note_on_c, 0, 53, 0
3, 24080, Note_on_c, 0, 57, 40
3, 24160, Note_on_c, 0, 57, 0
3, 24160, Note_on_c, 0, 60, 33
3, 24240, Note_on_c, 0, 60, 0
3, 24480, Note_on_c, 0, 48, 68
3, 24480, Note_on_c, 0, 36, 57
3, 24960, Note_on_c, 0, 36, 0
3, 24960, Note_on_c, 0, 48, 0
3, 24960, Note_on_c, 0, 41, 63
3, 25040, Note_on_c, 0, 41, 0
3, 25040, Note_on_c, 0, 45, 53
3, 25120, Note_on_c, 0, 45, 0
3, 25120, Note_on_c, 0, 48, 46
3, 25200, Note_on_c, 0, 48, 0
3, 25200, Note_on_c, 0, 41, 63
3, 25280, Note_on_c, 0, 41, 0
3, 25280, Note_on_c, 0, 45, 53
3, 25360, Note_on_c, 0, 45, 0
3, 25360, Note_on_c, 0, 48, 48
3, 25440, Note_on_c, 0, 48, 0
3, 25440, Note_on_c, 0, 41, 63
3, 25520, Note_on_c, 0, 41, 0
3, 25520, Note_on_c, 0, 45, 53
3, 25600, Note_on_c, 0, 45, 0
3, 25600, Note_on_c, 0, 48, 46
3, 25680, Note_on_c, 0, 48, 0
3, 25680, Note_on_c, 0, 41, 63
3, 25760, Note_on_c, 0, 41, 0
3, 25760, Note_on_c, 0, 45, 53
3, 25840, Note_on_c, 0, 45, 0
3, 25840, Note_on_c, 0, 48, 47
3, 25920, Note_on_c, 0, 48, 0
3, 25920, Note_on_c, 0, 41, 63
3, 26280, Note_on_c, 0, 41, 0
3, 26880, Note_on_c, 0, 65, 28
3, 26960, Note_on_c, 0, 65, 0
3, 26960, Note_on_c, 0, 69, 21
3, 27040, Note_on_c, 0, 69, 0
3, 27040, Note_on_c, 0, 72, 18
3, 27120, Note_on_c, 0, 72, 0
3, 27120, Note_on_c, 0, 65, 26
3, 27200, Note_on_c, 0, 65, 0
3, 27200, Note_on_c, 0, 69, 24
3, 27280, Note_on_c, 0, 69, 0
3, 27280, Note_on_c, 0, 72, 20
3, 27360, Note_on_c, 0, 72, 0
3, 27360, Note_on_c, 0, 65, 27
3, 27440, Note_on_c, 0, 65, 0
3, 27440, Note_on_c, 0, 69, 21
3, 27520, Note_on_c, 0, 69, 0
3, 27520, Note_on_c, 0, 72, 19
3, 27600, Note_on_c, 0, 72, 0
3, 27600, Note_on_c, 0, 65, 25
3, 27680, Note_on_c, 0, 65, 0
3, 27680, Note_on_c, 0, 69, 22
3, 27760, Note_on_c, 0, 69, 0
3, 27760, Note_on_c, 0, 72, 21
3, 27840, Note_on_c, 0, 72, 0
3, 27840, Note_on_c, 0, 64, 28
3, 27920, Note_on_c, 0, 64, 0
3, 27920, Note_on_c, 0, 67, 21
3, 28000, Note_on_c, 0, 67, 0
3, 28000, Note_on_c, 0, 72, 17
3, 28080, Note_on_c, 0, 72, 0
3, 28080, Note_on_c, 0, 64, 24
3, 28160, Note_on_c, 0, 64, 0
3, 28160, Note_on_c, 0, 67, 18
3, 28240, Note_on_c, 0, 67, 0
3, 28240, Note_on_c, 0, 72, 18
3, 28320, Note_on_c, 0, 72, 0
3, 28320, Note_on_c, 0, 64, 28
3, 28400, Note_on_c, 0, 64, 0
3, 28400, Note_on_c, 0, 67, 21
3, 28480, Note_on_c, 0, 67, 0
3, 28480, Note_on_c, 0, 72, 21
3, 28560, Note_on_c, 0, 72, 0
3, 28560, Note_on_c, 0, 64, 24
3, 28640, Note_on_c, 0, 64, 0
3, 28640, Note_on_c, 0, 67, 18
3, 28720, Note_on_c, 0, 67, 0
3, 28720, Note_on_c, 0, 72, 18
3, 28800, Note_on_c, 0, 72, 0
3, 28800, Note_on_c, 0, 62, 28
3, 28880, Note_on_c, 0, 62, 0
3, 28880, Note_on_c, 0, 67, 21
3, 28960, Note_on_c, 0, 67, 0
3, 28960, Note_on_c, 0, 71, 20
3, 29040, Note_on_c, 0, 71, 0
3, 29040, Note_on_c, 0, 62, 26
3, 29120, Note_on_c, 0, 62, 0
3, 29120, Note_on_c, 0, 67, 24
3, 29200, Note_on_c, 0, 67, 0
3, 29200, Note_on_c, 0, 71, 21
3, 29280, Note_on_c, 0, 71, 0
3, 29280, Note_on_c, 0, 62, 27
3, 29360, Note_on_c, 0, 62, 0
3, 29360, Note_on_c, 0, 67, 21
3, 29440, Note_on_c, 0, 67, 0
3, 29440, Note_on_c, 0, 71, 20
3, 29520, Note_on_c, 0, 71, 0
3, 29520, Note_on_c, 0, 62, 25
3, 29600, Note_on_c, 0, 62, 0
3, 29600, Note_on_c, 0, 67, 22
3, 29680, Note_on_c, 0, 67, 0
3, 29680, Note_on_c, 0, 71, 21
3, 29760, Note_on_c, 0, 71, 0
3, 29760, Note_on_c, 0, 60, 37
3, 29880, Note_on_c, 0, 60, 0
3, 30240, Note_on_c, 0, 59, 30
3, 30360, Note_on_c, 0, 59, 0
3, 30480, Note_on_c, 0, 59, 33
3, 30600, Note_on_c, 0, 59, 0
3, 30720, Note_on_c, 0, 60, 43
3, 30840, Note_on_c, 0, 60, 0
3, 31200, Note_on_c, 0, 59, 35
3, 31320, Note_on_c, 0, 59, 0
3, 31440, Note_on_c, 0, 59, 39
3, 31560, Note_on_c, 0, 59, 0
3, 31680, Note_on_c, 0, 60, 50
3, 31800, Note_on_c, 0, 60, 0
3, 32160, Note_on_c, 0, 52, 46
3, 32160, Note_on_c, 0, 60, 53
3, 32280, Note_on_c, 0, 60, 0
3, 32280, Note_on_c, 0, 52, 0
3, 32400, Note_on_c, 0, 52, 47
3, 32400, Note_on_c, 0, 60, 54
3, 32520, Note_on_c, 0, 60, 0
3, 32520, Note_on_c, 0, 52, 0
3, 32640, Note_on_c, 0, 53, 46
3, 32640, Note_on_c, 0, 60, 53
3, 32760, Note_on_c, 0, 60, 0
3, 32760, Note_on_c, 0, 53, 0
3, 33120, Note_on_c, 0, 53, 44
3, 33240, Note_on_c, 0, 53, 0
3, 33360, Note_on_c, 0, 54, 37
3, 33480, Note_on_c, 0, 54, 0
3, 33600, Note_on_c, 0, 55, 28
3, 33680, Note_on_c, 0, 55, 0
3, 33680, Note_on_c, 0, 60, 21
3, 33760, Note_on_c, 0, 60, 0
3, 33760, Note_on_c, 0, 64, 21
3, 33840, Note_on_c, 0, 64, 0
3, 33840, Note_on_c, 0, 55, 26
3, 33920, Note_on_c, 0, 55, 0
3, 33920, Note_on_c, 0, 60, 24
3, 34000, Note_on_c, 0, 60, 0
3, 34000, Note_on_c, 0, 64, 21
3, 34080, Note_on_c, 0, 64, 0
3, 34080, Note_on_c, 0, 55, 27
3, 34160, Note_on_c, 0, 55, 0
3, 34160, Note_on_c, 0, 59, 21
3, 34240, Note_on_c, 0, 59, 0
3, 34240, Note_on_c, 0, 62, 21
3, 34320, Note_on_c, 0, 62, 0
3, 34320, Note_on_c, 0, 55, 25
3, 34400, Note_on_c, 0, 55, 0
3, 34400, Note_on_c, 0, 59, 22
3, 34480, Note_on_c, 0, 59, 0
3, 34480, Note_on_c, 0, 62, 21
3, 34560, Note_on_c, 0, 62, 0
3, 34560, Note_on_c, 0, 60, 42
3, 34680, Note_on_c, 0, 60, 0
3, 35040, Note_on_c, 0, 59, 36
3, 35120, Note_on_c, 0, 59, 0
3, 35120, Note_on_c, 0, 60, 26
3, 35200, Note_on_c, 0, 60, 0
3, 35200, Note_on_c, 0, 62, 26
3, 35280, Note_on_c, 0, 62, 0
3, 35280, Note_on_c, 0, 55, 36
3, 35360, Note_on_c, 0, 55, 0
3, 35360, Note_on_c, 0, 57, 31
3, 35440, Note_on_c, 0, 57, 0
3, 35440, Note_on_c, 0, 59, 31
3, 35520, Note_on_c, 0, 59, 0
3, 35520, Note_on_c, 0, 60, 43
3, 35640, Note_on_c, 0, 60, 0
3, 36000, Note_on_c, 0, 59, 36
3, 36080, Note_on_c, 0, 59, 0
3, 36080, Note_on_c, 0, 60, 26
3, 36160, Note_on_c, 0, 60, 0
3, 36160, Note_on_c, 0, 62, 26
3, 36240, Note_on_c, 0, 62, 0
3, 36240, Note_on_c, 0, 55, 36
3, 36320, Note_on_c, 0, 55, 0
3, 36320, Note_on_c, 0, 57, 31
3, 36400, Note_on_c, 0, 57, 0
3, 36400, Note_on_c, 0, 59, 31
3, 36480, Note_on_c, 0, 59, 0
3, 36480, Note_on_c, 0, 60, 37
3, 36720, Note_on_c, 0, 60, 0
3, 36720, Note_on_c, 0, 52, 40
3, 36960, Note_on_c, 0, 52, 0
3, 36960, Note_on_c, 0, 53, 44
3, 37200, Note_on_c, 0, 53, 0
3, 37200, Note_on_c, 0, 53, 48
3, 37440, Note_on_c, 0, 53, 0
3, 37440, Note_on_c, 0, 55, 58
3, 37560, Note_on_c, 0, 55, 0
3, 37680, Note_on_c, 0, 55, 51
3, 37800, Note_on_c, 0, 55, 0
3, 37920, Note_on_c, 0, 43, 58
3, 38040, Note_on_c, 0, 43, 0
3, 38160, Note_on_c, 0, 43, 55
3, 38280, Note_on_c, 0, 43, 0
3, 38400, Note_on_c, 0, 48, 55
3, 38520, Note_on_c, 0, 48, 0
3, 38880, Note_on_c, 0, 47, 56
3, 38960, Note_on_c, 0, 47, 0
3, 38960, Note_on_c, 0, 48, 42
3, 39040, Note_on_c, 0, 48, 0
3, 39040, Note_on_c, 0, 50, 44
3, 39120, Note_on_c, 0, 50, 0
3, 39120, Note_on_c, 0, 43, 56
3, 39200, Note_on_c, 0, 43, 0
3, 39200, Note_on_c, 0, 45, 48
3, 39280, Note_on_c, 0, 45, 0
3, 39280, Note_on_c, 0, 47, 46
3, 39360, Note_on_c, 0, 47, 0
3, 39360, Note_on_c, 0, 48, 57
3, 39480, Note_on_c, 0, 48, 0
3, 39840, Note_on_c, 0, 47, 56
3, 39920, Note_on_c, 0, 47, 0
3, 39920, Note_on_c, 0, 48, 42
3, 40000, Note_on_c, 0, 48, 0
3, 40000, Note_on_c, 0, 50, 39
3, 40080, Note_on_c, 0, 50, 0
3, 40080, Note_on_c, 0, 43, 56
3, 40160, Note_on_c, 0, 43, 0
3, 40160, Note_on_c, 0, 45, 48
3, 40240, Note_on_c, 0, 45, 0
3, 40240, Note_on_c, 0, 47, 42
3, 40320, Note_on_c, 0, 47, 0
3, 40320, Note_on_c, 0, 48, 48
3, 40440, Note_on_c, 0, 48, 0
3, 40560, Note_on_c, 0, 48, 47
3, 40560, Note_on_c, 0, 36, 39
3, 40680, Note_on_c, 0, 36, 0
3, 40680, Note_on_c, 0, 48, 0
3, 41040, Note_on_c, 0, 57, 47
3, 41040, Note_on_c, 0, 45, 39
3, 41160, Note_on_c, 0, 45, 0
3, 41160, Note_on_c, 0, 57, 0
3, 41520, Note_on_c, 0, 53, 47
3, 41520, Note_on_c, 0, 41, 39
3, 41640, Note_on_c, 0, 41, 0
3, 41640, Note_on_c, 0, 53, 0
3, 42000, Note_on_c, 0, 55, 47
3, 42000, Note_on_c, 0, 43, 39
3, 42120, Note_on_c, 0, 43, 0
3, 42120, Note_on_c, 0, 55, 0
3, 42480, Note_on_c, 0, 60, 55
3, 42480, Note_on_c, 0, 48, 46
3, 42600, Note_on_c, 0, 48, 0
3, 42600, Note_on_c, 0, 60, 0
3, 42960, Note_on_c, 0, 57, 55
3, 42960, Note_on_c, 0, 45, 46
3, 43080, Note_on_c, 0, 45, 0
3, 43080, Note_on_c, 0, 57, 0
3, 43200, Note_on_c, 0, 41, 50
3, 43200, Note_on_c, 0, 53, 60
3, 43320, Note_on_c, 0, 53, 0
3, 43320, Note_on_c, 0, 41, 0
3, 43440, Note_on_c, 0, 53, 55
3, 43440, Note_on_c, 0, 41, 46
3, 43560, Note_on_c, 0, 41, 0
3, 43560, Note_on_c, 0, 53, 0
3, 43680, Note_on_c, 0, 43, 50
3, 43680, Note_on_c, 0, 55, 60
3, 43800, Note_on_c, 0, 55, 0
3, 43800, Note_on_c, 0, 43, 0
3, 43920, Note_on_c, 0, 55, 55
3, 43920, Note_on_c, 0, 43, 46
3, 44040, Note_on_c, 0, 43, 0
3, 44040, Note_on_c, 0, 55, 0
3, 44160, Note_on_c, 0, 36, 51
3, 44160, Note_on_c, 0, 48, 60
3, 45120, Note_on_c, 0, 48, 0
3, 45120, Note_on_c, 0, 36, 0
3, 45120, Note_on_c, 0, 36, 51
3, 45120, Note_on_c, 0, 48, 60
3, 46080, Note_on_c, 0, 48, 0
3, 46080, Note_on_c, 0, 36, 0
3, 46080, Note_on_c, 0, 48, 84
3, 46080, Note_on_c, 0, 36, 71
3, 46140, Note_on_c, 0, 36, 0
3, 46140, Note_on_c, 0, 48, 0
3, 46320, Note_on_c, 0, 36, 62
3, 46320, Note_on_c, 0, 48, 74
3, 46380, Note_on_c, 0, 48, 0
3, 46380, Note_on_c, 0, 36, 0
3, 47040, Note_on_c, 0, 36, 45
3, 47040, Note_on_c, 0, 48, 54
3, 47100, Note_on_c, 0, 48, 0
3, 47100, Note_on_c, 0, 36, 0
3, 47280, Note_on_c, 0, 48, 47
3, 47280, Note_on_c, 0, 36, 39
3, 47340, Note_on_c, 0, 36, 0
3, 47340, Note_on_c, 0, 48, 0
3, 48000, Note_on_c, 0, 67, 33
3, 48000, Note_on_c, 0, 60, 27
3, 48000, Note_on_c, 0, 64, 27
3, 48060, Note_on_c, 0, 64, 0
3, 48060, Note_on_c, 0, 60, 0
3, 48060, Note_on_c, 0, 67, 0
3, 48240, Note_on_c, 0, 67, 28
3, 48240, Note_on_c, 0, 60, 24
3, 48240, Note_on_c, 0, 64, 24
3, 48300, Note_on_c, 0, 64, 0
3, 48300, Note_on_c, 0, 60, 0
3, 48300, Note_on_c, 0, 67, 0
3, 49920, Note_on_c, 0, 69, 36
3, 49920, Note_on_c, 0, 65, 30
3, 49980, Note_on_c, 0, 65, 0
3, 49980, Note_on_c, 0, 69, 0
3, 50160, Note_on_c, 0, 69, 36
3, 50160, Note_on_c, 0, 65, 30
3, 50220, Note_on_c, 0, 65, 0
3, 50220, Note_on_c, 0, 69, 0
3, 50880, Note_on_c, 0, 70, 36
3, 50880, Note_on_c, 0, 65, 30
3, 50940, Note_on_c, 0, 65, 0
3, 50940, Note_on_c, 0, 70, 0
3, 51120, Note_on_c, 0, 70, 36
3, 51120, Note_on_c, 0, 65, 30
3, 51180, Note_on_c, 0, 65, 0
3, 51180, Note_on_c, 0, 70, 0
3, 51840, Note_on_c, 0, 60, 47
3, 51840, Note_on_c, 0, 55, 39
3, 51840, Note_on_c, 0, 52, 39
3, 51840, Note_on_c, 0, 48, 39
3, 52800, Note_on_c, 0, 48, 0
3, 52800, Note_on_c, 0, 60, 0
3, 52800, Note_on_c, 0, 55, 0
3, 52800, Note_on_c, 0, 52, 0
3, 52800, Note_on_c, 0, 53, 41
3, 52880, Note_on_c, 0, 53, 0
3, 52880, Note_on_c, 0, 57, 31
3, 52960, Note_on_c, 0, 57, 0
3, 52960, Note_on_c, 0, 60, 29
3, 53040, Note_on_c, 0, 60, 0
3, 53040, Note_on_c, 0, 53, 37
3, 53120, Note_on_c, 0, 53, 0
3, 53120, Note_on_c, 0, 57, 34
3, 53200, Note_on_c, 0, 57, 0
3, 53200, Note_on_c, 0, 60, 25
3, 53280, Note_on_c, 0, 60, 0
3, 53280, Note_on_c, 0, 53, 39
3, 53360, Note_on_c, 0, 53, 0
3, 53360, Note_on_c, 0, 57, 33
3, 53440, Note_on_c, 0, 57, 0
3, 53440, Note_on_c, 0, 60, 30
3, 53520, Note_on_c, 0, 60, 0
3, 53520, Note_on_c, 0, 53, 41
3, 53600, Note_on_c, 0, 53, 0
3, 53600, Note_on_c, 0, 57, 32
3, 53680, Note_on_c, 0, 57, 0
3, 53680, Note_on_c, 0, 60, 27
3, 53760, Note_on_c, 0, 60, 0
3, 53760, Note_on_c, 0, 53, 41
3, 53840, Note_on_c, 0, 53, 0
3, 53840, Note_on_c, 0, 57, 31
3, 53920, Note_on_c, 0, 57, 0
3, 53920, Note_on_c, 0, 60, 33
3, 54000, Note_on_c, 0, 60, 0
3, 54000, Note_on_c, 0, 53, 38
3, 54080, Note_on_c, 0, 53, 0
3, 54080, Note_on_c, 0, 57, 35
3, 54160, Note_on_c, 0, 57, 0
3, 54160, Note_on_c, 0, 60, 30
3, 54240, Note_on_c, 0, 60, 0
3, 54240, Note_on_c, 0, 53, 39
3, 54320, Note_on_c, 0, 53, 0
3, 54320, Note_on_c, 0, 58, 30
3, 54400, Note_on_c, 0, 58, 0
3, 54400, Note_on_c, 0, 62, 30
3, 54480, Note_on_c, 0, 62, 0
3, 54480, Note_on_c, 0, 53, 37
3, 54560, Note_on_c, 0, 53, 0
3, 54560, Note_on_c, 0, 58, 32
3, 54640, Note_on_c, 0, 58, 0
3, 54640, Note_on_c, 0, 62, 30
3, 54720, Note_on_c, 0, 62, 0
3, 54720, Note_on_c, 0, 53, 41
3, 54800, Note_on_c, 0, 53, 0
3, 54800, Note_on_c, 0, 57, 31
3, 54880, Note_on_c, 0, 57, 0
3, 54880, Note_on_c, 0, 60, 23
3, 54960, Note_on_c, 0, 60, 0
3, 54960, Note_on_c, 0, 53, 35
3, 55040, Note_on_c, 0, 53, 0
3, 55040, Note_on_c, 0, 57, 27
3, 55120, Note_on_c, 0, 57, 0
3, 55120, Note_on_c, 0, 60, 27
3, 55200, Note_on_c, 0, 60, 0
3, 55200, Note_on_c, 0, 53, 37
3, 55280, Note_on_c, 0, 53, 0
3, 55280, Note_on_c, 0, 57, 31
3, 55360, Note_on_c, 0, 57, 0
3, 55360, Note_on_c, 0, 60, 25
3, 55440, Note_on_c, 0, 60, 0
3, 55440, Note_on_c, 0, 53, 41
3, 55520, Note_on_c, 0, 53, 0
3, 55520, Note_on_c, 0, 57, 32
3, 55600, Note_on_c, 0, 57, 0
3, 55600, Note_on_c, 0, 60, 26
3, 55680, Note_on_c, 0, 60, 0
3, 55680, Note_on_c, 0, 53, 41
3, 55760, Note_on_c, 0, 53, 0
3, 55760, Note_on_c, 0, 57, 31
3, 55840, Note_on_c, 0, 57, 0
3, 55840, Note_on_c, 0, 60, 27
3, 55920, Note_on_c, 0, 60, 0
3, 55920, Note_on_c, 0, 53, 38
3, 56000, Note_on_c, 0, 53, 0
3, 56000, Note_on_c, 0, 57, 35
3, 56080, Note_on_c, 0, 57, 0
3, 56080, Note_on_c, 0, 60, 30
3, 56160, Note_on_c, 0, 60, 0
3, 56160, Note_on_c, 0, 53, 39
3, 56240, Note_on_c, 0, 53, 0
3, 56240, Note_on_c, 0, 59, 30
3, 56320, Note_on_c, 0, 59, 0
3, 56320, Note_on_c, 0, 62, 30
3, 56400, Note_on_c, 0, 62, 0
3, 56400, Note_on_c, 0, 53, 37
3, 56480, Note_on_c, 0, 53, 0
3, 56480, Note_on_c, 0, 59, 32
3, 56560, Note_on_c, 0, 59, 0
3, 56560, Note_on_c, 0, 62, 30
3, 56640, Note_on_c, 0, 62, 0
3, 56640, Note_on_c, 0, 52, 41
3, 56720, Note_on_c, 0, 52, 0
3, 56720, Note_on_c, 0, 55, 31
3, 56800, Note_on_c, 0, 55, 0
3, 56800, Note_on_c, 0, 60, 25
3, 56880, Note_on_c, 0, 60, 0
3, 57120, Note_on_c, 0, 53, 41
3, 57200, Note_on_c, 0, 53, 0
3, 57200, Note_on_c, 0, 57, 31
3, 57280, Note_on_c, 0, 57, 0
3, 57280, Note_on_c, 0, 62, 28
3, 57360, Note_on_c, 0, 62, 0
3, 57600, Note_on_c, 0, 55, 41
3, 57680, Note_on_c, 0, 55, 0
3, 57680, Note_on_c, 0, 60, 30
3, 57760, Note_on_c, 0, 60, 0
3, 57760, Note_on_c, 0, 64, 28
3, 57840, Note_on_c, 0, 64, 0
3, 58080, Note_on_c, 0, 55, 36
3, 58160, Note_on_c, 0, 55, 0
3, 58160, Note_on_c, 0, 62, 26
3, 58240, Note_on_c, 0, 62, 0
3, 58240, Note_on_c, 0, 65, 24
3, 58320, Note_on_c, 0, 65, 0
3, 58560, Note_on_c, 0, 60, 34
3, 58640, Note_on_c, 0, 60, 0
3, 58641, Note_on_c, 0, 62, 30
3, 58720, Note_on_c, 0, 64, 30
3, 58721, Note_on_c, 0, 62, 0
3, 58800, Note_on_c, 0, 64, 0
3, 58800, Note_on_c, 0, 60, 34
3, 58880, Note_on_c, 0, 60, 0
3, 58881, Note_on_c, 0, 62, 30
3, 58960, Note_on_c, 0, 64, 30
3, 58961, Note_on_c, 0, 62, 0
3, 59040, Note_on_c, 0, 64, 0
3, 59040, Note_on_c, 0, 60, 34
3, 59100, Note_on_c, 0, 60, 0
3, 59520, Note_on_c, 0, 71, 38
3, 59580, Note_on_c, 0, 71, 0
3, 60000, Note_on_c, 0, 70, 41
3, 60060, Note_on_c, 0, 70, 0
3, 61440, Note_on_c, 0, 69, 36
3, 61440, Note_on_c, 0, 65, 30
3, 61500, Note_on_c, 0, 65, 0
3, 61500, Note_on_c, 0, 69, 0
3, 61680, Note_on_c, 0, 69, 36
3, 61680, Note_on_c, 0, 65, 30
3, 61740, Note_on_c, 0, 65, 0
3, 61740, Note_on_c, 0, 69, 0
3, 62400, Note_on_c, 0, 70, 36
3, 62400, Note_on_c, 0, 65, 30
3, 62460, Note_on_c, 0, 65, 0
3, 62460, Note_on_c, 0, 70, 0
3, 62640, Note_on_c, 0, 70, 36
3, 62640, Note_on_c, 0, 65, 30
3, 62700, Note_on_c, 0, 65, 0
3, 62700, Note_on_c, 0, 70, 0
3, 63360, Note_on_c, 0, 60, 47
3, 63360, Note_on_c, 0, 55, 39
3, 63360, Note_on_c, 0, 52, 39
3, 63360, Note_on_c, 0, 48, 39
3, 64320, Note_on_c, 0, 48, 0
3, 64320, Note_on_c, 0, 60, 0
3, 64320, Note_on_c, 0, 55, 0
3, 64320, Note_on_c, 0, 52, 0
3, 64320, Note_on_c, 0, 53, 41
3, 64400, Note_on_c, 0, 53, 0
3, 64400, Note_on_c, 0, 57, 31
3, 64480, Note_on_c, 0, 57, 0
3, 64480, Note_on_c, 0, 60, 28
3, 64560, Note_on_c, 0, 60, 0
3, 64560, Note_on_c, 0, 53, 37
3, 64640, Note_on_c, 0, 53, 0
3, 64640, Note_on_c, 0, 57, 34
3, 64720, Note_on_c, 0, 57, 0
3, 64720, Note_on_c, 0, 60, 29
3, 64800, Note_on_c, 0, 60, 0
3, 64800, Note_on_c, 0, 53, 39
3, 64880, Note_on_c, 0, 53, 0
3, 64880, Note_on_c, 0, 57, 33
3, 64960, Note_on_c, 0, 57, 0
3, 64960, Note_on_c, 0, 60, 26
3, 65040, Note_on_c, 0, 60, 0
3, 65040, Note_on_c, 0, 53, 41
3, 65120, Note_on_c, 0, 53, 0
3, 65120, Note_on_c, 0, 57, 32
3, 65200, Note_on_c, 0, 57, 0
3, 65200, Note_on_c, 0, 60, 25
3, 65280, Note_on_c, 0, 60, 0
3, 65280, Note_on_c, 0, 53, 41
3, 65360, Note_on_c, 0, 53, 0
3, 65360, Note_on_c, 0, 57, 31
3, 65440, Note_on_c, 0, 57, 0
3, 65440, Note_on_c, 0, 60, 27
3, 65520, Note_on_c, 0, 60, 0
3, 65520, Note_on_c, 0, 53, 38
3, 65600, Note_on_c, 0, 53, 0
3, 65600, Note_on_c, 0, 57, 35
3, 65680, Note_on_c, 0, 57, 0
3, 65680, Note_on_c, 0, 60, 29
3, 65760, Note_on_c, 0, 60, 0
3, 65760, Note_on_c, 0, 53, 39
3, 65840, Note_on_c, 0, 53, 0
3, 65840, Note_on_c, 0, 58, 30
3, 65920, Note_on_c, 0, 58, 0
3, 65920, Note_on_c, 0, 62, 24
3, 66000, Note_on_c, 0, 62, 0
3, 66000, Note_on_c, 0, 53, 37
3, 66080, Note_on_c, 0, 53, 0
3, 66080, Note_on_c, 0, 58, 32
3, 66160, Note_on_c, 0, 58, 0
3, 66160, Note_on_c, 0, 62, 27
3, 66240, Note_on_c, 0, 62, 0
3, 66240, Note_on_c, 0, 53, 41
3, 66320, Note_on_c, 0, 53, 0
3, 66320, Note_on_c, 0, 57, 31
3, 66400, Note_on_c, 0, 57, 0
3, 66400, Note_on_c, 0, 60, 25
3, 66480, Note_on_c, 0, 60, 0
3, 66480, Note_on_c, 0, 53, 35
3, 66560, Note_on_c, 0, 53, 0
3, 66560, Note_on_c, 0, 57, 27
3, 66640, Note_on_c, 0, 57, 0
3, 66640, Note_on_c, 0, 60, 21
3, 66720, Note_on_c, 0, 60, 0
3, 66720, Note_on_c, 0, 53, 37
3, 66800, Note_on_c, 0, 53, 0
3, 66800, Note_on_c, 0, 57, 31
3, 66880, Note_on_c, 0, 57, 0
3, 66880, Note_on_c, 0, 60, 24
3, 66960, Note_on_c, 0, 60, 0
3, 66960, Note_on_c, 0, 53, 41
3, 67040, Note_on_c, 0, 53, 0
3, 67040, Note_on_c, 0, 57, 32
3, 67120, Note_on_c, 0, 57, 0
3, 67120, Note_on_c, 0, 60, 24
3, 67200, Note_on_c, 0, 60, 0
3, 67200, Note_on_c, 0, 53, 41
3, 67280, Note_on_c, 0, 53, 0
3, 67280, Note_on_c, 0, 57, 31
3, 67360, Note_on_c, 0, 57, 0
3, 67360, Note_on_c, 0, 60, 29
3, 67440, Note_on_c, 0, 60, 0
3, 67440, Note_on_c, 0, 53, 38
3, 67520, Note_on_c, 0, 53, 0
3, 67520, Note_on_c, 0, 57, 35
3, 67600, Note_on_c, 0, 57, 0
3, 67600, Note_on_c, 0, 60, 30
3, 67680, Note_on_c, 0, 60, 0
3, 67680, Note_on_c, 0, 55, 39
3, 67760, Note_on_c, 0, 55, 0
3, 67760, Note_on_c, 0, 58, 30
3, 67840, Note_on_c, 0, 58, 0
3, 67840, Note_on_c, 0, 64, 26
3, 67920, Note_on_c, 0, 64, 0
3, 67920, Note_on_c, 0, 55, 37
3, 68000, Note_on_c, 0, 55, 0
3, 68000, Note_on_c, 0, 58, 32
3, 68080, Note_on_c, 0, 58, 0
3, 68080, Note_on_c, 0, 64, 23
3, 68160, Note_on_c, 0, 64, 0
3, 68160, Note_on_c, 0, 57, 41
3, 68240, Note_on_c, 0, 57, 0
3, 68240, Note_on_c, 0, 60, 31
3, 68320, Note_on_c, 0, 60, 0
3, 68320, Note_on_c, 0, 65, 27
3, 68400, Note_on_c, 0, 65, 0
3, 68640, Note_on_c, 0, 58, 41
3, 68720, Note_on_c, 0, 58, 0
3, 68720, Note_on_c, 0, 62, 31
3, 68800, Note_on_c, 0, 62, 0
3, 68800, Note_on_c, 0, 67, 26
3, 68880, Note_on_c, 0, 67, 0
3, 69120, Note_on_c, 0, 60, 41
3, 69200, Note_on_c, 0, 60, 0
3, 69200, Note_on_c, 0, 65, 31
3, 69280, Note_on_c, 0, 65, 0
3, 69280, Note_on_c, 0, 69, 27
3, 69360, Note_on_c, 0, 69, 0
3, 69360, Note_on_c, 0, 60, 33
3, 69440, Note_on_c, 0, 60, 0
3, 69440, Note_on_c, 0, 65, 29
3, 69520, Note_on_c, 0, 65, 0
3, 69520, Note_on_c, 0, 69, 24
3, 69600, Note_on_c, 0, 69, 0
3, 69600, Note_on_c, 0, 60, 34
3, 69680, Note_on_c, 0, 60, 0
3, 69680, Note_on_c, 0, 65, 29
3, 69760, Note_on_c, 0, 65, 0
3, 69760, Note_on_c, 0, 69, 25
3, 69840, Note_on_c, 0, 69, 0
3, 69840, Note_on_c, 0, 60, 31
3, 69919, Note_on_c, 0, 64, 26
3, 69920, Note_on_c, 0, 60, 0
3, 69999, Note_on_c, 0, 64, 0
3, 70001, Note_on_c, 0, 70, 22
3, 70080, Note_on_c, 0, 65, 36
3, 70081, Note_on_c, 0, 70, 0
3, 70160, Note_on_c, 0, 65, 0
3, 70160, Note_on_c, 0, 69, 26
3, 70240, Note_on_c, 0, 69, 0
3, 70240, Note_on_c, 0, 72, 26
3, 70320, Note_on_c, 0, 72, 0
3, 70320, Note_on_c, 0, 65, 33
3, 70400, Note_on_c, 0, 65, 0
3, 70400, Note_on_c, 0, 69, 27
3, 70480, Note_on_c, 0, 69, 0
3, 70480, Note_on_c, 0, 72, 27
3, 70560, Note_on_c, 0, 72, 0
3, 70560, Note_on_c, 0, 65, 41
3, 70640, Note_on_c, 0, 65, 0
3, 70640, Note_on_c, 0, 70, 29
3, 70720, Note_on_c, 0, 70, 0
3, 70720, Note_on_c, 0, 74, 24
3, 70800, Note_on_c, 0, 74, 0
3, 70800, Note_on_c, 0, 65, 33
3, 70880, Note_on_c, 0, 65, 0
3, 70880, Note_on_c, 0, 70, 27
3, 70960, Note_on_c, 0, 70, 0
3, 70960, Note_on_c, 0, 74, 25
3, 71040, Note_on_c, 0, 74, 0
3, 71040, Note_on_c, 0, 65, 41
3, 71120, Note_on_c, 0, 65, 0
3, 71120, Note_on_c, 0, 69, 29
3, 71200, Note_on_c, 0, 69, 0
3, 71200, Note_on_c, 0, 72, 25
3, 71280, Note_on_c, 0, 72, 0
3, 71760, Note_on_c, 0, 48, 41
3, 71760, Note_on_c, 0, 60, 49
3, 72000, Note_on_c, 0, 60, 0
3, 72000, Note_on_c, 0, 48, 0
3, 72000, Note_on_c, 0, 53, 57
3, 72080, Note_on_c, 0, 53, 0
3, 72080, Note_on_c, 0, 57, 40
3, 72160, Note_on_c, 0, 57, 0
3, 72160, Note_on_c, 0, 60, 32
3, 72240, Note_on_c, 0, 60, 0
3, 72240, Note_on_c, 0, 53, 46
3, 72320, Note_on_c, 0, 53, 0
3, 72320, Note_on_c, 0, 57, 37
3, 72400, Note_on_c, 0, 57, 0
3, 72400, Note_on_c, 0, 60, 32
3, 72480, Note_on_c, 0, 60, 0
3, 72480, Note_on_c, 0, 53, 57
3, 72560, Note_on_c, 0, 53, 0
3, 72560, Note_on_c, 0, 58, 40
3, 72640, Note_on_c, 0, 58, 0
3, 72640, Note_on_c, 0, 62, 33
3, 72720, Note_on_c, 0, 62, 0
3, 72720, Note_on_c, 0, 53, 46
3, 72800, Note_on_c, 0, 53, 0
3, 72800, Note_on_c, 0, 58, 37
3, 72880, Note_on_c, 0, 58, 0
3, 72880, Note_on_c, 0, 62, 32
3, 72960, Note_on_c, 0, 62, 0
3, 72960, Note_on_c, 0, 53, 57
3, 73040, Note_on_c, 0, 53, 0
3, 73040, Note_on_c, 0, 57, 40
3, 73120, Note_on_c, 0, 57, 0
3, 73120, Note_on_c, 0, 60, 33
3, 73200, Note_on_c, 0, 60, 0
3, 73440, Note_on_c, 0, 48, 68
3, 73440, Note_on_c, 0, 36, 57
3, 73920, Note_on_c, 0, 36, 0
3, 73920, Note_on_c, 0, 48, 0
3, 73920, Note_on_c, 0, 41, 63
3, 74000, Note_on_c, 0, 41, 0
3, 74000, Note_on_c, 0, 45, 53
3, 74080, Note_on_c, 0, 45, 0
3, 74080, Note_on_c, 0, 48, 46
3, 74160, Note_on_c, 0, 48, 0
3, 74160, Note_on_c, 0, 41, 63
3, 74240, Note_on_c, 0, 41, 0
3, 74240, Note_on_c, 0, 45, 53
3, 74320, Note_on_c, 0, 45, 0
3, 74320, Note_on_c, 0, 48, 48
3, 74400, Note_on_c, 0, 48, 0
3, 74400, Note_on_c, 0, 41, 63
3, 74480, Note_on_c, 0, 41, 0
3, 74480, Note_on_c, 0, 45, 53
3, 74560, Note_on_c, 0, 45, 0
3, 74560, Note_on_c, 0, 48, 46
3, 74640, Note_on_c, 0, 48, 0
3, 74640, Note_on_c, 0, 41, 63
3, 74720, Note_on_c, 0, 41, 0
3, 74720, Note_on_c, 0, 45, 53
3, 74800, Note_on_c, 0, 45, 0
3, 74800, Note_on_c, 0, 48, 47
3, 74880, Note_on_c, 0, 48, 0
3, 74880, Note_on_c, 0, 41, 63
3, 75240, Note_on_c, 0, 41, 0
3, 75240, End_track
4, 0, Start_track
4, 0, Title_t, "Pedale"
4, 0, Program_c, 0, 0
4, 29309, Control_c, 0, 64, 127
4, 29760, Control_c, 0, 64, 0
4, 34106, Control_c, 0, 64, 127
4, 34566, Control_c, 0, 64, 0
4, 36530, Control_c, 0, 64, 127
4, 36965, Control_c, 0, 64, 0
4, 37006, Control_c, 0, 64, 127
4, 37446, Control_c, 0, 64, 0
4, 37964, Control_c, 0, 64, 127
4, 38409, Control_c, 0, 64, 0
4, 40348, Control_c, 0, 64, 127
4, 40571, Control_c, 0, 64, 0
4, 40825, Control_c, 0, 64, 127
4, 41044, Control_c, 0, 64, 0
4, 41300, Control_c, 0, 64, 127
4, 41537, Control_c, 0, 64, 0
4, 41806, Control_c, 0, 64, 127
4, 42018, Control_c, 0, 64, 0
4, 42276, Control_c, 0, 64, 127
4, 42738, Control_c, 0, 64, 0
4, 42780, Control_c, 0, 64, 127
4, 43205, Control_c, 0, 64, 0
4, 43240, Control_c, 0, 64, 127
4, 43696, Control_c, 0, 64, 0
4, 43729, Control_c, 0, 64, 127
4, 44168, Control_c, 0, 64, 0
4, 75028, Control_c, 0, 64, 127
4, 75621, Control_c, 0, 64, 0
4, 75621, End_track
5, 0, Start_track
5, 0, Title_t, "Clementi: Sonatatina Opus 36, No. 4, 3. movement"
5, 0, End_track
6, 0, Start_track
6, 0, Title_t, "Copyright © 2010 by Bernd Krueger"
6, 0, End_track
7, 0, Start_track
7, 0, Title_t, "http://www.piano-midi.de/"
7, 0, End_track
8, 0, Start_track
8, 0, Title_t, "Edition: 2011-10-17"
8, 0, End_track
9, 0, Start_track
9, 0, Title_t, "Spur 8"
9, 0, End_track
10, 0, Start_track
10, 0, Title_t, "Spur 9"
10, 0, End_track
11, 0, Start_track
11, 0, Title_t, "Spur 10"
11, 0, End_track
12, 0, Start_track
12, 0, Title_t, "Spur 11"
12, 0, End_track
13, 0, Start_track
13, 0, Title_t, "Spur 12"
13, 0, End_track
14, 0, Start_track
14, 0, Title_t, "Spur 13"
14, 0, End_track
15, 0, Start_track
15, 0, Title_t, "Spur 14"
15, 0, End_track
16, 0, Start_track
16, 0, Title_t, "Spur 15"
16, 0, End_track
17, 0, Start_track
17, 0, Title_t, "Spur 16"
17, 0, End_track
0, 0, End_of_file
