0, 0, Header, 1, 17, 480
1, 0, Start_track
1, 0, Title_t, "Clementi: Sonatine Opus 36 Nr. 5, 2. Satz"
1, 0, Title_t, "Air suisse (Original)"
1, 0, Copyright_t, "Copyright © 2011 by Bernd Krueger"
1, 0, Text_t, "Muzio Clementi"
1, 0, Text_t, "Allegro moderato"
1, 0, Text_t, "Erstellt: \012"
1, 0, Text_t, "Dauer: \012"
1, 0, Time_signature, 3, 3, 12, 8
1, 0, Key_signature, 0, "major"
1, 0, Tempo, 971031
1, 120, Tempo, 1229760
1, 240, Tempo, 853606
1, 480, Tempo, 824289
1, 720, Tempo, 853606
1, 1440, Tempo, 878606
1, 1680, Tempo, 824289
1, 1920, Tempo, 853606
1, 2160, Tempo, 885086
1, 2400, Tempo, 818666
1, 2640, Tempo, 853606
1, 2880, Tempo, 878606
1, 3120, Tempo, 829990
1, 3360, Tempo, 847577
1, 3600, Tempo, 878606
1, 3840, Tempo, 847577
1, 3872, Tempo, 824289
1, 3920, Tempo, 829990
1, 3952, Tempo, 835771
1, 4000, Tempo, 841633
1, 4032, Tempo, 847577
1, 4080, Tempo, 853606
1, 4112, Tempo, 859722
1, 4160, Tempo, 865926
1, 4192, Tempo, 872220
1, 4240, Tempo, 878606
1, 4272, Tempo, 885086
1, 4304, Tempo, 891663
1, 4320, Tempo, 853606
1, 4800, Tempo, 824289
1, 5040, Tempo, 853606
1, 5760, Tempo, 872220
1, 6000, Tempo, 829990
1, 6240, Tempo, 859722
1, 6480, Tempo, 878606
1, 6720, Tempo, 835771
1, 6960, Tempo, 859722
1, 7200, Tempo, 885086
1, 7440, Tempo, 835771
1, 7680, Tempo, 859722
1, 8640, Tempo, 859722
1, 9120, Tempo, 829990
1, 9360, Tempo, 859722
1, 10080, Tempo, 898338
1, 10320, Tempo, 829990
1, 10560, Tempo, 865926
1, 10800, Tempo, 885086
1, 11040, Tempo, 835771
1, 11280, Tempo, 865926
1, 11520, Tempo, 885086
1, 11760, Tempo, 841633
1, 12000, Tempo, 865926
1, 12240, Tempo, 802246
1, 12288, Tempo, 807646
1, 12320, Tempo, 813118
1, 12368, Tempo, 818666
1, 12400, Tempo, 824289
1, 12448, Tempo, 829990
1, 12480, Tempo, 835771
1, 12528, Tempo, 841633
1, 12560, Tempo, 847577
1, 12608, Tempo, 853606
1, 12640, Tempo, 859722
1, 12688, Tempo, 865926
1, 12720, Tempo, 872220
1, 12768, Tempo, 878606
1, 12800, Tempo, 885086
1, 12848, Tempo, 891663
1, 12880, Tempo, 898338
1, 12928, Tempo, 905114
1, 12960, Tempo, 859722
1, 13440, Tempo, 829990
1, 13680, Tempo, 859722
1, 14400, Tempo, 898338
1, 14640, Tempo, 824289
1, 14880, Tempo, 859722
1, 15120, Tempo, 891663
1, 15360, Tempo, 829990
1, 15600, Tempo, 859722
1, 15840, Tempo, 885086
1, 16080, Tempo, 835771
1, 16320, Tempo, 859722
1, 16800, Tempo, 824289
1, 16920, Tempo, 971031
1, 17040, Tempo, 865926
1, 17640, Tempo, 835771
1, 17880, Tempo, 911993
1, 18000, Tempo, 835771
1, 18240, Tempo, 853606
1, 18600, Tempo, 940586
1, 18720, Tempo, 829990
1, 18960, Tempo, 847577
1, 19320, Tempo, 918977
1, 19440, Tempo, 829990
1, 19680, Tempo, 847577
1, 20040, Tempo, 911993
1, 20160, Tempo, 829990
1, 20400, Tempo, 841633
1, 20760, Tempo, 905114
1, 20880, Tempo, 829990
1, 21120, Tempo, 847577
1, 21480, Tempo, 905114
1, 21600, Tempo, 841633
1, 21960, Tempo, 818666
1, 22200, Tempo, 933271
1, 22320, Tempo, 841633
1, 22358, Tempo, 813118
1, 22422, Tempo, 818666
1, 22470, Tempo, 824289
1, 22534, Tempo, 829990
1, 22582, Tempo, 835771
1, 22646, Tempo, 841633
1, 22694, Tempo, 847577
1, 22742, Tempo, 853606
1, 22806, Tempo, 859722
1, 22854, Tempo, 865926
1, 22918, Tempo, 872220
1, 22966, Tempo, 878606
1, 23014, Tempo, 885086
1, 23040, Tempo, 865926
1, 23400, Tempo, 835771
1, 23640, Tempo, 911993
1, 23760, Tempo, 835771
1, 24000, Tempo, 853606
1, 24360, Tempo, 940586
1, 24480, Tempo, 829990
1, 24720, Tempo, 847577
1, 25080, Tempo, 918977
1, 25200, Tempo, 829990
1, 25440, Tempo, 847577
1, 25800, Tempo, 911993
1, 25920, Tempo, 829990
1, 26160, Tempo, 841633
1, 26520, Tempo, 905114
1, 26640, Tempo, 829990
1, 26880, Tempo, 847577
1, 27240, Tempo, 905114
1, 27360, Tempo, 841633
1, 27720, Tempo, 818666
1, 27960, Tempo, 933271
1, 28080, Tempo, 841633
1, 28118, Tempo, 813118
1, 28182, Tempo, 818666
1, 28230, Tempo, 824289
1, 28294, Tempo, 829990
1, 28342, Tempo, 835771
1, 28406, Tempo, 841633
1, 28454, Tempo, 847577
1, 28502, Tempo, 853606
1, 28566, Tempo, 859722
1, 28614, Tempo, 865926
1, 28678, Tempo, 872220
1, 28726, Tempo, 878606
1, 28774, Tempo, 885086
1, 28800, Tempo, 824289
1, 29040, Tempo, 865926
1, 29520, Tempo, 824289
1, 29760, Tempo, 859722
1, 30240, Tempo, 824289
1, 30480, Tempo, 853606
1, 30960, Tempo, 835771
1, 31200, Tempo, 847577
1, 31440, Tempo, 872220
1, 31680, Tempo, 824289
1, 31920, Tempo, 865926
1, 32400, Tempo, 824289
1, 32640, Tempo, 859722
1, 33120, Tempo, 835771
1, 33360, Tempo, 891663
1, 33480, Tempo, 987004
1, 33600, Tempo, 1136579
1, 33720, Tempo, 1630878
1, 33840, Tempo, 1105176
1, 34500, Tempo, 878606
1, 34512, Tempo, 885086
1, 34544, Tempo, 891663
1, 34560, Tempo, 853606
1, 35040, Tempo, 824289
1, 35280, Tempo, 853606
1, 36000, Tempo, 878606
1, 36240, Tempo, 824289
1, 36480, Tempo, 853606
1, 36720, Tempo, 885086
1, 36960, Tempo, 818666
1, 37200, Tempo, 853606
1, 37440, Tempo, 878606
1, 37680, Tempo, 829990
1, 37920, Tempo, 847577
1, 38160, Tempo, 878606
1, 38400, Tempo, 847577
1, 38432, Tempo, 824289
1, 38480, Tempo, 829990
1, 38512, Tempo, 835771
1, 38560, Tempo, 841633
1, 38592, Tempo, 847577
1, 38640, Tempo, 853606
1, 38672, Tempo, 859722
1, 38720, Tempo, 865926
1, 38752, Tempo, 872220
1, 38800, Tempo, 878606
1, 38832, Tempo, 885086
1, 38864, Tempo, 891663
1, 39360, Tempo, 829990
1, 39600, Tempo, 859722
1, 40320, Tempo, 898338
1, 40560, Tempo, 829990
1, 40800, Tempo, 865926
1, 41040, Tempo, 885086
1, 41280, Tempo, 835771
1, 41520, Tempo, 865926
1, 41760, Tempo, 885086
1, 42000, Tempo, 841633
1, 42240, Tempo, 865926
1, 42480, Tempo, 802246
1, 42528, Tempo, 807646
1, 42560, Tempo, 813118
1, 42608, Tempo, 818666
1, 42640, Tempo, 824289
1, 42688, Tempo, 829990
1, 42720, Tempo, 835771
1, 42768, Tempo, 841633
1, 42800, Tempo, 847577
1, 42848, Tempo, 853606
1, 42880, Tempo, 859722
1, 42928, Tempo, 865926
1, 42960, Tempo, 872220
1, 43008, Tempo, 878606
1, 43040, Tempo, 885086
1, 43088, Tempo, 891663
1, 43120, Tempo, 898338
1, 43168, Tempo, 905114
1, 43200, Tempo, 859722
1, 43680, Tempo, 829990
1, 43920, Tempo, 859722
1, 44640, Tempo, 898338
1, 44880, Tempo, 824289
1, 45120, Tempo, 859722
1, 45360, Tempo, 891663
1, 45600, Tempo, 829990
1, 45840, Tempo, 859722
1, 46080, Tempo, 885086
1, 46320, Tempo, 835771
1, 46560, Tempo, 859722
1, 46802, Tempo, 878606
1, 46882, Tempo, 872220
1, 46946, Tempo, 865926
1, 47010, Tempo, 859722
1, 47074, Tempo, 853606
1, 47138, Tempo, 847577
1, 47202, Tempo, 841633
1, 47266, Tempo, 835771
1, 47330, Tempo, 829990
1, 47394, Tempo, 824289
1, 47400, Tempo, 971031
1, 47460, Tempo, 898338
1, 47488, Tempo, 905114
1, 47520, Tempo, 859722
1, 48000, Tempo, 829990
1, 48240, Tempo, 859722
1, 48960, Tempo, 898338
1, 49200, Tempo, 824289
1, 49440, Tempo, 859722
1, 49680, Tempo, 891663
1, 49920, Tempo, 829990
1, 50160, Tempo, 859722
1, 50400, Tempo, 885086
1, 50640, Tempo, 835771
1, 50880, Tempo, 859722
1, 51120, Tempo, 885086
1, 51360, Tempo, 835771
1, 51600, Tempo, 859722
1, 51840, Tempo, 885086
1, 52080, Tempo, 835771
1, 52320, Tempo, 859722
1, 52560, Tempo, 885086
1, 52800, Tempo, 835771
1, 53040, Tempo, 859722
1, 54660, Tempo, 878606
1, 54672, Tempo, 885086
1, 54704, Tempo, 891663
1, 54720, Tempo, 853606
1, 55200, Tempo, 824289
1, 55440, Tempo, 853606
1, 56100, Tempo, 878606
1, 56112, Tempo, 885086
1, 56144, Tempo, 891663
1, 56160, Tempo, 853606
1, 56640, Tempo, 824289
1, 56880, Tempo, 872220
1, 57120, Tempo, 906481
1, 57360, Tempo, 942063
1, 57480, Tempo, 1013685
1, 57561, Tempo, 1013685
1, 57577, Tempo, 1022321
1, 57593, Tempo, 1031105
1, 57609, Tempo, 1040042
1, 57625, Tempo, 1049134
1, 57641, Tempo, 1058388
1, 57657, Tempo, 1067806
1, 57673, Tempo, 1077393
1, 57689, Tempo, 1087153
1, 57705, Tempo, 1097093
1, 57721, Tempo, 1107215
1, 57737, Tempo, 1117527
1, 57753, Tempo, 1128032
1, 57769, Tempo, 1138736
1, 57785, Tempo, 1149646
1, 57801, Tempo, 1160766
1, 57817, Tempo, 1149646
1, 57849, Tempo, 1160766
1, 57881, Tempo, 1172104
1, 57913, Tempo, 1183665
1, 57929, Tempo, 1195457
1, 57961, Tempo, 1207486
1, 57993, Tempo, 1219760
1, 58009, Tempo, 1232286
1, 58025, Tempo, 1373312
1, 58041, Tempo, 1389210
1, 58057, Tempo, 1405481
1, 58073, Tempo, 1439194
1, 58089, Tempo, 1456664
1, 58105, Tempo, 1492909
1, 58121, Tempo, 1511716
1, 58137, Tempo, 1550788
1, 58153, Tempo, 1571092
1, 58169, Tempo, 1613337
1, 58200, Tempo, 2128414
1, 58200, End_track
2, 0, Start_track
2, 0, Title_t, "Piano right"
2, 0, Program_c, 0, 0
2, 0, Note_on_c, 0, 72, 34
2, 30, Note_on_c, 0, 72, 0
2, 30, Note_on_c, 0, 74, 34
2, 60, Note_on_c, 0, 74, 0
2, 60, Note_on_c, 0, 76, 40
2, 480, Note_on_c, 0, 76, 0
2, 480, Note_on_c, 0, 76, 40
2, 540, Note_on_c, 0, 76, 0
2, 540, Note_on_c, 0, 74, 35
2, 600, Note_on_c, 0, 74, 0
2, 600, Note_on_c, 0, 72, 35
2, 660, Note_on_c, 0, 72, 0
2, 660, Note_on_c, 0, 74, 35
2, 720, Note_on_c, 0, 74, 0
2, 720, Note_on_c, 0, 72, 40
2, 1200, Note_on_c, 0, 72, 0
2, 1200, Note_on_c, 0, 76, 37
2, 1440, Note_on_c, 0, 76, 0
2, 1440, Note_on_c, 0, 74, 40
2, 1500, Note_on_c, 0, 74, 0
2, 1680, Note_on_c, 0, 74, 40
2, 1800, Note_on_c, 0, 74, 0
2, 1800, Note_on_c, 0, 71, 34
2, 1920, Note_on_c, 0, 71, 0
2, 1920, Note_on_c, 0, 72, 37
2, 2040, Note_on_c, 0, 72, 0
2, 2040, Note_on_c, 0, 76, 35
2, 2160, Note_on_c, 0, 76, 0
2, 2160, Note_on_c, 0, 74, 40
2, 2220, Note_on_c, 0, 74, 0
2, 2400, Note_on_c, 0, 74, 37
2, 2520, Note_on_c, 0, 74, 0
2, 2520, Note_on_c, 0, 71, 34
2, 2640, Note_on_c, 0, 71, 0
2, 2640, Note_on_c, 0, 72, 37
2, 2760, Note_on_c, 0, 72, 0
2, 2760, Note_on_c, 0, 76, 33
2, 2880, Note_on_c, 0, 76, 0
2, 2880, Note_on_c, 0, 74, 40
2, 2940, Note_on_c, 0, 74, 0
2, 3120, Note_on_c, 0, 74, 39
2, 3240, Note_on_c, 0, 74, 0
2, 3240, Note_on_c, 0, 71, 37
2, 3360, Note_on_c, 0, 71, 0
2, 3360, Note_on_c, 0, 72, 38
2, 3480, Note_on_c, 0, 72, 0
2, 3480, Note_on_c, 0, 76, 35
2, 3600, Note_on_c, 0, 76, 0
2, 3600, Note_on_c, 0, 67, 40
2, 4260, Note_on_c, 0, 67, 0
2, 4260, Note_on_c, 0, 72, 34
2, 4290, Note_on_c, 0, 72, 0
2, 4290, Note_on_c, 0, 74, 34
2, 4320, Note_on_c, 0, 76, 40
2, 4350, Note_on_c, 0, 74, 0
2, 4800, Note_on_c, 0, 76, 0
2, 4800, Note_on_c, 0, 76, 40
2, 4860, Note_on_c, 0, 76, 0
2, 4860, Note_on_c, 0, 74, 35
2, 4920, Note_on_c, 0, 74, 0
2, 4920, Note_on_c, 0, 72, 35
2, 4980, Note_on_c, 0, 72, 0
2, 4980, Note_on_c, 0, 74, 35
2, 5040, Note_on_c, 0, 74, 0
2, 5040, Note_on_c, 0, 72, 40
2, 5520, Note_on_c, 0, 72, 0
2, 5520, Note_on_c, 0, 76, 37
2, 5760, Note_on_c, 0, 76, 0
2, 5760, Note_on_c, 0, 74, 40
2, 5820, Note_on_c, 0, 74, 0
2, 6000, Note_on_c, 0, 74, 40
2, 6120, Note_on_c, 0, 74, 0
2, 6120, Note_on_c, 0, 71, 34
2, 6240, Note_on_c, 0, 71, 0
2, 6240, Note_on_c, 0, 72, 37
2, 6360, Note_on_c, 0, 72, 0
2, 6360, Note_on_c, 0, 76, 35
2, 6480, Note_on_c, 0, 76, 0
2, 6480, Note_on_c, 0, 74, 40
2, 6540, Note_on_c, 0, 74, 0
2, 6690, Note_on_c, 0, 76, 35
2, 6720, Note_on_c, 0, 76, 0
2, 6720, Note_on_c, 0, 74, 37
2, 6840, Note_on_c, 0, 74, 0
2, 6840, Note_on_c, 0, 72, 34
2, 6960, Note_on_c, 0, 72, 0
2, 6960, Note_on_c, 0, 74, 37
2, 7080, Note_on_c, 0, 74, 0
2, 7080, Note_on_c, 0, 76, 33
2, 7200, Note_on_c, 0, 76, 0
2, 7200, Note_on_c, 0, 74, 40
2, 7260, Note_on_c, 0, 74, 0
2, 7410, Note_on_c, 0, 76, 35
2, 7440, Note_on_c, 0, 76, 0
2, 7440, Note_on_c, 0, 74, 39
2, 7560, Note_on_c, 0, 74, 0
2, 7560, Note_on_c, 0, 72, 37
2, 7680, Note_on_c, 0, 72, 0
2, 7680, Note_on_c, 0, 74, 38
2, 7800, Note_on_c, 0, 74, 0
2, 7800, Note_on_c, 0, 76, 35
2, 7920, Note_on_c, 0, 76, 0
2, 7920, Note_on_c, 0, 72, 40
2, 8580, Note_on_c, 0, 72, 0
2, 8580, Note_on_c, 0, 72, 27
2, 8610, Note_on_c, 0, 72, 0
2, 8610, Note_on_c, 0, 74, 27
2, 8640, Note_on_c, 0, 74, 0
2, 8640, Note_on_c, 0, 76, 32
2, 9120, Note_on_c, 0, 76, 0
2, 9120, Note_on_c, 0, 76, 32
2, 9180, Note_on_c, 0, 76, 0
2, 9180, Note_on_c, 0, 74, 28
2, 9240, Note_on_c, 0, 74, 0
2, 9240, Note_on_c, 0, 72, 28
2, 9300, Note_on_c, 0, 72, 0
2, 9300, Note_on_c, 0, 74, 28
2, 9360, Note_on_c, 0, 74, 0
2, 9360, Note_on_c, 0, 72, 32
2, 9840, Note_on_c, 0, 72, 0
2, 9840, Note_on_c, 0, 76, 29
2, 10080, Note_on_c, 0, 76, 0
2, 10080, Note_on_c, 0, 74, 32
2, 10140, Note_on_c, 0, 74, 0
2, 10320, Note_on_c, 0, 74, 32
2, 10440, Note_on_c, 0, 74, 0
2, 10440, Note_on_c, 0, 71, 27
2, 10560, Note_on_c, 0, 71, 0
2, 10560, Note_on_c, 0, 72, 29
2, 10680, Note_on_c, 0, 72, 0
2, 10680, Note_on_c, 0, 76, 28
2, 10800, Note_on_c, 0, 76, 0
2, 10800, Note_on_c, 0, 74, 32
2, 10860, Note_on_c, 0, 74, 0
2, 11040, Note_on_c, 0, 74, 29
2, 11160, Note_on_c, 0, 74, 0
2, 11160, Note_on_c, 0, 71, 27
2, 11280, Note_on_c, 0, 71, 0
2, 11280, Note_on_c, 0, 72, 29
2, 11400, Note_on_c, 0, 72, 0
2, 11400, Note_on_c, 0, 76, 26
2, 11520, Note_on_c, 0, 76, 0
2, 11520, Note_on_c, 0, 74, 32
2, 11580, Note_on_c, 0, 74, 0
2, 11760, Note_on_c, 0, 74, 31
2, 11880, Note_on_c, 0, 74, 0
2, 11880, Note_on_c, 0, 71, 29
2, 12000, Note_on_c, 0, 71, 0
2, 12000, Note_on_c, 0, 72, 30
2, 12120, Note_on_c, 0, 72, 0
2, 12120, Note_on_c, 0, 76, 28
2, 12240, Note_on_c, 0, 76, 0
2, 12240, Note_on_c, 0, 67, 32
2, 12900, Note_on_c, 0, 67, 0
2, 12900, Note_on_c, 0, 72, 51
2, 12930, Note_on_c, 0, 72, 0
2, 12930, Note_on_c, 0, 74, 51
2, 12960, Note_on_c, 0, 74, 0
2, 12960, Note_on_c, 0, 76, 64
2, 13440, Note_on_c, 0, 76, 0
2, 13440, Note_on_c, 0, 76, 60
2, 13500, Note_on_c, 0, 76, 0
2, 13500, Note_on_c, 0, 74, 52
2, 13560, Note_on_c, 0, 74, 0
2, 13560, Note_on_c, 0, 72, 52
2, 13620, Note_on_c, 0, 72, 0
2, 13620, Note_on_c, 0, 74, 52
2, 13680, Note_on_c, 0, 74, 0
2, 13680, Note_on_c, 0, 72, 60
2, 14100, Note_on_c, 0, 72, 0
2, 14100, Note_on_c, 0, 72, 53
2, 14130, Note_on_c, 0, 72, 0
2, 14130, Note_on_c, 0, 74, 56
2, 14160, Note_on_c, 0, 74, 0
2, 14160, Note_on_c, 0, 76, 61
2, 14400, Note_on_c, 0, 76, 0
2, 14400, Note_on_c, 0, 74, 60
2, 14460, Note_on_c, 0, 74, 0
2, 14640, Note_on_c, 0, 74, 60
2, 14760, Note_on_c, 0, 74, 0
2, 14760, Note_on_c, 0, 71, 51
2, 14880, Note_on_c, 0, 71, 0
2, 14880, Note_on_c, 0, 72, 55
2, 15000, Note_on_c, 0, 72, 0
2, 15000, Note_on_c, 0, 76, 52
2, 15120, Note_on_c, 0, 76, 0
2, 15120, Note_on_c, 0, 74, 60
2, 15180, Note_on_c, 0, 74, 0
2, 15330, Note_on_c, 0, 76, 52
2, 15360, Note_on_c, 0, 76, 0
2, 15360, Note_on_c, 0, 74, 55
2, 15480, Note_on_c, 0, 74, 0
2, 15480, Note_on_c, 0, 72, 51
2, 15600, Note_on_c, 0, 72, 0
2, 15600, Note_on_c, 0, 74, 55
2, 15720, Note_on_c, 0, 74, 0
2, 15720, Note_on_c, 0, 76, 49
2, 15840, Note_on_c, 0, 76, 0
2, 15840, Note_on_c, 0, 74, 60
2, 15900, Note_on_c, 0, 74, 0
2, 16050, Note_on_c, 0, 76, 52
2, 16080, Note_on_c, 0, 76, 0
2, 16080, Note_on_c, 0, 74, 58
2, 16200, Note_on_c, 0, 74, 0
2, 16200, Note_on_c, 0, 72, 55
2, 16320, Note_on_c, 0, 72, 0
2, 16320, Note_on_c, 0, 74, 57
2, 16440, Note_on_c, 0, 74, 0
2, 16440, Note_on_c, 0, 76, 52
2, 16560, Note_on_c, 0, 76, 0
2, 16560, Note_on_c, 0, 72, 60
2, 17280, Note_on_c, 0, 72, 0
2, 17280, Note_on_c, 0, 72, 40
2, 17520, Note_on_c, 0, 72, 0
2, 17520, Note_on_c, 0, 72, 35
2, 17640, Note_on_c, 0, 72, 0
2, 17640, Note_on_c, 0, 74, 35
2, 17760, Note_on_c, 0, 74, 0
2, 17760, Note_on_c, 0, 76, 35
2, 17880, Note_on_c, 0, 76, 0
2, 17880, Note_on_c, 0, 77, 35
2, 18000, Note_on_c, 0, 77, 0
2, 18000, Note_on_c, 0, 79, 40
2, 18240, Note_on_c, 0, 79, 0
2, 18240, Note_on_c, 0, 76, 33
2, 18480, Note_on_c, 0, 76, 0
2, 18480, Note_on_c, 0, 79, 35
2, 18720, Note_on_c, 0, 79, 0
2, 18720, Note_on_c, 0, 81, 40
2, 18960, Note_on_c, 0, 81, 0
2, 18960, Note_on_c, 0, 77, 35
2, 19200, Note_on_c, 0, 77, 0
2, 19200, Note_on_c, 0, 81, 35
2, 19440, Note_on_c, 0, 81, 0
2, 19440, Note_on_c, 0, 79, 40
2, 19680, Note_on_c, 0, 79, 0
2, 19680, Note_on_c, 0, 76, 35
2, 19920, Note_on_c, 0, 76, 0
2, 19920, Note_on_c, 0, 79, 33
2, 20160, Note_on_c, 0, 79, 0
2, 20160, Note_on_c, 0, 77, 40
2, 20400, Note_on_c, 0, 77, 0
2, 20400, Note_on_c, 0, 74, 36
2, 20640, Note_on_c, 0, 74, 0
2, 20640, Note_on_c, 0, 77, 36
2, 20880, Note_on_c, 0, 77, 0
2, 20880, Note_on_c, 0, 76, 40
2, 21120, Note_on_c, 0, 76, 0
2, 21120, Note_on_c, 0, 72, 36
2, 21360, Note_on_c, 0, 72, 0
2, 21360, Note_on_c, 0, 76, 36
2, 21600, Note_on_c, 0, 76, 0
2, 21600, Note_on_c, 0, 74, 40
2, 21720, Note_on_c, 0, 74, 0
2, 21810, Note_on_c, 0, 76, 36
2, 21840, Note_on_c, 0, 76, 0
2, 21840, Note_on_c, 0, 74, 40
2, 21960, Note_on_c, 0, 74, 0
2, 21960, Note_on_c, 0, 72, 34
2, 22080, Note_on_c, 0, 72, 0
2, 22080, Note_on_c, 0, 74, 37
2, 22200, Note_on_c, 0, 74, 0
2, 22200, Note_on_c, 0, 76, 35
2, 22320, Note_on_c, 0, 76, 0
2, 22320, Note_on_c, 0, 72, 40
2, 23040, Note_on_c, 0, 72, 0
2, 23040, Note_on_c, 0, 72, 60
2, 23280, Note_on_c, 0, 72, 0
2, 23280, Note_on_c, 0, 72, 52
2, 23400, Note_on_c, 0, 72, 0
2, 23400, Note_on_c, 0, 74, 52
2, 23520, Note_on_c, 0, 74, 0
2, 23520, Note_on_c, 0, 76, 52
2, 23640, Note_on_c, 0, 76, 0
2, 23640, Note_on_c, 0, 77, 52
2, 23760, Note_on_c, 0, 77, 0
2, 23760, Note_on_c, 0, 79, 60
2, 24000, Note_on_c, 0, 79, 0
2, 24000, Note_on_c, 0, 76, 49
2, 24240, Note_on_c, 0, 76, 0
2, 24240, Note_on_c, 0, 79, 52
2, 24420, Note_on_c, 0, 79, 0
2, 24420, Note_on_c, 0, 77, 55
2, 24450, Note_on_c, 0, 77, 0
2, 24450, Note_on_c, 0, 79, 55
2, 24480, Note_on_c, 0, 79, 0
2, 24480, Note_on_c, 0, 81, 60
2, 24720, Note_on_c, 0, 81, 0
2, 24720, Note_on_c, 0, 77, 52
2, 24960, Note_on_c, 0, 77, 0
2, 24960, Note_on_c, 0, 81, 52
2, 25200, Note_on_c, 0, 81, 0
2, 25200, Note_on_c, 0, 81, 61
2, 25320, Note_on_c, 0, 81, 0
2, 25320, Note_on_c, 0, 79, 57
2, 25440, Note_on_c, 0, 79, 0
2, 25440, Note_on_c, 0, 76, 52
2, 25680, Note_on_c, 0, 76, 0
2, 25680, Note_on_c, 0, 79, 49
2, 25920, Note_on_c, 0, 79, 0
2, 25920, Note_on_c, 0, 79, 61
2, 26040, Note_on_c, 0, 79, 0
2, 26040, Note_on_c, 0, 77, 57
2, 26160, Note_on_c, 0, 77, 0
2, 26160, Note_on_c, 0, 74, 54
2, 26400, Note_on_c, 0, 74, 0
2, 26400, Note_on_c, 0, 77, 54
2, 26640, Note_on_c, 0, 77, 0
2, 26640, Note_on_c, 0, 77, 60
2, 26760, Note_on_c, 0, 77, 0
2, 26760, Note_on_c, 0, 76, 58
2, 26880, Note_on_c, 0, 76, 0
2, 26880, Note_on_c, 0, 72, 54
2, 27120, Note_on_c, 0, 72, 0
2, 27120, Note_on_c, 0, 76, 54
2, 27360, Note_on_c, 0, 76, 0
2, 27360, Note_on_c, 0, 76, 60
2, 27480, Note_on_c, 0, 76, 0
2, 27480, Note_on_c, 0, 74, 57
2, 27570, Note_on_c, 0, 74, 0
2, 27570, Note_on_c, 0, 76, 54
2, 27600, Note_on_c, 0, 76, 0
2, 27600, Note_on_c, 0, 74, 60
2, 27720, Note_on_c, 0, 74, 0
2, 27720, Note_on_c, 0, 72, 51
2, 27840, Note_on_c, 0, 72, 0
2, 27840, Note_on_c, 0, 74, 55
2, 27960, Note_on_c, 0, 74, 0
2, 27960, Note_on_c, 0, 76, 52
2, 28080, Note_on_c, 0, 76, 0
2, 28080, Note_on_c, 0, 72, 60
2, 28800, Note_on_c, 0, 72, 0
2, 28800, Note_on_c, 0, 79, 40
2, 28920, Note_on_c, 0, 79, 0
2, 28920, Note_on_c, 0, 77, 33
2, 29040, Note_on_c, 0, 77, 0
2, 29040, Note_on_c, 0, 74, 40
2, 29100, Note_on_c, 0, 74, 0
2, 29280, Note_on_c, 0, 74, 38
2, 29340, Note_on_c, 0, 74, 0
2, 29520, Note_on_c, 0, 77, 40
2, 29640, Note_on_c, 0, 77, 0
2, 29640, Note_on_c, 0, 76, 34
2, 29760, Note_on_c, 0, 76, 0
2, 29760, Note_on_c, 0, 72, 40
2, 29820, Note_on_c, 0, 72, 0
2, 30000, Note_on_c, 0, 72, 35
2, 30060, Note_on_c, 0, 72, 0
2, 30240, Note_on_c, 0, 76, 40
2, 30360, Note_on_c, 0, 76, 0
2, 30360, Note_on_c, 0, 74, 34
2, 30480, Note_on_c, 0, 74, 0
2, 30480, Note_on_c, 0, 71, 40
2, 30540, Note_on_c, 0, 71, 0
2, 30720, Note_on_c, 0, 71, 38
2, 30780, Note_on_c, 0, 71, 0
2, 30960, Note_on_c, 0, 72, 40
2, 31020, Note_on_c, 0, 72, 0
2, 31020, Note_on_c, 0, 74, 35
2, 31080, Note_on_c, 0, 74, 0
2, 31080, Note_on_c, 0, 72, 37
2, 31140, Note_on_c, 0, 72, 0
2, 31140, Note_on_c, 0, 71, 37
2, 31200, Note_on_c, 0, 71, 0
2, 31200, Note_on_c, 0, 72, 41
2, 31320, Note_on_c, 0, 72, 0
2, 31320, Note_on_c, 0, 74, 35
2, 31440, Note_on_c, 0, 74, 0
2, 31440, Note_on_c, 0, 76, 37
2, 31560, Note_on_c, 0, 76, 0
2, 31560, Note_on_c, 0, 77, 44
2, 31680, Note_on_c, 0, 77, 0
2, 31680, Note_on_c, 0, 79, 40
2, 31800, Note_on_c, 0, 79, 0
2, 31800, Note_on_c, 0, 77, 33
2, 31920, Note_on_c, 0, 77, 0
2, 31920, Note_on_c, 0, 74, 40
2, 31980, Note_on_c, 0, 74, 0
2, 32160, Note_on_c, 0, 74, 38
2, 32220, Note_on_c, 0, 74, 0
2, 32400, Note_on_c, 0, 77, 40
2, 32520, Note_on_c, 0, 77, 0
2, 32520, Note_on_c, 0, 76, 34
2, 32640, Note_on_c, 0, 76, 0
2, 32640, Note_on_c, 0, 72, 40
2, 32700, Note_on_c, 0, 72, 0
2, 32880, Note_on_c, 0, 72, 35
2, 32940, Note_on_c, 0, 72, 0
2, 33120, Note_on_c, 0, 72, 40
2, 33180, Note_on_c, 0, 72, 0
2, 33180, Note_on_c, 0, 74, 35
2, 33240, Note_on_c, 0, 74, 0
2, 33240, Note_on_c, 0, 72, 37
2, 33300, Note_on_c, 0, 72, 0
2, 33300, Note_on_c, 0, 71, 37
2, 33360, Note_on_c, 0, 71, 0
2, 33360, Note_on_c, 0, 72, 41
2, 33480, Note_on_c, 0, 72, 0
2, 33480, Note_on_c, 0, 74, 35
2, 33600, Note_on_c, 0, 74, 0
2, 33600, Note_on_c, 0, 76, 37
2, 33720, Note_on_c, 0, 76, 0
2, 33720, Note_on_c, 0, 78, 44
2, 33840, Note_on_c, 0, 78, 0
2, 33840, Note_on_c, 0, 71, 34
2, 33840, Note_on_c, 0, 79, 41
2, 34500, Note_on_c, 0, 72, 34
2, 34530, Note_on_c, 0, 72, 0
2, 34530, Note_on_c, 0, 74, 34
2, 34560, Note_on_c, 0, 79, 0
2, 34560, Note_on_c, 0, 71, 0
2, 34560, Note_on_c, 0, 76, 40
2, 34590, Note_on_c, 0, 74, 0
2, 35040, Note_on_c, 0, 76, 0
2, 35040, Note_on_c, 0, 76, 40
2, 35100, Note_on_c, 0, 76, 0
2, 35100, Note_on_c, 0, 74, 35
2, 35160, Note_on_c, 0, 74, 0
2, 35160, Note_on_c, 0, 72, 35
2, 35220, Note_on_c, 0, 72, 0
2, 35220, Note_on_c, 0, 74, 35
2, 35280, Note_on_c, 0, 74, 0
2, 35280, Note_on_c, 0, 72, 40
2, 35760, Note_on_c, 0, 72, 0
2, 35760, Note_on_c, 0, 76, 37
2, 36000, Note_on_c, 0, 76, 0
2, 36000, Note_on_c, 0, 74, 40
2, 36060, Note_on_c, 0, 74, 0
2, 36240, Note_on_c, 0, 74, 40
2, 36360, Note_on_c, 0, 74, 0
2, 36360, Note_on_c, 0, 71, 34
2, 36480, Note_on_c, 0, 71, 0
2, 36480, Note_on_c, 0, 72, 37
2, 36600, Note_on_c, 0, 72, 0
2, 36600, Note_on_c, 0, 76, 35
2, 36720, Note_on_c, 0, 76, 0
2, 36720, Note_on_c, 0, 74, 40
2, 36780, Note_on_c, 0, 74, 0
2, 36960, Note_on_c, 0, 74, 37
2, 37080, Note_on_c, 0, 74, 0
2, 37080, Note_on_c, 0, 71, 34
2, 37200, Note_on_c, 0, 71, 0
2, 37200, Note_on_c, 0, 72, 37
2, 37320, Note_on_c, 0, 72, 0
2, 37320, Note_on_c, 0, 76, 33
2, 37440, Note_on_c, 0, 76, 0
2, 37440, Note_on_c, 0, 74, 40
2, 37500, Note_on_c, 0, 74, 0
2, 37680, Note_on_c, 0, 74, 39
2, 37800, Note_on_c, 0, 74, 0
2, 37800, Note_on_c, 0, 71, 37
2, 37920, Note_on_c, 0, 71, 0
2, 37920, Note_on_c, 0, 72, 38
2, 38040, Note_on_c, 0, 72, 0
2, 38040, Note_on_c, 0, 76, 35
2, 38160, Note_on_c, 0, 76, 0
2, 38160, Note_on_c, 0, 67, 40
2, 38820, Note_on_c, 0, 67, 0
2, 38820, Note_on_c, 0, 72, 34
2, 38850, Note_on_c, 0, 72, 0
2, 38850, Note_on_c, 0, 74, 34
2, 38880, Note_on_c, 0, 76, 32
2, 38910, Note_on_c, 0, 74, 0
2, 39360, Note_on_c, 0, 76, 0
2, 39360, Note_on_c, 0, 76, 32
2, 39420, Note_on_c, 0, 76, 0
2, 39420, Note_on_c, 0, 74, 28
2, 39480, Note_on_c, 0, 74, 0
2, 39480, Note_on_c, 0, 72, 28
2, 39540, Note_on_c, 0, 72, 0
2, 39540, Note_on_c, 0, 74, 28
2, 39600, Note_on_c, 0, 74, 0
2, 39600, Note_on_c, 0, 72, 32
2, 40080, Note_on_c, 0, 72, 0
2, 40080, Note_on_c, 0, 76, 29
2, 40320, Note_on_c, 0, 76, 0
2, 40320, Note_on_c, 0, 74, 32
2, 40380, Note_on_c, 0, 74, 0
2, 40560, Note_on_c, 0, 74, 32
2, 40680, Note_on_c, 0, 74, 0
2, 40680, Note_on_c, 0, 71, 27
2, 40800, Note_on_c, 0, 71, 0
2, 40800, Note_on_c, 0, 72, 29
2, 40920, Note_on_c, 0, 72, 0
2, 40920, Note_on_c, 0, 76, 28
2, 41040, Note_on_c, 0, 76, 0
2, 41040, Note_on_c, 0, 74, 32
2, 41100, Note_on_c, 0, 74, 0
2, 41250, Note_on_c, 0, 76, 29
2, 41280, Note_on_c, 0, 76, 0
2, 41280, Note_on_c, 0, 74, 29
2, 41400, Note_on_c, 0, 74, 0
2, 41400, Note_on_c, 0, 72, 27
2, 41520, Note_on_c, 0, 72, 0
2, 41520, Note_on_c, 0, 74, 29
2, 41640, Note_on_c, 0, 74, 0
2, 41640, Note_on_c, 0, 76, 26
2, 41760, Note_on_c, 0, 76, 0
2, 41760, Note_on_c, 0, 74, 32
2, 41820, Note_on_c, 0, 74, 0
2, 41970, Note_on_c, 0, 76, 29
2, 42000, Note_on_c, 0, 76, 0
2, 42000, Note_on_c, 0, 74, 31
2, 42120, Note_on_c, 0, 74, 0
2, 42120, Note_on_c, 0, 72, 29
2, 42240, Note_on_c, 0, 72, 0
2, 42240, Note_on_c, 0, 74, 30
2, 42360, Note_on_c, 0, 74, 0
2, 42360, Note_on_c, 0, 76, 28
2, 42480, Note_on_c, 0, 76, 0
2, 42480, Note_on_c, 0, 72, 32
2, 43140, Note_on_c, 0, 72, 0
2, 43140, Note_on_c, 0, 84, 61
2, 43170, Note_on_c, 0, 84, 0
2, 43170, Note_on_c, 0, 86, 66
2, 43200, Note_on_c, 0, 86, 0
2, 43200, Note_on_c, 0, 88, 74
2, 43680, Note_on_c, 0, 88, 0
2, 43680, Note_on_c, 0, 88, 69
2, 43740, Note_on_c, 0, 88, 0
2, 43740, Note_on_c, 0, 86, 59
2, 43800, Note_on_c, 0, 86, 0
2, 43800, Note_on_c, 0, 84, 59
2, 43860, Note_on_c, 0, 84, 0
2, 43860, Note_on_c, 0, 86, 59
2, 43920, Note_on_c, 0, 86, 0
2, 43920, Note_on_c, 0, 84, 69
2, 44340, Note_on_c, 0, 84, 0
2, 44340, Note_on_c, 0, 84, 60
2, 44370, Note_on_c, 0, 84, 0
2, 44370, Note_on_c, 0, 86, 64
2, 44400, Note_on_c, 0, 86, 0
2, 44400, Note_on_c, 0, 88, 70
2, 44640, Note_on_c, 0, 88, 0
2, 44640, Note_on_c, 0, 86, 69
2, 44700, Note_on_c, 0, 86, 0
2, 44880, Note_on_c, 0, 86, 69
2, 45000, Note_on_c, 0, 86, 0
2, 45000, Note_on_c, 0, 83, 58
2, 45120, Note_on_c, 0, 83, 0
2, 45120, Note_on_c, 0, 84, 63
2, 45240, Note_on_c, 0, 84, 0
2, 45240, Note_on_c, 0, 88, 59
2, 45360, Note_on_c, 0, 88, 0
2, 45360, Note_on_c, 0, 86, 69
2, 45420, Note_on_c, 0, 86, 0
2, 45600, Note_on_c, 0, 86, 63
2, 45720, Note_on_c, 0, 86, 0
2, 45720, Note_on_c, 0, 83, 58
2, 45840, Note_on_c, 0, 83, 0
2, 45840, Note_on_c, 0, 84, 63
2, 45960, Note_on_c, 0, 84, 0
2, 45960, Note_on_c, 0, 88, 56
2, 46080, Note_on_c, 0, 88, 0
2, 46080, Note_on_c, 0, 86, 69
2, 46140, Note_on_c, 0, 86, 0
2, 46320, Note_on_c, 0, 86, 66
2, 46440, Note_on_c, 0, 86, 0
2, 46440, Note_on_c, 0, 83, 63
2, 46560, Note_on_c, 0, 83, 0
2, 46560, Note_on_c, 0, 84, 65
2, 46680, Note_on_c, 0, 84, 0
2, 46680, Note_on_c, 0, 88, 59
2, 46800, Note_on_c, 0, 88, 0
2, 46800, Note_on_c, 0, 79, 69
2, 47460, Note_on_c, 0, 84, 63
2, 47490, Note_on_c, 0, 84, 0
2, 47490, Note_on_c, 0, 86, 67
2, 47520, Note_on_c, 0, 86, 0
2, 47520, Note_on_c, 0, 79, 0
2, 47520, Note_on_c, 0, 88, 76
2, 48000, Note_on_c, 0, 88, 0
2, 48000, Note_on_c, 0, 88, 69
2, 48060, Note_on_c, 0, 88, 0
2, 48060, Note_on_c, 0, 86, 59
2, 48120, Note_on_c, 0, 86, 0
2, 48120, Note_on_c, 0, 84, 59
2, 48180, Note_on_c, 0, 84, 0
2, 48180, Note_on_c, 0, 86, 59
2, 48240, Note_on_c, 0, 86, 0
2, 48240, Note_on_c, 0, 84, 69
2, 48660, Note_on_c, 0, 84, 0
2, 48660, Note_on_c, 0, 84, 60
2, 48690, Note_on_c, 0, 84, 0
2, 48690, Note_on_c, 0, 86, 64
2, 48720, Note_on_c, 0, 86, 0
2, 48720, Note_on_c, 0, 88, 70
2, 48960, Note_on_c, 0, 88, 0
2, 48960, Note_on_c, 0, 86, 69
2, 49020, Note_on_c, 0, 86, 0
2, 49200, Note_on_c, 0, 86, 69
2, 49320, Note_on_c, 0, 86, 0
2, 49320, Note_on_c, 0, 83, 58
2, 49440, Note_on_c, 0, 83, 0
2, 49440, Note_on_c, 0, 84, 63
2, 49560, Note_on_c, 0, 84, 0
2, 49560, Note_on_c, 0, 88, 59
2, 49680, Note_on_c, 0, 88, 0
2, 49680, Note_on_c, 0, 86, 69
2, 49740, Note_on_c, 0, 86, 0
2, 49890, Note_on_c, 0, 88, 58
2, 49920, Note_on_c, 0, 88, 0
2, 49920, Note_on_c, 0, 86, 63
2, 50040, Note_on_c, 0, 86, 0
2, 50040, Note_on_c, 0, 84, 58
2, 50160, Note_on_c, 0, 84, 0
2, 50160, Note_on_c, 0, 86, 63
2, 50280, Note_on_c, 0, 86, 0
2, 50280, Note_on_c, 0, 88, 56
2, 50400, Note_on_c, 0, 88, 0
2, 50400, Note_on_c, 0, 86, 69
2, 50460, Note_on_c, 0, 86, 0
2, 50610, Note_on_c, 0, 88, 58
2, 50640, Note_on_c, 0, 88, 0
2, 50640, Note_on_c, 0, 86, 66
2, 50760, Note_on_c, 0, 86, 0
2, 50760, Note_on_c, 0, 84, 63
2, 50880, Note_on_c, 0, 84, 0
2, 50880, Note_on_c, 0, 86, 65
2, 51000, Note_on_c, 0, 86, 0
2, 51000, Note_on_c, 0, 88, 59
2, 51120, Note_on_c, 0, 88, 0
2, 51120, Note_on_c, 0, 84, 69
2, 51180, Note_on_c, 0, 84, 0
2, 51330, Note_on_c, 0, 86, 58
2, 51360, Note_on_c, 0, 86, 0
2, 51360, Note_on_c, 0, 84, 66
2, 51480, Note_on_c, 0, 84, 0
2, 51480, Note_on_c, 0, 83, 63
2, 51600, Note_on_c, 0, 83, 0
2, 51600, Note_on_c, 0, 84, 65
2, 51720, Note_on_c, 0, 84, 0
2, 51720, Note_on_c, 0, 88, 59
2, 51840, Note_on_c, 0, 88, 0
2, 51840, Note_on_c, 0, 79, 69
2, 51900, Note_on_c, 0, 79, 0
2, 52050, Note_on_c, 0, 81, 58
2, 52080, Note_on_c, 0, 81, 0
2, 52080, Note_on_c, 0, 79, 66
2, 52200, Note_on_c, 0, 79, 0
2, 52200, Note_on_c, 0, 78, 63
2, 52320, Note_on_c, 0, 78, 0
2, 52320, Note_on_c, 0, 79, 65
2, 52440, Note_on_c, 0, 79, 0
2, 52440, Note_on_c, 0, 84, 59
2, 52560, Note_on_c, 0, 84, 0
2, 52560, Note_on_c, 0, 76, 69
2, 52620, Note_on_c, 0, 76, 0
2, 52770, Note_on_c, 0, 77, 58
2, 52800, Note_on_c, 0, 77, 0
2, 52800, Note_on_c, 0, 76, 66
2, 52920, Note_on_c, 0, 76, 0
2, 52920, Note_on_c, 0, 74, 63
2, 53040, Note_on_c, 0, 74, 0
2, 53040, Note_on_c, 0, 76, 65
2, 53160, Note_on_c, 0, 76, 0
2, 53160, Note_on_c, 0, 79, 59
2, 53280, Note_on_c, 0, 79, 0
2, 53280, Note_on_c, 0, 72, 69
2, 53400, Note_on_c, 0, 72, 0
2, 53520, Note_on_c, 0, 72, 69
2, 53640, Note_on_c, 0, 72, 0
2, 53760, Note_on_c, 0, 72, 69
2, 53880, Note_on_c, 0, 72, 0
2, 54000, Note_on_c, 0, 72, 69
2, 54660, Note_on_c, 0, 60, 37
2, 54690, Note_on_c, 0, 60, 0
2, 54690, Note_on_c, 0, 62, 37
2, 54720, Note_on_c, 0, 72, 0
2, 54720, Note_on_c, 0, 64, 44
2, 54750, Note_on_c, 0, 62, 0
2, 55200, Note_on_c, 0, 64, 0
2, 55200, Note_on_c, 0, 64, 44
2, 55260, Note_on_c, 0, 64, 0
2, 55260, Note_on_c, 0, 62, 38
2, 55320, Note_on_c, 0, 62, 0
2, 55320, Note_on_c, 0, 60, 38
2, 55380, Note_on_c, 0, 60, 0
2, 55380, Note_on_c, 0, 62, 38
2, 55440, Note_on_c, 0, 62, 0
2, 55440, Note_on_c, 0, 60, 44
2, 55680, Note_on_c, 0, 60, 0
2, 55680, Note_on_c, 0, 55, 34
2, 55740, Note_on_c, 0, 55, 0
2, 55920, Note_on_c, 0, 55, 34
2, 55980, Note_on_c, 0, 55, 0
2, 56100, Note_on_c, 0, 60, 35
2, 56130, Note_on_c, 0, 60, 0
2, 56130, Note_on_c, 0, 62, 35
2, 56160, Note_on_c, 0, 64, 42
2, 56190, Note_on_c, 0, 62, 0
2, 56640, Note_on_c, 0, 64, 0
2, 56640, Note_on_c, 0, 64, 34
2, 56700, Note_on_c, 0, 64, 0
2, 56700, Note_on_c, 0, 62, 29
2, 56760, Note_on_c, 0, 62, 0
2, 56760, Note_on_c, 0, 60, 29
2, 56820, Note_on_c, 0, 60, 0
2, 56820, Note_on_c, 0, 62, 28
2, 56880, Note_on_c, 0, 62, 0
2, 56880, Note_on_c, 0, 60, 32
2, 57120, Note_on_c, 0, 60, 0
2, 57600, Note_on_c, 0, 52, 22
2, 57600, Note_on_c, 0, 55, 25
2, 57840, Note_on_c, 0, 55, 0
2, 57840, Note_on_c, 0, 52, 0
2, 58320, Note_on_c, 0, 52, 19
2, 58320, Note_on_c, 0, 60, 22
2, 58560, Note_on_c, 0, 60, 0
2, 58560, Note_on_c, 0, 52, 0
2, 58560, End_track
3, 0, Start_track
3, 0, Title_t, "Piano left"
3, 0, Program_c, 0, 0
3, 60, Note_on_c, 0, 48, 30
3, 240, Note_on_c, 0, 48, 0
3, 240, Note_on_c, 0, 55, 24
3, 480, Note_on_c, 0, 55, 0
3, 480, Note_on_c, 0, 60, 24
3, 720, Note_on_c, 0, 60, 0
3, 720, Note_on_c, 0, 48, 30
3, 960, Note_on_c, 0, 48, 0
3, 960, Note_on_c, 0, 55, 25
3, 1200, Note_on_c, 0, 55, 0
3, 1200, Note_on_c, 0, 60, 25
3, 1440, Note_on_c, 0, 60, 0
3, 1440, Note_on_c, 0, 48, 30
3, 1680, Note_on_c, 0, 48, 0
3, 1680, Note_on_c, 0, 55, 25
3, 1920, Note_on_c, 0, 55, 0
3, 1920, Note_on_c, 0, 60, 25
3, 2160, Note_on_c, 0, 60, 0
3, 2160, Note_on_c, 0, 48, 30
3, 2400, Note_on_c, 0, 48, 0
3, 2400, Note_on_c, 0, 55, 26
3, 2640, Note_on_c, 0, 55, 0
3, 2640, Note_on_c, 0, 60, 26
3, 2880, Note_on_c, 0, 60, 0
3, 2880, Note_on_c, 0, 48, 30
3, 3120, Note_on_c, 0, 48, 0
3, 3120, Note_on_c, 0, 55, 25
3, 3360, Note_on_c, 0, 55, 0
3, 3360, Note_on_c, 0, 60, 25
3, 3600, Note_on_c, 0, 60, 0
3, 3600, Note_on_c, 0, 43, 30
3, 3840, Note_on_c, 0, 43, 0
3, 3840, Note_on_c, 0, 55, 32
3, 3960, Note_on_c, 0, 55, 0
3, 3960, Note_on_c, 0, 53, 26
3, 4080, Note_on_c, 0, 53, 0
3, 4080, Note_on_c, 0, 52, 31
3, 4200, Note_on_c, 0, 52, 0
3, 4200, Note_on_c, 0, 50, 29
3, 4320, Note_on_c, 0, 50, 0
3, 4320, Note_on_c, 0, 48, 30
3, 4560, Note_on_c, 0, 48, 0
3, 4560, Note_on_c, 0, 55, 24
3, 4800, Note_on_c, 0, 55, 0
3, 4800, Note_on_c, 0, 60, 24
3, 5040, Note_on_c, 0, 60, 0
3, 5040, Note_on_c, 0, 48, 30
3, 5280, Note_on_c, 0, 48, 0
3, 5280, Note_on_c, 0, 55, 25
3, 5520, Note_on_c, 0, 55, 0
3, 5520, Note_on_c, 0, 60, 25
3, 5760, Note_on_c, 0, 60, 0
3, 5760, Note_on_c, 0, 48, 30
3, 6000, Note_on_c, 0, 48, 0
3, 6000, Note_on_c, 0, 55, 25
3, 6240, Note_on_c, 0, 55, 0
3, 6240, Note_on_c, 0, 60, 25
3, 6480, Note_on_c, 0, 60, 0
3, 6480, Note_on_c, 0, 48, 30
3, 6720, Note_on_c, 0, 48, 0
3, 6720, Note_on_c, 0, 53, 26
3, 6960, Note_on_c, 0, 53, 0
3, 6960, Note_on_c, 0, 59, 26
3, 7200, Note_on_c, 0, 59, 0
3, 7200, Note_on_c, 0, 48, 30
3, 7440, Note_on_c, 0, 48, 0
3, 7440, Note_on_c, 0, 53, 25
3, 7680, Note_on_c, 0, 53, 0
3, 7680, Note_on_c, 0, 59, 25
3, 7920, Note_on_c, 0, 59, 0
3, 7920, Note_on_c, 0, 60, 30
3, 7920, Note_on_c, 0, 48, 26
3, 8160, Note_on_c, 0, 48, 0
3, 8160, Note_on_c, 0, 60, 0
3, 8160, Note_on_c, 0, 52, 22
3, 8400, Note_on_c, 0, 52, 0
3, 8400, Note_on_c, 0, 55, 18
3, 8640, Note_on_c, 0, 55, 0
3, 8640, Note_on_c, 0, 48, 19
3, 8880, Note_on_c, 0, 48, 0
3, 8880, Note_on_c, 0, 55, 15
3, 9120, Note_on_c, 0, 55, 0
3, 9120, Note_on_c, 0, 60, 15
3, 9360, Note_on_c, 0, 60, 0
3, 9360, Note_on_c, 0, 48, 19
3, 9600, Note_on_c, 0, 48, 0
3, 9600, Note_on_c, 0, 55, 16
3, 9840, Note_on_c, 0, 55, 0
3, 9840, Note_on_c, 0, 60, 16
3, 10080, Note_on_c, 0, 60, 0
3, 10080, Note_on_c, 0, 48, 19
3, 10320, Note_on_c, 0, 48, 0
3, 10320, Note_on_c, 0, 55, 16
3, 10560, Note_on_c, 0, 55, 0
3, 10560, Note_on_c, 0, 60, 16
3, 10800, Note_on_c, 0, 60, 0
3, 10800, Note_on_c, 0, 48, 19
3, 11040, Note_on_c, 0, 48, 0
3, 11040, Note_on_c, 0, 55, 16
3, 11280, Note_on_c, 0, 55, 0
3, 11280, Note_on_c, 0, 60, 16
3, 11520, Note_on_c, 0, 60, 0
3, 11520, Note_on_c, 0, 48, 19
3, 11760, Note_on_c, 0, 48, 0
3, 11760, Note_on_c, 0, 55, 16
3, 12000, Note_on_c, 0, 55, 0
3, 12000, Note_on_c, 0, 60, 16
3, 12240, Note_on_c, 0, 60, 0
3, 12240, Note_on_c, 0, 43, 36
3, 12360, Note_on_c, 0, 43, 0
3, 12360, Note_on_c, 0, 55, 30
3, 12480, Note_on_c, 0, 55, 0
3, 12480, Note_on_c, 0, 45, 40
3, 12600, Note_on_c, 0, 45, 0
3, 12600, Note_on_c, 0, 57, 36
3, 12720, Note_on_c, 0, 57, 0
3, 12720, Note_on_c, 0, 47, 44
3, 12840, Note_on_c, 0, 47, 0
3, 12840, Note_on_c, 0, 59, 52
3, 12960, Note_on_c, 0, 59, 0
3, 12960, Note_on_c, 0, 48, 45
3, 13200, Note_on_c, 0, 48, 0
3, 13200, Note_on_c, 0, 55, 36
3, 13440, Note_on_c, 0, 55, 0
3, 13440, Note_on_c, 0, 60, 36
3, 13680, Note_on_c, 0, 60, 0
3, 13680, Note_on_c, 0, 48, 45
3, 13920, Note_on_c, 0, 48, 0
3, 13920, Note_on_c, 0, 55, 37
3, 14160, Note_on_c, 0, 55, 0
3, 14160, Note_on_c, 0, 60, 37
3, 14400, Note_on_c, 0, 60, 0
3, 14400, Note_on_c, 0, 48, 45
3, 14640, Note_on_c, 0, 48, 0
3, 14640, Note_on_c, 0, 55, 37
3, 14880, Note_on_c, 0, 55, 0
3, 14880, Note_on_c, 0, 60, 37
3, 15120, Note_on_c, 0, 60, 0
3, 15120, Note_on_c, 0, 48, 45
3, 15360, Note_on_c, 0, 48, 0
3, 15360, Note_on_c, 0, 53, 39
3, 15600, Note_on_c, 0, 53, 0
3, 15600, Note_on_c, 0, 59, 39
3, 15840, Note_on_c, 0, 59, 0
3, 15840, Note_on_c, 0, 48, 45
3, 16080, Note_on_c, 0, 48, 0
3, 16080, Note_on_c, 0, 53, 37
3, 16320, Note_on_c, 0, 53, 0
3, 16320, Note_on_c, 0, 59, 37
3, 16560, Note_on_c, 0, 59, 0
3, 16560, Note_on_c, 0, 48, 45
3, 16800, Note_on_c, 0, 48, 0
3, 16800, Note_on_c, 0, 52, 42
3, 16920, Note_on_c, 0, 52, 0
3, 16920, Note_on_c, 0, 55, 37
3, 17040, Note_on_c, 0, 55, 0
3, 17040, Note_on_c, 0, 60, 33
3, 17280, Note_on_c, 0, 60, 0
3, 17280, Note_on_c, 0, 60, 31
3, 17400, Note_on_c, 0, 60, 0
3, 17400, Note_on_c, 0, 67, 22
3, 17520, Note_on_c, 0, 67, 0
3, 17520, Note_on_c, 0, 64, 25
3, 17640, Note_on_c, 0, 64, 0
3, 17640, Note_on_c, 0, 67, 23
3, 17760, Note_on_c, 0, 67, 0
3, 17760, Note_on_c, 0, 60, 25
3, 17880, Note_on_c, 0, 60, 0
3, 17880, Note_on_c, 0, 67, 23
3, 18000, Note_on_c, 0, 67, 0
3, 18000, Note_on_c, 0, 60, 31
3, 18120, Note_on_c, 0, 60, 0
3, 18120, Note_on_c, 0, 67, 22
3, 18240, Note_on_c, 0, 67, 0
3, 18240, Note_on_c, 0, 64, 25
3, 18360, Note_on_c, 0, 64, 0
3, 18360, Note_on_c, 0, 67, 23
3, 18480, Note_on_c, 0, 67, 0
3, 18480, Note_on_c, 0, 60, 25
3, 18600, Note_on_c, 0, 60, 0
3, 18600, Note_on_c, 0, 67, 23
3, 18720, Note_on_c, 0, 67, 0
3, 18720, Note_on_c, 0, 60, 31
3, 18840, Note_on_c, 0, 60, 0
3, 18840, Note_on_c, 0, 69, 22
3, 18960, Note_on_c, 0, 69, 0
3, 18960, Note_on_c, 0, 65, 25
3, 19080, Note_on_c, 0, 65, 0
3, 19080, Note_on_c, 0, 69, 23
3, 19200, Note_on_c, 0, 69, 0
3, 19200, Note_on_c, 0, 60, 25
3, 19320, Note_on_c, 0, 60, 0
3, 19320, Note_on_c, 0, 69, 23
3, 19440, Note_on_c, 0, 69, 0
3, 19440, Note_on_c, 0, 60, 31
3, 19560, Note_on_c, 0, 60, 0
3, 19560, Note_on_c, 0, 67, 22
3, 19680, Note_on_c, 0, 67, 0
3, 19680, Note_on_c, 0, 64, 25
3, 19800, Note_on_c, 0, 64, 0
3, 19800, Note_on_c, 0, 67, 23
3, 19920, Note_on_c, 0, 67, 0
3, 19920, Note_on_c, 0, 60, 25
3, 20040, Note_on_c, 0, 60, 0
3, 20040, Note_on_c, 0, 67, 23
3, 20160, Note_on_c, 0, 67, 0
3, 20160, Note_on_c, 0, 59, 31
3, 20280, Note_on_c, 0, 59, 0
3, 20280, Note_on_c, 0, 67, 22
3, 20400, Note_on_c, 0, 67, 0
3, 20400, Note_on_c, 0, 62, 25
3, 20520, Note_on_c, 0, 62, 0
3, 20520, Note_on_c, 0, 67, 23
3, 20640, Note_on_c, 0, 67, 0
3, 20640, Note_on_c, 0, 59, 25
3, 20760, Note_on_c, 0, 59, 0
3, 20760, Note_on_c, 0, 67, 23
3, 20880, Note_on_c, 0, 67, 0
3, 20880, Note_on_c, 0, 60, 31
3, 21000, Note_on_c, 0, 60, 0
3, 21000, Note_on_c, 0, 67, 22
3, 21120, Note_on_c, 0, 67, 0
3, 21120, Note_on_c, 0, 64, 25
3, 21240, Note_on_c, 0, 64, 0
3, 21240, Note_on_c, 0, 67, 23
3, 21360, Note_on_c, 0, 67, 0
3, 21360, Note_on_c, 0, 60, 25
3, 21480, Note_on_c, 0, 60, 0
3, 21480, Note_on_c, 0, 67, 23
3, 21600, Note_on_c, 0, 67, 0
3, 21600, Note_on_c, 0, 55, 31
3, 21720, Note_on_c, 0, 55, 0
3, 21720, Note_on_c, 0, 65, 22
3, 21840, Note_on_c, 0, 65, 0
3, 21840, Note_on_c, 0, 59, 25
3, 21960, Note_on_c, 0, 59, 0
3, 21960, Note_on_c, 0, 65, 23
3, 22080, Note_on_c, 0, 65, 0
3, 22080, Note_on_c, 0, 55, 25
3, 22200, Note_on_c, 0, 55, 0
3, 22200, Note_on_c, 0, 65, 23
3, 22320, Note_on_c, 0, 65, 0
3, 22320, Note_on_c, 0, 60, 31
3, 22440, Note_on_c, 0, 60, 0
3, 22440, Note_on_c, 0, 67, 19
3, 22560, Note_on_c, 0, 67, 0
3, 22560, Note_on_c, 0, 64, 24
3, 22680, Note_on_c, 0, 64, 0
3, 22680, Note_on_c, 0, 67, 19
3, 22800, Note_on_c, 0, 67, 0
3, 22800, Note_on_c, 0, 60, 26
3, 22920, Note_on_c, 0, 60, 0
3, 22920, Note_on_c, 0, 67, 22
3, 23040, Note_on_c, 0, 67, 0
3, 23040, Note_on_c, 0, 60, 46
3, 23160, Note_on_c, 0, 60, 0
3, 23160, Note_on_c, 0, 67, 33
3, 23280, Note_on_c, 0, 67, 0
3, 23280, Note_on_c, 0, 64, 37
3, 23400, Note_on_c, 0, 64, 0
3, 23400, Note_on_c, 0, 67, 34
3, 23520, Note_on_c, 0, 67, 0
3, 23520, Note_on_c, 0, 60, 37
3, 23640, Note_on_c, 0, 60, 0
3, 23640, Note_on_c, 0, 67, 34
3, 23760, Note_on_c, 0, 67, 0
3, 23760, Note_on_c, 0, 60, 46
3, 23880, Note_on_c, 0, 60, 0
3, 23880, Note_on_c, 0, 67, 33
3, 24000, Note_on_c, 0, 67, 0
3, 24000, Note_on_c, 0, 64, 37
3, 24120, Note_on_c, 0, 64, 0
3, 24120, Note_on_c, 0, 67, 34
3, 24240, Note_on_c, 0, 67, 0
3, 24240, Note_on_c, 0, 60, 37
3, 24360, Note_on_c, 0, 60, 0
3, 24360, Note_on_c, 0, 67, 34
3, 24480, Note_on_c, 0, 67, 0
3, 24480, Note_on_c, 0, 60, 46
3, 24600, Note_on_c, 0, 60, 0
3, 24600, Note_on_c, 0, 69, 33
3, 24720, Note_on_c, 0, 69, 0
3, 24720, Note_on_c, 0, 65, 37
3, 24840, Note_on_c, 0, 65, 0
3, 24840, Note_on_c, 0, 69, 34
3, 24960, Note_on_c, 0, 69, 0
3, 24960, Note_on_c, 0, 60, 37
3, 25080, Note_on_c, 0, 60, 0
3, 25080, Note_on_c, 0, 69, 34
3, 25200, Note_on_c, 0, 69, 0
3, 25200, Note_on_c, 0, 60, 46
3, 25320, Note_on_c, 0, 60, 0
3, 25320, Note_on_c, 0, 67, 33
3, 25440, Note_on_c, 0, 67, 0
3, 25440, Note_on_c, 0, 64, 37
3, 25560, Note_on_c, 0, 64, 0
3, 25560, Note_on_c, 0, 67, 34
3, 25680, Note_on_c, 0, 67, 0
3, 25680, Note_on_c, 0, 60, 37
3, 25800, Note_on_c, 0, 60, 0
3, 25800, Note_on_c, 0, 67, 34
3, 25920, Note_on_c, 0, 67, 0
3, 25920, Note_on_c, 0, 59, 46
3, 26040, Note_on_c, 0, 59, 0
3, 26040, Note_on_c, 0, 67, 33
3, 26160, Note_on_c, 0, 67, 0
3, 26160, Note_on_c, 0, 62, 37
3, 26280, Note_on_c, 0, 62, 0
3, 26280, Note_on_c, 0, 67, 34
3, 26400, Note_on_c, 0, 67, 0
3, 26400, Note_on_c, 0, 59, 37
3, 26520, Note_on_c, 0, 59, 0
3, 26520, Note_on_c, 0, 67, 34
3, 26640, Note_on_c, 0, 67, 0
3, 26640, Note_on_c, 0, 60, 46
3, 26760, Note_on_c, 0, 60, 0
3, 26760, Note_on_c, 0, 67, 33
3, 26880, Note_on_c, 0, 67, 0
3, 26880, Note_on_c, 0, 64, 37
3, 27000, Note_on_c, 0, 64, 0
3, 27000, Note_on_c, 0, 67, 34
3, 27120, Note_on_c, 0, 67, 0
3, 27120, Note_on_c, 0, 60, 37
3, 27240, Note_on_c, 0, 60, 0
3, 27240, Note_on_c, 0, 67, 34
3, 27360, Note_on_c, 0, 67, 0
3, 27360, Note_on_c, 0, 55, 46
3, 27480, Note_on_c, 0, 55, 0
3, 27480, Note_on_c, 0, 65, 33
3, 27600, Note_on_c, 0, 65, 0
3, 27600, Note_on_c, 0, 59, 37
3, 27720, Note_on_c, 0, 59, 0
3, 27720, Note_on_c, 0, 65, 34
3, 27840, Note_on_c, 0, 65, 0
3, 27840, Note_on_c, 0, 55, 37
3, 27960, Note_on_c, 0, 55, 0
3, 27960, Note_on_c, 0, 65, 34
3, 28080, Note_on_c, 0, 65, 0
3, 28080, Note_on_c, 0, 60, 46
3, 28200, Note_on_c, 0, 60, 0
3, 28200, Note_on_c, 0, 67, 25
3, 28320, Note_on_c, 0, 67, 0
3, 28320, Note_on_c, 0, 64, 33
3, 28440, Note_on_c, 0, 64, 0
3, 28440, Note_on_c, 0, 67, 26
3, 28560, Note_on_c, 0, 67, 0
3, 28560, Note_on_c, 0, 60, 34
3, 28800, Note_on_c, 0, 60, 0
3, 29040, Note_on_c, 0, 55, 20
3, 29040, Note_on_c, 0, 59, 20
3, 29040, Note_on_c, 0, 62, 25
3, 29100, Note_on_c, 0, 62, 0
3, 29100, Note_on_c, 0, 59, 0
3, 29100, Note_on_c, 0, 55, 0
3, 29280, Note_on_c, 0, 55, 20
3, 29280, Note_on_c, 0, 62, 25
3, 29280, Note_on_c, 0, 59, 20
3, 29340, Note_on_c, 0, 59, 0
3, 29340, Note_on_c, 0, 62, 0
3, 29340, Note_on_c, 0, 55, 0
3, 29760, Note_on_c, 0, 55, 20
3, 29760, Note_on_c, 0, 60, 20
3, 29760, Note_on_c, 0, 64, 25
3, 29820, Note_on_c, 0, 64, 0
3, 29820, Note_on_c, 0, 60, 0
3, 29820, Note_on_c, 0, 55, 0
3, 30000, Note_on_c, 0, 55, 20
3, 30000, Note_on_c, 0, 64, 25
3, 30000, Note_on_c, 0, 60, 20
3, 30060, Note_on_c, 0, 60, 0
3, 30060, Note_on_c, 0, 64, 0
3, 30060, Note_on_c, 0, 55, 0
3, 30480, Note_on_c, 0, 55, 20
3, 30480, Note_on_c, 0, 62, 20
3, 30480, Note_on_c, 0, 65, 25
3, 30540, Note_on_c, 0, 65, 0
3, 30540, Note_on_c, 0, 62, 0
3, 30540, Note_on_c, 0, 55, 0
3, 30720, Note_on_c, 0, 55, 20
3, 30720, Note_on_c, 0, 65, 25
3, 30720, Note_on_c, 0, 62, 20
3, 30780, Note_on_c, 0, 62, 0
3, 30780, Note_on_c, 0, 65, 0
3, 30780, Note_on_c, 0, 55, 0
3, 31200, Note_on_c, 0, 55, 20
3, 31200, Note_on_c, 0, 60, 20
3, 31200, Note_on_c, 0, 64, 25
3, 31260, Note_on_c, 0, 64, 0
3, 31260, Note_on_c, 0, 60, 0
3, 31260, Note_on_c, 0, 55, 0
3, 31440, Note_on_c, 0, 55, 20
3, 31440, Note_on_c, 0, 64, 25
3, 31440, Note_on_c, 0, 60, 20
3, 31500, Note_on_c, 0, 60, 0
3, 31500, Note_on_c, 0, 64, 0
3, 31500, Note_on_c, 0, 55, 0
3, 31920, Note_on_c, 0, 55, 20
3, 31920, Note_on_c, 0, 59, 20
3, 31920, Note_on_c, 0, 62, 25
3, 31980, Note_on_c, 0, 62, 0
3, 31980, Note_on_c, 0, 59, 0
3, 31980, Note_on_c, 0, 55, 0
3, 32160, Note_on_c, 0, 55, 20
3, 32160, Note_on_c, 0, 62, 25
3, 32160, Note_on_c, 0, 59, 20
3, 32220, Note_on_c, 0, 59, 0
3, 32220, Note_on_c, 0, 62, 0
3, 32220, Note_on_c, 0, 55, 0
3, 32640, Note_on_c, 0, 55, 20
3, 32640, Note_on_c, 0, 60, 20
3, 32640, Note_on_c, 0, 64, 25
3, 32700, Note_on_c, 0, 64, 0
3, 32700, Note_on_c, 0, 60, 0
3, 32700, Note_on_c, 0, 55, 0
3, 32880, Note_on_c, 0, 55, 20
3, 32880, Note_on_c, 0, 64, 25
3, 32880, Note_on_c, 0, 60, 20
3, 32940, Note_on_c, 0, 60, 0
3, 32940, Note_on_c, 0, 64, 0
3, 32940, Note_on_c, 0, 55, 0
3, 33360, Note_on_c, 0, 57, 20
3, 33360, Note_on_c, 0, 60, 20
3, 33360, Note_on_c, 0, 66, 25
3, 33420, Note_on_c, 0, 66, 0
3, 33420, Note_on_c, 0, 60, 0
3, 33420, Note_on_c, 0, 57, 0
3, 33600, Note_on_c, 0, 57, 20
3, 33600, Note_on_c, 0, 66, 25
3, 33600, Note_on_c, 0, 60, 20
3, 33660, Note_on_c, 0, 60, 0
3, 33660, Note_on_c, 0, 66, 0
3, 33660, Note_on_c, 0, 57, 0
3, 33840, Note_on_c, 0, 55, 21
3, 33840, Note_on_c, 0, 62, 25
3, 34560, Note_on_c, 0, 62, 0
3, 34560, Note_on_c, 0, 55, 0
3, 34560, Note_on_c, 0, 48, 30
3, 34800, Note_on_c, 0, 48, 0
3, 34800, Note_on_c, 0, 55, 24
3, 35040, Note_on_c, 0, 55, 0
3, 35040, Note_on_c, 0, 60, 24
3, 35280, Note_on_c, 0, 60, 0
3, 35280, Note_on_c, 0, 48, 30
3, 35520, Note_on_c, 0, 48, 0
3, 35520, Note_on_c, 0, 55, 25
3, 35760, Note_on_c, 0, 55, 0
3, 35760, Note_on_c, 0, 60, 25
3, 36000, Note_on_c, 0, 60, 0
3, 36000, Note_on_c, 0, 48, 30
3, 36240, Note_on_c, 0, 48, 0
3, 36240, Note_on_c, 0, 55, 25
3, 36480, Note_on_c, 0, 55, 0
3, 36480, Note_on_c, 0, 60, 25
3, 36720, Note_on_c, 0, 60, 0
3, 36720, Note_on_c, 0, 48, 30
3, 36960, Note_on_c, 0, 48, 0
3, 36960, Note_on_c, 0, 55, 26
3, 37200, Note_on_c, 0, 55, 0
3, 37200, Note_on_c, 0, 60, 26
3, 37440, Note_on_c, 0, 60, 0
3, 37440, Note_on_c, 0, 48, 30
3, 37680, Note_on_c, 0, 48, 0
3, 37680, Note_on_c, 0, 55, 25
3, 37920, Note_on_c, 0, 55, 0
3, 37920, Note_on_c, 0, 60, 25
3, 38160, Note_on_c, 0, 60, 0
3, 38160, Note_on_c, 0, 43, 30
3, 38400, Note_on_c, 0, 43, 0
3, 38400, Note_on_c, 0, 55, 32
3, 38520, Note_on_c, 0, 55, 0
3, 38520, Note_on_c, 0, 53, 26
3, 38640, Note_on_c, 0, 53, 0
3, 38640, Note_on_c, 0, 52, 31
3, 38760, Note_on_c, 0, 52, 0
3, 38760, Note_on_c, 0, 50, 29
3, 38880, Note_on_c, 0, 50, 0
3, 38880, Note_on_c, 0, 48, 19
3, 39120, Note_on_c, 0, 48, 0
3, 39120, Note_on_c, 0, 55, 15
3, 39360, Note_on_c, 0, 55, 0
3, 39360, Note_on_c, 0, 60, 15
3, 39600, Note_on_c, 0, 60, 0
3, 39600, Note_on_c, 0, 48, 19
3, 39840, Note_on_c, 0, 48, 0
3, 39840, Note_on_c, 0, 55, 16
3, 40080, Note_on_c, 0, 55, 0
3, 40080, Note_on_c, 0, 60, 16
3, 40320, Note_on_c, 0, 60, 0
3, 40320, Note_on_c, 0, 48, 19
3, 40560, Note_on_c, 0, 48, 0
3, 40560, Note_on_c, 0, 55, 16
3, 40800, Note_on_c, 0, 55, 0
3, 40800, Note_on_c, 0, 60, 16
3, 41040, Note_on_c, 0, 60, 0
3, 41040, Note_on_c, 0, 48, 19
3, 41280, Note_on_c, 0, 48, 0
3, 41280, Note_on_c, 0, 53, 16
3, 41520, Note_on_c, 0, 53, 0
3, 41520, Note_on_c, 0, 59, 16
3, 41760, Note_on_c, 0, 59, 0
3, 41760, Note_on_c, 0, 48, 19
3, 42000, Note_on_c, 0, 48, 0
3, 42000, Note_on_c, 0, 53, 16
3, 42240, Note_on_c, 0, 53, 0
3, 42240, Note_on_c, 0, 59, 16
3, 42480, Note_on_c, 0, 59, 0
3, 42480, Note_on_c, 0, 48, 31
3, 42600, Note_on_c, 0, 48, 0
3, 42600, Note_on_c, 0, 60, 26
3, 42720, Note_on_c, 0, 60, 0
3, 42720, Note_on_c, 0, 55, 37
3, 42840, Note_on_c, 0, 55, 0
3, 42840, Note_on_c, 0, 60, 33
3, 42960, Note_on_c, 0, 60, 0
3, 42960, Note_on_c, 0, 52, 41
3, 43080, Note_on_c, 0, 52, 0
3, 43080, Note_on_c, 0, 55, 46
3, 43200, Note_on_c, 0, 55, 0
3, 43200, Note_on_c, 0, 48, 45
3, 43320, Note_on_c, 0, 48, 0
3, 43320, Note_on_c, 0, 55, 31
3, 43440, Note_on_c, 0, 55, 0
3, 43440, Note_on_c, 0, 48, 34
3, 43560, Note_on_c, 0, 48, 0
3, 43560, Note_on_c, 0, 55, 25
3, 43680, Note_on_c, 0, 55, 0
3, 43680, Note_on_c, 0, 50, 34
3, 43800, Note_on_c, 0, 50, 0
3, 43800, Note_on_c, 0, 55, 30
3, 43920, Note_on_c, 0, 55, 0
3, 43920, Note_on_c, 0, 52, 45
3, 44040, Note_on_c, 0, 52, 0
3, 44040, Note_on_c, 0, 55, 31
3, 44160, Note_on_c, 0, 55, 0
3, 44160, Note_on_c, 0, 52, 34
3, 44280, Note_on_c, 0, 52, 0
3, 44280, Note_on_c, 0, 55, 25
3, 44400, Note_on_c, 0, 55, 0
3, 44400, Note_on_c, 0, 48, 34
3, 44520, Note_on_c, 0, 48, 0
3, 44520, Note_on_c, 0, 55, 30
3, 44640, Note_on_c, 0, 55, 0
3, 44640, Note_on_c, 0, 53, 45
3, 44760, Note_on_c, 0, 53, 0
3, 44760, Note_on_c, 0, 55, 31
3, 44880, Note_on_c, 0, 55, 0
3, 44880, Note_on_c, 0, 53, 34
3, 45000, Note_on_c, 0, 53, 0
3, 45000, Note_on_c, 0, 55, 25
3, 45120, Note_on_c, 0, 55, 0
3, 45120, Note_on_c, 0, 52, 34
3, 45240, Note_on_c, 0, 52, 0
3, 45240, Note_on_c, 0, 55, 30
3, 45360, Note_on_c, 0, 55, 0
3, 45360, Note_on_c, 0, 53, 45
3, 45480, Note_on_c, 0, 53, 0
3, 45480, Note_on_c, 0, 55, 31
3, 45600, Note_on_c, 0, 55, 0
3, 45600, Note_on_c, 0, 53, 34
3, 45720, Note_on_c, 0, 53, 0
3, 45720, Note_on_c, 0, 55, 25
3, 45840, Note_on_c, 0, 55, 0
3, 45840, Note_on_c, 0, 52, 34
3, 45960, Note_on_c, 0, 52, 0
3, 45960, Note_on_c, 0, 55, 30
3, 46080, Note_on_c, 0, 55, 0
3, 46080, Note_on_c, 0, 53, 45
3, 46200, Note_on_c, 0, 53, 0
3, 46200, Note_on_c, 0, 55, 31
3, 46320, Note_on_c, 0, 55, 0
3, 46320, Note_on_c, 0, 53, 34
3, 46440, Note_on_c, 0, 53, 0
3, 46440, Note_on_c, 0, 55, 25
3, 46560, Note_on_c, 0, 55, 0
3, 46560, Note_on_c, 0, 52, 34
3, 46680, Note_on_c, 0, 52, 0
3, 46680, Note_on_c, 0, 55, 30
3, 46800, Note_on_c, 0, 55, 0
3, 46800, Note_on_c, 0, 43, 45
3, 46920, Note_on_c, 0, 43, 0
3, 46920, Note_on_c, 0, 55, 40
3, 47040, Note_on_c, 0, 55, 0
3, 47040, Note_on_c, 0, 45, 48
3, 47160, Note_on_c, 0, 45, 0
3, 47160, Note_on_c, 0, 55, 41
3, 47280, Note_on_c, 0, 55, 0
3, 47280, Note_on_c, 0, 47, 46
3, 47400, Note_on_c, 0, 47, 0
3, 47400, Note_on_c, 0, 55, 42
3, 47520, Note_on_c, 0, 55, 0
3, 47520, Note_on_c, 0, 48, 45
3, 47640, Note_on_c, 0, 48, 0
3, 47640, Note_on_c, 0, 55, 31
3, 47760, Note_on_c, 0, 55, 0
3, 47760, Note_on_c, 0, 48, 34
3, 47880, Note_on_c, 0, 48, 0
3, 47880, Note_on_c, 0, 55, 25
3, 48000, Note_on_c, 0, 55, 0
3, 48000, Note_on_c, 0, 50, 34
3, 48120, Note_on_c, 0, 50, 0
3, 48120, Note_on_c, 0, 55, 30
3, 48240, Note_on_c, 0, 55, 0
3, 48240, Note_on_c, 0, 52, 45
3, 48360, Note_on_c, 0, 52, 0
3, 48360, Note_on_c, 0, 55, 31
3, 48480, Note_on_c, 0, 55, 0
3, 48480, Note_on_c, 0, 52, 34
3, 48600, Note_on_c, 0, 52, 0
3, 48600, Note_on_c, 0, 55, 25
3, 48720, Note_on_c, 0, 55, 0
3, 48720, Note_on_c, 0, 48, 34
3, 48840, Note_on_c, 0, 48, 0
3, 48840, Note_on_c, 0, 55, 30
3, 48960, Note_on_c, 0, 55, 0
3, 48960, Note_on_c, 0, 53, 45
3, 49080, Note_on_c, 0, 53, 0
3, 49080, Note_on_c, 0, 55, 31
3, 49200, Note_on_c, 0, 55, 0
3, 49200, Note_on_c, 0, 53, 34
3, 49320, Note_on_c, 0, 53, 0
3, 49320, Note_on_c, 0, 55, 25
3, 49440, Note_on_c, 0, 55, 0
3, 49440, Note_on_c, 0, 52, 34
3, 49560, Note_on_c, 0, 52, 0
3, 49560, Note_on_c, 0, 55, 30
3, 49680, Note_on_c, 0, 55, 0
3, 49680, Note_on_c, 0, 43, 45
3, 49800, Note_on_c, 0, 43, 0
3, 49800, Note_on_c, 0, 53, 31
3, 49920, Note_on_c, 0, 53, 0
3, 49920, Note_on_c, 0, 47, 34
3, 50040, Note_on_c, 0, 47, 0
3, 50040, Note_on_c, 0, 53, 25
3, 50160, Note_on_c, 0, 53, 0
3, 50160, Note_on_c, 0, 43, 34
3, 50280, Note_on_c, 0, 43, 0
3, 50280, Note_on_c, 0, 53, 30
3, 50400, Note_on_c, 0, 53, 0
3, 50400, Note_on_c, 0, 43, 45
3, 50520, Note_on_c, 0, 43, 0
3, 50520, Note_on_c, 0, 53, 31
3, 50640, Note_on_c, 0, 53, 0
3, 50640, Note_on_c, 0, 47, 34
3, 50760, Note_on_c, 0, 47, 0
3, 50760, Note_on_c, 0, 53, 25
3, 50880, Note_on_c, 0, 53, 0
3, 50880, Note_on_c, 0, 43, 34
3, 51000, Note_on_c, 0, 43, 0
3, 51000, Note_on_c, 0, 53, 30
3, 51120, Note_on_c, 0, 53, 0
3, 51120, Note_on_c, 0, 48, 45
3, 51120, Note_on_c, 0, 52, 48
3, 51240, Note_on_c, 0, 52, 0
3, 51240, Note_on_c, 0, 48, 0
3, 51840, Note_on_c, 0, 48, 45
3, 51840, Note_on_c, 0, 52, 48
3, 51960, Note_on_c, 0, 52, 0
3, 51960, Note_on_c, 0, 48, 0
3, 52560, Note_on_c, 0, 48, 45
3, 52560, Note_on_c, 0, 52, 48
3, 52680, Note_on_c, 0, 52, 0
3, 52680, Note_on_c, 0, 48, 0
3, 53280, Note_on_c, 0, 48, 45
3, 53280, Note_on_c, 0, 52, 48
3, 53400, Note_on_c, 0, 52, 0
3, 53400, Note_on_c, 0, 48, 0
3, 53520, Note_on_c, 0, 48, 45
3, 53520, Note_on_c, 0, 52, 48
3, 53640, Note_on_c, 0, 52, 0
3, 53640, Note_on_c, 0, 48, 0
3, 53760, Note_on_c, 0, 48, 45
3, 53760, Note_on_c, 0, 52, 48
3, 53880, Note_on_c, 0, 52, 0
3, 53880, Note_on_c, 0, 48, 0
3, 54000, Note_on_c, 0, 36, 48
3, 54120, Note_on_c, 0, 48, 33
3, 54240, Note_on_c, 0, 48, 0
3, 54240, Note_on_c, 0, 43, 39
3, 54360, Note_on_c, 0, 43, 0
3, 54360, Note_on_c, 0, 48, 29
3, 54480, Note_on_c, 0, 48, 0
3, 54480, Note_on_c, 0, 43, 34
3, 54600, Note_on_c, 0, 43, 0
3, 54600, Note_on_c, 0, 48, 29
3, 54720, Note_on_c, 0, 48, 0
3, 54720, Note_on_c, 0, 36, 0
3, 54720, Note_on_c, 0, 36, 30
3, 54840, Note_on_c, 0, 48, 19
3, 54960, Note_on_c, 0, 48, 0
3, 54960, Note_on_c, 0, 43, 24
3, 55080, Note_on_c, 0, 43, 0
3, 55080, Note_on_c, 0, 48, 19
3, 55200, Note_on_c, 0, 48, 0
3, 55200, Note_on_c, 0, 43, 24
3, 55320, Note_on_c, 0, 43, 0
3, 55320, Note_on_c, 0, 48, 19
3, 55440, Note_on_c, 0, 48, 0
3, 55440, Note_on_c, 0, 36, 0
3, 55440, Note_on_c, 0, 36, 30
3, 55560, Note_on_c, 0, 48, 19
3, 55680, Note_on_c, 0, 48, 0
3, 55680, Note_on_c, 0, 43, 24
3, 55800, Note_on_c, 0, 43, 0
3, 55800, Note_on_c, 0, 48, 19
3, 55920, Note_on_c, 0, 48, 0
3, 55920, Note_on_c, 0, 43, 24
3, 56040, Note_on_c, 0, 43, 0
3, 56040, Note_on_c, 0, 48, 19
3, 56160, Note_on_c, 0, 48, 0
3, 56160, Note_on_c, 0, 36, 0
3, 56160, Note_on_c, 0, 36, 30
3, 56280, Note_on_c, 0, 48, 18
3, 56400, Note_on_c, 0, 48, 0
3, 56400, Note_on_c, 0, 43, 22
3, 56520, Note_on_c, 0, 43, 0
3, 56520, Note_on_c, 0, 48, 17
3, 56640, Note_on_c, 0, 48, 0
3, 56640, Note_on_c, 0, 43, 20
3, 56760, Note_on_c, 0, 43, 0
3, 56760, Note_on_c, 0, 48, 15
3, 56880, Note_on_c, 0, 48, 0
3, 56880, Note_on_c, 0, 36, 0
3, 56880, Note_on_c, 0, 36, 24
3, 57000, Note_on_c, 0, 48, 15
3, 57120, Note_on_c, 0, 48, 0
3, 57120, Note_on_c, 0, 43, 19
3, 57240, Note_on_c, 0, 43, 0
3, 57240, Note_on_c, 0, 48, 15
3, 57360, Note_on_c, 0, 48, 0
3, 57360, Note_on_c, 0, 43, 19
3, 57480, Note_on_c, 0, 43, 0
3, 57480, Note_on_c, 0, 48, 15
3, 57600, Note_on_c, 0, 48, 0
3, 57600, Note_on_c, 0, 36, 0
3, 57600, Note_on_c, 0, 36, 24
3, 57720, Note_on_c, 0, 48, 15
3, 57840, Note_on_c, 0, 48, 0
3, 57840, Note_on_c, 0, 43, 19
3, 57960, Note_on_c, 0, 43, 0
3, 57960, Note_on_c, 0, 48, 15
3, 58080, Note_on_c, 0, 48, 0
3, 58080, Note_on_c, 0, 43, 19
3, 58200, Note_on_c, 0, 43, 0
3, 58200, Note_on_c, 0, 48, 15
3, 58320, Note_on_c, 0, 48, 0
3, 58320, Note_on_c, 0, 36, 0
3, 58320, Note_on_c, 0, 36, 21
3, 58560, Note_on_c, 0, 36, 0
3, 58560, End_track
4, 0, Start_track
4, 0, Title_t, "Pedale"
4, 0, Program_c, 0, 0
4, 54060, Control_c, 0, 64, 127
4, 54720, Control_c, 0, 64, 0
4, 54766, Control_c, 0, 64, 127
4, 55440, Control_c, 0, 64, 0
4, 55490, Control_c, 0, 64, 127
4, 55694, Control_c, 0, 64, 0
4, 56196, Control_c, 0, 64, 127
4, 56651, Control_c, 0, 64, 0
4, 56923, Control_c, 0, 64, 127
4, 58760, Control_c, 0, 64, 0
4, 58760, End_track
5, 0, Start_track
5, 0, Title_t, "Clementi: Sonatatina Opus 26, No. 5, 2. movement"
5, 0, End_track
6, 0, Start_track
6, 0, Title_t, "Copyright © 2010 by Bernd Krueger"
6, 0, End_track
7, 0, Start_track
7, 0, Title_t, "http://www.piano-midi.de/"
7, 0, End_track
8, 0, Start_track
8, 0, Title_t, "Edition: "
8, 0, End_track
9, 0, Start_track
9, 0, Title_t, "Spur 8"
9, 0, End_track
10, 0, Start_track
10, 0, Title_t, "Spur 9"
10, 0, End_track
11, 0, Start_track
11, 0, Title_t, "Spur 10"
11, 0, End_track
12, 0, Start_track
12, 0, Title_t, "Spur 11"
12, 0, End_track
13, 0, Start_track
13, 0, Title_t, "Spur 12"
13, 0, End_track
14, 0, Start_track
14, 0, Title_t, "Spur 13"
14, 0, End_track
15, 0, Start_track
15, 0, Title_t, "Spur 14"
15, 0, End_track
16, 0, Start_track
16, 0, Title_t, "Spur 15"
16, 0, End_track
17, 0, Start_track
17, 0, Title_t, "Spur 16"
17, 0, End_track
0, 0, End_of_file
