0, 0, Header, 1, 17, 480
1, 0, Start_track
1, 0, Title_t, "Clementi: Sonatine Opus 36 Nr. 4, 2. Satz"
1, 0, Copyright_t, "Copyright © 2011 by Bernd Krueger"
1, 0, Text_t, "Muzio Clementi"
1, 0, Text_t, "Andante con espressione"
1, 0, Text_t, "Erstellt: 9.10.2011\012"
1, 0, Text_t, "Dauer: 1:45 Minuten\012"
1, 0, Time_signature, 2, 2, 24, 8
1, 0, Key_signature, -2, "major"
1, 0, Tempo, 1094891
1, 120, Tempo, 1158301
1, 240, Tempo, 1217039
1, 360, Tempo, 1104972
1, 480, Tempo, 1181102
1, 720, Tempo, 1268499
1, 960, Tempo, 1158301
1, 1200, Tempo, 1204819
1, 1920, Tempo, 1075269
1, 2040, Tempo, 1181102
1, 2160, Tempo, 1217039
1, 2280, Tempo, 1125704
1, 2400, Tempo, 1192843
1, 2640, Tempo, 1255230
1, 2880, Tempo, 1125704
1, 3000, Tempo, 1192843
1, 3840, Tempo, 1065719
1, 3960, Tempo, 1158301
1, 4080, Tempo, 1204819
1, 4200, Tempo, 1158301
1, 4320, Tempo, 1217039
1, 4800, Tempo, 1094891
1, 4920, Tempo, 1147228
1, 5040, Tempo, 1169591
1, 5160, Tempo, 1147228
1, 5280, Tempo, 1192843
1, 5520, Tempo, 1169591
1, 5760, Tempo, 1084991
1, 5880, Tempo, 1169591
1, 6000, Tempo, 1217039
1, 6120, Tempo, 1217039
1, 6240, Tempo, 1136364
1, 6360, Tempo, 1158301
1, 6480, Tempo, 1282051
1, 6720, Tempo, 1217039
1, 7680, Tempo, 1084991
1, 7800, Tempo, 1181102
1, 7920, Tempo, 1217039
1, 8160, Tempo, 1104972
1, 8280, Tempo, 1192843
1, 8400, Tempo, 1242236
1, 8640, Tempo, 1169591
1, 8880, Tempo, 1204819
1, 9120, Tempo, 1147228
1, 9360, Tempo, 1204819
1, 9600, Tempo, 1115242
1, 9720, Tempo, 1147228
1, 9840, Tempo, 1204819
1, 10080, Tempo, 1104972
1, 10200, Tempo, 1158301
1, 10320, Tempo, 1242236
1, 10560, Tempo, 1181102
1, 11040, Tempo, 1192843
1, 11520, Tempo, 1094891
1, 11640, Tempo, 1158301
1, 11760, Tempo, 1204819
1, 12000, Tempo, 1136364
1, 12120, Tempo, 1169591
1, 12240, Tempo, 1217039
1, 12480, Tempo, 1084991
1, 12600, Tempo, 1204819
1, 12720, Tempo, 1169591
1, 12960, Tempo, 1217039
1, 13440, Tempo, 1094891
1, 13560, Tempo, 1147228
1, 13680, Tempo, 1204819
1, 13920, Tempo, 1115242
1, 14040, Tempo, 1169591
1, 14160, Tempo, 1255230
1, 14400, Tempo, 1217039
1, 15360, Tempo, 1125704
1, 15600, Tempo, 1104972
1, 15720, Tempo, 1094891
1, 15840, Tempo, 1094891
1, 16080, Tempo, 1125704
1, 16200, Tempo, 1310044
1, 16320, Tempo, 1158301
1, 17280, Tempo, 1169591
1, 17400, Tempo, 1115242
1, 17520, Tempo, 1115242
1, 17640, Tempo, 1104972
1, 17760, Tempo, 1094891
1, 18000, Tempo, 1115242
1, 18120, Tempo, 1324503
1, 18240, Tempo, 1136364
1, 18480, Tempo, 1192843
1, 18600, Tempo, 1147228
1, 18720, Tempo, 1204819
1, 18840, Tempo, 1136364
1, 19200, Tempo, 1003344
1, 19320, Tempo, 1047120
1, 19440, Tempo, 1029160
1, 19560, Tempo, 1084991
1, 19680, Tempo, 1003344
1, 19800, Tempo, 1056338
1, 19920, Tempo, 1038062
1, 20040, Tempo, 1047120
1, 20160, Tempo, 1003344
1, 20280, Tempo, 1047120
1, 20640, Tempo, 1020408
1, 20760, Tempo, 1038062
1, 21120, Tempo, 1003344
1, 21240, Tempo, 1065719
1, 21360, Tempo, 1065719
1, 21480, Tempo, 1038062
1, 21600, Tempo, 1020408
1, 21720, Tempo, 1056338
1, 21960, Tempo, 1104972
1, 22080, Tempo, 1011804
1, 22200, Tempo, 1094891
1, 22320, Tempo, 1056338
1, 22680, Tempo, 1020408
1, 22920, Tempo, 1158301
1, 23040, Tempo, 1065719
1, 23220, Tempo, 1075269
1, 23370, Tempo, 1084991
1, 23550, Tempo, 1094891
1, 23700, Tempo, 1104972
1, 23880, Tempo, 1115242
1, 23991, Tempo, 1038062
1, 24068, Tempo, 1047120
1, 24125, Tempo, 1056338
1, 24183, Tempo, 1065719
1, 24241, Tempo, 1075269
1, 24298, Tempo, 1084991
1, 24356, Tempo, 1094891
1, 24413, Tempo, 1104972
1, 24471, Tempo, 1115242
1, 24480, Tempo, 1125704
1, 24510, Tempo, 1147228
1, 24540, Tempo, 1158301
1, 24570, Tempo, 1181102
1, 24600, Tempo, 1204819
1, 24630, Tempo, 1217039
1, 24660, Tempo, 1242236
1, 24690, Tempo, 1255230
1, 24720, Tempo, 1282051
1, 24750, Tempo, 1310044
1, 24840, Tempo, 1385681
1, 24960, Tempo, 1125704
1, 25080, Tempo, 1136364
1, 25200, Tempo, 1217039
1, 25440, Tempo, 1147228
1, 25680, Tempo, 1242236
1, 25920, Tempo, 1115242
1, 26160, Tempo, 1204819
1, 26880, Tempo, 1038062
1, 27000, Tempo, 1104972
1, 27120, Tempo, 1047120
1, 27240, Tempo, 1104972
1, 27360, Tempo, 1136364
1, 27480, Tempo, 1084991
1, 27600, Tempo, 1136364
1, 27720, Tempo, 1324503
1, 27840, Tempo, 1136364
1, 28080, Tempo, 1204819
1, 28800, Tempo, 1065719
1, 28920, Tempo, 1169591
1, 29040, Tempo, 1204819
1, 29160, Tempo, 1158301
1, 29280, Tempo, 1217039
1, 29520, Tempo, 1169591
1, 29760, Tempo, 1056338
1, 29880, Tempo, 1158301
1, 30000, Tempo, 1217039
1, 30120, Tempo, 1147228
1, 30240, Tempo, 1217039
1, 30480, Tempo, 1169591
1, 30720, Tempo, 1065719
1, 30840, Tempo, 1169591
1, 30960, Tempo, 1217039
1, 31080, Tempo, 1217039
1, 31200, Tempo, 1084991
1, 31320, Tempo, 1169591
1, 31440, Tempo, 1282051
1, 31680, Tempo, 1217039
1, 32640, Tempo, 1094891
1, 32760, Tempo, 1169591
1, 32880, Tempo, 1104972
1, 33000, Tempo, 1147228
1, 33120, Tempo, 1136364
1, 33240, Tempo, 1192843
1, 33360, Tempo, 1125704
1, 33480, Tempo, 1169591
1, 33600, Tempo, 1084991
1, 33720, Tempo, 1169591
1, 33840, Tempo, 1204819
1, 34080, Tempo, 1115242
1, 34200, Tempo, 1204819
1, 34320, Tempo, 1147228
1, 34440, Tempo, 1192843
1, 34560, Tempo, 1065719
1, 34680, Tempo, 1104972
1, 34800, Tempo, 1181102
1, 34920, Tempo, 1115242
1, 35040, Tempo, 1158301
1, 35280, Tempo, 1181102
1, 35400, Tempo, 1242236
1, 35520, Tempo, 1084991
1, 35640, Tempo, 1147228
1, 36000, Tempo, 1104972
1, 36480, Tempo, 1020408
1, 36600, Tempo, 1056338
1, 36960, Tempo, 1056338
1, 37080, Tempo, 1075269
1, 37200, Tempo, 1056338
1, 37440, Tempo, 1011804
1, 37560, Tempo, 1047120
1, 37920, Tempo, 1011804
1, 38040, Tempo, 1075269
1, 38280, Tempo, 1147228
1, 38400, Tempo, 1029160
1, 38520, Tempo, 1065719
1, 38880, Tempo, 1020408
1, 39000, Tempo, 1047120
1, 39240, Tempo, 1075269
1, 39360, Tempo, 1020408
1, 39480, Tempo, 1056338
1, 39600, Tempo, 1011804
1, 39720, Tempo, 1029160
1, 39840, Tempo, 1047120
1, 40320, Tempo, 1038062
1, 40440, Tempo, 1056338
1, 40800, Tempo, 1011804
1, 40920, Tempo, 1056338
1, 41160, Tempo, 1136364
1, 41280, Tempo, 1038062
1, 41400, Tempo, 1084991
1, 41520, Tempo, 1020408
1, 41640, Tempo, 1038062
1, 42120, Tempo, 1169591
1, 42240, Tempo, 1056338
1, 42360, Tempo, 1115242
1, 42720, Tempo, 1075269
1, 42840, Tempo, 1136364
1, 42960, Tempo, 1242236
1, 43200, Tempo, 1104972
1, 43200, End_track
2, 0, Start_track
2, 0, Title_t, "Piano right"
2, 0, Program_c, 0, 0
2, 0, Note_on_c, 0, 62, 35
2, 0, Note_on_c, 0, 65, 42
2, 240, Note_on_c, 0, 65, 0
2, 240, Note_on_c, 0, 62, 0
2, 240, Note_on_c, 0, 65, 31
2, 240, Note_on_c, 0, 62, 26
2, 480, Note_on_c, 0, 62, 0
2, 480, Note_on_c, 0, 65, 0
2, 480, Note_on_c, 0, 65, 39
2, 480, Note_on_c, 0, 62, 33
2, 720, Note_on_c, 0, 62, 0
2, 720, Note_on_c, 0, 65, 0
2, 720, Note_on_c, 0, 65, 34
2, 720, Note_on_c, 0, 62, 28
2, 960, Note_on_c, 0, 62, 0
2, 960, Note_on_c, 0, 65, 0
2, 960, Note_on_c, 0, 63, 37
2, 960, Note_on_c, 0, 69, 42
2, 1200, Note_on_c, 0, 69, 0
2, 1200, Note_on_c, 0, 67, 29
2, 1440, Note_on_c, 0, 67, 0
2, 1440, Note_on_c, 0, 63, 0
2, 1440, Note_on_c, 0, 65, 29
2, 1440, Note_on_c, 0, 62, 25
2, 1800, Note_on_c, 0, 62, 0
2, 1800, Note_on_c, 0, 65, 0
2, 1920, Note_on_c, 0, 70, 53
2, 1920, Note_on_c, 0, 74, 63
2, 2160, Note_on_c, 0, 74, 0
2, 2160, Note_on_c, 0, 70, 0
2, 2160, Note_on_c, 0, 72, 54
2, 2160, Note_on_c, 0, 69, 45
2, 2400, Note_on_c, 0, 69, 0
2, 2400, Note_on_c, 0, 72, 0
2, 2400, Note_on_c, 0, 70, 57
2, 2400, Note_on_c, 0, 67, 47
2, 2640, Note_on_c, 0, 67, 0
2, 2640, Note_on_c, 0, 70, 0
2, 2640, Note_on_c, 0, 69, 49
2, 2640, Note_on_c, 0, 65, 41
2, 2860, Note_on_c, 0, 65, 0
2, 2860, Note_on_c, 0, 69, 0
2, 2880, Note_on_c, 0, 63, 42
2, 2880, Note_on_c, 0, 69, 50
2, 3120, Note_on_c, 0, 69, 0
2, 3120, Note_on_c, 0, 67, 36
2, 3360, Note_on_c, 0, 67, 0
2, 3360, Note_on_c, 0, 63, 0
2, 3360, Note_on_c, 0, 65, 39
2, 3360, Note_on_c, 0, 62, 33
2, 3720, Note_on_c, 0, 62, 0
2, 3720, Note_on_c, 0, 65, 0
2, 3840, Note_on_c, 0, 70, 53
2, 3960, Note_on_c, 0, 70, 0
2, 4080, Note_on_c, 0, 70, 45
2, 4200, Note_on_c, 0, 70, 0
2, 4560, Note_on_c, 0, 69, 50
2, 4800, Note_on_c, 0, 69, 0
2, 4800, Note_on_c, 0, 72, 58
2, 4920, Note_on_c, 0, 72, 0
2, 5040, Note_on_c, 0, 72, 50
2, 5160, Note_on_c, 0, 72, 0
2, 5520, Note_on_c, 0, 70, 61
2, 5760, Note_on_c, 0, 70, 0
2, 5760, Note_on_c, 0, 74, 64
2, 6000, Note_on_c, 0, 74, 0
2, 6000, Note_on_c, 0, 72, 58
2, 6240, Note_on_c, 0, 72, 0
2, 6240, Note_on_c, 0, 75, 64
2, 6480, Note_on_c, 0, 75, 0
2, 6480, Note_on_c, 0, 74, 58
2, 6720, Note_on_c, 0, 74, 0
2, 6720, Note_on_c, 0, 77, 69
2, 7080, Note_on_c, 0, 77, 0
2, 7080, Note_on_c, 0, 74, 38
2, 7200, Note_on_c, 0, 74, 0
2, 7200, Note_on_c, 0, 72, 47
2, 7380, Note_on_c, 0, 72, 0
2, 7680, Note_on_c, 0, 62, 35
2, 7680, Note_on_c, 0, 65, 42
2, 7920, Note_on_c, 0, 65, 0
2, 7920, Note_on_c, 0, 62, 0
2, 7920, Note_on_c, 0, 65, 31
2, 7920, Note_on_c, 0, 62, 26
2, 8160, Note_on_c, 0, 62, 0
2, 8160, Note_on_c, 0, 65, 0
2, 8160, Note_on_c, 0, 65, 39
2, 8160, Note_on_c, 0, 62, 33
2, 8400, Note_on_c, 0, 62, 0
2, 8400, Note_on_c, 0, 65, 0
2, 8400, Note_on_c, 0, 65, 34
2, 8400, Note_on_c, 0, 62, 28
2, 8640, Note_on_c, 0, 62, 0
2, 8640, Note_on_c, 0, 65, 0
2, 8640, Note_on_c, 0, 63, 37
2, 8640, Note_on_c, 0, 69, 42
2, 8880, Note_on_c, 0, 69, 0
2, 8880, Note_on_c, 0, 67, 29
2, 9120, Note_on_c, 0, 67, 0
2, 9120, Note_on_c, 0, 63, 0
2, 9120, Note_on_c, 0, 65, 33
2, 9120, Note_on_c, 0, 62, 28
2, 9480, Note_on_c, 0, 62, 0
2, 9480, Note_on_c, 0, 65, 0
2, 9600, Note_on_c, 0, 74, 59
2, 9600, Note_on_c, 0, 77, 71
2, 9840, Note_on_c, 0, 77, 0
2, 9840, Note_on_c, 0, 74, 0
2, 9840, Note_on_c, 0, 76, 54
2, 9840, Note_on_c, 0, 73, 45
2, 10080, Note_on_c, 0, 73, 0
2, 10080, Note_on_c, 0, 76, 0
2, 10080, Note_on_c, 0, 75, 57
2, 10080, Note_on_c, 0, 72, 47
2, 10320, Note_on_c, 0, 72, 0
2, 10320, Note_on_c, 0, 75, 0
2, 10320, Note_on_c, 0, 74, 49
2, 10320, Note_on_c, 0, 70, 41
2, 10560, Note_on_c, 0, 70, 0
2, 10560, Note_on_c, 0, 74, 0
2, 10560, Note_on_c, 0, 67, 42
2, 10560, Note_on_c, 0, 71, 50
2, 10800, Note_on_c, 0, 71, 0
2, 10800, Note_on_c, 0, 72, 38
2, 11040, Note_on_c, 0, 72, 0
2, 11040, Note_on_c, 0, 67, 0
2, 11040, Note_on_c, 0, 72, 39
2, 11040, Note_on_c, 0, 67, 33
2, 11520, Note_on_c, 0, 67, 0
2, 11520, Note_on_c, 0, 72, 0
2, 11520, Note_on_c, 0, 75, 45
2, 11520, Note_on_c, 0, 79, 53
2, 11641, Note_on_c, 0, 79, 0
2, 11641, Note_on_c, 0, 75, 0
2, 11760, Note_on_c, 0, 75, 37
2, 11760, Note_on_c, 0, 79, 45
2, 11881, Note_on_c, 0, 79, 0
2, 11881, Note_on_c, 0, 75, 0
2, 12240, Note_on_c, 0, 74, 50
2, 12240, Note_on_c, 0, 77, 50
2, 12480, Note_on_c, 0, 77, 0
2, 12480, Note_on_c, 0, 74, 0
2, 12480, Note_on_c, 0, 72, 49
2, 12480, Note_on_c, 0, 75, 58
2, 12601, Note_on_c, 0, 75, 0
2, 12601, Note_on_c, 0, 72, 0
2, 12720, Note_on_c, 0, 72, 42
2, 12720, Note_on_c, 0, 75, 50
2, 12841, Note_on_c, 0, 75, 0
2, 12841, Note_on_c, 0, 72, 0
2, 13200, Note_on_c, 0, 70, 51
2, 13200, Note_on_c, 0, 74, 51
2, 13440, Note_on_c, 0, 74, 0
2, 13440, Note_on_c, 0, 70, 0
2, 13440, Note_on_c, 0, 67, 54
2, 13440, Note_on_c, 0, 72, 64
2, 13561, Note_on_c, 0, 72, 0
2, 13561, Note_on_c, 0, 67, 0
2, 13680, Note_on_c, 0, 67, 49
2, 13680, Note_on_c, 0, 72, 58
2, 13801, Note_on_c, 0, 72, 0
2, 13801, Note_on_c, 0, 67, 0
2, 13920, Note_on_c, 0, 63, 54
2, 13920, Note_on_c, 0, 69, 64
2, 14041, Note_on_c, 0, 69, 0
2, 14041, Note_on_c, 0, 63, 0
2, 14160, Note_on_c, 0, 63, 49
2, 14160, Note_on_c, 0, 69, 58
2, 14281, Note_on_c, 0, 69, 0
2, 14281, Note_on_c, 0, 63, 0
2, 14400, Note_on_c, 0, 62, 58
2, 14400, Note_on_c, 0, 70, 69
2, 15360, Note_on_c, 0, 70, 0
2, 15360, Note_on_c, 0, 62, 0
2, 15360, Note_on_c, 0, 77, 54
2, 15480, Note_on_c, 0, 77, 0
2, 15480, Note_on_c, 0, 76, 56
2, 15600, Note_on_c, 0, 76, 0
2, 15600, Note_on_c, 0, 79, 62
2, 15720, Note_on_c, 0, 79, 0
2, 15720, Note_on_c, 0, 77, 60
2, 15840, Note_on_c, 0, 77, 0
2, 15840, Note_on_c, 0, 75, 67
2, 15960, Note_on_c, 0, 75, 0
2, 15960, Note_on_c, 0, 74, 62
2, 16080, Note_on_c, 0, 74, 0
2, 16080, Note_on_c, 0, 72, 62
2, 16200, Note_on_c, 0, 72, 0
2, 16200, Note_on_c, 0, 70, 58
2, 16320, Note_on_c, 0, 70, 0
2, 16320, Note_on_c, 0, 69, 52
2, 16680, Note_on_c, 0, 69, 0
2, 16680, Note_on_c, 0, 70, 48
2, 16740, Note_on_c, 0, 70, 0
2, 16740, Note_on_c, 0, 72, 45
2, 16800, Note_on_c, 0, 72, 0
2, 16800, Note_on_c, 0, 70, 54
2, 16980, Note_on_c, 0, 70, 0
2, 17280, Note_on_c, 0, 77, 54
2, 17400, Note_on_c, 0, 77, 0
2, 17400, Note_on_c, 0, 76, 56
2, 17520, Note_on_c, 0, 76, 0
2, 17520, Note_on_c, 0, 79, 62
2, 17640, Note_on_c, 0, 79, 0
2, 17640, Note_on_c, 0, 77, 60
2, 17760, Note_on_c, 0, 77, 0
2, 17760, Note_on_c, 0, 75, 66
2, 17880, Note_on_c, 0, 75, 0
2, 17880, Note_on_c, 0, 74, 63
2, 18000, Note_on_c, 0, 74, 0
2, 18000, Note_on_c, 0, 72, 58
2, 18120, Note_on_c, 0, 72, 0
2, 18120, Note_on_c, 0, 71, 53
2, 18240, Note_on_c, 0, 71, 0
2, 18240, Note_on_c, 0, 72, 49
2, 18600, Note_on_c, 0, 72, 0
2, 18600, Note_on_c, 0, 74, 45
2, 18660, Note_on_c, 0, 74, 0
2, 18660, Note_on_c, 0, 75, 42
2, 18720, Note_on_c, 0, 75, 0
2, 18720, Note_on_c, 0, 74, 51
2, 18900, Note_on_c, 0, 74, 0
2, 19200, Note_on_c, 0, 86, 51
2, 19320, Note_on_c, 0, 86, 0
2, 19320, Note_on_c, 0, 82, 45
2, 19440, Note_on_c, 0, 82, 0
2, 19440, Note_on_c, 0, 86, 51
2, 19560, Note_on_c, 0, 86, 0
2, 19560, Note_on_c, 0, 82, 45
2, 19680, Note_on_c, 0, 82, 0
2, 19680, Note_on_c, 0, 81, 51
2, 19800, Note_on_c, 0, 81, 0
2, 19800, Note_on_c, 0, 84, 45
2, 19920, Note_on_c, 0, 84, 0
2, 19920, Note_on_c, 0, 81, 51
2, 20040, Note_on_c, 0, 81, 0
2, 20040, Note_on_c, 0, 84, 46
2, 20160, Note_on_c, 0, 84, 0
2, 20160, Note_on_c, 0, 82, 51
2, 20280, Note_on_c, 0, 82, 0
2, 20280, Note_on_c, 0, 79, 45
2, 20400, Note_on_c, 0, 79, 0
2, 20400, Note_on_c, 0, 82, 51
2, 20520, Note_on_c, 0, 82, 0
2, 20520, Note_on_c, 0, 79, 47
2, 20640, Note_on_c, 0, 79, 0
2, 20640, Note_on_c, 0, 77, 51
2, 20760, Note_on_c, 0, 77, 0
2, 20760, Note_on_c, 0, 81, 46
2, 20880, Note_on_c, 0, 81, 0
2, 20880, Note_on_c, 0, 77, 51
2, 21000, Note_on_c, 0, 77, 0
2, 21000, Note_on_c, 0, 81, 46
2, 21120, Note_on_c, 0, 81, 0
2, 21120, Note_on_c, 0, 79, 55
2, 21240, Note_on_c, 0, 79, 0
2, 21240, Note_on_c, 0, 74, 47
2, 21360, Note_on_c, 0, 74, 0
2, 21360, Note_on_c, 0, 79, 54
2, 21480, Note_on_c, 0, 79, 0
2, 21480, Note_on_c, 0, 74, 51
2, 21600, Note_on_c, 0, 74, 0
2, 21600, Note_on_c, 0, 76, 58
2, 21720, Note_on_c, 0, 76, 0
2, 21720, Note_on_c, 0, 70, 51
2, 21840, Note_on_c, 0, 70, 0
2, 21840, Note_on_c, 0, 76, 62
2, 21960, Note_on_c, 0, 76, 0
2, 21960, Note_on_c, 0, 70, 57
2, 22080, Note_on_c, 0, 70, 0
2, 22080, Note_on_c, 0, 77, 68
2, 22200, Note_on_c, 0, 77, 0
2, 22200, Note_on_c, 0, 69, 62
2, 22320, Note_on_c, 0, 69, 0
2, 22320, Note_on_c, 0, 77, 69
2, 22440, Note_on_c, 0, 77, 0
2, 22440, Note_on_c, 0, 69, 62
2, 22560, Note_on_c, 0, 69, 0
2, 22560, Note_on_c, 0, 72, 69
2, 22680, Note_on_c, 0, 72, 0
2, 22680, Note_on_c, 0, 65, 62
2, 22800, Note_on_c, 0, 65, 0
2, 22800, Note_on_c, 0, 73, 69
2, 22920, Note_on_c, 0, 73, 0
2, 22920, Note_on_c, 0, 65, 64
2, 23040, Note_on_c, 0, 65, 0
2, 23040, Note_on_c, 0, 76, 72
2, 23160, Note_on_c, 0, 76, 0
2, 23160, Note_on_c, 0, 74, 68
2, 23280, Note_on_c, 0, 74, 0
2, 23280, Note_on_c, 0, 72, 69
2, 23400, Note_on_c, 0, 72, 0
2, 23400, Note_on_c, 0, 70, 66
2, 23520, Note_on_c, 0, 70, 0
2, 23520, Note_on_c, 0, 69, 64
2, 23640, Note_on_c, 0, 69, 0
2, 23640, Note_on_c, 0, 67, 63
2, 23760, Note_on_c, 0, 67, 0
2, 23760, Note_on_c, 0, 65, 61
2, 23880, Note_on_c, 0, 65, 0
2, 23880, Note_on_c, 0, 64, 56
2, 24000, Note_on_c, 0, 64, 0
2, 24000, Note_on_c, 0, 65, 62
2, 24120, Note_on_c, 0, 65, 0
2, 24120, Note_on_c, 0, 64, 48
2, 24240, Note_on_c, 0, 64, 0
2, 24240, Note_on_c, 0, 65, 55
2, 24360, Note_on_c, 0, 65, 0
2, 24360, Note_on_c, 0, 64, 43
2, 24480, Note_on_c, 0, 64, 0
2, 24480, Note_on_c, 0, 65, 48
2, 24600, Note_on_c, 0, 65, 0
2, 24600, Note_on_c, 0, 64, 34
2, 24720, Note_on_c, 0, 64, 0
2, 24720, Note_on_c, 0, 65, 40
2, 24840, Note_on_c, 0, 65, 0
2, 24840, Note_on_c, 0, 64, 30
2, 24960, Note_on_c, 0, 64, 0
2, 24960, Note_on_c, 0, 62, 31
2, 24960, Note_on_c, 0, 65, 37
2, 25200, Note_on_c, 0, 65, 0
2, 25200, Note_on_c, 0, 62, 0
2, 25200, Note_on_c, 0, 65, 31
2, 25200, Note_on_c, 0, 62, 26
2, 25440, Note_on_c, 0, 62, 0
2, 25440, Note_on_c, 0, 65, 0
2, 25440, Note_on_c, 0, 65, 39
2, 25440, Note_on_c, 0, 62, 33
2, 25680, Note_on_c, 0, 62, 0
2, 25680, Note_on_c, 0, 65, 0
2, 25680, Note_on_c, 0, 65, 34
2, 25680, Note_on_c, 0, 62, 28
2, 25920, Note_on_c, 0, 62, 0
2, 25920, Note_on_c, 0, 65, 0
2, 25920, Note_on_c, 0, 63, 37
2, 25920, Note_on_c, 0, 69, 42
2, 26160, Note_on_c, 0, 69, 0
2, 26160, Note_on_c, 0, 67, 30
2, 26400, Note_on_c, 0, 67, 0
2, 26400, Note_on_c, 0, 63, 0
2, 26400, Note_on_c, 0, 65, 29
2, 26400, Note_on_c, 0, 62, 25
2, 26760, Note_on_c, 0, 62, 0
2, 26760, Note_on_c, 0, 65, 0
2, 26880, Note_on_c, 0, 70, 62
2, 27000, Note_on_c, 0, 70, 0
2, 27000, Note_on_c, 0, 74, 44
2, 27120, Note_on_c, 0, 74, 0
2, 27120, Note_on_c, 0, 69, 56
2, 27240, Note_on_c, 0, 69, 0
2, 27240, Note_on_c, 0, 72, 44
2, 27360, Note_on_c, 0, 72, 0
2, 27360, Note_on_c, 0, 67, 54
2, 27480, Note_on_c, 0, 67, 0
2, 27480, Note_on_c, 0, 70, 38
2, 27600, Note_on_c, 0, 70, 0
2, 27600, Note_on_c, 0, 65, 50
2, 27720, Note_on_c, 0, 65, 0
2, 27720, Note_on_c, 0, 69, 38
2, 27840, Note_on_c, 0, 69, 0
2, 27840, Note_on_c, 0, 63, 42
2, 27840, Note_on_c, 0, 69, 50
2, 28080, Note_on_c, 0, 69, 0
2, 28080, Note_on_c, 0, 67, 38
2, 28320, Note_on_c, 0, 67, 0
2, 28320, Note_on_c, 0, 63, 0
2, 28320, Note_on_c, 0, 65, 39
2, 28320, Note_on_c, 0, 62, 33
2, 28680, Note_on_c, 0, 62, 0
2, 28680, Note_on_c, 0, 65, 0
2, 28800, Note_on_c, 0, 70, 53
2, 28921, Note_on_c, 0, 70, 0
2, 29040, Note_on_c, 0, 70, 40
2, 29161, Note_on_c, 0, 70, 0
2, 29520, Note_on_c, 0, 69, 50
2, 29640, Note_on_c, 0, 69, 0
2, 29640, Note_on_c, 0, 70, 46
2, 29670, Note_on_c, 0, 70, 0
2, 29670, Note_on_c, 0, 69, 40
2, 29700, Note_on_c, 0, 69, 0
2, 29700, Note_on_c, 0, 67, 47
2, 29730, Note_on_c, 0, 67, 0
2, 29730, Note_on_c, 0, 69, 40
2, 29760, Note_on_c, 0, 69, 0
2, 29760, Note_on_c, 0, 72, 58
2, 29881, Note_on_c, 0, 72, 0
2, 30000, Note_on_c, 0, 72, 45
2, 30121, Note_on_c, 0, 72, 0
2, 30480, Note_on_c, 0, 70, 55
2, 30600, Note_on_c, 0, 70, 0
2, 30600, Note_on_c, 0, 72, 53
2, 30630, Note_on_c, 0, 72, 0
2, 30630, Note_on_c, 0, 70, 47
2, 30660, Note_on_c, 0, 70, 0
2, 30660, Note_on_c, 0, 69, 56
2, 30690, Note_on_c, 0, 69, 0
2, 30690, Note_on_c, 0, 70, 49
2, 30720, Note_on_c, 0, 70, 0
2, 30720, Note_on_c, 0, 74, 64
2, 30960, Note_on_c, 0, 74, 0
2, 30960, Note_on_c, 0, 72, 58
2, 31200, Note_on_c, 0, 72, 0
2, 31200, Note_on_c, 0, 75, 64
2, 31440, Note_on_c, 0, 75, 0
2, 31440, Note_on_c, 0, 74, 58
2, 31680, Note_on_c, 0, 74, 0
2, 31680, Note_on_c, 0, 77, 69
2, 32040, Note_on_c, 0, 77, 0
2, 32040, Note_on_c, 0, 74, 38
2, 32160, Note_on_c, 0, 74, 0
2, 32160, Note_on_c, 0, 72, 47
2, 32340, Note_on_c, 0, 72, 0
2, 32640, Note_on_c, 0, 62, 29
2, 32640, Note_on_c, 0, 65, 35
2, 32880, Note_on_c, 0, 65, 0
2, 32880, Note_on_c, 0, 62, 0
2, 32880, Note_on_c, 0, 65, 23
2, 32880, Note_on_c, 0, 62, 18
2, 33120, Note_on_c, 0, 62, 0
2, 33120, Note_on_c, 0, 65, 0
2, 33120, Note_on_c, 0, 65, 29
2, 33120, Note_on_c, 0, 62, 25
2, 33360, Note_on_c, 0, 62, 0
2, 33360, Note_on_c, 0, 65, 0
2, 33360, Note_on_c, 0, 65, 25
2, 33360, Note_on_c, 0, 62, 21
2, 33600, Note_on_c, 0, 62, 0
2, 33600, Note_on_c, 0, 65, 0
2, 33600, Note_on_c, 0, 63, 31
2, 33600, Note_on_c, 0, 69, 35
2, 33840, Note_on_c, 0, 69, 0
2, 33840, Note_on_c, 0, 67, 27
2, 34080, Note_on_c, 0, 67, 0
2, 34080, Note_on_c, 0, 63, 0
2, 34080, Note_on_c, 0, 65, 28
2, 34080, Note_on_c, 0, 62, 23
2, 34560, Note_on_c, 0, 62, 0
2, 34560, Note_on_c, 0, 65, 0
2, 34560, Note_on_c, 0, 77, 49
2, 34560, Note_on_c, 0, 74, 41
2, 34800, Note_on_c, 0, 74, 0
2, 34800, Note_on_c, 0, 77, 0
2, 34800, Note_on_c, 0, 73, 31
2, 34800, Note_on_c, 0, 76, 38
2, 35040, Note_on_c, 0, 76, 0
2, 35040, Note_on_c, 0, 73, 0
2, 35040, Note_on_c, 0, 72, 46
2, 35040, Note_on_c, 0, 75, 56
2, 35280, Note_on_c, 0, 75, 0
2, 35280, Note_on_c, 0, 72, 0
2, 35280, Note_on_c, 0, 70, 41
2, 35280, Note_on_c, 0, 74, 48
2, 35520, Note_on_c, 0, 74, 0
2, 35520, Note_on_c, 0, 70, 0
2, 35520, Note_on_c, 0, 71, 66
2, 35520, Note_on_c, 0, 67, 56
2, 35760, Note_on_c, 0, 71, 0
2, 35760, Note_on_c, 0, 72, 51
2, 36000, Note_on_c, 0, 72, 0
2, 36000, Note_on_c, 0, 67, 0
2, 36000, Note_on_c, 0, 67, 39
2, 36000, Note_on_c, 0, 72, 50
2, 36480, Note_on_c, 0, 72, 0
2, 36480, Note_on_c, 0, 67, 0
2, 36480, Note_on_c, 0, 79, 51
2, 36600, Note_on_c, 0, 79, 0
2, 36600, Note_on_c, 0, 75, 45
2, 36720, Note_on_c, 0, 75, 0
2, 36720, Note_on_c, 0, 79, 51
2, 36840, Note_on_c, 0, 79, 0
2, 36840, Note_on_c, 0, 75, 45
2, 36960, Note_on_c, 0, 75, 0
2, 36960, Note_on_c, 0, 74, 51
2, 37080, Note_on_c, 0, 74, 0
2, 37080, Note_on_c, 0, 77, 45
2, 37200, Note_on_c, 0, 77, 0
2, 37200, Note_on_c, 0, 74, 51
2, 37320, Note_on_c, 0, 74, 0
2, 37320, Note_on_c, 0, 77, 46
2, 37440, Note_on_c, 0, 77, 0
2, 37440, Note_on_c, 0, 75, 51
2, 37560, Note_on_c, 0, 75, 0
2, 37560, Note_on_c, 0, 72, 45
2, 37680, Note_on_c, 0, 72, 0
2, 37680, Note_on_c, 0, 75, 51
2, 37800, Note_on_c, 0, 75, 0
2, 37800, Note_on_c, 0, 72, 47
2, 37920, Note_on_c, 0, 72, 0
2, 37920, Note_on_c, 0, 70, 51
2, 38040, Note_on_c, 0, 70, 0
2, 38040, Note_on_c, 0, 74, 46
2, 38160, Note_on_c, 0, 74, 0
2, 38160, Note_on_c, 0, 70, 51
2, 38280, Note_on_c, 0, 70, 0
2, 38280, Note_on_c, 0, 74, 46
2, 38400, Note_on_c, 0, 74, 0
2, 38400, Note_on_c, 0, 72, 55
2, 38520, Note_on_c, 0, 72, 0
2, 38520, Note_on_c, 0, 67, 47
2, 38640, Note_on_c, 0, 67, 0
2, 38640, Note_on_c, 0, 72, 54
2, 38760, Note_on_c, 0, 72, 0
2, 38760, Note_on_c, 0, 67, 51
2, 38880, Note_on_c, 0, 67, 0
2, 38880, Note_on_c, 0, 69, 65
2, 39000, Note_on_c, 0, 69, 0
2, 39000, Note_on_c, 0, 77, 58
2, 39120, Note_on_c, 0, 77, 0
2, 39120, Note_on_c, 0, 69, 71
2, 39240, Note_on_c, 0, 69, 0
2, 39240, Note_on_c, 0, 77, 63
2, 39360, Note_on_c, 0, 77, 0
2, 39360, Note_on_c, 0, 75, 73
2, 39480, Note_on_c, 0, 75, 0
2, 39480, Note_on_c, 0, 74, 66
2, 39600, Note_on_c, 0, 74, 0
2, 39600, Note_on_c, 0, 82, 72
2, 39720, Note_on_c, 0, 82, 0
2, 39720, Note_on_c, 0, 81, 68
2, 39840, Note_on_c, 0, 81, 0
2, 39840, Note_on_c, 0, 79, 68
2, 39960, Note_on_c, 0, 79, 0
2, 39960, Note_on_c, 0, 77, 65
2, 40080, Note_on_c, 0, 77, 0
2, 40080, Note_on_c, 0, 75, 63
2, 40200, Note_on_c, 0, 75, 0
2, 40200, Note_on_c, 0, 74, 63
2, 40320, Note_on_c, 0, 74, 0
2, 40320, Note_on_c, 0, 72, 55
2, 40440, Note_on_c, 0, 72, 0
2, 40440, Note_on_c, 0, 67, 47
2, 40560, Note_on_c, 0, 67, 0
2, 40560, Note_on_c, 0, 72, 54
2, 40680, Note_on_c, 0, 72, 0
2, 40680, Note_on_c, 0, 67, 51
2, 40800, Note_on_c, 0, 67, 0
2, 40800, Note_on_c, 0, 69, 65
2, 40920, Note_on_c, 0, 69, 0
2, 40920, Note_on_c, 0, 77, 58
2, 41040, Note_on_c, 0, 77, 0
2, 41040, Note_on_c, 0, 69, 71
2, 41160, Note_on_c, 0, 69, 0
2, 41160, Note_on_c, 0, 77, 63
2, 41280, Note_on_c, 0, 77, 0
2, 41280, Note_on_c, 0, 75, 73
2, 41400, Note_on_c, 0, 75, 0
2, 41400, Note_on_c, 0, 74, 66
2, 41520, Note_on_c, 0, 74, 0
2, 41520, Note_on_c, 0, 86, 72
2, 41640, Note_on_c, 0, 86, 0
2, 41640, Note_on_c, 0, 81, 68
2, 41760, Note_on_c, 0, 81, 0
2, 41760, Note_on_c, 0, 84, 68
2, 41880, Note_on_c, 0, 84, 0
2, 41880, Note_on_c, 0, 82, 65
2, 42000, Note_on_c, 0, 82, 0
2, 42000, Note_on_c, 0, 77, 63
2, 42120, Note_on_c, 0, 77, 0
2, 42120, Note_on_c, 0, 74, 63
2, 42240, Note_on_c, 0, 74, 0
2, 42240, Note_on_c, 0, 72, 77
2, 42240, Note_on_c, 0, 67, 65
2, 42480, Note_on_c, 0, 67, 0
2, 42480, Note_on_c, 0, 72, 0
2, 42480, Note_on_c, 0, 67, 61
2, 42480, Note_on_c, 0, 72, 72
2, 42720, Note_on_c, 0, 72, 0
2, 42720, Note_on_c, 0, 67, 0
2, 42720, Note_on_c, 0, 69, 78
2, 42720, Note_on_c, 0, 63, 66
2, 42960, Note_on_c, 0, 63, 0
2, 42960, Note_on_c, 0, 69, 0
2, 42960, Note_on_c, 0, 63, 60
2, 42960, Note_on_c, 0, 69, 71
2, 43200, Note_on_c, 0, 69, 0
2, 43200, Note_on_c, 0, 63, 0
2, 43200, Note_on_c, 0, 70, 80
2, 43200, Note_on_c, 0, 62, 68
2, 43680, Note_on_c, 0, 62, 0
2, 43680, Note_on_c, 0, 70, 0
2, 43680, End_track
3, 0, Start_track
3, 0, Title_t, "Piano left"
3, 0, Program_c, 0, 0
3, 0, Note_on_c, 0, 46, 33
3, 480, Note_on_c, 0, 46, 0
3, 480, Note_on_c, 0, 46, 32
3, 960, Note_on_c, 0, 46, 0
3, 960, Note_on_c, 0, 46, 35
3, 1440, Note_on_c, 0, 46, 0
3, 1440, Note_on_c, 0, 46, 25
3, 1800, Note_on_c, 0, 46, 0
3, 1920, Note_on_c, 0, 46, 55
3, 2400, Note_on_c, 0, 46, 0
3, 2400, Note_on_c, 0, 46, 45
3, 2880, Note_on_c, 0, 46, 0
3, 2880, Note_on_c, 0, 46, 42
3, 3360, Note_on_c, 0, 46, 0
3, 3360, Note_on_c, 0, 46, 33
3, 3720, Note_on_c, 0, 46, 0
3, 3840, Note_on_c, 0, 62, 35
3, 3840, Note_on_c, 0, 65, 42
3, 4320, Note_on_c, 0, 65, 0
3, 4320, Note_on_c, 0, 62, 0
3, 4320, Note_on_c, 0, 60, 31
3, 4320, Note_on_c, 0, 65, 37
3, 4800, Note_on_c, 0, 65, 0
3, 4800, Note_on_c, 0, 60, 0
3, 4800, Note_on_c, 0, 63, 35
3, 4800, Note_on_c, 0, 65, 42
3, 5280, Note_on_c, 0, 65, 0
3, 5280, Note_on_c, 0, 63, 0
3, 5280, Note_on_c, 0, 62, 31
3, 5280, Note_on_c, 0, 65, 39
3, 5760, Note_on_c, 0, 65, 0
3, 5760, Note_on_c, 0, 62, 0
3, 5760, Note_on_c, 0, 65, 48
3, 5760, Note_on_c, 0, 57, 40
3, 6240, Note_on_c, 0, 57, 0
3, 6240, Note_on_c, 0, 65, 0
3, 6240, Note_on_c, 0, 65, 42
3, 6240, Note_on_c, 0, 58, 35
3, 6720, Note_on_c, 0, 58, 0
3, 6720, Note_on_c, 0, 65, 0
3, 6720, Note_on_c, 0, 62, 55
3, 6720, Note_on_c, 0, 53, 46
3, 7080, Note_on_c, 0, 62, 0
3, 7080, Note_on_c, 0, 58, 29
3, 7200, Note_on_c, 0, 58, 0
3, 7200, Note_on_c, 0, 57, 37
3, 7380, Note_on_c, 0, 57, 0
3, 7440, Note_on_c, 0, 53, 0
3, 7680, Note_on_c, 0, 46, 33
3, 7920, Note_on_c, 0, 46, 0
3, 7920, Note_on_c, 0, 58, 23
3, 8160, Note_on_c, 0, 58, 0
3, 8160, Note_on_c, 0, 46, 32
3, 8400, Note_on_c, 0, 46, 0
3, 8400, Note_on_c, 0, 58, 22
3, 8640, Note_on_c, 0, 58, 0
3, 8640, Note_on_c, 0, 46, 35
3, 8880, Note_on_c, 0, 46, 0
3, 8880, Note_on_c, 0, 58, 23
3, 9120, Note_on_c, 0, 58, 0
3, 9120, Note_on_c, 0, 46, 28
3, 9360, Note_on_c, 0, 46, 0
3, 9360, Note_on_c, 0, 58, 22
3, 9600, Note_on_c, 0, 58, 0
3, 9600, Note_on_c, 0, 46, 55
3, 9840, Note_on_c, 0, 46, 0
3, 9840, Note_on_c, 0, 58, 42
3, 10080, Note_on_c, 0, 58, 0
3, 10080, Note_on_c, 0, 46, 45
3, 10320, Note_on_c, 0, 46, 0
3, 10320, Note_on_c, 0, 58, 34
3, 10560, Note_on_c, 0, 58, 0
3, 10560, Note_on_c, 0, 51, 42
3, 10800, Note_on_c, 0, 51, 0
3, 10800, Note_on_c, 0, 63, 33
3, 11040, Note_on_c, 0, 63, 0
3, 11040, Note_on_c, 0, 51, 33
3, 11280, Note_on_c, 0, 51, 0
3, 11280, Note_on_c, 0, 63, 26
3, 11520, Note_on_c, 0, 63, 0
3, 11520, Note_on_c, 0, 69, 42
3, 12000, Note_on_c, 0, 69, 0
3, 12000, Note_on_c, 0, 70, 42
3, 12480, Note_on_c, 0, 70, 0
3, 12480, Note_on_c, 0, 66, 42
3, 12960, Note_on_c, 0, 66, 0
3, 12960, Note_on_c, 0, 67, 42
3, 13440, Note_on_c, 0, 67, 0
3, 13440, Note_on_c, 0, 63, 48
3, 13440, Note_on_c, 0, 51, 34
3, 13561, Note_on_c, 0, 51, 0
3, 13561, Note_on_c, 0, 63, 0
3, 13680, Note_on_c, 0, 63, 40
3, 13680, Note_on_c, 0, 51, 34
3, 13801, Note_on_c, 0, 51, 0
3, 13801, Note_on_c, 0, 63, 0
3, 13920, Note_on_c, 0, 60, 42
3, 13920, Note_on_c, 0, 53, 29
3, 14041, Note_on_c, 0, 53, 0
3, 14041, Note_on_c, 0, 60, 0
3, 14160, Note_on_c, 0, 60, 37
3, 14160, Note_on_c, 0, 53, 31
3, 14281, Note_on_c, 0, 53, 0
3, 14281, Note_on_c, 0, 60, 0
3, 14400, Note_on_c, 0, 46, 45
3, 14640, Note_on_c, 0, 46, 0
3, 14640, Note_on_c, 0, 53, 33
3, 14880, Note_on_c, 0, 53, 0
3, 14880, Note_on_c, 0, 58, 38
3, 15360, Note_on_c, 0, 58, 0
3, 16320, Note_on_c, 0, 63, 31
3, 16560, Note_on_c, 0, 63, 0
3, 16560, Note_on_c, 0, 65, 24
3, 16800, Note_on_c, 0, 65, 0
3, 16800, Note_on_c, 0, 62, 33
3, 17040, Note_on_c, 0, 62, 0
3, 17040, Note_on_c, 0, 65, 23
3, 17280, Note_on_c, 0, 65, 0
3, 18240, Note_on_c, 0, 57, 29
3, 18480, Note_on_c, 0, 57, 0
3, 18480, Note_on_c, 0, 65, 23
3, 18720, Note_on_c, 0, 65, 0
3, 18720, Note_on_c, 0, 58, 31
3, 18960, Note_on_c, 0, 58, 0
3, 18960, Note_on_c, 0, 65, 25
3, 19200, Note_on_c, 0, 65, 0
3, 19440, Note_on_c, 0, 76, 40
3, 19560, Note_on_c, 0, 76, 0
3, 19920, Note_on_c, 0, 77, 40
3, 20040, Note_on_c, 0, 77, 0
3, 20400, Note_on_c, 0, 73, 40
3, 20520, Note_on_c, 0, 73, 0
3, 20880, Note_on_c, 0, 74, 40
3, 21000, Note_on_c, 0, 74, 0
3, 21120, Note_on_c, 0, 58, 37
3, 21120, Note_on_c, 0, 70, 44
3, 21240, Note_on_c, 0, 70, 0
3, 21240, Note_on_c, 0, 58, 0
3, 21360, Note_on_c, 0, 58, 36
3, 21360, Note_on_c, 0, 70, 43
3, 21480, Note_on_c, 0, 70, 0
3, 21480, Note_on_c, 0, 58, 0
3, 21600, Note_on_c, 0, 60, 39
3, 21600, Note_on_c, 0, 67, 46
3, 21720, Note_on_c, 0, 67, 0
3, 21720, Note_on_c, 0, 60, 0
3, 21840, Note_on_c, 0, 60, 41
3, 21840, Note_on_c, 0, 67, 49
3, 21960, Note_on_c, 0, 67, 0
3, 21960, Note_on_c, 0, 60, 0
3, 22080, Note_on_c, 0, 62, 45
3, 22080, Note_on_c, 0, 65, 54
3, 22200, Note_on_c, 0, 65, 0
3, 22200, Note_on_c, 0, 62, 0
3, 22320, Note_on_c, 0, 62, 46
3, 22320, Note_on_c, 0, 65, 55
3, 22440, Note_on_c, 0, 65, 0
3, 22440, Note_on_c, 0, 62, 0
3, 22560, Note_on_c, 0, 57, 61
3, 22800, Note_on_c, 0, 57, 0
3, 22800, Note_on_c, 0, 57, 54
3, 23040, Note_on_c, 0, 57, 0
3, 23040, Note_on_c, 0, 58, 62
3, 23040, Note_on_c, 0, 46, 52
3, 23280, Note_on_c, 0, 46, 0
3, 23280, Note_on_c, 0, 58, 0
3, 23280, Note_on_c, 0, 58, 46
3, 23280, Note_on_c, 0, 46, 39
3, 23520, Note_on_c, 0, 46, 0
3, 23520, Note_on_c, 0, 58, 0
3, 23520, Note_on_c, 0, 60, 56
3, 23520, Note_on_c, 0, 48, 47
3, 23760, Note_on_c, 0, 48, 0
3, 23760, Note_on_c, 0, 60, 0
3, 23760, Note_on_c, 0, 60, 38
3, 23760, Note_on_c, 0, 48, 32
3, 24000, Note_on_c, 0, 48, 0
3, 24000, Note_on_c, 0, 60, 0
3, 24000, Note_on_c, 0, 53, 49
3, 24000, Note_on_c, 0, 41, 41
3, 24960, Note_on_c, 0, 41, 0
3, 24960, Note_on_c, 0, 53, 0
3, 24960, Note_on_c, 0, 46, 33
3, 25440, Note_on_c, 0, 46, 0
3, 25440, Note_on_c, 0, 46, 32
3, 25920, Note_on_c, 0, 46, 0
3, 25920, Note_on_c, 0, 46, 35
3, 26400, Note_on_c, 0, 46, 0
3, 26400, Note_on_c, 0, 46, 25
3, 26760, Note_on_c, 0, 46, 0
3, 26880, Note_on_c, 0, 46, 48
3, 27360, Note_on_c, 0, 46, 0
3, 27360, Note_on_c, 0, 46, 42
3, 27840, Note_on_c, 0, 46, 0
3, 27840, Note_on_c, 0, 46, 42
3, 28320, Note_on_c, 0, 46, 0
3, 28320, Note_on_c, 0, 46, 33
3, 28680, Note_on_c, 0, 46, 0
3, 28800, Note_on_c, 0, 62, 35
3, 28800, Note_on_c, 0, 65, 42
3, 29280, Note_on_c, 0, 65, 0
3, 29280, Note_on_c, 0, 62, 0
3, 29280, Note_on_c, 0, 60, 31
3, 29280, Note_on_c, 0, 65, 37
3, 29760, Note_on_c, 0, 65, 0
3, 29760, Note_on_c, 0, 60, 0
3, 29760, Note_on_c, 0, 63, 35
3, 29760, Note_on_c, 0, 65, 42
3, 30240, Note_on_c, 0, 65, 0
3, 30240, Note_on_c, 0, 63, 0
3, 30240, Note_on_c, 0, 62, 31
3, 30240, Note_on_c, 0, 65, 37
3, 30720, Note_on_c, 0, 65, 0
3, 30720, Note_on_c, 0, 62, 0
3, 30720, Note_on_c, 0, 65, 48
3, 30720, Note_on_c, 0, 57, 40
3, 31200, Note_on_c, 0, 57, 0
3, 31200, Note_on_c, 0, 65, 0
3, 31200, Note_on_c, 0, 65, 42
3, 31200, Note_on_c, 0, 58, 35
3, 31680, Note_on_c, 0, 58, 0
3, 31680, Note_on_c, 0, 65, 0
3, 31680, Note_on_c, 0, 62, 55
3, 31680, Note_on_c, 0, 53, 46
3, 32040, Note_on_c, 0, 62, 0
3, 32040, Note_on_c, 0, 58, 29
3, 32160, Note_on_c, 0, 58, 0
3, 32160, Note_on_c, 0, 57, 37
3, 32340, Note_on_c, 0, 57, 0
3, 32400, Note_on_c, 0, 53, 0
3, 32640, Note_on_c, 0, 46, 28
3, 32760, Note_on_c, 0, 46, 0
3, 32760, Note_on_c, 0, 58, 22
3, 32880, Note_on_c, 0, 58, 0
3, 32880, Note_on_c, 0, 46, 21
3, 33000, Note_on_c, 0, 46, 0
3, 33000, Note_on_c, 0, 58, 17
3, 33120, Note_on_c, 0, 58, 0
3, 33120, Note_on_c, 0, 46, 24
3, 33240, Note_on_c, 0, 46, 0
3, 33240, Note_on_c, 0, 58, 18
3, 33360, Note_on_c, 0, 58, 0
3, 33360, Note_on_c, 0, 46, 20
3, 33480, Note_on_c, 0, 46, 0
3, 33480, Note_on_c, 0, 58, 16
3, 33600, Note_on_c, 0, 58, 0
3, 33600, Note_on_c, 0, 46, 29
3, 33720, Note_on_c, 0, 46, 0
3, 33720, Note_on_c, 0, 58, 23
3, 33840, Note_on_c, 0, 58, 0
3, 33840, Note_on_c, 0, 46, 25
3, 33960, Note_on_c, 0, 46, 0
3, 33960, Note_on_c, 0, 58, 20
3, 34080, Note_on_c, 0, 58, 0
3, 34080, Note_on_c, 0, 46, 23
3, 34200, Note_on_c, 0, 46, 0
3, 34200, Note_on_c, 0, 58, 18
3, 34320, Note_on_c, 0, 58, 0
3, 34320, Note_on_c, 0, 46, 23
3, 34440, Note_on_c, 0, 46, 0
3, 34440, Note_on_c, 0, 58, 18
3, 34560, Note_on_c, 0, 58, 0
3, 34560, Note_on_c, 0, 46, 37
3, 34680, Note_on_c, 0, 46, 0
3, 34680, Note_on_c, 0, 58, 28
3, 34800, Note_on_c, 0, 58, 0
3, 34800, Note_on_c, 0, 46, 38
3, 34920, Note_on_c, 0, 46, 0
3, 34920, Note_on_c, 0, 58, 33
3, 35040, Note_on_c, 0, 58, 0
3, 35040, Note_on_c, 0, 48, 44
3, 35160, Note_on_c, 0, 48, 0
3, 35160, Note_on_c, 0, 60, 35
3, 35280, Note_on_c, 0, 60, 0
3, 35280, Note_on_c, 0, 50, 47
3, 35400, Note_on_c, 0, 50, 0
3, 35400, Note_on_c, 0, 62, 44
3, 35520, Note_on_c, 0, 62, 0
3, 35520, Note_on_c, 0, 51, 56
3, 35640, Note_on_c, 0, 51, 0
3, 35640, Note_on_c, 0, 63, 40
3, 35760, Note_on_c, 0, 63, 0
3, 35760, Note_on_c, 0, 51, 51
3, 35880, Note_on_c, 0, 51, 0
3, 35880, Note_on_c, 0, 63, 35
3, 36000, Note_on_c, 0, 63, 0
3, 36000, Note_on_c, 0, 51, 28
3, 36120, Note_on_c, 0, 51, 0
3, 36120, Note_on_c, 0, 63, 22
3, 36240, Note_on_c, 0, 63, 0
3, 36240, Note_on_c, 0, 51, 28
3, 36360, Note_on_c, 0, 51, 0
3, 36360, Note_on_c, 0, 63, 22
3, 36480, Note_on_c, 0, 63, 0
3, 36720, Note_on_c, 0, 69, 40
3, 36840, Note_on_c, 0, 69, 0
3, 37200, Note_on_c, 0, 70, 40
3, 37320, Note_on_c, 0, 70, 0
3, 37680, Note_on_c, 0, 66, 40
3, 37800, Note_on_c, 0, 66, 0
3, 38160, Note_on_c, 0, 67, 40
3, 38280, Note_on_c, 0, 67, 0
3, 38400, Note_on_c, 0, 51, 37
3, 38400, Note_on_c, 0, 63, 44
3, 38520, Note_on_c, 0, 63, 0
3, 38520, Note_on_c, 0, 51, 0
3, 38640, Note_on_c, 0, 51, 36
3, 38640, Note_on_c, 0, 63, 43
3, 38760, Note_on_c, 0, 63, 0
3, 38760, Note_on_c, 0, 51, 0
3, 38880, Note_on_c, 0, 53, 39
3, 38880, Note_on_c, 0, 60, 46
3, 39000, Note_on_c, 0, 60, 0
3, 39000, Note_on_c, 0, 53, 0
3, 39120, Note_on_c, 0, 53, 41
3, 39120, Note_on_c, 0, 60, 49
3, 39240, Note_on_c, 0, 60, 0
3, 39240, Note_on_c, 0, 53, 0
3, 39360, Note_on_c, 0, 62, 50
3, 39360, Note_on_c, 0, 58, 44
3, 39840, Note_on_c, 0, 58, 0
3, 39840, Note_on_c, 0, 62, 0
3, 40320, Note_on_c, 0, 51, 37
3, 40320, Note_on_c, 0, 63, 44
3, 40440, Note_on_c, 0, 63, 0
3, 40440, Note_on_c, 0, 51, 0
3, 40560, Note_on_c, 0, 51, 36
3, 40560, Note_on_c, 0, 63, 43
3, 40680, Note_on_c, 0, 63, 0
3, 40680, Note_on_c, 0, 51, 0
3, 40800, Note_on_c, 0, 53, 39
3, 40800, Note_on_c, 0, 60, 46
3, 40920, Note_on_c, 0, 60, 0
3, 40920, Note_on_c, 0, 53, 0
3, 41040, Note_on_c, 0, 53, 41
3, 41040, Note_on_c, 0, 60, 49
3, 41160, Note_on_c, 0, 60, 0
3, 41160, Note_on_c, 0, 53, 0
3, 41280, Note_on_c, 0, 58, 44
3, 41280, Note_on_c, 0, 62, 50
3, 41760, Note_on_c, 0, 62, 0
3, 41760, Note_on_c, 0, 58, 0
3, 42240, Note_on_c, 0, 39, 57
3, 42360, Note_on_c, 0, 39, 0
3, 42360, Note_on_c, 0, 51, 44
3, 42480, Note_on_c, 0, 51, 0
3, 42480, Note_on_c, 0, 39, 50
3, 42600, Note_on_c, 0, 39, 0
3, 42600, Note_on_c, 0, 51, 44
3, 42720, Note_on_c, 0, 51, 0
3, 42720, Note_on_c, 0, 41, 57
3, 42840, Note_on_c, 0, 41, 0
3, 42840, Note_on_c, 0, 53, 44
3, 42960, Note_on_c, 0, 53, 0
3, 42960, Note_on_c, 0, 41, 51
3, 43080, Note_on_c, 0, 41, 0
3, 43080, Note_on_c, 0, 53, 51
3, 43200, Note_on_c, 0, 53, 0
3, 43200, Note_on_c, 0, 46, 62
3, 43200, Note_on_c, 0, 41, 52
3, 43200, Note_on_c, 0, 34, 46
3, 43680, Note_on_c, 0, 34, 0
3, 43680, Note_on_c, 0, 41, 0
3, 43680, Note_on_c, 0, 46, 0
3, 43680, End_track
4, 0, Start_track
4, 0, Title_t, "Pedale"
4, 0, Program_c, 0, 0
4, 113, Control_c, 0, 64, 127
4, 960, Control_c, 0, 64, 0
4, 6773, Control_c, 0, 64, 127
4, 7211, Control_c, 0, 64, 0
4, 7751, Control_c, 0, 64, 127
4, 8659, Control_c, 0, 64, 0
4, 14499, Control_c, 0, 64, 127
4, 15371, Control_c, 0, 64, 0
4, 25116, Control_c, 0, 64, 127
4, 25941, Control_c, 0, 64, 0
4, 26894, Control_c, 0, 64, 127
4, 27132, Control_c, 0, 64, 0
4, 27198, Control_c, 0, 64, 127
4, 27368, Control_c, 0, 64, 0
4, 27431, Control_c, 0, 64, 127
4, 27616, Control_c, 0, 64, 0
4, 27671, Control_c, 0, 64, 127
4, 27844, Control_c, 0, 64, 0
4, 29318, Control_c, 0, 64, 127
4, 29768, Control_c, 0, 64, 0
4, 30297, Control_c, 0, 64, 127
4, 30733, Control_c, 0, 64, 0
4, 31740, Control_c, 0, 64, 127
4, 32173, Control_c, 0, 64, 0
4, 32718, Control_c, 0, 64, 127
4, 33607, Control_c, 0, 64, 0
4, 33685, Control_c, 0, 64, 127
4, 33847, Control_c, 0, 64, 0
4, 33897, Control_c, 0, 64, 127
4, 34099, Control_c, 0, 64, 0
4, 34151, Control_c, 0, 64, 127
4, 34560, Control_c, 0, 64, 0
4, 34624, Control_c, 0, 64, 127
4, 34806, Control_c, 0, 64, 0
4, 34871, Control_c, 0, 64, 127
4, 35057, Control_c, 0, 64, 0
4, 35104, Control_c, 0, 64, 127
4, 35293, Control_c, 0, 64, 0
4, 35351, Control_c, 0, 64, 127
4, 35525, Control_c, 0, 64, 0
4, 35577, Control_c, 0, 64, 127
4, 35775, Control_c, 0, 64, 0
4, 35873, Control_c, 0, 64, 127
4, 36016, Control_c, 0, 64, 0
4, 36127, Control_c, 0, 64, 127
4, 36480, Control_c, 0, 64, 0
4, 38428, Control_c, 0, 64, 127
4, 38530, Control_c, 0, 64, 0
4, 38676, Control_c, 0, 64, 127
4, 38770, Control_c, 0, 64, 0
4, 38923, Control_c, 0, 64, 127
4, 39014, Control_c, 0, 64, 0
4, 39177, Control_c, 0, 64, 127
4, 39255, Control_c, 0, 64, 0
4, 40363, Control_c, 0, 64, 127
4, 40458, Control_c, 0, 64, 0
4, 40603, Control_c, 0, 64, 127
4, 40698, Control_c, 0, 64, 0
4, 40843, Control_c, 0, 64, 127
4, 40938, Control_c, 0, 64, 0
4, 41090, Control_c, 0, 64, 127
4, 41171, Control_c, 0, 64, 0
4, 42325, Control_c, 0, 64, 127
4, 42734, Control_c, 0, 64, 0
4, 42812, Control_c, 0, 64, 127
4, 43200, Control_c, 0, 64, 0
4, 43414, Control_c, 0, 64, 127
4, 44160, Control_c, 0, 64, 0
4, 44160, End_track
5, 0, Start_track
5, 0, Title_t, "Clementi: Sonatatina Opus 36, No. 4, 2. movement"
5, 0, End_track
6, 0, Start_track
6, 0, Title_t, "Copyright © 2010 by Bernd Krueger"
6, 0, End_track
7, 0, Start_track
7, 0, Title_t, "http://www.piano-midi.de/"
7, 0, End_track
8, 0, Start_track
8, 0, Title_t, "Edition: 2011-10-09"
8, 0, End_track
9, 0, Start_track
9, 0, Title_t, "Spur 8"
9, 0, End_track
10, 0, Start_track
10, 0, Title_t, "Spur 9"
10, 0, End_track
11, 0, Start_track
11, 0, Title_t, "Spur 10"
11, 0, End_track
12, 0, Start_track
12, 0, Title_t, "Spur 11"
12, 0, End_track
13, 0, Start_track
13, 0, Title_t, "Spur 12"
13, 0, End_track
14, 0, Start_track
14, 0, Title_t, "Spur 13"
14, 0, End_track
15, 0, Start_track
15, 0, Title_t, "Spur 14"
15, 0, End_track
16, 0, Start_track
16, 0, Title_t, "Spur 15"
16, 0, End_track
17, 0, Start_track
17, 0, Title_t, "Spur 16"
17, 0, End_track
0, 0, End_of_file
