0, 0, Header, 1, 17, 480
1, 0, Start_track
1, 0, Title_t, "Clementi: Sonatine Opus 36 Nr. 3, 3. Satz"
1, 0, Copyright_t, "Copyright © 2010 by Bernd Krueger"
1, 0, Text_t, "Muzio Clementi"
1, 0, Text_t, "Allegro"
1, 0, Text_t, "Erstellt:  18.12.2010\012"
1, 0, Text_t, "Dauer: 1:19 Minuten\012"
1, 0, Time_signature, 2, 2, 24, 8
1, 0, Key_signature, 0, "major"
1, 0, Tempo, 480038
1, 720, Tempo, 498215
1, 960, Tempo, 466962
1, 1440, Tempo, 476342
1, 1680, Tempo, 504329
1, 1920, Tempo, 470625
1, 2280, Tempo, 489836
1, 2400, Tempo, 476228
1, 2640, Tempo, 478164
1, 2760, Tempo, 514845
1, 2880, Tempo, 484535
1, 3360, Tempo, 497141
1, 3840, Tempo, 466273
1, 4680, Tempo, 498215
1, 4800, Tempo, 464504
1, 5640, Tempo, 504329
1, 5760, Tempo, 462749
1, 6600, Tempo, 500250
1, 6700, Tempo, 486460
1, 6740, Tempo, 484535
1, 6760, Tempo, 482664
1, 6800, Tempo, 480769
1, 6820, Tempo, 478927
1, 6840, Tempo, 477061
1, 6880, Tempo, 475210
1, 6900, Tempo, 473410
1, 6920, Tempo, 471587
1, 6960, Tempo, 469814
1, 6980, Tempo, 468019
1, 7020, Tempo, 466273
1, 7040, Tempo, 464504
1, 7060, Tempo, 462749
1, 7100, Tempo, 461042
1, 7120, Tempo, 459313
1, 7140, Tempo, 457631
1, 7220, Tempo, 455927
1, 7240, Tempo, 457631
1, 7260, Tempo, 459313
1, 7280, Tempo, 461042
1, 7300, Tempo, 462749
1, 7320, Tempo, 464504
1, 7340, Tempo, 466273
1, 7360, Tempo, 468019
1, 7380, Tempo, 469814
1, 7400, Tempo, 471587
1, 7420, Tempo, 473410
1, 7440, Tempo, 475210
1, 7460, Tempo, 477061
1, 7480, Tempo, 478927
1, 7500, Tempo, 480769
1, 7520, Tempo, 482664
1, 7540, Tempo, 484535
1, 7560, Tempo, 486460
1, 7580, Tempo, 488361
1, 7600, Tempo, 490316
1, 7620, Tempo, 494234
1, 7680, Tempo, 478164
1, 8400, Tempo, 496237
1, 8640, Tempo, 473597
1, 9120, Tempo, 473597
1, 9360, Tempo, 498215
1, 9600, Tempo, 466237
1, 9960, Tempo, 468055
1, 10080, Tempo, 476228
1, 10320, Tempo, 477061
1, 10440, Tempo, 532576
1, 10560, Tempo, 488361
1, 11040, Tempo, 499210
1, 11520, Tempo, 475210
1, 12360, Tempo, 516974
1, 12480, Tempo, 473410
1, 13320, Tempo, 514845
1, 13440, Tempo, 490316
1, 13480, Tempo, 488361
1, 13520, Tempo, 486460
1, 13560, Tempo, 484535
1, 13580, Tempo, 482664
1, 13620, Tempo, 480769
1, 13660, Tempo, 478927
1, 13680, Tempo, 477061
1, 13720, Tempo, 475210
1, 13760, Tempo, 473410
1, 13780, Tempo, 471587
1, 13820, Tempo, 469814
1, 13860, Tempo, 468019
1, 13880, Tempo, 466273
1, 13920, Tempo, 468019
1, 13940, Tempo, 469814
1, 13960, Tempo, 471587
1, 13980, Tempo, 473410
1, 14000, Tempo, 475210
1, 14040, Tempo, 477061
1, 14060, Tempo, 478927
1, 14080, Tempo, 480769
1, 14100, Tempo, 482664
1, 14120, Tempo, 484535
1, 14160, Tempo, 486460
1, 14180, Tempo, 488361
1, 14200, Tempo, 490316
1, 14220, Tempo, 492287
1, 14240, Tempo, 494234
1, 14280, Tempo, 496237
1, 14300, Tempo, 498215
1, 14320, Tempo, 500250
1, 14340, Tempo, 502260
1, 14360, Tempo, 504329
1, 14400, Tempo, 477365
1, 15120, Tempo, 510595
1, 15360, Tempo, 487053
1, 16080, Tempo, 502260
1, 16320, Tempo, 459313
1, 16680, Tempo, 554068
1, 16800, Tempo, 469814
1, 17040, Tempo, 502260
1, 17280, Tempo, 469814
1, 17760, Tempo, 490316
1, 18000, Tempo, 525440
1, 18240, Tempo, 492287
1, 19200, Tempo, 475473
1, 19920, Tempo, 489037
1, 20160, Tempo, 480769
1, 20400, Tempo, 493868
1, 20520, Tempo, 541956
1, 20640, Tempo, 478927
1, 21120, Tempo, 469814
1, 21600, Tempo, 505519
1, 21840, Tempo, 537201
1, 22080, Tempo, 492287
1, 22560, Tempo, 509814
1, 23040, Tempo, 480769
1, 23520, Tempo, 469814
1, 23760, Tempo, 502260
1, 24000, Tempo, 459313
1, 24360, Tempo, 554068
1, 24480, Tempo, 469814
1, 24720, Tempo, 502260
1, 24960, Tempo, 469814
1, 25440, Tempo, 505519
1, 25680, Tempo, 519166
1, 25920, Tempo, 492287
1, 26400, Tempo, 505519
1, 26880, Tempo, 482664
1, 27360, Tempo, 468019
1, 27600, Tempo, 502260
1, 27840, Tempo, 466273
1, 28200, Tempo, 508475
1, 28320, Tempo, 464504
1, 28680, Tempo, 500250
1, 28800, Tempo, 464504
1, 29640, Tempo, 514845
1, 29760, Tempo, 464504
1, 29800, Tempo, 466273
1, 29900, Tempo, 464504
1, 30000, Tempo, 462749
1, 30100, Tempo, 461042
1, 30180, Tempo, 459313
1, 30260, Tempo, 461042
1, 30320, Tempo, 462749
1, 30380, Tempo, 464504
1, 30460, Tempo, 466273
1, 30520, Tempo, 468019
1, 30580, Tempo, 469814
1, 30600, Tempo, 512689
1, 30720, Tempo, 464504
1, 31560, Tempo, 514845
1, 31680, Tempo, 464504
1, 31720, Tempo, 466273
1, 31820, Tempo, 464504
1, 31920, Tempo, 462749
1, 32020, Tempo, 461042
1, 32100, Tempo, 459313
1, 32180, Tempo, 461042
1, 32240, Tempo, 462749
1, 32300, Tempo, 464504
1, 32380, Tempo, 466273
1, 32440, Tempo, 468019
1, 32500, Tempo, 469814
1, 32520, Tempo, 512689
1, 32640, Tempo, 464504
1, 33480, Tempo, 514845
1, 33600, Tempo, 475210
1, 33960, Tempo, 516974
1, 34080, Tempo, 475210
1, 34440, Tempo, 519166
1, 34560, Tempo, 486460
1, 34920, Tempo, 566786
1, 35040, Tempo, 528030
1, 35400, Tempo, 702083
1, 35520, Tempo, 584283
1, 36000, Tempo, 475210
1, 36360, Tempo, 519166
1, 36480, Tempo, 508475
1, 36960, Tempo, 475210
1, 37320, Tempo, 519166
1, 37440, Tempo, 508475
1, 38160, Tempo, 534902
1, 38400, Tempo, 508475
1, 38880, Tempo, 519166
1, 39120, Tempo, 588408
1, 39360, Tempo, 559076
1, 39840, Tempo, 594059
1, 40080, Tempo, 617792
1, 40320, Tempo, 506372
1, 40782, Tempo, 510595
1, 40962, Tempo, 512689
1, 41122, Tempo, 514845
1, 41222, Tempo, 514845
1, 41302, Tempo, 516974
1, 41382, Tempo, 519166
1, 41462, Tempo, 521331
1, 41522, Tempo, 523560
1, 41602, Tempo, 525808
1, 41682, Tempo, 528030
1, 41742, Tempo, 530316
1, 41762, Tempo, 554068
1, 42000, Tempo, 599820
1, 42240, Tempo, 489037
1, 42960, Tempo, 503398
1, 43200, Tempo, 468055
1, 43440, Tempo, 475473
1, 43680, Tempo, 477365
1, 43920, Tempo, 493056
1, 44160, Tempo, 468055
1, 44520, Tempo, 472478
1, 44640, Tempo, 472478
1, 44880, Tempo, 478164
1, 45000, Tempo, 514845
1, 45120, Tempo, 484535
1, 46080, Tempo, 466273
1, 46920, Tempo, 498215
1, 47040, Tempo, 464504
1, 47880, Tempo, 504329
1, 48000, Tempo, 462749
1, 48840, Tempo, 500250
1, 48940, Tempo, 486460
1, 48980, Tempo, 484535
1, 49000, Tempo, 482664
1, 49040, Tempo, 480769
1, 49060, Tempo, 478927
1, 49080, Tempo, 477061
1, 49120, Tempo, 475210
1, 49140, Tempo, 473410
1, 49160, Tempo, 471587
1, 49200, Tempo, 469814
1, 49220, Tempo, 468019
1, 49260, Tempo, 466273
1, 49280, Tempo, 464504
1, 49300, Tempo, 462749
1, 49340, Tempo, 461042
1, 49360, Tempo, 459313
1, 49380, Tempo, 457631
1, 49460, Tempo, 455927
1, 49480, Tempo, 457631
1, 49500, Tempo, 459313
1, 49520, Tempo, 461042
1, 49540, Tempo, 462749
1, 49560, Tempo, 464504
1, 49580, Tempo, 466273
1, 49600, Tempo, 468019
1, 49620, Tempo, 469814
1, 49640, Tempo, 471587
1, 49660, Tempo, 473410
1, 49680, Tempo, 475210
1, 49700, Tempo, 477061
1, 49720, Tempo, 478927
1, 49740, Tempo, 480769
1, 49760, Tempo, 482664
1, 49780, Tempo, 484535
1, 49800, Tempo, 486460
1, 49820, Tempo, 488361
1, 49840, Tempo, 490316
1, 49860, Tempo, 494234
1, 49920, Tempo, 472664
1, 50640, Tempo, 496237
1, 50880, Tempo, 469888
1, 51360, Tempo, 474496
1, 51600, Tempo, 498215
1, 51840, Tempo, 466962
1, 52200, Tempo, 466962
1, 52320, Tempo, 472478
1, 52440, Tempo, 472478
1, 52560, Tempo, 477061
1, 52680, Tempo, 532576
1, 52800, Tempo, 488361
1, 53760, Tempo, 475210
1, 54600, Tempo, 516974
1, 54720, Tempo, 473410
1, 55560, Tempo, 514845
1, 55680, Tempo, 490316
1, 55720, Tempo, 488361
1, 55760, Tempo, 486460
1, 55800, Tempo, 484535
1, 55820, Tempo, 482664
1, 55860, Tempo, 480769
1, 55900, Tempo, 478927
1, 55920, Tempo, 477061
1, 55960, Tempo, 475210
1, 56000, Tempo, 473410
1, 56020, Tempo, 471587
1, 56060, Tempo, 469814
1, 56100, Tempo, 468019
1, 56120, Tempo, 466273
1, 56160, Tempo, 468019
1, 56180, Tempo, 469814
1, 56200, Tempo, 471587
1, 56220, Tempo, 473410
1, 56240, Tempo, 475210
1, 56280, Tempo, 477061
1, 56300, Tempo, 478927
1, 56320, Tempo, 480769
1, 56340, Tempo, 482664
1, 56360, Tempo, 484535
1, 56400, Tempo, 486460
1, 56420, Tempo, 488361
1, 56440, Tempo, 490316
1, 56460, Tempo, 492287
1, 56480, Tempo, 494234
1, 56520, Tempo, 496237
1, 56540, Tempo, 498215
1, 56560, Tempo, 500250
1, 56580, Tempo, 502260
1, 56600, Tempo, 504329
1, 56620, Tempo, 506372
1, 56640, Tempo, 471587
1, 57360, Tempo, 510595
1, 57600, Tempo, 487053
1, 58320, Tempo, 502260
1, 58560, Tempo, 459313
1, 58920, Tempo, 554068
1, 59040, Tempo, 469814
1, 59280, Tempo, 502260
1, 59520, Tempo, 469814
1, 60000, Tempo, 495090
1, 60240, Tempo, 532434
1, 60480, Tempo, 492287
1, 61440, Tempo, 469814
1, 61920, Tempo, 490316
1, 62160, Tempo, 519166
1, 62400, Tempo, 469814
1, 62880, Tempo, 475473
1, 63120, Tempo, 483131
1, 63360, Tempo, 469814
1, 63840, Tempo, 490316
1, 64080, Tempo, 519166
1, 64737, Tempo, 488361
1, 64797, Tempo, 490316
1, 64837, Tempo, 492287
1, 64877, Tempo, 494234
1, 64937, Tempo, 496237
1, 64977, Tempo, 498215
1, 65017, Tempo, 500250
1, 65160, Tempo, 574713
1, 65280, Tempo, 481193
1, 66000, Tempo, 502260
1, 66240, Tempo, 467326
1, 66600, Tempo, 554068
1, 66720, Tempo, 469814
1, 66960, Tempo, 502260
1, 67200, Tempo, 469814
1, 67680, Tempo, 499210
1, 67920, Tempo, 530082
1, 68160, Tempo, 492287
1, 69000, Tempo, 492287
1, 69120, Tempo, 483131
1, 69840, Tempo, 485084
1, 70080, Tempo, 469814
1, 70560, Tempo, 490316
1, 70800, Tempo, 519166
1, 71040, Tempo, 469814
1, 71520, Tempo, 490316
1, 71760, Tempo, 519166
1, 72000, Tempo, 487053
1, 72840, Tempo, 514183
1, 72960, Tempo, 483131
1, 73440, Tempo, 495090
1, 73800, Tempo, 509814
1, 73920, Tempo, 475473
1, 74400, Tempo, 483131
1, 74760, Tempo, 514845
1, 74880, Tempo, 485084
1, 75000, Tempo, 485084
1, 75360, Tempo, 495090
1, 75720, Tempo, 520879
1, 75840, Tempo, 471735
1, 76320, Tempo, 468055
1, 76560, Tempo, 455615
1, 76800, Tempo, 448799
1, 77040, Tempo, 435761
1, 77280, Tempo, 452182
1, 77640, Tempo, 549501
1, 77760, Tempo, 459102
1, 77760, End_track
2, 0, Start_track
2, 0, Title_t, "Piano right"
2, 0, Program_c, 0, 0
2, 0, Note_on_c, 0, 72, 60
2, 720, Note_on_c, 0, 72, 0
2, 720, Note_on_c, 0, 76, 56
2, 960, Note_on_c, 0, 76, 0
2, 960, Note_on_c, 0, 74, 60
2, 1080, Note_on_c, 0, 74, 0
2, 1080, Note_on_c, 0, 72, 57
2, 1200, Note_on_c, 0, 72, 0
2, 1200, Note_on_c, 0, 71, 57
2, 1320, Note_on_c, 0, 71, 0
2, 1320, Note_on_c, 0, 74, 57
2, 1440, Note_on_c, 0, 74, 0
2, 1440, Note_on_c, 0, 72, 60
2, 1560, Note_on_c, 0, 72, 0
2, 1920, Note_on_c, 0, 72, 60
2, 2040, Note_on_c, 0, 72, 0
2, 2040, Note_on_c, 0, 74, 55
2, 2160, Note_on_c, 0, 74, 0
2, 2160, Note_on_c, 0, 72, 55
2, 2280, Note_on_c, 0, 72, 0
2, 2280, Note_on_c, 0, 71, 55
2, 2400, Note_on_c, 0, 71, 0
2, 2400, Note_on_c, 0, 72, 60
2, 2520, Note_on_c, 0, 72, 0
2, 2520, Note_on_c, 0, 74, 56
2, 2640, Note_on_c, 0, 74, 0
2, 2640, Note_on_c, 0, 76, 58
2, 2760, Note_on_c, 0, 76, 0
2, 2760, Note_on_c, 0, 77, 63
2, 2880, Note_on_c, 0, 77, 0
2, 2880, Note_on_c, 0, 79, 68
2, 3000, Note_on_c, 0, 79, 0
2, 3120, Note_on_c, 0, 79, 63
2, 3240, Note_on_c, 0, 79, 0
2, 3360, Note_on_c, 0, 79, 60
2, 3480, Note_on_c, 0, 79, 0
2, 3840, Note_on_c, 0, 84, 59
2, 3960, Note_on_c, 0, 84, 0
2, 3960, Note_on_c, 0, 86, 61
2, 4080, Note_on_c, 0, 86, 0
2, 4080, Note_on_c, 0, 88, 66
2, 4200, Note_on_c, 0, 88, 0
2, 4200, Note_on_c, 0, 86, 63
2, 4320, Note_on_c, 0, 86, 0
2, 4320, Note_on_c, 0, 84, 63
2, 4440, Note_on_c, 0, 84, 0
2, 4440, Note_on_c, 0, 83, 62
2, 4560, Note_on_c, 0, 83, 0
2, 4560, Note_on_c, 0, 81, 62
2, 4680, Note_on_c, 0, 81, 0
2, 4680, Note_on_c, 0, 79, 61
2, 4800, Note_on_c, 0, 79, 0
2, 4800, Note_on_c, 0, 77, 62
2, 4920, Note_on_c, 0, 77, 0
2, 4920, Note_on_c, 0, 83, 65
2, 5040, Note_on_c, 0, 83, 0
2, 5040, Note_on_c, 0, 86, 69
2, 5160, Note_on_c, 0, 86, 0
2, 5160, Note_on_c, 0, 84, 66
2, 5280, Note_on_c, 0, 84, 0
2, 5280, Note_on_c, 0, 83, 64
2, 5400, Note_on_c, 0, 83, 0
2, 5400, Note_on_c, 0, 81, 63
2, 5520, Note_on_c, 0, 81, 0
2, 5520, Note_on_c, 0, 79, 62
2, 5640, Note_on_c, 0, 79, 0
2, 5640, Note_on_c, 0, 77, 59
2, 5760, Note_on_c, 0, 77, 0
2, 5760, Note_on_c, 0, 76, 58
2, 5880, Note_on_c, 0, 76, 0
2, 5880, Note_on_c, 0, 79, 58
2, 6000, Note_on_c, 0, 79, 0
2, 6000, Note_on_c, 0, 84, 61
2, 6120, Note_on_c, 0, 84, 0
2, 6120, Note_on_c, 0, 83, 62
2, 6240, Note_on_c, 0, 83, 0
2, 6240, Note_on_c, 0, 81, 58
2, 6360, Note_on_c, 0, 81, 0
2, 6360, Note_on_c, 0, 79, 57
2, 6480, Note_on_c, 0, 79, 0
2, 6480, Note_on_c, 0, 77, 56
2, 6600, Note_on_c, 0, 77, 0
2, 6600, Note_on_c, 0, 76, 54
2, 6720, Note_on_c, 0, 76, 0
2, 6720, Note_on_c, 0, 74, 61
2, 6960, Note_on_c, 0, 74, 0
2, 7200, Note_on_c, 0, 79, 59
2, 7320, Note_on_c, 0, 79, 0
2, 7320, Note_on_c, 0, 77, 57
2, 7440, Note_on_c, 0, 77, 0
2, 7440, Note_on_c, 0, 76, 55
2, 7560, Note_on_c, 0, 76, 0
2, 7560, Note_on_c, 0, 74, 55
2, 7680, Note_on_c, 0, 74, 0
2, 7680, Note_on_c, 0, 72, 60
2, 8400, Note_on_c, 0, 72, 0
2, 8400, Note_on_c, 0, 76, 56
2, 8640, Note_on_c, 0, 76, 0
2, 8640, Note_on_c, 0, 74, 60
2, 8760, Note_on_c, 0, 74, 0
2, 8760, Note_on_c, 0, 72, 57
2, 8880, Note_on_c, 0, 72, 0
2, 8880, Note_on_c, 0, 71, 57
2, 9000, Note_on_c, 0, 71, 0
2, 9000, Note_on_c, 0, 74, 57
2, 9120, Note_on_c, 0, 74, 0
2, 9120, Note_on_c, 0, 72, 60
2, 9240, Note_on_c, 0, 72, 0
2, 9600, Note_on_c, 0, 72, 60
2, 9720, Note_on_c, 0, 72, 0
2, 9720, Note_on_c, 0, 74, 55
2, 9840, Note_on_c, 0, 74, 0
2, 9840, Note_on_c, 0, 72, 55
2, 9960, Note_on_c, 0, 72, 0
2, 9960, Note_on_c, 0, 71, 55
2, 10080, Note_on_c, 0, 71, 0
2, 10080, Note_on_c, 0, 72, 60
2, 10200, Note_on_c, 0, 72, 0
2, 10200, Note_on_c, 0, 74, 56
2, 10320, Note_on_c, 0, 74, 0
2, 10320, Note_on_c, 0, 76, 58
2, 10440, Note_on_c, 0, 76, 0
2, 10440, Note_on_c, 0, 77, 63
2, 10560, Note_on_c, 0, 77, 0
2, 10560, Note_on_c, 0, 79, 68
2, 10680, Note_on_c, 0, 79, 0
2, 10800, Note_on_c, 0, 79, 63
2, 10920, Note_on_c, 0, 79, 0
2, 11040, Note_on_c, 0, 79, 60
2, 11160, Note_on_c, 0, 79, 0
2, 11520, Note_on_c, 0, 84, 59
2, 11640, Note_on_c, 0, 84, 0
2, 11640, Note_on_c, 0, 86, 61
2, 11760, Note_on_c, 0, 86, 0
2, 11760, Note_on_c, 0, 88, 66
2, 11880, Note_on_c, 0, 88, 0
2, 11880, Note_on_c, 0, 86, 63
2, 12000, Note_on_c, 0, 86, 0
2, 12000, Note_on_c, 0, 84, 63
2, 12120, Note_on_c, 0, 84, 0
2, 12120, Note_on_c, 0, 83, 62
2, 12240, Note_on_c, 0, 83, 0
2, 12240, Note_on_c, 0, 81, 62
2, 12360, Note_on_c, 0, 81, 0
2, 12360, Note_on_c, 0, 80, 61
2, 12480, Note_on_c, 0, 80, 0
2, 12480, Note_on_c, 0, 81, 62
2, 12600, Note_on_c, 0, 81, 0
2, 12600, Note_on_c, 0, 83, 65
2, 12720, Note_on_c, 0, 83, 0
2, 12720, Note_on_c, 0, 84, 69
2, 12840, Note_on_c, 0, 84, 0
2, 12840, Note_on_c, 0, 83, 66
2, 12960, Note_on_c, 0, 83, 0
2, 12960, Note_on_c, 0, 81, 64
2, 13080, Note_on_c, 0, 81, 0
2, 13080, Note_on_c, 0, 79, 63
2, 13200, Note_on_c, 0, 79, 0
2, 13200, Note_on_c, 0, 77, 62
2, 13320, Note_on_c, 0, 77, 0
2, 13320, Note_on_c, 0, 76, 59
2, 13440, Note_on_c, 0, 76, 0
2, 13440, Note_on_c, 0, 74, 63
2, 13560, Note_on_c, 0, 74, 0
2, 13560, Note_on_c, 0, 72, 59
2, 13680, Note_on_c, 0, 72, 0
2, 13680, Note_on_c, 0, 71, 58
2, 13800, Note_on_c, 0, 71, 0
2, 13800, Note_on_c, 0, 69, 58
2, 13920, Note_on_c, 0, 69, 0
2, 13920, Note_on_c, 0, 67, 57
2, 14040, Note_on_c, 0, 67, 0
2, 14040, Note_on_c, 0, 65, 57
2, 14160, Note_on_c, 0, 65, 0
2, 14160, Note_on_c, 0, 64, 56
2, 14280, Note_on_c, 0, 64, 0
2, 14280, Note_on_c, 0, 62, 59
2, 14400, Note_on_c, 0, 62, 0
2, 14400, Note_on_c, 0, 60, 61
2, 14640, Note_on_c, 0, 60, 0
2, 15360, Note_on_c, 0, 67, 62
2, 16080, Note_on_c, 0, 67, 0
2, 16080, Note_on_c, 0, 67, 42
2, 16320, Note_on_c, 0, 67, 0
2, 16320, Note_on_c, 0, 69, 50
2, 16440, Note_on_c, 0, 69, 0
2, 16440, Note_on_c, 0, 67, 41
2, 16560, Note_on_c, 0, 67, 0
2, 16560, Note_on_c, 0, 65, 41
2, 16680, Note_on_c, 0, 65, 0
2, 16680, Note_on_c, 0, 64, 41
2, 16800, Note_on_c, 0, 64, 0
2, 16800, Note_on_c, 0, 64, 47
2, 17280, Note_on_c, 0, 64, 0
2, 17280, Note_on_c, 0, 62, 46
2, 17400, Note_on_c, 0, 62, 0
2, 17520, Note_on_c, 0, 62, 42
2, 17640, Note_on_c, 0, 62, 0
2, 17640, Note_on_c, 0, 64, 42
2, 17760, Note_on_c, 0, 64, 0
2, 17760, Note_on_c, 0, 65, 46
2, 17850, Note_on_c, 0, 65, 0
2, 18000, Note_on_c, 0, 67, 41
2, 18090, Note_on_c, 0, 67, 0
2, 18240, Note_on_c, 0, 65, 46
2, 18720, Note_on_c, 0, 65, 0
2, 18720, Note_on_c, 0, 64, 43
2, 18960, Note_on_c, 0, 64, 0
2, 19200, Note_on_c, 0, 67, 62
2, 19920, Note_on_c, 0, 67, 0
2, 19920, Note_on_c, 0, 67, 42
2, 20160, Note_on_c, 0, 67, 0
2, 20160, Note_on_c, 0, 69, 50
2, 20280, Note_on_c, 0, 69, 0
2, 20280, Note_on_c, 0, 67, 41
2, 20400, Note_on_c, 0, 67, 0
2, 20400, Note_on_c, 0, 65, 41
2, 20520, Note_on_c, 0, 65, 0
2, 20520, Note_on_c, 0, 64, 41
2, 20640, Note_on_c, 0, 64, 0
2, 20640, Note_on_c, 0, 76, 65
2, 21120, Note_on_c, 0, 76, 0
2, 21120, Note_on_c, 0, 66, 52
2, 21240, Note_on_c, 0, 66, 0
2, 21360, Note_on_c, 0, 66, 48
2, 21480, Note_on_c, 0, 66, 0
2, 21480, Note_on_c, 0, 67, 48
2, 21600, Note_on_c, 0, 67, 0
2, 21600, Note_on_c, 0, 69, 52
2, 21720, Note_on_c, 0, 69, 0
2, 21840, Note_on_c, 0, 74, 47
2, 21930, Note_on_c, 0, 74, 0
2, 22080, Note_on_c, 0, 67, 52
2, 22320, Note_on_c, 0, 67, 0
2, 23040, Note_on_c, 0, 74, 70
2, 23160, Note_on_c, 0, 74, 0
2, 23160, Note_on_c, 0, 86, 62
2, 23280, Note_on_c, 0, 86, 0
2, 23280, Note_on_c, 0, 74, 71
2, 23400, Note_on_c, 0, 74, 0
2, 23400, Note_on_c, 0, 86, 62
2, 23520, Note_on_c, 0, 86, 0
2, 23520, Note_on_c, 0, 74, 67
2, 23640, Note_on_c, 0, 74, 0
2, 23760, Note_on_c, 0, 74, 47
2, 23880, Note_on_c, 0, 74, 0
2, 24000, Note_on_c, 0, 76, 50
2, 24120, Note_on_c, 0, 76, 0
2, 24120, Note_on_c, 0, 74, 41
2, 24240, Note_on_c, 0, 74, 0
2, 24240, Note_on_c, 0, 72, 41
2, 24360, Note_on_c, 0, 72, 0
2, 24360, Note_on_c, 0, 71, 41
2, 24480, Note_on_c, 0, 71, 0
2, 24480, Note_on_c, 0, 71, 47
2, 24960, Note_on_c, 0, 71, 0
2, 24960, Note_on_c, 0, 69, 46
2, 25080, Note_on_c, 0, 69, 0
2, 25200, Note_on_c, 0, 69, 42
2, 25320, Note_on_c, 0, 69, 0
2, 25320, Note_on_c, 0, 71, 42
2, 25440, Note_on_c, 0, 71, 0
2, 25440, Note_on_c, 0, 72, 46
2, 25530, Note_on_c, 0, 72, 0
2, 25680, Note_on_c, 0, 74, 41
2, 25770, Note_on_c, 0, 74, 0
2, 25920, Note_on_c, 0, 72, 46
2, 26400, Note_on_c, 0, 72, 0
2, 26400, Note_on_c, 0, 71, 43
2, 26640, Note_on_c, 0, 71, 0
2, 26880, Note_on_c, 0, 86, 70
2, 27000, Note_on_c, 0, 86, 0
2, 27000, Note_on_c, 0, 74, 62
2, 27120, Note_on_c, 0, 74, 0
2, 27120, Note_on_c, 0, 86, 71
2, 27240, Note_on_c, 0, 86, 0
2, 27240, Note_on_c, 0, 74, 62
2, 27360, Note_on_c, 0, 74, 0
2, 27360, Note_on_c, 0, 86, 73
2, 27480, Note_on_c, 0, 86, 0
2, 27600, Note_on_c, 0, 86, 57
2, 27720, Note_on_c, 0, 86, 0
2, 27840, Note_on_c, 0, 86, 59
2, 27960, Note_on_c, 0, 86, 0
2, 27960, Note_on_c, 0, 88, 58
2, 28080, Note_on_c, 0, 88, 0
2, 28080, Note_on_c, 0, 86, 57
2, 28200, Note_on_c, 0, 86, 0
2, 28200, Note_on_c, 0, 84, 55
2, 28320, Note_on_c, 0, 84, 0
2, 28320, Note_on_c, 0, 83, 51
2, 28440, Note_on_c, 0, 83, 0
2, 28440, Note_on_c, 0, 84, 49
2, 28560, Note_on_c, 0, 84, 0
2, 28560, Note_on_c, 0, 83, 48
2, 28680, Note_on_c, 0, 83, 0
2, 28680, Note_on_c, 0, 81, 45
2, 28800, Note_on_c, 0, 81, 0
2, 28800, Note_on_c, 0, 79, 50
2, 28920, Note_on_c, 0, 79, 0
2, 28920, Note_on_c, 0, 81, 45
2, 29040, Note_on_c, 0, 81, 0
2, 29040, Note_on_c, 0, 79, 45
2, 29160, Note_on_c, 0, 79, 0
2, 29160, Note_on_c, 0, 78, 45
2, 29280, Note_on_c, 0, 78, 0
2, 29280, Note_on_c, 0, 79, 50
2, 29400, Note_on_c, 0, 79, 0
2, 29400, Note_on_c, 0, 81, 46
2, 29520, Note_on_c, 0, 81, 0
2, 29520, Note_on_c, 0, 79, 46
2, 29640, Note_on_c, 0, 79, 0
2, 29640, Note_on_c, 0, 78, 46
2, 29760, Note_on_c, 0, 78, 0
2, 29760, Note_on_c, 0, 79, 50
2, 29880, Note_on_c, 0, 79, 0
2, 29880, Note_on_c, 0, 81, 47
2, 30000, Note_on_c, 0, 81, 0
2, 30000, Note_on_c, 0, 83, 49
2, 30120, Note_on_c, 0, 83, 0
2, 30120, Note_on_c, 0, 84, 52
2, 30240, Note_on_c, 0, 84, 0
2, 30240, Note_on_c, 0, 86, 56
2, 30360, Note_on_c, 0, 86, 0
2, 30360, Note_on_c, 0, 84, 54
2, 30480, Note_on_c, 0, 84, 0
2, 30480, Note_on_c, 0, 83, 51
2, 30600, Note_on_c, 0, 83, 0
2, 30600, Note_on_c, 0, 81, 49
2, 30720, Note_on_c, 0, 81, 0
2, 30720, Note_on_c, 0, 79, 50
2, 30840, Note_on_c, 0, 79, 0
2, 30840, Note_on_c, 0, 81, 45
2, 30960, Note_on_c, 0, 81, 0
2, 30960, Note_on_c, 0, 79, 45
2, 31080, Note_on_c, 0, 79, 0
2, 31080, Note_on_c, 0, 78, 45
2, 31200, Note_on_c, 0, 78, 0
2, 31200, Note_on_c, 0, 79, 50
2, 31320, Note_on_c, 0, 79, 0
2, 31320, Note_on_c, 0, 81, 46
2, 31440, Note_on_c, 0, 81, 0
2, 31440, Note_on_c, 0, 79, 46
2, 31560, Note_on_c, 0, 79, 0
2, 31560, Note_on_c, 0, 78, 46
2, 31680, Note_on_c, 0, 78, 0
2, 31680, Note_on_c, 0, 79, 50
2, 31800, Note_on_c, 0, 79, 0
2, 31800, Note_on_c, 0, 81, 47
2, 31920, Note_on_c, 0, 81, 0
2, 31920, Note_on_c, 0, 83, 49
2, 32040, Note_on_c, 0, 83, 0
2, 32040, Note_on_c, 0, 84, 52
2, 32160, Note_on_c, 0, 84, 0
2, 32160, Note_on_c, 0, 86, 56
2, 32280, Note_on_c, 0, 86, 0
2, 32280, Note_on_c, 0, 84, 54
2, 32400, Note_on_c, 0, 84, 0
2, 32400, Note_on_c, 0, 83, 51
2, 32520, Note_on_c, 0, 83, 0
2, 32520, Note_on_c, 0, 81, 49
2, 32640, Note_on_c, 0, 81, 0
2, 32640, Note_on_c, 0, 79, 60
2, 32760, Note_on_c, 0, 79, 0
2, 32760, Note_on_c, 0, 81, 49
2, 32880, Note_on_c, 0, 81, 0
2, 32880, Note_on_c, 0, 79, 49
2, 33000, Note_on_c, 0, 79, 0
2, 33000, Note_on_c, 0, 78, 49
2, 33120, Note_on_c, 0, 78, 0
2, 33120, Note_on_c, 0, 79, 64
2, 33240, Note_on_c, 0, 79, 0
2, 33240, Note_on_c, 0, 81, 55
2, 33360, Note_on_c, 0, 81, 0
2, 33360, Note_on_c, 0, 79, 60
2, 33480, Note_on_c, 0, 79, 0
2, 33480, Note_on_c, 0, 78, 64
2, 33600, Note_on_c, 0, 78, 0
2, 33600, Note_on_c, 0, 79, 69
2, 33720, Note_on_c, 0, 79, 0
2, 33720, Note_on_c, 0, 83, 58
2, 33840, Note_on_c, 0, 83, 0
2, 33840, Note_on_c, 0, 79, 58
2, 33960, Note_on_c, 0, 79, 0
2, 33960, Note_on_c, 0, 74, 58
2, 34080, Note_on_c, 0, 74, 0
2, 34080, Note_on_c, 0, 74, 71
2, 34200, Note_on_c, 0, 74, 0
2, 34200, Note_on_c, 0, 79, 58
2, 34320, Note_on_c, 0, 79, 0
2, 34320, Note_on_c, 0, 74, 58
2, 34440, Note_on_c, 0, 74, 0
2, 34440, Note_on_c, 0, 71, 58
2, 34560, Note_on_c, 0, 71, 0
2, 34560, Note_on_c, 0, 71, 72
2, 34680, Note_on_c, 0, 71, 0
2, 34680, Note_on_c, 0, 74, 58
2, 34800, Note_on_c, 0, 74, 0
2, 34800, Note_on_c, 0, 71, 58
2, 34920, Note_on_c, 0, 71, 0
2, 34920, Note_on_c, 0, 67, 58
2, 35040, Note_on_c, 0, 67, 0
2, 35040, Note_on_c, 0, 67, 71
2, 35160, Note_on_c, 0, 67, 0
2, 35160, Note_on_c, 0, 71, 58
2, 35280, Note_on_c, 0, 71, 0
2, 35280, Note_on_c, 0, 67, 58
2, 35400, Note_on_c, 0, 67, 0
2, 35400, Note_on_c, 0, 62, 58
2, 35520, Note_on_c, 0, 62, 0
2, 35520, Note_on_c, 0, 64, 72
2, 35760, Note_on_c, 0, 64, 0
2, 36000, Note_on_c, 0, 72, 71
2, 36120, Note_on_c, 0, 72, 0
2, 36120, Note_on_c, 0, 76, 58
2, 36240, Note_on_c, 0, 76, 0
2, 36240, Note_on_c, 0, 72, 58
2, 36360, Note_on_c, 0, 72, 0
2, 36360, Note_on_c, 0, 69, 58
2, 36480, Note_on_c, 0, 69, 0
2, 36480, Note_on_c, 0, 67, 71
2, 36600, Note_on_c, 0, 67, 0
2, 36720, Note_on_c, 0, 67, 67
2, 36840, Note_on_c, 0, 67, 0
2, 36960, Note_on_c, 0, 69, 71
2, 37080, Note_on_c, 0, 69, 0
2, 37080, Note_on_c, 0, 72, 58
2, 37200, Note_on_c, 0, 72, 0
2, 37200, Note_on_c, 0, 69, 58
2, 37320, Note_on_c, 0, 69, 0
2, 37320, Note_on_c, 0, 66, 58
2, 37440, Note_on_c, 0, 66, 0
2, 37440, Note_on_c, 0, 67, 71
2, 37560, Note_on_c, 0, 67, 0
2, 37680, Note_on_c, 0, 67, 58
2, 37800, Note_on_c, 0, 67, 0
2, 37920, Note_on_c, 0, 79, 66
2, 38040, Note_on_c, 0, 79, 0
2, 38160, Note_on_c, 0, 79, 56
2, 38280, Note_on_c, 0, 79, 0
2, 38400, Note_on_c, 0, 69, 67
2, 38520, Note_on_c, 0, 69, 0
2, 38640, Note_on_c, 0, 69, 48
2, 38760, Note_on_c, 0, 69, 0
2, 38880, Note_on_c, 0, 81, 59
2, 39000, Note_on_c, 0, 81, 0
2, 39120, Note_on_c, 0, 81, 38
2, 39240, Note_on_c, 0, 81, 0
2, 39360, Note_on_c, 0, 71, 50
2, 39480, Note_on_c, 0, 71, 0
2, 39600, Note_on_c, 0, 71, 35
2, 39720, Note_on_c, 0, 71, 0
2, 39840, Note_on_c, 0, 83, 49
2, 39960, Note_on_c, 0, 83, 0
2, 40080, Note_on_c, 0, 83, 34
2, 40200, Note_on_c, 0, 83, 0
2, 40560, Note_on_c, 0, 67, 30
2, 40800, Note_on_c, 0, 67, 0
2, 40800, Note_on_c, 0, 66, 34
2, 41040, Note_on_c, 0, 66, 0
2, 41040, Note_on_c, 0, 67, 36
2, 41280, Note_on_c, 0, 67, 0
2, 41280, Note_on_c, 0, 68, 36
2, 41520, Note_on_c, 0, 68, 0
2, 41520, Note_on_c, 0, 69, 30
2, 41760, Note_on_c, 0, 69, 0
2, 41760, Note_on_c, 0, 70, 36
2, 42000, Note_on_c, 0, 70, 0
2, 42000, Note_on_c, 0, 71, 29
2, 42240, Note_on_c, 0, 71, 0
2, 42240, Note_on_c, 0, 72, 60
2, 42960, Note_on_c, 0, 72, 0
2, 42960, Note_on_c, 0, 76, 56
2, 43200, Note_on_c, 0, 76, 0
2, 43200, Note_on_c, 0, 74, 60
2, 43320, Note_on_c, 0, 74, 0
2, 43320, Note_on_c, 0, 72, 57
2, 43440, Note_on_c, 0, 72, 0
2, 43440, Note_on_c, 0, 71, 57
2, 43560, Note_on_c, 0, 71, 0
2, 43560, Note_on_c, 0, 74, 57
2, 43680, Note_on_c, 0, 74, 0
2, 43680, Note_on_c, 0, 72, 60
2, 43800, Note_on_c, 0, 72, 0
2, 44160, Note_on_c, 0, 72, 60
2, 44280, Note_on_c, 0, 72, 0
2, 44280, Note_on_c, 0, 74, 55
2, 44400, Note_on_c, 0, 74, 0
2, 44400, Note_on_c, 0, 72, 55
2, 44520, Note_on_c, 0, 72, 0
2, 44520, Note_on_c, 0, 71, 55
2, 44640, Note_on_c, 0, 71, 0
2, 44640, Note_on_c, 0, 72, 60
2, 44760, Note_on_c, 0, 72, 0
2, 44760, Note_on_c, 0, 74, 56
2, 44880, Note_on_c, 0, 74, 0
2, 44880, Note_on_c, 0, 76, 58
2, 45000, Note_on_c, 0, 76, 0
2, 45000, Note_on_c, 0, 77, 63
2, 45120, Note_on_c, 0, 77, 0
2, 45120, Note_on_c, 0, 79, 68
2, 45240, Note_on_c, 0, 79, 0
2, 45360, Note_on_c, 0, 79, 63
2, 45480, Note_on_c, 0, 79, 0
2, 45600, Note_on_c, 0, 79, 60
2, 45720, Note_on_c, 0, 79, 0
2, 46080, Note_on_c, 0, 84, 59
2, 46200, Note_on_c, 0, 84, 0
2, 46200, Note_on_c, 0, 86, 61
2, 46320, Note_on_c, 0, 86, 0
2, 46320, Note_on_c, 0, 88, 66
2, 46440, Note_on_c, 0, 88, 0
2, 46440, Note_on_c, 0, 86, 63
2, 46560, Note_on_c, 0, 86, 0
2, 46560, Note_on_c, 0, 84, 63
2, 46680, Note_on_c, 0, 84, 0
2, 46680, Note_on_c, 0, 83, 62
2, 46800, Note_on_c, 0, 83, 0
2, 46800, Note_on_c, 0, 81, 62
2, 46920, Note_on_c, 0, 81, 0
2, 46920, Note_on_c, 0, 79, 61
2, 47040, Note_on_c, 0, 79, 0
2, 47040, Note_on_c, 0, 77, 62
2, 47160, Note_on_c, 0, 77, 0
2, 47160, Note_on_c, 0, 83, 65
2, 47280, Note_on_c, 0, 83, 0
2, 47280, Note_on_c, 0, 86, 69
2, 47400, Note_on_c, 0, 86, 0
2, 47400, Note_on_c, 0, 84, 66
2, 47520, Note_on_c, 0, 84, 0
2, 47520, Note_on_c, 0, 83, 64
2, 47640, Note_on_c, 0, 83, 0
2, 47640, Note_on_c, 0, 81, 63
2, 47760, Note_on_c, 0, 81, 0
2, 47760, Note_on_c, 0, 79, 62
2, 47880, Note_on_c, 0, 79, 0
2, 47880, Note_on_c, 0, 77, 59
2, 48000, Note_on_c, 0, 77, 0
2, 48000, Note_on_c, 0, 76, 58
2, 48120, Note_on_c, 0, 76, 0
2, 48120, Note_on_c, 0, 79, 58
2, 48240, Note_on_c, 0, 79, 0
2, 48240, Note_on_c, 0, 84, 61
2, 48360, Note_on_c, 0, 84, 0
2, 48360, Note_on_c, 0, 83, 62
2, 48480, Note_on_c, 0, 83, 0
2, 48480, Note_on_c, 0, 81, 58
2, 48600, Note_on_c, 0, 81, 0
2, 48600, Note_on_c, 0, 79, 57
2, 48720, Note_on_c, 0, 79, 0
2, 48720, Note_on_c, 0, 77, 56
2, 48840, Note_on_c, 0, 77, 0
2, 48840, Note_on_c, 0, 76, 54
2, 48960, Note_on_c, 0, 76, 0
2, 48960, Note_on_c, 0, 74, 61
2, 49200, Note_on_c, 0, 74, 0
2, 49440, Note_on_c, 0, 79, 59
2, 49560, Note_on_c, 0, 79, 0
2, 49560, Note_on_c, 0, 77, 57
2, 49680, Note_on_c, 0, 77, 0
2, 49680, Note_on_c, 0, 76, 55
2, 49800, Note_on_c, 0, 76, 0
2, 49800, Note_on_c, 0, 74, 55
2, 49920, Note_on_c, 0, 74, 0
2, 49920, Note_on_c, 0, 72, 60
2, 50640, Note_on_c, 0, 72, 0
2, 50640, Note_on_c, 0, 76, 56
2, 50880, Note_on_c, 0, 76, 0
2, 50880, Note_on_c, 0, 74, 60
2, 51000, Note_on_c, 0, 74, 0
2, 51000, Note_on_c, 0, 72, 57
2, 51120, Note_on_c, 0, 72, 0
2, 51120, Note_on_c, 0, 71, 57
2, 51240, Note_on_c, 0, 71, 0
2, 51240, Note_on_c, 0, 74, 57
2, 51360, Note_on_c, 0, 74, 0
2, 51360, Note_on_c, 0, 72, 60
2, 51480, Note_on_c, 0, 72, 0
2, 51840, Note_on_c, 0, 72, 60
2, 51960, Note_on_c, 0, 72, 0
2, 51960, Note_on_c, 0, 74, 55
2, 52080, Note_on_c, 0, 74, 0
2, 52080, Note_on_c, 0, 72, 55
2, 52200, Note_on_c, 0, 72, 0
2, 52200, Note_on_c, 0, 71, 55
2, 52320, Note_on_c, 0, 71, 0
2, 52320, Note_on_c, 0, 72, 60
2, 52440, Note_on_c, 0, 72, 0
2, 52440, Note_on_c, 0, 74, 56
2, 52560, Note_on_c, 0, 74, 0
2, 52560, Note_on_c, 0, 76, 58
2, 52680, Note_on_c, 0, 76, 0
2, 52680, Note_on_c, 0, 77, 63
2, 52800, Note_on_c, 0, 77, 0
2, 52800, Note_on_c, 0, 79, 68
2, 52920, Note_on_c, 0, 79, 0
2, 53040, Note_on_c, 0, 79, 63
2, 53160, Note_on_c, 0, 79, 0
2, 53280, Note_on_c, 0, 79, 60
2, 53400, Note_on_c, 0, 79, 0
2, 53760, Note_on_c, 0, 84, 59
2, 53880, Note_on_c, 0, 84, 0
2, 53880, Note_on_c, 0, 86, 61
2, 54000, Note_on_c, 0, 86, 0
2, 54000, Note_on_c, 0, 88, 66
2, 54120, Note_on_c, 0, 88, 0
2, 54120, Note_on_c, 0, 86, 63
2, 54240, Note_on_c, 0, 86, 0
2, 54240, Note_on_c, 0, 84, 63
2, 54360, Note_on_c, 0, 84, 0
2, 54360, Note_on_c, 0, 83, 62
2, 54480, Note_on_c, 0, 83, 0
2, 54480, Note_on_c, 0, 81, 62
2, 54600, Note_on_c, 0, 81, 0
2, 54600, Note_on_c, 0, 80, 61
2, 54720, Note_on_c, 0, 80, 0
2, 54720, Note_on_c, 0, 81, 62
2, 54840, Note_on_c, 0, 81, 0
2, 54840, Note_on_c, 0, 83, 65
2, 54960, Note_on_c, 0, 83, 0
2, 54960, Note_on_c, 0, 84, 69
2, 55080, Note_on_c, 0, 84, 0
2, 55080, Note_on_c, 0, 83, 66
2, 55200, Note_on_c, 0, 83, 0
2, 55200, Note_on_c, 0, 81, 64
2, 55320, Note_on_c, 0, 81, 0
2, 55320, Note_on_c, 0, 79, 63
2, 55440, Note_on_c, 0, 79, 0
2, 55440, Note_on_c, 0, 77, 62
2, 55560, Note_on_c, 0, 77, 0
2, 55560, Note_on_c, 0, 76, 59
2, 55680, Note_on_c, 0, 76, 0
2, 55680, Note_on_c, 0, 74, 63
2, 55800, Note_on_c, 0, 74, 0
2, 55800, Note_on_c, 0, 72, 59
2, 55920, Note_on_c, 0, 72, 0
2, 55920, Note_on_c, 0, 71, 58
2, 56040, Note_on_c, 0, 71, 0
2, 56040, Note_on_c, 0, 69, 58
2, 56160, Note_on_c, 0, 69, 0
2, 56160, Note_on_c, 0, 67, 57
2, 56280, Note_on_c, 0, 67, 0
2, 56280, Note_on_c, 0, 65, 57
2, 56400, Note_on_c, 0, 65, 0
2, 56400, Note_on_c, 0, 64, 56
2, 56520, Note_on_c, 0, 64, 0
2, 56520, Note_on_c, 0, 62, 59
2, 56640, Note_on_c, 0, 62, 0
2, 56640, Note_on_c, 0, 60, 61
2, 56880, Note_on_c, 0, 60, 0
2, 57600, Note_on_c, 0, 67, 62
2, 58320, Note_on_c, 0, 67, 0
2, 58320, Note_on_c, 0, 67, 42
2, 58560, Note_on_c, 0, 67, 0
2, 58560, Note_on_c, 0, 69, 50
2, 58680, Note_on_c, 0, 69, 0
2, 58680, Note_on_c, 0, 67, 41
2, 58800, Note_on_c, 0, 67, 0
2, 58800, Note_on_c, 0, 65, 41
2, 58920, Note_on_c, 0, 65, 0
2, 58920, Note_on_c, 0, 64, 41
2, 59040, Note_on_c, 0, 64, 0
2, 59040, Note_on_c, 0, 64, 47
2, 59520, Note_on_c, 0, 64, 0
2, 59520, Note_on_c, 0, 62, 46
2, 59640, Note_on_c, 0, 62, 0
2, 59760, Note_on_c, 0, 62, 42
2, 59880, Note_on_c, 0, 62, 0
2, 59880, Note_on_c, 0, 64, 42
2, 60000, Note_on_c, 0, 64, 0
2, 60000, Note_on_c, 0, 65, 41
2, 60090, Note_on_c, 0, 65, 0
2, 60240, Note_on_c, 0, 67, 36
2, 60330, Note_on_c, 0, 67, 0
2, 60480, Note_on_c, 0, 65, 46
2, 60960, Note_on_c, 0, 65, 0
2, 60960, Note_on_c, 0, 64, 43
2, 61200, Note_on_c, 0, 64, 0
2, 61440, Note_on_c, 0, 72, 56
2, 61560, Note_on_c, 0, 72, 0
2, 61680, Note_on_c, 0, 72, 50
2, 61800, Note_on_c, 0, 72, 0
2, 61800, Note_on_c, 0, 74, 51
2, 61920, Note_on_c, 0, 74, 0
2, 61920, Note_on_c, 0, 76, 60
2, 62010, Note_on_c, 0, 76, 0
2, 62160, Note_on_c, 0, 72, 52
2, 62250, Note_on_c, 0, 72, 0
2, 62400, Note_on_c, 0, 69, 56
2, 62520, Note_on_c, 0, 69, 0
2, 62640, Note_on_c, 0, 81, 50
2, 62760, Note_on_c, 0, 81, 0
2, 62760, Note_on_c, 0, 77, 51
2, 62880, Note_on_c, 0, 77, 0
2, 62880, Note_on_c, 0, 74, 56
2, 63000, Note_on_c, 0, 74, 0
2, 63120, Note_on_c, 0, 77, 50
2, 63240, Note_on_c, 0, 77, 0
2, 63240, Note_on_c, 0, 74, 51
2, 63360, Note_on_c, 0, 74, 0
2, 63360, Note_on_c, 0, 71, 56
2, 63480, Note_on_c, 0, 71, 0
2, 63600, Note_on_c, 0, 74, 50
2, 63720, Note_on_c, 0, 74, 0
2, 63720, Note_on_c, 0, 71, 51
2, 63840, Note_on_c, 0, 71, 0
2, 63840, Note_on_c, 0, 67, 60
2, 63960, Note_on_c, 0, 67, 0
2, 64080, Note_on_c, 0, 71, 52
2, 64200, Note_on_c, 0, 71, 0
2, 64320, Note_on_c, 0, 72, 50
2, 64440, Note_on_c, 0, 72, 0
2, 64440, Note_on_c, 0, 71, 42
2, 64560, Note_on_c, 0, 71, 0
2, 64560, Note_on_c, 0, 72, 42
2, 64680, Note_on_c, 0, 72, 0
2, 64680, Note_on_c, 0, 76, 51
2, 64800, Note_on_c, 0, 76, 0
2, 64800, Note_on_c, 0, 74, 45
2, 64920, Note_on_c, 0, 74, 0
2, 64920, Note_on_c, 0, 72, 47
2, 65040, Note_on_c, 0, 72, 0
2, 65040, Note_on_c, 0, 71, 50
2, 65160, Note_on_c, 0, 71, 0
2, 65160, Note_on_c, 0, 69, 52
2, 65280, Note_on_c, 0, 69, 0
2, 65280, Note_on_c, 0, 67, 62
2, 66000, Note_on_c, 0, 67, 0
2, 66000, Note_on_c, 0, 67, 42
2, 66240, Note_on_c, 0, 67, 0
2, 66240, Note_on_c, 0, 69, 50
2, 66360, Note_on_c, 0, 69, 0
2, 66360, Note_on_c, 0, 67, 41
2, 66480, Note_on_c, 0, 67, 0
2, 66480, Note_on_c, 0, 65, 41
2, 66600, Note_on_c, 0, 65, 0
2, 66600, Note_on_c, 0, 64, 41
2, 66720, Note_on_c, 0, 64, 0
2, 66720, Note_on_c, 0, 64, 47
2, 67200, Note_on_c, 0, 64, 0
2, 67200, Note_on_c, 0, 62, 46
2, 67320, Note_on_c, 0, 62, 0
2, 67440, Note_on_c, 0, 62, 42
2, 67560, Note_on_c, 0, 62, 0
2, 67560, Note_on_c, 0, 64, 42
2, 67680, Note_on_c, 0, 64, 0
2, 67680, Note_on_c, 0, 65, 41
2, 67770, Note_on_c, 0, 65, 0
2, 67920, Note_on_c, 0, 67, 36
2, 68010, Note_on_c, 0, 67, 0
2, 68160, Note_on_c, 0, 65, 46
2, 68640, Note_on_c, 0, 65, 0
2, 68640, Note_on_c, 0, 64, 43
2, 68880, Note_on_c, 0, 64, 0
2, 69120, Note_on_c, 0, 72, 53
2, 69240, Note_on_c, 0, 72, 0
2, 69240, Note_on_c, 0, 74, 54
2, 69360, Note_on_c, 0, 74, 0
2, 69360, Note_on_c, 0, 76, 55
2, 69480, Note_on_c, 0, 76, 0
2, 69480, Note_on_c, 0, 77, 56
2, 69600, Note_on_c, 0, 77, 0
2, 69600, Note_on_c, 0, 79, 58
2, 69720, Note_on_c, 0, 79, 0
2, 69720, Note_on_c, 0, 81, 60
2, 69840, Note_on_c, 0, 81, 0
2, 69840, Note_on_c, 0, 83, 60
2, 69960, Note_on_c, 0, 83, 0
2, 69960, Note_on_c, 0, 84, 62
2, 70080, Note_on_c, 0, 84, 0
2, 70080, Note_on_c, 0, 81, 63
2, 70200, Note_on_c, 0, 81, 0
2, 70320, Note_on_c, 0, 81, 48
2, 70440, Note_on_c, 0, 81, 0
2, 70440, Note_on_c, 0, 77, 49
2, 70560, Note_on_c, 0, 77, 0
2, 70560, Note_on_c, 0, 74, 53
2, 70680, Note_on_c, 0, 74, 0
2, 70800, Note_on_c, 0, 77, 48
2, 70920, Note_on_c, 0, 77, 0
2, 70920, Note_on_c, 0, 74, 49
2, 71040, Note_on_c, 0, 74, 0
2, 71040, Note_on_c, 0, 71, 53
2, 71160, Note_on_c, 0, 71, 0
2, 71280, Note_on_c, 0, 74, 48
2, 71400, Note_on_c, 0, 74, 0
2, 71400, Note_on_c, 0, 71, 49
2, 71520, Note_on_c, 0, 71, 0
2, 71520, Note_on_c, 0, 67, 58
2, 71640, Note_on_c, 0, 67, 0
2, 71760, Note_on_c, 0, 71, 50
2, 71880, Note_on_c, 0, 71, 0
2, 72000, Note_on_c, 0, 72, 41
2, 72120, Note_on_c, 0, 72, 0
2, 72120, Note_on_c, 0, 74, 34
2, 72240, Note_on_c, 0, 74, 0
2, 72240, Note_on_c, 0, 72, 34
2, 72360, Note_on_c, 0, 72, 0
2, 72360, Note_on_c, 0, 71, 34
2, 72480, Note_on_c, 0, 71, 0
2, 72480, Note_on_c, 0, 72, 41
2, 72600, Note_on_c, 0, 72, 0
2, 72600, Note_on_c, 0, 74, 33
2, 72720, Note_on_c, 0, 74, 0
2, 72720, Note_on_c, 0, 72, 33
2, 72840, Note_on_c, 0, 72, 0
2, 72840, Note_on_c, 0, 71, 33
2, 72960, Note_on_c, 0, 71, 0
2, 72960, Note_on_c, 0, 72, 41
2, 73080, Note_on_c, 0, 72, 0
2, 73080, Note_on_c, 0, 74, 34
2, 73200, Note_on_c, 0, 74, 0
2, 73200, Note_on_c, 0, 72, 34
2, 73320, Note_on_c, 0, 72, 0
2, 73320, Note_on_c, 0, 71, 34
2, 73440, Note_on_c, 0, 71, 0
2, 73440, Note_on_c, 0, 72, 41
2, 73560, Note_on_c, 0, 72, 0
2, 73560, Note_on_c, 0, 74, 33
2, 73680, Note_on_c, 0, 74, 0
2, 73680, Note_on_c, 0, 72, 33
2, 73800, Note_on_c, 0, 72, 0
2, 73800, Note_on_c, 0, 71, 33
2, 73920, Note_on_c, 0, 71, 0
2, 73920, Note_on_c, 0, 72, 41
2, 74040, Note_on_c, 0, 72, 0
2, 74040, Note_on_c, 0, 74, 34
2, 74160, Note_on_c, 0, 74, 0
2, 74160, Note_on_c, 0, 72, 34
2, 74280, Note_on_c, 0, 72, 0
2, 74280, Note_on_c, 0, 71, 34
2, 74400, Note_on_c, 0, 71, 0
2, 74400, Note_on_c, 0, 72, 41
2, 74520, Note_on_c, 0, 72, 0
2, 74520, Note_on_c, 0, 74, 33
2, 74640, Note_on_c, 0, 74, 0
2, 74640, Note_on_c, 0, 72, 33
2, 74760, Note_on_c, 0, 72, 0
2, 74760, Note_on_c, 0, 71, 33
2, 74880, Note_on_c, 0, 71, 0
2, 74880, Note_on_c, 0, 72, 41
2, 75000, Note_on_c, 0, 72, 0
2, 75000, Note_on_c, 0, 74, 34
2, 75120, Note_on_c, 0, 74, 0
2, 75120, Note_on_c, 0, 72, 34
2, 75240, Note_on_c, 0, 72, 0
2, 75240, Note_on_c, 0, 71, 34
2, 75360, Note_on_c, 0, 71, 0
2, 75360, Note_on_c, 0, 72, 41
2, 75480, Note_on_c, 0, 72, 0
2, 75480, Note_on_c, 0, 74, 33
2, 75600, Note_on_c, 0, 74, 0
2, 75600, Note_on_c, 0, 72, 33
2, 75720, Note_on_c, 0, 72, 0
2, 75720, Note_on_c, 0, 71, 33
2, 75840, Note_on_c, 0, 71, 0
2, 75840, Note_on_c, 0, 72, 41
2, 75960, Note_on_c, 0, 72, 0
2, 76560, Note_on_c, 0, 67, 72
2, 76680, Note_on_c, 0, 67, 0
2, 76680, Note_on_c, 0, 72, 73
2, 76800, Note_on_c, 0, 72, 0
2, 76800, Note_on_c, 0, 76, 83
2, 76920, Note_on_c, 0, 76, 0
2, 77040, Note_on_c, 0, 72, 72
2, 77160, Note_on_c, 0, 72, 0
2, 77160, Note_on_c, 0, 76, 72
2, 77280, Note_on_c, 0, 76, 0
2, 77280, Note_on_c, 0, 79, 83
2, 77400, Note_on_c, 0, 79, 0
2, 77520, Note_on_c, 0, 76, 72
2, 77640, Note_on_c, 0, 76, 0
2, 77640, Note_on_c, 0, 79, 87
2, 77760, Note_on_c, 0, 79, 0
2, 77760, Note_on_c, 0, 84, 85
2, 77880, Note_on_c, 0, 84, 0
2, 77880, End_track
3, 0, Start_track
3, 0, Title_t, "Piano left"
3, 0, Program_c, 0, 0
3, 0, Note_on_c, 0, 60, 34
3, 0, Note_on_c, 0, 64, 40
3, 120, Note_on_c, 0, 64, 0
3, 120, Note_on_c, 0, 60, 0
3, 240, Note_on_c, 0, 64, 36
3, 240, Note_on_c, 0, 60, 30
3, 360, Note_on_c, 0, 60, 0
3, 360, Note_on_c, 0, 64, 0
3, 480, Note_on_c, 0, 64, 36
3, 480, Note_on_c, 0, 60, 30
3, 600, Note_on_c, 0, 60, 0
3, 600, Note_on_c, 0, 64, 0
3, 720, Note_on_c, 0, 64, 36
3, 720, Note_on_c, 0, 60, 30
3, 840, Note_on_c, 0, 60, 0
3, 840, Note_on_c, 0, 64, 0
3, 960, Note_on_c, 0, 60, 34
3, 960, Note_on_c, 0, 65, 40
3, 1080, Note_on_c, 0, 65, 0
3, 1080, Note_on_c, 0, 60, 0
3, 1200, Note_on_c, 0, 65, 37
3, 1200, Note_on_c, 0, 60, 31
3, 1320, Note_on_c, 0, 60, 0
3, 1320, Note_on_c, 0, 65, 0
3, 1440, Note_on_c, 0, 64, 37
3, 1440, Note_on_c, 0, 60, 31
3, 1560, Note_on_c, 0, 60, 0
3, 1560, Note_on_c, 0, 64, 0
3, 1680, Note_on_c, 0, 64, 37
3, 1680, Note_on_c, 0, 60, 31
3, 1800, Note_on_c, 0, 60, 0
3, 1800, Note_on_c, 0, 64, 0
3, 1920, Note_on_c, 0, 60, 34
3, 1920, Note_on_c, 0, 64, 40
3, 2040, Note_on_c, 0, 64, 0
3, 2040, Note_on_c, 0, 60, 0
3, 2160, Note_on_c, 0, 64, 37
3, 2160, Note_on_c, 0, 60, 31
3, 2280, Note_on_c, 0, 60, 0
3, 2280, Note_on_c, 0, 64, 0
3, 2400, Note_on_c, 0, 64, 37
3, 2400, Note_on_c, 0, 60, 31
3, 2520, Note_on_c, 0, 60, 0
3, 2520, Note_on_c, 0, 64, 0
3, 2640, Note_on_c, 0, 64, 37
3, 2640, Note_on_c, 0, 60, 31
3, 2760, Note_on_c, 0, 60, 0
3, 2760, Note_on_c, 0, 64, 0
3, 2880, Note_on_c, 0, 60, 34
3, 2880, Note_on_c, 0, 64, 40
3, 3000, Note_on_c, 0, 64, 0
3, 3000, Note_on_c, 0, 60, 0
3, 3120, Note_on_c, 0, 64, 38
3, 3120, Note_on_c, 0, 60, 32
3, 3240, Note_on_c, 0, 60, 0
3, 3240, Note_on_c, 0, 64, 0
3, 3360, Note_on_c, 0, 64, 40
3, 3360, Note_on_c, 0, 60, 34
3, 3480, Note_on_c, 0, 60, 0
3, 3480, Note_on_c, 0, 64, 0
3, 3600, Note_on_c, 0, 60, 35
3, 3600, Note_on_c, 0, 64, 42
3, 3720, Note_on_c, 0, 64, 0
3, 3720, Note_on_c, 0, 60, 0
3, 3840, Note_on_c, 0, 60, 34
3, 3840, Note_on_c, 0, 64, 40
3, 4080, Note_on_c, 0, 64, 0
3, 4080, Note_on_c, 0, 60, 0
3, 4800, Note_on_c, 0, 59, 34
3, 4800, Note_on_c, 0, 67, 40
3, 5040, Note_on_c, 0, 67, 0
3, 5040, Note_on_c, 0, 59, 0
3, 5760, Note_on_c, 0, 60, 34
3, 5760, Note_on_c, 0, 67, 40
3, 6000, Note_on_c, 0, 67, 0
3, 6000, Note_on_c, 0, 60, 0
3, 6720, Note_on_c, 0, 55, 46
3, 6840, Note_on_c, 0, 55, 0
3, 6840, Note_on_c, 0, 59, 40
3, 6960, Note_on_c, 0, 59, 0
3, 6960, Note_on_c, 0, 62, 40
3, 7080, Note_on_c, 0, 62, 0
3, 7080, Note_on_c, 0, 67, 40
3, 7200, Note_on_c, 0, 67, 0
3, 7680, Note_on_c, 0, 60, 34
3, 7680, Note_on_c, 0, 64, 40
3, 7800, Note_on_c, 0, 64, 0
3, 7800, Note_on_c, 0, 60, 0
3, 7920, Note_on_c, 0, 64, 36
3, 7920, Note_on_c, 0, 60, 30
3, 8040, Note_on_c, 0, 60, 0
3, 8040, Note_on_c, 0, 64, 0
3, 8160, Note_on_c, 0, 64, 36
3, 8160, Note_on_c, 0, 60, 30
3, 8280, Note_on_c, 0, 60, 0
3, 8280, Note_on_c, 0, 64, 0
3, 8400, Note_on_c, 0, 64, 36
3, 8400, Note_on_c, 0, 60, 30
3, 8520, Note_on_c, 0, 60, 0
3, 8520, Note_on_c, 0, 64, 0
3, 8640, Note_on_c, 0, 60, 34
3, 8640, Note_on_c, 0, 65, 40
3, 8760, Note_on_c, 0, 65, 0
3, 8760, Note_on_c, 0, 60, 0
3, 8880, Note_on_c, 0, 65, 37
3, 8880, Note_on_c, 0, 60, 31
3, 9000, Note_on_c, 0, 60, 0
3, 9000, Note_on_c, 0, 65, 0
3, 9120, Note_on_c, 0, 64, 37
3, 9120, Note_on_c, 0, 60, 31
3, 9240, Note_on_c, 0, 60, 0
3, 9240, Note_on_c, 0, 64, 0
3, 9360, Note_on_c, 0, 64, 37
3, 9360, Note_on_c, 0, 60, 31
3, 9480, Note_on_c, 0, 60, 0
3, 9480, Note_on_c, 0, 64, 0
3, 9600, Note_on_c, 0, 60, 34
3, 9600, Note_on_c, 0, 64, 40
3, 9720, Note_on_c, 0, 64, 0
3, 9720, Note_on_c, 0, 60, 0
3, 9840, Note_on_c, 0, 64, 37
3, 9840, Note_on_c, 0, 60, 31
3, 9960, Note_on_c, 0, 60, 0
3, 9960, Note_on_c, 0, 64, 0
3, 10080, Note_on_c, 0, 64, 37
3, 10080, Note_on_c, 0, 60, 31
3, 10200, Note_on_c, 0, 60, 0
3, 10200, Note_on_c, 0, 64, 0
3, 10320, Note_on_c, 0, 64, 37
3, 10320, Note_on_c, 0, 60, 31
3, 10440, Note_on_c, 0, 60, 0
3, 10440, Note_on_c, 0, 64, 0
3, 10560, Note_on_c, 0, 60, 34
3, 10560, Note_on_c, 0, 64, 40
3, 10680, Note_on_c, 0, 64, 0
3, 10680, Note_on_c, 0, 60, 0
3, 10800, Note_on_c, 0, 64, 38
3, 10800, Note_on_c, 0, 60, 32
3, 10920, Note_on_c, 0, 60, 0
3, 10920, Note_on_c, 0, 64, 0
3, 11040, Note_on_c, 0, 64, 40
3, 11040, Note_on_c, 0, 60, 34
3, 11160, Note_on_c, 0, 60, 0
3, 11160, Note_on_c, 0, 64, 0
3, 11280, Note_on_c, 0, 60, 35
3, 11280, Note_on_c, 0, 64, 42
3, 11400, Note_on_c, 0, 64, 0
3, 11400, Note_on_c, 0, 60, 0
3, 11520, Note_on_c, 0, 60, 34
3, 11520, Note_on_c, 0, 64, 40
3, 11760, Note_on_c, 0, 64, 0
3, 11760, Note_on_c, 0, 60, 0
3, 12480, Note_on_c, 0, 53, 34
3, 12480, Note_on_c, 0, 65, 40
3, 12720, Note_on_c, 0, 65, 0
3, 12720, Note_on_c, 0, 53, 0
3, 13440, Note_on_c, 0, 55, 34
3, 13440, Note_on_c, 0, 59, 40
3, 13680, Note_on_c, 0, 59, 0
3, 13680, Note_on_c, 0, 55, 0
3, 14400, Note_on_c, 0, 48, 46
3, 14640, Note_on_c, 0, 48, 0
3, 14640, Note_on_c, 0, 52, 34
3, 14640, Note_on_c, 0, 55, 40
3, 14760, Note_on_c, 0, 55, 0
3, 14760, Note_on_c, 0, 52, 0
3, 14880, Note_on_c, 0, 52, 34
3, 14880, Note_on_c, 0, 55, 41
3, 15000, Note_on_c, 0, 55, 0
3, 15000, Note_on_c, 0, 52, 0
3, 15120, Note_on_c, 0, 52, 34
3, 15120, Note_on_c, 0, 55, 41
3, 15240, Note_on_c, 0, 55, 0
3, 15240, Note_on_c, 0, 52, 0
3, 15360, Note_on_c, 0, 47, 55
3, 15600, Note_on_c, 0, 47, 0
3, 15600, Note_on_c, 0, 50, 34
3, 15600, Note_on_c, 0, 55, 40
3, 15720, Note_on_c, 0, 55, 0
3, 15720, Note_on_c, 0, 50, 0
3, 15840, Note_on_c, 0, 50, 34
3, 15840, Note_on_c, 0, 55, 41
3, 15960, Note_on_c, 0, 55, 0
3, 15960, Note_on_c, 0, 50, 0
3, 16080, Note_on_c, 0, 50, 34
3, 16080, Note_on_c, 0, 55, 41
3, 16200, Note_on_c, 0, 55, 0
3, 16200, Note_on_c, 0, 50, 0
3, 16320, Note_on_c, 0, 48, 46
3, 16560, Note_on_c, 0, 48, 0
3, 16560, Note_on_c, 0, 52, 34
3, 16560, Note_on_c, 0, 55, 40
3, 16680, Note_on_c, 0, 55, 0
3, 16680, Note_on_c, 0, 52, 0
3, 16800, Note_on_c, 0, 52, 34
3, 16800, Note_on_c, 0, 55, 41
3, 16920, Note_on_c, 0, 55, 0
3, 16920, Note_on_c, 0, 52, 0
3, 17040, Note_on_c, 0, 52, 34
3, 17040, Note_on_c, 0, 55, 41
3, 17160, Note_on_c, 0, 55, 0
3, 17160, Note_on_c, 0, 52, 0
3, 17280, Note_on_c, 0, 47, 46
3, 17520, Note_on_c, 0, 47, 0
3, 17520, Note_on_c, 0, 50, 34
3, 17520, Note_on_c, 0, 55, 40
3, 17640, Note_on_c, 0, 55, 0
3, 17640, Note_on_c, 0, 50, 0
3, 17760, Note_on_c, 0, 50, 34
3, 17760, Note_on_c, 0, 55, 41
3, 17850, Note_on_c, 0, 55, 0
3, 17850, Note_on_c, 0, 50, 0
3, 18000, Note_on_c, 0, 50, 34
3, 18000, Note_on_c, 0, 55, 41
3, 18090, Note_on_c, 0, 55, 0
3, 18090, Note_on_c, 0, 50, 0
3, 18240, Note_on_c, 0, 48, 46
3, 18480, Note_on_c, 0, 48, 0
3, 18480, Note_on_c, 0, 52, 28
3, 18480, Note_on_c, 0, 55, 34
3, 18600, Note_on_c, 0, 55, 0
3, 18600, Note_on_c, 0, 52, 0
3, 18720, Note_on_c, 0, 52, 28
3, 18720, Note_on_c, 0, 55, 34
3, 18840, Note_on_c, 0, 55, 0
3, 18840, Note_on_c, 0, 52, 0
3, 18960, Note_on_c, 0, 52, 28
3, 18960, Note_on_c, 0, 55, 34
3, 19080, Note_on_c, 0, 55, 0
3, 19080, Note_on_c, 0, 52, 0
3, 19200, Note_on_c, 0, 47, 55
3, 19440, Note_on_c, 0, 47, 0
3, 19440, Note_on_c, 0, 50, 34
3, 19440, Note_on_c, 0, 55, 40
3, 19560, Note_on_c, 0, 55, 0
3, 19560, Note_on_c, 0, 50, 0
3, 19680, Note_on_c, 0, 50, 34
3, 19680, Note_on_c, 0, 55, 41
3, 19800, Note_on_c, 0, 55, 0
3, 19800, Note_on_c, 0, 50, 0
3, 19920, Note_on_c, 0, 50, 34
3, 19920, Note_on_c, 0, 55, 41
3, 20040, Note_on_c, 0, 55, 0
3, 20040, Note_on_c, 0, 50, 0
3, 20160, Note_on_c, 0, 48, 46
3, 20400, Note_on_c, 0, 48, 0
3, 20400, Note_on_c, 0, 52, 34
3, 20400, Note_on_c, 0, 55, 40
3, 20520, Note_on_c, 0, 55, 0
3, 20520, Note_on_c, 0, 52, 0
3, 20640, Note_on_c, 0, 52, 38
3, 20640, Note_on_c, 0, 55, 49
3, 20760, Note_on_c, 0, 55, 0
3, 20760, Note_on_c, 0, 52, 0
3, 20880, Note_on_c, 0, 52, 34
3, 20880, Note_on_c, 0, 55, 41
3, 21000, Note_on_c, 0, 55, 0
3, 21000, Note_on_c, 0, 52, 0
3, 21120, Note_on_c, 0, 50, 52
3, 21360, Note_on_c, 0, 50, 0
3, 21360, Note_on_c, 0, 57, 39
3, 21360, Note_on_c, 0, 60, 46
3, 21480, Note_on_c, 0, 60, 0
3, 21480, Note_on_c, 0, 57, 0
3, 21600, Note_on_c, 0, 57, 39
3, 21600, Note_on_c, 0, 60, 47
3, 21720, Note_on_c, 0, 60, 0
3, 21720, Note_on_c, 0, 57, 0
3, 21840, Note_on_c, 0, 57, 39
3, 21840, Note_on_c, 0, 60, 47
3, 21930, Note_on_c, 0, 60, 0
3, 21930, Note_on_c, 0, 57, 0
3, 22080, Note_on_c, 0, 55, 52
3, 22320, Note_on_c, 0, 55, 0
3, 22320, Note_on_c, 0, 59, 35
3, 22320, Note_on_c, 0, 62, 41
3, 22440, Note_on_c, 0, 62, 0
3, 22440, Note_on_c, 0, 59, 0
3, 22560, Note_on_c, 0, 59, 35
3, 22560, Note_on_c, 0, 62, 42
3, 22680, Note_on_c, 0, 62, 0
3, 22680, Note_on_c, 0, 59, 0
3, 22800, Note_on_c, 0, 59, 35
3, 22800, Note_on_c, 0, 62, 42
3, 22920, Note_on_c, 0, 62, 0
3, 22920, Note_on_c, 0, 59, 0
3, 23040, Note_on_c, 0, 54, 64
3, 23280, Note_on_c, 0, 54, 0
3, 23280, Note_on_c, 0, 62, 49
3, 23280, Note_on_c, 0, 57, 41
3, 23400, Note_on_c, 0, 57, 0
3, 23400, Note_on_c, 0, 62, 0
3, 23520, Note_on_c, 0, 62, 41
3, 23520, Note_on_c, 0, 57, 34
3, 23640, Note_on_c, 0, 57, 0
3, 23640, Note_on_c, 0, 62, 0
3, 23760, Note_on_c, 0, 57, 28
3, 23760, Note_on_c, 0, 62, 34
3, 23880, Note_on_c, 0, 62, 0
3, 23880, Note_on_c, 0, 57, 0
3, 24000, Note_on_c, 0, 55, 46
3, 24240, Note_on_c, 0, 55, 0
3, 24240, Note_on_c, 0, 59, 34
3, 24240, Note_on_c, 0, 62, 40
3, 24360, Note_on_c, 0, 62, 0
3, 24360, Note_on_c, 0, 59, 0
3, 24480, Note_on_c, 0, 59, 28
3, 24480, Note_on_c, 0, 62, 34
3, 24600, Note_on_c, 0, 62, 0
3, 24600, Note_on_c, 0, 59, 0
3, 24720, Note_on_c, 0, 59, 28
3, 24720, Note_on_c, 0, 62, 34
3, 24840, Note_on_c, 0, 62, 0
3, 24840, Note_on_c, 0, 59, 0
3, 24960, Note_on_c, 0, 54, 46
3, 25200, Note_on_c, 0, 54, 0
3, 25200, Note_on_c, 0, 57, 34
3, 25200, Note_on_c, 0, 62, 40
3, 25320, Note_on_c, 0, 62, 0
3, 25320, Note_on_c, 0, 57, 0
3, 25440, Note_on_c, 0, 57, 34
3, 25440, Note_on_c, 0, 62, 41
3, 25530, Note_on_c, 0, 62, 0
3, 25530, Note_on_c, 0, 57, 0
3, 25680, Note_on_c, 0, 57, 34
3, 25680, Note_on_c, 0, 62, 41
3, 25770, Note_on_c, 0, 62, 0
3, 25770, Note_on_c, 0, 57, 0
3, 25920, Note_on_c, 0, 55, 46
3, 26160, Note_on_c, 0, 55, 0
3, 26160, Note_on_c, 0, 59, 28
3, 26160, Note_on_c, 0, 62, 34
3, 26280, Note_on_c, 0, 62, 0
3, 26280, Note_on_c, 0, 59, 0
3, 26400, Note_on_c, 0, 59, 23
3, 26400, Note_on_c, 0, 62, 28
3, 26520, Note_on_c, 0, 62, 0
3, 26520, Note_on_c, 0, 59, 0
3, 26640, Note_on_c, 0, 59, 23
3, 26640, Note_on_c, 0, 62, 28
3, 26760, Note_on_c, 0, 62, 0
3, 26760, Note_on_c, 0, 59, 0
3, 26880, Note_on_c, 0, 54, 64
3, 27120, Note_on_c, 0, 54, 0
3, 27120, Note_on_c, 0, 62, 49
3, 27120, Note_on_c, 0, 57, 41
3, 27240, Note_on_c, 0, 57, 0
3, 27240, Note_on_c, 0, 62, 0
3, 27360, Note_on_c, 0, 62, 41
3, 27360, Note_on_c, 0, 57, 34
3, 27480, Note_on_c, 0, 57, 0
3, 27480, Note_on_c, 0, 62, 0
3, 27600, Note_on_c, 0, 57, 28
3, 27600, Note_on_c, 0, 62, 34
3, 27720, Note_on_c, 0, 62, 0
3, 27720, Note_on_c, 0, 57, 0
3, 27840, Note_on_c, 0, 55, 41
3, 27840, Note_on_c, 0, 59, 41
3, 27840, Note_on_c, 0, 62, 49
3, 28080, Note_on_c, 0, 62, 0
3, 28080, Note_on_c, 0, 59, 0
3, 28080, Note_on_c, 0, 55, 0
3, 28800, Note_on_c, 0, 67, 39
3, 28800, Note_on_c, 0, 64, 33
3, 28920, Note_on_c, 0, 64, 0
3, 28920, Note_on_c, 0, 67, 0
3, 29280, Note_on_c, 0, 60, 29
3, 29280, Note_on_c, 0, 64, 35
3, 29400, Note_on_c, 0, 64, 0
3, 29400, Note_on_c, 0, 60, 0
3, 29760, Note_on_c, 0, 59, 29
3, 29760, Note_on_c, 0, 62, 35
3, 29880, Note_on_c, 0, 62, 0
3, 29880, Note_on_c, 0, 59, 0
3, 30720, Note_on_c, 0, 67, 39
3, 30720, Note_on_c, 0, 64, 33
3, 30840, Note_on_c, 0, 64, 0
3, 30840, Note_on_c, 0, 67, 0
3, 31200, Note_on_c, 0, 60, 29
3, 31200, Note_on_c, 0, 64, 35
3, 31320, Note_on_c, 0, 64, 0
3, 31320, Note_on_c, 0, 60, 0
3, 31680, Note_on_c, 0, 59, 29
3, 31680, Note_on_c, 0, 62, 35
3, 31800, Note_on_c, 0, 62, 0
3, 31800, Note_on_c, 0, 59, 0
3, 32640, Note_on_c, 0, 52, 36
3, 32640, Note_on_c, 0, 55, 43
3, 32760, Note_on_c, 0, 55, 0
3, 32760, Note_on_c, 0, 52, 0
3, 33120, Note_on_c, 0, 52, 49
3, 33120, Note_on_c, 0, 48, 41
3, 33240, Note_on_c, 0, 48, 0
3, 33240, Note_on_c, 0, 52, 0
3, 33600, Note_on_c, 0, 47, 54
3, 33600, Note_on_c, 0, 50, 64
3, 33720, Note_on_c, 0, 50, 0
3, 33720, Note_on_c, 0, 47, 0
3, 34080, Note_on_c, 0, 55, 55
3, 34080, Note_on_c, 0, 50, 46
3, 34080, Note_on_c, 0, 47, 46
3, 34200, Note_on_c, 0, 47, 0
3, 34200, Note_on_c, 0, 50, 0
3, 34200, Note_on_c, 0, 55, 0
3, 34560, Note_on_c, 0, 47, 54
3, 34560, Note_on_c, 0, 50, 54
3, 34560, Note_on_c, 0, 55, 64
3, 34680, Note_on_c, 0, 55, 0
3, 34680, Note_on_c, 0, 50, 0
3, 34680, Note_on_c, 0, 47, 0
3, 35040, Note_on_c, 0, 55, 58
3, 35040, Note_on_c, 0, 50, 49
3, 35040, Note_on_c, 0, 47, 49
3, 35160, Note_on_c, 0, 47, 0
3, 35160, Note_on_c, 0, 50, 0
3, 35160, Note_on_c, 0, 55, 0
3, 35520, Note_on_c, 0, 48, 54
3, 35520, Note_on_c, 0, 55, 64
3, 35760, Note_on_c, 0, 55, 0
3, 35760, Note_on_c, 0, 48, 0
3, 36000, Note_on_c, 0, 57, 55
3, 36000, Note_on_c, 0, 48, 46
3, 36120, Note_on_c, 0, 48, 0
3, 36120, Note_on_c, 0, 57, 0
3, 36480, Note_on_c, 0, 50, 46
3, 36480, Note_on_c, 0, 59, 55
3, 36600, Note_on_c, 0, 59, 0
3, 36600, Note_on_c, 0, 50, 0
3, 36960, Note_on_c, 0, 60, 55
3, 36960, Note_on_c, 0, 50, 46
3, 37080, Note_on_c, 0, 50, 0
3, 37080, Note_on_c, 0, 60, 0
3, 37440, Note_on_c, 0, 55, 46
3, 37440, Note_on_c, 0, 59, 55
3, 38400, Note_on_c, 0, 59, 0
3, 38400, Note_on_c, 0, 55, 0
3, 38400, Note_on_c, 0, 55, 35
3, 38400, Note_on_c, 0, 60, 42
3, 39360, Note_on_c, 0, 60, 0
3, 39360, Note_on_c, 0, 55, 0
3, 39360, Note_on_c, 0, 62, 26
3, 39360, Note_on_c, 0, 55, 22
3, 40320, Note_on_c, 0, 55, 0
3, 40320, Note_on_c, 0, 62, 0
3, 42240, Note_on_c, 0, 60, 34
3, 42240, Note_on_c, 0, 64, 40
3, 42360, Note_on_c, 0, 64, 0
3, 42360, Note_on_c, 0, 60, 0
3, 42480, Note_on_c, 0, 64, 36
3, 42480, Note_on_c, 0, 60, 30
3, 42600, Note_on_c, 0, 60, 0
3, 42600, Note_on_c, 0, 64, 0
3, 42720, Note_on_c, 0, 64, 36
3, 42720, Note_on_c, 0, 60, 30
3, 42840, Note_on_c, 0, 60, 0
3, 42840, Note_on_c, 0, 64, 0
3, 42960, Note_on_c, 0, 64, 36
3, 42960, Note_on_c, 0, 60, 30
3, 43080, Note_on_c, 0, 60, 0
3, 43080, Note_on_c, 0, 64, 0
3, 43200, Note_on_c, 0, 60, 34
3, 43200, Note_on_c, 0, 65, 40
3, 43320, Note_on_c, 0, 65, 0
3, 43320, Note_on_c, 0, 60, 0
3, 43440, Note_on_c, 0, 65, 37
3, 43440, Note_on_c, 0, 60, 31
3, 43560, Note_on_c, 0, 60, 0
3, 43560, Note_on_c, 0, 65, 0
3, 43680, Note_on_c, 0, 64, 37
3, 43680, Note_on_c, 0, 60, 31
3, 43800, Note_on_c, 0, 60, 0
3, 43800, Note_on_c, 0, 64, 0
3, 43920, Note_on_c, 0, 64, 37
3, 43920, Note_on_c, 0, 60, 31
3, 44040, Note_on_c, 0, 60, 0
3, 44040, Note_on_c, 0, 64, 0
3, 44160, Note_on_c, 0, 60, 34
3, 44160, Note_on_c, 0, 64, 40
3, 44280, Note_on_c, 0, 64, 0
3, 44280, Note_on_c, 0, 60, 0
3, 44400, Note_on_c, 0, 64, 37
3, 44400, Note_on_c, 0, 60, 31
3, 44520, Note_on_c, 0, 60, 0
3, 44520, Note_on_c, 0, 64, 0
3, 44640, Note_on_c, 0, 64, 37
3, 44640, Note_on_c, 0, 60, 31
3, 44760, Note_on_c, 0, 60, 0
3, 44760, Note_on_c, 0, 64, 0
3, 44880, Note_on_c, 0, 64, 37
3, 44880, Note_on_c, 0, 60, 31
3, 45000, Note_on_c, 0, 60, 0
3, 45000, Note_on_c, 0, 64, 0
3, 45120, Note_on_c, 0, 60, 34
3, 45120, Note_on_c, 0, 64, 40
3, 45240, Note_on_c, 0, 64, 0
3, 45240, Note_on_c, 0, 60, 0
3, 45360, Note_on_c, 0, 64, 38
3, 45360, Note_on_c, 0, 60, 32
3, 45480, Note_on_c, 0, 60, 0
3, 45480, Note_on_c, 0, 64, 0
3, 45600, Note_on_c, 0, 64, 40
3, 45600, Note_on_c, 0, 60, 34
3, 45720, Note_on_c, 0, 60, 0
3, 45720, Note_on_c, 0, 64, 0
3, 45840, Note_on_c, 0, 60, 35
3, 45840, Note_on_c, 0, 64, 42
3, 45960, Note_on_c, 0, 64, 0
3, 45960, Note_on_c, 0, 60, 0
3, 46080, Note_on_c, 0, 60, 34
3, 46080, Note_on_c, 0, 64, 40
3, 46320, Note_on_c, 0, 64, 0
3, 46320, Note_on_c, 0, 60, 0
3, 47040, Note_on_c, 0, 59, 34
3, 47040, Note_on_c, 0, 67, 40
3, 47280, Note_on_c, 0, 67, 0
3, 47280, Note_on_c, 0, 59, 0
3, 48000, Note_on_c, 0, 60, 34
3, 48000, Note_on_c, 0, 67, 40
3, 48240, Note_on_c, 0, 67, 0
3, 48240, Note_on_c, 0, 60, 0
3, 48960, Note_on_c, 0, 55, 46
3, 49080, Note_on_c, 0, 55, 0
3, 49080, Note_on_c, 0, 59, 40
3, 49200, Note_on_c, 0, 59, 0
3, 49200, Note_on_c, 0, 62, 40
3, 49320, Note_on_c, 0, 62, 0
3, 49320, Note_on_c, 0, 67, 40
3, 49440, Note_on_c, 0, 67, 0
3, 49920, Note_on_c, 0, 60, 34
3, 49920, Note_on_c, 0, 64, 40
3, 50040, Note_on_c, 0, 64, 0
3, 50040, Note_on_c, 0, 60, 0
3, 50160, Note_on_c, 0, 64, 36
3, 50160, Note_on_c, 0, 60, 30
3, 50280, Note_on_c, 0, 60, 0
3, 50280, Note_on_c, 0, 64, 0
3, 50400, Note_on_c, 0, 64, 36
3, 50400, Note_on_c, 0, 60, 30
3, 50520, Note_on_c, 0, 60, 0
3, 50520, Note_on_c, 0, 64, 0
3, 50640, Note_on_c, 0, 64, 36
3, 50640, Note_on_c, 0, 60, 30
3, 50760, Note_on_c, 0, 60, 0
3, 50760, Note_on_c, 0, 64, 0
3, 50880, Note_on_c, 0, 60, 34
3, 50880, Note_on_c, 0, 65, 40
3, 51000, Note_on_c, 0, 65, 0
3, 51000, Note_on_c, 0, 60, 0
3, 51120, Note_on_c, 0, 65, 37
3, 51120, Note_on_c, 0, 60, 31
3, 51240, Note_on_c, 0, 60, 0
3, 51240, Note_on_c, 0, 65, 0
3, 51360, Note_on_c, 0, 64, 37
3, 51360, Note_on_c, 0, 60, 31
3, 51480, Note_on_c, 0, 60, 0
3, 51480, Note_on_c, 0, 64, 0
3, 51600, Note_on_c, 0, 64, 37
3, 51600, Note_on_c, 0, 60, 31
3, 51720, Note_on_c, 0, 60, 0
3, 51720, Note_on_c, 0, 64, 0
3, 51840, Note_on_c, 0, 60, 34
3, 51840, Note_on_c, 0, 64, 40
3, 51960, Note_on_c, 0, 64, 0
3, 51960, Note_on_c, 0, 60, 0
3, 52080, Note_on_c, 0, 64, 37
3, 52080, Note_on_c, 0, 60, 31
3, 52200, Note_on_c, 0, 60, 0
3, 52200, Note_on_c, 0, 64, 0
3, 52320, Note_on_c, 0, 64, 37
3, 52320, Note_on_c, 0, 60, 31
3, 52440, Note_on_c, 0, 60, 0
3, 52440, Note_on_c, 0, 64, 0
3, 52560, Note_on_c, 0, 64, 37
3, 52560, Note_on_c, 0, 60, 31
3, 52680, Note_on_c, 0, 60, 0
3, 52680, Note_on_c, 0, 64, 0
3, 52800, Note_on_c, 0, 60, 34
3, 52800, Note_on_c, 0, 64, 40
3, 52920, Note_on_c, 0, 64, 0
3, 52920, Note_on_c, 0, 60, 0
3, 53040, Note_on_c, 0, 64, 38
3, 53040, Note_on_c, 0, 60, 32
3, 53160, Note_on_c, 0, 60, 0
3, 53160, Note_on_c, 0, 64, 0
3, 53280, Note_on_c, 0, 64, 40
3, 53280, Note_on_c, 0, 60, 34
3, 53400, Note_on_c, 0, 60, 0
3, 53400, Note_on_c, 0, 64, 0
3, 53520, Note_on_c, 0, 60, 35
3, 53520, Note_on_c, 0, 64, 42
3, 53640, Note_on_c, 0, 64, 0
3, 53640, Note_on_c, 0, 60, 0
3, 53760, Note_on_c, 0, 60, 34
3, 53760, Note_on_c, 0, 64, 40
3, 54000, Note_on_c, 0, 64, 0
3, 54000, Note_on_c, 0, 60, 0
3, 54720, Note_on_c, 0, 53, 34
3, 54720, Note_on_c, 0, 65, 40
3, 54960, Note_on_c, 0, 65, 0
3, 54960, Note_on_c, 0, 53, 0
3, 55680, Note_on_c, 0, 55, 34
3, 55680, Note_on_c, 0, 59, 40
3, 55920, Note_on_c, 0, 59, 0
3, 55920, Note_on_c, 0, 55, 0
3, 56640, Note_on_c, 0, 48, 46
3, 56880, Note_on_c, 0, 48, 0
3, 56880, Note_on_c, 0, 52, 34
3, 56880, Note_on_c, 0, 55, 40
3, 57000, Note_on_c, 0, 55, 0
3, 57000, Note_on_c, 0, 52, 0
3, 57120, Note_on_c, 0, 52, 34
3, 57120, Note_on_c, 0, 55, 41
3, 57240, Note_on_c, 0, 55, 0
3, 57240, Note_on_c, 0, 52, 0
3, 57360, Note_on_c, 0, 52, 34
3, 57360, Note_on_c, 0, 55, 41
3, 57480, Note_on_c, 0, 55, 0
3, 57480, Note_on_c, 0, 52, 0
3, 57600, Note_on_c, 0, 47, 55
3, 57840, Note_on_c, 0, 47, 0
3, 57840, Note_on_c, 0, 50, 34
3, 57840, Note_on_c, 0, 55, 40
3, 57960, Note_on_c, 0, 55, 0
3, 57960, Note_on_c, 0, 50, 0
3, 58080, Note_on_c, 0, 50, 34
3, 58080, Note_on_c, 0, 55, 41
3, 58200, Note_on_c, 0, 55, 0
3, 58200, Note_on_c, 0, 50, 0
3, 58320, Note_on_c, 0, 50, 34
3, 58320, Note_on_c, 0, 55, 41
3, 58440, Note_on_c, 0, 55, 0
3, 58440, Note_on_c, 0, 50, 0
3, 58560, Note_on_c, 0, 48, 46
3, 58800, Note_on_c, 0, 48, 0
3, 58800, Note_on_c, 0, 52, 34
3, 58800, Note_on_c, 0, 55, 40
3, 58920, Note_on_c, 0, 55, 0
3, 58920, Note_on_c, 0, 52, 0
3, 59040, Note_on_c, 0, 52, 34
3, 59040, Note_on_c, 0, 55, 41
3, 59160, Note_on_c, 0, 55, 0
3, 59160, Note_on_c, 0, 52, 0
3, 59280, Note_on_c, 0, 52, 34
3, 59280, Note_on_c, 0, 55, 41
3, 59400, Note_on_c, 0, 55, 0
3, 59400, Note_on_c, 0, 52, 0
3, 59520, Note_on_c, 0, 47, 46
3, 59760, Note_on_c, 0, 47, 0
3, 59760, Note_on_c, 0, 50, 34
3, 59760, Note_on_c, 0, 55, 40
3, 59880, Note_on_c, 0, 55, 0
3, 59880, Note_on_c, 0, 50, 0
3, 60000, Note_on_c, 0, 50, 30
3, 60000, Note_on_c, 0, 55, 36
3, 60090, Note_on_c, 0, 55, 0
3, 60090, Note_on_c, 0, 50, 0
3, 60240, Note_on_c, 0, 50, 30
3, 60240, Note_on_c, 0, 55, 36
3, 60330, Note_on_c, 0, 55, 0
3, 60330, Note_on_c, 0, 50, 0
3, 60480, Note_on_c, 0, 48, 46
3, 60720, Note_on_c, 0, 48, 0
3, 60720, Note_on_c, 0, 52, 28
3, 60720, Note_on_c, 0, 55, 34
3, 60840, Note_on_c, 0, 55, 0
3, 60840, Note_on_c, 0, 52, 0
3, 60960, Note_on_c, 0, 52, 28
3, 60960, Note_on_c, 0, 55, 34
3, 61080, Note_on_c, 0, 55, 0
3, 61080, Note_on_c, 0, 52, 0
3, 61200, Note_on_c, 0, 52, 28
3, 61200, Note_on_c, 0, 55, 34
3, 61320, Note_on_c, 0, 55, 0
3, 61320, Note_on_c, 0, 52, 0
3, 61440, Note_on_c, 0, 52, 46
3, 61680, Note_on_c, 0, 52, 0
3, 61680, Note_on_c, 0, 55, 34
3, 61680, Note_on_c, 0, 60, 40
3, 61800, Note_on_c, 0, 60, 0
3, 61800, Note_on_c, 0, 55, 0
3, 61920, Note_on_c, 0, 60, 41
3, 61920, Note_on_c, 0, 55, 34
3, 62010, Note_on_c, 0, 55, 0
3, 62010, Note_on_c, 0, 60, 0
3, 62160, Note_on_c, 0, 55, 34
3, 62160, Note_on_c, 0, 60, 41
3, 62250, Note_on_c, 0, 60, 0
3, 62250, Note_on_c, 0, 55, 0
3, 62400, Note_on_c, 0, 53, 46
3, 62640, Note_on_c, 0, 53, 0
3, 62640, Note_on_c, 0, 57, 34
3, 62640, Note_on_c, 0, 62, 40
3, 62760, Note_on_c, 0, 62, 0
3, 62760, Note_on_c, 0, 57, 0
3, 62880, Note_on_c, 0, 57, 34
3, 62880, Note_on_c, 0, 62, 41
3, 63000, Note_on_c, 0, 62, 0
3, 63000, Note_on_c, 0, 57, 0
3, 63120, Note_on_c, 0, 62, 41
3, 63120, Note_on_c, 0, 57, 34
3, 63240, Note_on_c, 0, 57, 0
3, 63240, Note_on_c, 0, 62, 0
3, 63360, Note_on_c, 0, 55, 46
3, 63600, Note_on_c, 0, 55, 0
3, 63600, Note_on_c, 0, 65, 40
3, 63600, Note_on_c, 0, 62, 34
3, 63720, Note_on_c, 0, 62, 0
3, 63720, Note_on_c, 0, 65, 0
3, 63840, Note_on_c, 0, 65, 36
3, 63840, Note_on_c, 0, 62, 30
3, 63960, Note_on_c, 0, 62, 0
3, 63960, Note_on_c, 0, 65, 0
3, 64080, Note_on_c, 0, 62, 30
3, 64080, Note_on_c, 0, 65, 36
3, 64200, Note_on_c, 0, 65, 0
3, 64200, Note_on_c, 0, 62, 0
3, 64320, Note_on_c, 0, 60, 40
3, 64320, Note_on_c, 0, 64, 40
3, 64560, Note_on_c, 0, 64, 0
3, 64560, Note_on_c, 0, 60, 0
3, 65280, Note_on_c, 0, 47, 55
3, 65520, Note_on_c, 0, 47, 0
3, 65520, Note_on_c, 0, 55, 36
3, 65520, Note_on_c, 0, 50, 30
3, 65640, Note_on_c, 0, 50, 0
3, 65640, Note_on_c, 0, 55, 0
3, 65760, Note_on_c, 0, 55, 36
3, 65760, Note_on_c, 0, 50, 30
3, 65880, Note_on_c, 0, 50, 0
3, 65880, Note_on_c, 0, 55, 0
3, 66000, Note_on_c, 0, 50, 30
3, 66000, Note_on_c, 0, 55, 36
3, 66120, Note_on_c, 0, 55, 0
3, 66120, Note_on_c, 0, 50, 0
3, 66240, Note_on_c, 0, 48, 46
3, 66480, Note_on_c, 0, 48, 0
3, 66480, Note_on_c, 0, 52, 34
3, 66480, Note_on_c, 0, 55, 40
3, 66600, Note_on_c, 0, 55, 0
3, 66600, Note_on_c, 0, 52, 0
3, 66720, Note_on_c, 0, 52, 34
3, 66720, Note_on_c, 0, 55, 41
3, 66840, Note_on_c, 0, 55, 0
3, 66840, Note_on_c, 0, 52, 0
3, 66960, Note_on_c, 0, 52, 34
3, 66960, Note_on_c, 0, 55, 41
3, 67080, Note_on_c, 0, 55, 0
3, 67080, Note_on_c, 0, 52, 0
3, 67200, Note_on_c, 0, 47, 46
3, 67440, Note_on_c, 0, 47, 0
3, 67440, Note_on_c, 0, 55, 40
3, 67440, Note_on_c, 0, 50, 34
3, 67560, Note_on_c, 0, 50, 0
3, 67560, Note_on_c, 0, 55, 0
3, 67680, Note_on_c, 0, 50, 30
3, 67680, Note_on_c, 0, 55, 36
3, 67770, Note_on_c, 0, 55, 0
3, 67770, Note_on_c, 0, 50, 0
3, 67920, Note_on_c, 0, 50, 30
3, 67920, Note_on_c, 0, 55, 36
3, 68010, Note_on_c, 0, 55, 0
3, 68010, Note_on_c, 0, 50, 0
3, 68160, Note_on_c, 0, 48, 46
3, 68400, Note_on_c, 0, 48, 0
3, 68400, Note_on_c, 0, 52, 28
3, 68400, Note_on_c, 0, 55, 34
3, 68520, Note_on_c, 0, 55, 0
3, 68520, Note_on_c, 0, 52, 0
3, 68640, Note_on_c, 0, 52, 28
3, 68640, Note_on_c, 0, 55, 34
3, 68760, Note_on_c, 0, 55, 0
3, 68760, Note_on_c, 0, 52, 0
3, 68880, Note_on_c, 0, 52, 28
3, 68880, Note_on_c, 0, 55, 34
3, 69000, Note_on_c, 0, 55, 0
3, 69000, Note_on_c, 0, 52, 0
3, 69120, Note_on_c, 0, 52, 46
3, 69360, Note_on_c, 0, 52, 0
3, 69360, Note_on_c, 0, 60, 40
3, 69360, Note_on_c, 0, 55, 34
3, 69480, Note_on_c, 0, 55, 0
3, 69480, Note_on_c, 0, 60, 0
3, 69600, Note_on_c, 0, 55, 34
3, 69600, Note_on_c, 0, 60, 41
3, 69720, Note_on_c, 0, 60, 0
3, 69720, Note_on_c, 0, 55, 0
3, 69840, Note_on_c, 0, 55, 34
3, 69840, Note_on_c, 0, 60, 41
3, 69960, Note_on_c, 0, 60, 0
3, 69960, Note_on_c, 0, 55, 0
3, 70080, Note_on_c, 0, 53, 52
3, 70320, Note_on_c, 0, 53, 0
3, 70320, Note_on_c, 0, 57, 37
3, 70320, Note_on_c, 0, 62, 44
3, 70440, Note_on_c, 0, 62, 0
3, 70440, Note_on_c, 0, 57, 0
3, 70560, Note_on_c, 0, 62, 45
3, 70560, Note_on_c, 0, 57, 37
3, 70680, Note_on_c, 0, 57, 0
3, 70680, Note_on_c, 0, 62, 0
3, 70800, Note_on_c, 0, 57, 37
3, 70800, Note_on_c, 0, 62, 45
3, 70920, Note_on_c, 0, 62, 0
3, 70920, Note_on_c, 0, 57, 0
3, 71040, Note_on_c, 0, 55, 50
3, 71280, Note_on_c, 0, 55, 0
3, 71280, Note_on_c, 0, 65, 44
3, 71280, Note_on_c, 0, 62, 37
3, 71400, Note_on_c, 0, 62, 0
3, 71400, Note_on_c, 0, 65, 0
3, 71520, Note_on_c, 0, 62, 33
3, 71520, Note_on_c, 0, 65, 39
3, 71640, Note_on_c, 0, 65, 0
3, 71640, Note_on_c, 0, 62, 0
3, 71760, Note_on_c, 0, 65, 39
3, 71760, Note_on_c, 0, 62, 33
3, 71880, Note_on_c, 0, 62, 0
3, 71880, Note_on_c, 0, 65, 0
3, 72000, Note_on_c, 0, 64, 33
3, 72000, Note_on_c, 0, 67, 39
3, 72120, Note_on_c, 0, 67, 0
3, 72120, Note_on_c, 0, 64, 0
3, 72960, Note_on_c, 0, 67, 39
3, 72960, Note_on_c, 0, 64, 33
3, 73080, Note_on_c, 0, 64, 0
3, 73080, Note_on_c, 0, 67, 0
3, 73440, Note_on_c, 0, 62, 31
3, 73440, Note_on_c, 0, 65, 31
3, 73560, Note_on_c, 0, 65, 0
3, 73560, Note_on_c, 0, 62, 0
3, 73920, Note_on_c, 0, 64, 39
3, 73920, Note_on_c, 0, 60, 33
3, 74040, Note_on_c, 0, 60, 0
3, 74040, Note_on_c, 0, 64, 0
3, 74880, Note_on_c, 0, 55, 39
3, 74880, Note_on_c, 0, 52, 33
3, 75000, Note_on_c, 0, 52, 0
3, 75000, Note_on_c, 0, 55, 0
3, 75360, Note_on_c, 0, 50, 31
3, 75360, Note_on_c, 0, 53, 31
3, 75480, Note_on_c, 0, 53, 0
3, 75480, Note_on_c, 0, 50, 0
3, 75840, Note_on_c, 0, 52, 39
3, 75840, Note_on_c, 0, 48, 33
3, 75960, Note_on_c, 0, 48, 0
3, 75960, Note_on_c, 0, 52, 0
3, 76800, Note_on_c, 0, 48, 58
3, 76800, Note_on_c, 0, 52, 70
3, 76920, Note_on_c, 0, 52, 0
3, 76920, Note_on_c, 0, 48, 0
3, 77280, Note_on_c, 0, 48, 58
3, 77280, Note_on_c, 0, 52, 70
3, 77400, Note_on_c, 0, 52, 0
3, 77400, Note_on_c, 0, 48, 0
3, 77760, Note_on_c, 0, 48, 58
3, 77760, Note_on_c, 0, 52, 70
3, 77880, Note_on_c, 0, 52, 0
3, 77880, Note_on_c, 0, 48, 0
3, 77880, End_track
4, 0, Start_track
4, 0, Title_t, "Pedale"
4, 0, Program_c, 0, 0
4, 23040, Control_c, 0, 64, 127
4, 23538, Control_c, 0, 64, 0
4, 26880, Control_c, 0, 64, 127
4, 27378, Control_c, 0, 64, 0
4, 33685, Control_c, 0, 64, 127
4, 35520, Control_c, 0, 64, 0
4, 76617, Control_c, 0, 64, 127
4, 76885, Control_c, 0, 64, 0
4, 77196, Control_c, 0, 64, 127
4, 77372, Control_c, 0, 64, 0
4, 77626, Control_c, 0, 64, 127
4, 77958, Control_c, 0, 64, 0
4, 77958, End_track
5, 0, Start_track
5, 0, Title_t, "Clementi: Sonatatina Opus 26, No. 3, 3. movement"
5, 0, End_track
6, 0, Start_track
6, 0, Title_t, "Copyright © 2010 by Bernd Krueger"
6, 0, End_track
7, 0, Start_track
7, 0, Title_t, "http://www.piano-midi.de/"
7, 0, End_track
8, 0, Start_track
8, 0, Title_t, "Edition:  2010-12-18"
8, 0, End_track
9, 0, Start_track
9, 0, Title_t, "Spur 8"
9, 0, End_track
10, 0, Start_track
10, 0, Title_t, "Spur 9"
10, 0, End_track
11, 0, Start_track
11, 0, Title_t, "Spur 10"
11, 0, End_track
12, 0, Start_track
12, 0, Title_t, "Spur 11"
12, 0, End_track
13, 0, Start_track
13, 0, Title_t, "Spur 12"
13, 0, End_track
14, 0, Start_track
14, 0, Title_t, "Spur 13"
14, 0, End_track
15, 0, Start_track
15, 0, Title_t, "Spur 14"
15, 0, End_track
16, 0, Start_track
16, 0, Title_t, "Spur 15"
16, 0, End_track
17, 0, Start_track
17, 0, Title_t, "Spur 16"
17, 0, End_track
0, 0, End_of_file
