0, 0, Header, 1, 8, 480
1, 0, Start_track
1, 0, Title_t, "Suite bergamasque"
1, 0, Title_t, "Menuet"
1, 0, Copyright_t, "Copyright © 1998 von Bernd Krüger. http://www.piano-midi.de"
1, 0, Text_t, "Claude Debussy"
1, 0, Text_t, "Andantino"
1, 0, Text_t, "Fertiggestellt am 5.7.98\012"
1, 0, Text_t, "Korrekturen am 20.8.98\012"
1, 0, Text_t, "Beide Tracks auf Kanal 1 am 9.11.98\012"
1, 0, Text_t, "Update am 21.4.99\012"
1, 0, Text_t, "Normierung: 23.12.2002\012"
1, 0, Text_t, "Update am 9.8.2011\012"
1, 0, Text_t, "Dauer: 4:08 Minuten\012"
1, 0, Time_signature, 3, 2, 24, 8
1, 0, Key_signature, 0, "major"
1, 0, Tempo, 832178
1, 0, Marker_t, "Andantino"
1, 120, Tempo, 815883
1, 240, Tempo, 790202
1, 360, Tempo, 854823
1, 480, Tempo, 810701
1, 600, Tempo, 805477
1, 720, Tempo, 785340
1, 840, Tempo, 872600
1, 960, Tempo, 837638
1, 1200, Tempo, 860585
1, 1440, Tempo, 832178
1, 1560, Tempo, 815883
1, 1680, Tempo, 800320
1, 1920, Tempo, 790202
1, 2040, Tempo, 770812
1, 2160, Tempo, 800320
1, 2280, Tempo, 837638
1, 2400, Tempo, 837638
1, 2640, Tempo, 837638
1, 2880, Tempo, 832178
1, 3000, Tempo, 815883
1, 3120, Tempo, 775595
1, 3240, Tempo, 854823
1, 3360, Tempo, 821243
1, 3480, Tempo, 815883
1, 3600, Tempo, 800320
1, 3720, Tempo, 872600
1, 3840, Tempo, 826674
1, 4080, Tempo, 860585
1, 4320, Tempo, 854823
1, 4440, Tempo, 800320
1, 4560, Tempo, 854823
1, 4680, Tempo, 832178
1, 4800, Tempo, 843289
1, 4920, Tempo, 805477
1, 5040, Tempo, 849017
1, 5160, Tempo, 826674
1, 5280, Tempo, 832178
1, 5400, Tempo, 800320
1, 5520, Tempo, 832178
1, 5640, Tempo, 937647
1, 5760, Tempo, 826674
1, 5880, Tempo, 805477
1, 6000, Tempo, 826674
1, 6120, Tempo, 815883
1, 6240, Tempo, 826674
1, 6360, Tempo, 849017
1, 6480, Tempo, 826674
1, 6840, Tempo, 805477
1, 6960, Tempo, 826674
1, 7200, Tempo, 832178
1, 7320, Tempo, 849017
1, 7440, Tempo, 832178
1, 7680, Tempo, 810701
1, 7800, Tempo, 795229
1, 7920, Tempo, 826674
1, 8040, Tempo, 805477
1, 8160, Tempo, 826674
1, 8280, Tempo, 843289
1, 8400, Tempo, 821243
1, 8760, Tempo, 805477
1, 8880, Tempo, 826674
1, 9120, Tempo, 843763
1, 9240, Tempo, 860832
1, 9360, Tempo, 832755
1, 9480, Tempo, 811469
1, 9600, Tempo, 827358
1, 9720, Tempo, 843763
1, 9840, Tempo, 832755
1, 9960, Tempo, 811469
1, 10080, Tempo, 827358
1, 10200, Tempo, 811469
1, 10320, Tempo, 827358
1, 10440, Tempo, 811469
1, 10680, Tempo, 832755
1, 10800, Tempo, 811469
1, 10920, Tempo, 791348
1, 11040, Tempo, 811469
1, 11400, Tempo, 832755
1, 11520, Tempo, 822030
1, 11880, Tempo, 806343
1, 12120, Tempo, 827358
1, 12240, Tempo, 811469
1, 12360, Tempo, 786473
1, 12480, Tempo, 811469
1, 12840, Tempo, 832755
1, 13021, Tempo, 821243
1, 13440, Tempo, 810701
1, 13600, Tempo, 805477
1, 13760, Tempo, 800320
1, 13920, Tempo, 795229
1, 14060, Tempo, 795229
1, 14240, Tempo, 790202
1, 14280, Tempo, 832178
1, 14400, Tempo, 832178
1, 15100, Tempo, 810701
1, 15120, Tempo, 826674
1, 15200, Tempo, 832178
1, 15260, Tempo, 837638
1, 15340, Tempo, 843289
1, 15400, Tempo, 849017
1, 15480, Tempo, 854823
1, 15540, Tempo, 860585
1, 15620, Tempo, 866551
1, 15680, Tempo, 872600
1, 15720, Tempo, 981675
1, 15820, Tempo, 884825
1, 15840, Tempo, 832178
1, 15960, Tempo, 800320
1, 16080, Tempo, 790202
1, 16200, Tempo, 854823
1, 16320, Tempo, 815883
1, 16440, Tempo, 795229
1, 16560, Tempo, 770812
1, 16680, Tempo, 849017
1, 16800, Tempo, 810701
1, 17040, Tempo, 860585
1, 17280, Tempo, 826674
1, 17400, Tempo, 805477
1, 17520, Tempo, 790202
1, 17760, Tempo, 790202
1, 17880, Tempo, 775595
1, 18000, Tempo, 790202
1, 18120, Tempo, 815883
1, 18240, Tempo, 810701
1, 18480, Tempo, 837638
1, 18720, Tempo, 832178
1, 18840, Tempo, 800320
1, 18960, Tempo, 790202
1, 19080, Tempo, 854823
1, 19200, Tempo, 815883
1, 19320, Tempo, 795229
1, 19440, Tempo, 770812
1, 19560, Tempo, 849017
1, 19680, Tempo, 810701
1, 19920, Tempo, 860585
1, 20160, Tempo, 826674
1, 20280, Tempo, 805477
1, 20400, Tempo, 790202
1, 20640, Tempo, 790202
1, 20760, Tempo, 766186
1, 20880, Tempo, 800320
1, 21000, Tempo, 837638
1, 21120, Tempo, 815883
1, 21240, Tempo, 854823
1, 21360, Tempo, 837638
1, 21600, Tempo, 805477
1, 21720, Tempo, 821243
1, 21840, Tempo, 815883
1, 22080, Tempo, 810701
1, 22200, Tempo, 843289
1, 22320, Tempo, 826674
1, 22560, Tempo, 849017
1, 22800, Tempo, 826674
1, 23280, Tempo, 854823
1, 23400, Tempo, 860585
1, 23500, Tempo, 866551
1, 23600, Tempo, 872600
1, 23700, Tempo, 878735
1, 23800, Tempo, 884825
1, 23900, Tempo, 891133
1, 24000, Tempo, 1005193
1, 24240, Tempo, 1174398
1, 24480, Tempo, 997175
1, 24700, Tempo, 1211387
1, 24720, Tempo, 805045
1, 24840, Tempo, 780843
1, 25080, Tempo, 795123
1, 25320, Tempo, 776096
1, 25440, Tempo, 790306
1, 25560, Tempo, 820232
1, 25680, Tempo, 872600
1, 25900, Tempo, 871713
1, 25920, Tempo, 821243
1, 26160, Tempo, 797872
1, 26280, Tempo, 761518
1, 26520, Tempo, 788022
1, 26760, Tempo, 756907
1, 26880, Tempo, 802890
1, 27000, Tempo, 839631
1, 27120, Tempo, 878735
1, 27360, Tempo, 826674
1, 27600, Tempo, 795650
1, 27720, Tempo, 761518
1, 27960, Tempo, 785855
1, 28200, Tempo, 756907
1, 28320, Tempo, 805694
1, 28440, Tempo, 837170
1, 28560, Tempo, 871460
1, 28800, Tempo, 821243
1, 29040, Tempo, 785958
1, 29160, Tempo, 762389
1, 29400, Tempo, 776297
1, 29640, Tempo, 762389
1, 29760, Tempo, 795862
1, 29880, Tempo, 843645
1, 30000, Tempo, 891133
1, 30261, Tempo, 884825
1, 30360, Tempo, 843289
1, 30480, Tempo, 843289
1, 30600, Tempo, 815883
1, 30720, Tempo, 849017
1, 30840, Tempo, 810701
1, 30960, Tempo, 843289
1, 31080, Tempo, 810701
1, 31200, Tempo, 837638
1, 31320, Tempo, 805477
1, 31440, Tempo, 837638
1, 31800, Tempo, 815883
1, 31920, Tempo, 805477
1, 32040, Tempo, 843289
1, 32160, Tempo, 815883
1, 32640, Tempo, 821243
1, 32760, Tempo, 815883
1, 33000, Tempo, 843289
1, 33120, Tempo, 837638
1, 33240, Tempo, 821243
1, 33360, Tempo, 826674
1, 33480, Tempo, 815883
1, 33600, Tempo, 837638
1, 33720, Tempo, 810701
1, 33840, Tempo, 832178
1, 33960, Tempo, 810701
1, 34080, Tempo, 832178
1, 34200, Tempo, 805477
1, 34320, Tempo, 837638
1, 34560, Tempo, 826674
1, 34680, Tempo, 805477
1, 34800, Tempo, 832178
1, 34920, Tempo, 854823
1, 35040, Tempo, 815883
1, 36480, Tempo, 848896
1, 36600, Tempo, 821580
1, 36720, Tempo, 832178
1, 36840, Tempo, 816327
1, 36960, Tempo, 837638
1, 37080, Tempo, 811140
1, 37440, Tempo, 837638
1, 37560, Tempo, 811140
1, 37920, Tempo, 821580
1, 38040, Tempo, 781454
1, 38160, Tempo, 815883
1, 38400, Tempo, 796073
1, 38520, Tempo, 767460
1, 38640, Tempo, 816327
1, 38880, Tempo, 815883
1, 39000, Tempo, 800320
1, 39360, Tempo, 837638
1, 39480, Tempo, 810701
1, 39600, Tempo, 832178
1, 39720, Tempo, 810701
1, 39840, Tempo, 837638
1, 39960, Tempo, 811140
1, 40320, Tempo, 837638
1, 40440, Tempo, 800320
1, 40560, Tempo, 810701
1, 40800, Tempo, 821580
1, 40920, Tempo, 781454
1, 41040, Tempo, 810701
1, 41280, Tempo, 796073
1, 41400, Tempo, 767460
1, 41520, Tempo, 800320
1, 41760, Tempo, 800320
1, 42000, Tempo, 780437
1, 42720, Tempo, 810701
1, 42960, Tempo, 815883
1, 43200, Tempo, 805477
1, 43440, Tempo, 815883
1, 43680, Tempo, 795229
1, 44400, Tempo, 815883
1, 44640, Tempo, 800320
1, 44880, Tempo, 780437
1, 45600, Tempo, 810701
1, 45840, Tempo, 795229
1, 46080, Tempo, 791870
1, 46320, Tempo, 806777
1, 46560, Tempo, 786988
1, 46800, Tempo, 759109
1, 47040, Tempo, 801710
1, 47280, Tempo, 754622
1, 47520, Tempo, 786988
1, 47760, Tempo, 754622
1, 48000, Tempo, 782167
1, 48240, Tempo, 763650
1, 48301, Tempo, 747943
1, 49200, Tempo, 770812
1, 49440, Tempo, 747943
1, 50160, Tempo, 734754
1, 50400, Tempo, 761518
1, 50640, Tempo, 730549
1, 50880, Tempo, 752351
1, 51120, Tempo, 775595
1, 51840, Tempo, 800320
1, 52080, Tempo, 821243
1, 52320, Tempo, 790202
1, 52800, Tempo, 815883
1, 53040, Tempo, 866551
1, 53280, Tempo, 761518
1, 53400, Tempo, 739098
1, 53760, Tempo, 761518
1, 53880, Tempo, 743494
1, 54240, Tempo, 761518
1, 54360, Tempo, 743494
1, 55200, Tempo, 756907
1, 55440, Tempo, 775595
1, 55680, Tempo, 826674
1, 55920, Tempo, 884825
1, 56160, Tempo, 761518
1, 56280, Tempo, 739098
1, 56640, Tempo, 761518
1, 56760, Tempo, 743494
1, 57120, Tempo, 761518
1, 57240, Tempo, 743494
1, 57840, Tempo, 766186
1, 58080, Tempo, 815883
1, 58320, Tempo, 872600
1, 58560, Tempo, 974026
1, 58800, Tempo, 1232033
1, 58980, Tempo, 821243
1, 59040, Tempo, 815883
1, 59160, Tempo, 790202
1, 59280, Tempo, 775595
1, 59400, Tempo, 843289
1, 59520, Tempo, 815883
1, 59640, Tempo, 795229
1, 59760, Tempo, 770812
1, 59880, Tempo, 849017
1, 60000, Tempo, 810701
1, 60240, Tempo, 860585
1, 60480, Tempo, 826674
1, 60600, Tempo, 805477
1, 60720, Tempo, 790202
1, 60960, Tempo, 790202
1, 61080, Tempo, 766186
1, 61200, Tempo, 800320
1, 61320, Tempo, 837638
1, 61440, Tempo, 866551
1, 61560, Tempo, 904023
1, 61920, Tempo, 815883
1, 62040, Tempo, 770812
1, 62160, Tempo, 752351
1, 62280, Tempo, 843289
1, 62400, Tempo, 815883
1, 62520, Tempo, 770812
1, 62640, Tempo, 752351
1, 62760, Tempo, 849017
1, 62880, Tempo, 810701
1, 63120, Tempo, 860585
1, 63360, Tempo, 826674
1, 63480, Tempo, 805477
1, 63600, Tempo, 790202
1, 63840, Tempo, 790202
1, 63960, Tempo, 766186
1, 64080, Tempo, 800320
1, 64200, Tempo, 837638
1, 64320, Tempo, 866551
1, 64440, Tempo, 904023
1, 64800, Tempo, 810701
1, 64920, Tempo, 785340
1, 65280, Tempo, 805477
1, 65400, Tempo, 775595
1, 65640, Tempo, 821243
1, 65760, Tempo, 832178
1, 66000, Tempo, 891133
1, 66240, Tempo, 810701
1, 66360, Tempo, 785340
1, 66720, Tempo, 805477
1, 66840, Tempo, 775595
1, 67080, Tempo, 826674
1, 67200, Tempo, 872600
1, 67440, Tempo, 944733
1, 67680, Tempo, 832178
1, 67800, Tempo, 815883
1, 67920, Tempo, 766186
1, 68040, Tempo, 815883
1, 68160, Tempo, 805477
1, 68280, Tempo, 795229
1, 68380, Tempo, 780437
1, 68400, Tempo, 775595
1, 68520, Tempo, 810701
1, 68640, Tempo, 826674
1, 68880, Tempo, 785340
1, 69120, Tempo, 805477
1, 70560, Tempo, 775595
1, 70580, Tempo, 790202
1, 70680, Tempo, 775795
1, 71040, Tempo, 790202
1, 71160, Tempo, 775795
1, 71520, Tempo, 815328
1, 71640, Tempo, 775795
1, 71760, Tempo, 810263
1, 71880, Tempo, 780539
1, 72000, Tempo, 805153
1, 72120, Tempo, 780539
1, 72240, Tempo, 805153
1, 72360, Tempo, 780539
1, 72480, Tempo, 815328
1, 72600, Tempo, 795123
1, 72960, Tempo, 859230
1, 73200, Tempo, 865052
1, 73440, Tempo, 775595
1, 73460, Tempo, 790202
1, 73560, Tempo, 775795
1, 73920, Tempo, 790202
1, 74040, Tempo, 775795
1, 74400, Tempo, 805477
1, 74520, Tempo, 775795
1, 74640, Tempo, 800320
1, 74760, Tempo, 775595
1, 74880, Tempo, 805153
1, 75000, Tempo, 780539
1, 75120, Tempo, 805153
1, 75240, Tempo, 780539
1, 75360, Tempo, 815328
1, 75480, Tempo, 795123
1, 75840, Tempo, 859230
1, 76080, Tempo, 884825
1, 76320, Tempo, 775595
1, 76340, Tempo, 790202
1, 76440, Tempo, 775795
1, 76800, Tempo, 790202
1, 76920, Tempo, 775795
1, 77280, Tempo, 815328
1, 77400, Tempo, 775795
1, 77520, Tempo, 810263
1, 77640, Tempo, 780539
1, 77760, Tempo, 805153
1, 77880, Tempo, 780539
1, 78000, Tempo, 805153
1, 78120, Tempo, 780539
1, 78240, Tempo, 815328
1, 78360, Tempo, 795123
1, 78720, Tempo, 859230
1, 78960, Tempo, 865052
1, 79200, Tempo, 775595
1, 79220, Tempo, 790202
1, 79320, Tempo, 770812
1, 79680, Tempo, 790202
1, 79800, Tempo, 770812
1, 80160, Tempo, 815328
1, 80280, Tempo, 775795
1, 80400, Tempo, 810263
1, 80520, Tempo, 780539
1, 80640, Tempo, 805153
1, 80760, Tempo, 780539
1, 80880, Tempo, 805153
1, 81000, Tempo, 780539
1, 81120, Tempo, 815328
1, 81240, Tempo, 795123
1, 81600, Tempo, 859230
1, 81840, Tempo, 865052
1, 81960, Tempo, 821243
1, 82080, Tempo, 795229
1, 82440, Tempo, 826674
1, 82560, Tempo, 795229
1, 82920, Tempo, 770812
1, 83040, Tempo, 795229
1, 83280, Tempo, 826674
1, 83760, Tempo, 800320
1, 84480, Tempo, 821243
1, 84600, Tempo, 800320
1, 84720, Tempo, 832178
1, 84960, Tempo, 805477
1, 85200, Tempo, 780437
1, 85440, Tempo, 805477
1, 85860, Tempo, 849017
1, 85920, Tempo, 832178
1, 86160, Tempo, 815883
1, 86340, Tempo, 897532
1, 86400, Tempo, 821243
1, 86880, Tempo, 810701
1, 87120, Tempo, 785340
1, 87360, Tempo, 843289
1, 87480, Tempo, 815883
1, 87600, Tempo, 843289
1, 87700, Tempo, 815883
1, 87840, Tempo, 795229
1, 88200, Tempo, 826674
1, 88320, Tempo, 795229
1, 88680, Tempo, 770812
1, 88800, Tempo, 795229
1, 89040, Tempo, 826674
1, 89520, Tempo, 800320
1, 89760, Tempo, 843289
1, 90000, Tempo, 815883
1, 90240, Tempo, 810701
1, 90480, Tempo, 821243
1, 90720, Tempo, 821243
1, 90960, Tempo, 805477
1, 91200, Tempo, 805477
1, 91420, Tempo, 785340
1, 91680, Tempo, 805477
1, 91920, Tempo, 872600
1, 92160, Tempo, 795229
1, 92520, Tempo, 770812
1, 92640, Tempo, 795229
1, 93000, Tempo, 770812
1, 93120, Tempo, 790202
1, 93360, Tempo, 810701
1, 93840, Tempo, 800320
1, 94560, Tempo, 821243
1, 95040, Tempo, 805477
1, 95280, Tempo, 832178
1, 95520, Tempo, 805477
1, 96000, Tempo, 832178
1, 96240, Tempo, 872600
1, 96480, Tempo, 849017
1, 96960, Tempo, 810701
1, 97200, Tempo, 878735
1, 97440, Tempo, 937647
1, 97680, Tempo, 1013342
1, 97920, Tempo, 917151
1, 98400, Tempo, 872600
1, 98640, Tempo, 843289
1, 98880, Tempo, 860585
1, 99120, Tempo, 805477
1, 99600, Tempo, 775595
1, 99840, Tempo, 832178
1, 100080, Tempo, 800320
1, 100560, Tempo, 826674
1, 100800, Tempo, 821243
1, 101280, Tempo, 832178
1, 101520, Tempo, 810701
1, 101760, Tempo, 837638
1, 102000, Tempo, 866551
1, 102240, Tempo, 821243
1, 102720, Tempo, 849017
1, 102960, Tempo, 884825
1, 103200, Tempo, 1021624
1, 103440, Tempo, 2855783
1, 103680, Key_signature, -3, "major"
1, 103680, Tempo, 1132075
1, 104060, Tempo, 785340
1, 104160, Tempo, 923930
1, 104640, Tempo, 989446
1, 105120, Tempo, 1111935
1, 105500, Tempo, 790202
1, 105600, Tempo, 930810
1, 106560, Tempo, 815883
1, 106680, Tempo, 790202
1, 106800, Tempo, 775595
1, 106920, Tempo, 843289
1, 107040, Tempo, 815883
1, 107160, Tempo, 795229
1, 107280, Tempo, 770812
1, 107400, Tempo, 849017
1, 107520, Tempo, 821243
1, 107760, Tempo, 860585
1, 108000, Tempo, 815883
1, 108120, Tempo, 790202
1, 108240, Tempo, 775595
1, 108360, Tempo, 843289
1, 108480, Tempo, 815883
1, 108600, Tempo, 795229
1, 108720, Tempo, 770812
1, 108840, Tempo, 849017
1, 108960, Tempo, 826674
1, 109200, Tempo, 860585
1, 109440, Tempo, 815883
1, 109560, Tempo, 790202
1, 109680, Tempo, 775595
1, 109800, Tempo, 843289
1, 109920, Tempo, 815883
1, 110040, Tempo, 795229
1, 110160, Tempo, 770812
1, 110280, Tempo, 849017
1, 110400, Tempo, 815883
1, 110640, Tempo, 854823
1, 110880, Tempo, 815883
1, 111000, Tempo, 790202
1, 111120, Tempo, 775595
1, 111240, Tempo, 843289
1, 111360, Tempo, 815883
1, 111480, Tempo, 795229
1, 111600, Tempo, 770812
1, 111720, Tempo, 837638
1, 111840, Tempo, 815883
1, 112080, Tempo, 860585
1, 112320, Tempo, 808625
1, 112440, Tempo, 783290
1, 112560, Tempo, 768738
1, 112680, Tempo, 815883
1, 112800, Tempo, 808625
1, 112920, Tempo, 788229
1, 113040, Tempo, 764039
1, 113160, Tempo, 814001
1, 113280, Tempo, 800320
1, 113520, Tempo, 826674
1, 113760, Key_signature, 3, "major"
1, 113760, Tempo, 793231
1, 113781, Tempo, 800320
1, 113880, Tempo, 775094
1, 114000, Tempo, 760746
1, 114120, Tempo, 805585
1, 114240, Tempo, 780437
1, 114360, Tempo, 780031
1, 114480, Tempo, 756144
1, 114600, Tempo, 790097
1, 114720, Tempo, 780031
1, 114960, Tempo, 800320
1, 115200, Tempo, 789162
1, 115320, Tempo, 756334
1, 115440, Tempo, 765404
1, 115560, Tempo, 751785
1, 115680, Tempo, 774793
1, 115800, Tempo, 742942
1, 115920, Tempo, 756334
1, 116040, Tempo, 742942
1, 116160, Tempo, 765404
1, 116280, Tempo, 738643
1, 116400, Tempo, 751785
1, 116520, Tempo, 730194
1, 116600, Tempo, 738552
1, 116640, Tempo, 760746
1, 116760, Tempo, 709807
1, 116880, Tempo, 726041
1, 117000, Tempo, 709136
1, 117120, Tempo, 738643
1, 117240, Tempo, 713776
1, 117360, Tempo, 730194
1, 117480, Tempo, 705799
1, 117600, Tempo, 730194
1, 117720, Tempo, 713776
1, 117820, Tempo, 730194
1, 117960, Tempo, 701919
1, 118080, Tempo, 726041
1, 118200, Tempo, 713776
1, 118560, Tempo, 730194
1, 118800, Tempo, 713776
1, 119040, Tempo, 726041
1, 119280, Tempo, 742942
1, 119480, Tempo, 761228
1, 119520, Tempo, 756811
1, 119521, Tempo, 748410
1, 119640, Tempo, 719166
1, 119760, Tempo, 748410
1, 119880, Tempo, 718477
1, 120000, Tempo, 744048
1, 120120, Tempo, 723240
1, 120240, Tempo, 748410
1, 120360, Tempo, 715137
1, 120480, Tempo, 744048
1, 120600, Tempo, 723240
1, 120700, Tempo, 739827
1, 120840, Tempo, 711153
1, 120960, Tempo, 748410
1, 121080, Tempo, 723240
1, 121200, Tempo, 735565
1, 121440, Tempo, 739827
1, 121680, Tempo, 723240
1, 121920, Tempo, 735565
1, 122160, Tempo, 744048
1, 122280, Tempo, 766284
1, 122400, Tempo, 744048
1, 122640, Tempo, 723240
1, 122880, Tempo, 727273
1, 123360, Tempo, 744048
1, 123600, Tempo, 715137
1, 123840, Tempo, 727273
1, 124080, Tempo, 711153
1, 124320, Tempo, 731351
1, 124541, Tempo, 713946
1, 124800, Tempo, 739098
1, 125040, Tempo, 717961
1, 125280, Tempo, 734754
1, 125520, Tempo, 723240
1, 125760, Tempo, 727273
1, 126240, Tempo, 744048
1, 126480, Tempo, 715137
1, 126720, Tempo, 701919
1, 127680, Tempo, 726304
1, 127920, Tempo, 739098
1, 128160, Tempo, 717961
1, 128400, Tempo, 701919
1, 128640, Tempo, 717961
1, 129120, Tempo, 743494
1, 129360, Tempo, 715137
1, 129840, Tempo, 698080
1, 130080, Tempo, 709891
1, 130320, Tempo, 730549
1, 130800, Tempo, 713946
1, 131040, Tempo, 717961
1, 131280, Tempo, 701919
1, 131400, Tempo, 722109
1, 131520, Tempo, 717961
1, 132000, Tempo, 743494
1, 132240, Tempo, 780437
1, 132480, Tempo, 743494
1, 132720, Tempo, 717961
1, 133680, Tempo, 734754
1, 133920, Tempo, 717961
1, 134400, Tempo, 722109
1, 134880, Tempo, 734754
1, 135360, Tempo, 747943
1, 135600, Tempo, 722109
1, 136560, Tempo, 756907
1, 136800, Tempo, 730549
1, 138120, Tempo, 880669
1, 138240, Key_signature, 0, "major"
1, 138240, Tempo, 726129
1, 138480, Tempo, 651042
1, 138600, Tempo, 713946
1, 138720, Tempo, 734754
1, 139200, Tempo, 722109
1, 139680, Tempo, 739098
1, 139920, Tempo, 651042
1, 140040, Tempo, 713946
1, 140160, Tempo, 734754
1, 140640, Tempo, 717961
1, 141120, Tempo, 739098
1, 141360, Tempo, 651042
1, 141480, Tempo, 713946
1, 141600, Tempo, 734754
1, 142080, Tempo, 722109
1, 142560, Tempo, 739098
1, 142800, Tempo, 651042
1, 142920, Tempo, 713946
1, 143040, Tempo, 734754
1, 143520, Tempo, 747943
1, 143760, Tempo, 810701
1, 144000, Tempo, 775595
1, 144480, Tempo, 815883
1, 145440, Tempo, 821243
1, 145920, Tempo, 859845
1, 146020, Tempo, 865426
1, 146120, Tempo, 871080
1, 146220, Tempo, 876937
1, 146320, Tempo, 882613
1, 146400, Tempo, 882613
1, 146420, Tempo, 884825
1, 146460, Tempo, 891133
1, 146480, Tempo, 897532
1, 146500, Tempo, 904023
1, 146520, Tempo, 910470
1, 146540, Tempo, 917151
1, 146560, Tempo, 923930
1, 146600, Tempo, 930810
1, 146620, Tempo, 937647
1, 146640, Tempo, 944733
1, 146660, Tempo, 951928
1, 146680, Tempo, 959233
1, 146700, Tempo, 966495
1, 146740, Tempo, 974026
1, 146760, Tempo, 981675
1, 146780, Tempo, 989446
1, 146800, Tempo, 997175
1, 146820, Tempo, 1005193
1, 146840, Tempo, 1013342
1, 146860, Tempo, 1021624
1, 146880, Tempo, 865426
1, 146881, Tempo, 815883
1, 148440, Marker_t, "Fine"
1, 148441, Tempo, 779221
1, 148441, End_track
2, 0, Start_track
2, 0, Title_t, "Piano right"
2, 0, Program_c, 0, 0
2, 0, Control_c, 0, 7, 100
2, 0, Control_c, 0, 10, 64
2, 0, Control_c, 0, 91, 127
2, 0, Control_c, 0, 64, 0
2, 0, Control_c, 0, 91, 127
2, 0, Text_t, "bdca426d104a26ac9dcb070447587523"
2, 120, Note_on_c, 0, 59, 45
2, 120, Note_on_c, 0, 65, 45
2, 150, Note_on_c, 0, 65, 0
2, 150, Note_on_c, 0, 59, 0
2, 360, Note_on_c, 0, 69, 45
2, 360, Note_on_c, 0, 62, 45
2, 390, Note_on_c, 0, 62, 0
2, 390, Note_on_c, 0, 69, 0
2, 480, Note_on_c, 0, 59, 48
2, 580, Note_on_c, 0, 59, 0
2, 600, Note_on_c, 0, 59, 44
2, 660, Note_on_c, 0, 59, 0
2, 660, Note_on_c, 0, 60, 44
2, 720, Note_on_c, 0, 60, 0
2, 720, Note_on_c, 0, 69, 45
2, 720, Note_on_c, 0, 65, 45
2, 720, Note_on_c, 0, 59, 45
2, 840, Note_on_c, 0, 59, 0
2, 840, Note_on_c, 0, 65, 0
2, 840, Note_on_c, 0, 69, 0
2, 840, Note_on_c, 0, 57, 45
2, 930, Note_on_c, 0, 57, 0
2, 960, Note_on_c, 0, 59, 48
2, 1005, Note_on_c, 0, 59, 0
2, 1200, Note_on_c, 0, 65, 43
2, 1200, Note_on_c, 0, 69, 43
2, 1200, Note_on_c, 0, 60, 43
2, 1290, Note_on_c, 0, 60, 0
2, 1290, Note_on_c, 0, 69, 0
2, 1290, Note_on_c, 0, 65, 0
2, 1440, Note_on_c, 0, 59, 48
2, 1560, Note_on_c, 0, 59, 0
2, 1560, Note_on_c, 0, 60, 45
2, 1680, Note_on_c, 0, 60, 0
2, 1680, Note_on_c, 0, 72, 48
2, 1680, Note_on_c, 0, 69, 48
2, 1680, Note_on_c, 0, 62, 48
2, 1740, Note_on_c, 0, 62, 0
2, 1800, Note_on_c, 0, 64, 45
2, 1860, Note_on_c, 0, 64, 0
2, 1920, Note_on_c, 0, 69, 0
2, 1920, Note_on_c, 0, 72, 0
2, 1920, Note_on_c, 0, 66, 48
2, 1980, Note_on_c, 0, 66, 0
2, 2040, Note_on_c, 0, 66, 45
2, 2080, Note_on_c, 0, 66, 0
2, 2080, Note_on_c, 0, 67, 44
2, 2120, Note_on_c, 0, 67, 0
2, 2120, Note_on_c, 0, 66, 44
2, 2160, Note_on_c, 0, 66, 0
2, 2160, Note_on_c, 0, 64, 48
2, 2160, Note_on_c, 0, 72, 42
2, 2160, Note_on_c, 0, 69, 42
2, 2280, Note_on_c, 0, 64, 0
2, 2280, Note_on_c, 0, 62, 45
2, 2400, Note_on_c, 0, 62, 0
2, 2400, Note_on_c, 0, 69, 0
2, 2400, Note_on_c, 0, 72, 0
2, 2400, Note_on_c, 0, 60, 48
2, 2500, Note_on_c, 0, 60, 0
2, 2520, Note_on_c, 0, 62, 44
2, 2620, Note_on_c, 0, 62, 0
2, 2640, Note_on_c, 0, 72, 44
2, 2640, Note_on_c, 0, 69, 44
2, 2640, Note_on_c, 0, 64, 44
2, 2860, Note_on_c, 0, 64, 0
2, 2860, Note_on_c, 0, 69, 0
2, 2860, Note_on_c, 0, 72, 0
2, 2880, Note_on_c, 0, 64, 48
2, 2880, Control_c, 0, 91, 127
2, 3000, Note_on_c, 0, 64, 0
2, 3000, Note_on_c, 0, 66, 45
2, 3120, Note_on_c, 0, 66, 0
2, 3120, Note_on_c, 0, 68, 45
2, 3120, Note_on_c, 0, 59, 48
2, 3180, Note_on_c, 0, 68, 0
2, 3240, Note_on_c, 0, 69, 45
2, 3300, Note_on_c, 0, 69, 0
2, 3360, Note_on_c, 0, 59, 0
2, 3360, Note_on_c, 0, 66, 48
2, 3460, Note_on_c, 0, 66, 0
2, 3480, Note_on_c, 0, 66, 49
2, 3540, Note_on_c, 0, 66, 0
2, 3540, Note_on_c, 0, 68, 51
2, 3600, Note_on_c, 0, 68, 0
2, 3600, Note_on_c, 0, 66, 55
2, 3600, Note_on_c, 0, 62, 48
2, 3720, Note_on_c, 0, 62, 0
2, 3720, Note_on_c, 0, 66, 0
2, 3720, Note_on_c, 0, 60, 43
2, 3720, Note_on_c, 0, 64, 50
2, 3810, Note_on_c, 0, 64, 0
2, 3810, Note_on_c, 0, 60, 0
2, 3840, Note_on_c, 0, 66, 55
2, 3840, Note_on_c, 0, 62, 48
2, 3960, Note_on_c, 0, 62, 0
2, 3960, Note_on_c, 0, 66, 0
2, 4080, Note_on_c, 0, 62, 57
2, 4080, Note_on_c, 0, 66, 57
2, 4080, Note_on_c, 0, 69, 57
2, 4200, Note_on_c, 0, 69, 0
2, 4200, Note_on_c, 0, 66, 0
2, 4200, Note_on_c, 0, 62, 0
2, 4320, Note_on_c, 0, 68, 49
2, 4320, Note_on_c, 0, 64, 49
2, 4440, Note_on_c, 0, 64, 0
2, 4440, Note_on_c, 0, 68, 0
2, 4440, Note_on_c, 0, 66, 46
2, 4440, Note_on_c, 0, 69, 46
2, 4560, Note_on_c, 0, 69, 0
2, 4560, Note_on_c, 0, 66, 0
2, 4560, Note_on_c, 0, 64, 49
2, 4560, Note_on_c, 0, 68, 49
2, 4900, Note_on_c, 0, 68, 0
2, 4900, Note_on_c, 0, 64, 0
2, 4920, Note_on_c, 0, 66, 48
2, 4920, Note_on_c, 0, 69, 48
2, 5040, Note_on_c, 0, 69, 0
2, 5040, Note_on_c, 0, 66, 0
2, 5040, Note_on_c, 0, 68, 51
2, 5040, Note_on_c, 0, 71, 51
2, 5380, Note_on_c, 0, 71, 0
2, 5380, Note_on_c, 0, 68, 0
2, 5400, Note_on_c, 0, 69, 50
2, 5400, Note_on_c, 0, 72, 50
2, 5520, Note_on_c, 0, 72, 0
2, 5520, Note_on_c, 0, 69, 0
2, 5520, Note_on_c, 0, 64, 45
2, 5520, Note_on_c, 0, 68, 45
2, 5760, Note_on_c, 0, 68, 0
2, 5760, Note_on_c, 0, 64, 0
2, 5760, Note_on_c, 0, 76, 45
2, 5760, Note_on_c, 0, 79, 45
2, 5880, Note_on_c, 0, 79, 0
2, 5880, Note_on_c, 0, 76, 0
2, 5880, Note_on_c, 0, 74, 43
2, 5880, Note_on_c, 0, 77, 43
2, 5940, Note_on_c, 0, 77, 0
2, 5940, Note_on_c, 0, 74, 0
2, 5940, Note_on_c, 0, 76, 43
2, 5940, Note_on_c, 0, 79, 43
2, 6000, Note_on_c, 0, 79, 0
2, 6000, Note_on_c, 0, 76, 0
2, 6000, Note_on_c, 0, 74, 45
2, 6000, Note_on_c, 0, 77, 45
2, 6120, Note_on_c, 0, 77, 0
2, 6120, Note_on_c, 0, 74, 0
2, 6120, Note_on_c, 0, 72, 42
2, 6120, Note_on_c, 0, 76, 42
2, 6240, Note_on_c, 0, 76, 0
2, 6240, Note_on_c, 0, 72, 0
2, 6240, Note_on_c, 0, 74, 45
2, 6240, Note_on_c, 0, 70, 45
2, 6360, Note_on_c, 0, 70, 0
2, 6360, Note_on_c, 0, 74, 0
2, 6360, Note_on_c, 0, 69, 43
2, 6360, Note_on_c, 0, 72, 43
2, 6480, Note_on_c, 0, 72, 0
2, 6480, Note_on_c, 0, 69, 0
2, 6480, Note_on_c, 0, 70, 44
2, 6480, Note_on_c, 0, 74, 44
2, 6840, Note_on_c, 0, 74, 0
2, 6840, Note_on_c, 0, 70, 0
2, 6840, Note_on_c, 0, 69, 42
2, 6840, Note_on_c, 0, 72, 42
2, 6900, Note_on_c, 0, 72, 0
2, 6900, Note_on_c, 0, 69, 0
2, 6900, Note_on_c, 0, 70, 42
2, 6900, Note_on_c, 0, 74, 42
2, 6960, Note_on_c, 0, 74, 0
2, 6960, Note_on_c, 0, 70, 0
2, 6960, Note_on_c, 0, 72, 44
2, 6960, Note_on_c, 0, 69, 44
2, 7080, Note_on_c, 0, 69, 0
2, 7080, Note_on_c, 0, 72, 0
2, 7080, Note_on_c, 0, 70, 42
2, 7080, Note_on_c, 0, 67, 42
2, 7200, Note_on_c, 0, 67, 0
2, 7200, Note_on_c, 0, 70, 0
2, 7200, Note_on_c, 0, 65, 44
2, 7200, Note_on_c, 0, 69, 44
2, 7320, Note_on_c, 0, 69, 0
2, 7320, Note_on_c, 0, 65, 0
2, 7320, Note_on_c, 0, 64, 43
2, 7320, Note_on_c, 0, 67, 43
2, 7440, Note_on_c, 0, 67, 0
2, 7440, Note_on_c, 0, 64, 0
2, 7440, Note_on_c, 0, 65, 43
2, 7440, Note_on_c, 0, 69, 43
2, 7660, Note_on_c, 0, 69, 0
2, 7660, Note_on_c, 0, 65, 0
2, 7680, Note_on_c, 0, 69, 48
2, 7680, Note_on_c, 0, 76, 51
2, 7680, Note_on_c, 0, 79, 51
2, 7800, Note_on_c, 0, 79, 0
2, 7800, Note_on_c, 0, 76, 0
2, 7800, Note_on_c, 0, 74, 49
2, 7800, Note_on_c, 0, 77, 49
2, 7860, Note_on_c, 0, 77, 0
2, 7860, Note_on_c, 0, 74, 0
2, 7860, Note_on_c, 0, 76, 49
2, 7860, Note_on_c, 0, 79, 49
2, 7920, Note_on_c, 0, 79, 0
2, 7920, Note_on_c, 0, 76, 0
2, 7920, Note_on_c, 0, 74, 51
2, 7920, Note_on_c, 0, 77, 51
2, 8040, Note_on_c, 0, 77, 0
2, 8040, Note_on_c, 0, 74, 0
2, 8040, Note_on_c, 0, 72, 48
2, 8040, Note_on_c, 0, 76, 48
2, 8160, Note_on_c, 0, 76, 0
2, 8160, Note_on_c, 0, 72, 0
2, 8160, Note_on_c, 0, 69, 0
2, 8160, Note_on_c, 0, 65, 39
2, 8160, Note_on_c, 0, 70, 51
2, 8160, Note_on_c, 0, 74, 51
2, 8280, Note_on_c, 0, 74, 0
2, 8280, Note_on_c, 0, 70, 0
2, 8280, Note_on_c, 0, 69, 49
2, 8280, Note_on_c, 0, 72, 49
2, 8400, Note_on_c, 0, 72, 0
2, 8400, Note_on_c, 0, 69, 0
2, 8400, Note_on_c, 0, 70, 50
2, 8400, Note_on_c, 0, 74, 50
2, 8640, Note_on_c, 0, 65, 0
2, 8640, Note_on_c, 0, 64, 43
2, 8760, Note_on_c, 0, 74, 0
2, 8760, Note_on_c, 0, 70, 0
2, 8760, Note_on_c, 0, 69, 46
2, 8760, Note_on_c, 0, 72, 46
2, 8820, Note_on_c, 0, 72, 0
2, 8820, Note_on_c, 0, 69, 0
2, 8820, Note_on_c, 0, 70, 46
2, 8820, Note_on_c, 0, 74, 46
2, 8880, Note_on_c, 0, 74, 0
2, 8880, Note_on_c, 0, 70, 0
2, 8880, Note_on_c, 0, 72, 49
2, 8880, Note_on_c, 0, 69, 49
2, 9000, Note_on_c, 0, 69, 0
2, 9000, Note_on_c, 0, 72, 0
2, 9000, Note_on_c, 0, 70, 45
2, 9000, Note_on_c, 0, 67, 45
2, 9120, Note_on_c, 0, 67, 0
2, 9120, Note_on_c, 0, 70, 0
2, 9120, Note_on_c, 0, 64, 0
2, 9120, Note_on_c, 0, 65, 46
2, 9120, Note_on_c, 0, 69, 46
2, 9240, Note_on_c, 0, 69, 0
2, 9240, Note_on_c, 0, 65, 0
2, 9240, Note_on_c, 0, 64, 45
2, 9240, Note_on_c, 0, 67, 45
2, 9360, Note_on_c, 0, 67, 0
2, 9360, Note_on_c, 0, 64, 0
2, 9360, Note_on_c, 0, 65, 49
2, 9360, Note_on_c, 0, 69, 49
2, 9720, Note_on_c, 0, 69, 0
2, 9720, Note_on_c, 0, 67, 48
2, 9840, Note_on_c, 0, 67, 0
2, 9840, Note_on_c, 0, 69, 49
2, 9960, Note_on_c, 0, 65, 0
2, 9960, Note_on_c, 0, 64, 46
2, 10080, Note_on_c, 0, 64, 0
2, 10080, Note_on_c, 0, 62, 46
2, 10200, Note_on_c, 0, 69, 0
2, 10200, Note_on_c, 0, 67, 46
2, 10320, Note_on_c, 0, 67, 0
2, 10320, Note_on_c, 0, 69, 49
2, 10680, Note_on_c, 0, 69, 0
2, 10680, Note_on_c, 0, 71, 52
2, 10800, Note_on_c, 0, 71, 0
2, 10800, Note_on_c, 0, 74, 56
2, 10920, Note_on_c, 0, 74, 0
2, 10920, Note_on_c, 0, 71, 52
2, 11040, Note_on_c, 0, 71, 0
2, 11040, Note_on_c, 0, 69, 50
2, 11160, Note_on_c, 0, 69, 0
2, 11160, Note_on_c, 0, 71, 49
2, 11280, Note_on_c, 0, 71, 0
2, 11280, Note_on_c, 0, 64, 50
2, 11400, Note_on_c, 0, 64, 0
2, 11400, Note_on_c, 0, 67, 49
2, 11520, Note_on_c, 0, 67, 0
2, 11520, Note_on_c, 0, 62, 0
2, 11520, Note_on_c, 0, 62, 52
2, 11520, Note_on_c, 0, 69, 52
2, 11640, Note_on_c, 0, 69, 0
2, 11640, Note_on_c, 0, 67, 49
2, 11760, Note_on_c, 0, 67, 0
2, 11760, Note_on_c, 0, 69, 52
2, 12120, Note_on_c, 0, 69, 0
2, 12120, Note_on_c, 0, 71, 54
2, 12240, Note_on_c, 0, 71, 0
2, 12240, Note_on_c, 0, 74, 56
2, 12360, Note_on_c, 0, 74, 0
2, 12360, Note_on_c, 0, 71, 52
2, 12480, Note_on_c, 0, 71, 0
2, 12480, Note_on_c, 0, 69, 55
2, 12600, Note_on_c, 0, 69, 0
2, 12600, Note_on_c, 0, 71, 50
2, 12720, Note_on_c, 0, 71, 0
2, 12720, Note_on_c, 0, 69, 49
2, 12840, Note_on_c, 0, 69, 0
2, 12840, Note_on_c, 0, 65, 48
2, 12960, Note_on_c, 0, 65, 0
2, 12960, Note_on_c, 0, 62, 0
2, 12960, Note_on_c, 0, 64, 39
2, 12960, Note_on_c, 0, 60, 39
2, 13560, Note_on_c, 0, 57, 44
2, 13605, Note_on_c, 0, 57, 0
2, 13680, Note_on_c, 0, 59, 44
2, 13725, Note_on_c, 0, 59, 0
2, 13800, Note_on_c, 0, 60, 44
2, 13845, Note_on_c, 0, 60, 0
2, 13920, Note_on_c, 0, 62, 46
2, 13965, Note_on_c, 0, 62, 0
2, 14040, Note_on_c, 0, 64, 42
2, 14085, Note_on_c, 0, 64, 0
2, 14160, Note_on_c, 0, 66, 42
2, 14205, Note_on_c, 0, 66, 0
2, 14280, Note_on_c, 0, 68, 42
2, 14325, Note_on_c, 0, 68, 0
2, 14400, Note_on_c, 0, 60, 0
2, 14400, Note_on_c, 0, 64, 0
2, 14400, Note_on_c, 0, 62, 40
2, 14400, Note_on_c, 0, 64, 40
2, 15000, Note_on_c, 0, 57, 40
2, 15045, Note_on_c, 0, 57, 0
2, 15120, Note_on_c, 0, 59, 40
2, 15165, Note_on_c, 0, 59, 0
2, 15240, Note_on_c, 0, 60, 40
2, 15285, Note_on_c, 0, 60, 0
2, 15360, Note_on_c, 0, 62, 44
2, 15405, Note_on_c, 0, 62, 0
2, 15480, Note_on_c, 0, 64, 38
2, 15525, Note_on_c, 0, 64, 0
2, 15600, Note_on_c, 0, 66, 37
2, 15645, Note_on_c, 0, 66, 0
2, 15720, Note_on_c, 0, 68, 34
2, 15765, Note_on_c, 0, 68, 0
2, 15840, Note_on_c, 0, 64, 0
2, 15840, Note_on_c, 0, 62, 0
2, 15840, Note_on_c, 0, 57, 44
2, 15840, Control_c, 0, 91, 127
2, 15870, Note_on_c, 0, 57, 0
2, 15960, Note_on_c, 0, 59, 42
2, 15990, Note_on_c, 0, 59, 0
2, 16080, Note_on_c, 0, 65, 39
2, 16080, Note_on_c, 0, 69, 39
2, 16080, Note_on_c, 0, 60, 44
2, 16110, Note_on_c, 0, 60, 0
2, 16110, Note_on_c, 0, 69, 0
2, 16110, Note_on_c, 0, 65, 0
2, 16200, Note_on_c, 0, 62, 42
2, 16230, Note_on_c, 0, 62, 0
2, 16320, Note_on_c, 0, 59, 44
2, 16420, Note_on_c, 0, 59, 0
2, 16440, Note_on_c, 0, 59, 40
2, 16500, Note_on_c, 0, 59, 0
2, 16500, Note_on_c, 0, 60, 40
2, 16560, Note_on_c, 0, 60, 0
2, 16560, Note_on_c, 0, 69, 39
2, 16560, Note_on_c, 0, 65, 39
2, 16560, Note_on_c, 0, 59, 42
2, 16680, Note_on_c, 0, 59, 0
2, 16680, Note_on_c, 0, 65, 0
2, 16680, Note_on_c, 0, 69, 0
2, 16680, Note_on_c, 0, 57, 42
2, 16770, Note_on_c, 0, 57, 0
2, 16800, Note_on_c, 0, 59, 44
2, 16845, Note_on_c, 0, 59, 0
2, 17040, Note_on_c, 0, 65, 39
2, 17040, Note_on_c, 0, 69, 39
2, 17040, Note_on_c, 0, 60, 39
2, 17070, Note_on_c, 0, 60, 0
2, 17070, Note_on_c, 0, 69, 0
2, 17070, Note_on_c, 0, 65, 0
2, 17280, Note_on_c, 0, 59, 44
2, 17400, Note_on_c, 0, 59, 0
2, 17400, Note_on_c, 0, 60, 42
2, 17520, Note_on_c, 0, 60, 0
2, 17520, Note_on_c, 0, 72, 39
2, 17520, Note_on_c, 0, 69, 39
2, 17520, Note_on_c, 0, 62, 44
2, 17580, Note_on_c, 0, 62, 0
2, 17640, Note_on_c, 0, 64, 42
2, 17700, Note_on_c, 0, 64, 0
2, 17760, Note_on_c, 0, 69, 0
2, 17760, Note_on_c, 0, 72, 0
2, 17760, Note_on_c, 0, 66, 44
2, 17820, Note_on_c, 0, 66, 0
2, 17880, Note_on_c, 0, 66, 42
2, 17920, Note_on_c, 0, 66, 0
2, 17920, Note_on_c, 0, 67, 40
2, 17960, Note_on_c, 0, 67, 0
2, 17960, Note_on_c, 0, 66, 40
2, 18000, Note_on_c, 0, 66, 0
2, 18000, Note_on_c, 0, 72, 38
2, 18000, Note_on_c, 0, 69, 38
2, 18000, Note_on_c, 0, 64, 44
2, 18120, Note_on_c, 0, 64, 0
2, 18120, Note_on_c, 0, 62, 42
2, 18240, Note_on_c, 0, 62, 0
2, 18240, Note_on_c, 0, 69, 0
2, 18240, Note_on_c, 0, 72, 0
2, 18240, Note_on_c, 0, 60, 44
2, 18340, Note_on_c, 0, 60, 0
2, 18360, Note_on_c, 0, 62, 40
2, 18460, Note_on_c, 0, 62, 0
2, 18480, Note_on_c, 0, 64, 40
2, 18480, Note_on_c, 0, 72, 40
2, 18480, Note_on_c, 0, 69, 40
2, 18720, Note_on_c, 0, 69, 0
2, 18720, Note_on_c, 0, 72, 0
2, 18720, Note_on_c, 0, 64, 0
2, 18720, Note_on_c, 0, 69, 44
2, 18720, Control_c, 0, 91, 127
2, 18750, Note_on_c, 0, 69, 0
2, 18840, Note_on_c, 0, 71, 42
2, 18870, Note_on_c, 0, 71, 0
2, 18960, Note_on_c, 0, 65, 39
2, 18960, Note_on_c, 0, 62, 39
2, 18960, Note_on_c, 0, 72, 44
2, 18990, Note_on_c, 0, 72, 0
2, 18990, Note_on_c, 0, 62, 0
2, 18990, Note_on_c, 0, 65, 0
2, 19080, Note_on_c, 0, 74, 43
2, 19110, Note_on_c, 0, 74, 0
2, 19200, Note_on_c, 0, 71, 45
2, 19300, Note_on_c, 0, 71, 0
2, 19320, Note_on_c, 0, 71, 43
2, 19380, Note_on_c, 0, 71, 0
2, 19380, Note_on_c, 0, 72, 43
2, 19440, Note_on_c, 0, 72, 0
2, 19440, Note_on_c, 0, 62, 42
2, 19440, Note_on_c, 0, 65, 42
2, 19440, Note_on_c, 0, 71, 44
2, 19560, Note_on_c, 0, 71, 0
2, 19560, Note_on_c, 0, 65, 0
2, 19560, Note_on_c, 0, 62, 0
2, 19560, Note_on_c, 0, 69, 44
2, 19650, Note_on_c, 0, 69, 0
2, 19680, Note_on_c, 0, 71, 48
2, 19725, Note_on_c, 0, 71, 0
2, 19920, Note_on_c, 0, 65, 43
2, 19920, Note_on_c, 0, 62, 43
2, 19920, Note_on_c, 0, 72, 43
2, 19950, Note_on_c, 0, 72, 0
2, 19950, Note_on_c, 0, 62, 0
2, 19950, Note_on_c, 0, 65, 0
2, 20160, Note_on_c, 0, 71, 50
2, 20280, Note_on_c, 0, 71, 0
2, 20280, Note_on_c, 0, 72, 48
2, 20400, Note_on_c, 0, 72, 0
2, 20400, Note_on_c, 0, 72, 44
2, 20400, Note_on_c, 0, 69, 44
2, 20400, Note_on_c, 0, 74, 52
2, 20460, Note_on_c, 0, 74, 0
2, 20520, Note_on_c, 0, 76, 50
2, 20580, Note_on_c, 0, 76, 0
2, 20640, Note_on_c, 0, 69, 0
2, 20640, Note_on_c, 0, 72, 0
2, 20640, Note_on_c, 0, 78, 52
2, 20700, Note_on_c, 0, 78, 0
2, 20760, Note_on_c, 0, 78, 48
2, 20800, Note_on_c, 0, 78, 0
2, 20800, Note_on_c, 0, 79, 48
2, 20840, Note_on_c, 0, 79, 0
2, 20840, Note_on_c, 0, 78, 48
2, 20880, Note_on_c, 0, 78, 0
2, 20880, Note_on_c, 0, 76, 52
2, 21000, Note_on_c, 0, 76, 0
2, 21000, Note_on_c, 0, 74, 50
2, 21120, Note_on_c, 0, 74, 0
2, 21120, Note_on_c, 0, 72, 52
2, 21240, Note_on_c, 0, 72, 0
2, 21240, Note_on_c, 0, 74, 48
2, 21360, Note_on_c, 0, 74, 0
2, 21360, Note_on_c, 0, 76, 48
2, 21600, Note_on_c, 0, 69, 45
2, 21600, Note_on_c, 0, 72, 50
2, 21720, Note_on_c, 0, 72, 0
2, 21720, Note_on_c, 0, 69, 0
2, 21720, Note_on_c, 0, 74, 48
2, 21840, Note_on_c, 0, 74, 0
2, 21840, Note_on_c, 0, 76, 0
2, 21840, Note_on_c, 0, 67, 40
2, 21840, Note_on_c, 0, 71, 40
2, 21840, Note_on_c, 0, 76, 48
2, 22060, Note_on_c, 0, 76, 0
2, 22060, Note_on_c, 0, 71, 0
2, 22060, Note_on_c, 0, 67, 0
2, 22080, Note_on_c, 0, 66, 40
2, 22080, Note_on_c, 0, 69, 46
2, 22200, Note_on_c, 0, 69, 0
2, 22200, Note_on_c, 0, 71, 45
2, 22320, Note_on_c, 0, 71, 0
2, 22320, Note_on_c, 0, 66, 0
2, 22320, Note_on_c, 0, 65, 39
2, 22320, Note_on_c, 0, 68, 39
2, 22320, Note_on_c, 0, 72, 46
2, 22560, Note_on_c, 0, 68, 0
2, 22560, Note_on_c, 0, 65, 0
2, 22560, Note_on_c, 0, 64, 38
2, 22560, Note_on_c, 0, 67, 38
2, 22780, Note_on_c, 0, 72, 0
2, 22800, Note_on_c, 0, 67, 0
2, 22800, Note_on_c, 0, 64, 0
2, 22800, Note_on_c, 0, 68, 37
2, 22800, Note_on_c, 0, 63, 34
2, 22800, Note_on_c, 0, 66, 34
2, 23040, Note_on_c, 0, 66, 0
2, 23040, Note_on_c, 0, 63, 0
2, 23040, Note_on_c, 0, 65, 31
2, 23040, Note_on_c, 0, 62, 31
2, 23280, Note_on_c, 0, 62, 0
2, 23280, Note_on_c, 0, 65, 0
2, 23280, Note_on_c, 0, 68, 0
2, 23280, Note_on_c, 0, 64, 32
2, 23280, Note_on_c, 0, 61, 32
2, 23520, Note_on_c, 0, 61, 0
2, 23520, Note_on_c, 0, 60, 32
2, 23610, Note_on_c, 0, 60, 0
2, 23760, Note_on_c, 0, 59, 31
2, 23850, Note_on_c, 0, 59, 0
2, 24000, Note_on_c, 0, 62, 31
2, 24000, Note_on_c, 0, 58, 31
2, 24090, Note_on_c, 0, 58, 0
2, 24090, Note_on_c, 0, 62, 0
2, 24480, Note_on_c, 0, 64, 0
2, 24720, Note_on_c, 0, 60, 38
2, 24720, Note_on_c, 0, 64, 38
2, 24720, Note_on_c, 0, 69, 45
2, 24765, Note_on_c, 0, 69, 0
2, 24765, Note_on_c, 0, 64, 0
2, 24765, Note_on_c, 0, 60, 0
2, 24840, Note_on_c, 0, 59, 33
2, 24840, Note_on_c, 0, 62, 33
2, 24840, Note_on_c, 0, 64, 39
2, 24885, Note_on_c, 0, 64, 0
2, 24885, Note_on_c, 0, 62, 0
2, 24885, Note_on_c, 0, 59, 0
2, 24960, Note_on_c, 0, 59, 33
2, 24960, Note_on_c, 0, 62, 33
2, 24960, Note_on_c, 0, 64, 39
2, 24994, Note_on_c, 0, 64, 0
2, 24994, Note_on_c, 0, 62, 0
2, 24994, Note_on_c, 0, 59, 0
2, 25080, Note_on_c, 0, 60, 33
2, 25080, Note_on_c, 0, 64, 33
2, 25080, Note_on_c, 0, 69, 39
2, 25125, Note_on_c, 0, 69, 0
2, 25125, Note_on_c, 0, 64, 0
2, 25125, Note_on_c, 0, 60, 0
2, 25200, Note_on_c, 0, 60, 37
2, 25200, Note_on_c, 0, 64, 37
2, 25200, Note_on_c, 0, 69, 44
2, 25245, Note_on_c, 0, 69, 0
2, 25245, Note_on_c, 0, 64, 0
2, 25245, Note_on_c, 0, 60, 0
2, 25320, Note_on_c, 0, 64, 44
2, 25320, Note_on_c, 0, 59, 37
2, 25320, Note_on_c, 0, 62, 37
2, 25365, Note_on_c, 0, 62, 0
2, 25365, Note_on_c, 0, 59, 0
2, 25365, Note_on_c, 0, 64, 0
2, 25440, Note_on_c, 0, 59, 34
2, 25440, Note_on_c, 0, 64, 40
2, 25440, Note_on_c, 0, 62, 34
2, 25474, Note_on_c, 0, 62, 0
2, 25474, Note_on_c, 0, 64, 0
2, 25474, Note_on_c, 0, 59, 0
2, 25560, Note_on_c, 0, 60, 36
2, 25560, Note_on_c, 0, 64, 36
2, 25560, Note_on_c, 0, 69, 43
2, 25605, Note_on_c, 0, 69, 0
2, 25605, Note_on_c, 0, 64, 0
2, 25605, Note_on_c, 0, 60, 0
2, 25680, Note_on_c, 0, 62, 41
2, 25680, Note_on_c, 0, 67, 41
2, 25680, Note_on_c, 0, 71, 49
2, 25714, Note_on_c, 0, 71, 0
2, 25714, Note_on_c, 0, 67, 0
2, 25714, Note_on_c, 0, 62, 0
2, 25920, Note_on_c, 0, 81, 78
2, 25920, Note_on_c, 0, 69, 68
2, 26150, Note_on_c, 0, 69, 0
2, 26150, Note_on_c, 0, 81, 0
2, 26160, Note_on_c, 0, 60, 38
2, 26160, Note_on_c, 0, 64, 38
2, 26160, Note_on_c, 0, 69, 45
2, 26205, Note_on_c, 0, 69, 0
2, 26205, Note_on_c, 0, 64, 0
2, 26205, Note_on_c, 0, 60, 0
2, 26280, Note_on_c, 0, 59, 33
2, 26280, Note_on_c, 0, 62, 33
2, 26280, Note_on_c, 0, 64, 39
2, 26325, Note_on_c, 0, 64, 0
2, 26325, Note_on_c, 0, 62, 0
2, 26325, Note_on_c, 0, 59, 0
2, 26400, Note_on_c, 0, 59, 33
2, 26400, Note_on_c, 0, 62, 33
2, 26400, Note_on_c, 0, 64, 39
2, 26434, Note_on_c, 0, 64, 0
2, 26434, Note_on_c, 0, 62, 0
2, 26434, Note_on_c, 0, 59, 0
2, 26520, Note_on_c, 0, 60, 33
2, 26520, Note_on_c, 0, 64, 33
2, 26520, Note_on_c, 0, 69, 39
2, 26565, Note_on_c, 0, 69, 0
2, 26565, Note_on_c, 0, 64, 0
2, 26565, Note_on_c, 0, 60, 0
2, 26640, Note_on_c, 0, 64, 37
2, 26640, Note_on_c, 0, 69, 44
2, 26640, Note_on_c, 0, 60, 37
2, 26685, Note_on_c, 0, 60, 0
2, 26685, Note_on_c, 0, 69, 0
2, 26685, Note_on_c, 0, 64, 0
2, 26760, Note_on_c, 0, 62, 37
2, 26760, Note_on_c, 0, 59, 37
2, 26760, Note_on_c, 0, 64, 44
2, 26805, Note_on_c, 0, 64, 0
2, 26805, Note_on_c, 0, 59, 0
2, 26805, Note_on_c, 0, 62, 0
2, 26880, Note_on_c, 0, 59, 34
2, 26880, Note_on_c, 0, 64, 40
2, 26880, Note_on_c, 0, 62, 34
2, 26914, Note_on_c, 0, 62, 0
2, 26914, Note_on_c, 0, 64, 0
2, 26914, Note_on_c, 0, 59, 0
2, 27000, Note_on_c, 0, 60, 39
2, 27000, Note_on_c, 0, 64, 39
2, 27000, Note_on_c, 0, 69, 46
2, 27045, Note_on_c, 0, 69, 0
2, 27045, Note_on_c, 0, 64, 0
2, 27045, Note_on_c, 0, 60, 0
2, 27120, Note_on_c, 0, 62, 43
2, 27120, Note_on_c, 0, 67, 43
2, 27120, Note_on_c, 0, 71, 51
2, 27154, Note_on_c, 0, 71, 0
2, 27154, Note_on_c, 0, 67, 0
2, 27154, Note_on_c, 0, 62, 0
2, 27360, Note_on_c, 0, 84, 79
2, 27360, Note_on_c, 0, 72, 69
2, 27590, Note_on_c, 0, 72, 0
2, 27590, Note_on_c, 0, 84, 0
2, 27600, Note_on_c, 0, 64, 42
2, 27600, Note_on_c, 0, 67, 42
2, 27600, Note_on_c, 0, 72, 50
2, 27645, Note_on_c, 0, 72, 0
2, 27645, Note_on_c, 0, 67, 0
2, 27645, Note_on_c, 0, 64, 0
2, 27720, Note_on_c, 0, 62, 36
2, 27720, Note_on_c, 0, 65, 36
2, 27720, Note_on_c, 0, 67, 43
2, 27765, Note_on_c, 0, 67, 0
2, 27765, Note_on_c, 0, 65, 0
2, 27765, Note_on_c, 0, 62, 0
2, 27840, Note_on_c, 0, 62, 36
2, 27840, Note_on_c, 0, 65, 36
2, 27840, Note_on_c, 0, 67, 43
2, 27874, Note_on_c, 0, 67, 0
2, 27874, Note_on_c, 0, 65, 0
2, 27874, Note_on_c, 0, 62, 0
2, 27960, Note_on_c, 0, 72, 43
2, 27960, Note_on_c, 0, 64, 36
2, 27960, Note_on_c, 0, 67, 36
2, 28005, Note_on_c, 0, 67, 0
2, 28005, Note_on_c, 0, 64, 0
2, 28005, Note_on_c, 0, 72, 0
2, 28080, Note_on_c, 0, 64, 41
2, 28080, Note_on_c, 0, 67, 41
2, 28080, Note_on_c, 0, 72, 49
2, 28125, Note_on_c, 0, 72, 0
2, 28125, Note_on_c, 0, 67, 0
2, 28125, Note_on_c, 0, 64, 0
2, 28200, Note_on_c, 0, 62, 41
2, 28200, Note_on_c, 0, 65, 41
2, 28200, Note_on_c, 0, 67, 49
2, 28245, Note_on_c, 0, 67, 0
2, 28245, Note_on_c, 0, 65, 0
2, 28245, Note_on_c, 0, 62, 0
2, 28320, Note_on_c, 0, 62, 37
2, 28320, Note_on_c, 0, 67, 44
2, 28320, Note_on_c, 0, 65, 37
2, 28354, Note_on_c, 0, 65, 0
2, 28354, Note_on_c, 0, 67, 0
2, 28354, Note_on_c, 0, 62, 0
2, 28440, Note_on_c, 0, 64, 43
2, 28440, Note_on_c, 0, 67, 43
2, 28440, Note_on_c, 0, 72, 51
2, 28485, Note_on_c, 0, 72, 0
2, 28485, Note_on_c, 0, 67, 0
2, 28485, Note_on_c, 0, 64, 0
2, 28560, Note_on_c, 0, 65, 47
2, 28560, Note_on_c, 0, 70, 47
2, 28560, Note_on_c, 0, 74, 56
2, 28594, Note_on_c, 0, 74, 0
2, 28594, Note_on_c, 0, 70, 0
2, 28594, Note_on_c, 0, 65, 0
2, 28800, Note_on_c, 0, 84, 88
2, 28800, Note_on_c, 0, 72, 75
2, 29030, Note_on_c, 0, 72, 0
2, 29030, Note_on_c, 0, 84, 0
2, 29040, Note_on_c, 0, 64, 48
2, 29040, Note_on_c, 0, 67, 48
2, 29040, Note_on_c, 0, 72, 57
2, 29085, Note_on_c, 0, 72, 0
2, 29085, Note_on_c, 0, 67, 0
2, 29085, Note_on_c, 0, 64, 0
2, 29160, Note_on_c, 0, 62, 41
2, 29160, Note_on_c, 0, 65, 41
2, 29160, Note_on_c, 0, 67, 49
2, 29205, Note_on_c, 0, 67, 0
2, 29205, Note_on_c, 0, 65, 0
2, 29205, Note_on_c, 0, 62, 0
2, 29280, Note_on_c, 0, 67, 49
2, 29280, Note_on_c, 0, 65, 41
2, 29280, Note_on_c, 0, 62, 41
2, 29314, Note_on_c, 0, 62, 0
2, 29314, Note_on_c, 0, 65, 0
2, 29314, Note_on_c, 0, 67, 0
2, 29400, Note_on_c, 0, 64, 41
2, 29400, Note_on_c, 0, 67, 41
2, 29400, Note_on_c, 0, 72, 49
2, 29445, Note_on_c, 0, 72, 0
2, 29445, Note_on_c, 0, 67, 0
2, 29445, Note_on_c, 0, 64, 0
2, 29520, Note_on_c, 0, 64, 47
2, 29520, Note_on_c, 0, 67, 47
2, 29520, Note_on_c, 0, 72, 56
2, 29565, Note_on_c, 0, 72, 0
2, 29565, Note_on_c, 0, 67, 0
2, 29565, Note_on_c, 0, 64, 0
2, 29640, Note_on_c, 0, 62, 47
2, 29640, Note_on_c, 0, 65, 47
2, 29640, Note_on_c, 0, 67, 56
2, 29685, Note_on_c, 0, 67, 0
2, 29685, Note_on_c, 0, 65, 0
2, 29685, Note_on_c, 0, 62, 0
2, 29760, Note_on_c, 0, 62, 42
2, 29760, Note_on_c, 0, 67, 50
2, 29760, Note_on_c, 0, 65, 42
2, 29794, Note_on_c, 0, 65, 0
2, 29794, Note_on_c, 0, 67, 0
2, 29794, Note_on_c, 0, 62, 0
2, 29880, Note_on_c, 0, 64, 49
2, 29880, Note_on_c, 0, 67, 49
2, 29880, Note_on_c, 0, 72, 58
2, 29925, Note_on_c, 0, 72, 0
2, 29925, Note_on_c, 0, 67, 0
2, 29925, Note_on_c, 0, 64, 0
2, 30000, Note_on_c, 0, 65, 55
2, 30000, Note_on_c, 0, 70, 55
2, 30000, Note_on_c, 0, 74, 65
2, 30240, Note_on_c, 0, 74, 0
2, 30240, Note_on_c, 0, 70, 0
2, 30240, Note_on_c, 0, 65, 0
2, 30240, Note_on_c, 0, 75, 62
2, 30240, Note_on_c, 0, 70, 57
2, 30360, Note_on_c, 0, 75, 0
2, 30360, Note_on_c, 0, 74, 60
2, 30480, Note_on_c, 0, 74, 0
2, 30480, Note_on_c, 0, 75, 63
2, 30840, Note_on_c, 0, 75, 0
2, 30840, Note_on_c, 0, 74, 60
2, 30960, Note_on_c, 0, 74, 0
2, 30960, Note_on_c, 0, 75, 63
2, 31320, Note_on_c, 0, 75, 0
2, 31320, Note_on_c, 0, 74, 61
2, 31440, Note_on_c, 0, 74, 0
2, 31440, Note_on_c, 0, 75, 64
2, 31680, Note_on_c, 0, 70, 0
2, 31800, Note_on_c, 0, 75, 0
2, 31800, Note_on_c, 0, 74, 60
2, 31920, Note_on_c, 0, 74, 0
2, 31920, Note_on_c, 0, 75, 60
2, 32040, Note_on_c, 0, 75, 0
2, 32040, Note_on_c, 0, 79, 62
2, 32160, Note_on_c, 0, 79, 0
2, 32160, Note_on_c, 0, 67, 48
2, 32160, Note_on_c, 0, 74, 62
2, 32280, Note_on_c, 0, 67, 0
2, 32280, Note_on_c, 0, 69, 52
2, 32400, Note_on_c, 0, 69, 0
2, 32400, Note_on_c, 0, 67, 51
2, 32520, Note_on_c, 0, 67, 0
2, 32520, Note_on_c, 0, 64, 46
2, 32640, Note_on_c, 0, 64, 0
2, 32640, Note_on_c, 0, 67, 48
2, 32760, Note_on_c, 0, 67, 0
2, 32760, Note_on_c, 0, 69, 45
2, 32880, Note_on_c, 0, 69, 0
2, 32880, Note_on_c, 0, 67, 44
2, 33000, Note_on_c, 0, 67, 0
2, 33000, Note_on_c, 0, 64, 38
2, 33100, Note_on_c, 0, 64, 0
2, 33100, Note_on_c, 0, 74, 0
2, 33120, Note_on_c, 0, 74, 55
2, 33120, Note_on_c, 0, 69, 50
2, 33240, Note_on_c, 0, 74, 0
2, 33240, Note_on_c, 0, 72, 54
2, 33360, Note_on_c, 0, 72, 0
2, 33360, Note_on_c, 0, 74, 56
2, 33720, Note_on_c, 0, 74, 0
2, 33720, Note_on_c, 0, 72, 54
2, 33840, Note_on_c, 0, 72, 0
2, 33840, Note_on_c, 0, 74, 56
2, 34200, Note_on_c, 0, 74, 0
2, 34200, Note_on_c, 0, 72, 54
2, 34320, Note_on_c, 0, 72, 0
2, 34320, Note_on_c, 0, 74, 57
2, 34560, Note_on_c, 0, 69, 0
2, 34560, Note_on_c, 0, 70, 51
2, 34680, Note_on_c, 0, 74, 0
2, 34680, Note_on_c, 0, 72, 55
2, 34800, Note_on_c, 0, 72, 0
2, 34800, Note_on_c, 0, 74, 55
2, 34920, Note_on_c, 0, 74, 0
2, 34920, Note_on_c, 0, 77, 57
2, 35040, Note_on_c, 0, 77, 0
2, 35040, Note_on_c, 0, 70, 0
2, 35040, Note_on_c, 0, 65, 43
2, 35040, Note_on_c, 0, 70, 55
2, 35160, Note_on_c, 0, 65, 0
2, 35160, Note_on_c, 0, 63, 46
2, 35280, Note_on_c, 0, 63, 0
2, 35280, Note_on_c, 0, 62, 45
2, 35400, Note_on_c, 0, 62, 0
2, 35400, Note_on_c, 0, 63, 44
2, 35520, Note_on_c, 0, 63, 0
2, 35520, Note_on_c, 0, 65, 43
2, 35640, Note_on_c, 0, 65, 0
2, 35640, Note_on_c, 0, 63, 40
2, 35760, Note_on_c, 0, 63, 0
2, 35760, Note_on_c, 0, 62, 39
2, 35880, Note_on_c, 0, 62, 0
2, 35880, Note_on_c, 0, 63, 38
2, 36120, Note_on_c, 0, 63, 0
2, 36120, Note_on_c, 0, 62, 46
2, 36240, Note_on_c, 0, 62, 0
2, 36240, Note_on_c, 0, 60, 46
2, 36360, Note_on_c, 0, 60, 0
2, 36360, Note_on_c, 0, 63, 46
2, 36480, Note_on_c, 0, 70, 0
2, 36480, Note_on_c, 0, 69, 55
2, 36600, Note_on_c, 0, 63, 0
2, 36600, Note_on_c, 0, 62, 34
2, 36720, Note_on_c, 0, 62, 0
2, 36720, Note_on_c, 0, 60, 34
2, 36840, Note_on_c, 0, 60, 0
2, 36840, Note_on_c, 0, 63, 34
2, 36960, Note_on_c, 0, 63, 0
2, 36960, Note_on_c, 0, 60, 38
2, 36960, Note_on_c, 0, 67, 54
2, 36980, Note_on_c, 0, 69, 0
2, 37080, Note_on_c, 0, 60, 0
2, 37080, Note_on_c, 0, 58, 36
2, 37200, Note_on_c, 0, 58, 0
2, 37200, Note_on_c, 0, 57, 36
2, 37320, Note_on_c, 0, 57, 0
2, 37320, Note_on_c, 0, 60, 36
2, 37440, Note_on_c, 0, 65, 54
2, 37460, Note_on_c, 0, 67, 0
2, 37560, Note_on_c, 0, 60, 0
2, 37560, Note_on_c, 0, 58, 34
2, 37680, Note_on_c, 0, 58, 0
2, 37680, Note_on_c, 0, 57, 34
2, 37800, Note_on_c, 0, 57, 0
2, 37800, Note_on_c, 0, 60, 34
2, 37920, Note_on_c, 0, 60, 0
2, 37920, Note_on_c, 0, 58, 34
2, 38040, Note_on_c, 0, 58, 0
2, 38040, Note_on_c, 0, 62, 34
2, 38160, Note_on_c, 0, 62, 0
2, 38160, Note_on_c, 0, 65, 0
2, 38160, Note_on_c, 0, 65, 38
2, 38160, Note_on_c, 0, 67, 52
2, 38280, Note_on_c, 0, 65, 0
2, 38280, Note_on_c, 0, 62, 36
2, 38400, Note_on_c, 0, 62, 0
2, 38400, Note_on_c, 0, 67, 39
2, 38400, Note_on_c, 0, 70, 57
2, 38420, Note_on_c, 0, 67, 0
2, 38520, Note_on_c, 0, 67, 0
2, 38520, Note_on_c, 0, 65, 36
2, 38640, Note_on_c, 0, 65, 0
2, 38640, Note_on_c, 0, 70, 40
2, 38640, Note_on_c, 0, 74, 55
2, 38660, Note_on_c, 0, 70, 0
2, 38760, Note_on_c, 0, 70, 0
2, 38760, Note_on_c, 0, 67, 37
2, 38880, Note_on_c, 0, 67, 0
2, 38880, Note_on_c, 0, 74, 0
2, 38880, Note_on_c, 0, 63, 30
2, 38880, Note_on_c, 0, 70, 55
2, 39000, Note_on_c, 0, 63, 0
2, 39000, Note_on_c, 0, 62, 37
2, 39120, Note_on_c, 0, 62, 0
2, 39120, Note_on_c, 0, 60, 37
2, 39240, Note_on_c, 0, 60, 0
2, 39240, Note_on_c, 0, 63, 37
2, 39360, Note_on_c, 0, 69, 55
2, 39380, Note_on_c, 0, 70, 0
2, 39480, Note_on_c, 0, 63, 0
2, 39480, Note_on_c, 0, 62, 34
2, 39600, Note_on_c, 0, 62, 0
2, 39600, Note_on_c, 0, 60, 34
2, 39720, Note_on_c, 0, 60, 0
2, 39720, Note_on_c, 0, 63, 34
2, 39840, Note_on_c, 0, 63, 0
2, 39840, Note_on_c, 0, 60, 38
2, 39840, Note_on_c, 0, 67, 54
2, 39860, Note_on_c, 0, 69, 0
2, 39960, Note_on_c, 0, 60, 0
2, 39960, Note_on_c, 0, 58, 36
2, 40080, Note_on_c, 0, 58, 0
2, 40080, Note_on_c, 0, 57, 36
2, 40200, Note_on_c, 0, 57, 0
2, 40200, Note_on_c, 0, 60, 36
2, 40320, Note_on_c, 0, 65, 54
2, 40340, Note_on_c, 0, 67, 0
2, 40440, Note_on_c, 0, 60, 0
2, 40440, Note_on_c, 0, 58, 34
2, 40560, Note_on_c, 0, 58, 0
2, 40560, Note_on_c, 0, 57, 34
2, 40680, Note_on_c, 0, 57, 0
2, 40680, Note_on_c, 0, 60, 34
2, 40800, Note_on_c, 0, 60, 0
2, 40800, Note_on_c, 0, 58, 34
2, 40920, Note_on_c, 0, 58, 0
2, 40920, Note_on_c, 0, 62, 34
2, 41040, Note_on_c, 0, 62, 0
2, 41040, Note_on_c, 0, 65, 0
2, 41040, Note_on_c, 0, 65, 38
2, 41040, Note_on_c, 0, 67, 54
2, 41160, Note_on_c, 0, 65, 0
2, 41160, Note_on_c, 0, 62, 36
2, 41280, Note_on_c, 0, 62, 0
2, 41280, Note_on_c, 0, 67, 39
2, 41280, Note_on_c, 0, 70, 57
2, 41300, Note_on_c, 0, 67, 0
2, 41400, Note_on_c, 0, 67, 0
2, 41400, Note_on_c, 0, 65, 36
2, 41520, Note_on_c, 0, 65, 0
2, 41520, Note_on_c, 0, 74, 55
2, 41520, Note_on_c, 0, 70, 40
2, 41540, Note_on_c, 0, 70, 0
2, 41640, Note_on_c, 0, 70, 0
2, 41640, Note_on_c, 0, 67, 37
2, 41760, Note_on_c, 0, 67, 0
2, 41760, Note_on_c, 0, 70, 42
2, 41760, Note_on_c, 0, 76, 58
2, 41780, Note_on_c, 0, 74, 0
2, 41880, Note_on_c, 0, 70, 0
2, 41880, Note_on_c, 0, 67, 37
2, 42000, Note_on_c, 0, 67, 0
2, 42000, Note_on_c, 0, 72, 39
2, 42000, Note_on_c, 0, 77, 54
2, 42020, Note_on_c, 0, 76, 0
2, 42120, Note_on_c, 0, 72, 0
2, 42120, Note_on_c, 0, 69, 37
2, 42240, Note_on_c, 0, 69, 0
2, 42240, Note_on_c, 0, 77, 0
2, 42240, Note_on_c, 0, 70, 39
2, 42240, Note_on_c, 0, 74, 55
2, 42360, Note_on_c, 0, 70, 0
2, 42360, Note_on_c, 0, 67, 37
2, 42480, Note_on_c, 0, 67, 0
2, 42480, Note_on_c, 0, 70, 39
2, 42600, Note_on_c, 0, 70, 0
2, 42600, Note_on_c, 0, 67, 37
2, 42720, Note_on_c, 0, 67, 0
2, 42720, Note_on_c, 0, 74, 0
2, 42720, Note_on_c, 0, 70, 42
2, 42720, Note_on_c, 0, 72, 55
2, 42840, Note_on_c, 0, 70, 0
2, 42840, Note_on_c, 0, 67, 37
2, 42960, Note_on_c, 0, 67, 0
2, 42960, Note_on_c, 0, 70, 42
2, 42960, Note_on_c, 0, 74, 55
2, 42980, Note_on_c, 0, 72, 0
2, 43080, Note_on_c, 0, 70, 0
2, 43080, Note_on_c, 0, 67, 37
2, 43200, Note_on_c, 0, 67, 0
2, 43200, Note_on_c, 0, 79, 63
2, 43200, Note_on_c, 0, 74, 45
2, 43220, Note_on_c, 0, 74, 0
2, 43320, Note_on_c, 0, 74, 0
2, 43320, Note_on_c, 0, 70, 40
2, 43440, Note_on_c, 0, 70, 0
2, 43440, Note_on_c, 0, 79, 0
2, 43440, Note_on_c, 0, 76, 44
2, 43440, Note_on_c, 0, 81, 57
2, 43560, Note_on_c, 0, 76, 0
2, 43560, Note_on_c, 0, 72, 40
2, 43680, Note_on_c, 0, 72, 0
2, 43680, Note_on_c, 0, 81, 0
2, 43680, Note_on_c, 0, 76, 46
2, 43680, Note_on_c, 0, 81, 63
2, 43800, Note_on_c, 0, 76, 0
2, 43800, Note_on_c, 0, 72, 40
2, 43920, Note_on_c, 0, 72, 0
2, 43920, Note_on_c, 0, 81, 0
2, 43920, Note_on_c, 0, 72, 44
2, 43920, Note_on_c, 0, 76, 57
2, 44040, Note_on_c, 0, 72, 0
2, 44040, Note_on_c, 0, 69, 38
2, 44160, Note_on_c, 0, 69, 0
2, 44160, Note_on_c, 0, 76, 0
2, 44160, Note_on_c, 0, 72, 44
2, 44160, Note_on_c, 0, 76, 57
2, 44280, Note_on_c, 0, 72, 0
2, 44280, Note_on_c, 0, 69, 36
2, 44400, Note_on_c, 0, 69, 0
2, 44400, Note_on_c, 0, 72, 44
2, 44520, Note_on_c, 0, 72, 0
2, 44520, Note_on_c, 0, 69, 36
2, 44640, Note_on_c, 0, 69, 0
2, 44640, Note_on_c, 0, 76, 0
2, 44640, Note_on_c, 0, 70, 44
2, 44640, Note_on_c, 0, 76, 61
2, 44760, Note_on_c, 0, 70, 0
2, 44760, Note_on_c, 0, 67, 38
2, 44880, Note_on_c, 0, 67, 0
2, 44880, Note_on_c, 0, 72, 40
2, 44880, Note_on_c, 0, 77, 56
2, 44900, Note_on_c, 0, 76, 0
2, 45000, Note_on_c, 0, 72, 0
2, 45000, Note_on_c, 0, 69, 38
2, 45120, Note_on_c, 0, 69, 0
2, 45120, Note_on_c, 0, 77, 0
2, 45120, Note_on_c, 0, 70, 40
2, 45120, Note_on_c, 0, 74, 57
2, 45240, Note_on_c, 0, 70, 0
2, 45240, Note_on_c, 0, 67, 38
2, 45360, Note_on_c, 0, 67, 0
2, 45360, Note_on_c, 0, 70, 40
2, 45480, Note_on_c, 0, 70, 0
2, 45480, Note_on_c, 0, 67, 38
2, 45600, Note_on_c, 0, 67, 0
2, 45600, Note_on_c, 0, 74, 0
2, 45600, Note_on_c, 0, 70, 44
2, 45600, Note_on_c, 0, 72, 57
2, 45720, Note_on_c, 0, 70, 0
2, 45720, Note_on_c, 0, 67, 38
2, 45840, Note_on_c, 0, 67, 0
2, 45840, Note_on_c, 0, 70, 44
2, 45840, Note_on_c, 0, 74, 57
2, 45860, Note_on_c, 0, 72, 0
2, 45960, Note_on_c, 0, 70, 0
2, 45960, Note_on_c, 0, 67, 38
2, 46080, Note_on_c, 0, 67, 0
2, 46080, Note_on_c, 0, 74, 48
2, 46080, Note_on_c, 0, 79, 67
2, 46100, Note_on_c, 0, 74, 0
2, 46200, Note_on_c, 0, 74, 0
2, 46200, Note_on_c, 0, 70, 43
2, 46320, Note_on_c, 0, 70, 0
2, 46320, Note_on_c, 0, 79, 0
2, 46320, Note_on_c, 0, 76, 46
2, 46320, Note_on_c, 0, 81, 60
2, 46440, Note_on_c, 0, 76, 0
2, 46440, Note_on_c, 0, 72, 43
2, 46560, Note_on_c, 0, 72, 0
2, 46560, Note_on_c, 0, 81, 0
2, 46560, Note_on_c, 0, 76, 49
2, 46560, Note_on_c, 0, 81, 67
2, 46680, Note_on_c, 0, 76, 0
2, 46680, Note_on_c, 0, 72, 43
2, 46800, Note_on_c, 0, 72, 0
2, 46800, Note_on_c, 0, 81, 0
2, 46800, Note_on_c, 0, 72, 46
2, 46800, Note_on_c, 0, 76, 60
2, 46920, Note_on_c, 0, 72, 0
2, 46920, Note_on_c, 0, 69, 39
2, 47040, Note_on_c, 0, 69, 0
2, 47040, Note_on_c, 0, 76, 0
2, 47040, Note_on_c, 0, 72, 46
2, 47040, Note_on_c, 0, 76, 60
2, 47160, Note_on_c, 0, 72, 0
2, 47160, Note_on_c, 0, 69, 37
2, 47280, Note_on_c, 0, 69, 0
2, 47280, Note_on_c, 0, 76, 0
2, 47280, Note_on_c, 0, 82, 70
2, 47280, Note_on_c, 0, 77, 52
2, 47400, Note_on_c, 0, 77, 0
2, 47400, Note_on_c, 0, 74, 44
2, 47520, Note_on_c, 0, 74, 0
2, 47520, Note_on_c, 0, 82, 0
2, 47520, Note_on_c, 0, 77, 58
2, 47520, Note_on_c, 0, 82, 76
2, 47640, Note_on_c, 0, 77, 0
2, 47640, Note_on_c, 0, 74, 40
2, 47760, Note_on_c, 0, 74, 0
2, 47760, Note_on_c, 0, 82, 0
2, 47760, Note_on_c, 0, 79, 58
2, 47760, Note_on_c, 0, 84, 70
2, 47880, Note_on_c, 0, 79, 0
2, 47880, Note_on_c, 0, 76, 40
2, 48000, Note_on_c, 0, 76, 0
2, 48000, Note_on_c, 0, 84, 0
2, 48000, Note_on_c, 0, 79, 58
2, 48000, Note_on_c, 0, 84, 78
2, 48120, Note_on_c, 0, 79, 0
2, 48120, Note_on_c, 0, 76, 40
2, 48240, Note_on_c, 0, 76, 0
2, 48240, Note_on_c, 0, 84, 0
2, 48240, Note_on_c, 0, 76, 58
2, 48240, Note_on_c, 0, 81, 70
2, 48360, Note_on_c, 0, 76, 0
2, 48360, Note_on_c, 0, 72, 40
2, 48480, Note_on_c, 0, 72, 0
2, 48480, Note_on_c, 0, 81, 0
2, 48480, Note_on_c, 0, 76, 58
2, 48480, Note_on_c, 0, 81, 76
2, 48600, Note_on_c, 0, 76, 0
2, 48600, Note_on_c, 0, 72, 40
2, 48720, Note_on_c, 0, 72, 0
2, 48720, Note_on_c, 0, 81, 0
2, 48720, Note_on_c, 0, 81, 58
2, 48720, Note_on_c, 0, 84, 79
2, 48840, Note_on_c, 0, 81, 0
2, 48840, Note_on_c, 0, 76, 40
2, 48960, Note_on_c, 0, 76, 0
2, 48960, Note_on_c, 0, 84, 0
2, 48960, Note_on_c, 0, 82, 78
2, 48960, Note_on_c, 0, 86, 78
2, 49080, Note_on_c, 0, 82, 0
2, 49080, Note_on_c, 0, 76, 44
2, 49200, Note_on_c, 0, 76, 0
2, 49200, Note_on_c, 0, 86, 0
2, 49200, Note_on_c, 0, 82, 76
2, 49200, Note_on_c, 0, 86, 76
2, 49320, Note_on_c, 0, 82, 0
2, 49320, Note_on_c, 0, 77, 44
2, 49440, Note_on_c, 0, 77, 0
2, 49440, Note_on_c, 0, 86, 0
2, 49440, Note_on_c, 0, 82, 66
2, 49440, Note_on_c, 0, 86, 66
2, 49560, Note_on_c, 0, 86, 0
2, 49560, Note_on_c, 0, 82, 0
2, 49560, Note_on_c, 0, 74, 51
2, 49680, Note_on_c, 0, 74, 0
2, 49680, Note_on_c, 0, 82, 65
2, 49680, Note_on_c, 0, 86, 65
2, 49800, Note_on_c, 0, 86, 0
2, 49800, Note_on_c, 0, 82, 0
2, 49800, Note_on_c, 0, 74, 51
2, 49920, Note_on_c, 0, 74, 0
2, 49920, Note_on_c, 0, 82, 63
2, 49920, Note_on_c, 0, 86, 63
2, 50040, Note_on_c, 0, 86, 0
2, 50040, Note_on_c, 0, 82, 0
2, 50040, Note_on_c, 0, 72, 50
2, 50160, Note_on_c, 0, 72, 0
2, 50160, Note_on_c, 0, 82, 60
2, 50160, Note_on_c, 0, 86, 60
2, 50280, Note_on_c, 0, 86, 0
2, 50280, Note_on_c, 0, 82, 0
2, 50280, Note_on_c, 0, 74, 52
2, 50400, Note_on_c, 0, 74, 0
2, 50400, Note_on_c, 0, 82, 60
2, 50400, Note_on_c, 0, 86, 60
2, 50520, Note_on_c, 0, 86, 0
2, 50520, Note_on_c, 0, 82, 0
2, 50520, Note_on_c, 0, 79, 53
2, 50640, Note_on_c, 0, 79, 0
2, 50640, Note_on_c, 0, 82, 60
2, 50640, Note_on_c, 0, 86, 60
2, 50760, Note_on_c, 0, 86, 0
2, 50760, Note_on_c, 0, 82, 0
2, 50760, Note_on_c, 0, 81, 52
2, 50880, Note_on_c, 0, 81, 0
2, 50880, Note_on_c, 0, 82, 59
2, 50880, Note_on_c, 0, 86, 59
2, 51000, Note_on_c, 0, 86, 0
2, 51000, Note_on_c, 0, 82, 0
2, 51000, Note_on_c, 0, 81, 45
2, 51120, Note_on_c, 0, 81, 0
2, 51120, Note_on_c, 0, 82, 57
2, 51120, Note_on_c, 0, 86, 57
2, 51240, Note_on_c, 0, 86, 0
2, 51240, Note_on_c, 0, 82, 0
2, 51240, Note_on_c, 0, 76, 43
2, 51360, Note_on_c, 0, 76, 0
2, 51360, Note_on_c, 0, 82, 49
2, 51360, Note_on_c, 0, 86, 49
2, 51480, Note_on_c, 0, 86, 0
2, 51480, Note_on_c, 0, 82, 0
2, 51480, Note_on_c, 0, 76, 39
2, 51600, Note_on_c, 0, 76, 0
2, 51600, Note_on_c, 0, 82, 47
2, 51600, Note_on_c, 0, 86, 47
2, 51720, Note_on_c, 0, 86, 0
2, 51720, Note_on_c, 0, 82, 0
2, 51720, Note_on_c, 0, 76, 38
2, 51840, Note_on_c, 0, 76, 0
2, 51840, Note_on_c, 0, 82, 50
2, 51840, Note_on_c, 0, 86, 69
2, 51960, Note_on_c, 0, 82, 0
2, 51960, Note_on_c, 0, 76, 34
2, 52080, Note_on_c, 0, 76, 0
2, 52080, Note_on_c, 0, 86, 0
2, 52080, Note_on_c, 0, 82, 49
2, 52080, Note_on_c, 0, 86, 67
2, 52200, Note_on_c, 0, 82, 0
2, 52200, Note_on_c, 0, 77, 34
2, 52320, Note_on_c, 0, 77, 0
2, 52320, Note_on_c, 0, 86, 0
2, 52320, Note_on_c, 0, 82, 58
2, 52320, Note_on_c, 0, 86, 58
2, 52440, Note_on_c, 0, 86, 0
2, 52440, Note_on_c, 0, 82, 0
2, 52440, Note_on_c, 0, 74, 37
2, 52560, Note_on_c, 0, 74, 0
2, 52560, Note_on_c, 0, 82, 57
2, 52560, Note_on_c, 0, 86, 57
2, 52680, Note_on_c, 0, 86, 0
2, 52680, Note_on_c, 0, 82, 0
2, 52680, Note_on_c, 0, 74, 37
2, 52800, Note_on_c, 0, 74, 0
2, 52800, Note_on_c, 0, 82, 51
2, 52800, Note_on_c, 0, 86, 51
2, 52920, Note_on_c, 0, 86, 0
2, 52920, Note_on_c, 0, 82, 0
2, 52920, Note_on_c, 0, 72, 35
2, 53040, Note_on_c, 0, 72, 0
2, 53040, Note_on_c, 0, 82, 48
2, 53040, Note_on_c, 0, 86, 48
2, 53160, Note_on_c, 0, 86, 0
2, 53160, Note_on_c, 0, 82, 0
2, 53160, Note_on_c, 0, 74, 33
2, 53260, Note_on_c, 0, 74, 0
2, 53280, Note_on_c, 0, 83, 44
2, 53280, Note_on_c, 0, 88, 44
2, 53400, Note_on_c, 0, 88, 0
2, 53400, Note_on_c, 0, 83, 0
2, 53400, Note_on_c, 0, 76, 38
2, 53520, Note_on_c, 0, 76, 0
2, 53520, Note_on_c, 0, 71, 38
2, 53520, Note_on_c, 0, 76, 38
2, 53640, Note_on_c, 0, 76, 0
2, 53640, Note_on_c, 0, 71, 0
2, 53640, Note_on_c, 0, 64, 38
2, 53760, Note_on_c, 0, 64, 0
2, 53760, Note_on_c, 0, 76, 45
2, 53760, Note_on_c, 0, 69, 45
2, 53880, Note_on_c, 0, 69, 0
2, 53880, Note_on_c, 0, 76, 0
2, 53880, Note_on_c, 0, 64, 42
2, 54000, Note_on_c, 0, 64, 0
2, 54000, Note_on_c, 0, 57, 45
2, 54000, Note_on_c, 0, 64, 45
2, 54120, Note_on_c, 0, 64, 0
2, 54120, Note_on_c, 0, 57, 0
2, 54120, Note_on_c, 0, 52, 42
2, 54240, Note_on_c, 0, 52, 0
2, 54240, Note_on_c, 0, 59, 47
2, 54240, Note_on_c, 0, 64, 47
2, 54360, Note_on_c, 0, 64, 0
2, 54360, Note_on_c, 0, 59, 0
2, 54360, Note_on_c, 0, 52, 45
2, 54480, Note_on_c, 0, 52, 0
2, 54480, Note_on_c, 0, 59, 48
2, 54480, Note_on_c, 0, 64, 48
2, 54600, Note_on_c, 0, 64, 0
2, 54600, Note_on_c, 0, 59, 0
2, 54600, Note_on_c, 0, 52, 46
2, 54720, Note_on_c, 0, 52, 0
2, 54720, Note_on_c, 0, 60, 50
2, 54720, Note_on_c, 0, 64, 50
2, 54840, Note_on_c, 0, 64, 0
2, 54840, Note_on_c, 0, 60, 0
2, 54840, Note_on_c, 0, 52, 47
2, 54960, Note_on_c, 0, 52, 0
2, 54960, Note_on_c, 0, 60, 50
2, 54960, Note_on_c, 0, 64, 50
2, 55080, Note_on_c, 0, 64, 0
2, 55080, Note_on_c, 0, 60, 0
2, 55080, Note_on_c, 0, 52, 48
2, 55200, Note_on_c, 0, 52, 0
2, 55200, Note_on_c, 0, 64, 49
2, 55200, Note_on_c, 0, 62, 49
2, 55320, Note_on_c, 0, 62, 0
2, 55320, Note_on_c, 0, 64, 0
2, 55320, Note_on_c, 0, 52, 47
2, 55440, Note_on_c, 0, 52, 0
2, 55440, Note_on_c, 0, 60, 49
2, 55440, Note_on_c, 0, 64, 49
2, 55560, Note_on_c, 0, 64, 0
2, 55560, Note_on_c, 0, 60, 0
2, 55560, Note_on_c, 0, 52, 47
2, 55680, Note_on_c, 0, 52, 0
2, 55680, Note_on_c, 0, 59, 41
2, 55680, Note_on_c, 0, 62, 41
2, 55680, Note_on_c, 0, 65, 41
2, 55920, Note_on_c, 0, 65, 0
2, 55920, Note_on_c, 0, 69, 39
2, 56160, Note_on_c, 0, 69, 0
2, 56160, Note_on_c, 0, 62, 0
2, 56160, Note_on_c, 0, 59, 0
2, 56160, Note_on_c, 0, 83, 44
2, 56160, Note_on_c, 0, 88, 44
2, 56280, Note_on_c, 0, 88, 0
2, 56280, Note_on_c, 0, 83, 0
2, 56280, Note_on_c, 0, 76, 38
2, 56400, Note_on_c, 0, 76, 0
2, 56400, Note_on_c, 0, 71, 38
2, 56400, Note_on_c, 0, 76, 38
2, 56520, Note_on_c, 0, 76, 0
2, 56520, Note_on_c, 0, 71, 0
2, 56520, Note_on_c, 0, 64, 38
2, 56640, Note_on_c, 0, 64, 0
2, 56640, Note_on_c, 0, 69, 45
2, 56640, Note_on_c, 0, 76, 45
2, 56760, Note_on_c, 0, 76, 0
2, 56760, Note_on_c, 0, 69, 0
2, 56760, Note_on_c, 0, 64, 42
2, 56880, Note_on_c, 0, 64, 0
2, 56880, Note_on_c, 0, 64, 45
2, 56880, Note_on_c, 0, 57, 45
2, 57000, Note_on_c, 0, 57, 0
2, 57000, Note_on_c, 0, 64, 0
2, 57000, Note_on_c, 0, 52, 42
2, 57120, Note_on_c, 0, 52, 0
2, 57120, Note_on_c, 0, 59, 46
2, 57120, Note_on_c, 0, 64, 46
2, 57240, Note_on_c, 0, 64, 0
2, 57240, Note_on_c, 0, 59, 0
2, 57240, Note_on_c, 0, 52, 43
2, 57360, Note_on_c, 0, 52, 0
2, 57360, Note_on_c, 0, 59, 46
2, 57360, Note_on_c, 0, 64, 46
2, 57480, Note_on_c, 0, 64, 0
2, 57480, Note_on_c, 0, 59, 0
2, 57480, Note_on_c, 0, 52, 43
2, 57600, Note_on_c, 0, 52, 0
2, 57600, Note_on_c, 0, 60, 45
2, 57600, Note_on_c, 0, 64, 45
2, 57720, Note_on_c, 0, 64, 0
2, 57720, Note_on_c, 0, 60, 0
2, 57720, Note_on_c, 0, 52, 41
2, 57840, Note_on_c, 0, 52, 0
2, 57840, Note_on_c, 0, 60, 44
2, 57840, Note_on_c, 0, 64, 44
2, 57960, Note_on_c, 0, 64, 0
2, 57960, Note_on_c, 0, 60, 0
2, 57960, Note_on_c, 0, 52, 41
2, 58080, Note_on_c, 0, 52, 0
2, 58080, Note_on_c, 0, 62, 41
2, 58080, Note_on_c, 0, 64, 41
2, 58200, Note_on_c, 0, 64, 0
2, 58200, Note_on_c, 0, 62, 0
2, 58200, Note_on_c, 0, 52, 39
2, 58320, Note_on_c, 0, 52, 0
2, 58320, Note_on_c, 0, 64, 40
2, 58320, Note_on_c, 0, 62, 40
2, 58440, Note_on_c, 0, 62, 0
2, 58440, Note_on_c, 0, 64, 0
2, 58440, Note_on_c, 0, 52, 38
2, 58560, Note_on_c, 0, 52, 0
2, 58560, Note_on_c, 0, 64, 39
2, 58680, Note_on_c, 0, 64, 0
2, 58680, Note_on_c, 0, 52, 34
2, 58800, Note_on_c, 0, 52, 0
2, 58800, Note_on_c, 0, 64, 36
2, 58920, Note_on_c, 0, 64, 0
2, 58920, Note_on_c, 0, 52, 32
2, 59040, Note_on_c, 0, 52, 0
2, 59040, Note_on_c, 0, 69, 44
2, 59040, Control_c, 0, 91, 127
2, 59044, Note_on_c, 0, 60, 37
2, 59044, Note_on_c, 0, 64, 37
2, 59070, Note_on_c, 0, 69, 0
2, 59074, Note_on_c, 0, 64, 0
2, 59074, Note_on_c, 0, 60, 0
2, 59160, Note_on_c, 0, 71, 42
2, 59190, Note_on_c, 0, 71, 0
2, 59280, Note_on_c, 0, 72, 44
2, 59310, Note_on_c, 0, 72, 0
2, 59400, Note_on_c, 0, 74, 43
2, 59430, Note_on_c, 0, 74, 0
2, 59520, Note_on_c, 0, 71, 44
2, 59620, Note_on_c, 0, 71, 0
2, 59640, Note_on_c, 0, 71, 39
2, 59700, Note_on_c, 0, 71, 0
2, 59700, Note_on_c, 0, 72, 39
2, 59760, Note_on_c, 0, 72, 0
2, 59760, Note_on_c, 0, 71, 44
2, 59880, Note_on_c, 0, 71, 0
2, 59880, Note_on_c, 0, 69, 44
2, 59970, Note_on_c, 0, 69, 0
2, 60000, Note_on_c, 0, 60, 34
2, 60000, Note_on_c, 0, 64, 34
2, 60000, Note_on_c, 0, 71, 48
2, 60045, Note_on_c, 0, 71, 0
2, 60090, Note_on_c, 0, 64, 0
2, 60090, Note_on_c, 0, 60, 0
2, 60240, Note_on_c, 0, 72, 43
2, 60330, Note_on_c, 0, 72, 0
2, 60480, Note_on_c, 0, 71, 45
2, 60480, Note_on_c, 0, 64, 37
2, 60480, Note_on_c, 0, 60, 37
2, 60600, Note_on_c, 0, 71, 0
2, 60600, Note_on_c, 0, 72, 43
2, 60720, Note_on_c, 0, 72, 0
2, 60720, Note_on_c, 0, 60, 0
2, 60720, Note_on_c, 0, 64, 0
2, 60720, Note_on_c, 0, 74, 45
2, 60780, Note_on_c, 0, 74, 0
2, 60840, Note_on_c, 0, 76, 43
2, 60900, Note_on_c, 0, 76, 0
2, 60960, Note_on_c, 0, 78, 45
2, 61020, Note_on_c, 0, 78, 0
2, 61080, Note_on_c, 0, 78, 43
2, 61120, Note_on_c, 0, 78, 0
2, 61120, Note_on_c, 0, 79, 41
2, 61160, Note_on_c, 0, 79, 0
2, 61160, Note_on_c, 0, 78, 41
2, 61200, Note_on_c, 0, 78, 0
2, 61200, Note_on_c, 0, 76, 45
2, 61320, Note_on_c, 0, 76, 0
2, 61320, Note_on_c, 0, 74, 43
2, 61440, Note_on_c, 0, 74, 0
2, 61440, Note_on_c, 0, 72, 45
2, 61560, Note_on_c, 0, 72, 0
2, 61560, Note_on_c, 0, 74, 41
2, 61680, Note_on_c, 0, 74, 0
2, 61680, Note_on_c, 0, 76, 41
2, 61920, Note_on_c, 0, 76, 0
2, 61920, Note_on_c, 0, 74, 37
2, 61920, Note_on_c, 0, 81, 44
2, 61920, Control_c, 0, 91, 127
2, 61950, Note_on_c, 0, 81, 0
2, 62040, Note_on_c, 0, 83, 42
2, 62070, Note_on_c, 0, 83, 0
2, 62160, Note_on_c, 0, 84, 44
2, 62190, Note_on_c, 0, 84, 0
2, 62280, Note_on_c, 0, 86, 43
2, 62310, Note_on_c, 0, 86, 0
2, 62400, Note_on_c, 0, 83, 44
2, 62500, Note_on_c, 0, 83, 0
2, 62520, Note_on_c, 0, 83, 39
2, 62580, Note_on_c, 0, 83, 0
2, 62580, Note_on_c, 0, 84, 39
2, 62640, Note_on_c, 0, 84, 0
2, 62640, Note_on_c, 0, 83, 44
2, 62760, Note_on_c, 0, 83, 0
2, 62760, Note_on_c, 0, 81, 44
2, 62850, Note_on_c, 0, 81, 0
2, 62880, Note_on_c, 0, 83, 48
2, 62925, Note_on_c, 0, 83, 0
2, 63120, Note_on_c, 0, 84, 43
2, 63210, Note_on_c, 0, 84, 0
2, 63360, Note_on_c, 0, 74, 0
2, 63360, Note_on_c, 0, 74, 37
2, 63360, Note_on_c, 0, 83, 45
2, 63480, Note_on_c, 0, 83, 0
2, 63480, Note_on_c, 0, 84, 43
2, 63600, Note_on_c, 0, 84, 0
2, 63600, Note_on_c, 0, 86, 45
2, 63660, Note_on_c, 0, 86, 0
2, 63720, Note_on_c, 0, 88, 43
2, 63780, Note_on_c, 0, 88, 0
2, 63840, Note_on_c, 0, 90, 45
2, 63900, Note_on_c, 0, 90, 0
2, 63960, Note_on_c, 0, 90, 43
2, 64000, Note_on_c, 0, 90, 0
2, 64000, Note_on_c, 0, 91, 41
2, 64040, Note_on_c, 0, 91, 0
2, 64040, Note_on_c, 0, 90, 41
2, 64080, Note_on_c, 0, 90, 0
2, 64080, Note_on_c, 0, 88, 45
2, 64200, Note_on_c, 0, 88, 0
2, 64200, Note_on_c, 0, 86, 43
2, 64320, Note_on_c, 0, 86, 0
2, 64320, Note_on_c, 0, 84, 45
2, 64440, Note_on_c, 0, 84, 0
2, 64440, Note_on_c, 0, 86, 41
2, 64560, Note_on_c, 0, 86, 0
2, 64560, Note_on_c, 0, 88, 41
2, 64800, Note_on_c, 0, 74, 0
2, 64800, Note_on_c, 0, 74, 30
2, 64800, Note_on_c, 0, 79, 30
2, 64800, Note_on_c, 0, 83, 30
2, 64920, Note_on_c, 0, 88, 0
2, 64920, Note_on_c, 0, 86, 42
2, 64980, Note_on_c, 0, 86, 0
2, 65040, Note_on_c, 0, 83, 41
2, 65100, Note_on_c, 0, 83, 0
2, 65160, Note_on_c, 0, 81, 41
2, 65220, Note_on_c, 0, 81, 0
2, 65280, Note_on_c, 0, 83, 0
2, 65280, Note_on_c, 0, 79, 0
2, 65280, Note_on_c, 0, 74, 0
2, 65280, Note_on_c, 0, 83, 44
2, 65340, Note_on_c, 0, 83, 0
2, 65400, Note_on_c, 0, 79, 41
2, 65460, Note_on_c, 0, 79, 0
2, 65520, Note_on_c, 0, 76, 41
2, 65580, Note_on_c, 0, 76, 0
2, 65640, Note_on_c, 0, 74, 41
2, 65700, Note_on_c, 0, 74, 0
2, 65760, Note_on_c, 0, 72, 46
2, 65760, Note_on_c, 0, 67, 31
2, 65760, Note_on_c, 0, 76, 31
2, 66000, Note_on_c, 0, 72, 0
2, 66000, Note_on_c, 0, 69, 38
2, 66240, Note_on_c, 0, 69, 0
2, 66240, Note_on_c, 0, 67, 0
2, 66240, Note_on_c, 0, 71, 30
2, 66240, Note_on_c, 0, 67, 30
2, 66240, Note_on_c, 0, 62, 30
2, 66360, Note_on_c, 0, 76, 0
2, 66360, Note_on_c, 0, 74, 42
2, 66420, Note_on_c, 0, 74, 0
2, 66480, Note_on_c, 0, 71, 41
2, 66540, Note_on_c, 0, 71, 0
2, 66600, Note_on_c, 0, 69, 41
2, 66660, Note_on_c, 0, 69, 0
2, 66720, Note_on_c, 0, 62, 0
2, 66720, Note_on_c, 0, 67, 0
2, 66720, Note_on_c, 0, 71, 0
2, 66720, Note_on_c, 0, 71, 44
2, 66780, Note_on_c, 0, 71, 0
2, 66840, Note_on_c, 0, 67, 41
2, 66900, Note_on_c, 0, 67, 0
2, 66960, Note_on_c, 0, 64, 41
2, 67020, Note_on_c, 0, 64, 0
2, 67080, Note_on_c, 0, 62, 41
2, 67140, Note_on_c, 0, 62, 0
2, 67200, Note_on_c, 0, 64, 30
2, 67200, Note_on_c, 0, 60, 44
2, 67440, Note_on_c, 0, 60, 0
2, 67440, Note_on_c, 0, 57, 38
2, 67680, Note_on_c, 0, 57, 0
2, 67680, Note_on_c, 0, 55, 35
2, 67680, Control_c, 0, 91, 127
2, 67800, Note_on_c, 0, 64, 0
2, 67800, Note_on_c, 0, 66, 40
2, 67920, Note_on_c, 0, 66, 0
2, 67920, Note_on_c, 0, 67, 40
2, 67980, Note_on_c, 0, 67, 0
2, 68040, Note_on_c, 0, 69, 40
2, 68100, Note_on_c, 0, 69, 0
2, 68160, Note_on_c, 0, 64, 43
2, 68260, Note_on_c, 0, 64, 0
2, 68280, Note_on_c, 0, 64, 39
2, 68340, Note_on_c, 0, 64, 0
2, 68340, Note_on_c, 0, 66, 39
2, 68400, Note_on_c, 0, 66, 0
2, 68400, Note_on_c, 0, 64, 43
2, 68520, Note_on_c, 0, 64, 0
2, 68520, Note_on_c, 0, 62, 39
2, 68610, Note_on_c, 0, 62, 0
2, 68640, Note_on_c, 0, 64, 44
2, 68715, Note_on_c, 0, 64, 0
2, 68880, Note_on_c, 0, 67, 44
2, 68955, Note_on_c, 0, 67, 0
2, 69120, Note_on_c, 0, 55, 0
2, 69120, Note_on_c, 0, 71, 44
2, 69120, Note_on_c, 0, 62, 44
2, 69120, Note_on_c, 0, 67, 44
2, 69195, Note_on_c, 0, 67, 0
2, 69195, Note_on_c, 0, 62, 0
2, 69195, Note_on_c, 0, 71, 0
2, 69360, Note_on_c, 0, 60, 41
2, 69360, Note_on_c, 0, 64, 41
2, 69360, Note_on_c, 0, 69, 41
2, 69435, Note_on_c, 0, 69, 0
2, 69435, Note_on_c, 0, 64, 0
2, 69435, Note_on_c, 0, 60, 0
2, 70560, Note_on_c, 0, 69, 77
2, 70560, Note_on_c, 0, 81, 77
2, 70680, Note_on_c, 0, 81, 0
2, 70680, Note_on_c, 0, 79, 70
2, 70740, Note_on_c, 0, 79, 0
2, 70740, Note_on_c, 0, 77, 70
2, 70800, Note_on_c, 0, 77, 0
2, 70800, Note_on_c, 0, 76, 70
2, 70860, Note_on_c, 0, 76, 0
2, 70860, Note_on_c, 0, 74, 70
2, 70920, Note_on_c, 0, 74, 0
2, 70920, Note_on_c, 0, 72, 70
2, 70980, Note_on_c, 0, 72, 0
2, 70980, Note_on_c, 0, 71, 70
2, 71040, Note_on_c, 0, 71, 0
2, 71040, Note_on_c, 0, 69, 0
2, 71040, Note_on_c, 0, 69, 77
2, 71640, Note_on_c, 0, 72, 65
2, 71650, Note_on_c, 0, 69, 0
2, 71740, Note_on_c, 0, 72, 0
2, 71760, Note_on_c, 0, 71, 68
2, 71880, Note_on_c, 0, 74, 65
2, 71890, Note_on_c, 0, 71, 0
2, 71980, Note_on_c, 0, 74, 0
2, 72000, Note_on_c, 0, 65, 58
2, 72000, Note_on_c, 0, 72, 68
2, 72120, Note_on_c, 0, 76, 65
2, 72130, Note_on_c, 0, 72, 0
2, 72220, Note_on_c, 0, 76, 0
2, 72240, Note_on_c, 0, 74, 67
2, 72360, Note_on_c, 0, 77, 68
2, 72370, Note_on_c, 0, 74, 0
2, 72460, Note_on_c, 0, 77, 0
2, 72480, Note_on_c, 0, 76, 71
2, 72600, Note_on_c, 0, 72, 61
2, 72610, Note_on_c, 0, 76, 0
2, 72720, Note_on_c, 0, 71, 59
2, 72730, Note_on_c, 0, 72, 0
2, 72840, Note_on_c, 0, 67, 55
2, 72850, Note_on_c, 0, 71, 0
2, 72960, Note_on_c, 0, 67, 0
2, 72960, Note_on_c, 0, 65, 0
2, 72960, Note_on_c, 0, 65, 55
2, 72960, Note_on_c, 0, 62, 55
2, 73200, Note_on_c, 0, 62, 0
2, 73200, Note_on_c, 0, 65, 0
2, 73200, Note_on_c, 0, 64, 55
2, 73200, Note_on_c, 0, 67, 55
2, 73410, Note_on_c, 0, 67, 0
2, 73410, Note_on_c, 0, 64, 0
2, 73440, Note_on_c, 0, 69, 77
2, 73440, Note_on_c, 0, 81, 77
2, 73560, Note_on_c, 0, 81, 0
2, 73560, Note_on_c, 0, 79, 70
2, 73620, Note_on_c, 0, 79, 0
2, 73620, Note_on_c, 0, 77, 70
2, 73680, Note_on_c, 0, 77, 0
2, 73680, Note_on_c, 0, 76, 70
2, 73740, Note_on_c, 0, 76, 0
2, 73740, Note_on_c, 0, 74, 70
2, 73800, Note_on_c, 0, 74, 0
2, 73800, Note_on_c, 0, 72, 70
2, 73860, Note_on_c, 0, 72, 0
2, 73860, Note_on_c, 0, 71, 70
2, 73920, Note_on_c, 0, 71, 0
2, 73920, Note_on_c, 0, 69, 0
2, 73920, Note_on_c, 0, 69, 77
2, 74520, Note_on_c, 0, 72, 65
2, 74530, Note_on_c, 0, 69, 0
2, 74620, Note_on_c, 0, 72, 0
2, 74640, Note_on_c, 0, 71, 68
2, 74760, Note_on_c, 0, 74, 65
2, 74770, Note_on_c, 0, 71, 0
2, 74860, Note_on_c, 0, 74, 0
2, 74880, Note_on_c, 0, 65, 58
2, 74880, Note_on_c, 0, 72, 68
2, 75000, Note_on_c, 0, 76, 65
2, 75010, Note_on_c, 0, 72, 0
2, 75100, Note_on_c, 0, 76, 0
2, 75120, Note_on_c, 0, 74, 67
2, 75240, Note_on_c, 0, 77, 68
2, 75250, Note_on_c, 0, 74, 0
2, 75340, Note_on_c, 0, 77, 0
2, 75360, Note_on_c, 0, 76, 71
2, 75480, Note_on_c, 0, 72, 59
2, 75490, Note_on_c, 0, 76, 0
2, 75600, Note_on_c, 0, 71, 59
2, 75610, Note_on_c, 0, 72, 0
2, 75720, Note_on_c, 0, 67, 57
2, 75730, Note_on_c, 0, 71, 0
2, 75840, Note_on_c, 0, 67, 0
2, 75840, Note_on_c, 0, 65, 0
2, 75840, Note_on_c, 0, 65, 55
2, 75840, Note_on_c, 0, 62, 55
2, 76080, Note_on_c, 0, 62, 0
2, 76080, Note_on_c, 0, 65, 0
2, 76080, Note_on_c, 0, 69, 55
2, 76080, Note_on_c, 0, 65, 55
2, 76290, Note_on_c, 0, 65, 0
2, 76290, Note_on_c, 0, 69, 0
2, 76320, Note_on_c, 0, 67, 77
2, 76320, Note_on_c, 0, 79, 79
2, 76440, Note_on_c, 0, 79, 0
2, 76440, Note_on_c, 0, 77, 70
2, 76500, Note_on_c, 0, 77, 0
2, 76500, Note_on_c, 0, 75, 70
2, 76560, Note_on_c, 0, 75, 0
2, 76560, Note_on_c, 0, 74, 70
2, 76620, Note_on_c, 0, 74, 0
2, 76620, Note_on_c, 0, 72, 70
2, 76680, Note_on_c, 0, 72, 0
2, 76680, Note_on_c, 0, 70, 70
2, 76740, Note_on_c, 0, 70, 0
2, 76740, Note_on_c, 0, 69, 70
2, 76800, Note_on_c, 0, 69, 0
2, 76800, Note_on_c, 0, 67, 0
2, 76800, Note_on_c, 0, 67, 77
2, 77400, Note_on_c, 0, 70, 65
2, 77410, Note_on_c, 0, 67, 0
2, 77500, Note_on_c, 0, 70, 0
2, 77520, Note_on_c, 0, 69, 68
2, 77640, Note_on_c, 0, 72, 65
2, 77650, Note_on_c, 0, 69, 0
2, 77740, Note_on_c, 0, 72, 0
2, 77760, Note_on_c, 0, 63, 58
2, 77760, Note_on_c, 0, 70, 68
2, 77880, Note_on_c, 0, 74, 65
2, 77890, Note_on_c, 0, 70, 0
2, 77980, Note_on_c, 0, 74, 0
2, 78000, Note_on_c, 0, 72, 67
2, 78120, Note_on_c, 0, 75, 68
2, 78130, Note_on_c, 0, 72, 0
2, 78220, Note_on_c, 0, 75, 0
2, 78240, Note_on_c, 0, 74, 71
2, 78360, Note_on_c, 0, 70, 58
2, 78370, Note_on_c, 0, 74, 0
2, 78480, Note_on_c, 0, 69, 59
2, 78490, Note_on_c, 0, 70, 0
2, 78600, Note_on_c, 0, 65, 55
2, 78610, Note_on_c, 0, 69, 0
2, 78720, Note_on_c, 0, 65, 0
2, 78720, Note_on_c, 0, 63, 0
2, 78720, Note_on_c, 0, 60, 55
2, 78720, Note_on_c, 0, 63, 55
2, 78960, Note_on_c, 0, 63, 0
2, 78960, Note_on_c, 0, 60, 0
2, 78960, Note_on_c, 0, 65, 55
2, 78960, Note_on_c, 0, 62, 55
2, 79170, Note_on_c, 0, 62, 0
2, 79170, Note_on_c, 0, 65, 0
2, 79200, Note_on_c, 0, 67, 77
2, 79200, Note_on_c, 0, 79, 79
2, 79320, Note_on_c, 0, 79, 0
2, 79320, Note_on_c, 0, 77, 70
2, 79380, Note_on_c, 0, 77, 0
2, 79380, Note_on_c, 0, 75, 70
2, 79440, Note_on_c, 0, 75, 0
2, 79440, Note_on_c, 0, 74, 70
2, 79500, Note_on_c, 0, 74, 0
2, 79500, Note_on_c, 0, 72, 70
2, 79560, Note_on_c, 0, 72, 0
2, 79560, Note_on_c, 0, 70, 70
2, 79620, Note_on_c, 0, 70, 0
2, 79620, Note_on_c, 0, 69, 70
2, 79680, Note_on_c, 0, 69, 0
2, 79680, Note_on_c, 0, 67, 0
2, 79680, Note_on_c, 0, 67, 77
2, 80280, Note_on_c, 0, 70, 65
2, 80290, Note_on_c, 0, 67, 0
2, 80380, Note_on_c, 0, 70, 0
2, 80400, Note_on_c, 0, 69, 68
2, 80520, Note_on_c, 0, 72, 65
2, 80530, Note_on_c, 0, 69, 0
2, 80620, Note_on_c, 0, 72, 0
2, 80640, Note_on_c, 0, 63, 58
2, 80640, Note_on_c, 0, 70, 68
2, 80760, Note_on_c, 0, 74, 65
2, 80770, Note_on_c, 0, 70, 0
2, 80860, Note_on_c, 0, 74, 0
2, 80880, Note_on_c, 0, 72, 67
2, 81000, Note_on_c, 0, 75, 68
2, 81010, Note_on_c, 0, 72, 0
2, 81100, Note_on_c, 0, 75, 0
2, 81120, Note_on_c, 0, 74, 71
2, 81240, Note_on_c, 0, 70, 58
2, 81250, Note_on_c, 0, 74, 0
2, 81360, Note_on_c, 0, 69, 63
2, 81370, Note_on_c, 0, 70, 0
2, 81480, Note_on_c, 0, 65, 54
2, 81490, Note_on_c, 0, 69, 0
2, 81600, Note_on_c, 0, 65, 0
2, 81600, Note_on_c, 0, 63, 0
2, 81600, Note_on_c, 0, 60, 55
2, 81600, Note_on_c, 0, 63, 55
2, 81840, Note_on_c, 0, 63, 0
2, 81840, Note_on_c, 0, 60, 0
2, 81840, Note_on_c, 0, 67, 55
2, 81840, Note_on_c, 0, 63, 40
2, 82020, Note_on_c, 0, 63, 0
2, 82020, Note_on_c, 0, 67, 0
2, 82080, Note_on_c, 0, 66, 48
2, 82080, Note_on_c, 0, 62, 48
2, 82440, Note_on_c, 0, 62, 0
2, 82440, Note_on_c, 0, 66, 0
2, 82440, Note_on_c, 0, 60, 34
2, 82440, Note_on_c, 0, 63, 34
2, 82440, Note_on_c, 0, 67, 42
2, 82530, Note_on_c, 0, 67, 0
2, 82530, Note_on_c, 0, 63, 0
2, 82530, Note_on_c, 0, 60, 0
2, 82560, Note_on_c, 0, 66, 48
2, 82560, Note_on_c, 0, 62, 48
2, 82920, Note_on_c, 0, 62, 0
2, 82920, Note_on_c, 0, 66, 0
2, 82920, Note_on_c, 0, 60, 34
2, 82920, Note_on_c, 0, 63, 34
2, 82920, Note_on_c, 0, 67, 42
2, 83010, Note_on_c, 0, 67, 0
2, 83010, Note_on_c, 0, 63, 0
2, 83010, Note_on_c, 0, 60, 0
2, 83040, Note_on_c, 0, 62, 47
2, 83040, Note_on_c, 0, 66, 47
2, 83280, Note_on_c, 0, 66, 0
2, 83280, Note_on_c, 0, 62, 0
2, 83280, Note_on_c, 0, 60, 38
2, 83280, Note_on_c, 0, 63, 38
2, 83280, Note_on_c, 0, 69, 50
2, 83520, Note_on_c, 0, 69, 0
2, 83520, Note_on_c, 0, 63, 0
2, 83520, Note_on_c, 0, 60, 0
2, 83520, Note_on_c, 0, 58, 45
2, 83520, Note_on_c, 0, 62, 45
2, 83520, Note_on_c, 0, 67, 55
2, 83760, Note_on_c, 0, 67, 0
2, 83760, Note_on_c, 0, 62, 0
2, 83760, Note_on_c, 0, 58, 0
2, 83760, Note_on_c, 0, 57, 43
2, 83760, Note_on_c, 0, 62, 43
2, 83760, Note_on_c, 0, 66, 43
2, 83880, Note_on_c, 0, 66, 0
2, 83880, Note_on_c, 0, 62, 0
2, 83880, Note_on_c, 0, 57, 0
2, 83880, Note_on_c, 0, 67, 46
2, 84000, Note_on_c, 0, 67, 0
2, 84000, Note_on_c, 0, 64, 45
2, 84000, Note_on_c, 0, 55, 45
2, 84000, Note_on_c, 0, 62, 45
2, 84480, Note_on_c, 0, 64, 0
2, 84600, Note_on_c, 0, 62, 0
2, 84600, Note_on_c, 0, 61, 44
2, 84720, Note_on_c, 0, 61, 0
2, 84720, Note_on_c, 0, 59, 44
2, 84840, Note_on_c, 0, 59, 0
2, 84840, Note_on_c, 0, 61, 44
2, 84960, Note_on_c, 0, 61, 0
2, 84960, Note_on_c, 0, 55, 0
2, 84960, Note_on_c, 0, 66, 44
2, 84960, Note_on_c, 0, 57, 44
2, 84960, Note_on_c, 0, 62, 44
2, 85200, Note_on_c, 0, 62, 0
2, 85200, Note_on_c, 0, 57, 0
2, 85200, Note_on_c, 0, 66, 0
2, 85200, Note_on_c, 0, 60, 51
2, 85200, Note_on_c, 0, 69, 51
2, 85440, Note_on_c, 0, 69, 0
2, 85440, Note_on_c, 0, 60, 0
2, 85440, Note_on_c, 0, 64, 48
2, 85440, Note_on_c, 0, 66, 48
2, 85440, Note_on_c, 0, 72, 48
2, 85920, Note_on_c, 0, 72, 0
2, 85920, Note_on_c, 0, 66, 0
2, 85920, Note_on_c, 0, 64, 0
2, 85920, Note_on_c, 0, 62, 46
2, 85920, Note_on_c, 0, 67, 46
2, 85920, Note_on_c, 0, 71, 46
2, 86160, Note_on_c, 0, 71, 0
2, 86160, Note_on_c, 0, 67, 0
2, 86160, Note_on_c, 0, 62, 0
2, 86160, Note_on_c, 0, 66, 49
2, 86160, Note_on_c, 0, 71, 49
2, 86160, Note_on_c, 0, 74, 49
2, 86400, Note_on_c, 0, 74, 0
2, 86400, Note_on_c, 0, 71, 0
2, 86400, Note_on_c, 0, 66, 0
2, 86400, Note_on_c, 0, 71, 52
2, 86400, Note_on_c, 0, 69, 52
2, 86400, Note_on_c, 0, 78, 52
2, 86880, Note_on_c, 0, 78, 0
2, 86880, Note_on_c, 0, 69, 0
2, 86880, Note_on_c, 0, 71, 0
2, 86880, Note_on_c, 0, 67, 49
2, 86880, Note_on_c, 0, 76, 49
2, 86880, Note_on_c, 0, 71, 42
2, 87120, Note_on_c, 0, 76, 0
2, 87120, Note_on_c, 0, 67, 0
2, 87120, Note_on_c, 0, 74, 49
2, 87120, Note_on_c, 0, 66, 49
2, 87360, Note_on_c, 0, 66, 0
2, 87360, Note_on_c, 0, 74, 0
2, 87360, Note_on_c, 0, 71, 0
2, 87360, Note_on_c, 0, 64, 46
2, 87360, Note_on_c, 0, 67, 46
2, 87360, Note_on_c, 0, 71, 46
2, 87480, Note_on_c, 0, 64, 0
2, 87480, Note_on_c, 0, 62, 45
2, 87600, Note_on_c, 0, 62, 0
2, 87600, Note_on_c, 0, 71, 0
2, 87600, Note_on_c, 0, 67, 0
2, 87600, Note_on_c, 0, 61, 43
2, 87600, Note_on_c, 0, 64, 43
2, 87600, Note_on_c, 0, 67, 43
2, 87720, Note_on_c, 0, 61, 0
2, 87720, Note_on_c, 0, 59, 42
2, 87840, Note_on_c, 0, 59, 0
2, 87840, Note_on_c, 0, 67, 0
2, 87840, Note_on_c, 0, 64, 0
2, 87840, Note_on_c, 0, 66, 48
2, 87840, Note_on_c, 0, 62, 48
2, 88200, Note_on_c, 0, 62, 0
2, 88200, Note_on_c, 0, 66, 0
2, 88200, Note_on_c, 0, 60, 34
2, 88200, Note_on_c, 0, 63, 34
2, 88200, Note_on_c, 0, 67, 42
2, 88290, Note_on_c, 0, 67, 0
2, 88290, Note_on_c, 0, 63, 0
2, 88290, Note_on_c, 0, 60, 0
2, 88320, Note_on_c, 0, 66, 48
2, 88320, Note_on_c, 0, 62, 48
2, 88680, Note_on_c, 0, 62, 0
2, 88680, Note_on_c, 0, 66, 0
2, 88680, Note_on_c, 0, 60, 34
2, 88680, Note_on_c, 0, 63, 34
2, 88680, Note_on_c, 0, 67, 42
2, 88770, Note_on_c, 0, 67, 0
2, 88770, Note_on_c, 0, 63, 0
2, 88770, Note_on_c, 0, 60, 0
2, 88800, Note_on_c, 0, 62, 47
2, 88800, Note_on_c, 0, 66, 47
2, 89040, Note_on_c, 0, 66, 0
2, 89040, Note_on_c, 0, 62, 0
2, 89040, Note_on_c, 0, 60, 38
2, 89040, Note_on_c, 0, 63, 38
2, 89040, Note_on_c, 0, 69, 50
2, 89280, Note_on_c, 0, 69, 0
2, 89280, Note_on_c, 0, 63, 0
2, 89280, Note_on_c, 0, 60, 0
2, 89280, Note_on_c, 0, 62, 45
2, 89280, Note_on_c, 0, 67, 55
2, 89280, Note_on_c, 0, 59, 45
2, 89520, Note_on_c, 0, 59, 0
2, 89520, Note_on_c, 0, 67, 0
2, 89520, Note_on_c, 0, 62, 0
2, 89520, Note_on_c, 0, 62, 43
2, 89520, Note_on_c, 0, 57, 43
2, 89520, Note_on_c, 0, 66, 43
2, 89640, Note_on_c, 0, 66, 0
2, 89640, Note_on_c, 0, 57, 0
2, 89640, Note_on_c, 0, 62, 0
2, 89640, Note_on_c, 0, 67, 46
2, 89760, Note_on_c, 0, 67, 0
2, 89760, Note_on_c, 0, 62, 45
2, 89760, Note_on_c, 0, 55, 45
2, 89760, Note_on_c, 0, 64, 45
2, 89970, Note_on_c, 0, 64, 0
2, 89970, Note_on_c, 0, 55, 0
2, 89970, Note_on_c, 0, 62, 0
2, 90000, Note_on_c, 0, 64, 46
2, 90000, Note_on_c, 0, 67, 46
2, 90000, Note_on_c, 0, 71, 46
2, 90240, Note_on_c, 0, 71, 0
2, 90240, Note_on_c, 0, 67, 0
2, 90240, Note_on_c, 0, 64, 0
2, 90240, Note_on_c, 0, 61, 50
2, 90240, Note_on_c, 0, 66, 50
2, 90240, Note_on_c, 0, 69, 50
2, 90480, Note_on_c, 0, 69, 0
2, 90480, Note_on_c, 0, 66, 0
2, 90480, Note_on_c, 0, 61, 0
2, 90480, Note_on_c, 0, 59, 52
2, 90480, Note_on_c, 0, 64, 52
2, 90480, Note_on_c, 0, 67, 52
2, 90720, Note_on_c, 0, 67, 0
2, 90720, Note_on_c, 0, 64, 0
2, 90720, Note_on_c, 0, 59, 0
2, 90720, Note_on_c, 0, 61, 52
2, 90720, Note_on_c, 0, 58, 52
2, 90720, Note_on_c, 0, 66, 52
2, 90930, Note_on_c, 0, 66, 0
2, 90930, Note_on_c, 0, 58, 0
2, 90930, Note_on_c, 0, 61, 0
2, 90960, Note_on_c, 0, 66, 52
2, 90960, Note_on_c, 0, 71, 52
2, 90960, Note_on_c, 0, 74, 52
2, 91200, Note_on_c, 0, 74, 0
2, 91200, Note_on_c, 0, 71, 0
2, 91200, Note_on_c, 0, 66, 0
2, 91200, Note_on_c, 0, 64, 54
2, 91200, Note_on_c, 0, 67, 54
2, 91200, Note_on_c, 0, 73, 54
2, 91440, Note_on_c, 0, 73, 0
2, 91440, Note_on_c, 0, 67, 0
2, 91440, Note_on_c, 0, 64, 0
2, 91440, Note_on_c, 0, 66, 56
2, 91440, Note_on_c, 0, 62, 56
2, 91440, Note_on_c, 0, 71, 56
2, 91680, Note_on_c, 0, 71, 0
2, 91680, Note_on_c, 0, 62, 0
2, 91680, Note_on_c, 0, 66, 0
2, 91680, Note_on_c, 0, 64, 60
2, 91680, Note_on_c, 0, 67, 60
2, 91680, Note_on_c, 0, 69, 60
2, 91920, Note_on_c, 0, 69, 0
2, 91920, Note_on_c, 0, 81, 66
2, 92100, Note_on_c, 0, 81, 0
2, 92160, Note_on_c, 0, 67, 0
2, 92160, Note_on_c, 0, 64, 0
2, 92160, Note_on_c, 0, 74, 48
2, 92160, Note_on_c, 0, 78, 48
2, 92160, Note_on_c, 0, 81, 48
2, 92520, Note_on_c, 0, 78, 0
2, 92520, Note_on_c, 0, 74, 0
2, 92520, Note_on_c, 0, 75, 34
2, 92520, Note_on_c, 0, 79, 42
2, 92580, Note_on_c, 0, 79, 0
2, 92580, Note_on_c, 0, 75, 0
2, 92640, Note_on_c, 0, 78, 48
2, 92640, Note_on_c, 0, 74, 48
2, 93000, Note_on_c, 0, 74, 0
2, 93000, Note_on_c, 0, 78, 0
2, 93000, Note_on_c, 0, 75, 34
2, 93000, Note_on_c, 0, 79, 42
2, 93060, Note_on_c, 0, 79, 0
2, 93060, Note_on_c, 0, 75, 0
2, 93120, Note_on_c, 0, 74, 47
2, 93120, Note_on_c, 0, 78, 47
2, 93330, Note_on_c, 0, 78, 0
2, 93330, Note_on_c, 0, 74, 0
2, 93330, Note_on_c, 0, 81, 0
2, 93360, Note_on_c, 0, 72, 49
2, 93360, Note_on_c, 0, 75, 49
2, 93360, Note_on_c, 0, 81, 49
2, 93600, Note_on_c, 0, 81, 0
2, 93600, Note_on_c, 0, 75, 0
2, 93600, Note_on_c, 0, 72, 0
2, 93600, Note_on_c, 0, 70, 49
2, 93600, Note_on_c, 0, 74, 49
2, 93600, Note_on_c, 0, 79, 49
2, 93840, Note_on_c, 0, 79, 0
2, 93840, Note_on_c, 0, 74, 0
2, 93840, Note_on_c, 0, 70, 0
2, 93840, Note_on_c, 0, 78, 40
2, 93840, Note_on_c, 0, 74, 40
2, 93840, Note_on_c, 0, 69, 40
2, 93960, Note_on_c, 0, 69, 0
2, 93960, Note_on_c, 0, 74, 0
2, 93960, Note_on_c, 0, 78, 0
2, 93960, Note_on_c, 0, 79, 43
2, 94080, Note_on_c, 0, 79, 0
2, 94080, Note_on_c, 0, 74, 38
2, 94080, Note_on_c, 0, 67, 38
2, 94080, Note_on_c, 0, 76, 38
2, 94560, Note_on_c, 0, 76, 0
2, 94560, Note_on_c, 0, 67, 0
2, 94560, Note_on_c, 0, 74, 0
2, 94560, Note_on_c, 0, 79, 42
2, 94560, Note_on_c, 0, 76, 42
2, 94560, Note_on_c, 0, 70, 42
2, 95040, Note_on_c, 0, 70, 0
2, 95040, Note_on_c, 0, 76, 0
2, 95040, Note_on_c, 0, 79, 0
2, 95040, Note_on_c, 0, 78, 44
2, 95040, Note_on_c, 0, 69, 44
2, 95040, Note_on_c, 0, 74, 44
2, 95280, Note_on_c, 0, 74, 0
2, 95280, Note_on_c, 0, 78, 0
2, 95280, Note_on_c, 0, 81, 54
2, 95520, Note_on_c, 0, 81, 0
2, 95520, Note_on_c, 0, 69, 0
2, 95520, Note_on_c, 0, 72, 47
2, 95520, Note_on_c, 0, 78, 47
2, 95520, Note_on_c, 0, 84, 47
2, 96000, Note_on_c, 0, 84, 0
2, 96000, Note_on_c, 0, 78, 0
2, 96000, Note_on_c, 0, 72, 0
2, 96000, Note_on_c, 0, 67, 52
2, 96000, Note_on_c, 0, 71, 52
2, 96240, Note_on_c, 0, 71, 0
2, 96240, Note_on_c, 0, 74, 50
2, 96480, Note_on_c, 0, 74, 0
2, 96480, Note_on_c, 0, 78, 55
2, 96960, Note_on_c, 0, 78, 0
2, 96960, Note_on_c, 0, 76, 49
2, 97200, Note_on_c, 0, 76, 0
2, 97200, Note_on_c, 0, 74, 46
2, 97440, Note_on_c, 0, 74, 0
2, 97440, Note_on_c, 0, 67, 0
2, 97440, Note_on_c, 0, 67, 43
2, 97440, Note_on_c, 0, 71, 43
2, 97680, Note_on_c, 0, 71, 0
2, 97680, Note_on_c, 0, 67, 0
2, 97680, Note_on_c, 0, 64, 38
2, 97680, Note_on_c, 0, 67, 38
2, 97920, Note_on_c, 0, 67, 0
2, 97920, Note_on_c, 0, 64, 0
2, 97920, Note_on_c, 0, 62, 36
2, 97920, Note_on_c, 0, 59, 36
2, 97920, Note_on_c, 0, 66, 36
2, 98400, Note_on_c, 0, 66, 0
2, 98400, Note_on_c, 0, 59, 0
2, 98400, Note_on_c, 0, 62, 0
2, 98400, Note_on_c, 0, 56, 38
2, 98400, Note_on_c, 0, 61, 38
2, 98400, Note_on_c, 0, 64, 38
2, 98640, Note_on_c, 0, 64, 0
2, 98640, Note_on_c, 0, 61, 0
2, 98640, Note_on_c, 0, 56, 0
2, 98640, Note_on_c, 0, 54, 36
2, 98640, Note_on_c, 0, 59, 36
2, 98640, Note_on_c, 0, 62, 36
2, 98880, Note_on_c, 0, 62, 0
2, 98880, Note_on_c, 0, 59, 0
2, 98880, Note_on_c, 0, 54, 0
2, 98880, Note_on_c, 0, 53, 38
2, 98880, Note_on_c, 0, 59, 38
2, 98880, Note_on_c, 0, 61, 38
2, 99120, Note_on_c, 0, 61, 0
2, 99120, Note_on_c, 0, 59, 0
2, 99120, Note_on_c, 0, 53, 0
2, 99120, Note_on_c, 0, 59, 36
2, 99120, Note_on_c, 0, 61, 36
2, 99120, Note_on_c, 0, 68, 36
2, 99360, Note_on_c, 0, 61, 0
2, 99360, Note_on_c, 0, 62, 36
2, 99600, Note_on_c, 0, 68, 0
2, 99600, Note_on_c, 0, 66, 33
2, 99680, Note_on_c, 0, 66, 0
2, 99680, Note_on_c, 0, 68, 37
2, 99760, Note_on_c, 0, 68, 0
2, 99760, Note_on_c, 0, 69, 41
2, 99840, Note_on_c, 0, 69, 0
2, 99840, Note_on_c, 0, 66, 43
2, 100080, Note_on_c, 0, 66, 0
2, 100080, Note_on_c, 0, 64, 40
2, 100560, Note_on_c, 0, 64, 0
2, 100560, Note_on_c, 0, 66, 45
2, 100780, Note_on_c, 0, 66, 0
2, 100800, Note_on_c, 0, 62, 0
2, 100800, Note_on_c, 0, 59, 0
2, 100800, Note_on_c, 0, 68, 39
2, 100800, Note_on_c, 0, 78, 39
2, 100800, Note_on_c, 0, 74, 39
2, 101280, Note_on_c, 0, 74, 0
2, 101280, Note_on_c, 0, 78, 0
2, 101280, Note_on_c, 0, 73, 38
2, 101280, Note_on_c, 0, 76, 38
2, 101520, Note_on_c, 0, 76, 0
2, 101520, Note_on_c, 0, 73, 0
2, 101520, Note_on_c, 0, 74, 36
2, 101520, Note_on_c, 0, 71, 36
2, 101760, Note_on_c, 0, 71, 0
2, 101760, Note_on_c, 0, 74, 0
2, 101760, Note_on_c, 0, 68, 0
2, 101760, Note_on_c, 0, 68, 38
2, 101760, Note_on_c, 0, 71, 38
2, 101760, Note_on_c, 0, 73, 38
2, 102000, Note_on_c, 0, 73, 0
2, 102000, Note_on_c, 0, 71, 0
2, 102000, Note_on_c, 0, 68, 0
2, 102000, Note_on_c, 0, 71, 44
2, 102000, Note_on_c, 0, 73, 44
2, 102000, Note_on_c, 0, 80, 44
2, 102240, Note_on_c, 0, 73, 0
2, 102240, Note_on_c, 0, 74, 43
2, 102480, Note_on_c, 0, 80, 0
2, 102480, Note_on_c, 0, 78, 38
2, 102720, Note_on_c, 0, 78, 0
2, 102720, Note_on_c, 0, 80, 39
2, 102960, Note_on_c, 0, 80, 0
2, 102960, Note_on_c, 0, 81, 36
2, 103200, Note_on_c, 0, 81, 0
2, 103200, Note_on_c, 0, 78, 38
2, 103440, Note_on_c, 0, 78, 0
2, 103440, Note_on_c, 0, 80, 35
2, 103680, Note_on_c, 0, 80, 0
2, 103680, Note_on_c, 0, 74, 0
2, 103680, Note_on_c, 0, 71, 0
2, 103680, Note_on_c, 0, 51, 35
2, 103680, Note_on_c, 0, 58, 35
2, 103680, Note_on_c, 0, 55, 35
2, 104068, Note_on_c, 0, 55, 0
2, 104068, Note_on_c, 0, 58, 0
2, 104068, Note_on_c, 0, 51, 0
2, 104070, Note_on_c, 0, 70, 32
2, 104100, Note_on_c, 0, 75, 34
2, 104130, Note_on_c, 0, 79, 35
2, 104160, Note_on_c, 0, 82, 41
2, 104640, Note_on_c, 0, 82, 0
2, 104640, Note_on_c, 0, 70, 0
2, 104640, Note_on_c, 0, 75, 0
2, 104640, Note_on_c, 0, 79, 0
2, 104640, Note_on_c, 0, 51, 38
2, 104640, Note_on_c, 0, 55, 38
2, 104640, Note_on_c, 0, 58, 38
2, 105508, Note_on_c, 0, 58, 0
2, 105508, Note_on_c, 0, 55, 0
2, 105508, Note_on_c, 0, 51, 0
2, 105510, Note_on_c, 0, 70, 32
2, 105540, Note_on_c, 0, 75, 33
2, 105570, Note_on_c, 0, 79, 35
2, 105600, Note_on_c, 0, 82, 40
2, 106080, Note_on_c, 0, 82, 0
2, 106080, Note_on_c, 0, 70, 0
2, 106080, Note_on_c, 0, 75, 0
2, 106080, Note_on_c, 0, 79, 0
2, 106080, Note_on_c, 0, 51, 40
2, 106080, Note_on_c, 0, 55, 40
2, 106080, Note_on_c, 0, 58, 40
2, 106560, Control_c, 0, 91, 127
2, 106680, Note_on_c, 0, 58, 0
2, 106680, Note_on_c, 0, 60, 42
2, 106800, Note_on_c, 0, 60, 0
2, 106800, Note_on_c, 0, 55, 0
2, 106800, Note_on_c, 0, 51, 0
2, 106800, Note_on_c, 0, 62, 44
2, 106920, Note_on_c, 0, 62, 0
2, 106920, Note_on_c, 0, 63, 43
2, 107040, Note_on_c, 0, 63, 0
2, 107040, Note_on_c, 0, 60, 44
2, 107140, Note_on_c, 0, 60, 0
2, 107160, Note_on_c, 0, 60, 39
2, 107220, Note_on_c, 0, 60, 0
2, 107220, Note_on_c, 0, 62, 39
2, 107280, Note_on_c, 0, 62, 0
2, 107280, Note_on_c, 0, 60, 44
2, 107370, Note_on_c, 0, 60, 0
2, 107400, Note_on_c, 0, 58, 44
2, 107490, Note_on_c, 0, 58, 0
2, 107520, Note_on_c, 0, 60, 43
2, 107550, Note_on_c, 0, 60, 0
2, 107760, Note_on_c, 0, 63, 39
2, 107790, Note_on_c, 0, 63, 0
2, 108000, Note_on_c, 0, 62, 42
2, 108000, Control_c, 0, 91, 127
2, 108120, Note_on_c, 0, 62, 0
2, 108120, Note_on_c, 0, 63, 42
2, 108240, Note_on_c, 0, 63, 0
2, 108240, Note_on_c, 0, 65, 44
2, 108360, Note_on_c, 0, 65, 0
2, 108360, Note_on_c, 0, 67, 43
2, 108480, Note_on_c, 0, 67, 0
2, 108480, Note_on_c, 0, 62, 44
2, 108580, Note_on_c, 0, 62, 0
2, 108600, Note_on_c, 0, 62, 39
2, 108660, Note_on_c, 0, 62, 0
2, 108660, Note_on_c, 0, 63, 39
2, 108720, Note_on_c, 0, 63, 0
2, 108720, Note_on_c, 0, 62, 44
2, 108810, Note_on_c, 0, 62, 0
2, 108840, Note_on_c, 0, 60, 42
2, 108930, Note_on_c, 0, 60, 0
2, 108960, Note_on_c, 0, 58, 39
2, 109080, Note_on_c, 0, 58, 0
2, 109080, Note_on_c, 0, 60, 39
2, 109200, Note_on_c, 0, 60, 0
2, 109200, Note_on_c, 0, 62, 39
2, 109440, Note_on_c, 0, 62, 0
2, 109440, Note_on_c, 0, 61, 36
2, 109440, Note_on_c, 0, 63, 42
2, 109440, Control_c, 0, 91, 127
2, 109560, Note_on_c, 0, 63, 0
2, 109560, Note_on_c, 0, 65, 42
2, 109680, Note_on_c, 0, 65, 0
2, 109680, Note_on_c, 0, 67, 44
2, 109800, Note_on_c, 0, 67, 0
2, 109800, Note_on_c, 0, 68, 43
2, 109920, Note_on_c, 0, 68, 0
2, 109920, Note_on_c, 0, 61, 0
2, 109920, Note_on_c, 0, 65, 44
2, 110020, Note_on_c, 0, 65, 0
2, 110040, Note_on_c, 0, 65, 39
2, 110100, Note_on_c, 0, 65, 0
2, 110100, Note_on_c, 0, 67, 39
2, 110160, Note_on_c, 0, 67, 0
2, 110160, Note_on_c, 0, 65, 44
2, 110250, Note_on_c, 0, 65, 0
2, 110280, Note_on_c, 0, 63, 44
2, 110370, Note_on_c, 0, 63, 0
2, 110400, Note_on_c, 0, 65, 46
2, 110430, Note_on_c, 0, 65, 0
2, 110640, Note_on_c, 0, 68, 44
2, 110670, Note_on_c, 0, 68, 0
2, 110880, Note_on_c, 0, 61, 39
2, 110880, Note_on_c, 0, 67, 46
2, 110880, Control_c, 0, 91, 127
2, 111000, Note_on_c, 0, 67, 0
2, 111000, Note_on_c, 0, 68, 46
2, 111120, Note_on_c, 0, 68, 0
2, 111120, Note_on_c, 0, 70, 48
2, 111240, Note_on_c, 0, 70, 0
2, 111240, Note_on_c, 0, 72, 47
2, 111360, Note_on_c, 0, 72, 0
2, 111360, Note_on_c, 0, 67, 48
2, 111460, Note_on_c, 0, 67, 0
2, 111480, Note_on_c, 0, 65, 42
2, 111520, Note_on_c, 0, 67, 42
2, 111540, Note_on_c, 0, 65, 0
2, 111560, Note_on_c, 0, 67, 0
2, 111560, Note_on_c, 0, 65, 42
2, 111600, Note_on_c, 0, 65, 0
2, 111600, Note_on_c, 0, 61, 0
2, 111600, Note_on_c, 0, 63, 48
2, 111690, Note_on_c, 0, 63, 0
2, 111720, Note_on_c, 0, 61, 46
2, 111810, Note_on_c, 0, 61, 0
2, 111840, Note_on_c, 0, 63, 42
2, 111960, Note_on_c, 0, 63, 0
2, 111960, Note_on_c, 0, 65, 42
2, 112080, Note_on_c, 0, 65, 0
2, 112080, Note_on_c, 0, 67, 42
2, 112320, Note_on_c, 0, 67, 0
2, 112320, Note_on_c, 0, 61, 42
2, 112320, Note_on_c, 0, 67, 50
2, 112320, Control_c, 0, 91, 127
2, 112440, Note_on_c, 0, 67, 0
2, 112440, Note_on_c, 0, 68, 50
2, 112560, Note_on_c, 0, 68, 0
2, 112560, Note_on_c, 0, 70, 52
2, 112680, Note_on_c, 0, 70, 0
2, 112680, Note_on_c, 0, 72, 51
2, 112800, Note_on_c, 0, 72, 0
2, 112800, Note_on_c, 0, 67, 52
2, 112900, Note_on_c, 0, 67, 0
2, 112920, Note_on_c, 0, 65, 46
2, 112960, Note_on_c, 0, 67, 46
2, 112980, Note_on_c, 0, 65, 0
2, 113000, Note_on_c, 0, 67, 0
2, 113000, Note_on_c, 0, 65, 46
2, 113040, Note_on_c, 0, 65, 0
2, 113040, Note_on_c, 0, 61, 0
2, 113040, Note_on_c, 0, 63, 53
2, 113130, Note_on_c, 0, 63, 0
2, 113160, Note_on_c, 0, 61, 50
2, 113250, Note_on_c, 0, 61, 0
2, 113280, Note_on_c, 0, 63, 54
2, 113400, Note_on_c, 0, 63, 0
2, 113400, Note_on_c, 0, 65, 51
2, 113520, Note_on_c, 0, 65, 0
2, 113520, Note_on_c, 0, 67, 51
2, 113760, Note_on_c, 0, 67, 0
2, 113760, Note_on_c, 0, 61, 55
2, 113760, Control_c, 0, 91, 127
2, 113760, Note_on_c, 0, 68, 55
2, 113880, Note_on_c, 0, 68, 0
2, 113880, Note_on_c, 0, 69, 56
2, 114000, Note_on_c, 0, 69, 0
2, 114000, Note_on_c, 0, 71, 58
2, 114120, Note_on_c, 0, 71, 0
2, 114120, Note_on_c, 0, 73, 57
2, 114240, Note_on_c, 0, 73, 0
2, 114240, Note_on_c, 0, 68, 58
2, 114340, Note_on_c, 0, 68, 0
2, 114360, Note_on_c, 0, 66, 51
2, 114400, Note_on_c, 0, 68, 51
2, 114420, Note_on_c, 0, 66, 0
2, 114440, Note_on_c, 0, 68, 0
2, 114440, Note_on_c, 0, 66, 51
2, 114480, Note_on_c, 0, 66, 0
2, 114480, Note_on_c, 0, 61, 0
2, 114480, Note_on_c, 0, 64, 59
2, 114570, Note_on_c, 0, 64, 0
2, 114600, Note_on_c, 0, 63, 56
2, 114690, Note_on_c, 0, 63, 0
2, 114720, Note_on_c, 0, 64, 60
2, 114840, Note_on_c, 0, 64, 0
2, 114840, Note_on_c, 0, 66, 57
2, 114960, Note_on_c, 0, 66, 0
2, 114960, Note_on_c, 0, 68, 57
2, 115200, Note_on_c, 0, 62, 60
2, 115320, Note_on_c, 0, 68, 0
2, 115320, Note_on_c, 0, 69, 55
2, 115440, Note_on_c, 0, 69, 0
2, 115440, Note_on_c, 0, 71, 57
2, 115560, Note_on_c, 0, 71, 0
2, 115560, Note_on_c, 0, 73, 60
2, 115680, Note_on_c, 0, 73, 0
2, 115680, Note_on_c, 0, 68, 65
2, 115800, Note_on_c, 0, 68, 0
2, 115800, Note_on_c, 0, 69, 59
2, 115920, Note_on_c, 0, 69, 0
2, 115920, Note_on_c, 0, 62, 0
2, 115920, Note_on_c, 0, 71, 63
2, 116040, Note_on_c, 0, 71, 0
2, 116040, Note_on_c, 0, 73, 66
2, 116160, Note_on_c, 0, 73, 0
2, 116160, Note_on_c, 0, 74, 70
2, 116280, Note_on_c, 0, 74, 0
2, 116280, Note_on_c, 0, 76, 64
2, 116400, Note_on_c, 0, 76, 0
2, 116400, Note_on_c, 0, 78, 67
2, 116520, Note_on_c, 0, 78, 0
2, 116520, Note_on_c, 0, 80, 69
2, 116640, Note_on_c, 0, 80, 0
2, 116640, Note_on_c, 0, 81, 76
2, 116760, Note_on_c, 0, 73, 58
2, 116880, Note_on_c, 0, 73, 0
2, 116880, Note_on_c, 0, 74, 58
2, 117000, Note_on_c, 0, 74, 0
2, 117000, Note_on_c, 0, 81, 0
2, 117000, Note_on_c, 0, 81, 58
2, 117120, Note_on_c, 0, 81, 0
2, 117120, Note_on_c, 0, 80, 75
2, 117240, Note_on_c, 0, 71, 56
2, 117360, Note_on_c, 0, 71, 0
2, 117360, Note_on_c, 0, 74, 56
2, 117480, Note_on_c, 0, 74, 0
2, 117480, Note_on_c, 0, 80, 0
2, 117480, Note_on_c, 0, 80, 56
2, 117600, Note_on_c, 0, 80, 0
2, 117600, Note_on_c, 0, 78, 72
2, 117720, Note_on_c, 0, 71, 55
2, 117840, Note_on_c, 0, 71, 0
2, 117840, Note_on_c, 0, 74, 55
2, 117960, Note_on_c, 0, 74, 0
2, 117960, Note_on_c, 0, 78, 0
2, 117960, Note_on_c, 0, 78, 55
2, 118080, Note_on_c, 0, 78, 0
2, 118080, Note_on_c, 0, 76, 71
2, 118200, Note_on_c, 0, 69, 52
2, 118320, Note_on_c, 0, 69, 0
2, 118320, Note_on_c, 0, 73, 52
2, 118440, Note_on_c, 0, 73, 0
2, 118440, Note_on_c, 0, 76, 0
2, 118440, Note_on_c, 0, 76, 52
2, 118560, Note_on_c, 0, 73, 52
2, 118680, Note_on_c, 0, 73, 0
2, 118680, Note_on_c, 0, 69, 52
2, 118800, Note_on_c, 0, 69, 0
2, 118800, Note_on_c, 0, 76, 0
2, 118800, Note_on_c, 0, 78, 67
2, 118800, Note_on_c, 0, 73, 55
2, 118920, Note_on_c, 0, 73, 0
2, 118920, Note_on_c, 0, 69, 55
2, 119040, Note_on_c, 0, 69, 0
2, 119040, Note_on_c, 0, 78, 0
2, 119040, Note_on_c, 0, 78, 55
2, 119040, Note_on_c, 0, 81, 66
2, 119160, Note_on_c, 0, 78, 0
2, 119160, Note_on_c, 0, 73, 55
2, 119280, Note_on_c, 0, 73, 0
2, 119280, Note_on_c, 0, 81, 0
2, 119280, Note_on_c, 0, 81, 55
2, 119280, Note_on_c, 0, 85, 67
2, 119400, Note_on_c, 0, 81, 0
2, 119400, Note_on_c, 0, 78, 55
2, 119520, Note_on_c, 0, 78, 0
2, 119520, Note_on_c, 0, 85, 0
2, 119520, Note_on_c, 0, 81, 76
2, 119640, Note_on_c, 0, 73, 58
2, 119760, Note_on_c, 0, 73, 0
2, 119760, Note_on_c, 0, 74, 58
2, 119880, Note_on_c, 0, 74, 0
2, 119880, Note_on_c, 0, 81, 0
2, 119880, Note_on_c, 0, 81, 58
2, 120000, Note_on_c, 0, 81, 0
2, 120000, Note_on_c, 0, 80, 75
2, 120120, Note_on_c, 0, 71, 56
2, 120240, Note_on_c, 0, 71, 0
2, 120240, Note_on_c, 0, 74, 56
2, 120360, Note_on_c, 0, 74, 0
2, 120360, Note_on_c, 0, 80, 0
2, 120360, Note_on_c, 0, 80, 56
2, 120480, Note_on_c, 0, 80, 0
2, 120480, Note_on_c, 0, 78, 72
2, 120600, Note_on_c, 0, 71, 55
2, 120720, Note_on_c, 0, 71, 0
2, 120720, Note_on_c, 0, 74, 55
2, 120840, Note_on_c, 0, 74, 0
2, 120840, Note_on_c, 0, 78, 0
2, 120840, Note_on_c, 0, 78, 55
2, 120960, Note_on_c, 0, 78, 0
2, 120960, Note_on_c, 0, 76, 71
2, 121080, Note_on_c, 0, 69, 52
2, 121200, Note_on_c, 0, 69, 0
2, 121200, Note_on_c, 0, 73, 52
2, 121320, Note_on_c, 0, 73, 0
2, 121320, Note_on_c, 0, 76, 0
2, 121320, Note_on_c, 0, 76, 52
2, 121440, Note_on_c, 0, 73, 52
2, 121560, Note_on_c, 0, 73, 0
2, 121560, Note_on_c, 0, 69, 52
2, 121680, Note_on_c, 0, 69, 0
2, 121680, Note_on_c, 0, 76, 0
2, 121680, Note_on_c, 0, 73, 61
2, 121680, Note_on_c, 0, 78, 61
2, 121800, Note_on_c, 0, 73, 0
2, 121800, Note_on_c, 0, 69, 53
2, 121920, Note_on_c, 0, 69, 0
2, 121920, Note_on_c, 0, 78, 0
2, 121920, Note_on_c, 0, 78, 62
2, 121920, Note_on_c, 0, 81, 62
2, 122040, Note_on_c, 0, 78, 0
2, 122040, Note_on_c, 0, 73, 54
2, 122160, Note_on_c, 0, 73, 0
2, 122160, Note_on_c, 0, 81, 0
2, 122160, Note_on_c, 0, 81, 64
2, 122160, Note_on_c, 0, 85, 64
2, 122280, Note_on_c, 0, 81, 0
2, 122280, Note_on_c, 0, 78, 54
2, 122380, Note_on_c, 0, 78, 0
2, 122380, Note_on_c, 0, 85, 0
2, 122400, Note_on_c, 0, 64, 44
2, 122400, Note_on_c, 0, 73, 53
2, 122400, Note_on_c, 0, 76, 53
2, 122520, Note_on_c, 0, 64, 0
2, 122520, Note_on_c, 0, 66, 44
2, 122640, Note_on_c, 0, 66, 0
2, 122640, Note_on_c, 0, 76, 0
2, 122640, Note_on_c, 0, 73, 0
2, 122640, Note_on_c, 0, 69, 44
2, 122640, Note_on_c, 0, 73, 52
2, 122760, Note_on_c, 0, 69, 0
2, 122760, Note_on_c, 0, 66, 44
2, 122860, Note_on_c, 0, 73, 0
2, 122870, Note_on_c, 0, 66, 0
2, 122880, Note_on_c, 0, 69, 44
2, 122880, Note_on_c, 0, 73, 52
2, 123000, Note_on_c, 0, 69, 0
2, 123000, Note_on_c, 0, 66, 44
2, 123120, Note_on_c, 0, 66, 0
2, 123120, Note_on_c, 0, 69, 46
2, 123240, Note_on_c, 0, 69, 0
2, 123240, Note_on_c, 0, 66, 44
2, 123340, Note_on_c, 0, 73, 0
2, 123350, Note_on_c, 0, 66, 0
2, 123360, Note_on_c, 0, 66, 44
2, 123360, Note_on_c, 0, 69, 53
2, 123480, Note_on_c, 0, 66, 0
2, 123480, Note_on_c, 0, 62, 44
2, 123600, Note_on_c, 0, 62, 0
2, 123600, Note_on_c, 0, 69, 0
2, 123600, Note_on_c, 0, 69, 44
2, 123600, Note_on_c, 0, 73, 53
2, 123720, Note_on_c, 0, 69, 0
2, 123720, Note_on_c, 0, 62, 44
2, 123840, Note_on_c, 0, 62, 0
2, 123840, Note_on_c, 0, 73, 0
2, 123840, Note_on_c, 0, 68, 44
2, 123840, Note_on_c, 0, 71, 56
2, 123960, Note_on_c, 0, 68, 0
2, 123960, Note_on_c, 0, 62, 44
2, 124080, Note_on_c, 0, 62, 0
2, 124080, Note_on_c, 0, 71, 0
2, 124080, Note_on_c, 0, 68, 44
2, 124080, Note_on_c, 0, 71, 51
2, 124200, Note_on_c, 0, 71, 0
2, 124200, Note_on_c, 0, 68, 0
2, 124200, Note_on_c, 0, 65, 39
2, 124200, Note_on_c, 0, 69, 48
2, 124320, Note_on_c, 0, 69, 0
2, 124320, Note_on_c, 0, 65, 0
2, 124320, Note_on_c, 0, 68, 44
2, 124320, Note_on_c, 0, 71, 51
2, 124440, Note_on_c, 0, 68, 0
2, 124440, Note_on_c, 0, 62, 44
2, 124560, Note_on_c, 0, 62, 0
2, 124560, Note_on_c, 0, 68, 44
2, 124680, Note_on_c, 0, 68, 0
2, 124680, Note_on_c, 0, 62, 44
2, 124800, Note_on_c, 0, 62, 0
2, 124800, Note_on_c, 0, 71, 0
2, 124800, Note_on_c, 0, 68, 52
2, 124920, Note_on_c, 0, 62, 44
2, 125040, Note_on_c, 0, 62, 0
2, 125040, Note_on_c, 0, 68, 0
2, 125040, Note_on_c, 0, 71, 52
2, 125040, Note_on_c, 0, 68, 48
2, 125160, Note_on_c, 0, 68, 0
2, 125160, Note_on_c, 0, 62, 44
2, 125280, Note_on_c, 0, 62, 0
2, 125280, Note_on_c, 0, 71, 0
2, 125280, Note_on_c, 0, 64, 45
2, 125280, Note_on_c, 0, 73, 54
2, 125280, Note_on_c, 0, 76, 54
2, 125400, Note_on_c, 0, 64, 0
2, 125400, Note_on_c, 0, 66, 45
2, 125520, Note_on_c, 0, 66, 0
2, 125520, Note_on_c, 0, 76, 0
2, 125520, Note_on_c, 0, 73, 0
2, 125520, Note_on_c, 0, 69, 44
2, 125520, Note_on_c, 0, 73, 52
2, 125640, Note_on_c, 0, 69, 0
2, 125640, Note_on_c, 0, 66, 44
2, 125740, Note_on_c, 0, 73, 0
2, 125750, Note_on_c, 0, 66, 0
2, 125760, Note_on_c, 0, 69, 44
2, 125760, Note_on_c, 0, 73, 52
2, 125880, Note_on_c, 0, 69, 0
2, 125880, Note_on_c, 0, 66, 44
2, 126000, Note_on_c, 0, 66, 0
2, 126000, Note_on_c, 0, 69, 46
2, 126120, Note_on_c, 0, 69, 0
2, 126120, Note_on_c, 0, 66, 44
2, 126220, Note_on_c, 0, 73, 0
2, 126230, Note_on_c, 0, 66, 0
2, 126240, Note_on_c, 0, 69, 53
2, 126240, Note_on_c, 0, 66, 44
2, 126360, Note_on_c, 0, 66, 0
2, 126360, Note_on_c, 0, 62, 44
2, 126480, Note_on_c, 0, 62, 0
2, 126480, Note_on_c, 0, 69, 0
2, 126480, Note_on_c, 0, 69, 44
2, 126480, Note_on_c, 0, 73, 53
2, 126600, Note_on_c, 0, 69, 0
2, 126600, Note_on_c, 0, 62, 44
2, 126720, Note_on_c, 0, 62, 0
2, 126720, Note_on_c, 0, 73, 0
2, 126720, Note_on_c, 0, 71, 44
2, 126720, Note_on_c, 0, 74, 56
2, 126840, Note_on_c, 0, 71, 0
2, 126840, Note_on_c, 0, 66, 44
2, 126960, Note_on_c, 0, 66, 0
2, 126960, Note_on_c, 0, 71, 47
2, 127080, Note_on_c, 0, 71, 0
2, 127080, Note_on_c, 0, 66, 43
2, 127200, Note_on_c, 0, 66, 0
2, 127200, Note_on_c, 0, 71, 46
2, 127320, Note_on_c, 0, 71, 0
2, 127320, Note_on_c, 0, 66, 43
2, 127440, Note_on_c, 0, 66, 0
2, 127440, Note_on_c, 0, 71, 46
2, 127560, Note_on_c, 0, 71, 0
2, 127560, Note_on_c, 0, 66, 43
2, 127680, Note_on_c, 0, 66, 0
2, 127680, Note_on_c, 0, 74, 0
2, 127680, Note_on_c, 0, 66, 56
2, 127680, Note_on_c, 0, 71, 56
2, 127800, Note_on_c, 0, 66, 0
2, 127800, Note_on_c, 0, 62, 47
2, 127920, Note_on_c, 0, 62, 0
2, 127920, Note_on_c, 0, 71, 0
2, 127920, Note_on_c, 0, 71, 59
2, 127920, Note_on_c, 0, 74, 59
2, 128040, Note_on_c, 0, 71, 0
2, 128040, Note_on_c, 0, 66, 51
2, 128140, Note_on_c, 0, 66, 0
2, 128140, Note_on_c, 0, 74, 0
2, 128160, Note_on_c, 0, 74, 48
2, 128160, Note_on_c, 0, 78, 60
2, 128280, Note_on_c, 0, 74, 0
2, 128280, Note_on_c, 0, 71, 47
2, 128400, Note_on_c, 0, 71, 0
2, 128400, Note_on_c, 0, 78, 0
2, 128400, Note_on_c, 0, 66, 45
2, 128400, Note_on_c, 0, 74, 56
2, 128520, Note_on_c, 0, 66, 0
2, 128520, Note_on_c, 0, 71, 47
2, 128620, Note_on_c, 0, 74, 0
2, 128630, Note_on_c, 0, 71, 0
2, 128640, Note_on_c, 0, 74, 56
2, 128760, Note_on_c, 0, 71, 47
2, 128880, Note_on_c, 0, 71, 0
2, 128880, Note_on_c, 0, 66, 50
2, 129000, Note_on_c, 0, 66, 0
2, 129000, Note_on_c, 0, 71, 47
2, 129100, Note_on_c, 0, 74, 0
2, 129110, Note_on_c, 0, 71, 0
2, 129120, Note_on_c, 0, 73, 56
2, 129120, Note_on_c, 0, 76, 56
2, 129240, Note_on_c, 0, 73, 0
2, 129240, Note_on_c, 0, 71, 47
2, 129360, Note_on_c, 0, 71, 0
2, 129360, Note_on_c, 0, 76, 0
2, 129360, Note_on_c, 0, 74, 57
2, 129360, Note_on_c, 0, 78, 57
2, 129480, Note_on_c, 0, 74, 0
2, 129480, Note_on_c, 0, 71, 47
2, 129600, Note_on_c, 0, 71, 0
2, 129600, Note_on_c, 0, 78, 0
2, 129600, Note_on_c, 0, 77, 61
2, 129600, Note_on_c, 0, 80, 61
2, 129720, Note_on_c, 0, 77, 0
2, 129720, Note_on_c, 0, 71, 57
2, 129840, Note_on_c, 0, 80, 0
2, 129840, Note_on_c, 0, 77, 57
2, 129840, Note_on_c, 0, 80, 57
2, 129960, Note_on_c, 0, 80, 0
2, 129960, Note_on_c, 0, 77, 0
2, 129960, Note_on_c, 0, 75, 57
2, 129960, Note_on_c, 0, 78, 57
2, 130080, Note_on_c, 0, 78, 0
2, 130080, Note_on_c, 0, 75, 0
2, 130080, Note_on_c, 0, 71, 0
2, 130080, Note_on_c, 0, 77, 55
2, 130080, Note_on_c, 0, 80, 60
2, 130200, Note_on_c, 0, 77, 0
2, 130200, Note_on_c, 0, 71, 50
2, 130300, Note_on_c, 0, 71, 0
2, 130300, Note_on_c, 0, 80, 0
2, 130320, Note_on_c, 0, 73, 55
2, 130320, Note_on_c, 0, 77, 61
2, 130440, Note_on_c, 0, 73, 0
2, 130440, Note_on_c, 0, 71, 50
2, 130560, Note_on_c, 0, 71, 0
2, 130560, Note_on_c, 0, 77, 0
2, 130560, Note_on_c, 0, 75, 58
2, 130560, Note_on_c, 0, 78, 65
2, 130680, Note_on_c, 0, 75, 0
2, 130680, Note_on_c, 0, 71, 50
2, 130800, Note_on_c, 0, 71, 0
2, 130800, Note_on_c, 0, 78, 0
2, 130800, Note_on_c, 0, 77, 58
2, 130800, Note_on_c, 0, 80, 69
2, 130920, Note_on_c, 0, 77, 0
2, 130920, Note_on_c, 0, 71, 50
2, 131040, Note_on_c, 0, 71, 0
2, 131040, Note_on_c, 0, 80, 0
2, 131040, Note_on_c, 0, 78, 59
2, 131040, Note_on_c, 0, 81, 74
2, 131160, Note_on_c, 0, 78, 0
2, 131160, Note_on_c, 0, 73, 51
2, 131280, Note_on_c, 0, 73, 0
2, 131280, Note_on_c, 0, 81, 0
2, 131280, Note_on_c, 0, 73, 50
2, 131280, Note_on_c, 0, 78, 73
2, 131400, Note_on_c, 0, 73, 0
2, 131400, Note_on_c, 0, 69, 51
2, 131500, Note_on_c, 0, 78, 0
2, 131510, Note_on_c, 0, 69, 0
2, 131520, Note_on_c, 0, 73, 56
2, 131520, Note_on_c, 0, 78, 73
2, 131640, Note_on_c, 0, 73, 0
2, 131640, Note_on_c, 0, 69, 51
2, 131760, Note_on_c, 0, 69, 0
2, 131760, Note_on_c, 0, 73, 56
2, 131880, Note_on_c, 0, 73, 0
2, 131880, Note_on_c, 0, 69, 51
2, 131980, Note_on_c, 0, 78, 0
2, 131990, Note_on_c, 0, 69, 0
2, 132000, Note_on_c, 0, 78, 78
2, 132000, Note_on_c, 0, 81, 78
2, 132120, Note_on_c, 0, 78, 0
2, 132120, Note_on_c, 0, 73, 65
2, 132240, Note_on_c, 0, 73, 0
2, 132240, Note_on_c, 0, 81, 0
2, 132240, Note_on_c, 0, 81, 79
2, 132240, Note_on_c, 0, 85, 79
2, 132360, Note_on_c, 0, 81, 0
2, 132360, Note_on_c, 0, 78, 65
2, 132480, Note_on_c, 0, 78, 0
2, 132480, Note_on_c, 0, 85, 0
2, 132480, Note_on_c, 0, 86, 89
2, 132480, Note_on_c, 0, 78, 63
2, 132480, Note_on_c, 0, 81, 63
2, 132600, Note_on_c, 0, 81, 0
2, 132600, Note_on_c, 0, 78, 0
2, 132600, Note_on_c, 0, 74, 45
2, 132720, Note_on_c, 0, 74, 0
2, 132720, Note_on_c, 0, 78, 45
2, 132720, Note_on_c, 0, 81, 45
2, 132840, Note_on_c, 0, 81, 0
2, 132840, Note_on_c, 0, 78, 0
2, 132840, Note_on_c, 0, 74, 46
2, 132960, Note_on_c, 0, 74, 0
2, 132960, Note_on_c, 0, 78, 47
2, 132960, Note_on_c, 0, 81, 47
2, 133080, Note_on_c, 0, 81, 0
2, 133080, Note_on_c, 0, 78, 0
2, 133080, Note_on_c, 0, 74, 48
2, 133200, Note_on_c, 0, 74, 0
2, 133200, Note_on_c, 0, 81, 48
2, 133200, Note_on_c, 0, 78, 48
2, 133320, Note_on_c, 0, 78, 0
2, 133320, Note_on_c, 0, 81, 0
2, 133320, Note_on_c, 0, 74, 48
2, 133440, Note_on_c, 0, 74, 0
2, 133440, Note_on_c, 0, 81, 49
2, 133440, Note_on_c, 0, 78, 49
2, 133560, Note_on_c, 0, 78, 0
2, 133560, Note_on_c, 0, 81, 0
2, 133560, Note_on_c, 0, 74, 50
2, 133680, Note_on_c, 0, 74, 0
2, 133680, Note_on_c, 0, 78, 50
2, 133680, Note_on_c, 0, 81, 50
2, 133800, Note_on_c, 0, 81, 0
2, 133800, Note_on_c, 0, 78, 0
2, 133800, Note_on_c, 0, 74, 51
2, 133920, Note_on_c, 0, 74, 0
2, 133920, Note_on_c, 0, 78, 46
2, 133920, Note_on_c, 0, 81, 46
2, 134040, Note_on_c, 0, 81, 0
2, 134040, Note_on_c, 0, 78, 0
2, 134040, Note_on_c, 0, 74, 43
2, 134160, Note_on_c, 0, 74, 0
2, 134160, Note_on_c, 0, 78, 48
2, 134160, Note_on_c, 0, 81, 48
2, 134280, Note_on_c, 0, 81, 0
2, 134280, Note_on_c, 0, 78, 0
2, 134280, Note_on_c, 0, 74, 43
2, 134400, Note_on_c, 0, 74, 0
2, 134400, Note_on_c, 0, 86, 0
2, 134400, Note_on_c, 0, 81, 41
2, 134400, Note_on_c, 0, 86, 41
2, 134400, Note_on_c, 0, 88, 59
2, 134520, Note_on_c, 0, 86, 0
2, 134520, Note_on_c, 0, 81, 0
2, 134520, Note_on_c, 0, 76, 37
2, 134640, Note_on_c, 0, 76, 0
2, 134640, Note_on_c, 0, 81, 43
2, 134640, Note_on_c, 0, 86, 43
2, 134760, Note_on_c, 0, 86, 0
2, 134760, Note_on_c, 0, 81, 0
2, 134760, Note_on_c, 0, 76, 40
2, 134880, Note_on_c, 0, 76, 0
2, 134880, Note_on_c, 0, 88, 0
2, 134880, Note_on_c, 0, 81, 45
2, 134880, Note_on_c, 0, 86, 45
2, 134880, Note_on_c, 0, 90, 67
2, 135000, Note_on_c, 0, 86, 0
2, 135000, Note_on_c, 0, 81, 0
2, 135000, Note_on_c, 0, 78, 42
2, 135120, Note_on_c, 0, 78, 0
2, 135120, Note_on_c, 0, 86, 48
2, 135120, Note_on_c, 0, 81, 48
2, 135240, Note_on_c, 0, 81, 0
2, 135240, Note_on_c, 0, 86, 0
2, 135240, Note_on_c, 0, 78, 44
2, 135360, Note_on_c, 0, 78, 0
2, 135360, Note_on_c, 0, 90, 0
2, 135360, Note_on_c, 0, 81, 42
2, 135360, Note_on_c, 0, 86, 42
2, 135360, Note_on_c, 0, 90, 69
2, 135480, Note_on_c, 0, 86, 0
2, 135480, Note_on_c, 0, 81, 0
2, 135480, Note_on_c, 0, 78, 38
2, 135600, Note_on_c, 0, 78, 0
2, 135600, Note_on_c, 0, 81, 42
2, 135600, Note_on_c, 0, 86, 42
2, 135720, Note_on_c, 0, 86, 0
2, 135720, Note_on_c, 0, 81, 0
2, 135720, Note_on_c, 0, 78, 37
2, 135840, Note_on_c, 0, 78, 0
2, 135840, Note_on_c, 0, 81, 39
2, 135840, Note_on_c, 0, 86, 39
2, 135960, Note_on_c, 0, 86, 0
2, 135960, Note_on_c, 0, 81, 0
2, 135960, Note_on_c, 0, 78, 36
2, 136080, Note_on_c, 0, 78, 0
2, 136080, Note_on_c, 0, 81, 38
2, 136080, Note_on_c, 0, 86, 38
2, 136200, Note_on_c, 0, 86, 0
2, 136200, Note_on_c, 0, 81, 0
2, 136200, Note_on_c, 0, 78, 34
2, 136320, Note_on_c, 0, 78, 0
2, 136320, Note_on_c, 0, 81, 36
2, 136320, Note_on_c, 0, 86, 36
2, 136440, Note_on_c, 0, 86, 0
2, 136440, Note_on_c, 0, 81, 0
2, 136440, Note_on_c, 0, 78, 32
2, 136560, Note_on_c, 0, 78, 0
2, 136560, Note_on_c, 0, 81, 34
2, 136560, Note_on_c, 0, 86, 34
2, 136680, Note_on_c, 0, 86, 0
2, 136680, Note_on_c, 0, 81, 0
2, 136680, Note_on_c, 0, 78, 31
2, 136800, Note_on_c, 0, 78, 0
2, 136800, Note_on_c, 0, 86, 35
2, 136800, Note_on_c, 0, 81, 35
2, 136920, Note_on_c, 0, 81, 0
2, 136920, Note_on_c, 0, 86, 0
2, 136920, Note_on_c, 0, 78, 34
2, 137040, Note_on_c, 0, 78, 0
2, 137040, Note_on_c, 0, 86, 33
2, 137040, Note_on_c, 0, 81, 33
2, 137160, Note_on_c, 0, 81, 0
2, 137160, Note_on_c, 0, 86, 0
2, 137160, Note_on_c, 0, 78, 34
2, 137280, Note_on_c, 0, 78, 0
2, 137280, Note_on_c, 0, 90, 0
2, 137280, Note_on_c, 0, 86, 49
2, 137280, Note_on_c, 0, 78, 33
2, 137280, Note_on_c, 0, 81, 33
2, 137400, Note_on_c, 0, 81, 0
2, 137400, Note_on_c, 0, 78, 0
2, 137400, Note_on_c, 0, 74, 30
2, 137520, Note_on_c, 0, 74, 0
2, 137520, Note_on_c, 0, 78, 28
2, 137520, Note_on_c, 0, 81, 28
2, 137640, Note_on_c, 0, 81, 0
2, 137640, Note_on_c, 0, 78, 0
2, 137640, Note_on_c, 0, 74, 30
2, 137760, Note_on_c, 0, 74, 0
2, 137760, Note_on_c, 0, 86, 0
2, 137760, Note_on_c, 0, 90, 52
2, 137760, Note_on_c, 0, 83, 33
2, 137760, Note_on_c, 0, 86, 33
2, 137880, Note_on_c, 0, 86, 0
2, 137880, Note_on_c, 0, 83, 0
2, 137880, Note_on_c, 0, 78, 30
2, 138000, Note_on_c, 0, 78, 0
2, 138000, Note_on_c, 0, 83, 28
2, 138000, Note_on_c, 0, 86, 28
2, 138120, Note_on_c, 0, 86, 0
2, 138120, Note_on_c, 0, 83, 0
2, 138120, Note_on_c, 0, 78, 30
2, 138240, Note_on_c, 0, 78, 0
2, 138240, Note_on_c, 0, 90, 0
2, 138240, Note_on_c, 0, 93, 41
2, 138240, Note_on_c, 0, 88, 41
2, 138240, Note_on_c, 0, 81, 41
2, 138330, Note_on_c, 0, 81, 0
2, 138330, Note_on_c, 0, 88, 0
2, 138330, Note_on_c, 0, 93, 0
2, 138480, Note_on_c, 0, 64, 33
2, 138480, Note_on_c, 0, 69, 33
2, 138600, Note_on_c, 0, 69, 0
2, 138600, Note_on_c, 0, 64, 0
2, 138600, Note_on_c, 0, 62, 33
2, 138720, Note_on_c, 0, 62, 0
2, 138720, Note_on_c, 0, 69, 37
2, 138720, Note_on_c, 0, 64, 37
2, 138750, Note_on_c, 0, 64, 0
2, 138750, Note_on_c, 0, 69, 0
2, 138960, Note_on_c, 0, 64, 33
2, 138960, Note_on_c, 0, 69, 33
2, 139020, Note_on_c, 0, 69, 0
2, 139020, Note_on_c, 0, 64, 0
2, 139440, Note_on_c, 0, 83, 34
2, 139440, Note_on_c, 0, 79, 34
2, 139440, Note_on_c, 0, 71, 34
2, 139500, Note_on_c, 0, 71, 0
2, 139500, Note_on_c, 0, 79, 0
2, 139500, Note_on_c, 0, 83, 0
2, 139680, Note_on_c, 0, 84, 41
2, 139680, Note_on_c, 0, 79, 41
2, 139680, Note_on_c, 0, 72, 41
2, 139740, Note_on_c, 0, 72, 0
2, 139740, Note_on_c, 0, 79, 0
2, 139740, Note_on_c, 0, 84, 0
2, 139920, Note_on_c, 0, 67, 33
2, 139920, Note_on_c, 0, 72, 33
2, 140040, Note_on_c, 0, 72, 0
2, 140040, Note_on_c, 0, 67, 0
2, 140040, Note_on_c, 0, 65, 33
2, 140160, Note_on_c, 0, 65, 0
2, 140160, Note_on_c, 0, 67, 36
2, 140160, Note_on_c, 0, 72, 36
2, 140190, Note_on_c, 0, 72, 0
2, 140190, Note_on_c, 0, 67, 0
2, 140400, Note_on_c, 0, 67, 33
2, 140400, Note_on_c, 0, 72, 33
2, 140460, Note_on_c, 0, 72, 0
2, 140460, Note_on_c, 0, 67, 0
2, 140880, Note_on_c, 0, 83, 34
2, 140880, Note_on_c, 0, 79, 34
2, 140880, Note_on_c, 0, 71, 34
2, 140940, Note_on_c, 0, 71, 0
2, 140940, Note_on_c, 0, 79, 0
2, 140940, Note_on_c, 0, 83, 0
2, 141120, Note_on_c, 0, 81, 40
2, 141120, Note_on_c, 0, 76, 40
2, 141120, Note_on_c, 0, 69, 40
2, 141180, Note_on_c, 0, 69, 0
2, 141180, Note_on_c, 0, 76, 0
2, 141180, Note_on_c, 0, 81, 0
2, 141360, Note_on_c, 0, 64, 33
2, 141360, Note_on_c, 0, 69, 33
2, 141480, Note_on_c, 0, 69, 0
2, 141480, Note_on_c, 0, 64, 0
2, 141480, Note_on_c, 0, 64, 33
2, 141600, Note_on_c, 0, 64, 0
2, 141600, Note_on_c, 0, 64, 36
2, 141600, Note_on_c, 0, 69, 36
2, 141630, Note_on_c, 0, 69, 0
2, 141630, Note_on_c, 0, 64, 0
2, 141840, Note_on_c, 0, 64, 32
2, 141840, Note_on_c, 0, 69, 32
2, 141900, Note_on_c, 0, 69, 0
2, 141900, Note_on_c, 0, 64, 0
2, 142320, Note_on_c, 0, 83, 37
2, 142320, Note_on_c, 0, 79, 37
2, 142320, Note_on_c, 0, 71, 37
2, 142380, Note_on_c, 0, 71, 0
2, 142380, Note_on_c, 0, 79, 0
2, 142380, Note_on_c, 0, 83, 0
2, 142560, Note_on_c, 0, 84, 41
2, 142560, Note_on_c, 0, 79, 41
2, 142560, Note_on_c, 0, 72, 41
2, 142620, Note_on_c, 0, 72, 0
2, 142620, Note_on_c, 0, 79, 0
2, 142620, Note_on_c, 0, 84, 0
2, 142800, Note_on_c, 0, 67, 32
2, 142800, Note_on_c, 0, 72, 32
2, 142920, Note_on_c, 0, 72, 0
2, 142920, Note_on_c, 0, 67, 0
2, 142920, Note_on_c, 0, 65, 32
2, 143040, Note_on_c, 0, 65, 0
2, 143040, Note_on_c, 0, 67, 35
2, 143040, Note_on_c, 0, 72, 35
2, 143070, Note_on_c, 0, 72, 0
2, 143070, Note_on_c, 0, 67, 0
2, 143280, Note_on_c, 0, 67, 32
2, 143280, Note_on_c, 0, 72, 32
2, 143340, Note_on_c, 0, 72, 0
2, 143340, Note_on_c, 0, 67, 0
2, 143760, Note_on_c, 0, 83, 33
2, 143760, Note_on_c, 0, 79, 33
2, 143760, Note_on_c, 0, 71, 33
2, 143820, Note_on_c, 0, 71, 0
2, 143820, Note_on_c, 0, 79, 0
2, 143820, Note_on_c, 0, 83, 0
2, 144000, Note_on_c, 0, 71, 35
2, 144000, Note_on_c, 0, 79, 35
2, 144000, Note_on_c, 0, 83, 35
2, 144060, Note_on_c, 0, 83, 0
2, 144060, Note_on_c, 0, 79, 0
2, 144060, Note_on_c, 0, 71, 0
2, 145440, Note_on_c, 0, 64, 51
2, 145960, Note_on_c, 0, 64, 0
2, 145960, Note_on_c, 0, 65, 33
2, 146000, Note_on_c, 0, 65, 0
2, 146000, Note_on_c, 0, 67, 33
2, 146040, Note_on_c, 0, 67, 0
2, 146040, Note_on_c, 0, 69, 33
2, 146080, Note_on_c, 0, 69, 0
2, 146080, Note_on_c, 0, 71, 33
2, 146120, Note_on_c, 0, 71, 0
2, 146120, Note_on_c, 0, 72, 33
2, 146160, Note_on_c, 0, 72, 0
2, 146160, Note_on_c, 0, 74, 33
2, 146200, Note_on_c, 0, 74, 0
2, 146200, Note_on_c, 0, 76, 33
2, 146240, Note_on_c, 0, 76, 0
2, 146240, Note_on_c, 0, 77, 33
2, 146280, Note_on_c, 0, 77, 0
2, 146280, Note_on_c, 0, 79, 33
2, 146320, Note_on_c, 0, 79, 0
2, 146320, Note_on_c, 0, 81, 33
2, 146360, Note_on_c, 0, 81, 0
2, 146360, Note_on_c, 0, 83, 33
2, 146400, Note_on_c, 0, 83, 0
2, 146400, Note_on_c, 0, 84, 33
2, 146440, Note_on_c, 0, 84, 0
2, 146440, Note_on_c, 0, 86, 33
2, 146480, Note_on_c, 0, 86, 0
2, 146480, Note_on_c, 0, 88, 33
2, 146520, Note_on_c, 0, 88, 0
2, 146520, Note_on_c, 0, 89, 33
2, 146560, Note_on_c, 0, 89, 0
2, 146560, Note_on_c, 0, 91, 33
2, 146600, Note_on_c, 0, 91, 0
2, 146600, Note_on_c, 0, 93, 33
2, 146640, Note_on_c, 0, 93, 0
2, 146640, Note_on_c, 0, 95, 33
2, 146680, Note_on_c, 0, 95, 0
2, 146680, Note_on_c, 0, 96, 33
2, 146720, Note_on_c, 0, 96, 0
2, 146720, Note_on_c, 0, 98, 33
2, 146760, Note_on_c, 0, 98, 0
2, 146760, Note_on_c, 0, 100, 33
2, 146800, Note_on_c, 0, 100, 0
2, 146800, Note_on_c, 0, 101, 33
2, 146840, Note_on_c, 0, 101, 0
2, 146840, Note_on_c, 0, 103, 33
2, 146880, Note_on_c, 0, 103, 0
2, 146880, Note_on_c, 0, 105, 38
2, 147120, Note_on_c, 0, 105, 0
2, 148320, Note_on_c, 0, 57, 27
2, 148440, Note_on_c, 0, 57, 0
2, 148440, End_track
3, 0, Start_track
3, 0, Title_t, "Piano left"
3, 0, Program_c, 0, 0
3, 0, Control_c, 0, 7, 100
3, 0, Control_c, 0, 10, 64
3, 0, Control_c, 0, 91, 127
3, 0, Note_on_c, 0, 50, 48
3, 0, Note_on_c, 0, 57, 48
3, 30, Note_on_c, 0, 57, 0
3, 30, Note_on_c, 0, 50, 0
3, 240, Note_on_c, 0, 60, 48
3, 240, Note_on_c, 0, 53, 48
3, 270, Note_on_c, 0, 53, 0
3, 270, Note_on_c, 0, 60, 0
3, 480, Note_on_c, 0, 50, 48
3, 600, Note_on_c, 0, 50, 0
3, 960, Note_on_c, 0, 50, 48
3, 1005, Note_on_c, 0, 50, 0
3, 1440, Note_on_c, 0, 45, 48
3, 1680, Note_on_c, 0, 45, 0
3, 1920, Note_on_c, 0, 38, 45
3, 2160, Note_on_c, 0, 38, 0
3, 2400, Note_on_c, 0, 45, 48
3, 2640, Note_on_c, 0, 45, 0
3, 2880, Control_c, 0, 91, 127
3, 2880, Note_on_c, 0, 40, 48
3, 3120, Note_on_c, 0, 40, 0
3, 3360, Note_on_c, 0, 52, 48
3, 3600, Note_on_c, 0, 52, 0
3, 3600, Note_on_c, 0, 57, 51
3, 3840, Note_on_c, 0, 57, 0
3, 3840, Note_on_c, 0, 40, 48
3, 3960, Note_on_c, 0, 40, 0
3, 4320, Note_on_c, 0, 59, 54
3, 4320, Note_on_c, 0, 52, 54
3, 4680, Note_on_c, 0, 59, 0
3, 4680, Note_on_c, 0, 60, 54
3, 4800, Note_on_c, 0, 60, 0
3, 4800, Note_on_c, 0, 59, 51
3, 5160, Note_on_c, 0, 59, 0
3, 5160, Note_on_c, 0, 60, 48
3, 5280, Note_on_c, 0, 60, 0
3, 5280, Note_on_c, 0, 62, 51
3, 5640, Note_on_c, 0, 62, 0
3, 5640, Note_on_c, 0, 64, 48
3, 5760, Note_on_c, 0, 64, 0
3, 5760, Note_on_c, 0, 52, 0
3, 5760, Note_on_c, 0, 69, 42
3, 5760, Note_on_c, 0, 60, 42
3, 5760, Note_on_c, 0, 53, 42
3, 6240, Note_on_c, 0, 53, 0
3, 6240, Note_on_c, 0, 60, 0
3, 6240, Note_on_c, 0, 69, 0
3, 6240, Note_on_c, 0, 65, 34
3, 6240, Note_on_c, 0, 62, 34
3, 6240, Note_on_c, 0, 55, 34
3, 6720, Note_on_c, 0, 55, 0
3, 6720, Note_on_c, 0, 62, 0
3, 6720, Note_on_c, 0, 65, 0
3, 6720, Note_on_c, 0, 48, 38
3, 6720, Note_on_c, 0, 55, 38
3, 6720, Note_on_c, 0, 64, 38
3, 7200, Note_on_c, 0, 64, 0
3, 7200, Note_on_c, 0, 55, 0
3, 7200, Note_on_c, 0, 48, 0
3, 7200, Note_on_c, 0, 53, 36
3, 7200, Note_on_c, 0, 57, 36
3, 7200, Note_on_c, 0, 60, 36
3, 7440, Note_on_c, 0, 60, 0
3, 7440, Note_on_c, 0, 57, 0
3, 7440, Note_on_c, 0, 53, 0
3, 7440, Note_on_c, 0, 50, 34
3, 7440, Note_on_c, 0, 57, 34
3, 7440, Note_on_c, 0, 62, 34
3, 7660, Note_on_c, 0, 62, 0
3, 7660, Note_on_c, 0, 57, 0
3, 7660, Note_on_c, 0, 50, 0
3, 7680, Note_on_c, 0, 41, 48
3, 7680, Note_on_c, 0, 57, 48
3, 7680, Note_on_c, 0, 48, 48
3, 8160, Note_on_c, 0, 48, 0
3, 8160, Note_on_c, 0, 57, 0
3, 8160, Note_on_c, 0, 41, 0
3, 8160, Note_on_c, 0, 43, 39
3, 8160, Note_on_c, 0, 58, 39
3, 8160, Note_on_c, 0, 50, 39
3, 8640, Note_on_c, 0, 50, 0
3, 8640, Note_on_c, 0, 58, 0
3, 8640, Note_on_c, 0, 43, 0
3, 8640, Note_on_c, 0, 48, 43
3, 8640, Note_on_c, 0, 55, 43
3, 8640, Note_on_c, 0, 60, 43
3, 9120, Note_on_c, 0, 60, 0
3, 9120, Note_on_c, 0, 55, 0
3, 9120, Note_on_c, 0, 48, 0
3, 9120, Note_on_c, 0, 53, 38
3, 9120, Note_on_c, 0, 60, 38
3, 9480, Note_on_c, 0, 60, 0
3, 9480, Note_on_c, 0, 53, 0
3, 9480, Note_on_c, 0, 52, 43
3, 9600, Note_on_c, 0, 52, 0
3, 9600, Note_on_c, 0, 50, 45
3, 9600, Note_on_c, 0, 53, 45
3, 9960, Note_on_c, 0, 50, 0
3, 9960, Note_on_c, 0, 48, 45
3, 10080, Note_on_c, 0, 48, 0
3, 10080, Note_on_c, 0, 53, 0
3, 10080, Note_on_c, 0, 53, 48
3, 10080, Note_on_c, 0, 47, 48
3, 10440, Note_on_c, 0, 47, 0
3, 10440, Note_on_c, 0, 45, 50
3, 10560, Note_on_c, 0, 45, 0
3, 10560, Note_on_c, 0, 43, 54
3, 10920, Note_on_c, 0, 43, 0
3, 10920, Note_on_c, 0, 45, 57
3, 11040, Note_on_c, 0, 45, 0
3, 11040, Note_on_c, 0, 47, 62
3, 11280, Note_on_c, 0, 53, 0
3, 11280, Note_on_c, 0, 55, 48
3, 11400, Note_on_c, 0, 55, 0
3, 11400, Note_on_c, 0, 52, 48
3, 11520, Note_on_c, 0, 52, 0
3, 11520, Note_on_c, 0, 47, 0
3, 11520, Note_on_c, 0, 47, 52
3, 11520, Note_on_c, 0, 53, 52
3, 11880, Note_on_c, 0, 47, 0
3, 11880, Note_on_c, 0, 45, 49
3, 12000, Note_on_c, 0, 45, 0
3, 12000, Note_on_c, 0, 43, 54
3, 12360, Note_on_c, 0, 43, 0
3, 12360, Note_on_c, 0, 45, 55
3, 12480, Note_on_c, 0, 45, 0
3, 12480, Note_on_c, 0, 47, 61
3, 12840, Note_on_c, 0, 53, 0
3, 12840, Note_on_c, 0, 55, 52
3, 12960, Note_on_c, 0, 55, 0
3, 12960, Note_on_c, 0, 47, 0
3, 12960, Note_on_c, 0, 56, 45
3, 12960, Note_on_c, 0, 48, 45
3, 13080, Note_on_c, 0, 56, 0
3, 13080, Note_on_c, 0, 54, 43
3, 13200, Note_on_c, 0, 54, 0
3, 13200, Note_on_c, 0, 52, 43
3, 13320, Note_on_c, 0, 52, 0
3, 13320, Note_on_c, 0, 54, 43
3, 13440, Note_on_c, 0, 54, 0
3, 13440, Note_on_c, 0, 56, 46
3, 13560, Note_on_c, 0, 56, 0
3, 14400, Note_on_c, 0, 48, 0
3, 14400, Note_on_c, 0, 47, 44
3, 14400, Note_on_c, 0, 56, 44
3, 14520, Note_on_c, 0, 56, 0
3, 14520, Note_on_c, 0, 54, 40
3, 14640, Note_on_c, 0, 54, 0
3, 14640, Note_on_c, 0, 52, 40
3, 14760, Note_on_c, 0, 52, 0
3, 14760, Note_on_c, 0, 54, 40
3, 14880, Note_on_c, 0, 54, 0
3, 14880, Note_on_c, 0, 56, 44
3, 15000, Note_on_c, 0, 56, 0
3, 15840, Note_on_c, 0, 47, 0
3, 15840, Control_c, 0, 91, 127
3, 15840, Note_on_c, 0, 38, 44
3, 15870, Note_on_c, 0, 38, 0
3, 16080, Note_on_c, 0, 45, 39
3, 16080, Note_on_c, 0, 53, 39
3, 16110, Note_on_c, 0, 53, 0
3, 16110, Note_on_c, 0, 45, 0
3, 16320, Note_on_c, 0, 38, 44
3, 16440, Note_on_c, 0, 38, 0
3, 16560, Note_on_c, 0, 53, 39
3, 16560, Note_on_c, 0, 45, 39
3, 16590, Note_on_c, 0, 45, 0
3, 16590, Note_on_c, 0, 53, 0
3, 16800, Note_on_c, 0, 38, 44
3, 16845, Note_on_c, 0, 38, 0
3, 17040, Note_on_c, 0, 53, 44
3, 17040, Note_on_c, 0, 45, 44
3, 17070, Note_on_c, 0, 45, 0
3, 17070, Note_on_c, 0, 53, 0
3, 17280, Note_on_c, 0, 38, 44
3, 17310, Note_on_c, 0, 38, 0
3, 17520, Note_on_c, 0, 54, 39
3, 17520, Note_on_c, 0, 45, 39
3, 17550, Note_on_c, 0, 45, 0
3, 17550, Note_on_c, 0, 54, 0
3, 17760, Note_on_c, 0, 38, 44
3, 17880, Note_on_c, 0, 38, 0
3, 18000, Note_on_c, 0, 54, 39
3, 18000, Note_on_c, 0, 45, 39
3, 18030, Note_on_c, 0, 45, 0
3, 18030, Note_on_c, 0, 54, 0
3, 18240, Note_on_c, 0, 38, 44
3, 18360, Note_on_c, 0, 38, 0
3, 18480, Note_on_c, 0, 54, 39
3, 18480, Note_on_c, 0, 45, 39
3, 18510, Note_on_c, 0, 45, 0
3, 18510, Note_on_c, 0, 54, 0
3, 18720, Control_c, 0, 91, 127
3, 18720, Note_on_c, 0, 38, 44
3, 18750, Note_on_c, 0, 38, 0
3, 18960, Note_on_c, 0, 45, 39
3, 18960, Note_on_c, 0, 53, 39
3, 18990, Note_on_c, 0, 53, 0
3, 18990, Note_on_c, 0, 45, 0
3, 19200, Note_on_c, 0, 38, 45
3, 19320, Note_on_c, 0, 38, 0
3, 19440, Note_on_c, 0, 53, 42
3, 19440, Note_on_c, 0, 45, 42
3, 19470, Note_on_c, 0, 45, 0
3, 19470, Note_on_c, 0, 53, 0
3, 19680, Note_on_c, 0, 38, 48
3, 19725, Note_on_c, 0, 38, 0
3, 19920, Note_on_c, 0, 53, 49
3, 19920, Note_on_c, 0, 45, 49
3, 19950, Note_on_c, 0, 45, 0
3, 19950, Note_on_c, 0, 53, 0
3, 20160, Note_on_c, 0, 38, 50
3, 20190, Note_on_c, 0, 38, 0
3, 20400, Note_on_c, 0, 62, 50
3, 20460, Note_on_c, 0, 62, 0
3, 20520, Note_on_c, 0, 64, 48
3, 20580, Note_on_c, 0, 64, 0
3, 20640, Note_on_c, 0, 66, 50
3, 20700, Note_on_c, 0, 66, 0
3, 20760, Note_on_c, 0, 66, 48
3, 20800, Note_on_c, 0, 66, 0
3, 20800, Note_on_c, 0, 67, 46
3, 20840, Note_on_c, 0, 67, 0
3, 20840, Note_on_c, 0, 66, 46
3, 20880, Note_on_c, 0, 66, 0
3, 20880, Note_on_c, 0, 64, 50
3, 21000, Note_on_c, 0, 64, 0
3, 21000, Note_on_c, 0, 62, 48
3, 21120, Note_on_c, 0, 62, 0
3, 21120, Note_on_c, 0, 60, 50
3, 21240, Note_on_c, 0, 60, 0
3, 21240, Note_on_c, 0, 62, 46
3, 21360, Note_on_c, 0, 62, 0
3, 21360, Note_on_c, 0, 64, 46
3, 21600, Note_on_c, 0, 57, 45
3, 21600, Note_on_c, 0, 60, 50
3, 21720, Note_on_c, 0, 60, 0
3, 21720, Note_on_c, 0, 57, 0
3, 21720, Note_on_c, 0, 62, 46
3, 21840, Note_on_c, 0, 62, 0
3, 21840, Note_on_c, 0, 64, 0
3, 21840, Note_on_c, 0, 55, 40
3, 21840, Note_on_c, 0, 59, 40
3, 21840, Note_on_c, 0, 64, 46
3, 22060, Note_on_c, 0, 64, 0
3, 22060, Note_on_c, 0, 59, 0
3, 22060, Note_on_c, 0, 55, 0
3, 22080, Note_on_c, 0, 54, 40
3, 22080, Note_on_c, 0, 57, 44
3, 22200, Note_on_c, 0, 57, 0
3, 22200, Note_on_c, 0, 59, 43
3, 22320, Note_on_c, 0, 59, 0
3, 22320, Note_on_c, 0, 54, 0
3, 22320, Note_on_c, 0, 53, 39
3, 22320, Note_on_c, 0, 56, 39
3, 22320, Note_on_c, 0, 60, 44
3, 22560, Note_on_c, 0, 56, 0
3, 22560, Note_on_c, 0, 53, 0
3, 22560, Note_on_c, 0, 52, 39
3, 22560, Note_on_c, 0, 55, 39
3, 22780, Note_on_c, 0, 60, 0
3, 22800, Note_on_c, 0, 55, 0
3, 22800, Note_on_c, 0, 52, 0
3, 22800, Note_on_c, 0, 51, 34
3, 22800, Note_on_c, 0, 54, 34
3, 22800, Note_on_c, 0, 56, 38
3, 23040, Note_on_c, 0, 54, 0
3, 23040, Note_on_c, 0, 51, 0
3, 23040, Note_on_c, 0, 50, 33
3, 23040, Note_on_c, 0, 53, 33
3, 23280, Note_on_c, 0, 53, 0
3, 23280, Note_on_c, 0, 50, 0
3, 23280, Note_on_c, 0, 56, 0
3, 23280, Note_on_c, 0, 52, 33
3, 23280, Note_on_c, 0, 49, 33
3, 23520, Note_on_c, 0, 49, 0
3, 23520, Note_on_c, 0, 48, 33
3, 23610, Note_on_c, 0, 48, 0
3, 23760, Note_on_c, 0, 47, 32
3, 23850, Note_on_c, 0, 47, 0
3, 24000, Note_on_c, 0, 46, 31
3, 24000, Note_on_c, 0, 50, 31
3, 24090, Note_on_c, 0, 50, 0
3, 24090, Note_on_c, 0, 46, 0
3, 24240, Note_on_c, 0, 40, 37
3, 24330, Note_on_c, 0, 40, 0
3, 24480, Note_on_c, 0, 52, 0
3, 24480, Note_on_c, 0, 33, 34
3, 24700, Note_on_c, 0, 33, 0
3, 24720, Note_on_c, 0, 57, 44
3, 24765, Note_on_c, 0, 57, 0
3, 24840, Note_on_c, 0, 52, 38
3, 24885, Note_on_c, 0, 52, 0
3, 24960, Note_on_c, 0, 52, 38
3, 24994, Note_on_c, 0, 52, 0
3, 25080, Note_on_c, 0, 57, 38
3, 25125, Note_on_c, 0, 57, 0
3, 25200, Note_on_c, 0, 57, 44
3, 25245, Note_on_c, 0, 57, 0
3, 25320, Note_on_c, 0, 52, 44
3, 25365, Note_on_c, 0, 52, 0
3, 25440, Note_on_c, 0, 52, 39
3, 25474, Note_on_c, 0, 52, 0
3, 25560, Note_on_c, 0, 45, 42
3, 25605, Note_on_c, 0, 45, 0
3, 25680, Note_on_c, 0, 40, 49
3, 25714, Note_on_c, 0, 40, 0
3, 25920, Note_on_c, 0, 33, 68
3, 26150, Note_on_c, 0, 33, 0
3, 26160, Note_on_c, 0, 57, 44
3, 26205, Note_on_c, 0, 57, 0
3, 26280, Note_on_c, 0, 52, 38
3, 26325, Note_on_c, 0, 52, 0
3, 26400, Note_on_c, 0, 52, 38
3, 26434, Note_on_c, 0, 52, 0
3, 26520, Note_on_c, 0, 57, 38
3, 26565, Note_on_c, 0, 57, 0
3, 26640, Note_on_c, 0, 57, 44
3, 26685, Note_on_c, 0, 57, 0
3, 26760, Note_on_c, 0, 52, 44
3, 26805, Note_on_c, 0, 52, 0
3, 26880, Note_on_c, 0, 52, 39
3, 26914, Note_on_c, 0, 52, 0
3, 27000, Note_on_c, 0, 45, 46
3, 27045, Note_on_c, 0, 45, 0
3, 27120, Note_on_c, 0, 43, 51
3, 27154, Note_on_c, 0, 43, 0
3, 27360, Note_on_c, 0, 36, 69
3, 27590, Note_on_c, 0, 36, 0
3, 27600, Note_on_c, 0, 60, 49
3, 27645, Note_on_c, 0, 60, 0
3, 27720, Note_on_c, 0, 55, 42
3, 27765, Note_on_c, 0, 55, 0
3, 27840, Note_on_c, 0, 55, 42
3, 27874, Note_on_c, 0, 55, 0
3, 27960, Note_on_c, 0, 60, 42
3, 28005, Note_on_c, 0, 60, 0
3, 28080, Note_on_c, 0, 60, 49
3, 28125, Note_on_c, 0, 60, 0
3, 28200, Note_on_c, 0, 55, 49
3, 28245, Note_on_c, 0, 55, 0
3, 28320, Note_on_c, 0, 55, 43
3, 28354, Note_on_c, 0, 55, 0
3, 28440, Note_on_c, 0, 48, 51
3, 28485, Note_on_c, 0, 48, 0
3, 28560, Note_on_c, 0, 43, 56
3, 28594, Note_on_c, 0, 43, 0
3, 28800, Note_on_c, 0, 36, 75
3, 29030, Note_on_c, 0, 36, 0
3, 29040, Note_on_c, 0, 60, 56
3, 29085, Note_on_c, 0, 60, 0
3, 29160, Note_on_c, 0, 55, 48
3, 29205, Note_on_c, 0, 55, 0
3, 29280, Note_on_c, 0, 55, 48
3, 29314, Note_on_c, 0, 55, 0
3, 29400, Note_on_c, 0, 60, 48
3, 29445, Note_on_c, 0, 60, 0
3, 29520, Note_on_c, 0, 60, 56
3, 29565, Note_on_c, 0, 60, 0
3, 29640, Note_on_c, 0, 55, 56
3, 29685, Note_on_c, 0, 55, 0
3, 29760, Note_on_c, 0, 55, 49
3, 29794, Note_on_c, 0, 55, 0
3, 29880, Note_on_c, 0, 60, 58
3, 29925, Note_on_c, 0, 60, 0
3, 30000, Note_on_c, 0, 58, 65
3, 30240, Note_on_c, 0, 58, 0
3, 30240, Note_on_c, 0, 67, 57
3, 30240, Note_on_c, 0, 63, 57
3, 30600, Note_on_c, 0, 63, 0
3, 30600, Note_on_c, 0, 67, 0
3, 30600, Note_on_c, 0, 58, 52
3, 30600, Note_on_c, 0, 65, 52
3, 30720, Note_on_c, 0, 65, 0
3, 30720, Note_on_c, 0, 58, 0
3, 30720, Note_on_c, 0, 63, 57
3, 30720, Note_on_c, 0, 67, 57
3, 31080, Note_on_c, 0, 67, 0
3, 31080, Note_on_c, 0, 63, 0
3, 31080, Note_on_c, 0, 65, 52
3, 31080, Note_on_c, 0, 69, 52
3, 31200, Note_on_c, 0, 69, 0
3, 31200, Note_on_c, 0, 65, 0
3, 31200, Note_on_c, 0, 63, 58
3, 31200, Note_on_c, 0, 67, 58
3, 31560, Note_on_c, 0, 67, 0
3, 31560, Note_on_c, 0, 63, 0
3, 31560, Note_on_c, 0, 65, 54
3, 31560, Note_on_c, 0, 58, 54
3, 31680, Note_on_c, 0, 58, 0
3, 31680, Note_on_c, 0, 65, 0
3, 31680, Note_on_c, 0, 57, 57
3, 31680, Note_on_c, 0, 67, 57
3, 32160, Note_on_c, 0, 67, 0
3, 32160, Note_on_c, 0, 57, 0
3, 32160, Note_on_c, 0, 50, 52
3, 32160, Note_on_c, 0, 57, 52
3, 33100, Note_on_c, 0, 57, 0
3, 33100, Note_on_c, 0, 50, 0
3, 33120, Note_on_c, 0, 65, 51
3, 33120, Note_on_c, 0, 62, 51
3, 33480, Note_on_c, 0, 62, 0
3, 33480, Note_on_c, 0, 65, 0
3, 33480, Note_on_c, 0, 57, 46
3, 33480, Note_on_c, 0, 64, 46
3, 33600, Note_on_c, 0, 64, 0
3, 33600, Note_on_c, 0, 57, 0
3, 33600, Note_on_c, 0, 62, 51
3, 33600, Note_on_c, 0, 65, 51
3, 33960, Note_on_c, 0, 65, 0
3, 33960, Note_on_c, 0, 62, 0
3, 33960, Note_on_c, 0, 64, 46
3, 33960, Note_on_c, 0, 67, 46
3, 34080, Note_on_c, 0, 67, 0
3, 34080, Note_on_c, 0, 64, 0
3, 34080, Note_on_c, 0, 62, 52
3, 34080, Note_on_c, 0, 65, 52
3, 34440, Note_on_c, 0, 65, 0
3, 34440, Note_on_c, 0, 62, 0
3, 34440, Note_on_c, 0, 64, 48
3, 34440, Note_on_c, 0, 57, 48
3, 34560, Note_on_c, 0, 57, 0
3, 34560, Note_on_c, 0, 64, 0
3, 34560, Note_on_c, 0, 55, 51
3, 34560, Note_on_c, 0, 65, 51
3, 35040, Note_on_c, 0, 65, 0
3, 35040, Note_on_c, 0, 55, 0
3, 35040, Note_on_c, 0, 48, 46
3, 35040, Note_on_c, 0, 55, 46
3, 36000, Note_on_c, 0, 48, 0
3, 36000, Note_on_c, 0, 41, 46
3, 36480, Note_on_c, 0, 55, 0
3, 36480, Note_on_c, 0, 53, 38
3, 36960, Note_on_c, 0, 51, 38
3, 36980, Note_on_c, 0, 53, 0
3, 37440, Note_on_c, 0, 50, 38
3, 37460, Note_on_c, 0, 51, 0
3, 38160, Note_on_c, 0, 50, 0
3, 38160, Note_on_c, 0, 53, 39
3, 38400, Note_on_c, 0, 55, 40
3, 38420, Note_on_c, 0, 53, 0
3, 38640, Note_on_c, 0, 58, 38
3, 38660, Note_on_c, 0, 55, 0
3, 38880, Note_on_c, 0, 58, 0
3, 38880, Note_on_c, 0, 41, 0
3, 38880, Note_on_c, 0, 41, 46
3, 39360, Note_on_c, 0, 53, 38
3, 39840, Note_on_c, 0, 51, 38
3, 39860, Note_on_c, 0, 53, 0
3, 40320, Note_on_c, 0, 50, 38
3, 40340, Note_on_c, 0, 51, 0
3, 41040, Note_on_c, 0, 50, 0
3, 41040, Note_on_c, 0, 53, 39
3, 41280, Note_on_c, 0, 55, 40
3, 41300, Note_on_c, 0, 53, 0
3, 41520, Note_on_c, 0, 58, 39
3, 41540, Note_on_c, 0, 55, 0
3, 41760, Note_on_c, 0, 58, 0
3, 41760, Note_on_c, 0, 41, 0
3, 41760, Note_on_c, 0, 43, 50
3, 42000, Note_on_c, 0, 57, 39
3, 42000, Note_on_c, 0, 60, 39
3, 42000, Note_on_c, 0, 65, 39
3, 42240, Note_on_c, 0, 65, 0
3, 42240, Note_on_c, 0, 60, 0
3, 42240, Note_on_c, 0, 57, 0
3, 42240, Note_on_c, 0, 58, 39
3, 42240, Note_on_c, 0, 62, 39
3, 42240, Note_on_c, 0, 55, 39
3, 42480, Note_on_c, 0, 43, 0
3, 42480, Note_on_c, 0, 41, 48
3, 42720, Note_on_c, 0, 41, 0
3, 42720, Note_on_c, 0, 55, 0
3, 42720, Note_on_c, 0, 62, 0
3, 42720, Note_on_c, 0, 58, 0
3, 42720, Note_on_c, 0, 40, 50
3, 42960, Note_on_c, 0, 40, 0
3, 42960, Note_on_c, 0, 38, 52
3, 43200, Note_on_c, 0, 38, 0
3, 43200, Note_on_c, 0, 36, 57
3, 43440, Note_on_c, 0, 69, 40
3, 43440, Note_on_c, 0, 64, 40
3, 43440, Note_on_c, 0, 60, 40
3, 43680, Note_on_c, 0, 60, 0
3, 43680, Note_on_c, 0, 64, 0
3, 43680, Note_on_c, 0, 69, 0
3, 43680, Note_on_c, 0, 60, 44
3, 43680, Note_on_c, 0, 64, 44
3, 43680, Note_on_c, 0, 69, 44
3, 43920, Note_on_c, 0, 69, 0
3, 43920, Note_on_c, 0, 64, 0
3, 43920, Note_on_c, 0, 60, 0
3, 43920, Note_on_c, 0, 64, 40
3, 43920, Note_on_c, 0, 57, 40
3, 43920, Note_on_c, 0, 60, 40
3, 44160, Note_on_c, 0, 60, 0
3, 44160, Note_on_c, 0, 57, 0
3, 44160, Note_on_c, 0, 64, 0
3, 44160, Note_on_c, 0, 57, 40
3, 44160, Note_on_c, 0, 60, 40
3, 44160, Note_on_c, 0, 64, 40
3, 44640, Note_on_c, 0, 64, 0
3, 44640, Note_on_c, 0, 36, 0
3, 44640, Note_on_c, 0, 57, 0
3, 44640, Note_on_c, 0, 60, 0
3, 44640, Note_on_c, 0, 43, 52
3, 44880, Note_on_c, 0, 57, 40
3, 44880, Note_on_c, 0, 60, 40
3, 44880, Note_on_c, 0, 65, 40
3, 45120, Note_on_c, 0, 65, 0
3, 45120, Note_on_c, 0, 60, 0
3, 45120, Note_on_c, 0, 57, 0
3, 45120, Note_on_c, 0, 58, 40
3, 45120, Note_on_c, 0, 62, 40
3, 45120, Note_on_c, 0, 55, 40
3, 45360, Note_on_c, 0, 43, 0
3, 45360, Note_on_c, 0, 41, 50
3, 45600, Note_on_c, 0, 41, 0
3, 45600, Note_on_c, 0, 55, 0
3, 45600, Note_on_c, 0, 62, 0
3, 45600, Note_on_c, 0, 58, 0
3, 45600, Note_on_c, 0, 40, 52
3, 45840, Note_on_c, 0, 40, 0
3, 45840, Note_on_c, 0, 38, 55
3, 46080, Note_on_c, 0, 38, 0
3, 46080, Note_on_c, 0, 36, 60
3, 46320, Note_on_c, 0, 69, 43
3, 46320, Note_on_c, 0, 64, 43
3, 46320, Note_on_c, 0, 60, 43
3, 46560, Note_on_c, 0, 60, 0
3, 46560, Note_on_c, 0, 64, 0
3, 46560, Note_on_c, 0, 69, 0
3, 46560, Note_on_c, 0, 60, 46
3, 46560, Note_on_c, 0, 64, 46
3, 46560, Note_on_c, 0, 69, 46
3, 46800, Note_on_c, 0, 69, 0
3, 46800, Note_on_c, 0, 64, 0
3, 46800, Note_on_c, 0, 60, 0
3, 46800, Note_on_c, 0, 64, 43
3, 46800, Note_on_c, 0, 57, 43
3, 46800, Note_on_c, 0, 60, 43
3, 47040, Note_on_c, 0, 60, 0
3, 47040, Note_on_c, 0, 57, 0
3, 47040, Note_on_c, 0, 64, 0
3, 47040, Note_on_c, 0, 57, 45
3, 47040, Note_on_c, 0, 60, 45
3, 47040, Note_on_c, 0, 64, 45
3, 47280, Note_on_c, 0, 64, 0
3, 47280, Note_on_c, 0, 60, 0
3, 47280, Note_on_c, 0, 57, 0
3, 47280, Note_on_c, 0, 70, 48
3, 47280, Note_on_c, 0, 62, 48
3, 47280, Note_on_c, 0, 65, 48
3, 47520, Note_on_c, 0, 65, 0
3, 47520, Note_on_c, 0, 62, 0
3, 47520, Note_on_c, 0, 70, 0
3, 47520, Note_on_c, 0, 62, 52
3, 47520, Note_on_c, 0, 65, 52
3, 47520, Note_on_c, 0, 70, 52
3, 47760, Note_on_c, 0, 70, 0
3, 47760, Note_on_c, 0, 65, 0
3, 47760, Note_on_c, 0, 62, 0
3, 47760, Note_on_c, 0, 64, 48
3, 47760, Note_on_c, 0, 67, 48
3, 47760, Note_on_c, 0, 72, 48
3, 48000, Note_on_c, 0, 72, 0
3, 48000, Note_on_c, 0, 67, 0
3, 48000, Note_on_c, 0, 64, 0
3, 48000, Note_on_c, 0, 64, 52
3, 48000, Note_on_c, 0, 67, 52
3, 48000, Note_on_c, 0, 72, 52
3, 48240, Note_on_c, 0, 72, 0
3, 48240, Note_on_c, 0, 67, 0
3, 48240, Note_on_c, 0, 64, 0
3, 48240, Note_on_c, 0, 60, 48
3, 48240, Note_on_c, 0, 64, 48
3, 48240, Note_on_c, 0, 69, 48
3, 48480, Note_on_c, 0, 69, 0
3, 48480, Note_on_c, 0, 64, 0
3, 48480, Note_on_c, 0, 60, 0
3, 48480, Note_on_c, 0, 60, 52
3, 48480, Note_on_c, 0, 64, 52
3, 48480, Note_on_c, 0, 69, 52
3, 48720, Note_on_c, 0, 69, 0
3, 48720, Note_on_c, 0, 64, 0
3, 48720, Note_on_c, 0, 60, 0
3, 48720, Note_on_c, 0, 64, 56
3, 48720, Note_on_c, 0, 69, 56
3, 48720, Note_on_c, 0, 72, 56
3, 48960, Note_on_c, 0, 72, 0
3, 48960, Note_on_c, 0, 36, 0
3, 48960, Note_on_c, 0, 64, 0
3, 48960, Note_on_c, 0, 69, 0
3, 48960, Note_on_c, 0, 34, 66
3, 48960, Note_on_c, 0, 41, 66
3, 49200, Note_on_c, 0, 65, 71
3, 49440, Note_on_c, 0, 65, 0
3, 49440, Note_on_c, 0, 55, 44
3, 49440, Note_on_c, 0, 58, 44
3, 49440, Note_on_c, 0, 62, 74
3, 49920, Note_on_c, 0, 62, 0
3, 49920, Note_on_c, 0, 60, 68
3, 50160, Note_on_c, 0, 60, 0
3, 50160, Note_on_c, 0, 62, 63
3, 50400, Note_on_c, 0, 62, 0
3, 50400, Note_on_c, 0, 55, 0
3, 50400, Note_on_c, 0, 34, 0
3, 50400, Note_on_c, 0, 41, 0
3, 50400, Note_on_c, 0, 58, 0
3, 50400, Note_on_c, 0, 58, 44
3, 50400, Note_on_c, 0, 62, 44
3, 50400, Note_on_c, 0, 67, 67
3, 50640, Note_on_c, 0, 67, 0
3, 50640, Note_on_c, 0, 69, 58
3, 50880, Note_on_c, 0, 69, 0
3, 50880, Note_on_c, 0, 69, 60
3, 51120, Note_on_c, 0, 69, 0
3, 51120, Note_on_c, 0, 64, 58
3, 51360, Note_on_c, 0, 64, 0
3, 51360, Note_on_c, 0, 64, 57
3, 51840, Note_on_c, 0, 64, 0
3, 51840, Note_on_c, 0, 62, 0
3, 51840, Note_on_c, 0, 58, 0
3, 51840, Note_on_c, 0, 34, 52
3, 51840, Note_on_c, 0, 41, 52
3, 52080, Note_on_c, 0, 65, 49
3, 52320, Note_on_c, 0, 65, 0
3, 52320, Note_on_c, 0, 53, 29
3, 52320, Note_on_c, 0, 58, 29
3, 52320, Note_on_c, 0, 62, 49
3, 52800, Note_on_c, 0, 62, 0
3, 52800, Note_on_c, 0, 60, 47
3, 53040, Note_on_c, 0, 60, 0
3, 53040, Note_on_c, 0, 62, 44
3, 53260, Note_on_c, 0, 62, 0
3, 53280, Note_on_c, 0, 53, 0
3, 53280, Note_on_c, 0, 34, 0
3, 53280, Note_on_c, 0, 41, 0
3, 53280, Note_on_c, 0, 58, 0
3, 53280, Note_on_c, 0, 28, 40
3, 53280, Note_on_c, 0, 40, 40
3, 53760, Note_on_c, 0, 40, 0
3, 53760, Note_on_c, 0, 28, 0
3, 53760, Note_on_c, 0, 29, 42
3, 53760, Note_on_c, 0, 41, 42
3, 54240, Note_on_c, 0, 41, 0
3, 54240, Note_on_c, 0, 29, 0
3, 54240, Note_on_c, 0, 31, 45
3, 54240, Note_on_c, 0, 43, 45
3, 54720, Note_on_c, 0, 43, 0
3, 54720, Note_on_c, 0, 31, 0
3, 54720, Note_on_c, 0, 33, 47
3, 54720, Note_on_c, 0, 45, 47
3, 55200, Note_on_c, 0, 45, 0
3, 55200, Note_on_c, 0, 33, 0
3, 55200, Note_on_c, 0, 35, 42
3, 55200, Note_on_c, 0, 47, 42
3, 55440, Note_on_c, 0, 47, 0
3, 55440, Note_on_c, 0, 35, 0
3, 55440, Note_on_c, 0, 33, 42
3, 55440, Note_on_c, 0, 45, 42
3, 55680, Note_on_c, 0, 45, 0
3, 55680, Note_on_c, 0, 33, 0
3, 55680, Note_on_c, 0, 31, 40
3, 55680, Note_on_c, 0, 43, 40
3, 55920, Note_on_c, 0, 43, 0
3, 55920, Note_on_c, 0, 31, 0
3, 55920, Note_on_c, 0, 29, 39
3, 55920, Note_on_c, 0, 41, 39
3, 56160, Note_on_c, 0, 41, 0
3, 56160, Note_on_c, 0, 29, 0
3, 56160, Note_on_c, 0, 28, 40
3, 56160, Note_on_c, 0, 40, 40
3, 56640, Note_on_c, 0, 40, 0
3, 56640, Note_on_c, 0, 28, 0
3, 56640, Note_on_c, 0, 29, 42
3, 56640, Note_on_c, 0, 41, 42
3, 57120, Note_on_c, 0, 41, 0
3, 57120, Note_on_c, 0, 29, 0
3, 57120, Note_on_c, 0, 31, 42
3, 57120, Note_on_c, 0, 43, 42
3, 57600, Note_on_c, 0, 43, 0
3, 57600, Note_on_c, 0, 31, 0
3, 57600, Note_on_c, 0, 33, 36
3, 57600, Note_on_c, 0, 45, 36
3, 58080, Note_on_c, 0, 45, 0
3, 58080, Note_on_c, 0, 33, 0
3, 58080, Note_on_c, 0, 47, 32
3, 58080, Note_on_c, 0, 35, 32
3, 58560, Note_on_c, 0, 35, 0
3, 58560, Note_on_c, 0, 47, 0
3, 58560, Note_on_c, 0, 36, 29
3, 58560, Note_on_c, 0, 48, 29
3, 58980, Note_on_c, 0, 38, 29
3, 59010, Note_on_c, 0, 45, 33
3, 59040, Note_on_c, 0, 48, 0
3, 59040, Note_on_c, 0, 36, 0
3, 59040, Note_on_c, 0, 54, 37
3, 59040, Control_c, 0, 91, 127
3, 59070, Note_on_c, 0, 54, 0
3, 59070, Note_on_c, 0, 38, 0
3, 59070, Note_on_c, 0, 45, 0
3, 59940, Note_on_c, 0, 38, 27
3, 59970, Note_on_c, 0, 45, 32
3, 60000, Note_on_c, 0, 54, 35
3, 60120, Note_on_c, 0, 54, 0
3, 60120, Note_on_c, 0, 45, 0
3, 60120, Note_on_c, 0, 38, 0
3, 60420, Note_on_c, 0, 38, 37
3, 60450, Note_on_c, 0, 45, 37
3, 60480, Note_on_c, 0, 54, 37
3, 60510, Note_on_c, 0, 54, 0
3, 60510, Note_on_c, 0, 45, 0
3, 60510, Note_on_c, 0, 38, 0
3, 60960, Note_on_c, 0, 69, 39
3, 60990, Note_on_c, 0, 69, 0
3, 61440, Note_on_c, 0, 62, 39
3, 61470, Note_on_c, 0, 62, 0
3, 61920, Note_on_c, 0, 60, 33
3, 61920, Note_on_c, 0, 62, 33
3, 61920, Note_on_c, 0, 65, 37
3, 63360, Note_on_c, 0, 65, 0
3, 63360, Note_on_c, 0, 66, 37
3, 63840, Note_on_c, 0, 66, 0
3, 63840, Note_on_c, 0, 69, 37
3, 64320, Note_on_c, 0, 69, 0
3, 64320, Note_on_c, 0, 62, 0
3, 64320, Note_on_c, 0, 60, 0
3, 64320, Note_on_c, 0, 50, 37
3, 64440, Note_on_c, 0, 50, 0
3, 64740, Note_on_c, 0, 55, 31
3, 64770, Note_on_c, 0, 62, 35
3, 64800, Note_on_c, 0, 71, 37
3, 65010, Note_on_c, 0, 62, 0
3, 65040, Note_on_c, 0, 71, 0
3, 65040, Note_on_c, 0, 55, 0
3, 65760, Note_on_c, 0, 48, 32
3, 65760, Note_on_c, 0, 64, 32
3, 65760, Note_on_c, 0, 55, 32
3, 66180, Note_on_c, 0, 43, 37
3, 66210, Note_on_c, 0, 50, 37
3, 66240, Note_on_c, 0, 55, 0
3, 66240, Note_on_c, 0, 48, 0
3, 66240, Note_on_c, 0, 64, 0
3, 66240, Note_on_c, 0, 59, 37
3, 66480, Note_on_c, 0, 59, 0
3, 66480, Note_on_c, 0, 43, 0
3, 66480, Note_on_c, 0, 50, 0
3, 67200, Note_on_c, 0, 45, 32
3, 67200, Note_on_c, 0, 48, 32
3, 67440, Note_on_c, 0, 45, 0
3, 67440, Note_on_c, 0, 42, 32
3, 67680, Note_on_c, 0, 42, 0
3, 67680, Note_on_c, 0, 40, 32
3, 68640, Note_on_c, 0, 48, 0
3, 68640, Note_on_c, 0, 47, 32
3, 69120, Note_on_c, 0, 47, 0
3, 69120, Note_on_c, 0, 40, 0
3, 69120, Note_on_c, 0, 33, 39
3, 69120, Note_on_c, 0, 45, 39
3, 69360, Note_on_c, 0, 45, 0
3, 69360, Note_on_c, 0, 33, 0
3, 69600, Note_on_c, 0, 57, 44
3, 69675, Note_on_c, 0, 57, 0
3, 69840, Note_on_c, 0, 52, 41
3, 69915, Note_on_c, 0, 52, 0
3, 70080, Note_on_c, 0, 45, 51
3, 70170, Note_on_c, 0, 45, 0
3, 70320, Note_on_c, 0, 43, 50
3, 70410, Note_on_c, 0, 43, 0
3, 70560, Note_on_c, 0, 29, 77
3, 70560, Note_on_c, 0, 41, 77
3, 71160, Note_on_c, 0, 67, 69
3, 71220, Note_on_c, 0, 67, 0
3, 71220, Note_on_c, 0, 65, 69
3, 71280, Note_on_c, 0, 65, 0
3, 71280, Note_on_c, 0, 64, 69
3, 71340, Note_on_c, 0, 64, 0
3, 71340, Note_on_c, 0, 62, 69
3, 71400, Note_on_c, 0, 62, 0
3, 71400, Note_on_c, 0, 60, 69
3, 71460, Note_on_c, 0, 60, 0
3, 71460, Note_on_c, 0, 59, 69
3, 71520, Note_on_c, 0, 59, 0
3, 71520, Note_on_c, 0, 57, 77
3, 71760, Note_on_c, 0, 57, 0
3, 71760, Note_on_c, 0, 55, 68
3, 72000, Note_on_c, 0, 55, 0
3, 72000, Note_on_c, 0, 41, 0
3, 72000, Note_on_c, 0, 29, 0
3, 72000, Note_on_c, 0, 57, 71
3, 72240, Note_on_c, 0, 57, 0
3, 72240, Note_on_c, 0, 59, 66
3, 72480, Note_on_c, 0, 59, 0
3, 72480, Note_on_c, 0, 60, 63
3, 72720, Note_on_c, 0, 60, 0
3, 72720, Note_on_c, 0, 62, 62
3, 72960, Note_on_c, 0, 62, 0
3, 72960, Note_on_c, 0, 59, 55
3, 73200, Note_on_c, 0, 59, 0
3, 73200, Note_on_c, 0, 57, 53
3, 73320, Note_on_c, 0, 57, 0
3, 73320, Note_on_c, 0, 55, 50
3, 73440, Note_on_c, 0, 55, 0
3, 73440, Note_on_c, 0, 29, 77
3, 73440, Note_on_c, 0, 41, 77
3, 74040, Note_on_c, 0, 67, 69
3, 74100, Note_on_c, 0, 67, 0
3, 74100, Note_on_c, 0, 65, 69
3, 74160, Note_on_c, 0, 65, 0
3, 74160, Note_on_c, 0, 64, 69
3, 74220, Note_on_c, 0, 64, 0
3, 74220, Note_on_c, 0, 62, 69
3, 74280, Note_on_c, 0, 62, 0
3, 74280, Note_on_c, 0, 60, 69
3, 74340, Note_on_c, 0, 60, 0
3, 74340, Note_on_c, 0, 59, 69
3, 74400, Note_on_c, 0, 59, 0
3, 74400, Note_on_c, 0, 57, 77
3, 74640, Note_on_c, 0, 57, 0
3, 74640, Note_on_c, 0, 55, 68
3, 74880, Note_on_c, 0, 55, 0
3, 74880, Note_on_c, 0, 41, 0
3, 74880, Note_on_c, 0, 29, 0
3, 74880, Note_on_c, 0, 57, 71
3, 75120, Note_on_c, 0, 57, 0
3, 75120, Note_on_c, 0, 59, 66
3, 75360, Note_on_c, 0, 59, 0
3, 75360, Note_on_c, 0, 60, 63
3, 75600, Note_on_c, 0, 60, 0
3, 75600, Note_on_c, 0, 62, 62
3, 75840, Note_on_c, 0, 62, 0
3, 75840, Note_on_c, 0, 57, 55
3, 76080, Note_on_c, 0, 57, 0
3, 76080, Note_on_c, 0, 55, 53
3, 76200, Note_on_c, 0, 55, 0
3, 76200, Note_on_c, 0, 53, 50
3, 76320, Note_on_c, 0, 53, 0
3, 76320, Note_on_c, 0, 27, 81
3, 76320, Note_on_c, 0, 39, 81
3, 76920, Note_on_c, 0, 65, 69
3, 76980, Note_on_c, 0, 65, 0
3, 76980, Note_on_c, 0, 63, 69
3, 77040, Note_on_c, 0, 63, 0
3, 77040, Note_on_c, 0, 62, 69
3, 77100, Note_on_c, 0, 62, 0
3, 77100, Note_on_c, 0, 60, 69
3, 77160, Note_on_c, 0, 60, 0
3, 77160, Note_on_c, 0, 58, 69
3, 77220, Note_on_c, 0, 58, 0
3, 77220, Note_on_c, 0, 57, 69
3, 77280, Note_on_c, 0, 57, 0
3, 77280, Note_on_c, 0, 55, 77
3, 77520, Note_on_c, 0, 55, 0
3, 77520, Note_on_c, 0, 53, 68
3, 77760, Note_on_c, 0, 53, 0
3, 77760, Note_on_c, 0, 39, 0
3, 77760, Note_on_c, 0, 27, 0
3, 77760, Note_on_c, 0, 55, 71
3, 78000, Note_on_c, 0, 55, 0
3, 78000, Note_on_c, 0, 57, 66
3, 78240, Note_on_c, 0, 57, 0
3, 78240, Note_on_c, 0, 58, 63
3, 78480, Note_on_c, 0, 58, 0
3, 78480, Note_on_c, 0, 60, 62
3, 78720, Note_on_c, 0, 60, 0
3, 78720, Note_on_c, 0, 57, 55
3, 78960, Note_on_c, 0, 57, 0
3, 78960, Note_on_c, 0, 55, 53
3, 79080, Note_on_c, 0, 55, 0
3, 79080, Note_on_c, 0, 53, 50
3, 79200, Note_on_c, 0, 53, 0
3, 79200, Note_on_c, 0, 27, 81
3, 79200, Note_on_c, 0, 39, 81
3, 79800, Note_on_c, 0, 65, 69
3, 79860, Note_on_c, 0, 65, 0
3, 79860, Note_on_c, 0, 63, 69
3, 79920, Note_on_c, 0, 63, 0
3, 79920, Note_on_c, 0, 62, 69
3, 79980, Note_on_c, 0, 62, 0
3, 79980, Note_on_c, 0, 60, 69
3, 80040, Note_on_c, 0, 60, 0
3, 80040, Note_on_c, 0, 58, 69
3, 80100, Note_on_c, 0, 58, 0
3, 80100, Note_on_c, 0, 57, 69
3, 80160, Note_on_c, 0, 57, 0
3, 80160, Note_on_c, 0, 55, 77
3, 80400, Note_on_c, 0, 55, 0
3, 80400, Note_on_c, 0, 53, 68
3, 80640, Note_on_c, 0, 53, 0
3, 80640, Note_on_c, 0, 39, 0
3, 80640, Note_on_c, 0, 27, 0
3, 80640, Note_on_c, 0, 55, 71
3, 80880, Note_on_c, 0, 55, 0
3, 80880, Note_on_c, 0, 57, 66
3, 81120, Note_on_c, 0, 57, 0
3, 81120, Note_on_c, 0, 58, 63
3, 81360, Note_on_c, 0, 58, 0
3, 81360, Note_on_c, 0, 60, 62
3, 81600, Note_on_c, 0, 60, 0
3, 81600, Note_on_c, 0, 57, 55
3, 81840, Note_on_c, 0, 57, 0
3, 81840, Note_on_c, 0, 58, 53
3, 81960, Note_on_c, 0, 58, 0
3, 81960, Note_on_c, 0, 60, 50
3, 82080, Note_on_c, 0, 60, 0
3, 82080, Note_on_c, 0, 50, 46
3, 82080, Note_on_c, 0, 57, 46
3, 82440, Note_on_c, 0, 57, 0
3, 82440, Note_on_c, 0, 50, 0
3, 82440, Note_on_c, 0, 45, 41
3, 82530, Note_on_c, 0, 45, 0
3, 82560, Note_on_c, 0, 50, 46
3, 82560, Note_on_c, 0, 57, 46
3, 82920, Note_on_c, 0, 57, 0
3, 82920, Note_on_c, 0, 50, 0
3, 82920, Note_on_c, 0, 45, 42
3, 83040, Note_on_c, 0, 45, 0
3, 83040, Note_on_c, 0, 50, 45
3, 83040, Note_on_c, 0, 57, 45
3, 83280, Note_on_c, 0, 57, 0
3, 83280, Note_on_c, 0, 50, 0
3, 83280, Note_on_c, 0, 42, 49
3, 83520, Note_on_c, 0, 42, 0
3, 83520, Note_on_c, 0, 43, 52
3, 83760, Note_on_c, 0, 43, 0
3, 83760, Note_on_c, 0, 45, 45
3, 84000, Note_on_c, 0, 45, 0
3, 84000, Note_on_c, 0, 46, 42
3, 84480, Note_on_c, 0, 46, 0
3, 84480, Note_on_c, 0, 45, 43
3, 84960, Note_on_c, 0, 45, 0
3, 84960, Note_on_c, 0, 50, 45
3, 85860, Note_on_c, 0, 50, 0
3, 85860, Note_on_c, 0, 43, 36
3, 85890, Note_on_c, 0, 50, 39
3, 85920, Note_on_c, 0, 59, 44
3, 86340, Note_on_c, 0, 59, 0
3, 86340, Note_on_c, 0, 50, 0
3, 86340, Note_on_c, 0, 43, 0
3, 86340, Note_on_c, 0, 40, 40
3, 86370, Note_on_c, 0, 55, 44
3, 86400, Note_on_c, 0, 47, 48
3, 87360, Note_on_c, 0, 47, 0
3, 87360, Note_on_c, 0, 55, 0
3, 87360, Note_on_c, 0, 40, 0
3, 87360, Note_on_c, 0, 45, 40
3, 87840, Note_on_c, 0, 45, 0
3, 87840, Note_on_c, 0, 50, 46
3, 87840, Note_on_c, 0, 57, 46
3, 88200, Note_on_c, 0, 57, 0
3, 88200, Note_on_c, 0, 50, 0
3, 88200, Note_on_c, 0, 45, 41
3, 88290, Note_on_c, 0, 45, 0
3, 88320, Note_on_c, 0, 50, 46
3, 88320, Note_on_c, 0, 57, 46
3, 88680, Note_on_c, 0, 57, 0
3, 88680, Note_on_c, 0, 50, 0
3, 88680, Note_on_c, 0, 45, 42
3, 88800, Note_on_c, 0, 45, 0
3, 88800, Note_on_c, 0, 50, 45
3, 88800, Note_on_c, 0, 57, 45
3, 89040, Note_on_c, 0, 57, 0
3, 89040, Note_on_c, 0, 50, 0
3, 89040, Note_on_c, 0, 42, 49
3, 89280, Note_on_c, 0, 42, 0
3, 89280, Note_on_c, 0, 43, 52
3, 89520, Note_on_c, 0, 43, 0
3, 89520, Note_on_c, 0, 45, 45
3, 89760, Note_on_c, 0, 45, 0
3, 89760, Note_on_c, 0, 47, 45
3, 89970, Note_on_c, 0, 47, 0
3, 90000, Note_on_c, 0, 49, 48
3, 90240, Note_on_c, 0, 49, 0
3, 90240, Note_on_c, 0, 50, 51
3, 90480, Note_on_c, 0, 50, 0
3, 90480, Note_on_c, 0, 52, 51
3, 90720, Note_on_c, 0, 52, 0
3, 90720, Note_on_c, 0, 54, 51
3, 90930, Note_on_c, 0, 54, 0
3, 90960, Note_on_c, 0, 55, 50
3, 91200, Note_on_c, 0, 55, 0
3, 91200, Note_on_c, 0, 57, 52
3, 91440, Note_on_c, 0, 57, 0
3, 91440, Note_on_c, 0, 59, 54
3, 91680, Note_on_c, 0, 59, 0
3, 91680, Note_on_c, 0, 61, 57
3, 92160, Note_on_c, 0, 61, 0
3, 92160, Note_on_c, 0, 62, 43
3, 92160, Note_on_c, 0, 69, 43
3, 92220, Note_on_c, 0, 69, 0
3, 92220, Note_on_c, 0, 62, 0
3, 92400, Note_on_c, 0, 57, 35
3, 92460, Note_on_c, 0, 57, 0
3, 92640, Note_on_c, 0, 50, 42
3, 92700, Note_on_c, 0, 50, 0
3, 92880, Note_on_c, 0, 57, 37
3, 92940, Note_on_c, 0, 57, 0
3, 93120, Note_on_c, 0, 62, 43
3, 93180, Note_on_c, 0, 62, 0
3, 93360, Note_on_c, 0, 69, 36
3, 93360, Note_on_c, 0, 63, 36
3, 93360, Note_on_c, 0, 60, 36
3, 93360, Note_on_c, 0, 54, 36
3, 93600, Note_on_c, 0, 54, 0
3, 93600, Note_on_c, 0, 69, 0
3, 93600, Note_on_c, 0, 63, 0
3, 93600, Note_on_c, 0, 60, 0
3, 93600, Note_on_c, 0, 67, 36
3, 93600, Note_on_c, 0, 62, 36
3, 93600, Note_on_c, 0, 58, 36
3, 93600, Note_on_c, 0, 55, 36
3, 93840, Note_on_c, 0, 55, 0
3, 93840, Note_on_c, 0, 67, 0
3, 93840, Note_on_c, 0, 62, 0
3, 93840, Note_on_c, 0, 58, 0
3, 93840, Note_on_c, 0, 66, 35
3, 93840, Note_on_c, 0, 62, 35
3, 93840, Note_on_c, 0, 57, 35
3, 94080, Note_on_c, 0, 57, 0
3, 94080, Note_on_c, 0, 62, 0
3, 94080, Note_on_c, 0, 66, 0
3, 94080, Note_on_c, 0, 64, 34
3, 94080, Note_on_c, 0, 62, 34
3, 94080, Note_on_c, 0, 58, 34
3, 94560, Note_on_c, 0, 58, 0
3, 94560, Note_on_c, 0, 62, 0
3, 94560, Note_on_c, 0, 64, 0
3, 94560, Note_on_c, 0, 67, 36
3, 94560, Note_on_c, 0, 64, 36
3, 94560, Note_on_c, 0, 61, 36
3, 95040, Note_on_c, 0, 61, 0
3, 95040, Note_on_c, 0, 64, 0
3, 95040, Note_on_c, 0, 67, 0
3, 95040, Note_on_c, 0, 66, 42
3, 95040, Note_on_c, 0, 62, 42
3, 95520, Note_on_c, 0, 57, 38
3, 96000, Note_on_c, 0, 57, 0
3, 96000, Note_on_c, 0, 62, 0
3, 96000, Note_on_c, 0, 66, 0
3, 96000, Note_on_c, 0, 55, 36
3, 96000, Note_on_c, 0, 59, 36
3, 96480, Note_on_c, 0, 55, 0
3, 96480, Note_on_c, 0, 52, 37
3, 96480, Note_on_c, 0, 45, 37
3, 97440, Note_on_c, 0, 59, 0
3, 97440, Note_on_c, 0, 61, 38
3, 97920, Note_on_c, 0, 61, 0
3, 97920, Note_on_c, 0, 45, 0
3, 97920, Note_on_c, 0, 52, 0
3, 97920, Note_on_c, 0, 44, 38
3, 98400, Note_on_c, 0, 44, 0
3, 98400, Note_on_c, 0, 45, 39
3, 98640, Note_on_c, 0, 45, 0
3, 98640, Note_on_c, 0, 47, 38
3, 98880, Note_on_c, 0, 47, 0
3, 98880, Note_on_c, 0, 49, 39
3, 99120, Note_on_c, 0, 49, 0
3, 99120, Note_on_c, 0, 51, 37
3, 99240, Note_on_c, 0, 51, 0
3, 99240, Note_on_c, 0, 53, 40
3, 99360, Note_on_c, 0, 53, 0
3, 99360, Note_on_c, 0, 54, 45
3, 99840, Note_on_c, 0, 54, 0
3, 99840, Note_on_c, 0, 56, 36
3, 100320, Note_on_c, 0, 56, 0
3, 100320, Note_on_c, 0, 57, 38
3, 100780, Note_on_c, 0, 57, 0
3, 100800, Note_on_c, 0, 59, 38
3, 101280, Note_on_c, 0, 59, 0
3, 101280, Note_on_c, 0, 61, 39
3, 101520, Note_on_c, 0, 61, 0
3, 101520, Note_on_c, 0, 62, 38
3, 101760, Note_on_c, 0, 62, 0
3, 101760, Note_on_c, 0, 64, 39
3, 102000, Note_on_c, 0, 64, 0
3, 102000, Note_on_c, 0, 65, 39
3, 102240, Note_on_c, 0, 65, 0
3, 102240, Note_on_c, 0, 66, 39
3, 103680, Note_on_c, 0, 66, 0
3, 103680, Note_on_c, 0, 34, 35
3, 103680, Note_on_c, 0, 46, 35
3, 104070, Note_on_c, 0, 46, 0
3, 104070, Note_on_c, 0, 34, 0
3, 104070, Note_on_c, 0, 55, 31
3, 104100, Note_on_c, 0, 58, 33
3, 104130, Note_on_c, 0, 63, 35
3, 104160, Note_on_c, 0, 67, 40
3, 104633, Note_on_c, 0, 67, 0
3, 104636, Note_on_c, 0, 63, 0
3, 104638, Note_on_c, 0, 58, 0
3, 104638, Note_on_c, 0, 55, 0
3, 104640, Note_on_c, 0, 46, 38
3, 105120, Note_on_c, 0, 34, 44
3, 105510, Note_on_c, 0, 34, 0
3, 105510, Note_on_c, 0, 46, 0
3, 105510, Note_on_c, 0, 55, 31
3, 105540, Note_on_c, 0, 58, 33
3, 105570, Note_on_c, 0, 63, 35
3, 105600, Note_on_c, 0, 67, 41
3, 106077, Note_on_c, 0, 67, 0
3, 106077, Note_on_c, 0, 63, 0
3, 106078, Note_on_c, 0, 58, 0
3, 106078, Note_on_c, 0, 55, 0
3, 106080, Note_on_c, 0, 46, 41
3, 106560, Note_on_c, 0, 34, 41
3, 106800, Note_on_c, 0, 34, 0
3, 106800, Note_on_c, 0, 46, 0
3, 107040, Note_on_c, 0, 51, 36
3, 107040, Note_on_c, 0, 55, 36
3, 107280, Note_on_c, 0, 55, 0
3, 107280, Note_on_c, 0, 51, 0
3, 107520, Note_on_c, 0, 67, 33
3, 107520, Note_on_c, 0, 72, 33
3, 107520, Note_on_c, 0, 75, 33
3, 107580, Note_on_c, 0, 75, 0
3, 107580, Note_on_c, 0, 72, 0
3, 107580, Note_on_c, 0, 67, 0
3, 108000, Note_on_c, 0, 46, 41
3, 108000, Note_on_c, 0, 34, 41
3, 108240, Note_on_c, 0, 34, 0
3, 108240, Note_on_c, 0, 46, 0
3, 108480, Note_on_c, 0, 58, 36
3, 108480, Note_on_c, 0, 50, 36
3, 108480, Note_on_c, 0, 55, 36
3, 108720, Note_on_c, 0, 55, 0
3, 108720, Note_on_c, 0, 50, 0
3, 108720, Note_on_c, 0, 58, 0
3, 108960, Note_on_c, 0, 67, 33
3, 108960, Note_on_c, 0, 70, 33
3, 108960, Note_on_c, 0, 74, 33
3, 109020, Note_on_c, 0, 74, 0
3, 109020, Note_on_c, 0, 70, 0
3, 109020, Note_on_c, 0, 67, 0
3, 109440, Note_on_c, 0, 55, 36
3, 109440, Note_on_c, 0, 46, 41
3, 109920, Note_on_c, 0, 55, 0
3, 109920, Note_on_c, 0, 56, 38
3, 110400, Note_on_c, 0, 56, 0
3, 110400, Note_on_c, 0, 68, 36
3, 110400, Note_on_c, 0, 77, 36
3, 110400, Note_on_c, 0, 73, 36
3, 110430, Note_on_c, 0, 73, 0
3, 110430, Note_on_c, 0, 77, 0
3, 110430, Note_on_c, 0, 68, 0
3, 110880, Note_on_c, 0, 46, 0
3, 110880, Note_on_c, 0, 46, 41
3, 110880, Note_on_c, 0, 51, 41
3, 111360, Note_on_c, 0, 51, 0
3, 111360, Note_on_c, 0, 46, 0
3, 111360, Note_on_c, 0, 75, 36
3, 111360, Note_on_c, 0, 73, 36
3, 111600, Note_on_c, 0, 73, 0
3, 111600, Note_on_c, 0, 75, 0
3, 111840, Note_on_c, 0, 51, 41
3, 112320, Note_on_c, 0, 46, 45
3, 112800, Note_on_c, 0, 46, 0
3, 112800, Note_on_c, 0, 51, 0
3, 112800, Note_on_c, 0, 75, 40
3, 112800, Note_on_c, 0, 73, 40
3, 113040, Note_on_c, 0, 73, 0
3, 113040, Note_on_c, 0, 75, 0
3, 113280, Note_on_c, 0, 51, 47
3, 113760, Note_on_c, 0, 51, 0
3, 113760, Note_on_c, 0, 52, 52
3, 113760, Note_on_c, 0, 42, 52
3, 114240, Note_on_c, 0, 42, 0
3, 114240, Note_on_c, 0, 52, 0
3, 114240, Note_on_c, 0, 76, 45
3, 114240, Note_on_c, 0, 73, 45
3, 114480, Note_on_c, 0, 73, 0
3, 114480, Note_on_c, 0, 76, 0
3, 114720, Note_on_c, 0, 52, 52
3, 115200, Note_on_c, 0, 40, 60
3, 115440, Note_on_c, 0, 40, 0
3, 115440, Note_on_c, 0, 52, 0
3, 115680, Note_on_c, 0, 74, 46
3, 115680, Note_on_c, 0, 76, 46
3, 115920, Note_on_c, 0, 76, 0
3, 115920, Note_on_c, 0, 74, 0
3, 116160, Note_on_c, 0, 52, 54
3, 116520, Note_on_c, 0, 40, 65
3, 116640, Note_on_c, 0, 40, 0
3, 116640, Note_on_c, 0, 52, 0
3, 116640, Note_on_c, 0, 62, 56
3, 116640, Note_on_c, 0, 61, 56
3, 116640, Note_on_c, 0, 69, 56
3, 117120, Note_on_c, 0, 69, 0
3, 117120, Note_on_c, 0, 61, 0
3, 117120, Note_on_c, 0, 62, 0
3, 117120, Note_on_c, 0, 68, 53
3, 117120, Note_on_c, 0, 62, 53
3, 117120, Note_on_c, 0, 59, 53
3, 117600, Note_on_c, 0, 59, 0
3, 117600, Note_on_c, 0, 62, 0
3, 117600, Note_on_c, 0, 68, 0
3, 117600, Note_on_c, 0, 66, 48
3, 117600, Note_on_c, 0, 62, 48
3, 117600, Note_on_c, 0, 56, 48
3, 118080, Note_on_c, 0, 56, 0
3, 118080, Note_on_c, 0, 62, 0
3, 118080, Note_on_c, 0, 66, 0
3, 118080, Note_on_c, 0, 64, 47
3, 118080, Note_on_c, 0, 61, 47
3, 118080, Note_on_c, 0, 57, 47
3, 118560, Note_on_c, 0, 40, 64
3, 118800, Note_on_c, 0, 57, 0
3, 118800, Note_on_c, 0, 64, 0
3, 118800, Note_on_c, 0, 61, 0
3, 118800, Note_on_c, 0, 57, 54
3, 118800, Note_on_c, 0, 61, 54
3, 118800, Note_on_c, 0, 66, 54
3, 119040, Note_on_c, 0, 66, 0
3, 119040, Note_on_c, 0, 61, 0
3, 119040, Note_on_c, 0, 57, 0
3, 119040, Note_on_c, 0, 61, 54
3, 119040, Note_on_c, 0, 66, 54
3, 119040, Note_on_c, 0, 69, 54
3, 119280, Note_on_c, 0, 69, 0
3, 119280, Note_on_c, 0, 66, 0
3, 119280, Note_on_c, 0, 61, 0
3, 119280, Note_on_c, 0, 66, 54
3, 119280, Note_on_c, 0, 69, 54
3, 119280, Note_on_c, 0, 73, 54
3, 119520, Note_on_c, 0, 73, 0
3, 119520, Note_on_c, 0, 40, 0
3, 119520, Note_on_c, 0, 66, 0
3, 119520, Note_on_c, 0, 69, 0
3, 119520, Note_on_c, 0, 62, 56
3, 119520, Note_on_c, 0, 61, 56
3, 119520, Note_on_c, 0, 69, 56
3, 120000, Note_on_c, 0, 69, 0
3, 120000, Note_on_c, 0, 61, 0
3, 120000, Note_on_c, 0, 62, 0
3, 120000, Note_on_c, 0, 68, 53
3, 120000, Note_on_c, 0, 62, 53
3, 120000, Note_on_c, 0, 59, 53
3, 120480, Note_on_c, 0, 59, 0
3, 120480, Note_on_c, 0, 62, 0
3, 120480, Note_on_c, 0, 68, 0
3, 120480, Note_on_c, 0, 66, 48
3, 120480, Note_on_c, 0, 62, 48
3, 120480, Note_on_c, 0, 56, 48
3, 120960, Note_on_c, 0, 56, 0
3, 120960, Note_on_c, 0, 62, 0
3, 120960, Note_on_c, 0, 66, 0
3, 120960, Note_on_c, 0, 64, 47
3, 120960, Note_on_c, 0, 61, 47
3, 120960, Note_on_c, 0, 57, 47
3, 121440, Note_on_c, 0, 40, 64
3, 121680, Note_on_c, 0, 57, 0
3, 121680, Note_on_c, 0, 64, 0
3, 121680, Note_on_c, 0, 61, 0
3, 121680, Note_on_c, 0, 54, 49
3, 121920, Note_on_c, 0, 54, 0
3, 121920, Note_on_c, 0, 57, 52
3, 122160, Note_on_c, 0, 57, 0
3, 122160, Note_on_c, 0, 61, 54
3, 122380, Note_on_c, 0, 61, 0
3, 122380, Note_on_c, 0, 40, 0
3, 122400, Note_on_c, 0, 38, 56
3, 122400, Note_on_c, 0, 45, 56
3, 122640, Note_on_c, 0, 61, 56
3, 122880, Note_on_c, 0, 61, 0
3, 122880, Note_on_c, 0, 54, 48
3, 122880, Note_on_c, 0, 57, 48
3, 122880, Note_on_c, 0, 61, 48
3, 123360, Note_on_c, 0, 61, 0
3, 123360, Note_on_c, 0, 54, 0
3, 123360, Note_on_c, 0, 57, 0
3, 123360, Note_on_c, 0, 45, 52
3, 123840, Note_on_c, 0, 45, 0
3, 123840, Note_on_c, 0, 45, 0
3, 123840, Note_on_c, 0, 38, 0
3, 123840, Note_on_c, 0, 32, 53
3, 123840, Note_on_c, 0, 44, 53
3, 124080, Note_on_c, 0, 56, 43
3, 124080, Note_on_c, 0, 59, 43
3, 124200, Note_on_c, 0, 59, 0
3, 124200, Note_on_c, 0, 56, 0
3, 124200, Note_on_c, 0, 53, 36
3, 124200, Note_on_c, 0, 57, 40
3, 124320, Note_on_c, 0, 57, 0
3, 124320, Note_on_c, 0, 32, 0
3, 124320, Note_on_c, 0, 44, 0
3, 124320, Note_on_c, 0, 53, 0
3, 124320, Note_on_c, 0, 50, 43
3, 124320, Note_on_c, 0, 56, 43
3, 124320, Note_on_c, 0, 59, 43
3, 124800, Note_on_c, 0, 59, 0
3, 124800, Note_on_c, 0, 56, 0
3, 124800, Note_on_c, 0, 50, 0
3, 124800, Note_on_c, 0, 44, 45
3, 125280, Note_on_c, 0, 44, 0
3, 125280, Note_on_c, 0, 38, 57
3, 125280, Note_on_c, 0, 45, 57
3, 125520, Note_on_c, 0, 61, 56
3, 125760, Note_on_c, 0, 61, 0
3, 125760, Note_on_c, 0, 45, 0
3, 125760, Note_on_c, 0, 38, 0
3, 125760, Note_on_c, 0, 54, 48
3, 125760, Note_on_c, 0, 57, 48
3, 125760, Note_on_c, 0, 61, 48
3, 126240, Note_on_c, 0, 61, 0
3, 126240, Note_on_c, 0, 57, 0
3, 126240, Note_on_c, 0, 54, 0
3, 126240, Note_on_c, 0, 45, 52
3, 126720, Note_on_c, 0, 45, 0
3, 126720, Note_on_c, 0, 35, 53
3, 126720, Note_on_c, 0, 47, 53
3, 127200, Note_on_c, 0, 47, 0
3, 127200, Note_on_c, 0, 35, 0
3, 127200, Note_on_c, 0, 54, 47
3, 127200, Note_on_c, 0, 59, 47
3, 127200, Note_on_c, 0, 62, 47
3, 127680, Note_on_c, 0, 62, 0
3, 127680, Note_on_c, 0, 59, 0
3, 127680, Note_on_c, 0, 54, 0
3, 127680, Note_on_c, 0, 45, 45
3, 127680, Note_on_c, 0, 33, 45
3, 128160, Note_on_c, 0, 33, 0
3, 128160, Note_on_c, 0, 45, 0
3, 128160, Note_on_c, 0, 32, 57
3, 128160, Note_on_c, 0, 44, 57
3, 128400, Note_on_c, 0, 62, 56
3, 128640, Note_on_c, 0, 62, 0
3, 128640, Note_on_c, 0, 44, 0
3, 128640, Note_on_c, 0, 32, 0
3, 128640, Note_on_c, 0, 56, 48
3, 128640, Note_on_c, 0, 59, 48
3, 128640, Note_on_c, 0, 62, 48
3, 129120, Note_on_c, 0, 62, 0
3, 129120, Note_on_c, 0, 64, 47
3, 129120, Note_on_c, 0, 61, 47
3, 129360, Note_on_c, 0, 61, 0
3, 129360, Note_on_c, 0, 64, 0
3, 129360, Note_on_c, 0, 62, 47
3, 129360, Note_on_c, 0, 66, 47
3, 129600, Note_on_c, 0, 66, 0
3, 129600, Note_on_c, 0, 56, 0
3, 129600, Note_on_c, 0, 59, 0
3, 129600, Note_on_c, 0, 62, 0
3, 129600, Note_on_c, 0, 37, 53
3, 129600, Note_on_c, 0, 49, 53
3, 129840, Note_on_c, 0, 65, 51
3, 129840, Note_on_c, 0, 68, 51
3, 129960, Note_on_c, 0, 68, 0
3, 129960, Note_on_c, 0, 65, 0
3, 129960, Note_on_c, 0, 63, 51
3, 129960, Note_on_c, 0, 66, 51
3, 130080, Note_on_c, 0, 66, 0
3, 130080, Note_on_c, 0, 37, 0
3, 130080, Note_on_c, 0, 49, 0
3, 130080, Note_on_c, 0, 63, 0
3, 130080, Note_on_c, 0, 59, 53
3, 130080, Note_on_c, 0, 65, 54
3, 130080, Note_on_c, 0, 68, 54
3, 130300, Note_on_c, 0, 68, 0
3, 130300, Note_on_c, 0, 65, 0
3, 130320, Note_on_c, 0, 61, 54
3, 130320, Note_on_c, 0, 65, 54
3, 130560, Note_on_c, 0, 65, 0
3, 130560, Note_on_c, 0, 61, 0
3, 130560, Note_on_c, 0, 63, 58
3, 130560, Note_on_c, 0, 66, 58
3, 130800, Note_on_c, 0, 66, 0
3, 130800, Note_on_c, 0, 63, 0
3, 130800, Note_on_c, 0, 65, 62
3, 130800, Note_on_c, 0, 68, 62
3, 131040, Note_on_c, 0, 68, 0
3, 131040, Note_on_c, 0, 65, 0
3, 131040, Note_on_c, 0, 59, 0
3, 131040, Note_on_c, 0, 42, 74
3, 131040, Note_on_c, 0, 49, 74
3, 131280, Note_on_c, 0, 66, 73
3, 131520, Note_on_c, 0, 66, 0
3, 131520, Note_on_c, 0, 49, 0
3, 131520, Note_on_c, 0, 42, 0
3, 131520, Note_on_c, 0, 57, 71
3, 131520, Note_on_c, 0, 61, 71
3, 131520, Note_on_c, 0, 66, 71
3, 132000, Note_on_c, 0, 66, 0
3, 132000, Note_on_c, 0, 61, 0
3, 132000, Note_on_c, 0, 57, 0
3, 132000, Note_on_c, 0, 54, 66
3, 132000, Note_on_c, 0, 57, 66
3, 132000, Note_on_c, 0, 61, 66
3, 132480, Note_on_c, 0, 61, 0
3, 132480, Note_on_c, 0, 57, 0
3, 132480, Note_on_c, 0, 54, 0
3, 132480, Note_on_c, 0, 38, 74
3, 132480, Note_on_c, 0, 45, 74
3, 132720, Note_on_c, 0, 50, 57
3, 132720, Note_on_c, 0, 54, 57
3, 132720, Note_on_c, 0, 57, 57
3, 132960, Note_on_c, 0, 57, 0
3, 132960, Note_on_c, 0, 50, 0
3, 132960, Note_on_c, 0, 54, 0
3, 132960, Note_on_c, 0, 54, 57
3, 132960, Note_on_c, 0, 57, 57
3, 132960, Note_on_c, 0, 62, 57
3, 133440, Note_on_c, 0, 62, 0
3, 133440, Note_on_c, 0, 54, 0
3, 133440, Note_on_c, 0, 57, 0
3, 133440, Note_on_c, 0, 66, 60
3, 133440, Note_on_c, 0, 62, 60
3, 133440, Note_on_c, 0, 57, 60
3, 133680, Note_on_c, 0, 57, 0
3, 133680, Note_on_c, 0, 66, 0
3, 133680, Note_on_c, 0, 62, 0
3, 133680, Note_on_c, 0, 69, 59
3, 133680, Note_on_c, 0, 66, 59
3, 133680, Note_on_c, 0, 62, 59
3, 133920, Note_on_c, 0, 62, 0
3, 133920, Note_on_c, 0, 69, 0
3, 133920, Note_on_c, 0, 38, 0
3, 133920, Note_on_c, 0, 45, 0
3, 133920, Note_on_c, 0, 66, 0
3, 133920, Note_on_c, 0, 62, 64
3, 133920, Note_on_c, 0, 66, 64
3, 133920, Note_on_c, 0, 69, 64
3, 135360, Note_on_c, 0, 69, 0
3, 135360, Note_on_c, 0, 66, 0
3, 135360, Note_on_c, 0, 62, 0
3, 135360, Note_on_c, 0, 35, 52
3, 135360, Note_on_c, 0, 47, 52
3, 135600, Note_on_c, 0, 50, 45
3, 135600, Note_on_c, 0, 57, 45
3, 135600, Note_on_c, 0, 54, 45
3, 135840, Note_on_c, 0, 54, 0
3, 135840, Note_on_c, 0, 50, 0
3, 135840, Note_on_c, 0, 57, 0
3, 135840, Note_on_c, 0, 54, 44
3, 135840, Note_on_c, 0, 57, 44
3, 135840, Note_on_c, 0, 62, 44
3, 136320, Note_on_c, 0, 62, 0
3, 136320, Note_on_c, 0, 54, 0
3, 136320, Note_on_c, 0, 57, 0
3, 136320, Note_on_c, 0, 66, 44
3, 136320, Note_on_c, 0, 62, 44
3, 136320, Note_on_c, 0, 57, 44
3, 136560, Note_on_c, 0, 57, 0
3, 136560, Note_on_c, 0, 66, 0
3, 136560, Note_on_c, 0, 62, 0
3, 136560, Note_on_c, 0, 69, 41
3, 136560, Note_on_c, 0, 66, 41
3, 136560, Note_on_c, 0, 62, 41
3, 136800, Note_on_c, 0, 62, 0
3, 136800, Note_on_c, 0, 69, 0
3, 136800, Note_on_c, 0, 35, 0
3, 136800, Note_on_c, 0, 47, 0
3, 136800, Note_on_c, 0, 66, 0
3, 136800, Note_on_c, 0, 69, 41
3, 136800, Note_on_c, 0, 66, 41
3, 136800, Note_on_c, 0, 62, 41
3, 137280, Note_on_c, 0, 62, 0
3, 137280, Note_on_c, 0, 66, 0
3, 137280, Note_on_c, 0, 69, 0
3, 137760, Note_on_c, 0, 71, 35
3, 137760, Note_on_c, 0, 66, 35
3, 137760, Note_on_c, 0, 62, 35
3, 137760, Note_on_c, 0, 59, 35
3, 137880, Note_on_c, 0, 59, 0
3, 137880, Note_on_c, 0, 71, 0
3, 137880, Note_on_c, 0, 66, 0
3, 137880, Note_on_c, 0, 62, 0
3, 138240, Note_on_c, 0, 33, 38
3, 138240, Note_on_c, 0, 40, 38
3, 138240, Note_on_c, 0, 45, 38
3, 138330, Note_on_c, 0, 45, 0
3, 138330, Note_on_c, 0, 40, 0
3, 138330, Note_on_c, 0, 33, 0
3, 138480, Note_on_c, 0, 60, 34
3, 138480, Note_on_c, 0, 57, 34
3, 138600, Note_on_c, 0, 57, 0
3, 138600, Note_on_c, 0, 60, 0
3, 138600, Note_on_c, 0, 52, 34
3, 138600, Note_on_c, 0, 59, 34
3, 138720, Note_on_c, 0, 59, 0
3, 138720, Note_on_c, 0, 52, 0
3, 138720, Note_on_c, 0, 60, 37
3, 138720, Note_on_c, 0, 57, 37
3, 138750, Note_on_c, 0, 57, 0
3, 138750, Note_on_c, 0, 60, 0
3, 138960, Note_on_c, 0, 60, 33
3, 138960, Note_on_c, 0, 57, 33
3, 139020, Note_on_c, 0, 57, 0
3, 139020, Note_on_c, 0, 60, 0
3, 139440, Note_on_c, 0, 43, 33
3, 139440, Note_on_c, 0, 50, 33
3, 139440, Note_on_c, 0, 55, 33
3, 139500, Note_on_c, 0, 55, 0
3, 139500, Note_on_c, 0, 50, 0
3, 139500, Note_on_c, 0, 43, 0
3, 139680, Note_on_c, 0, 36, 36
3, 139680, Note_on_c, 0, 43, 36
3, 139680, Note_on_c, 0, 48, 36
3, 139740, Note_on_c, 0, 48, 0
3, 139740, Note_on_c, 0, 43, 0
3, 139740, Note_on_c, 0, 36, 0
3, 139920, Note_on_c, 0, 64, 34
3, 139920, Note_on_c, 0, 60, 34
3, 140040, Note_on_c, 0, 60, 0
3, 140040, Note_on_c, 0, 64, 0
3, 140040, Note_on_c, 0, 55, 34
3, 140040, Note_on_c, 0, 62, 34
3, 140160, Note_on_c, 0, 62, 0
3, 140160, Note_on_c, 0, 55, 0
3, 140160, Note_on_c, 0, 60, 36
3, 140160, Note_on_c, 0, 64, 36
3, 140190, Note_on_c, 0, 64, 0
3, 140190, Note_on_c, 0, 60, 0
3, 140400, Note_on_c, 0, 60, 33
3, 140400, Note_on_c, 0, 64, 33
3, 140460, Note_on_c, 0, 64, 0
3, 140460, Note_on_c, 0, 60, 0
3, 140880, Note_on_c, 0, 43, 33
3, 140880, Note_on_c, 0, 50, 33
3, 140880, Note_on_c, 0, 55, 33
3, 140940, Note_on_c, 0, 55, 0
3, 140940, Note_on_c, 0, 50, 0
3, 140940, Note_on_c, 0, 43, 0
3, 141120, Note_on_c, 0, 45, 35
3, 141120, Note_on_c, 0, 52, 35
3, 141120, Note_on_c, 0, 57, 35
3, 141180, Note_on_c, 0, 57, 0
3, 141180, Note_on_c, 0, 52, 0
3, 141180, Note_on_c, 0, 45, 0
3, 141360, Note_on_c, 0, 57, 34
3, 141360, Note_on_c, 0, 60, 34
3, 141480, Note_on_c, 0, 60, 0
3, 141480, Note_on_c, 0, 57, 0
3, 141480, Note_on_c, 0, 52, 34
3, 141480, Note_on_c, 0, 59, 34
3, 141600, Note_on_c, 0, 59, 0
3, 141600, Note_on_c, 0, 52, 0
3, 141600, Note_on_c, 0, 60, 36
3, 141600, Note_on_c, 0, 57, 36
3, 141630, Note_on_c, 0, 57, 0
3, 141630, Note_on_c, 0, 60, 0
3, 141840, Note_on_c, 0, 60, 32
3, 141840, Note_on_c, 0, 57, 32
3, 141900, Note_on_c, 0, 57, 0
3, 141900, Note_on_c, 0, 60, 0
3, 142320, Note_on_c, 0, 43, 32
3, 142320, Note_on_c, 0, 50, 32
3, 142320, Note_on_c, 0, 55, 32
3, 142380, Note_on_c, 0, 55, 0
3, 142380, Note_on_c, 0, 50, 0
3, 142380, Note_on_c, 0, 43, 0
3, 142560, Note_on_c, 0, 36, 37
3, 142560, Note_on_c, 0, 43, 37
3, 142560, Note_on_c, 0, 48, 37
3, 142620, Note_on_c, 0, 48, 0
3, 142620, Note_on_c, 0, 43, 0
3, 142620, Note_on_c, 0, 36, 0
3, 142800, Note_on_c, 0, 64, 33
3, 142800, Note_on_c, 0, 60, 33
3, 142920, Note_on_c, 0, 60, 0
3, 142920, Note_on_c, 0, 64, 0
3, 142920, Note_on_c, 0, 55, 33
3, 142920, Note_on_c, 0, 62, 33
3, 143040, Note_on_c, 0, 62, 0
3, 143040, Note_on_c, 0, 55, 0
3, 143040, Note_on_c, 0, 60, 35
3, 143040, Note_on_c, 0, 64, 35
3, 143070, Note_on_c, 0, 64, 0
3, 143070, Note_on_c, 0, 60, 0
3, 143280, Note_on_c, 0, 60, 32
3, 143280, Note_on_c, 0, 64, 32
3, 143340, Note_on_c, 0, 64, 0
3, 143340, Note_on_c, 0, 60, 0
3, 143760, Note_on_c, 0, 64, 32
3, 143760, Note_on_c, 0, 59, 32
3, 143760, Note_on_c, 0, 52, 32
3, 143820, Note_on_c, 0, 52, 0
3, 143820, Note_on_c, 0, 59, 0
3, 143820, Note_on_c, 0, 64, 0
3, 144000, Note_on_c, 0, 52, 34
3, 144000, Note_on_c, 0, 59, 34
3, 144000, Note_on_c, 0, 64, 34
3, 144060, Note_on_c, 0, 64, 0
3, 144060, Note_on_c, 0, 59, 0
3, 144060, Note_on_c, 0, 52, 0
3, 144480, Note_on_c, 0, 40, 40
3, 144720, Note_on_c, 0, 40, 0
3, 144960, Note_on_c, 0, 52, 44
3, 145200, Note_on_c, 0, 52, 0
3, 145920, Note_on_c, 0, 36, 38
3, 146160, Note_on_c, 0, 36, 0
3, 146400, Note_on_c, 0, 35, 36
3, 146640, Note_on_c, 0, 35, 0
3, 146880, Note_on_c, 0, 33, 36
3, 147120, Note_on_c, 0, 33, 0
3, 148320, Note_on_c, 0, 33, 24
3, 148320, Note_on_c, 0, 45, 24
3, 148440, Note_on_c, 0, 45, 0
3, 148440, Note_on_c, 0, 33, 0
3, 148440, End_track
4, 0, Start_track
4, 0, Title_t, "Pedal"
4, 2020, Control_c, 0, 64, 127
4, 2143, Control_c, 0, 64, 0
4, 3457, Control_c, 0, 64, 127
4, 3610, Control_c, 0, 64, 0
4, 4337, Control_c, 0, 64, 127
4, 4564, Control_c, 0, 64, 0
4, 4909, Control_c, 0, 64, 127
4, 5056, Control_c, 0, 64, 0
4, 5349, Control_c, 0, 64, 127
4, 5536, Control_c, 0, 64, 0
4, 5806, Control_c, 0, 64, 127
4, 6010, Control_c, 0, 64, 0
4, 6057, Control_c, 0, 64, 127
4, 6212, Control_c, 0, 64, 0
4, 6251, Control_c, 0, 64, 127
4, 6487, Control_c, 0, 64, 0
4, 6745, Control_c, 0, 64, 127
4, 6974, Control_c, 0, 64, 0
4, 7020, Control_c, 0, 64, 127
4, 7206, Control_c, 0, 64, 0
4, 7267, Control_c, 0, 64, 127
4, 7451, Control_c, 0, 64, 0
4, 7744, Control_c, 0, 64, 127
4, 7936, Control_c, 0, 64, 0
4, 7984, Control_c, 0, 64, 127
4, 8167, Control_c, 0, 64, 0
4, 8213, Control_c, 0, 64, 127
4, 8411, Control_c, 0, 64, 0
4, 8640, Control_c, 0, 64, 127
4, 8894, Control_c, 0, 64, 0
4, 8926, Control_c, 0, 64, 127
4, 9134, Control_c, 0, 64, 0
4, 9180, Control_c, 0, 64, 127
4, 9364, Control_c, 0, 64, 0
4, 11308, Control_c, 0, 64, 127
4, 11520, Control_c, 0, 64, 0
4, 12727, Control_c, 0, 64, 127
4, 12960, Control_c, 0, 64, 0
4, 17892, Control_c, 0, 64, 127
4, 18009, Control_c, 0, 64, 0
4, 19327, Control_c, 0, 64, 127
4, 19458, Control_c, 0, 64, 0
4, 20766, Control_c, 0, 64, 127
4, 20889, Control_c, 0, 64, 0
4, 25977, Control_c, 0, 64, 127
4, 26165, Control_c, 0, 64, 0
4, 27400, Control_c, 0, 64, 127
4, 27605, Control_c, 0, 64, 0
4, 28848, Control_c, 0, 64, 127
4, 29047, Control_c, 0, 64, 0
4, 30286, Control_c, 0, 64, 127
4, 30486, Control_c, 0, 64, 0
4, 30800, Control_c, 0, 64, 127
4, 30969, Control_c, 0, 64, 0
4, 31240, Control_c, 0, 64, 127
4, 31444, Control_c, 0, 64, 0
4, 32897, Control_c, 0, 64, 127
4, 33125, Control_c, 0, 64, 0
4, 33205, Control_c, 0, 64, 127
4, 33381, Control_c, 0, 64, 0
4, 33657, Control_c, 0, 64, 127
4, 33856, Control_c, 0, 64, 0
4, 34179, Control_c, 0, 64, 127
4, 34338, Control_c, 0, 64, 0
4, 36497, Control_c, 0, 64, 127
4, 36968, Control_c, 0, 64, 0
4, 37035, Control_c, 0, 64, 127
4, 37446, Control_c, 0, 64, 0
4, 37515, Control_c, 0, 64, 127
4, 37935, Control_c, 0, 64, 0
4, 38000, Control_c, 0, 64, 127
4, 38172, Control_c, 0, 64, 0
4, 38252, Control_c, 0, 64, 127
4, 38880, Control_c, 0, 64, 0
4, 39429, Control_c, 0, 64, 127
4, 39852, Control_c, 0, 64, 0
4, 39915, Control_c, 0, 64, 127
4, 40320, Control_c, 0, 64, 0
4, 40400, Control_c, 0, 64, 127
4, 40819, Control_c, 0, 64, 0
4, 40880, Control_c, 0, 64, 127
4, 41052, Control_c, 0, 64, 0
4, 41143, Control_c, 0, 64, 127
4, 41760, Control_c, 0, 64, 0
4, 42343, Control_c, 0, 64, 127
4, 42728, Control_c, 0, 64, 0
4, 42795, Control_c, 0, 64, 127
4, 43200, Control_c, 0, 64, 0
4, 43269, Control_c, 0, 64, 127
4, 44169, Control_c, 0, 64, 0
4, 44229, Control_c, 0, 64, 127
4, 44640, Control_c, 0, 64, 0
4, 45143, Control_c, 0, 64, 127
4, 45619, Control_c, 0, 64, 0
4, 45692, Control_c, 0, 64, 127
4, 46080, Control_c, 0, 64, 0
4, 46149, Control_c, 0, 64, 127
4, 47049, Control_c, 0, 64, 0
4, 47109, Control_c, 0, 64, 127
4, 47275, Control_c, 0, 64, 0
4, 47326, Control_c, 0, 64, 127
4, 47563, Control_c, 0, 64, 0
4, 47640, Control_c, 0, 64, 127
4, 47780, Control_c, 0, 64, 0
4, 47873, Control_c, 0, 64, 127
4, 48265, Control_c, 0, 64, 0
4, 48346, Control_c, 0, 64, 127
4, 48741, Control_c, 0, 64, 0
4, 48819, Control_c, 0, 64, 127
4, 48964, Control_c, 0, 64, 0
4, 49029, Control_c, 0, 64, 127
4, 49447, Control_c, 0, 64, 0
4, 49532, Control_c, 0, 64, 127
4, 50407, Control_c, 0, 64, 0
4, 50475, Control_c, 0, 64, 127
4, 50904, Control_c, 0, 64, 0
4, 50977, Control_c, 0, 64, 127
4, 51847, Control_c, 0, 64, 0
4, 51903, Control_c, 0, 64, 127
4, 52330, Control_c, 0, 64, 0
4, 52406, Control_c, 0, 64, 127
4, 53280, Control_c, 0, 64, 0
4, 53379, Control_c, 0, 64, 127
4, 53785, Control_c, 0, 64, 0
4, 53866, Control_c, 0, 64, 127
4, 54248, Control_c, 0, 64, 0
4, 54339, Control_c, 0, 64, 127
4, 54729, Control_c, 0, 64, 0
4, 54790, Control_c, 0, 64, 127
4, 55209, Control_c, 0, 64, 0
4, 55270, Control_c, 0, 64, 127
4, 55696, Control_c, 0, 64, 0
4, 55794, Control_c, 0, 64, 127
4, 56160, Control_c, 0, 64, 0
4, 56259, Control_c, 0, 64, 127
4, 56645, Control_c, 0, 64, 0
4, 56760, Control_c, 0, 64, 127
4, 57136, Control_c, 0, 64, 0
4, 57219, Control_c, 0, 64, 127
4, 57608, Control_c, 0, 64, 0
4, 57636, Control_c, 0, 64, 127
4, 58099, Control_c, 0, 64, 0
4, 58137, Control_c, 0, 64, 127
4, 58568, Control_c, 0, 64, 0
4, 58627, Control_c, 0, 64, 127
4, 59040, Control_c, 0, 64, 0
4, 62538, Control_c, 0, 64, 127
4, 62665, Control_c, 0, 64, 0
4, 63963, Control_c, 0, 64, 127
4, 64085, Control_c, 0, 64, 0
4, 65810, Control_c, 0, 64, 127
4, 66187, Control_c, 0, 64, 0
4, 67250, Control_c, 0, 64, 127
4, 67680, Control_c, 0, 64, 0
4, 68319, Control_c, 0, 64, 127
4, 68404, Control_c, 0, 64, 0
4, 68443, Control_c, 0, 64, 127
4, 68653, Control_c, 0, 64, 0
4, 70603, Control_c, 0, 64, 127
4, 71532, Control_c, 0, 64, 0
4, 71573, Control_c, 0, 64, 127
4, 71771, Control_c, 0, 64, 0
4, 71803, Control_c, 0, 64, 127
4, 71972, Control_c, 0, 64, 0
4, 72078, Control_c, 0, 64, 127
4, 72247, Control_c, 0, 64, 0
4, 72332, Control_c, 0, 64, 127
4, 72501, Control_c, 0, 64, 0
4, 72579, Control_c, 0, 64, 127
4, 72724, Control_c, 0, 64, 0
4, 72812, Control_c, 0, 64, 127
4, 72967, Control_c, 0, 64, 0
4, 73285, Control_c, 0, 64, 127
4, 73449, Control_c, 0, 64, 0
4, 73486, Control_c, 0, 64, 127
4, 74407, Control_c, 0, 64, 0
4, 74453, Control_c, 0, 64, 127
4, 74652, Control_c, 0, 64, 0
4, 74686, Control_c, 0, 64, 127
4, 74880, Control_c, 0, 64, 0
4, 74993, Control_c, 0, 64, 127
4, 75138, Control_c, 0, 64, 0
4, 75219, Control_c, 0, 64, 127
4, 75369, Control_c, 0, 64, 0
4, 75438, Control_c, 0, 64, 127
4, 75610, Control_c, 0, 64, 0
4, 75678, Control_c, 0, 64, 127
4, 75854, Control_c, 0, 64, 0
4, 76130, Control_c, 0, 64, 127
4, 76320, Control_c, 0, 64, 0
4, 76369, Control_c, 0, 64, 127
4, 77289, Control_c, 0, 64, 0
4, 77312, Control_c, 0, 64, 127
4, 77526, Control_c, 0, 64, 0
4, 77563, Control_c, 0, 64, 127
4, 77767, Control_c, 0, 64, 0
4, 77823, Control_c, 0, 64, 127
4, 78007, Control_c, 0, 64, 0
4, 78063, Control_c, 0, 64, 127
4, 78249, Control_c, 0, 64, 0
4, 78326, Control_c, 0, 64, 127
4, 78491, Control_c, 0, 64, 0
4, 78543, Control_c, 0, 64, 127
4, 78728, Control_c, 0, 64, 0
4, 79006, Control_c, 0, 64, 127
4, 79207, Control_c, 0, 64, 0
4, 79246, Control_c, 0, 64, 127
4, 80170, Control_c, 0, 64, 0
4, 80200, Control_c, 0, 64, 127
4, 80412, Control_c, 0, 64, 0
4, 80457, Control_c, 0, 64, 127
4, 80647, Control_c, 0, 64, 0
4, 80690, Control_c, 0, 64, 127
4, 80894, Control_c, 0, 64, 0
4, 80937, Control_c, 0, 64, 127
4, 81124, Control_c, 0, 64, 0
4, 81159, Control_c, 0, 64, 127
4, 81368, Control_c, 0, 64, 0
4, 81420, Control_c, 0, 64, 127
4, 81609, Control_c, 0, 64, 0
4, 85006, Control_c, 0, 64, 127
4, 85450, Control_c, 0, 64, 0
4, 85966, Control_c, 0, 64, 127
4, 86354, Control_c, 0, 64, 0
4, 87406, Control_c, 0, 64, 127
4, 87605, Control_c, 0, 64, 0
4, 87646, Control_c, 0, 64, 127
4, 87847, Control_c, 0, 64, 0
4, 89572, Control_c, 0, 64, 127
4, 89772, Control_c, 0, 64, 0
4, 91708, Control_c, 0, 64, 127
4, 92166, Control_c, 0, 64, 0
4, 93869, Control_c, 0, 64, 127
4, 94087, Control_c, 0, 64, 0
4, 95155, Control_c, 0, 64, 127
4, 95537, Control_c, 0, 64, 0
4, 96057, Control_c, 0, 64, 127
4, 96480, Control_c, 0, 64, 0
4, 97497, Control_c, 0, 64, 127
4, 97925, Control_c, 0, 64, 0
4, 99603, Control_c, 0, 64, 127
4, 99835, Control_c, 0, 64, 0
4, 103737, Control_c, 0, 64, 127
4, 104654, Control_c, 0, 64, 0
4, 104704, Control_c, 0, 64, 127
4, 106101, Control_c, 0, 64, 0
4, 107160, Control_c, 0, 64, 127
4, 107284, Control_c, 0, 64, 0
4, 107319, Control_c, 0, 64, 127
4, 107530, Control_c, 0, 64, 0
4, 108660, Control_c, 0, 64, 127
4, 108736, Control_c, 0, 64, 0
4, 108777, Control_c, 0, 64, 127
4, 108967, Control_c, 0, 64, 0
4, 109006, Control_c, 0, 64, 127
4, 109209, Control_c, 0, 64, 0
4, 110023, Control_c, 0, 64, 127
4, 110172, Control_c, 0, 64, 0
4, 110213, Control_c, 0, 64, 127
4, 110407, Control_c, 0, 64, 0
4, 111506, Control_c, 0, 64, 127
4, 111607, Control_c, 0, 64, 0
4, 111644, Control_c, 0, 64, 127
4, 111845, Control_c, 0, 64, 0
4, 112361, Control_c, 0, 64, 127
4, 112565, Control_c, 0, 64, 0
4, 112595, Control_c, 0, 64, 127
4, 112811, Control_c, 0, 64, 0
4, 112968, Control_c, 0, 64, 127
4, 113049, Control_c, 0, 64, 0
4, 113081, Control_c, 0, 64, 127
4, 113290, Control_c, 0, 64, 0
4, 113814, Control_c, 0, 64, 127
4, 114022, Control_c, 0, 64, 0
4, 114060, Control_c, 0, 64, 127
4, 114253, Control_c, 0, 64, 0
4, 114392, Control_c, 0, 64, 127
4, 114487, Control_c, 0, 64, 0
4, 114518, Control_c, 0, 64, 127
4, 114723, Control_c, 0, 64, 0
4, 116570, Control_c, 0, 64, 127
4, 116640, Control_c, 0, 64, 0
4, 116704, Control_c, 0, 64, 127
4, 117129, Control_c, 0, 64, 0
4, 117212, Control_c, 0, 64, 127
4, 117611, Control_c, 0, 64, 0
4, 117720, Control_c, 0, 64, 127
4, 118080, Control_c, 0, 64, 0
4, 118172, Control_c, 0, 64, 127
4, 118818, Control_c, 0, 64, 0
4, 118913, Control_c, 0, 64, 127
4, 119527, Control_c, 0, 64, 0
4, 119626, Control_c, 0, 64, 127
4, 120016, Control_c, 0, 64, 0
4, 120106, Control_c, 0, 64, 127
4, 120493, Control_c, 0, 64, 0
4, 120565, Control_c, 0, 64, 127
4, 120960, Control_c, 0, 64, 0
4, 121045, Control_c, 0, 64, 127
4, 121693, Control_c, 0, 64, 0
4, 121786, Control_c, 0, 64, 127
4, 122414, Control_c, 0, 64, 0
4, 122457, Control_c, 0, 64, 127
4, 122648, Control_c, 0, 64, 0
4, 122704, Control_c, 0, 64, 127
4, 123840, Control_c, 0, 64, 0
4, 123909, Control_c, 0, 64, 127
4, 124096, Control_c, 0, 64, 0
4, 124155, Control_c, 0, 64, 127
4, 124333, Control_c, 0, 64, 0
4, 124395, Control_c, 0, 64, 127
4, 124815, Control_c, 0, 64, 0
4, 124897, Control_c, 0, 64, 127
4, 125280, Control_c, 0, 64, 0
4, 125612, Control_c, 0, 64, 127
4, 126720, Control_c, 0, 64, 0
4, 126847, Control_c, 0, 64, 127
4, 127692, Control_c, 0, 64, 0
4, 127772, Control_c, 0, 64, 127
4, 128656, Control_c, 0, 64, 0
4, 128746, Control_c, 0, 64, 127
4, 129136, Control_c, 0, 64, 0
4, 129191, Control_c, 0, 64, 127
4, 129635, Control_c, 0, 64, 0
4, 129697, Control_c, 0, 64, 127
4, 130109, Control_c, 0, 64, 0
4, 130166, Control_c, 0, 64, 127
4, 130337, Control_c, 0, 64, 0
4, 130400, Control_c, 0, 64, 127
4, 130579, Control_c, 0, 64, 0
4, 130623, Control_c, 0, 64, 127
4, 130819, Control_c, 0, 64, 0
4, 130880, Control_c, 0, 64, 127
4, 131047, Control_c, 0, 64, 0
4, 131104, Control_c, 0, 64, 127
4, 131528, Control_c, 0, 64, 0
4, 131612, Control_c, 0, 64, 127
4, 132508, Control_c, 0, 64, 0
4, 132572, Control_c, 0, 64, 127
4, 134414, Control_c, 0, 64, 0
4, 134520, Control_c, 0, 64, 127
4, 134897, Control_c, 0, 64, 0
4, 134972, Control_c, 0, 64, 127
4, 135360, Control_c, 0, 64, 0
4, 135445, Control_c, 0, 64, 127
4, 137782, Control_c, 0, 64, 0
4, 137880, Control_c, 0, 64, 127
4, 138240, Control_c, 0, 64, 0
4, 145971, Control_c, 0, 64, 127
4, 146931, Control_c, 0, 64, 0
4, 146931, End_track
5, 0, Start_track
5, 0, Title_t, "Debussy: Menuet from Suite bergamasque"
5, 0, End_track
6, 0, Start_track
6, 0, Title_t, "Copyright © 1998 by Bernd Krüger"
6, 0, End_track
7, 0, Start_track
7, 0, Title_t, "http://www.piano-midi.de"
7, 0, End_track
8, 0, Start_track
8, 0, Title_t, "Edition: 2011-08-09"
8, 0, End_track
0, 0, End_of_file
