0, 0, Header, 1, 17, 480
1, 0, Start_track
1, 0, Title_t, "Debussy: Childrens Corner 2"
1, 0, Title_t, "Jimbo's Lullaby"
1, 0, Copyright_t, "Copyright © 2011 by Bernd Krueger"
1, 0, Text_t, "Bernd Krueger"
1, 0, Text_t, "Erstellt: 24.4.2011\012"
1, 0, Text_t, "Dauer: 3:09 Minuten\012"
1, 0, Time_signature, 2, 1, 48, 8
1, 0, Key_signature, -2, "major"
1, 0, Tempo, 647738
1, 1440, Tempo, 598982
1, 1920, Tempo, 620668
1, 2160, Tempo, 700362
1, 2400, Tempo, 647459
1, 3360, Tempo, 627156
1, 4080, Tempo, 661740
1, 4320, Tempo, 627156
1, 4800, Tempo, 637146
1, 5280, Tempo, 627156
1, 9120, Tempo, 601987
1, 9600, Tempo, 601987
1, 9840, Tempo, 658111
1, 10080, Tempo, 627156
1, 11040, Tempo, 614314
1, 11280, Tempo, 647459
1, 11520, Tempo, 637146
1, 12000, Tempo, 623895
1, 12480, Tempo, 640547
1, 12960, Tempo, 661740
1, 13440, Tempo, 623895
1, 13920, Tempo, 650971
1, 14400, Tempo, 712843
1, 14880, Tempo, 861203
1, 15360, Tempo, 633781
1, 19200, Tempo, 617475
1, 19680, Tempo, 633781
1, 21120, Tempo, 620668
1, 21600, Tempo, 633781
1, 23040, Tempo, 620668
1, 23520, Tempo, 640547
1, 24000, Tempo, 637146
1, 24960, Tempo, 630451
1, 25440, Tempo, 661740
1, 25920, Tempo, 647459
1, 28800, Tempo, 661740
1, 31680, Tempo, 753107
1, 32640, Tempo, 782575
1, 34080, Tempo, 1181800
1, 34560, Tempo, 672872
1, 35520, Tempo, 620027
1, 36000, Tempo, 672118
1, 37440, Tempo, 626501
1, 37920, Tempo, 672118
1, 38400, Tempo, 647738
1, 39840, Tempo, 598982
1, 40320, Tempo, 620668
1, 40560, Tempo, 724900
1, 40800, Tempo, 647459
1, 41760, Tempo, 627156
1, 42240, Tempo, 604412
1, 42480, Tempo, 661740
1, 42720, Tempo, 627156
1, 43200, Tempo, 637146
1, 43680, Tempo, 672118
1, 44160, Tempo, 620027
1, 45600, Tempo, 601987
1, 46080, Tempo, 601987
1, 46320, Tempo, 695491
1, 46560, Tempo, 627156
1, 47520, Tempo, 614314
1, 47760, Tempo, 627156
1, 48000, Tempo, 637146
1, 48480, Tempo, 623895
1, 48960, Tempo, 640547
1, 49440, Tempo, 650971
1, 49920, Tempo, 589565
1, 50160, Tempo, 623247
1, 50400, Tempo, 650971
1, 50880, Tempo, 633781
1, 51360, Tempo, 725777
1, 51840, Tempo, 633781
1, 52800, Tempo, 601383
1, 53280, Tempo, 633112
1, 54240, Tempo, 592476
1, 54720, Tempo, 633781
1, 55680, Tempo, 633781
1, 56153, Tempo, 614314
1, 56160, Tempo, 604412
1, 56633, Tempo, 633781
1, 56640, Tempo, 575429
1, 57120, Tempo, 551623
1, 57360, Tempo, 683605
1, 57600, Tempo, 633781
1, 58080, Tempo, 570722
1, 58560, Tempo, 633781
1, 59520, Tempo, 633781
1, 59993, Tempo, 614314
1, 60000, Tempo, 599221
1, 60473, Tempo, 633781
1, 60480, Tempo, 593061
1, 60960, Tempo, 637146
1, 61440, Tempo, 581564
1, 61920, Tempo, 573230
1, 62160, Tempo, 607472
1, 62400, Tempo, 578760
1, 63360, Tempo, 590145
1, 63840, Tempo, 570505
1, 64320, Tempo, 620668
1, 64800, Tempo, 581564
1, 65280, Tempo, 581564
1, 65760, Tempo, 544811
1, 66240, Tempo, 525716
1, 66480, Tempo, 544811
1, 66720, Tempo, 567805
1, 66960, Tempo, 587257
1, 67200, Tempo, 590145
1, 67680, Tempo, 570505
1, 68160, Tempo, 605022
1, 68640, Tempo, 581564
1, 69120, Tempo, 596007
1, 69600, Tempo, 581564
1, 70560, Tempo, 601987
1, 71040, Tempo, 581564
1, 72480, Tempo, 611185
1, 72960, Tempo, 497636
1, 74880, Tempo, 497636
1, 76783, Tempo, 507743
1, 76793, Tempo, 501798
1, 76889, Tempo, 499709
1, 76985, Tempo, 497636
1, 77081, Tempo, 495581
1, 77177, Tempo, 493543
1, 77273, Tempo, 491521
1, 77369, Tempo, 489516
1, 77465, Tempo, 487527
1, 77561, Tempo, 485555
1, 77657, Tempo, 483598
1, 77753, Tempo, 481657
1, 77849, Tempo, 479731
1, 77945, Tempo, 477821
1, 78041, Tempo, 475926
1, 78137, Tempo, 474046
1, 78233, Tempo, 472181
1, 78329, Tempo, 470330
1, 78425, Tempo, 468494
1, 78521, Tempo, 466672
1, 78617, Tempo, 464864
1, 78713, Tempo, 459524
1, 78833, Tempo, 461290
1, 78929, Tempo, 463070
1, 79025, Tempo, 464864
1, 79121, Tempo, 466672
1, 79241, Tempo, 468494
1, 79337, Tempo, 470330
1, 79433, Tempo, 472181
1, 79529, Tempo, 474046
1, 79625, Tempo, 475926
1, 79745, Tempo, 477821
1, 79841, Tempo, 479731
1, 79937, Tempo, 481657
1, 80033, Tempo, 483598
1, 80129, Tempo, 485555
1, 80249, Tempo, 487527
1, 80345, Tempo, 489516
1, 80400, Tempo, 550105
1, 80633, Tempo, 499709
1, 82080, Tempo, 483364
1, 82529, Tempo, 501798
1, 82553, Tempo, 499709
1, 82560, Tempo, 503651
1, 82577, Tempo, 501798
1, 84000, Tempo, 479501
1, 84240, Tempo, 501546
1, 84461, Tempo, 498049
1, 84521, Tempo, 497636
1, 84665, Tempo, 495581
1, 84785, Tempo, 493543
1, 84929, Tempo, 491521
1, 85049, Tempo, 489516
1, 85193, Tempo, 487527
1, 85313, Tempo, 485555
1, 85457, Tempo, 483598
1, 85577, Tempo, 481657
1, 85721, Tempo, 479731
1, 85841, Tempo, 477821
1, 85985, Tempo, 475926
1, 86105, Tempo, 474046
1, 86249, Tempo, 472181
1, 86369, Tempo, 470330
1, 86633, Tempo, 468494
1, 86873, Tempo, 466672
1, 87113, Tempo, 464864
1, 87353, Tempo, 463070
1, 87593, Tempo, 461290
1, 87833, Tempo, 459524
1, 88073, Tempo, 457771
1, 88313, Tempo, 456031
1, 88320, Tempo, 490878
1, 88560, Tempo, 479118
1, 89280, Tempo, 492894
1, 89520, Tempo, 481039
1, 90240, Tempo, 490878
1, 90480, Tempo, 479118
1, 91200, Tempo, 492894
1, 91440, Tempo, 481039
1, 92160, Tempo, 490878
1, 92400, Tempo, 470847
1, 93120, Tempo, 492894
1, 93360, Tempo, 470847
1, 94080, Tempo, 490878
1, 94320, Tempo, 472701
1, 95040, Tempo, 492894
1, 95280, Tempo, 481039
1, 96000, Tempo, 490878
1, 96240, Tempo, 470847
1, 96960, Tempo, 472701
1, 97200, Tempo, 470847
1, 97920, Tempo, 490878
1, 98160, Tempo, 472701
1, 98880, Tempo, 476455
1, 99120, Tempo, 481039
1, 99600, Tempo, 565664
1, 99840, Tempo, 480269
1, 100320, Tempo, 463571
1, 101760, Tempo, 480269
1, 102240, Tempo, 472701
1, 102720, Tempo, 458260
1, 103440, Tempo, 490076
1, 103680, Tempo, 480269
1, 104160, Tempo, 472701
1, 104640, Tempo, 458260
1, 105360, Tempo, 490076
1, 105600, Tempo, 480269
1, 106080, Tempo, 472701
1, 106560, Tempo, 458260
1, 106800, Tempo, 510334
1, 107040, Tempo, 537779
1, 107280, Tempo, 614943
1, 107520, Tempo, 517554
1, 108000, Tempo, 504498
1, 108480, Tempo, 484144
1, 109200, Tempo, 502386
1, 109440, Tempo, 508776
1, 109920, Tempo, 496155
1, 110400, Tempo, 535380
1, 110880, Tempo, 579318
1, 111360, Tempo, 502386
1, 112320, Tempo, 492086
1, 112800, Tempo, 521422
1, 113280, Tempo, 499709
1, 114240, Tempo, 488083
1, 114720, Tempo, 498215
1, 114960, Tempo, 582129
1, 115200, Tempo, 517554
1, 116160, Tempo, 506628
1, 116640, Tempo, 526639
1, 117120, Tempo, 550105
1, 118080, Tempo, 576535
1, 118560, Tempo, 627812
1, 119040, Tempo, 612933
1, 120480, Tempo, 566786
1, 120960, Tempo, 587314
1, 121200, Tempo, 637823
1, 121440, Tempo, 612683
1, 122400, Tempo, 593413
1, 123120, Tempo, 626174
1, 123360, Tempo, 593413
1, 123840, Tempo, 602894
1, 124320, Tempo, 593413
1, 126240, Tempo, 569638
1, 126720, Tempo, 569638
1, 126960, Tempo, 622730
1, 127200, Tempo, 593413
1, 128160, Tempo, 581283
1, 128400, Tempo, 593413
1, 128640, Tempo, 611808
1, 129120, Tempo, 590377
1, 129600, Tempo, 606122
1, 130080, Tempo, 615953
1, 130560, Tempo, 590377
1, 131040, Tempo, 615953
1, 131520, Tempo, 599700
1, 132000, Tempo, 713691
1, 132480, Tempo, 593413
1, 132720, Tempo, 661740
1, 132960, Tempo, 599580
1, 133440, Tempo, 624545
1, 133920, Tempo, 608704
1, 135840, Tempo, 601987
1, 136320, Tempo, 627156
1, 136560, Tempo, 661740
1, 136800, Tempo, 605632
1, 137280, Tempo, 624545
1, 137760, Tempo, 627156
1, 138240, Tempo, 618111
1, 139680, Tempo, 624545
1, 139680, End_track
2, 0, Start_track
2, 0, Title_t, "Piano right"
2, 0, Program_c, 0, 0
2, 6240, Note_on_c, 0, 53, 21
2, 6240, Note_on_c, 0, 55, 25
2, 6360, Note_on_c, 0, 55, 0
2, 6360, Note_on_c, 0, 53, 0
2, 6480, Note_on_c, 0, 53, 21
2, 6480, Note_on_c, 0, 55, 25
2, 6600, Note_on_c, 0, 55, 0
2, 6600, Note_on_c, 0, 53, 0
2, 8640, Note_on_c, 0, 41, 19
2, 8640, Note_on_c, 0, 43, 23
2, 8760, Note_on_c, 0, 43, 0
2, 8760, Note_on_c, 0, 41, 0
2, 15360, Note_on_c, 0, 79, 40
2, 16320, Note_on_c, 0, 65, 17
2, 16320, Note_on_c, 0, 67, 21
2, 16440, Note_on_c, 0, 67, 0
2, 16440, Note_on_c, 0, 65, 0
2, 16560, Note_on_c, 0, 65, 17
2, 16560, Note_on_c, 0, 67, 21
2, 17280, Note_on_c, 0, 79, 0
2, 17760, Note_on_c, 0, 67, 0
2, 17760, Note_on_c, 0, 65, 0
2, 17760, Note_on_c, 0, 65, 17
2, 17760, Note_on_c, 0, 67, 21
2, 19200, Note_on_c, 0, 63, 33
2, 19680, Note_on_c, 0, 67, 0
2, 19680, Note_on_c, 0, 65, 0
2, 19680, Note_on_c, 0, 65, 17
2, 19680, Note_on_c, 0, 67, 21
2, 21120, Note_on_c, 0, 63, 0
2, 21120, Note_on_c, 0, 61, 33
2, 21600, Note_on_c, 0, 67, 0
2, 21600, Note_on_c, 0, 65, 0
2, 21600, Note_on_c, 0, 65, 17
2, 21600, Note_on_c, 0, 67, 21
2, 23040, Note_on_c, 0, 61, 0
2, 23040, Note_on_c, 0, 63, 33
2, 23520, Note_on_c, 0, 67, 0
2, 23520, Note_on_c, 0, 65, 0
2, 23520, Note_on_c, 0, 65, 17
2, 23520, Note_on_c, 0, 67, 21
2, 24000, Note_on_c, 0, 63, 0
2, 24000, Note_on_c, 0, 63, 33
2, 24960, Note_on_c, 0, 63, 0
2, 24960, Note_on_c, 0, 61, 35
2, 25440, Note_on_c, 0, 67, 0
2, 25440, Note_on_c, 0, 65, 0
2, 25440, Note_on_c, 0, 65, 17
2, 25440, Note_on_c, 0, 67, 21
2, 26880, Note_on_c, 0, 67, 0
2, 26880, Note_on_c, 0, 65, 0
2, 26880, Note_on_c, 0, 61, 0
2, 27360, Note_on_c, 0, 41, 22
2, 27360, Note_on_c, 0, 43, 26
2, 27480, Note_on_c, 0, 43, 0
2, 27480, Note_on_c, 0, 41, 0
2, 27600, Note_on_c, 0, 41, 24
2, 27600, Note_on_c, 0, 43, 29
2, 27720, Note_on_c, 0, 43, 0
2, 27720, Note_on_c, 0, 41, 0
2, 29760, Note_on_c, 0, 41, 19
2, 29760, Note_on_c, 0, 43, 23
2, 29880, Note_on_c, 0, 43, 0
2, 29880, Note_on_c, 0, 41, 0
2, 33600, Note_on_c, 0, 41, 19
2, 33600, Note_on_c, 0, 43, 23
2, 33720, Note_on_c, 0, 43, 0
2, 33720, Note_on_c, 0, 41, 0
2, 34560, Note_on_c, 0, 67, 26
2, 34560, Note_on_c, 0, 65, 26
2, 35040, Note_on_c, 0, 65, 0
2, 35040, Note_on_c, 0, 67, 0
2, 35040, Note_on_c, 0, 60, 17
2, 35040, Note_on_c, 0, 62, 21
2, 35520, Note_on_c, 0, 62, 0
2, 35520, Note_on_c, 0, 60, 0
2, 35520, Note_on_c, 0, 65, 24
2, 35520, Note_on_c, 0, 67, 24
2, 36000, Note_on_c, 0, 67, 0
2, 36000, Note_on_c, 0, 65, 0
2, 36000, Note_on_c, 0, 60, 17
2, 36000, Note_on_c, 0, 62, 21
2, 36480, Note_on_c, 0, 62, 0
2, 36480, Note_on_c, 0, 60, 0
2, 36480, Note_on_c, 0, 67, 25
2, 36480, Note_on_c, 0, 65, 21
2, 36960, Note_on_c, 0, 65, 0
2, 36960, Note_on_c, 0, 67, 0
2, 36960, Note_on_c, 0, 60, 17
2, 36960, Note_on_c, 0, 62, 21
2, 37440, Note_on_c, 0, 62, 0
2, 37440, Note_on_c, 0, 60, 0
2, 37440, Note_on_c, 0, 65, 19
2, 37440, Note_on_c, 0, 67, 23
2, 37920, Note_on_c, 0, 67, 0
2, 37920, Note_on_c, 0, 65, 0
2, 37920, Note_on_c, 0, 60, 17
2, 37920, Note_on_c, 0, 62, 21
2, 38400, Note_on_c, 0, 62, 0
2, 38400, Note_on_c, 0, 60, 0
2, 38400, Note_on_c, 0, 65, 30
2, 38880, Note_on_c, 0, 65, 0
2, 38880, Note_on_c, 0, 62, 36
2, 39840, Note_on_c, 0, 62, 0
2, 39840, Note_on_c, 0, 65, 34
2, 40080, Note_on_c, 0, 65, 0
2, 40080, Note_on_c, 0, 67, 34
2, 40320, Note_on_c, 0, 67, 0
2, 40320, Note_on_c, 0, 60, 36
2, 40560, Note_on_c, 0, 60, 0
2, 40560, Note_on_c, 0, 62, 30
2, 40800, Note_on_c, 0, 62, 0
2, 40800, Note_on_c, 0, 65, 36
2, 41760, Note_on_c, 0, 65, 0
2, 41760, Note_on_c, 0, 62, 30
2, 42000, Note_on_c, 0, 62, 0
2, 42000, Note_on_c, 0, 60, 27
2, 42220, Note_on_c, 0, 60, 0
2, 42240, Note_on_c, 0, 60, 34
2, 42480, Note_on_c, 0, 60, 0
2, 42480, Note_on_c, 0, 62, 28
2, 42700, Note_on_c, 0, 62, 0
2, 42720, Note_on_c, 0, 62, 31
2, 43200, Note_on_c, 0, 62, 0
2, 43200, Note_on_c, 0, 60, 31
2, 43680, Note_on_c, 0, 60, 0
2, 43680, Note_on_c, 0, 65, 35
2, 44160, Note_on_c, 0, 65, 0
2, 44160, Note_on_c, 0, 62, 29
2, 45600, Note_on_c, 0, 72, 33
2, 45840, Note_on_c, 0, 72, 0
2, 45840, Note_on_c, 0, 69, 29
2, 46080, Note_on_c, 0, 69, 0
2, 46080, Note_on_c, 0, 62, 0
2, 46080, Note_on_c, 0, 60, 21
2, 46080, Note_on_c, 0, 62, 21
2, 46080, Note_on_c, 0, 67, 33
2, 46320, Note_on_c, 0, 67, 0
2, 46320, Note_on_c, 0, 65, 32
2, 46560, Note_on_c, 0, 65, 0
2, 46560, Note_on_c, 0, 67, 33
2, 47520, Note_on_c, 0, 67, 0
2, 47520, Note_on_c, 0, 69, 37
2, 47760, Note_on_c, 0, 69, 0
2, 47760, Note_on_c, 0, 72, 33
2, 48000, Note_on_c, 0, 72, 0
2, 48000, Note_on_c, 0, 62, 0
2, 48000, Note_on_c, 0, 60, 0
2, 48000, Note_on_c, 0, 60, 21
2, 48000, Note_on_c, 0, 62, 21
2, 48000, Note_on_c, 0, 67, 42
2, 48480, Note_on_c, 0, 67, 0
2, 48480, Note_on_c, 0, 74, 42
2, 48960, Note_on_c, 0, 74, 0
2, 48960, Note_on_c, 0, 72, 35
2, 49440, Note_on_c, 0, 72, 0
2, 49440, Note_on_c, 0, 69, 33
2, 49920, Note_on_c, 0, 69, 0
2, 49920, Note_on_c, 0, 62, 0
2, 49920, Note_on_c, 0, 60, 0
2, 49920, Note_on_c, 0, 60, 21
2, 49920, Note_on_c, 0, 62, 21
2, 49920, Note_on_c, 0, 67, 32
2, 50160, Note_on_c, 0, 67, 0
2, 50160, Note_on_c, 0, 65, 26
2, 50400, Note_on_c, 0, 65, 0
2, 50400, Note_on_c, 0, 67, 33
2, 50880, Note_on_c, 0, 67, 0
2, 50880, Note_on_c, 0, 69, 35
2, 51360, Note_on_c, 0, 69, 0
2, 51360, Note_on_c, 0, 72, 41
2, 51840, Note_on_c, 0, 72, 0
2, 51840, Note_on_c, 0, 62, 0
2, 51840, Note_on_c, 0, 60, 0
2, 51840, Note_on_c, 0, 60, 21
2, 51840, Note_on_c, 0, 62, 21
2, 51840, Note_on_c, 0, 67, 34
2, 53760, Note_on_c, 0, 67, 0
2, 53760, Note_on_c, 0, 62, 0
2, 53760, Note_on_c, 0, 60, 0
2, 54240, Note_on_c, 0, 44, 21
2, 54240, Note_on_c, 0, 46, 25
2, 54360, Note_on_c, 0, 46, 0
2, 54360, Note_on_c, 0, 44, 0
2, 54480, Note_on_c, 0, 44, 21
2, 54480, Note_on_c, 0, 46, 25
2, 55200, Note_on_c, 0, 46, 0
2, 55200, Note_on_c, 0, 44, 0
2, 55200, Note_on_c, 0, 44, 21
2, 55200, Note_on_c, 0, 46, 25
2, 55320, Note_on_c, 0, 46, 0
2, 55320, Note_on_c, 0, 44, 0
2, 56880, Note_on_c, 0, 46, 31
2, 56880, Note_on_c, 0, 44, 26
2, 57360, Note_on_c, 0, 44, 0
2, 57360, Note_on_c, 0, 46, 0
2, 57360, Note_on_c, 0, 58, 37
2, 57360, Note_on_c, 0, 56, 31
2, 57600, Note_on_c, 0, 56, 0
2, 57600, Note_on_c, 0, 58, 0
2, 58080, Note_on_c, 0, 44, 21
2, 58080, Note_on_c, 0, 46, 25
2, 58200, Note_on_c, 0, 46, 0
2, 58200, Note_on_c, 0, 44, 0
2, 58320, Note_on_c, 0, 44, 21
2, 58320, Note_on_c, 0, 46, 25
2, 59040, Note_on_c, 0, 46, 0
2, 59040, Note_on_c, 0, 44, 0
2, 59040, Note_on_c, 0, 44, 21
2, 59040, Note_on_c, 0, 46, 25
2, 59160, Note_on_c, 0, 46, 0
2, 59160, Note_on_c, 0, 44, 0
2, 60000, Note_on_c, 0, 48, 31
2, 60000, Note_on_c, 0, 46, 26
2, 60120, Note_on_c, 0, 46, 0
2, 60120, Note_on_c, 0, 48, 0
2, 60480, Note_on_c, 0, 58, 31
2, 60480, Note_on_c, 0, 60, 37
2, 60600, Note_on_c, 0, 60, 0
2, 60600, Note_on_c, 0, 58, 0
2, 61920, Note_on_c, 0, 58, 26
2, 61920, Note_on_c, 0, 61, 26
2, 61920, Note_on_c, 0, 66, 31
2, 62040, Note_on_c, 0, 66, 0
2, 62040, Note_on_c, 0, 61, 0
2, 62040, Note_on_c, 0, 58, 0
2, 62160, Note_on_c, 0, 58, 26
2, 62160, Note_on_c, 0, 61, 26
2, 62160, Note_on_c, 0, 66, 31
2, 62280, Note_on_c, 0, 66, 0
2, 62280, Note_on_c, 0, 61, 0
2, 62280, Note_on_c, 0, 58, 0
2, 62400, Note_on_c, 0, 65, 29
2, 62400, Note_on_c, 0, 60, 24
2, 62400, Note_on_c, 0, 56, 24
2, 62880, Note_on_c, 0, 56, 0
2, 62880, Note_on_c, 0, 60, 0
2, 62880, Note_on_c, 0, 65, 0
2, 62880, Note_on_c, 0, 65, 25
2, 62880, Note_on_c, 0, 60, 21
2, 62880, Note_on_c, 0, 56, 21
2, 63360, Note_on_c, 0, 56, 0
2, 63360, Note_on_c, 0, 60, 0
2, 63360, Note_on_c, 0, 65, 0
2, 63840, Note_on_c, 0, 54, 26
2, 63840, Note_on_c, 0, 58, 26
2, 63840, Note_on_c, 0, 63, 31
2, 63960, Note_on_c, 0, 63, 0
2, 63960, Note_on_c, 0, 58, 0
2, 63960, Note_on_c, 0, 54, 0
2, 64080, Note_on_c, 0, 54, 26
2, 64080, Note_on_c, 0, 58, 26
2, 64080, Note_on_c, 0, 63, 31
2, 64200, Note_on_c, 0, 63, 0
2, 64200, Note_on_c, 0, 58, 0
2, 64200, Note_on_c, 0, 54, 0
2, 64320, Note_on_c, 0, 61, 29
2, 64320, Note_on_c, 0, 56, 24
2, 64320, Note_on_c, 0, 53, 24
2, 64800, Note_on_c, 0, 53, 0
2, 64800, Note_on_c, 0, 56, 0
2, 64800, Note_on_c, 0, 61, 0
2, 64800, Note_on_c, 0, 59, 21
2, 64800, Note_on_c, 0, 70, 35
2, 64800, Note_on_c, 0, 65, 27
2, 64800, Note_on_c, 0, 62, 21
2, 65280, Note_on_c, 0, 62, 0
2, 65280, Note_on_c, 0, 59, 0
2, 65280, Note_on_c, 0, 70, 0
2, 65280, Note_on_c, 0, 65, 0
2, 65760, Note_on_c, 0, 58, 26
2, 65760, Note_on_c, 0, 61, 26
2, 65760, Note_on_c, 0, 66, 31
2, 65880, Note_on_c, 0, 66, 0
2, 65880, Note_on_c, 0, 61, 0
2, 65880, Note_on_c, 0, 58, 0
2, 66000, Note_on_c, 0, 58, 26
2, 66000, Note_on_c, 0, 61, 26
2, 66000, Note_on_c, 0, 66, 31
2, 66120, Note_on_c, 0, 66, 0
2, 66120, Note_on_c, 0, 61, 0
2, 66120, Note_on_c, 0, 58, 0
2, 66240, Note_on_c, 0, 65, 29
2, 66240, Note_on_c, 0, 60, 24
2, 66240, Note_on_c, 0, 56, 24
2, 66360, Note_on_c, 0, 56, 0
2, 66360, Note_on_c, 0, 60, 0
2, 66360, Note_on_c, 0, 65, 0
2, 66480, Note_on_c, 0, 56, 22
2, 66480, Note_on_c, 0, 60, 22
2, 66480, Note_on_c, 0, 65, 27
2, 66600, Note_on_c, 0, 65, 0
2, 66600, Note_on_c, 0, 60, 0
2, 66600, Note_on_c, 0, 56, 0
2, 66720, Note_on_c, 0, 65, 25
2, 66720, Note_on_c, 0, 60, 21
2, 66720, Note_on_c, 0, 56, 21
2, 66840, Note_on_c, 0, 56, 0
2, 66840, Note_on_c, 0, 60, 0
2, 66840, Note_on_c, 0, 65, 0
2, 66960, Note_on_c, 0, 56, 19
2, 66960, Note_on_c, 0, 60, 19
2, 66960, Note_on_c, 0, 65, 23
2, 67080, Note_on_c, 0, 65, 0
2, 67080, Note_on_c, 0, 60, 0
2, 67080, Note_on_c, 0, 56, 0
2, 67680, Note_on_c, 0, 54, 26
2, 67680, Note_on_c, 0, 58, 26
2, 67680, Note_on_c, 0, 63, 31
2, 67800, Note_on_c, 0, 63, 0
2, 67800, Note_on_c, 0, 58, 0
2, 67800, Note_on_c, 0, 54, 0
2, 67920, Note_on_c, 0, 54, 26
2, 67920, Note_on_c, 0, 58, 26
2, 67920, Note_on_c, 0, 63, 31
2, 68040, Note_on_c, 0, 63, 0
2, 68040, Note_on_c, 0, 58, 0
2, 68040, Note_on_c, 0, 54, 0
2, 68160, Note_on_c, 0, 61, 29
2, 68160, Note_on_c, 0, 58, 24
2, 68160, Note_on_c, 0, 54, 24
2, 68640, Note_on_c, 0, 54, 0
2, 68640, Note_on_c, 0, 58, 0
2, 68640, Note_on_c, 0, 61, 0
2, 68640, Note_on_c, 0, 53, 21
2, 68640, Note_on_c, 0, 63, 27
2, 68640, Note_on_c, 0, 56, 21
2, 69120, Note_on_c, 0, 56, 0
2, 69120, Note_on_c, 0, 63, 0
2, 69120, Note_on_c, 0, 53, 0
2, 69120, Note_on_c, 0, 52, 19
2, 69120, Note_on_c, 0, 55, 19
2, 69120, Note_on_c, 0, 58, 24
2, 71520, Note_on_c, 0, 58, 0
2, 71520, Note_on_c, 0, 55, 0
2, 71520, Note_on_c, 0, 52, 0
2, 72960, Note_on_c, 0, 51, 20
2, 72960, Note_on_c, 0, 55, 24
2, 73920, Note_on_c, 0, 51, 0
2, 73920, Note_on_c, 0, 49, 20
2, 74880, Note_on_c, 0, 49, 0
2, 74880, Note_on_c, 0, 55, 0
2, 74880, Note_on_c, 0, 51, 20
2, 74880, Note_on_c, 0, 55, 24
2, 75360, Note_on_c, 0, 51, 0
2, 75360, Note_on_c, 0, 51, 20
2, 75840, Note_on_c, 0, 51, 0
2, 75840, Note_on_c, 0, 49, 20
2, 76800, Note_on_c, 0, 49, 0
2, 76800, Note_on_c, 0, 55, 0
2, 76800, Note_on_c, 0, 67, 24
2, 76800, Note_on_c, 0, 63, 24
2, 76800, Note_on_c, 0, 55, 24
2, 78720, Note_on_c, 0, 55, 0
2, 78720, Note_on_c, 0, 63, 0
2, 78720, Note_on_c, 0, 67, 0
2, 78720, Note_on_c, 0, 73, 31
2, 78720, Note_on_c, 0, 69, 31
2, 78720, Note_on_c, 0, 61, 31
2, 80640, Note_on_c, 0, 61, 0
2, 80640, Note_on_c, 0, 69, 0
2, 80640, Note_on_c, 0, 73, 0
2, 80640, Note_on_c, 0, 51, 20
2, 80640, Note_on_c, 0, 55, 24
2, 81600, Note_on_c, 0, 51, 0
2, 81600, Note_on_c, 0, 49, 20
2, 82560, Note_on_c, 0, 49, 0
2, 82560, Note_on_c, 0, 55, 0
2, 82560, Note_on_c, 0, 51, 20
2, 82560, Note_on_c, 0, 55, 24
2, 83040, Note_on_c, 0, 51, 0
2, 83040, Note_on_c, 0, 51, 20
2, 83520, Note_on_c, 0, 51, 0
2, 83520, Note_on_c, 0, 49, 20
2, 84480, Note_on_c, 0, 49, 0
2, 84480, Note_on_c, 0, 55, 0
2, 84480, Note_on_c, 0, 79, 35
2, 84480, Note_on_c, 0, 83, 37
2, 84480, Note_on_c, 0, 71, 31
2, 87360, Note_on_c, 0, 71, 0
2, 87360, Note_on_c, 0, 83, 0
2, 87360, Note_on_c, 0, 79, 0
2, 88320, Note_on_c, 0, 55, 38
2, 88320, Note_on_c, 0, 59, 45
2, 88800, Note_on_c, 0, 59, 0
2, 88800, Note_on_c, 0, 55, 0
2, 88800, Note_on_c, 0, 59, 41
2, 88800, Note_on_c, 0, 55, 34
2, 88920, Note_on_c, 0, 55, 0
2, 88920, Note_on_c, 0, 59, 0
2, 89040, Note_on_c, 0, 59, 41
2, 89040, Note_on_c, 0, 55, 34
2, 89160, Note_on_c, 0, 55, 0
2, 89160, Note_on_c, 0, 59, 0
2, 89280, Note_on_c, 0, 58, 43
2, 89280, Note_on_c, 0, 54, 36
2, 89400, Note_on_c, 0, 54, 0
2, 89400, Note_on_c, 0, 58, 0
2, 89520, Note_on_c, 0, 58, 37
2, 89520, Note_on_c, 0, 54, 31
2, 89640, Note_on_c, 0, 54, 0
2, 89640, Note_on_c, 0, 58, 0
2, 89760, Note_on_c, 0, 58, 37
2, 89760, Note_on_c, 0, 54, 31
2, 89880, Note_on_c, 0, 54, 0
2, 89880, Note_on_c, 0, 58, 0
2, 90000, Note_on_c, 0, 58, 37
2, 90000, Note_on_c, 0, 54, 31
2, 90120, Note_on_c, 0, 54, 0
2, 90120, Note_on_c, 0, 58, 0
2, 90240, Note_on_c, 0, 53, 38
2, 90240, Note_on_c, 0, 57, 45
2, 90720, Note_on_c, 0, 57, 0
2, 90720, Note_on_c, 0, 53, 0
2, 90720, Note_on_c, 0, 57, 41
2, 90726, Note_on_c, 0, 53, 34
2, 90840, Note_on_c, 0, 57, 0
2, 90846, Note_on_c, 0, 53, 0
2, 90960, Note_on_c, 0, 57, 41
2, 90960, Note_on_c, 0, 53, 34
2, 91080, Note_on_c, 0, 53, 0
2, 91080, Note_on_c, 0, 57, 0
2, 91200, Note_on_c, 0, 56, 43
2, 91200, Note_on_c, 0, 52, 36
2, 91680, Note_on_c, 0, 52, 0
2, 91680, Note_on_c, 0, 56, 0
2, 91680, Note_on_c, 0, 60, 37
2, 91680, Note_on_c, 0, 56, 31
2, 92160, Note_on_c, 0, 56, 0
2, 92160, Note_on_c, 0, 60, 0
2, 92160, Note_on_c, 0, 55, 39
2, 92160, Note_on_c, 0, 59, 46
2, 92640, Note_on_c, 0, 59, 0
2, 92640, Note_on_c, 0, 55, 0
2, 92640, Note_on_c, 0, 64, 45
2, 92640, Note_on_c, 0, 57, 38
2, 93120, Note_on_c, 0, 57, 0
2, 93120, Note_on_c, 0, 64, 0
2, 93120, Note_on_c, 0, 59, 44
2, 93120, Note_on_c, 0, 67, 52
2, 93600, Note_on_c, 0, 67, 0
2, 93600, Note_on_c, 0, 59, 0
2, 93600, Note_on_c, 0, 57, 38
2, 93600, Note_on_c, 0, 64, 45
2, 94080, Note_on_c, 0, 64, 0
2, 94080, Note_on_c, 0, 57, 0
2, 94080, Note_on_c, 0, 55, 42
2, 94080, Note_on_c, 0, 59, 50
2, 94560, Note_on_c, 0, 59, 0
2, 94560, Note_on_c, 0, 55, 0
2, 94560, Note_on_c, 0, 57, 43
2, 94560, Note_on_c, 0, 52, 36
2, 95040, Note_on_c, 0, 52, 0
2, 95040, Note_on_c, 0, 57, 0
2, 95040, Note_on_c, 0, 59, 47
2, 95040, Note_on_c, 0, 55, 39
2, 96480, Note_on_c, 0, 55, 0
2, 96480, Note_on_c, 0, 59, 0
2, 96480, Note_on_c, 0, 57, 45
2, 96480, Note_on_c, 0, 52, 38
2, 96960, Note_on_c, 0, 52, 0
2, 96960, Note_on_c, 0, 57, 0
2, 96960, Note_on_c, 0, 59, 52
2, 96960, Note_on_c, 0, 55, 37
2, 97440, Note_on_c, 0, 55, 0
2, 97440, Note_on_c, 0, 59, 0
2, 97440, Note_on_c, 0, 64, 50
2, 97440, Note_on_c, 0, 57, 42
2, 97920, Note_on_c, 0, 57, 0
2, 97920, Note_on_c, 0, 64, 0
2, 97920, Note_on_c, 0, 59, 54
2, 97920, Note_on_c, 0, 55, 45
2, 98880, Note_on_c, 0, 55, 0
2, 98880, Note_on_c, 0, 59, 0
2, 98880, Note_on_c, 0, 52, 30
2, 98880, Note_on_c, 0, 57, 43
2, 99360, Note_on_c, 0, 57, 0
2, 99360, Note_on_c, 0, 52, 0
2, 99360, Note_on_c, 0, 59, 42
2, 99360, Note_on_c, 0, 55, 35
2, 99840, Note_on_c, 0, 55, 0
2, 99840, Note_on_c, 0, 59, 0
2, 99840, Note_on_c, 0, 58, 48
2, 99840, Note_on_c, 0, 61, 48
2, 100310, Note_on_c, 0, 61, 0
2, 101760, Note_on_c, 0, 58, 0
2, 102000, Note_on_c, 0, 49, 30
2, 102240, Note_on_c, 0, 49, 0
2, 102240, Note_on_c, 0, 61, 38
2, 102240, Note_on_c, 0, 58, 38
2, 102480, Note_on_c, 0, 58, 0
2, 102480, Note_on_c, 0, 61, 0
2, 102480, Note_on_c, 0, 49, 30
2, 103200, Note_on_c, 0, 49, 0
2, 103200, Note_on_c, 0, 49, 33
2, 103440, Note_on_c, 0, 49, 0
2, 103920, Note_on_c, 0, 49, 30
2, 104160, Note_on_c, 0, 49, 0
2, 104160, Note_on_c, 0, 61, 38
2, 104160, Note_on_c, 0, 58, 38
2, 104400, Note_on_c, 0, 58, 0
2, 104400, Note_on_c, 0, 61, 0
2, 104400, Note_on_c, 0, 49, 30
2, 104640, Note_on_c, 0, 49, 0
2, 104880, Note_on_c, 0, 49, 37
2, 105000, Note_on_c, 0, 49, 0
2, 105360, Note_on_c, 0, 49, 41
2, 105480, Note_on_c, 0, 49, 0
2, 105840, Note_on_c, 0, 49, 30
2, 106080, Note_on_c, 0, 49, 0
2, 106080, Note_on_c, 0, 61, 38
2, 106080, Note_on_c, 0, 58, 38
2, 106320, Note_on_c, 0, 58, 0
2, 106320, Note_on_c, 0, 61, 0
2, 106320, Note_on_c, 0, 49, 30
2, 107040, Note_on_c, 0, 49, 0
2, 107040, Note_on_c, 0, 49, 33
2, 107280, Note_on_c, 0, 49, 0
2, 107520, Note_on_c, 0, 51, 30
2, 107520, Note_on_c, 0, 58, 30
2, 107520, Note_on_c, 0, 63, 51
2, 108000, Note_on_c, 0, 63, 0
2, 108000, Note_on_c, 0, 63, 47
2, 108120, Note_on_c, 0, 63, 0
2, 108240, Note_on_c, 0, 63, 40
2, 108360, Note_on_c, 0, 63, 0
2, 108480, Note_on_c, 0, 58, 0
2, 108480, Note_on_c, 0, 51, 0
2, 108480, Note_on_c, 0, 53, 27
2, 108480, Note_on_c, 0, 58, 27
2, 108480, Note_on_c, 0, 61, 46
2, 108600, Note_on_c, 0, 61, 0
2, 108720, Note_on_c, 0, 61, 40
2, 108840, Note_on_c, 0, 61, 0
2, 108960, Note_on_c, 0, 61, 46
2, 109080, Note_on_c, 0, 61, 0
2, 109200, Note_on_c, 0, 61, 41
2, 109320, Note_on_c, 0, 61, 0
2, 109440, Note_on_c, 0, 58, 0
2, 109440, Note_on_c, 0, 53, 0
2, 109440, Note_on_c, 0, 54, 30
2, 109440, Note_on_c, 0, 58, 30
2, 109440, Note_on_c, 0, 60, 51
2, 109920, Note_on_c, 0, 60, 0
2, 109920, Note_on_c, 0, 54, 0
2, 109920, Note_on_c, 0, 55, 25
2, 109920, Note_on_c, 0, 60, 44
2, 110040, Note_on_c, 0, 60, 0
2, 110160, Note_on_c, 0, 60, 33
2, 110280, Note_on_c, 0, 60, 0
2, 110400, Note_on_c, 0, 55, 0
2, 110400, Note_on_c, 0, 58, 0
2, 110400, Note_on_c, 0, 56, 23
2, 110400, Note_on_c, 0, 59, 39
2, 110880, Note_on_c, 0, 66, 50
2, 111360, Note_on_c, 0, 66, 0
2, 111360, Note_on_c, 0, 59, 0
2, 111360, Note_on_c, 0, 56, 0
2, 111360, Note_on_c, 0, 63, 40
2, 111360, Note_on_c, 0, 58, 37
2, 111360, Note_on_c, 0, 51, 37
2, 112320, Note_on_c, 0, 70, 37
2, 112560, Note_on_c, 0, 70, 0
2, 112560, Note_on_c, 0, 70, 45
2, 112800, Note_on_c, 0, 70, 0
2, 114235, Note_on_c, 0, 58, 0
2, 114240, Note_on_c, 0, 58, 40
2, 114480, Note_on_c, 0, 58, 0
2, 114480, Note_on_c, 0, 58, 33
2, 114720, Note_on_c, 0, 58, 0
2, 115200, Note_on_c, 0, 51, 0
2, 115200, Note_on_c, 0, 63, 0
2, 115200, Note_on_c, 0, 63, 33
2, 115200, Note_on_c, 0, 58, 33
2, 115200, Note_on_c, 0, 51, 33
2, 116160, Note_on_c, 0, 70, 31
2, 116400, Note_on_c, 0, 70, 0
2, 116400, Note_on_c, 0, 70, 37
2, 116640, Note_on_c, 0, 70, 0
2, 118075, Note_on_c, 0, 58, 0
2, 118080, Note_on_c, 0, 58, 30
2, 118320, Note_on_c, 0, 58, 0
2, 118320, Note_on_c, 0, 58, 24
2, 118560, Note_on_c, 0, 58, 0
2, 119040, Note_on_c, 0, 51, 0
2, 119040, Note_on_c, 0, 63, 0
2, 119040, Note_on_c, 0, 70, 30
2, 119040, Note_on_c, 0, 77, 33
2, 119520, Note_on_c, 0, 77, 0
2, 119520, Note_on_c, 0, 70, 0
2, 119520, Note_on_c, 0, 70, 30
2, 119520, Note_on_c, 0, 74, 39
2, 119640, Note_on_c, 0, 70, 0
2, 119760, Note_on_c, 0, 70, 30
2, 119880, Note_on_c, 0, 70, 0
2, 120000, Note_on_c, 0, 69, 30
2, 120120, Note_on_c, 0, 69, 0
2, 120240, Note_on_c, 0, 69, 30
2, 120360, Note_on_c, 0, 69, 0
2, 120480, Note_on_c, 0, 74, 0
2, 120480, Note_on_c, 0, 69, 28
2, 120480, Note_on_c, 0, 77, 37
2, 120600, Note_on_c, 0, 69, 0
2, 120720, Note_on_c, 0, 77, 0
2, 120720, Note_on_c, 0, 69, 28
2, 120720, Note_on_c, 0, 79, 37
2, 120840, Note_on_c, 0, 69, 0
2, 120960, Note_on_c, 0, 79, 0
2, 120960, Note_on_c, 0, 67, 30
2, 120960, Note_on_c, 0, 72, 39
2, 121200, Note_on_c, 0, 72, 0
2, 121200, Note_on_c, 0, 74, 33
2, 121440, Note_on_c, 0, 74, 0
2, 121440, Note_on_c, 0, 67, 0
2, 121440, Note_on_c, 0, 67, 30
2, 121440, Note_on_c, 0, 77, 39
2, 121560, Note_on_c, 0, 67, 0
2, 121680, Note_on_c, 0, 67, 30
2, 121800, Note_on_c, 0, 67, 0
2, 121920, Note_on_c, 0, 65, 30
2, 122400, Note_on_c, 0, 65, 0
2, 122400, Note_on_c, 0, 77, 0
2, 122400, Note_on_c, 0, 74, 33
2, 122640, Note_on_c, 0, 72, 27
2, 122860, Note_on_c, 0, 72, 0
2, 122880, Note_on_c, 0, 74, 0
2, 122880, Note_on_c, 0, 72, 37
2, 122880, Note_on_c, 0, 70, 30
2, 123120, Note_on_c, 0, 72, 0
2, 123120, Note_on_c, 0, 74, 30
2, 123340, Note_on_c, 0, 74, 0
2, 123360, Note_on_c, 0, 70, 0
2, 123360, Note_on_c, 0, 74, 34
2, 123360, Note_on_c, 0, 70, 30
2, 123480, Note_on_c, 0, 70, 0
2, 123600, Note_on_c, 0, 70, 30
2, 123720, Note_on_c, 0, 70, 0
2, 123840, Note_on_c, 0, 74, 0
2, 123840, Note_on_c, 0, 72, 34
2, 123840, Note_on_c, 0, 69, 30
2, 123960, Note_on_c, 0, 69, 0
2, 124080, Note_on_c, 0, 69, 30
2, 124200, Note_on_c, 0, 69, 0
2, 124320, Note_on_c, 0, 72, 0
2, 124320, Note_on_c, 0, 69, 28
2, 124320, Note_on_c, 0, 77, 38
2, 124440, Note_on_c, 0, 69, 0
2, 124560, Note_on_c, 0, 69, 28
2, 124680, Note_on_c, 0, 69, 0
2, 124800, Note_on_c, 0, 77, 0
2, 124800, Note_on_c, 0, 74, 31
2, 124800, Note_on_c, 0, 67, 30
2, 125280, Note_on_c, 0, 67, 0
2, 125280, Note_on_c, 0, 67, 30
2, 125400, Note_on_c, 0, 67, 0
2, 125520, Note_on_c, 0, 67, 30
2, 125640, Note_on_c, 0, 67, 0
2, 125760, Note_on_c, 0, 65, 30
2, 126240, Note_on_c, 0, 65, 0
2, 126240, Note_on_c, 0, 62, 30
2, 126240, Note_on_c, 0, 72, 31
2, 126480, Note_on_c, 0, 72, 0
2, 126480, Note_on_c, 0, 69, 28
2, 126720, Note_on_c, 0, 69, 0
2, 126720, Note_on_c, 0, 62, 0
2, 126720, Note_on_c, 0, 74, 0
2, 126720, Note_on_c, 0, 62, 21
2, 126720, Note_on_c, 0, 67, 31
2, 126720, Note_on_c, 0, 60, 21
2, 126960, Note_on_c, 0, 67, 0
2, 126960, Note_on_c, 0, 65, 30
2, 127200, Note_on_c, 0, 65, 0
2, 127200, Note_on_c, 0, 67, 31
2, 128160, Note_on_c, 0, 67, 0
2, 128160, Note_on_c, 0, 69, 36
2, 128400, Note_on_c, 0, 69, 0
2, 128400, Note_on_c, 0, 72, 31
2, 128640, Note_on_c, 0, 72, 0
2, 128640, Note_on_c, 0, 60, 0
2, 128640, Note_on_c, 0, 62, 0
2, 128640, Note_on_c, 0, 67, 40
2, 128640, Note_on_c, 0, 62, 21
2, 128640, Note_on_c, 0, 60, 21
2, 129120, Note_on_c, 0, 67, 0
2, 129120, Note_on_c, 0, 74, 40
2, 129600, Note_on_c, 0, 74, 0
2, 129600, Note_on_c, 0, 72, 34
2, 130080, Note_on_c, 0, 72, 0
2, 130080, Note_on_c, 0, 69, 31
2, 130560, Note_on_c, 0, 69, 0
2, 130560, Note_on_c, 0, 60, 0
2, 130560, Note_on_c, 0, 62, 0
2, 130560, Note_on_c, 0, 62, 21
2, 130560, Note_on_c, 0, 60, 21
2, 130560, Note_on_c, 0, 67, 30
2, 130800, Note_on_c, 0, 67, 0
2, 130800, Note_on_c, 0, 65, 25
2, 131040, Note_on_c, 0, 65, 0
2, 131040, Note_on_c, 0, 67, 31
2, 131520, Note_on_c, 0, 67, 0
2, 131520, Note_on_c, 0, 69, 34
2, 132000, Note_on_c, 0, 69, 0
2, 132000, Note_on_c, 0, 72, 39
2, 132480, Note_on_c, 0, 72, 0
2, 132480, Note_on_c, 0, 60, 0
2, 132480, Note_on_c, 0, 62, 0
2, 132480, Note_on_c, 0, 60, 21
2, 132480, Note_on_c, 0, 67, 33
2, 132480, Note_on_c, 0, 62, 21
2, 136080, Note_on_c, 0, 67, 0
2, 136080, Note_on_c, 0, 65, 30
2, 136320, Note_on_c, 0, 65, 0
2, 136320, Note_on_c, 0, 62, 0
2, 136320, Note_on_c, 0, 60, 0
2, 136320, Note_on_c, 0, 60, 21
2, 136320, Note_on_c, 0, 67, 31
2, 136320, Note_on_c, 0, 62, 21
2, 139680, Note_on_c, 0, 62, 0
2, 139680, Note_on_c, 0, 67, 0
2, 139680, Note_on_c, 0, 60, 0
2, 140160, Note_on_c, 0, 48, 21
2, 140160, Note_on_c, 0, 50, 28
2, 142080, Note_on_c, 0, 50, 0
2, 142080, Note_on_c, 0, 48, 0
2, 142080, Note_on_c, 0, 48, 21
2, 142080, Note_on_c, 0, 50, 28
2, 144000, Note_on_c, 0, 50, 0
2, 144000, Note_on_c, 0, 48, 0
2, 144000, Note_on_c, 0, 48, 21
2, 144000, Note_on_c, 0, 50, 28
2, 147840, Note_on_c, 0, 50, 0
2, 147840, Note_on_c, 0, 48, 0
2, 147840, Note_on_c, 0, 53, 21
2, 147840, Note_on_c, 0, 55, 28
2, 148800, Note_on_c, 0, 75, 37
2, 149760, Note_on_c, 0, 75, 0
2, 150720, Note_on_c, 0, 73, 36
2, 151680, Note_on_c, 0, 73, 0
2, 153600, Note_on_c, 0, 55, 0
2, 153600, Note_on_c, 0, 53, 0
2, 153600, End_track
3, 0, Start_track
3, 0, Title_t, "Piano left"
3, 0, Program_c, 0, 0
3, 0, Note_on_c, 0, 41, 34
3, 480, Note_on_c, 0, 41, 0
3, 480, Note_on_c, 0, 38, 40
3, 1440, Note_on_c, 0, 38, 0
3, 1440, Note_on_c, 0, 41, 38
3, 1680, Note_on_c, 0, 41, 0
3, 1680, Note_on_c, 0, 43, 38
3, 1920, Note_on_c, 0, 43, 0
3, 1920, Note_on_c, 0, 36, 40
3, 2160, Note_on_c, 0, 36, 0
3, 2160, Note_on_c, 0, 38, 34
3, 2400, Note_on_c, 0, 38, 0
3, 2400, Note_on_c, 0, 41, 40
3, 3360, Note_on_c, 0, 41, 0
3, 3360, Note_on_c, 0, 38, 34
3, 3600, Note_on_c, 0, 38, 0
3, 3600, Note_on_c, 0, 36, 31
3, 3820, Note_on_c, 0, 36, 0
3, 3840, Note_on_c, 0, 36, 38
3, 4080, Note_on_c, 0, 36, 0
3, 4080, Note_on_c, 0, 38, 32
3, 4300, Note_on_c, 0, 38, 0
3, 4320, Note_on_c, 0, 38, 35
3, 4800, Note_on_c, 0, 38, 0
3, 4800, Note_on_c, 0, 36, 35
3, 5280, Note_on_c, 0, 36, 0
3, 5280, Note_on_c, 0, 41, 39
3, 5760, Note_on_c, 0, 41, 0
3, 5760, Note_on_c, 0, 38, 33
3, 9120, Note_on_c, 0, 38, 0
3, 9120, Note_on_c, 0, 36, 31
3, 9360, Note_on_c, 0, 36, 0
3, 9360, Note_on_c, 0, 33, 27
3, 9600, Note_on_c, 0, 33, 0
3, 9600, Note_on_c, 0, 31, 31
3, 9840, Note_on_c, 0, 31, 0
3, 9840, Note_on_c, 0, 29, 29
3, 10080, Note_on_c, 0, 29, 0
3, 10080, Note_on_c, 0, 31, 31
3, 11040, Note_on_c, 0, 31, 0
3, 11040, Note_on_c, 0, 33, 34
3, 11280, Note_on_c, 0, 33, 0
3, 11280, Note_on_c, 0, 36, 31
3, 11520, Note_on_c, 0, 36, 0
3, 11520, Note_on_c, 0, 31, 38
3, 12000, Note_on_c, 0, 31, 0
3, 12000, Note_on_c, 0, 38, 38
3, 12480, Note_on_c, 0, 38, 0
3, 12480, Note_on_c, 0, 36, 33
3, 12960, Note_on_c, 0, 36, 0
3, 12960, Note_on_c, 0, 33, 30
3, 13440, Note_on_c, 0, 33, 0
3, 13440, Note_on_c, 0, 31, 29
3, 13680, Note_on_c, 0, 31, 0
3, 13680, Note_on_c, 0, 29, 24
3, 13920, Note_on_c, 0, 29, 0
3, 13920, Note_on_c, 0, 31, 30
3, 14400, Note_on_c, 0, 31, 0
3, 14400, Note_on_c, 0, 33, 33
3, 14880, Note_on_c, 0, 33, 0
3, 14880, Note_on_c, 0, 36, 37
3, 15360, Note_on_c, 0, 36, 0
3, 15360, Note_on_c, 0, 31, 30
3, 16320, Note_on_c, 0, 55, 14
3, 16320, Note_on_c, 0, 53, 11
3, 16440, Note_on_c, 0, 53, 0
3, 16440, Note_on_c, 0, 55, 0
3, 16560, Note_on_c, 0, 55, 14
3, 16560, Note_on_c, 0, 53, 11
3, 17760, Note_on_c, 0, 53, 0
3, 17760, Note_on_c, 0, 55, 0
3, 17760, Note_on_c, 0, 53, 11
3, 17760, Note_on_c, 0, 55, 14
3, 19200, Note_on_c, 0, 31, 0
3, 19680, Note_on_c, 0, 55, 0
3, 19680, Note_on_c, 0, 53, 0
3, 19680, Note_on_c, 0, 53, 11
3, 19680, Note_on_c, 0, 55, 14
3, 21600, Note_on_c, 0, 55, 0
3, 21600, Note_on_c, 0, 53, 0
3, 21600, Note_on_c, 0, 53, 11
3, 21600, Note_on_c, 0, 55, 14
3, 23520, Note_on_c, 0, 55, 0
3, 23520, Note_on_c, 0, 53, 0
3, 23520, Note_on_c, 0, 53, 11
3, 23520, Note_on_c, 0, 55, 14
3, 25440, Note_on_c, 0, 55, 0
3, 25440, Note_on_c, 0, 53, 0
3, 25440, Note_on_c, 0, 53, 11
3, 25440, Note_on_c, 0, 55, 14
3, 26880, Note_on_c, 0, 55, 0
3, 26880, Note_on_c, 0, 53, 0
3, 26880, Note_on_c, 0, 39, 26
3, 28800, Note_on_c, 0, 39, 0
3, 28800, Note_on_c, 0, 37, 26
3, 31680, Note_on_c, 0, 37, 0
3, 31680, Note_on_c, 0, 34, 26
3, 32640, Note_on_c, 0, 34, 0
3, 32640, Note_on_c, 0, 30, 19
3, 33600, Note_on_c, 0, 30, 0
3, 33600, Note_on_c, 0, 29, 13
3, 33600, Note_on_c, 0, 31, 15
3, 33720, Note_on_c, 0, 31, 0
3, 33720, Note_on_c, 0, 29, 0
3, 34560, Note_on_c, 0, 53, 13
3, 34560, Note_on_c, 0, 55, 16
3, 35040, Note_on_c, 0, 55, 0
3, 35040, Note_on_c, 0, 53, 0
3, 35040, Note_on_c, 0, 50, 17
3, 35040, Note_on_c, 0, 48, 14
3, 35520, Note_on_c, 0, 48, 0
3, 35520, Note_on_c, 0, 50, 0
3, 35520, Note_on_c, 0, 41, 16
3, 36000, Note_on_c, 0, 41, 0
3, 36000, Note_on_c, 0, 34, 16
3, 36480, Note_on_c, 0, 34, 0
3, 36480, Note_on_c, 0, 53, 13
3, 36480, Note_on_c, 0, 55, 16
3, 36960, Note_on_c, 0, 55, 0
3, 36960, Note_on_c, 0, 53, 0
3, 36960, Note_on_c, 0, 50, 16
3, 36960, Note_on_c, 0, 48, 13
3, 37440, Note_on_c, 0, 48, 0
3, 37440, Note_on_c, 0, 50, 0
3, 37440, Note_on_c, 0, 41, 16
3, 37920, Note_on_c, 0, 41, 0
3, 37920, Note_on_c, 0, 34, 16
3, 38400, Note_on_c, 0, 34, 0
3, 38400, Note_on_c, 0, 53, 13
3, 38400, Note_on_c, 0, 55, 16
3, 38880, Note_on_c, 0, 55, 0
3, 38880, Note_on_c, 0, 53, 0
3, 38880, Note_on_c, 0, 50, 16
3, 38880, Note_on_c, 0, 48, 13
3, 39360, Note_on_c, 0, 48, 0
3, 39360, Note_on_c, 0, 50, 0
3, 39360, Note_on_c, 0, 41, 16
3, 39840, Note_on_c, 0, 41, 0
3, 39840, Note_on_c, 0, 34, 16
3, 40320, Note_on_c, 0, 34, 0
3, 40320, Note_on_c, 0, 53, 13
3, 40320, Note_on_c, 0, 55, 16
3, 40800, Note_on_c, 0, 55, 0
3, 40800, Note_on_c, 0, 53, 0
3, 40800, Note_on_c, 0, 50, 16
3, 40800, Note_on_c, 0, 48, 13
3, 41280, Note_on_c, 0, 48, 0
3, 41280, Note_on_c, 0, 50, 0
3, 41280, Note_on_c, 0, 41, 16
3, 41760, Note_on_c, 0, 41, 0
3, 41760, Note_on_c, 0, 34, 16
3, 42240, Note_on_c, 0, 34, 0
3, 42240, Note_on_c, 0, 53, 13
3, 42240, Note_on_c, 0, 55, 16
3, 42720, Note_on_c, 0, 55, 0
3, 42720, Note_on_c, 0, 53, 0
3, 42720, Note_on_c, 0, 50, 16
3, 42720, Note_on_c, 0, 48, 13
3, 43200, Note_on_c, 0, 48, 0
3, 43200, Note_on_c, 0, 50, 0
3, 43200, Note_on_c, 0, 41, 16
3, 43680, Note_on_c, 0, 41, 0
3, 43680, Note_on_c, 0, 34, 16
3, 44160, Note_on_c, 0, 34, 0
3, 44160, Note_on_c, 0, 53, 13
3, 44160, Note_on_c, 0, 55, 16
3, 44640, Note_on_c, 0, 55, 0
3, 44640, Note_on_c, 0, 53, 0
3, 44640, Note_on_c, 0, 50, 16
3, 44640, Note_on_c, 0, 48, 13
3, 45120, Note_on_c, 0, 48, 0
3, 45120, Note_on_c, 0, 50, 0
3, 45120, Note_on_c, 0, 41, 16
3, 45600, Note_on_c, 0, 41, 0
3, 45600, Note_on_c, 0, 34, 16
3, 46080, Note_on_c, 0, 34, 0
3, 46080, Note_on_c, 0, 55, 16
3, 46080, Note_on_c, 0, 53, 13
3, 46560, Note_on_c, 0, 53, 0
3, 46560, Note_on_c, 0, 55, 0
3, 46560, Note_on_c, 0, 50, 16
3, 46560, Note_on_c, 0, 48, 13
3, 47040, Note_on_c, 0, 48, 0
3, 47040, Note_on_c, 0, 50, 0
3, 47040, Note_on_c, 0, 41, 16
3, 47520, Note_on_c, 0, 41, 0
3, 47520, Note_on_c, 0, 34, 16
3, 48000, Note_on_c, 0, 34, 0
3, 48000, Note_on_c, 0, 55, 16
3, 48000, Note_on_c, 0, 53, 13
3, 48480, Note_on_c, 0, 53, 0
3, 48480, Note_on_c, 0, 55, 0
3, 48480, Note_on_c, 0, 50, 16
3, 48480, Note_on_c, 0, 48, 13
3, 48960, Note_on_c, 0, 48, 0
3, 48960, Note_on_c, 0, 50, 0
3, 48960, Note_on_c, 0, 41, 16
3, 49440, Note_on_c, 0, 41, 0
3, 49440, Note_on_c, 0, 34, 16
3, 49920, Note_on_c, 0, 34, 0
3, 49920, Note_on_c, 0, 53, 13
3, 49920, Note_on_c, 0, 55, 16
3, 50400, Note_on_c, 0, 55, 0
3, 50400, Note_on_c, 0, 53, 0
3, 50400, Note_on_c, 0, 48, 13
3, 50400, Note_on_c, 0, 50, 16
3, 50880, Note_on_c, 0, 50, 0
3, 50880, Note_on_c, 0, 48, 0
3, 50880, Note_on_c, 0, 41, 16
3, 51360, Note_on_c, 0, 41, 0
3, 51360, Note_on_c, 0, 34, 16
3, 51840, Note_on_c, 0, 34, 0
3, 51840, Note_on_c, 0, 53, 13
3, 51840, Note_on_c, 0, 55, 16
3, 52320, Note_on_c, 0, 55, 0
3, 52320, Note_on_c, 0, 53, 0
3, 52320, Note_on_c, 0, 48, 13
3, 52320, Note_on_c, 0, 50, 16
3, 52800, Note_on_c, 0, 50, 0
3, 52800, Note_on_c, 0, 48, 0
3, 52800, Note_on_c, 0, 41, 16
3, 53280, Note_on_c, 0, 41, 0
3, 53280, Note_on_c, 0, 34, 16
3, 53760, Note_on_c, 0, 34, 0
3, 53760, Note_on_c, 0, 32, 33
3, 54720, Note_on_c, 0, 43, 31
3, 55200, Note_on_c, 0, 43, 0
3, 55680, Note_on_c, 0, 32, 0
3, 55680, Note_on_c, 0, 32, 33
3, 56160, Note_on_c, 0, 41, 25
3, 56280, Note_on_c, 0, 41, 0
3, 56400, Note_on_c, 0, 41, 25
3, 56520, Note_on_c, 0, 41, 0
3, 56640, Note_on_c, 0, 39, 31
3, 57120, Note_on_c, 0, 39, 0
3, 57120, Note_on_c, 0, 48, 36
3, 57360, Note_on_c, 0, 48, 0
3, 57600, Note_on_c, 0, 32, 0
3, 57600, Note_on_c, 0, 32, 33
3, 58560, Note_on_c, 0, 43, 31
3, 59040, Note_on_c, 0, 43, 0
3, 59520, Note_on_c, 0, 41, 31
3, 60000, Note_on_c, 0, 41, 0
3, 60960, Note_on_c, 0, 32, 0
3, 60960, Note_on_c, 0, 32, 29
3, 61440, Note_on_c, 0, 32, 0
3, 61440, Note_on_c, 0, 44, 37
3, 61920, Note_on_c, 0, 44, 0
3, 61920, Note_on_c, 0, 46, 34
3, 62400, Note_on_c, 0, 46, 0
3, 62400, Note_on_c, 0, 44, 30
3, 62880, Note_on_c, 0, 44, 0
3, 62880, Note_on_c, 0, 32, 31
3, 63360, Note_on_c, 0, 32, 0
3, 63360, Note_on_c, 0, 44, 37
3, 63840, Note_on_c, 0, 44, 0
3, 63840, Note_on_c, 0, 46, 34
3, 64320, Note_on_c, 0, 46, 0
3, 64320, Note_on_c, 0, 44, 30
3, 64800, Note_on_c, 0, 44, 0
3, 64800, Note_on_c, 0, 32, 31
3, 65280, Note_on_c, 0, 32, 0
3, 65280, Note_on_c, 0, 44, 37
3, 65760, Note_on_c, 0, 44, 0
3, 65760, Note_on_c, 0, 46, 34
3, 66240, Note_on_c, 0, 46, 0
3, 66240, Note_on_c, 0, 44, 30
3, 66720, Note_on_c, 0, 44, 0
3, 66720, Note_on_c, 0, 32, 31
3, 67200, Note_on_c, 0, 32, 0
3, 67200, Note_on_c, 0, 44, 37
3, 67680, Note_on_c, 0, 44, 0
3, 67680, Note_on_c, 0, 46, 34
3, 68160, Note_on_c, 0, 46, 0
3, 68160, Note_on_c, 0, 44, 30
3, 68640, Note_on_c, 0, 44, 0
3, 68640, Note_on_c, 0, 32, 31
3, 69120, Note_on_c, 0, 32, 0
3, 69120, Note_on_c, 0, 44, 37
3, 69600, Note_on_c, 0, 44, 0
3, 69600, Note_on_c, 0, 46, 34
3, 70080, Note_on_c, 0, 46, 0
3, 70080, Note_on_c, 0, 44, 30
3, 70560, Note_on_c, 0, 44, 0
3, 70560, Note_on_c, 0, 32, 31
3, 71040, Note_on_c, 0, 32, 0
3, 71040, Note_on_c, 0, 44, 37
3, 71520, Note_on_c, 0, 44, 0
3, 71520, Note_on_c, 0, 46, 34
3, 72000, Note_on_c, 0, 46, 0
3, 72000, Note_on_c, 0, 44, 30
3, 72480, Note_on_c, 0, 44, 0
3, 72480, Note_on_c, 0, 34, 31
3, 72720, Note_on_c, 0, 34, 0
3, 72960, Note_on_c, 0, 33, 31
3, 73080, Note_on_c, 0, 33, 0
3, 73200, Note_on_c, 0, 45, 24
3, 73320, Note_on_c, 0, 45, 0
3, 73440, Note_on_c, 0, 35, 32
3, 73560, Note_on_c, 0, 35, 0
3, 73680, Note_on_c, 0, 47, 25
3, 73800, Note_on_c, 0, 47, 0
3, 73920, Note_on_c, 0, 33, 31
3, 74040, Note_on_c, 0, 33, 0
3, 74160, Note_on_c, 0, 45, 25
3, 74280, Note_on_c, 0, 45, 0
3, 74400, Note_on_c, 0, 35, 29
3, 74520, Note_on_c, 0, 35, 0
3, 74640, Note_on_c, 0, 47, 25
3, 74760, Note_on_c, 0, 47, 0
3, 74880, Note_on_c, 0, 33, 31
3, 75000, Note_on_c, 0, 33, 0
3, 75120, Note_on_c, 0, 45, 24
3, 75240, Note_on_c, 0, 45, 0
3, 75360, Note_on_c, 0, 35, 32
3, 75480, Note_on_c, 0, 35, 0
3, 75600, Note_on_c, 0, 47, 25
3, 75720, Note_on_c, 0, 47, 0
3, 75840, Note_on_c, 0, 33, 31
3, 75960, Note_on_c, 0, 33, 0
3, 76080, Note_on_c, 0, 45, 25
3, 76200, Note_on_c, 0, 45, 0
3, 76320, Note_on_c, 0, 35, 29
3, 76440, Note_on_c, 0, 35, 0
3, 76560, Note_on_c, 0, 47, 25
3, 76680, Note_on_c, 0, 47, 0
3, 76800, Note_on_c, 0, 33, 31
3, 76920, Note_on_c, 0, 33, 0
3, 77040, Note_on_c, 0, 45, 24
3, 77160, Note_on_c, 0, 45, 0
3, 77280, Note_on_c, 0, 35, 33
3, 77400, Note_on_c, 0, 35, 0
3, 77520, Note_on_c, 0, 47, 27
3, 77640, Note_on_c, 0, 47, 0
3, 77760, Note_on_c, 0, 37, 34
3, 77880, Note_on_c, 0, 37, 0
3, 78000, Note_on_c, 0, 49, 28
3, 78120, Note_on_c, 0, 49, 0
3, 78240, Note_on_c, 0, 39, 34
3, 78360, Note_on_c, 0, 39, 0
3, 78480, Note_on_c, 0, 51, 30
3, 78600, Note_on_c, 0, 51, 0
3, 78720, Note_on_c, 0, 41, 40
3, 78840, Note_on_c, 0, 41, 0
3, 78960, Note_on_c, 0, 53, 30
3, 79080, Note_on_c, 0, 53, 0
3, 79200, Note_on_c, 0, 39, 39
3, 79320, Note_on_c, 0, 39, 0
3, 79440, Note_on_c, 0, 51, 29
3, 79560, Note_on_c, 0, 51, 0
3, 79680, Note_on_c, 0, 37, 35
3, 79800, Note_on_c, 0, 37, 0
3, 79920, Note_on_c, 0, 49, 28
3, 80040, Note_on_c, 0, 49, 0
3, 80160, Note_on_c, 0, 35, 31
3, 80280, Note_on_c, 0, 35, 0
3, 80400, Note_on_c, 0, 47, 26
3, 80520, Note_on_c, 0, 47, 0
3, 80640, Note_on_c, 0, 33, 31
3, 80760, Note_on_c, 0, 33, 0
3, 80880, Note_on_c, 0, 45, 24
3, 81000, Note_on_c, 0, 45, 0
3, 81120, Note_on_c, 0, 35, 32
3, 81240, Note_on_c, 0, 35, 0
3, 81360, Note_on_c, 0, 47, 25
3, 81480, Note_on_c, 0, 47, 0
3, 81600, Note_on_c, 0, 33, 31
3, 81720, Note_on_c, 0, 33, 0
3, 81840, Note_on_c, 0, 45, 25
3, 81960, Note_on_c, 0, 45, 0
3, 82080, Note_on_c, 0, 35, 29
3, 82200, Note_on_c, 0, 35, 0
3, 82320, Note_on_c, 0, 47, 25
3, 82440, Note_on_c, 0, 47, 0
3, 82560, Note_on_c, 0, 33, 31
3, 82680, Note_on_c, 0, 33, 0
3, 82800, Note_on_c, 0, 45, 24
3, 82920, Note_on_c, 0, 45, 0
3, 83040, Note_on_c, 0, 35, 32
3, 83160, Note_on_c, 0, 35, 0
3, 83280, Note_on_c, 0, 47, 25
3, 83400, Note_on_c, 0, 47, 0
3, 83520, Note_on_c, 0, 33, 31
3, 83640, Note_on_c, 0, 33, 0
3, 83760, Note_on_c, 0, 45, 25
3, 83880, Note_on_c, 0, 45, 0
3, 84000, Note_on_c, 0, 35, 29
3, 84120, Note_on_c, 0, 35, 0
3, 84240, Note_on_c, 0, 47, 25
3, 84360, Note_on_c, 0, 47, 0
3, 84480, Note_on_c, 0, 33, 31
3, 84600, Note_on_c, 0, 33, 0
3, 84720, Note_on_c, 0, 45, 24
3, 84840, Note_on_c, 0, 45, 0
3, 84960, Note_on_c, 0, 35, 34
3, 85080, Note_on_c, 0, 35, 0
3, 85200, Note_on_c, 0, 47, 27
3, 85320, Note_on_c, 0, 47, 0
3, 85440, Note_on_c, 0, 37, 34
3, 85560, Note_on_c, 0, 37, 0
3, 85680, Note_on_c, 0, 49, 28
3, 85800, Note_on_c, 0, 49, 0
3, 85920, Note_on_c, 0, 39, 38
3, 86040, Note_on_c, 0, 39, 0
3, 86160, Note_on_c, 0, 51, 35
3, 86280, Note_on_c, 0, 51, 0
3, 86400, Note_on_c, 0, 41, 40
3, 86520, Note_on_c, 0, 41, 0
3, 86640, Note_on_c, 0, 53, 33
3, 86760, Note_on_c, 0, 53, 0
3, 86880, Note_on_c, 0, 43, 42
3, 87000, Note_on_c, 0, 43, 0
3, 87120, Note_on_c, 0, 55, 34
3, 87240, Note_on_c, 0, 55, 0
3, 87360, Note_on_c, 0, 45, 48
3, 87480, Note_on_c, 0, 45, 0
3, 87600, Note_on_c, 0, 57, 39
3, 87720, Note_on_c, 0, 57, 0
3, 87840, Note_on_c, 0, 47, 50
3, 87960, Note_on_c, 0, 47, 0
3, 88080, Note_on_c, 0, 59, 42
3, 88200, Note_on_c, 0, 59, 0
3, 88320, Note_on_c, 0, 49, 35
3, 88440, Note_on_c, 0, 49, 0
3, 88560, Note_on_c, 0, 61, 39
3, 89040, Note_on_c, 0, 61, 0
3, 89280, Note_on_c, 0, 49, 35
3, 89400, Note_on_c, 0, 49, 0
3, 89520, Note_on_c, 0, 61, 41
3, 90000, Note_on_c, 0, 61, 0
3, 90240, Note_on_c, 0, 49, 35
3, 90360, Note_on_c, 0, 49, 0
3, 90480, Note_on_c, 0, 61, 39
3, 90960, Note_on_c, 0, 61, 0
3, 91200, Note_on_c, 0, 49, 35
3, 91320, Note_on_c, 0, 49, 0
3, 91440, Note_on_c, 0, 61, 41
3, 91920, Note_on_c, 0, 61, 0
3, 92160, Note_on_c, 0, 49, 35
3, 92280, Note_on_c, 0, 49, 0
3, 92400, Note_on_c, 0, 61, 39
3, 92880, Note_on_c, 0, 61, 0
3, 93120, Note_on_c, 0, 61, 35
3, 93240, Note_on_c, 0, 61, 0
3, 93360, Note_on_c, 0, 49, 41
3, 93840, Note_on_c, 0, 49, 0
3, 94080, Note_on_c, 0, 49, 29
3, 94200, Note_on_c, 0, 49, 0
3, 94320, Note_on_c, 0, 61, 42
3, 94800, Note_on_c, 0, 61, 0
3, 95040, Note_on_c, 0, 61, 30
3, 95160, Note_on_c, 0, 61, 0
3, 95280, Note_on_c, 0, 49, 38
3, 95760, Note_on_c, 0, 49, 0
3, 96000, Note_on_c, 0, 49, 35
3, 96120, Note_on_c, 0, 49, 0
3, 96240, Note_on_c, 0, 61, 39
3, 96720, Note_on_c, 0, 61, 0
3, 96960, Note_on_c, 0, 49, 35
3, 97920, Note_on_c, 0, 49, 0
3, 97920, Note_on_c, 0, 49, 29
3, 98040, Note_on_c, 0, 49, 0
3, 98160, Note_on_c, 0, 61, 39
3, 98640, Note_on_c, 0, 61, 0
3, 98880, Note_on_c, 0, 49, 30
3, 99840, Note_on_c, 0, 49, 0
3, 99840, Note_on_c, 0, 42, 30
3, 100080, Note_on_c, 0, 49, 30
3, 100200, Note_on_c, 0, 49, 0
3, 100320, Note_on_c, 0, 61, 37
3, 100440, Note_on_c, 0, 61, 0
3, 100560, Note_on_c, 0, 49, 30
3, 100680, Note_on_c, 0, 49, 0
3, 100800, Note_on_c, 0, 49, 30
3, 100920, Note_on_c, 0, 49, 0
3, 101040, Note_on_c, 0, 49, 30
3, 101160, Note_on_c, 0, 49, 0
3, 101280, Note_on_c, 0, 61, 34
3, 101400, Note_on_c, 0, 61, 0
3, 101520, Note_on_c, 0, 49, 30
3, 101640, Note_on_c, 0, 49, 0
3, 101760, Note_on_c, 0, 42, 0
3, 101760, Note_on_c, 0, 42, 38
3, 102240, Note_on_c, 0, 42, 0
3, 102240, Note_on_c, 0, 42, 35
3, 102360, Note_on_c, 0, 42, 0
3, 102480, Note_on_c, 0, 42, 30
3, 102600, Note_on_c, 0, 42, 0
3, 102720, Note_on_c, 0, 41, 34
3, 102840, Note_on_c, 0, 41, 0
3, 102960, Note_on_c, 0, 41, 30
3, 103080, Note_on_c, 0, 41, 0
3, 103200, Note_on_c, 0, 41, 34
3, 103320, Note_on_c, 0, 41, 0
3, 103440, Note_on_c, 0, 41, 31
3, 103560, Note_on_c, 0, 41, 0
3, 103680, Note_on_c, 0, 40, 38
3, 104160, Note_on_c, 0, 40, 0
3, 104160, Note_on_c, 0, 40, 32
3, 104280, Note_on_c, 0, 40, 0
3, 104400, Note_on_c, 0, 40, 24
3, 104520, Note_on_c, 0, 40, 0
3, 104640, Note_on_c, 0, 39, 29
3, 105120, Note_on_c, 0, 39, 0
3, 105120, Note_on_c, 0, 46, 37
3, 105600, Note_on_c, 0, 46, 0
3, 105600, Note_on_c, 0, 42, 38
3, 106080, Note_on_c, 0, 42, 0
3, 106080, Note_on_c, 0, 42, 35
3, 106200, Note_on_c, 0, 42, 0
3, 106320, Note_on_c, 0, 42, 30
3, 106440, Note_on_c, 0, 42, 0
3, 106560, Note_on_c, 0, 41, 34
3, 106680, Note_on_c, 0, 41, 0
3, 106800, Note_on_c, 0, 41, 30
3, 106920, Note_on_c, 0, 41, 0
3, 107040, Note_on_c, 0, 41, 34
3, 107160, Note_on_c, 0, 41, 0
3, 107280, Note_on_c, 0, 41, 31
3, 107400, Note_on_c, 0, 41, 0
3, 107520, Note_on_c, 0, 46, 30
3, 108000, Note_on_c, 0, 46, 0
3, 108000, Note_on_c, 0, 39, 28
3, 108480, Note_on_c, 0, 39, 0
3, 108480, Note_on_c, 0, 46, 30
3, 108960, Note_on_c, 0, 46, 0
3, 108960, Note_on_c, 0, 39, 25
3, 109440, Note_on_c, 0, 39, 0
3, 109440, Note_on_c, 0, 46, 30
3, 109920, Note_on_c, 0, 46, 0
3, 109920, Note_on_c, 0, 39, 25
3, 110400, Note_on_c, 0, 39, 0
3, 110400, Note_on_c, 0, 46, 30
3, 110880, Note_on_c, 0, 46, 0
3, 110880, Note_on_c, 0, 39, 26
3, 111360, Note_on_c, 0, 39, 0
3, 111360, Note_on_c, 0, 46, 30
3, 111840, Note_on_c, 0, 46, 0
3, 111840, Note_on_c, 0, 39, 25
3, 112320, Note_on_c, 0, 39, 0
3, 112320, Note_on_c, 0, 46, 30
3, 112800, Note_on_c, 0, 46, 0
3, 112800, Note_on_c, 0, 39, 26
3, 113280, Note_on_c, 0, 39, 0
3, 113280, Note_on_c, 0, 37, 30
3, 113760, Note_on_c, 0, 37, 0
3, 113760, Note_on_c, 0, 39, 25
3, 114240, Note_on_c, 0, 39, 0
3, 114240, Note_on_c, 0, 34, 30
3, 114720, Note_on_c, 0, 34, 0
3, 114720, Note_on_c, 0, 39, 26
3, 115200, Note_on_c, 0, 39, 0
3, 115200, Note_on_c, 0, 46, 27
3, 115680, Note_on_c, 0, 46, 0
3, 115680, Note_on_c, 0, 39, 22
3, 116160, Note_on_c, 0, 39, 0
3, 116160, Note_on_c, 0, 46, 25
3, 116640, Note_on_c, 0, 46, 0
3, 116640, Note_on_c, 0, 39, 21
3, 117120, Note_on_c, 0, 39, 0
3, 117120, Note_on_c, 0, 37, 24
3, 117600, Note_on_c, 0, 37, 0
3, 117600, Note_on_c, 0, 39, 19
3, 118080, Note_on_c, 0, 39, 0
3, 118080, Note_on_c, 0, 35, 22
3, 118560, Note_on_c, 0, 35, 0
3, 118560, Note_on_c, 0, 39, 18
3, 119040, Note_on_c, 0, 39, 0
3, 119040, Note_on_c, 0, 34, 17
3, 119040, Note_on_c, 0, 41, 21
3, 122400, Note_on_c, 0, 41, 0
3, 122400, Note_on_c, 0, 34, 0
3, 122400, Note_on_c, 0, 41, 21
3, 122880, Note_on_c, 0, 34, 17
3, 126240, Note_on_c, 0, 34, 0
3, 126240, Note_on_c, 0, 41, 0
3, 126240, Note_on_c, 0, 41, 21
3, 126720, Note_on_c, 0, 41, 0
3, 126720, Note_on_c, 0, 55, 17
3, 126720, Note_on_c, 0, 53, 14
3, 127200, Note_on_c, 0, 53, 0
3, 127200, Note_on_c, 0, 55, 0
3, 127200, Note_on_c, 0, 50, 17
3, 127200, Note_on_c, 0, 48, 14
3, 127680, Note_on_c, 0, 48, 0
3, 127680, Note_on_c, 0, 50, 0
3, 127680, Note_on_c, 0, 41, 17
3, 128160, Note_on_c, 0, 41, 0
3, 128160, Note_on_c, 0, 34, 17
3, 128640, Note_on_c, 0, 34, 0
3, 128640, Note_on_c, 0, 55, 17
3, 128640, Note_on_c, 0, 53, 14
3, 129120, Note_on_c, 0, 53, 0
3, 129120, Note_on_c, 0, 55, 0
3, 129120, Note_on_c, 0, 50, 17
3, 129120, Note_on_c, 0, 48, 14
3, 129600, Note_on_c, 0, 48, 0
3, 129600, Note_on_c, 0, 50, 0
3, 129600, Note_on_c, 0, 41, 17
3, 130080, Note_on_c, 0, 41, 0
3, 130080, Note_on_c, 0, 34, 17
3, 130560, Note_on_c, 0, 34, 0
3, 130560, Note_on_c, 0, 53, 14
3, 130560, Note_on_c, 0, 55, 17
3, 131040, Note_on_c, 0, 55, 0
3, 131040, Note_on_c, 0, 53, 0
3, 131040, Note_on_c, 0, 48, 14
3, 131040, Note_on_c, 0, 50, 17
3, 131520, Note_on_c, 0, 50, 0
3, 131520, Note_on_c, 0, 48, 0
3, 131520, Note_on_c, 0, 41, 21
3, 132000, Note_on_c, 0, 34, 21
3, 132960, Note_on_c, 0, 34, 0
3, 132960, Note_on_c, 0, 34, 27
3, 133080, Note_on_c, 0, 34, 0
3, 133200, Note_on_c, 0, 34, 27
3, 133320, Note_on_c, 0, 34, 0
3, 133440, Note_on_c, 0, 33, 27
3, 133560, Note_on_c, 0, 33, 0
3, 133680, Note_on_c, 0, 33, 27
3, 133800, Note_on_c, 0, 33, 0
3, 133920, Note_on_c, 0, 33, 25
3, 134040, Note_on_c, 0, 33, 0
3, 134160, Note_on_c, 0, 33, 25
3, 134280, Note_on_c, 0, 33, 0
3, 134400, Note_on_c, 0, 32, 27
3, 134880, Note_on_c, 0, 32, 0
3, 134880, Note_on_c, 0, 32, 27
3, 135000, Note_on_c, 0, 32, 0
3, 135120, Note_on_c, 0, 32, 27
3, 135240, Note_on_c, 0, 32, 0
3, 135355, Note_on_c, 0, 31, 27
3, 135835, Note_on_c, 0, 31, 0
3, 135840, Note_on_c, 0, 38, 27
3, 136320, Note_on_c, 0, 38, 0
3, 136320, Note_on_c, 0, 41, 0
3, 136320, Note_on_c, 0, 41, 21
3, 136800, Note_on_c, 0, 34, 27
3, 136920, Note_on_c, 0, 34, 0
3, 137040, Note_on_c, 0, 34, 27
3, 137160, Note_on_c, 0, 34, 0
3, 137280, Note_on_c, 0, 33, 27
3, 137400, Note_on_c, 0, 33, 0
3, 137520, Note_on_c, 0, 33, 27
3, 137640, Note_on_c, 0, 33, 0
3, 137760, Note_on_c, 0, 33, 25
3, 137880, Note_on_c, 0, 33, 0
3, 138000, Note_on_c, 0, 33, 25
3, 138120, Note_on_c, 0, 33, 0
3, 138240, Note_on_c, 0, 32, 27
3, 138720, Note_on_c, 0, 32, 0
3, 138720, Note_on_c, 0, 32, 27
3, 138840, Note_on_c, 0, 32, 0
3, 138960, Note_on_c, 0, 32, 27
3, 139320, Note_on_c, 0, 32, 0
3, 139680, Note_on_c, 0, 41, 0
3, 139680, Note_on_c, 0, 31, 27
3, 140160, Note_on_c, 0, 31, 0
3, 140640, Note_on_c, 0, 30, 27
3, 140880, Note_on_c, 0, 30, 0
3, 141120, Note_on_c, 0, 29, 20
3, 141600, Note_on_c, 0, 29, 0
3, 141600, Note_on_c, 0, 38, 17
3, 142080, Note_on_c, 0, 38, 0
3, 142560, Note_on_c, 0, 30, 27
3, 142800, Note_on_c, 0, 30, 0
3, 143040, Note_on_c, 0, 29, 22
3, 143520, Note_on_c, 0, 29, 0
3, 143520, Note_on_c, 0, 38, 21
3, 144000, Note_on_c, 0, 38, 0
3, 144960, Note_on_c, 0, 30, 22
3, 145920, Note_on_c, 0, 30, 0
3, 145920, Note_on_c, 0, 29, 22
3, 146880, Note_on_c, 0, 29, 0
3, 146880, Note_on_c, 0, 26, 22
3, 147840, Note_on_c, 0, 26, 0
3, 147840, Note_on_c, 0, 22, 22
3, 153600, Note_on_c, 0, 22, 0
3, 153600, Note_on_c, 0, 22, 22
3, 153840, Note_on_c, 0, 22, 0
3, 153840, End_track
4, 0, Start_track
4, 0, Title_t, "Pedale"
4, 0, Program_c, 0, 0
4, 6291, Control_c, 0, 64, 127
4, 6708, Control_c, 0, 64, 0
4, 15499, Control_c, 0, 64, 127
4, 26880, Control_c, 0, 64, 0
4, 27392, Control_c, 0, 64, 127
4, 27847, Control_c, 0, 64, 0
4, 34560, Control_c, 0, 64, 127
4, 36480, Control_c, 0, 64, 0
4, 36708, Control_c, 0, 64, 127
4, 38400, Control_c, 0, 64, 0
4, 38527, Control_c, 0, 64, 127
4, 40327, Control_c, 0, 64, 0
4, 40461, Control_c, 0, 64, 127
4, 42246, Control_c, 0, 64, 0
4, 42396, Control_c, 0, 64, 127
4, 44167, Control_c, 0, 64, 0
4, 44316, Control_c, 0, 64, 127
4, 46089, Control_c, 0, 64, 0
4, 46193, Control_c, 0, 64, 127
4, 48008, Control_c, 0, 64, 0
4, 48303, Control_c, 0, 64, 127
4, 49929, Control_c, 0, 64, 0
4, 50076, Control_c, 0, 64, 127
4, 51848, Control_c, 0, 64, 0
4, 52143, Control_c, 0, 64, 127
4, 53767, Control_c, 0, 64, 0
4, 54540, Control_c, 0, 64, 127
4, 55210, Control_c, 0, 64, 0
4, 56640, Control_c, 0, 64, 127
4, 57607, Control_c, 0, 64, 0
4, 58380, Control_c, 0, 64, 127
4, 59050, Control_c, 0, 64, 0
4, 61932, Control_c, 0, 64, 127
4, 62412, Control_c, 0, 64, 0
4, 62549, Control_c, 0, 64, 127
4, 63360, Control_c, 0, 64, 0
4, 63852, Control_c, 0, 64, 127
4, 64332, Control_c, 0, 64, 0
4, 64469, Control_c, 0, 64, 127
4, 64812, Control_c, 0, 64, 0
4, 64932, Control_c, 0, 64, 127
4, 65772, Control_c, 0, 64, 127
4, 66252, Control_c, 0, 64, 0
4, 66349, Control_c, 0, 64, 127
4, 67200, Control_c, 0, 64, 0
4, 67692, Control_c, 0, 64, 127
4, 68172, Control_c, 0, 64, 0
4, 68309, Control_c, 0, 64, 127
4, 68652, Control_c, 0, 64, 0
4, 68772, Control_c, 0, 64, 127
4, 69120, Control_c, 0, 64, 0
4, 88372, Control_c, 0, 64, 127
4, 88823, Control_c, 0, 64, 0
4, 89360, Control_c, 0, 64, 127
4, 89542, Control_c, 0, 64, 0
4, 90292, Control_c, 0, 64, 127
4, 90743, Control_c, 0, 64, 0
4, 91280, Control_c, 0, 64, 127
4, 91462, Control_c, 0, 64, 0
4, 92212, Control_c, 0, 64, 127
4, 92663, Control_c, 0, 64, 0
4, 93200, Control_c, 0, 64, 127
4, 93600, Control_c, 0, 64, 0
4, 94132, Control_c, 0, 64, 127
4, 94583, Control_c, 0, 64, 0
4, 95120, Control_c, 0, 64, 127
4, 96000, Control_c, 0, 64, 0
4, 96052, Control_c, 0, 64, 127
4, 96503, Control_c, 0, 64, 0
4, 97040, Control_c, 0, 64, 127
4, 97460, Control_c, 0, 64, 0
4, 97526, Control_c, 0, 64, 127
4, 97920, Control_c, 0, 64, 0
4, 98023, Control_c, 0, 64, 127
4, 98423, Control_c, 0, 64, 0
4, 98960, Control_c, 0, 64, 127
4, 99380, Control_c, 0, 64, 0
4, 99503, Control_c, 0, 64, 127
4, 99840, Control_c, 0, 64, 0
4, 99909, Control_c, 0, 64, 127
4, 101760, Control_c, 0, 64, 0
4, 101845, Control_c, 0, 64, 127
4, 102737, Control_c, 0, 64, 0
4, 103680, Control_c, 0, 64, 0
4, 103765, Control_c, 0, 64, 127
4, 104657, Control_c, 0, 64, 0
4, 104746, Control_c, 0, 64, 127
4, 105600, Control_c, 0, 64, 0
4, 105685, Control_c, 0, 64, 127
4, 106577, Control_c, 0, 64, 0
4, 107520, Control_c, 0, 64, 127
4, 108537, Control_c, 0, 64, 0
4, 108595, Control_c, 0, 64, 127
4, 109440, Control_c, 0, 64, 0
4, 109539, Control_c, 0, 64, 127
4, 109939, Control_c, 0, 64, 0
4, 110019, Control_c, 0, 64, 127
4, 110421, Control_c, 0, 64, 0
4, 110506, Control_c, 0, 64, 127
4, 111360, Control_c, 0, 64, 0
4, 111600, Control_c, 0, 64, 127
4, 113280, Control_c, 0, 64, 0
4, 113421, Control_c, 0, 64, 127
4, 115200, Control_c, 0, 64, 0
4, 115440, Control_c, 0, 64, 127
4, 117120, Control_c, 0, 64, 0
4, 117261, Control_c, 0, 64, 127
4, 119040, Control_c, 0, 64, 0
4, 119167, Control_c, 0, 64, 127
4, 120004, Control_c, 0, 64, 0
4, 120085, Control_c, 0, 64, 127
4, 121045, Control_c, 0, 64, 0
4, 121228, Control_c, 0, 64, 127
4, 122886, Control_c, 0, 64, 0
4, 123036, Control_c, 0, 64, 127
4, 123849, Control_c, 0, 64, 0
4, 123939, Control_c, 0, 64, 127
4, 124899, Control_c, 0, 64, 0
4, 124956, Control_c, 0, 64, 127
4, 126729, Control_c, 0, 64, 0
4, 126833, Control_c, 0, 64, 127
4, 128648, Control_c, 0, 64, 0
4, 128943, Control_c, 0, 64, 127
4, 130569, Control_c, 0, 64, 0
4, 130716, Control_c, 0, 64, 127
4, 132488, Control_c, 0, 64, 0
4, 136328, Control_c, 0, 64, 0
4, 136328, End_track
5, 0, Start_track
5, 0, Title_t, "Debussy: Childrens Corner 2"
5, 0, End_track
6, 0, Start_track
6, 0, Title_t, "Copyright © 2010 by Bernd Krueger"
6, 0, End_track
7, 0, Start_track
7, 0, Title_t, "http://www.piano-midi.de/"
7, 0, End_track
8, 0, Start_track
8, 0, Title_t, "Edition: 2011-05-24"
8, 0, End_track
9, 0, Start_track
9, 0, Title_t, "Spur 8"
9, 0, End_track
10, 0, Start_track
10, 0, Title_t, "Spur 9"
10, 0, End_track
11, 0, Start_track
11, 0, Title_t, "Spur 10"
11, 0, End_track
12, 0, Start_track
12, 0, Title_t, "Spur 11"
12, 0, End_track
13, 0, Start_track
13, 0, Title_t, "Spur 12"
13, 0, End_track
14, 0, Start_track
14, 0, Title_t, "Spur 13"
14, 0, End_track
15, 0, Start_track
15, 0, Title_t, "Spur 14"
15, 0, End_track
16, 0, Start_track
16, 0, Title_t, "Spur 15"
16, 0, End_track
17, 0, Start_track
17, 0, Title_t, "Spur 16"
17, 0, End_track
0, 0, End_of_file
