0, 0, Header, 1, 17, 480
1, 0, Start_track
1, 0, Title_t, "Debussy: Childrens Corner 1"
1, 0, Title_t, "Doctor Gradus ad Parnassum"
1, 0, Copyright_t, "Copyright © 2011 by Bernd Krueger"
1, 0, Text_t, "Bernd Krueger"
1, 0, Text_t, "Erstellt: 12.5.2011\012"
1, 0, Text_t, "Dauer: 2:24 Minuten\012"
1, 0, Time_signature, 4, 2, 24, 8
1, 0, Key_signature, 0, "major"
1, 0, Tempo, 488440
1, 120, Tempo, 529147
1, 211, Tempo, 507014
1, 240, Tempo, 521694
1, 595, Tempo, 512777
1, 634, Tempo, 510595
1, 672, Tempo, 508431
1, 691, Tempo, 506286
1, 730, Tempo, 504159
1, 749, Tempo, 502050
1, 787, Tempo, 499958
1, 826, Tempo, 497884
1, 845, Tempo, 495827
1, 883, Tempo, 493787
1, 903, Tempo, 491763
1, 941, Tempo, 489756
1, 960, Tempo, 487765
1, 1440, Tempo, 481889
1, 1920, Tempo, 472404
1, 2400, Tempo, 468713
1, 3240, Tempo, 502050
1, 3360, Tempo, 507743
1, 3399, Tempo, 509901
1, 3418, Tempo, 512076
1, 3456, Tempo, 514271
1, 3475, Tempo, 516484
1, 3514, Tempo, 518717
1, 3533, Tempo, 520969
1, 3552, Tempo, 523241
1, 3591, Tempo, 525532
1, 3610, Tempo, 527844
1, 3648, Tempo, 530176
1, 3667, Tempo, 532529
1, 3687, Tempo, 534902
1, 3725, Tempo, 537297
1, 3744, Tempo, 539714
1, 3783, Tempo, 542152
1, 3802, Tempo, 544613
1, 3821, Tempo, 547096
1, 3840, Tempo, 468128
1, 4200, Tempo, 539714
1, 4320, Tempo, 479731
1, 4800, Tempo, 473410
1, 6600, Tempo, 491119
1, 6720, Tempo, 473672
1, 7680, Tempo, 469962
1, 8520, Tempo, 516484
1, 8640, Tempo, 473410
1, 9000, Tempo, 557258
1, 9101, Tempo, 514271
1, 9139, Tempo, 516484
1, 9159, Tempo, 518717
1, 9178, Tempo, 520969
1, 9197, Tempo, 523241
1, 9216, Tempo, 525532
1, 9235, Tempo, 527844
1, 9255, Tempo, 530176
1, 9293, Tempo, 532529
1, 9312, Tempo, 534902
1, 9331, Tempo, 537297
1, 9351, Tempo, 539714
1, 9370, Tempo, 542152
1, 9389, Tempo, 544613
1, 9408, Tempo, 547096
1, 9480, Tempo, 633781
1, 9600, Tempo, 557776
1, 9720, Tempo, 469962
1, 9840, Tempo, 468494
1, 10560, Tempo, 477631
1, 11040, Tempo, 486224
1, 11520, Tempo, 539714
1, 11640, Tempo, 484027
1, 12000, Tempo, 477631
1, 12058, Tempo, 479731
1, 12115, Tempo, 481889
1, 12173, Tempo, 484027
1, 12231, Tempo, 486224
1, 12288, Tempo, 488440
1, 12346, Tempo, 490637
1, 12403, Tempo, 492894
1, 12430, Tempo, 486224
1, 12602, Tempo, 484027
1, 12775, Tempo, 481889
1, 12948, Tempo, 479731
1, 13440, Tempo, 556380
1, 13560, Tempo, 479731
1, 13901, Tempo, 469300
1, 13959, Tempo, 471365
1, 13997, Tempo, 473410
1, 14035, Tempo, 475511
1, 14074, Tempo, 477631
1, 14112, Tempo, 479731
1, 14151, Tempo, 481889
1, 14189, Tempo, 484027
1, 14227, Tempo, 486224
1, 14266, Tempo, 488440
1, 14304, Tempo, 490637
1, 14343, Tempo, 492894
1, 14381, Tempo, 495131
1, 14407, Tempo, 488440
1, 14503, Tempo, 486224
1, 14599, Tempo, 484027
1, 14695, Tempo, 481889
1, 14791, Tempo, 479731
1, 14887, Tempo, 477631
1, 15360, Tempo, 545157
1, 15480, Tempo, 479731
1, 15879, Tempo, 475511
1, 15955, Tempo, 477631
1, 16032, Tempo, 479731
1, 16109, Tempo, 481889
1, 16186, Tempo, 484027
1, 16263, Tempo, 486224
1, 16320, Tempo, 488440
1, 16359, Tempo, 484027
1, 16435, Tempo, 481889
1, 16512, Tempo, 479731
1, 16589, Tempo, 477631
1, 17280, Tempo, 550711
1, 17400, Tempo, 479731
1, 17729, Tempo, 469300
1, 17786, Tempo, 471365
1, 17844, Tempo, 473410
1, 17902, Tempo, 475511
1, 17940, Tempo, 477631
1, 17998, Tempo, 479731
1, 18055, Tempo, 481889
1, 18094, Tempo, 484027
1, 18151, Tempo, 486224
1, 18209, Tempo, 488440
1, 18247, Tempo, 488440
1, 18324, Tempo, 486224
1, 18382, Tempo, 484027
1, 18458, Tempo, 481889
1, 18516, Tempo, 479731
1, 18593, Tempo, 477631
1, 18650, Tempo, 475511
1, 18708, Tempo, 473410
1, 19560, Tempo, 509165
1, 19680, Tempo, 479731
1, 20040, Tempo, 511553
1, 20160, Tempo, 479731
1, 20520, Tempo, 514007
1, 20640, Tempo, 479731
1, 20657, Tempo, 480615
1, 20695, Tempo, 482548
1, 20733, Tempo, 484496
1, 20772, Tempo, 486460
1, 20810, Tempo, 488440
1, 20849, Tempo, 490436
1, 20887, Tempo, 492449
1, 20925, Tempo, 494478
1, 20964, Tempo, 496524
1, 20983, Tempo, 498587
1, 21000, Tempo, 646273
1, 21120, Tempo, 479731
1, 23160, Tempo, 463285
1, 23880, Tempo, 477631
1, 24000, Tempo, 477631
1, 24120, Tempo, 463285
1, 24840, Tempo, 479731
1, 24960, Tempo, 521467
1, 25080, Tempo, 473410
1, 25200, Tempo, 457387
1, 25800, Tempo, 467290
1, 25920, Tempo, 477631
1, 26040, Tempo, 457387
1, 26760, Tempo, 511553
1, 26880, Tempo, 479731
1, 27000, Tempo, 463285
1, 27720, Tempo, 477631
1, 27840, Tempo, 477631
1, 27960, Tempo, 463285
1, 28680, Tempo, 530176
1, 28800, Tempo, 521467
1, 28920, Tempo, 477631
1, 29040, Tempo, 467290
1, 29640, Tempo, 477631
1, 29760, Tempo, 465261
1, 29880, Tempo, 463285
1, 30600, Tempo, 479731
1, 30720, Tempo, 479731
1, 30840, Tempo, 463285
1, 31560, Tempo, 477631
1, 31680, Tempo, 479731
1, 31800, Tempo, 463285
1, 32520, Tempo, 477631
1, 32640, Tempo, 479731
1, 32760, Tempo, 463285
1, 33480, Tempo, 467290
1, 33600, Tempo, 465261
1, 33720, Tempo, 463285
1, 34440, Tempo, 477631
1, 34560, Tempo, 479731
1, 34680, Tempo, 463285
1, 35400, Tempo, 477631
1, 35520, Tempo, 479731
1, 35640, Tempo, 463285
1, 36360, Tempo, 477631
1, 36480, Tempo, 479731
1, 36600, Tempo, 463285
1, 37320, Tempo, 467290
1, 37440, Tempo, 465261
1, 37560, Tempo, 463285
1, 38280, Tempo, 477631
1, 38400, Tempo, 479731
1, 38520, Tempo, 463285
1, 38880, Tempo, 471180
1, 39240, Tempo, 534426
1, 39360, Tempo, 525072
1, 39480, Tempo, 518269
1, 39600, Tempo, 513831
1, 39830, Tempo, 497224
1, 39869, Tempo, 499293
1, 39869, Tempo, 514271
1, 39889, Tempo, 518717
1, 39908, Tempo, 525532
1, 39927, Tempo, 532529
1, 39946, Tempo, 537297
1, 39965, Tempo, 544613
1, 39985, Tempo, 552130
1, 40004, Tempo, 557258
1, 40023, Tempo, 565131
1, 40042, Tempo, 573230
1, 40061, Tempo, 581564
1, 40081, Tempo, 587257
1, 40100, Tempo, 596007
1, 40119, Tempo, 605022
1, 40138, Tempo, 611185
1, 40157, Tempo, 620668
1, 40196, Tempo, 640547
1, 40200, Tempo, 853849
1, 40320, Tempo, 586682
1, 40440, Tempo, 620027
1, 40560, Tempo, 539714
1, 40637, Tempo, 537297
1, 40694, Tempo, 534902
1, 40771, Tempo, 532529
1, 40829, Tempo, 530176
1, 40886, Tempo, 527844
1, 40925, Tempo, 525532
1, 40963, Tempo, 523241
1, 41021, Tempo, 520969
1, 41059, Tempo, 518717
1, 41097, Tempo, 516484
1, 41099, Tempo, 498587
1, 41118, Tempo, 496524
1, 41137, Tempo, 494478
1, 41157, Tempo, 492449
1, 41176, Tempo, 490436
1, 41760, Tempo, 481889
1, 42240, Tempo, 473410
1, 43560, Tempo, 502050
1, 43680, Tempo, 473410
1, 44520, Tempo, 539714
1, 44640, Tempo, 479731
1, 44880, Tempo, 468128
1, 45000, Tempo, 466309
1, 45120, Tempo, 468128
1, 45480, Tempo, 532529
1, 45600, Tempo, 475549
1, 45840, Tempo, 464504
1, 46080, Tempo, 473410
1, 46440, Tempo, 497224
1, 46560, Tempo, 479731
1, 46800, Tempo, 468128
1, 46920, Tempo, 466309
1, 47040, Tempo, 468128
1, 47400, Tempo, 532529
1, 47520, Tempo, 475549
1, 47760, Tempo, 464504
1, 48000, Tempo, 473410
1, 48360, Tempo, 497224
1, 48480, Tempo, 479731
1, 48720, Tempo, 468128
1, 48840, Tempo, 466309
1, 48960, Tempo, 468128
1, 49320, Tempo, 532529
1, 49440, Tempo, 475549
1, 49680, Tempo, 464504
1, 49920, Tempo, 473410
1, 50280, Tempo, 497224
1, 50400, Tempo, 469962
1, 50640, Tempo, 468128
1, 50760, Tempo, 466309
1, 50880, Tempo, 468128
1, 51120, Tempo, 468128
1, 51240, Tempo, 466309
1, 51720, Tempo, 495172
1, 51840, Tempo, 473410
1, 52200, Tempo, 481271
1, 52320, Tempo, 469962
1, 52560, Tempo, 468128
1, 52680, Tempo, 512076
1, 52800, Tempo, 468128
1, 53040, Tempo, 468128
1, 53160, Tempo, 466309
1, 53640, Tempo, 495172
1, 53760, Tempo, 473410
1, 54120, Tempo, 481271
1, 54240, Tempo, 503905
1, 54480, Tempo, 528309
1, 54600, Tempo, 545108
1, 54720, Tempo, 468128
1, 54960, Tempo, 468128
1, 55080, Tempo, 466309
1, 55560, Tempo, 495172
1, 55680, Tempo, 473410
1, 56040, Tempo, 497224
1, 56160, Tempo, 469962
1, 56400, Tempo, 468128
1, 56520, Tempo, 466309
1, 56640, Tempo, 468128
1, 56880, Tempo, 468128
1, 57000, Tempo, 466309
1, 57480, Tempo, 534902
1, 57598, Tempo, 453961
1, 57770, Tempo, 455685
1, 57943, Tempo, 457422
1, 58116, Tempo, 459172
1, 58270, Tempo, 460936
1, 58442, Tempo, 462713
1, 58615, Tempo, 464504
1, 58788, Tempo, 466309
1, 58942, Tempo, 468128
1, 59114, Tempo, 469962
1, 59287, Tempo, 471809
1, 59441, Tempo, 473672
1, 59479, Tempo, 471809
1, 59537, Tempo, 473672
1, 59594, Tempo, 475549
1, 59652, Tempo, 477441
1, 59710, Tempo, 479348
1, 59748, Tempo, 481271
1, 59806, Tempo, 483209
1, 59863, Tempo, 485162
1, 59921, Tempo, 487132
1, 59978, Tempo, 489117
1, 60000, Tempo, 567269
1, 60240, Tempo, 581001
1, 60480, Tempo, 556741
1, 60960, Tempo, 565131
1, 60976, Tempo, 540492
1, 60979, Tempo, 556741
1, 60998, Tempo, 559336
1, 61017, Tempo, 561956
1, 61037, Tempo, 564600
1, 61056, Tempo, 567269
1, 61075, Tempo, 569963
1, 61094, Tempo, 572683
1, 61113, Tempo, 575429
1, 61133, Tempo, 578202
1, 61152, Tempo, 581001
1, 61171, Tempo, 583828
1, 61190, Tempo, 586682
1, 61209, Tempo, 589565
1, 61229, Tempo, 592476
1, 61248, Tempo, 595415
1, 61267, Tempo, 598384
1, 61286, Tempo, 601383
1, 61320, Tempo, 724900
1, 61440, Key_signature, -2, "major"
1, 61440, Tempo, 606244
1, 62400, Tempo, 574328
1, 62640, Tempo, 603197
1, 63360, Tempo, 574328
1, 63600, Tempo, 597193
1, 64320, Tempo, 568882
1, 64560, Tempo, 600180
1, 64800, Tempo, 597193
1, 66240, Tempo, 577090
1, 67200, Tempo, 596007
1, 68640, Tempo, 824516
1, 69120, Key_signature, -5, "major"
1, 69120, Tempo, 549099
1, 69360, Tempo, 503060
1, 69600, Tempo, 486736
1, 70800, Tempo, 534426
1, 71040, Tempo, 486736
1, 71280, Tempo, 516040
1, 71520, Tempo, 480885
1, 72720, Tempo, 511640
1, 72960, Tempo, 549099
1, 73200, Tempo, 503060
1, 73440, Tempo, 486736
1, 74640, Tempo, 534426
1, 74880, Tempo, 486736
1, 75120, Tempo, 516040
1, 75360, Tempo, 480885
1, 76560, Tempo, 511640
1, 76800, Tempo, 549099
1, 77040, Tempo, 503060
1, 77280, Tempo, 486736
1, 77760, Tempo, 475172
1, 78720, Tempo, 460582
1, 80400, Tempo, 534426
1, 80640, Tempo, 458821
1, 80880, Tempo, 503060
1, 81000, Tempo, 460582
1, 82320, Tempo, 482820
1, 82560, Tempo, 464145
1, 83330, Tempo, 490717
1, 83407, Tempo, 492732
1, 83465, Tempo, 494764
1, 83522, Tempo, 496812
1, 83561, Tempo, 498878
1, 83599, Tempo, 500960
1, 83637, Tempo, 503060
1, 83676, Tempo, 505178
1, 83714, Tempo, 539229
1, 83753, Tempo, 541663
1, 83772, Tempo, 544119
1, 83810, Tempo, 546597
1, 83829, Tempo, 549099
1, 83868, Tempo, 551623
1, 83887, Tempo, 554170
1, 83925, Tempo, 556741
1, 83945, Tempo, 559336
1, 83983, Tempo, 561956
1, 84002, Tempo, 564600
1, 84041, Tempo, 567269
1, 84060, Tempo, 569963
1, 84098, Tempo, 572683
1, 84117, Tempo, 575429
1, 84156, Tempo, 578202
1, 84175, Tempo, 581001
1, 84213, Tempo, 583828
1, 84233, Tempo, 586682
1, 84271, Tempo, 589565
1, 84290, Tempo, 592476
1, 84329, Tempo, 595415
1, 84348, Tempo, 598384
1, 84386, Tempo, 601383
1, 84405, Tempo, 604412
1, 84444, Tempo, 607472
1, 84463, Tempo, 610563
1, 84480, Key_signature, 0, "major"
1, 84480, Tempo, 467654
1, 84600, Tempo, 517286
1, 84691, Tempo, 485437
1, 84720, Tempo, 500042
1, 85075, Tempo, 485437
1, 85081, Tempo, 497967
1, 85119, Tempo, 495909
1, 85138, Tempo, 493868
1, 85157, Tempo, 491844
1, 85196, Tempo, 489836
1, 85215, Tempo, 487845
1, 85234, Tempo, 485869
1, 85253, Tempo, 483910
1, 85292, Tempo, 481966
1, 85311, Tempo, 480038
1, 85330, Tempo, 478126
1, 85349, Tempo, 476228
1, 85388, Tempo, 474346
1, 85407, Tempo, 472478
1, 85426, Tempo, 470625
1, 85445, Tempo, 468787
1, 85920, Tempo, 461396
1, 86400, Tempo, 453275
1, 87720, Tempo, 480692
1, 87840, Tempo, 475172
1, 88320, Tempo, 453618
1, 88680, Tempo, 516751
1, 88800, Tempo, 459313
1, 89280, Tempo, 453275
1, 92160, Tempo, 455270
1, 93000, Tempo, 494519
1, 93120, Tempo, 453275
1, 93480, Tempo, 533570
1, 93607, Tempo, 520517
1, 93608, Tempo, 494764
1, 93627, Tempo, 496812
1, 93646, Tempo, 498878
1, 93666, Tempo, 503060
1, 93685, Tempo, 505178
1, 93704, Tempo, 509468
1, 93723, Tempo, 511640
1, 93742, Tempo, 516040
1, 93762, Tempo, 518269
1, 93781, Tempo, 522785
1, 93800, Tempo, 525072
1, 93819, Tempo, 529708
1, 93838, Tempo, 532056
1, 93858, Tempo, 536817
1, 93877, Tempo, 539229
1, 93896, Tempo, 544119
1, 93915, Tempo, 546597
1, 93934, Tempo, 551623
1, 93954, Tempo, 554170
1, 93973, Tempo, 559336
1, 93992, Tempo, 561956
1, 94011, Tempo, 567269
1, 94030, Tempo, 569963
1, 94050, Tempo, 575429
1, 94068, Tempo, 581001
1, 94080, Tempo, 516040
1, 94320, Tempo, 453618
1, 95040, Tempo, 457317
1, 95520, Tempo, 465549
1, 96000, Tempo, 516751
1, 96120, Tempo, 463428
1, 96480, Tempo, 457317
1, 96538, Tempo, 459313
1, 96595, Tempo, 461396
1, 96653, Tempo, 463428
1, 96711, Tempo, 465549
1, 96768, Tempo, 467654
1, 96826, Tempo, 469778
1, 96883, Tempo, 471921
1, 96910, Tempo, 465549
1, 97082, Tempo, 463428
1, 97255, Tempo, 461396
1, 97428, Tempo, 459313
1, 97920, Tempo, 532718
1, 98040, Tempo, 459313
1, 98381, Tempo, 449337
1, 98439, Tempo, 451297
1, 98477, Tempo, 453275
1, 98515, Tempo, 455270
1, 98554, Tempo, 457317
1, 98592, Tempo, 459313
1, 98631, Tempo, 461396
1, 98669, Tempo, 463428
1, 98707, Tempo, 465549
1, 98746, Tempo, 467654
1, 98784, Tempo, 469778
1, 98823, Tempo, 471921
1, 98861, Tempo, 474083
1, 98887, Tempo, 467654
1, 98983, Tempo, 465549
1, 99079, Tempo, 463428
1, 99175, Tempo, 461396
1, 99271, Tempo, 459313
1, 99367, Tempo, 457317
1, 99840, Tempo, 521966
1, 99960, Tempo, 459313
1, 100359, Tempo, 455270
1, 100435, Tempo, 457317
1, 100512, Tempo, 459313
1, 100589, Tempo, 461396
1, 100666, Tempo, 463428
1, 100743, Tempo, 465549
1, 100800, Tempo, 467654
1, 100839, Tempo, 463428
1, 100915, Tempo, 461396
1, 100992, Tempo, 459313
1, 101069, Tempo, 457317
1, 101760, Tempo, 527287
1, 101880, Tempo, 459313
1, 102209, Tempo, 449337
1, 102266, Tempo, 451297
1, 102324, Tempo, 453275
1, 102382, Tempo, 455270
1, 102420, Tempo, 457317
1, 102478, Tempo, 459313
1, 102535, Tempo, 461396
1, 102574, Tempo, 463428
1, 102631, Tempo, 465549
1, 102689, Tempo, 467654
1, 102727, Tempo, 467654
1, 102804, Tempo, 465549
1, 102862, Tempo, 463428
1, 102938, Tempo, 461396
1, 102996, Tempo, 459313
1, 103073, Tempo, 457317
1, 103130, Tempo, 455270
1, 103188, Tempo, 453275
1, 104040, Tempo, 487488
1, 104160, Tempo, 459313
1, 104520, Tempo, 489796
1, 104640, Tempo, 459313
1, 105000, Tempo, 492126
1, 105120, Tempo, 459313
1, 105137, Tempo, 460158
1, 105463, Tempo, 477365
1, 105480, Tempo, 471772
1, 105600, Tempo, 460440
1, 105960, Tempo, 469851
1, 106080, Tempo, 459313
1, 106440, Tempo, 489796
1, 106560, Tempo, 459313
1, 106920, Tempo, 492126
1, 107040, Tempo, 459313
1, 107057, Tempo, 460158
1, 107364, Tempo, 475398
1, 107383, Tempo, 477365
1, 107400, Tempo, 479655
1, 107520, Tempo, 458961
1, 107760, Tempo, 443885
1, 108000, Tempo, 451433
1, 108480, Tempo, 441469
1, 109320, Tempo, 511640
1, 109440, Tempo, 567269
1, 109660, Tempo, 503060
1, 109680, Tempo, 498878
1, 109699, Tempo, 494764
1, 109718, Tempo, 490717
1, 109737, Tempo, 486736
1, 109756, Tempo, 482820
1, 109776, Tempo, 478965
1, 109795, Tempo, 475172
1, 109814, Tempo, 471439
1, 109833, Tempo, 467763
1, 109852, Tempo, 464145
1, 109872, Tempo, 460582
1, 109891, Tempo, 455339
1, 109967, Tempo, 453961
1, 110025, Tempo, 452250
1, 110082, Tempo, 450552
1, 110140, Tempo, 448867
1, 110217, Tempo, 447194
1, 110274, Tempo, 445534
1, 110332, Tempo, 443885
1, 110389, Tempo, 442250
1, 111240, Tempo, 511640
1, 111360, Tempo, 460936
1, 111600, Tempo, 448867
1, 112002, Tempo, 450552
1, 112060, Tempo, 448867
1, 112137, Tempo, 447194
1, 112194, Tempo, 445534
1, 112252, Tempo, 443885
1, 112309, Tempo, 442250
1, 113280, Tempo, 430385
1, 113520, Tempo, 433495
1, 113922, Tempo, 450552
1, 114000, Tempo, 440626
1, 114057, Tempo, 447194
1, 114114, Tempo, 445534
1, 114172, Tempo, 443885
1, 114229, Tempo, 442250
1, 115080, Tempo, 567269
1, 115200, Tempo, 435066
1, 115560, Tempo, 452250
1, 115680, Tempo, 443885
1, 116040, Tempo, 436649
1, 117000, Tempo, 453961
1, 117120, Tempo, 447194
1, 117600, Tempo, 443885
1, 118080, Tempo, 431934
1, 118920, Tempo, 496812
1, 119040, Tempo, 439850
1, 119520, Tempo, 433495
1, 120840, Tempo, 460936
1, 120960, Tempo, 443099
1, 121440, Tempo, 438244
1, 122760, Tempo, 460936
1, 122880, Tempo, 435066
1, 123360, Tempo, 443885
1, 123720, Tempo, 460936
1, 123840, Tempo, 435066
1, 124320, Tempo, 447194
1, 124800, Tempo, 439014
1, 125280, Tempo, 443885
1, 125640, Tempo, 460936
1, 125760, Tempo, 440626
1, 126240, Tempo, 447194
1, 126720, Tempo, 432682
1, 127200, Tempo, 440626
1, 127680, Tempo, 432682
1, 128160, Tempo, 435825
1, 128640, Tempo, 432682
1, 129120, Tempo, 428052
1, 129600, Tempo, 421319
1, 130440, Tempo, 462713
1, 130560, Tempo, 432682
1, 131040, Tempo, 440626
1, 131520, Tempo, 432682
1, 132000, Tempo, 435825
1, 132480, Tempo, 432682
1, 132960, Tempo, 428052
1, 133440, Tempo, 422803
1, 134280, Tempo, 462713
1, 134400, Tempo, 416175
1, 136322, Tempo, 432682
1, 136341, Tempo, 417624
1, 136476, Tempo, 416175
1, 136610, Tempo, 414737
1, 136745, Tempo, 413309
1, 136879, Tempo, 411890
1, 137013, Tempo, 410481
1, 137148, Tempo, 409082
1, 137282, Tempo, 407692
1, 137417, Tempo, 406311
1, 137551, Tempo, 404940
1, 137685, Tempo, 403578
1, 137724, Tempo, 407692
1, 137762, Tempo, 409082
1, 137801, Tempo, 410481
1, 137820, Tempo, 411890
1, 137858, Tempo, 413309
1, 137877, Tempo, 414737
1, 137916, Tempo, 416175
1, 137935, Tempo, 417624
1, 137973, Tempo, 419082
1, 138012, Tempo, 420551
1, 138031, Tempo, 422030
1, 138069, Tempo, 423519
1, 138120, Tempo, 1036807
1, 138240, Tempo, 425019
1, 141120, Tempo, 477441
1, 141120, End_track
2, 0, Start_track
2, 0, Title_t, "Piano right"
2, 0, Program_c, 0, 0
2, 120, Note_on_c, 0, 55, 25
2, 240, Note_on_c, 0, 55, 0
2, 240, Note_on_c, 0, 60, 26
2, 360, Note_on_c, 0, 60, 0
2, 360, Note_on_c, 0, 62, 24
2, 480, Note_on_c, 0, 62, 0
2, 480, Note_on_c, 0, 64, 29
2, 600, Note_on_c, 0, 64, 0
2, 600, Note_on_c, 0, 55, 27
2, 720, Note_on_c, 0, 55, 0
2, 720, Note_on_c, 0, 60, 27
2, 840, Note_on_c, 0, 60, 0
2, 840, Note_on_c, 0, 64, 26
2, 960, Note_on_c, 0, 64, 0
2, 960, Note_on_c, 0, 62, 31
2, 1080, Note_on_c, 0, 62, 0
2, 1080, Note_on_c, 0, 53, 29
2, 1200, Note_on_c, 0, 53, 0
2, 1200, Note_on_c, 0, 60, 30
2, 1320, Note_on_c, 0, 60, 0
2, 1320, Note_on_c, 0, 62, 27
2, 1440, Note_on_c, 0, 62, 0
2, 1440, Note_on_c, 0, 65, 34
2, 1560, Note_on_c, 0, 65, 0
2, 1560, Note_on_c, 0, 57, 31
2, 1680, Note_on_c, 0, 57, 0
2, 1680, Note_on_c, 0, 59, 32
2, 1800, Note_on_c, 0, 59, 0
2, 1800, Note_on_c, 0, 65, 30
2, 1920, Note_on_c, 0, 65, 0
2, 1920, Note_on_c, 0, 64, 37
2, 2040, Note_on_c, 0, 64, 0
2, 2040, Note_on_c, 0, 55, 34
2, 2160, Note_on_c, 0, 55, 0
2, 2160, Note_on_c, 0, 60, 34
2, 2280, Note_on_c, 0, 60, 0
2, 2280, Note_on_c, 0, 64, 32
2, 2400, Note_on_c, 0, 64, 0
2, 2400, Note_on_c, 0, 67, 37
2, 2520, Note_on_c, 0, 67, 0
2, 2520, Note_on_c, 0, 59, 34
2, 2640, Note_on_c, 0, 59, 0
2, 2640, Note_on_c, 0, 60, 34
2, 2760, Note_on_c, 0, 60, 0
2, 2760, Note_on_c, 0, 67, 32
2, 2880, Note_on_c, 0, 67, 0
2, 2880, Note_on_c, 0, 65, 38
2, 3000, Note_on_c, 0, 65, 0
2, 3000, Note_on_c, 0, 57, 35
2, 3120, Note_on_c, 0, 57, 0
2, 3120, Note_on_c, 0, 60, 35
2, 3240, Note_on_c, 0, 60, 0
2, 3240, Note_on_c, 0, 65, 32
2, 3360, Note_on_c, 0, 65, 0
2, 3360, Note_on_c, 0, 69, 38
2, 3480, Note_on_c, 0, 69, 0
2, 3480, Note_on_c, 0, 59, 35
2, 3600, Note_on_c, 0, 59, 0
2, 3600, Note_on_c, 0, 65, 35
2, 3720, Note_on_c, 0, 65, 0
2, 3720, Note_on_c, 0, 69, 32
2, 3840, Note_on_c, 0, 69, 0
2, 3840, Note_on_c, 0, 67, 42
2, 3960, Note_on_c, 0, 67, 0
2, 3960, Note_on_c, 0, 60, 36
2, 4080, Note_on_c, 0, 60, 0
2, 4080, Note_on_c, 0, 64, 36
2, 4200, Note_on_c, 0, 64, 0
2, 4200, Note_on_c, 0, 67, 30
2, 4320, Note_on_c, 0, 67, 0
2, 4320, Note_on_c, 0, 72, 50
2, 4440, Note_on_c, 0, 64, 38
2, 4500, Note_on_c, 0, 72, 0
2, 4560, Note_on_c, 0, 64, 0
2, 4560, Note_on_c, 0, 67, 38
2, 4680, Note_on_c, 0, 67, 0
2, 4680, Note_on_c, 0, 72, 32
2, 4800, Note_on_c, 0, 72, 0
2, 4800, Note_on_c, 0, 74, 53
2, 4920, Note_on_c, 0, 64, 42
2, 4980, Note_on_c, 0, 74, 0
2, 5040, Note_on_c, 0, 64, 0
2, 5040, Note_on_c, 0, 67, 42
2, 5160, Note_on_c, 0, 67, 0
2, 5160, Note_on_c, 0, 74, 35
2, 5280, Note_on_c, 0, 74, 0
2, 5280, Note_on_c, 0, 72, 52
2, 5400, Note_on_c, 0, 64, 41
2, 5460, Note_on_c, 0, 72, 0
2, 5520, Note_on_c, 0, 64, 0
2, 5520, Note_on_c, 0, 67, 41
2, 5640, Note_on_c, 0, 67, 0
2, 5640, Note_on_c, 0, 72, 38
2, 5760, Note_on_c, 0, 72, 0
2, 5760, Note_on_c, 0, 71, 47
2, 5880, Note_on_c, 0, 64, 38
2, 5940, Note_on_c, 0, 71, 0
2, 6000, Note_on_c, 0, 64, 0
2, 6000, Note_on_c, 0, 67, 38
2, 6120, Note_on_c, 0, 67, 0
2, 6120, Note_on_c, 0, 71, 27
2, 6240, Note_on_c, 0, 71, 0
2, 6240, Note_on_c, 0, 69, 47
2, 6360, Note_on_c, 0, 64, 35
2, 6420, Note_on_c, 0, 69, 0
2, 6480, Note_on_c, 0, 64, 0
2, 6480, Note_on_c, 0, 67, 35
2, 6600, Note_on_c, 0, 67, 0
2, 6600, Note_on_c, 0, 69, 27
2, 6720, Note_on_c, 0, 69, 0
2, 6720, Note_on_c, 0, 67, 45
2, 6840, Note_on_c, 0, 60, 35
2, 6900, Note_on_c, 0, 67, 0
2, 6960, Note_on_c, 0, 60, 0
2, 6960, Note_on_c, 0, 64, 35
2, 7080, Note_on_c, 0, 64, 0
2, 7080, Note_on_c, 0, 67, 27
2, 7200, Note_on_c, 0, 67, 0
2, 7200, Note_on_c, 0, 65, 46
2, 7320, Note_on_c, 0, 60, 35
2, 7380, Note_on_c, 0, 65, 0
2, 7440, Note_on_c, 0, 60, 0
2, 7440, Note_on_c, 0, 64, 35
2, 7560, Note_on_c, 0, 64, 0
2, 7560, Note_on_c, 0, 65, 27
2, 7680, Note_on_c, 0, 65, 0
2, 7680, Note_on_c, 0, 64, 41
2, 7800, Note_on_c, 0, 59, 32
2, 7920, Note_on_c, 0, 59, 0
2, 7920, Note_on_c, 0, 60, 32
2, 8030, Note_on_c, 0, 64, 0
2, 8040, Note_on_c, 0, 60, 0
2, 8040, Note_on_c, 0, 64, 27
2, 8160, Note_on_c, 0, 64, 0
2, 8160, Note_on_c, 0, 62, 35
2, 8280, Note_on_c, 0, 57, 32
2, 8400, Note_on_c, 0, 57, 0
2, 8400, Note_on_c, 0, 60, 32
2, 8510, Note_on_c, 0, 62, 0
2, 8520, Note_on_c, 0, 60, 0
2, 8520, Note_on_c, 0, 62, 27
2, 8640, Note_on_c, 0, 62, 0
2, 8640, Note_on_c, 0, 67, 41
2, 8760, Note_on_c, 0, 59, 32
2, 8880, Note_on_c, 0, 59, 0
2, 8880, Note_on_c, 0, 64, 32
2, 8990, Note_on_c, 0, 67, 0
2, 9000, Note_on_c, 0, 64, 0
2, 9000, Note_on_c, 0, 67, 33
2, 9120, Note_on_c, 0, 67, 0
2, 9120, Note_on_c, 0, 69, 47
2, 9240, Note_on_c, 0, 60, 37
2, 9360, Note_on_c, 0, 60, 0
2, 9360, Note_on_c, 0, 64, 32
2, 9470, Note_on_c, 0, 69, 0
2, 9480, Note_on_c, 0, 64, 0
2, 9480, Note_on_c, 0, 69, 27
2, 9600, Note_on_c, 0, 69, 0
2, 9600, Note_on_c, 0, 64, 40
2, 9720, Note_on_c, 0, 57, 32
2, 9840, Note_on_c, 0, 57, 0
2, 9840, Note_on_c, 0, 60, 32
2, 9950, Note_on_c, 0, 64, 0
2, 9960, Note_on_c, 0, 60, 0
2, 9960, Note_on_c, 0, 64, 27
2, 10080, Note_on_c, 0, 64, 0
2, 10080, Note_on_c, 0, 62, 39
2, 10200, Note_on_c, 0, 57, 32
2, 10320, Note_on_c, 0, 57, 0
2, 10320, Note_on_c, 0, 60, 32
2, 10430, Note_on_c, 0, 62, 0
2, 10440, Note_on_c, 0, 60, 0
2, 10440, Note_on_c, 0, 62, 27
2, 10560, Note_on_c, 0, 62, 0
2, 10560, Note_on_c, 0, 60, 35
2, 10680, Note_on_c, 0, 55, 32
2, 10800, Note_on_c, 0, 55, 0
2, 10800, Note_on_c, 0, 57, 32
2, 10910, Note_on_c, 0, 60, 0
2, 10920, Note_on_c, 0, 57, 0
2, 10920, Note_on_c, 0, 60, 27
2, 11040, Note_on_c, 0, 60, 0
2, 11040, Note_on_c, 0, 59, 35
2, 11160, Note_on_c, 0, 53, 32
2, 11280, Note_on_c, 0, 53, 0
2, 11280, Note_on_c, 0, 55, 32
2, 11390, Note_on_c, 0, 59, 0
2, 11400, Note_on_c, 0, 55, 0
2, 11400, Note_on_c, 0, 59, 27
2, 11520, Note_on_c, 0, 59, 0
2, 19440, Note_on_c, 0, 52, 26
2, 19560, Note_on_c, 0, 52, 0
2, 19560, Note_on_c, 0, 56, 26
2, 19680, Note_on_c, 0, 56, 0
2, 19920, Note_on_c, 0, 56, 31
2, 20040, Note_on_c, 0, 56, 0
2, 20040, Note_on_c, 0, 59, 32
2, 20160, Note_on_c, 0, 59, 0
2, 20400, Note_on_c, 0, 59, 43
2, 20520, Note_on_c, 0, 59, 0
2, 20520, Note_on_c, 0, 64, 43
2, 20640, Note_on_c, 0, 64, 0
2, 20880, Note_on_c, 0, 64, 47
2, 21000, Note_on_c, 0, 64, 0
2, 21000, Note_on_c, 0, 68, 47
2, 21120, Note_on_c, 0, 68, 0
2, 23160, Note_on_c, 0, 69, 32
2, 23280, Note_on_c, 0, 69, 0
2, 23280, Note_on_c, 0, 65, 32
2, 23400, Note_on_c, 0, 65, 0
2, 23400, Note_on_c, 0, 62, 27
2, 23520, Note_on_c, 0, 62, 0
2, 23640, Note_on_c, 0, 65, 32
2, 23760, Note_on_c, 0, 65, 0
2, 23760, Note_on_c, 0, 62, 32
2, 23880, Note_on_c, 0, 62, 0
2, 23880, Note_on_c, 0, 59, 27
2, 24000, Note_on_c, 0, 59, 0
2, 24120, Note_on_c, 0, 69, 32
2, 24240, Note_on_c, 0, 69, 0
2, 24240, Note_on_c, 0, 65, 32
2, 24360, Note_on_c, 0, 65, 0
2, 24360, Note_on_c, 0, 62, 27
2, 24480, Note_on_c, 0, 62, 0
2, 24600, Note_on_c, 0, 65, 34
2, 24720, Note_on_c, 0, 65, 0
2, 24720, Note_on_c, 0, 62, 38
2, 24840, Note_on_c, 0, 62, 0
2, 24840, Note_on_c, 0, 59, 38
2, 24960, Note_on_c, 0, 59, 0
2, 25080, Note_on_c, 0, 72, 44
2, 25200, Note_on_c, 0, 72, 0
2, 25200, Note_on_c, 0, 69, 35
2, 25320, Note_on_c, 0, 69, 0
2, 25320, Note_on_c, 0, 65, 30
2, 25440, Note_on_c, 0, 65, 0
2, 25560, Note_on_c, 0, 69, 38
2, 25680, Note_on_c, 0, 69, 0
2, 25680, Note_on_c, 0, 65, 32
2, 25800, Note_on_c, 0, 65, 0
2, 25800, Note_on_c, 0, 62, 27
2, 25920, Note_on_c, 0, 62, 0
2, 26040, Note_on_c, 0, 65, 31
2, 26160, Note_on_c, 0, 65, 0
2, 26160, Note_on_c, 0, 62, 32
2, 26280, Note_on_c, 0, 62, 0
2, 26280, Note_on_c, 0, 59, 27
2, 26400, Note_on_c, 0, 59, 0
2, 26520, Note_on_c, 0, 62, 30
2, 26640, Note_on_c, 0, 62, 0
2, 26640, Note_on_c, 0, 59, 32
2, 26760, Note_on_c, 0, 59, 0
2, 26760, Note_on_c, 0, 55, 25
2, 26880, Note_on_c, 0, 55, 0
2, 27000, Note_on_c, 0, 69, 32
2, 27120, Note_on_c, 0, 69, 0
2, 27120, Note_on_c, 0, 65, 32
2, 27240, Note_on_c, 0, 65, 0
2, 27240, Note_on_c, 0, 62, 27
2, 27360, Note_on_c, 0, 62, 0
2, 27480, Note_on_c, 0, 65, 32
2, 27600, Note_on_c, 0, 65, 0
2, 27600, Note_on_c, 0, 62, 32
2, 27720, Note_on_c, 0, 62, 0
2, 27720, Note_on_c, 0, 59, 27
2, 27840, Note_on_c, 0, 59, 0
2, 27960, Note_on_c, 0, 69, 32
2, 28080, Note_on_c, 0, 69, 0
2, 28080, Note_on_c, 0, 65, 32
2, 28200, Note_on_c, 0, 65, 0
2, 28200, Note_on_c, 0, 62, 27
2, 28320, Note_on_c, 0, 62, 0
2, 28440, Note_on_c, 0, 65, 33
2, 28560, Note_on_c, 0, 65, 0
2, 28560, Note_on_c, 0, 62, 37
2, 28680, Note_on_c, 0, 62, 0
2, 28680, Note_on_c, 0, 59, 38
2, 28800, Note_on_c, 0, 59, 0
2, 28920, Note_on_c, 0, 72, 43
2, 29040, Note_on_c, 0, 72, 0
2, 29040, Note_on_c, 0, 69, 40
2, 29160, Note_on_c, 0, 69, 0
2, 29160, Note_on_c, 0, 65, 30
2, 29280, Note_on_c, 0, 65, 0
2, 29400, Note_on_c, 0, 69, 40
2, 29520, Note_on_c, 0, 69, 0
2, 29520, Note_on_c, 0, 65, 32
2, 29640, Note_on_c, 0, 65, 0
2, 29640, Note_on_c, 0, 62, 27
2, 29760, Note_on_c, 0, 62, 0
2, 29880, Note_on_c, 0, 65, 31
2, 30000, Note_on_c, 0, 65, 0
2, 30000, Note_on_c, 0, 62, 32
2, 30120, Note_on_c, 0, 62, 0
2, 30120, Note_on_c, 0, 59, 27
2, 30240, Note_on_c, 0, 59, 0
2, 30360, Note_on_c, 0, 62, 30
2, 30480, Note_on_c, 0, 62, 0
2, 30480, Note_on_c, 0, 59, 32
2, 30600, Note_on_c, 0, 59, 0
2, 30600, Note_on_c, 0, 55, 25
2, 30720, Note_on_c, 0, 55, 0
2, 30840, Note_on_c, 0, 59, 32
2, 30960, Note_on_c, 0, 59, 0
2, 30960, Note_on_c, 0, 56, 32
2, 31080, Note_on_c, 0, 56, 0
2, 31080, Note_on_c, 0, 52, 27
2, 31200, Note_on_c, 0, 52, 0
2, 31320, Note_on_c, 0, 61, 38
2, 31440, Note_on_c, 0, 61, 0
2, 31440, Note_on_c, 0, 58, 32
2, 31560, Note_on_c, 0, 58, 0
2, 31560, Note_on_c, 0, 54, 27
2, 31680, Note_on_c, 0, 54, 0
2, 31800, Note_on_c, 0, 59, 32
2, 31920, Note_on_c, 0, 59, 0
2, 31920, Note_on_c, 0, 56, 32
2, 32040, Note_on_c, 0, 56, 0
2, 32040, Note_on_c, 0, 52, 27
2, 32160, Note_on_c, 0, 52, 0
2, 32280, Note_on_c, 0, 61, 39
2, 32400, Note_on_c, 0, 61, 0
2, 32400, Note_on_c, 0, 58, 32
2, 32520, Note_on_c, 0, 58, 0
2, 32520, Note_on_c, 0, 54, 27
2, 32640, Note_on_c, 0, 54, 0
2, 32760, Note_on_c, 0, 59, 32
2, 32880, Note_on_c, 0, 59, 0
2, 32880, Note_on_c, 0, 56, 32
2, 33000, Note_on_c, 0, 56, 0
2, 33000, Note_on_c, 0, 52, 27
2, 33120, Note_on_c, 0, 52, 0
2, 33240, Note_on_c, 0, 59, 32
2, 33360, Note_on_c, 0, 59, 0
2, 33360, Note_on_c, 0, 56, 32
2, 33480, Note_on_c, 0, 56, 0
2, 33480, Note_on_c, 0, 52, 27
2, 33600, Note_on_c, 0, 52, 0
2, 33720, Note_on_c, 0, 59, 32
2, 33840, Note_on_c, 0, 59, 0
2, 33840, Note_on_c, 0, 56, 32
2, 33960, Note_on_c, 0, 56, 0
2, 33960, Note_on_c, 0, 52, 27
2, 34080, Note_on_c, 0, 52, 0
2, 34200, Note_on_c, 0, 59, 30
2, 34320, Note_on_c, 0, 59, 0
2, 34320, Note_on_c, 0, 56, 32
2, 34440, Note_on_c, 0, 56, 0
2, 34440, Note_on_c, 0, 52, 27
2, 34560, Note_on_c, 0, 52, 0
2, 34680, Note_on_c, 0, 57, 32
2, 34800, Note_on_c, 0, 57, 0
2, 34800, Note_on_c, 0, 53, 32
2, 34920, Note_on_c, 0, 53, 0
2, 34920, Note_on_c, 0, 50, 27
2, 35040, Note_on_c, 0, 50, 0
2, 35160, Note_on_c, 0, 60, 39
2, 35280, Note_on_c, 0, 60, 0
2, 35280, Note_on_c, 0, 56, 32
2, 35400, Note_on_c, 0, 56, 0
2, 35400, Note_on_c, 0, 53, 27
2, 35520, Note_on_c, 0, 53, 0
2, 35640, Note_on_c, 0, 57, 32
2, 35760, Note_on_c, 0, 57, 0
2, 35760, Note_on_c, 0, 53, 32
2, 35880, Note_on_c, 0, 53, 0
2, 35880, Note_on_c, 0, 50, 27
2, 36000, Note_on_c, 0, 50, 0
2, 36120, Note_on_c, 0, 60, 38
2, 36240, Note_on_c, 0, 60, 0
2, 36240, Note_on_c, 0, 56, 32
2, 36360, Note_on_c, 0, 56, 0
2, 36360, Note_on_c, 0, 53, 27
2, 36480, Note_on_c, 0, 53, 0
2, 36600, Note_on_c, 0, 57, 32
2, 36720, Note_on_c, 0, 57, 0
2, 36720, Note_on_c, 0, 53, 32
2, 36840, Note_on_c, 0, 53, 0
2, 36840, Note_on_c, 0, 50, 27
2, 36960, Note_on_c, 0, 50, 0
2, 37080, Note_on_c, 0, 57, 32
2, 37200, Note_on_c, 0, 57, 0
2, 37200, Note_on_c, 0, 53, 32
2, 37320, Note_on_c, 0, 53, 0
2, 37320, Note_on_c, 0, 50, 27
2, 37440, Note_on_c, 0, 50, 0
2, 37560, Note_on_c, 0, 57, 32
2, 37680, Note_on_c, 0, 57, 0
2, 37680, Note_on_c, 0, 53, 32
2, 37800, Note_on_c, 0, 53, 0
2, 37800, Note_on_c, 0, 50, 27
2, 37920, Note_on_c, 0, 50, 0
2, 38040, Note_on_c, 0, 57, 30
2, 38160, Note_on_c, 0, 57, 0
2, 38160, Note_on_c, 0, 53, 32
2, 38280, Note_on_c, 0, 53, 0
2, 38280, Note_on_c, 0, 50, 27
2, 38400, Note_on_c, 0, 50, 0
2, 38520, Note_on_c, 0, 59, 28
2, 38640, Note_on_c, 0, 59, 0
2, 38640, Note_on_c, 0, 56, 28
2, 38760, Note_on_c, 0, 56, 0
2, 38760, Note_on_c, 0, 50, 23
2, 38880, Note_on_c, 0, 50, 0
2, 39000, Note_on_c, 0, 59, 26
2, 39120, Note_on_c, 0, 59, 0
2, 39120, Note_on_c, 0, 56, 26
2, 39240, Note_on_c, 0, 56, 0
2, 39240, Note_on_c, 0, 50, 22
2, 39360, Note_on_c, 0, 50, 0
2, 39480, Note_on_c, 0, 59, 25
2, 39600, Note_on_c, 0, 59, 0
2, 39600, Note_on_c, 0, 56, 24
2, 39720, Note_on_c, 0, 56, 0
2, 39720, Note_on_c, 0, 50, 20
2, 39840, Note_on_c, 0, 50, 0
2, 39960, Note_on_c, 0, 59, 22
2, 40080, Note_on_c, 0, 59, 0
2, 40080, Note_on_c, 0, 56, 23
2, 40200, Note_on_c, 0, 56, 0
2, 40200, Note_on_c, 0, 50, 19
2, 40320, Note_on_c, 0, 50, 0
2, 40440, Note_on_c, 0, 55, 24
2, 40560, Note_on_c, 0, 55, 0
2, 40560, Note_on_c, 0, 60, 24
2, 40680, Note_on_c, 0, 60, 0
2, 40680, Note_on_c, 0, 62, 21
2, 40800, Note_on_c, 0, 62, 0
2, 40800, Note_on_c, 0, 64, 28
2, 40920, Note_on_c, 0, 64, 0
2, 40920, Note_on_c, 0, 55, 24
2, 41040, Note_on_c, 0, 55, 0
2, 41040, Note_on_c, 0, 60, 24
2, 41160, Note_on_c, 0, 60, 0
2, 41160, Note_on_c, 0, 64, 24
2, 41280, Note_on_c, 0, 64, 0
2, 41280, Note_on_c, 0, 62, 31
2, 41400, Note_on_c, 0, 62, 0
2, 41400, Note_on_c, 0, 53, 29
2, 41520, Note_on_c, 0, 53, 0
2, 41520, Note_on_c, 0, 60, 30
2, 41640, Note_on_c, 0, 60, 0
2, 41640, Note_on_c, 0, 62, 27
2, 41760, Note_on_c, 0, 62, 0
2, 41760, Note_on_c, 0, 65, 34
2, 41880, Note_on_c, 0, 65, 0
2, 41880, Note_on_c, 0, 57, 31
2, 42000, Note_on_c, 0, 57, 0
2, 42000, Note_on_c, 0, 59, 32
2, 42120, Note_on_c, 0, 59, 0
2, 42120, Note_on_c, 0, 65, 30
2, 42240, Note_on_c, 0, 65, 0
2, 42240, Note_on_c, 0, 64, 37
2, 42360, Note_on_c, 0, 64, 0
2, 42360, Note_on_c, 0, 55, 34
2, 42480, Note_on_c, 0, 55, 0
2, 42480, Note_on_c, 0, 60, 34
2, 42600, Note_on_c, 0, 60, 0
2, 42600, Note_on_c, 0, 64, 32
2, 42720, Note_on_c, 0, 64, 0
2, 42720, Note_on_c, 0, 67, 37
2, 42840, Note_on_c, 0, 67, 0
2, 42840, Note_on_c, 0, 59, 34
2, 42960, Note_on_c, 0, 59, 0
2, 42960, Note_on_c, 0, 60, 34
2, 43080, Note_on_c, 0, 60, 0
2, 43080, Note_on_c, 0, 67, 32
2, 43200, Note_on_c, 0, 67, 0
2, 43200, Note_on_c, 0, 66, 38
2, 43320, Note_on_c, 0, 66, 0
2, 43320, Note_on_c, 0, 57, 35
2, 43440, Note_on_c, 0, 57, 0
2, 43440, Note_on_c, 0, 62, 35
2, 43560, Note_on_c, 0, 62, 0
2, 43560, Note_on_c, 0, 66, 32
2, 43680, Note_on_c, 0, 66, 0
2, 43680, Note_on_c, 0, 69, 38
2, 43800, Note_on_c, 0, 69, 0
2, 43800, Note_on_c, 0, 60, 35
2, 43920, Note_on_c, 0, 60, 0
2, 43920, Note_on_c, 0, 66, 35
2, 44040, Note_on_c, 0, 66, 0
2, 44040, Note_on_c, 0, 69, 32
2, 44160, Note_on_c, 0, 69, 0
2, 44160, Note_on_c, 0, 67, 39
2, 44280, Note_on_c, 0, 67, 0
2, 44280, Note_on_c, 0, 62, 37
2, 44400, Note_on_c, 0, 62, 0
2, 44400, Note_on_c, 0, 67, 40
2, 44520, Note_on_c, 0, 67, 0
2, 44520, Note_on_c, 0, 71, 42
2, 44640, Note_on_c, 0, 71, 0
2, 44640, Note_on_c, 0, 76, 62
2, 44760, Note_on_c, 0, 71, 38
2, 44880, Note_on_c, 0, 71, 0
2, 44880, Note_on_c, 0, 76, 0
2, 44880, Note_on_c, 0, 67, 38
2, 45000, Note_on_c, 0, 67, 0
2, 45000, Note_on_c, 0, 62, 32
2, 45120, Note_on_c, 0, 62, 0
2, 45240, Note_on_c, 0, 64, 36
2, 45360, Note_on_c, 0, 64, 0
2, 45360, Note_on_c, 0, 67, 39
2, 45480, Note_on_c, 0, 67, 0
2, 45480, Note_on_c, 0, 69, 36
2, 45600, Note_on_c, 0, 69, 0
2, 45600, Note_on_c, 0, 78, 62
2, 45720, Note_on_c, 0, 69, 40
2, 45840, Note_on_c, 0, 69, 0
2, 45840, Note_on_c, 0, 78, 0
2, 45840, Note_on_c, 0, 67, 37
2, 45960, Note_on_c, 0, 67, 0
2, 45960, Note_on_c, 0, 64, 35
2, 46080, Note_on_c, 0, 64, 0
2, 46200, Note_on_c, 0, 62, 37
2, 46320, Note_on_c, 0, 62, 0
2, 46320, Note_on_c, 0, 67, 40
2, 46440, Note_on_c, 0, 67, 0
2, 46440, Note_on_c, 0, 71, 42
2, 46560, Note_on_c, 0, 71, 0
2, 46560, Note_on_c, 0, 76, 63
2, 46680, Note_on_c, 0, 71, 38
2, 46800, Note_on_c, 0, 71, 0
2, 46800, Note_on_c, 0, 76, 0
2, 46800, Note_on_c, 0, 67, 38
2, 46920, Note_on_c, 0, 67, 0
2, 46920, Note_on_c, 0, 62, 32
2, 47040, Note_on_c, 0, 62, 0
2, 47160, Note_on_c, 0, 64, 36
2, 47280, Note_on_c, 0, 64, 0
2, 47280, Note_on_c, 0, 67, 39
2, 47400, Note_on_c, 0, 67, 0
2, 47400, Note_on_c, 0, 70, 36
2, 47520, Note_on_c, 0, 70, 0
2, 47520, Note_on_c, 0, 78, 61
2, 47640, Note_on_c, 0, 70, 40
2, 47760, Note_on_c, 0, 70, 0
2, 47760, Note_on_c, 0, 78, 0
2, 47760, Note_on_c, 0, 67, 37
2, 47880, Note_on_c, 0, 67, 0
2, 47880, Note_on_c, 0, 64, 35
2, 48000, Note_on_c, 0, 64, 0
2, 48120, Note_on_c, 0, 64, 37
2, 48240, Note_on_c, 0, 64, 0
2, 48240, Note_on_c, 0, 67, 40
2, 48360, Note_on_c, 0, 67, 0
2, 48360, Note_on_c, 0, 74, 42
2, 48480, Note_on_c, 0, 74, 0
2, 48480, Note_on_c, 0, 78, 63
2, 48600, Note_on_c, 0, 74, 38
2, 48720, Note_on_c, 0, 74, 0
2, 48720, Note_on_c, 0, 67, 38
2, 48840, Note_on_c, 0, 67, 0
2, 48840, Note_on_c, 0, 64, 32
2, 48960, Note_on_c, 0, 64, 0
2, 48960, Note_on_c, 0, 78, 0
2, 49080, Note_on_c, 0, 64, 36
2, 49200, Note_on_c, 0, 64, 0
2, 49200, Note_on_c, 0, 67, 39
2, 49320, Note_on_c, 0, 67, 0
2, 49320, Note_on_c, 0, 73, 36
2, 49440, Note_on_c, 0, 73, 0
2, 49440, Note_on_c, 0, 78, 63
2, 49560, Note_on_c, 0, 73, 40
2, 49680, Note_on_c, 0, 73, 0
2, 49680, Note_on_c, 0, 67, 37
2, 49800, Note_on_c, 0, 67, 0
2, 49800, Note_on_c, 0, 64, 35
2, 49920, Note_on_c, 0, 64, 0
2, 49920, Note_on_c, 0, 78, 0
2, 50040, Note_on_c, 0, 64, 37
2, 50160, Note_on_c, 0, 64, 0
2, 50160, Note_on_c, 0, 67, 40
2, 50280, Note_on_c, 0, 67, 0
2, 50280, Note_on_c, 0, 72, 42
2, 50400, Note_on_c, 0, 72, 0
2, 50400, Note_on_c, 0, 79, 63
2, 50520, Note_on_c, 0, 72, 38
2, 50640, Note_on_c, 0, 72, 0
2, 50640, Note_on_c, 0, 67, 38
2, 50760, Note_on_c, 0, 67, 0
2, 50760, Note_on_c, 0, 79, 0
2, 50760, Note_on_c, 0, 64, 32
2, 50880, Note_on_c, 0, 64, 0
2, 50880, Note_on_c, 0, 78, 63
2, 51000, Note_on_c, 0, 72, 38
2, 51120, Note_on_c, 0, 72, 0
2, 51120, Note_on_c, 0, 67, 38
2, 51240, Note_on_c, 0, 67, 0
2, 51240, Note_on_c, 0, 78, 0
2, 51240, Note_on_c, 0, 64, 32
2, 51360, Note_on_c, 0, 64, 0
2, 51360, Note_on_c, 0, 76, 63
2, 51480, Note_on_c, 0, 72, 38
2, 51600, Note_on_c, 0, 72, 0
2, 51600, Note_on_c, 0, 67, 38
2, 51720, Note_on_c, 0, 67, 0
2, 51720, Note_on_c, 0, 76, 0
2, 51720, Note_on_c, 0, 64, 32
2, 51840, Note_on_c, 0, 64, 0
2, 51960, Note_on_c, 0, 64, 41
2, 52080, Note_on_c, 0, 64, 0
2, 52080, Note_on_c, 0, 67, 41
2, 52200, Note_on_c, 0, 67, 0
2, 52200, Note_on_c, 0, 72, 45
2, 52320, Note_on_c, 0, 72, 0
2, 52320, Note_on_c, 0, 74, 58
2, 52440, Note_on_c, 0, 72, 46
2, 52560, Note_on_c, 0, 72, 0
2, 52560, Note_on_c, 0, 74, 0
2, 52560, Note_on_c, 0, 67, 54
2, 52560, Note_on_c, 0, 76, 54
2, 52680, Note_on_c, 0, 67, 0
2, 52680, Note_on_c, 0, 64, 47
2, 52800, Note_on_c, 0, 64, 0
2, 52800, Note_on_c, 0, 76, 0
2, 52800, Note_on_c, 0, 78, 63
2, 52920, Note_on_c, 0, 72, 51
2, 53040, Note_on_c, 0, 72, 0
2, 53040, Note_on_c, 0, 67, 41
2, 53160, Note_on_c, 0, 67, 0
2, 53160, Note_on_c, 0, 64, 32
2, 53400, Note_on_c, 0, 64, 0
2, 53400, Note_on_c, 0, 72, 41
2, 53520, Note_on_c, 0, 72, 0
2, 53520, Note_on_c, 0, 67, 41
2, 53640, Note_on_c, 0, 67, 0
2, 53640, Note_on_c, 0, 64, 34
2, 53760, Note_on_c, 0, 64, 0
2, 53760, Note_on_c, 0, 78, 0
2, 53880, Note_on_c, 0, 64, 41
2, 54000, Note_on_c, 0, 64, 0
2, 54000, Note_on_c, 0, 67, 41
2, 54120, Note_on_c, 0, 67, 0
2, 54120, Note_on_c, 0, 71, 45
2, 54240, Note_on_c, 0, 71, 0
2, 54240, Note_on_c, 0, 74, 58
2, 54360, Note_on_c, 0, 71, 46
2, 54480, Note_on_c, 0, 71, 0
2, 54480, Note_on_c, 0, 74, 0
2, 54480, Note_on_c, 0, 67, 55
2, 54480, Note_on_c, 0, 76, 55
2, 54600, Note_on_c, 0, 67, 0
2, 54600, Note_on_c, 0, 64, 47
2, 54720, Note_on_c, 0, 64, 0
2, 54720, Note_on_c, 0, 76, 0
2, 54720, Note_on_c, 0, 78, 63
2, 54840, Note_on_c, 0, 71, 51
2, 54960, Note_on_c, 0, 71, 0
2, 54960, Note_on_c, 0, 67, 41
2, 55080, Note_on_c, 0, 67, 0
2, 55080, Note_on_c, 0, 64, 32
2, 55320, Note_on_c, 0, 64, 0
2, 55320, Note_on_c, 0, 71, 41
2, 55440, Note_on_c, 0, 71, 0
2, 55440, Note_on_c, 0, 67, 41
2, 55560, Note_on_c, 0, 67, 0
2, 55560, Note_on_c, 0, 64, 34
2, 55680, Note_on_c, 0, 64, 0
2, 55680, Note_on_c, 0, 78, 0
2, 55800, Note_on_c, 0, 64, 37
2, 55920, Note_on_c, 0, 64, 0
2, 55920, Note_on_c, 0, 67, 40
2, 56040, Note_on_c, 0, 67, 0
2, 56040, Note_on_c, 0, 70, 42
2, 56160, Note_on_c, 0, 70, 0
2, 56160, Note_on_c, 0, 74, 55
2, 56280, Note_on_c, 0, 70, 38
2, 56400, Note_on_c, 0, 70, 0
2, 56400, Note_on_c, 0, 67, 38
2, 56520, Note_on_c, 0, 67, 0
2, 56520, Note_on_c, 0, 74, 0
2, 56520, Note_on_c, 0, 64, 32
2, 56640, Note_on_c, 0, 64, 0
2, 56640, Note_on_c, 0, 76, 57
2, 56760, Note_on_c, 0, 70, 37
2, 56880, Note_on_c, 0, 70, 0
2, 56880, Note_on_c, 0, 67, 35
2, 57000, Note_on_c, 0, 67, 0
2, 57000, Note_on_c, 0, 76, 0
2, 57000, Note_on_c, 0, 64, 32
2, 57120, Note_on_c, 0, 64, 0
2, 57120, Note_on_c, 0, 72, 53
2, 57240, Note_on_c, 0, 70, 38
2, 57360, Note_on_c, 0, 70, 0
2, 57360, Note_on_c, 0, 67, 38
2, 57480, Note_on_c, 0, 67, 0
2, 57480, Note_on_c, 0, 72, 0
2, 57480, Note_on_c, 0, 64, 32
2, 57600, Note_on_c, 0, 64, 0
2, 57600, Note_on_c, 0, 74, 41
2, 57720, Note_on_c, 0, 74, 0
2, 57720, Note_on_c, 0, 70, 41
2, 57840, Note_on_c, 0, 70, 0
2, 57840, Note_on_c, 0, 69, 40
2, 57960, Note_on_c, 0, 69, 0
2, 57960, Note_on_c, 0, 67, 40
2, 58080, Note_on_c, 0, 67, 0
2, 58080, Note_on_c, 0, 65, 39
2, 58200, Note_on_c, 0, 65, 0
2, 58200, Note_on_c, 0, 64, 39
2, 58320, Note_on_c, 0, 64, 0
2, 58320, Note_on_c, 0, 62, 39
2, 58440, Note_on_c, 0, 62, 0
2, 58440, Note_on_c, 0, 60, 38
2, 58560, Note_on_c, 0, 60, 0
2, 58560, Note_on_c, 0, 62, 38
2, 58680, Note_on_c, 0, 62, 0
2, 58680, Note_on_c, 0, 58, 37
2, 58800, Note_on_c, 0, 58, 0
2, 58800, Note_on_c, 0, 57, 35
2, 58920, Note_on_c, 0, 57, 0
2, 58920, Note_on_c, 0, 55, 31
2, 59040, Note_on_c, 0, 55, 0
2, 60000, Note_on_c, 0, 62, 38
2, 60120, Note_on_c, 0, 58, 30
2, 60240, Note_on_c, 0, 58, 0
2, 60240, Note_on_c, 0, 55, 30
2, 60360, Note_on_c, 0, 55, 0
2, 60360, Note_on_c, 0, 58, 30
2, 60480, Note_on_c, 0, 58, 0
2, 60480, Note_on_c, 0, 62, 0
2, 60480, Note_on_c, 0, 64, 38
2, 60600, Note_on_c, 0, 58, 31
2, 60720, Note_on_c, 0, 58, 0
2, 60720, Note_on_c, 0, 55, 31
2, 60840, Note_on_c, 0, 55, 0
2, 60840, Note_on_c, 0, 58, 31
2, 60960, Note_on_c, 0, 58, 0
2, 60960, Note_on_c, 0, 64, 0
2, 60960, Note_on_c, 0, 60, 39
2, 61080, Note_on_c, 0, 58, 32
2, 61200, Note_on_c, 0, 58, 0
2, 61200, Note_on_c, 0, 55, 32
2, 61320, Note_on_c, 0, 55, 0
2, 61320, Note_on_c, 0, 58, 32
2, 61440, Note_on_c, 0, 58, 0
2, 61440, Note_on_c, 0, 60, 0
2, 61680, Note_on_c, 0, 53, 25
2, 61920, Note_on_c, 0, 53, 0
2, 61920, Note_on_c, 0, 58, 25
2, 62160, Note_on_c, 0, 58, 0
2, 62160, Note_on_c, 0, 60, 29
2, 62400, Note_on_c, 0, 60, 0
2, 62400, Note_on_c, 0, 62, 32
2, 62640, Note_on_c, 0, 65, 25
2, 62880, Note_on_c, 0, 65, 0
2, 62880, Note_on_c, 0, 62, 0
2, 62880, Note_on_c, 0, 70, 29
2, 63120, Note_on_c, 0, 70, 0
2, 63120, Note_on_c, 0, 72, 32
2, 63360, Note_on_c, 0, 72, 0
2, 63360, Note_on_c, 0, 74, 37
2, 63840, Note_on_c, 0, 74, 0
2, 64320, Note_on_c, 0, 60, 33
2, 64560, Note_on_c, 0, 60, 0
2, 64560, Note_on_c, 0, 54, 32
2, 64800, Note_on_c, 0, 58, 32
2, 65040, Note_on_c, 0, 60, 31
2, 65280, Note_on_c, 0, 63, 33
2, 69120, Note_on_c, 0, 63, 0
2, 69120, Note_on_c, 0, 54, 0
2, 69120, Note_on_c, 0, 58, 0
2, 69120, Note_on_c, 0, 60, 0
2, 69360, Note_on_c, 0, 51, 22
2, 69600, Note_on_c, 0, 51, 0
2, 69600, Note_on_c, 0, 56, 22
2, 69840, Note_on_c, 0, 56, 0
2, 69840, Note_on_c, 0, 58, 26
2, 70080, Note_on_c, 0, 58, 0
2, 70080, Note_on_c, 0, 60, 33
2, 70320, Note_on_c, 0, 60, 0
2, 70320, Note_on_c, 0, 51, 28
2, 70560, Note_on_c, 0, 51, 0
2, 70560, Note_on_c, 0, 56, 28
2, 70800, Note_on_c, 0, 56, 0
2, 70800, Note_on_c, 0, 60, 28
2, 71040, Note_on_c, 0, 60, 0
2, 71040, Note_on_c, 0, 58, 31
2, 71280, Note_on_c, 0, 58, 0
2, 71280, Note_on_c, 0, 51, 28
2, 71520, Note_on_c, 0, 51, 0
2, 71520, Note_on_c, 0, 54, 28
2, 71760, Note_on_c, 0, 54, 0
2, 71760, Note_on_c, 0, 58, 28
2, 72000, Note_on_c, 0, 58, 0
2, 72000, Note_on_c, 0, 61, 33
2, 72240, Note_on_c, 0, 61, 0
2, 72240, Note_on_c, 0, 51, 28
2, 72480, Note_on_c, 0, 51, 0
2, 72480, Note_on_c, 0, 54, 28
2, 72720, Note_on_c, 0, 54, 0
2, 72720, Note_on_c, 0, 61, 28
2, 72960, Note_on_c, 0, 61, 0
2, 73200, Note_on_c, 0, 51, 22
2, 73440, Note_on_c, 0, 51, 0
2, 73440, Note_on_c, 0, 56, 22
2, 73680, Note_on_c, 0, 56, 0
2, 73680, Note_on_c, 0, 58, 26
2, 73920, Note_on_c, 0, 58, 0
2, 73920, Note_on_c, 0, 60, 33
2, 74160, Note_on_c, 0, 60, 0
2, 74160, Note_on_c, 0, 51, 28
2, 74400, Note_on_c, 0, 51, 0
2, 74400, Note_on_c, 0, 56, 28
2, 74640, Note_on_c, 0, 56, 0
2, 74640, Note_on_c, 0, 60, 28
2, 74880, Note_on_c, 0, 60, 0
2, 74880, Note_on_c, 0, 58, 31
2, 75120, Note_on_c, 0, 58, 0
2, 75120, Note_on_c, 0, 51, 28
2, 75360, Note_on_c, 0, 51, 0
2, 75360, Note_on_c, 0, 54, 28
2, 75600, Note_on_c, 0, 54, 0
2, 75600, Note_on_c, 0, 58, 28
2, 75840, Note_on_c, 0, 58, 0
2, 75840, Note_on_c, 0, 61, 33
2, 76080, Note_on_c, 0, 61, 0
2, 76080, Note_on_c, 0, 51, 28
2, 76320, Note_on_c, 0, 51, 0
2, 76320, Note_on_c, 0, 54, 28
2, 76560, Note_on_c, 0, 54, 0
2, 76560, Note_on_c, 0, 61, 28
2, 76800, Note_on_c, 0, 61, 0
2, 77040, Note_on_c, 0, 54, 22
2, 77280, Note_on_c, 0, 54, 0
2, 77280, Note_on_c, 0, 60, 22
2, 77520, Note_on_c, 0, 60, 0
2, 77520, Note_on_c, 0, 61, 26
2, 77760, Note_on_c, 0, 61, 0
2, 77760, Note_on_c, 0, 63, 33
2, 78000, Note_on_c, 0, 63, 0
2, 78000, Note_on_c, 0, 54, 29
2, 78240, Note_on_c, 0, 54, 0
2, 78240, Note_on_c, 0, 60, 29
2, 78480, Note_on_c, 0, 60, 0
2, 78480, Note_on_c, 0, 63, 29
2, 78720, Note_on_c, 0, 63, 0
2, 78720, Note_on_c, 0, 61, 41
2, 78960, Note_on_c, 0, 61, 0
2, 78960, Note_on_c, 0, 54, 34
2, 79200, Note_on_c, 0, 54, 0
2, 79200, Note_on_c, 0, 58, 34
2, 79440, Note_on_c, 0, 58, 0
2, 79440, Note_on_c, 0, 61, 41
2, 79680, Note_on_c, 0, 61, 0
2, 79680, Note_on_c, 0, 65, 31
2, 79920, Note_on_c, 0, 65, 0
2, 79920, Note_on_c, 0, 54, 37
2, 80160, Note_on_c, 0, 54, 0
2, 80160, Note_on_c, 0, 58, 43
2, 80400, Note_on_c, 0, 58, 0
2, 80400, Note_on_c, 0, 65, 49
2, 80880, Note_on_c, 0, 65, 0
2, 80880, Note_on_c, 0, 54, 29
2, 81120, Note_on_c, 0, 54, 0
2, 81120, Note_on_c, 0, 60, 29
2, 81360, Note_on_c, 0, 60, 0
2, 81360, Note_on_c, 0, 61, 29
2, 81600, Note_on_c, 0, 61, 0
2, 81600, Note_on_c, 0, 63, 35
2, 81840, Note_on_c, 0, 63, 0
2, 81840, Note_on_c, 0, 54, 27
2, 82080, Note_on_c, 0, 54, 0
2, 82080, Note_on_c, 0, 60, 27
2, 82320, Note_on_c, 0, 60, 0
2, 82320, Note_on_c, 0, 63, 26
2, 82560, Note_on_c, 0, 63, 0
2, 82560, Note_on_c, 0, 61, 30
2, 82800, Note_on_c, 0, 61, 0
2, 82800, Note_on_c, 0, 54, 25
2, 83040, Note_on_c, 0, 54, 0
2, 83040, Note_on_c, 0, 58, 24
2, 83280, Note_on_c, 0, 58, 0
2, 83280, Note_on_c, 0, 61, 24
2, 83520, Note_on_c, 0, 61, 0
2, 83520, Note_on_c, 0, 65, 30
2, 83760, Note_on_c, 0, 65, 0
2, 83760, Note_on_c, 0, 54, 23
2, 84000, Note_on_c, 0, 54, 0
2, 84000, Note_on_c, 0, 58, 23
2, 84240, Note_on_c, 0, 58, 0
2, 84240, Note_on_c, 0, 65, 22
2, 84480, Note_on_c, 0, 65, 0
2, 84600, Note_on_c, 0, 55, 25
2, 84720, Note_on_c, 0, 55, 0
2, 84720, Note_on_c, 0, 60, 26
2, 84840, Note_on_c, 0, 60, 0
2, 84840, Note_on_c, 0, 62, 24
2, 84960, Note_on_c, 0, 62, 0
2, 84960, Note_on_c, 0, 64, 29
2, 85080, Note_on_c, 0, 64, 0
2, 85080, Note_on_c, 0, 55, 27
2, 85200, Note_on_c, 0, 55, 0
2, 85200, Note_on_c, 0, 60, 27
2, 85320, Note_on_c, 0, 60, 0
2, 85320, Note_on_c, 0, 64, 26
2, 85440, Note_on_c, 0, 64, 0
2, 85440, Note_on_c, 0, 62, 31
2, 85560, Note_on_c, 0, 62, 0
2, 85560, Note_on_c, 0, 53, 29
2, 85680, Note_on_c, 0, 53, 0
2, 85680, Note_on_c, 0, 60, 30
2, 85800, Note_on_c, 0, 60, 0
2, 85800, Note_on_c, 0, 62, 27
2, 85920, Note_on_c, 0, 62, 0
2, 85920, Note_on_c, 0, 65, 34
2, 86040, Note_on_c, 0, 65, 0
2, 86040, Note_on_c, 0, 57, 31
2, 86160, Note_on_c, 0, 57, 0
2, 86160, Note_on_c, 0, 59, 32
2, 86280, Note_on_c, 0, 59, 0
2, 86280, Note_on_c, 0, 65, 30
2, 86400, Note_on_c, 0, 65, 0
2, 86400, Note_on_c, 0, 64, 37
2, 86520, Note_on_c, 0, 64, 0
2, 86520, Note_on_c, 0, 55, 34
2, 86640, Note_on_c, 0, 55, 0
2, 86640, Note_on_c, 0, 60, 34
2, 86760, Note_on_c, 0, 60, 0
2, 86760, Note_on_c, 0, 64, 32
2, 86880, Note_on_c, 0, 64, 0
2, 86880, Note_on_c, 0, 67, 37
2, 87000, Note_on_c, 0, 67, 0
2, 87000, Note_on_c, 0, 59, 34
2, 87120, Note_on_c, 0, 59, 0
2, 87120, Note_on_c, 0, 60, 34
2, 87240, Note_on_c, 0, 60, 0
2, 87240, Note_on_c, 0, 67, 32
2, 87360, Note_on_c, 0, 67, 0
2, 87360, Note_on_c, 0, 65, 38
2, 87480, Note_on_c, 0, 65, 0
2, 87480, Note_on_c, 0, 57, 35
2, 87600, Note_on_c, 0, 57, 0
2, 87600, Note_on_c, 0, 60, 35
2, 87720, Note_on_c, 0, 60, 0
2, 87720, Note_on_c, 0, 65, 32
2, 87840, Note_on_c, 0, 65, 0
2, 87840, Note_on_c, 0, 69, 38
2, 87960, Note_on_c, 0, 69, 0
2, 87960, Note_on_c, 0, 59, 35
2, 88080, Note_on_c, 0, 59, 0
2, 88080, Note_on_c, 0, 65, 35
2, 88200, Note_on_c, 0, 65, 0
2, 88200, Note_on_c, 0, 69, 32
2, 88320, Note_on_c, 0, 69, 0
2, 88320, Note_on_c, 0, 67, 42
2, 88440, Note_on_c, 0, 67, 0
2, 88440, Note_on_c, 0, 60, 36
2, 88560, Note_on_c, 0, 60, 0
2, 88560, Note_on_c, 0, 64, 36
2, 88680, Note_on_c, 0, 64, 0
2, 88680, Note_on_c, 0, 67, 30
2, 88800, Note_on_c, 0, 67, 0
2, 88800, Note_on_c, 0, 72, 50
2, 88920, Note_on_c, 0, 64, 38
2, 88980, Note_on_c, 0, 72, 0
2, 89040, Note_on_c, 0, 64, 0
2, 89040, Note_on_c, 0, 67, 38
2, 89160, Note_on_c, 0, 67, 0
2, 89160, Note_on_c, 0, 72, 32
2, 89280, Note_on_c, 0, 72, 0
2, 89280, Note_on_c, 0, 74, 53
2, 89400, Note_on_c, 0, 64, 42
2, 89460, Note_on_c, 0, 74, 0
2, 89520, Note_on_c, 0, 64, 0
2, 89520, Note_on_c, 0, 67, 42
2, 89640, Note_on_c, 0, 67, 0
2, 89640, Note_on_c, 0, 74, 35
2, 89760, Note_on_c, 0, 74, 0
2, 89760, Note_on_c, 0, 72, 52
2, 89880, Note_on_c, 0, 64, 41
2, 89940, Note_on_c, 0, 72, 0
2, 90000, Note_on_c, 0, 64, 0
2, 90000, Note_on_c, 0, 67, 41
2, 90120, Note_on_c, 0, 67, 0
2, 90120, Note_on_c, 0, 72, 38
2, 90240, Note_on_c, 0, 72, 0
2, 90240, Note_on_c, 0, 71, 47
2, 90360, Note_on_c, 0, 64, 38
2, 90420, Note_on_c, 0, 71, 0
2, 90480, Note_on_c, 0, 64, 0
2, 90480, Note_on_c, 0, 67, 38
2, 90600, Note_on_c, 0, 67, 0
2, 90600, Note_on_c, 0, 71, 27
2, 90720, Note_on_c, 0, 71, 0
2, 90720, Note_on_c, 0, 69, 47
2, 90840, Note_on_c, 0, 64, 35
2, 90900, Note_on_c, 0, 69, 0
2, 90960, Note_on_c, 0, 64, 0
2, 90960, Note_on_c, 0, 67, 35
2, 91080, Note_on_c, 0, 67, 0
2, 91080, Note_on_c, 0, 69, 27
2, 91200, Note_on_c, 0, 69, 0
2, 91200, Note_on_c, 0, 67, 45
2, 91320, Note_on_c, 0, 60, 35
2, 91380, Note_on_c, 0, 67, 0
2, 91440, Note_on_c, 0, 60, 0
2, 91440, Note_on_c, 0, 64, 35
2, 91560, Note_on_c, 0, 64, 0
2, 91560, Note_on_c, 0, 67, 27
2, 91680, Note_on_c, 0, 67, 0
2, 91680, Note_on_c, 0, 65, 46
2, 91800, Note_on_c, 0, 60, 35
2, 91860, Note_on_c, 0, 65, 0
2, 91920, Note_on_c, 0, 60, 0
2, 91920, Note_on_c, 0, 64, 35
2, 92040, Note_on_c, 0, 64, 0
2, 92040, Note_on_c, 0, 65, 27
2, 92160, Note_on_c, 0, 65, 0
2, 92160, Note_on_c, 0, 64, 41
2, 92280, Note_on_c, 0, 57, 32
2, 92400, Note_on_c, 0, 57, 0
2, 92400, Note_on_c, 0, 60, 32
2, 92510, Note_on_c, 0, 64, 0
2, 92520, Note_on_c, 0, 60, 0
2, 92520, Note_on_c, 0, 64, 27
2, 92640, Note_on_c, 0, 64, 0
2, 92640, Note_on_c, 0, 62, 35
2, 92760, Note_on_c, 0, 57, 32
2, 92880, Note_on_c, 0, 57, 0
2, 92880, Note_on_c, 0, 60, 32
2, 92990, Note_on_c, 0, 62, 0
2, 93000, Note_on_c, 0, 60, 0
2, 93000, Note_on_c, 0, 62, 27
2, 93120, Note_on_c, 0, 62, 0
2, 93120, Note_on_c, 0, 67, 41
2, 93240, Note_on_c, 0, 59, 32
2, 93360, Note_on_c, 0, 59, 0
2, 93360, Note_on_c, 0, 64, 32
2, 93470, Note_on_c, 0, 67, 0
2, 93480, Note_on_c, 0, 64, 0
2, 93480, Note_on_c, 0, 67, 33
2, 93600, Note_on_c, 0, 67, 0
2, 93600, Note_on_c, 0, 69, 47
2, 93720, Note_on_c, 0, 60, 37
2, 93840, Note_on_c, 0, 60, 0
2, 93840, Note_on_c, 0, 64, 32
2, 93950, Note_on_c, 0, 69, 0
2, 93960, Note_on_c, 0, 64, 0
2, 93960, Note_on_c, 0, 69, 27
2, 94080, Note_on_c, 0, 69, 0
2, 94080, Note_on_c, 0, 64, 40
2, 94200, Note_on_c, 0, 57, 32
2, 94320, Note_on_c, 0, 57, 0
2, 94320, Note_on_c, 0, 60, 32
2, 94430, Note_on_c, 0, 64, 0
2, 94440, Note_on_c, 0, 60, 0
2, 94440, Note_on_c, 0, 64, 27
2, 94560, Note_on_c, 0, 64, 0
2, 94560, Note_on_c, 0, 62, 39
2, 94680, Note_on_c, 0, 57, 32
2, 94800, Note_on_c, 0, 57, 0
2, 94800, Note_on_c, 0, 60, 32
2, 94910, Note_on_c, 0, 62, 0
2, 94920, Note_on_c, 0, 60, 0
2, 94920, Note_on_c, 0, 62, 27
2, 95040, Note_on_c, 0, 62, 0
2, 95040, Note_on_c, 0, 60, 35
2, 95160, Note_on_c, 0, 55, 32
2, 95280, Note_on_c, 0, 55, 0
2, 95280, Note_on_c, 0, 57, 32
2, 95390, Note_on_c, 0, 60, 0
2, 95400, Note_on_c, 0, 57, 0
2, 95400, Note_on_c, 0, 60, 27
2, 95520, Note_on_c, 0, 60, 0
2, 95520, Note_on_c, 0, 59, 35
2, 95640, Note_on_c, 0, 53, 32
2, 95760, Note_on_c, 0, 53, 0
2, 95760, Note_on_c, 0, 55, 32
2, 95870, Note_on_c, 0, 59, 0
2, 95880, Note_on_c, 0, 55, 0
2, 95880, Note_on_c, 0, 59, 27
2, 96000, Note_on_c, 0, 59, 0
2, 103920, Note_on_c, 0, 52, 26
2, 104040, Note_on_c, 0, 52, 0
2, 104040, Note_on_c, 0, 56, 26
2, 104160, Note_on_c, 0, 56, 0
2, 104400, Note_on_c, 0, 56, 31
2, 104520, Note_on_c, 0, 56, 0
2, 104520, Note_on_c, 0, 60, 32
2, 104640, Note_on_c, 0, 60, 0
2, 104880, Note_on_c, 0, 60, 43
2, 105000, Note_on_c, 0, 60, 0
2, 105000, Note_on_c, 0, 64, 43
2, 105120, Note_on_c, 0, 64, 0
2, 105360, Note_on_c, 0, 64, 47
2, 105480, Note_on_c, 0, 64, 0
2, 105480, Note_on_c, 0, 68, 47
2, 105600, Note_on_c, 0, 68, 0
2, 105840, Note_on_c, 0, 64, 50
2, 105960, Note_on_c, 0, 64, 0
2, 105960, Note_on_c, 0, 68, 50
2, 106080, Note_on_c, 0, 68, 0
2, 106320, Note_on_c, 0, 68, 55
2, 106440, Note_on_c, 0, 68, 0
2, 106440, Note_on_c, 0, 72, 53
2, 106560, Note_on_c, 0, 72, 0
2, 106800, Note_on_c, 0, 72, 65
2, 106920, Note_on_c, 0, 72, 0
2, 106920, Note_on_c, 0, 76, 62
2, 107040, Note_on_c, 0, 76, 0
2, 107280, Note_on_c, 0, 76, 68
2, 107400, Note_on_c, 0, 76, 0
2, 107400, Note_on_c, 0, 80, 63
2, 107520, Note_on_c, 0, 80, 0
2, 107760, Note_on_c, 0, 79, 68
2, 107880, Note_on_c, 0, 79, 0
2, 107880, Note_on_c, 0, 84, 64
2, 108000, Note_on_c, 0, 84, 0
2, 108240, Note_on_c, 0, 79, 68
2, 108360, Note_on_c, 0, 79, 0
2, 108360, Note_on_c, 0, 84, 67
2, 108480, Note_on_c, 0, 84, 0
2, 108720, Note_on_c, 0, 79, 68
2, 108840, Note_on_c, 0, 79, 0
2, 108840, Note_on_c, 0, 86, 64
2, 108960, Note_on_c, 0, 86, 0
2, 109200, Note_on_c, 0, 79, 68
2, 109320, Note_on_c, 0, 79, 0
2, 109320, Note_on_c, 0, 84, 64
2, 109440, Note_on_c, 0, 84, 0
2, 109680, Note_on_c, 0, 84, 54
2, 109800, Note_on_c, 0, 84, 0
2, 109800, Note_on_c, 0, 89, 51
2, 109920, Note_on_c, 0, 89, 0
2, 110160, Note_on_c, 0, 84, 54
2, 110280, Note_on_c, 0, 84, 0
2, 110280, Note_on_c, 0, 87, 53
2, 110400, Note_on_c, 0, 87, 0
2, 110640, Note_on_c, 0, 80, 54
2, 110760, Note_on_c, 0, 80, 0
2, 110760, Note_on_c, 0, 86, 51
2, 110880, Note_on_c, 0, 86, 0
2, 111120, Note_on_c, 0, 80, 54
2, 111240, Note_on_c, 0, 80, 0
2, 111240, Note_on_c, 0, 84, 51
2, 111360, Note_on_c, 0, 84, 0
2, 111600, Note_on_c, 0, 79, 54
2, 111720, Note_on_c, 0, 79, 0
2, 111720, Note_on_c, 0, 86, 51
2, 111840, Note_on_c, 0, 86, 0
2, 112080, Note_on_c, 0, 79, 54
2, 112200, Note_on_c, 0, 79, 0
2, 112200, Note_on_c, 0, 84, 53
2, 112320, Note_on_c, 0, 84, 0
2, 112560, Note_on_c, 0, 76, 54
2, 112680, Note_on_c, 0, 76, 0
2, 112680, Note_on_c, 0, 83, 51
2, 112800, Note_on_c, 0, 83, 0
2, 113040, Note_on_c, 0, 76, 54
2, 113160, Note_on_c, 0, 76, 0
2, 113160, Note_on_c, 0, 81, 51
2, 113280, Note_on_c, 0, 81, 0
2, 113520, Note_on_c, 0, 72, 53
2, 113640, Note_on_c, 0, 72, 0
2, 113640, Note_on_c, 0, 79, 49
2, 113760, Note_on_c, 0, 79, 0
2, 114000, Note_on_c, 0, 72, 51
2, 114120, Note_on_c, 0, 72, 0
2, 114120, Note_on_c, 0, 77, 49
2, 114240, Note_on_c, 0, 77, 0
2, 114480, Note_on_c, 0, 68, 48
2, 114600, Note_on_c, 0, 68, 0
2, 114600, Note_on_c, 0, 76, 45
2, 114720, Note_on_c, 0, 76, 0
2, 114960, Note_on_c, 0, 68, 46
2, 115080, Note_on_c, 0, 68, 0
2, 115080, Note_on_c, 0, 74, 43
2, 115200, Note_on_c, 0, 74, 0
2, 115440, Note_on_c, 0, 67, 48
2, 115560, Note_on_c, 0, 67, 0
2, 115560, Note_on_c, 0, 74, 45
2, 115680, Note_on_c, 0, 74, 0
2, 115920, Note_on_c, 0, 67, 61
2, 116040, Note_on_c, 0, 67, 0
2, 116040, Note_on_c, 0, 72, 60
2, 116160, Note_on_c, 0, 72, 0
2, 116400, Note_on_c, 0, 67, 61
2, 116520, Note_on_c, 0, 67, 0
2, 116520, Note_on_c, 0, 74, 57
2, 116640, Note_on_c, 0, 74, 0
2, 116880, Note_on_c, 0, 67, 61
2, 117000, Note_on_c, 0, 67, 0
2, 117000, Note_on_c, 0, 72, 57
2, 117120, Note_on_c, 0, 72, 0
2, 117360, Note_on_c, 0, 72, 61
2, 117475, Note_on_c, 0, 77, 60
2, 117480, Note_on_c, 0, 72, 0
2, 117595, Note_on_c, 0, 77, 0
2, 117840, Note_on_c, 0, 72, 61
2, 117960, Note_on_c, 0, 72, 0
2, 117960, Note_on_c, 0, 75, 60
2, 118080, Note_on_c, 0, 75, 0
2, 118320, Note_on_c, 0, 68, 61
2, 118440, Note_on_c, 0, 68, 0
2, 118440, Note_on_c, 0, 74, 57
2, 118560, Note_on_c, 0, 74, 0
2, 118800, Note_on_c, 0, 68, 61
2, 118920, Note_on_c, 0, 68, 0
2, 118920, Note_on_c, 0, 72, 57
2, 119040, Note_on_c, 0, 72, 0
2, 119280, Note_on_c, 0, 67, 61
2, 119400, Note_on_c, 0, 67, 0
2, 119400, Note_on_c, 0, 74, 60
2, 119520, Note_on_c, 0, 74, 0
2, 119760, Note_on_c, 0, 67, 61
2, 119880, Note_on_c, 0, 67, 0
2, 119880, Note_on_c, 0, 72, 60
2, 120000, Note_on_c, 0, 72, 0
2, 120233, Note_on_c, 0, 64, 61
2, 120353, Note_on_c, 0, 64, 0
2, 120360, Note_on_c, 0, 71, 57
2, 120480, Note_on_c, 0, 71, 0
2, 120713, Note_on_c, 0, 64, 61
2, 120833, Note_on_c, 0, 64, 0
2, 120840, Note_on_c, 0, 69, 57
2, 120960, Note_on_c, 0, 69, 0
2, 121200, Note_on_c, 0, 60, 56
2, 121320, Note_on_c, 0, 60, 0
2, 121320, Note_on_c, 0, 67, 55
2, 121440, Note_on_c, 0, 67, 0
2, 121680, Note_on_c, 0, 60, 53
2, 121800, Note_on_c, 0, 60, 0
2, 121800, Note_on_c, 0, 65, 52
2, 121920, Note_on_c, 0, 65, 0
2, 122160, Note_on_c, 0, 56, 50
2, 122280, Note_on_c, 0, 56, 0
2, 122280, Note_on_c, 0, 64, 46
2, 122400, Note_on_c, 0, 64, 0
2, 122640, Note_on_c, 0, 56, 47
2, 122760, Note_on_c, 0, 56, 0
2, 122760, Note_on_c, 0, 62, 43
2, 122880, Note_on_c, 0, 62, 0
2, 123000, Note_on_c, 0, 52, 59
2, 123120, Note_on_c, 0, 52, 0
2, 123120, Note_on_c, 0, 55, 56
2, 123240, Note_on_c, 0, 55, 0
2, 123240, Note_on_c, 0, 62, 51
2, 123360, Note_on_c, 0, 62, 0
2, 123480, Note_on_c, 0, 52, 48
2, 123600, Note_on_c, 0, 52, 0
2, 123600, Note_on_c, 0, 55, 53
2, 123720, Note_on_c, 0, 55, 0
2, 123720, Note_on_c, 0, 60, 48
2, 123840, Note_on_c, 0, 60, 0
2, 123960, Note_on_c, 0, 53, 46
2, 124080, Note_on_c, 0, 53, 0
2, 124080, Note_on_c, 0, 57, 48
2, 124200, Note_on_c, 0, 57, 0
2, 124200, Note_on_c, 0, 62, 50
2, 124320, Note_on_c, 0, 62, 0
2, 124440, Note_on_c, 0, 53, 56
2, 124560, Note_on_c, 0, 53, 0
2, 124560, Note_on_c, 0, 57, 60
2, 124680, Note_on_c, 0, 57, 0
2, 124680, Note_on_c, 0, 60, 63
2, 124800, Note_on_c, 0, 60, 0
2, 124920, Note_on_c, 0, 64, 59
2, 125040, Note_on_c, 0, 64, 0
2, 125040, Note_on_c, 0, 67, 56
2, 125160, Note_on_c, 0, 67, 0
2, 125160, Note_on_c, 0, 74, 51
2, 125280, Note_on_c, 0, 74, 0
2, 125400, Note_on_c, 0, 64, 48
2, 125520, Note_on_c, 0, 64, 0
2, 125520, Note_on_c, 0, 67, 53
2, 125640, Note_on_c, 0, 67, 0
2, 125640, Note_on_c, 0, 72, 48
2, 125760, Note_on_c, 0, 72, 0
2, 125880, Note_on_c, 0, 65, 47
2, 126000, Note_on_c, 0, 65, 0
2, 126000, Note_on_c, 0, 69, 50
2, 126120, Note_on_c, 0, 69, 0
2, 126120, Note_on_c, 0, 74, 54
2, 126240, Note_on_c, 0, 74, 0
2, 126360, Note_on_c, 0, 65, 57
2, 126480, Note_on_c, 0, 65, 0
2, 126480, Note_on_c, 0, 69, 61
2, 126600, Note_on_c, 0, 69, 0
2, 126600, Note_on_c, 0, 72, 62
2, 126720, Note_on_c, 0, 72, 0
2, 126840, Note_on_c, 0, 76, 50
2, 126960, Note_on_c, 0, 76, 0
2, 126960, Note_on_c, 0, 72, 57
2, 127080, Note_on_c, 0, 72, 0
2, 127080, Note_on_c, 0, 64, 61
2, 127200, Note_on_c, 0, 64, 0
2, 127320, Note_on_c, 0, 76, 55
2, 127440, Note_on_c, 0, 76, 0
2, 127440, Note_on_c, 0, 71, 62
2, 127560, Note_on_c, 0, 64, 54
2, 127680, Note_on_c, 0, 64, 0
2, 127680, Note_on_c, 0, 71, 0
2, 127800, Note_on_c, 0, 76, 50
2, 127920, Note_on_c, 0, 76, 0
2, 127920, Note_on_c, 0, 72, 57
2, 128040, Note_on_c, 0, 72, 0
2, 128040, Note_on_c, 0, 64, 61
2, 128160, Note_on_c, 0, 64, 0
2, 128280, Note_on_c, 0, 76, 55
2, 128400, Note_on_c, 0, 76, 0
2, 128400, Note_on_c, 0, 71, 62
2, 128520, Note_on_c, 0, 64, 54
2, 128640, Note_on_c, 0, 64, 0
2, 128640, Note_on_c, 0, 71, 0
2, 128760, Note_on_c, 0, 76, 55
2, 128880, Note_on_c, 0, 76, 0
2, 128880, Note_on_c, 0, 72, 50
2, 129000, Note_on_c, 0, 72, 0
2, 129000, Note_on_c, 0, 64, 50
2, 129120, Note_on_c, 0, 64, 0
2, 129240, Note_on_c, 0, 79, 59
2, 129360, Note_on_c, 0, 79, 0
2, 129360, Note_on_c, 0, 75, 50
2, 129480, Note_on_c, 0, 75, 0
2, 129480, Note_on_c, 0, 67, 55
2, 129600, Note_on_c, 0, 67, 0
2, 129720, Note_on_c, 0, 82, 61
2, 129840, Note_on_c, 0, 82, 0
2, 129840, Note_on_c, 0, 78, 56
2, 129960, Note_on_c, 0, 78, 0
2, 129960, Note_on_c, 0, 70, 55
2, 130080, Note_on_c, 0, 70, 0
2, 130200, Note_on_c, 0, 83, 64
2, 130320, Note_on_c, 0, 83, 0
2, 130320, Note_on_c, 0, 79, 55
2, 130440, Note_on_c, 0, 79, 0
2, 130440, Note_on_c, 0, 71, 55
2, 130560, Note_on_c, 0, 71, 0
2, 130680, Note_on_c, 0, 76, 50
2, 130800, Note_on_c, 0, 76, 0
2, 130800, Note_on_c, 0, 72, 57
2, 130920, Note_on_c, 0, 72, 0
2, 130920, Note_on_c, 0, 64, 61
2, 131040, Note_on_c, 0, 64, 0
2, 131160, Note_on_c, 0, 76, 55
2, 131280, Note_on_c, 0, 76, 0
2, 131280, Note_on_c, 0, 71, 62
2, 131400, Note_on_c, 0, 64, 54
2, 131520, Note_on_c, 0, 64, 0
2, 131520, Note_on_c, 0, 71, 0
2, 131640, Note_on_c, 0, 76, 50
2, 131760, Note_on_c, 0, 76, 0
2, 131760, Note_on_c, 0, 72, 57
2, 131880, Note_on_c, 0, 72, 0
2, 131880, Note_on_c, 0, 64, 61
2, 132000, Note_on_c, 0, 64, 0
2, 132120, Note_on_c, 0, 76, 55
2, 132240, Note_on_c, 0, 76, 0
2, 132240, Note_on_c, 0, 71, 62
2, 132360, Note_on_c, 0, 64, 54
2, 132480, Note_on_c, 0, 64, 0
2, 132480, Note_on_c, 0, 71, 0
2, 132600, Note_on_c, 0, 76, 55
2, 132720, Note_on_c, 0, 76, 0
2, 132720, Note_on_c, 0, 72, 50
2, 132840, Note_on_c, 0, 72, 0
2, 132840, Note_on_c, 0, 64, 50
2, 132960, Note_on_c, 0, 64, 0
2, 133080, Note_on_c, 0, 79, 59
2, 133200, Note_on_c, 0, 79, 0
2, 133200, Note_on_c, 0, 75, 50
2, 133320, Note_on_c, 0, 75, 0
2, 133320, Note_on_c, 0, 67, 55
2, 133440, Note_on_c, 0, 67, 0
2, 133560, Note_on_c, 0, 82, 61
2, 133680, Note_on_c, 0, 82, 0
2, 133680, Note_on_c, 0, 78, 56
2, 133800, Note_on_c, 0, 78, 0
2, 133800, Note_on_c, 0, 70, 55
2, 133920, Note_on_c, 0, 70, 0
2, 134040, Note_on_c, 0, 83, 64
2, 134160, Note_on_c, 0, 83, 0
2, 134160, Note_on_c, 0, 79, 55
2, 134280, Note_on_c, 0, 79, 0
2, 134280, Note_on_c, 0, 71, 55
2, 134400, Note_on_c, 0, 71, 0
2, 134520, Note_on_c, 0, 88, 73
2, 134640, Note_on_c, 0, 88, 0
2, 134640, Note_on_c, 0, 84, 59
2, 134760, Note_on_c, 0, 84, 0
2, 134760, Note_on_c, 0, 76, 59
2, 134880, Note_on_c, 0, 76, 0
2, 135000, Note_on_c, 0, 88, 72
2, 135120, Note_on_c, 0, 88, 0
2, 135120, Note_on_c, 0, 84, 60
2, 135240, Note_on_c, 0, 84, 0
2, 135240, Note_on_c, 0, 76, 60
2, 135360, Note_on_c, 0, 76, 0
2, 135480, Note_on_c, 0, 76, 71
2, 135600, Note_on_c, 0, 76, 0
2, 135600, Note_on_c, 0, 72, 58
2, 135720, Note_on_c, 0, 72, 0
2, 135720, Note_on_c, 0, 64, 58
2, 135840, Note_on_c, 0, 64, 0
2, 135960, Note_on_c, 0, 76, 71
2, 136080, Note_on_c, 0, 76, 0
2, 136080, Note_on_c, 0, 72, 59
2, 136200, Note_on_c, 0, 72, 0
2, 136200, Note_on_c, 0, 64, 59
2, 136320, Note_on_c, 0, 64, 0
2, 136440, Note_on_c, 0, 64, 73
2, 136560, Note_on_c, 0, 64, 0
2, 136560, Note_on_c, 0, 60, 60
2, 136680, Note_on_c, 0, 60, 0
2, 136680, Note_on_c, 0, 52, 60
2, 136800, Note_on_c, 0, 52, 0
2, 136920, Note_on_c, 0, 64, 73
2, 137040, Note_on_c, 0, 64, 0
2, 137040, Note_on_c, 0, 60, 61
2, 137160, Note_on_c, 0, 60, 0
2, 137160, Note_on_c, 0, 52, 61
2, 137280, Note_on_c, 0, 52, 0
2, 137400, Note_on_c, 0, 64, 76
2, 137520, Note_on_c, 0, 64, 0
2, 137520, Note_on_c, 0, 60, 62
2, 137640, Note_on_c, 0, 60, 0
2, 137640, Note_on_c, 0, 52, 62
2, 137760, Note_on_c, 0, 52, 0
2, 137880, Note_on_c, 0, 64, 75
2, 138000, Note_on_c, 0, 64, 0
2, 138000, Note_on_c, 0, 60, 63
2, 138120, Note_on_c, 0, 60, 0
2, 138120, Note_on_c, 0, 52, 63
2, 138240, Note_on_c, 0, 52, 0
2, 138240, Note_on_c, 0, 52, 85
2, 138240, Note_on_c, 0, 48, 72
2, 141120, Note_on_c, 0, 48, 0
2, 141120, Note_on_c, 0, 52, 0
2, 141120, Note_on_c, 0, 47, 79
2, 141120, Note_on_c, 0, 50, 79
2, 142080, Note_on_c, 0, 50, 0
2, 142080, Note_on_c, 0, 47, 0
2, 142080, Note_on_c, 0, 52, 81
2, 142080, Note_on_c, 0, 48, 81
2, 142320, Note_on_c, 0, 48, 0
2, 142320, Note_on_c, 0, 52, 0
2, 144000, Note_on_c, 0, 36, 92
2, 144240, Note_on_c, 0, 36, 0
2, 144240, End_track
3, 0, Start_track
3, 0, Title_t, "Piano left"
3, 0, Program_c, 0, 0
3, 0, Note_on_c, 0, 36, 28
3, 60, Note_on_c, 0, 36, 0
3, 60, Note_on_c, 0, 48, 28
3, 4320, Note_on_c, 0, 48, 0
3, 4320, Note_on_c, 0, 60, 35
3, 4800, Note_on_c, 0, 59, 29
3, 5280, Note_on_c, 0, 59, 0
3, 5280, Note_on_c, 0, 57, 29
3, 5760, Note_on_c, 0, 57, 0
3, 5760, Note_on_c, 0, 59, 29
3, 6240, Note_on_c, 0, 59, 0
3, 6240, Note_on_c, 0, 60, 0
3, 6240, Note_on_c, 0, 60, 28
3, 6720, Note_on_c, 0, 60, 0
3, 6720, Note_on_c, 0, 59, 28
3, 7200, Note_on_c, 0, 59, 0
3, 7200, Note_on_c, 0, 57, 28
3, 7680, Note_on_c, 0, 57, 0
3, 7680, Note_on_c, 0, 55, 29
3, 8160, Note_on_c, 0, 55, 0
3, 8160, Note_on_c, 0, 53, 27
3, 8640, Note_on_c, 0, 53, 0
3, 8640, Note_on_c, 0, 52, 27
3, 9120, Note_on_c, 0, 52, 0
3, 9120, Note_on_c, 0, 57, 27
3, 9600, Note_on_c, 0, 57, 0
3, 9600, Note_on_c, 0, 55, 29
3, 10080, Note_on_c, 0, 55, 0
3, 10080, Note_on_c, 0, 53, 27
3, 10560, Note_on_c, 0, 53, 0
3, 10560, Note_on_c, 0, 52, 27
3, 11040, Note_on_c, 0, 52, 0
3, 11040, Note_on_c, 0, 50, 27
3, 11520, Note_on_c, 0, 50, 0
3, 11520, Note_on_c, 0, 41, 21
3, 11640, Note_on_c, 0, 48, 20
3, 11760, Note_on_c, 0, 48, 0
3, 11760, Note_on_c, 0, 50, 21
3, 11880, Note_on_c, 0, 50, 0
3, 11880, Note_on_c, 0, 52, 23
3, 12000, Note_on_c, 0, 52, 0
3, 12000, Note_on_c, 0, 53, 28
3, 12120, Note_on_c, 0, 53, 0
3, 12120, Note_on_c, 0, 57, 31
3, 12240, Note_on_c, 0, 57, 0
3, 12240, Note_on_c, 0, 60, 34
3, 12360, Note_on_c, 0, 60, 0
3, 12360, Note_on_c, 0, 62, 36
3, 12480, Note_on_c, 0, 62, 0
3, 12480, Note_on_c, 0, 64, 41
3, 12600, Note_on_c, 0, 64, 0
3, 12600, Note_on_c, 0, 62, 41
3, 12720, Note_on_c, 0, 62, 0
3, 12720, Note_on_c, 0, 60, 38
3, 12840, Note_on_c, 0, 60, 0
3, 12840, Note_on_c, 0, 57, 35
3, 12960, Note_on_c, 0, 57, 0
3, 12960, Note_on_c, 0, 53, 32
3, 13080, Note_on_c, 0, 53, 0
3, 13080, Note_on_c, 0, 52, 30
3, 13200, Note_on_c, 0, 52, 0
3, 13200, Note_on_c, 0, 50, 26
3, 13320, Note_on_c, 0, 50, 0
3, 13320, Note_on_c, 0, 48, 24
3, 13440, Note_on_c, 0, 48, 0
3, 13440, Note_on_c, 0, 41, 0
3, 13440, Note_on_c, 0, 41, 21
3, 13560, Note_on_c, 0, 48, 21
3, 13680, Note_on_c, 0, 48, 0
3, 13680, Note_on_c, 0, 50, 22
3, 13800, Note_on_c, 0, 50, 0
3, 13800, Note_on_c, 0, 52, 25
3, 13920, Note_on_c, 0, 52, 0
3, 13920, Note_on_c, 0, 53, 30
3, 14040, Note_on_c, 0, 53, 0
3, 14040, Note_on_c, 0, 57, 34
3, 14160, Note_on_c, 0, 57, 0
3, 14160, Note_on_c, 0, 60, 38
3, 14280, Note_on_c, 0, 60, 0
3, 14280, Note_on_c, 0, 62, 42
3, 14400, Note_on_c, 0, 62, 0
3, 14400, Note_on_c, 0, 64, 48
3, 14520, Note_on_c, 0, 64, 0
3, 14520, Note_on_c, 0, 62, 41
3, 14640, Note_on_c, 0, 62, 0
3, 14640, Note_on_c, 0, 60, 38
3, 14760, Note_on_c, 0, 60, 0
3, 14760, Note_on_c, 0, 59, 35
3, 14880, Note_on_c, 0, 59, 0
3, 14880, Note_on_c, 0, 57, 32
3, 15000, Note_on_c, 0, 57, 0
3, 15000, Note_on_c, 0, 52, 30
3, 15120, Note_on_c, 0, 52, 0
3, 15120, Note_on_c, 0, 50, 26
3, 15240, Note_on_c, 0, 50, 0
3, 15240, Note_on_c, 0, 48, 24
3, 15360, Note_on_c, 0, 48, 0
3, 15360, Note_on_c, 0, 41, 0
3, 15360, Note_on_c, 0, 41, 21
3, 15480, Note_on_c, 0, 48, 21
3, 15600, Note_on_c, 0, 48, 0
3, 15600, Note_on_c, 0, 50, 22
3, 15720, Note_on_c, 0, 50, 0
3, 15720, Note_on_c, 0, 52, 25
3, 15840, Note_on_c, 0, 52, 0
3, 15840, Note_on_c, 0, 53, 30
3, 15960, Note_on_c, 0, 53, 0
3, 15960, Note_on_c, 0, 56, 34
3, 16080, Note_on_c, 0, 56, 0
3, 16080, Note_on_c, 0, 60, 39
3, 16200, Note_on_c, 0, 60, 0
3, 16200, Note_on_c, 0, 62, 42
3, 16320, Note_on_c, 0, 62, 0
3, 16320, Note_on_c, 0, 64, 48
3, 16440, Note_on_c, 0, 64, 0
3, 16440, Note_on_c, 0, 62, 42
3, 16560, Note_on_c, 0, 62, 0
3, 16560, Note_on_c, 0, 60, 40
3, 16680, Note_on_c, 0, 60, 0
3, 16680, Note_on_c, 0, 56, 36
3, 16800, Note_on_c, 0, 56, 0
3, 16800, Note_on_c, 0, 53, 33
3, 16920, Note_on_c, 0, 53, 0
3, 16920, Note_on_c, 0, 52, 30
3, 17040, Note_on_c, 0, 52, 0
3, 17040, Note_on_c, 0, 50, 26
3, 17160, Note_on_c, 0, 50, 0
3, 17160, Note_on_c, 0, 48, 24
3, 17280, Note_on_c, 0, 48, 0
3, 17280, Note_on_c, 0, 41, 0
3, 17280, Note_on_c, 0, 41, 21
3, 17400, Note_on_c, 0, 48, 21
3, 17520, Note_on_c, 0, 48, 0
3, 17520, Note_on_c, 0, 50, 22
3, 17640, Note_on_c, 0, 50, 0
3, 17640, Note_on_c, 0, 52, 25
3, 17760, Note_on_c, 0, 52, 0
3, 17760, Note_on_c, 0, 53, 31
3, 17880, Note_on_c, 0, 53, 0
3, 17880, Note_on_c, 0, 56, 35
3, 18000, Note_on_c, 0, 56, 0
3, 18000, Note_on_c, 0, 60, 39
3, 18120, Note_on_c, 0, 60, 0
3, 18120, Note_on_c, 0, 62, 42
3, 18240, Note_on_c, 0, 62, 0
3, 18240, Note_on_c, 0, 64, 48
3, 18360, Note_on_c, 0, 64, 0
3, 18360, Note_on_c, 0, 62, 41
3, 18480, Note_on_c, 0, 62, 0
3, 18480, Note_on_c, 0, 60, 40
3, 18600, Note_on_c, 0, 60, 0
3, 18600, Note_on_c, 0, 58, 35
3, 18720, Note_on_c, 0, 58, 0
3, 18720, Note_on_c, 0, 56, 33
3, 18840, Note_on_c, 0, 56, 0
3, 18840, Note_on_c, 0, 52, 30
3, 18960, Note_on_c, 0, 52, 0
3, 18960, Note_on_c, 0, 50, 26
3, 19080, Note_on_c, 0, 50, 0
3, 19080, Note_on_c, 0, 48, 24
3, 19200, Note_on_c, 0, 48, 0
3, 19200, Note_on_c, 0, 41, 0
3, 19200, Note_on_c, 0, 40, 28
3, 19320, Note_on_c, 0, 40, 0
3, 19320, Note_on_c, 0, 47, 23
3, 19440, Note_on_c, 0, 47, 0
3, 19680, Note_on_c, 0, 47, 35
3, 19800, Note_on_c, 0, 47, 0
3, 19800, Note_on_c, 0, 52, 30
3, 19920, Note_on_c, 0, 52, 0
3, 20160, Note_on_c, 0, 52, 42
3, 20280, Note_on_c, 0, 52, 0
3, 20280, Note_on_c, 0, 56, 39
3, 20400, Note_on_c, 0, 56, 0
3, 20640, Note_on_c, 0, 56, 49
3, 20760, Note_on_c, 0, 56, 0
3, 20760, Note_on_c, 0, 59, 40
3, 20880, Note_on_c, 0, 59, 0
3, 21120, Note_on_c, 0, 64, 61
3, 23040, Note_on_c, 0, 64, 0
3, 23040, Note_on_c, 0, 64, 32
3, 23130, Note_on_c, 0, 64, 0
3, 23520, Note_on_c, 0, 64, 34
3, 23610, Note_on_c, 0, 64, 0
3, 24000, Note_on_c, 0, 64, 34
3, 24090, Note_on_c, 0, 64, 0
3, 24480, Note_on_c, 0, 64, 31
3, 24570, Note_on_c, 0, 64, 0
3, 24960, Note_on_c, 0, 67, 53
3, 25050, Note_on_c, 0, 67, 0
3, 25440, Note_on_c, 0, 64, 37
3, 25530, Note_on_c, 0, 64, 0
3, 25920, Note_on_c, 0, 60, 33
3, 26010, Note_on_c, 0, 60, 0
3, 26400, Note_on_c, 0, 57, 30
3, 26490, Note_on_c, 0, 57, 0
3, 26880, Note_on_c, 0, 64, 32
3, 26970, Note_on_c, 0, 64, 0
3, 27360, Note_on_c, 0, 64, 34
3, 27450, Note_on_c, 0, 64, 0
3, 27840, Note_on_c, 0, 64, 34
3, 27930, Note_on_c, 0, 64, 0
3, 28320, Note_on_c, 0, 64, 31
3, 28410, Note_on_c, 0, 64, 0
3, 28800, Note_on_c, 0, 67, 48
3, 28890, Note_on_c, 0, 67, 0
3, 29280, Note_on_c, 0, 64, 37
3, 29370, Note_on_c, 0, 64, 0
3, 29760, Note_on_c, 0, 60, 33
3, 29850, Note_on_c, 0, 60, 0
3, 30240, Note_on_c, 0, 57, 30
3, 30330, Note_on_c, 0, 57, 0
3, 30720, Note_on_c, 0, 53, 32
3, 30810, Note_on_c, 0, 53, 0
3, 31200, Note_on_c, 0, 55, 46
3, 31290, Note_on_c, 0, 55, 0
3, 31680, Note_on_c, 0, 53, 32
3, 31770, Note_on_c, 0, 53, 0
3, 32160, Note_on_c, 0, 55, 46
3, 32250, Note_on_c, 0, 55, 0
3, 32640, Note_on_c, 0, 53, 32
3, 32730, Note_on_c, 0, 53, 0
3, 33120, Note_on_c, 0, 53, 34
3, 33210, Note_on_c, 0, 53, 0
3, 33600, Note_on_c, 0, 53, 32
3, 33690, Note_on_c, 0, 53, 0
3, 34080, Note_on_c, 0, 53, 34
3, 34170, Note_on_c, 0, 53, 0
3, 34560, Note_on_c, 0, 52, 32
3, 34650, Note_on_c, 0, 52, 0
3, 35040, Note_on_c, 0, 55, 46
3, 35130, Note_on_c, 0, 55, 0
3, 35520, Note_on_c, 0, 52, 32
3, 35610, Note_on_c, 0, 52, 0
3, 36000, Note_on_c, 0, 55, 46
3, 36090, Note_on_c, 0, 55, 0
3, 36480, Note_on_c, 0, 52, 32
3, 36570, Note_on_c, 0, 52, 0
3, 36960, Note_on_c, 0, 52, 34
3, 37050, Note_on_c, 0, 52, 0
3, 37440, Note_on_c, 0, 52, 32
3, 37530, Note_on_c, 0, 52, 0
3, 37920, Note_on_c, 0, 52, 34
3, 38010, Note_on_c, 0, 52, 0
3, 38400, Note_on_c, 0, 52, 28
3, 38490, Note_on_c, 0, 52, 0
3, 38880, Note_on_c, 0, 52, 28
3, 38970, Note_on_c, 0, 52, 0
3, 39360, Note_on_c, 0, 52, 25
3, 39450, Note_on_c, 0, 52, 0
3, 39840, Note_on_c, 0, 52, 25
3, 39930, Note_on_c, 0, 52, 0
3, 40320, Note_on_c, 0, 36, 23
3, 40380, Note_on_c, 0, 36, 0
3, 40380, Note_on_c, 0, 48, 30
3, 42720, Note_on_c, 0, 48, 0
3, 42720, Note_on_c, 0, 45, 30
3, 43200, Note_on_c, 0, 45, 0
3, 43200, Note_on_c, 0, 50, 30
3, 43680, Note_on_c, 0, 50, 0
3, 43680, Note_on_c, 0, 47, 30
3, 44160, Note_on_c, 0, 47, 0
3, 44160, Note_on_c, 0, 52, 43
3, 45120, Note_on_c, 0, 61, 50
3, 45210, Note_on_c, 0, 61, 0
3, 46080, Note_on_c, 0, 52, 0
3, 46080, Note_on_c, 0, 52, 43
3, 47040, Note_on_c, 0, 52, 0
3, 47040, Note_on_c, 0, 61, 50
3, 47130, Note_on_c, 0, 61, 0
3, 48000, Note_on_c, 0, 59, 43
3, 48960, Note_on_c, 0, 59, 0
3, 48960, Note_on_c, 0, 58, 50
3, 49920, Note_on_c, 0, 58, 0
3, 49920, Note_on_c, 0, 57, 43
3, 51840, Note_on_c, 0, 57, 0
3, 51840, Note_on_c, 0, 58, 43
3, 53760, Note_on_c, 0, 58, 0
3, 53760, Note_on_c, 0, 59, 49
3, 55680, Note_on_c, 0, 59, 0
3, 55680, Note_on_c, 0, 60, 58
3, 57600, Note_on_c, 0, 60, 0
3, 59040, Note_on_c, 0, 53, 37
3, 59160, Note_on_c, 0, 53, 0
3, 59160, Note_on_c, 0, 52, 34
3, 59280, Note_on_c, 0, 52, 0
3, 59280, Note_on_c, 0, 50, 34
3, 59400, Note_on_c, 0, 50, 0
3, 59400, Note_on_c, 0, 48, 34
3, 59520, Note_on_c, 0, 48, 0
3, 59520, Note_on_c, 0, 46, 33
3, 59640, Note_on_c, 0, 46, 0
3, 59640, Note_on_c, 0, 45, 33
3, 59760, Note_on_c, 0, 45, 0
3, 59760, Note_on_c, 0, 43, 33
3, 59880, Note_on_c, 0, 43, 0
3, 59880, Note_on_c, 0, 41, 33
3, 60000, Note_on_c, 0, 41, 0
3, 60000, Note_on_c, 0, 40, 31
3, 60480, Note_on_c, 0, 40, 0
3, 60480, Note_on_c, 0, 38, 35
3, 60960, Note_on_c, 0, 38, 0
3, 60960, Note_on_c, 0, 36, 29
3, 61440, Note_on_c, 0, 36, 0
3, 61440, Note_on_c, 0, 34, 26
3, 63600, Note_on_c, 0, 53, 25
3, 63840, Note_on_c, 0, 53, 0
3, 63840, Note_on_c, 0, 58, 25
3, 64080, Note_on_c, 0, 58, 0
3, 64080, Note_on_c, 0, 62, 29
3, 64320, Note_on_c, 0, 62, 0
3, 65280, Note_on_c, 0, 34, 0
3, 65280, Note_on_c, 0, 34, 26
3, 66240, Note_on_c, 0, 34, 0
3, 66240, Note_on_c, 0, 39, 23
3, 66720, Note_on_c, 0, 39, 0
3, 66720, Note_on_c, 0, 34, 26
3, 67680, Note_on_c, 0, 34, 0
3, 67680, Note_on_c, 0, 39, 22
3, 68640, Note_on_c, 0, 39, 0
3, 68640, Note_on_c, 0, 34, 23
3, 69120, Note_on_c, 0, 34, 0
3, 69134, Note_on_c, 0, 32, 26
3, 71520, Note_on_c, 0, 70, 41
3, 71520, Note_on_c, 0, 66, 41
3, 72480, Note_on_c, 0, 66, 0
3, 72480, Note_on_c, 0, 70, 0
3, 72480, Note_on_c, 0, 68, 35
3, 72480, Note_on_c, 0, 65, 35
3, 72960, Note_on_c, 0, 65, 0
3, 72960, Note_on_c, 0, 68, 0
3, 72974, Note_on_c, 0, 32, 0
3, 72974, Note_on_c, 0, 32, 26
3, 73920, Note_on_c, 0, 63, 41
3, 73920, Note_on_c, 0, 66, 41
3, 74880, Note_on_c, 0, 66, 0
3, 74880, Note_on_c, 0, 63, 0
3, 75360, Note_on_c, 0, 70, 41
3, 75360, Note_on_c, 0, 66, 41
3, 76320, Note_on_c, 0, 66, 0
3, 76320, Note_on_c, 0, 70, 0
3, 76320, Note_on_c, 0, 68, 35
3, 76320, Note_on_c, 0, 65, 35
3, 76800, Note_on_c, 0, 65, 0
3, 76800, Note_on_c, 0, 68, 0
3, 76814, Note_on_c, 0, 32, 0
3, 76814, Note_on_c, 0, 32, 26
3, 80640, Note_on_c, 0, 68, 60
3, 82560, Note_on_c, 0, 68, 0
3, 82560, Note_on_c, 0, 51, 27
3, 83520, Note_on_c, 0, 51, 0
3, 83520, Note_on_c, 0, 44, 26
3, 84480, Note_on_c, 0, 44, 0
3, 84480, Note_on_c, 0, 31, 24
3, 84480, Note_on_c, 0, 43, 28
3, 84494, Note_on_c, 0, 32, 0
3, 88320, Note_on_c, 0, 31, 0
3, 88320, Note_on_c, 0, 36, 28
3, 88800, Note_on_c, 0, 36, 0
3, 88800, Note_on_c, 0, 43, 0
3, 88800, Note_on_c, 0, 60, 35
3, 89280, Note_on_c, 0, 59, 29
3, 89760, Note_on_c, 0, 59, 0
3, 89760, Note_on_c, 0, 57, 29
3, 90240, Note_on_c, 0, 57, 0
3, 90240, Note_on_c, 0, 59, 29
3, 90720, Note_on_c, 0, 59, 0
3, 90720, Note_on_c, 0, 60, 0
3, 90720, Note_on_c, 0, 60, 28
3, 91200, Note_on_c, 0, 60, 0
3, 91200, Note_on_c, 0, 59, 28
3, 91680, Note_on_c, 0, 59, 0
3, 91680, Note_on_c, 0, 57, 28
3, 92160, Note_on_c, 0, 57, 0
3, 92160, Note_on_c, 0, 55, 29
3, 92640, Note_on_c, 0, 55, 0
3, 92640, Note_on_c, 0, 53, 27
3, 93120, Note_on_c, 0, 53, 0
3, 93120, Note_on_c, 0, 52, 27
3, 93600, Note_on_c, 0, 52, 0
3, 93600, Note_on_c, 0, 57, 27
3, 94080, Note_on_c, 0, 57, 0
3, 94080, Note_on_c, 0, 55, 29
3, 94560, Note_on_c, 0, 55, 0
3, 94560, Note_on_c, 0, 53, 27
3, 95040, Note_on_c, 0, 53, 0
3, 95040, Note_on_c, 0, 52, 27
3, 95520, Note_on_c, 0, 52, 0
3, 95520, Note_on_c, 0, 50, 27
3, 96000, Note_on_c, 0, 50, 0
3, 96000, Note_on_c, 0, 41, 21
3, 96120, Note_on_c, 0, 48, 20
3, 96240, Note_on_c, 0, 48, 0
3, 96240, Note_on_c, 0, 50, 21
3, 96360, Note_on_c, 0, 50, 0
3, 96360, Note_on_c, 0, 52, 23
3, 96480, Note_on_c, 0, 52, 0
3, 96480, Note_on_c, 0, 53, 28
3, 96600, Note_on_c, 0, 53, 0
3, 96600, Note_on_c, 0, 57, 31
3, 96720, Note_on_c, 0, 57, 0
3, 96720, Note_on_c, 0, 60, 34
3, 96840, Note_on_c, 0, 60, 0
3, 96840, Note_on_c, 0, 62, 36
3, 96960, Note_on_c, 0, 62, 0
3, 96960, Note_on_c, 0, 64, 41
3, 97080, Note_on_c, 0, 64, 0
3, 97080, Note_on_c, 0, 62, 41
3, 97200, Note_on_c, 0, 62, 0
3, 97200, Note_on_c, 0, 60, 38
3, 97320, Note_on_c, 0, 60, 0
3, 97320, Note_on_c, 0, 57, 35
3, 97440, Note_on_c, 0, 57, 0
3, 97440, Note_on_c, 0, 53, 32
3, 97560, Note_on_c, 0, 53, 0
3, 97560, Note_on_c, 0, 52, 30
3, 97680, Note_on_c, 0, 52, 0
3, 97680, Note_on_c, 0, 50, 26
3, 97800, Note_on_c, 0, 50, 0
3, 97800, Note_on_c, 0, 48, 24
3, 97920, Note_on_c, 0, 48, 0
3, 97920, Note_on_c, 0, 41, 0
3, 97920, Note_on_c, 0, 41, 21
3, 98040, Note_on_c, 0, 48, 21
3, 98160, Note_on_c, 0, 48, 0
3, 98160, Note_on_c, 0, 50, 22
3, 98280, Note_on_c, 0, 50, 0
3, 98280, Note_on_c, 0, 52, 25
3, 98400, Note_on_c, 0, 52, 0
3, 98400, Note_on_c, 0, 53, 30
3, 98520, Note_on_c, 0, 53, 0
3, 98520, Note_on_c, 0, 57, 34
3, 98640, Note_on_c, 0, 57, 0
3, 98640, Note_on_c, 0, 60, 38
3, 98760, Note_on_c, 0, 60, 0
3, 98760, Note_on_c, 0, 62, 42
3, 98880, Note_on_c, 0, 62, 0
3, 98880, Note_on_c, 0, 64, 48
3, 99000, Note_on_c, 0, 64, 0
3, 99000, Note_on_c, 0, 62, 41
3, 99120, Note_on_c, 0, 62, 0
3, 99120, Note_on_c, 0, 60, 38
3, 99240, Note_on_c, 0, 60, 0
3, 99240, Note_on_c, 0, 59, 35
3, 99360, Note_on_c, 0, 59, 0
3, 99360, Note_on_c, 0, 57, 32
3, 99480, Note_on_c, 0, 57, 0
3, 99480, Note_on_c, 0, 52, 30
3, 99600, Note_on_c, 0, 52, 0
3, 99600, Note_on_c, 0, 50, 26
3, 99720, Note_on_c, 0, 50, 0
3, 99720, Note_on_c, 0, 48, 24
3, 99840, Note_on_c, 0, 48, 0
3, 99840, Note_on_c, 0, 41, 0
3, 99840, Note_on_c, 0, 41, 21
3, 99960, Note_on_c, 0, 48, 21
3, 100080, Note_on_c, 0, 48, 0
3, 100080, Note_on_c, 0, 50, 22
3, 100200, Note_on_c, 0, 50, 0
3, 100200, Note_on_c, 0, 52, 25
3, 100320, Note_on_c, 0, 52, 0
3, 100320, Note_on_c, 0, 53, 30
3, 100440, Note_on_c, 0, 53, 0
3, 100440, Note_on_c, 0, 56, 34
3, 100560, Note_on_c, 0, 56, 0
3, 100560, Note_on_c, 0, 60, 39
3, 100680, Note_on_c, 0, 60, 0
3, 100680, Note_on_c, 0, 62, 42
3, 100800, Note_on_c, 0, 62, 0
3, 100800, Note_on_c, 0, 64, 48
3, 100920, Note_on_c, 0, 64, 0
3, 100920, Note_on_c, 0, 62, 42
3, 101040, Note_on_c, 0, 62, 0
3, 101040, Note_on_c, 0, 60, 40
3, 101160, Note_on_c, 0, 60, 0
3, 101160, Note_on_c, 0, 56, 36
3, 101280, Note_on_c, 0, 56, 0
3, 101280, Note_on_c, 0, 53, 33
3, 101400, Note_on_c, 0, 53, 0
3, 101400, Note_on_c, 0, 52, 30
3, 101520, Note_on_c, 0, 52, 0
3, 101520, Note_on_c, 0, 50, 26
3, 101640, Note_on_c, 0, 50, 0
3, 101640, Note_on_c, 0, 48, 24
3, 101760, Note_on_c, 0, 48, 0
3, 101760, Note_on_c, 0, 41, 0
3, 101760, Note_on_c, 0, 41, 21
3, 101880, Note_on_c, 0, 48, 21
3, 102000, Note_on_c, 0, 48, 0
3, 102000, Note_on_c, 0, 50, 22
3, 102120, Note_on_c, 0, 50, 0
3, 102120, Note_on_c, 0, 52, 25
3, 102240, Note_on_c, 0, 52, 0
3, 102240, Note_on_c, 0, 53, 31
3, 102360, Note_on_c, 0, 53, 0
3, 102360, Note_on_c, 0, 56, 35
3, 102480, Note_on_c, 0, 56, 0
3, 102480, Note_on_c, 0, 60, 39
3, 102600, Note_on_c, 0, 60, 0
3, 102600, Note_on_c, 0, 62, 42
3, 102720, Note_on_c, 0, 62, 0
3, 102720, Note_on_c, 0, 64, 48
3, 102840, Note_on_c, 0, 64, 0
3, 102840, Note_on_c, 0, 62, 41
3, 102960, Note_on_c, 0, 62, 0
3, 102960, Note_on_c, 0, 60, 40
3, 103080, Note_on_c, 0, 60, 0
3, 103080, Note_on_c, 0, 58, 35
3, 103200, Note_on_c, 0, 58, 0
3, 103200, Note_on_c, 0, 56, 33
3, 103320, Note_on_c, 0, 56, 0
3, 103320, Note_on_c, 0, 52, 30
3, 103440, Note_on_c, 0, 52, 0
3, 103440, Note_on_c, 0, 50, 26
3, 103560, Note_on_c, 0, 50, 0
3, 103560, Note_on_c, 0, 48, 24
3, 103680, Note_on_c, 0, 48, 0
3, 103680, Note_on_c, 0, 41, 0
3, 103680, Note_on_c, 0, 40, 28
3, 103800, Note_on_c, 0, 40, 0
3, 103800, Note_on_c, 0, 48, 23
3, 103920, Note_on_c, 0, 48, 0
3, 104160, Note_on_c, 0, 48, 35
3, 104280, Note_on_c, 0, 48, 0
3, 104280, Note_on_c, 0, 52, 30
3, 104400, Note_on_c, 0, 52, 0
3, 104640, Note_on_c, 0, 52, 42
3, 104760, Note_on_c, 0, 52, 0
3, 104760, Note_on_c, 0, 56, 39
3, 104880, Note_on_c, 0, 56, 0
3, 105120, Note_on_c, 0, 56, 49
3, 105240, Note_on_c, 0, 56, 0
3, 105240, Note_on_c, 0, 60, 40
3, 105360, Note_on_c, 0, 60, 0
3, 105600, Note_on_c, 0, 56, 52
3, 105720, Note_on_c, 0, 56, 0
3, 105720, Note_on_c, 0, 60, 45
3, 105840, Note_on_c, 0, 60, 0
3, 106080, Note_on_c, 0, 60, 55
3, 106200, Note_on_c, 0, 60, 0
3, 106200, Note_on_c, 0, 64, 46
3, 106320, Note_on_c, 0, 64, 0
3, 106560, Note_on_c, 0, 64, 67
3, 106680, Note_on_c, 0, 64, 0
3, 106680, Note_on_c, 0, 68, 56
3, 106800, Note_on_c, 0, 68, 0
3, 107040, Note_on_c, 0, 68, 71
3, 107160, Note_on_c, 0, 68, 0
3, 107160, Note_on_c, 0, 72, 64
3, 107280, Note_on_c, 0, 72, 0
3, 107520, Note_on_c, 0, 72, 79
3, 107640, Note_on_c, 0, 76, 72
3, 107760, Note_on_c, 0, 76, 0
3, 108000, Note_on_c, 0, 72, 0
3, 108000, Note_on_c, 0, 72, 71
3, 108120, Note_on_c, 0, 76, 64
3, 108240, Note_on_c, 0, 76, 0
3, 108480, Note_on_c, 0, 72, 0
3, 108480, Note_on_c, 0, 74, 74
3, 108600, Note_on_c, 0, 76, 68
3, 108720, Note_on_c, 0, 76, 0
3, 108960, Note_on_c, 0, 74, 0
3, 108960, Note_on_c, 0, 72, 71
3, 109080, Note_on_c, 0, 76, 64
3, 109200, Note_on_c, 0, 76, 0
3, 109440, Note_on_c, 0, 72, 0
3, 109440, Note_on_c, 0, 77, 63
3, 109560, Note_on_c, 0, 80, 57
3, 109680, Note_on_c, 0, 80, 0
3, 109920, Note_on_c, 0, 77, 0
3, 109920, Note_on_c, 0, 75, 57
3, 110040, Note_on_c, 0, 80, 51
3, 110160, Note_on_c, 0, 80, 0
3, 110400, Note_on_c, 0, 75, 0
3, 110400, Note_on_c, 0, 74, 58
3, 110520, Note_on_c, 0, 75, 54
3, 110640, Note_on_c, 0, 75, 0
3, 110880, Note_on_c, 0, 74, 0
3, 110880, Note_on_c, 0, 72, 57
3, 111000, Note_on_c, 0, 75, 51
3, 111120, Note_on_c, 0, 75, 0
3, 111360, Note_on_c, 0, 72, 0
3, 111360, Note_on_c, 0, 74, 63
3, 111480, Note_on_c, 0, 76, 57
3, 111600, Note_on_c, 0, 76, 0
3, 111840, Note_on_c, 0, 74, 0
3, 111840, Note_on_c, 0, 72, 57
3, 111960, Note_on_c, 0, 76, 51
3, 112080, Note_on_c, 0, 76, 0
3, 112320, Note_on_c, 0, 72, 0
3, 112320, Note_on_c, 0, 71, 58
3, 112440, Note_on_c, 0, 72, 54
3, 112560, Note_on_c, 0, 72, 0
3, 112800, Note_on_c, 0, 71, 0
3, 112800, Note_on_c, 0, 69, 57
3, 112920, Note_on_c, 0, 72, 51
3, 113040, Note_on_c, 0, 72, 0
3, 113280, Note_on_c, 0, 69, 0
3, 113280, Note_on_c, 0, 67, 63
3, 113400, Note_on_c, 0, 69, 57
3, 113520, Note_on_c, 0, 69, 0
3, 113760, Note_on_c, 0, 67, 0
3, 113760, Note_on_c, 0, 65, 55
3, 113880, Note_on_c, 0, 69, 48
3, 114000, Note_on_c, 0, 69, 0
3, 114240, Note_on_c, 0, 65, 0
3, 114240, Note_on_c, 0, 64, 54
3, 114360, Note_on_c, 0, 65, 49
3, 114480, Note_on_c, 0, 65, 0
3, 114720, Note_on_c, 0, 64, 0
3, 114720, Note_on_c, 0, 62, 50
3, 114840, Note_on_c, 0, 65, 44
3, 114960, Note_on_c, 0, 65, 0
3, 115200, Note_on_c, 0, 62, 0
3, 115200, Note_on_c, 0, 62, 48
3, 115320, Note_on_c, 0, 64, 45
3, 115440, Note_on_c, 0, 64, 0
3, 115680, Note_on_c, 0, 62, 0
3, 115680, Note_on_c, 0, 60, 63
3, 115800, Note_on_c, 0, 64, 57
3, 115920, Note_on_c, 0, 64, 0
3, 116160, Note_on_c, 0, 60, 0
3, 116160, Note_on_c, 0, 62, 66
3, 116280, Note_on_c, 0, 64, 61
3, 116400, Note_on_c, 0, 64, 0
3, 116640, Note_on_c, 0, 62, 0
3, 116640, Note_on_c, 0, 60, 63
3, 116760, Note_on_c, 0, 64, 57
3, 116880, Note_on_c, 0, 64, 0
3, 117120, Note_on_c, 0, 60, 0
3, 117120, Note_on_c, 0, 65, 63
3, 117240, Note_on_c, 0, 68, 57
3, 117360, Note_on_c, 0, 68, 0
3, 117600, Note_on_c, 0, 65, 0
3, 117600, Note_on_c, 0, 63, 63
3, 117720, Note_on_c, 0, 68, 57
3, 117840, Note_on_c, 0, 68, 0
3, 118080, Note_on_c, 0, 63, 0
3, 118080, Note_on_c, 0, 62, 66
3, 118200, Note_on_c, 0, 63, 61
3, 118320, Note_on_c, 0, 63, 0
3, 118560, Note_on_c, 0, 62, 0
3, 118560, Note_on_c, 0, 60, 63
3, 118680, Note_on_c, 0, 63, 57
3, 118800, Note_on_c, 0, 63, 0
3, 119040, Note_on_c, 0, 60, 0
3, 119040, Note_on_c, 0, 62, 63
3, 119160, Note_on_c, 0, 64, 57
3, 119280, Note_on_c, 0, 64, 0
3, 119520, Note_on_c, 0, 62, 0
3, 119520, Note_on_c, 0, 60, 63
3, 119640, Note_on_c, 0, 64, 57
3, 119760, Note_on_c, 0, 64, 0
3, 120000, Note_on_c, 0, 60, 0
3, 120000, Note_on_c, 0, 59, 66
3, 120120, Note_on_c, 0, 60, 61
3, 120240, Note_on_c, 0, 60, 0
3, 120480, Note_on_c, 0, 59, 0
3, 120480, Note_on_c, 0, 57, 63
3, 120600, Note_on_c, 0, 60, 57
3, 120720, Note_on_c, 0, 60, 0
3, 120960, Note_on_c, 0, 57, 0
3, 120960, Note_on_c, 0, 55, 59
3, 121080, Note_on_c, 0, 57, 53
3, 121200, Note_on_c, 0, 57, 0
3, 121440, Note_on_c, 0, 55, 0
3, 121440, Note_on_c, 0, 53, 56
3, 121560, Note_on_c, 0, 57, 50
3, 121680, Note_on_c, 0, 57, 0
3, 121920, Note_on_c, 0, 53, 0
3, 121920, Note_on_c, 0, 52, 56
3, 122040, Note_on_c, 0, 53, 51
3, 122160, Note_on_c, 0, 53, 0
3, 122400, Note_on_c, 0, 52, 0
3, 122400, Note_on_c, 0, 50, 50
3, 122520, Note_on_c, 0, 53, 45
3, 122640, Note_on_c, 0, 53, 0
3, 122880, Note_on_c, 0, 50, 0
3, 122880, Note_on_c, 0, 50, 66
3, 123360, Note_on_c, 0, 50, 0
3, 123360, Note_on_c, 0, 48, 55
3, 123840, Note_on_c, 0, 48, 0
3, 123840, Note_on_c, 0, 50, 61
3, 123840, Note_on_c, 0, 41, 61
3, 124320, Note_on_c, 0, 50, 0
3, 124320, Note_on_c, 0, 48, 55
3, 124800, Note_on_c, 0, 48, 0
3, 124800, Note_on_c, 0, 41, 0
3, 124800, Note_on_c, 0, 62, 66
3, 125280, Note_on_c, 0, 62, 0
3, 125280, Note_on_c, 0, 60, 55
3, 125760, Note_on_c, 0, 60, 0
3, 125760, Note_on_c, 0, 53, 57
3, 125760, Note_on_c, 0, 62, 66
3, 126240, Note_on_c, 0, 62, 0
3, 126240, Note_on_c, 0, 60, 55
3, 126720, Note_on_c, 0, 60, 0
3, 126720, Note_on_c, 0, 53, 0
3, 126720, Note_on_c, 0, 60, 57
3, 126720, Note_on_c, 0, 67, 55
3, 127200, Note_on_c, 0, 67, 0
3, 127200, Note_on_c, 0, 69, 61
3, 127440, Note_on_c, 0, 69, 0
3, 127680, Note_on_c, 0, 60, 0
3, 127680, Note_on_c, 0, 60, 57
3, 127680, Note_on_c, 0, 67, 55
3, 128160, Note_on_c, 0, 67, 0
3, 128160, Note_on_c, 0, 69, 61
3, 128400, Note_on_c, 0, 69, 0
3, 128640, Note_on_c, 0, 60, 0
3, 128640, Note_on_c, 0, 60, 47
3, 128640, Note_on_c, 0, 67, 56
3, 129120, Note_on_c, 0, 67, 0
3, 129120, Note_on_c, 0, 60, 0
3, 129120, Note_on_c, 0, 63, 51
3, 129120, Note_on_c, 0, 70, 61
3, 129600, Note_on_c, 0, 70, 0
3, 129600, Note_on_c, 0, 63, 0
3, 129600, Note_on_c, 0, 73, 64
3, 129600, Note_on_c, 0, 66, 54
3, 130080, Note_on_c, 0, 66, 0
3, 130080, Note_on_c, 0, 73, 0
3, 130080, Note_on_c, 0, 67, 56
3, 130080, Note_on_c, 0, 74, 67
3, 130560, Note_on_c, 0, 74, 0
3, 130560, Note_on_c, 0, 67, 0
3, 130560, Note_on_c, 0, 60, 57
3, 130560, Note_on_c, 0, 67, 55
3, 131040, Note_on_c, 0, 67, 0
3, 131040, Note_on_c, 0, 69, 61
3, 131280, Note_on_c, 0, 69, 0
3, 131520, Note_on_c, 0, 60, 0
3, 131520, Note_on_c, 0, 60, 57
3, 131520, Note_on_c, 0, 67, 55
3, 132000, Note_on_c, 0, 67, 0
3, 132000, Note_on_c, 0, 69, 61
3, 132240, Note_on_c, 0, 69, 0
3, 132480, Note_on_c, 0, 60, 0
3, 132480, Note_on_c, 0, 60, 47
3, 132480, Note_on_c, 0, 67, 56
3, 132960, Note_on_c, 0, 67, 0
3, 132960, Note_on_c, 0, 60, 0
3, 132960, Note_on_c, 0, 63, 51
3, 132960, Note_on_c, 0, 70, 61
3, 133440, Note_on_c, 0, 70, 0
3, 133440, Note_on_c, 0, 63, 0
3, 133440, Note_on_c, 0, 73, 64
3, 133440, Note_on_c, 0, 66, 54
3, 133920, Note_on_c, 0, 66, 0
3, 133920, Note_on_c, 0, 73, 0
3, 133920, Note_on_c, 0, 67, 56
3, 133920, Note_on_c, 0, 74, 67
3, 134400, Note_on_c, 0, 74, 0
3, 134400, Note_on_c, 0, 67, 0
3, 134400, Note_on_c, 0, 79, 70
3, 134880, Note_on_c, 0, 72, 65
3, 135360, Note_on_c, 0, 72, 0
3, 135360, Note_on_c, 0, 79, 0
3, 135360, Note_on_c, 0, 67, 67
3, 135840, Note_on_c, 0, 60, 64
3, 136320, Note_on_c, 0, 60, 0
3, 136320, Note_on_c, 0, 67, 0
3, 136320, Note_on_c, 0, 55, 70
3, 136800, Note_on_c, 0, 55, 0
3, 136800, Note_on_c, 0, 48, 66
3, 137280, Note_on_c, 0, 48, 0
3, 137280, Note_on_c, 0, 43, 73
3, 137760, Note_on_c, 0, 43, 0
3, 137760, Note_on_c, 0, 36, 68
3, 138240, Note_on_c, 0, 36, 0
3, 138240, Note_on_c, 0, 41, 64
3, 138240, Note_on_c, 0, 45, 76
3, 142080, Note_on_c, 0, 45, 0
3, 142080, Note_on_c, 0, 41, 0
3, 142080, Note_on_c, 0, 43, 61
3, 142080, Note_on_c, 0, 36, 61
3, 142320, Note_on_c, 0, 36, 0
3, 142320, Note_on_c, 0, 43, 0
3, 143999, Note_on_c, 0, 24, 69
3, 144239, Note_on_c, 0, 24, 0
3, 144239, End_track
4, 0, Start_track
4, 0, Title_t, "Pedale"
4, 0, Program_c, 0, 0
4, 7, Control_c, 0, 64, 127
4, 974, Control_c, 0, 64, 0
4, 1017, Control_c, 0, 64, 127
4, 1450, Control_c, 0, 64, 0
4, 1486, Control_c, 0, 64, 127
4, 1935, Control_c, 0, 64, 0
4, 1998, Control_c, 0, 64, 127
4, 2892, Control_c, 0, 64, 0
4, 2979, Control_c, 0, 64, 127
4, 3378, Control_c, 0, 64, 0
4, 3431, Control_c, 0, 64, 127
4, 3849, Control_c, 0, 64, 0
4, 3890, Control_c, 0, 64, 127
4, 4334, Control_c, 0, 64, 0
4, 4387, Control_c, 0, 64, 127
4, 4811, Control_c, 0, 64, 0
4, 4853, Control_c, 0, 64, 127
4, 5291, Control_c, 0, 64, 0
4, 5358, Control_c, 0, 64, 127
4, 5760, Control_c, 0, 64, 0
4, 5824, Control_c, 0, 64, 127
4, 6246, Control_c, 0, 64, 0
4, 6314, Control_c, 0, 64, 127
4, 6731, Control_c, 0, 64, 0
4, 6798, Control_c, 0, 64, 127
4, 7218, Control_c, 0, 64, 0
4, 7281, Control_c, 0, 64, 127
4, 7683, Control_c, 0, 64, 0
4, 7772, Control_c, 0, 64, 127
4, 8180, Control_c, 0, 64, 0
4, 8259, Control_c, 0, 64, 127
4, 8661, Control_c, 0, 64, 0
4, 8760, Control_c, 0, 64, 127
4, 9141, Control_c, 0, 64, 0
4, 9233, Control_c, 0, 64, 127
4, 9608, Control_c, 0, 64, 0
4, 9685, Control_c, 0, 64, 127
4, 10090, Control_c, 0, 64, 0
4, 10165, Control_c, 0, 64, 127
4, 10577, Control_c, 0, 64, 0
4, 10659, Control_c, 0, 64, 127
4, 11048, Control_c, 0, 64, 0
4, 11139, Control_c, 0, 64, 127
4, 11527, Control_c, 0, 64, 0
4, 11626, Control_c, 0, 64, 127
4, 13500, Control_c, 0, 64, 0
4, 13539, Control_c, 0, 64, 127
4, 15410, Control_c, 0, 64, 0
4, 15452, Control_c, 0, 64, 127
4, 17335, Control_c, 0, 64, 0
4, 17372, Control_c, 0, 64, 127
4, 19219, Control_c, 0, 64, 0
4, 19275, Control_c, 0, 64, 127
4, 21974, Control_c, 0, 64, 0
4, 23040, Control_c, 0, 64, 0
4, 23104, Control_c, 0, 64, 127
4, 24011, Control_c, 0, 64, 0
4, 24078, Control_c, 0, 64, 127
4, 24960, Control_c, 0, 64, 0
4, 25024, Control_c, 0, 64, 127
4, 25931, Control_c, 0, 64, 0
4, 25998, Control_c, 0, 64, 127
4, 26880, Control_c, 0, 64, 0
4, 26944, Control_c, 0, 64, 127
4, 27851, Control_c, 0, 64, 0
4, 27918, Control_c, 0, 64, 127
4, 28800, Control_c, 0, 64, 0
4, 28864, Control_c, 0, 64, 127
4, 29771, Control_c, 0, 64, 0
4, 29838, Control_c, 0, 64, 127
4, 30720, Control_c, 0, 64, 0
4, 30784, Control_c, 0, 64, 127
4, 31215, Control_c, 0, 64, 0
4, 31286, Control_c, 0, 64, 127
4, 31680, Control_c, 0, 64, 0
4, 31744, Control_c, 0, 64, 127
4, 32175, Control_c, 0, 64, 0
4, 32246, Control_c, 0, 64, 127
4, 32640, Control_c, 0, 64, 0
4, 32704, Control_c, 0, 64, 127
4, 34560, Control_c, 0, 64, 0
4, 34624, Control_c, 0, 64, 127
4, 35055, Control_c, 0, 64, 0
4, 35126, Control_c, 0, 64, 127
4, 35520, Control_c, 0, 64, 0
4, 35584, Control_c, 0, 64, 127
4, 36015, Control_c, 0, 64, 0
4, 36086, Control_c, 0, 64, 127
4, 36480, Control_c, 0, 64, 0
4, 36544, Control_c, 0, 64, 127
4, 38400, Control_c, 0, 64, 0
4, 38464, Control_c, 0, 64, 127
4, 40320, Control_c, 0, 64, 0
4, 40373, Control_c, 0, 64, 127
4, 41294, Control_c, 0, 64, 0
4, 41337, Control_c, 0, 64, 127
4, 41770, Control_c, 0, 64, 0
4, 41806, Control_c, 0, 64, 127
4, 42255, Control_c, 0, 64, 0
4, 42318, Control_c, 0, 64, 127
4, 42732, Control_c, 0, 64, 0
4, 42835, Control_c, 0, 64, 127
4, 43212, Control_c, 0, 64, 0
4, 43299, Control_c, 0, 64, 127
4, 43698, Control_c, 0, 64, 0
4, 43751, Control_c, 0, 64, 127
4, 44169, Control_c, 0, 64, 0
4, 44210, Control_c, 0, 64, 127
4, 45133, Control_c, 0, 64, 0
4, 45212, Control_c, 0, 64, 127
4, 46089, Control_c, 0, 64, 0
4, 46130, Control_c, 0, 64, 127
4, 47053, Control_c, 0, 64, 0
4, 47132, Control_c, 0, 64, 127
4, 48009, Control_c, 0, 64, 0
4, 48050, Control_c, 0, 64, 127
4, 48973, Control_c, 0, 64, 0
4, 49052, Control_c, 0, 64, 127
4, 49929, Control_c, 0, 64, 0
4, 49970, Control_c, 0, 64, 127
4, 51849, Control_c, 0, 64, 0
4, 51890, Control_c, 0, 64, 127
4, 53769, Control_c, 0, 64, 0
4, 53810, Control_c, 0, 64, 127
4, 55689, Control_c, 0, 64, 0
4, 55730, Control_c, 0, 64, 127
4, 57600, Control_c, 0, 64, 0
4, 57692, Control_c, 0, 64, 127
4, 60007, Control_c, 0, 64, 0
4, 60086, Control_c, 0, 64, 127
4, 60492, Control_c, 0, 64, 0
4, 60572, Control_c, 0, 64, 127
4, 60968, Control_c, 0, 64, 0
4, 61057, Control_c, 0, 64, 127
4, 61467, Control_c, 0, 64, 0
4, 61610, Control_c, 0, 64, 127
4, 62408, Control_c, 0, 64, 0
4, 62598, Control_c, 0, 64, 127
4, 63380, Control_c, 0, 64, 0
4, 63572, Control_c, 0, 64, 127
4, 64334, Control_c, 0, 64, 0
4, 64476, Control_c, 0, 64, 127
4, 69147, Control_c, 0, 64, 0
4, 69290, Control_c, 0, 64, 127
4, 71040, Control_c, 0, 64, 0
4, 71252, Control_c, 0, 64, 127
4, 72017, Control_c, 0, 64, 0
4, 72141, Control_c, 0, 64, 127
4, 72987, Control_c, 0, 64, 0
4, 73130, Control_c, 0, 64, 127
4, 74880, Control_c, 0, 64, 0
4, 75092, Control_c, 0, 64, 127
4, 75857, Control_c, 0, 64, 0
4, 75981, Control_c, 0, 64, 127
4, 76827, Control_c, 0, 64, 0
4, 77026, Control_c, 0, 64, 127
4, 78727, Control_c, 0, 64, 0
4, 78918, Control_c, 0, 64, 127
4, 80646, Control_c, 0, 64, 0
4, 80781, Control_c, 0, 64, 127
4, 82566, Control_c, 0, 64, 0
4, 82758, Control_c, 0, 64, 127
4, 84490, Control_c, 0, 64, 0
4, 84579, Control_c, 0, 64, 127
4, 85454, Control_c, 0, 64, 0
4, 85497, Control_c, 0, 64, 127
4, 85930, Control_c, 0, 64, 0
4, 85966, Control_c, 0, 64, 127
4, 86415, Control_c, 0, 64, 0
4, 86478, Control_c, 0, 64, 127
4, 87372, Control_c, 0, 64, 0
4, 87459, Control_c, 0, 64, 127
4, 87858, Control_c, 0, 64, 0
4, 87911, Control_c, 0, 64, 127
4, 88329, Control_c, 0, 64, 0
4, 88370, Control_c, 0, 64, 127
4, 88814, Control_c, 0, 64, 0
4, 88867, Control_c, 0, 64, 127
4, 89291, Control_c, 0, 64, 0
4, 89333, Control_c, 0, 64, 127
4, 89771, Control_c, 0, 64, 0
4, 89838, Control_c, 0, 64, 127
4, 90240, Control_c, 0, 64, 0
4, 90304, Control_c, 0, 64, 127
4, 90726, Control_c, 0, 64, 0
4, 90794, Control_c, 0, 64, 127
4, 91211, Control_c, 0, 64, 0
4, 91278, Control_c, 0, 64, 127
4, 91698, Control_c, 0, 64, 0
4, 91761, Control_c, 0, 64, 127
4, 92163, Control_c, 0, 64, 0
4, 92252, Control_c, 0, 64, 127
4, 92660, Control_c, 0, 64, 0
4, 92739, Control_c, 0, 64, 127
4, 93141, Control_c, 0, 64, 0
4, 93240, Control_c, 0, 64, 127
4, 93621, Control_c, 0, 64, 0
4, 93713, Control_c, 0, 64, 127
4, 94088, Control_c, 0, 64, 0
4, 94165, Control_c, 0, 64, 127
4, 94570, Control_c, 0, 64, 0
4, 94645, Control_c, 0, 64, 127
4, 95057, Control_c, 0, 64, 0
4, 95139, Control_c, 0, 64, 127
4, 95528, Control_c, 0, 64, 0
4, 95619, Control_c, 0, 64, 127
4, 96007, Control_c, 0, 64, 0
4, 96106, Control_c, 0, 64, 127
4, 97970, Control_c, 0, 64, 0
4, 98040, Control_c, 0, 64, 127
4, 99890, Control_c, 0, 64, 0
4, 99932, Control_c, 0, 64, 127
4, 101810, Control_c, 0, 64, 0
4, 101863, Control_c, 0, 64, 127
4, 103686, Control_c, 0, 64, 0
4, 103755, Control_c, 0, 64, 127
4, 107520, Control_c, 0, 64, 0
4, 107626, Control_c, 0, 64, 127
4, 109440, Control_c, 0, 64, 0
4, 109546, Control_c, 0, 64, 127
4, 111360, Control_c, 0, 64, 0
4, 111466, Control_c, 0, 64, 127
4, 113280, Control_c, 0, 64, 0
4, 113386, Control_c, 0, 64, 127
4, 115208, Control_c, 0, 64, 0
4, 115299, Control_c, 0, 64, 127
4, 117127, Control_c, 0, 64, 0
4, 117219, Control_c, 0, 64, 127
4, 119047, Control_c, 0, 64, 0
4, 119139, Control_c, 0, 64, 127
4, 122908, Control_c, 0, 64, 0
4, 122944, Control_c, 0, 64, 127
4, 123854, Control_c, 0, 64, 0
4, 123939, Control_c, 0, 64, 127
4, 124828, Control_c, 0, 64, 0
4, 124864, Control_c, 0, 64, 127
4, 125774, Control_c, 0, 64, 0
4, 125859, Control_c, 0, 64, 127
4, 126734, Control_c, 0, 64, 0
4, 126819, Control_c, 0, 64, 127
4, 127694, Control_c, 0, 64, 0
4, 127779, Control_c, 0, 64, 127
4, 128656, Control_c, 0, 64, 0
4, 128732, Control_c, 0, 64, 127
4, 129137, Control_c, 0, 64, 0
4, 129217, Control_c, 0, 64, 127
4, 129615, Control_c, 0, 64, 0
4, 129686, Control_c, 0, 64, 127
4, 130100, Control_c, 0, 64, 0
4, 130183, Control_c, 0, 64, 127
4, 130574, Control_c, 0, 64, 0
4, 130659, Control_c, 0, 64, 127
4, 131534, Control_c, 0, 64, 0
4, 131619, Control_c, 0, 64, 127
4, 132496, Control_c, 0, 64, 0
4, 132572, Control_c, 0, 64, 127
4, 132977, Control_c, 0, 64, 0
4, 133057, Control_c, 0, 64, 127
4, 133455, Control_c, 0, 64, 0
4, 133526, Control_c, 0, 64, 127
4, 133940, Control_c, 0, 64, 0
4, 134023, Control_c, 0, 64, 127
4, 134414, Control_c, 0, 64, 0
4, 134499, Control_c, 0, 64, 127
4, 138240, Control_c, 0, 64, 0
4, 138720, Control_c, 0, 64, 127
4, 141134, Control_c, 0, 64, 0
4, 142193, Control_c, 0, 64, 127
4, 142518, Control_c, 0, 64, 0
4, 144085, Control_c, 0, 64, 127
4, 144847, Control_c, 0, 64, 0
4, 144847, End_track
5, 0, Start_track
5, 0, Title_t, "Debussy: Childrens Corner 1"
5, 0, End_track
6, 0, Start_track
6, 0, Title_t, "Copyright © 2010 by Bernd Krueger"
6, 0, End_track
7, 0, Start_track
7, 0, Title_t, "http://www.piano-midi.de/"
7, 0, End_track
8, 0, Start_track
8, 0, Title_t, "Edition: 2011-05-12"
8, 0, End_track
9, 0, Start_track
9, 0, Title_t, "Spur 8"
9, 0, End_track
10, 0, Start_track
10, 0, Title_t, "Spur 9"
10, 0, End_track
11, 0, Start_track
11, 0, Title_t, "Spur 10"
11, 0, End_track
12, 0, Start_track
12, 0, Title_t, "Spur 11"
12, 0, End_track
13, 0, Start_track
13, 0, Title_t, "Spur 12"
13, 0, End_track
14, 0, Start_track
14, 0, Title_t, "Spur 13"
14, 0, End_track
15, 0, Start_track
15, 0, Title_t, "Spur 14"
15, 0, End_track
16, 0, Start_track
16, 0, Title_t, "Spur 15"
16, 0, End_track
17, 0, Start_track
17, 0, Title_t, "Spur 16"
17, 0, End_track
0, 0, End_of_file
