0, 0, Header, 1, 8, 480
1, 0, Start_track
1, 0, Title_t, "Espana Op. 165"
1, 0, Title_t, "Tango"
1, 0, Copyright_t, "Copyright © 2010 by Bernd Krueger"
1, 0, Text_t, "Leopold Godowsky"
1, 0, Text_t, "Andantino grazioso"
1, 0, Text_t, "Fertiggestellt 26.8.2010\012"
1, 0, Text_t, "Dauer: 2:38 Minuten\012"
1, 0, SMPTE_offset, 96, 0, 3, 0, 0
1, 0, Time_signature, 4, 2, 24, 8
1, 0, Key_signature, 2, "major"
1, 0, Tempo, 1054667
1, 360, Tempo, 1026518
1, 720, Tempo, 1176471
1, 960, Tempo, 1054667
1, 1320, Tempo, 1026518
1, 1680, Tempo, 1116487
1, 1920, Tempo, 921234
1, 2240, Tempo, 1100312
1, 2340, Tempo, 985383
1, 2400, Tempo, 1062135
1, 2420, Tempo, 1108443
1, 2640, Tempo, 1149866
1, 2880, Tempo, 1008065
1, 3240, Tempo, 970874
1, 3360, Tempo, 1108443
1, 3600, Tempo, 1124649
1, 3720, Tempo, 1263956
1, 3840, Tempo, 1006205
1, 4212, Tempo, 961847
1, 4320, Tempo, 1069519
1, 4340, Tempo, 1039681
1, 4560, Tempo, 1213838
1, 4680, Tempo, 1274697
1, 4800, Tempo, 1040402
1, 5160, Tempo, 963855
1, 5280, Tempo, 1069519
1, 5520, Tempo, 1213838
1, 5760, Tempo, 1040402
1, 6120, Tempo, 1069519
1, 6480, Tempo, 1054667
1, 6720, Tempo, 765404
1, 6880, Tempo, 927357
1, 6960, Tempo, 1253918
1, 7080, Tempo, 978155
1, 7200, Tempo, 1108443
1, 7440, Tempo, 1179014
1, 7560, Tempo, 1200480
1, 7680, Tempo, 1124649
1, 8040, Tempo, 992884
1, 8160, Tempo, 1100312
1, 8400, Tempo, 1158301
1, 8640, Tempo, 1148325
1, 8880, Tempo, 1092498
1, 9000, Tempo, 1026518
1, 9120, Tempo, 1132931
1, 9360, Tempo, 1192843
1, 9480, Tempo, 1418440
1, 9600, Tempo, 921234
1, 9920, Tempo, 1100312
1, 10020, Tempo, 985383
1, 10080, Tempo, 1062135
1, 10100, Tempo, 1108443
1, 10320, Tempo, 1149866
1, 10560, Tempo, 1008065
1, 10920, Tempo, 970874
1, 11040, Tempo, 1108443
1, 11280, Tempo, 1124649
1, 11400, Tempo, 1263956
1, 11520, Tempo, 1006205
1, 11892, Tempo, 961847
1, 12000, Tempo, 1069519
1, 12020, Tempo, 1039681
1, 12240, Tempo, 1213838
1, 12360, Tempo, 1274697
1, 12480, Tempo, 1040402
1, 12840, Tempo, 963855
1, 12960, Tempo, 1069519
1, 13200, Tempo, 1213838
1, 13440, Tempo, 1040402
1, 13800, Tempo, 1069519
1, 14160, Tempo, 1054667
1, 14400, Tempo, 757671
1, 14560, Tempo, 963082
1, 14640, Tempo, 1253918
1, 14760, Tempo, 978155
1, 14880, Tempo, 1108443
1, 15120, Tempo, 1179014
1, 15240, Tempo, 1200480
1, 15360, Tempo, 1124649
1, 15720, Tempo, 992884
1, 15840, Tempo, 1100312
1, 16080, Tempo, 1158301
1, 16320, Tempo, 1148325
1, 16560, Tempo, 1092498
1, 16680, Tempo, 1026518
1, 16800, Tempo, 1132931
1, 17040, Tempo, 1082446
1, 17440, Tempo, 1048035
1, 17600, Tempo, 1008065
1, 17760, Tempo, 1064963
1, 18000, Tempo, 1138304
1, 18240, Tempo, 1040402
1, 18480, Tempo, 1124649
1, 18720, Tempo, 1040402
1, 19040, Tempo, 1100312
1, 19200, Tempo, 1026518
1, 19360, Tempo, 999667
1, 19520, Tempo, 1033414
1, 19920, Tempo, 1062135
1, 20160, Tempo, 1026518
1, 20480, Tempo, 1069519
1, 20880, Tempo, 1132931
1, 21120, Tempo, 1012829
1, 21280, Tempo, 1054667
1, 21440, Tempo, 1015744
1, 21600, Tempo, 1100312
1, 21840, Tempo, 1176471
1, 22080, Tempo, 1040402
1, 22320, Tempo, 1124649
1, 22560, Tempo, 1040402
1, 22880, Tempo, 1077006
1, 23040, Tempo, 986680
1, 23200, Tempo, 1039681
1, 23360, Tempo, 1073537
1, 23520, Tempo, 1100312
1, 23760, Tempo, 1132931
1, 24320, Tempo, 1069519
1, 24360, Tempo, 1000333
1, 24480, Tempo, 1138304
1, 24720, Tempo, 1342282
1, 24840, Tempo, 1749271
1, 24960, Tempo, 921234
1, 25280, Tempo, 1100312
1, 25380, Tempo, 985383
1, 25440, Tempo, 1062135
1, 25460, Tempo, 1108443
1, 25680, Tempo, 1149866
1, 25920, Tempo, 1008065
1, 26280, Tempo, 970874
1, 26400, Tempo, 1108443
1, 26640, Tempo, 1124649
1, 26760, Tempo, 1263956
1, 26880, Tempo, 1006205
1, 27252, Tempo, 961847
1, 27360, Tempo, 1048035
1, 27600, Tempo, 1213838
1, 27720, Tempo, 1274697
1, 27840, Tempo, 1040402
1, 28200, Tempo, 963855
1, 28320, Tempo, 1069519
1, 28560, Tempo, 1168679
1, 28680, Tempo, 1211387
1, 28800, Tempo, 1040402
1, 29160, Tempo, 1069519
1, 29520, Tempo, 1158301
1, 29760, Tempo, 1118985
1, 30000, Tempo, 1253918
1, 30120, Tempo, 978155
1, 30240, Tempo, 1039681
1, 30480, Tempo, 1213838
1, 30720, Tempo, 1040402
1, 31080, Tempo, 1069519
1, 31200, Tempo, 1100312
1, 31440, Tempo, 1109673
1, 31680, Tempo, 1082446
1, 31920, Tempo, 1253918
1, 32040, Tempo, 978155
1, 32160, Tempo, 1023541
1, 32400, Tempo, 1073537
1, 32640, Tempo, 986680
1, 32800, Tempo, 1039681
1, 32960, Tempo, 1073537
1, 33120, Tempo, 1100312
1, 33360, Tempo, 1132931
1, 33600, Tempo, 1082446
1, 33920, Tempo, 1069519
1, 33960, Tempo, 1000333
1, 34080, Tempo, 1108443
1, 34320, Tempo, 1073537
1, 34560, Tempo, 988468
1, 34680, Tempo, 938967
1, 34800, Tempo, 916031
1, 34920, Tempo, 1015228
1, 35040, Tempo, 1100312
1, 35280, Tempo, 1132931
1, 35520, Tempo, 1082446
1, 35840, Tempo, 1069519
1, 35880, Tempo, 1000333
1, 36000, Tempo, 1108443
1, 36240, Tempo, 1073537
1, 36480, Tempo, 986680
1, 36640, Tempo, 1039681
1, 36800, Tempo, 1073537
1, 36960, Tempo, 1100312
1, 37200, Tempo, 1132931
1, 37440, Tempo, 1082446
1, 37760, Tempo, 1069519
1, 37800, Tempo, 1000333
1, 37920, Tempo, 1108443
1, 38160, Tempo, 1073537
1, 38400, Tempo, 986680
1, 38560, Tempo, 1451028
1, 38640, Tempo, 1023541
1, 38720, Tempo, 1073537
1, 38880, Tempo, 1109673
1, 39120, Tempo, 1132931
1, 39360, Tempo, 1082446
1, 39680, Tempo, 1069519
1, 39720, Tempo, 1000333
1, 39840, Tempo, 1108443
1, 40080, Tempo, 1073537
1, 40320, Tempo, 986680
1, 40480, Tempo, 1245847
1, 40560, Tempo, 1023541
1, 40640, Tempo, 1073537
1, 40800, Tempo, 1100312
1, 41040, Tempo, 1132931
1, 41280, Tempo, 986680
1, 41440, Tempo, 1245847
1, 41520, Tempo, 1023541
1, 41600, Tempo, 1073537
1, 41760, Tempo, 1245847
1, 41920, Tempo, 1189532
1, 42080, Tempo, 1128668
1, 42240, Tempo, 986680
1, 42400, Tempo, 1245847
1, 42480, Tempo, 1023541
1, 42560, Tempo, 1073537
1, 42720, Tempo, 1245847
1, 42880, Tempo, 1100312
1, 42960, Tempo, 1132931
1, 43200, Tempo, 986680
1, 43520, Tempo, 1056338
1, 43680, Tempo, 1158301
1, 43800, Tempo, 1158301
1, 43840, Tempo, 1307474
1, 43920, Tempo, 1138304
1, 44160, Tempo, 986680
1, 44320, Tempo, 1245847
1, 44400, Tempo, 1023541
1, 44480, Tempo, 1073537
1, 44640, Tempo, 1100312
1, 44760, Tempo, 1407460
1, 44880, Tempo, 1120867
1, 45600, Tempo, 1015744
1, 45920, Tempo, 1082446
1, 46080, Tempo, 1015744
1, 46400, Tempo, 1073537
1, 46560, Tempo, 1048035
1, 46800, Tempo, 1109673
1, 47040, Tempo, 1158301
1, 47520, Tempo, 1015744
1, 47840, Tempo, 1082446
1, 48000, Time_signature, 2, 2, 24, 8
1, 48000, Tempo, 1015744
1, 48320, Tempo, 1200480
1, 48480, Tempo, 1269841
1, 48720, Tempo, 1451028
1, 48840, Tempo, 1709402
1, 48949, Tempo, 1087153
1, 48960, Time_signature, 4, 2, 24, 8
1, 48960, Tempo, 1071620
1, 48971, Tempo, 1056524
1, 48982, Tempo, 1041848
1, 48993, Tempo, 1027573
1, 49004, Tempo, 1013685
1, 49015, Tempo, 1000167
1, 49026, Tempo, 987004
1, 49037, Tempo, 961693
1, 49048, Tempo, 949517
1, 49059, Tempo, 937647
1, 49069, Tempo, 926069
1, 49080, Tempo, 914774
1, 49091, Tempo, 903751
1, 49102, Tempo, 892990
1, 49113, Tempo, 903751
1, 49280, Tempo, 1100312
1, 49380, Tempo, 985383
1, 49440, Tempo, 1128668
1, 49680, Tempo, 1189532
1, 49920, Tempo, 1046390
1, 50040, Tempo, 1033236
1, 50160, Tempo, 1073537
1, 50280, Tempo, 970874
1, 50400, Tempo, 1108443
1, 50640, Tempo, 1124649
1, 50760, Tempo, 1263956
1, 50880, Tempo, 1006205
1, 51252, Tempo, 961847
1, 51360, Tempo, 1069519
1, 51380, Tempo, 1039681
1, 51600, Tempo, 1213838
1, 51720, Tempo, 1274697
1, 51840, Tempo, 1156069
1, 52000, Tempo, 1104972
1, 52320, Tempo, 1069519
1, 52560, Tempo, 1213838
1, 52800, Tempo, 1040402
1, 53160, Tempo, 1069519
1, 53520, Tempo, 1054667
1, 53760, Tempo, 765404
1, 53920, Tempo, 1001669
1, 54000, Tempo, 1253918
1, 54120, Tempo, 978155
1, 54240, Tempo, 1108443
1, 54480, Tempo, 1179014
1, 54600, Tempo, 1200480
1, 54720, Tempo, 1124649
1, 55080, Tempo, 992884
1, 55200, Tempo, 1100312
1, 55440, Tempo, 1158301
1, 55680, Tempo, 1148325
1, 55920, Tempo, 1092498
1, 56040, Tempo, 1026518
1, 56160, Tempo, 1132931
1, 56400, Tempo, 1091306
1, 56520, Tempo, 1168679
1, 56640, Tempo, 1039681
1, 56760, Tempo, 1031637
1, 56880, Tempo, 1023541
1, 57000, Tempo, 1015744
1, 57120, Tempo, 1000333
1, 57220, Tempo, 1008065
1, 57300, Tempo, 1015744
1, 57380, Tempo, 1023541
1, 57440, Tempo, 1100312
1, 57600, Tempo, 1040402
1, 58080, Tempo, 1040402
1, 58400, Tempo, 1100312
1, 58560, Tempo, 1039681
1, 58680, Tempo, 1031637
1, 58800, Tempo, 1023541
1, 58920, Tempo, 1015744
1, 59040, Tempo, 1000333
1, 59140, Tempo, 1008065
1, 59220, Tempo, 1015744
1, 59300, Tempo, 1023541
1, 59360, Tempo, 1100312
1, 59520, Tempo, 1040402
1, 60000, Tempo, 1100312
1, 60160, Tempo, 1039681
1, 60320, Tempo, 1100312
1, 60480, Tempo, 1039681
1, 60640, Tempo, 1056338
1, 60800, Tempo, 1091306
1, 60960, Tempo, 1118985
1, 61200, Tempo, 1158301
1, 61440, Tempo, 1091306
1, 61760, Tempo, 1158301
1, 61920, Tempo, 1257598
1, 62160, Tempo, 1517835
1, 62400, Time_signature, 2, 2, 24, 8
1, 62400, Tempo, 1118985
1, 62560, Tempo, 1168679
1, 62720, Tempo, 1333926
1, 62880, Tempo, 1389854
1, 63120, Tempo, 1834301
1, 63360, Time_signature, 4, 2, 24, 8
1, 63360, Tempo, 1269841
1, 63720, Tempo, 1222743
1, 64080, Tempo, 1451028
1, 64320, Tempo, 1361470
1, 64680, Tempo, 1257598
1, 64800, Tempo, 1467351
1, 65040, Tempo, 1693002
1, 65280, Tempo, 1333926
1, 66720, Tempo, 1333926
1, 66720, End_track
2, 0, Start_track
2, 0, Title_t, "Piano right"
2, 0, Program_c, 0, 0
2, 0, Control_c, 0, 7, 100
2, 0, Control_c, 0, 10, 64
2, 0, Text_t, "bdca426d104a26ac9dcb070447587523"
2, 0, Control_c, 0, 91, 127
2, 360, Note_on_c, 0, 57, 49
2, 480, Note_on_c, 0, 57, 0
2, 480, Note_on_c, 0, 54, 49
2, 480, Note_on_c, 0, 69, 55
2, 480, Note_on_c, 0, 62, 49
2, 960, Note_on_c, 0, 62, 0
2, 960, Note_on_c, 0, 69, 0
2, 960, Note_on_c, 0, 54, 0
2, 1320, Note_on_c, 0, 57, 46
2, 1440, Note_on_c, 0, 57, 0
2, 1440, Note_on_c, 0, 54, 48
2, 1440, Note_on_c, 0, 62, 48
2, 1440, Note_on_c, 0, 69, 54
2, 1920, Note_on_c, 0, 69, 0
2, 1920, Note_on_c, 0, 62, 0
2, 1920, Note_on_c, 0, 54, 0
2, 1920, Note_on_c, 0, 57, 45
2, 1920, Note_on_c, 0, 62, 45
2, 1920, Note_on_c, 0, 66, 65
2, 2064, Note_on_c, 0, 66, 0
2, 2080, Note_on_c, 0, 66, 60
2, 2224, Note_on_c, 0, 66, 0
2, 2240, Note_on_c, 0, 66, 57
2, 2280, Note_on_c, 0, 62, 0
2, 2280, Note_on_c, 0, 57, 0
2, 2330, Note_on_c, 0, 66, 0
2, 2340, Note_on_c, 0, 62, 45
2, 2340, Note_on_c, 0, 66, 55
2, 2370, Note_on_c, 0, 66, 0
2, 2370, Note_on_c, 0, 69, 49
2, 2400, Note_on_c, 0, 69, 0
2, 2400, Note_on_c, 0, 62, 0
2, 2400, Note_on_c, 0, 62, 48
2, 2400, Note_on_c, 0, 67, 58
2, 2640, Note_on_c, 0, 67, 0
2, 2640, Note_on_c, 0, 66, 60
2, 2820, Note_on_c, 0, 66, 0
2, 2820, Note_on_c, 0, 54, 38
2, 2850, Note_on_c, 0, 62, 38
2, 2880, Note_on_c, 0, 62, 0
2, 2880, Note_on_c, 0, 69, 63
2, 3600, Note_on_c, 0, 69, 0
2, 3600, Note_on_c, 0, 62, 0
2, 3600, Note_on_c, 0, 54, 0
2, 3600, Note_on_c, 0, 66, 56
2, 3600, Note_on_c, 0, 74, 69
2, 3720, Note_on_c, 0, 74, 0
2, 3720, Note_on_c, 0, 66, 0
2, 3720, Note_on_c, 0, 69, 56
2, 3720, Note_on_c, 0, 76, 77
2, 3840, Note_on_c, 0, 76, 0
2, 3840, Note_on_c, 0, 69, 0
2, 3840, Note_on_c, 0, 74, 52
2, 3840, Note_on_c, 0, 78, 82
2, 4200, Note_on_c, 0, 78, 0
2, 4200, Note_on_c, 0, 69, 61
2, 4200, Note_on_c, 0, 73, 67
2, 4260, Note_on_c, 0, 73, 0
2, 4260, Note_on_c, 0, 69, 0
2, 4260, Note_on_c, 0, 76, 55
2, 4320, Note_on_c, 0, 76, 0
2, 4320, Note_on_c, 0, 66, 62
2, 4320, Note_on_c, 0, 74, 75
2, 4560, Note_on_c, 0, 74, 0
2, 4560, Note_on_c, 0, 66, 0
2, 4560, Note_on_c, 0, 74, 0
2, 4560, Note_on_c, 0, 60, 43
2, 4560, Note_on_c, 0, 66, 43
2, 4560, Note_on_c, 0, 71, 64
2, 4800, Note_on_c, 0, 71, 0
2, 4800, Note_on_c, 0, 66, 0
2, 4800, Note_on_c, 0, 60, 0
2, 4800, Note_on_c, 0, 57, 47
2, 4800, Note_on_c, 0, 61, 47
2, 4800, Note_on_c, 0, 67, 56
2, 5520, Note_on_c, 0, 67, 0
2, 5520, Note_on_c, 0, 61, 0
2, 5520, Note_on_c, 0, 57, 0
2, 5520, Note_on_c, 0, 64, 50
2, 5520, Note_on_c, 0, 67, 60
2, 5640, Note_on_c, 0, 67, 0
2, 5640, Note_on_c, 0, 64, 0
2, 5640, Note_on_c, 0, 66, 50
2, 5640, Note_on_c, 0, 69, 60
2, 5760, Note_on_c, 0, 69, 0
2, 5760, Note_on_c, 0, 66, 0
2, 5760, Note_on_c, 0, 67, 56
2, 5760, Note_on_c, 0, 71, 67
2, 6120, Note_on_c, 0, 71, 0
2, 6120, Note_on_c, 0, 67, 0
2, 6120, Note_on_c, 0, 73, 63
2, 6120, Note_on_c, 0, 69, 53
2, 6240, Note_on_c, 0, 69, 0
2, 6240, Note_on_c, 0, 73, 0
2, 6240, Note_on_c, 0, 73, 57
2, 6240, Note_on_c, 0, 76, 68
2, 6480, Note_on_c, 0, 76, 0
2, 6480, Note_on_c, 0, 73, 0
2, 6480, Note_on_c, 0, 71, 53
2, 6480, Note_on_c, 0, 74, 63
2, 6720, Note_on_c, 0, 74, 0
2, 6720, Note_on_c, 0, 71, 0
2, 6720, Note_on_c, 0, 71, 56
2, 6720, Note_on_c, 0, 74, 67
2, 6780, Note_on_c, 0, 74, 0
2, 6780, Note_on_c, 0, 76, 58
2, 6840, Note_on_c, 0, 76, 0
2, 6840, Note_on_c, 0, 74, 61
2, 6960, Note_on_c, 0, 74, 0
2, 6960, Note_on_c, 0, 71, 0
2, 6960, Note_on_c, 0, 73, 56
2, 6960, Note_on_c, 0, 69, 47
2, 7440, Note_on_c, 0, 69, 0
2, 7440, Note_on_c, 0, 73, 0
2, 7440, Note_on_c, 0, 73, 56
2, 7440, Note_on_c, 0, 76, 67
2, 7560, Note_on_c, 0, 76, 0
2, 7560, Note_on_c, 0, 73, 0
2, 7560, Note_on_c, 0, 67, 49
2, 7560, Note_on_c, 0, 71, 58
2, 7680, Note_on_c, 0, 71, 0
2, 7680, Note_on_c, 0, 67, 0
2, 7680, Note_on_c, 0, 71, 54
2, 7680, Note_on_c, 0, 74, 64
2, 8040, Note_on_c, 0, 74, 0
2, 8040, Note_on_c, 0, 71, 0
2, 8040, Note_on_c, 0, 66, 48
2, 8040, Note_on_c, 0, 69, 57
2, 8130, Note_on_c, 0, 69, 0
2, 8130, Note_on_c, 0, 66, 0
2, 8160, Note_on_c, 0, 69, 51
2, 8160, Note_on_c, 0, 73, 61
2, 8400, Note_on_c, 0, 73, 0
2, 8400, Note_on_c, 0, 69, 0
2, 8400, Note_on_c, 0, 64, 45
2, 8400, Note_on_c, 0, 67, 54
2, 8640, Note_on_c, 0, 67, 0
2, 8640, Note_on_c, 0, 64, 0
2, 8640, Note_on_c, 0, 65, 49
2, 8640, Note_on_c, 0, 71, 58
2, 8880, Note_on_c, 0, 71, 0
2, 8880, Note_on_c, 0, 65, 0
2, 8880, Note_on_c, 0, 69, 54
2, 8880, Note_on_c, 0, 66, 45
2, 9360, Note_on_c, 0, 66, 0
2, 9360, Note_on_c, 0, 69, 0
2, 9360, Note_on_c, 0, 69, 61
2, 9360, Note_on_c, 0, 81, 70
2, 9600, Note_on_c, 0, 81, 0
2, 9600, Note_on_c, 0, 69, 0
2, 9600, Note_on_c, 0, 66, 65
2, 9600, Note_on_c, 0, 62, 45
2, 9600, Note_on_c, 0, 54, 41
2, 9760, Note_on_c, 0, 66, 0
2, 9760, Note_on_c, 0, 66, 60
2, 9920, Note_on_c, 0, 66, 0
2, 9920, Note_on_c, 0, 66, 57
2, 10020, Note_on_c, 0, 66, 0
2, 10020, Note_on_c, 0, 62, 45
2, 10020, Note_on_c, 0, 66, 55
2, 10050, Note_on_c, 0, 66, 0
2, 10050, Note_on_c, 0, 69, 49
2, 10080, Note_on_c, 0, 69, 0
2, 10080, Note_on_c, 0, 62, 0
2, 10080, Note_on_c, 0, 54, 0
2, 10080, Note_on_c, 0, 62, 0
2, 10080, Note_on_c, 0, 67, 58
2, 10080, Note_on_c, 0, 62, 48
2, 10320, Note_on_c, 0, 67, 0
2, 10320, Note_on_c, 0, 66, 60
2, 10500, Note_on_c, 0, 66, 0
2, 10500, Note_on_c, 0, 54, 38
2, 10530, Note_on_c, 0, 62, 38
2, 10560, Note_on_c, 0, 62, 0
2, 10560, Note_on_c, 0, 69, 63
2, 11010, Note_on_c, 0, 81, 45
2, 11025, Note_on_c, 0, 86, 45
2, 11040, Note_on_c, 0, 93, 50
2, 11280, Note_on_c, 0, 93, 0
2, 11280, Note_on_c, 0, 62, 0
2, 11280, Note_on_c, 0, 69, 0
2, 11280, Note_on_c, 0, 54, 0
2, 11280, Note_on_c, 0, 86, 0
2, 11280, Note_on_c, 0, 81, 0
2, 11280, Note_on_c, 0, 67, 56
2, 11280, Note_on_c, 0, 71, 56
2, 11280, Note_on_c, 0, 74, 69
2, 11400, Note_on_c, 0, 74, 0
2, 11400, Note_on_c, 0, 71, 0
2, 11400, Note_on_c, 0, 73, 56
2, 11400, Note_on_c, 0, 76, 77
2, 11520, Note_on_c, 0, 76, 0
2, 11520, Note_on_c, 0, 73, 0
2, 11520, Note_on_c, 0, 67, 0
2, 11520, Note_on_c, 0, 66, 52
2, 11520, Note_on_c, 0, 74, 52
2, 11520, Note_on_c, 0, 78, 82
2, 11880, Note_on_c, 0, 78, 0
2, 11880, Note_on_c, 0, 67, 61
2, 11880, Note_on_c, 0, 73, 67
2, 11940, Note_on_c, 0, 73, 0
2, 11940, Note_on_c, 0, 67, 0
2, 11940, Note_on_c, 0, 76, 55
2, 12000, Note_on_c, 0, 76, 0
2, 12000, Note_on_c, 0, 66, 62
2, 12000, Note_on_c, 0, 74, 75
2, 12240, Note_on_c, 0, 74, 0
2, 12240, Note_on_c, 0, 66, 0
2, 12240, Note_on_c, 0, 74, 0
2, 12240, Note_on_c, 0, 66, 0
2, 12240, Note_on_c, 0, 71, 64
2, 12240, Note_on_c, 0, 63, 43
2, 12240, Note_on_c, 0, 66, 43
2, 12480, Note_on_c, 0, 66, 0
2, 12480, Note_on_c, 0, 63, 0
2, 12480, Note_on_c, 0, 71, 0
2, 12480, Note_on_c, 0, 57, 47
2, 12480, Note_on_c, 0, 64, 47
2, 12480, Note_on_c, 0, 67, 56
2, 12930, Note_on_c, 0, 81, 45
2, 12945, Note_on_c, 0, 85, 45
2, 12960, Note_on_c, 0, 93, 50
2, 13200, Note_on_c, 0, 93, 0
2, 13200, Note_on_c, 0, 64, 0
2, 13200, Note_on_c, 0, 67, 0
2, 13200, Note_on_c, 0, 57, 0
2, 13200, Note_on_c, 0, 85, 0
2, 13200, Note_on_c, 0, 81, 0
2, 13200, Note_on_c, 0, 64, 50
2, 13200, Note_on_c, 0, 67, 60
2, 13320, Note_on_c, 0, 67, 0
2, 13320, Note_on_c, 0, 64, 0
2, 13320, Note_on_c, 0, 69, 60
2, 13320, Note_on_c, 0, 66, 50
2, 13440, Note_on_c, 0, 66, 0
2, 13440, Note_on_c, 0, 69, 0
2, 13440, Note_on_c, 0, 67, 56
2, 13440, Note_on_c, 0, 71, 67
2, 13800, Note_on_c, 0, 71, 0
2, 13800, Note_on_c, 0, 67, 0
2, 13800, Note_on_c, 0, 73, 63
2, 13800, Note_on_c, 0, 69, 53
2, 13920, Note_on_c, 0, 69, 0
2, 13920, Note_on_c, 0, 73, 0
2, 13920, Note_on_c, 0, 76, 68
2, 13920, Note_on_c, 0, 73, 57
2, 14160, Note_on_c, 0, 73, 0
2, 14160, Note_on_c, 0, 76, 0
2, 14160, Note_on_c, 0, 74, 63
2, 14160, Note_on_c, 0, 71, 53
2, 14400, Note_on_c, 0, 71, 0
2, 14400, Note_on_c, 0, 74, 0
2, 14400, Note_on_c, 0, 74, 67
2, 14400, Note_on_c, 0, 71, 56
2, 14460, Note_on_c, 0, 74, 0
2, 14460, Note_on_c, 0, 76, 58
2, 14520, Note_on_c, 0, 76, 0
2, 14520, Note_on_c, 0, 74, 61
2, 14640, Note_on_c, 0, 74, 0
2, 14640, Note_on_c, 0, 71, 0
2, 14640, Note_on_c, 0, 73, 56
2, 14640, Note_on_c, 0, 69, 47
2, 14850, Note_on_c, 0, 81, 45
2, 14865, Note_on_c, 0, 85, 45
2, 14880, Note_on_c, 0, 93, 50
2, 15120, Note_on_c, 0, 93, 0
2, 15120, Note_on_c, 0, 81, 0
2, 15120, Note_on_c, 0, 73, 0
2, 15120, Note_on_c, 0, 69, 0
2, 15120, Note_on_c, 0, 85, 0
2, 15120, Note_on_c, 0, 73, 56
2, 15120, Note_on_c, 0, 76, 67
2, 15240, Note_on_c, 0, 76, 0
2, 15240, Note_on_c, 0, 73, 0
2, 15240, Note_on_c, 0, 67, 49
2, 15240, Note_on_c, 0, 71, 58
2, 15360, Note_on_c, 0, 71, 0
2, 15360, Note_on_c, 0, 67, 0
2, 15360, Note_on_c, 0, 74, 64
2, 15360, Note_on_c, 0, 71, 54
2, 15720, Note_on_c, 0, 71, 0
2, 15720, Note_on_c, 0, 74, 0
2, 15720, Note_on_c, 0, 69, 57
2, 15720, Note_on_c, 0, 66, 48
2, 15810, Note_on_c, 0, 66, 0
2, 15810, Note_on_c, 0, 69, 0
2, 15840, Note_on_c, 0, 73, 61
2, 15840, Note_on_c, 0, 69, 51
2, 16080, Note_on_c, 0, 69, 0
2, 16080, Note_on_c, 0, 73, 0
2, 16080, Note_on_c, 0, 67, 54
2, 16080, Note_on_c, 0, 64, 45
2, 16320, Note_on_c, 0, 64, 0
2, 16320, Note_on_c, 0, 67, 0
2, 16320, Note_on_c, 0, 65, 49
2, 16320, Note_on_c, 0, 71, 58
2, 16560, Note_on_c, 0, 71, 0
2, 16560, Note_on_c, 0, 65, 0
2, 16560, Note_on_c, 0, 66, 45
2, 16560, Note_on_c, 0, 69, 54
2, 16770, Note_on_c, 0, 81, 45
2, 16785, Note_on_c, 0, 86, 45
2, 16800, Note_on_c, 0, 93, 50
2, 17040, Note_on_c, 0, 93, 0
2, 17040, Note_on_c, 0, 81, 0
2, 17040, Note_on_c, 0, 66, 0
2, 17040, Note_on_c, 0, 69, 0
2, 17040, Note_on_c, 0, 86, 0
2, 17040, Note_on_c, 0, 66, 61
2, 17040, Note_on_c, 0, 62, 61
2, 17040, Note_on_c, 0, 74, 70
2, 17280, Note_on_c, 0, 74, 0
2, 17280, Note_on_c, 0, 62, 0
2, 17280, Note_on_c, 0, 66, 0
2, 17280, Note_on_c, 0, 66, 54
2, 17280, Note_on_c, 0, 62, 54
2, 17280, Note_on_c, 0, 74, 76
2, 17440, Note_on_c, 0, 74, 0
2, 17440, Note_on_c, 0, 73, 72
2, 17600, Note_on_c, 0, 73, 0
2, 17600, Note_on_c, 0, 71, 66
2, 17760, Note_on_c, 0, 71, 0
2, 17760, Note_on_c, 0, 62, 0
2, 17760, Note_on_c, 0, 66, 0
2, 17760, Note_on_c, 0, 67, 36
2, 17760, Note_on_c, 0, 62, 36
2, 17760, Note_on_c, 0, 73, 79
2, 17970, Note_on_c, 0, 83, 59
2, 18000, Note_on_c, 0, 73, 0
2, 18000, Note_on_c, 0, 95, 63
2, 18210, Note_on_c, 0, 62, 54
2, 18225, Note_on_c, 0, 66, 54
2, 18240, Note_on_c, 0, 95, 0
2, 18240, Note_on_c, 0, 67, 0
2, 18240, Note_on_c, 0, 83, 0
2, 18240, Note_on_c, 0, 62, 0
2, 18240, Note_on_c, 0, 74, 75
2, 18480, Note_on_c, 0, 74, 0
2, 18480, Note_on_c, 0, 66, 0
2, 18480, Note_on_c, 0, 66, 66
2, 18660, Note_on_c, 0, 67, 57
2, 18720, Note_on_c, 0, 67, 0
2, 18720, Note_on_c, 0, 66, 0
2, 18720, Note_on_c, 0, 62, 0
2, 18720, Note_on_c, 0, 62, 54
2, 18720, Note_on_c, 0, 66, 65
2, 18880, Note_on_c, 0, 66, 0
2, 18880, Note_on_c, 0, 65, 61
2, 19040, Note_on_c, 0, 65, 0
2, 19040, Note_on_c, 0, 66, 67
2, 19140, Note_on_c, 0, 66, 0
2, 19140, Note_on_c, 0, 55, 54
2, 19170, Note_on_c, 0, 62, 54
2, 19200, Note_on_c, 0, 62, 0
2, 19200, Note_on_c, 0, 67, 76
2, 19360, Note_on_c, 0, 67, 0
2, 19360, Note_on_c, 0, 71, 72
2, 19520, Note_on_c, 0, 71, 0
2, 19520, Note_on_c, 0, 74, 66
2, 19650, Note_on_c, 0, 62, 0
2, 19680, Note_on_c, 0, 74, 0
2, 19680, Note_on_c, 0, 55, 0
2, 19680, Note_on_c, 0, 73, 79
2, 19680, Note_on_c, 0, 67, 36
2, 19680, Note_on_c, 0, 62, 36
2, 19890, Note_on_c, 0, 83, 59
2, 19920, Note_on_c, 0, 62, 0
2, 19920, Note_on_c, 0, 73, 0
2, 19920, Note_on_c, 0, 67, 0
2, 19920, Note_on_c, 0, 95, 63
2, 20130, Note_on_c, 0, 62, 54
2, 20145, Note_on_c, 0, 66, 54
2, 20160, Note_on_c, 0, 95, 0
2, 20160, Note_on_c, 0, 83, 0
2, 20160, Note_on_c, 0, 74, 75
2, 20400, Note_on_c, 0, 66, 0
2, 20400, Note_on_c, 0, 71, 66
2, 20640, Note_on_c, 0, 71, 0
2, 20640, Note_on_c, 0, 62, 0
2, 20640, Note_on_c, 0, 70, 71
2, 20800, Note_on_c, 0, 70, 0
2, 20800, Note_on_c, 0, 69, 67
2, 20880, Note_on_c, 0, 74, 0
2, 20880, Note_on_c, 0, 78, 54
2, 20960, Note_on_c, 0, 69, 0
2, 20960, Note_on_c, 0, 68, 73
2, 21120, Note_on_c, 0, 68, 0
2, 21120, Note_on_c, 0, 78, 0
2, 21120, Note_on_c, 0, 69, 51
2, 21120, Note_on_c, 0, 78, 72
2, 21280, Note_on_c, 0, 78, 0
2, 21280, Note_on_c, 0, 69, 0
2, 21280, Note_on_c, 0, 68, 51
2, 21280, Note_on_c, 0, 76, 67
2, 21440, Note_on_c, 0, 76, 0
2, 21440, Note_on_c, 0, 68, 0
2, 21440, Note_on_c, 0, 67, 55
2, 21440, Note_on_c, 0, 73, 67
2, 21600, Note_on_c, 0, 73, 0
2, 21600, Note_on_c, 0, 67, 0
2, 21600, Note_on_c, 0, 74, 73
2, 21600, Note_on_c, 0, 66, 50
2, 21840, Note_on_c, 0, 66, 0
2, 21840, Note_on_c, 0, 74, 0
2, 21840, Note_on_c, 0, 65, 50
2, 21840, Note_on_c, 0, 71, 65
2, 22080, Note_on_c, 0, 71, 0
2, 22080, Note_on_c, 0, 65, 0
2, 22080, Note_on_c, 0, 64, 47
2, 22080, Note_on_c, 0, 76, 72
2, 22320, Note_on_c, 0, 76, 0
2, 22320, Note_on_c, 0, 73, 66
2, 22527, Note_on_c, 0, 64, 0
2, 22530, Note_on_c, 0, 64, 46
2, 22560, Note_on_c, 0, 73, 0
2, 22560, Note_on_c, 0, 69, 64
2, 22720, Note_on_c, 0, 69, 0
2, 22720, Note_on_c, 0, 71, 64
2, 22800, Note_on_c, 0, 64, 0
2, 22800, Note_on_c, 0, 63, 44
2, 22880, Note_on_c, 0, 71, 0
2, 22880, Note_on_c, 0, 73, 71
2, 23010, Note_on_c, 0, 63, 0
2, 23010, Note_on_c, 0, 62, 38
2, 23025, Note_on_c, 0, 69, 36
2, 23040, Note_on_c, 0, 73, 0
2, 23040, Note_on_c, 0, 76, 72
2, 23200, Note_on_c, 0, 76, 0
2, 23200, Note_on_c, 0, 74, 68
2, 23360, Note_on_c, 0, 74, 0
2, 23360, Note_on_c, 0, 73, 65
2, 23520, Note_on_c, 0, 73, 0
2, 23520, Note_on_c, 0, 69, 0
2, 23520, Note_on_c, 0, 62, 0
2, 23520, Note_on_c, 0, 62, 47
2, 23520, Note_on_c, 0, 68, 47
2, 23520, Note_on_c, 0, 73, 66
2, 23760, Note_on_c, 0, 73, 0
2, 23760, Note_on_c, 0, 71, 59
2, 24000, Note_on_c, 0, 71, 0
2, 24000, Note_on_c, 0, 68, 0
2, 24000, Note_on_c, 0, 62, 0
2, 24000, Note_on_c, 0, 69, 62
2, 24000, Note_on_c, 0, 61, 46
2, 24410, Note_on_c, 0, 61, 0
2, 24420, Note_on_c, 0, 61, 39
2, 24480, Note_on_c, 0, 61, 0
2, 24480, Note_on_c, 0, 59, 42
2, 24690, Note_on_c, 0, 59, 0
2, 24690, Note_on_c, 0, 57, 42
2, 24705, Note_on_c, 0, 61, 30
2, 24720, Note_on_c, 0, 67, 42
2, 24720, Note_on_c, 0, 81, 68
2, 24960, Note_on_c, 0, 81, 0
2, 24960, Note_on_c, 0, 61, 0
2, 24960, Note_on_c, 0, 69, 0
2, 24960, Note_on_c, 0, 57, 0
2, 24960, Note_on_c, 0, 67, 0
2, 24960, Note_on_c, 0, 66, 45
2, 24960, Note_on_c, 0, 78, 65
2, 24960, Note_on_c, 0, 74, 45
2, 25104, Note_on_c, 0, 74, 0
2, 25104, Note_on_c, 0, 78, 0
2, 25104, Note_on_c, 0, 66, 0
2, 25120, Note_on_c, 0, 66, 60
2, 25120, Note_on_c, 0, 74, 60
2, 25120, Note_on_c, 0, 78, 60
2, 25264, Note_on_c, 0, 78, 0
2, 25264, Note_on_c, 0, 74, 0
2, 25264, Note_on_c, 0, 66, 0
2, 25280, Note_on_c, 0, 66, 57
2, 25280, Note_on_c, 0, 74, 57
2, 25280, Note_on_c, 0, 78, 57
2, 25370, Note_on_c, 0, 78, 0
2, 25370, Note_on_c, 0, 74, 0
2, 25370, Note_on_c, 0, 66, 0
2, 25380, Note_on_c, 0, 74, 45
2, 25380, Note_on_c, 0, 66, 45
2, 25380, Note_on_c, 0, 78, 55
2, 25410, Note_on_c, 0, 78, 0
2, 25410, Note_on_c, 0, 66, 0
2, 25410, Note_on_c, 0, 74, 0
2, 25410, Note_on_c, 0, 81, 49
2, 25440, Note_on_c, 0, 81, 0
2, 25440, Note_on_c, 0, 67, 58
2, 25440, Note_on_c, 0, 79, 58
2, 25440, Note_on_c, 0, 74, 48
2, 25680, Note_on_c, 0, 79, 0
2, 25680, Note_on_c, 0, 67, 0
2, 25680, Note_on_c, 0, 66, 60
2, 25680, Note_on_c, 0, 78, 60
2, 25920, Note_on_c, 0, 78, 0
2, 25920, Note_on_c, 0, 66, 0
2, 25920, Note_on_c, 0, 66, 38
2, 25920, Note_on_c, 0, 81, 63
2, 26370, Note_on_c, 0, 81, 45
2, 26385, Note_on_c, 0, 86, 45
2, 26400, Note_on_c, 0, 93, 50
2, 26640, Note_on_c, 0, 93, 0
2, 26640, Note_on_c, 0, 66, 0
2, 26640, Note_on_c, 0, 81, 0
2, 26640, Note_on_c, 0, 74, 0
2, 26640, Note_on_c, 0, 86, 0
2, 26640, Note_on_c, 0, 81, 0
2, 26640, Note_on_c, 0, 74, 56
2, 26640, Note_on_c, 0, 86, 69
2, 26640, Note_on_c, 0, 78, 56
2, 26760, Note_on_c, 0, 78, 0
2, 26760, Note_on_c, 0, 86, 0
2, 26760, Note_on_c, 0, 74, 0
2, 26760, Note_on_c, 0, 76, 56
2, 26760, Note_on_c, 0, 81, 56
2, 26760, Note_on_c, 0, 88, 77
2, 26880, Note_on_c, 0, 88, 0
2, 26880, Note_on_c, 0, 81, 0
2, 26880, Note_on_c, 0, 76, 0
2, 26880, Note_on_c, 0, 78, 52
2, 26880, Note_on_c, 0, 86, 52
2, 26880, Note_on_c, 0, 90, 82
2, 27240, Note_on_c, 0, 90, 0
2, 27240, Note_on_c, 0, 73, 61
2, 27240, Note_on_c, 0, 85, 67
2, 27240, Note_on_c, 0, 81, 61
2, 27300, Note_on_c, 0, 81, 0
2, 27300, Note_on_c, 0, 73, 0
2, 27300, Note_on_c, 0, 85, 0
2, 27300, Note_on_c, 0, 88, 55
2, 27360, Note_on_c, 0, 88, 0
2, 27360, Note_on_c, 0, 74, 62
2, 27360, Note_on_c, 0, 86, 75
2, 27360, Note_on_c, 0, 78, 62
2, 27600, Note_on_c, 0, 78, 0
2, 27600, Note_on_c, 0, 74, 0
2, 27600, Note_on_c, 0, 78, 0
2, 27600, Note_on_c, 0, 86, 0
2, 27600, Note_on_c, 0, 86, 0
2, 27600, Note_on_c, 0, 71, 46
2, 27600, Note_on_c, 0, 78, 46
2, 27600, Note_on_c, 0, 83, 68
2, 27600, Note_on_c, 0, 72, 46
2, 27840, Note_on_c, 0, 72, 0
2, 27840, Note_on_c, 0, 71, 0
2, 27840, Note_on_c, 0, 78, 0
2, 27840, Note_on_c, 0, 83, 0
2, 27840, Note_on_c, 0, 67, 50
2, 27840, Note_on_c, 0, 73, 50
2, 27840, Note_on_c, 0, 79, 60
2, 28290, Note_on_c, 0, 81, 45
2, 28305, Note_on_c, 0, 85, 45
2, 28320, Note_on_c, 0, 93, 50
2, 28560, Note_on_c, 0, 93, 0
2, 28560, Note_on_c, 0, 73, 0
2, 28560, Note_on_c, 0, 79, 0
2, 28560, Note_on_c, 0, 67, 0
2, 28560, Note_on_c, 0, 85, 0
2, 28560, Note_on_c, 0, 81, 0
2, 28560, Note_on_c, 0, 67, 50
2, 28560, Note_on_c, 0, 79, 66
2, 28560, Note_on_c, 0, 76, 55
2, 28680, Note_on_c, 0, 76, 0
2, 28680, Note_on_c, 0, 79, 0
2, 28680, Note_on_c, 0, 67, 0
2, 28680, Note_on_c, 0, 70, 50
2, 28680, Note_on_c, 0, 82, 66
2, 28680, Note_on_c, 0, 78, 55
2, 28800, Note_on_c, 0, 78, 0
2, 28800, Note_on_c, 0, 82, 0
2, 28800, Note_on_c, 0, 70, 0
2, 28800, Note_on_c, 0, 71, 57
2, 28800, Note_on_c, 0, 79, 57
2, 28800, Note_on_c, 0, 83, 74
2, 29160, Note_on_c, 0, 83, 0
2, 29160, Note_on_c, 0, 79, 0
2, 29160, Note_on_c, 0, 71, 0
2, 29160, Note_on_c, 0, 73, 58
2, 29160, Note_on_c, 0, 85, 77
2, 29160, Note_on_c, 0, 82, 63
2, 29280, Note_on_c, 0, 82, 0
2, 29280, Note_on_c, 0, 85, 0
2, 29280, Note_on_c, 0, 73, 0
2, 29280, Note_on_c, 0, 76, 56
2, 29280, Note_on_c, 0, 88, 80
2, 29280, Note_on_c, 0, 85, 61
2, 29520, Note_on_c, 0, 85, 0
2, 29520, Note_on_c, 0, 88, 0
2, 29520, Note_on_c, 0, 76, 0
2, 29520, Note_on_c, 0, 74, 49
2, 29520, Note_on_c, 0, 83, 53
2, 29520, Note_on_c, 0, 86, 80
2, 29760, Note_on_c, 0, 86, 0
2, 29760, Note_on_c, 0, 83, 0
2, 29760, Note_on_c, 0, 74, 0
2, 29760, Note_on_c, 0, 82, 51
2, 29760, Note_on_c, 0, 74, 51
2, 29760, Note_on_c, 0, 86, 83
2, 29760, Note_on_c, 0, 78, 51
2, 30000, Note_on_c, 0, 86, 0
2, 30000, Note_on_c, 0, 74, 0
2, 30000, Note_on_c, 0, 73, 61
2, 30000, Note_on_c, 0, 85, 73
2, 30480, Note_on_c, 0, 85, 0
2, 30480, Note_on_c, 0, 78, 0
2, 30480, Note_on_c, 0, 82, 0
2, 30480, Note_on_c, 0, 73, 0
2, 30480, Note_on_c, 0, 70, 56
2, 30480, Note_on_c, 0, 76, 61
2, 30480, Note_on_c, 0, 82, 69
2, 30600, Note_on_c, 0, 82, 0
2, 30600, Note_on_c, 0, 76, 0
2, 30600, Note_on_c, 0, 70, 0
2, 30600, Note_on_c, 0, 71, 54
2, 30600, Note_on_c, 0, 74, 59
2, 30600, Note_on_c, 0, 83, 74
2, 30720, Note_on_c, 0, 83, 0
2, 30720, Note_on_c, 0, 74, 0
2, 30720, Note_on_c, 0, 71, 0
2, 30720, Note_on_c, 0, 73, 61
2, 30720, Note_on_c, 0, 79, 67
2, 30720, Note_on_c, 0, 85, 82
2, 31080, Note_on_c, 0, 85, 0
2, 31080, Note_on_c, 0, 79, 0
2, 31080, Note_on_c, 0, 73, 0
2, 31080, Note_on_c, 0, 74, 65
2, 31080, Note_on_c, 0, 86, 81
2, 31200, Note_on_c, 0, 86, 0
2, 31200, Note_on_c, 0, 74, 0
2, 31200, Note_on_c, 0, 78, 59
2, 31200, Note_on_c, 0, 86, 64
2, 31200, Note_on_c, 0, 90, 86
2, 31440, Note_on_c, 0, 90, 0
2, 31440, Note_on_c, 0, 86, 0
2, 31440, Note_on_c, 0, 78, 0
2, 31440, Note_on_c, 0, 76, 67
2, 31440, Note_on_c, 0, 85, 73
2, 31440, Note_on_c, 0, 88, 81
2, 31680, Note_on_c, 0, 88, 0
2, 31680, Note_on_c, 0, 85, 0
2, 31680, Note_on_c, 0, 76, 0
2, 31680, Note_on_c, 0, 73, 57
2, 31680, Note_on_c, 0, 77, 59
2, 31680, Note_on_c, 0, 85, 74
2, 31920, Note_on_c, 0, 85, 0
2, 31920, Note_on_c, 0, 77, 0
2, 31920, Note_on_c, 0, 73, 0
2, 31920, Note_on_c, 0, 74, 54
2, 31920, Note_on_c, 0, 86, 80
2, 31920, Note_on_c, 0, 78, 54
2, 32400, Note_on_c, 0, 78, 0
2, 32400, Note_on_c, 0, 86, 0
2, 32400, Note_on_c, 0, 74, 0
2, 32400, Note_on_c, 0, 62, 59
2, 32400, Note_on_c, 0, 71, 59
2, 32400, Note_on_c, 0, 74, 74
2, 32640, Note_on_c, 0, 74, 0
2, 32640, Note_on_c, 0, 71, 0
2, 32640, Note_on_c, 0, 62, 0
2, 32640, Note_on_c, 0, 64, 33
2, 32640, Note_on_c, 0, 71, 36
2, 32640, Note_on_c, 0, 73, 76
2, 32800, Note_on_c, 0, 73, 0
2, 32800, Note_on_c, 0, 76, 68
2, 32880, Note_on_c, 0, 71, 0
2, 32880, Note_on_c, 0, 64, 0
2, 32880, Note_on_c, 0, 70, 46
2, 32960, Note_on_c, 0, 76, 0
2, 32960, Note_on_c, 0, 78, 65
2, 33120, Note_on_c, 0, 78, 0
2, 33120, Note_on_c, 0, 70, 0
2, 33120, Note_on_c, 0, 69, 46
2, 33120, Note_on_c, 0, 76, 71
2, 33280, Note_on_c, 0, 69, 0
2, 33280, Note_on_c, 0, 68, 44
2, 33360, Note_on_c, 0, 76, 0
2, 33360, Note_on_c, 0, 71, 66
2, 33440, Note_on_c, 0, 68, 0
2, 33440, Note_on_c, 0, 67, 42
2, 33600, Note_on_c, 0, 67, 0
2, 33600, Note_on_c, 0, 71, 0
2, 33600, Note_on_c, 0, 74, 71
2, 33600, Note_on_c, 0, 66, 60
2, 33960, Note_on_c, 0, 66, 0
2, 33960, Note_on_c, 0, 62, 50
2, 34080, Note_on_c, 0, 71, 50
2, 34320, Note_on_c, 0, 74, 0
2, 34320, Note_on_c, 0, 74, 74
2, 34560, Note_on_c, 0, 74, 0
2, 34560, Note_on_c, 0, 71, 0
2, 34560, Note_on_c, 0, 62, 0
2, 34560, Note_on_c, 0, 71, 57
2, 34560, Note_on_c, 0, 64, 57
2, 34560, Note_on_c, 0, 73, 68
2, 34640, Note_on_c, 0, 73, 0
2, 34640, Note_on_c, 0, 76, 58
2, 34720, Note_on_c, 0, 76, 0
2, 34720, Note_on_c, 0, 78, 58
2, 34800, Note_on_c, 0, 78, 0
2, 34800, Note_on_c, 0, 64, 0
2, 34800, Note_on_c, 0, 71, 0
2, 34800, Note_on_c, 0, 76, 66
2, 34880, Note_on_c, 0, 76, 0
2, 34880, Note_on_c, 0, 83, 62
2, 34960, Note_on_c, 0, 83, 0
2, 34960, Note_on_c, 0, 90, 62
2, 35040, Note_on_c, 0, 90, 0
2, 35040, Note_on_c, 0, 88, 71
2, 35120, Note_on_c, 0, 88, 0
2, 35120, Note_on_c, 0, 85, 67
2, 35200, Note_on_c, 0, 85, 0
2, 35200, Note_on_c, 0, 83, 63
2, 35280, Note_on_c, 0, 83, 0
2, 35280, Note_on_c, 0, 78, 62
2, 35320, Note_on_c, 0, 78, 0
2, 35360, Note_on_c, 0, 76, 62
2, 35400, Note_on_c, 0, 76, 0
2, 35440, Note_on_c, 0, 71, 59
2, 35480, Note_on_c, 0, 71, 0
2, 35490, Note_on_c, 0, 66, 57
2, 35505, Note_on_c, 0, 73, 57
2, 35520, Note_on_c, 0, 74, 57
2, 35880, Note_on_c, 0, 62, 50
2, 36000, Note_on_c, 0, 71, 50
2, 36240, Note_on_c, 0, 74, 0
2, 36240, Note_on_c, 0, 66, 0
2, 36240, Note_on_c, 0, 73, 0
2, 36240, Note_on_c, 0, 74, 68
2, 36480, Note_on_c, 0, 74, 0
2, 36480, Note_on_c, 0, 62, 0
2, 36480, Note_on_c, 0, 71, 0
2, 36480, Note_on_c, 0, 71, 71
2, 36480, Note_on_c, 0, 66, 38
2, 36480, Note_on_c, 0, 62, 38
2, 36640, Note_on_c, 0, 71, 0
2, 36640, Note_on_c, 0, 73, 68
2, 36800, Note_on_c, 0, 73, 0
2, 36800, Note_on_c, 0, 74, 64
2, 36930, Note_on_c, 0, 74, 0
2, 36930, Note_on_c, 0, 64, 59
2, 36960, Note_on_c, 0, 62, 0
2, 36960, Note_on_c, 0, 66, 0
2, 36960, Note_on_c, 0, 71, 70
2, 37200, Note_on_c, 0, 71, 0
2, 37200, Note_on_c, 0, 64, 0
2, 37200, Note_on_c, 0, 62, 59
2, 37200, Note_on_c, 0, 66, 64
2, 37440, Note_on_c, 0, 62, 0
2, 37440, Note_on_c, 0, 70, 68
2, 37440, Note_on_c, 0, 63, 47
2, 37680, Note_on_c, 0, 63, 0
2, 37680, Note_on_c, 0, 61, 43
2, 37920, Note_on_c, 0, 61, 0
2, 37920, Note_on_c, 0, 60, 47
2, 38160, Note_on_c, 0, 60, 0
2, 38160, Note_on_c, 0, 70, 0
2, 38160, Note_on_c, 0, 66, 0
2, 38160, Note_on_c, 0, 66, 42
2, 38160, Note_on_c, 0, 61, 42
2, 38160, Note_on_c, 0, 70, 57
2, 38400, Note_on_c, 0, 70, 0
2, 38400, Note_on_c, 0, 61, 0
2, 38400, Note_on_c, 0, 66, 0
2, 38400, Note_on_c, 0, 64, 36
2, 38400, Note_on_c, 0, 68, 62
2, 38560, Note_on_c, 0, 68, 0
2, 38560, Note_on_c, 0, 70, 69
2, 38640, Note_on_c, 0, 64, 0
2, 38640, Note_on_c, 0, 62, 36
2, 38660, Note_on_c, 0, 73, 49
2, 38720, Note_on_c, 0, 73, 0
2, 38720, Note_on_c, 0, 70, 0
2, 38720, Note_on_c, 0, 71, 56
2, 38760, Note_on_c, 0, 62, 0
2, 38880, Note_on_c, 0, 71, 0
2, 38880, Note_on_c, 0, 65, 40
2, 38880, Note_on_c, 0, 61, 40
2, 38880, Note_on_c, 0, 70, 66
2, 39120, Note_on_c, 0, 70, 0
2, 39120, Note_on_c, 0, 61, 0
2, 39120, Note_on_c, 0, 59, 35
2, 39120, Note_on_c, 0, 68, 57
2, 39360, Note_on_c, 0, 68, 0
2, 39360, Note_on_c, 0, 59, 0
2, 39360, Note_on_c, 0, 65, 0
2, 39360, Note_on_c, 0, 58, 44
2, 39360, Note_on_c, 0, 73, 63
2, 39360, Note_on_c, 0, 66, 44
2, 40080, Note_on_c, 0, 66, 0
2, 40080, Note_on_c, 0, 73, 0
2, 40080, Note_on_c, 0, 58, 0
2, 40080, Note_on_c, 0, 61, 40
2, 40080, Note_on_c, 0, 66, 40
2, 40080, Note_on_c, 0, 70, 48
2, 40320, Note_on_c, 0, 70, 0
2, 40320, Note_on_c, 0, 66, 0
2, 40320, Note_on_c, 0, 61, 0
2, 40320, Note_on_c, 0, 61, 34
2, 40320, Note_on_c, 0, 71, 48
2, 40320, Note_on_c, 0, 65, 34
2, 40480, Note_on_c, 0, 71, 0
2, 40480, Note_on_c, 0, 73, 53
2, 40640, Note_on_c, 0, 73, 0
2, 40640, Note_on_c, 0, 77, 51
2, 40800, Note_on_c, 0, 77, 0
2, 40800, Note_on_c, 0, 65, 0
2, 40800, Note_on_c, 0, 61, 0
2, 40800, Note_on_c, 0, 65, 39
2, 40800, Note_on_c, 0, 71, 39
2, 40800, Note_on_c, 0, 75, 53
2, 40860, Note_on_c, 0, 75, 0
2, 40860, Note_on_c, 0, 77, 46
2, 40920, Note_on_c, 0, 77, 0
2, 40920, Note_on_c, 0, 75, 46
2, 41040, Note_on_c, 0, 75, 0
2, 41040, Note_on_c, 0, 71, 0
2, 41040, Note_on_c, 0, 65, 0
2, 41040, Note_on_c, 0, 61, 40
2, 41040, Note_on_c, 0, 65, 40
2, 41040, Note_on_c, 0, 71, 40
2, 41040, Note_on_c, 0, 73, 51
2, 41280, Note_on_c, 0, 73, 0
2, 41280, Note_on_c, 0, 61, 0
2, 41280, Note_on_c, 0, 65, 0
2, 41280, Note_on_c, 0, 71, 0
2, 41280, Note_on_c, 0, 58, 28
2, 41280, Note_on_c, 0, 61, 48
2, 41280, Note_on_c, 0, 70, 34
2, 41440, Note_on_c, 0, 61, 0
2, 41440, Note_on_c, 0, 63, 53
2, 41600, Note_on_c, 0, 63, 0
2, 41600, Note_on_c, 0, 65, 51
2, 41760, Note_on_c, 0, 65, 0
2, 41760, Note_on_c, 0, 63, 55
2, 41800, Note_on_c, 0, 63, 0
2, 41800, Note_on_c, 0, 65, 49
2, 41840, Note_on_c, 0, 65, 0
2, 41840, Note_on_c, 0, 63, 54
2, 41920, Note_on_c, 0, 63, 0
2, 41920, Note_on_c, 0, 61, 47
2, 42000, Note_on_c, 0, 70, 0
2, 42000, Note_on_c, 0, 58, 0
2, 42000, Note_on_c, 0, 70, 53
2, 42080, Note_on_c, 0, 61, 0
2, 42080, Note_on_c, 0, 66, 40
2, 42240, Note_on_c, 0, 66, 0
2, 42240, Note_on_c, 0, 70, 0
2, 42240, Note_on_c, 0, 71, 34
2, 42240, Note_on_c, 0, 66, 48
2, 42400, Note_on_c, 0, 66, 0
2, 42400, Note_on_c, 0, 65, 52
2, 42560, Note_on_c, 0, 65, 0
2, 42560, Note_on_c, 0, 63, 48
2, 42720, Note_on_c, 0, 63, 0
2, 42720, Note_on_c, 0, 71, 0
2, 42720, Note_on_c, 0, 71, 46
2, 42720, Note_on_c, 0, 65, 46
2, 42960, Note_on_c, 0, 65, 0
2, 42960, Note_on_c, 0, 61, 46
2, 43200, Note_on_c, 0, 61, 0
2, 43200, Note_on_c, 0, 71, 0
2, 43200, Note_on_c, 0, 61, 34
2, 43200, Note_on_c, 0, 66, 34
2, 43200, Note_on_c, 0, 70, 48
2, 43360, Note_on_c, 0, 70, 0
2, 43360, Note_on_c, 0, 71, 53
2, 43520, Note_on_c, 0, 71, 0
2, 43520, Note_on_c, 0, 72, 54
2, 43680, Note_on_c, 0, 72, 0
2, 43680, Note_on_c, 0, 66, 0
2, 43680, Note_on_c, 0, 61, 0
2, 43680, Note_on_c, 0, 66, 34
2, 43680, Note_on_c, 0, 73, 57
2, 43780, Note_on_c, 0, 77, 46
2, 43840, Note_on_c, 0, 77, 0
2, 43840, Note_on_c, 0, 73, 0
2, 43840, Note_on_c, 0, 75, 52
2, 44000, Note_on_c, 0, 75, 0
2, 44000, Note_on_c, 0, 73, 48
2, 44130, Note_on_c, 0, 73, 0
2, 44130, Note_on_c, 0, 63, 39
2, 44145, Note_on_c, 0, 65, 34
2, 44160, Note_on_c, 0, 66, 0
2, 44160, Note_on_c, 0, 71, 48
2, 44320, Note_on_c, 0, 71, 0
2, 44320, Note_on_c, 0, 73, 53
2, 44480, Note_on_c, 0, 73, 0
2, 44480, Note_on_c, 0, 77, 51
2, 44640, Note_on_c, 0, 77, 0
2, 44640, Note_on_c, 0, 65, 0
2, 44640, Note_on_c, 0, 63, 0
2, 44640, Note_on_c, 0, 66, 47
2, 44640, Note_on_c, 0, 75, 55
2, 44700, Note_on_c, 0, 75, 0
2, 44700, Note_on_c, 0, 77, 48
2, 44760, Note_on_c, 0, 77, 0
2, 44760, Note_on_c, 0, 66, 0
2, 44760, Note_on_c, 0, 75, 47
2, 44850, Note_on_c, 0, 75, 0
2, 44850, Note_on_c, 0, 59, 43
2, 44865, Note_on_c, 0, 65, 43
2, 44880, Note_on_c, 0, 73, 51
2, 45120, Note_on_c, 0, 73, 0
2, 45120, Note_on_c, 0, 65, 0
2, 45120, Note_on_c, 0, 59, 0
2, 45120, Note_on_c, 0, 66, 44
2, 45120, Note_on_c, 0, 70, 52
2, 45120, Note_on_c, 0, 58, 44
2, 45600, Note_on_c, 0, 58, 0
2, 45600, Note_on_c, 0, 70, 0
2, 45600, Note_on_c, 0, 66, 0
2, 45600, Note_on_c, 0, 66, 48
2, 45600, Note_on_c, 0, 60, 48
2, 45600, Note_on_c, 0, 69, 62
2, 45760, Note_on_c, 0, 69, 0
2, 45760, Note_on_c, 0, 74, 57
2, 45920, Note_on_c, 0, 74, 0
2, 45920, Note_on_c, 0, 71, 55
2, 46080, Note_on_c, 0, 71, 0
2, 46080, Note_on_c, 0, 60, 0
2, 46080, Note_on_c, 0, 66, 0
2, 46080, Note_on_c, 0, 69, 57
2, 46080, Note_on_c, 0, 62, 44
2, 46240, Note_on_c, 0, 69, 0
2, 46240, Note_on_c, 0, 67, 48
2, 46400, Note_on_c, 0, 67, 0
2, 46400, Note_on_c, 0, 74, 48
2, 46560, Note_on_c, 0, 74, 0
2, 46560, Note_on_c, 0, 62, 0
2, 46560, Note_on_c, 0, 65, 51
2, 46560, Note_on_c, 0, 59, 38
2, 46800, Note_on_c, 0, 65, 0
2, 46800, Note_on_c, 0, 73, 53
2, 47040, Note_on_c, 0, 73, 0
2, 47040, Note_on_c, 0, 59, 0
2, 47040, Note_on_c, 0, 66, 52
2, 47040, Note_on_c, 0, 58, 48
2, 47520, Note_on_c, 0, 58, 0
2, 47520, Note_on_c, 0, 66, 0
2, 47520, Note_on_c, 0, 64, 56
2, 47520, Note_on_c, 0, 57, 56
2, 47520, Note_on_c, 0, 66, 66
2, 47680, Note_on_c, 0, 66, 0
2, 47680, Note_on_c, 0, 69, 58
2, 47760, Note_on_c, 0, 64, 0
2, 47760, Note_on_c, 0, 63, 56
2, 47840, Note_on_c, 0, 69, 0
2, 47840, Note_on_c, 0, 67, 58
2, 48000, Note_on_c, 0, 67, 0
2, 48000, Note_on_c, 0, 63, 0
2, 48000, Note_on_c, 0, 57, 0
2, 48000, Note_on_c, 0, 57, 51
2, 48000, Note_on_c, 0, 66, 61
2, 48160, Note_on_c, 0, 66, 0
2, 48160, Note_on_c, 0, 64, 56
2, 48240, Note_on_c, 0, 57, 0
2, 48240, Note_on_c, 0, 56, 51
2, 48320, Note_on_c, 0, 64, 0
2, 48320, Note_on_c, 0, 71, 55
2, 48480, Note_on_c, 0, 71, 0
2, 48480, Note_on_c, 0, 56, 0
2, 48480, Note_on_c, 0, 55, 42
2, 48480, Note_on_c, 0, 64, 50
2, 48480, Note_on_c, 0, 61, 42
2, 48720, Note_on_c, 0, 64, 0
2, 48720, Note_on_c, 0, 65, 46
2, 48960, Note_on_c, 0, 65, 0
2, 48960, Note_on_c, 0, 61, 0
2, 48960, Note_on_c, 0, 55, 0
2, 48960, Note_on_c, 0, 62, 30
2, 48960, Note_on_c, 0, 54, 30
2, 48960, Note_on_c, 0, 66, 55
2, 49088, Note_on_c, 0, 66, 0
2, 49088, Note_on_c, 0, 54, 0
2, 49088, Note_on_c, 0, 62, 0
2, 49120, Note_on_c, 0, 55, 40
2, 49120, Note_on_c, 0, 62, 40
2, 49120, Note_on_c, 0, 66, 51
2, 49248, Note_on_c, 0, 66, 0
2, 49248, Note_on_c, 0, 62, 0
2, 49248, Note_on_c, 0, 55, 0
2, 49280, Note_on_c, 0, 56, 38
2, 49280, Note_on_c, 0, 62, 38
2, 49280, Note_on_c, 0, 66, 48
2, 49380, Note_on_c, 0, 66, 0
2, 49380, Note_on_c, 0, 62, 0
2, 49380, Note_on_c, 0, 56, 0
2, 49380, Note_on_c, 0, 62, 45
2, 49380, Note_on_c, 0, 66, 55
2, 49410, Note_on_c, 0, 66, 0
2, 49410, Note_on_c, 0, 69, 49
2, 49440, Note_on_c, 0, 69, 0
2, 49440, Note_on_c, 0, 62, 0
2, 49440, Note_on_c, 0, 67, 58
2, 49440, Note_on_c, 0, 62, 48
2, 49680, Note_on_c, 0, 67, 0
2, 49680, Note_on_c, 0, 66, 60
2, 49860, Note_on_c, 0, 66, 0
2, 49860, Note_on_c, 0, 54, 38
2, 49890, Note_on_c, 0, 62, 38
2, 49920, Note_on_c, 0, 62, 0
2, 49920, Note_on_c, 0, 69, 63
2, 50160, Note_on_c, 0, 74, 34
2, 50160, Note_on_c, 0, 78, 40
2, 50370, Note_on_c, 0, 69, 45
2, 50385, Note_on_c, 0, 74, 45
2, 50400, Note_on_c, 0, 78, 0
2, 50400, Note_on_c, 0, 74, 0
2, 50400, Note_on_c, 0, 81, 50
2, 50640, Note_on_c, 0, 81, 0
2, 50640, Note_on_c, 0, 74, 0
2, 50640, Note_on_c, 0, 69, 0
2, 50640, Note_on_c, 0, 54, 0
2, 50640, Note_on_c, 0, 62, 0
2, 50640, Note_on_c, 0, 69, 0
2, 50640, Note_on_c, 0, 66, 56
2, 50640, Note_on_c, 0, 74, 63
2, 50760, Note_on_c, 0, 74, 0
2, 50760, Note_on_c, 0, 66, 0
2, 50760, Note_on_c, 0, 76, 70
2, 50760, Note_on_c, 0, 69, 56
2, 50850, Note_on_c, 0, 69, 0
2, 50850, Note_on_c, 0, 76, 0
2, 50850, Note_on_c, 0, 74, 52
2, 50880, Note_on_c, 0, 78, 75
2, 51240, Note_on_c, 0, 78, 0
2, 51240, Note_on_c, 0, 69, 61
2, 51240, Note_on_c, 0, 73, 67
2, 51300, Note_on_c, 0, 73, 0
2, 51300, Note_on_c, 0, 69, 0
2, 51300, Note_on_c, 0, 76, 55
2, 51360, Note_on_c, 0, 76, 0
2, 51360, Note_on_c, 0, 74, 70
2, 51360, Note_on_c, 0, 69, 62
2, 51600, Note_on_c, 0, 69, 0
2, 51600, Note_on_c, 0, 74, 0
2, 51600, Note_on_c, 0, 74, 0
2, 51600, Note_on_c, 0, 60, 43
2, 51600, Note_on_c, 0, 65, 43
2, 51600, Note_on_c, 0, 71, 64
2, 51720, Note_on_c, 0, 65, 0
2, 51720, Note_on_c, 0, 66, 43
2, 51840, Note_on_c, 0, 66, 0
2, 51840, Note_on_c, 0, 71, 0
2, 51840, Note_on_c, 0, 60, 0
2, 51840, Note_on_c, 0, 64, 47
2, 51840, Note_on_c, 0, 67, 56
2, 51840, Note_on_c, 0, 57, 47
2, 52080, Note_on_c, 0, 73, 32
2, 52080, Note_on_c, 0, 76, 32
2, 52080, Note_on_c, 0, 83, 40
2, 52190, Note_on_c, 0, 67, 0
2, 52317, Note_on_c, 0, 64, 0
2, 52320, Note_on_c, 0, 76, 0
2, 52320, Note_on_c, 0, 73, 0
2, 52320, Note_on_c, 0, 83, 0
2, 52320, Note_on_c, 0, 73, 37
2, 52320, Note_on_c, 0, 71, 37
2, 52320, Note_on_c, 0, 79, 45
2, 52560, Note_on_c, 0, 79, 0
2, 52560, Note_on_c, 0, 57, 0
2, 52560, Note_on_c, 0, 62, 50
2, 52560, Note_on_c, 0, 67, 60
2, 52560, Note_on_c, 0, 64, 50
2, 52575, Note_on_c, 0, 73, 0
2, 52590, Note_on_c, 0, 71, 0
2, 52680, Note_on_c, 0, 67, 0
2, 52680, Note_on_c, 0, 64, 0
2, 52680, Note_on_c, 0, 66, 50
2, 52680, Note_on_c, 0, 69, 60
2, 52800, Note_on_c, 0, 69, 0
2, 52800, Note_on_c, 0, 66, 0
2, 52800, Note_on_c, 0, 62, 0
2, 52800, Note_on_c, 0, 67, 56
2, 52800, Note_on_c, 0, 71, 67
2, 53160, Note_on_c, 0, 71, 0
2, 53160, Note_on_c, 0, 67, 0
2, 53160, Note_on_c, 0, 69, 53
2, 53160, Note_on_c, 0, 73, 63
2, 53280, Note_on_c, 0, 73, 0
2, 53280, Note_on_c, 0, 69, 0
2, 53280, Note_on_c, 0, 76, 68
2, 53280, Note_on_c, 0, 73, 57
2, 53520, Note_on_c, 0, 73, 0
2, 53520, Note_on_c, 0, 76, 0
2, 53520, Note_on_c, 0, 74, 63
2, 53520, Note_on_c, 0, 71, 53
2, 53760, Note_on_c, 0, 71, 0
2, 53760, Note_on_c, 0, 74, 0
2, 53760, Note_on_c, 0, 71, 56
2, 53760, Note_on_c, 0, 74, 67
2, 53820, Note_on_c, 0, 74, 0
2, 53820, Note_on_c, 0, 76, 58
2, 53880, Note_on_c, 0, 76, 0
2, 53880, Note_on_c, 0, 74, 61
2, 54000, Note_on_c, 0, 74, 0
2, 54000, Note_on_c, 0, 71, 0
2, 54000, Note_on_c, 0, 69, 47
2, 54000, Note_on_c, 0, 73, 56
2, 54480, Note_on_c, 0, 73, 0
2, 54480, Note_on_c, 0, 69, 0
2, 54480, Note_on_c, 0, 73, 56
2, 54480, Note_on_c, 0, 76, 67
2, 54600, Note_on_c, 0, 76, 0
2, 54600, Note_on_c, 0, 73, 0
2, 54600, Note_on_c, 0, 67, 49
2, 54600, Note_on_c, 0, 71, 58
2, 54720, Note_on_c, 0, 71, 0
2, 54720, Note_on_c, 0, 67, 0
2, 54720, Note_on_c, 0, 71, 54
2, 54720, Note_on_c, 0, 74, 64
2, 55080, Note_on_c, 0, 74, 0
2, 55080, Note_on_c, 0, 71, 0
2, 55080, Note_on_c, 0, 66, 48
2, 55080, Note_on_c, 0, 69, 57
2, 55170, Note_on_c, 0, 69, 0
2, 55170, Note_on_c, 0, 66, 0
2, 55200, Note_on_c, 0, 69, 51
2, 55200, Note_on_c, 0, 73, 61
2, 55440, Note_on_c, 0, 73, 0
2, 55440, Note_on_c, 0, 69, 0
2, 55440, Note_on_c, 0, 67, 54
2, 55440, Note_on_c, 0, 64, 45
2, 55680, Note_on_c, 0, 64, 0
2, 55680, Note_on_c, 0, 67, 0
2, 55680, Note_on_c, 0, 61, 45
2, 55680, Note_on_c, 0, 65, 49
2, 55680, Note_on_c, 0, 71, 58
2, 55920, Note_on_c, 0, 71, 0
2, 55920, Note_on_c, 0, 65, 0
2, 55920, Note_on_c, 0, 61, 0
2, 55920, Note_on_c, 0, 62, 45
2, 55920, Note_on_c, 0, 69, 54
2, 55920, Note_on_c, 0, 66, 45
2, 56400, Note_on_c, 0, 66, 0
2, 56400, Note_on_c, 0, 69, 0
2, 56400, Note_on_c, 0, 62, 0
2, 56400, Note_on_c, 0, 74, 70
2, 56400, Note_on_c, 0, 62, 61
2, 56640, Note_on_c, 0, 62, 0
2, 56640, Note_on_c, 0, 74, 0
2, 56640, Note_on_c, 0, 74, 62
2, 56640, Note_on_c, 0, 64, 62
2, 56800, Note_on_c, 0, 64, 0
2, 56800, Note_on_c, 0, 65, 56
2, 56960, Note_on_c, 0, 65, 0
2, 56960, Note_on_c, 0, 69, 56
2, 57120, Note_on_c, 0, 69, 0
2, 57120, Note_on_c, 0, 74, 0
2, 57120, Note_on_c, 0, 74, 58
2, 57120, Note_on_c, 0, 67, 66
2, 57120, Note_on_c, 0, 72, 58
2, 57280, Note_on_c, 0, 74, 0
2, 57280, Note_on_c, 0, 74, 62
2, 57360, Note_on_c, 0, 72, 0
2, 57360, Note_on_c, 0, 70, 58
2, 57440, Note_on_c, 0, 74, 0
2, 57440, Note_on_c, 0, 76, 64
2, 57600, Note_on_c, 0, 76, 0
2, 57600, Note_on_c, 0, 70, 0
2, 57600, Note_on_c, 0, 67, 0
2, 57600, Note_on_c, 0, 79, 66
2, 57600, Note_on_c, 0, 69, 66
2, 57760, Note_on_c, 0, 79, 0
2, 57760, Note_on_c, 0, 77, 64
2, 57920, Note_on_c, 0, 77, 0
2, 57920, Note_on_c, 0, 72, 61
2, 58080, Note_on_c, 0, 72, 0
2, 58080, Note_on_c, 0, 69, 0
2, 58080, Note_on_c, 0, 69, 47
2, 58120, Note_on_c, 0, 69, 0
2, 58120, Note_on_c, 0, 70, 39
2, 58160, Note_on_c, 0, 70, 0
2, 58160, Note_on_c, 0, 69, 59
2, 58240, Note_on_c, 0, 69, 0
2, 58240, Note_on_c, 0, 67, 61
2, 58400, Note_on_c, 0, 67, 0
2, 58400, Note_on_c, 0, 65, 58
2, 58560, Note_on_c, 0, 65, 0
2, 58560, Note_on_c, 0, 70, 62
2, 58560, Note_on_c, 0, 61, 68
2, 58720, Note_on_c, 0, 61, 0
2, 58720, Note_on_c, 0, 62, 57
2, 58880, Note_on_c, 0, 62, 0
2, 58880, Note_on_c, 0, 66, 59
2, 59040, Note_on_c, 0, 66, 0
2, 59040, Note_on_c, 0, 69, 58
2, 59040, Note_on_c, 0, 64, 66
2, 59200, Note_on_c, 0, 70, 0
2, 59200, Note_on_c, 0, 70, 62
2, 59280, Note_on_c, 0, 69, 0
2, 59280, Note_on_c, 0, 67, 58
2, 59360, Note_on_c, 0, 70, 0
2, 59360, Note_on_c, 0, 73, 66
2, 59518, Note_on_c, 0, 76, 66
2, 59520, Note_on_c, 0, 73, 0
2, 59520, Note_on_c, 0, 64, 0
2, 59520, Note_on_c, 0, 67, 0
2, 59520, Note_on_c, 0, 66, 66
2, 59678, Note_on_c, 0, 76, 0
2, 59680, Note_on_c, 0, 74, 64
2, 59840, Note_on_c, 0, 74, 0
2, 59840, Note_on_c, 0, 65, 61
2, 60000, Note_on_c, 0, 65, 0
2, 60000, Note_on_c, 0, 66, 0
2, 60000, Note_on_c, 0, 62, 60
2, 60000, Note_on_c, 0, 66, 59
2, 60130, Note_on_c, 0, 66, 0
2, 60130, Note_on_c, 0, 69, 39
2, 60160, Note_on_c, 0, 69, 0
2, 60160, Note_on_c, 0, 67, 61
2, 60240, Note_on_c, 0, 62, 0
2, 60240, Note_on_c, 0, 64, 50
2, 60320, Note_on_c, 0, 67, 0
2, 60320, Note_on_c, 0, 66, 58
2, 60480, Note_on_c, 0, 66, 0
2, 60480, Note_on_c, 0, 64, 0
2, 60480, Note_on_c, 0, 63, 46
2, 60480, Note_on_c, 0, 57, 46
2, 60480, Note_on_c, 0, 66, 54
2, 60640, Note_on_c, 0, 66, 0
2, 60640, Note_on_c, 0, 67, 49
2, 60800, Note_on_c, 0, 67, 0
2, 60800, Note_on_c, 0, 69, 49
2, 60960, Note_on_c, 0, 69, 0
2, 60960, Note_on_c, 0, 67, 52
2, 61200, Note_on_c, 0, 67, 0
2, 61200, Note_on_c, 0, 66, 50
2, 61440, Note_on_c, 0, 66, 0
2, 61440, Note_on_c, 0, 57, 0
2, 61440, Note_on_c, 0, 63, 0
2, 61440, Note_on_c, 0, 62, 46
2, 61440, Note_on_c, 0, 57, 46
2, 61440, Note_on_c, 0, 66, 54
2, 61600, Note_on_c, 0, 66, 0
2, 61600, Note_on_c, 0, 71, 52
2, 61760, Note_on_c, 0, 71, 0
2, 61760, Note_on_c, 0, 66, 51
2, 61920, Note_on_c, 0, 66, 0
2, 61920, Note_on_c, 0, 57, 0
2, 61920, Note_on_c, 0, 62, 0
2, 61920, Note_on_c, 0, 62, 42
2, 61920, Note_on_c, 0, 56, 42
2, 61920, Note_on_c, 0, 64, 50
2, 62400, Note_on_c, 0, 56, 0
2, 62400, Note_on_c, 0, 62, 0
2, 62400, Note_on_c, 0, 55, 50
2, 62400, Note_on_c, 0, 59, 50
2, 62560, Note_on_c, 0, 59, 0
2, 62560, Note_on_c, 0, 55, 0
2, 62560, Note_on_c, 0, 64, 0
2, 62560, Note_on_c, 0, 58, 50
2, 62560, Note_on_c, 0, 61, 50
2, 62560, Note_on_c, 0, 67, 50
2, 62720, Note_on_c, 0, 67, 0
2, 62720, Note_on_c, 0, 61, 0
2, 62720, Note_on_c, 0, 58, 0
2, 62720, Note_on_c, 0, 57, 50
2, 62720, Note_on_c, 0, 61, 50
2, 62720, Note_on_c, 0, 66, 46
2, 62820, Note_on_c, 0, 66, 0
2, 62820, Note_on_c, 0, 61, 0
2, 62820, Note_on_c, 0, 57, 0
2, 62820, Note_on_c, 0, 57, 42
2, 62820, Note_on_c, 0, 61, 42
2, 62820, Note_on_c, 0, 66, 40
2, 62850, Note_on_c, 0, 66, 0
2, 62850, Note_on_c, 0, 67, 36
2, 62880, Note_on_c, 0, 67, 0
2, 62880, Note_on_c, 0, 66, 50
2, 63070, Note_on_c, 0, 66, 0
2, 63070, Note_on_c, 0, 61, 0
2, 63070, Note_on_c, 0, 57, 0
2, 63075, Note_on_c, 0, 55, 39
2, 63090, Note_on_c, 0, 61, 39
2, 63105, Note_on_c, 0, 64, 45
2, 63120, Note_on_c, 0, 69, 55
2, 63360, Note_on_c, 0, 69, 0
2, 63360, Note_on_c, 0, 55, 0
2, 63360, Note_on_c, 0, 61, 0
2, 63360, Note_on_c, 0, 64, 0
2, 63360, Note_on_c, 0, 54, 32
2, 63360, Note_on_c, 0, 62, 32
2, 63360, Note_on_c, 0, 69, 38
2, 63720, Note_on_c, 0, 69, 0
2, 63720, Note_on_c, 0, 69, 33
2, 63840, Note_on_c, 0, 62, 0
2, 63840, Note_on_c, 0, 54, 0
2, 63840, Note_on_c, 0, 74, 39
2, 63840, Note_on_c, 0, 81, 39
2, 64320, Note_on_c, 0, 81, 0
2, 64320, Note_on_c, 0, 74, 0
2, 64320, Note_on_c, 0, 69, 0
2, 64320, Note_on_c, 0, 54, 32
2, 64320, Note_on_c, 0, 62, 32
2, 64320, Note_on_c, 0, 66, 38
2, 64680, Note_on_c, 0, 66, 0
2, 64680, Note_on_c, 0, 69, 33
2, 64800, Note_on_c, 0, 62, 0
2, 64800, Note_on_c, 0, 54, 0
2, 64800, Note_on_c, 0, 74, 39
2, 64800, Note_on_c, 0, 81, 39
2, 65280, Note_on_c, 0, 81, 0
2, 65280, Note_on_c, 0, 74, 0
2, 65280, Note_on_c, 0, 69, 0
2, 65280, Note_on_c, 0, 54, 27
2, 65280, Note_on_c, 0, 62, 33
2, 65280, Note_on_c, 0, 66, 33
2, 65760, Note_on_c, 0, 66, 0
2, 65760, Note_on_c, 0, 62, 0
2, 65760, Note_on_c, 0, 54, 0
2, 65760, Note_on_c, 0, 66, 33
2, 65760, Note_on_c, 0, 74, 33
2, 65760, Note_on_c, 0, 78, 39
2, 66240, Note_on_c, 0, 78, 0
2, 66240, Note_on_c, 0, 74, 0
2, 66240, Note_on_c, 0, 66, 0
2, 66240, Note_on_c, 0, 86, 37
2, 66240, Note_on_c, 0, 78, 37
2, 66240, Note_on_c, 0, 74, 33
2, 67200, Note_on_c, 0, 74, 0
2, 67200, Note_on_c, 0, 78, 0
2, 67200, Note_on_c, 0, 86, 0
2, 67200, End_track
3, 0, Start_track
3, 0, Title_t, "Piano left"
3, 0, Program_c, 0, 0
3, 0, Control_c, 0, 7, 100
3, 0, Control_c, 0, 10, 64
3, 0, Control_c, 0, 64, 127
3, 0, Note_on_c, 0, 38, 53
3, 0, Note_on_c, 0, 50, 53
3, 720, Note_on_c, 0, 50, 0
3, 720, Note_on_c, 0, 38, 0
3, 720, Note_on_c, 0, 33, 51
3, 720, Note_on_c, 0, 45, 51
3, 960, Note_on_c, 0, 45, 0
3, 960, Note_on_c, 0, 33, 0
3, 960, Note_on_c, 0, 38, 54
3, 960, Note_on_c, 0, 50, 54
3, 971, Control_c, 0, 64, 0
3, 1123, Control_c, 0, 64, 127
3, 1680, Note_on_c, 0, 50, 0
3, 1680, Note_on_c, 0, 38, 0
3, 1680, Note_on_c, 0, 33, 49
3, 1680, Note_on_c, 0, 45, 49
3, 1920, Note_on_c, 0, 45, 0
3, 1920, Note_on_c, 0, 33, 0
3, 1920, Note_on_c, 0, 38, 44
3, 1920, Control_c, 0, 64, 0
3, 1920, Note_on_c, 0, 50, 44
3, 1977, Control_c, 0, 64, 127
3, 2340, Note_on_c, 0, 56, 41
3, 2400, Note_on_c, 0, 56, 0
3, 2400, Note_on_c, 0, 50, 0
3, 2400, Note_on_c, 0, 38, 0
3, 2400, Note_on_c, 0, 57, 45
3, 2416, Control_c, 0, 64, 0
3, 2640, Note_on_c, 0, 57, 0
3, 2640, Note_on_c, 0, 45, 45
3, 2672, Control_c, 0, 64, 127
3, 2880, Note_on_c, 0, 45, 0
3, 2880, Note_on_c, 0, 38, 39
3, 2880, Note_on_c, 0, 45, 39
3, 3300, Note_on_c, 0, 56, 46
3, 3360, Note_on_c, 0, 56, 0
3, 3360, Note_on_c, 0, 45, 0
3, 3360, Note_on_c, 0, 38, 0
3, 3360, Note_on_c, 0, 57, 50
3, 3371, Control_c, 0, 64, 0
3, 3417, Control_c, 0, 64, 127
3, 3600, Note_on_c, 0, 57, 0
3, 3600, Note_on_c, 0, 45, 46
3, 3840, Note_on_c, 0, 45, 0
3, 3840, Note_on_c, 0, 38, 42
3, 3840, Note_on_c, 0, 45, 49
3, 3850, Control_c, 0, 64, 0
3, 3915, Control_c, 0, 64, 127
3, 4260, Note_on_c, 0, 56, 41
3, 4320, Note_on_c, 0, 56, 0
3, 4320, Note_on_c, 0, 45, 0
3, 4320, Note_on_c, 0, 38, 0
3, 4320, Note_on_c, 0, 57, 46
3, 4332, Control_c, 0, 64, 0
3, 4366, Control_c, 0, 64, 127
3, 4560, Note_on_c, 0, 57, 0
3, 4560, Note_on_c, 0, 45, 38
3, 4560, Note_on_c, 0, 51, 42
3, 4800, Note_on_c, 0, 51, 0
3, 4800, Note_on_c, 0, 45, 0
3, 4800, Note_on_c, 0, 38, 35
3, 4800, Note_on_c, 0, 45, 35
3, 4800, Note_on_c, 0, 52, 42
3, 4807, Control_c, 0, 64, 0
3, 4952, Control_c, 0, 64, 127
3, 5220, Note_on_c, 0, 56, 43
3, 5280, Note_on_c, 0, 56, 0
3, 5280, Note_on_c, 0, 38, 0
3, 5280, Note_on_c, 0, 45, 0
3, 5280, Note_on_c, 0, 52, 0
3, 5280, Note_on_c, 0, 57, 47
3, 5289, Control_c, 0, 64, 0
3, 5349, Control_c, 0, 64, 127
3, 5520, Note_on_c, 0, 57, 0
3, 5520, Note_on_c, 0, 45, 45
3, 5760, Note_on_c, 0, 45, 0
3, 5760, Note_on_c, 0, 38, 38
3, 5760, Note_on_c, 0, 45, 38
3, 5760, Control_c, 0, 64, 0
3, 5760, Note_on_c, 0, 49, 45
3, 5843, Control_c, 0, 64, 127
3, 6180, Note_on_c, 0, 56, 46
3, 6240, Note_on_c, 0, 56, 0
3, 6240, Note_on_c, 0, 38, 0
3, 6240, Note_on_c, 0, 45, 0
3, 6240, Note_on_c, 0, 49, 0
3, 6240, Note_on_c, 0, 57, 52
3, 6480, Note_on_c, 0, 57, 0
3, 6480, Note_on_c, 0, 45, 45
3, 6492, Control_c, 0, 64, 0
3, 6543, Control_c, 0, 64, 127
3, 6720, Note_on_c, 0, 45, 0
3, 6720, Note_on_c, 0, 38, 38
3, 6720, Note_on_c, 0, 45, 38
3, 6720, Note_on_c, 0, 52, 45
3, 6969, Control_c, 0, 64, 0
3, 7023, Control_c, 0, 64, 127
3, 7140, Note_on_c, 0, 56, 46
3, 7200, Note_on_c, 0, 56, 0
3, 7200, Note_on_c, 0, 38, 0
3, 7200, Note_on_c, 0, 45, 0
3, 7200, Note_on_c, 0, 52, 0
3, 7200, Note_on_c, 0, 57, 52
3, 7440, Note_on_c, 0, 57, 0
3, 7440, Note_on_c, 0, 45, 45
3, 7680, Note_on_c, 0, 45, 0
3, 7680, Note_on_c, 0, 38, 38
3, 7680, Note_on_c, 0, 45, 38
3, 7680, Note_on_c, 0, 49, 45
3, 7690, Control_c, 0, 64, 0
3, 7729, Control_c, 0, 64, 127
3, 8100, Note_on_c, 0, 56, 46
3, 8160, Note_on_c, 0, 56, 0
3, 8160, Note_on_c, 0, 38, 0
3, 8160, Note_on_c, 0, 45, 0
3, 8160, Note_on_c, 0, 49, 0
3, 8160, Note_on_c, 0, 57, 52
3, 8171, Control_c, 0, 64, 0
3, 8240, Control_c, 0, 64, 127
3, 8400, Note_on_c, 0, 57, 0
3, 8400, Note_on_c, 0, 45, 45
3, 8640, Note_on_c, 0, 45, 0
3, 8640, Note_on_c, 0, 38, 41
3, 8640, Note_on_c, 0, 45, 41
3, 8640, Note_on_c, 0, 50, 49
3, 8647, Control_c, 0, 64, 0
3, 8700, Control_c, 0, 64, 127
3, 8946, Control_c, 0, 64, 0
3, 8977, Control_c, 0, 64, 127
3, 9060, Note_on_c, 0, 56, 45
3, 9120, Note_on_c, 0, 56, 0
3, 9120, Note_on_c, 0, 38, 0
3, 9120, Note_on_c, 0, 45, 0
3, 9120, Note_on_c, 0, 50, 0
3, 9120, Note_on_c, 0, 57, 48
3, 9251, Control_c, 0, 64, 0
3, 9280, Note_on_c, 0, 68, 48
3, 9280, Note_on_c, 0, 65, 48
3, 9386, Control_c, 0, 64, 127
3, 9440, Note_on_c, 0, 65, 0
3, 9440, Note_on_c, 0, 68, 0
3, 9440, Note_on_c, 0, 67, 48
3, 9440, Note_on_c, 0, 64, 48
3, 9600, Note_on_c, 0, 64, 0
3, 9600, Note_on_c, 0, 67, 0
3, 9600, Note_on_c, 0, 57, 0
3, 9600, Control_c, 0, 64, 0
3, 9600, Note_on_c, 0, 38, 44
3, 9600, Note_on_c, 0, 45, 44
3, 9657, Control_c, 0, 64, 127
3, 9960, Note_on_c, 0, 54, 41
3, 10000, Note_on_c, 0, 54, 0
3, 10000, Note_on_c, 0, 55, 41
3, 10040, Note_on_c, 0, 55, 0
3, 10040, Note_on_c, 0, 56, 41
3, 10080, Note_on_c, 0, 56, 0
3, 10080, Note_on_c, 0, 45, 0
3, 10080, Note_on_c, 0, 38, 0
3, 10080, Note_on_c, 0, 57, 45
3, 10096, Control_c, 0, 64, 0
3, 10320, Note_on_c, 0, 57, 0
3, 10320, Note_on_c, 0, 45, 45
3, 10352, Control_c, 0, 64, 127
3, 10560, Note_on_c, 0, 45, 0
3, 10560, Note_on_c, 0, 38, 39
3, 10560, Note_on_c, 0, 45, 39
3, 10920, Note_on_c, 0, 69, 37
3, 10980, Note_on_c, 0, 69, 0
3, 10980, Note_on_c, 0, 74, 35
3, 10995, Note_on_c, 0, 78, 39
3, 11040, Note_on_c, 0, 45, 0
3, 11040, Note_on_c, 0, 38, 0
3, 11273, Note_on_c, 0, 74, 0
3, 11280, Note_on_c, 0, 78, 0
3, 11280, Note_on_c, 0, 45, 46
3, 11290, Control_c, 0, 64, 0
3, 11337, Control_c, 0, 64, 127
3, 11520, Note_on_c, 0, 38, 42
3, 11530, Control_c, 0, 64, 0
3, 11595, Control_c, 0, 64, 127
3, 11760, Note_on_c, 0, 45, 0
3, 11760, Note_on_c, 0, 46, 49
3, 12000, Note_on_c, 0, 46, 0
3, 12000, Note_on_c, 0, 47, 46
3, 12011, Control_c, 0, 64, 0
3, 12046, Control_c, 0, 64, 127
3, 12240, Note_on_c, 0, 47, 0
3, 12240, Note_on_c, 0, 38, 0
3, 12240, Note_on_c, 0, 48, 42
3, 12240, Note_on_c, 0, 38, 38
3, 12249, Control_c, 0, 64, 0
3, 12300, Control_c, 0, 64, 127
3, 12480, Note_on_c, 0, 38, 0
3, 12480, Note_on_c, 0, 48, 0
3, 12480, Note_on_c, 0, 38, 35
3, 12480, Note_on_c, 0, 49, 42
3, 12487, Control_c, 0, 64, 0
3, 12632, Control_c, 0, 64, 127
3, 12840, Note_on_c, 0, 69, 37
3, 12900, Note_on_c, 0, 69, 0
3, 12900, Note_on_c, 0, 76, 35
3, 12915, Note_on_c, 0, 79, 39
3, 13200, Note_on_c, 0, 79, 0
3, 13200, Note_on_c, 0, 38, 0
3, 13200, Note_on_c, 0, 49, 0
3, 13200, Note_on_c, 0, 76, 0
3, 13200, Note_on_c, 0, 45, 45
3, 13440, Note_on_c, 0, 45, 0
3, 13440, Note_on_c, 0, 49, 45
3, 13440, Note_on_c, 0, 45, 38
3, 13440, Note_on_c, 0, 38, 38
3, 13440, Control_c, 0, 64, 0
3, 13523, Control_c, 0, 64, 127
3, 13800, Note_on_c, 0, 54, 41
3, 13840, Note_on_c, 0, 54, 0
3, 13840, Note_on_c, 0, 55, 41
3, 13880, Note_on_c, 0, 55, 0
3, 13880, Note_on_c, 0, 56, 41
3, 13920, Note_on_c, 0, 56, 0
3, 13920, Note_on_c, 0, 49, 0
3, 13920, Note_on_c, 0, 45, 0
3, 13920, Note_on_c, 0, 38, 0
3, 13920, Note_on_c, 0, 57, 52
3, 13928, Control_c, 0, 64, 0
3, 13966, Control_c, 0, 64, 127
3, 14160, Note_on_c, 0, 57, 0
3, 14160, Note_on_c, 0, 45, 45
3, 14172, Control_c, 0, 64, 0
3, 14223, Control_c, 0, 64, 127
3, 14400, Note_on_c, 0, 45, 0
3, 14400, Note_on_c, 0, 38, 38
3, 14400, Note_on_c, 0, 52, 45
3, 14400, Note_on_c, 0, 45, 38
3, 14649, Control_c, 0, 64, 0
3, 14703, Control_c, 0, 64, 127
3, 14760, Note_on_c, 0, 69, 37
3, 14820, Note_on_c, 0, 69, 0
3, 14820, Note_on_c, 0, 76, 35
3, 14835, Note_on_c, 0, 79, 39
3, 15117, Note_on_c, 0, 76, 0
3, 15120, Note_on_c, 0, 38, 0
3, 15120, Note_on_c, 0, 45, 0
3, 15120, Note_on_c, 0, 52, 0
3, 15120, Note_on_c, 0, 79, 0
3, 15120, Note_on_c, 0, 45, 45
3, 15320, Control_c, 0, 64, 0
3, 15360, Note_on_c, 0, 45, 0
3, 15360, Note_on_c, 0, 49, 45
3, 15360, Note_on_c, 0, 38, 38
3, 15360, Note_on_c, 0, 45, 38
3, 15409, Control_c, 0, 64, 127
3, 15720, Note_on_c, 0, 54, 41
3, 15760, Note_on_c, 0, 54, 0
3, 15760, Note_on_c, 0, 55, 41
3, 15800, Note_on_c, 0, 55, 0
3, 15800, Note_on_c, 0, 56, 41
3, 15840, Note_on_c, 0, 56, 0
3, 15840, Note_on_c, 0, 49, 0
3, 15840, Note_on_c, 0, 38, 0
3, 15840, Note_on_c, 0, 45, 0
3, 15840, Note_on_c, 0, 57, 52
3, 15851, Control_c, 0, 64, 0
3, 15920, Control_c, 0, 64, 127
3, 16080, Note_on_c, 0, 57, 0
3, 16080, Note_on_c, 0, 45, 45
3, 16320, Note_on_c, 0, 45, 0
3, 16320, Note_on_c, 0, 38, 41
3, 16320, Note_on_c, 0, 45, 41
3, 16320, Note_on_c, 0, 50, 49
3, 16327, Control_c, 0, 64, 0
3, 16380, Control_c, 0, 64, 127
3, 16575, Control_c, 0, 64, 0
3, 16657, Control_c, 0, 64, 127
3, 16680, Note_on_c, 0, 69, 37
3, 16740, Note_on_c, 0, 69, 0
3, 16740, Note_on_c, 0, 74, 35
3, 16755, Note_on_c, 0, 78, 39
3, 17036, Note_on_c, 0, 74, 0
3, 17040, Note_on_c, 0, 38, 0
3, 17040, Note_on_c, 0, 50, 0
3, 17040, Note_on_c, 0, 45, 0
3, 17040, Note_on_c, 0, 78, 0
3, 17040, Note_on_c, 0, 46, 45
3, 17040, Note_on_c, 0, 38, 37
3, 17056, Control_c, 0, 64, 0
3, 17100, Control_c, 0, 64, 127
3, 17280, Note_on_c, 0, 38, 0
3, 17280, Note_on_c, 0, 46, 0
3, 17280, Note_on_c, 0, 47, 52
3, 17280, Note_on_c, 0, 35, 52
3, 17289, Control_c, 0, 64, 0
3, 17333, Control_c, 0, 64, 127
3, 17640, Note_on_c, 0, 35, 0
3, 17640, Note_on_c, 0, 47, 0
3, 17640, Note_on_c, 0, 47, 31
3, 17760, Note_on_c, 0, 52, 31
3, 17760, Note_on_c, 0, 58, 31
3, 17770, Control_c, 0, 64, 0
3, 17841, Control_c, 0, 64, 127
3, 18000, Note_on_c, 0, 58, 0
3, 18000, Note_on_c, 0, 52, 0
3, 18000, Note_on_c, 0, 47, 0
3, 18000, Note_on_c, 0, 64, 52
3, 18000, Note_on_c, 0, 67, 52
3, 18000, Note_on_c, 0, 71, 61
3, 18000, Note_on_c, 0, 59, 31
3, 18015, Control_c, 0, 64, 0
3, 18071, Control_c, 0, 64, 127
3, 18240, Note_on_c, 0, 59, 0
3, 18240, Note_on_c, 0, 64, 0
3, 18240, Note_on_c, 0, 67, 0
3, 18240, Note_on_c, 0, 71, 0
3, 18240, Note_on_c, 0, 35, 48
3, 18240, Note_on_c, 0, 47, 48
3, 18254, Control_c, 0, 64, 0
3, 18297, Control_c, 0, 64, 127
3, 18400, Note_on_c, 0, 47, 0
3, 18400, Note_on_c, 0, 35, 0
3, 18400, Note_on_c, 0, 59, 52
3, 18560, Note_on_c, 0, 59, 0
3, 18560, Note_on_c, 0, 58, 52
3, 18720, Note_on_c, 0, 58, 0
3, 18720, Note_on_c, 0, 57, 45
3, 18726, Control_c, 0, 64, 0
3, 18754, Control_c, 0, 64, 127
3, 18960, Note_on_c, 0, 57, 0
3, 18960, Note_on_c, 0, 56, 45
3, 18970, Control_c, 0, 64, 0
3, 18999, Control_c, 0, 64, 127
3, 19140, Note_on_c, 0, 56, 0
3, 19150, Control_c, 0, 64, 0
3, 19200, Note_on_c, 0, 47, 52
3, 19200, Note_on_c, 0, 35, 52
3, 19253, Control_c, 0, 64, 127
3, 19560, Note_on_c, 0, 35, 0
3, 19560, Note_on_c, 0, 47, 0
3, 19560, Note_on_c, 0, 47, 31
3, 19680, Note_on_c, 0, 53, 31
3, 19680, Note_on_c, 0, 59, 31
3, 19690, Control_c, 0, 64, 0
3, 19761, Control_c, 0, 64, 127
3, 19920, Note_on_c, 0, 59, 0
3, 19920, Note_on_c, 0, 53, 0
3, 19920, Note_on_c, 0, 47, 0
3, 19920, Note_on_c, 0, 61, 52
3, 19920, Note_on_c, 0, 71, 60
3, 19920, Note_on_c, 0, 67, 52
3, 19935, Control_c, 0, 64, 0
3, 19991, Control_c, 0, 64, 127
3, 20160, Note_on_c, 0, 67, 0
3, 20160, Note_on_c, 0, 71, 0
3, 20160, Note_on_c, 0, 61, 0
3, 20160, Note_on_c, 0, 47, 48
3, 20174, Control_c, 0, 64, 0
3, 20217, Control_c, 0, 64, 127
3, 20320, Note_on_c, 0, 47, 0
3, 20320, Note_on_c, 0, 53, 48
3, 20480, Note_on_c, 0, 53, 0
3, 20480, Note_on_c, 0, 54, 48
3, 20610, Note_on_c, 0, 54, 0
3, 20610, Note_on_c, 0, 47, 41
3, 20640, Note_on_c, 0, 62, 49
3, 20646, Control_c, 0, 64, 0
3, 20674, Control_c, 0, 64, 127
3, 20880, Note_on_c, 0, 47, 0
3, 20880, Note_on_c, 0, 40, 41
3, 20893, Control_c, 0, 64, 0
3, 20966, Control_c, 0, 64, 127
3, 21090, Note_on_c, 0, 40, 0
3, 21090, Note_on_c, 0, 62, 0
3, 21090, Note_on_c, 0, 45, 47
3, 21120, Note_on_c, 0, 61, 56
3, 21130, Control_c, 0, 64, 0
3, 21159, Control_c, 0, 64, 127
3, 21320, Note_on_c, 0, 45, 0
3, 21360, Note_on_c, 0, 61, 0
3, 21360, Note_on_c, 0, 46, 42
3, 21360, Note_on_c, 0, 52, 50
3, 21374, Control_c, 0, 64, 0
3, 21434, Control_c, 0, 64, 127
3, 21600, Note_on_c, 0, 52, 0
3, 21600, Note_on_c, 0, 46, 0
3, 21600, Note_on_c, 0, 47, 44
3, 21600, Note_on_c, 0, 57, 52
3, 21619, Control_c, 0, 64, 0
3, 21674, Control_c, 0, 64, 127
3, 21840, Note_on_c, 0, 57, 0
3, 21840, Note_on_c, 0, 47, 0
3, 21840, Note_on_c, 0, 50, 39
3, 21840, Note_on_c, 0, 56, 47
3, 21855, Control_c, 0, 64, 0
3, 21907, Control_c, 0, 64, 127
3, 22080, Note_on_c, 0, 50, 0
3, 22080, Note_on_c, 0, 49, 50
3, 22091, Control_c, 0, 64, 0
3, 22119, Control_c, 0, 64, 127
3, 22320, Note_on_c, 0, 56, 0
3, 22320, Note_on_c, 0, 57, 52
3, 22335, Control_c, 0, 64, 0
3, 22391, Control_c, 0, 64, 127
3, 22560, Note_on_c, 0, 57, 0
3, 22560, Note_on_c, 0, 49, 0
3, 22560, Note_on_c, 0, 54, 48
3, 22571, Control_c, 0, 64, 0
3, 22610, Control_c, 0, 64, 127
3, 22800, Note_on_c, 0, 81, 53
3, 22815, Control_c, 0, 64, 0
3, 22864, Control_c, 0, 64, 127
3, 23040, Note_on_c, 0, 81, 0
3, 23040, Note_on_c, 0, 54, 0
3, 23040, Control_c, 0, 64, 0
3, 23040, Note_on_c, 0, 47, 36
3, 23040, Note_on_c, 0, 53, 36
3, 23107, Control_c, 0, 64, 127
3, 23280, Note_on_c, 0, 81, 53
3, 23520, Note_on_c, 0, 81, 0
3, 23520, Note_on_c, 0, 53, 0
3, 23520, Note_on_c, 0, 47, 0
3, 23520, Note_on_c, 0, 76, 66
3, 23529, Control_c, 0, 64, 0
3, 23605, Control_c, 0, 64, 127
3, 23680, Note_on_c, 0, 52, 42
3, 23840, Note_on_c, 0, 52, 0
3, 23840, Note_on_c, 0, 40, 49
3, 24000, Note_on_c, 0, 40, 0
3, 24000, Note_on_c, 0, 76, 0
3, 24000, Note_on_c, 0, 45, 47
3, 24010, Control_c, 0, 64, 0
3, 24060, Control_c, 0, 64, 127
3, 24160, Note_on_c, 0, 56, 49
3, 24320, Note_on_c, 0, 56, 0
3, 24320, Note_on_c, 0, 57, 47
3, 24480, Note_on_c, 0, 57, 0
3, 24480, Note_on_c, 0, 55, 42
3, 24496, Control_c, 0, 64, 0
3, 24554, Control_c, 0, 64, 127
3, 24720, Note_on_c, 0, 55, 0
3, 24720, Note_on_c, 0, 45, 0
3, 24736, Control_c, 0, 64, 0
3, 24823, Control_c, 0, 64, 127
3, 24960, Control_c, 0, 64, 0
3, 24960, Note_on_c, 0, 38, 44
3, 24960, Note_on_c, 0, 45, 44
3, 25003, Control_c, 0, 64, 127
3, 25320, Note_on_c, 0, 45, 41
3, 25360, Note_on_c, 0, 45, 0
3, 25360, Note_on_c, 0, 50, 41
3, 25400, Note_on_c, 0, 50, 0
3, 25400, Note_on_c, 0, 57, 41
3, 25440, Note_on_c, 0, 57, 0
3, 25440, Note_on_c, 0, 45, 0
3, 25440, Note_on_c, 0, 38, 0
3, 25440, Note_on_c, 0, 62, 41
3, 25440, Note_on_c, 0, 69, 45
3, 25680, Note_on_c, 0, 69, 0
3, 25680, Note_on_c, 0, 62, 0
3, 25680, Note_on_c, 0, 57, 45
3, 25760, Note_on_c, 0, 50, 45
3, 25840, Note_on_c, 0, 50, 0
3, 25840, Note_on_c, 0, 45, 45
3, 25890, Note_on_c, 0, 45, 0
3, 25890, Note_on_c, 0, 57, 0
3, 25890, Note_on_c, 0, 38, 39
3, 25905, Note_on_c, 0, 45, 39
3, 25920, Note_on_c, 0, 54, 39
3, 25931, Control_c, 0, 64, 0
3, 26000, Control_c, 0, 64, 127
3, 26280, Note_on_c, 0, 69, 37
3, 26340, Note_on_c, 0, 69, 0
3, 26340, Note_on_c, 0, 74, 35
3, 26355, Note_on_c, 0, 78, 39
3, 26400, Note_on_c, 0, 38, 0
3, 26400, Note_on_c, 0, 54, 0
3, 26400, Note_on_c, 0, 45, 0
3, 26633, Note_on_c, 0, 74, 0
3, 26640, Note_on_c, 0, 78, 0
3, 26640, Note_on_c, 0, 57, 50
3, 26720, Note_on_c, 0, 57, 0
3, 26720, Note_on_c, 0, 50, 50
3, 26800, Note_on_c, 0, 50, 0
3, 26800, Note_on_c, 0, 45, 50
3, 26880, Note_on_c, 0, 38, 42
3, 26890, Control_c, 0, 64, 0
3, 26937, Control_c, 0, 64, 127
3, 27240, Note_on_c, 0, 45, 41
3, 27280, Note_on_c, 0, 45, 0
3, 27280, Note_on_c, 0, 50, 41
3, 27320, Note_on_c, 0, 50, 0
3, 27320, Note_on_c, 0, 57, 41
3, 27360, Note_on_c, 0, 57, 0
3, 27360, Note_on_c, 0, 38, 0
3, 27360, Note_on_c, 0, 45, 0
3, 27360, Note_on_c, 0, 62, 38
3, 27360, Note_on_c, 0, 69, 46
3, 27600, Note_on_c, 0, 69, 0
3, 27600, Note_on_c, 0, 62, 0
3, 27600, Note_on_c, 0, 57, 53
3, 27613, Control_c, 0, 64, 0
3, 27680, Note_on_c, 0, 51, 53
3, 27692, Control_c, 0, 64, 127
3, 27760, Note_on_c, 0, 51, 0
3, 27760, Note_on_c, 0, 45, 53
3, 27810, Note_on_c, 0, 45, 0
3, 27810, Note_on_c, 0, 57, 0
3, 27810, Note_on_c, 0, 38, 41
3, 27825, Note_on_c, 0, 45, 41
3, 27840, Note_on_c, 0, 52, 49
3, 27861, Control_c, 0, 64, 0
3, 27920, Control_c, 0, 64, 127
3, 28200, Note_on_c, 0, 69, 37
3, 28260, Note_on_c, 0, 69, 0
3, 28260, Note_on_c, 0, 76, 35
3, 28275, Note_on_c, 0, 79, 39
3, 28320, Note_on_c, 0, 38, 0
3, 28320, Note_on_c, 0, 52, 0
3, 28320, Note_on_c, 0, 45, 0
3, 28556, Note_on_c, 0, 76, 0
3, 28560, Note_on_c, 0, 79, 0
3, 28560, Note_on_c, 0, 62, 47
3, 28575, Control_c, 0, 64, 0
3, 28640, Note_on_c, 0, 52, 47
3, 28660, Control_c, 0, 64, 127
3, 28720, Note_on_c, 0, 52, 0
3, 28720, Note_on_c, 0, 47, 47
3, 28800, Note_on_c, 0, 47, 0
3, 28800, Note_on_c, 0, 62, 0
3, 28800, Note_on_c, 0, 38, 51
3, 28800, Control_c, 0, 64, 0
3, 28880, Note_on_c, 0, 47, 54
3, 28880, Control_c, 0, 64, 127
3, 28960, Note_on_c, 0, 47, 0
3, 28960, Note_on_c, 0, 52, 56
3, 29040, Note_on_c, 0, 52, 0
3, 29040, Note_on_c, 0, 38, 0
3, 29040, Note_on_c, 0, 61, 59
3, 29280, Note_on_c, 0, 61, 0
3, 29280, Note_on_c, 0, 59, 58
3, 29292, Control_c, 0, 64, 0
3, 29326, Control_c, 0, 64, 127
3, 29360, Note_on_c, 0, 55, 52
3, 29440, Note_on_c, 0, 55, 0
3, 29440, Note_on_c, 0, 47, 52
3, 29520, Note_on_c, 0, 47, 0
3, 29520, Note_on_c, 0, 59, 0
3, 29520, Note_on_c, 0, 38, 49
3, 29520, Note_on_c, 0, 26, 40
3, 29531, Control_c, 0, 64, 0
3, 29577, Control_c, 0, 64, 127
3, 29640, Note_on_c, 0, 26, 0
3, 29640, Note_on_c, 0, 38, 0
3, 29640, Note_on_c, 0, 40, 51
3, 29640, Note_on_c, 0, 28, 43
3, 29760, Note_on_c, 0, 28, 0
3, 29760, Note_on_c, 0, 40, 0
3, 29760, Note_on_c, 0, 42, 57
3, 29760, Note_on_c, 0, 30, 48
3, 29777, Control_c, 0, 64, 0
3, 29846, Control_c, 0, 64, 127
3, 30000, Note_on_c, 0, 30, 0
3, 30000, Note_on_c, 0, 42, 0
3, 30000, Note_on_c, 0, 58, 46
3, 30080, Note_on_c, 0, 52, 51
3, 30160, Note_on_c, 0, 52, 0
3, 30160, Note_on_c, 0, 54, 59
3, 30240, Note_on_c, 0, 54, 0
3, 30240, Note_on_c, 0, 66, 60
3, 30380, Note_on_c, 0, 58, 0
3, 30480, Note_on_c, 0, 66, 0
3, 30480, Note_on_c, 0, 67, 60
3, 30560, Note_on_c, 0, 67, 0
3, 30560, Note_on_c, 0, 66, 49
3, 30640, Note_on_c, 0, 66, 0
3, 30640, Note_on_c, 0, 65, 50
3, 30720, Note_on_c, 0, 65, 0
3, 30720, Control_c, 0, 64, 0
3, 30720, Note_on_c, 0, 64, 56
3, 30800, Note_on_c, 0, 59, 51
3, 30823, Control_c, 0, 64, 127
3, 30880, Note_on_c, 0, 59, 0
3, 30880, Note_on_c, 0, 52, 51
3, 30960, Note_on_c, 0, 52, 0
3, 30960, Note_on_c, 0, 64, 0
3, 30960, Note_on_c, 0, 42, 58
3, 31200, Note_on_c, 0, 42, 0
3, 31200, Note_on_c, 0, 30, 58
3, 31218, Control_c, 0, 64, 0
3, 31285, Control_c, 0, 64, 127
3, 31320, Note_on_c, 0, 42, 47
3, 31440, Note_on_c, 0, 42, 0
3, 31440, Note_on_c, 0, 30, 0
3, 31440, Note_on_c, 0, 44, 47
3, 31440, Note_on_c, 0, 32, 39
3, 31451, Control_c, 0, 64, 0
3, 31500, Control_c, 0, 64, 127
3, 31560, Note_on_c, 0, 32, 0
3, 31560, Note_on_c, 0, 44, 0
3, 31560, Note_on_c, 0, 46, 50
3, 31560, Note_on_c, 0, 34, 42
3, 31680, Note_on_c, 0, 34, 0
3, 31680, Note_on_c, 0, 46, 0
3, 31680, Note_on_c, 0, 47, 54
3, 31680, Note_on_c, 0, 35, 45
3, 31684, Control_c, 0, 64, 0
3, 31768, Control_c, 0, 64, 127
3, 31936, Control_c, 0, 64, 0
3, 31984, Control_c, 0, 64, 127
3, 32040, Note_on_c, 0, 54, 46
3, 32160, Note_on_c, 0, 54, 0
3, 32160, Note_on_c, 0, 59, 34
3, 32160, Note_on_c, 0, 66, 50
3, 32400, Note_on_c, 0, 66, 0
3, 32400, Note_on_c, 0, 47, 0
3, 32400, Note_on_c, 0, 35, 0
3, 32400, Note_on_c, 0, 59, 0
3, 32400, Note_on_c, 0, 54, 46
3, 32640, Note_on_c, 0, 54, 0
3, 32640, Note_on_c, 0, 47, 43
3, 32640, Control_c, 0, 64, 0
3, 32640, Note_on_c, 0, 55, 51
3, 32711, Control_c, 0, 64, 127
3, 33000, Note_on_c, 0, 55, 0
3, 33000, Note_on_c, 0, 47, 0
3, 33000, Note_on_c, 0, 55, 45
3, 33120, Note_on_c, 0, 55, 0
3, 33120, Note_on_c, 0, 59, 43
3, 33120, Note_on_c, 0, 61, 50
3, 33138, Control_c, 0, 64, 0
3, 33194, Control_c, 0, 64, 127
3, 33360, Note_on_c, 0, 61, 0
3, 33360, Note_on_c, 0, 59, 0
3, 33360, Note_on_c, 0, 52, 47
3, 33600, Note_on_c, 0, 52, 0
3, 33600, Note_on_c, 0, 47, 49
3, 33609, Control_c, 0, 64, 0
3, 33664, Control_c, 0, 64, 127
3, 33760, Note_on_c, 0, 53, 50
3, 33920, Note_on_c, 0, 53, 0
3, 33920, Note_on_c, 0, 54, 53
3, 34020, Note_on_c, 0, 57, 51
3, 34080, Note_on_c, 0, 57, 0
3, 34080, Note_on_c, 0, 54, 0
3, 34080, Note_on_c, 0, 55, 55
3, 34091, Control_c, 0, 64, 0
3, 34137, Control_c, 0, 64, 127
3, 34320, Note_on_c, 0, 55, 0
3, 34320, Note_on_c, 0, 47, 0
3, 34320, Note_on_c, 0, 47, 39
3, 34320, Note_on_c, 0, 54, 50
3, 34331, Control_c, 0, 64, 0
3, 34401, Control_c, 0, 64, 127
3, 34560, Note_on_c, 0, 54, 0
3, 34560, Note_on_c, 0, 47, 0
3, 34560, Note_on_c, 0, 47, 43
3, 34560, Control_c, 0, 64, 0
3, 34560, Note_on_c, 0, 55, 51
3, 34631, Control_c, 0, 64, 127
3, 34920, Note_on_c, 0, 55, 0
3, 34920, Note_on_c, 0, 47, 0
3, 34920, Note_on_c, 0, 55, 45
3, 35040, Note_on_c, 0, 55, 0
3, 35040, Note_on_c, 0, 61, 43
3, 35040, Note_on_c, 0, 59, 43
3, 35040, Note_on_c, 0, 67, 50
3, 35058, Control_c, 0, 64, 0
3, 35114, Control_c, 0, 64, 127
3, 35280, Note_on_c, 0, 67, 0
3, 35280, Note_on_c, 0, 59, 0
3, 35280, Note_on_c, 0, 61, 0
3, 35280, Note_on_c, 0, 55, 47
3, 35520, Note_on_c, 0, 55, 0
3, 35520, Note_on_c, 0, 47, 49
3, 35529, Control_c, 0, 64, 0
3, 35584, Control_c, 0, 64, 127
3, 35680, Note_on_c, 0, 53, 50
3, 35840, Note_on_c, 0, 53, 0
3, 35840, Note_on_c, 0, 54, 53
3, 35940, Note_on_c, 0, 57, 51
3, 36000, Note_on_c, 0, 57, 0
3, 36000, Note_on_c, 0, 54, 0
3, 36000, Note_on_c, 0, 55, 55
3, 36011, Control_c, 0, 64, 0
3, 36057, Control_c, 0, 64, 127
3, 36240, Note_on_c, 0, 55, 0
3, 36240, Note_on_c, 0, 47, 0
3, 36240, Note_on_c, 0, 54, 50
3, 36240, Note_on_c, 0, 45, 39
3, 36251, Control_c, 0, 64, 0
3, 36321, Control_c, 0, 64, 127
3, 36480, Note_on_c, 0, 45, 0
3, 36480, Note_on_c, 0, 54, 0
3, 36480, Control_c, 0, 64, 0
3, 36480, Note_on_c, 0, 44, 51
3, 36551, Control_c, 0, 64, 127
3, 36840, Note_on_c, 0, 44, 0
3, 36840, Note_on_c, 0, 54, 45
3, 36960, Note_on_c, 0, 54, 0
3, 36960, Note_on_c, 0, 56, 43
3, 36960, Note_on_c, 0, 66, 50
3, 36972, Control_c, 0, 64, 0
3, 37023, Control_c, 0, 64, 127
3, 37197, Note_on_c, 0, 66, 0
3, 37200, Note_on_c, 0, 56, 0
3, 37200, Note_on_c, 0, 48, 37
3, 37200, Note_on_c, 0, 57, 47
3, 37207, Control_c, 0, 64, 0
3, 37249, Control_c, 0, 64, 127
3, 37440, Note_on_c, 0, 57, 0
3, 37440, Note_on_c, 0, 48, 0
3, 37440, Note_on_c, 0, 37, 49
3, 37449, Control_c, 0, 64, 0
3, 37504, Control_c, 0, 64, 127
3, 37600, Note_on_c, 0, 37, 0
3, 37600, Note_on_c, 0, 48, 48
3, 37760, Note_on_c, 0, 48, 0
3, 37760, Note_on_c, 0, 49, 51
3, 37860, Note_on_c, 0, 53, 49
3, 37920, Note_on_c, 0, 53, 0
3, 37920, Note_on_c, 0, 49, 0
3, 37920, Note_on_c, 0, 51, 52
3, 37931, Control_c, 0, 64, 0
3, 37977, Control_c, 0, 64, 127
3, 38160, Note_on_c, 0, 51, 0
3, 38160, Note_on_c, 0, 49, 48
3, 38171, Control_c, 0, 64, 0
3, 38241, Control_c, 0, 64, 127
3, 38400, Note_on_c, 0, 49, 0
3, 38400, Note_on_c, 0, 59, 45
3, 38400, Control_c, 0, 64, 127
3, 38400, Note_on_c, 0, 54, 45
3, 38640, Note_on_c, 0, 54, 0
3, 38640, Note_on_c, 0, 59, 0
3, 38640, Note_on_c, 0, 44, 45
3, 38873, Control_c, 0, 64, 0
3, 38880, Note_on_c, 0, 44, 0
3, 38880, Note_on_c, 0, 37, 50
3, 38929, Control_c, 0, 64, 127
3, 39040, Note_on_c, 0, 37, 0
3, 39040, Note_on_c, 0, 49, 40
3, 39200, Note_on_c, 0, 49, 0
3, 39200, Note_on_c, 0, 61, 40
3, 39360, Note_on_c, 0, 61, 0
3, 39360, Note_on_c, 0, 42, 49
3, 39368, Control_c, 0, 64, 0
3, 39417, Control_c, 0, 64, 127
3, 39520, Note_on_c, 0, 48, 50
3, 39680, Note_on_c, 0, 48, 0
3, 39680, Note_on_c, 0, 49, 53
3, 39780, Note_on_c, 0, 53, 51
3, 39840, Note_on_c, 0, 53, 0
3, 39840, Note_on_c, 0, 49, 0
3, 39840, Note_on_c, 0, 51, 55
3, 39855, Control_c, 0, 64, 0
3, 39920, Control_c, 0, 64, 127
3, 40080, Note_on_c, 0, 51, 0
3, 40080, Note_on_c, 0, 49, 50
3, 40090, Control_c, 0, 64, 0
3, 40143, Control_c, 0, 64, 127
3, 40320, Note_on_c, 0, 49, 0
3, 40320, Note_on_c, 0, 42, 0
3, 40320, Note_on_c, 0, 49, 38
3, 40320, Note_on_c, 0, 56, 45
3, 40320, Note_on_c, 0, 42, 38
3, 40329, Control_c, 0, 64, 0
3, 40372, Control_c, 0, 64, 127
3, 40680, Note_on_c, 0, 73, 36
3, 40770, Note_on_c, 0, 73, 0
3, 40770, Note_on_c, 0, 80, 34
3, 40785, Note_on_c, 0, 83, 39
3, 40800, Note_on_c, 0, 85, 42
3, 41040, Note_on_c, 0, 85, 0
3, 41040, Note_on_c, 0, 56, 0
3, 41040, Note_on_c, 0, 49, 0
3, 41040, Note_on_c, 0, 42, 0
3, 41040, Note_on_c, 0, 83, 0
3, 41040, Note_on_c, 0, 80, 0
3, 41040, Note_on_c, 0, 42, 28
3, 41040, Note_on_c, 0, 49, 28
3, 41040, Note_on_c, 0, 56, 33
3, 41055, Control_c, 0, 64, 0
3, 41123, Control_c, 0, 64, 127
3, 41280, Note_on_c, 0, 56, 0
3, 41280, Note_on_c, 0, 49, 0
3, 41280, Note_on_c, 0, 42, 0
3, 41280, Note_on_c, 0, 54, 45
3, 41280, Note_on_c, 0, 49, 38
3, 41280, Note_on_c, 0, 42, 38
3, 41305, Control_c, 0, 64, 0
3, 41400, Control_c, 0, 64, 127
3, 41640, Note_on_c, 0, 73, 30
3, 41730, Note_on_c, 0, 73, 0
3, 41730, Note_on_c, 0, 78, 40
3, 41745, Note_on_c, 0, 82, 46
3, 41760, Note_on_c, 0, 85, 48
3, 42000, Note_on_c, 0, 85, 0
3, 42000, Note_on_c, 0, 49, 0
3, 42000, Note_on_c, 0, 54, 0
3, 42000, Note_on_c, 0, 42, 0
3, 42000, Note_on_c, 0, 82, 0
3, 42000, Note_on_c, 0, 78, 0
3, 42000, Note_on_c, 0, 42, 28
3, 42000, Note_on_c, 0, 54, 33
3, 42000, Note_on_c, 0, 49, 28
3, 42010, Control_c, 0, 64, 0
3, 42060, Control_c, 0, 64, 127
3, 42240, Note_on_c, 0, 49, 0
3, 42240, Note_on_c, 0, 54, 0
3, 42240, Note_on_c, 0, 42, 0
3, 42240, Note_on_c, 0, 42, 38
3, 42240, Note_on_c, 0, 49, 38
3, 42240, Note_on_c, 0, 56, 45
3, 42249, Control_c, 0, 64, 0
3, 42309, Control_c, 0, 64, 127
3, 42600, Note_on_c, 0, 73, 36
3, 42690, Note_on_c, 0, 73, 0
3, 42690, Note_on_c, 0, 80, 34
3, 42705, Note_on_c, 0, 83, 39
3, 42720, Note_on_c, 0, 85, 42
3, 42960, Note_on_c, 0, 85, 0
3, 42960, Note_on_c, 0, 49, 0
3, 42960, Note_on_c, 0, 42, 0
3, 42960, Note_on_c, 0, 56, 0
3, 42960, Note_on_c, 0, 83, 0
3, 42960, Note_on_c, 0, 80, 0
3, 42960, Note_on_c, 0, 42, 28
3, 42960, Note_on_c, 0, 49, 28
3, 42960, Note_on_c, 0, 56, 33
3, 43200, Note_on_c, 0, 56, 0
3, 43200, Note_on_c, 0, 49, 0
3, 43200, Note_on_c, 0, 42, 0
3, 43200, Note_on_c, 0, 42, 38
3, 43200, Note_on_c, 0, 49, 38
3, 43200, Note_on_c, 0, 54, 45
3, 43203, Control_c, 0, 64, 0
3, 43255, Control_c, 0, 64, 127
3, 43440, Note_on_c, 0, 49, 0
3, 43440, Note_on_c, 0, 42, 0
3, 43560, Note_on_c, 0, 49, 40
3, 43680, Note_on_c, 0, 49, 0
3, 43680, Note_on_c, 0, 57, 48
3, 43692, Control_c, 0, 64, 0
3, 43766, Control_c, 0, 64, 127
3, 43920, Note_on_c, 0, 57, 0
3, 43920, Note_on_c, 0, 54, 0
3, 43920, Note_on_c, 0, 49, 28
3, 43920, Note_on_c, 0, 58, 37
3, 43933, Control_c, 0, 64, 0
3, 43980, Control_c, 0, 64, 127
3, 44130, Note_on_c, 0, 58, 0
3, 44130, Note_on_c, 0, 49, 0
3, 44160, Note_on_c, 0, 42, 38
3, 44160, Note_on_c, 0, 49, 38
3, 44160, Control_c, 0, 64, 0
3, 44160, Note_on_c, 0, 56, 45
3, 44200, Control_c, 0, 64, 127
3, 44400, Note_on_c, 0, 61, 36
3, 44633, Control_c, 0, 64, 0
3, 44640, Note_on_c, 0, 61, 0
3, 44640, Note_on_c, 0, 42, 0
3, 44640, Note_on_c, 0, 49, 0
3, 44640, Note_on_c, 0, 56, 0
3, 44640, Note_on_c, 0, 60, 38
3, 44640, Note_on_c, 0, 49, 32
3, 44689, Control_c, 0, 64, 127
3, 44878, Note_on_c, 0, 60, 0
3, 44880, Note_on_c, 0, 49, 0
3, 44880, Note_on_c, 0, 56, 33
3, 44880, Note_on_c, 0, 42, 28
3, 44880, Note_on_c, 0, 49, 28
3, 44891, Control_c, 0, 64, 0
3, 44935, Control_c, 0, 64, 127
3, 45120, Note_on_c, 0, 49, 0
3, 45120, Note_on_c, 0, 42, 0
3, 45120, Note_on_c, 0, 56, 0
3, 45120, Note_on_c, 0, 42, 38
3, 45120, Note_on_c, 0, 49, 38
3, 45120, Note_on_c, 0, 54, 45
3, 45135, Control_c, 0, 64, 0
3, 45176, Control_c, 0, 64, 127
3, 45600, Note_on_c, 0, 54, 0
3, 45600, Note_on_c, 0, 49, 0
3, 45600, Note_on_c, 0, 42, 0
3, 45600, Note_on_c, 0, 38, 35
3, 45600, Note_on_c, 0, 50, 35
3, 45613, Control_c, 0, 64, 0
3, 45720, Control_c, 0, 64, 127
3, 46080, Note_on_c, 0, 50, 0
3, 46080, Note_on_c, 0, 38, 0
3, 46080, Note_on_c, 0, 43, 32
3, 46080, Control_c, 0, 64, 0
3, 46080, Note_on_c, 0, 50, 38
3, 46080, Note_on_c, 0, 60, 38
3, 46133, Control_c, 0, 64, 127
3, 46320, Note_on_c, 0, 60, 0
3, 46320, Note_on_c, 0, 59, 34
3, 46558, Note_on_c, 0, 59, 0
3, 46560, Note_on_c, 0, 50, 0
3, 46560, Note_on_c, 0, 43, 0
3, 46560, Note_on_c, 0, 44, 35
3, 46560, Note_on_c, 0, 49, 35
3, 46568, Control_c, 0, 64, 0
3, 46705, Control_c, 0, 64, 127
3, 46800, Note_on_c, 0, 44, 0
3, 46800, Note_on_c, 0, 37, 33
3, 47040, Note_on_c, 0, 37, 0
3, 47040, Note_on_c, 0, 49, 0
3, 47040, Note_on_c, 0, 49, 37
3, 47040, Note_on_c, 0, 42, 37
3, 47057, Control_c, 0, 64, 0
3, 47160, Control_c, 0, 64, 127
3, 47520, Note_on_c, 0, 42, 0
3, 47520, Note_on_c, 0, 49, 0
3, 47520, Note_on_c, 0, 36, 35
3, 47520, Note_on_c, 0, 48, 35
3, 47537, Control_c, 0, 64, 0
3, 47633, Control_c, 0, 64, 127
3, 47760, Note_on_c, 0, 48, 0
3, 47760, Note_on_c, 0, 36, 0
3, 47760, Note_on_c, 0, 35, 35
3, 47760, Note_on_c, 0, 47, 35
3, 48000, Note_on_c, 0, 35, 0
3, 48000, Control_c, 0, 64, 0
3, 48004, Note_on_c, 0, 40, 45
3, 48113, Control_c, 0, 64, 127
3, 48240, Note_on_c, 0, 47, 0
3, 48240, Note_on_c, 0, 50, 34
3, 48480, Note_on_c, 0, 50, 0
3, 48480, Note_on_c, 0, 45, 35
3, 48480, Note_on_c, 0, 33, 35
3, 48484, Note_on_c, 0, 40, 0
3, 48490, Control_c, 0, 64, 0
3, 48660, Control_c, 0, 64, 127
3, 48960, Note_on_c, 0, 33, 0
3, 48960, Note_on_c, 0, 45, 0
3, 48960, Note_on_c, 0, 26, 33
3, 48960, Control_c, 0, 64, 0
3, 48960, Note_on_c, 0, 38, 41
3, 49017, Control_c, 0, 64, 127
3, 49320, Note_on_c, 0, 54, 41
3, 49360, Note_on_c, 0, 54, 0
3, 49360, Note_on_c, 0, 55, 41
3, 49400, Note_on_c, 0, 55, 0
3, 49400, Note_on_c, 0, 56, 41
3, 49440, Note_on_c, 0, 56, 0
3, 49440, Note_on_c, 0, 38, 0
3, 49440, Note_on_c, 0, 26, 0
3, 49440, Note_on_c, 0, 57, 45
3, 49456, Control_c, 0, 64, 0
3, 49680, Note_on_c, 0, 57, 0
3, 49680, Note_on_c, 0, 45, 45
3, 49712, Control_c, 0, 64, 127
3, 49920, Note_on_c, 0, 45, 0
3, 49920, Note_on_c, 0, 45, 39
3, 49920, Note_on_c, 0, 38, 39
3, 50280, Note_on_c, 0, 57, 37
3, 50340, Note_on_c, 0, 57, 0
3, 50340, Note_on_c, 0, 62, 35
3, 50355, Note_on_c, 0, 66, 39
3, 50638, Note_on_c, 0, 66, 0
3, 50640, Note_on_c, 0, 45, 0
3, 50640, Note_on_c, 0, 38, 0
3, 50640, Note_on_c, 0, 62, 0
3, 50640, Note_on_c, 0, 45, 46
3, 50650, Control_c, 0, 64, 0
3, 50697, Control_c, 0, 64, 127
3, 50880, Note_on_c, 0, 38, 42
3, 50890, Control_c, 0, 64, 0
3, 50955, Control_c, 0, 64, 127
3, 51120, Note_on_c, 0, 45, 0
3, 51120, Note_on_c, 0, 54, 44
3, 51120, Note_on_c, 0, 62, 50
3, 51240, Note_on_c, 0, 62, 0
3, 51240, Note_on_c, 0, 54, 0
3, 51240, Note_on_c, 0, 64, 56
3, 51240, Note_on_c, 0, 57, 44
3, 51330, Note_on_c, 0, 57, 0
3, 51330, Note_on_c, 0, 64, 0
3, 51330, Note_on_c, 0, 62, 41
3, 51360, Note_on_c, 0, 66, 52
3, 51371, Control_c, 0, 64, 0
3, 51406, Control_c, 0, 64, 127
3, 51600, Note_on_c, 0, 66, 0
3, 51600, Note_on_c, 0, 62, 0
3, 51600, Note_on_c, 0, 38, 0
3, 51600, Note_on_c, 0, 51, 38
3, 51600, Note_on_c, 0, 57, 42
3, 51609, Control_c, 0, 64, 0
3, 51660, Control_c, 0, 64, 127
3, 51840, Note_on_c, 0, 57, 0
3, 51840, Note_on_c, 0, 51, 0
3, 51840, Note_on_c, 0, 45, 35
3, 51840, Note_on_c, 0, 52, 42
3, 51840, Note_on_c, 0, 38, 35
3, 51847, Control_c, 0, 64, 0
3, 51992, Control_c, 0, 64, 127
3, 52200, Note_on_c, 0, 67, 35
3, 52320, Note_on_c, 0, 67, 0
3, 52320, Note_on_c, 0, 64, 35
3, 52320, Note_on_c, 0, 57, 30
3, 52557, Note_on_c, 0, 64, 0
3, 52560, Note_on_c, 0, 45, 0
3, 52560, Note_on_c, 0, 38, 0
3, 52560, Note_on_c, 0, 52, 0
3, 52560, Note_on_c, 0, 57, 0
3, 52560, Note_on_c, 0, 45, 45
3, 52575, Control_c, 0, 64, 0
3, 52620, Control_c, 0, 64, 127
3, 52800, Note_on_c, 0, 38, 38
3, 52800, Control_c, 0, 64, 0
3, 52800, Note_on_c, 0, 61, 45
3, 52883, Control_c, 0, 64, 127
3, 53040, Note_on_c, 0, 61, 0
3, 53040, Note_on_c, 0, 59, 42
3, 53280, Note_on_c, 0, 59, 0
3, 53280, Note_on_c, 0, 38, 0
3, 53280, Note_on_c, 0, 45, 0
3, 53280, Note_on_c, 0, 57, 52
3, 53520, Note_on_c, 0, 57, 0
3, 53520, Note_on_c, 0, 56, 48
3, 53520, Note_on_c, 0, 45, 45
3, 53532, Control_c, 0, 64, 0
3, 53583, Control_c, 0, 64, 127
3, 53760, Note_on_c, 0, 45, 0
3, 53760, Note_on_c, 0, 56, 0
3, 53760, Note_on_c, 0, 55, 45
3, 53777, Control_c, 0, 64, 0
3, 53841, Control_c, 0, 64, 127
3, 53880, Note_on_c, 0, 45, 38
3, 54000, Note_on_c, 0, 38, 41
3, 54120, Note_on_c, 0, 43, 45
3, 54240, Note_on_c, 0, 43, 0
3, 54240, Note_on_c, 0, 55, 0
3, 54240, Note_on_c, 0, 45, 0
3, 54240, Note_on_c, 0, 45, 51
3, 54480, Note_on_c, 0, 52, 45
3, 54494, Control_c, 0, 64, 0
3, 54554, Control_c, 0, 64, 127
3, 54600, Note_on_c, 0, 52, 0
3, 54600, Note_on_c, 0, 54, 45
3, 54720, Note_on_c, 0, 54, 0
3, 54720, Note_on_c, 0, 45, 0
3, 54720, Note_on_c, 0, 38, 0
3, 54720, Note_on_c, 0, 55, 45
3, 54737, Control_c, 0, 64, 0
3, 54840, Note_on_c, 0, 45, 38
3, 54840, Control_c, 0, 64, 127
3, 54960, Note_on_c, 0, 45, 0
3, 54960, Note_on_c, 0, 38, 38
3, 55080, Note_on_c, 0, 55, 0
3, 55080, Note_on_c, 0, 57, 45
3, 55200, Note_on_c, 0, 57, 0
3, 55200, Note_on_c, 0, 38, 0
3, 55200, Note_on_c, 0, 59, 52
3, 55440, Note_on_c, 0, 59, 0
3, 55440, Note_on_c, 0, 61, 45
3, 55460, Control_c, 0, 64, 0
3, 55546, Control_c, 0, 64, 127
3, 55677, Note_on_c, 0, 61, 0
3, 55680, Note_on_c, 0, 38, 41
3, 55687, Control_c, 0, 64, 0
3, 55740, Control_c, 0, 64, 127
3, 55930, Control_c, 0, 64, 0
3, 56040, Note_on_c, 0, 38, 0
3, 56040, Note_on_c, 0, 45, 41
3, 56054, Control_c, 0, 64, 127
3, 56160, Note_on_c, 0, 45, 0
3, 56160, Note_on_c, 0, 57, 49
3, 56400, Note_on_c, 0, 57, 0
3, 56400, Note_on_c, 0, 54, 45
3, 56400, Note_on_c, 0, 45, 37
3, 56520, Note_on_c, 0, 54, 0
3, 56520, Note_on_c, 0, 50, 45
3, 56640, Note_on_c, 0, 50, 0
3, 56640, Note_on_c, 0, 45, 0
3, 56640, Note_on_c, 0, 34, 47
3, 56640, Control_c, 0, 64, 0
3, 56640, Note_on_c, 0, 46, 56
3, 56707, Control_c, 0, 64, 127
3, 57000, Note_on_c, 0, 46, 0
3, 57000, Note_on_c, 0, 34, 0
3, 57000, Note_on_c, 0, 53, 48
3, 57120, Note_on_c, 0, 62, 66
3, 57360, Note_on_c, 0, 62, 0
3, 57360, Note_on_c, 0, 61, 57
3, 57371, Control_c, 0, 64, 0
3, 57402, Control_c, 0, 64, 127
3, 57600, Note_on_c, 0, 61, 0
3, 57600, Note_on_c, 0, 60, 67
3, 57609, Control_c, 0, 64, 0
3, 57667, Control_c, 0, 64, 127
3, 57760, Note_on_c, 0, 53, 0
3, 57760, Note_on_c, 0, 41, 62
3, 57920, Note_on_c, 0, 41, 0
3, 57920, Note_on_c, 0, 57, 48
3, 58080, Note_on_c, 0, 57, 0
3, 58080, Note_on_c, 0, 60, 0
3, 58080, Note_on_c, 0, 60, 66
3, 58320, Note_on_c, 0, 60, 0
3, 58320, Note_on_c, 0, 61, 55
3, 58328, Control_c, 0, 64, 0
3, 58368, Control_c, 0, 64, 127
3, 58557, Note_on_c, 0, 61, 0
3, 58560, Note_on_c, 0, 43, 47
3, 58560, Control_c, 0, 64, 0
3, 58560, Note_on_c, 0, 50, 56
3, 58627, Control_c, 0, 64, 127
3, 58920, Note_on_c, 0, 50, 0
3, 58920, Note_on_c, 0, 43, 0
3, 58920, Note_on_c, 0, 50, 48
3, 59040, Note_on_c, 0, 60, 64
3, 59052, Control_c, 0, 64, 0
3, 59097, Control_c, 0, 64, 127
3, 59280, Note_on_c, 0, 60, 0
3, 59280, Note_on_c, 0, 58, 52
3, 59291, Control_c, 0, 64, 0
3, 59322, Control_c, 0, 64, 127
3, 59520, Note_on_c, 0, 58, 0
3, 59520, Note_on_c, 0, 57, 61
3, 59529, Control_c, 0, 64, 0
3, 59587, Control_c, 0, 64, 127
3, 59880, Note_on_c, 0, 50, 0
3, 59880, Note_on_c, 0, 38, 48
3, 60000, Note_on_c, 0, 57, 0
3, 60000, Note_on_c, 0, 45, 60
3, 60013, Control_c, 0, 64, 0
3, 60071, Control_c, 0, 64, 127
3, 60240, Note_on_c, 0, 45, 0
3, 60240, Note_on_c, 0, 36, 39
3, 60240, Note_on_c, 0, 46, 50
3, 60248, Control_c, 0, 64, 0
3, 60288, Control_c, 0, 64, 127
3, 60480, Note_on_c, 0, 46, 0
3, 60480, Note_on_c, 0, 36, 0
3, 60480, Note_on_c, 0, 38, 0
3, 60480, Note_on_c, 0, 47, 42
3, 60480, Note_on_c, 0, 35, 37
3, 60486, Control_c, 0, 64, 0
3, 60586, Control_c, 0, 64, 127
3, 60840, Note_on_c, 0, 72, 47
3, 60960, Note_on_c, 0, 72, 0
3, 60960, Note_on_c, 0, 81, 45
3, 60960, Note_on_c, 0, 84, 53
3, 60960, Note_on_c, 0, 75, 45
3, 61200, Note_on_c, 0, 75, 0
3, 61200, Note_on_c, 0, 81, 0
3, 61200, Note_on_c, 0, 47, 0
3, 61200, Note_on_c, 0, 35, 0
3, 61200, Note_on_c, 0, 84, 0
3, 61200, Note_on_c, 0, 72, 46
3, 61440, Note_on_c, 0, 72, 0
3, 61440, Note_on_c, 0, 40, 37
3, 61440, Note_on_c, 0, 47, 42
3, 61468, Control_c, 0, 64, 0
3, 61539, Control_c, 0, 64, 127
3, 61800, Note_on_c, 0, 71, 47
3, 61920, Note_on_c, 0, 71, 0
3, 61920, Note_on_c, 0, 76, 45
3, 61920, Note_on_c, 0, 83, 53
3, 61920, Note_on_c, 0, 74, 45
3, 62160, Note_on_c, 0, 74, 0
3, 62160, Note_on_c, 0, 76, 0
3, 62160, Note_on_c, 0, 40, 0
3, 62160, Note_on_c, 0, 47, 0
3, 62160, Note_on_c, 0, 83, 0
3, 62160, Note_on_c, 0, 40, 46
3, 62400, Note_on_c, 0, 40, 0
3, 62400, Note_on_c, 0, 33, 38
3, 62400, Control_c, 0, 64, 0
3, 62400, Note_on_c, 0, 45, 43
3, 62520, Control_c, 0, 64, 127
3, 62760, Note_on_c, 0, 69, 47
3, 62880, Note_on_c, 0, 69, 0
3, 62880, Note_on_c, 0, 81, 53
3, 62898, Control_c, 0, 64, 0
3, 62929, Control_c, 0, 64, 127
3, 63120, Note_on_c, 0, 81, 0
3, 63120, Note_on_c, 0, 45, 0
3, 63120, Note_on_c, 0, 33, 0
3, 63120, Note_on_c, 0, 33, 35
3, 63120, Note_on_c, 0, 45, 40
3, 63360, Note_on_c, 0, 45, 0
3, 63360, Note_on_c, 0, 33, 0
3, 63360, Note_on_c, 0, 26, 32
3, 63360, Note_on_c, 0, 38, 38
3, 63369, Control_c, 0, 64, 0
3, 63540, Control_c, 0, 64, 127
3, 63840, Note_on_c, 0, 38, 0
3, 63840, Note_on_c, 0, 26, 0
3, 63840, Note_on_c, 0, 66, 33
3, 63840, Note_on_c, 0, 62, 28
3, 64080, Note_on_c, 0, 62, 0
3, 64080, Note_on_c, 0, 66, 0
3, 64080, Note_on_c, 0, 45, 35
3, 64320, Note_on_c, 0, 38, 38
3, 64800, Note_on_c, 0, 38, 0
3, 64800, Note_on_c, 0, 45, 0
3, 64800, Note_on_c, 0, 66, 33
3, 64800, Note_on_c, 0, 62, 28
3, 65040, Note_on_c, 0, 62, 0
3, 65040, Note_on_c, 0, 66, 0
3, 65040, Note_on_c, 0, 45, 35
3, 65280, Note_on_c, 0, 38, 25
3, 65760, Note_on_c, 0, 38, 0
3, 65760, Note_on_c, 0, 45, 0
3, 65760, Note_on_c, 0, 50, 21
3, 65760, Note_on_c, 0, 57, 25
3, 66240, Note_on_c, 0, 57, 0
3, 66240, Note_on_c, 0, 50, 0
3, 66240, Note_on_c, 0, 62, 27
3, 66240, Note_on_c, 0, 69, 31
3, 67200, Note_on_c, 0, 69, 0
3, 67200, Note_on_c, 0, 62, 0
3, 67440, Control_c, 0, 64, 0
3, 67440, End_track
4, 0, Start_track
4, 0, Title_t, "Albeniz :Espana Op. 165 Tango"
4, 0, End_track
5, 0, Start_track
5, 0, Title_t, "Copyright © 2001 by Bernd Krüger"
5, 0, End_track
6, 0, Start_track
6, 0, Title_t, "http://www.piano-midi.de"
6, 0, End_track
7, 0, Start_track
7, 0, Title_t, "Edition: 2010-08-26"
7, 0, End_track
8, 0, Start_track
8, 0, Title_t, "Spur 7"
8, 0, End_track
0, 0, End_of_file
