0, 0, Header, 1, 10, 480
1, 0, Start_track
1, 0, Title_t, "Danza Espanola No. 3"
1, 0, Copyright_t, "Copyright © 2001 by Bernd Krueger"
1, 0, Text_t, "E. Granados"
1, 0, Text_t, "Energico"
1, 0, Text_t, "Fertiggestellt am 27.7.2001\012"
1, 0, Text_t, "Normierung: 23.12.2002\012"
1, 0, Text_t, "Dauer: 3:11 Minuten\012"
1, 0, SMPTE_offset, 96, 0, 3, 0, 0
1, 0, Time_signature, 3, 2, 24, 8
1, 0, Key_signature, 2, "major"
1, 0, Tempo, 300000
1, 480, Tempo, 296296
1, 960, Tempo, 293399
1, 1440, Tempo, 309278
1, 1960, Tempo, 304569
1, 2400, Tempo, 308483
1, 2880, Tempo, 300000
1, 3360, Tempo, 294840
1, 3840, Tempo, 292683
1, 4320, Tempo, 309278
1, 4800, Tempo, 304569
1, 5280, Tempo, 306905
1, 5760, Tempo, 300000
1, 6240, Tempo, 295567
1, 6720, Tempo, 292683
1, 7200, Tempo, 296296
1, 8160, Tempo, 304569
1, 8640, Tempo, 297767
1, 9120, Tempo, 297030
1, 9600, Tempo, 300000
1, 10080, Tempo, 302267
1, 10560, Tempo, 296296
1, 11040, Tempo, 300000
1, 11520, Tempo, 305344
1, 12000, Tempo, 296296
1, 12480, Tempo, 294118
1, 12960, Tempo, 311688
1, 13440, Tempo, 304569
1, 13920, Tempo, 307692
1, 14400, Tempo, 300000
1, 14880, Tempo, 294840
1, 15360, Tempo, 292683
1, 15840, Tempo, 310881
1, 16320, Tempo, 305344
1, 16800, Tempo, 303797
1, 17280, Tempo, 300000
1, 17760, Tempo, 294840
1, 18240, Tempo, 291262
1, 18720, Tempo, 296296
1, 19680, Tempo, 304569
1, 20160, Tempo, 297767
1, 20640, Tempo, 297030
1, 21120, Tempo, 300000
1, 21600, Tempo, 302267
1, 22080, Tempo, 296296
1, 22560, Tempo, 300000
1, 23040, Tempo, 304569
1, 23520, Tempo, 296296
1, 24000, Tempo, 296296
1, 24480, Tempo, 300000
1, 24960, Tempo, 296296
1, 25440, Tempo, 300000
1, 26400, Tempo, 302267
1, 26880, Tempo, 300000
1, 28320, Tempo, 308483
1, 28800, Tempo, 303797
1, 29040, Tempo, 307692
1, 29280, Tempo, 297767
1, 29760, Tempo, 302267
1, 30240, Tempo, 307692
1, 30720, Tempo, 301508
1, 31200, Tempo, 306122
1, 32160, Tempo, 302267
1, 32640, Tempo, 305344
1, 34080, Tempo, 313316
1, 34560, Tempo, 304569
1, 35040, Tempo, 296296
1, 35520, Tempo, 296296
1, 36000, Tempo, 300000
1, 36480, Tempo, 296296
1, 36960, Tempo, 300000
1, 37920, Tempo, 302267
1, 38400, Tempo, 300000
1, 39840, Tempo, 308483
1, 40320, Tempo, 303797
1, 40560, Tempo, 307692
1, 40800, Tempo, 297030
1, 41280, Tempo, 301508
1, 41760, Tempo, 307692
1, 42240, Tempo, 301508
1, 42720, Tempo, 306122
1, 43680, Tempo, 302267
1, 44160, Tempo, 305344
1, 45120, Tempo, 303797
1, 45600, Tempo, 309278
1, 46560, Tempo, 304569
1, 47040, Tempo, 307692
1, 48000, Tempo, 304569
1, 48480, Tempo, 307692
1, 49440, Tempo, 308483
1, 49920, Tempo, 306122
1, 50400, Tempo, 323450
1, 51360, Tempo, 344828
1, 51840, Tempo, 300000
1, 52320, Tempo, 296296
1, 52800, Tempo, 293399
1, 53040, Tempo, 352941
1, 53280, Tempo, 312500
1, 53760, Tempo, 304569
1, 54240, Tempo, 316623
1, 54720, Tempo, 313316
1, 55200, Tempo, 303797
1, 55680, Tempo, 307692
1, 56160, Tempo, 300000
1, 56640, Tempo, 296296
1, 57120, Tempo, 293399
1, 57360, Tempo, 352941
1, 57584, Tempo, 300000
1, 58064, Tempo, 296296
1, 58544, Tempo, 293399
1, 58784, Tempo, 352941
1, 59024, Tempo, 312500
1, 59504, Tempo, 304569
1, 59984, Tempo, 311688
1, 60000, Tempo, 315789
1, 60464, Tempo, 306905
1, 60480, Tempo, 312500
1, 60960, Tempo, 318302
1, 61440, Tempo, 325203
1, 61920, Tempo, 330579
1, 63360, Tempo, 300000
1, 63840, Tempo, 296296
1, 64320, Tempo, 293399
1, 64560, Tempo, 352941
1, 64800, Tempo, 312500
1, 65280, Tempo, 304569
1, 65760, Tempo, 319149
1, 66240, Tempo, 310078
1, 66720, Tempo, 303797
1, 67200, Tempo, 307692
1, 67680, Tempo, 300000
1, 68160, Tempo, 296296
1, 68640, Tempo, 293399
1, 68880, Tempo, 352941
1, 69104, Tempo, 300000
1, 69584, Tempo, 296296
1, 70064, Tempo, 293399
1, 70304, Tempo, 352941
1, 70544, Tempo, 312500
1, 71024, Tempo, 304569
1, 71504, Tempo, 311688
1, 71520, Tempo, 315789
1, 71984, Tempo, 306905
1, 72000, Tempo, 312500
1, 72480, Tempo, 318302
1, 72960, Tempo, 331492
1, 73440, Tempo, 339943
1, 73920, Tempo, 330579
1, 74880, Tempo, 300752
1, 75360, Tempo, 298507
1, 76080, Tempo, 316623
1, 76320, Tempo, 307692
1, 76800, Tempo, 306122
1, 77280, Tempo, 317460
1, 77760, Tempo, 300752
1, 78240, Tempo, 298507
1, 78720, Tempo, 304569
1, 78960, Tempo, 316623
1, 79200, Tempo, 307692
1, 79680, Tempo, 306122
1, 80160, Tempo, 314136
1, 80640, Tempo, 300752
1, 81120, Tempo, 298507
1, 81840, Tempo, 316623
1, 82080, Tempo, 307692
1, 82560, Tempo, 306122
1, 83040, Tempo, 324324
1, 83520, Tempo, 327869
1, 83960, Tempo, 313316
1, 84000, Tempo, 336134
1, 84040, Tempo, 338983
1, 84080, Tempo, 341880
1, 84120, Tempo, 344828
1, 84160, Tempo, 347826
1, 84200, Tempo, 350877
1, 84240, Tempo, 353982
1, 84280, Tempo, 357143
1, 84320, Tempo, 360360
1, 84360, Tempo, 363636
1, 84400, Tempo, 366972
1, 84440, Tempo, 370370
1, 84480, Tempo, 373832
1, 84520, Tempo, 377358
1, 84560, Tempo, 380952
1, 84600, Tempo, 384615
1, 84640, Tempo, 388350
1, 84680, Tempo, 392157
1, 84720, Tempo, 396040
1, 84960, Tempo, 316623
1, 85920, Tempo, 326975
1, 86400, Tempo, 300000
1, 86880, Tempo, 296296
1, 87360, Tempo, 293399
1, 87600, Tempo, 352941
1, 87840, Tempo, 312500
1, 88320, Tempo, 304569
1, 88800, Tempo, 314961
1, 89280, Tempo, 313316
1, 89760, Tempo, 303797
1, 90240, Tempo, 307692
1, 90720, Tempo, 300000
1, 91200, Tempo, 296296
1, 91680, Tempo, 293399
1, 91920, Tempo, 352941
1, 92144, Tempo, 300000
1, 92624, Tempo, 296296
1, 93104, Tempo, 293399
1, 93344, Tempo, 352941
1, 93584, Tempo, 312500
1, 94064, Tempo, 304569
1, 94544, Tempo, 311688
1, 94560, Tempo, 315789
1, 95024, Tempo, 306905
1, 95040, Tempo, 312500
1, 95520, Tempo, 318302
1, 96000, Tempo, 331492
1, 96480, Tempo, 330579
1, 97920, Tempo, 325556
1, 98400, Tempo, 318370
1, 98880, Tempo, 314037
1, 99120, Tempo, 327404
1, 99360, Tempo, 320137
1, 99840, Tempo, 316623
1, 100320, Tempo, 313185
1, 100800, Tempo, 325556
1, 101280, Tempo, 318370
1, 101760, Tempo, 314037
1, 102000, Tempo, 327404
1, 102240, Tempo, 320137
1, 102720, Tempo, 316623
1, 103200, Tempo, 338581
1, 105120, Tempo, 323729
1, 105280, Tempo, 322824
1, 105440, Tempo, 321923
1, 105600, Tempo, 321027
1, 105760, Tempo, 320137
1, 105920, Tempo, 319251
1, 106040, Tempo, 318370
1, 106560, Tempo, 322824
1, 107040, Tempo, 317494
1, 107520, Tempo, 324640
1, 108000, Tempo, 318370
1, 108480, Tempo, 322581
1, 109440, Tempo, 323729
1, 109600, Tempo, 322824
1, 109760, Tempo, 321923
1, 109920, Tempo, 321027
1, 110080, Tempo, 320137
1, 110240, Tempo, 319251
1, 110360, Tempo, 318370
1, 110880, Tempo, 326477
1, 111360, Tempo, 322824
1, 111840, Tempo, 336003
1, 112320, Tempo, 338964
1, 112820, Tempo, 337079
1, 112940, Tempo, 338028
1, 113060, Tempo, 338983
1, 113180, Tempo, 339943
1, 113260, Tempo, 340909
1, 113380, Tempo, 341880
1, 113500, Tempo, 342857
1, 113620, Tempo, 343840
1, 113700, Tempo, 344828
1, 113740, Tempo, 344828
1, 113900, Tempo, 345821
1, 114020, Tempo, 346821
1, 114180, Tempo, 347826
1, 114300, Tempo, 348837
1, 114420, Tempo, 349854
1, 114580, Tempo, 350877
1, 114960, Tempo, 364742
1, 115200, Tempo, 325556
1, 115680, Tempo, 318370
1, 116160, Tempo, 314037
1, 116400, Tempo, 327404
1, 116640, Tempo, 322581
1, 117120, Tempo, 316623
1, 117600, Tempo, 313185
1, 118080, Tempo, 325556
1, 118560, Tempo, 318370
1, 119040, Tempo, 314037
1, 119280, Tempo, 327404
1, 119520, Tempo, 320137
1, 120000, Tempo, 316623
1, 120480, Tempo, 338581
1, 122400, Tempo, 323729
1, 122560, Tempo, 322824
1, 122720, Tempo, 321923
1, 122880, Tempo, 321027
1, 123040, Tempo, 320137
1, 123200, Tempo, 319251
1, 123320, Tempo, 318370
1, 123840, Tempo, 322824
1, 124320, Tempo, 317494
1, 124800, Tempo, 324640
1, 125280, Tempo, 327869
1, 125760, Tempo, 322581
1, 126720, Tempo, 323729
1, 126880, Tempo, 322824
1, 127040, Tempo, 321923
1, 127200, Tempo, 321027
1, 127360, Tempo, 320137
1, 127520, Tempo, 319251
1, 127640, Tempo, 318370
1, 128160, Tempo, 326477
1, 128640, Tempo, 322824
1, 129120, Tempo, 336003
1, 129600, Tempo, 338964
1, 130100, Tempo, 337079
1, 130220, Tempo, 338028
1, 130340, Tempo, 338983
1, 130460, Tempo, 339943
1, 130540, Tempo, 340909
1, 130660, Tempo, 341880
1, 130780, Tempo, 342857
1, 130900, Tempo, 343840
1, 130980, Tempo, 344828
1, 131020, Tempo, 344828
1, 131180, Tempo, 345821
1, 131300, Tempo, 346821
1, 131460, Tempo, 347826
1, 131580, Tempo, 348837
1, 131700, Tempo, 349854
1, 131860, Tempo, 350877
1, 131980, Tempo, 351906
1, 132140, Tempo, 352941
1, 132240, Tempo, 400000
1, 132480, Tempo, 300000
1, 132960, Tempo, 296296
1, 133440, Tempo, 293399
1, 133920, Tempo, 309278
1, 134440, Tempo, 304569
1, 134880, Tempo, 308483
1, 135360, Tempo, 300000
1, 135840, Tempo, 294840
1, 136320, Tempo, 292683
1, 136800, Tempo, 309278
1, 137280, Tempo, 304569
1, 137760, Tempo, 306905
1, 138240, Tempo, 300000
1, 138720, Tempo, 295567
1, 139200, Tempo, 292683
1, 139680, Tempo, 296296
1, 140640, Tempo, 304569
1, 141120, Tempo, 297767
1, 141600, Tempo, 297030
1, 142080, Tempo, 300000
1, 142560, Tempo, 302267
1, 143040, Tempo, 296296
1, 143520, Tempo, 300000
1, 144000, Tempo, 305344
1, 144480, Tempo, 296296
1, 144960, Tempo, 294118
1, 145440, Tempo, 311688
1, 145920, Tempo, 304569
1, 146400, Tempo, 307692
1, 146880, Tempo, 300000
1, 147360, Tempo, 294840
1, 147840, Tempo, 292683
1, 148320, Tempo, 310881
1, 148800, Tempo, 305344
1, 149280, Tempo, 303797
1, 149760, Tempo, 300000
1, 150240, Tempo, 294840
1, 150720, Tempo, 291262
1, 151200, Tempo, 296296
1, 152160, Tempo, 304569
1, 152640, Tempo, 297767
1, 153120, Tempo, 297030
1, 153600, Tempo, 300000
1, 154080, Tempo, 302267
1, 154560, Tempo, 296296
1, 155040, Tempo, 300000
1, 155520, Tempo, 304569
1, 156000, Tempo, 296296
1, 156480, Tempo, 296296
1, 156960, Tempo, 300000
1, 157440, Tempo, 296296
1, 157920, Tempo, 300000
1, 158880, Tempo, 302267
1, 159360, Tempo, 300000
1, 160800, Tempo, 308483
1, 161280, Tempo, 303797
1, 161520, Tempo, 307692
1, 161760, Tempo, 297767
1, 162240, Tempo, 302267
1, 162720, Tempo, 307692
1, 163200, Tempo, 301508
1, 163680, Tempo, 306122
1, 164640, Tempo, 302267
1, 165120, Tempo, 305344
1, 166560, Tempo, 313316
1, 167040, Tempo, 304569
1, 167520, Tempo, 296296
1, 168000, Tempo, 296296
1, 168480, Tempo, 300000
1, 168960, Tempo, 296296
1, 169440, Tempo, 300000
1, 170400, Tempo, 302267
1, 170880, Tempo, 300000
1, 172320, Tempo, 308483
1, 172800, Tempo, 303797
1, 173040, Tempo, 307692
1, 173280, Tempo, 297030
1, 173760, Tempo, 301508
1, 174240, Tempo, 307692
1, 174720, Tempo, 301508
1, 175200, Tempo, 306122
1, 176160, Tempo, 302267
1, 176640, Tempo, 305344
1, 177600, Tempo, 303797
1, 178080, Tempo, 309278
1, 179040, Tempo, 304569
1, 179520, Tempo, 307692
1, 180480, Tempo, 304569
1, 180960, Tempo, 307692
1, 181920, Tempo, 308483
1, 182400, Tempo, 306122
1, 182880, Tempo, 323450
1, 183840, Tempo, 344828
1, 184320, Tempo, 300000
1, 184800, Tempo, 296296
1, 185280, Tempo, 293399
1, 185520, Tempo, 352941
1, 185760, Tempo, 312500
1, 186240, Tempo, 304569
1, 186720, Tempo, 316623
1, 187200, Tempo, 313316
1, 187680, Tempo, 303797
1, 188160, Tempo, 310078
1, 188640, Tempo, 300000
1, 189120, Tempo, 296296
1, 189600, Tempo, 293399
1, 189840, Tempo, 352941
1, 190064, Tempo, 300000
1, 190544, Tempo, 296296
1, 191024, Tempo, 293399
1, 191264, Tempo, 352941
1, 191504, Tempo, 312500
1, 191984, Tempo, 304569
1, 192464, Tempo, 311688
1, 192480, Tempo, 315789
1, 192944, Tempo, 306905
1, 192960, Tempo, 312500
1, 193440, Tempo, 318302
1, 193920, Tempo, 325203
1, 194400, Tempo, 330579
1, 195840, Tempo, 300000
1, 196320, Tempo, 296296
1, 196800, Tempo, 293399
1, 197040, Tempo, 352941
1, 197280, Tempo, 312500
1, 197760, Tempo, 304569
1, 198240, Tempo, 319149
1, 198720, Tempo, 314136
1, 199200, Tempo, 303797
1, 199680, Tempo, 307692
1, 200160, Tempo, 300000
1, 200640, Tempo, 296296
1, 201120, Tempo, 293399
1, 201360, Tempo, 352941
1, 201584, Tempo, 300000
1, 202064, Tempo, 296296
1, 202544, Tempo, 293399
1, 202784, Tempo, 352941
1, 203024, Tempo, 312500
1, 203504, Tempo, 304569
1, 203984, Tempo, 311688
1, 204000, Tempo, 315789
1, 204464, Tempo, 306905
1, 204480, Tempo, 312500
1, 204960, Tempo, 318302
1, 205440, Tempo, 330579
1, 205920, Tempo, 336134
1, 206400, Tempo, 330579
1, 207360, Tempo, 300752
1, 207840, Tempo, 298507
1, 208560, Tempo, 316623
1, 208800, Tempo, 307692
1, 209280, Tempo, 306122
1, 209760, Tempo, 317460
1, 210240, Tempo, 300752
1, 210720, Tempo, 298507
1, 211200, Tempo, 304569
1, 211440, Tempo, 316623
1, 211680, Tempo, 307692
1, 212160, Tempo, 306122
1, 212640, Tempo, 314136
1, 213120, Tempo, 300752
1, 213600, Tempo, 298507
1, 214320, Tempo, 316623
1, 214560, Tempo, 311688
1, 215040, Tempo, 309278
1, 215520, Tempo, 325203
1, 216000, Tempo, 330579
1, 216440, Tempo, 313316
1, 216480, Tempo, 337079
1, 216520, Tempo, 339943
1, 216560, Tempo, 343840
1, 216600, Tempo, 347826
1, 216640, Tempo, 350877
1, 216680, Tempo, 355030
1, 216720, Tempo, 359281
1, 216760, Tempo, 362538
1, 216800, Tempo, 366972
1, 216840, Tempo, 371517
1, 216880, Tempo, 375000
1, 216920, Tempo, 379747
1, 216960, Tempo, 384615
1, 217000, Tempo, 388350
1, 217040, Tempo, 393443
1, 217080, Tempo, 398671
1, 217120, Tempo, 402685
1, 217160, Tempo, 408163
1, 217200, Tempo, 413793
1, 217440, Tempo, 316623
1, 218400, Tempo, 326975
1, 218880, Tempo, 300000
1, 219360, Tempo, 296296
1, 219840, Tempo, 293399
1, 220080, Tempo, 352941
1, 220320, Tempo, 312500
1, 220800, Tempo, 304569
1, 221280, Tempo, 314961
1, 221760, Tempo, 313316
1, 222240, Tempo, 303797
1, 222720, Tempo, 307692
1, 223200, Tempo, 300000
1, 223680, Tempo, 296296
1, 224160, Tempo, 293399
1, 224400, Tempo, 352941
1, 224624, Tempo, 300000
1, 225104, Tempo, 296296
1, 225584, Tempo, 293399
1, 225824, Tempo, 352941
1, 226064, Tempo, 312500
1, 226544, Tempo, 304569
1, 227024, Tempo, 311688
1, 227040, Tempo, 315789
1, 227504, Tempo, 306905
1, 227520, Tempo, 312500
1, 228000, Tempo, 321716
1, 228480, Tempo, 329670
1, 228960, Tempo, 336134
1, 229440, Tempo, 330579
1, 230400, Tempo, 325556
1, 230880, Tempo, 318370
1, 231360, Tempo, 314037
1, 231600, Tempo, 327404
1, 231840, Tempo, 320137
1, 232320, Tempo, 316623
1, 232800, Tempo, 313185
1, 233280, Tempo, 325556
1, 233760, Tempo, 318370
1, 234240, Tempo, 314037
1, 234480, Tempo, 327404
1, 234720, Tempo, 320137
1, 235200, Tempo, 316623
1, 235680, Tempo, 338581
1, 237600, Tempo, 323729
1, 237760, Tempo, 322824
1, 237920, Tempo, 321923
1, 238080, Tempo, 321027
1, 238240, Tempo, 320137
1, 238400, Tempo, 319251
1, 238520, Tempo, 318370
1, 239040, Tempo, 322824
1, 239520, Tempo, 317494
1, 240000, Tempo, 324640
1, 240480, Tempo, 328767
1, 240960, Tempo, 326087
1, 241920, Tempo, 323729
1, 242080, Tempo, 322824
1, 242240, Tempo, 321923
1, 242400, Tempo, 321027
1, 242560, Tempo, 320137
1, 242720, Tempo, 319251
1, 242840, Tempo, 318370
1, 243360, Tempo, 326477
1, 243840, Tempo, 322824
1, 244320, Tempo, 336003
1, 244800, Tempo, 338964
1, 245300, Tempo, 337079
1, 245420, Tempo, 338028
1, 245540, Tempo, 338983
1, 245660, Tempo, 339943
1, 245740, Tempo, 340909
1, 245860, Tempo, 341880
1, 245980, Tempo, 342857
1, 246100, Tempo, 343840
1, 246180, Tempo, 344828
1, 246220, Tempo, 344828
1, 246380, Tempo, 345821
1, 246500, Tempo, 346821
1, 246660, Tempo, 347826
1, 246780, Tempo, 348837
1, 246900, Tempo, 349854
1, 247060, Tempo, 350877
1, 247440, Tempo, 363636
1, 247680, Tempo, 325556
1, 248160, Tempo, 318370
1, 248640, Tempo, 314037
1, 248880, Tempo, 327404
1, 249120, Tempo, 320137
1, 249600, Tempo, 316623
1, 250080, Tempo, 313185
1, 250560, Tempo, 325556
1, 251040, Tempo, 318370
1, 251520, Tempo, 314037
1, 251760, Tempo, 327404
1, 252000, Tempo, 320137
1, 252480, Tempo, 316623
1, 252960, Tempo, 338581
1, 254880, Tempo, 323729
1, 255040, Tempo, 322824
1, 255200, Tempo, 321923
1, 255360, Tempo, 321027
1, 255520, Tempo, 320137
1, 255680, Tempo, 319251
1, 255800, Tempo, 318370
1, 256320, Tempo, 322824
1, 256800, Tempo, 317494
1, 257280, Tempo, 324640
1, 257760, Tempo, 318370
1, 258240, Tempo, 323450
1, 259200, Tempo, 323729
1, 259360, Tempo, 322824
1, 259520, Tempo, 321923
1, 259680, Tempo, 321027
1, 259840, Tempo, 320137
1, 260000, Tempo, 319251
1, 260120, Tempo, 318370
1, 260640, Tempo, 326477
1, 261120, Tempo, 322824
1, 261600, Tempo, 336003
1, 262080, Tempo, 338964
1, 262580, Tempo, 337079
1, 262700, Tempo, 338028
1, 262820, Tempo, 338983
1, 262940, Tempo, 339943
1, 263020, Tempo, 340909
1, 263140, Tempo, 341880
1, 263260, Tempo, 342857
1, 263380, Tempo, 343840
1, 263460, Tempo, 344828
1, 263500, Tempo, 344828
1, 263660, Tempo, 345821
1, 263780, Tempo, 346821
1, 263940, Tempo, 347826
1, 264060, Tempo, 348837
1, 264180, Tempo, 349854
1, 264340, Tempo, 350877
1, 264460, Tempo, 351906
1, 264620, Tempo, 352941
1, 264720, Tempo, 400000
1, 264960, Tempo, 300000
1, 264974, Tempo, 306717
1, 265440, Tempo, 302923
1, 265920, Tempo, 304569
1, 266400, Tempo, 316189
1, 266920, Tempo, 311381
1, 267360, Tempo, 315391
1, 267840, Tempo, 306717
1, 268320, Tempo, 301432
1, 268800, Tempo, 303797
1, 269280, Tempo, 316189
1, 269760, Tempo, 311381
1, 270240, Tempo, 313775
1, 270720, Tempo, 306717
1, 271200, Tempo, 302176
1, 271680, Tempo, 297767
1, 272160, Tempo, 306122
1, 272640, Tempo, 304569
1, 273120, Tempo, 311381
1, 273600, Tempo, 304429
1, 274080, Tempo, 303674
1, 274560, Tempo, 306717
1, 275040, Tempo, 309023
1, 275520, Tempo, 302923
1, 276000, Tempo, 306717
1, 276480, Tempo, 320000
1, 276900, Tempo, 296296
1, 276960, Tempo, 294840
1, 277440, Tempo, 304569
1, 277920, Tempo, 306122
1, 278400, Tempo, 298507
1, 278880, Tempo, 305344
1, 279360, Tempo, 296296
1, 279840, Tempo, 302267
1, 280320, Tempo, 296296
1, 280800, Tempo, 305344
1, 281280, Tempo, 298507
1, 281760, Tempo, 300000
1, 282240, Tempo, 298507
1, 282720, Tempo, 300000
1, 283200, Tempo, 298507
1, 283680, Tempo, 306122
1, 283920, Tempo, 300000
1, 284880, Tempo, 306122
1, 285120, Tempo, 303797
1, 285360, Tempo, 298507
1, 286080, Tempo, 301508
1, 286320, Tempo, 306122
1, 290880, Tempo, 315789
1, 290880, End_track
2, 0, Start_track
2, 0, MIDI_port, 0
2, 0, Title_t, "Piano right"
2, 0, Program_c, 0, 0
2, 0, Control_c, 0, 7, 100
2, 0, Note_on_c, 0, 62, 82
2, 0, Control_c, 0, 91, 127
2, 0, Text_t, "bdca426d104a26ac9dcb070447587523"
2, 480, Note_on_c, 0, 62, 0
2, 480, Note_on_c, 0, 64, 78
2, 600, Note_on_c, 0, 64, 0
2, 720, Note_on_c, 0, 62, 75
2, 840, Note_on_c, 0, 62, 0
2, 960, Note_on_c, 0, 61, 79
2, 1080, Note_on_c, 0, 61, 0
2, 1200, Note_on_c, 0, 62, 73
2, 1320, Note_on_c, 0, 62, 0
2, 1440, Note_on_c, 0, 64, 81
2, 1560, Note_on_c, 0, 64, 0
2, 1920, Note_on_c, 0, 67, 75
2, 2040, Note_on_c, 0, 67, 0
2, 2400, Note_on_c, 0, 66, 73
2, 2520, Note_on_c, 0, 66, 0
2, 2880, Note_on_c, 0, 62, 82
2, 3300, Note_on_c, 0, 62, 0
2, 3300, Note_on_c, 0, 66, 71
2, 3360, Note_on_c, 0, 66, 0
2, 3360, Note_on_c, 0, 64, 75
2, 3480, Note_on_c, 0, 64, 0
2, 3600, Note_on_c, 0, 62, 73
2, 3720, Note_on_c, 0, 62, 0
2, 3840, Note_on_c, 0, 61, 77
2, 3960, Note_on_c, 0, 61, 0
2, 4080, Note_on_c, 0, 62, 71
2, 4200, Note_on_c, 0, 62, 0
2, 4320, Note_on_c, 0, 64, 80
2, 4440, Note_on_c, 0, 64, 0
2, 4800, Note_on_c, 0, 67, 74
2, 4920, Note_on_c, 0, 67, 0
2, 5280, Note_on_c, 0, 66, 73
2, 5400, Note_on_c, 0, 66, 0
2, 5760, Note_on_c, 0, 62, 80
2, 6240, Note_on_c, 0, 62, 0
2, 6240, Note_on_c, 0, 64, 73
2, 6480, Note_on_c, 0, 64, 0
2, 6480, Note_on_c, 0, 66, 74
2, 6720, Note_on_c, 0, 66, 0
2, 6720, Note_on_c, 0, 69, 77
2, 6960, Note_on_c, 0, 69, 0
2, 6960, Note_on_c, 0, 72, 78
2, 7200, Note_on_c, 0, 72, 0
2, 7200, Note_on_c, 0, 76, 79
2, 7680, Note_on_c, 0, 76, 0
2, 7680, Note_on_c, 0, 79, 78
2, 8160, Note_on_c, 0, 79, 0
2, 8160, Note_on_c, 0, 78, 78
2, 8640, Note_on_c, 0, 78, 0
2, 8640, Note_on_c, 0, 62, 60
2, 8640, Note_on_c, 0, 66, 60
2, 8640, Note_on_c, 0, 78, 79
2, 9120, Note_on_c, 0, 78, 0
2, 9120, Note_on_c, 0, 66, 0
2, 9120, Note_on_c, 0, 62, 0
2, 9120, Note_on_c, 0, 79, 72
2, 9120, Note_on_c, 0, 67, 57
2, 9360, Note_on_c, 0, 67, 0
2, 9360, Note_on_c, 0, 79, 0
2, 9360, Note_on_c, 0, 66, 57
2, 9360, Note_on_c, 0, 78, 72
2, 9600, Note_on_c, 0, 78, 0
2, 9600, Note_on_c, 0, 66, 0
2, 9600, Note_on_c, 0, 76, 71
2, 9600, Note_on_c, 0, 64, 56
2, 9840, Note_on_c, 0, 64, 0
2, 9840, Note_on_c, 0, 76, 0
2, 9840, Note_on_c, 0, 62, 56
2, 9840, Note_on_c, 0, 74, 71
2, 10080, Note_on_c, 0, 74, 0
2, 10080, Note_on_c, 0, 62, 0
2, 10080, Note_on_c, 0, 67, 70
2, 10080, Note_on_c, 0, 73, 77
2, 10500, Note_on_c, 0, 73, 0
2, 10500, Note_on_c, 0, 67, 0
2, 10500, Note_on_c, 0, 74, 64
2, 10560, Note_on_c, 0, 74, 0
2, 10560, Note_on_c, 0, 73, 73
2, 10800, Note_on_c, 0, 73, 0
2, 10800, Note_on_c, 0, 69, 67
2, 11040, Note_on_c, 0, 69, 0
2, 11040, Note_on_c, 0, 71, 72
2, 11280, Note_on_c, 0, 71, 0
2, 11280, Note_on_c, 0, 73, 69
2, 11520, Note_on_c, 0, 73, 0
2, 11520, Note_on_c, 0, 66, 74
2, 11520, Note_on_c, 0, 74, 74
2, 12000, Note_on_c, 0, 74, 0
2, 12000, Note_on_c, 0, 66, 0
2, 12000, Note_on_c, 0, 64, 78
2, 12120, Note_on_c, 0, 64, 0
2, 12240, Note_on_c, 0, 62, 75
2, 12360, Note_on_c, 0, 62, 0
2, 12480, Note_on_c, 0, 61, 79
2, 12600, Note_on_c, 0, 61, 0
2, 12720, Note_on_c, 0, 62, 73
2, 12840, Note_on_c, 0, 62, 0
2, 12960, Note_on_c, 0, 64, 81
2, 13080, Note_on_c, 0, 64, 0
2, 13440, Note_on_c, 0, 67, 74
2, 13560, Note_on_c, 0, 67, 0
2, 13920, Note_on_c, 0, 66, 73
2, 14040, Note_on_c, 0, 66, 0
2, 14400, Note_on_c, 0, 62, 82
2, 14820, Note_on_c, 0, 62, 0
2, 14820, Note_on_c, 0, 66, 71
2, 14880, Note_on_c, 0, 66, 0
2, 14880, Note_on_c, 0, 64, 75
2, 15000, Note_on_c, 0, 64, 0
2, 15120, Note_on_c, 0, 62, 73
2, 15240, Note_on_c, 0, 62, 0
2, 15360, Note_on_c, 0, 61, 77
2, 15480, Note_on_c, 0, 61, 0
2, 15600, Note_on_c, 0, 62, 71
2, 15720, Note_on_c, 0, 62, 0
2, 15840, Note_on_c, 0, 64, 80
2, 15960, Note_on_c, 0, 64, 0
2, 16320, Note_on_c, 0, 67, 74
2, 16440, Note_on_c, 0, 67, 0
2, 16800, Note_on_c, 0, 66, 73
2, 16920, Note_on_c, 0, 66, 0
2, 17280, Note_on_c, 0, 62, 80
2, 17760, Note_on_c, 0, 62, 0
2, 17760, Note_on_c, 0, 64, 73
2, 18000, Note_on_c, 0, 64, 0
2, 18000, Note_on_c, 0, 66, 74
2, 18240, Note_on_c, 0, 66, 0
2, 18240, Note_on_c, 0, 69, 77
2, 18480, Note_on_c, 0, 69, 0
2, 18480, Note_on_c, 0, 72, 78
2, 18720, Note_on_c, 0, 72, 0
2, 18720, Note_on_c, 0, 76, 79
2, 19200, Note_on_c, 0, 76, 0
2, 19200, Note_on_c, 0, 79, 78
2, 19680, Note_on_c, 0, 79, 0
2, 19680, Note_on_c, 0, 78, 78
2, 20160, Note_on_c, 0, 78, 0
2, 20160, Note_on_c, 0, 62, 60
2, 20160, Note_on_c, 0, 78, 79
2, 20160, Note_on_c, 0, 66, 60
2, 20640, Note_on_c, 0, 66, 0
2, 20640, Note_on_c, 0, 78, 0
2, 20640, Note_on_c, 0, 62, 0
2, 20640, Note_on_c, 0, 67, 57
2, 20640, Note_on_c, 0, 79, 72
2, 20880, Note_on_c, 0, 79, 0
2, 20880, Note_on_c, 0, 67, 0
2, 20880, Note_on_c, 0, 66, 57
2, 20880, Note_on_c, 0, 78, 72
2, 21120, Note_on_c, 0, 78, 0
2, 21120, Note_on_c, 0, 66, 0
2, 21120, Note_on_c, 0, 76, 71
2, 21120, Note_on_c, 0, 64, 56
2, 21360, Note_on_c, 0, 64, 0
2, 21360, Note_on_c, 0, 76, 0
2, 21360, Note_on_c, 0, 62, 56
2, 21360, Note_on_c, 0, 74, 71
2, 21600, Note_on_c, 0, 74, 0
2, 21600, Note_on_c, 0, 62, 0
2, 21600, Note_on_c, 0, 73, 77
2, 21600, Note_on_c, 0, 67, 70
2, 22020, Note_on_c, 0, 67, 0
2, 22020, Note_on_c, 0, 73, 0
2, 22020, Note_on_c, 0, 74, 64
2, 22080, Note_on_c, 0, 74, 0
2, 22080, Note_on_c, 0, 73, 73
2, 22320, Note_on_c, 0, 73, 0
2, 22320, Note_on_c, 0, 69, 67
2, 22560, Note_on_c, 0, 69, 0
2, 22560, Note_on_c, 0, 71, 72
2, 22800, Note_on_c, 0, 71, 0
2, 22800, Note_on_c, 0, 73, 69
2, 23040, Note_on_c, 0, 73, 0
2, 23040, Note_on_c, 0, 66, 74
2, 23040, Note_on_c, 0, 74, 74
2, 23460, Note_on_c, 0, 74, 0
2, 23460, Note_on_c, 0, 66, 0
2, 23460, Note_on_c, 0, 64, 73
2, 23520, Note_on_c, 0, 64, 0
2, 23520, Note_on_c, 0, 62, 78
2, 23640, Note_on_c, 0, 62, 0
2, 23760, Note_on_c, 0, 61, 75
2, 23880, Note_on_c, 0, 61, 0
2, 24000, Note_on_c, 0, 62, 79
2, 24120, Note_on_c, 0, 62, 0
2, 24480, Note_on_c, 0, 62, 74
2, 24600, Note_on_c, 0, 62, 0
2, 24960, Note_on_c, 0, 69, 78
2, 25080, Note_on_c, 0, 69, 0
2, 25200, Note_on_c, 0, 66, 75
2, 25320, Note_on_c, 0, 66, 0
2, 25440, Note_on_c, 0, 62, 79
2, 25560, Note_on_c, 0, 62, 0
2, 25860, Note_on_c, 0, 76, 64
2, 25920, Note_on_c, 0, 76, 0
2, 25920, Note_on_c, 0, 86, 64
2, 25920, Note_on_c, 0, 74, 55
2, 26040, Note_on_c, 0, 74, 0
2, 26040, Note_on_c, 0, 86, 0
2, 26160, Note_on_c, 0, 73, 50
2, 26160, Note_on_c, 0, 85, 60
2, 26280, Note_on_c, 0, 85, 0
2, 26280, Note_on_c, 0, 73, 0
2, 26400, Note_on_c, 0, 86, 63
2, 26400, Note_on_c, 0, 74, 53
2, 26520, Note_on_c, 0, 74, 0
2, 26520, Note_on_c, 0, 86, 0
2, 26880, Note_on_c, 0, 74, 52
2, 26880, Note_on_c, 0, 86, 62
2, 27000, Note_on_c, 0, 86, 0
2, 27000, Note_on_c, 0, 74, 0
2, 27120, Note_on_c, 0, 73, 49
2, 27120, Note_on_c, 0, 85, 59
2, 27240, Note_on_c, 0, 85, 0
2, 27240, Note_on_c, 0, 73, 0
2, 27360, Note_on_c, 0, 74, 52
2, 27360, Note_on_c, 0, 86, 62
2, 27480, Note_on_c, 0, 86, 0
2, 27480, Note_on_c, 0, 74, 0
2, 27840, Note_on_c, 0, 83, 59
2, 28080, Note_on_c, 0, 83, 0
2, 28080, Note_on_c, 0, 79, 56
2, 28320, Note_on_c, 0, 79, 0
2, 28320, Note_on_c, 0, 74, 59
2, 28680, Note_on_c, 0, 74, 0
2, 28800, Note_on_c, 0, 74, 59
2, 29040, Note_on_c, 0, 74, 0
2, 29040, Note_on_c, 0, 76, 59
2, 29280, Note_on_c, 0, 76, 0
2, 29280, Note_on_c, 0, 77, 63
2, 29640, Note_on_c, 0, 77, 0
2, 29640, Note_on_c, 0, 76, 52
2, 29700, Note_on_c, 0, 76, 0
2, 29700, Note_on_c, 0, 77, 49
2, 29760, Note_on_c, 0, 77, 0
2, 29760, Note_on_c, 0, 76, 59
2, 30000, Note_on_c, 0, 76, 0
2, 30000, Note_on_c, 0, 74, 59
2, 30240, Note_on_c, 0, 74, 0
2, 30240, Note_on_c, 0, 72, 58
2, 30360, Note_on_c, 0, 72, 0
2, 30720, Note_on_c, 0, 81, 63
2, 30960, Note_on_c, 0, 81, 0
2, 30960, Note_on_c, 0, 78, 57
2, 31200, Note_on_c, 0, 78, 0
2, 31200, Note_on_c, 0, 72, 59
2, 31320, Note_on_c, 0, 72, 0
2, 31680, Note_on_c, 0, 70, 59
2, 31800, Note_on_c, 0, 70, 0
2, 32160, Note_on_c, 0, 79, 63
2, 32400, Note_on_c, 0, 79, 0
2, 32400, Note_on_c, 0, 74, 57
2, 32640, Note_on_c, 0, 74, 0
2, 32640, Note_on_c, 0, 70, 59
2, 32760, Note_on_c, 0, 70, 0
2, 33120, Note_on_c, 0, 69, 59
2, 34560, Note_on_c, 0, 69, 0
2, 34560, Note_on_c, 0, 66, 74
2, 34560, Note_on_c, 0, 74, 74
2, 34980, Note_on_c, 0, 74, 0
2, 34980, Note_on_c, 0, 66, 0
2, 34980, Note_on_c, 0, 64, 73
2, 35040, Note_on_c, 0, 64, 0
2, 35040, Note_on_c, 0, 62, 78
2, 35160, Note_on_c, 0, 62, 0
2, 35280, Note_on_c, 0, 61, 75
2, 35400, Note_on_c, 0, 61, 0
2, 35520, Note_on_c, 0, 62, 79
2, 35640, Note_on_c, 0, 62, 0
2, 36000, Note_on_c, 0, 62, 74
2, 36120, Note_on_c, 0, 62, 0
2, 36480, Note_on_c, 0, 69, 78
2, 36600, Note_on_c, 0, 69, 0
2, 36720, Note_on_c, 0, 66, 75
2, 36840, Note_on_c, 0, 66, 0
2, 36960, Note_on_c, 0, 62, 79
2, 37080, Note_on_c, 0, 62, 0
2, 37380, Note_on_c, 0, 76, 64
2, 37440, Note_on_c, 0, 76, 0
2, 37440, Note_on_c, 0, 86, 64
2, 37440, Note_on_c, 0, 74, 55
2, 37560, Note_on_c, 0, 74, 0
2, 37560, Note_on_c, 0, 86, 0
2, 37680, Note_on_c, 0, 73, 50
2, 37680, Note_on_c, 0, 85, 60
2, 37800, Note_on_c, 0, 85, 0
2, 37800, Note_on_c, 0, 73, 0
2, 37920, Note_on_c, 0, 74, 53
2, 37920, Note_on_c, 0, 86, 63
2, 38040, Note_on_c, 0, 86, 0
2, 38040, Note_on_c, 0, 74, 0
2, 38400, Note_on_c, 0, 86, 62
2, 38400, Note_on_c, 0, 74, 52
2, 38520, Note_on_c, 0, 74, 0
2, 38520, Note_on_c, 0, 86, 0
2, 38640, Note_on_c, 0, 73, 49
2, 38640, Note_on_c, 0, 85, 59
2, 38760, Note_on_c, 0, 85, 0
2, 38760, Note_on_c, 0, 73, 0
2, 38880, Note_on_c, 0, 86, 62
2, 38880, Note_on_c, 0, 74, 52
2, 39000, Note_on_c, 0, 74, 0
2, 39000, Note_on_c, 0, 86, 0
2, 39360, Note_on_c, 0, 83, 59
2, 39600, Note_on_c, 0, 83, 0
2, 39600, Note_on_c, 0, 79, 56
2, 39840, Note_on_c, 0, 79, 0
2, 39840, Note_on_c, 0, 74, 59
2, 40200, Note_on_c, 0, 74, 0
2, 40320, Note_on_c, 0, 74, 59
2, 40560, Note_on_c, 0, 74, 0
2, 40560, Note_on_c, 0, 76, 59
2, 40800, Note_on_c, 0, 76, 0
2, 40800, Note_on_c, 0, 77, 63
2, 41160, Note_on_c, 0, 77, 0
2, 41160, Note_on_c, 0, 76, 52
2, 41220, Note_on_c, 0, 76, 0
2, 41220, Note_on_c, 0, 77, 49
2, 41280, Note_on_c, 0, 77, 0
2, 41280, Note_on_c, 0, 76, 59
2, 41520, Note_on_c, 0, 76, 0
2, 41520, Note_on_c, 0, 74, 59
2, 41760, Note_on_c, 0, 74, 0
2, 41760, Note_on_c, 0, 72, 58
2, 41880, Note_on_c, 0, 72, 0
2, 42240, Note_on_c, 0, 81, 63
2, 42480, Note_on_c, 0, 81, 0
2, 42480, Note_on_c, 0, 78, 57
2, 42720, Note_on_c, 0, 78, 0
2, 42720, Note_on_c, 0, 72, 59
2, 42840, Note_on_c, 0, 72, 0
2, 43200, Note_on_c, 0, 70, 59
2, 43320, Note_on_c, 0, 70, 0
2, 43680, Note_on_c, 0, 79, 63
2, 43920, Note_on_c, 0, 79, 0
2, 43920, Note_on_c, 0, 74, 57
2, 44160, Note_on_c, 0, 74, 0
2, 44160, Note_on_c, 0, 70, 59
2, 44280, Note_on_c, 0, 70, 0
2, 44640, Note_on_c, 0, 69, 59
2, 46080, Note_on_c, 0, 69, 0
2, 51840, Note_on_c, 0, 62, 59
2, 52080, Note_on_c, 0, 62, 0
2, 52260, Note_on_c, 0, 66, 49
2, 52320, Note_on_c, 0, 66, 0
2, 52320, Note_on_c, 0, 64, 55
2, 52560, Note_on_c, 0, 64, 0
2, 52560, Note_on_c, 0, 62, 53
2, 52800, Note_on_c, 0, 62, 0
2, 52800, Note_on_c, 0, 61, 56
2, 53040, Note_on_c, 0, 61, 0
2, 53040, Note_on_c, 0, 62, 51
2, 53280, Note_on_c, 0, 62, 0
2, 53280, Note_on_c, 0, 64, 58
2, 53400, Note_on_c, 0, 64, 0
2, 53760, Note_on_c, 0, 55, 49
2, 53760, Note_on_c, 0, 59, 49
2, 53760, Note_on_c, 0, 64, 49
2, 53760, Note_on_c, 0, 67, 53
2, 53880, Note_on_c, 0, 67, 0
2, 53880, Note_on_c, 0, 55, 0
2, 53880, Note_on_c, 0, 59, 0
2, 53880, Note_on_c, 0, 64, 0
2, 54240, Note_on_c, 0, 54, 42
2, 54240, Note_on_c, 0, 61, 42
2, 54240, Note_on_c, 0, 64, 42
2, 54240, Note_on_c, 0, 66, 51
2, 54360, Note_on_c, 0, 66, 0
2, 54360, Note_on_c, 0, 54, 0
2, 54360, Note_on_c, 0, 61, 0
2, 54360, Note_on_c, 0, 64, 0
2, 54720, Note_on_c, 0, 62, 58
2, 54840, Note_on_c, 0, 62, 0
2, 55200, Note_on_c, 0, 54, 46
2, 55200, Note_on_c, 0, 59, 46
2, 55200, Note_on_c, 0, 62, 46
2, 55200, Note_on_c, 0, 66, 55
2, 55320, Note_on_c, 0, 66, 0
2, 55320, Note_on_c, 0, 54, 0
2, 55320, Note_on_c, 0, 59, 0
2, 55320, Note_on_c, 0, 62, 0
2, 55680, Note_on_c, 0, 59, 42
2, 55680, Note_on_c, 0, 62, 42
2, 55680, Note_on_c, 0, 64, 51
2, 55800, Note_on_c, 0, 64, 0
2, 55800, Note_on_c, 0, 62, 0
2, 55800, Note_on_c, 0, 59, 0
2, 56160, Note_on_c, 0, 61, 59
2, 56400, Note_on_c, 0, 61, 0
2, 56580, Note_on_c, 0, 62, 49
2, 56640, Note_on_c, 0, 62, 0
2, 56640, Note_on_c, 0, 61, 55
2, 56880, Note_on_c, 0, 61, 0
2, 56880, Note_on_c, 0, 59, 53
2, 57120, Note_on_c, 0, 59, 0
2, 57120, Note_on_c, 0, 61, 56
2, 57360, Note_on_c, 0, 61, 0
2, 57584, Note_on_c, 0, 62, 59
2, 57824, Note_on_c, 0, 62, 0
2, 58004, Note_on_c, 0, 66, 49
2, 58064, Note_on_c, 0, 66, 0
2, 58064, Note_on_c, 0, 64, 55
2, 58304, Note_on_c, 0, 64, 0
2, 58304, Note_on_c, 0, 62, 53
2, 58544, Note_on_c, 0, 62, 0
2, 58544, Note_on_c, 0, 61, 56
2, 58784, Note_on_c, 0, 61, 0
2, 58784, Note_on_c, 0, 62, 51
2, 59024, Note_on_c, 0, 62, 0
2, 59024, Note_on_c, 0, 64, 58
2, 59144, Note_on_c, 0, 64, 0
2, 59504, Note_on_c, 0, 55, 49
2, 59504, Note_on_c, 0, 59, 49
2, 59504, Note_on_c, 0, 64, 49
2, 59504, Note_on_c, 0, 67, 53
2, 59624, Note_on_c, 0, 67, 0
2, 59624, Note_on_c, 0, 55, 0
2, 59624, Note_on_c, 0, 59, 0
2, 59624, Note_on_c, 0, 64, 0
2, 59984, Note_on_c, 0, 54, 42
2, 59984, Note_on_c, 0, 61, 42
2, 59984, Note_on_c, 0, 64, 42
2, 59984, Note_on_c, 0, 66, 51
2, 60104, Note_on_c, 0, 66, 0
2, 60104, Note_on_c, 0, 54, 0
2, 60104, Note_on_c, 0, 61, 0
2, 60104, Note_on_c, 0, 64, 0
2, 60480, Note_on_c, 0, 62, 58
2, 60480, Note_on_c, 0, 59, 58
2, 60600, Note_on_c, 0, 59, 0
2, 60600, Note_on_c, 0, 62, 0
2, 60960, Note_on_c, 0, 62, 55
2, 60960, Note_on_c, 0, 59, 46
2, 61080, Note_on_c, 0, 59, 0
2, 61080, Note_on_c, 0, 62, 0
2, 61200, Note_on_c, 0, 64, 50
2, 61320, Note_on_c, 0, 64, 0
2, 61440, Note_on_c, 0, 61, 59
2, 61440, Note_on_c, 0, 57, 59
2, 61560, Note_on_c, 0, 57, 0
2, 61680, Note_on_c, 0, 55, 52
2, 61800, Note_on_c, 0, 55, 0
2, 61920, Note_on_c, 0, 61, 0
2, 61920, Note_on_c, 0, 62, 64
2, 62160, Note_on_c, 0, 62, 0
2, 62400, Note_on_c, 0, 74, 77
2, 62400, Note_on_c, 0, 66, 64
2, 62640, Note_on_c, 0, 66, 0
2, 62640, Note_on_c, 0, 74, 0
2, 63360, Note_on_c, 0, 62, 59
2, 63600, Note_on_c, 0, 62, 0
2, 63780, Note_on_c, 0, 66, 49
2, 63840, Note_on_c, 0, 66, 0
2, 63840, Note_on_c, 0, 64, 55
2, 64080, Note_on_c, 0, 64, 0
2, 64080, Note_on_c, 0, 62, 53
2, 64320, Note_on_c, 0, 62, 0
2, 64320, Note_on_c, 0, 61, 56
2, 64560, Note_on_c, 0, 61, 0
2, 64560, Note_on_c, 0, 62, 51
2, 64800, Note_on_c, 0, 62, 0
2, 64800, Note_on_c, 0, 64, 58
2, 64920, Note_on_c, 0, 64, 0
2, 65280, Note_on_c, 0, 55, 49
2, 65280, Note_on_c, 0, 59, 49
2, 65280, Note_on_c, 0, 64, 49
2, 65280, Note_on_c, 0, 67, 53
2, 65400, Note_on_c, 0, 67, 0
2, 65400, Note_on_c, 0, 55, 0
2, 65400, Note_on_c, 0, 59, 0
2, 65400, Note_on_c, 0, 64, 0
2, 65760, Note_on_c, 0, 54, 42
2, 65760, Note_on_c, 0, 61, 42
2, 65760, Note_on_c, 0, 64, 42
2, 65760, Note_on_c, 0, 66, 51
2, 65880, Note_on_c, 0, 66, 0
2, 65880, Note_on_c, 0, 54, 0
2, 65880, Note_on_c, 0, 61, 0
2, 65880, Note_on_c, 0, 64, 0
2, 66240, Note_on_c, 0, 62, 58
2, 66360, Note_on_c, 0, 62, 0
2, 66720, Note_on_c, 0, 54, 46
2, 66720, Note_on_c, 0, 59, 46
2, 66720, Note_on_c, 0, 62, 46
2, 66720, Note_on_c, 0, 66, 55
2, 66840, Note_on_c, 0, 66, 0
2, 66840, Note_on_c, 0, 54, 0
2, 66840, Note_on_c, 0, 59, 0
2, 66840, Note_on_c, 0, 62, 0
2, 67200, Note_on_c, 0, 59, 42
2, 67200, Note_on_c, 0, 62, 42
2, 67200, Note_on_c, 0, 64, 51
2, 67320, Note_on_c, 0, 64, 0
2, 67320, Note_on_c, 0, 62, 0
2, 67320, Note_on_c, 0, 59, 0
2, 67680, Note_on_c, 0, 61, 59
2, 67920, Note_on_c, 0, 61, 0
2, 68100, Note_on_c, 0, 62, 49
2, 68160, Note_on_c, 0, 62, 0
2, 68160, Note_on_c, 0, 61, 55
2, 68400, Note_on_c, 0, 61, 0
2, 68400, Note_on_c, 0, 59, 53
2, 68640, Note_on_c, 0, 59, 0
2, 68640, Note_on_c, 0, 61, 56
2, 68880, Note_on_c, 0, 61, 0
2, 69104, Note_on_c, 0, 62, 59
2, 69344, Note_on_c, 0, 62, 0
2, 69524, Note_on_c, 0, 66, 49
2, 69584, Note_on_c, 0, 66, 0
2, 69584, Note_on_c, 0, 64, 55
2, 69824, Note_on_c, 0, 64, 0
2, 69824, Note_on_c, 0, 62, 53
2, 70064, Note_on_c, 0, 62, 0
2, 70064, Note_on_c, 0, 61, 56
2, 70304, Note_on_c, 0, 61, 0
2, 70304, Note_on_c, 0, 62, 51
2, 70544, Note_on_c, 0, 62, 0
2, 70544, Note_on_c, 0, 64, 58
2, 70664, Note_on_c, 0, 64, 0
2, 71024, Note_on_c, 0, 55, 49
2, 71024, Note_on_c, 0, 59, 49
2, 71024, Note_on_c, 0, 64, 49
2, 71024, Note_on_c, 0, 67, 53
2, 71144, Note_on_c, 0, 67, 0
2, 71144, Note_on_c, 0, 55, 0
2, 71144, Note_on_c, 0, 59, 0
2, 71144, Note_on_c, 0, 64, 0
2, 71504, Note_on_c, 0, 54, 42
2, 71504, Note_on_c, 0, 61, 42
2, 71504, Note_on_c, 0, 64, 42
2, 71504, Note_on_c, 0, 66, 51
2, 71624, Note_on_c, 0, 66, 0
2, 71624, Note_on_c, 0, 54, 0
2, 71624, Note_on_c, 0, 61, 0
2, 71624, Note_on_c, 0, 64, 0
2, 72000, Note_on_c, 0, 62, 58
2, 72000, Note_on_c, 0, 59, 58
2, 72120, Note_on_c, 0, 59, 0
2, 72120, Note_on_c, 0, 62, 0
2, 72480, Note_on_c, 0, 62, 55
2, 72480, Note_on_c, 0, 59, 46
2, 72600, Note_on_c, 0, 59, 0
2, 72600, Note_on_c, 0, 62, 0
2, 72720, Note_on_c, 0, 64, 50
2, 72840, Note_on_c, 0, 64, 0
2, 72960, Note_on_c, 0, 61, 59
2, 72960, Note_on_c, 0, 57, 59
2, 73080, Note_on_c, 0, 57, 0
2, 73200, Note_on_c, 0, 55, 52
2, 73320, Note_on_c, 0, 55, 0
2, 73440, Note_on_c, 0, 61, 0
2, 73440, Note_on_c, 0, 62, 64
2, 73680, Note_on_c, 0, 62, 0
2, 73920, Note_on_c, 0, 74, 77
2, 73920, Note_on_c, 0, 66, 64
2, 74160, Note_on_c, 0, 66, 0
2, 74160, Note_on_c, 0, 74, 0
2, 74880, Note_on_c, 0, 74, 57
2, 74880, Note_on_c, 0, 81, 67
2, 75360, Note_on_c, 0, 81, 0
2, 75360, Note_on_c, 0, 83, 59
2, 75600, Note_on_c, 0, 83, 0
2, 75600, Note_on_c, 0, 81, 55
2, 75840, Note_on_c, 0, 81, 0
2, 75840, Note_on_c, 0, 79, 57
2, 76080, Note_on_c, 0, 79, 0
2, 76080, Note_on_c, 0, 81, 53
2, 76320, Note_on_c, 0, 81, 0
2, 76320, Note_on_c, 0, 83, 60
2, 76800, Note_on_c, 0, 83, 0
2, 76800, Note_on_c, 0, 83, 59
2, 77040, Note_on_c, 0, 83, 0
2, 77040, Note_on_c, 0, 86, 55
2, 77280, Note_on_c, 0, 86, 0
2, 77280, Note_on_c, 0, 83, 58
2, 77760, Note_on_c, 0, 83, 0
2, 77760, Note_on_c, 0, 74, 0
2, 77760, Note_on_c, 0, 74, 57
2, 77760, Note_on_c, 0, 81, 67
2, 78240, Note_on_c, 0, 81, 0
2, 78240, Note_on_c, 0, 83, 59
2, 78480, Note_on_c, 0, 83, 0
2, 78480, Note_on_c, 0, 81, 55
2, 78720, Note_on_c, 0, 81, 0
2, 78720, Note_on_c, 0, 79, 57
2, 78960, Note_on_c, 0, 79, 0
2, 78960, Note_on_c, 0, 78, 53
2, 79200, Note_on_c, 0, 78, 0
2, 79200, Note_on_c, 0, 74, 0
2, 79200, Note_on_c, 0, 73, 48
2, 79200, Note_on_c, 0, 76, 60
2, 79680, Note_on_c, 0, 76, 0
2, 79680, Note_on_c, 0, 73, 0
2, 79680, Note_on_c, 0, 73, 45
2, 79680, Note_on_c, 0, 76, 57
2, 79920, Note_on_c, 0, 76, 0
2, 79920, Note_on_c, 0, 73, 0
2, 79920, Note_on_c, 0, 71, 44
2, 79920, Note_on_c, 0, 74, 55
2, 80160, Note_on_c, 0, 74, 0
2, 80160, Note_on_c, 0, 71, 0
2, 80160, Note_on_c, 0, 73, 46
2, 80160, Note_on_c, 0, 76, 58
2, 80640, Note_on_c, 0, 76, 0
2, 80640, Note_on_c, 0, 73, 0
2, 80640, Note_on_c, 0, 74, 57
2, 80640, Note_on_c, 0, 81, 67
2, 81120, Note_on_c, 0, 81, 0
2, 81120, Note_on_c, 0, 83, 59
2, 81360, Note_on_c, 0, 83, 0
2, 81360, Note_on_c, 0, 81, 55
2, 81600, Note_on_c, 0, 81, 0
2, 81600, Note_on_c, 0, 79, 57
2, 81840, Note_on_c, 0, 79, 0
2, 81840, Note_on_c, 0, 81, 53
2, 82080, Note_on_c, 0, 81, 0
2, 82080, Note_on_c, 0, 83, 60
2, 82560, Note_on_c, 0, 83, 0
2, 82560, Note_on_c, 0, 83, 59
2, 82800, Note_on_c, 0, 83, 0
2, 82800, Note_on_c, 0, 86, 55
2, 83040, Note_on_c, 0, 86, 0
2, 83040, Note_on_c, 0, 83, 58
2, 83520, Note_on_c, 0, 83, 0
2, 83520, Note_on_c, 0, 74, 0
2, 83520, Note_on_c, 0, 74, 57
2, 83520, Note_on_c, 0, 81, 67
2, 84000, Note_on_c, 0, 81, 0
2, 84000, Note_on_c, 0, 83, 59
2, 84240, Note_on_c, 0, 83, 0
2, 84240, Note_on_c, 0, 81, 55
2, 84480, Note_on_c, 0, 81, 0
2, 84480, Note_on_c, 0, 79, 57
2, 84720, Note_on_c, 0, 79, 0
2, 84720, Note_on_c, 0, 78, 53
2, 84960, Note_on_c, 0, 78, 0
2, 84960, Note_on_c, 0, 74, 0
2, 84960, Note_on_c, 0, 69, 48
2, 84960, Note_on_c, 0, 73, 48
2, 84960, Note_on_c, 0, 76, 60
2, 86400, Note_on_c, 0, 76, 0
2, 86400, Note_on_c, 0, 73, 0
2, 86400, Note_on_c, 0, 69, 0
2, 86400, Note_on_c, 0, 62, 59
2, 86640, Note_on_c, 0, 62, 0
2, 86820, Note_on_c, 0, 66, 49
2, 86880, Note_on_c, 0, 66, 0
2, 86880, Note_on_c, 0, 64, 55
2, 87120, Note_on_c, 0, 64, 0
2, 87120, Note_on_c, 0, 62, 53
2, 87360, Note_on_c, 0, 62, 0
2, 87360, Note_on_c, 0, 61, 56
2, 87600, Note_on_c, 0, 61, 0
2, 87600, Note_on_c, 0, 62, 51
2, 87840, Note_on_c, 0, 62, 0
2, 87840, Note_on_c, 0, 64, 58
2, 87960, Note_on_c, 0, 64, 0
2, 88320, Note_on_c, 0, 55, 49
2, 88320, Note_on_c, 0, 59, 49
2, 88320, Note_on_c, 0, 64, 49
2, 88320, Note_on_c, 0, 67, 53
2, 88440, Note_on_c, 0, 67, 0
2, 88440, Note_on_c, 0, 55, 0
2, 88440, Note_on_c, 0, 59, 0
2, 88440, Note_on_c, 0, 64, 0
2, 88800, Note_on_c, 0, 54, 42
2, 88800, Note_on_c, 0, 61, 42
2, 88800, Note_on_c, 0, 64, 42
2, 88800, Note_on_c, 0, 66, 51
2, 88920, Note_on_c, 0, 66, 0
2, 88920, Note_on_c, 0, 54, 0
2, 88920, Note_on_c, 0, 61, 0
2, 88920, Note_on_c, 0, 64, 0
2, 89280, Note_on_c, 0, 62, 58
2, 89400, Note_on_c, 0, 62, 0
2, 89760, Note_on_c, 0, 54, 46
2, 89760, Note_on_c, 0, 59, 46
2, 89760, Note_on_c, 0, 62, 46
2, 89760, Note_on_c, 0, 66, 55
2, 89880, Note_on_c, 0, 66, 0
2, 89880, Note_on_c, 0, 54, 0
2, 89880, Note_on_c, 0, 59, 0
2, 89880, Note_on_c, 0, 62, 0
2, 90240, Note_on_c, 0, 59, 42
2, 90240, Note_on_c, 0, 62, 42
2, 90240, Note_on_c, 0, 64, 51
2, 90360, Note_on_c, 0, 64, 0
2, 90360, Note_on_c, 0, 62, 0
2, 90360, Note_on_c, 0, 59, 0
2, 90720, Note_on_c, 0, 61, 59
2, 90960, Note_on_c, 0, 61, 0
2, 91140, Note_on_c, 0, 62, 49
2, 91200, Note_on_c, 0, 62, 0
2, 91200, Note_on_c, 0, 61, 55
2, 91440, Note_on_c, 0, 61, 0
2, 91440, Note_on_c, 0, 59, 53
2, 91680, Note_on_c, 0, 59, 0
2, 91680, Note_on_c, 0, 61, 56
2, 91920, Note_on_c, 0, 61, 0
2, 92144, Note_on_c, 0, 62, 59
2, 92384, Note_on_c, 0, 62, 0
2, 92564, Note_on_c, 0, 66, 49
2, 92624, Note_on_c, 0, 66, 0
2, 92624, Note_on_c, 0, 64, 55
2, 92864, Note_on_c, 0, 64, 0
2, 92864, Note_on_c, 0, 62, 53
2, 93104, Note_on_c, 0, 62, 0
2, 93104, Note_on_c, 0, 61, 56
2, 93344, Note_on_c, 0, 61, 0
2, 93344, Note_on_c, 0, 62, 51
2, 93584, Note_on_c, 0, 62, 0
2, 93584, Note_on_c, 0, 64, 58
2, 93704, Note_on_c, 0, 64, 0
2, 94064, Note_on_c, 0, 55, 49
2, 94064, Note_on_c, 0, 59, 49
2, 94064, Note_on_c, 0, 64, 49
2, 94064, Note_on_c, 0, 67, 53
2, 94184, Note_on_c, 0, 67, 0
2, 94184, Note_on_c, 0, 55, 0
2, 94184, Note_on_c, 0, 59, 0
2, 94184, Note_on_c, 0, 64, 0
2, 94544, Note_on_c, 0, 54, 42
2, 94544, Note_on_c, 0, 61, 42
2, 94544, Note_on_c, 0, 64, 42
2, 94544, Note_on_c, 0, 66, 51
2, 94664, Note_on_c, 0, 66, 0
2, 94664, Note_on_c, 0, 54, 0
2, 94664, Note_on_c, 0, 61, 0
2, 94664, Note_on_c, 0, 64, 0
2, 95040, Note_on_c, 0, 62, 58
2, 95040, Note_on_c, 0, 59, 58
2, 95160, Note_on_c, 0, 59, 0
2, 95160, Note_on_c, 0, 62, 0
2, 95520, Note_on_c, 0, 62, 55
2, 95520, Note_on_c, 0, 59, 46
2, 95640, Note_on_c, 0, 59, 0
2, 95640, Note_on_c, 0, 62, 0
2, 95760, Note_on_c, 0, 64, 50
2, 95880, Note_on_c, 0, 64, 0
2, 96000, Note_on_c, 0, 61, 59
2, 96000, Note_on_c, 0, 57, 59
2, 96120, Note_on_c, 0, 57, 0
2, 96240, Note_on_c, 0, 55, 52
2, 96360, Note_on_c, 0, 55, 0
2, 96480, Note_on_c, 0, 61, 0
2, 96480, Note_on_c, 0, 62, 64
2, 96720, Note_on_c, 0, 62, 0
2, 96960, Note_on_c, 0, 74, 77
2, 96960, Note_on_c, 0, 66, 64
2, 97200, Note_on_c, 0, 66, 0
2, 97200, Note_on_c, 0, 74, 0
2, 97920, Note_on_c, 0, 78, 59
2, 98160, Note_on_c, 0, 71, 39
2, 98400, Note_on_c, 0, 78, 0
2, 98400, Note_on_c, 0, 79, 52
2, 98640, Note_on_c, 0, 79, 0
2, 98640, Note_on_c, 0, 71, 0
2, 98640, Note_on_c, 0, 71, 35
2, 98640, Note_on_c, 0, 78, 47
2, 98880, Note_on_c, 0, 78, 0
2, 98880, Note_on_c, 0, 76, 50
2, 99120, Note_on_c, 0, 76, 0
2, 99120, Note_on_c, 0, 71, 0
2, 99120, Note_on_c, 0, 71, 35
2, 99120, Note_on_c, 0, 78, 48
2, 99360, Note_on_c, 0, 78, 0
2, 99360, Note_on_c, 0, 71, 0
2, 99360, Note_on_c, 0, 79, 53
2, 99600, Note_on_c, 0, 71, 37
2, 99840, Note_on_c, 0, 79, 0
2, 99840, Note_on_c, 0, 83, 52
2, 100080, Note_on_c, 0, 71, 0
2, 100080, Note_on_c, 0, 71, 36
2, 100320, Note_on_c, 0, 83, 0
2, 100320, Note_on_c, 0, 76, 51
2, 100560, Note_on_c, 0, 71, 0
2, 100560, Note_on_c, 0, 71, 28
2, 100800, Note_on_c, 0, 71, 0
2, 100800, Note_on_c, 0, 76, 0
2, 100800, Note_on_c, 0, 78, 59
2, 101040, Note_on_c, 0, 71, 39
2, 101280, Note_on_c, 0, 78, 0
2, 101280, Note_on_c, 0, 79, 52
2, 101520, Note_on_c, 0, 79, 0
2, 101520, Note_on_c, 0, 71, 0
2, 101520, Note_on_c, 0, 71, 35
2, 101520, Note_on_c, 0, 78, 47
2, 101760, Note_on_c, 0, 78, 0
2, 101760, Note_on_c, 0, 76, 50
2, 102000, Note_on_c, 0, 76, 0
2, 102000, Note_on_c, 0, 71, 0
2, 102000, Note_on_c, 0, 71, 35
2, 102000, Note_on_c, 0, 78, 48
2, 102240, Note_on_c, 0, 78, 0
2, 102240, Note_on_c, 0, 71, 0
2, 102240, Note_on_c, 0, 79, 53
2, 102480, Note_on_c, 0, 67, 37
2, 102720, Note_on_c, 0, 67, 0
2, 102720, Note_on_c, 0, 79, 0
2, 102720, Note_on_c, 0, 76, 52
2, 102960, Note_on_c, 0, 67, 36
2, 103200, Note_on_c, 0, 76, 0
2, 103200, Note_on_c, 0, 73, 51
2, 103440, Note_on_c, 0, 67, 0
2, 103440, Note_on_c, 0, 64, 28
2, 103680, Note_on_c, 0, 64, 0
2, 103680, Note_on_c, 0, 73, 0
2, 103680, Note_on_c, 0, 62, 40
2, 103680, Note_on_c, 0, 71, 48
2, 105120, Note_on_c, 0, 71, 0
2, 105120, Note_on_c, 0, 62, 0
2, 105120, Note_on_c, 0, 74, 52
2, 105120, Note_on_c, 0, 67, 52
2, 105240, Note_on_c, 0, 74, 0
2, 105240, Note_on_c, 0, 73, 48
2, 105360, Note_on_c, 0, 73, 0
2, 105360, Note_on_c, 0, 74, 53
2, 105480, Note_on_c, 0, 74, 0
2, 105480, Note_on_c, 0, 73, 49
2, 105600, Note_on_c, 0, 73, 0
2, 105600, Note_on_c, 0, 74, 56
2, 105720, Note_on_c, 0, 74, 0
2, 105720, Note_on_c, 0, 73, 50
2, 105840, Note_on_c, 0, 73, 0
2, 105840, Note_on_c, 0, 74, 57
2, 105960, Note_on_c, 0, 74, 0
2, 105960, Note_on_c, 0, 73, 51
2, 106080, Note_on_c, 0, 73, 0
2, 106080, Note_on_c, 0, 74, 57
2, 106200, Note_on_c, 0, 74, 0
2, 106200, Note_on_c, 0, 73, 52
2, 106320, Note_on_c, 0, 73, 0
2, 106320, Note_on_c, 0, 71, 58
2, 106440, Note_on_c, 0, 71, 0
2, 106440, Note_on_c, 0, 73, 51
2, 106560, Note_on_c, 0, 73, 0
2, 106560, Note_on_c, 0, 67, 0
2, 106560, Note_on_c, 0, 66, 57
2, 106560, Note_on_c, 0, 74, 57
2, 107040, Note_on_c, 0, 74, 0
2, 107040, Note_on_c, 0, 66, 0
2, 107040, Note_on_c, 0, 74, 55
2, 107280, Note_on_c, 0, 74, 0
2, 107280, Note_on_c, 0, 76, 49
2, 107520, Note_on_c, 0, 76, 0
2, 107520, Note_on_c, 0, 64, 52
2, 107520, Note_on_c, 0, 73, 52
2, 108000, Note_on_c, 0, 73, 0
2, 108000, Note_on_c, 0, 64, 0
2, 108000, Note_on_c, 0, 62, 46
2, 108000, Note_on_c, 0, 71, 46
2, 109440, Note_on_c, 0, 71, 0
2, 109440, Note_on_c, 0, 62, 0
2, 109440, Note_on_c, 0, 74, 52
2, 109440, Note_on_c, 0, 67, 52
2, 109560, Note_on_c, 0, 74, 0
2, 109560, Note_on_c, 0, 73, 48
2, 109680, Note_on_c, 0, 73, 0
2, 109680, Note_on_c, 0, 74, 53
2, 109800, Note_on_c, 0, 74, 0
2, 109800, Note_on_c, 0, 73, 49
2, 109920, Note_on_c, 0, 73, 0
2, 109920, Note_on_c, 0, 74, 56
2, 110040, Note_on_c, 0, 74, 0
2, 110040, Note_on_c, 0, 73, 50
2, 110160, Note_on_c, 0, 73, 0
2, 110160, Note_on_c, 0, 74, 57
2, 110280, Note_on_c, 0, 74, 0
2, 110280, Note_on_c, 0, 73, 51
2, 110400, Note_on_c, 0, 73, 0
2, 110400, Note_on_c, 0, 74, 57
2, 110520, Note_on_c, 0, 74, 0
2, 110520, Note_on_c, 0, 73, 52
2, 110640, Note_on_c, 0, 73, 0
2, 110640, Note_on_c, 0, 71, 58
2, 110760, Note_on_c, 0, 71, 0
2, 110760, Note_on_c, 0, 73, 51
2, 110880, Note_on_c, 0, 73, 0
2, 110880, Note_on_c, 0, 67, 0
2, 110880, Note_on_c, 0, 74, 57
2, 111120, Note_on_c, 0, 66, 57
2, 111360, Note_on_c, 0, 66, 0
2, 111360, Note_on_c, 0, 74, 0
2, 111360, Note_on_c, 0, 74, 55
2, 111600, Note_on_c, 0, 74, 0
2, 111600, Note_on_c, 0, 66, 57
2, 111600, Note_on_c, 0, 76, 49
2, 111840, Note_on_c, 0, 76, 0
2, 111840, Note_on_c, 0, 73, 52
2, 112080, Note_on_c, 0, 66, 0
2, 112080, Note_on_c, 0, 64, 45
2, 112320, Note_on_c, 0, 64, 0
2, 112320, Note_on_c, 0, 73, 0
2, 112320, Note_on_c, 0, 71, 46
2, 112800, Note_on_c, 0, 62, 29
2, 112800, Note_on_c, 0, 66, 29
2, 113280, Note_on_c, 0, 66, 0
2, 113280, Note_on_c, 0, 62, 0
2, 113280, Note_on_c, 0, 62, 27
2, 113280, Note_on_c, 0, 66, 27
2, 113760, Note_on_c, 0, 66, 0
2, 113760, Note_on_c, 0, 62, 0
2, 113760, Note_on_c, 0, 71, 0
2, 113760, Note_on_c, 0, 62, 26
2, 113760, Note_on_c, 0, 66, 26
2, 114240, Note_on_c, 0, 66, 0
2, 114240, Note_on_c, 0, 62, 0
2, 114240, Note_on_c, 0, 62, 25
2, 114240, Note_on_c, 0, 66, 25
2, 114720, Note_on_c, 0, 66, 0
2, 114720, Note_on_c, 0, 62, 0
2, 114720, Note_on_c, 0, 62, 23
2, 114720, Note_on_c, 0, 66, 23
2, 115200, Note_on_c, 0, 66, 0
2, 115200, Note_on_c, 0, 62, 0
2, 115200, Note_on_c, 0, 78, 59
2, 115440, Note_on_c, 0, 71, 39
2, 115680, Note_on_c, 0, 78, 0
2, 115680, Note_on_c, 0, 79, 52
2, 115920, Note_on_c, 0, 79, 0
2, 115920, Note_on_c, 0, 71, 0
2, 115920, Note_on_c, 0, 71, 35
2, 115920, Note_on_c, 0, 78, 47
2, 116160, Note_on_c, 0, 78, 0
2, 116160, Note_on_c, 0, 76, 50
2, 116400, Note_on_c, 0, 76, 0
2, 116400, Note_on_c, 0, 71, 0
2, 116400, Note_on_c, 0, 71, 35
2, 116400, Note_on_c, 0, 78, 48
2, 116640, Note_on_c, 0, 78, 0
2, 116640, Note_on_c, 0, 71, 0
2, 116640, Note_on_c, 0, 79, 53
2, 116880, Note_on_c, 0, 71, 37
2, 117120, Note_on_c, 0, 79, 0
2, 117120, Note_on_c, 0, 83, 52
2, 117360, Note_on_c, 0, 71, 0
2, 117360, Note_on_c, 0, 71, 36
2, 117600, Note_on_c, 0, 83, 0
2, 117600, Note_on_c, 0, 76, 51
2, 117840, Note_on_c, 0, 71, 0
2, 117840, Note_on_c, 0, 71, 28
2, 118080, Note_on_c, 0, 71, 0
2, 118080, Note_on_c, 0, 76, 0
2, 118080, Note_on_c, 0, 78, 59
2, 118320, Note_on_c, 0, 71, 39
2, 118560, Note_on_c, 0, 71, 0
2, 118560, Note_on_c, 0, 78, 0
2, 118560, Note_on_c, 0, 79, 52
2, 118800, Note_on_c, 0, 79, 0
2, 118800, Note_on_c, 0, 71, 35
2, 118800, Note_on_c, 0, 78, 47
2, 119040, Note_on_c, 0, 78, 0
2, 119040, Note_on_c, 0, 76, 50
2, 119280, Note_on_c, 0, 76, 0
2, 119280, Note_on_c, 0, 71, 0
2, 119280, Note_on_c, 0, 71, 35
2, 119280, Note_on_c, 0, 78, 48
2, 119520, Note_on_c, 0, 78, 0
2, 119520, Note_on_c, 0, 71, 0
2, 119520, Note_on_c, 0, 79, 53
2, 119760, Note_on_c, 0, 67, 37
2, 120000, Note_on_c, 0, 79, 0
2, 120000, Note_on_c, 0, 76, 52
2, 120240, Note_on_c, 0, 67, 0
2, 120240, Note_on_c, 0, 67, 36
2, 120480, Note_on_c, 0, 76, 0
2, 120480, Note_on_c, 0, 73, 51
2, 120720, Note_on_c, 0, 67, 0
2, 120720, Note_on_c, 0, 64, 28
2, 120960, Note_on_c, 0, 64, 0
2, 120960, Note_on_c, 0, 73, 0
2, 120960, Note_on_c, 0, 62, 40
2, 120960, Note_on_c, 0, 71, 48
2, 122400, Note_on_c, 0, 71, 0
2, 122400, Note_on_c, 0, 62, 0
2, 122400, Note_on_c, 0, 74, 52
2, 122400, Note_on_c, 0, 67, 52
2, 122520, Note_on_c, 0, 74, 0
2, 122520, Note_on_c, 0, 73, 48
2, 122640, Note_on_c, 0, 73, 0
2, 122640, Note_on_c, 0, 74, 53
2, 122760, Note_on_c, 0, 74, 0
2, 122760, Note_on_c, 0, 73, 49
2, 122880, Note_on_c, 0, 73, 0
2, 122880, Note_on_c, 0, 74, 56
2, 123000, Note_on_c, 0, 74, 0
2, 123000, Note_on_c, 0, 73, 50
2, 123120, Note_on_c, 0, 73, 0
2, 123120, Note_on_c, 0, 74, 57
2, 123240, Note_on_c, 0, 74, 0
2, 123240, Note_on_c, 0, 73, 51
2, 123360, Note_on_c, 0, 73, 0
2, 123360, Note_on_c, 0, 74, 57
2, 123480, Note_on_c, 0, 74, 0
2, 123480, Note_on_c, 0, 73, 52
2, 123600, Note_on_c, 0, 73, 0
2, 123600, Note_on_c, 0, 71, 58
2, 123720, Note_on_c, 0, 71, 0
2, 123720, Note_on_c, 0, 73, 51
2, 123840, Note_on_c, 0, 73, 0
2, 123840, Note_on_c, 0, 67, 0
2, 123840, Note_on_c, 0, 66, 57
2, 123840, Note_on_c, 0, 74, 57
2, 124320, Note_on_c, 0, 74, 0
2, 124320, Note_on_c, 0, 66, 0
2, 124320, Note_on_c, 0, 74, 55
2, 124560, Note_on_c, 0, 74, 0
2, 124560, Note_on_c, 0, 76, 49
2, 124800, Note_on_c, 0, 76, 0
2, 124800, Note_on_c, 0, 64, 52
2, 124800, Note_on_c, 0, 73, 52
2, 125280, Note_on_c, 0, 73, 0
2, 125280, Note_on_c, 0, 64, 0
2, 125280, Note_on_c, 0, 62, 46
2, 125280, Note_on_c, 0, 71, 46
2, 126720, Note_on_c, 0, 71, 0
2, 126720, Note_on_c, 0, 62, 0
2, 126720, Note_on_c, 0, 74, 52
2, 126720, Note_on_c, 0, 67, 52
2, 126840, Note_on_c, 0, 74, 0
2, 126840, Note_on_c, 0, 73, 48
2, 126960, Note_on_c, 0, 73, 0
2, 126960, Note_on_c, 0, 74, 53
2, 127080, Note_on_c, 0, 74, 0
2, 127080, Note_on_c, 0, 73, 49
2, 127200, Note_on_c, 0, 73, 0
2, 127200, Note_on_c, 0, 74, 56
2, 127320, Note_on_c, 0, 74, 0
2, 127320, Note_on_c, 0, 73, 50
2, 127440, Note_on_c, 0, 73, 0
2, 127440, Note_on_c, 0, 74, 57
2, 127560, Note_on_c, 0, 74, 0
2, 127560, Note_on_c, 0, 73, 51
2, 127680, Note_on_c, 0, 73, 0
2, 127680, Note_on_c, 0, 74, 57
2, 127800, Note_on_c, 0, 74, 0
2, 127800, Note_on_c, 0, 73, 52
2, 127920, Note_on_c, 0, 73, 0
2, 127920, Note_on_c, 0, 71, 58
2, 128040, Note_on_c, 0, 71, 0
2, 128040, Note_on_c, 0, 73, 51
2, 128160, Note_on_c, 0, 73, 0
2, 128160, Note_on_c, 0, 67, 0
2, 128160, Note_on_c, 0, 74, 57
2, 128400, Note_on_c, 0, 66, 57
2, 128640, Note_on_c, 0, 66, 0
2, 128640, Note_on_c, 0, 74, 0
2, 128640, Note_on_c, 0, 74, 55
2, 128880, Note_on_c, 0, 74, 0
2, 128880, Note_on_c, 0, 66, 57
2, 128880, Note_on_c, 0, 76, 49
2, 129120, Note_on_c, 0, 76, 0
2, 129120, Note_on_c, 0, 73, 52
2, 129360, Note_on_c, 0, 66, 0
2, 129360, Note_on_c, 0, 64, 45
2, 129600, Note_on_c, 0, 64, 0
2, 129600, Note_on_c, 0, 73, 0
2, 129600, Note_on_c, 0, 71, 46
2, 130080, Note_on_c, 0, 62, 29
2, 130080, Note_on_c, 0, 66, 29
2, 130560, Note_on_c, 0, 66, 0
2, 130560, Note_on_c, 0, 62, 0
2, 130560, Note_on_c, 0, 62, 27
2, 130560, Note_on_c, 0, 66, 27
2, 131040, Note_on_c, 0, 66, 0
2, 131040, Note_on_c, 0, 62, 0
2, 131040, Note_on_c, 0, 71, 0
2, 131040, Note_on_c, 0, 62, 26
2, 131040, Note_on_c, 0, 66, 26
2, 131520, Note_on_c, 0, 66, 0
2, 131520, Note_on_c, 0, 62, 0
2, 131520, Note_on_c, 0, 62, 25
2, 131520, Note_on_c, 0, 66, 25
2, 132000, Note_on_c, 0, 66, 0
2, 132000, Note_on_c, 0, 62, 0
2, 132000, Note_on_c, 0, 62, 23
2, 132000, Note_on_c, 0, 66, 23
2, 132480, Note_on_c, 0, 66, 0
2, 132480, Note_on_c, 0, 62, 0
2, 132480, Note_on_c, 0, 62, 82
2, 132960, Note_on_c, 0, 62, 0
2, 132960, Note_on_c, 0, 64, 78
2, 133080, Note_on_c, 0, 64, 0
2, 133200, Note_on_c, 0, 62, 75
2, 133320, Note_on_c, 0, 62, 0
2, 133440, Note_on_c, 0, 61, 79
2, 133560, Note_on_c, 0, 61, 0
2, 133680, Note_on_c, 0, 62, 73
2, 133800, Note_on_c, 0, 62, 0
2, 133920, Note_on_c, 0, 64, 81
2, 134040, Note_on_c, 0, 64, 0
2, 134400, Note_on_c, 0, 67, 75
2, 134520, Note_on_c, 0, 67, 0
2, 134880, Note_on_c, 0, 66, 73
2, 135000, Note_on_c, 0, 66, 0
2, 135360, Note_on_c, 0, 62, 82
2, 135780, Note_on_c, 0, 62, 0
2, 135780, Note_on_c, 0, 66, 71
2, 135840, Note_on_c, 0, 66, 0
2, 135840, Note_on_c, 0, 64, 75
2, 135960, Note_on_c, 0, 64, 0
2, 136080, Note_on_c, 0, 62, 73
2, 136200, Note_on_c, 0, 62, 0
2, 136320, Note_on_c, 0, 61, 77
2, 136440, Note_on_c, 0, 61, 0
2, 136560, Note_on_c, 0, 62, 71
2, 136680, Note_on_c, 0, 62, 0
2, 136800, Note_on_c, 0, 64, 80
2, 136920, Note_on_c, 0, 64, 0
2, 137280, Note_on_c, 0, 67, 74
2, 137400, Note_on_c, 0, 67, 0
2, 137760, Note_on_c, 0, 66, 73
2, 137880, Note_on_c, 0, 66, 0
2, 138240, Note_on_c, 0, 62, 80
2, 138720, Note_on_c, 0, 62, 0
2, 138720, Note_on_c, 0, 64, 73
2, 138960, Note_on_c, 0, 64, 0
2, 138960, Note_on_c, 0, 66, 74
2, 139200, Note_on_c, 0, 66, 0
2, 139200, Note_on_c, 0, 69, 77
2, 139440, Note_on_c, 0, 69, 0
2, 139440, Note_on_c, 0, 72, 78
2, 139680, Note_on_c, 0, 72, 0
2, 139680, Note_on_c, 0, 76, 79
2, 140160, Note_on_c, 0, 76, 0
2, 140160, Note_on_c, 0, 79, 78
2, 140640, Note_on_c, 0, 79, 0
2, 140640, Note_on_c, 0, 78, 78
2, 141120, Note_on_c, 0, 78, 0
2, 141120, Note_on_c, 0, 62, 60
2, 141120, Note_on_c, 0, 66, 60
2, 141120, Note_on_c, 0, 78, 79
2, 141600, Note_on_c, 0, 78, 0
2, 141600, Note_on_c, 0, 66, 0
2, 141600, Note_on_c, 0, 62, 0
2, 141600, Note_on_c, 0, 67, 57
2, 141600, Note_on_c, 0, 79, 72
2, 141840, Note_on_c, 0, 79, 0
2, 141840, Note_on_c, 0, 67, 0
2, 141840, Note_on_c, 0, 66, 57
2, 141840, Note_on_c, 0, 78, 72
2, 142080, Note_on_c, 0, 78, 0
2, 142080, Note_on_c, 0, 66, 0
2, 142080, Note_on_c, 0, 64, 56
2, 142080, Note_on_c, 0, 76, 71
2, 142320, Note_on_c, 0, 76, 0
2, 142320, Note_on_c, 0, 64, 0
2, 142320, Note_on_c, 0, 62, 56
2, 142320, Note_on_c, 0, 74, 71
2, 142560, Note_on_c, 0, 74, 0
2, 142560, Note_on_c, 0, 62, 0
2, 142560, Note_on_c, 0, 67, 70
2, 142560, Note_on_c, 0, 73, 77
2, 142980, Note_on_c, 0, 73, 0
2, 142980, Note_on_c, 0, 67, 0
2, 142980, Note_on_c, 0, 74, 64
2, 143040, Note_on_c, 0, 74, 0
2, 143040, Note_on_c, 0, 73, 73
2, 143280, Note_on_c, 0, 73, 0
2, 143280, Note_on_c, 0, 69, 67
2, 143520, Note_on_c, 0, 69, 0
2, 143520, Note_on_c, 0, 71, 72
2, 143760, Note_on_c, 0, 71, 0
2, 143760, Note_on_c, 0, 73, 69
2, 144000, Note_on_c, 0, 73, 0
2, 144000, Note_on_c, 0, 66, 74
2, 144000, Note_on_c, 0, 74, 74
2, 144480, Note_on_c, 0, 74, 0
2, 144480, Note_on_c, 0, 66, 0
2, 144480, Note_on_c, 0, 64, 78
2, 144600, Note_on_c, 0, 64, 0
2, 144720, Note_on_c, 0, 62, 75
2, 144840, Note_on_c, 0, 62, 0
2, 144960, Note_on_c, 0, 61, 79
2, 145080, Note_on_c, 0, 61, 0
2, 145200, Note_on_c, 0, 62, 73
2, 145320, Note_on_c, 0, 62, 0
2, 145440, Note_on_c, 0, 64, 81
2, 145560, Note_on_c, 0, 64, 0
2, 145920, Note_on_c, 0, 67, 74
2, 146040, Note_on_c, 0, 67, 0
2, 146400, Note_on_c, 0, 66, 73
2, 146520, Note_on_c, 0, 66, 0
2, 146880, Note_on_c, 0, 62, 82
2, 147300, Note_on_c, 0, 62, 0
2, 147300, Note_on_c, 0, 66, 71
2, 147360, Note_on_c, 0, 66, 0
2, 147360, Note_on_c, 0, 64, 75
2, 147480, Note_on_c, 0, 64, 0
2, 147600, Note_on_c, 0, 62, 73
2, 147720, Note_on_c, 0, 62, 0
2, 147840, Note_on_c, 0, 61, 77
2, 147960, Note_on_c, 0, 61, 0
2, 148080, Note_on_c, 0, 62, 71
2, 148200, Note_on_c, 0, 62, 0
2, 148320, Note_on_c, 0, 64, 80
2, 148440, Note_on_c, 0, 64, 0
2, 148800, Note_on_c, 0, 67, 74
2, 148920, Note_on_c, 0, 67, 0
2, 149280, Note_on_c, 0, 66, 73
2, 149400, Note_on_c, 0, 66, 0
2, 149760, Note_on_c, 0, 62, 80
2, 150240, Note_on_c, 0, 62, 0
2, 150240, Note_on_c, 0, 64, 73
2, 150480, Note_on_c, 0, 64, 0
2, 150480, Note_on_c, 0, 66, 74
2, 150720, Note_on_c, 0, 66, 0
2, 150720, Note_on_c, 0, 69, 77
2, 150960, Note_on_c, 0, 69, 0
2, 150960, Note_on_c, 0, 72, 78
2, 151200, Note_on_c, 0, 72, 0
2, 151200, Note_on_c, 0, 76, 79
2, 151680, Note_on_c, 0, 76, 0
2, 151680, Note_on_c, 0, 79, 78
2, 152160, Note_on_c, 0, 79, 0
2, 152160, Note_on_c, 0, 78, 78
2, 152640, Note_on_c, 0, 78, 0
2, 152640, Note_on_c, 0, 62, 60
2, 152640, Note_on_c, 0, 66, 60
2, 152640, Note_on_c, 0, 78, 79
2, 153120, Note_on_c, 0, 78, 0
2, 153120, Note_on_c, 0, 66, 0
2, 153120, Note_on_c, 0, 62, 0
2, 153120, Note_on_c, 0, 67, 57
2, 153120, Note_on_c, 0, 79, 72
2, 153360, Note_on_c, 0, 79, 0
2, 153360, Note_on_c, 0, 67, 0
2, 153360, Note_on_c, 0, 66, 57
2, 153360, Note_on_c, 0, 78, 72
2, 153600, Note_on_c, 0, 78, 0
2, 153600, Note_on_c, 0, 66, 0
2, 153600, Note_on_c, 0, 64, 56
2, 153600, Note_on_c, 0, 76, 71
2, 153840, Note_on_c, 0, 76, 0
2, 153840, Note_on_c, 0, 64, 0
2, 153840, Note_on_c, 0, 62, 56
2, 153840, Note_on_c, 0, 74, 71
2, 154080, Note_on_c, 0, 74, 0
2, 154080, Note_on_c, 0, 62, 0
2, 154080, Note_on_c, 0, 67, 68
2, 154080, Note_on_c, 0, 73, 77
2, 154500, Note_on_c, 0, 73, 0
2, 154500, Note_on_c, 0, 67, 0
2, 154500, Note_on_c, 0, 74, 64
2, 154560, Note_on_c, 0, 74, 0
2, 154560, Note_on_c, 0, 73, 73
2, 154800, Note_on_c, 0, 73, 0
2, 154800, Note_on_c, 0, 69, 67
2, 155040, Note_on_c, 0, 69, 0
2, 155040, Note_on_c, 0, 71, 72
2, 155280, Note_on_c, 0, 71, 0
2, 155280, Note_on_c, 0, 73, 69
2, 155520, Note_on_c, 0, 73, 0
2, 155520, Note_on_c, 0, 66, 74
2, 155520, Note_on_c, 0, 74, 74
2, 155940, Note_on_c, 0, 74, 0
2, 155940, Note_on_c, 0, 66, 0
2, 155940, Note_on_c, 0, 64, 73
2, 156000, Note_on_c, 0, 64, 0
2, 156000, Note_on_c, 0, 62, 78
2, 156120, Note_on_c, 0, 62, 0
2, 156240, Note_on_c, 0, 61, 75
2, 156360, Note_on_c, 0, 61, 0
2, 156480, Note_on_c, 0, 62, 79
2, 156600, Note_on_c, 0, 62, 0
2, 156960, Note_on_c, 0, 62, 74
2, 157080, Note_on_c, 0, 62, 0
2, 157440, Note_on_c, 0, 69, 78
2, 157560, Note_on_c, 0, 69, 0
2, 157680, Note_on_c, 0, 66, 75
2, 157800, Note_on_c, 0, 66, 0
2, 157920, Note_on_c, 0, 62, 79
2, 158040, Note_on_c, 0, 62, 0
2, 158340, Note_on_c, 0, 76, 64
2, 158400, Note_on_c, 0, 76, 0
2, 158400, Note_on_c, 0, 74, 55
2, 158400, Note_on_c, 0, 86, 64
2, 158520, Note_on_c, 0, 86, 0
2, 158520, Note_on_c, 0, 74, 0
2, 158640, Note_on_c, 0, 73, 50
2, 158640, Note_on_c, 0, 85, 60
2, 158760, Note_on_c, 0, 85, 0
2, 158760, Note_on_c, 0, 73, 0
2, 158880, Note_on_c, 0, 74, 53
2, 158880, Note_on_c, 0, 86, 63
2, 159000, Note_on_c, 0, 86, 0
2, 159000, Note_on_c, 0, 74, 0
2, 159360, Note_on_c, 0, 74, 52
2, 159360, Note_on_c, 0, 86, 62
2, 159480, Note_on_c, 0, 86, 0
2, 159480, Note_on_c, 0, 74, 0
2, 159600, Note_on_c, 0, 73, 49
2, 159600, Note_on_c, 0, 85, 59
2, 159720, Note_on_c, 0, 85, 0
2, 159720, Note_on_c, 0, 73, 0
2, 159840, Note_on_c, 0, 74, 52
2, 159840, Note_on_c, 0, 86, 62
2, 159960, Note_on_c, 0, 86, 0
2, 159960, Note_on_c, 0, 74, 0
2, 160320, Note_on_c, 0, 83, 59
2, 160560, Note_on_c, 0, 83, 0
2, 160560, Note_on_c, 0, 79, 56
2, 160800, Note_on_c, 0, 79, 0
2, 160800, Note_on_c, 0, 74, 59
2, 161160, Note_on_c, 0, 74, 0
2, 161280, Note_on_c, 0, 74, 59
2, 161520, Note_on_c, 0, 74, 0
2, 161520, Note_on_c, 0, 76, 59
2, 161760, Note_on_c, 0, 76, 0
2, 161760, Note_on_c, 0, 77, 63
2, 162120, Note_on_c, 0, 77, 0
2, 162120, Note_on_c, 0, 76, 52
2, 162180, Note_on_c, 0, 76, 0
2, 162180, Note_on_c, 0, 77, 49
2, 162240, Note_on_c, 0, 77, 0
2, 162240, Note_on_c, 0, 76, 59
2, 162480, Note_on_c, 0, 76, 0
2, 162480, Note_on_c, 0, 74, 59
2, 162720, Note_on_c, 0, 74, 0
2, 162720, Note_on_c, 0, 72, 58
2, 162840, Note_on_c, 0, 72, 0
2, 163200, Note_on_c, 0, 81, 63
2, 163440, Note_on_c, 0, 81, 0
2, 163440, Note_on_c, 0, 78, 57
2, 163680, Note_on_c, 0, 78, 0
2, 163680, Note_on_c, 0, 72, 59
2, 163800, Note_on_c, 0, 72, 0
2, 164160, Note_on_c, 0, 70, 59
2, 164280, Note_on_c, 0, 70, 0
2, 164640, Note_on_c, 0, 79, 63
2, 164880, Note_on_c, 0, 79, 0
2, 164880, Note_on_c, 0, 74, 57
2, 165120, Note_on_c, 0, 74, 0
2, 165120, Note_on_c, 0, 70, 59
2, 165240, Note_on_c, 0, 70, 0
2, 165600, Note_on_c, 0, 69, 59
2, 167040, Note_on_c, 0, 69, 0
2, 167040, Note_on_c, 0, 66, 74
2, 167040, Note_on_c, 0, 74, 74
2, 167460, Note_on_c, 0, 74, 0
2, 167460, Note_on_c, 0, 66, 0
2, 167460, Note_on_c, 0, 64, 73
2, 167520, Note_on_c, 0, 64, 0
2, 167520, Note_on_c, 0, 62, 78
2, 167640, Note_on_c, 0, 62, 0
2, 167760, Note_on_c, 0, 61, 75
2, 167880, Note_on_c, 0, 61, 0
2, 168000, Note_on_c, 0, 62, 79
2, 168120, Note_on_c, 0, 62, 0
2, 168480, Note_on_c, 0, 62, 74
2, 168600, Note_on_c, 0, 62, 0
2, 168960, Note_on_c, 0, 69, 78
2, 169080, Note_on_c, 0, 69, 0
2, 169200, Note_on_c, 0, 66, 75
2, 169320, Note_on_c, 0, 66, 0
2, 169440, Note_on_c, 0, 62, 79
2, 169560, Note_on_c, 0, 62, 0
2, 169860, Note_on_c, 0, 76, 64
2, 169920, Note_on_c, 0, 76, 0
2, 169920, Note_on_c, 0, 74, 55
2, 169920, Note_on_c, 0, 86, 64
2, 170040, Note_on_c, 0, 86, 0
2, 170040, Note_on_c, 0, 74, 0
2, 170160, Note_on_c, 0, 73, 50
2, 170160, Note_on_c, 0, 85, 60
2, 170280, Note_on_c, 0, 85, 0
2, 170280, Note_on_c, 0, 73, 0
2, 170400, Note_on_c, 0, 74, 53
2, 170400, Note_on_c, 0, 86, 63
2, 170520, Note_on_c, 0, 86, 0
2, 170520, Note_on_c, 0, 74, 0
2, 170880, Note_on_c, 0, 74, 52
2, 170880, Note_on_c, 0, 86, 62
2, 171000, Note_on_c, 0, 86, 0
2, 171000, Note_on_c, 0, 74, 0
2, 171120, Note_on_c, 0, 73, 49
2, 171120, Note_on_c, 0, 85, 59
2, 171240, Note_on_c, 0, 85, 0
2, 171240, Note_on_c, 0, 73, 0
2, 171360, Note_on_c, 0, 74, 52
2, 171360, Note_on_c, 0, 86, 62
2, 171480, Note_on_c, 0, 86, 0
2, 171480, Note_on_c, 0, 74, 0
2, 171840, Note_on_c, 0, 83, 59
2, 172080, Note_on_c, 0, 83, 0
2, 172080, Note_on_c, 0, 79, 56
2, 172320, Note_on_c, 0, 79, 0
2, 172320, Note_on_c, 0, 74, 59
2, 172680, Note_on_c, 0, 74, 0
2, 172800, Note_on_c, 0, 74, 59
2, 173040, Note_on_c, 0, 74, 0
2, 173040, Note_on_c, 0, 76, 59
2, 173280, Note_on_c, 0, 76, 0
2, 173280, Note_on_c, 0, 77, 63
2, 173640, Note_on_c, 0, 77, 0
2, 173640, Note_on_c, 0, 76, 52
2, 173700, Note_on_c, 0, 76, 0
2, 173700, Note_on_c, 0, 77, 49
2, 173760, Note_on_c, 0, 77, 0
2, 173760, Note_on_c, 0, 76, 59
2, 174000, Note_on_c, 0, 76, 0
2, 174000, Note_on_c, 0, 74, 59
2, 174240, Note_on_c, 0, 74, 0
2, 174240, Note_on_c, 0, 72, 58
2, 174360, Note_on_c, 0, 72, 0
2, 174720, Note_on_c, 0, 81, 63
2, 174960, Note_on_c, 0, 81, 0
2, 174960, Note_on_c, 0, 78, 57
2, 175200, Note_on_c, 0, 78, 0
2, 175200, Note_on_c, 0, 72, 59
2, 175320, Note_on_c, 0, 72, 0
2, 175680, Note_on_c, 0, 70, 59
2, 175800, Note_on_c, 0, 70, 0
2, 176160, Note_on_c, 0, 79, 63
2, 176400, Note_on_c, 0, 79, 0
2, 176400, Note_on_c, 0, 74, 57
2, 176640, Note_on_c, 0, 74, 0
2, 176640, Note_on_c, 0, 70, 59
2, 176760, Note_on_c, 0, 70, 0
2, 177120, Note_on_c, 0, 69, 59
2, 178560, Note_on_c, 0, 69, 0
2, 184320, Note_on_c, 0, 62, 59
2, 184560, Note_on_c, 0, 62, 0
2, 184740, Note_on_c, 0, 66, 49
2, 184800, Note_on_c, 0, 66, 0
2, 184800, Note_on_c, 0, 64, 55
2, 185040, Note_on_c, 0, 64, 0
2, 185040, Note_on_c, 0, 62, 53
2, 185280, Note_on_c, 0, 62, 0
2, 185280, Note_on_c, 0, 61, 56
2, 185520, Note_on_c, 0, 61, 0
2, 185520, Note_on_c, 0, 62, 51
2, 185760, Note_on_c, 0, 62, 0
2, 185760, Note_on_c, 0, 64, 58
2, 185880, Note_on_c, 0, 64, 0
2, 186240, Note_on_c, 0, 55, 49
2, 186240, Note_on_c, 0, 59, 49
2, 186240, Note_on_c, 0, 64, 49
2, 186240, Note_on_c, 0, 67, 53
2, 186360, Note_on_c, 0, 67, 0
2, 186360, Note_on_c, 0, 55, 0
2, 186360, Note_on_c, 0, 59, 0
2, 186360, Note_on_c, 0, 64, 0
2, 186720, Note_on_c, 0, 54, 42
2, 186720, Note_on_c, 0, 61, 42
2, 186720, Note_on_c, 0, 64, 42
2, 186720, Note_on_c, 0, 66, 51
2, 186840, Note_on_c, 0, 66, 0
2, 186840, Note_on_c, 0, 54, 0
2, 186840, Note_on_c, 0, 61, 0
2, 186840, Note_on_c, 0, 64, 0
2, 187200, Note_on_c, 0, 62, 58
2, 187320, Note_on_c, 0, 62, 0
2, 187680, Note_on_c, 0, 54, 46
2, 187680, Note_on_c, 0, 59, 46
2, 187680, Note_on_c, 0, 62, 46
2, 187680, Note_on_c, 0, 66, 55
2, 187800, Note_on_c, 0, 66, 0
2, 187800, Note_on_c, 0, 54, 0
2, 187800, Note_on_c, 0, 59, 0
2, 187800, Note_on_c, 0, 62, 0
2, 188160, Note_on_c, 0, 59, 42
2, 188160, Note_on_c, 0, 62, 42
2, 188160, Note_on_c, 0, 64, 51
2, 188280, Note_on_c, 0, 64, 0
2, 188280, Note_on_c, 0, 62, 0
2, 188280, Note_on_c, 0, 59, 0
2, 188640, Note_on_c, 0, 61, 59
2, 188880, Note_on_c, 0, 61, 0
2, 189060, Note_on_c, 0, 62, 49
2, 189120, Note_on_c, 0, 62, 0
2, 189120, Note_on_c, 0, 61, 55
2, 189360, Note_on_c, 0, 61, 0
2, 189360, Note_on_c, 0, 59, 53
2, 189600, Note_on_c, 0, 59, 0
2, 189600, Note_on_c, 0, 61, 56
2, 189840, Note_on_c, 0, 61, 0
2, 190064, Note_on_c, 0, 62, 59
2, 190304, Note_on_c, 0, 62, 0
2, 190484, Note_on_c, 0, 66, 49
2, 190544, Note_on_c, 0, 66, 0
2, 190544, Note_on_c, 0, 64, 55
2, 190784, Note_on_c, 0, 64, 0
2, 190784, Note_on_c, 0, 62, 53
2, 191024, Note_on_c, 0, 62, 0
2, 191024, Note_on_c, 0, 61, 56
2, 191264, Note_on_c, 0, 61, 0
2, 191264, Note_on_c, 0, 62, 51
2, 191504, Note_on_c, 0, 62, 0
2, 191504, Note_on_c, 0, 64, 58
2, 191624, Note_on_c, 0, 64, 0
2, 191984, Note_on_c, 0, 55, 49
2, 191984, Note_on_c, 0, 59, 49
2, 191984, Note_on_c, 0, 64, 49
2, 191984, Note_on_c, 0, 67, 53
2, 192104, Note_on_c, 0, 67, 0
2, 192104, Note_on_c, 0, 55, 0
2, 192104, Note_on_c, 0, 59, 0
2, 192104, Note_on_c, 0, 64, 0
2, 192464, Note_on_c, 0, 54, 42
2, 192464, Note_on_c, 0, 61, 42
2, 192464, Note_on_c, 0, 64, 42
2, 192464, Note_on_c, 0, 66, 51
2, 192584, Note_on_c, 0, 66, 0
2, 192584, Note_on_c, 0, 54, 0
2, 192584, Note_on_c, 0, 61, 0
2, 192584, Note_on_c, 0, 64, 0
2, 192960, Note_on_c, 0, 62, 58
2, 192960, Note_on_c, 0, 59, 58
2, 193080, Note_on_c, 0, 59, 0
2, 193080, Note_on_c, 0, 62, 0
2, 193440, Note_on_c, 0, 62, 55
2, 193440, Note_on_c, 0, 59, 46
2, 193560, Note_on_c, 0, 59, 0
2, 193560, Note_on_c, 0, 62, 0
2, 193680, Note_on_c, 0, 64, 50
2, 193800, Note_on_c, 0, 64, 0
2, 193920, Note_on_c, 0, 61, 59
2, 193920, Note_on_c, 0, 57, 59
2, 194160, Note_on_c, 0, 57, 0
2, 194160, Note_on_c, 0, 55, 52
2, 194400, Note_on_c, 0, 55, 0
2, 194400, Note_on_c, 0, 61, 0
2, 194400, Note_on_c, 0, 62, 64
2, 194640, Note_on_c, 0, 62, 0
2, 194880, Note_on_c, 0, 74, 77
2, 194880, Note_on_c, 0, 66, 64
2, 195120, Note_on_c, 0, 66, 0
2, 195120, Note_on_c, 0, 74, 0
2, 195840, Note_on_c, 0, 62, 59
2, 196080, Note_on_c, 0, 62, 0
2, 196260, Note_on_c, 0, 66, 49
2, 196320, Note_on_c, 0, 66, 0
2, 196320, Note_on_c, 0, 64, 55
2, 196560, Note_on_c, 0, 64, 0
2, 196560, Note_on_c, 0, 62, 53
2, 196800, Note_on_c, 0, 62, 0
2, 196800, Note_on_c, 0, 61, 56
2, 197040, Note_on_c, 0, 61, 0
2, 197040, Note_on_c, 0, 62, 51
2, 197280, Note_on_c, 0, 62, 0
2, 197280, Note_on_c, 0, 64, 58
2, 197400, Note_on_c, 0, 64, 0
2, 197760, Note_on_c, 0, 55, 49
2, 197760, Note_on_c, 0, 59, 49
2, 197760, Note_on_c, 0, 64, 49
2, 197760, Note_on_c, 0, 67, 53
2, 197880, Note_on_c, 0, 67, 0
2, 197880, Note_on_c, 0, 55, 0
2, 197880, Note_on_c, 0, 59, 0
2, 197880, Note_on_c, 0, 64, 0
2, 198240, Note_on_c, 0, 54, 42
2, 198240, Note_on_c, 0, 61, 42
2, 198240, Note_on_c, 0, 64, 42
2, 198240, Note_on_c, 0, 66, 51
2, 198360, Note_on_c, 0, 66, 0
2, 198360, Note_on_c, 0, 54, 0
2, 198360, Note_on_c, 0, 61, 0
2, 198360, Note_on_c, 0, 64, 0
2, 198720, Note_on_c, 0, 62, 58
2, 198840, Note_on_c, 0, 62, 0
2, 199200, Note_on_c, 0, 54, 46
2, 199200, Note_on_c, 0, 59, 46
2, 199200, Note_on_c, 0, 62, 46
2, 199200, Note_on_c, 0, 66, 55
2, 199320, Note_on_c, 0, 66, 0
2, 199320, Note_on_c, 0, 54, 0
2, 199320, Note_on_c, 0, 59, 0
2, 199320, Note_on_c, 0, 62, 0
2, 199680, Note_on_c, 0, 59, 42
2, 199680, Note_on_c, 0, 62, 42
2, 199680, Note_on_c, 0, 64, 51
2, 199800, Note_on_c, 0, 64, 0
2, 199800, Note_on_c, 0, 62, 0
2, 199800, Note_on_c, 0, 59, 0
2, 200160, Note_on_c, 0, 61, 59
2, 200400, Note_on_c, 0, 61, 0
2, 200580, Note_on_c, 0, 62, 49
2, 200640, Note_on_c, 0, 62, 0
2, 200640, Note_on_c, 0, 61, 55
2, 200880, Note_on_c, 0, 61, 0
2, 200880, Note_on_c, 0, 59, 53
2, 201120, Note_on_c, 0, 59, 0
2, 201120, Note_on_c, 0, 61, 56
2, 201360, Note_on_c, 0, 61, 0
2, 201584, Note_on_c, 0, 62, 59
2, 201824, Note_on_c, 0, 62, 0
2, 202004, Note_on_c, 0, 66, 49
2, 202064, Note_on_c, 0, 66, 0
2, 202064, Note_on_c, 0, 64, 55
2, 202304, Note_on_c, 0, 64, 0
2, 202304, Note_on_c, 0, 62, 53
2, 202544, Note_on_c, 0, 62, 0
2, 202544, Note_on_c, 0, 61, 56
2, 202784, Note_on_c, 0, 61, 0
2, 202784, Note_on_c, 0, 62, 51
2, 203024, Note_on_c, 0, 62, 0
2, 203024, Note_on_c, 0, 64, 58
2, 203144, Note_on_c, 0, 64, 0
2, 203504, Note_on_c, 0, 55, 49
2, 203504, Note_on_c, 0, 59, 49
2, 203504, Note_on_c, 0, 64, 49
2, 203504, Note_on_c, 0, 67, 53
2, 203624, Note_on_c, 0, 67, 0
2, 203624, Note_on_c, 0, 55, 0
2, 203624, Note_on_c, 0, 59, 0
2, 203624, Note_on_c, 0, 64, 0
2, 203984, Note_on_c, 0, 54, 42
2, 203984, Note_on_c, 0, 61, 42
2, 203984, Note_on_c, 0, 64, 42
2, 203984, Note_on_c, 0, 66, 51
2, 204104, Note_on_c, 0, 66, 0
2, 204104, Note_on_c, 0, 54, 0
2, 204104, Note_on_c, 0, 61, 0
2, 204104, Note_on_c, 0, 64, 0
2, 204480, Note_on_c, 0, 62, 58
2, 204480, Note_on_c, 0, 59, 58
2, 204600, Note_on_c, 0, 59, 0
2, 204600, Note_on_c, 0, 62, 0
2, 204960, Note_on_c, 0, 62, 55
2, 204960, Note_on_c, 0, 59, 46
2, 205080, Note_on_c, 0, 59, 0
2, 205080, Note_on_c, 0, 62, 0
2, 205200, Note_on_c, 0, 64, 50
2, 205320, Note_on_c, 0, 64, 0
2, 205440, Note_on_c, 0, 61, 59
2, 205440, Note_on_c, 0, 57, 59
2, 205680, Note_on_c, 0, 57, 0
2, 205680, Note_on_c, 0, 55, 52
2, 205920, Note_on_c, 0, 55, 0
2, 205920, Note_on_c, 0, 61, 0
2, 205920, Note_on_c, 0, 62, 64
2, 206160, Note_on_c, 0, 62, 0
2, 206400, Note_on_c, 0, 74, 77
2, 206400, Note_on_c, 0, 66, 64
2, 206640, Note_on_c, 0, 66, 0
2, 206640, Note_on_c, 0, 74, 0
2, 207360, Note_on_c, 0, 74, 57
2, 207360, Note_on_c, 0, 81, 67
2, 207840, Note_on_c, 0, 81, 0
2, 207840, Note_on_c, 0, 83, 59
2, 208080, Note_on_c, 0, 83, 0
2, 208080, Note_on_c, 0, 81, 55
2, 208320, Note_on_c, 0, 81, 0
2, 208320, Note_on_c, 0, 79, 57
2, 208560, Note_on_c, 0, 79, 0
2, 208560, Note_on_c, 0, 81, 53
2, 208800, Note_on_c, 0, 81, 0
2, 208800, Note_on_c, 0, 83, 60
2, 209280, Note_on_c, 0, 83, 0
2, 209280, Note_on_c, 0, 83, 59
2, 209520, Note_on_c, 0, 83, 0
2, 209520, Note_on_c, 0, 86, 55
2, 209760, Note_on_c, 0, 86, 0
2, 209760, Note_on_c, 0, 83, 58
2, 210240, Note_on_c, 0, 83, 0
2, 210240, Note_on_c, 0, 74, 0
2, 210240, Note_on_c, 0, 74, 57
2, 210240, Note_on_c, 0, 81, 67
2, 210720, Note_on_c, 0, 81, 0
2, 210720, Note_on_c, 0, 83, 59
2, 210960, Note_on_c, 0, 83, 0
2, 210960, Note_on_c, 0, 81, 55
2, 211200, Note_on_c, 0, 81, 0
2, 211200, Note_on_c, 0, 79, 57
2, 211440, Note_on_c, 0, 79, 0
2, 211440, Note_on_c, 0, 78, 53
2, 211680, Note_on_c, 0, 78, 0
2, 211680, Note_on_c, 0, 74, 0
2, 211680, Note_on_c, 0, 73, 48
2, 211680, Note_on_c, 0, 76, 60
2, 212160, Note_on_c, 0, 76, 0
2, 212160, Note_on_c, 0, 73, 0
2, 212160, Note_on_c, 0, 73, 45
2, 212160, Note_on_c, 0, 76, 57
2, 212400, Note_on_c, 0, 76, 0
2, 212400, Note_on_c, 0, 73, 0
2, 212400, Note_on_c, 0, 71, 44
2, 212400, Note_on_c, 0, 74, 55
2, 212640, Note_on_c, 0, 74, 0
2, 212640, Note_on_c, 0, 71, 0
2, 212640, Note_on_c, 0, 73, 46
2, 212640, Note_on_c, 0, 76, 58
2, 213120, Note_on_c, 0, 76, 0
2, 213120, Note_on_c, 0, 73, 0
2, 213120, Note_on_c, 0, 74, 57
2, 213120, Note_on_c, 0, 81, 67
2, 213600, Note_on_c, 0, 81, 0
2, 213600, Note_on_c, 0, 83, 59
2, 213840, Note_on_c, 0, 83, 0
2, 213840, Note_on_c, 0, 81, 55
2, 214080, Note_on_c, 0, 81, 0
2, 214080, Note_on_c, 0, 79, 57
2, 214320, Note_on_c, 0, 79, 0
2, 214320, Note_on_c, 0, 81, 53
2, 214560, Note_on_c, 0, 81, 0
2, 214560, Note_on_c, 0, 83, 60
2, 215040, Note_on_c, 0, 83, 0
2, 215040, Note_on_c, 0, 83, 59
2, 215280, Note_on_c, 0, 83, 0
2, 215280, Note_on_c, 0, 86, 55
2, 215520, Note_on_c, 0, 86, 0
2, 215520, Note_on_c, 0, 83, 58
2, 216000, Note_on_c, 0, 83, 0
2, 216000, Note_on_c, 0, 74, 0
2, 216000, Note_on_c, 0, 74, 57
2, 216000, Note_on_c, 0, 81, 67
2, 216480, Note_on_c, 0, 81, 0
2, 216480, Note_on_c, 0, 83, 59
2, 216720, Note_on_c, 0, 83, 0
2, 216720, Note_on_c, 0, 81, 55
2, 216960, Note_on_c, 0, 81, 0
2, 216960, Note_on_c, 0, 79, 57
2, 217200, Note_on_c, 0, 79, 0
2, 217200, Note_on_c, 0, 78, 53
2, 217440, Note_on_c, 0, 78, 0
2, 217440, Note_on_c, 0, 74, 0
2, 217440, Note_on_c, 0, 69, 48
2, 217440, Note_on_c, 0, 73, 48
2, 217440, Note_on_c, 0, 76, 60
2, 218880, Note_on_c, 0, 76, 0
2, 218880, Note_on_c, 0, 73, 0
2, 218880, Note_on_c, 0, 69, 0
2, 218880, Note_on_c, 0, 62, 59
2, 219120, Note_on_c, 0, 62, 0
2, 219300, Note_on_c, 0, 66, 49
2, 219360, Note_on_c, 0, 66, 0
2, 219360, Note_on_c, 0, 64, 55
2, 219600, Note_on_c, 0, 64, 0
2, 219600, Note_on_c, 0, 62, 53
2, 219840, Note_on_c, 0, 62, 0
2, 219840, Note_on_c, 0, 61, 56
2, 220080, Note_on_c, 0, 61, 0
2, 220080, Note_on_c, 0, 62, 51
2, 220320, Note_on_c, 0, 62, 0
2, 220320, Note_on_c, 0, 64, 58
2, 220440, Note_on_c, 0, 64, 0
2, 220800, Note_on_c, 0, 55, 49
2, 220800, Note_on_c, 0, 59, 49
2, 220800, Note_on_c, 0, 64, 49
2, 220800, Note_on_c, 0, 67, 53
2, 220920, Note_on_c, 0, 67, 0
2, 220920, Note_on_c, 0, 55, 0
2, 220920, Note_on_c, 0, 59, 0
2, 220920, Note_on_c, 0, 64, 0
2, 221280, Note_on_c, 0, 54, 42
2, 221280, Note_on_c, 0, 61, 42
2, 221280, Note_on_c, 0, 64, 42
2, 221280, Note_on_c, 0, 66, 51
2, 221400, Note_on_c, 0, 66, 0
2, 221400, Note_on_c, 0, 54, 0
2, 221400, Note_on_c, 0, 61, 0
2, 221400, Note_on_c, 0, 64, 0
2, 221760, Note_on_c, 0, 62, 58
2, 221880, Note_on_c, 0, 62, 0
2, 222240, Note_on_c, 0, 54, 46
2, 222240, Note_on_c, 0, 59, 46
2, 222240, Note_on_c, 0, 62, 46
2, 222240, Note_on_c, 0, 66, 55
2, 222360, Note_on_c, 0, 66, 0
2, 222360, Note_on_c, 0, 54, 0
2, 222360, Note_on_c, 0, 59, 0
2, 222360, Note_on_c, 0, 62, 0
2, 222720, Note_on_c, 0, 59, 42
2, 222720, Note_on_c, 0, 62, 42
2, 222720, Note_on_c, 0, 64, 51
2, 222840, Note_on_c, 0, 64, 0
2, 222840, Note_on_c, 0, 62, 0
2, 222840, Note_on_c, 0, 59, 0
2, 223200, Note_on_c, 0, 61, 59
2, 223440, Note_on_c, 0, 61, 0
2, 223620, Note_on_c, 0, 62, 49
2, 223680, Note_on_c, 0, 62, 0
2, 223680, Note_on_c, 0, 61, 55
2, 223920, Note_on_c, 0, 61, 0
2, 223920, Note_on_c, 0, 59, 53
2, 224160, Note_on_c, 0, 59, 0
2, 224160, Note_on_c, 0, 61, 56
2, 224400, Note_on_c, 0, 61, 0
2, 224640, Note_on_c, 0, 62, 59
2, 224880, Note_on_c, 0, 62, 0
2, 225044, Note_on_c, 0, 66, 49
2, 225104, Note_on_c, 0, 66, 0
2, 225120, Note_on_c, 0, 64, 55
2, 225360, Note_on_c, 0, 64, 0
2, 225360, Note_on_c, 0, 62, 53
2, 225600, Note_on_c, 0, 62, 0
2, 225600, Note_on_c, 0, 61, 56
2, 225840, Note_on_c, 0, 61, 0
2, 225880, Note_on_c, 0, 62, 51
2, 226080, Note_on_c, 0, 64, 58
2, 226120, Note_on_c, 0, 62, 0
2, 226200, Note_on_c, 0, 64, 0
2, 226560, Note_on_c, 0, 55, 49
2, 226560, Note_on_c, 0, 59, 49
2, 226560, Note_on_c, 0, 64, 49
2, 226560, Note_on_c, 0, 67, 53
2, 226680, Note_on_c, 0, 67, 0
2, 226680, Note_on_c, 0, 55, 0
2, 226680, Note_on_c, 0, 59, 0
2, 226680, Note_on_c, 0, 64, 0
2, 227040, Note_on_c, 0, 54, 42
2, 227040, Note_on_c, 0, 61, 42
2, 227040, Note_on_c, 0, 64, 42
2, 227040, Note_on_c, 0, 66, 51
2, 227160, Note_on_c, 0, 66, 0
2, 227160, Note_on_c, 0, 54, 0
2, 227160, Note_on_c, 0, 61, 0
2, 227160, Note_on_c, 0, 64, 0
2, 227520, Note_on_c, 0, 62, 58
2, 227520, Note_on_c, 0, 59, 58
2, 227640, Note_on_c, 0, 59, 0
2, 227640, Note_on_c, 0, 62, 0
2, 228000, Note_on_c, 0, 62, 55
2, 228000, Note_on_c, 0, 59, 46
2, 228120, Note_on_c, 0, 59, 0
2, 228120, Note_on_c, 0, 62, 0
2, 228240, Note_on_c, 0, 64, 50
2, 228360, Note_on_c, 0, 64, 0
2, 228480, Note_on_c, 0, 61, 59
2, 228480, Note_on_c, 0, 57, 59
2, 228720, Note_on_c, 0, 57, 0
2, 228720, Note_on_c, 0, 55, 52
2, 228960, Note_on_c, 0, 55, 0
2, 228960, Note_on_c, 0, 61, 0
2, 228960, Note_on_c, 0, 62, 64
2, 229200, Note_on_c, 0, 62, 0
2, 229440, Note_on_c, 0, 74, 77
2, 229440, Note_on_c, 0, 66, 64
2, 229680, Note_on_c, 0, 66, 0
2, 229680, Note_on_c, 0, 74, 0
2, 230400, Note_on_c, 0, 78, 59
2, 230640, Note_on_c, 0, 71, 39
2, 230880, Note_on_c, 0, 78, 0
2, 230880, Note_on_c, 0, 79, 52
2, 231120, Note_on_c, 0, 79, 0
2, 231120, Note_on_c, 0, 71, 0
2, 231120, Note_on_c, 0, 71, 35
2, 231120, Note_on_c, 0, 78, 47
2, 231360, Note_on_c, 0, 78, 0
2, 231360, Note_on_c, 0, 76, 50
2, 231600, Note_on_c, 0, 76, 0
2, 231600, Note_on_c, 0, 71, 0
2, 231600, Note_on_c, 0, 71, 35
2, 231600, Note_on_c, 0, 78, 48
2, 231840, Note_on_c, 0, 78, 0
2, 231840, Note_on_c, 0, 71, 0
2, 231840, Note_on_c, 0, 79, 53
2, 232080, Note_on_c, 0, 71, 37
2, 232320, Note_on_c, 0, 79, 0
2, 232320, Note_on_c, 0, 83, 52
2, 232560, Note_on_c, 0, 71, 0
2, 232560, Note_on_c, 0, 71, 36
2, 232800, Note_on_c, 0, 83, 0
2, 232800, Note_on_c, 0, 76, 51
2, 233040, Note_on_c, 0, 71, 0
2, 233040, Note_on_c, 0, 71, 28
2, 233280, Note_on_c, 0, 71, 0
2, 233280, Note_on_c, 0, 76, 0
2, 233280, Note_on_c, 0, 78, 59
2, 233520, Note_on_c, 0, 71, 39
2, 233760, Note_on_c, 0, 71, 0
2, 233760, Note_on_c, 0, 78, 0
2, 233760, Note_on_c, 0, 79, 52
2, 234000, Note_on_c, 0, 79, 0
2, 234000, Note_on_c, 0, 71, 35
2, 234000, Note_on_c, 0, 78, 47
2, 234240, Note_on_c, 0, 78, 0
2, 234240, Note_on_c, 0, 71, 0
2, 234240, Note_on_c, 0, 76, 50
2, 234480, Note_on_c, 0, 76, 0
2, 234480, Note_on_c, 0, 71, 35
2, 234480, Note_on_c, 0, 78, 48
2, 234720, Note_on_c, 0, 78, 0
2, 234720, Note_on_c, 0, 71, 0
2, 234720, Note_on_c, 0, 79, 53
2, 234960, Note_on_c, 0, 67, 37
2, 235200, Note_on_c, 0, 67, 0
2, 235200, Note_on_c, 0, 79, 0
2, 235200, Note_on_c, 0, 76, 52
2, 235440, Note_on_c, 0, 67, 36
2, 235680, Note_on_c, 0, 67, 0
2, 235680, Note_on_c, 0, 76, 0
2, 235680, Note_on_c, 0, 73, 51
2, 235920, Note_on_c, 0, 64, 28
2, 236160, Note_on_c, 0, 64, 0
2, 236160, Note_on_c, 0, 73, 0
2, 236160, Note_on_c, 0, 62, 40
2, 236160, Note_on_c, 0, 71, 48
2, 237600, Note_on_c, 0, 71, 0
2, 237600, Note_on_c, 0, 62, 0
2, 237600, Note_on_c, 0, 74, 52
2, 237600, Note_on_c, 0, 67, 52
2, 237720, Note_on_c, 0, 74, 0
2, 237720, Note_on_c, 0, 73, 48
2, 237840, Note_on_c, 0, 73, 0
2, 237840, Note_on_c, 0, 74, 53
2, 237960, Note_on_c, 0, 74, 0
2, 237960, Note_on_c, 0, 73, 49
2, 238080, Note_on_c, 0, 73, 0
2, 238080, Note_on_c, 0, 74, 56
2, 238200, Note_on_c, 0, 74, 0
2, 238200, Note_on_c, 0, 73, 50
2, 238320, Note_on_c, 0, 73, 0
2, 238320, Note_on_c, 0, 74, 57
2, 238440, Note_on_c, 0, 74, 0
2, 238440, Note_on_c, 0, 73, 51
2, 238560, Note_on_c, 0, 73, 0
2, 238560, Note_on_c, 0, 74, 57
2, 238680, Note_on_c, 0, 74, 0
2, 238680, Note_on_c, 0, 73, 52
2, 238800, Note_on_c, 0, 73, 0
2, 238800, Note_on_c, 0, 71, 58
2, 238920, Note_on_c, 0, 71, 0
2, 238920, Note_on_c, 0, 73, 51
2, 239040, Note_on_c, 0, 73, 0
2, 239040, Note_on_c, 0, 67, 0
2, 239040, Note_on_c, 0, 66, 57
2, 239040, Note_on_c, 0, 74, 57
2, 239520, Note_on_c, 0, 74, 0
2, 239520, Note_on_c, 0, 66, 0
2, 239520, Note_on_c, 0, 74, 55
2, 239760, Note_on_c, 0, 74, 0
2, 239760, Note_on_c, 0, 76, 49
2, 240000, Note_on_c, 0, 76, 0
2, 240000, Note_on_c, 0, 64, 52
2, 240000, Note_on_c, 0, 73, 52
2, 240480, Note_on_c, 0, 73, 0
2, 240480, Note_on_c, 0, 64, 0
2, 240480, Note_on_c, 0, 62, 46
2, 240480, Note_on_c, 0, 71, 46
2, 241920, Note_on_c, 0, 71, 0
2, 241920, Note_on_c, 0, 62, 0
2, 241920, Note_on_c, 0, 74, 52
2, 241920, Note_on_c, 0, 67, 52
2, 242040, Note_on_c, 0, 74, 0
2, 242040, Note_on_c, 0, 73, 48
2, 242160, Note_on_c, 0, 73, 0
2, 242160, Note_on_c, 0, 74, 53
2, 242280, Note_on_c, 0, 74, 0
2, 242280, Note_on_c, 0, 73, 49
2, 242400, Note_on_c, 0, 73, 0
2, 242400, Note_on_c, 0, 74, 56
2, 242520, Note_on_c, 0, 74, 0
2, 242520, Note_on_c, 0, 73, 50
2, 242640, Note_on_c, 0, 73, 0
2, 242640, Note_on_c, 0, 74, 57
2, 242760, Note_on_c, 0, 74, 0
2, 242760, Note_on_c, 0, 73, 51
2, 242880, Note_on_c, 0, 73, 0
2, 242880, Note_on_c, 0, 74, 57
2, 243000, Note_on_c, 0, 74, 0
2, 243000, Note_on_c, 0, 73, 52
2, 243120, Note_on_c, 0, 73, 0
2, 243120, Note_on_c, 0, 71, 58
2, 243240, Note_on_c, 0, 71, 0
2, 243240, Note_on_c, 0, 73, 51
2, 243360, Note_on_c, 0, 73, 0
2, 243360, Note_on_c, 0, 67, 0
2, 243360, Note_on_c, 0, 74, 57
2, 243600, Note_on_c, 0, 66, 57
2, 243840, Note_on_c, 0, 66, 0
2, 243840, Note_on_c, 0, 74, 0
2, 243840, Note_on_c, 0, 74, 55
2, 244080, Note_on_c, 0, 74, 0
2, 244080, Note_on_c, 0, 66, 57
2, 244080, Note_on_c, 0, 76, 49
2, 244320, Note_on_c, 0, 76, 0
2, 244320, Note_on_c, 0, 73, 52
2, 244560, Note_on_c, 0, 66, 0
2, 244560, Note_on_c, 0, 64, 45
2, 244800, Note_on_c, 0, 64, 0
2, 244800, Note_on_c, 0, 73, 0
2, 244800, Note_on_c, 0, 71, 46
2, 245280, Note_on_c, 0, 62, 29
2, 245280, Note_on_c, 0, 66, 29
2, 245760, Note_on_c, 0, 66, 0
2, 245760, Note_on_c, 0, 62, 0
2, 245760, Note_on_c, 0, 62, 27
2, 245760, Note_on_c, 0, 66, 27
2, 246240, Note_on_c, 0, 66, 0
2, 246240, Note_on_c, 0, 62, 0
2, 246240, Note_on_c, 0, 71, 0
2, 246240, Note_on_c, 0, 62, 26
2, 246240, Note_on_c, 0, 66, 26
2, 246720, Note_on_c, 0, 66, 0
2, 246720, Note_on_c, 0, 62, 0
2, 246720, Note_on_c, 0, 62, 25
2, 246720, Note_on_c, 0, 66, 25
2, 247200, Note_on_c, 0, 66, 0
2, 247200, Note_on_c, 0, 62, 0
2, 247200, Note_on_c, 0, 62, 23
2, 247200, Note_on_c, 0, 66, 23
2, 247680, Note_on_c, 0, 66, 0
2, 247680, Note_on_c, 0, 62, 0
2, 247680, Note_on_c, 0, 78, 59
2, 247920, Note_on_c, 0, 71, 39
2, 248160, Note_on_c, 0, 78, 0
2, 248160, Note_on_c, 0, 79, 52
2, 248400, Note_on_c, 0, 79, 0
2, 248400, Note_on_c, 0, 71, 0
2, 248400, Note_on_c, 0, 71, 35
2, 248400, Note_on_c, 0, 78, 47
2, 248640, Note_on_c, 0, 78, 0
2, 248640, Note_on_c, 0, 76, 50
2, 248880, Note_on_c, 0, 76, 0
2, 248880, Note_on_c, 0, 71, 0
2, 248880, Note_on_c, 0, 71, 35
2, 248880, Note_on_c, 0, 78, 48
2, 249120, Note_on_c, 0, 78, 0
2, 249120, Note_on_c, 0, 71, 0
2, 249120, Note_on_c, 0, 79, 53
2, 249360, Note_on_c, 0, 71, 37
2, 249600, Note_on_c, 0, 79, 0
2, 249600, Note_on_c, 0, 83, 52
2, 249840, Note_on_c, 0, 71, 0
2, 249840, Note_on_c, 0, 71, 36
2, 250080, Note_on_c, 0, 83, 0
2, 250080, Note_on_c, 0, 76, 51
2, 250320, Note_on_c, 0, 71, 0
2, 250320, Note_on_c, 0, 71, 28
2, 250560, Note_on_c, 0, 71, 0
2, 250560, Note_on_c, 0, 76, 0
2, 250560, Note_on_c, 0, 78, 59
2, 250800, Note_on_c, 0, 71, 39
2, 251040, Note_on_c, 0, 71, 0
2, 251040, Note_on_c, 0, 78, 0
2, 251040, Note_on_c, 0, 79, 52
2, 251280, Note_on_c, 0, 79, 0
2, 251280, Note_on_c, 0, 71, 35
2, 251280, Note_on_c, 0, 78, 47
2, 251520, Note_on_c, 0, 78, 0
2, 251520, Note_on_c, 0, 71, 0
2, 251520, Note_on_c, 0, 76, 50
2, 251760, Note_on_c, 0, 76, 0
2, 251760, Note_on_c, 0, 71, 35
2, 251760, Note_on_c, 0, 78, 48
2, 252000, Note_on_c, 0, 78, 0
2, 252000, Note_on_c, 0, 71, 0
2, 252000, Note_on_c, 0, 79, 53
2, 252240, Note_on_c, 0, 67, 37
2, 252480, Note_on_c, 0, 67, 0
2, 252480, Note_on_c, 0, 79, 0
2, 252480, Note_on_c, 0, 76, 52
2, 252720, Note_on_c, 0, 67, 36
2, 252960, Note_on_c, 0, 67, 0
2, 252960, Note_on_c, 0, 76, 0
2, 252960, Note_on_c, 0, 73, 51
2, 253200, Note_on_c, 0, 64, 28
2, 253440, Note_on_c, 0, 64, 0
2, 253440, Note_on_c, 0, 73, 0
2, 253440, Note_on_c, 0, 62, 40
2, 253440, Note_on_c, 0, 71, 48
2, 254880, Note_on_c, 0, 71, 0
2, 254880, Note_on_c, 0, 62, 0
2, 254880, Note_on_c, 0, 74, 52
2, 254880, Note_on_c, 0, 67, 52
2, 255000, Note_on_c, 0, 74, 0
2, 255000, Note_on_c, 0, 73, 48
2, 255120, Note_on_c, 0, 73, 0
2, 255120, Note_on_c, 0, 74, 53
2, 255240, Note_on_c, 0, 74, 0
2, 255240, Note_on_c, 0, 73, 49
2, 255360, Note_on_c, 0, 73, 0
2, 255360, Note_on_c, 0, 74, 56
2, 255480, Note_on_c, 0, 74, 0
2, 255480, Note_on_c, 0, 73, 50
2, 255600, Note_on_c, 0, 73, 0
2, 255600, Note_on_c, 0, 74, 57
2, 255720, Note_on_c, 0, 74, 0
2, 255720, Note_on_c, 0, 73, 51
2, 255840, Note_on_c, 0, 73, 0
2, 255840, Note_on_c, 0, 74, 57
2, 255960, Note_on_c, 0, 74, 0
2, 255960, Note_on_c, 0, 73, 52
2, 256080, Note_on_c, 0, 73, 0
2, 256080, Note_on_c, 0, 71, 58
2, 256200, Note_on_c, 0, 71, 0
2, 256200, Note_on_c, 0, 73, 51
2, 256320, Note_on_c, 0, 73, 0
2, 256320, Note_on_c, 0, 67, 0
2, 256320, Note_on_c, 0, 66, 57
2, 256320, Note_on_c, 0, 74, 57
2, 256800, Note_on_c, 0, 74, 0
2, 256800, Note_on_c, 0, 66, 0
2, 256800, Note_on_c, 0, 74, 55
2, 257040, Note_on_c, 0, 74, 0
2, 257040, Note_on_c, 0, 76, 49
2, 257280, Note_on_c, 0, 76, 0
2, 257280, Note_on_c, 0, 64, 52
2, 257280, Note_on_c, 0, 73, 52
2, 257760, Note_on_c, 0, 73, 0
2, 257760, Note_on_c, 0, 64, 0
2, 257760, Note_on_c, 0, 62, 46
2, 257760, Note_on_c, 0, 71, 46
2, 259200, Note_on_c, 0, 71, 0
2, 259200, Note_on_c, 0, 62, 0
2, 259200, Note_on_c, 0, 74, 52
2, 259200, Note_on_c, 0, 67, 52
2, 259320, Note_on_c, 0, 74, 0
2, 259320, Note_on_c, 0, 73, 48
2, 259440, Note_on_c, 0, 73, 0
2, 259440, Note_on_c, 0, 74, 53
2, 259560, Note_on_c, 0, 74, 0
2, 259560, Note_on_c, 0, 73, 49
2, 259680, Note_on_c, 0, 73, 0
2, 259680, Note_on_c, 0, 74, 56
2, 259800, Note_on_c, 0, 74, 0
2, 259800, Note_on_c, 0, 73, 50
2, 259920, Note_on_c, 0, 73, 0
2, 259920, Note_on_c, 0, 74, 57
2, 260040, Note_on_c, 0, 74, 0
2, 260040, Note_on_c, 0, 73, 51
2, 260160, Note_on_c, 0, 73, 0
2, 260160, Note_on_c, 0, 74, 57
2, 260280, Note_on_c, 0, 74, 0
2, 260280, Note_on_c, 0, 73, 52
2, 260400, Note_on_c, 0, 73, 0
2, 260400, Note_on_c, 0, 71, 58
2, 260520, Note_on_c, 0, 71, 0
2, 260520, Note_on_c, 0, 73, 51
2, 260640, Note_on_c, 0, 73, 0
2, 260640, Note_on_c, 0, 67, 0
2, 260640, Note_on_c, 0, 74, 57
2, 260880, Note_on_c, 0, 66, 57
2, 261120, Note_on_c, 0, 66, 0
2, 261120, Note_on_c, 0, 74, 0
2, 261120, Note_on_c, 0, 74, 55
2, 261360, Note_on_c, 0, 74, 0
2, 261360, Note_on_c, 0, 66, 57
2, 261360, Note_on_c, 0, 76, 49
2, 261600, Note_on_c, 0, 76, 0
2, 261600, Note_on_c, 0, 73, 52
2, 261840, Note_on_c, 0, 66, 0
2, 261840, Note_on_c, 0, 64, 45
2, 262080, Note_on_c, 0, 64, 0
2, 262080, Note_on_c, 0, 73, 0
2, 262080, Note_on_c, 0, 71, 46
2, 262560, Note_on_c, 0, 62, 29
2, 262560, Note_on_c, 0, 66, 29
2, 263040, Note_on_c, 0, 66, 0
2, 263040, Note_on_c, 0, 62, 0
2, 263040, Note_on_c, 0, 62, 27
2, 263040, Note_on_c, 0, 66, 27
2, 263520, Note_on_c, 0, 66, 0
2, 263520, Note_on_c, 0, 62, 0
2, 263520, Note_on_c, 0, 71, 0
2, 263520, Note_on_c, 0, 62, 26
2, 263520, Note_on_c, 0, 66, 26
2, 264000, Note_on_c, 0, 66, 0
2, 264000, Note_on_c, 0, 62, 0
2, 264000, Note_on_c, 0, 62, 25
2, 264000, Note_on_c, 0, 66, 25
2, 264480, Note_on_c, 0, 66, 0
2, 264480, Note_on_c, 0, 62, 0
2, 264480, Note_on_c, 0, 62, 23
2, 264480, Note_on_c, 0, 66, 23
2, 264960, Note_on_c, 0, 66, 0
2, 264960, Note_on_c, 0, 62, 0
2, 264960, Note_on_c, 0, 86, 98
2, 264960, Note_on_c, 0, 74, 82
2, 265440, Note_on_c, 0, 74, 0
2, 265440, Note_on_c, 0, 86, 0
2, 265440, Note_on_c, 0, 88, 93
2, 265440, Note_on_c, 0, 76, 78
2, 265680, Note_on_c, 0, 76, 0
2, 265680, Note_on_c, 0, 88, 0
2, 265680, Note_on_c, 0, 86, 89
2, 265680, Note_on_c, 0, 74, 75
2, 265920, Note_on_c, 0, 74, 0
2, 265920, Note_on_c, 0, 86, 0
2, 265920, Note_on_c, 0, 85, 88
2, 265920, Note_on_c, 0, 73, 74
2, 266160, Note_on_c, 0, 73, 0
2, 266160, Note_on_c, 0, 85, 0
2, 266160, Note_on_c, 0, 86, 87
2, 266160, Note_on_c, 0, 74, 74
2, 266400, Note_on_c, 0, 74, 0
2, 266400, Note_on_c, 0, 86, 0
2, 266400, Note_on_c, 0, 88, 97
2, 266400, Note_on_c, 0, 76, 81
2, 266880, Note_on_c, 0, 76, 0
2, 266880, Note_on_c, 0, 88, 0
2, 266880, Note_on_c, 0, 91, 89
2, 266880, Note_on_c, 0, 79, 75
2, 267360, Note_on_c, 0, 79, 0
2, 267360, Note_on_c, 0, 91, 0
2, 267360, Note_on_c, 0, 90, 87
2, 267360, Note_on_c, 0, 78, 74
2, 267840, Note_on_c, 0, 78, 0
2, 267840, Note_on_c, 0, 90, 0
2, 267840, Note_on_c, 0, 86, 98
2, 267840, Note_on_c, 0, 74, 82
2, 268320, Note_on_c, 0, 74, 0
2, 268320, Note_on_c, 0, 86, 0
2, 268320, Note_on_c, 0, 88, 89
2, 268320, Note_on_c, 0, 76, 75
2, 268560, Note_on_c, 0, 76, 0
2, 268560, Note_on_c, 0, 88, 0
2, 268560, Note_on_c, 0, 86, 87
2, 268560, Note_on_c, 0, 74, 74
2, 268800, Note_on_c, 0, 74, 0
2, 268800, Note_on_c, 0, 86, 0
2, 268800, Note_on_c, 0, 85, 86
2, 268800, Note_on_c, 0, 73, 72
2, 269040, Note_on_c, 0, 73, 0
2, 269040, Note_on_c, 0, 85, 0
2, 269040, Note_on_c, 0, 86, 85
2, 269040, Note_on_c, 0, 74, 72
2, 269280, Note_on_c, 0, 74, 0
2, 269280, Note_on_c, 0, 86, 0
2, 269280, Note_on_c, 0, 88, 96
2, 269280, Note_on_c, 0, 76, 81
2, 269760, Note_on_c, 0, 76, 0
2, 269760, Note_on_c, 0, 88, 0
2, 269760, Note_on_c, 0, 91, 88
2, 269760, Note_on_c, 0, 79, 74
2, 270240, Note_on_c, 0, 79, 0
2, 270240, Note_on_c, 0, 91, 0
2, 270240, Note_on_c, 0, 90, 87
2, 270240, Note_on_c, 0, 78, 74
2, 270720, Note_on_c, 0, 78, 0
2, 270720, Note_on_c, 0, 90, 0
2, 270720, Note_on_c, 0, 86, 96
2, 270720, Note_on_c, 0, 74, 81
2, 271200, Note_on_c, 0, 74, 0
2, 271200, Note_on_c, 0, 86, 0
2, 271200, Note_on_c, 0, 76, 74
2, 271200, Note_on_c, 0, 88, 87
2, 271440, Note_on_c, 0, 88, 0
2, 271440, Note_on_c, 0, 76, 0
2, 271440, Note_on_c, 0, 78, 74
2, 271440, Note_on_c, 0, 90, 88
2, 271680, Note_on_c, 0, 90, 0
2, 271680, Note_on_c, 0, 78, 0
2, 271680, Note_on_c, 0, 81, 77
2, 271680, Note_on_c, 0, 93, 92
2, 271920, Note_on_c, 0, 93, 0
2, 271920, Note_on_c, 0, 81, 0
2, 271920, Note_on_c, 0, 84, 78
2, 271920, Note_on_c, 0, 96, 93
2, 272160, Note_on_c, 0, 96, 0
2, 272160, Note_on_c, 0, 84, 0
2, 272160, Note_on_c, 0, 88, 80
2, 272160, Note_on_c, 0, 100, 94
2, 272640, Note_on_c, 0, 100, 0
2, 272640, Note_on_c, 0, 88, 0
2, 272640, Note_on_c, 0, 91, 78
2, 272640, Note_on_c, 0, 103, 93
2, 273120, Note_on_c, 0, 103, 0
2, 273120, Note_on_c, 0, 91, 0
2, 273120, Note_on_c, 0, 90, 78
2, 273120, Note_on_c, 0, 102, 93
2, 273600, Note_on_c, 0, 102, 0
2, 273600, Note_on_c, 0, 90, 0
2, 273600, Note_on_c, 0, 90, 60
2, 273600, Note_on_c, 0, 102, 94
2, 274080, Note_on_c, 0, 102, 0
2, 274080, Note_on_c, 0, 90, 0
2, 274080, Note_on_c, 0, 91, 57
2, 274080, Note_on_c, 0, 103, 86
2, 274320, Note_on_c, 0, 103, 0
2, 274320, Note_on_c, 0, 91, 0
2, 274320, Note_on_c, 0, 90, 57
2, 274320, Note_on_c, 0, 102, 86
2, 274560, Note_on_c, 0, 102, 0
2, 274560, Note_on_c, 0, 90, 0
2, 274560, Note_on_c, 0, 88, 55
2, 274560, Note_on_c, 0, 100, 85
2, 274800, Note_on_c, 0, 100, 0
2, 274800, Note_on_c, 0, 88, 0
2, 274800, Note_on_c, 0, 86, 55
2, 274800, Note_on_c, 0, 98, 85
2, 275040, Note_on_c, 0, 98, 0
2, 275040, Note_on_c, 0, 86, 0
2, 275040, Note_on_c, 0, 85, 77
2, 275040, Note_on_c, 0, 97, 92
2, 275460, Note_on_c, 0, 97, 0
2, 275460, Note_on_c, 0, 85, 0
2, 275460, Note_on_c, 0, 98, 76
2, 275520, Note_on_c, 0, 98, 0
2, 275520, Note_on_c, 0, 85, 74
2, 275520, Note_on_c, 0, 97, 87
2, 275760, Note_on_c, 0, 97, 0
2, 275760, Note_on_c, 0, 85, 0
2, 275760, Note_on_c, 0, 81, 66
2, 275760, Note_on_c, 0, 93, 80
2, 276000, Note_on_c, 0, 93, 0
2, 276000, Note_on_c, 0, 81, 0
2, 276000, Note_on_c, 0, 83, 73
2, 276000, Note_on_c, 0, 95, 86
2, 276240, Note_on_c, 0, 95, 0
2, 276240, Note_on_c, 0, 83, 0
2, 276240, Note_on_c, 0, 85, 69
2, 276240, Note_on_c, 0, 97, 82
2, 276480, Note_on_c, 0, 97, 0
2, 276480, Note_on_c, 0, 85, 0
2, 276480, Note_on_c, 0, 86, 74
2, 276480, Note_on_c, 0, 98, 88
2, 276900, Note_on_c, 0, 98, 0
2, 276900, Note_on_c, 0, 86, 0
2, 276900, Note_on_c, 0, 64, 64
2, 276960, Note_on_c, 0, 64, 0
2, 276960, Note_on_c, 0, 62, 69
2, 277080, Note_on_c, 0, 62, 0
2, 277200, Note_on_c, 0, 61, 66
2, 277320, Note_on_c, 0, 61, 0
2, 277440, Note_on_c, 0, 62, 70
2, 277560, Note_on_c, 0, 62, 0
2, 277920, Note_on_c, 0, 62, 65
2, 278040, Note_on_c, 0, 62, 0
2, 278400, Note_on_c, 0, 69, 69
2, 278520, Note_on_c, 0, 69, 0
2, 278640, Note_on_c, 0, 66, 66
2, 278760, Note_on_c, 0, 66, 0
2, 278880, Note_on_c, 0, 62, 70
2, 279000, Note_on_c, 0, 62, 0
2, 279360, Note_on_c, 0, 62, 69
2, 279480, Note_on_c, 0, 62, 0
2, 279600, Note_on_c, 0, 61, 66
2, 279720, Note_on_c, 0, 61, 0
2, 279840, Note_on_c, 0, 62, 70
2, 279960, Note_on_c, 0, 62, 0
2, 280320, Note_on_c, 0, 62, 69
2, 280440, Note_on_c, 0, 62, 0
2, 280560, Note_on_c, 0, 61, 66
2, 280680, Note_on_c, 0, 61, 0
2, 280800, Note_on_c, 0, 62, 70
2, 280920, Note_on_c, 0, 62, 0
2, 281280, Note_on_c, 0, 69, 72
2, 281400, Note_on_c, 0, 69, 0
2, 281520, Note_on_c, 0, 66, 69
2, 281640, Note_on_c, 0, 66, 0
2, 281760, Note_on_c, 0, 62, 73
2, 281880, Note_on_c, 0, 62, 0
2, 282240, Note_on_c, 0, 69, 75
2, 282360, Note_on_c, 0, 69, 0
2, 282480, Note_on_c, 0, 66, 72
2, 282600, Note_on_c, 0, 66, 0
2, 282720, Note_on_c, 0, 62, 76
2, 282840, Note_on_c, 0, 62, 0
2, 283200, Note_on_c, 0, 69, 78
2, 283320, Note_on_c, 0, 69, 0
2, 283440, Note_on_c, 0, 66, 75
2, 283560, Note_on_c, 0, 66, 0
2, 283680, Note_on_c, 0, 62, 71
2, 283800, Note_on_c, 0, 62, 0
2, 283920, Note_on_c, 0, 69, 66
2, 284040, Note_on_c, 0, 69, 0
2, 284160, Note_on_c, 0, 66, 72
2, 284280, Note_on_c, 0, 66, 0
2, 284400, Note_on_c, 0, 62, 69
2, 284520, Note_on_c, 0, 62, 0
2, 284640, Note_on_c, 0, 69, 72
2, 284760, Note_on_c, 0, 69, 0
2, 284880, Note_on_c, 0, 66, 70
2, 285000, Note_on_c, 0, 66, 0
2, 285120, Note_on_c, 0, 62, 71
2, 285120, Note_on_c, 0, 74, 84
2, 285240, Note_on_c, 0, 74, 0
2, 285240, Note_on_c, 0, 62, 0
2, 285360, Note_on_c, 0, 69, 64
2, 285360, Note_on_c, 0, 81, 76
2, 285480, Note_on_c, 0, 81, 0
2, 285480, Note_on_c, 0, 69, 0
2, 285600, Note_on_c, 0, 78, 88
2, 285600, Note_on_c, 0, 66, 73
2, 285720, Note_on_c, 0, 66, 0
2, 285720, Note_on_c, 0, 78, 0
2, 285840, Note_on_c, 0, 62, 72
2, 285840, Note_on_c, 0, 74, 85
2, 285960, Note_on_c, 0, 74, 0
2, 285960, Note_on_c, 0, 62, 0
2, 286080, Note_on_c, 0, 81, 87
2, 286080, Note_on_c, 0, 69, 72
2, 286200, Note_on_c, 0, 69, 0
2, 286200, Note_on_c, 0, 81, 0
2, 286320, Note_on_c, 0, 78, 88
2, 286320, Note_on_c, 0, 66, 74
2, 286440, Note_on_c, 0, 66, 0
2, 286440, Note_on_c, 0, 78, 0
2, 286560, Note_on_c, 0, 62, 81
2, 286560, Note_on_c, 0, 74, 96
2, 286560, Note_on_c, 0, 66, 81
2, 287040, Note_on_c, 0, 66, 0
2, 287040, Note_on_c, 0, 74, 0
2, 287040, Note_on_c, 0, 62, 0
2, 287040, Note_on_c, 0, 66, 81
2, 287040, Note_on_c, 0, 74, 96
2, 287040, Note_on_c, 0, 62, 81
2, 287520, Note_on_c, 0, 62, 0
2, 287520, Note_on_c, 0, 74, 0
2, 287520, Note_on_c, 0, 66, 0
2, 288000, Note_on_c, 0, 74, 93
2, 288000, Note_on_c, 0, 86, 110
2, 288000, Note_on_c, 0, 78, 93
2, 288480, Note_on_c, 0, 78, 0
2, 288480, Note_on_c, 0, 86, 0
2, 288480, Note_on_c, 0, 74, 0
2, 288480, Note_on_c, 0, 78, 93
2, 288480, Note_on_c, 0, 86, 110
2, 288480, Note_on_c, 0, 74, 93
2, 288960, Note_on_c, 0, 74, 0
2, 288960, Note_on_c, 0, 86, 0
2, 288960, Note_on_c, 0, 78, 0
2, 289440, Note_on_c, 0, 86, 101
2, 289440, Note_on_c, 0, 98, 120
2, 289440, Note_on_c, 0, 90, 101
2, 289920, Note_on_c, 0, 90, 0
2, 289920, Note_on_c, 0, 98, 0
2, 289920, Note_on_c, 0, 86, 0
2, 289920, End_track
3, 0, Start_track
3, 0, MIDI_port, 0
3, 0, Title_t, "Piano left"
3, 0, Program_c, 0, 0
3, 0, Control_c, 0, 7, 100
3, 0, Note_on_c, 0, 38, 46
3, 0, Note_on_c, 0, 50, 64
3, 0, Control_c, 0, 64, 0
3, 480, Note_on_c, 0, 50, 0
3, 480, Note_on_c, 0, 38, 0
3, 480, Note_on_c, 0, 52, 61
3, 480, Note_on_c, 0, 40, 44
3, 529, Control_c, 0, 64, 127
3, 600, Note_on_c, 0, 40, 0
3, 600, Note_on_c, 0, 52, 0
3, 720, Note_on_c, 0, 50, 59
3, 720, Note_on_c, 0, 38, 41
3, 840, Note_on_c, 0, 38, 0
3, 840, Note_on_c, 0, 50, 0
3, 960, Note_on_c, 0, 37, 45
3, 960, Note_on_c, 0, 49, 62
3, 1080, Note_on_c, 0, 49, 0
3, 1080, Note_on_c, 0, 37, 0
3, 1200, Note_on_c, 0, 38, 40
3, 1200, Note_on_c, 0, 50, 58
3, 1320, Note_on_c, 0, 50, 0
3, 1320, Note_on_c, 0, 38, 0
3, 1440, Note_on_c, 0, 52, 63
3, 1440, Note_on_c, 0, 40, 45
3, 1511, Control_c, 0, 64, 0
3, 1560, Note_on_c, 0, 40, 0
3, 1560, Note_on_c, 0, 52, 0
3, 1920, Note_on_c, 0, 55, 52
3, 1920, Note_on_c, 0, 43, 37
3, 2040, Note_on_c, 0, 43, 0
3, 2040, Note_on_c, 0, 55, 0
3, 2400, Note_on_c, 0, 42, 40
3, 2400, Note_on_c, 0, 54, 58
3, 2520, Note_on_c, 0, 54, 0
3, 2520, Note_on_c, 0, 42, 0
3, 2880, Note_on_c, 0, 38, 46
3, 2880, Note_on_c, 0, 50, 64
3, 3300, Note_on_c, 0, 50, 0
3, 3300, Note_on_c, 0, 38, 0
3, 3300, Note_on_c, 0, 54, 56
3, 3300, Note_on_c, 0, 42, 39
3, 3304, Control_c, 0, 64, 127
3, 3360, Note_on_c, 0, 42, 0
3, 3360, Note_on_c, 0, 54, 0
3, 3360, Note_on_c, 0, 52, 59
3, 3360, Note_on_c, 0, 40, 42
3, 3480, Note_on_c, 0, 40, 0
3, 3480, Note_on_c, 0, 52, 0
3, 3600, Note_on_c, 0, 38, 40
3, 3600, Note_on_c, 0, 50, 57
3, 3720, Note_on_c, 0, 50, 0
3, 3720, Note_on_c, 0, 38, 0
3, 3840, Note_on_c, 0, 37, 44
3, 3840, Note_on_c, 0, 49, 60
3, 3960, Note_on_c, 0, 49, 0
3, 3960, Note_on_c, 0, 37, 0
3, 4080, Note_on_c, 0, 50, 56
3, 4080, Note_on_c, 0, 38, 39
3, 4200, Note_on_c, 0, 38, 0
3, 4200, Note_on_c, 0, 50, 0
3, 4320, Note_on_c, 0, 40, 45
3, 4320, Note_on_c, 0, 52, 63
3, 4362, Control_c, 0, 64, 0
3, 4440, Note_on_c, 0, 52, 0
3, 4440, Note_on_c, 0, 40, 0
3, 4800, Note_on_c, 0, 43, 37
3, 4800, Note_on_c, 0, 55, 52
3, 4920, Note_on_c, 0, 55, 0
3, 4920, Note_on_c, 0, 43, 0
3, 5280, Note_on_c, 0, 42, 40
3, 5280, Note_on_c, 0, 54, 58
3, 5400, Note_on_c, 0, 54, 0
3, 5400, Note_on_c, 0, 42, 0
3, 5760, Control_c, 0, 64, 127
3, 5760, Note_on_c, 0, 50, 63
3, 5760, Note_on_c, 0, 38, 59
3, 6240, Note_on_c, 0, 38, 0
3, 6240, Note_on_c, 0, 50, 0
3, 6240, Note_on_c, 0, 52, 58
3, 6240, Control_c, 0, 64, 0
3, 6343, Control_c, 0, 64, 127
3, 6480, Note_on_c, 0, 52, 0
3, 6480, Note_on_c, 0, 54, 59
3, 6720, Note_on_c, 0, 54, 0
3, 6720, Note_on_c, 0, 57, 60
3, 6960, Note_on_c, 0, 57, 0
3, 6960, Note_on_c, 0, 60, 61
3, 7200, Note_on_c, 0, 60, 0
3, 7200, Note_on_c, 0, 64, 62
3, 7200, Control_c, 0, 64, 0
3, 7307, Control_c, 0, 64, 127
3, 7680, Note_on_c, 0, 64, 0
3, 7680, Note_on_c, 0, 67, 61
3, 8160, Note_on_c, 0, 67, 0
3, 8160, Control_c, 0, 64, 0
3, 8160, Note_on_c, 0, 66, 60
3, 8293, Control_c, 0, 64, 127
3, 8640, Note_on_c, 0, 66, 0
3, 8640, Note_on_c, 0, 59, 57
3, 8640, Note_on_c, 0, 55, 55
3, 8739, Control_c, 0, 64, 0
3, 8824, Control_c, 0, 64, 127
3, 9219, Control_c, 0, 64, 0
3, 9332, Control_c, 0, 64, 127
3, 10080, Note_on_c, 0, 55, 0
3, 10080, Note_on_c, 0, 59, 0
3, 10080, Control_c, 0, 64, 0
3, 10080, Note_on_c, 0, 55, 58
3, 10080, Note_on_c, 0, 61, 60
3, 10080, Note_on_c, 0, 57, 58
3, 10213, Control_c, 0, 64, 127
3, 10500, Note_on_c, 0, 57, 0
3, 10500, Note_on_c, 0, 61, 0
3, 10500, Note_on_c, 0, 55, 0
3, 10560, Note_on_c, 0, 61, 58
3, 10573, Control_c, 0, 64, 0
3, 10639, Control_c, 0, 64, 127
3, 10800, Note_on_c, 0, 61, 0
3, 10800, Note_on_c, 0, 57, 53
3, 11040, Note_on_c, 0, 57, 0
3, 11040, Note_on_c, 0, 59, 57
3, 11280, Note_on_c, 0, 59, 0
3, 11280, Note_on_c, 0, 61, 55
3, 11520, Note_on_c, 0, 61, 0
3, 11520, Note_on_c, 0, 54, 59
3, 11520, Note_on_c, 0, 57, 59
3, 11520, Note_on_c, 0, 62, 59
3, 11520, Control_c, 0, 64, 0
3, 11760, Control_c, 0, 64, 127
3, 11979, Control_c, 0, 64, 0
3, 12000, Note_on_c, 0, 62, 0
3, 12000, Note_on_c, 0, 57, 0
3, 12000, Note_on_c, 0, 54, 0
3, 12000, Note_on_c, 0, 40, 44
3, 12000, Note_on_c, 0, 52, 61
3, 12049, Control_c, 0, 64, 127
3, 12120, Note_on_c, 0, 52, 0
3, 12120, Note_on_c, 0, 40, 0
3, 12240, Note_on_c, 0, 50, 59
3, 12240, Note_on_c, 0, 38, 41
3, 12360, Note_on_c, 0, 38, 0
3, 12360, Note_on_c, 0, 50, 0
3, 12480, Note_on_c, 0, 37, 45
3, 12480, Note_on_c, 0, 49, 62
3, 12600, Note_on_c, 0, 49, 0
3, 12600, Note_on_c, 0, 37, 0
3, 12720, Note_on_c, 0, 38, 40
3, 12720, Note_on_c, 0, 50, 58
3, 12840, Note_on_c, 0, 50, 0
3, 12840, Note_on_c, 0, 38, 0
3, 12960, Note_on_c, 0, 52, 63
3, 12960, Note_on_c, 0, 40, 45
3, 12988, Control_c, 0, 64, 0
3, 13080, Note_on_c, 0, 40, 0
3, 13080, Note_on_c, 0, 52, 0
3, 13440, Note_on_c, 0, 55, 52
3, 13440, Note_on_c, 0, 43, 37
3, 13560, Note_on_c, 0, 43, 0
3, 13560, Note_on_c, 0, 55, 0
3, 13920, Note_on_c, 0, 42, 40
3, 13920, Note_on_c, 0, 54, 58
3, 14040, Note_on_c, 0, 54, 0
3, 14040, Note_on_c, 0, 42, 0
3, 14400, Note_on_c, 0, 38, 46
3, 14400, Note_on_c, 0, 50, 64
3, 14820, Note_on_c, 0, 50, 0
3, 14820, Note_on_c, 0, 38, 0
3, 14820, Note_on_c, 0, 54, 56
3, 14820, Note_on_c, 0, 42, 39
3, 14824, Control_c, 0, 64, 127
3, 14880, Note_on_c, 0, 42, 0
3, 14880, Note_on_c, 0, 54, 0
3, 14880, Note_on_c, 0, 52, 59
3, 14880, Note_on_c, 0, 40, 42
3, 15000, Note_on_c, 0, 40, 0
3, 15000, Note_on_c, 0, 52, 0
3, 15120, Note_on_c, 0, 38, 40
3, 15120, Note_on_c, 0, 50, 57
3, 15240, Note_on_c, 0, 50, 0
3, 15240, Note_on_c, 0, 38, 0
3, 15360, Note_on_c, 0, 37, 44
3, 15360, Note_on_c, 0, 49, 60
3, 15480, Note_on_c, 0, 49, 0
3, 15480, Note_on_c, 0, 37, 0
3, 15600, Note_on_c, 0, 50, 56
3, 15600, Note_on_c, 0, 38, 39
3, 15720, Note_on_c, 0, 38, 0
3, 15720, Note_on_c, 0, 50, 0
3, 15840, Note_on_c, 0, 40, 45
3, 15840, Note_on_c, 0, 52, 63
3, 15868, Control_c, 0, 64, 0
3, 15960, Note_on_c, 0, 52, 0
3, 15960, Note_on_c, 0, 40, 0
3, 16320, Note_on_c, 0, 43, 37
3, 16320, Note_on_c, 0, 55, 52
3, 16440, Note_on_c, 0, 55, 0
3, 16440, Note_on_c, 0, 43, 0
3, 16800, Note_on_c, 0, 42, 40
3, 16800, Note_on_c, 0, 54, 58
3, 16920, Note_on_c, 0, 54, 0
3, 16920, Note_on_c, 0, 42, 0
3, 17280, Control_c, 0, 64, 127
3, 17280, Note_on_c, 0, 50, 63
3, 17280, Note_on_c, 0, 38, 58
3, 17760, Note_on_c, 0, 38, 0
3, 17760, Note_on_c, 0, 50, 0
3, 17760, Note_on_c, 0, 52, 58
3, 17760, Control_c, 0, 64, 0
3, 17863, Control_c, 0, 64, 127
3, 18000, Note_on_c, 0, 52, 0
3, 18000, Note_on_c, 0, 54, 59
3, 18240, Note_on_c, 0, 54, 0
3, 18240, Note_on_c, 0, 57, 60
3, 18480, Note_on_c, 0, 57, 0
3, 18480, Note_on_c, 0, 60, 61
3, 18720, Note_on_c, 0, 60, 0
3, 18720, Note_on_c, 0, 64, 62
3, 18720, Control_c, 0, 64, 0
3, 18827, Control_c, 0, 64, 127
3, 19200, Note_on_c, 0, 64, 0
3, 19200, Note_on_c, 0, 67, 61
3, 19680, Note_on_c, 0, 67, 0
3, 19680, Control_c, 0, 64, 0
3, 19680, Note_on_c, 0, 66, 60
3, 19813, Control_c, 0, 64, 127
3, 20160, Note_on_c, 0, 66, 0
3, 20160, Note_on_c, 0, 59, 57
3, 20160, Note_on_c, 0, 55, 55
3, 20259, Control_c, 0, 64, 0
3, 20344, Control_c, 0, 64, 127
3, 20739, Control_c, 0, 64, 0
3, 20852, Control_c, 0, 64, 127
3, 21600, Note_on_c, 0, 55, 0
3, 21600, Note_on_c, 0, 59, 0
3, 21600, Control_c, 0, 64, 0
3, 21600, Note_on_c, 0, 55, 58
3, 21600, Note_on_c, 0, 61, 60
3, 21600, Note_on_c, 0, 57, 58
3, 21733, Control_c, 0, 64, 127
3, 22020, Note_on_c, 0, 57, 0
3, 22020, Note_on_c, 0, 61, 0
3, 22020, Note_on_c, 0, 55, 0
3, 22080, Note_on_c, 0, 61, 58
3, 22093, Control_c, 0, 64, 0
3, 22159, Control_c, 0, 64, 127
3, 22320, Note_on_c, 0, 61, 0
3, 22320, Note_on_c, 0, 57, 53
3, 22560, Note_on_c, 0, 57, 0
3, 22560, Note_on_c, 0, 59, 57
3, 22800, Note_on_c, 0, 59, 0
3, 22800, Note_on_c, 0, 61, 55
3, 23040, Note_on_c, 0, 61, 0
3, 23040, Note_on_c, 0, 54, 59
3, 23040, Note_on_c, 0, 57, 59
3, 23040, Control_c, 0, 64, 0
3, 23040, Note_on_c, 0, 62, 59
3, 23160, Control_c, 0, 64, 127
3, 23435, Control_c, 0, 64, 0
3, 23520, Note_on_c, 0, 62, 0
3, 23520, Note_on_c, 0, 57, 0
3, 23520, Note_on_c, 0, 54, 0
3, 23520, Note_on_c, 0, 38, 44
3, 23520, Note_on_c, 0, 50, 61
3, 23569, Control_c, 0, 64, 127
3, 23640, Note_on_c, 0, 50, 0
3, 23640, Note_on_c, 0, 38, 0
3, 23760, Note_on_c, 0, 49, 59
3, 23760, Note_on_c, 0, 37, 41
3, 23880, Note_on_c, 0, 37, 0
3, 23880, Note_on_c, 0, 49, 0
3, 24000, Note_on_c, 0, 38, 45
3, 24000, Note_on_c, 0, 50, 62
3, 24120, Note_on_c, 0, 50, 0
3, 24120, Note_on_c, 0, 38, 0
3, 24169, Control_c, 0, 64, 0
3, 24480, Note_on_c, 0, 38, 52
3, 24480, Note_on_c, 0, 50, 59
3, 24600, Note_on_c, 0, 50, 0
3, 24600, Note_on_c, 0, 38, 0
3, 24600, Control_c, 0, 64, 127
3, 24900, Control_c, 0, 64, 0
3, 24960, Note_on_c, 0, 45, 44
3, 24960, Note_on_c, 0, 57, 61
3, 25009, Control_c, 0, 64, 127
3, 25080, Note_on_c, 0, 57, 0
3, 25080, Note_on_c, 0, 45, 0
3, 25200, Note_on_c, 0, 54, 59
3, 25200, Note_on_c, 0, 42, 41
3, 25320, Note_on_c, 0, 42, 0
3, 25320, Note_on_c, 0, 54, 0
3, 25440, Note_on_c, 0, 38, 45
3, 25440, Note_on_c, 0, 50, 62
3, 25560, Note_on_c, 0, 50, 0
3, 25560, Note_on_c, 0, 38, 0
3, 25680, Control_c, 0, 64, 0
3, 25920, Note_on_c, 0, 60, 46
3, 25920, Note_on_c, 0, 66, 46
3, 25920, Note_on_c, 0, 69, 46
3, 25920, Note_on_c, 0, 62, 46
3, 26040, Note_on_c, 0, 62, 0
3, 26040, Note_on_c, 0, 60, 0
3, 26040, Note_on_c, 0, 66, 0
3, 26040, Note_on_c, 0, 69, 0
3, 26160, Note_on_c, 0, 62, 42
3, 26160, Note_on_c, 0, 66, 42
3, 26160, Note_on_c, 0, 60, 42
3, 26160, Note_on_c, 0, 69, 42
3, 26280, Note_on_c, 0, 69, 0
3, 26280, Note_on_c, 0, 62, 0
3, 26280, Note_on_c, 0, 66, 0
3, 26280, Note_on_c, 0, 60, 0
3, 26400, Note_on_c, 0, 60, 45
3, 26400, Note_on_c, 0, 62, 45
3, 26400, Note_on_c, 0, 69, 45
3, 26400, Note_on_c, 0, 66, 45
3, 26520, Note_on_c, 0, 66, 0
3, 26520, Note_on_c, 0, 60, 0
3, 26520, Note_on_c, 0, 62, 0
3, 26520, Note_on_c, 0, 69, 0
3, 26880, Note_on_c, 0, 60, 44
3, 26880, Note_on_c, 0, 66, 44
3, 26880, Note_on_c, 0, 69, 44
3, 26880, Note_on_c, 0, 62, 44
3, 27000, Note_on_c, 0, 62, 0
3, 27000, Note_on_c, 0, 60, 0
3, 27000, Note_on_c, 0, 66, 0
3, 27000, Note_on_c, 0, 69, 0
3, 27120, Note_on_c, 0, 62, 41
3, 27120, Note_on_c, 0, 66, 41
3, 27120, Note_on_c, 0, 60, 41
3, 27120, Note_on_c, 0, 69, 41
3, 27240, Note_on_c, 0, 69, 0
3, 27240, Note_on_c, 0, 62, 0
3, 27240, Note_on_c, 0, 66, 0
3, 27240, Note_on_c, 0, 60, 0
3, 27360, Note_on_c, 0, 59, 44
3, 27360, Note_on_c, 0, 62, 44
3, 27360, Note_on_c, 0, 71, 44
3, 27360, Note_on_c, 0, 67, 44
3, 27480, Note_on_c, 0, 67, 0
3, 27480, Note_on_c, 0, 59, 0
3, 27480, Note_on_c, 0, 62, 0
3, 27480, Note_on_c, 0, 71, 0
3, 27840, Note_on_c, 0, 59, 41
3, 27840, Note_on_c, 0, 67, 49
3, 27840, Note_on_c, 0, 71, 49
3, 27840, Note_on_c, 0, 62, 41
3, 27861, Control_c, 0, 64, 127
3, 28080, Note_on_c, 0, 62, 0
3, 28080, Note_on_c, 0, 59, 0
3, 28080, Note_on_c, 0, 67, 0
3, 28080, Note_on_c, 0, 71, 0
3, 28080, Note_on_c, 0, 59, 39
3, 28080, Note_on_c, 0, 62, 39
3, 28080, Note_on_c, 0, 71, 47
3, 28080, Note_on_c, 0, 67, 47
3, 28320, Note_on_c, 0, 67, 0
3, 28320, Note_on_c, 0, 59, 0
3, 28320, Note_on_c, 0, 62, 0
3, 28320, Note_on_c, 0, 71, 0
3, 28320, Note_on_c, 0, 59, 41
3, 28320, Note_on_c, 0, 67, 49
3, 28320, Note_on_c, 0, 71, 49
3, 28320, Note_on_c, 0, 62, 41
3, 28574, Control_c, 0, 64, 0
3, 28680, Note_on_c, 0, 62, 0
3, 28680, Note_on_c, 0, 59, 0
3, 28680, Note_on_c, 0, 67, 0
3, 28680, Note_on_c, 0, 71, 0
3, 28800, Note_on_c, 0, 58, 53
3, 28800, Note_on_c, 0, 67, 53
3, 28913, Control_c, 0, 64, 127
3, 29280, Note_on_c, 0, 62, 53
3, 29319, Control_c, 0, 64, 0
3, 29347, Control_c, 0, 64, 127
3, 29693, Control_c, 0, 64, 0
3, 29760, Note_on_c, 0, 64, 48
3, 29813, Control_c, 0, 64, 127
3, 30000, Note_on_c, 0, 64, 0
3, 30000, Note_on_c, 0, 65, 49
3, 30180, Control_c, 0, 64, 0
3, 30240, Note_on_c, 0, 65, 0
3, 30240, Note_on_c, 0, 62, 0
3, 30240, Note_on_c, 0, 67, 0
3, 30240, Note_on_c, 0, 58, 0
3, 30240, Note_on_c, 0, 62, 56
3, 30240, Note_on_c, 0, 66, 56
3, 30240, Note_on_c, 0, 57, 56
3, 30360, Note_on_c, 0, 57, 0
3, 30360, Note_on_c, 0, 66, 0
3, 30360, Note_on_c, 0, 62, 0
3, 30720, Note_on_c, 0, 50, 59
3, 30806, Control_c, 0, 64, 127
3, 30840, Note_on_c, 0, 50, 0
3, 31200, Note_on_c, 0, 57, 52
3, 31200, Note_on_c, 0, 66, 52
3, 31200, Note_on_c, 0, 62, 52
3, 31309, Control_c, 0, 64, 0
3, 31320, Note_on_c, 0, 62, 0
3, 31320, Note_on_c, 0, 66, 0
3, 31320, Note_on_c, 0, 57, 0
3, 31680, Note_on_c, 0, 62, 55
3, 31680, Note_on_c, 0, 67, 55
3, 31680, Note_on_c, 0, 58, 55
3, 31800, Note_on_c, 0, 58, 0
3, 31800, Note_on_c, 0, 67, 0
3, 31800, Note_on_c, 0, 62, 0
3, 32160, Note_on_c, 0, 50, 59
3, 32206, Control_c, 0, 64, 127
3, 32280, Note_on_c, 0, 50, 0
3, 32640, Note_on_c, 0, 58, 51
3, 32640, Note_on_c, 0, 67, 51
3, 32640, Note_on_c, 0, 62, 51
3, 32743, Control_c, 0, 64, 0
3, 32760, Note_on_c, 0, 62, 0
3, 32760, Note_on_c, 0, 67, 0
3, 32760, Note_on_c, 0, 58, 0
3, 33120, Note_on_c, 0, 66, 55
3, 33120, Note_on_c, 0, 62, 55
3, 33176, Control_c, 0, 64, 127
3, 33240, Note_on_c, 0, 62, 0
3, 33240, Note_on_c, 0, 66, 0
3, 33416, Control_c, 0, 64, 0
3, 33600, Note_on_c, 0, 42, 61
3, 33600, Note_on_c, 0, 54, 61
3, 33664, Control_c, 0, 64, 127
3, 33720, Note_on_c, 0, 54, 0
3, 33720, Note_on_c, 0, 42, 0
3, 33840, Note_on_c, 0, 40, 57
3, 33840, Note_on_c, 0, 52, 57
3, 33960, Note_on_c, 0, 52, 0
3, 33960, Note_on_c, 0, 40, 0
3, 34080, Note_on_c, 0, 50, 62
3, 34080, Note_on_c, 0, 38, 62
3, 34200, Note_on_c, 0, 38, 0
3, 34200, Note_on_c, 0, 50, 0
3, 34306, Control_c, 0, 64, 0
3, 34560, Note_on_c, 0, 57, 59
3, 34560, Note_on_c, 0, 62, 59
3, 34560, Note_on_c, 0, 54, 59
3, 34680, Control_c, 0, 64, 127
3, 34955, Control_c, 0, 64, 0
3, 35040, Note_on_c, 0, 54, 0
3, 35040, Note_on_c, 0, 62, 0
3, 35040, Note_on_c, 0, 57, 0
3, 35040, Note_on_c, 0, 50, 61
3, 35040, Note_on_c, 0, 38, 44
3, 35089, Control_c, 0, 64, 127
3, 35160, Note_on_c, 0, 38, 0
3, 35160, Note_on_c, 0, 50, 0
3, 35280, Note_on_c, 0, 37, 41
3, 35280, Note_on_c, 0, 49, 59
3, 35400, Note_on_c, 0, 49, 0
3, 35400, Note_on_c, 0, 37, 0
3, 35520, Note_on_c, 0, 38, 45
3, 35520, Note_on_c, 0, 50, 62
3, 35640, Note_on_c, 0, 50, 0
3, 35640, Note_on_c, 0, 38, 0
3, 35739, Control_c, 0, 64, 0
3, 36000, Note_on_c, 0, 38, 52
3, 36000, Note_on_c, 0, 50, 59
3, 36120, Note_on_c, 0, 50, 0
3, 36120, Note_on_c, 0, 38, 0
3, 36120, Control_c, 0, 64, 127
3, 36420, Control_c, 0, 64, 0
3, 36480, Note_on_c, 0, 57, 61
3, 36480, Note_on_c, 0, 45, 44
3, 36529, Control_c, 0, 64, 127
3, 36600, Note_on_c, 0, 45, 0
3, 36600, Note_on_c, 0, 57, 0
3, 36720, Note_on_c, 0, 42, 41
3, 36720, Note_on_c, 0, 54, 59
3, 36840, Note_on_c, 0, 54, 0
3, 36840, Note_on_c, 0, 42, 0
3, 36960, Note_on_c, 0, 38, 45
3, 36960, Note_on_c, 0, 50, 62
3, 37080, Note_on_c, 0, 50, 0
3, 37080, Note_on_c, 0, 38, 0
3, 37182, Control_c, 0, 64, 0
3, 37440, Note_on_c, 0, 60, 46
3, 37440, Note_on_c, 0, 62, 46
3, 37440, Note_on_c, 0, 69, 46
3, 37440, Note_on_c, 0, 66, 46
3, 37560, Note_on_c, 0, 66, 0
3, 37560, Note_on_c, 0, 60, 0
3, 37560, Note_on_c, 0, 62, 0
3, 37560, Note_on_c, 0, 69, 0
3, 37680, Note_on_c, 0, 60, 42
3, 37680, Note_on_c, 0, 66, 42
3, 37680, Note_on_c, 0, 69, 42
3, 37680, Note_on_c, 0, 62, 42
3, 37800, Note_on_c, 0, 62, 0
3, 37800, Note_on_c, 0, 60, 0
3, 37800, Note_on_c, 0, 66, 0
3, 37800, Note_on_c, 0, 69, 0
3, 37920, Note_on_c, 0, 62, 45
3, 37920, Note_on_c, 0, 66, 45
3, 37920, Note_on_c, 0, 60, 45
3, 37920, Note_on_c, 0, 69, 45
3, 38040, Note_on_c, 0, 69, 0
3, 38040, Note_on_c, 0, 62, 0
3, 38040, Note_on_c, 0, 66, 0
3, 38040, Note_on_c, 0, 60, 0
3, 38400, Note_on_c, 0, 60, 44
3, 38400, Note_on_c, 0, 62, 44
3, 38400, Note_on_c, 0, 69, 44
3, 38400, Note_on_c, 0, 66, 44
3, 38520, Note_on_c, 0, 66, 0
3, 38520, Note_on_c, 0, 60, 0
3, 38520, Note_on_c, 0, 62, 0
3, 38520, Note_on_c, 0, 69, 0
3, 38640, Note_on_c, 0, 60, 41
3, 38640, Note_on_c, 0, 66, 41
3, 38640, Note_on_c, 0, 69, 41
3, 38640, Note_on_c, 0, 62, 41
3, 38760, Note_on_c, 0, 62, 0
3, 38760, Note_on_c, 0, 60, 0
3, 38760, Note_on_c, 0, 66, 0
3, 38760, Note_on_c, 0, 69, 0
3, 38880, Note_on_c, 0, 62, 44
3, 38880, Note_on_c, 0, 67, 44
3, 38880, Note_on_c, 0, 59, 44
3, 38880, Note_on_c, 0, 71, 44
3, 39000, Note_on_c, 0, 71, 0
3, 39000, Note_on_c, 0, 62, 0
3, 39000, Note_on_c, 0, 67, 0
3, 39000, Note_on_c, 0, 59, 0
3, 39360, Note_on_c, 0, 59, 41
3, 39360, Note_on_c, 0, 62, 41
3, 39360, Note_on_c, 0, 71, 49
3, 39360, Note_on_c, 0, 67, 49
3, 39381, Control_c, 0, 64, 127
3, 39600, Note_on_c, 0, 67, 0
3, 39600, Note_on_c, 0, 59, 0
3, 39600, Note_on_c, 0, 62, 0
3, 39600, Note_on_c, 0, 71, 0
3, 39600, Note_on_c, 0, 62, 39
3, 39600, Note_on_c, 0, 67, 47
3, 39600, Note_on_c, 0, 71, 47
3, 39600, Note_on_c, 0, 59, 39
3, 39840, Note_on_c, 0, 59, 0
3, 39840, Note_on_c, 0, 62, 0
3, 39840, Note_on_c, 0, 67, 0
3, 39840, Note_on_c, 0, 71, 0
3, 39840, Note_on_c, 0, 59, 41
3, 39840, Note_on_c, 0, 62, 41
3, 39840, Note_on_c, 0, 71, 49
3, 39840, Note_on_c, 0, 67, 49
3, 40066, Control_c, 0, 64, 0
3, 40200, Note_on_c, 0, 67, 0
3, 40200, Note_on_c, 0, 59, 0
3, 40200, Note_on_c, 0, 62, 0
3, 40200, Note_on_c, 0, 71, 0
3, 40320, Note_on_c, 0, 67, 53
3, 40320, Note_on_c, 0, 58, 53
3, 40433, Control_c, 0, 64, 127
3, 40800, Note_on_c, 0, 62, 53
3, 40839, Control_c, 0, 64, 0
3, 40867, Control_c, 0, 64, 127
3, 41213, Control_c, 0, 64, 0
3, 41280, Note_on_c, 0, 64, 48
3, 41333, Control_c, 0, 64, 127
3, 41520, Note_on_c, 0, 64, 0
3, 41520, Note_on_c, 0, 65, 49
3, 41760, Note_on_c, 0, 65, 0
3, 41760, Note_on_c, 0, 62, 0
3, 41760, Note_on_c, 0, 58, 0
3, 41760, Note_on_c, 0, 67, 0
3, 41760, Note_on_c, 0, 57, 56
3, 41760, Note_on_c, 0, 62, 56
3, 41760, Note_on_c, 0, 66, 56
3, 41823, Control_c, 0, 64, 0
3, 41880, Note_on_c, 0, 66, 0
3, 41880, Note_on_c, 0, 62, 0
3, 41880, Note_on_c, 0, 57, 0
3, 42240, Note_on_c, 0, 50, 59
3, 42326, Control_c, 0, 64, 127
3, 42360, Note_on_c, 0, 50, 0
3, 42720, Note_on_c, 0, 57, 52
3, 42720, Note_on_c, 0, 62, 52
3, 42720, Note_on_c, 0, 66, 52
3, 42829, Control_c, 0, 64, 0
3, 42840, Note_on_c, 0, 66, 0
3, 42840, Note_on_c, 0, 62, 0
3, 42840, Note_on_c, 0, 57, 0
3, 43200, Note_on_c, 0, 58, 55
3, 43200, Note_on_c, 0, 67, 55
3, 43200, Note_on_c, 0, 62, 55
3, 43320, Note_on_c, 0, 62, 0
3, 43320, Note_on_c, 0, 67, 0
3, 43320, Note_on_c, 0, 58, 0
3, 43680, Note_on_c, 0, 50, 59
3, 43726, Control_c, 0, 64, 127
3, 43800, Note_on_c, 0, 50, 0
3, 44160, Note_on_c, 0, 58, 51
3, 44160, Note_on_c, 0, 62, 51
3, 44160, Note_on_c, 0, 67, 51
3, 44263, Control_c, 0, 64, 0
3, 44280, Note_on_c, 0, 67, 0
3, 44280, Note_on_c, 0, 62, 0
3, 44280, Note_on_c, 0, 58, 0
3, 44640, Note_on_c, 0, 62, 55
3, 44640, Note_on_c, 0, 66, 55
3, 44696, Control_c, 0, 64, 127
3, 44760, Note_on_c, 0, 66, 0
3, 44760, Note_on_c, 0, 62, 0
3, 44936, Control_c, 0, 64, 0
3, 45120, Note_on_c, 0, 54, 59
3, 45120, Note_on_c, 0, 42, 59
3, 45184, Control_c, 0, 64, 127
3, 45240, Note_on_c, 0, 42, 0
3, 45240, Note_on_c, 0, 54, 0
3, 45360, Note_on_c, 0, 52, 55
3, 45360, Note_on_c, 0, 40, 55
3, 45480, Note_on_c, 0, 40, 0
3, 45480, Note_on_c, 0, 52, 0
3, 45600, Note_on_c, 0, 38, 60
3, 45600, Note_on_c, 0, 50, 60
3, 45720, Note_on_c, 0, 50, 0
3, 45720, Note_on_c, 0, 38, 0
3, 45826, Control_c, 0, 64, 0
3, 46080, Note_on_c, 0, 54, 52
3, 46080, Note_on_c, 0, 57, 52
3, 46136, Control_c, 0, 64, 127
3, 46376, Control_c, 0, 64, 0
3, 46560, Note_on_c, 0, 42, 52
3, 46680, Note_on_c, 0, 42, 0
3, 46800, Note_on_c, 0, 40, 49
3, 46920, Note_on_c, 0, 40, 0
3, 47040, Note_on_c, 0, 38, 53
3, 47160, Note_on_c, 0, 38, 0
3, 47520, Note_on_c, 0, 57, 0
3, 47520, Note_on_c, 0, 54, 0
3, 47520, Note_on_c, 0, 54, 49
3, 47520, Note_on_c, 0, 57, 49
3, 47576, Control_c, 0, 64, 127
3, 47816, Control_c, 0, 64, 0
3, 48000, Note_on_c, 0, 42, 49
3, 48120, Note_on_c, 0, 42, 0
3, 48240, Note_on_c, 0, 40, 46
3, 48360, Note_on_c, 0, 40, 0
3, 48480, Note_on_c, 0, 38, 50
3, 48600, Note_on_c, 0, 38, 0
3, 48960, Note_on_c, 0, 57, 0
3, 48960, Note_on_c, 0, 54, 0
3, 48960, Note_on_c, 0, 42, 49
3, 48960, Note_on_c, 0, 54, 49
3, 49080, Note_on_c, 0, 54, 0
3, 49080, Note_on_c, 0, 42, 0
3, 49200, Note_on_c, 0, 52, 45
3, 49200, Note_on_c, 0, 40, 45
3, 49320, Note_on_c, 0, 40, 0
3, 49320, Note_on_c, 0, 52, 0
3, 49440, Note_on_c, 0, 38, 48
3, 49440, Note_on_c, 0, 50, 48
3, 49560, Note_on_c, 0, 50, 0
3, 49560, Note_on_c, 0, 38, 0
3, 49920, Note_on_c, 0, 42, 45
3, 49920, Note_on_c, 0, 54, 45
3, 50040, Note_on_c, 0, 54, 0
3, 50040, Note_on_c, 0, 42, 0
3, 50160, Note_on_c, 0, 40, 41
3, 50160, Note_on_c, 0, 52, 41
3, 50280, Note_on_c, 0, 52, 0
3, 50280, Note_on_c, 0, 40, 0
3, 50400, Note_on_c, 0, 38, 44
3, 50400, Note_on_c, 0, 50, 44
3, 50520, Note_on_c, 0, 50, 0
3, 50520, Note_on_c, 0, 38, 0
3, 50880, Note_on_c, 0, 45, 41
3, 51000, Note_on_c, 0, 45, 0
3, 51360, Note_on_c, 0, 38, 40
3, 51480, Note_on_c, 0, 38, 0
3, 51840, Note_on_c, 0, 38, 55
3, 51865, Control_c, 0, 64, 127
3, 52080, Note_on_c, 0, 54, 46
3, 52324, Control_c, 0, 64, 0
3, 52369, Control_c, 0, 64, 127
3, 53280, Note_on_c, 0, 54, 0
3, 53280, Note_on_c, 0, 38, 0
3, 53280, Control_c, 0, 64, 0
3, 53280, Note_on_c, 0, 37, 55
3, 53400, Note_on_c, 0, 37, 0
3, 53520, Note_on_c, 0, 49, 55
3, 53640, Note_on_c, 0, 49, 0
3, 54240, Note_on_c, 0, 46, 55
3, 54240, Note_on_c, 0, 34, 46
3, 54720, Note_on_c, 0, 34, 0
3, 54720, Note_on_c, 0, 46, 0
3, 54720, Note_on_c, 0, 35, 55
3, 54840, Note_on_c, 0, 35, 0
3, 54960, Note_on_c, 0, 47, 55
3, 55080, Note_on_c, 0, 47, 0
3, 55680, Note_on_c, 0, 32, 46
3, 55680, Note_on_c, 0, 44, 55
3, 55680, Note_on_c, 0, 52, 42
3, 55800, Note_on_c, 0, 52, 0
3, 56160, Note_on_c, 0, 44, 0
3, 56160, Note_on_c, 0, 32, 0
3, 56160, Note_on_c, 0, 33, 55
3, 56160, Note_on_c, 0, 45, 55
3, 56188, Control_c, 0, 64, 127
3, 56400, Note_on_c, 0, 52, 55
3, 56640, Note_on_c, 0, 45, 0
3, 56640, Note_on_c, 0, 33, 0
3, 56665, Control_c, 0, 64, 0
3, 56689, Control_c, 0, 64, 127
3, 57120, Note_on_c, 0, 57, 56
3, 57120, Note_on_c, 0, 45, 55
3, 57360, Note_on_c, 0, 57, 0
3, 57360, Note_on_c, 0, 55, 51
3, 57584, Note_on_c, 0, 38, 55
3, 57600, Note_on_c, 0, 55, 0
3, 57600, Note_on_c, 0, 52, 0
3, 57600, Note_on_c, 0, 45, 0
3, 57600, Control_c, 0, 64, 0
3, 57660, Control_c, 0, 64, 127
3, 57824, Note_on_c, 0, 54, 46
3, 58068, Control_c, 0, 64, 0
3, 58113, Control_c, 0, 64, 127
3, 59024, Note_on_c, 0, 54, 0
3, 59024, Note_on_c, 0, 38, 0
3, 59024, Note_on_c, 0, 37, 55
3, 59059, Control_c, 0, 64, 0
3, 59144, Note_on_c, 0, 37, 0
3, 59264, Note_on_c, 0, 49, 48
3, 59384, Note_on_c, 0, 49, 0
3, 59984, Note_on_c, 0, 46, 55
3, 59984, Note_on_c, 0, 34, 46
3, 60464, Note_on_c, 0, 34, 0
3, 60464, Note_on_c, 0, 46, 0
3, 60480, Note_on_c, 0, 47, 55
3, 60480, Note_on_c, 0, 35, 46
3, 60529, Control_c, 0, 64, 127
3, 60720, Note_on_c, 0, 54, 47
3, 60840, Note_on_c, 0, 54, 0
3, 60960, Note_on_c, 0, 35, 0
3, 60960, Note_on_c, 0, 47, 0
3, 60960, Note_on_c, 0, 43, 55
3, 60960, Note_on_c, 0, 31, 46
3, 60988, Control_c, 0, 64, 0
3, 61066, Control_c, 0, 64, 127
3, 61200, Note_on_c, 0, 31, 0
3, 61200, Note_on_c, 0, 43, 0
3, 61384, Control_c, 0, 64, 0
3, 61440, Note_on_c, 0, 52, 51
3, 61440, Note_on_c, 0, 45, 51
3, 61440, Note_on_c, 0, 33, 42
3, 61496, Control_c, 0, 64, 127
3, 61560, Note_on_c, 0, 52, 0
3, 61680, Note_on_c, 0, 33, 0
3, 61680, Note_on_c, 0, 45, 0
3, 61920, Note_on_c, 0, 38, 49
3, 61920, Note_on_c, 0, 54, 58
3, 61920, Control_c, 0, 64, 0
3, 62089, Control_c, 0, 64, 127
3, 62160, Note_on_c, 0, 54, 0
3, 62160, Note_on_c, 0, 38, 0
3, 62400, Note_on_c, 0, 57, 70
3, 62400, Note_on_c, 0, 50, 60
3, 62640, Note_on_c, 0, 50, 0
3, 62640, Note_on_c, 0, 57, 0
3, 62640, Control_c, 0, 64, 0
3, 63360, Note_on_c, 0, 38, 55
3, 63385, Control_c, 0, 64, 127
3, 63600, Note_on_c, 0, 54, 46
3, 63844, Control_c, 0, 64, 0
3, 63889, Control_c, 0, 64, 127
3, 64800, Note_on_c, 0, 54, 0
3, 64800, Note_on_c, 0, 38, 0
3, 64800, Control_c, 0, 64, 0
3, 64800, Note_on_c, 0, 37, 55
3, 64920, Note_on_c, 0, 37, 0
3, 65040, Note_on_c, 0, 49, 55
3, 65160, Note_on_c, 0, 49, 0
3, 65760, Note_on_c, 0, 46, 55
3, 65760, Note_on_c, 0, 34, 46
3, 66240, Note_on_c, 0, 34, 0
3, 66240, Note_on_c, 0, 46, 0
3, 66240, Note_on_c, 0, 35, 55
3, 66360, Note_on_c, 0, 35, 0
3, 66480, Note_on_c, 0, 47, 55
3, 66600, Note_on_c, 0, 47, 0
3, 67200, Note_on_c, 0, 32, 46
3, 67200, Note_on_c, 0, 44, 55
3, 67200, Note_on_c, 0, 52, 42
3, 67320, Note_on_c, 0, 52, 0
3, 67680, Note_on_c, 0, 44, 0
3, 67680, Note_on_c, 0, 32, 0
3, 67680, Note_on_c, 0, 33, 55
3, 67680, Note_on_c, 0, 45, 55
3, 67708, Control_c, 0, 64, 127
3, 67920, Note_on_c, 0, 52, 55
3, 68160, Note_on_c, 0, 45, 0
3, 68160, Note_on_c, 0, 33, 0
3, 68185, Control_c, 0, 64, 0
3, 68209, Control_c, 0, 64, 127
3, 68640, Note_on_c, 0, 57, 56
3, 68640, Note_on_c, 0, 45, 55
3, 68880, Note_on_c, 0, 57, 0
3, 68880, Note_on_c, 0, 55, 51
3, 69104, Note_on_c, 0, 38, 55
3, 69120, Note_on_c, 0, 55, 0
3, 69120, Note_on_c, 0, 52, 0
3, 69120, Note_on_c, 0, 45, 0
3, 69120, Control_c, 0, 64, 0
3, 69184, Control_c, 0, 64, 127
3, 69344, Note_on_c, 0, 54, 46
3, 69588, Control_c, 0, 64, 0
3, 69633, Control_c, 0, 64, 127
3, 70544, Note_on_c, 0, 54, 0
3, 70544, Note_on_c, 0, 38, 0
3, 70544, Note_on_c, 0, 37, 55
3, 70579, Control_c, 0, 64, 0
3, 70664, Note_on_c, 0, 37, 0
3, 70784, Note_on_c, 0, 49, 48
3, 70904, Note_on_c, 0, 49, 0
3, 71504, Note_on_c, 0, 46, 55
3, 71504, Note_on_c, 0, 34, 46
3, 71984, Note_on_c, 0, 34, 0
3, 71984, Note_on_c, 0, 46, 0
3, 72000, Note_on_c, 0, 47, 55
3, 72000, Note_on_c, 0, 35, 46
3, 72049, Control_c, 0, 64, 127
3, 72240, Note_on_c, 0, 54, 47
3, 72360, Note_on_c, 0, 54, 0
3, 72480, Note_on_c, 0, 35, 0
3, 72480, Note_on_c, 0, 47, 0
3, 72480, Note_on_c, 0, 43, 55
3, 72480, Note_on_c, 0, 31, 46
3, 72508, Control_c, 0, 64, 0
3, 72586, Control_c, 0, 64, 127
3, 72720, Note_on_c, 0, 31, 0
3, 72720, Note_on_c, 0, 43, 0
3, 72904, Control_c, 0, 64, 0
3, 72960, Note_on_c, 0, 52, 51
3, 72960, Note_on_c, 0, 45, 51
3, 72960, Note_on_c, 0, 33, 42
3, 73016, Control_c, 0, 64, 127
3, 73080, Note_on_c, 0, 52, 0
3, 73200, Note_on_c, 0, 33, 0
3, 73200, Note_on_c, 0, 45, 0
3, 73440, Note_on_c, 0, 38, 49
3, 73440, Note_on_c, 0, 54, 58
3, 73440, Control_c, 0, 64, 0
3, 73609, Control_c, 0, 64, 127
3, 73680, Note_on_c, 0, 54, 0
3, 73680, Note_on_c, 0, 38, 0
3, 73920, Note_on_c, 0, 57, 70
3, 73920, Note_on_c, 0, 50, 60
3, 74160, Note_on_c, 0, 50, 0
3, 74160, Note_on_c, 0, 57, 0
3, 74160, Control_c, 0, 64, 0
3, 74880, Note_on_c, 0, 62, 42
3, 74880, Note_on_c, 0, 66, 52
3, 74922, Control_c, 0, 64, 127
3, 75360, Note_on_c, 0, 66, 0
3, 75360, Note_on_c, 0, 67, 47
3, 75600, Note_on_c, 0, 67, 0
3, 75600, Note_on_c, 0, 66, 44
3, 75840, Note_on_c, 0, 66, 0
3, 75840, Note_on_c, 0, 64, 45
3, 76080, Note_on_c, 0, 64, 0
3, 76080, Note_on_c, 0, 66, 42
3, 76320, Note_on_c, 0, 66, 0
3, 76320, Control_c, 0, 64, 0
3, 76320, Note_on_c, 0, 67, 48
3, 76489, Control_c, 0, 64, 127
3, 76800, Note_on_c, 0, 67, 0
3, 76800, Note_on_c, 0, 67, 47
3, 77040, Note_on_c, 0, 67, 0
3, 77040, Note_on_c, 0, 71, 44
3, 77280, Note_on_c, 0, 71, 0
3, 77280, Note_on_c, 0, 67, 46
3, 77760, Note_on_c, 0, 67, 0
3, 77760, Note_on_c, 0, 62, 0
3, 77760, Control_c, 0, 64, 0
3, 77760, Note_on_c, 0, 62, 42
3, 77760, Note_on_c, 0, 66, 52
3, 77915, Control_c, 0, 64, 127
3, 78240, Note_on_c, 0, 66, 0
3, 78240, Note_on_c, 0, 67, 47
3, 78480, Note_on_c, 0, 67, 0
3, 78480, Note_on_c, 0, 66, 44
3, 78720, Note_on_c, 0, 66, 0
3, 78720, Note_on_c, 0, 64, 45
3, 78960, Note_on_c, 0, 64, 0
3, 78960, Note_on_c, 0, 62, 0
3, 78960, Note_on_c, 0, 62, 42
3, 79200, Note_on_c, 0, 62, 0
3, 79200, Note_on_c, 0, 57, 38
3, 79200, Control_c, 0, 64, 0
3, 79200, Note_on_c, 0, 64, 48
3, 79384, Control_c, 0, 64, 127
3, 79680, Note_on_c, 0, 64, 0
3, 79680, Note_on_c, 0, 57, 0
3, 79680, Note_on_c, 0, 67, 47
3, 79920, Note_on_c, 0, 67, 0
3, 79920, Note_on_c, 0, 66, 41
3, 80160, Note_on_c, 0, 66, 0
3, 80160, Note_on_c, 0, 57, 36
3, 80160, Note_on_c, 0, 67, 46
3, 80442, Control_c, 0, 64, 0
3, 80640, Note_on_c, 0, 67, 0
3, 80640, Note_on_c, 0, 57, 0
3, 80640, Note_on_c, 0, 62, 42
3, 80640, Note_on_c, 0, 66, 52
3, 80682, Control_c, 0, 64, 127
3, 81120, Note_on_c, 0, 66, 0
3, 81120, Note_on_c, 0, 67, 47
3, 81360, Note_on_c, 0, 67, 0
3, 81360, Note_on_c, 0, 66, 44
3, 81600, Note_on_c, 0, 66, 0
3, 81600, Note_on_c, 0, 64, 45
3, 81840, Note_on_c, 0, 64, 0
3, 81840, Note_on_c, 0, 66, 42
3, 82080, Note_on_c, 0, 66, 0
3, 82080, Control_c, 0, 64, 0
3, 82080, Note_on_c, 0, 67, 48
3, 82193, Control_c, 0, 64, 127
3, 82560, Note_on_c, 0, 67, 0
3, 82560, Note_on_c, 0, 67, 47
3, 82800, Note_on_c, 0, 67, 0
3, 82800, Note_on_c, 0, 71, 44
3, 83040, Note_on_c, 0, 71, 0
3, 83040, Note_on_c, 0, 67, 46
3, 83520, Note_on_c, 0, 67, 0
3, 83520, Note_on_c, 0, 62, 0
3, 83520, Control_c, 0, 64, 0
3, 83520, Note_on_c, 0, 62, 42
3, 83520, Note_on_c, 0, 66, 52
3, 83704, Control_c, 0, 64, 127
3, 84000, Note_on_c, 0, 66, 0
3, 84000, Note_on_c, 0, 67, 47
3, 84240, Note_on_c, 0, 67, 0
3, 84240, Note_on_c, 0, 66, 44
3, 84480, Note_on_c, 0, 66, 0
3, 84480, Note_on_c, 0, 64, 45
3, 84720, Note_on_c, 0, 64, 0
3, 84720, Note_on_c, 0, 62, 0
3, 84720, Note_on_c, 0, 62, 42
3, 84960, Note_on_c, 0, 62, 0
3, 84960, Note_on_c, 0, 57, 38
3, 84960, Control_c, 0, 64, 0
3, 84960, Note_on_c, 0, 64, 48
3, 85413, Control_c, 0, 64, 127
3, 86202, Control_c, 0, 64, 0
3, 86400, Note_on_c, 0, 64, 0
3, 86400, Note_on_c, 0, 57, 0
3, 86400, Note_on_c, 0, 38, 55
3, 86425, Control_c, 0, 64, 127
3, 86640, Note_on_c, 0, 54, 46
3, 86880, Note_on_c, 0, 45, 55
3, 86884, Control_c, 0, 64, 0
3, 86929, Control_c, 0, 64, 127
3, 87840, Note_on_c, 0, 45, 0
3, 87840, Note_on_c, 0, 54, 0
3, 87840, Note_on_c, 0, 38, 0
3, 87840, Control_c, 0, 64, 0
3, 87840, Note_on_c, 0, 37, 55
3, 87960, Note_on_c, 0, 37, 0
3, 88080, Note_on_c, 0, 49, 55
3, 88200, Note_on_c, 0, 49, 0
3, 88800, Note_on_c, 0, 46, 55
3, 88800, Note_on_c, 0, 34, 46
3, 89280, Note_on_c, 0, 34, 0
3, 89280, Note_on_c, 0, 46, 0
3, 89280, Note_on_c, 0, 35, 55
3, 89400, Note_on_c, 0, 35, 0
3, 89520, Note_on_c, 0, 47, 55
3, 89640, Note_on_c, 0, 47, 0
3, 90240, Note_on_c, 0, 32, 46
3, 90240, Note_on_c, 0, 44, 55
3, 90240, Note_on_c, 0, 52, 42
3, 90360, Note_on_c, 0, 52, 0
3, 90720, Note_on_c, 0, 44, 0
3, 90720, Note_on_c, 0, 32, 0
3, 90720, Note_on_c, 0, 33, 55
3, 90720, Note_on_c, 0, 45, 55
3, 90748, Control_c, 0, 64, 127
3, 90960, Note_on_c, 0, 52, 55
3, 91200, Note_on_c, 0, 45, 0
3, 91200, Note_on_c, 0, 33, 0
3, 91225, Control_c, 0, 64, 0
3, 91249, Control_c, 0, 64, 127
3, 91680, Note_on_c, 0, 57, 56
3, 91680, Note_on_c, 0, 45, 55
3, 91920, Note_on_c, 0, 57, 0
3, 91920, Note_on_c, 0, 55, 51
3, 92144, Note_on_c, 0, 38, 55
3, 92160, Note_on_c, 0, 55, 0
3, 92160, Note_on_c, 0, 52, 0
3, 92160, Note_on_c, 0, 45, 0
3, 92160, Control_c, 0, 64, 0
3, 92227, Control_c, 0, 64, 127
3, 92384, Note_on_c, 0, 54, 46
3, 92628, Control_c, 0, 64, 0
3, 92640, Note_on_c, 0, 45, 55
3, 92673, Control_c, 0, 64, 127
3, 93528, Control_c, 0, 64, 0
3, 93584, Note_on_c, 0, 54, 0
3, 93584, Note_on_c, 0, 38, 0
3, 93584, Note_on_c, 0, 37, 55
3, 93600, Note_on_c, 0, 45, 0
3, 93704, Note_on_c, 0, 37, 0
3, 93824, Note_on_c, 0, 49, 48
3, 93944, Note_on_c, 0, 49, 0
3, 94544, Note_on_c, 0, 46, 55
3, 94544, Note_on_c, 0, 34, 46
3, 95024, Note_on_c, 0, 34, 0
3, 95024, Note_on_c, 0, 46, 0
3, 95040, Note_on_c, 0, 47, 55
3, 95040, Note_on_c, 0, 35, 46
3, 95089, Control_c, 0, 64, 127
3, 95280, Note_on_c, 0, 54, 47
3, 95400, Note_on_c, 0, 54, 0
3, 95520, Note_on_c, 0, 35, 0
3, 95520, Note_on_c, 0, 47, 0
3, 95520, Note_on_c, 0, 43, 55
3, 95520, Note_on_c, 0, 31, 46
3, 95548, Control_c, 0, 64, 0
3, 95626, Control_c, 0, 64, 127
3, 95760, Note_on_c, 0, 31, 0
3, 95760, Note_on_c, 0, 43, 0
3, 95944, Control_c, 0, 64, 0
3, 96000, Note_on_c, 0, 52, 51
3, 96000, Note_on_c, 0, 45, 51
3, 96000, Note_on_c, 0, 33, 42
3, 96056, Control_c, 0, 64, 127
3, 96120, Note_on_c, 0, 52, 0
3, 96240, Note_on_c, 0, 33, 0
3, 96240, Note_on_c, 0, 45, 0
3, 96480, Note_on_c, 0, 45, 51
3, 96480, Note_on_c, 0, 38, 49
3, 96480, Note_on_c, 0, 54, 58
3, 96480, Control_c, 0, 64, 0
3, 96649, Control_c, 0, 64, 127
3, 96720, Note_on_c, 0, 54, 0
3, 96720, Note_on_c, 0, 38, 0
3, 96720, Note_on_c, 0, 45, 0
3, 96960, Note_on_c, 0, 57, 70
3, 96960, Note_on_c, 0, 50, 60
3, 97200, Note_on_c, 0, 50, 0
3, 97200, Note_on_c, 0, 57, 0
3, 97200, Control_c, 0, 64, 0
3, 97920, Note_on_c, 0, 47, 38
3, 97920, Note_on_c, 0, 62, 47
3, 97962, Control_c, 0, 64, 127
3, 98400, Note_on_c, 0, 62, 0
3, 98400, Note_on_c, 0, 64, 41
3, 98640, Note_on_c, 0, 64, 0
3, 98640, Note_on_c, 0, 62, 39
3, 98880, Note_on_c, 0, 62, 0
3, 98880, Note_on_c, 0, 61, 39
3, 99120, Note_on_c, 0, 61, 0
3, 99120, Note_on_c, 0, 62, 38
3, 99360, Note_on_c, 0, 62, 0
3, 99360, Control_c, 0, 64, 0
3, 99360, Note_on_c, 0, 64, 42
3, 99473, Control_c, 0, 64, 127
3, 99840, Note_on_c, 0, 64, 0
3, 99840, Note_on_c, 0, 61, 41
3, 100320, Note_on_c, 0, 61, 0
3, 100320, Note_on_c, 0, 64, 40
3, 100602, Control_c, 0, 64, 0
3, 100800, Note_on_c, 0, 64, 0
3, 100800, Note_on_c, 0, 47, 0
3, 100800, Note_on_c, 0, 47, 38
3, 100800, Note_on_c, 0, 62, 47
3, 100842, Control_c, 0, 64, 127
3, 101280, Note_on_c, 0, 62, 0
3, 101280, Note_on_c, 0, 64, 41
3, 101520, Note_on_c, 0, 64, 0
3, 101520, Note_on_c, 0, 62, 39
3, 101760, Note_on_c, 0, 62, 0
3, 101760, Note_on_c, 0, 61, 39
3, 102000, Note_on_c, 0, 61, 0
3, 102000, Note_on_c, 0, 62, 38
3, 102240, Note_on_c, 0, 62, 0
3, 102240, Note_on_c, 0, 47, 0
3, 102240, Note_on_c, 0, 52, 38
3, 102240, Control_c, 0, 64, 0
3, 102240, Note_on_c, 0, 64, 42
3, 102353, Control_c, 0, 64, 127
3, 102720, Note_on_c, 0, 64, 0
3, 102720, Note_on_c, 0, 61, 41
3, 103200, Note_on_c, 0, 61, 0
3, 103200, Note_on_c, 0, 52, 0
3, 103200, Note_on_c, 0, 54, 40
3, 103200, Note_on_c, 0, 58, 40
3, 103680, Note_on_c, 0, 58, 0
3, 103680, Note_on_c, 0, 54, 0
3, 103680, Control_c, 0, 64, 0
3, 103680, Note_on_c, 0, 47, 31
3, 103680, Note_on_c, 0, 59, 38
3, 103807, Control_c, 0, 64, 127
3, 103920, Note_on_c, 0, 59, 0
3, 103920, Note_on_c, 0, 47, 0
3, 103920, Note_on_c, 0, 54, 38
3, 104400, Note_on_c, 0, 54, 0
3, 104400, Note_on_c, 0, 54, 33
3, 104880, Note_on_c, 0, 54, 0
3, 104880, Note_on_c, 0, 54, 33
3, 105120, Note_on_c, 0, 54, 0
3, 105120, Control_c, 0, 64, 0
3, 105120, Note_on_c, 0, 45, 38
3, 105120, Note_on_c, 0, 52, 38
3, 105198, Control_c, 0, 64, 127
3, 105600, Note_on_c, 0, 52, 0
3, 105600, Note_on_c, 0, 52, 39
3, 106080, Note_on_c, 0, 52, 0
3, 106080, Note_on_c, 0, 52, 41
3, 106560, Note_on_c, 0, 52, 0
3, 106560, Note_on_c, 0, 45, 0
3, 106560, Control_c, 0, 64, 0
3, 106560, Note_on_c, 0, 54, 42
3, 106560, Note_on_c, 0, 50, 42
3, 106701, Control_c, 0, 64, 127
3, 107040, Note_on_c, 0, 50, 0
3, 107040, Note_on_c, 0, 54, 0
3, 107040, Note_on_c, 0, 54, 38
3, 107520, Note_on_c, 0, 54, 0
3, 107520, Note_on_c, 0, 54, 31
3, 107520, Note_on_c, 0, 58, 31
3, 107661, Control_c, 0, 64, 0
3, 107774, Control_c, 0, 64, 127
3, 108000, Note_on_c, 0, 58, 0
3, 108000, Note_on_c, 0, 54, 0
3, 108000, Control_c, 0, 64, 0
3, 108000, Note_on_c, 0, 47, 38
3, 108000, Note_on_c, 0, 55, 38
3, 108000, Note_on_c, 0, 59, 38
3, 108286, Control_c, 0, 64, 127
3, 108480, Note_on_c, 0, 59, 0
3, 108480, Note_on_c, 0, 55, 0
3, 108480, Note_on_c, 0, 47, 0
3, 108480, Note_on_c, 0, 47, 47
3, 108720, Note_on_c, 0, 47, 0
3, 108720, Note_on_c, 0, 46, 41
3, 108960, Note_on_c, 0, 46, 0
3, 108960, Note_on_c, 0, 47, 38
3, 109234, Control_c, 0, 64, 0
3, 109440, Note_on_c, 0, 47, 0
3, 109440, Note_on_c, 0, 45, 38
3, 109440, Note_on_c, 0, 52, 38
3, 109518, Control_c, 0, 64, 127
3, 109680, Note_on_c, 0, 52, 0
3, 109680, Note_on_c, 0, 52, 45
3, 110160, Note_on_c, 0, 52, 0
3, 110160, Note_on_c, 0, 52, 38
3, 110640, Note_on_c, 0, 52, 0
3, 110640, Note_on_c, 0, 52, 38
3, 110880, Note_on_c, 0, 52, 0
3, 110880, Note_on_c, 0, 45, 0
3, 110880, Control_c, 0, 64, 0
3, 110880, Note_on_c, 0, 54, 42
3, 110880, Note_on_c, 0, 50, 42
3, 111021, Control_c, 0, 64, 127
3, 111360, Note_on_c, 0, 50, 0
3, 111360, Note_on_c, 0, 54, 0
3, 111360, Note_on_c, 0, 54, 38
3, 111840, Note_on_c, 0, 54, 0
3, 111840, Note_on_c, 0, 54, 31
3, 111840, Note_on_c, 0, 58, 31
3, 111981, Control_c, 0, 64, 0
3, 112094, Control_c, 0, 64, 127
3, 112320, Note_on_c, 0, 58, 0
3, 112320, Note_on_c, 0, 54, 0
3, 112320, Control_c, 0, 64, 0
3, 112320, Note_on_c, 0, 47, 38
3, 112489, Control_c, 0, 64, 127
3, 112560, Note_on_c, 0, 47, 0
3, 112560, Note_on_c, 0, 54, 28
3, 113040, Note_on_c, 0, 54, 0
3, 113040, Note_on_c, 0, 54, 26
3, 113520, Note_on_c, 0, 54, 0
3, 113520, Note_on_c, 0, 54, 25
3, 113760, Note_on_c, 0, 54, 0
3, 113760, Note_on_c, 0, 47, 23
3, 114000, Note_on_c, 0, 54, 23
3, 114480, Note_on_c, 0, 54, 0
3, 114480, Note_on_c, 0, 54, 20
3, 114960, Note_on_c, 0, 54, 0
3, 114960, Note_on_c, 0, 54, 19
3, 115016, Control_c, 0, 64, 0
3, 115200, Note_on_c, 0, 54, 0
3, 115200, Note_on_c, 0, 47, 0
3, 115200, Note_on_c, 0, 47, 38
3, 115200, Note_on_c, 0, 62, 47
3, 115242, Control_c, 0, 64, 127
3, 115680, Note_on_c, 0, 62, 0
3, 115680, Note_on_c, 0, 64, 41
3, 115920, Note_on_c, 0, 64, 0
3, 115920, Note_on_c, 0, 62, 39
3, 116160, Note_on_c, 0, 62, 0
3, 116160, Note_on_c, 0, 61, 39
3, 116400, Note_on_c, 0, 61, 0
3, 116400, Note_on_c, 0, 62, 38
3, 116640, Note_on_c, 0, 62, 0
3, 116640, Control_c, 0, 64, 0
3, 116640, Note_on_c, 0, 64, 42
3, 116753, Control_c, 0, 64, 127
3, 117120, Note_on_c, 0, 64, 0
3, 117120, Note_on_c, 0, 61, 41
3, 117600, Note_on_c, 0, 61, 0
3, 117600, Note_on_c, 0, 64, 40
3, 117882, Control_c, 0, 64, 0
3, 118080, Note_on_c, 0, 64, 0
3, 118080, Note_on_c, 0, 47, 0
3, 118080, Note_on_c, 0, 47, 38
3, 118080, Note_on_c, 0, 62, 47
3, 118122, Control_c, 0, 64, 127
3, 118560, Note_on_c, 0, 62, 0
3, 118560, Note_on_c, 0, 64, 41
3, 118800, Note_on_c, 0, 64, 0
3, 118800, Note_on_c, 0, 62, 39
3, 119040, Note_on_c, 0, 62, 0
3, 119040, Note_on_c, 0, 61, 39
3, 119280, Note_on_c, 0, 61, 0
3, 119280, Note_on_c, 0, 62, 38
3, 119520, Note_on_c, 0, 62, 0
3, 119520, Note_on_c, 0, 47, 0
3, 119520, Note_on_c, 0, 52, 38
3, 119520, Control_c, 0, 64, 0
3, 119520, Note_on_c, 0, 64, 42
3, 119633, Control_c, 0, 64, 127
3, 120000, Note_on_c, 0, 64, 0
3, 120000, Note_on_c, 0, 61, 41
3, 120480, Note_on_c, 0, 61, 0
3, 120480, Note_on_c, 0, 52, 0
3, 120480, Note_on_c, 0, 54, 40
3, 120480, Note_on_c, 0, 58, 40
3, 120960, Note_on_c, 0, 58, 0
3, 120960, Note_on_c, 0, 54, 0
3, 120960, Control_c, 0, 64, 0
3, 120960, Note_on_c, 0, 47, 31
3, 120960, Note_on_c, 0, 59, 38
3, 121087, Control_c, 0, 64, 127
3, 121200, Note_on_c, 0, 59, 0
3, 121200, Note_on_c, 0, 47, 0
3, 121200, Note_on_c, 0, 54, 38
3, 121680, Note_on_c, 0, 54, 0
3, 121680, Note_on_c, 0, 54, 33
3, 122160, Note_on_c, 0, 54, 0
3, 122160, Note_on_c, 0, 54, 33
3, 122400, Note_on_c, 0, 54, 0
3, 122400, Control_c, 0, 64, 0
3, 122400, Note_on_c, 0, 45, 38
3, 122400, Note_on_c, 0, 52, 38
3, 122478, Control_c, 0, 64, 127
3, 122880, Note_on_c, 0, 52, 0
3, 122880, Note_on_c, 0, 52, 39
3, 123360, Note_on_c, 0, 52, 0
3, 123360, Note_on_c, 0, 52, 41
3, 123840, Note_on_c, 0, 52, 0
3, 123840, Note_on_c, 0, 45, 0
3, 123840, Control_c, 0, 64, 0
3, 123840, Note_on_c, 0, 54, 42
3, 123840, Note_on_c, 0, 50, 42
3, 123981, Control_c, 0, 64, 127
3, 124320, Note_on_c, 0, 50, 0
3, 124320, Note_on_c, 0, 54, 0
3, 124320, Note_on_c, 0, 54, 38
3, 124800, Note_on_c, 0, 54, 0
3, 124800, Note_on_c, 0, 54, 31
3, 124800, Note_on_c, 0, 58, 31
3, 124941, Control_c, 0, 64, 0
3, 125054, Control_c, 0, 64, 127
3, 125280, Note_on_c, 0, 58, 0
3, 125280, Note_on_c, 0, 54, 0
3, 125280, Control_c, 0, 64, 0
3, 125280, Note_on_c, 0, 47, 38
3, 125280, Note_on_c, 0, 55, 38
3, 125280, Note_on_c, 0, 59, 38
3, 125566, Control_c, 0, 64, 127
3, 125760, Note_on_c, 0, 59, 0
3, 125760, Note_on_c, 0, 55, 0
3, 125760, Note_on_c, 0, 47, 0
3, 125760, Note_on_c, 0, 47, 49
3, 126000, Note_on_c, 0, 47, 0
3, 126000, Note_on_c, 0, 46, 40
3, 126240, Note_on_c, 0, 46, 0
3, 126240, Note_on_c, 0, 47, 38
3, 126720, Note_on_c, 0, 47, 0
3, 126720, Control_c, 0, 64, 0
3, 126720, Note_on_c, 0, 45, 38
3, 126720, Note_on_c, 0, 52, 38
3, 126798, Control_c, 0, 64, 127
3, 126960, Note_on_c, 0, 52, 0
3, 126960, Note_on_c, 0, 52, 46
3, 127440, Note_on_c, 0, 52, 0
3, 127440, Note_on_c, 0, 52, 38
3, 127920, Note_on_c, 0, 52, 0
3, 127920, Note_on_c, 0, 52, 38
3, 128160, Note_on_c, 0, 52, 0
3, 128160, Note_on_c, 0, 45, 0
3, 128160, Control_c, 0, 64, 0
3, 128160, Note_on_c, 0, 54, 42
3, 128160, Note_on_c, 0, 50, 42
3, 128301, Control_c, 0, 64, 127
3, 128640, Note_on_c, 0, 50, 0
3, 128640, Note_on_c, 0, 54, 0
3, 128640, Note_on_c, 0, 54, 38
3, 129120, Note_on_c, 0, 54, 0
3, 129120, Note_on_c, 0, 54, 31
3, 129120, Note_on_c, 0, 58, 31
3, 129261, Control_c, 0, 64, 0
3, 129374, Control_c, 0, 64, 127
3, 129600, Note_on_c, 0, 58, 0
3, 129600, Note_on_c, 0, 54, 0
3, 129600, Control_c, 0, 64, 0
3, 129600, Note_on_c, 0, 47, 38
3, 129769, Control_c, 0, 64, 127
3, 129840, Note_on_c, 0, 47, 0
3, 129840, Note_on_c, 0, 54, 28
3, 130320, Note_on_c, 0, 54, 0
3, 130320, Note_on_c, 0, 54, 26
3, 130800, Note_on_c, 0, 54, 0
3, 130800, Note_on_c, 0, 54, 25
3, 131040, Note_on_c, 0, 54, 0
3, 131040, Note_on_c, 0, 47, 23
3, 131280, Note_on_c, 0, 54, 23
3, 131760, Note_on_c, 0, 54, 0
3, 131760, Note_on_c, 0, 54, 20
3, 132240, Note_on_c, 0, 54, 0
3, 132240, Note_on_c, 0, 54, 19
3, 132296, Control_c, 0, 64, 0
3, 132480, Note_on_c, 0, 54, 0
3, 132480, Note_on_c, 0, 47, 0
3, 132480, Note_on_c, 0, 38, 46
3, 132480, Note_on_c, 0, 50, 64
3, 132960, Note_on_c, 0, 50, 0
3, 132960, Note_on_c, 0, 38, 0
3, 132960, Note_on_c, 0, 40, 44
3, 132960, Note_on_c, 0, 52, 61
3, 133009, Control_c, 0, 64, 127
3, 133080, Note_on_c, 0, 52, 0
3, 133080, Note_on_c, 0, 40, 0
3, 133200, Note_on_c, 0, 38, 41
3, 133200, Note_on_c, 0, 50, 59
3, 133320, Note_on_c, 0, 50, 0
3, 133320, Note_on_c, 0, 38, 0
3, 133440, Note_on_c, 0, 37, 45
3, 133440, Note_on_c, 0, 49, 62
3, 133560, Note_on_c, 0, 49, 0
3, 133560, Note_on_c, 0, 37, 0
3, 133680, Note_on_c, 0, 38, 40
3, 133680, Note_on_c, 0, 50, 58
3, 133800, Note_on_c, 0, 50, 0
3, 133800, Note_on_c, 0, 38, 0
3, 133920, Note_on_c, 0, 40, 45
3, 133920, Note_on_c, 0, 52, 63
3, 133976, Control_c, 0, 64, 0
3, 134040, Note_on_c, 0, 52, 0
3, 134040, Note_on_c, 0, 40, 0
3, 134400, Note_on_c, 0, 43, 37
3, 134400, Note_on_c, 0, 55, 52
3, 134520, Note_on_c, 0, 55, 0
3, 134520, Note_on_c, 0, 43, 0
3, 134880, Note_on_c, 0, 42, 40
3, 134880, Note_on_c, 0, 54, 58
3, 135000, Note_on_c, 0, 54, 0
3, 135000, Note_on_c, 0, 42, 0
3, 135360, Note_on_c, 0, 38, 46
3, 135360, Note_on_c, 0, 50, 64
3, 135780, Note_on_c, 0, 50, 0
3, 135780, Note_on_c, 0, 38, 0
3, 135780, Note_on_c, 0, 42, 39
3, 135780, Note_on_c, 0, 54, 56
3, 135784, Control_c, 0, 64, 127
3, 135840, Note_on_c, 0, 54, 0
3, 135840, Note_on_c, 0, 42, 0
3, 135840, Note_on_c, 0, 40, 42
3, 135840, Note_on_c, 0, 52, 59
3, 135960, Note_on_c, 0, 52, 0
3, 135960, Note_on_c, 0, 40, 0
3, 136080, Note_on_c, 0, 38, 40
3, 136080, Note_on_c, 0, 50, 57
3, 136200, Note_on_c, 0, 50, 0
3, 136200, Note_on_c, 0, 38, 0
3, 136320, Note_on_c, 0, 37, 44
3, 136320, Note_on_c, 0, 49, 60
3, 136440, Note_on_c, 0, 49, 0
3, 136440, Note_on_c, 0, 37, 0
3, 136560, Note_on_c, 0, 38, 39
3, 136560, Note_on_c, 0, 50, 56
3, 136680, Note_on_c, 0, 50, 0
3, 136680, Note_on_c, 0, 38, 0
3, 136800, Control_c, 0, 64, 0
3, 136800, Note_on_c, 0, 40, 45
3, 136800, Note_on_c, 0, 52, 63
3, 136920, Note_on_c, 0, 52, 0
3, 136920, Note_on_c, 0, 40, 0
3, 137280, Note_on_c, 0, 43, 37
3, 137280, Note_on_c, 0, 55, 52
3, 137400, Note_on_c, 0, 55, 0
3, 137400, Note_on_c, 0, 43, 0
3, 137760, Note_on_c, 0, 42, 40
3, 137760, Note_on_c, 0, 54, 58
3, 137880, Note_on_c, 0, 54, 0
3, 137880, Note_on_c, 0, 42, 0
3, 138240, Note_on_c, 0, 38, 59
3, 138240, Control_c, 0, 64, 127
3, 138240, Note_on_c, 0, 50, 63
3, 138720, Note_on_c, 0, 50, 0
3, 138720, Note_on_c, 0, 38, 0
3, 138720, Control_c, 0, 64, 0
3, 138720, Note_on_c, 0, 52, 58
3, 138823, Control_c, 0, 64, 127
3, 138960, Note_on_c, 0, 52, 0
3, 138960, Note_on_c, 0, 54, 59
3, 139200, Note_on_c, 0, 54, 0
3, 139200, Note_on_c, 0, 57, 60
3, 139440, Note_on_c, 0, 57, 0
3, 139440, Note_on_c, 0, 60, 61
3, 139680, Note_on_c, 0, 60, 0
3, 139680, Control_c, 0, 64, 0
3, 139680, Note_on_c, 0, 64, 62
3, 139787, Control_c, 0, 64, 127
3, 140160, Note_on_c, 0, 64, 0
3, 140160, Note_on_c, 0, 67, 61
3, 140640, Note_on_c, 0, 67, 0
3, 140640, Control_c, 0, 64, 0
3, 140640, Note_on_c, 0, 66, 60
3, 140773, Control_c, 0, 64, 127
3, 141120, Note_on_c, 0, 66, 0
3, 141120, Note_on_c, 0, 59, 57
3, 141120, Note_on_c, 0, 55, 55
3, 141219, Control_c, 0, 64, 0
3, 141304, Control_c, 0, 64, 127
3, 141699, Control_c, 0, 64, 0
3, 141812, Control_c, 0, 64, 127
3, 142560, Note_on_c, 0, 55, 0
3, 142560, Note_on_c, 0, 59, 0
3, 142560, Control_c, 0, 64, 0
3, 142560, Note_on_c, 0, 55, 58
3, 142560, Note_on_c, 0, 57, 58
3, 142560, Note_on_c, 0, 61, 60
3, 142693, Control_c, 0, 64, 127
3, 142980, Note_on_c, 0, 61, 0
3, 142980, Note_on_c, 0, 57, 0
3, 142980, Note_on_c, 0, 55, 0
3, 143040, Note_on_c, 0, 61, 58
3, 143053, Control_c, 0, 64, 0
3, 143119, Control_c, 0, 64, 127
3, 143280, Note_on_c, 0, 61, 0
3, 143280, Note_on_c, 0, 57, 53
3, 143520, Note_on_c, 0, 57, 0
3, 143520, Note_on_c, 0, 59, 57
3, 143760, Note_on_c, 0, 59, 0
3, 143760, Note_on_c, 0, 61, 55
3, 144000, Note_on_c, 0, 61, 0
3, 144000, Control_c, 0, 64, 0
3, 144000, Note_on_c, 0, 54, 59
3, 144000, Note_on_c, 0, 57, 59
3, 144000, Note_on_c, 0, 62, 59
3, 144240, Control_c, 0, 64, 127
3, 144459, Control_c, 0, 64, 0
3, 144480, Note_on_c, 0, 62, 0
3, 144480, Note_on_c, 0, 57, 0
3, 144480, Note_on_c, 0, 54, 0
3, 144480, Note_on_c, 0, 52, 61
3, 144480, Note_on_c, 0, 40, 44
3, 144529, Control_c, 0, 64, 127
3, 144600, Note_on_c, 0, 40, 0
3, 144600, Note_on_c, 0, 52, 0
3, 144720, Note_on_c, 0, 38, 41
3, 144720, Note_on_c, 0, 50, 59
3, 144840, Note_on_c, 0, 50, 0
3, 144840, Note_on_c, 0, 38, 0
3, 144960, Note_on_c, 0, 37, 45
3, 144960, Note_on_c, 0, 49, 62
3, 145080, Note_on_c, 0, 49, 0
3, 145080, Note_on_c, 0, 37, 0
3, 145200, Note_on_c, 0, 38, 40
3, 145200, Note_on_c, 0, 50, 58
3, 145320, Note_on_c, 0, 50, 0
3, 145320, Note_on_c, 0, 38, 0
3, 145440, Note_on_c, 0, 40, 45
3, 145440, Note_on_c, 0, 52, 63
3, 145489, Control_c, 0, 64, 0
3, 145560, Note_on_c, 0, 52, 0
3, 145560, Note_on_c, 0, 40, 0
3, 145920, Note_on_c, 0, 43, 37
3, 145920, Note_on_c, 0, 55, 52
3, 146040, Note_on_c, 0, 55, 0
3, 146040, Note_on_c, 0, 43, 0
3, 146400, Note_on_c, 0, 42, 40
3, 146400, Note_on_c, 0, 54, 58
3, 146520, Note_on_c, 0, 54, 0
3, 146520, Note_on_c, 0, 42, 0
3, 146880, Note_on_c, 0, 38, 46
3, 146880, Note_on_c, 0, 50, 64
3, 147300, Note_on_c, 0, 50, 0
3, 147300, Note_on_c, 0, 38, 0
3, 147300, Note_on_c, 0, 42, 39
3, 147300, Note_on_c, 0, 54, 56
3, 147304, Control_c, 0, 64, 127
3, 147360, Note_on_c, 0, 54, 0
3, 147360, Note_on_c, 0, 42, 0
3, 147360, Note_on_c, 0, 40, 42
3, 147360, Note_on_c, 0, 52, 59
3, 147480, Note_on_c, 0, 52, 0
3, 147480, Note_on_c, 0, 40, 0
3, 147600, Note_on_c, 0, 38, 40
3, 147600, Note_on_c, 0, 50, 57
3, 147720, Note_on_c, 0, 50, 0
3, 147720, Note_on_c, 0, 38, 0
3, 147840, Note_on_c, 0, 37, 44
3, 147840, Note_on_c, 0, 49, 60
3, 147960, Note_on_c, 0, 49, 0
3, 147960, Note_on_c, 0, 37, 0
3, 148080, Note_on_c, 0, 38, 39
3, 148080, Note_on_c, 0, 50, 56
3, 148200, Note_on_c, 0, 50, 0
3, 148200, Note_on_c, 0, 38, 0
3, 148320, Note_on_c, 0, 40, 45
3, 148320, Note_on_c, 0, 52, 63
3, 148398, Control_c, 0, 64, 0
3, 148440, Note_on_c, 0, 52, 0
3, 148440, Note_on_c, 0, 40, 0
3, 148800, Note_on_c, 0, 43, 37
3, 148800, Note_on_c, 0, 55, 52
3, 148920, Note_on_c, 0, 55, 0
3, 148920, Note_on_c, 0, 43, 0
3, 149280, Note_on_c, 0, 42, 40
3, 149280, Note_on_c, 0, 54, 58
3, 149400, Note_on_c, 0, 54, 0
3, 149400, Note_on_c, 0, 42, 0
3, 149760, Note_on_c, 0, 38, 59
3, 149760, Control_c, 0, 64, 127
3, 149760, Note_on_c, 0, 50, 63
3, 150240, Note_on_c, 0, 50, 0
3, 150240, Note_on_c, 0, 38, 0
3, 150240, Control_c, 0, 64, 0
3, 150240, Note_on_c, 0, 52, 58
3, 150343, Control_c, 0, 64, 127
3, 150480, Note_on_c, 0, 52, 0
3, 150480, Note_on_c, 0, 54, 59
3, 150720, Note_on_c, 0, 54, 0
3, 150720, Note_on_c, 0, 57, 60
3, 150960, Note_on_c, 0, 57, 0
3, 150960, Note_on_c, 0, 60, 61
3, 151200, Note_on_c, 0, 60, 0
3, 151200, Control_c, 0, 64, 0
3, 151200, Note_on_c, 0, 64, 62
3, 151307, Control_c, 0, 64, 127
3, 151680, Note_on_c, 0, 64, 0
3, 151680, Note_on_c, 0, 67, 61
3, 152160, Note_on_c, 0, 67, 0
3, 152160, Control_c, 0, 64, 0
3, 152160, Note_on_c, 0, 66, 60
3, 152293, Control_c, 0, 64, 127
3, 152640, Note_on_c, 0, 66, 0
3, 152640, Note_on_c, 0, 59, 57
3, 152640, Note_on_c, 0, 55, 55
3, 152739, Control_c, 0, 64, 0
3, 152824, Control_c, 0, 64, 127
3, 153219, Control_c, 0, 64, 0
3, 153332, Control_c, 0, 64, 127
3, 154080, Note_on_c, 0, 55, 0
3, 154080, Note_on_c, 0, 59, 0
3, 154080, Control_c, 0, 64, 0
3, 154080, Note_on_c, 0, 55, 58
3, 154080, Note_on_c, 0, 57, 58
3, 154080, Note_on_c, 0, 61, 60
3, 154213, Control_c, 0, 64, 127
3, 154500, Note_on_c, 0, 61, 0
3, 154500, Note_on_c, 0, 57, 0
3, 154500, Note_on_c, 0, 55, 0
3, 154560, Note_on_c, 0, 61, 58
3, 154573, Control_c, 0, 64, 0
3, 154639, Control_c, 0, 64, 127
3, 154800, Note_on_c, 0, 61, 0
3, 154800, Note_on_c, 0, 57, 53
3, 155040, Note_on_c, 0, 57, 0
3, 155040, Note_on_c, 0, 59, 57
3, 155280, Note_on_c, 0, 59, 0
3, 155280, Note_on_c, 0, 61, 55
3, 155520, Note_on_c, 0, 61, 0
3, 155520, Control_c, 0, 64, 0
3, 155520, Note_on_c, 0, 54, 59
3, 155520, Note_on_c, 0, 57, 59
3, 155520, Note_on_c, 0, 62, 59
3, 155640, Control_c, 0, 64, 127
3, 155915, Control_c, 0, 64, 0
3, 156000, Note_on_c, 0, 62, 0
3, 156000, Note_on_c, 0, 57, 0
3, 156000, Note_on_c, 0, 54, 0
3, 156000, Note_on_c, 0, 50, 61
3, 156000, Note_on_c, 0, 38, 44
3, 156049, Control_c, 0, 64, 127
3, 156120, Note_on_c, 0, 38, 0
3, 156120, Note_on_c, 0, 50, 0
3, 156240, Note_on_c, 0, 37, 41
3, 156240, Note_on_c, 0, 49, 59
3, 156360, Note_on_c, 0, 49, 0
3, 156360, Note_on_c, 0, 37, 0
3, 156480, Note_on_c, 0, 38, 45
3, 156480, Note_on_c, 0, 50, 62
3, 156600, Note_on_c, 0, 50, 0
3, 156600, Note_on_c, 0, 38, 0
3, 156699, Control_c, 0, 64, 0
3, 156960, Note_on_c, 0, 38, 52
3, 156960, Note_on_c, 0, 50, 59
3, 157080, Note_on_c, 0, 50, 0
3, 157080, Note_on_c, 0, 38, 0
3, 157080, Control_c, 0, 64, 127
3, 157380, Control_c, 0, 64, 0
3, 157440, Note_on_c, 0, 57, 61
3, 157440, Note_on_c, 0, 45, 44
3, 157489, Control_c, 0, 64, 127
3, 157560, Note_on_c, 0, 45, 0
3, 157560, Note_on_c, 0, 57, 0
3, 157680, Note_on_c, 0, 42, 41
3, 157680, Note_on_c, 0, 54, 59
3, 157800, Note_on_c, 0, 54, 0
3, 157800, Note_on_c, 0, 42, 0
3, 157920, Note_on_c, 0, 38, 45
3, 157920, Note_on_c, 0, 50, 62
3, 158040, Note_on_c, 0, 50, 0
3, 158040, Note_on_c, 0, 38, 0
3, 158280, Control_c, 0, 64, 0
3, 158400, Note_on_c, 0, 60, 46
3, 158400, Note_on_c, 0, 62, 46
3, 158400, Note_on_c, 0, 66, 46
3, 158400, Note_on_c, 0, 69, 46
3, 158520, Note_on_c, 0, 69, 0
3, 158520, Note_on_c, 0, 60, 0
3, 158520, Note_on_c, 0, 62, 0
3, 158520, Note_on_c, 0, 66, 0
3, 158640, Note_on_c, 0, 60, 42
3, 158640, Note_on_c, 0, 62, 42
3, 158640, Note_on_c, 0, 66, 42
3, 158640, Note_on_c, 0, 69, 42
3, 158760, Note_on_c, 0, 69, 0
3, 158760, Note_on_c, 0, 60, 0
3, 158760, Note_on_c, 0, 62, 0
3, 158760, Note_on_c, 0, 66, 0
3, 158880, Note_on_c, 0, 60, 45
3, 158880, Note_on_c, 0, 62, 45
3, 158880, Note_on_c, 0, 66, 45
3, 158880, Note_on_c, 0, 69, 45
3, 159000, Note_on_c, 0, 69, 0
3, 159000, Note_on_c, 0, 60, 0
3, 159000, Note_on_c, 0, 62, 0
3, 159000, Note_on_c, 0, 66, 0
3, 159360, Note_on_c, 0, 60, 44
3, 159360, Note_on_c, 0, 62, 44
3, 159360, Note_on_c, 0, 66, 44
3, 159360, Note_on_c, 0, 69, 44
3, 159480, Note_on_c, 0, 69, 0
3, 159480, Note_on_c, 0, 60, 0
3, 159480, Note_on_c, 0, 62, 0
3, 159480, Note_on_c, 0, 66, 0
3, 159600, Note_on_c, 0, 60, 41
3, 159600, Note_on_c, 0, 62, 41
3, 159600, Note_on_c, 0, 66, 41
3, 159600, Note_on_c, 0, 69, 41
3, 159720, Note_on_c, 0, 69, 0
3, 159720, Note_on_c, 0, 60, 0
3, 159720, Note_on_c, 0, 62, 0
3, 159720, Note_on_c, 0, 66, 0
3, 159840, Note_on_c, 0, 59, 44
3, 159840, Note_on_c, 0, 62, 44
3, 159840, Note_on_c, 0, 67, 44
3, 159840, Note_on_c, 0, 71, 44
3, 159960, Note_on_c, 0, 71, 0
3, 159960, Note_on_c, 0, 59, 0
3, 159960, Note_on_c, 0, 62, 0
3, 159960, Note_on_c, 0, 67, 0
3, 160320, Note_on_c, 0, 59, 41
3, 160320, Note_on_c, 0, 62, 41
3, 160320, Note_on_c, 0, 67, 49
3, 160320, Note_on_c, 0, 71, 49
3, 160341, Control_c, 0, 64, 127
3, 160560, Note_on_c, 0, 71, 0
3, 160560, Note_on_c, 0, 59, 0
3, 160560, Note_on_c, 0, 62, 0
3, 160560, Note_on_c, 0, 67, 0
3, 160560, Note_on_c, 0, 59, 39
3, 160560, Note_on_c, 0, 62, 39
3, 160560, Note_on_c, 0, 67, 47
3, 160560, Note_on_c, 0, 71, 47
3, 160800, Note_on_c, 0, 71, 0
3, 160800, Note_on_c, 0, 59, 0
3, 160800, Note_on_c, 0, 62, 0
3, 160800, Note_on_c, 0, 67, 0
3, 160800, Note_on_c, 0, 59, 41
3, 160800, Note_on_c, 0, 62, 41
3, 160800, Note_on_c, 0, 67, 49
3, 160800, Note_on_c, 0, 71, 49
3, 161054, Control_c, 0, 64, 0
3, 161160, Note_on_c, 0, 71, 0
3, 161160, Note_on_c, 0, 59, 0
3, 161160, Note_on_c, 0, 62, 0
3, 161160, Note_on_c, 0, 67, 0
3, 161280, Note_on_c, 0, 58, 53
3, 161280, Note_on_c, 0, 67, 53
3, 161393, Control_c, 0, 64, 127
3, 161760, Note_on_c, 0, 62, 53
3, 161799, Control_c, 0, 64, 0
3, 161827, Control_c, 0, 64, 127
3, 162173, Control_c, 0, 64, 0
3, 162240, Note_on_c, 0, 64, 48
3, 162293, Control_c, 0, 64, 127
3, 162480, Note_on_c, 0, 64, 0
3, 162480, Note_on_c, 0, 65, 49
3, 162660, Control_c, 0, 64, 0
3, 162720, Note_on_c, 0, 65, 0
3, 162720, Note_on_c, 0, 62, 0
3, 162720, Note_on_c, 0, 67, 0
3, 162720, Note_on_c, 0, 58, 0
3, 162720, Note_on_c, 0, 57, 56
3, 162720, Note_on_c, 0, 62, 56
3, 162720, Note_on_c, 0, 66, 56
3, 162840, Note_on_c, 0, 66, 0
3, 162840, Note_on_c, 0, 62, 0
3, 162840, Note_on_c, 0, 57, 0
3, 163200, Note_on_c, 0, 50, 59
3, 163286, Control_c, 0, 64, 127
3, 163320, Note_on_c, 0, 50, 0
3, 163680, Note_on_c, 0, 57, 52
3, 163680, Note_on_c, 0, 62, 52
3, 163680, Note_on_c, 0, 66, 52
3, 163789, Control_c, 0, 64, 0
3, 163800, Note_on_c, 0, 66, 0
3, 163800, Note_on_c, 0, 62, 0
3, 163800, Note_on_c, 0, 57, 0
3, 164160, Note_on_c, 0, 58, 55
3, 164160, Note_on_c, 0, 62, 55
3, 164160, Note_on_c, 0, 67, 55
3, 164280, Note_on_c, 0, 67, 0
3, 164280, Note_on_c, 0, 62, 0
3, 164280, Note_on_c, 0, 58, 0
3, 164640, Note_on_c, 0, 50, 59
3, 164686, Control_c, 0, 64, 127
3, 164760, Note_on_c, 0, 50, 0
3, 165120, Note_on_c, 0, 58, 51
3, 165120, Note_on_c, 0, 62, 51
3, 165120, Note_on_c, 0, 67, 51
3, 165223, Control_c, 0, 64, 0
3, 165240, Note_on_c, 0, 67, 0
3, 165240, Note_on_c, 0, 62, 0
3, 165240, Note_on_c, 0, 58, 0
3, 165600, Note_on_c, 0, 62, 55
3, 165600, Note_on_c, 0, 66, 55
3, 165656, Control_c, 0, 64, 127
3, 165720, Note_on_c, 0, 66, 0
3, 165720, Note_on_c, 0, 62, 0
3, 165896, Control_c, 0, 64, 0
3, 166080, Note_on_c, 0, 42, 61
3, 166080, Note_on_c, 0, 54, 61
3, 166144, Control_c, 0, 64, 127
3, 166200, Note_on_c, 0, 54, 0
3, 166200, Note_on_c, 0, 42, 0
3, 166320, Note_on_c, 0, 40, 57
3, 166320, Note_on_c, 0, 52, 57
3, 166440, Note_on_c, 0, 52, 0
3, 166440, Note_on_c, 0, 40, 0
3, 166560, Note_on_c, 0, 38, 62
3, 166560, Note_on_c, 0, 50, 62
3, 166680, Note_on_c, 0, 50, 0
3, 166680, Note_on_c, 0, 38, 0
3, 166786, Control_c, 0, 64, 0
3, 167040, Note_on_c, 0, 54, 59
3, 167040, Note_on_c, 0, 57, 59
3, 167040, Note_on_c, 0, 62, 59
3, 167160, Control_c, 0, 64, 127
3, 167435, Control_c, 0, 64, 0
3, 167520, Note_on_c, 0, 62, 0
3, 167520, Note_on_c, 0, 57, 0
3, 167520, Note_on_c, 0, 54, 0
3, 167520, Note_on_c, 0, 50, 61
3, 167520, Note_on_c, 0, 38, 44
3, 167569, Control_c, 0, 64, 127
3, 167640, Note_on_c, 0, 38, 0
3, 167640, Note_on_c, 0, 50, 0
3, 167760, Note_on_c, 0, 37, 41
3, 167760, Note_on_c, 0, 49, 59
3, 167880, Note_on_c, 0, 49, 0
3, 167880, Note_on_c, 0, 37, 0
3, 168000, Note_on_c, 0, 38, 45
3, 168000, Note_on_c, 0, 50, 62
3, 168120, Note_on_c, 0, 50, 0
3, 168120, Note_on_c, 0, 38, 0
3, 168219, Control_c, 0, 64, 0
3, 168480, Note_on_c, 0, 38, 52
3, 168480, Note_on_c, 0, 50, 59
3, 168600, Note_on_c, 0, 50, 0
3, 168600, Note_on_c, 0, 38, 0
3, 168600, Control_c, 0, 64, 127
3, 168900, Control_c, 0, 64, 0
3, 168960, Note_on_c, 0, 57, 61
3, 168960, Note_on_c, 0, 45, 44
3, 169009, Control_c, 0, 64, 127
3, 169080, Note_on_c, 0, 45, 0
3, 169080, Note_on_c, 0, 57, 0
3, 169200, Note_on_c, 0, 42, 41
3, 169200, Note_on_c, 0, 54, 59
3, 169320, Note_on_c, 0, 54, 0
3, 169320, Note_on_c, 0, 42, 0
3, 169440, Note_on_c, 0, 38, 45
3, 169440, Note_on_c, 0, 50, 62
3, 169560, Note_on_c, 0, 50, 0
3, 169560, Note_on_c, 0, 38, 0
3, 169772, Control_c, 0, 64, 0
3, 169920, Note_on_c, 0, 60, 46
3, 169920, Note_on_c, 0, 62, 46
3, 169920, Note_on_c, 0, 66, 46
3, 169920, Note_on_c, 0, 69, 46
3, 170040, Note_on_c, 0, 69, 0
3, 170040, Note_on_c, 0, 60, 0
3, 170040, Note_on_c, 0, 62, 0
3, 170040, Note_on_c, 0, 66, 0
3, 170160, Note_on_c, 0, 60, 42
3, 170160, Note_on_c, 0, 62, 42
3, 170160, Note_on_c, 0, 66, 42
3, 170160, Note_on_c, 0, 69, 42
3, 170280, Note_on_c, 0, 69, 0
3, 170280, Note_on_c, 0, 60, 0
3, 170280, Note_on_c, 0, 62, 0
3, 170280, Note_on_c, 0, 66, 0
3, 170400, Note_on_c, 0, 60, 45
3, 170400, Note_on_c, 0, 62, 45
3, 170400, Note_on_c, 0, 66, 45
3, 170400, Note_on_c, 0, 69, 45
3, 170520, Note_on_c, 0, 69, 0
3, 170520, Note_on_c, 0, 60, 0
3, 170520, Note_on_c, 0, 62, 0
3, 170520, Note_on_c, 0, 66, 0
3, 170880, Note_on_c, 0, 60, 44
3, 170880, Note_on_c, 0, 62, 44
3, 170880, Note_on_c, 0, 66, 44
3, 170880, Note_on_c, 0, 69, 44
3, 171000, Note_on_c, 0, 69, 0
3, 171000, Note_on_c, 0, 60, 0
3, 171000, Note_on_c, 0, 62, 0
3, 171000, Note_on_c, 0, 66, 0
3, 171120, Note_on_c, 0, 60, 41
3, 171120, Note_on_c, 0, 62, 41
3, 171120, Note_on_c, 0, 66, 41
3, 171120, Note_on_c, 0, 69, 41
3, 171240, Note_on_c, 0, 69, 0
3, 171240, Note_on_c, 0, 60, 0
3, 171240, Note_on_c, 0, 62, 0
3, 171240, Note_on_c, 0, 66, 0
3, 171360, Note_on_c, 0, 59, 44
3, 171360, Note_on_c, 0, 62, 44
3, 171360, Note_on_c, 0, 67, 44
3, 171360, Note_on_c, 0, 71, 44
3, 171480, Note_on_c, 0, 71, 0
3, 171480, Note_on_c, 0, 59, 0
3, 171480, Note_on_c, 0, 62, 0
3, 171480, Note_on_c, 0, 67, 0
3, 171840, Note_on_c, 0, 59, 41
3, 171840, Note_on_c, 0, 62, 41
3, 171840, Note_on_c, 0, 67, 49
3, 171840, Note_on_c, 0, 71, 49
3, 171861, Control_c, 0, 64, 127
3, 172080, Note_on_c, 0, 71, 0
3, 172080, Note_on_c, 0, 59, 0
3, 172080, Note_on_c, 0, 62, 0
3, 172080, Note_on_c, 0, 67, 0
3, 172080, Note_on_c, 0, 59, 39
3, 172080, Note_on_c, 0, 62, 39
3, 172080, Note_on_c, 0, 67, 47
3, 172080, Note_on_c, 0, 71, 47
3, 172320, Note_on_c, 0, 71, 0
3, 172320, Note_on_c, 0, 59, 0
3, 172320, Note_on_c, 0, 62, 0
3, 172320, Note_on_c, 0, 67, 0
3, 172320, Note_on_c, 0, 59, 41
3, 172320, Note_on_c, 0, 62, 41
3, 172320, Note_on_c, 0, 67, 49
3, 172320, Note_on_c, 0, 71, 49
3, 172546, Control_c, 0, 64, 0
3, 172680, Note_on_c, 0, 71, 0
3, 172680, Note_on_c, 0, 59, 0
3, 172680, Note_on_c, 0, 62, 0
3, 172680, Note_on_c, 0, 67, 0
3, 172800, Note_on_c, 0, 58, 53
3, 172800, Note_on_c, 0, 67, 53
3, 172913, Control_c, 0, 64, 127
3, 173280, Note_on_c, 0, 62, 53
3, 173319, Control_c, 0, 64, 0
3, 173347, Control_c, 0, 64, 127
3, 173693, Control_c, 0, 64, 0
3, 173760, Note_on_c, 0, 64, 48
3, 173813, Control_c, 0, 64, 127
3, 174000, Note_on_c, 0, 64, 0
3, 174000, Note_on_c, 0, 65, 49
3, 174180, Control_c, 0, 64, 0
3, 174240, Note_on_c, 0, 65, 0
3, 174240, Note_on_c, 0, 62, 0
3, 174240, Note_on_c, 0, 67, 0
3, 174240, Note_on_c, 0, 58, 0
3, 174240, Note_on_c, 0, 57, 56
3, 174240, Note_on_c, 0, 62, 56
3, 174240, Note_on_c, 0, 66, 56
3, 174360, Note_on_c, 0, 66, 0
3, 174360, Note_on_c, 0, 62, 0
3, 174360, Note_on_c, 0, 57, 0
3, 174720, Note_on_c, 0, 50, 59
3, 174806, Control_c, 0, 64, 127
3, 174840, Note_on_c, 0, 50, 0
3, 175200, Note_on_c, 0, 57, 52
3, 175200, Note_on_c, 0, 62, 52
3, 175200, Note_on_c, 0, 66, 52
3, 175309, Control_c, 0, 64, 0
3, 175320, Note_on_c, 0, 66, 0
3, 175320, Note_on_c, 0, 62, 0
3, 175320, Note_on_c, 0, 57, 0
3, 175680, Note_on_c, 0, 58, 55
3, 175680, Note_on_c, 0, 62, 55
3, 175680, Note_on_c, 0, 67, 55
3, 175800, Note_on_c, 0, 67, 0
3, 175800, Note_on_c, 0, 62, 0
3, 175800, Note_on_c, 0, 58, 0
3, 176160, Note_on_c, 0, 50, 59
3, 176206, Control_c, 0, 64, 127
3, 176280, Note_on_c, 0, 50, 0
3, 176640, Note_on_c, 0, 58, 51
3, 176640, Note_on_c, 0, 62, 51
3, 176640, Note_on_c, 0, 67, 51
3, 176743, Control_c, 0, 64, 0
3, 176760, Note_on_c, 0, 67, 0
3, 176760, Note_on_c, 0, 62, 0
3, 176760, Note_on_c, 0, 58, 0
3, 177120, Note_on_c, 0, 62, 55
3, 177120, Note_on_c, 0, 66, 55
3, 177176, Control_c, 0, 64, 127
3, 177240, Note_on_c, 0, 66, 0
3, 177240, Note_on_c, 0, 62, 0
3, 177416, Control_c, 0, 64, 0
3, 177600, Note_on_c, 0, 42, 59
3, 177600, Note_on_c, 0, 54, 59
3, 177664, Control_c, 0, 64, 127
3, 177720, Note_on_c, 0, 54, 0
3, 177720, Note_on_c, 0, 42, 0
3, 177840, Note_on_c, 0, 40, 55
3, 177840, Note_on_c, 0, 52, 55
3, 177960, Note_on_c, 0, 52, 0
3, 177960, Note_on_c, 0, 40, 0
3, 178080, Note_on_c, 0, 38, 60
3, 178080, Note_on_c, 0, 50, 60
3, 178200, Note_on_c, 0, 50, 0
3, 178200, Note_on_c, 0, 38, 0
3, 178306, Control_c, 0, 64, 0
3, 178560, Note_on_c, 0, 54, 52
3, 178560, Note_on_c, 0, 57, 52
3, 178616, Control_c, 0, 64, 127
3, 178856, Control_c, 0, 64, 0
3, 179040, Note_on_c, 0, 42, 52
3, 179160, Note_on_c, 0, 42, 0
3, 179280, Note_on_c, 0, 40, 49
3, 179400, Note_on_c, 0, 40, 0
3, 179520, Note_on_c, 0, 38, 53
3, 179640, Note_on_c, 0, 38, 0
3, 180000, Note_on_c, 0, 57, 0
3, 180000, Note_on_c, 0, 54, 0
3, 180000, Note_on_c, 0, 57, 49
3, 180000, Note_on_c, 0, 54, 49
3, 180056, Control_c, 0, 64, 127
3, 180296, Control_c, 0, 64, 0
3, 180480, Note_on_c, 0, 42, 49
3, 180600, Note_on_c, 0, 42, 0
3, 180720, Note_on_c, 0, 40, 46
3, 180840, Note_on_c, 0, 40, 0
3, 180960, Note_on_c, 0, 38, 50
3, 181080, Note_on_c, 0, 38, 0
3, 181440, Note_on_c, 0, 54, 0
3, 181440, Note_on_c, 0, 57, 0
3, 181440, Note_on_c, 0, 42, 49
3, 181440, Note_on_c, 0, 54, 49
3, 181560, Note_on_c, 0, 54, 0
3, 181560, Note_on_c, 0, 42, 0
3, 181680, Note_on_c, 0, 40, 45
3, 181680, Note_on_c, 0, 52, 45
3, 181800, Note_on_c, 0, 52, 0
3, 181800, Note_on_c, 0, 40, 0
3, 181920, Note_on_c, 0, 38, 48
3, 181920, Note_on_c, 0, 50, 48
3, 182040, Note_on_c, 0, 50, 0
3, 182040, Note_on_c, 0, 38, 0
3, 182400, Note_on_c, 0, 42, 45
3, 182400, Note_on_c, 0, 54, 45
3, 182520, Note_on_c, 0, 54, 0
3, 182520, Note_on_c, 0, 42, 0
3, 182640, Note_on_c, 0, 52, 41
3, 182640, Note_on_c, 0, 40, 41
3, 182760, Note_on_c, 0, 40, 0
3, 182760, Note_on_c, 0, 52, 0
3, 182880, Note_on_c, 0, 38, 44
3, 182880, Note_on_c, 0, 50, 44
3, 183000, Note_on_c, 0, 50, 0
3, 183000, Note_on_c, 0, 38, 0
3, 183360, Note_on_c, 0, 45, 41
3, 183480, Note_on_c, 0, 45, 0
3, 183840, Note_on_c, 0, 38, 40
3, 183960, Note_on_c, 0, 38, 0
3, 184320, Note_on_c, 0, 38, 55
3, 184345, Control_c, 0, 64, 127
3, 184560, Note_on_c, 0, 54, 46
3, 184804, Control_c, 0, 64, 0
3, 184849, Control_c, 0, 64, 127
3, 185760, Note_on_c, 0, 54, 0
3, 185760, Note_on_c, 0, 38, 0
3, 185760, Note_on_c, 0, 37, 55
3, 185804, Control_c, 0, 64, 0
3, 185880, Note_on_c, 0, 37, 0
3, 186000, Note_on_c, 0, 49, 55
3, 186120, Note_on_c, 0, 49, 0
3, 186720, Note_on_c, 0, 46, 55
3, 186720, Note_on_c, 0, 34, 46
3, 187200, Note_on_c, 0, 34, 0
3, 187200, Note_on_c, 0, 46, 0
3, 187200, Note_on_c, 0, 35, 55
3, 187320, Note_on_c, 0, 35, 0
3, 187440, Note_on_c, 0, 47, 55
3, 187560, Note_on_c, 0, 47, 0
3, 188160, Note_on_c, 0, 32, 46
3, 188160, Note_on_c, 0, 44, 55
3, 188160, Note_on_c, 0, 52, 42
3, 188280, Note_on_c, 0, 52, 0
3, 188640, Note_on_c, 0, 44, 0
3, 188640, Note_on_c, 0, 32, 0
3, 188640, Note_on_c, 0, 33, 55
3, 188640, Note_on_c, 0, 45, 55
3, 188668, Control_c, 0, 64, 127
3, 188880, Note_on_c, 0, 52, 55
3, 189120, Note_on_c, 0, 45, 0
3, 189120, Note_on_c, 0, 33, 0
3, 189145, Control_c, 0, 64, 0
3, 189169, Control_c, 0, 64, 127
3, 189600, Note_on_c, 0, 57, 56
3, 189600, Note_on_c, 0, 45, 55
3, 189840, Note_on_c, 0, 57, 0
3, 189840, Note_on_c, 0, 55, 51
3, 190064, Note_on_c, 0, 38, 55
3, 190080, Note_on_c, 0, 55, 0
3, 190080, Note_on_c, 0, 52, 0
3, 190080, Note_on_c, 0, 45, 0
3, 190080, Control_c, 0, 64, 0
3, 190151, Control_c, 0, 64, 127
3, 190304, Note_on_c, 0, 54, 46
3, 190548, Control_c, 0, 64, 0
3, 190593, Control_c, 0, 64, 127
3, 191504, Note_on_c, 0, 54, 0
3, 191504, Note_on_c, 0, 38, 0
3, 191504, Note_on_c, 0, 37, 55
3, 191564, Control_c, 0, 64, 0
3, 191624, Note_on_c, 0, 37, 0
3, 191744, Note_on_c, 0, 49, 48
3, 191864, Note_on_c, 0, 49, 0
3, 192464, Note_on_c, 0, 46, 55
3, 192464, Note_on_c, 0, 34, 46
3, 192944, Note_on_c, 0, 34, 0
3, 192944, Note_on_c, 0, 46, 0
3, 192960, Note_on_c, 0, 47, 55
3, 192960, Note_on_c, 0, 35, 46
3, 193009, Control_c, 0, 64, 127
3, 193200, Note_on_c, 0, 54, 47
3, 193320, Note_on_c, 0, 54, 0
3, 193440, Note_on_c, 0, 35, 0
3, 193440, Note_on_c, 0, 47, 0
3, 193440, Note_on_c, 0, 43, 55
3, 193440, Note_on_c, 0, 31, 46
3, 193468, Control_c, 0, 64, 0
3, 193546, Control_c, 0, 64, 127
3, 193680, Note_on_c, 0, 31, 0
3, 193680, Note_on_c, 0, 43, 0
3, 193920, Note_on_c, 0, 52, 51
3, 193920, Note_on_c, 0, 45, 51
3, 193920, Note_on_c, 0, 33, 42
3, 193962, Control_c, 0, 64, 0
3, 194026, Control_c, 0, 64, 127
3, 194040, Note_on_c, 0, 52, 0
3, 194160, Note_on_c, 0, 33, 0
3, 194400, Note_on_c, 0, 38, 49
3, 194400, Note_on_c, 0, 54, 58
3, 194400, Control_c, 0, 64, 0
3, 194569, Control_c, 0, 64, 127
3, 194640, Note_on_c, 0, 54, 0
3, 194640, Note_on_c, 0, 38, 0
3, 194880, Note_on_c, 0, 45, 0
3, 194880, Note_on_c, 0, 57, 70
3, 194880, Note_on_c, 0, 50, 60
3, 195120, Note_on_c, 0, 50, 0
3, 195120, Note_on_c, 0, 57, 0
3, 195120, Control_c, 0, 64, 0
3, 195840, Note_on_c, 0, 38, 55
3, 195865, Control_c, 0, 64, 127
3, 196080, Note_on_c, 0, 54, 46
3, 196324, Control_c, 0, 64, 0
3, 196369, Control_c, 0, 64, 127
3, 197280, Note_on_c, 0, 54, 0
3, 197280, Note_on_c, 0, 38, 0
3, 197280, Note_on_c, 0, 37, 55
3, 197324, Control_c, 0, 64, 0
3, 197400, Note_on_c, 0, 37, 0
3, 197520, Note_on_c, 0, 49, 55
3, 197640, Note_on_c, 0, 49, 0
3, 198240, Note_on_c, 0, 46, 55
3, 198240, Note_on_c, 0, 34, 46
3, 198720, Note_on_c, 0, 34, 0
3, 198720, Note_on_c, 0, 46, 0
3, 198720, Note_on_c, 0, 35, 55
3, 198840, Note_on_c, 0, 35, 0
3, 198960, Note_on_c, 0, 47, 55
3, 199080, Note_on_c, 0, 47, 0
3, 199680, Note_on_c, 0, 32, 46
3, 199680, Note_on_c, 0, 44, 55
3, 199680, Note_on_c, 0, 52, 42
3, 199800, Note_on_c, 0, 52, 0
3, 200160, Note_on_c, 0, 44, 0
3, 200160, Note_on_c, 0, 32, 0
3, 200160, Note_on_c, 0, 33, 55
3, 200160, Note_on_c, 0, 45, 55
3, 200188, Control_c, 0, 64, 127
3, 200400, Note_on_c, 0, 52, 55
3, 200640, Note_on_c, 0, 45, 0
3, 200640, Note_on_c, 0, 33, 0
3, 200665, Control_c, 0, 64, 0
3, 200689, Control_c, 0, 64, 127
3, 201120, Note_on_c, 0, 57, 56
3, 201120, Note_on_c, 0, 45, 55
3, 201360, Note_on_c, 0, 57, 0
3, 201360, Note_on_c, 0, 55, 51
3, 201584, Note_on_c, 0, 38, 55
3, 201600, Note_on_c, 0, 55, 0
3, 201600, Note_on_c, 0, 52, 0
3, 201600, Note_on_c, 0, 45, 0
3, 201600, Control_c, 0, 64, 0
3, 201642, Control_c, 0, 64, 127
3, 201824, Note_on_c, 0, 54, 46
3, 202068, Control_c, 0, 64, 0
3, 202113, Control_c, 0, 64, 127
3, 203024, Note_on_c, 0, 54, 0
3, 203024, Note_on_c, 0, 38, 0
3, 203024, Note_on_c, 0, 37, 55
3, 203046, Control_c, 0, 64, 0
3, 203144, Note_on_c, 0, 37, 0
3, 203264, Note_on_c, 0, 49, 48
3, 203384, Note_on_c, 0, 49, 0
3, 203984, Note_on_c, 0, 46, 55
3, 203984, Note_on_c, 0, 34, 46
3, 204464, Note_on_c, 0, 34, 0
3, 204464, Note_on_c, 0, 46, 0
3, 204480, Note_on_c, 0, 47, 55
3, 204480, Note_on_c, 0, 35, 46
3, 204529, Control_c, 0, 64, 127
3, 204720, Note_on_c, 0, 54, 47
3, 204840, Note_on_c, 0, 54, 0
3, 204960, Note_on_c, 0, 35, 0
3, 204960, Note_on_c, 0, 47, 0
3, 204960, Note_on_c, 0, 43, 55
3, 204960, Note_on_c, 0, 31, 46
3, 204988, Control_c, 0, 64, 0
3, 205066, Control_c, 0, 64, 127
3, 205200, Note_on_c, 0, 31, 0
3, 205200, Note_on_c, 0, 43, 0
3, 205384, Control_c, 0, 64, 0
3, 205440, Note_on_c, 0, 52, 51
3, 205440, Note_on_c, 0, 45, 51
3, 205440, Note_on_c, 0, 33, 42
3, 205496, Control_c, 0, 64, 127
3, 205560, Note_on_c, 0, 52, 0
3, 205680, Note_on_c, 0, 33, 0
3, 205920, Note_on_c, 0, 38, 49
3, 205920, Note_on_c, 0, 54, 58
3, 205920, Control_c, 0, 64, 0
3, 206089, Control_c, 0, 64, 127
3, 206160, Note_on_c, 0, 54, 0
3, 206160, Note_on_c, 0, 38, 0
3, 206400, Note_on_c, 0, 45, 0
3, 206400, Note_on_c, 0, 57, 70
3, 206400, Note_on_c, 0, 50, 60
3, 206640, Note_on_c, 0, 50, 0
3, 206640, Note_on_c, 0, 57, 0
3, 206640, Control_c, 0, 64, 0
3, 207360, Note_on_c, 0, 62, 42
3, 207360, Note_on_c, 0, 66, 52
3, 207402, Control_c, 0, 64, 127
3, 207840, Note_on_c, 0, 66, 0
3, 207840, Note_on_c, 0, 67, 47
3, 208080, Note_on_c, 0, 67, 0
3, 208080, Note_on_c, 0, 66, 44
3, 208320, Note_on_c, 0, 66, 0
3, 208320, Note_on_c, 0, 64, 45
3, 208560, Note_on_c, 0, 64, 0
3, 208560, Note_on_c, 0, 66, 42
3, 208800, Note_on_c, 0, 66, 0
3, 208800, Control_c, 0, 64, 0
3, 208800, Note_on_c, 0, 67, 48
3, 208913, Control_c, 0, 64, 127
3, 209280, Note_on_c, 0, 67, 0
3, 209280, Note_on_c, 0, 67, 47
3, 209520, Note_on_c, 0, 67, 0
3, 209520, Note_on_c, 0, 71, 44
3, 209760, Note_on_c, 0, 71, 0
3, 209760, Note_on_c, 0, 67, 46
3, 210240, Note_on_c, 0, 67, 0
3, 210240, Note_on_c, 0, 62, 0
3, 210240, Control_c, 0, 64, 0
3, 210240, Note_on_c, 0, 62, 42
3, 210240, Note_on_c, 0, 66, 52
3, 210424, Control_c, 0, 64, 127
3, 210720, Note_on_c, 0, 66, 0
3, 210720, Note_on_c, 0, 67, 47
3, 210960, Note_on_c, 0, 67, 0
3, 210960, Note_on_c, 0, 66, 44
3, 211200, Note_on_c, 0, 66, 0
3, 211200, Note_on_c, 0, 64, 45
3, 211440, Note_on_c, 0, 64, 0
3, 211440, Note_on_c, 0, 62, 0
3, 211440, Note_on_c, 0, 62, 42
3, 211680, Note_on_c, 0, 62, 0
3, 211680, Note_on_c, 0, 57, 38
3, 211680, Control_c, 0, 64, 0
3, 211680, Note_on_c, 0, 64, 48
3, 211793, Control_c, 0, 64, 127
3, 212160, Note_on_c, 0, 64, 0
3, 212160, Note_on_c, 0, 57, 0
3, 212160, Note_on_c, 0, 67, 47
3, 212400, Note_on_c, 0, 67, 0
3, 212400, Note_on_c, 0, 66, 41
3, 212640, Note_on_c, 0, 66, 0
3, 212640, Note_on_c, 0, 57, 36
3, 212640, Note_on_c, 0, 67, 46
3, 212922, Control_c, 0, 64, 0
3, 213120, Note_on_c, 0, 67, 0
3, 213120, Note_on_c, 0, 57, 0
3, 213120, Note_on_c, 0, 62, 42
3, 213120, Note_on_c, 0, 66, 52
3, 213318, Control_c, 0, 64, 127
3, 213600, Note_on_c, 0, 66, 0
3, 213600, Note_on_c, 0, 67, 47
3, 213840, Note_on_c, 0, 67, 0
3, 213840, Note_on_c, 0, 66, 44
3, 214080, Note_on_c, 0, 66, 0
3, 214080, Note_on_c, 0, 64, 45
3, 214320, Note_on_c, 0, 64, 0
3, 214320, Note_on_c, 0, 66, 42
3, 214560, Note_on_c, 0, 66, 0
3, 214560, Control_c, 0, 64, 0
3, 214560, Note_on_c, 0, 67, 48
3, 214673, Control_c, 0, 64, 127
3, 215040, Note_on_c, 0, 67, 0
3, 215040, Note_on_c, 0, 67, 47
3, 215280, Note_on_c, 0, 67, 0
3, 215280, Note_on_c, 0, 71, 44
3, 215520, Note_on_c, 0, 71, 0
3, 215520, Note_on_c, 0, 67, 46
3, 216000, Note_on_c, 0, 67, 0
3, 216000, Note_on_c, 0, 62, 0
3, 216000, Note_on_c, 0, 62, 42
3, 216000, Note_on_c, 0, 66, 52
3, 216056, Control_c, 0, 64, 0
3, 216254, Control_c, 0, 64, 127
3, 216480, Note_on_c, 0, 66, 0
3, 216480, Note_on_c, 0, 67, 47
3, 216720, Note_on_c, 0, 67, 0
3, 216720, Note_on_c, 0, 66, 44
3, 216960, Note_on_c, 0, 66, 0
3, 216960, Note_on_c, 0, 64, 45
3, 217200, Note_on_c, 0, 64, 0
3, 217200, Note_on_c, 0, 62, 0
3, 217200, Note_on_c, 0, 62, 42
3, 217440, Note_on_c, 0, 62, 0
3, 217440, Note_on_c, 0, 57, 38
3, 217440, Control_c, 0, 64, 0
3, 217440, Note_on_c, 0, 64, 48
3, 217893, Control_c, 0, 64, 127
3, 218682, Control_c, 0, 64, 0
3, 218880, Note_on_c, 0, 64, 0
3, 218880, Note_on_c, 0, 57, 0
3, 218880, Note_on_c, 0, 38, 55
3, 218905, Control_c, 0, 64, 127
3, 219120, Note_on_c, 0, 54, 46
3, 219360, Note_on_c, 0, 45, 55
3, 219364, Control_c, 0, 64, 0
3, 219409, Control_c, 0, 64, 127
3, 220320, Note_on_c, 0, 45, 0
3, 220320, Note_on_c, 0, 54, 0
3, 220320, Note_on_c, 0, 38, 0
3, 220320, Note_on_c, 0, 37, 55
3, 220358, Control_c, 0, 64, 0
3, 220440, Note_on_c, 0, 37, 0
3, 220560, Note_on_c, 0, 49, 55
3, 220680, Note_on_c, 0, 49, 0
3, 221280, Note_on_c, 0, 46, 55
3, 221280, Note_on_c, 0, 34, 46
3, 221760, Note_on_c, 0, 34, 0
3, 221760, Note_on_c, 0, 46, 0
3, 221760, Note_on_c, 0, 35, 55
3, 221880, Note_on_c, 0, 35, 0
3, 222000, Note_on_c, 0, 47, 55
3, 222120, Note_on_c, 0, 47, 0
3, 222720, Note_on_c, 0, 32, 46
3, 222720, Note_on_c, 0, 44, 55
3, 222720, Note_on_c, 0, 52, 42
3, 222840, Note_on_c, 0, 52, 0
3, 223200, Note_on_c, 0, 44, 0
3, 223200, Note_on_c, 0, 32, 0
3, 223200, Note_on_c, 0, 33, 55
3, 223200, Note_on_c, 0, 45, 55
3, 223228, Control_c, 0, 64, 127
3, 223440, Note_on_c, 0, 52, 55
3, 223680, Note_on_c, 0, 45, 0
3, 223680, Note_on_c, 0, 33, 0
3, 223705, Control_c, 0, 64, 0
3, 223729, Control_c, 0, 64, 127
3, 224160, Note_on_c, 0, 57, 56
3, 224160, Note_on_c, 0, 45, 55
3, 224400, Note_on_c, 0, 57, 0
3, 224400, Note_on_c, 0, 55, 51
3, 224640, Note_on_c, 0, 55, 0
3, 224640, Note_on_c, 0, 45, 0
3, 224640, Note_on_c, 0, 52, 0
3, 224640, Note_on_c, 0, 38, 55
3, 224651, Control_c, 0, 64, 0
3, 224693, Control_c, 0, 64, 127
3, 224864, Note_on_c, 0, 54, 46
3, 225108, Control_c, 0, 64, 0
3, 225120, Note_on_c, 0, 45, 55
3, 225153, Control_c, 0, 64, 127
3, 226064, Note_on_c, 0, 54, 0
3, 226080, Note_on_c, 0, 45, 0
3, 226080, Note_on_c, 0, 38, 0
3, 226080, Note_on_c, 0, 37, 55
3, 226091, Control_c, 0, 64, 0
3, 226200, Note_on_c, 0, 37, 0
3, 226320, Note_on_c, 0, 49, 48
3, 226440, Note_on_c, 0, 49, 0
3, 227040, Note_on_c, 0, 34, 46
3, 227040, Note_on_c, 0, 46, 55
3, 227520, Note_on_c, 0, 46, 0
3, 227520, Note_on_c, 0, 34, 0
3, 227520, Note_on_c, 0, 47, 55
3, 227520, Note_on_c, 0, 35, 46
3, 227569, Control_c, 0, 64, 127
3, 227760, Note_on_c, 0, 54, 47
3, 227880, Note_on_c, 0, 54, 0
3, 228000, Note_on_c, 0, 35, 0
3, 228000, Note_on_c, 0, 47, 0
3, 228000, Note_on_c, 0, 43, 55
3, 228000, Note_on_c, 0, 31, 46
3, 228028, Control_c, 0, 64, 0
3, 228106, Control_c, 0, 64, 127
3, 228240, Note_on_c, 0, 31, 0
3, 228240, Note_on_c, 0, 43, 0
3, 228480, Note_on_c, 0, 52, 51
3, 228480, Note_on_c, 0, 45, 51
3, 228480, Note_on_c, 0, 33, 42
3, 228522, Control_c, 0, 64, 0
3, 228572, Control_c, 0, 64, 127
3, 228600, Note_on_c, 0, 52, 0
3, 228720, Note_on_c, 0, 33, 0
3, 228960, Note_on_c, 0, 38, 49
3, 228960, Note_on_c, 0, 54, 58
3, 228960, Control_c, 0, 64, 0
3, 229129, Control_c, 0, 64, 127
3, 229200, Note_on_c, 0, 54, 0
3, 229200, Note_on_c, 0, 38, 0
3, 229440, Note_on_c, 0, 45, 0
3, 229440, Note_on_c, 0, 57, 70
3, 229440, Note_on_c, 0, 50, 60
3, 229680, Note_on_c, 0, 50, 0
3, 229680, Note_on_c, 0, 57, 0
3, 229680, Control_c, 0, 64, 0
3, 230400, Note_on_c, 0, 47, 38
3, 230400, Note_on_c, 0, 62, 47
3, 230442, Control_c, 0, 64, 127
3, 230880, Note_on_c, 0, 62, 0
3, 230880, Note_on_c, 0, 64, 41
3, 231120, Note_on_c, 0, 64, 0
3, 231120, Note_on_c, 0, 62, 39
3, 231360, Note_on_c, 0, 62, 0
3, 231360, Note_on_c, 0, 61, 39
3, 231600, Note_on_c, 0, 61, 0
3, 231600, Note_on_c, 0, 62, 38
3, 231840, Note_on_c, 0, 62, 0
3, 231840, Control_c, 0, 64, 0
3, 231840, Note_on_c, 0, 64, 42
3, 231953, Control_c, 0, 64, 127
3, 232320, Note_on_c, 0, 64, 0
3, 232320, Note_on_c, 0, 61, 41
3, 232800, Note_on_c, 0, 61, 0
3, 232800, Note_on_c, 0, 64, 40
3, 233082, Control_c, 0, 64, 0
3, 233280, Note_on_c, 0, 64, 0
3, 233280, Note_on_c, 0, 47, 0
3, 233280, Note_on_c, 0, 47, 38
3, 233280, Note_on_c, 0, 62, 47
3, 233322, Control_c, 0, 64, 127
3, 233760, Note_on_c, 0, 62, 0
3, 233760, Note_on_c, 0, 64, 41
3, 234000, Note_on_c, 0, 64, 0
3, 234000, Note_on_c, 0, 62, 39
3, 234240, Note_on_c, 0, 62, 0
3, 234240, Note_on_c, 0, 61, 39
3, 234480, Note_on_c, 0, 61, 0
3, 234480, Note_on_c, 0, 62, 38
3, 234720, Note_on_c, 0, 62, 0
3, 234720, Note_on_c, 0, 47, 0
3, 234720, Note_on_c, 0, 52, 38
3, 234720, Control_c, 0, 64, 0
3, 234720, Note_on_c, 0, 64, 42
3, 234833, Control_c, 0, 64, 127
3, 235200, Note_on_c, 0, 64, 0
3, 235200, Note_on_c, 0, 61, 41
3, 235680, Note_on_c, 0, 61, 0
3, 235680, Note_on_c, 0, 52, 0
3, 235680, Note_on_c, 0, 54, 40
3, 235680, Note_on_c, 0, 58, 40
3, 236160, Note_on_c, 0, 58, 0
3, 236160, Note_on_c, 0, 54, 0
3, 236160, Control_c, 0, 64, 0
3, 236160, Note_on_c, 0, 47, 31
3, 236160, Note_on_c, 0, 59, 38
3, 236287, Control_c, 0, 64, 127
3, 236400, Note_on_c, 0, 59, 0
3, 236400, Note_on_c, 0, 47, 0
3, 236400, Note_on_c, 0, 54, 38
3, 236880, Note_on_c, 0, 54, 0
3, 236880, Note_on_c, 0, 54, 33
3, 237360, Note_on_c, 0, 54, 0
3, 237360, Note_on_c, 0, 54, 33
3, 237600, Note_on_c, 0, 54, 0
3, 237600, Control_c, 0, 64, 0
3, 237600, Note_on_c, 0, 45, 38
3, 237600, Note_on_c, 0, 52, 38
3, 237678, Control_c, 0, 64, 127
3, 238080, Note_on_c, 0, 52, 0
3, 238080, Note_on_c, 0, 52, 39
3, 238560, Note_on_c, 0, 52, 0
3, 238560, Note_on_c, 0, 52, 41
3, 239040, Note_on_c, 0, 52, 0
3, 239040, Note_on_c, 0, 45, 0
3, 239040, Control_c, 0, 64, 0
3, 239040, Note_on_c, 0, 54, 42
3, 239040, Note_on_c, 0, 50, 42
3, 239181, Control_c, 0, 64, 127
3, 239520, Note_on_c, 0, 50, 0
3, 239520, Note_on_c, 0, 54, 0
3, 239520, Note_on_c, 0, 54, 38
3, 240000, Note_on_c, 0, 54, 0
3, 240000, Note_on_c, 0, 54, 31
3, 240000, Note_on_c, 0, 58, 31
3, 240141, Control_c, 0, 64, 0
3, 240254, Control_c, 0, 64, 127
3, 240480, Note_on_c, 0, 58, 0
3, 240480, Note_on_c, 0, 54, 0
3, 240480, Control_c, 0, 64, 0
3, 240480, Note_on_c, 0, 47, 38
3, 240480, Note_on_c, 0, 55, 38
3, 240480, Note_on_c, 0, 59, 38
3, 240766, Control_c, 0, 64, 127
3, 240960, Note_on_c, 0, 59, 0
3, 240960, Note_on_c, 0, 55, 0
3, 240960, Note_on_c, 0, 47, 0
3, 240960, Note_on_c, 0, 47, 48
3, 241200, Note_on_c, 0, 47, 0
3, 241200, Note_on_c, 0, 46, 41
3, 241440, Note_on_c, 0, 46, 0
3, 241440, Note_on_c, 0, 47, 38
3, 241920, Note_on_c, 0, 47, 0
3, 241920, Control_c, 0, 64, 0
3, 241920, Note_on_c, 0, 45, 38
3, 241920, Note_on_c, 0, 52, 38
3, 241998, Control_c, 0, 64, 127
3, 242160, Note_on_c, 0, 52, 0
3, 242160, Note_on_c, 0, 52, 45
3, 242640, Note_on_c, 0, 52, 0
3, 242640, Note_on_c, 0, 52, 38
3, 243120, Note_on_c, 0, 52, 0
3, 243120, Note_on_c, 0, 52, 38
3, 243360, Note_on_c, 0, 52, 0
3, 243360, Note_on_c, 0, 45, 0
3, 243360, Control_c, 0, 64, 0
3, 243360, Note_on_c, 0, 54, 42
3, 243360, Note_on_c, 0, 50, 42
3, 243501, Control_c, 0, 64, 127
3, 243840, Note_on_c, 0, 50, 0
3, 243840, Note_on_c, 0, 54, 0
3, 243840, Note_on_c, 0, 54, 38
3, 244320, Note_on_c, 0, 54, 0
3, 244320, Note_on_c, 0, 54, 31
3, 244320, Note_on_c, 0, 58, 31
3, 244461, Control_c, 0, 64, 0
3, 244574, Control_c, 0, 64, 127
3, 244800, Note_on_c, 0, 58, 0
3, 244800, Note_on_c, 0, 54, 0
3, 244800, Control_c, 0, 64, 0
3, 244800, Note_on_c, 0, 47, 38
3, 244969, Control_c, 0, 64, 127
3, 245040, Note_on_c, 0, 47, 0
3, 245040, Note_on_c, 0, 54, 28
3, 245520, Note_on_c, 0, 54, 0
3, 245520, Note_on_c, 0, 54, 26
3, 246000, Note_on_c, 0, 54, 0
3, 246000, Note_on_c, 0, 54, 25
3, 246240, Note_on_c, 0, 54, 0
3, 246240, Note_on_c, 0, 47, 23
3, 246480, Note_on_c, 0, 54, 23
3, 246960, Note_on_c, 0, 54, 0
3, 246960, Note_on_c, 0, 54, 20
3, 247440, Note_on_c, 0, 54, 0
3, 247440, Note_on_c, 0, 54, 19
3, 247680, Note_on_c, 0, 54, 0
3, 247680, Note_on_c, 0, 47, 0
3, 247680, Control_c, 0, 64, 0
3, 247680, Note_on_c, 0, 47, 38
3, 247680, Note_on_c, 0, 62, 47
3, 247821, Control_c, 0, 64, 127
3, 248160, Note_on_c, 0, 62, 0
3, 248160, Note_on_c, 0, 64, 41
3, 248400, Note_on_c, 0, 64, 0
3, 248400, Note_on_c, 0, 62, 39
3, 248640, Note_on_c, 0, 62, 0
3, 248640, Note_on_c, 0, 61, 39
3, 248880, Note_on_c, 0, 61, 0
3, 248880, Note_on_c, 0, 62, 38
3, 249120, Note_on_c, 0, 62, 0
3, 249120, Control_c, 0, 64, 0
3, 249120, Note_on_c, 0, 64, 42
3, 249233, Control_c, 0, 64, 127
3, 249600, Note_on_c, 0, 64, 0
3, 249600, Note_on_c, 0, 61, 41
3, 250080, Note_on_c, 0, 61, 0
3, 250080, Note_on_c, 0, 64, 40
3, 250362, Control_c, 0, 64, 0
3, 250560, Note_on_c, 0, 64, 0
3, 250560, Note_on_c, 0, 47, 0
3, 250560, Note_on_c, 0, 47, 38
3, 250560, Note_on_c, 0, 62, 47
3, 250602, Control_c, 0, 64, 127
3, 251040, Note_on_c, 0, 62, 0
3, 251040, Note_on_c, 0, 64, 41
3, 251280, Note_on_c, 0, 64, 0
3, 251280, Note_on_c, 0, 62, 39
3, 251520, Note_on_c, 0, 62, 0
3, 251520, Note_on_c, 0, 61, 39
3, 251760, Note_on_c, 0, 61, 0
3, 251760, Note_on_c, 0, 62, 38
3, 252000, Note_on_c, 0, 62, 0
3, 252000, Note_on_c, 0, 47, 0
3, 252000, Note_on_c, 0, 52, 38
3, 252000, Control_c, 0, 64, 0
3, 252000, Note_on_c, 0, 64, 42
3, 252113, Control_c, 0, 64, 127
3, 252480, Note_on_c, 0, 64, 0
3, 252480, Note_on_c, 0, 61, 41
3, 252960, Note_on_c, 0, 61, 0
3, 252960, Note_on_c, 0, 52, 0
3, 252960, Note_on_c, 0, 54, 40
3, 252960, Note_on_c, 0, 58, 40
3, 253440, Note_on_c, 0, 58, 0
3, 253440, Note_on_c, 0, 54, 0
3, 253440, Control_c, 0, 64, 0
3, 253440, Note_on_c, 0, 47, 31
3, 253440, Note_on_c, 0, 59, 38
3, 253567, Control_c, 0, 64, 127
3, 253680, Note_on_c, 0, 59, 0
3, 253680, Note_on_c, 0, 47, 0
3, 253680, Note_on_c, 0, 54, 38
3, 254160, Note_on_c, 0, 54, 0
3, 254160, Note_on_c, 0, 54, 33
3, 254640, Note_on_c, 0, 54, 0
3, 254640, Note_on_c, 0, 54, 33
3, 254880, Note_on_c, 0, 54, 0
3, 254880, Control_c, 0, 64, 0
3, 254880, Note_on_c, 0, 45, 38
3, 254880, Note_on_c, 0, 52, 38
3, 254958, Control_c, 0, 64, 127
3, 255360, Note_on_c, 0, 52, 0
3, 255360, Note_on_c, 0, 52, 39
3, 255840, Note_on_c, 0, 52, 0
3, 255840, Note_on_c, 0, 52, 41
3, 256320, Note_on_c, 0, 52, 0
3, 256320, Note_on_c, 0, 45, 0
3, 256320, Control_c, 0, 64, 0
3, 256320, Note_on_c, 0, 54, 42
3, 256320, Note_on_c, 0, 50, 42
3, 256461, Control_c, 0, 64, 127
3, 256800, Note_on_c, 0, 50, 0
3, 256800, Note_on_c, 0, 54, 0
3, 256800, Note_on_c, 0, 54, 38
3, 257280, Note_on_c, 0, 54, 0
3, 257280, Note_on_c, 0, 54, 31
3, 257280, Note_on_c, 0, 58, 31
3, 257421, Control_c, 0, 64, 0
3, 257534, Control_c, 0, 64, 127
3, 257760, Note_on_c, 0, 58, 0
3, 257760, Note_on_c, 0, 54, 0
3, 257760, Control_c, 0, 64, 0
3, 257760, Note_on_c, 0, 47, 38
3, 257760, Note_on_c, 0, 55, 38
3, 257760, Note_on_c, 0, 59, 38
3, 258046, Control_c, 0, 64, 127
3, 258240, Note_on_c, 0, 59, 0
3, 258240, Note_on_c, 0, 55, 0
3, 258240, Note_on_c, 0, 47, 0
3, 258240, Note_on_c, 0, 47, 47
3, 258480, Note_on_c, 0, 47, 0
3, 258480, Note_on_c, 0, 46, 41
3, 258720, Note_on_c, 0, 46, 0
3, 258720, Note_on_c, 0, 47, 38
3, 259200, Note_on_c, 0, 47, 0
3, 259200, Control_c, 0, 64, 0
3, 259200, Note_on_c, 0, 45, 38
3, 259200, Note_on_c, 0, 52, 38
3, 259278, Control_c, 0, 64, 127
3, 259440, Note_on_c, 0, 52, 0
3, 259440, Note_on_c, 0, 52, 47
3, 259920, Note_on_c, 0, 52, 0
3, 259920, Note_on_c, 0, 52, 38
3, 260400, Note_on_c, 0, 52, 0
3, 260400, Note_on_c, 0, 52, 38
3, 260640, Note_on_c, 0, 52, 0
3, 260640, Note_on_c, 0, 45, 0
3, 260640, Control_c, 0, 64, 0
3, 260640, Note_on_c, 0, 54, 42
3, 260640, Note_on_c, 0, 50, 42
3, 260781, Control_c, 0, 64, 127
3, 261120, Note_on_c, 0, 50, 0
3, 261120, Note_on_c, 0, 54, 0
3, 261120, Note_on_c, 0, 54, 38
3, 261600, Note_on_c, 0, 54, 0
3, 261600, Note_on_c, 0, 54, 31
3, 261600, Note_on_c, 0, 58, 31
3, 261741, Control_c, 0, 64, 0
3, 261854, Control_c, 0, 64, 127
3, 262080, Note_on_c, 0, 58, 0
3, 262080, Note_on_c, 0, 54, 0
3, 262080, Control_c, 0, 64, 0
3, 262080, Note_on_c, 0, 47, 38
3, 262249, Control_c, 0, 64, 127
3, 262320, Note_on_c, 0, 47, 0
3, 262320, Note_on_c, 0, 54, 28
3, 262800, Note_on_c, 0, 54, 0
3, 262800, Note_on_c, 0, 54, 26
3, 263280, Note_on_c, 0, 54, 0
3, 263280, Note_on_c, 0, 54, 25
3, 263520, Note_on_c, 0, 54, 0
3, 263520, Note_on_c, 0, 47, 23
3, 263760, Note_on_c, 0, 54, 23
3, 264240, Note_on_c, 0, 54, 0
3, 264240, Note_on_c, 0, 54, 20
3, 264720, Note_on_c, 0, 54, 0
3, 264720, Note_on_c, 0, 54, 19
3, 264776, Control_c, 0, 64, 0
3, 264960, Note_on_c, 0, 54, 0
3, 264960, Note_on_c, 0, 47, 0
3, 264960, Note_on_c, 0, 38, 61
3, 264960, Note_on_c, 0, 45, 73
3, 265101, Control_c, 0, 64, 127
3, 265440, Note_on_c, 0, 50, 69
3, 265440, Note_on_c, 0, 54, 69
3, 265440, Note_on_c, 0, 57, 81
3, 265567, Control_c, 0, 64, 0
3, 265708, Control_c, 0, 64, 127
3, 266400, Note_on_c, 0, 57, 0
3, 266400, Note_on_c, 0, 50, 0
3, 266400, Note_on_c, 0, 38, 0
3, 266400, Note_on_c, 0, 45, 0
3, 266400, Note_on_c, 0, 54, 0
3, 266400, Control_c, 0, 64, 0
3, 266400, Note_on_c, 0, 38, 61
3, 266400, Note_on_c, 0, 45, 73
3, 266640, Control_c, 0, 64, 127
3, 266880, Note_on_c, 0, 49, 67
3, 266880, Note_on_c, 0, 57, 80
3, 266880, Note_on_c, 0, 55, 67
3, 267093, Control_c, 0, 64, 0
3, 267307, Control_c, 0, 64, 127
3, 267840, Note_on_c, 0, 55, 0
3, 267840, Note_on_c, 0, 49, 0
3, 267840, Note_on_c, 0, 38, 0
3, 267840, Note_on_c, 0, 45, 0
3, 267840, Note_on_c, 0, 57, 0
3, 267840, Control_c, 0, 64, 0
3, 267840, Note_on_c, 0, 38, 61
3, 267840, Note_on_c, 0, 45, 73
3, 267995, Control_c, 0, 64, 127
3, 268320, Note_on_c, 0, 50, 66
3, 268320, Note_on_c, 0, 54, 66
3, 268320, Note_on_c, 0, 57, 78
3, 268461, Control_c, 0, 64, 0
3, 268560, Control_c, 0, 64, 127
3, 269280, Note_on_c, 0, 57, 0
3, 269280, Note_on_c, 0, 50, 0
3, 269280, Note_on_c, 0, 38, 0
3, 269280, Note_on_c, 0, 45, 0
3, 269280, Note_on_c, 0, 54, 0
3, 269280, Control_c, 0, 64, 0
3, 269280, Note_on_c, 0, 38, 61
3, 269280, Note_on_c, 0, 45, 73
3, 269520, Control_c, 0, 64, 127
3, 269760, Note_on_c, 0, 49, 65
3, 269760, Note_on_c, 0, 55, 65
3, 269760, Note_on_c, 0, 57, 77
3, 270027, Control_c, 0, 64, 0
3, 270213, Control_c, 0, 64, 127
3, 270720, Note_on_c, 0, 57, 0
3, 270720, Note_on_c, 0, 49, 0
3, 270720, Note_on_c, 0, 38, 0
3, 270720, Note_on_c, 0, 45, 0
3, 270720, Note_on_c, 0, 55, 0
3, 270720, Control_c, 0, 64, 0
3, 270720, Note_on_c, 0, 38, 61
3, 270720, Note_on_c, 0, 45, 73
3, 270880, Control_c, 0, 64, 127
3, 271200, Note_on_c, 0, 50, 77
3, 271200, Note_on_c, 0, 54, 77
3, 271200, Note_on_c, 0, 57, 77
3, 271337, Control_c, 0, 64, 0
3, 271474, Control_c, 0, 64, 127
3, 272160, Note_on_c, 0, 57, 0
3, 272160, Note_on_c, 0, 50, 0
3, 272160, Note_on_c, 0, 38, 0
3, 272160, Note_on_c, 0, 45, 0
3, 272160, Note_on_c, 0, 54, 0
3, 272160, Control_c, 0, 64, 0
3, 272160, Note_on_c, 0, 38, 61
3, 272160, Note_on_c, 0, 45, 73
3, 272549, Control_c, 0, 64, 127
3, 272640, Note_on_c, 0, 64, 81
3, 272640, Note_on_c, 0, 60, 69
3, 272640, Note_on_c, 0, 55, 69
3, 273120, Note_on_c, 0, 55, 0
3, 273120, Note_on_c, 0, 64, 0
3, 273120, Note_on_c, 0, 60, 0
3, 273120, Note_on_c, 0, 62, 73
3, 273120, Note_on_c, 0, 60, 61
3, 273120, Note_on_c, 0, 54, 61
3, 273600, Note_on_c, 0, 54, 0
3, 273600, Note_on_c, 0, 62, 0
3, 273600, Note_on_c, 0, 38, 0
3, 273600, Note_on_c, 0, 45, 0
3, 273600, Note_on_c, 0, 60, 0
3, 273600, Control_c, 0, 64, 0
3, 273600, Note_on_c, 0, 38, 61
3, 273600, Note_on_c, 0, 45, 73
3, 273713, Control_c, 0, 64, 127
3, 274080, Note_on_c, 0, 62, 80
3, 274080, Note_on_c, 0, 59, 67
3, 274080, Note_on_c, 0, 55, 67
3, 274207, Control_c, 0, 64, 0
3, 274306, Control_c, 0, 64, 127
3, 275040, Note_on_c, 0, 55, 0
3, 275040, Note_on_c, 0, 62, 0
3, 275040, Note_on_c, 0, 38, 0
3, 275040, Note_on_c, 0, 45, 0
3, 275040, Note_on_c, 0, 59, 0
3, 275040, Control_c, 0, 64, 0
3, 275040, Note_on_c, 0, 38, 61
3, 275040, Note_on_c, 0, 45, 73
3, 275072, Control_c, 0, 64, 127
3, 275520, Note_on_c, 0, 64, 82
3, 275520, Note_on_c, 0, 57, 70
3, 275520, Note_on_c, 0, 55, 70
3, 275594, Control_c, 0, 64, 0
3, 275619, Control_c, 0, 64, 127
3, 276480, Note_on_c, 0, 55, 0
3, 276480, Note_on_c, 0, 64, 0
3, 276480, Note_on_c, 0, 38, 0
3, 276480, Note_on_c, 0, 45, 0
3, 276480, Note_on_c, 0, 57, 0
3, 276480, Control_c, 0, 64, 0
3, 276480, Note_on_c, 0, 38, 61
3, 276480, Note_on_c, 0, 45, 61
3, 276480, Note_on_c, 0, 54, 73
3, 276568, Control_c, 0, 64, 127
3, 276882, Control_c, 0, 64, 0
3, 276900, Note_on_c, 0, 54, 0
3, 276900, Note_on_c, 0, 45, 0
3, 276900, Note_on_c, 0, 38, 0
3, 276960, Note_on_c, 0, 38, 38
3, 276960, Note_on_c, 0, 50, 53
3, 277009, Control_c, 0, 64, 127
3, 277080, Note_on_c, 0, 50, 0
3, 277080, Note_on_c, 0, 38, 0
3, 277200, Note_on_c, 0, 37, 36
3, 277200, Note_on_c, 0, 49, 51
3, 277320, Note_on_c, 0, 49, 0
3, 277320, Note_on_c, 0, 37, 0
3, 277440, Note_on_c, 0, 38, 38
3, 277440, Note_on_c, 0, 50, 54
3, 277560, Note_on_c, 0, 50, 0
3, 277560, Note_on_c, 0, 38, 0
3, 277613, Control_c, 0, 64, 0
3, 277920, Note_on_c, 0, 38, 46
3, 277920, Note_on_c, 0, 50, 51
3, 278040, Note_on_c, 0, 50, 0
3, 278040, Note_on_c, 0, 38, 0
3, 278040, Control_c, 0, 64, 127
3, 278400, Note_on_c, 0, 57, 53
3, 278400, Note_on_c, 0, 45, 38
3, 278520, Note_on_c, 0, 45, 0
3, 278520, Note_on_c, 0, 57, 0
3, 278640, Note_on_c, 0, 42, 36
3, 278640, Note_on_c, 0, 54, 51
3, 278760, Note_on_c, 0, 54, 0
3, 278760, Note_on_c, 0, 42, 0
3, 278880, Note_on_c, 0, 38, 38
3, 278880, Note_on_c, 0, 50, 54
3, 279000, Note_on_c, 0, 50, 0
3, 279000, Note_on_c, 0, 38, 0
3, 279071, Control_c, 0, 64, 0
3, 279360, Note_on_c, 0, 38, 38
3, 279360, Note_on_c, 0, 50, 53
3, 279409, Control_c, 0, 64, 127
3, 279480, Note_on_c, 0, 50, 0
3, 279480, Note_on_c, 0, 38, 0
3, 279600, Note_on_c, 0, 37, 36
3, 279600, Note_on_c, 0, 49, 51
3, 279720, Note_on_c, 0, 49, 0
3, 279720, Note_on_c, 0, 37, 0
3, 279840, Note_on_c, 0, 38, 38
3, 279840, Note_on_c, 0, 50, 54
3, 279960, Note_on_c, 0, 50, 0
3, 279960, Note_on_c, 0, 38, 0
3, 279974, Control_c, 0, 64, 0
3, 280320, Note_on_c, 0, 38, 38
3, 280320, Note_on_c, 0, 50, 53
3, 280369, Control_c, 0, 64, 127
3, 280440, Note_on_c, 0, 50, 0
3, 280440, Note_on_c, 0, 38, 0
3, 280560, Note_on_c, 0, 37, 36
3, 280560, Note_on_c, 0, 49, 51
3, 280680, Note_on_c, 0, 49, 0
3, 280680, Note_on_c, 0, 37, 0
3, 280800, Note_on_c, 0, 38, 38
3, 280800, Note_on_c, 0, 50, 54
3, 280899, Control_c, 0, 64, 0
3, 280920, Note_on_c, 0, 50, 0
3, 280920, Note_on_c, 0, 38, 0
3, 281280, Note_on_c, 0, 57, 55
3, 281280, Note_on_c, 0, 45, 39
3, 281329, Control_c, 0, 64, 127
3, 281400, Note_on_c, 0, 45, 0
3, 281400, Note_on_c, 0, 57, 0
3, 281520, Note_on_c, 0, 42, 37
3, 281520, Note_on_c, 0, 54, 53
3, 281640, Note_on_c, 0, 54, 0
3, 281640, Note_on_c, 0, 42, 0
3, 281760, Note_on_c, 0, 38, 39
3, 281760, Note_on_c, 0, 50, 57
3, 281880, Note_on_c, 0, 50, 0
3, 281880, Note_on_c, 0, 38, 0
3, 282014, Control_c, 0, 64, 0
3, 282240, Note_on_c, 0, 57, 58
3, 282240, Note_on_c, 0, 45, 42
3, 282289, Control_c, 0, 64, 127
3, 282360, Note_on_c, 0, 45, 0
3, 282360, Note_on_c, 0, 57, 0
3, 282480, Note_on_c, 0, 42, 39
3, 282480, Note_on_c, 0, 54, 55
3, 282600, Note_on_c, 0, 54, 0
3, 282600, Note_on_c, 0, 42, 0
3, 282720, Note_on_c, 0, 38, 42
3, 282720, Note_on_c, 0, 50, 59
3, 282840, Note_on_c, 0, 50, 0
3, 282840, Note_on_c, 0, 38, 0
3, 282939, Control_c, 0, 64, 0
3, 283200, Note_on_c, 0, 57, 61
3, 283200, Note_on_c, 0, 45, 44
3, 283249, Control_c, 0, 64, 127
3, 283320, Note_on_c, 0, 45, 0
3, 283320, Note_on_c, 0, 57, 0
3, 283440, Note_on_c, 0, 42, 40
3, 283440, Note_on_c, 0, 54, 58
3, 283560, Note_on_c, 0, 54, 0
3, 283560, Note_on_c, 0, 42, 0
3, 283680, Note_on_c, 0, 50, 65
3, 283800, Note_on_c, 0, 50, 0
3, 283920, Note_on_c, 0, 57, 63
3, 284040, Note_on_c, 0, 57, 0
3, 284160, Note_on_c, 0, 54, 67
3, 284280, Note_on_c, 0, 54, 0
3, 284400, Note_on_c, 0, 50, 61
3, 284520, Note_on_c, 0, 50, 0
3, 284640, Note_on_c, 0, 57, 65
3, 284760, Note_on_c, 0, 57, 0
3, 284880, Note_on_c, 0, 54, 61
3, 285000, Note_on_c, 0, 54, 0
3, 285120, Note_on_c, 0, 50, 65
3, 285120, Note_on_c, 0, 38, 54
3, 285162, Control_c, 0, 64, 0
3, 285240, Note_on_c, 0, 38, 0
3, 285240, Note_on_c, 0, 50, 0
3, 285247, Control_c, 0, 64, 127
3, 285360, Note_on_c, 0, 57, 60
3, 285360, Note_on_c, 0, 45, 50
3, 285480, Note_on_c, 0, 45, 0
3, 285480, Note_on_c, 0, 57, 0
3, 285600, Note_on_c, 0, 42, 58
3, 285600, Note_on_c, 0, 54, 69
3, 285720, Note_on_c, 0, 54, 0
3, 285720, Note_on_c, 0, 42, 0
3, 285840, Note_on_c, 0, 38, 53
3, 285840, Note_on_c, 0, 50, 64
3, 285960, Note_on_c, 0, 50, 0
3, 285960, Note_on_c, 0, 38, 0
3, 286080, Note_on_c, 0, 45, 54
3, 286080, Note_on_c, 0, 57, 66
3, 286200, Note_on_c, 0, 57, 0
3, 286200, Note_on_c, 0, 45, 0
3, 286320, Note_on_c, 0, 54, 66
3, 286320, Note_on_c, 0, 42, 54
3, 286440, Note_on_c, 0, 42, 0
3, 286440, Note_on_c, 0, 54, 0
3, 286560, Control_c, 0, 64, 0
3, 286560, Note_on_c, 0, 50, 72
3, 286560, Note_on_c, 0, 38, 60
3, 286933, Control_c, 0, 64, 127
3, 287040, Note_on_c, 0, 38, 0
3, 287040, Note_on_c, 0, 50, 0
3, 287040, Note_on_c, 0, 50, 72
3, 287040, Note_on_c, 0, 38, 60
3, 287360, Control_c, 0, 64, 0
3, 287520, Note_on_c, 0, 38, 0
3, 287520, Note_on_c, 0, 50, 0
3, 288000, Note_on_c, 0, 57, 70
3, 288000, Control_c, 0, 64, 0
3, 288000, Note_on_c, 0, 62, 82
3, 288000, Note_on_c, 0, 50, 70
3, 288373, Control_c, 0, 64, 127
3, 288480, Note_on_c, 0, 50, 0
3, 288480, Note_on_c, 0, 62, 0
3, 288480, Note_on_c, 0, 57, 0
3, 288480, Note_on_c, 0, 57, 70
3, 288480, Note_on_c, 0, 62, 82
3, 288480, Note_on_c, 0, 50, 70
3, 288800, Control_c, 0, 64, 0
3, 288960, Note_on_c, 0, 50, 0
3, 288960, Note_on_c, 0, 62, 0
3, 288960, Note_on_c, 0, 57, 0
3, 289440, Note_on_c, 0, 57, 70
3, 289440, Note_on_c, 0, 62, 82
3, 289440, Note_on_c, 0, 50, 70
3, 289653, Control_c, 0, 64, 127
3, 289920, Note_on_c, 0, 50, 0
3, 289920, Note_on_c, 0, 62, 0
3, 289920, Note_on_c, 0, 57, 0
3, 289973, Control_c, 0, 64, 0
3, 289973, End_track
4, 0, Start_track
4, 0, MIDI_port, 0
4, 0, Title_t, "Granados: Danza Espanola No. 3"
4, 0, End_track
5, 0, Start_track
5, 0, MIDI_port, 0
5, 0, Title_t, "Copyright © 2001 by Bernd Krüger"
5, 0, End_track
6, 0, Start_track
6, 0, MIDI_port, 0
6, 0, Title_t, "email: bernd.krueger@piano-midi.de"
6, 0, End_track
7, 0, Start_track
7, 0, MIDI_port, 0
7, 0, Title_t, "http://www.piano-midi.de"
7, 0, End_track
8, 0, Start_track
8, 0, MIDI_port, 0
8, 0, Title_t, "Edition: 27.7.2001"
8, 0, End_track
9, 0, Start_track
9, 0, MIDI_port, 0
9, 0, End_track
10, 0, Start_track
10, 0, MIDI_port, 0
10, 0, End_track
0, 0, End_of_file
