0, 0, Header, 1, 17, 480
1, 0, Start_track
1, 0, Title_t, "Lyric Pieces Op. 12 No. 12 Valse"
1, 0, Copyright_t, "Copyright © 2007 by Bernd Krueger"
1, 0, Text_t, "Edvard Grieg"
1, 0, Text_t, "Allegro moderato"
1, 0, Text_t, "Erstellt: 5.5.2007\012"
1, 0, Text_t, "Update: 27.10.2012\012"
1, 0, Text_t, "Dauer: 1:48 Minuten\012"
1, 0, Time_signature, 3, 2, 24, 8
1, 0, Key_signature, 0, "major"
1, 0, Tempo, 428571
1, 480, Tempo, 422535
1, 960, Tempo, 433213
1, 1440, Tempo, 428571
1, 1920, Tempo, 419287
1, 2400, Tempo, 425230
1, 2880, Tempo, 432900
1, 3360, Tempo, 412371
1, 3840, Tempo, 420757
1, 4320, Tempo, 426743
1, 4800, Tempo, 403769
1, 5280, Tempo, 430108
1, 5760, Tempo, 437956
1, 6240, Tempo, 421053
1, 6720, Tempo, 430108
1, 7200, Tempo, 428571
1, 7680, Tempo, 413508
1, 8160, Tempo, 433213
1, 8640, Tempo, 417827
1, 8880, Tempo, 418118
1, 9120, Tempo, 412371
1, 9600, Tempo, 427046
1, 10080, Tempo, 405132
1, 10320, Tempo, 413793
1, 10560, Tempo, 408163
1, 10620, Tempo, 401070
1, 11040, Tempo, 430108
1, 11520, Tempo, 437956
1, 12000, Tempo, 417827
1, 12480, Tempo, 430108
1, 12960, Tempo, 428571
1, 13440, Tempo, 412088
1, 13980, Tempo, 419287
1, 14160, Tempo, 434468
1, 14400, Tempo, 430108
1, 14880, Tempo, 424028
1, 15360, Tempo, 421053
1, 15840, Tempo, 415225
1, 16320, Tempo, 416667
1, 16800, Tempo, 446097
1, 17280, Tempo, 428571
1, 17760, Tempo, 424028
1, 18240, Tempo, 421053
1, 18720, Tempo, 415225
1, 19200, Tempo, 416667
1, 19680, Tempo, 447761
1, 20160, Tempo, 409556
1, 20640, Tempo, 416667
1, 21600, Tempo, 409556
1, 22080, Tempo, 416667
1, 23040, Tempo, 441176
1, 23520, Tempo, 459770
1, 23760, Tempo, 474308
1, 24000, Tempo, 576369
1, 24480, Tempo, 722892
1, 24540, Tempo, 815217
1, 24960, Tempo, 887574
1, 25920, Tempo, 428571
1, 26400, Tempo, 422535
1, 26880, Tempo, 433213
1, 27360, Tempo, 428571
1, 27840, Tempo, 419287
1, 27900, Tempo, 414938
1, 28320, Tempo, 425230
1, 28800, Tempo, 432900
1, 29280, Tempo, 412371
1, 29760, Tempo, 420757
1, 30240, Tempo, 426743
1, 30720, Tempo, 402414
1, 31200, Tempo, 419287
1, 31680, Tempo, 437956
1, 32160, Tempo, 421053
1, 32640, Tempo, 430108
1, 33120, Tempo, 428571
1, 33600, Tempo, 422535
1, 33660, Tempo, 413508
1, 34080, Tempo, 433213
1, 34560, Tempo, 412088
1, 34680, Tempo, 412088
1, 34800, Tempo, 418118
1, 35040, Tempo, 412371
1, 35520, Tempo, 427046
1, 36000, Tempo, 407886
1, 36240, Tempo, 413793
1, 36480, Tempo, 408163
1, 36960, Tempo, 430108
1, 37440, Tempo, 437956
1, 37920, Tempo, 417827
1, 38400, Tempo, 430108
1, 38880, Tempo, 428571
1, 39120, Tempo, 420757
1, 39360, Tempo, 410678
1, 39840, Tempo, 433213
1, 40320, Tempo, 430108
1, 40800, Tempo, 424028
1, 41280, Tempo, 421053
1, 41760, Tempo, 415225
1, 42240, Tempo, 416667
1, 42720, Tempo, 446097
1, 43200, Tempo, 428571
1, 43680, Tempo, 424028
1, 44160, Tempo, 421053
1, 44640, Tempo, 415225
1, 45120, Tempo, 416667
1, 45600, Tempo, 447761
1, 46080, Tempo, 409556
1, 46560, Tempo, 416667
1, 47520, Tempo, 409556
1, 48000, Tempo, 416667
1, 48960, Tempo, 441176
1, 49440, Tempo, 459770
1, 49680, Tempo, 474308
1, 49920, Tempo, 565504
1, 50400, Tempo, 815217
1, 50880, Tempo, 894188
1, 51840, Key_signature, 3, "major"
1, 51840, Tempo, 426743
1, 52320, Tempo, 408163
1, 52800, Tempo, 430108
1, 53280, Tempo, 437956
1, 53760, Tempo, 421053
1, 54240, Tempo, 430108
1, 54720, Tempo, 426743
1, 55200, Tempo, 408163
1, 55680, Tempo, 430108
1, 56160, Tempo, 437956
1, 56640, Tempo, 421053
1, 57120, Tempo, 430108
1, 57600, Tempo, 426743
1, 58080, Tempo, 408163
1, 58560, Tempo, 430108
1, 58800, Tempo, 436047
1, 60000, Tempo, 432900
1, 60480, Tempo, 439239
1, 60600, Tempo, 440852
1, 60960, Tempo, 436047
1, 61080, Tempo, 437637
1, 61440, Tempo, 457666
1, 61680, Tempo, 540054
1, 61920, Tempo, 519031
1, 62400, Tempo, 542495
1, 62880, Tempo, 587659
1, 63360, Tempo, 449102
1, 63840, Tempo, 423729
1, 64320, Tempo, 434468
1, 64800, Tempo, 437956
1, 65280, Tempo, 421053
1, 65760, Tempo, 430108
1, 66240, Tempo, 426743
1, 66720, Tempo, 408163
1, 67200, Tempo, 430108
1, 67680, Tempo, 437956
1, 68160, Tempo, 421053
1, 68640, Tempo, 430108
1, 69120, Tempo, 426743
1, 69600, Tempo, 408163
1, 70080, Tempo, 430108
1, 70560, Tempo, 437637
1, 71520, Tempo, 455927
1, 72000, Tempo, 449102
1, 73080, Tempo, 481889
1, 73440, Tempo, 495458
1, 73680, Tempo, 538165
1, 73920, Tempo, 562852
1, 74400, Tempo, 570885
1, 74520, Tempo, 718649
1, 74880, Key_signature, 0, "major"
1, 74880, Tempo, 439239
1, 75360, Tempo, 428266
1, 75840, Tempo, 437637
1, 76320, Tempo, 428571
1, 76560, Tempo, 422238
1, 76800, Tempo, 417827
1, 77280, Tempo, 425230
1, 77760, Tempo, 432900
1, 78240, Tempo, 412371
1, 78720, Tempo, 420757
1, 79200, Tempo, 426743
1, 79680, Tempo, 408163
1, 80160, Tempo, 430108
1, 80640, Tempo, 437956
1, 81120, Tempo, 421053
1, 81600, Tempo, 430108
1, 82080, Tempo, 428571
1, 82560, Tempo, 422535
1, 83040, Tempo, 433213
1, 83520, Tempo, 413508
1, 83640, Tempo, 414938
1, 83760, Tempo, 418118
1, 84000, Tempo, 412371
1, 84480, Tempo, 427046
1, 84960, Tempo, 407886
1, 85200, Tempo, 413793
1, 85440, Tempo, 408163
1, 85920, Tempo, 430108
1, 86400, Tempo, 437956
1, 86880, Tempo, 417827
1, 87360, Tempo, 430108
1, 87840, Tempo, 428571
1, 88320, Tempo, 419287
1, 88800, Tempo, 433213
1, 89280, Tempo, 430108
1, 89760, Tempo, 424028
1, 90240, Tempo, 421053
1, 90720, Tempo, 415225
1, 91200, Tempo, 416667
1, 91680, Tempo, 446097
1, 92160, Tempo, 428571
1, 92640, Tempo, 424028
1, 93120, Tempo, 421053
1, 93600, Tempo, 415225
1, 94080, Tempo, 416667
1, 94560, Tempo, 447761
1, 95040, Tempo, 409556
1, 95520, Tempo, 416667
1, 96480, Tempo, 409556
1, 96960, Tempo, 416667
1, 97920, Tempo, 450789
1, 98400, Tempo, 475813
1, 98640, Tempo, 499584
1, 98880, Tempo, 641026
1, 99360, Tempo, 943396
1, 99840, Tempo, 990099
1, 100800, Key_signature, 3, "major"
1, 100800, Tempo, 426743
1, 101280, Tempo, 414938
1, 101760, Tempo, 430108
1, 102240, Tempo, 437956
1, 102720, Tempo, 421053
1, 103200, Tempo, 442478
1, 103680, Tempo, 426743
1, 104160, Tempo, 416378
1, 104640, Tempo, 430108
1, 105120, Tempo, 437956
1, 105600, Tempo, 429799
1, 106080, Tempo, 505902
1, 106560, Tempo, 495458
1, 107040, Tempo, 479616
1, 108000, Tempo, 470219
1, 109440, Tempo, 557621
1, 109920, Tempo, 596421
1, 109920, End_track
2, 0, Start_track
2, 0, Title_t, "Piano right"
2, 0, Program_c, 0, 0
2, 0, Control_c, 0, 7, 101
2, 2880, Note_on_c, 0, 64, 50
2, 3360, Note_on_c, 0, 64, 0
2, 3360, Note_on_c, 0, 66, 49
2, 3480, Note_on_c, 0, 66, 0
2, 3600, Note_on_c, 0, 68, 49
2, 3660, Note_on_c, 0, 68, 0
2, 3840, Note_on_c, 0, 69, 53
2, 4080, Note_on_c, 0, 69, 0
2, 4320, Note_on_c, 0, 69, 56
2, 4800, Note_on_c, 0, 69, 0
2, 4800, Note_on_c, 0, 71, 58
2, 4920, Note_on_c, 0, 71, 0
2, 5040, Note_on_c, 0, 68, 50
2, 5100, Note_on_c, 0, 68, 0
2, 5280, Note_on_c, 0, 66, 48
2, 5400, Note_on_c, 0, 66, 0
2, 5700, Note_on_c, 0, 69, 39
2, 5760, Note_on_c, 0, 69, 0
2, 5760, Note_on_c, 0, 66, 50
2, 5880, Note_on_c, 0, 66, 0
2, 6240, Note_on_c, 0, 64, 47
2, 7680, Note_on_c, 0, 64, 0
2, 8880, Note_on_c, 0, 64, 43
2, 9000, Note_on_c, 0, 64, 0
2, 9120, Note_on_c, 0, 66, 46
2, 9180, Note_on_c, 0, 66, 0
2, 9360, Note_on_c, 0, 68, 49
2, 9420, Note_on_c, 0, 68, 0
2, 9600, Note_on_c, 0, 68, 54
2, 9840, Note_on_c, 0, 68, 0
2, 9840, Note_on_c, 0, 69, 51
2, 10080, Note_on_c, 0, 69, 0
2, 10320, Note_on_c, 0, 69, 51
2, 10380, Note_on_c, 0, 69, 0
2, 10560, Note_on_c, 0, 71, 56
2, 10620, Note_on_c, 0, 71, 0
2, 10800, Note_on_c, 0, 68, 50
2, 10860, Note_on_c, 0, 68, 0
2, 11040, Note_on_c, 0, 68, 48
2, 11280, Note_on_c, 0, 68, 0
2, 11280, Note_on_c, 0, 66, 50
2, 11400, Note_on_c, 0, 66, 0
2, 11460, Note_on_c, 0, 69, 39
2, 11520, Note_on_c, 0, 69, 0
2, 11520, Note_on_c, 0, 66, 50
2, 11640, Note_on_c, 0, 66, 0
2, 12000, Note_on_c, 0, 64, 47
2, 13440, Note_on_c, 0, 64, 0
2, 14400, Note_on_c, 0, 67, 37
2, 14400, Note_on_c, 0, 76, 44
2, 14641, Note_on_c, 0, 76, 0
2, 14641, Note_on_c, 0, 67, 0
2, 14880, Note_on_c, 0, 76, 48
2, 14880, Note_on_c, 0, 68, 40
2, 15121, Note_on_c, 0, 68, 0
2, 15121, Note_on_c, 0, 76, 0
2, 15360, Note_on_c, 0, 69, 44
2, 15360, Note_on_c, 0, 76, 52
2, 15601, Note_on_c, 0, 76, 0
2, 15601, Note_on_c, 0, 69, 0
2, 15840, Note_on_c, 0, 71, 45
2, 15840, Note_on_c, 0, 76, 54
2, 16000, Note_on_c, 0, 76, 0
2, 16000, Note_on_c, 0, 74, 44
2, 16160, Note_on_c, 0, 74, 0
2, 16160, Note_on_c, 0, 72, 44
2, 16320, Note_on_c, 0, 72, 0
2, 16320, Note_on_c, 0, 74, 48
2, 17280, Note_on_c, 0, 74, 0
2, 17280, Note_on_c, 0, 71, 0
2, 17280, Note_on_c, 0, 72, 44
2, 17280, Note_on_c, 0, 64, 37
2, 17522, Note_on_c, 0, 64, 0
2, 17522, Note_on_c, 0, 72, 0
2, 17760, Note_on_c, 0, 72, 48
2, 17760, Note_on_c, 0, 65, 40
2, 18002, Note_on_c, 0, 65, 0
2, 18002, Note_on_c, 0, 72, 0
2, 18240, Note_on_c, 0, 66, 44
2, 18240, Note_on_c, 0, 72, 52
2, 18482, Note_on_c, 0, 72, 0
2, 18482, Note_on_c, 0, 66, 0
2, 18720, Note_on_c, 0, 67, 45
2, 18720, Note_on_c, 0, 72, 54
2, 18880, Note_on_c, 0, 72, 0
2, 18880, Note_on_c, 0, 71, 44
2, 19040, Note_on_c, 0, 71, 0
2, 19040, Note_on_c, 0, 69, 44
2, 19200, Note_on_c, 0, 69, 0
2, 19200, Note_on_c, 0, 71, 48
2, 20160, Note_on_c, 0, 71, 0
2, 20160, Note_on_c, 0, 67, 0
2, 20160, Note_on_c, 0, 65, 45
2, 20160, Note_on_c, 0, 71, 54
2, 20320, Note_on_c, 0, 71, 0
2, 20320, Note_on_c, 0, 69, 44
2, 20480, Note_on_c, 0, 69, 0
2, 20480, Note_on_c, 0, 67, 44
2, 20640, Note_on_c, 0, 67, 0
2, 20640, Note_on_c, 0, 69, 48
2, 21600, Note_on_c, 0, 69, 0
2, 21600, Note_on_c, 0, 65, 0
2, 21600, Note_on_c, 0, 65, 59
2, 21600, Note_on_c, 0, 67, 43
2, 21760, Note_on_c, 0, 65, 0
2, 21763, Note_on_c, 0, 64, 48
2, 21918, Note_on_c, 0, 62, 48
2, 21923, Note_on_c, 0, 64, 0
2, 22078, Note_on_c, 0, 62, 0
2, 22080, Note_on_c, 0, 64, 52
2, 23040, Note_on_c, 0, 64, 0
2, 23040, Note_on_c, 0, 67, 0
2, 23040, Note_on_c, 0, 60, 51
2, 23040, Note_on_c, 0, 65, 61
2, 23520, Note_on_c, 0, 65, 0
2, 23520, Note_on_c, 0, 60, 0
2, 23520, Note_on_c, 0, 67, 61
2, 23520, Note_on_c, 0, 60, 51
2, 23640, Note_on_c, 0, 60, 0
2, 23640, Note_on_c, 0, 67, 0
2, 23760, Note_on_c, 0, 69, 57
2, 23760, Note_on_c, 0, 60, 48
2, 23880, Note_on_c, 0, 60, 0
2, 23880, Note_on_c, 0, 69, 0
2, 24000, Note_on_c, 0, 65, 66
2, 24000, Note_on_c, 0, 60, 56
2, 24180, Note_on_c, 0, 60, 0
2, 24180, Note_on_c, 0, 65, 0
2, 24480, Note_on_c, 0, 62, 48
2, 24480, Note_on_c, 0, 59, 40
2, 24660, Note_on_c, 0, 59, 0
2, 24660, Note_on_c, 0, 62, 0
2, 24960, Note_on_c, 0, 64, 41
2, 24960, Note_on_c, 0, 59, 34
2, 25920, Note_on_c, 0, 59, 0
2, 25920, Note_on_c, 0, 64, 0
2, 28800, Note_on_c, 0, 64, 50
2, 29280, Note_on_c, 0, 64, 0
2, 29280, Note_on_c, 0, 66, 48
2, 29400, Note_on_c, 0, 66, 0
2, 29520, Note_on_c, 0, 68, 46
2, 29580, Note_on_c, 0, 68, 0
2, 29760, Note_on_c, 0, 69, 53
2, 30000, Note_on_c, 0, 69, 0
2, 30240, Note_on_c, 0, 69, 54
2, 30720, Note_on_c, 0, 69, 0
2, 30720, Note_on_c, 0, 71, 58
2, 30840, Note_on_c, 0, 71, 0
2, 30960, Note_on_c, 0, 68, 53
2, 31020, Note_on_c, 0, 68, 0
2, 31200, Note_on_c, 0, 66, 48
2, 31440, Note_on_c, 0, 66, 0
2, 31620, Note_on_c, 0, 69, 39
2, 31680, Note_on_c, 0, 69, 0
2, 31680, Note_on_c, 0, 66, 50
2, 31800, Note_on_c, 0, 66, 0
2, 32160, Note_on_c, 0, 64, 47
2, 33600, Note_on_c, 0, 64, 0
2, 34800, Note_on_c, 0, 64, 43
2, 34860, Note_on_c, 0, 64, 0
2, 35040, Note_on_c, 0, 66, 48
2, 35100, Note_on_c, 0, 66, 0
2, 35280, Note_on_c, 0, 68, 44
2, 35340, Note_on_c, 0, 68, 0
2, 35520, Note_on_c, 0, 68, 54
2, 35760, Note_on_c, 0, 68, 0
2, 35760, Note_on_c, 0, 69, 50
2, 36000, Note_on_c, 0, 69, 0
2, 36240, Note_on_c, 0, 69, 52
2, 36300, Note_on_c, 0, 69, 0
2, 36480, Note_on_c, 0, 71, 56
2, 36540, Note_on_c, 0, 71, 0
2, 36720, Note_on_c, 0, 68, 50
2, 36780, Note_on_c, 0, 68, 0
2, 36960, Note_on_c, 0, 68, 48
2, 37200, Note_on_c, 0, 68, 0
2, 37200, Note_on_c, 0, 66, 50
2, 37320, Note_on_c, 0, 66, 0
2, 37380, Note_on_c, 0, 69, 39
2, 37440, Note_on_c, 0, 69, 0
2, 37440, Note_on_c, 0, 66, 50
2, 37560, Note_on_c, 0, 66, 0
2, 37920, Note_on_c, 0, 64, 47
2, 39360, Note_on_c, 0, 64, 0
2, 40320, Note_on_c, 0, 67, 37
2, 40320, Note_on_c, 0, 76, 44
2, 40562, Note_on_c, 0, 76, 0
2, 40562, Note_on_c, 0, 67, 0
2, 40800, Note_on_c, 0, 68, 40
2, 40800, Note_on_c, 0, 76, 48
2, 41042, Note_on_c, 0, 76, 0
2, 41042, Note_on_c, 0, 68, 0
2, 41280, Note_on_c, 0, 69, 44
2, 41280, Note_on_c, 0, 76, 52
2, 41522, Note_on_c, 0, 76, 0
2, 41522, Note_on_c, 0, 69, 0
2, 41760, Note_on_c, 0, 76, 54
2, 41760, Note_on_c, 0, 71, 45
2, 41920, Note_on_c, 0, 76, 0
2, 41920, Note_on_c, 0, 74, 44
2, 42080, Note_on_c, 0, 74, 0
2, 42080, Note_on_c, 0, 72, 44
2, 42240, Note_on_c, 0, 72, 0
2, 42240, Note_on_c, 0, 74, 48
2, 43200, Note_on_c, 0, 74, 0
2, 43200, Note_on_c, 0, 71, 0
2, 43200, Note_on_c, 0, 64, 37
2, 43200, Note_on_c, 0, 72, 44
2, 43442, Note_on_c, 0, 72, 0
2, 43442, Note_on_c, 0, 64, 0
2, 43680, Note_on_c, 0, 72, 48
2, 43680, Note_on_c, 0, 65, 40
2, 43922, Note_on_c, 0, 65, 0
2, 43922, Note_on_c, 0, 72, 0
2, 44160, Note_on_c, 0, 72, 52
2, 44160, Note_on_c, 0, 66, 44
2, 44402, Note_on_c, 0, 66, 0
2, 44402, Note_on_c, 0, 72, 0
2, 44640, Note_on_c, 0, 72, 54
2, 44640, Note_on_c, 0, 67, 45
2, 44800, Note_on_c, 0, 72, 0
2, 44800, Note_on_c, 0, 71, 44
2, 44960, Note_on_c, 0, 71, 0
2, 44960, Note_on_c, 0, 69, 44
2, 45120, Note_on_c, 0, 69, 0
2, 45120, Note_on_c, 0, 71, 48
2, 46080, Note_on_c, 0, 71, 0
2, 46080, Note_on_c, 0, 67, 0
2, 46080, Note_on_c, 0, 65, 45
2, 46080, Note_on_c, 0, 71, 54
2, 46240, Note_on_c, 0, 71, 0
2, 46240, Note_on_c, 0, 69, 44
2, 46400, Note_on_c, 0, 69, 0
2, 46400, Note_on_c, 0, 67, 44
2, 46560, Note_on_c, 0, 67, 0
2, 46560, Note_on_c, 0, 69, 48
2, 47520, Note_on_c, 0, 69, 0
2, 47520, Note_on_c, 0, 65, 0
2, 47520, Note_on_c, 0, 65, 59
2, 47520, Note_on_c, 0, 67, 44
2, 47680, Note_on_c, 0, 65, 0
2, 47683, Note_on_c, 0, 64, 48
2, 47838, Note_on_c, 0, 62, 48
2, 47843, Note_on_c, 0, 64, 0
2, 47998, Note_on_c, 0, 62, 0
2, 48000, Note_on_c, 0, 64, 52
2, 48960, Note_on_c, 0, 64, 0
2, 48960, Note_on_c, 0, 67, 0
2, 48960, Note_on_c, 0, 60, 51
2, 48960, Note_on_c, 0, 65, 61
2, 49440, Note_on_c, 0, 65, 0
2, 49440, Note_on_c, 0, 60, 0
2, 49440, Note_on_c, 0, 60, 51
2, 49440, Note_on_c, 0, 67, 61
2, 49560, Note_on_c, 0, 67, 0
2, 49560, Note_on_c, 0, 60, 0
2, 49680, Note_on_c, 0, 60, 48
2, 49680, Note_on_c, 0, 69, 57
2, 49800, Note_on_c, 0, 69, 0
2, 49800, Note_on_c, 0, 60, 0
2, 49920, Note_on_c, 0, 60, 56
2, 49920, Note_on_c, 0, 65, 66
2, 50100, Note_on_c, 0, 65, 0
2, 50100, Note_on_c, 0, 60, 0
2, 50400, Note_on_c, 0, 62, 48
2, 50400, Note_on_c, 0, 59, 40
2, 50580, Note_on_c, 0, 59, 0
2, 50580, Note_on_c, 0, 62, 0
2, 50880, Note_on_c, 0, 59, 34
2, 50880, Note_on_c, 0, 64, 41
2, 51840, Note_on_c, 0, 64, 0
2, 51840, Note_on_c, 0, 59, 0
2, 52320, Note_on_c, 0, 73, 39
2, 52320, Note_on_c, 0, 76, 47
2, 52800, Note_on_c, 0, 76, 0
2, 52800, Note_on_c, 0, 73, 0
2, 52800, Note_on_c, 0, 73, 39
2, 52800, Note_on_c, 0, 76, 47
2, 53280, Note_on_c, 0, 76, 0
2, 53280, Note_on_c, 0, 73, 0
2, 53760, Note_on_c, 0, 76, 47
2, 53760, Note_on_c, 0, 68, 39
2, 53760, Note_on_c, 0, 74, 39
2, 54240, Note_on_c, 0, 74, 0
2, 54240, Note_on_c, 0, 68, 0
2, 54240, Note_on_c, 0, 76, 0
2, 54240, Note_on_c, 0, 68, 39
2, 54240, Note_on_c, 0, 74, 39
2, 54240, Note_on_c, 0, 76, 47
2, 54720, Note_on_c, 0, 76, 0
2, 54720, Note_on_c, 0, 74, 0
2, 54720, Note_on_c, 0, 68, 0
2, 55200, Note_on_c, 0, 73, 39
2, 55200, Note_on_c, 0, 76, 47
2, 55680, Note_on_c, 0, 76, 0
2, 55680, Note_on_c, 0, 73, 0
2, 55680, Note_on_c, 0, 73, 39
2, 55680, Note_on_c, 0, 76, 47
2, 56160, Note_on_c, 0, 76, 0
2, 56160, Note_on_c, 0, 73, 0
2, 56640, Note_on_c, 0, 74, 35
2, 56640, Note_on_c, 0, 68, 35
2, 56640, Note_on_c, 0, 76, 42
2, 57120, Note_on_c, 0, 76, 0
2, 57120, Note_on_c, 0, 68, 0
2, 57120, Note_on_c, 0, 74, 0
2, 57120, Note_on_c, 0, 68, 35
2, 57120, Note_on_c, 0, 74, 35
2, 57120, Note_on_c, 0, 76, 42
2, 57600, Note_on_c, 0, 76, 0
2, 57600, Note_on_c, 0, 74, 0
2, 57600, Note_on_c, 0, 68, 0
2, 58080, Note_on_c, 0, 73, 39
2, 58080, Note_on_c, 0, 76, 47
2, 58560, Note_on_c, 0, 76, 0
2, 58560, Note_on_c, 0, 73, 0
2, 58560, Note_on_c, 0, 76, 47
2, 58560, Note_on_c, 0, 73, 39
2, 59040, Note_on_c, 0, 73, 0
2, 59040, Note_on_c, 0, 76, 0
2, 59520, Note_on_c, 0, 73, 39
2, 59520, Note_on_c, 0, 76, 47
2, 60000, Note_on_c, 0, 76, 0
2, 60000, Note_on_c, 0, 73, 0
2, 60000, Note_on_c, 0, 73, 39
2, 60000, Note_on_c, 0, 76, 47
2, 60480, Note_on_c, 0, 76, 0
2, 60480, Note_on_c, 0, 73, 0
2, 60960, Note_on_c, 0, 73, 40
2, 60960, Note_on_c, 0, 76, 49
2, 61440, Note_on_c, 0, 76, 0
2, 61440, Note_on_c, 0, 73, 0
2, 61440, Note_on_c, 0, 73, 40
2, 61440, Note_on_c, 0, 76, 49
2, 61920, Note_on_c, 0, 76, 0
2, 61920, Note_on_c, 0, 73, 0
2, 62400, Note_on_c, 0, 76, 42
2, 62400, Note_on_c, 0, 73, 35
2, 62880, Note_on_c, 0, 73, 0
2, 62880, Note_on_c, 0, 76, 0
2, 62880, Note_on_c, 0, 73, 35
2, 62880, Note_on_c, 0, 76, 42
2, 63360, Note_on_c, 0, 76, 0
2, 63360, Note_on_c, 0, 73, 0
2, 63840, Note_on_c, 0, 73, 39
2, 63840, Note_on_c, 0, 76, 47
2, 64320, Note_on_c, 0, 76, 0
2, 64320, Note_on_c, 0, 73, 0
2, 64320, Note_on_c, 0, 73, 39
2, 64320, Note_on_c, 0, 76, 47
2, 64800, Note_on_c, 0, 76, 0
2, 64800, Note_on_c, 0, 73, 0
2, 65280, Note_on_c, 0, 76, 47
2, 65280, Note_on_c, 0, 68, 39
2, 65280, Note_on_c, 0, 74, 39
2, 65760, Note_on_c, 0, 74, 0
2, 65760, Note_on_c, 0, 68, 0
2, 65760, Note_on_c, 0, 76, 0
2, 65760, Note_on_c, 0, 68, 39
2, 65760, Note_on_c, 0, 74, 39
2, 65760, Note_on_c, 0, 76, 47
2, 66240, Note_on_c, 0, 76, 0
2, 66240, Note_on_c, 0, 74, 0
2, 66240, Note_on_c, 0, 68, 0
2, 66720, Note_on_c, 0, 73, 39
2, 66720, Note_on_c, 0, 76, 47
2, 67200, Note_on_c, 0, 76, 0
2, 67200, Note_on_c, 0, 73, 0
2, 67200, Note_on_c, 0, 73, 39
2, 67200, Note_on_c, 0, 76, 47
2, 67680, Note_on_c, 0, 76, 0
2, 67680, Note_on_c, 0, 73, 0
2, 68160, Note_on_c, 0, 74, 35
2, 68160, Note_on_c, 0, 68, 35
2, 68160, Note_on_c, 0, 76, 42
2, 68640, Note_on_c, 0, 76, 0
2, 68640, Note_on_c, 0, 68, 0
2, 68640, Note_on_c, 0, 74, 0
2, 68640, Note_on_c, 0, 68, 35
2, 68640, Note_on_c, 0, 74, 35
2, 68640, Note_on_c, 0, 76, 42
2, 69120, Note_on_c, 0, 76, 0
2, 69120, Note_on_c, 0, 74, 0
2, 69120, Note_on_c, 0, 68, 0
2, 69600, Note_on_c, 0, 73, 39
2, 69600, Note_on_c, 0, 76, 47
2, 70080, Note_on_c, 0, 76, 0
2, 70080, Note_on_c, 0, 73, 0
2, 70080, Note_on_c, 0, 76, 47
2, 70080, Note_on_c, 0, 73, 39
2, 70560, Note_on_c, 0, 73, 0
2, 70560, Note_on_c, 0, 76, 0
2, 71040, Note_on_c, 0, 73, 42
2, 71040, Note_on_c, 0, 76, 51
2, 71520, Note_on_c, 0, 76, 0
2, 71520, Note_on_c, 0, 73, 0
2, 71520, Note_on_c, 0, 73, 42
2, 71520, Note_on_c, 0, 76, 51
2, 72000, Note_on_c, 0, 76, 0
2, 72000, Note_on_c, 0, 73, 0
2, 72480, Note_on_c, 0, 73, 46
2, 72480, Note_on_c, 0, 76, 56
2, 72960, Note_on_c, 0, 76, 0
2, 72960, Note_on_c, 0, 73, 0
2, 72960, Note_on_c, 0, 73, 46
2, 72960, Note_on_c, 0, 76, 56
2, 73440, Note_on_c, 0, 76, 0
2, 73440, Note_on_c, 0, 73, 0
2, 73920, Note_on_c, 0, 76, 61
2, 73920, Note_on_c, 0, 73, 50
2, 74400, Note_on_c, 0, 73, 0
2, 74400, Note_on_c, 0, 76, 0
2, 74400, Note_on_c, 0, 73, 50
2, 74400, Note_on_c, 0, 76, 61
2, 74880, Note_on_c, 0, 76, 0
2, 74880, Note_on_c, 0, 73, 0
2, 77760, Note_on_c, 0, 64, 45
2, 78240, Note_on_c, 0, 64, 0
2, 78240, Note_on_c, 0, 66, 42
2, 78360, Note_on_c, 0, 66, 0
2, 78480, Note_on_c, 0, 68, 39
2, 78540, Note_on_c, 0, 68, 0
2, 78720, Note_on_c, 0, 69, 47
2, 78960, Note_on_c, 0, 69, 0
2, 79200, Note_on_c, 0, 69, 49
2, 79680, Note_on_c, 0, 69, 0
2, 79680, Note_on_c, 0, 71, 52
2, 79800, Note_on_c, 0, 71, 0
2, 79920, Note_on_c, 0, 68, 45
2, 79980, Note_on_c, 0, 68, 0
2, 80160, Note_on_c, 0, 66, 43
2, 80400, Note_on_c, 0, 66, 0
2, 80580, Note_on_c, 0, 69, 35
2, 80640, Note_on_c, 0, 69, 0
2, 80640, Note_on_c, 0, 66, 45
2, 80760, Note_on_c, 0, 66, 0
2, 81120, Note_on_c, 0, 64, 42
2, 82560, Note_on_c, 0, 64, 0
2, 83760, Note_on_c, 0, 64, 38
2, 83820, Note_on_c, 0, 64, 0
2, 84000, Note_on_c, 0, 66, 43
2, 84060, Note_on_c, 0, 66, 0
2, 84240, Note_on_c, 0, 68, 39
2, 84300, Note_on_c, 0, 68, 0
2, 84480, Note_on_c, 0, 68, 45
2, 84720, Note_on_c, 0, 68, 0
2, 84720, Note_on_c, 0, 69, 45
2, 84960, Note_on_c, 0, 69, 0
2, 85200, Note_on_c, 0, 69, 46
2, 85260, Note_on_c, 0, 69, 0
2, 85440, Note_on_c, 0, 71, 51
2, 85500, Note_on_c, 0, 71, 0
2, 85680, Note_on_c, 0, 68, 45
2, 85740, Note_on_c, 0, 68, 0
2, 85920, Note_on_c, 0, 68, 43
2, 86160, Note_on_c, 0, 68, 0
2, 86160, Note_on_c, 0, 66, 45
2, 86280, Note_on_c, 0, 66, 0
2, 86340, Note_on_c, 0, 69, 35
2, 86400, Note_on_c, 0, 69, 0
2, 86400, Note_on_c, 0, 66, 45
2, 86520, Note_on_c, 0, 66, 0
2, 86880, Note_on_c, 0, 64, 42
2, 88320, Note_on_c, 0, 64, 0
2, 89280, Note_on_c, 0, 67, 37
2, 89280, Note_on_c, 0, 76, 44
2, 89522, Note_on_c, 0, 76, 0
2, 89522, Note_on_c, 0, 67, 0
2, 89760, Note_on_c, 0, 68, 40
2, 89760, Note_on_c, 0, 76, 48
2, 90002, Note_on_c, 0, 76, 0
2, 90002, Note_on_c, 0, 68, 0
2, 90240, Note_on_c, 0, 76, 52
2, 90240, Note_on_c, 0, 69, 44
2, 90482, Note_on_c, 0, 69, 0
2, 90482, Note_on_c, 0, 76, 0
2, 90720, Note_on_c, 0, 71, 45
2, 90720, Note_on_c, 0, 76, 54
2, 90880, Note_on_c, 0, 76, 0
2, 90880, Note_on_c, 0, 74, 44
2, 91040, Note_on_c, 0, 74, 0
2, 91040, Note_on_c, 0, 72, 44
2, 91200, Note_on_c, 0, 72, 0
2, 91200, Note_on_c, 0, 74, 48
2, 92160, Note_on_c, 0, 74, 0
2, 92160, Note_on_c, 0, 71, 0
2, 92160, Note_on_c, 0, 72, 44
2, 92160, Note_on_c, 0, 64, 37
2, 92402, Note_on_c, 0, 64, 0
2, 92402, Note_on_c, 0, 72, 0
2, 92640, Note_on_c, 0, 72, 48
2, 92640, Note_on_c, 0, 65, 40
2, 92882, Note_on_c, 0, 65, 0
2, 92882, Note_on_c, 0, 72, 0
2, 93120, Note_on_c, 0, 72, 52
2, 93120, Note_on_c, 0, 66, 44
2, 93362, Note_on_c, 0, 66, 0
2, 93362, Note_on_c, 0, 72, 0
2, 93600, Note_on_c, 0, 67, 45
2, 93600, Note_on_c, 0, 72, 54
2, 93760, Note_on_c, 0, 72, 0
2, 93760, Note_on_c, 0, 71, 44
2, 93920, Note_on_c, 0, 71, 0
2, 93920, Note_on_c, 0, 69, 44
2, 94080, Note_on_c, 0, 69, 0
2, 94080, Note_on_c, 0, 71, 48
2, 95040, Note_on_c, 0, 71, 0
2, 95040, Note_on_c, 0, 67, 0
2, 95040, Note_on_c, 0, 71, 54
2, 95040, Note_on_c, 0, 65, 45
2, 95200, Note_on_c, 0, 71, 0
2, 95200, Note_on_c, 0, 69, 44
2, 95360, Note_on_c, 0, 69, 0
2, 95360, Note_on_c, 0, 67, 44
2, 95520, Note_on_c, 0, 67, 0
2, 95520, Note_on_c, 0, 69, 48
2, 96480, Note_on_c, 0, 69, 0
2, 96480, Note_on_c, 0, 65, 0
2, 96480, Note_on_c, 0, 67, 49
2, 96480, Note_on_c, 0, 65, 59
2, 96640, Note_on_c, 0, 65, 0
2, 96643, Note_on_c, 0, 64, 48
2, 96798, Note_on_c, 0, 62, 48
2, 96803, Note_on_c, 0, 64, 0
2, 96958, Note_on_c, 0, 62, 0
2, 96960, Note_on_c, 0, 64, 52
2, 97920, Note_on_c, 0, 64, 0
2, 97920, Note_on_c, 0, 67, 0
2, 97920, Note_on_c, 0, 60, 51
2, 97920, Note_on_c, 0, 65, 61
2, 98400, Note_on_c, 0, 65, 0
2, 98400, Note_on_c, 0, 60, 0
2, 98400, Note_on_c, 0, 60, 51
2, 98400, Note_on_c, 0, 67, 61
2, 98520, Note_on_c, 0, 67, 0
2, 98520, Note_on_c, 0, 60, 0
2, 98640, Note_on_c, 0, 60, 48
2, 98640, Note_on_c, 0, 69, 57
2, 98760, Note_on_c, 0, 69, 0
2, 98760, Note_on_c, 0, 60, 0
2, 98880, Note_on_c, 0, 60, 56
2, 98880, Note_on_c, 0, 65, 66
2, 99060, Note_on_c, 0, 65, 0
2, 99060, Note_on_c, 0, 60, 0
2, 99360, Note_on_c, 0, 59, 40
2, 99360, Note_on_c, 0, 62, 48
2, 99540, Note_on_c, 0, 62, 0
2, 99540, Note_on_c, 0, 59, 0
2, 99840, Note_on_c, 0, 64, 41
2, 99840, Note_on_c, 0, 59, 34
2, 100800, Note_on_c, 0, 59, 0
2, 100800, Note_on_c, 0, 64, 0
2, 100800, Note_on_c, 0, 69, 46
2, 100800, Note_on_c, 0, 61, 36
2, 101760, Note_on_c, 0, 69, 0
2, 101760, Note_on_c, 0, 71, 48
2, 102000, Note_on_c, 0, 71, 0
2, 102000, Note_on_c, 0, 68, 45
2, 102180, Note_on_c, 0, 68, 0
2, 102180, Note_on_c, 0, 69, 35
2, 102240, Note_on_c, 0, 69, 0
2, 102240, Note_on_c, 0, 61, 0
2, 102240, Note_on_c, 0, 62, 36
2, 102240, Note_on_c, 0, 66, 45
2, 102480, Note_on_c, 0, 66, 0
2, 102480, Note_on_c, 0, 64, 45
2, 102600, Note_on_c, 0, 64, 0
2, 102720, Note_on_c, 0, 64, 42
2, 103680, Note_on_c, 0, 64, 0
2, 103680, Note_on_c, 0, 62, 0
2, 103680, Note_on_c, 0, 69, 46
2, 103680, Note_on_c, 0, 61, 36
2, 104160, Note_on_c, 0, 69, 0
2, 104160, Note_on_c, 0, 71, 48
2, 104400, Note_on_c, 0, 71, 0
2, 104400, Note_on_c, 0, 73, 48
2, 104640, Note_on_c, 0, 73, 0
2, 104640, Note_on_c, 0, 69, 48
2, 104880, Note_on_c, 0, 69, 0
2, 104880, Note_on_c, 0, 66, 45
2, 105060, Note_on_c, 0, 66, 0
2, 105060, Note_on_c, 0, 68, 35
2, 105120, Note_on_c, 0, 68, 0
2, 105120, Note_on_c, 0, 61, 0
2, 105120, Note_on_c, 0, 62, 36
2, 105120, Note_on_c, 0, 66, 45
2, 105360, Note_on_c, 0, 66, 0
2, 105360, Note_on_c, 0, 64, 45
2, 105480, Note_on_c, 0, 64, 0
2, 105600, Note_on_c, 0, 64, 42
2, 106500, Note_on_c, 0, 64, 0
2, 106500, Note_on_c, 0, 62, 0
2, 106500, Note_on_c, 0, 69, 35
2, 106560, Note_on_c, 0, 69, 0
2, 106560, Note_on_c, 0, 61, 36
2, 106560, Note_on_c, 0, 66, 45
2, 106680, Note_on_c, 0, 66, 0
2, 107040, Note_on_c, 0, 64, 42
2, 108480, Note_on_c, 0, 64, 0
2, 108480, Note_on_c, 0, 61, 0
2, 109380, Note_on_c, 0, 69, 31
2, 109440, Note_on_c, 0, 69, 0
2, 109440, Note_on_c, 0, 60, 32
2, 109440, Note_on_c, 0, 65, 40
2, 109560, Note_on_c, 0, 65, 0
2, 109920, Note_on_c, 0, 64, 37
2, 112320, Note_on_c, 0, 64, 0
2, 112320, Note_on_c, 0, 60, 0
2, 112320, End_track
3, 0, Start_track
3, 0, Title_t, "Piano left"
3, 0, Program_c, 0, 0
3, 0, Note_on_c, 0, 45, 36
3, 480, Note_on_c, 0, 45, 0
3, 480, Note_on_c, 0, 60, 28
3, 480, Note_on_c, 0, 52, 24
3, 960, Note_on_c, 0, 52, 0
3, 960, Note_on_c, 0, 60, 0
3, 960, Note_on_c, 0, 52, 24
3, 960, Note_on_c, 0, 60, 29
3, 1440, Note_on_c, 0, 60, 0
3, 1440, Note_on_c, 0, 52, 0
3, 1440, Note_on_c, 0, 45, 36
3, 1920, Note_on_c, 0, 45, 0
3, 1920, Note_on_c, 0, 52, 24
3, 1920, Note_on_c, 0, 60, 28
3, 2400, Note_on_c, 0, 60, 0
3, 2400, Note_on_c, 0, 52, 0
3, 2400, Note_on_c, 0, 60, 29
3, 2400, Note_on_c, 0, 52, 24
3, 2880, Note_on_c, 0, 52, 0
3, 2880, Note_on_c, 0, 60, 0
3, 2880, Note_on_c, 0, 45, 36
3, 3360, Note_on_c, 0, 45, 0
3, 3360, Note_on_c, 0, 52, 24
3, 3360, Note_on_c, 0, 60, 29
3, 3840, Note_on_c, 0, 60, 0
3, 3840, Note_on_c, 0, 52, 0
3, 3840, Note_on_c, 0, 60, 29
3, 3840, Note_on_c, 0, 52, 24
3, 4320, Note_on_c, 0, 52, 0
3, 4320, Note_on_c, 0, 60, 0
3, 4320, Note_on_c, 0, 45, 36
3, 4800, Note_on_c, 0, 45, 0
3, 4800, Note_on_c, 0, 62, 28
3, 4800, Note_on_c, 0, 52, 24
3, 5280, Note_on_c, 0, 52, 0
3, 5280, Note_on_c, 0, 62, 0
3, 5280, Note_on_c, 0, 62, 29
3, 5280, Note_on_c, 0, 52, 24
3, 5760, Note_on_c, 0, 52, 0
3, 5760, Note_on_c, 0, 62, 0
3, 5760, Note_on_c, 0, 45, 36
3, 6240, Note_on_c, 0, 45, 0
3, 6240, Note_on_c, 0, 60, 26
3, 6240, Note_on_c, 0, 52, 21
3, 6720, Note_on_c, 0, 52, 0
3, 6720, Note_on_c, 0, 60, 0
3, 6720, Note_on_c, 0, 60, 26
3, 6720, Note_on_c, 0, 52, 21
3, 7200, Note_on_c, 0, 52, 0
3, 7200, Note_on_c, 0, 60, 0
3, 7200, Note_on_c, 0, 45, 36
3, 7680, Note_on_c, 0, 45, 0
3, 7680, Note_on_c, 0, 52, 21
3, 7680, Note_on_c, 0, 60, 25
3, 8160, Note_on_c, 0, 60, 0
3, 8160, Note_on_c, 0, 52, 0
3, 8160, Note_on_c, 0, 60, 26
3, 8160, Note_on_c, 0, 52, 21
3, 8640, Note_on_c, 0, 52, 0
3, 8640, Note_on_c, 0, 60, 0
3, 8640, Note_on_c, 0, 45, 36
3, 9120, Note_on_c, 0, 45, 0
3, 9120, Note_on_c, 0, 60, 29
3, 9120, Note_on_c, 0, 52, 24
3, 9600, Note_on_c, 0, 52, 0
3, 9600, Note_on_c, 0, 60, 0
3, 9600, Note_on_c, 0, 52, 24
3, 9600, Note_on_c, 0, 60, 29
3, 10080, Note_on_c, 0, 60, 0
3, 10080, Note_on_c, 0, 52, 0
3, 10080, Note_on_c, 0, 45, 36
3, 10560, Note_on_c, 0, 45, 0
3, 10560, Note_on_c, 0, 52, 24
3, 10560, Note_on_c, 0, 62, 28
3, 11040, Note_on_c, 0, 62, 0
3, 11040, Note_on_c, 0, 52, 0
3, 11040, Note_on_c, 0, 62, 29
3, 11040, Note_on_c, 0, 52, 24
3, 11520, Note_on_c, 0, 52, 0
3, 11520, Note_on_c, 0, 62, 0
3, 11520, Note_on_c, 0, 45, 36
3, 12000, Note_on_c, 0, 45, 0
3, 12000, Note_on_c, 0, 60, 26
3, 12000, Note_on_c, 0, 52, 21
3, 12480, Note_on_c, 0, 52, 0
3, 12480, Note_on_c, 0, 60, 0
3, 12480, Note_on_c, 0, 60, 26
3, 12480, Note_on_c, 0, 52, 21
3, 12960, Note_on_c, 0, 52, 0
3, 12960, Note_on_c, 0, 60, 0
3, 12960, Note_on_c, 0, 45, 36
3, 13440, Note_on_c, 0, 45, 0
3, 13440, Note_on_c, 0, 60, 25
3, 13440, Note_on_c, 0, 52, 21
3, 13920, Note_on_c, 0, 52, 0
3, 13920, Note_on_c, 0, 60, 0
3, 13920, Note_on_c, 0, 52, 21
3, 13920, Note_on_c, 0, 60, 26
3, 14400, Note_on_c, 0, 60, 0
3, 14400, Note_on_c, 0, 52, 0
3, 14400, Note_on_c, 0, 60, 28
3, 14400, Note_on_c, 0, 64, 33
3, 14641, Note_on_c, 0, 64, 0
3, 14641, Note_on_c, 0, 60, 0
3, 14880, Note_on_c, 0, 65, 36
3, 14880, Note_on_c, 0, 60, 30
3, 15121, Note_on_c, 0, 60, 0
3, 15121, Note_on_c, 0, 65, 0
3, 15360, Note_on_c, 0, 60, 33
3, 15360, Note_on_c, 0, 66, 39
3, 15601, Note_on_c, 0, 66, 0
3, 15601, Note_on_c, 0, 60, 0
3, 15840, Note_on_c, 0, 62, 38
3, 15840, Note_on_c, 0, 67, 45
3, 15840, Note_on_c, 0, 55, 38
3, 17280, Note_on_c, 0, 55, 0
3, 17280, Note_on_c, 0, 67, 0
3, 17280, Note_on_c, 0, 62, 0
3, 17280, Note_on_c, 0, 60, 33
3, 17280, Note_on_c, 0, 57, 28
3, 17522, Note_on_c, 0, 57, 0
3, 17522, Note_on_c, 0, 60, 0
3, 17760, Note_on_c, 0, 57, 30
3, 17760, Note_on_c, 0, 62, 36
3, 18002, Note_on_c, 0, 62, 0
3, 18002, Note_on_c, 0, 57, 0
3, 18240, Note_on_c, 0, 63, 39
3, 18240, Note_on_c, 0, 57, 33
3, 18482, Note_on_c, 0, 57, 0
3, 18482, Note_on_c, 0, 63, 0
3, 18720, Note_on_c, 0, 59, 38
3, 18720, Note_on_c, 0, 64, 45
3, 18720, Note_on_c, 0, 52, 38
3, 20160, Note_on_c, 0, 52, 0
3, 20160, Note_on_c, 0, 64, 0
3, 20160, Note_on_c, 0, 59, 0
3, 20160, Note_on_c, 0, 60, 45
3, 20160, Note_on_c, 0, 53, 38
3, 21600, Note_on_c, 0, 53, 0
3, 21600, Note_on_c, 0, 60, 0
3, 21600, Note_on_c, 0, 55, 41
3, 21600, Note_on_c, 0, 60, 49
3, 21607, Note_on_c, 0, 48, 41
3, 23040, Note_on_c, 0, 60, 0
3, 23040, Note_on_c, 0, 55, 0
3, 23040, Note_on_c, 0, 57, 52
3, 23040, Note_on_c, 0, 50, 44
3, 23047, Note_on_c, 0, 48, 0
3, 23520, Note_on_c, 0, 50, 0
3, 23520, Note_on_c, 0, 57, 0
3, 23520, Note_on_c, 0, 52, 42
3, 23520, Note_on_c, 0, 57, 50
3, 23640, Note_on_c, 0, 57, 0
3, 23640, Note_on_c, 0, 52, 0
3, 23760, Note_on_c, 0, 57, 48
3, 23760, Note_on_c, 0, 53, 40
3, 23880, Note_on_c, 0, 53, 0
3, 23880, Note_on_c, 0, 57, 0
3, 24000, Note_on_c, 0, 50, 48
3, 24000, Note_on_c, 0, 57, 57
3, 24180, Note_on_c, 0, 57, 0
3, 24180, Note_on_c, 0, 50, 0
3, 24480, Note_on_c, 0, 57, 42
3, 24480, Note_on_c, 0, 53, 35
3, 24660, Note_on_c, 0, 53, 0
3, 24660, Note_on_c, 0, 57, 0
3, 24960, Note_on_c, 0, 52, 35
3, 24960, Note_on_c, 0, 56, 42
3, 25920, Note_on_c, 0, 56, 0
3, 25920, Note_on_c, 0, 52, 0
3, 25920, Note_on_c, 0, 45, 36
3, 26400, Note_on_c, 0, 45, 0
3, 26400, Note_on_c, 0, 60, 28
3, 26400, Note_on_c, 0, 52, 24
3, 26880, Note_on_c, 0, 52, 0
3, 26880, Note_on_c, 0, 60, 0
3, 26880, Note_on_c, 0, 60, 29
3, 26880, Note_on_c, 0, 52, 24
3, 27360, Note_on_c, 0, 52, 0
3, 27360, Note_on_c, 0, 60, 0
3, 27360, Note_on_c, 0, 45, 36
3, 27840, Note_on_c, 0, 45, 0
3, 27840, Note_on_c, 0, 52, 24
3, 27840, Note_on_c, 0, 60, 28
3, 28320, Note_on_c, 0, 60, 0
3, 28320, Note_on_c, 0, 52, 0
3, 28320, Note_on_c, 0, 52, 24
3, 28320, Note_on_c, 0, 60, 29
3, 28800, Note_on_c, 0, 60, 0
3, 28800, Note_on_c, 0, 52, 0
3, 28800, Note_on_c, 0, 45, 36
3, 29280, Note_on_c, 0, 45, 0
3, 29280, Note_on_c, 0, 52, 24
3, 29280, Note_on_c, 0, 60, 29
3, 29760, Note_on_c, 0, 60, 0
3, 29760, Note_on_c, 0, 52, 0
3, 29760, Note_on_c, 0, 52, 24
3, 29760, Note_on_c, 0, 60, 29
3, 30240, Note_on_c, 0, 60, 0
3, 30240, Note_on_c, 0, 52, 0
3, 30240, Note_on_c, 0, 45, 36
3, 30720, Note_on_c, 0, 45, 0
3, 30720, Note_on_c, 0, 52, 24
3, 30720, Note_on_c, 0, 62, 28
3, 31200, Note_on_c, 0, 62, 0
3, 31200, Note_on_c, 0, 52, 0
3, 31200, Note_on_c, 0, 52, 24
3, 31200, Note_on_c, 0, 62, 29
3, 31680, Note_on_c, 0, 62, 0
3, 31680, Note_on_c, 0, 52, 0
3, 31680, Note_on_c, 0, 45, 36
3, 32160, Note_on_c, 0, 45, 0
3, 32160, Note_on_c, 0, 60, 26
3, 32160, Note_on_c, 0, 52, 21
3, 32640, Note_on_c, 0, 52, 0
3, 32640, Note_on_c, 0, 60, 0
3, 32640, Note_on_c, 0, 52, 21
3, 32640, Note_on_c, 0, 60, 26
3, 33120, Note_on_c, 0, 60, 0
3, 33120, Note_on_c, 0, 52, 0
3, 33120, Note_on_c, 0, 45, 36
3, 33600, Note_on_c, 0, 45, 0
3, 33600, Note_on_c, 0, 60, 25
3, 33600, Note_on_c, 0, 52, 21
3, 34080, Note_on_c, 0, 52, 0
3, 34080, Note_on_c, 0, 60, 0
3, 34080, Note_on_c, 0, 60, 26
3, 34080, Note_on_c, 0, 52, 21
3, 34560, Note_on_c, 0, 52, 0
3, 34560, Note_on_c, 0, 60, 0
3, 34560, Note_on_c, 0, 45, 36
3, 35040, Note_on_c, 0, 45, 0
3, 35040, Note_on_c, 0, 52, 24
3, 35040, Note_on_c, 0, 60, 29
3, 35520, Note_on_c, 0, 60, 0
3, 35520, Note_on_c, 0, 52, 0
3, 35520, Note_on_c, 0, 52, 24
3, 35520, Note_on_c, 0, 60, 29
3, 36000, Note_on_c, 0, 60, 0
3, 36000, Note_on_c, 0, 52, 0
3, 36000, Note_on_c, 0, 45, 36
3, 36480, Note_on_c, 0, 45, 0
3, 36480, Note_on_c, 0, 52, 24
3, 36480, Note_on_c, 0, 62, 28
3, 36960, Note_on_c, 0, 62, 0
3, 36960, Note_on_c, 0, 52, 0
3, 36960, Note_on_c, 0, 52, 24
3, 36960, Note_on_c, 0, 62, 29
3, 37440, Note_on_c, 0, 62, 0
3, 37440, Note_on_c, 0, 52, 0
3, 37440, Note_on_c, 0, 45, 36
3, 37920, Note_on_c, 0, 45, 0
3, 37920, Note_on_c, 0, 52, 21
3, 37920, Note_on_c, 0, 60, 26
3, 38400, Note_on_c, 0, 60, 0
3, 38400, Note_on_c, 0, 52, 0
3, 38400, Note_on_c, 0, 60, 26
3, 38400, Note_on_c, 0, 52, 21
3, 38880, Note_on_c, 0, 52, 0
3, 38880, Note_on_c, 0, 60, 0
3, 38880, Note_on_c, 0, 45, 36
3, 39360, Note_on_c, 0, 45, 0
3, 39360, Note_on_c, 0, 60, 25
3, 39360, Note_on_c, 0, 52, 21
3, 39840, Note_on_c, 0, 52, 0
3, 39840, Note_on_c, 0, 60, 0
3, 39840, Note_on_c, 0, 60, 26
3, 39840, Note_on_c, 0, 52, 21
3, 40320, Note_on_c, 0, 52, 0
3, 40320, Note_on_c, 0, 60, 0
3, 40320, Note_on_c, 0, 60, 28
3, 40320, Note_on_c, 0, 64, 33
3, 40562, Note_on_c, 0, 64, 0
3, 40562, Note_on_c, 0, 60, 0
3, 40800, Note_on_c, 0, 65, 36
3, 40800, Note_on_c, 0, 60, 30
3, 41042, Note_on_c, 0, 60, 0
3, 41042, Note_on_c, 0, 65, 0
3, 41280, Note_on_c, 0, 66, 39
3, 41280, Note_on_c, 0, 60, 33
3, 41522, Note_on_c, 0, 60, 0
3, 41522, Note_on_c, 0, 66, 0
3, 41760, Note_on_c, 0, 55, 38
3, 41760, Note_on_c, 0, 67, 45
3, 41760, Note_on_c, 0, 62, 38
3, 43200, Note_on_c, 0, 62, 0
3, 43200, Note_on_c, 0, 67, 0
3, 43200, Note_on_c, 0, 55, 0
3, 43200, Note_on_c, 0, 60, 33
3, 43200, Note_on_c, 0, 57, 28
3, 43442, Note_on_c, 0, 57, 0
3, 43442, Note_on_c, 0, 60, 0
3, 43680, Note_on_c, 0, 62, 36
3, 43680, Note_on_c, 0, 57, 30
3, 43922, Note_on_c, 0, 57, 0
3, 43922, Note_on_c, 0, 62, 0
3, 44160, Note_on_c, 0, 63, 39
3, 44160, Note_on_c, 0, 57, 33
3, 44402, Note_on_c, 0, 57, 0
3, 44402, Note_on_c, 0, 63, 0
3, 44640, Note_on_c, 0, 52, 38
3, 44640, Note_on_c, 0, 64, 45
3, 44640, Note_on_c, 0, 59, 38
3, 46080, Note_on_c, 0, 59, 0
3, 46080, Note_on_c, 0, 64, 0
3, 46080, Note_on_c, 0, 52, 0
3, 46080, Note_on_c, 0, 53, 38
3, 46080, Note_on_c, 0, 60, 45
3, 47520, Note_on_c, 0, 60, 0
3, 47520, Note_on_c, 0, 53, 0
3, 47520, Note_on_c, 0, 60, 49
3, 47520, Note_on_c, 0, 55, 41
3, 47527, Note_on_c, 0, 48, 41
3, 48960, Note_on_c, 0, 55, 0
3, 48960, Note_on_c, 0, 60, 0
3, 48960, Note_on_c, 0, 50, 44
3, 48960, Note_on_c, 0, 57, 52
3, 48967, Note_on_c, 0, 48, 0
3, 49440, Note_on_c, 0, 57, 0
3, 49440, Note_on_c, 0, 50, 0
3, 49440, Note_on_c, 0, 57, 50
3, 49440, Note_on_c, 0, 52, 42
3, 49560, Note_on_c, 0, 52, 0
3, 49560, Note_on_c, 0, 57, 0
3, 49680, Note_on_c, 0, 53, 40
3, 49680, Note_on_c, 0, 57, 48
3, 49800, Note_on_c, 0, 57, 0
3, 49800, Note_on_c, 0, 53, 0
3, 49920, Note_on_c, 0, 50, 48
3, 49920, Note_on_c, 0, 57, 57
3, 50100, Note_on_c, 0, 57, 0
3, 50100, Note_on_c, 0, 50, 0
3, 50400, Note_on_c, 0, 53, 35
3, 50400, Note_on_c, 0, 57, 42
3, 50580, Note_on_c, 0, 57, 0
3, 50580, Note_on_c, 0, 53, 0
3, 50880, Note_on_c, 0, 52, 35
3, 50880, Note_on_c, 0, 56, 42
3, 51840, Note_on_c, 0, 56, 0
3, 51840, Note_on_c, 0, 52, 0
3, 51840, Note_on_c, 0, 69, 52
3, 52800, Note_on_c, 0, 69, 0
3, 52800, Note_on_c, 0, 71, 54
3, 53040, Note_on_c, 0, 71, 0
3, 53040, Note_on_c, 0, 68, 50
3, 53220, Note_on_c, 0, 68, 0
3, 53220, Note_on_c, 0, 69, 39
3, 53280, Note_on_c, 0, 69, 0
3, 53280, Note_on_c, 0, 66, 50
3, 53520, Note_on_c, 0, 66, 0
3, 53520, Note_on_c, 0, 64, 50
3, 53640, Note_on_c, 0, 64, 0
3, 53760, Note_on_c, 0, 64, 47
3, 54720, Note_on_c, 0, 64, 0
3, 54720, Note_on_c, 0, 69, 52
3, 55200, Note_on_c, 0, 69, 0
3, 55200, Note_on_c, 0, 71, 54
3, 55440, Note_on_c, 0, 71, 0
3, 55440, Note_on_c, 0, 73, 54
3, 55680, Note_on_c, 0, 73, 0
3, 55680, Note_on_c, 0, 69, 54
3, 55920, Note_on_c, 0, 69, 0
3, 55920, Note_on_c, 0, 66, 50
3, 56100, Note_on_c, 0, 66, 0
3, 56100, Note_on_c, 0, 68, 39
3, 56160, Note_on_c, 0, 68, 0
3, 56160, Note_on_c, 0, 66, 50
3, 56400, Note_on_c, 0, 66, 0
3, 56400, Note_on_c, 0, 64, 50
3, 56520, Note_on_c, 0, 64, 0
3, 56640, Note_on_c, 0, 64, 47
3, 57600, Note_on_c, 0, 64, 0
3, 57600, Note_on_c, 0, 69, 52
3, 58560, Note_on_c, 0, 69, 0
3, 58560, Note_on_c, 0, 64, 54
3, 58800, Note_on_c, 0, 64, 0
3, 58800, Note_on_c, 0, 66, 50
3, 59040, Note_on_c, 0, 66, 0
3, 59040, Note_on_c, 0, 66, 54
3, 59280, Note_on_c, 0, 66, 0
3, 59280, Note_on_c, 0, 68, 50
3, 59520, Note_on_c, 0, 68, 0
3, 59520, Note_on_c, 0, 68, 52
3, 60480, Note_on_c, 0, 68, 0
3, 60480, Note_on_c, 0, 68, 54
3, 60720, Note_on_c, 0, 68, 0
3, 60720, Note_on_c, 0, 71, 57
3, 60960, Note_on_c, 0, 71, 0
3, 60960, Note_on_c, 0, 71, 61
3, 61200, Note_on_c, 0, 71, 0
3, 61200, Note_on_c, 0, 69, 54
3, 61440, Note_on_c, 0, 69, 0
3, 61440, Note_on_c, 0, 64, 61
3, 61680, Note_on_c, 0, 64, 0
3, 61680, Note_on_c, 0, 66, 56
3, 61920, Note_on_c, 0, 66, 0
3, 61920, Note_on_c, 0, 66, 57
3, 62160, Note_on_c, 0, 66, 0
3, 62160, Note_on_c, 0, 68, 45
3, 62400, Note_on_c, 0, 68, 0
3, 62400, Note_on_c, 0, 68, 51
3, 63360, Note_on_c, 0, 68, 0
3, 63360, Note_on_c, 0, 69, 52
3, 64320, Note_on_c, 0, 69, 0
3, 64320, Note_on_c, 0, 71, 54
3, 64560, Note_on_c, 0, 71, 0
3, 64560, Note_on_c, 0, 68, 50
3, 64740, Note_on_c, 0, 68, 0
3, 64740, Note_on_c, 0, 69, 39
3, 64800, Note_on_c, 0, 69, 0
3, 64800, Note_on_c, 0, 66, 50
3, 65040, Note_on_c, 0, 66, 0
3, 65040, Note_on_c, 0, 64, 50
3, 65160, Note_on_c, 0, 64, 0
3, 65280, Note_on_c, 0, 64, 47
3, 66240, Note_on_c, 0, 64, 0
3, 66240, Note_on_c, 0, 69, 52
3, 66720, Note_on_c, 0, 69, 0
3, 66720, Note_on_c, 0, 71, 54
3, 66960, Note_on_c, 0, 71, 0
3, 66960, Note_on_c, 0, 73, 54
3, 67200, Note_on_c, 0, 73, 0
3, 67200, Note_on_c, 0, 69, 54
3, 67440, Note_on_c, 0, 69, 0
3, 67440, Note_on_c, 0, 66, 50
3, 67620, Note_on_c, 0, 66, 0
3, 67620, Note_on_c, 0, 68, 39
3, 67680, Note_on_c, 0, 68, 0
3, 67680, Note_on_c, 0, 66, 50
3, 67920, Note_on_c, 0, 66, 0
3, 67920, Note_on_c, 0, 64, 50
3, 68040, Note_on_c, 0, 64, 0
3, 68160, Note_on_c, 0, 64, 47
3, 69120, Note_on_c, 0, 64, 0
3, 69120, Note_on_c, 0, 69, 52
3, 70080, Note_on_c, 0, 69, 0
3, 70080, Note_on_c, 0, 64, 54
3, 70320, Note_on_c, 0, 64, 0
3, 70320, Note_on_c, 0, 66, 50
3, 70560, Note_on_c, 0, 66, 0
3, 70560, Note_on_c, 0, 66, 59
3, 70800, Note_on_c, 0, 66, 0
3, 70800, Note_on_c, 0, 67, 48
3, 70920, Note_on_c, 0, 67, 0
3, 71040, Note_on_c, 0, 67, 57
3, 72000, Note_on_c, 0, 67, 0
3, 72000, Note_on_c, 0, 67, 64
3, 72240, Note_on_c, 0, 67, 0
3, 72240, Note_on_c, 0, 68, 53
3, 72360, Note_on_c, 0, 68, 0
3, 72480, Note_on_c, 0, 68, 62
3, 73440, Note_on_c, 0, 68, 0
3, 73440, Note_on_c, 0, 68, 70
3, 73680, Note_on_c, 0, 68, 0
3, 73680, Note_on_c, 0, 69, 60
3, 73800, Note_on_c, 0, 69, 0
3, 73920, Note_on_c, 0, 69, 68
3, 74880, Note_on_c, 0, 69, 0
3, 74880, Note_on_c, 0, 45, 32
3, 75360, Note_on_c, 0, 45, 0
3, 75360, Note_on_c, 0, 52, 21
3, 75360, Note_on_c, 0, 60, 25
3, 75840, Note_on_c, 0, 60, 0
3, 75840, Note_on_c, 0, 52, 0
3, 75840, Note_on_c, 0, 60, 26
3, 75840, Note_on_c, 0, 52, 21
3, 76320, Note_on_c, 0, 52, 0
3, 76320, Note_on_c, 0, 60, 0
3, 76320, Note_on_c, 0, 45, 32
3, 76800, Note_on_c, 0, 45, 0
3, 76800, Note_on_c, 0, 52, 21
3, 76800, Note_on_c, 0, 60, 25
3, 77280, Note_on_c, 0, 60, 0
3, 77280, Note_on_c, 0, 52, 0
3, 77280, Note_on_c, 0, 60, 26
3, 77280, Note_on_c, 0, 52, 21
3, 77760, Note_on_c, 0, 52, 0
3, 77760, Note_on_c, 0, 60, 0
3, 77760, Note_on_c, 0, 45, 32
3, 78240, Note_on_c, 0, 45, 0
3, 78240, Note_on_c, 0, 60, 26
3, 78240, Note_on_c, 0, 52, 21
3, 78720, Note_on_c, 0, 52, 0
3, 78720, Note_on_c, 0, 60, 0
3, 78720, Note_on_c, 0, 52, 21
3, 78720, Note_on_c, 0, 60, 26
3, 79200, Note_on_c, 0, 60, 0
3, 79200, Note_on_c, 0, 52, 0
3, 79200, Note_on_c, 0, 45, 32
3, 79680, Note_on_c, 0, 45, 0
3, 79680, Note_on_c, 0, 52, 21
3, 79680, Note_on_c, 0, 62, 25
3, 80160, Note_on_c, 0, 62, 0
3, 80160, Note_on_c, 0, 52, 0
3, 80160, Note_on_c, 0, 62, 26
3, 80160, Note_on_c, 0, 52, 21
3, 80640, Note_on_c, 0, 52, 0
3, 80640, Note_on_c, 0, 62, 0
3, 80640, Note_on_c, 0, 45, 32
3, 81120, Note_on_c, 0, 45, 0
3, 81120, Note_on_c, 0, 52, 19
3, 81120, Note_on_c, 0, 60, 23
3, 81600, Note_on_c, 0, 60, 0
3, 81600, Note_on_c, 0, 52, 0
3, 81600, Note_on_c, 0, 60, 23
3, 81600, Note_on_c, 0, 52, 19
3, 82080, Note_on_c, 0, 52, 0
3, 82080, Note_on_c, 0, 60, 0
3, 82080, Note_on_c, 0, 45, 32
3, 82560, Note_on_c, 0, 45, 0
3, 82560, Note_on_c, 0, 52, 19
3, 82560, Note_on_c, 0, 60, 22
3, 83040, Note_on_c, 0, 60, 0
3, 83040, Note_on_c, 0, 52, 0
3, 83040, Note_on_c, 0, 60, 23
3, 83040, Note_on_c, 0, 52, 19
3, 83520, Note_on_c, 0, 52, 0
3, 83520, Note_on_c, 0, 60, 0
3, 83520, Note_on_c, 0, 45, 32
3, 84000, Note_on_c, 0, 45, 0
3, 84000, Note_on_c, 0, 60, 26
3, 84000, Note_on_c, 0, 52, 21
3, 84480, Note_on_c, 0, 52, 0
3, 84480, Note_on_c, 0, 60, 0
3, 84480, Note_on_c, 0, 52, 21
3, 84480, Note_on_c, 0, 60, 26
3, 84960, Note_on_c, 0, 60, 0
3, 84960, Note_on_c, 0, 52, 0
3, 84960, Note_on_c, 0, 45, 32
3, 85440, Note_on_c, 0, 45, 0
3, 85440, Note_on_c, 0, 62, 25
3, 85440, Note_on_c, 0, 52, 21
3, 85920, Note_on_c, 0, 52, 0
3, 85920, Note_on_c, 0, 62, 0
3, 85920, Note_on_c, 0, 62, 26
3, 85920, Note_on_c, 0, 52, 21
3, 86400, Note_on_c, 0, 52, 0
3, 86400, Note_on_c, 0, 62, 0
3, 86400, Note_on_c, 0, 45, 32
3, 86880, Note_on_c, 0, 45, 0
3, 86880, Note_on_c, 0, 52, 19
3, 86880, Note_on_c, 0, 60, 23
3, 87360, Note_on_c, 0, 60, 0
3, 87360, Note_on_c, 0, 52, 0
3, 87360, Note_on_c, 0, 52, 19
3, 87360, Note_on_c, 0, 60, 23
3, 87840, Note_on_c, 0, 60, 0
3, 87840, Note_on_c, 0, 52, 0
3, 87840, Note_on_c, 0, 45, 32
3, 88320, Note_on_c, 0, 45, 0
3, 88320, Note_on_c, 0, 52, 19
3, 88320, Note_on_c, 0, 60, 22
3, 88800, Note_on_c, 0, 60, 0
3, 88800, Note_on_c, 0, 52, 0
3, 88800, Note_on_c, 0, 60, 23
3, 88800, Note_on_c, 0, 52, 19
3, 89280, Note_on_c, 0, 52, 0
3, 89280, Note_on_c, 0, 60, 0
3, 89280, Note_on_c, 0, 64, 33
3, 89280, Note_on_c, 0, 60, 28
3, 89522, Note_on_c, 0, 60, 0
3, 89522, Note_on_c, 0, 64, 0
3, 89760, Note_on_c, 0, 65, 36
3, 89760, Note_on_c, 0, 60, 30
3, 90002, Note_on_c, 0, 60, 0
3, 90002, Note_on_c, 0, 65, 0
3, 90240, Note_on_c, 0, 60, 33
3, 90240, Note_on_c, 0, 66, 39
3, 90482, Note_on_c, 0, 66, 0
3, 90482, Note_on_c, 0, 60, 0
3, 90720, Note_on_c, 0, 62, 38
3, 90720, Note_on_c, 0, 67, 45
3, 90720, Note_on_c, 0, 55, 38
3, 92160, Note_on_c, 0, 55, 0
3, 92160, Note_on_c, 0, 67, 0
3, 92160, Note_on_c, 0, 62, 0
3, 92160, Note_on_c, 0, 57, 28
3, 92160, Note_on_c, 0, 60, 33
3, 92402, Note_on_c, 0, 60, 0
3, 92402, Note_on_c, 0, 57, 0
3, 92640, Note_on_c, 0, 57, 30
3, 92640, Note_on_c, 0, 62, 36
3, 92882, Note_on_c, 0, 62, 0
3, 92882, Note_on_c, 0, 57, 0
3, 93120, Note_on_c, 0, 63, 39
3, 93120, Note_on_c, 0, 57, 33
3, 93362, Note_on_c, 0, 57, 0
3, 93362, Note_on_c, 0, 63, 0
3, 93600, Note_on_c, 0, 52, 38
3, 93600, Note_on_c, 0, 64, 45
3, 93600, Note_on_c, 0, 59, 38
3, 95040, Note_on_c, 0, 59, 0
3, 95040, Note_on_c, 0, 64, 0
3, 95040, Note_on_c, 0, 52, 0
3, 95040, Note_on_c, 0, 53, 38
3, 95040, Note_on_c, 0, 60, 45
3, 96480, Note_on_c, 0, 60, 0
3, 96480, Note_on_c, 0, 53, 0
3, 96480, Note_on_c, 0, 55, 41
3, 96480, Note_on_c, 0, 60, 49
3, 96487, Note_on_c, 0, 48, 41
3, 97920, Note_on_c, 0, 60, 0
3, 97920, Note_on_c, 0, 55, 0
3, 97920, Note_on_c, 0, 57, 52
3, 97920, Note_on_c, 0, 50, 44
3, 97927, Note_on_c, 0, 48, 0
3, 98400, Note_on_c, 0, 50, 0
3, 98400, Note_on_c, 0, 57, 0
3, 98400, Note_on_c, 0, 57, 50
3, 98400, Note_on_c, 0, 52, 42
3, 98520, Note_on_c, 0, 52, 0
3, 98520, Note_on_c, 0, 57, 0
3, 98640, Note_on_c, 0, 57, 48
3, 98640, Note_on_c, 0, 53, 40
3, 98760, Note_on_c, 0, 53, 0
3, 98760, Note_on_c, 0, 57, 0
3, 98880, Note_on_c, 0, 50, 48
3, 98880, Note_on_c, 0, 57, 57
3, 99060, Note_on_c, 0, 57, 0
3, 99060, Note_on_c, 0, 50, 0
3, 99360, Note_on_c, 0, 57, 42
3, 99360, Note_on_c, 0, 53, 35
3, 99540, Note_on_c, 0, 53, 0
3, 99540, Note_on_c, 0, 57, 0
3, 99840, Note_on_c, 0, 56, 42
3, 99840, Note_on_c, 0, 52, 35
3, 100800, Note_on_c, 0, 52, 0
3, 100800, Note_on_c, 0, 56, 0
3, 100800, Note_on_c, 0, 52, 31
3, 100800, Note_on_c, 0, 45, 27
3, 103680, Note_on_c, 0, 45, 0
3, 103680, Note_on_c, 0, 52, 0
3, 103680, Note_on_c, 0, 52, 31
3, 103680, Note_on_c, 0, 45, 27
3, 106560, Note_on_c, 0, 45, 0
3, 106560, Note_on_c, 0, 52, 0
3, 106560, Note_on_c, 0, 52, 31
3, 106560, Note_on_c, 0, 45, 27
3, 108480, Note_on_c, 0, 45, 0
3, 108480, Note_on_c, 0, 52, 0
3, 109440, Note_on_c, 0, 52, 27
3, 109440, Note_on_c, 0, 45, 24
3, 112320, Note_on_c, 0, 45, 0
3, 112320, Note_on_c, 0, 52, 0
3, 112320, Note_on_c, 0, 33, 24
3, 112800, Note_on_c, 0, 33, 0
3, 112800, End_track
4, 0, Start_track
4, 0, Title_t, "Pedale"
4, 0, Program_c, 0, 0
4, 0, Control_c, 0, 64, 127
4, 2880, Control_c, 0, 64, 0
4, 2983, Control_c, 0, 64, 127
4, 3526, Control_c, 0, 64, 0
4, 4384, Control_c, 0, 64, 127
4, 4932, Control_c, 0, 64, 0
4, 6332, Control_c, 0, 64, 127
4, 8640, Control_c, 0, 64, 0
4, 8743, Control_c, 0, 64, 127
4, 9240, Control_c, 0, 64, 0
4, 10144, Control_c, 0, 64, 127
4, 10677, Control_c, 0, 64, 0
4, 12217, Control_c, 0, 64, 127
4, 14347, Control_c, 0, 64, 0
4, 15967, Control_c, 0, 64, 127
4, 16333, Control_c, 0, 64, 0
4, 16546, Control_c, 0, 64, 127
4, 17287, Control_c, 0, 64, 0
4, 18819, Control_c, 0, 64, 127
4, 19213, Control_c, 0, 64, 0
4, 19426, Control_c, 0, 64, 127
4, 20160, Control_c, 0, 64, 0
4, 20224, Control_c, 0, 64, 127
4, 20653, Control_c, 0, 64, 0
4, 20866, Control_c, 0, 64, 127
4, 21600, Control_c, 0, 64, 0
4, 21664, Control_c, 0, 64, 127
4, 22093, Control_c, 0, 64, 0
4, 22306, Control_c, 0, 64, 127
4, 23040, Control_c, 0, 64, 0
4, 25200, Control_c, 0, 64, 127
4, 25920, Control_c, 0, 64, 0
4, 26267, Control_c, 0, 64, 127
4, 28805, Control_c, 0, 64, 0
4, 28903, Control_c, 0, 64, 127
4, 29412, Control_c, 0, 64, 0
4, 30304, Control_c, 0, 64, 127
4, 30860, Control_c, 0, 64, 0
4, 32366, Control_c, 0, 64, 127
4, 34560, Control_c, 0, 64, 0
4, 34663, Control_c, 0, 64, 127
4, 35175, Control_c, 0, 64, 0
4, 36064, Control_c, 0, 64, 127
4, 36623, Control_c, 0, 64, 0
4, 38012, Control_c, 0, 64, 127
4, 40267, Control_c, 0, 64, 0
4, 41873, Control_c, 0, 64, 127
4, 42253, Control_c, 0, 64, 0
4, 42466, Control_c, 0, 64, 127
4, 43200, Control_c, 0, 64, 0
4, 44774, Control_c, 0, 64, 127
4, 45133, Control_c, 0, 64, 0
4, 45346, Control_c, 0, 64, 127
4, 46080, Control_c, 0, 64, 0
4, 46144, Control_c, 0, 64, 127
4, 46573, Control_c, 0, 64, 0
4, 46786, Control_c, 0, 64, 127
4, 47520, Control_c, 0, 64, 0
4, 47584, Control_c, 0, 64, 127
4, 48013, Control_c, 0, 64, 0
4, 48226, Control_c, 0, 64, 127
4, 48960, Control_c, 0, 64, 0
4, 51921, Control_c, 0, 64, 127
4, 52814, Control_c, 0, 64, 0
4, 52885, Control_c, 0, 64, 127
4, 53287, Control_c, 0, 64, 0
4, 53852, Control_c, 0, 64, 127
4, 54720, Control_c, 0, 64, 0
4, 54960, Control_c, 0, 64, 127
4, 55694, Control_c, 0, 64, 0
4, 55765, Control_c, 0, 64, 127
4, 56167, Control_c, 0, 64, 0
4, 56732, Control_c, 0, 64, 127
4, 57600, Control_c, 0, 64, 0
4, 57784, Control_c, 0, 64, 127
4, 58574, Control_c, 0, 64, 0
4, 58730, Control_c, 0, 64, 127
4, 59061, Control_c, 0, 64, 0
4, 59153, Control_c, 0, 64, 127
4, 59533, Control_c, 0, 64, 0
4, 59704, Control_c, 0, 64, 127
4, 60494, Control_c, 0, 64, 0
4, 61941, Control_c, 0, 64, 0
4, 62076, Control_c, 0, 64, 127
4, 62413, Control_c, 0, 64, 0
4, 62640, Control_c, 0, 64, 127
4, 63385, Control_c, 0, 64, 0
4, 63494, Control_c, 0, 64, 127
4, 64334, Control_c, 0, 64, 0
4, 64405, Control_c, 0, 64, 127
4, 64807, Control_c, 0, 64, 0
4, 65372, Control_c, 0, 64, 127
4, 66240, Control_c, 0, 64, 0
4, 66480, Control_c, 0, 64, 127
4, 67214, Control_c, 0, 64, 0
4, 67285, Control_c, 0, 64, 127
4, 67687, Control_c, 0, 64, 0
4, 68252, Control_c, 0, 64, 127
4, 69120, Control_c, 0, 64, 0
4, 69304, Control_c, 0, 64, 127
4, 70094, Control_c, 0, 64, 0
4, 70221, Control_c, 0, 64, 127
4, 70581, Control_c, 0, 64, 0
4, 71157, Control_c, 0, 64, 127
4, 72021, Control_c, 0, 64, 0
4, 72597, Control_c, 0, 64, 127
4, 73461, Control_c, 0, 64, 0
4, 74037, Control_c, 0, 64, 127
4, 74753, Control_c, 0, 64, 0
4, 75360, Control_c, 0, 64, 127
4, 77760, Control_c, 0, 64, 0
4, 77863, Control_c, 0, 64, 127
4, 78363, Control_c, 0, 64, 0
4, 79264, Control_c, 0, 64, 127
4, 79809, Control_c, 0, 64, 0
4, 81212, Control_c, 0, 64, 127
4, 83520, Control_c, 0, 64, 0
4, 83623, Control_c, 0, 64, 127
4, 84120, Control_c, 0, 64, 0
4, 85024, Control_c, 0, 64, 127
4, 85555, Control_c, 0, 64, 0
4, 86972, Control_c, 0, 64, 127
4, 89227, Control_c, 0, 64, 0
4, 90784, Control_c, 0, 64, 127
4, 91213, Control_c, 0, 64, 0
4, 91426, Control_c, 0, 64, 127
4, 92160, Control_c, 0, 64, 0
4, 93713, Control_c, 0, 64, 127
4, 94093, Control_c, 0, 64, 0
4, 94306, Control_c, 0, 64, 127
4, 95040, Control_c, 0, 64, 0
4, 95139, Control_c, 0, 64, 127
4, 95533, Control_c, 0, 64, 0
4, 95746, Control_c, 0, 64, 127
4, 96480, Control_c, 0, 64, 0
4, 96586, Control_c, 0, 64, 127
4, 96973, Control_c, 0, 64, 0
4, 97186, Control_c, 0, 64, 127
4, 97920, Control_c, 0, 64, 0
4, 100080, Control_c, 0, 64, 127
4, 100854, Control_c, 0, 64, 0
4, 100913, Control_c, 0, 64, 127
4, 101772, Control_c, 0, 64, 0
4, 101845, Control_c, 0, 64, 127
4, 102254, Control_c, 0, 64, 0
4, 102360, Control_c, 0, 64, 127
4, 103698, Control_c, 0, 64, 0
4, 103860, Control_c, 0, 64, 127
4, 104668, Control_c, 0, 64, 0
4, 104750, Control_c, 0, 64, 127
4, 105120, Control_c, 0, 64, 0
4, 105206, Control_c, 0, 64, 127
4, 106730, Control_c, 0, 64, 0
4, 107147, Control_c, 0, 64, 127
4, 108454, Control_c, 0, 64, 0
4, 109610, Control_c, 0, 64, 0
4, 110027, Control_c, 0, 64, 127
4, 113337, Control_c, 0, 64, 0
4, 113337, End_track
5, 0, Start_track
5, 0, Title_t, "Grieg: Lyric Pieces Op. 12 No. 2 Valse"
5, 0, End_track
6, 0, Start_track
6, 0, Title_t, "Copyright © 2007 by Bernd Krueger"
6, 0, End_track
7, 0, Start_track
7, 0, Title_t, "http://www.piano-midi.de/"
7, 0, End_track
8, 0, Start_track
8, 0, Title_t, "Edition: 2012-10-27"
8, 0, End_track
9, 0, Start_track
9, 0, Title_t, "Spur 8"
9, 0, End_track
10, 0, Start_track
10, 0, Title_t, "Spur 9"
10, 0, End_track
11, 0, Start_track
11, 0, Title_t, "Spur 10"
11, 0, End_track
12, 0, Start_track
12, 0, Title_t, "Spur 11"
12, 0, End_track
13, 0, Start_track
13, 0, Title_t, "Spur 12"
13, 0, End_track
14, 0, Start_track
14, 0, Title_t, "Spur 13"
14, 0, End_track
15, 0, Start_track
15, 0, Title_t, "Spur 14"
15, 0, End_track
16, 0, Start_track
16, 0, Title_t, "Spur 15"
16, 0, End_track
17, 0, Start_track
17, 0, Title_t, "Spur 16"
17, 0, End_track
0, 0, End_of_file
