0, 0, Header, 1, 7, 480
1, 0, Start_track
1, 0, Title_t, "Kobold Op 71, No. 3"
1, 0, Copyright_t, "Copyright © 1998 von Bernd Krüger. http://www.piano-midi.de"
1, 0, Text_t, "Edvard Grieg"
1, 0, Text_t, "Allegro molto"
1, 0, Text_t, "Fertiggestellt am 23.3.98\012"
1, 0, Text_t, "Korrekturen am 5.9.98\012"
1, 0, Text_t, "Anpassungen an Digitalpiano am 28.12.98\012"
1, 0, Text_t, "Update am 19.8.99\012"
1, 0, Text_t, "Normierung: 23.12.2002\012"
1, 0, Text_t, "Anpassungen am 26.4.2007\012"
1, 0, Text_t, "Update am 19.11.2012\012"
1, 0, Text_t, "Dauer: 1:24 Minuten.\012"
1, 0, Text_t, "Das hohe Tempo erfordert bis zu 400 Schlägen (Viertel) pro Minute - Midi ist aber auf 250 beschränkt. Daher habe ich die Notation ""halbiert"", also Achtel statt Viertel, Sechzehntel statt Achtel usw. geschrieben und gleichzeitig den ursprünglichen Takt vo\012"
1, 0, Time_signature, 2, 2, 24, 8
1, 0, Key_signature, -6, "major"
1, 0, Tempo, 310881
1, 0, Marker_t, "Allegro molto"
1, 960, Tempo, 306905
1, 1680, Tempo, 312500
1, 1900, Tempo, 306905
1, 1920, Tempo, 310078
1, 2400, Tempo, 304569
1, 2640, Tempo, 313316
1, 2880, Tempo, 310078
1, 3360, Tempo, 317460
1, 3600, Tempo, 312500
1, 3840, Tempo, 309278
1, 4320, Tempo, 316623
1, 4560, Tempo, 311688
1, 4800, Tempo, 306122
1, 5520, Tempo, 314961
1, 5740, Tempo, 303797
1, 5760, Tempo, 310078
1, 6240, Tempo, 305344
1, 6480, Tempo, 314136
1, 6720, Tempo, 310881
1, 7200, Tempo, 319149
1, 7440, Tempo, 313316
1, 7680, Tempo, 310078
1, 8160, Tempo, 317460
1, 8400, Tempo, 312500
1, 8640, Tempo, 303797
1, 9120, Tempo, 309278
1, 9360, Tempo, 316623
1, 9600, Tempo, 306122
1, 10080, Tempo, 316623
1, 10320, Tempo, 315789
1, 10560, Tempo, 306905
1, 11040, Tempo, 315789
1, 11280, Tempo, 314136
1, 11520, Tempo, 306905
1, 12000, Tempo, 315789
1, 12240, Tempo, 314136
1, 12480, Tempo, 306905
1, 13200, Tempo, 314961
1, 13440, Tempo, 306122
1, 13680, Tempo, 314136
1, 13920, Tempo, 306122
1, 14160, Tempo, 314961
1, 14400, Tempo, 306122
1, 14640, Tempo, 313316
1, 14880, Tempo, 306122
1, 16320, Tempo, 306905
1, 16800, Tempo, 311688
1, 17280, Tempo, 306122
1, 17380, Tempo, 306905
1, 17460, Tempo, 307692
1, 17560, Tempo, 308483
1, 17640, Tempo, 309278
1, 17720, Tempo, 310078
1, 17820, Tempo, 310881
1, 17900, Tempo, 311688
1, 17980, Tempo, 312500
1, 18080, Tempo, 313316
1, 18160, Tempo, 314136
1, 18240, Tempo, 314961
1, 19200, Tempo, 310078
1, 19920, Tempo, 312500
1, 20140, Tempo, 311688
1, 20160, Tempo, 308483
1, 20400, Tempo, 312500
1, 20640, Tempo, 308483
1, 20880, Tempo, 302267
1, 21120, Tempo, 308483
1, 21840, Tempo, 310881
1, 22080, Tempo, 314136
1, 22560, Tempo, 325203
1, 22800, Tempo, 314136
1, 23040, Tempo, 308483
1, 23760, Tempo, 312500
1, 24000, Tempo, 308483
1, 24720, Tempo, 303030
1, 24960, Tempo, 305344
1, 25680, Tempo, 310078
1, 25920, Tempo, 314136
1, 26400, Tempo, 308483
1, 26640, Tempo, 303797
1, 26880, Tempo, 309278
1, 27600, Tempo, 303030
1, 27840, Tempo, 306905
1, 28320, Tempo, 310881
1, 28560, Tempo, 306122
1, 28800, Tempo, 307692
1, 29280, Tempo, 310078
1, 29520, Tempo, 303030
1, 29760, Tempo, 306122
1, 30240, Tempo, 310078
1, 30480, Tempo, 304569
1, 30720, Tempo, 306122
1, 31200, Tempo, 310078
1, 31440, Tempo, 302267
1, 31680, Tempo, 306122
1, 32160, Tempo, 310078
1, 32400, Tempo, 303030
1, 32640, Tempo, 306122
1, 33120, Tempo, 309278
1, 33360, Tempo, 320000
1, 33600, Tempo, 312500
1, 34080, Tempo, 331492
1, 34320, Tempo, 312500
1, 34540, Tempo, 306905
1, 34560, Tempo, 310078
1, 35040, Tempo, 304569
1, 35280, Tempo, 313316
1, 35520, Tempo, 310078
1, 36000, Tempo, 317460
1, 36240, Tempo, 312500
1, 36480, Tempo, 309278
1, 36960, Tempo, 316623
1, 37200, Tempo, 311688
1, 37440, Tempo, 306122
1, 38160, Tempo, 312500
1, 38380, Tempo, 306905
1, 38400, Tempo, 310078
1, 38880, Tempo, 317460
1, 39120, Tempo, 312500
1, 39360, Tempo, 309278
1, 39840, Tempo, 316623
1, 40080, Tempo, 311688
1, 40320, Tempo, 306122
1, 40340, Tempo, 305344
1, 40680, Tempo, 304569
1, 41020, Tempo, 303797
1, 41360, Tempo, 303030
1, 41700, Tempo, 302267
1, 42000, Tempo, 307692
1, 42240, Tempo, 301508
1, 42380, Tempo, 300752
1, 42720, Tempo, 300000
1, 44160, Tempo, 296296
1, 45120, Tempo, 291262
1, 45840, Tempo, 306122
1, 46080, Tempo, 292683
1, 47040, Tempo, 291262
1, 47760, Tempo, 306122
1, 48000, Tempo, 292683
1, 48960, Tempo, 291262
1, 49680, Tempo, 306122
1, 49920, Tempo, 292683
1, 52800, Tempo, 291971
1, 52980, Tempo, 292683
1, 53160, Tempo, 293399
1, 53340, Tempo, 294118
1, 53520, Tempo, 294840
1, 53700, Tempo, 295567
1, 53880, Tempo, 296296
1, 54060, Tempo, 297030
1, 54220, Tempo, 297767
1, 54240, Tempo, 297030
1, 54340, Tempo, 297767
1, 54420, Tempo, 298507
1, 54520, Tempo, 299252
1, 54600, Tempo, 300000
1, 54680, Tempo, 300752
1, 54780, Tempo, 301508
1, 54860, Tempo, 302267
1, 54960, Tempo, 303030
1, 55040, Tempo, 303797
1, 55120, Tempo, 304569
1, 55220, Tempo, 305344
1, 55300, Tempo, 306122
1, 55400, Tempo, 306905
1, 55480, Tempo, 307692
1, 55560, Tempo, 308483
1, 55660, Tempo, 309278
1, 55740, Tempo, 310078
1, 55840, Tempo, 310881
1, 55920, Tempo, 311688
1, 56000, Tempo, 312500
1, 56100, Tempo, 313316
1, 56180, Tempo, 314136
1, 56280, Tempo, 314961
1, 56360, Tempo, 315789
1, 56440, Tempo, 316623
1, 56540, Tempo, 317460
1, 56620, Tempo, 318302
1, 56640, Tempo, 326975
1, 57500, Tempo, 326975
1, 58080, Tempo, 315789
1, 58100, Tempo, 314961
1, 58320, Tempo, 312500
1, 58540, Tempo, 306905
1, 58560, Tempo, 310078
1, 59040, Tempo, 304569
1, 59280, Tempo, 313316
1, 59520, Tempo, 310078
1, 60000, Tempo, 317460
1, 60240, Tempo, 312500
1, 60480, Tempo, 309278
1, 60960, Tempo, 316623
1, 61200, Tempo, 311688
1, 61440, Tempo, 306122
1, 62160, Tempo, 314961
1, 62380, Tempo, 303797
1, 62400, Tempo, 310078
1, 62880, Tempo, 305344
1, 63120, Tempo, 314136
1, 63360, Tempo, 310881
1, 63840, Tempo, 319149
1, 64080, Tempo, 313316
1, 64320, Tempo, 310078
1, 64800, Tempo, 317460
1, 65040, Tempo, 312500
1, 65280, Tempo, 303797
1, 66000, Tempo, 316623
1, 66240, Tempo, 306122
1, 66720, Tempo, 316623
1, 66960, Tempo, 315789
1, 67200, Tempo, 306905
1, 67680, Tempo, 315789
1, 67920, Tempo, 314136
1, 68160, Tempo, 306905
1, 68640, Tempo, 315789
1, 68880, Tempo, 314136
1, 69120, Tempo, 306905
1, 69840, Tempo, 314961
1, 70080, Tempo, 306122
1, 70320, Tempo, 314136
1, 70560, Tempo, 306122
1, 70800, Tempo, 314961
1, 71040, Tempo, 306122
1, 71280, Tempo, 313316
1, 71520, Tempo, 306122
1, 72960, Tempo, 310881
1, 73440, Tempo, 323450
1, 73920, Tempo, 306122
1, 74020, Tempo, 306905
1, 74100, Tempo, 307692
1, 74200, Tempo, 308483
1, 74280, Tempo, 309278
1, 74360, Tempo, 310078
1, 74460, Tempo, 310881
1, 74540, Tempo, 311688
1, 74620, Tempo, 312500
1, 74720, Tempo, 313316
1, 74800, Tempo, 314136
1, 74880, Tempo, 320000
1, 75360, Tempo, 316623
1, 75840, Tempo, 310078
1, 76560, Tempo, 312500
1, 76780, Tempo, 311688
1, 76800, Tempo, 308483
1, 77040, Tempo, 313316
1, 77280, Tempo, 308483
1, 77520, Tempo, 302267
1, 77760, Tempo, 308483
1, 78480, Tempo, 310881
1, 78720, Tempo, 314136
1, 79200, Tempo, 325203
1, 79440, Tempo, 314136
1, 79680, Tempo, 308483
1, 80400, Tempo, 312500
1, 80640, Tempo, 308483
1, 81360, Tempo, 303030
1, 81600, Tempo, 305344
1, 82320, Tempo, 310078
1, 82560, Tempo, 314136
1, 83040, Tempo, 308483
1, 83280, Tempo, 303797
1, 83520, Tempo, 309278
1, 84240, Tempo, 303030
1, 84480, Tempo, 306905
1, 84960, Tempo, 310881
1, 85200, Tempo, 306122
1, 85440, Tempo, 307692
1, 85920, Tempo, 310078
1, 86160, Tempo, 303030
1, 86400, Tempo, 306122
1, 86880, Tempo, 310078
1, 87120, Tempo, 304569
1, 87360, Tempo, 306122
1, 87840, Tempo, 310078
1, 88080, Tempo, 302267
1, 88320, Tempo, 306122
1, 88800, Tempo, 310078
1, 89040, Tempo, 303030
1, 89280, Tempo, 306122
1, 89760, Tempo, 309278
1, 90000, Tempo, 320000
1, 90240, Tempo, 312500
1, 90720, Tempo, 331492
1, 90960, Tempo, 312500
1, 91180, Tempo, 306905
1, 91200, Tempo, 310078
1, 91680, Tempo, 304569
1, 91920, Tempo, 313316
1, 92160, Tempo, 310078
1, 92640, Tempo, 317460
1, 92880, Tempo, 312500
1, 93120, Tempo, 309278
1, 93600, Tempo, 316623
1, 93840, Tempo, 311688
1, 94080, Tempo, 306122
1, 94800, Tempo, 312500
1, 95020, Tempo, 306905
1, 95040, Tempo, 310078
1, 95520, Tempo, 317460
1, 95760, Tempo, 312500
1, 96000, Tempo, 309278
1, 96480, Tempo, 316623
1, 96720, Tempo, 311688
1, 96960, Tempo, 306122
1, 96980, Tempo, 305344
1, 97320, Tempo, 304569
1, 97660, Tempo, 303797
1, 98000, Tempo, 303030
1, 98340, Tempo, 302267
1, 98640, Tempo, 307692
1, 98880, Tempo, 301508
1, 99020, Tempo, 300752
1, 99360, Tempo, 300000
1, 100800, Tempo, 296296
1, 101760, Tempo, 291262
1, 102480, Tempo, 306122
1, 102720, Tempo, 292683
1, 103680, Tempo, 291262
1, 104400, Tempo, 306122
1, 104640, Tempo, 292683
1, 105600, Tempo, 291262
1, 106320, Tempo, 306122
1, 106560, Tempo, 292683
1, 109440, Tempo, 291971
1, 109620, Tempo, 292683
1, 109800, Tempo, 293399
1, 109980, Tempo, 294118
1, 110160, Tempo, 294840
1, 110340, Tempo, 295567
1, 110520, Tempo, 296296
1, 110700, Tempo, 297030
1, 110860, Tempo, 297767
1, 110880, Tempo, 297030
1, 110980, Tempo, 297767
1, 111060, Tempo, 298507
1, 111160, Tempo, 299252
1, 111240, Tempo, 300000
1, 111320, Tempo, 300752
1, 111420, Tempo, 301508
1, 111500, Tempo, 302267
1, 111600, Tempo, 303030
1, 111680, Tempo, 303797
1, 111760, Tempo, 304569
1, 111860, Tempo, 305344
1, 111940, Tempo, 306122
1, 112040, Tempo, 306905
1, 112120, Tempo, 307692
1, 112200, Tempo, 308483
1, 112300, Tempo, 309278
1, 112380, Tempo, 310078
1, 112480, Tempo, 310881
1, 112560, Tempo, 311688
1, 112640, Tempo, 312500
1, 112740, Tempo, 313316
1, 112820, Tempo, 314136
1, 112920, Tempo, 314961
1, 113000, Tempo, 315789
1, 113080, Tempo, 316623
1, 113180, Tempo, 317460
1, 113260, Tempo, 318302
1, 113280, Tempo, 326975
1, 114140, Tempo, 326975
1, 114720, Tempo, 315789
1, 114740, Tempo, 314961
1, 114960, Tempo, 312500
1, 115180, Tempo, 306905
1, 115200, Tempo, 310078
1, 115680, Tempo, 304569
1, 115920, Tempo, 313316
1, 116160, Tempo, 310078
1, 116640, Tempo, 317460
1, 116880, Tempo, 312500
1, 117120, Tempo, 309278
1, 117600, Tempo, 316623
1, 117840, Tempo, 311688
1, 118080, Tempo, 306122
1, 118800, Tempo, 314961
1, 119020, Tempo, 303797
1, 119040, Tempo, 310078
1, 119520, Tempo, 305344
1, 119760, Tempo, 314136
1, 120000, Tempo, 310881
1, 120480, Tempo, 319149
1, 120720, Tempo, 313316
1, 120960, Tempo, 310078
1, 121440, Tempo, 317460
1, 121680, Tempo, 312500
1, 121920, Tempo, 303797
1, 122640, Tempo, 316623
1, 122880, Tempo, 306122
1, 123360, Tempo, 316623
1, 123600, Tempo, 315789
1, 123840, Tempo, 306905
1, 124320, Tempo, 315789
1, 124560, Tempo, 314136
1, 124800, Tempo, 306905
1, 125280, Tempo, 315789
1, 125520, Tempo, 314136
1, 125760, Tempo, 306905
1, 126480, Tempo, 314961
1, 126720, Tempo, 306122
1, 126960, Tempo, 314136
1, 127200, Tempo, 306122
1, 127440, Tempo, 314961
1, 127680, Tempo, 306122
1, 127920, Tempo, 313316
1, 128160, Tempo, 306122
1, 129600, Tempo, 310078
1, 129680, Tempo, 310881
1, 129740, Tempo, 311688
1, 129800, Tempo, 312500
1, 129860, Tempo, 313316
1, 129920, Tempo, 314136
1, 129980, Tempo, 314961
1, 130040, Tempo, 315789
1, 130080, Tempo, 323450
1, 130560, Tempo, 306122
1, 130660, Tempo, 306905
1, 130740, Tempo, 307692
1, 130840, Tempo, 308483
1, 130920, Tempo, 309278
1, 131000, Tempo, 310078
1, 131100, Tempo, 310881
1, 131180, Tempo, 311688
1, 131260, Tempo, 312500
1, 131360, Tempo, 313316
1, 131440, Tempo, 314136
1, 131520, Tempo, 314961
1, 131816, Marker_t, "Fine"
1, 131816, End_track
2, 0, Start_track
2, 0, Title_t, "Piano right"
2, 0, Program_c, 0, 0
2, 0, Control_c, 0, 7, 100
2, 0, Control_c, 0, 10, 64
2, 0, Control_c, 0, 91, 127
2, 0, Control_c, 0, 91, 127
2, 0, Text_t, "bdca426d104a26ac9dcb070447587523"
2, 1680, Note_on_c, 0, 63, 36
2, 1800, Note_on_c, 0, 63, 0
2, 1800, Note_on_c, 0, 65, 36
2, 1920, Note_on_c, 0, 65, 0
2, 1920, Note_on_c, 0, 66, 39
2, 1920, Note_on_c, 0, 70, 39
2, 2040, Note_on_c, 0, 70, 0
2, 2040, Note_on_c, 0, 66, 0
2, 2040, Note_on_c, 0, 65, 36
2, 2160, Note_on_c, 0, 65, 0
2, 2160, Note_on_c, 0, 63, 36
2, 2280, Note_on_c, 0, 63, 0
2, 2280, Note_on_c, 0, 65, 36
2, 2400, Note_on_c, 0, 65, 0
2, 2400, Note_on_c, 0, 66, 37
2, 2400, Note_on_c, 0, 70, 37
2, 2520, Note_on_c, 0, 70, 0
2, 2520, Note_on_c, 0, 66, 0
2, 2520, Note_on_c, 0, 65, 36
2, 2640, Note_on_c, 0, 65, 0
2, 2640, Note_on_c, 0, 63, 36
2, 2760, Note_on_c, 0, 63, 0
2, 2760, Note_on_c, 0, 65, 36
2, 2880, Note_on_c, 0, 65, 0
2, 2880, Note_on_c, 0, 70, 39
2, 2880, Note_on_c, 0, 66, 39
2, 3000, Note_on_c, 0, 66, 0
2, 3000, Note_on_c, 0, 70, 0
2, 3120, Note_on_c, 0, 66, 36
2, 3120, Note_on_c, 0, 63, 36
2, 3240, Note_on_c, 0, 63, 0
2, 3240, Note_on_c, 0, 66, 0
2, 3360, Note_on_c, 0, 66, 36
2, 3360, Note_on_c, 0, 63, 36
2, 3480, Note_on_c, 0, 63, 0
2, 3480, Note_on_c, 0, 66, 0
2, 3600, Note_on_c, 0, 66, 36
2, 3600, Note_on_c, 0, 70, 36
2, 3720, Note_on_c, 0, 70, 0
2, 3720, Note_on_c, 0, 66, 0
2, 3840, Note_on_c, 0, 65, 40
2, 3840, Note_on_c, 0, 69, 40
2, 3960, Note_on_c, 0, 69, 0
2, 3960, Note_on_c, 0, 65, 0
2, 4080, Note_on_c, 0, 60, 36
2, 4080, Note_on_c, 0, 65, 36
2, 4200, Note_on_c, 0, 65, 0
2, 4200, Note_on_c, 0, 60, 0
2, 4320, Note_on_c, 0, 65, 36
2, 4320, Note_on_c, 0, 60, 36
2, 4440, Note_on_c, 0, 60, 0
2, 4440, Note_on_c, 0, 65, 0
2, 4560, Note_on_c, 0, 65, 36
2, 4560, Note_on_c, 0, 69, 36
2, 4680, Note_on_c, 0, 69, 0
2, 4680, Note_on_c, 0, 65, 0
2, 4800, Note_on_c, 0, 69, 43
2, 4800, Note_on_c, 0, 65, 43
2, 5520, Note_on_c, 0, 65, 0
2, 5520, Note_on_c, 0, 69, 0
2, 5520, Note_on_c, 0, 68, 36
2, 5640, Note_on_c, 0, 68, 0
2, 5640, Note_on_c, 0, 70, 39
2, 5760, Note_on_c, 0, 70, 0
2, 5760, Note_on_c, 0, 71, 43
2, 5760, Note_on_c, 0, 75, 43
2, 5880, Note_on_c, 0, 75, 0
2, 5880, Note_on_c, 0, 71, 0
2, 5880, Note_on_c, 0, 70, 40
2, 6000, Note_on_c, 0, 70, 0
2, 6000, Note_on_c, 0, 68, 40
2, 6120, Note_on_c, 0, 68, 0
2, 6120, Note_on_c, 0, 70, 40
2, 6240, Note_on_c, 0, 70, 0
2, 6240, Note_on_c, 0, 75, 43
2, 6240, Note_on_c, 0, 71, 43
2, 6360, Note_on_c, 0, 71, 0
2, 6360, Note_on_c, 0, 75, 0
2, 6360, Note_on_c, 0, 70, 40
2, 6480, Note_on_c, 0, 70, 0
2, 6480, Note_on_c, 0, 68, 40
2, 6600, Note_on_c, 0, 68, 0
2, 6600, Note_on_c, 0, 70, 40
2, 6720, Note_on_c, 0, 70, 0
2, 6720, Note_on_c, 0, 71, 43
2, 6720, Note_on_c, 0, 75, 43
2, 6840, Note_on_c, 0, 75, 0
2, 6840, Note_on_c, 0, 71, 0
2, 6960, Note_on_c, 0, 71, 40
2, 6960, Note_on_c, 0, 68, 40
2, 7080, Note_on_c, 0, 68, 0
2, 7080, Note_on_c, 0, 71, 0
2, 7200, Note_on_c, 0, 68, 40
2, 7200, Note_on_c, 0, 71, 40
2, 7320, Note_on_c, 0, 71, 0
2, 7320, Note_on_c, 0, 68, 0
2, 7440, Note_on_c, 0, 75, 40
2, 7440, Note_on_c, 0, 71, 40
2, 7560, Note_on_c, 0, 71, 0
2, 7560, Note_on_c, 0, 75, 0
2, 7680, Note_on_c, 0, 70, 43
2, 7680, Note_on_c, 0, 74, 43
2, 7800, Note_on_c, 0, 74, 0
2, 7800, Note_on_c, 0, 70, 0
2, 7920, Note_on_c, 0, 70, 40
2, 7920, Note_on_c, 0, 65, 40
2, 8040, Note_on_c, 0, 65, 0
2, 8040, Note_on_c, 0, 70, 0
2, 8160, Note_on_c, 0, 70, 40
2, 8160, Note_on_c, 0, 65, 40
2, 8280, Note_on_c, 0, 65, 0
2, 8280, Note_on_c, 0, 70, 0
2, 8400, Note_on_c, 0, 74, 40
2, 8400, Note_on_c, 0, 70, 40
2, 8520, Note_on_c, 0, 70, 0
2, 8520, Note_on_c, 0, 74, 0
2, 8640, Note_on_c, 0, 70, 46
2, 8640, Note_on_c, 0, 74, 46
2, 9000, Note_on_c, 0, 74, 0
2, 9000, Note_on_c, 0, 70, 0
2, 9360, Note_on_c, 0, 78, 74
2, 9480, Note_on_c, 0, 78, 0
2, 9480, Note_on_c, 0, 80, 74
2, 9600, Note_on_c, 0, 80, 0
2, 9600, Note_on_c, 0, 82, 86
2, 9600, Note_on_c, 0, 85, 86
2, 9720, Note_on_c, 0, 85, 0
2, 9720, Note_on_c, 0, 82, 0
2, 9720, Note_on_c, 0, 80, 73
2, 9840, Note_on_c, 0, 80, 0
2, 9840, Note_on_c, 0, 78, 73
2, 9960, Note_on_c, 0, 78, 0
2, 9960, Note_on_c, 0, 80, 73
2, 10080, Note_on_c, 0, 80, 0
2, 10080, Note_on_c, 0, 85, 79
2, 10080, Note_on_c, 0, 82, 79
2, 10300, Note_on_c, 0, 82, 0
2, 10300, Note_on_c, 0, 85, 0
2, 10320, Note_on_c, 0, 73, 73
2, 10440, Note_on_c, 0, 73, 0
2, 10440, Note_on_c, 0, 75, 73
2, 10560, Note_on_c, 0, 75, 0
2, 10560, Note_on_c, 0, 77, 85
2, 10560, Note_on_c, 0, 80, 85
2, 10680, Note_on_c, 0, 80, 0
2, 10680, Note_on_c, 0, 77, 0
2, 10680, Note_on_c, 0, 75, 73
2, 10800, Note_on_c, 0, 75, 0
2, 10800, Note_on_c, 0, 73, 71
2, 10920, Note_on_c, 0, 73, 0
2, 10920, Note_on_c, 0, 75, 71
2, 11040, Note_on_c, 0, 75, 0
2, 11040, Note_on_c, 0, 77, 80
2, 11040, Note_on_c, 0, 80, 80
2, 11260, Note_on_c, 0, 80, 0
2, 11260, Note_on_c, 0, 77, 0
2, 11280, Note_on_c, 0, 71, 73
2, 11400, Note_on_c, 0, 71, 0
2, 11400, Note_on_c, 0, 73, 73
2, 11520, Note_on_c, 0, 73, 0
2, 11520, Note_on_c, 0, 78, 86
2, 11520, Note_on_c, 0, 75, 86
2, 11640, Note_on_c, 0, 75, 0
2, 11640, Note_on_c, 0, 78, 0
2, 11640, Note_on_c, 0, 73, 71
2, 11760, Note_on_c, 0, 73, 0
2, 11760, Note_on_c, 0, 71, 71
2, 11880, Note_on_c, 0, 71, 0
2, 11880, Note_on_c, 0, 73, 71
2, 12000, Note_on_c, 0, 73, 0
2, 12000, Note_on_c, 0, 78, 80
2, 12000, Note_on_c, 0, 75, 80
2, 12220, Note_on_c, 0, 75, 0
2, 12220, Note_on_c, 0, 78, 0
2, 12240, Note_on_c, 0, 66, 74
2, 12360, Note_on_c, 0, 66, 0
2, 12360, Note_on_c, 0, 68, 74
2, 12480, Note_on_c, 0, 68, 0
2, 12480, Note_on_c, 0, 73, 89
2, 12480, Note_on_c, 0, 70, 89
2, 12600, Note_on_c, 0, 70, 0
2, 12600, Note_on_c, 0, 73, 0
2, 12600, Note_on_c, 0, 68, 71
2, 12720, Note_on_c, 0, 68, 0
2, 12720, Note_on_c, 0, 66, 71
2, 12840, Note_on_c, 0, 66, 0
2, 12840, Note_on_c, 0, 68, 71
2, 12960, Note_on_c, 0, 68, 0
2, 12960, Note_on_c, 0, 73, 79
2, 12960, Note_on_c, 0, 70, 79
2, 13180, Note_on_c, 0, 70, 0
2, 13180, Note_on_c, 0, 73, 0
2, 13200, Note_on_c, 0, 53, 69
2, 13320, Note_on_c, 0, 53, 0
2, 13320, Note_on_c, 0, 54, 69
2, 13440, Note_on_c, 0, 54, 0
2, 13440, Note_on_c, 0, 56, 79
2, 13560, Note_on_c, 0, 56, 0
2, 13560, Note_on_c, 0, 54, 67
2, 13680, Note_on_c, 0, 54, 0
2, 13680, Note_on_c, 0, 53, 67
2, 13800, Note_on_c, 0, 53, 0
2, 13920, Note_on_c, 0, 54, 73
2, 14040, Note_on_c, 0, 54, 0
2, 14040, Note_on_c, 0, 53, 63
2, 14160, Note_on_c, 0, 53, 0
2, 14160, Note_on_c, 0, 51, 63
2, 14280, Note_on_c, 0, 51, 0
2, 14400, Note_on_c, 0, 53, 69
2, 14520, Note_on_c, 0, 53, 0
2, 14520, Note_on_c, 0, 51, 61
2, 14640, Note_on_c, 0, 51, 0
2, 14640, Note_on_c, 0, 49, 61
2, 14760, Note_on_c, 0, 49, 0
2, 14880, Note_on_c, 0, 51, 66
2, 15000, Note_on_c, 0, 51, 0
2, 15000, Note_on_c, 0, 49, 59
2, 15120, Note_on_c, 0, 49, 0
2, 15120, Note_on_c, 0, 48, 59
2, 15240, Note_on_c, 0, 48, 0
2, 16320, Note_on_c, 0, 51, 45
2, 16440, Note_on_c, 0, 51, 0
2, 16440, Note_on_c, 0, 49, 40
2, 16560, Note_on_c, 0, 49, 0
2, 16560, Note_on_c, 0, 47, 40
2, 16680, Note_on_c, 0, 47, 0
2, 17280, Note_on_c, 0, 46, 73
2, 17400, Note_on_c, 0, 46, 0
2, 17400, Note_on_c, 0, 53, 67
2, 17520, Note_on_c, 0, 53, 0
2, 17520, Note_on_c, 0, 58, 67
2, 17610, Note_on_c, 0, 58, 0
2, 17640, Note_on_c, 0, 58, 67
2, 17760, Note_on_c, 0, 58, 0
2, 17760, Note_on_c, 0, 65, 72
2, 17880, Note_on_c, 0, 65, 0
2, 17880, Note_on_c, 0, 70, 74
2, 17970, Note_on_c, 0, 70, 0
2, 18000, Note_on_c, 0, 70, 78
2, 18120, Note_on_c, 0, 70, 0
2, 18120, Note_on_c, 0, 77, 81
2, 18210, Note_on_c, 0, 77, 0
2, 18240, Note_on_c, 0, 77, 85
2, 18240, Note_on_c, 0, 70, 85
2, 18240, Note_on_c, 0, 82, 85
2, 18480, Note_on_c, 0, 82, 0
2, 18480, Note_on_c, 0, 70, 0
2, 18480, Note_on_c, 0, 77, 0
2, 19200, Note_on_c, 0, 47, 36
2, 19200, Note_on_c, 0, 50, 36
2, 19200, Note_on_c, 0, 53, 36
2, 20400, Note_on_c, 0, 53, 0
2, 20400, Note_on_c, 0, 50, 0
2, 20400, Note_on_c, 0, 47, 0
2, 20880, Note_on_c, 0, 50, 42
2, 20880, Note_on_c, 0, 53, 42
2, 20880, Note_on_c, 0, 59, 51
2, 21000, Note_on_c, 0, 59, 0
2, 21000, Note_on_c, 0, 53, 0
2, 21000, Note_on_c, 0, 50, 0
2, 21120, Note_on_c, 0, 50, 46
2, 21120, Note_on_c, 0, 53, 46
2, 21120, Note_on_c, 0, 59, 55
2, 21240, Note_on_c, 0, 59, 0
2, 21240, Note_on_c, 0, 53, 0
2, 21240, Note_on_c, 0, 50, 0
2, 21360, Note_on_c, 0, 50, 42
2, 21360, Note_on_c, 0, 53, 42
2, 21360, Note_on_c, 0, 58, 51
2, 21480, Note_on_c, 0, 58, 0
2, 21480, Note_on_c, 0, 53, 0
2, 21480, Note_on_c, 0, 50, 0
2, 21600, Note_on_c, 0, 50, 42
2, 21600, Note_on_c, 0, 53, 42
2, 21600, Note_on_c, 0, 58, 51
2, 21720, Note_on_c, 0, 58, 0
2, 21720, Note_on_c, 0, 53, 0
2, 21720, Note_on_c, 0, 50, 0
2, 21840, Note_on_c, 0, 50, 46
2, 21840, Note_on_c, 0, 53, 46
2, 21840, Note_on_c, 0, 57, 55
2, 21960, Note_on_c, 0, 57, 0
2, 21960, Note_on_c, 0, 53, 0
2, 21960, Note_on_c, 0, 50, 0
2, 22080, Note_on_c, 0, 50, 49
2, 22080, Note_on_c, 0, 53, 49
2, 22080, Note_on_c, 0, 57, 59
2, 22200, Note_on_c, 0, 57, 0
2, 22200, Note_on_c, 0, 53, 0
2, 22200, Note_on_c, 0, 50, 0
2, 22320, Note_on_c, 0, 50, 48
2, 22320, Note_on_c, 0, 53, 48
2, 22320, Note_on_c, 0, 56, 57
2, 22440, Note_on_c, 0, 56, 0
2, 22440, Note_on_c, 0, 53, 0
2, 22440, Note_on_c, 0, 50, 0
2, 22560, Note_on_c, 0, 50, 46
2, 22560, Note_on_c, 0, 53, 46
2, 22560, Note_on_c, 0, 56, 55
2, 22680, Note_on_c, 0, 56, 0
2, 22680, Note_on_c, 0, 53, 0
2, 22680, Note_on_c, 0, 50, 0
2, 23040, Note_on_c, 0, 50, 41
2, 23040, Note_on_c, 0, 53, 41
2, 23040, Note_on_c, 0, 56, 41
2, 24240, Note_on_c, 0, 56, 0
2, 24240, Note_on_c, 0, 53, 0
2, 24240, Note_on_c, 0, 50, 0
2, 24720, Note_on_c, 0, 53, 35
2, 24720, Note_on_c, 0, 56, 35
2, 24720, Note_on_c, 0, 62, 59
2, 24840, Note_on_c, 0, 62, 0
2, 24840, Note_on_c, 0, 56, 0
2, 24840, Note_on_c, 0, 53, 0
2, 24960, Note_on_c, 0, 53, 36
2, 24960, Note_on_c, 0, 56, 36
2, 24960, Note_on_c, 0, 62, 60
2, 25080, Note_on_c, 0, 62, 0
2, 25080, Note_on_c, 0, 56, 0
2, 25080, Note_on_c, 0, 53, 0
2, 25200, Note_on_c, 0, 53, 35
2, 25200, Note_on_c, 0, 56, 35
2, 25200, Note_on_c, 0, 61, 59
2, 25320, Note_on_c, 0, 61, 0
2, 25320, Note_on_c, 0, 56, 0
2, 25320, Note_on_c, 0, 53, 0
2, 25440, Note_on_c, 0, 53, 35
2, 25440, Note_on_c, 0, 56, 35
2, 25440, Note_on_c, 0, 61, 59
2, 25560, Note_on_c, 0, 61, 0
2, 25560, Note_on_c, 0, 56, 0
2, 25560, Note_on_c, 0, 53, 0
2, 25680, Note_on_c, 0, 53, 37
2, 25680, Note_on_c, 0, 56, 37
2, 25680, Note_on_c, 0, 60, 63
2, 25800, Note_on_c, 0, 60, 0
2, 25800, Note_on_c, 0, 56, 0
2, 25800, Note_on_c, 0, 53, 0
2, 25920, Note_on_c, 0, 53, 41
2, 25920, Note_on_c, 0, 56, 41
2, 25920, Note_on_c, 0, 60, 70
2, 26040, Note_on_c, 0, 60, 0
2, 26040, Note_on_c, 0, 56, 0
2, 26040, Note_on_c, 0, 53, 0
2, 26160, Note_on_c, 0, 53, 39
2, 26160, Note_on_c, 0, 56, 39
2, 26160, Note_on_c, 0, 59, 67
2, 26280, Note_on_c, 0, 59, 0
2, 26280, Note_on_c, 0, 56, 0
2, 26280, Note_on_c, 0, 53, 0
2, 26400, Note_on_c, 0, 53, 38
2, 26400, Note_on_c, 0, 56, 38
2, 26400, Note_on_c, 0, 59, 64
2, 26520, Note_on_c, 0, 59, 0
2, 26520, Note_on_c, 0, 56, 0
2, 26520, Note_on_c, 0, 53, 0
2, 26640, Note_on_c, 0, 56, 35
2, 26640, Note_on_c, 0, 59, 35
2, 26640, Note_on_c, 0, 65, 60
2, 26760, Note_on_c, 0, 65, 0
2, 26760, Note_on_c, 0, 59, 0
2, 26760, Note_on_c, 0, 56, 0
2, 26880, Note_on_c, 0, 56, 37
2, 26880, Note_on_c, 0, 59, 37
2, 26880, Note_on_c, 0, 65, 64
2, 27000, Note_on_c, 0, 65, 0
2, 27000, Note_on_c, 0, 59, 0
2, 27000, Note_on_c, 0, 56, 0
2, 27120, Note_on_c, 0, 56, 35
2, 27120, Note_on_c, 0, 59, 35
2, 27120, Note_on_c, 0, 64, 60
2, 27240, Note_on_c, 0, 64, 0
2, 27240, Note_on_c, 0, 59, 0
2, 27240, Note_on_c, 0, 56, 0
2, 27360, Note_on_c, 0, 56, 35
2, 27360, Note_on_c, 0, 59, 35
2, 27360, Note_on_c, 0, 64, 60
2, 27480, Note_on_c, 0, 64, 0
2, 27480, Note_on_c, 0, 59, 0
2, 27480, Note_on_c, 0, 56, 0
2, 27600, Note_on_c, 0, 56, 39
2, 27600, Note_on_c, 0, 60, 39
2, 27600, Note_on_c, 0, 63, 66
2, 27720, Note_on_c, 0, 63, 0
2, 27720, Note_on_c, 0, 60, 0
2, 27720, Note_on_c, 0, 56, 0
2, 27840, Note_on_c, 0, 56, 44
2, 27840, Note_on_c, 0, 59, 44
2, 27840, Note_on_c, 0, 63, 73
2, 27960, Note_on_c, 0, 63, 0
2, 27960, Note_on_c, 0, 59, 0
2, 27960, Note_on_c, 0, 56, 0
2, 28080, Note_on_c, 0, 56, 40
2, 28080, Note_on_c, 0, 59, 40
2, 28080, Note_on_c, 0, 62, 70
2, 28200, Note_on_c, 0, 62, 0
2, 28200, Note_on_c, 0, 59, 0
2, 28200, Note_on_c, 0, 56, 0
2, 28320, Note_on_c, 0, 56, 39
2, 28320, Note_on_c, 0, 59, 39
2, 28320, Note_on_c, 0, 62, 67
2, 28440, Note_on_c, 0, 62, 0
2, 28440, Note_on_c, 0, 59, 0
2, 28440, Note_on_c, 0, 56, 0
2, 28560, Note_on_c, 0, 59, 47
2, 28560, Note_on_c, 0, 62, 47
2, 28560, Note_on_c, 0, 68, 66
2, 28680, Note_on_c, 0, 68, 0
2, 28680, Note_on_c, 0, 62, 0
2, 28680, Note_on_c, 0, 59, 0
2, 28800, Note_on_c, 0, 59, 49
2, 28800, Note_on_c, 0, 62, 49
2, 28800, Note_on_c, 0, 68, 70
2, 28920, Note_on_c, 0, 68, 0
2, 28920, Note_on_c, 0, 62, 0
2, 28920, Note_on_c, 0, 59, 0
2, 29040, Note_on_c, 0, 59, 47
2, 29040, Note_on_c, 0, 62, 47
2, 29040, Note_on_c, 0, 67, 66
2, 29160, Note_on_c, 0, 67, 0
2, 29160, Note_on_c, 0, 62, 0
2, 29160, Note_on_c, 0, 59, 0
2, 29280, Note_on_c, 0, 59, 47
2, 29280, Note_on_c, 0, 62, 47
2, 29280, Note_on_c, 0, 67, 66
2, 29400, Note_on_c, 0, 67, 0
2, 29400, Note_on_c, 0, 62, 0
2, 29400, Note_on_c, 0, 59, 0
2, 29520, Note_on_c, 0, 59, 51
2, 29520, Note_on_c, 0, 62, 51
2, 29520, Note_on_c, 0, 66, 72
2, 29640, Note_on_c, 0, 66, 0
2, 29640, Note_on_c, 0, 62, 0
2, 29640, Note_on_c, 0, 59, 0
2, 29760, Note_on_c, 0, 59, 54
2, 29760, Note_on_c, 0, 62, 54
2, 29760, Note_on_c, 0, 66, 76
2, 29880, Note_on_c, 0, 66, 0
2, 29880, Note_on_c, 0, 62, 0
2, 29880, Note_on_c, 0, 59, 0
2, 30000, Note_on_c, 0, 59, 51
2, 30000, Note_on_c, 0, 62, 51
2, 30000, Note_on_c, 0, 65, 72
2, 30120, Note_on_c, 0, 65, 0
2, 30120, Note_on_c, 0, 62, 0
2, 30120, Note_on_c, 0, 59, 0
2, 30240, Note_on_c, 0, 59, 49
2, 30240, Note_on_c, 0, 62, 49
2, 30240, Note_on_c, 0, 65, 69
2, 30360, Note_on_c, 0, 65, 0
2, 30360, Note_on_c, 0, 62, 0
2, 30360, Note_on_c, 0, 59, 0
2, 30480, Note_on_c, 0, 62, 53
2, 30480, Note_on_c, 0, 65, 53
2, 30480, Note_on_c, 0, 71, 75
2, 30600, Note_on_c, 0, 71, 0
2, 30600, Note_on_c, 0, 65, 0
2, 30600, Note_on_c, 0, 62, 0
2, 30720, Note_on_c, 0, 62, 58
2, 30720, Note_on_c, 0, 65, 58
2, 30720, Note_on_c, 0, 71, 81
2, 30840, Note_on_c, 0, 71, 0
2, 30840, Note_on_c, 0, 65, 0
2, 30840, Note_on_c, 0, 62, 0
2, 30960, Note_on_c, 0, 62, 56
2, 30960, Note_on_c, 0, 65, 56
2, 30960, Note_on_c, 0, 70, 79
2, 31080, Note_on_c, 0, 70, 0
2, 31080, Note_on_c, 0, 65, 0
2, 31080, Note_on_c, 0, 62, 0
2, 31200, Note_on_c, 0, 62, 54
2, 31200, Note_on_c, 0, 65, 54
2, 31200, Note_on_c, 0, 70, 76
2, 31320, Note_on_c, 0, 70, 0
2, 31320, Note_on_c, 0, 65, 0
2, 31320, Note_on_c, 0, 62, 0
2, 31440, Note_on_c, 0, 65, 55
2, 31440, Note_on_c, 0, 68, 55
2, 31440, Note_on_c, 0, 74, 78
2, 31560, Note_on_c, 0, 74, 0
2, 31560, Note_on_c, 0, 68, 0
2, 31560, Note_on_c, 0, 65, 0
2, 31680, Note_on_c, 0, 65, 60
2, 31680, Note_on_c, 0, 68, 60
2, 31680, Note_on_c, 0, 74, 86
2, 31800, Note_on_c, 0, 74, 0
2, 31800, Note_on_c, 0, 68, 0
2, 31800, Note_on_c, 0, 65, 0
2, 31920, Note_on_c, 0, 65, 58
2, 31920, Note_on_c, 0, 68, 58
2, 31920, Note_on_c, 0, 73, 81
2, 32040, Note_on_c, 0, 73, 0
2, 32040, Note_on_c, 0, 68, 0
2, 32040, Note_on_c, 0, 65, 0
2, 32160, Note_on_c, 0, 65, 56
2, 32160, Note_on_c, 0, 68, 56
2, 32160, Note_on_c, 0, 73, 79
2, 32280, Note_on_c, 0, 73, 0
2, 32280, Note_on_c, 0, 68, 0
2, 32280, Note_on_c, 0, 65, 0
2, 32400, Note_on_c, 0, 68, 57
2, 32400, Note_on_c, 0, 71, 57
2, 32400, Note_on_c, 0, 77, 80
2, 32520, Note_on_c, 0, 77, 0
2, 32520, Note_on_c, 0, 71, 0
2, 32520, Note_on_c, 0, 68, 0
2, 32640, Note_on_c, 0, 68, 62
2, 32640, Note_on_c, 0, 71, 86
2, 32640, Note_on_c, 0, 77, 86
2, 32760, Note_on_c, 0, 77, 0
2, 32760, Note_on_c, 0, 71, 0
2, 32760, Note_on_c, 0, 68, 0
2, 32880, Note_on_c, 0, 68, 60
2, 32880, Note_on_c, 0, 71, 60
2, 32880, Note_on_c, 0, 76, 86
2, 33000, Note_on_c, 0, 76, 0
2, 33000, Note_on_c, 0, 71, 0
2, 33000, Note_on_c, 0, 68, 0
2, 33120, Note_on_c, 0, 68, 58
2, 33120, Note_on_c, 0, 71, 58
2, 33120, Note_on_c, 0, 76, 81
2, 33240, Note_on_c, 0, 76, 0
2, 33240, Note_on_c, 0, 71, 0
2, 33240, Note_on_c, 0, 68, 0
2, 33360, Note_on_c, 0, 71, 71
2, 33360, Note_on_c, 0, 74, 71
2, 33360, Note_on_c, 0, 80, 85
2, 33480, Note_on_c, 0, 80, 0
2, 33480, Note_on_c, 0, 74, 0
2, 33480, Note_on_c, 0, 71, 0
2, 33600, Note_on_c, 0, 71, 79
2, 33600, Note_on_c, 0, 74, 79
2, 33600, Note_on_c, 0, 80, 94
2, 33720, Note_on_c, 0, 80, 0
2, 33720, Note_on_c, 0, 74, 0
2, 33720, Note_on_c, 0, 71, 0
2, 33840, Note_on_c, 0, 71, 75
2, 33840, Note_on_c, 0, 74, 75
2, 33840, Note_on_c, 0, 79, 89
2, 33960, Note_on_c, 0, 79, 0
2, 33960, Note_on_c, 0, 74, 0
2, 33960, Note_on_c, 0, 71, 0
2, 34080, Note_on_c, 0, 71, 72
2, 34080, Note_on_c, 0, 74, 72
2, 34080, Note_on_c, 0, 79, 86
2, 34200, Note_on_c, 0, 79, 0
2, 34200, Note_on_c, 0, 74, 0
2, 34200, Note_on_c, 0, 71, 0
2, 34320, Note_on_c, 0, 72, 37
2, 34440, Note_on_c, 0, 72, 0
2, 34440, Note_on_c, 0, 74, 36
2, 34560, Note_on_c, 0, 74, 0
2, 34560, Note_on_c, 0, 79, 39
2, 34560, Note_on_c, 0, 76, 39
2, 34680, Note_on_c, 0, 76, 0
2, 34680, Note_on_c, 0, 79, 0
2, 34680, Note_on_c, 0, 74, 36
2, 34800, Note_on_c, 0, 74, 0
2, 34800, Note_on_c, 0, 72, 36
2, 34920, Note_on_c, 0, 72, 0
2, 34920, Note_on_c, 0, 74, 36
2, 35040, Note_on_c, 0, 74, 0
2, 35040, Note_on_c, 0, 76, 37
2, 35040, Note_on_c, 0, 79, 37
2, 35160, Note_on_c, 0, 79, 0
2, 35160, Note_on_c, 0, 76, 0
2, 35160, Note_on_c, 0, 74, 36
2, 35280, Note_on_c, 0, 74, 0
2, 35280, Note_on_c, 0, 72, 36
2, 35400, Note_on_c, 0, 72, 0
2, 35400, Note_on_c, 0, 74, 36
2, 35520, Note_on_c, 0, 74, 0
2, 35520, Note_on_c, 0, 79, 39
2, 35520, Note_on_c, 0, 76, 39
2, 35640, Note_on_c, 0, 76, 0
2, 35640, Note_on_c, 0, 79, 0
2, 35760, Note_on_c, 0, 76, 36
2, 35760, Note_on_c, 0, 72, 36
2, 35880, Note_on_c, 0, 72, 0
2, 35880, Note_on_c, 0, 76, 0
2, 36000, Note_on_c, 0, 76, 36
2, 36000, Note_on_c, 0, 72, 36
2, 36120, Note_on_c, 0, 72, 0
2, 36120, Note_on_c, 0, 76, 0
2, 36240, Note_on_c, 0, 79, 36
2, 36240, Note_on_c, 0, 76, 36
2, 36360, Note_on_c, 0, 76, 0
2, 36360, Note_on_c, 0, 79, 0
2, 36480, Note_on_c, 0, 77, 40
2, 36480, Note_on_c, 0, 81, 40
2, 36600, Note_on_c, 0, 81, 0
2, 36600, Note_on_c, 0, 77, 0
2, 36720, Note_on_c, 0, 71, 36
2, 36720, Note_on_c, 0, 74, 36
2, 36840, Note_on_c, 0, 74, 0
2, 36840, Note_on_c, 0, 71, 0
2, 36960, Note_on_c, 0, 71, 36
2, 36960, Note_on_c, 0, 74, 36
2, 37080, Note_on_c, 0, 74, 0
2, 37080, Note_on_c, 0, 71, 0
2, 37200, Note_on_c, 0, 77, 40
2, 37200, Note_on_c, 0, 81, 40
2, 37320, Note_on_c, 0, 81, 0
2, 37320, Note_on_c, 0, 77, 0
2, 37440, Note_on_c, 0, 77, 44
2, 37440, Note_on_c, 0, 81, 44
2, 38160, Note_on_c, 0, 81, 0
2, 38160, Note_on_c, 0, 77, 0
2, 38160, Note_on_c, 0, 72, 38
2, 38280, Note_on_c, 0, 72, 0
2, 38280, Note_on_c, 0, 74, 38
2, 38400, Note_on_c, 0, 74, 0
2, 38400, Note_on_c, 0, 79, 41
2, 38400, Note_on_c, 0, 76, 41
2, 38520, Note_on_c, 0, 76, 0
2, 38520, Note_on_c, 0, 79, 0
2, 38640, Note_on_c, 0, 76, 38
2, 38640, Note_on_c, 0, 72, 38
2, 38760, Note_on_c, 0, 72, 0
2, 38760, Note_on_c, 0, 76, 0
2, 38880, Note_on_c, 0, 76, 39
2, 38880, Note_on_c, 0, 72, 39
2, 39000, Note_on_c, 0, 72, 0
2, 39000, Note_on_c, 0, 76, 0
2, 39120, Note_on_c, 0, 79, 38
2, 39120, Note_on_c, 0, 76, 38
2, 39240, Note_on_c, 0, 76, 0
2, 39240, Note_on_c, 0, 79, 0
2, 39360, Note_on_c, 0, 77, 42
2, 39360, Note_on_c, 0, 81, 42
2, 39480, Note_on_c, 0, 81, 0
2, 39480, Note_on_c, 0, 77, 0
2, 39600, Note_on_c, 0, 71, 38
2, 39600, Note_on_c, 0, 74, 38
2, 39720, Note_on_c, 0, 74, 0
2, 39720, Note_on_c, 0, 71, 0
2, 39840, Note_on_c, 0, 71, 39
2, 39840, Note_on_c, 0, 74, 39
2, 39960, Note_on_c, 0, 74, 0
2, 39960, Note_on_c, 0, 71, 0
2, 40080, Note_on_c, 0, 77, 51
2, 40080, Note_on_c, 0, 81, 51
2, 40200, Note_on_c, 0, 81, 0
2, 40200, Note_on_c, 0, 77, 0
2, 40320, Note_on_c, 0, 76, 55
2, 40320, Note_on_c, 0, 79, 55
2, 40440, Note_on_c, 0, 79, 0
2, 40440, Note_on_c, 0, 76, 0
2, 40560, Note_on_c, 0, 72, 50
2, 40560, Note_on_c, 0, 76, 50
2, 40680, Note_on_c, 0, 76, 0
2, 40680, Note_on_c, 0, 72, 0
2, 40800, Note_on_c, 0, 77, 58
2, 40800, Note_on_c, 0, 81, 58
2, 40920, Note_on_c, 0, 81, 0
2, 40920, Note_on_c, 0, 77, 0
2, 41040, Note_on_c, 0, 71, 52
2, 41040, Note_on_c, 0, 74, 52
2, 41160, Note_on_c, 0, 74, 0
2, 41160, Note_on_c, 0, 71, 0
2, 41280, Note_on_c, 0, 76, 60
2, 41280, Note_on_c, 0, 79, 60
2, 41400, Note_on_c, 0, 79, 0
2, 41400, Note_on_c, 0, 76, 0
2, 41520, Note_on_c, 0, 72, 54
2, 41520, Note_on_c, 0, 76, 54
2, 41640, Note_on_c, 0, 76, 0
2, 41640, Note_on_c, 0, 72, 0
2, 41760, Note_on_c, 0, 77, 63
2, 41760, Note_on_c, 0, 81, 63
2, 41880, Note_on_c, 0, 81, 0
2, 41880, Note_on_c, 0, 77, 0
2, 42000, Note_on_c, 0, 71, 56
2, 42000, Note_on_c, 0, 74, 56
2, 42120, Note_on_c, 0, 74, 0
2, 42120, Note_on_c, 0, 71, 0
2, 42240, Note_on_c, 0, 76, 64
2, 42240, Note_on_c, 0, 79, 64
2, 42360, Note_on_c, 0, 79, 0
2, 42360, Note_on_c, 0, 76, 0
2, 42480, Note_on_c, 0, 72, 59
2, 42480, Note_on_c, 0, 76, 59
2, 42600, Note_on_c, 0, 76, 0
2, 42600, Note_on_c, 0, 72, 0
2, 42720, Note_on_c, 0, 85, 78
2, 42720, Note_on_c, 0, 81, 78
2, 42840, Note_on_c, 0, 81, 0
2, 42840, Note_on_c, 0, 85, 0
2, 42960, Note_on_c, 0, 75, 72
2, 42960, Note_on_c, 0, 78, 72
2, 43080, Note_on_c, 0, 78, 0
2, 43080, Note_on_c, 0, 75, 0
2, 43200, Note_on_c, 0, 83, 79
2, 43200, Note_on_c, 0, 80, 79
2, 43320, Note_on_c, 0, 80, 0
2, 43320, Note_on_c, 0, 83, 0
2, 43440, Note_on_c, 0, 76, 73
2, 43440, Note_on_c, 0, 80, 73
2, 43560, Note_on_c, 0, 80, 0
2, 43560, Note_on_c, 0, 76, 0
2, 43680, Note_on_c, 0, 85, 79
2, 43680, Note_on_c, 0, 81, 79
2, 43800, Note_on_c, 0, 81, 0
2, 43800, Note_on_c, 0, 85, 0
2, 43920, Note_on_c, 0, 75, 72
2, 43920, Note_on_c, 0, 78, 72
2, 44040, Note_on_c, 0, 78, 0
2, 44040, Note_on_c, 0, 75, 0
2, 44160, Note_on_c, 0, 83, 79
2, 44160, Note_on_c, 0, 80, 79
2, 44280, Note_on_c, 0, 80, 0
2, 44280, Note_on_c, 0, 83, 0
2, 44400, Note_on_c, 0, 76, 76
2, 44400, Note_on_c, 0, 80, 76
2, 44520, Note_on_c, 0, 80, 0
2, 44520, Note_on_c, 0, 76, 0
2, 44640, Note_on_c, 0, 80, 82
2, 44640, Note_on_c, 0, 83, 82
2, 44760, Note_on_c, 0, 83, 0
2, 44760, Note_on_c, 0, 80, 0
2, 44880, Note_on_c, 0, 76, 79
2, 44880, Note_on_c, 0, 80, 79
2, 45000, Note_on_c, 0, 80, 0
2, 45000, Note_on_c, 0, 76, 0
2, 45120, Note_on_c, 0, 83, 87
2, 45120, Note_on_c, 0, 80, 87
2, 45240, Note_on_c, 0, 80, 0
2, 45240, Note_on_c, 0, 83, 0
2, 45360, Note_on_c, 0, 76, 83
2, 45360, Note_on_c, 0, 80, 83
2, 45480, Note_on_c, 0, 80, 0
2, 45480, Note_on_c, 0, 76, 0
2, 45600, Note_on_c, 0, 80, 90
2, 45600, Note_on_c, 0, 83, 90
2, 45720, Note_on_c, 0, 83, 0
2, 45720, Note_on_c, 0, 80, 0
2, 45840, Note_on_c, 0, 76, 87
2, 45840, Note_on_c, 0, 80, 87
2, 45960, Note_on_c, 0, 80, 0
2, 45960, Note_on_c, 0, 76, 0
2, 46080, Note_on_c, 0, 58, 79
2, 47040, Note_on_c, 0, 58, 0
2, 47040, Note_on_c, 0, 83, 87
2, 47040, Note_on_c, 0, 80, 87
2, 47160, Note_on_c, 0, 80, 0
2, 47160, Note_on_c, 0, 83, 0
2, 47280, Note_on_c, 0, 76, 83
2, 47280, Note_on_c, 0, 80, 83
2, 47400, Note_on_c, 0, 80, 0
2, 47400, Note_on_c, 0, 76, 0
2, 47520, Note_on_c, 0, 80, 90
2, 47520, Note_on_c, 0, 83, 90
2, 47640, Note_on_c, 0, 83, 0
2, 47640, Note_on_c, 0, 80, 0
2, 47760, Note_on_c, 0, 76, 87
2, 47760, Note_on_c, 0, 80, 87
2, 47880, Note_on_c, 0, 80, 0
2, 47880, Note_on_c, 0, 76, 0
2, 48000, Note_on_c, 0, 58, 76
2, 48960, Note_on_c, 0, 58, 0
2, 48960, Note_on_c, 0, 83, 85
2, 48960, Note_on_c, 0, 80, 85
2, 49080, Note_on_c, 0, 80, 0
2, 49080, Note_on_c, 0, 83, 0
2, 49200, Note_on_c, 0, 76, 79
2, 49200, Note_on_c, 0, 80, 79
2, 49320, Note_on_c, 0, 80, 0
2, 49320, Note_on_c, 0, 76, 0
2, 49440, Note_on_c, 0, 80, 85
2, 49440, Note_on_c, 0, 83, 85
2, 49560, Note_on_c, 0, 83, 0
2, 49560, Note_on_c, 0, 80, 0
2, 49680, Note_on_c, 0, 76, 81
2, 49680, Note_on_c, 0, 80, 81
2, 49800, Note_on_c, 0, 80, 0
2, 49800, Note_on_c, 0, 76, 0
2, 49920, Note_on_c, 0, 58, 72
2, 58080, Note_on_c, 0, 58, 0
2, 58320, Note_on_c, 0, 63, 36
2, 58440, Note_on_c, 0, 63, 0
2, 58440, Note_on_c, 0, 65, 36
2, 58560, Note_on_c, 0, 65, 0
2, 58560, Note_on_c, 0, 70, 39
2, 58560, Note_on_c, 0, 66, 39
2, 58680, Note_on_c, 0, 66, 0
2, 58680, Note_on_c, 0, 70, 0
2, 58680, Note_on_c, 0, 65, 36
2, 58800, Note_on_c, 0, 65, 0
2, 58800, Note_on_c, 0, 63, 36
2, 58920, Note_on_c, 0, 63, 0
2, 58920, Note_on_c, 0, 65, 36
2, 59040, Note_on_c, 0, 65, 0
2, 59040, Note_on_c, 0, 66, 37
2, 59040, Note_on_c, 0, 70, 37
2, 59160, Note_on_c, 0, 70, 0
2, 59160, Note_on_c, 0, 66, 0
2, 59160, Note_on_c, 0, 65, 36
2, 59280, Note_on_c, 0, 65, 0
2, 59280, Note_on_c, 0, 63, 36
2, 59400, Note_on_c, 0, 63, 0
2, 59400, Note_on_c, 0, 65, 36
2, 59520, Note_on_c, 0, 65, 0
2, 59520, Note_on_c, 0, 70, 39
2, 59520, Note_on_c, 0, 66, 39
2, 59640, Note_on_c, 0, 66, 0
2, 59640, Note_on_c, 0, 70, 0
2, 59760, Note_on_c, 0, 66, 36
2, 59760, Note_on_c, 0, 63, 36
2, 59880, Note_on_c, 0, 63, 0
2, 59880, Note_on_c, 0, 66, 0
2, 60000, Note_on_c, 0, 66, 36
2, 60000, Note_on_c, 0, 63, 36
2, 60120, Note_on_c, 0, 63, 0
2, 60120, Note_on_c, 0, 66, 0
2, 60240, Note_on_c, 0, 70, 36
2, 60240, Note_on_c, 0, 66, 36
2, 60360, Note_on_c, 0, 66, 0
2, 60360, Note_on_c, 0, 70, 0
2, 60480, Note_on_c, 0, 65, 40
2, 60480, Note_on_c, 0, 69, 40
2, 60600, Note_on_c, 0, 69, 0
2, 60600, Note_on_c, 0, 65, 0
2, 60720, Note_on_c, 0, 60, 36
2, 60720, Note_on_c, 0, 65, 36
2, 60840, Note_on_c, 0, 65, 0
2, 60840, Note_on_c, 0, 60, 0
2, 60960, Note_on_c, 0, 60, 36
2, 60960, Note_on_c, 0, 65, 36
2, 61080, Note_on_c, 0, 65, 0
2, 61080, Note_on_c, 0, 60, 0
2, 61200, Note_on_c, 0, 65, 36
2, 61200, Note_on_c, 0, 69, 36
2, 61320, Note_on_c, 0, 69, 0
2, 61320, Note_on_c, 0, 65, 0
2, 61440, Note_on_c, 0, 65, 43
2, 61440, Note_on_c, 0, 69, 43
2, 62160, Note_on_c, 0, 69, 0
2, 62160, Note_on_c, 0, 65, 0
2, 62160, Note_on_c, 0, 68, 36
2, 62280, Note_on_c, 0, 68, 0
2, 62280, Note_on_c, 0, 70, 39
2, 62400, Note_on_c, 0, 70, 0
2, 62400, Note_on_c, 0, 71, 43
2, 62400, Note_on_c, 0, 75, 43
2, 62520, Note_on_c, 0, 75, 0
2, 62520, Note_on_c, 0, 71, 0
2, 62520, Note_on_c, 0, 70, 40
2, 62640, Note_on_c, 0, 70, 0
2, 62640, Note_on_c, 0, 68, 40
2, 62760, Note_on_c, 0, 68, 0
2, 62760, Note_on_c, 0, 70, 40
2, 62880, Note_on_c, 0, 70, 0
2, 62880, Note_on_c, 0, 71, 43
2, 62880, Note_on_c, 0, 75, 43
2, 63000, Note_on_c, 0, 75, 0
2, 63000, Note_on_c, 0, 71, 0
2, 63000, Note_on_c, 0, 70, 40
2, 63120, Note_on_c, 0, 70, 0
2, 63120, Note_on_c, 0, 68, 40
2, 63240, Note_on_c, 0, 68, 0
2, 63240, Note_on_c, 0, 70, 40
2, 63360, Note_on_c, 0, 70, 0
2, 63360, Note_on_c, 0, 71, 43
2, 63360, Note_on_c, 0, 75, 43
2, 63480, Note_on_c, 0, 75, 0
2, 63480, Note_on_c, 0, 71, 0
2, 63600, Note_on_c, 0, 68, 40
2, 63600, Note_on_c, 0, 71, 40
2, 63720, Note_on_c, 0, 71, 0
2, 63720, Note_on_c, 0, 68, 0
2, 63840, Note_on_c, 0, 71, 40
2, 63840, Note_on_c, 0, 68, 40
2, 63960, Note_on_c, 0, 68, 0
2, 63960, Note_on_c, 0, 71, 0
2, 64080, Note_on_c, 0, 71, 40
2, 64080, Note_on_c, 0, 75, 40
2, 64200, Note_on_c, 0, 75, 0
2, 64200, Note_on_c, 0, 71, 0
2, 64320, Note_on_c, 0, 70, 43
2, 64320, Note_on_c, 0, 74, 43
2, 64440, Note_on_c, 0, 74, 0
2, 64440, Note_on_c, 0, 70, 0
2, 64560, Note_on_c, 0, 65, 40
2, 64560, Note_on_c, 0, 70, 40
2, 64680, Note_on_c, 0, 70, 0
2, 64680, Note_on_c, 0, 65, 0
2, 64800, Note_on_c, 0, 65, 40
2, 64800, Note_on_c, 0, 70, 40
2, 64920, Note_on_c, 0, 70, 0
2, 64920, Note_on_c, 0, 65, 0
2, 65040, Note_on_c, 0, 70, 40
2, 65040, Note_on_c, 0, 74, 40
2, 65160, Note_on_c, 0, 74, 0
2, 65160, Note_on_c, 0, 70, 0
2, 65280, Note_on_c, 0, 70, 46
2, 65280, Note_on_c, 0, 74, 46
2, 65640, Note_on_c, 0, 74, 0
2, 65640, Note_on_c, 0, 70, 0
2, 66000, Note_on_c, 0, 83, 78
2, 66120, Note_on_c, 0, 83, 0
2, 66120, Note_on_c, 0, 85, 78
2, 66240, Note_on_c, 0, 85, 0
2, 66240, Note_on_c, 0, 87, 90
2, 66240, Note_on_c, 0, 90, 90
2, 66360, Note_on_c, 0, 90, 0
2, 66360, Note_on_c, 0, 87, 0
2, 66360, Note_on_c, 0, 85, 77
2, 66480, Note_on_c, 0, 85, 0
2, 66480, Note_on_c, 0, 83, 77
2, 66600, Note_on_c, 0, 83, 0
2, 66600, Note_on_c, 0, 85, 77
2, 66720, Note_on_c, 0, 85, 0
2, 66720, Note_on_c, 0, 90, 81
2, 66720, Note_on_c, 0, 87, 81
2, 66940, Note_on_c, 0, 87, 0
2, 66940, Note_on_c, 0, 90, 0
2, 66960, Note_on_c, 0, 78, 77
2, 67080, Note_on_c, 0, 78, 0
2, 67080, Note_on_c, 0, 80, 77
2, 67200, Note_on_c, 0, 80, 0
2, 67200, Note_on_c, 0, 85, 90
2, 67200, Note_on_c, 0, 82, 90
2, 67320, Note_on_c, 0, 82, 0
2, 67320, Note_on_c, 0, 85, 0
2, 67320, Note_on_c, 0, 80, 77
2, 67440, Note_on_c, 0, 80, 0
2, 67440, Note_on_c, 0, 78, 74
2, 67560, Note_on_c, 0, 78, 0
2, 67560, Note_on_c, 0, 80, 74
2, 67680, Note_on_c, 0, 80, 0
2, 67680, Note_on_c, 0, 85, 83
2, 67680, Note_on_c, 0, 82, 83
2, 67900, Note_on_c, 0, 82, 0
2, 67900, Note_on_c, 0, 85, 0
2, 67920, Note_on_c, 0, 76, 77
2, 68040, Note_on_c, 0, 76, 0
2, 68040, Note_on_c, 0, 78, 77
2, 68160, Note_on_c, 0, 78, 0
2, 68160, Note_on_c, 0, 80, 90
2, 68160, Note_on_c, 0, 83, 90
2, 68280, Note_on_c, 0, 83, 0
2, 68280, Note_on_c, 0, 80, 0
2, 68280, Note_on_c, 0, 78, 74
2, 68400, Note_on_c, 0, 78, 0
2, 68400, Note_on_c, 0, 76, 74
2, 68520, Note_on_c, 0, 76, 0
2, 68520, Note_on_c, 0, 78, 74
2, 68640, Note_on_c, 0, 78, 0
2, 68640, Note_on_c, 0, 83, 83
2, 68640, Note_on_c, 0, 80, 83
2, 68860, Note_on_c, 0, 80, 0
2, 68860, Note_on_c, 0, 83, 0
2, 68880, Note_on_c, 0, 71, 78
2, 69000, Note_on_c, 0, 71, 0
2, 69000, Note_on_c, 0, 73, 78
2, 69120, Note_on_c, 0, 73, 0
2, 69120, Note_on_c, 0, 78, 91
2, 69120, Note_on_c, 0, 75, 91
2, 69240, Note_on_c, 0, 75, 0
2, 69240, Note_on_c, 0, 78, 0
2, 69240, Note_on_c, 0, 73, 74
2, 69360, Note_on_c, 0, 73, 0
2, 69360, Note_on_c, 0, 71, 74
2, 69480, Note_on_c, 0, 71, 0
2, 69480, Note_on_c, 0, 73, 74
2, 69600, Note_on_c, 0, 73, 0
2, 69600, Note_on_c, 0, 78, 81
2, 69600, Note_on_c, 0, 75, 81
2, 69820, Note_on_c, 0, 75, 0
2, 69820, Note_on_c, 0, 78, 0
2, 69840, Note_on_c, 0, 58, 72
2, 69960, Note_on_c, 0, 58, 0
2, 69960, Note_on_c, 0, 59, 72
2, 70080, Note_on_c, 0, 59, 0
2, 70080, Note_on_c, 0, 61, 81
2, 70200, Note_on_c, 0, 61, 0
2, 70200, Note_on_c, 0, 59, 70
2, 70320, Note_on_c, 0, 59, 0
2, 70320, Note_on_c, 0, 58, 70
2, 70440, Note_on_c, 0, 58, 0
2, 70560, Note_on_c, 0, 59, 77
2, 70680, Note_on_c, 0, 59, 0
2, 70680, Note_on_c, 0, 58, 65
2, 70800, Note_on_c, 0, 58, 0
2, 70800, Note_on_c, 0, 56, 65
2, 70920, Note_on_c, 0, 56, 0
2, 71040, Note_on_c, 0, 58, 72
2, 71160, Note_on_c, 0, 58, 0
2, 71160, Note_on_c, 0, 56, 64
2, 71280, Note_on_c, 0, 56, 0
2, 71280, Note_on_c, 0, 54, 64
2, 71400, Note_on_c, 0, 54, 0
2, 71520, Note_on_c, 0, 56, 69
2, 71640, Note_on_c, 0, 56, 0
2, 71640, Note_on_c, 0, 54, 63
2, 71760, Note_on_c, 0, 54, 0
2, 71760, Note_on_c, 0, 53, 63
2, 71880, Note_on_c, 0, 53, 0
2, 72960, Note_on_c, 0, 56, 45
2, 73080, Note_on_c, 0, 56, 0
2, 73080, Note_on_c, 0, 54, 42
2, 73200, Note_on_c, 0, 54, 0
2, 73200, Note_on_c, 0, 52, 42
2, 73320, Note_on_c, 0, 52, 0
2, 73920, Note_on_c, 0, 51, 78
2, 74040, Note_on_c, 0, 51, 0
2, 74040, Note_on_c, 0, 58, 73
2, 74160, Note_on_c, 0, 58, 0
2, 74160, Note_on_c, 0, 63, 73
2, 74250, Note_on_c, 0, 63, 0
2, 74280, Note_on_c, 0, 63, 73
2, 74400, Note_on_c, 0, 63, 0
2, 74400, Note_on_c, 0, 70, 76
2, 74520, Note_on_c, 0, 70, 0
2, 74520, Note_on_c, 0, 75, 81
2, 74610, Note_on_c, 0, 75, 0
2, 74640, Note_on_c, 0, 75, 85
2, 74760, Note_on_c, 0, 75, 0
2, 74760, Note_on_c, 0, 82, 87
2, 74850, Note_on_c, 0, 82, 0
2, 74880, Note_on_c, 0, 75, 92
2, 74880, Note_on_c, 0, 87, 92
2, 74880, Note_on_c, 0, 82, 92
2, 75120, Note_on_c, 0, 82, 0
2, 75120, Note_on_c, 0, 87, 0
2, 75120, Note_on_c, 0, 75, 0
2, 75840, Note_on_c, 0, 47, 36
2, 75840, Note_on_c, 0, 50, 36
2, 75840, Note_on_c, 0, 53, 36
2, 77040, Note_on_c, 0, 53, 0
2, 77040, Note_on_c, 0, 50, 0
2, 77040, Note_on_c, 0, 47, 0
2, 77520, Note_on_c, 0, 50, 36
2, 77520, Note_on_c, 0, 53, 36
2, 77520, Note_on_c, 0, 59, 51
2, 77640, Note_on_c, 0, 59, 0
2, 77640, Note_on_c, 0, 53, 0
2, 77640, Note_on_c, 0, 50, 0
2, 77760, Note_on_c, 0, 50, 38
2, 77760, Note_on_c, 0, 53, 38
2, 77760, Note_on_c, 0, 59, 55
2, 77880, Note_on_c, 0, 59, 0
2, 77880, Note_on_c, 0, 53, 0
2, 77880, Note_on_c, 0, 50, 0
2, 78000, Note_on_c, 0, 50, 36
2, 78000, Note_on_c, 0, 53, 36
2, 78000, Note_on_c, 0, 58, 51
2, 78120, Note_on_c, 0, 58, 0
2, 78120, Note_on_c, 0, 53, 0
2, 78120, Note_on_c, 0, 50, 0
2, 78240, Note_on_c, 0, 50, 36
2, 78240, Note_on_c, 0, 53, 36
2, 78240, Note_on_c, 0, 58, 51
2, 78360, Note_on_c, 0, 58, 0
2, 78360, Note_on_c, 0, 53, 0
2, 78360, Note_on_c, 0, 50, 0
2, 78480, Note_on_c, 0, 50, 38
2, 78480, Note_on_c, 0, 53, 38
2, 78480, Note_on_c, 0, 57, 55
2, 78600, Note_on_c, 0, 57, 0
2, 78600, Note_on_c, 0, 53, 0
2, 78600, Note_on_c, 0, 50, 0
2, 78720, Note_on_c, 0, 50, 41
2, 78720, Note_on_c, 0, 53, 41
2, 78720, Note_on_c, 0, 57, 59
2, 78840, Note_on_c, 0, 57, 0
2, 78840, Note_on_c, 0, 53, 0
2, 78840, Note_on_c, 0, 50, 0
2, 78960, Note_on_c, 0, 50, 40
2, 78960, Note_on_c, 0, 53, 40
2, 78960, Note_on_c, 0, 56, 57
2, 79080, Note_on_c, 0, 56, 0
2, 79080, Note_on_c, 0, 53, 0
2, 79080, Note_on_c, 0, 50, 0
2, 79200, Note_on_c, 0, 50, 38
2, 79200, Note_on_c, 0, 53, 38
2, 79200, Note_on_c, 0, 56, 55
2, 79320, Note_on_c, 0, 56, 0
2, 79320, Note_on_c, 0, 53, 0
2, 79320, Note_on_c, 0, 50, 0
2, 79680, Note_on_c, 0, 50, 41
2, 79680, Note_on_c, 0, 53, 41
2, 79680, Note_on_c, 0, 56, 41
2, 80880, Note_on_c, 0, 56, 0
2, 80880, Note_on_c, 0, 53, 0
2, 80880, Note_on_c, 0, 50, 0
2, 81360, Note_on_c, 0, 53, 49
2, 81360, Note_on_c, 0, 56, 49
2, 81360, Note_on_c, 0, 62, 59
2, 81480, Note_on_c, 0, 62, 0
2, 81480, Note_on_c, 0, 56, 0
2, 81480, Note_on_c, 0, 53, 0
2, 81600, Note_on_c, 0, 53, 50
2, 81600, Note_on_c, 0, 56, 50
2, 81600, Note_on_c, 0, 62, 60
2, 81720, Note_on_c, 0, 62, 0
2, 81720, Note_on_c, 0, 56, 0
2, 81720, Note_on_c, 0, 53, 0
2, 81840, Note_on_c, 0, 53, 49
2, 81840, Note_on_c, 0, 56, 49
2, 81840, Note_on_c, 0, 61, 59
2, 81960, Note_on_c, 0, 61, 0
2, 81960, Note_on_c, 0, 56, 0
2, 81960, Note_on_c, 0, 53, 0
2, 82080, Note_on_c, 0, 53, 49
2, 82080, Note_on_c, 0, 56, 49
2, 82080, Note_on_c, 0, 61, 59
2, 82200, Note_on_c, 0, 61, 0
2, 82200, Note_on_c, 0, 56, 0
2, 82200, Note_on_c, 0, 53, 0
2, 82320, Note_on_c, 0, 53, 53
2, 82320, Note_on_c, 0, 56, 53
2, 82320, Note_on_c, 0, 60, 63
2, 82440, Note_on_c, 0, 60, 0
2, 82440, Note_on_c, 0, 56, 0
2, 82440, Note_on_c, 0, 53, 0
2, 82560, Note_on_c, 0, 53, 59
2, 82560, Note_on_c, 0, 56, 59
2, 82560, Note_on_c, 0, 60, 70
2, 82680, Note_on_c, 0, 60, 0
2, 82680, Note_on_c, 0, 56, 0
2, 82680, Note_on_c, 0, 53, 0
2, 82800, Note_on_c, 0, 53, 56
2, 82800, Note_on_c, 0, 56, 56
2, 82800, Note_on_c, 0, 59, 67
2, 82920, Note_on_c, 0, 59, 0
2, 82920, Note_on_c, 0, 56, 0
2, 82920, Note_on_c, 0, 53, 0
2, 83040, Note_on_c, 0, 53, 55
2, 83040, Note_on_c, 0, 56, 55
2, 83040, Note_on_c, 0, 59, 64
2, 83160, Note_on_c, 0, 59, 0
2, 83160, Note_on_c, 0, 56, 0
2, 83160, Note_on_c, 0, 53, 0
2, 83280, Note_on_c, 0, 56, 51
2, 83280, Note_on_c, 0, 59, 51
2, 83280, Note_on_c, 0, 65, 60
2, 83400, Note_on_c, 0, 65, 0
2, 83400, Note_on_c, 0, 59, 0
2, 83400, Note_on_c, 0, 56, 0
2, 83520, Note_on_c, 0, 56, 53
2, 83520, Note_on_c, 0, 59, 53
2, 83520, Note_on_c, 0, 65, 64
2, 83640, Note_on_c, 0, 65, 0
2, 83640, Note_on_c, 0, 59, 0
2, 83640, Note_on_c, 0, 56, 0
2, 83760, Note_on_c, 0, 56, 51
2, 83760, Note_on_c, 0, 59, 51
2, 83760, Note_on_c, 0, 64, 60
2, 83880, Note_on_c, 0, 64, 0
2, 83880, Note_on_c, 0, 59, 0
2, 83880, Note_on_c, 0, 56, 0
2, 84000, Note_on_c, 0, 56, 51
2, 84000, Note_on_c, 0, 59, 51
2, 84000, Note_on_c, 0, 64, 60
2, 84120, Note_on_c, 0, 64, 0
2, 84120, Note_on_c, 0, 59, 0
2, 84120, Note_on_c, 0, 56, 0
2, 84240, Note_on_c, 0, 56, 55
2, 84240, Note_on_c, 0, 60, 55
2, 84240, Note_on_c, 0, 63, 66
2, 84360, Note_on_c, 0, 63, 0
2, 84360, Note_on_c, 0, 60, 0
2, 84360, Note_on_c, 0, 56, 0
2, 84480, Note_on_c, 0, 56, 61
2, 84480, Note_on_c, 0, 59, 61
2, 84480, Note_on_c, 0, 63, 73
2, 84600, Note_on_c, 0, 63, 0
2, 84600, Note_on_c, 0, 59, 0
2, 84600, Note_on_c, 0, 56, 0
2, 84720, Note_on_c, 0, 56, 58
2, 84720, Note_on_c, 0, 59, 58
2, 84720, Note_on_c, 0, 62, 70
2, 84840, Note_on_c, 0, 62, 0
2, 84840, Note_on_c, 0, 59, 0
2, 84840, Note_on_c, 0, 56, 0
2, 84960, Note_on_c, 0, 56, 56
2, 84960, Note_on_c, 0, 59, 56
2, 84960, Note_on_c, 0, 62, 67
2, 85080, Note_on_c, 0, 62, 0
2, 85080, Note_on_c, 0, 59, 0
2, 85080, Note_on_c, 0, 56, 0
2, 85200, Note_on_c, 0, 59, 55
2, 85200, Note_on_c, 0, 62, 66
2, 85200, Note_on_c, 0, 68, 66
2, 85320, Note_on_c, 0, 68, 0
2, 85320, Note_on_c, 0, 62, 0
2, 85320, Note_on_c, 0, 59, 0
2, 85440, Note_on_c, 0, 59, 58
2, 85440, Note_on_c, 0, 62, 58
2, 85440, Note_on_c, 0, 68, 70
2, 85560, Note_on_c, 0, 68, 0
2, 85560, Note_on_c, 0, 62, 0
2, 85560, Note_on_c, 0, 59, 0
2, 85680, Note_on_c, 0, 59, 55
2, 85680, Note_on_c, 0, 62, 55
2, 85680, Note_on_c, 0, 67, 66
2, 85800, Note_on_c, 0, 67, 0
2, 85800, Note_on_c, 0, 62, 0
2, 85800, Note_on_c, 0, 59, 0
2, 85920, Note_on_c, 0, 59, 55
2, 85920, Note_on_c, 0, 62, 55
2, 85920, Note_on_c, 0, 67, 66
2, 86040, Note_on_c, 0, 67, 0
2, 86040, Note_on_c, 0, 62, 0
2, 86040, Note_on_c, 0, 59, 0
2, 86160, Note_on_c, 0, 59, 60
2, 86160, Note_on_c, 0, 62, 60
2, 86160, Note_on_c, 0, 66, 72
2, 86280, Note_on_c, 0, 66, 0
2, 86280, Note_on_c, 0, 62, 0
2, 86280, Note_on_c, 0, 59, 0
2, 86400, Note_on_c, 0, 59, 65
2, 86400, Note_on_c, 0, 62, 65
2, 86400, Note_on_c, 0, 66, 76
2, 86520, Note_on_c, 0, 66, 0
2, 86520, Note_on_c, 0, 62, 0
2, 86520, Note_on_c, 0, 59, 0
2, 86640, Note_on_c, 0, 59, 60
2, 86640, Note_on_c, 0, 62, 60
2, 86640, Note_on_c, 0, 65, 72
2, 86760, Note_on_c, 0, 65, 0
2, 86760, Note_on_c, 0, 62, 0
2, 86760, Note_on_c, 0, 59, 0
2, 86880, Note_on_c, 0, 59, 58
2, 86880, Note_on_c, 0, 62, 58
2, 86880, Note_on_c, 0, 65, 69
2, 87000, Note_on_c, 0, 65, 0
2, 87000, Note_on_c, 0, 62, 0
2, 87000, Note_on_c, 0, 59, 0
2, 87120, Note_on_c, 0, 62, 53
2, 87120, Note_on_c, 0, 65, 53
2, 87120, Note_on_c, 0, 71, 75
2, 87240, Note_on_c, 0, 71, 0
2, 87240, Note_on_c, 0, 65, 0
2, 87240, Note_on_c, 0, 62, 0
2, 87360, Note_on_c, 0, 62, 58
2, 87360, Note_on_c, 0, 65, 58
2, 87360, Note_on_c, 0, 71, 81
2, 87480, Note_on_c, 0, 71, 0
2, 87480, Note_on_c, 0, 65, 0
2, 87480, Note_on_c, 0, 62, 0
2, 87600, Note_on_c, 0, 62, 56
2, 87600, Note_on_c, 0, 65, 56
2, 87600, Note_on_c, 0, 70, 79
2, 87720, Note_on_c, 0, 70, 0
2, 87720, Note_on_c, 0, 65, 0
2, 87720, Note_on_c, 0, 62, 0
2, 87840, Note_on_c, 0, 62, 54
2, 87840, Note_on_c, 0, 65, 54
2, 87840, Note_on_c, 0, 70, 76
2, 87960, Note_on_c, 0, 70, 0
2, 87960, Note_on_c, 0, 65, 0
2, 87960, Note_on_c, 0, 62, 0
2, 88080, Note_on_c, 0, 65, 55
2, 88080, Note_on_c, 0, 68, 55
2, 88080, Note_on_c, 0, 74, 78
2, 88200, Note_on_c, 0, 74, 0
2, 88200, Note_on_c, 0, 68, 0
2, 88200, Note_on_c, 0, 65, 0
2, 88320, Note_on_c, 0, 65, 60
2, 88320, Note_on_c, 0, 68, 60
2, 88320, Note_on_c, 0, 74, 86
2, 88440, Note_on_c, 0, 74, 0
2, 88440, Note_on_c, 0, 68, 0
2, 88440, Note_on_c, 0, 65, 0
2, 88560, Note_on_c, 0, 65, 58
2, 88560, Note_on_c, 0, 68, 58
2, 88560, Note_on_c, 0, 73, 81
2, 88680, Note_on_c, 0, 73, 0
2, 88680, Note_on_c, 0, 68, 0
2, 88680, Note_on_c, 0, 65, 0
2, 88800, Note_on_c, 0, 65, 56
2, 88800, Note_on_c, 0, 68, 56
2, 88800, Note_on_c, 0, 73, 79
2, 88920, Note_on_c, 0, 73, 0
2, 88920, Note_on_c, 0, 68, 0
2, 88920, Note_on_c, 0, 65, 0
2, 89040, Note_on_c, 0, 68, 57
2, 89040, Note_on_c, 0, 71, 57
2, 89040, Note_on_c, 0, 77, 80
2, 89160, Note_on_c, 0, 77, 0
2, 89160, Note_on_c, 0, 71, 0
2, 89160, Note_on_c, 0, 68, 0
2, 89280, Note_on_c, 0, 68, 62
2, 89280, Note_on_c, 0, 71, 62
2, 89280, Note_on_c, 0, 77, 86
2, 89400, Note_on_c, 0, 77, 0
2, 89400, Note_on_c, 0, 71, 0
2, 89400, Note_on_c, 0, 68, 0
2, 89520, Note_on_c, 0, 68, 60
2, 89520, Note_on_c, 0, 71, 60
2, 89520, Note_on_c, 0, 76, 86
2, 89640, Note_on_c, 0, 76, 0
2, 89640, Note_on_c, 0, 71, 0
2, 89640, Note_on_c, 0, 68, 0
2, 89760, Note_on_c, 0, 68, 58
2, 89760, Note_on_c, 0, 71, 58
2, 89760, Note_on_c, 0, 76, 81
2, 89880, Note_on_c, 0, 76, 0
2, 89880, Note_on_c, 0, 71, 0
2, 89880, Note_on_c, 0, 68, 0
2, 90000, Note_on_c, 0, 71, 71
2, 90000, Note_on_c, 0, 74, 71
2, 90000, Note_on_c, 0, 80, 85
2, 90120, Note_on_c, 0, 80, 0
2, 90120, Note_on_c, 0, 74, 0
2, 90120, Note_on_c, 0, 71, 0
2, 90240, Note_on_c, 0, 71, 79
2, 90240, Note_on_c, 0, 74, 79
2, 90240, Note_on_c, 0, 80, 94
2, 90360, Note_on_c, 0, 80, 0
2, 90360, Note_on_c, 0, 74, 0
2, 90360, Note_on_c, 0, 71, 0
2, 90480, Note_on_c, 0, 71, 75
2, 90480, Note_on_c, 0, 74, 75
2, 90480, Note_on_c, 0, 79, 89
2, 90600, Note_on_c, 0, 79, 0
2, 90600, Note_on_c, 0, 74, 0
2, 90600, Note_on_c, 0, 71, 0
2, 90720, Note_on_c, 0, 71, 72
2, 90720, Note_on_c, 0, 74, 72
2, 90720, Note_on_c, 0, 79, 86
2, 90840, Note_on_c, 0, 79, 0
2, 90840, Note_on_c, 0, 74, 0
2, 90840, Note_on_c, 0, 71, 0
2, 90960, Note_on_c, 0, 72, 36
2, 91080, Note_on_c, 0, 72, 0
2, 91080, Note_on_c, 0, 74, 36
2, 91200, Note_on_c, 0, 74, 0
2, 91200, Note_on_c, 0, 79, 39
2, 91200, Note_on_c, 0, 76, 39
2, 91320, Note_on_c, 0, 76, 0
2, 91320, Note_on_c, 0, 79, 0
2, 91320, Note_on_c, 0, 74, 36
2, 91440, Note_on_c, 0, 74, 0
2, 91440, Note_on_c, 0, 72, 36
2, 91560, Note_on_c, 0, 72, 0
2, 91560, Note_on_c, 0, 74, 36
2, 91680, Note_on_c, 0, 74, 0
2, 91680, Note_on_c, 0, 76, 37
2, 91680, Note_on_c, 0, 79, 37
2, 91800, Note_on_c, 0, 79, 0
2, 91800, Note_on_c, 0, 76, 0
2, 91800, Note_on_c, 0, 74, 36
2, 91920, Note_on_c, 0, 74, 0
2, 91920, Note_on_c, 0, 72, 36
2, 92040, Note_on_c, 0, 72, 0
2, 92040, Note_on_c, 0, 74, 36
2, 92160, Note_on_c, 0, 74, 0
2, 92160, Note_on_c, 0, 79, 39
2, 92160, Note_on_c, 0, 76, 39
2, 92280, Note_on_c, 0, 76, 0
2, 92280, Note_on_c, 0, 79, 0
2, 92400, Note_on_c, 0, 76, 36
2, 92400, Note_on_c, 0, 72, 36
2, 92520, Note_on_c, 0, 72, 0
2, 92520, Note_on_c, 0, 76, 0
2, 92640, Note_on_c, 0, 76, 36
2, 92640, Note_on_c, 0, 72, 36
2, 92760, Note_on_c, 0, 72, 0
2, 92760, Note_on_c, 0, 76, 0
2, 92880, Note_on_c, 0, 79, 36
2, 92880, Note_on_c, 0, 76, 36
2, 93000, Note_on_c, 0, 76, 0
2, 93000, Note_on_c, 0, 79, 0
2, 93120, Note_on_c, 0, 77, 40
2, 93120, Note_on_c, 0, 81, 40
2, 93240, Note_on_c, 0, 81, 0
2, 93240, Note_on_c, 0, 77, 0
2, 93360, Note_on_c, 0, 71, 36
2, 93360, Note_on_c, 0, 74, 36
2, 93480, Note_on_c, 0, 74, 0
2, 93480, Note_on_c, 0, 71, 0
2, 93600, Note_on_c, 0, 71, 36
2, 93600, Note_on_c, 0, 74, 36
2, 93720, Note_on_c, 0, 74, 0
2, 93720, Note_on_c, 0, 71, 0
2, 93840, Note_on_c, 0, 77, 40
2, 93840, Note_on_c, 0, 81, 40
2, 93960, Note_on_c, 0, 81, 0
2, 93960, Note_on_c, 0, 77, 0
2, 94080, Note_on_c, 0, 77, 44
2, 94080, Note_on_c, 0, 81, 44
2, 94800, Note_on_c, 0, 81, 0
2, 94800, Note_on_c, 0, 77, 0
2, 94800, Note_on_c, 0, 72, 38
2, 94920, Note_on_c, 0, 72, 0
2, 94920, Note_on_c, 0, 74, 38
2, 95040, Note_on_c, 0, 74, 0
2, 95040, Note_on_c, 0, 79, 41
2, 95040, Note_on_c, 0, 76, 41
2, 95160, Note_on_c, 0, 76, 0
2, 95160, Note_on_c, 0, 79, 0
2, 95280, Note_on_c, 0, 76, 38
2, 95280, Note_on_c, 0, 72, 38
2, 95400, Note_on_c, 0, 72, 0
2, 95400, Note_on_c, 0, 76, 0
2, 95520, Note_on_c, 0, 76, 39
2, 95520, Note_on_c, 0, 72, 39
2, 95640, Note_on_c, 0, 72, 0
2, 95640, Note_on_c, 0, 76, 0
2, 95760, Note_on_c, 0, 79, 38
2, 95760, Note_on_c, 0, 76, 38
2, 95880, Note_on_c, 0, 76, 0
2, 95880, Note_on_c, 0, 79, 0
2, 96000, Note_on_c, 0, 77, 42
2, 96000, Note_on_c, 0, 81, 42
2, 96120, Note_on_c, 0, 81, 0
2, 96120, Note_on_c, 0, 77, 0
2, 96240, Note_on_c, 0, 71, 38
2, 96240, Note_on_c, 0, 74, 38
2, 96360, Note_on_c, 0, 74, 0
2, 96360, Note_on_c, 0, 71, 0
2, 96480, Note_on_c, 0, 71, 39
2, 96480, Note_on_c, 0, 74, 39
2, 96600, Note_on_c, 0, 74, 0
2, 96600, Note_on_c, 0, 71, 0
2, 96720, Note_on_c, 0, 77, 51
2, 96720, Note_on_c, 0, 81, 51
2, 96840, Note_on_c, 0, 81, 0
2, 96840, Note_on_c, 0, 77, 0
2, 96960, Note_on_c, 0, 76, 55
2, 96960, Note_on_c, 0, 79, 55
2, 97080, Note_on_c, 0, 79, 0
2, 97080, Note_on_c, 0, 76, 0
2, 97200, Note_on_c, 0, 72, 50
2, 97200, Note_on_c, 0, 76, 50
2, 97320, Note_on_c, 0, 76, 0
2, 97320, Note_on_c, 0, 72, 0
2, 97440, Note_on_c, 0, 77, 58
2, 97440, Note_on_c, 0, 81, 58
2, 97560, Note_on_c, 0, 81, 0
2, 97560, Note_on_c, 0, 77, 0
2, 97680, Note_on_c, 0, 71, 52
2, 97680, Note_on_c, 0, 74, 52
2, 97800, Note_on_c, 0, 74, 0
2, 97800, Note_on_c, 0, 71, 0
2, 97920, Note_on_c, 0, 76, 60
2, 97920, Note_on_c, 0, 79, 60
2, 98040, Note_on_c, 0, 79, 0
2, 98040, Note_on_c, 0, 76, 0
2, 98160, Note_on_c, 0, 72, 54
2, 98160, Note_on_c, 0, 76, 54
2, 98280, Note_on_c, 0, 76, 0
2, 98280, Note_on_c, 0, 72, 0
2, 98400, Note_on_c, 0, 77, 63
2, 98400, Note_on_c, 0, 81, 63
2, 98520, Note_on_c, 0, 81, 0
2, 98520, Note_on_c, 0, 77, 0
2, 98640, Note_on_c, 0, 71, 56
2, 98640, Note_on_c, 0, 74, 56
2, 98760, Note_on_c, 0, 74, 0
2, 98760, Note_on_c, 0, 71, 0
2, 98880, Note_on_c, 0, 76, 64
2, 98880, Note_on_c, 0, 79, 64
2, 99000, Note_on_c, 0, 79, 0
2, 99000, Note_on_c, 0, 76, 0
2, 99120, Note_on_c, 0, 72, 59
2, 99120, Note_on_c, 0, 76, 59
2, 99240, Note_on_c, 0, 76, 0
2, 99240, Note_on_c, 0, 72, 0
2, 99360, Note_on_c, 0, 85, 78
2, 99360, Note_on_c, 0, 81, 78
2, 99480, Note_on_c, 0, 81, 0
2, 99480, Note_on_c, 0, 85, 0
2, 99600, Note_on_c, 0, 75, 72
2, 99600, Note_on_c, 0, 78, 72
2, 99720, Note_on_c, 0, 78, 0
2, 99720, Note_on_c, 0, 75, 0
2, 99840, Note_on_c, 0, 83, 79
2, 99840, Note_on_c, 0, 80, 79
2, 99960, Note_on_c, 0, 80, 0
2, 99960, Note_on_c, 0, 83, 0
2, 100080, Note_on_c, 0, 76, 73
2, 100080, Note_on_c, 0, 80, 73
2, 100200, Note_on_c, 0, 80, 0
2, 100200, Note_on_c, 0, 76, 0
2, 100320, Note_on_c, 0, 85, 79
2, 100320, Note_on_c, 0, 81, 79
2, 100440, Note_on_c, 0, 81, 0
2, 100440, Note_on_c, 0, 85, 0
2, 100560, Note_on_c, 0, 75, 72
2, 100560, Note_on_c, 0, 78, 72
2, 100680, Note_on_c, 0, 78, 0
2, 100680, Note_on_c, 0, 75, 0
2, 100800, Note_on_c, 0, 83, 79
2, 100800, Note_on_c, 0, 80, 79
2, 100920, Note_on_c, 0, 80, 0
2, 100920, Note_on_c, 0, 83, 0
2, 101040, Note_on_c, 0, 76, 76
2, 101040, Note_on_c, 0, 80, 76
2, 101160, Note_on_c, 0, 80, 0
2, 101160, Note_on_c, 0, 76, 0
2, 101280, Note_on_c, 0, 80, 82
2, 101280, Note_on_c, 0, 83, 82
2, 101400, Note_on_c, 0, 83, 0
2, 101400, Note_on_c, 0, 80, 0
2, 101520, Note_on_c, 0, 76, 79
2, 101520, Note_on_c, 0, 80, 79
2, 101640, Note_on_c, 0, 80, 0
2, 101640, Note_on_c, 0, 76, 0
2, 101760, Note_on_c, 0, 83, 87
2, 101760, Note_on_c, 0, 80, 87
2, 101880, Note_on_c, 0, 80, 0
2, 101880, Note_on_c, 0, 83, 0
2, 102000, Note_on_c, 0, 76, 83
2, 102000, Note_on_c, 0, 80, 83
2, 102120, Note_on_c, 0, 80, 0
2, 102120, Note_on_c, 0, 76, 0
2, 102240, Note_on_c, 0, 80, 90
2, 102240, Note_on_c, 0, 83, 90
2, 102360, Note_on_c, 0, 83, 0
2, 102360, Note_on_c, 0, 80, 0
2, 102480, Note_on_c, 0, 76, 87
2, 102480, Note_on_c, 0, 80, 87
2, 102600, Note_on_c, 0, 80, 0
2, 102600, Note_on_c, 0, 76, 0
2, 102720, Note_on_c, 0, 58, 79
2, 103680, Note_on_c, 0, 58, 0
2, 103680, Note_on_c, 0, 83, 87
2, 103680, Note_on_c, 0, 80, 87
2, 103800, Note_on_c, 0, 80, 0
2, 103800, Note_on_c, 0, 83, 0
2, 103920, Note_on_c, 0, 76, 83
2, 103920, Note_on_c, 0, 80, 83
2, 104040, Note_on_c, 0, 80, 0
2, 104040, Note_on_c, 0, 76, 0
2, 104160, Note_on_c, 0, 80, 90
2, 104160, Note_on_c, 0, 83, 90
2, 104280, Note_on_c, 0, 83, 0
2, 104280, Note_on_c, 0, 80, 0
2, 104400, Note_on_c, 0, 76, 87
2, 104400, Note_on_c, 0, 80, 87
2, 104520, Note_on_c, 0, 80, 0
2, 104520, Note_on_c, 0, 76, 0
2, 104640, Note_on_c, 0, 58, 76
2, 105600, Note_on_c, 0, 58, 0
2, 105600, Note_on_c, 0, 83, 85
2, 105600, Note_on_c, 0, 80, 85
2, 105720, Note_on_c, 0, 80, 0
2, 105720, Note_on_c, 0, 83, 0
2, 105840, Note_on_c, 0, 76, 79
2, 105840, Note_on_c, 0, 80, 79
2, 105960, Note_on_c, 0, 80, 0
2, 105960, Note_on_c, 0, 76, 0
2, 106080, Note_on_c, 0, 80, 85
2, 106080, Note_on_c, 0, 83, 85
2, 106200, Note_on_c, 0, 83, 0
2, 106200, Note_on_c, 0, 80, 0
2, 106320, Note_on_c, 0, 76, 81
2, 106320, Note_on_c, 0, 80, 81
2, 106440, Note_on_c, 0, 80, 0
2, 106440, Note_on_c, 0, 76, 0
2, 106560, Note_on_c, 0, 58, 72
2, 114720, Note_on_c, 0, 58, 0
2, 114960, Note_on_c, 0, 63, 36
2, 115080, Note_on_c, 0, 63, 0
2, 115080, Note_on_c, 0, 65, 36
2, 115200, Note_on_c, 0, 65, 0
2, 115200, Note_on_c, 0, 70, 39
2, 115200, Note_on_c, 0, 66, 39
2, 115320, Note_on_c, 0, 66, 0
2, 115320, Note_on_c, 0, 70, 0
2, 115320, Note_on_c, 0, 65, 36
2, 115440, Note_on_c, 0, 65, 0
2, 115440, Note_on_c, 0, 63, 36
2, 115560, Note_on_c, 0, 63, 0
2, 115560, Note_on_c, 0, 65, 36
2, 115680, Note_on_c, 0, 65, 0
2, 115680, Note_on_c, 0, 66, 37
2, 115680, Note_on_c, 0, 70, 37
2, 115800, Note_on_c, 0, 70, 0
2, 115800, Note_on_c, 0, 66, 0
2, 115800, Note_on_c, 0, 65, 36
2, 115920, Note_on_c, 0, 65, 0
2, 115920, Note_on_c, 0, 63, 36
2, 116040, Note_on_c, 0, 63, 0
2, 116040, Note_on_c, 0, 65, 36
2, 116160, Note_on_c, 0, 65, 0
2, 116160, Note_on_c, 0, 70, 39
2, 116160, Note_on_c, 0, 66, 39
2, 116280, Note_on_c, 0, 66, 0
2, 116280, Note_on_c, 0, 70, 0
2, 116400, Note_on_c, 0, 66, 36
2, 116400, Note_on_c, 0, 63, 36
2, 116520, Note_on_c, 0, 63, 0
2, 116520, Note_on_c, 0, 66, 0
2, 116640, Note_on_c, 0, 66, 36
2, 116640, Note_on_c, 0, 63, 36
2, 116760, Note_on_c, 0, 63, 0
2, 116760, Note_on_c, 0, 66, 0
2, 116880, Note_on_c, 0, 70, 36
2, 116880, Note_on_c, 0, 66, 36
2, 117000, Note_on_c, 0, 66, 0
2, 117000, Note_on_c, 0, 70, 0
2, 117120, Note_on_c, 0, 65, 40
2, 117120, Note_on_c, 0, 69, 40
2, 117240, Note_on_c, 0, 69, 0
2, 117240, Note_on_c, 0, 65, 0
2, 117360, Note_on_c, 0, 60, 36
2, 117360, Note_on_c, 0, 65, 36
2, 117480, Note_on_c, 0, 65, 0
2, 117480, Note_on_c, 0, 60, 0
2, 117600, Note_on_c, 0, 60, 36
2, 117600, Note_on_c, 0, 65, 36
2, 117720, Note_on_c, 0, 65, 0
2, 117720, Note_on_c, 0, 60, 0
2, 117840, Note_on_c, 0, 65, 36
2, 117840, Note_on_c, 0, 69, 36
2, 117960, Note_on_c, 0, 69, 0
2, 117960, Note_on_c, 0, 65, 0
2, 118080, Note_on_c, 0, 65, 43
2, 118080, Note_on_c, 0, 69, 43
2, 118800, Note_on_c, 0, 69, 0
2, 118800, Note_on_c, 0, 65, 0
2, 118800, Note_on_c, 0, 68, 36
2, 118920, Note_on_c, 0, 68, 0
2, 118920, Note_on_c, 0, 70, 39
2, 119040, Note_on_c, 0, 70, 0
2, 119040, Note_on_c, 0, 71, 43
2, 119040, Note_on_c, 0, 75, 43
2, 119160, Note_on_c, 0, 75, 0
2, 119160, Note_on_c, 0, 71, 0
2, 119160, Note_on_c, 0, 70, 40
2, 119280, Note_on_c, 0, 70, 0
2, 119280, Note_on_c, 0, 68, 40
2, 119400, Note_on_c, 0, 68, 0
2, 119400, Note_on_c, 0, 70, 40
2, 119520, Note_on_c, 0, 70, 0
2, 119520, Note_on_c, 0, 71, 43
2, 119520, Note_on_c, 0, 75, 43
2, 119640, Note_on_c, 0, 75, 0
2, 119640, Note_on_c, 0, 71, 0
2, 119640, Note_on_c, 0, 70, 40
2, 119760, Note_on_c, 0, 70, 0
2, 119760, Note_on_c, 0, 68, 40
2, 119880, Note_on_c, 0, 68, 0
2, 119880, Note_on_c, 0, 70, 40
2, 120000, Note_on_c, 0, 70, 0
2, 120000, Note_on_c, 0, 71, 43
2, 120000, Note_on_c, 0, 75, 43
2, 120120, Note_on_c, 0, 75, 0
2, 120120, Note_on_c, 0, 71, 0
2, 120240, Note_on_c, 0, 68, 40
2, 120240, Note_on_c, 0, 71, 40
2, 120360, Note_on_c, 0, 71, 0
2, 120360, Note_on_c, 0, 68, 0
2, 120480, Note_on_c, 0, 71, 40
2, 120480, Note_on_c, 0, 68, 40
2, 120600, Note_on_c, 0, 68, 0
2, 120600, Note_on_c, 0, 71, 0
2, 120720, Note_on_c, 0, 71, 40
2, 120720, Note_on_c, 0, 75, 40
2, 120840, Note_on_c, 0, 75, 0
2, 120840, Note_on_c, 0, 71, 0
2, 120960, Note_on_c, 0, 70, 43
2, 120960, Note_on_c, 0, 74, 43
2, 121080, Note_on_c, 0, 74, 0
2, 121080, Note_on_c, 0, 70, 0
2, 121200, Note_on_c, 0, 65, 40
2, 121200, Note_on_c, 0, 70, 40
2, 121320, Note_on_c, 0, 70, 0
2, 121320, Note_on_c, 0, 65, 0
2, 121440, Note_on_c, 0, 65, 40
2, 121440, Note_on_c, 0, 70, 40
2, 121560, Note_on_c, 0, 70, 0
2, 121560, Note_on_c, 0, 65, 0
2, 121680, Note_on_c, 0, 70, 40
2, 121680, Note_on_c, 0, 74, 40
2, 121800, Note_on_c, 0, 74, 0
2, 121800, Note_on_c, 0, 70, 0
2, 121920, Note_on_c, 0, 70, 46
2, 121920, Note_on_c, 0, 74, 46
2, 122280, Note_on_c, 0, 74, 0
2, 122280, Note_on_c, 0, 70, 0
2, 122640, Note_on_c, 0, 83, 78
2, 122760, Note_on_c, 0, 83, 0
2, 122760, Note_on_c, 0, 85, 78
2, 122880, Note_on_c, 0, 85, 0
2, 122880, Note_on_c, 0, 87, 90
2, 122880, Note_on_c, 0, 90, 90
2, 123000, Note_on_c, 0, 90, 0
2, 123000, Note_on_c, 0, 87, 0
2, 123000, Note_on_c, 0, 85, 77
2, 123120, Note_on_c, 0, 85, 0
2, 123120, Note_on_c, 0, 83, 77
2, 123240, Note_on_c, 0, 83, 0
2, 123240, Note_on_c, 0, 85, 77
2, 123360, Note_on_c, 0, 85, 0
2, 123360, Note_on_c, 0, 90, 81
2, 123360, Note_on_c, 0, 87, 81
2, 123580, Note_on_c, 0, 87, 0
2, 123580, Note_on_c, 0, 90, 0
2, 123600, Note_on_c, 0, 78, 77
2, 123720, Note_on_c, 0, 78, 0
2, 123720, Note_on_c, 0, 80, 77
2, 123840, Note_on_c, 0, 80, 0
2, 123840, Note_on_c, 0, 85, 90
2, 123840, Note_on_c, 0, 82, 90
2, 123960, Note_on_c, 0, 82, 0
2, 123960, Note_on_c, 0, 85, 0
2, 123960, Note_on_c, 0, 80, 77
2, 124080, Note_on_c, 0, 80, 0
2, 124080, Note_on_c, 0, 78, 74
2, 124200, Note_on_c, 0, 78, 0
2, 124200, Note_on_c, 0, 80, 74
2, 124320, Note_on_c, 0, 80, 0
2, 124320, Note_on_c, 0, 85, 83
2, 124320, Note_on_c, 0, 82, 83
2, 124540, Note_on_c, 0, 82, 0
2, 124540, Note_on_c, 0, 85, 0
2, 124560, Note_on_c, 0, 76, 77
2, 124680, Note_on_c, 0, 76, 0
2, 124680, Note_on_c, 0, 78, 77
2, 124800, Note_on_c, 0, 78, 0
2, 124800, Note_on_c, 0, 80, 90
2, 124800, Note_on_c, 0, 83, 90
2, 124920, Note_on_c, 0, 83, 0
2, 124920, Note_on_c, 0, 80, 0
2, 124920, Note_on_c, 0, 78, 74
2, 125040, Note_on_c, 0, 78, 0
2, 125040, Note_on_c, 0, 76, 74
2, 125160, Note_on_c, 0, 76, 0
2, 125160, Note_on_c, 0, 78, 74
2, 125280, Note_on_c, 0, 78, 0
2, 125280, Note_on_c, 0, 83, 83
2, 125280, Note_on_c, 0, 80, 83
2, 125500, Note_on_c, 0, 80, 0
2, 125500, Note_on_c, 0, 83, 0
2, 125520, Note_on_c, 0, 71, 78
2, 125640, Note_on_c, 0, 71, 0
2, 125640, Note_on_c, 0, 73, 78
2, 125760, Note_on_c, 0, 73, 0
2, 125760, Note_on_c, 0, 78, 91
2, 125760, Note_on_c, 0, 75, 91
2, 125880, Note_on_c, 0, 75, 0
2, 125880, Note_on_c, 0, 78, 0
2, 125880, Note_on_c, 0, 73, 74
2, 126000, Note_on_c, 0, 73, 0
2, 126000, Note_on_c, 0, 71, 74
2, 126120, Note_on_c, 0, 71, 0
2, 126120, Note_on_c, 0, 73, 74
2, 126240, Note_on_c, 0, 73, 0
2, 126240, Note_on_c, 0, 78, 81
2, 126240, Note_on_c, 0, 75, 81
2, 126460, Note_on_c, 0, 75, 0
2, 126460, Note_on_c, 0, 78, 0
2, 126480, Note_on_c, 0, 58, 72
2, 126600, Note_on_c, 0, 58, 0
2, 126600, Note_on_c, 0, 59, 72
2, 126720, Note_on_c, 0, 59, 0
2, 126720, Note_on_c, 0, 61, 81
2, 126840, Note_on_c, 0, 61, 0
2, 126840, Note_on_c, 0, 59, 70
2, 126960, Note_on_c, 0, 59, 0
2, 126960, Note_on_c, 0, 58, 70
2, 127080, Note_on_c, 0, 58, 0
2, 127200, Note_on_c, 0, 59, 77
2, 127320, Note_on_c, 0, 59, 0
2, 127320, Note_on_c, 0, 58, 65
2, 127440, Note_on_c, 0, 58, 0
2, 127440, Note_on_c, 0, 56, 65
2, 127560, Note_on_c, 0, 56, 0
2, 127680, Note_on_c, 0, 58, 72
2, 127800, Note_on_c, 0, 58, 0
2, 127800, Note_on_c, 0, 56, 64
2, 127920, Note_on_c, 0, 56, 0
2, 127920, Note_on_c, 0, 54, 64
2, 128040, Note_on_c, 0, 54, 0
2, 128160, Note_on_c, 0, 56, 69
2, 128280, Note_on_c, 0, 56, 0
2, 128280, Note_on_c, 0, 54, 63
2, 128400, Note_on_c, 0, 54, 0
2, 128400, Note_on_c, 0, 53, 63
2, 128520, Note_on_c, 0, 53, 0
2, 129600, Note_on_c, 0, 56, 45
2, 129720, Note_on_c, 0, 56, 0
2, 129720, Note_on_c, 0, 54, 42
2, 129840, Note_on_c, 0, 54, 0
2, 129840, Note_on_c, 0, 52, 42
2, 129960, Note_on_c, 0, 52, 0
2, 130560, Note_on_c, 0, 51, 82
2, 130680, Note_on_c, 0, 51, 0
2, 130680, Note_on_c, 0, 58, 76
2, 130800, Note_on_c, 0, 58, 0
2, 130800, Note_on_c, 0, 63, 76
2, 130890, Note_on_c, 0, 63, 0
2, 130920, Note_on_c, 0, 63, 76
2, 131040, Note_on_c, 0, 63, 0
2, 131040, Note_on_c, 0, 70, 80
2, 131160, Note_on_c, 0, 70, 0
2, 131160, Note_on_c, 0, 75, 85
2, 131250, Note_on_c, 0, 75, 0
2, 131280, Note_on_c, 0, 75, 89
2, 131400, Note_on_c, 0, 75, 0
2, 131400, Note_on_c, 0, 82, 92
2, 131490, Note_on_c, 0, 82, 0
2, 131520, Note_on_c, 0, 75, 95
2, 131520, Note_on_c, 0, 87, 95
2, 131520, Note_on_c, 0, 82, 95
2, 131760, Note_on_c, 0, 82, 0
2, 131760, Note_on_c, 0, 87, 0
2, 131760, Note_on_c, 0, 75, 0
2, 131760, End_track
3, 0, Start_track
3, 0, Title_t, "Piano left"
3, 0, Program_c, 0, 0
3, 0, Control_c, 0, 7, 100
3, 0, Control_c, 0, 10, 64
3, 0, Control_c, 0, 91, 127
3, 0, Control_c, 0, 64, 0
3, 1, Note_on_c, 0, 39, 36
3, 121, Note_on_c, 0, 39, 0
3, 240, Note_on_c, 0, 46, 32
3, 360, Note_on_c, 0, 46, 0
3, 480, Note_on_c, 0, 39, 32
3, 600, Note_on_c, 0, 39, 0
3, 720, Note_on_c, 0, 34, 32
3, 840, Note_on_c, 0, 34, 0
3, 960, Note_on_c, 0, 39, 36
3, 1080, Note_on_c, 0, 39, 0
3, 1200, Note_on_c, 0, 46, 32
3, 1320, Note_on_c, 0, 46, 0
3, 1440, Note_on_c, 0, 39, 32
3, 1560, Note_on_c, 0, 39, 0
3, 1680, Note_on_c, 0, 34, 32
3, 1800, Note_on_c, 0, 34, 0
3, 1920, Note_on_c, 0, 39, 36
3, 2040, Note_on_c, 0, 39, 0
3, 2160, Note_on_c, 0, 46, 33
3, 2280, Note_on_c, 0, 46, 0
3, 2400, Note_on_c, 0, 39, 33
3, 2520, Note_on_c, 0, 39, 0
3, 2640, Note_on_c, 0, 34, 33
3, 2760, Note_on_c, 0, 34, 0
3, 2880, Note_on_c, 0, 39, 36
3, 3000, Note_on_c, 0, 39, 0
3, 3120, Note_on_c, 0, 46, 33
3, 3240, Note_on_c, 0, 46, 0
3, 3360, Note_on_c, 0, 39, 33
3, 3480, Note_on_c, 0, 39, 0
3, 3600, Note_on_c, 0, 34, 33
3, 3720, Note_on_c, 0, 34, 0
3, 3840, Note_on_c, 0, 39, 36
3, 3960, Note_on_c, 0, 39, 0
3, 4080, Note_on_c, 0, 46, 33
3, 4200, Note_on_c, 0, 46, 0
3, 4320, Note_on_c, 0, 39, 33
3, 4440, Note_on_c, 0, 39, 0
3, 4560, Note_on_c, 0, 34, 33
3, 4680, Note_on_c, 0, 34, 0
3, 4800, Note_on_c, 0, 39, 36
3, 4920, Note_on_c, 0, 39, 0
3, 5040, Note_on_c, 0, 46, 32
3, 5160, Note_on_c, 0, 46, 0
3, 5280, Note_on_c, 0, 39, 32
3, 5400, Note_on_c, 0, 39, 0
3, 5520, Note_on_c, 0, 34, 32
3, 5640, Note_on_c, 0, 34, 0
3, 5760, Note_on_c, 0, 39, 39
3, 5880, Note_on_c, 0, 39, 0
3, 6000, Note_on_c, 0, 46, 36
3, 6120, Note_on_c, 0, 46, 0
3, 6240, Note_on_c, 0, 39, 36
3, 6360, Note_on_c, 0, 39, 0
3, 6480, Note_on_c, 0, 34, 36
3, 6600, Note_on_c, 0, 34, 0
3, 6720, Note_on_c, 0, 39, 39
3, 6840, Note_on_c, 0, 39, 0
3, 6960, Note_on_c, 0, 46, 36
3, 7080, Note_on_c, 0, 46, 0
3, 7200, Note_on_c, 0, 39, 36
3, 7320, Note_on_c, 0, 39, 0
3, 7440, Note_on_c, 0, 34, 36
3, 7560, Note_on_c, 0, 34, 0
3, 7680, Note_on_c, 0, 39, 39
3, 7800, Note_on_c, 0, 39, 0
3, 7920, Note_on_c, 0, 46, 36
3, 8040, Note_on_c, 0, 46, 0
3, 8160, Note_on_c, 0, 39, 36
3, 8280, Note_on_c, 0, 39, 0
3, 8400, Note_on_c, 0, 34, 36
3, 8520, Note_on_c, 0, 34, 0
3, 8640, Note_on_c, 0, 39, 39
3, 8760, Note_on_c, 0, 39, 0
3, 8880, Note_on_c, 0, 46, 36
3, 9000, Note_on_c, 0, 46, 0
3, 9120, Note_on_c, 0, 39, 36
3, 9240, Note_on_c, 0, 39, 0
3, 9600, Note_on_c, 0, 66, 67
3, 9600, Note_on_c, 0, 73, 67
3, 10320, Note_on_c, 0, 73, 0
3, 10320, Note_on_c, 0, 66, 0
3, 10560, Note_on_c, 0, 68, 67
3, 10560, Note_on_c, 0, 61, 67
3, 11280, Note_on_c, 0, 61, 0
3, 11280, Note_on_c, 0, 68, 0
3, 11520, Note_on_c, 0, 66, 67
3, 11520, Note_on_c, 0, 59, 67
3, 12240, Note_on_c, 0, 59, 0
3, 12240, Note_on_c, 0, 66, 0
3, 12480, Note_on_c, 0, 61, 67
3, 12480, Note_on_c, 0, 54, 67
3, 13200, Note_on_c, 0, 54, 0
3, 13200, Note_on_c, 0, 61, 0
3, 13200, Note_on_c, 0, 41, 67
3, 13320, Note_on_c, 0, 41, 0
3, 13320, Note_on_c, 0, 42, 67
3, 13440, Note_on_c, 0, 42, 0
3, 13440, Note_on_c, 0, 44, 79
3, 13560, Note_on_c, 0, 44, 0
3, 13560, Note_on_c, 0, 42, 67
3, 13680, Note_on_c, 0, 42, 0
3, 13680, Note_on_c, 0, 41, 67
3, 13800, Note_on_c, 0, 41, 0
3, 13920, Note_on_c, 0, 42, 70
3, 14040, Note_on_c, 0, 42, 0
3, 14040, Note_on_c, 0, 41, 64
3, 14160, Note_on_c, 0, 41, 0
3, 14160, Note_on_c, 0, 39, 64
3, 14280, Note_on_c, 0, 39, 0
3, 14400, Note_on_c, 0, 41, 69
3, 14520, Note_on_c, 0, 41, 0
3, 14520, Note_on_c, 0, 39, 60
3, 14640, Note_on_c, 0, 39, 0
3, 14640, Note_on_c, 0, 37, 60
3, 14760, Note_on_c, 0, 37, 0
3, 14880, Note_on_c, 0, 39, 67
3, 15000, Note_on_c, 0, 39, 0
3, 15000, Note_on_c, 0, 37, 59
3, 15120, Note_on_c, 0, 37, 0
3, 15120, Note_on_c, 0, 36, 59
3, 15240, Note_on_c, 0, 36, 0
3, 16320, Note_on_c, 0, 39, 45
3, 16440, Note_on_c, 0, 39, 0
3, 16440, Note_on_c, 0, 37, 41
3, 16560, Note_on_c, 0, 37, 0
3, 16560, Note_on_c, 0, 35, 41
3, 16680, Note_on_c, 0, 35, 0
3, 17280, Note_on_c, 0, 34, 67
3, 17280, Note_on_c, 0, 41, 67
3, 17280, Control_c, 0, 64, 127
3, 18240, Note_on_c, 0, 41, 0
3, 18240, Note_on_c, 0, 34, 0
3, 18240, Note_on_c, 0, 65, 81
3, 18240, Note_on_c, 0, 58, 81
3, 18480, Note_on_c, 0, 58, 0
3, 18480, Note_on_c, 0, 65, 0
3, 18536, Control_c, 0, 64, 0
3, 18960, Note_on_c, 0, 32, 48
3, 19080, Note_on_c, 0, 32, 0
3, 19080, Note_on_c, 0, 34, 48
3, 19200, Note_on_c, 0, 34, 0
3, 19200, Note_on_c, 0, 35, 54
3, 19320, Note_on_c, 0, 35, 0
3, 19320, Note_on_c, 0, 34, 48
3, 19440, Note_on_c, 0, 34, 0
3, 19440, Note_on_c, 0, 32, 48
3, 19560, Note_on_c, 0, 32, 0
3, 19560, Note_on_c, 0, 34, 48
3, 19680, Note_on_c, 0, 34, 0
3, 19680, Note_on_c, 0, 35, 51
3, 19800, Note_on_c, 0, 35, 0
3, 19800, Note_on_c, 0, 34, 48
3, 19920, Note_on_c, 0, 34, 0
3, 19920, Note_on_c, 0, 32, 48
3, 20040, Note_on_c, 0, 32, 0
3, 20040, Note_on_c, 0, 34, 48
3, 20160, Note_on_c, 0, 34, 0
3, 20160, Note_on_c, 0, 35, 58
3, 20280, Note_on_c, 0, 35, 0
3, 20400, Note_on_c, 0, 32, 53
3, 20520, Note_on_c, 0, 32, 0
3, 20640, Note_on_c, 0, 32, 53
3, 20760, Note_on_c, 0, 32, 0
3, 21360, Note_on_c, 0, 46, 52
3, 21480, Note_on_c, 0, 46, 0
3, 21600, Note_on_c, 0, 46, 52
3, 21720, Note_on_c, 0, 46, 0
3, 21840, Note_on_c, 0, 47, 54
3, 21960, Note_on_c, 0, 47, 0
3, 22080, Note_on_c, 0, 47, 56
3, 22200, Note_on_c, 0, 47, 0
3, 22800, Note_on_c, 0, 35, 54
3, 22920, Note_on_c, 0, 35, 0
3, 22920, Note_on_c, 0, 37, 54
3, 23040, Note_on_c, 0, 37, 0
3, 23040, Note_on_c, 0, 38, 61
3, 23160, Note_on_c, 0, 38, 0
3, 23160, Note_on_c, 0, 37, 54
3, 23280, Note_on_c, 0, 37, 0
3, 23280, Note_on_c, 0, 35, 54
3, 23400, Note_on_c, 0, 35, 0
3, 23400, Note_on_c, 0, 37, 54
3, 23520, Note_on_c, 0, 37, 0
3, 23520, Note_on_c, 0, 38, 57
3, 23640, Note_on_c, 0, 38, 0
3, 23640, Note_on_c, 0, 37, 54
3, 23760, Note_on_c, 0, 37, 0
3, 23760, Note_on_c, 0, 35, 54
3, 23880, Note_on_c, 0, 35, 0
3, 23880, Note_on_c, 0, 37, 54
3, 24000, Note_on_c, 0, 37, 0
3, 24000, Note_on_c, 0, 38, 65
3, 24120, Note_on_c, 0, 38, 0
3, 24240, Note_on_c, 0, 35, 60
3, 24360, Note_on_c, 0, 35, 0
3, 24480, Note_on_c, 0, 35, 60
3, 24600, Note_on_c, 0, 35, 0
3, 25200, Note_on_c, 0, 49, 54
3, 25320, Note_on_c, 0, 49, 0
3, 25440, Note_on_c, 0, 49, 54
3, 25560, Note_on_c, 0, 49, 0
3, 25680, Note_on_c, 0, 50, 56
3, 25800, Note_on_c, 0, 50, 0
3, 25920, Note_on_c, 0, 50, 61
3, 26040, Note_on_c, 0, 50, 0
3, 27120, Note_on_c, 0, 52, 58
3, 27240, Note_on_c, 0, 52, 0
3, 27360, Note_on_c, 0, 52, 58
3, 27480, Note_on_c, 0, 52, 0
3, 27600, Note_on_c, 0, 53, 63
3, 27720, Note_on_c, 0, 53, 0
3, 27840, Note_on_c, 0, 53, 67
3, 27960, Note_on_c, 0, 53, 0
3, 29040, Note_on_c, 0, 55, 63
3, 29160, Note_on_c, 0, 55, 0
3, 29280, Note_on_c, 0, 55, 63
3, 29400, Note_on_c, 0, 55, 0
3, 29520, Note_on_c, 0, 56, 68
3, 29640, Note_on_c, 0, 56, 0
3, 29760, Note_on_c, 0, 56, 69
3, 29880, Note_on_c, 0, 56, 0
3, 30960, Note_on_c, 0, 58, 70
3, 31080, Note_on_c, 0, 58, 0
3, 31200, Note_on_c, 0, 58, 76
3, 31320, Note_on_c, 0, 58, 0
3, 31920, Note_on_c, 0, 61, 74
3, 32040, Note_on_c, 0, 61, 0
3, 32160, Note_on_c, 0, 61, 78
3, 32280, Note_on_c, 0, 61, 0
3, 32880, Note_on_c, 0, 64, 76
3, 33000, Note_on_c, 0, 64, 0
3, 33120, Note_on_c, 0, 64, 82
3, 33240, Note_on_c, 0, 64, 0
3, 33840, Note_on_c, 0, 67, 80
3, 33960, Note_on_c, 0, 67, 0
3, 34080, Note_on_c, 0, 67, 85
3, 34200, Note_on_c, 0, 67, 0
3, 34560, Note_on_c, 0, 67, 36
3, 34560, Note_on_c, 0, 60, 36
3, 34680, Note_on_c, 0, 60, 0
3, 34680, Note_on_c, 0, 67, 0
3, 34800, Note_on_c, 0, 67, 32
3, 34800, Note_on_c, 0, 60, 32
3, 34920, Note_on_c, 0, 60, 0
3, 34920, Note_on_c, 0, 67, 0
3, 35040, Note_on_c, 0, 67, 32
3, 35040, Note_on_c, 0, 60, 32
3, 35160, Note_on_c, 0, 60, 0
3, 35160, Note_on_c, 0, 67, 0
3, 35280, Note_on_c, 0, 67, 32
3, 35280, Note_on_c, 0, 60, 32
3, 35400, Note_on_c, 0, 60, 0
3, 35400, Note_on_c, 0, 67, 0
3, 35520, Note_on_c, 0, 67, 36
3, 35520, Note_on_c, 0, 60, 36
3, 35640, Note_on_c, 0, 60, 0
3, 35640, Note_on_c, 0, 67, 0
3, 35760, Note_on_c, 0, 67, 32
3, 35760, Note_on_c, 0, 60, 32
3, 35880, Note_on_c, 0, 60, 0
3, 35880, Note_on_c, 0, 67, 0
3, 36000, Note_on_c, 0, 67, 32
3, 36000, Note_on_c, 0, 60, 32
3, 36120, Note_on_c, 0, 60, 0
3, 36120, Note_on_c, 0, 67, 0
3, 36240, Note_on_c, 0, 67, 32
3, 36240, Note_on_c, 0, 60, 32
3, 36360, Note_on_c, 0, 60, 0
3, 36360, Note_on_c, 0, 67, 0
3, 36480, Note_on_c, 0, 67, 36
3, 36480, Note_on_c, 0, 60, 36
3, 36600, Note_on_c, 0, 60, 0
3, 36600, Note_on_c, 0, 67, 0
3, 36720, Note_on_c, 0, 67, 32
3, 36720, Note_on_c, 0, 60, 32
3, 36840, Note_on_c, 0, 60, 0
3, 36840, Note_on_c, 0, 67, 0
3, 36960, Note_on_c, 0, 67, 32
3, 36960, Note_on_c, 0, 60, 32
3, 37080, Note_on_c, 0, 60, 0
3, 37080, Note_on_c, 0, 67, 0
3, 37200, Note_on_c, 0, 67, 32
3, 37200, Note_on_c, 0, 60, 32
3, 37320, Note_on_c, 0, 60, 0
3, 37320, Note_on_c, 0, 67, 0
3, 37440, Note_on_c, 0, 67, 36
3, 37440, Note_on_c, 0, 60, 36
3, 37560, Note_on_c, 0, 60, 0
3, 37560, Note_on_c, 0, 67, 0
3, 37680, Note_on_c, 0, 67, 32
3, 37680, Note_on_c, 0, 60, 32
3, 37800, Note_on_c, 0, 60, 0
3, 37800, Note_on_c, 0, 67, 0
3, 37920, Note_on_c, 0, 67, 32
3, 37920, Note_on_c, 0, 60, 32
3, 38040, Note_on_c, 0, 60, 0
3, 38040, Note_on_c, 0, 67, 0
3, 38160, Note_on_c, 0, 60, 34
3, 38160, Note_on_c, 0, 67, 34
3, 38280, Note_on_c, 0, 67, 0
3, 38280, Note_on_c, 0, 60, 0
3, 38400, Note_on_c, 0, 67, 38
3, 38400, Note_on_c, 0, 60, 38
3, 38520, Note_on_c, 0, 60, 0
3, 38520, Note_on_c, 0, 67, 0
3, 38640, Note_on_c, 0, 67, 34
3, 38640, Note_on_c, 0, 60, 34
3, 38760, Note_on_c, 0, 60, 0
3, 38760, Note_on_c, 0, 67, 0
3, 38880, Note_on_c, 0, 60, 34
3, 38880, Note_on_c, 0, 67, 34
3, 39000, Note_on_c, 0, 67, 0
3, 39000, Note_on_c, 0, 60, 0
3, 39120, Note_on_c, 0, 67, 34
3, 39120, Note_on_c, 0, 60, 34
3, 39240, Note_on_c, 0, 60, 0
3, 39240, Note_on_c, 0, 67, 0
3, 39360, Note_on_c, 0, 60, 38
3, 39360, Note_on_c, 0, 67, 38
3, 39480, Note_on_c, 0, 67, 0
3, 39480, Note_on_c, 0, 60, 0
3, 39600, Note_on_c, 0, 67, 34
3, 39600, Note_on_c, 0, 60, 34
3, 39720, Note_on_c, 0, 60, 0
3, 39720, Note_on_c, 0, 67, 0
3, 39840, Note_on_c, 0, 67, 34
3, 39840, Note_on_c, 0, 60, 34
3, 39960, Note_on_c, 0, 60, 0
3, 39960, Note_on_c, 0, 67, 0
3, 40080, Note_on_c, 0, 60, 40
3, 40080, Note_on_c, 0, 67, 40
3, 40200, Note_on_c, 0, 67, 0
3, 40200, Note_on_c, 0, 60, 0
3, 40320, Note_on_c, 0, 67, 45
3, 40320, Note_on_c, 0, 60, 45
3, 40440, Note_on_c, 0, 60, 0
3, 40440, Note_on_c, 0, 67, 0
3, 40560, Note_on_c, 0, 67, 40
3, 40560, Note_on_c, 0, 60, 40
3, 40680, Note_on_c, 0, 60, 0
3, 40680, Note_on_c, 0, 67, 0
3, 40800, Note_on_c, 0, 60, 41
3, 40800, Note_on_c, 0, 67, 41
3, 40920, Note_on_c, 0, 67, 0
3, 40920, Note_on_c, 0, 60, 0
3, 41040, Note_on_c, 0, 67, 42
3, 41040, Note_on_c, 0, 60, 42
3, 41160, Note_on_c, 0, 60, 0
3, 41160, Note_on_c, 0, 67, 0
3, 41280, Note_on_c, 0, 67, 47
3, 41280, Note_on_c, 0, 60, 47
3, 41400, Note_on_c, 0, 60, 0
3, 41400, Note_on_c, 0, 67, 0
3, 41520, Note_on_c, 0, 67, 43
3, 41520, Note_on_c, 0, 60, 43
3, 41640, Note_on_c, 0, 60, 0
3, 41640, Note_on_c, 0, 67, 0
3, 41760, Note_on_c, 0, 60, 45
3, 41760, Note_on_c, 0, 67, 45
3, 41880, Note_on_c, 0, 67, 0
3, 41880, Note_on_c, 0, 60, 0
3, 42000, Note_on_c, 0, 67, 45
3, 42000, Note_on_c, 0, 60, 45
3, 42120, Note_on_c, 0, 60, 0
3, 42120, Note_on_c, 0, 67, 0
3, 42240, Note_on_c, 0, 67, 51
3, 42240, Note_on_c, 0, 60, 51
3, 42360, Note_on_c, 0, 60, 0
3, 42360, Note_on_c, 0, 67, 0
3, 42480, Note_on_c, 0, 67, 46
3, 42480, Note_on_c, 0, 60, 46
3, 42600, Note_on_c, 0, 60, 0
3, 42600, Note_on_c, 0, 67, 0
3, 42720, Note_on_c, 0, 71, 63
3, 42720, Note_on_c, 0, 64, 63
3, 42840, Note_on_c, 0, 64, 0
3, 42840, Note_on_c, 0, 71, 0
3, 42960, Note_on_c, 0, 71, 58
3, 42960, Note_on_c, 0, 64, 58
3, 43080, Note_on_c, 0, 64, 0
3, 43080, Note_on_c, 0, 71, 0
3, 43200, Note_on_c, 0, 64, 63
3, 43200, Note_on_c, 0, 71, 63
3, 43320, Note_on_c, 0, 71, 0
3, 43320, Note_on_c, 0, 64, 0
3, 43440, Note_on_c, 0, 64, 58
3, 43440, Note_on_c, 0, 71, 58
3, 43560, Note_on_c, 0, 71, 0
3, 43560, Note_on_c, 0, 64, 0
3, 43680, Note_on_c, 0, 64, 63
3, 43680, Note_on_c, 0, 71, 63
3, 43800, Note_on_c, 0, 71, 0
3, 43800, Note_on_c, 0, 64, 0
3, 43920, Note_on_c, 0, 64, 58
3, 43920, Note_on_c, 0, 71, 58
3, 44040, Note_on_c, 0, 71, 0
3, 44040, Note_on_c, 0, 64, 0
3, 44160, Note_on_c, 0, 64, 63
3, 44160, Note_on_c, 0, 71, 63
3, 44280, Note_on_c, 0, 71, 0
3, 44280, Note_on_c, 0, 64, 0
3, 44400, Note_on_c, 0, 64, 59
3, 44400, Note_on_c, 0, 71, 59
3, 44520, Note_on_c, 0, 71, 0
3, 44520, Note_on_c, 0, 64, 0
3, 44640, Note_on_c, 0, 64, 64
3, 44640, Note_on_c, 0, 71, 64
3, 44760, Note_on_c, 0, 71, 0
3, 44760, Note_on_c, 0, 64, 0
3, 44880, Note_on_c, 0, 64, 61
3, 44880, Note_on_c, 0, 71, 61
3, 45000, Note_on_c, 0, 71, 0
3, 45000, Note_on_c, 0, 64, 0
3, 45120, Note_on_c, 0, 64, 68
3, 45120, Note_on_c, 0, 71, 68
3, 45240, Note_on_c, 0, 71, 0
3, 45240, Note_on_c, 0, 64, 0
3, 45360, Note_on_c, 0, 64, 64
3, 45360, Note_on_c, 0, 71, 64
3, 45480, Note_on_c, 0, 71, 0
3, 45480, Note_on_c, 0, 64, 0
3, 45600, Note_on_c, 0, 64, 72
3, 45600, Note_on_c, 0, 71, 72
3, 45720, Note_on_c, 0, 71, 0
3, 45720, Note_on_c, 0, 64, 0
3, 45840, Note_on_c, 0, 64, 67
3, 45840, Note_on_c, 0, 71, 67
3, 45960, Note_on_c, 0, 71, 0
3, 45960, Note_on_c, 0, 64, 0
3, 47040, Note_on_c, 0, 64, 68
3, 47040, Note_on_c, 0, 71, 68
3, 47160, Note_on_c, 0, 71, 0
3, 47160, Note_on_c, 0, 64, 0
3, 47280, Note_on_c, 0, 64, 64
3, 47280, Note_on_c, 0, 71, 64
3, 47400, Note_on_c, 0, 71, 0
3, 47400, Note_on_c, 0, 64, 0
3, 47520, Note_on_c, 0, 64, 72
3, 47520, Note_on_c, 0, 71, 72
3, 47640, Note_on_c, 0, 71, 0
3, 47640, Note_on_c, 0, 64, 0
3, 47760, Note_on_c, 0, 64, 67
3, 47760, Note_on_c, 0, 71, 67
3, 47880, Note_on_c, 0, 71, 0
3, 47880, Note_on_c, 0, 64, 0
3, 48960, Note_on_c, 0, 64, 64
3, 48960, Note_on_c, 0, 71, 64
3, 49080, Note_on_c, 0, 71, 0
3, 49080, Note_on_c, 0, 64, 0
3, 49200, Note_on_c, 0, 64, 61
3, 49200, Note_on_c, 0, 71, 61
3, 49320, Note_on_c, 0, 71, 0
3, 49320, Note_on_c, 0, 64, 0
3, 49440, Note_on_c, 0, 64, 64
3, 49440, Note_on_c, 0, 71, 64
3, 49560, Note_on_c, 0, 71, 0
3, 49560, Note_on_c, 0, 64, 0
3, 49680, Note_on_c, 0, 64, 59
3, 49680, Note_on_c, 0, 71, 59
3, 49800, Note_on_c, 0, 71, 0
3, 49800, Note_on_c, 0, 64, 0
3, 50160, Note_on_c, 0, 57, 45
3, 50280, Note_on_c, 0, 57, 0
3, 50400, Note_on_c, 0, 56, 45
3, 50520, Note_on_c, 0, 56, 0
3, 50640, Note_on_c, 0, 55, 45
3, 50760, Note_on_c, 0, 55, 0
3, 50880, Note_on_c, 0, 54, 45
3, 51000, Note_on_c, 0, 54, 0
3, 51120, Note_on_c, 0, 53, 45
3, 51240, Note_on_c, 0, 53, 0
3, 51360, Note_on_c, 0, 52, 45
3, 51480, Note_on_c, 0, 52, 0
3, 51600, Note_on_c, 0, 51, 45
3, 51720, Note_on_c, 0, 51, 0
3, 52080, Note_on_c, 0, 50, 45
3, 52200, Note_on_c, 0, 50, 0
3, 52320, Note_on_c, 0, 49, 45
3, 52440, Note_on_c, 0, 49, 0
3, 52560, Note_on_c, 0, 48, 45
3, 52680, Note_on_c, 0, 48, 0
3, 52800, Note_on_c, 0, 47, 45
3, 52920, Note_on_c, 0, 47, 0
3, 53040, Note_on_c, 0, 46, 45
3, 53160, Note_on_c, 0, 46, 0
3, 53280, Note_on_c, 0, 45, 45
3, 53400, Note_on_c, 0, 45, 0
3, 53520, Note_on_c, 0, 44, 45
3, 53640, Note_on_c, 0, 44, 0
3, 54240, Note_on_c, 0, 43, 41
3, 54480, Note_on_c, 0, 43, 0
3, 55200, Note_on_c, 0, 42, 40
3, 55440, Note_on_c, 0, 42, 0
3, 56160, Note_on_c, 0, 41, 37
3, 56400, Note_on_c, 0, 41, 0
3, 57120, Note_on_c, 0, 40, 36
3, 57360, Note_on_c, 0, 40, 0
3, 58560, Note_on_c, 0, 39, 36
3, 58680, Note_on_c, 0, 39, 0
3, 58800, Note_on_c, 0, 46, 33
3, 58920, Note_on_c, 0, 46, 0
3, 59040, Note_on_c, 0, 39, 33
3, 59160, Note_on_c, 0, 39, 0
3, 59280, Note_on_c, 0, 34, 33
3, 59400, Note_on_c, 0, 34, 0
3, 59520, Note_on_c, 0, 39, 36
3, 59640, Note_on_c, 0, 39, 0
3, 59760, Note_on_c, 0, 46, 33
3, 59880, Note_on_c, 0, 46, 0
3, 60000, Note_on_c, 0, 39, 33
3, 60120, Note_on_c, 0, 39, 0
3, 60240, Note_on_c, 0, 34, 33
3, 60360, Note_on_c, 0, 34, 0
3, 60480, Note_on_c, 0, 39, 36
3, 60600, Note_on_c, 0, 39, 0
3, 60720, Note_on_c, 0, 46, 33
3, 60840, Note_on_c, 0, 46, 0
3, 60960, Note_on_c, 0, 39, 33
3, 61080, Note_on_c, 0, 39, 0
3, 61200, Note_on_c, 0, 34, 33
3, 61320, Note_on_c, 0, 34, 0
3, 61440, Note_on_c, 0, 39, 36
3, 61560, Note_on_c, 0, 39, 0
3, 61680, Note_on_c, 0, 46, 32
3, 61800, Note_on_c, 0, 46, 0
3, 61920, Note_on_c, 0, 39, 32
3, 62040, Note_on_c, 0, 39, 0
3, 62160, Note_on_c, 0, 34, 32
3, 62280, Note_on_c, 0, 34, 0
3, 62400, Note_on_c, 0, 39, 39
3, 62520, Note_on_c, 0, 39, 0
3, 62640, Note_on_c, 0, 46, 36
3, 62760, Note_on_c, 0, 46, 0
3, 62880, Note_on_c, 0, 39, 36
3, 63000, Note_on_c, 0, 39, 0
3, 63120, Note_on_c, 0, 34, 36
3, 63240, Note_on_c, 0, 34, 0
3, 63360, Note_on_c, 0, 39, 39
3, 63480, Note_on_c, 0, 39, 0
3, 63600, Note_on_c, 0, 46, 36
3, 63720, Note_on_c, 0, 46, 0
3, 63840, Note_on_c, 0, 39, 36
3, 63960, Note_on_c, 0, 39, 0
3, 64080, Note_on_c, 0, 34, 36
3, 64200, Note_on_c, 0, 34, 0
3, 64320, Note_on_c, 0, 39, 39
3, 64440, Note_on_c, 0, 39, 0
3, 64560, Note_on_c, 0, 46, 36
3, 64680, Note_on_c, 0, 46, 0
3, 64800, Note_on_c, 0, 39, 36
3, 64920, Note_on_c, 0, 39, 0
3, 65040, Note_on_c, 0, 34, 36
3, 65160, Note_on_c, 0, 34, 0
3, 65280, Note_on_c, 0, 39, 39
3, 65400, Note_on_c, 0, 39, 0
3, 65520, Note_on_c, 0, 46, 36
3, 65640, Note_on_c, 0, 46, 0
3, 65760, Note_on_c, 0, 39, 36
3, 65880, Note_on_c, 0, 39, 0
3, 66240, Note_on_c, 0, 78, 70
3, 66240, Note_on_c, 0, 71, 70
3, 66960, Note_on_c, 0, 71, 0
3, 66960, Note_on_c, 0, 78, 0
3, 67200, Note_on_c, 0, 66, 70
3, 67200, Note_on_c, 0, 73, 70
3, 67920, Note_on_c, 0, 73, 0
3, 67920, Note_on_c, 0, 66, 0
3, 68160, Note_on_c, 0, 64, 70
3, 68160, Note_on_c, 0, 71, 70
3, 68880, Note_on_c, 0, 71, 0
3, 68880, Note_on_c, 0, 64, 0
3, 69120, Note_on_c, 0, 59, 70
3, 69120, Note_on_c, 0, 66, 70
3, 69840, Note_on_c, 0, 66, 0
3, 69840, Note_on_c, 0, 59, 0
3, 69840, Note_on_c, 0, 46, 70
3, 69960, Note_on_c, 0, 46, 0
3, 69960, Note_on_c, 0, 47, 70
3, 70080, Note_on_c, 0, 47, 0
3, 70080, Note_on_c, 0, 49, 81
3, 70200, Note_on_c, 0, 49, 0
3, 70200, Note_on_c, 0, 47, 70
3, 70320, Note_on_c, 0, 47, 0
3, 70320, Note_on_c, 0, 46, 70
3, 70440, Note_on_c, 0, 46, 0
3, 70560, Note_on_c, 0, 47, 73
3, 70680, Note_on_c, 0, 47, 0
3, 70680, Note_on_c, 0, 46, 67
3, 70800, Note_on_c, 0, 46, 0
3, 70800, Note_on_c, 0, 44, 67
3, 70920, Note_on_c, 0, 44, 0
3, 71040, Note_on_c, 0, 46, 72
3, 71160, Note_on_c, 0, 46, 0
3, 71160, Note_on_c, 0, 44, 63
3, 71280, Note_on_c, 0, 44, 0
3, 71280, Note_on_c, 0, 42, 63
3, 71400, Note_on_c, 0, 42, 0
3, 71520, Note_on_c, 0, 44, 70
3, 71640, Note_on_c, 0, 44, 0
3, 71640, Note_on_c, 0, 42, 63
3, 71760, Note_on_c, 0, 42, 0
3, 71760, Note_on_c, 0, 41, 63
3, 71880, Note_on_c, 0, 41, 0
3, 72960, Note_on_c, 0, 44, 45
3, 73080, Note_on_c, 0, 44, 0
3, 73080, Note_on_c, 0, 42, 41
3, 73200, Note_on_c, 0, 42, 0
3, 73200, Note_on_c, 0, 40, 41
3, 73320, Note_on_c, 0, 40, 0
3, 73920, Control_c, 0, 64, 127
3, 73920, Note_on_c, 0, 39, 77
3, 73920, Note_on_c, 0, 46, 77
3, 74880, Note_on_c, 0, 46, 0
3, 74880, Note_on_c, 0, 39, 0
3, 74880, Note_on_c, 0, 70, 92
3, 74880, Note_on_c, 0, 63, 92
3, 75120, Note_on_c, 0, 63, 0
3, 75120, Note_on_c, 0, 70, 0
3, 75176, Control_c, 0, 64, 0
3, 75600, Note_on_c, 0, 32, 48
3, 75720, Note_on_c, 0, 32, 0
3, 75720, Note_on_c, 0, 34, 48
3, 75840, Note_on_c, 0, 34, 0
3, 75840, Note_on_c, 0, 35, 54
3, 75960, Note_on_c, 0, 35, 0
3, 75960, Note_on_c, 0, 34, 48
3, 76080, Note_on_c, 0, 34, 0
3, 76080, Note_on_c, 0, 32, 48
3, 76200, Note_on_c, 0, 32, 0
3, 76200, Note_on_c, 0, 34, 48
3, 76320, Note_on_c, 0, 34, 0
3, 76320, Note_on_c, 0, 35, 51
3, 76440, Note_on_c, 0, 35, 0
3, 76440, Note_on_c, 0, 34, 48
3, 76560, Note_on_c, 0, 34, 0
3, 76560, Note_on_c, 0, 32, 48
3, 76680, Note_on_c, 0, 32, 0
3, 76680, Note_on_c, 0, 34, 48
3, 76800, Note_on_c, 0, 34, 0
3, 76800, Note_on_c, 0, 35, 58
3, 76920, Note_on_c, 0, 35, 0
3, 77040, Note_on_c, 0, 32, 53
3, 77160, Note_on_c, 0, 32, 0
3, 77280, Note_on_c, 0, 32, 53
3, 77400, Note_on_c, 0, 32, 0
3, 78000, Note_on_c, 0, 46, 52
3, 78120, Note_on_c, 0, 46, 0
3, 78240, Note_on_c, 0, 46, 52
3, 78360, Note_on_c, 0, 46, 0
3, 78480, Note_on_c, 0, 47, 54
3, 78600, Note_on_c, 0, 47, 0
3, 78720, Note_on_c, 0, 47, 56
3, 78840, Note_on_c, 0, 47, 0
3, 79440, Note_on_c, 0, 35, 54
3, 79560, Note_on_c, 0, 35, 0
3, 79560, Note_on_c, 0, 37, 54
3, 79680, Note_on_c, 0, 37, 0
3, 79680, Note_on_c, 0, 38, 61
3, 79800, Note_on_c, 0, 38, 0
3, 79800, Note_on_c, 0, 37, 54
3, 79920, Note_on_c, 0, 37, 0
3, 79920, Note_on_c, 0, 35, 54
3, 80040, Note_on_c, 0, 35, 0
3, 80040, Note_on_c, 0, 37, 54
3, 80160, Note_on_c, 0, 37, 0
3, 80160, Note_on_c, 0, 38, 57
3, 80280, Note_on_c, 0, 38, 0
3, 80280, Note_on_c, 0, 37, 54
3, 80400, Note_on_c, 0, 37, 0
3, 80400, Note_on_c, 0, 35, 54
3, 80520, Note_on_c, 0, 35, 0
3, 80520, Note_on_c, 0, 37, 54
3, 80640, Note_on_c, 0, 37, 0
3, 80640, Note_on_c, 0, 38, 65
3, 80760, Note_on_c, 0, 38, 0
3, 80880, Note_on_c, 0, 35, 60
3, 81000, Note_on_c, 0, 35, 0
3, 81120, Note_on_c, 0, 35, 60
3, 81240, Note_on_c, 0, 35, 0
3, 81840, Note_on_c, 0, 49, 54
3, 81960, Note_on_c, 0, 49, 0
3, 82080, Note_on_c, 0, 49, 54
3, 82200, Note_on_c, 0, 49, 0
3, 82320, Note_on_c, 0, 50, 56
3, 82440, Note_on_c, 0, 50, 0
3, 82560, Note_on_c, 0, 50, 61
3, 82680, Note_on_c, 0, 50, 0
3, 83760, Note_on_c, 0, 52, 58
3, 83880, Note_on_c, 0, 52, 0
3, 84000, Note_on_c, 0, 52, 58
3, 84120, Note_on_c, 0, 52, 0
3, 84240, Note_on_c, 0, 53, 63
3, 84360, Note_on_c, 0, 53, 0
3, 84480, Note_on_c, 0, 53, 67
3, 84600, Note_on_c, 0, 53, 0
3, 85680, Note_on_c, 0, 55, 63
3, 85800, Note_on_c, 0, 55, 0
3, 85920, Note_on_c, 0, 55, 63
3, 86040, Note_on_c, 0, 55, 0
3, 86160, Note_on_c, 0, 56, 68
3, 86280, Note_on_c, 0, 56, 0
3, 86400, Note_on_c, 0, 56, 69
3, 86520, Note_on_c, 0, 56, 0
3, 87600, Note_on_c, 0, 58, 70
3, 87720, Note_on_c, 0, 58, 0
3, 87840, Note_on_c, 0, 58, 76
3, 87960, Note_on_c, 0, 58, 0
3, 88560, Note_on_c, 0, 61, 74
3, 88680, Note_on_c, 0, 61, 0
3, 88800, Note_on_c, 0, 61, 78
3, 88920, Note_on_c, 0, 61, 0
3, 89520, Note_on_c, 0, 64, 76
3, 89640, Note_on_c, 0, 64, 0
3, 89760, Note_on_c, 0, 64, 82
3, 89880, Note_on_c, 0, 64, 0
3, 90480, Note_on_c, 0, 67, 80
3, 90600, Note_on_c, 0, 67, 0
3, 90720, Note_on_c, 0, 67, 85
3, 90840, Note_on_c, 0, 67, 0
3, 91200, Note_on_c, 0, 67, 36
3, 91200, Note_on_c, 0, 60, 36
3, 91320, Note_on_c, 0, 60, 0
3, 91320, Note_on_c, 0, 67, 0
3, 91440, Note_on_c, 0, 67, 32
3, 91440, Note_on_c, 0, 60, 32
3, 91560, Note_on_c, 0, 60, 0
3, 91560, Note_on_c, 0, 67, 0
3, 91680, Note_on_c, 0, 67, 32
3, 91680, Note_on_c, 0, 60, 32
3, 91800, Note_on_c, 0, 60, 0
3, 91800, Note_on_c, 0, 67, 0
3, 91920, Note_on_c, 0, 67, 32
3, 91920, Note_on_c, 0, 60, 32
3, 92040, Note_on_c, 0, 60, 0
3, 92040, Note_on_c, 0, 67, 0
3, 92160, Note_on_c, 0, 67, 36
3, 92160, Note_on_c, 0, 60, 36
3, 92280, Note_on_c, 0, 60, 0
3, 92280, Note_on_c, 0, 67, 0
3, 92400, Note_on_c, 0, 67, 32
3, 92400, Note_on_c, 0, 60, 32
3, 92520, Note_on_c, 0, 60, 0
3, 92520, Note_on_c, 0, 67, 0
3, 92640, Note_on_c, 0, 67, 32
3, 92640, Note_on_c, 0, 60, 32
3, 92760, Note_on_c, 0, 60, 0
3, 92760, Note_on_c, 0, 67, 0
3, 92880, Note_on_c, 0, 67, 32
3, 92880, Note_on_c, 0, 60, 32
3, 93000, Note_on_c, 0, 60, 0
3, 93000, Note_on_c, 0, 67, 0
3, 93120, Note_on_c, 0, 67, 36
3, 93120, Note_on_c, 0, 60, 36
3, 93240, Note_on_c, 0, 60, 0
3, 93240, Note_on_c, 0, 67, 0
3, 93360, Note_on_c, 0, 67, 32
3, 93360, Note_on_c, 0, 60, 32
3, 93480, Note_on_c, 0, 60, 0
3, 93480, Note_on_c, 0, 67, 0
3, 93600, Note_on_c, 0, 67, 32
3, 93600, Note_on_c, 0, 60, 32
3, 93720, Note_on_c, 0, 60, 0
3, 93720, Note_on_c, 0, 67, 0
3, 93840, Note_on_c, 0, 67, 32
3, 93840, Note_on_c, 0, 60, 32
3, 93960, Note_on_c, 0, 60, 0
3, 93960, Note_on_c, 0, 67, 0
3, 94080, Note_on_c, 0, 67, 36
3, 94080, Note_on_c, 0, 60, 36
3, 94200, Note_on_c, 0, 60, 0
3, 94200, Note_on_c, 0, 67, 0
3, 94320, Note_on_c, 0, 67, 32
3, 94320, Note_on_c, 0, 60, 32
3, 94440, Note_on_c, 0, 60, 0
3, 94440, Note_on_c, 0, 67, 0
3, 94560, Note_on_c, 0, 67, 32
3, 94560, Note_on_c, 0, 60, 32
3, 94680, Note_on_c, 0, 60, 0
3, 94680, Note_on_c, 0, 67, 0
3, 94800, Note_on_c, 0, 60, 34
3, 94800, Note_on_c, 0, 67, 34
3, 94920, Note_on_c, 0, 67, 0
3, 94920, Note_on_c, 0, 60, 0
3, 95040, Note_on_c, 0, 67, 38
3, 95040, Note_on_c, 0, 60, 38
3, 95160, Note_on_c, 0, 60, 0
3, 95160, Note_on_c, 0, 67, 0
3, 95280, Note_on_c, 0, 67, 34
3, 95280, Note_on_c, 0, 60, 34
3, 95400, Note_on_c, 0, 60, 0
3, 95400, Note_on_c, 0, 67, 0
3, 95520, Note_on_c, 0, 60, 34
3, 95520, Note_on_c, 0, 67, 34
3, 95640, Note_on_c, 0, 67, 0
3, 95640, Note_on_c, 0, 60, 0
3, 95760, Note_on_c, 0, 67, 34
3, 95760, Note_on_c, 0, 60, 34
3, 95880, Note_on_c, 0, 60, 0
3, 95880, Note_on_c, 0, 67, 0
3, 96000, Note_on_c, 0, 60, 38
3, 96000, Note_on_c, 0, 67, 38
3, 96120, Note_on_c, 0, 67, 0
3, 96120, Note_on_c, 0, 60, 0
3, 96240, Note_on_c, 0, 67, 34
3, 96240, Note_on_c, 0, 60, 34
3, 96360, Note_on_c, 0, 60, 0
3, 96360, Note_on_c, 0, 67, 0
3, 96480, Note_on_c, 0, 67, 34
3, 96480, Note_on_c, 0, 60, 34
3, 96600, Note_on_c, 0, 60, 0
3, 96600, Note_on_c, 0, 67, 0
3, 96720, Note_on_c, 0, 60, 40
3, 96720, Note_on_c, 0, 67, 40
3, 96840, Note_on_c, 0, 67, 0
3, 96840, Note_on_c, 0, 60, 0
3, 96960, Note_on_c, 0, 67, 45
3, 96960, Note_on_c, 0, 60, 45
3, 97080, Note_on_c, 0, 60, 0
3, 97080, Note_on_c, 0, 67, 0
3, 97200, Note_on_c, 0, 67, 40
3, 97200, Note_on_c, 0, 60, 40
3, 97320, Note_on_c, 0, 60, 0
3, 97320, Note_on_c, 0, 67, 0
3, 97440, Note_on_c, 0, 60, 41
3, 97440, Note_on_c, 0, 67, 41
3, 97560, Note_on_c, 0, 67, 0
3, 97560, Note_on_c, 0, 60, 0
3, 97680, Note_on_c, 0, 67, 42
3, 97680, Note_on_c, 0, 60, 42
3, 97800, Note_on_c, 0, 60, 0
3, 97800, Note_on_c, 0, 67, 0
3, 97920, Note_on_c, 0, 67, 47
3, 97920, Note_on_c, 0, 60, 47
3, 98040, Note_on_c, 0, 60, 0
3, 98040, Note_on_c, 0, 67, 0
3, 98160, Note_on_c, 0, 67, 43
3, 98160, Note_on_c, 0, 60, 43
3, 98280, Note_on_c, 0, 60, 0
3, 98280, Note_on_c, 0, 67, 0
3, 98400, Note_on_c, 0, 60, 45
3, 98400, Note_on_c, 0, 67, 45
3, 98520, Note_on_c, 0, 67, 0
3, 98520, Note_on_c, 0, 60, 0
3, 98640, Note_on_c, 0, 67, 45
3, 98640, Note_on_c, 0, 60, 45
3, 98760, Note_on_c, 0, 60, 0
3, 98760, Note_on_c, 0, 67, 0
3, 98880, Note_on_c, 0, 67, 51
3, 98880, Note_on_c, 0, 60, 51
3, 99000, Note_on_c, 0, 60, 0
3, 99000, Note_on_c, 0, 67, 0
3, 99120, Note_on_c, 0, 67, 46
3, 99120, Note_on_c, 0, 60, 46
3, 99240, Note_on_c, 0, 60, 0
3, 99240, Note_on_c, 0, 67, 0
3, 99360, Note_on_c, 0, 71, 63
3, 99360, Note_on_c, 0, 64, 63
3, 99480, Note_on_c, 0, 64, 0
3, 99480, Note_on_c, 0, 71, 0
3, 99600, Note_on_c, 0, 71, 58
3, 99600, Note_on_c, 0, 64, 58
3, 99720, Note_on_c, 0, 64, 0
3, 99720, Note_on_c, 0, 71, 0
3, 99840, Note_on_c, 0, 64, 63
3, 99840, Note_on_c, 0, 71, 63
3, 99960, Note_on_c, 0, 71, 0
3, 99960, Note_on_c, 0, 64, 0
3, 100080, Note_on_c, 0, 64, 58
3, 100080, Note_on_c, 0, 71, 58
3, 100200, Note_on_c, 0, 71, 0
3, 100200, Note_on_c, 0, 64, 0
3, 100320, Note_on_c, 0, 64, 63
3, 100320, Note_on_c, 0, 71, 63
3, 100440, Note_on_c, 0, 71, 0
3, 100440, Note_on_c, 0, 64, 0
3, 100560, Note_on_c, 0, 64, 58
3, 100560, Note_on_c, 0, 71, 58
3, 100680, Note_on_c, 0, 71, 0
3, 100680, Note_on_c, 0, 64, 0
3, 100800, Note_on_c, 0, 64, 63
3, 100800, Note_on_c, 0, 71, 63
3, 100920, Note_on_c, 0, 71, 0
3, 100920, Note_on_c, 0, 64, 0
3, 101040, Note_on_c, 0, 64, 59
3, 101040, Note_on_c, 0, 71, 59
3, 101160, Note_on_c, 0, 71, 0
3, 101160, Note_on_c, 0, 64, 0
3, 101280, Note_on_c, 0, 64, 64
3, 101280, Note_on_c, 0, 71, 64
3, 101400, Note_on_c, 0, 71, 0
3, 101400, Note_on_c, 0, 64, 0
3, 101520, Note_on_c, 0, 64, 61
3, 101520, Note_on_c, 0, 71, 61
3, 101640, Note_on_c, 0, 71, 0
3, 101640, Note_on_c, 0, 64, 0
3, 101760, Note_on_c, 0, 64, 68
3, 101760, Note_on_c, 0, 71, 68
3, 101880, Note_on_c, 0, 71, 0
3, 101880, Note_on_c, 0, 64, 0
3, 102000, Note_on_c, 0, 64, 64
3, 102000, Note_on_c, 0, 71, 64
3, 102120, Note_on_c, 0, 71, 0
3, 102120, Note_on_c, 0, 64, 0
3, 102240, Note_on_c, 0, 64, 72
3, 102240, Note_on_c, 0, 71, 72
3, 102360, Note_on_c, 0, 71, 0
3, 102360, Note_on_c, 0, 64, 0
3, 102480, Note_on_c, 0, 64, 67
3, 102480, Note_on_c, 0, 71, 67
3, 102600, Note_on_c, 0, 71, 0
3, 102600, Note_on_c, 0, 64, 0
3, 103680, Note_on_c, 0, 64, 68
3, 103680, Note_on_c, 0, 71, 68
3, 103800, Note_on_c, 0, 71, 0
3, 103800, Note_on_c, 0, 64, 0
3, 103920, Note_on_c, 0, 64, 64
3, 103920, Note_on_c, 0, 71, 64
3, 104040, Note_on_c, 0, 71, 0
3, 104040, Note_on_c, 0, 64, 0
3, 104160, Note_on_c, 0, 64, 72
3, 104160, Note_on_c, 0, 71, 72
3, 104280, Note_on_c, 0, 71, 0
3, 104280, Note_on_c, 0, 64, 0
3, 104400, Note_on_c, 0, 64, 67
3, 104400, Note_on_c, 0, 71, 67
3, 104520, Note_on_c, 0, 71, 0
3, 104520, Note_on_c, 0, 64, 0
3, 105600, Note_on_c, 0, 64, 64
3, 105600, Note_on_c, 0, 71, 64
3, 105720, Note_on_c, 0, 71, 0
3, 105720, Note_on_c, 0, 64, 0
3, 105840, Note_on_c, 0, 64, 61
3, 105840, Note_on_c, 0, 71, 61
3, 105960, Note_on_c, 0, 71, 0
3, 105960, Note_on_c, 0, 64, 0
3, 106080, Note_on_c, 0, 64, 64
3, 106080, Note_on_c, 0, 71, 64
3, 106200, Note_on_c, 0, 71, 0
3, 106200, Note_on_c, 0, 64, 0
3, 106320, Note_on_c, 0, 64, 59
3, 106320, Note_on_c, 0, 71, 59
3, 106440, Note_on_c, 0, 71, 0
3, 106440, Note_on_c, 0, 64, 0
3, 106800, Note_on_c, 0, 57, 45
3, 106920, Note_on_c, 0, 57, 0
3, 107040, Note_on_c, 0, 56, 45
3, 107160, Note_on_c, 0, 56, 0
3, 107280, Note_on_c, 0, 55, 45
3, 107400, Note_on_c, 0, 55, 0
3, 107520, Note_on_c, 0, 54, 45
3, 107640, Note_on_c, 0, 54, 0
3, 107760, Note_on_c, 0, 53, 45
3, 107880, Note_on_c, 0, 53, 0
3, 108000, Note_on_c, 0, 52, 45
3, 108120, Note_on_c, 0, 52, 0
3, 108240, Note_on_c, 0, 51, 45
3, 108360, Note_on_c, 0, 51, 0
3, 108720, Note_on_c, 0, 50, 45
3, 108840, Note_on_c, 0, 50, 0
3, 108960, Note_on_c, 0, 49, 45
3, 109080, Note_on_c, 0, 49, 0
3, 109200, Note_on_c, 0, 48, 45
3, 109320, Note_on_c, 0, 48, 0
3, 109440, Note_on_c, 0, 47, 45
3, 109560, Note_on_c, 0, 47, 0
3, 109680, Note_on_c, 0, 46, 45
3, 109800, Note_on_c, 0, 46, 0
3, 109920, Note_on_c, 0, 45, 45
3, 110040, Note_on_c, 0, 45, 0
3, 110160, Note_on_c, 0, 44, 45
3, 110280, Note_on_c, 0, 44, 0
3, 110880, Note_on_c, 0, 43, 41
3, 111120, Note_on_c, 0, 43, 0
3, 111840, Note_on_c, 0, 42, 40
3, 112080, Note_on_c, 0, 42, 0
3, 112800, Note_on_c, 0, 41, 37
3, 113040, Note_on_c, 0, 41, 0
3, 113760, Note_on_c, 0, 40, 36
3, 114000, Note_on_c, 0, 40, 0
3, 115200, Note_on_c, 0, 39, 36
3, 115320, Note_on_c, 0, 39, 0
3, 115440, Note_on_c, 0, 46, 33
3, 115560, Note_on_c, 0, 46, 0
3, 115680, Note_on_c, 0, 39, 33
3, 115800, Note_on_c, 0, 39, 0
3, 115920, Note_on_c, 0, 34, 33
3, 116040, Note_on_c, 0, 34, 0
3, 116160, Note_on_c, 0, 39, 36
3, 116280, Note_on_c, 0, 39, 0
3, 116400, Note_on_c, 0, 46, 33
3, 116520, Note_on_c, 0, 46, 0
3, 116640, Note_on_c, 0, 39, 33
3, 116760, Note_on_c, 0, 39, 0
3, 116880, Note_on_c, 0, 34, 33
3, 117000, Note_on_c, 0, 34, 0
3, 117120, Note_on_c, 0, 39, 36
3, 117240, Note_on_c, 0, 39, 0
3, 117360, Note_on_c, 0, 46, 33
3, 117480, Note_on_c, 0, 46, 0
3, 117600, Note_on_c, 0, 39, 33
3, 117720, Note_on_c, 0, 39, 0
3, 117840, Note_on_c, 0, 34, 33
3, 117960, Note_on_c, 0, 34, 0
3, 118080, Note_on_c, 0, 39, 36
3, 118200, Note_on_c, 0, 39, 0
3, 118320, Note_on_c, 0, 46, 32
3, 118440, Note_on_c, 0, 46, 0
3, 118560, Note_on_c, 0, 39, 32
3, 118680, Note_on_c, 0, 39, 0
3, 118800, Note_on_c, 0, 34, 32
3, 118920, Note_on_c, 0, 34, 0
3, 119040, Note_on_c, 0, 39, 39
3, 119160, Note_on_c, 0, 39, 0
3, 119280, Note_on_c, 0, 46, 36
3, 119400, Note_on_c, 0, 46, 0
3, 119520, Note_on_c, 0, 39, 36
3, 119640, Note_on_c, 0, 39, 0
3, 119760, Note_on_c, 0, 34, 36
3, 119880, Note_on_c, 0, 34, 0
3, 120000, Note_on_c, 0, 39, 39
3, 120120, Note_on_c, 0, 39, 0
3, 120240, Note_on_c, 0, 46, 36
3, 120360, Note_on_c, 0, 46, 0
3, 120480, Note_on_c, 0, 39, 36
3, 120600, Note_on_c, 0, 39, 0
3, 120720, Note_on_c, 0, 34, 36
3, 120840, Note_on_c, 0, 34, 0
3, 120960, Note_on_c, 0, 39, 39
3, 121080, Note_on_c, 0, 39, 0
3, 121200, Note_on_c, 0, 46, 36
3, 121320, Note_on_c, 0, 46, 0
3, 121440, Note_on_c, 0, 39, 36
3, 121560, Note_on_c, 0, 39, 0
3, 121680, Note_on_c, 0, 34, 36
3, 121800, Note_on_c, 0, 34, 0
3, 121920, Note_on_c, 0, 39, 39
3, 122040, Note_on_c, 0, 39, 0
3, 122160, Note_on_c, 0, 46, 36
3, 122280, Note_on_c, 0, 46, 0
3, 122400, Note_on_c, 0, 39, 36
3, 122520, Note_on_c, 0, 39, 0
3, 122880, Note_on_c, 0, 78, 70
3, 122880, Note_on_c, 0, 71, 70
3, 123600, Note_on_c, 0, 71, 0
3, 123600, Note_on_c, 0, 78, 0
3, 123840, Note_on_c, 0, 66, 70
3, 123840, Note_on_c, 0, 73, 70
3, 124560, Note_on_c, 0, 73, 0
3, 124560, Note_on_c, 0, 66, 0
3, 124800, Note_on_c, 0, 64, 70
3, 124800, Note_on_c, 0, 71, 70
3, 125520, Note_on_c, 0, 71, 0
3, 125520, Note_on_c, 0, 64, 0
3, 125760, Note_on_c, 0, 59, 70
3, 125760, Note_on_c, 0, 66, 70
3, 126480, Note_on_c, 0, 66, 0
3, 126480, Note_on_c, 0, 59, 0
3, 126480, Note_on_c, 0, 46, 70
3, 126600, Note_on_c, 0, 46, 0
3, 126600, Note_on_c, 0, 47, 70
3, 126720, Note_on_c, 0, 47, 0
3, 126720, Note_on_c, 0, 49, 81
3, 126840, Note_on_c, 0, 49, 0
3, 126840, Note_on_c, 0, 47, 70
3, 126960, Note_on_c, 0, 47, 0
3, 126960, Note_on_c, 0, 46, 70
3, 127080, Note_on_c, 0, 46, 0
3, 127200, Note_on_c, 0, 47, 73
3, 127320, Note_on_c, 0, 47, 0
3, 127320, Note_on_c, 0, 46, 67
3, 127440, Note_on_c, 0, 46, 0
3, 127440, Note_on_c, 0, 44, 67
3, 127560, Note_on_c, 0, 44, 0
3, 127680, Note_on_c, 0, 46, 72
3, 127800, Note_on_c, 0, 46, 0
3, 127800, Note_on_c, 0, 44, 63
3, 127920, Note_on_c, 0, 44, 0
3, 127920, Note_on_c, 0, 42, 63
3, 128040, Note_on_c, 0, 42, 0
3, 128160, Note_on_c, 0, 44, 70
3, 128280, Note_on_c, 0, 44, 0
3, 128280, Note_on_c, 0, 42, 63
3, 128400, Note_on_c, 0, 42, 0
3, 128400, Note_on_c, 0, 41, 63
3, 128520, Note_on_c, 0, 41, 0
3, 129600, Note_on_c, 0, 44, 45
3, 129720, Note_on_c, 0, 44, 0
3, 129720, Note_on_c, 0, 42, 41
3, 129840, Note_on_c, 0, 42, 0
3, 129840, Note_on_c, 0, 40, 41
3, 129960, Note_on_c, 0, 40, 0
3, 130560, Control_c, 0, 64, 127
3, 130560, Note_on_c, 0, 39, 81
3, 130560, Note_on_c, 0, 46, 81
3, 131520, Note_on_c, 0, 46, 0
3, 131520, Note_on_c, 0, 39, 0
3, 131520, Note_on_c, 0, 70, 97
3, 131520, Note_on_c, 0, 63, 97
3, 131760, Note_on_c, 0, 63, 0
3, 131760, Note_on_c, 0, 70, 0
3, 131816, Control_c, 0, 64, 0
3, 131816, End_track
4, 0, Start_track
4, 0, Title_t, "Grieg: Kobold, Op. 12 No. 3"
4, 0, End_track
5, 0, Start_track
5, 0, Title_t, "Copyright © 1998 by Bernd Krueger"
5, 0, End_track
6, 0, Start_track
6, 0, Title_t, "http://www.piano-midi.de"
6, 0, End_track
7, 0, Start_track
7, 0, Title_t, "Edition: 2012-11-19"
7, 0, End_track
0, 0, End_of_file
