0, 0, Header, 1, 17, 480
1, 0, Start_track
1, 0, Title_t, "Grieg: Lyrische Stücke Op. 43 Nr. 6 Book III - An den Frühling"
1, 0, Copyright_t, "Copyright © 2007 by Bernd Krueger"
1, 0, Text_t, "Bernd Krueger"
1, 0, Text_t, "Allegro appassionato"
1, 0, Text_t, "Erstfassung,  nicht veröffentlicht: 24.5.2007\012"
1, 0, Text_t, "Erstellt: 14.9.2012\012"
1, 0, Text_t, "Dauer: 2:34 Minuten\012"
1, 0, Time_signature, 6, 2, 24, 8
1, 0, Key_signature, 6, "major"
1, 0, Tempo, 260926
1, 1440, Tempo, 258866
1, 2400, Tempo, 261974
1, 2880, Tempo, 260926
1, 4320, Tempo, 258866
1, 5280, Tempo, 261974
1, 5760, Tempo, 275229
1, 6240, Tempo, 260926
1, 7200, Tempo, 257843
1, 7680, Tempo, 259898
1, 8160, Tempo, 270673
1, 8640, Tempo, 258866
1, 9120, Tempo, 255831
1, 9600, Tempo, 258866
1, 10080, Tempo, 255831
1, 11040, Tempo, 266241
1, 11520, Tempo, 257843
1, 12000, Tempo, 255831
1, 12480, Tempo, 257843
1, 13440, Tempo, 255831
1, 13920, Tempo, 267833
1, 14400, Tempo, 255831
1, 14880, Tempo, 256827
1, 15840, Tempo, 252855
1, 16320, Tempo, 255831
1, 16800, Tempo, 268432
1, 17280, Tempo, 258866
1, 17760, Tempo, 255831
1, 18240, Tempo, 284225
1, 18720, Tempo, 256827
1, 19200, Tempo, 256717
1, 19680, Tempo, 263043
1, 20160, Tempo, 258866
1, 20640, Tempo, 254831
1, 21120, Tempo, 260926
1, 21600, Tempo, 258866
1, 22080, Tempo, 261974
1, 23040, Tempo, 261974
1, 23520, Tempo, 257843
1, 24000, Tempo, 275786
1, 24480, Tempo, 257843
1, 25440, Tempo, 264096
1, 25920, Tempo, 260926
1, 26880, Tempo, 258866
1, 27360, Tempo, 253829
1, 27840, Tempo, 256827
1, 28320, Tempo, 284954
1, 28800, Tempo, 260926
1, 29760, Tempo, 252855
1, 30240, Tempo, 260926
1, 30480, Tempo, 258866
1, 31200, Tempo, 265170
1, 31680, Tempo, 260926
1, 32160, Tempo, 258866
1, 32640, Tempo, 265170
1, 33120, Tempo, 260926
1, 33600, Tempo, 257843
1, 34080, Tempo, 266241
1, 34560, Tempo, 260926
1, 35520, Tempo, 252855
1, 36000, Tempo, 260926
1, 36240, Tempo, 258866
1, 36960, Tempo, 265170
1, 37440, Tempo, 260926
1, 37920, Tempo, 255831
1, 38400, Tempo, 265170
1, 38880, Tempo, 260926
1, 39360, Tempo, 257843
1, 39840, Tempo, 295537
1, 40320, Tempo, 268432
1, 41280, Tempo, 263043
1, 41760, Tempo, 271788
1, 42240, Tempo, 275875
1, 42720, Tempo, 292697
1, 42840, Tempo, 294855
1, 43200, Tempo, 261974
1, 43680, Tempo, 257843
1, 44160, Tempo, 265170
1, 44640, Tempo, 263043
1, 45120, Tempo, 259898
1, 45600, Tempo, 267344
1, 46080, Tempo, 261974
1, 46560, Tempo, 258866
1, 47520, Tempo, 253829
1, 48000, Tempo, 261974
1, 48480, Tempo, 268432
1, 48960, Tempo, 259898
1, 50400, Tempo, 266241
1, 50880, Tempo, 264096
1, 51360, Tempo, 266241
1, 51840, Tempo, 260926
1, 53280, Tempo, 256827
1, 53760, Tempo, 260926
1, 54240, Tempo, 282074
1, 54720, Tempo, 260926
1, 55200, Tempo, 257843
1, 55680, Tempo, 260926
1, 56160, Tempo, 259898
1, 56640, Tempo, 256827
1, 57120, Tempo, 264096
1, 57600, Tempo, 259898
1, 58080, Tempo, 256827
1, 58560, Tempo, 295537
1, 59040, Tempo, 270893
1, 59400, Tempo, 279083
1, 60000, Tempo, 298522
1, 60480, Tempo, 274060
1, 60960, Tempo, 264096
1, 61920, Tempo, 267344
1, 62880, Tempo, 317427
1, 63360, Tempo, 275229
1, 63840, Tempo, 260926
1, 64800, Tempo, 257843
1, 65280, Tempo, 266679
1, 65760, Tempo, 303813
1, 66240, Tempo, 258866
1, 66720, Tempo, 255831
1, 67200, Tempo, 258866
1, 67680, Tempo, 255831
1, 68640, Tempo, 266241
1, 69120, Tempo, 257843
1, 69600, Tempo, 255831
1, 70080, Tempo, 257843
1, 71040, Tempo, 255831
1, 71520, Tempo, 258866
1, 72000, Tempo, 255831
1, 72480, Tempo, 256827
1, 73440, Tempo, 252855
1, 73920, Tempo, 255831
1, 74400, Tempo, 268432
1, 74880, Tempo, 258866
1, 75360, Tempo, 255831
1, 75840, Tempo, 281360
1, 76320, Tempo, 256827
1, 77280, Tempo, 263043
1, 77760, Tempo, 258866
1, 78240, Tempo, 254831
1, 78720, Tempo, 260926
1, 79200, Tempo, 258866
1, 79680, Tempo, 261974
1, 80640, Tempo, 261974
1, 81120, Tempo, 257843
1, 81600, Tempo, 266548
1, 82080, Tempo, 257843
1, 83040, Tempo, 264096
1, 83520, Tempo, 260926
1, 84480, Tempo, 258866
1, 84960, Tempo, 253829
1, 85440, Tempo, 256827
1, 85920, Tempo, 295537
1, 86400, Tempo, 260926
1, 87360, Tempo, 252855
1, 87840, Tempo, 260926
1, 88080, Tempo, 258866
1, 88800, Tempo, 281360
1, 89280, Tempo, 260926
1, 89760, Tempo, 258866
1, 90240, Tempo, 265170
1, 90720, Tempo, 260926
1, 91200, Tempo, 257843
1, 91680, Tempo, 266241
1, 92160, Tempo, 260926
1, 93120, Tempo, 252855
1, 93600, Tempo, 260926
1, 93840, Tempo, 258866
1, 94560, Tempo, 265170
1, 95040, Tempo, 260926
1, 95520, Tempo, 255831
1, 96000, Tempo, 265170
1, 96480, Tempo, 260926
1, 96960, Tempo, 257843
1, 97440, Tempo, 289394
1, 97920, Tempo, 268432
1, 98880, Tempo, 263043
1, 99360, Tempo, 275242
1, 99960, Tempo, 279733
1, 100320, Tempo, 291163
1, 100800, Tempo, 261974
1, 101280, Tempo, 257843
1, 101760, Tempo, 265170
1, 102240, Tempo, 263043
1, 102720, Tempo, 259898
1, 103200, Tempo, 267344
1, 103680, Tempo, 261974
1, 104160, Tempo, 258866
1, 105120, Tempo, 253829
1, 105600, Tempo, 261974
1, 106080, Tempo, 268432
1, 106560, Tempo, 259898
1, 107520, Tempo, 287894
1, 108000, Tempo, 266241
1, 108480, Tempo, 264096
1, 108960, Tempo, 297915
1, 109440, Tempo, 260926
1, 110880, Tempo, 256827
1, 111360, Tempo, 260926
1, 111840, Tempo, 272926
1, 112320, Tempo, 260926
1, 112800, Tempo, 257843
1, 113280, Tempo, 260926
1, 113760, Tempo, 259898
1, 114240, Tempo, 256827
1, 114720, Tempo, 264096
1, 115200, Tempo, 259898
1, 115680, Tempo, 256827
1, 116160, Tempo, 281783
1, 116640, Tempo, 272121
1, 117240, Tempo, 278435
1, 117600, Tempo, 291985
1, 118080, Tempo, 274060
1, 118560, Tempo, 264096
1, 119520, Tempo, 267344
1, 120000, Tempo, 278966
1, 120960, Tempo, 290599
1, 121440, Tempo, 261301
1, 122400, Tempo, 254140
1, 122880, Tempo, 260688
1, 123360, Tempo, 330615
1, 123840, Tempo, 266288
1, 124320, Tempo, 258264
1, 124800, Tempo, 258264
1, 125280, Tempo, 254140
1, 125760, Tempo, 260688
1, 126240, Tempo, 278966
1, 126720, Tempo, 270173
1, 127200, Tempo, 255308
1, 128160, Tempo, 251847
1, 128640, Tempo, 256487
1, 129120, Tempo, 261906
1, 130080, Tempo, 265663
1, 130560, Tempo, 257080
1, 131040, Tempo, 252419
1, 131520, Tempo, 260078
1, 132000, Tempo, 297915
1, 132480, Tempo, 273486
1, 132960, Tempo, 257677
1, 133200, Tempo, 259471
1, 133440, Tempo, 258866
1, 133920, Tempo, 254140
1, 134160, Tempo, 255896
1, 134400, Tempo, 284954
1, 134880, Tempo, 268865
1, 135360, Tempo, 274160
1, 135840, Tempo, 256487
1, 136800, Tempo, 252994
1, 137280, Tempo, 261301
1, 137760, Tempo, 264399
1, 138240, Tempo, 262525
1, 138720, Tempo, 252994
1, 139200, Tempo, 280649
1, 139680, Tempo, 256487
1, 140160, Tempo, 259471
1, 140400, Tempo, 260688
1, 140640, Tempo, 268216
1, 141120, Tempo, 266288
1, 141600, Tempo, 252994
1, 142080, Tempo, 255308
1, 142560, Tempo, 256487
1, 143040, Tempo, 266928
1, 143520, Tempo, 263771
1, 144000, Tempo, 251847
1, 144480, Tempo, 256487
1, 144960, Tempo, 265029
1, 145440, Tempo, 258264
1, 145920, Tempo, 263146
1, 146160, Tempo, 260688
1, 146400, Tempo, 266288
1, 146880, Tempo, 249252
1, 147360, Tempo, 254723
1, 147840, Tempo, 258264
1, 148320, Tempo, 259471
1, 148800, Tempo, 258264
1, 149040, Tempo, 258264
1, 149280, Tempo, 263146
1, 149760, Tempo, 248149
1, 150240, Tempo, 255896
1, 150720, Tempo, 263146
1, 151200, Tempo, 259471
1, 151680, Tempo, 254140
1, 152160, Tempo, 260078
1, 152640, Tempo, 248149
1, 153120, Tempo, 254723
1, 153600, Tempo, 256487
1, 154080, Tempo, 258866
1, 154560, Tempo, 252994
1, 155040, Tempo, 259471
1, 155520, Tempo, 240125
1, 156000, Tempo, 247596
1, 156480, Tempo, 238067
1, 156960, Tempo, 243803
1, 157440, Tempo, 236053
1, 157920, Tempo, 242209
1, 158400, Tempo, 232603
1, 158880, Tempo, 237060
1, 159360, Tempo, 229727
1, 159840, Tempo, 234558
1, 160320, Tempo, 227842
1, 160800, Tempo, 297915
1, 161280, Tempo, 263146
1, 161760, Tempo, 252419
1, 162773, Tempo, 251425
1, 162800, Tempo, 249594
1, 162838, Tempo, 245198
1, 163104, Tempo, 244658
1, 163318, Tempo, 244121
1, 163531, Tempo, 243586
1, 163798, Tempo, 243053
1, 164011, Tempo, 242522
1, 164224, Tempo, 242004
1, 164491, Tempo, 241478
1, 164704, Tempo, 240954
1, 164918, Tempo, 240433
1, 165184, Tempo, 239914
1, 165398, Tempo, 239397
1, 165611, Tempo, 238892
1, 165824, Tempo, 238379
1, 166080, Tempo, 269518
1, 166560, Tempo, 242522
1, 167040, Tempo, 261301
1, 167520, Tempo, 252419
1, 168331, Tempo, 243053
1, 168598, Tempo, 242522
1, 168864, Tempo, 242004
1, 169131, Tempo, 241478
1, 169398, Tempo, 240954
1, 169664, Tempo, 240433
1, 169931, Tempo, 239914
1, 170198, Tempo, 239397
1, 170464, Tempo, 238892
1, 170731, Tempo, 238379
1, 170998, Tempo, 237869
1, 171264, Tempo, 237361
1, 171531, Tempo, 236855
1, 171798, Tempo, 236351
1, 171811, Tempo, 241293
1, 171840, Tempo, 266928
1, 172320, Tempo, 244658
1, 172560, Tempo, 244121
1, 172800, Tempo, 262525
1, 173280, Tempo, 253571
1, 174240, Tempo, 248643
1, 174251, Tempo, 245198
1, 174411, Tempo, 244658
1, 174571, Tempo, 244121
1, 174731, Tempo, 243586
1, 174838, Tempo, 243053
1, 174998, Tempo, 242522
1, 175158, Tempo, 242004
1, 175264, Tempo, 241478
1, 175424, Tempo, 240954
1, 175584, Tempo, 240433
1, 175691, Tempo, 239914
1, 175704, Tempo, 243932
1, 175707, Tempo, 242522
1, 175744, Tempo, 238892
1, 177200, Tempo, 242004
1, 177546, Tempo, 243932
1, 177600, Tempo, 272146
1, 178080, Tempo, 247372
1, 178320, Tempo, 247270
1, 178560, Tempo, 257080
1, 179040, Tempo, 249813
1, 179920, Tempo, 243803
1, 180048, Tempo, 243270
1, 180176, Tempo, 242738
1, 180272, Tempo, 242209
1, 180400, Tempo, 241682
1, 180496, Tempo, 241158
1, 180624, Tempo, 240645
1, 180720, Tempo, 240125
1, 180848, Tempo, 239607
1, 180944, Tempo, 239091
1, 180960, Tempo, 253571
1, 181440, Tempo, 251277
1, 181894, Tempo, 265498
1, 181926, Tempo, 266087
1, 181958, Tempo, 266679
1, 181990, Tempo, 267272
1, 182022, Tempo, 267869
1, 182054, Tempo, 268468
1, 182086, Tempo, 269070
1, 182118, Tempo, 269675
1, 182150, Tempo, 270282
1, 182182, Tempo, 270893
1, 182214, Tempo, 271505
1, 182246, Tempo, 272121
1, 182278, Tempo, 272740
1, 182310, Tempo, 273361
1, 182342, Tempo, 273985
1, 182374, Tempo, 274612
1, 182406, Tempo, 275242
1, 182438, Tempo, 275875
1, 182470, Tempo, 276510
1, 182502, Tempo, 277149
1, 182534, Tempo, 277791
1, 182566, Tempo, 278435
1, 182598, Tempo, 279083
1, 182630, Tempo, 279733
1, 182662, Tempo, 280387
1, 182694, Tempo, 281044
1, 182726, Tempo, 281703
1, 182758, Tempo, 282366
1, 182790, Tempo, 283032
1, 182822, Tempo, 283701
1, 182854, Tempo, 284374
1, 182886, Tempo, 285049
1, 182918, Tempo, 285728
1, 182950, Tempo, 286410
1, 182982, Tempo, 287095
1, 183014, Tempo, 287784
1, 183046, Tempo, 288475
1, 183078, Tempo, 289171
1, 183110, Tempo, 289869
1, 183142, Tempo, 290571
1, 183174, Tempo, 291276
1, 183206, Tempo, 291985
1, 183238, Tempo, 292697
1, 183270, Tempo, 293413
1, 183302, Tempo, 294132
1, 183334, Tempo, 294855
1, 183360, Tempo, 314153
1, 183840, Tempo, 884304
1, 184200, Tempo, 331602
1, 184320, Tempo, 275229
1, 184320, Marker_t, "Tempo I"
1, 184752, Tempo, 264644
1, 184859, Tempo, 264026
1, 184966, Tempo, 263401
1, 185072, Tempo, 262778
1, 185179, Tempo, 262158
1, 185286, Tempo, 261540
1, 185392, Tempo, 260926
1, 185499, Tempo, 260315
1, 185552, Tempo, 259718
1, 185760, Tempo, 257843
1, 186240, Tempo, 259898
1, 186720, Tempo, 293198
1, 187080, Tempo, 267189
1, 187200, Tempo, 258866
1, 187680, Tempo, 255831
1, 188160, Tempo, 258866
1, 188640, Tempo, 255831
1, 189600, Tempo, 274424
1, 189960, Tempo, 257312
1, 190080, Tempo, 257843
1, 190560, Tempo, 255831
1, 191040, Tempo, 257843
1, 192000, Tempo, 255831
1, 192480, Tempo, 268480
1, 192840, Tempo, 256137
1, 192960, Tempo, 255831
1, 193440, Tempo, 256827
1, 194400, Tempo, 252855
1, 194880, Tempo, 255831
1, 195360, Tempo, 301129
1, 195720, Tempo, 265275
1, 195840, Tempo, 258866
1, 196320, Tempo, 255831
1, 196800, Tempo, 289394
1, 197280, Tempo, 259112
1, 198240, Tempo, 263043
1, 198720, Tempo, 258866
1, 199200, Tempo, 254831
1, 199680, Tempo, 260926
1, 200160, Tempo, 258866
1, 200640, Tempo, 261974
1, 201120, Tempo, 285687
1, 201480, Tempo, 271751
1, 201600, Tempo, 261540
1, 202080, Tempo, 257843
1, 202560, Tempo, 261974
1, 203040, Tempo, 265275
1, 204000, Tempo, 271751
1, 204480, Tempo, 260926
1, 205440, Tempo, 258866
1, 205920, Tempo, 253829
1, 206400, Tempo, 256827
1, 206880, Tempo, 317427
1, 207240, Tempo, 264644
1, 207360, Tempo, 260926
1, 208320, Tempo, 256137
1, 208800, Tempo, 260926
1, 209040, Tempo, 258866
1, 209760, Tempo, 273087
1, 210240, Tempo, 260926
1, 210720, Tempo, 258866
1, 211200, Tempo, 265170
1, 211680, Tempo, 260926
1, 212160, Tempo, 257843
1, 212640, Tempo, 266241
1, 213120, Tempo, 260926
1, 214080, Tempo, 252855
1, 214560, Tempo, 271751
1, 215040, Tempo, 277791
1, 215520, Tempo, 283701
1, 216000, Tempo, 260926
1, 216480, Tempo, 257909
1, 216960, Tempo, 265170
1, 217440, Tempo, 260926
1, 217920, Tempo, 257843
1, 218400, Tempo, 277162
1, 218760, Tempo, 263401
1, 218880, Tempo, 260926
1, 219840, Tempo, 256137
1, 220320, Tempo, 260926
1, 220560, Tempo, 258866
1, 220800, Tempo, 269675
1, 221280, Tempo, 320017
1, 221760, Tempo, 260926
1, 222240, Tempo, 258866
1, 222720, Tempo, 265170
1, 223200, Tempo, 260926
1, 223680, Tempo, 257843
1, 224160, Tempo, 266241
1, 224640, Tempo, 260926
1, 225600, Tempo, 252855
1, 226080, Tempo, 271751
1, 226560, Tempo, 269119
1, 227040, Tempo, 268480
1, 227520, Tempo, 260926
1, 228000, Tempo, 257909
1, 228480, Tempo, 265170
1, 228960, Tempo, 287784
1, 229440, Tempo, 304584
1, 229920, Tempo, 326993
1, 230280, Tempo, 265275
1, 230400, Tempo, 260926
1, 230640, Tempo, 260926
1, 231360, Tempo, 256137
1, 231840, Tempo, 260926
1, 232080, Tempo, 258866
1, 232800, Tempo, 273087
1, 233160, Tempo, 266241
1, 233280, Tempo, 260926
1, 234240, Tempo, 252855
1, 234720, Tempo, 271751
1, 235200, Tempo, 269119
1, 235680, Tempo, 268480
1, 236160, Tempo, 260926
1, 236640, Tempo, 257909
1, 237120, Tempo, 269772
1, 237600, Tempo, 280649
1, 238080, Tempo, 290909
1, 238560, Tempo, 463356
1, 238920, Tempo, 256137
1, 239040, Tempo, 255831
1, 239520, Tempo, 260315
1, 240480, Tempo, 256137
1, 240960, Tempo, 261540
1, 241440, Tempo, 287894
1, 241800, Tempo, 260926
1, 241920, Tempo, 260315
1, 242400, Tempo, 263401
1, 243360, Tempo, 259718
1, 243840, Tempo, 262158
1, 244320, Tempo, 286424
1, 244680, Tempo, 265910
1, 244800, Tempo, 264026
1, 245280, Tempo, 269119
1, 246240, Tempo, 265910
1, 246720, Tempo, 271751
1, 247200, Tempo, 300315
1, 247560, Tempo, 272418
1, 247680, Tempo, 273087
1, 248160, Tempo, 286410
1, 249120, Tempo, 277855
1, 249600, Tempo, 284954
1, 250080, Tempo, 307787
1, 250440, Tempo, 285687
1, 250560, Tempo, 313857
1, 250920, Tempo, 307708
1, 251520, Tempo, 303813
1, 252120, Tempo, 309294
1, 252960, Tempo, 310350
1, 253503, Tempo, 311219
1, 253823, Tempo, 312094
1, 254143, Tempo, 312973
1, 254371, Tempo, 314153
1, 254467, Tempo, 314977
1, 254531, Tempo, 315806
1, 254595, Tempo, 316639
1, 254691, Tempo, 317477
1, 254755, Tempo, 318319
1, 254819, Tempo, 319166
1, 254883, Tempo, 320017
1, 254979, Tempo, 320873
1, 255043, Tempo, 321733
1, 255107, Tempo, 322598
1, 255203, Tempo, 323468
1, 255267, Tempo, 324342
1, 255331, Tempo, 325221
1, 255395, Tempo, 326105
1, 255427, Tempo, 326993
1, 255459, Tempo, 327887
1, 255491, Tempo, 329688
1, 255523, Tempo, 330597
1, 255555, Tempo, 331510
1, 255587, Tempo, 333352
1, 255619, Tempo, 334280
1, 255651, Tempo, 335214
1, 255683, Tempo, 337098
1, 255715, Tempo, 338047
1, 255747, Tempo, 339002
1, 255779, Tempo, 340928
1, 255811, Tempo, 341900
1, 255840, Tempo, 365876
1, 256080, Tempo, 612182
1, 256320, Tempo, 433526
1, 258960, Tempo, 515818
1, 259200, Tempo, 528076
1, 260640, Tempo, 518224
1, 261120, Tempo, 518224
1, 262080, Tempo, 504159
1, 264000, Tempo, 508776
1, 264480, Tempo, 625978
1, 269174, Tempo, 625978
1, 269174, End_track
2, 0, Start_track
2, 0, Title_t, "Piano right"
2, 0, Program_c, 0, 0
2, 480, Note_on_c, 0, 78, 15
2, 480, Note_on_c, 0, 85, 22
2, 480, Note_on_c, 0, 82, 15
2, 936, Note_on_c, 0, 82, 0
2, 936, Note_on_c, 0, 85, 0
2, 936, Note_on_c, 0, 78, 0
2, 960, Note_on_c, 0, 78, 15
2, 960, Note_on_c, 0, 85, 22
2, 960, Note_on_c, 0, 82, 15
2, 1416, Note_on_c, 0, 82, 0
2, 1416, Note_on_c, 0, 85, 0
2, 1416, Note_on_c, 0, 78, 0
2, 1440, Note_on_c, 0, 78, 16
2, 1440, Note_on_c, 0, 85, 24
2, 1440, Note_on_c, 0, 82, 16
2, 1896, Note_on_c, 0, 82, 0
2, 1896, Note_on_c, 0, 85, 0
2, 1896, Note_on_c, 0, 78, 0
2, 1920, Note_on_c, 0, 78, 15
2, 1920, Note_on_c, 0, 85, 22
2, 1920, Note_on_c, 0, 82, 15
2, 2376, Note_on_c, 0, 82, 0
2, 2376, Note_on_c, 0, 85, 0
2, 2376, Note_on_c, 0, 78, 0
2, 2400, Note_on_c, 0, 78, 15
2, 2400, Note_on_c, 0, 85, 22
2, 2400, Note_on_c, 0, 82, 15
2, 2856, Note_on_c, 0, 82, 0
2, 2856, Note_on_c, 0, 85, 0
2, 2856, Note_on_c, 0, 78, 0
2, 3360, Note_on_c, 0, 78, 15
2, 3360, Note_on_c, 0, 85, 22
2, 3360, Note_on_c, 0, 82, 15
2, 3816, Note_on_c, 0, 82, 0
2, 3816, Note_on_c, 0, 85, 0
2, 3816, Note_on_c, 0, 78, 0
2, 3840, Note_on_c, 0, 78, 15
2, 3840, Note_on_c, 0, 85, 22
2, 3840, Note_on_c, 0, 82, 15
2, 4296, Note_on_c, 0, 82, 0
2, 4296, Note_on_c, 0, 85, 0
2, 4296, Note_on_c, 0, 78, 0
2, 4320, Note_on_c, 0, 78, 16
2, 4320, Note_on_c, 0, 85, 24
2, 4320, Note_on_c, 0, 82, 16
2, 4776, Note_on_c, 0, 82, 0
2, 4776, Note_on_c, 0, 85, 0
2, 4776, Note_on_c, 0, 78, 0
2, 4800, Note_on_c, 0, 78, 14
2, 4800, Note_on_c, 0, 85, 21
2, 4800, Note_on_c, 0, 82, 14
2, 5256, Note_on_c, 0, 82, 0
2, 5256, Note_on_c, 0, 85, 0
2, 5256, Note_on_c, 0, 78, 0
2, 5280, Note_on_c, 0, 78, 14
2, 5280, Note_on_c, 0, 85, 21
2, 5280, Note_on_c, 0, 82, 14
2, 5736, Note_on_c, 0, 82, 0
2, 5736, Note_on_c, 0, 85, 0
2, 5736, Note_on_c, 0, 78, 0
2, 6240, Note_on_c, 0, 78, 15
2, 6240, Note_on_c, 0, 85, 22
2, 6240, Note_on_c, 0, 82, 15
2, 6696, Note_on_c, 0, 82, 0
2, 6696, Note_on_c, 0, 85, 0
2, 6696, Note_on_c, 0, 78, 0
2, 6720, Note_on_c, 0, 78, 15
2, 6720, Note_on_c, 0, 85, 22
2, 6720, Note_on_c, 0, 82, 15
2, 7176, Note_on_c, 0, 82, 0
2, 7176, Note_on_c, 0, 85, 0
2, 7176, Note_on_c, 0, 78, 0
2, 7200, Note_on_c, 0, 78, 16
2, 7200, Note_on_c, 0, 85, 24
2, 7200, Note_on_c, 0, 82, 16
2, 7656, Note_on_c, 0, 82, 0
2, 7656, Note_on_c, 0, 85, 0
2, 7656, Note_on_c, 0, 78, 0
2, 7680, Note_on_c, 0, 78, 14
2, 7680, Note_on_c, 0, 85, 21
2, 7680, Note_on_c, 0, 82, 14
2, 8136, Note_on_c, 0, 82, 0
2, 8136, Note_on_c, 0, 85, 0
2, 8136, Note_on_c, 0, 78, 0
2, 8160, Note_on_c, 0, 78, 14
2, 8160, Note_on_c, 0, 87, 21
2, 8160, Note_on_c, 0, 82, 14
2, 8616, Note_on_c, 0, 82, 0
2, 8616, Note_on_c, 0, 87, 0
2, 8616, Note_on_c, 0, 78, 0
2, 9120, Note_on_c, 0, 78, 16
2, 9120, Note_on_c, 0, 82, 16
2, 9120, Note_on_c, 0, 87, 24
2, 9576, Note_on_c, 0, 87, 0
2, 9576, Note_on_c, 0, 82, 0
2, 9576, Note_on_c, 0, 78, 0
2, 9600, Note_on_c, 0, 78, 16
2, 9600, Note_on_c, 0, 82, 16
2, 9600, Note_on_c, 0, 87, 24
2, 10056, Note_on_c, 0, 87, 0
2, 10056, Note_on_c, 0, 82, 0
2, 10056, Note_on_c, 0, 78, 0
2, 10560, Note_on_c, 0, 78, 16
2, 10560, Note_on_c, 0, 82, 16
2, 10560, Note_on_c, 0, 85, 26
2, 11016, Note_on_c, 0, 85, 0
2, 11016, Note_on_c, 0, 82, 0
2, 11016, Note_on_c, 0, 78, 0
2, 11040, Note_on_c, 0, 73, 16
2, 11040, Note_on_c, 0, 82, 26
2, 11040, Note_on_c, 0, 78, 16
2, 11496, Note_on_c, 0, 78, 0
2, 11496, Note_on_c, 0, 82, 0
2, 11496, Note_on_c, 0, 73, 0
2, 12000, Note_on_c, 0, 71, 19
2, 12000, Note_on_c, 0, 75, 19
2, 12000, Note_on_c, 0, 78, 28
2, 12456, Note_on_c, 0, 78, 0
2, 12456, Note_on_c, 0, 75, 0
2, 12456, Note_on_c, 0, 71, 0
2, 12480, Note_on_c, 0, 71, 19
2, 12480, Note_on_c, 0, 75, 19
2, 12480, Note_on_c, 0, 78, 28
2, 12936, Note_on_c, 0, 78, 0
2, 12936, Note_on_c, 0, 75, 0
2, 12936, Note_on_c, 0, 71, 0
2, 13440, Note_on_c, 0, 71, 18
2, 13440, Note_on_c, 0, 75, 18
2, 13440, Note_on_c, 0, 80, 28
2, 13896, Note_on_c, 0, 80, 0
2, 13896, Note_on_c, 0, 75, 0
2, 13896, Note_on_c, 0, 71, 0
2, 13920, Note_on_c, 0, 71, 18
2, 13920, Note_on_c, 0, 75, 18
2, 13920, Note_on_c, 0, 80, 27
2, 14376, Note_on_c, 0, 80, 0
2, 14376, Note_on_c, 0, 75, 0
2, 14376, Note_on_c, 0, 71, 0
2, 14880, Note_on_c, 0, 73, 16
2, 14880, Note_on_c, 0, 78, 16
2, 14880, Note_on_c, 0, 82, 24
2, 15336, Note_on_c, 0, 82, 0
2, 15336, Note_on_c, 0, 78, 0
2, 15336, Note_on_c, 0, 73, 0
2, 15360, Note_on_c, 0, 73, 16
2, 15360, Note_on_c, 0, 78, 16
2, 15360, Note_on_c, 0, 82, 24
2, 15816, Note_on_c, 0, 82, 0
2, 15816, Note_on_c, 0, 78, 0
2, 15816, Note_on_c, 0, 73, 0
2, 15840, Note_on_c, 0, 73, 18
2, 15840, Note_on_c, 0, 78, 18
2, 15840, Note_on_c, 0, 82, 27
2, 16296, Note_on_c, 0, 82, 0
2, 16296, Note_on_c, 0, 78, 0
2, 16296, Note_on_c, 0, 73, 0
2, 16320, Note_on_c, 0, 73, 16
2, 16320, Note_on_c, 0, 78, 16
2, 16320, Note_on_c, 0, 82, 24
2, 16776, Note_on_c, 0, 82, 0
2, 16776, Note_on_c, 0, 78, 0
2, 16776, Note_on_c, 0, 73, 0
2, 16800, Note_on_c, 0, 73, 16
2, 16800, Note_on_c, 0, 78, 16
2, 16800, Note_on_c, 0, 82, 24
2, 17256, Note_on_c, 0, 82, 0
2, 17256, Note_on_c, 0, 78, 0
2, 17256, Note_on_c, 0, 73, 0
2, 17760, Note_on_c, 0, 78, 20
2, 17760, Note_on_c, 0, 85, 30
2, 17760, Note_on_c, 0, 82, 20
2, 18216, Note_on_c, 0, 82, 0
2, 18216, Note_on_c, 0, 85, 0
2, 18216, Note_on_c, 0, 78, 0
2, 18240, Note_on_c, 0, 78, 20
2, 18240, Note_on_c, 0, 82, 20
2, 18240, Note_on_c, 0, 85, 30
2, 18696, Note_on_c, 0, 85, 0
2, 18696, Note_on_c, 0, 82, 0
2, 18696, Note_on_c, 0, 78, 0
2, 18720, Note_on_c, 0, 78, 23
2, 18720, Note_on_c, 0, 82, 23
2, 18720, Note_on_c, 0, 89, 34
2, 19176, Note_on_c, 0, 89, 0
2, 19176, Note_on_c, 0, 82, 0
2, 19176, Note_on_c, 0, 78, 0
2, 19200, Note_on_c, 0, 87, 32
2, 19200, Note_on_c, 0, 82, 21
2, 19200, Note_on_c, 0, 78, 21
2, 19656, Note_on_c, 0, 78, 0
2, 19656, Note_on_c, 0, 82, 0
2, 19656, Note_on_c, 0, 87, 0
2, 19680, Note_on_c, 0, 78, 21
2, 19680, Note_on_c, 0, 82, 21
2, 19680, Note_on_c, 0, 85, 32
2, 20136, Note_on_c, 0, 85, 0
2, 20136, Note_on_c, 0, 82, 0
2, 20136, Note_on_c, 0, 78, 0
2, 20640, Note_on_c, 0, 78, 23
2, 20640, Note_on_c, 0, 87, 35
2, 20640, Note_on_c, 0, 82, 23
2, 21096, Note_on_c, 0, 82, 0
2, 21096, Note_on_c, 0, 87, 0
2, 21096, Note_on_c, 0, 78, 0
2, 21120, Note_on_c, 0, 78, 21
2, 21120, Note_on_c, 0, 82, 21
2, 21120, Note_on_c, 0, 85, 33
2, 21576, Note_on_c, 0, 85, 0
2, 21576, Note_on_c, 0, 82, 0
2, 21576, Note_on_c, 0, 78, 0
2, 22080, Note_on_c, 0, 73, 23
2, 22080, Note_on_c, 0, 82, 34
2, 22080, Note_on_c, 0, 78, 29
2, 22536, Note_on_c, 0, 78, 0
2, 22536, Note_on_c, 0, 82, 0
2, 22536, Note_on_c, 0, 73, 0
2, 22560, Note_on_c, 0, 70, 21
2, 22560, Note_on_c, 0, 73, 21
2, 22560, Note_on_c, 0, 78, 32
2, 23016, Note_on_c, 0, 78, 0
2, 23016, Note_on_c, 0, 73, 0
2, 23016, Note_on_c, 0, 70, 0
2, 23520, Note_on_c, 0, 71, 20
2, 23520, Note_on_c, 0, 75, 20
2, 23520, Note_on_c, 0, 78, 30
2, 23976, Note_on_c, 0, 78, 0
2, 23976, Note_on_c, 0, 75, 0
2, 23976, Note_on_c, 0, 71, 0
2, 24000, Note_on_c, 0, 71, 20
2, 24000, Note_on_c, 0, 75, 20
2, 24000, Note_on_c, 0, 78, 30
2, 24456, Note_on_c, 0, 78, 0
2, 24456, Note_on_c, 0, 75, 0
2, 24456, Note_on_c, 0, 71, 0
2, 24480, Note_on_c, 0, 71, 23
2, 24480, Note_on_c, 0, 75, 23
2, 24480, Note_on_c, 0, 82, 35
2, 24936, Note_on_c, 0, 82, 0
2, 24936, Note_on_c, 0, 75, 0
2, 24936, Note_on_c, 0, 71, 0
2, 24960, Note_on_c, 0, 71, 20
2, 24960, Note_on_c, 0, 75, 20
2, 24960, Note_on_c, 0, 80, 31
2, 25416, Note_on_c, 0, 80, 0
2, 25416, Note_on_c, 0, 75, 0
2, 25416, Note_on_c, 0, 71, 0
2, 25440, Note_on_c, 0, 71, 20
2, 25440, Note_on_c, 0, 75, 20
2, 25440, Note_on_c, 0, 78, 31
2, 25896, Note_on_c, 0, 78, 0
2, 25896, Note_on_c, 0, 75, 0
2, 25896, Note_on_c, 0, 71, 0
2, 26400, Note_on_c, 0, 73, 20
2, 26400, Note_on_c, 0, 78, 20
2, 26400, Note_on_c, 0, 82, 30
2, 26856, Note_on_c, 0, 82, 0
2, 26856, Note_on_c, 0, 78, 0
2, 26856, Note_on_c, 0, 73, 0
2, 26880, Note_on_c, 0, 73, 20
2, 26880, Note_on_c, 0, 78, 20
2, 26880, Note_on_c, 0, 82, 30
2, 27336, Note_on_c, 0, 82, 0
2, 27336, Note_on_c, 0, 78, 0
2, 27336, Note_on_c, 0, 73, 0
2, 27360, Note_on_c, 0, 73, 21
2, 27360, Note_on_c, 0, 78, 21
2, 27360, Note_on_c, 0, 82, 33
2, 27816, Note_on_c, 0, 82, 0
2, 27816, Note_on_c, 0, 78, 0
2, 27816, Note_on_c, 0, 73, 0
2, 27840, Note_on_c, 0, 73, 20
2, 27840, Note_on_c, 0, 78, 20
2, 27840, Note_on_c, 0, 82, 30
2, 28296, Note_on_c, 0, 82, 0
2, 28296, Note_on_c, 0, 78, 0
2, 28296, Note_on_c, 0, 73, 0
2, 28320, Note_on_c, 0, 73, 20
2, 28320, Note_on_c, 0, 78, 20
2, 28320, Note_on_c, 0, 82, 30
2, 28776, Note_on_c, 0, 82, 0
2, 28776, Note_on_c, 0, 78, 0
2, 28776, Note_on_c, 0, 73, 0
2, 29280, Note_on_c, 0, 74, 27
2, 29280, Note_on_c, 0, 78, 27
2, 29280, Note_on_c, 0, 82, 32
2, 29736, Note_on_c, 0, 82, 0
2, 29736, Note_on_c, 0, 78, 0
2, 29736, Note_on_c, 0, 74, 0
2, 29760, Note_on_c, 0, 74, 27
2, 29760, Note_on_c, 0, 78, 27
2, 29760, Note_on_c, 0, 82, 32
2, 30216, Note_on_c, 0, 82, 0
2, 30216, Note_on_c, 0, 78, 0
2, 30216, Note_on_c, 0, 74, 0
2, 30720, Note_on_c, 0, 74, 30
2, 30720, Note_on_c, 0, 78, 30
2, 30720, Note_on_c, 0, 82, 36
2, 31176, Note_on_c, 0, 82, 0
2, 31176, Note_on_c, 0, 78, 0
2, 31176, Note_on_c, 0, 74, 0
2, 31200, Note_on_c, 0, 74, 33
2, 31200, Note_on_c, 0, 78, 33
2, 31200, Note_on_c, 0, 82, 39
2, 31656, Note_on_c, 0, 82, 0
2, 31656, Note_on_c, 0, 78, 0
2, 31656, Note_on_c, 0, 74, 0
2, 32160, Note_on_c, 0, 75, 32
2, 32160, Note_on_c, 0, 78, 32
2, 32160, Note_on_c, 0, 82, 38
2, 32616, Note_on_c, 0, 82, 0
2, 32616, Note_on_c, 0, 78, 0
2, 32616, Note_on_c, 0, 75, 0
2, 32640, Note_on_c, 0, 75, 32
2, 32640, Note_on_c, 0, 78, 32
2, 32640, Note_on_c, 0, 82, 38
2, 33096, Note_on_c, 0, 82, 0
2, 33096, Note_on_c, 0, 78, 0
2, 33096, Note_on_c, 0, 75, 0
2, 33600, Note_on_c, 0, 66, 27
2, 33600, Note_on_c, 0, 70, 27
2, 33600, Note_on_c, 0, 75, 33
2, 34056, Note_on_c, 0, 75, 0
2, 34056, Note_on_c, 0, 70, 0
2, 34056, Note_on_c, 0, 66, 0
2, 34080, Note_on_c, 0, 66, 27
2, 34080, Note_on_c, 0, 70, 27
2, 34080, Note_on_c, 0, 75, 33
2, 34536, Note_on_c, 0, 75, 0
2, 34536, Note_on_c, 0, 70, 0
2, 34536, Note_on_c, 0, 66, 0
2, 35040, Note_on_c, 0, 74, 27
2, 35040, Note_on_c, 0, 78, 27
2, 35040, Note_on_c, 0, 82, 32
2, 35496, Note_on_c, 0, 82, 0
2, 35496, Note_on_c, 0, 78, 0
2, 35496, Note_on_c, 0, 74, 0
2, 35520, Note_on_c, 0, 74, 27
2, 35520, Note_on_c, 0, 78, 27
2, 35520, Note_on_c, 0, 82, 32
2, 35976, Note_on_c, 0, 82, 0
2, 35976, Note_on_c, 0, 78, 0
2, 35976, Note_on_c, 0, 74, 0
2, 36480, Note_on_c, 0, 74, 30
2, 36480, Note_on_c, 0, 78, 30
2, 36480, Note_on_c, 0, 83, 36
2, 36936, Note_on_c, 0, 83, 0
2, 36936, Note_on_c, 0, 78, 0
2, 36936, Note_on_c, 0, 74, 0
2, 36960, Note_on_c, 0, 74, 33
2, 36960, Note_on_c, 0, 78, 33
2, 36960, Note_on_c, 0, 85, 39
2, 37416, Note_on_c, 0, 85, 0
2, 37416, Note_on_c, 0, 78, 0
2, 37416, Note_on_c, 0, 74, 0
2, 37920, Note_on_c, 0, 75, 35
2, 37920, Note_on_c, 0, 78, 35
2, 37920, Note_on_c, 0, 82, 42
2, 38376, Note_on_c, 0, 82, 0
2, 38376, Note_on_c, 0, 78, 0
2, 38376, Note_on_c, 0, 75, 0
2, 38400, Note_on_c, 0, 75, 36
2, 38400, Note_on_c, 0, 78, 36
2, 38400, Note_on_c, 0, 82, 43
2, 38856, Note_on_c, 0, 82, 0
2, 38856, Note_on_c, 0, 78, 0
2, 38856, Note_on_c, 0, 75, 0
2, 38880, Note_on_c, 0, 75, 37
2, 38880, Note_on_c, 0, 78, 37
2, 38880, Note_on_c, 0, 82, 45
2, 39336, Note_on_c, 0, 82, 0
2, 39336, Note_on_c, 0, 78, 0
2, 39336, Note_on_c, 0, 75, 0
2, 39360, Note_on_c, 0, 75, 39
2, 39360, Note_on_c, 0, 78, 39
2, 39360, Note_on_c, 0, 82, 46
2, 39816, Note_on_c, 0, 82, 0
2, 39816, Note_on_c, 0, 78, 0
2, 39816, Note_on_c, 0, 75, 0
2, 39840, Note_on_c, 0, 75, 40
2, 39840, Note_on_c, 0, 78, 40
2, 39840, Note_on_c, 0, 82, 48
2, 40296, Note_on_c, 0, 82, 0
2, 40296, Note_on_c, 0, 78, 0
2, 40296, Note_on_c, 0, 75, 0
2, 40800, Note_on_c, 0, 74, 33
2, 40800, Note_on_c, 0, 78, 33
2, 40800, Note_on_c, 0, 82, 40
2, 41256, Note_on_c, 0, 82, 0
2, 41256, Note_on_c, 0, 78, 0
2, 41256, Note_on_c, 0, 74, 0
2, 41280, Note_on_c, 0, 74, 33
2, 41280, Note_on_c, 0, 78, 33
2, 41280, Note_on_c, 0, 82, 40
2, 41736, Note_on_c, 0, 82, 0
2, 41736, Note_on_c, 0, 78, 0
2, 41736, Note_on_c, 0, 74, 0
2, 41760, Note_on_c, 0, 74, 33
2, 41760, Note_on_c, 0, 78, 33
2, 41760, Note_on_c, 0, 82, 40
2, 42216, Note_on_c, 0, 82, 0
2, 42216, Note_on_c, 0, 78, 0
2, 42216, Note_on_c, 0, 74, 0
2, 42240, Note_on_c, 0, 74, 34
2, 42240, Note_on_c, 0, 78, 34
2, 42240, Note_on_c, 0, 82, 41
2, 42696, Note_on_c, 0, 82, 0
2, 42696, Note_on_c, 0, 78, 0
2, 42696, Note_on_c, 0, 74, 0
2, 42720, Note_on_c, 0, 74, 34
2, 42720, Note_on_c, 0, 78, 34
2, 42720, Note_on_c, 0, 81, 41
2, 43176, Note_on_c, 0, 81, 0
2, 43176, Note_on_c, 0, 78, 0
2, 43176, Note_on_c, 0, 74, 0
2, 43680, Note_on_c, 0, 73, 33
2, 43680, Note_on_c, 0, 77, 33
2, 43680, Note_on_c, 0, 81, 39
2, 44136, Note_on_c, 0, 81, 0
2, 44136, Note_on_c, 0, 77, 0
2, 44136, Note_on_c, 0, 73, 0
2, 44160, Note_on_c, 0, 73, 32
2, 44160, Note_on_c, 0, 77, 32
2, 44160, Note_on_c, 0, 81, 38
2, 44616, Note_on_c, 0, 81, 0
2, 44616, Note_on_c, 0, 77, 0
2, 44616, Note_on_c, 0, 73, 0
2, 45120, Note_on_c, 0, 73, 31
2, 45120, Note_on_c, 0, 77, 31
2, 45120, Note_on_c, 0, 80, 37
2, 45576, Note_on_c, 0, 80, 0
2, 45576, Note_on_c, 0, 77, 0
2, 45576, Note_on_c, 0, 73, 0
2, 45600, Note_on_c, 0, 73, 31
2, 45600, Note_on_c, 0, 77, 31
2, 45600, Note_on_c, 0, 80, 37
2, 46056, Note_on_c, 0, 80, 0
2, 46056, Note_on_c, 0, 77, 0
2, 46056, Note_on_c, 0, 73, 0
2, 46560, Note_on_c, 0, 72, 33
2, 46560, Note_on_c, 0, 76, 33
2, 46560, Note_on_c, 0, 80, 39
2, 47016, Note_on_c, 0, 80, 0
2, 47016, Note_on_c, 0, 76, 0
2, 47016, Note_on_c, 0, 72, 0
2, 47040, Note_on_c, 0, 72, 33
2, 47040, Note_on_c, 0, 76, 33
2, 47040, Note_on_c, 0, 80, 39
2, 47496, Note_on_c, 0, 80, 0
2, 47496, Note_on_c, 0, 76, 0
2, 47496, Note_on_c, 0, 72, 0
2, 48000, Note_on_c, 0, 72, 33
2, 48000, Note_on_c, 0, 76, 33
2, 48000, Note_on_c, 0, 82, 39
2, 48238, Note_on_c, 0, 72, 0
2, 48456, Note_on_c, 0, 82, 0
2, 48456, Note_on_c, 0, 76, 0
2, 48480, Note_on_c, 0, 76, 34
2, 48480, Note_on_c, 0, 84, 41
2, 48936, Note_on_c, 0, 84, 0
2, 48936, Note_on_c, 0, 76, 0
2, 49440, Note_on_c, 0, 73, 34
2, 49440, Note_on_c, 0, 77, 34
2, 49440, Note_on_c, 0, 80, 41
2, 49896, Note_on_c, 0, 80, 0
2, 49896, Note_on_c, 0, 77, 0
2, 49896, Note_on_c, 0, 73, 0
2, 49920, Note_on_c, 0, 73, 34
2, 49920, Note_on_c, 0, 77, 34
2, 49920, Note_on_c, 0, 80, 41
2, 50376, Note_on_c, 0, 80, 0
2, 50376, Note_on_c, 0, 77, 0
2, 50376, Note_on_c, 0, 73, 0
2, 50400, Note_on_c, 0, 89, 53
2, 50856, Note_on_c, 0, 89, 0
2, 50880, Note_on_c, 0, 77, 39
2, 50880, Note_on_c, 0, 80, 39
2, 50880, Note_on_c, 0, 85, 47
2, 51336, Note_on_c, 0, 85, 0
2, 51336, Note_on_c, 0, 80, 0
2, 51336, Note_on_c, 0, 77, 0
2, 51360, Note_on_c, 0, 77, 39
2, 51360, Note_on_c, 0, 80, 39
2, 51360, Note_on_c, 0, 84, 47
2, 51816, Note_on_c, 0, 84, 0
2, 51816, Note_on_c, 0, 80, 0
2, 51816, Note_on_c, 0, 77, 0
2, 52320, Note_on_c, 0, 73, 38
2, 52320, Note_on_c, 0, 77, 38
2, 52320, Note_on_c, 0, 83, 45
2, 52776, Note_on_c, 0, 83, 0
2, 52776, Note_on_c, 0, 77, 0
2, 52776, Note_on_c, 0, 73, 0
2, 52800, Note_on_c, 0, 73, 38
2, 52800, Note_on_c, 0, 77, 38
2, 52800, Note_on_c, 0, 83, 45
2, 53256, Note_on_c, 0, 83, 0
2, 53256, Note_on_c, 0, 77, 0
2, 53256, Note_on_c, 0, 73, 0
2, 53280, Note_on_c, 0, 73, 39
2, 53280, Note_on_c, 0, 77, 39
2, 53280, Note_on_c, 0, 83, 47
2, 53736, Note_on_c, 0, 83, 0
2, 53736, Note_on_c, 0, 77, 0
2, 53736, Note_on_c, 0, 73, 0
2, 53760, Note_on_c, 0, 73, 37
2, 53760, Note_on_c, 0, 77, 37
2, 53760, Note_on_c, 0, 82, 44
2, 54216, Note_on_c, 0, 82, 0
2, 54216, Note_on_c, 0, 77, 0
2, 54216, Note_on_c, 0, 73, 0
2, 54240, Note_on_c, 0, 73, 37
2, 54240, Note_on_c, 0, 77, 37
2, 54240, Note_on_c, 0, 81, 44
2, 54696, Note_on_c, 0, 81, 0
2, 54696, Note_on_c, 0, 77, 0
2, 54696, Note_on_c, 0, 73, 0
2, 55200, Note_on_c, 0, 73, 37
2, 55200, Note_on_c, 0, 77, 37
2, 55200, Note_on_c, 0, 81, 44
2, 55656, Note_on_c, 0, 81, 0
2, 55656, Note_on_c, 0, 77, 0
2, 55656, Note_on_c, 0, 73, 0
2, 55680, Note_on_c, 0, 73, 37
2, 55680, Note_on_c, 0, 77, 37
2, 55680, Note_on_c, 0, 81, 44
2, 56136, Note_on_c, 0, 81, 0
2, 56136, Note_on_c, 0, 77, 0
2, 56136, Note_on_c, 0, 73, 0
2, 56640, Note_on_c, 0, 73, 37
2, 56640, Note_on_c, 0, 77, 37
2, 56640, Note_on_c, 0, 80, 44
2, 57096, Note_on_c, 0, 80, 0
2, 57096, Note_on_c, 0, 77, 0
2, 57096, Note_on_c, 0, 73, 0
2, 57120, Note_on_c, 0, 73, 37
2, 57120, Note_on_c, 0, 77, 37
2, 57120, Note_on_c, 0, 81, 44
2, 57576, Note_on_c, 0, 81, 0
2, 57576, Note_on_c, 0, 77, 0
2, 57576, Note_on_c, 0, 73, 0
2, 58080, Note_on_c, 0, 75, 37
2, 58080, Note_on_c, 0, 78, 37
2, 58080, Note_on_c, 0, 82, 44
2, 58536, Note_on_c, 0, 82, 0
2, 58536, Note_on_c, 0, 78, 0
2, 58536, Note_on_c, 0, 75, 0
2, 58560, Note_on_c, 0, 75, 39
2, 58560, Note_on_c, 0, 78, 39
2, 58560, Note_on_c, 0, 82, 46
2, 59016, Note_on_c, 0, 82, 0
2, 59016, Note_on_c, 0, 78, 0
2, 59016, Note_on_c, 0, 75, 0
2, 59040, Note_on_c, 0, 78, 44
2, 59040, Note_on_c, 0, 75, 44
2, 59040, Note_on_c, 0, 85, 52
2, 59496, Note_on_c, 0, 85, 0
2, 59520, Note_on_c, 0, 75, 0
2, 59520, Note_on_c, 0, 78, 0
2, 59520, Note_on_c, 0, 75, 40
2, 59520, Note_on_c, 0, 78, 40
2, 59520, Note_on_c, 0, 84, 48
2, 59976, Note_on_c, 0, 84, 0
2, 59976, Note_on_c, 0, 78, 0
2, 59976, Note_on_c, 0, 75, 0
2, 60000, Note_on_c, 0, 75, 40
2, 60000, Note_on_c, 0, 78, 40
2, 60000, Note_on_c, 0, 82, 48
2, 60456, Note_on_c, 0, 82, 0
2, 60456, Note_on_c, 0, 78, 0
2, 60456, Note_on_c, 0, 75, 0
2, 60960, Note_on_c, 0, 77, 41
2, 60960, Note_on_c, 0, 80, 41
2, 60960, Note_on_c, 0, 85, 48
2, 61416, Note_on_c, 0, 85, 0
2, 61416, Note_on_c, 0, 80, 0
2, 61416, Note_on_c, 0, 77, 0
2, 61440, Note_on_c, 0, 77, 36
2, 61440, Note_on_c, 0, 80, 36
2, 61440, Note_on_c, 0, 85, 44
2, 61896, Note_on_c, 0, 85, 0
2, 61896, Note_on_c, 0, 80, 0
2, 61896, Note_on_c, 0, 77, 0
2, 61920, Note_on_c, 0, 77, 33
2, 61920, Note_on_c, 0, 80, 33
2, 61920, Note_on_c, 0, 85, 39
2, 62376, Note_on_c, 0, 85, 0
2, 62376, Note_on_c, 0, 80, 0
2, 62376, Note_on_c, 0, 77, 0
2, 62400, Note_on_c, 0, 77, 29
2, 62400, Note_on_c, 0, 80, 29
2, 62400, Note_on_c, 0, 85, 34
2, 62856, Note_on_c, 0, 85, 0
2, 62856, Note_on_c, 0, 80, 0
2, 62856, Note_on_c, 0, 77, 0
2, 62880, Note_on_c, 0, 77, 26
2, 62880, Note_on_c, 0, 80, 26
2, 62880, Note_on_c, 0, 85, 31
2, 63336, Note_on_c, 0, 85, 0
2, 63336, Note_on_c, 0, 80, 0
2, 63336, Note_on_c, 0, 77, 0
2, 63840, Note_on_c, 0, 78, 15
2, 63840, Note_on_c, 0, 85, 22
2, 63840, Note_on_c, 0, 82, 15
2, 64296, Note_on_c, 0, 82, 0
2, 64296, Note_on_c, 0, 85, 0
2, 64296, Note_on_c, 0, 78, 0
2, 64320, Note_on_c, 0, 78, 15
2, 64320, Note_on_c, 0, 85, 22
2, 64320, Note_on_c, 0, 82, 15
2, 64776, Note_on_c, 0, 82, 0
2, 64776, Note_on_c, 0, 85, 0
2, 64776, Note_on_c, 0, 78, 0
2, 64800, Note_on_c, 0, 78, 16
2, 64800, Note_on_c, 0, 85, 24
2, 64800, Note_on_c, 0, 82, 16
2, 65256, Note_on_c, 0, 82, 0
2, 65256, Note_on_c, 0, 85, 0
2, 65256, Note_on_c, 0, 78, 0
2, 65280, Note_on_c, 0, 78, 14
2, 65280, Note_on_c, 0, 85, 21
2, 65280, Note_on_c, 0, 82, 14
2, 65736, Note_on_c, 0, 82, 0
2, 65736, Note_on_c, 0, 85, 0
2, 65736, Note_on_c, 0, 78, 0
2, 65760, Note_on_c, 0, 78, 14
2, 65760, Note_on_c, 0, 87, 21
2, 65760, Note_on_c, 0, 82, 14
2, 66216, Note_on_c, 0, 82, 0
2, 66216, Note_on_c, 0, 87, 0
2, 66216, Note_on_c, 0, 78, 0
2, 66720, Note_on_c, 0, 78, 16
2, 66720, Note_on_c, 0, 82, 16
2, 66720, Note_on_c, 0, 87, 24
2, 67176, Note_on_c, 0, 87, 0
2, 67176, Note_on_c, 0, 82, 0
2, 67176, Note_on_c, 0, 78, 0
2, 67200, Note_on_c, 0, 78, 16
2, 67200, Note_on_c, 0, 82, 16
2, 67200, Note_on_c, 0, 87, 24
2, 67656, Note_on_c, 0, 87, 0
2, 67656, Note_on_c, 0, 82, 0
2, 67656, Note_on_c, 0, 78, 0
2, 68160, Note_on_c, 0, 78, 16
2, 68160, Note_on_c, 0, 82, 16
2, 68160, Note_on_c, 0, 85, 26
2, 68616, Note_on_c, 0, 85, 0
2, 68616, Note_on_c, 0, 82, 0
2, 68616, Note_on_c, 0, 78, 0
2, 68640, Note_on_c, 0, 73, 16
2, 68640, Note_on_c, 0, 82, 26
2, 68640, Note_on_c, 0, 78, 16
2, 69096, Note_on_c, 0, 78, 0
2, 69096, Note_on_c, 0, 82, 0
2, 69096, Note_on_c, 0, 73, 0
2, 69600, Note_on_c, 0, 71, 19
2, 69600, Note_on_c, 0, 75, 19
2, 69600, Note_on_c, 0, 78, 28
2, 70056, Note_on_c, 0, 78, 0
2, 70056, Note_on_c, 0, 75, 0
2, 70056, Note_on_c, 0, 71, 0
2, 70080, Note_on_c, 0, 71, 19
2, 70080, Note_on_c, 0, 75, 19
2, 70080, Note_on_c, 0, 78, 28
2, 70536, Note_on_c, 0, 78, 0
2, 70536, Note_on_c, 0, 75, 0
2, 70536, Note_on_c, 0, 71, 0
2, 71040, Note_on_c, 0, 71, 18
2, 71040, Note_on_c, 0, 75, 18
2, 71040, Note_on_c, 0, 80, 28
2, 71496, Note_on_c, 0, 80, 0
2, 71496, Note_on_c, 0, 75, 0
2, 71496, Note_on_c, 0, 71, 0
2, 71520, Note_on_c, 0, 71, 18
2, 71520, Note_on_c, 0, 75, 18
2, 71520, Note_on_c, 0, 80, 27
2, 71976, Note_on_c, 0, 80, 0
2, 71976, Note_on_c, 0, 75, 0
2, 71976, Note_on_c, 0, 71, 0
2, 72480, Note_on_c, 0, 73, 16
2, 72480, Note_on_c, 0, 78, 16
2, 72480, Note_on_c, 0, 82, 24
2, 72936, Note_on_c, 0, 82, 0
2, 72936, Note_on_c, 0, 78, 0
2, 72936, Note_on_c, 0, 73, 0
2, 72960, Note_on_c, 0, 73, 16
2, 72960, Note_on_c, 0, 78, 16
2, 72960, Note_on_c, 0, 82, 24
2, 73416, Note_on_c, 0, 82, 0
2, 73416, Note_on_c, 0, 78, 0
2, 73416, Note_on_c, 0, 73, 0
2, 73440, Note_on_c, 0, 73, 18
2, 73440, Note_on_c, 0, 78, 18
2, 73440, Note_on_c, 0, 82, 27
2, 73896, Note_on_c, 0, 82, 0
2, 73896, Note_on_c, 0, 78, 0
2, 73896, Note_on_c, 0, 73, 0
2, 73920, Note_on_c, 0, 73, 16
2, 73920, Note_on_c, 0, 78, 16
2, 73920, Note_on_c, 0, 82, 24
2, 74376, Note_on_c, 0, 82, 0
2, 74376, Note_on_c, 0, 78, 0
2, 74376, Note_on_c, 0, 73, 0
2, 74400, Note_on_c, 0, 73, 16
2, 74400, Note_on_c, 0, 78, 16
2, 74400, Note_on_c, 0, 82, 24
2, 74856, Note_on_c, 0, 82, 0
2, 74856, Note_on_c, 0, 78, 0
2, 74856, Note_on_c, 0, 73, 0
2, 75360, Note_on_c, 0, 78, 20
2, 75360, Note_on_c, 0, 85, 30
2, 75360, Note_on_c, 0, 82, 20
2, 75816, Note_on_c, 0, 82, 0
2, 75816, Note_on_c, 0, 85, 0
2, 75816, Note_on_c, 0, 78, 0
2, 75840, Note_on_c, 0, 78, 20
2, 75840, Note_on_c, 0, 82, 20
2, 75840, Note_on_c, 0, 85, 30
2, 76296, Note_on_c, 0, 85, 0
2, 76296, Note_on_c, 0, 82, 0
2, 76296, Note_on_c, 0, 78, 0
2, 76320, Note_on_c, 0, 78, 23
2, 76320, Note_on_c, 0, 82, 23
2, 76320, Note_on_c, 0, 89, 34
2, 76776, Note_on_c, 0, 89, 0
2, 76776, Note_on_c, 0, 82, 0
2, 76776, Note_on_c, 0, 78, 0
2, 76800, Note_on_c, 0, 87, 32
2, 76800, Note_on_c, 0, 82, 21
2, 76800, Note_on_c, 0, 78, 21
2, 77256, Note_on_c, 0, 78, 0
2, 77256, Note_on_c, 0, 82, 0
2, 77256, Note_on_c, 0, 87, 0
2, 77280, Note_on_c, 0, 78, 21
2, 77280, Note_on_c, 0, 82, 21
2, 77280, Note_on_c, 0, 85, 32
2, 77736, Note_on_c, 0, 85, 0
2, 77736, Note_on_c, 0, 82, 0
2, 77736, Note_on_c, 0, 78, 0
2, 78240, Note_on_c, 0, 78, 23
2, 78240, Note_on_c, 0, 87, 35
2, 78240, Note_on_c, 0, 82, 23
2, 78696, Note_on_c, 0, 82, 0
2, 78696, Note_on_c, 0, 87, 0
2, 78696, Note_on_c, 0, 78, 0
2, 78720, Note_on_c, 0, 78, 21
2, 78720, Note_on_c, 0, 82, 21
2, 78720, Note_on_c, 0, 85, 33
2, 79176, Note_on_c, 0, 85, 0
2, 79176, Note_on_c, 0, 82, 0
2, 79176, Note_on_c, 0, 78, 0
2, 79680, Note_on_c, 0, 73, 23
2, 79680, Note_on_c, 0, 82, 34
2, 79680, Note_on_c, 0, 78, 23
2, 80136, Note_on_c, 0, 78, 0
2, 80136, Note_on_c, 0, 82, 0
2, 80136, Note_on_c, 0, 73, 0
2, 80160, Note_on_c, 0, 70, 21
2, 80160, Note_on_c, 0, 73, 21
2, 80160, Note_on_c, 0, 78, 32
2, 80616, Note_on_c, 0, 78, 0
2, 80616, Note_on_c, 0, 73, 0
2, 80616, Note_on_c, 0, 70, 0
2, 81120, Note_on_c, 0, 71, 20
2, 81120, Note_on_c, 0, 75, 20
2, 81120, Note_on_c, 0, 78, 30
2, 81576, Note_on_c, 0, 78, 0
2, 81576, Note_on_c, 0, 75, 0
2, 81576, Note_on_c, 0, 71, 0
2, 81600, Note_on_c, 0, 71, 20
2, 81600, Note_on_c, 0, 75, 20
2, 81600, Note_on_c, 0, 78, 30
2, 82056, Note_on_c, 0, 78, 0
2, 82056, Note_on_c, 0, 75, 0
2, 82056, Note_on_c, 0, 71, 0
2, 82080, Note_on_c, 0, 71, 23
2, 82080, Note_on_c, 0, 75, 23
2, 82080, Note_on_c, 0, 82, 35
2, 82536, Note_on_c, 0, 82, 0
2, 82536, Note_on_c, 0, 75, 0
2, 82536, Note_on_c, 0, 71, 0
2, 82560, Note_on_c, 0, 71, 20
2, 82560, Note_on_c, 0, 75, 20
2, 82560, Note_on_c, 0, 80, 31
2, 83016, Note_on_c, 0, 80, 0
2, 83016, Note_on_c, 0, 75, 0
2, 83016, Note_on_c, 0, 71, 0
2, 83040, Note_on_c, 0, 71, 20
2, 83040, Note_on_c, 0, 75, 20
2, 83040, Note_on_c, 0, 78, 31
2, 83496, Note_on_c, 0, 78, 0
2, 83496, Note_on_c, 0, 75, 0
2, 83496, Note_on_c, 0, 71, 0
2, 84000, Note_on_c, 0, 73, 20
2, 84000, Note_on_c, 0, 78, 20
2, 84000, Note_on_c, 0, 82, 30
2, 84456, Note_on_c, 0, 82, 0
2, 84456, Note_on_c, 0, 78, 0
2, 84456, Note_on_c, 0, 73, 0
2, 84480, Note_on_c, 0, 73, 20
2, 84480, Note_on_c, 0, 78, 20
2, 84480, Note_on_c, 0, 82, 30
2, 84936, Note_on_c, 0, 82, 0
2, 84936, Note_on_c, 0, 78, 0
2, 84936, Note_on_c, 0, 73, 0
2, 84960, Note_on_c, 0, 73, 21
2, 84960, Note_on_c, 0, 78, 21
2, 84960, Note_on_c, 0, 82, 33
2, 85416, Note_on_c, 0, 82, 0
2, 85416, Note_on_c, 0, 78, 0
2, 85416, Note_on_c, 0, 73, 0
2, 85440, Note_on_c, 0, 73, 20
2, 85440, Note_on_c, 0, 78, 20
2, 85440, Note_on_c, 0, 82, 30
2, 85896, Note_on_c, 0, 82, 0
2, 85896, Note_on_c, 0, 78, 0
2, 85896, Note_on_c, 0, 73, 0
2, 85920, Note_on_c, 0, 73, 20
2, 85920, Note_on_c, 0, 78, 20
2, 85920, Note_on_c, 0, 82, 30
2, 86376, Note_on_c, 0, 82, 0
2, 86376, Note_on_c, 0, 78, 0
2, 86376, Note_on_c, 0, 73, 0
2, 86880, Note_on_c, 0, 74, 27
2, 86880, Note_on_c, 0, 78, 27
2, 86880, Note_on_c, 0, 82, 32
2, 87336, Note_on_c, 0, 82, 0
2, 87336, Note_on_c, 0, 78, 0
2, 87336, Note_on_c, 0, 74, 0
2, 87360, Note_on_c, 0, 74, 27
2, 87360, Note_on_c, 0, 78, 27
2, 87360, Note_on_c, 0, 82, 32
2, 87816, Note_on_c, 0, 82, 0
2, 87816, Note_on_c, 0, 78, 0
2, 87816, Note_on_c, 0, 74, 0
2, 88320, Note_on_c, 0, 74, 30
2, 88320, Note_on_c, 0, 78, 30
2, 88320, Note_on_c, 0, 82, 36
2, 88776, Note_on_c, 0, 82, 0
2, 88776, Note_on_c, 0, 78, 0
2, 88776, Note_on_c, 0, 74, 0
2, 88800, Note_on_c, 0, 74, 33
2, 88800, Note_on_c, 0, 78, 33
2, 88800, Note_on_c, 0, 82, 39
2, 89256, Note_on_c, 0, 82, 0
2, 89256, Note_on_c, 0, 78, 0
2, 89256, Note_on_c, 0, 74, 0
2, 89760, Note_on_c, 0, 75, 32
2, 89760, Note_on_c, 0, 78, 32
2, 89760, Note_on_c, 0, 82, 38
2, 90216, Note_on_c, 0, 82, 0
2, 90216, Note_on_c, 0, 78, 0
2, 90216, Note_on_c, 0, 75, 0
2, 90240, Note_on_c, 0, 75, 32
2, 90240, Note_on_c, 0, 78, 32
2, 90240, Note_on_c, 0, 82, 38
2, 90696, Note_on_c, 0, 82, 0
2, 90696, Note_on_c, 0, 78, 0
2, 90696, Note_on_c, 0, 75, 0
2, 91200, Note_on_c, 0, 66, 27
2, 91200, Note_on_c, 0, 70, 27
2, 91200, Note_on_c, 0, 75, 33
2, 91656, Note_on_c, 0, 75, 0
2, 91656, Note_on_c, 0, 70, 0
2, 91656, Note_on_c, 0, 66, 0
2, 91680, Note_on_c, 0, 66, 27
2, 91680, Note_on_c, 0, 70, 27
2, 91680, Note_on_c, 0, 75, 33
2, 92136, Note_on_c, 0, 75, 0
2, 92136, Note_on_c, 0, 70, 0
2, 92136, Note_on_c, 0, 66, 0
2, 92640, Note_on_c, 0, 74, 27
2, 92640, Note_on_c, 0, 78, 27
2, 92640, Note_on_c, 0, 82, 32
2, 93096, Note_on_c, 0, 82, 0
2, 93096, Note_on_c, 0, 78, 0
2, 93096, Note_on_c, 0, 74, 0
2, 93120, Note_on_c, 0, 74, 27
2, 93120, Note_on_c, 0, 78, 27
2, 93120, Note_on_c, 0, 82, 32
2, 93576, Note_on_c, 0, 82, 0
2, 93576, Note_on_c, 0, 78, 0
2, 93576, Note_on_c, 0, 74, 0
2, 94080, Note_on_c, 0, 74, 30
2, 94080, Note_on_c, 0, 78, 30
2, 94080, Note_on_c, 0, 83, 36
2, 94536, Note_on_c, 0, 83, 0
2, 94536, Note_on_c, 0, 78, 0
2, 94536, Note_on_c, 0, 74, 0
2, 94560, Note_on_c, 0, 74, 33
2, 94560, Note_on_c, 0, 78, 33
2, 94560, Note_on_c, 0, 85, 39
2, 95016, Note_on_c, 0, 85, 0
2, 95016, Note_on_c, 0, 78, 0
2, 95016, Note_on_c, 0, 74, 0
2, 95520, Note_on_c, 0, 75, 35
2, 95520, Note_on_c, 0, 78, 35
2, 95520, Note_on_c, 0, 82, 42
2, 95976, Note_on_c, 0, 82, 0
2, 95976, Note_on_c, 0, 78, 0
2, 95976, Note_on_c, 0, 75, 0
2, 96000, Note_on_c, 0, 75, 36
2, 96000, Note_on_c, 0, 78, 36
2, 96000, Note_on_c, 0, 82, 43
2, 96456, Note_on_c, 0, 82, 0
2, 96456, Note_on_c, 0, 78, 0
2, 96456, Note_on_c, 0, 75, 0
2, 96480, Note_on_c, 0, 75, 37
2, 96480, Note_on_c, 0, 78, 37
2, 96480, Note_on_c, 0, 82, 45
2, 96936, Note_on_c, 0, 82, 0
2, 96936, Note_on_c, 0, 78, 0
2, 96936, Note_on_c, 0, 75, 0
2, 96960, Note_on_c, 0, 75, 39
2, 96960, Note_on_c, 0, 78, 39
2, 96960, Note_on_c, 0, 82, 46
2, 97416, Note_on_c, 0, 82, 0
2, 97416, Note_on_c, 0, 78, 0
2, 97416, Note_on_c, 0, 75, 0
2, 97440, Note_on_c, 0, 75, 40
2, 97440, Note_on_c, 0, 78, 40
2, 97440, Note_on_c, 0, 82, 48
2, 97896, Note_on_c, 0, 82, 0
2, 97896, Note_on_c, 0, 78, 0
2, 97896, Note_on_c, 0, 75, 0
2, 98400, Note_on_c, 0, 74, 33
2, 98400, Note_on_c, 0, 78, 33
2, 98400, Note_on_c, 0, 82, 40
2, 98856, Note_on_c, 0, 82, 0
2, 98856, Note_on_c, 0, 78, 0
2, 98856, Note_on_c, 0, 74, 0
2, 98880, Note_on_c, 0, 74, 33
2, 98880, Note_on_c, 0, 78, 33
2, 98880, Note_on_c, 0, 82, 40
2, 99336, Note_on_c, 0, 82, 0
2, 99336, Note_on_c, 0, 78, 0
2, 99336, Note_on_c, 0, 74, 0
2, 99360, Note_on_c, 0, 74, 33
2, 99360, Note_on_c, 0, 78, 33
2, 99360, Note_on_c, 0, 82, 40
2, 99816, Note_on_c, 0, 82, 0
2, 99816, Note_on_c, 0, 78, 0
2, 99816, Note_on_c, 0, 74, 0
2, 99840, Note_on_c, 0, 74, 34
2, 99840, Note_on_c, 0, 78, 34
2, 99840, Note_on_c, 0, 82, 41
2, 100296, Note_on_c, 0, 82, 0
2, 100296, Note_on_c, 0, 78, 0
2, 100296, Note_on_c, 0, 74, 0
2, 100320, Note_on_c, 0, 74, 34
2, 100320, Note_on_c, 0, 78, 34
2, 100320, Note_on_c, 0, 81, 41
2, 100776, Note_on_c, 0, 81, 0
2, 100776, Note_on_c, 0, 78, 0
2, 100776, Note_on_c, 0, 74, 0
2, 101280, Note_on_c, 0, 73, 33
2, 101280, Note_on_c, 0, 77, 33
2, 101280, Note_on_c, 0, 81, 39
2, 101736, Note_on_c, 0, 81, 0
2, 101736, Note_on_c, 0, 77, 0
2, 101736, Note_on_c, 0, 73, 0
2, 101760, Note_on_c, 0, 73, 32
2, 101760, Note_on_c, 0, 77, 32
2, 101760, Note_on_c, 0, 81, 38
2, 102216, Note_on_c, 0, 81, 0
2, 102216, Note_on_c, 0, 77, 0
2, 102216, Note_on_c, 0, 73, 0
2, 102720, Note_on_c, 0, 73, 31
2, 102720, Note_on_c, 0, 77, 31
2, 102720, Note_on_c, 0, 80, 37
2, 103176, Note_on_c, 0, 80, 0
2, 103176, Note_on_c, 0, 77, 0
2, 103176, Note_on_c, 0, 73, 0
2, 103200, Note_on_c, 0, 73, 31
2, 103200, Note_on_c, 0, 77, 31
2, 103200, Note_on_c, 0, 80, 37
2, 103656, Note_on_c, 0, 80, 0
2, 103656, Note_on_c, 0, 77, 0
2, 103656, Note_on_c, 0, 73, 0
2, 104160, Note_on_c, 0, 72, 33
2, 104160, Note_on_c, 0, 76, 33
2, 104160, Note_on_c, 0, 80, 39
2, 104616, Note_on_c, 0, 80, 0
2, 104616, Note_on_c, 0, 76, 0
2, 104616, Note_on_c, 0, 72, 0
2, 104640, Note_on_c, 0, 72, 33
2, 104640, Note_on_c, 0, 76, 33
2, 104640, Note_on_c, 0, 80, 39
2, 105096, Note_on_c, 0, 80, 0
2, 105096, Note_on_c, 0, 76, 0
2, 105096, Note_on_c, 0, 72, 0
2, 105600, Note_on_c, 0, 72, 33
2, 105600, Note_on_c, 0, 76, 33
2, 105600, Note_on_c, 0, 82, 39
2, 105838, Note_on_c, 0, 72, 0
2, 106056, Note_on_c, 0, 82, 0
2, 106056, Note_on_c, 0, 76, 0
2, 106080, Note_on_c, 0, 76, 34
2, 106080, Note_on_c, 0, 84, 41
2, 106536, Note_on_c, 0, 84, 0
2, 106536, Note_on_c, 0, 76, 0
2, 107040, Note_on_c, 0, 73, 34
2, 107040, Note_on_c, 0, 77, 34
2, 107040, Note_on_c, 0, 80, 41
2, 107496, Note_on_c, 0, 80, 0
2, 107496, Note_on_c, 0, 77, 0
2, 107496, Note_on_c, 0, 73, 0
2, 107520, Note_on_c, 0, 73, 34
2, 107520, Note_on_c, 0, 77, 34
2, 107520, Note_on_c, 0, 80, 41
2, 107976, Note_on_c, 0, 80, 0
2, 107976, Note_on_c, 0, 77, 0
2, 107976, Note_on_c, 0, 73, 0
2, 108000, Note_on_c, 0, 89, 53
2, 108456, Note_on_c, 0, 89, 0
2, 108480, Note_on_c, 0, 77, 39
2, 108480, Note_on_c, 0, 80, 39
2, 108480, Note_on_c, 0, 85, 47
2, 108936, Note_on_c, 0, 85, 0
2, 108936, Note_on_c, 0, 80, 0
2, 108936, Note_on_c, 0, 77, 0
2, 108960, Note_on_c, 0, 77, 39
2, 108960, Note_on_c, 0, 80, 39
2, 108960, Note_on_c, 0, 84, 47
2, 109416, Note_on_c, 0, 84, 0
2, 109416, Note_on_c, 0, 80, 0
2, 109416, Note_on_c, 0, 77, 0
2, 109920, Note_on_c, 0, 73, 38
2, 109920, Note_on_c, 0, 77, 38
2, 109920, Note_on_c, 0, 83, 45
2, 110376, Note_on_c, 0, 83, 0
2, 110376, Note_on_c, 0, 77, 0
2, 110376, Note_on_c, 0, 73, 0
2, 110400, Note_on_c, 0, 73, 38
2, 110400, Note_on_c, 0, 77, 38
2, 110400, Note_on_c, 0, 83, 45
2, 110856, Note_on_c, 0, 83, 0
2, 110856, Note_on_c, 0, 77, 0
2, 110856, Note_on_c, 0, 73, 0
2, 110880, Note_on_c, 0, 73, 39
2, 110880, Note_on_c, 0, 77, 39
2, 110880, Note_on_c, 0, 83, 47
2, 111336, Note_on_c, 0, 83, 0
2, 111336, Note_on_c, 0, 77, 0
2, 111336, Note_on_c, 0, 73, 0
2, 111360, Note_on_c, 0, 73, 37
2, 111360, Note_on_c, 0, 77, 37
2, 111360, Note_on_c, 0, 82, 44
2, 111816, Note_on_c, 0, 82, 0
2, 111816, Note_on_c, 0, 77, 0
2, 111816, Note_on_c, 0, 73, 0
2, 111840, Note_on_c, 0, 73, 37
2, 111840, Note_on_c, 0, 77, 37
2, 111840, Note_on_c, 0, 81, 44
2, 112296, Note_on_c, 0, 81, 0
2, 112296, Note_on_c, 0, 77, 0
2, 112296, Note_on_c, 0, 73, 0
2, 112800, Note_on_c, 0, 73, 37
2, 112800, Note_on_c, 0, 77, 37
2, 112800, Note_on_c, 0, 81, 44
2, 113256, Note_on_c, 0, 81, 0
2, 113256, Note_on_c, 0, 77, 0
2, 113256, Note_on_c, 0, 73, 0
2, 113280, Note_on_c, 0, 73, 37
2, 113280, Note_on_c, 0, 77, 37
2, 113280, Note_on_c, 0, 81, 44
2, 113736, Note_on_c, 0, 81, 0
2, 113736, Note_on_c, 0, 77, 0
2, 113736, Note_on_c, 0, 73, 0
2, 114240, Note_on_c, 0, 73, 37
2, 114240, Note_on_c, 0, 77, 37
2, 114240, Note_on_c, 0, 80, 44
2, 114696, Note_on_c, 0, 80, 0
2, 114696, Note_on_c, 0, 77, 0
2, 114696, Note_on_c, 0, 73, 0
2, 114720, Note_on_c, 0, 73, 37
2, 114720, Note_on_c, 0, 77, 37
2, 114720, Note_on_c, 0, 81, 44
2, 115176, Note_on_c, 0, 81, 0
2, 115176, Note_on_c, 0, 77, 0
2, 115176, Note_on_c, 0, 73, 0
2, 115680, Note_on_c, 0, 75, 37
2, 115680, Note_on_c, 0, 78, 37
2, 115680, Note_on_c, 0, 82, 44
2, 116136, Note_on_c, 0, 82, 0
2, 116136, Note_on_c, 0, 78, 0
2, 116136, Note_on_c, 0, 75, 0
2, 116160, Note_on_c, 0, 75, 39
2, 116160, Note_on_c, 0, 78, 39
2, 116160, Note_on_c, 0, 82, 46
2, 116616, Note_on_c, 0, 82, 0
2, 116616, Note_on_c, 0, 78, 0
2, 116616, Note_on_c, 0, 75, 0
2, 116640, Note_on_c, 0, 78, 44
2, 116640, Note_on_c, 0, 75, 44
2, 116640, Note_on_c, 0, 85, 52
2, 117096, Note_on_c, 0, 85, 0
2, 117120, Note_on_c, 0, 75, 0
2, 117120, Note_on_c, 0, 78, 0
2, 117120, Note_on_c, 0, 75, 40
2, 117120, Note_on_c, 0, 78, 40
2, 117120, Note_on_c, 0, 84, 48
2, 117576, Note_on_c, 0, 84, 0
2, 117576, Note_on_c, 0, 78, 0
2, 117576, Note_on_c, 0, 75, 0
2, 117600, Note_on_c, 0, 75, 40
2, 117600, Note_on_c, 0, 78, 40
2, 117600, Note_on_c, 0, 82, 48
2, 118056, Note_on_c, 0, 82, 0
2, 118056, Note_on_c, 0, 78, 0
2, 118056, Note_on_c, 0, 75, 0
2, 118560, Note_on_c, 0, 77, 40
2, 118560, Note_on_c, 0, 80, 40
2, 118560, Note_on_c, 0, 85, 48
2, 119016, Note_on_c, 0, 85, 0
2, 119016, Note_on_c, 0, 80, 0
2, 119016, Note_on_c, 0, 77, 0
2, 119040, Note_on_c, 0, 77, 36
2, 119040, Note_on_c, 0, 80, 36
2, 119040, Note_on_c, 0, 85, 44
2, 119496, Note_on_c, 0, 85, 0
2, 119496, Note_on_c, 0, 80, 0
2, 119496, Note_on_c, 0, 77, 0
2, 119520, Note_on_c, 0, 77, 33
2, 119520, Note_on_c, 0, 80, 33
2, 119520, Note_on_c, 0, 85, 40
2, 119976, Note_on_c, 0, 85, 0
2, 119976, Note_on_c, 0, 80, 0
2, 119976, Note_on_c, 0, 77, 0
2, 120000, Note_on_c, 0, 77, 30
2, 120000, Note_on_c, 0, 80, 30
2, 120000, Note_on_c, 0, 85, 36
2, 120456, Note_on_c, 0, 85, 0
2, 120456, Note_on_c, 0, 80, 0
2, 120456, Note_on_c, 0, 77, 0
2, 120480, Note_on_c, 0, 77, 27
2, 120480, Note_on_c, 0, 80, 27
2, 120480, Note_on_c, 0, 85, 33
2, 120840, Note_on_c, 0, 85, 0
2, 120840, Note_on_c, 0, 80, 0
2, 120840, Note_on_c, 0, 77, 0
2, 120960, Note_on_c, 0, 61, 40
2, 121440, Note_on_c, 0, 53, 20
2, 121440, Note_on_c, 0, 56, 20
2, 121440, Note_on_c, 0, 59, 25
2, 121920, Note_on_c, 0, 59, 0
2, 121920, Note_on_c, 0, 56, 0
2, 121920, Note_on_c, 0, 53, 0
2, 121920, Note_on_c, 0, 53, 20
2, 121920, Note_on_c, 0, 56, 20
2, 121920, Note_on_c, 0, 59, 25
2, 122400, Note_on_c, 0, 59, 0
2, 122400, Note_on_c, 0, 56, 0
2, 122400, Note_on_c, 0, 53, 0
2, 122400, Note_on_c, 0, 53, 20
2, 122400, Note_on_c, 0, 56, 20
2, 122400, Note_on_c, 0, 59, 25
2, 122880, Note_on_c, 0, 59, 0
2, 122880, Note_on_c, 0, 56, 0
2, 122880, Note_on_c, 0, 53, 0
2, 122880, Note_on_c, 0, 53, 20
2, 122880, Note_on_c, 0, 56, 20
2, 122880, Note_on_c, 0, 59, 25
2, 123360, Note_on_c, 0, 59, 0
2, 123360, Note_on_c, 0, 61, 0
2, 123360, Note_on_c, 0, 53, 0
2, 123360, Note_on_c, 0, 56, 0
2, 123360, Note_on_c, 0, 62, 39
2, 123840, Note_on_c, 0, 62, 0
2, 123840, Note_on_c, 0, 62, 43
2, 124320, Note_on_c, 0, 53, 20
2, 124320, Note_on_c, 0, 56, 20
2, 124320, Note_on_c, 0, 59, 25
2, 124800, Note_on_c, 0, 59, 0
2, 124800, Note_on_c, 0, 56, 0
2, 124800, Note_on_c, 0, 53, 0
2, 124800, Note_on_c, 0, 53, 20
2, 124800, Note_on_c, 0, 56, 20
2, 124800, Note_on_c, 0, 59, 25
2, 125280, Note_on_c, 0, 59, 0
2, 125280, Note_on_c, 0, 62, 0
2, 125280, Note_on_c, 0, 53, 0
2, 125280, Note_on_c, 0, 56, 0
2, 125280, Note_on_c, 0, 61, 37
2, 125760, Note_on_c, 0, 53, 20
2, 125760, Note_on_c, 0, 56, 20
2, 125760, Note_on_c, 0, 59, 25
2, 126240, Note_on_c, 0, 59, 0
2, 126240, Note_on_c, 0, 56, 0
2, 126240, Note_on_c, 0, 53, 0
2, 126240, Note_on_c, 0, 53, 20
2, 126240, Note_on_c, 0, 56, 20
2, 126240, Note_on_c, 0, 59, 25
2, 126720, Note_on_c, 0, 59, 0
2, 126720, Note_on_c, 0, 61, 0
2, 126720, Note_on_c, 0, 53, 0
2, 126720, Note_on_c, 0, 56, 0
2, 126720, Note_on_c, 0, 62, 41
2, 127200, Note_on_c, 0, 56, 20
2, 127200, Note_on_c, 0, 59, 25
2, 127680, Note_on_c, 0, 59, 0
2, 127680, Note_on_c, 0, 56, 0
2, 127680, Note_on_c, 0, 56, 20
2, 127680, Note_on_c, 0, 59, 25
2, 128160, Note_on_c, 0, 59, 0
2, 128160, Note_on_c, 0, 56, 0
2, 128160, Note_on_c, 0, 62, 0
2, 128160, Note_on_c, 0, 66, 45
2, 128640, Note_on_c, 0, 66, 0
2, 128640, Note_on_c, 0, 56, 20
2, 128640, Note_on_c, 0, 59, 25
2, 128640, Note_on_c, 0, 62, 42
2, 129120, Note_on_c, 0, 62, 0
2, 129120, Note_on_c, 0, 59, 0
2, 129120, Note_on_c, 0, 56, 0
2, 129120, Note_on_c, 0, 64, 44
2, 129600, Note_on_c, 0, 64, 0
2, 129600, Note_on_c, 0, 61, 40
2, 130080, Note_on_c, 0, 53, 20
2, 130080, Note_on_c, 0, 56, 20
2, 130080, Note_on_c, 0, 59, 25
2, 130560, Note_on_c, 0, 59, 0
2, 130560, Note_on_c, 0, 56, 0
2, 130560, Note_on_c, 0, 53, 0
2, 130560, Note_on_c, 0, 53, 20
2, 130560, Note_on_c, 0, 56, 20
2, 130560, Note_on_c, 0, 59, 25
2, 131040, Note_on_c, 0, 59, 0
2, 131040, Note_on_c, 0, 56, 0
2, 131040, Note_on_c, 0, 53, 0
2, 131040, Note_on_c, 0, 53, 20
2, 131040, Note_on_c, 0, 56, 20
2, 131040, Note_on_c, 0, 59, 25
2, 131520, Note_on_c, 0, 59, 0
2, 131520, Note_on_c, 0, 56, 0
2, 131520, Note_on_c, 0, 53, 0
2, 131520, Note_on_c, 0, 53, 20
2, 131520, Note_on_c, 0, 56, 20
2, 131520, Note_on_c, 0, 59, 25
2, 132000, Note_on_c, 0, 59, 0
2, 132000, Note_on_c, 0, 56, 0
2, 132000, Note_on_c, 0, 53, 0
2, 132000, Note_on_c, 0, 53, 20
2, 132000, Note_on_c, 0, 56, 20
2, 132000, Note_on_c, 0, 59, 25
2, 132360, Note_on_c, 0, 59, 0
2, 132360, Note_on_c, 0, 56, 0
2, 132360, Note_on_c, 0, 53, 0
2, 132480, Note_on_c, 0, 61, 0
2, 132480, Note_on_c, 0, 65, 55
2, 132960, Note_on_c, 0, 56, 31
2, 132960, Note_on_c, 0, 59, 31
2, 132960, Note_on_c, 0, 62, 39
2, 133440, Note_on_c, 0, 62, 0
2, 133440, Note_on_c, 0, 59, 0
2, 133440, Note_on_c, 0, 56, 0
2, 133440, Note_on_c, 0, 56, 31
2, 133440, Note_on_c, 0, 59, 31
2, 133440, Note_on_c, 0, 62, 39
2, 133920, Note_on_c, 0, 62, 0
2, 133920, Note_on_c, 0, 59, 0
2, 133920, Note_on_c, 0, 56, 0
2, 133920, Note_on_c, 0, 56, 31
2, 133920, Note_on_c, 0, 59, 31
2, 133920, Note_on_c, 0, 62, 39
2, 134400, Note_on_c, 0, 62, 0
2, 134400, Note_on_c, 0, 59, 0
2, 134400, Note_on_c, 0, 56, 0
2, 134400, Note_on_c, 0, 56, 31
2, 134400, Note_on_c, 0, 59, 31
2, 134400, Note_on_c, 0, 62, 39
2, 134880, Note_on_c, 0, 62, 0
2, 134880, Note_on_c, 0, 65, 0
2, 134880, Note_on_c, 0, 56, 0
2, 134880, Note_on_c, 0, 59, 0
2, 134880, Note_on_c, 0, 66, 55
2, 135360, Note_on_c, 0, 66, 0
2, 135360, Note_on_c, 0, 66, 61
2, 135840, Note_on_c, 0, 56, 32
2, 135840, Note_on_c, 0, 59, 32
2, 135840, Note_on_c, 0, 62, 40
2, 136320, Note_on_c, 0, 62, 0
2, 136320, Note_on_c, 0, 59, 0
2, 136320, Note_on_c, 0, 56, 0
2, 136320, Note_on_c, 0, 56, 32
2, 136320, Note_on_c, 0, 59, 32
2, 136320, Note_on_c, 0, 62, 41
2, 136800, Note_on_c, 0, 62, 0
2, 136800, Note_on_c, 0, 66, 0
2, 136800, Note_on_c, 0, 56, 0
2, 136800, Note_on_c, 0, 59, 0
2, 136800, Note_on_c, 0, 65, 54
2, 137280, Note_on_c, 0, 56, 33
2, 137280, Note_on_c, 0, 59, 33
2, 137280, Note_on_c, 0, 62, 41
2, 137760, Note_on_c, 0, 62, 0
2, 137760, Note_on_c, 0, 59, 0
2, 137760, Note_on_c, 0, 56, 0
2, 137760, Note_on_c, 0, 56, 33
2, 137760, Note_on_c, 0, 59, 33
2, 137760, Note_on_c, 0, 62, 41
2, 138240, Note_on_c, 0, 62, 0
2, 138240, Note_on_c, 0, 65, 0
2, 138240, Note_on_c, 0, 56, 0
2, 138240, Note_on_c, 0, 59, 0
2, 138240, Note_on_c, 0, 66, 60
2, 138720, Note_on_c, 0, 59, 33
2, 138720, Note_on_c, 0, 62, 42
2, 139200, Note_on_c, 0, 62, 0
2, 139200, Note_on_c, 0, 59, 0
2, 139200, Note_on_c, 0, 59, 33
2, 139200, Note_on_c, 0, 62, 42
2, 139680, Note_on_c, 0, 62, 0
2, 139680, Note_on_c, 0, 59, 0
2, 139680, Note_on_c, 0, 66, 0
2, 139680, Note_on_c, 0, 69, 67
2, 140160, Note_on_c, 0, 69, 0
2, 140160, Note_on_c, 0, 59, 34
2, 140160, Note_on_c, 0, 62, 43
2, 140160, Note_on_c, 0, 66, 63
2, 140640, Note_on_c, 0, 66, 0
2, 140640, Note_on_c, 0, 62, 0
2, 140640, Note_on_c, 0, 59, 0
2, 140640, Note_on_c, 0, 68, 66
2, 141120, Note_on_c, 0, 68, 0
2, 141120, Note_on_c, 0, 65, 65
2, 141600, Note_on_c, 0, 59, 39
2, 141600, Note_on_c, 0, 62, 48
2, 142080, Note_on_c, 0, 62, 0
2, 142080, Note_on_c, 0, 59, 0
2, 142080, Note_on_c, 0, 59, 39
2, 142080, Note_on_c, 0, 62, 48
2, 142560, Note_on_c, 0, 62, 0
2, 142560, Note_on_c, 0, 59, 0
2, 142560, Note_on_c, 0, 59, 39
2, 142560, Note_on_c, 0, 62, 49
2, 143040, Note_on_c, 0, 62, 0
2, 143040, Note_on_c, 0, 59, 0
2, 143040, Note_on_c, 0, 59, 39
2, 143040, Note_on_c, 0, 62, 49
2, 143520, Note_on_c, 0, 62, 0
2, 143520, Note_on_c, 0, 59, 0
2, 143520, Note_on_c, 0, 59, 39
2, 143520, Note_on_c, 0, 62, 49
2, 144000, Note_on_c, 0, 62, 0
2, 144000, Note_on_c, 0, 59, 0
2, 144000, Note_on_c, 0, 65, 0
2, 144000, Note_on_c, 0, 69, 70
2, 144480, Note_on_c, 0, 69, 0
2, 144480, Note_on_c, 0, 59, 39
2, 144480, Note_on_c, 0, 62, 50
2, 144480, Note_on_c, 0, 66, 66
2, 144960, Note_on_c, 0, 66, 0
2, 144960, Note_on_c, 0, 62, 0
2, 144960, Note_on_c, 0, 59, 0
2, 144960, Note_on_c, 0, 68, 69
2, 145440, Note_on_c, 0, 68, 0
2, 145440, Note_on_c, 0, 65, 63
2, 145920, Note_on_c, 0, 59, 40
2, 145920, Note_on_c, 0, 62, 50
2, 146400, Note_on_c, 0, 62, 0
2, 146400, Note_on_c, 0, 59, 0
2, 146400, Note_on_c, 0, 59, 40
2, 146400, Note_on_c, 0, 62, 51
2, 146880, Note_on_c, 0, 62, 0
2, 146880, Note_on_c, 0, 59, 0
2, 146880, Note_on_c, 0, 65, 0
2, 146880, Note_on_c, 0, 69, 71
2, 147360, Note_on_c, 0, 69, 0
2, 147360, Note_on_c, 0, 59, 39
2, 147360, Note_on_c, 0, 62, 51
2, 147360, Note_on_c, 0, 66, 67
2, 147840, Note_on_c, 0, 66, 0
2, 147840, Note_on_c, 0, 62, 0
2, 147840, Note_on_c, 0, 59, 0
2, 147840, Note_on_c, 0, 68, 71
2, 148320, Note_on_c, 0, 68, 0
2, 148320, Note_on_c, 0, 65, 64
2, 148800, Note_on_c, 0, 59, 41
2, 148800, Note_on_c, 0, 62, 52
2, 149280, Note_on_c, 0, 62, 0
2, 149280, Note_on_c, 0, 59, 0
2, 149280, Note_on_c, 0, 59, 41
2, 149280, Note_on_c, 0, 62, 52
2, 149760, Note_on_c, 0, 62, 0
2, 149760, Note_on_c, 0, 59, 0
2, 149760, Note_on_c, 0, 65, 0
2, 149760, Note_on_c, 0, 73, 80
2, 150240, Note_on_c, 0, 73, 0
2, 150240, Note_on_c, 0, 62, 44
2, 150240, Note_on_c, 0, 65, 57
2, 150240, Note_on_c, 0, 69, 75
2, 150720, Note_on_c, 0, 69, 0
2, 150720, Note_on_c, 0, 65, 0
2, 150720, Note_on_c, 0, 62, 0
2, 150720, Note_on_c, 0, 71, 76
2, 151200, Note_on_c, 0, 71, 0
2, 151200, Note_on_c, 0, 68, 73
2, 151680, Note_on_c, 0, 62, 46
2, 151680, Note_on_c, 0, 65, 58
2, 152160, Note_on_c, 0, 65, 0
2, 152160, Note_on_c, 0, 62, 0
2, 152160, Note_on_c, 0, 62, 47
2, 152160, Note_on_c, 0, 65, 58
2, 152640, Note_on_c, 0, 65, 0
2, 152640, Note_on_c, 0, 62, 0
2, 152640, Note_on_c, 0, 68, 0
2, 152640, Note_on_c, 0, 73, 82
2, 153120, Note_on_c, 0, 73, 0
2, 153120, Note_on_c, 0, 62, 44
2, 153120, Note_on_c, 0, 65, 58
2, 153120, Note_on_c, 0, 69, 77
2, 153600, Note_on_c, 0, 69, 0
2, 153600, Note_on_c, 0, 65, 0
2, 153600, Note_on_c, 0, 62, 0
2, 153600, Note_on_c, 0, 71, 78
2, 154080, Note_on_c, 0, 71, 0
2, 154080, Note_on_c, 0, 68, 74
2, 154560, Note_on_c, 0, 62, 47
2, 154560, Note_on_c, 0, 65, 59
2, 155040, Note_on_c, 0, 65, 0
2, 155040, Note_on_c, 0, 62, 0
2, 155040, Note_on_c, 0, 62, 47
2, 155040, Note_on_c, 0, 65, 59
2, 155520, Note_on_c, 0, 65, 0
2, 155520, Note_on_c, 0, 62, 0
2, 155520, Note_on_c, 0, 68, 0
2, 155520, Note_on_c, 0, 76, 80
2, 156000, Note_on_c, 0, 76, 0
2, 156000, Note_on_c, 0, 65, 47
2, 156000, Note_on_c, 0, 68, 47
2, 156000, Note_on_c, 0, 73, 60
2, 156480, Note_on_c, 0, 73, 0
2, 156480, Note_on_c, 0, 68, 0
2, 156480, Note_on_c, 0, 65, 0
2, 156480, Note_on_c, 0, 74, 81
2, 156960, Note_on_c, 0, 74, 0
2, 156960, Note_on_c, 0, 65, 52
2, 156960, Note_on_c, 0, 68, 52
2, 156960, Note_on_c, 0, 71, 66
2, 157440, Note_on_c, 0, 71, 0
2, 157440, Note_on_c, 0, 68, 0
2, 157440, Note_on_c, 0, 65, 0
2, 157440, Note_on_c, 0, 76, 86
2, 157920, Note_on_c, 0, 76, 0
2, 157920, Note_on_c, 0, 65, 54
2, 157920, Note_on_c, 0, 68, 54
2, 157920, Note_on_c, 0, 73, 69
2, 158400, Note_on_c, 0, 73, 0
2, 158400, Note_on_c, 0, 68, 0
2, 158400, Note_on_c, 0, 65, 0
2, 158400, Note_on_c, 0, 74, 94
2, 158880, Note_on_c, 0, 74, 0
2, 158880, Note_on_c, 0, 65, 57
2, 158880, Note_on_c, 0, 68, 57
2, 158880, Note_on_c, 0, 71, 72
2, 159360, Note_on_c, 0, 71, 0
2, 159360, Note_on_c, 0, 68, 0
2, 159360, Note_on_c, 0, 65, 0
2, 159360, Note_on_c, 0, 76, 98
2, 159840, Note_on_c, 0, 76, 0
2, 159840, Note_on_c, 0, 65, 61
2, 159840, Note_on_c, 0, 68, 61
2, 159840, Note_on_c, 0, 73, 77
2, 160320, Note_on_c, 0, 73, 0
2, 160320, Note_on_c, 0, 68, 0
2, 160320, Note_on_c, 0, 65, 0
2, 160320, Note_on_c, 0, 74, 103
2, 160800, Note_on_c, 0, 74, 0
2, 160800, Note_on_c, 0, 65, 63
2, 160800, Note_on_c, 0, 68, 63
2, 160800, Note_on_c, 0, 71, 80
2, 161280, Note_on_c, 0, 71, 0
2, 161280, Note_on_c, 0, 68, 0
2, 161280, Note_on_c, 0, 65, 0
2, 161280, Note_on_c, 0, 65, 88
2, 161280, Note_on_c, 0, 77, 101
2, 166080, Note_on_c, 0, 77, 0
2, 166080, Note_on_c, 0, 65, 0
2, 166800, Note_on_c, 0, 65, 88
2, 166800, Note_on_c, 0, 77, 101
2, 167040, Note_on_c, 0, 77, 0
2, 167040, Note_on_c, 0, 65, 0
2, 167067, Note_on_c, 0, 66, 88
2, 167067, Note_on_c, 0, 78, 101
2, 171867, Note_on_c, 0, 78, 0
2, 171867, Note_on_c, 0, 66, 0
2, 172560, Note_on_c, 0, 66, 88
2, 172560, Note_on_c, 0, 78, 101
2, 172800, Note_on_c, 0, 78, 0
2, 172800, Note_on_c, 0, 66, 0
2, 172800, Note_on_c, 0, 69, 88
2, 172800, Note_on_c, 0, 81, 101
2, 177600, Note_on_c, 0, 81, 0
2, 177600, Note_on_c, 0, 69, 0
2, 178320, Note_on_c, 0, 69, 88
2, 178320, Note_on_c, 0, 81, 101
2, 178560, Note_on_c, 0, 81, 0
2, 178560, Note_on_c, 0, 69, 0
2, 178560, Note_on_c, 0, 71, 92
2, 178560, Note_on_c, 0, 83, 105
2, 181440, Note_on_c, 0, 83, 0
2, 181440, Note_on_c, 0, 71, 0
2, 181440, Note_on_c, 0, 72, 95
2, 181440, Note_on_c, 0, 84, 109
2, 183840, Note_on_c, 0, 84, 0
2, 183840, Note_on_c, 0, 72, 0
2, 183840, Note_on_c, 0, 85, 98
2, 183840, Note_on_c, 0, 73, 80
2, 184200, Note_on_c, 0, 73, 0
2, 184200, Note_on_c, 0, 85, 0
2, 184200, Note_on_c, 0, 73, 50
2, 184320, Note_on_c, 0, 85, 57
2, 186600, Note_on_c, 0, 85, 0
2, 186600, Note_on_c, 0, 73, 0
2, 186600, Note_on_c, 0, 75, 49
2, 186720, Note_on_c, 0, 87, 59
2, 187200, Note_on_c, 0, 87, 0
2, 187200, Note_on_c, 0, 75, 0
2, 187200, Note_on_c, 0, 87, 65
2, 187200, Note_on_c, 0, 75, 54
2, 188640, Note_on_c, 0, 75, 0
2, 188640, Note_on_c, 0, 87, 0
2, 188640, Note_on_c, 0, 85, 57
2, 188640, Note_on_c, 0, 73, 50
2, 189600, Note_on_c, 0, 73, 0
2, 189600, Note_on_c, 0, 85, 0
2, 189600, Note_on_c, 0, 82, 55
2, 189600, Note_on_c, 0, 70, 46
2, 189960, Note_on_c, 0, 70, 0
2, 189960, Note_on_c, 0, 82, 0
2, 189960, Note_on_c, 0, 66, 54
2, 190080, Note_on_c, 0, 78, 61
2, 191520, Note_on_c, 0, 78, 0
2, 191520, Note_on_c, 0, 66, 0
2, 191520, Note_on_c, 0, 80, 57
2, 191520, Note_on_c, 0, 68, 50
2, 192840, Note_on_c, 0, 68, 0
2, 192840, Note_on_c, 0, 80, 0
2, 192840, Note_on_c, 0, 70, 54
2, 192960, Note_on_c, 0, 82, 62
2, 195720, Note_on_c, 0, 82, 0
2, 195720, Note_on_c, 0, 70, 0
2, 195720, Note_on_c, 0, 73, 55
2, 195840, Note_on_c, 0, 85, 63
2, 197280, Note_on_c, 0, 85, 0
2, 197280, Note_on_c, 0, 73, 0
2, 197280, Note_on_c, 0, 89, 65
2, 197280, Note_on_c, 0, 77, 57
2, 197760, Note_on_c, 0, 77, 0
2, 197760, Note_on_c, 0, 89, 0
2, 197760, Note_on_c, 0, 87, 64
2, 197760, Note_on_c, 0, 75, 56
2, 198240, Note_on_c, 0, 75, 0
2, 198240, Note_on_c, 0, 87, 0
2, 198240, Note_on_c, 0, 85, 64
2, 198240, Note_on_c, 0, 73, 56
2, 198600, Note_on_c, 0, 73, 0
2, 198600, Note_on_c, 0, 85, 0
2, 198600, Note_on_c, 0, 75, 63
2, 198720, Note_on_c, 0, 87, 72
2, 199680, Note_on_c, 0, 87, 0
2, 199680, Note_on_c, 0, 75, 0
2, 199680, Note_on_c, 0, 85, 64
2, 199680, Note_on_c, 0, 73, 58
2, 200160, Note_on_c, 0, 73, 0
2, 200160, Note_on_c, 0, 85, 0
2, 200160, Note_on_c, 0, 82, 67
2, 200160, Note_on_c, 0, 70, 59
2, 201120, Note_on_c, 0, 70, 0
2, 201120, Note_on_c, 0, 82, 0
2, 201120, Note_on_c, 0, 78, 63
2, 201120, Note_on_c, 0, 66, 55
2, 201480, Note_on_c, 0, 66, 0
2, 201480, Note_on_c, 0, 78, 0
2, 201480, Note_on_c, 0, 66, 60
2, 201600, Note_on_c, 0, 78, 68
2, 203040, Note_on_c, 0, 78, 0
2, 203040, Note_on_c, 0, 66, 0
2, 203040, Note_on_c, 0, 82, 68
2, 203040, Note_on_c, 0, 70, 60
2, 203520, Note_on_c, 0, 70, 0
2, 203520, Note_on_c, 0, 82, 0
2, 203520, Note_on_c, 0, 80, 61
2, 203520, Note_on_c, 0, 68, 54
2, 204000, Note_on_c, 0, 68, 0
2, 204000, Note_on_c, 0, 80, 0
2, 204000, Note_on_c, 0, 78, 61
2, 204000, Note_on_c, 0, 66, 54
2, 204360, Note_on_c, 0, 66, 0
2, 204360, Note_on_c, 0, 78, 0
2, 204360, Note_on_c, 0, 70, 60
2, 204480, Note_on_c, 0, 82, 68
2, 207240, Note_on_c, 0, 82, 0
2, 207240, Note_on_c, 0, 70, 0
2, 207240, Note_on_c, 0, 70, 60
2, 207360, Note_on_c, 0, 82, 68
2, 209760, Note_on_c, 0, 82, 0
2, 209760, Note_on_c, 0, 70, 0
2, 209760, Note_on_c, 0, 82, 72
2, 209760, Note_on_c, 0, 70, 63
2, 210120, Note_on_c, 0, 70, 0
2, 210120, Note_on_c, 0, 82, 0
2, 210120, Note_on_c, 0, 70, 67
2, 210240, Note_on_c, 0, 82, 77
2, 211680, Note_on_c, 0, 82, 0
2, 211680, Note_on_c, 0, 70, 0
2, 211680, Note_on_c, 0, 75, 72
2, 211680, Note_on_c, 0, 63, 60
2, 213000, Note_on_c, 0, 63, 0
2, 213000, Note_on_c, 0, 75, 0
2, 213000, Note_on_c, 0, 70, 72
2, 213120, Note_on_c, 0, 82, 82
2, 215040, Note_on_c, 0, 82, 0
2, 215040, Note_on_c, 0, 70, 0
2, 215040, Note_on_c, 0, 83, 76
2, 215040, Note_on_c, 0, 71, 67
2, 215520, Note_on_c, 0, 71, 0
2, 215520, Note_on_c, 0, 83, 0
2, 215520, Note_on_c, 0, 85, 76
2, 215520, Note_on_c, 0, 73, 65
2, 215880, Note_on_c, 0, 73, 0
2, 215880, Note_on_c, 0, 85, 0
2, 215880, Note_on_c, 0, 70, 75
2, 216000, Note_on_c, 0, 82, 86
2, 218760, Note_on_c, 0, 82, 0
2, 218760, Note_on_c, 0, 70, 0
2, 218760, Note_on_c, 0, 75, 86
2, 218880, Note_on_c, 0, 87, 102
2, 220320, Note_on_c, 0, 75, 0
2, 221280, Note_on_c, 0, 87, 0
2, 221280, Note_on_c, 0, 86, 82
2, 221280, Note_on_c, 0, 74, 70
2, 221640, Note_on_c, 0, 74, 0
2, 221640, Note_on_c, 0, 86, 0
2, 221640, Note_on_c, 0, 74, 78
2, 221760, Note_on_c, 0, 86, 95
2, 223200, Note_on_c, 0, 86, 0
2, 223200, Note_on_c, 0, 74, 0
2, 223200, Note_on_c, 0, 85, 82
2, 223200, Note_on_c, 0, 73, 70
2, 224520, Note_on_c, 0, 73, 0
2, 224520, Note_on_c, 0, 85, 0
2, 224520, Note_on_c, 0, 73, 76
2, 224640, Note_on_c, 0, 85, 88
2, 225960, Note_on_c, 0, 85, 0
2, 225960, Note_on_c, 0, 73, 0
2, 225960, Note_on_c, 0, 75, 74
2, 226080, Note_on_c, 0, 87, 85
2, 227040, Note_on_c, 0, 87, 0
2, 227040, Note_on_c, 0, 75, 0
2, 227040, Note_on_c, 0, 89, 86
2, 227040, Note_on_c, 0, 77, 73
2, 227400, Note_on_c, 0, 77, 0
2, 227400, Note_on_c, 0, 89, 0
2, 227400, Note_on_c, 0, 73, 83
2, 227520, Note_on_c, 0, 85, 94
2, 228960, Note_on_c, 0, 85, 0
2, 228960, Note_on_c, 0, 73, 0
2, 228960, Note_on_c, 0, 94, 97
2, 228960, Note_on_c, 0, 82, 82
2, 229440, Note_on_c, 0, 82, 0
2, 229440, Note_on_c, 0, 94, 0
2, 229440, Note_on_c, 0, 90, 89
2, 229440, Note_on_c, 0, 78, 75
2, 229920, Note_on_c, 0, 78, 0
2, 229920, Note_on_c, 0, 90, 0
2, 229920, Note_on_c, 0, 89, 87
2, 229920, Note_on_c, 0, 77, 73
2, 230280, Note_on_c, 0, 77, 0
2, 230280, Note_on_c, 0, 89, 0
2, 230280, Note_on_c, 0, 76, 90
2, 230400, Note_on_c, 0, 88, 98
2, 232320, Note_on_c, 0, 88, 0
2, 232320, Note_on_c, 0, 76, 0
2, 232320, Note_on_c, 0, 75, 72
2, 232320, Note_on_c, 0, 87, 85
2, 232800, Note_on_c, 0, 87, 0
2, 232800, Note_on_c, 0, 75, 0
2, 232800, Note_on_c, 0, 74, 71
2, 232800, Note_on_c, 0, 86, 84
2, 233150, Note_on_c, 0, 74, 0
2, 233160, Note_on_c, 0, 74, 82
2, 233280, Note_on_c, 0, 86, 0
2, 233280, Note_on_c, 0, 86, 97
2, 234720, Note_on_c, 0, 86, 0
2, 234720, Note_on_c, 0, 74, 0
2, 234720, Note_on_c, 0, 73, 73
2, 234720, Note_on_c, 0, 85, 86
2, 235680, Note_on_c, 0, 85, 0
2, 235680, Note_on_c, 0, 73, 0
2, 235680, Note_on_c, 0, 86, 83
2, 235680, Note_on_c, 0, 74, 70
2, 236040, Note_on_c, 0, 74, 0
2, 236040, Note_on_c, 0, 86, 0
2, 236040, Note_on_c, 0, 75, 84
2, 236160, Note_on_c, 0, 87, 99
2, 237600, Note_on_c, 0, 87, 0
2, 237600, Note_on_c, 0, 75, 0
2, 237600, Note_on_c, 0, 90, 98
2, 237600, Note_on_c, 0, 78, 83
2, 238080, Note_on_c, 0, 78, 0
2, 238080, Note_on_c, 0, 90, 0
2, 238080, Note_on_c, 0, 89, 87
2, 238080, Note_on_c, 0, 77, 73
2, 238560, Note_on_c, 0, 77, 0
2, 238560, Note_on_c, 0, 89, 0
2, 238560, Note_on_c, 0, 87, 83
2, 238560, Note_on_c, 0, 75, 70
2, 238920, Note_on_c, 0, 75, 0
2, 238920, Note_on_c, 0, 87, 0
2, 238920, Note_on_c, 0, 78, 60
2, 239040, Note_on_c, 0, 90, 67
2, 241800, Note_on_c, 0, 90, 0
2, 241800, Note_on_c, 0, 78, 0
2, 241800, Note_on_c, 0, 79, 58
2, 241920, Note_on_c, 0, 91, 66
2, 244680, Note_on_c, 0, 91, 0
2, 244680, Note_on_c, 0, 79, 0
2, 244680, Note_on_c, 0, 80, 54
2, 244800, Note_on_c, 0, 92, 60
2, 247560, Note_on_c, 0, 92, 0
2, 247560, Note_on_c, 0, 80, 0
2, 247560, Note_on_c, 0, 81, 49
2, 247680, Note_on_c, 0, 93, 56
2, 250440, Note_on_c, 0, 93, 0
2, 250440, Note_on_c, 0, 81, 0
2, 250440, Note_on_c, 0, 82, 45
2, 250560, Note_on_c, 0, 94, 47
2, 254880, Note_on_c, 0, 94, 0
2, 254880, Note_on_c, 0, 82, 0
2, 259080, Note_on_c, 0, 63, 33
2, 259140, Note_on_c, 0, 66, 36
2, 259200, Note_on_c, 0, 69, 39
2, 259260, Note_on_c, 0, 78, 44
2, 260640, Note_on_c, 0, 63, 0
2, 260640, Note_on_c, 0, 62, 33
2, 262080, Note_on_c, 0, 62, 0
2, 262080, Note_on_c, 0, 78, 0
2, 262080, Note_on_c, 0, 69, 0
2, 262080, Note_on_c, 0, 66, 0
2, 264960, Note_on_c, 0, 66, 36
2, 267840, Note_on_c, 0, 66, 0
2, 267840, End_track
3, 0, Start_track
3, 0, Title_t, "Piano left"
3, 0, Program_c, 0, 0
3, 5760, Note_on_c, 0, 73, 35
3, 7920, Note_on_c, 0, 73, 0
3, 7920, Note_on_c, 0, 75, 34
3, 8640, Note_on_c, 0, 75, 0
3, 8640, Note_on_c, 0, 75, 38
3, 10080, Note_on_c, 0, 75, 0
3, 10080, Note_on_c, 0, 73, 35
3, 10800, Note_on_c, 0, 73, 0
3, 10800, Note_on_c, 0, 70, 33
3, 11520, Note_on_c, 0, 70, 0
3, 11520, Note_on_c, 0, 66, 37
3, 12960, Note_on_c, 0, 66, 0
3, 12960, Note_on_c, 0, 68, 35
3, 14400, Note_on_c, 0, 68, 0
3, 14400, Note_on_c, 0, 70, 38
3, 17280, Note_on_c, 0, 70, 0
3, 17280, Note_on_c, 0, 73, 39
3, 18720, Note_on_c, 0, 73, 0
3, 18720, Note_on_c, 0, 77, 41
3, 19200, Note_on_c, 0, 77, 0
3, 19200, Note_on_c, 0, 75, 39
3, 19680, Note_on_c, 0, 75, 0
3, 19680, Note_on_c, 0, 73, 39
3, 20160, Note_on_c, 0, 73, 0
3, 20160, Note_on_c, 0, 75, 44
3, 20880, Note_on_c, 0, 75, 0
3, 20880, Note_on_c, 0, 73, 42
3, 21600, Note_on_c, 0, 73, 0
3, 21600, Note_on_c, 0, 70, 41
3, 22320, Note_on_c, 0, 70, 0
3, 22320, Note_on_c, 0, 66, 39
3, 23040, Note_on_c, 0, 66, 0
3, 23040, Note_on_c, 0, 66, 42
3, 24480, Note_on_c, 0, 66, 0
3, 24480, Note_on_c, 0, 70, 42
3, 24960, Note_on_c, 0, 70, 0
3, 24960, Note_on_c, 0, 68, 37
3, 25440, Note_on_c, 0, 68, 0
3, 25440, Note_on_c, 0, 66, 37
3, 25920, Note_on_c, 0, 66, 0
3, 25920, Note_on_c, 0, 70, 42
3, 28320, Note_on_c, 0, 70, 0
3, 28800, Note_on_c, 0, 70, 42
3, 30240, Note_on_c, 0, 62, 42
3, 30240, Note_on_c, 0, 54, 34
3, 30720, Note_on_c, 0, 54, 0
3, 30720, Note_on_c, 0, 62, 0
3, 30960, Note_on_c, 0, 70, 0
3, 30960, Note_on_c, 0, 70, 49
3, 31680, Note_on_c, 0, 70, 0
3, 31680, Note_on_c, 0, 70, 52
3, 33120, Note_on_c, 0, 70, 0
3, 33120, Note_on_c, 0, 63, 48
3, 34560, Note_on_c, 0, 63, 0
3, 34560, Note_on_c, 0, 70, 42
3, 36000, Note_on_c, 0, 54, 34
3, 36000, Note_on_c, 0, 62, 42
3, 36480, Note_on_c, 0, 62, 0
3, 36480, Note_on_c, 0, 54, 0
3, 36480, Note_on_c, 0, 70, 0
3, 36480, Note_on_c, 0, 71, 49
3, 36960, Note_on_c, 0, 71, 0
3, 36960, Note_on_c, 0, 73, 49
3, 37440, Note_on_c, 0, 73, 0
3, 37440, Note_on_c, 0, 70, 52
3, 40320, Note_on_c, 0, 70, 0
3, 40320, Note_on_c, 0, 70, 54
3, 42480, Note_on_c, 0, 70, 0
3, 42480, Note_on_c, 0, 69, 48
3, 43200, Note_on_c, 0, 69, 0
3, 43200, Note_on_c, 0, 69, 45
3, 44640, Note_on_c, 0, 69, 0
3, 44640, Note_on_c, 0, 68, 44
3, 46080, Note_on_c, 0, 68, 0
3, 46080, Note_on_c, 0, 68, 48
3, 47520, Note_on_c, 0, 68, 0
3, 47520, Note_on_c, 0, 70, 51
3, 48240, Note_on_c, 0, 70, 0
3, 48240, Note_on_c, 0, 72, 50
3, 48960, Note_on_c, 0, 72, 0
3, 48960, Note_on_c, 0, 68, 57
3, 50400, Note_on_c, 0, 68, 0
3, 50400, Note_on_c, 0, 77, 58
3, 50878, Note_on_c, 0, 77, 0
3, 50880, Note_on_c, 0, 73, 56
3, 51360, Note_on_c, 0, 73, 0
3, 51360, Note_on_c, 0, 72, 56
3, 51840, Note_on_c, 0, 72, 0
3, 51840, Note_on_c, 0, 71, 57
3, 53760, Note_on_c, 0, 71, 0
3, 53760, Note_on_c, 0, 70, 53
3, 54240, Note_on_c, 0, 70, 0
3, 54240, Note_on_c, 0, 69, 53
3, 54720, Note_on_c, 0, 69, 0
3, 54720, Note_on_c, 0, 69, 55
3, 56160, Note_on_c, 0, 69, 0
3, 56160, Note_on_c, 0, 68, 56
3, 57120, Note_on_c, 0, 68, 0
3, 57120, Note_on_c, 0, 69, 58
3, 57600, Note_on_c, 0, 69, 0
3, 57600, Note_on_c, 0, 70, 57
3, 59040, Note_on_c, 0, 70, 0
3, 59040, Note_on_c, 0, 73, 60
3, 59518, Note_on_c, 0, 73, 0
3, 59520, Note_on_c, 0, 72, 54
3, 60000, Note_on_c, 0, 72, 0
3, 60000, Note_on_c, 0, 70, 54
3, 60480, Note_on_c, 0, 70, 0
3, 60480, Note_on_c, 0, 73, 60
3, 63360, Note_on_c, 0, 73, 0
3, 63360, Note_on_c, 0, 73, 35
3, 65520, Note_on_c, 0, 73, 0
3, 65520, Note_on_c, 0, 75, 34
3, 66240, Note_on_c, 0, 75, 0
3, 66240, Note_on_c, 0, 75, 38
3, 67680, Note_on_c, 0, 75, 0
3, 67680, Note_on_c, 0, 73, 35
3, 68400, Note_on_c, 0, 73, 0
3, 68400, Note_on_c, 0, 70, 33
3, 69120, Note_on_c, 0, 70, 0
3, 69120, Note_on_c, 0, 66, 37
3, 70560, Note_on_c, 0, 66, 0
3, 70560, Note_on_c, 0, 68, 35
3, 72000, Note_on_c, 0, 68, 0
3, 72000, Note_on_c, 0, 70, 38
3, 74880, Note_on_c, 0, 70, 0
3, 74880, Note_on_c, 0, 73, 39
3, 76320, Note_on_c, 0, 73, 0
3, 76320, Note_on_c, 0, 77, 41
3, 76800, Note_on_c, 0, 77, 0
3, 76800, Note_on_c, 0, 75, 39
3, 77280, Note_on_c, 0, 75, 0
3, 77280, Note_on_c, 0, 73, 39
3, 77760, Note_on_c, 0, 73, 0
3, 77760, Note_on_c, 0, 75, 44
3, 78480, Note_on_c, 0, 75, 0
3, 78480, Note_on_c, 0, 73, 42
3, 79200, Note_on_c, 0, 73, 0
3, 79200, Note_on_c, 0, 70, 41
3, 79920, Note_on_c, 0, 70, 0
3, 79920, Note_on_c, 0, 66, 39
3, 80640, Note_on_c, 0, 66, 0
3, 80640, Note_on_c, 0, 66, 42
3, 82080, Note_on_c, 0, 66, 0
3, 82080, Note_on_c, 0, 70, 42
3, 82560, Note_on_c, 0, 70, 0
3, 82560, Note_on_c, 0, 68, 37
3, 83040, Note_on_c, 0, 68, 0
3, 83040, Note_on_c, 0, 66, 37
3, 83520, Note_on_c, 0, 66, 0
3, 83520, Note_on_c, 0, 70, 42
3, 85920, Note_on_c, 0, 70, 0
3, 86400, Note_on_c, 0, 70, 42
3, 87840, Note_on_c, 0, 54, 30
3, 87840, Note_on_c, 0, 62, 37
3, 88320, Note_on_c, 0, 62, 0
3, 88320, Note_on_c, 0, 54, 0
3, 88560, Note_on_c, 0, 70, 0
3, 88560, Note_on_c, 0, 70, 49
3, 89280, Note_on_c, 0, 70, 0
3, 89280, Note_on_c, 0, 70, 52
3, 90720, Note_on_c, 0, 70, 0
3, 90720, Note_on_c, 0, 63, 48
3, 92160, Note_on_c, 0, 63, 0
3, 92160, Note_on_c, 0, 70, 42
3, 93600, Note_on_c, 0, 54, 30
3, 93600, Note_on_c, 0, 62, 37
3, 94080, Note_on_c, 0, 62, 0
3, 94080, Note_on_c, 0, 54, 0
3, 94080, Note_on_c, 0, 70, 0
3, 94080, Note_on_c, 0, 71, 49
3, 94560, Note_on_c, 0, 71, 0
3, 94560, Note_on_c, 0, 73, 49
3, 95040, Note_on_c, 0, 73, 0
3, 95040, Note_on_c, 0, 70, 52
3, 97920, Note_on_c, 0, 70, 0
3, 97920, Note_on_c, 0, 70, 54
3, 100080, Note_on_c, 0, 70, 0
3, 100080, Note_on_c, 0, 69, 48
3, 100800, Note_on_c, 0, 69, 0
3, 100800, Note_on_c, 0, 69, 45
3, 102240, Note_on_c, 0, 69, 0
3, 102240, Note_on_c, 0, 68, 44
3, 103680, Note_on_c, 0, 68, 0
3, 103680, Note_on_c, 0, 68, 48
3, 105120, Note_on_c, 0, 68, 0
3, 105120, Note_on_c, 0, 70, 51
3, 105840, Note_on_c, 0, 70, 0
3, 105840, Note_on_c, 0, 72, 50
3, 106560, Note_on_c, 0, 72, 0
3, 106560, Note_on_c, 0, 68, 57
3, 108000, Note_on_c, 0, 68, 0
3, 108000, Note_on_c, 0, 77, 58
3, 108478, Note_on_c, 0, 77, 0
3, 108480, Note_on_c, 0, 73, 56
3, 108960, Note_on_c, 0, 73, 0
3, 108960, Note_on_c, 0, 72, 56
3, 109440, Note_on_c, 0, 72, 0
3, 109440, Note_on_c, 0, 71, 57
3, 111360, Note_on_c, 0, 71, 0
3, 111360, Note_on_c, 0, 70, 53
3, 111840, Note_on_c, 0, 70, 0
3, 111840, Note_on_c, 0, 69, 53
3, 112320, Note_on_c, 0, 69, 0
3, 112320, Note_on_c, 0, 69, 55
3, 113760, Note_on_c, 0, 69, 0
3, 113760, Note_on_c, 0, 68, 56
3, 114720, Note_on_c, 0, 68, 0
3, 114720, Note_on_c, 0, 69, 58
3, 115200, Note_on_c, 0, 69, 0
3, 115200, Note_on_c, 0, 70, 57
3, 116640, Note_on_c, 0, 70, 0
3, 116640, Note_on_c, 0, 73, 60
3, 117118, Note_on_c, 0, 73, 0
3, 117120, Note_on_c, 0, 72, 54
3, 117600, Note_on_c, 0, 72, 0
3, 117600, Note_on_c, 0, 70, 54
3, 118080, Note_on_c, 0, 70, 0
3, 118080, Note_on_c, 0, 73, 60
3, 120840, Note_on_c, 0, 37, 35
3, 120960, Note_on_c, 0, 37, 0
3, 120960, Note_on_c, 0, 73, 0
3, 120960, Note_on_c, 0, 49, 37
3, 123360, Note_on_c, 0, 49, 0
3, 123360, Note_on_c, 0, 50, 37
3, 123840, Note_on_c, 0, 50, 0
3, 123840, Note_on_c, 0, 50, 44
3, 125280, Note_on_c, 0, 50, 0
3, 125280, Note_on_c, 0, 49, 37
3, 126720, Note_on_c, 0, 49, 0
3, 126720, Note_on_c, 0, 50, 37
3, 128160, Note_on_c, 0, 50, 0
3, 128160, Note_on_c, 0, 54, 43
3, 128640, Note_on_c, 0, 54, 0
3, 128640, Note_on_c, 0, 50, 39
3, 129120, Note_on_c, 0, 50, 0
3, 129120, Note_on_c, 0, 52, 41
3, 129600, Note_on_c, 0, 52, 0
3, 129600, Note_on_c, 0, 49, 39
3, 132360, Note_on_c, 0, 41, 40
3, 132480, Note_on_c, 0, 41, 0
3, 132480, Note_on_c, 0, 49, 0
3, 132480, Note_on_c, 0, 53, 51
3, 134880, Note_on_c, 0, 53, 0
3, 134880, Note_on_c, 0, 54, 53
3, 135360, Note_on_c, 0, 54, 0
3, 135360, Note_on_c, 0, 54, 62
3, 136800, Note_on_c, 0, 54, 0
3, 136800, Note_on_c, 0, 53, 54
3, 138240, Note_on_c, 0, 53, 0
3, 138240, Note_on_c, 0, 54, 54
3, 139680, Note_on_c, 0, 54, 0
3, 139680, Note_on_c, 0, 57, 64
3, 140160, Note_on_c, 0, 57, 0
3, 140160, Note_on_c, 0, 54, 58
3, 140640, Note_on_c, 0, 54, 0
3, 140640, Note_on_c, 0, 56, 62
3, 141120, Note_on_c, 0, 56, 0
3, 141120, Note_on_c, 0, 53, 59
3, 144000, Note_on_c, 0, 53, 0
3, 144000, Note_on_c, 0, 57, 67
3, 144480, Note_on_c, 0, 57, 0
3, 144480, Note_on_c, 0, 54, 60
3, 144960, Note_on_c, 0, 54, 0
3, 144960, Note_on_c, 0, 56, 65
3, 145440, Note_on_c, 0, 56, 0
3, 145440, Note_on_c, 0, 53, 61
3, 146880, Note_on_c, 0, 53, 0
3, 146880, Note_on_c, 0, 57, 68
3, 147360, Note_on_c, 0, 57, 0
3, 147360, Note_on_c, 0, 54, 61
3, 147840, Note_on_c, 0, 54, 0
3, 147840, Note_on_c, 0, 56, 66
3, 148320, Note_on_c, 0, 56, 0
3, 148320, Note_on_c, 0, 53, 62
3, 149760, Note_on_c, 0, 53, 0
3, 149760, Note_on_c, 0, 61, 76
3, 150240, Note_on_c, 0, 61, 0
3, 150240, Note_on_c, 0, 57, 69
3, 150720, Note_on_c, 0, 57, 0
3, 150720, Note_on_c, 0, 59, 69
3, 151200, Note_on_c, 0, 59, 0
3, 151200, Note_on_c, 0, 56, 71
3, 152640, Note_on_c, 0, 56, 0
3, 152640, Note_on_c, 0, 61, 78
3, 153120, Note_on_c, 0, 61, 0
3, 153120, Note_on_c, 0, 57, 70
3, 153600, Note_on_c, 0, 57, 0
3, 153600, Note_on_c, 0, 59, 71
3, 154080, Note_on_c, 0, 59, 0
3, 154080, Note_on_c, 0, 56, 72
3, 155520, Note_on_c, 0, 56, 0
3, 155520, Note_on_c, 0, 64, 69
3, 156000, Note_on_c, 0, 64, 0
3, 156000, Note_on_c, 0, 61, 64
3, 156480, Note_on_c, 0, 61, 0
3, 156480, Note_on_c, 0, 62, 71
3, 156960, Note_on_c, 0, 62, 0
3, 156960, Note_on_c, 0, 59, 67
3, 157440, Note_on_c, 0, 59, 0
3, 157440, Note_on_c, 0, 64, 76
3, 157920, Note_on_c, 0, 64, 0
3, 157920, Note_on_c, 0, 61, 72
3, 158400, Note_on_c, 0, 61, 0
3, 158400, Note_on_c, 0, 62, 81
3, 158880, Note_on_c, 0, 62, 0
3, 158880, Note_on_c, 0, 59, 75
3, 159360, Note_on_c, 0, 59, 0
3, 159360, Note_on_c, 0, 64, 85
3, 159840, Note_on_c, 0, 64, 0
3, 159840, Note_on_c, 0, 61, 80
3, 160320, Note_on_c, 0, 61, 0
3, 160320, Note_on_c, 0, 62, 90
3, 160800, Note_on_c, 0, 62, 0
3, 160800, Note_on_c, 0, 59, 85
3, 161280, Note_on_c, 0, 59, 0
3, 161760, Note_on_c, 0, 49, 55
3, 161760, Note_on_c, 0, 53, 55
3, 161760, Note_on_c, 0, 61, 69
3, 161760, Note_on_c, 0, 56, 55
3, 162240, Note_on_c, 0, 56, 0
3, 162240, Note_on_c, 0, 49, 0
3, 162240, Note_on_c, 0, 53, 0
3, 162240, Note_on_c, 0, 61, 0
3, 162240, Note_on_c, 0, 49, 54
3, 162240, Note_on_c, 0, 53, 54
3, 162240, Note_on_c, 0, 56, 54
3, 162240, Note_on_c, 0, 61, 67
3, 162720, Note_on_c, 0, 61, 0
3, 162720, Note_on_c, 0, 49, 0
3, 162720, Note_on_c, 0, 53, 0
3, 162720, Note_on_c, 0, 56, 0
3, 162720, Note_on_c, 0, 61, 66
3, 162720, Note_on_c, 0, 49, 52
3, 162720, Note_on_c, 0, 53, 52
3, 162720, Note_on_c, 0, 56, 52
3, 163200, Note_on_c, 0, 56, 0
3, 163200, Note_on_c, 0, 61, 0
3, 163200, Note_on_c, 0, 49, 0
3, 163200, Note_on_c, 0, 53, 0
3, 163200, Note_on_c, 0, 61, 65
3, 163200, Note_on_c, 0, 49, 51
3, 163200, Note_on_c, 0, 53, 51
3, 163200, Note_on_c, 0, 56, 51
3, 163680, Note_on_c, 0, 56, 0
3, 163680, Note_on_c, 0, 61, 0
3, 163680, Note_on_c, 0, 49, 0
3, 163680, Note_on_c, 0, 53, 0
3, 163680, Note_on_c, 0, 61, 64
3, 163680, Note_on_c, 0, 49, 50
3, 163680, Note_on_c, 0, 53, 50
3, 163680, Note_on_c, 0, 56, 50
3, 164160, Note_on_c, 0, 56, 0
3, 164160, Note_on_c, 0, 61, 0
3, 164160, Note_on_c, 0, 49, 0
3, 164160, Note_on_c, 0, 53, 0
3, 164160, Note_on_c, 0, 61, 63
3, 164160, Note_on_c, 0, 49, 50
3, 164160, Note_on_c, 0, 53, 50
3, 164160, Note_on_c, 0, 56, 50
3, 164640, Note_on_c, 0, 56, 0
3, 164640, Note_on_c, 0, 61, 0
3, 164640, Note_on_c, 0, 49, 0
3, 164640, Note_on_c, 0, 53, 0
3, 164640, Note_on_c, 0, 61, 62
3, 164640, Note_on_c, 0, 49, 49
3, 164640, Note_on_c, 0, 53, 49
3, 164640, Note_on_c, 0, 56, 49
3, 165120, Note_on_c, 0, 56, 0
3, 165120, Note_on_c, 0, 61, 0
3, 165120, Note_on_c, 0, 49, 0
3, 165120, Note_on_c, 0, 53, 0
3, 165120, Note_on_c, 0, 61, 60
3, 165120, Note_on_c, 0, 49, 48
3, 165120, Note_on_c, 0, 53, 48
3, 165120, Note_on_c, 0, 56, 48
3, 165600, Note_on_c, 0, 56, 0
3, 165600, Note_on_c, 0, 61, 0
3, 165600, Note_on_c, 0, 49, 0
3, 165600, Note_on_c, 0, 53, 0
3, 165600, Note_on_c, 0, 49, 47
3, 165600, Note_on_c, 0, 53, 47
3, 165600, Note_on_c, 0, 56, 47
3, 165600, Note_on_c, 0, 61, 59
3, 166080, Note_on_c, 0, 61, 0
3, 166080, Note_on_c, 0, 49, 0
3, 166080, Note_on_c, 0, 53, 0
3, 166080, Note_on_c, 0, 56, 0
3, 166080, Note_on_c, 0, 49, 46
3, 166080, Note_on_c, 0, 53, 46
3, 166080, Note_on_c, 0, 56, 46
3, 166080, Note_on_c, 0, 61, 58
3, 166560, Note_on_c, 0, 61, 0
3, 166560, Note_on_c, 0, 49, 0
3, 166560, Note_on_c, 0, 53, 0
3, 166560, Note_on_c, 0, 56, 0
3, 167520, Note_on_c, 0, 47, 55
3, 167520, Note_on_c, 0, 62, 69
3, 167520, Note_on_c, 0, 54, 55
3, 167520, Note_on_c, 0, 59, 55
3, 168000, Note_on_c, 0, 59, 0
3, 168000, Note_on_c, 0, 47, 0
3, 168000, Note_on_c, 0, 62, 0
3, 168000, Note_on_c, 0, 54, 0
3, 168000, Note_on_c, 0, 47, 54
3, 168000, Note_on_c, 0, 59, 54
3, 168000, Note_on_c, 0, 54, 54
3, 168000, Note_on_c, 0, 62, 67
3, 168480, Note_on_c, 0, 62, 0
3, 168480, Note_on_c, 0, 47, 0
3, 168480, Note_on_c, 0, 59, 0
3, 168480, Note_on_c, 0, 54, 0
3, 168480, Note_on_c, 0, 47, 52
3, 168480, Note_on_c, 0, 59, 52
3, 168480, Note_on_c, 0, 54, 52
3, 168480, Note_on_c, 0, 62, 66
3, 168960, Note_on_c, 0, 62, 0
3, 168960, Note_on_c, 0, 47, 0
3, 168960, Note_on_c, 0, 59, 0
3, 168960, Note_on_c, 0, 54, 0
3, 168960, Note_on_c, 0, 47, 51
3, 168960, Note_on_c, 0, 59, 51
3, 168960, Note_on_c, 0, 54, 51
3, 168960, Note_on_c, 0, 62, 65
3, 169440, Note_on_c, 0, 62, 0
3, 169440, Note_on_c, 0, 47, 0
3, 169440, Note_on_c, 0, 59, 0
3, 169440, Note_on_c, 0, 54, 0
3, 169440, Note_on_c, 0, 47, 50
3, 169440, Note_on_c, 0, 59, 50
3, 169440, Note_on_c, 0, 54, 50
3, 169440, Note_on_c, 0, 62, 64
3, 169920, Note_on_c, 0, 62, 0
3, 169920, Note_on_c, 0, 47, 0
3, 169920, Note_on_c, 0, 59, 0
3, 169920, Note_on_c, 0, 54, 0
3, 169920, Note_on_c, 0, 47, 50
3, 169920, Note_on_c, 0, 59, 50
3, 169920, Note_on_c, 0, 54, 50
3, 169920, Note_on_c, 0, 62, 63
3, 170400, Note_on_c, 0, 62, 0
3, 170400, Note_on_c, 0, 47, 0
3, 170400, Note_on_c, 0, 59, 0
3, 170400, Note_on_c, 0, 54, 0
3, 170400, Note_on_c, 0, 54, 49
3, 170400, Note_on_c, 0, 47, 49
3, 170400, Note_on_c, 0, 59, 49
3, 170400, Note_on_c, 0, 62, 62
3, 170880, Note_on_c, 0, 62, 0
3, 170880, Note_on_c, 0, 54, 0
3, 170880, Note_on_c, 0, 47, 0
3, 170880, Note_on_c, 0, 59, 0
3, 170880, Note_on_c, 0, 47, 48
3, 170880, Note_on_c, 0, 54, 48
3, 170880, Note_on_c, 0, 59, 48
3, 170880, Note_on_c, 0, 62, 60
3, 171360, Note_on_c, 0, 62, 0
3, 171360, Note_on_c, 0, 47, 0
3, 171360, Note_on_c, 0, 54, 0
3, 171360, Note_on_c, 0, 59, 0
3, 171360, Note_on_c, 0, 47, 47
3, 171360, Note_on_c, 0, 54, 47
3, 171360, Note_on_c, 0, 62, 59
3, 171360, Note_on_c, 0, 59, 47
3, 171840, Note_on_c, 0, 59, 0
3, 171840, Note_on_c, 0, 47, 0
3, 171840, Note_on_c, 0, 54, 0
3, 171840, Note_on_c, 0, 62, 0
3, 171840, Note_on_c, 0, 54, 46
3, 171840, Note_on_c, 0, 47, 46
3, 171840, Note_on_c, 0, 62, 58
3, 171840, Note_on_c, 0, 59, 46
3, 172320, Note_on_c, 0, 59, 0
3, 172320, Note_on_c, 0, 54, 0
3, 172320, Note_on_c, 0, 47, 0
3, 172320, Note_on_c, 0, 62, 0
3, 173280, Note_on_c, 0, 54, 55
3, 173280, Note_on_c, 0, 45, 55
3, 173280, Note_on_c, 0, 57, 55
3, 173280, Note_on_c, 0, 62, 69
3, 173760, Note_on_c, 0, 62, 0
3, 173760, Note_on_c, 0, 54, 0
3, 173760, Note_on_c, 0, 45, 0
3, 173760, Note_on_c, 0, 57, 0
3, 173760, Note_on_c, 0, 54, 54
3, 173760, Note_on_c, 0, 45, 54
3, 173760, Note_on_c, 0, 62, 67
3, 173760, Note_on_c, 0, 57, 54
3, 174240, Note_on_c, 0, 57, 0
3, 174240, Note_on_c, 0, 54, 0
3, 174240, Note_on_c, 0, 45, 0
3, 174240, Note_on_c, 0, 62, 0
3, 174240, Note_on_c, 0, 54, 52
3, 174240, Note_on_c, 0, 45, 52
3, 174240, Note_on_c, 0, 62, 66
3, 174240, Note_on_c, 0, 57, 52
3, 174720, Note_on_c, 0, 57, 0
3, 174720, Note_on_c, 0, 54, 0
3, 174720, Note_on_c, 0, 45, 0
3, 174720, Note_on_c, 0, 62, 0
3, 174720, Note_on_c, 0, 54, 51
3, 174720, Note_on_c, 0, 45, 51
3, 174720, Note_on_c, 0, 62, 65
3, 174720, Note_on_c, 0, 57, 51
3, 175200, Note_on_c, 0, 57, 0
3, 175200, Note_on_c, 0, 54, 0
3, 175200, Note_on_c, 0, 45, 0
3, 175200, Note_on_c, 0, 62, 0
3, 175200, Note_on_c, 0, 62, 64
3, 175200, Note_on_c, 0, 45, 50
3, 175200, Note_on_c, 0, 54, 50
3, 175200, Note_on_c, 0, 57, 50
3, 175680, Note_on_c, 0, 57, 0
3, 175680, Note_on_c, 0, 62, 0
3, 175680, Note_on_c, 0, 45, 0
3, 175680, Note_on_c, 0, 54, 0
3, 175680, Note_on_c, 0, 54, 50
3, 175680, Note_on_c, 0, 57, 50
3, 175680, Note_on_c, 0, 62, 63
3, 175680, Note_on_c, 0, 45, 50
3, 176160, Note_on_c, 0, 45, 0
3, 176160, Note_on_c, 0, 54, 0
3, 176160, Note_on_c, 0, 57, 0
3, 176160, Note_on_c, 0, 62, 0
3, 176160, Note_on_c, 0, 54, 49
3, 176160, Note_on_c, 0, 57, 49
3, 176160, Note_on_c, 0, 62, 62
3, 176160, Note_on_c, 0, 45, 49
3, 176640, Note_on_c, 0, 45, 0
3, 176640, Note_on_c, 0, 54, 0
3, 176640, Note_on_c, 0, 57, 0
3, 176640, Note_on_c, 0, 62, 0
3, 176640, Note_on_c, 0, 62, 60
3, 176640, Note_on_c, 0, 45, 48
3, 176640, Note_on_c, 0, 54, 48
3, 176640, Note_on_c, 0, 57, 48
3, 177120, Note_on_c, 0, 57, 0
3, 177120, Note_on_c, 0, 62, 0
3, 177120, Note_on_c, 0, 45, 0
3, 177120, Note_on_c, 0, 54, 0
3, 177120, Note_on_c, 0, 62, 59
3, 177120, Note_on_c, 0, 45, 47
3, 177120, Note_on_c, 0, 54, 47
3, 177120, Note_on_c, 0, 57, 47
3, 177600, Note_on_c, 0, 57, 0
3, 177600, Note_on_c, 0, 62, 0
3, 177600, Note_on_c, 0, 45, 0
3, 177600, Note_on_c, 0, 54, 0
3, 177600, Note_on_c, 0, 62, 58
3, 177600, Note_on_c, 0, 45, 46
3, 177600, Note_on_c, 0, 54, 46
3, 177600, Note_on_c, 0, 57, 46
3, 178080, Note_on_c, 0, 57, 0
3, 178080, Note_on_c, 0, 62, 0
3, 178080, Note_on_c, 0, 45, 0
3, 178080, Note_on_c, 0, 54, 0
3, 179040, Note_on_c, 0, 66, 75
3, 179040, Note_on_c, 0, 62, 59
3, 179040, Note_on_c, 0, 44, 59
3, 179040, Note_on_c, 0, 54, 59
3, 179040, Note_on_c, 0, 59, 59
3, 179520, Note_on_c, 0, 59, 0
3, 179520, Note_on_c, 0, 44, 0
3, 179520, Note_on_c, 0, 66, 0
3, 179520, Note_on_c, 0, 62, 0
3, 179520, Note_on_c, 0, 54, 0
3, 179520, Note_on_c, 0, 54, 59
3, 179520, Note_on_c, 0, 62, 59
3, 179520, Note_on_c, 0, 44, 59
3, 179520, Note_on_c, 0, 66, 75
3, 179520, Note_on_c, 0, 59, 59
3, 180000, Note_on_c, 0, 59, 0
3, 180000, Note_on_c, 0, 44, 0
3, 180000, Note_on_c, 0, 54, 0
3, 180000, Note_on_c, 0, 62, 0
3, 180000, Note_on_c, 0, 66, 0
3, 180000, Note_on_c, 0, 54, 59
3, 180000, Note_on_c, 0, 62, 59
3, 180000, Note_on_c, 0, 44, 59
3, 180000, Note_on_c, 0, 59, 59
3, 180000, Note_on_c, 0, 66, 75
3, 180480, Note_on_c, 0, 66, 0
3, 180480, Note_on_c, 0, 44, 0
3, 180480, Note_on_c, 0, 54, 0
3, 180480, Note_on_c, 0, 62, 0
3, 180480, Note_on_c, 0, 59, 0
3, 180480, Note_on_c, 0, 62, 58
3, 180480, Note_on_c, 0, 44, 58
3, 180480, Note_on_c, 0, 54, 58
3, 180480, Note_on_c, 0, 59, 58
3, 180480, Note_on_c, 0, 66, 75
3, 180960, Note_on_c, 0, 66, 0
3, 180960, Note_on_c, 0, 54, 0
3, 180960, Note_on_c, 0, 62, 0
3, 180960, Note_on_c, 0, 44, 0
3, 180960, Note_on_c, 0, 59, 0
3, 180960, Note_on_c, 0, 62, 58
3, 180960, Note_on_c, 0, 66, 75
3, 180960, Note_on_c, 0, 44, 58
3, 180960, Note_on_c, 0, 54, 58
3, 180960, Note_on_c, 0, 59, 58
3, 181440, Note_on_c, 0, 59, 0
3, 181440, Note_on_c, 0, 44, 0
3, 181440, Note_on_c, 0, 62, 0
3, 181440, Note_on_c, 0, 66, 0
3, 181440, Note_on_c, 0, 54, 0
3, 181920, Note_on_c, 0, 59, 69
3, 181920, Note_on_c, 0, 61, 69
3, 181920, Note_on_c, 0, 43, 69
3, 181920, Note_on_c, 0, 53, 69
3, 181920, Note_on_c, 0, 65, 86
3, 182400, Note_on_c, 0, 65, 0
3, 182400, Note_on_c, 0, 43, 0
3, 182400, Note_on_c, 0, 59, 0
3, 182400, Note_on_c, 0, 61, 0
3, 182400, Note_on_c, 0, 53, 0
3, 182400, Note_on_c, 0, 53, 70
3, 182400, Note_on_c, 0, 61, 70
3, 182400, Note_on_c, 0, 43, 70
3, 182400, Note_on_c, 0, 65, 88
3, 182400, Note_on_c, 0, 59, 70
3, 182880, Note_on_c, 0, 59, 0
3, 182880, Note_on_c, 0, 43, 0
3, 182880, Note_on_c, 0, 53, 0
3, 182880, Note_on_c, 0, 61, 0
3, 182880, Note_on_c, 0, 65, 0
3, 182880, Note_on_c, 0, 43, 72
3, 182880, Note_on_c, 0, 61, 72
3, 182880, Note_on_c, 0, 59, 72
3, 182880, Note_on_c, 0, 53, 72
3, 182880, Note_on_c, 0, 65, 90
3, 183360, Note_on_c, 0, 65, 0
3, 183360, Note_on_c, 0, 59, 0
3, 183360, Note_on_c, 0, 43, 0
3, 183360, Note_on_c, 0, 61, 0
3, 183360, Note_on_c, 0, 53, 0
3, 183360, Note_on_c, 0, 65, 93
3, 183360, Note_on_c, 0, 61, 73
3, 183360, Note_on_c, 0, 43, 73
3, 183360, Note_on_c, 0, 53, 73
3, 183360, Note_on_c, 0, 59, 73
3, 183840, Note_on_c, 0, 59, 0
3, 183840, Note_on_c, 0, 43, 0
3, 183840, Note_on_c, 0, 65, 0
3, 183840, Note_on_c, 0, 61, 0
3, 183840, Note_on_c, 0, 53, 0
3, 184800, Note_on_c, 0, 78, 27
3, 184800, Note_on_c, 0, 82, 32
3, 185256, Note_on_c, 0, 82, 0
3, 185256, Note_on_c, 0, 78, 0
3, 185280, Note_on_c, 0, 78, 29
3, 185280, Note_on_c, 0, 82, 35
3, 185736, Note_on_c, 0, 82, 0
3, 185736, Note_on_c, 0, 78, 0
3, 185760, Note_on_c, 0, 78, 27
3, 185760, Note_on_c, 0, 82, 32
3, 186216, Note_on_c, 0, 82, 0
3, 186216, Note_on_c, 0, 78, 0
3, 186240, Note_on_c, 0, 78, 27
3, 186240, Note_on_c, 0, 82, 32
3, 186696, Note_on_c, 0, 82, 0
3, 186696, Note_on_c, 0, 78, 0
3, 187680, Note_on_c, 0, 78, 30
3, 187680, Note_on_c, 0, 82, 36
3, 188136, Note_on_c, 0, 82, 0
3, 188136, Note_on_c, 0, 78, 0
3, 188160, Note_on_c, 0, 78, 30
3, 188160, Note_on_c, 0, 82, 36
3, 188616, Note_on_c, 0, 82, 0
3, 188616, Note_on_c, 0, 78, 0
3, 189120, Note_on_c, 0, 78, 29
3, 189120, Note_on_c, 0, 82, 35
3, 189576, Note_on_c, 0, 82, 0
3, 189576, Note_on_c, 0, 78, 0
3, 190560, Note_on_c, 0, 71, 27
3, 190560, Note_on_c, 0, 75, 32
3, 191016, Note_on_c, 0, 75, 0
3, 191016, Note_on_c, 0, 71, 0
3, 191040, Note_on_c, 0, 71, 29
3, 191040, Note_on_c, 0, 75, 35
3, 191496, Note_on_c, 0, 75, 0
3, 191496, Note_on_c, 0, 71, 0
3, 192000, Note_on_c, 0, 75, 32
3, 192000, Note_on_c, 0, 71, 27
3, 192456, Note_on_c, 0, 71, 0
3, 192456, Note_on_c, 0, 75, 0
3, 192480, Note_on_c, 0, 75, 32
3, 192480, Note_on_c, 0, 71, 27
3, 192936, Note_on_c, 0, 71, 0
3, 192936, Note_on_c, 0, 75, 0
3, 193440, Note_on_c, 0, 73, 27
3, 193440, Note_on_c, 0, 78, 32
3, 193896, Note_on_c, 0, 78, 0
3, 193896, Note_on_c, 0, 73, 0
3, 193920, Note_on_c, 0, 73, 29
3, 193920, Note_on_c, 0, 78, 35
3, 194376, Note_on_c, 0, 78, 0
3, 194376, Note_on_c, 0, 73, 0
3, 194400, Note_on_c, 0, 73, 27
3, 194400, Note_on_c, 0, 78, 32
3, 194856, Note_on_c, 0, 78, 0
3, 194856, Note_on_c, 0, 73, 0
3, 194880, Note_on_c, 0, 73, 27
3, 194880, Note_on_c, 0, 78, 32
3, 195336, Note_on_c, 0, 78, 0
3, 195336, Note_on_c, 0, 73, 0
3, 195360, Note_on_c, 0, 73, 27
3, 195360, Note_on_c, 0, 78, 32
3, 195710, Note_on_c, 0, 73, 0
3, 195816, Note_on_c, 0, 78, 0
3, 196320, Note_on_c, 0, 82, 41
3, 196320, Note_on_c, 0, 78, 34
3, 196776, Note_on_c, 0, 78, 0
3, 196776, Note_on_c, 0, 82, 0
3, 196800, Note_on_c, 0, 78, 34
3, 196800, Note_on_c, 0, 82, 41
3, 197256, Note_on_c, 0, 82, 0
3, 197256, Note_on_c, 0, 78, 0
3, 199200, Note_on_c, 0, 78, 35
3, 199200, Note_on_c, 0, 82, 42
3, 200160, Note_on_c, 0, 82, 0
3, 200160, Note_on_c, 0, 78, 0
3, 200640, Note_on_c, 0, 73, 35
3, 200640, Note_on_c, 0, 78, 42
3, 201600, Note_on_c, 0, 78, 0
3, 201600, Note_on_c, 0, 73, 0
3, 202080, Note_on_c, 0, 71, 34
3, 202080, Note_on_c, 0, 75, 41
3, 202536, Note_on_c, 0, 75, 0
3, 202536, Note_on_c, 0, 71, 0
3, 202560, Note_on_c, 0, 75, 41
3, 202560, Note_on_c, 0, 71, 34
3, 203016, Note_on_c, 0, 71, 0
3, 203016, Note_on_c, 0, 75, 0
3, 204960, Note_on_c, 0, 78, 36
3, 204960, Note_on_c, 0, 73, 31
3, 205416, Note_on_c, 0, 73, 0
3, 205416, Note_on_c, 0, 78, 0
3, 205440, Note_on_c, 0, 78, 39
3, 205440, Note_on_c, 0, 73, 33
3, 205896, Note_on_c, 0, 73, 0
3, 205896, Note_on_c, 0, 78, 0
3, 205920, Note_on_c, 0, 78, 36
3, 205920, Note_on_c, 0, 73, 31
3, 206376, Note_on_c, 0, 73, 0
3, 206376, Note_on_c, 0, 78, 0
3, 206400, Note_on_c, 0, 78, 36
3, 206400, Note_on_c, 0, 73, 31
3, 206856, Note_on_c, 0, 73, 0
3, 206856, Note_on_c, 0, 78, 0
3, 206880, Note_on_c, 0, 78, 36
3, 206880, Note_on_c, 0, 73, 31
3, 207336, Note_on_c, 0, 73, 0
3, 207336, Note_on_c, 0, 78, 0
3, 207840, Note_on_c, 0, 77, 36
3, 207840, Note_on_c, 0, 74, 31
3, 208296, Note_on_c, 0, 74, 0
3, 208296, Note_on_c, 0, 77, 0
3, 208320, Note_on_c, 0, 77, 39
3, 208320, Note_on_c, 0, 74, 33
3, 208776, Note_on_c, 0, 74, 0
3, 208776, Note_on_c, 0, 77, 0
3, 208800, Note_on_c, 0, 77, 36
3, 208800, Note_on_c, 0, 74, 31
3, 209256, Note_on_c, 0, 74, 0
3, 209256, Note_on_c, 0, 77, 0
3, 209280, Note_on_c, 0, 77, 36
3, 209280, Note_on_c, 0, 74, 31
3, 209736, Note_on_c, 0, 74, 0
3, 209736, Note_on_c, 0, 77, 0
3, 210720, Note_on_c, 0, 78, 41
3, 210720, Note_on_c, 0, 75, 34
3, 211176, Note_on_c, 0, 75, 0
3, 211176, Note_on_c, 0, 78, 0
3, 211200, Note_on_c, 0, 78, 41
3, 211200, Note_on_c, 0, 75, 34
3, 211656, Note_on_c, 0, 75, 0
3, 211656, Note_on_c, 0, 78, 0
3, 212160, Note_on_c, 0, 70, 40
3, 212160, Note_on_c, 0, 66, 33
3, 212616, Note_on_c, 0, 66, 0
3, 212616, Note_on_c, 0, 70, 0
3, 212640, Note_on_c, 0, 70, 40
3, 212640, Note_on_c, 0, 66, 33
3, 213096, Note_on_c, 0, 66, 0
3, 213096, Note_on_c, 0, 70, 0
3, 213600, Note_on_c, 0, 77, 43
3, 213600, Note_on_c, 0, 74, 36
3, 214056, Note_on_c, 0, 74, 0
3, 214056, Note_on_c, 0, 77, 0
3, 214080, Note_on_c, 0, 77, 43
3, 214080, Note_on_c, 0, 74, 36
3, 214536, Note_on_c, 0, 74, 0
3, 214536, Note_on_c, 0, 77, 0
3, 214560, Note_on_c, 0, 77, 39
3, 214560, Note_on_c, 0, 74, 27
3, 215016, Note_on_c, 0, 74, 0
3, 215016, Note_on_c, 0, 77, 0
3, 215040, Note_on_c, 0, 62, 35
3, 215040, Note_on_c, 0, 65, 42
3, 215496, Note_on_c, 0, 65, 0
3, 215496, Note_on_c, 0, 62, 0
3, 215520, Note_on_c, 0, 62, 26
3, 215520, Note_on_c, 0, 65, 36
3, 215976, Note_on_c, 0, 65, 0
3, 215976, Note_on_c, 0, 62, 0
3, 216480, Note_on_c, 0, 78, 45
3, 216480, Note_on_c, 0, 75, 45
3, 216936, Note_on_c, 0, 75, 0
3, 216936, Note_on_c, 0, 78, 0
3, 216960, Note_on_c, 0, 78, 46
3, 216960, Note_on_c, 0, 75, 46
3, 217416, Note_on_c, 0, 75, 0
3, 217416, Note_on_c, 0, 78, 0
3, 217440, Note_on_c, 0, 78, 50
3, 217440, Note_on_c, 0, 75, 50
3, 217896, Note_on_c, 0, 75, 0
3, 217896, Note_on_c, 0, 78, 0
3, 217920, Note_on_c, 0, 78, 52
3, 217920, Note_on_c, 0, 75, 52
3, 218376, Note_on_c, 0, 75, 0
3, 218376, Note_on_c, 0, 78, 0
3, 218400, Note_on_c, 0, 78, 55
3, 218400, Note_on_c, 0, 75, 55
3, 218750, Note_on_c, 0, 75, 0
3, 218856, Note_on_c, 0, 78, 0
3, 219360, Note_on_c, 0, 82, 64
3, 219360, Note_on_c, 0, 78, 64
3, 219816, Note_on_c, 0, 78, 0
3, 219816, Note_on_c, 0, 82, 0
3, 219840, Note_on_c, 0, 82, 66
3, 219840, Note_on_c, 0, 78, 66
3, 220296, Note_on_c, 0, 78, 0
3, 220296, Note_on_c, 0, 82, 0
3, 220320, Note_on_c, 0, 82, 66
3, 220320, Note_on_c, 0, 78, 66
3, 220776, Note_on_c, 0, 78, 0
3, 220776, Note_on_c, 0, 82, 0
3, 220800, Note_on_c, 0, 82, 66
3, 220800, Note_on_c, 0, 78, 66
3, 221256, Note_on_c, 0, 78, 0
3, 221256, Note_on_c, 0, 82, 0
3, 222240, Note_on_c, 0, 82, 61
3, 222240, Note_on_c, 0, 78, 61
3, 222696, Note_on_c, 0, 78, 0
3, 222696, Note_on_c, 0, 82, 0
3, 222720, Note_on_c, 0, 78, 61
3, 222720, Note_on_c, 0, 82, 61
3, 223176, Note_on_c, 0, 82, 0
3, 223176, Note_on_c, 0, 78, 0
3, 223680, Note_on_c, 0, 78, 62
3, 223680, Note_on_c, 0, 82, 62
3, 224136, Note_on_c, 0, 82, 0
3, 224136, Note_on_c, 0, 78, 0
3, 224160, Note_on_c, 0, 78, 62
3, 224160, Note_on_c, 0, 82, 62
3, 224616, Note_on_c, 0, 82, 0
3, 224616, Note_on_c, 0, 78, 0
3, 225120, Note_on_c, 0, 77, 50
3, 225120, Note_on_c, 0, 81, 50
3, 225576, Note_on_c, 0, 81, 0
3, 225576, Note_on_c, 0, 77, 0
3, 225600, Note_on_c, 0, 77, 50
3, 225600, Note_on_c, 0, 81, 50
3, 226056, Note_on_c, 0, 81, 0
3, 226056, Note_on_c, 0, 77, 0
3, 226560, Note_on_c, 0, 81, 58
3, 226560, Note_on_c, 0, 77, 58
3, 227016, Note_on_c, 0, 77, 0
3, 227016, Note_on_c, 0, 81, 0
3, 228000, Note_on_c, 0, 78, 55
3, 228000, Note_on_c, 0, 82, 55
3, 228456, Note_on_c, 0, 82, 0
3, 228456, Note_on_c, 0, 78, 0
3, 228480, Note_on_c, 0, 78, 63
3, 228480, Note_on_c, 0, 82, 63
3, 228936, Note_on_c, 0, 82, 0
3, 228936, Note_on_c, 0, 78, 0
3, 230880, Note_on_c, 0, 78, 66
3, 230880, Note_on_c, 0, 82, 66
3, 231360, Note_on_c, 0, 82, 0
3, 231360, Note_on_c, 0, 78, 0
3, 231360, Note_on_c, 0, 78, 66
3, 231360, Note_on_c, 0, 82, 66
3, 231840, Note_on_c, 0, 82, 0
3, 231840, Note_on_c, 0, 78, 0
3, 231840, Note_on_c, 0, 78, 64
3, 231840, Note_on_c, 0, 82, 64
3, 232320, Note_on_c, 0, 82, 0
3, 232320, Note_on_c, 0, 78, 0
3, 232320, Note_on_c, 0, 78, 64
3, 232320, Note_on_c, 0, 82, 64
3, 232800, Note_on_c, 0, 82, 0
3, 232800, Note_on_c, 0, 78, 0
3, 232800, Note_on_c, 0, 78, 64
3, 232800, Note_on_c, 0, 82, 64
3, 233280, Note_on_c, 0, 82, 0
3, 233280, Note_on_c, 0, 78, 0
3, 233760, Note_on_c, 0, 78, 58
3, 233760, Note_on_c, 0, 82, 58
3, 234216, Note_on_c, 0, 82, 0
3, 234216, Note_on_c, 0, 78, 0
3, 234240, Note_on_c, 0, 78, 66
3, 234240, Note_on_c, 0, 82, 66
3, 234696, Note_on_c, 0, 82, 0
3, 234696, Note_on_c, 0, 78, 0
3, 235200, Note_on_c, 0, 82, 60
3, 235200, Note_on_c, 0, 78, 60
3, 235656, Note_on_c, 0, 78, 0
3, 235656, Note_on_c, 0, 82, 0
3, 235680, Note_on_c, 0, 82, 60
3, 235680, Note_on_c, 0, 78, 60
3, 236160, Note_on_c, 0, 78, 0
3, 236160, Note_on_c, 0, 82, 0
3, 236640, Note_on_c, 0, 80, 58
3, 236640, Note_on_c, 0, 83, 58
3, 237096, Note_on_c, 0, 83, 0
3, 237096, Note_on_c, 0, 80, 0
3, 237120, Note_on_c, 0, 80, 61
3, 237120, Note_on_c, 0, 83, 61
3, 237576, Note_on_c, 0, 83, 0
3, 237576, Note_on_c, 0, 80, 0
3, 237600, Note_on_c, 0, 80, 49
3, 237600, Note_on_c, 0, 83, 62
3, 238080, Note_on_c, 0, 83, 0
3, 238080, Note_on_c, 0, 80, 0
3, 238080, Note_on_c, 0, 80, 67
3, 238080, Note_on_c, 0, 83, 67
3, 238560, Note_on_c, 0, 83, 0
3, 238560, Note_on_c, 0, 80, 0
3, 238560, Note_on_c, 0, 83, 62
3, 238560, Note_on_c, 0, 80, 49
3, 239040, Note_on_c, 0, 80, 0
3, 239040, Note_on_c, 0, 83, 0
3, 239520, Note_on_c, 0, 86, 36
3, 239520, Note_on_c, 0, 83, 30
3, 239976, Note_on_c, 0, 83, 0
3, 239976, Note_on_c, 0, 86, 0
3, 240000, Note_on_c, 0, 86, 38
3, 240000, Note_on_c, 0, 83, 32
3, 240456, Note_on_c, 0, 83, 0
3, 240456, Note_on_c, 0, 86, 0
3, 240480, Note_on_c, 0, 86, 36
3, 240480, Note_on_c, 0, 83, 29
3, 240936, Note_on_c, 0, 83, 0
3, 240936, Note_on_c, 0, 86, 0
3, 240960, Note_on_c, 0, 86, 36
3, 240960, Note_on_c, 0, 83, 29
3, 241416, Note_on_c, 0, 83, 0
3, 241416, Note_on_c, 0, 86, 0
3, 241440, Note_on_c, 0, 86, 35
3, 241440, Note_on_c, 0, 83, 29
3, 241896, Note_on_c, 0, 83, 0
3, 241896, Note_on_c, 0, 86, 0
3, 242400, Note_on_c, 0, 86, 35
3, 242400, Note_on_c, 0, 83, 29
3, 242856, Note_on_c, 0, 83, 0
3, 242856, Note_on_c, 0, 86, 0
3, 242880, Note_on_c, 0, 86, 36
3, 242880, Note_on_c, 0, 83, 29
3, 243336, Note_on_c, 0, 83, 0
3, 243336, Note_on_c, 0, 86, 0
3, 243360, Note_on_c, 0, 86, 34
3, 243360, Note_on_c, 0, 83, 28
3, 243816, Note_on_c, 0, 83, 0
3, 243816, Note_on_c, 0, 86, 0
3, 243840, Note_on_c, 0, 86, 32
3, 243840, Note_on_c, 0, 83, 27
3, 244296, Note_on_c, 0, 83, 0
3, 244296, Note_on_c, 0, 86, 0
3, 244320, Note_on_c, 0, 86, 32
3, 244320, Note_on_c, 0, 83, 27
3, 244776, Note_on_c, 0, 83, 0
3, 244776, Note_on_c, 0, 86, 0
3, 245280, Note_on_c, 0, 88, 31
3, 245280, Note_on_c, 0, 83, 27
3, 245736, Note_on_c, 0, 83, 0
3, 245736, Note_on_c, 0, 88, 0
3, 245760, Note_on_c, 0, 83, 27
3, 245760, Note_on_c, 0, 88, 33
3, 246216, Note_on_c, 0, 88, 0
3, 246216, Note_on_c, 0, 83, 0
3, 246240, Note_on_c, 0, 83, 25
3, 246240, Note_on_c, 0, 88, 30
3, 246696, Note_on_c, 0, 88, 0
3, 246696, Note_on_c, 0, 83, 0
3, 246720, Note_on_c, 0, 83, 25
3, 246720, Note_on_c, 0, 88, 29
3, 247176, Note_on_c, 0, 88, 0
3, 247176, Note_on_c, 0, 83, 0
3, 247200, Note_on_c, 0, 83, 25
3, 247200, Note_on_c, 0, 88, 29
3, 247656, Note_on_c, 0, 88, 0
3, 247656, Note_on_c, 0, 83, 0
3, 248160, Note_on_c, 0, 86, 24
3, 248160, Note_on_c, 0, 90, 29
3, 248616, Note_on_c, 0, 90, 0
3, 248616, Note_on_c, 0, 86, 0
3, 248640, Note_on_c, 0, 86, 26
3, 248640, Note_on_c, 0, 90, 29
3, 249096, Note_on_c, 0, 90, 0
3, 249096, Note_on_c, 0, 86, 0
3, 249120, Note_on_c, 0, 86, 24
3, 249120, Note_on_c, 0, 90, 27
3, 249576, Note_on_c, 0, 90, 0
3, 249576, Note_on_c, 0, 86, 0
3, 249600, Note_on_c, 0, 86, 22
3, 249600, Note_on_c, 0, 90, 27
3, 250056, Note_on_c, 0, 90, 0
3, 250056, Note_on_c, 0, 86, 0
3, 250080, Note_on_c, 0, 86, 22
3, 250080, Note_on_c, 0, 90, 27
3, 250536, Note_on_c, 0, 90, 0
3, 250536, Note_on_c, 0, 86, 0
3, 251040, Note_on_c, 0, 85, 20
3, 251040, Note_on_c, 0, 90, 25
3, 251496, Note_on_c, 0, 90, 0
3, 251496, Note_on_c, 0, 85, 0
3, 251520, Note_on_c, 0, 85, 21
3, 251520, Note_on_c, 0, 90, 27
3, 251976, Note_on_c, 0, 90, 0
3, 251976, Note_on_c, 0, 85, 0
3, 252000, Note_on_c, 0, 85, 20
3, 252000, Note_on_c, 0, 90, 25
3, 252456, Note_on_c, 0, 90, 0
3, 252456, Note_on_c, 0, 85, 0
3, 252480, Note_on_c, 0, 85, 20
3, 252480, Note_on_c, 0, 90, 25
3, 252936, Note_on_c, 0, 90, 0
3, 252936, Note_on_c, 0, 85, 0
3, 252960, Note_on_c, 0, 85, 20
3, 252960, Note_on_c, 0, 90, 25
3, 253416, Note_on_c, 0, 90, 0
3, 253416, Note_on_c, 0, 85, 0
3, 253440, Note_on_c, 0, 85, 20
3, 253440, Note_on_c, 0, 90, 25
3, 253896, Note_on_c, 0, 90, 0
3, 253896, Note_on_c, 0, 85, 0
3, 253920, Note_on_c, 0, 85, 20
3, 253920, Note_on_c, 0, 90, 25
3, 254376, Note_on_c, 0, 90, 0
3, 254376, Note_on_c, 0, 85, 0
3, 254400, Note_on_c, 0, 90, 25
3, 254400, Note_on_c, 0, 85, 20
3, 254856, Note_on_c, 0, 85, 0
3, 254856, Note_on_c, 0, 90, 0
3, 258900, Note_on_c, 0, 35, 27
3, 258960, Note_on_c, 0, 47, 29
3, 259020, Note_on_c, 0, 57, 30
3, 262080, Note_on_c, 0, 57, 0
3, 262080, Note_on_c, 0, 47, 0
3, 262080, Note_on_c, 0, 35, 0
3, 262080, Note_on_c, 0, 30, 30
3, 262560, Note_on_c, 0, 42, 25
3, 263040, Note_on_c, 0, 49, 25
3, 263520, Note_on_c, 0, 54, 25
3, 264000, Note_on_c, 0, 58, 25
3, 264480, Note_on_c, 0, 61, 24
3, 267840, Note_on_c, 0, 61, 0
3, 267840, Note_on_c, 0, 42, 0
3, 267840, Note_on_c, 0, 49, 0
3, 267840, Note_on_c, 0, 30, 0
3, 267840, Note_on_c, 0, 58, 0
3, 267840, Note_on_c, 0, 54, 0
3, 267840, End_track
4, 0, Start_track
4, 0, Title_t, "Pedale"
4, 0, Program_c, 0, 0
4, 320, Control_c, 0, 64, 127
4, 2880, Control_c, 0, 64, 0
4, 3600, Control_c, 0, 64, 127
4, 5760, Control_c, 0, 64, 0
4, 5986, Control_c, 0, 64, 127
4, 8640, Control_c, 0, 64, 0
4, 8810, Control_c, 0, 64, 127
4, 10123, Control_c, 0, 64, 0
4, 10391, Control_c, 0, 64, 127
4, 11520, Control_c, 0, 64, 0
4, 11920, Control_c, 0, 64, 127
4, 12972, Control_c, 0, 64, 0
4, 13307, Control_c, 0, 64, 127
4, 14405, Control_c, 0, 64, 0
4, 14800, Control_c, 0, 64, 127
4, 17280, Control_c, 0, 64, 0
4, 17707, Control_c, 0, 64, 127
4, 18726, Control_c, 0, 64, 0
4, 18987, Control_c, 0, 64, 127
4, 20164, Control_c, 0, 64, 0
4, 20400, Control_c, 0, 64, 127
4, 21612, Control_c, 0, 64, 0
4, 21798, Control_c, 0, 64, 127
4, 23040, Control_c, 0, 64, 0
4, 23307, Control_c, 0, 64, 127
4, 24490, Control_c, 0, 64, 0
4, 26107, Control_c, 0, 64, 127
4, 28800, Control_c, 0, 64, 0
4, 29068, Control_c, 0, 64, 127
4, 31680, Control_c, 0, 64, 0
4, 32027, Control_c, 0, 64, 127
4, 34560, Control_c, 0, 64, 0
4, 34828, Control_c, 0, 64, 127
4, 37440, Control_c, 0, 64, 0
4, 37867, Control_c, 0, 64, 127
4, 40320, Control_c, 0, 64, 0
4, 40480, Control_c, 0, 64, 127
4, 42412, Control_c, 0, 64, 0
4, 43292, Control_c, 0, 64, 127
4, 44652, Control_c, 0, 64, 0
4, 45006, Control_c, 0, 64, 127
4, 46107, Control_c, 0, 64, 0
4, 46366, Control_c, 0, 64, 127
4, 47533, Control_c, 0, 64, 0
4, 49120, Control_c, 0, 64, 127
4, 50412, Control_c, 0, 64, 0
4, 50720, Control_c, 0, 64, 127
4, 51840, Control_c, 0, 64, 0
4, 52115, Control_c, 0, 64, 127
4, 53765, Control_c, 0, 64, 0
4, 54720, Control_c, 0, 64, 127
4, 56183, Control_c, 0, 64, 0
4, 57760, Control_c, 0, 64, 127
4, 59052, Control_c, 0, 64, 0
4, 60800, Control_c, 0, 64, 127
4, 63360, Control_c, 0, 64, 0
4, 63600, Control_c, 0, 64, 127
4, 66240, Control_c, 0, 64, 0
4, 66452, Control_c, 0, 64, 127
4, 67723, Control_c, 0, 64, 0
4, 67906, Control_c, 0, 64, 127
4, 69120, Control_c, 0, 64, 0
4, 69520, Control_c, 0, 64, 127
4, 70572, Control_c, 0, 64, 0
4, 70907, Control_c, 0, 64, 127
4, 72005, Control_c, 0, 64, 0
4, 72400, Control_c, 0, 64, 127
4, 74880, Control_c, 0, 64, 0
4, 75307, Control_c, 0, 64, 127
4, 76326, Control_c, 0, 64, 0
4, 76720, Control_c, 0, 64, 127
4, 77760, Control_c, 0, 64, 0
4, 77972, Control_c, 0, 64, 127
4, 79212, Control_c, 0, 64, 0
4, 79525, Control_c, 0, 64, 127
4, 80640, Control_c, 0, 64, 0
4, 80907, Control_c, 0, 64, 127
4, 82090, Control_c, 0, 64, 0
4, 82560, Control_c, 0, 64, 127
4, 83520, Control_c, 0, 64, 0
4, 83947, Control_c, 0, 64, 127
4, 86400, Control_c, 0, 64, 0
4, 86668, Control_c, 0, 64, 127
4, 89280, Control_c, 0, 64, 0
4, 89627, Control_c, 0, 64, 127
4, 92160, Control_c, 0, 64, 0
4, 92428, Control_c, 0, 64, 127
4, 95040, Control_c, 0, 64, 0
4, 95467, Control_c, 0, 64, 127
4, 97920, Control_c, 0, 64, 0
4, 98080, Control_c, 0, 64, 127
4, 100012, Control_c, 0, 64, 0
4, 100892, Control_c, 0, 64, 127
4, 102252, Control_c, 0, 64, 0
4, 102606, Control_c, 0, 64, 127
4, 103707, Control_c, 0, 64, 0
4, 103966, Control_c, 0, 64, 127
4, 105133, Control_c, 0, 64, 0
4, 106720, Control_c, 0, 64, 127
4, 108012, Control_c, 0, 64, 0
4, 109600, Control_c, 0, 64, 127
4, 111365, Control_c, 0, 64, 0
4, 112457, Control_c, 0, 64, 127
4, 113783, Control_c, 0, 64, 0
4, 115360, Control_c, 0, 64, 127
4, 116652, Control_c, 0, 64, 0
4, 118126, Control_c, 0, 64, 127
4, 120720, Control_c, 0, 64, 0
4, 120819, Control_c, 0, 64, 127
4, 123368, Control_c, 0, 64, 0
4, 123867, Control_c, 0, 64, 127
4, 125284, Control_c, 0, 64, 0
4, 125734, Control_c, 0, 64, 127
4, 126694, Control_c, 0, 64, 0
4, 127109, Control_c, 0, 64, 127
4, 128173, Control_c, 0, 64, 0
4, 129814, Control_c, 0, 64, 127
4, 132212, Control_c, 0, 64, 0
4, 132480, Control_c, 0, 64, 127
4, 134888, Control_c, 0, 64, 0
4, 135387, Control_c, 0, 64, 127
4, 136804, Control_c, 0, 64, 0
4, 137254, Control_c, 0, 64, 127
4, 138214, Control_c, 0, 64, 0
4, 138629, Control_c, 0, 64, 127
4, 139693, Control_c, 0, 64, 0
4, 141334, Control_c, 0, 64, 127
4, 144013, Control_c, 0, 64, 0
4, 145654, Control_c, 0, 64, 127
4, 146893, Control_c, 0, 64, 0
4, 148534, Control_c, 0, 64, 127
4, 149773, Control_c, 0, 64, 0
4, 151414, Control_c, 0, 64, 127
4, 152653, Control_c, 0, 64, 0
4, 154294, Control_c, 0, 64, 127
4, 155548, Control_c, 0, 64, 0
4, 155795, Control_c, 0, 64, 127
4, 156023, Control_c, 0, 64, 0
4, 156617, Control_c, 0, 64, 127
4, 157020, Control_c, 0, 64, 0
4, 157509, Control_c, 0, 64, 127
4, 157960, Control_c, 0, 64, 0
4, 158492, Control_c, 0, 64, 127
4, 158920, Control_c, 0, 64, 0
4, 159520, Control_c, 0, 64, 127
4, 159900, Control_c, 0, 64, 0
4, 160686, Control_c, 0, 64, 127
4, 161280, Control_c, 0, 64, 0
4, 161734, Control_c, 0, 64, 127
4, 166603, Control_c, 0, 64, 0
4, 167226, Control_c, 0, 64, 127
4, 172363, Control_c, 0, 64, 0
4, 172987, Control_c, 0, 64, 127
4, 177967, Control_c, 0, 64, 0
4, 178747, Control_c, 0, 64, 127
4, 181440, Control_c, 0, 64, 0
4, 181887, Control_c, 0, 64, 127
4, 184080, Control_c, 0, 64, 0
4, 184320, Control_c, 0, 64, 127
4, 184560, Note_on_c, 0, 42, 27
4, 184800, Note_on_c, 0, 42, 0
4, 184800, Note_on_c, 0, 49, 29
4, 185040, Note_on_c, 0, 49, 0
4, 185040, Note_on_c, 0, 54, 31
4, 185280, Note_on_c, 0, 54, 0
4, 185280, Note_on_c, 0, 58, 32
4, 185520, Note_on_c, 0, 58, 0
4, 185520, Note_on_c, 0, 61, 34
4, 185760, Note_on_c, 0, 61, 0
4, 185760, Note_on_c, 0, 66, 35
4, 186000, Note_on_c, 0, 66, 0
4, 186000, Note_on_c, 0, 61, 31
4, 186240, Note_on_c, 0, 61, 0
4, 186240, Note_on_c, 0, 66, 36
4, 186480, Note_on_c, 0, 66, 0
4, 186480, Note_on_c, 0, 70, 31
4, 186692, Control_c, 0, 64, 0
4, 186720, Note_on_c, 0, 70, 0
4, 187271, Control_c, 0, 64, 127
4, 187440, Note_on_c, 0, 42, 27
4, 187680, Note_on_c, 0, 42, 0
4, 187680, Note_on_c, 0, 49, 29
4, 187920, Note_on_c, 0, 49, 0
4, 187920, Note_on_c, 0, 54, 31
4, 188160, Note_on_c, 0, 54, 0
4, 188160, Note_on_c, 0, 58, 32
4, 188400, Note_on_c, 0, 58, 0
4, 188400, Note_on_c, 0, 61, 34
4, 188640, Note_on_c, 0, 61, 0
4, 188640, Note_on_c, 0, 66, 35
4, 188880, Note_on_c, 0, 66, 0
4, 188880, Note_on_c, 0, 61, 31
4, 189120, Note_on_c, 0, 61, 0
4, 189120, Note_on_c, 0, 66, 36
4, 189360, Note_on_c, 0, 66, 0
4, 189360, Note_on_c, 0, 70, 31
4, 189600, Note_on_c, 0, 70, 0
4, 189965, Control_c, 0, 64, 0
4, 190080, Control_c, 0, 64, 127
4, 190320, Note_on_c, 0, 42, 27
4, 190560, Note_on_c, 0, 42, 0
4, 190560, Note_on_c, 0, 51, 29
4, 190800, Note_on_c, 0, 51, 0
4, 190800, Note_on_c, 0, 54, 31
4, 191040, Note_on_c, 0, 54, 0
4, 191040, Note_on_c, 0, 59, 32
4, 191280, Note_on_c, 0, 59, 0
4, 191280, Note_on_c, 0, 63, 34
4, 191520, Note_on_c, 0, 63, 0
4, 191661, Control_c, 0, 64, 0
4, 191859, Control_c, 0, 64, 127
4, 192987, Control_c, 0, 64, 0
4, 193200, Control_c, 0, 64, 127
4, 193200, Note_on_c, 0, 42, 27
4, 193440, Note_on_c, 0, 42, 0
4, 193440, Note_on_c, 0, 49, 29
4, 193680, Note_on_c, 0, 49, 0
4, 193680, Note_on_c, 0, 54, 31
4, 193920, Note_on_c, 0, 54, 0
4, 193920, Note_on_c, 0, 58, 32
4, 194160, Note_on_c, 0, 58, 0
4, 194160, Note_on_c, 0, 61, 34
4, 194400, Note_on_c, 0, 61, 0
4, 194400, Note_on_c, 0, 66, 35
4, 194640, Note_on_c, 0, 66, 0
4, 194640, Note_on_c, 0, 61, 31
4, 194880, Note_on_c, 0, 61, 0
4, 194880, Note_on_c, 0, 66, 36
4, 195120, Note_on_c, 0, 66, 0
4, 195120, Note_on_c, 0, 70, 31
4, 195360, Note_on_c, 0, 70, 0
4, 195713, Control_c, 0, 64, 0
4, 195861, Control_c, 0, 64, 127
4, 196080, Note_on_c, 0, 42, 31
4, 196320, Note_on_c, 0, 42, 0
4, 196320, Note_on_c, 0, 49, 33
4, 196560, Note_on_c, 0, 49, 0
4, 196560, Note_on_c, 0, 54, 35
4, 196800, Note_on_c, 0, 54, 0
4, 196800, Note_on_c, 0, 58, 36
4, 197040, Note_on_c, 0, 58, 0
4, 197040, Note_on_c, 0, 61, 39
4, 197280, Note_on_c, 0, 61, 0
4, 197280, Note_on_c, 0, 65, 40
4, 197280, Note_on_c, 0, 66, 33
4, 197280, Note_on_c, 0, 70, 33
4, 197286, Control_c, 0, 64, 0
4, 197421, Control_c, 0, 64, 127
4, 197760, Note_on_c, 0, 70, 0
4, 197760, Note_on_c, 0, 66, 0
4, 197760, Note_on_c, 0, 65, 0
4, 197760, Note_on_c, 0, 63, 37
4, 197760, Note_on_c, 0, 66, 32
4, 197760, Note_on_c, 0, 70, 32
4, 198240, Note_on_c, 0, 70, 0
4, 198240, Note_on_c, 0, 66, 0
4, 198240, Note_on_c, 0, 63, 0
4, 198240, Note_on_c, 0, 61, 36
4, 198240, Note_on_c, 0, 66, 30
4, 198240, Note_on_c, 0, 70, 30
4, 198586, Control_c, 0, 64, 0
4, 198720, Note_on_c, 0, 70, 0
4, 198720, Note_on_c, 0, 66, 0
4, 198720, Note_on_c, 0, 61, 0
4, 198756, Control_c, 0, 64, 127
4, 198960, Note_on_c, 0, 42, 31
4, 199200, Note_on_c, 0, 42, 0
4, 199200, Note_on_c, 0, 49, 33
4, 199440, Note_on_c, 0, 49, 0
4, 199440, Note_on_c, 0, 54, 35
4, 199680, Note_on_c, 0, 54, 0
4, 199680, Note_on_c, 0, 58, 36
4, 199920, Note_on_c, 0, 58, 0
4, 199920, Note_on_c, 0, 61, 39
4, 200160, Note_on_c, 0, 61, 0
4, 201516, Control_c, 0, 64, 0
4, 201600, Control_c, 0, 64, 127
4, 201840, Note_on_c, 0, 42, 27
4, 202080, Note_on_c, 0, 42, 0
4, 202080, Note_on_c, 0, 51, 29
4, 202320, Note_on_c, 0, 51, 0
4, 202320, Note_on_c, 0, 54, 31
4, 202560, Note_on_c, 0, 54, 0
4, 202560, Note_on_c, 0, 59, 32
4, 202800, Note_on_c, 0, 59, 0
4, 202800, Note_on_c, 0, 63, 34
4, 203040, Note_on_c, 0, 63, 0
4, 203040, Note_on_c, 0, 58, 40
4, 203040, Note_on_c, 0, 59, 33
4, 203040, Note_on_c, 0, 63, 33
4, 203049, Control_c, 0, 64, 0
4, 203160, Control_c, 0, 64, 127
4, 203520, Note_on_c, 0, 63, 0
4, 203520, Note_on_c, 0, 59, 0
4, 203520, Note_on_c, 0, 58, 0
4, 203520, Note_on_c, 0, 56, 37
4, 203520, Note_on_c, 0, 59, 32
4, 203520, Note_on_c, 0, 63, 32
4, 204000, Note_on_c, 0, 63, 0
4, 204000, Note_on_c, 0, 59, 0
4, 204000, Note_on_c, 0, 56, 0
4, 204000, Note_on_c, 0, 54, 36
4, 204000, Note_on_c, 0, 59, 30
4, 204000, Note_on_c, 0, 63, 30
4, 204332, Control_c, 0, 64, 0
4, 204480, Note_on_c, 0, 63, 0
4, 204480, Note_on_c, 0, 59, 0
4, 204480, Note_on_c, 0, 54, 0
4, 204480, Control_c, 0, 64, 127
4, 204720, Note_on_c, 0, 42, 27
4, 204960, Note_on_c, 0, 42, 0
4, 204960, Note_on_c, 0, 49, 29
4, 205200, Note_on_c, 0, 49, 0
4, 205200, Note_on_c, 0, 54, 31
4, 205440, Note_on_c, 0, 54, 0
4, 205440, Note_on_c, 0, 58, 32
4, 205680, Note_on_c, 0, 58, 0
4, 205680, Note_on_c, 0, 61, 34
4, 205920, Note_on_c, 0, 61, 0
4, 205920, Note_on_c, 0, 66, 35
4, 206160, Note_on_c, 0, 66, 0
4, 206160, Note_on_c, 0, 61, 31
4, 206400, Note_on_c, 0, 61, 0
4, 206400, Note_on_c, 0, 66, 36
4, 206640, Note_on_c, 0, 66, 0
4, 206640, Note_on_c, 0, 70, 31
4, 206880, Note_on_c, 0, 70, 0
4, 207254, Control_c, 0, 64, 0
4, 207367, Control_c, 0, 64, 127
4, 207600, Note_on_c, 0, 42, 33
4, 207840, Note_on_c, 0, 42, 0
4, 207840, Note_on_c, 0, 50, 34
4, 208080, Note_on_c, 0, 50, 0
4, 208080, Note_on_c, 0, 53, 35
4, 208320, Note_on_c, 0, 53, 0
4, 208320, Note_on_c, 0, 58, 36
4, 208560, Note_on_c, 0, 58, 0
4, 208560, Note_on_c, 0, 62, 37
4, 208800, Note_on_c, 0, 62, 0
4, 210113, Control_c, 0, 64, 0
4, 210290, Control_c, 0, 64, 127
4, 210480, Note_on_c, 0, 42, 36
4, 210720, Note_on_c, 0, 42, 0
4, 210720, Note_on_c, 0, 51, 38
4, 210960, Note_on_c, 0, 51, 0
4, 210960, Note_on_c, 0, 54, 41
4, 211200, Note_on_c, 0, 54, 0
4, 211200, Note_on_c, 0, 58, 43
4, 211440, Note_on_c, 0, 58, 0
4, 211440, Note_on_c, 0, 63, 45
4, 211680, Note_on_c, 0, 63, 0
4, 212993, Control_c, 0, 64, 0
4, 213141, Control_c, 0, 64, 127
4, 213360, Note_on_c, 0, 42, 37
4, 213600, Note_on_c, 0, 42, 0
4, 213600, Note_on_c, 0, 50, 39
4, 213840, Note_on_c, 0, 50, 0
4, 213840, Note_on_c, 0, 53, 41
4, 214080, Note_on_c, 0, 53, 0
4, 214080, Note_on_c, 0, 58, 43
4, 214320, Note_on_c, 0, 58, 0
4, 214320, Note_on_c, 0, 62, 44
4, 214560, Note_on_c, 0, 62, 0
4, 215040, Control_c, 0, 64, 0
4, 215040, Note_on_c, 0, 59, 50
4, 215146, Control_c, 0, 64, 127
4, 215520, Note_on_c, 0, 59, 0
4, 215520, Note_on_c, 0, 61, 54
4, 215901, Control_c, 0, 64, 0
4, 216000, Note_on_c, 0, 61, 0
4, 216106, Control_c, 0, 64, 127
4, 216240, Note_on_c, 0, 42, 36
4, 216480, Note_on_c, 0, 42, 0
4, 216480, Note_on_c, 0, 51, 37
4, 216720, Note_on_c, 0, 51, 0
4, 216720, Note_on_c, 0, 54, 38
4, 216960, Note_on_c, 0, 54, 0
4, 216960, Note_on_c, 0, 58, 39
4, 217200, Note_on_c, 0, 58, 0
4, 217200, Note_on_c, 0, 63, 41
4, 217440, Note_on_c, 0, 63, 0
4, 217440, Note_on_c, 0, 66, 42
4, 217680, Note_on_c, 0, 66, 0
4, 217680, Note_on_c, 0, 54, 44
4, 217920, Note_on_c, 0, 54, 0
4, 217920, Note_on_c, 0, 58, 45
4, 218160, Note_on_c, 0, 58, 0
4, 218160, Note_on_c, 0, 63, 45
4, 218400, Note_on_c, 0, 63, 0
4, 218400, Note_on_c, 0, 66, 47
4, 218633, Control_c, 0, 64, 0
4, 218640, Note_on_c, 0, 66, 0
4, 218640, Note_on_c, 0, 70, 48
4, 218746, Control_c, 0, 64, 127
4, 218880, Note_on_c, 0, 70, 0
4, 219120, Note_on_c, 0, 48, 58
4, 219600, Note_on_c, 0, 48, 0
4, 219600, Note_on_c, 0, 54, 48
4, 219840, Note_on_c, 0, 54, 0
4, 219840, Note_on_c, 0, 58, 50
4, 220080, Note_on_c, 0, 58, 0
4, 220080, Note_on_c, 0, 63, 52
4, 220800, Note_on_c, 0, 66, 54
4, 220800, Note_on_c, 0, 70, 54
4, 221280, Note_on_c, 0, 70, 0
4, 221280, Note_on_c, 0, 66, 0
4, 221280, Note_on_c, 0, 63, 0
4, 221280, Note_on_c, 0, 62, 53
4, 221280, Note_on_c, 0, 66, 53
4, 221280, Note_on_c, 0, 70, 53
4, 221286, Control_c, 0, 64, 0
4, 221365, Control_c, 0, 64, 127
4, 221646, Control_c, 0, 64, 0
4, 221760, Note_on_c, 0, 70, 0
4, 221760, Note_on_c, 0, 66, 0
4, 221760, Note_on_c, 0, 62, 0
4, 221760, Control_c, 0, 64, 127
4, 222000, Note_on_c, 0, 49, 47
4, 222240, Note_on_c, 0, 49, 0
4, 222240, Note_on_c, 0, 58, 50
4, 222480, Note_on_c, 0, 58, 0
4, 222480, Note_on_c, 0, 61, 52
4, 222720, Note_on_c, 0, 61, 0
4, 222720, Note_on_c, 0, 66, 55
4, 222960, Note_on_c, 0, 66, 0
4, 222960, Note_on_c, 0, 70, 57
4, 223200, Note_on_c, 0, 70, 0
4, 224464, Control_c, 0, 64, 0
4, 224640, Control_c, 0, 64, 127
4, 224880, Note_on_c, 0, 49, 45
4, 225120, Note_on_c, 0, 49, 0
4, 225120, Note_on_c, 0, 57, 47
4, 225360, Note_on_c, 0, 57, 0
4, 225360, Note_on_c, 0, 61, 49
4, 225600, Note_on_c, 0, 61, 0
4, 225600, Note_on_c, 0, 65, 52
4, 225840, Note_on_c, 0, 65, 0
4, 225840, Note_on_c, 0, 69, 54
4, 226080, Note_on_c, 0, 69, 0
4, 226560, Note_on_c, 0, 63, 47
4, 226560, Note_on_c, 0, 65, 47
4, 226560, Note_on_c, 0, 69, 56
4, 227040, Note_on_c, 0, 69, 0
4, 227040, Note_on_c, 0, 65, 0
4, 227040, Note_on_c, 0, 63, 0
4, 227040, Note_on_c, 0, 65, 60
4, 227379, Control_c, 0, 64, 0
4, 227520, Note_on_c, 0, 65, 0
4, 227623, Control_c, 0, 64, 127
4, 227760, Note_on_c, 0, 42, 53
4, 228000, Note_on_c, 0, 42, 0
4, 228000, Note_on_c, 0, 49, 56
4, 228240, Note_on_c, 0, 49, 0
4, 228240, Note_on_c, 0, 54, 60
4, 228480, Note_on_c, 0, 54, 0
4, 228480, Note_on_c, 0, 58, 64
4, 228720, Note_on_c, 0, 58, 0
4, 228720, Note_on_c, 0, 61, 67
4, 228960, Note_on_c, 0, 61, 0
4, 228960, Note_on_c, 0, 70, 68
4, 228969, Control_c, 0, 64, 0
4, 229069, Control_c, 0, 64, 127
4, 229440, Note_on_c, 0, 70, 0
4, 229440, Note_on_c, 0, 66, 66
4, 229440, Note_on_c, 0, 70, 66
4, 229920, Note_on_c, 0, 70, 0
4, 229920, Note_on_c, 0, 66, 0
4, 229920, Note_on_c, 0, 65, 74
4, 229920, Note_on_c, 0, 66, 62
4, 229920, Note_on_c, 0, 70, 62
4, 230223, Control_c, 0, 64, 0
4, 230400, Note_on_c, 0, 70, 0
4, 230400, Note_on_c, 0, 66, 0
4, 230400, Note_on_c, 0, 65, 0
4, 230400, Control_c, 0, 64, 127
4, 230640, Note_on_c, 0, 48, 54
4, 231120, Note_on_c, 0, 48, 0
4, 231120, Note_on_c, 0, 54, 56
4, 231360, Note_on_c, 0, 54, 0
4, 231360, Note_on_c, 0, 58, 60
4, 231600, Note_on_c, 0, 58, 0
4, 231600, Note_on_c, 0, 64, 64
4, 232320, Note_on_c, 0, 63, 62
4, 232320, Note_on_c, 0, 66, 62
4, 232320, Note_on_c, 0, 70, 62
4, 232800, Note_on_c, 0, 70, 0
4, 232800, Note_on_c, 0, 64, 0
4, 232800, Note_on_c, 0, 63, 0
4, 232800, Note_on_c, 0, 66, 0
4, 232800, Note_on_c, 0, 62, 59
4, 232800, Note_on_c, 0, 66, 59
4, 232800, Note_on_c, 0, 70, 59
4, 233160, Control_c, 0, 64, 0
4, 233280, Note_on_c, 0, 70, 0
4, 233280, Note_on_c, 0, 66, 0
4, 233280, Note_on_c, 0, 62, 0
4, 233280, Control_c, 0, 64, 127
4, 233520, Note_on_c, 0, 49, 58
4, 233760, Note_on_c, 0, 49, 0
4, 233760, Note_on_c, 0, 58, 61
4, 234000, Note_on_c, 0, 58, 0
4, 234000, Note_on_c, 0, 61, 63
4, 234240, Note_on_c, 0, 61, 0
4, 234240, Note_on_c, 0, 66, 66
4, 234480, Note_on_c, 0, 66, 0
4, 234480, Note_on_c, 0, 70, 69
4, 234720, Note_on_c, 0, 70, 0
4, 235200, Note_on_c, 0, 61, 66
4, 235200, Note_on_c, 0, 66, 66
4, 235200, Note_on_c, 0, 70, 66
4, 235680, Note_on_c, 0, 70, 0
4, 235680, Note_on_c, 0, 66, 0
4, 235680, Note_on_c, 0, 61, 0
4, 235680, Note_on_c, 0, 62, 66
4, 235680, Note_on_c, 0, 66, 66
4, 235680, Note_on_c, 0, 70, 66
4, 236040, Control_c, 0, 64, 0
4, 236160, Note_on_c, 0, 70, 0
4, 236160, Note_on_c, 0, 66, 0
4, 236160, Note_on_c, 0, 62, 0
4, 236160, Control_c, 0, 64, 127
4, 236400, Note_on_c, 0, 49, 63
4, 236640, Note_on_c, 0, 49, 0
4, 236640, Note_on_c, 0, 56, 65
4, 236880, Note_on_c, 0, 56, 0
4, 236880, Note_on_c, 0, 59, 66
4, 237120, Note_on_c, 0, 59, 0
4, 237120, Note_on_c, 0, 63, 68
4, 237360, Note_on_c, 0, 63, 0
4, 237360, Note_on_c, 0, 68, 70
4, 237600, Note_on_c, 0, 68, 0
4, 237600, Note_on_c, 0, 68, 43
4, 237600, Note_on_c, 0, 66, 43
4, 237600, Note_on_c, 0, 71, 69
4, 237609, Control_c, 0, 64, 0
4, 237734, Control_c, 0, 64, 127
4, 238080, Note_on_c, 0, 71, 0
4, 238080, Note_on_c, 0, 66, 0
4, 238080, Note_on_c, 0, 68, 0
4, 238080, Note_on_c, 0, 68, 41
4, 238080, Note_on_c, 0, 65, 41
4, 238080, Note_on_c, 0, 71, 65
4, 238560, Note_on_c, 0, 71, 0
4, 238560, Note_on_c, 0, 65, 0
4, 238560, Note_on_c, 0, 68, 0
4, 238560, Note_on_c, 0, 63, 40
4, 238560, Note_on_c, 0, 68, 40
4, 238560, Note_on_c, 0, 71, 64
4, 238871, Control_c, 0, 64, 0
4, 239040, Note_on_c, 0, 71, 0
4, 239040, Note_on_c, 0, 68, 0
4, 239040, Note_on_c, 0, 63, 0
4, 239280, Control_c, 0, 64, 127
4, 239280, Note_on_c, 0, 47, 30
4, 239520, Note_on_c, 0, 47, 0
4, 239520, Note_on_c, 0, 54, 32
4, 239760, Note_on_c, 0, 54, 0
4, 239760, Note_on_c, 0, 59, 34
4, 240000, Note_on_c, 0, 59, 0
4, 240000, Note_on_c, 0, 62, 35
4, 240240, Note_on_c, 0, 62, 0
4, 240240, Note_on_c, 0, 66, 36
4, 240480, Note_on_c, 0, 66, 0
4, 240480, Note_on_c, 0, 71, 37
4, 240720, Note_on_c, 0, 71, 0
4, 240720, Note_on_c, 0, 74, 33
4, 240960, Note_on_c, 0, 74, 0
4, 241947, Control_c, 0, 64, 0
4, 242160, Control_c, 0, 64, 127
4, 242160, Note_on_c, 0, 43, 29
4, 242400, Note_on_c, 0, 43, 0
4, 242400, Note_on_c, 0, 50, 31
4, 242640, Note_on_c, 0, 50, 0
4, 242640, Note_on_c, 0, 55, 32
4, 242880, Note_on_c, 0, 55, 0
4, 242880, Note_on_c, 0, 59, 33
4, 243120, Note_on_c, 0, 59, 0
4, 243120, Note_on_c, 0, 62, 34
4, 243360, Note_on_c, 0, 62, 0
4, 243360, Note_on_c, 0, 67, 35
4, 243600, Note_on_c, 0, 67, 0
4, 243600, Note_on_c, 0, 71, 31
4, 243840, Note_on_c, 0, 71, 0
4, 244827, Control_c, 0, 64, 0
4, 245040, Control_c, 0, 64, 127
4, 245040, Note_on_c, 0, 40, 26
4, 245280, Note_on_c, 0, 40, 0
4, 245280, Note_on_c, 0, 47, 28
4, 245520, Note_on_c, 0, 47, 0
4, 245520, Note_on_c, 0, 52, 30
4, 245760, Note_on_c, 0, 52, 0
4, 245760, Note_on_c, 0, 56, 31
4, 246000, Note_on_c, 0, 56, 0
4, 246000, Note_on_c, 0, 59, 31
4, 246240, Note_on_c, 0, 59, 0
4, 246240, Note_on_c, 0, 64, 32
4, 246480, Note_on_c, 0, 64, 0
4, 246480, Note_on_c, 0, 68, 28
4, 246720, Note_on_c, 0, 68, 0
4, 247707, Control_c, 0, 64, 0
4, 247920, Control_c, 0, 64, 127
4, 247920, Note_on_c, 0, 38, 24
4, 248160, Note_on_c, 0, 38, 0
4, 248160, Note_on_c, 0, 45, 25
4, 248400, Note_on_c, 0, 45, 0
4, 248400, Note_on_c, 0, 50, 27
4, 248640, Note_on_c, 0, 50, 0
4, 248640, Note_on_c, 0, 54, 27
4, 248880, Note_on_c, 0, 54, 0
4, 248880, Note_on_c, 0, 57, 29
4, 249120, Note_on_c, 0, 57, 0
4, 249120, Note_on_c, 0, 62, 30
4, 249360, Note_on_c, 0, 62, 0
4, 249360, Note_on_c, 0, 66, 27
4, 249600, Note_on_c, 0, 66, 0
4, 250587, Control_c, 0, 64, 0
4, 250800, Control_c, 0, 64, 127
4, 250800, Note_on_c, 0, 30, 21
4, 251040, Note_on_c, 0, 30, 0
4, 251040, Note_on_c, 0, 37, 21
4, 251280, Note_on_c, 0, 37, 0
4, 251280, Note_on_c, 0, 42, 23
4, 251520, Note_on_c, 0, 42, 0
4, 251520, Note_on_c, 0, 46, 24
4, 251760, Note_on_c, 0, 46, 0
4, 251760, Note_on_c, 0, 49, 25
4, 252000, Note_on_c, 0, 49, 0
4, 252000, Note_on_c, 0, 54, 27
4, 252240, Note_on_c, 0, 54, 0
4, 252240, Note_on_c, 0, 49, 27
4, 252480, Note_on_c, 0, 49, 0
4, 252480, Note_on_c, 0, 54, 27
4, 252720, Note_on_c, 0, 54, 0
4, 252720, Note_on_c, 0, 58, 27
4, 252960, Note_on_c, 0, 58, 0
4, 252960, Note_on_c, 0, 61, 28
4, 253200, Note_on_c, 0, 61, 0
4, 253200, Note_on_c, 0, 63, 28
4, 253440, Note_on_c, 0, 63, 0
4, 253440, Note_on_c, 0, 66, 29
4, 253680, Note_on_c, 0, 66, 0
4, 253680, Note_on_c, 0, 70, 29
4, 253920, Note_on_c, 0, 70, 0
4, 253920, Note_on_c, 0, 73, 30
4, 254160, Note_on_c, 0, 73, 0
4, 254160, Note_on_c, 0, 75, 30
4, 254400, Note_on_c, 0, 75, 0
4, 254400, Note_on_c, 0, 78, 30
4, 254640, Note_on_c, 0, 78, 0
4, 254640, Note_on_c, 0, 82, 31
4, 254880, Note_on_c, 0, 82, 0
4, 254880, Note_on_c, 0, 85, 31
4, 255120, Note_on_c, 0, 85, 0
4, 255120, Note_on_c, 0, 87, 34
4, 255336, Note_on_c, 0, 87, 0
4, 255360, Note_on_c, 0, 90, 36
4, 255576, Note_on_c, 0, 90, 0
4, 255600, Note_on_c, 0, 94, 37
4, 255816, Note_on_c, 0, 94, 0
4, 255840, Note_on_c, 0, 97, 39
4, 256056, Note_on_c, 0, 97, 0
4, 256080, Note_on_c, 0, 99, 41
4, 256296, Note_on_c, 0, 99, 0
4, 256320, Note_on_c, 0, 102, 42
4, 256970, Control_c, 0, 64, 0
4, 257280, Note_on_c, 0, 102, 0
4, 258921, Control_c, 0, 64, 127
4, 262080, Control_c, 0, 64, 0
4, 262640, Control_c, 0, 64, 127
4, 269174, Control_c, 0, 64, 0
4, 269174, End_track
5, 0, Start_track
5, 0, Title_t, "Grieg: Lyric pieces Book III - To Spring"
5, 0, End_track
6, 0, Start_track
6, 0, Title_t, "Copyright © 2007 by Bernd Krueger"
6, 0, End_track
7, 0, Start_track
7, 0, Title_t, "http://www.piano-midi.de/"
7, 0, End_track
8, 0, Start_track
8, 0, Title_t, "Edition: 2012-09-14"
8, 0, End_track
9, 0, Start_track
9, 0, Title_t, "Spur 8"
9, 0, End_track
10, 0, Start_track
10, 0, Title_t, "Spur 9"
10, 0, End_track
11, 0, Start_track
11, 0, Title_t, "Spur 10"
11, 0, End_track
12, 0, Start_track
12, 0, Title_t, "Spur 11"
12, 0, End_track
13, 0, Start_track
13, 0, Title_t, "Spur 12"
13, 0, End_track
14, 0, Start_track
14, 0, Title_t, "Spur 13"
14, 0, End_track
15, 0, Start_track
15, 0, Title_t, "Spur 14"
15, 0, End_track
16, 0, Start_track
16, 0, Title_t, "Spur 15"
16, 0, End_track
17, 0, Start_track
17, 0, Title_t, "Spur 16"
17, 0, End_track
0, 0, End_of_file
