0, 0, Header, 1, 17, 480
1, 0, Start_track
1, 0, Title_t, "Grieg: Lyrische Stücke Book II Opus 38 Nr. 4 - Halling"
1, 0, Title_t, "Norwegischer Tanz"
1, 0, Copyright_t, "Copyright © 2007 by Bernd Krueger"
1, 0, Text_t, "Edvard Grieg"
1, 0, Text_t, "Allegro marcato"
1, 0, Text_t, "Erstellt: 9.5.2007\012"
1, 0, Text_t, "Update: 3.11.2012\012"
1, 0, Text_t, "Dauer: 0:51 Minuten\012"
1, 0, Time_signature, 2, 2, 24, 8
1, 0, Key_signature, -2, "major"
1, 0, Tempo, 600000
1, 960, Tempo, 647948
1, 1200, Tempo, 627615
1, 1440, Tempo, 637620
1, 1680, Tempo, 658617
1, 1800, Tempo, 641026
1, 1920, Tempo, 641026
1, 2160, Tempo, 624350
1, 2400, Tempo, 644468
1, 2640, Tempo, 627615
1, 2760, Tempo, 608519
1, 2880, Tempo, 627615
1, 3000, Tempo, 634249
1, 3120, Tempo, 634249
1, 3240, Tempo, 651466
1, 3360, Tempo, 634249
1, 3720, Tempo, 673401
1, 3840, Tempo, 693722
1, 3960, Tempo, 731797
1, 4080, Tempo, 731797
1, 4200, Tempo, 805477
1, 4320, Tempo, 714371
1, 4740, Tempo, 600000
1, 4800, Tempo, 647948
1, 5040, Tempo, 627615
1, 5280, Tempo, 637620
1, 5520, Tempo, 658617
1, 5640, Tempo, 641026
1, 5760, Tempo, 641026
1, 6000, Tempo, 624350
1, 6240, Tempo, 644468
1, 6480, Tempo, 627615
1, 6600, Tempo, 608519
1, 6720, Tempo, 627615
1, 6840, Tempo, 634249
1, 6960, Tempo, 634249
1, 7080, Tempo, 651466
1, 7200, Tempo, 634249
1, 7560, Tempo, 673401
1, 7680, Tempo, 693722
1, 7800, Tempo, 759590
1, 7920, Tempo, 805477
1, 8040, Tempo, 833449
1, 8160, Tempo, 722979
1, 8580, Tempo, 600000
1, 8640, Tempo, 647948
1, 8880, Tempo, 627615
1, 9240, Tempo, 643087
1, 9360, Tempo, 626305
1, 9600, Tempo, 626305
1, 9720, Tempo, 657174
1, 9840, Tempo, 626305
1, 10200, Tempo, 643087
1, 10320, Tempo, 657174
1, 10440, Tempo, 687285
1, 10560, Tempo, 810920
1, 10800, Tempo, 664452
1, 11040, Tempo, 683371
1, 11280, Tempo, 664452
1, 11520, Tempo, 679502
1, 11760, Tempo, 761421
1, 11880, Tempo, 818554
1, 12000, Tempo, 745434
1, 12420, Tempo, 600000
1, 12480, Tempo, 647948
1, 12720, Tempo, 627615
1, 13080, Tempo, 643087
1, 13200, Tempo, 626305
1, 13440, Tempo, 626305
1, 13560, Tempo, 657174
1, 13680, Tempo, 626305
1, 14040, Tempo, 643087
1, 14160, Tempo, 657174
1, 14280, Tempo, 687285
1, 14400, Tempo, 816438
1, 14640, Tempo, 679502
1, 14880, Tempo, 720288
1, 15120, Tempo, 699301
1, 15360, Tempo, 851185
1, 15600, Tempo, 1034661
1, 15720, Tempo, 1276867
1, 15840, Tempo, 810920
1, 16260, Tempo, 653595
1, 16320, Tempo, 657174
1, 18180, Tempo, 600000
1, 18240, Tempo, 647948
1, 18480, Tempo, 627615
1, 18720, Tempo, 637620
1, 18960, Tempo, 658617
1, 19080, Tempo, 641026
1, 19200, Tempo, 641026
1, 19440, Tempo, 624350
1, 19680, Tempo, 644468
1, 19920, Tempo, 627615
1, 20040, Tempo, 608519
1, 20160, Tempo, 627615
1, 20280, Tempo, 634249
1, 20400, Tempo, 634249
1, 20520, Tempo, 651466
1, 20640, Tempo, 634249
1, 21000, Tempo, 673401
1, 21120, Tempo, 689734
1, 21240, Tempo, 759590
1, 21360, Tempo, 822030
1, 21480, Tempo, 710143
1, 22020, Tempo, 600000
1, 22080, Tempo, 647948
1, 22320, Tempo, 627615
1, 22680, Tempo, 643087
1, 22800, Tempo, 626305
1, 23040, Tempo, 626305
1, 23160, Tempo, 657174
1, 23280, Tempo, 626305
1, 23640, Tempo, 643087
1, 23760, Tempo, 657174
1, 23880, Tempo, 687285
1, 24000, Tempo, 794807
1, 24240, Tempo, 664452
1, 24480, Tempo, 683371
1, 24720, Tempo, 664452
1, 24960, Tempo, 727361
1, 25200, Tempo, 810920
1, 25320, Tempo, 876040
1, 25440, Tempo, 736287
1, 25860, Tempo, 600000
1, 25920, Tempo, 647948
1, 26160, Tempo, 627615
1, 26520, Tempo, 643087
1, 26640, Tempo, 626305
1, 26880, Tempo, 626305
1, 27000, Tempo, 657174
1, 27120, Tempo, 626305
1, 27480, Tempo, 643087
1, 27600, Tempo, 657174
1, 27720, Tempo, 687285
1, 27840, Tempo, 833449
1, 28080, Tempo, 679502
1, 28320, Tempo, 720288
1, 28560, Tempo, 699301
1, 28800, Tempo, 863434
1, 29040, Tempo, 1034661
1, 29160, Tempo, 1165275
1, 29280, Tempo, 816438
1, 29700, Tempo, 653595
1, 29760, Tempo, 657174
1, 31620, Tempo, 600000
1, 31680, Tempo, 647948
1, 31920, Tempo, 627615
1, 32160, Tempo, 637620
1, 32400, Tempo, 658617
1, 32520, Tempo, 641026
1, 32640, Tempo, 641026
1, 32880, Tempo, 624350
1, 33120, Tempo, 644468
1, 33360, Tempo, 627615
1, 33480, Tempo, 608519
1, 33600, Tempo, 627615
1, 33720, Tempo, 634249
1, 33840, Tempo, 634249
1, 33960, Tempo, 651466
1, 34080, Tempo, 634249
1, 34440, Tempo, 729040
1, 34560, Tempo, 794807
1, 34680, Tempo, 895656
1, 34800, Tempo, 1052816
1, 34920, Tempo, 1354402
1, 34920, End_track
2, 0, Start_track
2, 0, Title_t, "Piano right"
2, 0, Program_c, 0, 0
2, 900, Note_on_c, 0, 87, 70
2, 960, Note_on_c, 0, 87, 0
2, 960, Note_on_c, 0, 86, 77
2, 1200, Note_on_c, 0, 86, 0
2, 1200, Note_on_c, 0, 86, 70
2, 1200, Note_on_c, 0, 82, 58
2, 1320, Note_on_c, 0, 82, 0
2, 1320, Note_on_c, 0, 79, 70
2, 1440, Note_on_c, 0, 79, 0
2, 1440, Note_on_c, 0, 86, 0
2, 1440, Note_on_c, 0, 79, 63
2, 1440, Note_on_c, 0, 81, 75
2, 1680, Note_on_c, 0, 81, 0
2, 1680, Note_on_c, 0, 79, 0
2, 1680, Note_on_c, 0, 81, 68
2, 1680, Note_on_c, 0, 78, 57
2, 1800, Note_on_c, 0, 78, 0
2, 1800, Note_on_c, 0, 74, 68
2, 1860, Note_on_c, 0, 74, 0
2, 1860, Note_on_c, 0, 81, 0
2, 1860, Note_on_c, 0, 87, 70
2, 1920, Note_on_c, 0, 87, 0
2, 1920, Note_on_c, 0, 86, 77
2, 2160, Note_on_c, 0, 86, 0
2, 2160, Note_on_c, 0, 86, 71
2, 2160, Note_on_c, 0, 82, 59
2, 2280, Note_on_c, 0, 82, 0
2, 2280, Note_on_c, 0, 79, 72
2, 2400, Note_on_c, 0, 79, 0
2, 2400, Note_on_c, 0, 86, 0
2, 2400, Note_on_c, 0, 79, 66
2, 2400, Note_on_c, 0, 81, 78
2, 2640, Note_on_c, 0, 81, 0
2, 2640, Note_on_c, 0, 79, 0
2, 2640, Note_on_c, 0, 81, 72
2, 2640, Note_on_c, 0, 78, 60
2, 2760, Note_on_c, 0, 78, 0
2, 2760, Note_on_c, 0, 74, 73
2, 2880, Note_on_c, 0, 74, 0
2, 2880, Note_on_c, 0, 81, 0
2, 2880, Note_on_c, 0, 91, 69
2, 2880, Note_on_c, 0, 93, 82
2, 3000, Note_on_c, 0, 91, 0
2, 3000, Note_on_c, 0, 90, 66
2, 3120, Note_on_c, 0, 90, 0
2, 3120, Note_on_c, 0, 93, 0
2, 3120, Note_on_c, 0, 86, 70
2, 3240, Note_on_c, 0, 86, 0
2, 3360, Note_on_c, 0, 79, 61
2, 3360, Note_on_c, 0, 81, 73
2, 3480, Note_on_c, 0, 79, 0
2, 3480, Note_on_c, 0, 78, 58
2, 3600, Note_on_c, 0, 78, 0
2, 3600, Note_on_c, 0, 81, 0
2, 3600, Note_on_c, 0, 74, 62
2, 3720, Note_on_c, 0, 74, 0
2, 3840, Note_on_c, 0, 67, 53
2, 3840, Note_on_c, 0, 69, 63
2, 3960, Note_on_c, 0, 67, 0
2, 3960, Note_on_c, 0, 66, 54
2, 4080, Note_on_c, 0, 66, 0
2, 4080, Note_on_c, 0, 69, 0
2, 4080, Note_on_c, 0, 62, 57
2, 4200, Note_on_c, 0, 66, 50
2, 4320, Note_on_c, 0, 66, 0
2, 4320, Note_on_c, 0, 62, 0
2, 4320, Note_on_c, 0, 67, 57
2, 4740, Note_on_c, 0, 67, 0
2, 4740, Note_on_c, 0, 75, 63
2, 4800, Note_on_c, 0, 75, 0
2, 4800, Note_on_c, 0, 74, 69
2, 5040, Note_on_c, 0, 74, 0
2, 5040, Note_on_c, 0, 74, 66
2, 5040, Note_on_c, 0, 70, 55
2, 5160, Note_on_c, 0, 70, 0
2, 5160, Note_on_c, 0, 67, 63
2, 5280, Note_on_c, 0, 67, 0
2, 5280, Note_on_c, 0, 74, 0
2, 5280, Note_on_c, 0, 67, 56
2, 5280, Note_on_c, 0, 69, 67
2, 5520, Note_on_c, 0, 69, 0
2, 5520, Note_on_c, 0, 67, 0
2, 5520, Note_on_c, 0, 69, 61
2, 5520, Note_on_c, 0, 66, 51
2, 5640, Note_on_c, 0, 66, 0
2, 5640, Note_on_c, 0, 62, 61
2, 5700, Note_on_c, 0, 62, 0
2, 5700, Note_on_c, 0, 69, 0
2, 5700, Note_on_c, 0, 75, 63
2, 5760, Note_on_c, 0, 75, 0
2, 5760, Note_on_c, 0, 74, 69
2, 6000, Note_on_c, 0, 74, 0
2, 6000, Note_on_c, 0, 74, 67
2, 6000, Note_on_c, 0, 70, 56
2, 6120, Note_on_c, 0, 70, 0
2, 6120, Note_on_c, 0, 67, 64
2, 6240, Note_on_c, 0, 67, 0
2, 6240, Note_on_c, 0, 74, 0
2, 6240, Note_on_c, 0, 67, 59
2, 6240, Note_on_c, 0, 69, 70
2, 6480, Note_on_c, 0, 69, 0
2, 6480, Note_on_c, 0, 67, 0
2, 6480, Note_on_c, 0, 66, 54
2, 6480, Note_on_c, 0, 69, 64
2, 6600, Note_on_c, 0, 66, 0
2, 6600, Note_on_c, 0, 62, 65
2, 6720, Note_on_c, 0, 62, 0
2, 6720, Note_on_c, 0, 69, 0
2, 6720, Note_on_c, 0, 79, 62
2, 6720, Note_on_c, 0, 81, 73
2, 6840, Note_on_c, 0, 79, 0
2, 6840, Note_on_c, 0, 78, 64
2, 6960, Note_on_c, 0, 78, 0
2, 6960, Note_on_c, 0, 81, 0
2, 6960, Note_on_c, 0, 74, 63
2, 7080, Note_on_c, 0, 74, 0
2, 7200, Note_on_c, 0, 67, 54
2, 7200, Note_on_c, 0, 69, 65
2, 7320, Note_on_c, 0, 67, 0
2, 7320, Note_on_c, 0, 66, 55
2, 7440, Note_on_c, 0, 66, 0
2, 7440, Note_on_c, 0, 69, 0
2, 7440, Note_on_c, 0, 62, 55
2, 7560, Note_on_c, 0, 62, 0
2, 7680, Note_on_c, 0, 55, 47
2, 7680, Note_on_c, 0, 57, 56
2, 7800, Note_on_c, 0, 55, 0
2, 7800, Note_on_c, 0, 54, 43
2, 7920, Note_on_c, 0, 54, 0
2, 7920, Note_on_c, 0, 57, 0
2, 7920, Note_on_c, 0, 50, 51
2, 8040, Note_on_c, 0, 54, 45
2, 8160, Note_on_c, 0, 54, 0
2, 8160, Note_on_c, 0, 50, 0
2, 8160, Note_on_c, 0, 55, 51
2, 8580, Note_on_c, 0, 55, 0
2, 8580, Note_on_c, 0, 79, 50
2, 8640, Note_on_c, 0, 79, 0
2, 8640, Note_on_c, 0, 77, 55
2, 8760, Note_on_c, 0, 77, 0
2, 8880, Note_on_c, 0, 77, 52
2, 9000, Note_on_c, 0, 74, 50
2, 9120, Note_on_c, 0, 74, 0
2, 9120, Note_on_c, 0, 77, 0
2, 9120, Note_on_c, 0, 75, 55
2, 9360, Note_on_c, 0, 75, 0
2, 9360, Note_on_c, 0, 75, 52
2, 9360, Note_on_c, 0, 77, 45
2, 9480, Note_on_c, 0, 75, 0
2, 9480, Note_on_c, 0, 72, 50
2, 9600, Note_on_c, 0, 72, 0
2, 9600, Note_on_c, 0, 74, 52
2, 9840, Note_on_c, 0, 74, 0
2, 9840, Note_on_c, 0, 77, 0
2, 9840, Note_on_c, 0, 74, 52
2, 9840, Note_on_c, 0, 77, 45
2, 9960, Note_on_c, 0, 74, 0
2, 9960, Note_on_c, 0, 70, 50
2, 10080, Note_on_c, 0, 70, 0
2, 10080, Note_on_c, 0, 72, 52
2, 10320, Note_on_c, 0, 72, 0
2, 10320, Note_on_c, 0, 77, 0
2, 10320, Note_on_c, 0, 77, 42
2, 10320, Note_on_c, 0, 72, 52
2, 10440, Note_on_c, 0, 72, 0
2, 10440, Note_on_c, 0, 69, 50
2, 10560, Note_on_c, 0, 69, 0
2, 10560, Note_on_c, 0, 70, 52
2, 10800, Note_on_c, 0, 70, 0
2, 10800, Note_on_c, 0, 77, 0
2, 10800, Note_on_c, 0, 77, 45
2, 10920, Note_on_c, 0, 77, 0
2, 10920, Note_on_c, 0, 82, 40
2, 11040, Note_on_c, 0, 82, 0
2, 11040, Note_on_c, 0, 70, 42
2, 11160, Note_on_c, 0, 70, 0
2, 11280, Note_on_c, 0, 77, 45
2, 11400, Note_on_c, 0, 77, 0
2, 11400, Note_on_c, 0, 82, 41
2, 11520, Note_on_c, 0, 82, 0
2, 11520, Note_on_c, 0, 70, 41
2, 11640, Note_on_c, 0, 70, 0
2, 11760, Note_on_c, 0, 77, 45
2, 11880, Note_on_c, 0, 77, 0
2, 11880, Note_on_c, 0, 82, 41
2, 12000, Note_on_c, 0, 82, 0
2, 12000, Note_on_c, 0, 70, 41
2, 12120, Note_on_c, 0, 70, 0
2, 12420, Note_on_c, 0, 67, 47
2, 12480, Note_on_c, 0, 67, 0
2, 12480, Note_on_c, 0, 65, 52
2, 12600, Note_on_c, 0, 65, 0
2, 12720, Note_on_c, 0, 65, 49
2, 12840, Note_on_c, 0, 62, 47
2, 12960, Note_on_c, 0, 62, 0
2, 12960, Note_on_c, 0, 65, 0
2, 12960, Note_on_c, 0, 63, 52
2, 13200, Note_on_c, 0, 63, 0
2, 13200, Note_on_c, 0, 63, 49
2, 13200, Note_on_c, 0, 65, 42
2, 13320, Note_on_c, 0, 63, 0
2, 13320, Note_on_c, 0, 60, 47
2, 13440, Note_on_c, 0, 60, 0
2, 13440, Note_on_c, 0, 62, 49
2, 13680, Note_on_c, 0, 62, 0
2, 13680, Note_on_c, 0, 65, 0
2, 13680, Note_on_c, 0, 62, 49
2, 13680, Note_on_c, 0, 65, 42
2, 13800, Note_on_c, 0, 62, 0
2, 13800, Note_on_c, 0, 58, 47
2, 13920, Note_on_c, 0, 58, 0
2, 13920, Note_on_c, 0, 60, 49
2, 14160, Note_on_c, 0, 60, 0
2, 14160, Note_on_c, 0, 65, 0
2, 14160, Note_on_c, 0, 65, 39
2, 14160, Note_on_c, 0, 60, 49
2, 14280, Note_on_c, 0, 60, 0
2, 14280, Note_on_c, 0, 57, 47
2, 14400, Note_on_c, 0, 57, 0
2, 14400, Note_on_c, 0, 58, 49
2, 14640, Note_on_c, 0, 58, 0
2, 14640, Note_on_c, 0, 65, 0
2, 14640, Note_on_c, 0, 69, 42
2, 14760, Note_on_c, 0, 69, 0
2, 14760, Note_on_c, 0, 74, 38
2, 14880, Note_on_c, 0, 74, 0
2, 14880, Note_on_c, 0, 62, 39
2, 15000, Note_on_c, 0, 62, 0
2, 15120, Note_on_c, 0, 69, 42
2, 15240, Note_on_c, 0, 69, 0
2, 15240, Note_on_c, 0, 74, 38
2, 15360, Note_on_c, 0, 74, 0
2, 15360, Note_on_c, 0, 62, 38
2, 15480, Note_on_c, 0, 62, 0
2, 15600, Note_on_c, 0, 69, 42
2, 15720, Note_on_c, 0, 69, 0
2, 15720, Note_on_c, 0, 74, 38
2, 15840, Note_on_c, 0, 74, 0
2, 15840, Note_on_c, 0, 62, 38
2, 15960, Note_on_c, 0, 62, 0
2, 16260, Note_on_c, 0, 63, 50
2, 16320, Note_on_c, 0, 63, 0
2, 16320, Note_on_c, 0, 62, 61
2, 16740, Note_on_c, 0, 62, 0
2, 17220, Note_on_c, 0, 75, 54
2, 17280, Note_on_c, 0, 75, 0
2, 17280, Note_on_c, 0, 74, 65
2, 17700, Note_on_c, 0, 74, 0
2, 18180, Note_on_c, 0, 87, 70
2, 18240, Note_on_c, 0, 87, 0
2, 18240, Note_on_c, 0, 86, 77
2, 18480, Note_on_c, 0, 86, 0
2, 18480, Note_on_c, 0, 86, 70
2, 18480, Note_on_c, 0, 82, 58
2, 18600, Note_on_c, 0, 82, 0
2, 18600, Note_on_c, 0, 79, 70
2, 18720, Note_on_c, 0, 79, 0
2, 18720, Note_on_c, 0, 86, 0
2, 18720, Note_on_c, 0, 79, 63
2, 18720, Note_on_c, 0, 81, 75
2, 18960, Note_on_c, 0, 81, 0
2, 18960, Note_on_c, 0, 79, 0
2, 18960, Note_on_c, 0, 81, 68
2, 18960, Note_on_c, 0, 78, 57
2, 19080, Note_on_c, 0, 78, 0
2, 19080, Note_on_c, 0, 74, 68
2, 19140, Note_on_c, 0, 74, 0
2, 19140, Note_on_c, 0, 81, 0
2, 19140, Note_on_c, 0, 87, 70
2, 19200, Note_on_c, 0, 87, 0
2, 19200, Note_on_c, 0, 86, 77
2, 19440, Note_on_c, 0, 86, 0
2, 19440, Note_on_c, 0, 86, 71
2, 19440, Note_on_c, 0, 82, 59
2, 19560, Note_on_c, 0, 82, 0
2, 19560, Note_on_c, 0, 79, 72
2, 19680, Note_on_c, 0, 79, 0
2, 19680, Note_on_c, 0, 86, 0
2, 19680, Note_on_c, 0, 79, 66
2, 19680, Note_on_c, 0, 81, 78
2, 19920, Note_on_c, 0, 81, 0
2, 19920, Note_on_c, 0, 79, 0
2, 19920, Note_on_c, 0, 81, 72
2, 19920, Note_on_c, 0, 78, 60
2, 20040, Note_on_c, 0, 78, 0
2, 20040, Note_on_c, 0, 74, 73
2, 20160, Note_on_c, 0, 74, 0
2, 20160, Note_on_c, 0, 81, 0
2, 20160, Note_on_c, 0, 79, 69
2, 20160, Note_on_c, 0, 81, 82
2, 20280, Note_on_c, 0, 79, 0
2, 20280, Note_on_c, 0, 78, 66
2, 20400, Note_on_c, 0, 78, 0
2, 20400, Note_on_c, 0, 81, 0
2, 20400, Note_on_c, 0, 74, 70
2, 20520, Note_on_c, 0, 74, 0
2, 20640, Note_on_c, 0, 69, 73
2, 20640, Note_on_c, 0, 67, 61
2, 20760, Note_on_c, 0, 67, 0
2, 20760, Note_on_c, 0, 66, 59
2, 20880, Note_on_c, 0, 66, 0
2, 20880, Note_on_c, 0, 69, 0
2, 20880, Note_on_c, 0, 62, 62
2, 21000, Note_on_c, 0, 62, 0
2, 21120, Note_on_c, 0, 55, 53
2, 21120, Note_on_c, 0, 57, 63
2, 21240, Note_on_c, 0, 55, 0
2, 21240, Note_on_c, 0, 54, 48
2, 21360, Note_on_c, 0, 54, 0
2, 21360, Note_on_c, 0, 57, 0
2, 21360, Note_on_c, 0, 50, 57
2, 21480, Note_on_c, 0, 54, 50
2, 21600, Note_on_c, 0, 54, 0
2, 21600, Note_on_c, 0, 50, 0
2, 21600, Note_on_c, 0, 55, 57
2, 22020, Note_on_c, 0, 55, 0
2, 22020, Note_on_c, 0, 79, 50
2, 22080, Note_on_c, 0, 79, 0
2, 22080, Note_on_c, 0, 77, 55
2, 22200, Note_on_c, 0, 77, 0
2, 22320, Note_on_c, 0, 77, 52
2, 22440, Note_on_c, 0, 74, 50
2, 22560, Note_on_c, 0, 74, 0
2, 22560, Note_on_c, 0, 77, 0
2, 22560, Note_on_c, 0, 75, 55
2, 22800, Note_on_c, 0, 75, 0
2, 22800, Note_on_c, 0, 75, 52
2, 22800, Note_on_c, 0, 77, 45
2, 22920, Note_on_c, 0, 75, 0
2, 22920, Note_on_c, 0, 72, 50
2, 23040, Note_on_c, 0, 72, 0
2, 23040, Note_on_c, 0, 74, 52
2, 23280, Note_on_c, 0, 74, 0
2, 23280, Note_on_c, 0, 77, 0
2, 23280, Note_on_c, 0, 74, 52
2, 23280, Note_on_c, 0, 77, 45
2, 23400, Note_on_c, 0, 74, 0
2, 23400, Note_on_c, 0, 70, 50
2, 23520, Note_on_c, 0, 70, 0
2, 23520, Note_on_c, 0, 72, 52
2, 23760, Note_on_c, 0, 72, 0
2, 23760, Note_on_c, 0, 77, 0
2, 23760, Note_on_c, 0, 77, 42
2, 23760, Note_on_c, 0, 72, 52
2, 23880, Note_on_c, 0, 72, 0
2, 23880, Note_on_c, 0, 69, 50
2, 24000, Note_on_c, 0, 69, 0
2, 24000, Note_on_c, 0, 70, 52
2, 24240, Note_on_c, 0, 70, 0
2, 24240, Note_on_c, 0, 77, 0
2, 24240, Note_on_c, 0, 77, 45
2, 24360, Note_on_c, 0, 77, 0
2, 24360, Note_on_c, 0, 82, 40
2, 24480, Note_on_c, 0, 82, 0
2, 24480, Note_on_c, 0, 70, 42
2, 24600, Note_on_c, 0, 70, 0
2, 24720, Note_on_c, 0, 77, 45
2, 24840, Note_on_c, 0, 77, 0
2, 24840, Note_on_c, 0, 82, 41
2, 24960, Note_on_c, 0, 82, 0
2, 24960, Note_on_c, 0, 70, 41
2, 25080, Note_on_c, 0, 70, 0
2, 25200, Note_on_c, 0, 77, 45
2, 25320, Note_on_c, 0, 77, 0
2, 25320, Note_on_c, 0, 82, 41
2, 25440, Note_on_c, 0, 82, 0
2, 25440, Note_on_c, 0, 70, 41
2, 25560, Note_on_c, 0, 70, 0
2, 25860, Note_on_c, 0, 67, 47
2, 25920, Note_on_c, 0, 67, 0
2, 25920, Note_on_c, 0, 65, 52
2, 26040, Note_on_c, 0, 65, 0
2, 26160, Note_on_c, 0, 65, 49
2, 26280, Note_on_c, 0, 62, 47
2, 26400, Note_on_c, 0, 62, 0
2, 26400, Note_on_c, 0, 65, 0
2, 26400, Note_on_c, 0, 63, 52
2, 26640, Note_on_c, 0, 63, 0
2, 26640, Note_on_c, 0, 63, 49
2, 26640, Note_on_c, 0, 65, 42
2, 26760, Note_on_c, 0, 63, 0
2, 26760, Note_on_c, 0, 60, 47
2, 26880, Note_on_c, 0, 60, 0
2, 26880, Note_on_c, 0, 62, 49
2, 27120, Note_on_c, 0, 62, 0
2, 27120, Note_on_c, 0, 65, 0
2, 27120, Note_on_c, 0, 62, 49
2, 27120, Note_on_c, 0, 65, 42
2, 27240, Note_on_c, 0, 62, 0
2, 27240, Note_on_c, 0, 58, 47
2, 27360, Note_on_c, 0, 58, 0
2, 27360, Note_on_c, 0, 60, 49
2, 27600, Note_on_c, 0, 60, 0
2, 27600, Note_on_c, 0, 65, 0
2, 27600, Note_on_c, 0, 65, 39
2, 27600, Note_on_c, 0, 60, 49
2, 27720, Note_on_c, 0, 60, 0
2, 27720, Note_on_c, 0, 57, 47
2, 27840, Note_on_c, 0, 57, 0
2, 27840, Note_on_c, 0, 58, 49
2, 28080, Note_on_c, 0, 58, 0
2, 28080, Note_on_c, 0, 65, 0
2, 28080, Note_on_c, 0, 69, 42
2, 28200, Note_on_c, 0, 69, 0
2, 28200, Note_on_c, 0, 74, 38
2, 28320, Note_on_c, 0, 74, 0
2, 28320, Note_on_c, 0, 62, 39
2, 28440, Note_on_c, 0, 62, 0
2, 28560, Note_on_c, 0, 69, 42
2, 28680, Note_on_c, 0, 69, 0
2, 28680, Note_on_c, 0, 74, 38
2, 28800, Note_on_c, 0, 74, 0
2, 28800, Note_on_c, 0, 62, 38
2, 28920, Note_on_c, 0, 62, 0
2, 29040, Note_on_c, 0, 69, 42
2, 29160, Note_on_c, 0, 69, 0
2, 29160, Note_on_c, 0, 74, 38
2, 29280, Note_on_c, 0, 74, 0
2, 29280, Note_on_c, 0, 62, 38
2, 29400, Note_on_c, 0, 62, 0
2, 29700, Note_on_c, 0, 63, 50
2, 29760, Note_on_c, 0, 63, 0
2, 29760, Note_on_c, 0, 62, 61
2, 30180, Note_on_c, 0, 62, 0
2, 30660, Note_on_c, 0, 75, 54
2, 30720, Note_on_c, 0, 75, 0
2, 30720, Note_on_c, 0, 74, 65
2, 31140, Note_on_c, 0, 74, 0
2, 31620, Note_on_c, 0, 87, 69
2, 31680, Note_on_c, 0, 87, 0
2, 31680, Note_on_c, 0, 86, 75
2, 31920, Note_on_c, 0, 86, 0
2, 31920, Note_on_c, 0, 86, 68
2, 31920, Note_on_c, 0, 82, 57
2, 32040, Note_on_c, 0, 82, 0
2, 32040, Note_on_c, 0, 79, 69
2, 32160, Note_on_c, 0, 79, 0
2, 32160, Note_on_c, 0, 86, 0
2, 32160, Note_on_c, 0, 79, 61
2, 32160, Note_on_c, 0, 81, 73
2, 32400, Note_on_c, 0, 81, 0
2, 32400, Note_on_c, 0, 79, 0
2, 32400, Note_on_c, 0, 81, 67
2, 32400, Note_on_c, 0, 78, 56
2, 32520, Note_on_c, 0, 78, 0
2, 32520, Note_on_c, 0, 74, 61
2, 32580, Note_on_c, 0, 74, 0
2, 32580, Note_on_c, 0, 81, 0
2, 32580, Note_on_c, 0, 75, 63
2, 32640, Note_on_c, 0, 75, 0
2, 32640, Note_on_c, 0, 74, 69
2, 32880, Note_on_c, 0, 74, 0
2, 32880, Note_on_c, 0, 74, 67
2, 32880, Note_on_c, 0, 70, 56
2, 33000, Note_on_c, 0, 70, 0
2, 33000, Note_on_c, 0, 67, 64
2, 33120, Note_on_c, 0, 67, 0
2, 33120, Note_on_c, 0, 74, 0
2, 33120, Note_on_c, 0, 67, 59
2, 33120, Note_on_c, 0, 69, 70
2, 33360, Note_on_c, 0, 69, 0
2, 33360, Note_on_c, 0, 67, 0
2, 33360, Note_on_c, 0, 66, 54
2, 33360, Note_on_c, 0, 69, 64
2, 33480, Note_on_c, 0, 66, 0
2, 33480, Note_on_c, 0, 62, 65
2, 33600, Note_on_c, 0, 62, 0
2, 33600, Note_on_c, 0, 69, 0
2, 33600, Note_on_c, 0, 79, 62
2, 33600, Note_on_c, 0, 81, 73
2, 33720, Note_on_c, 0, 79, 0
2, 33720, Note_on_c, 0, 78, 58
2, 33840, Note_on_c, 0, 78, 0
2, 33840, Note_on_c, 0, 81, 0
2, 33840, Note_on_c, 0, 74, 59
2, 33960, Note_on_c, 0, 74, 0
2, 34080, Note_on_c, 0, 67, 48
2, 34080, Note_on_c, 0, 69, 58
2, 34200, Note_on_c, 0, 67, 0
2, 34200, Note_on_c, 0, 66, 47
2, 34320, Note_on_c, 0, 66, 0
2, 34320, Note_on_c, 0, 69, 0
2, 34320, Note_on_c, 0, 62, 46
2, 34440, Note_on_c, 0, 62, 0
2, 34560, Note_on_c, 0, 55, 37
2, 34560, Note_on_c, 0, 57, 44
2, 34680, Note_on_c, 0, 55, 0
2, 34680, Note_on_c, 0, 54, 33
2, 34800, Note_on_c, 0, 54, 0
2, 34800, Note_on_c, 0, 57, 0
2, 34800, Note_on_c, 0, 50, 38
2, 34920, Note_on_c, 0, 54, 32
2, 35040, Note_on_c, 0, 54, 0
2, 35040, Note_on_c, 0, 50, 0
2, 35040, Note_on_c, 0, 55, 35
2, 35520, Note_on_c, 0, 55, 0
2, 35520, End_track
3, 0, Start_track
3, 0, Title_t, "Piano left"
3, 0, Program_c, 0, 0
3, 1200, Note_on_c, 0, 67, 41
3, 1200, Note_on_c, 0, 74, 49
3, 1440, Note_on_c, 0, 72, 54
3, 1680, Note_on_c, 0, 72, 0
3, 1680, Note_on_c, 0, 69, 49
3, 1860, Note_on_c, 0, 69, 0
3, 1920, Note_on_c, 0, 74, 0
3, 1920, Note_on_c, 0, 67, 0
3, 2160, Note_on_c, 0, 67, 41
3, 2160, Note_on_c, 0, 74, 49
3, 2400, Note_on_c, 0, 72, 56
3, 2640, Note_on_c, 0, 72, 0
3, 2640, Note_on_c, 0, 69, 52
3, 2880, Note_on_c, 0, 69, 0
3, 2880, Note_on_c, 0, 74, 0
3, 2880, Note_on_c, 0, 67, 0
3, 3120, Note_on_c, 0, 81, 78
3, 3120, Note_on_c, 0, 79, 65
3, 3240, Note_on_c, 0, 79, 0
3, 3240, Note_on_c, 0, 78, 63
3, 3358, Note_on_c, 0, 81, 0
3, 3360, Note_on_c, 0, 78, 0
3, 3360, Note_on_c, 0, 74, 66
3, 3480, Note_on_c, 0, 74, 0
3, 3600, Note_on_c, 0, 67, 57
3, 3600, Note_on_c, 0, 69, 69
3, 3720, Note_on_c, 0, 67, 0
3, 3720, Note_on_c, 0, 66, 56
3, 3838, Note_on_c, 0, 69, 0
3, 3840, Note_on_c, 0, 66, 0
3, 3840, Note_on_c, 0, 62, 57
3, 3960, Note_on_c, 0, 62, 0
3, 4080, Note_on_c, 0, 50, 46
3, 4200, Note_on_c, 0, 50, 0
3, 4320, Note_on_c, 0, 43, 43
3, 4320, Note_on_c, 0, 55, 51
3, 4740, Note_on_c, 0, 55, 0
3, 4740, Note_on_c, 0, 43, 0
3, 5040, Note_on_c, 0, 55, 36
3, 5040, Note_on_c, 0, 62, 44
3, 5280, Note_on_c, 0, 60, 48
3, 5520, Note_on_c, 0, 60, 0
3, 5520, Note_on_c, 0, 57, 44
3, 5760, Note_on_c, 0, 57, 0
3, 5760, Note_on_c, 0, 62, 0
3, 5760, Note_on_c, 0, 55, 0
3, 6000, Note_on_c, 0, 55, 36
3, 6000, Note_on_c, 0, 62, 44
3, 6240, Note_on_c, 0, 60, 50
3, 6480, Note_on_c, 0, 60, 0
3, 6480, Note_on_c, 0, 57, 46
3, 6720, Note_on_c, 0, 57, 0
3, 6720, Note_on_c, 0, 62, 0
3, 6720, Note_on_c, 0, 55, 0
3, 6960, Note_on_c, 0, 67, 58
3, 6960, Note_on_c, 0, 69, 70
3, 7080, Note_on_c, 0, 67, 0
3, 7080, Note_on_c, 0, 66, 62
3, 7198, Note_on_c, 0, 69, 0
3, 7200, Note_on_c, 0, 66, 0
3, 7200, Note_on_c, 0, 62, 59
3, 7320, Note_on_c, 0, 62, 0
3, 7440, Note_on_c, 0, 55, 51
3, 7440, Note_on_c, 0, 57, 62
3, 7560, Note_on_c, 0, 55, 0
3, 7560, Note_on_c, 0, 54, 54
3, 7678, Note_on_c, 0, 57, 0
3, 7680, Note_on_c, 0, 54, 0
3, 7680, Note_on_c, 0, 50, 51
3, 7800, Note_on_c, 0, 50, 0
3, 7920, Note_on_c, 0, 38, 41
3, 8040, Note_on_c, 0, 38, 0
3, 8160, Note_on_c, 0, 31, 38
3, 8160, Note_on_c, 0, 43, 45
3, 8580, Note_on_c, 0, 43, 0
3, 8580, Note_on_c, 0, 31, 0
3, 8880, Note_on_c, 0, 58, 28
3, 8880, Note_on_c, 0, 65, 35
3, 9120, Note_on_c, 0, 67, 34
3, 9360, Note_on_c, 0, 67, 0
3, 9360, Note_on_c, 0, 69, 34
3, 9600, Note_on_c, 0, 69, 0
3, 9600, Note_on_c, 0, 65, 0
3, 9600, Note_on_c, 0, 58, 0
3, 9840, Note_on_c, 0, 58, 28
3, 9840, Note_on_c, 0, 65, 35
3, 10080, Note_on_c, 0, 63, 32
3, 10320, Note_on_c, 0, 63, 0
3, 10320, Note_on_c, 0, 60, 32
3, 10560, Note_on_c, 0, 60, 0
3, 10560, Note_on_c, 0, 62, 40
3, 10800, Note_on_c, 0, 62, 0
3, 10800, Note_on_c, 0, 65, 0
3, 10800, Note_on_c, 0, 58, 0
3, 10800, Note_on_c, 0, 53, 38
3, 10920, Note_on_c, 0, 53, 0
3, 10920, Note_on_c, 0, 46, 33
3, 11040, Note_on_c, 0, 46, 0
3, 11040, Note_on_c, 0, 62, 33
3, 11160, Note_on_c, 0, 62, 0
3, 11280, Note_on_c, 0, 53, 38
3, 11400, Note_on_c, 0, 53, 0
3, 11400, Note_on_c, 0, 46, 33
3, 11520, Note_on_c, 0, 46, 0
3, 11520, Note_on_c, 0, 62, 33
3, 11640, Note_on_c, 0, 62, 0
3, 11760, Note_on_c, 0, 53, 38
3, 11880, Note_on_c, 0, 53, 0
3, 11880, Note_on_c, 0, 46, 33
3, 12000, Note_on_c, 0, 46, 0
3, 12000, Note_on_c, 0, 62, 34
3, 12120, Note_on_c, 0, 62, 0
3, 12720, Note_on_c, 0, 46, 26
3, 12720, Note_on_c, 0, 53, 33
3, 12960, Note_on_c, 0, 55, 32
3, 13200, Note_on_c, 0, 55, 0
3, 13200, Note_on_c, 0, 57, 32
3, 13440, Note_on_c, 0, 57, 0
3, 13440, Note_on_c, 0, 53, 0
3, 13440, Note_on_c, 0, 46, 0
3, 13680, Note_on_c, 0, 46, 26
3, 13680, Note_on_c, 0, 53, 33
3, 13920, Note_on_c, 0, 51, 30
3, 14160, Note_on_c, 0, 51, 0
3, 14160, Note_on_c, 0, 48, 30
3, 14400, Note_on_c, 0, 48, 0
3, 14400, Note_on_c, 0, 50, 38
3, 14640, Note_on_c, 0, 50, 0
3, 14640, Note_on_c, 0, 53, 0
3, 14640, Note_on_c, 0, 46, 0
3, 14640, Note_on_c, 0, 45, 36
3, 14760, Note_on_c, 0, 45, 0
3, 14760, Note_on_c, 0, 38, 31
3, 14880, Note_on_c, 0, 38, 0
3, 14880, Note_on_c, 0, 54, 31
3, 15000, Note_on_c, 0, 54, 0
3, 15120, Note_on_c, 0, 45, 36
3, 15240, Note_on_c, 0, 45, 0
3, 15240, Note_on_c, 0, 38, 31
3, 15360, Note_on_c, 0, 38, 0
3, 15360, Note_on_c, 0, 54, 31
3, 15480, Note_on_c, 0, 54, 0
3, 15600, Note_on_c, 0, 45, 36
3, 15720, Note_on_c, 0, 45, 0
3, 15720, Note_on_c, 0, 38, 31
3, 15840, Note_on_c, 0, 38, 0
3, 15840, Note_on_c, 0, 54, 32
3, 15960, Note_on_c, 0, 54, 0
3, 16740, Note_on_c, 0, 70, 52
3, 16800, Note_on_c, 0, 70, 0
3, 16800, Note_on_c, 0, 69, 61
3, 17220, Note_on_c, 0, 69, 0
3, 17700, Note_on_c, 0, 82, 61
3, 17760, Note_on_c, 0, 82, 0
3, 17760, Note_on_c, 0, 81, 72
3, 18180, Note_on_c, 0, 81, 0
3, 18480, Note_on_c, 0, 67, 41
3, 18480, Note_on_c, 0, 74, 49
3, 18720, Note_on_c, 0, 72, 54
3, 18960, Note_on_c, 0, 72, 0
3, 18960, Note_on_c, 0, 69, 49
3, 19140, Note_on_c, 0, 69, 0
3, 19200, Note_on_c, 0, 74, 0
3, 19200, Note_on_c, 0, 67, 0
3, 19440, Note_on_c, 0, 67, 41
3, 19440, Note_on_c, 0, 74, 49
3, 19680, Note_on_c, 0, 72, 56
3, 19920, Note_on_c, 0, 72, 0
3, 19920, Note_on_c, 0, 69, 52
3, 20160, Note_on_c, 0, 69, 0
3, 20160, Note_on_c, 0, 74, 0
3, 20160, Note_on_c, 0, 67, 0
3, 20400, Note_on_c, 0, 69, 78
3, 20400, Note_on_c, 0, 67, 65
3, 20520, Note_on_c, 0, 67, 0
3, 20520, Note_on_c, 0, 66, 63
3, 20638, Note_on_c, 0, 69, 0
3, 20640, Note_on_c, 0, 66, 0
3, 20640, Note_on_c, 0, 62, 66
3, 20760, Note_on_c, 0, 62, 0
3, 20880, Note_on_c, 0, 57, 69
3, 20880, Note_on_c, 0, 55, 57
3, 21000, Note_on_c, 0, 55, 0
3, 21000, Note_on_c, 0, 54, 56
3, 21118, Note_on_c, 0, 57, 0
3, 21120, Note_on_c, 0, 54, 0
3, 21120, Note_on_c, 0, 50, 57
3, 21240, Note_on_c, 0, 50, 0
3, 21360, Note_on_c, 0, 38, 46
3, 21480, Note_on_c, 0, 38, 0
3, 21600, Note_on_c, 0, 31, 43
3, 21600, Note_on_c, 0, 43, 51
3, 22020, Note_on_c, 0, 43, 0
3, 22020, Note_on_c, 0, 31, 0
3, 22320, Note_on_c, 0, 58, 28
3, 22320, Note_on_c, 0, 65, 35
3, 22560, Note_on_c, 0, 67, 34
3, 22800, Note_on_c, 0, 67, 0
3, 22800, Note_on_c, 0, 69, 34
3, 23040, Note_on_c, 0, 69, 0
3, 23040, Note_on_c, 0, 65, 0
3, 23040, Note_on_c, 0, 58, 0
3, 23280, Note_on_c, 0, 58, 28
3, 23280, Note_on_c, 0, 65, 35
3, 23520, Note_on_c, 0, 63, 32
3, 23760, Note_on_c, 0, 63, 0
3, 23760, Note_on_c, 0, 60, 32
3, 24000, Note_on_c, 0, 60, 0
3, 24000, Note_on_c, 0, 62, 40
3, 24240, Note_on_c, 0, 62, 0
3, 24240, Note_on_c, 0, 65, 0
3, 24240, Note_on_c, 0, 58, 0
3, 24240, Note_on_c, 0, 53, 38
3, 24360, Note_on_c, 0, 53, 0
3, 24360, Note_on_c, 0, 46, 33
3, 24480, Note_on_c, 0, 46, 0
3, 24480, Note_on_c, 0, 62, 33
3, 24600, Note_on_c, 0, 62, 0
3, 24720, Note_on_c, 0, 53, 38
3, 24840, Note_on_c, 0, 53, 0
3, 24840, Note_on_c, 0, 46, 33
3, 24960, Note_on_c, 0, 46, 0
3, 24960, Note_on_c, 0, 62, 33
3, 25080, Note_on_c, 0, 62, 0
3, 25200, Note_on_c, 0, 53, 38
3, 25320, Note_on_c, 0, 53, 0
3, 25320, Note_on_c, 0, 46, 33
3, 25440, Note_on_c, 0, 46, 0
3, 25440, Note_on_c, 0, 62, 34
3, 25560, Note_on_c, 0, 62, 0
3, 26160, Note_on_c, 0, 46, 26
3, 26160, Note_on_c, 0, 53, 33
3, 26400, Note_on_c, 0, 55, 32
3, 26640, Note_on_c, 0, 55, 0
3, 26640, Note_on_c, 0, 57, 32
3, 26880, Note_on_c, 0, 57, 0
3, 26880, Note_on_c, 0, 53, 0
3, 26880, Note_on_c, 0, 46, 0
3, 27120, Note_on_c, 0, 46, 26
3, 27120, Note_on_c, 0, 53, 33
3, 27360, Note_on_c, 0, 51, 30
3, 27600, Note_on_c, 0, 51, 0
3, 27600, Note_on_c, 0, 48, 30
3, 27840, Note_on_c, 0, 48, 0
3, 27840, Note_on_c, 0, 50, 38
3, 28080, Note_on_c, 0, 50, 0
3, 28080, Note_on_c, 0, 53, 0
3, 28080, Note_on_c, 0, 46, 0
3, 28080, Note_on_c, 0, 45, 36
3, 28200, Note_on_c, 0, 45, 0
3, 28200, Note_on_c, 0, 38, 31
3, 28320, Note_on_c, 0, 38, 0
3, 28320, Note_on_c, 0, 54, 31
3, 28440, Note_on_c, 0, 54, 0
3, 28560, Note_on_c, 0, 45, 36
3, 28680, Note_on_c, 0, 45, 0
3, 28680, Note_on_c, 0, 38, 31
3, 28800, Note_on_c, 0, 38, 0
3, 28800, Note_on_c, 0, 54, 31
3, 28920, Note_on_c, 0, 54, 0
3, 29040, Note_on_c, 0, 45, 36
3, 29160, Note_on_c, 0, 45, 0
3, 29160, Note_on_c, 0, 38, 31
3, 29280, Note_on_c, 0, 38, 0
3, 29280, Note_on_c, 0, 54, 32
3, 29400, Note_on_c, 0, 54, 0
3, 30180, Note_on_c, 0, 70, 52
3, 30240, Note_on_c, 0, 70, 0
3, 30240, Note_on_c, 0, 69, 61
3, 30660, Note_on_c, 0, 69, 0
3, 31140, Note_on_c, 0, 82, 61
3, 31200, Note_on_c, 0, 82, 0
3, 31200, Note_on_c, 0, 81, 72
3, 31620, Note_on_c, 0, 81, 0
3, 31920, Note_on_c, 0, 67, 39
3, 31920, Note_on_c, 0, 74, 48
3, 32160, Note_on_c, 0, 72, 52
3, 32400, Note_on_c, 0, 72, 0
3, 32400, Note_on_c, 0, 69, 48
3, 32638, Note_on_c, 0, 74, 0
3, 32640, Note_on_c, 0, 69, 0
3, 32640, Note_on_c, 0, 67, 0
3, 32880, Note_on_c, 0, 55, 36
3, 32880, Note_on_c, 0, 62, 44
3, 33120, Note_on_c, 0, 60, 50
3, 33360, Note_on_c, 0, 60, 0
3, 33360, Note_on_c, 0, 57, 46
3, 33600, Note_on_c, 0, 57, 0
3, 33600, Note_on_c, 0, 62, 0
3, 33600, Note_on_c, 0, 55, 0
3, 33840, Note_on_c, 0, 67, 55
3, 33840, Note_on_c, 0, 69, 66
3, 33960, Note_on_c, 0, 67, 0
3, 33960, Note_on_c, 0, 66, 51
3, 34078, Note_on_c, 0, 69, 0
3, 34080, Note_on_c, 0, 66, 0
3, 34080, Note_on_c, 0, 62, 53
3, 34200, Note_on_c, 0, 62, 0
3, 34320, Note_on_c, 0, 55, 43
3, 34320, Note_on_c, 0, 57, 52
3, 34440, Note_on_c, 0, 55, 0
3, 34440, Note_on_c, 0, 54, 37
3, 34558, Note_on_c, 0, 57, 0
3, 34560, Note_on_c, 0, 54, 0
3, 34560, Note_on_c, 0, 50, 40
3, 34680, Note_on_c, 0, 50, 0
3, 34800, Note_on_c, 0, 38, 30
3, 34920, Note_on_c, 0, 38, 0
3, 35040, Note_on_c, 0, 31, 26
3, 35040, Note_on_c, 0, 43, 31
3, 35520, Note_on_c, 0, 43, 0
3, 35520, Note_on_c, 0, 31, 0
3, 35520, End_track
4, 0, Start_track
4, 0, Title_t, "Pedale"
4, 0, Program_c, 0, 0
4, 1006, Control_c, 0, 64, 127
4, 1452, Control_c, 0, 64, 0
4, 1566, Control_c, 0, 64, 127
4, 1690, Control_c, 0, 64, 0
4, 1772, Control_c, 0, 64, 127
4, 1881, Control_c, 0, 64, 0
4, 1966, Control_c, 0, 64, 127
4, 2412, Control_c, 0, 64, 0
4, 2526, Control_c, 0, 64, 127
4, 2650, Control_c, 0, 64, 0
4, 2732, Control_c, 0, 64, 127
4, 2827, Control_c, 0, 64, 0
4, 2880, Control_c, 0, 64, 127
4, 3367, Control_c, 0, 64, 0
4, 3410, Control_c, 0, 64, 127
4, 3840, Control_c, 0, 64, 0
4, 3926, Control_c, 0, 64, 127
4, 4330, Control_c, 0, 64, 0
4, 4435, Control_c, 0, 64, 127
4, 4730, Control_c, 0, 64, 0
4, 4846, Control_c, 0, 64, 127
4, 5292, Control_c, 0, 64, 0
4, 5406, Control_c, 0, 64, 127
4, 5530, Control_c, 0, 64, 0
4, 5612, Control_c, 0, 64, 127
4, 5721, Control_c, 0, 64, 0
4, 5806, Control_c, 0, 64, 127
4, 6252, Control_c, 0, 64, 0
4, 6366, Control_c, 0, 64, 127
4, 6490, Control_c, 0, 64, 0
4, 6572, Control_c, 0, 64, 127
4, 6667, Control_c, 0, 64, 0
4, 6720, Control_c, 0, 64, 127
4, 7207, Control_c, 0, 64, 0
4, 7250, Control_c, 0, 64, 127
4, 7680, Control_c, 0, 64, 0
4, 7766, Control_c, 0, 64, 127
4, 8170, Control_c, 0, 64, 0
4, 8275, Control_c, 0, 64, 127
4, 8570, Control_c, 0, 64, 0
4, 8965, Control_c, 0, 64, 127
4, 9133, Control_c, 0, 64, 0
4, 9254, Control_c, 0, 64, 127
4, 9607, Control_c, 0, 64, 0
4, 9692, Control_c, 0, 64, 127
4, 10091, Control_c, 0, 64, 0
4, 10172, Control_c, 0, 64, 127
4, 10560, Control_c, 0, 64, 0
4, 10645, Control_c, 0, 64, 127
4, 10808, Control_c, 0, 64, 0
4, 10913, Control_c, 0, 64, 127
4, 12247, Control_c, 0, 64, 0
4, 12805, Control_c, 0, 64, 127
4, 12968, Control_c, 0, 64, 0
4, 13094, Control_c, 0, 64, 127
4, 13447, Control_c, 0, 64, 0
4, 13532, Control_c, 0, 64, 127
4, 13931, Control_c, 0, 64, 0
4, 14012, Control_c, 0, 64, 127
4, 14400, Control_c, 0, 64, 0
4, 14492, Control_c, 0, 64, 127
4, 14647, Control_c, 0, 64, 0
4, 14753, Control_c, 0, 64, 127
4, 16080, Control_c, 0, 64, 0
4, 18286, Control_c, 0, 64, 127
4, 18732, Control_c, 0, 64, 0
4, 18846, Control_c, 0, 64, 127
4, 18970, Control_c, 0, 64, 0
4, 19052, Control_c, 0, 64, 127
4, 19161, Control_c, 0, 64, 0
4, 19246, Control_c, 0, 64, 127
4, 19692, Control_c, 0, 64, 0
4, 19806, Control_c, 0, 64, 127
4, 19930, Control_c, 0, 64, 0
4, 20012, Control_c, 0, 64, 127
4, 20107, Control_c, 0, 64, 0
4, 20160, Control_c, 0, 64, 127
4, 20647, Control_c, 0, 64, 0
4, 20690, Control_c, 0, 64, 127
4, 21120, Control_c, 0, 64, 0
4, 21206, Control_c, 0, 64, 127
4, 21610, Control_c, 0, 64, 0
4, 21715, Control_c, 0, 64, 127
4, 22010, Control_c, 0, 64, 0
4, 22405, Control_c, 0, 64, 127
4, 22573, Control_c, 0, 64, 0
4, 22694, Control_c, 0, 64, 127
4, 23047, Control_c, 0, 64, 0
4, 23132, Control_c, 0, 64, 127
4, 23531, Control_c, 0, 64, 0
4, 23612, Control_c, 0, 64, 127
4, 24000, Control_c, 0, 64, 0
4, 24085, Control_c, 0, 64, 127
4, 24248, Control_c, 0, 64, 0
4, 24353, Control_c, 0, 64, 127
4, 25687, Control_c, 0, 64, 0
4, 26245, Control_c, 0, 64, 127
4, 26408, Control_c, 0, 64, 0
4, 26534, Control_c, 0, 64, 127
4, 26887, Control_c, 0, 64, 0
4, 26972, Control_c, 0, 64, 127
4, 27371, Control_c, 0, 64, 0
4, 27452, Control_c, 0, 64, 127
4, 27840, Control_c, 0, 64, 0
4, 27932, Control_c, 0, 64, 127
4, 28087, Control_c, 0, 64, 0
4, 28193, Control_c, 0, 64, 127
4, 29520, Control_c, 0, 64, 0
4, 31726, Control_c, 0, 64, 127
4, 32172, Control_c, 0, 64, 0
4, 32286, Control_c, 0, 64, 127
4, 32410, Control_c, 0, 64, 0
4, 32492, Control_c, 0, 64, 127
4, 32601, Control_c, 0, 64, 0
4, 32686, Control_c, 0, 64, 127
4, 33132, Control_c, 0, 64, 0
4, 33246, Control_c, 0, 64, 127
4, 33370, Control_c, 0, 64, 0
4, 33452, Control_c, 0, 64, 127
4, 33547, Control_c, 0, 64, 0
4, 33600, Control_c, 0, 64, 127
4, 34087, Control_c, 0, 64, 0
4, 34130, Control_c, 0, 64, 127
4, 34560, Control_c, 0, 64, 0
4, 34646, Control_c, 0, 64, 127
4, 35052, Control_c, 0, 64, 0
4, 35155, Control_c, 0, 64, 127
4, 35520, Control_c, 0, 64, 0
4, 35520, End_track
5, 0, Start_track
5, 0, Title_t, "Grieg: Lyric pieces Book II Opus 38 No. 4 - Halling"
5, 0, End_track
6, 0, Start_track
6, 0, Title_t, "Copyright © 2007 by Bernd Krueger"
6, 0, End_track
7, 0, Start_track
7, 0, Title_t, "http://www.piano-midi.de/"
7, 0, End_track
8, 0, Start_track
8, 0, Title_t, "Edition: 2012-11-03"
8, 0, End_track
9, 0, Start_track
9, 0, Title_t, "Spur 8"
9, 0, End_track
10, 0, Start_track
10, 0, Title_t, "Spur 9"
10, 0, End_track
11, 0, Start_track
11, 0, Title_t, "Spur 10"
11, 0, End_track
12, 0, Start_track
12, 0, Title_t, "Spur 11"
12, 0, End_track
13, 0, Start_track
13, 0, Title_t, "Spur 12"
13, 0, End_track
14, 0, Start_track
14, 0, Title_t, "Spur 13"
14, 0, End_track
15, 0, Start_track
15, 0, Title_t, "Spur 14"
15, 0, End_track
16, 0, Start_track
16, 0, Title_t, "Spur 15"
16, 0, End_track
17, 0, Start_track
17, 0, Title_t, "Spur 16"
17, 0, End_track
0, 0, End_of_file
