0, 0, Header, 1, 17, 480
1, 0, Start_track
1, 0, Title_t, "Grieg: Lyrische Stücke Op. 43 No. 1 - Schmetterling"
1, 0, Copyright_t, "Copyright © 2007 by Bernd Krueger"
1, 0, Text_t, "Edvard Grieg"
1, 0, Text_t, "Allegro grazioso"
1, 0, Text_t, "Erstellt: 13.5.2007\012"
1, 0, Text_t, "Update: 4.11.2012\012"
1, 0, Text_t, "Dauer: 1:37 Minuten\012"
1, 0, Time_signature, 4, 2, 24, 8
1, 0, Key_signature, 3, "major"
1, 0, Tempo, 496977
1, 461, Tempo, 467909
1, 595, Tempo, 466092
1, 710, Tempo, 464288
1, 845, Tempo, 462499
1, 960, Tempo, 460723
1, 1094, Tempo, 458961
1, 1210, Tempo, 457213
1, 1344, Tempo, 455477
1, 1459, Tempo, 455477
1, 1536, Tempo, 457213
1, 1613, Tempo, 458961
1, 1690, Tempo, 460723
1, 1800, Tempo, 505348
1, 1920, Tempo, 466092
1, 2040, Tempo, 455477
1, 2280, Tempo, 477213
1, 2520, Tempo, 452046
1, 2760, Tempo, 475323
1, 3000, Tempo, 450349
1, 3240, Tempo, 479118
1, 3480, Tempo, 450349
1, 3720, Tempo, 541859
1, 3840, Tempo, 496977
1, 4301, Tempo, 467909
1, 4435, Tempo, 466092
1, 4550, Tempo, 464288
1, 4685, Tempo, 462499
1, 4800, Tempo, 460723
1, 4934, Tempo, 458961
1, 5050, Tempo, 457213
1, 5184, Tempo, 455477
1, 5299, Tempo, 455477
1, 5376, Tempo, 457213
1, 5453, Tempo, 458961
1, 5530, Tempo, 460723
1, 5640, Tempo, 549300
1, 5760, Tempo, 496977
1, 6221, Tempo, 467909
1, 6355, Tempo, 466092
1, 6470, Tempo, 464288
1, 6605, Tempo, 462499
1, 6720, Tempo, 460723
1, 6854, Tempo, 458961
1, 6970, Tempo, 457213
1, 7104, Tempo, 455477
1, 7219, Tempo, 455477
1, 7296, Tempo, 457213
1, 7373, Tempo, 458961
1, 7450, Tempo, 460723
1, 7560, Tempo, 505348
1, 7680, Tempo, 466092
1, 7800, Tempo, 455477
1, 8040, Tempo, 477213
1, 8280, Tempo, 452046
1, 8520, Tempo, 490878
1, 8760, Tempo, 467909
1, 9000, Tempo, 501128
1, 9240, Tempo, 481039
1, 9480, Tempo, 541859
1, 9600, Tempo, 527565
1, 9720, Tempo, 516218
1, 9960, Tempo, 578425
1, 10200, Tempo, 546797
1, 10440, Tempo, 613936
1, 10680, Tempo, 575650
1, 10920, Tempo, 664967
1, 11520, Tempo, 496977
1, 11981, Tempo, 467909
1, 12115, Tempo, 466092
1, 12230, Tempo, 464288
1, 12365, Tempo, 462499
1, 12480, Tempo, 460723
1, 12614, Tempo, 458961
1, 12730, Tempo, 457213
1, 12864, Tempo, 455477
1, 12979, Tempo, 455477
1, 13056, Tempo, 457213
1, 13133, Tempo, 458961
1, 13210, Tempo, 460723
1, 13320, Tempo, 505348
1, 13440, Tempo, 466092
1, 13560, Tempo, 455477
1, 13800, Tempo, 477213
1, 14040, Tempo, 452046
1, 14280, Tempo, 475323
1, 14520, Tempo, 450349
1, 14760, Tempo, 479118
1, 15000, Tempo, 450349
1, 15240, Tempo, 541859
1, 15360, Tempo, 496977
1, 15821, Tempo, 467909
1, 15955, Tempo, 466092
1, 16070, Tempo, 464288
1, 16205, Tempo, 462499
1, 16320, Tempo, 460723
1, 16454, Tempo, 458961
1, 16570, Tempo, 457213
1, 16704, Tempo, 455477
1, 16819, Tempo, 455477
1, 16896, Tempo, 457213
1, 16973, Tempo, 458961
1, 17050, Tempo, 460723
1, 17160, Tempo, 549300
1, 17280, Tempo, 496977
1, 17741, Tempo, 467909
1, 17875, Tempo, 466092
1, 17990, Tempo, 464288
1, 18125, Tempo, 462499
1, 18240, Tempo, 460723
1, 18374, Tempo, 458961
1, 18490, Tempo, 457213
1, 18624, Tempo, 455477
1, 18739, Tempo, 455477
1, 18816, Tempo, 457213
1, 18893, Tempo, 458961
1, 18970, Tempo, 460723
1, 19080, Tempo, 505348
1, 19200, Tempo, 466092
1, 19320, Tempo, 455477
1, 19560, Tempo, 477213
1, 19800, Tempo, 452046
1, 20040, Tempo, 490878
1, 20280, Tempo, 467909
1, 20520, Tempo, 501128
1, 20760, Tempo, 481039
1, 21000, Tempo, 541859
1, 21120, Tempo, 527565
1, 21240, Tempo, 516218
1, 21480, Tempo, 578425
1, 21720, Tempo, 546797
1, 21960, Tempo, 613936
1, 22200, Tempo, 575650
1, 22440, Tempo, 912825
1, 23040, Tempo, 525256
1, 23549, Tempo, 482975
1, 23607, Tempo, 479118
1, 23664, Tempo, 477213
1, 23703, Tempo, 475323
1, 23760, Tempo, 473447
1, 23799, Tempo, 471587
1, 23856, Tempo, 469741
1, 23895, Tempo, 467909
1, 23952, Tempo, 466092
1, 23991, Tempo, 464288
1, 24048, Tempo, 462499
1, 24087, Tempo, 460723
1, 24144, Tempo, 458961
1, 24183, Tempo, 457213
1, 24240, Tempo, 455477
1, 24279, Tempo, 453755
1, 24336, Tempo, 452046
1, 24375, Tempo, 450349
1, 24432, Tempo, 448665
1, 24451, Tempo, 446994
1, 24528, Tempo, 448665
1, 24605, Tempo, 450349
1, 24663, Tempo, 452046
1, 24739, Tempo, 453755
1, 24797, Tempo, 455477
1, 24840, Tempo, 505348
1, 24960, Tempo, 482975
1, 25080, Tempo, 466092
1, 25320, Tempo, 488878
1, 25560, Tempo, 464288
1, 25800, Tempo, 484927
1, 26040, Tempo, 464288
1, 26280, Tempo, 486894
1, 26520, Tempo, 462499
1, 26760, Tempo, 541859
1, 26880, Tempo, 486894
1, 27000, Tempo, 473447
1, 27240, Tempo, 492894
1, 27480, Tempo, 514007
1, 27720, Tempo, 507485
1, 27960, Tempo, 486894
1, 28200, Tempo, 499043
1, 28440, Tempo, 492894
1, 28680, Tempo, 541859
1, 28970, Tempo, 534616
1, 29028, Tempo, 532245
1, 29086, Tempo, 529895
1, 29143, Tempo, 527565
1, 29182, Tempo, 525256
1, 29239, Tempo, 522967
1, 29297, Tempo, 520698
1, 29354, Tempo, 518448
1, 29393, Tempo, 516218
1, 29450, Tempo, 514007
1, 29508, Tempo, 511814
1, 29566, Tempo, 509641
1, 29604, Tempo, 507485
1, 29640, Tempo, 598623
1, 29760, Tempo, 544316
1, 29916, Tempo, 532245
1, 29993, Tempo, 529895
1, 30070, Tempo, 527565
1, 30127, Tempo, 525256
1, 30204, Tempo, 522967
1, 30262, Tempo, 520698
1, 30338, Tempo, 518448
1, 30396, Tempo, 516218
1, 30473, Tempo, 514007
1, 30530, Tempo, 511814
1, 30600, Tempo, 592710
1, 30720, Tempo, 525256
1, 31229, Tempo, 482975
1, 31287, Tempo, 479118
1, 31344, Tempo, 477213
1, 31383, Tempo, 475323
1, 31440, Tempo, 473447
1, 31479, Tempo, 471587
1, 31536, Tempo, 469741
1, 31575, Tempo, 467909
1, 31632, Tempo, 466092
1, 31671, Tempo, 464288
1, 31728, Tempo, 462499
1, 31767, Tempo, 460723
1, 31824, Tempo, 458961
1, 31863, Tempo, 457213
1, 31920, Tempo, 455477
1, 31959, Tempo, 453755
1, 32016, Tempo, 452046
1, 32055, Tempo, 450349
1, 32112, Tempo, 448665
1, 32131, Tempo, 446994
1, 32208, Tempo, 448665
1, 32285, Tempo, 450349
1, 32343, Tempo, 452046
1, 32419, Tempo, 453755
1, 32477, Tempo, 455477
1, 32520, Tempo, 505348
1, 32640, Tempo, 482975
1, 32760, Tempo, 466092
1, 33000, Tempo, 488878
1, 33240, Tempo, 464288
1, 33480, Tempo, 484927
1, 33720, Tempo, 464288
1, 33960, Tempo, 486894
1, 34200, Tempo, 462499
1, 34440, Tempo, 541859
1, 34560, Tempo, 486894
1, 34680, Tempo, 473447
1, 34920, Tempo, 492894
1, 35160, Tempo, 514007
1, 35400, Tempo, 507485
1, 35640, Tempo, 486894
1, 35880, Tempo, 499043
1, 36120, Tempo, 492894
1, 36360, Tempo, 584055
1, 36480, Tempo, 529895
1, 36600, Tempo, 511814
1, 36840, Tempo, 525256
1, 37080, Tempo, 546797
1, 37320, Tempo, 532245
1, 37560, Tempo, 518448
1, 37800, Tempo, 541859
1, 38040, Tempo, 527565
1, 38280, Tempo, 572902
1, 38400, Tempo, 541859
1, 38544, Tempo, 527565
1, 38602, Tempo, 525256
1, 38640, Tempo, 522967
1, 38679, Tempo, 520698
1, 38717, Tempo, 518448
1, 38755, Tempo, 516218
1, 38794, Tempo, 514007
1, 38832, Tempo, 511814
1, 38871, Tempo, 509641
1, 38928, Tempo, 507485
1, 38967, Tempo, 505348
1, 39005, Tempo, 503229
1, 39043, Tempo, 501128
1, 39082, Tempo, 499043
1, 39120, Tempo, 496977
1, 39159, Tempo, 494927
1, 39197, Tempo, 492894
1, 39204, Tempo, 507485
1, 39240, Tempo, 598623
1, 39360, Tempo, 544316
1, 39516, Tempo, 532245
1, 39523, Tempo, 516218
1, 39581, Tempo, 514007
1, 39619, Tempo, 511814
1, 39677, Tempo, 509641
1, 39715, Tempo, 507485
1, 39773, Tempo, 505348
1, 39811, Tempo, 503229
1, 39850, Tempo, 501128
1, 39907, Tempo, 499043
1, 39946, Tempo, 496977
1, 40003, Tempo, 494927
1, 40042, Tempo, 492894
1, 40099, Tempo, 490878
1, 40138, Tempo, 488878
1, 40176, Tempo, 486894
1, 40200, Tempo, 592710
1, 40320, Tempo, 572902
1, 40464, Tempo, 514007
1, 40541, Tempo, 516218
1, 40599, Tempo, 518448
1, 40675, Tempo, 520698
1, 40733, Tempo, 522967
1, 40810, Tempo, 525256
1, 40867, Tempo, 527565
1, 40944, Tempo, 529895
1, 41002, Tempo, 532245
1, 41079, Tempo, 534616
1, 41136, Tempo, 537009
1, 41160, Tempo, 570180
1, 41280, Tempo, 575650
1, 41405, Tempo, 516218
1, 41443, Tempo, 518448
1, 41482, Tempo, 520698
1, 41520, Tempo, 520698
1, 41559, Tempo, 522967
1, 41578, Tempo, 525256
1, 41616, Tempo, 527565
1, 41635, Tempo, 529895
1, 41674, Tempo, 532245
1, 41712, Tempo, 534616
1, 41731, Tempo, 537009
1, 41770, Tempo, 539423
1, 41789, Tempo, 541859
1, 41827, Tempo, 544316
1, 41847, Tempo, 546797
1, 41885, Tempo, 549300
1, 41923, Tempo, 551826
1, 41943, Tempo, 554375
1, 41981, Tempo, 556948
1, 42000, Tempo, 559545
1, 42039, Tempo, 562166
1, 42058, Tempo, 564812
1, 42240, Tempo, 496977
1, 42701, Tempo, 467909
1, 42835, Tempo, 466092
1, 42950, Tempo, 464288
1, 43085, Tempo, 462499
1, 43200, Tempo, 460723
1, 43334, Tempo, 458961
1, 43450, Tempo, 457213
1, 43584, Tempo, 455477
1, 43699, Tempo, 455477
1, 43776, Tempo, 457213
1, 43853, Tempo, 458961
1, 43930, Tempo, 460723
1, 44040, Tempo, 505348
1, 44160, Tempo, 466092
1, 44280, Tempo, 455477
1, 44520, Tempo, 477213
1, 44760, Tempo, 452046
1, 45000, Tempo, 475323
1, 45240, Tempo, 450349
1, 45480, Tempo, 479118
1, 45720, Tempo, 450349
1, 45960, Tempo, 541859
1, 46080, Tempo, 496977
1, 46541, Tempo, 467909
1, 46675, Tempo, 466092
1, 46790, Tempo, 464288
1, 46925, Tempo, 462499
1, 47040, Tempo, 460723
1, 47174, Tempo, 458961
1, 47290, Tempo, 457213
1, 47424, Tempo, 455477
1, 47539, Tempo, 455477
1, 47616, Tempo, 457213
1, 47693, Tempo, 458961
1, 47770, Tempo, 460723
1, 47880, Tempo, 549300
1, 48000, Tempo, 496977
1, 48461, Tempo, 467909
1, 48595, Tempo, 466092
1, 48710, Tempo, 464288
1, 48845, Tempo, 462499
1, 48960, Tempo, 460723
1, 49094, Tempo, 458961
1, 49210, Tempo, 457213
1, 49344, Tempo, 455477
1, 49459, Tempo, 455477
1, 49536, Tempo, 457213
1, 49613, Tempo, 458961
1, 49690, Tempo, 460723
1, 49800, Tempo, 505348
1, 49920, Tempo, 496977
1, 50381, Tempo, 467909
1, 50515, Tempo, 466092
1, 50630, Tempo, 464288
1, 50765, Tempo, 462499
1, 50880, Tempo, 460723
1, 51014, Tempo, 458961
1, 51130, Tempo, 457213
1, 51264, Tempo, 455477
1, 51379, Tempo, 455477
1, 51456, Tempo, 457213
1, 51533, Tempo, 458961
1, 51610, Tempo, 460723
1, 51720, Tempo, 505348
1, 51840, Tempo, 466092
1, 51960, Tempo, 455477
1, 52200, Tempo, 477213
1, 52440, Tempo, 452046
1, 52680, Tempo, 490878
1, 52920, Tempo, 467909
1, 53160, Tempo, 501128
1, 53400, Tempo, 481039
1, 53640, Tempo, 541859
1, 53760, Tempo, 527565
1, 53880, Tempo, 516218
1, 54120, Tempo, 578425
1, 54360, Tempo, 546797
1, 54600, Tempo, 613936
1, 54840, Tempo, 575650
1, 55080, Tempo, 664967
1, 55680, Tempo, 525256
1, 56189, Tempo, 482975
1, 56247, Tempo, 479118
1, 56304, Tempo, 477213
1, 56343, Tempo, 475323
1, 56400, Tempo, 473447
1, 56439, Tempo, 471587
1, 56496, Tempo, 469741
1, 56535, Tempo, 467909
1, 56592, Tempo, 466092
1, 56631, Tempo, 464288
1, 56688, Tempo, 462499
1, 56727, Tempo, 460723
1, 56784, Tempo, 458961
1, 56823, Tempo, 457213
1, 56880, Tempo, 455477
1, 56919, Tempo, 453755
1, 56976, Tempo, 452046
1, 57015, Tempo, 450349
1, 57072, Tempo, 448665
1, 57091, Tempo, 446994
1, 57168, Tempo, 448665
1, 57245, Tempo, 450349
1, 57303, Tempo, 452046
1, 57379, Tempo, 453755
1, 57437, Tempo, 455477
1, 57480, Tempo, 505348
1, 57600, Tempo, 482975
1, 57720, Tempo, 466092
1, 57960, Tempo, 488878
1, 58200, Tempo, 464288
1, 58440, Tempo, 484927
1, 58680, Tempo, 464288
1, 58920, Tempo, 486894
1, 59160, Tempo, 462499
1, 59400, Tempo, 541859
1, 59520, Tempo, 486894
1, 59640, Tempo, 473447
1, 59880, Tempo, 492894
1, 60120, Tempo, 514007
1, 60360, Tempo, 507485
1, 60600, Tempo, 486894
1, 60840, Tempo, 499043
1, 61080, Tempo, 492894
1, 61320, Tempo, 541859
1, 61610, Tempo, 534616
1, 61668, Tempo, 532245
1, 61726, Tempo, 529895
1, 61783, Tempo, 527565
1, 61822, Tempo, 525256
1, 61879, Tempo, 522967
1, 61937, Tempo, 520698
1, 61994, Tempo, 518448
1, 62033, Tempo, 516218
1, 62090, Tempo, 514007
1, 62148, Tempo, 511814
1, 62206, Tempo, 509641
1, 62244, Tempo, 507485
1, 62280, Tempo, 598623
1, 62400, Tempo, 544316
1, 62556, Tempo, 532245
1, 62633, Tempo, 529895
1, 62710, Tempo, 527565
1, 62767, Tempo, 525256
1, 62844, Tempo, 522967
1, 62902, Tempo, 520698
1, 62978, Tempo, 518448
1, 63036, Tempo, 516218
1, 63113, Tempo, 514007
1, 63170, Tempo, 511814
1, 63240, Tempo, 592710
1, 63360, Tempo, 525256
1, 63869, Tempo, 482975
1, 63927, Tempo, 479118
1, 63984, Tempo, 477213
1, 64023, Tempo, 475323
1, 64080, Tempo, 473447
1, 64119, Tempo, 471587
1, 64176, Tempo, 469741
1, 64215, Tempo, 467909
1, 64272, Tempo, 466092
1, 64311, Tempo, 464288
1, 64368, Tempo, 462499
1, 64407, Tempo, 460723
1, 64464, Tempo, 458961
1, 64503, Tempo, 457213
1, 64560, Tempo, 455477
1, 64599, Tempo, 453755
1, 64656, Tempo, 452046
1, 64695, Tempo, 450349
1, 64752, Tempo, 448665
1, 64771, Tempo, 446994
1, 64848, Tempo, 448665
1, 64925, Tempo, 450349
1, 64983, Tempo, 452046
1, 65059, Tempo, 453755
1, 65117, Tempo, 455477
1, 65160, Tempo, 505348
1, 65280, Tempo, 482975
1, 65400, Tempo, 466092
1, 65640, Tempo, 488878
1, 65880, Tempo, 464288
1, 66120, Tempo, 484927
1, 66360, Tempo, 464288
1, 66600, Tempo, 486894
1, 66840, Tempo, 462499
1, 67080, Tempo, 541859
1, 67200, Tempo, 486894
1, 67320, Tempo, 473447
1, 67560, Tempo, 492894
1, 67800, Tempo, 514007
1, 68040, Tempo, 507485
1, 68280, Tempo, 486894
1, 68520, Tempo, 499043
1, 68760, Tempo, 492894
1, 69000, Tempo, 584055
1, 69120, Tempo, 529895
1, 69240, Tempo, 511814
1, 69480, Tempo, 525256
1, 69720, Tempo, 546797
1, 69960, Tempo, 532245
1, 70200, Tempo, 518448
1, 70440, Tempo, 541859
1, 70680, Tempo, 527565
1, 70920, Tempo, 572902
1, 71040, Tempo, 541859
1, 71184, Tempo, 527565
1, 71242, Tempo, 525256
1, 71280, Tempo, 522967
1, 71319, Tempo, 520698
1, 71357, Tempo, 518448
1, 71395, Tempo, 516218
1, 71434, Tempo, 514007
1, 71472, Tempo, 511814
1, 71511, Tempo, 509641
1, 71568, Tempo, 507485
1, 71607, Tempo, 505348
1, 71645, Tempo, 503229
1, 71683, Tempo, 501128
1, 71722, Tempo, 499043
1, 71760, Tempo, 496977
1, 71799, Tempo, 494927
1, 71837, Tempo, 492894
1, 71844, Tempo, 507485
1, 71880, Tempo, 598623
1, 72000, Tempo, 544316
1, 72156, Tempo, 532245
1, 72163, Tempo, 516218
1, 72221, Tempo, 514007
1, 72259, Tempo, 511814
1, 72317, Tempo, 509641
1, 72355, Tempo, 507485
1, 72413, Tempo, 505348
1, 72451, Tempo, 503229
1, 72490, Tempo, 501128
1, 72547, Tempo, 499043
1, 72586, Tempo, 496977
1, 72643, Tempo, 494927
1, 72682, Tempo, 492894
1, 72739, Tempo, 490878
1, 72778, Tempo, 488878
1, 72816, Tempo, 486894
1, 72840, Tempo, 592710
1, 72960, Tempo, 572902
1, 73104, Tempo, 514007
1, 73181, Tempo, 516218
1, 73239, Tempo, 518448
1, 73315, Tempo, 520698
1, 73373, Tempo, 522967
1, 73450, Tempo, 525256
1, 73507, Tempo, 527565
1, 73584, Tempo, 529895
1, 73642, Tempo, 532245
1, 73719, Tempo, 534616
1, 73776, Tempo, 537009
1, 73800, Tempo, 570180
1, 73920, Tempo, 575650
1, 74045, Tempo, 516218
1, 74083, Tempo, 518448
1, 74122, Tempo, 520698
1, 74160, Tempo, 520698
1, 74199, Tempo, 522967
1, 74218, Tempo, 525256
1, 74256, Tempo, 527565
1, 74275, Tempo, 529895
1, 74314, Tempo, 532245
1, 74352, Tempo, 534616
1, 74371, Tempo, 537009
1, 74410, Tempo, 539423
1, 74429, Tempo, 541859
1, 74467, Tempo, 544316
1, 74487, Tempo, 546797
1, 74525, Tempo, 549300
1, 74563, Tempo, 551826
1, 74583, Tempo, 554375
1, 74621, Tempo, 556948
1, 74640, Tempo, 559545
1, 74679, Tempo, 562166
1, 74698, Tempo, 564812
1, 74880, Tempo, 496977
1, 75341, Tempo, 467909
1, 75475, Tempo, 466092
1, 75590, Tempo, 464288
1, 75725, Tempo, 462499
1, 75840, Tempo, 460723
1, 75974, Tempo, 458961
1, 76090, Tempo, 457213
1, 76224, Tempo, 455477
1, 76339, Tempo, 455477
1, 76416, Tempo, 457213
1, 76493, Tempo, 458961
1, 76570, Tempo, 460723
1, 76680, Tempo, 505348
1, 76800, Tempo, 466092
1, 76920, Tempo, 455477
1, 77160, Tempo, 477213
1, 77400, Tempo, 452046
1, 77640, Tempo, 475323
1, 77880, Tempo, 450349
1, 78120, Tempo, 479118
1, 78360, Tempo, 450349
1, 78600, Tempo, 541859
1, 78720, Tempo, 496977
1, 79181, Tempo, 467909
1, 79315, Tempo, 466092
1, 79430, Tempo, 464288
1, 79565, Tempo, 462499
1, 79680, Tempo, 460723
1, 79814, Tempo, 458961
1, 79930, Tempo, 457213
1, 80064, Tempo, 455477
1, 80179, Tempo, 455477
1, 80256, Tempo, 457213
1, 80333, Tempo, 458961
1, 80410, Tempo, 460723
1, 80520, Tempo, 549300
1, 80640, Tempo, 496977
1, 81101, Tempo, 467909
1, 81235, Tempo, 466092
1, 81350, Tempo, 464288
1, 81485, Tempo, 462499
1, 81600, Tempo, 460723
1, 81734, Tempo, 458961
1, 81850, Tempo, 457213
1, 81984, Tempo, 455477
1, 82099, Tempo, 455477
1, 82176, Tempo, 457213
1, 82253, Tempo, 458961
1, 82330, Tempo, 460723
1, 82440, Tempo, 505348
1, 82560, Tempo, 496977
1, 83021, Tempo, 467909
1, 83155, Tempo, 466092
1, 83270, Tempo, 464288
1, 83405, Tempo, 462499
1, 83520, Tempo, 460723
1, 83654, Tempo, 458961
1, 83770, Tempo, 457213
1, 83904, Tempo, 455477
1, 84019, Tempo, 455477
1, 84096, Tempo, 457213
1, 84173, Tempo, 458961
1, 84250, Tempo, 460723
1, 84360, Tempo, 505348
1, 84480, Tempo, 466092
1, 84600, Tempo, 455477
1, 84840, Tempo, 477213
1, 85080, Tempo, 452046
1, 85320, Tempo, 490878
1, 85560, Tempo, 467909
1, 85800, Tempo, 501128
1, 86040, Tempo, 481039
1, 86280, Tempo, 541859
1, 86400, Tempo, 527565
1, 86520, Tempo, 516218
1, 86760, Tempo, 578425
1, 87000, Tempo, 546797
1, 87240, Tempo, 613936
1, 87360, Tempo, 567483
1, 88320, Tempo, 551826
1, 88440, Tempo, 505348
1, 88680, Tempo, 549300
1, 88800, Tempo, 556948
1, 88920, Tempo, 516218
1, 89160, Tempo, 575650
1, 89400, Tempo, 529895
1, 89640, Tempo, 581226
1, 89880, Tempo, 534616
1, 90120, Tempo, 607718
1, 90240, Tempo, 601624
1, 90360, Tempo, 570180
1, 90600, Tempo, 650548
1, 90840, Tempo, 589797
1, 91080, Tempo, 668673
1, 91320, Tempo, 630054
1, 91560, Tempo, 1679261
1, 91560, End_track
2, 0, Start_track
2, 0, Title_t, "Piano right"
2, 0, Program_c, 0, 0
2, 0, Note_on_c, 0, 78, 54
2, 360, Note_on_c, 0, 78, 0
2, 360, Note_on_c, 0, 68, 48
2, 480, Note_on_c, 0, 68, 0
2, 480, Note_on_c, 0, 69, 51
2, 600, Note_on_c, 0, 69, 0
2, 600, Note_on_c, 0, 70, 52
2, 720, Note_on_c, 0, 70, 0
2, 720, Note_on_c, 0, 71, 53
2, 840, Note_on_c, 0, 71, 0
2, 840, Note_on_c, 0, 72, 55
2, 960, Note_on_c, 0, 72, 0
2, 960, Note_on_c, 0, 73, 56
2, 1080, Note_on_c, 0, 73, 0
2, 1080, Note_on_c, 0, 74, 57
2, 1200, Note_on_c, 0, 74, 0
2, 1200, Note_on_c, 0, 75, 58
2, 1320, Note_on_c, 0, 75, 0
2, 1320, Note_on_c, 0, 76, 59
2, 1440, Note_on_c, 0, 76, 0
2, 1440, Note_on_c, 0, 81, 69
2, 1560, Note_on_c, 0, 81, 0
2, 1560, Note_on_c, 0, 76, 60
2, 1680, Note_on_c, 0, 76, 0
2, 1680, Note_on_c, 0, 73, 62
2, 1800, Note_on_c, 0, 73, 0
2, 1800, Note_on_c, 0, 69, 60
2, 1920, Note_on_c, 0, 69, 0
2, 1920, Note_on_c, 0, 67, 68
2, 2280, Note_on_c, 0, 67, 0
2, 2280, Note_on_c, 0, 76, 49
2, 2400, Note_on_c, 0, 76, 0
2, 2400, Note_on_c, 0, 68, 69
2, 2760, Note_on_c, 0, 68, 0
2, 2760, Note_on_c, 0, 76, 49
2, 2880, Note_on_c, 0, 76, 0
2, 2880, Note_on_c, 0, 67, 70
2, 3240, Note_on_c, 0, 67, 0
2, 3240, Note_on_c, 0, 76, 47
2, 3360, Note_on_c, 0, 76, 0
2, 3360, Note_on_c, 0, 68, 69
2, 3720, Note_on_c, 0, 68, 0
2, 3720, Note_on_c, 0, 77, 49
2, 3840, Note_on_c, 0, 77, 0
2, 3840, Note_on_c, 0, 78, 67
2, 4200, Note_on_c, 0, 78, 0
2, 4200, Note_on_c, 0, 68, 54
2, 4320, Note_on_c, 0, 68, 0
2, 4320, Note_on_c, 0, 69, 53
2, 4440, Note_on_c, 0, 69, 0
2, 4440, Note_on_c, 0, 70, 54
2, 4560, Note_on_c, 0, 70, 0
2, 4560, Note_on_c, 0, 71, 55
2, 4680, Note_on_c, 0, 71, 0
2, 4680, Note_on_c, 0, 72, 57
2, 4800, Note_on_c, 0, 72, 0
2, 4800, Note_on_c, 0, 73, 58
2, 4920, Note_on_c, 0, 73, 0
2, 4920, Note_on_c, 0, 74, 60
2, 5040, Note_on_c, 0, 74, 0
2, 5040, Note_on_c, 0, 75, 61
2, 5160, Note_on_c, 0, 75, 0
2, 5160, Note_on_c, 0, 76, 63
2, 5280, Note_on_c, 0, 76, 0
2, 5280, Note_on_c, 0, 81, 69
2, 5400, Note_on_c, 0, 81, 0
2, 5400, Note_on_c, 0, 76, 60
2, 5520, Note_on_c, 0, 76, 0
2, 5520, Note_on_c, 0, 73, 62
2, 5640, Note_on_c, 0, 73, 0
2, 5640, Note_on_c, 0, 69, 60
2, 5760, Note_on_c, 0, 69, 0
2, 5760, Note_on_c, 0, 85, 76
2, 6120, Note_on_c, 0, 85, 0
2, 6120, Note_on_c, 0, 75, 60
2, 6240, Note_on_c, 0, 75, 0
2, 6240, Note_on_c, 0, 76, 59
2, 6360, Note_on_c, 0, 76, 0
2, 6360, Note_on_c, 0, 77, 61
2, 6480, Note_on_c, 0, 77, 0
2, 6480, Note_on_c, 0, 78, 63
2, 6600, Note_on_c, 0, 78, 0
2, 6600, Note_on_c, 0, 79, 66
2, 6720, Note_on_c, 0, 79, 0
2, 6720, Note_on_c, 0, 80, 67
2, 6840, Note_on_c, 0, 80, 0
2, 6840, Note_on_c, 0, 81, 70
2, 6960, Note_on_c, 0, 81, 0
2, 6960, Note_on_c, 0, 82, 72
2, 7080, Note_on_c, 0, 82, 0
2, 7080, Note_on_c, 0, 83, 75
2, 7200, Note_on_c, 0, 83, 0
2, 7200, Note_on_c, 0, 88, 83
2, 7320, Note_on_c, 0, 88, 0
2, 7320, Note_on_c, 0, 83, 73
2, 7440, Note_on_c, 0, 83, 0
2, 7440, Note_on_c, 0, 80, 76
2, 7560, Note_on_c, 0, 80, 0
2, 7560, Note_on_c, 0, 76, 74
2, 7680, Note_on_c, 0, 76, 0
2, 7680, Note_on_c, 0, 71, 78
2, 8040, Note_on_c, 0, 71, 0
2, 8040, Note_on_c, 0, 80, 55
2, 8160, Note_on_c, 0, 80, 0
2, 8160, Note_on_c, 0, 68, 77
2, 8520, Note_on_c, 0, 68, 0
2, 8520, Note_on_c, 0, 76, 50
2, 8640, Note_on_c, 0, 76, 0
2, 8640, Note_on_c, 0, 64, 68
2, 9000, Note_on_c, 0, 64, 0
2, 9000, Note_on_c, 0, 73, 43
2, 9120, Note_on_c, 0, 73, 0
2, 9120, Note_on_c, 0, 61, 61
2, 9480, Note_on_c, 0, 61, 0
2, 9480, Note_on_c, 0, 70, 39
2, 9600, Note_on_c, 0, 70, 0
2, 9600, Note_on_c, 0, 60, 53
2, 9960, Note_on_c, 0, 60, 0
2, 9960, Note_on_c, 0, 69, 36
2, 10080, Note_on_c, 0, 69, 0
2, 10080, Note_on_c, 0, 57, 50
2, 10440, Note_on_c, 0, 57, 0
2, 10440, Note_on_c, 0, 66, 32
2, 10560, Note_on_c, 0, 66, 0
2, 10560, Note_on_c, 0, 56, 47
2, 10920, Note_on_c, 0, 56, 0
2, 10920, Note_on_c, 0, 64, 37
2, 11040, Note_on_c, 0, 64, 0
2, 11520, Note_on_c, 0, 78, 53
2, 11880, Note_on_c, 0, 78, 0
2, 11880, Note_on_c, 0, 68, 48
2, 12000, Note_on_c, 0, 68, 0
2, 12000, Note_on_c, 0, 69, 52
2, 12120, Note_on_c, 0, 69, 0
2, 12120, Note_on_c, 0, 70, 53
2, 12240, Note_on_c, 0, 70, 0
2, 12240, Note_on_c, 0, 71, 54
2, 12360, Note_on_c, 0, 71, 0
2, 12360, Note_on_c, 0, 72, 55
2, 12480, Note_on_c, 0, 72, 0
2, 12480, Note_on_c, 0, 73, 56
2, 12600, Note_on_c, 0, 73, 0
2, 12600, Note_on_c, 0, 74, 58
2, 12720, Note_on_c, 0, 74, 0
2, 12720, Note_on_c, 0, 75, 59
2, 12840, Note_on_c, 0, 75, 0
2, 12840, Note_on_c, 0, 76, 60
2, 12960, Note_on_c, 0, 76, 0
2, 12960, Note_on_c, 0, 81, 69
2, 13080, Note_on_c, 0, 81, 0
2, 13080, Note_on_c, 0, 76, 60
2, 13200, Note_on_c, 0, 76, 0
2, 13200, Note_on_c, 0, 73, 62
2, 13320, Note_on_c, 0, 73, 0
2, 13320, Note_on_c, 0, 69, 60
2, 13440, Note_on_c, 0, 69, 0
2, 13440, Note_on_c, 0, 67, 68
2, 13800, Note_on_c, 0, 67, 0
2, 13800, Note_on_c, 0, 76, 49
2, 13920, Note_on_c, 0, 76, 0
2, 13920, Note_on_c, 0, 68, 69
2, 14280, Note_on_c, 0, 68, 0
2, 14280, Note_on_c, 0, 76, 50
2, 14400, Note_on_c, 0, 76, 0
2, 14400, Note_on_c, 0, 67, 70
2, 14760, Note_on_c, 0, 67, 0
2, 14760, Note_on_c, 0, 76, 49
2, 14880, Note_on_c, 0, 76, 0
2, 14880, Note_on_c, 0, 68, 69
2, 15240, Note_on_c, 0, 68, 0
2, 15240, Note_on_c, 0, 77, 45
2, 15360, Note_on_c, 0, 77, 0
2, 15360, Note_on_c, 0, 78, 67
2, 15720, Note_on_c, 0, 78, 0
2, 15720, Note_on_c, 0, 68, 54
2, 15840, Note_on_c, 0, 68, 0
2, 15840, Note_on_c, 0, 69, 53
2, 15960, Note_on_c, 0, 69, 0
2, 15960, Note_on_c, 0, 70, 54
2, 16080, Note_on_c, 0, 70, 0
2, 16080, Note_on_c, 0, 71, 55
2, 16200, Note_on_c, 0, 71, 0
2, 16200, Note_on_c, 0, 72, 57
2, 16320, Note_on_c, 0, 72, 0
2, 16320, Note_on_c, 0, 73, 58
2, 16440, Note_on_c, 0, 73, 0
2, 16440, Note_on_c, 0, 74, 60
2, 16560, Note_on_c, 0, 74, 0
2, 16560, Note_on_c, 0, 75, 61
2, 16680, Note_on_c, 0, 75, 0
2, 16680, Note_on_c, 0, 76, 63
2, 16800, Note_on_c, 0, 76, 0
2, 16800, Note_on_c, 0, 81, 69
2, 16920, Note_on_c, 0, 81, 0
2, 16920, Note_on_c, 0, 76, 60
2, 17040, Note_on_c, 0, 76, 0
2, 17040, Note_on_c, 0, 73, 62
2, 17160, Note_on_c, 0, 73, 0
2, 17160, Note_on_c, 0, 69, 60
2, 17280, Note_on_c, 0, 69, 0
2, 17280, Note_on_c, 0, 85, 76
2, 17640, Note_on_c, 0, 85, 0
2, 17640, Note_on_c, 0, 75, 60
2, 17760, Note_on_c, 0, 75, 0
2, 17760, Note_on_c, 0, 76, 59
2, 17880, Note_on_c, 0, 76, 0
2, 17880, Note_on_c, 0, 77, 61
2, 18000, Note_on_c, 0, 77, 0
2, 18000, Note_on_c, 0, 78, 63
2, 18120, Note_on_c, 0, 78, 0
2, 18120, Note_on_c, 0, 79, 66
2, 18240, Note_on_c, 0, 79, 0
2, 18240, Note_on_c, 0, 80, 67
2, 18360, Note_on_c, 0, 80, 0
2, 18360, Note_on_c, 0, 81, 70
2, 18480, Note_on_c, 0, 81, 0
2, 18480, Note_on_c, 0, 82, 72
2, 18600, Note_on_c, 0, 82, 0
2, 18600, Note_on_c, 0, 83, 75
2, 18720, Note_on_c, 0, 83, 0
2, 18720, Note_on_c, 0, 88, 83
2, 18840, Note_on_c, 0, 88, 0
2, 18840, Note_on_c, 0, 83, 73
2, 18960, Note_on_c, 0, 83, 0
2, 18960, Note_on_c, 0, 80, 76
2, 19080, Note_on_c, 0, 80, 0
2, 19080, Note_on_c, 0, 76, 74
2, 19200, Note_on_c, 0, 76, 0
2, 19200, Note_on_c, 0, 71, 78
2, 19560, Note_on_c, 0, 71, 0
2, 19560, Note_on_c, 0, 80, 55
2, 19680, Note_on_c, 0, 80, 0
2, 19680, Note_on_c, 0, 68, 77
2, 20040, Note_on_c, 0, 68, 0
2, 20040, Note_on_c, 0, 76, 49
2, 20160, Note_on_c, 0, 76, 0
2, 20160, Note_on_c, 0, 64, 68
2, 20520, Note_on_c, 0, 64, 0
2, 20520, Note_on_c, 0, 73, 42
2, 20640, Note_on_c, 0, 73, 0
2, 20640, Note_on_c, 0, 61, 60
2, 21000, Note_on_c, 0, 61, 0
2, 21000, Note_on_c, 0, 70, 37
2, 21120, Note_on_c, 0, 70, 0
2, 21120, Note_on_c, 0, 60, 53
2, 21480, Note_on_c, 0, 60, 0
2, 21480, Note_on_c, 0, 69, 34
2, 21600, Note_on_c, 0, 69, 0
2, 21600, Note_on_c, 0, 57, 49
2, 21960, Note_on_c, 0, 57, 0
2, 21960, Note_on_c, 0, 66, 30
2, 22080, Note_on_c, 0, 66, 0
2, 22080, Note_on_c, 0, 56, 46
2, 22440, Note_on_c, 0, 56, 0
2, 22440, Note_on_c, 0, 64, 36
2, 22560, Note_on_c, 0, 64, 0
2, 23040, Note_on_c, 0, 67, 60
2, 23400, Note_on_c, 0, 67, 0
2, 23400, Note_on_c, 0, 71, 54
2, 23520, Note_on_c, 0, 71, 0
2, 23520, Note_on_c, 0, 74, 58
2, 23640, Note_on_c, 0, 74, 0
2, 23640, Note_on_c, 0, 79, 54
2, 23760, Note_on_c, 0, 79, 0
2, 23760, Note_on_c, 0, 73, 60
2, 23880, Note_on_c, 0, 73, 0
2, 23880, Note_on_c, 0, 74, 57
2, 23880, Note_on_c, 0, 79, 57
2, 24000, Note_on_c, 0, 79, 0
2, 24000, Note_on_c, 0, 74, 0
2, 24000, Note_on_c, 0, 71, 63
2, 24120, Note_on_c, 0, 71, 0
2, 24120, Note_on_c, 0, 74, 60
2, 24120, Note_on_c, 0, 79, 60
2, 24240, Note_on_c, 0, 79, 0
2, 24240, Note_on_c, 0, 74, 0
2, 24240, Note_on_c, 0, 69, 65
2, 24360, Note_on_c, 0, 69, 0
2, 24360, Note_on_c, 0, 71, 63
2, 24360, Note_on_c, 0, 74, 63
2, 24480, Note_on_c, 0, 74, 0
2, 24480, Note_on_c, 0, 71, 0
2, 24480, Note_on_c, 0, 67, 69
2, 24600, Note_on_c, 0, 67, 0
2, 24600, Note_on_c, 0, 71, 60
2, 24600, Note_on_c, 0, 74, 60
2, 24720, Note_on_c, 0, 74, 0
2, 24720, Note_on_c, 0, 71, 0
2, 24720, Note_on_c, 0, 66, 69
2, 24840, Note_on_c, 0, 66, 0
2, 24840, Note_on_c, 0, 71, 60
2, 24840, Note_on_c, 0, 74, 60
2, 24960, Note_on_c, 0, 74, 0
2, 24960, Note_on_c, 0, 71, 0
2, 24960, Note_on_c, 0, 65, 73
2, 25320, Note_on_c, 0, 65, 0
2, 25320, Note_on_c, 0, 68, 45
2, 25320, Note_on_c, 0, 73, 54
2, 25440, Note_on_c, 0, 73, 0
2, 25440, Note_on_c, 0, 68, 0
2, 25440, Note_on_c, 0, 66, 69
2, 25800, Note_on_c, 0, 66, 0
2, 25800, Note_on_c, 0, 69, 45
2, 25800, Note_on_c, 0, 73, 53
2, 25920, Note_on_c, 0, 73, 0
2, 25920, Note_on_c, 0, 69, 0
2, 25920, Note_on_c, 0, 63, 70
2, 26280, Note_on_c, 0, 63, 0
2, 26280, Note_on_c, 0, 66, 42
2, 26280, Note_on_c, 0, 73, 50
2, 26400, Note_on_c, 0, 73, 0
2, 26400, Note_on_c, 0, 66, 0
2, 26400, Note_on_c, 0, 65, 69
2, 26760, Note_on_c, 0, 65, 0
2, 26760, Note_on_c, 0, 68, 41
2, 26760, Note_on_c, 0, 73, 49
2, 26880, Note_on_c, 0, 73, 0
2, 26880, Note_on_c, 0, 68, 0
2, 26880, Note_on_c, 0, 61, 66
2, 27240, Note_on_c, 0, 61, 0
2, 27240, Note_on_c, 0, 66, 26
2, 27240, Note_on_c, 0, 69, 26
2, 27240, Note_on_c, 0, 73, 42
2, 27360, Note_on_c, 0, 73, 0
2, 27360, Note_on_c, 0, 69, 0
2, 27360, Note_on_c, 0, 66, 0
2, 27360, Note_on_c, 0, 62, 61
2, 27480, Note_on_c, 0, 62, 0
2, 27480, Note_on_c, 0, 66, 26
2, 27480, Note_on_c, 0, 69, 26
2, 27480, Note_on_c, 0, 73, 42
2, 27600, Note_on_c, 0, 73, 0
2, 27600, Note_on_c, 0, 69, 0
2, 27600, Note_on_c, 0, 66, 0
2, 27600, Note_on_c, 0, 64, 62
2, 27720, Note_on_c, 0, 64, 0
2, 27720, Note_on_c, 0, 66, 27
2, 27720, Note_on_c, 0, 69, 27
2, 27720, Note_on_c, 0, 73, 43
2, 27840, Note_on_c, 0, 73, 0
2, 27840, Note_on_c, 0, 69, 0
2, 27840, Note_on_c, 0, 66, 0
2, 27840, Note_on_c, 0, 61, 63
2, 28200, Note_on_c, 0, 61, 0
2, 28200, Note_on_c, 0, 69, 23
2, 28200, Note_on_c, 0, 65, 23
2, 28200, Note_on_c, 0, 73, 38
2, 28320, Note_on_c, 0, 73, 0
2, 28320, Note_on_c, 0, 65, 0
2, 28320, Note_on_c, 0, 69, 0
2, 28320, Note_on_c, 0, 61, 62
2, 28680, Note_on_c, 0, 61, 0
2, 28680, Note_on_c, 0, 65, 26
2, 28680, Note_on_c, 0, 69, 26
2, 28680, Note_on_c, 0, 73, 42
2, 28800, Note_on_c, 0, 73, 0
2, 28800, Note_on_c, 0, 69, 0
2, 28800, Note_on_c, 0, 65, 0
2, 28800, Note_on_c, 0, 61, 62
2, 29280, Note_on_c, 0, 66, 43
2, 29400, Note_on_c, 0, 66, 0
2, 29400, Note_on_c, 0, 68, 45
2, 29520, Note_on_c, 0, 68, 0
2, 29520, Note_on_c, 0, 69, 46
2, 29640, Note_on_c, 0, 69, 0
2, 29640, Note_on_c, 0, 73, 48
2, 29760, Note_on_c, 0, 73, 0
2, 29877, Note_on_c, 0, 61, 0
2, 30240, Note_on_c, 0, 78, 46
2, 30360, Note_on_c, 0, 78, 0
2, 30360, Note_on_c, 0, 80, 48
2, 30480, Note_on_c, 0, 80, 0
2, 30480, Note_on_c, 0, 81, 50
2, 30600, Note_on_c, 0, 81, 0
2, 30600, Note_on_c, 0, 85, 52
2, 30720, Note_on_c, 0, 85, 0
2, 30720, Note_on_c, 0, 72, 60
2, 31080, Note_on_c, 0, 72, 0
2, 31080, Note_on_c, 0, 76, 54
2, 31200, Note_on_c, 0, 76, 0
2, 31200, Note_on_c, 0, 79, 58
2, 31320, Note_on_c, 0, 79, 0
2, 31320, Note_on_c, 0, 84, 54
2, 31440, Note_on_c, 0, 84, 0
2, 31440, Note_on_c, 0, 78, 60
2, 31560, Note_on_c, 0, 78, 0
2, 31560, Note_on_c, 0, 79, 57
2, 31560, Note_on_c, 0, 84, 57
2, 31680, Note_on_c, 0, 84, 0
2, 31680, Note_on_c, 0, 79, 0
2, 31680, Note_on_c, 0, 76, 63
2, 31800, Note_on_c, 0, 76, 0
2, 31800, Note_on_c, 0, 79, 60
2, 31800, Note_on_c, 0, 84, 60
2, 31920, Note_on_c, 0, 84, 0
2, 31920, Note_on_c, 0, 79, 0
2, 31920, Note_on_c, 0, 74, 65
2, 32040, Note_on_c, 0, 74, 0
2, 32040, Note_on_c, 0, 76, 63
2, 32040, Note_on_c, 0, 79, 63
2, 32160, Note_on_c, 0, 79, 0
2, 32160, Note_on_c, 0, 76, 0
2, 32160, Note_on_c, 0, 72, 69
2, 32280, Note_on_c, 0, 72, 0
2, 32280, Note_on_c, 0, 76, 60
2, 32280, Note_on_c, 0, 79, 60
2, 32400, Note_on_c, 0, 79, 0
2, 32400, Note_on_c, 0, 76, 0
2, 32400, Note_on_c, 0, 71, 69
2, 32520, Note_on_c, 0, 71, 0
2, 32520, Note_on_c, 0, 76, 60
2, 32520, Note_on_c, 0, 79, 60
2, 32640, Note_on_c, 0, 79, 0
2, 32640, Note_on_c, 0, 76, 0
2, 32640, Note_on_c, 0, 70, 73
2, 33000, Note_on_c, 0, 70, 0
2, 33000, Note_on_c, 0, 73, 45
2, 33000, Note_on_c, 0, 78, 54
2, 33120, Note_on_c, 0, 78, 0
2, 33120, Note_on_c, 0, 73, 0
2, 33120, Note_on_c, 0, 71, 69
2, 33480, Note_on_c, 0, 71, 0
2, 33480, Note_on_c, 0, 74, 42
2, 33480, Note_on_c, 0, 78, 50
2, 33600, Note_on_c, 0, 78, 0
2, 33600, Note_on_c, 0, 74, 0
2, 33600, Note_on_c, 0, 68, 70
2, 33960, Note_on_c, 0, 68, 0
2, 33960, Note_on_c, 0, 71, 41
2, 33960, Note_on_c, 0, 78, 49
2, 34080, Note_on_c, 0, 78, 0
2, 34080, Note_on_c, 0, 71, 0
2, 34080, Note_on_c, 0, 70, 69
2, 34440, Note_on_c, 0, 70, 0
2, 34440, Note_on_c, 0, 73, 39
2, 34440, Note_on_c, 0, 78, 47
2, 34560, Note_on_c, 0, 78, 0
2, 34560, Note_on_c, 0, 73, 0
2, 34560, Note_on_c, 0, 66, 66
2, 34920, Note_on_c, 0, 66, 0
2, 34920, Note_on_c, 0, 71, 25
2, 34920, Note_on_c, 0, 74, 25
2, 34920, Note_on_c, 0, 78, 41
2, 35040, Note_on_c, 0, 78, 0
2, 35040, Note_on_c, 0, 74, 0
2, 35040, Note_on_c, 0, 71, 0
2, 35040, Note_on_c, 0, 67, 59
2, 35160, Note_on_c, 0, 67, 0
2, 35160, Note_on_c, 0, 71, 24
2, 35160, Note_on_c, 0, 74, 24
2, 35160, Note_on_c, 0, 78, 40
2, 35280, Note_on_c, 0, 78, 0
2, 35280, Note_on_c, 0, 74, 0
2, 35280, Note_on_c, 0, 71, 0
2, 35280, Note_on_c, 0, 69, 58
2, 35400, Note_on_c, 0, 69, 0
2, 35400, Note_on_c, 0, 71, 25
2, 35400, Note_on_c, 0, 74, 25
2, 35400, Note_on_c, 0, 78, 39
2, 35520, Note_on_c, 0, 78, 0
2, 35520, Note_on_c, 0, 74, 0
2, 35520, Note_on_c, 0, 71, 0
2, 35520, Note_on_c, 0, 66, 58
2, 35880, Note_on_c, 0, 66, 0
2, 35880, Note_on_c, 0, 74, 21
2, 35880, Note_on_c, 0, 70, 21
2, 35880, Note_on_c, 0, 78, 34
2, 36000, Note_on_c, 0, 78, 0
2, 36000, Note_on_c, 0, 70, 0
2, 36000, Note_on_c, 0, 74, 0
2, 36000, Note_on_c, 0, 66, 55
2, 36360, Note_on_c, 0, 66, 0
2, 36360, Note_on_c, 0, 70, 22
2, 36360, Note_on_c, 0, 74, 22
2, 36360, Note_on_c, 0, 78, 36
2, 36480, Note_on_c, 0, 78, 0
2, 36480, Note_on_c, 0, 74, 0
2, 36480, Note_on_c, 0, 70, 0
2, 36480, Note_on_c, 0, 66, 44
2, 36840, Note_on_c, 0, 66, 0
2, 36840, Note_on_c, 0, 71, 20
2, 36840, Note_on_c, 0, 75, 20
2, 36840, Note_on_c, 0, 78, 33
2, 36960, Note_on_c, 0, 78, 0
2, 36960, Note_on_c, 0, 75, 0
2, 36960, Note_on_c, 0, 71, 0
2, 36960, Note_on_c, 0, 68, 39
2, 37080, Note_on_c, 0, 68, 0
2, 37080, Note_on_c, 0, 71, 19
2, 37080, Note_on_c, 0, 75, 19
2, 37080, Note_on_c, 0, 78, 32
2, 37200, Note_on_c, 0, 78, 0
2, 37200, Note_on_c, 0, 75, 0
2, 37200, Note_on_c, 0, 71, 0
2, 37200, Note_on_c, 0, 70, 39
2, 37320, Note_on_c, 0, 70, 0
2, 37320, Note_on_c, 0, 71, 20
2, 37320, Note_on_c, 0, 75, 20
2, 37320, Note_on_c, 0, 78, 32
2, 37440, Note_on_c, 0, 78, 0
2, 37440, Note_on_c, 0, 75, 0
2, 37440, Note_on_c, 0, 71, 0
2, 37440, Note_on_c, 0, 66, 39
2, 37800, Note_on_c, 0, 66, 0
2, 37800, Note_on_c, 0, 75, 17
2, 37800, Note_on_c, 0, 70, 17
2, 37800, Note_on_c, 0, 78, 28
2, 37920, Note_on_c, 0, 78, 0
2, 37920, Note_on_c, 0, 70, 0
2, 37920, Note_on_c, 0, 75, 0
2, 37920, Note_on_c, 0, 66, 38
2, 38280, Note_on_c, 0, 66, 0
2, 38280, Note_on_c, 0, 70, 17
2, 38280, Note_on_c, 0, 75, 17
2, 38280, Note_on_c, 0, 78, 29
2, 38400, Note_on_c, 0, 78, 0
2, 38400, Note_on_c, 0, 75, 0
2, 38400, Note_on_c, 0, 70, 0
2, 38400, Note_on_c, 0, 66, 44
2, 38880, Note_on_c, 0, 71, 30
2, 39000, Note_on_c, 0, 71, 0
2, 39000, Note_on_c, 0, 73, 32
2, 39120, Note_on_c, 0, 73, 0
2, 39120, Note_on_c, 0, 75, 33
2, 39240, Note_on_c, 0, 75, 0
2, 39240, Note_on_c, 0, 78, 34
2, 39360, Note_on_c, 0, 78, 0
2, 39360, Note_on_c, 0, 66, 0
2, 39360, Note_on_c, 0, 66, 44
2, 39840, Note_on_c, 0, 71, 37
2, 39960, Note_on_c, 0, 71, 0
2, 39960, Note_on_c, 0, 73, 39
2, 40080, Note_on_c, 0, 73, 0
2, 40080, Note_on_c, 0, 75, 41
2, 40200, Note_on_c, 0, 75, 0
2, 40200, Note_on_c, 0, 78, 44
2, 40320, Note_on_c, 0, 78, 0
2, 40320, Note_on_c, 0, 66, 0
2, 40320, Note_on_c, 0, 78, 49
2, 40800, Note_on_c, 0, 74, 43
2, 40920, Note_on_c, 0, 74, 0
2, 40920, Note_on_c, 0, 73, 41
2, 41040, Note_on_c, 0, 73, 0
2, 41040, Note_on_c, 0, 71, 40
2, 41160, Note_on_c, 0, 71, 0
2, 41160, Note_on_c, 0, 66, 39
2, 41280, Note_on_c, 0, 66, 0
2, 41280, Note_on_c, 0, 78, 0
2, 41280, Note_on_c, 0, 78, 49
2, 41760, Note_on_c, 0, 74, 43
2, 41880, Note_on_c, 0, 74, 0
2, 41880, Note_on_c, 0, 73, 41
2, 42000, Note_on_c, 0, 73, 0
2, 42000, Note_on_c, 0, 71, 40
2, 42120, Note_on_c, 0, 71, 0
2, 42120, Note_on_c, 0, 67, 39
2, 42240, Note_on_c, 0, 67, 0
2, 42240, Note_on_c, 0, 78, 0
2, 42240, Note_on_c, 0, 78, 52
2, 42600, Note_on_c, 0, 78, 0
2, 42600, Note_on_c, 0, 68, 44
2, 42720, Note_on_c, 0, 68, 0
2, 42720, Note_on_c, 0, 69, 46
2, 42840, Note_on_c, 0, 69, 0
2, 42840, Note_on_c, 0, 70, 48
2, 42960, Note_on_c, 0, 70, 0
2, 42960, Note_on_c, 0, 71, 49
2, 43080, Note_on_c, 0, 71, 0
2, 43080, Note_on_c, 0, 72, 51
2, 43200, Note_on_c, 0, 72, 0
2, 43200, Note_on_c, 0, 73, 53
2, 43320, Note_on_c, 0, 73, 0
2, 43320, Note_on_c, 0, 74, 55
2, 43440, Note_on_c, 0, 74, 0
2, 43440, Note_on_c, 0, 75, 57
2, 43560, Note_on_c, 0, 75, 0
2, 43560, Note_on_c, 0, 76, 59
2, 43680, Note_on_c, 0, 76, 0
2, 43680, Note_on_c, 0, 81, 65
2, 43800, Note_on_c, 0, 81, 0
2, 43800, Note_on_c, 0, 76, 58
2, 43920, Note_on_c, 0, 76, 0
2, 43920, Note_on_c, 0, 73, 62
2, 44040, Note_on_c, 0, 73, 0
2, 44040, Note_on_c, 0, 69, 58
2, 44160, Note_on_c, 0, 69, 0
2, 44160, Note_on_c, 0, 67, 68
2, 44520, Note_on_c, 0, 67, 0
2, 44520, Note_on_c, 0, 76, 53
2, 44640, Note_on_c, 0, 76, 0
2, 44640, Note_on_c, 0, 68, 69
2, 45000, Note_on_c, 0, 68, 0
2, 45000, Note_on_c, 0, 76, 52
2, 45120, Note_on_c, 0, 76, 0
2, 45120, Note_on_c, 0, 67, 70
2, 45480, Note_on_c, 0, 67, 0
2, 45480, Note_on_c, 0, 76, 50
2, 45600, Note_on_c, 0, 76, 0
2, 45600, Note_on_c, 0, 68, 69
2, 45960, Note_on_c, 0, 68, 0
2, 45960, Note_on_c, 0, 77, 46
2, 46080, Note_on_c, 0, 77, 0
2, 46080, Note_on_c, 0, 78, 67
2, 46440, Note_on_c, 0, 78, 0
2, 46440, Note_on_c, 0, 68, 54
2, 46560, Note_on_c, 0, 68, 0
2, 46560, Note_on_c, 0, 69, 53
2, 46680, Note_on_c, 0, 69, 0
2, 46680, Note_on_c, 0, 70, 54
2, 46800, Note_on_c, 0, 70, 0
2, 46800, Note_on_c, 0, 71, 55
2, 46920, Note_on_c, 0, 71, 0
2, 46920, Note_on_c, 0, 72, 57
2, 47040, Note_on_c, 0, 72, 0
2, 47040, Note_on_c, 0, 73, 58
2, 47160, Note_on_c, 0, 73, 0
2, 47160, Note_on_c, 0, 74, 60
2, 47280, Note_on_c, 0, 74, 0
2, 47280, Note_on_c, 0, 75, 61
2, 47400, Note_on_c, 0, 75, 0
2, 47400, Note_on_c, 0, 76, 63
2, 47520, Note_on_c, 0, 76, 0
2, 47520, Note_on_c, 0, 81, 69
2, 47640, Note_on_c, 0, 81, 0
2, 47640, Note_on_c, 0, 76, 60
2, 47760, Note_on_c, 0, 76, 0
2, 47760, Note_on_c, 0, 73, 62
2, 47880, Note_on_c, 0, 73, 0
2, 47880, Note_on_c, 0, 69, 60
2, 48000, Note_on_c, 0, 69, 0
2, 48000, Note_on_c, 0, 85, 76
2, 48360, Note_on_c, 0, 85, 0
2, 48360, Note_on_c, 0, 75, 60
2, 48480, Note_on_c, 0, 75, 0
2, 48480, Note_on_c, 0, 76, 58
2, 48600, Note_on_c, 0, 76, 0
2, 48600, Note_on_c, 0, 77, 59
2, 48720, Note_on_c, 0, 77, 0
2, 48720, Note_on_c, 0, 78, 61
2, 48840, Note_on_c, 0, 78, 0
2, 48840, Note_on_c, 0, 79, 62
2, 48960, Note_on_c, 0, 79, 0
2, 48960, Note_on_c, 0, 80, 64
2, 49080, Note_on_c, 0, 80, 0
2, 49080, Note_on_c, 0, 81, 66
2, 49200, Note_on_c, 0, 81, 0
2, 49200, Note_on_c, 0, 82, 67
2, 49320, Note_on_c, 0, 82, 0
2, 49320, Note_on_c, 0, 83, 69
2, 49440, Note_on_c, 0, 83, 0
2, 49440, Note_on_c, 0, 88, 78
2, 49560, Note_on_c, 0, 88, 0
2, 49560, Note_on_c, 0, 83, 67
2, 49680, Note_on_c, 0, 83, 0
2, 49680, Note_on_c, 0, 80, 72
2, 49800, Note_on_c, 0, 80, 0
2, 49800, Note_on_c, 0, 76, 65
2, 49920, Note_on_c, 0, 76, 0
2, 49920, Note_on_c, 0, 90, 90
2, 50280, Note_on_c, 0, 90, 0
2, 50280, Note_on_c, 0, 80, 66
2, 50400, Note_on_c, 0, 80, 0
2, 50400, Note_on_c, 0, 81, 66
2, 50520, Note_on_c, 0, 81, 0
2, 50520, Note_on_c, 0, 82, 67
2, 50640, Note_on_c, 0, 82, 0
2, 50640, Note_on_c, 0, 83, 69
2, 50760, Note_on_c, 0, 83, 0
2, 50760, Note_on_c, 0, 84, 70
2, 50880, Note_on_c, 0, 84, 0
2, 50880, Note_on_c, 0, 85, 72
2, 51000, Note_on_c, 0, 85, 0
2, 51000, Note_on_c, 0, 86, 74
2, 51120, Note_on_c, 0, 86, 0
2, 51120, Note_on_c, 0, 87, 75
2, 51240, Note_on_c, 0, 87, 0
2, 51240, Note_on_c, 0, 88, 77
2, 51360, Note_on_c, 0, 88, 0
2, 51360, Note_on_c, 0, 93, 87
2, 51480, Note_on_c, 0, 93, 0
2, 51480, Note_on_c, 0, 88, 73
2, 51600, Note_on_c, 0, 88, 0
2, 51600, Note_on_c, 0, 85, 76
2, 51720, Note_on_c, 0, 85, 0
2, 51720, Note_on_c, 0, 81, 74
2, 51840, Note_on_c, 0, 81, 0
2, 51840, Note_on_c, 0, 76, 83
2, 52200, Note_on_c, 0, 76, 0
2, 52200, Note_on_c, 0, 85, 56
2, 52320, Note_on_c, 0, 85, 0
2, 52320, Note_on_c, 0, 73, 75
2, 52680, Note_on_c, 0, 73, 0
2, 52680, Note_on_c, 0, 81, 50
2, 52800, Note_on_c, 0, 81, 0
2, 52800, Note_on_c, 0, 69, 67
2, 53160, Note_on_c, 0, 69, 0
2, 53160, Note_on_c, 0, 78, 45
2, 53280, Note_on_c, 0, 78, 0
2, 53280, Note_on_c, 0, 66, 60
2, 53640, Note_on_c, 0, 66, 0
2, 53640, Note_on_c, 0, 75, 38
2, 53760, Note_on_c, 0, 75, 0
2, 53760, Note_on_c, 0, 65, 52
2, 54120, Note_on_c, 0, 65, 0
2, 54120, Note_on_c, 0, 74, 38
2, 54240, Note_on_c, 0, 74, 0
2, 54240, Note_on_c, 0, 62, 49
2, 54600, Note_on_c, 0, 62, 0
2, 54600, Note_on_c, 0, 71, 34
2, 54720, Note_on_c, 0, 71, 0
2, 54720, Note_on_c, 0, 61, 46
2, 55080, Note_on_c, 0, 61, 0
2, 55080, Note_on_c, 0, 69, 36
2, 55200, Note_on_c, 0, 69, 0
2, 55680, Note_on_c, 0, 67, 60
2, 56040, Note_on_c, 0, 67, 0
2, 56040, Note_on_c, 0, 71, 54
2, 56160, Note_on_c, 0, 71, 0
2, 56160, Note_on_c, 0, 74, 58
2, 56280, Note_on_c, 0, 74, 0
2, 56280, Note_on_c, 0, 79, 54
2, 56400, Note_on_c, 0, 79, 0
2, 56400, Note_on_c, 0, 73, 60
2, 56520, Note_on_c, 0, 73, 0
2, 56520, Note_on_c, 0, 74, 57
2, 56520, Note_on_c, 0, 79, 57
2, 56640, Note_on_c, 0, 79, 0
2, 56640, Note_on_c, 0, 74, 0
2, 56640, Note_on_c, 0, 71, 63
2, 56760, Note_on_c, 0, 71, 0
2, 56760, Note_on_c, 0, 74, 60
2, 56760, Note_on_c, 0, 79, 60
2, 56880, Note_on_c, 0, 79, 0
2, 56880, Note_on_c, 0, 74, 0
2, 56880, Note_on_c, 0, 69, 65
2, 57000, Note_on_c, 0, 69, 0
2, 57000, Note_on_c, 0, 71, 63
2, 57000, Note_on_c, 0, 74, 63
2, 57120, Note_on_c, 0, 74, 0
2, 57120, Note_on_c, 0, 71, 0
2, 57120, Note_on_c, 0, 67, 69
2, 57240, Note_on_c, 0, 67, 0
2, 57240, Note_on_c, 0, 71, 60
2, 57240, Note_on_c, 0, 74, 60
2, 57360, Note_on_c, 0, 74, 0
2, 57360, Note_on_c, 0, 71, 0
2, 57360, Note_on_c, 0, 66, 69
2, 57480, Note_on_c, 0, 66, 0
2, 57480, Note_on_c, 0, 71, 60
2, 57480, Note_on_c, 0, 74, 60
2, 57600, Note_on_c, 0, 74, 0
2, 57600, Note_on_c, 0, 71, 0
2, 57600, Note_on_c, 0, 65, 73
2, 57960, Note_on_c, 0, 65, 0
2, 57960, Note_on_c, 0, 68, 49
2, 57960, Note_on_c, 0, 73, 58
2, 58080, Note_on_c, 0, 73, 0
2, 58080, Note_on_c, 0, 68, 0
2, 58080, Note_on_c, 0, 66, 69
2, 58440, Note_on_c, 0, 66, 0
2, 58440, Note_on_c, 0, 69, 48
2, 58440, Note_on_c, 0, 73, 57
2, 58560, Note_on_c, 0, 73, 0
2, 58560, Note_on_c, 0, 69, 0
2, 58560, Note_on_c, 0, 63, 70
2, 58920, Note_on_c, 0, 63, 0
2, 58920, Note_on_c, 0, 66, 47
2, 58920, Note_on_c, 0, 73, 56
2, 59040, Note_on_c, 0, 73, 0
2, 59040, Note_on_c, 0, 66, 0
2, 59040, Note_on_c, 0, 65, 69
2, 59400, Note_on_c, 0, 65, 0
2, 59400, Note_on_c, 0, 68, 44
2, 59400, Note_on_c, 0, 73, 52
2, 59520, Note_on_c, 0, 73, 0
2, 59520, Note_on_c, 0, 68, 0
2, 59520, Note_on_c, 0, 61, 66
2, 59880, Note_on_c, 0, 61, 0
2, 59880, Note_on_c, 0, 66, 26
2, 59880, Note_on_c, 0, 69, 26
2, 59880, Note_on_c, 0, 73, 42
2, 60000, Note_on_c, 0, 73, 0
2, 60000, Note_on_c, 0, 69, 0
2, 60000, Note_on_c, 0, 66, 0
2, 60000, Note_on_c, 0, 62, 51
2, 60120, Note_on_c, 0, 62, 0
2, 60120, Note_on_c, 0, 66, 26
2, 60120, Note_on_c, 0, 69, 26
2, 60120, Note_on_c, 0, 73, 42
2, 60240, Note_on_c, 0, 73, 0
2, 60240, Note_on_c, 0, 69, 0
2, 60240, Note_on_c, 0, 66, 0
2, 60240, Note_on_c, 0, 64, 62
2, 60360, Note_on_c, 0, 64, 0
2, 60360, Note_on_c, 0, 66, 27
2, 60360, Note_on_c, 0, 69, 27
2, 60360, Note_on_c, 0, 73, 43
2, 60480, Note_on_c, 0, 73, 0
2, 60480, Note_on_c, 0, 69, 0
2, 60480, Note_on_c, 0, 66, 0
2, 60480, Note_on_c, 0, 61, 63
2, 60840, Note_on_c, 0, 61, 0
2, 60840, Note_on_c, 0, 69, 23
2, 60840, Note_on_c, 0, 65, 23
2, 60840, Note_on_c, 0, 73, 38
2, 60960, Note_on_c, 0, 73, 0
2, 60960, Note_on_c, 0, 65, 0
2, 60960, Note_on_c, 0, 69, 0
2, 60960, Note_on_c, 0, 61, 62
2, 61320, Note_on_c, 0, 61, 0
2, 61320, Note_on_c, 0, 65, 26
2, 61320, Note_on_c, 0, 69, 26
2, 61320, Note_on_c, 0, 73, 42
2, 61440, Note_on_c, 0, 73, 0
2, 61440, Note_on_c, 0, 69, 0
2, 61440, Note_on_c, 0, 65, 0
2, 61440, Note_on_c, 0, 61, 62
2, 61920, Note_on_c, 0, 66, 43
2, 62040, Note_on_c, 0, 66, 0
2, 62040, Note_on_c, 0, 68, 45
2, 62160, Note_on_c, 0, 68, 0
2, 62160, Note_on_c, 0, 69, 46
2, 62280, Note_on_c, 0, 69, 0
2, 62280, Note_on_c, 0, 73, 48
2, 62400, Note_on_c, 0, 73, 0
2, 62517, Note_on_c, 0, 61, 0
2, 62880, Note_on_c, 0, 78, 46
2, 63000, Note_on_c, 0, 78, 0
2, 63000, Note_on_c, 0, 80, 48
2, 63120, Note_on_c, 0, 80, 0
2, 63120, Note_on_c, 0, 81, 50
2, 63240, Note_on_c, 0, 81, 0
2, 63240, Note_on_c, 0, 85, 52
2, 63360, Note_on_c, 0, 85, 0
2, 63360, Note_on_c, 0, 72, 60
2, 63720, Note_on_c, 0, 72, 0
2, 63720, Note_on_c, 0, 76, 54
2, 63840, Note_on_c, 0, 76, 0
2, 63840, Note_on_c, 0, 79, 58
2, 63960, Note_on_c, 0, 79, 0
2, 63960, Note_on_c, 0, 84, 54
2, 64080, Note_on_c, 0, 84, 0
2, 64080, Note_on_c, 0, 78, 60
2, 64200, Note_on_c, 0, 78, 0
2, 64200, Note_on_c, 0, 79, 57
2, 64200, Note_on_c, 0, 84, 57
2, 64320, Note_on_c, 0, 84, 0
2, 64320, Note_on_c, 0, 79, 0
2, 64320, Note_on_c, 0, 76, 63
2, 64440, Note_on_c, 0, 76, 0
2, 64440, Note_on_c, 0, 79, 60
2, 64440, Note_on_c, 0, 84, 60
2, 64560, Note_on_c, 0, 84, 0
2, 64560, Note_on_c, 0, 79, 0
2, 64560, Note_on_c, 0, 74, 65
2, 64680, Note_on_c, 0, 74, 0
2, 64680, Note_on_c, 0, 76, 63
2, 64680, Note_on_c, 0, 79, 63
2, 64800, Note_on_c, 0, 79, 0
2, 64800, Note_on_c, 0, 76, 0
2, 64800, Note_on_c, 0, 72, 69
2, 64920, Note_on_c, 0, 72, 0
2, 64920, Note_on_c, 0, 76, 60
2, 64920, Note_on_c, 0, 79, 60
2, 65040, Note_on_c, 0, 79, 0
2, 65040, Note_on_c, 0, 76, 0
2, 65040, Note_on_c, 0, 71, 69
2, 65160, Note_on_c, 0, 71, 0
2, 65160, Note_on_c, 0, 76, 60
2, 65160, Note_on_c, 0, 79, 60
2, 65280, Note_on_c, 0, 79, 0
2, 65280, Note_on_c, 0, 76, 0
2, 65280, Note_on_c, 0, 70, 73
2, 65640, Note_on_c, 0, 70, 0
2, 65640, Note_on_c, 0, 73, 46
2, 65640, Note_on_c, 0, 78, 55
2, 65760, Note_on_c, 0, 78, 0
2, 65760, Note_on_c, 0, 73, 0
2, 65760, Note_on_c, 0, 71, 69
2, 66120, Note_on_c, 0, 71, 0
2, 66120, Note_on_c, 0, 74, 43
2, 66120, Note_on_c, 0, 78, 51
2, 66240, Note_on_c, 0, 78, 0
2, 66240, Note_on_c, 0, 74, 0
2, 66240, Note_on_c, 0, 68, 70
2, 66600, Note_on_c, 0, 68, 0
2, 66600, Note_on_c, 0, 71, 43
2, 66600, Note_on_c, 0, 78, 51
2, 66720, Note_on_c, 0, 78, 0
2, 66720, Note_on_c, 0, 71, 0
2, 66720, Note_on_c, 0, 70, 69
2, 67080, Note_on_c, 0, 70, 0
2, 67080, Note_on_c, 0, 73, 41
2, 67080, Note_on_c, 0, 78, 49
2, 67200, Note_on_c, 0, 78, 0
2, 67200, Note_on_c, 0, 73, 0
2, 67200, Note_on_c, 0, 66, 66
2, 67560, Note_on_c, 0, 66, 0
2, 67560, Note_on_c, 0, 71, 26
2, 67560, Note_on_c, 0, 74, 26
2, 67560, Note_on_c, 0, 78, 42
2, 67680, Note_on_c, 0, 78, 0
2, 67680, Note_on_c, 0, 74, 0
2, 67680, Note_on_c, 0, 71, 0
2, 67680, Note_on_c, 0, 67, 60
2, 67800, Note_on_c, 0, 67, 0
2, 67800, Note_on_c, 0, 71, 25
2, 67800, Note_on_c, 0, 74, 25
2, 67800, Note_on_c, 0, 78, 41
2, 67920, Note_on_c, 0, 78, 0
2, 67920, Note_on_c, 0, 74, 0
2, 67920, Note_on_c, 0, 71, 0
2, 67920, Note_on_c, 0, 69, 60
2, 68040, Note_on_c, 0, 69, 0
2, 68040, Note_on_c, 0, 71, 25
2, 68040, Note_on_c, 0, 74, 25
2, 68040, Note_on_c, 0, 78, 40
2, 68160, Note_on_c, 0, 78, 0
2, 68160, Note_on_c, 0, 74, 0
2, 68160, Note_on_c, 0, 71, 0
2, 68160, Note_on_c, 0, 66, 59
2, 68520, Note_on_c, 0, 66, 0
2, 68520, Note_on_c, 0, 74, 21
2, 68520, Note_on_c, 0, 70, 21
2, 68520, Note_on_c, 0, 78, 34
2, 68640, Note_on_c, 0, 78, 0
2, 68640, Note_on_c, 0, 70, 0
2, 68640, Note_on_c, 0, 74, 0
2, 68640, Note_on_c, 0, 66, 55
2, 69000, Note_on_c, 0, 66, 0
2, 69000, Note_on_c, 0, 70, 22
2, 69000, Note_on_c, 0, 74, 22
2, 69000, Note_on_c, 0, 78, 36
2, 69120, Note_on_c, 0, 78, 0
2, 69120, Note_on_c, 0, 74, 0
2, 69120, Note_on_c, 0, 70, 0
2, 69120, Note_on_c, 0, 66, 44
2, 69480, Note_on_c, 0, 66, 0
2, 69480, Note_on_c, 0, 71, 20
2, 69480, Note_on_c, 0, 75, 20
2, 69480, Note_on_c, 0, 78, 33
2, 69600, Note_on_c, 0, 78, 0
2, 69600, Note_on_c, 0, 75, 0
2, 69600, Note_on_c, 0, 71, 0
2, 69600, Note_on_c, 0, 68, 39
2, 69720, Note_on_c, 0, 68, 0
2, 69720, Note_on_c, 0, 71, 19
2, 69720, Note_on_c, 0, 75, 19
2, 69720, Note_on_c, 0, 78, 32
2, 69840, Note_on_c, 0, 78, 0
2, 69840, Note_on_c, 0, 75, 0
2, 69840, Note_on_c, 0, 71, 0
2, 69840, Note_on_c, 0, 70, 39
2, 69960, Note_on_c, 0, 70, 0
2, 69960, Note_on_c, 0, 71, 20
2, 69960, Note_on_c, 0, 75, 20
2, 69960, Note_on_c, 0, 78, 32
2, 70080, Note_on_c, 0, 78, 0
2, 70080, Note_on_c, 0, 75, 0
2, 70080, Note_on_c, 0, 71, 0
2, 70080, Note_on_c, 0, 66, 39
2, 70440, Note_on_c, 0, 66, 0
2, 70440, Note_on_c, 0, 75, 17
2, 70440, Note_on_c, 0, 70, 17
2, 70440, Note_on_c, 0, 78, 28
2, 70560, Note_on_c, 0, 78, 0
2, 70560, Note_on_c, 0, 70, 0
2, 70560, Note_on_c, 0, 75, 0
2, 70560, Note_on_c, 0, 66, 38
2, 70920, Note_on_c, 0, 66, 0
2, 70920, Note_on_c, 0, 70, 17
2, 70920, Note_on_c, 0, 75, 17
2, 70920, Note_on_c, 0, 78, 29
2, 71040, Note_on_c, 0, 78, 0
2, 71040, Note_on_c, 0, 75, 0
2, 71040, Note_on_c, 0, 70, 0
2, 71040, Note_on_c, 0, 66, 44
2, 71520, Note_on_c, 0, 71, 30
2, 71640, Note_on_c, 0, 71, 0
2, 71640, Note_on_c, 0, 73, 32
2, 71760, Note_on_c, 0, 73, 0
2, 71760, Note_on_c, 0, 75, 33
2, 71880, Note_on_c, 0, 75, 0
2, 71880, Note_on_c, 0, 78, 34
2, 72000, Note_on_c, 0, 78, 0
2, 72000, Note_on_c, 0, 66, 0
2, 72000, Note_on_c, 0, 66, 44
2, 72480, Note_on_c, 0, 71, 37
2, 72600, Note_on_c, 0, 71, 0
2, 72600, Note_on_c, 0, 73, 39
2, 72720, Note_on_c, 0, 73, 0
2, 72720, Note_on_c, 0, 75, 41
2, 72840, Note_on_c, 0, 75, 0
2, 72840, Note_on_c, 0, 78, 44
2, 72950, Note_on_c, 0, 78, 0
2, 72960, Note_on_c, 0, 66, 0
2, 72960, Note_on_c, 0, 78, 49
2, 73440, Note_on_c, 0, 74, 43
2, 73560, Note_on_c, 0, 74, 0
2, 73560, Note_on_c, 0, 73, 41
2, 73680, Note_on_c, 0, 73, 0
2, 73680, Note_on_c, 0, 71, 40
2, 73800, Note_on_c, 0, 71, 0
2, 73800, Note_on_c, 0, 66, 39
2, 73920, Note_on_c, 0, 66, 0
2, 73920, Note_on_c, 0, 78, 0
2, 73920, Note_on_c, 0, 78, 49
2, 74400, Note_on_c, 0, 74, 43
2, 74520, Note_on_c, 0, 74, 0
2, 74520, Note_on_c, 0, 73, 41
2, 74640, Note_on_c, 0, 73, 0
2, 74640, Note_on_c, 0, 71, 40
2, 74760, Note_on_c, 0, 71, 0
2, 74760, Note_on_c, 0, 67, 39
2, 74880, Note_on_c, 0, 67, 0
2, 74880, Note_on_c, 0, 78, 0
2, 74880, Note_on_c, 0, 78, 49
2, 75240, Note_on_c, 0, 78, 0
2, 75240, Note_on_c, 0, 68, 42
2, 75360, Note_on_c, 0, 68, 0
2, 75360, Note_on_c, 0, 69, 43
2, 75480, Note_on_c, 0, 69, 0
2, 75480, Note_on_c, 0, 70, 45
2, 75600, Note_on_c, 0, 70, 0
2, 75600, Note_on_c, 0, 71, 47
2, 75720, Note_on_c, 0, 71, 0
2, 75720, Note_on_c, 0, 72, 49
2, 75840, Note_on_c, 0, 72, 0
2, 75840, Note_on_c, 0, 73, 50
2, 75960, Note_on_c, 0, 73, 0
2, 75960, Note_on_c, 0, 74, 52
2, 76080, Note_on_c, 0, 74, 0
2, 76080, Note_on_c, 0, 75, 54
2, 76200, Note_on_c, 0, 75, 0
2, 76200, Note_on_c, 0, 76, 56
2, 76320, Note_on_c, 0, 76, 0
2, 76320, Note_on_c, 0, 81, 62
2, 76440, Note_on_c, 0, 81, 0
2, 76440, Note_on_c, 0, 76, 55
2, 76560, Note_on_c, 0, 76, 0
2, 76560, Note_on_c, 0, 73, 62
2, 76680, Note_on_c, 0, 73, 0
2, 76680, Note_on_c, 0, 69, 58
2, 76800, Note_on_c, 0, 69, 0
2, 76800, Note_on_c, 0, 67, 68
2, 77160, Note_on_c, 0, 67, 0
2, 77160, Note_on_c, 0, 76, 54
2, 77280, Note_on_c, 0, 76, 0
2, 77280, Note_on_c, 0, 68, 69
2, 77640, Note_on_c, 0, 68, 0
2, 77640, Note_on_c, 0, 76, 53
2, 77760, Note_on_c, 0, 76, 0
2, 77760, Note_on_c, 0, 67, 70
2, 78120, Note_on_c, 0, 67, 0
2, 78120, Note_on_c, 0, 76, 53
2, 78240, Note_on_c, 0, 76, 0
2, 78240, Note_on_c, 0, 68, 69
2, 78600, Note_on_c, 0, 68, 0
2, 78600, Note_on_c, 0, 77, 50
2, 78720, Note_on_c, 0, 77, 0
2, 78720, Note_on_c, 0, 78, 67
2, 79080, Note_on_c, 0, 78, 0
2, 79080, Note_on_c, 0, 68, 54
2, 79200, Note_on_c, 0, 68, 0
2, 79200, Note_on_c, 0, 69, 53
2, 79320, Note_on_c, 0, 69, 0
2, 79320, Note_on_c, 0, 70, 54
2, 79440, Note_on_c, 0, 70, 0
2, 79440, Note_on_c, 0, 71, 55
2, 79560, Note_on_c, 0, 71, 0
2, 79560, Note_on_c, 0, 72, 57
2, 79680, Note_on_c, 0, 72, 0
2, 79680, Note_on_c, 0, 73, 58
2, 79800, Note_on_c, 0, 73, 0
2, 79800, Note_on_c, 0, 74, 60
2, 79920, Note_on_c, 0, 74, 0
2, 79920, Note_on_c, 0, 75, 61
2, 80040, Note_on_c, 0, 75, 0
2, 80040, Note_on_c, 0, 76, 63
2, 80160, Note_on_c, 0, 76, 0
2, 80160, Note_on_c, 0, 81, 69
2, 80280, Note_on_c, 0, 81, 0
2, 80280, Note_on_c, 0, 76, 60
2, 80400, Note_on_c, 0, 76, 0
2, 80400, Note_on_c, 0, 73, 62
2, 80520, Note_on_c, 0, 73, 0
2, 80520, Note_on_c, 0, 69, 60
2, 80640, Note_on_c, 0, 69, 0
2, 80640, Note_on_c, 0, 85, 76
2, 81000, Note_on_c, 0, 85, 0
2, 81000, Note_on_c, 0, 75, 60
2, 81120, Note_on_c, 0, 75, 0
2, 81120, Note_on_c, 0, 76, 58
2, 81240, Note_on_c, 0, 76, 0
2, 81240, Note_on_c, 0, 77, 59
2, 81360, Note_on_c, 0, 77, 0
2, 81360, Note_on_c, 0, 78, 61
2, 81480, Note_on_c, 0, 78, 0
2, 81480, Note_on_c, 0, 79, 62
2, 81600, Note_on_c, 0, 79, 0
2, 81600, Note_on_c, 0, 80, 64
2, 81720, Note_on_c, 0, 80, 0
2, 81720, Note_on_c, 0, 81, 66
2, 81840, Note_on_c, 0, 81, 0
2, 81840, Note_on_c, 0, 82, 67
2, 81960, Note_on_c, 0, 82, 0
2, 81960, Note_on_c, 0, 83, 69
2, 82080, Note_on_c, 0, 83, 0
2, 82080, Note_on_c, 0, 88, 78
2, 82200, Note_on_c, 0, 88, 0
2, 82200, Note_on_c, 0, 83, 67
2, 82320, Note_on_c, 0, 83, 0
2, 82320, Note_on_c, 0, 80, 74
2, 82440, Note_on_c, 0, 80, 0
2, 82440, Note_on_c, 0, 76, 65
2, 82560, Note_on_c, 0, 76, 0
2, 82560, Note_on_c, 0, 90, 90
2, 82920, Note_on_c, 0, 90, 0
2, 82920, Note_on_c, 0, 80, 70
2, 83040, Note_on_c, 0, 80, 0
2, 83040, Note_on_c, 0, 81, 70
2, 83160, Note_on_c, 0, 81, 0
2, 83160, Note_on_c, 0, 82, 71
2, 83280, Note_on_c, 0, 82, 0
2, 83280, Note_on_c, 0, 83, 72
2, 83400, Note_on_c, 0, 83, 0
2, 83400, Note_on_c, 0, 84, 74
2, 83520, Note_on_c, 0, 84, 0
2, 83520, Note_on_c, 0, 85, 75
2, 83640, Note_on_c, 0, 85, 0
2, 83640, Note_on_c, 0, 86, 77
2, 83760, Note_on_c, 0, 86, 0
2, 83760, Note_on_c, 0, 87, 77
2, 83880, Note_on_c, 0, 87, 0
2, 83880, Note_on_c, 0, 88, 77
2, 84000, Note_on_c, 0, 88, 0
2, 84000, Note_on_c, 0, 93, 90
2, 84120, Note_on_c, 0, 93, 0
2, 84120, Note_on_c, 0, 88, 80
2, 84240, Note_on_c, 0, 88, 0
2, 84240, Note_on_c, 0, 85, 83
2, 84360, Note_on_c, 0, 85, 0
2, 84360, Note_on_c, 0, 81, 79
2, 84480, Note_on_c, 0, 81, 0
2, 84480, Note_on_c, 0, 76, 90
2, 84840, Note_on_c, 0, 76, 0
2, 84840, Note_on_c, 0, 85, 66
2, 84960, Note_on_c, 0, 85, 0
2, 84960, Note_on_c, 0, 73, 84
2, 85320, Note_on_c, 0, 73, 0
2, 85320, Note_on_c, 0, 81, 61
2, 85440, Note_on_c, 0, 81, 0
2, 85440, Note_on_c, 0, 69, 70
2, 85800, Note_on_c, 0, 69, 0
2, 85800, Note_on_c, 0, 78, 51
2, 85920, Note_on_c, 0, 78, 0
2, 85920, Note_on_c, 0, 66, 64
2, 86280, Note_on_c, 0, 66, 0
2, 86280, Note_on_c, 0, 75, 42
2, 86400, Note_on_c, 0, 75, 0
2, 86400, Note_on_c, 0, 65, 57
2, 86760, Note_on_c, 0, 65, 0
2, 86760, Note_on_c, 0, 74, 43
2, 86880, Note_on_c, 0, 74, 0
2, 86880, Note_on_c, 0, 62, 55
2, 87240, Note_on_c, 0, 62, 0
2, 87240, Note_on_c, 0, 71, 39
2, 87360, Note_on_c, 0, 71, 0
2, 88320, Note_on_c, 0, 64, 60
2, 88680, Note_on_c, 0, 64, 0
2, 88680, Note_on_c, 0, 73, 38
2, 88800, Note_on_c, 0, 73, 0
2, 88800, Note_on_c, 0, 61, 53
2, 89160, Note_on_c, 0, 61, 0
2, 89160, Note_on_c, 0, 69, 35
2, 89280, Note_on_c, 0, 69, 0
2, 89280, Note_on_c, 0, 57, 50
2, 89640, Note_on_c, 0, 57, 0
2, 89640, Note_on_c, 0, 66, 36
2, 89760, Note_on_c, 0, 66, 0
2, 89760, Note_on_c, 0, 54, 46
2, 90120, Note_on_c, 0, 54, 0
2, 90120, Note_on_c, 0, 63, 29
2, 90240, Note_on_c, 0, 63, 0
2, 90240, Note_on_c, 0, 53, 42
2, 90600, Note_on_c, 0, 53, 0
2, 90600, Note_on_c, 0, 62, 29
2, 90720, Note_on_c, 0, 62, 0
2, 90720, Note_on_c, 0, 50, 40
2, 91080, Note_on_c, 0, 50, 0
2, 91080, Note_on_c, 0, 59, 27
2, 91200, Note_on_c, 0, 59, 0
2, 91200, Note_on_c, 0, 49, 36
2, 91560, Note_on_c, 0, 49, 0
2, 91560, Note_on_c, 0, 57, 28
2, 91680, Note_on_c, 0, 57, 0
2, 91680, End_track
3, 0, Start_track
3, 0, Title_t, "Piano left"
3, 0, Program_c, 0, 0
3, 120, Note_on_c, 0, 50, 36
3, 240, Note_on_c, 0, 50, 0
3, 240, Note_on_c, 0, 56, 36
3, 360, Note_on_c, 0, 56, 0
3, 360, Note_on_c, 0, 59, 36
3, 480, Note_on_c, 0, 59, 0
3, 480, Note_on_c, 0, 66, 45
3, 600, Note_on_c, 0, 66, 0
3, 1560, Note_on_c, 0, 49, 40
3, 1680, Note_on_c, 0, 49, 0
3, 1680, Note_on_c, 0, 57, 44
3, 1800, Note_on_c, 0, 57, 0
3, 1800, Note_on_c, 0, 64, 40
3, 1920, Note_on_c, 0, 64, 0
3, 2040, Note_on_c, 0, 46, 40
3, 2160, Note_on_c, 0, 46, 0
3, 2160, Note_on_c, 0, 52, 43
3, 2280, Note_on_c, 0, 52, 0
3, 2280, Note_on_c, 0, 61, 40
3, 2400, Note_on_c, 0, 61, 0
3, 2520, Note_on_c, 0, 47, 40
3, 2640, Note_on_c, 0, 47, 0
3, 2640, Note_on_c, 0, 52, 43
3, 2760, Note_on_c, 0, 52, 0
3, 2760, Note_on_c, 0, 62, 40
3, 2880, Note_on_c, 0, 62, 0
3, 3000, Note_on_c, 0, 46, 38
3, 3120, Note_on_c, 0, 46, 0
3, 3120, Note_on_c, 0, 52, 46
3, 3240, Note_on_c, 0, 52, 0
3, 3240, Note_on_c, 0, 61, 38
3, 3360, Note_on_c, 0, 61, 0
3, 3480, Note_on_c, 0, 47, 38
3, 3600, Note_on_c, 0, 47, 0
3, 3600, Note_on_c, 0, 52, 44
3, 3720, Note_on_c, 0, 52, 0
3, 3720, Note_on_c, 0, 62, 38
3, 3840, Note_on_c, 0, 62, 0
3, 3960, Note_on_c, 0, 50, 36
3, 4080, Note_on_c, 0, 50, 0
3, 4080, Note_on_c, 0, 56, 36
3, 4200, Note_on_c, 0, 56, 0
3, 4200, Note_on_c, 0, 59, 36
3, 4320, Note_on_c, 0, 59, 0
3, 4320, Note_on_c, 0, 66, 45
3, 4440, Note_on_c, 0, 66, 0
3, 5400, Note_on_c, 0, 49, 40
3, 5520, Note_on_c, 0, 49, 0
3, 5520, Note_on_c, 0, 57, 44
3, 5640, Note_on_c, 0, 57, 0
3, 5640, Note_on_c, 0, 64, 40
3, 5760, Note_on_c, 0, 64, 0
3, 5880, Note_on_c, 0, 57, 39
3, 6000, Note_on_c, 0, 57, 0
3, 6000, Note_on_c, 0, 63, 39
3, 6120, Note_on_c, 0, 63, 0
3, 6120, Note_on_c, 0, 66, 40
3, 6240, Note_on_c, 0, 66, 0
3, 6240, Note_on_c, 0, 73, 50
3, 6360, Note_on_c, 0, 73, 0
3, 7320, Note_on_c, 0, 56, 48
3, 7440, Note_on_c, 0, 56, 0
3, 7440, Note_on_c, 0, 64, 54
3, 7560, Note_on_c, 0, 64, 0
3, 7560, Note_on_c, 0, 71, 49
3, 7678, Note_on_c, 0, 71, 0
3, 7800, Note_on_c, 0, 47, 45
3, 7920, Note_on_c, 0, 47, 0
3, 7920, Note_on_c, 0, 56, 48
3, 8040, Note_on_c, 0, 56, 0
3, 8040, Note_on_c, 0, 64, 44
3, 8160, Note_on_c, 0, 64, 0
3, 8760, Note_on_c, 0, 47, 36
3, 8880, Note_on_c, 0, 47, 0
3, 8880, Note_on_c, 0, 55, 42
3, 9000, Note_on_c, 0, 55, 0
3, 9000, Note_on_c, 0, 64, 34
3, 9120, Note_on_c, 0, 64, 0
3, 9720, Note_on_c, 0, 47, 31
3, 9840, Note_on_c, 0, 47, 0
3, 9840, Note_on_c, 0, 54, 32
3, 9960, Note_on_c, 0, 54, 0
3, 9960, Note_on_c, 0, 63, 29
3, 10080, Note_on_c, 0, 63, 0
3, 10680, Note_on_c, 0, 40, 24
3, 10800, Note_on_c, 0, 40, 0
3, 10800, Note_on_c, 0, 47, 30
3, 10920, Note_on_c, 0, 47, 0
3, 11040, Note_on_c, 0, 28, 38
3, 11160, Note_on_c, 0, 28, 0
3, 11640, Note_on_c, 0, 50, 36
3, 11760, Note_on_c, 0, 50, 0
3, 11760, Note_on_c, 0, 56, 36
3, 11880, Note_on_c, 0, 56, 0
3, 11880, Note_on_c, 0, 59, 36
3, 12000, Note_on_c, 0, 59, 0
3, 12000, Note_on_c, 0, 66, 45
3, 12120, Note_on_c, 0, 66, 0
3, 13080, Note_on_c, 0, 49, 40
3, 13200, Note_on_c, 0, 49, 0
3, 13200, Note_on_c, 0, 57, 44
3, 13320, Note_on_c, 0, 57, 0
3, 13320, Note_on_c, 0, 64, 40
3, 13440, Note_on_c, 0, 64, 0
3, 13560, Note_on_c, 0, 46, 40
3, 13680, Note_on_c, 0, 46, 0
3, 13680, Note_on_c, 0, 52, 43
3, 13800, Note_on_c, 0, 52, 0
3, 13800, Note_on_c, 0, 61, 40
3, 13920, Note_on_c, 0, 61, 0
3, 14040, Note_on_c, 0, 47, 40
3, 14160, Note_on_c, 0, 47, 0
3, 14160, Note_on_c, 0, 52, 43
3, 14280, Note_on_c, 0, 52, 0
3, 14280, Note_on_c, 0, 62, 40
3, 14400, Note_on_c, 0, 62, 0
3, 14520, Note_on_c, 0, 46, 38
3, 14640, Note_on_c, 0, 46, 0
3, 14640, Note_on_c, 0, 52, 46
3, 14760, Note_on_c, 0, 52, 0
3, 14760, Note_on_c, 0, 61, 38
3, 14880, Note_on_c, 0, 61, 0
3, 15000, Note_on_c, 0, 47, 38
3, 15120, Note_on_c, 0, 47, 0
3, 15120, Note_on_c, 0, 52, 44
3, 15240, Note_on_c, 0, 52, 0
3, 15240, Note_on_c, 0, 62, 38
3, 15360, Note_on_c, 0, 62, 0
3, 15480, Note_on_c, 0, 50, 36
3, 15600, Note_on_c, 0, 50, 0
3, 15600, Note_on_c, 0, 56, 36
3, 15720, Note_on_c, 0, 56, 0
3, 15720, Note_on_c, 0, 59, 36
3, 15840, Note_on_c, 0, 59, 0
3, 15840, Note_on_c, 0, 66, 45
3, 15960, Note_on_c, 0, 66, 0
3, 16920, Note_on_c, 0, 49, 40
3, 17040, Note_on_c, 0, 49, 0
3, 17040, Note_on_c, 0, 57, 44
3, 17160, Note_on_c, 0, 57, 0
3, 17160, Note_on_c, 0, 64, 40
3, 17280, Note_on_c, 0, 64, 0
3, 17400, Note_on_c, 0, 57, 39
3, 17520, Note_on_c, 0, 57, 0
3, 17520, Note_on_c, 0, 63, 39
3, 17640, Note_on_c, 0, 63, 0
3, 17640, Note_on_c, 0, 66, 40
3, 17760, Note_on_c, 0, 66, 0
3, 17760, Note_on_c, 0, 73, 50
3, 17880, Note_on_c, 0, 73, 0
3, 18840, Note_on_c, 0, 56, 48
3, 18960, Note_on_c, 0, 56, 0
3, 18960, Note_on_c, 0, 64, 54
3, 19080, Note_on_c, 0, 64, 0
3, 19080, Note_on_c, 0, 71, 49
3, 19198, Note_on_c, 0, 71, 0
3, 19320, Note_on_c, 0, 47, 45
3, 19440, Note_on_c, 0, 47, 0
3, 19440, Note_on_c, 0, 56, 48
3, 19560, Note_on_c, 0, 56, 0
3, 19560, Note_on_c, 0, 64, 44
3, 19680, Note_on_c, 0, 64, 0
3, 20280, Note_on_c, 0, 47, 35
3, 20400, Note_on_c, 0, 47, 0
3, 20400, Note_on_c, 0, 55, 42
3, 20520, Note_on_c, 0, 55, 0
3, 20520, Note_on_c, 0, 64, 34
3, 20640, Note_on_c, 0, 64, 0
3, 21240, Note_on_c, 0, 47, 30
3, 21360, Note_on_c, 0, 47, 0
3, 21360, Note_on_c, 0, 54, 32
3, 21480, Note_on_c, 0, 54, 0
3, 21480, Note_on_c, 0, 63, 29
3, 21600, Note_on_c, 0, 63, 0
3, 22195, Note_on_c, 0, 40, 24
3, 22315, Note_on_c, 0, 40, 0
3, 22320, Note_on_c, 0, 47, 29
3, 22440, Note_on_c, 0, 47, 0
3, 22560, Note_on_c, 0, 28, 37
3, 22680, Note_on_c, 0, 28, 0
3, 23160, Note_on_c, 0, 47, 36
3, 23280, Note_on_c, 0, 47, 0
3, 23280, Note_on_c, 0, 55, 36
3, 23400, Note_on_c, 0, 55, 0
3, 23400, Note_on_c, 0, 62, 36
3, 23520, Note_on_c, 0, 62, 0
3, 25080, Note_on_c, 0, 49, 40
3, 25200, Note_on_c, 0, 49, 0
3, 25200, Note_on_c, 0, 59, 43
3, 25320, Note_on_c, 0, 59, 0
3, 25560, Note_on_c, 0, 49, 40
3, 25680, Note_on_c, 0, 49, 0
3, 25680, Note_on_c, 0, 61, 43
3, 25800, Note_on_c, 0, 61, 0
3, 26040, Note_on_c, 0, 49, 38
3, 26160, Note_on_c, 0, 49, 0
3, 26160, Note_on_c, 0, 57, 46
3, 26280, Note_on_c, 0, 57, 0
3, 26520, Note_on_c, 0, 49, 38
3, 26640, Note_on_c, 0, 49, 0
3, 26640, Note_on_c, 0, 59, 44
3, 26760, Note_on_c, 0, 59, 0
3, 27000, Note_on_c, 0, 42, 40
3, 27120, Note_on_c, 0, 42, 0
3, 27120, Note_on_c, 0, 49, 43
3, 27240, Note_on_c, 0, 49, 0
3, 27240, Note_on_c, 0, 57, 43
3, 27360, Note_on_c, 0, 57, 0
3, 27960, Note_on_c, 0, 42, 38
3, 28080, Note_on_c, 0, 42, 0
3, 28080, Note_on_c, 0, 49, 46
3, 28200, Note_on_c, 0, 49, 0
3, 28200, Note_on_c, 0, 59, 46
3, 28320, Note_on_c, 0, 59, 0
3, 28440, Note_on_c, 0, 42, 38
3, 28560, Note_on_c, 0, 42, 0
3, 28560, Note_on_c, 0, 49, 44
3, 28680, Note_on_c, 0, 49, 0
3, 28680, Note_on_c, 0, 59, 44
3, 28800, Note_on_c, 0, 59, 0
3, 28920, Note_on_c, 0, 42, 38
3, 29040, Note_on_c, 0, 42, 0
3, 29040, Note_on_c, 0, 49, 44
3, 29160, Note_on_c, 0, 49, 0
3, 29160, Note_on_c, 0, 57, 44
3, 29280, Note_on_c, 0, 57, 0
3, 29880, Note_on_c, 0, 54, 38
3, 30000, Note_on_c, 0, 54, 0
3, 30000, Note_on_c, 0, 61, 44
3, 30120, Note_on_c, 0, 69, 44
3, 30240, Note_on_c, 0, 69, 0
3, 30720, Note_on_c, 0, 61, 0
3, 30840, Note_on_c, 0, 52, 36
3, 30960, Note_on_c, 0, 52, 0
3, 30960, Note_on_c, 0, 60, 36
3, 31080, Note_on_c, 0, 60, 0
3, 31080, Note_on_c, 0, 67, 36
3, 31200, Note_on_c, 0, 67, 0
3, 32760, Note_on_c, 0, 54, 40
3, 32880, Note_on_c, 0, 54, 0
3, 32880, Note_on_c, 0, 64, 43
3, 33000, Note_on_c, 0, 64, 0
3, 33240, Note_on_c, 0, 54, 40
3, 33360, Note_on_c, 0, 54, 0
3, 33360, Note_on_c, 0, 66, 43
3, 33480, Note_on_c, 0, 66, 0
3, 33720, Note_on_c, 0, 54, 38
3, 33840, Note_on_c, 0, 54, 0
3, 33840, Note_on_c, 0, 62, 46
3, 33960, Note_on_c, 0, 62, 0
3, 34200, Note_on_c, 0, 54, 38
3, 34320, Note_on_c, 0, 54, 0
3, 34320, Note_on_c, 0, 64, 44
3, 34440, Note_on_c, 0, 64, 0
3, 34680, Note_on_c, 0, 47, 40
3, 34800, Note_on_c, 0, 47, 0
3, 34800, Note_on_c, 0, 54, 42
3, 34920, Note_on_c, 0, 54, 0
3, 34920, Note_on_c, 0, 62, 42
3, 35040, Note_on_c, 0, 62, 0
3, 35640, Note_on_c, 0, 47, 34
3, 35760, Note_on_c, 0, 47, 0
3, 35760, Note_on_c, 0, 54, 41
3, 35880, Note_on_c, 0, 54, 0
3, 35880, Note_on_c, 0, 64, 41
3, 36000, Note_on_c, 0, 64, 0
3, 36120, Note_on_c, 0, 47, 33
3, 36240, Note_on_c, 0, 47, 0
3, 36240, Note_on_c, 0, 54, 38
3, 36360, Note_on_c, 0, 54, 0
3, 36360, Note_on_c, 0, 64, 37
3, 36480, Note_on_c, 0, 64, 0
3, 36600, Note_on_c, 0, 47, 27
3, 36720, Note_on_c, 0, 47, 0
3, 36720, Note_on_c, 0, 54, 28
3, 36840, Note_on_c, 0, 54, 0
3, 36840, Note_on_c, 0, 63, 28
3, 36960, Note_on_c, 0, 63, 0
3, 37560, Note_on_c, 0, 47, 23
3, 37680, Note_on_c, 0, 47, 0
3, 37680, Note_on_c, 0, 54, 28
3, 37800, Note_on_c, 0, 54, 0
3, 37800, Note_on_c, 0, 64, 28
3, 37920, Note_on_c, 0, 64, 0
3, 38040, Note_on_c, 0, 47, 22
3, 38160, Note_on_c, 0, 47, 0
3, 38160, Note_on_c, 0, 54, 26
3, 38280, Note_on_c, 0, 54, 0
3, 38280, Note_on_c, 0, 64, 26
3, 38400, Note_on_c, 0, 64, 0
3, 38520, Note_on_c, 0, 47, 27
3, 38640, Note_on_c, 0, 47, 0
3, 38640, Note_on_c, 0, 54, 31
3, 38760, Note_on_c, 0, 54, 0
3, 38760, Note_on_c, 0, 63, 31
3, 38880, Note_on_c, 0, 63, 0
3, 39480, Note_on_c, 0, 47, 27
3, 39600, Note_on_c, 0, 47, 0
3, 39600, Note_on_c, 0, 54, 31
3, 39720, Note_on_c, 0, 54, 0
3, 39720, Note_on_c, 0, 63, 31
3, 39840, Note_on_c, 0, 63, 0
3, 40440, Note_on_c, 0, 47, 32
3, 40560, Note_on_c, 0, 47, 0
3, 40560, Note_on_c, 0, 54, 34
3, 40680, Note_on_c, 0, 54, 0
3, 40680, Note_on_c, 0, 62, 37
3, 40800, Note_on_c, 0, 62, 0
3, 41400, Note_on_c, 0, 47, 32
3, 41520, Note_on_c, 0, 47, 0
3, 41520, Note_on_c, 0, 55, 34
3, 41640, Note_on_c, 0, 55, 0
3, 41640, Note_on_c, 0, 62, 37
3, 41760, Note_on_c, 0, 62, 0
3, 42240, Note_on_c, 0, 38, 31
3, 42240, Note_on_c, 0, 50, 36
3, 42360, Note_on_c, 0, 50, 0
3, 42360, Note_on_c, 0, 38, 0
3, 42360, Note_on_c, 0, 56, 36
3, 42480, Note_on_c, 0, 56, 0
3, 42480, Note_on_c, 0, 59, 36
3, 42600, Note_on_c, 0, 59, 0
3, 42600, Note_on_c, 0, 66, 45
3, 42720, Note_on_c, 0, 66, 0
3, 43800, Note_on_c, 0, 49, 40
3, 43920, Note_on_c, 0, 49, 0
3, 43920, Note_on_c, 0, 57, 44
3, 44040, Note_on_c, 0, 57, 0
3, 44040, Note_on_c, 0, 64, 40
3, 44160, Note_on_c, 0, 64, 0
3, 44280, Note_on_c, 0, 46, 40
3, 44400, Note_on_c, 0, 46, 0
3, 44400, Note_on_c, 0, 52, 43
3, 44520, Note_on_c, 0, 52, 0
3, 44520, Note_on_c, 0, 61, 40
3, 44640, Note_on_c, 0, 61, 0
3, 44760, Note_on_c, 0, 47, 40
3, 44880, Note_on_c, 0, 47, 0
3, 44880, Note_on_c, 0, 52, 43
3, 45000, Note_on_c, 0, 52, 0
3, 45000, Note_on_c, 0, 62, 40
3, 45120, Note_on_c, 0, 62, 0
3, 45240, Note_on_c, 0, 46, 38
3, 45360, Note_on_c, 0, 46, 0
3, 45360, Note_on_c, 0, 52, 46
3, 45480, Note_on_c, 0, 52, 0
3, 45480, Note_on_c, 0, 61, 38
3, 45600, Note_on_c, 0, 61, 0
3, 45720, Note_on_c, 0, 47, 38
3, 45840, Note_on_c, 0, 47, 0
3, 45840, Note_on_c, 0, 52, 44
3, 45960, Note_on_c, 0, 52, 0
3, 45960, Note_on_c, 0, 62, 38
3, 46080, Note_on_c, 0, 62, 0
3, 46200, Note_on_c, 0, 50, 36
3, 46320, Note_on_c, 0, 50, 0
3, 46320, Note_on_c, 0, 56, 36
3, 46440, Note_on_c, 0, 56, 0
3, 46440, Note_on_c, 0, 59, 36
3, 46560, Note_on_c, 0, 59, 0
3, 46560, Note_on_c, 0, 66, 45
3, 46680, Note_on_c, 0, 66, 0
3, 47640, Note_on_c, 0, 49, 40
3, 47760, Note_on_c, 0, 49, 0
3, 47760, Note_on_c, 0, 57, 44
3, 47880, Note_on_c, 0, 57, 0
3, 47880, Note_on_c, 0, 64, 40
3, 48000, Note_on_c, 0, 64, 0
3, 48120, Note_on_c, 0, 57, 39
3, 48240, Note_on_c, 0, 57, 0
3, 48240, Note_on_c, 0, 63, 39
3, 48360, Note_on_c, 0, 63, 0
3, 48360, Note_on_c, 0, 66, 40
3, 48480, Note_on_c, 0, 66, 0
3, 48480, Note_on_c, 0, 73, 50
3, 48600, Note_on_c, 0, 73, 0
3, 49560, Note_on_c, 0, 56, 46
3, 49680, Note_on_c, 0, 56, 0
3, 49680, Note_on_c, 0, 64, 54
3, 49800, Note_on_c, 0, 64, 0
3, 49800, Note_on_c, 0, 71, 49
3, 49920, Note_on_c, 0, 71, 0
3, 50040, Note_on_c, 0, 62, 44
3, 50160, Note_on_c, 0, 62, 0
3, 50160, Note_on_c, 0, 68, 48
3, 50280, Note_on_c, 0, 68, 0
3, 50280, Note_on_c, 0, 71, 51
3, 50400, Note_on_c, 0, 71, 0
3, 50400, Note_on_c, 0, 78, 55
3, 50520, Note_on_c, 0, 78, 0
3, 51480, Note_on_c, 0, 61, 48
3, 51600, Note_on_c, 0, 61, 0
3, 51600, Note_on_c, 0, 69, 54
3, 51720, Note_on_c, 0, 69, 0
3, 51720, Note_on_c, 0, 76, 49
3, 51838, Note_on_c, 0, 76, 0
3, 51960, Note_on_c, 0, 52, 45
3, 52080, Note_on_c, 0, 52, 0
3, 52080, Note_on_c, 0, 61, 47
3, 52200, Note_on_c, 0, 61, 0
3, 52200, Note_on_c, 0, 69, 43
3, 52320, Note_on_c, 0, 69, 0
3, 52920, Note_on_c, 0, 52, 35
3, 53040, Note_on_c, 0, 52, 0
3, 53040, Note_on_c, 0, 60, 41
3, 53160, Note_on_c, 0, 60, 0
3, 53160, Note_on_c, 0, 69, 34
3, 53280, Note_on_c, 0, 69, 0
3, 53880, Note_on_c, 0, 52, 30
3, 54000, Note_on_c, 0, 52, 0
3, 54000, Note_on_c, 0, 59, 31
3, 54120, Note_on_c, 0, 59, 0
3, 54120, Note_on_c, 0, 68, 28
3, 54240, Note_on_c, 0, 68, 0
3, 54840, Note_on_c, 0, 45, 24
3, 54960, Note_on_c, 0, 45, 0
3, 54960, Note_on_c, 0, 52, 29
3, 55080, Note_on_c, 0, 52, 0
3, 55200, Note_on_c, 0, 33, 34
3, 55320, Note_on_c, 0, 33, 0
3, 55800, Note_on_c, 0, 47, 36
3, 55920, Note_on_c, 0, 47, 0
3, 55920, Note_on_c, 0, 55, 36
3, 56040, Note_on_c, 0, 55, 0
3, 56040, Note_on_c, 0, 62, 36
3, 56160, Note_on_c, 0, 62, 0
3, 57720, Note_on_c, 0, 49, 40
3, 57840, Note_on_c, 0, 49, 0
3, 57840, Note_on_c, 0, 59, 43
3, 57960, Note_on_c, 0, 59, 0
3, 58200, Note_on_c, 0, 49, 40
3, 58320, Note_on_c, 0, 49, 0
3, 58320, Note_on_c, 0, 61, 43
3, 58440, Note_on_c, 0, 61, 0
3, 58680, Note_on_c, 0, 49, 38
3, 58800, Note_on_c, 0, 49, 0
3, 58800, Note_on_c, 0, 57, 46
3, 58920, Note_on_c, 0, 57, 0
3, 59160, Note_on_c, 0, 49, 38
3, 59280, Note_on_c, 0, 49, 0
3, 59280, Note_on_c, 0, 59, 44
3, 59400, Note_on_c, 0, 59, 0
3, 59640, Note_on_c, 0, 42, 40
3, 59760, Note_on_c, 0, 42, 0
3, 59760, Note_on_c, 0, 49, 43
3, 59880, Note_on_c, 0, 49, 0
3, 59880, Note_on_c, 0, 57, 43
3, 60000, Note_on_c, 0, 57, 0
3, 60600, Note_on_c, 0, 42, 38
3, 60720, Note_on_c, 0, 42, 0
3, 60720, Note_on_c, 0, 49, 46
3, 60840, Note_on_c, 0, 49, 0
3, 60840, Note_on_c, 0, 59, 46
3, 60960, Note_on_c, 0, 59, 0
3, 61080, Note_on_c, 0, 42, 38
3, 61200, Note_on_c, 0, 42, 0
3, 61200, Note_on_c, 0, 49, 44
3, 61320, Note_on_c, 0, 49, 0
3, 61320, Note_on_c, 0, 59, 44
3, 61440, Note_on_c, 0, 59, 0
3, 61560, Note_on_c, 0, 42, 38
3, 61680, Note_on_c, 0, 42, 0
3, 61680, Note_on_c, 0, 49, 44
3, 61800, Note_on_c, 0, 49, 0
3, 61800, Note_on_c, 0, 57, 44
3, 61920, Note_on_c, 0, 57, 0
3, 62520, Note_on_c, 0, 54, 38
3, 62640, Note_on_c, 0, 54, 0
3, 62640, Note_on_c, 0, 61, 44
3, 62760, Note_on_c, 0, 69, 44
3, 62880, Note_on_c, 0, 69, 0
3, 63360, Note_on_c, 0, 61, 0
3, 63480, Note_on_c, 0, 52, 36
3, 63600, Note_on_c, 0, 52, 0
3, 63600, Note_on_c, 0, 60, 36
3, 63720, Note_on_c, 0, 60, 0
3, 63720, Note_on_c, 0, 67, 36
3, 63840, Note_on_c, 0, 67, 0
3, 65400, Note_on_c, 0, 54, 40
3, 65520, Note_on_c, 0, 54, 0
3, 65520, Note_on_c, 0, 64, 43
3, 65640, Note_on_c, 0, 64, 0
3, 65880, Note_on_c, 0, 54, 40
3, 66000, Note_on_c, 0, 54, 0
3, 66000, Note_on_c, 0, 66, 43
3, 66120, Note_on_c, 0, 66, 0
3, 66360, Note_on_c, 0, 54, 38
3, 66480, Note_on_c, 0, 54, 0
3, 66480, Note_on_c, 0, 62, 46
3, 66600, Note_on_c, 0, 62, 0
3, 66840, Note_on_c, 0, 54, 38
3, 66960, Note_on_c, 0, 54, 0
3, 66960, Note_on_c, 0, 64, 44
3, 67080, Note_on_c, 0, 64, 0
3, 67320, Note_on_c, 0, 47, 40
3, 67440, Note_on_c, 0, 47, 0
3, 67440, Note_on_c, 0, 54, 43
3, 67560, Note_on_c, 0, 54, 0
3, 67560, Note_on_c, 0, 62, 43
3, 67680, Note_on_c, 0, 62, 0
3, 68280, Note_on_c, 0, 47, 35
3, 68400, Note_on_c, 0, 47, 0
3, 68400, Note_on_c, 0, 54, 42
3, 68520, Note_on_c, 0, 54, 0
3, 68520, Note_on_c, 0, 64, 41
3, 68640, Note_on_c, 0, 64, 0
3, 68760, Note_on_c, 0, 47, 33
3, 68880, Note_on_c, 0, 47, 0
3, 68880, Note_on_c, 0, 54, 38
3, 69000, Note_on_c, 0, 54, 0
3, 69000, Note_on_c, 0, 64, 38
3, 69120, Note_on_c, 0, 64, 0
3, 69240, Note_on_c, 0, 47, 27
3, 69360, Note_on_c, 0, 47, 0
3, 69360, Note_on_c, 0, 54, 28
3, 69480, Note_on_c, 0, 54, 0
3, 69480, Note_on_c, 0, 63, 28
3, 69600, Note_on_c, 0, 63, 0
3, 70200, Note_on_c, 0, 47, 23
3, 70320, Note_on_c, 0, 47, 0
3, 70320, Note_on_c, 0, 54, 28
3, 70440, Note_on_c, 0, 54, 0
3, 70440, Note_on_c, 0, 64, 28
3, 70560, Note_on_c, 0, 64, 0
3, 70680, Note_on_c, 0, 47, 22
3, 70800, Note_on_c, 0, 47, 0
3, 70800, Note_on_c, 0, 54, 26
3, 70920, Note_on_c, 0, 54, 0
3, 70920, Note_on_c, 0, 64, 26
3, 71040, Note_on_c, 0, 64, 0
3, 71160, Note_on_c, 0, 47, 27
3, 71280, Note_on_c, 0, 47, 0
3, 71280, Note_on_c, 0, 54, 31
3, 71400, Note_on_c, 0, 54, 0
3, 71400, Note_on_c, 0, 63, 31
3, 71520, Note_on_c, 0, 63, 0
3, 72120, Note_on_c, 0, 47, 27
3, 72240, Note_on_c, 0, 47, 0
3, 72240, Note_on_c, 0, 54, 31
3, 72360, Note_on_c, 0, 54, 0
3, 72360, Note_on_c, 0, 63, 31
3, 72480, Note_on_c, 0, 63, 0
3, 73080, Note_on_c, 0, 47, 32
3, 73200, Note_on_c, 0, 47, 0
3, 73200, Note_on_c, 0, 54, 34
3, 73320, Note_on_c, 0, 54, 0
3, 73320, Note_on_c, 0, 62, 37
3, 73440, Note_on_c, 0, 62, 0
3, 74040, Note_on_c, 0, 47, 32
3, 74160, Note_on_c, 0, 47, 0
3, 74160, Note_on_c, 0, 55, 34
3, 74280, Note_on_c, 0, 55, 0
3, 74280, Note_on_c, 0, 62, 37
3, 74400, Note_on_c, 0, 62, 0
3, 74880, Note_on_c, 0, 38, 31
3, 74880, Note_on_c, 0, 50, 36
3, 75000, Note_on_c, 0, 50, 0
3, 75000, Note_on_c, 0, 38, 0
3, 75000, Note_on_c, 0, 56, 36
3, 75120, Note_on_c, 0, 56, 0
3, 75120, Note_on_c, 0, 59, 36
3, 75240, Note_on_c, 0, 59, 0
3, 75240, Note_on_c, 0, 66, 45
3, 75360, Note_on_c, 0, 66, 0
3, 76440, Note_on_c, 0, 49, 40
3, 76560, Note_on_c, 0, 49, 0
3, 76560, Note_on_c, 0, 57, 44
3, 76680, Note_on_c, 0, 57, 0
3, 76680, Note_on_c, 0, 64, 40
3, 76800, Note_on_c, 0, 64, 0
3, 76920, Note_on_c, 0, 46, 40
3, 77040, Note_on_c, 0, 46, 0
3, 77040, Note_on_c, 0, 52, 43
3, 77160, Note_on_c, 0, 52, 0
3, 77160, Note_on_c, 0, 61, 40
3, 77280, Note_on_c, 0, 61, 0
3, 77400, Note_on_c, 0, 47, 40
3, 77520, Note_on_c, 0, 47, 0
3, 77520, Note_on_c, 0, 52, 43
3, 77640, Note_on_c, 0, 52, 0
3, 77640, Note_on_c, 0, 62, 40
3, 77760, Note_on_c, 0, 62, 0
3, 77880, Note_on_c, 0, 46, 38
3, 78000, Note_on_c, 0, 46, 0
3, 78000, Note_on_c, 0, 52, 46
3, 78120, Note_on_c, 0, 52, 0
3, 78120, Note_on_c, 0, 61, 38
3, 78240, Note_on_c, 0, 61, 0
3, 78360, Note_on_c, 0, 47, 38
3, 78480, Note_on_c, 0, 47, 0
3, 78480, Note_on_c, 0, 52, 44
3, 78600, Note_on_c, 0, 52, 0
3, 78600, Note_on_c, 0, 62, 38
3, 78720, Note_on_c, 0, 62, 0
3, 78840, Note_on_c, 0, 50, 36
3, 78960, Note_on_c, 0, 50, 0
3, 78960, Note_on_c, 0, 56, 36
3, 79080, Note_on_c, 0, 56, 0
3, 79080, Note_on_c, 0, 59, 36
3, 79200, Note_on_c, 0, 59, 0
3, 79200, Note_on_c, 0, 66, 45
3, 79320, Note_on_c, 0, 66, 0
3, 80280, Note_on_c, 0, 49, 40
3, 80400, Note_on_c, 0, 49, 0
3, 80400, Note_on_c, 0, 57, 44
3, 80520, Note_on_c, 0, 57, 0
3, 80520, Note_on_c, 0, 64, 40
3, 80640, Note_on_c, 0, 64, 0
3, 80760, Note_on_c, 0, 57, 39
3, 80880, Note_on_c, 0, 57, 0
3, 80880, Note_on_c, 0, 63, 39
3, 81000, Note_on_c, 0, 63, 0
3, 81000, Note_on_c, 0, 66, 40
3, 81120, Note_on_c, 0, 66, 0
3, 81120, Note_on_c, 0, 73, 50
3, 81240, Note_on_c, 0, 73, 0
3, 82200, Note_on_c, 0, 56, 46
3, 82320, Note_on_c, 0, 56, 0
3, 82320, Note_on_c, 0, 64, 54
3, 82440, Note_on_c, 0, 64, 0
3, 82440, Note_on_c, 0, 71, 49
3, 82560, Note_on_c, 0, 71, 0
3, 82680, Note_on_c, 0, 62, 49
3, 82800, Note_on_c, 0, 62, 0
3, 82800, Note_on_c, 0, 68, 52
3, 82920, Note_on_c, 0, 68, 0
3, 82920, Note_on_c, 0, 71, 56
3, 83040, Note_on_c, 0, 71, 0
3, 83040, Note_on_c, 0, 78, 59
3, 83160, Note_on_c, 0, 78, 0
3, 84120, Note_on_c, 0, 61, 52
3, 84240, Note_on_c, 0, 61, 0
3, 84240, Note_on_c, 0, 69, 60
3, 84360, Note_on_c, 0, 69, 0
3, 84360, Note_on_c, 0, 76, 53
3, 84478, Note_on_c, 0, 76, 0
3, 84600, Note_on_c, 0, 52, 45
3, 84720, Note_on_c, 0, 52, 0
3, 84720, Note_on_c, 0, 61, 48
3, 84840, Note_on_c, 0, 61, 0
3, 84840, Note_on_c, 0, 69, 44
3, 84960, Note_on_c, 0, 69, 0
3, 85560, Note_on_c, 0, 52, 37
3, 85680, Note_on_c, 0, 52, 0
3, 85680, Note_on_c, 0, 60, 44
3, 85800, Note_on_c, 0, 60, 0
3, 85800, Note_on_c, 0, 69, 36
3, 85920, Note_on_c, 0, 69, 0
3, 86520, Note_on_c, 0, 52, 33
3, 86640, Note_on_c, 0, 52, 0
3, 86640, Note_on_c, 0, 59, 35
3, 86760, Note_on_c, 0, 59, 0
3, 86760, Note_on_c, 0, 68, 32
3, 86880, Note_on_c, 0, 68, 0
3, 88440, Note_on_c, 0, 40, 29
3, 88560, Note_on_c, 0, 40, 0
3, 88560, Note_on_c, 0, 49, 33
3, 88680, Note_on_c, 0, 49, 0
3, 88680, Note_on_c, 0, 57, 30
3, 88800, Note_on_c, 0, 57, 0
3, 89400, Note_on_c, 0, 40, 28
3, 89520, Note_on_c, 0, 40, 0
3, 89520, Note_on_c, 0, 48, 31
3, 89640, Note_on_c, 0, 48, 0
3, 89640, Note_on_c, 0, 57, 30
3, 89760, Note_on_c, 0, 57, 0
3, 90360, Note_on_c, 0, 40, 27
3, 90480, Note_on_c, 0, 40, 0
3, 90480, Note_on_c, 0, 47, 30
3, 90600, Note_on_c, 0, 47, 0
3, 90600, Note_on_c, 0, 56, 24
3, 90720, Note_on_c, 0, 56, 0
3, 91320, Note_on_c, 0, 33, 28
3, 91440, Note_on_c, 0, 33, 0
3, 91440, Note_on_c, 0, 40, 34
3, 91560, Note_on_c, 0, 40, 0
3, 91680, Note_on_c, 0, 21, 47
3, 91920, Note_on_c, 0, 21, 0
3, 91920, End_track
4, 0, Start_track
4, 0, Title_t, "Pedale"
4, 0, Program_c, 0, 0
4, 0, Control_c, 0, 64, 127
4, 960, Control_c, 0, 64, 0
4, 1526, Control_c, 0, 64, 127
4, 1925, Control_c, 0, 64, 0
4, 2046, Control_c, 0, 64, 127
4, 2410, Control_c, 0, 64, 0
4, 2486, Control_c, 0, 64, 127
4, 2892, Control_c, 0, 64, 0
4, 2983, Control_c, 0, 64, 127
4, 3373, Control_c, 0, 64, 0
4, 3440, Control_c, 0, 64, 127
4, 3840, Control_c, 0, 64, 0
4, 3920, Control_c, 0, 64, 127
4, 4800, Control_c, 0, 64, 0
4, 5366, Control_c, 0, 64, 127
4, 5760, Control_c, 0, 64, 0
4, 5840, Control_c, 0, 64, 127
4, 6720, Control_c, 0, 64, 0
4, 7286, Control_c, 0, 64, 127
4, 7685, Control_c, 0, 64, 0
4, 7806, Control_c, 0, 64, 127
4, 8652, Control_c, 0, 64, 0
4, 8743, Control_c, 0, 64, 127
4, 9605, Control_c, 0, 64, 0
4, 9726, Control_c, 0, 64, 127
4, 10572, Control_c, 0, 64, 0
4, 10663, Control_c, 0, 64, 127
4, 11172, Control_c, 0, 64, 0
4, 11520, Control_c, 0, 64, 127
4, 12480, Control_c, 0, 64, 0
4, 13046, Control_c, 0, 64, 127
4, 13445, Control_c, 0, 64, 0
4, 13566, Control_c, 0, 64, 127
4, 13930, Control_c, 0, 64, 0
4, 14006, Control_c, 0, 64, 127
4, 14412, Control_c, 0, 64, 0
4, 14503, Control_c, 0, 64, 127
4, 14893, Control_c, 0, 64, 0
4, 14960, Control_c, 0, 64, 127
4, 15360, Control_c, 0, 64, 0
4, 15440, Control_c, 0, 64, 127
4, 16320, Control_c, 0, 64, 0
4, 16886, Control_c, 0, 64, 127
4, 17280, Control_c, 0, 64, 0
4, 17360, Control_c, 0, 64, 127
4, 18240, Control_c, 0, 64, 0
4, 18806, Control_c, 0, 64, 127
4, 19205, Control_c, 0, 64, 0
4, 19326, Control_c, 0, 64, 127
4, 20172, Control_c, 0, 64, 0
4, 20263, Control_c, 0, 64, 127
4, 21125, Control_c, 0, 64, 0
4, 21246, Control_c, 0, 64, 127
4, 22092, Control_c, 0, 64, 0
4, 22183, Control_c, 0, 64, 127
4, 22692, Control_c, 0, 64, 0
4, 23040, Control_c, 0, 64, 127
4, 24965, Control_c, 0, 64, 0
4, 25086, Control_c, 0, 64, 127
4, 25450, Control_c, 0, 64, 0
4, 25526, Control_c, 0, 64, 127
4, 25932, Control_c, 0, 64, 0
4, 26023, Control_c, 0, 64, 127
4, 26413, Control_c, 0, 64, 0
4, 26480, Control_c, 0, 64, 127
4, 26885, Control_c, 0, 64, 0
4, 27006, Control_c, 0, 64, 127
4, 27852, Control_c, 0, 64, 0
4, 27943, Control_c, 0, 64, 127
4, 28800, Control_c, 0, 64, 0
4, 28920, Control_c, 0, 64, 127
4, 30720, Control_c, 0, 64, 0
4, 30840, Control_c, 0, 64, 127
4, 32645, Control_c, 0, 64, 0
4, 32766, Control_c, 0, 64, 127
4, 33130, Control_c, 0, 64, 0
4, 33206, Control_c, 0, 64, 127
4, 33612, Control_c, 0, 64, 0
4, 33703, Control_c, 0, 64, 127
4, 34093, Control_c, 0, 64, 0
4, 34160, Control_c, 0, 64, 127
4, 34565, Control_c, 0, 64, 0
4, 34686, Control_c, 0, 64, 127
4, 35532, Control_c, 0, 64, 0
4, 35623, Control_c, 0, 64, 127
4, 36485, Control_c, 0, 64, 0
4, 36606, Control_c, 0, 64, 127
4, 37452, Control_c, 0, 64, 0
4, 37543, Control_c, 0, 64, 127
4, 38400, Control_c, 0, 64, 0
4, 38520, Control_c, 0, 64, 127
4, 39369, Control_c, 0, 64, 0
4, 39457, Control_c, 0, 64, 127
4, 40332, Control_c, 0, 64, 0
4, 40518, Control_c, 0, 64, 127
4, 41292, Control_c, 0, 64, 0
4, 41492, Control_c, 0, 64, 127
4, 42246, Control_c, 0, 64, 0
4, 42320, Control_c, 0, 64, 127
4, 43200, Control_c, 0, 64, 0
4, 43766, Control_c, 0, 64, 127
4, 44165, Control_c, 0, 64, 0
4, 44286, Control_c, 0, 64, 127
4, 44650, Control_c, 0, 64, 0
4, 44726, Control_c, 0, 64, 127
4, 45132, Control_c, 0, 64, 0
4, 45223, Control_c, 0, 64, 127
4, 45613, Control_c, 0, 64, 0
4, 45680, Control_c, 0, 64, 127
4, 46080, Control_c, 0, 64, 0
4, 46160, Control_c, 0, 64, 127
4, 47040, Control_c, 0, 64, 0
4, 47606, Control_c, 0, 64, 127
4, 48000, Control_c, 0, 64, 0
4, 48080, Control_c, 0, 64, 127
4, 48960, Control_c, 0, 64, 0
4, 49526, Control_c, 0, 64, 127
4, 49920, Control_c, 0, 64, 0
4, 50000, Control_c, 0, 64, 127
4, 50880, Control_c, 0, 64, 0
4, 51446, Control_c, 0, 64, 127
4, 51845, Control_c, 0, 64, 0
4, 51966, Control_c, 0, 64, 127
4, 52812, Control_c, 0, 64, 0
4, 52903, Control_c, 0, 64, 127
4, 53765, Control_c, 0, 64, 0
4, 53886, Control_c, 0, 64, 127
4, 54732, Control_c, 0, 64, 0
4, 54823, Control_c, 0, 64, 127
4, 55332, Control_c, 0, 64, 0
4, 55680, Control_c, 0, 64, 127
4, 57605, Control_c, 0, 64, 0
4, 57726, Control_c, 0, 64, 127
4, 58090, Control_c, 0, 64, 0
4, 58166, Control_c, 0, 64, 127
4, 58572, Control_c, 0, 64, 0
4, 58663, Control_c, 0, 64, 127
4, 59053, Control_c, 0, 64, 0
4, 59120, Control_c, 0, 64, 127
4, 59525, Control_c, 0, 64, 0
4, 59646, Control_c, 0, 64, 127
4, 60492, Control_c, 0, 64, 0
4, 60583, Control_c, 0, 64, 127
4, 61440, Control_c, 0, 64, 0
4, 61560, Control_c, 0, 64, 127
4, 63360, Control_c, 0, 64, 0
4, 63480, Control_c, 0, 64, 127
4, 65285, Control_c, 0, 64, 0
4, 65406, Control_c, 0, 64, 127
4, 65770, Control_c, 0, 64, 0
4, 65846, Control_c, 0, 64, 127
4, 66252, Control_c, 0, 64, 0
4, 66343, Control_c, 0, 64, 127
4, 66733, Control_c, 0, 64, 0
4, 66800, Control_c, 0, 64, 127
4, 67205, Control_c, 0, 64, 0
4, 67326, Control_c, 0, 64, 127
4, 68172, Control_c, 0, 64, 0
4, 68263, Control_c, 0, 64, 127
4, 69125, Control_c, 0, 64, 0
4, 69246, Control_c, 0, 64, 127
4, 70092, Control_c, 0, 64, 0
4, 70183, Control_c, 0, 64, 127
4, 71040, Control_c, 0, 64, 0
4, 71160, Control_c, 0, 64, 127
4, 72009, Control_c, 0, 64, 0
4, 72097, Control_c, 0, 64, 127
4, 72972, Control_c, 0, 64, 0
4, 73158, Control_c, 0, 64, 127
4, 73932, Control_c, 0, 64, 0
4, 74132, Control_c, 0, 64, 127
4, 74886, Control_c, 0, 64, 0
4, 74960, Control_c, 0, 64, 127
4, 75840, Control_c, 0, 64, 0
4, 76406, Control_c, 0, 64, 127
4, 76805, Control_c, 0, 64, 0
4, 76926, Control_c, 0, 64, 127
4, 77290, Control_c, 0, 64, 0
4, 77366, Control_c, 0, 64, 127
4, 77772, Control_c, 0, 64, 0
4, 77863, Control_c, 0, 64, 127
4, 78253, Control_c, 0, 64, 0
4, 78320, Control_c, 0, 64, 127
4, 78720, Control_c, 0, 64, 0
4, 78800, Control_c, 0, 64, 127
4, 79680, Control_c, 0, 64, 0
4, 80246, Control_c, 0, 64, 127
4, 80640, Control_c, 0, 64, 0
4, 80720, Control_c, 0, 64, 127
4, 81600, Control_c, 0, 64, 0
4, 82166, Control_c, 0, 64, 127
4, 82560, Control_c, 0, 64, 0
4, 82640, Control_c, 0, 64, 127
4, 83520, Control_c, 0, 64, 0
4, 84086, Control_c, 0, 64, 127
4, 84485, Control_c, 0, 64, 0
4, 84606, Control_c, 0, 64, 127
4, 85452, Control_c, 0, 64, 0
4, 85543, Control_c, 0, 64, 127
4, 86405, Control_c, 0, 64, 0
4, 86526, Control_c, 0, 64, 127
4, 87520, Control_c, 0, 64, 0
4, 88325, Control_c, 0, 64, 0
4, 88446, Control_c, 0, 64, 127
4, 89292, Control_c, 0, 64, 0
4, 89383, Control_c, 0, 64, 127
4, 90245, Control_c, 0, 64, 0
4, 90366, Control_c, 0, 64, 127
4, 91212, Control_c, 0, 64, 0
4, 91303, Control_c, 0, 64, 127
4, 92160, Control_c, 0, 64, 0
4, 92160, End_track
5, 0, Start_track
5, 0, Title_t, "Grieg: Lyric Pieces Op. 43 No. 1 - Butterfly"
5, 0, End_track
6, 0, Start_track
6, 0, Title_t, "Copyright © 2007 by Bernd Krueger"
6, 0, End_track
7, 0, Start_track
7, 0, Title_t, "http://www.piano-midi.de/"
7, 0, End_track
8, 0, Start_track
8, 0, Title_t, "Edition: 2012-11-04"
8, 0, End_track
9, 0, Start_track
9, 0, Title_t, "Spur 8"
9, 0, End_track
10, 0, Start_track
10, 0, Title_t, "Spur 9"
10, 0, End_track
11, 0, Start_track
11, 0, Title_t, "Spur 10"
11, 0, End_track
12, 0, Start_track
12, 0, Title_t, "Spur 11"
12, 0, End_track
13, 0, Start_track
13, 0, Title_t, "Spur 12"
13, 0, End_track
14, 0, Start_track
14, 0, Title_t, "Spur 13"
14, 0, End_track
15, 0, Start_track
15, 0, Title_t, "Spur 14"
15, 0, End_track
16, 0, Start_track
16, 0, Title_t, "Spur 15"
16, 0, End_track
17, 0, Start_track
17, 0, Title_t, "Spur 16"
17, 0, End_track
0, 0, End_of_file
