0, 0, Header, 1, 17, 480
1, 0, Start_track
1, 0, Title_t, "Grieg: Berceuse Opus 38 Nr. 1"
1, 0, Copyright_t, "Copyright © 2010 by Bernd Krueger"
1, 0, Text_t, "Allegretto tranquillo"
1, 0, Text_t, "Erstellt: 12.9.2012\012"
1, 0, Text_t, "Dauer: 2:38 Minuten\012"
1, 0, Time_signature, 2, 2, 24, 8
1, 0, Key_signature, 1, "major"
1, 0, Tempo, 936037
1, 1920, Tempo, 887574
1, 2240, Tempo, 974026
1, 2400, Tempo, 881057
1, 2720, Tempo, 1069519
1, 2880, Tempo, 936037
1, 3520, Tempo, 1041667
1, 3680, Tempo, 990099
1, 3840, Tempo, 928793
1, 4640, Tempo, 1088929
1, 4800, Tempo, 928793
1, 5600, Tempo, 1041667
1, 5760, Tempo, 928793
1, 5920, Tempo, 874636
1, 6080, Tempo, 928793
1, 6240, Tempo, 862069
1, 6400, Tempo, 887574
1, 6560, Tempo, 990099
1, 6720, Tempo, 936037
1, 7360, Tempo, 1050788
1, 7560, Tempo, 928793
1, 7680, Tempo, 928793
1, 8400, Tempo, 1050788
1, 8520, Tempo, 921659
1, 8640, Tempo, 921659
1, 9360, Tempo, 1060071
1, 9480, Tempo, 907716
1, 9600, Tempo, 887574
1, 9920, Tempo, 914634
1, 10080, Tempo, 881057
1, 10320, Tempo, 990099
1, 10440, Tempo, 981997
1, 10560, Tempo, 921659
1, 11280, Tempo, 1041667
1, 11400, Tempo, 914634
1, 11520, Tempo, 921659
1, 12240, Tempo, 1050788
1, 12360, Tempo, 958466
1, 12480, Tempo, 966184
1, 13200, Tempo, 1119403
1, 13320, Tempo, 1006711
1, 13760, Tempo, 1032702
1, 13920, Tempo, 1071620
1, 14160, Tempo, 1154068
1, 14240, Tempo, 1287554
1, 14280, Tempo, 1348618
1, 14400, Tempo, 1188354
1, 14880, Tempo, 1412097
1, 14940, Tempo, 1446132
1, 15360, Tempo, 936037
1, 17280, Tempo, 887574
1, 17600, Tempo, 974026
1, 17760, Tempo, 881057
1, 18080, Tempo, 1069519
1, 18240, Tempo, 936037
1, 18880, Tempo, 1041667
1, 19040, Tempo, 990099
1, 19200, Tempo, 928793
1, 20000, Tempo, 1088929
1, 20160, Tempo, 928793
1, 20960, Tempo, 1041667
1, 21120, Tempo, 928793
1, 21280, Tempo, 874636
1, 21440, Tempo, 928793
1, 21600, Tempo, 862069
1, 21760, Tempo, 887574
1, 21920, Tempo, 990099
1, 22080, Tempo, 936037
1, 22720, Tempo, 1050788
1, 22920, Tempo, 928793
1, 23040, Tempo, 928793
1, 23760, Tempo, 1050788
1, 23880, Tempo, 921659
1, 24000, Tempo, 921659
1, 24720, Tempo, 1060071
1, 24840, Tempo, 907716
1, 24960, Tempo, 887574
1, 25280, Tempo, 914634
1, 25440, Tempo, 881057
1, 25680, Tempo, 990099
1, 25800, Tempo, 981997
1, 25920, Tempo, 921659
1, 26640, Tempo, 1041667
1, 26760, Tempo, 914634
1, 26880, Tempo, 921659
1, 27600, Tempo, 1050788
1, 27720, Tempo, 958466
1, 27840, Tempo, 966184
1, 28560, Tempo, 1197605
1, 28680, Tempo, 1041667
1, 29120, Tempo, 1032702
1, 29160, Tempo, 1088929
1, 29280, Tempo, 1132289
1, 29520, Tempo, 1119403
1, 29600, Tempo, 1287554
1, 29640, Tempo, 1463772
1, 29760, Tempo, 1224740
1, 30240, Tempo, 1600427
1, 30720, Key_signature, -2, "major"
1, 30720, Tempo, 593296
1, 30720, Marker_t, "Con moto"
1, 30960, Tempo, 563275
1, 31080, Tempo, 621891
1, 31200, Tempo, 580327
1, 31440, Tempo, 613874
1, 31680, Tempo, 587487
1, 31920, Tempo, 556690
1, 32040, Tempo, 617856
1, 32160, Tempo, 580327
1, 32400, Tempo, 609942
1, 32520, Tempo, 617856
1, 32640, Tempo, 563275
1, 32880, Tempo, 537924
1, 33000, Tempo, 613874
1, 33120, Tempo, 563275
1, 33360, Tempo, 531915
1, 33480, Tempo, 594766
1, 33600, Tempo, 566572
1, 33840, Tempo, 534902
1, 33960, Tempo, 587487
1, 34080, Tempo, 609942
1, 34320, Tempo, 630054
1, 34440, Tempo, 679271
1, 34560, Tempo, 588293
1, 35280, Tempo, 659413
1, 35520, Tempo, 606122
1, 36000, Tempo, 705965
1, 36240, Tempo, 851185
1, 36480, Tempo, 789578
1, 38400, Tempo, 593296
1, 38640, Tempo, 563275
1, 38760, Tempo, 621891
1, 38880, Tempo, 580327
1, 39120, Tempo, 613874
1, 39360, Tempo, 587487
1, 39600, Tempo, 556690
1, 39720, Tempo, 617856
1, 39840, Tempo, 580327
1, 40080, Tempo, 609942
1, 40200, Tempo, 617856
1, 40320, Tempo, 563275
1, 40560, Tempo, 537924
1, 40680, Tempo, 613874
1, 40800, Tempo, 563275
1, 41040, Tempo, 531915
1, 41160, Tempo, 594766
1, 41280, Tempo, 566572
1, 41520, Tempo, 534902
1, 41640, Tempo, 587487
1, 41760, Tempo, 609942
1, 42000, Tempo, 630054
1, 42120, Tempo, 679271
1, 42240, Tempo, 609199
1, 42720, Tempo, 631645
1, 42960, Tempo, 678043
1, 43200, Tempo, 638366
1, 43680, Tempo, 722979
1, 43920, Tempo, 889021
1, 44160, Tempo, 805477
1, 46076, Tempo, 991899
1, 46080, Time_signature, 4, 2, 24, 8
1, 46115, Tempo, 983768
1, 46153, Tempo, 975768
1, 46192, Tempo, 967898
1, 46230, Tempo, 960154
1, 46268, Tempo, 952532
1, 46307, Tempo, 945031
1, 46345, Tempo, 937647
1, 46364, Tempo, 930377
1, 46403, Tempo, 923219
1, 46441, Tempo, 916170
1, 46480, Tempo, 909229
1, 46518, Tempo, 902391
1, 46556, Tempo, 895656
1, 46595, Tempo, 889021
1, 46614, Tempo, 882483
1, 46880, Tempo, 1025816
1, 47040, Tempo, 916170
1, 48000, Time_signature, 2, 2, 24, 8
1, 48960, Tempo, 936037
1, 50880, Tempo, 887574
1, 51200, Tempo, 974026
1, 51360, Tempo, 881057
1, 51680, Tempo, 1069519
1, 51840, Tempo, 936037
1, 52480, Tempo, 1041667
1, 52640, Tempo, 990099
1, 52800, Tempo, 928793
1, 53600, Tempo, 1088929
1, 53760, Tempo, 928793
1, 54560, Tempo, 1041667
1, 54720, Tempo, 928793
1, 54880, Tempo, 874636
1, 55040, Tempo, 928793
1, 55200, Tempo, 862069
1, 55360, Tempo, 887574
1, 55520, Tempo, 990099
1, 55680, Tempo, 936037
1, 56320, Tempo, 1050788
1, 56520, Tempo, 928793
1, 56640, Tempo, 928793
1, 56800, Tempo, 874636
1, 56960, Tempo, 928793
1, 57120, Tempo, 862069
1, 57280, Tempo, 887574
1, 57440, Tempo, 990099
1, 57600, Tempo, 936037
1, 58240, Tempo, 1050788
1, 58440, Tempo, 928793
1, 58560, Tempo, 889021
1, 58720, Tempo, 833449
1, 58880, Tempo, 882483
1, 59040, Tempo, 822030
1, 59200, Tempo, 845189
1, 59360, Tempo, 990099
1, 59520, Tempo, 876040
1, 60160, Tempo, 960154
1, 60360, Tempo, 928793
1, 60420, Tempo, 928793
1, 60480, Tempo, 851185
1, 61320, Tempo, 921659
1, 61380, Tempo, 928793
1, 61440, Tempo, 857265
1, 61680, Tempo, 810920
1, 61920, Tempo, 857265
1, 62280, Tempo, 921659
1, 62340, Tempo, 928793
1, 62400, Tempo, 789578
1, 62720, Tempo, 909229
1, 62880, Tempo, 784416
1, 63200, Tempo, 882483
1, 63240, Tempo, 921659
1, 63300, Tempo, 928793
1, 63360, Tempo, 779322
1, 63680, Tempo, 889021
1, 63720, Tempo, 937647
1, 63840, Tempo, 779322
1, 64140, Tempo, 1263424
1, 64260, Tempo, 1101119
1, 64320, Tempo, 923219
1, 64560, Tempo, 952532
1, 64800, Tempo, 902391
1, 65040, Tempo, 945031
1, 65220, Tempo, 1052816
1, 65280, Tempo, 937647
1, 65520, Tempo, 975768
1, 65760, Tempo, 937647
1, 66000, Tempo, 1043660
1, 66180, Tempo, 1052816
1, 66240, Tempo, 967898
1, 66480, Tempo, 1043660
1, 66720, Tempo, 1034661
1, 66960, Tempo, 1043660
1, 67080, Tempo, 1176701
1, 67200, Tempo, 1034661
1, 67440, Tempo, 1176701
1, 67680, Tempo, 1276867
1, 67920, Tempo, 1905367
1, 68040, Tempo, 1111317
1, 68160, Key_signature, 1, "major"
1, 68160, Tempo, 936037
1, 68160, Marker_t, "a tempo"
1, 70080, Tempo, 887574
1, 70400, Tempo, 974026
1, 70560, Tempo, 881057
1, 70880, Tempo, 1069519
1, 71040, Tempo, 936037
1, 71680, Tempo, 1041667
1, 71840, Tempo, 990099
1, 72000, Tempo, 928793
1, 72800, Tempo, 1088929
1, 72960, Tempo, 928793
1, 73760, Tempo, 1041667
1, 73920, Tempo, 928793
1, 74080, Tempo, 874636
1, 74240, Tempo, 928793
1, 74400, Tempo, 862069
1, 74560, Tempo, 887574
1, 74720, Tempo, 990099
1, 74880, Tempo, 936037
1, 75520, Tempo, 1050788
1, 75720, Tempo, 928793
1, 75840, Tempo, 928793
1, 76560, Tempo, 1050788
1, 76680, Tempo, 921659
1, 76800, Tempo, 921659
1, 77520, Tempo, 1060071
1, 77640, Tempo, 907716
1, 77760, Tempo, 887574
1, 78080, Tempo, 914634
1, 78240, Tempo, 881057
1, 78480, Tempo, 990099
1, 78600, Tempo, 981997
1, 78720, Tempo, 921659
1, 79440, Tempo, 1041667
1, 79560, Tempo, 914634
1, 79680, Tempo, 921659
1, 80400, Tempo, 1050788
1, 80520, Tempo, 958466
1, 80640, Tempo, 966184
1, 81360, Tempo, 1224740
1, 81480, Tempo, 1006711
1, 81600, Tempo, 1121705
1, 82020, Tempo, 1237369
1, 82080, Tempo, 1176701
1, 82320, Tempo, 1165275
1, 82380, Tempo, 1395673
1, 82400, Tempo, 1287554
1, 82440, Tempo, 1481847
1, 82560, Tempo, 1224740
1, 82800, Tempo, 1519372
1, 83040, Tempo, 1348618
1, 83040, End_track
2, 0, Start_track
2, 0, Title_t, "Piano right"
2, 0, Program_c, 0, 0
2, 0, Note_on_c, 0, 67, 40
2, 480, Note_on_c, 0, 67, 0
2, 480, Note_on_c, 0, 62, 32
2, 960, Note_on_c, 0, 62, 0
2, 960, Note_on_c, 0, 67, 38
2, 1440, Note_on_c, 0, 67, 0
2, 1440, Note_on_c, 0, 62, 30
2, 1920, Note_on_c, 0, 62, 0
2, 1920, Note_on_c, 0, 67, 37
2, 2080, Note_on_c, 0, 67, 0
2, 2080, Note_on_c, 0, 66, 33
2, 2160, Note_on_c, 0, 62, 28
2, 2240, Note_on_c, 0, 66, 0
2, 2240, Note_on_c, 0, 67, 35
2, 2400, Note_on_c, 0, 67, 0
2, 2400, Note_on_c, 0, 62, 0
2, 2400, Note_on_c, 0, 64, 28
2, 2400, Note_on_c, 0, 69, 39
2, 2560, Note_on_c, 0, 69, 0
2, 2560, Note_on_c, 0, 71, 32
2, 2640, Note_on_c, 0, 64, 0
2, 2640, Note_on_c, 0, 66, 23
2, 2720, Note_on_c, 0, 71, 0
2, 2720, Note_on_c, 0, 69, 32
2, 2880, Note_on_c, 0, 69, 0
2, 2880, Note_on_c, 0, 66, 0
2, 2880, Note_on_c, 0, 67, 38
2, 3360, Note_on_c, 0, 67, 0
2, 3360, Note_on_c, 0, 62, 34
2, 3720, Note_on_c, 0, 62, 0
2, 3720, Note_on_c, 0, 66, 33
2, 3780, Note_on_c, 0, 71, 36
2, 3840, Note_on_c, 0, 74, 38
2, 4320, Note_on_c, 0, 71, 0
2, 4320, Note_on_c, 0, 66, 0
2, 4320, Note_on_c, 0, 69, 33
2, 4320, Note_on_c, 0, 62, 28
2, 4680, Note_on_c, 0, 62, 0
2, 4680, Note_on_c, 0, 69, 0
2, 4680, Note_on_c, 0, 66, 33
2, 4740, Note_on_c, 0, 71, 36
2, 4800, Note_on_c, 0, 74, 0
2, 4800, Note_on_c, 0, 74, 38
2, 5280, Note_on_c, 0, 71, 0
2, 5280, Note_on_c, 0, 66, 0
2, 5280, Note_on_c, 0, 69, 33
2, 5280, Note_on_c, 0, 62, 28
2, 5640, Note_on_c, 0, 62, 0
2, 5640, Note_on_c, 0, 69, 0
2, 5640, Note_on_c, 0, 66, 33
2, 5700, Note_on_c, 0, 71, 36
2, 5760, Note_on_c, 0, 74, 0
2, 5760, Note_on_c, 0, 74, 38
2, 5920, Note_on_c, 0, 74, 0
2, 5920, Note_on_c, 0, 71, 0
2, 5920, Note_on_c, 0, 66, 0
2, 5920, Note_on_c, 0, 62, 26
2, 5920, Note_on_c, 0, 69, 31
2, 6080, Note_on_c, 0, 69, 0
2, 6080, Note_on_c, 0, 62, 0
2, 6080, Note_on_c, 0, 74, 31
2, 6080, Note_on_c, 0, 66, 23
2, 6240, Note_on_c, 0, 66, 0
2, 6240, Note_on_c, 0, 74, 0
2, 6240, Note_on_c, 0, 76, 41
2, 6240, Note_on_c, 0, 67, 31
2, 6400, Note_on_c, 0, 67, 0
2, 6400, Note_on_c, 0, 76, 0
2, 6400, Note_on_c, 0, 72, 27
2, 6400, Note_on_c, 0, 78, 36
2, 6560, Note_on_c, 0, 78, 0
2, 6560, Note_on_c, 0, 72, 0
2, 6560, Note_on_c, 0, 67, 24
2, 6560, Note_on_c, 0, 76, 32
2, 6600, Note_on_c, 0, 67, 0
2, 6640, Note_on_c, 0, 76, 0
2, 6640, Note_on_c, 0, 66, 33
2, 6680, Note_on_c, 0, 71, 36
2, 6720, Note_on_c, 0, 74, 38
2, 7200, Note_on_c, 0, 71, 0
2, 7200, Note_on_c, 0, 66, 0
2, 7200, Note_on_c, 0, 69, 33
2, 7200, Note_on_c, 0, 62, 28
2, 7560, Note_on_c, 0, 62, 0
2, 7560, Note_on_c, 0, 69, 0
2, 7620, Note_on_c, 0, 76, 38
2, 7680, Note_on_c, 0, 74, 0
2, 7680, Note_on_c, 0, 79, 44
2, 8160, Note_on_c, 0, 79, 0
2, 8160, Note_on_c, 0, 76, 0
2, 8160, Note_on_c, 0, 74, 34
2, 8160, Note_on_c, 0, 67, 28
2, 8580, Note_on_c, 0, 76, 38
2, 8640, Note_on_c, 0, 67, 0
2, 8640, Note_on_c, 0, 74, 0
2, 8640, Note_on_c, 0, 79, 44
2, 9120, Note_on_c, 0, 79, 0
2, 9120, Note_on_c, 0, 76, 0
2, 9120, Note_on_c, 0, 74, 34
2, 9120, Note_on_c, 0, 67, 28
2, 9540, Note_on_c, 0, 67, 0
2, 9540, Note_on_c, 0, 74, 0
2, 9540, Note_on_c, 0, 76, 34
2, 9600, Note_on_c, 0, 79, 37
2, 9760, Note_on_c, 0, 79, 0
2, 9760, Note_on_c, 0, 76, 0
2, 9760, Note_on_c, 0, 67, 28
2, 9760, Note_on_c, 0, 74, 33
2, 9880, Note_on_c, 0, 67, 0
2, 9920, Note_on_c, 0, 74, 0
2, 9920, Note_on_c, 0, 79, 40
2, 10080, Note_on_c, 0, 79, 0
2, 10080, Note_on_c, 0, 76, 28
2, 10080, Note_on_c, 0, 81, 44
2, 10240, Note_on_c, 0, 81, 0
2, 10240, Note_on_c, 0, 83, 39
2, 10320, Note_on_c, 0, 76, 0
2, 10320, Note_on_c, 0, 78, 23
2, 10400, Note_on_c, 0, 83, 0
2, 10400, Note_on_c, 0, 81, 38
2, 10500, Note_on_c, 0, 81, 0
2, 10500, Note_on_c, 0, 76, 38
2, 10560, Note_on_c, 0, 78, 0
2, 10560, Note_on_c, 0, 79, 44
2, 11040, Note_on_c, 0, 79, 0
2, 11040, Note_on_c, 0, 76, 0
2, 11040, Note_on_c, 0, 74, 34
2, 11040, Note_on_c, 0, 67, 28
2, 11400, Note_on_c, 0, 81, 36
2, 11460, Note_on_c, 0, 83, 41
2, 11520, Note_on_c, 0, 67, 0
2, 11520, Note_on_c, 0, 74, 0
2, 11520, Note_on_c, 0, 86, 52
2, 12000, Note_on_c, 0, 81, 0
2, 12000, Note_on_c, 0, 79, 33
2, 12000, Note_on_c, 0, 74, 28
2, 12360, Note_on_c, 0, 74, 0
2, 12360, Note_on_c, 0, 83, 0
2, 12360, Note_on_c, 0, 86, 0
2, 12360, Note_on_c, 0, 79, 0
2, 12360, Note_on_c, 0, 82, 36
2, 12420, Note_on_c, 0, 86, 41
2, 12480, Note_on_c, 0, 88, 52
2, 12960, Note_on_c, 0, 86, 0
2, 12960, Note_on_c, 0, 82, 0
2, 12960, Note_on_c, 0, 85, 33
2, 12960, Note_on_c, 0, 76, 28
2, 13320, Note_on_c, 0, 76, 0
2, 13320, Note_on_c, 0, 85, 0
2, 13320, Note_on_c, 0, 88, 0
2, 13320, Note_on_c, 0, 84, 36
2, 13380, Note_on_c, 0, 88, 42
2, 13440, Note_on_c, 0, 90, 52
2, 13920, Note_on_c, 0, 88, 0
2, 13920, Note_on_c, 0, 84, 0
2, 13920, Note_on_c, 0, 86, 33
2, 13920, Note_on_c, 0, 78, 28
2, 14280, Note_on_c, 0, 78, 0
2, 14280, Note_on_c, 0, 86, 0
2, 14280, Note_on_c, 0, 90, 0
2, 14280, Note_on_c, 0, 83, 41
2, 14340, Note_on_c, 0, 86, 44
2, 14400, Note_on_c, 0, 91, 48
2, 14880, Note_on_c, 0, 86, 0
2, 14880, Note_on_c, 0, 83, 0
2, 14880, Note_on_c, 0, 79, 33
2, 15300, Note_on_c, 0, 79, 0
2, 15360, Note_on_c, 0, 91, 0
2, 15360, Note_on_c, 0, 67, 36
2, 15840, Note_on_c, 0, 67, 0
2, 15840, Note_on_c, 0, 62, 28
2, 16320, Note_on_c, 0, 62, 0
2, 16320, Note_on_c, 0, 67, 34
2, 16800, Note_on_c, 0, 67, 0
2, 16800, Note_on_c, 0, 62, 27
2, 17280, Note_on_c, 0, 62, 0
2, 17280, Note_on_c, 0, 67, 33
2, 17440, Note_on_c, 0, 67, 0
2, 17440, Note_on_c, 0, 66, 29
2, 17520, Note_on_c, 0, 62, 25
2, 17600, Note_on_c, 0, 66, 0
2, 17600, Note_on_c, 0, 67, 31
2, 17760, Note_on_c, 0, 67, 0
2, 17760, Note_on_c, 0, 62, 0
2, 17760, Note_on_c, 0, 64, 25
2, 17760, Note_on_c, 0, 69, 35
2, 17920, Note_on_c, 0, 69, 0
2, 17920, Note_on_c, 0, 71, 28
2, 18000, Note_on_c, 0, 64, 0
2, 18000, Note_on_c, 0, 66, 20
2, 18080, Note_on_c, 0, 71, 0
2, 18080, Note_on_c, 0, 69, 28
2, 18240, Note_on_c, 0, 69, 0
2, 18240, Note_on_c, 0, 66, 0
2, 18240, Note_on_c, 0, 67, 34
2, 18720, Note_on_c, 0, 67, 0
2, 18720, Note_on_c, 0, 62, 30
2, 19080, Note_on_c, 0, 62, 0
2, 19080, Note_on_c, 0, 66, 29
2, 19140, Note_on_c, 0, 71, 32
2, 19200, Note_on_c, 0, 74, 34
2, 19680, Note_on_c, 0, 71, 0
2, 19680, Note_on_c, 0, 66, 0
2, 19680, Note_on_c, 0, 69, 29
2, 19680, Note_on_c, 0, 62, 25
2, 20040, Note_on_c, 0, 62, 0
2, 20040, Note_on_c, 0, 69, 0
2, 20040, Note_on_c, 0, 66, 33
2, 20100, Note_on_c, 0, 71, 36
2, 20160, Note_on_c, 0, 74, 0
2, 20160, Note_on_c, 0, 74, 38
2, 20640, Note_on_c, 0, 71, 0
2, 20640, Note_on_c, 0, 66, 0
2, 20640, Note_on_c, 0, 69, 33
2, 20640, Note_on_c, 0, 62, 28
2, 21000, Note_on_c, 0, 62, 0
2, 21000, Note_on_c, 0, 69, 0
2, 21000, Note_on_c, 0, 66, 33
2, 21060, Note_on_c, 0, 71, 36
2, 21120, Note_on_c, 0, 74, 0
2, 21120, Note_on_c, 0, 74, 38
2, 21280, Note_on_c, 0, 74, 0
2, 21280, Note_on_c, 0, 71, 0
2, 21280, Note_on_c, 0, 66, 0
2, 21280, Note_on_c, 0, 62, 26
2, 21280, Note_on_c, 0, 69, 31
2, 21440, Note_on_c, 0, 69, 0
2, 21440, Note_on_c, 0, 62, 0
2, 21440, Note_on_c, 0, 74, 31
2, 21440, Note_on_c, 0, 66, 23
2, 21600, Note_on_c, 0, 66, 0
2, 21600, Note_on_c, 0, 74, 0
2, 21600, Note_on_c, 0, 76, 41
2, 21600, Note_on_c, 0, 67, 31
2, 21760, Note_on_c, 0, 67, 0
2, 21760, Note_on_c, 0, 76, 0
2, 21760, Note_on_c, 0, 72, 27
2, 21760, Note_on_c, 0, 78, 36
2, 21920, Note_on_c, 0, 78, 0
2, 21920, Note_on_c, 0, 72, 0
2, 21920, Note_on_c, 0, 67, 24
2, 21920, Note_on_c, 0, 76, 32
2, 21960, Note_on_c, 0, 67, 0
2, 22000, Note_on_c, 0, 76, 0
2, 22000, Note_on_c, 0, 66, 33
2, 22040, Note_on_c, 0, 71, 36
2, 22080, Note_on_c, 0, 74, 38
2, 22560, Note_on_c, 0, 71, 0
2, 22560, Note_on_c, 0, 66, 0
2, 22560, Note_on_c, 0, 69, 33
2, 22560, Note_on_c, 0, 62, 28
2, 22920, Note_on_c, 0, 62, 0
2, 22920, Note_on_c, 0, 69, 0
2, 22980, Note_on_c, 0, 76, 38
2, 23040, Note_on_c, 0, 74, 0
2, 23040, Note_on_c, 0, 79, 44
2, 23520, Note_on_c, 0, 79, 0
2, 23520, Note_on_c, 0, 76, 0
2, 23520, Note_on_c, 0, 74, 34
2, 23520, Note_on_c, 0, 67, 28
2, 23940, Note_on_c, 0, 76, 38
2, 24000, Note_on_c, 0, 67, 0
2, 24000, Note_on_c, 0, 74, 0
2, 24000, Note_on_c, 0, 79, 44
2, 24480, Note_on_c, 0, 79, 0
2, 24480, Note_on_c, 0, 76, 0
2, 24480, Note_on_c, 0, 74, 34
2, 24480, Note_on_c, 0, 67, 28
2, 24900, Note_on_c, 0, 67, 0
2, 24900, Note_on_c, 0, 74, 0
2, 24900, Note_on_c, 0, 76, 34
2, 24960, Note_on_c, 0, 79, 37
2, 25120, Note_on_c, 0, 79, 0
2, 25120, Note_on_c, 0, 76, 0
2, 25120, Note_on_c, 0, 67, 28
2, 25120, Note_on_c, 0, 74, 33
2, 25240, Note_on_c, 0, 67, 0
2, 25280, Note_on_c, 0, 74, 0
2, 25280, Note_on_c, 0, 79, 40
2, 25440, Note_on_c, 0, 79, 0
2, 25440, Note_on_c, 0, 76, 28
2, 25440, Note_on_c, 0, 81, 44
2, 25600, Note_on_c, 0, 81, 0
2, 25600, Note_on_c, 0, 83, 39
2, 25680, Note_on_c, 0, 76, 0
2, 25680, Note_on_c, 0, 78, 23
2, 25760, Note_on_c, 0, 83, 0
2, 25760, Note_on_c, 0, 81, 38
2, 25860, Note_on_c, 0, 81, 0
2, 25860, Note_on_c, 0, 76, 38
2, 25920, Note_on_c, 0, 78, 0
2, 25920, Note_on_c, 0, 79, 44
2, 26400, Note_on_c, 0, 79, 0
2, 26400, Note_on_c, 0, 76, 0
2, 26400, Note_on_c, 0, 74, 34
2, 26400, Note_on_c, 0, 67, 28
2, 26760, Note_on_c, 0, 81, 36
2, 26820, Note_on_c, 0, 83, 41
2, 26880, Note_on_c, 0, 67, 0
2, 26880, Note_on_c, 0, 74, 0
2, 26880, Note_on_c, 0, 86, 52
2, 27360, Note_on_c, 0, 81, 0
2, 27360, Note_on_c, 0, 79, 33
2, 27360, Note_on_c, 0, 74, 28
2, 27720, Note_on_c, 0, 74, 0
2, 27720, Note_on_c, 0, 83, 0
2, 27720, Note_on_c, 0, 86, 0
2, 27720, Note_on_c, 0, 79, 0
2, 27720, Note_on_c, 0, 82, 36
2, 27780, Note_on_c, 0, 86, 41
2, 27840, Note_on_c, 0, 88, 52
2, 28320, Note_on_c, 0, 86, 0
2, 28320, Note_on_c, 0, 82, 0
2, 28320, Note_on_c, 0, 85, 33
2, 28320, Note_on_c, 0, 76, 28
2, 28680, Note_on_c, 0, 76, 0
2, 28680, Note_on_c, 0, 85, 0
2, 28680, Note_on_c, 0, 88, 0
2, 28680, Note_on_c, 0, 84, 36
2, 28740, Note_on_c, 0, 88, 42
2, 28800, Note_on_c, 0, 90, 52
2, 29280, Note_on_c, 0, 88, 0
2, 29280, Note_on_c, 0, 84, 0
2, 29280, Note_on_c, 0, 86, 33
2, 29280, Note_on_c, 0, 78, 28
2, 29640, Note_on_c, 0, 78, 0
2, 29640, Note_on_c, 0, 86, 0
2, 29640, Note_on_c, 0, 90, 0
2, 29640, Note_on_c, 0, 83, 41
2, 29700, Note_on_c, 0, 86, 44
2, 29760, Note_on_c, 0, 91, 48
2, 30240, Note_on_c, 0, 86, 0
2, 30240, Note_on_c, 0, 83, 0
2, 30240, Note_on_c, 0, 79, 33
2, 30660, Note_on_c, 0, 79, 0
2, 30720, Note_on_c, 0, 91, 0
2, 30720, Note_on_c, 0, 67, 42
2, 30720, Note_on_c, 0, 58, 35
2, 30780, Note_on_c, 0, 58, 0
2, 30780, Note_on_c, 0, 67, 0
2, 30960, Note_on_c, 0, 66, 39
2, 30960, Note_on_c, 0, 58, 33
2, 31080, Note_on_c, 0, 66, 0
2, 31080, Note_on_c, 0, 67, 35
2, 31200, Note_on_c, 0, 67, 0
2, 31200, Note_on_c, 0, 58, 0
2, 31200, Note_on_c, 0, 69, 46
2, 31200, Note_on_c, 0, 66, 39
2, 31200, Note_on_c, 0, 60, 39
2, 31560, Note_on_c, 0, 69, 0
2, 31560, Note_on_c, 0, 70, 38
2, 31680, Note_on_c, 0, 70, 0
2, 31680, Note_on_c, 0, 60, 0
2, 31680, Note_on_c, 0, 66, 0
2, 31680, Note_on_c, 0, 67, 42
2, 31680, Note_on_c, 0, 58, 35
2, 31740, Note_on_c, 0, 58, 0
2, 31740, Note_on_c, 0, 67, 0
2, 31920, Note_on_c, 0, 66, 39
2, 31920, Note_on_c, 0, 58, 33
2, 32040, Note_on_c, 0, 66, 0
2, 32040, Note_on_c, 0, 67, 35
2, 32160, Note_on_c, 0, 67, 0
2, 32160, Note_on_c, 0, 58, 0
2, 32160, Note_on_c, 0, 69, 46
2, 32160, Note_on_c, 0, 66, 39
2, 32160, Note_on_c, 0, 60, 39
2, 32520, Note_on_c, 0, 69, 0
2, 32520, Note_on_c, 0, 70, 38
2, 32640, Note_on_c, 0, 70, 0
2, 32640, Note_on_c, 0, 60, 0
2, 32640, Note_on_c, 0, 66, 0
2, 32640, Note_on_c, 0, 67, 42
2, 32640, Note_on_c, 0, 58, 35
2, 32700, Note_on_c, 0, 58, 0
2, 32700, Note_on_c, 0, 67, 0
2, 32880, Note_on_c, 0, 66, 36
2, 32880, Note_on_c, 0, 69, 42
2, 32880, Note_on_c, 0, 60, 36
2, 33000, Note_on_c, 0, 69, 0
2, 33000, Note_on_c, 0, 70, 38
2, 33120, Note_on_c, 0, 70, 0
2, 33120, Note_on_c, 0, 60, 0
2, 33120, Note_on_c, 0, 66, 0
2, 33120, Note_on_c, 0, 67, 47
2, 33120, Note_on_c, 0, 58, 39
2, 33180, Note_on_c, 0, 58, 0
2, 33180, Note_on_c, 0, 67, 0
2, 33360, Note_on_c, 0, 66, 48
2, 33360, Note_on_c, 0, 69, 48
2, 33360, Note_on_c, 0, 60, 40
2, 33480, Note_on_c, 0, 69, 0
2, 33480, Note_on_c, 0, 70, 44
2, 33600, Note_on_c, 0, 70, 0
2, 33600, Note_on_c, 0, 60, 0
2, 33600, Note_on_c, 0, 66, 0
2, 33600, Note_on_c, 0, 67, 53
2, 33600, Note_on_c, 0, 58, 44
2, 33660, Note_on_c, 0, 58, 0
2, 33660, Note_on_c, 0, 67, 0
2, 33840, Note_on_c, 0, 66, 45
2, 33840, Note_on_c, 0, 69, 54
2, 33840, Note_on_c, 0, 60, 45
2, 33960, Note_on_c, 0, 69, 0
2, 33960, Note_on_c, 0, 70, 49
2, 34080, Note_on_c, 0, 70, 0
2, 34080, Note_on_c, 0, 60, 0
2, 34080, Note_on_c, 0, 66, 0
2, 34080, Note_on_c, 0, 67, 59
2, 34080, Note_on_c, 0, 58, 49
2, 34140, Note_on_c, 0, 58, 0
2, 34140, Note_on_c, 0, 67, 0
2, 34320, Note_on_c, 0, 66, 49
2, 34320, Note_on_c, 0, 69, 66
2, 34320, Note_on_c, 0, 60, 49
2, 34440, Note_on_c, 0, 69, 0
2, 34440, Note_on_c, 0, 70, 61
2, 34560, Note_on_c, 0, 70, 0
2, 34560, Note_on_c, 0, 60, 0
2, 34560, Note_on_c, 0, 66, 0
2, 34560, Note_on_c, 0, 58, 56
2, 34560, Note_on_c, 0, 67, 66
2, 35040, Note_on_c, 0, 67, 0
2, 35040, Note_on_c, 0, 69, 62
2, 35280, Note_on_c, 0, 69, 0
2, 35280, Note_on_c, 0, 70, 57
2, 35400, Note_on_c, 0, 70, 0
2, 35400, Note_on_c, 0, 69, 45
2, 35460, Note_on_c, 0, 69, 0
2, 35460, Note_on_c, 0, 70, 45
2, 35520, Note_on_c, 0, 70, 0
2, 35520, Note_on_c, 0, 58, 0
2, 35520, Note_on_c, 0, 58, 42
2, 35520, Note_on_c, 0, 69, 58
2, 36000, Note_on_c, 0, 69, 0
2, 36000, Note_on_c, 0, 67, 48
2, 36240, Note_on_c, 0, 67, 0
2, 36240, Note_on_c, 0, 65, 41
2, 36480, Note_on_c, 0, 65, 0
2, 36480, Note_on_c, 0, 58, 0
2, 36480, Note_on_c, 0, 58, 29
2, 36480, Note_on_c, 0, 62, 35
2, 36960, Note_on_c, 0, 62, 0
2, 36960, Note_on_c, 0, 62, 27
2, 37920, Note_on_c, 0, 62, 0
2, 37920, Note_on_c, 0, 58, 0
2, 38400, Note_on_c, 0, 70, 42
2, 38400, Note_on_c, 0, 61, 35
2, 38460, Note_on_c, 0, 61, 0
2, 38460, Note_on_c, 0, 70, 0
2, 38640, Note_on_c, 0, 69, 39
2, 38640, Note_on_c, 0, 61, 33
2, 38760, Note_on_c, 0, 69, 0
2, 38760, Note_on_c, 0, 70, 35
2, 38880, Note_on_c, 0, 70, 0
2, 38880, Note_on_c, 0, 61, 0
2, 38880, Note_on_c, 0, 72, 46
2, 38880, Note_on_c, 0, 69, 39
2, 38880, Note_on_c, 0, 63, 39
2, 39240, Note_on_c, 0, 72, 0
2, 39240, Note_on_c, 0, 73, 38
2, 39360, Note_on_c, 0, 73, 0
2, 39360, Note_on_c, 0, 63, 0
2, 39360, Note_on_c, 0, 69, 0
2, 39360, Note_on_c, 0, 70, 42
2, 39360, Note_on_c, 0, 61, 35
2, 39420, Note_on_c, 0, 61, 0
2, 39420, Note_on_c, 0, 70, 0
2, 39600, Note_on_c, 0, 69, 39
2, 39600, Note_on_c, 0, 61, 33
2, 39720, Note_on_c, 0, 69, 0
2, 39720, Note_on_c, 0, 70, 35
2, 39840, Note_on_c, 0, 70, 0
2, 39840, Note_on_c, 0, 61, 0
2, 39840, Note_on_c, 0, 72, 46
2, 39840, Note_on_c, 0, 69, 39
2, 39840, Note_on_c, 0, 63, 39
2, 40200, Note_on_c, 0, 72, 0
2, 40200, Note_on_c, 0, 73, 38
2, 40320, Note_on_c, 0, 73, 0
2, 40320, Note_on_c, 0, 63, 0
2, 40320, Note_on_c, 0, 69, 0
2, 40320, Note_on_c, 0, 70, 42
2, 40320, Note_on_c, 0, 61, 35
2, 40380, Note_on_c, 0, 61, 0
2, 40380, Note_on_c, 0, 70, 0
2, 40560, Note_on_c, 0, 69, 36
2, 40560, Note_on_c, 0, 72, 42
2, 40560, Note_on_c, 0, 63, 36
2, 40680, Note_on_c, 0, 72, 0
2, 40680, Note_on_c, 0, 73, 38
2, 40800, Note_on_c, 0, 73, 0
2, 40800, Note_on_c, 0, 63, 0
2, 40800, Note_on_c, 0, 69, 0
2, 40800, Note_on_c, 0, 70, 47
2, 40800, Note_on_c, 0, 61, 39
2, 40860, Note_on_c, 0, 61, 0
2, 40860, Note_on_c, 0, 70, 0
2, 41040, Note_on_c, 0, 69, 48
2, 41040, Note_on_c, 0, 72, 48
2, 41040, Note_on_c, 0, 63, 40
2, 41160, Note_on_c, 0, 72, 0
2, 41160, Note_on_c, 0, 73, 44
2, 41280, Note_on_c, 0, 73, 0
2, 41280, Note_on_c, 0, 63, 0
2, 41280, Note_on_c, 0, 69, 0
2, 41280, Note_on_c, 0, 70, 53
2, 41280, Note_on_c, 0, 61, 44
2, 41340, Note_on_c, 0, 61, 0
2, 41340, Note_on_c, 0, 70, 0
2, 41520, Note_on_c, 0, 69, 45
2, 41520, Note_on_c, 0, 72, 54
2, 41520, Note_on_c, 0, 63, 45
2, 41640, Note_on_c, 0, 72, 0
2, 41640, Note_on_c, 0, 73, 49
2, 41760, Note_on_c, 0, 73, 0
2, 41760, Note_on_c, 0, 63, 0
2, 41760, Note_on_c, 0, 69, 0
2, 41760, Note_on_c, 0, 70, 59
2, 41760, Note_on_c, 0, 61, 49
2, 41820, Note_on_c, 0, 61, 0
2, 41820, Note_on_c, 0, 70, 0
2, 42000, Note_on_c, 0, 69, 49
2, 42000, Note_on_c, 0, 72, 66
2, 42000, Note_on_c, 0, 63, 49
2, 42120, Note_on_c, 0, 72, 0
2, 42120, Note_on_c, 0, 73, 61
2, 42240, Note_on_c, 0, 73, 0
2, 42240, Note_on_c, 0, 63, 0
2, 42240, Note_on_c, 0, 69, 0
2, 42240, Note_on_c, 0, 61, 56
2, 42240, Note_on_c, 0, 70, 66
2, 42720, Note_on_c, 0, 70, 0
2, 42720, Note_on_c, 0, 72, 62
2, 42960, Note_on_c, 0, 72, 0
2, 42960, Note_on_c, 0, 73, 57
2, 43080, Note_on_c, 0, 73, 0
2, 43080, Note_on_c, 0, 72, 45
2, 43140, Note_on_c, 0, 72, 0
2, 43140, Note_on_c, 0, 73, 45
2, 43200, Note_on_c, 0, 73, 0
2, 43200, Note_on_c, 0, 61, 0
2, 43200, Note_on_c, 0, 61, 42
2, 43200, Note_on_c, 0, 72, 58
2, 43680, Note_on_c, 0, 72, 0
2, 43680, Note_on_c, 0, 70, 48
2, 43920, Note_on_c, 0, 70, 0
2, 43920, Note_on_c, 0, 68, 41
2, 44160, Note_on_c, 0, 68, 0
2, 44160, Note_on_c, 0, 61, 0
2, 44160, Note_on_c, 0, 61, 29
2, 44160, Note_on_c, 0, 65, 35
2, 44640, Note_on_c, 0, 65, 0
2, 44640, Note_on_c, 0, 65, 27
2, 45600, Note_on_c, 0, 65, 0
2, 45600, Note_on_c, 0, 61, 0
2, 47040, Note_on_c, 0, 64, 35
2, 47520, Note_on_c, 0, 64, 0
2, 47520, Note_on_c, 0, 64, 27
2, 48480, Note_on_c, 0, 64, 0
2, 48960, Note_on_c, 0, 76, 36
2, 49440, Note_on_c, 0, 76, 0
2, 49440, Note_on_c, 0, 69, 28
2, 49920, Note_on_c, 0, 69, 0
2, 49920, Note_on_c, 0, 76, 34
2, 50400, Note_on_c, 0, 76, 0
2, 50400, Note_on_c, 0, 69, 27
2, 50880, Note_on_c, 0, 69, 0
2, 50880, Note_on_c, 0, 76, 33
2, 51040, Note_on_c, 0, 76, 0
2, 51040, Note_on_c, 0, 69, 29
2, 51200, Note_on_c, 0, 69, 0
2, 51200, Note_on_c, 0, 76, 31
2, 51360, Note_on_c, 0, 76, 0
2, 51360, Note_on_c, 0, 77, 35
2, 51520, Note_on_c, 0, 77, 0
2, 51520, Note_on_c, 0, 79, 28
2, 51680, Note_on_c, 0, 79, 0
2, 51680, Note_on_c, 0, 77, 28
2, 51840, Note_on_c, 0, 77, 0
2, 51840, Note_on_c, 0, 76, 34
2, 52320, Note_on_c, 0, 76, 0
2, 52320, Note_on_c, 0, 69, 30
2, 52680, Note_on_c, 0, 69, 0
2, 52680, Note_on_c, 0, 73, 29
2, 52740, Note_on_c, 0, 77, 32
2, 52800, Note_on_c, 0, 81, 34
2, 53280, Note_on_c, 0, 77, 0
2, 53280, Note_on_c, 0, 73, 0
2, 53280, Note_on_c, 0, 76, 29
2, 53280, Note_on_c, 0, 69, 25
2, 53640, Note_on_c, 0, 69, 0
2, 53640, Note_on_c, 0, 76, 0
2, 53640, Note_on_c, 0, 73, 33
2, 53700, Note_on_c, 0, 77, 36
2, 53760, Note_on_c, 0, 81, 0
2, 53760, Note_on_c, 0, 81, 38
2, 54240, Note_on_c, 0, 77, 0
2, 54240, Note_on_c, 0, 73, 0
2, 54240, Note_on_c, 0, 76, 33
2, 54240, Note_on_c, 0, 69, 28
2, 54720, Note_on_c, 0, 69, 0
2, 54720, Note_on_c, 0, 76, 0
2, 54720, Note_on_c, 0, 81, 0
2, 54720, Note_on_c, 0, 73, 36
2, 54720, Note_on_c, 0, 81, 38
2, 54880, Note_on_c, 0, 81, 0
2, 54880, Note_on_c, 0, 73, 0
2, 54880, Note_on_c, 0, 69, 26
2, 54880, Note_on_c, 0, 76, 31
2, 55040, Note_on_c, 0, 76, 0
2, 55040, Note_on_c, 0, 69, 0
2, 55040, Note_on_c, 0, 81, 31
2, 55040, Note_on_c, 0, 73, 23
2, 55200, Note_on_c, 0, 73, 0
2, 55200, Note_on_c, 0, 81, 0
2, 55200, Note_on_c, 0, 82, 41
2, 55200, Note_on_c, 0, 74, 31
2, 55360, Note_on_c, 0, 74, 0
2, 55360, Note_on_c, 0, 82, 0
2, 55360, Note_on_c, 0, 79, 27
2, 55360, Note_on_c, 0, 84, 36
2, 55520, Note_on_c, 0, 84, 0
2, 55520, Note_on_c, 0, 79, 0
2, 55520, Note_on_c, 0, 74, 24
2, 55520, Note_on_c, 0, 82, 32
2, 55560, Note_on_c, 0, 74, 0
2, 55600, Note_on_c, 0, 82, 0
2, 55600, Note_on_c, 0, 73, 33
2, 55640, Note_on_c, 0, 77, 36
2, 55680, Note_on_c, 0, 81, 38
2, 56160, Note_on_c, 0, 77, 0
2, 56160, Note_on_c, 0, 73, 0
2, 56160, Note_on_c, 0, 76, 33
2, 56160, Note_on_c, 0, 69, 28
2, 56640, Note_on_c, 0, 69, 0
2, 56640, Note_on_c, 0, 76, 0
2, 56640, Note_on_c, 0, 81, 0
2, 56640, Note_on_c, 0, 75, 41
2, 56640, Note_on_c, 0, 82, 43
2, 56800, Note_on_c, 0, 82, 0
2, 56800, Note_on_c, 0, 75, 0
2, 56800, Note_on_c, 0, 70, 29
2, 56800, Note_on_c, 0, 79, 35
2, 56960, Note_on_c, 0, 79, 0
2, 56960, Note_on_c, 0, 70, 0
2, 56960, Note_on_c, 0, 82, 35
2, 56960, Note_on_c, 0, 75, 26
2, 57120, Note_on_c, 0, 75, 0
2, 57120, Note_on_c, 0, 82, 0
2, 57120, Note_on_c, 0, 84, 47
2, 57120, Note_on_c, 0, 79, 35
2, 57280, Note_on_c, 0, 79, 0
2, 57280, Note_on_c, 0, 84, 0
2, 57280, Note_on_c, 0, 82, 31
2, 57280, Note_on_c, 0, 86, 41
2, 57440, Note_on_c, 0, 86, 0
2, 57440, Note_on_c, 0, 82, 0
2, 57440, Note_on_c, 0, 79, 27
2, 57440, Note_on_c, 0, 84, 36
2, 57480, Note_on_c, 0, 79, 0
2, 57520, Note_on_c, 0, 84, 0
2, 57520, Note_on_c, 0, 77, 37
2, 57600, Note_on_c, 0, 82, 43
2, 58080, Note_on_c, 0, 77, 0
2, 58080, Note_on_c, 0, 75, 37
2, 58080, Note_on_c, 0, 70, 32
2, 58560, Note_on_c, 0, 70, 0
2, 58560, Note_on_c, 0, 75, 0
2, 58560, Note_on_c, 0, 82, 0
2, 58560, Note_on_c, 0, 75, 47
2, 58560, Note_on_c, 0, 84, 49
2, 58720, Note_on_c, 0, 84, 0
2, 58720, Note_on_c, 0, 75, 0
2, 58720, Note_on_c, 0, 72, 33
2, 58720, Note_on_c, 0, 79, 40
2, 58880, Note_on_c, 0, 79, 0
2, 58880, Note_on_c, 0, 72, 0
2, 58880, Note_on_c, 0, 84, 40
2, 58880, Note_on_c, 0, 75, 29
2, 59040, Note_on_c, 0, 75, 0
2, 59040, Note_on_c, 0, 84, 0
2, 59040, Note_on_c, 0, 87, 54
2, 59040, Note_on_c, 0, 79, 40
2, 59200, Note_on_c, 0, 79, 0
2, 59200, Note_on_c, 0, 87, 0
2, 59200, Note_on_c, 0, 84, 35
2, 59200, Note_on_c, 0, 89, 47
2, 59360, Note_on_c, 0, 89, 0
2, 59360, Note_on_c, 0, 84, 0
2, 59360, Note_on_c, 0, 79, 31
2, 59360, Note_on_c, 0, 87, 41
2, 59400, Note_on_c, 0, 79, 0
2, 59440, Note_on_c, 0, 87, 0
2, 59440, Note_on_c, 0, 75, 42
2, 59520, Note_on_c, 0, 84, 56
2, 60000, Note_on_c, 0, 75, 0
2, 60000, Note_on_c, 0, 72, 45
2, 60000, Note_on_c, 0, 79, 45
2, 60420, Note_on_c, 0, 79, 0
2, 60420, Note_on_c, 0, 72, 0
2, 60420, Note_on_c, 0, 84, 51
2, 60480, Note_on_c, 0, 84, 0
2, 60480, Note_on_c, 0, 90, 66
2, 60960, Note_on_c, 0, 90, 0
2, 60960, Note_on_c, 0, 84, 0
2, 60960, Note_on_c, 0, 87, 64
2, 60960, Note_on_c, 0, 78, 54
2, 61380, Note_on_c, 0, 78, 0
2, 61380, Note_on_c, 0, 87, 0
2, 61380, Note_on_c, 0, 84, 51
2, 61440, Note_on_c, 0, 90, 66
2, 61920, Note_on_c, 0, 90, 0
2, 61920, Note_on_c, 0, 84, 0
2, 61920, Note_on_c, 0, 87, 65
2, 61920, Note_on_c, 0, 78, 55
2, 62340, Note_on_c, 0, 78, 0
2, 62340, Note_on_c, 0, 87, 0
2, 62340, Note_on_c, 0, 84, 51
2, 62400, Note_on_c, 0, 90, 69
2, 62640, Note_on_c, 0, 90, 0
2, 62640, Note_on_c, 0, 84, 0
2, 62640, Note_on_c, 0, 87, 65
2, 62640, Note_on_c, 0, 78, 54
2, 62880, Note_on_c, 0, 78, 0
2, 62880, Note_on_c, 0, 87, 0
2, 62880, Note_on_c, 0, 90, 73
2, 62880, Note_on_c, 0, 84, 62
2, 63120, Note_on_c, 0, 84, 0
2, 63120, Note_on_c, 0, 90, 0
2, 63120, Note_on_c, 0, 87, 70
2, 63120, Note_on_c, 0, 78, 59
2, 63360, Note_on_c, 0, 78, 0
2, 63360, Note_on_c, 0, 87, 0
2, 63360, Note_on_c, 0, 90, 76
2, 63360, Note_on_c, 0, 84, 64
2, 63600, Note_on_c, 0, 84, 0
2, 63600, Note_on_c, 0, 90, 0
2, 63600, Note_on_c, 0, 78, 54
2, 63600, Note_on_c, 0, 87, 63
2, 63840, Note_on_c, 0, 87, 0
2, 63840, Note_on_c, 0, 78, 0
2, 63840, Note_on_c, 0, 90, 80
2, 63840, Note_on_c, 0, 84, 68
2, 64080, Note_on_c, 0, 84, 0
2, 64080, Note_on_c, 0, 90, 0
2, 64080, Note_on_c, 0, 87, 72
2, 64080, Note_on_c, 0, 78, 61
2, 64260, Note_on_c, 0, 78, 0
2, 64260, Note_on_c, 0, 87, 0
2, 64260, Note_on_c, 0, 84, 46
2, 64320, Note_on_c, 0, 84, 0
2, 64320, Note_on_c, 0, 91, 64
2, 64800, Note_on_c, 0, 91, 0
2, 64800, Note_on_c, 0, 79, 60
2, 65200, Note_on_c, 0, 79, 0
2, 65220, Note_on_c, 0, 79, 48
2, 65280, Note_on_c, 0, 79, 0
2, 65280, Note_on_c, 0, 86, 62
2, 65760, Note_on_c, 0, 86, 0
2, 65760, Note_on_c, 0, 74, 54
2, 66160, Note_on_c, 0, 74, 0
2, 66180, Note_on_c, 0, 74, 40
2, 66240, Note_on_c, 0, 74, 0
2, 66240, Note_on_c, 0, 79, 52
2, 66720, Note_on_c, 0, 79, 0
2, 66720, Note_on_c, 0, 67, 45
2, 67120, Note_on_c, 0, 67, 0
2, 67140, Note_on_c, 0, 67, 32
2, 67200, Note_on_c, 0, 67, 0
2, 67200, Note_on_c, 0, 74, 41
2, 67680, Note_on_c, 0, 74, 0
2, 67680, Note_on_c, 0, 62, 29
2, 68080, Note_on_c, 0, 62, 0
2, 68100, Note_on_c, 0, 62, 29
2, 68160, Note_on_c, 0, 62, 0
2, 68160, Note_on_c, 0, 67, 35
2, 68640, Note_on_c, 0, 67, 0
2, 68640, Note_on_c, 0, 62, 26
2, 69120, Note_on_c, 0, 62, 0
2, 69120, Note_on_c, 0, 67, 35
2, 69600, Note_on_c, 0, 67, 0
2, 69600, Note_on_c, 0, 62, 27
2, 70080, Note_on_c, 0, 62, 0
2, 70080, Note_on_c, 0, 67, 37
2, 70240, Note_on_c, 0, 67, 0
2, 70240, Note_on_c, 0, 66, 33
2, 70320, Note_on_c, 0, 62, 28
2, 70400, Note_on_c, 0, 66, 0
2, 70400, Note_on_c, 0, 67, 35
2, 70560, Note_on_c, 0, 67, 0
2, 70560, Note_on_c, 0, 62, 0
2, 70560, Note_on_c, 0, 64, 28
2, 70560, Note_on_c, 0, 69, 39
2, 70720, Note_on_c, 0, 69, 0
2, 70720, Note_on_c, 0, 71, 32
2, 70800, Note_on_c, 0, 64, 0
2, 70800, Note_on_c, 0, 66, 23
2, 70880, Note_on_c, 0, 71, 0
2, 70880, Note_on_c, 0, 69, 32
2, 71040, Note_on_c, 0, 69, 0
2, 71040, Note_on_c, 0, 66, 0
2, 71040, Note_on_c, 0, 67, 38
2, 71520, Note_on_c, 0, 67, 0
2, 71520, Note_on_c, 0, 62, 34
2, 71880, Note_on_c, 0, 62, 0
2, 71880, Note_on_c, 0, 66, 33
2, 71940, Note_on_c, 0, 71, 36
2, 72000, Note_on_c, 0, 74, 38
2, 72480, Note_on_c, 0, 71, 0
2, 72480, Note_on_c, 0, 66, 0
2, 72480, Note_on_c, 0, 69, 33
2, 72480, Note_on_c, 0, 62, 28
2, 72840, Note_on_c, 0, 62, 0
2, 72840, Note_on_c, 0, 69, 0
2, 72840, Note_on_c, 0, 66, 33
2, 72900, Note_on_c, 0, 71, 36
2, 72960, Note_on_c, 0, 74, 0
2, 72960, Note_on_c, 0, 74, 38
2, 73440, Note_on_c, 0, 71, 0
2, 73440, Note_on_c, 0, 66, 0
2, 73440, Note_on_c, 0, 69, 33
2, 73440, Note_on_c, 0, 62, 28
2, 73800, Note_on_c, 0, 62, 0
2, 73800, Note_on_c, 0, 69, 0
2, 73800, Note_on_c, 0, 66, 33
2, 73860, Note_on_c, 0, 71, 36
2, 73920, Note_on_c, 0, 74, 0
2, 73920, Note_on_c, 0, 74, 38
2, 74080, Note_on_c, 0, 74, 0
2, 74080, Note_on_c, 0, 71, 0
2, 74080, Note_on_c, 0, 66, 0
2, 74080, Note_on_c, 0, 62, 26
2, 74080, Note_on_c, 0, 69, 31
2, 74240, Note_on_c, 0, 69, 0
2, 74240, Note_on_c, 0, 62, 0
2, 74240, Note_on_c, 0, 74, 31
2, 74240, Note_on_c, 0, 66, 23
2, 74400, Note_on_c, 0, 66, 0
2, 74400, Note_on_c, 0, 74, 0
2, 74400, Note_on_c, 0, 76, 41
2, 74400, Note_on_c, 0, 67, 31
2, 74560, Note_on_c, 0, 67, 0
2, 74560, Note_on_c, 0, 76, 0
2, 74560, Note_on_c, 0, 72, 27
2, 74560, Note_on_c, 0, 78, 36
2, 74720, Note_on_c, 0, 78, 0
2, 74720, Note_on_c, 0, 72, 0
2, 74720, Note_on_c, 0, 67, 24
2, 74720, Note_on_c, 0, 76, 32
2, 74760, Note_on_c, 0, 67, 0
2, 74800, Note_on_c, 0, 76, 0
2, 74800, Note_on_c, 0, 66, 33
2, 74840, Note_on_c, 0, 71, 36
2, 74880, Note_on_c, 0, 74, 38
2, 75360, Note_on_c, 0, 71, 0
2, 75360, Note_on_c, 0, 66, 0
2, 75360, Note_on_c, 0, 69, 33
2, 75360, Note_on_c, 0, 62, 28
2, 75720, Note_on_c, 0, 62, 0
2, 75720, Note_on_c, 0, 69, 0
2, 75780, Note_on_c, 0, 76, 38
2, 75840, Note_on_c, 0, 74, 0
2, 75840, Note_on_c, 0, 79, 44
2, 76320, Note_on_c, 0, 79, 0
2, 76320, Note_on_c, 0, 76, 0
2, 76320, Note_on_c, 0, 74, 34
2, 76320, Note_on_c, 0, 67, 28
2, 76740, Note_on_c, 0, 76, 38
2, 76800, Note_on_c, 0, 67, 0
2, 76800, Note_on_c, 0, 74, 0
2, 76800, Note_on_c, 0, 79, 44
2, 77280, Note_on_c, 0, 79, 0
2, 77280, Note_on_c, 0, 76, 0
2, 77280, Note_on_c, 0, 74, 34
2, 77280, Note_on_c, 0, 67, 28
2, 77700, Note_on_c, 0, 67, 0
2, 77700, Note_on_c, 0, 74, 0
2, 77700, Note_on_c, 0, 76, 34
2, 77760, Note_on_c, 0, 79, 37
2, 77920, Note_on_c, 0, 79, 0
2, 77920, Note_on_c, 0, 76, 0
2, 77920, Note_on_c, 0, 67, 28
2, 77920, Note_on_c, 0, 74, 33
2, 78040, Note_on_c, 0, 67, 0
2, 78080, Note_on_c, 0, 74, 0
2, 78080, Note_on_c, 0, 79, 40
2, 78240, Note_on_c, 0, 79, 0
2, 78240, Note_on_c, 0, 76, 28
2, 78240, Note_on_c, 0, 81, 44
2, 78400, Note_on_c, 0, 81, 0
2, 78400, Note_on_c, 0, 83, 39
2, 78480, Note_on_c, 0, 76, 0
2, 78480, Note_on_c, 0, 78, 23
2, 78560, Note_on_c, 0, 83, 0
2, 78560, Note_on_c, 0, 81, 38
2, 78660, Note_on_c, 0, 81, 0
2, 78660, Note_on_c, 0, 76, 38
2, 78720, Note_on_c, 0, 78, 0
2, 78720, Note_on_c, 0, 79, 44
2, 79200, Note_on_c, 0, 79, 0
2, 79200, Note_on_c, 0, 76, 0
2, 79200, Note_on_c, 0, 74, 34
2, 79200, Note_on_c, 0, 67, 28
2, 79560, Note_on_c, 0, 81, 36
2, 79620, Note_on_c, 0, 83, 41
2, 79680, Note_on_c, 0, 67, 0
2, 79680, Note_on_c, 0, 74, 0
2, 79680, Note_on_c, 0, 86, 52
2, 80160, Note_on_c, 0, 81, 0
2, 80160, Note_on_c, 0, 79, 33
2, 80160, Note_on_c, 0, 74, 28
2, 80520, Note_on_c, 0, 74, 0
2, 80520, Note_on_c, 0, 83, 0
2, 80520, Note_on_c, 0, 86, 0
2, 80520, Note_on_c, 0, 79, 0
2, 80520, Note_on_c, 0, 82, 36
2, 80580, Note_on_c, 0, 86, 41
2, 80640, Note_on_c, 0, 88, 52
2, 81120, Note_on_c, 0, 86, 0
2, 81120, Note_on_c, 0, 82, 0
2, 81120, Note_on_c, 0, 85, 33
2, 81120, Note_on_c, 0, 76, 28
2, 81480, Note_on_c, 0, 76, 0
2, 81480, Note_on_c, 0, 85, 0
2, 81480, Note_on_c, 0, 88, 0
2, 81480, Note_on_c, 0, 84, 32
2, 81540, Note_on_c, 0, 88, 37
2, 81600, Note_on_c, 0, 90, 46
2, 82080, Note_on_c, 0, 88, 0
2, 82080, Note_on_c, 0, 84, 0
2, 82080, Note_on_c, 0, 86, 29
2, 82080, Note_on_c, 0, 78, 25
2, 82440, Note_on_c, 0, 78, 0
2, 82440, Note_on_c, 0, 86, 0
2, 82440, Note_on_c, 0, 90, 0
2, 82440, Note_on_c, 0, 83, 32
2, 82500, Note_on_c, 0, 86, 35
2, 82560, Note_on_c, 0, 91, 38
2, 83040, Note_on_c, 0, 86, 0
2, 83040, Note_on_c, 0, 83, 0
2, 83040, Note_on_c, 0, 79, 26
2, 83460, Note_on_c, 0, 79, 0
2, 83520, Note_on_c, 0, 91, 0
2, 83520, End_track
3, 0, Start_track
3, 0, Title_t, "Piano left"
3, 0, Program_c, 0, 0
3, 0, Note_on_c, 0, 43, 28
3, 240, Note_on_c, 0, 43, 0
3, 240, Note_on_c, 0, 59, 20
3, 240, Note_on_c, 0, 50, 17
3, 720, Note_on_c, 0, 50, 0
3, 720, Note_on_c, 0, 59, 0
3, 720, Note_on_c, 0, 59, 20
3, 720, Note_on_c, 0, 50, 17
3, 960, Note_on_c, 0, 50, 0
3, 960, Note_on_c, 0, 59, 0
3, 960, Note_on_c, 0, 43, 28
3, 1200, Note_on_c, 0, 43, 0
3, 1200, Note_on_c, 0, 59, 21
3, 1200, Note_on_c, 0, 50, 17
3, 1680, Note_on_c, 0, 50, 0
3, 1680, Note_on_c, 0, 59, 0
3, 1680, Note_on_c, 0, 59, 21
3, 1680, Note_on_c, 0, 50, 17
3, 1920, Note_on_c, 0, 50, 0
3, 1920, Note_on_c, 0, 59, 0
3, 1920, Note_on_c, 0, 43, 28
3, 2160, Note_on_c, 0, 43, 0
3, 2160, Note_on_c, 0, 59, 24
3, 2160, Note_on_c, 0, 50, 20
3, 2640, Note_on_c, 0, 50, 0
3, 2640, Note_on_c, 0, 59, 0
3, 2640, Note_on_c, 0, 60, 23
3, 2640, Note_on_c, 0, 50, 19
3, 2880, Note_on_c, 0, 50, 0
3, 2880, Note_on_c, 0, 60, 0
3, 2880, Note_on_c, 0, 43, 28
3, 3120, Note_on_c, 0, 43, 0
3, 3120, Note_on_c, 0, 59, 24
3, 3120, Note_on_c, 0, 50, 20
3, 3600, Note_on_c, 0, 50, 0
3, 3600, Note_on_c, 0, 59, 0
3, 3600, Note_on_c, 0, 59, 24
3, 3600, Note_on_c, 0, 50, 20
3, 3720, Note_on_c, 0, 50, 0
3, 3720, Note_on_c, 0, 59, 0
3, 3840, Note_on_c, 0, 43, 28
3, 4080, Note_on_c, 0, 43, 0
3, 4080, Note_on_c, 0, 60, 24
3, 4080, Note_on_c, 0, 50, 20
3, 4560, Note_on_c, 0, 50, 0
3, 4560, Note_on_c, 0, 60, 0
3, 4560, Note_on_c, 0, 60, 23
3, 4560, Note_on_c, 0, 50, 19
3, 4680, Note_on_c, 0, 50, 0
3, 4680, Note_on_c, 0, 60, 0
3, 4800, Note_on_c, 0, 43, 28
3, 5040, Note_on_c, 0, 43, 0
3, 5040, Note_on_c, 0, 60, 24
3, 5040, Note_on_c, 0, 50, 20
3, 5520, Note_on_c, 0, 50, 0
3, 5520, Note_on_c, 0, 60, 0
3, 5520, Note_on_c, 0, 60, 23
3, 5520, Note_on_c, 0, 50, 19
3, 5640, Note_on_c, 0, 50, 0
3, 5640, Note_on_c, 0, 60, 0
3, 5760, Note_on_c, 0, 43, 28
3, 6000, Note_on_c, 0, 43, 0
3, 6000, Note_on_c, 0, 60, 24
3, 6000, Note_on_c, 0, 50, 20
3, 6480, Note_on_c, 0, 50, 0
3, 6480, Note_on_c, 0, 60, 0
3, 6480, Note_on_c, 0, 60, 23
3, 6480, Note_on_c, 0, 50, 19
3, 6600, Note_on_c, 0, 50, 0
3, 6600, Note_on_c, 0, 60, 0
3, 6720, Note_on_c, 0, 43, 28
3, 6960, Note_on_c, 0, 43, 0
3, 6960, Note_on_c, 0, 60, 24
3, 6960, Note_on_c, 0, 50, 20
3, 7440, Note_on_c, 0, 50, 0
3, 7440, Note_on_c, 0, 60, 0
3, 7440, Note_on_c, 0, 60, 23
3, 7440, Note_on_c, 0, 50, 19
3, 7560, Note_on_c, 0, 50, 0
3, 7560, Note_on_c, 0, 60, 0
3, 7680, Note_on_c, 0, 55, 28
3, 7920, Note_on_c, 0, 55, 0
3, 7920, Note_on_c, 0, 71, 24
3, 7920, Note_on_c, 0, 62, 20
3, 8400, Note_on_c, 0, 62, 0
3, 8400, Note_on_c, 0, 71, 0
3, 8400, Note_on_c, 0, 71, 23
3, 8400, Note_on_c, 0, 62, 19
3, 8520, Note_on_c, 0, 62, 0
3, 8520, Note_on_c, 0, 71, 0
3, 8640, Note_on_c, 0, 55, 28
3, 8880, Note_on_c, 0, 55, 0
3, 8880, Note_on_c, 0, 71, 24
3, 8880, Note_on_c, 0, 62, 20
3, 9360, Note_on_c, 0, 62, 0
3, 9360, Note_on_c, 0, 71, 0
3, 9360, Note_on_c, 0, 71, 23
3, 9360, Note_on_c, 0, 62, 19
3, 9480, Note_on_c, 0, 62, 0
3, 9480, Note_on_c, 0, 71, 0
3, 9600, Note_on_c, 0, 55, 28
3, 9840, Note_on_c, 0, 55, 0
3, 9840, Note_on_c, 0, 71, 24
3, 9840, Note_on_c, 0, 62, 20
3, 10320, Note_on_c, 0, 62, 0
3, 10320, Note_on_c, 0, 71, 0
3, 10320, Note_on_c, 0, 72, 23
3, 10320, Note_on_c, 0, 62, 19
3, 10500, Note_on_c, 0, 62, 0
3, 10500, Note_on_c, 0, 72, 0
3, 10560, Note_on_c, 0, 55, 28
3, 10800, Note_on_c, 0, 55, 0
3, 10800, Note_on_c, 0, 71, 24
3, 10800, Note_on_c, 0, 62, 20
3, 11280, Note_on_c, 0, 62, 0
3, 11280, Note_on_c, 0, 71, 0
3, 11280, Note_on_c, 0, 71, 23
3, 11280, Note_on_c, 0, 62, 19
3, 11400, Note_on_c, 0, 62, 0
3, 11400, Note_on_c, 0, 71, 0
3, 11520, Note_on_c, 0, 50, 28
3, 11760, Note_on_c, 0, 50, 0
3, 11760, Note_on_c, 0, 59, 17
3, 11760, Note_on_c, 0, 69, 21
3, 11760, Note_on_c, 0, 62, 17
3, 12240, Note_on_c, 0, 62, 0
3, 12240, Note_on_c, 0, 69, 0
3, 12240, Note_on_c, 0, 59, 0
3, 12240, Note_on_c, 0, 59, 16
3, 12240, Note_on_c, 0, 67, 20
3, 12240, Note_on_c, 0, 62, 16
3, 12360, Note_on_c, 0, 62, 0
3, 12360, Note_on_c, 0, 67, 0
3, 12360, Note_on_c, 0, 59, 0
3, 12480, Note_on_c, 0, 50, 28
3, 12720, Note_on_c, 0, 50, 0
3, 12720, Note_on_c, 0, 58, 17
3, 12720, Note_on_c, 0, 69, 21
3, 12720, Note_on_c, 0, 64, 17
3, 13200, Note_on_c, 0, 64, 0
3, 13200, Note_on_c, 0, 69, 0
3, 13200, Note_on_c, 0, 58, 0
3, 13200, Note_on_c, 0, 58, 16
3, 13200, Note_on_c, 0, 67, 20
3, 13200, Note_on_c, 0, 64, 16
3, 13320, Note_on_c, 0, 64, 0
3, 13320, Note_on_c, 0, 67, 0
3, 13320, Note_on_c, 0, 58, 0
3, 13440, Note_on_c, 0, 50, 28
3, 13680, Note_on_c, 0, 50, 0
3, 13680, Note_on_c, 0, 60, 17
3, 13680, Note_on_c, 0, 71, 21
3, 13680, Note_on_c, 0, 66, 17
3, 14160, Note_on_c, 0, 66, 0
3, 14160, Note_on_c, 0, 71, 0
3, 14160, Note_on_c, 0, 60, 0
3, 14160, Note_on_c, 0, 60, 16
3, 14160, Note_on_c, 0, 69, 20
3, 14160, Note_on_c, 0, 66, 16
3, 14280, Note_on_c, 0, 66, 0
3, 14280, Note_on_c, 0, 69, 0
3, 14280, Note_on_c, 0, 60, 0
3, 14400, Note_on_c, 0, 43, 19
3, 14400, Note_on_c, 0, 50, 23
3, 14640, Note_on_c, 0, 50, 0
3, 14640, Note_on_c, 0, 43, 0
3, 14640, Note_on_c, 0, 59, 17
3, 14640, Note_on_c, 0, 67, 21
3, 14640, Note_on_c, 0, 62, 17
3, 15300, Note_on_c, 0, 62, 0
3, 15300, Note_on_c, 0, 67, 0
3, 15300, Note_on_c, 0, 59, 0
3, 15360, Note_on_c, 0, 43, 25
3, 15600, Note_on_c, 0, 43, 0
3, 15600, Note_on_c, 0, 59, 18
3, 15600, Note_on_c, 0, 50, 15
3, 16080, Note_on_c, 0, 50, 0
3, 16080, Note_on_c, 0, 59, 0
3, 16080, Note_on_c, 0, 59, 18
3, 16080, Note_on_c, 0, 50, 15
3, 16320, Note_on_c, 0, 50, 0
3, 16320, Note_on_c, 0, 59, 0
3, 16320, Note_on_c, 0, 43, 25
3, 16560, Note_on_c, 0, 43, 0
3, 16560, Note_on_c, 0, 59, 18
3, 16560, Note_on_c, 0, 50, 15
3, 17040, Note_on_c, 0, 50, 0
3, 17040, Note_on_c, 0, 59, 0
3, 17040, Note_on_c, 0, 59, 18
3, 17040, Note_on_c, 0, 50, 15
3, 17280, Note_on_c, 0, 50, 0
3, 17280, Note_on_c, 0, 59, 0
3, 17280, Note_on_c, 0, 43, 25
3, 17520, Note_on_c, 0, 43, 0
3, 17520, Note_on_c, 0, 59, 21
3, 17520, Note_on_c, 0, 50, 18
3, 18000, Note_on_c, 0, 50, 0
3, 18000, Note_on_c, 0, 59, 0
3, 18000, Note_on_c, 0, 60, 20
3, 18000, Note_on_c, 0, 50, 17
3, 18240, Note_on_c, 0, 50, 0
3, 18240, Note_on_c, 0, 60, 0
3, 18240, Note_on_c, 0, 43, 25
3, 18480, Note_on_c, 0, 43, 0
3, 18480, Note_on_c, 0, 59, 21
3, 18480, Note_on_c, 0, 50, 18
3, 18960, Note_on_c, 0, 50, 0
3, 18960, Note_on_c, 0, 59, 0
3, 18960, Note_on_c, 0, 59, 21
3, 18960, Note_on_c, 0, 50, 18
3, 19080, Note_on_c, 0, 50, 0
3, 19080, Note_on_c, 0, 59, 0
3, 19200, Note_on_c, 0, 43, 25
3, 19440, Note_on_c, 0, 43, 0
3, 19440, Note_on_c, 0, 60, 21
3, 19440, Note_on_c, 0, 50, 18
3, 19920, Note_on_c, 0, 50, 0
3, 19920, Note_on_c, 0, 60, 0
3, 19920, Note_on_c, 0, 60, 20
3, 19920, Note_on_c, 0, 50, 17
3, 20040, Note_on_c, 0, 50, 0
3, 20040, Note_on_c, 0, 60, 0
3, 20160, Note_on_c, 0, 43, 28
3, 20400, Note_on_c, 0, 43, 0
3, 20400, Note_on_c, 0, 60, 24
3, 20400, Note_on_c, 0, 50, 20
3, 20880, Note_on_c, 0, 50, 0
3, 20880, Note_on_c, 0, 60, 0
3, 20880, Note_on_c, 0, 60, 23
3, 20880, Note_on_c, 0, 50, 19
3, 21000, Note_on_c, 0, 50, 0
3, 21000, Note_on_c, 0, 60, 0
3, 21120, Note_on_c, 0, 43, 28
3, 21360, Note_on_c, 0, 43, 0
3, 21360, Note_on_c, 0, 60, 24
3, 21360, Note_on_c, 0, 50, 20
3, 21840, Note_on_c, 0, 50, 0
3, 21840, Note_on_c, 0, 60, 0
3, 21840, Note_on_c, 0, 60, 23
3, 21840, Note_on_c, 0, 50, 19
3, 21960, Note_on_c, 0, 50, 0
3, 21960, Note_on_c, 0, 60, 0
3, 22080, Note_on_c, 0, 43, 28
3, 22320, Note_on_c, 0, 43, 0
3, 22320, Note_on_c, 0, 60, 24
3, 22320, Note_on_c, 0, 50, 20
3, 22800, Note_on_c, 0, 50, 0
3, 22800, Note_on_c, 0, 60, 0
3, 22800, Note_on_c, 0, 60, 23
3, 22800, Note_on_c, 0, 50, 19
3, 22920, Note_on_c, 0, 50, 0
3, 22920, Note_on_c, 0, 60, 0
3, 23040, Note_on_c, 0, 55, 28
3, 23280, Note_on_c, 0, 55, 0
3, 23280, Note_on_c, 0, 71, 24
3, 23280, Note_on_c, 0, 62, 20
3, 23760, Note_on_c, 0, 62, 0
3, 23760, Note_on_c, 0, 71, 0
3, 23760, Note_on_c, 0, 71, 23
3, 23760, Note_on_c, 0, 62, 19
3, 23880, Note_on_c, 0, 62, 0
3, 23880, Note_on_c, 0, 71, 0
3, 24000, Note_on_c, 0, 55, 28
3, 24240, Note_on_c, 0, 55, 0
3, 24240, Note_on_c, 0, 71, 24
3, 24240, Note_on_c, 0, 62, 20
3, 24720, Note_on_c, 0, 62, 0
3, 24720, Note_on_c, 0, 71, 0
3, 24720, Note_on_c, 0, 71, 23
3, 24720, Note_on_c, 0, 62, 19
3, 24840, Note_on_c, 0, 62, 0
3, 24840, Note_on_c, 0, 71, 0
3, 24960, Note_on_c, 0, 55, 28
3, 25200, Note_on_c, 0, 55, 0
3, 25200, Note_on_c, 0, 71, 24
3, 25200, Note_on_c, 0, 62, 20
3, 25680, Note_on_c, 0, 62, 0
3, 25680, Note_on_c, 0, 71, 0
3, 25680, Note_on_c, 0, 72, 23
3, 25680, Note_on_c, 0, 62, 19
3, 25860, Note_on_c, 0, 62, 0
3, 25860, Note_on_c, 0, 72, 0
3, 25920, Note_on_c, 0, 55, 28
3, 26160, Note_on_c, 0, 55, 0
3, 26160, Note_on_c, 0, 71, 24
3, 26160, Note_on_c, 0, 62, 20
3, 26640, Note_on_c, 0, 62, 0
3, 26640, Note_on_c, 0, 71, 0
3, 26640, Note_on_c, 0, 71, 23
3, 26640, Note_on_c, 0, 62, 19
3, 26760, Note_on_c, 0, 62, 0
3, 26760, Note_on_c, 0, 71, 0
3, 26880, Note_on_c, 0, 50, 28
3, 27120, Note_on_c, 0, 50, 0
3, 27120, Note_on_c, 0, 59, 17
3, 27120, Note_on_c, 0, 69, 21
3, 27120, Note_on_c, 0, 62, 17
3, 27600, Note_on_c, 0, 62, 0
3, 27600, Note_on_c, 0, 69, 0
3, 27600, Note_on_c, 0, 59, 0
3, 27600, Note_on_c, 0, 59, 16
3, 27600, Note_on_c, 0, 67, 20
3, 27600, Note_on_c, 0, 62, 16
3, 27720, Note_on_c, 0, 62, 0
3, 27720, Note_on_c, 0, 67, 0
3, 27720, Note_on_c, 0, 59, 0
3, 27840, Note_on_c, 0, 50, 28
3, 28080, Note_on_c, 0, 50, 0
3, 28080, Note_on_c, 0, 58, 17
3, 28080, Note_on_c, 0, 69, 21
3, 28080, Note_on_c, 0, 64, 17
3, 28560, Note_on_c, 0, 64, 0
3, 28560, Note_on_c, 0, 69, 0
3, 28560, Note_on_c, 0, 58, 0
3, 28560, Note_on_c, 0, 58, 16
3, 28560, Note_on_c, 0, 67, 20
3, 28560, Note_on_c, 0, 64, 16
3, 28680, Note_on_c, 0, 64, 0
3, 28680, Note_on_c, 0, 67, 0
3, 28680, Note_on_c, 0, 58, 0
3, 28800, Note_on_c, 0, 50, 28
3, 29040, Note_on_c, 0, 50, 0
3, 29040, Note_on_c, 0, 60, 17
3, 29040, Note_on_c, 0, 71, 21
3, 29040, Note_on_c, 0, 66, 17
3, 29520, Note_on_c, 0, 66, 0
3, 29520, Note_on_c, 0, 71, 0
3, 29520, Note_on_c, 0, 60, 0
3, 29520, Note_on_c, 0, 60, 16
3, 29520, Note_on_c, 0, 69, 20
3, 29520, Note_on_c, 0, 66, 16
3, 29640, Note_on_c, 0, 66, 0
3, 29640, Note_on_c, 0, 69, 0
3, 29640, Note_on_c, 0, 60, 0
3, 29760, Note_on_c, 0, 43, 19
3, 29760, Note_on_c, 0, 50, 23
3, 30000, Note_on_c, 0, 50, 0
3, 30000, Note_on_c, 0, 43, 0
3, 30000, Note_on_c, 0, 59, 17
3, 30000, Note_on_c, 0, 67, 21
3, 30000, Note_on_c, 0, 62, 17
3, 30660, Note_on_c, 0, 62, 0
3, 30660, Note_on_c, 0, 67, 0
3, 30660, Note_on_c, 0, 59, 0
3, 30720, Note_on_c, 0, 50, 32
3, 30720, Note_on_c, 0, 43, 27
3, 30780, Note_on_c, 0, 43, 0
3, 30780, Note_on_c, 0, 50, 0
3, 30960, Note_on_c, 0, 43, 23
3, 30960, Note_on_c, 0, 50, 28
3, 31080, Note_on_c, 0, 50, 0
3, 31080, Note_on_c, 0, 43, 0
3, 31200, Note_on_c, 0, 51, 31
3, 31200, Note_on_c, 0, 43, 26
3, 31680, Note_on_c, 0, 43, 0
3, 31680, Note_on_c, 0, 51, 0
3, 31680, Note_on_c, 0, 50, 32
3, 31680, Note_on_c, 0, 43, 27
3, 31740, Note_on_c, 0, 43, 0
3, 31740, Note_on_c, 0, 50, 0
3, 31920, Note_on_c, 0, 43, 23
3, 31920, Note_on_c, 0, 50, 28
3, 32040, Note_on_c, 0, 50, 0
3, 32040, Note_on_c, 0, 43, 0
3, 32160, Note_on_c, 0, 51, 31
3, 32160, Note_on_c, 0, 43, 26
3, 32640, Note_on_c, 0, 43, 0
3, 32640, Note_on_c, 0, 51, 0
3, 32640, Note_on_c, 0, 50, 32
3, 32640, Note_on_c, 0, 43, 27
3, 32700, Note_on_c, 0, 43, 0
3, 32700, Note_on_c, 0, 50, 0
3, 32880, Note_on_c, 0, 43, 25
3, 32880, Note_on_c, 0, 51, 30
3, 33000, Note_on_c, 0, 51, 0
3, 33000, Note_on_c, 0, 43, 0
3, 33120, Note_on_c, 0, 50, 35
3, 33120, Note_on_c, 0, 43, 29
3, 33180, Note_on_c, 0, 43, 0
3, 33180, Note_on_c, 0, 50, 0
3, 33360, Note_on_c, 0, 43, 29
3, 33360, Note_on_c, 0, 51, 34
3, 33480, Note_on_c, 0, 51, 0
3, 33480, Note_on_c, 0, 43, 0
3, 33600, Note_on_c, 0, 50, 40
3, 33600, Note_on_c, 0, 43, 34
3, 33660, Note_on_c, 0, 43, 0
3, 33660, Note_on_c, 0, 50, 0
3, 33840, Note_on_c, 0, 43, 32
3, 33840, Note_on_c, 0, 51, 38
3, 33960, Note_on_c, 0, 51, 0
3, 33960, Note_on_c, 0, 43, 0
3, 34080, Note_on_c, 0, 50, 45
3, 34080, Note_on_c, 0, 43, 37
3, 34140, Note_on_c, 0, 43, 0
3, 34140, Note_on_c, 0, 50, 0
3, 34320, Note_on_c, 0, 43, 35
3, 34320, Note_on_c, 0, 51, 41
3, 34440, Note_on_c, 0, 51, 0
3, 34440, Note_on_c, 0, 43, 0
3, 34560, Note_on_c, 0, 43, 42
3, 34560, Note_on_c, 0, 50, 51
3, 35520, Note_on_c, 0, 50, 0
3, 35520, Note_on_c, 0, 43, 0
3, 35520, Note_on_c, 0, 38, 38
3, 35520, Note_on_c, 0, 53, 45
3, 36480, Note_on_c, 0, 53, 0
3, 36480, Note_on_c, 0, 38, 0
3, 36480, Note_on_c, 0, 31, 27
3, 36480, Note_on_c, 0, 50, 32
3, 37920, Note_on_c, 0, 50, 0
3, 37920, Note_on_c, 0, 31, 0
3, 38400, Note_on_c, 0, 53, 32
3, 38400, Note_on_c, 0, 46, 27
3, 38460, Note_on_c, 0, 46, 0
3, 38460, Note_on_c, 0, 53, 0
3, 38640, Note_on_c, 0, 46, 23
3, 38640, Note_on_c, 0, 53, 28
3, 38760, Note_on_c, 0, 53, 0
3, 38760, Note_on_c, 0, 46, 0
3, 38880, Note_on_c, 0, 54, 31
3, 38880, Note_on_c, 0, 46, 26
3, 39360, Note_on_c, 0, 46, 0
3, 39360, Note_on_c, 0, 54, 0
3, 39360, Note_on_c, 0, 53, 32
3, 39360, Note_on_c, 0, 46, 27
3, 39420, Note_on_c, 0, 46, 0
3, 39420, Note_on_c, 0, 53, 0
3, 39600, Note_on_c, 0, 46, 23
3, 39600, Note_on_c, 0, 53, 28
3, 39720, Note_on_c, 0, 53, 0
3, 39720, Note_on_c, 0, 46, 0
3, 39840, Note_on_c, 0, 54, 31
3, 39840, Note_on_c, 0, 46, 26
3, 40320, Note_on_c, 0, 46, 0
3, 40320, Note_on_c, 0, 54, 0
3, 40320, Note_on_c, 0, 53, 32
3, 40320, Note_on_c, 0, 46, 27
3, 40380, Note_on_c, 0, 46, 0
3, 40380, Note_on_c, 0, 53, 0
3, 40560, Note_on_c, 0, 46, 25
3, 40560, Note_on_c, 0, 54, 30
3, 40680, Note_on_c, 0, 54, 0
3, 40680, Note_on_c, 0, 46, 0
3, 40800, Note_on_c, 0, 53, 35
3, 40800, Note_on_c, 0, 46, 29
3, 40860, Note_on_c, 0, 46, 0
3, 40860, Note_on_c, 0, 53, 0
3, 41040, Note_on_c, 0, 46, 29
3, 41040, Note_on_c, 0, 54, 34
3, 41160, Note_on_c, 0, 54, 0
3, 41160, Note_on_c, 0, 46, 0
3, 41280, Note_on_c, 0, 53, 40
3, 41280, Note_on_c, 0, 46, 34
3, 41340, Note_on_c, 0, 46, 0
3, 41340, Note_on_c, 0, 53, 0
3, 41520, Note_on_c, 0, 46, 32
3, 41520, Note_on_c, 0, 54, 38
3, 41640, Note_on_c, 0, 54, 0
3, 41640, Note_on_c, 0, 46, 0
3, 41760, Note_on_c, 0, 53, 45
3, 41760, Note_on_c, 0, 46, 37
3, 41820, Note_on_c, 0, 46, 0
3, 41820, Note_on_c, 0, 53, 0
3, 42000, Note_on_c, 0, 46, 35
3, 42000, Note_on_c, 0, 54, 41
3, 42120, Note_on_c, 0, 54, 0
3, 42120, Note_on_c, 0, 46, 0
3, 42240, Note_on_c, 0, 46, 42
3, 42240, Note_on_c, 0, 53, 51
3, 43200, Note_on_c, 0, 53, 0
3, 43200, Note_on_c, 0, 46, 0
3, 43200, Note_on_c, 0, 41, 38
3, 43200, Note_on_c, 0, 56, 45
3, 44160, Note_on_c, 0, 56, 0
3, 44160, Note_on_c, 0, 41, 0
3, 44160, Note_on_c, 0, 34, 27
3, 44160, Note_on_c, 0, 53, 32
3, 45600, Note_on_c, 0, 53, 0
3, 45600, Note_on_c, 0, 34, 0
3, 46080, Note_on_c, 0, 37, 24
3, 46240, Note_on_c, 0, 44, 24
3, 46400, Note_on_c, 0, 49, 25
3, 46560, Note_on_c, 0, 52, 29
3, 46720, Note_on_c, 0, 56, 27
3, 46880, Note_on_c, 0, 61, 29
3, 48480, Note_on_c, 0, 61, 0
3, 48480, Note_on_c, 0, 44, 0
3, 48480, Note_on_c, 0, 49, 0
3, 48480, Note_on_c, 0, 37, 0
3, 48480, Note_on_c, 0, 56, 0
3, 48480, Note_on_c, 0, 52, 0
3, 48960, Note_on_c, 0, 55, 21
3, 49200, Note_on_c, 0, 61, 12
3, 49200, Note_on_c, 0, 64, 15
3, 49200, Note_on_c, 0, 57, 12
3, 49680, Note_on_c, 0, 57, 0
3, 49680, Note_on_c, 0, 64, 0
3, 49680, Note_on_c, 0, 61, 0
3, 49680, Note_on_c, 0, 61, 12
3, 49680, Note_on_c, 0, 64, 15
3, 49680, Note_on_c, 0, 57, 12
3, 49920, Note_on_c, 0, 57, 0
3, 49920, Note_on_c, 0, 55, 0
3, 49920, Note_on_c, 0, 61, 0
3, 49920, Note_on_c, 0, 64, 0
3, 49920, Note_on_c, 0, 55, 21
3, 50160, Note_on_c, 0, 61, 12
3, 50160, Note_on_c, 0, 64, 15
3, 50160, Note_on_c, 0, 57, 12
3, 50640, Note_on_c, 0, 57, 0
3, 50640, Note_on_c, 0, 64, 0
3, 50640, Note_on_c, 0, 61, 0
3, 50640, Note_on_c, 0, 61, 12
3, 50640, Note_on_c, 0, 64, 15
3, 50640, Note_on_c, 0, 57, 12
3, 50880, Note_on_c, 0, 57, 0
3, 50880, Note_on_c, 0, 55, 0
3, 50880, Note_on_c, 0, 61, 0
3, 50880, Note_on_c, 0, 64, 0
3, 50880, Note_on_c, 0, 55, 21
3, 51120, Note_on_c, 0, 61, 15
3, 51120, Note_on_c, 0, 64, 17
3, 51120, Note_on_c, 0, 57, 15
3, 51600, Note_on_c, 0, 57, 0
3, 51600, Note_on_c, 0, 64, 0
3, 51600, Note_on_c, 0, 61, 0
3, 51600, Note_on_c, 0, 62, 14
3, 51600, Note_on_c, 0, 65, 17
3, 51600, Note_on_c, 0, 58, 14
3, 51840, Note_on_c, 0, 58, 0
3, 51840, Note_on_c, 0, 55, 0
3, 51840, Note_on_c, 0, 62, 0
3, 51840, Note_on_c, 0, 65, 0
3, 51840, Note_on_c, 0, 55, 21
3, 52080, Note_on_c, 0, 61, 15
3, 52080, Note_on_c, 0, 64, 17
3, 52080, Note_on_c, 0, 57, 15
3, 52560, Note_on_c, 0, 57, 0
3, 52560, Note_on_c, 0, 64, 0
3, 52560, Note_on_c, 0, 61, 0
3, 52560, Note_on_c, 0, 61, 15
3, 52560, Note_on_c, 0, 64, 17
3, 52560, Note_on_c, 0, 57, 15
3, 52680, Note_on_c, 0, 57, 0
3, 52680, Note_on_c, 0, 64, 0
3, 52680, Note_on_c, 0, 61, 0
3, 52800, Note_on_c, 0, 55, 0
3, 52800, Note_on_c, 0, 55, 21
3, 53040, Note_on_c, 0, 61, 15
3, 53040, Note_on_c, 0, 64, 17
3, 53040, Note_on_c, 0, 57, 15
3, 53520, Note_on_c, 0, 57, 0
3, 53520, Note_on_c, 0, 64, 0
3, 53520, Note_on_c, 0, 61, 0
3, 53520, Note_on_c, 0, 61, 14
3, 53520, Note_on_c, 0, 64, 17
3, 53520, Note_on_c, 0, 57, 14
3, 53640, Note_on_c, 0, 57, 0
3, 53640, Note_on_c, 0, 64, 0
3, 53640, Note_on_c, 0, 61, 0
3, 53760, Note_on_c, 0, 55, 0
3, 53760, Note_on_c, 0, 55, 23
3, 54000, Note_on_c, 0, 61, 17
3, 54000, Note_on_c, 0, 64, 20
3, 54000, Note_on_c, 0, 57, 17
3, 54480, Note_on_c, 0, 57, 0
3, 54480, Note_on_c, 0, 64, 0
3, 54480, Note_on_c, 0, 61, 0
3, 54480, Note_on_c, 0, 61, 16
3, 54480, Note_on_c, 0, 64, 19
3, 54480, Note_on_c, 0, 57, 16
3, 54720, Note_on_c, 0, 57, 0
3, 54720, Note_on_c, 0, 55, 0
3, 54720, Note_on_c, 0, 61, 0
3, 54720, Note_on_c, 0, 64, 0
3, 54720, Note_on_c, 0, 55, 23
3, 54960, Note_on_c, 0, 61, 17
3, 54960, Note_on_c, 0, 64, 20
3, 54960, Note_on_c, 0, 57, 17
3, 55440, Note_on_c, 0, 57, 0
3, 55440, Note_on_c, 0, 64, 0
3, 55440, Note_on_c, 0, 61, 0
3, 55440, Note_on_c, 0, 62, 16
3, 55440, Note_on_c, 0, 64, 19
3, 55440, Note_on_c, 0, 58, 16
3, 55560, Note_on_c, 0, 58, 0
3, 55560, Note_on_c, 0, 64, 0
3, 55560, Note_on_c, 0, 62, 0
3, 55680, Note_on_c, 0, 55, 0
3, 55680, Note_on_c, 0, 55, 23
3, 55920, Note_on_c, 0, 61, 17
3, 55920, Note_on_c, 0, 64, 20
3, 55920, Note_on_c, 0, 57, 17
3, 56400, Note_on_c, 0, 57, 0
3, 56400, Note_on_c, 0, 64, 0
3, 56400, Note_on_c, 0, 61, 0
3, 56400, Note_on_c, 0, 61, 16
3, 56400, Note_on_c, 0, 64, 19
3, 56400, Note_on_c, 0, 57, 16
3, 56640, Note_on_c, 0, 57, 0
3, 56640, Note_on_c, 0, 55, 0
3, 56640, Note_on_c, 0, 61, 0
3, 56640, Note_on_c, 0, 64, 0
3, 56640, Note_on_c, 0, 55, 28
3, 56880, Note_on_c, 0, 63, 20
3, 56880, Note_on_c, 0, 67, 24
3, 56880, Note_on_c, 0, 58, 20
3, 57360, Note_on_c, 0, 58, 0
3, 57360, Note_on_c, 0, 67, 0
3, 57360, Note_on_c, 0, 63, 0
3, 57360, Note_on_c, 0, 63, 19
3, 57360, Note_on_c, 0, 67, 23
3, 57360, Note_on_c, 0, 58, 19
3, 57480, Note_on_c, 0, 58, 0
3, 57480, Note_on_c, 0, 67, 0
3, 57480, Note_on_c, 0, 63, 0
3, 57600, Note_on_c, 0, 55, 0
3, 57600, Note_on_c, 0, 55, 28
3, 57840, Note_on_c, 0, 63, 20
3, 57840, Note_on_c, 0, 67, 24
3, 57840, Note_on_c, 0, 58, 20
3, 58320, Note_on_c, 0, 58, 0
3, 58320, Note_on_c, 0, 67, 0
3, 58320, Note_on_c, 0, 63, 0
3, 58320, Note_on_c, 0, 63, 19
3, 58320, Note_on_c, 0, 67, 23
3, 58320, Note_on_c, 0, 58, 19
3, 58560, Note_on_c, 0, 58, 0
3, 58560, Note_on_c, 0, 55, 0
3, 58560, Note_on_c, 0, 63, 0
3, 58560, Note_on_c, 0, 67, 0
3, 58560, Note_on_c, 0, 55, 36
3, 58800, Note_on_c, 0, 63, 26
3, 58800, Note_on_c, 0, 68, 31
3, 58800, Note_on_c, 0, 60, 26
3, 59280, Note_on_c, 0, 60, 0
3, 59280, Note_on_c, 0, 68, 0
3, 59280, Note_on_c, 0, 63, 0
3, 59280, Note_on_c, 0, 63, 24
3, 59280, Note_on_c, 0, 69, 29
3, 59280, Note_on_c, 0, 60, 24
3, 59400, Note_on_c, 0, 60, 0
3, 59400, Note_on_c, 0, 69, 0
3, 59400, Note_on_c, 0, 63, 0
3, 59520, Note_on_c, 0, 55, 0
3, 59520, Note_on_c, 0, 55, 36
3, 59760, Note_on_c, 0, 63, 26
3, 59760, Note_on_c, 0, 68, 31
3, 59760, Note_on_c, 0, 60, 26
3, 60240, Note_on_c, 0, 60, 0
3, 60240, Note_on_c, 0, 68, 0
3, 60240, Note_on_c, 0, 63, 0
3, 60240, Note_on_c, 0, 63, 24
3, 60240, Note_on_c, 0, 69, 29
3, 60240, Note_on_c, 0, 60, 24
3, 60420, Note_on_c, 0, 60, 0
3, 60420, Note_on_c, 0, 69, 0
3, 60420, Note_on_c, 0, 63, 0
3, 60480, Note_on_c, 0, 55, 0
3, 60480, Note_on_c, 0, 55, 54
3, 60720, Note_on_c, 0, 55, 0
3, 60720, Note_on_c, 0, 70, 43
3, 60720, Note_on_c, 0, 66, 37
3, 60720, Note_on_c, 0, 72, 43
3, 60720, Note_on_c, 0, 63, 37
3, 61200, Note_on_c, 0, 63, 0
3, 61200, Note_on_c, 0, 70, 0
3, 61200, Note_on_c, 0, 66, 0
3, 61200, Note_on_c, 0, 72, 0
3, 61200, Note_on_c, 0, 63, 37
3, 61200, Note_on_c, 0, 72, 43
3, 61200, Note_on_c, 0, 66, 37
3, 61200, Note_on_c, 0, 69, 43
3, 61380, Note_on_c, 0, 69, 0
3, 61380, Note_on_c, 0, 63, 0
3, 61380, Note_on_c, 0, 72, 0
3, 61380, Note_on_c, 0, 66, 0
3, 61440, Note_on_c, 0, 55, 54
3, 61680, Note_on_c, 0, 55, 0
3, 61680, Note_on_c, 0, 70, 43
3, 61680, Note_on_c, 0, 66, 37
3, 61680, Note_on_c, 0, 72, 43
3, 61680, Note_on_c, 0, 63, 37
3, 62160, Note_on_c, 0, 63, 0
3, 62160, Note_on_c, 0, 70, 0
3, 62160, Note_on_c, 0, 66, 0
3, 62160, Note_on_c, 0, 72, 0
3, 62160, Note_on_c, 0, 63, 37
3, 62160, Note_on_c, 0, 72, 43
3, 62160, Note_on_c, 0, 66, 37
3, 62160, Note_on_c, 0, 69, 43
3, 62340, Note_on_c, 0, 69, 0
3, 62340, Note_on_c, 0, 63, 0
3, 62340, Note_on_c, 0, 72, 0
3, 62340, Note_on_c, 0, 66, 0
3, 62400, Note_on_c, 0, 55, 54
3, 62640, Note_on_c, 0, 55, 0
3, 62640, Note_on_c, 0, 70, 44
3, 62640, Note_on_c, 0, 66, 37
3, 62640, Note_on_c, 0, 72, 44
3, 62640, Note_on_c, 0, 63, 37
3, 63120, Note_on_c, 0, 63, 0
3, 63120, Note_on_c, 0, 70, 0
3, 63120, Note_on_c, 0, 66, 0
3, 63120, Note_on_c, 0, 72, 0
3, 63120, Note_on_c, 0, 63, 40
3, 63120, Note_on_c, 0, 72, 48
3, 63120, Note_on_c, 0, 66, 40
3, 63120, Note_on_c, 0, 69, 48
3, 63360, Note_on_c, 0, 69, 0
3, 63360, Note_on_c, 0, 63, 0
3, 63360, Note_on_c, 0, 72, 0
3, 63360, Note_on_c, 0, 66, 0
3, 63360, Note_on_c, 0, 55, 65
3, 63600, Note_on_c, 0, 55, 0
3, 63600, Note_on_c, 0, 70, 51
3, 63600, Note_on_c, 0, 66, 43
3, 63600, Note_on_c, 0, 72, 51
3, 63600, Note_on_c, 0, 63, 43
3, 64080, Note_on_c, 0, 63, 0
3, 64080, Note_on_c, 0, 70, 0
3, 64080, Note_on_c, 0, 66, 0
3, 64080, Note_on_c, 0, 72, 0
3, 64080, Note_on_c, 0, 63, 44
3, 64080, Note_on_c, 0, 72, 51
3, 64080, Note_on_c, 0, 66, 44
3, 64080, Note_on_c, 0, 69, 51
3, 64260, Note_on_c, 0, 69, 0
3, 64260, Note_on_c, 0, 63, 0
3, 64260, Note_on_c, 0, 72, 0
3, 64260, Note_on_c, 0, 66, 0
3, 64320, Note_on_c, 0, 48, 39
3, 64560, Note_on_c, 0, 55, 37
3, 64560, Note_on_c, 0, 63, 43
3, 65040, Note_on_c, 0, 63, 0
3, 65040, Note_on_c, 0, 55, 0
3, 65040, Note_on_c, 0, 63, 43
3, 65040, Note_on_c, 0, 55, 37
3, 65220, Note_on_c, 0, 55, 0
3, 65220, Note_on_c, 0, 63, 0
3, 65280, Note_on_c, 0, 48, 0
3, 65280, Note_on_c, 0, 47, 43
3, 65520, Note_on_c, 0, 55, 33
3, 65520, Note_on_c, 0, 62, 38
3, 66000, Note_on_c, 0, 62, 0
3, 66000, Note_on_c, 0, 55, 0
3, 66000, Note_on_c, 0, 62, 38
3, 66000, Note_on_c, 0, 55, 33
3, 66180, Note_on_c, 0, 55, 0
3, 66180, Note_on_c, 0, 62, 0
3, 66240, Note_on_c, 0, 47, 0
3, 66240, Note_on_c, 0, 46, 39
3, 66480, Note_on_c, 0, 52, 29
3, 66480, Note_on_c, 0, 55, 29
3, 66480, Note_on_c, 0, 61, 34
3, 66960, Note_on_c, 0, 61, 0
3, 66960, Note_on_c, 0, 55, 0
3, 66960, Note_on_c, 0, 52, 0
3, 66960, Note_on_c, 0, 52, 29
3, 66960, Note_on_c, 0, 61, 34
3, 66960, Note_on_c, 0, 55, 29
3, 67140, Note_on_c, 0, 55, 0
3, 67140, Note_on_c, 0, 61, 0
3, 67140, Note_on_c, 0, 52, 0
3, 67200, Note_on_c, 0, 46, 0
3, 67200, Note_on_c, 0, 45, 31
3, 67440, Note_on_c, 0, 50, 18
3, 67440, Note_on_c, 0, 54, 18
3, 67440, Note_on_c, 0, 60, 21
3, 67920, Note_on_c, 0, 60, 0
3, 67920, Note_on_c, 0, 54, 0
3, 67920, Note_on_c, 0, 50, 0
3, 67920, Note_on_c, 0, 50, 18
3, 67920, Note_on_c, 0, 60, 21
3, 67920, Note_on_c, 0, 54, 18
3, 68100, Note_on_c, 0, 54, 0
3, 68100, Note_on_c, 0, 60, 0
3, 68100, Note_on_c, 0, 50, 0
3, 68160, Note_on_c, 0, 45, 0
3, 68160, Note_on_c, 0, 43, 28
3, 68400, Note_on_c, 0, 43, 0
3, 68400, Note_on_c, 0, 59, 20
3, 68400, Note_on_c, 0, 50, 17
3, 68880, Note_on_c, 0, 50, 0
3, 68880, Note_on_c, 0, 59, 0
3, 68880, Note_on_c, 0, 59, 20
3, 68880, Note_on_c, 0, 50, 17
3, 69120, Note_on_c, 0, 50, 0
3, 69120, Note_on_c, 0, 59, 0
3, 69120, Note_on_c, 0, 43, 28
3, 69360, Note_on_c, 0, 43, 0
3, 69360, Note_on_c, 0, 59, 21
3, 69360, Note_on_c, 0, 50, 17
3, 69840, Note_on_c, 0, 50, 0
3, 69840, Note_on_c, 0, 59, 0
3, 69840, Note_on_c, 0, 59, 21
3, 69840, Note_on_c, 0, 50, 17
3, 70080, Note_on_c, 0, 50, 0
3, 70080, Note_on_c, 0, 59, 0
3, 70080, Note_on_c, 0, 43, 28
3, 70320, Note_on_c, 0, 43, 0
3, 70320, Note_on_c, 0, 59, 24
3, 70320, Note_on_c, 0, 50, 20
3, 70800, Note_on_c, 0, 50, 0
3, 70800, Note_on_c, 0, 59, 0
3, 70800, Note_on_c, 0, 60, 23
3, 70800, Note_on_c, 0, 50, 19
3, 71040, Note_on_c, 0, 50, 0
3, 71040, Note_on_c, 0, 60, 0
3, 71040, Note_on_c, 0, 43, 28
3, 71280, Note_on_c, 0, 43, 0
3, 71280, Note_on_c, 0, 59, 24
3, 71280, Note_on_c, 0, 50, 20
3, 71760, Note_on_c, 0, 50, 0
3, 71760, Note_on_c, 0, 59, 0
3, 71760, Note_on_c, 0, 59, 24
3, 71760, Note_on_c, 0, 50, 20
3, 71880, Note_on_c, 0, 50, 0
3, 71880, Note_on_c, 0, 59, 0
3, 72000, Note_on_c, 0, 43, 28
3, 72240, Note_on_c, 0, 43, 0
3, 72240, Note_on_c, 0, 60, 24
3, 72240, Note_on_c, 0, 50, 20
3, 72720, Note_on_c, 0, 50, 0
3, 72720, Note_on_c, 0, 60, 0
3, 72720, Note_on_c, 0, 60, 23
3, 72720, Note_on_c, 0, 50, 19
3, 72840, Note_on_c, 0, 50, 0
3, 72840, Note_on_c, 0, 60, 0
3, 72960, Note_on_c, 0, 43, 28
3, 73200, Note_on_c, 0, 43, 0
3, 73200, Note_on_c, 0, 60, 24
3, 73200, Note_on_c, 0, 50, 20
3, 73680, Note_on_c, 0, 50, 0
3, 73680, Note_on_c, 0, 60, 0
3, 73680, Note_on_c, 0, 60, 23
3, 73680, Note_on_c, 0, 50, 19
3, 73800, Note_on_c, 0, 50, 0
3, 73800, Note_on_c, 0, 60, 0
3, 73920, Note_on_c, 0, 43, 28
3, 74160, Note_on_c, 0, 43, 0
3, 74160, Note_on_c, 0, 60, 24
3, 74160, Note_on_c, 0, 50, 20
3, 74640, Note_on_c, 0, 50, 0
3, 74640, Note_on_c, 0, 60, 0
3, 74640, Note_on_c, 0, 60, 23
3, 74640, Note_on_c, 0, 50, 19
3, 74760, Note_on_c, 0, 50, 0
3, 74760, Note_on_c, 0, 60, 0
3, 74880, Note_on_c, 0, 43, 28
3, 75120, Note_on_c, 0, 43, 0
3, 75120, Note_on_c, 0, 60, 24
3, 75120, Note_on_c, 0, 50, 20
3, 75600, Note_on_c, 0, 50, 0
3, 75600, Note_on_c, 0, 60, 0
3, 75600, Note_on_c, 0, 60, 23
3, 75600, Note_on_c, 0, 50, 19
3, 75720, Note_on_c, 0, 50, 0
3, 75720, Note_on_c, 0, 60, 0
3, 75840, Note_on_c, 0, 55, 28
3, 76080, Note_on_c, 0, 55, 0
3, 76080, Note_on_c, 0, 71, 24
3, 76080, Note_on_c, 0, 62, 20
3, 76560, Note_on_c, 0, 62, 0
3, 76560, Note_on_c, 0, 71, 0
3, 76560, Note_on_c, 0, 71, 23
3, 76560, Note_on_c, 0, 62, 19
3, 76680, Note_on_c, 0, 62, 0
3, 76680, Note_on_c, 0, 71, 0
3, 76800, Note_on_c, 0, 55, 28
3, 77040, Note_on_c, 0, 55, 0
3, 77040, Note_on_c, 0, 71, 24
3, 77040, Note_on_c, 0, 62, 20
3, 77520, Note_on_c, 0, 62, 0
3, 77520, Note_on_c, 0, 71, 0
3, 77520, Note_on_c, 0, 71, 23
3, 77520, Note_on_c, 0, 62, 19
3, 77640, Note_on_c, 0, 62, 0
3, 77640, Note_on_c, 0, 71, 0
3, 77760, Note_on_c, 0, 55, 28
3, 78000, Note_on_c, 0, 55, 0
3, 78000, Note_on_c, 0, 71, 24
3, 78000, Note_on_c, 0, 62, 20
3, 78480, Note_on_c, 0, 62, 0
3, 78480, Note_on_c, 0, 71, 0
3, 78480, Note_on_c, 0, 72, 23
3, 78480, Note_on_c, 0, 62, 19
3, 78660, Note_on_c, 0, 62, 0
3, 78660, Note_on_c, 0, 72, 0
3, 78720, Note_on_c, 0, 55, 28
3, 78960, Note_on_c, 0, 55, 0
3, 78960, Note_on_c, 0, 71, 24
3, 78960, Note_on_c, 0, 62, 20
3, 79440, Note_on_c, 0, 62, 0
3, 79440, Note_on_c, 0, 71, 0
3, 79440, Note_on_c, 0, 71, 23
3, 79440, Note_on_c, 0, 62, 19
3, 79560, Note_on_c, 0, 62, 0
3, 79560, Note_on_c, 0, 71, 0
3, 79680, Note_on_c, 0, 50, 28
3, 79920, Note_on_c, 0, 50, 0
3, 79920, Note_on_c, 0, 59, 17
3, 79920, Note_on_c, 0, 69, 21
3, 79920, Note_on_c, 0, 62, 17
3, 80400, Note_on_c, 0, 62, 0
3, 80400, Note_on_c, 0, 69, 0
3, 80400, Note_on_c, 0, 59, 0
3, 80400, Note_on_c, 0, 59, 16
3, 80400, Note_on_c, 0, 67, 20
3, 80400, Note_on_c, 0, 62, 16
3, 80520, Note_on_c, 0, 62, 0
3, 80520, Note_on_c, 0, 67, 0
3, 80520, Note_on_c, 0, 59, 0
3, 80640, Note_on_c, 0, 50, 28
3, 80880, Note_on_c, 0, 50, 0
3, 80880, Note_on_c, 0, 58, 17
3, 80880, Note_on_c, 0, 69, 21
3, 80880, Note_on_c, 0, 64, 17
3, 81360, Note_on_c, 0, 64, 0
3, 81360, Note_on_c, 0, 69, 0
3, 81360, Note_on_c, 0, 58, 0
3, 81360, Note_on_c, 0, 58, 16
3, 81360, Note_on_c, 0, 67, 20
3, 81360, Note_on_c, 0, 64, 16
3, 81480, Note_on_c, 0, 64, 0
3, 81480, Note_on_c, 0, 67, 0
3, 81480, Note_on_c, 0, 58, 0
3, 81600, Note_on_c, 0, 50, 25
3, 81840, Note_on_c, 0, 50, 0
3, 81840, Note_on_c, 0, 60, 15
3, 81840, Note_on_c, 0, 71, 18
3, 81840, Note_on_c, 0, 66, 15
3, 82320, Note_on_c, 0, 66, 0
3, 82320, Note_on_c, 0, 71, 0
3, 82320, Note_on_c, 0, 60, 0
3, 82320, Note_on_c, 0, 60, 14
3, 82320, Note_on_c, 0, 69, 18
3, 82320, Note_on_c, 0, 66, 14
3, 82440, Note_on_c, 0, 66, 0
3, 82440, Note_on_c, 0, 69, 0
3, 82440, Note_on_c, 0, 60, 0
3, 82560, Note_on_c, 0, 43, 15
3, 82560, Note_on_c, 0, 50, 18
3, 82800, Note_on_c, 0, 50, 0
3, 82800, Note_on_c, 0, 43, 0
3, 82800, Note_on_c, 0, 59, 13
3, 82800, Note_on_c, 0, 67, 16
3, 82800, Note_on_c, 0, 62, 13
3, 83460, Note_on_c, 0, 62, 0
3, 83460, Note_on_c, 0, 67, 0
3, 83460, Note_on_c, 0, 59, 0
3, 83460, End_track
4, 0, Start_track
4, 0, Title_t, "Pedale"
4, 0, Program_c, 0, 0
4, 99, Control_c, 0, 64, 127
4, 2419, Control_c, 0, 64, 0
4, 2979, Control_c, 0, 64, 127
4, 3789, Control_c, 0, 64, 0
4, 3840, Control_c, 0, 64, 127
4, 4800, Control_c, 0, 64, 0
4, 4846, Control_c, 0, 64, 127
4, 5775, Control_c, 0, 64, 0
4, 5838, Control_c, 0, 64, 127
4, 6659, Control_c, 0, 64, 0
4, 6720, Control_c, 0, 64, 127
4, 7617, Control_c, 0, 64, 0
4, 7744, Control_c, 0, 64, 127
4, 10099, Control_c, 0, 64, 0
4, 10620, Control_c, 0, 64, 127
4, 11415, Control_c, 0, 64, 0
4, 11520, Control_c, 0, 64, 127
4, 12374, Control_c, 0, 64, 0
4, 12480, Control_c, 0, 64, 127
4, 13329, Control_c, 0, 64, 0
4, 13440, Control_c, 0, 64, 127
4, 14293, Control_c, 0, 64, 0
4, 14400, Control_c, 0, 64, 127
4, 15297, Control_c, 0, 64, 0
4, 15459, Control_c, 0, 64, 127
4, 17779, Control_c, 0, 64, 0
4, 18339, Control_c, 0, 64, 127
4, 19149, Control_c, 0, 64, 0
4, 19200, Control_c, 0, 64, 127
4, 20160, Control_c, 0, 64, 0
4, 20206, Control_c, 0, 64, 127
4, 21135, Control_c, 0, 64, 0
4, 21198, Control_c, 0, 64, 127
4, 22019, Control_c, 0, 64, 0
4, 22080, Control_c, 0, 64, 127
4, 22977, Control_c, 0, 64, 0
4, 23104, Control_c, 0, 64, 127
4, 25459, Control_c, 0, 64, 0
4, 25980, Control_c, 0, 64, 127
4, 26775, Control_c, 0, 64, 0
4, 26880, Control_c, 0, 64, 127
4, 27734, Control_c, 0, 64, 0
4, 27840, Control_c, 0, 64, 127
4, 28689, Control_c, 0, 64, 0
4, 28800, Control_c, 0, 64, 127
4, 29653, Control_c, 0, 64, 0
4, 29760, Control_c, 0, 64, 127
4, 30664, Control_c, 0, 64, 0
4, 31263, Control_c, 0, 64, 127
4, 31680, Control_c, 0, 64, 0
4, 32252, Control_c, 0, 64, 127
4, 32704, Control_c, 0, 64, 0
4, 36614, Control_c, 0, 64, 127
4, 37814, Control_c, 0, 64, 0
4, 38943, Control_c, 0, 64, 127
4, 39360, Control_c, 0, 64, 0
4, 39932, Control_c, 0, 64, 127
4, 40384, Control_c, 0, 64, 0
4, 44294, Control_c, 0, 64, 127
4, 45494, Control_c, 0, 64, 0
4, 46132, Control_c, 0, 64, 127
4, 48297, Control_c, 0, 64, 0
4, 49059, Control_c, 0, 64, 127
4, 51379, Control_c, 0, 64, 0
4, 51939, Control_c, 0, 64, 127
4, 52749, Control_c, 0, 64, 0
4, 52800, Control_c, 0, 64, 127
4, 53769, Control_c, 0, 64, 0
4, 53930, Control_c, 0, 64, 127
4, 54735, Control_c, 0, 64, 0
4, 54798, Control_c, 0, 64, 127
4, 55619, Control_c, 0, 64, 0
4, 55680, Control_c, 0, 64, 127
4, 56655, Control_c, 0, 64, 0
4, 56718, Control_c, 0, 64, 127
4, 57539, Control_c, 0, 64, 0
4, 57600, Control_c, 0, 64, 127
4, 58575, Control_c, 0, 64, 0
4, 58638, Control_c, 0, 64, 127
4, 59459, Control_c, 0, 64, 0
4, 59497, Control_c, 0, 64, 127
4, 60487, Control_c, 0, 64, 0
4, 60551, Control_c, 0, 64, 127
4, 61270, Control_c, 0, 64, 0
4, 61447, Control_c, 0, 64, 0
4, 61511, Control_c, 0, 64, 127
4, 62230, Control_c, 0, 64, 0
4, 62407, Control_c, 0, 64, 0
4, 62471, Control_c, 0, 64, 127
4, 63190, Control_c, 0, 64, 0
4, 63367, Control_c, 0, 64, 0
4, 63431, Control_c, 0, 64, 127
4, 64150, Control_c, 0, 64, 0
4, 64363, Control_c, 0, 64, 127
4, 65280, Control_c, 0, 64, 0
4, 65337, Control_c, 0, 64, 127
4, 66267, Control_c, 0, 64, 0
4, 66286, Control_c, 0, 64, 127
4, 67208, Control_c, 0, 64, 0
4, 67236, Control_c, 0, 64, 127
4, 68121, Control_c, 0, 64, 0
4, 68259, Control_c, 0, 64, 127
4, 70579, Control_c, 0, 64, 0
4, 71139, Control_c, 0, 64, 127
4, 71949, Control_c, 0, 64, 0
4, 72000, Control_c, 0, 64, 127
4, 72960, Control_c, 0, 64, 0
4, 73006, Control_c, 0, 64, 127
4, 73935, Control_c, 0, 64, 0
4, 73998, Control_c, 0, 64, 127
4, 74819, Control_c, 0, 64, 0
4, 74880, Control_c, 0, 64, 127
4, 75777, Control_c, 0, 64, 0
4, 75904, Control_c, 0, 64, 127
4, 78259, Control_c, 0, 64, 0
4, 78780, Control_c, 0, 64, 127
4, 79575, Control_c, 0, 64, 0
4, 79680, Control_c, 0, 64, 127
4, 80534, Control_c, 0, 64, 0
4, 80640, Control_c, 0, 64, 127
4, 81489, Control_c, 0, 64, 0
4, 81600, Control_c, 0, 64, 127
4, 82453, Control_c, 0, 64, 0
4, 82560, Control_c, 0, 64, 127
4, 83457, Control_c, 0, 64, 0
4, 83457, End_track
5, 0, Start_track
5, 0, Title_t, "Grieg: Berceuse"
5, 0, End_track
6, 0, Start_track
6, 0, Title_t, "Copyright © 2012 by Bernd Krueger"
6, 0, End_track
7, 0, Start_track
7, 0, Title_t, "http://www.piano-midi.de/"
7, 0, End_track
8, 0, Start_track
8, 0, Title_t, "Edition: 2012-09-12"
8, 0, End_track
9, 0, Start_track
9, 0, Title_t, "Spur 8"
9, 0, End_track
10, 0, Start_track
10, 0, Title_t, "Spur 9"
10, 0, End_track
11, 0, Start_track
11, 0, Title_t, "Spur 10"
11, 0, End_track
12, 0, Start_track
12, 0, Title_t, "Spur 11"
12, 0, End_track
13, 0, Start_track
13, 0, Title_t, "Spur 12"
13, 0, End_track
14, 0, Start_track
14, 0, Title_t, "Spur 13"
14, 0, End_track
15, 0, Start_track
15, 0, Title_t, "Spur 14"
15, 0, End_track
16, 0, Start_track
16, 0, Title_t, "Spur 15"
16, 0, End_track
17, 0, Start_track
17, 0, Title_t, "Spur 16"
17, 0, End_track
0, 0, End_of_file
