0, 0, Header, 1, 17, 480
1, 0, Start_track
1, 0, Title_t, "Grieg: Lyrische Stücke Op. 12 Nr. 4 Elfentanz"
1, 0, Copyright_t, "Copyright © 2007 by Bernd Krueger"
1, 0, Text_t, "Edvard Grieg"
1, 0, Text_t, "Erstellt: 6.5.2007\012"
1, 0, Text_t, "Update: 29.10.2012\012"
1, 0, Text_t, "Dauer: 1:54 Minuten\012"
1, 0, Text_t, "Takt auf 3/8 statt 3/4 gesetzt wegen hoher Geschwindigkeit\012"
1, 0, Time_signature, 3, 3, 12, 8
1, 0, Key_signature, 1, "major"
1, 0, Tempo, 505136
1, 480, Tempo, 530833
1, 720, Tempo, 514183
1, 1200, Tempo, 500709
1, 1440, Tempo, 481928
1, 2150, Tempo, 498546
1, 2208, Tempo, 496401
1, 2246, Tempo, 494234
1, 2285, Tempo, 492126
1, 2323, Tempo, 490036
1, 2362, Tempo, 487924
1, 2419, Tempo, 485869
1, 2458, Tempo, 483832
1, 2496, Tempo, 481773
1, 2534, Tempo, 479770
1, 2573, Tempo, 477783
1, 2611, Tempo, 475775
1, 2760, Tempo, 568720
1, 2880, Tempo, 505136
1, 3360, Tempo, 530833
1, 3600, Tempo, 514183
1, 4080, Tempo, 500709
1, 4320, Tempo, 485869
1, 4680, Tempo, 540882
1, 4800, Tempo, 485869
1, 5011, Tempo, 492126
1, 5069, Tempo, 490036
1, 5107, Tempo, 487924
1, 5165, Tempo, 485869
1, 5203, Tempo, 483832
1, 5242, Tempo, 481773
1, 5299, Tempo, 479770
1, 5338, Tempo, 477783
1, 5376, Tempo, 475775
1, 5434, Tempo, 473821
1, 5472, Tempo, 471884
1, 5510, Tempo, 469925
1, 5640, Tempo, 647808
1, 5760, Tempo, 505136
1, 6240, Tempo, 530833
1, 6480, Tempo, 514183
1, 6720, Tempo, 521739
1, 6960, Tempo, 500709
1, 7200, Tempo, 480000
1, 7910, Tempo, 498546
1, 7968, Tempo, 496401
1, 8006, Tempo, 494234
1, 8045, Tempo, 492126
1, 8083, Tempo, 490036
1, 8122, Tempo, 487924
1, 8179, Tempo, 485869
1, 8218, Tempo, 483832
1, 8256, Tempo, 481773
1, 8294, Tempo, 479770
1, 8333, Tempo, 477783
1, 8371, Tempo, 475775
1, 8520, Tempo, 566038
1, 8640, Tempo, 505136
1, 9120, Tempo, 530833
1, 9360, Tempo, 514183
1, 9840, Tempo, 500709
1, 10080, Tempo, 483871
1, 10440, Tempo, 540882
1, 10560, Tempo, 485869
1, 10771, Tempo, 492126
1, 10829, Tempo, 490036
1, 10867, Tempo, 487924
1, 10925, Tempo, 485869
1, 10963, Tempo, 483832
1, 11002, Tempo, 481773
1, 11059, Tempo, 479770
1, 11098, Tempo, 477783
1, 11136, Tempo, 475775
1, 11194, Tempo, 473821
1, 11232, Tempo, 471884
1, 11270, Tempo, 469925
1, 11400, Tempo, 644192
1, 11520, Tempo, 505136
1, 12000, Tempo, 530833
1, 12240, Tempo, 514183
1, 12480, Tempo, 521739
1, 12720, Tempo, 500709
1, 12960, Tempo, 481928
1, 13320, Tempo, 497925
1, 13440, Tempo, 485869
1, 13651, Tempo, 492126
1, 13709, Tempo, 490036
1, 13747, Tempo, 487924
1, 13805, Tempo, 485869
1, 13843, Tempo, 483832
1, 13882, Tempo, 481773
1, 13939, Tempo, 479770
1, 13978, Tempo, 477783
1, 14016, Tempo, 475775
1, 14074, Tempo, 473821
1, 14112, Tempo, 471884
1, 14150, Tempo, 469925
1, 14280, Tempo, 644192
1, 14400, Tempo, 505136
1, 14880, Tempo, 530833
1, 15120, Tempo, 514183
1, 15600, Tempo, 500709
1, 15840, Tempo, 485869
1, 16200, Tempo, 496401
1, 16320, Tempo, 485869
1, 16531, Tempo, 492126
1, 16560, Tempo, 487924
1, 16920, Tempo, 502934
1, 17040, Tempo, 487924
1, 17400, Tempo, 481928
1, 17880, Tempo, 489796
1, 18000, Tempo, 481773
1, 18360, Tempo, 502934
1, 18480, Tempo, 487924
1, 18840, Tempo, 481928
1, 19320, Tempo, 495868
1, 19440, Tempo, 481773
1, 19920, Tempo, 494234
1, 20040, Tempo, 540882
1, 20160, Tempo, 496401
1, 20880, Tempo, 505136
1, 21480, Tempo, 589217
1, 21600, Tempo, 504923
1, 22080, Tempo, 530833
1, 22320, Tempo, 514183
1, 22560, Tempo, 521739
1, 22800, Tempo, 500709
1, 23040, Tempo, 480000
1, 23750, Tempo, 498546
1, 23808, Tempo, 496401
1, 23846, Tempo, 494234
1, 23885, Tempo, 492126
1, 23923, Tempo, 490036
1, 23962, Tempo, 487924
1, 24019, Tempo, 485869
1, 24058, Tempo, 483832
1, 24096, Tempo, 481773
1, 24134, Tempo, 479770
1, 24173, Tempo, 477783
1, 24211, Tempo, 475775
1, 24360, Tempo, 566038
1, 24480, Tempo, 505136
1, 24960, Tempo, 530833
1, 25200, Tempo, 514183
1, 25680, Tempo, 500709
1, 25920, Tempo, 483871
1, 26280, Tempo, 540882
1, 26400, Tempo, 485869
1, 26611, Tempo, 492126
1, 26669, Tempo, 490036
1, 26707, Tempo, 487924
1, 26765, Tempo, 485869
1, 26803, Tempo, 483832
1, 26842, Tempo, 481773
1, 26899, Tempo, 479770
1, 26938, Tempo, 477783
1, 26976, Tempo, 475775
1, 27034, Tempo, 473821
1, 27072, Tempo, 471884
1, 27110, Tempo, 469925
1, 27240, Tempo, 644192
1, 27360, Tempo, 505136
1, 27840, Tempo, 530833
1, 28080, Tempo, 514183
1, 28320, Tempo, 521739
1, 28560, Tempo, 500709
1, 28800, Tempo, 481928
1, 29160, Tempo, 497925
1, 29280, Tempo, 485869
1, 29491, Tempo, 492126
1, 29549, Tempo, 490036
1, 29587, Tempo, 487924
1, 29645, Tempo, 485869
1, 29683, Tempo, 483832
1, 29722, Tempo, 481773
1, 29779, Tempo, 479770
1, 29818, Tempo, 477783
1, 29856, Tempo, 475775
1, 29914, Tempo, 473821
1, 29952, Tempo, 471884
1, 29990, Tempo, 469925
1, 30120, Tempo, 644192
1, 30240, Tempo, 505136
1, 30720, Tempo, 530833
1, 30960, Tempo, 514183
1, 31440, Tempo, 500709
1, 31680, Tempo, 485869
1, 32040, Tempo, 496401
1, 32160, Tempo, 485869
1, 32371, Tempo, 492126
1, 32400, Tempo, 487924
1, 32760, Tempo, 502934
1, 32880, Tempo, 487924
1, 33240, Tempo, 481928
1, 33720, Tempo, 489796
1, 33840, Tempo, 481773
1, 34200, Tempo, 502934
1, 34320, Tempo, 487924
1, 34680, Tempo, 481928
1, 35160, Tempo, 495868
1, 35280, Tempo, 481773
1, 35760, Tempo, 494234
1, 35880, Tempo, 540882
1, 36000, Tempo, 496401
1, 36720, Tempo, 505136
1, 37320, Tempo, 636065
1, 37440, Tempo, 504923
1, 37920, Tempo, 530833
1, 38160, Tempo, 514183
1, 38640, Tempo, 500709
1, 38880, Tempo, 481928
1, 39590, Tempo, 498546
1, 39648, Tempo, 496401
1, 39686, Tempo, 494234
1, 39725, Tempo, 492126
1, 39763, Tempo, 490036
1, 39802, Tempo, 487924
1, 39859, Tempo, 485869
1, 39898, Tempo, 483832
1, 39936, Tempo, 481773
1, 39974, Tempo, 479770
1, 40013, Tempo, 477783
1, 40051, Tempo, 475775
1, 40200, Tempo, 568720
1, 40320, Tempo, 505136
1, 40800, Tempo, 530833
1, 41040, Tempo, 514183
1, 41520, Tempo, 500709
1, 41760, Tempo, 485869
1, 42120, Tempo, 540882
1, 42240, Tempo, 485869
1, 42451, Tempo, 492126
1, 42509, Tempo, 490036
1, 42547, Tempo, 487924
1, 42605, Tempo, 485869
1, 42643, Tempo, 483832
1, 42682, Tempo, 481773
1, 42739, Tempo, 479770
1, 42778, Tempo, 477783
1, 42816, Tempo, 475775
1, 42874, Tempo, 473821
1, 42912, Tempo, 471884
1, 42950, Tempo, 469925
1, 43080, Tempo, 647808
1, 43200, Tempo, 505136
1, 43680, Tempo, 530833
1, 43920, Tempo, 514183
1, 44160, Tempo, 521739
1, 44400, Tempo, 500709
1, 44640, Tempo, 480000
1, 45350, Tempo, 498546
1, 45408, Tempo, 496401
1, 45446, Tempo, 494234
1, 45485, Tempo, 492126
1, 45523, Tempo, 490036
1, 45562, Tempo, 487924
1, 45619, Tempo, 485869
1, 45658, Tempo, 483832
1, 45696, Tempo, 481773
1, 45734, Tempo, 479770
1, 45773, Tempo, 477783
1, 45811, Tempo, 475775
1, 45960, Tempo, 566038
1, 46080, Tempo, 498546
1, 46128, Tempo, 496401
1, 46166, Tempo, 494234
1, 46205, Tempo, 492126
1, 46243, Tempo, 490036
1, 46282, Tempo, 487924
1, 46339, Tempo, 485869
1, 46378, Tempo, 483832
1, 46416, Tempo, 481773
1, 46454, Tempo, 479770
1, 46493, Tempo, 477783
1, 46531, Tempo, 475775
1, 46680, Tempo, 566038
1, 46766, Tempo, 522512
1, 46805, Tempo, 520246
1, 46843, Tempo, 518001
1, 46881, Tempo, 515774
1, 46920, Tempo, 513567
1, 46958, Tempo, 511378
1, 46997, Tempo, 509208
1, 47035, Tempo, 507057
1, 47073, Tempo, 504923
1, 47112, Tempo, 502807
1, 47150, Tempo, 500709
1, 47189, Tempo, 498629
1, 47227, Tempo, 496565
1, 47265, Tempo, 494519
1, 47400, Tempo, 707297
1, 47496, Tempo, 569638
1, 47519, Tempo, 592125
1, 47576, Tempo, 589217
1, 47634, Tempo, 586338
1, 47672, Tempo, 583487
1, 47730, Tempo, 580664
1, 47768, Tempo, 577868
1, 47826, Tempo, 575098
1, 47864, Tempo, 572355
1, 47922, Tempo, 569638
1, 47960, Tempo, 566947
1, 48000, Tempo, 575098
1, 48120, Tempo, 1168907
1, 48240, Tempo, 505136
1, 48720, Tempo, 530833
1, 48960, Tempo, 505136
1, 49440, Tempo, 530833
1, 49680, Tempo, 505136
1, 50280, Tempo, 656958
1, 50340, Tempo, 720029
1, 50400, Tempo, 543823
1, 51000, Tempo, 695008
1, 51060, Tempo, 761132
1, 51060, End_track
2, 0, Start_track
2, 0, Title_t, "Piano right"
2, 0, Program_c, 0, 0
2, 0, Note_on_c, 0, 71, 34
2, 0, Note_on_c, 0, 76, 40
2, 60, Note_on_c, 0, 76, 0
2, 60, Note_on_c, 0, 71, 0
2, 240, Note_on_c, 0, 71, 31
2, 240, Note_on_c, 0, 76, 37
2, 300, Note_on_c, 0, 76, 0
2, 300, Note_on_c, 0, 71, 0
2, 480, Note_on_c, 0, 76, 37
2, 480, Note_on_c, 0, 72, 31
2, 540, Note_on_c, 0, 72, 0
2, 540, Note_on_c, 0, 76, 0
2, 720, Note_on_c, 0, 71, 34
2, 720, Note_on_c, 0, 76, 40
2, 780, Note_on_c, 0, 76, 0
2, 780, Note_on_c, 0, 71, 0
2, 960, Note_on_c, 0, 76, 36
2, 960, Note_on_c, 0, 71, 30
2, 1020, Note_on_c, 0, 71, 0
2, 1020, Note_on_c, 0, 76, 0
2, 1200, Note_on_c, 0, 67, 40
2, 1320, Note_on_c, 0, 67, 0
2, 1320, Note_on_c, 0, 69, 35
2, 1440, Note_on_c, 0, 69, 0
2, 1440, Note_on_c, 0, 71, 40
2, 1560, Note_on_c, 0, 71, 0
2, 1560, Note_on_c, 0, 72, 36
2, 1680, Note_on_c, 0, 72, 0
2, 1680, Note_on_c, 0, 71, 40
2, 1800, Note_on_c, 0, 71, 0
2, 1800, Note_on_c, 0, 78, 45
2, 1920, Note_on_c, 0, 78, 0
2, 1920, Note_on_c, 0, 76, 43
2, 2040, Note_on_c, 0, 76, 0
2, 2040, Note_on_c, 0, 74, 40
2, 2160, Note_on_c, 0, 74, 0
2, 2160, Note_on_c, 0, 71, 39
2, 2280, Note_on_c, 0, 71, 0
2, 2280, Note_on_c, 0, 76, 41
2, 2400, Note_on_c, 0, 76, 0
2, 2400, Note_on_c, 0, 79, 43
2, 2520, Note_on_c, 0, 79, 0
2, 2520, Note_on_c, 0, 82, 45
2, 2640, Note_on_c, 0, 82, 0
2, 2640, Note_on_c, 0, 83, 48
2, 2760, Note_on_c, 0, 83, 0
2, 2880, Note_on_c, 0, 74, 34
2, 2880, Note_on_c, 0, 78, 34
2, 2880, Note_on_c, 0, 83, 40
2, 2940, Note_on_c, 0, 83, 0
2, 2940, Note_on_c, 0, 78, 0
2, 2940, Note_on_c, 0, 74, 0
2, 3120, Note_on_c, 0, 83, 37
2, 3120, Note_on_c, 0, 74, 31
2, 3120, Note_on_c, 0, 78, 31
2, 3180, Note_on_c, 0, 78, 0
2, 3180, Note_on_c, 0, 74, 0
2, 3180, Note_on_c, 0, 83, 0
2, 3360, Note_on_c, 0, 83, 37
2, 3360, Note_on_c, 0, 74, 31
2, 3360, Note_on_c, 0, 79, 31
2, 3420, Note_on_c, 0, 79, 0
2, 3420, Note_on_c, 0, 74, 0
2, 3420, Note_on_c, 0, 83, 0
2, 3600, Note_on_c, 0, 74, 34
2, 3600, Note_on_c, 0, 78, 34
2, 3600, Note_on_c, 0, 83, 40
2, 3660, Note_on_c, 0, 83, 0
2, 3660, Note_on_c, 0, 78, 0
2, 3660, Note_on_c, 0, 74, 0
2, 3840, Note_on_c, 0, 74, 30
2, 3840, Note_on_c, 0, 83, 36
2, 3840, Note_on_c, 0, 78, 30
2, 3900, Note_on_c, 0, 78, 0
2, 3900, Note_on_c, 0, 83, 0
2, 3900, Note_on_c, 0, 74, 0
2, 4080, Note_on_c, 0, 71, 40
2, 4200, Note_on_c, 0, 71, 0
2, 4200, Note_on_c, 0, 73, 35
2, 4320, Note_on_c, 0, 73, 0
2, 4320, Note_on_c, 0, 74, 40
2, 4440, Note_on_c, 0, 74, 0
2, 4440, Note_on_c, 0, 78, 36
2, 4560, Note_on_c, 0, 78, 0
2, 4560, Note_on_c, 0, 71, 40
2, 4560, Note_on_c, 0, 74, 40
2, 4680, Note_on_c, 0, 74, 0
2, 4680, Note_on_c, 0, 71, 0
2, 4680, Note_on_c, 0, 78, 45
2, 4800, Note_on_c, 0, 78, 0
2, 4800, Note_on_c, 0, 73, 63
2, 4800, Note_on_c, 0, 70, 53
2, 4920, Note_on_c, 0, 73, 0
2, 4920, Note_on_c, 0, 78, 60
2, 5040, Note_on_c, 0, 78, 0
2, 5040, Note_on_c, 0, 70, 0
2, 5040, Note_on_c, 0, 71, 52
2, 5040, Note_on_c, 0, 75, 62
2, 5160, Note_on_c, 0, 75, 0
2, 5160, Note_on_c, 0, 71, 0
2, 5160, Note_on_c, 0, 78, 57
2, 5280, Note_on_c, 0, 78, 0
2, 5280, Note_on_c, 0, 71, 53
2, 5280, Note_on_c, 0, 75, 63
2, 5400, Note_on_c, 0, 75, 0
2, 5400, Note_on_c, 0, 71, 0
2, 5400, Note_on_c, 0, 78, 59
2, 5520, Note_on_c, 0, 78, 0
2, 5520, Note_on_c, 0, 75, 64
2, 5520, Note_on_c, 0, 71, 54
2, 5640, Note_on_c, 0, 71, 0
2, 5640, Note_on_c, 0, 75, 0
2, 5640, Note_on_c, 0, 78, 57
2, 5760, Note_on_c, 0, 78, 0
2, 5760, Note_on_c, 0, 71, 34
2, 5760, Note_on_c, 0, 76, 40
2, 5820, Note_on_c, 0, 76, 0
2, 5820, Note_on_c, 0, 71, 0
2, 6000, Note_on_c, 0, 76, 37
2, 6000, Note_on_c, 0, 71, 31
2, 6060, Note_on_c, 0, 71, 0
2, 6060, Note_on_c, 0, 76, 0
2, 6240, Note_on_c, 0, 72, 31
2, 6240, Note_on_c, 0, 76, 37
2, 6300, Note_on_c, 0, 76, 0
2, 6300, Note_on_c, 0, 72, 0
2, 6480, Note_on_c, 0, 71, 34
2, 6480, Note_on_c, 0, 76, 40
2, 6540, Note_on_c, 0, 76, 0
2, 6540, Note_on_c, 0, 71, 0
2, 6720, Note_on_c, 0, 76, 36
2, 6720, Note_on_c, 0, 71, 30
2, 6780, Note_on_c, 0, 71, 0
2, 6780, Note_on_c, 0, 76, 0
2, 6960, Note_on_c, 0, 67, 40
2, 7080, Note_on_c, 0, 67, 0
2, 7080, Note_on_c, 0, 69, 35
2, 7200, Note_on_c, 0, 69, 0
2, 7200, Note_on_c, 0, 71, 40
2, 7320, Note_on_c, 0, 71, 0
2, 7320, Note_on_c, 0, 72, 36
2, 7440, Note_on_c, 0, 72, 0
2, 7440, Note_on_c, 0, 71, 40
2, 7560, Note_on_c, 0, 71, 0
2, 7560, Note_on_c, 0, 78, 45
2, 7680, Note_on_c, 0, 78, 0
2, 7680, Note_on_c, 0, 76, 43
2, 7800, Note_on_c, 0, 76, 0
2, 7800, Note_on_c, 0, 74, 40
2, 7920, Note_on_c, 0, 74, 0
2, 7920, Note_on_c, 0, 71, 39
2, 8040, Note_on_c, 0, 71, 0
2, 8040, Note_on_c, 0, 76, 41
2, 8160, Note_on_c, 0, 76, 0
2, 8160, Note_on_c, 0, 79, 43
2, 8280, Note_on_c, 0, 79, 0
2, 8280, Note_on_c, 0, 82, 45
2, 8400, Note_on_c, 0, 82, 0
2, 8400, Note_on_c, 0, 83, 48
2, 8520, Note_on_c, 0, 83, 0
2, 8640, Note_on_c, 0, 83, 40
2, 8640, Note_on_c, 0, 74, 34
2, 8640, Note_on_c, 0, 78, 34
2, 8700, Note_on_c, 0, 78, 0
2, 8700, Note_on_c, 0, 74, 0
2, 8700, Note_on_c, 0, 83, 0
2, 8880, Note_on_c, 0, 74, 31
2, 8880, Note_on_c, 0, 78, 31
2, 8880, Note_on_c, 0, 83, 37
2, 8940, Note_on_c, 0, 83, 0
2, 8940, Note_on_c, 0, 78, 0
2, 8940, Note_on_c, 0, 74, 0
2, 9120, Note_on_c, 0, 74, 31
2, 9120, Note_on_c, 0, 79, 31
2, 9120, Note_on_c, 0, 83, 37
2, 9180, Note_on_c, 0, 83, 0
2, 9180, Note_on_c, 0, 79, 0
2, 9180, Note_on_c, 0, 74, 0
2, 9360, Note_on_c, 0, 83, 40
2, 9360, Note_on_c, 0, 74, 34
2, 9360, Note_on_c, 0, 78, 34
2, 9420, Note_on_c, 0, 78, 0
2, 9420, Note_on_c, 0, 74, 0
2, 9420, Note_on_c, 0, 83, 0
2, 9600, Note_on_c, 0, 74, 30
2, 9600, Note_on_c, 0, 78, 30
2, 9600, Note_on_c, 0, 83, 36
2, 9660, Note_on_c, 0, 83, 0
2, 9660, Note_on_c, 0, 78, 0
2, 9660, Note_on_c, 0, 74, 0
2, 9840, Note_on_c, 0, 71, 40
2, 9960, Note_on_c, 0, 71, 0
2, 9960, Note_on_c, 0, 73, 35
2, 10080, Note_on_c, 0, 73, 0
2, 10080, Note_on_c, 0, 74, 40
2, 10200, Note_on_c, 0, 74, 0
2, 10200, Note_on_c, 0, 78, 36
2, 10320, Note_on_c, 0, 78, 0
2, 10320, Note_on_c, 0, 74, 40
2, 10320, Note_on_c, 0, 71, 40
2, 10440, Note_on_c, 0, 71, 0
2, 10440, Note_on_c, 0, 74, 0
2, 10440, Note_on_c, 0, 78, 45
2, 10560, Note_on_c, 0, 78, 0
2, 10560, Note_on_c, 0, 70, 53
2, 10560, Note_on_c, 0, 73, 63
2, 10680, Note_on_c, 0, 73, 0
2, 10680, Note_on_c, 0, 78, 60
2, 10800, Note_on_c, 0, 78, 0
2, 10800, Note_on_c, 0, 70, 0
2, 10800, Note_on_c, 0, 71, 52
2, 10800, Note_on_c, 0, 75, 62
2, 10920, Note_on_c, 0, 75, 0
2, 10920, Note_on_c, 0, 71, 0
2, 10920, Note_on_c, 0, 78, 57
2, 11040, Note_on_c, 0, 78, 0
2, 11040, Note_on_c, 0, 71, 53
2, 11040, Note_on_c, 0, 75, 63
2, 11160, Note_on_c, 0, 75, 0
2, 11160, Note_on_c, 0, 71, 0
2, 11160, Note_on_c, 0, 78, 59
2, 11280, Note_on_c, 0, 78, 0
2, 11280, Note_on_c, 0, 75, 64
2, 11280, Note_on_c, 0, 71, 54
2, 11400, Note_on_c, 0, 71, 0
2, 11400, Note_on_c, 0, 75, 0
2, 11400, Note_on_c, 0, 78, 57
2, 11520, Note_on_c, 0, 78, 0
2, 11520, Note_on_c, 0, 59, 88
2, 11580, Note_on_c, 0, 59, 0
2, 11760, Note_on_c, 0, 59, 80
2, 11820, Note_on_c, 0, 59, 0
2, 12000, Note_on_c, 0, 54, 80
2, 12060, Note_on_c, 0, 54, 0
2, 12240, Note_on_c, 0, 59, 88
2, 12300, Note_on_c, 0, 59, 0
2, 12480, Note_on_c, 0, 59, 79
2, 12540, Note_on_c, 0, 59, 0
2, 12720, Note_on_c, 0, 64, 40
2, 12840, Note_on_c, 0, 64, 0
2, 12840, Note_on_c, 0, 66, 35
2, 12960, Note_on_c, 0, 66, 0
2, 12960, Note_on_c, 0, 67, 40
2, 13080, Note_on_c, 0, 67, 0
2, 13080, Note_on_c, 0, 70, 36
2, 13200, Note_on_c, 0, 70, 0
2, 13200, Note_on_c, 0, 67, 40
2, 13320, Note_on_c, 0, 67, 0
2, 13320, Note_on_c, 0, 70, 34
2, 13440, Note_on_c, 0, 70, 0
2, 13440, Note_on_c, 0, 66, 41
2, 13560, Note_on_c, 0, 66, 0
2, 13560, Note_on_c, 0, 70, 36
2, 13680, Note_on_c, 0, 70, 0
2, 13680, Note_on_c, 0, 64, 41
2, 13800, Note_on_c, 0, 64, 0
2, 13800, Note_on_c, 0, 70, 36
2, 13920, Note_on_c, 0, 70, 0
2, 13920, Note_on_c, 0, 64, 41
2, 14040, Note_on_c, 0, 64, 0
2, 14040, Note_on_c, 0, 70, 35
2, 14160, Note_on_c, 0, 70, 0
2, 14400, Note_on_c, 0, 59, 88
2, 14460, Note_on_c, 0, 59, 0
2, 14640, Note_on_c, 0, 59, 80
2, 14700, Note_on_c, 0, 59, 0
2, 14880, Note_on_c, 0, 54, 80
2, 14940, Note_on_c, 0, 54, 0
2, 15120, Note_on_c, 0, 59, 88
2, 15180, Note_on_c, 0, 59, 0
2, 15360, Note_on_c, 0, 59, 79
2, 15420, Note_on_c, 0, 59, 0
2, 15600, Note_on_c, 0, 64, 40
2, 15720, Note_on_c, 0, 64, 0
2, 15720, Note_on_c, 0, 66, 35
2, 15840, Note_on_c, 0, 66, 0
2, 15840, Note_on_c, 0, 67, 40
2, 15960, Note_on_c, 0, 67, 0
2, 15960, Note_on_c, 0, 70, 36
2, 16080, Note_on_c, 0, 70, 0
2, 16080, Note_on_c, 0, 67, 40
2, 16200, Note_on_c, 0, 67, 0
2, 16200, Note_on_c, 0, 70, 34
2, 16320, Note_on_c, 0, 70, 0
2, 16320, Note_on_c, 0, 66, 41
2, 16440, Note_on_c, 0, 66, 0
2, 16440, Note_on_c, 0, 70, 36
2, 16560, Note_on_c, 0, 70, 0
2, 16560, Note_on_c, 0, 64, 41
2, 16680, Note_on_c, 0, 64, 0
2, 16680, Note_on_c, 0, 70, 36
2, 16800, Note_on_c, 0, 70, 0
2, 16800, Note_on_c, 0, 64, 41
2, 16920, Note_on_c, 0, 64, 0
2, 16920, Note_on_c, 0, 70, 35
2, 17040, Note_on_c, 0, 70, 0
2, 17040, Note_on_c, 0, 67, 41
2, 17160, Note_on_c, 0, 67, 0
2, 17160, Note_on_c, 0, 69, 35
2, 17280, Note_on_c, 0, 69, 0
2, 17280, Note_on_c, 0, 70, 44
2, 17400, Note_on_c, 0, 70, 0
2, 17400, Note_on_c, 0, 73, 40
2, 17520, Note_on_c, 0, 73, 0
2, 17520, Note_on_c, 0, 70, 46
2, 17640, Note_on_c, 0, 70, 0
2, 17640, Note_on_c, 0, 73, 39
2, 17760, Note_on_c, 0, 73, 0
2, 17760, Note_on_c, 0, 69, 51
2, 17880, Note_on_c, 0, 69, 0
2, 17880, Note_on_c, 0, 73, 45
2, 18000, Note_on_c, 0, 73, 0
2, 18000, Note_on_c, 0, 67, 54
2, 18120, Note_on_c, 0, 67, 0
2, 18120, Note_on_c, 0, 73, 48
2, 18240, Note_on_c, 0, 73, 0
2, 18240, Note_on_c, 0, 67, 57
2, 18360, Note_on_c, 0, 67, 0
2, 18360, Note_on_c, 0, 73, 53
2, 18480, Note_on_c, 0, 73, 0
2, 18480, Note_on_c, 0, 70, 59
2, 18600, Note_on_c, 0, 70, 0
2, 18600, Note_on_c, 0, 71, 52
2, 18720, Note_on_c, 0, 71, 0
2, 18720, Note_on_c, 0, 72, 62
2, 18840, Note_on_c, 0, 72, 0
2, 18840, Note_on_c, 0, 76, 55
2, 18960, Note_on_c, 0, 76, 0
2, 18960, Note_on_c, 0, 72, 62
2, 19080, Note_on_c, 0, 72, 0
2, 19080, Note_on_c, 0, 76, 55
2, 19200, Note_on_c, 0, 76, 0
2, 19200, Note_on_c, 0, 71, 61
2, 19320, Note_on_c, 0, 71, 0
2, 19320, Note_on_c, 0, 76, 50
2, 19440, Note_on_c, 0, 76, 0
2, 19440, Note_on_c, 0, 70, 62
2, 19560, Note_on_c, 0, 70, 0
2, 19560, Note_on_c, 0, 76, 55
2, 19680, Note_on_c, 0, 76, 0
2, 19680, Note_on_c, 0, 70, 58
2, 19800, Note_on_c, 0, 70, 0
2, 19800, Note_on_c, 0, 76, 50
2, 19920, Note_on_c, 0, 76, 0
2, 19920, Note_on_c, 0, 70, 55
2, 20040, Note_on_c, 0, 70, 0
2, 20040, Note_on_c, 0, 76, 46
2, 20160, Note_on_c, 0, 76, 0
2, 20160, Note_on_c, 0, 71, 40
2, 20280, Note_on_c, 0, 71, 0
2, 20280, Note_on_c, 0, 76, 36
2, 20400, Note_on_c, 0, 76, 0
2, 20400, Note_on_c, 0, 71, 40
2, 20520, Note_on_c, 0, 71, 0
2, 20520, Note_on_c, 0, 76, 34
2, 20640, Note_on_c, 0, 76, 0
2, 20640, Note_on_c, 0, 71, 41
2, 20760, Note_on_c, 0, 71, 0
2, 20760, Note_on_c, 0, 76, 36
2, 20880, Note_on_c, 0, 76, 0
2, 20880, Note_on_c, 0, 71, 40
2, 21000, Note_on_c, 0, 71, 0
2, 21000, Note_on_c, 0, 75, 36
2, 21120, Note_on_c, 0, 75, 0
2, 21120, Note_on_c, 0, 71, 40
2, 21240, Note_on_c, 0, 71, 0
2, 21240, Note_on_c, 0, 75, 34
2, 21360, Note_on_c, 0, 75, 0
2, 21360, Note_on_c, 0, 71, 41
2, 21480, Note_on_c, 0, 71, 0
2, 21480, Note_on_c, 0, 75, 36
2, 21600, Note_on_c, 0, 75, 0
2, 21600, Note_on_c, 0, 76, 40
2, 21600, Note_on_c, 0, 71, 34
2, 21660, Note_on_c, 0, 71, 0
2, 21660, Note_on_c, 0, 76, 0
2, 21840, Note_on_c, 0, 71, 31
2, 21840, Note_on_c, 0, 76, 37
2, 21900, Note_on_c, 0, 76, 0
2, 21900, Note_on_c, 0, 71, 0
2, 22080, Note_on_c, 0, 72, 31
2, 22080, Note_on_c, 0, 76, 37
2, 22140, Note_on_c, 0, 76, 0
2, 22140, Note_on_c, 0, 72, 0
2, 22320, Note_on_c, 0, 71, 34
2, 22320, Note_on_c, 0, 76, 40
2, 22380, Note_on_c, 0, 76, 0
2, 22380, Note_on_c, 0, 71, 0
2, 22560, Note_on_c, 0, 71, 30
2, 22560, Note_on_c, 0, 76, 36
2, 22620, Note_on_c, 0, 76, 0
2, 22620, Note_on_c, 0, 71, 0
2, 22800, Note_on_c, 0, 67, 40
2, 22920, Note_on_c, 0, 67, 0
2, 22920, Note_on_c, 0, 69, 35
2, 23040, Note_on_c, 0, 69, 0
2, 23040, Note_on_c, 0, 71, 40
2, 23160, Note_on_c, 0, 71, 0
2, 23160, Note_on_c, 0, 72, 36
2, 23280, Note_on_c, 0, 72, 0
2, 23280, Note_on_c, 0, 71, 40
2, 23400, Note_on_c, 0, 71, 0
2, 23400, Note_on_c, 0, 78, 45
2, 23520, Note_on_c, 0, 78, 0
2, 23520, Note_on_c, 0, 76, 43
2, 23640, Note_on_c, 0, 76, 0
2, 23640, Note_on_c, 0, 74, 40
2, 23760, Note_on_c, 0, 74, 0
2, 23760, Note_on_c, 0, 71, 39
2, 23880, Note_on_c, 0, 71, 0
2, 23880, Note_on_c, 0, 76, 41
2, 24000, Note_on_c, 0, 76, 0
2, 24000, Note_on_c, 0, 79, 43
2, 24120, Note_on_c, 0, 79, 0
2, 24120, Note_on_c, 0, 82, 45
2, 24240, Note_on_c, 0, 82, 0
2, 24240, Note_on_c, 0, 83, 48
2, 24360, Note_on_c, 0, 83, 0
2, 24480, Note_on_c, 0, 83, 40
2, 24480, Note_on_c, 0, 74, 34
2, 24480, Note_on_c, 0, 78, 34
2, 24540, Note_on_c, 0, 78, 0
2, 24540, Note_on_c, 0, 74, 0
2, 24540, Note_on_c, 0, 83, 0
2, 24720, Note_on_c, 0, 74, 31
2, 24720, Note_on_c, 0, 83, 37
2, 24720, Note_on_c, 0, 78, 31
2, 24780, Note_on_c, 0, 78, 0
2, 24780, Note_on_c, 0, 83, 0
2, 24780, Note_on_c, 0, 74, 0
2, 24960, Note_on_c, 0, 83, 37
2, 24960, Note_on_c, 0, 74, 31
2, 24960, Note_on_c, 0, 79, 31
2, 25020, Note_on_c, 0, 79, 0
2, 25020, Note_on_c, 0, 74, 0
2, 25020, Note_on_c, 0, 83, 0
2, 25200, Note_on_c, 0, 74, 34
2, 25200, Note_on_c, 0, 78, 34
2, 25200, Note_on_c, 0, 83, 40
2, 25260, Note_on_c, 0, 83, 0
2, 25260, Note_on_c, 0, 78, 0
2, 25260, Note_on_c, 0, 74, 0
2, 25440, Note_on_c, 0, 78, 30
2, 25440, Note_on_c, 0, 83, 36
2, 25440, Note_on_c, 0, 74, 30
2, 25500, Note_on_c, 0, 74, 0
2, 25500, Note_on_c, 0, 83, 0
2, 25500, Note_on_c, 0, 78, 0
2, 25680, Note_on_c, 0, 71, 40
2, 25800, Note_on_c, 0, 71, 0
2, 25800, Note_on_c, 0, 73, 35
2, 25920, Note_on_c, 0, 73, 0
2, 25920, Note_on_c, 0, 74, 40
2, 26040, Note_on_c, 0, 74, 0
2, 26040, Note_on_c, 0, 78, 36
2, 26160, Note_on_c, 0, 78, 0
2, 26160, Note_on_c, 0, 74, 40
2, 26160, Note_on_c, 0, 71, 40
2, 26280, Note_on_c, 0, 71, 0
2, 26280, Note_on_c, 0, 74, 0
2, 26280, Note_on_c, 0, 78, 45
2, 26400, Note_on_c, 0, 78, 0
2, 26400, Note_on_c, 0, 70, 53
2, 26400, Note_on_c, 0, 73, 63
2, 26520, Note_on_c, 0, 73, 0
2, 26520, Note_on_c, 0, 78, 60
2, 26640, Note_on_c, 0, 78, 0
2, 26640, Note_on_c, 0, 70, 0
2, 26640, Note_on_c, 0, 71, 52
2, 26640, Note_on_c, 0, 75, 62
2, 26760, Note_on_c, 0, 75, 0
2, 26760, Note_on_c, 0, 71, 0
2, 26760, Note_on_c, 0, 78, 57
2, 26880, Note_on_c, 0, 78, 0
2, 26880, Note_on_c, 0, 71, 53
2, 26880, Note_on_c, 0, 75, 63
2, 27000, Note_on_c, 0, 75, 0
2, 27000, Note_on_c, 0, 71, 0
2, 27000, Note_on_c, 0, 78, 59
2, 27120, Note_on_c, 0, 78, 0
2, 27120, Note_on_c, 0, 71, 54
2, 27120, Note_on_c, 0, 75, 64
2, 27240, Note_on_c, 0, 75, 0
2, 27240, Note_on_c, 0, 71, 0
2, 27240, Note_on_c, 0, 78, 57
2, 27360, Note_on_c, 0, 78, 0
2, 27360, Note_on_c, 0, 59, 88
2, 27420, Note_on_c, 0, 59, 0
2, 27600, Note_on_c, 0, 59, 80
2, 27660, Note_on_c, 0, 59, 0
2, 27840, Note_on_c, 0, 54, 80
2, 27900, Note_on_c, 0, 54, 0
2, 28080, Note_on_c, 0, 59, 88
2, 28140, Note_on_c, 0, 59, 0
2, 28320, Note_on_c, 0, 59, 79
2, 28380, Note_on_c, 0, 59, 0
2, 28560, Note_on_c, 0, 64, 40
2, 28680, Note_on_c, 0, 64, 0
2, 28680, Note_on_c, 0, 66, 35
2, 28800, Note_on_c, 0, 66, 0
2, 28800, Note_on_c, 0, 67, 40
2, 28920, Note_on_c, 0, 67, 0
2, 28920, Note_on_c, 0, 70, 36
2, 29040, Note_on_c, 0, 70, 0
2, 29040, Note_on_c, 0, 67, 40
2, 29160, Note_on_c, 0, 67, 0
2, 29160, Note_on_c, 0, 70, 34
2, 29280, Note_on_c, 0, 70, 0
2, 29280, Note_on_c, 0, 66, 41
2, 29400, Note_on_c, 0, 66, 0
2, 29400, Note_on_c, 0, 70, 36
2, 29520, Note_on_c, 0, 70, 0
2, 29520, Note_on_c, 0, 64, 41
2, 29640, Note_on_c, 0, 64, 0
2, 29640, Note_on_c, 0, 70, 36
2, 29760, Note_on_c, 0, 70, 0
2, 29760, Note_on_c, 0, 64, 41
2, 29880, Note_on_c, 0, 64, 0
2, 29880, Note_on_c, 0, 70, 35
2, 30000, Note_on_c, 0, 70, 0
2, 30240, Note_on_c, 0, 59, 88
2, 30300, Note_on_c, 0, 59, 0
2, 30480, Note_on_c, 0, 59, 80
2, 30540, Note_on_c, 0, 59, 0
2, 30720, Note_on_c, 0, 54, 80
2, 30780, Note_on_c, 0, 54, 0
2, 30960, Note_on_c, 0, 59, 88
2, 31020, Note_on_c, 0, 59, 0
2, 31200, Note_on_c, 0, 59, 79
2, 31260, Note_on_c, 0, 59, 0
2, 31440, Note_on_c, 0, 64, 40
2, 31560, Note_on_c, 0, 64, 0
2, 31560, Note_on_c, 0, 66, 35
2, 31680, Note_on_c, 0, 66, 0
2, 31680, Note_on_c, 0, 67, 40
2, 31800, Note_on_c, 0, 67, 0
2, 31800, Note_on_c, 0, 70, 36
2, 31920, Note_on_c, 0, 70, 0
2, 31920, Note_on_c, 0, 67, 40
2, 32040, Note_on_c, 0, 67, 0
2, 32040, Note_on_c, 0, 70, 34
2, 32160, Note_on_c, 0, 70, 0
2, 32160, Note_on_c, 0, 66, 41
2, 32280, Note_on_c, 0, 66, 0
2, 32280, Note_on_c, 0, 70, 36
2, 32400, Note_on_c, 0, 70, 0
2, 32400, Note_on_c, 0, 64, 41
2, 32520, Note_on_c, 0, 64, 0
2, 32520, Note_on_c, 0, 70, 36
2, 32640, Note_on_c, 0, 70, 0
2, 32640, Note_on_c, 0, 64, 41
2, 32760, Note_on_c, 0, 64, 0
2, 32760, Note_on_c, 0, 70, 35
2, 32880, Note_on_c, 0, 70, 0
2, 32880, Note_on_c, 0, 67, 41
2, 33000, Note_on_c, 0, 67, 0
2, 33000, Note_on_c, 0, 69, 35
2, 33120, Note_on_c, 0, 69, 0
2, 33120, Note_on_c, 0, 70, 44
2, 33240, Note_on_c, 0, 70, 0
2, 33240, Note_on_c, 0, 73, 40
2, 33360, Note_on_c, 0, 73, 0
2, 33360, Note_on_c, 0, 70, 46
2, 33480, Note_on_c, 0, 70, 0
2, 33480, Note_on_c, 0, 73, 39
2, 33600, Note_on_c, 0, 73, 0
2, 33600, Note_on_c, 0, 69, 51
2, 33720, Note_on_c, 0, 69, 0
2, 33720, Note_on_c, 0, 73, 45
2, 33840, Note_on_c, 0, 73, 0
2, 33840, Note_on_c, 0, 67, 54
2, 33960, Note_on_c, 0, 67, 0
2, 33960, Note_on_c, 0, 73, 48
2, 34080, Note_on_c, 0, 73, 0
2, 34080, Note_on_c, 0, 67, 57
2, 34200, Note_on_c, 0, 67, 0
2, 34200, Note_on_c, 0, 73, 53
2, 34320, Note_on_c, 0, 73, 0
2, 34320, Note_on_c, 0, 70, 59
2, 34440, Note_on_c, 0, 70, 0
2, 34440, Note_on_c, 0, 71, 52
2, 34560, Note_on_c, 0, 71, 0
2, 34560, Note_on_c, 0, 72, 62
2, 34680, Note_on_c, 0, 72, 0
2, 34680, Note_on_c, 0, 76, 55
2, 34800, Note_on_c, 0, 76, 0
2, 34800, Note_on_c, 0, 72, 62
2, 34920, Note_on_c, 0, 72, 0
2, 34920, Note_on_c, 0, 76, 55
2, 35040, Note_on_c, 0, 76, 0
2, 35040, Note_on_c, 0, 71, 61
2, 35160, Note_on_c, 0, 71, 0
2, 35160, Note_on_c, 0, 76, 50
2, 35280, Note_on_c, 0, 76, 0
2, 35280, Note_on_c, 0, 70, 62
2, 35400, Note_on_c, 0, 70, 0
2, 35400, Note_on_c, 0, 76, 55
2, 35520, Note_on_c, 0, 76, 0
2, 35520, Note_on_c, 0, 70, 58
2, 35640, Note_on_c, 0, 70, 0
2, 35640, Note_on_c, 0, 76, 50
2, 35760, Note_on_c, 0, 76, 0
2, 35760, Note_on_c, 0, 70, 55
2, 35880, Note_on_c, 0, 70, 0
2, 35880, Note_on_c, 0, 76, 46
2, 36000, Note_on_c, 0, 76, 0
2, 36000, Note_on_c, 0, 71, 40
2, 36120, Note_on_c, 0, 71, 0
2, 36120, Note_on_c, 0, 76, 36
2, 36240, Note_on_c, 0, 76, 0
2, 36240, Note_on_c, 0, 71, 40
2, 36360, Note_on_c, 0, 71, 0
2, 36360, Note_on_c, 0, 76, 34
2, 36480, Note_on_c, 0, 76, 0
2, 36480, Note_on_c, 0, 71, 41
2, 36600, Note_on_c, 0, 71, 0
2, 36600, Note_on_c, 0, 76, 36
2, 36720, Note_on_c, 0, 76, 0
2, 36720, Note_on_c, 0, 71, 40
2, 36840, Note_on_c, 0, 71, 0
2, 36840, Note_on_c, 0, 75, 36
2, 36960, Note_on_c, 0, 75, 0
2, 36960, Note_on_c, 0, 71, 40
2, 37080, Note_on_c, 0, 71, 0
2, 37080, Note_on_c, 0, 75, 34
2, 37200, Note_on_c, 0, 75, 0
2, 37200, Note_on_c, 0, 71, 41
2, 37320, Note_on_c, 0, 71, 0
2, 37320, Note_on_c, 0, 75, 36
2, 37440, Note_on_c, 0, 75, 0
2, 37440, Note_on_c, 0, 76, 40
2, 37440, Note_on_c, 0, 71, 34
2, 37500, Note_on_c, 0, 71, 0
2, 37500, Note_on_c, 0, 76, 0
2, 37680, Note_on_c, 0, 71, 31
2, 37680, Note_on_c, 0, 76, 37
2, 37740, Note_on_c, 0, 76, 0
2, 37740, Note_on_c, 0, 71, 0
2, 37920, Note_on_c, 0, 76, 37
2, 37920, Note_on_c, 0, 72, 31
2, 37980, Note_on_c, 0, 72, 0
2, 37980, Note_on_c, 0, 76, 0
2, 38160, Note_on_c, 0, 76, 40
2, 38160, Note_on_c, 0, 71, 34
2, 38220, Note_on_c, 0, 71, 0
2, 38220, Note_on_c, 0, 76, 0
2, 38400, Note_on_c, 0, 76, 36
2, 38400, Note_on_c, 0, 71, 30
2, 38460, Note_on_c, 0, 71, 0
2, 38460, Note_on_c, 0, 76, 0
2, 38640, Note_on_c, 0, 67, 40
2, 38760, Note_on_c, 0, 67, 0
2, 38760, Note_on_c, 0, 69, 35
2, 38880, Note_on_c, 0, 69, 0
2, 38880, Note_on_c, 0, 71, 40
2, 39000, Note_on_c, 0, 71, 0
2, 39000, Note_on_c, 0, 72, 36
2, 39120, Note_on_c, 0, 72, 0
2, 39120, Note_on_c, 0, 71, 40
2, 39240, Note_on_c, 0, 71, 0
2, 39240, Note_on_c, 0, 78, 45
2, 39360, Note_on_c, 0, 78, 0
2, 39360, Note_on_c, 0, 76, 43
2, 39480, Note_on_c, 0, 76, 0
2, 39480, Note_on_c, 0, 74, 40
2, 39600, Note_on_c, 0, 74, 0
2, 39600, Note_on_c, 0, 71, 39
2, 39720, Note_on_c, 0, 71, 0
2, 39720, Note_on_c, 0, 76, 41
2, 39840, Note_on_c, 0, 76, 0
2, 39840, Note_on_c, 0, 79, 43
2, 39960, Note_on_c, 0, 79, 0
2, 39960, Note_on_c, 0, 82, 45
2, 40080, Note_on_c, 0, 82, 0
2, 40080, Note_on_c, 0, 83, 48
2, 40200, Note_on_c, 0, 83, 0
2, 40320, Note_on_c, 0, 74, 34
2, 40320, Note_on_c, 0, 78, 34
2, 40320, Note_on_c, 0, 83, 40
2, 40380, Note_on_c, 0, 83, 0
2, 40380, Note_on_c, 0, 78, 0
2, 40380, Note_on_c, 0, 74, 0
2, 40560, Note_on_c, 0, 78, 31
2, 40560, Note_on_c, 0, 74, 31
2, 40560, Note_on_c, 0, 83, 37
2, 40620, Note_on_c, 0, 83, 0
2, 40620, Note_on_c, 0, 74, 0
2, 40620, Note_on_c, 0, 78, 0
2, 40800, Note_on_c, 0, 79, 31
2, 40800, Note_on_c, 0, 74, 31
2, 40800, Note_on_c, 0, 83, 37
2, 40860, Note_on_c, 0, 83, 0
2, 40860, Note_on_c, 0, 74, 0
2, 40860, Note_on_c, 0, 79, 0
2, 41040, Note_on_c, 0, 74, 34
2, 41040, Note_on_c, 0, 78, 34
2, 41040, Note_on_c, 0, 83, 40
2, 41100, Note_on_c, 0, 83, 0
2, 41100, Note_on_c, 0, 78, 0
2, 41100, Note_on_c, 0, 74, 0
2, 41280, Note_on_c, 0, 74, 30
2, 41280, Note_on_c, 0, 83, 36
2, 41280, Note_on_c, 0, 78, 30
2, 41340, Note_on_c, 0, 78, 0
2, 41340, Note_on_c, 0, 83, 0
2, 41340, Note_on_c, 0, 74, 0
2, 41520, Note_on_c, 0, 71, 40
2, 41640, Note_on_c, 0, 71, 0
2, 41640, Note_on_c, 0, 73, 35
2, 41760, Note_on_c, 0, 73, 0
2, 41760, Note_on_c, 0, 74, 40
2, 41880, Note_on_c, 0, 74, 0
2, 41880, Note_on_c, 0, 78, 36
2, 42000, Note_on_c, 0, 78, 0
2, 42000, Note_on_c, 0, 71, 40
2, 42000, Note_on_c, 0, 74, 40
2, 42120, Note_on_c, 0, 74, 0
2, 42120, Note_on_c, 0, 71, 0
2, 42120, Note_on_c, 0, 78, 45
2, 42240, Note_on_c, 0, 78, 0
2, 42240, Note_on_c, 0, 73, 63
2, 42240, Note_on_c, 0, 70, 53
2, 42360, Note_on_c, 0, 73, 0
2, 42360, Note_on_c, 0, 78, 60
2, 42480, Note_on_c, 0, 78, 0
2, 42480, Note_on_c, 0, 70, 0
2, 42480, Note_on_c, 0, 75, 62
2, 42480, Note_on_c, 0, 71, 52
2, 42600, Note_on_c, 0, 71, 0
2, 42600, Note_on_c, 0, 75, 0
2, 42600, Note_on_c, 0, 78, 57
2, 42720, Note_on_c, 0, 78, 0
2, 42720, Note_on_c, 0, 75, 63
2, 42720, Note_on_c, 0, 71, 53
2, 42840, Note_on_c, 0, 71, 0
2, 42840, Note_on_c, 0, 75, 0
2, 42840, Note_on_c, 0, 78, 59
2, 42960, Note_on_c, 0, 78, 0
2, 42960, Note_on_c, 0, 75, 64
2, 42960, Note_on_c, 0, 71, 54
2, 43080, Note_on_c, 0, 71, 0
2, 43080, Note_on_c, 0, 75, 0
2, 43080, Note_on_c, 0, 78, 57
2, 43200, Note_on_c, 0, 78, 0
2, 43200, Note_on_c, 0, 71, 34
2, 43200, Note_on_c, 0, 76, 40
2, 43260, Note_on_c, 0, 76, 0
2, 43260, Note_on_c, 0, 71, 0
2, 43440, Note_on_c, 0, 71, 31
2, 43440, Note_on_c, 0, 76, 37
2, 43500, Note_on_c, 0, 76, 0
2, 43500, Note_on_c, 0, 71, 0
2, 43680, Note_on_c, 0, 76, 37
2, 43680, Note_on_c, 0, 72, 31
2, 43740, Note_on_c, 0, 72, 0
2, 43740, Note_on_c, 0, 76, 0
2, 43920, Note_on_c, 0, 71, 34
2, 43920, Note_on_c, 0, 76, 40
2, 43980, Note_on_c, 0, 76, 0
2, 43980, Note_on_c, 0, 71, 0
2, 44160, Note_on_c, 0, 76, 36
2, 44160, Note_on_c, 0, 71, 30
2, 44220, Note_on_c, 0, 71, 0
2, 44220, Note_on_c, 0, 76, 0
2, 44400, Note_on_c, 0, 67, 40
2, 44520, Note_on_c, 0, 67, 0
2, 44520, Note_on_c, 0, 69, 35
2, 44640, Note_on_c, 0, 69, 0
2, 44640, Note_on_c, 0, 71, 40
2, 44760, Note_on_c, 0, 71, 0
2, 44760, Note_on_c, 0, 72, 36
2, 44880, Note_on_c, 0, 72, 0
2, 44880, Note_on_c, 0, 71, 40
2, 45000, Note_on_c, 0, 71, 0
2, 45000, Note_on_c, 0, 78, 45
2, 45120, Note_on_c, 0, 78, 0
2, 45120, Note_on_c, 0, 76, 43
2, 45240, Note_on_c, 0, 76, 0
2, 45240, Note_on_c, 0, 74, 40
2, 45360, Note_on_c, 0, 74, 0
2, 45360, Note_on_c, 0, 71, 39
2, 45480, Note_on_c, 0, 71, 0
2, 45480, Note_on_c, 0, 76, 41
2, 45600, Note_on_c, 0, 76, 0
2, 45600, Note_on_c, 0, 79, 43
2, 45720, Note_on_c, 0, 79, 0
2, 45720, Note_on_c, 0, 82, 45
2, 45840, Note_on_c, 0, 82, 0
2, 45840, Note_on_c, 0, 83, 48
2, 45960, Note_on_c, 0, 83, 0
2, 46200, Note_on_c, 0, 68, 36
2, 46320, Note_on_c, 0, 68, 0
2, 46320, Note_on_c, 0, 69, 38
2, 46440, Note_on_c, 0, 69, 0
2, 46440, Note_on_c, 0, 72, 40
2, 46560, Note_on_c, 0, 72, 0
2, 46560, Note_on_c, 0, 76, 43
2, 46680, Note_on_c, 0, 76, 0
2, 46920, Note_on_c, 0, 64, 36
2, 47040, Note_on_c, 0, 64, 0
2, 47040, Note_on_c, 0, 65, 38
2, 47160, Note_on_c, 0, 65, 0
2, 47160, Note_on_c, 0, 69, 40
2, 47280, Note_on_c, 0, 69, 0
2, 47280, Note_on_c, 0, 72, 43
2, 47400, Note_on_c, 0, 72, 0
2, 47640, Note_on_c, 0, 62, 34
2, 47760, Note_on_c, 0, 62, 0
2, 47760, Note_on_c, 0, 63, 36
2, 47880, Note_on_c, 0, 63, 0
2, 47880, Note_on_c, 0, 66, 38
2, 48000, Note_on_c, 0, 66, 0
2, 48000, Note_on_c, 0, 71, 40
2, 48120, Note_on_c, 0, 71, 0
2, 48240, Note_on_c, 0, 59, 22
2, 48240, Note_on_c, 0, 64, 27
2, 48240, Note_on_c, 0, 55, 22
2, 48300, Note_on_c, 0, 55, 0
2, 48300, Note_on_c, 0, 64, 0
2, 48300, Note_on_c, 0, 59, 0
2, 48480, Note_on_c, 0, 59, 20
2, 48480, Note_on_c, 0, 64, 24
2, 48480, Note_on_c, 0, 55, 20
2, 48540, Note_on_c, 0, 55, 0
2, 48540, Note_on_c, 0, 64, 0
2, 48540, Note_on_c, 0, 59, 0
2, 48720, Note_on_c, 0, 60, 20
2, 48720, Note_on_c, 0, 64, 24
2, 48720, Note_on_c, 0, 55, 20
2, 48780, Note_on_c, 0, 55, 0
2, 48780, Note_on_c, 0, 64, 0
2, 48780, Note_on_c, 0, 60, 0
2, 48960, Note_on_c, 0, 59, 22
2, 48960, Note_on_c, 0, 55, 22
2, 48960, Note_on_c, 0, 64, 27
2, 49020, Note_on_c, 0, 64, 0
2, 49020, Note_on_c, 0, 55, 0
2, 49020, Note_on_c, 0, 59, 0
2, 49200, Note_on_c, 0, 64, 24
2, 49200, Note_on_c, 0, 59, 20
2, 49200, Note_on_c, 0, 55, 20
2, 49260, Note_on_c, 0, 55, 0
2, 49260, Note_on_c, 0, 59, 0
2, 49260, Note_on_c, 0, 64, 0
2, 49440, Note_on_c, 0, 55, 20
2, 49440, Note_on_c, 0, 57, 20
2, 49440, Note_on_c, 0, 64, 24
2, 49500, Note_on_c, 0, 64, 0
2, 49500, Note_on_c, 0, 57, 0
2, 49500, Note_on_c, 0, 55, 0
2, 49680, Note_on_c, 0, 59, 22
2, 49680, Note_on_c, 0, 55, 22
2, 49680, Note_on_c, 0, 64, 27
2, 49740, Note_on_c, 0, 64, 0
2, 49740, Note_on_c, 0, 55, 0
2, 49740, Note_on_c, 0, 59, 0
2, 50280, Note_on_c, 0, 71, 22
2, 50340, Note_on_c, 0, 71, 0
2, 50340, Note_on_c, 0, 75, 22
2, 50400, Note_on_c, 0, 75, 0
2, 50400, Note_on_c, 0, 76, 32
2, 50400, Note_on_c, 0, 67, 27
2, 50460, Note_on_c, 0, 67, 0
2, 50460, Note_on_c, 0, 76, 0
2, 51000, Note_on_c, 0, 83, 22
2, 51060, Note_on_c, 0, 83, 0
2, 51060, Note_on_c, 0, 87, 22
2, 51120, Note_on_c, 0, 87, 0
2, 51120, Note_on_c, 0, 88, 32
2, 51120, Note_on_c, 0, 79, 27
2, 51180, Note_on_c, 0, 79, 0
2, 51180, Note_on_c, 0, 88, 0
2, 51180, End_track
3, 0, Start_track
3, 0, Title_t, "Piano left"
3, 0, Program_c, 0, 0
3, 0, Note_on_c, 0, 67, 40
3, 0, Note_on_c, 0, 64, 34
3, 60, Note_on_c, 0, 64, 0
3, 60, Note_on_c, 0, 67, 0
3, 240, Note_on_c, 0, 64, 29
3, 240, Note_on_c, 0, 67, 35
3, 300, Note_on_c, 0, 67, 0
3, 300, Note_on_c, 0, 64, 0
3, 480, Note_on_c, 0, 67, 30
3, 480, Note_on_c, 0, 60, 25
3, 540, Note_on_c, 0, 60, 0
3, 540, Note_on_c, 0, 67, 0
3, 720, Note_on_c, 0, 64, 29
3, 720, Note_on_c, 0, 67, 35
3, 780, Note_on_c, 0, 67, 0
3, 780, Note_on_c, 0, 64, 0
3, 960, Note_on_c, 0, 67, 31
3, 960, Note_on_c, 0, 64, 26
3, 1020, Note_on_c, 0, 64, 0
3, 1020, Note_on_c, 0, 67, 0
3, 1440, Note_on_c, 0, 64, 29
3, 1440, Note_on_c, 0, 67, 35
3, 1500, Note_on_c, 0, 67, 0
3, 1500, Note_on_c, 0, 64, 0
3, 1680, Note_on_c, 0, 67, 32
3, 1680, Note_on_c, 0, 64, 27
3, 1740, Note_on_c, 0, 64, 0
3, 1740, Note_on_c, 0, 67, 0
3, 1920, Note_on_c, 0, 69, 33
3, 1920, Note_on_c, 0, 64, 28
3, 1980, Note_on_c, 0, 64, 0
3, 1980, Note_on_c, 0, 69, 0
3, 2160, Note_on_c, 0, 64, 29
3, 2160, Note_on_c, 0, 67, 35
3, 2400, Note_on_c, 0, 67, 0
3, 2400, Note_on_c, 0, 64, 0
3, 2880, Note_on_c, 0, 71, 40
3, 2940, Note_on_c, 0, 71, 0
3, 3120, Note_on_c, 0, 71, 35
3, 3180, Note_on_c, 0, 71, 0
3, 3360, Note_on_c, 0, 67, 30
3, 3420, Note_on_c, 0, 67, 0
3, 3600, Note_on_c, 0, 71, 35
3, 3660, Note_on_c, 0, 71, 0
3, 3840, Note_on_c, 0, 71, 31
3, 3900, Note_on_c, 0, 71, 0
3, 4320, Note_on_c, 0, 66, 35
3, 4380, Note_on_c, 0, 66, 0
3, 4560, Note_on_c, 0, 62, 32
3, 4620, Note_on_c, 0, 62, 0
3, 4680, Note_on_c, 0, 64, 39
3, 4740, Note_on_c, 0, 64, 0
3, 4800, Note_on_c, 0, 66, 56
3, 4860, Note_on_c, 0, 66, 0
3, 5040, Note_on_c, 0, 66, 66
3, 5520, Note_on_c, 0, 66, 0
3, 5520, Note_on_c, 0, 59, 60
3, 5760, Note_on_c, 0, 59, 0
3, 5760, Note_on_c, 0, 64, 34
3, 5760, Note_on_c, 0, 67, 40
3, 5820, Note_on_c, 0, 67, 0
3, 5820, Note_on_c, 0, 64, 0
3, 6000, Note_on_c, 0, 67, 35
3, 6000, Note_on_c, 0, 64, 29
3, 6060, Note_on_c, 0, 64, 0
3, 6060, Note_on_c, 0, 67, 0
3, 6240, Note_on_c, 0, 67, 30
3, 6240, Note_on_c, 0, 60, 25
3, 6300, Note_on_c, 0, 60, 0
3, 6300, Note_on_c, 0, 67, 0
3, 6480, Note_on_c, 0, 64, 29
3, 6480, Note_on_c, 0, 67, 35
3, 6540, Note_on_c, 0, 67, 0
3, 6540, Note_on_c, 0, 64, 0
3, 6720, Note_on_c, 0, 67, 31
3, 6720, Note_on_c, 0, 64, 26
3, 6780, Note_on_c, 0, 64, 0
3, 6780, Note_on_c, 0, 67, 0
3, 7200, Note_on_c, 0, 64, 29
3, 7200, Note_on_c, 0, 67, 35
3, 7260, Note_on_c, 0, 67, 0
3, 7260, Note_on_c, 0, 64, 0
3, 7440, Note_on_c, 0, 67, 32
3, 7440, Note_on_c, 0, 64, 27
3, 7500, Note_on_c, 0, 64, 0
3, 7500, Note_on_c, 0, 67, 0
3, 7680, Note_on_c, 0, 69, 33
3, 7680, Note_on_c, 0, 64, 28
3, 7740, Note_on_c, 0, 64, 0
3, 7740, Note_on_c, 0, 69, 0
3, 7920, Note_on_c, 0, 67, 35
3, 7920, Note_on_c, 0, 64, 29
3, 8160, Note_on_c, 0, 64, 0
3, 8160, Note_on_c, 0, 67, 0
3, 8640, Note_on_c, 0, 71, 40
3, 8700, Note_on_c, 0, 71, 0
3, 8880, Note_on_c, 0, 71, 35
3, 8940, Note_on_c, 0, 71, 0
3, 9120, Note_on_c, 0, 67, 30
3, 9180, Note_on_c, 0, 67, 0
3, 9360, Note_on_c, 0, 71, 35
3, 9420, Note_on_c, 0, 71, 0
3, 9600, Note_on_c, 0, 71, 31
3, 9660, Note_on_c, 0, 71, 0
3, 10080, Note_on_c, 0, 66, 35
3, 10140, Note_on_c, 0, 66, 0
3, 10320, Note_on_c, 0, 62, 32
3, 10380, Note_on_c, 0, 62, 0
3, 10440, Note_on_c, 0, 64, 39
3, 10500, Note_on_c, 0, 64, 0
3, 10560, Note_on_c, 0, 66, 56
3, 10620, Note_on_c, 0, 66, 0
3, 10800, Note_on_c, 0, 66, 66
3, 11280, Note_on_c, 0, 66, 0
3, 11280, Note_on_c, 0, 59, 60
3, 11520, Note_on_c, 0, 59, 0
3, 11520, Note_on_c, 0, 47, 88
3, 11580, Note_on_c, 0, 47, 0
3, 11760, Note_on_c, 0, 47, 76
3, 11820, Note_on_c, 0, 47, 0
3, 12000, Note_on_c, 0, 42, 66
3, 12060, Note_on_c, 0, 42, 0
3, 12240, Note_on_c, 0, 47, 76
3, 12300, Note_on_c, 0, 47, 0
3, 12480, Note_on_c, 0, 47, 67
3, 12540, Note_on_c, 0, 47, 0
3, 12960, Note_on_c, 0, 52, 28
3, 12960, Note_on_c, 0, 61, 34
3, 13020, Note_on_c, 0, 61, 0
3, 13020, Note_on_c, 0, 52, 0
3, 13200, Note_on_c, 0, 52, 28
3, 13200, Note_on_c, 0, 61, 34
3, 13260, Note_on_c, 0, 61, 0
3, 13260, Note_on_c, 0, 52, 0
3, 13440, Note_on_c, 0, 61, 34
3, 13440, Note_on_c, 0, 54, 28
3, 13500, Note_on_c, 0, 54, 0
3, 13500, Note_on_c, 0, 61, 0
3, 13680, Note_on_c, 0, 61, 34
3, 13680, Note_on_c, 0, 55, 28
3, 13740, Note_on_c, 0, 55, 0
3, 13740, Note_on_c, 0, 61, 0
3, 13920, Note_on_c, 0, 61, 35
3, 13920, Note_on_c, 0, 55, 29
3, 13980, Note_on_c, 0, 55, 0
3, 13980, Note_on_c, 0, 61, 0
3, 14400, Note_on_c, 0, 47, 88
3, 14460, Note_on_c, 0, 47, 0
3, 14640, Note_on_c, 0, 47, 76
3, 14700, Note_on_c, 0, 47, 0
3, 14880, Note_on_c, 0, 42, 66
3, 14940, Note_on_c, 0, 42, 0
3, 15120, Note_on_c, 0, 47, 76
3, 15180, Note_on_c, 0, 47, 0
3, 15360, Note_on_c, 0, 47, 67
3, 15420, Note_on_c, 0, 47, 0
3, 15840, Note_on_c, 0, 52, 28
3, 15840, Note_on_c, 0, 61, 34
3, 15900, Note_on_c, 0, 61, 0
3, 15900, Note_on_c, 0, 52, 0
3, 16080, Note_on_c, 0, 52, 28
3, 16080, Note_on_c, 0, 61, 34
3, 16140, Note_on_c, 0, 61, 0
3, 16140, Note_on_c, 0, 52, 0
3, 16320, Note_on_c, 0, 54, 28
3, 16320, Note_on_c, 0, 61, 34
3, 16380, Note_on_c, 0, 61, 0
3, 16380, Note_on_c, 0, 54, 0
3, 16560, Note_on_c, 0, 55, 28
3, 16560, Note_on_c, 0, 61, 34
3, 16620, Note_on_c, 0, 61, 0
3, 16620, Note_on_c, 0, 55, 0
3, 16800, Note_on_c, 0, 61, 35
3, 16800, Note_on_c, 0, 55, 29
3, 16860, Note_on_c, 0, 55, 0
3, 16860, Note_on_c, 0, 61, 0
3, 17280, Note_on_c, 0, 55, 30
3, 17280, Note_on_c, 0, 64, 37
3, 17340, Note_on_c, 0, 64, 0
3, 17340, Note_on_c, 0, 55, 0
3, 17520, Note_on_c, 0, 64, 39
3, 17520, Note_on_c, 0, 55, 32
3, 17580, Note_on_c, 0, 55, 0
3, 17580, Note_on_c, 0, 64, 0
3, 17760, Note_on_c, 0, 64, 40
3, 17760, Note_on_c, 0, 55, 33
3, 17820, Note_on_c, 0, 55, 0
3, 17820, Note_on_c, 0, 64, 0
3, 18000, Note_on_c, 0, 58, 35
3, 18000, Note_on_c, 0, 64, 42
3, 18060, Note_on_c, 0, 64, 0
3, 18060, Note_on_c, 0, 58, 0
3, 18240, Note_on_c, 0, 64, 45
3, 18240, Note_on_c, 0, 58, 37
3, 18300, Note_on_c, 0, 58, 0
3, 18300, Note_on_c, 0, 64, 0
3, 18720, Note_on_c, 0, 58, 42
3, 18720, Note_on_c, 0, 67, 51
3, 18780, Note_on_c, 0, 67, 0
3, 18780, Note_on_c, 0, 58, 0
3, 18960, Note_on_c, 0, 67, 51
3, 18960, Note_on_c, 0, 64, 42
3, 19020, Note_on_c, 0, 64, 0
3, 19020, Note_on_c, 0, 67, 0
3, 19200, Note_on_c, 0, 62, 42
3, 19200, Note_on_c, 0, 67, 51
3, 19260, Note_on_c, 0, 67, 0
3, 19260, Note_on_c, 0, 62, 0
3, 19440, Note_on_c, 0, 60, 42
3, 19440, Note_on_c, 0, 66, 51
3, 19500, Note_on_c, 0, 66, 0
3, 19500, Note_on_c, 0, 60, 0
3, 19680, Note_on_c, 0, 66, 44
3, 19680, Note_on_c, 0, 60, 36
3, 19740, Note_on_c, 0, 60, 0
3, 19740, Note_on_c, 0, 66, 0
3, 19920, Note_on_c, 0, 60, 33
3, 19920, Note_on_c, 0, 66, 40
3, 19980, Note_on_c, 0, 66, 0
3, 19980, Note_on_c, 0, 60, 0
3, 20160, Note_on_c, 0, 59, 28
3, 20160, Note_on_c, 0, 66, 34
3, 20220, Note_on_c, 0, 66, 0
3, 20220, Note_on_c, 0, 59, 0
3, 20400, Note_on_c, 0, 59, 28
3, 20400, Note_on_c, 0, 66, 34
3, 20460, Note_on_c, 0, 66, 0
3, 20460, Note_on_c, 0, 59, 0
3, 20640, Note_on_c, 0, 59, 28
3, 20640, Note_on_c, 0, 66, 34
3, 20700, Note_on_c, 0, 66, 0
3, 20700, Note_on_c, 0, 59, 0
3, 20880, Note_on_c, 0, 59, 28
3, 20880, Note_on_c, 0, 66, 34
3, 20940, Note_on_c, 0, 66, 0
3, 20940, Note_on_c, 0, 59, 0
3, 21120, Note_on_c, 0, 66, 34
3, 21120, Note_on_c, 0, 59, 28
3, 21180, Note_on_c, 0, 59, 0
3, 21180, Note_on_c, 0, 66, 0
3, 21360, Note_on_c, 0, 59, 28
3, 21360, Note_on_c, 0, 66, 34
3, 21420, Note_on_c, 0, 66, 0
3, 21420, Note_on_c, 0, 59, 0
3, 21600, Note_on_c, 0, 67, 40
3, 21600, Note_on_c, 0, 64, 34
3, 21660, Note_on_c, 0, 64, 0
3, 21660, Note_on_c, 0, 67, 0
3, 21840, Note_on_c, 0, 67, 35
3, 21840, Note_on_c, 0, 64, 29
3, 21900, Note_on_c, 0, 64, 0
3, 21900, Note_on_c, 0, 67, 0
3, 22080, Note_on_c, 0, 60, 25
3, 22080, Note_on_c, 0, 67, 30
3, 22140, Note_on_c, 0, 67, 0
3, 22140, Note_on_c, 0, 60, 0
3, 22320, Note_on_c, 0, 64, 29
3, 22320, Note_on_c, 0, 67, 35
3, 22380, Note_on_c, 0, 67, 0
3, 22380, Note_on_c, 0, 64, 0
3, 22560, Note_on_c, 0, 67, 31
3, 22560, Note_on_c, 0, 64, 26
3, 22620, Note_on_c, 0, 64, 0
3, 22620, Note_on_c, 0, 67, 0
3, 23040, Note_on_c, 0, 64, 29
3, 23040, Note_on_c, 0, 67, 35
3, 23100, Note_on_c, 0, 67, 0
3, 23100, Note_on_c, 0, 64, 0
3, 23280, Note_on_c, 0, 64, 27
3, 23280, Note_on_c, 0, 67, 32
3, 23340, Note_on_c, 0, 67, 0
3, 23340, Note_on_c, 0, 64, 0
3, 23520, Note_on_c, 0, 64, 28
3, 23520, Note_on_c, 0, 69, 33
3, 23580, Note_on_c, 0, 69, 0
3, 23580, Note_on_c, 0, 64, 0
3, 23760, Note_on_c, 0, 67, 35
3, 23760, Note_on_c, 0, 64, 29
3, 24000, Note_on_c, 0, 64, 0
3, 24000, Note_on_c, 0, 67, 0
3, 24480, Note_on_c, 0, 71, 40
3, 24540, Note_on_c, 0, 71, 0
3, 24720, Note_on_c, 0, 71, 35
3, 24780, Note_on_c, 0, 71, 0
3, 24960, Note_on_c, 0, 67, 30
3, 25020, Note_on_c, 0, 67, 0
3, 25200, Note_on_c, 0, 71, 35
3, 25260, Note_on_c, 0, 71, 0
3, 25440, Note_on_c, 0, 71, 31
3, 25500, Note_on_c, 0, 71, 0
3, 25920, Note_on_c, 0, 66, 35
3, 25980, Note_on_c, 0, 66, 0
3, 26160, Note_on_c, 0, 62, 32
3, 26220, Note_on_c, 0, 62, 0
3, 26280, Note_on_c, 0, 64, 39
3, 26340, Note_on_c, 0, 64, 0
3, 26400, Note_on_c, 0, 66, 56
3, 26460, Note_on_c, 0, 66, 0
3, 26640, Note_on_c, 0, 66, 66
3, 27120, Note_on_c, 0, 66, 0
3, 27120, Note_on_c, 0, 59, 60
3, 27360, Note_on_c, 0, 59, 0
3, 27360, Note_on_c, 0, 47, 88
3, 27420, Note_on_c, 0, 47, 0
3, 27600, Note_on_c, 0, 47, 76
3, 27660, Note_on_c, 0, 47, 0
3, 27840, Note_on_c, 0, 42, 66
3, 27900, Note_on_c, 0, 42, 0
3, 28080, Note_on_c, 0, 47, 76
3, 28140, Note_on_c, 0, 47, 0
3, 28320, Note_on_c, 0, 47, 67
3, 28380, Note_on_c, 0, 47, 0
3, 28800, Note_on_c, 0, 52, 28
3, 28800, Note_on_c, 0, 61, 34
3, 28860, Note_on_c, 0, 61, 0
3, 28860, Note_on_c, 0, 52, 0
3, 29040, Note_on_c, 0, 61, 34
3, 29040, Note_on_c, 0, 52, 28
3, 29100, Note_on_c, 0, 52, 0
3, 29100, Note_on_c, 0, 61, 0
3, 29280, Note_on_c, 0, 54, 28
3, 29280, Note_on_c, 0, 61, 34
3, 29340, Note_on_c, 0, 61, 0
3, 29340, Note_on_c, 0, 54, 0
3, 29520, Note_on_c, 0, 61, 34
3, 29520, Note_on_c, 0, 55, 28
3, 29580, Note_on_c, 0, 55, 0
3, 29580, Note_on_c, 0, 61, 0
3, 29760, Note_on_c, 0, 61, 35
3, 29760, Note_on_c, 0, 55, 29
3, 29820, Note_on_c, 0, 55, 0
3, 29820, Note_on_c, 0, 61, 0
3, 30240, Note_on_c, 0, 47, 88
3, 30300, Note_on_c, 0, 47, 0
3, 30480, Note_on_c, 0, 47, 76
3, 30540, Note_on_c, 0, 47, 0
3, 30720, Note_on_c, 0, 42, 66
3, 30780, Note_on_c, 0, 42, 0
3, 30960, Note_on_c, 0, 47, 76
3, 31020, Note_on_c, 0, 47, 0
3, 31200, Note_on_c, 0, 47, 67
3, 31260, Note_on_c, 0, 47, 0
3, 31680, Note_on_c, 0, 52, 28
3, 31680, Note_on_c, 0, 61, 34
3, 31740, Note_on_c, 0, 61, 0
3, 31740, Note_on_c, 0, 52, 0
3, 31920, Note_on_c, 0, 52, 28
3, 31920, Note_on_c, 0, 61, 34
3, 31980, Note_on_c, 0, 61, 0
3, 31980, Note_on_c, 0, 52, 0
3, 32160, Note_on_c, 0, 54, 28
3, 32160, Note_on_c, 0, 61, 34
3, 32220, Note_on_c, 0, 61, 0
3, 32220, Note_on_c, 0, 54, 0
3, 32400, Note_on_c, 0, 55, 28
3, 32400, Note_on_c, 0, 61, 34
3, 32460, Note_on_c, 0, 61, 0
3, 32460, Note_on_c, 0, 55, 0
3, 32640, Note_on_c, 0, 55, 29
3, 32640, Note_on_c, 0, 61, 35
3, 32700, Note_on_c, 0, 61, 0
3, 32700, Note_on_c, 0, 55, 0
3, 33120, Note_on_c, 0, 64, 37
3, 33120, Note_on_c, 0, 55, 30
3, 33180, Note_on_c, 0, 55, 0
3, 33180, Note_on_c, 0, 64, 0
3, 33360, Note_on_c, 0, 55, 32
3, 33360, Note_on_c, 0, 64, 39
3, 33420, Note_on_c, 0, 64, 0
3, 33420, Note_on_c, 0, 55, 0
3, 33600, Note_on_c, 0, 55, 33
3, 33600, Note_on_c, 0, 64, 40
3, 33660, Note_on_c, 0, 64, 0
3, 33660, Note_on_c, 0, 55, 0
3, 33840, Note_on_c, 0, 64, 42
3, 33840, Note_on_c, 0, 58, 35
3, 33900, Note_on_c, 0, 58, 0
3, 33900, Note_on_c, 0, 64, 0
3, 34080, Note_on_c, 0, 64, 45
3, 34080, Note_on_c, 0, 58, 37
3, 34140, Note_on_c, 0, 58, 0
3, 34140, Note_on_c, 0, 64, 0
3, 34560, Note_on_c, 0, 67, 51
3, 34560, Note_on_c, 0, 58, 42
3, 34620, Note_on_c, 0, 58, 0
3, 34620, Note_on_c, 0, 67, 0
3, 34800, Note_on_c, 0, 64, 42
3, 34800, Note_on_c, 0, 67, 51
3, 34860, Note_on_c, 0, 67, 0
3, 34860, Note_on_c, 0, 64, 0
3, 35040, Note_on_c, 0, 67, 51
3, 35040, Note_on_c, 0, 62, 42
3, 35100, Note_on_c, 0, 62, 0
3, 35100, Note_on_c, 0, 67, 0
3, 35280, Note_on_c, 0, 60, 42
3, 35280, Note_on_c, 0, 66, 51
3, 35340, Note_on_c, 0, 66, 0
3, 35340, Note_on_c, 0, 60, 0
3, 35520, Note_on_c, 0, 66, 44
3, 35520, Note_on_c, 0, 60, 36
3, 35580, Note_on_c, 0, 60, 0
3, 35580, Note_on_c, 0, 66, 0
3, 35760, Note_on_c, 0, 66, 40
3, 35760, Note_on_c, 0, 60, 33
3, 35820, Note_on_c, 0, 60, 0
3, 35820, Note_on_c, 0, 66, 0
3, 36000, Note_on_c, 0, 66, 34
3, 36000, Note_on_c, 0, 59, 28
3, 36060, Note_on_c, 0, 59, 0
3, 36060, Note_on_c, 0, 66, 0
3, 36240, Note_on_c, 0, 66, 34
3, 36240, Note_on_c, 0, 59, 28
3, 36300, Note_on_c, 0, 59, 0
3, 36300, Note_on_c, 0, 66, 0
3, 36480, Note_on_c, 0, 66, 34
3, 36480, Note_on_c, 0, 59, 28
3, 36540, Note_on_c, 0, 59, 0
3, 36540, Note_on_c, 0, 66, 0
3, 36720, Note_on_c, 0, 59, 28
3, 36720, Note_on_c, 0, 66, 34
3, 36780, Note_on_c, 0, 66, 0
3, 36780, Note_on_c, 0, 59, 0
3, 36960, Note_on_c, 0, 66, 34
3, 36960, Note_on_c, 0, 59, 28
3, 37020, Note_on_c, 0, 59, 0
3, 37020, Note_on_c, 0, 66, 0
3, 37200, Note_on_c, 0, 59, 28
3, 37200, Note_on_c, 0, 66, 34
3, 37260, Note_on_c, 0, 66, 0
3, 37260, Note_on_c, 0, 59, 0
3, 37440, Note_on_c, 0, 67, 40
3, 37440, Note_on_c, 0, 64, 34
3, 37500, Note_on_c, 0, 64, 0
3, 37500, Note_on_c, 0, 67, 0
3, 37680, Note_on_c, 0, 64, 29
3, 37680, Note_on_c, 0, 67, 35
3, 37740, Note_on_c, 0, 67, 0
3, 37740, Note_on_c, 0, 64, 0
3, 37920, Note_on_c, 0, 67, 30
3, 37920, Note_on_c, 0, 60, 25
3, 37980, Note_on_c, 0, 60, 0
3, 37980, Note_on_c, 0, 67, 0
3, 38160, Note_on_c, 0, 67, 35
3, 38160, Note_on_c, 0, 64, 29
3, 38220, Note_on_c, 0, 64, 0
3, 38220, Note_on_c, 0, 67, 0
3, 38400, Note_on_c, 0, 67, 31
3, 38400, Note_on_c, 0, 64, 26
3, 38460, Note_on_c, 0, 64, 0
3, 38460, Note_on_c, 0, 67, 0
3, 38880, Note_on_c, 0, 64, 29
3, 38880, Note_on_c, 0, 67, 35
3, 38940, Note_on_c, 0, 67, 0
3, 38940, Note_on_c, 0, 64, 0
3, 39120, Note_on_c, 0, 64, 27
3, 39120, Note_on_c, 0, 67, 32
3, 39180, Note_on_c, 0, 67, 0
3, 39180, Note_on_c, 0, 64, 0
3, 39360, Note_on_c, 0, 64, 28
3, 39360, Note_on_c, 0, 69, 33
3, 39420, Note_on_c, 0, 69, 0
3, 39420, Note_on_c, 0, 64, 0
3, 39600, Note_on_c, 0, 67, 35
3, 39600, Note_on_c, 0, 64, 29
3, 39840, Note_on_c, 0, 64, 0
3, 39840, Note_on_c, 0, 67, 0
3, 40320, Note_on_c, 0, 71, 40
3, 40380, Note_on_c, 0, 71, 0
3, 40560, Note_on_c, 0, 71, 35
3, 40620, Note_on_c, 0, 71, 0
3, 40800, Note_on_c, 0, 67, 30
3, 40860, Note_on_c, 0, 67, 0
3, 41040, Note_on_c, 0, 71, 35
3, 41100, Note_on_c, 0, 71, 0
3, 41280, Note_on_c, 0, 71, 31
3, 41340, Note_on_c, 0, 71, 0
3, 41760, Note_on_c, 0, 66, 35
3, 41820, Note_on_c, 0, 66, 0
3, 42000, Note_on_c, 0, 62, 32
3, 42060, Note_on_c, 0, 62, 0
3, 42120, Note_on_c, 0, 64, 39
3, 42180, Note_on_c, 0, 64, 0
3, 42240, Note_on_c, 0, 66, 56
3, 42300, Note_on_c, 0, 66, 0
3, 42480, Note_on_c, 0, 66, 66
3, 42960, Note_on_c, 0, 66, 0
3, 42960, Note_on_c, 0, 59, 60
3, 43200, Note_on_c, 0, 59, 0
3, 43200, Note_on_c, 0, 64, 34
3, 43200, Note_on_c, 0, 67, 40
3, 43260, Note_on_c, 0, 67, 0
3, 43260, Note_on_c, 0, 64, 0
3, 43440, Note_on_c, 0, 64, 29
3, 43440, Note_on_c, 0, 67, 35
3, 43500, Note_on_c, 0, 67, 0
3, 43500, Note_on_c, 0, 64, 0
3, 43680, Note_on_c, 0, 60, 25
3, 43680, Note_on_c, 0, 67, 30
3, 43740, Note_on_c, 0, 67, 0
3, 43740, Note_on_c, 0, 60, 0
3, 43920, Note_on_c, 0, 64, 29
3, 43920, Note_on_c, 0, 67, 35
3, 43980, Note_on_c, 0, 67, 0
3, 43980, Note_on_c, 0, 64, 0
3, 44160, Note_on_c, 0, 67, 31
3, 44160, Note_on_c, 0, 64, 26
3, 44220, Note_on_c, 0, 64, 0
3, 44220, Note_on_c, 0, 67, 0
3, 44640, Note_on_c, 0, 64, 29
3, 44640, Note_on_c, 0, 67, 35
3, 44700, Note_on_c, 0, 67, 0
3, 44700, Note_on_c, 0, 64, 0
3, 44880, Note_on_c, 0, 64, 27
3, 44880, Note_on_c, 0, 67, 32
3, 44940, Note_on_c, 0, 67, 0
3, 44940, Note_on_c, 0, 64, 0
3, 45120, Note_on_c, 0, 64, 28
3, 45120, Note_on_c, 0, 69, 33
3, 45180, Note_on_c, 0, 69, 0
3, 45180, Note_on_c, 0, 64, 0
3, 45360, Note_on_c, 0, 64, 29
3, 45360, Note_on_c, 0, 67, 35
3, 45600, Note_on_c, 0, 67, 0
3, 45600, Note_on_c, 0, 64, 0
3, 46080, Note_on_c, 0, 64, 31
3, 46080, Note_on_c, 0, 60, 26
3, 46320, Note_on_c, 0, 60, 0
3, 46320, Note_on_c, 0, 64, 0
3, 46800, Note_on_c, 0, 57, 26
3, 46800, Note_on_c, 0, 60, 31
3, 47040, Note_on_c, 0, 60, 0
3, 47040, Note_on_c, 0, 57, 0
3, 47520, Note_on_c, 0, 54, 24
3, 47520, Note_on_c, 0, 47, 21
3, 47520, Note_on_c, 0, 57, 29
3, 47760, Note_on_c, 0, 57, 0
3, 47760, Note_on_c, 0, 47, 0
3, 47760, Note_on_c, 0, 54, 0
3, 48240, Note_on_c, 0, 40, 18
3, 48240, Note_on_c, 0, 47, 18
3, 48240, Note_on_c, 0, 52, 22
3, 48300, Note_on_c, 0, 52, 0
3, 48300, Note_on_c, 0, 47, 0
3, 48300, Note_on_c, 0, 40, 0
3, 48480, Note_on_c, 0, 47, 16
3, 48480, Note_on_c, 0, 40, 16
3, 48480, Note_on_c, 0, 52, 19
3, 48540, Note_on_c, 0, 52, 0
3, 48540, Note_on_c, 0, 40, 0
3, 48540, Note_on_c, 0, 47, 0
3, 48720, Note_on_c, 0, 52, 16
3, 48720, Note_on_c, 0, 45, 13
3, 48720, Note_on_c, 0, 40, 13
3, 48780, Note_on_c, 0, 40, 0
3, 48780, Note_on_c, 0, 45, 0
3, 48780, Note_on_c, 0, 52, 0
3, 48960, Note_on_c, 0, 40, 18
3, 48960, Note_on_c, 0, 52, 22
3, 48960, Note_on_c, 0, 47, 18
3, 49020, Note_on_c, 0, 47, 0
3, 49020, Note_on_c, 0, 52, 0
3, 49020, Note_on_c, 0, 40, 0
3, 49200, Note_on_c, 0, 40, 16
3, 49200, Note_on_c, 0, 47, 16
3, 49200, Note_on_c, 0, 52, 19
3, 49260, Note_on_c, 0, 52, 0
3, 49260, Note_on_c, 0, 47, 0
3, 49260, Note_on_c, 0, 40, 0
3, 49440, Note_on_c, 0, 52, 16
3, 49440, Note_on_c, 0, 40, 13
3, 49440, Note_on_c, 0, 48, 13
3, 49500, Note_on_c, 0, 48, 0
3, 49500, Note_on_c, 0, 40, 0
3, 49500, Note_on_c, 0, 52, 0
3, 49680, Note_on_c, 0, 52, 22
3, 49680, Note_on_c, 0, 40, 18
3, 49680, Note_on_c, 0, 47, 18
3, 49740, Note_on_c, 0, 47, 0
3, 49740, Note_on_c, 0, 40, 0
3, 49740, Note_on_c, 0, 52, 0
3, 50400, Note_on_c, 0, 52, 22
3, 50400, Note_on_c, 0, 59, 27
3, 50460, Note_on_c, 0, 59, 0
3, 50460, Note_on_c, 0, 52, 0
3, 51120, Note_on_c, 0, 71, 27
3, 51120, Note_on_c, 0, 64, 22
3, 51180, Note_on_c, 0, 64, 0
3, 51180, Note_on_c, 0, 71, 0
3, 51180, End_track
4, 0, Start_track
4, 0, Title_t, "Pedale"
4, 0, Program_c, 0, 0
4, 1200, Control_c, 0, 64, 127
4, 1445, Control_c, 0, 64, 0
4, 1493, Control_c, 0, 64, 127
4, 1932, Control_c, 0, 64, 0
4, 1991, Control_c, 0, 64, 127
4, 2164, Control_c, 0, 64, 0
4, 2252, Control_c, 0, 64, 127
4, 2795, Control_c, 0, 64, 0
4, 4080, Control_c, 0, 64, 127
4, 4325, Control_c, 0, 64, 0
4, 4373, Control_c, 0, 64, 127
4, 4812, Control_c, 0, 64, 0
4, 4871, Control_c, 0, 64, 127
4, 5044, Control_c, 0, 64, 0
4, 5132, Control_c, 0, 64, 127
4, 5760, Control_c, 0, 64, 0
4, 6960, Control_c, 0, 64, 127
4, 7205, Control_c, 0, 64, 0
4, 7253, Control_c, 0, 64, 127
4, 7692, Control_c, 0, 64, 0
4, 7751, Control_c, 0, 64, 127
4, 7924, Control_c, 0, 64, 0
4, 8012, Control_c, 0, 64, 127
4, 8555, Control_c, 0, 64, 0
4, 9840, Control_c, 0, 64, 127
4, 10085, Control_c, 0, 64, 0
4, 10133, Control_c, 0, 64, 127
4, 10572, Control_c, 0, 64, 0
4, 10631, Control_c, 0, 64, 127
4, 10804, Control_c, 0, 64, 0
4, 10892, Control_c, 0, 64, 127
4, 11520, Control_c, 0, 64, 0
4, 12720, Control_c, 0, 64, 127
4, 12965, Control_c, 0, 64, 0
4, 13003, Control_c, 0, 64, 127
4, 13090, Control_c, 0, 64, 0
4, 13220, Control_c, 0, 64, 127
4, 13330, Control_c, 0, 64, 0
4, 13460, Control_c, 0, 64, 127
4, 13570, Control_c, 0, 64, 0
4, 13689, Control_c, 0, 64, 127
4, 13810, Control_c, 0, 64, 0
4, 13946, Control_c, 0, 64, 127
4, 14050, Control_c, 0, 64, 0
4, 14400, Control_c, 0, 64, 0
4, 15600, Control_c, 0, 64, 127
4, 15845, Control_c, 0, 64, 0
4, 15883, Control_c, 0, 64, 127
4, 15970, Control_c, 0, 64, 0
4, 16100, Control_c, 0, 64, 127
4, 16210, Control_c, 0, 64, 0
4, 16340, Control_c, 0, 64, 127
4, 16450, Control_c, 0, 64, 0
4, 16569, Control_c, 0, 64, 127
4, 16690, Control_c, 0, 64, 0
4, 16826, Control_c, 0, 64, 127
4, 16930, Control_c, 0, 64, 0
4, 17100, Control_c, 0, 64, 127
4, 17285, Control_c, 0, 64, 0
4, 17323, Control_c, 0, 64, 127
4, 17410, Control_c, 0, 64, 0
4, 17540, Control_c, 0, 64, 127
4, 17650, Control_c, 0, 64, 0
4, 17780, Control_c, 0, 64, 127
4, 17890, Control_c, 0, 64, 0
4, 18009, Control_c, 0, 64, 127
4, 18130, Control_c, 0, 64, 0
4, 18266, Control_c, 0, 64, 127
4, 18370, Control_c, 0, 64, 0
4, 18540, Control_c, 0, 64, 127
4, 18725, Control_c, 0, 64, 0
4, 18763, Control_c, 0, 64, 127
4, 18850, Control_c, 0, 64, 0
4, 18980, Control_c, 0, 64, 127
4, 19090, Control_c, 0, 64, 0
4, 19220, Control_c, 0, 64, 127
4, 19330, Control_c, 0, 64, 0
4, 19445, Control_c, 0, 64, 0
4, 19483, Control_c, 0, 64, 127
4, 19570, Control_c, 0, 64, 0
4, 19700, Control_c, 0, 64, 127
4, 19810, Control_c, 0, 64, 0
4, 19940, Control_c, 0, 64, 127
4, 20050, Control_c, 0, 64, 0
4, 20165, Control_c, 0, 64, 0
4, 20203, Control_c, 0, 64, 127
4, 20885, Control_c, 0, 64, 0
4, 20923, Control_c, 0, 64, 127
4, 21600, Control_c, 0, 64, 0
4, 22800, Control_c, 0, 64, 127
4, 23045, Control_c, 0, 64, 0
4, 23093, Control_c, 0, 64, 127
4, 23532, Control_c, 0, 64, 0
4, 23591, Control_c, 0, 64, 127
4, 23764, Control_c, 0, 64, 0
4, 23852, Control_c, 0, 64, 127
4, 24395, Control_c, 0, 64, 0
4, 25680, Control_c, 0, 64, 127
4, 25925, Control_c, 0, 64, 0
4, 25973, Control_c, 0, 64, 127
4, 26412, Control_c, 0, 64, 0
4, 26471, Control_c, 0, 64, 127
4, 26644, Control_c, 0, 64, 0
4, 26732, Control_c, 0, 64, 127
4, 27360, Control_c, 0, 64, 0
4, 28560, Control_c, 0, 64, 127
4, 28805, Control_c, 0, 64, 0
4, 28843, Control_c, 0, 64, 127
4, 28930, Control_c, 0, 64, 0
4, 29060, Control_c, 0, 64, 127
4, 29170, Control_c, 0, 64, 0
4, 29300, Control_c, 0, 64, 127
4, 29410, Control_c, 0, 64, 0
4, 29529, Control_c, 0, 64, 127
4, 29650, Control_c, 0, 64, 0
4, 29786, Control_c, 0, 64, 127
4, 29890, Control_c, 0, 64, 0
4, 30240, Control_c, 0, 64, 0
4, 31440, Control_c, 0, 64, 127
4, 31685, Control_c, 0, 64, 0
4, 31723, Control_c, 0, 64, 127
4, 31810, Control_c, 0, 64, 0
4, 31940, Control_c, 0, 64, 127
4, 32050, Control_c, 0, 64, 0
4, 32180, Control_c, 0, 64, 127
4, 32290, Control_c, 0, 64, 0
4, 32409, Control_c, 0, 64, 127
4, 32530, Control_c, 0, 64, 0
4, 32666, Control_c, 0, 64, 127
4, 32770, Control_c, 0, 64, 0
4, 32940, Control_c, 0, 64, 127
4, 33125, Control_c, 0, 64, 0
4, 33163, Control_c, 0, 64, 127
4, 33250, Control_c, 0, 64, 0
4, 33380, Control_c, 0, 64, 127
4, 33490, Control_c, 0, 64, 0
4, 33620, Control_c, 0, 64, 127
4, 33730, Control_c, 0, 64, 0
4, 33849, Control_c, 0, 64, 127
4, 33970, Control_c, 0, 64, 0
4, 34106, Control_c, 0, 64, 127
4, 34210, Control_c, 0, 64, 0
4, 34380, Control_c, 0, 64, 127
4, 34565, Control_c, 0, 64, 0
4, 34603, Control_c, 0, 64, 127
4, 34690, Control_c, 0, 64, 0
4, 34820, Control_c, 0, 64, 127
4, 34930, Control_c, 0, 64, 0
4, 35060, Control_c, 0, 64, 127
4, 35170, Control_c, 0, 64, 0
4, 35285, Control_c, 0, 64, 0
4, 35323, Control_c, 0, 64, 127
4, 36005, Control_c, 0, 64, 0
4, 36043, Control_c, 0, 64, 127
4, 36725, Control_c, 0, 64, 0
4, 36770, Control_c, 0, 64, 127
4, 37440, Control_c, 0, 64, 0
4, 38640, Control_c, 0, 64, 127
4, 38885, Control_c, 0, 64, 0
4, 38933, Control_c, 0, 64, 127
4, 39372, Control_c, 0, 64, 0
4, 39431, Control_c, 0, 64, 127
4, 39604, Control_c, 0, 64, 0
4, 39692, Control_c, 0, 64, 127
4, 40235, Control_c, 0, 64, 0
4, 41520, Control_c, 0, 64, 127
4, 41765, Control_c, 0, 64, 0
4, 41813, Control_c, 0, 64, 127
4, 42252, Control_c, 0, 64, 0
4, 42311, Control_c, 0, 64, 127
4, 42484, Control_c, 0, 64, 0
4, 42572, Control_c, 0, 64, 127
4, 43200, Control_c, 0, 64, 0
4, 44400, Control_c, 0, 64, 127
4, 44645, Control_c, 0, 64, 0
4, 44693, Control_c, 0, 64, 127
4, 45132, Control_c, 0, 64, 0
4, 45191, Control_c, 0, 64, 127
4, 45364, Control_c, 0, 64, 0
4, 45452, Control_c, 0, 64, 127
4, 45995, Control_c, 0, 64, 0
4, 46172, Control_c, 0, 64, 127
4, 46715, Control_c, 0, 64, 0
4, 46892, Control_c, 0, 64, 127
4, 47435, Control_c, 0, 64, 0
4, 47612, Control_c, 0, 64, 127
4, 48155, Control_c, 0, 64, 0
4, 49712, Control_c, 0, 64, 127
4, 49829, Control_c, 0, 64, 0
4, 50309, Control_c, 0, 64, 127
4, 50400, Control_c, 0, 64, 0
4, 50440, Control_c, 0, 64, 127
4, 50577, Control_c, 0, 64, 0
4, 51015, Control_c, 0, 64, 127
4, 51120, Control_c, 0, 64, 0
4, 51163, Control_c, 0, 64, 127
4, 51297, Control_c, 0, 64, 0
4, 51297, End_track
5, 0, Start_track
5, 0, Title_t, "Grieg: Lyric Pieces Op. 12 No. 4 Fairy Dance"
5, 0, End_track
6, 0, Start_track
6, 0, Title_t, "Copyright © 2007 by Bernd Krueger"
6, 0, End_track
7, 0, Start_track
7, 0, Title_t, "http://www.piano-midi.de/"
7, 0, End_track
8, 0, Start_track
8, 0, Title_t, "Edition: 2012-10-29"
8, 0, End_track
9, 0, Start_track
9, 0, Title_t, "Spur 8"
9, 0, End_track
10, 0, Start_track
10, 0, Title_t, "Spur 9"
10, 0, End_track
11, 0, Start_track
11, 0, Title_t, "Spur 10"
11, 0, End_track
12, 0, Start_track
12, 0, Title_t, "Spur 11"
12, 0, End_track
13, 0, Start_track
13, 0, Title_t, "Spur 12"
13, 0, End_track
14, 0, Start_track
14, 0, Title_t, "Spur 13"
14, 0, End_track
15, 0, Start_track
15, 0, Title_t, "Spur 14"
15, 0, End_track
16, 0, Start_track
16, 0, Title_t, "Spur 15"
16, 0, End_track
17, 0, Start_track
17, 0, Title_t, "Spur 16"
17, 0, End_track
0, 0, End_of_file
