0, 0, Header, 1, 7, 480
1, 0, Start_track
1, 0, Title_t, "Zug der Zwerge Op 54, No. 3"
1, 0, Copyright_t, "Copyright © 1998 von Bernd Krüger."
1, 0, Text_t, "Edvard Grieg\012"
1, 0, Text_t, "Allegro moderato\012"
1, 0, Text_t, "Fertiggestellt am 7.3.98\012"
1, 0, Text_t, "Korrekturen am 4.9.98\012"
1, 0, Text_t, "Anpassungen an Digitalpiano am 28.12.98\012"
1, 0, Text_t, "Update am 19.8.99\012"
1, 0, Text_t, "Normierung: 23.12.2002\012"
1, 0, Text_t, "Update; 29.4.2007 (Übertragung inach SONAR, Mittelteil langsamer\012"
1, 0, Text_t, "Update: 8.11.2012\012"
1, 0, Text_t, "Dauer: 2:36 Minuten\012"
1, 0, Text_t, "bdca426d104a26ac9dcb070447587523\012"
1, 0, SMPTE_offset, 96, 0, 3, 0, 0
1, 0, Time_signature, 2, 2, 24, 8
1, 0, Key_signature, -1, "major"
1, 0, Tempo, 370370
1, 0, Marker_t, "March of the Dwarfs"
1, 960, Tempo, 365854
1, 1660, Tempo, 356083
1, 1920, Tempo, 366972
1, 2160, Tempo, 363636
1, 2400, Tempo, 365854
1, 2640, Tempo, 360360
1, 2880, Tempo, 364742
1, 3120, Tempo, 357143
1, 3360, Tempo, 360360
1, 3600, Tempo, 350877
1, 3840, Tempo, 360360
1, 4080, Tempo, 355030
1, 4320, Tempo, 360360
1, 4560, Tempo, 353982
1, 4800, Tempo, 358209
1, 5280, Tempo, 363636
1, 5520, Tempo, 355030
1, 5760, Tempo, 363636
1, 6000, Tempo, 359281
1, 6240, Tempo, 363636
1, 6480, Tempo, 355030
1, 6720, Tempo, 361446
1, 6960, Tempo, 352941
1, 7200, Tempo, 356083
1, 7440, Tempo, 349854
1, 7680, Tempo, 360360
1, 7920, Tempo, 350877
1, 8160, Tempo, 355030
1, 8400, Tempo, 350877
1, 8640, Tempo, 358209
1, 8880, Tempo, 344828
1, 9360, Tempo, 338983
1, 9600, Tempo, 346821
1, 9840, Tempo, 357143
1, 10080, Tempo, 346821
1, 10320, Tempo, 357143
1, 10560, Tempo, 346821
1, 10800, Tempo, 357143
1, 11040, Tempo, 346821
1, 11280, Tempo, 357143
1, 11520, Tempo, 346821
1, 11760, Tempo, 357143
1, 12000, Tempo, 346821
1, 12240, Tempo, 356083
1, 12720, Tempo, 340909
1, 13440, Tempo, 346821
1, 13680, Tempo, 356083
1, 13920, Tempo, 346821
1, 14160, Tempo, 356083
1, 14400, Tempo, 356083
1, 14640, Tempo, 341880
1, 15360, Tempo, 346821
1, 15600, Tempo, 356083
1, 15840, Tempo, 346821
1, 16080, Tempo, 356083
1, 16320, Tempo, 346821
1, 16800, Tempo, 338983
1, 17280, Tempo, 341880
1, 17760, Tempo, 337079
1, 18240, Tempo, 331492
1, 18700, Tempo, 337079
1, 18720, Tempo, 335196
1, 19200, Tempo, 330579
1, 19660, Tempo, 337079
1, 19680, Tempo, 334262
1, 20160, Tempo, 348837
1, 20400, Tempo, 341880
1, 20640, Tempo, 348837
1, 20880, Tempo, 342857
1, 21120, Tempo, 348837
1, 21360, Tempo, 342857
1, 21600, Tempo, 348837
1, 21840, Tempo, 342857
1, 22080, Tempo, 348837
1, 22320, Tempo, 342857
1, 22560, Tempo, 348837
1, 22800, Tempo, 342857
1, 23040, Tempo, 348837
1, 23280, Tempo, 342857
1, 23520, Tempo, 348837
1, 23760, Tempo, 342857
1, 24000, Tempo, 348837
1, 24240, Tempo, 342857
1, 24480, Tempo, 348837
1, 24720, Tempo, 342857
1, 24960, Tempo, 348837
1, 25200, Tempo, 342857
1, 25440, Tempo, 348837
1, 25680, Tempo, 342857
1, 25920, Tempo, 348837
1, 26160, Tempo, 342857
1, 26400, Tempo, 348837
1, 26640, Tempo, 342857
1, 26880, Tempo, 348837
1, 27120, Tempo, 342857
1, 27360, Tempo, 348837
1, 27600, Tempo, 342857
1, 27840, Tempo, 349854
1, 29500, Tempo, 348311
1, 29740, Tempo, 345762
1, 29760, Tempo, 356337
1, 30000, Tempo, 353107
1, 30240, Tempo, 355240
1, 30480, Tempo, 349915
1, 30720, Tempo, 354170
1, 30960, Tempo, 346781
1, 31200, Tempo, 349915
1, 31440, Tempo, 340716
1, 31680, Tempo, 349915
1, 31920, Tempo, 344729
1, 32160, Tempo, 349915
1, 32400, Tempo, 343721
1, 32640, Tempo, 347846
1, 33120, Tempo, 353107
1, 33360, Tempo, 344729
1, 33600, Tempo, 350877
1, 33840, Tempo, 344828
1, 34080, Tempo, 350877
1, 34320, Tempo, 344729
1, 34560, Tempo, 350980
1, 34800, Tempo, 342720
1, 35040, Tempo, 345762
1, 35280, Tempo, 339732
1, 35520, Tempo, 349915
1, 35760, Tempo, 340716
1, 36000, Tempo, 344729
1, 36240, Tempo, 340716
1, 36480, Tempo, 347846
1, 36720, Tempo, 334840
1, 37200, Tempo, 329146
1, 37440, Tempo, 336757
1, 37680, Tempo, 346781
1, 37920, Tempo, 336757
1, 38160, Tempo, 346781
1, 38400, Tempo, 336757
1, 38640, Tempo, 346781
1, 38880, Tempo, 336757
1, 39120, Tempo, 346781
1, 39360, Tempo, 336757
1, 39600, Tempo, 346781
1, 39840, Tempo, 336757
1, 40080, Tempo, 345821
1, 40320, Tempo, 342857
1, 40560, Tempo, 338983
1, 41280, Tempo, 336757
1, 41520, Tempo, 346781
1, 41760, Tempo, 336757
1, 42000, Tempo, 346781
1, 42240, Tempo, 336757
1, 42480, Tempo, 346781
1, 42720, Tempo, 336757
1, 42960, Tempo, 346781
1, 43200, Tempo, 336757
1, 43440, Tempo, 346781
1, 43680, Tempo, 336757
1, 43920, Tempo, 345821
1, 44160, Tempo, 342857
1, 44400, Tempo, 338983
1, 45100, Tempo, 348129
1, 45120, Tempo, 338983
1, 45360, Tempo, 345821
1, 45600, Tempo, 338983
1, 45840, Tempo, 346821
1, 46080, Tempo, 338983
1, 46320, Tempo, 345821
1, 46560, Tempo, 338983
1, 46580, Tempo, 337079
1, 46800, Tempo, 345821
1, 47040, Tempo, 338983
1, 47280, Tempo, 345821
1, 47520, Tempo, 338983
1, 47760, Tempo, 345821
1, 48000, Tempo, 342857
1, 48240, Tempo, 338028
1, 48960, Tempo, 338983
1, 49200, Tempo, 346821
1, 49440, Tempo, 339943
1, 49680, Tempo, 346821
1, 49920, Tempo, 339943
1, 50160, Tempo, 346821
1, 50400, Tempo, 339943
1, 50640, Tempo, 346821
1, 50880, Tempo, 339943
1, 51120, Tempo, 346821
1, 51360, Tempo, 339943
1, 51600, Tempo, 346821
1, 51840, Tempo, 348594
1, 51861, Tempo, 343840
1, 52080, Tempo, 338983
1, 52281, Tempo, 338983
1, 52800, Tempo, 339943
1, 53040, Tempo, 348837
1, 53280, Tempo, 340909
1, 53520, Tempo, 348837
1, 54000, Tempo, 341880
1, 54720, Tempo, 342857
1, 54960, Tempo, 348837
1, 55200, Tempo, 342857
1, 55440, Tempo, 348837
1, 55680, Tempo, 346821
1, 56160, Tempo, 338983
1, 56640, Tempo, 341880
1, 57120, Tempo, 337079
1, 57600, Tempo, 331492
1, 58060, Tempo, 337079
1, 58080, Tempo, 335196
1, 58560, Tempo, 330579
1, 59020, Tempo, 337079
1, 59040, Tempo, 334262
1, 59520, Tempo, 365854
1, 60220, Tempo, 356083
1, 60240, Tempo, 352257
1, 60480, Tempo, 363042
1, 60720, Tempo, 359734
1, 60960, Tempo, 361925
1, 61200, Tempo, 356485
1, 61440, Tempo, 360837
1, 61680, Tempo, 353315
1, 61920, Tempo, 356485
1, 62160, Tempo, 347102
1, 62400, Tempo, 356485
1, 62640, Tempo, 351226
1, 62880, Tempo, 362538
1, 63120, Tempo, 350181
1, 63121, Tempo, 353982
1, 64300, Tempo, 352941
1, 64440, Tempo, 353982
1, 64560, Tempo, 355030
1, 64680, Tempo, 356083
1, 64800, Tempo, 357143
1, 64920, Tempo, 358209
1, 65040, Tempo, 359281
1, 65160, Tempo, 360360
1, 65260, Tempo, 360360
1, 65280, Tempo, 360360
1, 65320, Tempo, 361446
1, 65360, Tempo, 362538
1, 65380, Tempo, 363636
1, 65420, Tempo, 364742
1, 65440, Tempo, 365854
1, 65480, Tempo, 366972
1, 65500, Tempo, 368098
1, 65540, Tempo, 369231
1, 65580, Tempo, 370370
1, 65600, Tempo, 371517
1, 65640, Tempo, 372671
1, 65660, Tempo, 373832
1, 65700, Tempo, 375000
1, 65720, Tempo, 376176
1, 65740, Tempo, 398671
1, 65951, Tempo, 476493
1, 66720, Tempo, 510638
1, 67200, Key_signature, 2, "major"
1, 67200, Tempo, 540541
1, 67200, Marker_t, "cantabile"
1, 67920, Tempo, 566038
1, 68160, Tempo, 528634
1, 68880, Tempo, 547945
1, 69120, Tempo, 530973
1, 69360, Tempo, 530973
1, 69840, Tempo, 547945
1, 70080, Tempo, 533333
1, 71040, Tempo, 530973
1, 71760, Tempo, 545455
1, 72000, Tempo, 530973
1, 72720, Tempo, 540541
1, 72960, Tempo, 528634
1, 73200, Tempo, 530973
1, 73560, Tempo, 542986
1, 73680, Tempo, 533333
1, 73920, Tempo, 526316
1, 74880, Tempo, 528634
1, 75360, Tempo, 526316
1, 75600, Tempo, 535714
1, 75840, Tempo, 528634
1, 76560, Tempo, 542986
1, 76800, Tempo, 524017
1, 77040, Tempo, 528634
1, 77520, Tempo, 545455
1, 77760, Tempo, 530973
1, 78720, Tempo, 530973
1, 79200, Tempo, 524017
1, 79440, Tempo, 538117
1, 79680, Tempo, 530973
1, 80400, Tempo, 545455
1, 80640, Tempo, 528634
1, 80880, Tempo, 535714
1, 81120, Tempo, 542986
1, 81360, Tempo, 555556
1, 81480, Tempo, 563380
1, 81600, Tempo, 547945
1, 82560, Tempo, 506329
1, 84480, Tempo, 471809
1, 84600, Tempo, 470219
1, 84720, Tempo, 468713
1, 84840, Tempo, 467181
1, 84960, Tempo, 465658
1, 85080, Tempo, 464181
1, 85200, Tempo, 462642
1, 85320, Tempo, 461148
1, 85440, Tempo, 459700
1, 85560, Tempo, 458225
1, 85680, Tempo, 456795
1, 85800, Tempo, 455339
1, 85920, Tempo, 453892
1, 85960, Tempo, 462642
1, 86400, Tempo, 506800
1, 88320, Tempo, 464181
1, 88480, Tempo, 462642
1, 88640, Tempo, 461148
1, 88800, Tempo, 459700
1, 88960, Tempo, 458225
1, 89120, Tempo, 456795
1, 89280, Tempo, 455339
1, 89440, Tempo, 453892
1, 89600, Tempo, 452455
1, 89740, Tempo, 451060
1, 89760, Tempo, 453892
1, 89800, Tempo, 462642
1, 90240, Tempo, 456795
1, 91200, Tempo, 455339
1, 91320, Tempo, 456795
1, 91420, Tempo, 458225
1, 91520, Tempo, 459700
1, 91620, Tempo, 461148
1, 91720, Tempo, 462642
1, 91820, Tempo, 464181
1, 91920, Tempo, 3500583
1, 92160, Tempo, 545455
1, 92520, Tempo, 542986
1, 92640, Tempo, 550459
1, 92880, Tempo, 563380
1, 93120, Tempo, 535714
1, 93840, Tempo, 547945
1, 94080, Tempo, 530973
1, 94320, Tempo, 533333
1, 94680, Tempo, 547945
1, 94800, Tempo, 542986
1, 95040, Tempo, 535714
1, 96000, Tempo, 535714
1, 96720, Tempo, 547945
1, 96960, Tempo, 535714
1, 97680, Tempo, 545455
1, 97920, Tempo, 530973
1, 98160, Tempo, 533333
1, 98640, Tempo, 545455
1, 98880, Tempo, 533333
1, 99840, Tempo, 533333
1, 100320, Tempo, 528634
1, 100560, Tempo, 538117
1, 100800, Tempo, 528634
1, 101520, Tempo, 542986
1, 101760, Tempo, 528634
1, 102000, Tempo, 535714
1, 102480, Tempo, 545455
1, 102720, Tempo, 533333
1, 103680, Tempo, 533333
1, 104160, Tempo, 528634
1, 104400, Tempo, 538117
1, 104640, Tempo, 530973
1, 105360, Tempo, 542986
1, 105600, Tempo, 530973
1, 105840, Tempo, 540541
1, 106080, Tempo, 547945
1, 106320, Tempo, 552995
1, 106480, Tempo, 527287
1, 106500, Tempo, 615385
1, 106560, Tempo, 540541
1, 107520, Tempo, 470219
1, 108480, Tempo, 435951
1, 109440, Tempo, 470219
1, 110400, Tempo, 435951
1, 111360, Tempo, 470219
1, 112320, Tempo, 435951
1, 113280, Tempo, 470219
1, 114240, Tempo, 435951
1, 115200, Tempo, 377358
1, 116160, Tempo, 376176
1, 116480, Tempo, 375000
1, 116800, Tempo, 373832
1, 117120, Tempo, 372671
1, 117440, Tempo, 371517
1, 117760, Tempo, 370370
1, 118080, Key_signature, -1, "major"
1, 118080, Tempo, 369231
1, 118240, Tempo, 368098
1, 118400, Tempo, 366972
1, 118560, Tempo, 365854
1, 118720, Tempo, 364742
1, 118880, Tempo, 363636
1, 119040, Tempo, 362538
1, 119740, Tempo, 356083
1, 120000, Tempo, 368098
1, 120240, Tempo, 361446
1, 120480, Tempo, 366972
1, 120720, Tempo, 360360
1, 120960, Tempo, 364742
1, 121200, Tempo, 357143
1, 121440, Tempo, 360360
1, 121680, Tempo, 350877
1, 121920, Tempo, 360360
1, 122160, Tempo, 355030
1, 122400, Tempo, 360360
1, 122640, Tempo, 353982
1, 122880, Tempo, 358209
1, 123360, Tempo, 363636
1, 123600, Tempo, 355030
1, 123840, Tempo, 363636
1, 124080, Tempo, 359281
1, 124320, Tempo, 363636
1, 124560, Tempo, 355030
1, 124800, Tempo, 361446
1, 125040, Tempo, 352941
1, 125280, Tempo, 356083
1, 125520, Tempo, 349854
1, 125760, Tempo, 360360
1, 126000, Tempo, 350877
1, 126240, Tempo, 355030
1, 126480, Tempo, 350877
1, 126720, Tempo, 358209
1, 126960, Tempo, 344828
1, 127440, Tempo, 338983
1, 127680, Tempo, 346821
1, 127920, Tempo, 357143
1, 128160, Tempo, 346821
1, 128400, Tempo, 357143
1, 128640, Tempo, 346821
1, 128880, Tempo, 357143
1, 129120, Tempo, 346821
1, 129360, Tempo, 357143
1, 129600, Tempo, 346821
1, 129840, Tempo, 357143
1, 130080, Tempo, 346821
1, 130320, Tempo, 356083
1, 130800, Tempo, 340909
1, 131520, Tempo, 346821
1, 131760, Tempo, 356083
1, 132000, Tempo, 346821
1, 132240, Tempo, 356083
1, 132480, Tempo, 356083
1, 132720, Tempo, 341880
1, 133440, Tempo, 346821
1, 133680, Tempo, 356083
1, 133920, Tempo, 346821
1, 134160, Tempo, 356083
1, 134400, Tempo, 346821
1, 134880, Tempo, 338983
1, 135360, Tempo, 341880
1, 135840, Tempo, 337079
1, 136320, Tempo, 331492
1, 136780, Tempo, 337079
1, 136800, Tempo, 335196
1, 137280, Tempo, 330579
1, 137740, Tempo, 337079
1, 137760, Tempo, 334262
1, 138240, Tempo, 348837
1, 138480, Tempo, 341880
1, 138720, Tempo, 348837
1, 138960, Tempo, 342857
1, 139200, Tempo, 348837
1, 139440, Tempo, 342857
1, 139680, Tempo, 348837
1, 139920, Tempo, 342857
1, 140160, Tempo, 348837
1, 140400, Tempo, 342857
1, 140640, Tempo, 348837
1, 140880, Tempo, 342857
1, 141120, Tempo, 348837
1, 141360, Tempo, 342857
1, 141600, Tempo, 348837
1, 141840, Tempo, 342857
1, 142080, Tempo, 348837
1, 142320, Tempo, 342857
1, 142560, Tempo, 348837
1, 142800, Tempo, 342857
1, 143040, Tempo, 348837
1, 143280, Tempo, 342857
1, 143520, Tempo, 348837
1, 143760, Tempo, 342857
1, 144000, Tempo, 348837
1, 144240, Tempo, 342857
1, 144480, Tempo, 348837
1, 144720, Tempo, 342857
1, 144960, Tempo, 348837
1, 145200, Tempo, 342857
1, 145440, Tempo, 348837
1, 145680, Tempo, 342857
1, 145920, Tempo, 349854
1, 147580, Tempo, 348311
1, 147820, Tempo, 345762
1, 147840, Tempo, 356337
1, 148080, Tempo, 353107
1, 148320, Tempo, 355240
1, 148560, Tempo, 349915
1, 148800, Tempo, 354170
1, 149040, Tempo, 346781
1, 149280, Tempo, 349915
1, 149520, Tempo, 340716
1, 149760, Tempo, 349915
1, 150000, Tempo, 344729
1, 150240, Tempo, 349915
1, 150480, Tempo, 343721
1, 150720, Tempo, 347846
1, 151200, Tempo, 353107
1, 151440, Tempo, 344729
1, 151680, Tempo, 350877
1, 151920, Tempo, 344828
1, 152160, Tempo, 350877
1, 152400, Tempo, 344729
1, 152640, Tempo, 350980
1, 152880, Tempo, 342720
1, 153120, Tempo, 345762
1, 153360, Tempo, 339732
1, 153600, Tempo, 349915
1, 153840, Tempo, 340716
1, 154080, Tempo, 344729
1, 154320, Tempo, 340716
1, 154560, Tempo, 347846
1, 154800, Tempo, 334840
1, 155280, Tempo, 329146
1, 155520, Tempo, 336757
1, 155760, Tempo, 346781
1, 156000, Tempo, 336757
1, 156240, Tempo, 346781
1, 156480, Tempo, 336757
1, 156720, Tempo, 346781
1, 156960, Tempo, 336757
1, 157200, Tempo, 346781
1, 157440, Tempo, 336757
1, 157680, Tempo, 346781
1, 157920, Tempo, 336757
1, 158160, Tempo, 345821
1, 158400, Tempo, 342857
1, 158640, Tempo, 338983
1, 159360, Tempo, 336757
1, 159600, Tempo, 346781
1, 159840, Tempo, 336757
1, 160080, Tempo, 346781
1, 160320, Tempo, 336757
1, 160560, Tempo, 346781
1, 160800, Tempo, 336757
1, 161040, Tempo, 346781
1, 161280, Tempo, 336757
1, 161520, Tempo, 346781
1, 161760, Tempo, 336757
1, 162000, Tempo, 345821
1, 162240, Tempo, 342857
1, 162480, Tempo, 338983
1, 163180, Tempo, 348129
1, 163200, Tempo, 338983
1, 163440, Tempo, 345821
1, 163680, Tempo, 338983
1, 163920, Tempo, 346821
1, 164160, Tempo, 338983
1, 164400, Tempo, 345821
1, 164640, Tempo, 338983
1, 164660, Tempo, 337079
1, 164880, Tempo, 345821
1, 165120, Tempo, 338983
1, 165360, Tempo, 345821
1, 165600, Tempo, 338983
1, 165840, Tempo, 345821
1, 166080, Tempo, 342857
1, 166320, Tempo, 338028
1, 167040, Tempo, 338983
1, 167280, Tempo, 346821
1, 167520, Tempo, 339943
1, 167760, Tempo, 346821
1, 168000, Tempo, 339943
1, 168240, Tempo, 346821
1, 168480, Tempo, 339943
1, 168720, Tempo, 346821
1, 168960, Tempo, 339943
1, 169200, Tempo, 346821
1, 169440, Tempo, 339943
1, 169680, Tempo, 346821
1, 169920, Tempo, 348594
1, 169941, Tempo, 343840
1, 170160, Tempo, 338983
1, 170361, Tempo, 338983
1, 170880, Tempo, 339943
1, 171120, Tempo, 348837
1, 171360, Tempo, 340909
1, 171600, Tempo, 348837
1, 172080, Tempo, 341880
1, 172800, Tempo, 342857
1, 173040, Tempo, 348837
1, 173280, Tempo, 342857
1, 173520, Tempo, 348837
1, 173760, Tempo, 346821
1, 174240, Tempo, 338983
1, 174720, Tempo, 341880
1, 175200, Tempo, 337079
1, 175680, Tempo, 331492
1, 176140, Tempo, 337079
1, 176160, Tempo, 335196
1, 176640, Tempo, 330579
1, 177100, Tempo, 337079
1, 177120, Tempo, 334262
1, 177600, Tempo, 365854
1, 178300, Tempo, 356083
1, 178320, Tempo, 352257
1, 178560, Tempo, 363042
1, 178800, Tempo, 359734
1, 179040, Tempo, 361925
1, 179280, Tempo, 356485
1, 179520, Tempo, 360837
1, 179760, Tempo, 353315
1, 180000, Tempo, 356485
1, 180240, Tempo, 347102
1, 180480, Tempo, 356485
1, 180720, Tempo, 351226
1, 180960, Tempo, 362538
1, 181200, Tempo, 350181
1, 181201, Tempo, 353982
1, 182380, Tempo, 352941
1, 182520, Tempo, 353982
1, 182640, Tempo, 355030
1, 182760, Tempo, 356083
1, 182880, Tempo, 357143
1, 183000, Tempo, 358209
1, 183120, Tempo, 359281
1, 183240, Tempo, 360360
1, 183340, Tempo, 360360
1, 183360, Tempo, 360360
1, 183400, Tempo, 361446
1, 183440, Tempo, 362538
1, 183460, Tempo, 363636
1, 183500, Tempo, 364742
1, 183520, Tempo, 365854
1, 183560, Tempo, 366972
1, 183580, Tempo, 368098
1, 183620, Tempo, 369231
1, 183660, Tempo, 370370
1, 183680, Tempo, 371517
1, 183720, Tempo, 372671
1, 183740, Tempo, 373832
1, 183780, Tempo, 375000
1, 183800, Tempo, 376176
1, 183820, Tempo, 398671
1, 183840, Tempo, 421053
1, 184800, Tempo, 413793
1, 185280, Tempo, 398671
1, 185520, Marker_t, "Fine"
1, 185520, End_track
2, 0, Start_track
2, 0, Title_t, "Piano right"
2, 0, Program_c, 0, 0
2, 0, Control_c, 0, 7, 100
2, 0, Control_c, 0, 91, 127
2, 1680, Note_on_c, 0, 62, 36
2, 1740, Note_on_c, 0, 62, 0
2, 1740, Note_on_c, 0, 64, 36
2, 1800, Note_on_c, 0, 64, 0
2, 1800, Note_on_c, 0, 65, 36
2, 1860, Note_on_c, 0, 65, 0
2, 1860, Note_on_c, 0, 67, 36
2, 1920, Note_on_c, 0, 67, 0
2, 1920, Note_on_c, 0, 69, 38
2, 2040, Note_on_c, 0, 69, 0
2, 2160, Note_on_c, 0, 74, 34
2, 2160, Note_on_c, 0, 62, 34
2, 2160, Note_on_c, 0, 65, 34
2, 2280, Note_on_c, 0, 65, 0
2, 2280, Note_on_c, 0, 62, 0
2, 2280, Note_on_c, 0, 74, 0
2, 2400, Note_on_c, 0, 62, 34
2, 2400, Note_on_c, 0, 74, 34
2, 2400, Note_on_c, 0, 65, 34
2, 2520, Note_on_c, 0, 65, 0
2, 2520, Note_on_c, 0, 74, 0
2, 2520, Note_on_c, 0, 62, 0
2, 2640, Note_on_c, 0, 73, 34
2, 2640, Note_on_c, 0, 62, 34
2, 2640, Note_on_c, 0, 65, 34
2, 2760, Note_on_c, 0, 65, 0
2, 2760, Note_on_c, 0, 62, 0
2, 2760, Note_on_c, 0, 73, 0
2, 2880, Note_on_c, 0, 73, 36
2, 2880, Note_on_c, 0, 62, 36
2, 2880, Note_on_c, 0, 65, 36
2, 3000, Note_on_c, 0, 65, 0
2, 3000, Note_on_c, 0, 62, 0
2, 3000, Note_on_c, 0, 73, 0
2, 3120, Note_on_c, 0, 65, 34
2, 3120, Note_on_c, 0, 62, 34
2, 3120, Note_on_c, 0, 72, 34
2, 3240, Note_on_c, 0, 72, 0
2, 3240, Note_on_c, 0, 62, 0
2, 3240, Note_on_c, 0, 65, 0
2, 3360, Note_on_c, 0, 72, 34
2, 3360, Note_on_c, 0, 62, 34
2, 3360, Note_on_c, 0, 65, 34
2, 3480, Note_on_c, 0, 65, 0
2, 3480, Note_on_c, 0, 62, 0
2, 3480, Note_on_c, 0, 72, 0
2, 3600, Note_on_c, 0, 62, 34
2, 3600, Note_on_c, 0, 71, 34
2, 3600, Note_on_c, 0, 65, 34
2, 3720, Note_on_c, 0, 65, 0
2, 3720, Note_on_c, 0, 71, 0
2, 3720, Note_on_c, 0, 62, 0
2, 3840, Note_on_c, 0, 71, 36
2, 3840, Note_on_c, 0, 62, 36
2, 3840, Note_on_c, 0, 65, 36
2, 3960, Note_on_c, 0, 65, 0
2, 3960, Note_on_c, 0, 62, 0
2, 3960, Note_on_c, 0, 71, 0
2, 4080, Note_on_c, 0, 70, 33
2, 4080, Note_on_c, 0, 62, 33
2, 4080, Note_on_c, 0, 65, 33
2, 4200, Note_on_c, 0, 65, 0
2, 4200, Note_on_c, 0, 62, 0
2, 4200, Note_on_c, 0, 70, 0
2, 4320, Note_on_c, 0, 65, 33
2, 4320, Note_on_c, 0, 62, 33
2, 4320, Note_on_c, 0, 70, 33
2, 4440, Note_on_c, 0, 70, 0
2, 4440, Note_on_c, 0, 62, 0
2, 4440, Note_on_c, 0, 65, 0
2, 4560, Note_on_c, 0, 69, 32
2, 4560, Note_on_c, 0, 62, 32
2, 4560, Note_on_c, 0, 65, 32
2, 4680, Note_on_c, 0, 65, 0
2, 4680, Note_on_c, 0, 62, 0
2, 4680, Note_on_c, 0, 69, 0
2, 4800, Note_on_c, 0, 59, 43
2, 4800, Note_on_c, 0, 68, 43
2, 4800, Note_on_c, 0, 64, 43
2, 4920, Note_on_c, 0, 64, 0
2, 4920, Note_on_c, 0, 68, 0
2, 4920, Note_on_c, 0, 59, 0
2, 5040, Note_on_c, 0, 64, 43
2, 5040, Note_on_c, 0, 68, 43
2, 5040, Note_on_c, 0, 59, 43
2, 5520, Note_on_c, 0, 59, 0
2, 5520, Note_on_c, 0, 68, 0
2, 5520, Note_on_c, 0, 64, 0
2, 5520, Note_on_c, 0, 67, 36
2, 5580, Note_on_c, 0, 67, 0
2, 5580, Note_on_c, 0, 69, 36
2, 5640, Note_on_c, 0, 69, 0
2, 5640, Note_on_c, 0, 70, 36
2, 5700, Note_on_c, 0, 70, 0
2, 5700, Note_on_c, 0, 72, 36
2, 5760, Note_on_c, 0, 72, 0
2, 5760, Note_on_c, 0, 74, 38
2, 5880, Note_on_c, 0, 74, 0
2, 6000, Note_on_c, 0, 67, 34
2, 6000, Note_on_c, 0, 70, 34
2, 6000, Note_on_c, 0, 79, 34
2, 6120, Note_on_c, 0, 79, 0
2, 6120, Note_on_c, 0, 70, 0
2, 6120, Note_on_c, 0, 67, 0
2, 6240, Note_on_c, 0, 70, 34
2, 6240, Note_on_c, 0, 79, 34
2, 6240, Note_on_c, 0, 67, 34
2, 6360, Note_on_c, 0, 67, 0
2, 6360, Note_on_c, 0, 79, 0
2, 6360, Note_on_c, 0, 70, 0
2, 6480, Note_on_c, 0, 78, 34
2, 6480, Note_on_c, 0, 67, 34
2, 6480, Note_on_c, 0, 70, 34
2, 6600, Note_on_c, 0, 70, 0
2, 6600, Note_on_c, 0, 67, 0
2, 6600, Note_on_c, 0, 78, 0
2, 6720, Note_on_c, 0, 70, 36
2, 6720, Note_on_c, 0, 78, 36
2, 6720, Note_on_c, 0, 67, 36
2, 6840, Note_on_c, 0, 67, 0
2, 6840, Note_on_c, 0, 78, 0
2, 6840, Note_on_c, 0, 70, 0
2, 6960, Note_on_c, 0, 77, 34
2, 6960, Note_on_c, 0, 70, 34
2, 6960, Note_on_c, 0, 67, 34
2, 7080, Note_on_c, 0, 67, 0
2, 7080, Note_on_c, 0, 70, 0
2, 7080, Note_on_c, 0, 77, 0
2, 7200, Note_on_c, 0, 70, 34
2, 7200, Note_on_c, 0, 77, 34
2, 7200, Note_on_c, 0, 67, 34
2, 7320, Note_on_c, 0, 67, 0
2, 7320, Note_on_c, 0, 77, 0
2, 7320, Note_on_c, 0, 70, 0
2, 7440, Note_on_c, 0, 70, 34
2, 7440, Note_on_c, 0, 67, 34
2, 7440, Note_on_c, 0, 76, 34
2, 7560, Note_on_c, 0, 76, 0
2, 7560, Note_on_c, 0, 67, 0
2, 7560, Note_on_c, 0, 70, 0
2, 7680, Note_on_c, 0, 76, 36
2, 7680, Note_on_c, 0, 70, 36
2, 7680, Note_on_c, 0, 67, 36
2, 7800, Note_on_c, 0, 67, 0
2, 7800, Note_on_c, 0, 70, 0
2, 7800, Note_on_c, 0, 76, 0
2, 7920, Note_on_c, 0, 75, 32
2, 7920, Note_on_c, 0, 67, 32
2, 7920, Note_on_c, 0, 70, 32
2, 8040, Note_on_c, 0, 70, 0
2, 8040, Note_on_c, 0, 67, 0
2, 8040, Note_on_c, 0, 75, 0
2, 8160, Note_on_c, 0, 75, 32
2, 8160, Note_on_c, 0, 67, 32
2, 8160, Note_on_c, 0, 70, 32
2, 8280, Note_on_c, 0, 70, 0
2, 8280, Note_on_c, 0, 67, 0
2, 8280, Note_on_c, 0, 75, 0
2, 8400, Note_on_c, 0, 74, 32
2, 8400, Note_on_c, 0, 67, 32
2, 8400, Note_on_c, 0, 70, 32
2, 8520, Note_on_c, 0, 70, 0
2, 8520, Note_on_c, 0, 67, 0
2, 8520, Note_on_c, 0, 74, 0
2, 8640, Note_on_c, 0, 64, 44
2, 8640, Note_on_c, 0, 73, 44
2, 8640, Note_on_c, 0, 69, 44
2, 8760, Note_on_c, 0, 69, 0
2, 8760, Note_on_c, 0, 73, 0
2, 8760, Note_on_c, 0, 64, 0
2, 8880, Note_on_c, 0, 64, 44
2, 8880, Note_on_c, 0, 73, 44
2, 8880, Note_on_c, 0, 69, 44
2, 9360, Note_on_c, 0, 69, 0
2, 9360, Note_on_c, 0, 73, 0
2, 9360, Note_on_c, 0, 64, 0
2, 9600, Note_on_c, 0, 74, 46
2, 9660, Note_on_c, 0, 74, 0
2, 9660, Note_on_c, 0, 76, 35
2, 9720, Note_on_c, 0, 76, 0
2, 9720, Note_on_c, 0, 77, 35
2, 9780, Note_on_c, 0, 77, 0
2, 9780, Note_on_c, 0, 79, 35
2, 9840, Note_on_c, 0, 79, 0
2, 9840, Note_on_c, 0, 81, 40
2, 9960, Note_on_c, 0, 81, 0
2, 10080, Note_on_c, 0, 79, 46
2, 10140, Note_on_c, 0, 79, 0
2, 10140, Note_on_c, 0, 77, 36
2, 10200, Note_on_c, 0, 77, 0
2, 10200, Note_on_c, 0, 76, 36
2, 10260, Note_on_c, 0, 76, 0
2, 10260, Note_on_c, 0, 74, 36
2, 10320, Note_on_c, 0, 74, 0
2, 10320, Note_on_c, 0, 72, 40
2, 10440, Note_on_c, 0, 72, 0
2, 10560, Note_on_c, 0, 70, 45
2, 10620, Note_on_c, 0, 70, 0
2, 10620, Note_on_c, 0, 72, 36
2, 10680, Note_on_c, 0, 72, 0
2, 10680, Note_on_c, 0, 74, 36
2, 10740, Note_on_c, 0, 74, 0
2, 10740, Note_on_c, 0, 76, 36
2, 10800, Note_on_c, 0, 76, 0
2, 10800, Note_on_c, 0, 77, 41
2, 10920, Note_on_c, 0, 77, 0
2, 11040, Note_on_c, 0, 76, 46
2, 11100, Note_on_c, 0, 76, 0
2, 11100, Note_on_c, 0, 74, 37
2, 11160, Note_on_c, 0, 74, 0
2, 11160, Note_on_c, 0, 72, 37
2, 11220, Note_on_c, 0, 72, 0
2, 11220, Note_on_c, 0, 70, 37
2, 11280, Note_on_c, 0, 70, 0
2, 11280, Note_on_c, 0, 69, 43
2, 11400, Note_on_c, 0, 69, 0
2, 11520, Note_on_c, 0, 67, 46
2, 11580, Note_on_c, 0, 67, 0
2, 11580, Note_on_c, 0, 69, 37
2, 11640, Note_on_c, 0, 69, 0
2, 11640, Note_on_c, 0, 70, 37
2, 11700, Note_on_c, 0, 70, 0
2, 11700, Note_on_c, 0, 72, 37
2, 11760, Note_on_c, 0, 72, 0
2, 11760, Note_on_c, 0, 74, 44
2, 11880, Note_on_c, 0, 74, 0
2, 12000, Note_on_c, 0, 72, 47
2, 12060, Note_on_c, 0, 72, 0
2, 12060, Note_on_c, 0, 70, 37
2, 12120, Note_on_c, 0, 70, 0
2, 12120, Note_on_c, 0, 69, 37
2, 12180, Note_on_c, 0, 69, 0
2, 12180, Note_on_c, 0, 67, 37
2, 12240, Note_on_c, 0, 67, 0
2, 12240, Note_on_c, 0, 65, 43
2, 12360, Note_on_c, 0, 65, 0
2, 12720, Note_on_c, 0, 64, 45
2, 12720, Note_on_c, 0, 57, 45
2, 13440, Note_on_c, 0, 57, 0
2, 13440, Note_on_c, 0, 64, 0
2, 13440, Note_on_c, 0, 86, 47
2, 13500, Note_on_c, 0, 86, 0
2, 13500, Note_on_c, 0, 84, 37
2, 13560, Note_on_c, 0, 84, 0
2, 13560, Note_on_c, 0, 82, 37
2, 13620, Note_on_c, 0, 82, 0
2, 13620, Note_on_c, 0, 81, 37
2, 13680, Note_on_c, 0, 81, 0
2, 13680, Note_on_c, 0, 79, 40
2, 13800, Note_on_c, 0, 79, 0
2, 13920, Note_on_c, 0, 74, 48
2, 13980, Note_on_c, 0, 74, 0
2, 13980, Note_on_c, 0, 72, 37
2, 14040, Note_on_c, 0, 72, 0
2, 14040, Note_on_c, 0, 70, 37
2, 14100, Note_on_c, 0, 70, 0
2, 14100, Note_on_c, 0, 69, 37
2, 14160, Note_on_c, 0, 69, 0
2, 14160, Note_on_c, 0, 67, 40
2, 14280, Note_on_c, 0, 67, 0
2, 14640, Note_on_c, 0, 64, 45
2, 14640, Note_on_c, 0, 57, 45
2, 15360, Note_on_c, 0, 57, 0
2, 15360, Note_on_c, 0, 64, 0
2, 15360, Note_on_c, 0, 86, 47
2, 15420, Note_on_c, 0, 86, 0
2, 15420, Note_on_c, 0, 84, 37
2, 15480, Note_on_c, 0, 84, 0
2, 15480, Note_on_c, 0, 82, 37
2, 15540, Note_on_c, 0, 82, 0
2, 15540, Note_on_c, 0, 81, 37
2, 15600, Note_on_c, 0, 81, 0
2, 15600, Note_on_c, 0, 79, 40
2, 15720, Note_on_c, 0, 79, 0
2, 15840, Note_on_c, 0, 74, 48
2, 15900, Note_on_c, 0, 74, 0
2, 15900, Note_on_c, 0, 72, 37
2, 15960, Note_on_c, 0, 72, 0
2, 15960, Note_on_c, 0, 70, 37
2, 16020, Note_on_c, 0, 70, 0
2, 16020, Note_on_c, 0, 69, 37
2, 16080, Note_on_c, 0, 69, 0
2, 16080, Note_on_c, 0, 67, 40
2, 16200, Note_on_c, 0, 67, 0
2, 16560, Note_on_c, 0, 57, 45
2, 16560, Note_on_c, 0, 64, 45
2, 16800, Note_on_c, 0, 64, 0
2, 16800, Note_on_c, 0, 57, 0
2, 16800, Note_on_c, 0, 74, 40
2, 16860, Note_on_c, 0, 74, 0
2, 16860, Note_on_c, 0, 72, 36
2, 16920, Note_on_c, 0, 72, 0
2, 16920, Note_on_c, 0, 70, 36
2, 16980, Note_on_c, 0, 70, 0
2, 16980, Note_on_c, 0, 69, 36
2, 17040, Note_on_c, 0, 69, 0
2, 17040, Note_on_c, 0, 67, 40
2, 17160, Note_on_c, 0, 67, 0
2, 17520, Note_on_c, 0, 64, 38
2, 17520, Note_on_c, 0, 57, 38
2, 17760, Note_on_c, 0, 57, 0
2, 17760, Note_on_c, 0, 64, 0
2, 17760, Note_on_c, 0, 74, 34
2, 17820, Note_on_c, 0, 74, 0
2, 17820, Note_on_c, 0, 72, 34
2, 17880, Note_on_c, 0, 72, 0
2, 17880, Note_on_c, 0, 70, 34
2, 17940, Note_on_c, 0, 70, 0
2, 17940, Note_on_c, 0, 69, 34
2, 18000, Note_on_c, 0, 69, 0
2, 18000, Note_on_c, 0, 67, 32
2, 18120, Note_on_c, 0, 67, 0
2, 18480, Note_on_c, 0, 64, 37
2, 18480, Note_on_c, 0, 57, 37
2, 18720, Note_on_c, 0, 57, 0
2, 18720, Note_on_c, 0, 64, 0
2, 18720, Note_on_c, 0, 74, 32
2, 18780, Note_on_c, 0, 74, 0
2, 18780, Note_on_c, 0, 72, 32
2, 18840, Note_on_c, 0, 72, 0
2, 18840, Note_on_c, 0, 70, 32
2, 18900, Note_on_c, 0, 70, 0
2, 18900, Note_on_c, 0, 69, 32
2, 18960, Note_on_c, 0, 69, 0
2, 18960, Note_on_c, 0, 67, 29
2, 19080, Note_on_c, 0, 67, 0
2, 19440, Note_on_c, 0, 64, 35
2, 19440, Note_on_c, 0, 57, 35
2, 19680, Note_on_c, 0, 57, 0
2, 19680, Note_on_c, 0, 64, 0
2, 19680, Note_on_c, 0, 74, 32
2, 19740, Note_on_c, 0, 74, 0
2, 19740, Note_on_c, 0, 72, 32
2, 19800, Note_on_c, 0, 72, 0
2, 19800, Note_on_c, 0, 70, 32
2, 19860, Note_on_c, 0, 70, 0
2, 19860, Note_on_c, 0, 69, 32
2, 19920, Note_on_c, 0, 69, 0
2, 19920, Note_on_c, 0, 67, 29
2, 20040, Note_on_c, 0, 67, 0
2, 20400, Note_on_c, 0, 57, 37
2, 20400, Note_on_c, 0, 64, 37
2, 20400, Note_on_c, 0, 61, 37
2, 20520, Note_on_c, 0, 61, 0
2, 20520, Note_on_c, 0, 64, 0
2, 20520, Note_on_c, 0, 57, 0
2, 20880, Note_on_c, 0, 64, 37
2, 20880, Note_on_c, 0, 58, 37
2, 20880, Note_on_c, 0, 61, 37
2, 21000, Note_on_c, 0, 61, 0
2, 21000, Note_on_c, 0, 58, 0
2, 21000, Note_on_c, 0, 64, 0
2, 21360, Note_on_c, 0, 64, 34
2, 21360, Note_on_c, 0, 56, 34
2, 21360, Note_on_c, 0, 61, 34
2, 21480, Note_on_c, 0, 61, 0
2, 21480, Note_on_c, 0, 56, 0
2, 21480, Note_on_c, 0, 64, 0
2, 21840, Note_on_c, 0, 61, 35
2, 21840, Note_on_c, 0, 57, 35
2, 21840, Note_on_c, 0, 64, 35
2, 21960, Note_on_c, 0, 64, 0
2, 21960, Note_on_c, 0, 57, 0
2, 21960, Note_on_c, 0, 61, 0
2, 22320, Note_on_c, 0, 64, 36
2, 22320, Note_on_c, 0, 58, 36
2, 22320, Note_on_c, 0, 61, 36
2, 22440, Note_on_c, 0, 61, 0
2, 22440, Note_on_c, 0, 58, 0
2, 22440, Note_on_c, 0, 64, 0
2, 22800, Note_on_c, 0, 59, 40
2, 22800, Note_on_c, 0, 64, 40
2, 22800, Note_on_c, 0, 61, 40
2, 22920, Note_on_c, 0, 61, 0
2, 22920, Note_on_c, 0, 64, 0
2, 22920, Note_on_c, 0, 59, 0
2, 23280, Note_on_c, 0, 64, 41
2, 23280, Note_on_c, 0, 60, 41
2, 23280, Note_on_c, 0, 61, 41
2, 23400, Note_on_c, 0, 61, 0
2, 23400, Note_on_c, 0, 60, 0
2, 23400, Note_on_c, 0, 64, 0
2, 23760, Note_on_c, 0, 64, 43
2, 23760, Note_on_c, 0, 59, 43
2, 23760, Note_on_c, 0, 61, 43
2, 23880, Note_on_c, 0, 61, 0
2, 23880, Note_on_c, 0, 59, 0
2, 23880, Note_on_c, 0, 64, 0
2, 24240, Note_on_c, 0, 61, 45
2, 24240, Note_on_c, 0, 58, 45
2, 24240, Note_on_c, 0, 64, 45
2, 24360, Note_on_c, 0, 64, 0
2, 24360, Note_on_c, 0, 58, 0
2, 24360, Note_on_c, 0, 61, 0
2, 24720, Note_on_c, 0, 64, 48
2, 24720, Note_on_c, 0, 57, 48
2, 24720, Note_on_c, 0, 61, 48
2, 24840, Note_on_c, 0, 61, 0
2, 24840, Note_on_c, 0, 57, 0
2, 24840, Note_on_c, 0, 64, 0
2, 25200, Note_on_c, 0, 56, 49
2, 25200, Note_on_c, 0, 64, 49
2, 25200, Note_on_c, 0, 61, 49
2, 25320, Note_on_c, 0, 61, 0
2, 25320, Note_on_c, 0, 64, 0
2, 25320, Note_on_c, 0, 56, 0
2, 25680, Note_on_c, 0, 61, 51
2, 25680, Note_on_c, 0, 55, 51
2, 25680, Note_on_c, 0, 58, 51
2, 25800, Note_on_c, 0, 58, 0
2, 25800, Note_on_c, 0, 55, 0
2, 25800, Note_on_c, 0, 61, 0
2, 26160, Note_on_c, 0, 61, 53
2, 26160, Note_on_c, 0, 58, 53
2, 26160, Note_on_c, 0, 54, 53
2, 26280, Note_on_c, 0, 54, 0
2, 26280, Note_on_c, 0, 58, 0
2, 26280, Note_on_c, 0, 61, 0
2, 26640, Note_on_c, 0, 61, 55
2, 26640, Note_on_c, 0, 58, 55
2, 26640, Note_on_c, 0, 53, 55
2, 26760, Note_on_c, 0, 53, 0
2, 26760, Note_on_c, 0, 58, 0
2, 26760, Note_on_c, 0, 61, 0
2, 27120, Note_on_c, 0, 61, 58
2, 27120, Note_on_c, 0, 52, 58
2, 27120, Note_on_c, 0, 57, 58
2, 27240, Note_on_c, 0, 57, 0
2, 27240, Note_on_c, 0, 52, 0
2, 27240, Note_on_c, 0, 61, 0
2, 27600, Note_on_c, 0, 55, 59
2, 27600, Note_on_c, 0, 61, 59
2, 27600, Note_on_c, 0, 51, 59
2, 27600, Note_on_c, 0, 57, 59
2, 27720, Note_on_c, 0, 57, 0
2, 27720, Note_on_c, 0, 55, 0
2, 27720, Note_on_c, 0, 61, 0
2, 27720, Note_on_c, 0, 51, 0
2, 29520, Note_on_c, 0, 74, 86
2, 29580, Note_on_c, 0, 74, 0
2, 29580, Note_on_c, 0, 76, 86
2, 29640, Note_on_c, 0, 76, 0
2, 29640, Note_on_c, 0, 77, 86
2, 29700, Note_on_c, 0, 77, 0
2, 29700, Note_on_c, 0, 79, 86
2, 29760, Note_on_c, 0, 79, 0
2, 29760, Note_on_c, 0, 81, 90
2, 29880, Note_on_c, 0, 81, 0
2, 30000, Note_on_c, 0, 86, 81
2, 30000, Note_on_c, 0, 74, 68
2, 30000, Note_on_c, 0, 77, 68
2, 30120, Note_on_c, 0, 77, 0
2, 30120, Note_on_c, 0, 74, 0
2, 30120, Note_on_c, 0, 86, 0
2, 30240, Note_on_c, 0, 86, 81
2, 30240, Note_on_c, 0, 74, 68
2, 30240, Note_on_c, 0, 77, 68
2, 30360, Note_on_c, 0, 77, 0
2, 30360, Note_on_c, 0, 74, 0
2, 30360, Note_on_c, 0, 86, 0
2, 30480, Note_on_c, 0, 77, 68
2, 30480, Note_on_c, 0, 74, 68
2, 30480, Note_on_c, 0, 85, 81
2, 30600, Note_on_c, 0, 85, 0
2, 30600, Note_on_c, 0, 74, 0
2, 30600, Note_on_c, 0, 77, 0
2, 30720, Note_on_c, 0, 85, 86
2, 30720, Note_on_c, 0, 74, 73
2, 30720, Note_on_c, 0, 77, 73
2, 30840, Note_on_c, 0, 77, 0
2, 30840, Note_on_c, 0, 74, 0
2, 30840, Note_on_c, 0, 85, 0
2, 30960, Note_on_c, 0, 74, 68
2, 30960, Note_on_c, 0, 84, 81
2, 30960, Note_on_c, 0, 77, 68
2, 31080, Note_on_c, 0, 77, 0
2, 31080, Note_on_c, 0, 84, 0
2, 31080, Note_on_c, 0, 74, 0
2, 31200, Note_on_c, 0, 84, 81
2, 31200, Note_on_c, 0, 74, 68
2, 31200, Note_on_c, 0, 77, 68
2, 31320, Note_on_c, 0, 77, 0
2, 31320, Note_on_c, 0, 74, 0
2, 31320, Note_on_c, 0, 84, 0
2, 31440, Note_on_c, 0, 83, 81
2, 31440, Note_on_c, 0, 74, 68
2, 31440, Note_on_c, 0, 77, 68
2, 31560, Note_on_c, 0, 77, 0
2, 31560, Note_on_c, 0, 74, 0
2, 31560, Note_on_c, 0, 83, 0
2, 31680, Note_on_c, 0, 77, 73
2, 31680, Note_on_c, 0, 74, 73
2, 31680, Note_on_c, 0, 83, 86
2, 31800, Note_on_c, 0, 83, 0
2, 31800, Note_on_c, 0, 74, 0
2, 31800, Note_on_c, 0, 77, 0
2, 31920, Note_on_c, 0, 77, 69
2, 31920, Note_on_c, 0, 74, 69
2, 31920, Note_on_c, 0, 82, 82
2, 32040, Note_on_c, 0, 82, 0
2, 32040, Note_on_c, 0, 74, 0
2, 32040, Note_on_c, 0, 77, 0
2, 32160, Note_on_c, 0, 82, 82
2, 32160, Note_on_c, 0, 77, 69
2, 32160, Note_on_c, 0, 74, 69
2, 32280, Note_on_c, 0, 74, 0
2, 32280, Note_on_c, 0, 77, 0
2, 32280, Note_on_c, 0, 82, 0
2, 32400, Note_on_c, 0, 81, 82
2, 32400, Note_on_c, 0, 74, 69
2, 32400, Note_on_c, 0, 77, 82
2, 32520, Note_on_c, 0, 77, 0
2, 32520, Note_on_c, 0, 74, 0
2, 32520, Note_on_c, 0, 81, 0
2, 32640, Note_on_c, 0, 76, 79
2, 32640, Note_on_c, 0, 71, 79
2, 32640, Note_on_c, 0, 80, 93
2, 32760, Note_on_c, 0, 80, 0
2, 32760, Note_on_c, 0, 71, 0
2, 32760, Note_on_c, 0, 76, 0
2, 32880, Note_on_c, 0, 80, 97
2, 32880, Note_on_c, 0, 71, 82
2, 32880, Note_on_c, 0, 76, 82
2, 33360, Note_on_c, 0, 76, 0
2, 33360, Note_on_c, 0, 71, 0
2, 33360, Note_on_c, 0, 80, 0
2, 33360, Note_on_c, 0, 79, 86
2, 33420, Note_on_c, 0, 79, 0
2, 33420, Note_on_c, 0, 81, 86
2, 33480, Note_on_c, 0, 81, 0
2, 33480, Note_on_c, 0, 82, 86
2, 33540, Note_on_c, 0, 82, 0
2, 33540, Note_on_c, 0, 84, 86
2, 33600, Note_on_c, 0, 84, 0
2, 33600, Note_on_c, 0, 86, 90
2, 33720, Note_on_c, 0, 86, 0
2, 33840, Note_on_c, 0, 79, 68
2, 33840, Note_on_c, 0, 82, 68
2, 33840, Note_on_c, 0, 91, 81
2, 33960, Note_on_c, 0, 91, 0
2, 33960, Note_on_c, 0, 82, 0
2, 33960, Note_on_c, 0, 79, 0
2, 34080, Note_on_c, 0, 82, 68
2, 34080, Note_on_c, 0, 91, 81
2, 34080, Note_on_c, 0, 79, 68
2, 34200, Note_on_c, 0, 79, 0
2, 34200, Note_on_c, 0, 91, 0
2, 34200, Note_on_c, 0, 82, 0
2, 34320, Note_on_c, 0, 90, 81
2, 34320, Note_on_c, 0, 79, 68
2, 34320, Note_on_c, 0, 82, 68
2, 34440, Note_on_c, 0, 82, 0
2, 34440, Note_on_c, 0, 79, 0
2, 34440, Note_on_c, 0, 90, 0
2, 34560, Note_on_c, 0, 82, 73
2, 34560, Note_on_c, 0, 90, 86
2, 34560, Note_on_c, 0, 79, 73
2, 34680, Note_on_c, 0, 79, 0
2, 34680, Note_on_c, 0, 90, 0
2, 34680, Note_on_c, 0, 82, 0
2, 34800, Note_on_c, 0, 89, 81
2, 34800, Note_on_c, 0, 82, 68
2, 34800, Note_on_c, 0, 79, 68
2, 34920, Note_on_c, 0, 79, 0
2, 34920, Note_on_c, 0, 82, 0
2, 34920, Note_on_c, 0, 89, 0
2, 35040, Note_on_c, 0, 82, 68
2, 35040, Note_on_c, 0, 89, 81
2, 35040, Note_on_c, 0, 79, 68
2, 35160, Note_on_c, 0, 79, 0
2, 35160, Note_on_c, 0, 89, 0
2, 35160, Note_on_c, 0, 82, 0
2, 35280, Note_on_c, 0, 82, 68
2, 35280, Note_on_c, 0, 79, 68
2, 35280, Note_on_c, 0, 88, 81
2, 35400, Note_on_c, 0, 88, 0
2, 35400, Note_on_c, 0, 79, 0
2, 35400, Note_on_c, 0, 82, 0
2, 35520, Note_on_c, 0, 88, 86
2, 35520, Note_on_c, 0, 79, 73
2, 35520, Note_on_c, 0, 82, 73
2, 35640, Note_on_c, 0, 82, 0
2, 35640, Note_on_c, 0, 79, 0
2, 35640, Note_on_c, 0, 88, 0
2, 35760, Note_on_c, 0, 82, 69
2, 35760, Note_on_c, 0, 87, 82
2, 35760, Note_on_c, 0, 79, 69
2, 35880, Note_on_c, 0, 79, 0
2, 35880, Note_on_c, 0, 87, 0
2, 35880, Note_on_c, 0, 82, 0
2, 36000, Note_on_c, 0, 87, 82
2, 36000, Note_on_c, 0, 79, 69
2, 36000, Note_on_c, 0, 82, 69
2, 36120, Note_on_c, 0, 82, 0
2, 36120, Note_on_c, 0, 79, 0
2, 36120, Note_on_c, 0, 87, 0
2, 36240, Note_on_c, 0, 82, 69
2, 36240, Note_on_c, 0, 86, 82
2, 36240, Note_on_c, 0, 79, 69
2, 36360, Note_on_c, 0, 79, 0
2, 36360, Note_on_c, 0, 86, 0
2, 36360, Note_on_c, 0, 82, 0
2, 36480, Note_on_c, 0, 81, 79
2, 36480, Note_on_c, 0, 76, 79
2, 36480, Note_on_c, 0, 85, 93
2, 36600, Note_on_c, 0, 85, 0
2, 36600, Note_on_c, 0, 76, 0
2, 36600, Note_on_c, 0, 81, 0
2, 36720, Note_on_c, 0, 85, 97
2, 36720, Note_on_c, 0, 81, 82
2, 36720, Note_on_c, 0, 76, 82
2, 37200, Note_on_c, 0, 76, 0
2, 37200, Note_on_c, 0, 81, 0
2, 37200, Note_on_c, 0, 85, 0
2, 37440, Note_on_c, 0, 86, 106
2, 37500, Note_on_c, 0, 86, 0
2, 37500, Note_on_c, 0, 88, 83
2, 37560, Note_on_c, 0, 88, 0
2, 37560, Note_on_c, 0, 89, 83
2, 37620, Note_on_c, 0, 89, 0
2, 37620, Note_on_c, 0, 91, 83
2, 37680, Note_on_c, 0, 91, 0
2, 37680, Note_on_c, 0, 93, 83
2, 37800, Note_on_c, 0, 93, 0
2, 37920, Note_on_c, 0, 91, 104
2, 37980, Note_on_c, 0, 91, 0
2, 37980, Note_on_c, 0, 89, 84
2, 38040, Note_on_c, 0, 89, 0
2, 38040, Note_on_c, 0, 88, 84
2, 38100, Note_on_c, 0, 88, 0
2, 38100, Note_on_c, 0, 86, 84
2, 38160, Note_on_c, 0, 86, 0
2, 38160, Note_on_c, 0, 84, 85
2, 38280, Note_on_c, 0, 84, 0
2, 38400, Note_on_c, 0, 82, 104
2, 38460, Note_on_c, 0, 82, 0
2, 38460, Note_on_c, 0, 84, 84
2, 38520, Note_on_c, 0, 84, 0
2, 38520, Note_on_c, 0, 86, 84
2, 38580, Note_on_c, 0, 86, 0
2, 38580, Note_on_c, 0, 88, 84
2, 38640, Note_on_c, 0, 88, 0
2, 38640, Note_on_c, 0, 89, 84
2, 38760, Note_on_c, 0, 89, 0
2, 38880, Note_on_c, 0, 88, 104
2, 38940, Note_on_c, 0, 88, 0
2, 38940, Note_on_c, 0, 86, 84
2, 39000, Note_on_c, 0, 86, 0
2, 39000, Note_on_c, 0, 84, 84
2, 39060, Note_on_c, 0, 84, 0
2, 39060, Note_on_c, 0, 82, 84
2, 39120, Note_on_c, 0, 82, 0
2, 39120, Note_on_c, 0, 81, 84
2, 39240, Note_on_c, 0, 81, 0
2, 39360, Note_on_c, 0, 79, 104
2, 39420, Note_on_c, 0, 79, 0
2, 39420, Note_on_c, 0, 81, 86
2, 39480, Note_on_c, 0, 81, 0
2, 39480, Note_on_c, 0, 82, 86
2, 39540, Note_on_c, 0, 82, 0
2, 39540, Note_on_c, 0, 84, 86
2, 39600, Note_on_c, 0, 84, 0
2, 39600, Note_on_c, 0, 86, 86
2, 39720, Note_on_c, 0, 86, 0
2, 39840, Note_on_c, 0, 84, 104
2, 39900, Note_on_c, 0, 84, 0
2, 39900, Note_on_c, 0, 82, 86
2, 39960, Note_on_c, 0, 82, 0
2, 39960, Note_on_c, 0, 81, 85
2, 40020, Note_on_c, 0, 81, 0
2, 40020, Note_on_c, 0, 79, 85
2, 40080, Note_on_c, 0, 79, 0
2, 40080, Note_on_c, 0, 77, 85
2, 40200, Note_on_c, 0, 77, 0
2, 40320, Note_on_c, 0, 76, 94
2, 40320, Note_on_c, 0, 81, 94
2, 40320, Note_on_c, 0, 88, 94
2, 40440, Note_on_c, 0, 88, 0
2, 40440, Note_on_c, 0, 81, 0
2, 40440, Note_on_c, 0, 76, 0
2, 40560, Note_on_c, 0, 76, 94
2, 40560, Note_on_c, 0, 88, 94
2, 40560, Note_on_c, 0, 81, 94
2, 41040, Note_on_c, 0, 81, 0
2, 41040, Note_on_c, 0, 88, 0
2, 41040, Note_on_c, 0, 76, 0
2, 41280, Note_on_c, 0, 82, 92
2, 41340, Note_on_c, 0, 82, 0
2, 41340, Note_on_c, 0, 84, 83
2, 41400, Note_on_c, 0, 84, 0
2, 41400, Note_on_c, 0, 86, 83
2, 41460, Note_on_c, 0, 86, 0
2, 41460, Note_on_c, 0, 88, 83
2, 41520, Note_on_c, 0, 88, 0
2, 41520, Note_on_c, 0, 89, 83
2, 41640, Note_on_c, 0, 89, 0
2, 41760, Note_on_c, 0, 88, 92
2, 41820, Note_on_c, 0, 88, 0
2, 41820, Note_on_c, 0, 86, 84
2, 41880, Note_on_c, 0, 86, 0
2, 41880, Note_on_c, 0, 84, 84
2, 41940, Note_on_c, 0, 84, 0
2, 41940, Note_on_c, 0, 82, 84
2, 42000, Note_on_c, 0, 82, 0
2, 42000, Note_on_c, 0, 81, 85
2, 42120, Note_on_c, 0, 81, 0
2, 42240, Note_on_c, 0, 79, 92
2, 42300, Note_on_c, 0, 79, 0
2, 42300, Note_on_c, 0, 81, 84
2, 42360, Note_on_c, 0, 81, 0
2, 42360, Note_on_c, 0, 82, 84
2, 42420, Note_on_c, 0, 82, 0
2, 42420, Note_on_c, 0, 84, 84
2, 42480, Note_on_c, 0, 84, 0
2, 42480, Note_on_c, 0, 86, 84
2, 42600, Note_on_c, 0, 86, 0
2, 42720, Note_on_c, 0, 84, 92
2, 42780, Note_on_c, 0, 84, 0
2, 42780, Note_on_c, 0, 82, 84
2, 42840, Note_on_c, 0, 82, 0
2, 42840, Note_on_c, 0, 81, 84
2, 42900, Note_on_c, 0, 81, 0
2, 42900, Note_on_c, 0, 79, 84
2, 42960, Note_on_c, 0, 79, 0
2, 42960, Note_on_c, 0, 77, 84
2, 43080, Note_on_c, 0, 77, 0
2, 43200, Note_on_c, 0, 75, 94
2, 43260, Note_on_c, 0, 75, 0
2, 43260, Note_on_c, 0, 77, 83
2, 43320, Note_on_c, 0, 77, 0
2, 43320, Note_on_c, 0, 79, 83
2, 43380, Note_on_c, 0, 79, 0
2, 43380, Note_on_c, 0, 81, 83
2, 43440, Note_on_c, 0, 81, 0
2, 43440, Note_on_c, 0, 82, 83
2, 43560, Note_on_c, 0, 82, 0
2, 43680, Note_on_c, 0, 81, 92
2, 43740, Note_on_c, 0, 81, 0
2, 43740, Note_on_c, 0, 79, 83
2, 43800, Note_on_c, 0, 79, 0
2, 43800, Note_on_c, 0, 77, 83
2, 43860, Note_on_c, 0, 77, 0
2, 43860, Note_on_c, 0, 75, 83
2, 43920, Note_on_c, 0, 75, 0
2, 43920, Note_on_c, 0, 74, 83
2, 44040, Note_on_c, 0, 74, 0
2, 44160, Note_on_c, 0, 69, 86
2, 44160, Note_on_c, 0, 81, 86
2, 44160, Note_on_c, 0, 76, 86
2, 44280, Note_on_c, 0, 76, 0
2, 44280, Note_on_c, 0, 81, 0
2, 44280, Note_on_c, 0, 69, 0
2, 44400, Note_on_c, 0, 76, 86
2, 44400, Note_on_c, 0, 81, 86
2, 44400, Note_on_c, 0, 69, 86
2, 44880, Note_on_c, 0, 69, 0
2, 44880, Note_on_c, 0, 81, 0
2, 44880, Note_on_c, 0, 76, 0
2, 45120, Note_on_c, 0, 74, 75
2, 45180, Note_on_c, 0, 74, 0
2, 45180, Note_on_c, 0, 76, 66
2, 45240, Note_on_c, 0, 76, 0
2, 45240, Note_on_c, 0, 77, 66
2, 45300, Note_on_c, 0, 77, 0
2, 45300, Note_on_c, 0, 79, 66
2, 45360, Note_on_c, 0, 79, 0
2, 45360, Note_on_c, 0, 81, 66
2, 45480, Note_on_c, 0, 81, 0
2, 45600, Note_on_c, 0, 79, 77
2, 45660, Note_on_c, 0, 79, 0
2, 45660, Note_on_c, 0, 77, 65
2, 45720, Note_on_c, 0, 77, 0
2, 45720, Note_on_c, 0, 76, 65
2, 45780, Note_on_c, 0, 76, 0
2, 45780, Note_on_c, 0, 74, 65
2, 45840, Note_on_c, 0, 74, 0
2, 45840, Note_on_c, 0, 72, 65
2, 45960, Note_on_c, 0, 72, 0
2, 46080, Note_on_c, 0, 70, 73
2, 46140, Note_on_c, 0, 70, 0
2, 46140, Note_on_c, 0, 72, 65
2, 46200, Note_on_c, 0, 72, 0
2, 46200, Note_on_c, 0, 74, 64
2, 46260, Note_on_c, 0, 74, 0
2, 46260, Note_on_c, 0, 76, 64
2, 46320, Note_on_c, 0, 76, 0
2, 46320, Note_on_c, 0, 77, 64
2, 46440, Note_on_c, 0, 77, 0
2, 46560, Note_on_c, 0, 76, 72
2, 46620, Note_on_c, 0, 76, 0
2, 46620, Note_on_c, 0, 74, 64
2, 46680, Note_on_c, 0, 74, 0
2, 46680, Note_on_c, 0, 72, 63
2, 46740, Note_on_c, 0, 72, 0
2, 46740, Note_on_c, 0, 70, 63
2, 46800, Note_on_c, 0, 70, 0
2, 46800, Note_on_c, 0, 69, 63
2, 46920, Note_on_c, 0, 69, 0
2, 47040, Note_on_c, 0, 67, 71
2, 47100, Note_on_c, 0, 67, 0
2, 47100, Note_on_c, 0, 69, 63
2, 47160, Note_on_c, 0, 69, 0
2, 47160, Note_on_c, 0, 70, 63
2, 47220, Note_on_c, 0, 70, 0
2, 47220, Note_on_c, 0, 72, 62
2, 47280, Note_on_c, 0, 72, 0
2, 47280, Note_on_c, 0, 74, 62
2, 47400, Note_on_c, 0, 74, 0
2, 47520, Note_on_c, 0, 72, 71
2, 47580, Note_on_c, 0, 72, 0
2, 47580, Note_on_c, 0, 70, 62
2, 47640, Note_on_c, 0, 70, 0
2, 47640, Note_on_c, 0, 69, 62
2, 47700, Note_on_c, 0, 69, 0
2, 47700, Note_on_c, 0, 67, 60
2, 47760, Note_on_c, 0, 67, 0
2, 47760, Note_on_c, 0, 65, 60
2, 47880, Note_on_c, 0, 65, 0
2, 48000, Note_on_c, 0, 64, 60
2, 48000, Note_on_c, 0, 76, 71
2, 48000, Note_on_c, 0, 69, 60
2, 48120, Note_on_c, 0, 69, 0
2, 48120, Note_on_c, 0, 76, 0
2, 48120, Note_on_c, 0, 64, 0
2, 48240, Note_on_c, 0, 69, 61
2, 48240, Note_on_c, 0, 64, 61
2, 48240, Note_on_c, 0, 76, 72
2, 48720, Note_on_c, 0, 76, 0
2, 48720, Note_on_c, 0, 64, 0
2, 48720, Note_on_c, 0, 69, 0
2, 48960, Note_on_c, 0, 70, 58
2, 49020, Note_on_c, 0, 70, 0
2, 49020, Note_on_c, 0, 72, 54
2, 49080, Note_on_c, 0, 72, 0
2, 49080, Note_on_c, 0, 74, 54
2, 49140, Note_on_c, 0, 74, 0
2, 49140, Note_on_c, 0, 76, 54
2, 49200, Note_on_c, 0, 76, 0
2, 49200, Note_on_c, 0, 77, 54
2, 49320, Note_on_c, 0, 77, 0
2, 49440, Note_on_c, 0, 76, 60
2, 49500, Note_on_c, 0, 76, 0
2, 49500, Note_on_c, 0, 74, 54
2, 49560, Note_on_c, 0, 74, 0
2, 49560, Note_on_c, 0, 72, 54
2, 49620, Note_on_c, 0, 72, 0
2, 49620, Note_on_c, 0, 70, 54
2, 49680, Note_on_c, 0, 70, 0
2, 49680, Note_on_c, 0, 69, 55
2, 49800, Note_on_c, 0, 69, 0
2, 49920, Note_on_c, 0, 67, 59
2, 49980, Note_on_c, 0, 67, 0
2, 49980, Note_on_c, 0, 69, 54
2, 50040, Note_on_c, 0, 69, 0
2, 50040, Note_on_c, 0, 70, 54
2, 50100, Note_on_c, 0, 70, 0
2, 50100, Note_on_c, 0, 72, 54
2, 50160, Note_on_c, 0, 72, 0
2, 50160, Note_on_c, 0, 74, 52
2, 50280, Note_on_c, 0, 74, 0
2, 50400, Note_on_c, 0, 72, 56
2, 50460, Note_on_c, 0, 72, 0
2, 50460, Note_on_c, 0, 70, 52
2, 50520, Note_on_c, 0, 70, 0
2, 50520, Note_on_c, 0, 69, 52
2, 50580, Note_on_c, 0, 69, 0
2, 50580, Note_on_c, 0, 67, 52
2, 50640, Note_on_c, 0, 67, 0
2, 50640, Note_on_c, 0, 65, 52
2, 50760, Note_on_c, 0, 65, 0
2, 50880, Note_on_c, 0, 63, 56
2, 50940, Note_on_c, 0, 63, 0
2, 50940, Note_on_c, 0, 65, 51
2, 51000, Note_on_c, 0, 65, 0
2, 51000, Note_on_c, 0, 67, 51
2, 51060, Note_on_c, 0, 67, 0
2, 51060, Note_on_c, 0, 69, 51
2, 51120, Note_on_c, 0, 69, 0
2, 51120, Note_on_c, 0, 70, 51
2, 51240, Note_on_c, 0, 70, 0
2, 51360, Note_on_c, 0, 69, 55
2, 51420, Note_on_c, 0, 69, 0
2, 51420, Note_on_c, 0, 67, 50
2, 51480, Note_on_c, 0, 67, 0
2, 51480, Note_on_c, 0, 65, 50
2, 51540, Note_on_c, 0, 65, 0
2, 51540, Note_on_c, 0, 63, 50
2, 51600, Note_on_c, 0, 63, 0
2, 51600, Note_on_c, 0, 62, 50
2, 51720, Note_on_c, 0, 62, 0
2, 51840, Note_on_c, 0, 57, 43
2, 51840, Note_on_c, 0, 64, 43
2, 51840, Note_on_c, 0, 69, 51
2, 51960, Note_on_c, 0, 69, 0
2, 51960, Note_on_c, 0, 64, 0
2, 51960, Note_on_c, 0, 57, 0
2, 52080, Note_on_c, 0, 57, 44
2, 52080, Note_on_c, 0, 69, 52
2, 52080, Note_on_c, 0, 64, 44
2, 52560, Note_on_c, 0, 64, 0
2, 52560, Note_on_c, 0, 69, 0
2, 52560, Note_on_c, 0, 57, 0
2, 52800, Note_on_c, 0, 86, 59
2, 52860, Note_on_c, 0, 86, 0
2, 52860, Note_on_c, 0, 84, 47
2, 52920, Note_on_c, 0, 84, 0
2, 52920, Note_on_c, 0, 82, 47
2, 52980, Note_on_c, 0, 82, 0
2, 52980, Note_on_c, 0, 81, 47
2, 53040, Note_on_c, 0, 81, 0
2, 53040, Note_on_c, 0, 79, 51
2, 53160, Note_on_c, 0, 79, 0
2, 53280, Note_on_c, 0, 74, 60
2, 53340, Note_on_c, 0, 74, 0
2, 53340, Note_on_c, 0, 72, 47
2, 53400, Note_on_c, 0, 72, 0
2, 53400, Note_on_c, 0, 70, 47
2, 53460, Note_on_c, 0, 70, 0
2, 53460, Note_on_c, 0, 69, 47
2, 53520, Note_on_c, 0, 69, 0
2, 53520, Note_on_c, 0, 67, 51
2, 53640, Note_on_c, 0, 67, 0
2, 54000, Note_on_c, 0, 69, 51
2, 54000, Note_on_c, 0, 57, 43
2, 54000, Note_on_c, 0, 64, 43
2, 54720, Note_on_c, 0, 64, 0
2, 54720, Note_on_c, 0, 57, 0
2, 54720, Note_on_c, 0, 69, 0
2, 54720, Note_on_c, 0, 86, 59
2, 54780, Note_on_c, 0, 86, 0
2, 54780, Note_on_c, 0, 84, 47
2, 54840, Note_on_c, 0, 84, 0
2, 54840, Note_on_c, 0, 82, 47
2, 54900, Note_on_c, 0, 82, 0
2, 54900, Note_on_c, 0, 81, 47
2, 54960, Note_on_c, 0, 81, 0
2, 54960, Note_on_c, 0, 79, 51
2, 55080, Note_on_c, 0, 79, 0
2, 55200, Note_on_c, 0, 74, 60
2, 55260, Note_on_c, 0, 74, 0
2, 55260, Note_on_c, 0, 72, 47
2, 55320, Note_on_c, 0, 72, 0
2, 55320, Note_on_c, 0, 70, 47
2, 55380, Note_on_c, 0, 70, 0
2, 55380, Note_on_c, 0, 69, 47
2, 55440, Note_on_c, 0, 69, 0
2, 55440, Note_on_c, 0, 67, 51
2, 55560, Note_on_c, 0, 67, 0
2, 55920, Note_on_c, 0, 69, 43
2, 55920, Note_on_c, 0, 64, 36
2, 55920, Note_on_c, 0, 57, 36
2, 56040, Note_on_c, 0, 57, 0
2, 56040, Note_on_c, 0, 64, 0
2, 56040, Note_on_c, 0, 69, 0
2, 56160, Note_on_c, 0, 74, 51
2, 56220, Note_on_c, 0, 74, 0
2, 56220, Note_on_c, 0, 72, 46
2, 56280, Note_on_c, 0, 72, 0
2, 56280, Note_on_c, 0, 70, 46
2, 56340, Note_on_c, 0, 70, 0
2, 56340, Note_on_c, 0, 69, 46
2, 56400, Note_on_c, 0, 69, 0
2, 56400, Note_on_c, 0, 67, 50
2, 56520, Note_on_c, 0, 67, 0
2, 56880, Note_on_c, 0, 69, 43
2, 56880, Note_on_c, 0, 64, 36
2, 56880, Note_on_c, 0, 57, 36
2, 57000, Note_on_c, 0, 57, 0
2, 57000, Note_on_c, 0, 64, 0
2, 57000, Note_on_c, 0, 69, 0
2, 57120, Note_on_c, 0, 74, 42
2, 57180, Note_on_c, 0, 74, 0
2, 57180, Note_on_c, 0, 72, 42
2, 57240, Note_on_c, 0, 72, 0
2, 57240, Note_on_c, 0, 70, 42
2, 57300, Note_on_c, 0, 70, 0
2, 57300, Note_on_c, 0, 69, 42
2, 57360, Note_on_c, 0, 69, 0
2, 57360, Note_on_c, 0, 67, 40
2, 57480, Note_on_c, 0, 67, 0
2, 57840, Note_on_c, 0, 57, 34
2, 57840, Note_on_c, 0, 69, 40
2, 57840, Note_on_c, 0, 64, 34
2, 57960, Note_on_c, 0, 64, 0
2, 57960, Note_on_c, 0, 69, 0
2, 57960, Note_on_c, 0, 57, 0
2, 58080, Note_on_c, 0, 74, 40
2, 58140, Note_on_c, 0, 74, 0
2, 58140, Note_on_c, 0, 72, 40
2, 58200, Note_on_c, 0, 72, 0
2, 58200, Note_on_c, 0, 70, 40
2, 58260, Note_on_c, 0, 70, 0
2, 58260, Note_on_c, 0, 69, 39
2, 58320, Note_on_c, 0, 69, 0
2, 58320, Note_on_c, 0, 67, 36
2, 58440, Note_on_c, 0, 67, 0
2, 58800, Note_on_c, 0, 57, 30
2, 58800, Note_on_c, 0, 64, 30
2, 58800, Note_on_c, 0, 69, 36
2, 58920, Note_on_c, 0, 69, 0
2, 58920, Note_on_c, 0, 64, 0
2, 58920, Note_on_c, 0, 57, 0
2, 59040, Note_on_c, 0, 74, 37
2, 59100, Note_on_c, 0, 74, 0
2, 59100, Note_on_c, 0, 72, 37
2, 59160, Note_on_c, 0, 72, 0
2, 59160, Note_on_c, 0, 70, 37
2, 59220, Note_on_c, 0, 70, 0
2, 59220, Note_on_c, 0, 69, 37
2, 59280, Note_on_c, 0, 69, 0
2, 59280, Note_on_c, 0, 67, 35
2, 59400, Note_on_c, 0, 67, 0
2, 60240, Note_on_c, 0, 50, 46
2, 60300, Note_on_c, 0, 50, 0
2, 60300, Note_on_c, 0, 52, 46
2, 60360, Note_on_c, 0, 52, 0
2, 60360, Note_on_c, 0, 53, 46
2, 60420, Note_on_c, 0, 53, 0
2, 60420, Note_on_c, 0, 55, 46
2, 60480, Note_on_c, 0, 55, 0
2, 60480, Note_on_c, 0, 57, 50
2, 60600, Note_on_c, 0, 57, 0
2, 60720, Note_on_c, 0, 53, 36
2, 60720, Note_on_c, 0, 50, 36
2, 60720, Note_on_c, 0, 62, 43
2, 60840, Note_on_c, 0, 62, 0
2, 60840, Note_on_c, 0, 50, 0
2, 60840, Note_on_c, 0, 53, 0
2, 60960, Note_on_c, 0, 50, 36
2, 60960, Note_on_c, 0, 53, 36
2, 60960, Note_on_c, 0, 62, 43
2, 61080, Note_on_c, 0, 62, 0
2, 61080, Note_on_c, 0, 53, 0
2, 61080, Note_on_c, 0, 50, 0
2, 61200, Note_on_c, 0, 50, 36
2, 61200, Note_on_c, 0, 61, 43
2, 61200, Note_on_c, 0, 53, 36
2, 61320, Note_on_c, 0, 53, 0
2, 61320, Note_on_c, 0, 61, 0
2, 61320, Note_on_c, 0, 50, 0
2, 61440, Note_on_c, 0, 50, 39
2, 61440, Note_on_c, 0, 61, 46
2, 61440, Note_on_c, 0, 53, 39
2, 61560, Note_on_c, 0, 53, 0
2, 61560, Note_on_c, 0, 61, 0
2, 61560, Note_on_c, 0, 50, 0
2, 61680, Note_on_c, 0, 53, 36
2, 61680, Note_on_c, 0, 50, 36
2, 61680, Note_on_c, 0, 60, 43
2, 61800, Note_on_c, 0, 60, 0
2, 61800, Note_on_c, 0, 50, 0
2, 61800, Note_on_c, 0, 53, 0
2, 61920, Note_on_c, 0, 53, 36
2, 61920, Note_on_c, 0, 50, 36
2, 61920, Note_on_c, 0, 60, 43
2, 62040, Note_on_c, 0, 60, 0
2, 62040, Note_on_c, 0, 50, 0
2, 62040, Note_on_c, 0, 53, 0
2, 62160, Note_on_c, 0, 50, 36
2, 62160, Note_on_c, 0, 53, 36
2, 62160, Note_on_c, 0, 59, 43
2, 62280, Note_on_c, 0, 59, 0
2, 62280, Note_on_c, 0, 53, 0
2, 62280, Note_on_c, 0, 50, 0
2, 62400, Note_on_c, 0, 50, 39
2, 62400, Note_on_c, 0, 59, 46
2, 62400, Note_on_c, 0, 53, 39
2, 62520, Note_on_c, 0, 53, 0
2, 62520, Note_on_c, 0, 59, 0
2, 62520, Note_on_c, 0, 50, 0
2, 62640, Note_on_c, 0, 50, 35
2, 62640, Note_on_c, 0, 58, 42
2, 62640, Note_on_c, 0, 53, 35
2, 62760, Note_on_c, 0, 53, 0
2, 62760, Note_on_c, 0, 58, 0
2, 62760, Note_on_c, 0, 50, 0
2, 62880, Note_on_c, 0, 53, 35
2, 62880, Note_on_c, 0, 50, 35
2, 62880, Note_on_c, 0, 58, 42
2, 63000, Note_on_c, 0, 58, 0
2, 63000, Note_on_c, 0, 50, 0
2, 63000, Note_on_c, 0, 53, 0
2, 63120, Note_on_c, 0, 53, 34
2, 63120, Note_on_c, 0, 57, 41
2, 63120, Note_on_c, 0, 50, 34
2, 64320, Note_on_c, 0, 50, 0
2, 64320, Note_on_c, 0, 57, 0
2, 64320, Note_on_c, 0, 53, 0
2, 65280, Note_on_c, 0, 62, 40
2, 65400, Note_on_c, 0, 62, 0
2, 65520, Note_on_c, 0, 69, 39
2, 65640, Note_on_c, 0, 69, 0
2, 65760, Note_on_c, 0, 74, 36
2, 65880, Note_on_c, 0, 74, 0
2, 66000, Note_on_c, 0, 81, 42
2, 67200, Control_c, 0, 91, 127
2, 67200, Note_on_c, 0, 74, 27
2, 67200, Note_on_c, 0, 78, 27
2, 67680, Note_on_c, 0, 81, 0
2, 67680, Note_on_c, 0, 83, 48
2, 67920, Note_on_c, 0, 83, 0
2, 67920, Note_on_c, 0, 85, 48
2, 68160, Note_on_c, 0, 85, 0
2, 68160, Note_on_c, 0, 78, 0
2, 68160, Note_on_c, 0, 74, 0
2, 68160, Note_on_c, 0, 74, 27
2, 68160, Note_on_c, 0, 86, 52
2, 68640, Note_on_c, 0, 86, 0
2, 68640, Note_on_c, 0, 85, 48
2, 68880, Note_on_c, 0, 85, 0
2, 68880, Note_on_c, 0, 83, 48
2, 69120, Note_on_c, 0, 83, 0
2, 69120, Note_on_c, 0, 74, 0
2, 69120, Note_on_c, 0, 74, 26
2, 69120, Note_on_c, 0, 78, 26
2, 69120, Note_on_c, 0, 85, 50
2, 69360, Note_on_c, 0, 85, 0
2, 69360, Note_on_c, 0, 81, 48
2, 69840, Note_on_c, 0, 81, 0
2, 69840, Note_on_c, 0, 85, 46
2, 70020, Note_on_c, 0, 85, 0
2, 70020, Note_on_c, 0, 85, 39
2, 70080, Note_on_c, 0, 85, 0
2, 70080, Note_on_c, 0, 78, 0
2, 70080, Note_on_c, 0, 74, 0
2, 70080, Note_on_c, 0, 74, 23
2, 70080, Note_on_c, 0, 78, 42
2, 71040, Note_on_c, 0, 78, 0
2, 71040, Note_on_c, 0, 74, 0
2, 71040, Note_on_c, 0, 81, 48
2, 71040, Control_c, 0, 91, 127
2, 71040, Note_on_c, 0, 74, 27
2, 71040, Note_on_c, 0, 78, 27
2, 71520, Note_on_c, 0, 81, 0
2, 71520, Note_on_c, 0, 83, 48
2, 71760, Note_on_c, 0, 83, 0
2, 71760, Note_on_c, 0, 85, 48
2, 72000, Note_on_c, 0, 85, 0
2, 72000, Note_on_c, 0, 78, 0
2, 72000, Note_on_c, 0, 74, 0
2, 72000, Note_on_c, 0, 74, 27
2, 72000, Note_on_c, 0, 86, 52
2, 72480, Note_on_c, 0, 86, 0
2, 72480, Note_on_c, 0, 85, 48
2, 72720, Note_on_c, 0, 85, 0
2, 72720, Note_on_c, 0, 83, 48
2, 72960, Note_on_c, 0, 83, 0
2, 72960, Note_on_c, 0, 74, 0
2, 72960, Note_on_c, 0, 74, 26
2, 72960, Note_on_c, 0, 85, 50
2, 73200, Note_on_c, 0, 85, 0
2, 73200, Note_on_c, 0, 78, 48
2, 73680, Note_on_c, 0, 78, 0
2, 73680, Note_on_c, 0, 85, 46
2, 73860, Note_on_c, 0, 85, 0
2, 73860, Note_on_c, 0, 85, 39
2, 73920, Note_on_c, 0, 85, 0
2, 73920, Note_on_c, 0, 74, 0
2, 73920, Note_on_c, 0, 73, 23
2, 73920, Note_on_c, 0, 81, 42
2, 74880, Note_on_c, 0, 81, 0
2, 74880, Note_on_c, 0, 73, 0
2, 74880, Control_c, 0, 91, 127
2, 74880, Note_on_c, 0, 69, 42
2, 75120, Note_on_c, 0, 62, 27
2, 75120, Note_on_c, 0, 66, 27
2, 75360, Note_on_c, 0, 69, 0
2, 75360, Note_on_c, 0, 71, 42
2, 75600, Note_on_c, 0, 71, 0
2, 75600, Note_on_c, 0, 73, 42
2, 75840, Note_on_c, 0, 73, 0
2, 75840, Note_on_c, 0, 66, 0
2, 75840, Note_on_c, 0, 62, 0
2, 75840, Note_on_c, 0, 74, 47
2, 76080, Note_on_c, 0, 62, 27
2, 76320, Note_on_c, 0, 74, 0
2, 76320, Note_on_c, 0, 73, 42
2, 76560, Note_on_c, 0, 73, 0
2, 76560, Note_on_c, 0, 71, 42
2, 76800, Note_on_c, 0, 71, 0
2, 76800, Note_on_c, 0, 62, 0
2, 76800, Note_on_c, 0, 73, 44
2, 77040, Note_on_c, 0, 73, 0
2, 77040, Note_on_c, 0, 66, 26
2, 77040, Note_on_c, 0, 62, 26
2, 77280, Note_on_c, 0, 69, 42
2, 77520, Note_on_c, 0, 69, 0
2, 77520, Note_on_c, 0, 73, 41
2, 77700, Note_on_c, 0, 73, 0
2, 77700, Note_on_c, 0, 73, 34
2, 77760, Note_on_c, 0, 73, 0
2, 77760, Note_on_c, 0, 62, 0
2, 77760, Note_on_c, 0, 66, 0
2, 77760, Note_on_c, 0, 66, 37
2, 78000, Note_on_c, 0, 62, 23
2, 78720, Note_on_c, 0, 62, 0
2, 78720, Note_on_c, 0, 66, 0
2, 78720, Note_on_c, 0, 69, 42
2, 78720, Control_c, 0, 91, 127
2, 78960, Note_on_c, 0, 62, 27
2, 78960, Note_on_c, 0, 66, 27
2, 79200, Note_on_c, 0, 69, 0
2, 79200, Note_on_c, 0, 71, 42
2, 79440, Note_on_c, 0, 71, 0
2, 79440, Note_on_c, 0, 73, 42
2, 79680, Note_on_c, 0, 73, 0
2, 79680, Note_on_c, 0, 66, 0
2, 79680, Note_on_c, 0, 62, 0
2, 79680, Note_on_c, 0, 74, 47
2, 79920, Note_on_c, 0, 62, 27
2, 80160, Note_on_c, 0, 74, 0
2, 80160, Note_on_c, 0, 73, 44
2, 80400, Note_on_c, 0, 73, 0
2, 80400, Note_on_c, 0, 71, 46
2, 80640, Note_on_c, 0, 71, 0
2, 80640, Note_on_c, 0, 62, 0
2, 80640, Note_on_c, 0, 73, 51
2, 80880, Note_on_c, 0, 62, 35
2, 81120, Note_on_c, 0, 73, 0
2, 81120, Note_on_c, 0, 66, 42
2, 81360, Note_on_c, 0, 66, 0
2, 81360, Note_on_c, 0, 73, 41
2, 81540, Note_on_c, 0, 73, 0
2, 81540, Note_on_c, 0, 73, 34
2, 81600, Note_on_c, 0, 73, 0
2, 81600, Note_on_c, 0, 62, 0
2, 81600, Note_on_c, 0, 69, 37
2, 81840, Note_on_c, 0, 61, 23
2, 82560, Note_on_c, 0, 61, 0
2, 82560, Note_on_c, 0, 69, 0
2, 82800, Note_on_c, 0, 76, 35
2, 82880, Note_on_c, 0, 76, 0
2, 82880, Note_on_c, 0, 79, 35
2, 82960, Note_on_c, 0, 79, 0
2, 82960, Note_on_c, 0, 88, 35
2, 83040, Note_on_c, 0, 88, 0
2, 83040, Note_on_c, 0, 83, 41
2, 83520, Note_on_c, 0, 83, 0
2, 83760, Note_on_c, 0, 76, 35
2, 83840, Note_on_c, 0, 76, 0
2, 83840, Note_on_c, 0, 79, 35
2, 83920, Note_on_c, 0, 79, 0
2, 83920, Note_on_c, 0, 88, 35
2, 84000, Note_on_c, 0, 88, 0
2, 84000, Note_on_c, 0, 83, 41
2, 84480, Note_on_c, 0, 83, 0
2, 84720, Note_on_c, 0, 67, 40
2, 84840, Note_on_c, 0, 67, 0
2, 84840, Note_on_c, 0, 73, 36
2, 84960, Note_on_c, 0, 73, 0
2, 84960, Note_on_c, 0, 71, 40
2, 85080, Note_on_c, 0, 71, 0
2, 85080, Note_on_c, 0, 76, 36
2, 85200, Note_on_c, 0, 76, 0
2, 85200, Note_on_c, 0, 74, 40
2, 85320, Note_on_c, 0, 74, 0
2, 85320, Note_on_c, 0, 79, 36
2, 85440, Note_on_c, 0, 79, 0
2, 85440, Note_on_c, 0, 76, 39
2, 85560, Note_on_c, 0, 76, 0
2, 85560, Note_on_c, 0, 81, 36
2, 85680, Note_on_c, 0, 81, 0
2, 85680, Note_on_c, 0, 79, 39
2, 85800, Note_on_c, 0, 79, 0
2, 85800, Note_on_c, 0, 85, 35
2, 85920, Note_on_c, 0, 85, 0
2, 85920, Note_on_c, 0, 83, 39
2, 86040, Note_on_c, 0, 83, 0
2, 86040, Note_on_c, 0, 88, 36
2, 86160, Note_on_c, 0, 88, 0
2, 86640, Note_on_c, 0, 72, 35
2, 86717, Note_on_c, 0, 75, 35
2, 86720, Note_on_c, 0, 72, 0
2, 86797, Note_on_c, 0, 75, 0
2, 86800, Note_on_c, 0, 84, 35
2, 86880, Note_on_c, 0, 84, 0
2, 86880, Note_on_c, 0, 79, 40
2, 87360, Note_on_c, 0, 79, 0
2, 87600, Note_on_c, 0, 72, 35
2, 87680, Note_on_c, 0, 72, 0
2, 87680, Note_on_c, 0, 75, 35
2, 87760, Note_on_c, 0, 75, 0
2, 87760, Note_on_c, 0, 84, 35
2, 87840, Note_on_c, 0, 84, 0
2, 87840, Note_on_c, 0, 79, 40
2, 88320, Note_on_c, 0, 79, 0
2, 88560, Note_on_c, 0, 63, 40
2, 88680, Note_on_c, 0, 63, 0
2, 88680, Note_on_c, 0, 69, 36
2, 88800, Note_on_c, 0, 69, 0
2, 88800, Note_on_c, 0, 67, 40
2, 88920, Note_on_c, 0, 67, 0
2, 88920, Note_on_c, 0, 72, 36
2, 89040, Note_on_c, 0, 72, 0
2, 89040, Note_on_c, 0, 70, 40
2, 89160, Note_on_c, 0, 70, 0
2, 89160, Note_on_c, 0, 75, 36
2, 89280, Note_on_c, 0, 75, 0
2, 89280, Note_on_c, 0, 72, 39
2, 89400, Note_on_c, 0, 72, 0
2, 89400, Note_on_c, 0, 77, 36
2, 89520, Note_on_c, 0, 77, 0
2, 89520, Note_on_c, 0, 75, 39
2, 89640, Note_on_c, 0, 75, 0
2, 89640, Note_on_c, 0, 81, 35
2, 89760, Note_on_c, 0, 81, 0
2, 89760, Note_on_c, 0, 79, 39
2, 89880, Note_on_c, 0, 79, 0
2, 89880, Note_on_c, 0, 84, 36
2, 90000, Note_on_c, 0, 84, 0
2, 90480, Note_on_c, 0, 60, 33
2, 90600, Note_on_c, 0, 60, 0
2, 90600, Note_on_c, 0, 66, 31
2, 90720, Note_on_c, 0, 66, 0
2, 90720, Note_on_c, 0, 64, 33
2, 90840, Note_on_c, 0, 64, 0
2, 90840, Note_on_c, 0, 69, 31
2, 90960, Note_on_c, 0, 69, 0
2, 90960, Note_on_c, 0, 67, 33
2, 91080, Note_on_c, 0, 67, 0
2, 91080, Note_on_c, 0, 72, 31
2, 91200, Note_on_c, 0, 72, 0
2, 91200, Note_on_c, 0, 69, 32
2, 91320, Note_on_c, 0, 69, 0
2, 91320, Note_on_c, 0, 74, 29
2, 91440, Note_on_c, 0, 74, 0
2, 91440, Note_on_c, 0, 72, 31
2, 91560, Note_on_c, 0, 72, 0
2, 91560, Note_on_c, 0, 78, 27
2, 91680, Note_on_c, 0, 78, 0
2, 91680, Note_on_c, 0, 76, 29
2, 91800, Note_on_c, 0, 76, 0
2, 91800, Note_on_c, 0, 81, 25
2, 91920, Note_on_c, 0, 81, 0
2, 92160, Control_c, 0, 91, 127
2, 92160, Note_on_c, 0, 79, 24
2, 92160, Note_on_c, 0, 83, 24
2, 92160, Note_on_c, 0, 86, 44
2, 92640, Note_on_c, 0, 86, 0
2, 92640, Note_on_c, 0, 88, 42
2, 92880, Note_on_c, 0, 88, 0
2, 92880, Note_on_c, 0, 90, 42
2, 93120, Note_on_c, 0, 90, 0
2, 93120, Note_on_c, 0, 83, 0
2, 93120, Note_on_c, 0, 79, 0
2, 93120, Note_on_c, 0, 79, 24
2, 93120, Note_on_c, 0, 91, 47
2, 93600, Note_on_c, 0, 91, 0
2, 93600, Note_on_c, 0, 90, 42
2, 93840, Note_on_c, 0, 90, 0
2, 93840, Note_on_c, 0, 88, 42
2, 94080, Note_on_c, 0, 88, 0
2, 94080, Note_on_c, 0, 79, 0
2, 94080, Note_on_c, 0, 79, 23
2, 94080, Note_on_c, 0, 83, 23
2, 94080, Note_on_c, 0, 90, 44
2, 94320, Note_on_c, 0, 90, 0
2, 94320, Note_on_c, 0, 86, 42
2, 94800, Note_on_c, 0, 86, 0
2, 94800, Note_on_c, 0, 90, 41
2, 94980, Note_on_c, 0, 90, 0
2, 94980, Note_on_c, 0, 90, 34
2, 95040, Note_on_c, 0, 90, 0
2, 95040, Note_on_c, 0, 83, 0
2, 95040, Note_on_c, 0, 79, 0
2, 95040, Note_on_c, 0, 79, 20
2, 95040, Note_on_c, 0, 83, 37
2, 96000, Note_on_c, 0, 83, 0
2, 96000, Note_on_c, 0, 79, 0
2, 96000, Note_on_c, 0, 86, 42
2, 96000, Control_c, 0, 91, 127
2, 96000, Note_on_c, 0, 79, 24
2, 96000, Note_on_c, 0, 83, 24
2, 96480, Note_on_c, 0, 86, 0
2, 96480, Note_on_c, 0, 88, 42
2, 96720, Note_on_c, 0, 88, 0
2, 96720, Note_on_c, 0, 90, 42
2, 96960, Note_on_c, 0, 90, 0
2, 96960, Note_on_c, 0, 83, 0
2, 96960, Note_on_c, 0, 79, 0
2, 96960, Note_on_c, 0, 79, 24
2, 96960, Note_on_c, 0, 91, 47
2, 97440, Note_on_c, 0, 91, 0
2, 97440, Note_on_c, 0, 90, 42
2, 97680, Note_on_c, 0, 90, 0
2, 97680, Note_on_c, 0, 88, 42
2, 97920, Note_on_c, 0, 88, 0
2, 97920, Note_on_c, 0, 79, 0
2, 97920, Note_on_c, 0, 79, 23
2, 97920, Note_on_c, 0, 90, 44
2, 98160, Note_on_c, 0, 90, 0
2, 98160, Note_on_c, 0, 83, 42
2, 98640, Note_on_c, 0, 83, 0
2, 98640, Note_on_c, 0, 90, 41
2, 98820, Note_on_c, 0, 90, 0
2, 98820, Note_on_c, 0, 90, 34
2, 98880, Note_on_c, 0, 90, 0
2, 98880, Note_on_c, 0, 79, 0
2, 98880, Note_on_c, 0, 78, 20
2, 98880, Note_on_c, 0, 86, 37
2, 99840, Note_on_c, 0, 86, 0
2, 99840, Note_on_c, 0, 78, 0
2, 99840, Control_c, 0, 91, 127
2, 99840, Note_on_c, 0, 74, 41
2, 100080, Note_on_c, 0, 71, 26
2, 100080, Note_on_c, 0, 67, 26
2, 100320, Note_on_c, 0, 74, 0
2, 100320, Note_on_c, 0, 76, 41
2, 100560, Note_on_c, 0, 76, 0
2, 100560, Note_on_c, 0, 78, 41
2, 100800, Note_on_c, 0, 78, 0
2, 100800, Note_on_c, 0, 67, 0
2, 100800, Note_on_c, 0, 71, 0
2, 100800, Note_on_c, 0, 79, 44
2, 101040, Note_on_c, 0, 67, 26
2, 101280, Note_on_c, 0, 79, 0
2, 101280, Note_on_c, 0, 78, 41
2, 101520, Note_on_c, 0, 78, 0
2, 101520, Note_on_c, 0, 76, 41
2, 101760, Note_on_c, 0, 76, 0
2, 101760, Note_on_c, 0, 67, 0
2, 101760, Note_on_c, 0, 78, 43
2, 102000, Note_on_c, 0, 78, 0
2, 102000, Note_on_c, 0, 67, 25
2, 102000, Note_on_c, 0, 71, 25
2, 102240, Note_on_c, 0, 74, 41
2, 102480, Note_on_c, 0, 74, 0
2, 102480, Note_on_c, 0, 78, 40
2, 102660, Note_on_c, 0, 78, 0
2, 102660, Note_on_c, 0, 78, 33
2, 102720, Note_on_c, 0, 78, 0
2, 102720, Note_on_c, 0, 71, 0
2, 102720, Note_on_c, 0, 67, 0
2, 102720, Note_on_c, 0, 71, 35
2, 102960, Note_on_c, 0, 67, 21
2, 103680, Note_on_c, 0, 67, 0
2, 103680, Note_on_c, 0, 71, 0
2, 103680, Control_c, 0, 91, 127
2, 103680, Note_on_c, 0, 74, 43
2, 103920, Note_on_c, 0, 67, 26
2, 103920, Note_on_c, 0, 71, 26
2, 104160, Note_on_c, 0, 74, 0
2, 104160, Note_on_c, 0, 76, 43
2, 104400, Note_on_c, 0, 76, 0
2, 104400, Note_on_c, 0, 78, 43
2, 104640, Note_on_c, 0, 78, 0
2, 104640, Note_on_c, 0, 71, 0
2, 104640, Note_on_c, 0, 67, 0
2, 104640, Note_on_c, 0, 79, 47
2, 104880, Note_on_c, 0, 67, 26
2, 105120, Note_on_c, 0, 79, 0
2, 105120, Note_on_c, 0, 78, 42
2, 105360, Note_on_c, 0, 78, 0
2, 105360, Note_on_c, 0, 76, 44
2, 105600, Note_on_c, 0, 76, 0
2, 105600, Note_on_c, 0, 67, 0
2, 105600, Note_on_c, 0, 78, 50
2, 105840, Note_on_c, 0, 67, 33
2, 106080, Note_on_c, 0, 78, 0
2, 106080, Note_on_c, 0, 71, 41
2, 106320, Note_on_c, 0, 71, 0
2, 106320, Note_on_c, 0, 78, 40
2, 106500, Note_on_c, 0, 78, 0
2, 106500, Note_on_c, 0, 78, 33
2, 106560, Note_on_c, 0, 78, 0
2, 106560, Note_on_c, 0, 67, 0
2, 106560, Note_on_c, 0, 74, 35
2, 106800, Note_on_c, 0, 66, 21
2, 107520, Note_on_c, 0, 66, 0
2, 107520, Note_on_c, 0, 74, 0
2, 107760, Note_on_c, 0, 81, 35
2, 107840, Note_on_c, 0, 81, 0
2, 107840, Note_on_c, 0, 84, 35
2, 107920, Note_on_c, 0, 84, 0
2, 107920, Note_on_c, 0, 93, 35
2, 108000, Note_on_c, 0, 93, 0
2, 108000, Note_on_c, 0, 88, 41
2, 108480, Note_on_c, 0, 88, 0
2, 108720, Note_on_c, 0, 79, 40
2, 108840, Note_on_c, 0, 79, 0
2, 108840, Note_on_c, 0, 86, 36
2, 108960, Note_on_c, 0, 86, 0
2, 108960, Note_on_c, 0, 83, 40
2, 109080, Note_on_c, 0, 83, 0
2, 109080, Note_on_c, 0, 91, 36
2, 109200, Note_on_c, 0, 91, 0
2, 109200, Note_on_c, 0, 86, 40
2, 109320, Note_on_c, 0, 86, 0
2, 109320, Note_on_c, 0, 95, 36
2, 109440, Note_on_c, 0, 95, 0
2, 109680, Note_on_c, 0, 76, 35
2, 109760, Note_on_c, 0, 76, 0
2, 109760, Note_on_c, 0, 79, 35
2, 109840, Note_on_c, 0, 79, 0
2, 109840, Note_on_c, 0, 88, 35
2, 109920, Note_on_c, 0, 88, 0
2, 109920, Note_on_c, 0, 83, 41
2, 110400, Note_on_c, 0, 83, 0
2, 110640, Note_on_c, 0, 78, 40
2, 110760, Note_on_c, 0, 78, 0
2, 110760, Note_on_c, 0, 86, 36
2, 110880, Note_on_c, 0, 86, 0
2, 110880, Note_on_c, 0, 81, 40
2, 111000, Note_on_c, 0, 81, 0
2, 111000, Note_on_c, 0, 90, 36
2, 111120, Note_on_c, 0, 90, 0
2, 111120, Note_on_c, 0, 86, 40
2, 111240, Note_on_c, 0, 86, 0
2, 111240, Note_on_c, 0, 93, 36
2, 111360, Note_on_c, 0, 93, 0
2, 111600, Note_on_c, 0, 69, 35
2, 111680, Note_on_c, 0, 69, 0
2, 111680, Note_on_c, 0, 72, 35
2, 111760, Note_on_c, 0, 72, 0
2, 111760, Note_on_c, 0, 81, 34
2, 111840, Note_on_c, 0, 81, 0
2, 111840, Note_on_c, 0, 76, 40
2, 112320, Note_on_c, 0, 76, 0
2, 112560, Note_on_c, 0, 71, 37
2, 112680, Note_on_c, 0, 71, 0
2, 112680, Note_on_c, 0, 74, 35
2, 112800, Note_on_c, 0, 74, 0
2, 112800, Note_on_c, 0, 71, 37
2, 112920, Note_on_c, 0, 71, 0
2, 112920, Note_on_c, 0, 79, 34
2, 113040, Note_on_c, 0, 79, 0
2, 113040, Note_on_c, 0, 74, 37
2, 113160, Note_on_c, 0, 74, 0
2, 113160, Note_on_c, 0, 83, 34
2, 113280, Note_on_c, 0, 83, 0
2, 113520, Note_on_c, 0, 64, 33
2, 113600, Note_on_c, 0, 64, 0
2, 113600, Note_on_c, 0, 67, 33
2, 113680, Note_on_c, 0, 67, 0
2, 113680, Note_on_c, 0, 76, 33
2, 113760, Note_on_c, 0, 76, 0
2, 113760, Note_on_c, 0, 71, 39
2, 114240, Note_on_c, 0, 71, 0
2, 114480, Note_on_c, 0, 66, 37
2, 114600, Note_on_c, 0, 66, 0
2, 114600, Note_on_c, 0, 74, 35
2, 114720, Note_on_c, 0, 74, 0
2, 114720, Note_on_c, 0, 69, 39
2, 114840, Note_on_c, 0, 69, 0
2, 114840, Note_on_c, 0, 78, 35
2, 114960, Note_on_c, 0, 78, 0
2, 114960, Note_on_c, 0, 74, 39
2, 115080, Note_on_c, 0, 74, 0
2, 115080, Note_on_c, 0, 81, 35
2, 115200, Note_on_c, 0, 81, 0
2, 118080, Control_c, 0, 91, 127
2, 119760, Note_on_c, 0, 62, 36
2, 119820, Note_on_c, 0, 62, 0
2, 119820, Note_on_c, 0, 64, 36
2, 119880, Note_on_c, 0, 64, 0
2, 119880, Note_on_c, 0, 65, 36
2, 119940, Note_on_c, 0, 65, 0
2, 119940, Note_on_c, 0, 67, 36
2, 120000, Note_on_c, 0, 67, 0
2, 120000, Note_on_c, 0, 69, 38
2, 120120, Note_on_c, 0, 69, 0
2, 120240, Note_on_c, 0, 62, 34
2, 120240, Note_on_c, 0, 65, 34
2, 120240, Note_on_c, 0, 74, 34
2, 120360, Note_on_c, 0, 74, 0
2, 120360, Note_on_c, 0, 65, 0
2, 120360, Note_on_c, 0, 62, 0
2, 120480, Note_on_c, 0, 62, 34
2, 120480, Note_on_c, 0, 74, 34
2, 120480, Note_on_c, 0, 65, 34
2, 120600, Note_on_c, 0, 65, 0
2, 120600, Note_on_c, 0, 74, 0
2, 120600, Note_on_c, 0, 62, 0
2, 120720, Note_on_c, 0, 62, 34
2, 120720, Note_on_c, 0, 73, 34
2, 120720, Note_on_c, 0, 65, 34
2, 120840, Note_on_c, 0, 65, 0
2, 120840, Note_on_c, 0, 73, 0
2, 120840, Note_on_c, 0, 62, 0
2, 120960, Note_on_c, 0, 65, 36
2, 120960, Note_on_c, 0, 73, 36
2, 120960, Note_on_c, 0, 62, 36
2, 121080, Note_on_c, 0, 62, 0
2, 121080, Note_on_c, 0, 73, 0
2, 121080, Note_on_c, 0, 65, 0
2, 121200, Note_on_c, 0, 62, 34
2, 121200, Note_on_c, 0, 72, 34
2, 121200, Note_on_c, 0, 65, 34
2, 121320, Note_on_c, 0, 65, 0
2, 121320, Note_on_c, 0, 72, 0
2, 121320, Note_on_c, 0, 62, 0
2, 121440, Note_on_c, 0, 65, 34
2, 121440, Note_on_c, 0, 62, 34
2, 121440, Note_on_c, 0, 72, 34
2, 121560, Note_on_c, 0, 72, 0
2, 121560, Note_on_c, 0, 62, 0
2, 121560, Note_on_c, 0, 65, 0
2, 121680, Note_on_c, 0, 65, 34
2, 121680, Note_on_c, 0, 62, 34
2, 121680, Note_on_c, 0, 71, 34
2, 121800, Note_on_c, 0, 71, 0
2, 121800, Note_on_c, 0, 62, 0
2, 121800, Note_on_c, 0, 65, 0
2, 121920, Note_on_c, 0, 62, 36
2, 121920, Note_on_c, 0, 65, 36
2, 121920, Note_on_c, 0, 71, 36
2, 122040, Note_on_c, 0, 71, 0
2, 122040, Note_on_c, 0, 65, 0
2, 122040, Note_on_c, 0, 62, 0
2, 122160, Note_on_c, 0, 62, 33
2, 122160, Note_on_c, 0, 70, 33
2, 122160, Note_on_c, 0, 65, 33
2, 122280, Note_on_c, 0, 65, 0
2, 122280, Note_on_c, 0, 70, 0
2, 122280, Note_on_c, 0, 62, 0
2, 122400, Note_on_c, 0, 62, 33
2, 122400, Note_on_c, 0, 70, 33
2, 122400, Note_on_c, 0, 65, 33
2, 122520, Note_on_c, 0, 65, 0
2, 122520, Note_on_c, 0, 70, 0
2, 122520, Note_on_c, 0, 62, 0
2, 122640, Note_on_c, 0, 65, 32
2, 122640, Note_on_c, 0, 62, 32
2, 122640, Note_on_c, 0, 69, 32
2, 122760, Note_on_c, 0, 69, 0
2, 122760, Note_on_c, 0, 62, 0
2, 122760, Note_on_c, 0, 65, 0
2, 122880, Note_on_c, 0, 64, 43
2, 122880, Note_on_c, 0, 59, 43
2, 122880, Note_on_c, 0, 68, 43
2, 123000, Note_on_c, 0, 68, 0
2, 123000, Note_on_c, 0, 59, 0
2, 123000, Note_on_c, 0, 64, 0
2, 123120, Note_on_c, 0, 59, 43
2, 123120, Note_on_c, 0, 64, 43
2, 123120, Note_on_c, 0, 68, 43
2, 123600, Note_on_c, 0, 68, 0
2, 123600, Note_on_c, 0, 64, 0
2, 123600, Note_on_c, 0, 59, 0
2, 123600, Note_on_c, 0, 67, 36
2, 123660, Note_on_c, 0, 67, 0
2, 123660, Note_on_c, 0, 69, 36
2, 123720, Note_on_c, 0, 69, 0
2, 123720, Note_on_c, 0, 70, 36
2, 123780, Note_on_c, 0, 70, 0
2, 123780, Note_on_c, 0, 72, 36
2, 123840, Note_on_c, 0, 72, 0
2, 123840, Note_on_c, 0, 74, 38
2, 123960, Note_on_c, 0, 74, 0
2, 124080, Note_on_c, 0, 67, 34
2, 124080, Note_on_c, 0, 70, 34
2, 124080, Note_on_c, 0, 79, 34
2, 124200, Note_on_c, 0, 79, 0
2, 124200, Note_on_c, 0, 70, 0
2, 124200, Note_on_c, 0, 67, 0
2, 124320, Note_on_c, 0, 79, 34
2, 124320, Note_on_c, 0, 70, 34
2, 124320, Note_on_c, 0, 67, 34
2, 124440, Note_on_c, 0, 67, 0
2, 124440, Note_on_c, 0, 70, 0
2, 124440, Note_on_c, 0, 79, 0
2, 124560, Note_on_c, 0, 70, 34
2, 124560, Note_on_c, 0, 78, 34
2, 124560, Note_on_c, 0, 67, 34
2, 124680, Note_on_c, 0, 67, 0
2, 124680, Note_on_c, 0, 78, 0
2, 124680, Note_on_c, 0, 70, 0
2, 124800, Note_on_c, 0, 70, 36
2, 124800, Note_on_c, 0, 78, 36
2, 124800, Note_on_c, 0, 67, 36
2, 124920, Note_on_c, 0, 67, 0
2, 124920, Note_on_c, 0, 78, 0
2, 124920, Note_on_c, 0, 70, 0
2, 125040, Note_on_c, 0, 67, 34
2, 125040, Note_on_c, 0, 70, 34
2, 125040, Note_on_c, 0, 77, 34
2, 125160, Note_on_c, 0, 77, 0
2, 125160, Note_on_c, 0, 70, 0
2, 125160, Note_on_c, 0, 67, 0
2, 125280, Note_on_c, 0, 70, 34
2, 125280, Note_on_c, 0, 67, 34
2, 125280, Note_on_c, 0, 77, 34
2, 125400, Note_on_c, 0, 77, 0
2, 125400, Note_on_c, 0, 67, 0
2, 125400, Note_on_c, 0, 70, 0
2, 125520, Note_on_c, 0, 67, 34
2, 125520, Note_on_c, 0, 70, 34
2, 125520, Note_on_c, 0, 76, 34
2, 125640, Note_on_c, 0, 76, 0
2, 125640, Note_on_c, 0, 70, 0
2, 125640, Note_on_c, 0, 67, 0
2, 125760, Note_on_c, 0, 70, 36
2, 125760, Note_on_c, 0, 76, 36
2, 125760, Note_on_c, 0, 67, 36
2, 125880, Note_on_c, 0, 67, 0
2, 125880, Note_on_c, 0, 76, 0
2, 125880, Note_on_c, 0, 70, 0
2, 126000, Note_on_c, 0, 75, 32
2, 126000, Note_on_c, 0, 67, 32
2, 126000, Note_on_c, 0, 70, 32
2, 126120, Note_on_c, 0, 70, 0
2, 126120, Note_on_c, 0, 67, 0
2, 126120, Note_on_c, 0, 75, 0
2, 126240, Note_on_c, 0, 70, 32
2, 126240, Note_on_c, 0, 67, 32
2, 126240, Note_on_c, 0, 75, 32
2, 126360, Note_on_c, 0, 75, 0
2, 126360, Note_on_c, 0, 67, 0
2, 126360, Note_on_c, 0, 70, 0
2, 126480, Note_on_c, 0, 74, 32
2, 126480, Note_on_c, 0, 70, 32
2, 126480, Note_on_c, 0, 67, 32
2, 126600, Note_on_c, 0, 67, 0
2, 126600, Note_on_c, 0, 70, 0
2, 126600, Note_on_c, 0, 74, 0
2, 126720, Note_on_c, 0, 64, 44
2, 126720, Note_on_c, 0, 69, 44
2, 126720, Note_on_c, 0, 73, 44
2, 126840, Note_on_c, 0, 73, 0
2, 126840, Note_on_c, 0, 69, 0
2, 126840, Note_on_c, 0, 64, 0
2, 126960, Note_on_c, 0, 73, 44
2, 126960, Note_on_c, 0, 69, 44
2, 126960, Note_on_c, 0, 64, 44
2, 127440, Note_on_c, 0, 64, 0
2, 127440, Note_on_c, 0, 69, 0
2, 127440, Note_on_c, 0, 73, 0
2, 127680, Note_on_c, 0, 74, 46
2, 127740, Note_on_c, 0, 74, 0
2, 127740, Note_on_c, 0, 76, 35
2, 127800, Note_on_c, 0, 76, 0
2, 127800, Note_on_c, 0, 77, 35
2, 127860, Note_on_c, 0, 77, 0
2, 127860, Note_on_c, 0, 79, 35
2, 127920, Note_on_c, 0, 79, 0
2, 127920, Note_on_c, 0, 81, 40
2, 128040, Note_on_c, 0, 81, 0
2, 128160, Note_on_c, 0, 79, 46
2, 128220, Note_on_c, 0, 79, 0
2, 128220, Note_on_c, 0, 77, 36
2, 128280, Note_on_c, 0, 77, 0
2, 128280, Note_on_c, 0, 76, 36
2, 128340, Note_on_c, 0, 76, 0
2, 128340, Note_on_c, 0, 74, 36
2, 128400, Note_on_c, 0, 74, 0
2, 128400, Note_on_c, 0, 72, 40
2, 128520, Note_on_c, 0, 72, 0
2, 128640, Note_on_c, 0, 70, 45
2, 128700, Note_on_c, 0, 70, 0
2, 128700, Note_on_c, 0, 72, 36
2, 128760, Note_on_c, 0, 72, 0
2, 128760, Note_on_c, 0, 74, 36
2, 128820, Note_on_c, 0, 74, 0
2, 128820, Note_on_c, 0, 76, 36
2, 128880, Note_on_c, 0, 76, 0
2, 128880, Note_on_c, 0, 77, 41
2, 129000, Note_on_c, 0, 77, 0
2, 129120, Note_on_c, 0, 76, 46
2, 129180, Note_on_c, 0, 76, 0
2, 129180, Note_on_c, 0, 74, 37
2, 129240, Note_on_c, 0, 74, 0
2, 129240, Note_on_c, 0, 72, 37
2, 129300, Note_on_c, 0, 72, 0
2, 129300, Note_on_c, 0, 70, 37
2, 129360, Note_on_c, 0, 70, 0
2, 129360, Note_on_c, 0, 69, 43
2, 129480, Note_on_c, 0, 69, 0
2, 129600, Note_on_c, 0, 67, 46
2, 129660, Note_on_c, 0, 67, 0
2, 129660, Note_on_c, 0, 69, 37
2, 129720, Note_on_c, 0, 69, 0
2, 129720, Note_on_c, 0, 70, 37
2, 129780, Note_on_c, 0, 70, 0
2, 129780, Note_on_c, 0, 72, 37
2, 129840, Note_on_c, 0, 72, 0
2, 129840, Note_on_c, 0, 74, 44
2, 129960, Note_on_c, 0, 74, 0
2, 130080, Note_on_c, 0, 72, 47
2, 130140, Note_on_c, 0, 72, 0
2, 130140, Note_on_c, 0, 70, 37
2, 130200, Note_on_c, 0, 70, 0
2, 130200, Note_on_c, 0, 69, 37
2, 130260, Note_on_c, 0, 69, 0
2, 130260, Note_on_c, 0, 67, 37
2, 130320, Note_on_c, 0, 67, 0
2, 130320, Note_on_c, 0, 65, 43
2, 130440, Note_on_c, 0, 65, 0
2, 130800, Note_on_c, 0, 57, 45
2, 130800, Note_on_c, 0, 64, 45
2, 131520, Note_on_c, 0, 64, 0
2, 131520, Note_on_c, 0, 57, 0
2, 131520, Note_on_c, 0, 86, 47
2, 131580, Note_on_c, 0, 86, 0
2, 131580, Note_on_c, 0, 84, 37
2, 131640, Note_on_c, 0, 84, 0
2, 131640, Note_on_c, 0, 82, 37
2, 131700, Note_on_c, 0, 82, 0
2, 131700, Note_on_c, 0, 81, 37
2, 131760, Note_on_c, 0, 81, 0
2, 131760, Note_on_c, 0, 79, 40
2, 131880, Note_on_c, 0, 79, 0
2, 132000, Note_on_c, 0, 74, 48
2, 132060, Note_on_c, 0, 74, 0
2, 132060, Note_on_c, 0, 72, 37
2, 132120, Note_on_c, 0, 72, 0
2, 132120, Note_on_c, 0, 70, 37
2, 132180, Note_on_c, 0, 70, 0
2, 132180, Note_on_c, 0, 69, 37
2, 132240, Note_on_c, 0, 69, 0
2, 132240, Note_on_c, 0, 67, 40
2, 132360, Note_on_c, 0, 67, 0
2, 132720, Note_on_c, 0, 57, 45
2, 132720, Note_on_c, 0, 64, 45
2, 133440, Note_on_c, 0, 64, 0
2, 133440, Note_on_c, 0, 57, 0
2, 133440, Note_on_c, 0, 86, 47
2, 133500, Note_on_c, 0, 86, 0
2, 133500, Note_on_c, 0, 84, 37
2, 133560, Note_on_c, 0, 84, 0
2, 133560, Note_on_c, 0, 82, 37
2, 133620, Note_on_c, 0, 82, 0
2, 133620, Note_on_c, 0, 81, 37
2, 133680, Note_on_c, 0, 81, 0
2, 133680, Note_on_c, 0, 79, 40
2, 133800, Note_on_c, 0, 79, 0
2, 133920, Note_on_c, 0, 74, 48
2, 133980, Note_on_c, 0, 74, 0
2, 133980, Note_on_c, 0, 72, 37
2, 134040, Note_on_c, 0, 72, 0
2, 134040, Note_on_c, 0, 70, 37
2, 134100, Note_on_c, 0, 70, 0
2, 134100, Note_on_c, 0, 69, 37
2, 134160, Note_on_c, 0, 69, 0
2, 134160, Note_on_c, 0, 67, 40
2, 134280, Note_on_c, 0, 67, 0
2, 134640, Note_on_c, 0, 57, 45
2, 134640, Note_on_c, 0, 64, 45
2, 134880, Note_on_c, 0, 64, 0
2, 134880, Note_on_c, 0, 57, 0
2, 134880, Note_on_c, 0, 74, 40
2, 134940, Note_on_c, 0, 74, 0
2, 134940, Note_on_c, 0, 72, 36
2, 135000, Note_on_c, 0, 72, 0
2, 135000, Note_on_c, 0, 70, 36
2, 135060, Note_on_c, 0, 70, 0
2, 135060, Note_on_c, 0, 69, 36
2, 135120, Note_on_c, 0, 69, 0
2, 135120, Note_on_c, 0, 67, 40
2, 135240, Note_on_c, 0, 67, 0
2, 135600, Note_on_c, 0, 64, 38
2, 135600, Note_on_c, 0, 57, 38
2, 135840, Note_on_c, 0, 57, 0
2, 135840, Note_on_c, 0, 64, 0
2, 135840, Note_on_c, 0, 74, 34
2, 135900, Note_on_c, 0, 74, 0
2, 135900, Note_on_c, 0, 72, 34
2, 135960, Note_on_c, 0, 72, 0
2, 135960, Note_on_c, 0, 70, 34
2, 136020, Note_on_c, 0, 70, 0
2, 136020, Note_on_c, 0, 69, 34
2, 136080, Note_on_c, 0, 69, 0
2, 136080, Note_on_c, 0, 67, 32
2, 136200, Note_on_c, 0, 67, 0
2, 136560, Note_on_c, 0, 64, 37
2, 136560, Note_on_c, 0, 57, 37
2, 136800, Note_on_c, 0, 57, 0
2, 136800, Note_on_c, 0, 64, 0
2, 136800, Note_on_c, 0, 74, 32
2, 136860, Note_on_c, 0, 74, 0
2, 136860, Note_on_c, 0, 72, 32
2, 136920, Note_on_c, 0, 72, 0
2, 136920, Note_on_c, 0, 70, 32
2, 136980, Note_on_c, 0, 70, 0
2, 136980, Note_on_c, 0, 69, 32
2, 137040, Note_on_c, 0, 69, 0
2, 137040, Note_on_c, 0, 67, 29
2, 137160, Note_on_c, 0, 67, 0
2, 137520, Note_on_c, 0, 57, 35
2, 137520, Note_on_c, 0, 64, 35
2, 137760, Note_on_c, 0, 64, 0
2, 137760, Note_on_c, 0, 57, 0
2, 137760, Note_on_c, 0, 74, 32
2, 137820, Note_on_c, 0, 74, 0
2, 137820, Note_on_c, 0, 72, 32
2, 137880, Note_on_c, 0, 72, 0
2, 137880, Note_on_c, 0, 70, 32
2, 137940, Note_on_c, 0, 70, 0
2, 137940, Note_on_c, 0, 69, 32
2, 138000, Note_on_c, 0, 69, 0
2, 138000, Note_on_c, 0, 67, 29
2, 138120, Note_on_c, 0, 67, 0
2, 138480, Note_on_c, 0, 57, 37
2, 138480, Note_on_c, 0, 64, 37
2, 138480, Note_on_c, 0, 61, 37
2, 138600, Note_on_c, 0, 61, 0
2, 138600, Note_on_c, 0, 64, 0
2, 138600, Note_on_c, 0, 57, 0
2, 138960, Note_on_c, 0, 58, 37
2, 138960, Note_on_c, 0, 64, 37
2, 138960, Note_on_c, 0, 61, 37
2, 139080, Note_on_c, 0, 61, 0
2, 139080, Note_on_c, 0, 64, 0
2, 139080, Note_on_c, 0, 58, 0
2, 139440, Note_on_c, 0, 61, 34
2, 139440, Note_on_c, 0, 56, 34
2, 139440, Note_on_c, 0, 64, 34
2, 139560, Note_on_c, 0, 64, 0
2, 139560, Note_on_c, 0, 56, 0
2, 139560, Note_on_c, 0, 61, 0
2, 139920, Note_on_c, 0, 61, 35
2, 139920, Note_on_c, 0, 64, 35
2, 139920, Note_on_c, 0, 57, 35
2, 140040, Note_on_c, 0, 57, 0
2, 140040, Note_on_c, 0, 64, 0
2, 140040, Note_on_c, 0, 61, 0
2, 140400, Note_on_c, 0, 61, 36
2, 140400, Note_on_c, 0, 58, 36
2, 140400, Note_on_c, 0, 64, 36
2, 140520, Note_on_c, 0, 64, 0
2, 140520, Note_on_c, 0, 58, 0
2, 140520, Note_on_c, 0, 61, 0
2, 140880, Note_on_c, 0, 61, 40
2, 140880, Note_on_c, 0, 59, 40
2, 140880, Note_on_c, 0, 64, 40
2, 141000, Note_on_c, 0, 64, 0
2, 141000, Note_on_c, 0, 59, 0
2, 141000, Note_on_c, 0, 61, 0
2, 141360, Note_on_c, 0, 60, 41
2, 141360, Note_on_c, 0, 61, 41
2, 141360, Note_on_c, 0, 64, 41
2, 141480, Note_on_c, 0, 64, 0
2, 141480, Note_on_c, 0, 61, 0
2, 141480, Note_on_c, 0, 60, 0
2, 141840, Note_on_c, 0, 59, 43
2, 141840, Note_on_c, 0, 64, 43
2, 141840, Note_on_c, 0, 61, 43
2, 141960, Note_on_c, 0, 61, 0
2, 141960, Note_on_c, 0, 64, 0
2, 141960, Note_on_c, 0, 59, 0
2, 142320, Note_on_c, 0, 58, 45
2, 142320, Note_on_c, 0, 64, 45
2, 142320, Note_on_c, 0, 61, 45
2, 142440, Note_on_c, 0, 61, 0
2, 142440, Note_on_c, 0, 64, 0
2, 142440, Note_on_c, 0, 58, 0
2, 142800, Note_on_c, 0, 61, 48
2, 142800, Note_on_c, 0, 57, 48
2, 142800, Note_on_c, 0, 64, 48
2, 142920, Note_on_c, 0, 64, 0
2, 142920, Note_on_c, 0, 57, 0
2, 142920, Note_on_c, 0, 61, 0
2, 143280, Note_on_c, 0, 61, 49
2, 143280, Note_on_c, 0, 56, 49
2, 143280, Note_on_c, 0, 64, 49
2, 143400, Note_on_c, 0, 64, 0
2, 143400, Note_on_c, 0, 56, 0
2, 143400, Note_on_c, 0, 61, 0
2, 143760, Note_on_c, 0, 55, 51
2, 143760, Note_on_c, 0, 58, 51
2, 143760, Note_on_c, 0, 61, 51
2, 143880, Note_on_c, 0, 61, 0
2, 143880, Note_on_c, 0, 58, 0
2, 143880, Note_on_c, 0, 55, 0
2, 144240, Note_on_c, 0, 54, 53
2, 144240, Note_on_c, 0, 61, 53
2, 144240, Note_on_c, 0, 58, 53
2, 144360, Note_on_c, 0, 58, 0
2, 144360, Note_on_c, 0, 61, 0
2, 144360, Note_on_c, 0, 54, 0
2, 144720, Note_on_c, 0, 53, 55
2, 144720, Note_on_c, 0, 61, 55
2, 144720, Note_on_c, 0, 58, 55
2, 144840, Note_on_c, 0, 58, 0
2, 144840, Note_on_c, 0, 61, 0
2, 144840, Note_on_c, 0, 53, 0
2, 145200, Note_on_c, 0, 57, 58
2, 145200, Note_on_c, 0, 52, 58
2, 145200, Note_on_c, 0, 61, 58
2, 145320, Note_on_c, 0, 61, 0
2, 145320, Note_on_c, 0, 52, 0
2, 145320, Note_on_c, 0, 57, 0
2, 145680, Note_on_c, 0, 55, 59
2, 145680, Note_on_c, 0, 57, 59
2, 145680, Note_on_c, 0, 61, 59
2, 145680, Note_on_c, 0, 51, 59
2, 145800, Note_on_c, 0, 51, 0
2, 145800, Note_on_c, 0, 55, 0
2, 145800, Note_on_c, 0, 57, 0
2, 145800, Note_on_c, 0, 61, 0
2, 147600, Note_on_c, 0, 74, 86
2, 147660, Note_on_c, 0, 74, 0
2, 147660, Note_on_c, 0, 76, 86
2, 147720, Note_on_c, 0, 76, 0
2, 147720, Note_on_c, 0, 77, 86
2, 147780, Note_on_c, 0, 77, 0
2, 147780, Note_on_c, 0, 79, 86
2, 147840, Note_on_c, 0, 79, 0
2, 147840, Note_on_c, 0, 81, 90
2, 147960, Note_on_c, 0, 81, 0
2, 148080, Note_on_c, 0, 74, 68
2, 148080, Note_on_c, 0, 77, 68
2, 148080, Note_on_c, 0, 86, 81
2, 148200, Note_on_c, 0, 86, 0
2, 148200, Note_on_c, 0, 77, 0
2, 148200, Note_on_c, 0, 74, 0
2, 148320, Note_on_c, 0, 74, 68
2, 148320, Note_on_c, 0, 77, 68
2, 148320, Note_on_c, 0, 86, 81
2, 148440, Note_on_c, 0, 86, 0
2, 148440, Note_on_c, 0, 77, 0
2, 148440, Note_on_c, 0, 74, 0
2, 148560, Note_on_c, 0, 74, 68
2, 148560, Note_on_c, 0, 77, 68
2, 148560, Note_on_c, 0, 85, 81
2, 148680, Note_on_c, 0, 85, 0
2, 148680, Note_on_c, 0, 77, 0
2, 148680, Note_on_c, 0, 74, 0
2, 148800, Note_on_c, 0, 74, 73
2, 148800, Note_on_c, 0, 77, 73
2, 148800, Note_on_c, 0, 85, 86
2, 148920, Note_on_c, 0, 85, 0
2, 148920, Note_on_c, 0, 77, 0
2, 148920, Note_on_c, 0, 74, 0
2, 149040, Note_on_c, 0, 74, 68
2, 149040, Note_on_c, 0, 77, 68
2, 149040, Note_on_c, 0, 84, 81
2, 149160, Note_on_c, 0, 84, 0
2, 149160, Note_on_c, 0, 77, 0
2, 149160, Note_on_c, 0, 74, 0
2, 149280, Note_on_c, 0, 77, 68
2, 149280, Note_on_c, 0, 84, 81
2, 149280, Note_on_c, 0, 74, 68
2, 149400, Note_on_c, 0, 74, 0
2, 149400, Note_on_c, 0, 84, 0
2, 149400, Note_on_c, 0, 77, 0
2, 149520, Note_on_c, 0, 74, 68
2, 149520, Note_on_c, 0, 77, 68
2, 149520, Note_on_c, 0, 83, 81
2, 149640, Note_on_c, 0, 83, 0
2, 149640, Note_on_c, 0, 77, 0
2, 149640, Note_on_c, 0, 74, 0
2, 149760, Note_on_c, 0, 74, 73
2, 149760, Note_on_c, 0, 77, 73
2, 149760, Note_on_c, 0, 83, 86
2, 149880, Note_on_c, 0, 83, 0
2, 149880, Note_on_c, 0, 77, 0
2, 149880, Note_on_c, 0, 74, 0
2, 150000, Note_on_c, 0, 74, 69
2, 150000, Note_on_c, 0, 77, 69
2, 150000, Note_on_c, 0, 82, 82
2, 150120, Note_on_c, 0, 82, 0
2, 150120, Note_on_c, 0, 77, 0
2, 150120, Note_on_c, 0, 74, 0
2, 150240, Note_on_c, 0, 74, 69
2, 150240, Note_on_c, 0, 77, 69
2, 150240, Note_on_c, 0, 82, 82
2, 150360, Note_on_c, 0, 82, 0
2, 150360, Note_on_c, 0, 77, 0
2, 150360, Note_on_c, 0, 74, 0
2, 150480, Note_on_c, 0, 77, 69
2, 150480, Note_on_c, 0, 81, 82
2, 150480, Note_on_c, 0, 74, 69
2, 150600, Note_on_c, 0, 74, 0
2, 150600, Note_on_c, 0, 81, 0
2, 150600, Note_on_c, 0, 77, 0
2, 150720, Note_on_c, 0, 71, 79
2, 150720, Note_on_c, 0, 76, 79
2, 150720, Note_on_c, 0, 80, 93
2, 150840, Note_on_c, 0, 80, 0
2, 150840, Note_on_c, 0, 76, 0
2, 150840, Note_on_c, 0, 71, 0
2, 150960, Note_on_c, 0, 71, 82
2, 150960, Note_on_c, 0, 76, 82
2, 150960, Note_on_c, 0, 80, 97
2, 151440, Note_on_c, 0, 80, 0
2, 151440, Note_on_c, 0, 76, 0
2, 151440, Note_on_c, 0, 71, 0
2, 151440, Note_on_c, 0, 79, 86
2, 151500, Note_on_c, 0, 79, 0
2, 151500, Note_on_c, 0, 81, 86
2, 151560, Note_on_c, 0, 81, 0
2, 151560, Note_on_c, 0, 82, 86
2, 151620, Note_on_c, 0, 82, 0
2, 151620, Note_on_c, 0, 84, 86
2, 151680, Note_on_c, 0, 84, 0
2, 151680, Note_on_c, 0, 86, 90
2, 151800, Note_on_c, 0, 86, 0
2, 151920, Note_on_c, 0, 79, 68
2, 151920, Note_on_c, 0, 91, 81
2, 151920, Note_on_c, 0, 82, 68
2, 152040, Note_on_c, 0, 82, 0
2, 152040, Note_on_c, 0, 91, 0
2, 152040, Note_on_c, 0, 79, 0
2, 152160, Note_on_c, 0, 91, 81
2, 152160, Note_on_c, 0, 79, 68
2, 152160, Note_on_c, 0, 82, 68
2, 152280, Note_on_c, 0, 82, 0
2, 152280, Note_on_c, 0, 79, 0
2, 152280, Note_on_c, 0, 91, 0
2, 152400, Note_on_c, 0, 79, 68
2, 152400, Note_on_c, 0, 82, 68
2, 152400, Note_on_c, 0, 90, 81
2, 152520, Note_on_c, 0, 90, 0
2, 152520, Note_on_c, 0, 82, 0
2, 152520, Note_on_c, 0, 79, 0
2, 152640, Note_on_c, 0, 90, 86
2, 152640, Note_on_c, 0, 82, 73
2, 152640, Note_on_c, 0, 79, 73
2, 152760, Note_on_c, 0, 79, 0
2, 152760, Note_on_c, 0, 82, 0
2, 152760, Note_on_c, 0, 90, 0
2, 152880, Note_on_c, 0, 79, 68
2, 152880, Note_on_c, 0, 89, 81
2, 152880, Note_on_c, 0, 82, 68
2, 153000, Note_on_c, 0, 82, 0
2, 153000, Note_on_c, 0, 89, 0
2, 153000, Note_on_c, 0, 79, 0
2, 153120, Note_on_c, 0, 82, 68
2, 153120, Note_on_c, 0, 79, 68
2, 153120, Note_on_c, 0, 89, 81
2, 153240, Note_on_c, 0, 89, 0
2, 153240, Note_on_c, 0, 79, 0
2, 153240, Note_on_c, 0, 82, 0
2, 153360, Note_on_c, 0, 79, 68
2, 153360, Note_on_c, 0, 88, 81
2, 153360, Note_on_c, 0, 82, 68
2, 153480, Note_on_c, 0, 82, 0
2, 153480, Note_on_c, 0, 88, 0
2, 153480, Note_on_c, 0, 79, 0
2, 153600, Note_on_c, 0, 82, 73
2, 153600, Note_on_c, 0, 79, 73
2, 153600, Note_on_c, 0, 88, 86
2, 153720, Note_on_c, 0, 88, 0
2, 153720, Note_on_c, 0, 79, 0
2, 153720, Note_on_c, 0, 82, 0
2, 153840, Note_on_c, 0, 79, 69
2, 153840, Note_on_c, 0, 87, 82
2, 153840, Note_on_c, 0, 82, 69
2, 153960, Note_on_c, 0, 82, 0
2, 153960, Note_on_c, 0, 87, 0
2, 153960, Note_on_c, 0, 79, 0
2, 154080, Note_on_c, 0, 82, 69
2, 154080, Note_on_c, 0, 87, 82
2, 154080, Note_on_c, 0, 79, 69
2, 154200, Note_on_c, 0, 79, 0
2, 154200, Note_on_c, 0, 87, 0
2, 154200, Note_on_c, 0, 82, 0
2, 154320, Note_on_c, 0, 86, 82
2, 154320, Note_on_c, 0, 82, 69
2, 154320, Note_on_c, 0, 79, 69
2, 154440, Note_on_c, 0, 79, 0
2, 154440, Note_on_c, 0, 82, 0
2, 154440, Note_on_c, 0, 86, 0
2, 154560, Note_on_c, 0, 76, 79
2, 154560, Note_on_c, 0, 85, 93
2, 154560, Note_on_c, 0, 81, 79
2, 154680, Note_on_c, 0, 81, 0
2, 154680, Note_on_c, 0, 85, 0
2, 154680, Note_on_c, 0, 76, 0
2, 154800, Note_on_c, 0, 85, 97
2, 154800, Note_on_c, 0, 76, 82
2, 154800, Note_on_c, 0, 81, 82
2, 155280, Note_on_c, 0, 81, 0
2, 155280, Note_on_c, 0, 76, 0
2, 155280, Note_on_c, 0, 85, 0
2, 155520, Note_on_c, 0, 86, 106
2, 155580, Note_on_c, 0, 86, 0
2, 155580, Note_on_c, 0, 88, 83
2, 155640, Note_on_c, 0, 88, 0
2, 155640, Note_on_c, 0, 89, 83
2, 155700, Note_on_c, 0, 89, 0
2, 155700, Note_on_c, 0, 91, 83
2, 155760, Note_on_c, 0, 91, 0
2, 155760, Note_on_c, 0, 93, 83
2, 155880, Note_on_c, 0, 93, 0
2, 156000, Note_on_c, 0, 91, 104
2, 156060, Note_on_c, 0, 91, 0
2, 156060, Note_on_c, 0, 89, 84
2, 156120, Note_on_c, 0, 89, 0
2, 156120, Note_on_c, 0, 88, 84
2, 156180, Note_on_c, 0, 88, 0
2, 156180, Note_on_c, 0, 86, 84
2, 156240, Note_on_c, 0, 86, 0
2, 156240, Note_on_c, 0, 84, 85
2, 156360, Note_on_c, 0, 84, 0
2, 156480, Note_on_c, 0, 82, 104
2, 156540, Note_on_c, 0, 82, 0
2, 156540, Note_on_c, 0, 84, 84
2, 156600, Note_on_c, 0, 84, 0
2, 156600, Note_on_c, 0, 86, 84
2, 156660, Note_on_c, 0, 86, 0
2, 156660, Note_on_c, 0, 88, 84
2, 156720, Note_on_c, 0, 88, 0
2, 156720, Note_on_c, 0, 89, 84
2, 156840, Note_on_c, 0, 89, 0
2, 156960, Note_on_c, 0, 88, 104
2, 157020, Note_on_c, 0, 88, 0
2, 157020, Note_on_c, 0, 86, 84
2, 157080, Note_on_c, 0, 86, 0
2, 157080, Note_on_c, 0, 84, 84
2, 157140, Note_on_c, 0, 84, 0
2, 157140, Note_on_c, 0, 82, 84
2, 157200, Note_on_c, 0, 82, 0
2, 157200, Note_on_c, 0, 81, 84
2, 157320, Note_on_c, 0, 81, 0
2, 157440, Note_on_c, 0, 79, 104
2, 157500, Note_on_c, 0, 79, 0
2, 157500, Note_on_c, 0, 81, 86
2, 157560, Note_on_c, 0, 81, 0
2, 157560, Note_on_c, 0, 82, 86
2, 157620, Note_on_c, 0, 82, 0
2, 157620, Note_on_c, 0, 84, 86
2, 157680, Note_on_c, 0, 84, 0
2, 157680, Note_on_c, 0, 86, 86
2, 157800, Note_on_c, 0, 86, 0
2, 157920, Note_on_c, 0, 84, 104
2, 157980, Note_on_c, 0, 84, 0
2, 157980, Note_on_c, 0, 82, 86
2, 158040, Note_on_c, 0, 82, 0
2, 158040, Note_on_c, 0, 81, 85
2, 158100, Note_on_c, 0, 81, 0
2, 158100, Note_on_c, 0, 79, 85
2, 158160, Note_on_c, 0, 79, 0
2, 158160, Note_on_c, 0, 77, 85
2, 158280, Note_on_c, 0, 77, 0
2, 158400, Note_on_c, 0, 81, 94
2, 158400, Note_on_c, 0, 88, 94
2, 158400, Note_on_c, 0, 76, 94
2, 158520, Note_on_c, 0, 76, 0
2, 158520, Note_on_c, 0, 88, 0
2, 158520, Note_on_c, 0, 81, 0
2, 158640, Note_on_c, 0, 76, 94
2, 158640, Note_on_c, 0, 81, 94
2, 158640, Note_on_c, 0, 88, 94
2, 159120, Note_on_c, 0, 88, 0
2, 159120, Note_on_c, 0, 81, 0
2, 159120, Note_on_c, 0, 76, 0
2, 159360, Note_on_c, 0, 82, 92
2, 159420, Note_on_c, 0, 82, 0
2, 159420, Note_on_c, 0, 84, 83
2, 159480, Note_on_c, 0, 84, 0
2, 159480, Note_on_c, 0, 86, 83
2, 159540, Note_on_c, 0, 86, 0
2, 159540, Note_on_c, 0, 88, 83
2, 159600, Note_on_c, 0, 88, 0
2, 159600, Note_on_c, 0, 89, 83
2, 159720, Note_on_c, 0, 89, 0
2, 159840, Note_on_c, 0, 88, 92
2, 159900, Note_on_c, 0, 88, 0
2, 159900, Note_on_c, 0, 86, 84
2, 159960, Note_on_c, 0, 86, 0
2, 159960, Note_on_c, 0, 84, 84
2, 160020, Note_on_c, 0, 84, 0
2, 160020, Note_on_c, 0, 82, 84
2, 160080, Note_on_c, 0, 82, 0
2, 160080, Note_on_c, 0, 81, 85
2, 160200, Note_on_c, 0, 81, 0
2, 160320, Note_on_c, 0, 79, 92
2, 160380, Note_on_c, 0, 79, 0
2, 160380, Note_on_c, 0, 81, 84
2, 160440, Note_on_c, 0, 81, 0
2, 160440, Note_on_c, 0, 82, 84
2, 160500, Note_on_c, 0, 82, 0
2, 160500, Note_on_c, 0, 84, 84
2, 160560, Note_on_c, 0, 84, 0
2, 160560, Note_on_c, 0, 86, 84
2, 160680, Note_on_c, 0, 86, 0
2, 160800, Note_on_c, 0, 84, 92
2, 160860, Note_on_c, 0, 84, 0
2, 160860, Note_on_c, 0, 82, 84
2, 160920, Note_on_c, 0, 82, 0
2, 160920, Note_on_c, 0, 81, 84
2, 160980, Note_on_c, 0, 81, 0
2, 160980, Note_on_c, 0, 79, 84
2, 161040, Note_on_c, 0, 79, 0
2, 161040, Note_on_c, 0, 77, 84
2, 161160, Note_on_c, 0, 77, 0
2, 161280, Note_on_c, 0, 75, 94
2, 161340, Note_on_c, 0, 75, 0
2, 161340, Note_on_c, 0, 77, 83
2, 161400, Note_on_c, 0, 77, 0
2, 161400, Note_on_c, 0, 79, 83
2, 161460, Note_on_c, 0, 79, 0
2, 161460, Note_on_c, 0, 81, 83
2, 161520, Note_on_c, 0, 81, 0
2, 161520, Note_on_c, 0, 82, 83
2, 161640, Note_on_c, 0, 82, 0
2, 161760, Note_on_c, 0, 81, 92
2, 161820, Note_on_c, 0, 81, 0
2, 161820, Note_on_c, 0, 79, 83
2, 161880, Note_on_c, 0, 79, 0
2, 161880, Note_on_c, 0, 77, 83
2, 161940, Note_on_c, 0, 77, 0
2, 161940, Note_on_c, 0, 75, 83
2, 162000, Note_on_c, 0, 75, 0
2, 162000, Note_on_c, 0, 74, 83
2, 162120, Note_on_c, 0, 74, 0
2, 162240, Note_on_c, 0, 76, 86
2, 162240, Note_on_c, 0, 81, 86
2, 162240, Note_on_c, 0, 69, 86
2, 162360, Note_on_c, 0, 69, 0
2, 162360, Note_on_c, 0, 81, 0
2, 162360, Note_on_c, 0, 76, 0
2, 162480, Note_on_c, 0, 69, 86
2, 162480, Note_on_c, 0, 76, 86
2, 162480, Note_on_c, 0, 81, 86
2, 162960, Note_on_c, 0, 81, 0
2, 162960, Note_on_c, 0, 76, 0
2, 162960, Note_on_c, 0, 69, 0
2, 163200, Note_on_c, 0, 74, 75
2, 163260, Note_on_c, 0, 74, 0
2, 163260, Note_on_c, 0, 76, 66
2, 163320, Note_on_c, 0, 76, 0
2, 163320, Note_on_c, 0, 77, 66
2, 163380, Note_on_c, 0, 77, 0
2, 163380, Note_on_c, 0, 79, 66
2, 163440, Note_on_c, 0, 79, 0
2, 163440, Note_on_c, 0, 81, 66
2, 163560, Note_on_c, 0, 81, 0
2, 163680, Note_on_c, 0, 79, 77
2, 163740, Note_on_c, 0, 79, 0
2, 163740, Note_on_c, 0, 77, 65
2, 163800, Note_on_c, 0, 77, 0
2, 163800, Note_on_c, 0, 76, 65
2, 163860, Note_on_c, 0, 76, 0
2, 163860, Note_on_c, 0, 74, 65
2, 163920, Note_on_c, 0, 74, 0
2, 163920, Note_on_c, 0, 72, 65
2, 164040, Note_on_c, 0, 72, 0
2, 164160, Note_on_c, 0, 70, 73
2, 164220, Note_on_c, 0, 70, 0
2, 164220, Note_on_c, 0, 72, 65
2, 164280, Note_on_c, 0, 72, 0
2, 164280, Note_on_c, 0, 74, 64
2, 164340, Note_on_c, 0, 74, 0
2, 164340, Note_on_c, 0, 76, 64
2, 164400, Note_on_c, 0, 76, 0
2, 164400, Note_on_c, 0, 77, 64
2, 164520, Note_on_c, 0, 77, 0
2, 164640, Note_on_c, 0, 76, 72
2, 164700, Note_on_c, 0, 76, 0
2, 164700, Note_on_c, 0, 74, 64
2, 164760, Note_on_c, 0, 74, 0
2, 164760, Note_on_c, 0, 72, 63
2, 164820, Note_on_c, 0, 72, 0
2, 164820, Note_on_c, 0, 70, 63
2, 164880, Note_on_c, 0, 70, 0
2, 164880, Note_on_c, 0, 69, 63
2, 165000, Note_on_c, 0, 69, 0
2, 165120, Note_on_c, 0, 67, 71
2, 165180, Note_on_c, 0, 67, 0
2, 165180, Note_on_c, 0, 69, 63
2, 165240, Note_on_c, 0, 69, 0
2, 165240, Note_on_c, 0, 70, 63
2, 165300, Note_on_c, 0, 70, 0
2, 165300, Note_on_c, 0, 72, 62
2, 165360, Note_on_c, 0, 72, 0
2, 165360, Note_on_c, 0, 74, 62
2, 165480, Note_on_c, 0, 74, 0
2, 165600, Note_on_c, 0, 72, 71
2, 165660, Note_on_c, 0, 72, 0
2, 165660, Note_on_c, 0, 70, 62
2, 165720, Note_on_c, 0, 70, 0
2, 165720, Note_on_c, 0, 69, 62
2, 165780, Note_on_c, 0, 69, 0
2, 165780, Note_on_c, 0, 67, 60
2, 165840, Note_on_c, 0, 67, 0
2, 165840, Note_on_c, 0, 65, 60
2, 165960, Note_on_c, 0, 65, 0
2, 166080, Note_on_c, 0, 64, 71
2, 166080, Note_on_c, 0, 69, 71
2, 166080, Note_on_c, 0, 76, 71
2, 166200, Note_on_c, 0, 76, 0
2, 166200, Note_on_c, 0, 69, 0
2, 166200, Note_on_c, 0, 64, 0
2, 166320, Note_on_c, 0, 64, 72
2, 166320, Note_on_c, 0, 69, 72
2, 166320, Note_on_c, 0, 76, 72
2, 166800, Note_on_c, 0, 76, 0
2, 166800, Note_on_c, 0, 69, 0
2, 166800, Note_on_c, 0, 64, 0
2, 167040, Note_on_c, 0, 70, 58
2, 167100, Note_on_c, 0, 70, 0
2, 167100, Note_on_c, 0, 72, 54
2, 167160, Note_on_c, 0, 72, 0
2, 167160, Note_on_c, 0, 74, 54
2, 167220, Note_on_c, 0, 74, 0
2, 167220, Note_on_c, 0, 76, 54
2, 167280, Note_on_c, 0, 76, 0
2, 167280, Note_on_c, 0, 77, 54
2, 167400, Note_on_c, 0, 77, 0
2, 167520, Note_on_c, 0, 76, 60
2, 167580, Note_on_c, 0, 76, 0
2, 167580, Note_on_c, 0, 74, 54
2, 167640, Note_on_c, 0, 74, 0
2, 167640, Note_on_c, 0, 72, 54
2, 167700, Note_on_c, 0, 72, 0
2, 167700, Note_on_c, 0, 70, 54
2, 167760, Note_on_c, 0, 70, 0
2, 167760, Note_on_c, 0, 69, 55
2, 167880, Note_on_c, 0, 69, 0
2, 168000, Note_on_c, 0, 67, 59
2, 168060, Note_on_c, 0, 67, 0
2, 168060, Note_on_c, 0, 69, 54
2, 168120, Note_on_c, 0, 69, 0
2, 168120, Note_on_c, 0, 70, 54
2, 168180, Note_on_c, 0, 70, 0
2, 168180, Note_on_c, 0, 72, 54
2, 168240, Note_on_c, 0, 72, 0
2, 168240, Note_on_c, 0, 74, 52
2, 168360, Note_on_c, 0, 74, 0
2, 168480, Note_on_c, 0, 72, 56
2, 168540, Note_on_c, 0, 72, 0
2, 168540, Note_on_c, 0, 70, 52
2, 168600, Note_on_c, 0, 70, 0
2, 168600, Note_on_c, 0, 69, 52
2, 168660, Note_on_c, 0, 69, 0
2, 168660, Note_on_c, 0, 67, 52
2, 168720, Note_on_c, 0, 67, 0
2, 168720, Note_on_c, 0, 65, 52
2, 168840, Note_on_c, 0, 65, 0
2, 168960, Note_on_c, 0, 63, 56
2, 169020, Note_on_c, 0, 63, 0
2, 169020, Note_on_c, 0, 65, 51
2, 169080, Note_on_c, 0, 65, 0
2, 169080, Note_on_c, 0, 67, 51
2, 169140, Note_on_c, 0, 67, 0
2, 169140, Note_on_c, 0, 69, 51
2, 169200, Note_on_c, 0, 69, 0
2, 169200, Note_on_c, 0, 70, 51
2, 169320, Note_on_c, 0, 70, 0
2, 169440, Note_on_c, 0, 69, 55
2, 169500, Note_on_c, 0, 69, 0
2, 169500, Note_on_c, 0, 67, 50
2, 169560, Note_on_c, 0, 67, 0
2, 169560, Note_on_c, 0, 65, 50
2, 169620, Note_on_c, 0, 65, 0
2, 169620, Note_on_c, 0, 63, 50
2, 169680, Note_on_c, 0, 63, 0
2, 169680, Note_on_c, 0, 62, 50
2, 169800, Note_on_c, 0, 62, 0
2, 169920, Note_on_c, 0, 57, 43
2, 169920, Note_on_c, 0, 64, 43
2, 169920, Note_on_c, 0, 69, 51
2, 170040, Note_on_c, 0, 69, 0
2, 170040, Note_on_c, 0, 64, 0
2, 170040, Note_on_c, 0, 57, 0
2, 170160, Note_on_c, 0, 57, 44
2, 170160, Note_on_c, 0, 64, 44
2, 170160, Note_on_c, 0, 69, 52
2, 170640, Note_on_c, 0, 69, 0
2, 170640, Note_on_c, 0, 64, 0
2, 170640, Note_on_c, 0, 57, 0
2, 170880, Note_on_c, 0, 86, 59
2, 170940, Note_on_c, 0, 86, 0
2, 170940, Note_on_c, 0, 84, 47
2, 171000, Note_on_c, 0, 84, 0
2, 171000, Note_on_c, 0, 82, 47
2, 171060, Note_on_c, 0, 82, 0
2, 171060, Note_on_c, 0, 81, 47
2, 171120, Note_on_c, 0, 81, 0
2, 171120, Note_on_c, 0, 79, 51
2, 171240, Note_on_c, 0, 79, 0
2, 171360, Note_on_c, 0, 74, 60
2, 171420, Note_on_c, 0, 74, 0
2, 171420, Note_on_c, 0, 72, 47
2, 171480, Note_on_c, 0, 72, 0
2, 171480, Note_on_c, 0, 70, 47
2, 171540, Note_on_c, 0, 70, 0
2, 171540, Note_on_c, 0, 69, 47
2, 171600, Note_on_c, 0, 69, 0
2, 171600, Note_on_c, 0, 67, 51
2, 171720, Note_on_c, 0, 67, 0
2, 172080, Note_on_c, 0, 69, 51
2, 172080, Note_on_c, 0, 57, 43
2, 172080, Note_on_c, 0, 64, 43
2, 172800, Note_on_c, 0, 64, 0
2, 172800, Note_on_c, 0, 57, 0
2, 172800, Note_on_c, 0, 69, 0
2, 172800, Note_on_c, 0, 86, 59
2, 172860, Note_on_c, 0, 86, 0
2, 172860, Note_on_c, 0, 84, 47
2, 172920, Note_on_c, 0, 84, 0
2, 172920, Note_on_c, 0, 82, 47
2, 172980, Note_on_c, 0, 82, 0
2, 172980, Note_on_c, 0, 81, 47
2, 173040, Note_on_c, 0, 81, 0
2, 173040, Note_on_c, 0, 79, 51
2, 173160, Note_on_c, 0, 79, 0
2, 173280, Note_on_c, 0, 74, 60
2, 173340, Note_on_c, 0, 74, 0
2, 173340, Note_on_c, 0, 72, 47
2, 173400, Note_on_c, 0, 72, 0
2, 173400, Note_on_c, 0, 70, 47
2, 173460, Note_on_c, 0, 70, 0
2, 173460, Note_on_c, 0, 69, 47
2, 173520, Note_on_c, 0, 69, 0
2, 173520, Note_on_c, 0, 67, 51
2, 173640, Note_on_c, 0, 67, 0
2, 174000, Note_on_c, 0, 69, 43
2, 174000, Note_on_c, 0, 57, 36
2, 174000, Note_on_c, 0, 64, 36
2, 174120, Note_on_c, 0, 64, 0
2, 174120, Note_on_c, 0, 57, 0
2, 174120, Note_on_c, 0, 69, 0
2, 174240, Note_on_c, 0, 74, 51
2, 174300, Note_on_c, 0, 74, 0
2, 174300, Note_on_c, 0, 72, 46
2, 174360, Note_on_c, 0, 72, 0
2, 174360, Note_on_c, 0, 70, 46
2, 174420, Note_on_c, 0, 70, 0
2, 174420, Note_on_c, 0, 69, 46
2, 174480, Note_on_c, 0, 69, 0
2, 174480, Note_on_c, 0, 67, 50
2, 174600, Note_on_c, 0, 67, 0
2, 174960, Note_on_c, 0, 69, 43
2, 174960, Note_on_c, 0, 57, 36
2, 174960, Note_on_c, 0, 64, 36
2, 175080, Note_on_c, 0, 64, 0
2, 175080, Note_on_c, 0, 57, 0
2, 175080, Note_on_c, 0, 69, 0
2, 175200, Note_on_c, 0, 74, 42
2, 175260, Note_on_c, 0, 74, 0
2, 175260, Note_on_c, 0, 72, 42
2, 175320, Note_on_c, 0, 72, 0
2, 175320, Note_on_c, 0, 70, 42
2, 175380, Note_on_c, 0, 70, 0
2, 175380, Note_on_c, 0, 69, 42
2, 175440, Note_on_c, 0, 69, 0
2, 175440, Note_on_c, 0, 67, 40
2, 175560, Note_on_c, 0, 67, 0
2, 175920, Note_on_c, 0, 69, 40
2, 175920, Note_on_c, 0, 57, 34
2, 175920, Note_on_c, 0, 64, 34
2, 176040, Note_on_c, 0, 64, 0
2, 176040, Note_on_c, 0, 57, 0
2, 176040, Note_on_c, 0, 69, 0
2, 176160, Note_on_c, 0, 74, 40
2, 176220, Note_on_c, 0, 74, 0
2, 176220, Note_on_c, 0, 72, 40
2, 176280, Note_on_c, 0, 72, 0
2, 176280, Note_on_c, 0, 70, 40
2, 176340, Note_on_c, 0, 70, 0
2, 176340, Note_on_c, 0, 69, 39
2, 176400, Note_on_c, 0, 69, 0
2, 176400, Note_on_c, 0, 67, 36
2, 176520, Note_on_c, 0, 67, 0
2, 176880, Note_on_c, 0, 69, 36
2, 176880, Note_on_c, 0, 57, 36
2, 176880, Note_on_c, 0, 64, 36
2, 177000, Note_on_c, 0, 64, 0
2, 177000, Note_on_c, 0, 57, 0
2, 177000, Note_on_c, 0, 69, 0
2, 177120, Note_on_c, 0, 74, 37
2, 177180, Note_on_c, 0, 74, 0
2, 177180, Note_on_c, 0, 72, 37
2, 177240, Note_on_c, 0, 72, 0
2, 177240, Note_on_c, 0, 70, 37
2, 177300, Note_on_c, 0, 70, 0
2, 177300, Note_on_c, 0, 69, 37
2, 177360, Note_on_c, 0, 69, 0
2, 177360, Note_on_c, 0, 67, 35
2, 177480, Note_on_c, 0, 67, 0
2, 178320, Note_on_c, 0, 50, 46
2, 178380, Note_on_c, 0, 50, 0
2, 178380, Note_on_c, 0, 52, 46
2, 178440, Note_on_c, 0, 52, 0
2, 178440, Note_on_c, 0, 53, 46
2, 178500, Note_on_c, 0, 53, 0
2, 178500, Note_on_c, 0, 55, 46
2, 178560, Note_on_c, 0, 55, 0
2, 178560, Note_on_c, 0, 57, 50
2, 178680, Note_on_c, 0, 57, 0
2, 178800, Note_on_c, 0, 50, 36
2, 178800, Note_on_c, 0, 53, 36
2, 178800, Note_on_c, 0, 62, 43
2, 178920, Note_on_c, 0, 62, 0
2, 178920, Note_on_c, 0, 53, 0
2, 178920, Note_on_c, 0, 50, 0
2, 179040, Note_on_c, 0, 50, 36
2, 179040, Note_on_c, 0, 53, 36
2, 179040, Note_on_c, 0, 62, 43
2, 179160, Note_on_c, 0, 62, 0
2, 179160, Note_on_c, 0, 53, 0
2, 179160, Note_on_c, 0, 50, 0
2, 179280, Note_on_c, 0, 50, 36
2, 179280, Note_on_c, 0, 53, 36
2, 179280, Note_on_c, 0, 61, 43
2, 179400, Note_on_c, 0, 61, 0
2, 179400, Note_on_c, 0, 53, 0
2, 179400, Note_on_c, 0, 50, 0
2, 179520, Note_on_c, 0, 53, 39
2, 179520, Note_on_c, 0, 61, 46
2, 179520, Note_on_c, 0, 50, 39
2, 179640, Note_on_c, 0, 50, 0
2, 179640, Note_on_c, 0, 61, 0
2, 179640, Note_on_c, 0, 53, 0
2, 179760, Note_on_c, 0, 50, 36
2, 179760, Note_on_c, 0, 53, 36
2, 179760, Note_on_c, 0, 60, 43
2, 179880, Note_on_c, 0, 60, 0
2, 179880, Note_on_c, 0, 53, 0
2, 179880, Note_on_c, 0, 50, 0
2, 180000, Note_on_c, 0, 50, 36
2, 180000, Note_on_c, 0, 53, 36
2, 180000, Note_on_c, 0, 60, 43
2, 180120, Note_on_c, 0, 60, 0
2, 180120, Note_on_c, 0, 53, 0
2, 180120, Note_on_c, 0, 50, 0
2, 180240, Note_on_c, 0, 50, 36
2, 180240, Note_on_c, 0, 53, 36
2, 180240, Note_on_c, 0, 59, 43
2, 180360, Note_on_c, 0, 59, 0
2, 180360, Note_on_c, 0, 53, 0
2, 180360, Note_on_c, 0, 50, 0
2, 180480, Note_on_c, 0, 50, 39
2, 180480, Note_on_c, 0, 53, 39
2, 180480, Note_on_c, 0, 59, 46
2, 180600, Note_on_c, 0, 59, 0
2, 180600, Note_on_c, 0, 53, 0
2, 180600, Note_on_c, 0, 50, 0
2, 180720, Note_on_c, 0, 53, 35
2, 180720, Note_on_c, 0, 58, 42
2, 180720, Note_on_c, 0, 50, 35
2, 180840, Note_on_c, 0, 50, 0
2, 180840, Note_on_c, 0, 58, 0
2, 180840, Note_on_c, 0, 53, 0
2, 180960, Note_on_c, 0, 50, 35
2, 180960, Note_on_c, 0, 53, 35
2, 180960, Note_on_c, 0, 58, 42
2, 181080, Note_on_c, 0, 58, 0
2, 181080, Note_on_c, 0, 53, 0
2, 181080, Note_on_c, 0, 50, 0
2, 181200, Note_on_c, 0, 50, 34
2, 181200, Note_on_c, 0, 53, 34
2, 181200, Note_on_c, 0, 57, 41
2, 182400, Note_on_c, 0, 57, 0
2, 182400, Note_on_c, 0, 53, 0
2, 182400, Note_on_c, 0, 50, 0
2, 183360, Note_on_c, 0, 62, 40
2, 183480, Note_on_c, 0, 62, 0
2, 183600, Note_on_c, 0, 69, 39
2, 183720, Note_on_c, 0, 69, 0
2, 183840, Note_on_c, 0, 74, 36
2, 183960, Note_on_c, 0, 74, 0
2, 184080, Note_on_c, 0, 81, 42
2, 185280, Note_on_c, 0, 81, 0
2, 185280, Note_on_c, 0, 86, 113
2, 185280, Note_on_c, 0, 81, 95
2, 185280, Note_on_c, 0, 74, 95
2, 185280, Control_c, 0, 91, 127
2, 185400, Note_on_c, 0, 74, 0
2, 185400, Note_on_c, 0, 81, 0
2, 185400, Note_on_c, 0, 86, 0
2, 185400, Note_on_c, 0, 74, 86
2, 185400, Note_on_c, 0, 81, 86
2, 185400, Note_on_c, 0, 86, 102
2, 185520, Note_on_c, 0, 86, 0
2, 185520, Note_on_c, 0, 81, 0
2, 185520, Note_on_c, 0, 74, 0
2, 185520, End_track
3, 0, Start_track
3, 0, Title_t, "Piano left"
3, 0, Program_c, 0, 0
3, 0, Control_c, 0, 7, 100
3, 0, Control_c, 0, 91, 127
3, 0, Control_c, 0, 64, 0
3, 0, Control_c, 0, 64, 0
3, 1, Note_on_c, 0, 38, 32
3, 121, Note_on_c, 0, 38, 0
3, 240, Note_on_c, 0, 45, 31
3, 360, Note_on_c, 0, 45, 0
3, 480, Note_on_c, 0, 38, 32
3, 600, Note_on_c, 0, 38, 0
3, 720, Note_on_c, 0, 45, 31
3, 840, Note_on_c, 0, 45, 0
3, 960, Note_on_c, 0, 38, 32
3, 1080, Note_on_c, 0, 38, 0
3, 1200, Note_on_c, 0, 45, 31
3, 1320, Note_on_c, 0, 45, 0
3, 1440, Note_on_c, 0, 38, 32
3, 1560, Note_on_c, 0, 38, 0
3, 1680, Note_on_c, 0, 45, 31
3, 1800, Note_on_c, 0, 45, 0
3, 1920, Note_on_c, 0, 38, 32
3, 2040, Note_on_c, 0, 38, 0
3, 2160, Note_on_c, 0, 45, 31
3, 2280, Note_on_c, 0, 45, 0
3, 2400, Note_on_c, 0, 38, 32
3, 2520, Note_on_c, 0, 38, 0
3, 2640, Note_on_c, 0, 45, 31
3, 2760, Note_on_c, 0, 45, 0
3, 2880, Note_on_c, 0, 38, 32
3, 3000, Note_on_c, 0, 38, 0
3, 3120, Note_on_c, 0, 45, 31
3, 3240, Note_on_c, 0, 45, 0
3, 3360, Note_on_c, 0, 38, 32
3, 3480, Note_on_c, 0, 38, 0
3, 3600, Note_on_c, 0, 45, 31
3, 3720, Note_on_c, 0, 45, 0
3, 3840, Note_on_c, 0, 38, 32
3, 3960, Note_on_c, 0, 38, 0
3, 4080, Note_on_c, 0, 45, 29
3, 4200, Note_on_c, 0, 45, 0
3, 4320, Note_on_c, 0, 38, 32
3, 4440, Note_on_c, 0, 38, 0
3, 4560, Note_on_c, 0, 45, 29
3, 4680, Note_on_c, 0, 45, 0
3, 4800, Note_on_c, 0, 38, 32
3, 4920, Note_on_c, 0, 38, 0
3, 5040, Note_on_c, 0, 45, 31
3, 5160, Note_on_c, 0, 45, 0
3, 5280, Note_on_c, 0, 38, 32
3, 5400, Note_on_c, 0, 38, 0
3, 5520, Note_on_c, 0, 45, 31
3, 5640, Note_on_c, 0, 45, 0
3, 5760, Note_on_c, 0, 38, 32
3, 5880, Note_on_c, 0, 38, 0
3, 6000, Note_on_c, 0, 45, 31
3, 6120, Note_on_c, 0, 45, 0
3, 6240, Note_on_c, 0, 38, 32
3, 6360, Note_on_c, 0, 38, 0
3, 6480, Note_on_c, 0, 45, 31
3, 6600, Note_on_c, 0, 45, 0
3, 6720, Note_on_c, 0, 38, 32
3, 6840, Note_on_c, 0, 38, 0
3, 6960, Note_on_c, 0, 45, 31
3, 7080, Note_on_c, 0, 45, 0
3, 7200, Note_on_c, 0, 38, 32
3, 7320, Note_on_c, 0, 38, 0
3, 7440, Note_on_c, 0, 45, 31
3, 7560, Note_on_c, 0, 45, 0
3, 7680, Note_on_c, 0, 38, 32
3, 7800, Note_on_c, 0, 38, 0
3, 7920, Note_on_c, 0, 45, 29
3, 8040, Note_on_c, 0, 45, 0
3, 8160, Note_on_c, 0, 38, 32
3, 8280, Note_on_c, 0, 38, 0
3, 8400, Note_on_c, 0, 45, 29
3, 8520, Note_on_c, 0, 45, 0
3, 8640, Note_on_c, 0, 38, 32
3, 8760, Note_on_c, 0, 38, 0
3, 8880, Note_on_c, 0, 45, 31
3, 9000, Note_on_c, 0, 45, 0
3, 9120, Note_on_c, 0, 38, 32
3, 9240, Note_on_c, 0, 38, 0
3, 9360, Note_on_c, 0, 45, 31
3, 9480, Note_on_c, 0, 45, 0
3, 9840, Note_on_c, 0, 58, 32
3, 9840, Note_on_c, 0, 65, 32
3, 9960, Note_on_c, 0, 65, 0
3, 9960, Note_on_c, 0, 58, 0
3, 10320, Note_on_c, 0, 53, 32
3, 10320, Note_on_c, 0, 60, 32
3, 10440, Note_on_c, 0, 60, 0
3, 10440, Note_on_c, 0, 53, 0
3, 10800, Note_on_c, 0, 62, 32
3, 10800, Note_on_c, 0, 55, 32
3, 10920, Note_on_c, 0, 55, 0
3, 10920, Note_on_c, 0, 62, 0
3, 11280, Note_on_c, 0, 50, 32
3, 11280, Note_on_c, 0, 57, 32
3, 11400, Note_on_c, 0, 57, 0
3, 11400, Note_on_c, 0, 50, 0
3, 11760, Note_on_c, 0, 58, 32
3, 11760, Note_on_c, 0, 51, 32
3, 11880, Note_on_c, 0, 51, 0
3, 11880, Note_on_c, 0, 58, 0
3, 12240, Note_on_c, 0, 53, 32
3, 12240, Note_on_c, 0, 46, 32
3, 12360, Note_on_c, 0, 46, 0
3, 12360, Note_on_c, 0, 53, 0
3, 12480, Note_on_c, 0, 45, 37
3, 12600, Note_on_c, 0, 45, 0
3, 12720, Note_on_c, 0, 52, 32
3, 12840, Note_on_c, 0, 52, 0
3, 12960, Note_on_c, 0, 45, 38
3, 13080, Note_on_c, 0, 45, 0
3, 13200, Note_on_c, 0, 52, 32
3, 13320, Note_on_c, 0, 52, 0
3, 13440, Note_on_c, 0, 39, 37
3, 13560, Note_on_c, 0, 39, 0
3, 13680, Note_on_c, 0, 46, 32
3, 13800, Note_on_c, 0, 46, 0
3, 13920, Note_on_c, 0, 39, 37
3, 14040, Note_on_c, 0, 39, 0
3, 14160, Note_on_c, 0, 46, 32
3, 14280, Note_on_c, 0, 46, 0
3, 14400, Note_on_c, 0, 45, 37
3, 14520, Note_on_c, 0, 45, 0
3, 14640, Note_on_c, 0, 52, 32
3, 14760, Note_on_c, 0, 52, 0
3, 14880, Note_on_c, 0, 45, 38
3, 15000, Note_on_c, 0, 45, 0
3, 15120, Note_on_c, 0, 52, 32
3, 15240, Note_on_c, 0, 52, 0
3, 15360, Note_on_c, 0, 39, 37
3, 15480, Note_on_c, 0, 39, 0
3, 15600, Note_on_c, 0, 46, 32
3, 15720, Note_on_c, 0, 46, 0
3, 15840, Note_on_c, 0, 39, 37
3, 15960, Note_on_c, 0, 39, 0
3, 16080, Note_on_c, 0, 46, 32
3, 16200, Note_on_c, 0, 46, 0
3, 16320, Note_on_c, 0, 45, 37
3, 16440, Note_on_c, 0, 45, 0
3, 16560, Note_on_c, 0, 52, 32
3, 16680, Note_on_c, 0, 52, 0
3, 16800, Note_on_c, 0, 39, 38
3, 16920, Note_on_c, 0, 39, 0
3, 17040, Note_on_c, 0, 46, 31
3, 17160, Note_on_c, 0, 46, 0
3, 17280, Note_on_c, 0, 45, 34
3, 17400, Note_on_c, 0, 45, 0
3, 17520, Note_on_c, 0, 52, 32
3, 17640, Note_on_c, 0, 52, 0
3, 17760, Note_on_c, 0, 39, 34
3, 17880, Note_on_c, 0, 39, 0
3, 18000, Note_on_c, 0, 46, 29
3, 18120, Note_on_c, 0, 46, 0
3, 18240, Note_on_c, 0, 45, 35
3, 18360, Note_on_c, 0, 45, 0
3, 18480, Note_on_c, 0, 52, 32
3, 18600, Note_on_c, 0, 52, 0
3, 18720, Note_on_c, 0, 39, 34
3, 18840, Note_on_c, 0, 39, 0
3, 18960, Note_on_c, 0, 46, 28
3, 19080, Note_on_c, 0, 46, 0
3, 19200, Note_on_c, 0, 45, 32
3, 19320, Note_on_c, 0, 45, 0
3, 19440, Note_on_c, 0, 52, 29
3, 19560, Note_on_c, 0, 52, 0
3, 19680, Note_on_c, 0, 39, 32
3, 19800, Note_on_c, 0, 39, 0
3, 19920, Note_on_c, 0, 46, 27
3, 20040, Note_on_c, 0, 46, 0
3, 20160, Note_on_c, 0, 45, 46
3, 20280, Note_on_c, 0, 45, 0
3, 20400, Note_on_c, 0, 52, 41
3, 20520, Note_on_c, 0, 52, 0
3, 20640, Note_on_c, 0, 46, 46
3, 20760, Note_on_c, 0, 46, 0
3, 20880, Note_on_c, 0, 52, 41
3, 21000, Note_on_c, 0, 52, 0
3, 21120, Note_on_c, 0, 44, 44
3, 21240, Note_on_c, 0, 44, 0
3, 21360, Note_on_c, 0, 52, 42
3, 21480, Note_on_c, 0, 52, 0
3, 21600, Note_on_c, 0, 45, 46
3, 21720, Note_on_c, 0, 45, 0
3, 21840, Note_on_c, 0, 52, 43
3, 21960, Note_on_c, 0, 52, 0
3, 22080, Note_on_c, 0, 46, 48
3, 22200, Note_on_c, 0, 46, 0
3, 22320, Note_on_c, 0, 52, 43
3, 22440, Note_on_c, 0, 52, 0
3, 22560, Note_on_c, 0, 47, 51
3, 22680, Note_on_c, 0, 47, 0
3, 22800, Note_on_c, 0, 52, 45
3, 22920, Note_on_c, 0, 52, 0
3, 23040, Note_on_c, 0, 48, 53
3, 23160, Note_on_c, 0, 48, 0
3, 23280, Note_on_c, 0, 52, 49
3, 23400, Note_on_c, 0, 52, 0
3, 23520, Note_on_c, 0, 47, 57
3, 23640, Note_on_c, 0, 47, 0
3, 23760, Note_on_c, 0, 52, 50
3, 23880, Note_on_c, 0, 52, 0
3, 24000, Note_on_c, 0, 46, 58
3, 24120, Note_on_c, 0, 46, 0
3, 24240, Note_on_c, 0, 52, 53
3, 24360, Note_on_c, 0, 52, 0
3, 24480, Note_on_c, 0, 45, 60
3, 24600, Note_on_c, 0, 45, 0
3, 24720, Note_on_c, 0, 52, 54
3, 24840, Note_on_c, 0, 52, 0
3, 24960, Note_on_c, 0, 44, 63
3, 25080, Note_on_c, 0, 44, 0
3, 25200, Note_on_c, 0, 52, 58
3, 25320, Note_on_c, 0, 52, 0
3, 25440, Note_on_c, 0, 43, 66
3, 25560, Note_on_c, 0, 43, 0
3, 25680, Note_on_c, 0, 49, 60
3, 25800, Note_on_c, 0, 49, 0
3, 25920, Note_on_c, 0, 42, 69
3, 26040, Note_on_c, 0, 42, 0
3, 26160, Note_on_c, 0, 49, 64
3, 26280, Note_on_c, 0, 49, 0
3, 26400, Note_on_c, 0, 41, 77
3, 26520, Note_on_c, 0, 41, 0
3, 26640, Note_on_c, 0, 49, 69
3, 26760, Note_on_c, 0, 49, 0
3, 26880, Note_on_c, 0, 40, 83
3, 27000, Note_on_c, 0, 40, 0
3, 27120, Note_on_c, 0, 49, 76
3, 27240, Note_on_c, 0, 49, 0
3, 27360, Note_on_c, 0, 39, 86
3, 27480, Note_on_c, 0, 39, 0
3, 27600, Note_on_c, 0, 49, 79
3, 27720, Note_on_c, 0, 49, 0
3, 27840, Note_on_c, 0, 50, 94
3, 27840, Note_on_c, 0, 38, 80
3, 27960, Note_on_c, 0, 38, 0
3, 27960, Note_on_c, 0, 50, 0
3, 28080, Note_on_c, 0, 45, 80
3, 28080, Note_on_c, 0, 33, 68
3, 28200, Note_on_c, 0, 33, 0
3, 28200, Note_on_c, 0, 45, 0
3, 28320, Note_on_c, 0, 50, 94
3, 28320, Note_on_c, 0, 38, 80
3, 28440, Note_on_c, 0, 38, 0
3, 28440, Note_on_c, 0, 50, 0
3, 28560, Note_on_c, 0, 33, 68
3, 28560, Note_on_c, 0, 45, 80
3, 28680, Note_on_c, 0, 45, 0
3, 28680, Note_on_c, 0, 33, 0
3, 28800, Note_on_c, 0, 38, 80
3, 28800, Note_on_c, 0, 50, 94
3, 28920, Note_on_c, 0, 50, 0
3, 28920, Note_on_c, 0, 38, 0
3, 29040, Note_on_c, 0, 33, 68
3, 29040, Note_on_c, 0, 45, 80
3, 29160, Note_on_c, 0, 45, 0
3, 29160, Note_on_c, 0, 33, 0
3, 29280, Note_on_c, 0, 50, 94
3, 29280, Note_on_c, 0, 38, 80
3, 29400, Note_on_c, 0, 38, 0
3, 29400, Note_on_c, 0, 50, 0
3, 29520, Note_on_c, 0, 33, 68
3, 29520, Note_on_c, 0, 45, 80
3, 29640, Note_on_c, 0, 45, 0
3, 29640, Note_on_c, 0, 33, 0
3, 29760, Note_on_c, 0, 38, 71
3, 29760, Note_on_c, 0, 50, 84
3, 29880, Note_on_c, 0, 50, 0
3, 29880, Note_on_c, 0, 38, 0
3, 30000, Note_on_c, 0, 33, 60
3, 30000, Note_on_c, 0, 45, 71
3, 30120, Note_on_c, 0, 45, 0
3, 30120, Note_on_c, 0, 33, 0
3, 30240, Note_on_c, 0, 38, 71
3, 30240, Note_on_c, 0, 50, 84
3, 30360, Note_on_c, 0, 50, 0
3, 30360, Note_on_c, 0, 38, 0
3, 30480, Note_on_c, 0, 33, 60
3, 30480, Note_on_c, 0, 45, 71
3, 30600, Note_on_c, 0, 45, 0
3, 30600, Note_on_c, 0, 33, 0
3, 30720, Note_on_c, 0, 50, 84
3, 30720, Note_on_c, 0, 38, 71
3, 30840, Note_on_c, 0, 38, 0
3, 30840, Note_on_c, 0, 50, 0
3, 30960, Note_on_c, 0, 33, 60
3, 30960, Note_on_c, 0, 45, 71
3, 31080, Note_on_c, 0, 45, 0
3, 31080, Note_on_c, 0, 33, 0
3, 31200, Note_on_c, 0, 38, 71
3, 31200, Note_on_c, 0, 50, 84
3, 31320, Note_on_c, 0, 50, 0
3, 31320, Note_on_c, 0, 38, 0
3, 31440, Note_on_c, 0, 33, 60
3, 31440, Note_on_c, 0, 45, 71
3, 31560, Note_on_c, 0, 45, 0
3, 31560, Note_on_c, 0, 33, 0
3, 31680, Note_on_c, 0, 50, 84
3, 31680, Note_on_c, 0, 38, 71
3, 31800, Note_on_c, 0, 38, 0
3, 31800, Note_on_c, 0, 50, 0
3, 31920, Note_on_c, 0, 45, 71
3, 31920, Note_on_c, 0, 33, 60
3, 32040, Note_on_c, 0, 33, 0
3, 32040, Note_on_c, 0, 45, 0
3, 32160, Note_on_c, 0, 50, 84
3, 32160, Note_on_c, 0, 38, 71
3, 32280, Note_on_c, 0, 38, 0
3, 32280, Note_on_c, 0, 50, 0
3, 32400, Note_on_c, 0, 45, 71
3, 32400, Note_on_c, 0, 33, 60
3, 32520, Note_on_c, 0, 33, 0
3, 32520, Note_on_c, 0, 45, 0
3, 32640, Note_on_c, 0, 38, 71
3, 32640, Note_on_c, 0, 50, 84
3, 32760, Note_on_c, 0, 50, 0
3, 32760, Note_on_c, 0, 38, 0
3, 32880, Note_on_c, 0, 33, 60
3, 32880, Note_on_c, 0, 45, 71
3, 33000, Note_on_c, 0, 45, 0
3, 33000, Note_on_c, 0, 33, 0
3, 33120, Note_on_c, 0, 38, 71
3, 33120, Note_on_c, 0, 50, 84
3, 33240, Note_on_c, 0, 50, 0
3, 33240, Note_on_c, 0, 38, 0
3, 33360, Note_on_c, 0, 33, 60
3, 33360, Note_on_c, 0, 45, 71
3, 33480, Note_on_c, 0, 45, 0
3, 33480, Note_on_c, 0, 33, 0
3, 33600, Note_on_c, 0, 50, 84
3, 33600, Note_on_c, 0, 38, 71
3, 33720, Note_on_c, 0, 38, 0
3, 33720, Note_on_c, 0, 50, 0
3, 33840, Note_on_c, 0, 45, 71
3, 33840, Note_on_c, 0, 33, 60
3, 33960, Note_on_c, 0, 33, 0
3, 33960, Note_on_c, 0, 45, 0
3, 34080, Note_on_c, 0, 50, 84
3, 34080, Note_on_c, 0, 38, 71
3, 34200, Note_on_c, 0, 38, 0
3, 34200, Note_on_c, 0, 50, 0
3, 34320, Note_on_c, 0, 45, 71
3, 34320, Note_on_c, 0, 33, 60
3, 34440, Note_on_c, 0, 33, 0
3, 34440, Note_on_c, 0, 45, 0
3, 34560, Note_on_c, 0, 38, 71
3, 34560, Note_on_c, 0, 50, 84
3, 34680, Note_on_c, 0, 50, 0
3, 34680, Note_on_c, 0, 38, 0
3, 34800, Note_on_c, 0, 45, 71
3, 34800, Note_on_c, 0, 33, 60
3, 34920, Note_on_c, 0, 33, 0
3, 34920, Note_on_c, 0, 45, 0
3, 35040, Note_on_c, 0, 50, 84
3, 35040, Note_on_c, 0, 38, 71
3, 35160, Note_on_c, 0, 38, 0
3, 35160, Note_on_c, 0, 50, 0
3, 35280, Note_on_c, 0, 45, 71
3, 35280, Note_on_c, 0, 33, 60
3, 35400, Note_on_c, 0, 33, 0
3, 35400, Note_on_c, 0, 45, 0
3, 35520, Note_on_c, 0, 38, 71
3, 35520, Note_on_c, 0, 50, 84
3, 35640, Note_on_c, 0, 50, 0
3, 35640, Note_on_c, 0, 38, 0
3, 35760, Note_on_c, 0, 33, 60
3, 35760, Note_on_c, 0, 45, 71
3, 35880, Note_on_c, 0, 45, 0
3, 35880, Note_on_c, 0, 33, 0
3, 36000, Note_on_c, 0, 50, 84
3, 36000, Note_on_c, 0, 38, 71
3, 36120, Note_on_c, 0, 38, 0
3, 36120, Note_on_c, 0, 50, 0
3, 36240, Note_on_c, 0, 33, 60
3, 36240, Note_on_c, 0, 45, 71
3, 36360, Note_on_c, 0, 45, 0
3, 36360, Note_on_c, 0, 33, 0
3, 36480, Note_on_c, 0, 38, 71
3, 36480, Note_on_c, 0, 50, 84
3, 36600, Note_on_c, 0, 50, 0
3, 36600, Note_on_c, 0, 38, 0
3, 36720, Note_on_c, 0, 33, 60
3, 36720, Note_on_c, 0, 45, 71
3, 36840, Note_on_c, 0, 45, 0
3, 36840, Note_on_c, 0, 33, 0
3, 36960, Note_on_c, 0, 38, 71
3, 36960, Note_on_c, 0, 50, 84
3, 37080, Note_on_c, 0, 50, 0
3, 37080, Note_on_c, 0, 38, 0
3, 37200, Note_on_c, 0, 33, 60
3, 37200, Note_on_c, 0, 45, 71
3, 37320, Note_on_c, 0, 45, 0
3, 37320, Note_on_c, 0, 33, 0
3, 37440, Note_on_c, 0, 53, 71
3, 37440, Note_on_c, 0, 65, 84
3, 37560, Note_on_c, 0, 65, 0
3, 37560, Note_on_c, 0, 53, 0
3, 37680, Note_on_c, 0, 50, 71
3, 37680, Note_on_c, 0, 38, 50
3, 37800, Note_on_c, 0, 38, 0
3, 37800, Note_on_c, 0, 50, 0
3, 37920, Note_on_c, 0, 64, 84
3, 37920, Note_on_c, 0, 52, 71
3, 38040, Note_on_c, 0, 52, 0
3, 38040, Note_on_c, 0, 64, 0
3, 38160, Note_on_c, 0, 38, 50
3, 38160, Note_on_c, 0, 50, 71
3, 38280, Note_on_c, 0, 50, 0
3, 38280, Note_on_c, 0, 38, 0
3, 38400, Note_on_c, 0, 62, 84
3, 38400, Note_on_c, 0, 50, 71
3, 38520, Note_on_c, 0, 50, 0
3, 38520, Note_on_c, 0, 62, 0
3, 38640, Note_on_c, 0, 50, 71
3, 38640, Note_on_c, 0, 38, 50
3, 38760, Note_on_c, 0, 38, 0
3, 38760, Note_on_c, 0, 50, 0
3, 38880, Note_on_c, 0, 60, 84
3, 38880, Note_on_c, 0, 48, 71
3, 39000, Note_on_c, 0, 48, 0
3, 39000, Note_on_c, 0, 60, 0
3, 39120, Note_on_c, 0, 38, 50
3, 39120, Note_on_c, 0, 50, 71
3, 39240, Note_on_c, 0, 50, 0
3, 39240, Note_on_c, 0, 38, 0
3, 39360, Note_on_c, 0, 46, 60
3, 39360, Note_on_c, 0, 58, 84
3, 39480, Note_on_c, 0, 58, 0
3, 39480, Note_on_c, 0, 46, 0
3, 39600, Note_on_c, 0, 38, 50
3, 39600, Note_on_c, 0, 50, 71
3, 39720, Note_on_c, 0, 50, 0
3, 39720, Note_on_c, 0, 38, 0
3, 39840, Note_on_c, 0, 57, 84
3, 39840, Note_on_c, 0, 45, 60
3, 39960, Note_on_c, 0, 45, 0
3, 39960, Note_on_c, 0, 57, 0
3, 40080, Note_on_c, 0, 50, 71
3, 40080, Note_on_c, 0, 38, 50
3, 40200, Note_on_c, 0, 38, 0
3, 40200, Note_on_c, 0, 50, 0
3, 40320, Note_on_c, 0, 43, 60
3, 40320, Note_on_c, 0, 55, 84
3, 40440, Note_on_c, 0, 55, 0
3, 40440, Note_on_c, 0, 43, 0
3, 40560, Note_on_c, 0, 50, 71
3, 40560, Note_on_c, 0, 38, 50
3, 40680, Note_on_c, 0, 38, 0
3, 40680, Note_on_c, 0, 50, 0
3, 40800, Note_on_c, 0, 55, 84
3, 40800, Note_on_c, 0, 43, 60
3, 40920, Note_on_c, 0, 43, 0
3, 40920, Note_on_c, 0, 55, 0
3, 41040, Note_on_c, 0, 38, 50
3, 41040, Note_on_c, 0, 50, 71
3, 41160, Note_on_c, 0, 50, 0
3, 41160, Note_on_c, 0, 38, 0
3, 41280, Note_on_c, 0, 62, 84
3, 41280, Note_on_c, 0, 50, 71
3, 41400, Note_on_c, 0, 50, 0
3, 41400, Note_on_c, 0, 62, 0
3, 41520, Note_on_c, 0, 38, 60
3, 41520, Note_on_c, 0, 50, 71
3, 41640, Note_on_c, 0, 50, 0
3, 41640, Note_on_c, 0, 38, 0
3, 41760, Note_on_c, 0, 60, 84
3, 41760, Note_on_c, 0, 48, 71
3, 41880, Note_on_c, 0, 48, 0
3, 41880, Note_on_c, 0, 60, 0
3, 42000, Note_on_c, 0, 50, 71
3, 42000, Note_on_c, 0, 38, 60
3, 42120, Note_on_c, 0, 38, 0
3, 42120, Note_on_c, 0, 50, 0
3, 42240, Note_on_c, 0, 58, 84
3, 42240, Note_on_c, 0, 46, 71
3, 42360, Note_on_c, 0, 46, 0
3, 42360, Note_on_c, 0, 58, 0
3, 42480, Note_on_c, 0, 38, 60
3, 42480, Note_on_c, 0, 50, 71
3, 42600, Note_on_c, 0, 50, 0
3, 42600, Note_on_c, 0, 38, 0
3, 42720, Note_on_c, 0, 57, 84
3, 42720, Note_on_c, 0, 45, 71
3, 42840, Note_on_c, 0, 45, 0
3, 42840, Note_on_c, 0, 57, 0
3, 42960, Note_on_c, 0, 50, 71
3, 42960, Note_on_c, 0, 38, 60
3, 43080, Note_on_c, 0, 38, 0
3, 43080, Note_on_c, 0, 50, 0
3, 43200, Note_on_c, 0, 55, 84
3, 43200, Note_on_c, 0, 43, 71
3, 43320, Note_on_c, 0, 43, 0
3, 43320, Note_on_c, 0, 55, 0
3, 43440, Note_on_c, 0, 50, 71
3, 43440, Note_on_c, 0, 38, 60
3, 43560, Note_on_c, 0, 38, 0
3, 43560, Note_on_c, 0, 50, 0
3, 43680, Note_on_c, 0, 41, 71
3, 43680, Note_on_c, 0, 53, 84
3, 43800, Note_on_c, 0, 53, 0
3, 43800, Note_on_c, 0, 41, 0
3, 43920, Note_on_c, 0, 38, 60
3, 43920, Note_on_c, 0, 50, 71
3, 44040, Note_on_c, 0, 50, 0
3, 44040, Note_on_c, 0, 38, 0
3, 44160, Note_on_c, 0, 40, 71
3, 44160, Note_on_c, 0, 52, 84
3, 44280, Note_on_c, 0, 52, 0
3, 44280, Note_on_c, 0, 40, 0
3, 44400, Note_on_c, 0, 50, 71
3, 44400, Note_on_c, 0, 38, 60
3, 44520, Note_on_c, 0, 38, 0
3, 44520, Note_on_c, 0, 50, 0
3, 44640, Note_on_c, 0, 52, 84
3, 44640, Note_on_c, 0, 40, 71
3, 44760, Note_on_c, 0, 40, 0
3, 44760, Note_on_c, 0, 52, 0
3, 44880, Note_on_c, 0, 38, 60
3, 44880, Note_on_c, 0, 50, 71
3, 45000, Note_on_c, 0, 50, 0
3, 45000, Note_on_c, 0, 38, 0
3, 45120, Note_on_c, 0, 53, 62
3, 45240, Note_on_c, 0, 53, 0
3, 45360, Note_on_c, 0, 38, 52
3, 45480, Note_on_c, 0, 38, 0
3, 45600, Note_on_c, 0, 52, 60
3, 45720, Note_on_c, 0, 52, 0
3, 45840, Note_on_c, 0, 38, 51
3, 45960, Note_on_c, 0, 38, 0
3, 46080, Note_on_c, 0, 50, 59
3, 46200, Note_on_c, 0, 50, 0
3, 46320, Note_on_c, 0, 38, 50
3, 46440, Note_on_c, 0, 38, 0
3, 46560, Note_on_c, 0, 48, 58
3, 46680, Note_on_c, 0, 48, 0
3, 46800, Note_on_c, 0, 38, 49
3, 46920, Note_on_c, 0, 38, 0
3, 47040, Note_on_c, 0, 46, 57
3, 47160, Note_on_c, 0, 46, 0
3, 47280, Note_on_c, 0, 38, 48
3, 47400, Note_on_c, 0, 38, 0
3, 47520, Note_on_c, 0, 45, 56
3, 47640, Note_on_c, 0, 45, 0
3, 47760, Note_on_c, 0, 38, 48
3, 47880, Note_on_c, 0, 38, 0
3, 48000, Note_on_c, 0, 43, 55
3, 48120, Note_on_c, 0, 43, 0
3, 48240, Note_on_c, 0, 38, 47
3, 48360, Note_on_c, 0, 38, 0
3, 48480, Note_on_c, 0, 43, 54
3, 48600, Note_on_c, 0, 43, 0
3, 48720, Note_on_c, 0, 38, 46
3, 48840, Note_on_c, 0, 38, 0
3, 48960, Note_on_c, 0, 50, 49
3, 49080, Note_on_c, 0, 50, 0
3, 49200, Note_on_c, 0, 38, 41
3, 49320, Note_on_c, 0, 38, 0
3, 49440, Note_on_c, 0, 48, 48
3, 49560, Note_on_c, 0, 48, 0
3, 49680, Note_on_c, 0, 38, 41
3, 49800, Note_on_c, 0, 38, 0
3, 49920, Note_on_c, 0, 46, 48
3, 50040, Note_on_c, 0, 46, 0
3, 50160, Note_on_c, 0, 38, 40
3, 50280, Note_on_c, 0, 38, 0
3, 50400, Note_on_c, 0, 45, 47
3, 50520, Note_on_c, 0, 45, 0
3, 50640, Note_on_c, 0, 38, 40
3, 50760, Note_on_c, 0, 38, 0
3, 50880, Note_on_c, 0, 43, 47
3, 51000, Note_on_c, 0, 43, 0
3, 51120, Note_on_c, 0, 38, 40
3, 51240, Note_on_c, 0, 38, 0
3, 51360, Note_on_c, 0, 41, 46
3, 51480, Note_on_c, 0, 41, 0
3, 51600, Note_on_c, 0, 38, 39
3, 51720, Note_on_c, 0, 38, 0
3, 51840, Note_on_c, 0, 40, 46
3, 51960, Note_on_c, 0, 40, 0
3, 52080, Note_on_c, 0, 38, 37
3, 52200, Note_on_c, 0, 38, 0
3, 52320, Note_on_c, 0, 40, 44
3, 52440, Note_on_c, 0, 40, 0
3, 52560, Note_on_c, 0, 38, 37
3, 52680, Note_on_c, 0, 38, 0
3, 52800, Note_on_c, 0, 39, 47
3, 52920, Note_on_c, 0, 39, 0
3, 53040, Note_on_c, 0, 45, 41
3, 53160, Note_on_c, 0, 45, 0
3, 53280, Note_on_c, 0, 39, 47
3, 53400, Note_on_c, 0, 39, 0
3, 53520, Note_on_c, 0, 45, 41
3, 53640, Note_on_c, 0, 45, 0
3, 53760, Note_on_c, 0, 38, 47
3, 53880, Note_on_c, 0, 38, 0
3, 54000, Note_on_c, 0, 45, 41
3, 54120, Note_on_c, 0, 45, 0
3, 54240, Note_on_c, 0, 38, 48
3, 54360, Note_on_c, 0, 38, 0
3, 54480, Note_on_c, 0, 45, 41
3, 54600, Note_on_c, 0, 45, 0
3, 54720, Note_on_c, 0, 39, 47
3, 54840, Note_on_c, 0, 39, 0
3, 54960, Note_on_c, 0, 45, 41
3, 55080, Note_on_c, 0, 45, 0
3, 55200, Note_on_c, 0, 39, 47
3, 55320, Note_on_c, 0, 39, 0
3, 55440, Note_on_c, 0, 45, 41
3, 55560, Note_on_c, 0, 45, 0
3, 55680, Note_on_c, 0, 38, 47
3, 55800, Note_on_c, 0, 38, 0
3, 55920, Note_on_c, 0, 45, 41
3, 56040, Note_on_c, 0, 45, 0
3, 56160, Note_on_c, 0, 39, 48
3, 56280, Note_on_c, 0, 39, 0
3, 56400, Note_on_c, 0, 45, 39
3, 56520, Note_on_c, 0, 45, 0
3, 56640, Note_on_c, 0, 38, 43
3, 56760, Note_on_c, 0, 38, 0
3, 56880, Note_on_c, 0, 45, 41
3, 57000, Note_on_c, 0, 45, 0
3, 57120, Note_on_c, 0, 39, 43
3, 57240, Note_on_c, 0, 39, 0
3, 57360, Note_on_c, 0, 45, 36
3, 57480, Note_on_c, 0, 45, 0
3, 57600, Note_on_c, 0, 38, 43
3, 57720, Note_on_c, 0, 38, 0
3, 57840, Note_on_c, 0, 45, 39
3, 57960, Note_on_c, 0, 45, 0
3, 58080, Note_on_c, 0, 39, 42
3, 58200, Note_on_c, 0, 39, 0
3, 58320, Note_on_c, 0, 45, 34
3, 58440, Note_on_c, 0, 45, 0
3, 58560, Note_on_c, 0, 38, 39
3, 58680, Note_on_c, 0, 38, 0
3, 58800, Note_on_c, 0, 45, 36
3, 58920, Note_on_c, 0, 45, 0
3, 59040, Note_on_c, 0, 39, 37
3, 59160, Note_on_c, 0, 39, 0
3, 59280, Note_on_c, 0, 45, 32
3, 59400, Note_on_c, 0, 45, 0
3, 59520, Note_on_c, 0, 38, 41
3, 59640, Note_on_c, 0, 38, 0
3, 59760, Note_on_c, 0, 45, 39
3, 59880, Note_on_c, 0, 45, 0
3, 60000, Note_on_c, 0, 38, 41
3, 60120, Note_on_c, 0, 38, 0
3, 60240, Note_on_c, 0, 45, 39
3, 60360, Note_on_c, 0, 45, 0
3, 60480, Note_on_c, 0, 38, 41
3, 60600, Note_on_c, 0, 38, 0
3, 60720, Note_on_c, 0, 45, 39
3, 60840, Note_on_c, 0, 45, 0
3, 60960, Note_on_c, 0, 38, 41
3, 61080, Note_on_c, 0, 38, 0
3, 61200, Note_on_c, 0, 45, 39
3, 61320, Note_on_c, 0, 45, 0
3, 61440, Note_on_c, 0, 38, 41
3, 61560, Note_on_c, 0, 38, 0
3, 61680, Note_on_c, 0, 45, 39
3, 61800, Note_on_c, 0, 45, 0
3, 61920, Note_on_c, 0, 38, 41
3, 62040, Note_on_c, 0, 38, 0
3, 62160, Note_on_c, 0, 45, 39
3, 62280, Note_on_c, 0, 45, 0
3, 62400, Note_on_c, 0, 38, 41
3, 62520, Note_on_c, 0, 38, 0
3, 62640, Note_on_c, 0, 45, 37
3, 62760, Note_on_c, 0, 45, 0
3, 62880, Note_on_c, 0, 38, 41
3, 63000, Note_on_c, 0, 38, 0
3, 63120, Note_on_c, 0, 45, 37
3, 63240, Note_on_c, 0, 45, 0
3, 63360, Note_on_c, 0, 38, 43
3, 63480, Note_on_c, 0, 38, 0
3, 63600, Note_on_c, 0, 45, 40
3, 63720, Note_on_c, 0, 45, 0
3, 63840, Note_on_c, 0, 38, 43
3, 63960, Note_on_c, 0, 38, 0
3, 64080, Note_on_c, 0, 45, 41
3, 64200, Note_on_c, 0, 45, 0
3, 64320, Note_on_c, 0, 38, 42
3, 64440, Note_on_c, 0, 38, 0
3, 64560, Note_on_c, 0, 45, 40
3, 64680, Note_on_c, 0, 45, 0
3, 64800, Note_on_c, 0, 50, 42
3, 64920, Note_on_c, 0, 50, 0
3, 65040, Note_on_c, 0, 57, 40
3, 65160, Note_on_c, 0, 57, 0
3, 66049, Control_c, 0, 64, 127
3, 67200, Control_c, 0, 91, 127
3, 67200, Note_on_c, 0, 62, 27
3, 67200, Note_on_c, 0, 69, 27
3, 67692, Control_c, 0, 64, 0
3, 67948, Control_c, 0, 64, 127
3, 68160, Note_on_c, 0, 69, 0
3, 68160, Note_on_c, 0, 62, 0
3, 68160, Control_c, 0, 64, 0
3, 68160, Note_on_c, 0, 66, 27
3, 68160, Note_on_c, 0, 71, 27
3, 68160, Note_on_c, 0, 59, 27
3, 68344, Control_c, 0, 64, 127
3, 69120, Note_on_c, 0, 59, 0
3, 69120, Note_on_c, 0, 71, 0
3, 69120, Note_on_c, 0, 66, 0
3, 69120, Note_on_c, 0, 62, 27
3, 69120, Note_on_c, 0, 69, 27
3, 69124, Control_c, 0, 64, 0
3, 69205, Control_c, 0, 64, 127
3, 70080, Note_on_c, 0, 69, 0
3, 70080, Note_on_c, 0, 62, 0
3, 70080, Note_on_c, 0, 71, 23
3, 70080, Note_on_c, 0, 59, 23
3, 70080, Note_on_c, 0, 66, 23
3, 70082, Control_c, 0, 64, 0
3, 70374, Control_c, 0, 64, 127
3, 71040, Note_on_c, 0, 66, 0
3, 71040, Note_on_c, 0, 59, 0
3, 71040, Note_on_c, 0, 71, 0
3, 71040, Note_on_c, 0, 62, 36
3, 71040, Control_c, 0, 91, 127
3, 71040, Note_on_c, 0, 69, 27
3, 71045, Control_c, 0, 64, 0
3, 71167, Control_c, 0, 64, 127
3, 71520, Note_on_c, 0, 62, 0
3, 71520, Note_on_c, 0, 61, 36
3, 71532, Control_c, 0, 64, 0
3, 71661, Control_c, 0, 64, 127
3, 72000, Note_on_c, 0, 61, 0
3, 72000, Note_on_c, 0, 69, 0
3, 72000, Note_on_c, 0, 71, 27
3, 72000, Note_on_c, 0, 66, 37
3, 72000, Note_on_c, 0, 59, 27
3, 72007, Control_c, 0, 64, 0
3, 72141, Control_c, 0, 64, 127
3, 72480, Note_on_c, 0, 66, 0
3, 72480, Note_on_c, 0, 65, 35
3, 72492, Control_c, 0, 64, 0
3, 72720, Control_c, 0, 64, 127
3, 72960, Note_on_c, 0, 65, 0
3, 72960, Note_on_c, 0, 59, 0
3, 72960, Note_on_c, 0, 71, 0
3, 72960, Note_on_c, 0, 69, 40
3, 72960, Note_on_c, 0, 64, 27
3, 72968, Control_c, 0, 64, 0
3, 73024, Control_c, 0, 64, 127
3, 73440, Note_on_c, 0, 69, 0
3, 73440, Note_on_c, 0, 68, 37
3, 73450, Control_c, 0, 64, 0
3, 73574, Control_c, 0, 64, 127
3, 73920, Note_on_c, 0, 68, 0
3, 73920, Note_on_c, 0, 64, 0
3, 73920, Note_on_c, 0, 64, 35
3, 73920, Note_on_c, 0, 69, 23
3, 73920, Note_on_c, 0, 57, 23
3, 73922, Control_c, 0, 64, 0
3, 74113, Control_c, 0, 64, 127
3, 74400, Note_on_c, 0, 64, 0
3, 74400, Note_on_c, 0, 65, 33
3, 74412, Control_c, 0, 64, 0
3, 74697, Control_c, 0, 64, 127
3, 74878, Note_on_c, 0, 69, 0
3, 74880, Note_on_c, 0, 65, 0
3, 74880, Note_on_c, 0, 57, 0
3, 74880, Control_c, 0, 91, 127
3, 74882, Control_c, 0, 64, 0
3, 75050, Control_c, 0, 64, 127
3, 75120, Note_on_c, 0, 57, 27
3, 75120, Note_on_c, 0, 50, 21
3, 75370, Control_c, 0, 64, 0
3, 75530, Control_c, 0, 64, 127
3, 75840, Note_on_c, 0, 50, 0
3, 75840, Note_on_c, 0, 57, 0
3, 75843, Control_c, 0, 64, 0
3, 75925, Control_c, 0, 64, 127
3, 76080, Note_on_c, 0, 47, 21
3, 76080, Note_on_c, 0, 59, 27
3, 76080, Note_on_c, 0, 54, 21
3, 76332, Control_c, 0, 64, 0
3, 76504, Control_c, 0, 64, 127
3, 76800, Note_on_c, 0, 54, 0
3, 76800, Note_on_c, 0, 59, 0
3, 76800, Note_on_c, 0, 47, 0
3, 76804, Control_c, 0, 64, 0
3, 76867, Control_c, 0, 64, 127
3, 77040, Note_on_c, 0, 57, 27
3, 77040, Note_on_c, 0, 50, 21
3, 77760, Note_on_c, 0, 50, 0
3, 77760, Note_on_c, 0, 57, 0
3, 77764, Control_c, 0, 64, 0
3, 78000, Note_on_c, 0, 59, 23
3, 78000, Note_on_c, 0, 47, 18
3, 78000, Note_on_c, 0, 54, 18
3, 78043, Control_c, 0, 64, 127
3, 78720, Note_on_c, 0, 54, 0
3, 78720, Note_on_c, 0, 47, 0
3, 78720, Note_on_c, 0, 59, 0
3, 78720, Control_c, 0, 91, 127
3, 78727, Control_c, 0, 64, 0
3, 78861, Control_c, 0, 64, 127
3, 78960, Note_on_c, 0, 57, 27
3, 78960, Note_on_c, 0, 50, 35
3, 79212, Control_c, 0, 64, 0
3, 79384, Control_c, 0, 64, 127
3, 79440, Note_on_c, 0, 50, 0
3, 79440, Note_on_c, 0, 49, 34
3, 79680, Note_on_c, 0, 49, 0
3, 79680, Note_on_c, 0, 57, 0
3, 79683, Control_c, 0, 64, 0
3, 79829, Control_c, 0, 64, 127
3, 79920, Note_on_c, 0, 47, 31
3, 79920, Note_on_c, 0, 59, 31
3, 79920, Note_on_c, 0, 54, 39
3, 80172, Control_c, 0, 64, 0
3, 80309, Control_c, 0, 64, 127
3, 80400, Note_on_c, 0, 54, 0
3, 80400, Note_on_c, 0, 53, 35
3, 80640, Note_on_c, 0, 53, 0
3, 80640, Note_on_c, 0, 59, 0
3, 80640, Note_on_c, 0, 47, 0
3, 80643, Control_c, 0, 64, 0
3, 80728, Control_c, 0, 64, 127
3, 80820, Note_on_c, 0, 40, 27
3, 80880, Note_on_c, 0, 57, 35
3, 81360, Note_on_c, 0, 57, 0
3, 81360, Note_on_c, 0, 56, 34
3, 81600, Note_on_c, 0, 56, 0
3, 81600, Note_on_c, 0, 40, 0
3, 81602, Control_c, 0, 64, 0
3, 81840, Note_on_c, 0, 52, 18
3, 81840, Note_on_c, 0, 57, 23
3, 81840, Note_on_c, 0, 45, 18
3, 81868, Control_c, 0, 64, 127
3, 82560, Note_on_c, 0, 45, 0
3, 82560, Note_on_c, 0, 57, 0
3, 82560, Note_on_c, 0, 52, 0
3, 82560, Control_c, 0, 64, 0
3, 82560, Note_on_c, 0, 57, 35
3, 82599, Control_c, 0, 64, 127
3, 82640, Note_on_c, 0, 57, 0
3, 82640, Note_on_c, 0, 67, 35
3, 82720, Note_on_c, 0, 67, 0
3, 82720, Note_on_c, 0, 73, 35
3, 82800, Note_on_c, 0, 73, 0
3, 83040, Note_on_c, 0, 79, 40
3, 83520, Note_on_c, 0, 79, 0
3, 83520, Note_on_c, 0, 57, 35
3, 83600, Note_on_c, 0, 57, 0
3, 83600, Note_on_c, 0, 67, 35
3, 83680, Note_on_c, 0, 67, 0
3, 83680, Note_on_c, 0, 73, 35
3, 83760, Note_on_c, 0, 73, 0
3, 84000, Note_on_c, 0, 79, 40
3, 84480, Note_on_c, 0, 79, 0
3, 84480, Note_on_c, 0, 57, 40
3, 84600, Note_on_c, 0, 57, 0
3, 84720, Note_on_c, 0, 64, 40
3, 84840, Note_on_c, 0, 64, 0
3, 84960, Note_on_c, 0, 67, 39
3, 85080, Note_on_c, 0, 67, 0
3, 85200, Note_on_c, 0, 71, 39
3, 85320, Note_on_c, 0, 71, 0
3, 85440, Note_on_c, 0, 73, 37
3, 85560, Note_on_c, 0, 73, 0
3, 85680, Note_on_c, 0, 76, 36
3, 85800, Note_on_c, 0, 76, 0
3, 85920, Note_on_c, 0, 79, 36
3, 86040, Note_on_c, 0, 79, 0
3, 86252, Control_c, 0, 64, 0
3, 86400, Control_c, 0, 64, 127
3, 86400, Note_on_c, 0, 53, 35
3, 86480, Note_on_c, 0, 53, 0
3, 86480, Note_on_c, 0, 63, 35
3, 86560, Note_on_c, 0, 63, 0
3, 86560, Note_on_c, 0, 69, 35
3, 86640, Note_on_c, 0, 69, 0
3, 86880, Note_on_c, 0, 75, 39
3, 87360, Note_on_c, 0, 75, 0
3, 87360, Note_on_c, 0, 53, 35
3, 87440, Note_on_c, 0, 53, 0
3, 87440, Note_on_c, 0, 63, 35
3, 87520, Note_on_c, 0, 63, 0
3, 87520, Note_on_c, 0, 69, 35
3, 87600, Note_on_c, 0, 69, 0
3, 87840, Note_on_c, 0, 75, 41
3, 88320, Note_on_c, 0, 75, 0
3, 88320, Note_on_c, 0, 53, 40
3, 88440, Note_on_c, 0, 53, 0
3, 88560, Note_on_c, 0, 60, 40
3, 88680, Note_on_c, 0, 60, 0
3, 88800, Note_on_c, 0, 63, 39
3, 88920, Note_on_c, 0, 63, 0
3, 89040, Note_on_c, 0, 67, 39
3, 89160, Note_on_c, 0, 67, 0
3, 89280, Note_on_c, 0, 69, 37
3, 89400, Note_on_c, 0, 69, 0
3, 89520, Note_on_c, 0, 72, 36
3, 89640, Note_on_c, 0, 72, 0
3, 89760, Note_on_c, 0, 75, 36
3, 89880, Note_on_c, 0, 75, 0
3, 90092, Control_c, 0, 64, 0
3, 90240, Note_on_c, 0, 50, 33
3, 90240, Control_c, 0, 64, 127
3, 90360, Note_on_c, 0, 50, 0
3, 90480, Note_on_c, 0, 57, 33
3, 90600, Note_on_c, 0, 57, 0
3, 90720, Note_on_c, 0, 60, 32
3, 90840, Note_on_c, 0, 60, 0
3, 90960, Note_on_c, 0, 64, 32
3, 91080, Note_on_c, 0, 64, 0
3, 91200, Note_on_c, 0, 66, 31
3, 91320, Note_on_c, 0, 66, 0
3, 91440, Note_on_c, 0, 69, 29
3, 91560, Note_on_c, 0, 69, 0
3, 91680, Note_on_c, 0, 72, 28
3, 91800, Note_on_c, 0, 72, 0
3, 91966, Control_c, 0, 64, 0
3, 92160, Control_c, 0, 91, 127
3, 92160, Note_on_c, 0, 74, 24
3, 92160, Note_on_c, 0, 67, 24
3, 92245, Control_c, 0, 64, 127
3, 93120, Note_on_c, 0, 67, 0
3, 93120, Note_on_c, 0, 74, 0
3, 93120, Control_c, 0, 64, 0
3, 93120, Note_on_c, 0, 76, 24
3, 93120, Note_on_c, 0, 71, 24
3, 93120, Note_on_c, 0, 64, 24
3, 93290, Control_c, 0, 64, 127
3, 94080, Note_on_c, 0, 64, 0
3, 94080, Note_on_c, 0, 71, 0
3, 94080, Note_on_c, 0, 76, 0
3, 94080, Note_on_c, 0, 67, 24
3, 94080, Note_on_c, 0, 74, 24
3, 94086, Control_c, 0, 64, 0
3, 94172, Control_c, 0, 64, 127
3, 95040, Note_on_c, 0, 74, 0
3, 95040, Note_on_c, 0, 67, 0
3, 95040, Note_on_c, 0, 64, 20
3, 95040, Note_on_c, 0, 71, 20
3, 95040, Note_on_c, 0, 76, 20
3, 95043, Control_c, 0, 64, 0
3, 95360, Control_c, 0, 64, 127
3, 96000, Note_on_c, 0, 76, 0
3, 96000, Note_on_c, 0, 71, 0
3, 96000, Note_on_c, 0, 64, 0
3, 96000, Note_on_c, 0, 67, 32
3, 96000, Note_on_c, 0, 74, 24
3, 96000, Control_c, 0, 91, 127
3, 96005, Control_c, 0, 64, 0
3, 96113, Control_c, 0, 64, 127
3, 96480, Note_on_c, 0, 67, 0
3, 96480, Note_on_c, 0, 66, 32
3, 96960, Note_on_c, 0, 66, 0
3, 96960, Note_on_c, 0, 74, 0
3, 96960, Note_on_c, 0, 76, 24
3, 96960, Note_on_c, 0, 64, 24
3, 96960, Note_on_c, 0, 71, 33
3, 96964, Control_c, 0, 64, 0
3, 97087, Control_c, 0, 64, 127
3, 97440, Note_on_c, 0, 71, 0
3, 97440, Note_on_c, 0, 70, 31
3, 97920, Note_on_c, 0, 70, 0
3, 97920, Note_on_c, 0, 64, 0
3, 97920, Note_on_c, 0, 76, 0
3, 97920, Control_c, 0, 64, 0
3, 97920, Note_on_c, 0, 69, 24
3, 97920, Note_on_c, 0, 74, 35
3, 97973, Control_c, 0, 64, 127
3, 98400, Note_on_c, 0, 74, 0
3, 98400, Note_on_c, 0, 73, 33
3, 98880, Note_on_c, 0, 73, 0
3, 98880, Note_on_c, 0, 69, 0
3, 98880, Control_c, 0, 64, 0
3, 98880, Note_on_c, 0, 62, 20
3, 98880, Note_on_c, 0, 69, 31
3, 98880, Note_on_c, 0, 74, 20
3, 98972, Control_c, 0, 64, 127
3, 99360, Note_on_c, 0, 69, 0
3, 99360, Note_on_c, 0, 70, 27
3, 99371, Control_c, 0, 64, 0
3, 99635, Control_c, 0, 64, 127
3, 99838, Note_on_c, 0, 74, 0
3, 99840, Note_on_c, 0, 70, 0
3, 99840, Note_on_c, 0, 62, 0
3, 99840, Control_c, 0, 91, 127
3, 99844, Control_c, 0, 64, 0
3, 99996, Control_c, 0, 64, 127
3, 100080, Note_on_c, 0, 55, 26
3, 100080, Note_on_c, 0, 62, 26
3, 100332, Control_c, 0, 64, 0
3, 100504, Control_c, 0, 64, 127
3, 100800, Note_on_c, 0, 62, 0
3, 100800, Note_on_c, 0, 55, 0
3, 100802, Control_c, 0, 64, 0
3, 100927, Control_c, 0, 64, 127
3, 101040, Note_on_c, 0, 52, 26
3, 101040, Note_on_c, 0, 59, 26
3, 101040, Note_on_c, 0, 64, 26
3, 101291, Control_c, 0, 64, 0
3, 101492, Control_c, 0, 64, 127
3, 101760, Note_on_c, 0, 64, 0
3, 101760, Note_on_c, 0, 59, 0
3, 101760, Note_on_c, 0, 52, 0
3, 101764, Control_c, 0, 64, 0
3, 101845, Control_c, 0, 64, 127
3, 102000, Note_on_c, 0, 55, 26
3, 102000, Note_on_c, 0, 62, 26
3, 102720, Note_on_c, 0, 62, 0
3, 102720, Note_on_c, 0, 55, 0
3, 102720, Control_c, 0, 64, 0
3, 102932, Control_c, 0, 64, 127
3, 102960, Note_on_c, 0, 64, 21
3, 102960, Note_on_c, 0, 52, 21
3, 102960, Note_on_c, 0, 59, 21
3, 103680, Note_on_c, 0, 59, 0
3, 103680, Note_on_c, 0, 52, 0
3, 103680, Note_on_c, 0, 64, 0
3, 103680, Control_c, 0, 91, 127
3, 103684, Control_c, 0, 64, 0
3, 103864, Control_c, 0, 64, 127
3, 103920, Note_on_c, 0, 55, 33
3, 103920, Note_on_c, 0, 62, 26
3, 104172, Control_c, 0, 64, 0
3, 104330, Control_c, 0, 64, 127
3, 104400, Note_on_c, 0, 55, 0
3, 104400, Note_on_c, 0, 54, 33
3, 104640, Note_on_c, 0, 54, 0
3, 104640, Note_on_c, 0, 62, 0
3, 104645, Control_c, 0, 64, 0
3, 104766, Control_c, 0, 64, 127
3, 104880, Note_on_c, 0, 52, 29
3, 104880, Note_on_c, 0, 59, 37
3, 104880, Note_on_c, 0, 64, 29
3, 105132, Control_c, 0, 64, 0
3, 105269, Control_c, 0, 64, 127
3, 105360, Note_on_c, 0, 59, 0
3, 105360, Note_on_c, 0, 58, 33
3, 105600, Note_on_c, 0, 58, 0
3, 105600, Note_on_c, 0, 64, 0
3, 105600, Note_on_c, 0, 52, 0
3, 105603, Control_c, 0, 64, 0
3, 105678, Control_c, 0, 64, 127
3, 105780, Note_on_c, 0, 45, 26
3, 105840, Note_on_c, 0, 62, 33
3, 106320, Note_on_c, 0, 62, 0
3, 106320, Note_on_c, 0, 61, 33
3, 106560, Note_on_c, 0, 61, 0
3, 106560, Note_on_c, 0, 45, 0
3, 106566, Control_c, 0, 64, 0
3, 106800, Note_on_c, 0, 62, 21
3, 106800, Note_on_c, 0, 50, 21
3, 106800, Note_on_c, 0, 57, 21
3, 106857, Control_c, 0, 64, 127
3, 107520, Note_on_c, 0, 57, 0
3, 107520, Note_on_c, 0, 50, 0
3, 107520, Note_on_c, 0, 62, 0
3, 107520, Control_c, 0, 64, 0
3, 107520, Note_on_c, 0, 62, 35
3, 107566, Control_c, 0, 64, 127
3, 107600, Note_on_c, 0, 62, 0
3, 107600, Note_on_c, 0, 72, 35
3, 107680, Note_on_c, 0, 72, 0
3, 107680, Note_on_c, 0, 78, 35
3, 107760, Note_on_c, 0, 78, 0
3, 108000, Note_on_c, 0, 84, 40
3, 108480, Note_on_c, 0, 84, 0
3, 108480, Control_c, 0, 64, 0
3, 108480, Note_on_c, 0, 62, 40
3, 108593, Control_c, 0, 64, 127
3, 108600, Note_on_c, 0, 62, 0
3, 108720, Note_on_c, 0, 71, 40
3, 108840, Note_on_c, 0, 71, 0
3, 108960, Note_on_c, 0, 74, 39
3, 109080, Note_on_c, 0, 74, 0
3, 109200, Note_on_c, 0, 79, 39
3, 109320, Note_on_c, 0, 79, 0
3, 109440, Note_on_c, 0, 62, 35
3, 109442, Control_c, 0, 64, 0
3, 109497, Control_c, 0, 64, 127
3, 109520, Note_on_c, 0, 62, 0
3, 109520, Note_on_c, 0, 69, 35
3, 109600, Note_on_c, 0, 69, 0
3, 109600, Note_on_c, 0, 73, 35
3, 109680, Note_on_c, 0, 73, 0
3, 109920, Note_on_c, 0, 79, 40
3, 110400, Note_on_c, 0, 79, 0
3, 110400, Note_on_c, 0, 62, 40
3, 110408, Control_c, 0, 64, 0
3, 110471, Control_c, 0, 64, 127
3, 110520, Note_on_c, 0, 62, 0
3, 110640, Note_on_c, 0, 69, 40
3, 110760, Note_on_c, 0, 69, 0
3, 110880, Note_on_c, 0, 74, 39
3, 111000, Note_on_c, 0, 74, 0
3, 111120, Note_on_c, 0, 78, 39
3, 111240, Note_on_c, 0, 78, 0
3, 111360, Note_on_c, 0, 50, 35
3, 111364, Control_c, 0, 64, 0
3, 111409, Control_c, 0, 64, 127
3, 111440, Note_on_c, 0, 50, 0
3, 111441, Note_on_c, 0, 60, 35
3, 111520, Note_on_c, 0, 66, 35
3, 111521, Note_on_c, 0, 60, 0
3, 111600, Note_on_c, 0, 66, 0
3, 111840, Note_on_c, 0, 72, 39
3, 112320, Note_on_c, 0, 72, 0
3, 112320, Control_c, 0, 64, 0
3, 112320, Note_on_c, 0, 50, 39
3, 112426, Control_c, 0, 64, 127
3, 112440, Note_on_c, 0, 50, 0
3, 112560, Note_on_c, 0, 59, 37
3, 112680, Note_on_c, 0, 59, 0
3, 112800, Note_on_c, 0, 62, 36
3, 112920, Note_on_c, 0, 62, 0
3, 113040, Note_on_c, 0, 67, 36
3, 113160, Note_on_c, 0, 67, 0
3, 113280, Control_c, 0, 64, 0
3, 113280, Note_on_c, 0, 50, 33
3, 113330, Control_c, 0, 64, 127
3, 113360, Note_on_c, 0, 50, 0
3, 113360, Note_on_c, 0, 57, 33
3, 113440, Note_on_c, 0, 57, 0
3, 113440, Note_on_c, 0, 61, 33
3, 113520, Note_on_c, 0, 61, 0
3, 113760, Note_on_c, 0, 67, 37
3, 114240, Note_on_c, 0, 67, 0
3, 114240, Control_c, 0, 64, 0
3, 114240, Note_on_c, 0, 50, 35
3, 114353, Control_c, 0, 64, 127
3, 114360, Note_on_c, 0, 50, 0
3, 114480, Note_on_c, 0, 57, 37
3, 114600, Note_on_c, 0, 57, 0
3, 114720, Note_on_c, 0, 62, 40
3, 114840, Note_on_c, 0, 62, 0
3, 114960, Note_on_c, 0, 69, 42
3, 115080, Note_on_c, 0, 69, 0
3, 115200, Control_c, 0, 64, 0
3, 115200, Note_on_c, 0, 74, 46
3, 115320, Note_on_c, 0, 74, 0
3, 115440, Note_on_c, 0, 69, 43
3, 115560, Note_on_c, 0, 69, 0
3, 115680, Note_on_c, 0, 62, 43
3, 115800, Note_on_c, 0, 62, 0
3, 115920, Note_on_c, 0, 69, 43
3, 116040, Note_on_c, 0, 69, 0
3, 116160, Note_on_c, 0, 62, 43
3, 116280, Note_on_c, 0, 62, 0
3, 116400, Note_on_c, 0, 57, 43
3, 116520, Note_on_c, 0, 57, 0
3, 116640, Note_on_c, 0, 62, 42
3, 116760, Note_on_c, 0, 62, 0
3, 116880, Note_on_c, 0, 57, 41
3, 117000, Note_on_c, 0, 57, 0
3, 117120, Note_on_c, 0, 50, 42
3, 117240, Note_on_c, 0, 50, 0
3, 117360, Note_on_c, 0, 57, 40
3, 117480, Note_on_c, 0, 57, 0
3, 117600, Note_on_c, 0, 50, 42
3, 117720, Note_on_c, 0, 50, 0
3, 117840, Note_on_c, 0, 45, 41
3, 117960, Note_on_c, 0, 45, 0
3, 118080, Control_c, 0, 91, 127
3, 118080, Note_on_c, 0, 38, 41
3, 118200, Note_on_c, 0, 38, 0
3, 118320, Note_on_c, 0, 45, 31
3, 118440, Note_on_c, 0, 45, 0
3, 118560, Note_on_c, 0, 38, 32
3, 118680, Note_on_c, 0, 38, 0
3, 118800, Note_on_c, 0, 45, 31
3, 118920, Note_on_c, 0, 45, 0
3, 119040, Note_on_c, 0, 38, 32
3, 119160, Note_on_c, 0, 38, 0
3, 119280, Note_on_c, 0, 45, 31
3, 119400, Note_on_c, 0, 45, 0
3, 119520, Note_on_c, 0, 38, 32
3, 119640, Note_on_c, 0, 38, 0
3, 119760, Note_on_c, 0, 45, 31
3, 119880, Note_on_c, 0, 45, 0
3, 120000, Note_on_c, 0, 38, 32
3, 120120, Note_on_c, 0, 38, 0
3, 120240, Note_on_c, 0, 45, 31
3, 120360, Note_on_c, 0, 45, 0
3, 120480, Note_on_c, 0, 38, 32
3, 120600, Note_on_c, 0, 38, 0
3, 120720, Note_on_c, 0, 45, 31
3, 120840, Note_on_c, 0, 45, 0
3, 120960, Note_on_c, 0, 38, 32
3, 121080, Note_on_c, 0, 38, 0
3, 121200, Note_on_c, 0, 45, 31
3, 121320, Note_on_c, 0, 45, 0
3, 121440, Note_on_c, 0, 38, 32
3, 121560, Note_on_c, 0, 38, 0
3, 121680, Note_on_c, 0, 45, 31
3, 121800, Note_on_c, 0, 45, 0
3, 121920, Note_on_c, 0, 38, 32
3, 122040, Note_on_c, 0, 38, 0
3, 122160, Note_on_c, 0, 45, 29
3, 122280, Note_on_c, 0, 45, 0
3, 122400, Note_on_c, 0, 38, 32
3, 122520, Note_on_c, 0, 38, 0
3, 122640, Note_on_c, 0, 45, 29
3, 122760, Note_on_c, 0, 45, 0
3, 122880, Note_on_c, 0, 38, 32
3, 123000, Note_on_c, 0, 38, 0
3, 123120, Note_on_c, 0, 45, 31
3, 123240, Note_on_c, 0, 45, 0
3, 123360, Note_on_c, 0, 38, 32
3, 123480, Note_on_c, 0, 38, 0
3, 123600, Note_on_c, 0, 45, 31
3, 123720, Note_on_c, 0, 45, 0
3, 123840, Note_on_c, 0, 38, 32
3, 123960, Note_on_c, 0, 38, 0
3, 124080, Note_on_c, 0, 45, 31
3, 124200, Note_on_c, 0, 45, 0
3, 124320, Note_on_c, 0, 38, 32
3, 124440, Note_on_c, 0, 38, 0
3, 124560, Note_on_c, 0, 45, 31
3, 124680, Note_on_c, 0, 45, 0
3, 124800, Note_on_c, 0, 38, 32
3, 124920, Note_on_c, 0, 38, 0
3, 125040, Note_on_c, 0, 45, 31
3, 125160, Note_on_c, 0, 45, 0
3, 125280, Note_on_c, 0, 38, 32
3, 125400, Note_on_c, 0, 38, 0
3, 125520, Note_on_c, 0, 45, 31
3, 125640, Note_on_c, 0, 45, 0
3, 125760, Note_on_c, 0, 38, 32
3, 125880, Note_on_c, 0, 38, 0
3, 126000, Note_on_c, 0, 45, 29
3, 126120, Note_on_c, 0, 45, 0
3, 126240, Note_on_c, 0, 38, 32
3, 126360, Note_on_c, 0, 38, 0
3, 126480, Note_on_c, 0, 45, 29
3, 126600, Note_on_c, 0, 45, 0
3, 126720, Note_on_c, 0, 38, 32
3, 126840, Note_on_c, 0, 38, 0
3, 126960, Note_on_c, 0, 45, 31
3, 127080, Note_on_c, 0, 45, 0
3, 127200, Note_on_c, 0, 38, 32
3, 127320, Note_on_c, 0, 38, 0
3, 127440, Note_on_c, 0, 45, 31
3, 127560, Note_on_c, 0, 45, 0
3, 127920, Note_on_c, 0, 65, 32
3, 127920, Note_on_c, 0, 58, 32
3, 128040, Note_on_c, 0, 58, 0
3, 128040, Note_on_c, 0, 65, 0
3, 128400, Note_on_c, 0, 60, 32
3, 128400, Note_on_c, 0, 53, 32
3, 128520, Note_on_c, 0, 53, 0
3, 128520, Note_on_c, 0, 60, 0
3, 128880, Note_on_c, 0, 62, 32
3, 128880, Note_on_c, 0, 55, 32
3, 129000, Note_on_c, 0, 55, 0
3, 129000, Note_on_c, 0, 62, 0
3, 129360, Note_on_c, 0, 50, 32
3, 129360, Note_on_c, 0, 57, 32
3, 129480, Note_on_c, 0, 57, 0
3, 129480, Note_on_c, 0, 50, 0
3, 129840, Note_on_c, 0, 51, 32
3, 129840, Note_on_c, 0, 58, 32
3, 129960, Note_on_c, 0, 58, 0
3, 129960, Note_on_c, 0, 51, 0
3, 130320, Note_on_c, 0, 46, 32
3, 130320, Note_on_c, 0, 53, 32
3, 130440, Note_on_c, 0, 53, 0
3, 130440, Note_on_c, 0, 46, 0
3, 130560, Note_on_c, 0, 45, 37
3, 130680, Note_on_c, 0, 45, 0
3, 130800, Note_on_c, 0, 52, 32
3, 130920, Note_on_c, 0, 52, 0
3, 131040, Note_on_c, 0, 45, 38
3, 131160, Note_on_c, 0, 45, 0
3, 131280, Note_on_c, 0, 52, 32
3, 131400, Note_on_c, 0, 52, 0
3, 131520, Note_on_c, 0, 39, 37
3, 131640, Note_on_c, 0, 39, 0
3, 131760, Note_on_c, 0, 46, 32
3, 131880, Note_on_c, 0, 46, 0
3, 132000, Note_on_c, 0, 39, 37
3, 132120, Note_on_c, 0, 39, 0
3, 132240, Note_on_c, 0, 46, 32
3, 132360, Note_on_c, 0, 46, 0
3, 132480, Note_on_c, 0, 45, 37
3, 132600, Note_on_c, 0, 45, 0
3, 132720, Note_on_c, 0, 52, 32
3, 132840, Note_on_c, 0, 52, 0
3, 132960, Note_on_c, 0, 45, 38
3, 133080, Note_on_c, 0, 45, 0
3, 133200, Note_on_c, 0, 52, 32
3, 133320, Note_on_c, 0, 52, 0
3, 133440, Note_on_c, 0, 39, 37
3, 133560, Note_on_c, 0, 39, 0
3, 133680, Note_on_c, 0, 46, 32
3, 133800, Note_on_c, 0, 46, 0
3, 133920, Note_on_c, 0, 39, 37
3, 134040, Note_on_c, 0, 39, 0
3, 134160, Note_on_c, 0, 46, 32
3, 134280, Note_on_c, 0, 46, 0
3, 134400, Note_on_c, 0, 45, 37
3, 134520, Note_on_c, 0, 45, 0
3, 134640, Note_on_c, 0, 52, 32
3, 134760, Note_on_c, 0, 52, 0
3, 134880, Note_on_c, 0, 39, 38
3, 135000, Note_on_c, 0, 39, 0
3, 135120, Note_on_c, 0, 46, 31
3, 135240, Note_on_c, 0, 46, 0
3, 135360, Note_on_c, 0, 45, 34
3, 135480, Note_on_c, 0, 45, 0
3, 135600, Note_on_c, 0, 52, 32
3, 135720, Note_on_c, 0, 52, 0
3, 135840, Note_on_c, 0, 39, 34
3, 135960, Note_on_c, 0, 39, 0
3, 136080, Note_on_c, 0, 46, 29
3, 136200, Note_on_c, 0, 46, 0
3, 136320, Note_on_c, 0, 45, 35
3, 136440, Note_on_c, 0, 45, 0
3, 136560, Note_on_c, 0, 52, 32
3, 136680, Note_on_c, 0, 52, 0
3, 136800, Note_on_c, 0, 39, 34
3, 136920, Note_on_c, 0, 39, 0
3, 137040, Note_on_c, 0, 46, 28
3, 137160, Note_on_c, 0, 46, 0
3, 137280, Note_on_c, 0, 45, 32
3, 137400, Note_on_c, 0, 45, 0
3, 137520, Note_on_c, 0, 52, 29
3, 137640, Note_on_c, 0, 52, 0
3, 137760, Note_on_c, 0, 39, 32
3, 137880, Note_on_c, 0, 39, 0
3, 138000, Note_on_c, 0, 46, 27
3, 138120, Note_on_c, 0, 46, 0
3, 138240, Note_on_c, 0, 45, 46
3, 138360, Note_on_c, 0, 45, 0
3, 138480, Note_on_c, 0, 52, 41
3, 138600, Note_on_c, 0, 52, 0
3, 138720, Note_on_c, 0, 46, 46
3, 138840, Note_on_c, 0, 46, 0
3, 138960, Note_on_c, 0, 52, 41
3, 139080, Note_on_c, 0, 52, 0
3, 139200, Note_on_c, 0, 44, 44
3, 139320, Note_on_c, 0, 44, 0
3, 139440, Note_on_c, 0, 52, 42
3, 139560, Note_on_c, 0, 52, 0
3, 139680, Note_on_c, 0, 45, 46
3, 139800, Note_on_c, 0, 45, 0
3, 139920, Note_on_c, 0, 52, 43
3, 140040, Note_on_c, 0, 52, 0
3, 140160, Note_on_c, 0, 46, 48
3, 140280, Note_on_c, 0, 46, 0
3, 140400, Note_on_c, 0, 52, 43
3, 140520, Note_on_c, 0, 52, 0
3, 140640, Note_on_c, 0, 47, 51
3, 140760, Note_on_c, 0, 47, 0
3, 140880, Note_on_c, 0, 52, 45
3, 141000, Note_on_c, 0, 52, 0
3, 141120, Note_on_c, 0, 48, 53
3, 141240, Note_on_c, 0, 48, 0
3, 141360, Note_on_c, 0, 52, 49
3, 141480, Note_on_c, 0, 52, 0
3, 141600, Note_on_c, 0, 47, 57
3, 141720, Note_on_c, 0, 47, 0
3, 141840, Note_on_c, 0, 52, 50
3, 141960, Note_on_c, 0, 52, 0
3, 142080, Note_on_c, 0, 46, 58
3, 142200, Note_on_c, 0, 46, 0
3, 142320, Note_on_c, 0, 52, 53
3, 142440, Note_on_c, 0, 52, 0
3, 142560, Note_on_c, 0, 45, 60
3, 142680, Note_on_c, 0, 45, 0
3, 142800, Note_on_c, 0, 52, 54
3, 142920, Note_on_c, 0, 52, 0
3, 143040, Note_on_c, 0, 44, 63
3, 143160, Note_on_c, 0, 44, 0
3, 143280, Note_on_c, 0, 52, 58
3, 143400, Note_on_c, 0, 52, 0
3, 143520, Note_on_c, 0, 43, 66
3, 143640, Note_on_c, 0, 43, 0
3, 143760, Note_on_c, 0, 49, 60
3, 143880, Note_on_c, 0, 49, 0
3, 144000, Note_on_c, 0, 42, 69
3, 144120, Note_on_c, 0, 42, 0
3, 144240, Note_on_c, 0, 49, 64
3, 144360, Note_on_c, 0, 49, 0
3, 144480, Note_on_c, 0, 41, 77
3, 144600, Note_on_c, 0, 41, 0
3, 144720, Note_on_c, 0, 49, 69
3, 144840, Note_on_c, 0, 49, 0
3, 144960, Note_on_c, 0, 40, 83
3, 145080, Note_on_c, 0, 40, 0
3, 145200, Note_on_c, 0, 49, 76
3, 145320, Note_on_c, 0, 49, 0
3, 145440, Note_on_c, 0, 39, 86
3, 145560, Note_on_c, 0, 39, 0
3, 145680, Note_on_c, 0, 49, 79
3, 145800, Note_on_c, 0, 49, 0
3, 145920, Note_on_c, 0, 38, 87
3, 145920, Note_on_c, 0, 50, 102
3, 146040, Note_on_c, 0, 50, 0
3, 146040, Note_on_c, 0, 38, 0
3, 146160, Note_on_c, 0, 33, 68
3, 146160, Note_on_c, 0, 45, 80
3, 146280, Note_on_c, 0, 45, 0
3, 146280, Note_on_c, 0, 33, 0
3, 146400, Note_on_c, 0, 38, 80
3, 146400, Note_on_c, 0, 50, 94
3, 146520, Note_on_c, 0, 50, 0
3, 146520, Note_on_c, 0, 38, 0
3, 146640, Note_on_c, 0, 33, 68
3, 146640, Note_on_c, 0, 45, 80
3, 146760, Note_on_c, 0, 45, 0
3, 146760, Note_on_c, 0, 33, 0
3, 146880, Note_on_c, 0, 38, 80
3, 146880, Note_on_c, 0, 50, 94
3, 147000, Note_on_c, 0, 50, 0
3, 147000, Note_on_c, 0, 38, 0
3, 147120, Note_on_c, 0, 33, 68
3, 147120, Note_on_c, 0, 45, 80
3, 147240, Note_on_c, 0, 45, 0
3, 147240, Note_on_c, 0, 33, 0
3, 147360, Note_on_c, 0, 38, 80
3, 147360, Note_on_c, 0, 50, 94
3, 147480, Note_on_c, 0, 50, 0
3, 147480, Note_on_c, 0, 38, 0
3, 147600, Note_on_c, 0, 45, 80
3, 147600, Note_on_c, 0, 33, 68
3, 147720, Note_on_c, 0, 33, 0
3, 147720, Note_on_c, 0, 45, 0
3, 147840, Note_on_c, 0, 38, 71
3, 147840, Note_on_c, 0, 50, 84
3, 147960, Note_on_c, 0, 50, 0
3, 147960, Note_on_c, 0, 38, 0
3, 148080, Note_on_c, 0, 33, 60
3, 148080, Note_on_c, 0, 45, 71
3, 148200, Note_on_c, 0, 45, 0
3, 148200, Note_on_c, 0, 33, 0
3, 148320, Note_on_c, 0, 38, 71
3, 148320, Note_on_c, 0, 50, 84
3, 148440, Note_on_c, 0, 50, 0
3, 148440, Note_on_c, 0, 38, 0
3, 148560, Note_on_c, 0, 45, 71
3, 148560, Note_on_c, 0, 33, 60
3, 148680, Note_on_c, 0, 33, 0
3, 148680, Note_on_c, 0, 45, 0
3, 148800, Note_on_c, 0, 38, 71
3, 148800, Note_on_c, 0, 50, 84
3, 148920, Note_on_c, 0, 50, 0
3, 148920, Note_on_c, 0, 38, 0
3, 149040, Note_on_c, 0, 33, 60
3, 149040, Note_on_c, 0, 45, 71
3, 149160, Note_on_c, 0, 45, 0
3, 149160, Note_on_c, 0, 33, 0
3, 149280, Note_on_c, 0, 38, 71
3, 149280, Note_on_c, 0, 50, 84
3, 149400, Note_on_c, 0, 50, 0
3, 149400, Note_on_c, 0, 38, 0
3, 149520, Note_on_c, 0, 45, 71
3, 149520, Note_on_c, 0, 33, 60
3, 149640, Note_on_c, 0, 33, 0
3, 149640, Note_on_c, 0, 45, 0
3, 149760, Note_on_c, 0, 38, 71
3, 149760, Note_on_c, 0, 50, 84
3, 149880, Note_on_c, 0, 50, 0
3, 149880, Note_on_c, 0, 38, 0
3, 150000, Note_on_c, 0, 33, 60
3, 150000, Note_on_c, 0, 45, 71
3, 150120, Note_on_c, 0, 45, 0
3, 150120, Note_on_c, 0, 33, 0
3, 150240, Note_on_c, 0, 38, 71
3, 150240, Note_on_c, 0, 50, 84
3, 150360, Note_on_c, 0, 50, 0
3, 150360, Note_on_c, 0, 38, 0
3, 150480, Note_on_c, 0, 45, 71
3, 150480, Note_on_c, 0, 33, 60
3, 150600, Note_on_c, 0, 33, 0
3, 150600, Note_on_c, 0, 45, 0
3, 150720, Note_on_c, 0, 38, 71
3, 150720, Note_on_c, 0, 50, 84
3, 150840, Note_on_c, 0, 50, 0
3, 150840, Note_on_c, 0, 38, 0
3, 150960, Note_on_c, 0, 33, 60
3, 150960, Note_on_c, 0, 45, 71
3, 151080, Note_on_c, 0, 45, 0
3, 151080, Note_on_c, 0, 33, 0
3, 151200, Note_on_c, 0, 38, 71
3, 151200, Note_on_c, 0, 50, 84
3, 151320, Note_on_c, 0, 50, 0
3, 151320, Note_on_c, 0, 38, 0
3, 151440, Note_on_c, 0, 45, 71
3, 151440, Note_on_c, 0, 33, 60
3, 151560, Note_on_c, 0, 33, 0
3, 151560, Note_on_c, 0, 45, 0
3, 151680, Note_on_c, 0, 38, 71
3, 151680, Note_on_c, 0, 50, 84
3, 151800, Note_on_c, 0, 50, 0
3, 151800, Note_on_c, 0, 38, 0
3, 151920, Note_on_c, 0, 33, 60
3, 151920, Note_on_c, 0, 45, 71
3, 152040, Note_on_c, 0, 45, 0
3, 152040, Note_on_c, 0, 33, 0
3, 152160, Note_on_c, 0, 38, 71
3, 152160, Note_on_c, 0, 50, 84
3, 152280, Note_on_c, 0, 50, 0
3, 152280, Note_on_c, 0, 38, 0
3, 152400, Note_on_c, 0, 45, 71
3, 152400, Note_on_c, 0, 33, 60
3, 152520, Note_on_c, 0, 33, 0
3, 152520, Note_on_c, 0, 45, 0
3, 152640, Note_on_c, 0, 38, 71
3, 152640, Note_on_c, 0, 50, 84
3, 152760, Note_on_c, 0, 50, 0
3, 152760, Note_on_c, 0, 38, 0
3, 152880, Note_on_c, 0, 33, 60
3, 152880, Note_on_c, 0, 45, 71
3, 153000, Note_on_c, 0, 45, 0
3, 153000, Note_on_c, 0, 33, 0
3, 153120, Note_on_c, 0, 38, 71
3, 153120, Note_on_c, 0, 50, 84
3, 153240, Note_on_c, 0, 50, 0
3, 153240, Note_on_c, 0, 38, 0
3, 153360, Note_on_c, 0, 45, 71
3, 153360, Note_on_c, 0, 33, 60
3, 153480, Note_on_c, 0, 33, 0
3, 153480, Note_on_c, 0, 45, 0
3, 153600, Note_on_c, 0, 38, 71
3, 153600, Note_on_c, 0, 50, 84
3, 153720, Note_on_c, 0, 50, 0
3, 153720, Note_on_c, 0, 38, 0
3, 153840, Note_on_c, 0, 33, 60
3, 153840, Note_on_c, 0, 45, 71
3, 153960, Note_on_c, 0, 45, 0
3, 153960, Note_on_c, 0, 33, 0
3, 154080, Note_on_c, 0, 38, 71
3, 154080, Note_on_c, 0, 50, 84
3, 154200, Note_on_c, 0, 50, 0
3, 154200, Note_on_c, 0, 38, 0
3, 154320, Note_on_c, 0, 45, 71
3, 154320, Note_on_c, 0, 33, 60
3, 154440, Note_on_c, 0, 33, 0
3, 154440, Note_on_c, 0, 45, 0
3, 154560, Note_on_c, 0, 38, 71
3, 154560, Note_on_c, 0, 50, 84
3, 154680, Note_on_c, 0, 50, 0
3, 154680, Note_on_c, 0, 38, 0
3, 154800, Note_on_c, 0, 33, 60
3, 154800, Note_on_c, 0, 45, 71
3, 154920, Note_on_c, 0, 45, 0
3, 154920, Note_on_c, 0, 33, 0
3, 155040, Note_on_c, 0, 38, 71
3, 155040, Note_on_c, 0, 50, 84
3, 155160, Note_on_c, 0, 50, 0
3, 155160, Note_on_c, 0, 38, 0
3, 155280, Note_on_c, 0, 45, 71
3, 155280, Note_on_c, 0, 33, 60
3, 155400, Note_on_c, 0, 33, 0
3, 155400, Note_on_c, 0, 45, 0
3, 155520, Note_on_c, 0, 65, 84
3, 155520, Note_on_c, 0, 53, 71
3, 155640, Note_on_c, 0, 53, 0
3, 155640, Note_on_c, 0, 65, 0
3, 155760, Note_on_c, 0, 38, 60
3, 155760, Note_on_c, 0, 50, 71
3, 155880, Note_on_c, 0, 50, 0
3, 155880, Note_on_c, 0, 38, 0
3, 156000, Note_on_c, 0, 52, 71
3, 156000, Note_on_c, 0, 64, 84
3, 156120, Note_on_c, 0, 64, 0
3, 156120, Note_on_c, 0, 52, 0
3, 156240, Note_on_c, 0, 38, 60
3, 156240, Note_on_c, 0, 50, 71
3, 156360, Note_on_c, 0, 50, 0
3, 156360, Note_on_c, 0, 38, 0
3, 156480, Note_on_c, 0, 62, 84
3, 156480, Note_on_c, 0, 50, 71
3, 156600, Note_on_c, 0, 50, 0
3, 156600, Note_on_c, 0, 62, 0
3, 156720, Note_on_c, 0, 38, 60
3, 156720, Note_on_c, 0, 50, 71
3, 156840, Note_on_c, 0, 50, 0
3, 156840, Note_on_c, 0, 38, 0
3, 156960, Note_on_c, 0, 48, 71
3, 156960, Note_on_c, 0, 60, 84
3, 157080, Note_on_c, 0, 60, 0
3, 157080, Note_on_c, 0, 48, 0
3, 157200, Note_on_c, 0, 38, 60
3, 157200, Note_on_c, 0, 50, 71
3, 157320, Note_on_c, 0, 50, 0
3, 157320, Note_on_c, 0, 38, 0
3, 157440, Note_on_c, 0, 46, 71
3, 157440, Note_on_c, 0, 58, 84
3, 157560, Note_on_c, 0, 58, 0
3, 157560, Note_on_c, 0, 46, 0
3, 157680, Note_on_c, 0, 38, 60
3, 157680, Note_on_c, 0, 50, 71
3, 157800, Note_on_c, 0, 50, 0
3, 157800, Note_on_c, 0, 38, 0
3, 157920, Note_on_c, 0, 45, 71
3, 157920, Note_on_c, 0, 57, 84
3, 158040, Note_on_c, 0, 57, 0
3, 158040, Note_on_c, 0, 45, 0
3, 158160, Note_on_c, 0, 38, 60
3, 158160, Note_on_c, 0, 50, 71
3, 158280, Note_on_c, 0, 50, 0
3, 158280, Note_on_c, 0, 38, 0
3, 158400, Note_on_c, 0, 43, 71
3, 158400, Note_on_c, 0, 55, 84
3, 158520, Note_on_c, 0, 55, 0
3, 158520, Note_on_c, 0, 43, 0
3, 158640, Note_on_c, 0, 38, 60
3, 158640, Note_on_c, 0, 50, 71
3, 158760, Note_on_c, 0, 50, 0
3, 158760, Note_on_c, 0, 38, 0
3, 158880, Note_on_c, 0, 43, 71
3, 158880, Note_on_c, 0, 55, 84
3, 159000, Note_on_c, 0, 55, 0
3, 159000, Note_on_c, 0, 43, 0
3, 159120, Note_on_c, 0, 38, 60
3, 159120, Note_on_c, 0, 50, 71
3, 159240, Note_on_c, 0, 50, 0
3, 159240, Note_on_c, 0, 38, 0
3, 159360, Note_on_c, 0, 62, 84
3, 159360, Note_on_c, 0, 50, 71
3, 159480, Note_on_c, 0, 50, 0
3, 159480, Note_on_c, 0, 62, 0
3, 159600, Note_on_c, 0, 38, 60
3, 159600, Note_on_c, 0, 50, 71
3, 159720, Note_on_c, 0, 50, 0
3, 159720, Note_on_c, 0, 38, 0
3, 159840, Note_on_c, 0, 48, 71
3, 159840, Note_on_c, 0, 60, 84
3, 159960, Note_on_c, 0, 60, 0
3, 159960, Note_on_c, 0, 48, 0
3, 160080, Note_on_c, 0, 38, 60
3, 160080, Note_on_c, 0, 50, 71
3, 160200, Note_on_c, 0, 50, 0
3, 160200, Note_on_c, 0, 38, 0
3, 160320, Note_on_c, 0, 58, 84
3, 160320, Note_on_c, 0, 46, 71
3, 160440, Note_on_c, 0, 46, 0
3, 160440, Note_on_c, 0, 58, 0
3, 160560, Note_on_c, 0, 38, 60
3, 160560, Note_on_c, 0, 50, 71
3, 160680, Note_on_c, 0, 50, 0
3, 160680, Note_on_c, 0, 38, 0
3, 160800, Note_on_c, 0, 45, 71
3, 160800, Note_on_c, 0, 57, 84
3, 160920, Note_on_c, 0, 57, 0
3, 160920, Note_on_c, 0, 45, 0
3, 161040, Note_on_c, 0, 38, 60
3, 161040, Note_on_c, 0, 50, 71
3, 161160, Note_on_c, 0, 50, 0
3, 161160, Note_on_c, 0, 38, 0
3, 161280, Note_on_c, 0, 43, 71
3, 161280, Note_on_c, 0, 55, 84
3, 161400, Note_on_c, 0, 55, 0
3, 161400, Note_on_c, 0, 43, 0
3, 161520, Note_on_c, 0, 38, 60
3, 161520, Note_on_c, 0, 50, 71
3, 161640, Note_on_c, 0, 50, 0
3, 161640, Note_on_c, 0, 38, 0
3, 161760, Note_on_c, 0, 41, 71
3, 161760, Note_on_c, 0, 53, 84
3, 161880, Note_on_c, 0, 53, 0
3, 161880, Note_on_c, 0, 41, 0
3, 162000, Note_on_c, 0, 38, 60
3, 162000, Note_on_c, 0, 50, 71
3, 162120, Note_on_c, 0, 50, 0
3, 162120, Note_on_c, 0, 38, 0
3, 162240, Note_on_c, 0, 40, 71
3, 162240, Note_on_c, 0, 52, 84
3, 162360, Note_on_c, 0, 52, 0
3, 162360, Note_on_c, 0, 40, 0
3, 162480, Note_on_c, 0, 38, 60
3, 162480, Note_on_c, 0, 50, 71
3, 162600, Note_on_c, 0, 50, 0
3, 162600, Note_on_c, 0, 38, 0
3, 162720, Note_on_c, 0, 40, 71
3, 162720, Note_on_c, 0, 52, 84
3, 162840, Note_on_c, 0, 52, 0
3, 162840, Note_on_c, 0, 40, 0
3, 162960, Note_on_c, 0, 38, 60
3, 162960, Note_on_c, 0, 50, 71
3, 163080, Note_on_c, 0, 50, 0
3, 163080, Note_on_c, 0, 38, 0
3, 163200, Note_on_c, 0, 53, 62
3, 163320, Note_on_c, 0, 53, 0
3, 163440, Note_on_c, 0, 38, 52
3, 163560, Note_on_c, 0, 38, 0
3, 163680, Note_on_c, 0, 52, 60
3, 163800, Note_on_c, 0, 52, 0
3, 163920, Note_on_c, 0, 38, 51
3, 164040, Note_on_c, 0, 38, 0
3, 164160, Note_on_c, 0, 50, 59
3, 164280, Note_on_c, 0, 50, 0
3, 164400, Note_on_c, 0, 38, 50
3, 164520, Note_on_c, 0, 38, 0
3, 164640, Note_on_c, 0, 48, 58
3, 164760, Note_on_c, 0, 48, 0
3, 164880, Note_on_c, 0, 38, 49
3, 165000, Note_on_c, 0, 38, 0
3, 165120, Note_on_c, 0, 46, 57
3, 165240, Note_on_c, 0, 46, 0
3, 165360, Note_on_c, 0, 38, 48
3, 165480, Note_on_c, 0, 38, 0
3, 165600, Note_on_c, 0, 45, 56
3, 165720, Note_on_c, 0, 45, 0
3, 165840, Note_on_c, 0, 38, 48
3, 165960, Note_on_c, 0, 38, 0
3, 166080, Note_on_c, 0, 43, 55
3, 166200, Note_on_c, 0, 43, 0
3, 166320, Note_on_c, 0, 38, 47
3, 166440, Note_on_c, 0, 38, 0
3, 166560, Note_on_c, 0, 43, 54
3, 166680, Note_on_c, 0, 43, 0
3, 166800, Note_on_c, 0, 38, 46
3, 166920, Note_on_c, 0, 38, 0
3, 167040, Note_on_c, 0, 50, 49
3, 167160, Note_on_c, 0, 50, 0
3, 167280, Note_on_c, 0, 38, 41
3, 167400, Note_on_c, 0, 38, 0
3, 167520, Note_on_c, 0, 48, 48
3, 167640, Note_on_c, 0, 48, 0
3, 167760, Note_on_c, 0, 38, 41
3, 167880, Note_on_c, 0, 38, 0
3, 168000, Note_on_c, 0, 46, 48
3, 168120, Note_on_c, 0, 46, 0
3, 168240, Note_on_c, 0, 38, 40
3, 168360, Note_on_c, 0, 38, 0
3, 168480, Note_on_c, 0, 45, 47
3, 168600, Note_on_c, 0, 45, 0
3, 168720, Note_on_c, 0, 38, 40
3, 168840, Note_on_c, 0, 38, 0
3, 168960, Note_on_c, 0, 43, 47
3, 169080, Note_on_c, 0, 43, 0
3, 169200, Note_on_c, 0, 38, 40
3, 169320, Note_on_c, 0, 38, 0
3, 169440, Note_on_c, 0, 41, 46
3, 169560, Note_on_c, 0, 41, 0
3, 169680, Note_on_c, 0, 38, 39
3, 169800, Note_on_c, 0, 38, 0
3, 169920, Note_on_c, 0, 40, 46
3, 170040, Note_on_c, 0, 40, 0
3, 170160, Note_on_c, 0, 38, 37
3, 170280, Note_on_c, 0, 38, 0
3, 170400, Note_on_c, 0, 40, 44
3, 170520, Note_on_c, 0, 40, 0
3, 170640, Note_on_c, 0, 38, 37
3, 170760, Note_on_c, 0, 38, 0
3, 170880, Note_on_c, 0, 39, 47
3, 171000, Note_on_c, 0, 39, 0
3, 171120, Note_on_c, 0, 45, 41
3, 171240, Note_on_c, 0, 45, 0
3, 171360, Note_on_c, 0, 39, 47
3, 171480, Note_on_c, 0, 39, 0
3, 171600, Note_on_c, 0, 45, 41
3, 171720, Note_on_c, 0, 45, 0
3, 171840, Note_on_c, 0, 38, 47
3, 171960, Note_on_c, 0, 38, 0
3, 172080, Note_on_c, 0, 45, 41
3, 172200, Note_on_c, 0, 45, 0
3, 172320, Note_on_c, 0, 38, 48
3, 172440, Note_on_c, 0, 38, 0
3, 172560, Note_on_c, 0, 45, 41
3, 172680, Note_on_c, 0, 45, 0
3, 172800, Note_on_c, 0, 39, 47
3, 172920, Note_on_c, 0, 39, 0
3, 173040, Note_on_c, 0, 45, 41
3, 173160, Note_on_c, 0, 45, 0
3, 173280, Note_on_c, 0, 39, 47
3, 173400, Note_on_c, 0, 39, 0
3, 173520, Note_on_c, 0, 45, 41
3, 173640, Note_on_c, 0, 45, 0
3, 173760, Note_on_c, 0, 38, 47
3, 173880, Note_on_c, 0, 38, 0
3, 174000, Note_on_c, 0, 45, 41
3, 174120, Note_on_c, 0, 45, 0
3, 174240, Note_on_c, 0, 39, 48
3, 174360, Note_on_c, 0, 39, 0
3, 174480, Note_on_c, 0, 45, 39
3, 174600, Note_on_c, 0, 45, 0
3, 174720, Note_on_c, 0, 38, 43
3, 174840, Note_on_c, 0, 38, 0
3, 174960, Note_on_c, 0, 45, 41
3, 175080, Note_on_c, 0, 45, 0
3, 175200, Note_on_c, 0, 39, 43
3, 175320, Note_on_c, 0, 39, 0
3, 175440, Note_on_c, 0, 45, 36
3, 175560, Note_on_c, 0, 45, 0
3, 175680, Note_on_c, 0, 38, 43
3, 175800, Note_on_c, 0, 38, 0
3, 175920, Note_on_c, 0, 45, 39
3, 176040, Note_on_c, 0, 45, 0
3, 176160, Note_on_c, 0, 39, 42
3, 176280, Note_on_c, 0, 39, 0
3, 176400, Note_on_c, 0, 45, 34
3, 176520, Note_on_c, 0, 45, 0
3, 176640, Note_on_c, 0, 38, 39
3, 176760, Note_on_c, 0, 38, 0
3, 176880, Note_on_c, 0, 45, 36
3, 177000, Note_on_c, 0, 45, 0
3, 177120, Note_on_c, 0, 39, 37
3, 177240, Note_on_c, 0, 39, 0
3, 177360, Note_on_c, 0, 45, 32
3, 177480, Note_on_c, 0, 45, 0
3, 177600, Note_on_c, 0, 38, 41
3, 177720, Note_on_c, 0, 38, 0
3, 177840, Note_on_c, 0, 45, 39
3, 177960, Note_on_c, 0, 45, 0
3, 178080, Note_on_c, 0, 38, 41
3, 178200, Note_on_c, 0, 38, 0
3, 178320, Note_on_c, 0, 45, 39
3, 178440, Note_on_c, 0, 45, 0
3, 178560, Note_on_c, 0, 38, 41
3, 178680, Note_on_c, 0, 38, 0
3, 178800, Note_on_c, 0, 45, 39
3, 178920, Note_on_c, 0, 45, 0
3, 179040, Note_on_c, 0, 38, 41
3, 179160, Note_on_c, 0, 38, 0
3, 179280, Note_on_c, 0, 45, 39
3, 179400, Note_on_c, 0, 45, 0
3, 179520, Note_on_c, 0, 38, 41
3, 179640, Note_on_c, 0, 38, 0
3, 179760, Note_on_c, 0, 45, 39
3, 179880, Note_on_c, 0, 45, 0
3, 180000, Note_on_c, 0, 38, 41
3, 180120, Note_on_c, 0, 38, 0
3, 180240, Note_on_c, 0, 45, 39
3, 180360, Note_on_c, 0, 45, 0
3, 180480, Note_on_c, 0, 38, 41
3, 180600, Note_on_c, 0, 38, 0
3, 180720, Note_on_c, 0, 45, 37
3, 180840, Note_on_c, 0, 45, 0
3, 180960, Note_on_c, 0, 38, 41
3, 181080, Note_on_c, 0, 38, 0
3, 181200, Note_on_c, 0, 45, 37
3, 181320, Note_on_c, 0, 45, 0
3, 181440, Note_on_c, 0, 38, 43
3, 181560, Note_on_c, 0, 38, 0
3, 181680, Note_on_c, 0, 45, 40
3, 181800, Note_on_c, 0, 45, 0
3, 181920, Note_on_c, 0, 38, 43
3, 182040, Note_on_c, 0, 38, 0
3, 182160, Note_on_c, 0, 45, 41
3, 182280, Note_on_c, 0, 45, 0
3, 182400, Note_on_c, 0, 38, 42
3, 182520, Note_on_c, 0, 38, 0
3, 182640, Note_on_c, 0, 45, 40
3, 182760, Note_on_c, 0, 45, 0
3, 182880, Note_on_c, 0, 50, 42
3, 183000, Note_on_c, 0, 50, 0
3, 183120, Note_on_c, 0, 57, 40
3, 183240, Note_on_c, 0, 57, 0
3, 184101, Control_c, 0, 64, 127
3, 185280, Note_on_c, 0, 50, 90
3, 185280, Note_on_c, 0, 38, 75
3, 185280, Note_on_c, 0, 45, 75
3, 185400, Note_on_c, 0, 45, 0
3, 185400, Note_on_c, 0, 38, 0
3, 185400, Note_on_c, 0, 50, 0
3, 185400, Note_on_c, 0, 38, 68
3, 185400, Note_on_c, 0, 50, 81
3, 185400, Note_on_c, 0, 45, 68
3, 185520, Note_on_c, 0, 45, 0
3, 185520, Note_on_c, 0, 50, 0
3, 185520, Note_on_c, 0, 38, 0
3, 185577, Control_c, 0, 64, 0
3, 185577, End_track
4, 0, Start_track
4, 0, Title_t, "Grieg: Zug der Zwerge, Op. 54 No. 3"
4, 0, End_track
5, 0, Start_track
5, 0, Title_t, "Copyright © 1998 by Bernd Krueger"
5, 0, End_track
6, 0, Start_track
6, 0, Title_t, "http://www.piano-midi.de"
6, 0, End_track
7, 0, Start_track
7, 0, Title_t, "Edition: 2012-11-08"
7, 0, End_track
0, 0, End_of_file
