0, 0, Header, 1, 8, 480
1, 0, Start_track
1, 0, Title_t, "Hochzeitstag auf Troldhaugen Op 65, No. 6"
1, 0, Copyright_t, "Copyright © 1998 by Bernd Krüger http://www.piano-midi.de"
1, 0, Text_t, "Edvard Grieg"
1, 0, Text_t, "Tempo di Marcia un poco vivace"
1, 0, Text_t, "Fertiggestellt am 21.2.98\012"
1, 0, Text_t, "Korrekturen am 5.9.98\012"
1, 0, Text_t, "Anpassungen an Digitalpiano am 28.12.98\012"
1, 0, Text_t, "Update am 19.8.99\012"
1, 0, Text_t, "Normierung: 23.12.2002\012"
1, 0, Text_t, "Update: 30.4.2007 (Umstieg auf SONAR, Lautstärkenänderungen)\012"
1, 0, Text_t, "Update: 18.11.2012\012"
1, 0, Text_t, "Dauer: 5:33 Minuten \012"
1, 0, SMPTE_offset, 96, 0, 3, 0, 0
1, 0, Time_signature, 4, 2, 24, 8
1, 0, Key_signature, 2, "major"
1, 0, Tempo, 525026
1, 0, Marker_t, "Hochzeitstag auf Troldhaugen"
1, 480, Tempo, 508130
1, 1440, Tempo, 475511
1, 2880, Tempo, 479118
1, 3600, Tempo, 475511
1, 4320, Tempo, 468457
1, 4560, Tempo, 477327
1, 4800, Tempo, 475511
1, 5040, Tempo, 475511
1, 5280, Tempo, 475511
1, 6720, Tempo, 468457
1, 6960, Tempo, 482820
1, 7200, Tempo, 464972
1, 7680, Tempo, 471958
1, 7920, Tempo, 453275
1, 8160, Tempo, 464972
1, 8640, Tempo, 468457
1, 8880, Tempo, 453275
1, 9120, Tempo, 456552
1, 9600, Tempo, 459911
1, 10080, Tempo, 466708
1, 11040, Tempo, 459911
1, 12000, Tempo, 470183
1, 12240, Tempo, 470183
1, 12480, Tempo, 470183
1, 12720, Tempo, 470183
1, 12960, Tempo, 461574
1, 13440, Tempo, 468457
1, 13680, Tempo, 466708
1, 13920, Tempo, 468457
1, 14640, Tempo, 488400
1, 14880, Tempo, 470183
1, 15360, Tempo, 471958
1, 15600, Tempo, 454925
1, 15840, Tempo, 470183
1, 16320, Tempo, 446861
1, 16560, Tempo, 461574
1, 16800, Tempo, 454925
1, 17280, Tempo, 461574
1, 18720, Tempo, 516440
1, 19680, Tempo, 496114
1, 20640, Tempo, 475511
1, 22080, Tempo, 479118
1, 22800, Tempo, 475511
1, 23040, Tempo, 464972
1, 23520, Tempo, 470183
1, 23760, Tempo, 471958
1, 24000, Tempo, 466708
1, 24240, Tempo, 475511
1, 24480, Tempo, 475511
1, 25920, Tempo, 468457
1, 26160, Tempo, 482820
1, 26400, Tempo, 464972
1, 26880, Tempo, 471958
1, 27120, Tempo, 453275
1, 27360, Tempo, 464972
1, 27840, Tempo, 468457
1, 28080, Tempo, 453275
1, 28320, Tempo, 456552
1, 28800, Tempo, 459911
1, 29280, Tempo, 466708
1, 30240, Tempo, 459911
1, 31200, Tempo, 468457
1, 31440, Tempo, 470183
1, 31680, Tempo, 466708
1, 31920, Tempo, 470183
1, 32160, Tempo, 461574
1, 32640, Tempo, 468457
1, 32880, Tempo, 466708
1, 33120, Tempo, 468457
1, 33840, Tempo, 486539
1, 34080, Tempo, 470183
1, 34560, Tempo, 471958
1, 34800, Tempo, 454925
1, 35040, Tempo, 470183
1, 35520, Tempo, 446861
1, 35760, Tempo, 461574
1, 36000, Tempo, 454925
1, 36480, Tempo, 461574
1, 37920, Tempo, 477327
1, 38400, Tempo, 466708
1, 38880, Tempo, 461574
1, 39120, Tempo, 498049
1, 39360, Tempo, 466708
1, 39840, Tempo, 461574
1, 40080, Tempo, 494153
1, 40320, Tempo, 458225
1, 40800, Tempo, 461574
1, 41040, Tempo, 492247
1, 41280, Tempo, 458225
1, 41760, Tempo, 461574
1, 42240, Tempo, 458225
1, 42480, Tempo, 448430
1, 42720, Tempo, 463285
1, 45120, Tempo, 455927
1, 45600, Tempo, 460759
1, 45840, Tempo, 470773
1, 46080, Tempo, 457526
1, 46320, Tempo, 470773
1, 46560, Tempo, 457526
1, 46800, Tempo, 470773
1, 47040, Tempo, 441956
1, 47280, Tempo, 460759
1, 47520, Tempo, 446495
1, 47760, Tempo, 455927
1, 47880, Tempo, 480962
1, 48000, Tempo, 454339
1, 48480, Tempo, 464037
1, 48720, Tempo, 475964
1, 48960, Tempo, 444972
1, 49301, Tempo, 431530
1, 49440, Tempo, 488400
1, 49680, Tempo, 494153
1, 49940, Tempo, 458225
1, 50400, Tempo, 461574
1, 50640, Tempo, 490316
1, 50880, Tempo, 458225
1, 51360, Tempo, 461574
1, 51840, Tempo, 458225
1, 52080, Tempo, 448430
1, 52320, Tempo, 463285
1, 54720, Tempo, 455927
1, 55200, Tempo, 460759
1, 55440, Tempo, 470773
1, 55680, Tempo, 457526
1, 55920, Tempo, 470773
1, 56160, Tempo, 457526
1, 56400, Tempo, 470773
1, 56640, Tempo, 441956
1, 56880, Tempo, 460759
1, 57120, Tempo, 446495
1, 57360, Tempo, 455927
1, 57480, Tempo, 492247
1, 57600, Tempo, 454339
1, 58080, Tempo, 464037
1, 58320, Tempo, 475964
1, 59040, Tempo, 458225
1, 59520, Tempo, 466708
1, 59760, Tempo, 479118
1, 60000, Tempo, 453275
1, 60480, Tempo, 463285
1, 60720, Tempo, 479118
1, 60960, Tempo, 445269
1, 61440, Tempo, 456552
1, 61680, Tempo, 475511
1, 61920, Tempo, 448430
1, 62400, Tempo, 463285
1, 62880, Tempo, 458225
1, 63360, Tempo, 466708
1, 63600, Tempo, 479118
1, 63840, Tempo, 453275
1, 64320, Tempo, 463285
1, 64560, Tempo, 479118
1, 64800, Tempo, 445269
1, 65280, Tempo, 456552
1, 65520, Tempo, 475511
1, 65760, Tempo, 448430
1, 66240, Tempo, 466708
1, 66720, Tempo, 466708
1, 67200, Tempo, 466708
1, 67440, Tempo, 479118
1, 67680, Tempo, 454925
1, 68160, Tempo, 463285
1, 68400, Tempo, 479118
1, 68640, Tempo, 456552
1, 69120, Tempo, 466708
1, 69360, Tempo, 475511
1, 69600, Tempo, 458225
1, 70080, Tempo, 463285
1, 70560, Tempo, 458225
1, 71040, Tempo, 466708
1, 71280, Tempo, 479118
1, 71520, Tempo, 451637
1, 72000, Tempo, 463285
1, 72240, Tempo, 479118
1, 72480, Tempo, 446861
1, 72960, Tempo, 456552
1, 73200, Tempo, 450045
1, 73440, Tempo, 448430
1, 73920, Tempo, 463285
1, 74400, Tempo, 446861
1, 74880, Tempo, 456552
1, 75120, Tempo, 463285
1, 75360, Tempo, 443689
1, 75840, Tempo, 458225
1, 76320, Tempo, 445269
1, 76800, Tempo, 458225
1, 77040, Tempo, 463285
1, 77280, Tempo, 445269
1, 77760, Tempo, 461574
1, 78000, Tempo, 450045
1, 78240, Tempo, 445269
1, 78720, Tempo, 436015
1, 78960, Tempo, 425713
1, 79200, Tempo, 424268
1, 79440, Tempo, 422863
1, 79660, Tempo, 421437
1, 79680, Tempo, 433025
1, 79920, Tempo, 418644
1, 80640, Tempo, 427168
1, 80880, Tempo, 415887
1, 81600, Tempo, 427168
1, 81840, Tempo, 415887
1, 82560, Tempo, 436015
1, 82800, Tempo, 420021
1, 83520, Tempo, 442152
1, 83760, Tempo, 428602
1, 83780, Tempo, 430077
1, 83800, Tempo, 431530
1, 83820, Tempo, 433025
1, 83840, Tempo, 434531
1, 83860, Tempo, 437541
1, 83880, Tempo, 439078
1, 83900, Tempo, 440593
1, 83920, Tempo, 442152
1, 83940, Tempo, 445269
1, 83960, Tempo, 446861
1, 83980, Tempo, 448430
1, 84000, Tempo, 450045
1, 84020, Tempo, 453275
1, 84040, Tempo, 454925
1, 84060, Tempo, 456552
1, 84080, Tempo, 458225
1, 84100, Tempo, 461574
1, 84120, Tempo, 463285
1, 84140, Tempo, 464972
1, 84160, Tempo, 466708
1, 84180, Tempo, 470183
1, 84200, Tempo, 471958
1, 84220, Tempo, 473709
1, 84240, Tempo, 475511
1, 84260, Tempo, 479118
1, 84280, Tempo, 480962
1, 84300, Tempo, 482820
1, 84320, Tempo, 484653
1, 84340, Tempo, 488400
1, 84360, Tempo, 490316
1, 84480, Tempo, 448430
1, 85920, Tempo, 461574
1, 86400, Tempo, 448430
1, 88320, Tempo, 463285
1, 88800, Tempo, 450045
1, 90240, Tempo, 475511
1, 90720, Tempo, 508130
1, 91200, Tempo, 520698
1, 91680, Tempo, 684853
1, 91920, Tempo, 741290
1, 92160, Tempo, 479118
1, 92400, Tempo, 468457
1, 92640, Tempo, 464972
1, 92880, Tempo, 458225
1, 93120, Tempo, 464972
1, 93360, Tempo, 458225
1, 93600, Tempo, 446861
1, 93840, Tempo, 454925
1, 94080, Tempo, 442152
1, 95040, Tempo, 450045
1, 95520, Tempo, 439078
1, 95760, Tempo, 443689
1, 96000, Tempo, 450045
1, 96240, Tempo, 439078
1, 96480, Tempo, 439078
1, 96720, Tempo, 448430
1, 96960, Tempo, 459911
1, 97200, Tempo, 445269
1, 97440, Tempo, 456552
1, 97680, Tempo, 470183
1, 97920, Tempo, 459911
1, 98400, Tempo, 466708
1, 99360, Tempo, 459911
1, 99840, Tempo, 453275
1, 100320, Tempo, 466708
1, 100560, Tempo, 454925
1, 100800, Tempo, 445269
1, 101040, Tempo, 459911
1, 101280, Tempo, 442152
1, 101520, Tempo, 458225
1, 101760, Tempo, 461574
1, 102240, Tempo, 439078
1, 102720, Tempo, 431530
1, 102960, Tempo, 463285
1, 103200, Tempo, 440593
1, 103680, Tempo, 453275
1, 103920, Tempo, 434531
1, 104160, Tempo, 446861
1, 104400, Tempo, 446861
1, 104640, Tempo, 440593
1, 104880, Tempo, 461574
1, 105120, Tempo, 461574
1, 105600, Tempo, 470183
1, 106560, Tempo, 498049
1, 107520, Time_signature, 2, 2, 24, 8
1, 107520, Key_signature, 1, "major"
1, 107520, Tempo, 639182
1, 107520, Marker_t, "Poco tranquillo"
1, 108480, Tempo, 615448
1, 109420, Tempo, 559858
1, 109440, Tempo, 578202
1, 109680, Tempo, 551268
1, 110160, Tempo, 563063
1, 110400, Tempo, 580327
1, 110640, Tempo, 553608
1, 111120, Tempo, 563063
1, 111360, Tempo, 577756
1, 111600, Tempo, 535427
1, 112080, Tempo, 537875
1, 112320, Tempo, 560643
1, 112560, Tempo, 533191
1, 113040, Tempo, 525026
1, 113280, Tempo, 546747
1, 113281, Tempo, 540054
1, 113520, Tempo, 527148
1, 114000, Tempo, 522967
1, 114240, Tempo, 546747
1, 114480, Tempo, 527148
1, 114960, Tempo, 542250
1, 115200, Tempo, 563063
1, 115440, Tempo, 533523
1, 115920, Tempo, 546747
1, 116400, Tempo, 604169
1, 116880, Tempo, 639182
1, 117120, Tempo, 596007
1, 117360, Tempo, 553608
1, 117840, Tempo, 533523
1, 118080, Tempo, 577756
1, 118320, Tempo, 558243
1, 118800, Tempo, 529241
1, 119040, Tempo, 570288
1, 119280, Tempo, 549048
1, 119760, Tempo, 527148
1, 120000, Tempo, 553608
1, 120240, Tempo, 537875
1, 120720, Tempo, 546747
1, 120960, Tempo, 558243
1, 121200, Tempo, 577756
1, 121680, Tempo, 551268
1, 121920, Tempo, 580327
1, 122160, Tempo, 558243
1, 122520, Tempo, 604169
1, 122640, Tempo, 685558
1, 122800, Tempo, 727008
1, 122880, Tempo, 633112
1, 123120, Tempo, 615448
1, 123600, Tempo, 651749
1, 123840, Tempo, 675143
1, 124320, Tempo, 696379
1, 124800, Tempo, 590667
1, 125040, Tempo, 551268
1, 125520, Tempo, 520924
1, 125640, Tempo, 563063
1, 125760, Tempo, 558243
1, 126000, Tempo, 540054
1, 126480, Tempo, 522967
1, 126600, Tempo, 555967
1, 126720, Tempo, 553608
1, 126960, Tempo, 533523
1, 127440, Tempo, 522967
1, 127560, Tempo, 555967
1, 127680, Tempo, 553608
1, 127920, Tempo, 533523
1, 128400, Tempo, 520924
1, 128640, Tempo, 549048
1, 128880, Tempo, 537875
1, 129360, Tempo, 505008
1, 129600, Tempo, 531397
1, 129820, Tempo, 493705
1, 129840, Tempo, 501211
1, 130080, Tempo, 514845
1, 130320, Tempo, 529241
1, 131280, Tempo, 572792
1, 132000, Tempo, 696379
1, 132180, Tempo, 621182
1, 132480, Tempo, 590667
1, 132720, Tempo, 551268
1, 133200, Tempo, 520924
1, 133320, Tempo, 563063
1, 133440, Tempo, 558243
1, 133680, Tempo, 540054
1, 134160, Tempo, 522967
1, 134280, Tempo, 555967
1, 134400, Tempo, 553608
1, 134640, Tempo, 533523
1, 135120, Tempo, 522967
1, 135240, Tempo, 555967
1, 135360, Tempo, 553608
1, 135600, Tempo, 533523
1, 136080, Tempo, 520924
1, 136320, Tempo, 549048
1, 136560, Tempo, 537875
1, 137040, Tempo, 505008
1, 137280, Tempo, 529241
1, 137520, Tempo, 499293
1, 137760, Tempo, 512821
1, 138000, Tempo, 529241
1, 138960, Tempo, 572792
1, 139920, Tempo, 615448
1, 140160, Tempo, 585480
1, 140400, Tempo, 522967
1, 140640, Tempo, 551268
1, 140880, Tempo, 563063
1, 141120, Tempo, 572792
1, 141360, Tempo, 553608
1, 141840, Tempo, 542250
1, 142080, Tempo, 563063
1, 142320, Tempo, 520924
1, 142540, Tempo, 533523
1, 142800, Tempo, 537875
1, 143040, Tempo, 555967
1, 143280, Tempo, 533191
1, 143760, Tempo, 525026
1, 144000, Tempo, 546747
1, 144240, Tempo, 516885
1, 144480, Tempo, 527148
1, 144720, Tempo, 522967
1, 144960, Tempo, 546747
1, 145200, Tempo, 527148
1, 145680, Tempo, 542250
1, 145920, Tempo, 563063
1, 146160, Tempo, 522967
1, 146400, Tempo, 533523
1, 146640, Tempo, 546747
1, 147120, Tempo, 604169
1, 147600, Tempo, 639182
1, 147840, Tempo, 580327
1, 148080, Tempo, 520924
1, 148320, Tempo, 553608
1, 148560, Tempo, 533523
1, 148800, Tempo, 577756
1, 149040, Tempo, 558243
1, 149520, Tempo, 529241
1, 149760, Tempo, 560643
1, 150000, Tempo, 525026
1, 150240, Tempo, 549048
1, 150480, Tempo, 527148
1, 150720, Tempo, 553608
1, 150960, Tempo, 537875
1, 151440, Tempo, 546747
1, 151680, Tempo, 558243
1, 151920, Tempo, 537875
1, 152160, Tempo, 577756
1, 152400, Tempo, 551268
1, 152520, Tempo, 696379
1, 152640, Tempo, 580327
1, 152880, Tempo, 558243
1, 153240, Tempo, 604169
1, 153360, Tempo, 685558
1, 153520, Tempo, 727008
1, 153600, Tempo, 633112
1, 153840, Tempo, 615448
1, 154320, Tempo, 678503
1, 154560, Tempo, 723066
1, 155040, Tempo, 696379
1, 155520, Tempo, 590667
1, 155760, Tempo, 551268
1, 156240, Tempo, 520924
1, 156360, Tempo, 563063
1, 156480, Tempo, 558243
1, 156720, Tempo, 540054
1, 157200, Tempo, 522967
1, 157320, Tempo, 555967
1, 157440, Tempo, 553608
1, 157680, Tempo, 533523
1, 158160, Tempo, 522967
1, 158280, Tempo, 555967
1, 158400, Tempo, 553608
1, 158640, Tempo, 533523
1, 159120, Tempo, 520924
1, 159360, Tempo, 549048
1, 159600, Tempo, 537875
1, 160080, Tempo, 505008
1, 160320, Tempo, 531397
1, 160540, Tempo, 493705
1, 160560, Tempo, 497389
1, 160800, Tempo, 508906
1, 161040, Tempo, 529241
1, 162000, Tempo, 572792
1, 162720, Tempo, 696379
1, 162900, Tempo, 621182
1, 163200, Tempo, 590667
1, 163440, Tempo, 551268
1, 163920, Tempo, 520924
1, 164040, Tempo, 563063
1, 164160, Tempo, 558243
1, 164400, Tempo, 540054
1, 164880, Tempo, 522967
1, 165000, Tempo, 555967
1, 165120, Tempo, 553608
1, 165360, Tempo, 533523
1, 165840, Tempo, 522967
1, 165960, Tempo, 555967
1, 166080, Tempo, 553608
1, 166320, Tempo, 533523
1, 166800, Tempo, 520924
1, 167040, Tempo, 549048
1, 167280, Tempo, 537875
1, 167760, Tempo, 505008
1, 168000, Tempo, 529241
1, 168240, Tempo, 497389
1, 168480, Tempo, 506971
1, 168720, Tempo, 529241
1, 169680, Tempo, 572792
1, 170640, Tempo, 615448
1, 170880, Tempo, 585480
1, 171120, Tempo, 522967
1, 171360, Tempo, 551268
1, 171600, Tempo, 563063
1, 171840, Tempo, 570288
1, 172080, Tempo, 553608
1, 172560, Tempo, 542250
1, 172800, Tempo, 563063
1, 173040, Tempo, 520924
1, 173260, Tempo, 533523
1, 173520, Tempo, 537875
1, 173760, Tempo, 551268
1, 174000, Tempo, 533191
1, 174480, Tempo, 525026
1, 174720, Tempo, 546747
1, 174960, Tempo, 516885
1, 175200, Tempo, 527148
1, 175440, Tempo, 522967
1, 175680, Tempo, 546747
1, 175920, Tempo, 527148
1, 176400, Tempo, 542250
1, 176640, Tempo, 563063
1, 176880, Tempo, 522967
1, 177120, Tempo, 533523
1, 177360, Tempo, 546747
1, 177840, Tempo, 604169
1, 178320, Tempo, 639182
1, 178560, Tempo, 580327
1, 178800, Tempo, 520924
1, 179040, Tempo, 553608
1, 179280, Tempo, 533523
1, 179520, Tempo, 577756
1, 179760, Tempo, 558243
1, 180240, Tempo, 529241
1, 180480, Tempo, 560643
1, 180720, Tempo, 525026
1, 180960, Tempo, 549048
1, 181200, Tempo, 527148
1, 181440, Tempo, 553608
1, 181680, Tempo, 537875
1, 182160, Tempo, 546747
1, 182400, Tempo, 558243
1, 182640, Tempo, 537875
1, 182880, Tempo, 577756
1, 183120, Tempo, 551268
1, 183240, Tempo, 696379
1, 183360, Tempo, 580327
1, 183600, Tempo, 558243
1, 183960, Tempo, 604169
1, 184080, Tempo, 685558
1, 184240, Tempo, 727008
1, 184320, Tempo, 633112
1, 184560, Tempo, 615448
1, 185040, Tempo, 678503
1, 185280, Tempo, 723066
1, 185760, Tempo, 853728
1, 186240, Time_signature, 4, 2, 24, 8
1, 186240, Key_signature, 2, "major"
1, 186240, Tempo, 518583
1, 186720, Tempo, 508130
1, 187680, Tempo, 475511
1, 189120, Tempo, 479118
1, 189840, Tempo, 475511
1, 190560, Tempo, 468457
1, 190800, Tempo, 477327
1, 191040, Tempo, 475511
1, 191280, Tempo, 475511
1, 191520, Tempo, 475511
1, 192960, Tempo, 468457
1, 193200, Tempo, 482820
1, 193440, Tempo, 464972
1, 193920, Tempo, 471958
1, 194160, Tempo, 453275
1, 194400, Tempo, 464972
1, 194880, Tempo, 468457
1, 195120, Tempo, 453275
1, 195360, Tempo, 456552
1, 195840, Tempo, 459911
1, 196320, Tempo, 466708
1, 197280, Tempo, 459911
1, 198240, Tempo, 470183
1, 198480, Tempo, 470183
1, 198720, Tempo, 470183
1, 198960, Tempo, 470183
1, 199200, Tempo, 461574
1, 199680, Tempo, 468457
1, 199920, Tempo, 466708
1, 200160, Tempo, 468457
1, 200880, Tempo, 488400
1, 201120, Tempo, 470183
1, 201600, Tempo, 471958
1, 201840, Tempo, 454925
1, 202080, Tempo, 470183
1, 202560, Tempo, 446861
1, 202800, Tempo, 461574
1, 203040, Tempo, 454925
1, 203520, Tempo, 461574
1, 204960, Tempo, 516440
1, 205920, Tempo, 496114
1, 206880, Tempo, 475511
1, 208320, Tempo, 479118
1, 209040, Tempo, 475511
1, 209280, Tempo, 464972
1, 209760, Tempo, 470183
1, 210000, Tempo, 471958
1, 210240, Tempo, 466708
1, 210480, Tempo, 475511
1, 210720, Tempo, 475511
1, 212160, Tempo, 468457
1, 212400, Tempo, 482820
1, 212640, Tempo, 464972
1, 213120, Tempo, 471958
1, 213360, Tempo, 453275
1, 213600, Tempo, 464972
1, 214080, Tempo, 468457
1, 214320, Tempo, 453275
1, 214560, Tempo, 456552
1, 215040, Tempo, 459911
1, 215520, Tempo, 466708
1, 216480, Tempo, 459911
1, 217440, Tempo, 468457
1, 217680, Tempo, 470183
1, 217920, Tempo, 466708
1, 218160, Tempo, 470183
1, 218400, Tempo, 461574
1, 218880, Tempo, 468457
1, 219120, Tempo, 466708
1, 219360, Tempo, 468457
1, 220080, Tempo, 486539
1, 220320, Tempo, 470183
1, 220800, Tempo, 471958
1, 221040, Tempo, 454925
1, 221280, Tempo, 470183
1, 221760, Tempo, 446861
1, 222000, Tempo, 461574
1, 222240, Tempo, 454925
1, 222720, Tempo, 461574
1, 224160, Tempo, 477327
1, 224640, Tempo, 466708
1, 225120, Tempo, 461574
1, 225360, Tempo, 498049
1, 225600, Tempo, 466708
1, 226080, Tempo, 461574
1, 226320, Tempo, 494153
1, 226560, Tempo, 458225
1, 227040, Tempo, 461574
1, 227280, Tempo, 492247
1, 227520, Tempo, 458225
1, 228000, Tempo, 461574
1, 228480, Tempo, 458225
1, 228720, Tempo, 448430
1, 228960, Tempo, 463285
1, 231360, Tempo, 455927
1, 231840, Tempo, 460759
1, 232080, Tempo, 470773
1, 232320, Tempo, 457526
1, 232560, Tempo, 470773
1, 232800, Tempo, 457526
1, 233040, Tempo, 470773
1, 233280, Tempo, 441956
1, 233520, Tempo, 460759
1, 233760, Tempo, 446495
1, 234000, Tempo, 455927
1, 234120, Tempo, 480962
1, 234240, Tempo, 454339
1, 234720, Tempo, 464037
1, 234960, Tempo, 475964
1, 235200, Tempo, 444972
1, 235541, Tempo, 431530
1, 235680, Tempo, 488400
1, 235920, Tempo, 494153
1, 236180, Tempo, 458225
1, 236640, Tempo, 461574
1, 236880, Tempo, 490316
1, 237120, Tempo, 458225
1, 237600, Tempo, 461574
1, 238080, Tempo, 458225
1, 238320, Tempo, 448430
1, 238560, Tempo, 463285
1, 240960, Tempo, 455927
1, 241440, Tempo, 460759
1, 241680, Tempo, 470773
1, 241920, Tempo, 457526
1, 242160, Tempo, 470773
1, 242400, Tempo, 457526
1, 242640, Tempo, 470773
1, 242880, Tempo, 441956
1, 243120, Tempo, 460759
1, 243360, Tempo, 446495
1, 243600, Tempo, 455927
1, 243720, Tempo, 492247
1, 243840, Tempo, 454339
1, 244320, Tempo, 464037
1, 244560, Tempo, 475964
1, 245280, Tempo, 458225
1, 245760, Tempo, 466708
1, 246000, Tempo, 479118
1, 246240, Tempo, 453275
1, 246720, Tempo, 463285
1, 246960, Tempo, 479118
1, 247200, Tempo, 445269
1, 247680, Tempo, 456552
1, 247920, Tempo, 475511
1, 248160, Tempo, 448430
1, 248640, Tempo, 463285
1, 249120, Tempo, 458225
1, 249600, Tempo, 466708
1, 249840, Tempo, 479118
1, 250080, Tempo, 453275
1, 250560, Tempo, 463285
1, 250800, Tempo, 479118
1, 251040, Tempo, 445269
1, 251520, Tempo, 456552
1, 251760, Tempo, 475511
1, 252000, Tempo, 448430
1, 252480, Tempo, 466708
1, 252960, Tempo, 466708
1, 253440, Tempo, 466708
1, 253680, Tempo, 479118
1, 253920, Tempo, 454925
1, 254400, Tempo, 463285
1, 254640, Tempo, 479118
1, 254880, Tempo, 456552
1, 255360, Tempo, 466708
1, 255600, Tempo, 475511
1, 255840, Tempo, 458225
1, 256320, Tempo, 463285
1, 256800, Tempo, 458225
1, 257280, Tempo, 466708
1, 257520, Tempo, 479118
1, 257760, Tempo, 451637
1, 258240, Tempo, 463285
1, 258480, Tempo, 479118
1, 258720, Tempo, 446861
1, 259200, Tempo, 456552
1, 259440, Tempo, 450045
1, 259680, Tempo, 448430
1, 260160, Tempo, 463285
1, 260640, Tempo, 446861
1, 261120, Tempo, 456552
1, 261360, Tempo, 463285
1, 261600, Tempo, 443689
1, 262080, Tempo, 458225
1, 262560, Tempo, 445269
1, 263040, Tempo, 458225
1, 263280, Tempo, 463285
1, 263520, Tempo, 445269
1, 264000, Tempo, 461574
1, 264240, Tempo, 450045
1, 264480, Tempo, 445269
1, 264960, Tempo, 436015
1, 265200, Tempo, 425713
1, 265440, Tempo, 424268
1, 265680, Tempo, 422863
1, 265900, Tempo, 421437
1, 265920, Tempo, 433025
1, 266160, Tempo, 418644
1, 266880, Tempo, 427168
1, 267120, Tempo, 415887
1, 267840, Tempo, 427168
1, 268080, Tempo, 415887
1, 268800, Tempo, 436015
1, 269040, Tempo, 420021
1, 269760, Tempo, 442152
1, 270000, Tempo, 428602
1, 270020, Tempo, 430077
1, 270040, Tempo, 431530
1, 270060, Tempo, 433025
1, 270080, Tempo, 434531
1, 270100, Tempo, 437541
1, 270120, Tempo, 439078
1, 270140, Tempo, 440593
1, 270160, Tempo, 442152
1, 270180, Tempo, 445269
1, 270200, Tempo, 446861
1, 270220, Tempo, 448430
1, 270240, Tempo, 450045
1, 270260, Tempo, 453275
1, 270280, Tempo, 454925
1, 270300, Tempo, 456552
1, 270320, Tempo, 458225
1, 270340, Tempo, 461574
1, 270360, Tempo, 463285
1, 270380, Tempo, 464972
1, 270400, Tempo, 466708
1, 270420, Tempo, 470183
1, 270440, Tempo, 471958
1, 270460, Tempo, 473709
1, 270480, Tempo, 475511
1, 270500, Tempo, 479118
1, 270520, Tempo, 480962
1, 270540, Tempo, 482820
1, 270560, Tempo, 484653
1, 270580, Tempo, 488400
1, 270600, Tempo, 490316
1, 270720, Tempo, 448430
1, 272160, Tempo, 461574
1, 272640, Tempo, 448430
1, 274560, Tempo, 463285
1, 275040, Tempo, 450045
1, 276480, Tempo, 475511
1, 276960, Tempo, 508130
1, 277440, Tempo, 520698
1, 277920, Tempo, 684853
1, 278160, Tempo, 741290
1, 278400, Tempo, 479118
1, 278640, Tempo, 468457
1, 278880, Tempo, 464972
1, 279120, Tempo, 458225
1, 279360, Tempo, 464972
1, 279600, Tempo, 458225
1, 279840, Tempo, 446861
1, 280080, Tempo, 454925
1, 280320, Tempo, 442152
1, 281280, Tempo, 450045
1, 281760, Tempo, 439078
1, 282000, Tempo, 443689
1, 282240, Tempo, 450045
1, 282480, Tempo, 439078
1, 282720, Tempo, 439078
1, 282960, Tempo, 448430
1, 283200, Tempo, 459911
1, 283440, Tempo, 445269
1, 283680, Tempo, 456552
1, 283920, Tempo, 470183
1, 284160, Tempo, 459911
1, 284640, Tempo, 466708
1, 285600, Tempo, 459911
1, 286080, Tempo, 453275
1, 286560, Tempo, 466708
1, 286800, Tempo, 454925
1, 287040, Tempo, 445269
1, 287280, Tempo, 459911
1, 287520, Tempo, 442152
1, 287760, Tempo, 458225
1, 288000, Tempo, 461574
1, 288480, Tempo, 439078
1, 288960, Tempo, 431530
1, 289200, Tempo, 463285
1, 289440, Tempo, 440593
1, 289920, Tempo, 453275
1, 290160, Tempo, 434531
1, 290400, Tempo, 446861
1, 290640, Tempo, 446861
1, 290880, Tempo, 440593
1, 291120, Tempo, 461574
1, 291360, Tempo, 461574
1, 291840, Tempo, 470183
1, 292800, Tempo, 498049
1, 293520, Tempo, 473709
1, 293680, Tempo, 392567
1, 293880, Tempo, 450045
1, 294700, Tempo, 458225
1, 294720, Tempo, 450045
1, 295440, Tempo, 490316
1, 295680, Tempo, 464972
1, 296640, Tempo, 450045
1, 297120, Tempo, 486539
1, 297360, Tempo, 470183
1, 297520, Tempo, 352962
1, 297720, Tempo, 450045
1, 298560, Tempo, 450045
1, 299287, Tempo, 490316
1, 299520, Tempo, 464972
1, 300487, Tempo, 450045
1, 300960, Tempo, 486539
1, 301200, Tempo, 470183
1, 301360, Tempo, 372810
1, 301560, Tempo, 453275
1, 302400, Tempo, 451637
1, 303120, Tempo, 496114
1, 303360, Tempo, 464972
1, 304327, Tempo, 450045
1, 304820, Tempo, 482820
1, 305040, Tempo, 468457
1, 305200, Tempo, 371701
1, 305400, Tempo, 454925
1, 306240, Tempo, 454925
1, 306960, Tempo, 496114
1, 307200, Tempo, 464972
1, 308160, Tempo, 420021
1, 308200, Tempo, 428786
1, 308860, Tempo, 436078
1, 309120, Tempo, 445467
1, 310080, Tempo, 428786
1, 311040, Tempo, 444807
1, 311520, Tempo, 450891
1, 312000, Tempo, 441859
1, 312480, Tempo, 449337
1, 312960, Tempo, 440367
1, 313440, Tempo, 450891
1, 313920, Tempo, 446329
1, 314400, Tempo, 460299
1, 314880, Tempo, 458681
1, 315340, Tempo, 458681
1, 315360, Tempo, 450891
1, 316800, Tempo, 450891
1, 316940, Tempo, 452420
1, 317080, Tempo, 453961
1, 317220, Tempo, 455546
1, 317340, Tempo, 457108
1, 317480, Tempo, 458681
1, 317620, Tempo, 460299
1, 317740, Tempo, 461894
1, 318700, Tempo, 461894
1, 318720, Tempo, 461894
1, 318900, Tempo, 460299
1, 319080, Tempo, 458681
1, 319260, Tempo, 457108
1, 319440, Tempo, 455546
1, 319620, Tempo, 453961
1, 319800, Tempo, 452420
1, 319980, Tempo, 450891
1, 320160, Tempo, 449337
1, 320220, Tempo, 449337
1, 321120, Tempo, 449337
1, 322560, Tempo, 458681
1, 324000, Tempo, 520111
1, 324939, Marker_t, "Fine"
1, 324941, Tempo, 495295
1, 325521, Tempo, 485162
1, 325542, Tempo, 472441
1, 325542, End_track
2, 0, Start_track
2, 0, Title_t, "Piano right"
2, 0, Program_c, 0, 0
2, 0, Control_c, 0, 7, 100
2, 0, Control_c, 0, 10, 64
2, 0, Control_c, 0, 91, 127
2, 0, Text_t, "bdca426d104a26ac9dcb070447587523"
2, 480, Note_on_c, 0, 57, 31
2, 480, Note_on_c, 0, 50, 31
2, 720, Note_on_c, 0, 50, 0
2, 720, Note_on_c, 0, 57, 0
2, 720, Note_on_c, 0, 50, 31
2, 720, Note_on_c, 0, 57, 31
2, 960, Note_on_c, 0, 57, 0
2, 960, Note_on_c, 0, 50, 0
2, 960, Note_on_c, 0, 50, 36
2, 960, Note_on_c, 0, 57, 36
2, 1200, Note_on_c, 0, 57, 0
2, 1200, Note_on_c, 0, 50, 0
2, 2400, Note_on_c, 0, 50, 31
2, 2400, Note_on_c, 0, 57, 31
2, 2640, Note_on_c, 0, 57, 0
2, 2640, Note_on_c, 0, 50, 0
2, 2640, Note_on_c, 0, 50, 31
2, 2640, Note_on_c, 0, 57, 31
2, 2880, Note_on_c, 0, 57, 0
2, 2880, Note_on_c, 0, 50, 0
2, 2880, Note_on_c, 0, 50, 35
2, 2880, Note_on_c, 0, 57, 35
2, 3120, Note_on_c, 0, 57, 0
2, 3120, Note_on_c, 0, 50, 0
2, 3600, Note_on_c, 0, 69, 39
2, 3680, Note_on_c, 0, 69, 0
2, 3680, Note_on_c, 0, 71, 39
2, 3760, Note_on_c, 0, 71, 0
2, 3760, Note_on_c, 0, 69, 41
2, 3840, Note_on_c, 0, 69, 0
2, 3840, Note_on_c, 0, 66, 44
2, 4080, Note_on_c, 0, 69, 44
2, 4320, Note_on_c, 0, 69, 0
2, 4320, Note_on_c, 0, 66, 0
2, 4320, Note_on_c, 0, 66, 42
2, 4320, Note_on_c, 0, 74, 45
2, 4380, Note_on_c, 0, 74, 0
2, 4380, Note_on_c, 0, 66, 0
2, 4560, Note_on_c, 0, 78, 42
2, 4560, Note_on_c, 0, 66, 45
2, 4620, Note_on_c, 0, 66, 0
2, 4620, Note_on_c, 0, 78, 0
2, 4800, Note_on_c, 0, 76, 45
2, 4800, Note_on_c, 0, 66, 37
2, 5040, Note_on_c, 0, 76, 0
2, 5040, Note_on_c, 0, 74, 42
2, 5280, Note_on_c, 0, 74, 0
2, 5280, Note_on_c, 0, 66, 0
2, 5280, Note_on_c, 0, 66, 42
2, 5340, Note_on_c, 0, 66, 0
2, 5520, Note_on_c, 0, 69, 41
2, 5520, Note_on_c, 0, 66, 41
2, 5580, Note_on_c, 0, 66, 0
2, 5580, Note_on_c, 0, 69, 0
2, 5760, Note_on_c, 0, 71, 45
2, 5760, Note_on_c, 0, 69, 45
2, 5760, Note_on_c, 0, 66, 45
2, 6000, Note_on_c, 0, 66, 0
2, 6000, Note_on_c, 0, 69, 0
2, 6000, Note_on_c, 0, 71, 0
2, 6240, Note_on_c, 0, 66, 41
2, 6240, Note_on_c, 0, 69, 41
2, 6240, Note_on_c, 0, 71, 41
2, 6480, Note_on_c, 0, 71, 0
2, 6480, Note_on_c, 0, 69, 0
2, 6480, Note_on_c, 0, 66, 0
2, 6600, Note_on_c, 0, 66, 41
2, 6600, Note_on_c, 0, 71, 41
2, 6600, Note_on_c, 0, 69, 41
2, 6720, Note_on_c, 0, 69, 0
2, 6720, Note_on_c, 0, 71, 0
2, 6720, Note_on_c, 0, 66, 0
2, 6720, Note_on_c, 0, 71, 41
2, 6720, Note_on_c, 0, 69, 41
2, 6720, Note_on_c, 0, 66, 41
2, 7200, Note_on_c, 0, 66, 0
2, 7200, Note_on_c, 0, 69, 0
2, 7200, Note_on_c, 0, 71, 0
2, 7200, Note_on_c, 0, 62, 42
2, 7200, Note_on_c, 0, 66, 42
2, 7260, Note_on_c, 0, 66, 0
2, 7260, Note_on_c, 0, 62, 0
2, 7440, Note_on_c, 0, 62, 42
2, 7440, Note_on_c, 0, 68, 42
2, 7440, Note_on_c, 0, 66, 42
2, 7500, Note_on_c, 0, 66, 0
2, 7500, Note_on_c, 0, 68, 0
2, 7500, Note_on_c, 0, 62, 0
2, 7680, Note_on_c, 0, 62, 45
2, 7680, Note_on_c, 0, 66, 45
2, 7680, Note_on_c, 0, 69, 45
2, 7920, Note_on_c, 0, 69, 0
2, 7920, Note_on_c, 0, 71, 42
2, 8160, Note_on_c, 0, 71, 0
2, 8160, Note_on_c, 0, 66, 0
2, 8160, Note_on_c, 0, 62, 0
2, 8160, Note_on_c, 0, 66, 44
2, 8160, Note_on_c, 0, 62, 44
2, 8220, Note_on_c, 0, 62, 0
2, 8220, Note_on_c, 0, 66, 0
2, 8400, Note_on_c, 0, 62, 44
2, 8400, Note_on_c, 0, 68, 44
2, 8400, Note_on_c, 0, 66, 44
2, 8460, Note_on_c, 0, 66, 0
2, 8460, Note_on_c, 0, 68, 0
2, 8460, Note_on_c, 0, 62, 0
2, 8640, Note_on_c, 0, 69, 45
2, 8640, Note_on_c, 0, 62, 45
2, 8640, Note_on_c, 0, 66, 45
2, 8880, Note_on_c, 0, 69, 0
2, 8880, Note_on_c, 0, 71, 42
2, 9120, Note_on_c, 0, 71, 0
2, 9120, Note_on_c, 0, 66, 0
2, 9120, Note_on_c, 0, 62, 0
2, 9120, Note_on_c, 0, 62, 44
2, 9120, Note_on_c, 0, 66, 44
2, 9240, Note_on_c, 0, 66, 0
2, 9240, Note_on_c, 0, 62, 0
2, 9360, Note_on_c, 0, 66, 44
2, 9360, Note_on_c, 0, 62, 44
2, 9360, Note_on_c, 0, 68, 44
2, 9420, Note_on_c, 0, 68, 0
2, 9420, Note_on_c, 0, 62, 0
2, 9420, Note_on_c, 0, 66, 0
2, 9600, Note_on_c, 0, 62, 47
2, 9600, Note_on_c, 0, 64, 47
2, 9600, Note_on_c, 0, 69, 47
2, 9840, Note_on_c, 0, 69, 0
2, 9840, Note_on_c, 0, 64, 0
2, 9840, Note_on_c, 0, 62, 0
2, 10080, Note_on_c, 0, 61, 42
2, 10080, Note_on_c, 0, 69, 42
2, 10320, Note_on_c, 0, 69, 0
2, 10320, Note_on_c, 0, 61, 0
2, 10440, Note_on_c, 0, 69, 42
2, 10440, Note_on_c, 0, 61, 42
2, 10560, Note_on_c, 0, 61, 0
2, 10560, Note_on_c, 0, 69, 0
2, 10560, Note_on_c, 0, 69, 42
2, 10560, Note_on_c, 0, 61, 42
2, 10800, Note_on_c, 0, 61, 0
2, 10800, Note_on_c, 0, 69, 0
2, 11280, Note_on_c, 0, 73, 44
2, 11360, Note_on_c, 0, 73, 0
2, 11360, Note_on_c, 0, 74, 44
2, 11440, Note_on_c, 0, 74, 0
2, 11440, Note_on_c, 0, 73, 44
2, 11520, Note_on_c, 0, 73, 0
2, 11520, Note_on_c, 0, 71, 47
2, 11760, Note_on_c, 0, 74, 47
2, 12000, Note_on_c, 0, 74, 0
2, 12000, Note_on_c, 0, 71, 0
2, 12000, Note_on_c, 0, 79, 49
2, 12000, Note_on_c, 0, 71, 49
2, 12060, Note_on_c, 0, 71, 0
2, 12060, Note_on_c, 0, 79, 0
2, 12240, Note_on_c, 0, 83, 45
2, 12240, Note_on_c, 0, 71, 45
2, 12300, Note_on_c, 0, 71, 0
2, 12300, Note_on_c, 0, 83, 0
2, 12480, Note_on_c, 0, 81, 48
2, 12480, Note_on_c, 0, 71, 41
2, 12720, Note_on_c, 0, 81, 0
2, 12720, Note_on_c, 0, 79, 42
2, 12960, Note_on_c, 0, 79, 0
2, 12960, Note_on_c, 0, 71, 0
2, 12960, Note_on_c, 0, 71, 42
2, 12960, Note_on_c, 0, 67, 42
2, 13020, Note_on_c, 0, 67, 0
2, 13020, Note_on_c, 0, 71, 0
2, 13200, Note_on_c, 0, 67, 42
2, 13200, Note_on_c, 0, 71, 42
2, 13200, Note_on_c, 0, 74, 42
2, 13260, Note_on_c, 0, 74, 0
2, 13260, Note_on_c, 0, 71, 0
2, 13260, Note_on_c, 0, 67, 0
2, 13440, Note_on_c, 0, 78, 46
2, 13440, Note_on_c, 0, 74, 46
2, 13440, Note_on_c, 0, 71, 46
2, 13440, Note_on_c, 0, 67, 46
2, 13680, Note_on_c, 0, 67, 0
2, 13680, Note_on_c, 0, 78, 0
2, 13680, Note_on_c, 0, 74, 0
2, 13680, Note_on_c, 0, 71, 0
2, 13920, Note_on_c, 0, 78, 42
2, 13920, Note_on_c, 0, 74, 42
2, 13920, Note_on_c, 0, 71, 42
2, 13920, Note_on_c, 0, 67, 42
2, 14160, Note_on_c, 0, 67, 0
2, 14160, Note_on_c, 0, 78, 0
2, 14160, Note_on_c, 0, 74, 0
2, 14160, Note_on_c, 0, 71, 0
2, 14280, Note_on_c, 0, 78, 42
2, 14280, Note_on_c, 0, 74, 42
2, 14280, Note_on_c, 0, 71, 42
2, 14280, Note_on_c, 0, 67, 42
2, 14400, Note_on_c, 0, 67, 0
2, 14400, Note_on_c, 0, 78, 0
2, 14400, Note_on_c, 0, 74, 0
2, 14400, Note_on_c, 0, 71, 0
2, 14400, Note_on_c, 0, 78, 42
2, 14400, Note_on_c, 0, 74, 42
2, 14400, Note_on_c, 0, 67, 42
2, 14400, Note_on_c, 0, 71, 42
2, 14880, Note_on_c, 0, 71, 0
2, 14880, Note_on_c, 0, 78, 0
2, 14880, Note_on_c, 0, 74, 0
2, 14880, Note_on_c, 0, 67, 0
2, 14880, Note_on_c, 0, 71, 42
2, 14880, Note_on_c, 0, 67, 42
2, 14940, Note_on_c, 0, 67, 0
2, 14940, Note_on_c, 0, 71, 0
2, 15120, Note_on_c, 0, 73, 42
2, 15120, Note_on_c, 0, 71, 42
2, 15120, Note_on_c, 0, 67, 42
2, 15180, Note_on_c, 0, 67, 0
2, 15180, Note_on_c, 0, 71, 0
2, 15180, Note_on_c, 0, 73, 0
2, 15360, Note_on_c, 0, 74, 46
2, 15360, Note_on_c, 0, 67, 46
2, 15360, Note_on_c, 0, 71, 46
2, 15600, Note_on_c, 0, 74, 0
2, 15600, Note_on_c, 0, 76, 42
2, 15840, Note_on_c, 0, 76, 0
2, 15840, Note_on_c, 0, 71, 0
2, 15840, Note_on_c, 0, 67, 0
2, 15840, Note_on_c, 0, 71, 45
2, 15840, Note_on_c, 0, 67, 45
2, 15900, Note_on_c, 0, 67, 0
2, 15900, Note_on_c, 0, 71, 0
2, 16080, Note_on_c, 0, 67, 45
2, 16080, Note_on_c, 0, 71, 45
2, 16080, Note_on_c, 0, 73, 45
2, 16140, Note_on_c, 0, 73, 0
2, 16140, Note_on_c, 0, 71, 0
2, 16140, Note_on_c, 0, 67, 0
2, 16320, Note_on_c, 0, 74, 47
2, 16320, Note_on_c, 0, 67, 47
2, 16320, Note_on_c, 0, 71, 47
2, 16560, Note_on_c, 0, 74, 0
2, 16560, Note_on_c, 0, 76, 44
2, 16800, Note_on_c, 0, 76, 0
2, 16800, Note_on_c, 0, 71, 0
2, 16800, Note_on_c, 0, 67, 0
2, 16800, Note_on_c, 0, 71, 45
2, 16800, Note_on_c, 0, 67, 45
2, 16860, Note_on_c, 0, 67, 0
2, 16860, Note_on_c, 0, 71, 0
2, 17040, Note_on_c, 0, 67, 45
2, 17040, Note_on_c, 0, 71, 45
2, 17040, Note_on_c, 0, 73, 45
2, 17100, Note_on_c, 0, 73, 0
2, 17100, Note_on_c, 0, 71, 0
2, 17100, Note_on_c, 0, 67, 0
2, 17280, Note_on_c, 0, 74, 49
2, 17280, Note_on_c, 0, 69, 49
2, 17280, Note_on_c, 0, 67, 49
2, 17520, Note_on_c, 0, 67, 0
2, 17520, Note_on_c, 0, 69, 0
2, 17520, Note_on_c, 0, 74, 0
2, 17760, Note_on_c, 0, 74, 45
2, 17760, Note_on_c, 0, 66, 45
2, 18000, Note_on_c, 0, 66, 0
2, 18000, Note_on_c, 0, 74, 0
2, 18120, Note_on_c, 0, 74, 45
2, 18120, Note_on_c, 0, 66, 45
2, 18240, Note_on_c, 0, 66, 0
2, 18240, Note_on_c, 0, 74, 0
2, 18240, Note_on_c, 0, 74, 45
2, 18240, Note_on_c, 0, 66, 45
2, 18480, Note_on_c, 0, 66, 0
2, 18480, Note_on_c, 0, 74, 0
2, 19200, Control_c, 0, 91, 127
2, 19680, Note_on_c, 0, 62, 27
2, 19680, Note_on_c, 0, 69, 27
2, 19920, Note_on_c, 0, 69, 0
2, 19920, Note_on_c, 0, 62, 0
2, 19920, Note_on_c, 0, 62, 27
2, 19920, Note_on_c, 0, 69, 27
2, 20160, Note_on_c, 0, 69, 0
2, 20160, Note_on_c, 0, 62, 0
2, 20160, Note_on_c, 0, 62, 33
2, 20160, Note_on_c, 0, 69, 33
2, 20400, Note_on_c, 0, 69, 0
2, 20400, Note_on_c, 0, 62, 0
2, 21600, Note_on_c, 0, 62, 27
2, 21600, Note_on_c, 0, 69, 27
2, 21840, Note_on_c, 0, 69, 0
2, 21840, Note_on_c, 0, 62, 0
2, 21840, Note_on_c, 0, 62, 27
2, 21840, Note_on_c, 0, 69, 27
2, 22080, Note_on_c, 0, 69, 0
2, 22080, Note_on_c, 0, 62, 0
2, 22080, Note_on_c, 0, 62, 31
2, 22080, Note_on_c, 0, 69, 31
2, 22320, Note_on_c, 0, 69, 0
2, 22320, Note_on_c, 0, 62, 0
2, 22800, Note_on_c, 0, 81, 35
2, 22880, Note_on_c, 0, 81, 0
2, 22880, Note_on_c, 0, 83, 35
2, 22960, Note_on_c, 0, 83, 0
2, 22960, Note_on_c, 0, 81, 36
2, 23040, Note_on_c, 0, 81, 0
2, 23040, Note_on_c, 0, 78, 39
2, 23280, Note_on_c, 0, 81, 39
2, 23520, Note_on_c, 0, 81, 0
2, 23520, Note_on_c, 0, 78, 0
2, 23520, Note_on_c, 0, 78, 39
2, 23520, Note_on_c, 0, 86, 39
2, 23580, Note_on_c, 0, 86, 0
2, 23580, Note_on_c, 0, 78, 0
2, 23760, Note_on_c, 0, 90, 37
2, 23760, Note_on_c, 0, 78, 37
2, 23820, Note_on_c, 0, 78, 0
2, 23820, Note_on_c, 0, 90, 0
2, 24000, Note_on_c, 0, 88, 41
2, 24000, Note_on_c, 0, 78, 33
2, 24240, Note_on_c, 0, 88, 0
2, 24240, Note_on_c, 0, 86, 37
2, 24480, Note_on_c, 0, 86, 0
2, 24480, Note_on_c, 0, 78, 0
2, 24480, Note_on_c, 0, 78, 37
2, 24540, Note_on_c, 0, 78, 0
2, 24720, Note_on_c, 0, 81, 36
2, 24720, Note_on_c, 0, 78, 36
2, 24780, Note_on_c, 0, 78, 0
2, 24780, Note_on_c, 0, 81, 0
2, 24960, Note_on_c, 0, 78, 39
2, 24960, Note_on_c, 0, 81, 39
2, 24960, Note_on_c, 0, 83, 39
2, 25200, Note_on_c, 0, 83, 0
2, 25200, Note_on_c, 0, 81, 0
2, 25200, Note_on_c, 0, 78, 0
2, 25440, Note_on_c, 0, 78, 37
2, 25440, Note_on_c, 0, 81, 37
2, 25440, Note_on_c, 0, 83, 37
2, 25680, Note_on_c, 0, 83, 0
2, 25680, Note_on_c, 0, 81, 0
2, 25680, Note_on_c, 0, 78, 0
2, 25800, Note_on_c, 0, 83, 37
2, 25800, Note_on_c, 0, 78, 37
2, 25800, Note_on_c, 0, 81, 37
2, 25920, Note_on_c, 0, 81, 0
2, 25920, Note_on_c, 0, 78, 0
2, 25920, Note_on_c, 0, 83, 0
2, 25920, Note_on_c, 0, 78, 37
2, 25920, Note_on_c, 0, 81, 37
2, 25920, Note_on_c, 0, 83, 37
2, 26400, Note_on_c, 0, 83, 0
2, 26400, Note_on_c, 0, 81, 0
2, 26400, Note_on_c, 0, 78, 0
2, 26400, Note_on_c, 0, 74, 38
2, 26400, Note_on_c, 0, 78, 38
2, 26460, Note_on_c, 0, 78, 0
2, 26460, Note_on_c, 0, 74, 0
2, 26640, Note_on_c, 0, 74, 38
2, 26640, Note_on_c, 0, 80, 38
2, 26640, Note_on_c, 0, 78, 38
2, 26700, Note_on_c, 0, 78, 0
2, 26700, Note_on_c, 0, 80, 0
2, 26700, Note_on_c, 0, 74, 0
2, 26880, Note_on_c, 0, 81, 41
2, 26880, Note_on_c, 0, 78, 41
2, 26880, Note_on_c, 0, 74, 41
2, 27120, Note_on_c, 0, 81, 0
2, 27120, Note_on_c, 0, 83, 37
2, 27360, Note_on_c, 0, 83, 0
2, 27360, Note_on_c, 0, 74, 0
2, 27360, Note_on_c, 0, 78, 0
2, 27360, Note_on_c, 0, 78, 39
2, 27360, Note_on_c, 0, 74, 39
2, 27420, Note_on_c, 0, 74, 0
2, 27420, Note_on_c, 0, 78, 0
2, 27600, Note_on_c, 0, 80, 38
2, 27600, Note_on_c, 0, 74, 38
2, 27600, Note_on_c, 0, 78, 38
2, 27660, Note_on_c, 0, 78, 0
2, 27660, Note_on_c, 0, 74, 0
2, 27660, Note_on_c, 0, 80, 0
2, 27840, Note_on_c, 0, 78, 41
2, 27840, Note_on_c, 0, 74, 41
2, 27840, Note_on_c, 0, 81, 41
2, 28080, Note_on_c, 0, 81, 0
2, 28080, Note_on_c, 0, 83, 37
2, 28320, Note_on_c, 0, 83, 0
2, 28320, Note_on_c, 0, 74, 0
2, 28320, Note_on_c, 0, 78, 0
2, 28320, Note_on_c, 0, 74, 39
2, 28320, Note_on_c, 0, 78, 39
2, 28380, Note_on_c, 0, 78, 0
2, 28380, Note_on_c, 0, 74, 0
2, 28560, Note_on_c, 0, 80, 39
2, 28560, Note_on_c, 0, 74, 39
2, 28560, Note_on_c, 0, 78, 39
2, 28620, Note_on_c, 0, 78, 0
2, 28620, Note_on_c, 0, 74, 0
2, 28620, Note_on_c, 0, 80, 0
2, 28800, Note_on_c, 0, 74, 41
2, 28800, Note_on_c, 0, 76, 41
2, 28800, Note_on_c, 0, 81, 41
2, 29040, Note_on_c, 0, 81, 0
2, 29040, Note_on_c, 0, 76, 0
2, 29040, Note_on_c, 0, 74, 0
2, 29280, Note_on_c, 0, 73, 38
2, 29280, Note_on_c, 0, 81, 38
2, 29520, Note_on_c, 0, 81, 0
2, 29520, Note_on_c, 0, 73, 0
2, 29640, Note_on_c, 0, 73, 38
2, 29640, Note_on_c, 0, 81, 38
2, 29760, Note_on_c, 0, 81, 0
2, 29760, Note_on_c, 0, 73, 0
2, 29760, Note_on_c, 0, 73, 38
2, 29760, Note_on_c, 0, 81, 38
2, 30000, Note_on_c, 0, 81, 0
2, 30000, Note_on_c, 0, 73, 0
2, 30480, Note_on_c, 0, 85, 39
2, 30560, Note_on_c, 0, 85, 0
2, 30560, Note_on_c, 0, 86, 39
2, 30640, Note_on_c, 0, 86, 0
2, 30640, Note_on_c, 0, 85, 39
2, 30720, Note_on_c, 0, 85, 0
2, 30720, Note_on_c, 0, 83, 42
2, 30960, Note_on_c, 0, 86, 42
2, 31200, Note_on_c, 0, 86, 0
2, 31200, Note_on_c, 0, 83, 0
2, 31200, Note_on_c, 0, 91, 44
2, 31200, Note_on_c, 0, 83, 44
2, 31260, Note_on_c, 0, 83, 0
2, 31260, Note_on_c, 0, 91, 0
2, 31440, Note_on_c, 0, 95, 39
2, 31440, Note_on_c, 0, 83, 39
2, 31500, Note_on_c, 0, 83, 0
2, 31500, Note_on_c, 0, 95, 0
2, 31680, Note_on_c, 0, 93, 42
2, 31680, Note_on_c, 0, 83, 37
2, 31920, Note_on_c, 0, 93, 0
2, 31920, Note_on_c, 0, 91, 38
2, 32160, Note_on_c, 0, 91, 0
2, 32160, Note_on_c, 0, 83, 0
2, 32160, Note_on_c, 0, 83, 38
2, 32160, Note_on_c, 0, 79, 38
2, 32220, Note_on_c, 0, 79, 0
2, 32220, Note_on_c, 0, 83, 0
2, 32400, Note_on_c, 0, 83, 38
2, 32400, Note_on_c, 0, 79, 38
2, 32400, Note_on_c, 0, 86, 38
2, 32460, Note_on_c, 0, 86, 0
2, 32460, Note_on_c, 0, 79, 0
2, 32460, Note_on_c, 0, 83, 0
2, 32640, Note_on_c, 0, 83, 42
2, 32640, Note_on_c, 0, 86, 42
2, 32640, Note_on_c, 0, 90, 42
2, 32640, Note_on_c, 0, 79, 42
2, 32880, Note_on_c, 0, 79, 0
2, 32880, Note_on_c, 0, 83, 0
2, 32880, Note_on_c, 0, 86, 0
2, 32880, Note_on_c, 0, 90, 0
2, 33120, Note_on_c, 0, 83, 37
2, 33120, Note_on_c, 0, 86, 37
2, 33120, Note_on_c, 0, 90, 37
2, 33120, Note_on_c, 0, 79, 37
2, 33360, Note_on_c, 0, 79, 0
2, 33360, Note_on_c, 0, 83, 0
2, 33360, Note_on_c, 0, 86, 0
2, 33360, Note_on_c, 0, 90, 0
2, 33480, Note_on_c, 0, 83, 37
2, 33480, Note_on_c, 0, 86, 37
2, 33480, Note_on_c, 0, 90, 37
2, 33480, Note_on_c, 0, 79, 37
2, 33600, Note_on_c, 0, 79, 0
2, 33600, Note_on_c, 0, 83, 0
2, 33600, Note_on_c, 0, 86, 0
2, 33600, Note_on_c, 0, 90, 0
2, 33600, Note_on_c, 0, 83, 37
2, 33600, Note_on_c, 0, 86, 37
2, 33600, Note_on_c, 0, 90, 37
2, 33600, Note_on_c, 0, 79, 37
2, 34080, Note_on_c, 0, 79, 0
2, 34080, Note_on_c, 0, 83, 0
2, 34080, Note_on_c, 0, 86, 0
2, 34080, Note_on_c, 0, 90, 0
2, 34080, Note_on_c, 0, 79, 38
2, 34080, Note_on_c, 0, 83, 38
2, 34140, Note_on_c, 0, 83, 0
2, 34140, Note_on_c, 0, 79, 0
2, 34320, Note_on_c, 0, 85, 38
2, 34320, Note_on_c, 0, 83, 38
2, 34320, Note_on_c, 0, 79, 38
2, 34380, Note_on_c, 0, 79, 0
2, 34380, Note_on_c, 0, 83, 0
2, 34380, Note_on_c, 0, 85, 0
2, 34560, Note_on_c, 0, 83, 42
2, 34560, Note_on_c, 0, 79, 42
2, 34560, Note_on_c, 0, 86, 42
2, 34800, Note_on_c, 0, 86, 0
2, 34800, Note_on_c, 0, 88, 38
2, 35040, Note_on_c, 0, 88, 0
2, 35040, Note_on_c, 0, 79, 0
2, 35040, Note_on_c, 0, 83, 0
2, 35040, Note_on_c, 0, 83, 39
2, 35040, Note_on_c, 0, 79, 39
2, 35100, Note_on_c, 0, 79, 0
2, 35100, Note_on_c, 0, 83, 0
2, 35280, Note_on_c, 0, 85, 39
2, 35280, Note_on_c, 0, 83, 39
2, 35280, Note_on_c, 0, 79, 39
2, 35340, Note_on_c, 0, 79, 0
2, 35340, Note_on_c, 0, 83, 0
2, 35340, Note_on_c, 0, 85, 0
2, 35520, Note_on_c, 0, 86, 42
2, 35520, Note_on_c, 0, 83, 42
2, 35520, Note_on_c, 0, 79, 42
2, 35760, Note_on_c, 0, 86, 0
2, 35760, Note_on_c, 0, 88, 39
2, 36000, Note_on_c, 0, 88, 0
2, 36000, Note_on_c, 0, 79, 0
2, 36000, Note_on_c, 0, 83, 0
2, 36000, Note_on_c, 0, 83, 39
2, 36000, Note_on_c, 0, 79, 39
2, 36060, Note_on_c, 0, 79, 0
2, 36060, Note_on_c, 0, 83, 0
2, 36240, Note_on_c, 0, 85, 39
2, 36240, Note_on_c, 0, 83, 39
2, 36240, Note_on_c, 0, 79, 39
2, 36300, Note_on_c, 0, 79, 0
2, 36300, Note_on_c, 0, 83, 0
2, 36300, Note_on_c, 0, 85, 0
2, 36480, Note_on_c, 0, 86, 44
2, 36480, Note_on_c, 0, 81, 44
2, 36480, Note_on_c, 0, 79, 44
2, 36720, Note_on_c, 0, 79, 0
2, 36720, Note_on_c, 0, 81, 0
2, 36720, Note_on_c, 0, 86, 0
2, 36960, Note_on_c, 0, 86, 39
2, 36960, Note_on_c, 0, 78, 39
2, 37200, Note_on_c, 0, 78, 0
2, 37200, Note_on_c, 0, 86, 0
2, 37320, Note_on_c, 0, 86, 39
2, 37320, Note_on_c, 0, 78, 39
2, 37440, Note_on_c, 0, 78, 0
2, 37440, Note_on_c, 0, 86, 0
2, 37440, Note_on_c, 0, 86, 39
2, 37440, Note_on_c, 0, 78, 39
2, 37680, Note_on_c, 0, 78, 0
2, 37680, Note_on_c, 0, 86, 0
2, 38400, Control_c, 0, 91, 127
2, 40320, Note_on_c, 0, 61, 75
2, 40320, Note_on_c, 0, 64, 75
2, 40440, Note_on_c, 0, 61, 0
2, 40440, Note_on_c, 0, 59, 68
2, 40560, Note_on_c, 0, 59, 0
2, 40560, Note_on_c, 0, 61, 68
2, 40680, Note_on_c, 0, 61, 0
2, 40680, Note_on_c, 0, 57, 68
2, 40740, Note_on_c, 0, 57, 0
2, 40800, Note_on_c, 0, 64, 0
2, 40800, Note_on_c, 0, 62, 68
2, 40800, Note_on_c, 0, 66, 71
2, 40920, Note_on_c, 0, 62, 0
2, 41040, Note_on_c, 0, 59, 68
2, 41160, Note_on_c, 0, 59, 0
2, 41280, Note_on_c, 0, 66, 0
2, 41280, Note_on_c, 0, 61, 75
2, 41280, Note_on_c, 0, 64, 75
2, 41400, Note_on_c, 0, 61, 0
2, 41400, Note_on_c, 0, 59, 69
2, 41520, Note_on_c, 0, 59, 0
2, 41520, Note_on_c, 0, 61, 69
2, 41640, Note_on_c, 0, 61, 0
2, 41640, Note_on_c, 0, 57, 69
2, 41700, Note_on_c, 0, 57, 0
2, 41760, Note_on_c, 0, 64, 0
2, 41760, Note_on_c, 0, 62, 68
2, 41760, Note_on_c, 0, 66, 71
2, 41880, Note_on_c, 0, 62, 0
2, 42000, Note_on_c, 0, 59, 68
2, 42120, Note_on_c, 0, 59, 0
2, 42240, Note_on_c, 0, 66, 0
2, 42480, Note_on_c, 0, 74, 56
2, 42480, Note_on_c, 0, 78, 56
2, 42480, Note_on_c, 0, 68, 56
2, 42560, Note_on_c, 0, 78, 0
2, 42560, Note_on_c, 0, 80, 56
2, 42640, Note_on_c, 0, 80, 0
2, 42640, Note_on_c, 0, 78, 56
2, 42720, Note_on_c, 0, 78, 0
2, 42720, Note_on_c, 0, 68, 0
2, 42720, Note_on_c, 0, 74, 0
2, 42720, Note_on_c, 0, 76, 60
2, 42720, Note_on_c, 0, 73, 60
2, 42720, Note_on_c, 0, 69, 60
2, 42840, Note_on_c, 0, 69, 0
2, 42840, Note_on_c, 0, 73, 0
2, 42840, Note_on_c, 0, 76, 0
2, 42960, Note_on_c, 0, 73, 59
2, 42960, Note_on_c, 0, 76, 59
2, 42960, Note_on_c, 0, 69, 59
2, 43080, Note_on_c, 0, 69, 0
2, 43080, Note_on_c, 0, 76, 0
2, 43080, Note_on_c, 0, 73, 0
2, 43200, Note_on_c, 0, 76, 59
2, 43200, Note_on_c, 0, 73, 59
2, 43200, Note_on_c, 0, 69, 59
2, 44160, Note_on_c, 0, 69, 0
2, 44160, Note_on_c, 0, 73, 0
2, 44160, Note_on_c, 0, 76, 0
2, 44160, Note_on_c, 0, 60, 52
2, 44160, Note_on_c, 0, 64, 52
2, 44640, Note_on_c, 0, 64, 0
2, 44640, Note_on_c, 0, 60, 0
2, 44640, Note_on_c, 0, 68, 48
2, 44640, Note_on_c, 0, 72, 48
2, 44640, Note_on_c, 0, 76, 48
2, 44880, Note_on_c, 0, 76, 0
2, 44880, Note_on_c, 0, 72, 0
2, 44880, Note_on_c, 0, 68, 0
2, 44880, Note_on_c, 0, 68, 47
2, 44880, Note_on_c, 0, 72, 47
2, 44880, Note_on_c, 0, 76, 47
2, 45120, Note_on_c, 0, 76, 0
2, 45120, Note_on_c, 0, 72, 0
2, 45120, Note_on_c, 0, 68, 0
2, 45120, Note_on_c, 0, 68, 46
2, 45120, Note_on_c, 0, 72, 46
2, 45120, Note_on_c, 0, 76, 46
2, 45600, Note_on_c, 0, 76, 0
2, 45600, Note_on_c, 0, 72, 0
2, 45600, Note_on_c, 0, 68, 0
2, 45600, Note_on_c, 0, 72, 34
2, 45600, Note_on_c, 0, 76, 34
2, 45660, Note_on_c, 0, 76, 0
2, 45660, Note_on_c, 0, 72, 0
2, 45840, Note_on_c, 0, 76, 34
2, 45840, Note_on_c, 0, 72, 34
2, 45840, Note_on_c, 0, 77, 34
2, 45900, Note_on_c, 0, 77, 0
2, 45900, Note_on_c, 0, 72, 0
2, 45900, Note_on_c, 0, 76, 0
2, 46080, Note_on_c, 0, 72, 37
2, 46080, Note_on_c, 0, 76, 37
2, 46080, Note_on_c, 0, 79, 37
2, 46320, Note_on_c, 0, 79, 0
2, 46320, Note_on_c, 0, 81, 34
2, 46560, Note_on_c, 0, 81, 0
2, 46560, Note_on_c, 0, 76, 0
2, 46560, Note_on_c, 0, 72, 0
2, 46560, Note_on_c, 0, 72, 34
2, 46560, Note_on_c, 0, 76, 34
2, 46620, Note_on_c, 0, 76, 0
2, 46620, Note_on_c, 0, 72, 0
2, 46800, Note_on_c, 0, 72, 34
2, 46800, Note_on_c, 0, 76, 34
2, 46800, Note_on_c, 0, 77, 34
2, 46860, Note_on_c, 0, 77, 0
2, 46860, Note_on_c, 0, 76, 0
2, 46860, Note_on_c, 0, 72, 0
2, 47040, Note_on_c, 0, 71, 38
2, 47040, Note_on_c, 0, 77, 38
2, 47040, Note_on_c, 0, 79, 38
2, 47280, Note_on_c, 0, 79, 0
2, 47280, Note_on_c, 0, 81, 34
2, 47520, Note_on_c, 0, 81, 0
2, 47520, Note_on_c, 0, 77, 0
2, 47520, Note_on_c, 0, 71, 0
2, 47520, Note_on_c, 0, 67, 34
2, 47520, Note_on_c, 0, 71, 34
2, 47520, Note_on_c, 0, 76, 34
2, 47640, Note_on_c, 0, 76, 0
2, 47640, Note_on_c, 0, 71, 0
2, 47640, Note_on_c, 0, 67, 0
2, 47760, Note_on_c, 0, 67, 34
2, 47760, Note_on_c, 0, 71, 34
2, 47760, Note_on_c, 0, 74, 34
2, 47880, Note_on_c, 0, 74, 0
2, 47880, Note_on_c, 0, 71, 0
2, 47880, Note_on_c, 0, 67, 0
2, 47880, Note_on_c, 0, 74, 35
2, 47940, Note_on_c, 0, 74, 0
2, 47940, Note_on_c, 0, 76, 35
2, 48000, Note_on_c, 0, 76, 0
2, 48000, Note_on_c, 0, 64, 39
2, 48000, Note_on_c, 0, 74, 39
2, 48240, Note_on_c, 0, 74, 0
2, 48240, Note_on_c, 0, 72, 34
2, 48480, Note_on_c, 0, 72, 0
2, 48480, Note_on_c, 0, 64, 0
2, 48480, Note_on_c, 0, 64, 34
2, 48480, Note_on_c, 0, 72, 34
2, 48600, Note_on_c, 0, 72, 0
2, 48600, Note_on_c, 0, 64, 0
2, 48720, Note_on_c, 0, 64, 34
2, 48720, Note_on_c, 0, 72, 34
2, 48840, Note_on_c, 0, 72, 0
2, 48840, Note_on_c, 0, 64, 0
2, 48960, Note_on_c, 0, 64, 39
2, 48960, Note_on_c, 0, 72, 39
2, 49320, Note_on_c, 0, 72, 0
2, 49320, Note_on_c, 0, 64, 0
2, 49920, Note_on_c, 0, 64, 75
2, 49920, Note_on_c, 0, 67, 75
2, 50040, Note_on_c, 0, 64, 0
2, 50040, Note_on_c, 0, 62, 68
2, 50160, Note_on_c, 0, 62, 0
2, 50160, Note_on_c, 0, 64, 68
2, 50280, Note_on_c, 0, 64, 0
2, 50280, Note_on_c, 0, 60, 68
2, 50340, Note_on_c, 0, 60, 0
2, 50400, Note_on_c, 0, 67, 0
2, 50400, Note_on_c, 0, 65, 68
2, 50400, Note_on_c, 0, 69, 71
2, 50520, Note_on_c, 0, 65, 0
2, 50640, Note_on_c, 0, 62, 68
2, 50760, Note_on_c, 0, 62, 0
2, 50880, Note_on_c, 0, 69, 0
2, 50880, Note_on_c, 0, 64, 75
2, 50880, Note_on_c, 0, 67, 75
2, 51000, Note_on_c, 0, 64, 0
2, 51000, Note_on_c, 0, 62, 69
2, 51120, Note_on_c, 0, 62, 0
2, 51120, Note_on_c, 0, 64, 69
2, 51240, Note_on_c, 0, 64, 0
2, 51240, Note_on_c, 0, 60, 69
2, 51300, Note_on_c, 0, 60, 0
2, 51360, Note_on_c, 0, 67, 0
2, 51360, Note_on_c, 0, 65, 68
2, 51360, Note_on_c, 0, 69, 71
2, 51480, Note_on_c, 0, 65, 0
2, 51600, Note_on_c, 0, 62, 68
2, 51720, Note_on_c, 0, 62, 0
2, 51840, Note_on_c, 0, 69, 0
2, 52080, Note_on_c, 0, 77, 56
2, 52080, Note_on_c, 0, 81, 56
2, 52080, Note_on_c, 0, 71, 56
2, 52160, Note_on_c, 0, 81, 0
2, 52160, Note_on_c, 0, 83, 56
2, 52240, Note_on_c, 0, 83, 0
2, 52240, Note_on_c, 0, 81, 56
2, 52320, Note_on_c, 0, 81, 0
2, 52320, Note_on_c, 0, 71, 0
2, 52320, Note_on_c, 0, 77, 0
2, 52320, Note_on_c, 0, 79, 60
2, 52320, Note_on_c, 0, 76, 60
2, 52320, Note_on_c, 0, 72, 60
2, 52440, Note_on_c, 0, 72, 0
2, 52440, Note_on_c, 0, 76, 0
2, 52440, Note_on_c, 0, 79, 0
2, 52560, Note_on_c, 0, 76, 59
2, 52560, Note_on_c, 0, 79, 59
2, 52560, Note_on_c, 0, 72, 59
2, 52680, Note_on_c, 0, 72, 0
2, 52680, Note_on_c, 0, 79, 0
2, 52680, Note_on_c, 0, 76, 0
2, 52800, Note_on_c, 0, 79, 59
2, 52800, Note_on_c, 0, 76, 59
2, 52800, Note_on_c, 0, 72, 59
2, 53760, Note_on_c, 0, 72, 0
2, 53760, Note_on_c, 0, 76, 0
2, 53760, Note_on_c, 0, 79, 0
2, 53760, Note_on_c, 0, 63, 52
2, 53760, Note_on_c, 0, 67, 52
2, 54240, Note_on_c, 0, 67, 0
2, 54240, Note_on_c, 0, 63, 0
2, 54240, Note_on_c, 0, 71, 48
2, 54240, Note_on_c, 0, 75, 48
2, 54240, Note_on_c, 0, 79, 48
2, 54480, Note_on_c, 0, 79, 0
2, 54480, Note_on_c, 0, 75, 0
2, 54480, Note_on_c, 0, 71, 0
2, 54480, Note_on_c, 0, 71, 47
2, 54480, Note_on_c, 0, 75, 47
2, 54480, Note_on_c, 0, 79, 47
2, 54720, Note_on_c, 0, 79, 0
2, 54720, Note_on_c, 0, 75, 0
2, 54720, Note_on_c, 0, 71, 0
2, 54720, Note_on_c, 0, 71, 46
2, 54720, Note_on_c, 0, 75, 46
2, 54720, Note_on_c, 0, 79, 46
2, 55200, Note_on_c, 0, 79, 0
2, 55200, Note_on_c, 0, 75, 0
2, 55200, Note_on_c, 0, 71, 0
2, 55200, Note_on_c, 0, 75, 34
2, 55200, Note_on_c, 0, 79, 34
2, 55260, Note_on_c, 0, 79, 0
2, 55260, Note_on_c, 0, 75, 0
2, 55440, Note_on_c, 0, 79, 34
2, 55440, Note_on_c, 0, 75, 34
2, 55440, Note_on_c, 0, 80, 34
2, 55560, Note_on_c, 0, 80, 0
2, 55560, Note_on_c, 0, 75, 0
2, 55560, Note_on_c, 0, 79, 0
2, 55680, Note_on_c, 0, 75, 37
2, 55680, Note_on_c, 0, 79, 37
2, 55680, Note_on_c, 0, 82, 37
2, 55920, Note_on_c, 0, 82, 0
2, 55920, Note_on_c, 0, 84, 34
2, 56160, Note_on_c, 0, 84, 0
2, 56160, Note_on_c, 0, 79, 0
2, 56160, Note_on_c, 0, 75, 0
2, 56160, Note_on_c, 0, 75, 34
2, 56160, Note_on_c, 0, 79, 34
2, 56220, Note_on_c, 0, 79, 0
2, 56220, Note_on_c, 0, 75, 0
2, 56400, Note_on_c, 0, 75, 34
2, 56400, Note_on_c, 0, 79, 34
2, 56400, Note_on_c, 0, 80, 34
2, 56460, Note_on_c, 0, 80, 0
2, 56460, Note_on_c, 0, 79, 0
2, 56460, Note_on_c, 0, 75, 0
2, 56640, Note_on_c, 0, 74, 38
2, 56640, Note_on_c, 0, 80, 38
2, 56640, Note_on_c, 0, 82, 38
2, 56880, Note_on_c, 0, 82, 0
2, 56880, Note_on_c, 0, 84, 34
2, 57120, Note_on_c, 0, 84, 0
2, 57120, Note_on_c, 0, 80, 0
2, 57120, Note_on_c, 0, 74, 0
2, 57120, Note_on_c, 0, 70, 34
2, 57120, Note_on_c, 0, 74, 34
2, 57120, Note_on_c, 0, 79, 34
2, 57240, Note_on_c, 0, 79, 0
2, 57240, Note_on_c, 0, 74, 0
2, 57240, Note_on_c, 0, 70, 0
2, 57360, Note_on_c, 0, 70, 34
2, 57360, Note_on_c, 0, 74, 34
2, 57360, Note_on_c, 0, 77, 34
2, 57480, Note_on_c, 0, 77, 0
2, 57480, Note_on_c, 0, 74, 0
2, 57480, Note_on_c, 0, 70, 0
2, 57480, Note_on_c, 0, 77, 35
2, 57540, Note_on_c, 0, 77, 0
2, 57540, Note_on_c, 0, 79, 35
2, 57600, Note_on_c, 0, 79, 0
2, 57600, Note_on_c, 0, 67, 39
2, 57600, Note_on_c, 0, 77, 39
2, 57840, Note_on_c, 0, 77, 0
2, 57840, Note_on_c, 0, 75, 34
2, 58080, Note_on_c, 0, 75, 0
2, 58080, Note_on_c, 0, 67, 0
2, 58080, Note_on_c, 0, 67, 34
2, 58080, Note_on_c, 0, 75, 34
2, 58200, Note_on_c, 0, 75, 0
2, 58200, Note_on_c, 0, 67, 0
2, 58320, Note_on_c, 0, 67, 34
2, 58320, Note_on_c, 0, 75, 34
2, 58440, Note_on_c, 0, 75, 0
2, 58440, Note_on_c, 0, 67, 0
2, 58560, Note_on_c, 0, 67, 39
2, 58560, Note_on_c, 0, 75, 39
2, 59040, Note_on_c, 0, 75, 0
2, 59040, Note_on_c, 0, 67, 0
2, 59040, Control_c, 0, 91, 127
2, 59160, Note_on_c, 0, 55, 25
2, 59160, Note_on_c, 0, 61, 28
2, 59280, Note_on_c, 0, 61, 0
2, 59280, Note_on_c, 0, 55, 0
2, 59400, Note_on_c, 0, 63, 29
2, 59400, Note_on_c, 0, 61, 25
2, 59400, Note_on_c, 0, 55, 25
2, 59520, Note_on_c, 0, 55, 0
2, 59520, Note_on_c, 0, 61, 0
2, 59520, Note_on_c, 0, 63, 0
2, 59640, Note_on_c, 0, 55, 25
2, 59640, Note_on_c, 0, 61, 25
2, 59640, Note_on_c, 0, 65, 34
2, 59760, Note_on_c, 0, 65, 0
2, 59760, Note_on_c, 0, 61, 0
2, 59760, Note_on_c, 0, 55, 0
2, 59880, Note_on_c, 0, 55, 26
2, 59880, Note_on_c, 0, 61, 26
2, 59880, Note_on_c, 0, 67, 33
2, 60000, Note_on_c, 0, 67, 0
2, 60000, Note_on_c, 0, 61, 0
2, 60000, Note_on_c, 0, 55, 0
2, 60120, Note_on_c, 0, 55, 27
2, 60120, Note_on_c, 0, 61, 31
2, 60240, Note_on_c, 0, 61, 0
2, 60240, Note_on_c, 0, 55, 0
2, 60360, Note_on_c, 0, 63, 31
2, 60360, Note_on_c, 0, 55, 27
2, 60360, Note_on_c, 0, 61, 27
2, 60480, Note_on_c, 0, 61, 0
2, 60480, Note_on_c, 0, 55, 0
2, 60480, Note_on_c, 0, 63, 0
2, 60600, Note_on_c, 0, 55, 28
2, 60600, Note_on_c, 0, 61, 28
2, 60600, Note_on_c, 0, 65, 36
2, 60720, Note_on_c, 0, 65, 0
2, 60720, Note_on_c, 0, 61, 0
2, 60720, Note_on_c, 0, 55, 0
2, 60840, Note_on_c, 0, 55, 28
2, 60840, Note_on_c, 0, 61, 28
2, 60840, Note_on_c, 0, 67, 33
2, 60960, Note_on_c, 0, 67, 0
2, 60960, Note_on_c, 0, 61, 0
2, 60960, Note_on_c, 0, 55, 0
2, 61080, Note_on_c, 0, 55, 29
2, 61080, Note_on_c, 0, 61, 34
2, 61200, Note_on_c, 0, 61, 0
2, 61200, Note_on_c, 0, 55, 0
2, 61320, Note_on_c, 0, 63, 34
2, 61320, Note_on_c, 0, 55, 30
2, 61320, Note_on_c, 0, 61, 30
2, 61440, Note_on_c, 0, 61, 0
2, 61440, Note_on_c, 0, 55, 0
2, 61440, Note_on_c, 0, 63, 0
2, 61560, Note_on_c, 0, 55, 29
2, 61560, Note_on_c, 0, 61, 29
2, 61560, Note_on_c, 0, 65, 39
2, 61680, Note_on_c, 0, 65, 0
2, 61680, Note_on_c, 0, 61, 0
2, 61680, Note_on_c, 0, 55, 0
2, 61800, Note_on_c, 0, 68, 42
2, 61920, Note_on_c, 0, 68, 0
2, 62040, Note_on_c, 0, 55, 31
2, 62040, Note_on_c, 0, 61, 31
2, 62040, Note_on_c, 0, 67, 38
2, 62160, Note_on_c, 0, 67, 0
2, 62160, Note_on_c, 0, 61, 0
2, 62160, Note_on_c, 0, 55, 0
2, 62280, Note_on_c, 0, 63, 38
2, 62280, Note_on_c, 0, 55, 31
2, 62280, Note_on_c, 0, 61, 31
2, 62400, Note_on_c, 0, 61, 0
2, 62400, Note_on_c, 0, 55, 0
2, 62400, Note_on_c, 0, 63, 0
2, 62520, Note_on_c, 0, 55, 31
2, 62520, Note_on_c, 0, 61, 31
2, 62520, Note_on_c, 0, 65, 39
2, 62640, Note_on_c, 0, 65, 0
2, 62640, Note_on_c, 0, 61, 0
2, 62640, Note_on_c, 0, 55, 0
2, 62760, Note_on_c, 0, 55, 32
2, 62760, Note_on_c, 0, 61, 38
2, 62880, Note_on_c, 0, 61, 0
2, 62880, Note_on_c, 0, 55, 0
2, 62880, Control_c, 0, 91, 127
2, 63000, Note_on_c, 0, 56, 36
2, 63000, Note_on_c, 0, 63, 36
2, 63120, Note_on_c, 0, 63, 0
2, 63120, Note_on_c, 0, 56, 0
2, 63240, Note_on_c, 0, 63, 35
2, 63240, Note_on_c, 0, 65, 35
2, 63240, Note_on_c, 0, 56, 35
2, 63360, Note_on_c, 0, 56, 0
2, 63360, Note_on_c, 0, 65, 0
2, 63360, Note_on_c, 0, 63, 0
2, 63480, Note_on_c, 0, 56, 30
2, 63480, Note_on_c, 0, 63, 30
2, 63480, Note_on_c, 0, 67, 40
2, 63600, Note_on_c, 0, 67, 0
2, 63600, Note_on_c, 0, 63, 0
2, 63600, Note_on_c, 0, 56, 0
2, 63720, Note_on_c, 0, 56, 31
2, 63720, Note_on_c, 0, 63, 31
2, 63720, Note_on_c, 0, 68, 39
2, 63840, Note_on_c, 0, 68, 0
2, 63840, Note_on_c, 0, 63, 0
2, 63840, Note_on_c, 0, 56, 0
2, 63960, Note_on_c, 0, 56, 31
2, 63960, Note_on_c, 0, 63, 36
2, 64080, Note_on_c, 0, 63, 0
2, 64080, Note_on_c, 0, 56, 0
2, 64200, Note_on_c, 0, 63, 36
2, 64200, Note_on_c, 0, 56, 31
2, 64200, Note_on_c, 0, 65, 31
2, 64320, Note_on_c, 0, 65, 0
2, 64320, Note_on_c, 0, 56, 0
2, 64320, Note_on_c, 0, 63, 0
2, 64440, Note_on_c, 0, 56, 32
2, 64440, Note_on_c, 0, 63, 32
2, 64440, Note_on_c, 0, 67, 41
2, 64560, Note_on_c, 0, 67, 0
2, 64560, Note_on_c, 0, 63, 0
2, 64560, Note_on_c, 0, 56, 0
2, 64680, Note_on_c, 0, 56, 32
2, 64680, Note_on_c, 0, 63, 32
2, 64680, Note_on_c, 0, 68, 39
2, 64800, Note_on_c, 0, 68, 0
2, 64800, Note_on_c, 0, 63, 0
2, 64800, Note_on_c, 0, 56, 0
2, 64920, Note_on_c, 0, 56, 34
2, 64920, Note_on_c, 0, 63, 39
2, 65040, Note_on_c, 0, 63, 0
2, 65040, Note_on_c, 0, 56, 0
2, 65160, Note_on_c, 0, 63, 39
2, 65160, Note_on_c, 0, 56, 34
2, 65160, Note_on_c, 0, 65, 34
2, 65280, Note_on_c, 0, 65, 0
2, 65280, Note_on_c, 0, 56, 0
2, 65280, Note_on_c, 0, 63, 0
2, 65400, Note_on_c, 0, 56, 34
2, 65400, Note_on_c, 0, 63, 34
2, 65400, Note_on_c, 0, 67, 44
2, 65520, Note_on_c, 0, 67, 0
2, 65520, Note_on_c, 0, 63, 0
2, 65520, Note_on_c, 0, 56, 0
2, 65640, Note_on_c, 0, 70, 48
2, 65760, Note_on_c, 0, 70, 0
2, 65880, Note_on_c, 0, 56, 36
2, 65880, Note_on_c, 0, 63, 36
2, 65880, Note_on_c, 0, 68, 44
2, 66000, Note_on_c, 0, 68, 0
2, 66000, Note_on_c, 0, 63, 0
2, 66000, Note_on_c, 0, 56, 0
2, 66120, Note_on_c, 0, 63, 44
2, 66120, Note_on_c, 0, 56, 36
2, 66120, Note_on_c, 0, 65, 36
2, 66240, Note_on_c, 0, 65, 0
2, 66240, Note_on_c, 0, 56, 0
2, 66240, Note_on_c, 0, 63, 0
2, 66360, Note_on_c, 0, 56, 36
2, 66360, Note_on_c, 0, 63, 36
2, 66360, Note_on_c, 0, 67, 45
2, 66480, Note_on_c, 0, 67, 0
2, 66480, Note_on_c, 0, 63, 0
2, 66480, Note_on_c, 0, 56, 0
2, 66600, Note_on_c, 0, 56, 36
2, 66600, Note_on_c, 0, 63, 43
2, 66720, Note_on_c, 0, 63, 0
2, 66720, Note_on_c, 0, 56, 0
2, 66720, Control_c, 0, 91, 127
2, 66840, Note_on_c, 0, 60, 48
2, 66840, Note_on_c, 0, 66, 48
2, 66960, Note_on_c, 0, 66, 0
2, 66960, Note_on_c, 0, 60, 0
2, 67080, Note_on_c, 0, 66, 44
2, 67080, Note_on_c, 0, 68, 44
2, 67080, Note_on_c, 0, 60, 44
2, 67200, Note_on_c, 0, 60, 0
2, 67200, Note_on_c, 0, 68, 0
2, 67200, Note_on_c, 0, 66, 0
2, 67320, Note_on_c, 0, 60, 47
2, 67320, Note_on_c, 0, 66, 47
2, 67320, Note_on_c, 0, 70, 47
2, 67440, Note_on_c, 0, 70, 0
2, 67440, Note_on_c, 0, 66, 0
2, 67440, Note_on_c, 0, 60, 0
2, 67560, Note_on_c, 0, 60, 37
2, 67560, Note_on_c, 0, 66, 37
2, 67560, Note_on_c, 0, 72, 46
2, 67680, Note_on_c, 0, 72, 0
2, 67680, Note_on_c, 0, 66, 0
2, 67680, Note_on_c, 0, 60, 0
2, 67800, Note_on_c, 0, 60, 48
2, 67800, Note_on_c, 0, 66, 48
2, 67920, Note_on_c, 0, 66, 0
2, 67920, Note_on_c, 0, 60, 0
2, 68040, Note_on_c, 0, 66, 44
2, 68040, Note_on_c, 0, 60, 37
2, 68040, Note_on_c, 0, 68, 37
2, 68160, Note_on_c, 0, 68, 0
2, 68160, Note_on_c, 0, 60, 0
2, 68160, Note_on_c, 0, 66, 0
2, 68280, Note_on_c, 0, 60, 47
2, 68280, Note_on_c, 0, 66, 47
2, 68280, Note_on_c, 0, 70, 47
2, 68400, Note_on_c, 0, 70, 0
2, 68400, Note_on_c, 0, 66, 0
2, 68400, Note_on_c, 0, 60, 0
2, 68520, Note_on_c, 0, 60, 37
2, 68520, Note_on_c, 0, 66, 37
2, 68520, Note_on_c, 0, 72, 45
2, 68640, Note_on_c, 0, 72, 0
2, 68640, Note_on_c, 0, 66, 0
2, 68640, Note_on_c, 0, 60, 0
2, 68760, Note_on_c, 0, 60, 47
2, 68760, Note_on_c, 0, 66, 47
2, 68880, Note_on_c, 0, 66, 0
2, 68880, Note_on_c, 0, 60, 0
2, 69000, Note_on_c, 0, 66, 46
2, 69000, Note_on_c, 0, 60, 46
2, 69000, Note_on_c, 0, 68, 46
2, 69120, Note_on_c, 0, 68, 0
2, 69120, Note_on_c, 0, 60, 0
2, 69120, Note_on_c, 0, 66, 0
2, 69240, Note_on_c, 0, 60, 56
2, 69240, Note_on_c, 0, 66, 56
2, 69240, Note_on_c, 0, 70, 56
2, 69360, Note_on_c, 0, 70, 0
2, 69360, Note_on_c, 0, 66, 0
2, 69360, Note_on_c, 0, 60, 0
2, 69480, Note_on_c, 0, 73, 50
2, 69600, Note_on_c, 0, 73, 0
2, 69720, Note_on_c, 0, 60, 55
2, 69720, Note_on_c, 0, 66, 55
2, 69720, Note_on_c, 0, 72, 55
2, 69840, Note_on_c, 0, 72, 0
2, 69840, Note_on_c, 0, 66, 0
2, 69840, Note_on_c, 0, 60, 0
2, 69960, Note_on_c, 0, 68, 48
2, 69960, Note_on_c, 0, 60, 40
2, 69960, Note_on_c, 0, 66, 40
2, 70080, Note_on_c, 0, 66, 0
2, 70080, Note_on_c, 0, 60, 0
2, 70080, Note_on_c, 0, 68, 0
2, 70200, Note_on_c, 0, 60, 40
2, 70200, Note_on_c, 0, 66, 40
2, 70200, Note_on_c, 0, 70, 50
2, 70320, Note_on_c, 0, 70, 0
2, 70320, Note_on_c, 0, 66, 0
2, 70320, Note_on_c, 0, 60, 0
2, 70440, Note_on_c, 0, 60, 40
2, 70440, Note_on_c, 0, 66, 47
2, 70560, Note_on_c, 0, 66, 0
2, 70560, Note_on_c, 0, 60, 0
2, 70560, Control_c, 0, 91, 127
2, 70680, Note_on_c, 0, 61, 59
2, 70680, Note_on_c, 0, 68, 59
2, 70800, Note_on_c, 0, 68, 0
2, 70800, Note_on_c, 0, 61, 0
2, 70920, Note_on_c, 0, 68, 52
2, 70920, Note_on_c, 0, 70, 52
2, 70920, Note_on_c, 0, 61, 52
2, 71040, Note_on_c, 0, 61, 0
2, 71040, Note_on_c, 0, 70, 0
2, 71040, Note_on_c, 0, 68, 0
2, 71160, Note_on_c, 0, 61, 57
2, 71160, Note_on_c, 0, 68, 57
2, 71160, Note_on_c, 0, 72, 57
2, 71280, Note_on_c, 0, 72, 0
2, 71280, Note_on_c, 0, 68, 0
2, 71280, Note_on_c, 0, 61, 0
2, 71400, Note_on_c, 0, 61, 55
2, 71400, Note_on_c, 0, 68, 55
2, 71400, Note_on_c, 0, 73, 55
2, 71520, Note_on_c, 0, 73, 0
2, 71520, Note_on_c, 0, 68, 0
2, 71520, Note_on_c, 0, 61, 0
2, 71640, Note_on_c, 0, 61, 59
2, 71640, Note_on_c, 0, 68, 59
2, 71760, Note_on_c, 0, 68, 0
2, 71760, Note_on_c, 0, 61, 0
2, 71880, Note_on_c, 0, 68, 53
2, 71880, Note_on_c, 0, 61, 53
2, 71880, Note_on_c, 0, 70, 53
2, 72000, Note_on_c, 0, 70, 0
2, 72000, Note_on_c, 0, 61, 0
2, 72000, Note_on_c, 0, 68, 0
2, 72120, Note_on_c, 0, 61, 59
2, 72120, Note_on_c, 0, 68, 59
2, 72120, Note_on_c, 0, 72, 59
2, 72240, Note_on_c, 0, 72, 0
2, 72240, Note_on_c, 0, 68, 0
2, 72240, Note_on_c, 0, 61, 0
2, 72360, Note_on_c, 0, 61, 55
2, 72360, Note_on_c, 0, 68, 55
2, 72360, Note_on_c, 0, 73, 55
2, 72480, Note_on_c, 0, 73, 0
2, 72480, Note_on_c, 0, 68, 0
2, 72480, Note_on_c, 0, 61, 0
2, 72600, Note_on_c, 0, 61, 59
2, 72600, Note_on_c, 0, 68, 59
2, 72720, Note_on_c, 0, 68, 0
2, 72720, Note_on_c, 0, 61, 0
2, 72840, Note_on_c, 0, 68, 57
2, 72840, Note_on_c, 0, 61, 57
2, 72840, Note_on_c, 0, 70, 57
2, 72960, Note_on_c, 0, 70, 0
2, 72960, Note_on_c, 0, 61, 0
2, 72960, Note_on_c, 0, 68, 0
2, 73080, Note_on_c, 0, 61, 64
2, 73080, Note_on_c, 0, 68, 64
2, 73080, Note_on_c, 0, 72, 64
2, 73200, Note_on_c, 0, 72, 0
2, 73200, Note_on_c, 0, 68, 0
2, 73200, Note_on_c, 0, 61, 0
2, 73320, Note_on_c, 0, 75, 64
2, 73440, Note_on_c, 0, 75, 0
2, 73560, Note_on_c, 0, 61, 62
2, 73560, Note_on_c, 0, 68, 62
2, 73560, Note_on_c, 0, 73, 62
2, 73680, Note_on_c, 0, 73, 0
2, 73680, Note_on_c, 0, 68, 0
2, 73680, Note_on_c, 0, 61, 0
2, 73800, Note_on_c, 0, 70, 59
2, 73800, Note_on_c, 0, 61, 48
2, 73800, Note_on_c, 0, 68, 48
2, 73920, Note_on_c, 0, 68, 0
2, 73920, Note_on_c, 0, 61, 0
2, 73920, Note_on_c, 0, 70, 0
2, 74040, Note_on_c, 0, 61, 48
2, 74040, Note_on_c, 0, 68, 48
2, 74040, Note_on_c, 0, 72, 61
2, 74160, Note_on_c, 0, 72, 0
2, 74160, Note_on_c, 0, 68, 0
2, 74160, Note_on_c, 0, 61, 0
2, 74280, Note_on_c, 0, 61, 48
2, 74280, Note_on_c, 0, 68, 57
2, 74400, Note_on_c, 0, 68, 0
2, 74400, Note_on_c, 0, 61, 0
2, 74520, Note_on_c, 0, 62, 71
2, 74520, Note_on_c, 0, 68, 71
2, 74640, Note_on_c, 0, 68, 0
2, 74640, Note_on_c, 0, 62, 0
2, 74760, Note_on_c, 0, 68, 63
2, 74760, Note_on_c, 0, 62, 63
2, 74760, Note_on_c, 0, 70, 63
2, 74880, Note_on_c, 0, 70, 0
2, 74880, Note_on_c, 0, 62, 0
2, 74880, Note_on_c, 0, 68, 0
2, 75000, Note_on_c, 0, 62, 70
2, 75000, Note_on_c, 0, 68, 70
2, 75000, Note_on_c, 0, 72, 70
2, 75120, Note_on_c, 0, 72, 0
2, 75120, Note_on_c, 0, 68, 0
2, 75120, Note_on_c, 0, 62, 0
2, 75240, Note_on_c, 0, 75, 75
2, 75360, Note_on_c, 0, 75, 0
2, 75480, Note_on_c, 0, 62, 69
2, 75480, Note_on_c, 0, 68, 69
2, 75480, Note_on_c, 0, 74, 69
2, 75600, Note_on_c, 0, 74, 0
2, 75600, Note_on_c, 0, 68, 0
2, 75600, Note_on_c, 0, 62, 0
2, 75720, Note_on_c, 0, 70, 63
2, 75720, Note_on_c, 0, 62, 52
2, 75720, Note_on_c, 0, 68, 52
2, 75840, Note_on_c, 0, 68, 0
2, 75840, Note_on_c, 0, 62, 0
2, 75840, Note_on_c, 0, 70, 0
2, 75960, Note_on_c, 0, 62, 52
2, 75960, Note_on_c, 0, 68, 52
2, 75960, Note_on_c, 0, 72, 66
2, 76080, Note_on_c, 0, 72, 0
2, 76080, Note_on_c, 0, 68, 0
2, 76080, Note_on_c, 0, 62, 0
2, 76200, Note_on_c, 0, 68, 62
2, 76320, Note_on_c, 0, 68, 0
2, 76440, Note_on_c, 0, 74, 70
2, 76440, Note_on_c, 0, 72, 70
2, 76440, Note_on_c, 0, 68, 70
2, 76560, Note_on_c, 0, 68, 0
2, 76560, Note_on_c, 0, 72, 0
2, 76560, Note_on_c, 0, 74, 0
2, 76680, Note_on_c, 0, 68, 66
2, 76680, Note_on_c, 0, 75, 66
2, 76680, Note_on_c, 0, 72, 66
2, 76800, Note_on_c, 0, 72, 0
2, 76800, Note_on_c, 0, 75, 0
2, 76800, Note_on_c, 0, 68, 0
2, 76920, Note_on_c, 0, 77, 72
2, 76920, Note_on_c, 0, 68, 72
2, 76920, Note_on_c, 0, 72, 72
2, 77040, Note_on_c, 0, 72, 0
2, 77040, Note_on_c, 0, 68, 0
2, 77040, Note_on_c, 0, 77, 0
2, 77160, Note_on_c, 0, 80, 81
2, 77280, Note_on_c, 0, 80, 0
2, 77400, Note_on_c, 0, 79, 80
2, 77400, Note_on_c, 0, 68, 80
2, 77400, Note_on_c, 0, 72, 80
2, 77520, Note_on_c, 0, 72, 0
2, 77520, Note_on_c, 0, 68, 0
2, 77520, Note_on_c, 0, 79, 0
2, 77640, Note_on_c, 0, 72, 72
2, 77640, Note_on_c, 0, 75, 72
2, 77640, Note_on_c, 0, 68, 72
2, 77760, Note_on_c, 0, 68, 0
2, 77760, Note_on_c, 0, 75, 0
2, 77760, Note_on_c, 0, 72, 0
2, 77880, Note_on_c, 0, 77, 80
2, 77880, Note_on_c, 0, 68, 80
2, 77880, Note_on_c, 0, 72, 80
2, 78000, Note_on_c, 0, 72, 0
2, 78000, Note_on_c, 0, 68, 0
2, 78000, Note_on_c, 0, 77, 0
2, 78120, Note_on_c, 0, 74, 66
2, 78240, Note_on_c, 0, 74, 0
2, 78360, Note_on_c, 0, 77, 75
2, 78480, Note_on_c, 0, 77, 0
2, 78600, Note_on_c, 0, 79, 75
2, 78720, Note_on_c, 0, 79, 0
2, 78840, Note_on_c, 0, 80, 81
2, 78960, Note_on_c, 0, 80, 0
2, 79080, Note_on_c, 0, 84, 75
2, 79200, Note_on_c, 0, 84, 0
2, 79320, Note_on_c, 0, 80, 75
2, 79440, Note_on_c, 0, 80, 0
2, 79560, Note_on_c, 0, 77, 75
2, 79680, Note_on_c, 0, 77, 0
2, 79800, Note_on_c, 0, 80, 81
2, 79920, Note_on_c, 0, 80, 0
2, 80040, Note_on_c, 0, 77, 75
2, 80160, Note_on_c, 0, 77, 0
2, 80280, Note_on_c, 0, 74, 75
2, 80400, Note_on_c, 0, 74, 0
2, 80520, Note_on_c, 0, 77, 75
2, 80640, Note_on_c, 0, 77, 0
2, 80760, Note_on_c, 0, 74, 81
2, 80880, Note_on_c, 0, 74, 0
2, 81000, Note_on_c, 0, 70, 75
2, 81120, Note_on_c, 0, 70, 0
2, 81240, Note_on_c, 0, 74, 75
2, 81360, Note_on_c, 0, 74, 0
2, 81480, Note_on_c, 0, 70, 75
2, 81600, Note_on_c, 0, 70, 0
2, 81720, Note_on_c, 0, 67, 81
2, 81840, Note_on_c, 0, 67, 0
2, 81960, Note_on_c, 0, 70, 75
2, 82080, Note_on_c, 0, 70, 0
2, 82200, Note_on_c, 0, 67, 75
2, 82320, Note_on_c, 0, 67, 0
2, 82440, Note_on_c, 0, 63, 75
2, 82560, Note_on_c, 0, 63, 0
2, 82680, Note_on_c, 0, 67, 85
2, 82800, Note_on_c, 0, 67, 0
2, 82920, Note_on_c, 0, 63, 80
2, 83040, Note_on_c, 0, 63, 0
2, 83160, Note_on_c, 0, 60, 80
2, 83280, Note_on_c, 0, 60, 0
2, 83400, Note_on_c, 0, 63, 80
2, 83520, Note_on_c, 0, 63, 0
2, 83640, Note_on_c, 0, 60, 93
2, 83760, Note_on_c, 0, 60, 0
2, 83880, Note_on_c, 0, 56, 86
2, 84000, Note_on_c, 0, 56, 0
2, 84120, Note_on_c, 0, 60, 89
2, 84240, Note_on_c, 0, 60, 0
2, 84360, Note_on_c, 0, 56, 103
2, 84480, Note_on_c, 0, 56, 0
2, 84480, Control_c, 0, 91, 127
2, 84480, Note_on_c, 0, 55, 108
2, 84960, Note_on_c, 0, 68, 93
2, 84960, Note_on_c, 0, 56, 83
2, 84960, Note_on_c, 0, 60, 83
2, 84960, Note_on_c, 0, 63, 83
2, 85440, Note_on_c, 0, 63, 0
2, 85440, Note_on_c, 0, 56, 0
2, 85440, Note_on_c, 0, 60, 0
2, 85440, Note_on_c, 0, 68, 0
2, 85440, Note_on_c, 0, 80, 93
2, 85440, Note_on_c, 0, 75, 83
2, 85440, Note_on_c, 0, 68, 83
2, 85440, Note_on_c, 0, 72, 83
2, 85920, Note_on_c, 0, 72, 0
2, 85920, Note_on_c, 0, 75, 0
2, 85920, Note_on_c, 0, 68, 0
2, 85920, Note_on_c, 0, 80, 0
2, 85920, Note_on_c, 0, 92, 91
2, 85920, Note_on_c, 0, 87, 81
2, 85920, Note_on_c, 0, 84, 81
2, 85920, Note_on_c, 0, 80, 81
2, 86400, Note_on_c, 0, 80, 0
2, 86400, Note_on_c, 0, 87, 0
2, 86400, Note_on_c, 0, 55, 0
2, 86400, Note_on_c, 0, 92, 0
2, 86400, Note_on_c, 0, 84, 0
2, 86400, Note_on_c, 0, 54, 108
2, 86880, Note_on_c, 0, 68, 93
2, 86880, Note_on_c, 0, 56, 83
2, 86880, Note_on_c, 0, 60, 83
2, 86880, Note_on_c, 0, 63, 83
2, 87360, Note_on_c, 0, 63, 0
2, 87360, Note_on_c, 0, 56, 0
2, 87360, Note_on_c, 0, 60, 0
2, 87360, Note_on_c, 0, 68, 0
2, 87360, Note_on_c, 0, 80, 93
2, 87360, Note_on_c, 0, 75, 83
2, 87360, Note_on_c, 0, 68, 83
2, 87360, Note_on_c, 0, 72, 83
2, 87840, Note_on_c, 0, 72, 0
2, 87840, Note_on_c, 0, 75, 0
2, 87840, Note_on_c, 0, 68, 0
2, 87840, Note_on_c, 0, 80, 0
2, 87840, Note_on_c, 0, 92, 91
2, 87840, Note_on_c, 0, 87, 81
2, 87840, Note_on_c, 0, 84, 81
2, 87840, Note_on_c, 0, 80, 81
2, 88320, Note_on_c, 0, 80, 0
2, 88320, Note_on_c, 0, 87, 0
2, 88320, Note_on_c, 0, 54, 0
2, 88320, Note_on_c, 0, 92, 0
2, 88320, Note_on_c, 0, 84, 0
2, 88320, Note_on_c, 0, 53, 111
2, 88800, Note_on_c, 0, 68, 93
2, 88800, Note_on_c, 0, 56, 83
2, 88800, Note_on_c, 0, 59, 83
2, 88800, Note_on_c, 0, 63, 83
2, 89280, Note_on_c, 0, 63, 0
2, 89280, Note_on_c, 0, 56, 0
2, 89280, Note_on_c, 0, 59, 0
2, 89280, Note_on_c, 0, 68, 0
2, 89280, Note_on_c, 0, 80, 93
2, 89280, Note_on_c, 0, 75, 83
2, 89280, Note_on_c, 0, 68, 83
2, 89280, Note_on_c, 0, 71, 83
2, 89760, Note_on_c, 0, 71, 0
2, 89760, Note_on_c, 0, 75, 0
2, 89760, Note_on_c, 0, 68, 0
2, 89760, Note_on_c, 0, 80, 0
2, 89760, Note_on_c, 0, 92, 91
2, 89760, Note_on_c, 0, 87, 81
2, 89760, Note_on_c, 0, 83, 81
2, 89760, Note_on_c, 0, 80, 81
2, 90240, Note_on_c, 0, 80, 0
2, 90240, Note_on_c, 0, 87, 0
2, 90240, Note_on_c, 0, 53, 0
2, 90240, Note_on_c, 0, 92, 0
2, 90240, Note_on_c, 0, 83, 0
2, 90240, Note_on_c, 0, 52, 111
2, 90720, Note_on_c, 0, 57, 83
2, 90720, Note_on_c, 0, 69, 93
2, 90720, Note_on_c, 0, 55, 83
2, 90720, Note_on_c, 0, 61, 83
2, 90720, Note_on_c, 0, 67, 93
2, 91200, Note_on_c, 0, 67, 0
2, 91200, Note_on_c, 0, 57, 0
2, 91200, Note_on_c, 0, 69, 0
2, 91200, Note_on_c, 0, 55, 0
2, 91200, Note_on_c, 0, 61, 0
2, 91200, Note_on_c, 0, 67, 83
2, 91200, Note_on_c, 0, 81, 93
2, 91200, Note_on_c, 0, 79, 93
2, 91200, Note_on_c, 0, 69, 83
2, 91200, Note_on_c, 0, 73, 83
2, 91680, Note_on_c, 0, 73, 0
2, 91680, Note_on_c, 0, 67, 0
2, 91680, Note_on_c, 0, 81, 0
2, 91680, Note_on_c, 0, 79, 0
2, 91680, Note_on_c, 0, 69, 0
2, 91680, Note_on_c, 0, 81, 78
2, 91680, Note_on_c, 0, 93, 86
2, 91680, Note_on_c, 0, 91, 86
2, 91680, Note_on_c, 0, 85, 78
2, 91680, Note_on_c, 0, 79, 78
2, 91920, Note_on_c, 0, 79, 0
2, 91920, Note_on_c, 0, 81, 0
2, 91920, Note_on_c, 0, 93, 0
2, 91920, Note_on_c, 0, 91, 0
2, 91920, Note_on_c, 0, 85, 0
2, 91920, Control_c, 0, 91, 127
2, 91920, Note_on_c, 0, 81, 88
2, 92000, Note_on_c, 0, 81, 0
2, 92000, Note_on_c, 0, 83, 88
2, 92080, Note_on_c, 0, 83, 0
2, 92080, Note_on_c, 0, 81, 88
2, 92160, Note_on_c, 0, 81, 0
2, 92160, Note_on_c, 0, 52, 0
2, 92160, Note_on_c, 0, 78, 97
2, 92400, Note_on_c, 0, 81, 97
2, 92640, Note_on_c, 0, 81, 0
2, 92640, Note_on_c, 0, 78, 0
2, 92640, Note_on_c, 0, 81, 90
2, 92640, Note_on_c, 0, 86, 101
2, 92640, Note_on_c, 0, 78, 90
2, 92760, Note_on_c, 0, 78, 0
2, 92760, Note_on_c, 0, 86, 0
2, 92760, Note_on_c, 0, 81, 0
2, 92880, Note_on_c, 0, 81, 83
2, 92880, Note_on_c, 0, 90, 93
2, 92880, Note_on_c, 0, 78, 83
2, 93000, Note_on_c, 0, 78, 0
2, 93000, Note_on_c, 0, 90, 0
2, 93000, Note_on_c, 0, 81, 0
2, 93120, Note_on_c, 0, 81, 75
2, 93120, Note_on_c, 0, 88, 102
2, 93120, Note_on_c, 0, 78, 75
2, 93360, Note_on_c, 0, 88, 0
2, 93360, Note_on_c, 0, 86, 93
2, 93600, Note_on_c, 0, 86, 0
2, 93600, Note_on_c, 0, 78, 0
2, 93600, Note_on_c, 0, 81, 0
2, 93600, Note_on_c, 0, 74, 89
2, 93600, Note_on_c, 0, 78, 93
2, 93720, Note_on_c, 0, 78, 0
2, 93720, Note_on_c, 0, 74, 0
2, 93840, Note_on_c, 0, 74, 81
2, 93840, Note_on_c, 0, 81, 90
2, 93840, Note_on_c, 0, 78, 81
2, 93960, Note_on_c, 0, 78, 0
2, 93960, Note_on_c, 0, 81, 0
2, 93960, Note_on_c, 0, 74, 0
2, 94080, Note_on_c, 0, 74, 85
2, 94080, Note_on_c, 0, 83, 95
2, 94080, Note_on_c, 0, 81, 85
2, 94080, Note_on_c, 0, 78, 85
2, 94320, Note_on_c, 0, 78, 0
2, 94320, Note_on_c, 0, 74, 0
2, 94320, Note_on_c, 0, 83, 0
2, 94320, Note_on_c, 0, 81, 0
2, 94560, Note_on_c, 0, 74, 77
2, 94560, Note_on_c, 0, 83, 86
2, 94560, Note_on_c, 0, 81, 77
2, 94560, Note_on_c, 0, 78, 77
2, 94800, Note_on_c, 0, 78, 0
2, 94800, Note_on_c, 0, 74, 0
2, 94800, Note_on_c, 0, 83, 0
2, 94800, Note_on_c, 0, 81, 0
2, 94920, Note_on_c, 0, 74, 77
2, 94920, Note_on_c, 0, 83, 86
2, 94920, Note_on_c, 0, 81, 77
2, 94920, Note_on_c, 0, 78, 77
2, 95040, Note_on_c, 0, 78, 0
2, 95040, Note_on_c, 0, 74, 0
2, 95040, Note_on_c, 0, 83, 0
2, 95040, Note_on_c, 0, 81, 0
2, 95040, Note_on_c, 0, 74, 77
2, 95040, Note_on_c, 0, 83, 86
2, 95040, Note_on_c, 0, 81, 86
2, 95040, Note_on_c, 0, 78, 77
2, 95520, Note_on_c, 0, 78, 0
2, 95520, Note_on_c, 0, 74, 0
2, 95520, Note_on_c, 0, 83, 0
2, 95520, Note_on_c, 0, 81, 0
2, 95520, Note_on_c, 0, 74, 90
2, 95520, Note_on_c, 0, 78, 90
2, 95640, Note_on_c, 0, 78, 0
2, 95640, Note_on_c, 0, 74, 0
2, 95760, Note_on_c, 0, 74, 90
2, 95760, Note_on_c, 0, 80, 90
2, 95760, Note_on_c, 0, 78, 90
2, 95880, Note_on_c, 0, 78, 0
2, 95880, Note_on_c, 0, 80, 0
2, 95880, Note_on_c, 0, 74, 0
2, 96000, Note_on_c, 0, 74, 87
2, 96000, Note_on_c, 0, 78, 87
2, 96000, Note_on_c, 0, 81, 97
2, 96240, Note_on_c, 0, 81, 0
2, 96240, Note_on_c, 0, 83, 89
2, 96480, Note_on_c, 0, 83, 0
2, 96480, Note_on_c, 0, 78, 0
2, 96480, Note_on_c, 0, 74, 0
2, 96480, Note_on_c, 0, 78, 93
2, 96480, Note_on_c, 0, 74, 93
2, 96600, Note_on_c, 0, 74, 0
2, 96600, Note_on_c, 0, 78, 0
2, 96720, Note_on_c, 0, 80, 90
2, 96720, Note_on_c, 0, 78, 90
2, 96720, Note_on_c, 0, 74, 90
2, 96840, Note_on_c, 0, 74, 0
2, 96840, Note_on_c, 0, 78, 0
2, 96840, Note_on_c, 0, 80, 0
2, 96960, Note_on_c, 0, 81, 97
2, 96960, Note_on_c, 0, 74, 87
2, 96960, Note_on_c, 0, 78, 87
2, 97200, Note_on_c, 0, 81, 0
2, 97200, Note_on_c, 0, 83, 89
2, 97440, Note_on_c, 0, 83, 0
2, 97440, Note_on_c, 0, 78, 0
2, 97440, Note_on_c, 0, 74, 0
2, 97440, Note_on_c, 0, 74, 93
2, 97440, Note_on_c, 0, 78, 93
2, 97560, Note_on_c, 0, 78, 0
2, 97560, Note_on_c, 0, 74, 0
2, 97680, Note_on_c, 0, 80, 93
2, 97680, Note_on_c, 0, 74, 93
2, 97680, Note_on_c, 0, 78, 93
2, 97800, Note_on_c, 0, 78, 0
2, 97800, Note_on_c, 0, 74, 0
2, 97800, Note_on_c, 0, 80, 0
2, 97920, Note_on_c, 0, 69, 87
2, 97920, Note_on_c, 0, 74, 87
2, 97920, Note_on_c, 0, 76, 87
2, 97920, Note_on_c, 0, 81, 97
2, 98160, Note_on_c, 0, 81, 0
2, 98160, Note_on_c, 0, 69, 0
2, 98160, Note_on_c, 0, 74, 0
2, 98160, Note_on_c, 0, 76, 0
2, 98400, Note_on_c, 0, 76, 75
2, 98400, Note_on_c, 0, 69, 75
2, 98400, Note_on_c, 0, 73, 75
2, 98400, Note_on_c, 0, 81, 84
2, 98640, Note_on_c, 0, 81, 0
2, 98640, Note_on_c, 0, 76, 0
2, 98640, Note_on_c, 0, 69, 0
2, 98640, Note_on_c, 0, 73, 0
2, 98760, Note_on_c, 0, 69, 75
2, 98760, Note_on_c, 0, 76, 75
2, 98760, Note_on_c, 0, 73, 75
2, 98760, Note_on_c, 0, 81, 84
2, 98880, Note_on_c, 0, 81, 0
2, 98880, Note_on_c, 0, 69, 0
2, 98880, Note_on_c, 0, 76, 0
2, 98880, Note_on_c, 0, 73, 0
2, 98880, Note_on_c, 0, 69, 75
2, 98880, Note_on_c, 0, 76, 75
2, 98880, Note_on_c, 0, 73, 75
2, 98880, Note_on_c, 0, 81, 84
2, 99360, Note_on_c, 0, 81, 0
2, 99360, Note_on_c, 0, 69, 0
2, 99360, Note_on_c, 0, 76, 0
2, 99360, Note_on_c, 0, 73, 0
2, 99600, Note_on_c, 0, 85, 89
2, 99680, Note_on_c, 0, 85, 0
2, 99680, Note_on_c, 0, 86, 89
2, 99760, Note_on_c, 0, 86, 0
2, 99760, Note_on_c, 0, 85, 89
2, 99840, Note_on_c, 0, 85, 0
2, 99840, Note_on_c, 0, 83, 96
2, 100080, Note_on_c, 0, 86, 96
2, 100320, Note_on_c, 0, 86, 0
2, 100320, Note_on_c, 0, 83, 0
2, 100320, Note_on_c, 0, 86, 89
2, 100320, Note_on_c, 0, 91, 99
2, 100320, Note_on_c, 0, 83, 89
2, 100440, Note_on_c, 0, 83, 0
2, 100440, Note_on_c, 0, 91, 0
2, 100440, Note_on_c, 0, 86, 0
2, 100560, Note_on_c, 0, 86, 81
2, 100560, Note_on_c, 0, 95, 91
2, 100560, Note_on_c, 0, 83, 81
2, 100680, Note_on_c, 0, 83, 0
2, 100680, Note_on_c, 0, 95, 0
2, 100680, Note_on_c, 0, 86, 0
2, 100800, Note_on_c, 0, 93, 97
2, 100800, Note_on_c, 0, 83, 76
2, 101040, Note_on_c, 0, 93, 0
2, 101040, Note_on_c, 0, 91, 86
2, 101280, Note_on_c, 0, 91, 0
2, 101280, Note_on_c, 0, 83, 0
2, 101280, Note_on_c, 0, 83, 86
2, 101280, Note_on_c, 0, 79, 76
2, 101400, Note_on_c, 0, 79, 0
2, 101400, Note_on_c, 0, 83, 0
2, 101520, Note_on_c, 0, 83, 76
2, 101520, Note_on_c, 0, 86, 86
2, 101520, Note_on_c, 0, 79, 76
2, 101640, Note_on_c, 0, 79, 0
2, 101640, Note_on_c, 0, 86, 0
2, 101640, Note_on_c, 0, 83, 0
2, 101760, Note_on_c, 0, 90, 90
2, 101760, Note_on_c, 0, 86, 80
2, 101760, Note_on_c, 0, 83, 80
2, 101760, Note_on_c, 0, 79, 80
2, 102000, Note_on_c, 0, 79, 0
2, 102000, Note_on_c, 0, 90, 0
2, 102000, Note_on_c, 0, 86, 0
2, 102000, Note_on_c, 0, 83, 0
2, 102240, Note_on_c, 0, 90, 80
2, 102240, Note_on_c, 0, 86, 72
2, 102240, Note_on_c, 0, 83, 72
2, 102240, Note_on_c, 0, 79, 72
2, 102480, Note_on_c, 0, 79, 0
2, 102480, Note_on_c, 0, 90, 0
2, 102480, Note_on_c, 0, 86, 0
2, 102480, Note_on_c, 0, 83, 0
2, 102600, Note_on_c, 0, 90, 80
2, 102600, Note_on_c, 0, 86, 72
2, 102600, Note_on_c, 0, 83, 72
2, 102600, Note_on_c, 0, 79, 72
2, 102720, Note_on_c, 0, 79, 0
2, 102720, Note_on_c, 0, 90, 0
2, 102720, Note_on_c, 0, 86, 0
2, 102720, Note_on_c, 0, 83, 0
2, 102720, Note_on_c, 0, 90, 80
2, 102720, Note_on_c, 0, 86, 72
2, 102720, Note_on_c, 0, 83, 72
2, 102720, Note_on_c, 0, 79, 72
2, 103200, Note_on_c, 0, 79, 0
2, 103200, Note_on_c, 0, 90, 0
2, 103200, Note_on_c, 0, 86, 0
2, 103200, Note_on_c, 0, 83, 0
2, 103200, Note_on_c, 0, 83, 86
2, 103200, Note_on_c, 0, 79, 86
2, 103320, Note_on_c, 0, 79, 0
2, 103320, Note_on_c, 0, 83, 0
2, 103440, Note_on_c, 0, 85, 86
2, 103440, Note_on_c, 0, 83, 86
2, 103440, Note_on_c, 0, 79, 86
2, 103560, Note_on_c, 0, 79, 0
2, 103560, Note_on_c, 0, 83, 0
2, 103560, Note_on_c, 0, 85, 0
2, 103680, Note_on_c, 0, 86, 96
2, 103680, Note_on_c, 0, 79, 86
2, 103680, Note_on_c, 0, 83, 86
2, 103920, Note_on_c, 0, 86, 0
2, 103920, Note_on_c, 0, 88, 86
2, 104160, Note_on_c, 0, 88, 0
2, 104160, Note_on_c, 0, 83, 0
2, 104160, Note_on_c, 0, 79, 0
2, 104160, Note_on_c, 0, 83, 91
2, 104160, Note_on_c, 0, 79, 91
2, 104280, Note_on_c, 0, 79, 0
2, 104280, Note_on_c, 0, 83, 0
2, 104400, Note_on_c, 0, 85, 89
2, 104400, Note_on_c, 0, 83, 89
2, 104400, Note_on_c, 0, 79, 89
2, 104520, Note_on_c, 0, 79, 0
2, 104520, Note_on_c, 0, 83, 0
2, 104520, Note_on_c, 0, 85, 0
2, 104640, Note_on_c, 0, 86, 96
2, 104640, Note_on_c, 0, 83, 86
2, 104640, Note_on_c, 0, 79, 86
2, 104880, Note_on_c, 0, 86, 0
2, 104880, Note_on_c, 0, 88, 89
2, 105120, Note_on_c, 0, 88, 0
2, 105120, Note_on_c, 0, 79, 0
2, 105120, Note_on_c, 0, 83, 0
2, 105120, Note_on_c, 0, 83, 91
2, 105120, Note_on_c, 0, 79, 91
2, 105240, Note_on_c, 0, 79, 0
2, 105240, Note_on_c, 0, 83, 0
2, 105360, Note_on_c, 0, 85, 91
2, 105360, Note_on_c, 0, 83, 91
2, 105360, Note_on_c, 0, 79, 91
2, 105480, Note_on_c, 0, 79, 0
2, 105480, Note_on_c, 0, 83, 0
2, 105480, Note_on_c, 0, 85, 0
2, 105600, Note_on_c, 0, 74, 84
2, 105600, Note_on_c, 0, 86, 94
2, 105600, Note_on_c, 0, 81, 84
2, 105600, Note_on_c, 0, 79, 84
2, 105840, Note_on_c, 0, 79, 0
2, 105840, Note_on_c, 0, 74, 0
2, 105840, Note_on_c, 0, 86, 0
2, 105840, Note_on_c, 0, 81, 0
2, 106080, Note_on_c, 0, 81, 73
2, 106080, Note_on_c, 0, 74, 73
2, 106080, Note_on_c, 0, 86, 81
2, 106080, Note_on_c, 0, 78, 73
2, 106320, Note_on_c, 0, 78, 0
2, 106320, Note_on_c, 0, 81, 0
2, 106320, Note_on_c, 0, 74, 0
2, 106320, Note_on_c, 0, 86, 0
2, 106440, Note_on_c, 0, 81, 73
2, 106440, Note_on_c, 0, 74, 73
2, 106440, Note_on_c, 0, 86, 81
2, 106440, Note_on_c, 0, 78, 73
2, 106560, Note_on_c, 0, 78, 0
2, 106560, Note_on_c, 0, 81, 0
2, 106560, Note_on_c, 0, 74, 0
2, 106560, Note_on_c, 0, 86, 0
2, 106560, Note_on_c, 0, 81, 73
2, 106560, Note_on_c, 0, 74, 73
2, 106560, Note_on_c, 0, 86, 81
2, 106560, Note_on_c, 0, 78, 73
2, 106800, Note_on_c, 0, 78, 0
2, 106800, Note_on_c, 0, 81, 0
2, 106800, Note_on_c, 0, 74, 0
2, 106800, Note_on_c, 0, 86, 0
2, 107520, Control_c, 0, 91, 127
2, 109440, Note_on_c, 0, 71, 44
2, 109440, Note_on_c, 0, 59, 30
2, 109440, Note_on_c, 0, 62, 30
2, 109680, Note_on_c, 0, 71, 0
2, 109680, Note_on_c, 0, 69, 46
2, 110160, Note_on_c, 0, 69, 0
2, 110160, Note_on_c, 0, 67, 42
2, 110400, Note_on_c, 0, 67, 0
2, 110400, Note_on_c, 0, 62, 0
2, 110400, Note_on_c, 0, 59, 0
2, 110400, Note_on_c, 0, 59, 30
2, 110400, Note_on_c, 0, 62, 30
2, 110400, Note_on_c, 0, 66, 44
2, 111360, Note_on_c, 0, 66, 0
2, 111360, Note_on_c, 0, 62, 0
2, 111360, Note_on_c, 0, 59, 0
2, 111360, Note_on_c, 0, 69, 44
2, 111360, Note_on_c, 0, 57, 30
2, 111360, Note_on_c, 0, 60, 30
2, 111600, Note_on_c, 0, 69, 0
2, 111600, Note_on_c, 0, 67, 46
2, 112080, Note_on_c, 0, 67, 0
2, 112080, Note_on_c, 0, 66, 40
2, 112320, Note_on_c, 0, 66, 0
2, 112320, Note_on_c, 0, 60, 0
2, 112320, Note_on_c, 0, 57, 0
2, 112320, Note_on_c, 0, 57, 30
2, 112320, Note_on_c, 0, 60, 30
2, 112320, Note_on_c, 0, 64, 44
2, 113280, Note_on_c, 0, 64, 0
2, 113280, Note_on_c, 0, 60, 0
2, 113280, Note_on_c, 0, 57, 0
2, 113280, Note_on_c, 0, 67, 45
2, 113280, Note_on_c, 0, 55, 31
2, 113280, Note_on_c, 0, 59, 31
2, 113520, Note_on_c, 0, 67, 0
2, 113520, Note_on_c, 0, 66, 46
2, 114000, Note_on_c, 0, 66, 0
2, 114000, Note_on_c, 0, 64, 40
2, 114240, Note_on_c, 0, 64, 0
2, 114240, Note_on_c, 0, 59, 0
2, 114240, Note_on_c, 0, 55, 0
2, 114240, Note_on_c, 0, 55, 34
2, 114240, Note_on_c, 0, 62, 31
2, 114240, Note_on_c, 0, 67, 46
2, 115200, Note_on_c, 0, 67, 0
2, 115200, Note_on_c, 0, 62, 0
2, 115200, Note_on_c, 0, 55, 0
2, 115200, Note_on_c, 0, 66, 45
2, 115200, Note_on_c, 0, 55, 44
2, 115200, Note_on_c, 0, 61, 44
2, 115440, Note_on_c, 0, 66, 0
2, 115440, Note_on_c, 0, 64, 46
2, 115920, Note_on_c, 0, 64, 0
2, 115920, Note_on_c, 0, 66, 42
2, 116160, Note_on_c, 0, 66, 0
2, 116160, Note_on_c, 0, 61, 0
2, 116160, Note_on_c, 0, 55, 0
2, 116160, Note_on_c, 0, 54, 44
2, 116160, Note_on_c, 0, 62, 44
2, 117120, Note_on_c, 0, 62, 0
2, 117120, Note_on_c, 0, 54, 0
2, 117120, Control_c, 0, 91, 127
2, 117120, Note_on_c, 0, 64, 40
2, 117120, Note_on_c, 0, 71, 40
2, 117120, Note_on_c, 0, 76, 56
2, 117360, Note_on_c, 0, 76, 0
2, 117360, Note_on_c, 0, 74, 55
2, 117840, Note_on_c, 0, 74, 0
2, 117840, Note_on_c, 0, 72, 44
2, 118080, Note_on_c, 0, 72, 0
2, 118080, Note_on_c, 0, 71, 0
2, 118080, Note_on_c, 0, 64, 0
2, 118080, Note_on_c, 0, 64, 40
2, 118080, Note_on_c, 0, 67, 40
2, 118080, Note_on_c, 0, 71, 45
2, 119040, Note_on_c, 0, 71, 0
2, 119040, Note_on_c, 0, 67, 0
2, 119040, Note_on_c, 0, 64, 0
2, 119040, Note_on_c, 0, 62, 36
2, 119040, Note_on_c, 0, 69, 36
2, 119040, Note_on_c, 0, 74, 51
2, 119280, Note_on_c, 0, 74, 0
2, 119280, Note_on_c, 0, 72, 55
2, 119760, Note_on_c, 0, 72, 0
2, 119760, Note_on_c, 0, 71, 44
2, 120000, Note_on_c, 0, 71, 0
2, 120000, Note_on_c, 0, 69, 0
2, 120000, Note_on_c, 0, 62, 0
2, 120000, Note_on_c, 0, 62, 38
2, 120000, Note_on_c, 0, 66, 38
2, 120000, Note_on_c, 0, 69, 45
2, 120960, Note_on_c, 0, 69, 0
2, 120960, Note_on_c, 0, 66, 0
2, 120960, Note_on_c, 0, 62, 0
2, 120960, Note_on_c, 0, 60, 36
2, 120960, Note_on_c, 0, 67, 36
2, 120960, Note_on_c, 0, 72, 52
2, 121200, Note_on_c, 0, 72, 0
2, 121200, Note_on_c, 0, 71, 55
2, 121680, Note_on_c, 0, 71, 0
2, 121680, Note_on_c, 0, 69, 47
2, 121920, Note_on_c, 0, 69, 0
2, 121920, Note_on_c, 0, 67, 0
2, 121920, Note_on_c, 0, 60, 0
2, 121920, Note_on_c, 0, 78, 61
2, 121920, Note_on_c, 0, 67, 35
2, 121920, Note_on_c, 0, 72, 35
2, 122520, Note_on_c, 0, 78, 0
2, 122520, Note_on_c, 0, 81, 55
2, 122640, Note_on_c, 0, 81, 0
2, 122640, Note_on_c, 0, 79, 44
2, 122720, Note_on_c, 0, 79, 0
2, 122720, Note_on_c, 0, 76, 44
2, 122800, Note_on_c, 0, 76, 0
2, 122800, Note_on_c, 0, 72, 44
2, 122880, Note_on_c, 0, 72, 0
2, 122880, Note_on_c, 0, 72, 0
2, 122880, Note_on_c, 0, 67, 0
2, 122880, Note_on_c, 0, 60, 37
2, 122880, Note_on_c, 0, 66, 37
2, 122880, Note_on_c, 0, 71, 46
2, 123120, Note_on_c, 0, 71, 0
2, 123120, Note_on_c, 0, 69, 48
2, 123600, Note_on_c, 0, 69, 0
2, 123600, Note_on_c, 0, 71, 39
2, 123840, Note_on_c, 0, 71, 0
2, 123840, Note_on_c, 0, 66, 0
2, 123840, Note_on_c, 0, 60, 0
2, 123840, Note_on_c, 0, 60, 40
2, 123840, Note_on_c, 0, 67, 30
2, 124080, Note_on_c, 0, 60, 0
2, 124080, Note_on_c, 0, 59, 37
2, 124500, Note_on_c, 0, 59, 0
2, 124680, Note_on_c, 0, 71, 27
2, 124740, Note_on_c, 0, 75, 27
2, 124800, Note_on_c, 0, 67, 0
2, 124800, Control_c, 0, 91, 127
2, 124800, Note_on_c, 0, 83, 42
2, 125040, Note_on_c, 0, 83, 0
2, 125040, Note_on_c, 0, 82, 45
2, 125520, Note_on_c, 0, 82, 0
2, 125520, Note_on_c, 0, 80, 40
2, 125640, Note_on_c, 0, 80, 0
2, 125640, Note_on_c, 0, 71, 27
2, 125700, Note_on_c, 0, 75, 27
2, 125760, Note_on_c, 0, 75, 0
2, 125760, Note_on_c, 0, 71, 0
2, 125760, Note_on_c, 0, 82, 44
2, 126600, Note_on_c, 0, 82, 0
2, 126600, Note_on_c, 0, 71, 27
2, 126660, Note_on_c, 0, 75, 27
2, 126720, Note_on_c, 0, 71, 0
2, 126720, Note_on_c, 0, 75, 0
2, 126720, Note_on_c, 0, 82, 42
2, 126960, Note_on_c, 0, 82, 0
2, 126960, Note_on_c, 0, 80, 45
2, 127440, Note_on_c, 0, 80, 0
2, 127440, Note_on_c, 0, 78, 40
2, 127560, Note_on_c, 0, 78, 0
2, 127560, Note_on_c, 0, 71, 27
2, 127620, Note_on_c, 0, 75, 27
2, 127680, Note_on_c, 0, 71, 0
2, 127680, Note_on_c, 0, 75, 0
2, 127680, Note_on_c, 0, 80, 42
2, 128640, Note_on_c, 0, 80, 0
2, 128640, Note_on_c, 0, 71, 0
2, 128640, Note_on_c, 0, 75, 0
2, 128640, Note_on_c, 0, 72, 29
2, 128640, Note_on_c, 0, 80, 42
2, 128880, Note_on_c, 0, 80, 0
2, 128880, Note_on_c, 0, 79, 47
2, 129360, Note_on_c, 0, 79, 0
2, 129360, Note_on_c, 0, 78, 42
2, 129600, Note_on_c, 0, 78, 0
2, 129600, Note_on_c, 0, 72, 0
2, 129600, Note_on_c, 0, 73, 37
2, 129600, Note_on_c, 0, 77, 50
2, 129840, Note_on_c, 0, 73, 0
2, 129840, Note_on_c, 0, 72, 39
2, 130080, Note_on_c, 0, 77, 0
2, 130080, Note_on_c, 0, 76, 44
2, 130320, Note_on_c, 0, 72, 0
2, 130320, Note_on_c, 0, 71, 35
2, 130560, Note_on_c, 0, 71, 0
2, 130560, Note_on_c, 0, 76, 0
2, 130560, Note_on_c, 0, 70, 31
2, 130560, Note_on_c, 0, 75, 38
2, 130800, Note_on_c, 0, 75, 0
2, 130800, Note_on_c, 0, 73, 42
2, 131280, Note_on_c, 0, 73, 0
2, 131280, Note_on_c, 0, 75, 42
2, 131520, Note_on_c, 0, 75, 0
2, 131520, Note_on_c, 0, 70, 0
2, 131520, Note_on_c, 0, 66, 30
2, 131520, Note_on_c, 0, 71, 30
2, 132180, Note_on_c, 0, 71, 0
2, 132180, Note_on_c, 0, 66, 0
2, 132360, Note_on_c, 0, 67, 23
2, 132420, Note_on_c, 0, 71, 23
2, 132480, Control_c, 0, 91, 127
2, 132480, Note_on_c, 0, 79, 37
2, 132720, Note_on_c, 0, 79, 0
2, 132720, Note_on_c, 0, 78, 39
2, 133200, Note_on_c, 0, 78, 0
2, 133200, Note_on_c, 0, 76, 36
2, 133320, Note_on_c, 0, 76, 0
2, 133320, Note_on_c, 0, 67, 23
2, 133380, Note_on_c, 0, 71, 23
2, 133440, Note_on_c, 0, 71, 0
2, 133440, Note_on_c, 0, 67, 0
2, 133440, Note_on_c, 0, 78, 38
2, 134280, Note_on_c, 0, 78, 0
2, 134280, Note_on_c, 0, 67, 23
2, 134340, Note_on_c, 0, 71, 23
2, 134400, Note_on_c, 0, 67, 0
2, 134400, Note_on_c, 0, 71, 0
2, 134400, Note_on_c, 0, 78, 37
2, 134640, Note_on_c, 0, 78, 0
2, 134640, Note_on_c, 0, 76, 39
2, 135120, Note_on_c, 0, 76, 0
2, 135120, Note_on_c, 0, 74, 36
2, 135240, Note_on_c, 0, 74, 0
2, 135240, Note_on_c, 0, 67, 23
2, 135300, Note_on_c, 0, 71, 23
2, 135360, Note_on_c, 0, 67, 0
2, 135360, Note_on_c, 0, 71, 0
2, 135360, Note_on_c, 0, 76, 38
2, 136320, Note_on_c, 0, 76, 0
2, 136320, Note_on_c, 0, 67, 0
2, 136320, Note_on_c, 0, 71, 0
2, 136320, Note_on_c, 0, 68, 27
2, 136320, Note_on_c, 0, 76, 39
2, 136560, Note_on_c, 0, 76, 0
2, 136560, Note_on_c, 0, 75, 45
2, 137040, Note_on_c, 0, 75, 0
2, 137040, Note_on_c, 0, 74, 39
2, 137280, Note_on_c, 0, 74, 0
2, 137280, Note_on_c, 0, 68, 0
2, 137280, Note_on_c, 0, 69, 35
2, 137280, Note_on_c, 0, 73, 47
2, 137520, Note_on_c, 0, 69, 0
2, 137520, Note_on_c, 0, 68, 37
2, 137760, Note_on_c, 0, 73, 0
2, 137760, Note_on_c, 0, 72, 40
2, 138000, Note_on_c, 0, 68, 0
2, 138000, Note_on_c, 0, 67, 31
2, 138240, Note_on_c, 0, 67, 0
2, 138240, Note_on_c, 0, 72, 0
2, 138240, Note_on_c, 0, 66, 29
2, 138240, Note_on_c, 0, 71, 36
2, 138480, Note_on_c, 0, 71, 0
2, 138480, Note_on_c, 0, 69, 39
2, 138960, Note_on_c, 0, 69, 0
2, 138960, Note_on_c, 0, 66, 39
2, 139200, Note_on_c, 0, 66, 0
2, 139200, Note_on_c, 0, 66, 0
2, 139200, Note_on_c, 0, 62, 28
2, 140160, Note_on_c, 0, 62, 0
2, 140160, Control_c, 0, 91, 127
2, 140160, Note_on_c, 0, 71, 35
2, 140160, Note_on_c, 0, 59, 26
2, 140160, Note_on_c, 0, 62, 26
2, 140400, Note_on_c, 0, 71, 0
2, 140400, Note_on_c, 0, 69, 36
2, 140880, Note_on_c, 0, 69, 0
2, 140880, Note_on_c, 0, 67, 34
2, 141120, Note_on_c, 0, 67, 0
2, 141120, Note_on_c, 0, 62, 0
2, 141120, Note_on_c, 0, 59, 0
2, 141120, Note_on_c, 0, 59, 26
2, 141120, Note_on_c, 0, 62, 26
2, 141120, Note_on_c, 0, 66, 36
2, 142080, Note_on_c, 0, 66, 0
2, 142080, Note_on_c, 0, 62, 0
2, 142080, Note_on_c, 0, 59, 0
2, 142080, Note_on_c, 0, 69, 36
2, 142080, Note_on_c, 0, 57, 26
2, 142080, Note_on_c, 0, 60, 26
2, 142320, Note_on_c, 0, 69, 0
2, 142320, Note_on_c, 0, 67, 38
2, 142800, Note_on_c, 0, 67, 0
2, 142800, Note_on_c, 0, 66, 35
2, 143040, Note_on_c, 0, 66, 0
2, 143040, Note_on_c, 0, 60, 0
2, 143040, Note_on_c, 0, 57, 0
2, 143040, Note_on_c, 0, 57, 26
2, 143040, Note_on_c, 0, 60, 26
2, 143040, Note_on_c, 0, 64, 36
2, 144000, Note_on_c, 0, 64, 0
2, 144000, Note_on_c, 0, 60, 0
2, 144000, Note_on_c, 0, 57, 0
2, 144000, Note_on_c, 0, 67, 37
2, 144000, Note_on_c, 0, 55, 27
2, 144000, Note_on_c, 0, 59, 27
2, 144240, Note_on_c, 0, 67, 0
2, 144240, Note_on_c, 0, 66, 38
2, 144720, Note_on_c, 0, 66, 0
2, 144720, Note_on_c, 0, 64, 35
2, 144960, Note_on_c, 0, 64, 0
2, 144960, Note_on_c, 0, 59, 0
2, 144960, Note_on_c, 0, 55, 0
2, 144960, Note_on_c, 0, 55, 27
2, 144960, Note_on_c, 0, 62, 27
2, 144960, Note_on_c, 0, 67, 27
2, 145920, Note_on_c, 0, 67, 0
2, 145920, Note_on_c, 0, 62, 0
2, 145920, Note_on_c, 0, 55, 0
2, 145920, Note_on_c, 0, 66, 37
2, 145920, Note_on_c, 0, 55, 36
2, 145920, Note_on_c, 0, 61, 36
2, 146160, Note_on_c, 0, 66, 0
2, 146160, Note_on_c, 0, 64, 38
2, 146640, Note_on_c, 0, 64, 0
2, 146640, Note_on_c, 0, 66, 35
2, 146880, Note_on_c, 0, 66, 0
2, 146880, Note_on_c, 0, 61, 0
2, 146880, Note_on_c, 0, 55, 0
2, 146880, Note_on_c, 0, 54, 36
2, 146880, Note_on_c, 0, 62, 36
2, 147840, Note_on_c, 0, 62, 0
2, 147840, Note_on_c, 0, 54, 0
2, 147840, Control_c, 0, 91, 127
2, 147840, Note_on_c, 0, 64, 35
2, 147840, Note_on_c, 0, 71, 35
2, 147840, Note_on_c, 0, 76, 47
2, 148080, Note_on_c, 0, 76, 0
2, 148080, Note_on_c, 0, 74, 46
2, 148560, Note_on_c, 0, 74, 0
2, 148560, Note_on_c, 0, 72, 36
2, 148800, Note_on_c, 0, 72, 0
2, 148800, Note_on_c, 0, 71, 0
2, 148800, Note_on_c, 0, 64, 0
2, 148800, Note_on_c, 0, 64, 35
2, 148800, Note_on_c, 0, 67, 35
2, 148800, Note_on_c, 0, 71, 38
2, 149760, Note_on_c, 0, 71, 0
2, 149760, Note_on_c, 0, 67, 0
2, 149760, Note_on_c, 0, 64, 0
2, 149760, Note_on_c, 0, 62, 29
2, 149760, Note_on_c, 0, 69, 29
2, 149760, Note_on_c, 0, 74, 42
2, 150000, Note_on_c, 0, 74, 0
2, 150000, Note_on_c, 0, 72, 46
2, 150480, Note_on_c, 0, 72, 0
2, 150480, Note_on_c, 0, 71, 36
2, 150720, Note_on_c, 0, 71, 0
2, 150720, Note_on_c, 0, 69, 0
2, 150720, Note_on_c, 0, 62, 0
2, 150720, Note_on_c, 0, 62, 31
2, 150720, Note_on_c, 0, 66, 31
2, 150720, Note_on_c, 0, 69, 38
2, 151680, Note_on_c, 0, 69, 0
2, 151680, Note_on_c, 0, 66, 0
2, 151680, Note_on_c, 0, 62, 0
2, 151680, Note_on_c, 0, 60, 29
2, 151680, Note_on_c, 0, 67, 29
2, 151680, Note_on_c, 0, 72, 44
2, 151920, Note_on_c, 0, 72, 0
2, 151920, Note_on_c, 0, 71, 46
2, 152400, Note_on_c, 0, 71, 0
2, 152400, Note_on_c, 0, 69, 39
2, 152640, Note_on_c, 0, 69, 0
2, 152640, Note_on_c, 0, 67, 0
2, 152640, Note_on_c, 0, 60, 0
2, 152640, Note_on_c, 0, 78, 51
2, 152640, Note_on_c, 0, 67, 28
2, 152640, Note_on_c, 0, 72, 28
2, 153240, Note_on_c, 0, 78, 0
2, 153240, Note_on_c, 0, 81, 46
2, 153360, Note_on_c, 0, 81, 0
2, 153360, Note_on_c, 0, 79, 36
2, 153440, Note_on_c, 0, 79, 0
2, 153440, Note_on_c, 0, 76, 36
2, 153520, Note_on_c, 0, 76, 0
2, 153520, Note_on_c, 0, 72, 36
2, 153600, Note_on_c, 0, 72, 0
2, 153600, Note_on_c, 0, 72, 0
2, 153600, Note_on_c, 0, 67, 0
2, 153600, Note_on_c, 0, 60, 30
2, 153600, Note_on_c, 0, 66, 30
2, 153600, Note_on_c, 0, 71, 38
2, 153840, Note_on_c, 0, 71, 0
2, 153840, Note_on_c, 0, 69, 40
2, 154320, Note_on_c, 0, 69, 0
2, 154320, Note_on_c, 0, 71, 34
2, 154560, Note_on_c, 0, 71, 0
2, 154560, Note_on_c, 0, 66, 0
2, 154560, Note_on_c, 0, 60, 0
2, 154560, Note_on_c, 0, 60, 35
2, 154560, Note_on_c, 0, 67, 26
2, 154800, Note_on_c, 0, 60, 0
2, 154800, Note_on_c, 0, 59, 30
2, 155280, Note_on_c, 0, 59, 0
2, 155400, Note_on_c, 0, 71, 27
2, 155460, Note_on_c, 0, 75, 27
2, 155520, Note_on_c, 0, 67, 0
2, 155520, Control_c, 0, 91, 127
2, 155520, Note_on_c, 0, 83, 42
2, 155760, Note_on_c, 0, 83, 0
2, 155760, Note_on_c, 0, 82, 45
2, 156240, Note_on_c, 0, 82, 0
2, 156240, Note_on_c, 0, 80, 40
2, 156360, Note_on_c, 0, 80, 0
2, 156360, Note_on_c, 0, 71, 27
2, 156420, Note_on_c, 0, 75, 27
2, 156480, Note_on_c, 0, 75, 0
2, 156480, Note_on_c, 0, 71, 0
2, 156480, Note_on_c, 0, 82, 42
2, 157320, Note_on_c, 0, 82, 0
2, 157320, Note_on_c, 0, 71, 27
2, 157380, Note_on_c, 0, 75, 27
2, 157440, Note_on_c, 0, 71, 0
2, 157440, Note_on_c, 0, 75, 0
2, 157440, Note_on_c, 0, 82, 42
2, 157680, Note_on_c, 0, 82, 0
2, 157680, Note_on_c, 0, 80, 45
2, 158160, Note_on_c, 0, 80, 0
2, 158160, Note_on_c, 0, 78, 40
2, 158280, Note_on_c, 0, 78, 0
2, 158280, Note_on_c, 0, 71, 27
2, 158340, Note_on_c, 0, 75, 27
2, 158400, Note_on_c, 0, 71, 0
2, 158400, Note_on_c, 0, 75, 0
2, 158400, Note_on_c, 0, 80, 42
2, 159360, Note_on_c, 0, 80, 0
2, 159360, Note_on_c, 0, 71, 0
2, 159360, Note_on_c, 0, 75, 0
2, 159360, Note_on_c, 0, 72, 29
2, 159360, Note_on_c, 0, 80, 42
2, 159600, Note_on_c, 0, 80, 0
2, 159600, Note_on_c, 0, 79, 47
2, 160080, Note_on_c, 0, 79, 0
2, 160080, Note_on_c, 0, 78, 42
2, 160320, Note_on_c, 0, 78, 0
2, 160320, Note_on_c, 0, 72, 0
2, 160320, Note_on_c, 0, 73, 37
2, 160320, Note_on_c, 0, 77, 50
2, 160560, Note_on_c, 0, 73, 0
2, 160560, Note_on_c, 0, 72, 39
2, 160800, Note_on_c, 0, 77, 0
2, 160800, Note_on_c, 0, 76, 44
2, 161040, Note_on_c, 0, 72, 0
2, 161040, Note_on_c, 0, 71, 35
2, 161280, Note_on_c, 0, 71, 0
2, 161280, Note_on_c, 0, 76, 0
2, 161280, Note_on_c, 0, 70, 31
2, 161280, Note_on_c, 0, 75, 38
2, 161520, Note_on_c, 0, 75, 0
2, 161520, Note_on_c, 0, 73, 42
2, 162000, Note_on_c, 0, 73, 0
2, 162000, Note_on_c, 0, 75, 42
2, 162240, Note_on_c, 0, 75, 0
2, 162240, Note_on_c, 0, 70, 0
2, 162240, Note_on_c, 0, 66, 30
2, 162240, Note_on_c, 0, 71, 30
2, 162900, Note_on_c, 0, 71, 0
2, 162900, Note_on_c, 0, 66, 0
2, 163080, Note_on_c, 0, 67, 23
2, 163140, Note_on_c, 0, 71, 23
2, 163200, Control_c, 0, 91, 127
2, 163200, Note_on_c, 0, 79, 37
2, 163440, Note_on_c, 0, 79, 0
2, 163440, Note_on_c, 0, 78, 39
2, 163920, Note_on_c, 0, 78, 0
2, 163920, Note_on_c, 0, 76, 36
2, 164040, Note_on_c, 0, 76, 0
2, 164040, Note_on_c, 0, 67, 23
2, 164100, Note_on_c, 0, 71, 23
2, 164160, Note_on_c, 0, 71, 0
2, 164160, Note_on_c, 0, 67, 0
2, 164160, Note_on_c, 0, 78, 38
2, 165000, Note_on_c, 0, 78, 0
2, 165000, Note_on_c, 0, 67, 23
2, 165060, Note_on_c, 0, 71, 23
2, 165120, Note_on_c, 0, 67, 0
2, 165120, Note_on_c, 0, 71, 0
2, 165120, Note_on_c, 0, 78, 37
2, 165360, Note_on_c, 0, 78, 0
2, 165360, Note_on_c, 0, 76, 39
2, 165840, Note_on_c, 0, 76, 0
2, 165840, Note_on_c, 0, 74, 36
2, 165960, Note_on_c, 0, 74, 0
2, 165960, Note_on_c, 0, 67, 23
2, 166020, Note_on_c, 0, 71, 23
2, 166080, Note_on_c, 0, 67, 0
2, 166080, Note_on_c, 0, 71, 0
2, 166080, Note_on_c, 0, 76, 38
2, 167040, Note_on_c, 0, 76, 0
2, 167040, Note_on_c, 0, 67, 0
2, 167040, Note_on_c, 0, 71, 0
2, 167040, Note_on_c, 0, 68, 27
2, 167040, Note_on_c, 0, 76, 39
2, 167280, Note_on_c, 0, 76, 0
2, 167280, Note_on_c, 0, 75, 45
2, 167760, Note_on_c, 0, 75, 0
2, 167760, Note_on_c, 0, 74, 39
2, 168000, Note_on_c, 0, 74, 0
2, 168000, Note_on_c, 0, 68, 0
2, 168000, Note_on_c, 0, 69, 35
2, 168000, Note_on_c, 0, 73, 47
2, 168240, Note_on_c, 0, 69, 0
2, 168240, Note_on_c, 0, 68, 37
2, 168480, Note_on_c, 0, 73, 0
2, 168480, Note_on_c, 0, 72, 40
2, 168720, Note_on_c, 0, 68, 0
2, 168720, Note_on_c, 0, 67, 31
2, 168960, Note_on_c, 0, 67, 0
2, 168960, Note_on_c, 0, 72, 0
2, 168960, Note_on_c, 0, 66, 29
2, 168960, Note_on_c, 0, 71, 36
2, 169200, Note_on_c, 0, 71, 0
2, 169200, Note_on_c, 0, 69, 39
2, 169680, Note_on_c, 0, 69, 0
2, 169680, Note_on_c, 0, 66, 39
2, 169920, Note_on_c, 0, 66, 0
2, 169920, Note_on_c, 0, 66, 0
2, 169920, Note_on_c, 0, 62, 28
2, 170880, Note_on_c, 0, 62, 0
2, 170880, Control_c, 0, 91, 127
2, 170880, Note_on_c, 0, 71, 35
2, 170880, Note_on_c, 0, 59, 26
2, 170880, Note_on_c, 0, 62, 26
2, 171120, Note_on_c, 0, 71, 0
2, 171120, Note_on_c, 0, 69, 36
2, 171600, Note_on_c, 0, 69, 0
2, 171600, Note_on_c, 0, 67, 34
2, 171840, Note_on_c, 0, 67, 0
2, 171840, Note_on_c, 0, 62, 0
2, 171840, Note_on_c, 0, 59, 0
2, 171840, Note_on_c, 0, 59, 26
2, 171840, Note_on_c, 0, 62, 26
2, 171840, Note_on_c, 0, 66, 36
2, 172800, Note_on_c, 0, 66, 0
2, 172800, Note_on_c, 0, 62, 0
2, 172800, Note_on_c, 0, 59, 0
2, 172800, Note_on_c, 0, 69, 36
2, 172800, Note_on_c, 0, 57, 26
2, 172800, Note_on_c, 0, 60, 26
2, 173040, Note_on_c, 0, 69, 0
2, 173040, Note_on_c, 0, 67, 38
2, 173520, Note_on_c, 0, 67, 0
2, 173520, Note_on_c, 0, 66, 35
2, 173760, Note_on_c, 0, 66, 0
2, 173760, Note_on_c, 0, 60, 0
2, 173760, Note_on_c, 0, 57, 0
2, 173760, Note_on_c, 0, 57, 26
2, 173760, Note_on_c, 0, 60, 26
2, 173760, Note_on_c, 0, 64, 37
2, 174720, Note_on_c, 0, 64, 0
2, 174720, Note_on_c, 0, 60, 0
2, 174720, Note_on_c, 0, 57, 0
2, 174720, Note_on_c, 0, 67, 37
2, 174720, Note_on_c, 0, 55, 27
2, 174720, Note_on_c, 0, 59, 27
2, 174960, Note_on_c, 0, 67, 0
2, 174960, Note_on_c, 0, 66, 38
2, 175440, Note_on_c, 0, 66, 0
2, 175440, Note_on_c, 0, 64, 35
2, 175680, Note_on_c, 0, 64, 0
2, 175680, Note_on_c, 0, 59, 0
2, 175680, Note_on_c, 0, 55, 0
2, 175680, Note_on_c, 0, 55, 27
2, 175680, Note_on_c, 0, 62, 27
2, 175680, Note_on_c, 0, 67, 27
2, 176640, Note_on_c, 0, 67, 0
2, 176640, Note_on_c, 0, 62, 0
2, 176640, Note_on_c, 0, 55, 0
2, 176640, Note_on_c, 0, 66, 37
2, 176640, Note_on_c, 0, 55, 36
2, 176640, Note_on_c, 0, 61, 36
2, 176880, Note_on_c, 0, 66, 0
2, 176880, Note_on_c, 0, 64, 38
2, 177360, Note_on_c, 0, 64, 0
2, 177360, Note_on_c, 0, 66, 35
2, 177600, Note_on_c, 0, 66, 0
2, 177600, Note_on_c, 0, 61, 0
2, 177600, Note_on_c, 0, 55, 0
2, 177600, Note_on_c, 0, 54, 36
2, 177600, Note_on_c, 0, 62, 36
2, 178560, Note_on_c, 0, 62, 0
2, 178560, Note_on_c, 0, 54, 0
2, 178560, Control_c, 0, 91, 127
2, 178560, Note_on_c, 0, 64, 35
2, 178560, Note_on_c, 0, 71, 35
2, 178560, Note_on_c, 0, 76, 47
2, 178800, Note_on_c, 0, 76, 0
2, 178800, Note_on_c, 0, 74, 46
2, 179280, Note_on_c, 0, 74, 0
2, 179280, Note_on_c, 0, 72, 36
2, 179520, Note_on_c, 0, 72, 0
2, 179520, Note_on_c, 0, 71, 0
2, 179520, Note_on_c, 0, 64, 0
2, 179520, Note_on_c, 0, 64, 35
2, 179520, Note_on_c, 0, 67, 35
2, 179520, Note_on_c, 0, 71, 38
2, 180480, Note_on_c, 0, 71, 0
2, 180480, Note_on_c, 0, 67, 0
2, 180480, Note_on_c, 0, 64, 0
2, 180480, Note_on_c, 0, 62, 29
2, 180480, Note_on_c, 0, 69, 29
2, 180480, Note_on_c, 0, 74, 42
2, 180720, Note_on_c, 0, 74, 0
2, 180720, Note_on_c, 0, 72, 46
2, 181200, Note_on_c, 0, 72, 0
2, 181200, Note_on_c, 0, 71, 36
2, 181440, Note_on_c, 0, 71, 0
2, 181440, Note_on_c, 0, 69, 0
2, 181440, Note_on_c, 0, 62, 0
2, 181440, Note_on_c, 0, 62, 31
2, 181440, Note_on_c, 0, 66, 31
2, 181440, Note_on_c, 0, 69, 38
2, 182400, Note_on_c, 0, 69, 0
2, 182400, Note_on_c, 0, 66, 0
2, 182400, Note_on_c, 0, 62, 0
2, 182400, Note_on_c, 0, 60, 29
2, 182400, Note_on_c, 0, 67, 29
2, 182400, Note_on_c, 0, 72, 44
2, 182640, Note_on_c, 0, 72, 0
2, 182640, Note_on_c, 0, 71, 46
2, 183120, Note_on_c, 0, 71, 0
2, 183120, Note_on_c, 0, 69, 39
2, 183360, Note_on_c, 0, 69, 0
2, 183360, Note_on_c, 0, 67, 0
2, 183360, Note_on_c, 0, 60, 0
2, 183360, Note_on_c, 0, 78, 51
2, 183360, Note_on_c, 0, 67, 28
2, 183360, Note_on_c, 0, 72, 28
2, 183960, Note_on_c, 0, 78, 0
2, 183960, Note_on_c, 0, 81, 46
2, 184080, Note_on_c, 0, 81, 0
2, 184080, Note_on_c, 0, 79, 36
2, 184160, Note_on_c, 0, 79, 0
2, 184160, Note_on_c, 0, 76, 36
2, 184240, Note_on_c, 0, 76, 0
2, 184240, Note_on_c, 0, 72, 36
2, 184320, Note_on_c, 0, 72, 0
2, 184320, Note_on_c, 0, 72, 0
2, 184320, Note_on_c, 0, 67, 0
2, 184320, Note_on_c, 0, 60, 30
2, 184320, Note_on_c, 0, 66, 30
2, 184320, Note_on_c, 0, 71, 38
2, 184560, Note_on_c, 0, 71, 0
2, 184560, Note_on_c, 0, 69, 40
2, 185040, Note_on_c, 0, 69, 0
2, 185040, Note_on_c, 0, 71, 34
2, 185280, Note_on_c, 0, 71, 0
2, 185280, Note_on_c, 0, 66, 0
2, 185280, Note_on_c, 0, 60, 0
2, 185280, Note_on_c, 0, 60, 35
2, 185280, Note_on_c, 0, 67, 26
2, 185520, Note_on_c, 0, 60, 0
2, 185520, Note_on_c, 0, 59, 30
2, 186000, Note_on_c, 0, 59, 0
2, 186240, Note_on_c, 0, 67, 0
2, 186240, Control_c, 0, 91, 127
2, 186720, Note_on_c, 0, 50, 31
2, 186720, Note_on_c, 0, 57, 31
2, 186960, Note_on_c, 0, 57, 0
2, 186960, Note_on_c, 0, 50, 0
2, 186960, Note_on_c, 0, 50, 31
2, 186960, Note_on_c, 0, 57, 31
2, 187200, Note_on_c, 0, 57, 0
2, 187200, Note_on_c, 0, 50, 0
2, 187200, Note_on_c, 0, 50, 36
2, 187200, Note_on_c, 0, 57, 36
2, 187440, Note_on_c, 0, 57, 0
2, 187440, Note_on_c, 0, 50, 0
2, 188640, Note_on_c, 0, 50, 31
2, 188640, Note_on_c, 0, 57, 31
2, 188880, Note_on_c, 0, 57, 0
2, 188880, Note_on_c, 0, 50, 0
2, 188880, Note_on_c, 0, 50, 31
2, 188880, Note_on_c, 0, 57, 31
2, 189120, Note_on_c, 0, 57, 0
2, 189120, Note_on_c, 0, 50, 0
2, 189120, Note_on_c, 0, 50, 35
2, 189120, Note_on_c, 0, 57, 35
2, 189360, Note_on_c, 0, 57, 0
2, 189360, Note_on_c, 0, 50, 0
2, 189840, Note_on_c, 0, 69, 39
2, 189920, Note_on_c, 0, 69, 0
2, 189920, Note_on_c, 0, 71, 39
2, 190000, Note_on_c, 0, 71, 0
2, 190000, Note_on_c, 0, 69, 41
2, 190080, Note_on_c, 0, 69, 0
2, 190080, Note_on_c, 0, 66, 44
2, 190320, Note_on_c, 0, 69, 44
2, 190560, Note_on_c, 0, 69, 0
2, 190560, Note_on_c, 0, 66, 0
2, 190560, Note_on_c, 0, 74, 45
2, 190560, Note_on_c, 0, 66, 42
2, 190620, Note_on_c, 0, 66, 0
2, 190620, Note_on_c, 0, 74, 0
2, 190800, Note_on_c, 0, 78, 42
2, 190800, Note_on_c, 0, 66, 45
2, 190860, Note_on_c, 0, 66, 0
2, 190860, Note_on_c, 0, 78, 0
2, 191040, Note_on_c, 0, 76, 45
2, 191040, Note_on_c, 0, 66, 37
2, 191280, Note_on_c, 0, 76, 0
2, 191280, Note_on_c, 0, 74, 42
2, 191520, Note_on_c, 0, 74, 0
2, 191520, Note_on_c, 0, 66, 0
2, 191520, Note_on_c, 0, 66, 42
2, 191580, Note_on_c, 0, 66, 0
2, 191760, Note_on_c, 0, 69, 41
2, 191760, Note_on_c, 0, 66, 41
2, 191820, Note_on_c, 0, 66, 0
2, 191820, Note_on_c, 0, 69, 0
2, 192000, Note_on_c, 0, 71, 45
2, 192000, Note_on_c, 0, 69, 45
2, 192000, Note_on_c, 0, 66, 45
2, 192240, Note_on_c, 0, 66, 0
2, 192240, Note_on_c, 0, 69, 0
2, 192240, Note_on_c, 0, 71, 0
2, 192480, Note_on_c, 0, 71, 41
2, 192480, Note_on_c, 0, 69, 41
2, 192480, Note_on_c, 0, 66, 41
2, 192720, Note_on_c, 0, 66, 0
2, 192720, Note_on_c, 0, 69, 0
2, 192720, Note_on_c, 0, 71, 0
2, 192840, Note_on_c, 0, 71, 41
2, 192840, Note_on_c, 0, 69, 41
2, 192840, Note_on_c, 0, 66, 41
2, 192960, Note_on_c, 0, 66, 0
2, 192960, Note_on_c, 0, 69, 0
2, 192960, Note_on_c, 0, 71, 0
2, 192960, Note_on_c, 0, 71, 41
2, 192960, Note_on_c, 0, 69, 41
2, 192960, Note_on_c, 0, 66, 41
2, 193440, Note_on_c, 0, 66, 0
2, 193440, Note_on_c, 0, 69, 0
2, 193440, Note_on_c, 0, 71, 0
2, 193440, Note_on_c, 0, 62, 42
2, 193440, Note_on_c, 0, 66, 42
2, 193500, Note_on_c, 0, 66, 0
2, 193500, Note_on_c, 0, 62, 0
2, 193680, Note_on_c, 0, 62, 42
2, 193680, Note_on_c, 0, 68, 42
2, 193680, Note_on_c, 0, 66, 42
2, 193740, Note_on_c, 0, 66, 0
2, 193740, Note_on_c, 0, 68, 0
2, 193740, Note_on_c, 0, 62, 0
2, 193920, Note_on_c, 0, 62, 45
2, 193920, Note_on_c, 0, 66, 45
2, 193920, Note_on_c, 0, 69, 45
2, 194160, Note_on_c, 0, 69, 0
2, 194160, Note_on_c, 0, 71, 42
2, 194400, Note_on_c, 0, 71, 0
2, 194400, Note_on_c, 0, 66, 0
2, 194400, Note_on_c, 0, 62, 0
2, 194400, Note_on_c, 0, 66, 44
2, 194400, Note_on_c, 0, 62, 44
2, 194460, Note_on_c, 0, 62, 0
2, 194460, Note_on_c, 0, 66, 0
2, 194640, Note_on_c, 0, 68, 44
2, 194640, Note_on_c, 0, 66, 44
2, 194640, Note_on_c, 0, 62, 44
2, 194700, Note_on_c, 0, 62, 0
2, 194700, Note_on_c, 0, 66, 0
2, 194700, Note_on_c, 0, 68, 0
2, 194880, Note_on_c, 0, 69, 45
2, 194880, Note_on_c, 0, 62, 45
2, 194880, Note_on_c, 0, 66, 45
2, 195120, Note_on_c, 0, 69, 0
2, 195120, Note_on_c, 0, 71, 42
2, 195360, Note_on_c, 0, 71, 0
2, 195360, Note_on_c, 0, 66, 0
2, 195360, Note_on_c, 0, 62, 0
2, 195360, Note_on_c, 0, 62, 44
2, 195360, Note_on_c, 0, 66, 44
2, 195420, Note_on_c, 0, 66, 0
2, 195420, Note_on_c, 0, 62, 0
2, 195600, Note_on_c, 0, 68, 44
2, 195600, Note_on_c, 0, 62, 44
2, 195600, Note_on_c, 0, 66, 44
2, 195660, Note_on_c, 0, 66, 0
2, 195660, Note_on_c, 0, 62, 0
2, 195660, Note_on_c, 0, 68, 0
2, 195840, Note_on_c, 0, 62, 47
2, 195840, Note_on_c, 0, 64, 47
2, 195840, Note_on_c, 0, 69, 47
2, 196080, Note_on_c, 0, 69, 0
2, 196080, Note_on_c, 0, 64, 0
2, 196080, Note_on_c, 0, 62, 0
2, 196320, Note_on_c, 0, 61, 42
2, 196320, Note_on_c, 0, 69, 42
2, 196560, Note_on_c, 0, 69, 0
2, 196560, Note_on_c, 0, 61, 0
2, 196680, Note_on_c, 0, 61, 42
2, 196680, Note_on_c, 0, 69, 42
2, 196800, Note_on_c, 0, 69, 0
2, 196800, Note_on_c, 0, 61, 0
2, 196800, Note_on_c, 0, 61, 42
2, 196800, Note_on_c, 0, 69, 42
2, 197040, Note_on_c, 0, 69, 0
2, 197040, Note_on_c, 0, 61, 0
2, 197520, Note_on_c, 0, 73, 44
2, 197600, Note_on_c, 0, 73, 0
2, 197600, Note_on_c, 0, 74, 44
2, 197680, Note_on_c, 0, 74, 0
2, 197680, Note_on_c, 0, 73, 44
2, 197760, Note_on_c, 0, 73, 0
2, 197760, Note_on_c, 0, 71, 47
2, 198000, Note_on_c, 0, 74, 47
2, 198240, Note_on_c, 0, 74, 0
2, 198240, Note_on_c, 0, 71, 0
2, 198240, Note_on_c, 0, 79, 49
2, 198240, Note_on_c, 0, 71, 49
2, 198300, Note_on_c, 0, 71, 0
2, 198300, Note_on_c, 0, 79, 0
2, 198480, Note_on_c, 0, 83, 45
2, 198480, Note_on_c, 0, 71, 45
2, 198540, Note_on_c, 0, 71, 0
2, 198540, Note_on_c, 0, 83, 0
2, 198720, Note_on_c, 0, 81, 48
2, 198720, Note_on_c, 0, 71, 41
2, 198960, Note_on_c, 0, 81, 0
2, 198960, Note_on_c, 0, 79, 42
2, 199200, Note_on_c, 0, 79, 0
2, 199200, Note_on_c, 0, 71, 0
2, 199200, Note_on_c, 0, 71, 42
2, 199200, Note_on_c, 0, 67, 42
2, 199260, Note_on_c, 0, 67, 0
2, 199260, Note_on_c, 0, 71, 0
2, 199440, Note_on_c, 0, 71, 42
2, 199440, Note_on_c, 0, 74, 42
2, 199440, Note_on_c, 0, 67, 42
2, 199500, Note_on_c, 0, 67, 0
2, 199500, Note_on_c, 0, 74, 0
2, 199500, Note_on_c, 0, 71, 0
2, 199680, Note_on_c, 0, 78, 46
2, 199680, Note_on_c, 0, 74, 46
2, 199680, Note_on_c, 0, 71, 46
2, 199680, Note_on_c, 0, 67, 46
2, 199920, Note_on_c, 0, 67, 0
2, 199920, Note_on_c, 0, 78, 0
2, 199920, Note_on_c, 0, 74, 0
2, 199920, Note_on_c, 0, 71, 0
2, 200160, Note_on_c, 0, 78, 42
2, 200160, Note_on_c, 0, 74, 42
2, 200160, Note_on_c, 0, 71, 42
2, 200160, Note_on_c, 0, 67, 42
2, 200400, Note_on_c, 0, 67, 0
2, 200400, Note_on_c, 0, 78, 0
2, 200400, Note_on_c, 0, 74, 0
2, 200400, Note_on_c, 0, 71, 0
2, 200520, Note_on_c, 0, 78, 42
2, 200520, Note_on_c, 0, 74, 42
2, 200520, Note_on_c, 0, 71, 42
2, 200520, Note_on_c, 0, 67, 42
2, 200640, Note_on_c, 0, 67, 0
2, 200640, Note_on_c, 0, 78, 0
2, 200640, Note_on_c, 0, 74, 0
2, 200640, Note_on_c, 0, 71, 0
2, 200640, Note_on_c, 0, 78, 42
2, 200640, Note_on_c, 0, 74, 42
2, 200640, Note_on_c, 0, 71, 42
2, 200640, Note_on_c, 0, 67, 42
2, 201120, Note_on_c, 0, 67, 0
2, 201120, Note_on_c, 0, 78, 0
2, 201120, Note_on_c, 0, 74, 0
2, 201120, Note_on_c, 0, 71, 0
2, 201120, Note_on_c, 0, 71, 42
2, 201120, Note_on_c, 0, 67, 42
2, 201180, Note_on_c, 0, 67, 0
2, 201180, Note_on_c, 0, 71, 0
2, 201360, Note_on_c, 0, 73, 42
2, 201360, Note_on_c, 0, 71, 42
2, 201360, Note_on_c, 0, 67, 42
2, 201420, Note_on_c, 0, 67, 0
2, 201420, Note_on_c, 0, 71, 0
2, 201420, Note_on_c, 0, 73, 0
2, 201600, Note_on_c, 0, 74, 46
2, 201600, Note_on_c, 0, 67, 46
2, 201600, Note_on_c, 0, 71, 46
2, 201840, Note_on_c, 0, 74, 0
2, 201840, Note_on_c, 0, 76, 42
2, 202080, Note_on_c, 0, 76, 0
2, 202080, Note_on_c, 0, 71, 0
2, 202080, Note_on_c, 0, 67, 0
2, 202080, Note_on_c, 0, 71, 45
2, 202080, Note_on_c, 0, 67, 45
2, 202140, Note_on_c, 0, 67, 0
2, 202140, Note_on_c, 0, 71, 0
2, 202320, Note_on_c, 0, 73, 45
2, 202320, Note_on_c, 0, 71, 45
2, 202320, Note_on_c, 0, 67, 45
2, 202380, Note_on_c, 0, 67, 0
2, 202380, Note_on_c, 0, 71, 0
2, 202380, Note_on_c, 0, 73, 0
2, 202560, Note_on_c, 0, 74, 47
2, 202560, Note_on_c, 0, 71, 47
2, 202560, Note_on_c, 0, 67, 47
2, 202800, Note_on_c, 0, 74, 0
2, 202800, Note_on_c, 0, 76, 44
2, 203040, Note_on_c, 0, 76, 0
2, 203040, Note_on_c, 0, 67, 0
2, 203040, Note_on_c, 0, 71, 0
2, 203040, Note_on_c, 0, 71, 45
2, 203040, Note_on_c, 0, 67, 45
2, 203100, Note_on_c, 0, 67, 0
2, 203100, Note_on_c, 0, 71, 0
2, 203280, Note_on_c, 0, 73, 45
2, 203280, Note_on_c, 0, 71, 45
2, 203280, Note_on_c, 0, 67, 45
2, 203340, Note_on_c, 0, 67, 0
2, 203340, Note_on_c, 0, 71, 0
2, 203340, Note_on_c, 0, 73, 0
2, 203520, Note_on_c, 0, 74, 49
2, 203520, Note_on_c, 0, 69, 49
2, 203520, Note_on_c, 0, 67, 49
2, 203760, Note_on_c, 0, 67, 0
2, 203760, Note_on_c, 0, 69, 0
2, 203760, Note_on_c, 0, 74, 0
2, 204000, Note_on_c, 0, 74, 45
2, 204000, Note_on_c, 0, 66, 45
2, 204240, Note_on_c, 0, 66, 0
2, 204240, Note_on_c, 0, 74, 0
2, 204360, Note_on_c, 0, 74, 45
2, 204360, Note_on_c, 0, 66, 45
2, 204480, Note_on_c, 0, 66, 0
2, 204480, Note_on_c, 0, 74, 0
2, 204480, Note_on_c, 0, 74, 45
2, 204480, Note_on_c, 0, 66, 45
2, 204720, Note_on_c, 0, 66, 0
2, 204720, Note_on_c, 0, 74, 0
2, 205440, Control_c, 0, 91, 127
2, 205920, Note_on_c, 0, 62, 27
2, 205920, Note_on_c, 0, 69, 27
2, 206160, Note_on_c, 0, 69, 0
2, 206160, Note_on_c, 0, 62, 0
2, 206160, Note_on_c, 0, 62, 27
2, 206160, Note_on_c, 0, 69, 27
2, 206400, Note_on_c, 0, 69, 0
2, 206400, Note_on_c, 0, 62, 0
2, 206400, Note_on_c, 0, 62, 33
2, 206400, Note_on_c, 0, 69, 33
2, 206640, Note_on_c, 0, 69, 0
2, 206640, Note_on_c, 0, 62, 0
2, 207840, Note_on_c, 0, 62, 27
2, 207840, Note_on_c, 0, 69, 27
2, 208080, Note_on_c, 0, 69, 0
2, 208080, Note_on_c, 0, 62, 0
2, 208080, Note_on_c, 0, 62, 27
2, 208080, Note_on_c, 0, 69, 27
2, 208320, Note_on_c, 0, 69, 0
2, 208320, Note_on_c, 0, 62, 0
2, 208320, Note_on_c, 0, 62, 31
2, 208320, Note_on_c, 0, 69, 31
2, 208560, Note_on_c, 0, 69, 0
2, 208560, Note_on_c, 0, 62, 0
2, 209040, Note_on_c, 0, 81, 35
2, 209120, Note_on_c, 0, 81, 0
2, 209120, Note_on_c, 0, 83, 35
2, 209200, Note_on_c, 0, 83, 0
2, 209200, Note_on_c, 0, 81, 36
2, 209280, Note_on_c, 0, 81, 0
2, 209280, Note_on_c, 0, 78, 39
2, 209520, Note_on_c, 0, 81, 39
2, 209760, Note_on_c, 0, 81, 0
2, 209760, Note_on_c, 0, 78, 0
2, 209760, Note_on_c, 0, 86, 39
2, 209760, Note_on_c, 0, 78, 39
2, 209820, Note_on_c, 0, 78, 0
2, 209820, Note_on_c, 0, 86, 0
2, 210000, Note_on_c, 0, 90, 37
2, 210000, Note_on_c, 0, 78, 37
2, 210060, Note_on_c, 0, 78, 0
2, 210060, Note_on_c, 0, 90, 0
2, 210240, Note_on_c, 0, 88, 41
2, 210240, Note_on_c, 0, 78, 33
2, 210480, Note_on_c, 0, 88, 0
2, 210480, Note_on_c, 0, 86, 37
2, 210720, Note_on_c, 0, 86, 0
2, 210720, Note_on_c, 0, 78, 0
2, 210720, Note_on_c, 0, 78, 37
2, 210780, Note_on_c, 0, 78, 0
2, 210960, Note_on_c, 0, 81, 36
2, 210960, Note_on_c, 0, 78, 36
2, 211020, Note_on_c, 0, 78, 0
2, 211020, Note_on_c, 0, 81, 0
2, 211200, Note_on_c, 0, 83, 39
2, 211200, Note_on_c, 0, 81, 39
2, 211200, Note_on_c, 0, 78, 39
2, 211440, Note_on_c, 0, 78, 0
2, 211440, Note_on_c, 0, 81, 0
2, 211440, Note_on_c, 0, 83, 0
2, 211680, Note_on_c, 0, 83, 37
2, 211680, Note_on_c, 0, 81, 37
2, 211680, Note_on_c, 0, 78, 37
2, 211920, Note_on_c, 0, 78, 0
2, 211920, Note_on_c, 0, 81, 0
2, 211920, Note_on_c, 0, 83, 0
2, 212040, Note_on_c, 0, 83, 37
2, 212040, Note_on_c, 0, 81, 37
2, 212040, Note_on_c, 0, 78, 37
2, 212160, Note_on_c, 0, 78, 0
2, 212160, Note_on_c, 0, 81, 0
2, 212160, Note_on_c, 0, 83, 0
2, 212160, Note_on_c, 0, 83, 37
2, 212160, Note_on_c, 0, 81, 37
2, 212160, Note_on_c, 0, 78, 37
2, 212640, Note_on_c, 0, 78, 0
2, 212640, Note_on_c, 0, 81, 0
2, 212640, Note_on_c, 0, 83, 0
2, 212640, Note_on_c, 0, 74, 38
2, 212640, Note_on_c, 0, 78, 38
2, 212700, Note_on_c, 0, 78, 0
2, 212700, Note_on_c, 0, 74, 0
2, 212880, Note_on_c, 0, 74, 38
2, 212880, Note_on_c, 0, 80, 38
2, 212880, Note_on_c, 0, 78, 38
2, 212940, Note_on_c, 0, 78, 0
2, 212940, Note_on_c, 0, 80, 0
2, 212940, Note_on_c, 0, 74, 0
2, 213120, Note_on_c, 0, 74, 41
2, 213120, Note_on_c, 0, 78, 41
2, 213120, Note_on_c, 0, 81, 41
2, 213360, Note_on_c, 0, 81, 0
2, 213360, Note_on_c, 0, 83, 37
2, 213600, Note_on_c, 0, 83, 0
2, 213600, Note_on_c, 0, 78, 0
2, 213600, Note_on_c, 0, 74, 0
2, 213600, Note_on_c, 0, 78, 39
2, 213600, Note_on_c, 0, 74, 39
2, 213660, Note_on_c, 0, 74, 0
2, 213660, Note_on_c, 0, 78, 0
2, 213840, Note_on_c, 0, 80, 38
2, 213840, Note_on_c, 0, 78, 38
2, 213840, Note_on_c, 0, 74, 38
2, 213900, Note_on_c, 0, 74, 0
2, 213900, Note_on_c, 0, 78, 0
2, 213900, Note_on_c, 0, 80, 0
2, 214080, Note_on_c, 0, 81, 41
2, 214080, Note_on_c, 0, 74, 41
2, 214080, Note_on_c, 0, 78, 41
2, 214320, Note_on_c, 0, 81, 0
2, 214320, Note_on_c, 0, 83, 37
2, 214560, Note_on_c, 0, 83, 0
2, 214560, Note_on_c, 0, 78, 0
2, 214560, Note_on_c, 0, 74, 0
2, 214560, Note_on_c, 0, 74, 39
2, 214560, Note_on_c, 0, 78, 39
2, 214620, Note_on_c, 0, 78, 0
2, 214620, Note_on_c, 0, 74, 0
2, 214800, Note_on_c, 0, 80, 39
2, 214800, Note_on_c, 0, 74, 39
2, 214800, Note_on_c, 0, 78, 39
2, 214860, Note_on_c, 0, 78, 0
2, 214860, Note_on_c, 0, 74, 0
2, 214860, Note_on_c, 0, 80, 0
2, 215040, Note_on_c, 0, 74, 41
2, 215040, Note_on_c, 0, 76, 41
2, 215040, Note_on_c, 0, 81, 41
2, 215280, Note_on_c, 0, 81, 0
2, 215280, Note_on_c, 0, 76, 0
2, 215280, Note_on_c, 0, 74, 0
2, 215520, Note_on_c, 0, 73, 38
2, 215520, Note_on_c, 0, 81, 38
2, 215760, Note_on_c, 0, 81, 0
2, 215760, Note_on_c, 0, 73, 0
2, 215880, Note_on_c, 0, 73, 38
2, 215880, Note_on_c, 0, 81, 38
2, 216000, Note_on_c, 0, 81, 0
2, 216000, Note_on_c, 0, 73, 0
2, 216000, Note_on_c, 0, 73, 38
2, 216000, Note_on_c, 0, 81, 38
2, 216240, Note_on_c, 0, 81, 0
2, 216240, Note_on_c, 0, 73, 0
2, 216720, Note_on_c, 0, 85, 39
2, 216800, Note_on_c, 0, 85, 0
2, 216800, Note_on_c, 0, 86, 39
2, 216880, Note_on_c, 0, 86, 0
2, 216880, Note_on_c, 0, 85, 39
2, 216960, Note_on_c, 0, 85, 0
2, 216960, Note_on_c, 0, 83, 42
2, 217200, Note_on_c, 0, 86, 42
2, 217440, Note_on_c, 0, 86, 0
2, 217440, Note_on_c, 0, 83, 0
2, 217440, Note_on_c, 0, 91, 44
2, 217440, Note_on_c, 0, 83, 44
2, 217500, Note_on_c, 0, 83, 0
2, 217500, Note_on_c, 0, 91, 0
2, 217680, Note_on_c, 0, 95, 39
2, 217680, Note_on_c, 0, 83, 39
2, 217740, Note_on_c, 0, 83, 0
2, 217740, Note_on_c, 0, 95, 0
2, 217920, Note_on_c, 0, 93, 42
2, 217920, Note_on_c, 0, 83, 37
2, 218160, Note_on_c, 0, 93, 0
2, 218160, Note_on_c, 0, 91, 38
2, 218400, Note_on_c, 0, 91, 0
2, 218400, Note_on_c, 0, 83, 0
2, 218400, Note_on_c, 0, 83, 38
2, 218400, Note_on_c, 0, 79, 38
2, 218460, Note_on_c, 0, 79, 0
2, 218460, Note_on_c, 0, 83, 0
2, 218640, Note_on_c, 0, 83, 38
2, 218640, Note_on_c, 0, 86, 38
2, 218640, Note_on_c, 0, 79, 38
2, 218700, Note_on_c, 0, 79, 0
2, 218700, Note_on_c, 0, 86, 0
2, 218700, Note_on_c, 0, 83, 0
2, 218880, Note_on_c, 0, 90, 42
2, 218880, Note_on_c, 0, 86, 42
2, 218880, Note_on_c, 0, 83, 42
2, 218880, Note_on_c, 0, 79, 42
2, 219120, Note_on_c, 0, 79, 0
2, 219120, Note_on_c, 0, 90, 0
2, 219120, Note_on_c, 0, 86, 0
2, 219120, Note_on_c, 0, 83, 0
2, 219360, Note_on_c, 0, 90, 37
2, 219360, Note_on_c, 0, 86, 37
2, 219360, Note_on_c, 0, 83, 37
2, 219360, Note_on_c, 0, 79, 37
2, 219600, Note_on_c, 0, 79, 0
2, 219600, Note_on_c, 0, 90, 0
2, 219600, Note_on_c, 0, 86, 0
2, 219600, Note_on_c, 0, 83, 0
2, 219720, Note_on_c, 0, 90, 37
2, 219720, Note_on_c, 0, 86, 37
2, 219720, Note_on_c, 0, 83, 37
2, 219720, Note_on_c, 0, 79, 37
2, 219840, Note_on_c, 0, 79, 0
2, 219840, Note_on_c, 0, 90, 0
2, 219840, Note_on_c, 0, 86, 0
2, 219840, Note_on_c, 0, 83, 0
2, 219840, Note_on_c, 0, 90, 37
2, 219840, Note_on_c, 0, 86, 37
2, 219840, Note_on_c, 0, 83, 37
2, 219840, Note_on_c, 0, 79, 37
2, 220320, Note_on_c, 0, 79, 0
2, 220320, Note_on_c, 0, 90, 0
2, 220320, Note_on_c, 0, 86, 0
2, 220320, Note_on_c, 0, 83, 0
2, 220320, Note_on_c, 0, 83, 38
2, 220320, Note_on_c, 0, 79, 38
2, 220380, Note_on_c, 0, 79, 0
2, 220380, Note_on_c, 0, 83, 0
2, 220560, Note_on_c, 0, 85, 38
2, 220560, Note_on_c, 0, 83, 38
2, 220560, Note_on_c, 0, 79, 38
2, 220620, Note_on_c, 0, 79, 0
2, 220620, Note_on_c, 0, 83, 0
2, 220620, Note_on_c, 0, 85, 0
2, 220800, Note_on_c, 0, 86, 42
2, 220800, Note_on_c, 0, 79, 42
2, 220800, Note_on_c, 0, 83, 42
2, 221040, Note_on_c, 0, 86, 0
2, 221040, Note_on_c, 0, 88, 38
2, 221280, Note_on_c, 0, 88, 0
2, 221280, Note_on_c, 0, 83, 0
2, 221280, Note_on_c, 0, 79, 0
2, 221280, Note_on_c, 0, 83, 39
2, 221280, Note_on_c, 0, 79, 39
2, 221340, Note_on_c, 0, 79, 0
2, 221340, Note_on_c, 0, 83, 0
2, 221520, Note_on_c, 0, 85, 39
2, 221520, Note_on_c, 0, 83, 39
2, 221520, Note_on_c, 0, 79, 39
2, 221580, Note_on_c, 0, 79, 0
2, 221580, Note_on_c, 0, 83, 0
2, 221580, Note_on_c, 0, 85, 0
2, 221760, Note_on_c, 0, 86, 42
2, 221760, Note_on_c, 0, 83, 42
2, 221760, Note_on_c, 0, 79, 42
2, 222000, Note_on_c, 0, 86, 0
2, 222000, Note_on_c, 0, 88, 39
2, 222240, Note_on_c, 0, 88, 0
2, 222240, Note_on_c, 0, 79, 0
2, 222240, Note_on_c, 0, 83, 0
2, 222240, Note_on_c, 0, 83, 39
2, 222240, Note_on_c, 0, 79, 39
2, 222300, Note_on_c, 0, 79, 0
2, 222300, Note_on_c, 0, 83, 0
2, 222480, Note_on_c, 0, 85, 39
2, 222480, Note_on_c, 0, 83, 39
2, 222480, Note_on_c, 0, 79, 39
2, 222540, Note_on_c, 0, 79, 0
2, 222540, Note_on_c, 0, 83, 0
2, 222540, Note_on_c, 0, 85, 0
2, 222720, Note_on_c, 0, 86, 44
2, 222720, Note_on_c, 0, 81, 44
2, 222720, Note_on_c, 0, 79, 44
2, 222960, Note_on_c, 0, 79, 0
2, 222960, Note_on_c, 0, 81, 0
2, 222960, Note_on_c, 0, 86, 0
2, 223200, Note_on_c, 0, 86, 39
2, 223200, Note_on_c, 0, 78, 39
2, 223440, Note_on_c, 0, 78, 0
2, 223440, Note_on_c, 0, 86, 0
2, 223560, Note_on_c, 0, 86, 39
2, 223560, Note_on_c, 0, 78, 39
2, 223680, Note_on_c, 0, 78, 0
2, 223680, Note_on_c, 0, 86, 0
2, 223680, Note_on_c, 0, 86, 39
2, 223680, Note_on_c, 0, 78, 39
2, 223920, Note_on_c, 0, 78, 0
2, 223920, Note_on_c, 0, 86, 0
2, 224640, Control_c, 0, 91, 127
2, 226560, Note_on_c, 0, 61, 75
2, 226560, Note_on_c, 0, 64, 75
2, 226680, Note_on_c, 0, 61, 0
2, 226680, Note_on_c, 0, 59, 68
2, 226800, Note_on_c, 0, 59, 0
2, 226800, Note_on_c, 0, 61, 68
2, 226920, Note_on_c, 0, 61, 0
2, 226920, Note_on_c, 0, 57, 68
2, 226980, Note_on_c, 0, 57, 0
2, 227040, Note_on_c, 0, 64, 0
2, 227040, Note_on_c, 0, 62, 68
2, 227040, Note_on_c, 0, 66, 71
2, 227160, Note_on_c, 0, 62, 0
2, 227280, Note_on_c, 0, 59, 68
2, 227400, Note_on_c, 0, 59, 0
2, 227520, Note_on_c, 0, 66, 0
2, 227520, Note_on_c, 0, 61, 75
2, 227520, Note_on_c, 0, 64, 75
2, 227640, Note_on_c, 0, 61, 0
2, 227640, Note_on_c, 0, 59, 69
2, 227760, Note_on_c, 0, 59, 0
2, 227760, Note_on_c, 0, 61, 69
2, 227880, Note_on_c, 0, 61, 0
2, 227880, Note_on_c, 0, 57, 69
2, 227940, Note_on_c, 0, 57, 0
2, 228000, Note_on_c, 0, 64, 0
2, 228000, Note_on_c, 0, 62, 68
2, 228000, Note_on_c, 0, 66, 71
2, 228120, Note_on_c, 0, 62, 0
2, 228240, Note_on_c, 0, 59, 68
2, 228360, Note_on_c, 0, 59, 0
2, 228480, Note_on_c, 0, 66, 0
2, 228720, Note_on_c, 0, 74, 56
2, 228720, Note_on_c, 0, 78, 56
2, 228720, Note_on_c, 0, 68, 56
2, 228800, Note_on_c, 0, 78, 0
2, 228800, Note_on_c, 0, 80, 56
2, 228880, Note_on_c, 0, 80, 0
2, 228880, Note_on_c, 0, 78, 56
2, 228960, Note_on_c, 0, 78, 0
2, 228960, Note_on_c, 0, 68, 0
2, 228960, Note_on_c, 0, 74, 0
2, 228960, Note_on_c, 0, 76, 60
2, 228960, Note_on_c, 0, 73, 60
2, 228960, Note_on_c, 0, 69, 60
2, 229080, Note_on_c, 0, 69, 0
2, 229080, Note_on_c, 0, 73, 0
2, 229080, Note_on_c, 0, 76, 0
2, 229200, Note_on_c, 0, 73, 59
2, 229200, Note_on_c, 0, 76, 59
2, 229200, Note_on_c, 0, 69, 59
2, 229320, Note_on_c, 0, 69, 0
2, 229320, Note_on_c, 0, 76, 0
2, 229320, Note_on_c, 0, 73, 0
2, 229440, Note_on_c, 0, 76, 59
2, 229440, Note_on_c, 0, 73, 59
2, 229440, Note_on_c, 0, 69, 59
2, 230400, Note_on_c, 0, 69, 0
2, 230400, Note_on_c, 0, 73, 0
2, 230400, Note_on_c, 0, 76, 0
2, 230400, Note_on_c, 0, 60, 52
2, 230400, Note_on_c, 0, 64, 52
2, 230880, Note_on_c, 0, 64, 0
2, 230880, Note_on_c, 0, 60, 0
2, 230880, Note_on_c, 0, 68, 48
2, 230880, Note_on_c, 0, 72, 48
2, 230880, Note_on_c, 0, 76, 48
2, 231120, Note_on_c, 0, 76, 0
2, 231120, Note_on_c, 0, 72, 0
2, 231120, Note_on_c, 0, 68, 0
2, 231120, Note_on_c, 0, 68, 47
2, 231120, Note_on_c, 0, 72, 47
2, 231120, Note_on_c, 0, 76, 47
2, 231360, Note_on_c, 0, 76, 0
2, 231360, Note_on_c, 0, 72, 0
2, 231360, Note_on_c, 0, 68, 0
2, 231360, Note_on_c, 0, 68, 46
2, 231360, Note_on_c, 0, 72, 46
2, 231360, Note_on_c, 0, 76, 46
2, 231840, Note_on_c, 0, 76, 0
2, 231840, Note_on_c, 0, 72, 0
2, 231840, Note_on_c, 0, 68, 0
2, 231840, Note_on_c, 0, 72, 34
2, 231840, Note_on_c, 0, 76, 34
2, 231960, Note_on_c, 0, 76, 0
2, 231960, Note_on_c, 0, 72, 0
2, 232080, Note_on_c, 0, 76, 34
2, 232080, Note_on_c, 0, 72, 34
2, 232080, Note_on_c, 0, 77, 34
2, 232200, Note_on_c, 0, 77, 0
2, 232200, Note_on_c, 0, 72, 0
2, 232200, Note_on_c, 0, 76, 0
2, 232320, Note_on_c, 0, 72, 37
2, 232320, Note_on_c, 0, 76, 37
2, 232320, Note_on_c, 0, 79, 37
2, 232560, Note_on_c, 0, 79, 0
2, 232560, Note_on_c, 0, 81, 34
2, 232800, Note_on_c, 0, 81, 0
2, 232800, Note_on_c, 0, 76, 0
2, 232800, Note_on_c, 0, 72, 0
2, 232800, Note_on_c, 0, 72, 34
2, 232800, Note_on_c, 0, 76, 34
2, 232920, Note_on_c, 0, 76, 0
2, 232920, Note_on_c, 0, 72, 0
2, 233040, Note_on_c, 0, 72, 34
2, 233040, Note_on_c, 0, 76, 34
2, 233040, Note_on_c, 0, 77, 34
2, 233160, Note_on_c, 0, 77, 0
2, 233160, Note_on_c, 0, 76, 0
2, 233160, Note_on_c, 0, 72, 0
2, 233280, Note_on_c, 0, 71, 38
2, 233280, Note_on_c, 0, 77, 38
2, 233280, Note_on_c, 0, 79, 38
2, 233520, Note_on_c, 0, 79, 0
2, 233520, Note_on_c, 0, 81, 34
2, 233760, Note_on_c, 0, 81, 0
2, 233760, Note_on_c, 0, 77, 0
2, 233760, Note_on_c, 0, 71, 0
2, 233760, Note_on_c, 0, 67, 34
2, 233760, Note_on_c, 0, 71, 34
2, 233760, Note_on_c, 0, 76, 34
2, 233880, Note_on_c, 0, 76, 0
2, 233880, Note_on_c, 0, 71, 0
2, 233880, Note_on_c, 0, 67, 0
2, 234000, Note_on_c, 0, 67, 34
2, 234000, Note_on_c, 0, 71, 34
2, 234000, Note_on_c, 0, 74, 34
2, 234120, Note_on_c, 0, 74, 0
2, 234120, Note_on_c, 0, 71, 0
2, 234120, Note_on_c, 0, 67, 0
2, 234120, Note_on_c, 0, 74, 35
2, 234180, Note_on_c, 0, 74, 0
2, 234180, Note_on_c, 0, 76, 35
2, 234240, Note_on_c, 0, 76, 0
2, 234240, Note_on_c, 0, 64, 39
2, 234240, Note_on_c, 0, 74, 39
2, 234480, Note_on_c, 0, 74, 0
2, 234480, Note_on_c, 0, 72, 34
2, 234720, Note_on_c, 0, 72, 0
2, 234720, Note_on_c, 0, 64, 0
2, 234720, Note_on_c, 0, 64, 34
2, 234720, Note_on_c, 0, 72, 34
2, 234840, Note_on_c, 0, 72, 0
2, 234840, Note_on_c, 0, 64, 0
2, 234960, Note_on_c, 0, 64, 34
2, 234960, Note_on_c, 0, 72, 34
2, 235080, Note_on_c, 0, 72, 0
2, 235080, Note_on_c, 0, 64, 0
2, 235200, Note_on_c, 0, 64, 39
2, 235200, Note_on_c, 0, 72, 39
2, 235560, Note_on_c, 0, 72, 0
2, 235560, Note_on_c, 0, 64, 0
2, 236160, Note_on_c, 0, 64, 75
2, 236160, Note_on_c, 0, 67, 75
2, 236280, Note_on_c, 0, 64, 0
2, 236280, Note_on_c, 0, 62, 68
2, 236400, Note_on_c, 0, 62, 0
2, 236400, Note_on_c, 0, 64, 68
2, 236520, Note_on_c, 0, 64, 0
2, 236520, Note_on_c, 0, 60, 68
2, 236580, Note_on_c, 0, 60, 0
2, 236640, Note_on_c, 0, 67, 0
2, 236640, Note_on_c, 0, 65, 68
2, 236640, Note_on_c, 0, 69, 71
2, 236760, Note_on_c, 0, 65, 0
2, 236880, Note_on_c, 0, 62, 68
2, 237000, Note_on_c, 0, 62, 0
2, 237120, Note_on_c, 0, 69, 0
2, 237120, Note_on_c, 0, 64, 75
2, 237120, Note_on_c, 0, 67, 75
2, 237240, Note_on_c, 0, 64, 0
2, 237240, Note_on_c, 0, 62, 69
2, 237360, Note_on_c, 0, 62, 0
2, 237360, Note_on_c, 0, 64, 69
2, 237480, Note_on_c, 0, 64, 0
2, 237480, Note_on_c, 0, 60, 69
2, 237540, Note_on_c, 0, 60, 0
2, 237600, Note_on_c, 0, 67, 0
2, 237600, Note_on_c, 0, 65, 68
2, 237600, Note_on_c, 0, 69, 71
2, 237720, Note_on_c, 0, 65, 0
2, 237840, Note_on_c, 0, 62, 68
2, 237960, Note_on_c, 0, 62, 0
2, 238080, Note_on_c, 0, 69, 0
2, 238320, Note_on_c, 0, 77, 56
2, 238320, Note_on_c, 0, 81, 56
2, 238320, Note_on_c, 0, 71, 56
2, 238400, Note_on_c, 0, 81, 0
2, 238400, Note_on_c, 0, 83, 56
2, 238480, Note_on_c, 0, 83, 0
2, 238480, Note_on_c, 0, 81, 56
2, 238560, Note_on_c, 0, 81, 0
2, 238560, Note_on_c, 0, 71, 0
2, 238560, Note_on_c, 0, 77, 0
2, 238560, Note_on_c, 0, 79, 60
2, 238560, Note_on_c, 0, 76, 60
2, 238560, Note_on_c, 0, 72, 60
2, 238680, Note_on_c, 0, 72, 0
2, 238680, Note_on_c, 0, 76, 0
2, 238680, Note_on_c, 0, 79, 0
2, 238800, Note_on_c, 0, 76, 59
2, 238800, Note_on_c, 0, 79, 59
2, 238800, Note_on_c, 0, 72, 59
2, 238920, Note_on_c, 0, 72, 0
2, 238920, Note_on_c, 0, 79, 0
2, 238920, Note_on_c, 0, 76, 0
2, 239040, Note_on_c, 0, 79, 59
2, 239040, Note_on_c, 0, 76, 59
2, 239040, Note_on_c, 0, 72, 59
2, 240000, Note_on_c, 0, 72, 0
2, 240000, Note_on_c, 0, 76, 0
2, 240000, Note_on_c, 0, 79, 0
2, 240000, Note_on_c, 0, 63, 52
2, 240000, Note_on_c, 0, 67, 52
2, 240480, Note_on_c, 0, 67, 0
2, 240480, Note_on_c, 0, 63, 0
2, 240480, Note_on_c, 0, 71, 48
2, 240480, Note_on_c, 0, 75, 48
2, 240480, Note_on_c, 0, 79, 48
2, 240720, Note_on_c, 0, 79, 0
2, 240720, Note_on_c, 0, 75, 0
2, 240720, Note_on_c, 0, 71, 0
2, 240720, Note_on_c, 0, 71, 47
2, 240720, Note_on_c, 0, 75, 47
2, 240720, Note_on_c, 0, 79, 47
2, 240960, Note_on_c, 0, 79, 0
2, 240960, Note_on_c, 0, 75, 0
2, 240960, Note_on_c, 0, 71, 0
2, 240960, Note_on_c, 0, 71, 46
2, 240960, Note_on_c, 0, 75, 46
2, 240960, Note_on_c, 0, 79, 46
2, 241440, Note_on_c, 0, 79, 0
2, 241440, Note_on_c, 0, 75, 0
2, 241440, Note_on_c, 0, 71, 0
2, 241440, Note_on_c, 0, 75, 34
2, 241440, Note_on_c, 0, 79, 34
2, 241500, Note_on_c, 0, 79, 0
2, 241500, Note_on_c, 0, 75, 0
2, 241680, Note_on_c, 0, 79, 34
2, 241680, Note_on_c, 0, 75, 34
2, 241680, Note_on_c, 0, 80, 34
2, 241740, Note_on_c, 0, 80, 0
2, 241740, Note_on_c, 0, 75, 0
2, 241740, Note_on_c, 0, 79, 0
2, 241920, Note_on_c, 0, 75, 37
2, 241920, Note_on_c, 0, 79, 37
2, 241920, Note_on_c, 0, 82, 37
2, 242160, Note_on_c, 0, 82, 0
2, 242160, Note_on_c, 0, 84, 34
2, 242400, Note_on_c, 0, 84, 0
2, 242400, Note_on_c, 0, 79, 0
2, 242400, Note_on_c, 0, 75, 0
2, 242400, Note_on_c, 0, 75, 34
2, 242400, Note_on_c, 0, 79, 34
2, 242460, Note_on_c, 0, 79, 0
2, 242460, Note_on_c, 0, 75, 0
2, 242640, Note_on_c, 0, 75, 34
2, 242640, Note_on_c, 0, 79, 34
2, 242640, Note_on_c, 0, 80, 34
2, 242700, Note_on_c, 0, 80, 0
2, 242700, Note_on_c, 0, 79, 0
2, 242700, Note_on_c, 0, 75, 0
2, 242880, Note_on_c, 0, 74, 38
2, 242880, Note_on_c, 0, 80, 38
2, 242880, Note_on_c, 0, 82, 38
2, 243120, Note_on_c, 0, 82, 0
2, 243120, Note_on_c, 0, 84, 34
2, 243360, Note_on_c, 0, 84, 0
2, 243360, Note_on_c, 0, 80, 0
2, 243360, Note_on_c, 0, 74, 0
2, 243360, Note_on_c, 0, 70, 34
2, 243360, Note_on_c, 0, 74, 34
2, 243360, Note_on_c, 0, 79, 34
2, 243480, Note_on_c, 0, 79, 0
2, 243480, Note_on_c, 0, 74, 0
2, 243480, Note_on_c, 0, 70, 0
2, 243600, Note_on_c, 0, 70, 34
2, 243600, Note_on_c, 0, 74, 34
2, 243600, Note_on_c, 0, 77, 34
2, 243720, Note_on_c, 0, 77, 0
2, 243720, Note_on_c, 0, 74, 0
2, 243720, Note_on_c, 0, 70, 0
2, 243720, Note_on_c, 0, 77, 35
2, 243780, Note_on_c, 0, 77, 0
2, 243780, Note_on_c, 0, 79, 35
2, 243840, Note_on_c, 0, 79, 0
2, 243840, Note_on_c, 0, 67, 39
2, 243840, Note_on_c, 0, 77, 39
2, 244080, Note_on_c, 0, 77, 0
2, 244080, Note_on_c, 0, 75, 34
2, 244320, Note_on_c, 0, 75, 0
2, 244320, Note_on_c, 0, 67, 0
2, 244320, Note_on_c, 0, 67, 34
2, 244320, Note_on_c, 0, 75, 34
2, 244440, Note_on_c, 0, 75, 0
2, 244440, Note_on_c, 0, 67, 0
2, 244560, Note_on_c, 0, 67, 34
2, 244560, Note_on_c, 0, 75, 34
2, 244680, Note_on_c, 0, 75, 0
2, 244680, Note_on_c, 0, 67, 0
2, 244800, Note_on_c, 0, 67, 39
2, 244800, Note_on_c, 0, 75, 39
2, 245280, Note_on_c, 0, 75, 0
2, 245280, Note_on_c, 0, 67, 0
2, 245280, Control_c, 0, 91, 127
2, 245400, Note_on_c, 0, 55, 25
2, 245400, Note_on_c, 0, 61, 28
2, 245520, Note_on_c, 0, 61, 0
2, 245520, Note_on_c, 0, 55, 0
2, 245640, Note_on_c, 0, 63, 29
2, 245640, Note_on_c, 0, 61, 25
2, 245640, Note_on_c, 0, 55, 25
2, 245760, Note_on_c, 0, 55, 0
2, 245760, Note_on_c, 0, 61, 0
2, 245760, Note_on_c, 0, 63, 0
2, 245880, Note_on_c, 0, 55, 25
2, 245880, Note_on_c, 0, 58, 25
2, 245880, Note_on_c, 0, 65, 34
2, 246000, Note_on_c, 0, 65, 0
2, 246000, Note_on_c, 0, 58, 0
2, 246000, Note_on_c, 0, 55, 0
2, 246120, Note_on_c, 0, 55, 26
2, 246120, Note_on_c, 0, 61, 26
2, 246120, Note_on_c, 0, 67, 33
2, 246240, Note_on_c, 0, 67, 0
2, 246240, Note_on_c, 0, 61, 0
2, 246240, Note_on_c, 0, 55, 0
2, 246360, Note_on_c, 0, 55, 27
2, 246360, Note_on_c, 0, 61, 31
2, 246480, Note_on_c, 0, 61, 0
2, 246480, Note_on_c, 0, 55, 0
2, 246600, Note_on_c, 0, 63, 31
2, 246600, Note_on_c, 0, 55, 27
2, 246600, Note_on_c, 0, 61, 27
2, 246720, Note_on_c, 0, 61, 0
2, 246720, Note_on_c, 0, 55, 0
2, 246720, Note_on_c, 0, 63, 0
2, 246840, Note_on_c, 0, 55, 28
2, 246840, Note_on_c, 0, 61, 28
2, 246840, Note_on_c, 0, 65, 36
2, 246960, Note_on_c, 0, 65, 0
2, 246960, Note_on_c, 0, 61, 0
2, 246960, Note_on_c, 0, 55, 0
2, 247080, Note_on_c, 0, 55, 28
2, 247080, Note_on_c, 0, 61, 28
2, 247080, Note_on_c, 0, 67, 33
2, 247200, Note_on_c, 0, 67, 0
2, 247200, Note_on_c, 0, 61, 0
2, 247200, Note_on_c, 0, 55, 0
2, 247320, Note_on_c, 0, 55, 29
2, 247320, Note_on_c, 0, 61, 34
2, 247440, Note_on_c, 0, 61, 0
2, 247440, Note_on_c, 0, 55, 0
2, 247560, Note_on_c, 0, 63, 34
2, 247560, Note_on_c, 0, 55, 30
2, 247560, Note_on_c, 0, 61, 30
2, 247680, Note_on_c, 0, 61, 0
2, 247680, Note_on_c, 0, 55, 0
2, 247680, Note_on_c, 0, 63, 0
2, 247800, Note_on_c, 0, 55, 29
2, 247800, Note_on_c, 0, 61, 29
2, 247800, Note_on_c, 0, 65, 39
2, 247920, Note_on_c, 0, 65, 0
2, 247920, Note_on_c, 0, 61, 0
2, 247920, Note_on_c, 0, 55, 0
2, 248040, Note_on_c, 0, 68, 42
2, 248160, Note_on_c, 0, 68, 0
2, 248280, Note_on_c, 0, 55, 31
2, 248280, Note_on_c, 0, 61, 31
2, 248280, Note_on_c, 0, 67, 38
2, 248400, Note_on_c, 0, 67, 0
2, 248400, Note_on_c, 0, 61, 0
2, 248400, Note_on_c, 0, 55, 0
2, 248520, Note_on_c, 0, 63, 38
2, 248520, Note_on_c, 0, 55, 31
2, 248520, Note_on_c, 0, 61, 31
2, 248640, Note_on_c, 0, 61, 0
2, 248640, Note_on_c, 0, 55, 0
2, 248640, Note_on_c, 0, 63, 0
2, 248760, Note_on_c, 0, 55, 31
2, 248760, Note_on_c, 0, 61, 31
2, 248760, Note_on_c, 0, 65, 39
2, 248880, Note_on_c, 0, 65, 0
2, 248880, Note_on_c, 0, 61, 0
2, 248880, Note_on_c, 0, 55, 0
2, 249000, Note_on_c, 0, 55, 32
2, 249000, Note_on_c, 0, 61, 38
2, 249120, Note_on_c, 0, 61, 0
2, 249120, Note_on_c, 0, 55, 0
2, 249120, Control_c, 0, 91, 127
2, 249240, Note_on_c, 0, 56, 36
2, 249240, Note_on_c, 0, 63, 36
2, 249360, Note_on_c, 0, 63, 0
2, 249360, Note_on_c, 0, 56, 0
2, 249480, Note_on_c, 0, 63, 35
2, 249480, Note_on_c, 0, 65, 35
2, 249480, Note_on_c, 0, 56, 35
2, 249600, Note_on_c, 0, 56, 0
2, 249600, Note_on_c, 0, 65, 0
2, 249600, Note_on_c, 0, 63, 0
2, 249720, Note_on_c, 0, 56, 30
2, 249720, Note_on_c, 0, 63, 30
2, 249720, Note_on_c, 0, 67, 40
2, 249840, Note_on_c, 0, 67, 0
2, 249840, Note_on_c, 0, 63, 0
2, 249840, Note_on_c, 0, 56, 0
2, 249960, Note_on_c, 0, 56, 31
2, 249960, Note_on_c, 0, 63, 31
2, 249960, Note_on_c, 0, 68, 39
2, 250080, Note_on_c, 0, 68, 0
2, 250080, Note_on_c, 0, 63, 0
2, 250080, Note_on_c, 0, 56, 0
2, 250200, Note_on_c, 0, 56, 31
2, 250200, Note_on_c, 0, 63, 36
2, 250320, Note_on_c, 0, 63, 0
2, 250320, Note_on_c, 0, 56, 0
2, 250440, Note_on_c, 0, 63, 36
2, 250440, Note_on_c, 0, 56, 31
2, 250440, Note_on_c, 0, 65, 31
2, 250560, Note_on_c, 0, 65, 0
2, 250560, Note_on_c, 0, 56, 0
2, 250560, Note_on_c, 0, 63, 0
2, 250680, Note_on_c, 0, 56, 32
2, 250680, Note_on_c, 0, 63, 32
2, 250680, Note_on_c, 0, 67, 41
2, 250800, Note_on_c, 0, 67, 0
2, 250800, Note_on_c, 0, 63, 0
2, 250800, Note_on_c, 0, 56, 0
2, 250920, Note_on_c, 0, 56, 32
2, 250920, Note_on_c, 0, 63, 32
2, 250920, Note_on_c, 0, 68, 39
2, 251040, Note_on_c, 0, 68, 0
2, 251040, Note_on_c, 0, 63, 0
2, 251040, Note_on_c, 0, 56, 0
2, 251160, Note_on_c, 0, 56, 34
2, 251160, Note_on_c, 0, 63, 39
2, 251280, Note_on_c, 0, 63, 0
2, 251280, Note_on_c, 0, 56, 0
2, 251400, Note_on_c, 0, 63, 39
2, 251400, Note_on_c, 0, 56, 35
2, 251400, Note_on_c, 0, 65, 35
2, 251520, Note_on_c, 0, 65, 0
2, 251520, Note_on_c, 0, 56, 0
2, 251520, Note_on_c, 0, 63, 0
2, 251640, Note_on_c, 0, 56, 34
2, 251640, Note_on_c, 0, 63, 34
2, 251640, Note_on_c, 0, 67, 44
2, 251760, Note_on_c, 0, 67, 0
2, 251760, Note_on_c, 0, 63, 0
2, 251760, Note_on_c, 0, 56, 0
2, 251880, Note_on_c, 0, 70, 48
2, 252000, Note_on_c, 0, 70, 0
2, 252120, Note_on_c, 0, 56, 36
2, 252120, Note_on_c, 0, 63, 36
2, 252120, Note_on_c, 0, 68, 44
2, 252240, Note_on_c, 0, 68, 0
2, 252240, Note_on_c, 0, 63, 0
2, 252240, Note_on_c, 0, 56, 0
2, 252360, Note_on_c, 0, 63, 44
2, 252360, Note_on_c, 0, 56, 36
2, 252360, Note_on_c, 0, 65, 36
2, 252480, Note_on_c, 0, 65, 0
2, 252480, Note_on_c, 0, 56, 0
2, 252480, Note_on_c, 0, 63, 0
2, 252600, Note_on_c, 0, 56, 36
2, 252600, Note_on_c, 0, 63, 36
2, 252600, Note_on_c, 0, 67, 45
2, 252720, Note_on_c, 0, 67, 0
2, 252720, Note_on_c, 0, 63, 0
2, 252720, Note_on_c, 0, 56, 0
2, 252840, Note_on_c, 0, 56, 36
2, 252840, Note_on_c, 0, 63, 43
2, 252960, Note_on_c, 0, 63, 0
2, 252960, Note_on_c, 0, 56, 0
2, 252960, Control_c, 0, 91, 127
2, 253080, Note_on_c, 0, 60, 48
2, 253080, Note_on_c, 0, 66, 48
2, 253200, Note_on_c, 0, 66, 0
2, 253200, Note_on_c, 0, 60, 0
2, 253320, Note_on_c, 0, 66, 44
2, 253320, Note_on_c, 0, 68, 44
2, 253320, Note_on_c, 0, 60, 44
2, 253440, Note_on_c, 0, 60, 0
2, 253440, Note_on_c, 0, 68, 0
2, 253440, Note_on_c, 0, 66, 0
2, 253560, Note_on_c, 0, 60, 47
2, 253560, Note_on_c, 0, 66, 47
2, 253560, Note_on_c, 0, 70, 47
2, 253680, Note_on_c, 0, 70, 0
2, 253680, Note_on_c, 0, 66, 0
2, 253680, Note_on_c, 0, 60, 0
2, 253800, Note_on_c, 0, 60, 37
2, 253800, Note_on_c, 0, 66, 37
2, 253800, Note_on_c, 0, 72, 46
2, 253920, Note_on_c, 0, 72, 0
2, 253920, Note_on_c, 0, 66, 0
2, 253920, Note_on_c, 0, 60, 0
2, 254040, Note_on_c, 0, 60, 48
2, 254040, Note_on_c, 0, 66, 48
2, 254160, Note_on_c, 0, 66, 0
2, 254160, Note_on_c, 0, 60, 0
2, 254280, Note_on_c, 0, 66, 44
2, 254280, Note_on_c, 0, 60, 37
2, 254280, Note_on_c, 0, 68, 37
2, 254400, Note_on_c, 0, 68, 0
2, 254400, Note_on_c, 0, 60, 0
2, 254400, Note_on_c, 0, 66, 0
2, 254520, Note_on_c, 0, 60, 47
2, 254520, Note_on_c, 0, 66, 47
2, 254520, Note_on_c, 0, 70, 47
2, 254640, Note_on_c, 0, 70, 0
2, 254640, Note_on_c, 0, 66, 0
2, 254640, Note_on_c, 0, 60, 0
2, 254760, Note_on_c, 0, 60, 37
2, 254760, Note_on_c, 0, 66, 37
2, 254760, Note_on_c, 0, 72, 45
2, 254880, Note_on_c, 0, 72, 0
2, 254880, Note_on_c, 0, 66, 0
2, 254880, Note_on_c, 0, 60, 0
2, 255000, Note_on_c, 0, 60, 47
2, 255000, Note_on_c, 0, 66, 47
2, 255120, Note_on_c, 0, 66, 0
2, 255120, Note_on_c, 0, 60, 0
2, 255240, Note_on_c, 0, 66, 46
2, 255240, Note_on_c, 0, 60, 46
2, 255240, Note_on_c, 0, 68, 46
2, 255360, Note_on_c, 0, 68, 0
2, 255360, Note_on_c, 0, 60, 0
2, 255360, Note_on_c, 0, 66, 0
2, 255480, Note_on_c, 0, 60, 56
2, 255480, Note_on_c, 0, 66, 56
2, 255480, Note_on_c, 0, 70, 56
2, 255600, Note_on_c, 0, 70, 0
2, 255600, Note_on_c, 0, 66, 0
2, 255600, Note_on_c, 0, 60, 0
2, 255720, Note_on_c, 0, 73, 50
2, 255840, Note_on_c, 0, 73, 0
2, 255960, Note_on_c, 0, 60, 55
2, 255960, Note_on_c, 0, 66, 55
2, 255960, Note_on_c, 0, 72, 55
2, 256080, Note_on_c, 0, 72, 0
2, 256080, Note_on_c, 0, 66, 0
2, 256080, Note_on_c, 0, 60, 0
2, 256200, Note_on_c, 0, 68, 48
2, 256200, Note_on_c, 0, 60, 40
2, 256200, Note_on_c, 0, 66, 40
2, 256320, Note_on_c, 0, 66, 0
2, 256320, Note_on_c, 0, 60, 0
2, 256320, Note_on_c, 0, 68, 0
2, 256440, Note_on_c, 0, 60, 40
2, 256440, Note_on_c, 0, 66, 40
2, 256440, Note_on_c, 0, 70, 50
2, 256560, Note_on_c, 0, 70, 0
2, 256560, Note_on_c, 0, 66, 0
2, 256560, Note_on_c, 0, 60, 0
2, 256680, Note_on_c, 0, 60, 40
2, 256680, Note_on_c, 0, 66, 47
2, 256800, Note_on_c, 0, 66, 0
2, 256800, Note_on_c, 0, 60, 0
2, 256800, Control_c, 0, 91, 127
2, 256920, Note_on_c, 0, 61, 59
2, 256920, Note_on_c, 0, 68, 59
2, 257040, Note_on_c, 0, 68, 0
2, 257040, Note_on_c, 0, 61, 0
2, 257160, Note_on_c, 0, 68, 52
2, 257160, Note_on_c, 0, 70, 52
2, 257160, Note_on_c, 0, 61, 52
2, 257280, Note_on_c, 0, 61, 0
2, 257280, Note_on_c, 0, 70, 0
2, 257280, Note_on_c, 0, 68, 0
2, 257400, Note_on_c, 0, 61, 57
2, 257400, Note_on_c, 0, 68, 57
2, 257400, Note_on_c, 0, 72, 57
2, 257520, Note_on_c, 0, 72, 0
2, 257520, Note_on_c, 0, 68, 0
2, 257520, Note_on_c, 0, 61, 0
2, 257640, Note_on_c, 0, 61, 55
2, 257640, Note_on_c, 0, 68, 55
2, 257640, Note_on_c, 0, 73, 55
2, 257760, Note_on_c, 0, 73, 0
2, 257760, Note_on_c, 0, 68, 0
2, 257760, Note_on_c, 0, 61, 0
2, 257880, Note_on_c, 0, 61, 59
2, 257880, Note_on_c, 0, 68, 59
2, 258000, Note_on_c, 0, 68, 0
2, 258000, Note_on_c, 0, 61, 0
2, 258120, Note_on_c, 0, 68, 53
2, 258120, Note_on_c, 0, 61, 53
2, 258120, Note_on_c, 0, 70, 53
2, 258240, Note_on_c, 0, 70, 0
2, 258240, Note_on_c, 0, 61, 0
2, 258240, Note_on_c, 0, 68, 0
2, 258360, Note_on_c, 0, 61, 59
2, 258360, Note_on_c, 0, 68, 59
2, 258360, Note_on_c, 0, 72, 59
2, 258480, Note_on_c, 0, 72, 0
2, 258480, Note_on_c, 0, 68, 0
2, 258480, Note_on_c, 0, 61, 0
2, 258600, Note_on_c, 0, 61, 55
2, 258600, Note_on_c, 0, 68, 55
2, 258600, Note_on_c, 0, 73, 55
2, 258720, Note_on_c, 0, 73, 0
2, 258720, Note_on_c, 0, 68, 0
2, 258720, Note_on_c, 0, 61, 0
2, 258840, Note_on_c, 0, 61, 59
2, 258840, Note_on_c, 0, 68, 59
2, 258960, Note_on_c, 0, 68, 0
2, 258960, Note_on_c, 0, 61, 0
2, 259080, Note_on_c, 0, 68, 57
2, 259080, Note_on_c, 0, 61, 57
2, 259080, Note_on_c, 0, 70, 57
2, 259200, Note_on_c, 0, 70, 0
2, 259200, Note_on_c, 0, 61, 0
2, 259200, Note_on_c, 0, 68, 0
2, 259320, Note_on_c, 0, 61, 64
2, 259320, Note_on_c, 0, 68, 64
2, 259320, Note_on_c, 0, 72, 64
2, 259440, Note_on_c, 0, 72, 0
2, 259440, Note_on_c, 0, 68, 0
2, 259440, Note_on_c, 0, 61, 0
2, 259560, Note_on_c, 0, 75, 64
2, 259680, Note_on_c, 0, 75, 0
2, 259800, Note_on_c, 0, 61, 62
2, 259800, Note_on_c, 0, 68, 62
2, 259800, Note_on_c, 0, 73, 62
2, 259920, Note_on_c, 0, 73, 0
2, 259920, Note_on_c, 0, 68, 0
2, 259920, Note_on_c, 0, 61, 0
2, 260040, Note_on_c, 0, 70, 59
2, 260040, Note_on_c, 0, 61, 48
2, 260040, Note_on_c, 0, 68, 48
2, 260160, Note_on_c, 0, 68, 0
2, 260160, Note_on_c, 0, 61, 0
2, 260160, Note_on_c, 0, 70, 0
2, 260280, Note_on_c, 0, 61, 48
2, 260280, Note_on_c, 0, 68, 48
2, 260280, Note_on_c, 0, 72, 61
2, 260400, Note_on_c, 0, 72, 0
2, 260400, Note_on_c, 0, 68, 0
2, 260400, Note_on_c, 0, 61, 0
2, 260520, Note_on_c, 0, 61, 48
2, 260520, Note_on_c, 0, 68, 57
2, 260640, Note_on_c, 0, 68, 0
2, 260640, Note_on_c, 0, 61, 0
2, 260760, Note_on_c, 0, 62, 71
2, 260760, Note_on_c, 0, 68, 71
2, 260880, Note_on_c, 0, 68, 0
2, 260880, Note_on_c, 0, 62, 0
2, 261000, Note_on_c, 0, 68, 63
2, 261000, Note_on_c, 0, 62, 63
2, 261000, Note_on_c, 0, 70, 63
2, 261120, Note_on_c, 0, 70, 0
2, 261120, Note_on_c, 0, 62, 0
2, 261120, Note_on_c, 0, 68, 0
2, 261240, Note_on_c, 0, 62, 70
2, 261240, Note_on_c, 0, 68, 70
2, 261240, Note_on_c, 0, 72, 70
2, 261360, Note_on_c, 0, 72, 0
2, 261360, Note_on_c, 0, 68, 0
2, 261360, Note_on_c, 0, 62, 0
2, 261480, Note_on_c, 0, 75, 75
2, 261600, Note_on_c, 0, 75, 0
2, 261720, Note_on_c, 0, 62, 69
2, 261720, Note_on_c, 0, 68, 69
2, 261720, Note_on_c, 0, 74, 69
2, 261840, Note_on_c, 0, 74, 0
2, 261840, Note_on_c, 0, 68, 0
2, 261840, Note_on_c, 0, 62, 0
2, 261960, Note_on_c, 0, 70, 63
2, 261960, Note_on_c, 0, 62, 52
2, 261960, Note_on_c, 0, 68, 52
2, 262080, Note_on_c, 0, 68, 0
2, 262080, Note_on_c, 0, 62, 0
2, 262080, Note_on_c, 0, 70, 0
2, 262200, Note_on_c, 0, 62, 52
2, 262200, Note_on_c, 0, 68, 52
2, 262200, Note_on_c, 0, 72, 66
2, 262320, Note_on_c, 0, 72, 0
2, 262320, Note_on_c, 0, 68, 0
2, 262320, Note_on_c, 0, 62, 0
2, 262440, Note_on_c, 0, 68, 62
2, 262560, Note_on_c, 0, 68, 0
2, 262680, Note_on_c, 0, 74, 70
2, 262680, Note_on_c, 0, 72, 70
2, 262680, Note_on_c, 0, 68, 70
2, 262800, Note_on_c, 0, 68, 0
2, 262800, Note_on_c, 0, 72, 0
2, 262800, Note_on_c, 0, 74, 0
2, 262920, Note_on_c, 0, 68, 66
2, 262920, Note_on_c, 0, 75, 66
2, 262920, Note_on_c, 0, 72, 66
2, 263040, Note_on_c, 0, 72, 0
2, 263040, Note_on_c, 0, 75, 0
2, 263040, Note_on_c, 0, 68, 0
2, 263160, Note_on_c, 0, 77, 72
2, 263160, Note_on_c, 0, 68, 72
2, 263160, Note_on_c, 0, 72, 72
2, 263280, Note_on_c, 0, 72, 0
2, 263280, Note_on_c, 0, 68, 0
2, 263280, Note_on_c, 0, 77, 0
2, 263400, Note_on_c, 0, 80, 81
2, 263520, Note_on_c, 0, 80, 0
2, 263640, Note_on_c, 0, 79, 80
2, 263640, Note_on_c, 0, 68, 80
2, 263640, Note_on_c, 0, 72, 80
2, 263760, Note_on_c, 0, 72, 0
2, 263760, Note_on_c, 0, 68, 0
2, 263760, Note_on_c, 0, 79, 0
2, 263880, Note_on_c, 0, 72, 72
2, 263880, Note_on_c, 0, 75, 72
2, 263880, Note_on_c, 0, 68, 72
2, 264000, Note_on_c, 0, 68, 0
2, 264000, Note_on_c, 0, 75, 0
2, 264000, Note_on_c, 0, 72, 0
2, 264120, Note_on_c, 0, 77, 80
2, 264120, Note_on_c, 0, 68, 80
2, 264120, Note_on_c, 0, 72, 80
2, 264240, Note_on_c, 0, 72, 0
2, 264240, Note_on_c, 0, 68, 0
2, 264240, Note_on_c, 0, 77, 0
2, 264360, Note_on_c, 0, 74, 66
2, 264480, Note_on_c, 0, 74, 0
2, 264600, Note_on_c, 0, 77, 75
2, 264720, Note_on_c, 0, 77, 0
2, 264840, Note_on_c, 0, 79, 75
2, 264960, Note_on_c, 0, 79, 0
2, 265080, Note_on_c, 0, 80, 81
2, 265200, Note_on_c, 0, 80, 0
2, 265320, Note_on_c, 0, 84, 75
2, 265440, Note_on_c, 0, 84, 0
2, 265560, Note_on_c, 0, 80, 75
2, 265680, Note_on_c, 0, 80, 0
2, 265800, Note_on_c, 0, 77, 75
2, 265920, Note_on_c, 0, 77, 0
2, 266040, Note_on_c, 0, 80, 81
2, 266160, Note_on_c, 0, 80, 0
2, 266280, Note_on_c, 0, 77, 75
2, 266400, Note_on_c, 0, 77, 0
2, 266520, Note_on_c, 0, 74, 75
2, 266640, Note_on_c, 0, 74, 0
2, 266760, Note_on_c, 0, 77, 75
2, 266880, Note_on_c, 0, 77, 0
2, 267000, Note_on_c, 0, 74, 81
2, 267120, Note_on_c, 0, 74, 0
2, 267240, Note_on_c, 0, 70, 75
2, 267360, Note_on_c, 0, 70, 0
2, 267480, Note_on_c, 0, 74, 75
2, 267600, Note_on_c, 0, 74, 0
2, 267720, Note_on_c, 0, 70, 75
2, 267840, Note_on_c, 0, 70, 0
2, 267960, Note_on_c, 0, 67, 81
2, 268080, Note_on_c, 0, 67, 0
2, 268200, Note_on_c, 0, 70, 75
2, 268320, Note_on_c, 0, 70, 0
2, 268440, Note_on_c, 0, 67, 75
2, 268560, Note_on_c, 0, 67, 0
2, 268680, Note_on_c, 0, 63, 75
2, 268800, Note_on_c, 0, 63, 0
2, 268920, Note_on_c, 0, 67, 85
2, 269040, Note_on_c, 0, 67, 0
2, 269160, Note_on_c, 0, 63, 80
2, 269280, Note_on_c, 0, 63, 0
2, 269400, Note_on_c, 0, 60, 80
2, 269520, Note_on_c, 0, 60, 0
2, 269640, Note_on_c, 0, 63, 80
2, 269760, Note_on_c, 0, 63, 0
2, 269880, Note_on_c, 0, 60, 93
2, 270000, Note_on_c, 0, 60, 0
2, 270120, Note_on_c, 0, 56, 86
2, 270240, Note_on_c, 0, 56, 0
2, 270360, Note_on_c, 0, 60, 89
2, 270480, Note_on_c, 0, 60, 0
2, 270600, Note_on_c, 0, 56, 103
2, 270720, Note_on_c, 0, 56, 0
2, 270720, Control_c, 0, 91, 127
2, 270720, Note_on_c, 0, 55, 108
2, 271200, Note_on_c, 0, 68, 93
2, 271200, Note_on_c, 0, 56, 83
2, 271200, Note_on_c, 0, 60, 83
2, 271200, Note_on_c, 0, 63, 83
2, 271680, Note_on_c, 0, 63, 0
2, 271680, Note_on_c, 0, 56, 0
2, 271680, Note_on_c, 0, 60, 0
2, 271680, Note_on_c, 0, 68, 0
2, 271680, Note_on_c, 0, 80, 93
2, 271680, Note_on_c, 0, 75, 83
2, 271680, Note_on_c, 0, 68, 83
2, 271680, Note_on_c, 0, 72, 83
2, 272160, Note_on_c, 0, 72, 0
2, 272160, Note_on_c, 0, 75, 0
2, 272160, Note_on_c, 0, 68, 0
2, 272160, Note_on_c, 0, 80, 0
2, 272160, Note_on_c, 0, 92, 91
2, 272160, Note_on_c, 0, 87, 81
2, 272160, Note_on_c, 0, 84, 81
2, 272160, Note_on_c, 0, 80, 81
2, 272640, Note_on_c, 0, 80, 0
2, 272640, Note_on_c, 0, 87, 0
2, 272640, Note_on_c, 0, 55, 0
2, 272640, Note_on_c, 0, 92, 0
2, 272640, Note_on_c, 0, 84, 0
2, 272640, Note_on_c, 0, 54, 108
2, 273120, Note_on_c, 0, 68, 93
2, 273120, Note_on_c, 0, 56, 83
2, 273120, Note_on_c, 0, 60, 83
2, 273120, Note_on_c, 0, 63, 83
2, 273600, Note_on_c, 0, 63, 0
2, 273600, Note_on_c, 0, 56, 0
2, 273600, Note_on_c, 0, 60, 0
2, 273600, Note_on_c, 0, 68, 0
2, 273600, Note_on_c, 0, 80, 93
2, 273600, Note_on_c, 0, 75, 83
2, 273600, Note_on_c, 0, 68, 83
2, 273600, Note_on_c, 0, 72, 83
2, 274080, Note_on_c, 0, 72, 0
2, 274080, Note_on_c, 0, 75, 0
2, 274080, Note_on_c, 0, 68, 0
2, 274080, Note_on_c, 0, 80, 0
2, 274080, Note_on_c, 0, 92, 91
2, 274080, Note_on_c, 0, 87, 81
2, 274080, Note_on_c, 0, 84, 81
2, 274080, Note_on_c, 0, 80, 81
2, 274560, Note_on_c, 0, 80, 0
2, 274560, Note_on_c, 0, 87, 0
2, 274560, Note_on_c, 0, 54, 0
2, 274560, Note_on_c, 0, 92, 0
2, 274560, Note_on_c, 0, 84, 0
2, 274560, Note_on_c, 0, 53, 111
2, 275040, Note_on_c, 0, 68, 93
2, 275040, Note_on_c, 0, 56, 83
2, 275040, Note_on_c, 0, 59, 83
2, 275040, Note_on_c, 0, 63, 83
2, 275520, Note_on_c, 0, 63, 0
2, 275520, Note_on_c, 0, 56, 0
2, 275520, Note_on_c, 0, 59, 0
2, 275520, Note_on_c, 0, 68, 0
2, 275520, Note_on_c, 0, 80, 93
2, 275520, Note_on_c, 0, 75, 83
2, 275520, Note_on_c, 0, 68, 83
2, 275520, Note_on_c, 0, 71, 83
2, 276000, Note_on_c, 0, 71, 0
2, 276000, Note_on_c, 0, 75, 0
2, 276000, Note_on_c, 0, 68, 0
2, 276000, Note_on_c, 0, 80, 0
2, 276000, Note_on_c, 0, 92, 91
2, 276000, Note_on_c, 0, 87, 81
2, 276000, Note_on_c, 0, 83, 81
2, 276000, Note_on_c, 0, 80, 81
2, 276480, Note_on_c, 0, 80, 0
2, 276480, Note_on_c, 0, 87, 0
2, 276480, Note_on_c, 0, 53, 0
2, 276480, Note_on_c, 0, 92, 0
2, 276480, Note_on_c, 0, 83, 0
2, 276480, Note_on_c, 0, 52, 111
2, 276960, Note_on_c, 0, 57, 83
2, 276960, Note_on_c, 0, 69, 93
2, 276960, Note_on_c, 0, 55, 83
2, 276960, Note_on_c, 0, 61, 83
2, 276960, Note_on_c, 0, 67, 93
2, 277440, Note_on_c, 0, 67, 0
2, 277440, Note_on_c, 0, 57, 0
2, 277440, Note_on_c, 0, 69, 0
2, 277440, Note_on_c, 0, 55, 0
2, 277440, Note_on_c, 0, 61, 0
2, 277440, Note_on_c, 0, 67, 83
2, 277440, Note_on_c, 0, 81, 93
2, 277440, Note_on_c, 0, 79, 93
2, 277440, Note_on_c, 0, 69, 83
2, 277440, Note_on_c, 0, 73, 83
2, 277920, Note_on_c, 0, 73, 0
2, 277920, Note_on_c, 0, 67, 0
2, 277920, Note_on_c, 0, 81, 0
2, 277920, Note_on_c, 0, 79, 0
2, 277920, Note_on_c, 0, 69, 0
2, 277920, Note_on_c, 0, 81, 78
2, 277920, Note_on_c, 0, 93, 86
2, 277920, Note_on_c, 0, 91, 86
2, 277920, Note_on_c, 0, 85, 78
2, 277920, Note_on_c, 0, 79, 78
2, 278160, Note_on_c, 0, 79, 0
2, 278160, Note_on_c, 0, 81, 0
2, 278160, Note_on_c, 0, 93, 0
2, 278160, Note_on_c, 0, 91, 0
2, 278160, Note_on_c, 0, 85, 0
2, 278160, Control_c, 0, 91, 127
2, 278160, Note_on_c, 0, 81, 88
2, 278240, Note_on_c, 0, 81, 0
2, 278240, Note_on_c, 0, 83, 88
2, 278320, Note_on_c, 0, 83, 0
2, 278320, Note_on_c, 0, 81, 88
2, 278400, Note_on_c, 0, 81, 0
2, 278400, Note_on_c, 0, 52, 0
2, 278400, Note_on_c, 0, 78, 97
2, 278640, Note_on_c, 0, 81, 97
2, 278880, Note_on_c, 0, 81, 0
2, 278880, Note_on_c, 0, 78, 0
2, 278880, Note_on_c, 0, 81, 90
2, 278880, Note_on_c, 0, 86, 101
2, 278880, Note_on_c, 0, 78, 90
2, 279000, Note_on_c, 0, 78, 0
2, 279000, Note_on_c, 0, 86, 0
2, 279000, Note_on_c, 0, 81, 0
2, 279120, Note_on_c, 0, 81, 83
2, 279120, Note_on_c, 0, 90, 93
2, 279120, Note_on_c, 0, 78, 83
2, 279240, Note_on_c, 0, 78, 0
2, 279240, Note_on_c, 0, 90, 0
2, 279240, Note_on_c, 0, 81, 0
2, 279360, Note_on_c, 0, 81, 75
2, 279360, Note_on_c, 0, 88, 102
2, 279360, Note_on_c, 0, 78, 75
2, 279600, Note_on_c, 0, 88, 0
2, 279600, Note_on_c, 0, 86, 93
2, 279840, Note_on_c, 0, 86, 0
2, 279840, Note_on_c, 0, 78, 0
2, 279840, Note_on_c, 0, 81, 0
2, 279840, Note_on_c, 0, 74, 90
2, 279840, Note_on_c, 0, 78, 93
2, 279960, Note_on_c, 0, 78, 0
2, 279960, Note_on_c, 0, 74, 0
2, 280080, Note_on_c, 0, 74, 81
2, 280080, Note_on_c, 0, 81, 90
2, 280080, Note_on_c, 0, 78, 81
2, 280200, Note_on_c, 0, 78, 0
2, 280200, Note_on_c, 0, 81, 0
2, 280200, Note_on_c, 0, 74, 0
2, 280320, Note_on_c, 0, 74, 85
2, 280320, Note_on_c, 0, 83, 95
2, 280320, Note_on_c, 0, 81, 95
2, 280320, Note_on_c, 0, 78, 85
2, 280560, Note_on_c, 0, 78, 0
2, 280560, Note_on_c, 0, 74, 0
2, 280560, Note_on_c, 0, 83, 0
2, 280560, Note_on_c, 0, 81, 0
2, 280800, Note_on_c, 0, 74, 77
2, 280800, Note_on_c, 0, 83, 86
2, 280800, Note_on_c, 0, 81, 86
2, 280800, Note_on_c, 0, 78, 77
2, 281040, Note_on_c, 0, 78, 0
2, 281040, Note_on_c, 0, 74, 0
2, 281040, Note_on_c, 0, 83, 0
2, 281040, Note_on_c, 0, 81, 0
2, 281160, Note_on_c, 0, 74, 77
2, 281160, Note_on_c, 0, 83, 86
2, 281160, Note_on_c, 0, 81, 86
2, 281160, Note_on_c, 0, 78, 77
2, 281280, Note_on_c, 0, 78, 0
2, 281280, Note_on_c, 0, 74, 0
2, 281280, Note_on_c, 0, 83, 0
2, 281280, Note_on_c, 0, 81, 0
2, 281280, Note_on_c, 0, 74, 77
2, 281280, Note_on_c, 0, 83, 86
2, 281280, Note_on_c, 0, 81, 86
2, 281280, Note_on_c, 0, 78, 77
2, 281760, Note_on_c, 0, 78, 0
2, 281760, Note_on_c, 0, 74, 0
2, 281760, Note_on_c, 0, 83, 0
2, 281760, Note_on_c, 0, 81, 0
2, 281760, Note_on_c, 0, 74, 90
2, 281760, Note_on_c, 0, 78, 90
2, 281880, Note_on_c, 0, 78, 0
2, 281880, Note_on_c, 0, 74, 0
2, 282000, Note_on_c, 0, 74, 90
2, 282000, Note_on_c, 0, 80, 90
2, 282000, Note_on_c, 0, 78, 90
2, 282120, Note_on_c, 0, 78, 0
2, 282120, Note_on_c, 0, 80, 0
2, 282120, Note_on_c, 0, 74, 0
2, 282240, Note_on_c, 0, 74, 87
2, 282240, Note_on_c, 0, 78, 87
2, 282240, Note_on_c, 0, 81, 97
2, 282480, Note_on_c, 0, 81, 0
2, 282480, Note_on_c, 0, 83, 89
2, 282720, Note_on_c, 0, 83, 0
2, 282720, Note_on_c, 0, 78, 0
2, 282720, Note_on_c, 0, 74, 0
2, 282720, Note_on_c, 0, 78, 93
2, 282720, Note_on_c, 0, 74, 93
2, 282840, Note_on_c, 0, 74, 0
2, 282840, Note_on_c, 0, 78, 0
2, 282960, Note_on_c, 0, 80, 90
2, 282960, Note_on_c, 0, 78, 90
2, 282960, Note_on_c, 0, 74, 90
2, 283080, Note_on_c, 0, 74, 0
2, 283080, Note_on_c, 0, 78, 0
2, 283080, Note_on_c, 0, 80, 0
2, 283200, Note_on_c, 0, 81, 97
2, 283200, Note_on_c, 0, 74, 87
2, 283200, Note_on_c, 0, 78, 87
2, 283440, Note_on_c, 0, 81, 0
2, 283440, Note_on_c, 0, 83, 89
2, 283680, Note_on_c, 0, 83, 0
2, 283680, Note_on_c, 0, 78, 0
2, 283680, Note_on_c, 0, 74, 0
2, 283680, Note_on_c, 0, 74, 93
2, 283680, Note_on_c, 0, 78, 93
2, 283800, Note_on_c, 0, 78, 0
2, 283800, Note_on_c, 0, 74, 0
2, 283920, Note_on_c, 0, 80, 93
2, 283920, Note_on_c, 0, 74, 93
2, 283920, Note_on_c, 0, 78, 93
2, 284040, Note_on_c, 0, 78, 0
2, 284040, Note_on_c, 0, 74, 0
2, 284040, Note_on_c, 0, 80, 0
2, 284160, Note_on_c, 0, 69, 87
2, 284160, Note_on_c, 0, 74, 87
2, 284160, Note_on_c, 0, 76, 87
2, 284160, Note_on_c, 0, 81, 97
2, 284400, Note_on_c, 0, 81, 0
2, 284400, Note_on_c, 0, 69, 0
2, 284400, Note_on_c, 0, 74, 0
2, 284400, Note_on_c, 0, 76, 0
2, 284640, Note_on_c, 0, 76, 75
2, 284640, Note_on_c, 0, 69, 75
2, 284640, Note_on_c, 0, 73, 75
2, 284640, Note_on_c, 0, 81, 84
2, 284880, Note_on_c, 0, 81, 0
2, 284880, Note_on_c, 0, 76, 0
2, 284880, Note_on_c, 0, 69, 0
2, 284880, Note_on_c, 0, 73, 0
2, 285000, Note_on_c, 0, 69, 75
2, 285000, Note_on_c, 0, 76, 75
2, 285000, Note_on_c, 0, 73, 75
2, 285000, Note_on_c, 0, 81, 84
2, 285120, Note_on_c, 0, 81, 0
2, 285120, Note_on_c, 0, 69, 0
2, 285120, Note_on_c, 0, 76, 0
2, 285120, Note_on_c, 0, 73, 0
2, 285120, Note_on_c, 0, 69, 75
2, 285120, Note_on_c, 0, 76, 75
2, 285120, Note_on_c, 0, 73, 75
2, 285120, Note_on_c, 0, 81, 84
2, 285600, Note_on_c, 0, 81, 0
2, 285600, Note_on_c, 0, 69, 0
2, 285600, Note_on_c, 0, 76, 0
2, 285600, Note_on_c, 0, 73, 0
2, 285840, Note_on_c, 0, 85, 89
2, 285920, Note_on_c, 0, 85, 0
2, 285920, Note_on_c, 0, 86, 89
2, 286000, Note_on_c, 0, 86, 0
2, 286000, Note_on_c, 0, 85, 89
2, 286080, Note_on_c, 0, 85, 0
2, 286080, Note_on_c, 0, 83, 96
2, 286320, Note_on_c, 0, 86, 96
2, 286560, Note_on_c, 0, 86, 0
2, 286560, Note_on_c, 0, 83, 0
2, 286560, Note_on_c, 0, 86, 89
2, 286560, Note_on_c, 0, 91, 99
2, 286560, Note_on_c, 0, 83, 89
2, 286680, Note_on_c, 0, 83, 0
2, 286680, Note_on_c, 0, 91, 0
2, 286680, Note_on_c, 0, 86, 0
2, 286800, Note_on_c, 0, 86, 81
2, 286800, Note_on_c, 0, 95, 91
2, 286800, Note_on_c, 0, 83, 81
2, 286920, Note_on_c, 0, 83, 0
2, 286920, Note_on_c, 0, 95, 0
2, 286920, Note_on_c, 0, 86, 0
2, 287040, Note_on_c, 0, 93, 97
2, 287040, Note_on_c, 0, 83, 76
2, 287280, Note_on_c, 0, 93, 0
2, 287280, Note_on_c, 0, 91, 86
2, 287520, Note_on_c, 0, 91, 0
2, 287520, Note_on_c, 0, 83, 0
2, 287520, Note_on_c, 0, 83, 86
2, 287520, Note_on_c, 0, 79, 86
2, 287640, Note_on_c, 0, 79, 0
2, 287640, Note_on_c, 0, 83, 0
2, 287760, Note_on_c, 0, 83, 86
2, 287760, Note_on_c, 0, 86, 86
2, 287760, Note_on_c, 0, 79, 76
2, 287880, Note_on_c, 0, 79, 0
2, 287880, Note_on_c, 0, 86, 0
2, 287880, Note_on_c, 0, 83, 0
2, 288000, Note_on_c, 0, 90, 90
2, 288000, Note_on_c, 0, 86, 80
2, 288000, Note_on_c, 0, 83, 80
2, 288000, Note_on_c, 0, 79, 80
2, 288240, Note_on_c, 0, 79, 0
2, 288240, Note_on_c, 0, 90, 0
2, 288240, Note_on_c, 0, 86, 0
2, 288240, Note_on_c, 0, 83, 0
2, 288480, Note_on_c, 0, 90, 80
2, 288480, Note_on_c, 0, 86, 72
2, 288480, Note_on_c, 0, 83, 72
2, 288480, Note_on_c, 0, 79, 72
2, 288720, Note_on_c, 0, 79, 0
2, 288720, Note_on_c, 0, 90, 0
2, 288720, Note_on_c, 0, 86, 0
2, 288720, Note_on_c, 0, 83, 0
2, 288840, Note_on_c, 0, 90, 80
2, 288840, Note_on_c, 0, 86, 72
2, 288840, Note_on_c, 0, 83, 72
2, 288840, Note_on_c, 0, 79, 72
2, 288960, Note_on_c, 0, 79, 0
2, 288960, Note_on_c, 0, 90, 0
2, 288960, Note_on_c, 0, 86, 0
2, 288960, Note_on_c, 0, 83, 0
2, 288960, Note_on_c, 0, 90, 80
2, 288960, Note_on_c, 0, 86, 72
2, 288960, Note_on_c, 0, 83, 72
2, 288960, Note_on_c, 0, 79, 72
2, 289440, Note_on_c, 0, 79, 0
2, 289440, Note_on_c, 0, 90, 0
2, 289440, Note_on_c, 0, 86, 0
2, 289440, Note_on_c, 0, 83, 0
2, 289440, Note_on_c, 0, 83, 86
2, 289440, Note_on_c, 0, 79, 86
2, 289560, Note_on_c, 0, 79, 0
2, 289560, Note_on_c, 0, 83, 0
2, 289680, Note_on_c, 0, 85, 86
2, 289680, Note_on_c, 0, 83, 86
2, 289680, Note_on_c, 0, 79, 86
2, 289800, Note_on_c, 0, 79, 0
2, 289800, Note_on_c, 0, 83, 0
2, 289800, Note_on_c, 0, 85, 0
2, 289920, Note_on_c, 0, 86, 96
2, 289920, Note_on_c, 0, 79, 86
2, 289920, Note_on_c, 0, 83, 86
2, 290160, Note_on_c, 0, 86, 0
2, 290160, Note_on_c, 0, 88, 86
2, 290400, Note_on_c, 0, 88, 0
2, 290400, Note_on_c, 0, 83, 0
2, 290400, Note_on_c, 0, 79, 0
2, 290400, Note_on_c, 0, 83, 91
2, 290400, Note_on_c, 0, 79, 91
2, 290520, Note_on_c, 0, 79, 0
2, 290520, Note_on_c, 0, 83, 0
2, 290640, Note_on_c, 0, 85, 89
2, 290640, Note_on_c, 0, 83, 89
2, 290640, Note_on_c, 0, 79, 89
2, 290760, Note_on_c, 0, 79, 0
2, 290760, Note_on_c, 0, 83, 0
2, 290760, Note_on_c, 0, 85, 0
2, 290880, Note_on_c, 0, 86, 96
2, 290880, Note_on_c, 0, 83, 86
2, 290880, Note_on_c, 0, 79, 86
2, 291120, Note_on_c, 0, 86, 0
2, 291120, Note_on_c, 0, 88, 89
2, 291360, Note_on_c, 0, 88, 0
2, 291360, Note_on_c, 0, 79, 0
2, 291360, Note_on_c, 0, 83, 0
2, 291360, Note_on_c, 0, 83, 91
2, 291360, Note_on_c, 0, 79, 91
2, 291480, Note_on_c, 0, 79, 0
2, 291480, Note_on_c, 0, 83, 0
2, 291600, Note_on_c, 0, 85, 91
2, 291600, Note_on_c, 0, 83, 91
2, 291600, Note_on_c, 0, 79, 91
2, 291720, Note_on_c, 0, 79, 0
2, 291720, Note_on_c, 0, 83, 0
2, 291720, Note_on_c, 0, 85, 0
2, 291840, Note_on_c, 0, 74, 84
2, 291840, Note_on_c, 0, 86, 94
2, 291840, Note_on_c, 0, 81, 84
2, 291840, Note_on_c, 0, 79, 84
2, 292080, Note_on_c, 0, 79, 0
2, 292080, Note_on_c, 0, 74, 0
2, 292080, Note_on_c, 0, 86, 0
2, 292080, Note_on_c, 0, 81, 0
2, 292320, Note_on_c, 0, 81, 73
2, 292320, Note_on_c, 0, 74, 73
2, 292320, Note_on_c, 0, 86, 81
2, 292320, Note_on_c, 0, 78, 73
2, 292560, Note_on_c, 0, 78, 0
2, 292560, Note_on_c, 0, 81, 0
2, 292560, Note_on_c, 0, 74, 0
2, 292560, Note_on_c, 0, 86, 0
2, 292680, Note_on_c, 0, 81, 73
2, 292680, Note_on_c, 0, 74, 73
2, 292680, Note_on_c, 0, 86, 81
2, 292680, Note_on_c, 0, 78, 73
2, 292800, Note_on_c, 0, 78, 0
2, 292800, Note_on_c, 0, 81, 0
2, 292800, Note_on_c, 0, 74, 0
2, 292800, Note_on_c, 0, 86, 0
2, 292800, Note_on_c, 0, 81, 73
2, 292800, Note_on_c, 0, 74, 73
2, 292800, Note_on_c, 0, 86, 81
2, 292800, Note_on_c, 0, 78, 73
2, 293040, Note_on_c, 0, 78, 0
2, 293040, Note_on_c, 0, 81, 0
2, 293040, Note_on_c, 0, 74, 0
2, 293040, Note_on_c, 0, 86, 0
2, 293280, Control_c, 0, 91, 127
2, 293520, Note_on_c, 0, 86, 71
2, 293600, Note_on_c, 0, 86, 0
2, 293600, Note_on_c, 0, 88, 71
2, 293680, Note_on_c, 0, 88, 0
2, 293680, Note_on_c, 0, 86, 71
2, 293760, Note_on_c, 0, 86, 0
2, 293880, Note_on_c, 0, 84, 72
2, 293880, Note_on_c, 0, 78, 72
2, 294000, Note_on_c, 0, 78, 0
2, 294000, Note_on_c, 0, 84, 0
2, 294120, Note_on_c, 0, 88, 72
2, 294120, Note_on_c, 0, 84, 72
2, 294120, Note_on_c, 0, 78, 72
2, 294240, Note_on_c, 0, 78, 0
2, 294240, Note_on_c, 0, 84, 0
2, 294240, Note_on_c, 0, 88, 0
2, 294360, Note_on_c, 0, 86, 72
2, 294360, Note_on_c, 0, 84, 72
2, 294360, Note_on_c, 0, 78, 72
2, 294480, Note_on_c, 0, 78, 0
2, 294480, Note_on_c, 0, 84, 0
2, 294480, Note_on_c, 0, 86, 0
2, 294600, Note_on_c, 0, 90, 72
2, 294600, Note_on_c, 0, 84, 72
2, 294600, Note_on_c, 0, 78, 72
2, 294720, Note_on_c, 0, 78, 0
2, 294720, Note_on_c, 0, 84, 0
2, 294720, Note_on_c, 0, 90, 0
2, 294840, Note_on_c, 0, 84, 72
2, 294840, Note_on_c, 0, 78, 72
2, 294960, Note_on_c, 0, 78, 0
2, 294960, Note_on_c, 0, 84, 0
2, 295080, Note_on_c, 0, 88, 72
2, 295080, Note_on_c, 0, 84, 72
2, 295080, Note_on_c, 0, 78, 72
2, 295200, Note_on_c, 0, 78, 0
2, 295200, Note_on_c, 0, 84, 0
2, 295200, Note_on_c, 0, 88, 0
2, 295320, Note_on_c, 0, 86, 72
2, 295320, Note_on_c, 0, 84, 72
2, 295320, Note_on_c, 0, 78, 72
2, 295440, Note_on_c, 0, 78, 0
2, 295440, Note_on_c, 0, 84, 0
2, 295440, Note_on_c, 0, 86, 0
2, 295560, Note_on_c, 0, 90, 72
2, 295560, Note_on_c, 0, 84, 72
2, 295560, Note_on_c, 0, 78, 72
2, 295680, Note_on_c, 0, 78, 0
2, 295680, Note_on_c, 0, 84, 0
2, 295680, Note_on_c, 0, 90, 0
2, 295680, Note_on_c, 0, 83, 84
2, 295680, Note_on_c, 0, 81, 84
2, 295680, Note_on_c, 0, 86, 84
2, 295920, Note_on_c, 0, 86, 0
2, 295920, Note_on_c, 0, 81, 0
2, 295920, Note_on_c, 0, 83, 0
2, 296160, Note_on_c, 0, 83, 72
2, 296160, Note_on_c, 0, 79, 72
2, 296160, Note_on_c, 0, 86, 72
2, 296400, Note_on_c, 0, 86, 0
2, 296400, Note_on_c, 0, 79, 0
2, 296400, Note_on_c, 0, 83, 0
2, 296520, Note_on_c, 0, 83, 72
2, 296520, Note_on_c, 0, 86, 72
2, 296520, Note_on_c, 0, 79, 72
2, 296640, Note_on_c, 0, 79, 0
2, 296640, Note_on_c, 0, 86, 0
2, 296640, Note_on_c, 0, 83, 0
2, 296640, Note_on_c, 0, 83, 72
2, 296640, Note_on_c, 0, 86, 72
2, 296640, Note_on_c, 0, 79, 72
2, 297120, Note_on_c, 0, 79, 0
2, 297120, Note_on_c, 0, 86, 0
2, 297120, Note_on_c, 0, 83, 0
2, 297127, Control_c, 0, 91, 127
2, 297360, Note_on_c, 0, 81, 63
2, 297440, Note_on_c, 0, 81, 0
2, 297441, Note_on_c, 0, 83, 63
2, 297519, Note_on_c, 0, 81, 63
2, 297521, Note_on_c, 0, 83, 0
2, 297599, Note_on_c, 0, 81, 0
2, 297720, Note_on_c, 0, 79, 64
2, 297720, Note_on_c, 0, 73, 64
2, 297840, Note_on_c, 0, 73, 0
2, 297840, Note_on_c, 0, 79, 0
2, 297960, Note_on_c, 0, 83, 64
2, 297960, Note_on_c, 0, 79, 64
2, 297960, Note_on_c, 0, 73, 64
2, 298080, Note_on_c, 0, 73, 0
2, 298080, Note_on_c, 0, 79, 0
2, 298080, Note_on_c, 0, 83, 0
2, 298200, Note_on_c, 0, 79, 64
2, 298200, Note_on_c, 0, 81, 64
2, 298200, Note_on_c, 0, 73, 64
2, 298320, Note_on_c, 0, 73, 0
2, 298320, Note_on_c, 0, 81, 0
2, 298320, Note_on_c, 0, 79, 0
2, 298440, Note_on_c, 0, 85, 64
2, 298440, Note_on_c, 0, 79, 64
2, 298440, Note_on_c, 0, 73, 64
2, 298560, Note_on_c, 0, 73, 0
2, 298560, Note_on_c, 0, 79, 0
2, 298560, Note_on_c, 0, 85, 0
2, 298680, Note_on_c, 0, 73, 63
2, 298680, Note_on_c, 0, 79, 63
2, 298800, Note_on_c, 0, 79, 0
2, 298800, Note_on_c, 0, 73, 0
2, 298920, Note_on_c, 0, 83, 63
2, 298920, Note_on_c, 0, 79, 63
2, 298920, Note_on_c, 0, 73, 63
2, 299040, Note_on_c, 0, 73, 0
2, 299040, Note_on_c, 0, 79, 0
2, 299040, Note_on_c, 0, 83, 0
2, 299160, Note_on_c, 0, 73, 63
2, 299160, Note_on_c, 0, 79, 63
2, 299160, Note_on_c, 0, 81, 63
2, 299280, Note_on_c, 0, 81, 0
2, 299280, Note_on_c, 0, 79, 0
2, 299280, Note_on_c, 0, 73, 0
2, 299400, Note_on_c, 0, 79, 63
2, 299400, Note_on_c, 0, 85, 63
2, 299400, Note_on_c, 0, 73, 63
2, 299520, Note_on_c, 0, 73, 0
2, 299520, Note_on_c, 0, 85, 0
2, 299520, Note_on_c, 0, 79, 0
2, 299520, Note_on_c, 0, 81, 70
2, 299520, Note_on_c, 0, 78, 70
2, 299520, Note_on_c, 0, 76, 70
2, 299760, Note_on_c, 0, 76, 0
2, 299760, Note_on_c, 0, 78, 0
2, 299760, Note_on_c, 0, 81, 0
2, 300000, Note_on_c, 0, 81, 64
2, 300000, Note_on_c, 0, 78, 64
2, 300000, Note_on_c, 0, 74, 64
2, 300240, Note_on_c, 0, 74, 0
2, 300240, Note_on_c, 0, 78, 0
2, 300240, Note_on_c, 0, 81, 0
2, 300360, Note_on_c, 0, 81, 64
2, 300360, Note_on_c, 0, 78, 64
2, 300360, Note_on_c, 0, 74, 64
2, 300480, Note_on_c, 0, 74, 0
2, 300480, Note_on_c, 0, 78, 0
2, 300480, Note_on_c, 0, 81, 0
2, 300480, Note_on_c, 0, 81, 64
2, 300480, Note_on_c, 0, 78, 64
2, 300480, Note_on_c, 0, 74, 64
2, 300960, Note_on_c, 0, 74, 0
2, 300960, Note_on_c, 0, 78, 0
2, 300960, Note_on_c, 0, 81, 0
2, 300967, Control_c, 0, 91, 127
2, 301200, Note_on_c, 0, 74, 50
2, 301280, Note_on_c, 0, 74, 0
2, 301280, Note_on_c, 0, 76, 50
2, 301360, Note_on_c, 0, 76, 0
2, 301360, Note_on_c, 0, 74, 50
2, 301440, Note_on_c, 0, 74, 0
2, 301560, Note_on_c, 0, 72, 51
2, 301560, Note_on_c, 0, 66, 51
2, 301680, Note_on_c, 0, 66, 0
2, 301680, Note_on_c, 0, 72, 0
2, 301800, Note_on_c, 0, 76, 51
2, 301800, Note_on_c, 0, 72, 51
2, 301800, Note_on_c, 0, 66, 51
2, 301920, Note_on_c, 0, 66, 0
2, 301920, Note_on_c, 0, 72, 0
2, 301920, Note_on_c, 0, 76, 0
2, 302040, Note_on_c, 0, 72, 51
2, 302040, Note_on_c, 0, 74, 51
2, 302040, Note_on_c, 0, 66, 51
2, 302160, Note_on_c, 0, 66, 0
2, 302160, Note_on_c, 0, 74, 0
2, 302160, Note_on_c, 0, 72, 0
2, 302280, Note_on_c, 0, 78, 51
2, 302280, Note_on_c, 0, 72, 51
2, 302280, Note_on_c, 0, 66, 51
2, 302400, Note_on_c, 0, 66, 0
2, 302400, Note_on_c, 0, 72, 0
2, 302400, Note_on_c, 0, 78, 0
2, 302520, Note_on_c, 0, 66, 50
2, 302520, Note_on_c, 0, 72, 50
2, 302640, Note_on_c, 0, 72, 0
2, 302640, Note_on_c, 0, 66, 0
2, 302760, Note_on_c, 0, 76, 50
2, 302760, Note_on_c, 0, 72, 50
2, 302760, Note_on_c, 0, 66, 50
2, 302880, Note_on_c, 0, 66, 0
2, 302880, Note_on_c, 0, 72, 0
2, 302880, Note_on_c, 0, 76, 0
2, 303000, Note_on_c, 0, 66, 50
2, 303000, Note_on_c, 0, 72, 50
2, 303000, Note_on_c, 0, 74, 50
2, 303120, Note_on_c, 0, 74, 0
2, 303120, Note_on_c, 0, 72, 0
2, 303120, Note_on_c, 0, 66, 0
2, 303240, Note_on_c, 0, 72, 50
2, 303240, Note_on_c, 0, 78, 50
2, 303240, Note_on_c, 0, 66, 50
2, 303360, Note_on_c, 0, 66, 0
2, 303360, Note_on_c, 0, 78, 0
2, 303360, Note_on_c, 0, 72, 0
2, 303360, Note_on_c, 0, 74, 60
2, 303360, Note_on_c, 0, 71, 60
2, 303360, Note_on_c, 0, 69, 60
2, 303600, Note_on_c, 0, 69, 0
2, 303600, Note_on_c, 0, 71, 0
2, 303600, Note_on_c, 0, 74, 0
2, 303840, Note_on_c, 0, 74, 51
2, 303840, Note_on_c, 0, 71, 51
2, 303840, Note_on_c, 0, 67, 51
2, 304080, Note_on_c, 0, 67, 0
2, 304080, Note_on_c, 0, 71, 0
2, 304080, Note_on_c, 0, 74, 0
2, 304200, Note_on_c, 0, 74, 51
2, 304200, Note_on_c, 0, 71, 51
2, 304200, Note_on_c, 0, 67, 51
2, 304320, Note_on_c, 0, 67, 0
2, 304320, Note_on_c, 0, 71, 0
2, 304320, Note_on_c, 0, 74, 0
2, 304320, Note_on_c, 0, 74, 51
2, 304320, Note_on_c, 0, 71, 51
2, 304320, Note_on_c, 0, 67, 51
2, 304800, Note_on_c, 0, 67, 0
2, 304800, Note_on_c, 0, 71, 0
2, 304800, Note_on_c, 0, 74, 0
2, 304807, Control_c, 0, 91, 127
2, 305040, Note_on_c, 0, 69, 47
2, 305120, Note_on_c, 0, 69, 0
2, 305121, Note_on_c, 0, 71, 47
2, 305199, Note_on_c, 0, 69, 47
2, 305201, Note_on_c, 0, 71, 0
2, 305279, Note_on_c, 0, 69, 0
2, 305400, Note_on_c, 0, 67, 47
2, 305400, Note_on_c, 0, 61, 47
2, 305520, Note_on_c, 0, 61, 0
2, 305520, Note_on_c, 0, 67, 0
2, 305640, Note_on_c, 0, 71, 47
2, 305640, Note_on_c, 0, 67, 47
2, 305640, Note_on_c, 0, 61, 47
2, 305760, Note_on_c, 0, 61, 0
2, 305760, Note_on_c, 0, 67, 0
2, 305760, Note_on_c, 0, 71, 0
2, 305880, Note_on_c, 0, 67, 47
2, 305880, Note_on_c, 0, 69, 47
2, 305880, Note_on_c, 0, 61, 47
2, 306000, Note_on_c, 0, 61, 0
2, 306000, Note_on_c, 0, 69, 0
2, 306000, Note_on_c, 0, 67, 0
2, 306120, Note_on_c, 0, 73, 47
2, 306120, Note_on_c, 0, 67, 47
2, 306120, Note_on_c, 0, 61, 47
2, 306240, Note_on_c, 0, 61, 0
2, 306240, Note_on_c, 0, 67, 0
2, 306240, Note_on_c, 0, 73, 0
2, 306360, Note_on_c, 0, 61, 47
2, 306360, Note_on_c, 0, 67, 47
2, 306480, Note_on_c, 0, 67, 0
2, 306480, Note_on_c, 0, 61, 0
2, 306600, Note_on_c, 0, 71, 47
2, 306600, Note_on_c, 0, 67, 47
2, 306600, Note_on_c, 0, 61, 47
2, 306720, Note_on_c, 0, 61, 0
2, 306720, Note_on_c, 0, 67, 0
2, 306720, Note_on_c, 0, 71, 0
2, 306840, Note_on_c, 0, 61, 47
2, 306840, Note_on_c, 0, 67, 47
2, 306840, Note_on_c, 0, 69, 47
2, 306960, Note_on_c, 0, 69, 0
2, 306960, Note_on_c, 0, 67, 0
2, 306960, Note_on_c, 0, 61, 0
2, 307080, Note_on_c, 0, 67, 47
2, 307080, Note_on_c, 0, 73, 47
2, 307080, Note_on_c, 0, 61, 47
2, 307200, Note_on_c, 0, 61, 0
2, 307200, Note_on_c, 0, 73, 0
2, 307200, Note_on_c, 0, 67, 0
2, 307200, Note_on_c, 0, 69, 55
2, 307200, Note_on_c, 0, 66, 55
2, 307200, Note_on_c, 0, 64, 55
2, 307440, Note_on_c, 0, 64, 0
2, 307440, Note_on_c, 0, 66, 0
2, 307440, Note_on_c, 0, 69, 0
2, 307680, Note_on_c, 0, 69, 47
2, 307680, Note_on_c, 0, 66, 47
2, 307680, Note_on_c, 0, 62, 47
2, 307920, Note_on_c, 0, 62, 0
2, 307920, Note_on_c, 0, 66, 0
2, 307920, Note_on_c, 0, 69, 0
2, 308040, Note_on_c, 0, 69, 47
2, 308040, Note_on_c, 0, 66, 47
2, 308040, Note_on_c, 0, 62, 47
2, 308160, Note_on_c, 0, 62, 0
2, 308160, Note_on_c, 0, 66, 0
2, 308160, Note_on_c, 0, 69, 0
2, 308160, Note_on_c, 0, 69, 47
2, 308160, Note_on_c, 0, 66, 47
2, 308160, Note_on_c, 0, 62, 47
2, 308640, Note_on_c, 0, 62, 0
2, 308640, Note_on_c, 0, 66, 0
2, 308640, Note_on_c, 0, 69, 0
2, 309120, Note_on_c, 0, 62, 45
2, 309120, Note_on_c, 0, 59, 45
2, 309120, Note_on_c, 0, 57, 45
2, 309360, Note_on_c, 0, 57, 0
2, 309360, Note_on_c, 0, 59, 0
2, 309360, Note_on_c, 0, 62, 0
2, 309600, Note_on_c, 0, 62, 42
2, 309600, Note_on_c, 0, 59, 42
2, 309600, Note_on_c, 0, 55, 42
2, 309840, Note_on_c, 0, 55, 0
2, 309840, Note_on_c, 0, 59, 0
2, 309840, Note_on_c, 0, 62, 0
2, 309960, Note_on_c, 0, 62, 42
2, 309960, Note_on_c, 0, 59, 42
2, 309960, Note_on_c, 0, 55, 42
2, 310080, Note_on_c, 0, 55, 0
2, 310080, Note_on_c, 0, 59, 0
2, 310080, Note_on_c, 0, 62, 0
2, 310080, Note_on_c, 0, 62, 42
2, 310080, Note_on_c, 0, 59, 42
2, 310080, Note_on_c, 0, 55, 42
2, 310560, Note_on_c, 0, 55, 0
2, 310560, Note_on_c, 0, 59, 0
2, 310560, Note_on_c, 0, 62, 0
2, 311040, Control_c, 0, 91, 127
2, 311520, Note_on_c, 0, 52, 35
2, 311520, Note_on_c, 0, 57, 35
2, 311520, Note_on_c, 0, 54, 35
2, 311640, Note_on_c, 0, 54, 0
2, 311640, Note_on_c, 0, 57, 0
2, 311640, Note_on_c, 0, 52, 0
2, 312480, Note_on_c, 0, 50, 35
2, 312480, Note_on_c, 0, 57, 35
2, 312480, Note_on_c, 0, 54, 35
2, 312600, Note_on_c, 0, 54, 0
2, 312600, Note_on_c, 0, 57, 0
2, 312600, Note_on_c, 0, 50, 0
2, 313440, Note_on_c, 0, 45, 35
2, 313440, Note_on_c, 0, 47, 35
2, 313440, Note_on_c, 0, 50, 35
2, 313560, Note_on_c, 0, 50, 0
2, 313560, Note_on_c, 0, 47, 0
2, 313560, Note_on_c, 0, 45, 0
2, 314400, Note_on_c, 0, 43, 35
2, 314400, Note_on_c, 0, 47, 35
2, 314400, Note_on_c, 0, 50, 35
2, 314520, Note_on_c, 0, 50, 0
2, 314520, Note_on_c, 0, 47, 0
2, 314520, Note_on_c, 0, 43, 0
2, 315360, Note_on_c, 0, 50, 35
2, 315360, Note_on_c, 0, 43, 35
2, 315600, Note_on_c, 0, 43, 0
2, 315600, Note_on_c, 0, 50, 0
2, 316320, Note_on_c, 0, 62, 35
2, 316320, Note_on_c, 0, 55, 35
2, 316560, Note_on_c, 0, 55, 0
2, 316560, Note_on_c, 0, 62, 0
2, 317280, Note_on_c, 0, 74, 37
2, 317280, Note_on_c, 0, 67, 37
2, 317520, Note_on_c, 0, 67, 0
2, 317520, Note_on_c, 0, 74, 0
2, 318240, Note_on_c, 0, 86, 39
2, 318240, Note_on_c, 0, 79, 39
2, 318480, Note_on_c, 0, 79, 0
2, 318480, Note_on_c, 0, 86, 0
2, 319200, Note_on_c, 0, 86, 39
2, 319200, Note_on_c, 0, 79, 39
2, 319440, Note_on_c, 0, 79, 0
2, 319440, Note_on_c, 0, 86, 0
2, 320160, Note_on_c, 0, 67, 37
2, 320160, Note_on_c, 0, 74, 37
2, 320400, Note_on_c, 0, 74, 0
2, 320400, Note_on_c, 0, 67, 0
2, 321120, Note_on_c, 0, 55, 35
2, 321120, Note_on_c, 0, 62, 35
2, 321360, Note_on_c, 0, 62, 0
2, 321360, Note_on_c, 0, 55, 0
2, 322080, Note_on_c, 0, 43, 34
2, 322080, Note_on_c, 0, 50, 34
2, 322320, Note_on_c, 0, 50, 0
2, 322320, Note_on_c, 0, 43, 0
2, 323520, Note_on_c, 0, 31, 30
2, 323520, Note_on_c, 0, 38, 30
2, 323760, Note_on_c, 0, 38, 0
2, 323760, Note_on_c, 0, 31, 0
2, 324480, Note_on_c, 0, 86, 126
2, 324480, Note_on_c, 0, 81, 94
2, 324480, Note_on_c, 0, 78, 93
2, 324480, Note_on_c, 0, 74, 93
2, 324840, Note_on_c, 0, 74, 0
2, 324840, Note_on_c, 0, 86, 0
2, 324840, Note_on_c, 0, 81, 0
2, 324840, Note_on_c, 0, 78, 0
2, 324840, End_track
3, 0, Start_track
3, 0, Title_t, "Piano left"
3, 0, Program_c, 0, 0
3, 0, Control_c, 0, 7, 100
3, 0, Control_c, 0, 10, 64
3, 0, Control_c, 0, 91, 127
3, 0, Note_on_c, 0, 38, 36
3, 0, Note_on_c, 0, 45, 36
3, 240, Note_on_c, 0, 45, 0
3, 240, Note_on_c, 0, 38, 0
3, 1440, Note_on_c, 0, 38, 31
3, 1440, Note_on_c, 0, 45, 31
3, 1680, Note_on_c, 0, 45, 0
3, 1680, Note_on_c, 0, 38, 0
3, 1680, Note_on_c, 0, 45, 31
3, 1680, Note_on_c, 0, 38, 31
3, 1920, Note_on_c, 0, 38, 0
3, 1920, Note_on_c, 0, 45, 0
3, 1920, Note_on_c, 0, 38, 36
3, 1920, Note_on_c, 0, 45, 36
3, 2160, Note_on_c, 0, 45, 0
3, 2160, Note_on_c, 0, 38, 0
3, 3360, Note_on_c, 0, 38, 31
3, 3360, Note_on_c, 0, 45, 31
3, 3600, Note_on_c, 0, 45, 0
3, 3600, Note_on_c, 0, 38, 0
3, 3600, Note_on_c, 0, 45, 31
3, 3600, Note_on_c, 0, 38, 31
3, 3840, Note_on_c, 0, 38, 0
3, 3840, Note_on_c, 0, 45, 0
3, 3840, Note_on_c, 0, 45, 35
3, 3840, Note_on_c, 0, 38, 35
3, 4080, Note_on_c, 0, 38, 0
3, 4080, Note_on_c, 0, 45, 0
3, 4320, Note_on_c, 0, 50, 31
3, 4320, Note_on_c, 0, 57, 31
3, 4380, Note_on_c, 0, 57, 0
3, 4380, Note_on_c, 0, 50, 0
3, 4560, Note_on_c, 0, 50, 31
3, 4560, Note_on_c, 0, 57, 31
3, 4620, Note_on_c, 0, 57, 0
3, 4620, Note_on_c, 0, 50, 0
3, 4800, Note_on_c, 0, 50, 35
3, 4800, Note_on_c, 0, 57, 35
3, 5040, Note_on_c, 0, 57, 0
3, 5040, Note_on_c, 0, 50, 0
3, 5280, Note_on_c, 0, 38, 31
3, 5280, Note_on_c, 0, 45, 31
3, 5340, Note_on_c, 0, 45, 0
3, 5340, Note_on_c, 0, 38, 0
3, 5520, Note_on_c, 0, 38, 31
3, 5520, Note_on_c, 0, 45, 31
3, 5580, Note_on_c, 0, 45, 0
3, 5580, Note_on_c, 0, 38, 0
3, 5760, Note_on_c, 0, 45, 35
3, 5760, Note_on_c, 0, 38, 35
3, 6240, Note_on_c, 0, 38, 0
3, 6240, Note_on_c, 0, 45, 0
3, 6240, Note_on_c, 0, 50, 33
3, 6240, Note_on_c, 0, 57, 33
3, 6480, Note_on_c, 0, 57, 0
3, 6480, Note_on_c, 0, 50, 0
3, 6600, Note_on_c, 0, 50, 33
3, 6600, Note_on_c, 0, 57, 33
3, 6720, Note_on_c, 0, 57, 0
3, 6720, Note_on_c, 0, 50, 0
3, 6720, Note_on_c, 0, 57, 33
3, 6720, Note_on_c, 0, 50, 33
3, 7200, Note_on_c, 0, 50, 0
3, 7200, Note_on_c, 0, 57, 0
3, 7680, Note_on_c, 0, 35, 34
3, 7680, Note_on_c, 0, 42, 34
3, 8160, Note_on_c, 0, 42, 0
3, 8160, Note_on_c, 0, 35, 0
3, 8160, Note_on_c, 0, 54, 31
3, 8160, Note_on_c, 0, 47, 31
3, 8220, Note_on_c, 0, 47, 0
3, 8220, Note_on_c, 0, 54, 0
3, 8400, Note_on_c, 0, 47, 31
3, 8400, Note_on_c, 0, 54, 31
3, 8460, Note_on_c, 0, 54, 0
3, 8460, Note_on_c, 0, 47, 0
3, 8640, Note_on_c, 0, 40, 34
3, 8640, Note_on_c, 0, 47, 34
3, 9120, Note_on_c, 0, 47, 0
3, 9120, Note_on_c, 0, 40, 0
3, 9120, Note_on_c, 0, 52, 31
3, 9120, Note_on_c, 0, 59, 31
3, 9240, Note_on_c, 0, 59, 0
3, 9240, Note_on_c, 0, 52, 0
3, 9360, Note_on_c, 0, 52, 31
3, 9360, Note_on_c, 0, 59, 31
3, 9420, Note_on_c, 0, 59, 0
3, 9420, Note_on_c, 0, 52, 0
3, 9600, Note_on_c, 0, 33, 35
3, 9600, Note_on_c, 0, 40, 35
3, 10080, Note_on_c, 0, 40, 0
3, 10080, Note_on_c, 0, 33, 0
3, 10080, Note_on_c, 0, 57, 33
3, 10080, Note_on_c, 0, 64, 33
3, 10320, Note_on_c, 0, 64, 0
3, 10320, Note_on_c, 0, 57, 0
3, 10440, Note_on_c, 0, 64, 33
3, 10440, Note_on_c, 0, 57, 33
3, 10560, Note_on_c, 0, 57, 0
3, 10560, Note_on_c, 0, 64, 0
3, 10560, Note_on_c, 0, 64, 33
3, 10560, Note_on_c, 0, 57, 33
3, 10800, Note_on_c, 0, 57, 0
3, 10800, Note_on_c, 0, 64, 0
3, 11520, Note_on_c, 0, 43, 39
3, 11520, Note_on_c, 0, 50, 39
3, 12000, Note_on_c, 0, 50, 0
3, 12000, Note_on_c, 0, 43, 0
3, 12000, Note_on_c, 0, 62, 38
3, 12000, Note_on_c, 0, 55, 38
3, 12060, Note_on_c, 0, 55, 0
3, 12060, Note_on_c, 0, 62, 0
3, 12240, Note_on_c, 0, 55, 38
3, 12240, Note_on_c, 0, 62, 38
3, 12300, Note_on_c, 0, 62, 0
3, 12300, Note_on_c, 0, 55, 0
3, 12480, Note_on_c, 0, 55, 41
3, 12480, Note_on_c, 0, 62, 41
3, 12960, Note_on_c, 0, 62, 0
3, 12960, Note_on_c, 0, 55, 0
3, 13440, Note_on_c, 0, 40, 36
3, 13440, Note_on_c, 0, 47, 36
3, 13920, Note_on_c, 0, 47, 0
3, 13920, Note_on_c, 0, 40, 0
3, 13920, Note_on_c, 0, 59, 34
3, 13920, Note_on_c, 0, 52, 34
3, 14160, Note_on_c, 0, 52, 0
3, 14160, Note_on_c, 0, 59, 0
3, 14280, Note_on_c, 0, 52, 34
3, 14280, Note_on_c, 0, 59, 34
3, 14400, Note_on_c, 0, 59, 0
3, 14400, Note_on_c, 0, 52, 0
3, 14400, Note_on_c, 0, 52, 36
3, 14400, Note_on_c, 0, 59, 36
3, 14880, Note_on_c, 0, 59, 0
3, 14880, Note_on_c, 0, 52, 0
3, 15360, Note_on_c, 0, 45, 39
3, 15360, Note_on_c, 0, 52, 39
3, 15840, Note_on_c, 0, 52, 0
3, 15840, Note_on_c, 0, 45, 0
3, 15840, Note_on_c, 0, 64, 36
3, 15840, Note_on_c, 0, 57, 36
3, 15900, Note_on_c, 0, 57, 0
3, 15900, Note_on_c, 0, 64, 0
3, 16080, Note_on_c, 0, 57, 36
3, 16080, Note_on_c, 0, 64, 36
3, 16140, Note_on_c, 0, 64, 0
3, 16140, Note_on_c, 0, 57, 0
3, 16320, Note_on_c, 0, 57, 39
3, 16320, Note_on_c, 0, 64, 39
3, 16800, Note_on_c, 0, 64, 0
3, 16800, Note_on_c, 0, 57, 0
3, 17280, Note_on_c, 0, 45, 39
3, 17280, Note_on_c, 0, 38, 39
3, 17760, Note_on_c, 0, 38, 0
3, 17760, Note_on_c, 0, 45, 0
3, 17760, Note_on_c, 0, 69, 36
3, 17760, Note_on_c, 0, 62, 36
3, 18000, Note_on_c, 0, 62, 0
3, 18000, Note_on_c, 0, 69, 0
3, 18120, Note_on_c, 0, 69, 36
3, 18120, Note_on_c, 0, 62, 36
3, 18240, Note_on_c, 0, 62, 0
3, 18240, Note_on_c, 0, 69, 0
3, 18240, Note_on_c, 0, 62, 36
3, 18240, Note_on_c, 0, 69, 36
3, 18720, Note_on_c, 0, 69, 0
3, 18720, Note_on_c, 0, 62, 0
3, 18720, Note_on_c, 0, 50, 27
3, 18720, Note_on_c, 0, 57, 27
3, 18960, Note_on_c, 0, 57, 0
3, 18960, Note_on_c, 0, 50, 0
3, 18960, Note_on_c, 0, 50, 27
3, 18960, Note_on_c, 0, 57, 27
3, 19200, Note_on_c, 0, 57, 0
3, 19200, Note_on_c, 0, 50, 0
3, 19200, Control_c, 0, 91, 127
3, 19200, Note_on_c, 0, 50, 31
3, 19200, Note_on_c, 0, 57, 31
3, 19440, Note_on_c, 0, 57, 0
3, 19440, Note_on_c, 0, 50, 0
3, 20640, Note_on_c, 0, 50, 27
3, 20640, Note_on_c, 0, 57, 27
3, 20880, Note_on_c, 0, 57, 0
3, 20880, Note_on_c, 0, 50, 0
3, 20880, Note_on_c, 0, 50, 27
3, 20880, Note_on_c, 0, 57, 27
3, 21120, Note_on_c, 0, 57, 0
3, 21120, Note_on_c, 0, 50, 0
3, 21120, Note_on_c, 0, 57, 30
3, 21120, Note_on_c, 0, 50, 30
3, 21360, Note_on_c, 0, 50, 0
3, 21360, Note_on_c, 0, 57, 0
3, 22560, Note_on_c, 0, 50, 27
3, 22560, Note_on_c, 0, 57, 27
3, 22800, Note_on_c, 0, 57, 0
3, 22800, Note_on_c, 0, 50, 0
3, 22800, Note_on_c, 0, 50, 27
3, 22800, Note_on_c, 0, 57, 27
3, 23040, Note_on_c, 0, 57, 0
3, 23040, Note_on_c, 0, 50, 0
3, 23040, Note_on_c, 0, 50, 31
3, 23040, Note_on_c, 0, 57, 31
3, 23280, Note_on_c, 0, 57, 0
3, 23280, Note_on_c, 0, 50, 0
3, 23520, Note_on_c, 0, 62, 27
3, 23520, Note_on_c, 0, 69, 27
3, 23580, Note_on_c, 0, 69, 0
3, 23580, Note_on_c, 0, 62, 0
3, 23760, Note_on_c, 0, 69, 27
3, 23760, Note_on_c, 0, 62, 27
3, 23820, Note_on_c, 0, 62, 0
3, 23820, Note_on_c, 0, 69, 0
3, 24000, Note_on_c, 0, 62, 31
3, 24000, Note_on_c, 0, 69, 31
3, 24240, Note_on_c, 0, 69, 0
3, 24240, Note_on_c, 0, 62, 0
3, 24480, Note_on_c, 0, 57, 27
3, 24480, Note_on_c, 0, 50, 27
3, 24540, Note_on_c, 0, 50, 0
3, 24540, Note_on_c, 0, 57, 0
3, 24720, Note_on_c, 0, 57, 27
3, 24720, Note_on_c, 0, 50, 27
3, 24780, Note_on_c, 0, 50, 0
3, 24780, Note_on_c, 0, 57, 0
3, 24960, Note_on_c, 0, 50, 31
3, 24960, Note_on_c, 0, 57, 31
3, 25440, Note_on_c, 0, 57, 0
3, 25440, Note_on_c, 0, 50, 0
3, 25440, Note_on_c, 0, 62, 30
3, 25440, Note_on_c, 0, 69, 30
3, 25680, Note_on_c, 0, 69, 0
3, 25680, Note_on_c, 0, 62, 0
3, 25800, Note_on_c, 0, 62, 30
3, 25800, Note_on_c, 0, 69, 30
3, 25920, Note_on_c, 0, 69, 0
3, 25920, Note_on_c, 0, 62, 0
3, 25920, Note_on_c, 0, 69, 30
3, 25920, Note_on_c, 0, 62, 30
3, 26400, Note_on_c, 0, 62, 0
3, 26400, Note_on_c, 0, 69, 0
3, 26880, Note_on_c, 0, 47, 30
3, 26880, Note_on_c, 0, 54, 30
3, 27360, Note_on_c, 0, 54, 0
3, 27360, Note_on_c, 0, 47, 0
3, 27360, Note_on_c, 0, 66, 27
3, 27360, Note_on_c, 0, 59, 27
3, 27420, Note_on_c, 0, 59, 0
3, 27420, Note_on_c, 0, 66, 0
3, 27600, Note_on_c, 0, 59, 27
3, 27600, Note_on_c, 0, 66, 27
3, 27660, Note_on_c, 0, 66, 0
3, 27660, Note_on_c, 0, 59, 0
3, 27840, Note_on_c, 0, 52, 30
3, 27840, Note_on_c, 0, 59, 30
3, 28320, Note_on_c, 0, 59, 0
3, 28320, Note_on_c, 0, 52, 0
3, 28320, Note_on_c, 0, 64, 27
3, 28320, Note_on_c, 0, 71, 27
3, 28380, Note_on_c, 0, 71, 0
3, 28380, Note_on_c, 0, 64, 0
3, 28560, Note_on_c, 0, 71, 27
3, 28560, Note_on_c, 0, 64, 27
3, 28620, Note_on_c, 0, 64, 0
3, 28620, Note_on_c, 0, 71, 0
3, 28800, Note_on_c, 0, 57, 30
3, 28800, Note_on_c, 0, 64, 30
3, 29280, Note_on_c, 0, 64, 0
3, 29280, Note_on_c, 0, 57, 0
3, 29280, Note_on_c, 0, 69, 28
3, 29280, Note_on_c, 0, 76, 28
3, 29520, Note_on_c, 0, 76, 0
3, 29520, Note_on_c, 0, 69, 0
3, 29640, Note_on_c, 0, 76, 28
3, 29640, Note_on_c, 0, 69, 28
3, 29760, Note_on_c, 0, 69, 0
3, 29760, Note_on_c, 0, 76, 0
3, 29760, Note_on_c, 0, 76, 28
3, 29760, Note_on_c, 0, 69, 28
3, 30000, Note_on_c, 0, 69, 0
3, 30000, Note_on_c, 0, 76, 0
3, 30720, Note_on_c, 0, 55, 35
3, 30720, Note_on_c, 0, 62, 35
3, 31200, Note_on_c, 0, 62, 0
3, 31200, Note_on_c, 0, 55, 0
3, 31200, Note_on_c, 0, 67, 33
3, 31200, Note_on_c, 0, 74, 33
3, 31260, Note_on_c, 0, 74, 0
3, 31260, Note_on_c, 0, 67, 0
3, 31440, Note_on_c, 0, 74, 33
3, 31440, Note_on_c, 0, 67, 33
3, 31500, Note_on_c, 0, 67, 0
3, 31500, Note_on_c, 0, 74, 0
3, 31680, Note_on_c, 0, 67, 36
3, 31680, Note_on_c, 0, 74, 36
3, 32160, Note_on_c, 0, 74, 0
3, 32160, Note_on_c, 0, 67, 0
3, 32640, Note_on_c, 0, 52, 33
3, 32640, Note_on_c, 0, 59, 33
3, 33120, Note_on_c, 0, 59, 0
3, 33120, Note_on_c, 0, 52, 0
3, 33120, Note_on_c, 0, 71, 29
3, 33120, Note_on_c, 0, 64, 29
3, 33360, Note_on_c, 0, 64, 0
3, 33360, Note_on_c, 0, 71, 0
3, 33480, Note_on_c, 0, 64, 29
3, 33480, Note_on_c, 0, 71, 29
3, 33600, Note_on_c, 0, 71, 0
3, 33600, Note_on_c, 0, 64, 0
3, 33600, Note_on_c, 0, 71, 33
3, 33600, Note_on_c, 0, 64, 33
3, 34080, Note_on_c, 0, 64, 0
3, 34080, Note_on_c, 0, 71, 0
3, 34560, Note_on_c, 0, 57, 34
3, 34560, Note_on_c, 0, 64, 34
3, 35040, Note_on_c, 0, 64, 0
3, 35040, Note_on_c, 0, 57, 0
3, 35040, Note_on_c, 0, 76, 33
3, 35040, Note_on_c, 0, 69, 33
3, 35100, Note_on_c, 0, 69, 0
3, 35100, Note_on_c, 0, 76, 0
3, 35280, Note_on_c, 0, 69, 33
3, 35280, Note_on_c, 0, 76, 33
3, 35340, Note_on_c, 0, 76, 0
3, 35340, Note_on_c, 0, 69, 0
3, 35520, Note_on_c, 0, 69, 35
3, 35520, Note_on_c, 0, 76, 35
3, 36000, Note_on_c, 0, 76, 0
3, 36000, Note_on_c, 0, 69, 0
3, 36480, Note_on_c, 0, 69, 34
3, 36480, Note_on_c, 0, 62, 34
3, 36960, Note_on_c, 0, 62, 0
3, 36960, Note_on_c, 0, 69, 0
3, 36960, Note_on_c, 0, 81, 33
3, 36960, Note_on_c, 0, 74, 33
3, 37200, Note_on_c, 0, 74, 0
3, 37200, Note_on_c, 0, 81, 0
3, 37320, Note_on_c, 0, 81, 33
3, 37320, Note_on_c, 0, 74, 33
3, 37440, Note_on_c, 0, 74, 0
3, 37440, Note_on_c, 0, 81, 0
3, 37440, Note_on_c, 0, 74, 33
3, 37440, Note_on_c, 0, 81, 33
3, 37920, Note_on_c, 0, 81, 0
3, 37920, Note_on_c, 0, 74, 0
3, 38400, Control_c, 0, 91, 127
3, 38400, Note_on_c, 0, 45, 80
3, 38400, Note_on_c, 0, 52, 80
3, 38880, Note_on_c, 0, 52, 0
3, 38880, Note_on_c, 0, 45, 0
3, 38880, Note_on_c, 0, 45, 72
3, 38880, Note_on_c, 0, 52, 72
3, 39000, Note_on_c, 0, 52, 0
3, 39000, Note_on_c, 0, 45, 0
3, 39120, Note_on_c, 0, 52, 72
3, 39120, Note_on_c, 0, 45, 72
3, 39240, Note_on_c, 0, 45, 0
3, 39240, Note_on_c, 0, 52, 0
3, 39360, Note_on_c, 0, 45, 80
3, 39360, Note_on_c, 0, 52, 80
3, 39840, Note_on_c, 0, 52, 0
3, 39840, Note_on_c, 0, 45, 0
3, 39840, Note_on_c, 0, 45, 72
3, 39840, Note_on_c, 0, 52, 72
3, 39960, Note_on_c, 0, 52, 0
3, 39960, Note_on_c, 0, 45, 0
3, 40080, Note_on_c, 0, 45, 72
3, 40080, Note_on_c, 0, 52, 72
3, 40200, Note_on_c, 0, 52, 0
3, 40200, Note_on_c, 0, 45, 0
3, 40320, Note_on_c, 0, 45, 71
3, 40320, Note_on_c, 0, 52, 71
3, 40800, Note_on_c, 0, 52, 0
3, 40800, Note_on_c, 0, 45, 0
3, 40800, Note_on_c, 0, 45, 64
3, 40800, Note_on_c, 0, 52, 64
3, 41040, Note_on_c, 0, 52, 0
3, 41040, Note_on_c, 0, 45, 0
3, 41040, Note_on_c, 0, 45, 64
3, 41040, Note_on_c, 0, 52, 64
3, 41160, Note_on_c, 0, 52, 0
3, 41160, Note_on_c, 0, 45, 0
3, 41280, Note_on_c, 0, 45, 71
3, 41280, Note_on_c, 0, 52, 71
3, 41760, Note_on_c, 0, 52, 0
3, 41760, Note_on_c, 0, 45, 0
3, 41760, Note_on_c, 0, 45, 64
3, 41760, Note_on_c, 0, 52, 64
3, 42000, Note_on_c, 0, 52, 0
3, 42000, Note_on_c, 0, 45, 0
3, 42000, Note_on_c, 0, 45, 64
3, 42000, Note_on_c, 0, 52, 64
3, 42120, Note_on_c, 0, 52, 0
3, 42120, Note_on_c, 0, 45, 0
3, 44160, Note_on_c, 0, 56, 59
3, 44640, Note_on_c, 0, 56, 0
3, 46080, Note_on_c, 0, 43, 33
3, 46080, Note_on_c, 0, 52, 33
3, 46200, Note_on_c, 0, 52, 0
3, 46200, Note_on_c, 0, 43, 0
3, 46200, Note_on_c, 0, 55, 33
3, 46320, Note_on_c, 0, 55, 0
3, 46320, Note_on_c, 0, 60, 33
3, 46440, Note_on_c, 0, 60, 0
3, 46440, Note_on_c, 0, 64, 33
3, 46560, Note_on_c, 0, 64, 0
3, 47040, Note_on_c, 0, 43, 33
3, 47040, Note_on_c, 0, 50, 33
3, 47160, Note_on_c, 0, 50, 0
3, 47160, Note_on_c, 0, 43, 0
3, 47160, Note_on_c, 0, 55, 33
3, 47280, Note_on_c, 0, 55, 0
3, 47280, Note_on_c, 0, 59, 33
3, 47400, Note_on_c, 0, 59, 0
3, 47400, Note_on_c, 0, 65, 33
3, 47520, Note_on_c, 0, 65, 0
3, 48000, Note_on_c, 0, 36, 33
3, 48000, Note_on_c, 0, 43, 33
3, 48480, Note_on_c, 0, 43, 0
3, 48480, Note_on_c, 0, 36, 0
3, 48480, Note_on_c, 0, 48, 30
3, 48480, Note_on_c, 0, 55, 30
3, 48600, Note_on_c, 0, 55, 0
3, 48600, Note_on_c, 0, 48, 0
3, 48720, Note_on_c, 0, 48, 30
3, 48720, Note_on_c, 0, 55, 30
3, 48840, Note_on_c, 0, 55, 0
3, 48840, Note_on_c, 0, 48, 0
3, 48960, Note_on_c, 0, 48, 33
3, 48960, Note_on_c, 0, 55, 33
3, 49320, Note_on_c, 0, 55, 0
3, 49320, Note_on_c, 0, 48, 0
3, 49440, Note_on_c, 0, 55, 72
3, 49440, Note_on_c, 0, 48, 72
3, 49560, Note_on_c, 0, 48, 0
3, 49560, Note_on_c, 0, 55, 0
3, 49680, Note_on_c, 0, 48, 72
3, 49680, Note_on_c, 0, 55, 72
3, 49800, Note_on_c, 0, 55, 0
3, 49800, Note_on_c, 0, 48, 0
3, 49920, Note_on_c, 0, 48, 71
3, 49920, Note_on_c, 0, 55, 71
3, 50400, Note_on_c, 0, 55, 0
3, 50400, Note_on_c, 0, 48, 0
3, 50400, Note_on_c, 0, 55, 64
3, 50400, Note_on_c, 0, 48, 64
3, 50640, Note_on_c, 0, 48, 0
3, 50640, Note_on_c, 0, 55, 0
3, 50640, Note_on_c, 0, 48, 64
3, 50640, Note_on_c, 0, 55, 64
3, 50760, Note_on_c, 0, 55, 0
3, 50760, Note_on_c, 0, 48, 0
3, 50880, Note_on_c, 0, 55, 71
3, 50880, Note_on_c, 0, 48, 71
3, 51360, Note_on_c, 0, 48, 0
3, 51360, Note_on_c, 0, 55, 0
3, 51360, Note_on_c, 0, 55, 64
3, 51360, Note_on_c, 0, 48, 64
3, 51600, Note_on_c, 0, 48, 0
3, 51600, Note_on_c, 0, 55, 0
3, 51600, Note_on_c, 0, 55, 64
3, 51600, Note_on_c, 0, 48, 64
3, 51720, Note_on_c, 0, 48, 0
3, 51720, Note_on_c, 0, 55, 0
3, 53760, Note_on_c, 0, 59, 59
3, 54240, Note_on_c, 0, 59, 0
3, 55680, Note_on_c, 0, 46, 33
3, 55680, Note_on_c, 0, 55, 33
3, 55800, Note_on_c, 0, 55, 0
3, 55800, Note_on_c, 0, 46, 0
3, 55800, Note_on_c, 0, 58, 33
3, 55920, Note_on_c, 0, 58, 0
3, 55920, Note_on_c, 0, 63, 33
3, 56040, Note_on_c, 0, 63, 0
3, 56040, Note_on_c, 0, 67, 33
3, 56160, Note_on_c, 0, 67, 0
3, 56640, Note_on_c, 0, 53, 33
3, 56640, Note_on_c, 0, 46, 33
3, 56760, Note_on_c, 0, 46, 0
3, 56760, Note_on_c, 0, 53, 0
3, 56760, Note_on_c, 0, 58, 33
3, 56880, Note_on_c, 0, 58, 0
3, 56880, Note_on_c, 0, 62, 33
3, 57000, Note_on_c, 0, 62, 0
3, 57000, Note_on_c, 0, 68, 33
3, 57120, Note_on_c, 0, 68, 0
3, 57600, Note_on_c, 0, 46, 33
3, 57600, Note_on_c, 0, 39, 33
3, 58080, Note_on_c, 0, 39, 0
3, 58080, Note_on_c, 0, 46, 0
3, 58080, Note_on_c, 0, 58, 30
3, 58080, Note_on_c, 0, 51, 30
3, 58200, Note_on_c, 0, 51, 0
3, 58200, Note_on_c, 0, 58, 0
3, 58320, Note_on_c, 0, 58, 30
3, 58320, Note_on_c, 0, 51, 30
3, 58440, Note_on_c, 0, 51, 0
3, 58440, Note_on_c, 0, 58, 0
3, 58560, Note_on_c, 0, 58, 33
3, 58560, Note_on_c, 0, 51, 33
3, 59040, Note_on_c, 0, 51, 0
3, 59040, Note_on_c, 0, 58, 0
3, 59040, Control_c, 0, 91, 127
3, 59040, Note_on_c, 0, 46, 27
3, 59040, Note_on_c, 0, 51, 27
3, 59160, Note_on_c, 0, 51, 0
3, 59160, Note_on_c, 0, 46, 0
3, 59280, Note_on_c, 0, 39, 23
3, 59400, Note_on_c, 0, 39, 0
3, 59520, Note_on_c, 0, 46, 23
3, 59520, Note_on_c, 0, 51, 23
3, 59640, Note_on_c, 0, 51, 0
3, 59640, Note_on_c, 0, 46, 0
3, 59760, Note_on_c, 0, 39, 26
3, 59880, Note_on_c, 0, 39, 0
3, 60000, Note_on_c, 0, 46, 29
3, 60000, Note_on_c, 0, 51, 29
3, 60120, Note_on_c, 0, 51, 0
3, 60120, Note_on_c, 0, 46, 0
3, 60240, Note_on_c, 0, 39, 27
3, 60360, Note_on_c, 0, 39, 0
3, 60480, Note_on_c, 0, 46, 27
3, 60480, Note_on_c, 0, 51, 27
3, 60600, Note_on_c, 0, 51, 0
3, 60600, Note_on_c, 0, 46, 0
3, 60720, Note_on_c, 0, 39, 28
3, 60840, Note_on_c, 0, 39, 0
3, 60960, Note_on_c, 0, 46, 35
3, 60960, Note_on_c, 0, 51, 35
3, 61080, Note_on_c, 0, 51, 0
3, 61080, Note_on_c, 0, 46, 0
3, 61200, Note_on_c, 0, 39, 30
3, 61320, Note_on_c, 0, 39, 0
3, 61440, Note_on_c, 0, 46, 30
3, 61440, Note_on_c, 0, 51, 30
3, 61560, Note_on_c, 0, 51, 0
3, 61560, Note_on_c, 0, 46, 0
3, 61680, Note_on_c, 0, 39, 30
3, 61800, Note_on_c, 0, 39, 0
3, 61920, Note_on_c, 0, 46, 36
3, 61920, Note_on_c, 0, 51, 36
3, 62040, Note_on_c, 0, 51, 0
3, 62040, Note_on_c, 0, 46, 0
3, 62160, Note_on_c, 0, 39, 33
3, 62280, Note_on_c, 0, 39, 0
3, 62400, Note_on_c, 0, 46, 33
3, 62400, Note_on_c, 0, 51, 33
3, 62520, Note_on_c, 0, 51, 0
3, 62520, Note_on_c, 0, 46, 0
3, 62640, Note_on_c, 0, 39, 33
3, 62760, Note_on_c, 0, 39, 0
3, 62880, Control_c, 0, 91, 127
3, 62880, Note_on_c, 0, 48, 33
3, 62880, Note_on_c, 0, 51, 33
3, 63000, Note_on_c, 0, 51, 0
3, 63000, Note_on_c, 0, 48, 0
3, 63120, Note_on_c, 0, 39, 30
3, 63240, Note_on_c, 0, 39, 0
3, 63360, Note_on_c, 0, 48, 31
3, 63360, Note_on_c, 0, 51, 31
3, 63480, Note_on_c, 0, 51, 0
3, 63480, Note_on_c, 0, 48, 0
3, 63600, Note_on_c, 0, 39, 30
3, 63720, Note_on_c, 0, 39, 0
3, 63840, Note_on_c, 0, 48, 34
3, 63840, Note_on_c, 0, 51, 34
3, 63960, Note_on_c, 0, 51, 0
3, 63960, Note_on_c, 0, 48, 0
3, 64080, Note_on_c, 0, 39, 31
3, 64200, Note_on_c, 0, 39, 0
3, 64320, Note_on_c, 0, 48, 32
3, 64320, Note_on_c, 0, 51, 32
3, 64440, Note_on_c, 0, 51, 0
3, 64440, Note_on_c, 0, 48, 0
3, 64560, Note_on_c, 0, 39, 32
3, 64680, Note_on_c, 0, 39, 0
3, 64800, Note_on_c, 0, 48, 40
3, 64800, Note_on_c, 0, 51, 40
3, 64920, Note_on_c, 0, 51, 0
3, 64920, Note_on_c, 0, 48, 0
3, 65040, Note_on_c, 0, 39, 34
3, 65160, Note_on_c, 0, 39, 0
3, 65280, Note_on_c, 0, 48, 35
3, 65280, Note_on_c, 0, 51, 35
3, 65400, Note_on_c, 0, 51, 0
3, 65400, Note_on_c, 0, 48, 0
3, 65520, Note_on_c, 0, 39, 35
3, 65640, Note_on_c, 0, 39, 0
3, 65760, Note_on_c, 0, 48, 42
3, 65760, Note_on_c, 0, 51, 42
3, 65880, Note_on_c, 0, 51, 0
3, 65880, Note_on_c, 0, 48, 0
3, 66000, Note_on_c, 0, 39, 37
3, 66120, Note_on_c, 0, 39, 0
3, 66240, Note_on_c, 0, 48, 38
3, 66240, Note_on_c, 0, 51, 38
3, 66360, Note_on_c, 0, 51, 0
3, 66360, Note_on_c, 0, 48, 0
3, 66480, Note_on_c, 0, 39, 38
3, 66600, Note_on_c, 0, 39, 0
3, 66720, Control_c, 0, 91, 127
3, 66720, Note_on_c, 0, 44, 44
3, 66720, Note_on_c, 0, 54, 44
3, 66840, Note_on_c, 0, 54, 0
3, 66840, Note_on_c, 0, 44, 0
3, 66960, Note_on_c, 0, 39, 42
3, 67080, Note_on_c, 0, 39, 0
3, 67200, Note_on_c, 0, 44, 44
3, 67200, Note_on_c, 0, 54, 44
3, 67320, Note_on_c, 0, 54, 0
3, 67320, Note_on_c, 0, 44, 0
3, 67440, Note_on_c, 0, 39, 39
3, 67560, Note_on_c, 0, 39, 0
3, 67680, Note_on_c, 0, 44, 45
3, 67680, Note_on_c, 0, 54, 45
3, 67800, Note_on_c, 0, 54, 0
3, 67800, Note_on_c, 0, 44, 0
3, 67920, Note_on_c, 0, 39, 42
3, 68040, Note_on_c, 0, 39, 0
3, 68160, Note_on_c, 0, 44, 42
3, 68160, Note_on_c, 0, 54, 42
3, 68280, Note_on_c, 0, 54, 0
3, 68280, Note_on_c, 0, 44, 0
3, 68400, Note_on_c, 0, 39, 44
3, 68520, Note_on_c, 0, 39, 0
3, 68640, Note_on_c, 0, 44, 48
3, 68640, Note_on_c, 0, 54, 48
3, 68760, Note_on_c, 0, 54, 0
3, 68760, Note_on_c, 0, 44, 0
3, 68880, Note_on_c, 0, 39, 42
3, 69000, Note_on_c, 0, 39, 0
3, 69120, Note_on_c, 0, 44, 47
3, 69120, Note_on_c, 0, 54, 47
3, 69240, Note_on_c, 0, 54, 0
3, 69240, Note_on_c, 0, 44, 0
3, 69360, Note_on_c, 0, 39, 44
3, 69480, Note_on_c, 0, 39, 0
3, 69600, Note_on_c, 0, 44, 50
3, 69600, Note_on_c, 0, 54, 50
3, 69720, Note_on_c, 0, 54, 0
3, 69720, Note_on_c, 0, 44, 0
3, 69840, Note_on_c, 0, 39, 46
3, 69960, Note_on_c, 0, 39, 0
3, 70080, Note_on_c, 0, 44, 46
3, 70080, Note_on_c, 0, 54, 46
3, 70200, Note_on_c, 0, 54, 0
3, 70200, Note_on_c, 0, 44, 0
3, 70320, Note_on_c, 0, 39, 46
3, 70440, Note_on_c, 0, 39, 0
3, 70560, Control_c, 0, 91, 127
3, 70560, Note_on_c, 0, 44, 50
3, 70560, Note_on_c, 0, 53, 50
3, 70680, Note_on_c, 0, 53, 0
3, 70680, Note_on_c, 0, 44, 0
3, 70800, Note_on_c, 0, 39, 46
3, 70920, Note_on_c, 0, 39, 0
3, 71040, Note_on_c, 0, 44, 48
3, 71040, Note_on_c, 0, 53, 48
3, 71160, Note_on_c, 0, 53, 0
3, 71160, Note_on_c, 0, 44, 0
3, 71280, Note_on_c, 0, 39, 46
3, 71400, Note_on_c, 0, 39, 0
3, 71520, Note_on_c, 0, 44, 51
3, 71520, Note_on_c, 0, 53, 51
3, 71640, Note_on_c, 0, 53, 0
3, 71640, Note_on_c, 0, 44, 0
3, 71760, Note_on_c, 0, 39, 47
3, 71880, Note_on_c, 0, 39, 0
3, 72000, Note_on_c, 0, 44, 50
3, 72000, Note_on_c, 0, 53, 50
3, 72120, Note_on_c, 0, 53, 0
3, 72120, Note_on_c, 0, 44, 0
3, 72240, Note_on_c, 0, 39, 47
3, 72360, Note_on_c, 0, 39, 0
3, 72480, Note_on_c, 0, 44, 60
3, 72480, Note_on_c, 0, 53, 60
3, 72600, Note_on_c, 0, 53, 0
3, 72600, Note_on_c, 0, 44, 0
3, 72720, Note_on_c, 0, 39, 50
3, 72840, Note_on_c, 0, 39, 0
3, 72960, Note_on_c, 0, 44, 56
3, 72960, Note_on_c, 0, 53, 56
3, 73080, Note_on_c, 0, 53, 0
3, 73080, Note_on_c, 0, 44, 0
3, 73200, Note_on_c, 0, 39, 51
3, 73320, Note_on_c, 0, 39, 0
3, 73440, Note_on_c, 0, 44, 59
3, 73440, Note_on_c, 0, 53, 59
3, 73560, Note_on_c, 0, 53, 0
3, 73560, Note_on_c, 0, 44, 0
3, 73680, Note_on_c, 0, 39, 53
3, 73800, Note_on_c, 0, 39, 0
3, 73920, Note_on_c, 0, 44, 57
3, 73920, Note_on_c, 0, 53, 57
3, 74040, Note_on_c, 0, 53, 0
3, 74040, Note_on_c, 0, 44, 0
3, 74160, Note_on_c, 0, 39, 53
3, 74280, Note_on_c, 0, 39, 0
3, 74400, Note_on_c, 0, 39, 60
3, 74400, Note_on_c, 0, 46, 60
3, 74400, Note_on_c, 0, 53, 60
3, 74640, Note_on_c, 0, 53, 0
3, 74640, Note_on_c, 0, 46, 0
3, 74640, Note_on_c, 0, 39, 0
3, 74640, Note_on_c, 0, 39, 55
3, 74640, Note_on_c, 0, 46, 55
3, 74640, Note_on_c, 0, 53, 55
3, 74880, Note_on_c, 0, 53, 0
3, 74880, Note_on_c, 0, 46, 0
3, 74880, Note_on_c, 0, 39, 0
3, 74880, Note_on_c, 0, 39, 57
3, 74880, Note_on_c, 0, 46, 57
3, 74880, Note_on_c, 0, 53, 57
3, 75360, Note_on_c, 0, 53, 0
3, 75360, Note_on_c, 0, 46, 0
3, 75360, Note_on_c, 0, 39, 0
3, 75360, Note_on_c, 0, 51, 53
3, 75360, Note_on_c, 0, 58, 53
3, 75360, Note_on_c, 0, 65, 53
3, 75600, Note_on_c, 0, 65, 0
3, 75600, Note_on_c, 0, 58, 0
3, 75600, Note_on_c, 0, 51, 0
3, 75600, Note_on_c, 0, 51, 53
3, 75600, Note_on_c, 0, 58, 53
3, 75600, Note_on_c, 0, 65, 53
3, 75840, Note_on_c, 0, 65, 0
3, 75840, Note_on_c, 0, 58, 0
3, 75840, Note_on_c, 0, 51, 0
3, 75840, Note_on_c, 0, 51, 61
3, 75840, Note_on_c, 0, 58, 61
3, 75840, Note_on_c, 0, 65, 61
3, 76320, Note_on_c, 0, 65, 0
3, 76320, Note_on_c, 0, 58, 0
3, 76320, Note_on_c, 0, 51, 0
3, 76320, Note_on_c, 0, 39, 59
3, 76320, Note_on_c, 0, 46, 59
3, 76320, Note_on_c, 0, 53, 59
3, 76560, Note_on_c, 0, 53, 0
3, 76560, Note_on_c, 0, 46, 0
3, 76560, Note_on_c, 0, 39, 0
3, 76560, Note_on_c, 0, 39, 55
3, 76560, Note_on_c, 0, 46, 55
3, 76560, Note_on_c, 0, 53, 55
3, 76800, Note_on_c, 0, 53, 0
3, 76800, Note_on_c, 0, 46, 0
3, 76800, Note_on_c, 0, 39, 0
3, 76800, Note_on_c, 0, 39, 59
3, 76800, Note_on_c, 0, 46, 59
3, 76800, Note_on_c, 0, 53, 59
3, 77280, Note_on_c, 0, 53, 0
3, 77280, Note_on_c, 0, 46, 0
3, 77280, Note_on_c, 0, 39, 0
3, 77280, Note_on_c, 0, 51, 61
3, 77280, Note_on_c, 0, 58, 61
3, 77280, Note_on_c, 0, 65, 61
3, 77520, Note_on_c, 0, 65, 0
3, 77520, Note_on_c, 0, 58, 0
3, 77520, Note_on_c, 0, 51, 0
3, 77520, Note_on_c, 0, 51, 56
3, 77520, Note_on_c, 0, 58, 56
3, 77520, Note_on_c, 0, 65, 56
3, 77760, Note_on_c, 0, 65, 0
3, 77760, Note_on_c, 0, 58, 0
3, 77760, Note_on_c, 0, 51, 0
3, 77760, Note_on_c, 0, 51, 64
3, 77760, Note_on_c, 0, 58, 64
3, 77760, Note_on_c, 0, 65, 64
3, 78240, Note_on_c, 0, 65, 0
3, 78240, Note_on_c, 0, 58, 0
3, 78240, Note_on_c, 0, 51, 0
3, 78240, Note_on_c, 0, 65, 75
3, 78240, Note_on_c, 0, 53, 75
3, 78360, Note_on_c, 0, 53, 0
3, 78360, Note_on_c, 0, 65, 0
3, 78480, Note_on_c, 0, 55, 75
3, 78480, Note_on_c, 0, 67, 75
3, 78600, Note_on_c, 0, 67, 0
3, 78600, Note_on_c, 0, 55, 0
3, 78720, Note_on_c, 0, 68, 82
3, 78720, Note_on_c, 0, 56, 82
3, 78840, Note_on_c, 0, 56, 0
3, 78840, Note_on_c, 0, 68, 0
3, 78960, Note_on_c, 0, 72, 75
3, 78960, Note_on_c, 0, 60, 75
3, 79080, Note_on_c, 0, 60, 0
3, 79080, Note_on_c, 0, 72, 0
3, 79200, Note_on_c, 0, 68, 75
3, 79200, Note_on_c, 0, 56, 75
3, 79320, Note_on_c, 0, 56, 0
3, 79320, Note_on_c, 0, 68, 0
3, 79440, Note_on_c, 0, 65, 75
3, 79440, Note_on_c, 0, 53, 75
3, 79560, Note_on_c, 0, 53, 0
3, 79560, Note_on_c, 0, 65, 0
3, 79680, Note_on_c, 0, 68, 82
3, 79680, Note_on_c, 0, 56, 82
3, 79920, Note_on_c, 0, 56, 0
3, 79920, Note_on_c, 0, 68, 0
3, 79920, Note_on_c, 0, 65, 75
3, 79920, Note_on_c, 0, 53, 75
3, 80160, Note_on_c, 0, 53, 0
3, 80160, Note_on_c, 0, 65, 0
3, 80160, Note_on_c, 0, 62, 75
3, 80160, Note_on_c, 0, 50, 75
3, 80400, Note_on_c, 0, 50, 0
3, 80400, Note_on_c, 0, 62, 0
3, 80400, Note_on_c, 0, 53, 75
3, 80400, Note_on_c, 0, 65, 75
3, 80640, Note_on_c, 0, 65, 0
3, 80640, Note_on_c, 0, 53, 0
3, 80640, Note_on_c, 0, 50, 82
3, 80640, Note_on_c, 0, 62, 82
3, 80880, Note_on_c, 0, 62, 0
3, 80880, Note_on_c, 0, 50, 0
3, 80880, Note_on_c, 0, 46, 75
3, 80880, Note_on_c, 0, 58, 75
3, 81120, Note_on_c, 0, 58, 0
3, 81120, Note_on_c, 0, 46, 0
3, 81120, Note_on_c, 0, 62, 75
3, 81120, Note_on_c, 0, 50, 75
3, 81360, Note_on_c, 0, 50, 0
3, 81360, Note_on_c, 0, 62, 0
3, 81360, Note_on_c, 0, 46, 75
3, 81360, Note_on_c, 0, 58, 75
3, 81600, Note_on_c, 0, 58, 0
3, 81600, Note_on_c, 0, 46, 0
3, 81600, Note_on_c, 0, 43, 82
3, 81600, Note_on_c, 0, 55, 82
3, 81840, Note_on_c, 0, 55, 0
3, 81840, Note_on_c, 0, 43, 0
3, 81840, Note_on_c, 0, 46, 75
3, 81840, Note_on_c, 0, 58, 75
3, 82080, Note_on_c, 0, 58, 0
3, 82080, Note_on_c, 0, 46, 0
3, 82080, Note_on_c, 0, 43, 75
3, 82080, Note_on_c, 0, 55, 75
3, 82320, Note_on_c, 0, 55, 0
3, 82320, Note_on_c, 0, 43, 0
3, 82320, Note_on_c, 0, 39, 75
3, 82320, Note_on_c, 0, 51, 75
3, 82560, Note_on_c, 0, 51, 0
3, 82560, Note_on_c, 0, 39, 0
3, 82560, Note_on_c, 0, 43, 85
3, 82560, Note_on_c, 0, 55, 85
3, 82800, Note_on_c, 0, 55, 0
3, 82800, Note_on_c, 0, 43, 0
3, 82800, Note_on_c, 0, 39, 79
3, 82800, Note_on_c, 0, 51, 79
3, 83040, Note_on_c, 0, 51, 0
3, 83040, Note_on_c, 0, 39, 0
3, 83040, Note_on_c, 0, 36, 79
3, 83040, Note_on_c, 0, 48, 79
3, 83280, Note_on_c, 0, 48, 0
3, 83280, Note_on_c, 0, 36, 0
3, 83280, Note_on_c, 0, 39, 79
3, 83280, Note_on_c, 0, 51, 79
3, 83520, Note_on_c, 0, 51, 0
3, 83520, Note_on_c, 0, 39, 0
3, 83520, Note_on_c, 0, 36, 85
3, 83520, Note_on_c, 0, 48, 85
3, 83760, Note_on_c, 0, 48, 0
3, 83760, Note_on_c, 0, 36, 0
3, 83760, Note_on_c, 0, 32, 81
3, 83760, Note_on_c, 0, 44, 81
3, 84000, Note_on_c, 0, 44, 0
3, 84000, Note_on_c, 0, 32, 0
3, 84000, Note_on_c, 0, 36, 86
3, 84000, Note_on_c, 0, 48, 86
3, 84240, Note_on_c, 0, 48, 0
3, 84240, Note_on_c, 0, 36, 0
3, 84240, Note_on_c, 0, 32, 95
3, 84240, Note_on_c, 0, 44, 95
3, 84480, Note_on_c, 0, 44, 0
3, 84480, Note_on_c, 0, 32, 0
3, 84480, Control_c, 0, 91, 127
3, 84480, Note_on_c, 0, 31, 90
3, 84480, Note_on_c, 0, 43, 107
3, 84960, Note_on_c, 0, 51, 88
3, 84960, Note_on_c, 0, 48, 74
3, 84960, Note_on_c, 0, 44, 74
3, 85440, Note_on_c, 0, 44, 0
3, 85440, Note_on_c, 0, 51, 0
3, 85440, Note_on_c, 0, 48, 0
3, 85440, Note_on_c, 0, 63, 88
3, 85440, Note_on_c, 0, 60, 74
3, 85440, Note_on_c, 0, 56, 74
3, 85920, Note_on_c, 0, 56, 0
3, 85920, Note_on_c, 0, 63, 0
3, 85920, Note_on_c, 0, 60, 0
3, 85920, Note_on_c, 0, 75, 88
3, 85920, Note_on_c, 0, 72, 74
3, 85920, Note_on_c, 0, 68, 74
3, 86400, Note_on_c, 0, 68, 0
3, 86400, Note_on_c, 0, 75, 0
3, 86400, Note_on_c, 0, 31, 0
3, 86400, Note_on_c, 0, 43, 0
3, 86400, Note_on_c, 0, 72, 0
3, 86400, Note_on_c, 0, 30, 90
3, 86400, Note_on_c, 0, 42, 107
3, 86880, Note_on_c, 0, 51, 88
3, 86880, Note_on_c, 0, 48, 74
3, 86880, Note_on_c, 0, 44, 74
3, 87360, Note_on_c, 0, 44, 0
3, 87360, Note_on_c, 0, 51, 0
3, 87360, Note_on_c, 0, 48, 0
3, 87360, Note_on_c, 0, 63, 88
3, 87360, Note_on_c, 0, 60, 74
3, 87360, Note_on_c, 0, 56, 74
3, 87840, Note_on_c, 0, 56, 0
3, 87840, Note_on_c, 0, 63, 0
3, 87840, Note_on_c, 0, 60, 0
3, 87840, Note_on_c, 0, 75, 88
3, 87840, Note_on_c, 0, 72, 74
3, 87840, Note_on_c, 0, 68, 74
3, 88320, Note_on_c, 0, 68, 0
3, 88320, Note_on_c, 0, 75, 0
3, 88320, Note_on_c, 0, 30, 0
3, 88320, Note_on_c, 0, 42, 0
3, 88320, Note_on_c, 0, 72, 0
3, 88320, Note_on_c, 0, 29, 93
3, 88320, Note_on_c, 0, 41, 110
3, 88800, Note_on_c, 0, 51, 88
3, 88800, Note_on_c, 0, 47, 74
3, 88800, Note_on_c, 0, 44, 74
3, 89280, Note_on_c, 0, 44, 0
3, 89280, Note_on_c, 0, 51, 0
3, 89280, Note_on_c, 0, 47, 0
3, 89280, Note_on_c, 0, 63, 88
3, 89280, Note_on_c, 0, 59, 74
3, 89280, Note_on_c, 0, 56, 74
3, 89760, Note_on_c, 0, 56, 0
3, 89760, Note_on_c, 0, 63, 0
3, 89760, Note_on_c, 0, 59, 0
3, 89760, Note_on_c, 0, 75, 88
3, 89760, Note_on_c, 0, 71, 74
3, 89760, Note_on_c, 0, 68, 74
3, 90240, Note_on_c, 0, 68, 0
3, 90240, Note_on_c, 0, 75, 0
3, 90240, Note_on_c, 0, 29, 0
3, 90240, Note_on_c, 0, 41, 0
3, 90240, Note_on_c, 0, 71, 0
3, 90240, Note_on_c, 0, 28, 93
3, 90240, Note_on_c, 0, 40, 110
3, 90720, Note_on_c, 0, 49, 88
3, 90720, Note_on_c, 0, 45, 74
3, 90720, Note_on_c, 0, 40, 74
3, 91200, Note_on_c, 0, 40, 0
3, 91200, Note_on_c, 0, 49, 0
3, 91200, Note_on_c, 0, 45, 0
3, 91200, Note_on_c, 0, 57, 74
3, 91200, Note_on_c, 0, 61, 88
3, 91200, Note_on_c, 0, 52, 74
3, 91680, Note_on_c, 0, 52, 0
3, 91680, Note_on_c, 0, 57, 0
3, 91680, Note_on_c, 0, 61, 0
3, 91680, Note_on_c, 0, 73, 88
3, 91680, Note_on_c, 0, 69, 74
3, 91680, Note_on_c, 0, 64, 74
3, 91920, Note_on_c, 0, 64, 0
3, 91920, Note_on_c, 0, 73, 0
3, 91920, Note_on_c, 0, 69, 0
3, 91920, Control_c, 0, 91, 127
3, 92160, Note_on_c, 0, 40, 0
3, 92160, Note_on_c, 0, 28, 0
3, 92160, Note_on_c, 0, 38, 79
3, 92160, Note_on_c, 0, 45, 79
3, 92280, Note_on_c, 0, 45, 0
3, 92280, Note_on_c, 0, 38, 0
3, 92280, Note_on_c, 0, 50, 68
3, 92400, Note_on_c, 0, 50, 0
3, 92400, Note_on_c, 0, 54, 68
3, 92520, Note_on_c, 0, 54, 0
3, 92520, Note_on_c, 0, 57, 68
3, 92640, Note_on_c, 0, 57, 0
3, 92640, Note_on_c, 0, 62, 70
3, 92736, Note_on_c, 0, 62, 0
3, 92736, Note_on_c, 0, 57, 70
3, 92832, Note_on_c, 0, 57, 0
3, 92832, Note_on_c, 0, 54, 69
3, 92928, Note_on_c, 0, 54, 0
3, 92928, Note_on_c, 0, 50, 68
3, 93024, Note_on_c, 0, 50, 0
3, 93024, Note_on_c, 0, 45, 68
3, 93120, Note_on_c, 0, 45, 0
3, 93120, Note_on_c, 0, 38, 64
3, 93216, Note_on_c, 0, 38, 0
3, 93216, Note_on_c, 0, 45, 69
3, 93312, Note_on_c, 0, 45, 0
3, 93312, Note_on_c, 0, 50, 70
3, 93408, Note_on_c, 0, 50, 0
3, 93408, Note_on_c, 0, 54, 71
3, 93504, Note_on_c, 0, 54, 0
3, 93504, Note_on_c, 0, 57, 73
3, 93600, Note_on_c, 0, 57, 0
3, 93600, Note_on_c, 0, 62, 75
3, 93840, Note_on_c, 0, 62, 0
3, 94080, Note_on_c, 0, 38, 77
3, 94080, Note_on_c, 0, 45, 77
3, 94080, Note_on_c, 0, 50, 77
3, 94320, Note_on_c, 0, 50, 0
3, 94320, Note_on_c, 0, 45, 0
3, 94320, Note_on_c, 0, 38, 0
3, 94320, Note_on_c, 0, 62, 68
3, 94320, Note_on_c, 0, 57, 68
3, 94320, Note_on_c, 0, 54, 68
3, 94800, Note_on_c, 0, 54, 0
3, 94800, Note_on_c, 0, 57, 0
3, 94800, Note_on_c, 0, 62, 0
3, 94800, Note_on_c, 0, 66, 68
3, 94800, Note_on_c, 0, 62, 68
3, 94800, Note_on_c, 0, 57, 68
3, 95280, Note_on_c, 0, 57, 0
3, 95280, Note_on_c, 0, 62, 0
3, 95280, Note_on_c, 0, 66, 0
3, 95280, Note_on_c, 0, 69, 68
3, 95280, Note_on_c, 0, 66, 68
3, 95280, Note_on_c, 0, 62, 68
3, 95520, Note_on_c, 0, 62, 0
3, 95520, Note_on_c, 0, 66, 0
3, 95520, Note_on_c, 0, 69, 0
3, 96000, Note_on_c, 0, 35, 66
3, 96080, Note_on_c, 0, 35, 0
3, 96080, Note_on_c, 0, 42, 59
3, 96160, Note_on_c, 0, 42, 0
3, 96160, Note_on_c, 0, 47, 59
3, 96240, Note_on_c, 0, 47, 0
3, 96240, Note_on_c, 0, 50, 59
3, 96320, Note_on_c, 0, 50, 0
3, 96320, Note_on_c, 0, 54, 59
3, 96400, Note_on_c, 0, 54, 0
3, 96400, Note_on_c, 0, 59, 59
3, 96480, Note_on_c, 0, 59, 0
3, 96480, Note_on_c, 0, 62, 59
3, 96720, Note_on_c, 0, 62, 0
3, 96960, Note_on_c, 0, 40, 66
3, 97056, Note_on_c, 0, 40, 0
3, 97056, Note_on_c, 0, 47, 59
3, 97152, Note_on_c, 0, 47, 0
3, 97152, Note_on_c, 0, 52, 59
3, 97248, Note_on_c, 0, 52, 0
3, 97248, Note_on_c, 0, 56, 59
3, 97344, Note_on_c, 0, 56, 0
3, 97344, Note_on_c, 0, 62, 59
3, 97440, Note_on_c, 0, 62, 0
3, 97440, Note_on_c, 0, 66, 59
3, 97680, Note_on_c, 0, 66, 0
3, 97920, Note_on_c, 0, 33, 75
3, 97920, Note_on_c, 0, 40, 75
3, 97920, Note_on_c, 0, 45, 75
3, 98160, Note_on_c, 0, 45, 0
3, 98160, Note_on_c, 0, 40, 0
3, 98160, Note_on_c, 0, 33, 0
3, 98160, Note_on_c, 0, 61, 64
3, 98160, Note_on_c, 0, 57, 64
3, 98160, Note_on_c, 0, 52, 64
3, 98640, Note_on_c, 0, 52, 0
3, 98640, Note_on_c, 0, 57, 0
3, 98640, Note_on_c, 0, 61, 0
3, 98640, Note_on_c, 0, 64, 64
3, 98640, Note_on_c, 0, 61, 64
3, 98640, Note_on_c, 0, 57, 64
3, 99120, Note_on_c, 0, 57, 0
3, 99120, Note_on_c, 0, 61, 0
3, 99120, Note_on_c, 0, 64, 0
3, 99120, Note_on_c, 0, 69, 64
3, 99120, Note_on_c, 0, 64, 64
3, 99120, Note_on_c, 0, 61, 64
3, 99360, Note_on_c, 0, 61, 0
3, 99360, Note_on_c, 0, 64, 0
3, 99360, Note_on_c, 0, 69, 0
3, 99840, Note_on_c, 0, 43, 65
3, 99840, Note_on_c, 0, 50, 65
3, 99960, Note_on_c, 0, 50, 0
3, 99960, Note_on_c, 0, 43, 0
3, 99960, Note_on_c, 0, 55, 57
3, 100080, Note_on_c, 0, 55, 0
3, 100080, Note_on_c, 0, 59, 57
3, 100200, Note_on_c, 0, 59, 0
3, 100200, Note_on_c, 0, 62, 57
3, 100320, Note_on_c, 0, 62, 0
3, 100320, Note_on_c, 0, 67, 65
3, 100416, Note_on_c, 0, 67, 0
3, 100416, Note_on_c, 0, 62, 59
3, 100512, Note_on_c, 0, 62, 0
3, 100512, Note_on_c, 0, 59, 58
3, 100608, Note_on_c, 0, 59, 0
3, 100608, Note_on_c, 0, 55, 58
3, 100704, Note_on_c, 0, 55, 0
3, 100704, Note_on_c, 0, 50, 57
3, 100800, Note_on_c, 0, 50, 0
3, 100800, Note_on_c, 0, 43, 56
3, 100896, Note_on_c, 0, 43, 0
3, 100896, Note_on_c, 0, 47, 56
3, 100992, Note_on_c, 0, 47, 0
3, 100992, Note_on_c, 0, 55, 57
3, 101088, Note_on_c, 0, 55, 0
3, 101088, Note_on_c, 0, 59, 57
3, 101184, Note_on_c, 0, 59, 0
3, 101184, Note_on_c, 0, 62, 57
3, 101280, Note_on_c, 0, 62, 0
3, 101280, Note_on_c, 0, 67, 57
3, 101520, Note_on_c, 0, 67, 0
3, 101760, Note_on_c, 0, 40, 73
3, 101760, Note_on_c, 0, 47, 73
3, 101760, Note_on_c, 0, 52, 73
3, 102000, Note_on_c, 0, 52, 0
3, 102000, Note_on_c, 0, 47, 0
3, 102000, Note_on_c, 0, 40, 0
3, 102000, Note_on_c, 0, 66, 62
3, 102000, Note_on_c, 0, 62, 62
3, 102000, Note_on_c, 0, 59, 62
3, 102000, Note_on_c, 0, 55, 62
3, 102480, Note_on_c, 0, 55, 0
3, 102480, Note_on_c, 0, 66, 0
3, 102480, Note_on_c, 0, 62, 0
3, 102480, Note_on_c, 0, 59, 0
3, 102480, Note_on_c, 0, 67, 62
3, 102480, Note_on_c, 0, 66, 62
3, 102480, Note_on_c, 0, 62, 62
3, 102480, Note_on_c, 0, 59, 62
3, 102960, Note_on_c, 0, 59, 0
3, 102960, Note_on_c, 0, 67, 0
3, 102960, Note_on_c, 0, 66, 0
3, 102960, Note_on_c, 0, 62, 0
3, 102960, Note_on_c, 0, 71, 62
3, 102960, Note_on_c, 0, 67, 62
3, 102960, Note_on_c, 0, 66, 62
3, 102960, Note_on_c, 0, 62, 62
3, 103200, Note_on_c, 0, 62, 0
3, 103200, Note_on_c, 0, 71, 0
3, 103200, Note_on_c, 0, 67, 0
3, 103200, Note_on_c, 0, 66, 0
3, 103680, Note_on_c, 0, 45, 69
3, 103776, Note_on_c, 0, 45, 0
3, 103776, Note_on_c, 0, 52, 60
3, 103872, Note_on_c, 0, 52, 0
3, 103872, Note_on_c, 0, 57, 60
3, 103968, Note_on_c, 0, 57, 0
3, 103968, Note_on_c, 0, 62, 60
3, 104064, Note_on_c, 0, 62, 0
3, 104064, Note_on_c, 0, 67, 60
3, 104160, Note_on_c, 0, 67, 0
3, 104160, Note_on_c, 0, 71, 60
3, 104400, Note_on_c, 0, 71, 0
3, 104640, Note_on_c, 0, 45, 69
3, 104736, Note_on_c, 0, 45, 0
3, 104736, Note_on_c, 0, 52, 60
3, 104832, Note_on_c, 0, 52, 0
3, 104832, Note_on_c, 0, 57, 60
3, 104928, Note_on_c, 0, 57, 0
3, 104928, Note_on_c, 0, 62, 60
3, 105024, Note_on_c, 0, 62, 0
3, 105024, Note_on_c, 0, 67, 60
3, 105120, Note_on_c, 0, 67, 0
3, 105120, Note_on_c, 0, 71, 60
3, 105360, Note_on_c, 0, 71, 0
3, 105600, Note_on_c, 0, 38, 75
3, 105600, Note_on_c, 0, 45, 75
3, 105600, Note_on_c, 0, 50, 75
3, 105840, Note_on_c, 0, 50, 0
3, 105840, Note_on_c, 0, 45, 0
3, 105840, Note_on_c, 0, 38, 0
3, 105840, Note_on_c, 0, 66, 64
3, 105840, Note_on_c, 0, 62, 64
3, 105840, Note_on_c, 0, 57, 64
3, 106320, Note_on_c, 0, 57, 0
3, 106320, Note_on_c, 0, 62, 0
3, 106320, Note_on_c, 0, 66, 0
3, 106320, Note_on_c, 0, 69, 64
3, 106320, Note_on_c, 0, 66, 64
3, 106320, Note_on_c, 0, 62, 64
3, 106800, Note_on_c, 0, 62, 0
3, 106800, Note_on_c, 0, 66, 0
3, 106800, Note_on_c, 0, 69, 0
3, 106800, Note_on_c, 0, 66, 62
3, 106800, Note_on_c, 0, 69, 62
3, 106800, Note_on_c, 0, 74, 62
3, 107040, Note_on_c, 0, 74, 0
3, 107040, Note_on_c, 0, 69, 0
3, 107040, Note_on_c, 0, 66, 0
3, 107520, Control_c, 0, 91, 127
3, 107520, Note_on_c, 0, 43, 44
3, 107520, Note_on_c, 0, 50, 44
3, 108480, Note_on_c, 0, 50, 0
3, 108480, Note_on_c, 0, 43, 0
3, 108480, Note_on_c, 0, 43, 44
3, 108480, Note_on_c, 0, 50, 44
3, 109440, Note_on_c, 0, 50, 0
3, 109440, Note_on_c, 0, 43, 0
3, 109440, Note_on_c, 0, 43, 30
3, 109440, Note_on_c, 0, 50, 30
3, 110400, Note_on_c, 0, 50, 0
3, 110400, Note_on_c, 0, 43, 0
3, 110400, Note_on_c, 0, 59, 44
3, 110400, Note_on_c, 0, 43, 30
3, 110400, Note_on_c, 0, 50, 30
3, 110640, Note_on_c, 0, 59, 0
3, 110640, Note_on_c, 0, 57, 45
3, 111120, Note_on_c, 0, 57, 0
3, 111120, Note_on_c, 0, 55, 40
3, 111360, Note_on_c, 0, 55, 0
3, 111360, Note_on_c, 0, 50, 0
3, 111360, Note_on_c, 0, 43, 0
3, 111360, Note_on_c, 0, 43, 27
3, 111360, Note_on_c, 0, 50, 27
3, 111360, Note_on_c, 0, 54, 42
3, 112320, Note_on_c, 0, 54, 0
3, 112320, Note_on_c, 0, 50, 0
3, 112320, Note_on_c, 0, 43, 0
3, 112320, Note_on_c, 0, 57, 44
3, 112320, Note_on_c, 0, 43, 30
3, 112320, Note_on_c, 0, 50, 30
3, 112560, Note_on_c, 0, 57, 0
3, 112560, Note_on_c, 0, 55, 46
3, 113040, Note_on_c, 0, 55, 0
3, 113040, Note_on_c, 0, 54, 40
3, 113280, Note_on_c, 0, 54, 0
3, 113280, Note_on_c, 0, 50, 0
3, 113280, Note_on_c, 0, 43, 0
3, 113280, Note_on_c, 0, 52, 42
3, 113280, Note_on_c, 0, 43, 27
3, 113280, Note_on_c, 0, 50, 27
3, 114240, Note_on_c, 0, 50, 0
3, 114240, Note_on_c, 0, 43, 0
3, 114240, Note_on_c, 0, 52, 0
3, 114240, Note_on_c, 0, 55, 44
3, 114240, Note_on_c, 0, 40, 37
3, 114480, Note_on_c, 0, 55, 0
3, 114480, Note_on_c, 0, 54, 46
3, 114960, Note_on_c, 0, 54, 0
3, 114960, Note_on_c, 0, 52, 42
3, 115200, Note_on_c, 0, 52, 0
3, 115200, Note_on_c, 0, 40, 0
3, 115200, Note_on_c, 0, 33, 44
3, 115200, Note_on_c, 0, 45, 44
3, 116160, Note_on_c, 0, 45, 0
3, 116160, Note_on_c, 0, 33, 0
3, 116160, Note_on_c, 0, 38, 50
3, 116160, Note_on_c, 0, 45, 50
3, 116400, Note_on_c, 0, 45, 0
3, 116400, Note_on_c, 0, 38, 0
3, 116400, Note_on_c, 0, 62, 55
3, 116400, Note_on_c, 0, 50, 55
3, 116880, Note_on_c, 0, 50, 0
3, 116880, Note_on_c, 0, 62, 0
3, 116880, Note_on_c, 0, 49, 55
3, 116880, Note_on_c, 0, 61, 55
3, 117120, Note_on_c, 0, 61, 0
3, 117120, Note_on_c, 0, 49, 0
3, 117120, Note_on_c, 0, 48, 40
3, 117120, Note_on_c, 0, 55, 40
3, 117120, Note_on_c, 0, 60, 40
3, 117120, Control_c, 0, 91, 127
3, 118080, Note_on_c, 0, 60, 0
3, 118080, Note_on_c, 0, 55, 0
3, 118080, Note_on_c, 0, 48, 0
3, 118080, Note_on_c, 0, 55, 34
3, 118080, Note_on_c, 0, 52, 31
3, 118080, Note_on_c, 0, 64, 31
3, 118320, Note_on_c, 0, 64, 0
3, 118320, Note_on_c, 0, 52, 0
3, 118320, Note_on_c, 0, 50, 36
3, 118320, Note_on_c, 0, 62, 36
3, 118800, Note_on_c, 0, 62, 0
3, 118800, Note_on_c, 0, 50, 0
3, 118800, Note_on_c, 0, 48, 28
3, 118800, Note_on_c, 0, 60, 28
3, 119040, Note_on_c, 0, 60, 0
3, 119040, Note_on_c, 0, 48, 0
3, 119040, Note_on_c, 0, 55, 0
3, 119040, Note_on_c, 0, 47, 31
3, 119040, Note_on_c, 0, 54, 31
3, 119040, Note_on_c, 0, 59, 31
3, 120000, Note_on_c, 0, 59, 0
3, 120000, Note_on_c, 0, 54, 0
3, 120000, Note_on_c, 0, 47, 0
3, 120000, Note_on_c, 0, 54, 36
3, 120000, Note_on_c, 0, 50, 31
3, 120000, Note_on_c, 0, 62, 31
3, 120240, Note_on_c, 0, 62, 0
3, 120240, Note_on_c, 0, 50, 0
3, 120240, Note_on_c, 0, 48, 36
3, 120240, Note_on_c, 0, 60, 36
3, 120720, Note_on_c, 0, 60, 0
3, 120720, Note_on_c, 0, 48, 0
3, 120720, Note_on_c, 0, 47, 29
3, 120720, Note_on_c, 0, 59, 29
3, 120960, Note_on_c, 0, 59, 0
3, 120960, Note_on_c, 0, 47, 0
3, 120960, Note_on_c, 0, 54, 0
3, 120960, Note_on_c, 0, 45, 30
3, 120960, Note_on_c, 0, 52, 30
3, 120960, Note_on_c, 0, 57, 30
3, 121920, Note_on_c, 0, 57, 0
3, 121920, Note_on_c, 0, 52, 0
3, 121920, Note_on_c, 0, 45, 0
3, 121920, Note_on_c, 0, 33, 55
3, 121920, Note_on_c, 0, 60, 57
3, 122160, Note_on_c, 0, 60, 0
3, 122160, Note_on_c, 0, 59, 51
3, 122640, Note_on_c, 0, 59, 0
3, 122640, Note_on_c, 0, 57, 45
3, 122880, Note_on_c, 0, 57, 0
3, 122880, Note_on_c, 0, 33, 0
3, 122880, Note_on_c, 0, 38, 40
3, 122880, Note_on_c, 0, 50, 40
3, 123840, Note_on_c, 0, 50, 0
3, 123840, Note_on_c, 0, 38, 0
3, 123840, Note_on_c, 0, 43, 30
3, 123840, Note_on_c, 0, 50, 30
3, 124500, Note_on_c, 0, 50, 0
3, 124500, Note_on_c, 0, 43, 0
3, 124500, Note_on_c, 0, 54, 27
3, 124560, Note_on_c, 0, 63, 27
3, 124620, Note_on_c, 0, 66, 27
3, 124800, Control_c, 0, 91, 127
3, 125760, Note_on_c, 0, 71, 29
3, 126000, Note_on_c, 0, 71, 0
3, 126000, Note_on_c, 0, 70, 29
3, 126480, Note_on_c, 0, 70, 0
3, 126480, Note_on_c, 0, 68, 27
3, 126720, Note_on_c, 0, 68, 0
3, 126720, Note_on_c, 0, 70, 27
3, 127680, Note_on_c, 0, 70, 0
3, 127680, Note_on_c, 0, 70, 29
3, 127920, Note_on_c, 0, 70, 0
3, 127920, Note_on_c, 0, 68, 29
3, 128400, Note_on_c, 0, 68, 0
3, 128400, Note_on_c, 0, 66, 27
3, 128640, Note_on_c, 0, 66, 0
3, 128640, Note_on_c, 0, 54, 0
3, 128640, Note_on_c, 0, 63, 0
3, 128640, Note_on_c, 0, 66, 0
3, 128640, Note_on_c, 0, 63, 29
3, 128640, Note_on_c, 0, 66, 29
3, 129600, Note_on_c, 0, 66, 0
3, 129600, Note_on_c, 0, 63, 0
3, 129600, Note_on_c, 0, 61, 34
3, 129600, Note_on_c, 0, 68, 34
3, 130560, Note_on_c, 0, 68, 0
3, 130560, Note_on_c, 0, 61, 0
3, 130560, Note_on_c, 0, 64, 31
3, 130560, Note_on_c, 0, 54, 31
3, 131520, Note_on_c, 0, 54, 0
3, 131520, Note_on_c, 0, 64, 0
3, 131520, Note_on_c, 0, 64, 31
3, 131520, Note_on_c, 0, 59, 25
3, 131760, Note_on_c, 0, 64, 0
3, 131760, Note_on_c, 0, 63, 31
3, 132180, Note_on_c, 0, 63, 0
3, 132180, Note_on_c, 0, 50, 23
3, 132240, Note_on_c, 0, 59, 23
3, 132300, Note_on_c, 0, 62, 23
3, 132480, Note_on_c, 0, 59, 0
3, 132480, Control_c, 0, 91, 127
3, 133440, Note_on_c, 0, 67, 29
3, 133680, Note_on_c, 0, 67, 0
3, 133680, Note_on_c, 0, 66, 29
3, 134160, Note_on_c, 0, 66, 0
3, 134160, Note_on_c, 0, 64, 27
3, 134400, Note_on_c, 0, 64, 0
3, 134400, Note_on_c, 0, 66, 27
3, 135360, Note_on_c, 0, 66, 0
3, 135360, Note_on_c, 0, 66, 29
3, 135600, Note_on_c, 0, 66, 0
3, 135600, Note_on_c, 0, 64, 29
3, 136080, Note_on_c, 0, 64, 0
3, 136080, Note_on_c, 0, 62, 27
3, 136320, Note_on_c, 0, 62, 0
3, 136320, Note_on_c, 0, 62, 0
3, 136320, Note_on_c, 0, 59, 0
3, 136320, Note_on_c, 0, 50, 0
3, 136320, Note_on_c, 0, 59, 27
3, 136320, Note_on_c, 0, 62, 27
3, 137280, Note_on_c, 0, 62, 0
3, 137280, Note_on_c, 0, 59, 0
3, 137280, Note_on_c, 0, 57, 30
3, 137280, Note_on_c, 0, 64, 30
3, 138240, Note_on_c, 0, 64, 0
3, 138240, Note_on_c, 0, 57, 0
3, 138240, Note_on_c, 0, 60, 29
3, 138240, Note_on_c, 0, 50, 29
3, 139200, Note_on_c, 0, 50, 0
3, 139200, Note_on_c, 0, 60, 0
3, 139200, Note_on_c, 0, 59, 29
3, 139440, Note_on_c, 0, 59, 0
3, 139440, Note_on_c, 0, 57, 29
3, 139920, Note_on_c, 0, 57, 0
3, 139920, Note_on_c, 0, 54, 29
3, 140160, Note_on_c, 0, 54, 0
3, 140160, Note_on_c, 0, 43, 23
3, 140160, Note_on_c, 0, 50, 23
3, 140160, Control_c, 0, 91, 127
3, 140640, Note_on_c, 0, 50, 0
3, 140640, Note_on_c, 0, 43, 0
3, 140640, Note_on_c, 0, 74, 34
3, 141120, Note_on_c, 0, 74, 0
3, 141120, Note_on_c, 0, 59, 29
3, 141120, Note_on_c, 0, 43, 26
3, 141120, Note_on_c, 0, 50, 26
3, 141360, Note_on_c, 0, 59, 0
3, 141360, Note_on_c, 0, 57, 35
3, 141840, Note_on_c, 0, 57, 0
3, 141840, Note_on_c, 0, 55, 31
3, 142080, Note_on_c, 0, 55, 0
3, 142080, Note_on_c, 0, 50, 0
3, 142080, Note_on_c, 0, 43, 0
3, 142080, Note_on_c, 0, 43, 22
3, 142080, Note_on_c, 0, 50, 22
3, 142080, Note_on_c, 0, 54, 22
3, 142560, Note_on_c, 0, 54, 0
3, 142560, Note_on_c, 0, 50, 0
3, 142560, Note_on_c, 0, 43, 0
3, 142560, Note_on_c, 0, 74, 35
3, 143040, Note_on_c, 0, 74, 0
3, 143040, Note_on_c, 0, 57, 29
3, 143040, Note_on_c, 0, 43, 26
3, 143040, Note_on_c, 0, 50, 26
3, 143280, Note_on_c, 0, 57, 0
3, 143280, Note_on_c, 0, 55, 36
3, 143760, Note_on_c, 0, 55, 0
3, 143760, Note_on_c, 0, 54, 31
3, 144000, Note_on_c, 0, 54, 0
3, 144000, Note_on_c, 0, 50, 0
3, 144000, Note_on_c, 0, 43, 0
3, 144000, Note_on_c, 0, 52, 22
3, 144000, Note_on_c, 0, 43, 22
3, 144000, Note_on_c, 0, 50, 22
3, 144480, Note_on_c, 0, 50, 0
3, 144480, Note_on_c, 0, 43, 0
3, 144480, Note_on_c, 0, 52, 0
3, 144480, Note_on_c, 0, 74, 34
3, 144840, Note_on_c, 0, 74, 0
3, 144840, Note_on_c, 0, 40, 30
3, 144960, Note_on_c, 0, 55, 34
3, 145200, Note_on_c, 0, 55, 0
3, 145200, Note_on_c, 0, 54, 36
3, 145680, Note_on_c, 0, 54, 0
3, 145680, Note_on_c, 0, 52, 31
3, 145920, Note_on_c, 0, 52, 0
3, 145920, Note_on_c, 0, 40, 0
3, 145920, Note_on_c, 0, 33, 36
3, 145920, Note_on_c, 0, 45, 36
3, 146400, Note_on_c, 0, 45, 0
3, 146400, Note_on_c, 0, 33, 0
3, 146400, Note_on_c, 0, 69, 36
3, 146880, Note_on_c, 0, 69, 0
3, 146880, Note_on_c, 0, 38, 42
3, 146880, Note_on_c, 0, 45, 42
3, 147120, Note_on_c, 0, 45, 0
3, 147120, Note_on_c, 0, 38, 0
3, 147120, Note_on_c, 0, 62, 46
3, 147120, Note_on_c, 0, 50, 46
3, 147600, Note_on_c, 0, 50, 0
3, 147600, Note_on_c, 0, 62, 0
3, 147600, Note_on_c, 0, 49, 46
3, 147600, Note_on_c, 0, 61, 46
3, 147840, Note_on_c, 0, 61, 0
3, 147840, Note_on_c, 0, 49, 0
3, 147840, Note_on_c, 0, 48, 35
3, 147840, Note_on_c, 0, 55, 35
3, 147840, Note_on_c, 0, 60, 35
3, 147840, Control_c, 0, 91, 127
3, 148320, Note_on_c, 0, 60, 0
3, 148320, Note_on_c, 0, 55, 0
3, 148320, Note_on_c, 0, 48, 0
3, 148320, Note_on_c, 0, 79, 46
3, 148800, Note_on_c, 0, 79, 0
3, 148800, Note_on_c, 0, 55, 22
3, 148800, Note_on_c, 0, 52, 23
3, 148800, Note_on_c, 0, 64, 23
3, 149040, Note_on_c, 0, 64, 0
3, 149040, Note_on_c, 0, 52, 0
3, 149040, Note_on_c, 0, 50, 31
3, 149040, Note_on_c, 0, 62, 31
3, 149520, Note_on_c, 0, 62, 0
3, 149520, Note_on_c, 0, 50, 0
3, 149520, Note_on_c, 0, 48, 25
3, 149520, Note_on_c, 0, 60, 25
3, 149760, Note_on_c, 0, 60, 0
3, 149760, Note_on_c, 0, 48, 0
3, 149760, Note_on_c, 0, 55, 0
3, 149760, Note_on_c, 0, 47, 27
3, 149760, Note_on_c, 0, 54, 27
3, 149760, Note_on_c, 0, 59, 27
3, 150240, Note_on_c, 0, 59, 0
3, 150240, Note_on_c, 0, 54, 0
3, 150240, Note_on_c, 0, 47, 0
3, 150240, Note_on_c, 0, 78, 46
3, 150720, Note_on_c, 0, 78, 0
3, 150720, Note_on_c, 0, 54, 22
3, 150720, Note_on_c, 0, 50, 23
3, 150720, Note_on_c, 0, 62, 23
3, 150960, Note_on_c, 0, 62, 0
3, 150960, Note_on_c, 0, 50, 0
3, 150960, Note_on_c, 0, 48, 31
3, 150960, Note_on_c, 0, 60, 31
3, 151440, Note_on_c, 0, 60, 0
3, 151440, Note_on_c, 0, 48, 0
3, 151440, Note_on_c, 0, 47, 25
3, 151440, Note_on_c, 0, 59, 25
3, 151680, Note_on_c, 0, 59, 0
3, 151680, Note_on_c, 0, 47, 0
3, 151680, Note_on_c, 0, 54, 0
3, 151680, Note_on_c, 0, 45, 26
3, 151680, Note_on_c, 0, 52, 26
3, 151680, Note_on_c, 0, 57, 26
3, 152160, Note_on_c, 0, 57, 0
3, 152160, Note_on_c, 0, 52, 0
3, 152160, Note_on_c, 0, 45, 0
3, 152160, Note_on_c, 0, 76, 44
3, 152520, Note_on_c, 0, 76, 0
3, 152520, Note_on_c, 0, 33, 56
3, 152640, Note_on_c, 0, 60, 55
3, 152880, Note_on_c, 0, 60, 0
3, 152880, Note_on_c, 0, 59, 42
3, 153360, Note_on_c, 0, 59, 0
3, 153360, Note_on_c, 0, 57, 37
3, 153600, Note_on_c, 0, 57, 0
3, 153600, Note_on_c, 0, 33, 0
3, 153600, Note_on_c, 0, 38, 35
3, 153600, Note_on_c, 0, 50, 35
3, 154080, Note_on_c, 0, 50, 0
3, 154080, Note_on_c, 0, 38, 0
3, 154080, Note_on_c, 0, 74, 38
3, 154560, Note_on_c, 0, 74, 0
3, 154560, Note_on_c, 0, 43, 26
3, 154560, Note_on_c, 0, 50, 26
3, 155220, Note_on_c, 0, 54, 27
3, 155280, Note_on_c, 0, 50, 0
3, 155280, Note_on_c, 0, 43, 0
3, 155280, Note_on_c, 0, 63, 27
3, 155340, Note_on_c, 0, 66, 27
3, 155520, Control_c, 0, 91, 127
3, 156480, Note_on_c, 0, 71, 29
3, 156720, Note_on_c, 0, 71, 0
3, 156720, Note_on_c, 0, 70, 29
3, 157200, Note_on_c, 0, 70, 0
3, 157200, Note_on_c, 0, 68, 27
3, 157440, Note_on_c, 0, 68, 0
3, 157440, Note_on_c, 0, 70, 27
3, 158400, Note_on_c, 0, 70, 0
3, 158400, Note_on_c, 0, 70, 29
3, 158640, Note_on_c, 0, 70, 0
3, 158640, Note_on_c, 0, 68, 29
3, 159120, Note_on_c, 0, 68, 0
3, 159120, Note_on_c, 0, 66, 27
3, 159360, Note_on_c, 0, 66, 0
3, 159360, Note_on_c, 0, 54, 0
3, 159360, Note_on_c, 0, 63, 0
3, 159360, Note_on_c, 0, 66, 0
3, 159360, Note_on_c, 0, 63, 29
3, 159360, Note_on_c, 0, 66, 29
3, 160320, Note_on_c, 0, 66, 0
3, 160320, Note_on_c, 0, 63, 0
3, 160320, Note_on_c, 0, 61, 34
3, 160320, Note_on_c, 0, 68, 34
3, 161280, Note_on_c, 0, 68, 0
3, 161280, Note_on_c, 0, 61, 0
3, 161280, Note_on_c, 0, 64, 31
3, 161280, Note_on_c, 0, 54, 31
3, 162240, Note_on_c, 0, 54, 0
3, 162240, Note_on_c, 0, 64, 0
3, 162240, Note_on_c, 0, 64, 31
3, 162240, Note_on_c, 0, 59, 25
3, 162480, Note_on_c, 0, 64, 0
3, 162480, Note_on_c, 0, 63, 31
3, 162900, Note_on_c, 0, 63, 0
3, 162900, Note_on_c, 0, 50, 23
3, 162960, Note_on_c, 0, 59, 23
3, 163020, Note_on_c, 0, 62, 23
3, 163200, Note_on_c, 0, 59, 0
3, 163200, Control_c, 0, 91, 127
3, 164160, Note_on_c, 0, 67, 29
3, 164400, Note_on_c, 0, 67, 0
3, 164400, Note_on_c, 0, 66, 29
3, 164880, Note_on_c, 0, 66, 0
3, 164880, Note_on_c, 0, 64, 27
3, 165120, Note_on_c, 0, 64, 0
3, 165120, Note_on_c, 0, 66, 27
3, 166080, Note_on_c, 0, 66, 0
3, 166080, Note_on_c, 0, 66, 29
3, 166320, Note_on_c, 0, 66, 0
3, 166320, Note_on_c, 0, 64, 29
3, 166800, Note_on_c, 0, 64, 0
3, 166800, Note_on_c, 0, 62, 27
3, 167040, Note_on_c, 0, 62, 0
3, 167040, Note_on_c, 0, 62, 0
3, 167040, Note_on_c, 0, 59, 0
3, 167040, Note_on_c, 0, 50, 0
3, 167040, Note_on_c, 0, 59, 27
3, 167040, Note_on_c, 0, 62, 27
3, 168000, Note_on_c, 0, 62, 0
3, 168000, Note_on_c, 0, 59, 0
3, 168000, Note_on_c, 0, 57, 30
3, 168000, Note_on_c, 0, 64, 30
3, 168960, Note_on_c, 0, 64, 0
3, 168960, Note_on_c, 0, 57, 0
3, 168960, Note_on_c, 0, 60, 29
3, 168960, Note_on_c, 0, 50, 29
3, 169920, Note_on_c, 0, 50, 0
3, 169920, Note_on_c, 0, 60, 0
3, 169920, Note_on_c, 0, 59, 29
3, 170160, Note_on_c, 0, 59, 0
3, 170160, Note_on_c, 0, 57, 29
3, 170640, Note_on_c, 0, 57, 0
3, 170640, Note_on_c, 0, 54, 29
3, 170880, Note_on_c, 0, 54, 0
3, 170880, Note_on_c, 0, 43, 23
3, 170880, Note_on_c, 0, 50, 23
3, 170880, Control_c, 0, 91, 127
3, 171360, Note_on_c, 0, 50, 0
3, 171360, Note_on_c, 0, 43, 0
3, 171360, Note_on_c, 0, 74, 34
3, 171840, Note_on_c, 0, 74, 0
3, 171840, Note_on_c, 0, 59, 29
3, 171840, Note_on_c, 0, 43, 26
3, 171840, Note_on_c, 0, 50, 26
3, 172080, Note_on_c, 0, 59, 0
3, 172080, Note_on_c, 0, 57, 35
3, 172560, Note_on_c, 0, 57, 0
3, 172560, Note_on_c, 0, 55, 31
3, 172800, Note_on_c, 0, 55, 0
3, 172800, Note_on_c, 0, 50, 0
3, 172800, Note_on_c, 0, 43, 0
3, 172800, Note_on_c, 0, 43, 22
3, 172800, Note_on_c, 0, 50, 22
3, 172800, Note_on_c, 0, 54, 22
3, 173280, Note_on_c, 0, 54, 0
3, 173280, Note_on_c, 0, 50, 0
3, 173280, Note_on_c, 0, 43, 0
3, 173280, Note_on_c, 0, 74, 35
3, 173760, Note_on_c, 0, 74, 0
3, 173760, Note_on_c, 0, 57, 29
3, 173760, Note_on_c, 0, 43, 26
3, 173760, Note_on_c, 0, 50, 26
3, 174000, Note_on_c, 0, 57, 0
3, 174000, Note_on_c, 0, 55, 36
3, 174480, Note_on_c, 0, 55, 0
3, 174480, Note_on_c, 0, 54, 31
3, 174720, Note_on_c, 0, 54, 0
3, 174720, Note_on_c, 0, 50, 0
3, 174720, Note_on_c, 0, 43, 0
3, 174720, Note_on_c, 0, 52, 22
3, 174720, Note_on_c, 0, 43, 22
3, 174720, Note_on_c, 0, 50, 22
3, 175200, Note_on_c, 0, 50, 0
3, 175200, Note_on_c, 0, 43, 0
3, 175200, Note_on_c, 0, 52, 0
3, 175200, Note_on_c, 0, 74, 35
3, 175560, Note_on_c, 0, 74, 0
3, 175560, Note_on_c, 0, 40, 30
3, 175680, Note_on_c, 0, 55, 34
3, 175920, Note_on_c, 0, 55, 0
3, 175920, Note_on_c, 0, 54, 36
3, 176400, Note_on_c, 0, 54, 0
3, 176400, Note_on_c, 0, 52, 31
3, 176640, Note_on_c, 0, 52, 0
3, 176640, Note_on_c, 0, 40, 0
3, 176640, Note_on_c, 0, 33, 36
3, 176640, Note_on_c, 0, 45, 36
3, 177120, Note_on_c, 0, 45, 0
3, 177120, Note_on_c, 0, 33, 0
3, 177120, Note_on_c, 0, 69, 36
3, 177600, Note_on_c, 0, 69, 0
3, 177600, Note_on_c, 0, 38, 42
3, 177600, Note_on_c, 0, 45, 42
3, 177840, Note_on_c, 0, 45, 0
3, 177840, Note_on_c, 0, 38, 0
3, 177840, Note_on_c, 0, 62, 46
3, 177840, Note_on_c, 0, 50, 46
3, 178320, Note_on_c, 0, 50, 0
3, 178320, Note_on_c, 0, 62, 0
3, 178320, Note_on_c, 0, 49, 46
3, 178320, Note_on_c, 0, 61, 46
3, 178560, Note_on_c, 0, 61, 0
3, 178560, Note_on_c, 0, 49, 0
3, 178560, Note_on_c, 0, 48, 35
3, 178560, Note_on_c, 0, 55, 35
3, 178560, Note_on_c, 0, 60, 35
3, 178560, Control_c, 0, 91, 127
3, 179040, Note_on_c, 0, 60, 0
3, 179040, Note_on_c, 0, 55, 0
3, 179040, Note_on_c, 0, 48, 0
3, 179040, Note_on_c, 0, 79, 47
3, 179520, Note_on_c, 0, 79, 0
3, 179520, Note_on_c, 0, 55, 22
3, 179520, Note_on_c, 0, 52, 23
3, 179520, Note_on_c, 0, 64, 23
3, 179760, Note_on_c, 0, 64, 0
3, 179760, Note_on_c, 0, 52, 0
3, 179760, Note_on_c, 0, 50, 31
3, 179760, Note_on_c, 0, 62, 31
3, 180240, Note_on_c, 0, 62, 0
3, 180240, Note_on_c, 0, 50, 0
3, 180240, Note_on_c, 0, 48, 25
3, 180240, Note_on_c, 0, 60, 25
3, 180480, Note_on_c, 0, 60, 0
3, 180480, Note_on_c, 0, 48, 0
3, 180480, Note_on_c, 0, 55, 0
3, 180480, Note_on_c, 0, 47, 27
3, 180480, Note_on_c, 0, 54, 27
3, 180480, Note_on_c, 0, 59, 27
3, 180960, Note_on_c, 0, 59, 0
3, 180960, Note_on_c, 0, 54, 0
3, 180960, Note_on_c, 0, 47, 0
3, 180960, Note_on_c, 0, 78, 46
3, 181440, Note_on_c, 0, 78, 0
3, 181440, Note_on_c, 0, 54, 22
3, 181440, Note_on_c, 0, 50, 23
3, 181440, Note_on_c, 0, 62, 23
3, 181680, Note_on_c, 0, 62, 0
3, 181680, Note_on_c, 0, 50, 0
3, 181680, Note_on_c, 0, 48, 31
3, 181680, Note_on_c, 0, 60, 31
3, 182160, Note_on_c, 0, 60, 0
3, 182160, Note_on_c, 0, 48, 0
3, 182160, Note_on_c, 0, 47, 25
3, 182160, Note_on_c, 0, 59, 25
3, 182400, Note_on_c, 0, 59, 0
3, 182400, Note_on_c, 0, 47, 0
3, 182400, Note_on_c, 0, 54, 0
3, 182400, Note_on_c, 0, 45, 26
3, 182400, Note_on_c, 0, 52, 26
3, 182400, Note_on_c, 0, 57, 26
3, 182880, Note_on_c, 0, 57, 0
3, 182880, Note_on_c, 0, 52, 0
3, 182880, Note_on_c, 0, 45, 0
3, 182880, Note_on_c, 0, 76, 42
3, 183240, Note_on_c, 0, 76, 0
3, 183240, Note_on_c, 0, 33, 56
3, 183360, Note_on_c, 0, 60, 55
3, 183600, Note_on_c, 0, 60, 0
3, 183600, Note_on_c, 0, 59, 42
3, 184080, Note_on_c, 0, 59, 0
3, 184080, Note_on_c, 0, 57, 37
3, 184320, Note_on_c, 0, 57, 0
3, 184320, Note_on_c, 0, 33, 0
3, 184320, Note_on_c, 0, 38, 35
3, 184320, Note_on_c, 0, 50, 35
3, 184800, Note_on_c, 0, 50, 0
3, 184800, Note_on_c, 0, 38, 0
3, 184800, Note_on_c, 0, 74, 35
3, 185280, Note_on_c, 0, 74, 0
3, 185280, Note_on_c, 0, 43, 26
3, 185280, Note_on_c, 0, 50, 26
3, 186000, Note_on_c, 0, 50, 0
3, 186000, Note_on_c, 0, 43, 0
3, 186240, Control_c, 0, 91, 127
3, 186240, Note_on_c, 0, 38, 36
3, 186240, Note_on_c, 0, 45, 36
3, 186480, Note_on_c, 0, 45, 0
3, 186480, Note_on_c, 0, 38, 0
3, 187680, Note_on_c, 0, 38, 31
3, 187680, Note_on_c, 0, 45, 31
3, 187920, Note_on_c, 0, 45, 0
3, 187920, Note_on_c, 0, 38, 0
3, 187920, Note_on_c, 0, 38, 31
3, 187920, Note_on_c, 0, 45, 31
3, 188160, Note_on_c, 0, 45, 0
3, 188160, Note_on_c, 0, 38, 0
3, 188160, Note_on_c, 0, 38, 36
3, 188160, Note_on_c, 0, 45, 36
3, 188400, Note_on_c, 0, 45, 0
3, 188400, Note_on_c, 0, 38, 0
3, 189600, Note_on_c, 0, 38, 31
3, 189600, Note_on_c, 0, 45, 31
3, 189840, Note_on_c, 0, 45, 0
3, 189840, Note_on_c, 0, 38, 0
3, 189840, Note_on_c, 0, 38, 31
3, 189840, Note_on_c, 0, 45, 31
3, 190080, Note_on_c, 0, 45, 0
3, 190080, Note_on_c, 0, 38, 0
3, 190080, Note_on_c, 0, 38, 35
3, 190080, Note_on_c, 0, 45, 35
3, 190320, Note_on_c, 0, 45, 0
3, 190320, Note_on_c, 0, 38, 0
3, 190560, Note_on_c, 0, 50, 31
3, 190560, Note_on_c, 0, 57, 31
3, 190620, Note_on_c, 0, 57, 0
3, 190620, Note_on_c, 0, 50, 0
3, 190800, Note_on_c, 0, 50, 31
3, 190800, Note_on_c, 0, 57, 31
3, 190860, Note_on_c, 0, 57, 0
3, 190860, Note_on_c, 0, 50, 0
3, 191040, Note_on_c, 0, 57, 35
3, 191040, Note_on_c, 0, 50, 35
3, 191280, Note_on_c, 0, 50, 0
3, 191280, Note_on_c, 0, 57, 0
3, 191520, Note_on_c, 0, 38, 31
3, 191520, Note_on_c, 0, 45, 31
3, 191580, Note_on_c, 0, 45, 0
3, 191580, Note_on_c, 0, 38, 0
3, 191760, Note_on_c, 0, 38, 31
3, 191760, Note_on_c, 0, 45, 31
3, 191820, Note_on_c, 0, 45, 0
3, 191820, Note_on_c, 0, 38, 0
3, 192000, Note_on_c, 0, 38, 35
3, 192000, Note_on_c, 0, 45, 35
3, 192480, Note_on_c, 0, 45, 0
3, 192480, Note_on_c, 0, 38, 0
3, 192480, Note_on_c, 0, 50, 33
3, 192480, Note_on_c, 0, 57, 33
3, 192720, Note_on_c, 0, 57, 0
3, 192720, Note_on_c, 0, 50, 0
3, 192840, Note_on_c, 0, 50, 33
3, 192840, Note_on_c, 0, 57, 33
3, 192960, Note_on_c, 0, 57, 0
3, 192960, Note_on_c, 0, 50, 0
3, 192960, Note_on_c, 0, 50, 33
3, 192960, Note_on_c, 0, 57, 33
3, 193440, Note_on_c, 0, 57, 0
3, 193440, Note_on_c, 0, 50, 0
3, 193920, Note_on_c, 0, 35, 34
3, 193920, Note_on_c, 0, 42, 34
3, 194400, Note_on_c, 0, 42, 0
3, 194400, Note_on_c, 0, 35, 0
3, 194400, Note_on_c, 0, 47, 31
3, 194400, Note_on_c, 0, 54, 31
3, 194460, Note_on_c, 0, 54, 0
3, 194460, Note_on_c, 0, 47, 0
3, 194640, Note_on_c, 0, 47, 31
3, 194640, Note_on_c, 0, 54, 31
3, 194700, Note_on_c, 0, 54, 0
3, 194700, Note_on_c, 0, 47, 0
3, 194880, Note_on_c, 0, 40, 34
3, 194880, Note_on_c, 0, 47, 34
3, 195360, Note_on_c, 0, 47, 0
3, 195360, Note_on_c, 0, 40, 0
3, 195360, Note_on_c, 0, 52, 31
3, 195360, Note_on_c, 0, 59, 31
3, 195420, Note_on_c, 0, 59, 0
3, 195420, Note_on_c, 0, 52, 0
3, 195600, Note_on_c, 0, 52, 31
3, 195600, Note_on_c, 0, 59, 31
3, 195660, Note_on_c, 0, 59, 0
3, 195660, Note_on_c, 0, 52, 0
3, 195840, Note_on_c, 0, 33, 35
3, 195840, Note_on_c, 0, 40, 35
3, 196320, Note_on_c, 0, 40, 0
3, 196320, Note_on_c, 0, 33, 0
3, 196320, Note_on_c, 0, 64, 33
3, 196320, Note_on_c, 0, 57, 33
3, 196560, Note_on_c, 0, 57, 0
3, 196560, Note_on_c, 0, 64, 0
3, 196680, Note_on_c, 0, 64, 33
3, 196680, Note_on_c, 0, 57, 33
3, 196800, Note_on_c, 0, 57, 0
3, 196800, Note_on_c, 0, 64, 0
3, 196800, Note_on_c, 0, 64, 33
3, 196800, Note_on_c, 0, 57, 33
3, 197040, Note_on_c, 0, 57, 0
3, 197040, Note_on_c, 0, 64, 0
3, 197760, Note_on_c, 0, 43, 39
3, 197760, Note_on_c, 0, 50, 39
3, 198240, Note_on_c, 0, 50, 0
3, 198240, Note_on_c, 0, 43, 0
3, 198240, Note_on_c, 0, 62, 38
3, 198240, Note_on_c, 0, 55, 38
3, 198300, Note_on_c, 0, 55, 0
3, 198300, Note_on_c, 0, 62, 0
3, 198480, Note_on_c, 0, 62, 38
3, 198480, Note_on_c, 0, 55, 38
3, 198540, Note_on_c, 0, 55, 0
3, 198540, Note_on_c, 0, 62, 0
3, 198720, Note_on_c, 0, 55, 41
3, 198720, Note_on_c, 0, 62, 41
3, 199200, Note_on_c, 0, 62, 0
3, 199200, Note_on_c, 0, 55, 0
3, 199680, Note_on_c, 0, 40, 36
3, 199680, Note_on_c, 0, 47, 36
3, 200160, Note_on_c, 0, 47, 0
3, 200160, Note_on_c, 0, 40, 0
3, 200160, Note_on_c, 0, 59, 34
3, 200160, Note_on_c, 0, 52, 34
3, 200400, Note_on_c, 0, 52, 0
3, 200400, Note_on_c, 0, 59, 0
3, 200520, Note_on_c, 0, 59, 34
3, 200520, Note_on_c, 0, 52, 34
3, 200640, Note_on_c, 0, 52, 0
3, 200640, Note_on_c, 0, 59, 0
3, 200640, Note_on_c, 0, 52, 36
3, 200640, Note_on_c, 0, 59, 36
3, 201120, Note_on_c, 0, 59, 0
3, 201120, Note_on_c, 0, 52, 0
3, 201600, Note_on_c, 0, 45, 39
3, 201600, Note_on_c, 0, 52, 39
3, 202080, Note_on_c, 0, 52, 0
3, 202080, Note_on_c, 0, 45, 0
3, 202080, Note_on_c, 0, 64, 36
3, 202080, Note_on_c, 0, 57, 36
3, 202140, Note_on_c, 0, 57, 0
3, 202140, Note_on_c, 0, 64, 0
3, 202320, Note_on_c, 0, 64, 36
3, 202320, Note_on_c, 0, 57, 36
3, 202380, Note_on_c, 0, 57, 0
3, 202380, Note_on_c, 0, 64, 0
3, 202560, Note_on_c, 0, 57, 39
3, 202560, Note_on_c, 0, 64, 39
3, 203040, Note_on_c, 0, 64, 0
3, 203040, Note_on_c, 0, 57, 0
3, 203520, Note_on_c, 0, 38, 39
3, 203520, Note_on_c, 0, 45, 39
3, 204000, Note_on_c, 0, 45, 0
3, 204000, Note_on_c, 0, 38, 0
3, 204000, Note_on_c, 0, 69, 36
3, 204000, Note_on_c, 0, 62, 36
3, 204240, Note_on_c, 0, 62, 0
3, 204240, Note_on_c, 0, 69, 0
3, 204360, Note_on_c, 0, 69, 36
3, 204360, Note_on_c, 0, 62, 36
3, 204480, Note_on_c, 0, 62, 0
3, 204480, Note_on_c, 0, 69, 0
3, 204480, Note_on_c, 0, 69, 36
3, 204480, Note_on_c, 0, 62, 36
3, 204960, Note_on_c, 0, 62, 0
3, 204960, Note_on_c, 0, 69, 0
3, 204960, Note_on_c, 0, 50, 27
3, 204960, Note_on_c, 0, 57, 27
3, 205200, Note_on_c, 0, 57, 0
3, 205200, Note_on_c, 0, 50, 0
3, 205200, Note_on_c, 0, 50, 27
3, 205200, Note_on_c, 0, 57, 27
3, 205440, Note_on_c, 0, 57, 0
3, 205440, Note_on_c, 0, 50, 0
3, 205440, Control_c, 0, 91, 127
3, 205440, Note_on_c, 0, 50, 31
3, 205440, Note_on_c, 0, 57, 31
3, 205680, Note_on_c, 0, 57, 0
3, 205680, Note_on_c, 0, 50, 0
3, 206880, Note_on_c, 0, 50, 27
3, 206880, Note_on_c, 0, 57, 27
3, 207120, Note_on_c, 0, 57, 0
3, 207120, Note_on_c, 0, 50, 0
3, 207120, Note_on_c, 0, 50, 27
3, 207120, Note_on_c, 0, 57, 27
3, 207360, Note_on_c, 0, 57, 0
3, 207360, Note_on_c, 0, 50, 0
3, 207360, Note_on_c, 0, 50, 30
3, 207360, Note_on_c, 0, 57, 30
3, 207600, Note_on_c, 0, 57, 0
3, 207600, Note_on_c, 0, 50, 0
3, 208800, Note_on_c, 0, 50, 27
3, 208800, Note_on_c, 0, 57, 27
3, 209040, Note_on_c, 0, 57, 0
3, 209040, Note_on_c, 0, 50, 0
3, 209040, Note_on_c, 0, 50, 27
3, 209040, Note_on_c, 0, 57, 27
3, 209280, Note_on_c, 0, 57, 0
3, 209280, Note_on_c, 0, 50, 0
3, 209280, Note_on_c, 0, 50, 31
3, 209280, Note_on_c, 0, 57, 31
3, 209520, Note_on_c, 0, 57, 0
3, 209520, Note_on_c, 0, 50, 0
3, 209760, Note_on_c, 0, 62, 27
3, 209760, Note_on_c, 0, 69, 27
3, 209820, Note_on_c, 0, 69, 0
3, 209820, Note_on_c, 0, 62, 0
3, 210000, Note_on_c, 0, 62, 27
3, 210000, Note_on_c, 0, 69, 27
3, 210060, Note_on_c, 0, 69, 0
3, 210060, Note_on_c, 0, 62, 0
3, 210240, Note_on_c, 0, 69, 31
3, 210240, Note_on_c, 0, 62, 31
3, 210480, Note_on_c, 0, 62, 0
3, 210480, Note_on_c, 0, 69, 0
3, 210720, Note_on_c, 0, 50, 27
3, 210720, Note_on_c, 0, 57, 27
3, 210780, Note_on_c, 0, 57, 0
3, 210780, Note_on_c, 0, 50, 0
3, 210960, Note_on_c, 0, 50, 27
3, 210960, Note_on_c, 0, 57, 27
3, 211020, Note_on_c, 0, 57, 0
3, 211020, Note_on_c, 0, 50, 0
3, 211200, Note_on_c, 0, 50, 31
3, 211200, Note_on_c, 0, 57, 31
3, 211680, Note_on_c, 0, 57, 0
3, 211680, Note_on_c, 0, 50, 0
3, 211680, Note_on_c, 0, 62, 30
3, 211680, Note_on_c, 0, 69, 30
3, 211920, Note_on_c, 0, 69, 0
3, 211920, Note_on_c, 0, 62, 0
3, 212040, Note_on_c, 0, 62, 30
3, 212040, Note_on_c, 0, 69, 30
3, 212160, Note_on_c, 0, 69, 0
3, 212160, Note_on_c, 0, 62, 0
3, 212160, Note_on_c, 0, 62, 30
3, 212160, Note_on_c, 0, 69, 30
3, 212640, Note_on_c, 0, 69, 0
3, 212640, Note_on_c, 0, 62, 0
3, 213120, Note_on_c, 0, 47, 30
3, 213120, Note_on_c, 0, 54, 30
3, 213600, Note_on_c, 0, 54, 0
3, 213600, Note_on_c, 0, 47, 0
3, 213600, Note_on_c, 0, 59, 27
3, 213600, Note_on_c, 0, 66, 27
3, 213660, Note_on_c, 0, 66, 0
3, 213660, Note_on_c, 0, 59, 0
3, 213840, Note_on_c, 0, 59, 27
3, 213840, Note_on_c, 0, 66, 27
3, 213900, Note_on_c, 0, 66, 0
3, 213900, Note_on_c, 0, 59, 0
3, 214080, Note_on_c, 0, 52, 30
3, 214080, Note_on_c, 0, 59, 30
3, 214560, Note_on_c, 0, 59, 0
3, 214560, Note_on_c, 0, 52, 0
3, 214560, Note_on_c, 0, 64, 27
3, 214560, Note_on_c, 0, 71, 27
3, 214620, Note_on_c, 0, 71, 0
3, 214620, Note_on_c, 0, 64, 0
3, 214800, Note_on_c, 0, 64, 27
3, 214800, Note_on_c, 0, 71, 27
3, 214860, Note_on_c, 0, 71, 0
3, 214860, Note_on_c, 0, 64, 0
3, 215040, Note_on_c, 0, 57, 30
3, 215040, Note_on_c, 0, 64, 30
3, 215520, Note_on_c, 0, 64, 0
3, 215520, Note_on_c, 0, 57, 0
3, 215520, Note_on_c, 0, 76, 28
3, 215520, Note_on_c, 0, 69, 28
3, 215760, Note_on_c, 0, 69, 0
3, 215760, Note_on_c, 0, 76, 0
3, 215880, Note_on_c, 0, 76, 28
3, 215880, Note_on_c, 0, 69, 28
3, 216000, Note_on_c, 0, 69, 0
3, 216000, Note_on_c, 0, 76, 0
3, 216000, Note_on_c, 0, 76, 28
3, 216000, Note_on_c, 0, 69, 28
3, 216240, Note_on_c, 0, 69, 0
3, 216240, Note_on_c, 0, 76, 0
3, 216960, Note_on_c, 0, 55, 35
3, 216960, Note_on_c, 0, 62, 35
3, 217440, Note_on_c, 0, 62, 0
3, 217440, Note_on_c, 0, 55, 0
3, 217440, Note_on_c, 0, 74, 33
3, 217440, Note_on_c, 0, 67, 33
3, 217500, Note_on_c, 0, 67, 0
3, 217500, Note_on_c, 0, 74, 0
3, 217680, Note_on_c, 0, 74, 33
3, 217680, Note_on_c, 0, 67, 33
3, 217740, Note_on_c, 0, 67, 0
3, 217740, Note_on_c, 0, 74, 0
3, 217920, Note_on_c, 0, 67, 36
3, 217920, Note_on_c, 0, 74, 36
3, 218400, Note_on_c, 0, 74, 0
3, 218400, Note_on_c, 0, 67, 0
3, 218880, Note_on_c, 0, 52, 33
3, 218880, Note_on_c, 0, 59, 33
3, 219360, Note_on_c, 0, 59, 0
3, 219360, Note_on_c, 0, 52, 0
3, 219360, Note_on_c, 0, 71, 29
3, 219360, Note_on_c, 0, 64, 29
3, 219600, Note_on_c, 0, 64, 0
3, 219600, Note_on_c, 0, 71, 0
3, 219720, Note_on_c, 0, 71, 29
3, 219720, Note_on_c, 0, 64, 29
3, 219840, Note_on_c, 0, 64, 0
3, 219840, Note_on_c, 0, 71, 0
3, 219840, Note_on_c, 0, 64, 33
3, 219840, Note_on_c, 0, 71, 33
3, 220320, Note_on_c, 0, 71, 0
3, 220320, Note_on_c, 0, 64, 0
3, 220800, Note_on_c, 0, 57, 34
3, 220800, Note_on_c, 0, 64, 34
3, 221280, Note_on_c, 0, 64, 0
3, 221280, Note_on_c, 0, 57, 0
3, 221280, Note_on_c, 0, 76, 33
3, 221280, Note_on_c, 0, 69, 33
3, 221340, Note_on_c, 0, 69, 0
3, 221340, Note_on_c, 0, 76, 0
3, 221520, Note_on_c, 0, 76, 33
3, 221520, Note_on_c, 0, 69, 33
3, 221580, Note_on_c, 0, 69, 0
3, 221580, Note_on_c, 0, 76, 0
3, 221760, Note_on_c, 0, 69, 35
3, 221760, Note_on_c, 0, 76, 35
3, 222240, Note_on_c, 0, 76, 0
3, 222240, Note_on_c, 0, 69, 0
3, 222720, Note_on_c, 0, 62, 34
3, 222720, Note_on_c, 0, 69, 34
3, 223200, Note_on_c, 0, 69, 0
3, 223200, Note_on_c, 0, 62, 0
3, 223200, Note_on_c, 0, 81, 33
3, 223200, Note_on_c, 0, 74, 33
3, 223440, Note_on_c, 0, 74, 0
3, 223440, Note_on_c, 0, 81, 0
3, 223560, Note_on_c, 0, 81, 33
3, 223560, Note_on_c, 0, 74, 33
3, 223680, Note_on_c, 0, 74, 0
3, 223680, Note_on_c, 0, 81, 0
3, 223680, Note_on_c, 0, 81, 33
3, 223680, Note_on_c, 0, 74, 33
3, 224160, Note_on_c, 0, 74, 0
3, 224160, Note_on_c, 0, 81, 0
3, 224640, Control_c, 0, 91, 127
3, 224640, Note_on_c, 0, 45, 80
3, 224640, Note_on_c, 0, 52, 80
3, 225120, Note_on_c, 0, 52, 0
3, 225120, Note_on_c, 0, 45, 0
3, 225120, Note_on_c, 0, 45, 72
3, 225120, Note_on_c, 0, 52, 72
3, 225240, Note_on_c, 0, 52, 0
3, 225240, Note_on_c, 0, 45, 0
3, 225360, Note_on_c, 0, 52, 72
3, 225360, Note_on_c, 0, 45, 72
3, 225480, Note_on_c, 0, 45, 0
3, 225480, Note_on_c, 0, 52, 0
3, 225600, Note_on_c, 0, 45, 80
3, 225600, Note_on_c, 0, 52, 80
3, 226080, Note_on_c, 0, 52, 0
3, 226080, Note_on_c, 0, 45, 0
3, 226080, Note_on_c, 0, 45, 72
3, 226080, Note_on_c, 0, 52, 72
3, 226200, Note_on_c, 0, 52, 0
3, 226200, Note_on_c, 0, 45, 0
3, 226320, Note_on_c, 0, 45, 72
3, 226320, Note_on_c, 0, 52, 72
3, 226440, Note_on_c, 0, 52, 0
3, 226440, Note_on_c, 0, 45, 0
3, 226560, Note_on_c, 0, 45, 71
3, 226560, Note_on_c, 0, 52, 71
3, 227040, Note_on_c, 0, 52, 0
3, 227040, Note_on_c, 0, 45, 0
3, 227040, Note_on_c, 0, 45, 64
3, 227040, Note_on_c, 0, 52, 64
3, 227280, Note_on_c, 0, 52, 0
3, 227280, Note_on_c, 0, 45, 0
3, 227280, Note_on_c, 0, 45, 64
3, 227280, Note_on_c, 0, 52, 64
3, 227400, Note_on_c, 0, 52, 0
3, 227400, Note_on_c, 0, 45, 0
3, 227520, Note_on_c, 0, 45, 71
3, 227520, Note_on_c, 0, 52, 71
3, 228000, Note_on_c, 0, 52, 0
3, 228000, Note_on_c, 0, 45, 0
3, 228000, Note_on_c, 0, 45, 64
3, 228000, Note_on_c, 0, 52, 64
3, 228240, Note_on_c, 0, 52, 0
3, 228240, Note_on_c, 0, 45, 0
3, 228240, Note_on_c, 0, 45, 64
3, 228240, Note_on_c, 0, 52, 64
3, 228360, Note_on_c, 0, 52, 0
3, 228360, Note_on_c, 0, 45, 0
3, 230400, Note_on_c, 0, 56, 59
3, 230880, Note_on_c, 0, 56, 0
3, 232320, Note_on_c, 0, 43, 33
3, 232320, Note_on_c, 0, 52, 33
3, 232440, Note_on_c, 0, 52, 0
3, 232440, Note_on_c, 0, 43, 0
3, 232440, Note_on_c, 0, 55, 33
3, 232560, Note_on_c, 0, 55, 0
3, 232560, Note_on_c, 0, 60, 33
3, 232680, Note_on_c, 0, 60, 0
3, 232680, Note_on_c, 0, 64, 33
3, 232800, Note_on_c, 0, 64, 0
3, 233280, Note_on_c, 0, 43, 33
3, 233280, Note_on_c, 0, 50, 33
3, 233400, Note_on_c, 0, 50, 0
3, 233400, Note_on_c, 0, 43, 0
3, 233400, Note_on_c, 0, 55, 33
3, 233520, Note_on_c, 0, 55, 0
3, 233520, Note_on_c, 0, 59, 33
3, 233640, Note_on_c, 0, 59, 0
3, 233640, Note_on_c, 0, 65, 33
3, 233760, Note_on_c, 0, 65, 0
3, 234240, Note_on_c, 0, 36, 33
3, 234240, Note_on_c, 0, 43, 33
3, 234720, Note_on_c, 0, 43, 0
3, 234720, Note_on_c, 0, 36, 0
3, 234720, Note_on_c, 0, 48, 30
3, 234720, Note_on_c, 0, 55, 30
3, 234840, Note_on_c, 0, 55, 0
3, 234840, Note_on_c, 0, 48, 0
3, 234960, Note_on_c, 0, 48, 30
3, 234960, Note_on_c, 0, 55, 30
3, 235080, Note_on_c, 0, 55, 0
3, 235080, Note_on_c, 0, 48, 0
3, 235200, Note_on_c, 0, 48, 33
3, 235200, Note_on_c, 0, 55, 33
3, 235560, Note_on_c, 0, 55, 0
3, 235560, Note_on_c, 0, 48, 0
3, 235680, Note_on_c, 0, 55, 72
3, 235680, Note_on_c, 0, 48, 72
3, 235800, Note_on_c, 0, 48, 0
3, 235800, Note_on_c, 0, 55, 0
3, 235920, Note_on_c, 0, 48, 72
3, 235920, Note_on_c, 0, 55, 72
3, 236040, Note_on_c, 0, 55, 0
3, 236040, Note_on_c, 0, 48, 0
3, 236160, Note_on_c, 0, 48, 71
3, 236160, Note_on_c, 0, 55, 71
3, 236640, Note_on_c, 0, 55, 0
3, 236640, Note_on_c, 0, 48, 0
3, 236640, Note_on_c, 0, 55, 64
3, 236640, Note_on_c, 0, 48, 64
3, 236880, Note_on_c, 0, 48, 0
3, 236880, Note_on_c, 0, 55, 0
3, 236880, Note_on_c, 0, 48, 64
3, 236880, Note_on_c, 0, 55, 64
3, 237000, Note_on_c, 0, 55, 0
3, 237000, Note_on_c, 0, 48, 0
3, 237120, Note_on_c, 0, 55, 71
3, 237120, Note_on_c, 0, 48, 71
3, 237600, Note_on_c, 0, 48, 0
3, 237600, Note_on_c, 0, 55, 0
3, 237600, Note_on_c, 0, 55, 64
3, 237600, Note_on_c, 0, 48, 64
3, 237840, Note_on_c, 0, 48, 0
3, 237840, Note_on_c, 0, 55, 0
3, 237840, Note_on_c, 0, 55, 64
3, 237840, Note_on_c, 0, 48, 64
3, 237960, Note_on_c, 0, 48, 0
3, 237960, Note_on_c, 0, 55, 0
3, 240000, Note_on_c, 0, 59, 59
3, 240480, Note_on_c, 0, 59, 0
3, 241920, Note_on_c, 0, 46, 33
3, 241920, Note_on_c, 0, 55, 33
3, 242040, Note_on_c, 0, 55, 0
3, 242040, Note_on_c, 0, 46, 0
3, 242040, Note_on_c, 0, 58, 33
3, 242160, Note_on_c, 0, 58, 0
3, 242160, Note_on_c, 0, 63, 33
3, 242280, Note_on_c, 0, 63, 0
3, 242280, Note_on_c, 0, 67, 33
3, 242400, Note_on_c, 0, 67, 0
3, 242880, Note_on_c, 0, 53, 33
3, 242880, Note_on_c, 0, 46, 33
3, 243000, Note_on_c, 0, 46, 0
3, 243000, Note_on_c, 0, 53, 0
3, 243000, Note_on_c, 0, 58, 33
3, 243120, Note_on_c, 0, 58, 0
3, 243120, Note_on_c, 0, 62, 33
3, 243240, Note_on_c, 0, 62, 0
3, 243240, Note_on_c, 0, 68, 33
3, 243360, Note_on_c, 0, 68, 0
3, 243840, Note_on_c, 0, 46, 33
3, 243840, Note_on_c, 0, 39, 33
3, 244320, Note_on_c, 0, 39, 0
3, 244320, Note_on_c, 0, 46, 0
3, 244320, Note_on_c, 0, 58, 30
3, 244320, Note_on_c, 0, 51, 30
3, 244440, Note_on_c, 0, 51, 0
3, 244440, Note_on_c, 0, 58, 0
3, 244560, Note_on_c, 0, 58, 30
3, 244560, Note_on_c, 0, 51, 30
3, 244680, Note_on_c, 0, 51, 0
3, 244680, Note_on_c, 0, 58, 0
3, 244800, Note_on_c, 0, 58, 33
3, 244800, Note_on_c, 0, 51, 33
3, 245280, Note_on_c, 0, 51, 0
3, 245280, Note_on_c, 0, 58, 0
3, 245280, Control_c, 0, 91, 127
3, 245280, Note_on_c, 0, 46, 27
3, 245280, Note_on_c, 0, 51, 27
3, 245400, Note_on_c, 0, 51, 0
3, 245400, Note_on_c, 0, 46, 0
3, 245520, Note_on_c, 0, 39, 23
3, 245640, Note_on_c, 0, 39, 0
3, 245760, Note_on_c, 0, 46, 23
3, 245760, Note_on_c, 0, 51, 23
3, 245880, Note_on_c, 0, 51, 0
3, 245880, Note_on_c, 0, 46, 0
3, 246000, Note_on_c, 0, 39, 26
3, 246120, Note_on_c, 0, 39, 0
3, 246240, Note_on_c, 0, 46, 29
3, 246240, Note_on_c, 0, 51, 29
3, 246360, Note_on_c, 0, 51, 0
3, 246360, Note_on_c, 0, 46, 0
3, 246480, Note_on_c, 0, 39, 27
3, 246600, Note_on_c, 0, 39, 0
3, 246720, Note_on_c, 0, 46, 27
3, 246720, Note_on_c, 0, 51, 27
3, 246840, Note_on_c, 0, 51, 0
3, 246840, Note_on_c, 0, 46, 0
3, 246960, Note_on_c, 0, 39, 28
3, 247080, Note_on_c, 0, 39, 0
3, 247200, Note_on_c, 0, 46, 35
3, 247200, Note_on_c, 0, 51, 35
3, 247320, Note_on_c, 0, 51, 0
3, 247320, Note_on_c, 0, 46, 0
3, 247440, Note_on_c, 0, 39, 30
3, 247560, Note_on_c, 0, 39, 0
3, 247680, Note_on_c, 0, 46, 30
3, 247680, Note_on_c, 0, 51, 30
3, 247800, Note_on_c, 0, 51, 0
3, 247800, Note_on_c, 0, 46, 0
3, 247920, Note_on_c, 0, 39, 30
3, 248040, Note_on_c, 0, 39, 0
3, 248160, Note_on_c, 0, 46, 36
3, 248160, Note_on_c, 0, 51, 36
3, 248280, Note_on_c, 0, 51, 0
3, 248280, Note_on_c, 0, 46, 0
3, 248400, Note_on_c, 0, 39, 33
3, 248520, Note_on_c, 0, 39, 0
3, 248640, Note_on_c, 0, 46, 33
3, 248640, Note_on_c, 0, 51, 33
3, 248760, Note_on_c, 0, 51, 0
3, 248760, Note_on_c, 0, 46, 0
3, 248880, Note_on_c, 0, 39, 33
3, 249000, Note_on_c, 0, 39, 0
3, 249120, Control_c, 0, 91, 127
3, 249120, Note_on_c, 0, 48, 33
3, 249120, Note_on_c, 0, 51, 33
3, 249240, Note_on_c, 0, 51, 0
3, 249240, Note_on_c, 0, 48, 0
3, 249360, Note_on_c, 0, 39, 30
3, 249480, Note_on_c, 0, 39, 0
3, 249600, Note_on_c, 0, 48, 31
3, 249600, Note_on_c, 0, 51, 31
3, 249720, Note_on_c, 0, 51, 0
3, 249720, Note_on_c, 0, 48, 0
3, 249840, Note_on_c, 0, 39, 30
3, 249960, Note_on_c, 0, 39, 0
3, 250080, Note_on_c, 0, 48, 34
3, 250080, Note_on_c, 0, 51, 34
3, 250200, Note_on_c, 0, 51, 0
3, 250200, Note_on_c, 0, 48, 0
3, 250320, Note_on_c, 0, 39, 31
3, 250440, Note_on_c, 0, 39, 0
3, 250560, Note_on_c, 0, 48, 32
3, 250560, Note_on_c, 0, 51, 32
3, 250680, Note_on_c, 0, 51, 0
3, 250680, Note_on_c, 0, 48, 0
3, 250800, Note_on_c, 0, 39, 32
3, 250920, Note_on_c, 0, 39, 0
3, 251040, Note_on_c, 0, 48, 40
3, 251040, Note_on_c, 0, 51, 40
3, 251160, Note_on_c, 0, 51, 0
3, 251160, Note_on_c, 0, 48, 0
3, 251280, Note_on_c, 0, 39, 34
3, 251400, Note_on_c, 0, 39, 0
3, 251520, Note_on_c, 0, 48, 35
3, 251520, Note_on_c, 0, 51, 35
3, 251640, Note_on_c, 0, 51, 0
3, 251640, Note_on_c, 0, 48, 0
3, 251760, Note_on_c, 0, 39, 35
3, 251880, Note_on_c, 0, 39, 0
3, 252000, Note_on_c, 0, 48, 42
3, 252000, Note_on_c, 0, 51, 42
3, 252120, Note_on_c, 0, 51, 0
3, 252120, Note_on_c, 0, 48, 0
3, 252240, Note_on_c, 0, 39, 37
3, 252360, Note_on_c, 0, 39, 0
3, 252480, Note_on_c, 0, 48, 38
3, 252480, Note_on_c, 0, 51, 38
3, 252600, Note_on_c, 0, 51, 0
3, 252600, Note_on_c, 0, 48, 0
3, 252720, Note_on_c, 0, 39, 38
3, 252840, Note_on_c, 0, 39, 0
3, 252960, Control_c, 0, 91, 127
3, 252960, Note_on_c, 0, 44, 44
3, 252960, Note_on_c, 0, 54, 44
3, 253080, Note_on_c, 0, 54, 0
3, 253080, Note_on_c, 0, 44, 0
3, 253200, Note_on_c, 0, 39, 42
3, 253320, Note_on_c, 0, 39, 0
3, 253440, Note_on_c, 0, 44, 44
3, 253440, Note_on_c, 0, 54, 44
3, 253560, Note_on_c, 0, 54, 0
3, 253560, Note_on_c, 0, 44, 0
3, 253680, Note_on_c, 0, 39, 39
3, 253800, Note_on_c, 0, 39, 0
3, 253920, Note_on_c, 0, 44, 45
3, 253920, Note_on_c, 0, 54, 45
3, 254040, Note_on_c, 0, 54, 0
3, 254040, Note_on_c, 0, 44, 0
3, 254160, Note_on_c, 0, 39, 42
3, 254280, Note_on_c, 0, 39, 0
3, 254400, Note_on_c, 0, 44, 42
3, 254400, Note_on_c, 0, 54, 42
3, 254520, Note_on_c, 0, 54, 0
3, 254520, Note_on_c, 0, 44, 0
3, 254640, Note_on_c, 0, 39, 44
3, 254760, Note_on_c, 0, 39, 0
3, 254880, Note_on_c, 0, 44, 48
3, 254880, Note_on_c, 0, 54, 48
3, 255000, Note_on_c, 0, 54, 0
3, 255000, Note_on_c, 0, 44, 0
3, 255120, Note_on_c, 0, 39, 42
3, 255240, Note_on_c, 0, 39, 0
3, 255360, Note_on_c, 0, 44, 47
3, 255360, Note_on_c, 0, 54, 47
3, 255480, Note_on_c, 0, 54, 0
3, 255480, Note_on_c, 0, 44, 0
3, 255600, Note_on_c, 0, 39, 44
3, 255720, Note_on_c, 0, 39, 0
3, 255840, Note_on_c, 0, 44, 50
3, 255840, Note_on_c, 0, 54, 50
3, 255960, Note_on_c, 0, 54, 0
3, 255960, Note_on_c, 0, 44, 0
3, 256080, Note_on_c, 0, 39, 46
3, 256200, Note_on_c, 0, 39, 0
3, 256320, Note_on_c, 0, 44, 46
3, 256320, Note_on_c, 0, 54, 46
3, 256440, Note_on_c, 0, 54, 0
3, 256440, Note_on_c, 0, 44, 0
3, 256560, Note_on_c, 0, 39, 46
3, 256680, Note_on_c, 0, 39, 0
3, 256800, Control_c, 0, 91, 127
3, 256800, Note_on_c, 0, 44, 50
3, 256800, Note_on_c, 0, 53, 50
3, 256920, Note_on_c, 0, 53, 0
3, 256920, Note_on_c, 0, 44, 0
3, 257040, Note_on_c, 0, 39, 46
3, 257160, Note_on_c, 0, 39, 0
3, 257280, Note_on_c, 0, 44, 48
3, 257280, Note_on_c, 0, 53, 48
3, 257400, Note_on_c, 0, 53, 0
3, 257400, Note_on_c, 0, 44, 0
3, 257520, Note_on_c, 0, 39, 46
3, 257640, Note_on_c, 0, 39, 0
3, 257760, Note_on_c, 0, 44, 51
3, 257760, Note_on_c, 0, 53, 51
3, 257880, Note_on_c, 0, 53, 0
3, 257880, Note_on_c, 0, 44, 0
3, 258000, Note_on_c, 0, 39, 47
3, 258120, Note_on_c, 0, 39, 0
3, 258240, Note_on_c, 0, 44, 50
3, 258240, Note_on_c, 0, 53, 50
3, 258360, Note_on_c, 0, 53, 0
3, 258360, Note_on_c, 0, 44, 0
3, 258480, Note_on_c, 0, 39, 47
3, 258600, Note_on_c, 0, 39, 0
3, 258720, Note_on_c, 0, 44, 60
3, 258720, Note_on_c, 0, 53, 60
3, 258840, Note_on_c, 0, 53, 0
3, 258840, Note_on_c, 0, 44, 0
3, 258960, Note_on_c, 0, 39, 50
3, 259080, Note_on_c, 0, 39, 0
3, 259200, Note_on_c, 0, 44, 56
3, 259200, Note_on_c, 0, 53, 56
3, 259320, Note_on_c, 0, 53, 0
3, 259320, Note_on_c, 0, 44, 0
3, 259440, Note_on_c, 0, 39, 51
3, 259560, Note_on_c, 0, 39, 0
3, 259680, Note_on_c, 0, 44, 59
3, 259680, Note_on_c, 0, 53, 59
3, 259800, Note_on_c, 0, 53, 0
3, 259800, Note_on_c, 0, 44, 0
3, 259920, Note_on_c, 0, 39, 53
3, 260040, Note_on_c, 0, 39, 0
3, 260160, Note_on_c, 0, 44, 57
3, 260160, Note_on_c, 0, 53, 57
3, 260280, Note_on_c, 0, 53, 0
3, 260280, Note_on_c, 0, 44, 0
3, 260400, Note_on_c, 0, 39, 53
3, 260520, Note_on_c, 0, 39, 0
3, 260640, Note_on_c, 0, 39, 60
3, 260640, Note_on_c, 0, 46, 60
3, 260640, Note_on_c, 0, 53, 60
3, 260880, Note_on_c, 0, 53, 0
3, 260880, Note_on_c, 0, 46, 0
3, 260880, Note_on_c, 0, 39, 0
3, 260880, Note_on_c, 0, 39, 55
3, 260880, Note_on_c, 0, 46, 55
3, 260880, Note_on_c, 0, 53, 55
3, 261120, Note_on_c, 0, 53, 0
3, 261120, Note_on_c, 0, 46, 0
3, 261120, Note_on_c, 0, 39, 0
3, 261120, Note_on_c, 0, 39, 57
3, 261120, Note_on_c, 0, 46, 57
3, 261120, Note_on_c, 0, 53, 57
3, 261600, Note_on_c, 0, 53, 0
3, 261600, Note_on_c, 0, 46, 0
3, 261600, Note_on_c, 0, 39, 0
3, 261600, Note_on_c, 0, 51, 53
3, 261600, Note_on_c, 0, 58, 53
3, 261600, Note_on_c, 0, 65, 53
3, 261840, Note_on_c, 0, 65, 0
3, 261840, Note_on_c, 0, 58, 0
3, 261840, Note_on_c, 0, 51, 0
3, 261840, Note_on_c, 0, 51, 53
3, 261840, Note_on_c, 0, 58, 53
3, 261840, Note_on_c, 0, 65, 53
3, 262080, Note_on_c, 0, 65, 0
3, 262080, Note_on_c, 0, 58, 0
3, 262080, Note_on_c, 0, 51, 0
3, 262080, Note_on_c, 0, 51, 61
3, 262080, Note_on_c, 0, 58, 61
3, 262080, Note_on_c, 0, 65, 61
3, 262560, Note_on_c, 0, 65, 0
3, 262560, Note_on_c, 0, 58, 0
3, 262560, Note_on_c, 0, 51, 0
3, 262560, Note_on_c, 0, 39, 59
3, 262560, Note_on_c, 0, 46, 59
3, 262560, Note_on_c, 0, 53, 59
3, 262800, Note_on_c, 0, 53, 0
3, 262800, Note_on_c, 0, 46, 0
3, 262800, Note_on_c, 0, 39, 0
3, 262800, Note_on_c, 0, 39, 55
3, 262800, Note_on_c, 0, 46, 55
3, 262800, Note_on_c, 0, 53, 55
3, 263040, Note_on_c, 0, 53, 0
3, 263040, Note_on_c, 0, 46, 0
3, 263040, Note_on_c, 0, 39, 0
3, 263040, Note_on_c, 0, 39, 59
3, 263040, Note_on_c, 0, 46, 59
3, 263040, Note_on_c, 0, 53, 59
3, 263520, Note_on_c, 0, 53, 0
3, 263520, Note_on_c, 0, 46, 0
3, 263520, Note_on_c, 0, 39, 0
3, 263520, Note_on_c, 0, 51, 61
3, 263520, Note_on_c, 0, 58, 61
3, 263520, Note_on_c, 0, 65, 61
3, 263760, Note_on_c, 0, 65, 0
3, 263760, Note_on_c, 0, 58, 0
3, 263760, Note_on_c, 0, 51, 0
3, 263760, Note_on_c, 0, 51, 56
3, 263760, Note_on_c, 0, 58, 56
3, 263760, Note_on_c, 0, 65, 56
3, 264000, Note_on_c, 0, 65, 0
3, 264000, Note_on_c, 0, 58, 0
3, 264000, Note_on_c, 0, 51, 0
3, 264000, Note_on_c, 0, 51, 64
3, 264000, Note_on_c, 0, 58, 64
3, 264000, Note_on_c, 0, 65, 64
3, 264480, Note_on_c, 0, 65, 0
3, 264480, Note_on_c, 0, 58, 0
3, 264480, Note_on_c, 0, 51, 0
3, 264480, Note_on_c, 0, 65, 75
3, 264480, Note_on_c, 0, 53, 75
3, 264600, Note_on_c, 0, 53, 0
3, 264600, Note_on_c, 0, 65, 0
3, 264720, Note_on_c, 0, 55, 75
3, 264720, Note_on_c, 0, 67, 75
3, 264840, Note_on_c, 0, 67, 0
3, 264840, Note_on_c, 0, 55, 0
3, 264960, Note_on_c, 0, 68, 82
3, 264960, Note_on_c, 0, 56, 82
3, 265080, Note_on_c, 0, 56, 0
3, 265080, Note_on_c, 0, 68, 0
3, 265200, Note_on_c, 0, 72, 75
3, 265200, Note_on_c, 0, 60, 75
3, 265320, Note_on_c, 0, 60, 0
3, 265320, Note_on_c, 0, 72, 0
3, 265440, Note_on_c, 0, 68, 75
3, 265440, Note_on_c, 0, 56, 75
3, 265560, Note_on_c, 0, 56, 0
3, 265560, Note_on_c, 0, 68, 0
3, 265680, Note_on_c, 0, 65, 75
3, 265680, Note_on_c, 0, 53, 75
3, 265800, Note_on_c, 0, 53, 0
3, 265800, Note_on_c, 0, 65, 0
3, 265920, Note_on_c, 0, 68, 82
3, 265920, Note_on_c, 0, 56, 82
3, 266160, Note_on_c, 0, 56, 0
3, 266160, Note_on_c, 0, 68, 0
3, 266160, Note_on_c, 0, 65, 75
3, 266160, Note_on_c, 0, 53, 75
3, 266400, Note_on_c, 0, 53, 0
3, 266400, Note_on_c, 0, 65, 0
3, 266400, Note_on_c, 0, 62, 75
3, 266400, Note_on_c, 0, 50, 75
3, 266640, Note_on_c, 0, 50, 0
3, 266640, Note_on_c, 0, 62, 0
3, 266640, Note_on_c, 0, 53, 75
3, 266640, Note_on_c, 0, 65, 75
3, 266880, Note_on_c, 0, 65, 0
3, 266880, Note_on_c, 0, 53, 0
3, 266880, Note_on_c, 0, 50, 82
3, 266880, Note_on_c, 0, 62, 82
3, 267120, Note_on_c, 0, 62, 0
3, 267120, Note_on_c, 0, 50, 0
3, 267120, Note_on_c, 0, 46, 75
3, 267120, Note_on_c, 0, 58, 75
3, 267360, Note_on_c, 0, 58, 0
3, 267360, Note_on_c, 0, 46, 0
3, 267360, Note_on_c, 0, 62, 75
3, 267360, Note_on_c, 0, 50, 75
3, 267600, Note_on_c, 0, 50, 0
3, 267600, Note_on_c, 0, 62, 0
3, 267600, Note_on_c, 0, 46, 75
3, 267600, Note_on_c, 0, 58, 75
3, 267840, Note_on_c, 0, 58, 0
3, 267840, Note_on_c, 0, 46, 0
3, 267840, Note_on_c, 0, 43, 82
3, 267840, Note_on_c, 0, 55, 82
3, 268080, Note_on_c, 0, 55, 0
3, 268080, Note_on_c, 0, 43, 0
3, 268080, Note_on_c, 0, 46, 75
3, 268080, Note_on_c, 0, 58, 75
3, 268320, Note_on_c, 0, 58, 0
3, 268320, Note_on_c, 0, 46, 0
3, 268320, Note_on_c, 0, 43, 75
3, 268320, Note_on_c, 0, 55, 75
3, 268560, Note_on_c, 0, 55, 0
3, 268560, Note_on_c, 0, 43, 0
3, 268560, Note_on_c, 0, 39, 75
3, 268560, Note_on_c, 0, 51, 75
3, 268800, Note_on_c, 0, 51, 0
3, 268800, Note_on_c, 0, 39, 0
3, 268800, Note_on_c, 0, 43, 85
3, 268800, Note_on_c, 0, 55, 85
3, 269040, Note_on_c, 0, 55, 0
3, 269040, Note_on_c, 0, 43, 0
3, 269040, Note_on_c, 0, 39, 79
3, 269040, Note_on_c, 0, 51, 79
3, 269280, Note_on_c, 0, 51, 0
3, 269280, Note_on_c, 0, 39, 0
3, 269280, Note_on_c, 0, 36, 79
3, 269280, Note_on_c, 0, 48, 79
3, 269520, Note_on_c, 0, 48, 0
3, 269520, Note_on_c, 0, 36, 0
3, 269520, Note_on_c, 0, 39, 79
3, 269520, Note_on_c, 0, 51, 79
3, 269760, Note_on_c, 0, 51, 0
3, 269760, Note_on_c, 0, 39, 0
3, 269760, Note_on_c, 0, 36, 85
3, 269760, Note_on_c, 0, 48, 85
3, 270000, Note_on_c, 0, 48, 0
3, 270000, Note_on_c, 0, 36, 0
3, 270000, Note_on_c, 0, 32, 81
3, 270000, Note_on_c, 0, 44, 81
3, 270240, Note_on_c, 0, 44, 0
3, 270240, Note_on_c, 0, 32, 0
3, 270240, Note_on_c, 0, 36, 86
3, 270240, Note_on_c, 0, 48, 86
3, 270480, Note_on_c, 0, 48, 0
3, 270480, Note_on_c, 0, 36, 0
3, 270480, Note_on_c, 0, 32, 95
3, 270480, Note_on_c, 0, 44, 95
3, 270720, Note_on_c, 0, 44, 0
3, 270720, Note_on_c, 0, 32, 0
3, 270720, Control_c, 0, 91, 127
3, 270720, Note_on_c, 0, 31, 90
3, 270720, Note_on_c, 0, 43, 107
3, 271200, Note_on_c, 0, 51, 88
3, 271200, Note_on_c, 0, 48, 74
3, 271200, Note_on_c, 0, 44, 74
3, 271680, Note_on_c, 0, 44, 0
3, 271680, Note_on_c, 0, 51, 0
3, 271680, Note_on_c, 0, 48, 0
3, 271680, Note_on_c, 0, 63, 88
3, 271680, Note_on_c, 0, 60, 74
3, 271680, Note_on_c, 0, 56, 74
3, 272160, Note_on_c, 0, 56, 0
3, 272160, Note_on_c, 0, 63, 0
3, 272160, Note_on_c, 0, 60, 0
3, 272160, Note_on_c, 0, 75, 88
3, 272160, Note_on_c, 0, 72, 74
3, 272160, Note_on_c, 0, 68, 74
3, 272640, Note_on_c, 0, 68, 0
3, 272640, Note_on_c, 0, 75, 0
3, 272640, Note_on_c, 0, 31, 0
3, 272640, Note_on_c, 0, 43, 0
3, 272640, Note_on_c, 0, 72, 0
3, 272640, Note_on_c, 0, 30, 90
3, 272640, Note_on_c, 0, 42, 107
3, 273120, Note_on_c, 0, 51, 88
3, 273120, Note_on_c, 0, 48, 74
3, 273120, Note_on_c, 0, 44, 74
3, 273600, Note_on_c, 0, 44, 0
3, 273600, Note_on_c, 0, 51, 0
3, 273600, Note_on_c, 0, 48, 0
3, 273600, Note_on_c, 0, 63, 88
3, 273600, Note_on_c, 0, 60, 74
3, 273600, Note_on_c, 0, 56, 74
3, 274080, Note_on_c, 0, 56, 0
3, 274080, Note_on_c, 0, 63, 0
3, 274080, Note_on_c, 0, 60, 0
3, 274080, Note_on_c, 0, 75, 88
3, 274080, Note_on_c, 0, 72, 74
3, 274080, Note_on_c, 0, 68, 74
3, 274560, Note_on_c, 0, 68, 0
3, 274560, Note_on_c, 0, 75, 0
3, 274560, Note_on_c, 0, 30, 0
3, 274560, Note_on_c, 0, 42, 0
3, 274560, Note_on_c, 0, 72, 0
3, 274560, Note_on_c, 0, 29, 93
3, 274560, Note_on_c, 0, 41, 110
3, 275040, Note_on_c, 0, 51, 88
3, 275040, Note_on_c, 0, 47, 74
3, 275040, Note_on_c, 0, 44, 74
3, 275520, Note_on_c, 0, 44, 0
3, 275520, Note_on_c, 0, 51, 0
3, 275520, Note_on_c, 0, 47, 0
3, 275520, Note_on_c, 0, 63, 88
3, 275520, Note_on_c, 0, 59, 74
3, 275520, Note_on_c, 0, 56, 74
3, 276000, Note_on_c, 0, 56, 0
3, 276000, Note_on_c, 0, 63, 0
3, 276000, Note_on_c, 0, 59, 0
3, 276000, Note_on_c, 0, 75, 88
3, 276000, Note_on_c, 0, 71, 74
3, 276000, Note_on_c, 0, 68, 74
3, 276480, Note_on_c, 0, 68, 0
3, 276480, Note_on_c, 0, 75, 0
3, 276480, Note_on_c, 0, 29, 0
3, 276480, Note_on_c, 0, 41, 0
3, 276480, Note_on_c, 0, 71, 0
3, 276480, Note_on_c, 0, 28, 93
3, 276480, Note_on_c, 0, 40, 110
3, 276960, Note_on_c, 0, 49, 88
3, 276960, Note_on_c, 0, 45, 74
3, 276960, Note_on_c, 0, 40, 74
3, 277440, Note_on_c, 0, 40, 0
3, 277440, Note_on_c, 0, 49, 0
3, 277440, Note_on_c, 0, 45, 0
3, 277440, Note_on_c, 0, 57, 74
3, 277440, Note_on_c, 0, 61, 88
3, 277440, Note_on_c, 0, 52, 74
3, 277920, Note_on_c, 0, 52, 0
3, 277920, Note_on_c, 0, 57, 0
3, 277920, Note_on_c, 0, 61, 0
3, 277920, Note_on_c, 0, 73, 88
3, 277920, Note_on_c, 0, 69, 74
3, 277920, Note_on_c, 0, 64, 74
3, 278160, Note_on_c, 0, 64, 0
3, 278160, Note_on_c, 0, 73, 0
3, 278160, Note_on_c, 0, 69, 0
3, 278160, Control_c, 0, 91, 127
3, 278400, Note_on_c, 0, 40, 0
3, 278400, Note_on_c, 0, 28, 0
3, 278400, Note_on_c, 0, 38, 79
3, 278400, Note_on_c, 0, 45, 79
3, 278520, Note_on_c, 0, 45, 0
3, 278520, Note_on_c, 0, 38, 0
3, 278520, Note_on_c, 0, 50, 68
3, 278640, Note_on_c, 0, 50, 0
3, 278640, Note_on_c, 0, 54, 68
3, 278760, Note_on_c, 0, 54, 0
3, 278760, Note_on_c, 0, 57, 68
3, 278880, Note_on_c, 0, 57, 0
3, 278880, Note_on_c, 0, 62, 70
3, 278976, Note_on_c, 0, 62, 0
3, 278976, Note_on_c, 0, 57, 70
3, 279072, Note_on_c, 0, 57, 0
3, 279072, Note_on_c, 0, 54, 69
3, 279168, Note_on_c, 0, 54, 0
3, 279168, Note_on_c, 0, 50, 68
3, 279264, Note_on_c, 0, 50, 0
3, 279264, Note_on_c, 0, 45, 68
3, 279360, Note_on_c, 0, 45, 0
3, 279360, Note_on_c, 0, 38, 64
3, 279456, Note_on_c, 0, 38, 0
3, 279456, Note_on_c, 0, 45, 69
3, 279552, Note_on_c, 0, 45, 0
3, 279552, Note_on_c, 0, 50, 70
3, 279648, Note_on_c, 0, 50, 0
3, 279648, Note_on_c, 0, 54, 71
3, 279744, Note_on_c, 0, 54, 0
3, 279744, Note_on_c, 0, 57, 73
3, 279840, Note_on_c, 0, 57, 0
3, 279840, Note_on_c, 0, 62, 75
3, 280080, Note_on_c, 0, 62, 0
3, 280320, Note_on_c, 0, 38, 77
3, 280320, Note_on_c, 0, 45, 77
3, 280320, Note_on_c, 0, 50, 77
3, 280560, Note_on_c, 0, 50, 0
3, 280560, Note_on_c, 0, 45, 0
3, 280560, Note_on_c, 0, 38, 0
3, 280560, Note_on_c, 0, 62, 68
3, 280560, Note_on_c, 0, 57, 68
3, 280560, Note_on_c, 0, 54, 68
3, 281040, Note_on_c, 0, 54, 0
3, 281040, Note_on_c, 0, 57, 0
3, 281040, Note_on_c, 0, 62, 0
3, 281040, Note_on_c, 0, 66, 68
3, 281040, Note_on_c, 0, 62, 68
3, 281040, Note_on_c, 0, 57, 68
3, 281520, Note_on_c, 0, 57, 0
3, 281520, Note_on_c, 0, 62, 0
3, 281520, Note_on_c, 0, 66, 0
3, 281520, Note_on_c, 0, 69, 68
3, 281520, Note_on_c, 0, 66, 68
3, 281520, Note_on_c, 0, 62, 68
3, 281760, Note_on_c, 0, 62, 0
3, 281760, Note_on_c, 0, 66, 0
3, 281760, Note_on_c, 0, 69, 0
3, 282240, Note_on_c, 0, 35, 66
3, 282320, Note_on_c, 0, 35, 0
3, 282320, Note_on_c, 0, 42, 59
3, 282400, Note_on_c, 0, 42, 0
3, 282400, Note_on_c, 0, 47, 59
3, 282480, Note_on_c, 0, 47, 0
3, 282480, Note_on_c, 0, 50, 59
3, 282560, Note_on_c, 0, 50, 0
3, 282560, Note_on_c, 0, 54, 59
3, 282640, Note_on_c, 0, 54, 0
3, 282640, Note_on_c, 0, 59, 59
3, 282720, Note_on_c, 0, 59, 0
3, 282720, Note_on_c, 0, 62, 59
3, 282960, Note_on_c, 0, 62, 0
3, 283200, Note_on_c, 0, 40, 66
3, 283296, Note_on_c, 0, 40, 0
3, 283296, Note_on_c, 0, 47, 59
3, 283392, Note_on_c, 0, 47, 0
3, 283392, Note_on_c, 0, 52, 59
3, 283488, Note_on_c, 0, 52, 0
3, 283488, Note_on_c, 0, 56, 59
3, 283584, Note_on_c, 0, 56, 0
3, 283584, Note_on_c, 0, 62, 59
3, 283680, Note_on_c, 0, 62, 0
3, 283680, Note_on_c, 0, 66, 59
3, 283920, Note_on_c, 0, 66, 0
3, 284160, Note_on_c, 0, 33, 75
3, 284160, Note_on_c, 0, 40, 75
3, 284160, Note_on_c, 0, 45, 75
3, 284400, Note_on_c, 0, 45, 0
3, 284400, Note_on_c, 0, 40, 0
3, 284400, Note_on_c, 0, 33, 0
3, 284400, Note_on_c, 0, 61, 64
3, 284400, Note_on_c, 0, 57, 64
3, 284400, Note_on_c, 0, 52, 64
3, 284880, Note_on_c, 0, 52, 0
3, 284880, Note_on_c, 0, 57, 0
3, 284880, Note_on_c, 0, 61, 0
3, 284880, Note_on_c, 0, 64, 64
3, 284880, Note_on_c, 0, 61, 64
3, 284880, Note_on_c, 0, 57, 64
3, 285360, Note_on_c, 0, 57, 0
3, 285360, Note_on_c, 0, 61, 0
3, 285360, Note_on_c, 0, 64, 0
3, 285360, Note_on_c, 0, 69, 64
3, 285360, Note_on_c, 0, 64, 64
3, 285360, Note_on_c, 0, 61, 64
3, 285600, Note_on_c, 0, 61, 0
3, 285600, Note_on_c, 0, 64, 0
3, 285600, Note_on_c, 0, 69, 0
3, 286080, Note_on_c, 0, 43, 65
3, 286080, Note_on_c, 0, 50, 65
3, 286200, Note_on_c, 0, 50, 0
3, 286200, Note_on_c, 0, 43, 0
3, 286200, Note_on_c, 0, 55, 57
3, 286320, Note_on_c, 0, 55, 0
3, 286320, Note_on_c, 0, 59, 57
3, 286440, Note_on_c, 0, 59, 0
3, 286440, Note_on_c, 0, 62, 57
3, 286560, Note_on_c, 0, 62, 0
3, 286560, Note_on_c, 0, 67, 65
3, 286656, Note_on_c, 0, 67, 0
3, 286656, Note_on_c, 0, 62, 59
3, 286752, Note_on_c, 0, 62, 0
3, 286752, Note_on_c, 0, 59, 58
3, 286848, Note_on_c, 0, 59, 0
3, 286848, Note_on_c, 0, 55, 58
3, 286944, Note_on_c, 0, 55, 0
3, 286944, Note_on_c, 0, 50, 57
3, 287040, Note_on_c, 0, 50, 0
3, 287040, Note_on_c, 0, 43, 56
3, 287136, Note_on_c, 0, 43, 0
3, 287136, Note_on_c, 0, 47, 56
3, 287232, Note_on_c, 0, 47, 0
3, 287232, Note_on_c, 0, 55, 57
3, 287328, Note_on_c, 0, 55, 0
3, 287328, Note_on_c, 0, 59, 57
3, 287424, Note_on_c, 0, 59, 0
3, 287424, Note_on_c, 0, 62, 57
3, 287520, Note_on_c, 0, 62, 0
3, 287520, Note_on_c, 0, 67, 57
3, 287760, Note_on_c, 0, 67, 0
3, 288000, Note_on_c, 0, 40, 73
3, 288000, Note_on_c, 0, 47, 73
3, 288000, Note_on_c, 0, 52, 73
3, 288240, Note_on_c, 0, 52, 0
3, 288240, Note_on_c, 0, 47, 0
3, 288240, Note_on_c, 0, 40, 0
3, 288240, Note_on_c, 0, 66, 62
3, 288240, Note_on_c, 0, 62, 62
3, 288240, Note_on_c, 0, 59, 62
3, 288240, Note_on_c, 0, 55, 62
3, 288720, Note_on_c, 0, 55, 0
3, 288720, Note_on_c, 0, 66, 0
3, 288720, Note_on_c, 0, 62, 0
3, 288720, Note_on_c, 0, 59, 0
3, 288720, Note_on_c, 0, 67, 62
3, 288720, Note_on_c, 0, 66, 62
3, 288720, Note_on_c, 0, 62, 62
3, 288720, Note_on_c, 0, 59, 62
3, 289200, Note_on_c, 0, 59, 0
3, 289200, Note_on_c, 0, 67, 0
3, 289200, Note_on_c, 0, 66, 0
3, 289200, Note_on_c, 0, 62, 0
3, 289200, Note_on_c, 0, 71, 62
3, 289200, Note_on_c, 0, 67, 62
3, 289200, Note_on_c, 0, 66, 62
3, 289200, Note_on_c, 0, 62, 62
3, 289440, Note_on_c, 0, 62, 0
3, 289440, Note_on_c, 0, 71, 0
3, 289440, Note_on_c, 0, 67, 0
3, 289440, Note_on_c, 0, 66, 0
3, 289920, Note_on_c, 0, 45, 69
3, 290016, Note_on_c, 0, 45, 0
3, 290016, Note_on_c, 0, 52, 60
3, 290112, Note_on_c, 0, 52, 0
3, 290112, Note_on_c, 0, 57, 60
3, 290208, Note_on_c, 0, 57, 0
3, 290208, Note_on_c, 0, 62, 60
3, 290304, Note_on_c, 0, 62, 0
3, 290304, Note_on_c, 0, 67, 60
3, 290400, Note_on_c, 0, 67, 0
3, 290400, Note_on_c, 0, 71, 60
3, 290640, Note_on_c, 0, 71, 0
3, 290880, Note_on_c, 0, 45, 69
3, 290976, Note_on_c, 0, 45, 0
3, 290976, Note_on_c, 0, 52, 60
3, 291072, Note_on_c, 0, 52, 0
3, 291072, Note_on_c, 0, 57, 60
3, 291168, Note_on_c, 0, 57, 0
3, 291168, Note_on_c, 0, 62, 60
3, 291264, Note_on_c, 0, 62, 0
3, 291264, Note_on_c, 0, 67, 60
3, 291360, Note_on_c, 0, 67, 0
3, 291360, Note_on_c, 0, 71, 60
3, 291600, Note_on_c, 0, 71, 0
3, 291840, Note_on_c, 0, 38, 75
3, 291840, Note_on_c, 0, 45, 75
3, 291840, Note_on_c, 0, 50, 75
3, 292080, Note_on_c, 0, 50, 0
3, 292080, Note_on_c, 0, 45, 0
3, 292080, Note_on_c, 0, 38, 0
3, 292080, Note_on_c, 0, 66, 64
3, 292080, Note_on_c, 0, 62, 64
3, 292080, Note_on_c, 0, 57, 64
3, 292560, Note_on_c, 0, 57, 0
3, 292560, Note_on_c, 0, 62, 0
3, 292560, Note_on_c, 0, 66, 0
3, 292560, Note_on_c, 0, 69, 64
3, 292560, Note_on_c, 0, 66, 64
3, 292560, Note_on_c, 0, 62, 64
3, 293040, Note_on_c, 0, 62, 0
3, 293040, Note_on_c, 0, 66, 0
3, 293040, Note_on_c, 0, 69, 0
3, 293040, Note_on_c, 0, 66, 62
3, 293040, Note_on_c, 0, 69, 62
3, 293040, Note_on_c, 0, 74, 62
3, 293280, Note_on_c, 0, 74, 0
3, 293280, Note_on_c, 0, 69, 0
3, 293280, Note_on_c, 0, 66, 0
3, 293760, Control_c, 0, 91, 127
3, 293760, Note_on_c, 0, 38, 55
3, 293760, Note_on_c, 0, 45, 55
3, 293940, Note_on_c, 0, 45, 0
3, 293940, Note_on_c, 0, 38, 0
3, 294000, Note_on_c, 0, 33, 48
3, 294000, Note_on_c, 0, 45, 48
3, 294180, Note_on_c, 0, 45, 0
3, 294180, Note_on_c, 0, 33, 0
3, 294240, Note_on_c, 0, 38, 55
3, 294240, Note_on_c, 0, 45, 55
3, 294420, Note_on_c, 0, 45, 0
3, 294420, Note_on_c, 0, 38, 0
3, 294480, Note_on_c, 0, 33, 48
3, 294480, Note_on_c, 0, 45, 48
3, 294660, Note_on_c, 0, 45, 0
3, 294660, Note_on_c, 0, 33, 0
3, 294720, Note_on_c, 0, 38, 52
3, 294720, Note_on_c, 0, 45, 52
3, 294900, Note_on_c, 0, 45, 0
3, 294900, Note_on_c, 0, 38, 0
3, 294960, Note_on_c, 0, 33, 48
3, 294960, Note_on_c, 0, 45, 48
3, 295140, Note_on_c, 0, 45, 0
3, 295140, Note_on_c, 0, 33, 0
3, 295200, Note_on_c, 0, 38, 55
3, 295200, Note_on_c, 0, 45, 55
3, 295380, Note_on_c, 0, 45, 0
3, 295380, Note_on_c, 0, 38, 0
3, 295440, Note_on_c, 0, 33, 46
3, 295440, Note_on_c, 0, 45, 46
3, 295620, Note_on_c, 0, 45, 0
3, 295620, Note_on_c, 0, 33, 0
3, 295680, Note_on_c, 0, 38, 51
3, 295680, Note_on_c, 0, 45, 51
3, 295860, Note_on_c, 0, 45, 0
3, 295860, Note_on_c, 0, 38, 0
3, 295920, Note_on_c, 0, 33, 52
3, 296100, Note_on_c, 0, 33, 0
3, 296160, Note_on_c, 0, 38, 51
3, 296160, Note_on_c, 0, 45, 51
3, 296340, Note_on_c, 0, 45, 0
3, 296340, Note_on_c, 0, 38, 0
3, 296400, Note_on_c, 0, 33, 52
3, 296580, Note_on_c, 0, 33, 0
3, 296640, Note_on_c, 0, 38, 51
3, 296640, Note_on_c, 0, 45, 51
3, 296820, Note_on_c, 0, 45, 0
3, 296820, Note_on_c, 0, 38, 0
3, 296880, Note_on_c, 0, 33, 51
3, 297060, Note_on_c, 0, 33, 0
3, 297120, Note_on_c, 0, 38, 51
3, 297120, Note_on_c, 0, 45, 51
3, 297300, Note_on_c, 0, 45, 0
3, 297300, Note_on_c, 0, 38, 0
3, 297360, Note_on_c, 0, 33, 52
3, 297540, Note_on_c, 0, 33, 0
3, 297600, Note_on_c, 0, 38, 55
3, 297600, Note_on_c, 0, 45, 55
3, 297607, Control_c, 0, 91, 127
3, 297780, Note_on_c, 0, 45, 0
3, 297780, Note_on_c, 0, 38, 0
3, 297840, Note_on_c, 0, 33, 48
3, 297840, Note_on_c, 0, 45, 48
3, 298020, Note_on_c, 0, 45, 0
3, 298020, Note_on_c, 0, 33, 0
3, 298080, Note_on_c, 0, 38, 55
3, 298080, Note_on_c, 0, 45, 55
3, 298260, Note_on_c, 0, 45, 0
3, 298260, Note_on_c, 0, 38, 0
3, 298320, Note_on_c, 0, 33, 48
3, 298320, Note_on_c, 0, 45, 48
3, 298500, Note_on_c, 0, 45, 0
3, 298500, Note_on_c, 0, 33, 0
3, 298560, Note_on_c, 0, 38, 53
3, 298560, Note_on_c, 0, 45, 53
3, 298740, Note_on_c, 0, 45, 0
3, 298740, Note_on_c, 0, 38, 0
3, 298800, Note_on_c, 0, 33, 48
3, 298800, Note_on_c, 0, 45, 48
3, 298980, Note_on_c, 0, 45, 0
3, 298980, Note_on_c, 0, 33, 0
3, 299040, Note_on_c, 0, 38, 53
3, 299040, Note_on_c, 0, 45, 53
3, 299220, Note_on_c, 0, 45, 0
3, 299220, Note_on_c, 0, 38, 0
3, 299280, Note_on_c, 0, 33, 46
3, 299280, Note_on_c, 0, 45, 46
3, 299460, Note_on_c, 0, 45, 0
3, 299460, Note_on_c, 0, 33, 0
3, 299520, Note_on_c, 0, 38, 51
3, 299520, Note_on_c, 0, 45, 51
3, 299700, Note_on_c, 0, 45, 0
3, 299700, Note_on_c, 0, 38, 0
3, 299760, Note_on_c, 0, 33, 52
3, 299940, Note_on_c, 0, 33, 0
3, 300000, Note_on_c, 0, 38, 51
3, 300000, Note_on_c, 0, 45, 51
3, 300180, Note_on_c, 0, 45, 0
3, 300180, Note_on_c, 0, 38, 0
3, 300240, Note_on_c, 0, 33, 52
3, 300420, Note_on_c, 0, 33, 0
3, 300480, Note_on_c, 0, 38, 51
3, 300480, Note_on_c, 0, 45, 51
3, 300660, Note_on_c, 0, 45, 0
3, 300660, Note_on_c, 0, 38, 0
3, 300720, Note_on_c, 0, 33, 51
3, 300900, Note_on_c, 0, 33, 0
3, 300960, Note_on_c, 0, 38, 51
3, 300960, Note_on_c, 0, 45, 51
3, 301140, Note_on_c, 0, 45, 0
3, 301140, Note_on_c, 0, 38, 0
3, 301200, Note_on_c, 0, 33, 40
3, 301380, Note_on_c, 0, 33, 0
3, 301440, Note_on_c, 0, 38, 44
3, 301440, Note_on_c, 0, 45, 44
3, 301447, Control_c, 0, 91, 127
3, 301620, Note_on_c, 0, 45, 0
3, 301620, Note_on_c, 0, 38, 0
3, 301680, Note_on_c, 0, 33, 38
3, 301680, Note_on_c, 0, 45, 38
3, 301860, Note_on_c, 0, 45, 0
3, 301860, Note_on_c, 0, 33, 0
3, 301920, Note_on_c, 0, 38, 44
3, 301920, Note_on_c, 0, 45, 44
3, 302100, Note_on_c, 0, 45, 0
3, 302100, Note_on_c, 0, 38, 0
3, 302160, Note_on_c, 0, 33, 38
3, 302160, Note_on_c, 0, 45, 38
3, 302340, Note_on_c, 0, 45, 0
3, 302340, Note_on_c, 0, 33, 0
3, 302400, Note_on_c, 0, 38, 42
3, 302400, Note_on_c, 0, 45, 42
3, 302580, Note_on_c, 0, 45, 0
3, 302580, Note_on_c, 0, 38, 0
3, 302640, Note_on_c, 0, 33, 38
3, 302640, Note_on_c, 0, 45, 38
3, 302820, Note_on_c, 0, 45, 0
3, 302820, Note_on_c, 0, 33, 0
3, 302880, Note_on_c, 0, 38, 42
3, 302880, Note_on_c, 0, 45, 42
3, 303060, Note_on_c, 0, 45, 0
3, 303060, Note_on_c, 0, 38, 0
3, 303120, Note_on_c, 0, 33, 36
3, 303300, Note_on_c, 0, 33, 0
3, 303360, Note_on_c, 0, 38, 39
3, 303360, Note_on_c, 0, 45, 39
3, 303540, Note_on_c, 0, 45, 0
3, 303540, Note_on_c, 0, 38, 0
3, 303600, Note_on_c, 0, 33, 40
3, 303780, Note_on_c, 0, 33, 0
3, 303840, Note_on_c, 0, 38, 39
3, 303840, Note_on_c, 0, 45, 39
3, 304020, Note_on_c, 0, 45, 0
3, 304020, Note_on_c, 0, 38, 0
3, 304080, Note_on_c, 0, 33, 40
3, 304260, Note_on_c, 0, 33, 0
3, 304320, Note_on_c, 0, 38, 39
3, 304320, Note_on_c, 0, 45, 39
3, 304500, Note_on_c, 0, 45, 0
3, 304500, Note_on_c, 0, 38, 0
3, 304560, Note_on_c, 0, 33, 39
3, 304740, Note_on_c, 0, 33, 0
3, 304800, Note_on_c, 0, 38, 39
3, 304800, Note_on_c, 0, 45, 39
3, 304980, Note_on_c, 0, 45, 0
3, 304980, Note_on_c, 0, 38, 0
3, 305040, Note_on_c, 0, 33, 39
3, 305220, Note_on_c, 0, 33, 0
3, 305280, Note_on_c, 0, 38, 44
3, 305280, Note_on_c, 0, 45, 44
3, 305287, Control_c, 0, 91, 127
3, 305460, Note_on_c, 0, 45, 0
3, 305460, Note_on_c, 0, 38, 0
3, 305520, Note_on_c, 0, 33, 38
3, 305700, Note_on_c, 0, 33, 0
3, 305760, Note_on_c, 0, 38, 44
3, 305760, Note_on_c, 0, 45, 44
3, 305940, Note_on_c, 0, 45, 0
3, 305940, Note_on_c, 0, 38, 0
3, 306000, Note_on_c, 0, 33, 38
3, 306180, Note_on_c, 0, 33, 0
3, 306240, Note_on_c, 0, 38, 42
3, 306240, Note_on_c, 0, 45, 42
3, 306420, Note_on_c, 0, 45, 0
3, 306420, Note_on_c, 0, 38, 0
3, 306480, Note_on_c, 0, 33, 38
3, 306660, Note_on_c, 0, 33, 0
3, 306720, Note_on_c, 0, 38, 42
3, 306720, Note_on_c, 0, 45, 42
3, 306900, Note_on_c, 0, 45, 0
3, 306900, Note_on_c, 0, 38, 0
3, 306960, Note_on_c, 0, 33, 36
3, 307140, Note_on_c, 0, 33, 0
3, 307200, Note_on_c, 0, 38, 39
3, 307200, Note_on_c, 0, 45, 39
3, 307380, Note_on_c, 0, 45, 0
3, 307380, Note_on_c, 0, 38, 0
3, 307440, Note_on_c, 0, 33, 40
3, 307620, Note_on_c, 0, 33, 0
3, 307680, Note_on_c, 0, 38, 39
3, 307680, Note_on_c, 0, 45, 39
3, 307860, Note_on_c, 0, 45, 0
3, 307860, Note_on_c, 0, 38, 0
3, 307920, Note_on_c, 0, 33, 40
3, 308100, Note_on_c, 0, 33, 0
3, 308160, Note_on_c, 0, 38, 39
3, 308160, Note_on_c, 0, 45, 39
3, 308340, Note_on_c, 0, 45, 0
3, 308340, Note_on_c, 0, 38, 0
3, 308400, Note_on_c, 0, 33, 39
3, 308580, Note_on_c, 0, 33, 0
3, 308640, Note_on_c, 0, 38, 39
3, 308640, Note_on_c, 0, 45, 39
3, 308820, Note_on_c, 0, 45, 0
3, 308820, Note_on_c, 0, 38, 0
3, 308880, Note_on_c, 0, 33, 39
3, 309060, Note_on_c, 0, 33, 0
3, 309120, Note_on_c, 0, 38, 35
3, 309120, Note_on_c, 0, 45, 35
3, 309300, Note_on_c, 0, 45, 0
3, 309300, Note_on_c, 0, 38, 0
3, 309360, Note_on_c, 0, 33, 36
3, 309540, Note_on_c, 0, 33, 0
3, 309600, Note_on_c, 0, 38, 35
3, 309600, Note_on_c, 0, 45, 35
3, 309780, Note_on_c, 0, 45, 0
3, 309780, Note_on_c, 0, 38, 0
3, 309840, Note_on_c, 0, 33, 36
3, 310020, Note_on_c, 0, 33, 0
3, 310080, Note_on_c, 0, 38, 35
3, 310080, Note_on_c, 0, 45, 35
3, 310260, Note_on_c, 0, 45, 0
3, 310260, Note_on_c, 0, 38, 0
3, 310320, Note_on_c, 0, 33, 35
3, 310500, Note_on_c, 0, 33, 0
3, 310560, Note_on_c, 0, 38, 35
3, 310560, Note_on_c, 0, 45, 35
3, 310740, Note_on_c, 0, 45, 0
3, 310740, Note_on_c, 0, 38, 0
3, 310800, Note_on_c, 0, 33, 35
3, 310980, Note_on_c, 0, 33, 0
3, 311040, Control_c, 0, 91, 127
3, 311040, Note_on_c, 0, 38, 35
3, 311040, Note_on_c, 0, 45, 35
3, 311160, Note_on_c, 0, 45, 0
3, 311160, Note_on_c, 0, 38, 0
3, 311520, Note_on_c, 0, 33, 36
3, 311640, Note_on_c, 0, 33, 0
3, 312000, Note_on_c, 0, 38, 35
3, 312000, Note_on_c, 0, 45, 35
3, 312120, Note_on_c, 0, 45, 0
3, 312120, Note_on_c, 0, 38, 0
3, 312480, Note_on_c, 0, 33, 35
3, 312600, Note_on_c, 0, 33, 0
3, 312960, Note_on_c, 0, 38, 35
3, 312960, Note_on_c, 0, 45, 35
3, 313080, Note_on_c, 0, 45, 0
3, 313080, Note_on_c, 0, 38, 0
3, 313440, Note_on_c, 0, 33, 34
3, 313560, Note_on_c, 0, 33, 0
3, 313920, Note_on_c, 0, 38, 35
3, 313920, Note_on_c, 0, 45, 35
3, 314040, Note_on_c, 0, 45, 0
3, 314040, Note_on_c, 0, 38, 0
3, 314400, Note_on_c, 0, 33, 35
3, 314520, Note_on_c, 0, 33, 0
3, 314880, Note_on_c, 0, 38, 35
3, 314880, Note_on_c, 0, 45, 35
3, 315120, Note_on_c, 0, 45, 0
3, 315120, Note_on_c, 0, 38, 0
3, 315840, Note_on_c, 0, 57, 35
3, 315840, Note_on_c, 0, 50, 35
3, 316080, Note_on_c, 0, 50, 0
3, 316080, Note_on_c, 0, 57, 0
3, 316800, Note_on_c, 0, 62, 35
3, 316800, Note_on_c, 0, 69, 35
3, 317040, Note_on_c, 0, 69, 0
3, 317040, Note_on_c, 0, 62, 0
3, 317760, Note_on_c, 0, 81, 38
3, 317760, Note_on_c, 0, 74, 38
3, 318000, Note_on_c, 0, 74, 0
3, 318000, Note_on_c, 0, 81, 0
3, 318720, Note_on_c, 0, 93, 42
3, 318720, Note_on_c, 0, 86, 42
3, 318960, Note_on_c, 0, 86, 0
3, 318960, Note_on_c, 0, 93, 0
3, 319680, Note_on_c, 0, 81, 39
3, 319680, Note_on_c, 0, 74, 39
3, 319920, Note_on_c, 0, 74, 0
3, 319920, Note_on_c, 0, 81, 0
3, 320640, Note_on_c, 0, 62, 35
3, 320640, Note_on_c, 0, 69, 35
3, 320880, Note_on_c, 0, 69, 0
3, 320880, Note_on_c, 0, 62, 0
3, 321600, Note_on_c, 0, 50, 31
3, 321600, Note_on_c, 0, 57, 31
3, 321840, Note_on_c, 0, 57, 0
3, 321840, Note_on_c, 0, 50, 0
3, 322560, Note_on_c, 0, 38, 31
3, 322560, Note_on_c, 0, 45, 31
3, 322800, Note_on_c, 0, 45, 0
3, 322800, Note_on_c, 0, 38, 0
3, 324480, Note_on_c, 0, 26, 77
3, 324480, Note_on_c, 0, 33, 77
3, 324480, Note_on_c, 0, 38, 91
3, 324840, Note_on_c, 0, 38, 0
3, 324840, Note_on_c, 0, 33, 0
3, 324840, Note_on_c, 0, 26, 0
3, 324840, End_track
4, 0, Start_track
4, 0, Title_t, "Pedal"
4, 184, Control_c, 0, 64, 127
4, 3731, Control_c, 0, 64, 0
4, 3925, Control_c, 0, 64, 127
4, 5319, Control_c, 0, 64, 0
4, 5864, Control_c, 0, 64, 127
4, 7076, Control_c, 0, 64, 0
4, 7715, Control_c, 0, 64, 127
4, 8164, Control_c, 0, 64, 0
4, 8675, Control_c, 0, 64, 127
4, 9242, Control_c, 0, 64, 0
4, 9752, Control_c, 0, 64, 127
4, 11150, Control_c, 0, 64, 0
4, 11577, Control_c, 0, 64, 127
4, 13006, Control_c, 0, 64, 0
4, 13529, Control_c, 0, 64, 127
4, 14883, Control_c, 0, 64, 0
4, 15442, Control_c, 0, 64, 127
4, 15856, Control_c, 0, 64, 0
4, 16364, Control_c, 0, 64, 127
4, 16933, Control_c, 0, 64, 0
4, 17428, Control_c, 0, 64, 127
4, 18739, Control_c, 0, 64, 0
4, 18812, Control_c, 0, 64, 127
4, 22934, Control_c, 0, 64, 0
4, 23086, Control_c, 0, 64, 127
4, 23524, Control_c, 0, 64, 0
4, 24032, Control_c, 0, 64, 127
4, 24494, Control_c, 0, 64, 0
4, 24993, Control_c, 0, 64, 127
4, 26487, Control_c, 0, 64, 0
4, 26934, Control_c, 0, 64, 127
4, 27363, Control_c, 0, 64, 0
4, 27871, Control_c, 0, 64, 127
4, 28428, Control_c, 0, 64, 0
4, 28917, Control_c, 0, 64, 127
4, 30466, Control_c, 0, 64, 0
4, 30766, Control_c, 0, 64, 127
4, 32192, Control_c, 0, 64, 0
4, 32697, Control_c, 0, 64, 127
4, 34128, Control_c, 0, 64, 0
4, 34592, Control_c, 0, 64, 127
4, 35028, Control_c, 0, 64, 0
4, 35552, Control_c, 0, 64, 127
4, 36120, Control_c, 0, 64, 0
4, 36572, Control_c, 0, 64, 127
4, 37938, Control_c, 0, 64, 0
4, 38492, Control_c, 0, 64, 127
4, 38930, Control_c, 0, 64, 0
4, 39501, Control_c, 0, 64, 127
4, 39868, Control_c, 0, 64, 0
4, 40363, Control_c, 0, 64, 127
4, 40843, Control_c, 0, 64, 0
4, 41344, Control_c, 0, 64, 127
4, 41810, Control_c, 0, 64, 0
4, 44226, Control_c, 0, 64, 127
4, 45635, Control_c, 0, 64, 0
4, 46120, Control_c, 0, 64, 127
4, 46571, Control_c, 0, 64, 0
4, 47067, Control_c, 0, 64, 127
4, 47535, Control_c, 0, 64, 0
4, 48052, Control_c, 0, 64, 127
4, 49337, Control_c, 0, 64, 0
4, 49980, Control_c, 0, 64, 127
4, 50412, Control_c, 0, 64, 0
4, 50932, Control_c, 0, 64, 127
4, 51375, Control_c, 0, 64, 0
4, 53817, Control_c, 0, 64, 127
4, 55211, Control_c, 0, 64, 0
4, 55697, Control_c, 0, 64, 127
4, 56173, Control_c, 0, 64, 0
4, 56680, Control_c, 0, 64, 127
4, 57141, Control_c, 0, 64, 0
4, 57683, Control_c, 0, 64, 127
4, 58957, Control_c, 0, 64, 0
4, 59073, Control_c, 0, 64, 127
4, 59967, Control_c, 0, 64, 0
4, 60071, Control_c, 0, 64, 127
4, 60919, Control_c, 0, 64, 0
4, 60981, Control_c, 0, 64, 127
4, 61875, Control_c, 0, 64, 0
4, 61953, Control_c, 0, 64, 127
4, 62835, Control_c, 0, 64, 0
4, 62901, Control_c, 0, 64, 127
4, 63795, Control_c, 0, 64, 0
4, 63890, Control_c, 0, 64, 127
4, 64771, Control_c, 0, 64, 0
4, 64854, Control_c, 0, 64, 127
4, 65727, Control_c, 0, 64, 0
4, 65802, Control_c, 0, 64, 127
4, 66679, Control_c, 0, 64, 0
4, 66770, Control_c, 0, 64, 127
4, 67647, Control_c, 0, 64, 0
4, 67705, Control_c, 0, 64, 127
4, 68611, Control_c, 0, 64, 0
4, 68682, Control_c, 0, 64, 127
4, 69559, Control_c, 0, 64, 0
4, 69650, Control_c, 0, 64, 127
4, 70502, Control_c, 0, 64, 0
4, 70597, Control_c, 0, 64, 127
4, 71479, Control_c, 0, 64, 0
4, 71570, Control_c, 0, 64, 127
4, 72455, Control_c, 0, 64, 0
4, 72530, Control_c, 0, 64, 127
4, 73386, Control_c, 0, 64, 0
4, 73486, Control_c, 0, 64, 127
4, 74363, Control_c, 0, 64, 0
4, 74446, Control_c, 0, 64, 127
4, 75327, Control_c, 0, 64, 0
4, 75393, Control_c, 0, 64, 127
4, 76279, Control_c, 0, 64, 0
4, 76370, Control_c, 0, 64, 127
4, 77217, Control_c, 0, 64, 0
4, 77337, Control_c, 0, 64, 127
4, 78212, Control_c, 0, 64, 0
4, 84617, Control_c, 0, 64, 127
4, 86413, Control_c, 0, 64, 0
4, 86766, Control_c, 0, 64, 127
4, 88332, Control_c, 0, 64, 0
4, 88732, Control_c, 0, 64, 127
4, 90249, Control_c, 0, 64, 0
4, 90332, Control_c, 0, 64, 127
4, 92008, Control_c, 0, 64, 0
4, 92203, Control_c, 0, 64, 127
4, 93611, Control_c, 0, 64, 0
4, 94134, Control_c, 0, 64, 127
4, 95520, Control_c, 0, 64, 0
4, 96049, Control_c, 0, 64, 127
4, 96500, Control_c, 0, 64, 0
4, 97015, Control_c, 0, 64, 127
4, 97466, Control_c, 0, 64, 0
4, 97973, Control_c, 0, 64, 127
4, 99374, Control_c, 0, 64, 0
4, 99876, Control_c, 0, 64, 127
4, 101291, Control_c, 0, 64, 0
4, 101849, Control_c, 0, 64, 127
4, 103226, Control_c, 0, 64, 0
4, 103708, Control_c, 0, 64, 127
4, 104337, Control_c, 0, 64, 0
4, 104700, Control_c, 0, 64, 127
4, 105180, Control_c, 0, 64, 0
4, 105699, Control_c, 0, 64, 127
4, 107068, Control_c, 0, 64, 0
4, 107520, Control_c, 0, 64, 127
4, 110428, Control_c, 0, 64, 0
4, 111487, Control_c, 0, 64, 127
4, 112320, Control_c, 0, 64, 0
4, 114339, Control_c, 0, 64, 127
4, 115200, Control_c, 0, 64, 0
4, 116160, Control_c, 0, 64, 127
4, 117120, Control_c, 0, 64, 0
4, 117374, Control_c, 0, 64, 127
4, 118080, Control_c, 0, 64, 0
4, 119224, Control_c, 0, 64, 127
4, 120000, Control_c, 0, 64, 0
4, 121101, Control_c, 0, 64, 127
4, 121920, Control_c, 0, 64, 0
4, 121973, Control_c, 0, 64, 127
4, 122880, Control_c, 0, 64, 0
4, 124846, Control_c, 0, 64, 127
4, 125786, Control_c, 0, 64, 0
4, 132537, Control_c, 0, 64, 127
4, 133497, Control_c, 0, 64, 0
4, 140330, Control_c, 0, 64, 127
4, 141134, Control_c, 0, 64, 0
4, 142193, Control_c, 0, 64, 127
4, 143068, Control_c, 0, 64, 0
4, 144840, Control_c, 0, 64, 127
4, 145920, Control_c, 0, 64, 0
4, 146915, Control_c, 0, 64, 127
4, 147848, Control_c, 0, 64, 0
4, 148024, Control_c, 0, 64, 127
4, 148814, Control_c, 0, 64, 0
4, 150000, Control_c, 0, 64, 127
4, 150751, Control_c, 0, 64, 0
4, 151836, Control_c, 0, 64, 127
4, 152358, Control_c, 0, 64, 0
4, 152527, Control_c, 0, 64, 127
4, 153600, Control_c, 0, 64, 0
4, 155520, Control_c, 0, 64, 127
4, 156506, Control_c, 0, 64, 0
4, 163257, Control_c, 0, 64, 127
4, 164217, Control_c, 0, 64, 0
4, 171050, Control_c, 0, 64, 127
4, 171854, Control_c, 0, 64, 0
4, 172913, Control_c, 0, 64, 127
4, 173788, Control_c, 0, 64, 0
4, 175560, Control_c, 0, 64, 127
4, 176640, Control_c, 0, 64, 0
4, 177635, Control_c, 0, 64, 127
4, 178568, Control_c, 0, 64, 0
4, 178744, Control_c, 0, 64, 127
4, 179534, Control_c, 0, 64, 0
4, 180720, Control_c, 0, 64, 127
4, 181471, Control_c, 0, 64, 0
4, 182556, Control_c, 0, 64, 127
4, 183078, Control_c, 0, 64, 0
4, 183247, Control_c, 0, 64, 127
4, 184320, Control_c, 0, 64, 0
4, 186396, Control_c, 0, 64, 127
4, 189971, Control_c, 0, 64, 0
4, 190165, Control_c, 0, 64, 127
4, 191559, Control_c, 0, 64, 0
4, 192104, Control_c, 0, 64, 127
4, 193562, Control_c, 0, 64, 0
4, 193955, Control_c, 0, 64, 127
4, 194404, Control_c, 0, 64, 0
4, 194915, Control_c, 0, 64, 127
4, 195375, Control_c, 0, 64, 0
4, 195992, Control_c, 0, 64, 127
4, 197390, Control_c, 0, 64, 0
4, 197817, Control_c, 0, 64, 127
4, 199246, Control_c, 0, 64, 0
4, 199769, Control_c, 0, 64, 127
4, 201123, Control_c, 0, 64, 0
4, 201682, Control_c, 0, 64, 127
4, 202096, Control_c, 0, 64, 0
4, 202604, Control_c, 0, 64, 127
4, 203167, Control_c, 0, 64, 0
4, 203668, Control_c, 0, 64, 127
4, 204979, Control_c, 0, 64, 0
4, 205052, Control_c, 0, 64, 127
4, 209174, Control_c, 0, 64, 0
4, 209326, Control_c, 0, 64, 127
4, 209877, Control_c, 0, 64, 0
4, 210272, Control_c, 0, 64, 127
4, 210734, Control_c, 0, 64, 0
4, 211233, Control_c, 0, 64, 127
4, 212651, Control_c, 0, 64, 0
4, 213174, Control_c, 0, 64, 127
4, 213671, Control_c, 0, 64, 0
4, 214111, Control_c, 0, 64, 127
4, 214655, Control_c, 0, 64, 0
4, 215157, Control_c, 0, 64, 127
4, 216706, Control_c, 0, 64, 0
4, 217006, Control_c, 0, 64, 127
4, 218499, Control_c, 0, 64, 0
4, 218937, Control_c, 0, 64, 127
4, 220368, Control_c, 0, 64, 0
4, 220832, Control_c, 0, 64, 127
4, 221416, Control_c, 0, 64, 0
4, 221792, Control_c, 0, 64, 127
4, 222389, Control_c, 0, 64, 0
4, 222812, Control_c, 0, 64, 127
4, 224178, Control_c, 0, 64, 0
4, 224732, Control_c, 0, 64, 127
4, 225170, Control_c, 0, 64, 0
4, 225741, Control_c, 0, 64, 127
4, 226108, Control_c, 0, 64, 0
4, 226603, Control_c, 0, 64, 127
4, 227083, Control_c, 0, 64, 0
4, 227584, Control_c, 0, 64, 127
4, 228050, Control_c, 0, 64, 0
4, 230466, Control_c, 0, 64, 127
4, 231952, Control_c, 0, 64, 0
4, 232360, Control_c, 0, 64, 127
4, 232811, Control_c, 0, 64, 0
4, 233307, Control_c, 0, 64, 127
4, 233775, Control_c, 0, 64, 0
4, 234292, Control_c, 0, 64, 127
4, 235577, Control_c, 0, 64, 0
4, 236220, Control_c, 0, 64, 127
4, 236652, Control_c, 0, 64, 0
4, 237172, Control_c, 0, 64, 127
4, 237615, Control_c, 0, 64, 0
4, 240057, Control_c, 0, 64, 127
4, 241529, Control_c, 0, 64, 0
4, 241937, Control_c, 0, 64, 127
4, 242510, Control_c, 0, 64, 0
4, 242920, Control_c, 0, 64, 127
4, 243381, Control_c, 0, 64, 0
4, 243923, Control_c, 0, 64, 127
4, 245197, Control_c, 0, 64, 0
4, 245313, Control_c, 0, 64, 127
4, 246207, Control_c, 0, 64, 0
4, 246311, Control_c, 0, 64, 127
4, 247159, Control_c, 0, 64, 0
4, 247221, Control_c, 0, 64, 127
4, 248115, Control_c, 0, 64, 0
4, 248193, Control_c, 0, 64, 127
4, 249075, Control_c, 0, 64, 0
4, 249141, Control_c, 0, 64, 127
4, 250035, Control_c, 0, 64, 0
4, 250130, Control_c, 0, 64, 127
4, 251011, Control_c, 0, 64, 0
4, 251094, Control_c, 0, 64, 127
4, 251967, Control_c, 0, 64, 0
4, 252042, Control_c, 0, 64, 127
4, 252919, Control_c, 0, 64, 0
4, 253010, Control_c, 0, 64, 127
4, 253887, Control_c, 0, 64, 0
4, 253945, Control_c, 0, 64, 127
4, 254851, Control_c, 0, 64, 0
4, 254922, Control_c, 0, 64, 127
4, 255799, Control_c, 0, 64, 0
4, 255890, Control_c, 0, 64, 127
4, 256742, Control_c, 0, 64, 0
4, 256837, Control_c, 0, 64, 127
4, 257719, Control_c, 0, 64, 0
4, 257810, Control_c, 0, 64, 127
4, 258695, Control_c, 0, 64, 0
4, 258770, Control_c, 0, 64, 127
4, 259626, Control_c, 0, 64, 0
4, 259726, Control_c, 0, 64, 127
4, 260603, Control_c, 0, 64, 0
4, 260686, Control_c, 0, 64, 127
4, 261567, Control_c, 0, 64, 0
4, 261633, Control_c, 0, 64, 127
4, 262519, Control_c, 0, 64, 0
4, 262610, Control_c, 0, 64, 127
4, 263457, Control_c, 0, 64, 0
4, 263577, Control_c, 0, 64, 127
4, 264452, Control_c, 0, 64, 0
4, 270857, Control_c, 0, 64, 127
4, 272653, Control_c, 0, 64, 0
4, 273006, Control_c, 0, 64, 127
4, 274572, Control_c, 0, 64, 0
4, 274972, Control_c, 0, 64, 127
4, 276489, Control_c, 0, 64, 0
4, 276572, Control_c, 0, 64, 127
4, 278248, Control_c, 0, 64, 0
4, 278443, Control_c, 0, 64, 127
4, 279851, Control_c, 0, 64, 0
4, 280374, Control_c, 0, 64, 127
4, 281855, Control_c, 0, 64, 0
4, 282289, Control_c, 0, 64, 127
4, 282740, Control_c, 0, 64, 0
4, 283255, Control_c, 0, 64, 127
4, 283706, Control_c, 0, 64, 0
4, 284213, Control_c, 0, 64, 127
4, 285614, Control_c, 0, 64, 0
4, 286116, Control_c, 0, 64, 127
4, 287531, Control_c, 0, 64, 0
4, 288089, Control_c, 0, 64, 127
4, 289560, Control_c, 0, 64, 0
4, 289973, Control_c, 0, 64, 127
4, 290577, Control_c, 0, 64, 0
4, 290940, Control_c, 0, 64, 127
4, 291420, Control_c, 0, 64, 0
4, 291939, Control_c, 0, 64, 127
4, 293308, Control_c, 0, 64, 0
4, 293799, Control_c, 0, 64, 127
4, 295680, Control_c, 0, 64, 0
4, 295751, Control_c, 0, 64, 127
4, 297159, Control_c, 0, 64, 0
4, 297664, Control_c, 0, 64, 127
4, 299520, Control_c, 0, 64, 0
4, 299566, Control_c, 0, 64, 127
4, 300964, Control_c, 0, 64, 0
4, 303456, Control_c, 0, 64, 127
4, 304836, Control_c, 0, 64, 0
4, 307285, Control_c, 0, 64, 127
4, 308584, Control_c, 0, 64, 0
4, 309170, Control_c, 0, 64, 127
4, 310500, Control_c, 0, 64, 0
4, 311628, Control_c, 0, 64, 127
4, 312682, Control_c, 0, 64, 0
4, 313548, Control_c, 0, 64, 127
4, 314609, Control_c, 0, 64, 0
4, 315007, Control_c, 0, 64, 127
4, 316800, Control_c, 0, 64, 0
4, 317040, Control_c, 0, 64, 127
4, 318720, Control_c, 0, 64, 0
4, 318932, Control_c, 0, 64, 127
4, 320640, Control_c, 0, 64, 0
4, 320838, Control_c, 0, 64, 127
4, 322560, Control_c, 0, 64, 0
4, 322701, Control_c, 0, 64, 127
4, 324311, Control_c, 0, 64, 0
4, 324480, Control_c, 0, 64, 127
4, 325010, Control_c, 0, 64, 0
4, 325010, End_track
5, 0, Start_track
5, 0, Title_t, "Grieg: Hochzeitstag auf Troldhaugen Op. 65No. 6"
5, 0, End_track
6, 0, Start_track
6, 0, Title_t, "Copyright © 1998 by Bernd Krueger"
6, 0, End_track
7, 0, Start_track
7, 0, Title_t, "http://www.piano-midi.de"
7, 0, End_track
8, 0, Start_track
8, 0, Title_t, "Edition: 2012-11-18"
8, 0, End_track
0, 0, End_of_file
