0, 0, Header, 1, 7, 480
1, 0, Start_track
1, 0, Title_t, "Wächterlied Op12, No. 3"
1, 0, Copyright_t, "Copyright Bernd Krüger http://www.piano-midi.de"
1, 0, Text_t, "Edvard Grieg"
1, 0, Text_t, "Molto andante e simplice"
1, 0, Text_t, "Pan's auf Normal am 18.1.98\012"
1, 0, Text_t, "Korrekturen am 4.9.98\012"
1, 0, Text_t, "Anpassungen an Digitalpiano am 28.12.98\012"
1, 0, Text_t, "Update am 19.8.99\012"
1, 0, Text_t, "Normierung: 23.12.2002\012"
1, 0, Text_t, "Update : 28.4.2007 Umstellung auf SONAR und höheres Tempo\012"
1, 0, Text_t, "Update: 28.10.2012\012"
1, 0, Text_t, "Dauer: 2:26 Minuten\012"
1, 0, Time_signature, 4, 2, 24, 8
1, 0, Key_signature, 4, "major"
1, 0, Tempo, 659921
1, 0, Marker_t, "Molto andante e semplice"
1, 3360, Tempo, 678426
1, 3600, Tempo, 697999
1, 3840, Tempo, 678426
1, 4800, Tempo, 659921
1, 5760, Tempo, 666001
1, 6240, Tempo, 656886
1, 6720, Tempo, 659921
1, 7200, Tempo, 684853
1, 7680, Tempo, 659921
1, 9120, Tempo, 639522
1, 9600, Tempo, 648158
1, 11040, Tempo, 669045
1, 11280, Tempo, 656886
1, 11520, Tempo, 656886
1, 12000, Tempo, 672043
1, 12480, Tempo, 666001
1, 13440, Tempo, 684853
1, 14400, Tempo, 684853
1, 14480, Tempo, 688073
1, 14560, Tempo, 691324
1, 14640, Tempo, 694605
1, 14720, Tempo, 697999
1, 14800, Tempo, 701426
1, 14880, Tempo, 704722
1, 14960, Tempo, 708215
1, 15040, Tempo, 711659
1, 15120, Tempo, 715137
1, 15200, Tempo, 718735
1, 15240, Tempo, 776498
1, 15360, Tempo, 659921
1, 16800, Tempo, 639727
1, 17280, Tempo, 621955
1, 17520, Tempo, 601624
1, 17760, Tempo, 606673
1, 18240, Tempo, 625913
1, 18720, Tempo, 604169
1, 19200, Tempo, 606673
1, 19680, Tempo, 594354
1, 20160, Tempo, 657823
1, 20640, Tempo, 606673
1, 21360, Tempo, 592066
1, 21600, Tempo, 596777
1, 22080, Tempo, 614188
1, 22560, Tempo, 589623
1, 22800, Tempo, 578202
1, 23040, Tempo, 601624
1, 23520, Tempo, 609137
1, 24000, Tempo, 678580
1, 24041, Tempo, 665557
1, 24121, Tempo, 678426
1, 24480, Tempo, 666001
1, 26400, Tempo, 691324
1, 26640, Tempo, 718735
1, 26880, Tempo, 691324
1, 27840, Tempo, 659921
1, 28800, Tempo, 688073
1, 29760, Tempo, 684853
1, 29840, Tempo, 688073
1, 29880, Tempo, 691324
1, 29920, Tempo, 694605
1, 30000, Tempo, 697999
1, 30040, Tempo, 701426
1, 30080, Tempo, 704722
1, 30160, Tempo, 708215
1, 30200, Tempo, 711659
1, 30240, Tempo, 715137
1, 30320, Tempo, 718735
1, 30360, Tempo, 722369
1, 30400, Tempo, 725953
1, 30480, Tempo, 729483
1, 30520, Tempo, 733317
1, 30560, Tempo, 737010
1, 30580, Tempo, 764137
1, 30600, Tempo, 859230
1, 31200, Tempo, 659921
1, 32160, Tempo, 628470
1, 32640, Tempo, 612557
1, 32880, Tempo, 595002
1, 33120, Tempo, 609942
1, 33600, Tempo, 625717
1, 34080, Tempo, 592534
1, 34560, Tempo, 599940
1, 35040, Tempo, 590203
1, 35520, Tempo, 653951
1, 36000, Tempo, 609942
1, 36720, Tempo, 583034
1, 36960, Tempo, 595002
1, 37200, Tempo, 585366
1, 37440, Tempo, 597431
1, 37920, Tempo, 583034
1, 38160, Tempo, 567108
1, 38400, Tempo, 587774
1, 38880, Tempo, 597431
1, 39360, Tempo, 678426
1, 39840, Tempo, 666001
1, 41760, Tempo, 691324
1, 42000, Tempo, 725953
1, 42240, Tempo, 691324
1, 43200, Tempo, 659921
1, 44160, Tempo, 704722
1, 44640, Tempo, 718735
1, 45120, Tempo, 711659
1, 45160, Tempo, 715137
1, 45200, Tempo, 722369
1, 45240, Tempo, 725953
1, 45280, Tempo, 733317
1, 45320, Tempo, 737010
1, 45360, Tempo, 744602
1, 45400, Tempo, 748410
1, 45440, Tempo, 756144
1, 45480, Tempo, 760167
1, 45520, Tempo, 768147
1, 45560, Tempo, 772300
1, 45600, Tempo, 780539
1, 45640, Tempo, 784827
1, 45680, Tempo, 793336
1, 45720, Tempo, 797660
1, 45760, Tempo, 806560
1, 45800, Tempo, 811249
1, 45840, Tempo, 820345
1, 45880, Tempo, 829761
1, 45920, Tempo, 811249
1, 45940, Tempo, 764137
1, 45960, Tempo, 913381
1, 48000, Key_signature, 1, "major"
1, 48000, Tempo, 864553
1, 48000, Marker_t, "Intermezzo"
1, 50880, Tempo, 651254
1, 50940, Tempo, 648088
1, 51000, Tempo, 645092
1, 51060, Tempo, 642055
1, 51120, Tempo, 639046
1, 51180, Tempo, 636200
1, 51240, Tempo, 633179
1, 51300, Tempo, 630186
1, 51360, Tempo, 627353
1, 51420, Tempo, 624545
1, 51480, Tempo, 621697
1, 51540, Tempo, 618876
1, 51600, Tempo, 616080
1, 51660, Tempo, 613434
1, 51720, Tempo, 610625
1, 51780, Tempo, 607903
1, 53280, Tempo, 636200
1, 53760, Tempo, 624545
1, 55680, Tempo, 858738
1, 57360, Tempo, 928793
1, 57600, Tempo, 858738
1, 58560, Tempo, 633179
1, 58700, Tempo, 630186
1, 58840, Tempo, 627353
1, 58980, Tempo, 624545
1, 59120, Tempo, 621697
1, 59260, Tempo, 618876
1, 59400, Tempo, 616080
1, 59520, Tempo, 613434
1, 60960, Tempo, 657606
1, 61440, Tempo, 624545
1, 63360, Tempo, 858738
1, 66280, Tempo, 636200
1, 66360, Tempo, 633179
1, 66440, Tempo, 630186
1, 66500, Tempo, 627353
1, 66580, Tempo, 624545
1, 66640, Tempo, 621697
1, 66720, Tempo, 618876
1, 66780, Tempo, 616080
1, 66860, Tempo, 613434
1, 66920, Tempo, 610625
1, 67000, Tempo, 607903
1, 67060, Tempo, 605266
1, 67140, Tempo, 602591
1, 67200, Tempo, 600000
1, 68640, Tempo, 621697
1, 71040, Tempo, 858738
1, 72720, Tempo, 935016
1, 72840, Tempo, 1057082
1, 72960, Tempo, 858738
1, 73920, Tempo, 636200
1, 74040, Tempo, 633179
1, 74160, Tempo, 630186
1, 74280, Tempo, 627353
1, 74400, Tempo, 624545
1, 74520, Tempo, 621697
1, 74640, Tempo, 618876
1, 74760, Tempo, 616080
1, 74880, Tempo, 613434
1, 75840, Tempo, 627353
1, 76320, Tempo, 708132
1, 76800, Key_signature, 4, "major"
1, 76800, Tempo, 624545
1, 77280, Tempo, 606857
1, 77760, Tempo, 659921
1, 78240, Tempo, 612058
1, 78280, Tempo, 624805
1, 78960, Tempo, 597610
1, 79200, Tempo, 607472
1, 79680, Tempo, 624805
1, 80160, Tempo, 601443
1, 81120, Tempo, 589275
1, 81600, Tempo, 647179
1, 82080, Tempo, 611621
1, 82800, Tempo, 596599
1, 83520, Tempo, 609075
1, 84000, Tempo, 590435
1, 84480, Tempo, 597610
1, 84960, Tempo, 602410
1, 85440, Tempo, 677430
1, 85441, Tempo, 663570
1, 85481, Tempo, 678426
1, 85920, Tempo, 666001
1, 87840, Tempo, 678426
1, 88320, Tempo, 691324
1, 89280, Tempo, 659921
1, 90240, Tempo, 684853
1, 91640, Tempo, 752162
1, 91680, Tempo, 802354
1, 92160, Tempo, 659921
1, 93600, Tempo, 653951
1, 95520, Tempo, 669045
1, 96000, Tempo, 678426
1, 97560, Tempo, 736287
1, 97920, Tempo, 754812
1, 98760, Tempo, 769329
1, 98816, Tempo, 759590
1, 98856, Tempo, 769329
1, 98896, Tempo, 779322
1, 98936, Tempo, 789578
1, 98976, Tempo, 805477
1, 99016, Tempo, 816438
1, 99056, Tempo, 827700
1, 99096, Tempo, 839278
1, 99136, Tempo, 857265
1, 99176, Tempo, 869691
1, 99216, Tempo, 882483
1, 99256, Tempo, 895656
1, 99296, Tempo, 916170
1, 99336, Tempo, 930377
1, 99376, Tempo, 945031
1, 99416, Tempo, 960154
1, 99456, Tempo, 983768
1, 99496, Tempo, 1000167
1, 99536, Tempo, 1017122
1, 99600, Tempo, 1237369
1, 99840, Tempo, 991899
1, 101760, Tempo, 659921
1, 101760, Marker_t, "Fine"
1, 101762, Tempo, 545455
1, 110400, Tempo, 524017
1, 110400, End_track
2, 0, Start_track
2, 0, Title_t, "Piano right"
2, 0, Program_c, 0, 0
2, 0, Control_c, 0, 7, 100
2, 0, Control_c, 0, 10, 64
2, 0, Text_t, "bdca426d104a26ac9dcb070447587523"
2, 1436, Control_c, 0, 91, 127
2, 1440, Note_on_c, 0, 59, 57
2, 1920, Note_on_c, 0, 59, 0
2, 1920, Note_on_c, 0, 64, 60
2, 2400, Note_on_c, 0, 64, 0
2, 2400, Note_on_c, 0, 64, 61
2, 2880, Note_on_c, 0, 64, 0
2, 2880, Note_on_c, 0, 63, 57
2, 3360, Note_on_c, 0, 63, 0
2, 3360, Note_on_c, 0, 61, 55
2, 3600, Note_on_c, 0, 61, 0
2, 3600, Note_on_c, 0, 59, 49
2, 3840, Note_on_c, 0, 59, 0
2, 3840, Note_on_c, 0, 61, 53
2, 3840, Note_on_c, 0, 57, 45
2, 4800, Note_on_c, 0, 57, 0
2, 4800, Note_on_c, 0, 61, 0
2, 4800, Note_on_c, 0, 56, 44
2, 4800, Note_on_c, 0, 64, 52
2, 5280, Note_on_c, 0, 64, 0
2, 5280, Note_on_c, 0, 56, 0
2, 5760, Note_on_c, 0, 61, 45
2, 5760, Note_on_c, 0, 66, 54
2, 6080, Note_on_c, 0, 66, 0
2, 6080, Note_on_c, 0, 61, 0
2, 6240, Note_on_c, 0, 61, 43
2, 6240, Note_on_c, 0, 66, 51
2, 6560, Note_on_c, 0, 66, 0
2, 6560, Note_on_c, 0, 61, 0
2, 6720, Note_on_c, 0, 59, 41
2, 6720, Note_on_c, 0, 66, 49
2, 7040, Note_on_c, 0, 66, 0
2, 7040, Note_on_c, 0, 59, 0
2, 7200, Note_on_c, 0, 66, 48
2, 7200, Note_on_c, 0, 59, 40
2, 7520, Note_on_c, 0, 59, 0
2, 7520, Note_on_c, 0, 66, 0
2, 7680, Note_on_c, 0, 68, 52
2, 7680, Note_on_c, 0, 59, 44
2, 8640, Note_on_c, 0, 59, 0
2, 8640, Note_on_c, 0, 68, 0
2, 9120, Note_on_c, 0, 68, 64
2, 9600, Note_on_c, 0, 68, 0
2, 9600, Note_on_c, 0, 73, 71
2, 10080, Note_on_c, 0, 73, 0
2, 10080, Note_on_c, 0, 73, 69
2, 10560, Note_on_c, 0, 73, 0
2, 10560, Note_on_c, 0, 71, 69
2, 11040, Note_on_c, 0, 71, 0
2, 11040, Note_on_c, 0, 69, 69
2, 11280, Note_on_c, 0, 69, 0
2, 11280, Note_on_c, 0, 68, 63
2, 11520, Note_on_c, 0, 68, 0
2, 11520, Note_on_c, 0, 61, 69
2, 11520, Note_on_c, 0, 69, 69
2, 12000, Note_on_c, 0, 61, 0
2, 12000, Note_on_c, 0, 63, 60
2, 12480, Note_on_c, 0, 63, 0
2, 12480, Note_on_c, 0, 69, 0
2, 12480, Note_on_c, 0, 64, 53
2, 12480, Note_on_c, 0, 68, 62
2, 13440, Note_on_c, 0, 68, 0
2, 13440, Note_on_c, 0, 64, 0
2, 13440, Note_on_c, 0, 61, 56
2, 13440, Note_on_c, 0, 66, 66
2, 13920, Note_on_c, 0, 66, 0
2, 13920, Note_on_c, 0, 61, 0
2, 13920, Note_on_c, 0, 57, 47
2, 13920, Note_on_c, 0, 66, 56
2, 14400, Note_on_c, 0, 66, 0
2, 14400, Note_on_c, 0, 57, 0
2, 14400, Note_on_c, 0, 66, 56
2, 14400, Note_on_c, 0, 59, 47
2, 14400, Note_on_c, 0, 57, 47
2, 15120, Note_on_c, 0, 66, 0
2, 15120, Note_on_c, 0, 64, 51
2, 15360, Note_on_c, 0, 64, 0
2, 15360, Note_on_c, 0, 57, 0
2, 15360, Note_on_c, 0, 59, 0
2, 15360, Note_on_c, 0, 64, 45
2, 15360, Note_on_c, 0, 59, 37
2, 15360, Note_on_c, 0, 56, 37
2, 16320, Note_on_c, 0, 56, 0
2, 16320, Note_on_c, 0, 59, 0
2, 16320, Note_on_c, 0, 64, 0
2, 16800, Note_on_c, 0, 71, 52
2, 17280, Note_on_c, 0, 68, 31
2, 17520, Note_on_c, 0, 71, 0
2, 17520, Note_on_c, 0, 73, 52
2, 17760, Note_on_c, 0, 73, 0
2, 17760, Note_on_c, 0, 68, 0
2, 17760, Note_on_c, 0, 75, 49
2, 17760, Note_on_c, 0, 66, 41
2, 18230, Note_on_c, 0, 66, 0
2, 18230, Note_on_c, 0, 75, 0
2, 18240, Note_on_c, 0, 75, 53
2, 18240, Note_on_c, 0, 64, 40
2, 18720, Note_on_c, 0, 75, 0
2, 18720, Note_on_c, 0, 71, 49
2, 19200, Note_on_c, 0, 71, 0
2, 19200, Note_on_c, 0, 68, 51
2, 19680, Note_on_c, 0, 68, 0
2, 19680, Note_on_c, 0, 70, 49
2, 20160, Note_on_c, 0, 70, 0
2, 20160, Note_on_c, 0, 64, 0
2, 20160, Note_on_c, 0, 63, 39
2, 20160, Note_on_c, 0, 71, 47
2, 20610, Note_on_c, 0, 71, 0
2, 20610, Note_on_c, 0, 63, 0
2, 20640, Note_on_c, 0, 71, 58
2, 21120, Note_on_c, 0, 68, 36
2, 21360, Note_on_c, 0, 71, 0
2, 21360, Note_on_c, 0, 73, 52
2, 21600, Note_on_c, 0, 73, 0
2, 21600, Note_on_c, 0, 68, 0
2, 21600, Note_on_c, 0, 66, 46
2, 21600, Note_on_c, 0, 75, 55
2, 21840, Note_on_c, 0, 75, 0
2, 21840, Note_on_c, 0, 71, 50
2, 22080, Note_on_c, 0, 71, 0
2, 22080, Note_on_c, 0, 66, 0
2, 22080, Note_on_c, 0, 64, 43
2, 22080, Note_on_c, 0, 75, 57
2, 22560, Note_on_c, 0, 75, 0
2, 22560, Note_on_c, 0, 73, 55
2, 22800, Note_on_c, 0, 73, 0
2, 22800, Note_on_c, 0, 71, 47
2, 23040, Note_on_c, 0, 71, 0
2, 23040, Note_on_c, 0, 68, 57
2, 23520, Note_on_c, 0, 68, 0
2, 23520, Note_on_c, 0, 70, 53
2, 24000, Note_on_c, 0, 70, 0
2, 24000, Note_on_c, 0, 64, 0
2, 24000, Note_on_c, 0, 63, 42
2, 24000, Note_on_c, 0, 71, 50
2, 24450, Note_on_c, 0, 71, 0
2, 24450, Note_on_c, 0, 63, 0
2, 24480, Note_on_c, 0, 59, 57
2, 24960, Note_on_c, 0, 59, 0
2, 24960, Note_on_c, 0, 64, 60
2, 25440, Note_on_c, 0, 64, 0
2, 25440, Note_on_c, 0, 64, 57
2, 25920, Note_on_c, 0, 64, 0
2, 25920, Note_on_c, 0, 63, 57
2, 26400, Note_on_c, 0, 63, 0
2, 26400, Note_on_c, 0, 61, 57
2, 26640, Note_on_c, 0, 61, 0
2, 26640, Note_on_c, 0, 59, 55
2, 26880, Note_on_c, 0, 59, 0
2, 26880, Note_on_c, 0, 61, 53
2, 26880, Note_on_c, 0, 57, 45
2, 27840, Note_on_c, 0, 57, 0
2, 27840, Note_on_c, 0, 61, 0
2, 27840, Note_on_c, 0, 56, 44
2, 27840, Note_on_c, 0, 64, 52
2, 28320, Note_on_c, 0, 64, 0
2, 28320, Note_on_c, 0, 56, 0
2, 28800, Note_on_c, 0, 61, 47
2, 28800, Note_on_c, 0, 66, 56
2, 29280, Note_on_c, 0, 66, 0
2, 29280, Note_on_c, 0, 61, 0
2, 29280, Note_on_c, 0, 66, 54
2, 29280, Note_on_c, 0, 57, 45
2, 29760, Note_on_c, 0, 57, 0
2, 29760, Note_on_c, 0, 66, 0
2, 29760, Note_on_c, 0, 59, 44
2, 29760, Note_on_c, 0, 57, 44
2, 29760, Note_on_c, 0, 66, 52
2, 30480, Note_on_c, 0, 66, 0
2, 30480, Note_on_c, 0, 64, 49
2, 30720, Note_on_c, 0, 64, 0
2, 30720, Note_on_c, 0, 57, 0
2, 30720, Note_on_c, 0, 59, 0
2, 30720, Note_on_c, 0, 59, 39
2, 30720, Note_on_c, 0, 56, 39
2, 30720, Note_on_c, 0, 64, 46
2, 31680, Note_on_c, 0, 64, 0
2, 31680, Note_on_c, 0, 56, 0
2, 31680, Note_on_c, 0, 59, 0
2, 32160, Note_on_c, 0, 71, 52
2, 32640, Note_on_c, 0, 68, 31
2, 32880, Note_on_c, 0, 71, 0
2, 32880, Note_on_c, 0, 73, 52
2, 33120, Note_on_c, 0, 73, 0
2, 33120, Note_on_c, 0, 68, 0
2, 33120, Note_on_c, 0, 75, 49
2, 33120, Note_on_c, 0, 66, 41
2, 33590, Note_on_c, 0, 66, 0
2, 33590, Note_on_c, 0, 75, 0
2, 33600, Note_on_c, 0, 75, 53
2, 33600, Note_on_c, 0, 64, 40
2, 34080, Note_on_c, 0, 75, 0
2, 34080, Note_on_c, 0, 71, 45
2, 34560, Note_on_c, 0, 71, 0
2, 34560, Note_on_c, 0, 68, 43
2, 35040, Note_on_c, 0, 68, 0
2, 35040, Note_on_c, 0, 70, 45
2, 35520, Note_on_c, 0, 70, 0
2, 35520, Note_on_c, 0, 64, 0
2, 35520, Note_on_c, 0, 63, 39
2, 35520, Note_on_c, 0, 71, 47
2, 35970, Note_on_c, 0, 71, 0
2, 35970, Note_on_c, 0, 63, 0
2, 36000, Note_on_c, 0, 71, 58
2, 36480, Note_on_c, 0, 68, 36
2, 36720, Note_on_c, 0, 71, 0
2, 36720, Note_on_c, 0, 73, 52
2, 36960, Note_on_c, 0, 73, 0
2, 36960, Note_on_c, 0, 68, 0
2, 36960, Note_on_c, 0, 75, 55
2, 36960, Note_on_c, 0, 66, 46
2, 37200, Note_on_c, 0, 75, 0
2, 37200, Note_on_c, 0, 71, 50
2, 37440, Note_on_c, 0, 71, 0
2, 37440, Note_on_c, 0, 66, 0
2, 37440, Note_on_c, 0, 64, 43
2, 37440, Note_on_c, 0, 75, 57
2, 37920, Note_on_c, 0, 75, 0
2, 37920, Note_on_c, 0, 73, 55
2, 38160, Note_on_c, 0, 73, 0
2, 38160, Note_on_c, 0, 71, 50
2, 38400, Note_on_c, 0, 71, 0
2, 38400, Note_on_c, 0, 68, 53
2, 38880, Note_on_c, 0, 68, 0
2, 38880, Note_on_c, 0, 70, 50
2, 39360, Note_on_c, 0, 70, 0
2, 39360, Note_on_c, 0, 64, 0
2, 39360, Note_on_c, 0, 63, 40
2, 39360, Note_on_c, 0, 71, 48
2, 39810, Note_on_c, 0, 71, 0
2, 39810, Note_on_c, 0, 63, 0
2, 39840, Note_on_c, 0, 59, 57
2, 40320, Note_on_c, 0, 59, 0
2, 40320, Note_on_c, 0, 64, 60
2, 40800, Note_on_c, 0, 64, 0
2, 40800, Note_on_c, 0, 64, 57
2, 41280, Note_on_c, 0, 64, 0
2, 41280, Note_on_c, 0, 63, 57
2, 41760, Note_on_c, 0, 63, 0
2, 41760, Note_on_c, 0, 61, 57
2, 42000, Note_on_c, 0, 61, 0
2, 42000, Note_on_c, 0, 59, 55
2, 42240, Note_on_c, 0, 59, 0
2, 42240, Note_on_c, 0, 57, 45
2, 42240, Note_on_c, 0, 61, 53
2, 43200, Note_on_c, 0, 61, 0
2, 43200, Note_on_c, 0, 57, 0
2, 43200, Note_on_c, 0, 56, 44
2, 43200, Note_on_c, 0, 64, 52
2, 43680, Note_on_c, 0, 64, 0
2, 43680, Note_on_c, 0, 56, 0
2, 44160, Note_on_c, 0, 61, 41
2, 44160, Note_on_c, 0, 66, 49
2, 44640, Note_on_c, 0, 66, 0
2, 44640, Note_on_c, 0, 61, 0
2, 44640, Note_on_c, 0, 66, 47
2, 44640, Note_on_c, 0, 57, 39
2, 45120, Note_on_c, 0, 57, 0
2, 45120, Note_on_c, 0, 66, 0
2, 45120, Note_on_c, 0, 59, 33
2, 45120, Note_on_c, 0, 57, 33
2, 45120, Note_on_c, 0, 66, 39
2, 45840, Note_on_c, 0, 66, 0
2, 45840, Note_on_c, 0, 64, 37
2, 46080, Note_on_c, 0, 64, 0
2, 46080, Note_on_c, 0, 57, 0
2, 46080, Note_on_c, 0, 59, 0
2, 46080, Note_on_c, 0, 64, 33
2, 46080, Note_on_c, 0, 59, 28
2, 46080, Note_on_c, 0, 56, 28
2, 47040, Note_on_c, 0, 56, 0
2, 47040, Note_on_c, 0, 59, 0
2, 47040, Note_on_c, 0, 64, 0
2, 48000, Control_c, 0, 91, 127
2, 51120, Note_on_c, 0, 59, 31
2, 51120, Note_on_c, 0, 64, 31
2, 51120, Note_on_c, 0, 67, 37
2, 51360, Note_on_c, 0, 67, 0
2, 51360, Note_on_c, 0, 64, 0
2, 51360, Note_on_c, 0, 59, 0
2, 51360, Note_on_c, 0, 64, 33
2, 51360, Note_on_c, 0, 67, 33
2, 51360, Note_on_c, 0, 71, 39
2, 51600, Note_on_c, 0, 71, 0
2, 51600, Note_on_c, 0, 67, 0
2, 51600, Note_on_c, 0, 64, 0
2, 51600, Note_on_c, 0, 67, 35
2, 51600, Note_on_c, 0, 71, 35
2, 51600, Note_on_c, 0, 76, 42
2, 51840, Note_on_c, 0, 76, 0
2, 51840, Note_on_c, 0, 71, 0
2, 51840, Note_on_c, 0, 67, 0
2, 51840, Note_on_c, 0, 67, 38
2, 51840, Note_on_c, 0, 71, 38
2, 51840, Note_on_c, 0, 76, 45
2, 52560, Note_on_c, 0, 76, 0
2, 52560, Note_on_c, 0, 71, 0
2, 52560, Note_on_c, 0, 67, 0
2, 52560, Note_on_c, 0, 64, 37
2, 52560, Note_on_c, 0, 67, 37
2, 52560, Note_on_c, 0, 71, 44
2, 52800, Note_on_c, 0, 71, 0
2, 52800, Note_on_c, 0, 67, 0
2, 52800, Note_on_c, 0, 64, 0
2, 52800, Note_on_c, 0, 59, 42
2, 52800, Note_on_c, 0, 64, 42
2, 52800, Note_on_c, 0, 67, 51
2, 53280, Note_on_c, 0, 67, 0
2, 53280, Note_on_c, 0, 64, 0
2, 53280, Note_on_c, 0, 59, 0
2, 53280, Note_on_c, 0, 64, 51
2, 53280, Note_on_c, 0, 67, 51
2, 53280, Note_on_c, 0, 71, 60
2, 53760, Note_on_c, 0, 71, 0
2, 53760, Note_on_c, 0, 67, 0
2, 53760, Note_on_c, 0, 64, 0
2, 53760, Note_on_c, 0, 62, 60
2, 53760, Note_on_c, 0, 66, 60
2, 53760, Note_on_c, 0, 69, 60
2, 53760, Note_on_c, 0, 74, 70
2, 55660, Note_on_c, 0, 74, 0
2, 55660, Note_on_c, 0, 62, 0
2, 55660, Note_on_c, 0, 66, 0
2, 55660, Note_on_c, 0, 69, 0
2, 58800, Note_on_c, 0, 60, 38
2, 58800, Note_on_c, 0, 65, 38
2, 58800, Note_on_c, 0, 69, 45
2, 59040, Note_on_c, 0, 69, 0
2, 59040, Note_on_c, 0, 65, 0
2, 59040, Note_on_c, 0, 60, 0
2, 59040, Note_on_c, 0, 65, 46
2, 59040, Note_on_c, 0, 69, 46
2, 59040, Note_on_c, 0, 72, 55
2, 59280, Note_on_c, 0, 72, 0
2, 59280, Note_on_c, 0, 69, 0
2, 59280, Note_on_c, 0, 65, 0
2, 59280, Note_on_c, 0, 69, 54
2, 59280, Note_on_c, 0, 72, 54
2, 59280, Note_on_c, 0, 77, 65
2, 59520, Note_on_c, 0, 77, 0
2, 59520, Note_on_c, 0, 72, 0
2, 59520, Note_on_c, 0, 69, 0
2, 59520, Note_on_c, 0, 69, 65
2, 59520, Note_on_c, 0, 72, 65
2, 59520, Note_on_c, 0, 77, 77
2, 60240, Note_on_c, 0, 77, 0
2, 60240, Note_on_c, 0, 72, 0
2, 60240, Note_on_c, 0, 69, 0
2, 60240, Note_on_c, 0, 65, 51
2, 60240, Note_on_c, 0, 69, 51
2, 60240, Note_on_c, 0, 72, 60
2, 60480, Note_on_c, 0, 72, 0
2, 60480, Note_on_c, 0, 69, 0
2, 60480, Note_on_c, 0, 65, 0
2, 60480, Note_on_c, 0, 60, 45
2, 60480, Note_on_c, 0, 65, 45
2, 60480, Note_on_c, 0, 69, 54
2, 60960, Note_on_c, 0, 69, 0
2, 60960, Note_on_c, 0, 65, 0
2, 60960, Note_on_c, 0, 60, 0
2, 60960, Note_on_c, 0, 69, 39
2, 60960, Note_on_c, 0, 72, 46
2, 60960, Note_on_c, 0, 64, 39
2, 61440, Note_on_c, 0, 64, 0
2, 61440, Note_on_c, 0, 72, 0
2, 61440, Note_on_c, 0, 69, 0
2, 61440, Note_on_c, 0, 63, 37
2, 61440, Note_on_c, 0, 71, 44
2, 61440, Note_on_c, 0, 66, 37
2, 63340, Note_on_c, 0, 66, 0
2, 63340, Note_on_c, 0, 71, 0
2, 63340, Note_on_c, 0, 63, 0
2, 66480, Note_on_c, 0, 59, 29
2, 66480, Note_on_c, 0, 64, 29
2, 66480, Note_on_c, 0, 67, 35
2, 66720, Note_on_c, 0, 67, 0
2, 66720, Note_on_c, 0, 64, 0
2, 66720, Note_on_c, 0, 59, 0
2, 66720, Note_on_c, 0, 64, 33
2, 66720, Note_on_c, 0, 67, 33
2, 66720, Note_on_c, 0, 71, 39
2, 66960, Note_on_c, 0, 71, 0
2, 66960, Note_on_c, 0, 67, 0
2, 66960, Note_on_c, 0, 64, 0
2, 66960, Note_on_c, 0, 67, 36
2, 66960, Note_on_c, 0, 71, 36
2, 66960, Note_on_c, 0, 76, 43
2, 67200, Note_on_c, 0, 76, 0
2, 67200, Note_on_c, 0, 71, 0
2, 67200, Note_on_c, 0, 67, 0
2, 67200, Note_on_c, 0, 67, 39
2, 67200, Note_on_c, 0, 71, 39
2, 67200, Note_on_c, 0, 76, 46
2, 67920, Note_on_c, 0, 76, 0
2, 67920, Note_on_c, 0, 71, 0
2, 67920, Note_on_c, 0, 67, 0
2, 67920, Note_on_c, 0, 64, 39
2, 67920, Note_on_c, 0, 67, 39
2, 67920, Note_on_c, 0, 71, 46
2, 68160, Note_on_c, 0, 71, 0
2, 68160, Note_on_c, 0, 67, 0
2, 68160, Note_on_c, 0, 64, 0
2, 68160, Note_on_c, 0, 59, 44
2, 68160, Note_on_c, 0, 64, 44
2, 68160, Note_on_c, 0, 67, 52
2, 68640, Note_on_c, 0, 67, 0
2, 68640, Note_on_c, 0, 64, 0
2, 68640, Note_on_c, 0, 59, 0
2, 68640, Note_on_c, 0, 64, 52
2, 68640, Note_on_c, 0, 67, 52
2, 68640, Note_on_c, 0, 71, 63
2, 69120, Note_on_c, 0, 71, 0
2, 69120, Note_on_c, 0, 67, 0
2, 69120, Note_on_c, 0, 64, 0
2, 69120, Note_on_c, 0, 62, 62
2, 69120, Note_on_c, 0, 66, 62
2, 69120, Note_on_c, 0, 69, 62
2, 69120, Note_on_c, 0, 74, 73
2, 71020, Note_on_c, 0, 74, 0
2, 71020, Note_on_c, 0, 62, 0
2, 71020, Note_on_c, 0, 66, 0
2, 71020, Note_on_c, 0, 69, 0
2, 74160, Note_on_c, 0, 60, 33
2, 74160, Note_on_c, 0, 65, 33
2, 74160, Note_on_c, 0, 69, 39
2, 74400, Note_on_c, 0, 69, 0
2, 74400, Note_on_c, 0, 65, 0
2, 74400, Note_on_c, 0, 60, 0
2, 74400, Note_on_c, 0, 65, 42
2, 74400, Note_on_c, 0, 69, 42
2, 74400, Note_on_c, 0, 72, 50
2, 74640, Note_on_c, 0, 72, 0
2, 74640, Note_on_c, 0, 69, 0
2, 74640, Note_on_c, 0, 65, 0
2, 74640, Note_on_c, 0, 69, 53
2, 74640, Note_on_c, 0, 72, 53
2, 74640, Note_on_c, 0, 77, 63
2, 74880, Note_on_c, 0, 77, 0
2, 74880, Note_on_c, 0, 72, 0
2, 74880, Note_on_c, 0, 69, 0
2, 74880, Note_on_c, 0, 69, 63
2, 74880, Note_on_c, 0, 72, 63
2, 74880, Note_on_c, 0, 77, 75
2, 75600, Note_on_c, 0, 77, 0
2, 75600, Note_on_c, 0, 72, 0
2, 75600, Note_on_c, 0, 69, 0
2, 75600, Note_on_c, 0, 69, 51
2, 75600, Note_on_c, 0, 72, 61
2, 75600, Note_on_c, 0, 65, 51
2, 75840, Note_on_c, 0, 65, 0
2, 75840, Note_on_c, 0, 72, 0
2, 75840, Note_on_c, 0, 69, 0
2, 75840, Note_on_c, 0, 60, 48
2, 75840, Note_on_c, 0, 65, 48
2, 75840, Note_on_c, 0, 69, 57
2, 76320, Note_on_c, 0, 69, 0
2, 76320, Note_on_c, 0, 65, 0
2, 76320, Note_on_c, 0, 60, 0
2, 76320, Note_on_c, 0, 69, 38
2, 76320, Note_on_c, 0, 72, 45
2, 76320, Note_on_c, 0, 64, 38
2, 76800, Note_on_c, 0, 64, 0
2, 76800, Note_on_c, 0, 72, 0
2, 76800, Note_on_c, 0, 69, 0
2, 76800, Note_on_c, 0, 63, 32
2, 76800, Note_on_c, 0, 66, 32
2, 76800, Note_on_c, 0, 71, 38
2, 77760, Note_on_c, 0, 71, 0
2, 77760, Note_on_c, 0, 66, 0
2, 77760, Note_on_c, 0, 63, 0
2, 78240, Note_on_c, 0, 71, 52
2, 78720, Note_on_c, 0, 68, 31
2, 78960, Note_on_c, 0, 71, 0
2, 78960, Note_on_c, 0, 73, 52
2, 79200, Note_on_c, 0, 73, 0
2, 79200, Note_on_c, 0, 68, 0
2, 79200, Note_on_c, 0, 75, 49
2, 79200, Note_on_c, 0, 66, 41
2, 79680, Note_on_c, 0, 66, 0
2, 79680, Note_on_c, 0, 75, 0
2, 79680, Note_on_c, 0, 64, 40
2, 79680, Note_on_c, 0, 75, 53
2, 80160, Note_on_c, 0, 75, 0
2, 80160, Note_on_c, 0, 71, 51
2, 80640, Note_on_c, 0, 71, 0
2, 80640, Note_on_c, 0, 68, 51
2, 81120, Note_on_c, 0, 68, 0
2, 81120, Note_on_c, 0, 70, 50
2, 81600, Note_on_c, 0, 70, 0
2, 81600, Note_on_c, 0, 64, 0
2, 81600, Note_on_c, 0, 63, 41
2, 81600, Note_on_c, 0, 71, 49
2, 82050, Note_on_c, 0, 71, 0
2, 82050, Note_on_c, 0, 63, 0
2, 82080, Note_on_c, 0, 71, 58
2, 82560, Note_on_c, 0, 68, 36
2, 82800, Note_on_c, 0, 71, 0
2, 82800, Note_on_c, 0, 73, 52
2, 83040, Note_on_c, 0, 73, 0
2, 83040, Note_on_c, 0, 68, 0
2, 83040, Note_on_c, 0, 66, 46
2, 83040, Note_on_c, 0, 75, 55
2, 83280, Note_on_c, 0, 75, 0
2, 83280, Note_on_c, 0, 71, 50
2, 83520, Note_on_c, 0, 71, 0
2, 83520, Note_on_c, 0, 66, 0
2, 83520, Note_on_c, 0, 75, 57
2, 83520, Note_on_c, 0, 64, 43
2, 84000, Note_on_c, 0, 75, 0
2, 84000, Note_on_c, 0, 73, 51
2, 84240, Note_on_c, 0, 73, 0
2, 84240, Note_on_c, 0, 71, 51
2, 84480, Note_on_c, 0, 71, 0
2, 84480, Note_on_c, 0, 68, 55
2, 84960, Note_on_c, 0, 68, 0
2, 84960, Note_on_c, 0, 70, 51
2, 85440, Note_on_c, 0, 70, 0
2, 85440, Note_on_c, 0, 64, 0
2, 85440, Note_on_c, 0, 71, 49
2, 85440, Note_on_c, 0, 63, 41
2, 85890, Note_on_c, 0, 63, 0
2, 85890, Note_on_c, 0, 71, 0
2, 85920, Note_on_c, 0, 59, 62
2, 86400, Note_on_c, 0, 59, 0
2, 86400, Note_on_c, 0, 64, 66
2, 86880, Note_on_c, 0, 64, 0
2, 86880, Note_on_c, 0, 64, 63
2, 87360, Note_on_c, 0, 64, 0
2, 87360, Note_on_c, 0, 63, 62
2, 87840, Note_on_c, 0, 63, 0
2, 87840, Note_on_c, 0, 61, 62
2, 88080, Note_on_c, 0, 61, 0
2, 88080, Note_on_c, 0, 59, 56
2, 88320, Note_on_c, 0, 59, 0
2, 88320, Note_on_c, 0, 61, 58
2, 88320, Note_on_c, 0, 57, 49
2, 89280, Note_on_c, 0, 57, 0
2, 89280, Note_on_c, 0, 61, 0
2, 89280, Note_on_c, 0, 64, 57
2, 89280, Note_on_c, 0, 56, 48
2, 89760, Note_on_c, 0, 56, 0
2, 89760, Note_on_c, 0, 64, 0
2, 90240, Note_on_c, 0, 61, 50
2, 90240, Note_on_c, 0, 66, 59
2, 90690, Note_on_c, 0, 66, 0
2, 90690, Note_on_c, 0, 61, 0
2, 90720, Note_on_c, 0, 61, 48
2, 90720, Note_on_c, 0, 66, 57
2, 91170, Note_on_c, 0, 66, 0
2, 91170, Note_on_c, 0, 61, 0
2, 91200, Note_on_c, 0, 61, 45
2, 91200, Note_on_c, 0, 69, 53
2, 91650, Note_on_c, 0, 69, 0
2, 91650, Note_on_c, 0, 61, 0
2, 91680, Note_on_c, 0, 61, 45
2, 91680, Note_on_c, 0, 69, 53
2, 92130, Note_on_c, 0, 69, 0
2, 92130, Note_on_c, 0, 61, 0
2, 92160, Note_on_c, 0, 68, 49
2, 92160, Note_on_c, 0, 60, 41
2, 93570, Note_on_c, 0, 60, 0
2, 93570, Note_on_c, 0, 68, 0
2, 93600, Note_on_c, 0, 68, 64
2, 94080, Note_on_c, 0, 68, 0
2, 94080, Note_on_c, 0, 73, 71
2, 94560, Note_on_c, 0, 73, 0
2, 94560, Note_on_c, 0, 73, 67
2, 95040, Note_on_c, 0, 73, 0
2, 95040, Note_on_c, 0, 71, 69
2, 95520, Note_on_c, 0, 71, 0
2, 95520, Note_on_c, 0, 69, 69
2, 95760, Note_on_c, 0, 69, 0
2, 95760, Note_on_c, 0, 68, 65
2, 96000, Note_on_c, 0, 68, 0
2, 96000, Note_on_c, 0, 61, 58
2, 96000, Note_on_c, 0, 69, 69
2, 96480, Note_on_c, 0, 61, 0
2, 96480, Note_on_c, 0, 63, 57
2, 96960, Note_on_c, 0, 63, 0
2, 96960, Note_on_c, 0, 69, 0
2, 96960, Note_on_c, 0, 64, 56
2, 96960, Note_on_c, 0, 68, 66
2, 97440, Note_on_c, 0, 64, 0
2, 97440, Note_on_c, 0, 60, 51
2, 97920, Note_on_c, 0, 60, 0
2, 97920, Note_on_c, 0, 68, 0
2, 97920, Note_on_c, 0, 61, 47
2, 97920, Note_on_c, 0, 66, 56
2, 98400, Note_on_c, 0, 66, 0
2, 98400, Note_on_c, 0, 61, 0
2, 98400, Note_on_c, 0, 57, 45
2, 98400, Note_on_c, 0, 66, 54
2, 98880, Note_on_c, 0, 66, 0
2, 98880, Note_on_c, 0, 57, 0
2, 98880, Note_on_c, 0, 57, 41
2, 98880, Note_on_c, 0, 59, 41
2, 98880, Note_on_c, 0, 66, 49
2, 99600, Note_on_c, 0, 66, 0
2, 99600, Note_on_c, 0, 64, 36
2, 99840, Note_on_c, 0, 64, 0
2, 99840, Note_on_c, 0, 59, 0
2, 99840, Note_on_c, 0, 57, 0
2, 99840, Note_on_c, 0, 56, 23
2, 99840, Note_on_c, 0, 59, 23
2, 99840, Note_on_c, 0, 64, 27
2, 101760, Note_on_c, 0, 64, 0
2, 101760, Note_on_c, 0, 59, 0
2, 101760, Note_on_c, 0, 56, 0
2, 101760, End_track
3, 0, Start_track
3, 0, Title_t, "Piano left"
3, 0, Program_c, 0, 0
3, 0, Control_c, 0, 7, 100
3, 0, Control_c, 0, 10, 64
3, 0, Control_c, 0, 64, 0
3, 1436, Control_c, 0, 91, 127
3, 1440, Note_on_c, 0, 47, 48
3, 1440, Control_c, 0, 64, 0
3, 1920, Note_on_c, 0, 47, 0
3, 1920, Note_on_c, 0, 52, 51
3, 2400, Note_on_c, 0, 52, 0
3, 2400, Note_on_c, 0, 52, 51
3, 2880, Note_on_c, 0, 52, 0
3, 2880, Note_on_c, 0, 51, 48
3, 3360, Note_on_c, 0, 51, 0
3, 3360, Note_on_c, 0, 49, 46
3, 3600, Note_on_c, 0, 49, 0
3, 3600, Note_on_c, 0, 47, 41
3, 3840, Note_on_c, 0, 47, 0
3, 3840, Note_on_c, 0, 45, 38
3, 3840, Note_on_c, 0, 52, 45
3, 4080, Control_c, 0, 64, 127
3, 4800, Note_on_c, 0, 52, 0
3, 4800, Note_on_c, 0, 45, 0
3, 4800, Note_on_c, 0, 52, 44
3, 4800, Note_on_c, 0, 49, 37
3, 4812, Control_c, 0, 64, 0
3, 5280, Note_on_c, 0, 49, 0
3, 5280, Note_on_c, 0, 52, 0
3, 5760, Note_on_c, 0, 45, 37
3, 5760, Note_on_c, 0, 52, 44
3, 5781, Control_c, 0, 64, 127
3, 6080, Note_on_c, 0, 52, 0
3, 6080, Note_on_c, 0, 45, 0
3, 6240, Note_on_c, 0, 52, 42
3, 6240, Note_on_c, 0, 45, 35
3, 6560, Note_on_c, 0, 45, 0
3, 6560, Note_on_c, 0, 52, 0
3, 6692, Control_c, 0, 64, 0
3, 6720, Note_on_c, 0, 51, 42
3, 6720, Note_on_c, 0, 47, 35
3, 6780, Control_c, 0, 64, 127
3, 7040, Note_on_c, 0, 47, 0
3, 7040, Note_on_c, 0, 51, 0
3, 7200, Note_on_c, 0, 51, 39
3, 7200, Note_on_c, 0, 47, 33
3, 7520, Note_on_c, 0, 47, 0
3, 7520, Note_on_c, 0, 51, 0
3, 7631, Control_c, 0, 64, 0
3, 7680, Note_on_c, 0, 52, 44
3, 7680, Note_on_c, 0, 40, 37
3, 7813, Control_c, 0, 64, 127
3, 8640, Note_on_c, 0, 40, 0
3, 8640, Note_on_c, 0, 52, 0
3, 8773, Control_c, 0, 64, 0
3, 9120, Note_on_c, 0, 56, 66
3, 9600, Note_on_c, 0, 56, 0
3, 9600, Note_on_c, 0, 61, 66
3, 10080, Note_on_c, 0, 61, 0
3, 10080, Note_on_c, 0, 61, 64
3, 10560, Note_on_c, 0, 61, 0
3, 10560, Note_on_c, 0, 59, 64
3, 11040, Note_on_c, 0, 59, 0
3, 11040, Note_on_c, 0, 57, 65
3, 11280, Note_on_c, 0, 57, 0
3, 11280, Note_on_c, 0, 56, 59
3, 11520, Note_on_c, 0, 56, 0
3, 11520, Note_on_c, 0, 57, 69
3, 11680, Control_c, 0, 64, 127
3, 12000, Note_on_c, 0, 57, 0
3, 12000, Note_on_c, 0, 54, 59
3, 12480, Note_on_c, 0, 54, 0
3, 12480, Note_on_c, 0, 49, 60
3, 12492, Control_c, 0, 64, 0
3, 12854, Control_c, 0, 64, 127
3, 13254, Control_c, 0, 64, 0
3, 13440, Note_on_c, 0, 49, 0
3, 13440, Note_on_c, 0, 45, 46
3, 13440, Note_on_c, 0, 52, 55
3, 13567, Control_c, 0, 64, 127
3, 13920, Note_on_c, 0, 52, 0
3, 13920, Note_on_c, 0, 45, 0
3, 13920, Note_on_c, 0, 52, 47
3, 13920, Note_on_c, 0, 42, 39
3, 14400, Note_on_c, 0, 42, 0
3, 14400, Note_on_c, 0, 52, 0
3, 14400, Note_on_c, 0, 52, 46
3, 14400, Note_on_c, 0, 47, 39
3, 14408, Control_c, 0, 64, 0
3, 14570, Control_c, 0, 64, 127
3, 14880, Note_on_c, 0, 52, 0
3, 14880, Note_on_c, 0, 51, 44
3, 15360, Note_on_c, 0, 51, 0
3, 15360, Note_on_c, 0, 47, 0
3, 15360, Note_on_c, 0, 47, 29
3, 15360, Note_on_c, 0, 52, 35
3, 15360, Note_on_c, 0, 40, 29
3, 15363, Control_c, 0, 64, 0
3, 15680, Control_c, 0, 64, 127
3, 16320, Note_on_c, 0, 40, 0
3, 16320, Note_on_c, 0, 52, 0
3, 16320, Note_on_c, 0, 47, 0
3, 16400, Control_c, 0, 64, 0
3, 16960, Control_c, 0, 64, 127
3, 17280, Note_on_c, 0, 56, 40
3, 18240, Note_on_c, 0, 56, 0
3, 18240, Note_on_c, 0, 49, 40
3, 18247, Control_c, 0, 64, 0
3, 18466, Control_c, 0, 64, 127
3, 19360, Control_c, 0, 64, 0
3, 19680, Note_on_c, 0, 49, 0
3, 19680, Note_on_c, 0, 54, 46
3, 20160, Note_on_c, 0, 54, 0
3, 20160, Note_on_c, 0, 47, 47
3, 20610, Note_on_c, 0, 47, 0
3, 20709, Control_c, 0, 64, 127
3, 21120, Note_on_c, 0, 56, 45
3, 22080, Note_on_c, 0, 56, 0
3, 22080, Note_on_c, 0, 49, 45
3, 22092, Control_c, 0, 64, 0
3, 22278, Control_c, 0, 64, 127
3, 23520, Note_on_c, 0, 49, 0
3, 23520, Note_on_c, 0, 54, 54
3, 23532, Control_c, 0, 64, 0
3, 24000, Note_on_c, 0, 54, 0
3, 24000, Note_on_c, 0, 47, 51
3, 24450, Note_on_c, 0, 47, 0
3, 24480, Note_on_c, 0, 47, 48
3, 24960, Note_on_c, 0, 47, 0
3, 24960, Note_on_c, 0, 52, 51
3, 25440, Note_on_c, 0, 52, 0
3, 25440, Note_on_c, 0, 52, 48
3, 25920, Note_on_c, 0, 52, 0
3, 25920, Note_on_c, 0, 51, 48
3, 26400, Note_on_c, 0, 51, 0
3, 26400, Note_on_c, 0, 49, 46
3, 26640, Note_on_c, 0, 49, 0
3, 26640, Note_on_c, 0, 47, 44
3, 26880, Note_on_c, 0, 47, 0
3, 26880, Note_on_c, 0, 52, 44
3, 26880, Note_on_c, 0, 45, 37
3, 27173, Control_c, 0, 64, 127
3, 27840, Note_on_c, 0, 45, 0
3, 27840, Note_on_c, 0, 52, 0
3, 27840, Note_on_c, 0, 49, 38
3, 27840, Note_on_c, 0, 52, 45
3, 27846, Control_c, 0, 64, 0
3, 28320, Note_on_c, 0, 52, 0
3, 28320, Note_on_c, 0, 49, 0
3, 28800, Note_on_c, 0, 52, 48
3, 28800, Note_on_c, 0, 45, 40
3, 28871, Control_c, 0, 64, 127
3, 29280, Note_on_c, 0, 45, 0
3, 29280, Note_on_c, 0, 52, 0
3, 29280, Note_on_c, 0, 52, 46
3, 29280, Note_on_c, 0, 42, 39
3, 29760, Note_on_c, 0, 42, 0
3, 29760, Note_on_c, 0, 52, 0
3, 29760, Note_on_c, 0, 47, 36
3, 29760, Note_on_c, 0, 52, 43
3, 29771, Control_c, 0, 64, 0
3, 29958, Control_c, 0, 64, 127
3, 30240, Note_on_c, 0, 52, 0
3, 30240, Note_on_c, 0, 51, 43
3, 30720, Note_on_c, 0, 51, 0
3, 30720, Note_on_c, 0, 47, 0
3, 30720, Note_on_c, 0, 40, 33
3, 30720, Note_on_c, 0, 52, 39
3, 30720, Note_on_c, 0, 47, 33
3, 30724, Control_c, 0, 64, 0
3, 30934, Control_c, 0, 64, 127
3, 31680, Note_on_c, 0, 47, 0
3, 31680, Note_on_c, 0, 52, 0
3, 31680, Note_on_c, 0, 40, 0
3, 31760, Control_c, 0, 64, 0
3, 32320, Control_c, 0, 64, 127
3, 32640, Note_on_c, 0, 56, 40
3, 33600, Note_on_c, 0, 56, 0
3, 33600, Note_on_c, 0, 49, 40
3, 33612, Control_c, 0, 64, 0
3, 33840, Control_c, 0, 64, 127
3, 35040, Note_on_c, 0, 49, 0
3, 35040, Note_on_c, 0, 54, 47
3, 35050, Control_c, 0, 64, 0
3, 35520, Note_on_c, 0, 54, 0
3, 35520, Note_on_c, 0, 47, 50
3, 35970, Note_on_c, 0, 47, 0
3, 36023, Control_c, 0, 64, 127
3, 36480, Note_on_c, 0, 56, 45
3, 37440, Note_on_c, 0, 56, 0
3, 37440, Note_on_c, 0, 49, 45
3, 37451, Control_c, 0, 64, 0
3, 37666, Control_c, 0, 64, 127
3, 38880, Note_on_c, 0, 49, 0
3, 38880, Note_on_c, 0, 54, 51
3, 38896, Control_c, 0, 64, 0
3, 39360, Note_on_c, 0, 54, 0
3, 39360, Note_on_c, 0, 47, 50
3, 39810, Note_on_c, 0, 47, 0
3, 39840, Note_on_c, 0, 47, 48
3, 40320, Note_on_c, 0, 47, 0
3, 40320, Note_on_c, 0, 52, 51
3, 40800, Note_on_c, 0, 52, 0
3, 40800, Note_on_c, 0, 52, 48
3, 41280, Note_on_c, 0, 52, 0
3, 41280, Note_on_c, 0, 51, 48
3, 41760, Note_on_c, 0, 51, 0
3, 41760, Note_on_c, 0, 49, 46
3, 42000, Note_on_c, 0, 49, 0
3, 42000, Note_on_c, 0, 47, 44
3, 42240, Note_on_c, 0, 47, 0
3, 42240, Note_on_c, 0, 45, 37
3, 42240, Note_on_c, 0, 52, 44
3, 42454, Control_c, 0, 64, 127
3, 43200, Note_on_c, 0, 52, 0
3, 43200, Note_on_c, 0, 45, 0
3, 43200, Note_on_c, 0, 49, 38
3, 43200, Note_on_c, 0, 52, 45
3, 43210, Control_c, 0, 64, 0
3, 43680, Note_on_c, 0, 52, 0
3, 43680, Note_on_c, 0, 49, 0
3, 44160, Note_on_c, 0, 45, 38
3, 44160, Note_on_c, 0, 52, 45
3, 44273, Control_c, 0, 64, 127
3, 44640, Note_on_c, 0, 52, 0
3, 44640, Note_on_c, 0, 45, 0
3, 44640, Note_on_c, 0, 52, 41
3, 44640, Note_on_c, 0, 42, 34
3, 45120, Note_on_c, 0, 42, 0
3, 45120, Note_on_c, 0, 52, 0
3, 45120, Note_on_c, 0, 47, 31
3, 45120, Note_on_c, 0, 52, 37
3, 45131, Control_c, 0, 64, 0
3, 45374, Control_c, 0, 64, 127
3, 45600, Note_on_c, 0, 52, 0
3, 45600, Note_on_c, 0, 51, 34
3, 46080, Note_on_c, 0, 51, 0
3, 46080, Note_on_c, 0, 47, 0
3, 46080, Note_on_c, 0, 47, 23
3, 46080, Note_on_c, 0, 40, 23
3, 46080, Note_on_c, 0, 52, 28
3, 46086, Control_c, 0, 64, 0
3, 46614, Control_c, 0, 64, 127
3, 47040, Note_on_c, 0, 52, 0
3, 47040, Note_on_c, 0, 40, 0
3, 47040, Note_on_c, 0, 47, 0
3, 47227, Control_c, 0, 64, 0
3, 48000, Control_c, 0, 64, 127
3, 48000, Control_c, 0, 91, 127
3, 48000, Note_on_c, 0, 40, 28
3, 48720, Note_on_c, 0, 47, 21
3, 48756, Note_on_c, 0, 52, 22
3, 48774, Note_on_c, 0, 47, 0
3, 48790, Note_on_c, 0, 55, 24
3, 48807, Note_on_c, 0, 52, 0
3, 48824, Note_on_c, 0, 59, 24
3, 48841, Note_on_c, 0, 55, 0
3, 48858, Note_on_c, 0, 55, 24
3, 48875, Note_on_c, 0, 59, 0
3, 48892, Note_on_c, 0, 52, 23
3, 48909, Note_on_c, 0, 55, 0
3, 48926, Note_on_c, 0, 47, 22
3, 48943, Note_on_c, 0, 52, 0
3, 48960, Note_on_c, 0, 40, 0
3, 48960, Note_on_c, 0, 40, 34
3, 48977, Note_on_c, 0, 47, 0
3, 49680, Note_on_c, 0, 47, 22
3, 49716, Note_on_c, 0, 52, 26
3, 49734, Note_on_c, 0, 47, 0
3, 49750, Note_on_c, 0, 55, 28
3, 49767, Note_on_c, 0, 52, 0
3, 49784, Note_on_c, 0, 59, 29
3, 49801, Note_on_c, 0, 55, 0
3, 49818, Note_on_c, 0, 55, 28
3, 49835, Note_on_c, 0, 59, 0
3, 49852, Note_on_c, 0, 52, 26
3, 49869, Note_on_c, 0, 55, 0
3, 49886, Note_on_c, 0, 47, 24
3, 49903, Note_on_c, 0, 52, 0
3, 49920, Note_on_c, 0, 47, 0
3, 49920, Note_on_c, 0, 40, 0
3, 49920, Note_on_c, 0, 40, 38
3, 51000, Control_c, 0, 64, 0
3, 51176, Control_c, 0, 64, 127
3, 51360, Note_on_c, 0, 40, 0
3, 51849, Control_c, 0, 64, 0
3, 52066, Control_c, 0, 64, 127
3, 53763, Control_c, 0, 64, 0
3, 54320, Control_c, 0, 64, 127
3, 55333, Control_c, 0, 64, 0
3, 55680, Note_on_c, 0, 41, 28
3, 55746, Control_c, 0, 64, 127
3, 56400, Note_on_c, 0, 48, 23
3, 56436, Note_on_c, 0, 53, 23
3, 56469, Note_on_c, 0, 48, 0
3, 56470, Note_on_c, 0, 57, 24
3, 56502, Note_on_c, 0, 53, 0
3, 56504, Note_on_c, 0, 60, 25
3, 56536, Note_on_c, 0, 57, 0
3, 56538, Note_on_c, 0, 57, 28
3, 56570, Note_on_c, 0, 60, 0
3, 56572, Note_on_c, 0, 53, 26
3, 56604, Note_on_c, 0, 57, 0
3, 56606, Note_on_c, 0, 48, 26
3, 56638, Note_on_c, 0, 53, 0
3, 56640, Note_on_c, 0, 41, 0
3, 56640, Note_on_c, 0, 41, 32
3, 56672, Note_on_c, 0, 48, 0
3, 57360, Note_on_c, 0, 48, 22
3, 57396, Note_on_c, 0, 53, 23
3, 57429, Note_on_c, 0, 48, 0
3, 57430, Note_on_c, 0, 57, 24
3, 57462, Note_on_c, 0, 53, 0
3, 57464, Note_on_c, 0, 60, 24
3, 57496, Note_on_c, 0, 57, 0
3, 57498, Note_on_c, 0, 57, 26
3, 57530, Note_on_c, 0, 60, 0
3, 57532, Note_on_c, 0, 53, 26
3, 57564, Note_on_c, 0, 57, 0
3, 57566, Note_on_c, 0, 48, 26
3, 57598, Note_on_c, 0, 53, 0
3, 57600, Note_on_c, 0, 41, 0
3, 57600, Note_on_c, 0, 41, 32
3, 57610, Note_on_c, 0, 48, 0
3, 58560, Control_c, 0, 64, 0
3, 58869, Control_c, 0, 64, 127
3, 59040, Note_on_c, 0, 41, 0
3, 59530, Control_c, 0, 64, 0
3, 59726, Control_c, 0, 64, 127
3, 60960, Note_on_c, 0, 57, 46
3, 60968, Control_c, 0, 64, 0
3, 61074, Control_c, 0, 64, 127
3, 61440, Note_on_c, 0, 57, 0
3, 61440, Note_on_c, 0, 59, 37
3, 61444, Control_c, 0, 64, 0
3, 62134, Control_c, 0, 64, 127
3, 63200, Control_c, 0, 64, 0
3, 63340, Note_on_c, 0, 59, 0
3, 63360, Note_on_c, 0, 40, 28
3, 63406, Control_c, 0, 64, 127
3, 64080, Note_on_c, 0, 47, 22
3, 64116, Note_on_c, 0, 52, 22
3, 64149, Note_on_c, 0, 47, 0
3, 64150, Note_on_c, 0, 55, 23
3, 64182, Note_on_c, 0, 52, 0
3, 64184, Note_on_c, 0, 59, 23
3, 64216, Note_on_c, 0, 55, 0
3, 64218, Note_on_c, 0, 55, 22
3, 64250, Note_on_c, 0, 59, 0
3, 64252, Note_on_c, 0, 52, 22
3, 64284, Note_on_c, 0, 55, 0
3, 64286, Note_on_c, 0, 47, 21
3, 64318, Note_on_c, 0, 52, 0
3, 64320, Note_on_c, 0, 40, 0
3, 64320, Note_on_c, 0, 40, 27
3, 64352, Note_on_c, 0, 47, 0
3, 65040, Note_on_c, 0, 47, 20
3, 65076, Note_on_c, 0, 52, 22
3, 65109, Note_on_c, 0, 47, 0
3, 65110, Note_on_c, 0, 55, 24
3, 65142, Note_on_c, 0, 52, 0
3, 65144, Note_on_c, 0, 59, 26
3, 65176, Note_on_c, 0, 55, 0
3, 65178, Note_on_c, 0, 55, 24
3, 65210, Note_on_c, 0, 59, 0
3, 65212, Note_on_c, 0, 52, 22
3, 65244, Note_on_c, 0, 55, 0
3, 65246, Note_on_c, 0, 47, 20
3, 65278, Note_on_c, 0, 52, 0
3, 65280, Note_on_c, 0, 40, 0
3, 65280, Note_on_c, 0, 40, 32
3, 65312, Note_on_c, 0, 47, 0
3, 66240, Control_c, 0, 64, 0
3, 66487, Control_c, 0, 64, 127
3, 66720, Note_on_c, 0, 40, 0
3, 67203, Control_c, 0, 64, 0
3, 67426, Control_c, 0, 64, 127
3, 69127, Control_c, 0, 64, 0
3, 69520, Control_c, 0, 64, 127
3, 70720, Control_c, 0, 64, 0
3, 71040, Note_on_c, 0, 41, 28
3, 71069, Control_c, 0, 64, 127
3, 71760, Note_on_c, 0, 48, 25
3, 71796, Note_on_c, 0, 53, 25
3, 71829, Note_on_c, 0, 48, 0
3, 71830, Note_on_c, 0, 57, 26
3, 71862, Note_on_c, 0, 53, 0
3, 71864, Note_on_c, 0, 60, 28
3, 71896, Note_on_c, 0, 57, 0
3, 71898, Note_on_c, 0, 57, 28
3, 71930, Note_on_c, 0, 60, 0
3, 71932, Note_on_c, 0, 53, 28
3, 71964, Note_on_c, 0, 57, 0
3, 71966, Note_on_c, 0, 48, 26
3, 71998, Note_on_c, 0, 53, 0
3, 72000, Note_on_c, 0, 41, 0
3, 72000, Note_on_c, 0, 41, 32
3, 72032, Note_on_c, 0, 48, 0
3, 72720, Note_on_c, 0, 48, 24
3, 72756, Note_on_c, 0, 53, 24
3, 72789, Note_on_c, 0, 48, 0
3, 72790, Note_on_c, 0, 57, 25
3, 72822, Note_on_c, 0, 53, 0
3, 72824, Note_on_c, 0, 60, 26
3, 72856, Note_on_c, 0, 57, 0
3, 72858, Note_on_c, 0, 57, 28
3, 72890, Note_on_c, 0, 60, 0
3, 72892, Note_on_c, 0, 53, 28
3, 72924, Note_on_c, 0, 57, 0
3, 72926, Note_on_c, 0, 48, 28
3, 72958, Note_on_c, 0, 53, 0
3, 72960, Note_on_c, 0, 41, 0
3, 72960, Note_on_c, 0, 41, 39
3, 72992, Note_on_c, 0, 48, 0
3, 73916, Control_c, 0, 64, 0
3, 74171, Control_c, 0, 64, 127
3, 74400, Note_on_c, 0, 41, 0
3, 74884, Control_c, 0, 64, 0
3, 75017, Control_c, 0, 64, 127
3, 76320, Note_on_c, 0, 57, 37
3, 76331, Control_c, 0, 64, 0
3, 76526, Control_c, 0, 64, 127
3, 76800, Note_on_c, 0, 57, 0
3, 76800, Note_on_c, 0, 59, 31
3, 76804, Control_c, 0, 64, 0
3, 77200, Control_c, 0, 64, 127
3, 77760, Note_on_c, 0, 59, 0
3, 77813, Control_c, 0, 64, 0
3, 78267, Control_c, 0, 64, 127
3, 78720, Note_on_c, 0, 56, 40
3, 79680, Note_on_c, 0, 56, 0
3, 79680, Note_on_c, 0, 49, 40
3, 79692, Control_c, 0, 64, 0
3, 79906, Control_c, 0, 64, 127
3, 81120, Note_on_c, 0, 49, 0
3, 81120, Note_on_c, 0, 54, 47
3, 81131, Control_c, 0, 64, 0
3, 81600, Note_on_c, 0, 54, 0
3, 81600, Note_on_c, 0, 47, 50
3, 82050, Note_on_c, 0, 47, 0
3, 82171, Control_c, 0, 64, 127
3, 82560, Note_on_c, 0, 56, 45
3, 83520, Note_on_c, 0, 56, 0
3, 83520, Note_on_c, 0, 49, 43
3, 83532, Control_c, 0, 64, 0
3, 83788, Control_c, 0, 64, 127
3, 84960, Note_on_c, 0, 49, 0
3, 84960, Note_on_c, 0, 54, 49
3, 84969, Control_c, 0, 64, 0
3, 85440, Note_on_c, 0, 54, 0
3, 85440, Note_on_c, 0, 47, 47
3, 85890, Note_on_c, 0, 47, 0
3, 85920, Note_on_c, 0, 47, 52
3, 86400, Note_on_c, 0, 47, 0
3, 86400, Note_on_c, 0, 52, 56
3, 86880, Note_on_c, 0, 52, 0
3, 86880, Note_on_c, 0, 52, 54
3, 87360, Note_on_c, 0, 52, 0
3, 87360, Note_on_c, 0, 51, 52
3, 87840, Note_on_c, 0, 51, 0
3, 87840, Note_on_c, 0, 49, 51
3, 88080, Note_on_c, 0, 49, 0
3, 88080, Note_on_c, 0, 47, 46
3, 88320, Note_on_c, 0, 47, 0
3, 88320, Note_on_c, 0, 52, 48
3, 88320, Note_on_c, 0, 45, 40
3, 88560, Control_c, 0, 64, 127
3, 89280, Note_on_c, 0, 45, 0
3, 89280, Note_on_c, 0, 52, 0
3, 89280, Note_on_c, 0, 49, 41
3, 89280, Note_on_c, 0, 52, 49
3, 89292, Control_c, 0, 64, 0
3, 89760, Note_on_c, 0, 52, 0
3, 89760, Note_on_c, 0, 49, 0
3, 90240, Note_on_c, 0, 45, 40
3, 90240, Note_on_c, 0, 52, 48
3, 90293, Control_c, 0, 64, 127
3, 90690, Note_on_c, 0, 52, 0
3, 90690, Note_on_c, 0, 45, 0
3, 90720, Note_on_c, 0, 45, 39
3, 90720, Note_on_c, 0, 52, 46
3, 91170, Note_on_c, 0, 52, 0
3, 91170, Note_on_c, 0, 45, 0
3, 91200, Note_on_c, 0, 42, 39
3, 91200, Note_on_c, 0, 52, 46
3, 91211, Control_c, 0, 64, 0
3, 91440, Control_c, 0, 64, 127
3, 91650, Note_on_c, 0, 52, 0
3, 91650, Note_on_c, 0, 42, 0
3, 91680, Note_on_c, 0, 42, 39
3, 91680, Note_on_c, 0, 52, 46
3, 92130, Note_on_c, 0, 52, 0
3, 92130, Note_on_c, 0, 42, 0
3, 92160, Note_on_c, 0, 44, 34
3, 92160, Note_on_c, 0, 51, 40
3, 92167, Control_c, 0, 64, 0
3, 92560, Control_c, 0, 64, 127
3, 93280, Control_c, 0, 64, 0
3, 93570, Note_on_c, 0, 51, 0
3, 93570, Note_on_c, 0, 44, 0
3, 93600, Note_on_c, 0, 56, 66
3, 94080, Note_on_c, 0, 56, 0
3, 94080, Note_on_c, 0, 61, 66
3, 94560, Note_on_c, 0, 61, 0
3, 94560, Note_on_c, 0, 61, 62
3, 95040, Note_on_c, 0, 61, 0
3, 95040, Note_on_c, 0, 59, 64
3, 95520, Note_on_c, 0, 59, 0
3, 95520, Note_on_c, 0, 57, 65
3, 95760, Note_on_c, 0, 57, 0
3, 95760, Note_on_c, 0, 56, 61
3, 96000, Note_on_c, 0, 56, 0
3, 96000, Note_on_c, 0, 57, 58
3, 96183, Control_c, 0, 64, 127
3, 96480, Note_on_c, 0, 57, 0
3, 96480, Note_on_c, 0, 54, 56
3, 96960, Note_on_c, 0, 54, 0
3, 96960, Note_on_c, 0, 49, 54
3, 96964, Control_c, 0, 64, 0
3, 97143, Control_c, 0, 64, 127
3, 97440, Note_on_c, 0, 49, 0
3, 97440, Note_on_c, 0, 44, 51
3, 97452, Control_c, 0, 64, 0
3, 97692, Control_c, 0, 64, 127
3, 97920, Note_on_c, 0, 44, 0
3, 97920, Note_on_c, 0, 45, 39
3, 97920, Note_on_c, 0, 52, 46
3, 97932, Control_c, 0, 64, 0
3, 98090, Control_c, 0, 64, 127
3, 98400, Note_on_c, 0, 52, 0
3, 98400, Note_on_c, 0, 45, 0
3, 98400, Note_on_c, 0, 42, 37
3, 98400, Note_on_c, 0, 52, 44
3, 98880, Note_on_c, 0, 52, 0
3, 98880, Note_on_c, 0, 42, 0
3, 98880, Note_on_c, 0, 52, 40
3, 98880, Note_on_c, 0, 47, 34
3, 98891, Control_c, 0, 64, 0
3, 99050, Control_c, 0, 64, 127
3, 99360, Note_on_c, 0, 52, 0
3, 99360, Note_on_c, 0, 51, 31
3, 99840, Note_on_c, 0, 51, 0
3, 99840, Note_on_c, 0, 47, 0
3, 99840, Note_on_c, 0, 47, 20
3, 99840, Note_on_c, 0, 40, 20
3, 99840, Note_on_c, 0, 52, 24
3, 99848, Control_c, 0, 64, 0
3, 100400, Control_c, 0, 64, 127
3, 101760, Note_on_c, 0, 52, 0
3, 101760, Note_on_c, 0, 40, 0
3, 101760, Note_on_c, 0, 47, 0
3, 103414, Control_c, 0, 64, 0
3, 103414, End_track
4, 0, Start_track
4, 0, Title_t, "Grieg: Waechterlied in E-Dur, Op. 12 No. 3"
4, 0, End_track
5, 0, Start_track
5, 0, Title_t, "Copyright © 1997 by Bernd Krueger"
5, 0, End_track
6, 0, Start_track
6, 0, Title_t, "http://www.piano-midi.de"
6, 0, End_track
7, 0, Start_track
7, 0, Title_t, "Edition: 2012-10-28"
7, 0, End_track
0, 0, End_of_file
