0, 0, Header, 1, 8, 480
1, 0, Start_track
1, 0, Title_t, "Klaviersonate in G-Dur Hoboken XVI:40"
1, 0, Title_t, "2. Satz"
1, 0, Copyright_t, "Copyright © 1998 von Bernd Krüger. http://www.piano-midi.de"
1, 0, Text_t, "Joseph Haydn"
1, 0, Text_t, "Presto"
1, 0, Text_t, "Fertiggestellt am 1.2.98\012"
1, 0, Text_t, "Update am 5.10.99\012"
1, 0, Text_t, "Update am 21.6.2002\012"
1, 0, Text_t, "Normierung: 23.12.2002\012"
1, 0, Text_t, "Update am 29.11.2011\012"
1, 0, Text_t, "Dauer: 2:59 Minuten\012"
1, 0, Time_signature, 4, 2, 24, 8
1, 0, Key_signature, 1, "major"
1, 0, Tempo, 375000
1, 0, Marker_t, "Presto - Teil 1"
1, 1920, Tempo, 368098
1, 2640, Tempo, 357143
1, 3600, Tempo, 348837
1, 3840, Tempo, 358209
1, 4800, Tempo, 369231
1, 5040, Tempo, 361446
1, 5760, Tempo, 358209
1, 6240, Tempo, 366972
1, 6480, Tempo, 358209
1, 7680, Tempo, 375000
1, 8880, Tempo, 368098
1, 9600, Tempo, 368098
1, 10320, Tempo, 357143
1, 11280, Tempo, 348837
1, 11520, Tempo, 357143
1, 12360, Tempo, 348837
1, 12480, Tempo, 363636
1, 12960, Tempo, 358209
1, 17280, Tempo, 382166
1, 19200, Tempo, 375000
1, 19200, Marker_t, "Teil 1 Wiederholung"
1, 21120, Tempo, 368098
1, 21840, Tempo, 357143
1, 22800, Tempo, 348837
1, 23040, Tempo, 358209
1, 24000, Tempo, 369231
1, 24240, Tempo, 361446
1, 24960, Tempo, 358209
1, 25440, Tempo, 366972
1, 25680, Tempo, 358209
1, 26880, Tempo, 375000
1, 28080, Tempo, 368098
1, 28800, Tempo, 368098
1, 29520, Tempo, 357143
1, 30480, Tempo, 348837
1, 30720, Tempo, 357143
1, 31560, Tempo, 348837
1, 31680, Tempo, 363636
1, 32160, Tempo, 358209
1, 36480, Tempo, 382166
1, 38400, Tempo, 361446
1, 38400, Marker_t, "Teil 2"
1, 39120, Tempo, 405405
1, 39360, Tempo, 400000
1, 39600, Tempo, 379747
1, 40320, Tempo, 361446
1, 41040, Tempo, 405405
1, 41280, Tempo, 400000
1, 41520, Tempo, 385852
1, 42240, Tempo, 361446
1, 42960, Tempo, 405405
1, 43200, Tempo, 400000
1, 44160, Tempo, 361446
1, 44640, Tempo, 410959
1, 44880, Tempo, 422535
1, 46080, Tempo, 375000
1, 47280, Tempo, 368098
1, 48000, Tempo, 368098
1, 48720, Tempo, 360360
1, 49680, Tempo, 355030
1, 49920, Tempo, 366972
1, 50280, Tempo, 352941
1, 50400, Tempo, 365854
1, 50760, Tempo, 372671
1, 51840, Tempo, 364742
1, 52200, Tempo, 353982
1, 52320, Tempo, 362538
1, 54600, Tempo, 378549
1, 54720, Tempo, 378549
1, 55200, Tempo, 378549
1, 55680, Tempo, 378549
1, 56640, Tempo, 382166
1, 57600, Tempo, 363636
1, 57960, Tempo, 348837
1, 58080, Tempo, 363636
1, 58560, Tempo, 373832
1, 58800, Tempo, 380952
1, 59520, Tempo, 358209
1, 63360, Tempo, 382166
1, 65280, Tempo, 361446
1, 65280, Marker_t, "Teil 2 Wiederholung"
1, 66000, Tempo, 405405
1, 66240, Tempo, 400000
1, 66480, Tempo, 379747
1, 67200, Tempo, 361446
1, 67920, Tempo, 405405
1, 68160, Tempo, 400000
1, 68400, Tempo, 385852
1, 69120, Tempo, 361446
1, 69840, Tempo, 405405
1, 70080, Tempo, 400000
1, 71040, Tempo, 361446
1, 71520, Tempo, 410959
1, 71760, Tempo, 422535
1, 72960, Tempo, 375000
1, 74160, Tempo, 368098
1, 74880, Tempo, 368098
1, 75600, Tempo, 360360
1, 76560, Tempo, 355030
1, 76800, Tempo, 366972
1, 77160, Tempo, 352941
1, 77280, Tempo, 365854
1, 77640, Tempo, 372671
1, 78720, Tempo, 364742
1, 79080, Tempo, 353982
1, 79200, Tempo, 362538
1, 81480, Tempo, 378549
1, 81600, Tempo, 378549
1, 82080, Tempo, 378549
1, 82560, Tempo, 378549
1, 83520, Tempo, 382166
1, 84480, Tempo, 363636
1, 84840, Tempo, 348837
1, 84960, Tempo, 363636
1, 85440, Tempo, 373832
1, 85680, Tempo, 380952
1, 86400, Tempo, 358209
1, 90240, Tempo, 382166
1, 92160, Tempo, 410959
1, 92160, Marker_t, "Teil 3"
1, 92400, Tempo, 419580
1, 92640, Tempo, 401338
1, 92880, Tempo, 387097
1, 93120, Tempo, 397351
1, 93360, Tempo, 404040
1, 93600, Tempo, 398671
1, 93840, Tempo, 383387
1, 94080, Tempo, 397351
1, 94320, Tempo, 409556
1, 94560, Tempo, 405405
1, 94800, Tempo, 389610
1, 95040, Tempo, 401338
1, 95280, Tempo, 408163
1, 95520, Tempo, 401338
1, 95760, Tempo, 392157
1, 96000, Tempo, 401338
1, 96240, Tempo, 388350
1, 96480, Tempo, 401338
1, 97200, Tempo, 405405
1, 98400, Tempo, 400000
1, 99120, Tempo, 393443
1, 99840, Tempo, 410959
1, 100080, Tempo, 416667
1, 100320, Tempo, 401338
1, 100560, Tempo, 390879
1, 100800, Tempo, 401338
1, 101040, Tempo, 410959
1, 101280, Tempo, 401338
1, 101520, Tempo, 388350
1, 101760, Tempo, 401338
1, 102000, Tempo, 408163
1, 102240, Tempo, 405405
1, 102480, Tempo, 389610
1, 102720, Tempo, 401338
1, 102960, Tempo, 408163
1, 103200, Tempo, 401338
1, 103440, Tempo, 392157
1, 103680, Tempo, 401338
1, 103920, Tempo, 408163
1, 104160, Tempo, 398671
1, 104880, Tempo, 406780
1, 105360, Tempo, 397351
1, 106800, Tempo, 393443
1, 107760, Tempo, 419580
1, 108000, Tempo, 401338
1, 108240, Tempo, 390879
1, 108480, Tempo, 401338
1, 108720, Tempo, 384615
1, 108960, Tempo, 406780
1, 109680, Tempo, 405405
1, 109800, Tempo, 406780
1, 109920, Tempo, 408163
1, 110040, Tempo, 409556
1, 110160, Tempo, 410959
1, 110280, Tempo, 412371
1, 110400, Tempo, 413793
1, 110520, Tempo, 415225
1, 110640, Tempo, 416667
1, 110760, Tempo, 418118
1, 110860, Tempo, 419580
1, 110880, Tempo, 430108
1, 111120, Tempo, 421053
1, 111360, Tempo, 402685
1, 112080, Tempo, 388350
1, 112320, Tempo, 401338
1, 113020, Tempo, 404040
1, 113200, Tempo, 405405
1, 113380, Tempo, 406780
1, 113560, Tempo, 408163
1, 113740, Tempo, 409556
1, 113920, Tempo, 410959
1, 114000, Tempo, 421053
1, 114480, Tempo, 447761
1, 114720, Tempo, 389610
1, 115200, Tempo, 401338
1, 115440, Tempo, 393443
1, 115680, Tempo, 402685
1, 115920, Tempo, 418118
1, 116160, Tempo, 401338
1, 116400, Tempo, 393443
1, 116640, Tempo, 401338
1, 116880, Tempo, 409556
1, 117120, Tempo, 404040
1, 117360, Tempo, 393443
1, 117600, Tempo, 402685
1, 117840, Tempo, 408163
1, 118080, Tempo, 401338
1, 118320, Tempo, 384615
1, 118560, Tempo, 401338
1, 118800, Tempo, 408163
1, 119040, Tempo, 396040
1, 119280, Tempo, 384615
1, 119520, Tempo, 396040
1, 119760, Tempo, 404040
1, 120000, Tempo, 396040
1, 120240, Tempo, 383387
1, 120480, Tempo, 396040
1, 120720, Tempo, 404040
1, 120960, Tempo, 394737
1, 121200, Tempo, 384615
1, 121440, Tempo, 394737
1, 121680, Tempo, 380952
1, 121920, Tempo, 393443
1, 122160, Tempo, 380952
1, 122400, Tempo, 392157
1, 122640, Tempo, 379747
1, 122880, Tempo, 401338
1, 123600, Tempo, 377358
1, 123840, Tempo, 383387
1, 124080, Tempo, 375000
1, 124320, Tempo, 382166
1, 124560, Tempo, 377358
1, 124800, Tempo, 385852
1, 125280, Tempo, 377358
1, 126000, Tempo, 408163
1, 126240, Tempo, 398671
1, 126480, Tempo, 390879
1, 126720, Tempo, 397351
1, 126960, Tempo, 389610
1, 126980, Tempo, 387097
1, 127160, Tempo, 388350
1, 127320, Tempo, 389610
1, 127500, Tempo, 390879
1, 127660, Tempo, 392157
1, 127840, Tempo, 393443
1, 128000, Tempo, 394737
1, 128160, Tempo, 396040
1, 128400, Tempo, 377358
1, 128640, Tempo, 387097
1, 128880, Tempo, 375000
1, 129120, Tempo, 380952
1, 129360, Tempo, 396040
1, 129600, Tempo, 402685
1, 129840, Tempo, 394737
1, 130080, Tempo, 402685
1, 130320, Tempo, 394737
1, 130540, Tempo, 377358
1, 130560, Tempo, 402685
1, 130800, Tempo, 396040
1, 131040, Tempo, 400000
1, 131280, Tempo, 392157
1, 131520, Tempo, 385852
1, 131760, Tempo, 392157
1, 132000, Tempo, 384615
1, 132240, Tempo, 392157
1, 132480, Tempo, 383387
1, 132720, Tempo, 388350
1, 132960, Tempo, 384615
1, 133200, Tempo, 394737
1, 133440, Tempo, 382166
1, 133680, Tempo, 390879
1, 133920, Tempo, 384615
1, 134160, Tempo, 390879
1, 134400, Tempo, 384615
1, 134640, Tempo, 390879
1, 134880, Tempo, 383387
1, 135120, Tempo, 393443
1, 135360, Tempo, 380952
1, 135600, Tempo, 385852
1, 135840, Tempo, 378549
1, 136080, Tempo, 398671
1, 136320, Tempo, 387097
1, 136560, Tempo, 392157
1, 136800, Tempo, 387097
1, 137040, Tempo, 397351
1, 137280, Tempo, 382166
1, 137520, Tempo, 396040
1, 137760, Tempo, 409556
1, 138000, Tempo, 382166
1, 138240, Tempo, 375000
1, 140160, Tempo, 368098
1, 140880, Tempo, 357143
1, 141840, Tempo, 348837
1, 142080, Tempo, 358209
1, 143040, Tempo, 369231
1, 143280, Tempo, 361446
1, 144000, Tempo, 358209
1, 144480, Tempo, 366972
1, 144720, Tempo, 358209
1, 145920, Tempo, 375000
1, 147120, Tempo, 368098
1, 147720, Tempo, 382166
1, 147840, Tempo, 368098
1, 148320, Tempo, 382166
1, 148560, Tempo, 355030
1, 148720, Tempo, 353982
1, 148880, Tempo, 352941
1, 149040, Tempo, 351906
1, 149200, Tempo, 350877
1, 149360, Tempo, 349854
1, 149520, Tempo, 348837
1, 149740, Tempo, 365854
1, 149760, Tempo, 364742
1, 150240, Tempo, 357143
1, 150720, Tempo, 363636
1, 151200, Tempo, 358209
1, 151440, Tempo, 370370
1, 151680, Tempo, 358209
1, 152400, Tempo, 363636
1, 152640, Tempo, 358209
1, 153120, Tempo, 358209
1, 153240, Tempo, 359281
1, 153360, Tempo, 360360
1, 153480, Tempo, 361446
1, 153580, Tempo, 362538
1, 153600, Tempo, 358209
1, 155520, Tempo, 357143
1, 155580, Tempo, 358209
1, 155620, Tempo, 359281
1, 155660, Tempo, 360360
1, 155700, Tempo, 361446
1, 155760, Tempo, 362538
1, 155800, Tempo, 363636
1, 155840, Tempo, 364742
1, 155880, Tempo, 365854
1, 155940, Tempo, 366972
1, 155980, Tempo, 368098
1, 156020, Tempo, 369231
1, 156060, Tempo, 370370
1, 156120, Tempo, 371517
1, 156160, Tempo, 372671
1, 156200, Tempo, 373832
1, 156240, Tempo, 375000
1, 156300, Tempo, 376176
1, 156360, Tempo, 394737
1, 156460, Tempo, 380952
1, 157440, Tempo, 375000
1, 158640, Tempo, 368098
1, 159240, Tempo, 387097
1, 159360, Tempo, 368098
1, 159840, Tempo, 382166
1, 160080, Tempo, 377358
1, 161040, Tempo, 369231
1, 161280, Tempo, 353982
1, 162240, Tempo, 364742
1, 162360, Tempo, 353982
1, 162700, Tempo, 362538
1, 162840, Tempo, 353982
1, 163920, Tempo, 368098
1, 164160, Tempo, 363636
1, 164360, Tempo, 364742
1, 164540, Tempo, 365854
1, 164740, Tempo, 366972
1, 164920, Tempo, 368098
1, 165100, Tempo, 369231
1, 165120, Tempo, 375000
1, 166320, Tempo, 368098
1, 166920, Tempo, 384615
1, 167040, Tempo, 368098
1, 167520, Tempo, 380952
1, 167760, Tempo, 355030
1, 167920, Tempo, 353982
1, 168080, Tempo, 352941
1, 168240, Tempo, 351906
1, 168400, Tempo, 350877
1, 168560, Tempo, 349854
1, 168720, Tempo, 348837
1, 168940, Tempo, 365854
1, 168960, Tempo, 364742
1, 169440, Tempo, 357143
1, 169920, Tempo, 363636
1, 170400, Tempo, 358209
1, 170640, Tempo, 370370
1, 170880, Tempo, 358209
1, 171600, Tempo, 363636
1, 171840, Tempo, 358209
1, 172320, Tempo, 358209
1, 172440, Tempo, 359281
1, 172560, Tempo, 360360
1, 172680, Tempo, 361446
1, 172780, Tempo, 362538
1, 172800, Tempo, 358209
1, 174720, Tempo, 358209
1, 174760, Tempo, 359281
1, 174780, Tempo, 360360
1, 174820, Tempo, 361446
1, 174840, Tempo, 362538
1, 174880, Tempo, 363636
1, 174900, Tempo, 364742
1, 174940, Tempo, 365854
1, 174960, Tempo, 366972
1, 175000, Tempo, 368098
1, 175020, Tempo, 369231
1, 175060, Tempo, 370370
1, 175080, Tempo, 371517
1, 175120, Tempo, 372671
1, 175140, Tempo, 373832
1, 175180, Tempo, 375000
1, 175200, Tempo, 376176
1, 175240, Tempo, 377358
1, 175260, Tempo, 378549
1, 175300, Tempo, 379747
1, 175320, Tempo, 380952
1, 175360, Tempo, 382166
1, 175380, Tempo, 383387
1, 175420, Tempo, 384615
1, 175440, Tempo, 385852
1, 175480, Tempo, 387097
1, 175500, Tempo, 388350
1, 175520, Tempo, 389610
1, 175560, Tempo, 408163
1, 175660, Tempo, 380952
1, 176640, Tempo, 364742
1, 176640, Marker_t, "Teil 4"
1, 177360, Tempo, 410959
1, 177600, Tempo, 400000
1, 177840, Tempo, 379747
1, 178560, Tempo, 364742
1, 179280, Tempo, 425532
1, 179520, Tempo, 400000
1, 179760, Tempo, 385852
1, 180480, Tempo, 361446
1, 181200, Tempo, 412371
1, 181440, Tempo, 400000
1, 182400, Tempo, 361446
1, 182880, Tempo, 410959
1, 183120, Tempo, 422535
1, 184320, Tempo, 375000
1, 185520, Tempo, 368098
1, 186120, Tempo, 382166
1, 186240, Tempo, 368098
1, 186720, Tempo, 384615
1, 186960, Tempo, 365854
1, 187240, Tempo, 366972
1, 187500, Tempo, 368098
1, 187760, Tempo, 369231
1, 188020, Tempo, 370370
1, 188040, Tempo, 373832
1, 188160, Tempo, 365854
1, 188640, Tempo, 380952
1, 188880, Tempo, 364742
1, 189160, Tempo, 365854
1, 189420, Tempo, 366972
1, 189680, Tempo, 368098
1, 189940, Tempo, 369231
1, 189960, Tempo, 373832
1, 190080, Tempo, 365854
1, 191040, Tempo, 274600
1, 192720, Tempo, 360360
1, 194400, Tempo, 365854
1, 195600, Tempo, 387097
1, 195840, Tempo, 369231
1, 196200, Tempo, 376176
1, 196320, Tempo, 369231
1, 196680, Tempo, 376176
1, 196800, Tempo, 370370
1, 197160, Tempo, 379747
1, 197280, Tempo, 370370
1, 197640, Tempo, 377358
1, 197760, Tempo, 372671
1, 197980, Tempo, 371517
1, 198180, Tempo, 370370
1, 198380, Tempo, 369231
1, 198580, Tempo, 368098
1, 198600, Tempo, 383387
1, 198720, Tempo, 372671
1, 199540, Tempo, 366972
1, 199560, Tempo, 378549
1, 199680, Tempo, 372671
1, 199900, Tempo, 371517
1, 200100, Tempo, 370370
1, 200300, Tempo, 369231
1, 200500, Tempo, 368098
1, 200520, Tempo, 383387
1, 200640, Tempo, 372671
1, 201460, Tempo, 366972
1, 201480, Tempo, 378549
1, 203520, Tempo, 364742
1, 203520, Marker_t, "Teil 4 Wiederholung"
1, 204240, Tempo, 410959
1, 204480, Tempo, 400000
1, 204720, Tempo, 379747
1, 205440, Tempo, 364742
1, 206160, Tempo, 425532
1, 206400, Tempo, 400000
1, 206640, Tempo, 385852
1, 207360, Tempo, 361446
1, 208080, Tempo, 412371
1, 208320, Tempo, 400000
1, 209280, Tempo, 361446
1, 209760, Tempo, 410959
1, 210000, Tempo, 422535
1, 211200, Tempo, 375000
1, 212400, Tempo, 368098
1, 213000, Tempo, 382166
1, 213120, Tempo, 368098
1, 213600, Tempo, 384615
1, 213840, Tempo, 365854
1, 214120, Tempo, 366972
1, 214380, Tempo, 368098
1, 214640, Tempo, 369231
1, 214900, Tempo, 370370
1, 214920, Tempo, 373832
1, 215040, Tempo, 365854
1, 215520, Tempo, 380952
1, 215760, Tempo, 364742
1, 216040, Tempo, 365854
1, 216300, Tempo, 366972
1, 216560, Tempo, 368098
1, 216820, Tempo, 369231
1, 216840, Tempo, 373832
1, 216960, Tempo, 365854
1, 217920, Tempo, 274600
1, 219600, Tempo, 360360
1, 221280, Tempo, 365854
1, 222480, Tempo, 387097
1, 222720, Tempo, 369231
1, 223080, Tempo, 376176
1, 223200, Tempo, 369231
1, 223560, Tempo, 376176
1, 223680, Tempo, 370370
1, 224040, Tempo, 379747
1, 224160, Tempo, 370370
1, 224520, Tempo, 377358
1, 224640, Tempo, 372671
1, 224860, Tempo, 371517
1, 225060, Tempo, 370370
1, 225260, Tempo, 369231
1, 225460, Tempo, 368098
1, 225480, Tempo, 383387
1, 225600, Tempo, 372671
1, 226420, Tempo, 366972
1, 226440, Tempo, 378549
1, 226560, Tempo, 372671
1, 226780, Tempo, 371517
1, 226980, Tempo, 370370
1, 227180, Tempo, 369231
1, 227380, Tempo, 368098
1, 227400, Tempo, 383387
1, 227520, Tempo, 372671
1, 228340, Tempo, 366972
1, 228360, Tempo, 378549
1, 228461, Tempo, 380952
1, 228576, Tempo, 382166
1, 228691, Tempo, 383387
1, 228806, Tempo, 384615
1, 228922, Tempo, 385852
1, 228979, Tempo, 383387
1, 229018, Tempo, 384615
1, 229037, Tempo, 385852
1, 229056, Tempo, 387097
1, 229094, Tempo, 388350
1, 229114, Tempo, 389610
1, 229133, Tempo, 390879
1, 229171, Tempo, 392157
1, 229190, Tempo, 393443
1, 229210, Tempo, 394737
1, 229229, Tempo, 392157
1, 229248, Tempo, 394737
1, 229267, Tempo, 397351
1, 229286, Tempo, 400000
1, 229306, Tempo, 404040
1, 229325, Tempo, 406780
1, 229344, Tempo, 409556
1, 229363, Tempo, 412371
1, 229382, Tempo, 416667
1, 229402, Tempo, 419580
1, 229421, Tempo, 422535
1, 229440, Tempo, 425532
1, 229459, Tempo, 430108
1, 229680, Marker_t, "Fine"
1, 229680, End_track
2, 0, Start_track
2, 0, Title_t, "Piano right"
2, 0, Program_c, 0, 0
2, 0, Control_c, 0, 7, 100
2, 0, Control_c, 0, 10, 64
2, 0, Text_t, "bdca426d104a26ac9dcb070447587523"
2, 1, Note_on_c, 0, 67, 60
2, 360, Note_on_c, 0, 71, 48
2, 361, Note_on_c, 0, 67, 0
2, 420, Note_on_c, 0, 71, 0
2, 420, Note_on_c, 0, 69, 48
2, 480, Note_on_c, 0, 69, 0
2, 480, Note_on_c, 0, 67, 56
2, 720, Note_on_c, 0, 67, 0
2, 1200, Note_on_c, 0, 62, 53
2, 1440, Note_on_c, 0, 62, 0
2, 1440, Note_on_c, 0, 67, 53
2, 1680, Note_on_c, 0, 67, 0
2, 1680, Note_on_c, 0, 71, 53
2, 1920, Note_on_c, 0, 71, 0
2, 1920, Note_on_c, 0, 71, 57
2, 2040, Note_on_c, 0, 71, 0
2, 2040, Note_on_c, 0, 69, 54
2, 2160, Note_on_c, 0, 69, 0
2, 2160, Note_on_c, 0, 67, 54
2, 2280, Note_on_c, 0, 67, 0
2, 2280, Note_on_c, 0, 69, 54
2, 2400, Note_on_c, 0, 69, 0
2, 2400, Note_on_c, 0, 67, 57
2, 2640, Note_on_c, 0, 67, 0
2, 2640, Note_on_c, 0, 74, 54
2, 2880, Note_on_c, 0, 74, 0
2, 2880, Note_on_c, 0, 74, 54
2, 3000, Note_on_c, 0, 74, 0
2, 3120, Note_on_c, 0, 74, 54
2, 3240, Note_on_c, 0, 74, 0
2, 3360, Note_on_c, 0, 74, 54
2, 3480, Note_on_c, 0, 74, 0
2, 3600, Note_on_c, 0, 74, 54
2, 3720, Note_on_c, 0, 74, 0
2, 3840, Note_on_c, 0, 74, 57
2, 4200, Note_on_c, 0, 74, 0
2, 4200, Note_on_c, 0, 76, 47
2, 4260, Note_on_c, 0, 76, 0
2, 4260, Note_on_c, 0, 74, 47
2, 4320, Note_on_c, 0, 74, 0
2, 4320, Note_on_c, 0, 72, 52
2, 4560, Note_on_c, 0, 72, 0
2, 4560, Note_on_c, 0, 71, 50
2, 4800, Note_on_c, 0, 71, 0
2, 4800, Note_on_c, 0, 69, 52
2, 5040, Note_on_c, 0, 69, 0
2, 5040, Note_on_c, 0, 81, 68
2, 5520, Note_on_c, 0, 81, 0
2, 5520, Note_on_c, 0, 79, 65
2, 5760, Note_on_c, 0, 79, 0
2, 5760, Note_on_c, 0, 79, 63
2, 5880, Note_on_c, 0, 79, 0
2, 5880, Note_on_c, 0, 78, 54
2, 6000, Note_on_c, 0, 78, 0
2, 6000, Note_on_c, 0, 76, 54
2, 6120, Note_on_c, 0, 76, 0
2, 6120, Note_on_c, 0, 74, 54
2, 6240, Note_on_c, 0, 74, 0
2, 6240, Note_on_c, 0, 74, 54
2, 6480, Note_on_c, 0, 74, 0
2, 6480, Note_on_c, 0, 74, 56
2, 6720, Note_on_c, 0, 74, 0
2, 6720, Note_on_c, 0, 74, 54
2, 6840, Note_on_c, 0, 74, 0
2, 6840, Note_on_c, 0, 76, 52
2, 6960, Note_on_c, 0, 76, 0
2, 6960, Note_on_c, 0, 72, 54
2, 7080, Note_on_c, 0, 72, 0
2, 7080, Note_on_c, 0, 74, 52
2, 7200, Note_on_c, 0, 74, 0
2, 7200, Note_on_c, 0, 71, 54
2, 7320, Note_on_c, 0, 71, 0
2, 7320, Note_on_c, 0, 72, 51
2, 7440, Note_on_c, 0, 72, 0
2, 7440, Note_on_c, 0, 69, 54
2, 7560, Note_on_c, 0, 69, 0
2, 7560, Note_on_c, 0, 71, 52
2, 7680, Note_on_c, 0, 71, 0
2, 7680, Control_c, 0, 91, 127
2, 7681, Note_on_c, 0, 67, 60
2, 8040, Note_on_c, 0, 71, 46
2, 8041, Note_on_c, 0, 67, 0
2, 8100, Note_on_c, 0, 71, 0
2, 8100, Note_on_c, 0, 69, 47
2, 8160, Note_on_c, 0, 69, 0
2, 8160, Note_on_c, 0, 67, 56
2, 8400, Note_on_c, 0, 67, 0
2, 8880, Note_on_c, 0, 62, 53
2, 9120, Note_on_c, 0, 62, 0
2, 9120, Note_on_c, 0, 67, 53
2, 9360, Note_on_c, 0, 67, 0
2, 9360, Note_on_c, 0, 71, 53
2, 9600, Note_on_c, 0, 71, 0
2, 9600, Note_on_c, 0, 71, 57
2, 9720, Note_on_c, 0, 71, 0
2, 9720, Note_on_c, 0, 69, 54
2, 9840, Note_on_c, 0, 69, 0
2, 9840, Note_on_c, 0, 67, 54
2, 9960, Note_on_c, 0, 67, 0
2, 9960, Note_on_c, 0, 69, 54
2, 10080, Note_on_c, 0, 69, 0
2, 10080, Note_on_c, 0, 67, 57
2, 10320, Note_on_c, 0, 67, 0
2, 10320, Note_on_c, 0, 76, 54
2, 10560, Note_on_c, 0, 76, 0
2, 10560, Note_on_c, 0, 76, 54
2, 10680, Note_on_c, 0, 76, 0
2, 10800, Note_on_c, 0, 76, 54
2, 10920, Note_on_c, 0, 76, 0
2, 11040, Note_on_c, 0, 76, 54
2, 11160, Note_on_c, 0, 76, 0
2, 11280, Note_on_c, 0, 76, 54
2, 11400, Note_on_c, 0, 76, 0
2, 11520, Note_on_c, 0, 76, 57
2, 11880, Note_on_c, 0, 76, 0
2, 11880, Note_on_c, 0, 79, 50
2, 11940, Note_on_c, 0, 79, 0
2, 11940, Note_on_c, 0, 81, 52
2, 12000, Note_on_c, 0, 81, 0
2, 12000, Note_on_c, 0, 83, 60
2, 12360, Note_on_c, 0, 83, 0
2, 12360, Note_on_c, 0, 79, 49
2, 12420, Note_on_c, 0, 79, 0
2, 12420, Note_on_c, 0, 76, 49
2, 12480, Note_on_c, 0, 76, 0
2, 12480, Note_on_c, 0, 74, 60
2, 12960, Note_on_c, 0, 74, 0
2, 12960, Note_on_c, 0, 73, 52
2, 13040, Note_on_c, 0, 73, 0
2, 13040, Note_on_c, 0, 74, 43
2, 13120, Note_on_c, 0, 74, 0
2, 13120, Note_on_c, 0, 73, 48
2, 13200, Note_on_c, 0, 73, 0
2, 13200, Note_on_c, 0, 74, 43
2, 13260, Note_on_c, 0, 74, 0
2, 13260, Note_on_c, 0, 73, 48
2, 13320, Note_on_c, 0, 73, 0
2, 13320, Note_on_c, 0, 74, 42
2, 13380, Note_on_c, 0, 74, 0
2, 13380, Note_on_c, 0, 73, 47
2, 13440, Note_on_c, 0, 73, 0
2, 13440, Note_on_c, 0, 74, 52
2, 13560, Note_on_c, 0, 74, 0
2, 13560, Note_on_c, 0, 76, 49
2, 13680, Note_on_c, 0, 76, 0
2, 13680, Note_on_c, 0, 78, 50
2, 13800, Note_on_c, 0, 78, 0
2, 13800, Note_on_c, 0, 79, 51
2, 13920, Note_on_c, 0, 79, 0
2, 13920, Note_on_c, 0, 81, 51
2, 14040, Note_on_c, 0, 81, 0
2, 14040, Note_on_c, 0, 78, 51
2, 14160, Note_on_c, 0, 78, 0
2, 14160, Note_on_c, 0, 76, 50
2, 14280, Note_on_c, 0, 76, 0
2, 14280, Note_on_c, 0, 74, 50
2, 14400, Note_on_c, 0, 74, 0
2, 14400, Note_on_c, 0, 73, 53
2, 14520, Note_on_c, 0, 73, 0
2, 14520, Note_on_c, 0, 74, 48
2, 14640, Note_on_c, 0, 74, 0
2, 14640, Note_on_c, 0, 76, 49
2, 14760, Note_on_c, 0, 76, 0
2, 14760, Note_on_c, 0, 78, 49
2, 14880, Note_on_c, 0, 78, 0
2, 14880, Note_on_c, 0, 79, 49
2, 15000, Note_on_c, 0, 79, 0
2, 15000, Note_on_c, 0, 76, 49
2, 15120, Note_on_c, 0, 76, 0
2, 15120, Note_on_c, 0, 74, 48
2, 15240, Note_on_c, 0, 74, 0
2, 15240, Note_on_c, 0, 73, 48
2, 15360, Note_on_c, 0, 73, 0
2, 15360, Note_on_c, 0, 74, 52
2, 15480, Note_on_c, 0, 74, 0
2, 15480, Note_on_c, 0, 76, 47
2, 15600, Note_on_c, 0, 76, 0
2, 15600, Note_on_c, 0, 78, 48
2, 15720, Note_on_c, 0, 78, 0
2, 15720, Note_on_c, 0, 79, 49
2, 15840, Note_on_c, 0, 79, 0
2, 15840, Note_on_c, 0, 81, 50
2, 15960, Note_on_c, 0, 81, 0
2, 15960, Note_on_c, 0, 78, 49
2, 16080, Note_on_c, 0, 78, 0
2, 16080, Note_on_c, 0, 76, 48
2, 16200, Note_on_c, 0, 76, 0
2, 16200, Note_on_c, 0, 74, 47
2, 16320, Note_on_c, 0, 74, 0
2, 16320, Note_on_c, 0, 73, 53
2, 16440, Note_on_c, 0, 73, 0
2, 16440, Note_on_c, 0, 74, 47
2, 16560, Note_on_c, 0, 74, 0
2, 16560, Note_on_c, 0, 76, 47
2, 16680, Note_on_c, 0, 76, 0
2, 16680, Note_on_c, 0, 78, 48
2, 16800, Note_on_c, 0, 78, 0
2, 16800, Note_on_c, 0, 79, 49
2, 16920, Note_on_c, 0, 79, 0
2, 16920, Note_on_c, 0, 76, 49
2, 17040, Note_on_c, 0, 76, 0
2, 17040, Note_on_c, 0, 74, 48
2, 17160, Note_on_c, 0, 74, 0
2, 17160, Note_on_c, 0, 73, 48
2, 17280, Note_on_c, 0, 73, 0
2, 17280, Note_on_c, 0, 74, 58
2, 17700, Note_on_c, 0, 74, 0
2, 17700, Note_on_c, 0, 85, 77
2, 17760, Note_on_c, 0, 85, 0
2, 17760, Note_on_c, 0, 86, 87
2, 18240, Note_on_c, 0, 86, 0
2, 19200, Control_c, 0, 91, 127
2, 19201, Note_on_c, 0, 67, 60
2, 19560, Note_on_c, 0, 71, 48
2, 19561, Note_on_c, 0, 67, 0
2, 19620, Note_on_c, 0, 71, 0
2, 19620, Note_on_c, 0, 69, 48
2, 19680, Note_on_c, 0, 69, 0
2, 19680, Note_on_c, 0, 67, 56
2, 19920, Note_on_c, 0, 67, 0
2, 20400, Note_on_c, 0, 62, 53
2, 20640, Note_on_c, 0, 62, 0
2, 20640, Note_on_c, 0, 67, 53
2, 20880, Note_on_c, 0, 67, 0
2, 20880, Note_on_c, 0, 71, 53
2, 21120, Note_on_c, 0, 71, 0
2, 21120, Note_on_c, 0, 71, 57
2, 21240, Note_on_c, 0, 71, 0
2, 21240, Note_on_c, 0, 69, 54
2, 21360, Note_on_c, 0, 69, 0
2, 21360, Note_on_c, 0, 67, 54
2, 21480, Note_on_c, 0, 67, 0
2, 21480, Note_on_c, 0, 69, 54
2, 21600, Note_on_c, 0, 69, 0
2, 21600, Note_on_c, 0, 67, 57
2, 21840, Note_on_c, 0, 67, 0
2, 21840, Note_on_c, 0, 74, 54
2, 22080, Note_on_c, 0, 74, 0
2, 22080, Note_on_c, 0, 74, 54
2, 22200, Note_on_c, 0, 74, 0
2, 22320, Note_on_c, 0, 74, 54
2, 22440, Note_on_c, 0, 74, 0
2, 22560, Note_on_c, 0, 74, 54
2, 22680, Note_on_c, 0, 74, 0
2, 22800, Note_on_c, 0, 74, 54
2, 22920, Note_on_c, 0, 74, 0
2, 23040, Note_on_c, 0, 74, 57
2, 23400, Note_on_c, 0, 74, 0
2, 23400, Note_on_c, 0, 76, 47
2, 23460, Note_on_c, 0, 76, 0
2, 23460, Note_on_c, 0, 74, 47
2, 23520, Note_on_c, 0, 74, 0
2, 23520, Note_on_c, 0, 72, 52
2, 23760, Note_on_c, 0, 72, 0
2, 23760, Note_on_c, 0, 71, 50
2, 24000, Note_on_c, 0, 71, 0
2, 24000, Note_on_c, 0, 69, 52
2, 24240, Note_on_c, 0, 69, 0
2, 24240, Note_on_c, 0, 81, 68
2, 24720, Note_on_c, 0, 81, 0
2, 24720, Note_on_c, 0, 79, 65
2, 24960, Note_on_c, 0, 79, 0
2, 24960, Note_on_c, 0, 79, 63
2, 25080, Note_on_c, 0, 79, 0
2, 25080, Note_on_c, 0, 78, 54
2, 25200, Note_on_c, 0, 78, 0
2, 25200, Note_on_c, 0, 76, 54
2, 25320, Note_on_c, 0, 76, 0
2, 25320, Note_on_c, 0, 74, 54
2, 25440, Note_on_c, 0, 74, 0
2, 25440, Note_on_c, 0, 74, 54
2, 25680, Note_on_c, 0, 74, 0
2, 25680, Note_on_c, 0, 74, 56
2, 25920, Note_on_c, 0, 74, 0
2, 25920, Note_on_c, 0, 74, 54
2, 26040, Note_on_c, 0, 74, 0
2, 26040, Note_on_c, 0, 76, 52
2, 26160, Note_on_c, 0, 76, 0
2, 26160, Note_on_c, 0, 72, 54
2, 26280, Note_on_c, 0, 72, 0
2, 26280, Note_on_c, 0, 74, 52
2, 26400, Note_on_c, 0, 74, 0
2, 26400, Note_on_c, 0, 71, 54
2, 26520, Note_on_c, 0, 71, 0
2, 26520, Note_on_c, 0, 72, 51
2, 26640, Note_on_c, 0, 72, 0
2, 26640, Note_on_c, 0, 69, 54
2, 26760, Note_on_c, 0, 69, 0
2, 26760, Note_on_c, 0, 71, 52
2, 26880, Note_on_c, 0, 71, 0
2, 26880, Control_c, 0, 91, 127
2, 26881, Note_on_c, 0, 67, 60
2, 27240, Note_on_c, 0, 71, 46
2, 27241, Note_on_c, 0, 67, 0
2, 27300, Note_on_c, 0, 71, 0
2, 27300, Note_on_c, 0, 69, 47
2, 27360, Note_on_c, 0, 69, 0
2, 27360, Note_on_c, 0, 67, 56
2, 27600, Note_on_c, 0, 67, 0
2, 28080, Note_on_c, 0, 62, 53
2, 28320, Note_on_c, 0, 62, 0
2, 28320, Note_on_c, 0, 67, 53
2, 28560, Note_on_c, 0, 67, 0
2, 28560, Note_on_c, 0, 71, 53
2, 28800, Note_on_c, 0, 71, 0
2, 28800, Note_on_c, 0, 71, 57
2, 28920, Note_on_c, 0, 71, 0
2, 28920, Note_on_c, 0, 69, 54
2, 29040, Note_on_c, 0, 69, 0
2, 29040, Note_on_c, 0, 67, 54
2, 29160, Note_on_c, 0, 67, 0
2, 29160, Note_on_c, 0, 69, 54
2, 29280, Note_on_c, 0, 69, 0
2, 29280, Note_on_c, 0, 67, 57
2, 29520, Note_on_c, 0, 67, 0
2, 29520, Note_on_c, 0, 76, 54
2, 29760, Note_on_c, 0, 76, 0
2, 29760, Note_on_c, 0, 76, 54
2, 29880, Note_on_c, 0, 76, 0
2, 30000, Note_on_c, 0, 76, 54
2, 30120, Note_on_c, 0, 76, 0
2, 30240, Note_on_c, 0, 76, 54
2, 30360, Note_on_c, 0, 76, 0
2, 30480, Note_on_c, 0, 76, 54
2, 30600, Note_on_c, 0, 76, 0
2, 30720, Note_on_c, 0, 76, 57
2, 31080, Note_on_c, 0, 76, 0
2, 31080, Note_on_c, 0, 79, 50
2, 31140, Note_on_c, 0, 79, 0
2, 31140, Note_on_c, 0, 81, 52
2, 31200, Note_on_c, 0, 81, 0
2, 31200, Note_on_c, 0, 83, 60
2, 31560, Note_on_c, 0, 83, 0
2, 31560, Note_on_c, 0, 79, 49
2, 31620, Note_on_c, 0, 79, 0
2, 31620, Note_on_c, 0, 76, 49
2, 31680, Note_on_c, 0, 76, 0
2, 31680, Note_on_c, 0, 74, 60
2, 32160, Note_on_c, 0, 74, 0
2, 32160, Note_on_c, 0, 73, 52
2, 32240, Note_on_c, 0, 73, 0
2, 32240, Note_on_c, 0, 74, 43
2, 32320, Note_on_c, 0, 74, 0
2, 32320, Note_on_c, 0, 73, 48
2, 32400, Note_on_c, 0, 73, 0
2, 32400, Note_on_c, 0, 74, 43
2, 32460, Note_on_c, 0, 74, 0
2, 32460, Note_on_c, 0, 73, 48
2, 32520, Note_on_c, 0, 73, 0
2, 32520, Note_on_c, 0, 74, 42
2, 32580, Note_on_c, 0, 74, 0
2, 32580, Note_on_c, 0, 73, 47
2, 32640, Note_on_c, 0, 73, 0
2, 32640, Note_on_c, 0, 74, 54
2, 32760, Note_on_c, 0, 74, 0
2, 32760, Note_on_c, 0, 76, 49
2, 32880, Note_on_c, 0, 76, 0
2, 32880, Note_on_c, 0, 78, 50
2, 33000, Note_on_c, 0, 78, 0
2, 33000, Note_on_c, 0, 79, 51
2, 33120, Note_on_c, 0, 79, 0
2, 33120, Note_on_c, 0, 81, 51
2, 33240, Note_on_c, 0, 81, 0
2, 33240, Note_on_c, 0, 78, 51
2, 33360, Note_on_c, 0, 78, 0
2, 33360, Note_on_c, 0, 76, 50
2, 33480, Note_on_c, 0, 76, 0
2, 33480, Note_on_c, 0, 74, 50
2, 33600, Note_on_c, 0, 74, 0
2, 33600, Note_on_c, 0, 73, 53
2, 33720, Note_on_c, 0, 73, 0
2, 33720, Note_on_c, 0, 74, 48
2, 33840, Note_on_c, 0, 74, 0
2, 33840, Note_on_c, 0, 76, 49
2, 33960, Note_on_c, 0, 76, 0
2, 33960, Note_on_c, 0, 78, 49
2, 34080, Note_on_c, 0, 78, 0
2, 34080, Note_on_c, 0, 79, 49
2, 34200, Note_on_c, 0, 79, 0
2, 34200, Note_on_c, 0, 76, 49
2, 34320, Note_on_c, 0, 76, 0
2, 34320, Note_on_c, 0, 74, 48
2, 34440, Note_on_c, 0, 74, 0
2, 34440, Note_on_c, 0, 73, 48
2, 34560, Note_on_c, 0, 73, 0
2, 34560, Note_on_c, 0, 74, 52
2, 34680, Note_on_c, 0, 74, 0
2, 34680, Note_on_c, 0, 76, 47
2, 34800, Note_on_c, 0, 76, 0
2, 34800, Note_on_c, 0, 78, 48
2, 34920, Note_on_c, 0, 78, 0
2, 34920, Note_on_c, 0, 79, 49
2, 35040, Note_on_c, 0, 79, 0
2, 35040, Note_on_c, 0, 81, 50
2, 35160, Note_on_c, 0, 81, 0
2, 35160, Note_on_c, 0, 78, 49
2, 35280, Note_on_c, 0, 78, 0
2, 35280, Note_on_c, 0, 76, 48
2, 35400, Note_on_c, 0, 76, 0
2, 35400, Note_on_c, 0, 74, 47
2, 35520, Note_on_c, 0, 74, 0
2, 35520, Note_on_c, 0, 73, 53
2, 35640, Note_on_c, 0, 73, 0
2, 35640, Note_on_c, 0, 74, 47
2, 35760, Note_on_c, 0, 74, 0
2, 35760, Note_on_c, 0, 76, 47
2, 35880, Note_on_c, 0, 76, 0
2, 35880, Note_on_c, 0, 78, 48
2, 36000, Note_on_c, 0, 78, 0
2, 36000, Note_on_c, 0, 79, 49
2, 36120, Note_on_c, 0, 79, 0
2, 36120, Note_on_c, 0, 76, 49
2, 36240, Note_on_c, 0, 76, 0
2, 36240, Note_on_c, 0, 74, 48
2, 36360, Note_on_c, 0, 74, 0
2, 36360, Note_on_c, 0, 73, 48
2, 36480, Note_on_c, 0, 73, 0
2, 36480, Note_on_c, 0, 74, 58
2, 36900, Note_on_c, 0, 74, 0
2, 36900, Note_on_c, 0, 85, 77
2, 36960, Note_on_c, 0, 85, 0
2, 36960, Note_on_c, 0, 86, 87
2, 37440, Note_on_c, 0, 86, 0
2, 38400, Note_on_c, 0, 77, 53
2, 38760, Note_on_c, 0, 77, 0
2, 38760, Note_on_c, 0, 74, 45
2, 38820, Note_on_c, 0, 74, 0
2, 38820, Note_on_c, 0, 75, 45
2, 38880, Note_on_c, 0, 75, 0
2, 38880, Note_on_c, 0, 77, 54
2, 39120, Note_on_c, 0, 77, 0
2, 39600, Note_on_c, 0, 69, 50
2, 39840, Note_on_c, 0, 69, 0
2, 39840, Note_on_c, 0, 69, 50
2, 40080, Note_on_c, 0, 69, 0
2, 40080, Note_on_c, 0, 69, 50
2, 40320, Note_on_c, 0, 69, 0
2, 40320, Note_on_c, 0, 70, 53
2, 40680, Note_on_c, 0, 70, 0
2, 40680, Note_on_c, 0, 70, 45
2, 40740, Note_on_c, 0, 70, 0
2, 40740, Note_on_c, 0, 72, 45
2, 40800, Note_on_c, 0, 72, 0
2, 40800, Note_on_c, 0, 74, 54
2, 41040, Note_on_c, 0, 74, 0
2, 41520, Note_on_c, 0, 66, 50
2, 41760, Note_on_c, 0, 66, 0
2, 41760, Note_on_c, 0, 66, 50
2, 42000, Note_on_c, 0, 66, 0
2, 42000, Note_on_c, 0, 66, 50
2, 42240, Note_on_c, 0, 66, 0
2, 42240, Note_on_c, 0, 67, 57
2, 42600, Note_on_c, 0, 67, 0
2, 42600, Note_on_c, 0, 67, 45
2, 42660, Note_on_c, 0, 67, 0
2, 42660, Note_on_c, 0, 69, 45
2, 42720, Note_on_c, 0, 69, 0
2, 42720, Note_on_c, 0, 70, 57
2, 42960, Note_on_c, 0, 70, 0
2, 43440, Note_on_c, 0, 61, 55
2, 43680, Note_on_c, 0, 61, 0
2, 43680, Note_on_c, 0, 61, 57
2, 43920, Note_on_c, 0, 61, 0
2, 43920, Note_on_c, 0, 61, 60
2, 44160, Note_on_c, 0, 61, 0
2, 44160, Note_on_c, 0, 62, 68
2, 44520, Note_on_c, 0, 62, 0
2, 44520, Note_on_c, 0, 54, 51
2, 44580, Note_on_c, 0, 54, 0
2, 44580, Note_on_c, 0, 55, 51
2, 44640, Note_on_c, 0, 55, 0
2, 44640, Note_on_c, 0, 57, 75
2, 44880, Note_on_c, 0, 57, 0
2, 44880, Note_on_c, 0, 54, 68
2, 45120, Note_on_c, 0, 54, 0
2, 45120, Note_on_c, 0, 50, 68
2, 45600, Note_on_c, 0, 50, 0
2, 46080, Control_c, 0, 91, 127
2, 46081, Note_on_c, 0, 67, 60
2, 46440, Note_on_c, 0, 71, 46
2, 46441, Note_on_c, 0, 67, 0
2, 46500, Note_on_c, 0, 71, 0
2, 46500, Note_on_c, 0, 69, 47
2, 46560, Note_on_c, 0, 69, 0
2, 46560, Note_on_c, 0, 67, 56
2, 46800, Note_on_c, 0, 67, 0
2, 47280, Note_on_c, 0, 62, 53
2, 47520, Note_on_c, 0, 62, 0
2, 47520, Note_on_c, 0, 67, 53
2, 47760, Note_on_c, 0, 67, 0
2, 47760, Note_on_c, 0, 71, 53
2, 48000, Note_on_c, 0, 71, 0
2, 48000, Note_on_c, 0, 71, 57
2, 48120, Note_on_c, 0, 71, 0
2, 48120, Note_on_c, 0, 69, 54
2, 48240, Note_on_c, 0, 69, 0
2, 48240, Note_on_c, 0, 67, 54
2, 48360, Note_on_c, 0, 67, 0
2, 48360, Note_on_c, 0, 69, 54
2, 48480, Note_on_c, 0, 69, 0
2, 48480, Note_on_c, 0, 67, 57
2, 48720, Note_on_c, 0, 67, 0
2, 48720, Note_on_c, 0, 76, 54
2, 48960, Note_on_c, 0, 76, 0
2, 48960, Note_on_c, 0, 76, 54
2, 49080, Note_on_c, 0, 76, 0
2, 49200, Note_on_c, 0, 76, 54
2, 49320, Note_on_c, 0, 76, 0
2, 49440, Note_on_c, 0, 76, 54
2, 49560, Note_on_c, 0, 76, 0
2, 49680, Note_on_c, 0, 76, 54
2, 49800, Note_on_c, 0, 76, 0
2, 49920, Note_on_c, 0, 76, 57
2, 50280, Note_on_c, 0, 76, 0
2, 50280, Note_on_c, 0, 81, 52
2, 50340, Note_on_c, 0, 81, 0
2, 50340, Note_on_c, 0, 83, 52
2, 50400, Note_on_c, 0, 83, 0
2, 50400, Note_on_c, 0, 84, 50
2, 50640, Note_on_c, 0, 84, 0
2, 50640, Note_on_c, 0, 76, 54
2, 50880, Note_on_c, 0, 76, 0
2, 50880, Note_on_c, 0, 74, 54
2, 51000, Note_on_c, 0, 74, 0
2, 51120, Note_on_c, 0, 74, 54
2, 51240, Note_on_c, 0, 74, 0
2, 51360, Note_on_c, 0, 74, 54
2, 51480, Note_on_c, 0, 74, 0
2, 51600, Note_on_c, 0, 74, 54
2, 51720, Note_on_c, 0, 74, 0
2, 51840, Note_on_c, 0, 74, 57
2, 52200, Note_on_c, 0, 74, 0
2, 52200, Note_on_c, 0, 79, 49
2, 52260, Note_on_c, 0, 79, 0
2, 52260, Note_on_c, 0, 81, 48
2, 52320, Note_on_c, 0, 81, 0
2, 52320, Note_on_c, 0, 83, 45
2, 52560, Note_on_c, 0, 83, 0
2, 54600, Note_on_c, 0, 83, 39
2, 54660, Note_on_c, 0, 83, 0
2, 54660, Note_on_c, 0, 81, 39
2, 54720, Note_on_c, 0, 81, 0
2, 54720, Note_on_c, 0, 79, 47
2, 54840, Note_on_c, 0, 79, 0
2, 55080, Note_on_c, 0, 79, 39
2, 55140, Note_on_c, 0, 79, 0
2, 55140, Note_on_c, 0, 78, 39
2, 55200, Note_on_c, 0, 78, 0
2, 55200, Note_on_c, 0, 76, 50
2, 55320, Note_on_c, 0, 76, 0
2, 55560, Note_on_c, 0, 76, 38
2, 55620, Note_on_c, 0, 76, 0
2, 55620, Note_on_c, 0, 74, 38
2, 55680, Note_on_c, 0, 74, 0
2, 55680, Note_on_c, 0, 72, 50
2, 55920, Note_on_c, 0, 72, 0
2, 56520, Note_on_c, 0, 75, 51
2, 56580, Note_on_c, 0, 75, 0
2, 56580, Note_on_c, 0, 74, 51
2, 56640, Note_on_c, 0, 74, 0
2, 56640, Note_on_c, 0, 72, 59
2, 56880, Note_on_c, 0, 72, 0
2, 56880, Note_on_c, 0, 72, 55
2, 57120, Note_on_c, 0, 72, 0
2, 57120, Note_on_c, 0, 72, 55
2, 57360, Note_on_c, 0, 72, 0
2, 57360, Note_on_c, 0, 72, 55
2, 57600, Note_on_c, 0, 72, 0
2, 57600, Note_on_c, 0, 72, 58
2, 57960, Note_on_c, 0, 72, 0
2, 57960, Note_on_c, 0, 74, 46
2, 58020, Note_on_c, 0, 74, 0
2, 58020, Note_on_c, 0, 72, 46
2, 58080, Note_on_c, 0, 72, 0
2, 58080, Note_on_c, 0, 71, 56
2, 58320, Note_on_c, 0, 71, 0
2, 58320, Note_on_c, 0, 71, 57
2, 58560, Note_on_c, 0, 71, 0
2, 58560, Note_on_c, 0, 69, 60
2, 58800, Note_on_c, 0, 69, 0
2, 58800, Note_on_c, 0, 76, 56
2, 59040, Note_on_c, 0, 76, 0
2, 59040, Note_on_c, 0, 74, 56
2, 59280, Note_on_c, 0, 74, 0
2, 59280, Note_on_c, 0, 66, 56
2, 59520, Note_on_c, 0, 66, 0
2, 59520, Note_on_c, 0, 67, 54
2, 59640, Note_on_c, 0, 67, 0
2, 59640, Note_on_c, 0, 69, 49
2, 59760, Note_on_c, 0, 69, 0
2, 59760, Note_on_c, 0, 71, 50
2, 59880, Note_on_c, 0, 71, 0
2, 59880, Note_on_c, 0, 72, 51
2, 60000, Note_on_c, 0, 72, 0
2, 60000, Note_on_c, 0, 74, 51
2, 60120, Note_on_c, 0, 74, 0
2, 60120, Note_on_c, 0, 71, 51
2, 60240, Note_on_c, 0, 71, 0
2, 60240, Note_on_c, 0, 69, 50
2, 60360, Note_on_c, 0, 69, 0
2, 60360, Note_on_c, 0, 67, 50
2, 60480, Note_on_c, 0, 67, 0
2, 60480, Note_on_c, 0, 66, 53
2, 60600, Note_on_c, 0, 66, 0
2, 60600, Note_on_c, 0, 67, 48
2, 60720, Note_on_c, 0, 67, 0
2, 60720, Note_on_c, 0, 69, 49
2, 60840, Note_on_c, 0, 69, 0
2, 60840, Note_on_c, 0, 71, 49
2, 60960, Note_on_c, 0, 71, 0
2, 60960, Note_on_c, 0, 72, 49
2, 61080, Note_on_c, 0, 72, 0
2, 61080, Note_on_c, 0, 69, 49
2, 61200, Note_on_c, 0, 69, 0
2, 61200, Note_on_c, 0, 67, 48
2, 61320, Note_on_c, 0, 67, 0
2, 61320, Note_on_c, 0, 66, 48
2, 61440, Note_on_c, 0, 66, 0
2, 61440, Note_on_c, 0, 67, 52
2, 61560, Note_on_c, 0, 67, 0
2, 61560, Note_on_c, 0, 69, 47
2, 61680, Note_on_c, 0, 69, 0
2, 61680, Note_on_c, 0, 71, 48
2, 61800, Note_on_c, 0, 71, 0
2, 61800, Note_on_c, 0, 72, 49
2, 61920, Note_on_c, 0, 72, 0
2, 61920, Note_on_c, 0, 74, 50
2, 62040, Note_on_c, 0, 74, 0
2, 62040, Note_on_c, 0, 71, 49
2, 62160, Note_on_c, 0, 71, 0
2, 62160, Note_on_c, 0, 69, 48
2, 62280, Note_on_c, 0, 69, 0
2, 62280, Note_on_c, 0, 67, 47
2, 62400, Note_on_c, 0, 67, 0
2, 62400, Note_on_c, 0, 66, 53
2, 62520, Note_on_c, 0, 66, 0
2, 62520, Note_on_c, 0, 67, 47
2, 62640, Note_on_c, 0, 67, 0
2, 62640, Note_on_c, 0, 69, 47
2, 62760, Note_on_c, 0, 69, 0
2, 62760, Note_on_c, 0, 71, 48
2, 62880, Note_on_c, 0, 71, 0
2, 62880, Note_on_c, 0, 72, 49
2, 63000, Note_on_c, 0, 72, 0
2, 63000, Note_on_c, 0, 69, 49
2, 63120, Note_on_c, 0, 69, 0
2, 63120, Note_on_c, 0, 67, 48
2, 63240, Note_on_c, 0, 67, 0
2, 63240, Note_on_c, 0, 66, 48
2, 63360, Note_on_c, 0, 66, 0
2, 63360, Note_on_c, 0, 67, 58
2, 63780, Note_on_c, 0, 67, 0
2, 63780, Note_on_c, 0, 78, 65
2, 63840, Note_on_c, 0, 78, 0
2, 63840, Note_on_c, 0, 79, 76
2, 64320, Note_on_c, 0, 79, 0
2, 65280, Note_on_c, 0, 77, 53
2, 65640, Note_on_c, 0, 77, 0
2, 65640, Note_on_c, 0, 74, 45
2, 65700, Note_on_c, 0, 74, 0
2, 65700, Note_on_c, 0, 75, 45
2, 65760, Note_on_c, 0, 75, 0
2, 65760, Note_on_c, 0, 77, 54
2, 66000, Note_on_c, 0, 77, 0
2, 66480, Note_on_c, 0, 69, 50
2, 66720, Note_on_c, 0, 69, 0
2, 66720, Note_on_c, 0, 69, 50
2, 66960, Note_on_c, 0, 69, 0
2, 66960, Note_on_c, 0, 69, 50
2, 67200, Note_on_c, 0, 69, 0
2, 67200, Note_on_c, 0, 70, 53
2, 67560, Note_on_c, 0, 70, 0
2, 67560, Note_on_c, 0, 70, 45
2, 67620, Note_on_c, 0, 70, 0
2, 67620, Note_on_c, 0, 72, 45
2, 67680, Note_on_c, 0, 72, 0
2, 67680, Note_on_c, 0, 74, 54
2, 67920, Note_on_c, 0, 74, 0
2, 68400, Note_on_c, 0, 66, 50
2, 68640, Note_on_c, 0, 66, 0
2, 68640, Note_on_c, 0, 66, 50
2, 68880, Note_on_c, 0, 66, 0
2, 68880, Note_on_c, 0, 66, 50
2, 69120, Note_on_c, 0, 66, 0
2, 69120, Note_on_c, 0, 67, 57
2, 69480, Note_on_c, 0, 67, 0
2, 69480, Note_on_c, 0, 67, 45
2, 69540, Note_on_c, 0, 67, 0
2, 69540, Note_on_c, 0, 69, 45
2, 69600, Note_on_c, 0, 69, 0
2, 69600, Note_on_c, 0, 70, 57
2, 69840, Note_on_c, 0, 70, 0
2, 70320, Note_on_c, 0, 61, 54
2, 70560, Note_on_c, 0, 61, 0
2, 70560, Note_on_c, 0, 61, 57
2, 70800, Note_on_c, 0, 61, 0
2, 70800, Note_on_c, 0, 61, 60
2, 71040, Note_on_c, 0, 61, 0
2, 71040, Note_on_c, 0, 62, 68
2, 71400, Note_on_c, 0, 62, 0
2, 71400, Note_on_c, 0, 54, 51
2, 71460, Note_on_c, 0, 54, 0
2, 71460, Note_on_c, 0, 55, 51
2, 71520, Note_on_c, 0, 55, 0
2, 71520, Note_on_c, 0, 57, 75
2, 71760, Note_on_c, 0, 57, 0
2, 71760, Note_on_c, 0, 54, 68
2, 72000, Note_on_c, 0, 54, 0
2, 72000, Note_on_c, 0, 50, 68
2, 72480, Note_on_c, 0, 50, 0
2, 72960, Control_c, 0, 91, 127
2, 72961, Note_on_c, 0, 67, 60
2, 73320, Note_on_c, 0, 71, 46
2, 73321, Note_on_c, 0, 67, 0
2, 73380, Note_on_c, 0, 71, 0
2, 73380, Note_on_c, 0, 69, 47
2, 73440, Note_on_c, 0, 69, 0
2, 73440, Note_on_c, 0, 67, 56
2, 73680, Note_on_c, 0, 67, 0
2, 74160, Note_on_c, 0, 62, 53
2, 74400, Note_on_c, 0, 62, 0
2, 74400, Note_on_c, 0, 67, 53
2, 74640, Note_on_c, 0, 67, 0
2, 74640, Note_on_c, 0, 71, 53
2, 74880, Note_on_c, 0, 71, 0
2, 74880, Note_on_c, 0, 71, 57
2, 75000, Note_on_c, 0, 71, 0
2, 75000, Note_on_c, 0, 69, 54
2, 75120, Note_on_c, 0, 69, 0
2, 75120, Note_on_c, 0, 67, 54
2, 75240, Note_on_c, 0, 67, 0
2, 75240, Note_on_c, 0, 69, 54
2, 75360, Note_on_c, 0, 69, 0
2, 75360, Note_on_c, 0, 67, 57
2, 75600, Note_on_c, 0, 67, 0
2, 75600, Note_on_c, 0, 76, 54
2, 75840, Note_on_c, 0, 76, 0
2, 75840, Note_on_c, 0, 76, 54
2, 75960, Note_on_c, 0, 76, 0
2, 76080, Note_on_c, 0, 76, 54
2, 76200, Note_on_c, 0, 76, 0
2, 76320, Note_on_c, 0, 76, 54
2, 76440, Note_on_c, 0, 76, 0
2, 76560, Note_on_c, 0, 76, 54
2, 76680, Note_on_c, 0, 76, 0
2, 76800, Note_on_c, 0, 76, 57
2, 77160, Note_on_c, 0, 76, 0
2, 77160, Note_on_c, 0, 81, 52
2, 77220, Note_on_c, 0, 81, 0
2, 77220, Note_on_c, 0, 83, 52
2, 77280, Note_on_c, 0, 83, 0
2, 77280, Note_on_c, 0, 84, 50
2, 77520, Note_on_c, 0, 84, 0
2, 77520, Note_on_c, 0, 76, 54
2, 77760, Note_on_c, 0, 76, 0
2, 77760, Note_on_c, 0, 74, 54
2, 77880, Note_on_c, 0, 74, 0
2, 78000, Note_on_c, 0, 74, 54
2, 78120, Note_on_c, 0, 74, 0
2, 78240, Note_on_c, 0, 74, 54
2, 78360, Note_on_c, 0, 74, 0
2, 78480, Note_on_c, 0, 74, 54
2, 78600, Note_on_c, 0, 74, 0
2, 78720, Note_on_c, 0, 74, 57
2, 79080, Note_on_c, 0, 74, 0
2, 79080, Note_on_c, 0, 79, 49
2, 79140, Note_on_c, 0, 79, 0
2, 79140, Note_on_c, 0, 81, 48
2, 79200, Note_on_c, 0, 81, 0
2, 79200, Note_on_c, 0, 83, 45
2, 79440, Note_on_c, 0, 83, 0
2, 81480, Note_on_c, 0, 83, 39
2, 81540, Note_on_c, 0, 83, 0
2, 81540, Note_on_c, 0, 81, 39
2, 81600, Note_on_c, 0, 81, 0
2, 81600, Note_on_c, 0, 79, 47
2, 81720, Note_on_c, 0, 79, 0
2, 81960, Note_on_c, 0, 79, 39
2, 82020, Note_on_c, 0, 79, 0
2, 82020, Note_on_c, 0, 78, 39
2, 82080, Note_on_c, 0, 78, 0
2, 82080, Note_on_c, 0, 76, 50
2, 82200, Note_on_c, 0, 76, 0
2, 82440, Note_on_c, 0, 76, 38
2, 82500, Note_on_c, 0, 76, 0
2, 82500, Note_on_c, 0, 74, 38
2, 82560, Note_on_c, 0, 74, 0
2, 82560, Note_on_c, 0, 72, 50
2, 82800, Note_on_c, 0, 72, 0
2, 83400, Note_on_c, 0, 75, 51
2, 83460, Note_on_c, 0, 75, 0
2, 83460, Note_on_c, 0, 74, 51
2, 83520, Note_on_c, 0, 74, 0
2, 83520, Note_on_c, 0, 72, 59
2, 83760, Note_on_c, 0, 72, 0
2, 83760, Note_on_c, 0, 72, 55
2, 84000, Note_on_c, 0, 72, 0
2, 84000, Note_on_c, 0, 72, 55
2, 84240, Note_on_c, 0, 72, 0
2, 84240, Note_on_c, 0, 72, 55
2, 84480, Note_on_c, 0, 72, 0
2, 84480, Note_on_c, 0, 72, 60
2, 84840, Note_on_c, 0, 72, 0
2, 84840, Note_on_c, 0, 74, 46
2, 84900, Note_on_c, 0, 74, 0
2, 84900, Note_on_c, 0, 72, 46
2, 84960, Note_on_c, 0, 72, 0
2, 84960, Note_on_c, 0, 71, 56
2, 85200, Note_on_c, 0, 71, 0
2, 85200, Note_on_c, 0, 71, 57
2, 85440, Note_on_c, 0, 71, 0
2, 85440, Note_on_c, 0, 69, 60
2, 85680, Note_on_c, 0, 69, 0
2, 85680, Note_on_c, 0, 76, 56
2, 85920, Note_on_c, 0, 76, 0
2, 85920, Note_on_c, 0, 74, 56
2, 86160, Note_on_c, 0, 74, 0
2, 86160, Note_on_c, 0, 66, 56
2, 86400, Note_on_c, 0, 66, 0
2, 86400, Note_on_c, 0, 67, 54
2, 86520, Note_on_c, 0, 67, 0
2, 86520, Note_on_c, 0, 69, 49
2, 86640, Note_on_c, 0, 69, 0
2, 86640, Note_on_c, 0, 71, 50
2, 86760, Note_on_c, 0, 71, 0
2, 86760, Note_on_c, 0, 72, 51
2, 86880, Note_on_c, 0, 72, 0
2, 86880, Note_on_c, 0, 74, 51
2, 87000, Note_on_c, 0, 74, 0
2, 87000, Note_on_c, 0, 71, 51
2, 87120, Note_on_c, 0, 71, 0
2, 87120, Note_on_c, 0, 69, 50
2, 87240, Note_on_c, 0, 69, 0
2, 87240, Note_on_c, 0, 67, 50
2, 87360, Note_on_c, 0, 67, 0
2, 87360, Note_on_c, 0, 66, 53
2, 87480, Note_on_c, 0, 66, 0
2, 87480, Note_on_c, 0, 67, 48
2, 87600, Note_on_c, 0, 67, 0
2, 87600, Note_on_c, 0, 69, 49
2, 87720, Note_on_c, 0, 69, 0
2, 87720, Note_on_c, 0, 71, 49
2, 87840, Note_on_c, 0, 71, 0
2, 87840, Note_on_c, 0, 72, 49
2, 87960, Note_on_c, 0, 72, 0
2, 87960, Note_on_c, 0, 69, 49
2, 88080, Note_on_c, 0, 69, 0
2, 88080, Note_on_c, 0, 67, 48
2, 88200, Note_on_c, 0, 67, 0
2, 88200, Note_on_c, 0, 66, 48
2, 88320, Note_on_c, 0, 66, 0
2, 88320, Note_on_c, 0, 67, 52
2, 88440, Note_on_c, 0, 67, 0
2, 88440, Note_on_c, 0, 69, 47
2, 88560, Note_on_c, 0, 69, 0
2, 88560, Note_on_c, 0, 71, 48
2, 88680, Note_on_c, 0, 71, 0
2, 88680, Note_on_c, 0, 72, 49
2, 88800, Note_on_c, 0, 72, 0
2, 88800, Note_on_c, 0, 74, 50
2, 88920, Note_on_c, 0, 74, 0
2, 88920, Note_on_c, 0, 71, 49
2, 89040, Note_on_c, 0, 71, 0
2, 89040, Note_on_c, 0, 69, 48
2, 89160, Note_on_c, 0, 69, 0
2, 89160, Note_on_c, 0, 67, 47
2, 89280, Note_on_c, 0, 67, 0
2, 89280, Note_on_c, 0, 66, 53
2, 89400, Note_on_c, 0, 66, 0
2, 89400, Note_on_c, 0, 67, 47
2, 89520, Note_on_c, 0, 67, 0
2, 89520, Note_on_c, 0, 69, 47
2, 89640, Note_on_c, 0, 69, 0
2, 89640, Note_on_c, 0, 71, 48
2, 89760, Note_on_c, 0, 71, 0
2, 89760, Note_on_c, 0, 72, 49
2, 89880, Note_on_c, 0, 72, 0
2, 89880, Note_on_c, 0, 69, 49
2, 90000, Note_on_c, 0, 69, 0
2, 90000, Note_on_c, 0, 67, 48
2, 90120, Note_on_c, 0, 67, 0
2, 90120, Note_on_c, 0, 66, 48
2, 90240, Note_on_c, 0, 66, 0
2, 90240, Note_on_c, 0, 67, 58
2, 90660, Note_on_c, 0, 67, 0
2, 90660, Note_on_c, 0, 78, 65
2, 90720, Note_on_c, 0, 78, 0
2, 90720, Note_on_c, 0, 79, 76
2, 91200, Note_on_c, 0, 79, 0
2, 92400, Note_on_c, 0, 64, 57
2, 92640, Note_on_c, 0, 64, 0
2, 92640, Note_on_c, 0, 76, 65
2, 93360, Note_on_c, 0, 76, 0
2, 93360, Note_on_c, 0, 75, 56
2, 93600, Note_on_c, 0, 75, 0
2, 93600, Note_on_c, 0, 78, 70
2, 94320, Note_on_c, 0, 78, 0
2, 94320, Note_on_c, 0, 76, 55
2, 94560, Note_on_c, 0, 76, 0
2, 94560, Note_on_c, 0, 79, 72
2, 95280, Note_on_c, 0, 79, 0
2, 95280, Note_on_c, 0, 78, 63
2, 95520, Note_on_c, 0, 78, 0
2, 95520, Note_on_c, 0, 83, 78
2, 96240, Note_on_c, 0, 83, 0
2, 96240, Note_on_c, 0, 82, 66
2, 96480, Note_on_c, 0, 82, 0
2, 96480, Note_on_c, 0, 88, 72
2, 96480, Note_on_c, 0, 85, 72
2, 97200, Note_on_c, 0, 85, 0
2, 97200, Note_on_c, 0, 88, 0
2, 97200, Note_on_c, 0, 83, 60
2, 97200, Note_on_c, 0, 86, 60
2, 97680, Note_on_c, 0, 86, 0
2, 97680, Note_on_c, 0, 83, 0
2, 97680, Note_on_c, 0, 85, 56
2, 97680, Note_on_c, 0, 76, 56
2, 98160, Note_on_c, 0, 76, 0
2, 98160, Note_on_c, 0, 85, 0
2, 98160, Note_on_c, 0, 74, 57
2, 98160, Note_on_c, 0, 83, 57
2, 98640, Note_on_c, 0, 83, 0
2, 98640, Note_on_c, 0, 74, 0
2, 98640, Note_on_c, 0, 73, 57
2, 98640, Note_on_c, 0, 82, 57
2, 98880, Note_on_c, 0, 82, 0
2, 98880, Note_on_c, 0, 73, 0
2, 99120, Note_on_c, 0, 71, 56
2, 99360, Note_on_c, 0, 71, 0
2, 99360, Note_on_c, 0, 83, 66
2, 99600, Note_on_c, 0, 83, 0
2, 100080, Note_on_c, 0, 64, 57
2, 100320, Note_on_c, 0, 64, 0
2, 100320, Note_on_c, 0, 76, 65
2, 101040, Note_on_c, 0, 76, 0
2, 101040, Note_on_c, 0, 75, 56
2, 101280, Note_on_c, 0, 75, 0
2, 101280, Note_on_c, 0, 78, 70
2, 102000, Note_on_c, 0, 78, 0
2, 102000, Note_on_c, 0, 76, 55
2, 102240, Note_on_c, 0, 76, 0
2, 102240, Note_on_c, 0, 79, 72
2, 102960, Note_on_c, 0, 79, 0
2, 102960, Note_on_c, 0, 78, 63
2, 103200, Note_on_c, 0, 78, 0
2, 103200, Note_on_c, 0, 83, 76
2, 103920, Note_on_c, 0, 83, 0
2, 103920, Note_on_c, 0, 82, 66
2, 104160, Note_on_c, 0, 82, 0
2, 104160, Note_on_c, 0, 88, 72
2, 104160, Note_on_c, 0, 85, 72
2, 104880, Note_on_c, 0, 85, 0
2, 104880, Note_on_c, 0, 88, 0
2, 104880, Note_on_c, 0, 83, 60
2, 104880, Note_on_c, 0, 86, 60
2, 105360, Note_on_c, 0, 86, 0
2, 105360, Note_on_c, 0, 83, 0
2, 105360, Note_on_c, 0, 85, 56
2, 105360, Note_on_c, 0, 76, 56
2, 105840, Note_on_c, 0, 76, 0
2, 105840, Note_on_c, 0, 85, 0
2, 105840, Note_on_c, 0, 74, 57
2, 105840, Note_on_c, 0, 83, 57
2, 106320, Note_on_c, 0, 83, 0
2, 106320, Note_on_c, 0, 74, 0
2, 106320, Note_on_c, 0, 73, 57
2, 106320, Note_on_c, 0, 82, 57
2, 106560, Note_on_c, 0, 82, 0
2, 106560, Note_on_c, 0, 73, 0
2, 106800, Note_on_c, 0, 71, 56
2, 107040, Note_on_c, 0, 71, 0
2, 107040, Note_on_c, 0, 83, 66
2, 107280, Note_on_c, 0, 83, 0
2, 107760, Note_on_c, 0, 69, 57
2, 108000, Note_on_c, 0, 69, 0
2, 108000, Note_on_c, 0, 81, 68
2, 108720, Note_on_c, 0, 81, 0
2, 108720, Note_on_c, 0, 80, 56
2, 108960, Note_on_c, 0, 80, 0
2, 108960, Note_on_c, 0, 86, 70
2, 109680, Note_on_c, 0, 86, 0
2, 109680, Note_on_c, 0, 84, 61
2, 110160, Note_on_c, 0, 84, 0
2, 110160, Note_on_c, 0, 83, 59
2, 110640, Note_on_c, 0, 83, 0
2, 110640, Note_on_c, 0, 81, 57
2, 110880, Note_on_c, 0, 81, 0
2, 111120, Note_on_c, 0, 78, 43
2, 111360, Note_on_c, 0, 78, 0
2, 111360, Note_on_c, 0, 79, 49
2, 112080, Note_on_c, 0, 79, 0
2, 112080, Note_on_c, 0, 78, 45
2, 112320, Note_on_c, 0, 78, 0
2, 112320, Note_on_c, 0, 84, 49
2, 112320, Note_on_c, 0, 81, 49
2, 113040, Note_on_c, 0, 81, 0
2, 113040, Note_on_c, 0, 84, 0
2, 113040, Note_on_c, 0, 79, 45
2, 113040, Note_on_c, 0, 83, 45
2, 113520, Note_on_c, 0, 83, 0
2, 113520, Note_on_c, 0, 79, 0
2, 113520, Note_on_c, 0, 78, 43
2, 113520, Note_on_c, 0, 81, 43
2, 114000, Note_on_c, 0, 81, 0
2, 114000, Note_on_c, 0, 78, 0
2, 114000, Note_on_c, 0, 76, 42
2, 114000, Note_on_c, 0, 79, 42
2, 114480, Note_on_c, 0, 79, 0
2, 114480, Note_on_c, 0, 76, 0
2, 114480, Note_on_c, 0, 75, 44
2, 114480, Note_on_c, 0, 78, 44
2, 114720, Note_on_c, 0, 78, 0
2, 114720, Note_on_c, 0, 75, 0
2, 114720, Note_on_c, 0, 83, 58
2, 114840, Note_on_c, 0, 83, 0
2, 114840, Note_on_c, 0, 81, 58
2, 114960, Note_on_c, 0, 81, 0
2, 114960, Note_on_c, 0, 79, 58
2, 115080, Note_on_c, 0, 79, 0
2, 115080, Note_on_c, 0, 78, 58
2, 115200, Note_on_c, 0, 78, 0
2, 115200, Note_on_c, 0, 76, 66
2, 115680, Note_on_c, 0, 76, 0
2, 115920, Note_on_c, 0, 67, 55
2, 115920, Note_on_c, 0, 76, 55
2, 116160, Note_on_c, 0, 76, 0
2, 116160, Note_on_c, 0, 67, 0
2, 116160, Note_on_c, 0, 69, 60
2, 116160, Note_on_c, 0, 78, 60
2, 116880, Note_on_c, 0, 78, 0
2, 116880, Note_on_c, 0, 69, 0
2, 116880, Note_on_c, 0, 69, 55
2, 116880, Note_on_c, 0, 78, 55
2, 117120, Note_on_c, 0, 78, 0
2, 117120, Note_on_c, 0, 69, 0
2, 117120, Note_on_c, 0, 71, 60
2, 117120, Note_on_c, 0, 79, 60
2, 117840, Note_on_c, 0, 79, 0
2, 117840, Note_on_c, 0, 71, 0
2, 117840, Note_on_c, 0, 71, 58
2, 117840, Note_on_c, 0, 79, 58
2, 118080, Note_on_c, 0, 79, 0
2, 118080, Note_on_c, 0, 71, 0
2, 118080, Note_on_c, 0, 72, 66
2, 118080, Note_on_c, 0, 81, 66
2, 118800, Note_on_c, 0, 81, 0
2, 118800, Note_on_c, 0, 72, 0
2, 118800, Note_on_c, 0, 78, 55
2, 119040, Note_on_c, 0, 78, 0
2, 119040, Note_on_c, 0, 75, 60
2, 119760, Note_on_c, 0, 75, 0
2, 119760, Note_on_c, 0, 72, 56
2, 120000, Note_on_c, 0, 72, 0
2, 120000, Note_on_c, 0, 69, 60
2, 120720, Note_on_c, 0, 69, 0
2, 120720, Note_on_c, 0, 66, 56
2, 120960, Note_on_c, 0, 66, 0
2, 120960, Note_on_c, 0, 63, 61
2, 121680, Note_on_c, 0, 63, 0
2, 121680, Note_on_c, 0, 63, 49
2, 121800, Note_on_c, 0, 63, 0
2, 121800, Note_on_c, 0, 60, 49
2, 121920, Note_on_c, 0, 60, 0
2, 121920, Note_on_c, 0, 57, 58
2, 122040, Note_on_c, 0, 57, 0
2, 122160, Note_on_c, 0, 60, 49
2, 122280, Note_on_c, 0, 60, 0
2, 122280, Note_on_c, 0, 57, 49
2, 122400, Note_on_c, 0, 57, 0
2, 122400, Note_on_c, 0, 54, 58
2, 122520, Note_on_c, 0, 54, 0
2, 122640, Note_on_c, 0, 57, 54
2, 122760, Note_on_c, 0, 57, 0
2, 122760, Note_on_c, 0, 54, 54
2, 122880, Note_on_c, 0, 54, 0
2, 122880, Note_on_c, 0, 51, 75
2, 123120, Note_on_c, 0, 51, 0
2, 123600, Note_on_c, 0, 84, 40
2, 123720, Note_on_c, 0, 84, 0
2, 123720, Note_on_c, 0, 81, 40
2, 123840, Note_on_c, 0, 81, 0
2, 123840, Note_on_c, 0, 78, 44
2, 123960, Note_on_c, 0, 78, 0
2, 124080, Note_on_c, 0, 81, 40
2, 124200, Note_on_c, 0, 81, 0
2, 124200, Note_on_c, 0, 78, 40
2, 124320, Note_on_c, 0, 78, 0
2, 124320, Note_on_c, 0, 75, 44
2, 124440, Note_on_c, 0, 75, 0
2, 124560, Note_on_c, 0, 78, 36
2, 124680, Note_on_c, 0, 78, 0
2, 124680, Note_on_c, 0, 75, 36
2, 124800, Note_on_c, 0, 75, 0
2, 124800, Note_on_c, 0, 72, 43
2, 125040, Note_on_c, 0, 72, 0
2, 126000, Note_on_c, 0, 60, 57
2, 126240, Note_on_c, 0, 60, 0
2, 126240, Note_on_c, 0, 59, 60
2, 126480, Note_on_c, 0, 59, 0
2, 126480, Note_on_c, 0, 69, 58
2, 126720, Note_on_c, 0, 69, 0
2, 126960, Note_on_c, 0, 59, 56
2, 126960, Note_on_c, 0, 67, 56
2, 127200, Note_on_c, 0, 67, 0
2, 127200, Note_on_c, 0, 59, 0
2, 127440, Note_on_c, 0, 57, 55
2, 127440, Note_on_c, 0, 66, 55
2, 127680, Note_on_c, 0, 66, 0
2, 127680, Note_on_c, 0, 57, 0
2, 127920, Note_on_c, 0, 55, 55
2, 127920, Note_on_c, 0, 64, 55
2, 128160, Note_on_c, 0, 64, 0
2, 128160, Note_on_c, 0, 55, 0
2, 128400, Note_on_c, 0, 54, 55
2, 128400, Note_on_c, 0, 63, 55
2, 128640, Note_on_c, 0, 63, 0
2, 128640, Note_on_c, 0, 54, 0
2, 128640, Note_on_c, 0, 55, 66
2, 128640, Note_on_c, 0, 64, 66
2, 129120, Note_on_c, 0, 64, 0
2, 129120, Note_on_c, 0, 55, 0
2, 129360, Note_on_c, 0, 87, 50
2, 129600, Note_on_c, 0, 87, 0
2, 129600, Note_on_c, 0, 88, 55
2, 130080, Note_on_c, 0, 88, 0
2, 130320, Note_on_c, 0, 64, 50
2, 130560, Note_on_c, 0, 64, 0
2, 130560, Note_on_c, 0, 62, 54
2, 130560, Note_on_c, 0, 65, 54
2, 131040, Note_on_c, 0, 65, 0
2, 131040, Note_on_c, 0, 62, 0
2, 131280, Note_on_c, 0, 62, 46
2, 131280, Note_on_c, 0, 65, 46
2, 131520, Note_on_c, 0, 65, 0
2, 131520, Note_on_c, 0, 62, 0
2, 131520, Note_on_c, 0, 59, 52
2, 131520, Note_on_c, 0, 68, 52
2, 132000, Note_on_c, 0, 68, 0
2, 132000, Note_on_c, 0, 59, 0
2, 132240, Note_on_c, 0, 59, 50
2, 132240, Note_on_c, 0, 68, 50
2, 132480, Note_on_c, 0, 68, 0
2, 132480, Note_on_c, 0, 59, 0
2, 132480, Note_on_c, 0, 60, 54
2, 132480, Note_on_c, 0, 69, 54
2, 132960, Note_on_c, 0, 69, 0
2, 132960, Note_on_c, 0, 60, 0
2, 133200, Note_on_c, 0, 60, 51
2, 133200, Note_on_c, 0, 69, 51
2, 133440, Note_on_c, 0, 69, 0
2, 133440, Note_on_c, 0, 60, 0
2, 133440, Note_on_c, 0, 61, 54
2, 133440, Note_on_c, 0, 67, 54
2, 133920, Note_on_c, 0, 67, 0
2, 133920, Note_on_c, 0, 61, 0
2, 134160, Note_on_c, 0, 61, 52
2, 134160, Note_on_c, 0, 67, 52
2, 134400, Note_on_c, 0, 67, 0
2, 134400, Note_on_c, 0, 61, 0
2, 134400, Note_on_c, 0, 62, 56
2, 134400, Note_on_c, 0, 66, 56
2, 134880, Note_on_c, 0, 66, 0
2, 134880, Note_on_c, 0, 62, 0
2, 135120, Note_on_c, 0, 85, 53
2, 135360, Note_on_c, 0, 85, 0
2, 135360, Note_on_c, 0, 86, 59
2, 135840, Note_on_c, 0, 86, 0
2, 136080, Note_on_c, 0, 62, 43
2, 136320, Note_on_c, 0, 62, 0
2, 136320, Note_on_c, 0, 61, 46
2, 136320, Note_on_c, 0, 64, 46
2, 136800, Note_on_c, 0, 64, 0
2, 136800, Note_on_c, 0, 61, 0
2, 137040, Note_on_c, 0, 61, 38
2, 137040, Note_on_c, 0, 64, 38
2, 137280, Note_on_c, 0, 64, 0
2, 137280, Note_on_c, 0, 61, 0
2, 137280, Note_on_c, 0, 60, 43
2, 137280, Note_on_c, 0, 66, 43
2, 137760, Note_on_c, 0, 66, 0
2, 137760, Note_on_c, 0, 60, 0
2, 138000, Note_on_c, 0, 62, 51
2, 138240, Note_on_c, 0, 62, 0
2, 138240, Control_c, 0, 91, 127
2, 138241, Note_on_c, 0, 67, 60
2, 138600, Note_on_c, 0, 71, 48
2, 138601, Note_on_c, 0, 67, 0
2, 138660, Note_on_c, 0, 71, 0
2, 138660, Note_on_c, 0, 69, 48
2, 138720, Note_on_c, 0, 69, 0
2, 138720, Note_on_c, 0, 67, 56
2, 138960, Note_on_c, 0, 67, 0
2, 139440, Note_on_c, 0, 62, 53
2, 139680, Note_on_c, 0, 62, 0
2, 139680, Note_on_c, 0, 67, 53
2, 139920, Note_on_c, 0, 67, 0
2, 139920, Note_on_c, 0, 71, 53
2, 140160, Note_on_c, 0, 71, 0
2, 140160, Note_on_c, 0, 71, 57
2, 140280, Note_on_c, 0, 71, 0
2, 140280, Note_on_c, 0, 69, 54
2, 140400, Note_on_c, 0, 69, 0
2, 140400, Note_on_c, 0, 67, 54
2, 140520, Note_on_c, 0, 67, 0
2, 140520, Note_on_c, 0, 69, 54
2, 140640, Note_on_c, 0, 69, 0
2, 140640, Note_on_c, 0, 67, 57
2, 140880, Note_on_c, 0, 67, 0
2, 140880, Note_on_c, 0, 74, 54
2, 141120, Note_on_c, 0, 74, 0
2, 141120, Note_on_c, 0, 74, 54
2, 141240, Note_on_c, 0, 74, 0
2, 141360, Note_on_c, 0, 74, 54
2, 141480, Note_on_c, 0, 74, 0
2, 141600, Note_on_c, 0, 74, 54
2, 141720, Note_on_c, 0, 74, 0
2, 141840, Note_on_c, 0, 74, 54
2, 141960, Note_on_c, 0, 74, 0
2, 142080, Note_on_c, 0, 74, 57
2, 142440, Note_on_c, 0, 74, 0
2, 142440, Note_on_c, 0, 76, 47
2, 142500, Note_on_c, 0, 76, 0
2, 142500, Note_on_c, 0, 74, 47
2, 142560, Note_on_c, 0, 74, 0
2, 142560, Note_on_c, 0, 72, 52
2, 142800, Note_on_c, 0, 72, 0
2, 142800, Note_on_c, 0, 71, 50
2, 143040, Note_on_c, 0, 71, 0
2, 143040, Note_on_c, 0, 69, 52
2, 143280, Note_on_c, 0, 69, 0
2, 143280, Note_on_c, 0, 81, 69
2, 143760, Note_on_c, 0, 81, 0
2, 143760, Note_on_c, 0, 79, 65
2, 144000, Note_on_c, 0, 79, 0
2, 144000, Note_on_c, 0, 79, 63
2, 144120, Note_on_c, 0, 79, 0
2, 144120, Note_on_c, 0, 78, 54
2, 144240, Note_on_c, 0, 78, 0
2, 144240, Note_on_c, 0, 76, 54
2, 144360, Note_on_c, 0, 76, 0
2, 144360, Note_on_c, 0, 74, 54
2, 144480, Note_on_c, 0, 74, 0
2, 144480, Note_on_c, 0, 74, 54
2, 144720, Note_on_c, 0, 74, 0
2, 144720, Note_on_c, 0, 74, 56
2, 144960, Note_on_c, 0, 74, 0
2, 144960, Note_on_c, 0, 74, 54
2, 145080, Note_on_c, 0, 74, 0
2, 145080, Note_on_c, 0, 76, 52
2, 145200, Note_on_c, 0, 76, 0
2, 145200, Note_on_c, 0, 72, 54
2, 145320, Note_on_c, 0, 72, 0
2, 145320, Note_on_c, 0, 74, 52
2, 145440, Note_on_c, 0, 74, 0
2, 145440, Note_on_c, 0, 71, 54
2, 145560, Note_on_c, 0, 71, 0
2, 145560, Note_on_c, 0, 72, 51
2, 145680, Note_on_c, 0, 72, 0
2, 145680, Note_on_c, 0, 69, 54
2, 145800, Note_on_c, 0, 69, 0
2, 145800, Note_on_c, 0, 71, 52
2, 145920, Note_on_c, 0, 71, 0
2, 145920, Control_c, 0, 91, 127
2, 145921, Note_on_c, 0, 67, 60
2, 146280, Note_on_c, 0, 71, 46
2, 146281, Note_on_c, 0, 67, 0
2, 146340, Note_on_c, 0, 71, 0
2, 146340, Note_on_c, 0, 69, 47
2, 146400, Note_on_c, 0, 69, 0
2, 146400, Note_on_c, 0, 67, 56
2, 146520, Note_on_c, 0, 67, 0
2, 146520, Note_on_c, 0, 62, 48
2, 146640, Note_on_c, 0, 62, 0
2, 146640, Note_on_c, 0, 71, 48
2, 146760, Note_on_c, 0, 71, 0
2, 146760, Note_on_c, 0, 69, 48
2, 146880, Note_on_c, 0, 69, 0
2, 146880, Note_on_c, 0, 67, 56
2, 147000, Note_on_c, 0, 67, 0
2, 147000, Note_on_c, 0, 62, 48
2, 147120, Note_on_c, 0, 62, 0
2, 147120, Note_on_c, 0, 67, 48
2, 147240, Note_on_c, 0, 67, 0
2, 147240, Note_on_c, 0, 71, 48
2, 147360, Note_on_c, 0, 71, 0
2, 147360, Note_on_c, 0, 74, 56
2, 147480, Note_on_c, 0, 74, 0
2, 147480, Note_on_c, 0, 71, 52
2, 147600, Note_on_c, 0, 71, 0
2, 147600, Note_on_c, 0, 69, 52
2, 147720, Note_on_c, 0, 69, 0
2, 147720, Note_on_c, 0, 67, 52
2, 147840, Note_on_c, 0, 67, 0
2, 147840, Note_on_c, 0, 71, 59
2, 147960, Note_on_c, 0, 71, 0
2, 147960, Note_on_c, 0, 69, 52
2, 148080, Note_on_c, 0, 69, 0
2, 148080, Note_on_c, 0, 67, 52
2, 148200, Note_on_c, 0, 67, 0
2, 148200, Note_on_c, 0, 69, 52
2, 148320, Note_on_c, 0, 69, 0
2, 148320, Note_on_c, 0, 67, 54
2, 148560, Note_on_c, 0, 67, 0
2, 148560, Note_on_c, 0, 76, 54
2, 148800, Note_on_c, 0, 76, 0
2, 148800, Note_on_c, 0, 75, 51
2, 148920, Note_on_c, 0, 75, 0
2, 148920, Note_on_c, 0, 76, 52
2, 149040, Note_on_c, 0, 76, 0
2, 149040, Note_on_c, 0, 77, 53
2, 149160, Note_on_c, 0, 77, 0
2, 149160, Note_on_c, 0, 78, 54
2, 149280, Note_on_c, 0, 78, 0
2, 149280, Note_on_c, 0, 79, 56
2, 149400, Note_on_c, 0, 79, 0
2, 149400, Note_on_c, 0, 80, 57
2, 149520, Note_on_c, 0, 80, 0
2, 149520, Note_on_c, 0, 81, 58
2, 149640, Note_on_c, 0, 81, 0
2, 149640, Note_on_c, 0, 82, 59
2, 149760, Note_on_c, 0, 82, 0
2, 149760, Note_on_c, 0, 83, 68
2, 150240, Note_on_c, 0, 83, 0
2, 150240, Note_on_c, 0, 81, 60
2, 150360, Note_on_c, 0, 81, 0
2, 150360, Note_on_c, 0, 79, 56
2, 150480, Note_on_c, 0, 79, 0
2, 150480, Note_on_c, 0, 78, 56
2, 150600, Note_on_c, 0, 78, 0
2, 150600, Note_on_c, 0, 76, 56
2, 150720, Note_on_c, 0, 76, 0
2, 150720, Note_on_c, 0, 74, 60
2, 151200, Note_on_c, 0, 74, 0
2, 151200, Note_on_c, 0, 73, 52
2, 151280, Note_on_c, 0, 73, 0
2, 151280, Note_on_c, 0, 74, 43
2, 151360, Note_on_c, 0, 74, 0
2, 151360, Note_on_c, 0, 73, 48
2, 151440, Note_on_c, 0, 73, 0
2, 151440, Note_on_c, 0, 74, 43
2, 151500, Note_on_c, 0, 74, 0
2, 151500, Note_on_c, 0, 73, 48
2, 151560, Note_on_c, 0, 73, 0
2, 151560, Note_on_c, 0, 74, 42
2, 151620, Note_on_c, 0, 74, 0
2, 151620, Note_on_c, 0, 73, 47
2, 151680, Note_on_c, 0, 73, 0
2, 151680, Note_on_c, 0, 74, 54
2, 151800, Note_on_c, 0, 74, 0
2, 151800, Note_on_c, 0, 76, 50
2, 151920, Note_on_c, 0, 76, 0
2, 151920, Note_on_c, 0, 78, 51
2, 152040, Note_on_c, 0, 78, 0
2, 152040, Note_on_c, 0, 79, 52
2, 152160, Note_on_c, 0, 79, 0
2, 152160, Note_on_c, 0, 81, 53
2, 152280, Note_on_c, 0, 81, 0
2, 152280, Note_on_c, 0, 83, 54
2, 152400, Note_on_c, 0, 83, 0
2, 152400, Note_on_c, 0, 85, 55
2, 152520, Note_on_c, 0, 85, 0
2, 152520, Note_on_c, 0, 86, 56
2, 152640, Note_on_c, 0, 86, 0
2, 152640, Note_on_c, 0, 85, 59
2, 152760, Note_on_c, 0, 85, 0
2, 152760, Note_on_c, 0, 88, 55
2, 152880, Note_on_c, 0, 88, 0
2, 152880, Note_on_c, 0, 85, 55
2, 153000, Note_on_c, 0, 85, 0
2, 153000, Note_on_c, 0, 81, 55
2, 153120, Note_on_c, 0, 81, 0
2, 153120, Note_on_c, 0, 79, 58
2, 153240, Note_on_c, 0, 79, 0
2, 153240, Note_on_c, 0, 83, 55
2, 153360, Note_on_c, 0, 83, 0
2, 153360, Note_on_c, 0, 79, 55
2, 153480, Note_on_c, 0, 79, 0
2, 153480, Note_on_c, 0, 76, 55
2, 153600, Note_on_c, 0, 76, 0
2, 153600, Note_on_c, 0, 78, 57
2, 153720, Note_on_c, 0, 78, 0
2, 153720, Note_on_c, 0, 81, 53
2, 153840, Note_on_c, 0, 81, 0
2, 153840, Note_on_c, 0, 79, 53
2, 153960, Note_on_c, 0, 79, 0
2, 153960, Note_on_c, 0, 78, 53
2, 154080, Note_on_c, 0, 78, 0
2, 154080, Note_on_c, 0, 76, 55
2, 154200, Note_on_c, 0, 76, 0
2, 154200, Note_on_c, 0, 74, 53
2, 154320, Note_on_c, 0, 74, 0
2, 154320, Note_on_c, 0, 73, 53
2, 154440, Note_on_c, 0, 73, 0
2, 154440, Note_on_c, 0, 71, 53
2, 154560, Note_on_c, 0, 71, 0
2, 154560, Note_on_c, 0, 69, 56
2, 154680, Note_on_c, 0, 69, 0
2, 154680, Note_on_c, 0, 71, 52
2, 154800, Note_on_c, 0, 71, 0
2, 154800, Note_on_c, 0, 73, 52
2, 154920, Note_on_c, 0, 73, 0
2, 154920, Note_on_c, 0, 74, 52
2, 155040, Note_on_c, 0, 74, 0
2, 155040, Note_on_c, 0, 76, 55
2, 155160, Note_on_c, 0, 76, 0
2, 155160, Note_on_c, 0, 78, 51
2, 155280, Note_on_c, 0, 78, 0
2, 155280, Note_on_c, 0, 79, 53
2, 155400, Note_on_c, 0, 79, 0
2, 155400, Note_on_c, 0, 76, 54
2, 155520, Note_on_c, 0, 76, 0
2, 155520, Note_on_c, 0, 74, 56
2, 155640, Note_on_c, 0, 74, 0
2, 155640, Note_on_c, 0, 76, 56
2, 155760, Note_on_c, 0, 76, 0
2, 155760, Note_on_c, 0, 78, 59
2, 155880, Note_on_c, 0, 78, 0
2, 155880, Note_on_c, 0, 79, 61
2, 156000, Note_on_c, 0, 79, 0
2, 156000, Note_on_c, 0, 81, 61
2, 156120, Note_on_c, 0, 81, 0
2, 156120, Note_on_c, 0, 83, 64
2, 156240, Note_on_c, 0, 83, 0
2, 156240, Note_on_c, 0, 85, 66
2, 156360, Note_on_c, 0, 85, 0
2, 156360, Note_on_c, 0, 86, 66
2, 156420, Note_on_c, 0, 86, 0
2, 156480, Note_on_c, 0, 74, 64
2, 156960, Note_on_c, 0, 74, 0
2, 157440, Control_c, 0, 91, 127
2, 157441, Note_on_c, 0, 67, 60
2, 157800, Note_on_c, 0, 71, 46
2, 157801, Note_on_c, 0, 67, 0
2, 157860, Note_on_c, 0, 71, 0
2, 157860, Note_on_c, 0, 69, 47
2, 157920, Note_on_c, 0, 69, 0
2, 157920, Note_on_c, 0, 67, 56
2, 158040, Note_on_c, 0, 67, 0
2, 158040, Note_on_c, 0, 62, 48
2, 158160, Note_on_c, 0, 62, 0
2, 158160, Note_on_c, 0, 71, 48
2, 158280, Note_on_c, 0, 71, 0
2, 158280, Note_on_c, 0, 69, 48
2, 158400, Note_on_c, 0, 69, 0
2, 158400, Note_on_c, 0, 67, 56
2, 158520, Note_on_c, 0, 67, 0
2, 158520, Note_on_c, 0, 62, 48
2, 158640, Note_on_c, 0, 62, 0
2, 158640, Note_on_c, 0, 67, 48
2, 158760, Note_on_c, 0, 67, 0
2, 158760, Note_on_c, 0, 71, 48
2, 158880, Note_on_c, 0, 71, 0
2, 158880, Note_on_c, 0, 74, 56
2, 159000, Note_on_c, 0, 74, 0
2, 159000, Note_on_c, 0, 71, 52
2, 159120, Note_on_c, 0, 71, 0
2, 159120, Note_on_c, 0, 69, 52
2, 159240, Note_on_c, 0, 69, 0
2, 159240, Note_on_c, 0, 67, 52
2, 159360, Note_on_c, 0, 67, 0
2, 159360, Note_on_c, 0, 71, 59
2, 159480, Note_on_c, 0, 71, 0
2, 159480, Note_on_c, 0, 69, 52
2, 159600, Note_on_c, 0, 69, 0
2, 159600, Note_on_c, 0, 67, 52
2, 159720, Note_on_c, 0, 67, 0
2, 159720, Note_on_c, 0, 69, 52
2, 159840, Note_on_c, 0, 69, 0
2, 159840, Note_on_c, 0, 67, 54
2, 160080, Note_on_c, 0, 67, 0
2, 160080, Note_on_c, 0, 74, 52
2, 160320, Note_on_c, 0, 74, 0
2, 160320, Note_on_c, 0, 74, 54
2, 160560, Note_on_c, 0, 74, 0
2, 160560, Note_on_c, 0, 74, 52
2, 160800, Note_on_c, 0, 74, 0
2, 160800, Note_on_c, 0, 74, 52
2, 161040, Note_on_c, 0, 74, 0
2, 161040, Note_on_c, 0, 74, 52
2, 161280, Note_on_c, 0, 74, 0
2, 161280, Note_on_c, 0, 74, 57
2, 161400, Note_on_c, 0, 74, 0
2, 161400, Note_on_c, 0, 79, 54
2, 161520, Note_on_c, 0, 79, 0
2, 161520, Note_on_c, 0, 76, 54
2, 161640, Note_on_c, 0, 76, 0
2, 161640, Note_on_c, 0, 74, 54
2, 161760, Note_on_c, 0, 74, 0
2, 161760, Note_on_c, 0, 72, 57
2, 161880, Note_on_c, 0, 72, 0
2, 161880, Note_on_c, 0, 76, 54
2, 162000, Note_on_c, 0, 76, 0
2, 162000, Note_on_c, 0, 72, 54
2, 162120, Note_on_c, 0, 72, 0
2, 162120, Note_on_c, 0, 71, 54
2, 162240, Note_on_c, 0, 71, 0
2, 162240, Note_on_c, 0, 69, 57
2, 162360, Note_on_c, 0, 69, 0
2, 162360, Note_on_c, 0, 88, 57
2, 162480, Note_on_c, 0, 88, 0
2, 162480, Note_on_c, 0, 84, 57
2, 162600, Note_on_c, 0, 84, 0
2, 162600, Note_on_c, 0, 83, 57
2, 162720, Note_on_c, 0, 83, 0
2, 162720, Note_on_c, 0, 81, 57
2, 162840, Note_on_c, 0, 81, 0
2, 162840, Note_on_c, 0, 84, 54
2, 162960, Note_on_c, 0, 84, 0
2, 162960, Note_on_c, 0, 81, 54
2, 163080, Note_on_c, 0, 81, 0
2, 163080, Note_on_c, 0, 79, 54
2, 163200, Note_on_c, 0, 79, 0
2, 163200, Note_on_c, 0, 78, 57
2, 163320, Note_on_c, 0, 78, 0
2, 163320, Note_on_c, 0, 79, 54
2, 163440, Note_on_c, 0, 79, 0
2, 163440, Note_on_c, 0, 81, 54
2, 163560, Note_on_c, 0, 81, 0
2, 163560, Note_on_c, 0, 79, 54
2, 163680, Note_on_c, 0, 79, 0
2, 163680, Note_on_c, 0, 78, 56
2, 163800, Note_on_c, 0, 78, 0
2, 163800, Note_on_c, 0, 76, 54
2, 163920, Note_on_c, 0, 76, 0
2, 163920, Note_on_c, 0, 74, 54
2, 164040, Note_on_c, 0, 74, 0
2, 164040, Note_on_c, 0, 73, 54
2, 164160, Note_on_c, 0, 73, 0
2, 164160, Note_on_c, 0, 74, 58
2, 164280, Note_on_c, 0, 74, 0
2, 164280, Note_on_c, 0, 86, 54
2, 164400, Note_on_c, 0, 86, 0
2, 164400, Note_on_c, 0, 72, 58
2, 164520, Note_on_c, 0, 72, 0
2, 164520, Note_on_c, 0, 84, 53
2, 164640, Note_on_c, 0, 84, 0
2, 164640, Note_on_c, 0, 71, 61
2, 164760, Note_on_c, 0, 71, 0
2, 164760, Note_on_c, 0, 83, 56
2, 164880, Note_on_c, 0, 83, 0
2, 164880, Note_on_c, 0, 69, 61
2, 165000, Note_on_c, 0, 69, 0
2, 165000, Note_on_c, 0, 81, 56
2, 165120, Note_on_c, 0, 81, 0
2, 165120, Control_c, 0, 91, 127
2, 165121, Note_on_c, 0, 67, 66
2, 165480, Note_on_c, 0, 71, 46
2, 165481, Note_on_c, 0, 67, 0
2, 165540, Note_on_c, 0, 71, 0
2, 165540, Note_on_c, 0, 69, 47
2, 165600, Note_on_c, 0, 69, 0
2, 165600, Note_on_c, 0, 67, 56
2, 165720, Note_on_c, 0, 67, 0
2, 165720, Note_on_c, 0, 62, 48
2, 165840, Note_on_c, 0, 62, 0
2, 165840, Note_on_c, 0, 71, 48
2, 165960, Note_on_c, 0, 71, 0
2, 165960, Note_on_c, 0, 69, 48
2, 166080, Note_on_c, 0, 69, 0
2, 166080, Note_on_c, 0, 67, 56
2, 166200, Note_on_c, 0, 67, 0
2, 166200, Note_on_c, 0, 62, 48
2, 166320, Note_on_c, 0, 62, 0
2, 166320, Note_on_c, 0, 67, 48
2, 166440, Note_on_c, 0, 67, 0
2, 166440, Note_on_c, 0, 71, 48
2, 166560, Note_on_c, 0, 71, 0
2, 166560, Note_on_c, 0, 74, 56
2, 166680, Note_on_c, 0, 74, 0
2, 166680, Note_on_c, 0, 71, 52
2, 166800, Note_on_c, 0, 71, 0
2, 166800, Note_on_c, 0, 69, 52
2, 166920, Note_on_c, 0, 69, 0
2, 166920, Note_on_c, 0, 67, 52
2, 167040, Note_on_c, 0, 67, 0
2, 167040, Note_on_c, 0, 71, 59
2, 167160, Note_on_c, 0, 71, 0
2, 167160, Note_on_c, 0, 69, 52
2, 167280, Note_on_c, 0, 69, 0
2, 167280, Note_on_c, 0, 67, 52
2, 167400, Note_on_c, 0, 67, 0
2, 167400, Note_on_c, 0, 69, 52
2, 167520, Note_on_c, 0, 69, 0
2, 167520, Note_on_c, 0, 67, 54
2, 167760, Note_on_c, 0, 67, 0
2, 167760, Note_on_c, 0, 76, 54
2, 168000, Note_on_c, 0, 76, 0
2, 168000, Note_on_c, 0, 75, 51
2, 168120, Note_on_c, 0, 75, 0
2, 168120, Note_on_c, 0, 76, 52
2, 168240, Note_on_c, 0, 76, 0
2, 168240, Note_on_c, 0, 77, 53
2, 168360, Note_on_c, 0, 77, 0
2, 168360, Note_on_c, 0, 78, 54
2, 168480, Note_on_c, 0, 78, 0
2, 168480, Note_on_c, 0, 79, 56
2, 168600, Note_on_c, 0, 79, 0
2, 168600, Note_on_c, 0, 80, 57
2, 168720, Note_on_c, 0, 80, 0
2, 168720, Note_on_c, 0, 81, 58
2, 168840, Note_on_c, 0, 81, 0
2, 168840, Note_on_c, 0, 82, 59
2, 168960, Note_on_c, 0, 82, 0
2, 168960, Note_on_c, 0, 83, 68
2, 169440, Note_on_c, 0, 83, 0
2, 169440, Note_on_c, 0, 81, 60
2, 169560, Note_on_c, 0, 81, 0
2, 169560, Note_on_c, 0, 79, 56
2, 169680, Note_on_c, 0, 79, 0
2, 169680, Note_on_c, 0, 78, 56
2, 169800, Note_on_c, 0, 78, 0
2, 169800, Note_on_c, 0, 76, 56
2, 169920, Note_on_c, 0, 76, 0
2, 169920, Note_on_c, 0, 74, 60
2, 170400, Note_on_c, 0, 74, 0
2, 170400, Note_on_c, 0, 73, 52
2, 170480, Note_on_c, 0, 73, 0
2, 170480, Note_on_c, 0, 74, 43
2, 170560, Note_on_c, 0, 74, 0
2, 170560, Note_on_c, 0, 73, 48
2, 170640, Note_on_c, 0, 73, 0
2, 170640, Note_on_c, 0, 74, 43
2, 170700, Note_on_c, 0, 74, 0
2, 170700, Note_on_c, 0, 73, 48
2, 170760, Note_on_c, 0, 73, 0
2, 170760, Note_on_c, 0, 74, 42
2, 170820, Note_on_c, 0, 74, 0
2, 170820, Note_on_c, 0, 73, 47
2, 170880, Note_on_c, 0, 73, 0
2, 170880, Note_on_c, 0, 74, 54
2, 171000, Note_on_c, 0, 74, 0
2, 171000, Note_on_c, 0, 76, 50
2, 171120, Note_on_c, 0, 76, 0
2, 171120, Note_on_c, 0, 78, 51
2, 171240, Note_on_c, 0, 78, 0
2, 171240, Note_on_c, 0, 79, 52
2, 171360, Note_on_c, 0, 79, 0
2, 171360, Note_on_c, 0, 81, 53
2, 171480, Note_on_c, 0, 81, 0
2, 171480, Note_on_c, 0, 83, 54
2, 171600, Note_on_c, 0, 83, 0
2, 171600, Note_on_c, 0, 85, 55
2, 171720, Note_on_c, 0, 85, 0
2, 171720, Note_on_c, 0, 86, 56
2, 171840, Note_on_c, 0, 86, 0
2, 171840, Note_on_c, 0, 85, 59
2, 171960, Note_on_c, 0, 85, 0
2, 171960, Note_on_c, 0, 88, 55
2, 172080, Note_on_c, 0, 88, 0
2, 172080, Note_on_c, 0, 85, 55
2, 172200, Note_on_c, 0, 85, 0
2, 172200, Note_on_c, 0, 81, 55
2, 172320, Note_on_c, 0, 81, 0
2, 172320, Note_on_c, 0, 79, 58
2, 172440, Note_on_c, 0, 79, 0
2, 172440, Note_on_c, 0, 83, 55
2, 172560, Note_on_c, 0, 83, 0
2, 172560, Note_on_c, 0, 79, 55
2, 172680, Note_on_c, 0, 79, 0
2, 172680, Note_on_c, 0, 76, 55
2, 172800, Note_on_c, 0, 76, 0
2, 172800, Note_on_c, 0, 78, 57
2, 172920, Note_on_c, 0, 78, 0
2, 172920, Note_on_c, 0, 81, 53
2, 173040, Note_on_c, 0, 81, 0
2, 173040, Note_on_c, 0, 79, 53
2, 173160, Note_on_c, 0, 79, 0
2, 173160, Note_on_c, 0, 78, 53
2, 173280, Note_on_c, 0, 78, 0
2, 173280, Note_on_c, 0, 76, 55
2, 173400, Note_on_c, 0, 76, 0
2, 173400, Note_on_c, 0, 74, 53
2, 173520, Note_on_c, 0, 74, 0
2, 173520, Note_on_c, 0, 73, 53
2, 173640, Note_on_c, 0, 73, 0
2, 173640, Note_on_c, 0, 71, 53
2, 173760, Note_on_c, 0, 71, 0
2, 173760, Note_on_c, 0, 69, 56
2, 173880, Note_on_c, 0, 69, 0
2, 173880, Note_on_c, 0, 71, 52
2, 174000, Note_on_c, 0, 71, 0
2, 174000, Note_on_c, 0, 73, 52
2, 174120, Note_on_c, 0, 73, 0
2, 174120, Note_on_c, 0, 74, 52
2, 174240, Note_on_c, 0, 74, 0
2, 174240, Note_on_c, 0, 76, 55
2, 174360, Note_on_c, 0, 76, 0
2, 174360, Note_on_c, 0, 78, 51
2, 174480, Note_on_c, 0, 78, 0
2, 174480, Note_on_c, 0, 79, 53
2, 174600, Note_on_c, 0, 79, 0
2, 174600, Note_on_c, 0, 76, 54
2, 174720, Note_on_c, 0, 76, 0
2, 174720, Note_on_c, 0, 74, 56
2, 174840, Note_on_c, 0, 74, 0
2, 174840, Note_on_c, 0, 76, 56
2, 174960, Note_on_c, 0, 76, 0
2, 174960, Note_on_c, 0, 78, 59
2, 175080, Note_on_c, 0, 78, 0
2, 175080, Note_on_c, 0, 79, 61
2, 175200, Note_on_c, 0, 79, 0
2, 175200, Note_on_c, 0, 81, 61
2, 175320, Note_on_c, 0, 81, 0
2, 175320, Note_on_c, 0, 83, 63
2, 175440, Note_on_c, 0, 83, 0
2, 175440, Note_on_c, 0, 85, 66
2, 175560, Note_on_c, 0, 85, 0
2, 175560, Note_on_c, 0, 86, 69
2, 175620, Note_on_c, 0, 86, 0
2, 175680, Note_on_c, 0, 74, 66
2, 176160, Note_on_c, 0, 74, 0
2, 176640, Note_on_c, 0, 77, 54
2, 177000, Note_on_c, 0, 77, 0
2, 177000, Note_on_c, 0, 74, 47
2, 177060, Note_on_c, 0, 74, 0
2, 177060, Note_on_c, 0, 75, 47
2, 177120, Note_on_c, 0, 75, 0
2, 177120, Note_on_c, 0, 77, 55
2, 177360, Note_on_c, 0, 77, 0
2, 177360, Note_on_c, 0, 89, 84
2, 177840, Note_on_c, 0, 89, 0
2, 177840, Note_on_c, 0, 69, 51
2, 178080, Note_on_c, 0, 69, 0
2, 178080, Note_on_c, 0, 69, 51
2, 178320, Note_on_c, 0, 69, 0
2, 178320, Note_on_c, 0, 69, 51
2, 178560, Note_on_c, 0, 69, 0
2, 178560, Note_on_c, 0, 70, 54
2, 178920, Note_on_c, 0, 70, 0
2, 178920, Note_on_c, 0, 70, 47
2, 178980, Note_on_c, 0, 70, 0
2, 178980, Note_on_c, 0, 72, 47
2, 179040, Note_on_c, 0, 72, 0
2, 179040, Note_on_c, 0, 74, 55
2, 179280, Note_on_c, 0, 74, 0
2, 179280, Note_on_c, 0, 86, 79
2, 179760, Note_on_c, 0, 86, 0
2, 179760, Note_on_c, 0, 66, 51
2, 180000, Note_on_c, 0, 66, 0
2, 180000, Note_on_c, 0, 66, 51
2, 180240, Note_on_c, 0, 66, 0
2, 180240, Note_on_c, 0, 66, 51
2, 180480, Note_on_c, 0, 66, 0
2, 180480, Note_on_c, 0, 67, 59
2, 180840, Note_on_c, 0, 67, 0
2, 180840, Note_on_c, 0, 67, 47
2, 180900, Note_on_c, 0, 67, 0
2, 180900, Note_on_c, 0, 69, 47
2, 180960, Note_on_c, 0, 69, 0
2, 180960, Note_on_c, 0, 70, 59
2, 181200, Note_on_c, 0, 70, 0
2, 181200, Note_on_c, 0, 82, 78
2, 181680, Note_on_c, 0, 82, 0
2, 181680, Note_on_c, 0, 61, 55
2, 181920, Note_on_c, 0, 61, 0
2, 181920, Note_on_c, 0, 61, 55
2, 182160, Note_on_c, 0, 61, 0
2, 182160, Note_on_c, 0, 61, 55
2, 182400, Note_on_c, 0, 61, 0
2, 182400, Note_on_c, 0, 62, 54
2, 182520, Note_on_c, 0, 62, 0
2, 182520, Note_on_c, 0, 64, 56
2, 182640, Note_on_c, 0, 64, 0
2, 182640, Note_on_c, 0, 66, 57
2, 182760, Note_on_c, 0, 66, 0
2, 182760, Note_on_c, 0, 67, 59
2, 182880, Note_on_c, 0, 67, 0
2, 182880, Note_on_c, 0, 69, 60
2, 183000, Note_on_c, 0, 69, 0
2, 183000, Note_on_c, 0, 66, 57
2, 183120, Note_on_c, 0, 66, 0
2, 183120, Note_on_c, 0, 67, 60
2, 183240, Note_on_c, 0, 67, 0
2, 183240, Note_on_c, 0, 64, 56
2, 183360, Note_on_c, 0, 64, 0
2, 183360, Note_on_c, 0, 62, 68
2, 183840, Note_on_c, 0, 62, 0
2, 184320, Control_c, 0, 91, 127
2, 184321, Note_on_c, 0, 67, 60
2, 184680, Note_on_c, 0, 71, 46
2, 184681, Note_on_c, 0, 67, 0
2, 184740, Note_on_c, 0, 71, 0
2, 184740, Note_on_c, 0, 69, 47
2, 184800, Note_on_c, 0, 69, 0
2, 184800, Note_on_c, 0, 67, 56
2, 184920, Note_on_c, 0, 67, 0
2, 184920, Note_on_c, 0, 62, 48
2, 185040, Note_on_c, 0, 62, 0
2, 185040, Note_on_c, 0, 71, 48
2, 185160, Note_on_c, 0, 71, 0
2, 185160, Note_on_c, 0, 69, 48
2, 185280, Note_on_c, 0, 69, 0
2, 185280, Note_on_c, 0, 67, 56
2, 185400, Note_on_c, 0, 67, 0
2, 185400, Note_on_c, 0, 62, 48
2, 185520, Note_on_c, 0, 62, 0
2, 185520, Note_on_c, 0, 67, 48
2, 185640, Note_on_c, 0, 67, 0
2, 185640, Note_on_c, 0, 71, 48
2, 185760, Note_on_c, 0, 71, 0
2, 185760, Note_on_c, 0, 74, 56
2, 185880, Note_on_c, 0, 74, 0
2, 185880, Note_on_c, 0, 71, 52
2, 186000, Note_on_c, 0, 71, 0
2, 186000, Note_on_c, 0, 69, 52
2, 186120, Note_on_c, 0, 69, 0
2, 186120, Note_on_c, 0, 67, 52
2, 186240, Note_on_c, 0, 67, 0
2, 186240, Note_on_c, 0, 71, 59
2, 186360, Note_on_c, 0, 71, 0
2, 186360, Note_on_c, 0, 69, 52
2, 186480, Note_on_c, 0, 69, 0
2, 186480, Note_on_c, 0, 67, 52
2, 186600, Note_on_c, 0, 67, 0
2, 186600, Note_on_c, 0, 69, 52
2, 186720, Note_on_c, 0, 69, 0
2, 186720, Note_on_c, 0, 67, 54
2, 186960, Note_on_c, 0, 67, 0
2, 186960, Note_on_c, 0, 88, 46
2, 187080, Note_on_c, 0, 88, 0
2, 187080, Note_on_c, 0, 76, 44
2, 187200, Note_on_c, 0, 76, 0
2, 187200, Note_on_c, 0, 88, 47
2, 187320, Note_on_c, 0, 88, 0
2, 187320, Note_on_c, 0, 76, 44
2, 187440, Note_on_c, 0, 76, 0
2, 187440, Note_on_c, 0, 88, 49
2, 187560, Note_on_c, 0, 88, 0
2, 187560, Note_on_c, 0, 76, 45
2, 187680, Note_on_c, 0, 76, 0
2, 187680, Note_on_c, 0, 88, 51
2, 187800, Note_on_c, 0, 88, 0
2, 187800, Note_on_c, 0, 76, 46
2, 187920, Note_on_c, 0, 76, 0
2, 187920, Note_on_c, 0, 88, 52
2, 188040, Note_on_c, 0, 88, 0
2, 188040, Note_on_c, 0, 76, 49
2, 188160, Note_on_c, 0, 76, 0
2, 188160, Note_on_c, 0, 88, 54
2, 188460, Note_on_c, 0, 88, 0
2, 188460, Note_on_c, 0, 86, 48
2, 188520, Note_on_c, 0, 86, 0
2, 188520, Note_on_c, 0, 84, 48
2, 188580, Note_on_c, 0, 84, 0
2, 188580, Note_on_c, 0, 83, 47
2, 188640, Note_on_c, 0, 83, 0
2, 188640, Note_on_c, 0, 81, 47
2, 188880, Note_on_c, 0, 81, 0
2, 188880, Note_on_c, 0, 86, 46
2, 189000, Note_on_c, 0, 86, 0
2, 189000, Note_on_c, 0, 74, 44
2, 189120, Note_on_c, 0, 74, 0
2, 189120, Note_on_c, 0, 86, 47
2, 189240, Note_on_c, 0, 86, 0
2, 189240, Note_on_c, 0, 74, 44
2, 189360, Note_on_c, 0, 74, 0
2, 189360, Note_on_c, 0, 86, 49
2, 189480, Note_on_c, 0, 86, 0
2, 189480, Note_on_c, 0, 74, 45
2, 189600, Note_on_c, 0, 74, 0
2, 189600, Note_on_c, 0, 86, 51
2, 189720, Note_on_c, 0, 86, 0
2, 189720, Note_on_c, 0, 74, 46
2, 189840, Note_on_c, 0, 74, 0
2, 189840, Note_on_c, 0, 86, 52
2, 189960, Note_on_c, 0, 86, 0
2, 189960, Note_on_c, 0, 74, 49
2, 190080, Note_on_c, 0, 74, 0
2, 190080, Note_on_c, 0, 86, 54
2, 190380, Note_on_c, 0, 86, 0
2, 190380, Note_on_c, 0, 84, 48
2, 190440, Note_on_c, 0, 84, 0
2, 190440, Note_on_c, 0, 83, 48
2, 190500, Note_on_c, 0, 83, 0
2, 190500, Note_on_c, 0, 81, 47
2, 190560, Note_on_c, 0, 81, 0
2, 190560, Note_on_c, 0, 79, 47
2, 190800, Note_on_c, 0, 79, 0
2, 192720, Note_on_c, 0, 86, 39
2, 192780, Note_on_c, 0, 86, 0
2, 192780, Note_on_c, 0, 84, 39
2, 192840, Note_on_c, 0, 84, 0
2, 192840, Note_on_c, 0, 83, 39
2, 192900, Note_on_c, 0, 83, 0
2, 192900, Note_on_c, 0, 81, 39
2, 192960, Note_on_c, 0, 81, 0
2, 192960, Note_on_c, 0, 79, 47
2, 193080, Note_on_c, 0, 79, 0
2, 193200, Note_on_c, 0, 83, 39
2, 193260, Note_on_c, 0, 83, 0
2, 193260, Note_on_c, 0, 81, 39
2, 193320, Note_on_c, 0, 81, 0
2, 193320, Note_on_c, 0, 79, 39
2, 193380, Note_on_c, 0, 79, 0
2, 193380, Note_on_c, 0, 78, 39
2, 193440, Note_on_c, 0, 78, 0
2, 193440, Note_on_c, 0, 76, 50
2, 193560, Note_on_c, 0, 76, 0
2, 193680, Note_on_c, 0, 79, 38
2, 193740, Note_on_c, 0, 79, 0
2, 193740, Note_on_c, 0, 78, 38
2, 193800, Note_on_c, 0, 78, 0
2, 193800, Note_on_c, 0, 76, 38
2, 193860, Note_on_c, 0, 76, 0
2, 193860, Note_on_c, 0, 74, 38
2, 193920, Note_on_c, 0, 74, 0
2, 193920, Note_on_c, 0, 72, 50
2, 194400, Note_on_c, 0, 72, 0
2, 194640, Note_on_c, 0, 79, 52
2, 194700, Note_on_c, 0, 79, 0
2, 194700, Note_on_c, 0, 77, 52
2, 194760, Note_on_c, 0, 77, 0
2, 194760, Note_on_c, 0, 75, 52
2, 194820, Note_on_c, 0, 75, 0
2, 194820, Note_on_c, 0, 74, 52
2, 194880, Note_on_c, 0, 74, 0
2, 194880, Note_on_c, 0, 72, 63
2, 195120, Note_on_c, 0, 72, 0
2, 195120, Note_on_c, 0, 83, 63
2, 195360, Note_on_c, 0, 83, 0
2, 195360, Note_on_c, 0, 84, 71
2, 195600, Note_on_c, 0, 84, 0
2, 195600, Note_on_c, 0, 84, 66
2, 195840, Note_on_c, 0, 84, 0
2, 195840, Note_on_c, 0, 84, 64
2, 195960, Note_on_c, 0, 84, 0
2, 195960, Note_on_c, 0, 83, 57
2, 196080, Note_on_c, 0, 83, 0
2, 196080, Note_on_c, 0, 84, 57
2, 196200, Note_on_c, 0, 84, 0
2, 196200, Note_on_c, 0, 81, 57
2, 196320, Note_on_c, 0, 81, 0
2, 196320, Note_on_c, 0, 83, 64
2, 196440, Note_on_c, 0, 83, 0
2, 196440, Note_on_c, 0, 81, 57
2, 196560, Note_on_c, 0, 81, 0
2, 196560, Note_on_c, 0, 83, 57
2, 196680, Note_on_c, 0, 83, 0
2, 196680, Note_on_c, 0, 79, 57
2, 196800, Note_on_c, 0, 79, 0
2, 196800, Note_on_c, 0, 81, 63
2, 196920, Note_on_c, 0, 81, 0
2, 196920, Note_on_c, 0, 80, 57
2, 197040, Note_on_c, 0, 80, 0
2, 197040, Note_on_c, 0, 81, 57
2, 197160, Note_on_c, 0, 81, 0
2, 197160, Note_on_c, 0, 76, 57
2, 197280, Note_on_c, 0, 76, 0
2, 197280, Note_on_c, 0, 79, 63
2, 197400, Note_on_c, 0, 79, 0
2, 197400, Note_on_c, 0, 78, 57
2, 197520, Note_on_c, 0, 78, 0
2, 197520, Note_on_c, 0, 76, 57
2, 197640, Note_on_c, 0, 76, 0
2, 197640, Note_on_c, 0, 74, 57
2, 197760, Note_on_c, 0, 74, 0
2, 197760, Note_on_c, 0, 79, 65
2, 197880, Note_on_c, 0, 79, 0
2, 197880, Note_on_c, 0, 74, 56
2, 198000, Note_on_c, 0, 74, 0
2, 198000, Note_on_c, 0, 79, 58
2, 198120, Note_on_c, 0, 79, 0
2, 198120, Note_on_c, 0, 83, 61
2, 198240, Note_on_c, 0, 83, 0
2, 198240, Note_on_c, 0, 86, 68
2, 198360, Note_on_c, 0, 86, 0
2, 198360, Note_on_c, 0, 83, 62
2, 198480, Note_on_c, 0, 83, 0
2, 198480, Note_on_c, 0, 81, 60
2, 198600, Note_on_c, 0, 81, 0
2, 198600, Note_on_c, 0, 79, 57
2, 198720, Note_on_c, 0, 79, 0
2, 198720, Note_on_c, 0, 78, 64
2, 198840, Note_on_c, 0, 78, 0
2, 198840, Note_on_c, 0, 74, 56
2, 198960, Note_on_c, 0, 74, 0
2, 198960, Note_on_c, 0, 78, 56
2, 199080, Note_on_c, 0, 78, 0
2, 199080, Note_on_c, 0, 81, 56
2, 199200, Note_on_c, 0, 81, 0
2, 199200, Note_on_c, 0, 84, 64
2, 199320, Note_on_c, 0, 84, 0
2, 199320, Note_on_c, 0, 81, 57
2, 199440, Note_on_c, 0, 81, 0
2, 199440, Note_on_c, 0, 79, 57
2, 199560, Note_on_c, 0, 79, 0
2, 199560, Note_on_c, 0, 78, 57
2, 199680, Note_on_c, 0, 78, 0
2, 199680, Note_on_c, 0, 79, 65
2, 199800, Note_on_c, 0, 79, 0
2, 199800, Note_on_c, 0, 74, 56
2, 199920, Note_on_c, 0, 74, 0
2, 199920, Note_on_c, 0, 79, 58
2, 200040, Note_on_c, 0, 79, 0
2, 200040, Note_on_c, 0, 83, 61
2, 200160, Note_on_c, 0, 83, 0
2, 200160, Note_on_c, 0, 86, 68
2, 200280, Note_on_c, 0, 86, 0
2, 200280, Note_on_c, 0, 83, 62
2, 200400, Note_on_c, 0, 83, 0
2, 200400, Note_on_c, 0, 81, 60
2, 200520, Note_on_c, 0, 81, 0
2, 200520, Note_on_c, 0, 79, 57
2, 200640, Note_on_c, 0, 79, 0
2, 200640, Note_on_c, 0, 78, 64
2, 200760, Note_on_c, 0, 78, 0
2, 200760, Note_on_c, 0, 74, 56
2, 200880, Note_on_c, 0, 74, 0
2, 200880, Note_on_c, 0, 78, 56
2, 201000, Note_on_c, 0, 78, 0
2, 201000, Note_on_c, 0, 81, 56
2, 201120, Note_on_c, 0, 81, 0
2, 201120, Note_on_c, 0, 84, 64
2, 201240, Note_on_c, 0, 84, 0
2, 201240, Note_on_c, 0, 81, 57
2, 201360, Note_on_c, 0, 81, 0
2, 201360, Note_on_c, 0, 79, 57
2, 201480, Note_on_c, 0, 79, 0
2, 201480, Note_on_c, 0, 78, 57
2, 201600, Note_on_c, 0, 78, 0
2, 201600, Note_on_c, 0, 79, 65
2, 201720, Note_on_c, 0, 79, 0
2, 201720, Note_on_c, 0, 83, 59
2, 201840, Note_on_c, 0, 83, 0
2, 201840, Note_on_c, 0, 79, 59
2, 201960, Note_on_c, 0, 79, 0
2, 201960, Note_on_c, 0, 74, 59
2, 202080, Note_on_c, 0, 74, 0
2, 202080, Note_on_c, 0, 71, 65
2, 202200, Note_on_c, 0, 71, 0
2, 203520, Note_on_c, 0, 77, 54
2, 203880, Note_on_c, 0, 77, 0
2, 203880, Note_on_c, 0, 74, 47
2, 203940, Note_on_c, 0, 74, 0
2, 203940, Note_on_c, 0, 75, 47
2, 204000, Note_on_c, 0, 75, 0
2, 204000, Note_on_c, 0, 77, 55
2, 204240, Note_on_c, 0, 77, 0
2, 204240, Note_on_c, 0, 89, 84
2, 204720, Note_on_c, 0, 89, 0
2, 204720, Note_on_c, 0, 69, 51
2, 204960, Note_on_c, 0, 69, 0
2, 204960, Note_on_c, 0, 69, 51
2, 205200, Note_on_c, 0, 69, 0
2, 205200, Note_on_c, 0, 69, 51
2, 205440, Note_on_c, 0, 69, 0
2, 205440, Note_on_c, 0, 70, 54
2, 205800, Note_on_c, 0, 70, 0
2, 205800, Note_on_c, 0, 70, 47
2, 205860, Note_on_c, 0, 70, 0
2, 205860, Note_on_c, 0, 72, 47
2, 205920, Note_on_c, 0, 72, 0
2, 205920, Note_on_c, 0, 74, 55
2, 206160, Note_on_c, 0, 74, 0
2, 206160, Note_on_c, 0, 86, 79
2, 206640, Note_on_c, 0, 86, 0
2, 206640, Note_on_c, 0, 66, 51
2, 206880, Note_on_c, 0, 66, 0
2, 206880, Note_on_c, 0, 66, 51
2, 207120, Note_on_c, 0, 66, 0
2, 207120, Note_on_c, 0, 66, 51
2, 207360, Note_on_c, 0, 66, 0
2, 207360, Note_on_c, 0, 67, 59
2, 207720, Note_on_c, 0, 67, 0
2, 207720, Note_on_c, 0, 67, 47
2, 207780, Note_on_c, 0, 67, 0
2, 207780, Note_on_c, 0, 69, 47
2, 207840, Note_on_c, 0, 69, 0
2, 207840, Note_on_c, 0, 70, 59
2, 208080, Note_on_c, 0, 70, 0
2, 208080, Note_on_c, 0, 82, 78
2, 208560, Note_on_c, 0, 82, 0
2, 208560, Note_on_c, 0, 61, 55
2, 208800, Note_on_c, 0, 61, 0
2, 208800, Note_on_c, 0, 61, 55
2, 209040, Note_on_c, 0, 61, 0
2, 209040, Note_on_c, 0, 61, 55
2, 209280, Note_on_c, 0, 61, 0
2, 209280, Note_on_c, 0, 62, 54
2, 209400, Note_on_c, 0, 62, 0
2, 209400, Note_on_c, 0, 64, 56
2, 209520, Note_on_c, 0, 64, 0
2, 209520, Note_on_c, 0, 66, 57
2, 209640, Note_on_c, 0, 66, 0
2, 209640, Note_on_c, 0, 67, 59
2, 209760, Note_on_c, 0, 67, 0
2, 209760, Note_on_c, 0, 69, 60
2, 209880, Note_on_c, 0, 69, 0
2, 209880, Note_on_c, 0, 66, 57
2, 210000, Note_on_c, 0, 66, 0
2, 210000, Note_on_c, 0, 67, 60
2, 210120, Note_on_c, 0, 67, 0
2, 210120, Note_on_c, 0, 64, 56
2, 210240, Note_on_c, 0, 64, 0
2, 210240, Note_on_c, 0, 62, 68
2, 210720, Note_on_c, 0, 62, 0
2, 211200, Control_c, 0, 91, 127
2, 211201, Note_on_c, 0, 67, 60
2, 211560, Note_on_c, 0, 71, 46
2, 211561, Note_on_c, 0, 67, 0
2, 211620, Note_on_c, 0, 71, 0
2, 211620, Note_on_c, 0, 69, 47
2, 211680, Note_on_c, 0, 69, 0
2, 211680, Note_on_c, 0, 67, 56
2, 211800, Note_on_c, 0, 67, 0
2, 211800, Note_on_c, 0, 62, 48
2, 211920, Note_on_c, 0, 62, 0
2, 211920, Note_on_c, 0, 71, 48
2, 212040, Note_on_c, 0, 71, 0
2, 212040, Note_on_c, 0, 69, 48
2, 212160, Note_on_c, 0, 69, 0
2, 212160, Note_on_c, 0, 67, 56
2, 212280, Note_on_c, 0, 67, 0
2, 212280, Note_on_c, 0, 62, 48
2, 212400, Note_on_c, 0, 62, 0
2, 212400, Note_on_c, 0, 67, 48
2, 212520, Note_on_c, 0, 67, 0
2, 212520, Note_on_c, 0, 71, 48
2, 212640, Note_on_c, 0, 71, 0
2, 212640, Note_on_c, 0, 74, 56
2, 212760, Note_on_c, 0, 74, 0
2, 212760, Note_on_c, 0, 71, 52
2, 212880, Note_on_c, 0, 71, 0
2, 212880, Note_on_c, 0, 69, 52
2, 213000, Note_on_c, 0, 69, 0
2, 213000, Note_on_c, 0, 67, 52
2, 213120, Note_on_c, 0, 67, 0
2, 213120, Note_on_c, 0, 71, 59
2, 213240, Note_on_c, 0, 71, 0
2, 213240, Note_on_c, 0, 69, 52
2, 213360, Note_on_c, 0, 69, 0
2, 213360, Note_on_c, 0, 67, 52
2, 213480, Note_on_c, 0, 67, 0
2, 213480, Note_on_c, 0, 69, 52
2, 213600, Note_on_c, 0, 69, 0
2, 213600, Note_on_c, 0, 67, 54
2, 213840, Note_on_c, 0, 67, 0
2, 213840, Note_on_c, 0, 88, 46
2, 213960, Note_on_c, 0, 88, 0
2, 213960, Note_on_c, 0, 76, 44
2, 214080, Note_on_c, 0, 76, 0
2, 214080, Note_on_c, 0, 88, 47
2, 214200, Note_on_c, 0, 88, 0
2, 214200, Note_on_c, 0, 76, 44
2, 214320, Note_on_c, 0, 76, 0
2, 214320, Note_on_c, 0, 88, 49
2, 214440, Note_on_c, 0, 88, 0
2, 214440, Note_on_c, 0, 76, 45
2, 214560, Note_on_c, 0, 76, 0
2, 214560, Note_on_c, 0, 88, 51
2, 214680, Note_on_c, 0, 88, 0
2, 214680, Note_on_c, 0, 76, 46
2, 214800, Note_on_c, 0, 76, 0
2, 214800, Note_on_c, 0, 88, 52
2, 214920, Note_on_c, 0, 88, 0
2, 214920, Note_on_c, 0, 76, 49
2, 215040, Note_on_c, 0, 76, 0
2, 215040, Note_on_c, 0, 88, 54
2, 215340, Note_on_c, 0, 88, 0
2, 215340, Note_on_c, 0, 86, 48
2, 215400, Note_on_c, 0, 86, 0
2, 215400, Note_on_c, 0, 84, 48
2, 215460, Note_on_c, 0, 84, 0
2, 215460, Note_on_c, 0, 83, 47
2, 215520, Note_on_c, 0, 83, 0
2, 215520, Note_on_c, 0, 81, 47
2, 215760, Note_on_c, 0, 81, 0
2, 215760, Note_on_c, 0, 86, 46
2, 215880, Note_on_c, 0, 86, 0
2, 215880, Note_on_c, 0, 74, 44
2, 216000, Note_on_c, 0, 74, 0
2, 216000, Note_on_c, 0, 86, 47
2, 216120, Note_on_c, 0, 86, 0
2, 216120, Note_on_c, 0, 74, 44
2, 216240, Note_on_c, 0, 74, 0
2, 216240, Note_on_c, 0, 86, 49
2, 216360, Note_on_c, 0, 86, 0
2, 216360, Note_on_c, 0, 74, 45
2, 216480, Note_on_c, 0, 74, 0
2, 216480, Note_on_c, 0, 86, 51
2, 216600, Note_on_c, 0, 86, 0
2, 216600, Note_on_c, 0, 74, 46
2, 216720, Note_on_c, 0, 74, 0
2, 216720, Note_on_c, 0, 86, 52
2, 216840, Note_on_c, 0, 86, 0
2, 216840, Note_on_c, 0, 74, 49
2, 216960, Note_on_c, 0, 74, 0
2, 216960, Note_on_c, 0, 86, 54
2, 217260, Note_on_c, 0, 86, 0
2, 217260, Note_on_c, 0, 84, 48
2, 217320, Note_on_c, 0, 84, 0
2, 217320, Note_on_c, 0, 83, 48
2, 217380, Note_on_c, 0, 83, 0
2, 217380, Note_on_c, 0, 81, 47
2, 217440, Note_on_c, 0, 81, 0
2, 217440, Note_on_c, 0, 79, 47
2, 217680, Note_on_c, 0, 79, 0
2, 219600, Note_on_c, 0, 86, 39
2, 219660, Note_on_c, 0, 86, 0
2, 219660, Note_on_c, 0, 84, 39
2, 219720, Note_on_c, 0, 84, 0
2, 219720, Note_on_c, 0, 83, 39
2, 219780, Note_on_c, 0, 83, 0
2, 219780, Note_on_c, 0, 81, 39
2, 219840, Note_on_c, 0, 81, 0
2, 219840, Note_on_c, 0, 79, 47
2, 219960, Note_on_c, 0, 79, 0
2, 220080, Note_on_c, 0, 83, 39
2, 220140, Note_on_c, 0, 83, 0
2, 220140, Note_on_c, 0, 81, 39
2, 220200, Note_on_c, 0, 81, 0
2, 220200, Note_on_c, 0, 79, 39
2, 220260, Note_on_c, 0, 79, 0
2, 220260, Note_on_c, 0, 78, 39
2, 220320, Note_on_c, 0, 78, 0
2, 220320, Note_on_c, 0, 76, 50
2, 220440, Note_on_c, 0, 76, 0
2, 220560, Note_on_c, 0, 79, 38
2, 220620, Note_on_c, 0, 79, 0
2, 220620, Note_on_c, 0, 78, 38
2, 220680, Note_on_c, 0, 78, 0
2, 220680, Note_on_c, 0, 76, 38
2, 220740, Note_on_c, 0, 76, 0
2, 220740, Note_on_c, 0, 74, 38
2, 220800, Note_on_c, 0, 74, 0
2, 220800, Note_on_c, 0, 72, 50
2, 221280, Note_on_c, 0, 72, 0
2, 221520, Note_on_c, 0, 79, 52
2, 221580, Note_on_c, 0, 79, 0
2, 221580, Note_on_c, 0, 77, 52
2, 221640, Note_on_c, 0, 77, 0
2, 221640, Note_on_c, 0, 75, 52
2, 221700, Note_on_c, 0, 75, 0
2, 221700, Note_on_c, 0, 74, 52
2, 221760, Note_on_c, 0, 74, 0
2, 221760, Note_on_c, 0, 72, 63
2, 222000, Note_on_c, 0, 72, 0
2, 222000, Note_on_c, 0, 83, 63
2, 222240, Note_on_c, 0, 83, 0
2, 222240, Note_on_c, 0, 84, 71
2, 222480, Note_on_c, 0, 84, 0
2, 222480, Note_on_c, 0, 84, 66
2, 222720, Note_on_c, 0, 84, 0
2, 222720, Note_on_c, 0, 84, 64
2, 222840, Note_on_c, 0, 84, 0
2, 222840, Note_on_c, 0, 83, 57
2, 222960, Note_on_c, 0, 83, 0
2, 222960, Note_on_c, 0, 84, 57
2, 223080, Note_on_c, 0, 84, 0
2, 223080, Note_on_c, 0, 81, 57
2, 223200, Note_on_c, 0, 81, 0
2, 223200, Note_on_c, 0, 83, 64
2, 223320, Note_on_c, 0, 83, 0
2, 223320, Note_on_c, 0, 81, 57
2, 223440, Note_on_c, 0, 81, 0
2, 223440, Note_on_c, 0, 83, 57
2, 223560, Note_on_c, 0, 83, 0
2, 223560, Note_on_c, 0, 79, 57
2, 223680, Note_on_c, 0, 79, 0
2, 223680, Note_on_c, 0, 81, 63
2, 223800, Note_on_c, 0, 81, 0
2, 223800, Note_on_c, 0, 80, 57
2, 223920, Note_on_c, 0, 80, 0
2, 223920, Note_on_c, 0, 81, 57
2, 224040, Note_on_c, 0, 81, 0
2, 224040, Note_on_c, 0, 76, 57
2, 224160, Note_on_c, 0, 76, 0
2, 224160, Note_on_c, 0, 79, 63
2, 224280, Note_on_c, 0, 79, 0
2, 224280, Note_on_c, 0, 78, 57
2, 224400, Note_on_c, 0, 78, 0
2, 224400, Note_on_c, 0, 76, 57
2, 224520, Note_on_c, 0, 76, 0
2, 224520, Note_on_c, 0, 74, 57
2, 224640, Note_on_c, 0, 74, 0
2, 224640, Note_on_c, 0, 79, 65
2, 224760, Note_on_c, 0, 79, 0
2, 224760, Note_on_c, 0, 74, 56
2, 224880, Note_on_c, 0, 74, 0
2, 224880, Note_on_c, 0, 79, 58
2, 225000, Note_on_c, 0, 79, 0
2, 225000, Note_on_c, 0, 83, 61
2, 225120, Note_on_c, 0, 83, 0
2, 225120, Note_on_c, 0, 86, 68
2, 225240, Note_on_c, 0, 86, 0
2, 225240, Note_on_c, 0, 83, 62
2, 225360, Note_on_c, 0, 83, 0
2, 225360, Note_on_c, 0, 81, 60
2, 225480, Note_on_c, 0, 81, 0
2, 225480, Note_on_c, 0, 79, 57
2, 225600, Note_on_c, 0, 79, 0
2, 225600, Note_on_c, 0, 78, 64
2, 225720, Note_on_c, 0, 78, 0
2, 225720, Note_on_c, 0, 74, 56
2, 225840, Note_on_c, 0, 74, 0
2, 225840, Note_on_c, 0, 78, 56
2, 225960, Note_on_c, 0, 78, 0
2, 225960, Note_on_c, 0, 81, 56
2, 226080, Note_on_c, 0, 81, 0
2, 226080, Note_on_c, 0, 84, 64
2, 226200, Note_on_c, 0, 84, 0
2, 226200, Note_on_c, 0, 81, 57
2, 226320, Note_on_c, 0, 81, 0
2, 226320, Note_on_c, 0, 79, 57
2, 226440, Note_on_c, 0, 79, 0
2, 226440, Note_on_c, 0, 78, 57
2, 226560, Note_on_c, 0, 78, 0
2, 226560, Note_on_c, 0, 79, 65
2, 226680, Note_on_c, 0, 79, 0
2, 226680, Note_on_c, 0, 74, 56
2, 226800, Note_on_c, 0, 74, 0
2, 226800, Note_on_c, 0, 79, 58
2, 226920, Note_on_c, 0, 79, 0
2, 226920, Note_on_c, 0, 83, 61
2, 227040, Note_on_c, 0, 83, 0
2, 227040, Note_on_c, 0, 86, 68
2, 227160, Note_on_c, 0, 86, 0
2, 227160, Note_on_c, 0, 83, 62
2, 227280, Note_on_c, 0, 83, 0
2, 227280, Note_on_c, 0, 81, 60
2, 227400, Note_on_c, 0, 81, 0
2, 227400, Note_on_c, 0, 79, 57
2, 227520, Note_on_c, 0, 79, 0
2, 227520, Note_on_c, 0, 78, 64
2, 227640, Note_on_c, 0, 78, 0
2, 227640, Note_on_c, 0, 74, 56
2, 227760, Note_on_c, 0, 74, 0
2, 227760, Note_on_c, 0, 78, 56
2, 227880, Note_on_c, 0, 78, 0
2, 227880, Note_on_c, 0, 81, 56
2, 228000, Note_on_c, 0, 81, 0
2, 228000, Note_on_c, 0, 84, 64
2, 228120, Note_on_c, 0, 84, 0
2, 228120, Note_on_c, 0, 81, 57
2, 228240, Note_on_c, 0, 81, 0
2, 228240, Note_on_c, 0, 79, 57
2, 228360, Note_on_c, 0, 79, 0
2, 228360, Note_on_c, 0, 78, 57
2, 228480, Note_on_c, 0, 78, 0
2, 228480, Note_on_c, 0, 79, 65
2, 228600, Note_on_c, 0, 79, 0
2, 228600, Note_on_c, 0, 83, 59
2, 228720, Note_on_c, 0, 83, 0
2, 228720, Note_on_c, 0, 79, 59
2, 228840, Note_on_c, 0, 79, 0
2, 228840, Note_on_c, 0, 74, 59
2, 228960, Note_on_c, 0, 74, 0
2, 228960, Note_on_c, 0, 71, 65
2, 229080, Note_on_c, 0, 71, 0
2, 229080, End_track
3, 0, Start_track
3, 0, Title_t, "Piano left"
3, 0, Program_c, 0, 0
3, 0, Control_c, 0, 7, 100
3, 0, Control_c, 0, 10, 64
3, 0, Control_c, 0, 91, 127
3, 1, Note_on_c, 0, 59, 40
3, 1, Note_on_c, 0, 55, 34
3, 240, Note_on_c, 0, 55, 34
3, 240, Note_on_c, 0, 59, 40
3, 241, Note_on_c, 0, 55, 0
3, 241, Note_on_c, 0, 59, 0
3, 480, Note_on_c, 0, 55, 0
3, 480, Note_on_c, 0, 59, 0
3, 480, Note_on_c, 0, 59, 40
3, 480, Note_on_c, 0, 55, 34
3, 720, Note_on_c, 0, 55, 0
3, 720, Note_on_c, 0, 59, 0
3, 720, Note_on_c, 0, 59, 39
3, 720, Note_on_c, 0, 55, 33
3, 960, Note_on_c, 0, 55, 0
3, 960, Note_on_c, 0, 59, 0
3, 960, Note_on_c, 0, 59, 40
3, 960, Note_on_c, 0, 55, 34
3, 1200, Note_on_c, 0, 55, 0
3, 1200, Note_on_c, 0, 59, 0
3, 1200, Note_on_c, 0, 59, 41
3, 1200, Note_on_c, 0, 55, 34
3, 1440, Note_on_c, 0, 55, 0
3, 1440, Note_on_c, 0, 59, 0
3, 1440, Note_on_c, 0, 59, 41
3, 1440, Note_on_c, 0, 55, 34
3, 1680, Note_on_c, 0, 55, 0
3, 1680, Note_on_c, 0, 59, 0
3, 1680, Note_on_c, 0, 59, 41
3, 1680, Note_on_c, 0, 55, 34
3, 1920, Note_on_c, 0, 55, 0
3, 1920, Note_on_c, 0, 59, 0
3, 1920, Note_on_c, 0, 60, 44
3, 1920, Note_on_c, 0, 55, 37
3, 2400, Note_on_c, 0, 55, 0
3, 2400, Note_on_c, 0, 60, 0
3, 2400, Note_on_c, 0, 55, 34
3, 2400, Note_on_c, 0, 59, 41
3, 2640, Note_on_c, 0, 59, 0
3, 2640, Note_on_c, 0, 55, 0
3, 2880, Note_on_c, 0, 65, 41
3, 2880, Note_on_c, 0, 67, 41
3, 3000, Note_on_c, 0, 67, 0
3, 3000, Note_on_c, 0, 65, 0
3, 3120, Note_on_c, 0, 65, 41
3, 3120, Note_on_c, 0, 67, 41
3, 3240, Note_on_c, 0, 67, 0
3, 3240, Note_on_c, 0, 65, 0
3, 3360, Note_on_c, 0, 67, 41
3, 3360, Note_on_c, 0, 65, 41
3, 3480, Note_on_c, 0, 65, 0
3, 3480, Note_on_c, 0, 67, 0
3, 3600, Note_on_c, 0, 65, 41
3, 3600, Note_on_c, 0, 67, 41
3, 3720, Note_on_c, 0, 67, 0
3, 3720, Note_on_c, 0, 65, 0
3, 3840, Note_on_c, 0, 67, 46
3, 3840, Note_on_c, 0, 64, 46
3, 4560, Note_on_c, 0, 64, 0
3, 4560, Note_on_c, 0, 67, 0
3, 4560, Note_on_c, 0, 65, 41
3, 4560, Note_on_c, 0, 62, 41
3, 4800, Note_on_c, 0, 62, 0
3, 4800, Note_on_c, 0, 65, 0
3, 4800, Note_on_c, 0, 64, 49
3, 4800, Note_on_c, 0, 60, 49
3, 5280, Note_on_c, 0, 60, 0
3, 5280, Note_on_c, 0, 64, 0
3, 5280, Note_on_c, 0, 61, 50
3, 5280, Note_on_c, 0, 64, 50
3, 5760, Note_on_c, 0, 64, 0
3, 5760, Note_on_c, 0, 61, 0
3, 5760, Note_on_c, 0, 62, 46
3, 6240, Note_on_c, 0, 62, 0
3, 7680, Control_c, 0, 91, 127
3, 7681, Note_on_c, 0, 55, 34
3, 7681, Note_on_c, 0, 59, 40
3, 7920, Note_on_c, 0, 59, 40
3, 7920, Note_on_c, 0, 55, 34
3, 7921, Note_on_c, 0, 59, 0
3, 7921, Note_on_c, 0, 55, 0
3, 8160, Note_on_c, 0, 59, 0
3, 8160, Note_on_c, 0, 55, 0
3, 8160, Note_on_c, 0, 55, 34
3, 8160, Note_on_c, 0, 59, 40
3, 8400, Note_on_c, 0, 59, 0
3, 8400, Note_on_c, 0, 55, 0
3, 8400, Note_on_c, 0, 55, 33
3, 8400, Note_on_c, 0, 59, 39
3, 8640, Note_on_c, 0, 59, 0
3, 8640, Note_on_c, 0, 55, 0
3, 8640, Note_on_c, 0, 55, 34
3, 8640, Note_on_c, 0, 59, 40
3, 8880, Note_on_c, 0, 59, 0
3, 8880, Note_on_c, 0, 55, 0
3, 8880, Note_on_c, 0, 59, 41
3, 8880, Note_on_c, 0, 55, 34
3, 9120, Note_on_c, 0, 55, 0
3, 9120, Note_on_c, 0, 59, 0
3, 9120, Note_on_c, 0, 55, 34
3, 9120, Note_on_c, 0, 59, 41
3, 9360, Note_on_c, 0, 59, 0
3, 9360, Note_on_c, 0, 55, 0
3, 9360, Note_on_c, 0, 55, 34
3, 9360, Note_on_c, 0, 59, 41
3, 9600, Note_on_c, 0, 59, 0
3, 9600, Note_on_c, 0, 55, 0
3, 9600, Note_on_c, 0, 60, 44
3, 9600, Note_on_c, 0, 55, 44
3, 10080, Note_on_c, 0, 55, 0
3, 10080, Note_on_c, 0, 60, 0
3, 10080, Note_on_c, 0, 59, 41
3, 10080, Note_on_c, 0, 55, 41
3, 10320, Note_on_c, 0, 55, 0
3, 10320, Note_on_c, 0, 59, 0
3, 10560, Note_on_c, 0, 71, 41
3, 10560, Note_on_c, 0, 67, 41
3, 10680, Note_on_c, 0, 67, 0
3, 10680, Note_on_c, 0, 71, 0
3, 10800, Note_on_c, 0, 71, 41
3, 10800, Note_on_c, 0, 67, 41
3, 10920, Note_on_c, 0, 67, 0
3, 10920, Note_on_c, 0, 71, 0
3, 11040, Note_on_c, 0, 71, 41
3, 11040, Note_on_c, 0, 67, 41
3, 11160, Note_on_c, 0, 67, 0
3, 11160, Note_on_c, 0, 71, 0
3, 11280, Note_on_c, 0, 67, 41
3, 11280, Note_on_c, 0, 71, 41
3, 11400, Note_on_c, 0, 71, 0
3, 11400, Note_on_c, 0, 67, 0
3, 11520, Note_on_c, 0, 67, 39
3, 11520, Note_on_c, 0, 71, 46
3, 11760, Note_on_c, 0, 71, 0
3, 11760, Note_on_c, 0, 67, 0
3, 11760, Note_on_c, 0, 67, 39
3, 11760, Note_on_c, 0, 71, 46
3, 12000, Note_on_c, 0, 71, 0
3, 12000, Note_on_c, 0, 67, 0
3, 12000, Note_on_c, 0, 71, 46
3, 12000, Note_on_c, 0, 67, 39
3, 12240, Note_on_c, 0, 67, 0
3, 12240, Note_on_c, 0, 71, 0
3, 12240, Note_on_c, 0, 71, 46
3, 12240, Note_on_c, 0, 67, 39
3, 12480, Note_on_c, 0, 67, 0
3, 12480, Note_on_c, 0, 71, 0
3, 12480, Note_on_c, 0, 57, 39
3, 12480, Note_on_c, 0, 66, 46
3, 12720, Note_on_c, 0, 66, 0
3, 12720, Note_on_c, 0, 57, 0
3, 12720, Note_on_c, 0, 57, 39
3, 12720, Note_on_c, 0, 66, 46
3, 12960, Note_on_c, 0, 66, 0
3, 12960, Note_on_c, 0, 57, 0
3, 12960, Note_on_c, 0, 57, 39
3, 12960, Note_on_c, 0, 64, 46
3, 13200, Note_on_c, 0, 64, 0
3, 13200, Note_on_c, 0, 57, 0
3, 13200, Note_on_c, 0, 64, 46
3, 13200, Note_on_c, 0, 57, 39
3, 13440, Note_on_c, 0, 57, 0
3, 13440, Note_on_c, 0, 64, 0
3, 13440, Note_on_c, 0, 62, 37
3, 13440, Note_on_c, 0, 66, 44
3, 13680, Note_on_c, 0, 66, 0
3, 13680, Note_on_c, 0, 62, 0
3, 13680, Note_on_c, 0, 62, 32
3, 13680, Note_on_c, 0, 66, 38
3, 13920, Note_on_c, 0, 66, 0
3, 13920, Note_on_c, 0, 62, 0
3, 13920, Note_on_c, 0, 66, 38
3, 13920, Note_on_c, 0, 62, 32
3, 14160, Note_on_c, 0, 62, 0
3, 14160, Note_on_c, 0, 66, 0
3, 14160, Note_on_c, 0, 62, 32
3, 14160, Note_on_c, 0, 66, 38
3, 14400, Note_on_c, 0, 66, 0
3, 14400, Note_on_c, 0, 62, 0
3, 14400, Note_on_c, 0, 62, 36
3, 14400, Note_on_c, 0, 67, 43
3, 14640, Note_on_c, 0, 67, 0
3, 14640, Note_on_c, 0, 62, 0
3, 14640, Note_on_c, 0, 62, 32
3, 14640, Note_on_c, 0, 67, 38
3, 14880, Note_on_c, 0, 67, 0
3, 14880, Note_on_c, 0, 62, 0
3, 14880, Note_on_c, 0, 62, 32
3, 14880, Note_on_c, 0, 67, 38
3, 15120, Note_on_c, 0, 67, 0
3, 15120, Note_on_c, 0, 62, 0
3, 15120, Note_on_c, 0, 67, 38
3, 15120, Note_on_c, 0, 62, 32
3, 15360, Note_on_c, 0, 62, 0
3, 15360, Note_on_c, 0, 67, 0
3, 15360, Note_on_c, 0, 66, 44
3, 15360, Note_on_c, 0, 62, 37
3, 15600, Note_on_c, 0, 62, 0
3, 15600, Note_on_c, 0, 66, 0
3, 15600, Note_on_c, 0, 66, 38
3, 15600, Note_on_c, 0, 62, 32
3, 15840, Note_on_c, 0, 62, 0
3, 15840, Note_on_c, 0, 66, 0
3, 15840, Note_on_c, 0, 66, 38
3, 15840, Note_on_c, 0, 62, 32
3, 16080, Note_on_c, 0, 62, 0
3, 16080, Note_on_c, 0, 66, 0
3, 16080, Note_on_c, 0, 66, 38
3, 16080, Note_on_c, 0, 62, 32
3, 16320, Note_on_c, 0, 62, 0
3, 16320, Note_on_c, 0, 66, 0
3, 16320, Note_on_c, 0, 67, 44
3, 16320, Note_on_c, 0, 62, 37
3, 16560, Note_on_c, 0, 62, 0
3, 16560, Note_on_c, 0, 67, 0
3, 16560, Note_on_c, 0, 67, 38
3, 16560, Note_on_c, 0, 62, 32
3, 16800, Note_on_c, 0, 62, 0
3, 16800, Note_on_c, 0, 67, 0
3, 16800, Note_on_c, 0, 67, 38
3, 16800, Note_on_c, 0, 62, 32
3, 17040, Note_on_c, 0, 62, 0
3, 17040, Note_on_c, 0, 67, 0
3, 17040, Note_on_c, 0, 67, 38
3, 17040, Note_on_c, 0, 62, 32
3, 17280, Note_on_c, 0, 62, 0
3, 17280, Note_on_c, 0, 67, 0
3, 17280, Note_on_c, 0, 66, 45
3, 17280, Note_on_c, 0, 62, 38
3, 17760, Note_on_c, 0, 62, 0
3, 17760, Note_on_c, 0, 66, 0
3, 18240, Note_on_c, 0, 38, 69
3, 18240, Note_on_c, 0, 50, 69
3, 18720, Note_on_c, 0, 50, 0
3, 18720, Note_on_c, 0, 38, 0
3, 19200, Control_c, 0, 91, 127
3, 19201, Note_on_c, 0, 55, 34
3, 19201, Note_on_c, 0, 59, 40
3, 19440, Note_on_c, 0, 55, 34
3, 19440, Note_on_c, 0, 59, 40
3, 19441, Note_on_c, 0, 59, 0
3, 19441, Note_on_c, 0, 55, 0
3, 19680, Note_on_c, 0, 55, 0
3, 19680, Note_on_c, 0, 59, 0
3, 19680, Note_on_c, 0, 55, 34
3, 19680, Note_on_c, 0, 59, 40
3, 19920, Note_on_c, 0, 59, 0
3, 19920, Note_on_c, 0, 55, 0
3, 19920, Note_on_c, 0, 55, 33
3, 19920, Note_on_c, 0, 59, 39
3, 20160, Note_on_c, 0, 59, 0
3, 20160, Note_on_c, 0, 55, 0
3, 20160, Note_on_c, 0, 55, 34
3, 20160, Note_on_c, 0, 59, 40
3, 20400, Note_on_c, 0, 59, 0
3, 20400, Note_on_c, 0, 55, 0
3, 20400, Note_on_c, 0, 55, 34
3, 20400, Note_on_c, 0, 59, 41
3, 20640, Note_on_c, 0, 59, 0
3, 20640, Note_on_c, 0, 55, 0
3, 20640, Note_on_c, 0, 55, 34
3, 20640, Note_on_c, 0, 59, 41
3, 20880, Note_on_c, 0, 59, 0
3, 20880, Note_on_c, 0, 55, 0
3, 20880, Note_on_c, 0, 55, 34
3, 20880, Note_on_c, 0, 59, 41
3, 21120, Note_on_c, 0, 59, 0
3, 21120, Note_on_c, 0, 55, 0
3, 21120, Note_on_c, 0, 55, 37
3, 21120, Note_on_c, 0, 60, 44
3, 21600, Note_on_c, 0, 60, 0
3, 21600, Note_on_c, 0, 55, 0
3, 21600, Note_on_c, 0, 55, 34
3, 21600, Note_on_c, 0, 59, 41
3, 21840, Note_on_c, 0, 59, 0
3, 21840, Note_on_c, 0, 55, 0
3, 22080, Note_on_c, 0, 65, 41
3, 22080, Note_on_c, 0, 67, 41
3, 22200, Note_on_c, 0, 67, 0
3, 22200, Note_on_c, 0, 65, 0
3, 22320, Note_on_c, 0, 65, 41
3, 22320, Note_on_c, 0, 67, 41
3, 22440, Note_on_c, 0, 67, 0
3, 22440, Note_on_c, 0, 65, 0
3, 22560, Note_on_c, 0, 65, 41
3, 22560, Note_on_c, 0, 67, 41
3, 22680, Note_on_c, 0, 67, 0
3, 22680, Note_on_c, 0, 65, 0
3, 22800, Note_on_c, 0, 67, 41
3, 22800, Note_on_c, 0, 65, 41
3, 22920, Note_on_c, 0, 65, 0
3, 22920, Note_on_c, 0, 67, 0
3, 23040, Note_on_c, 0, 64, 46
3, 23040, Note_on_c, 0, 67, 46
3, 23760, Note_on_c, 0, 67, 0
3, 23760, Note_on_c, 0, 64, 0
3, 23760, Note_on_c, 0, 62, 41
3, 23760, Note_on_c, 0, 65, 41
3, 24000, Note_on_c, 0, 65, 0
3, 24000, Note_on_c, 0, 62, 0
3, 24000, Note_on_c, 0, 60, 49
3, 24000, Note_on_c, 0, 64, 49
3, 24480, Note_on_c, 0, 64, 0
3, 24480, Note_on_c, 0, 60, 0
3, 24480, Note_on_c, 0, 61, 50
3, 24480, Note_on_c, 0, 64, 50
3, 24960, Note_on_c, 0, 64, 0
3, 24960, Note_on_c, 0, 61, 0
3, 24960, Note_on_c, 0, 62, 46
3, 25440, Note_on_c, 0, 62, 0
3, 26880, Control_c, 0, 91, 127
3, 26881, Note_on_c, 0, 55, 34
3, 26881, Note_on_c, 0, 59, 40
3, 27120, Note_on_c, 0, 55, 34
3, 27120, Note_on_c, 0, 59, 40
3, 27121, Note_on_c, 0, 59, 0
3, 27121, Note_on_c, 0, 55, 0
3, 27360, Note_on_c, 0, 55, 0
3, 27360, Note_on_c, 0, 59, 0
3, 27360, Note_on_c, 0, 55, 34
3, 27360, Note_on_c, 0, 59, 40
3, 27600, Note_on_c, 0, 59, 0
3, 27600, Note_on_c, 0, 55, 0
3, 27600, Note_on_c, 0, 55, 33
3, 27600, Note_on_c, 0, 59, 39
3, 27840, Note_on_c, 0, 59, 0
3, 27840, Note_on_c, 0, 55, 0
3, 27840, Note_on_c, 0, 55, 34
3, 27840, Note_on_c, 0, 59, 40
3, 28080, Note_on_c, 0, 59, 0
3, 28080, Note_on_c, 0, 55, 0
3, 28080, Note_on_c, 0, 55, 34
3, 28080, Note_on_c, 0, 59, 41
3, 28320, Note_on_c, 0, 59, 0
3, 28320, Note_on_c, 0, 55, 0
3, 28320, Note_on_c, 0, 55, 34
3, 28320, Note_on_c, 0, 59, 41
3, 28560, Note_on_c, 0, 59, 0
3, 28560, Note_on_c, 0, 55, 0
3, 28560, Note_on_c, 0, 55, 34
3, 28560, Note_on_c, 0, 59, 41
3, 28800, Note_on_c, 0, 59, 0
3, 28800, Note_on_c, 0, 55, 0
3, 28800, Note_on_c, 0, 55, 37
3, 28800, Note_on_c, 0, 60, 44
3, 29280, Note_on_c, 0, 60, 0
3, 29280, Note_on_c, 0, 55, 0
3, 29280, Note_on_c, 0, 55, 34
3, 29280, Note_on_c, 0, 59, 41
3, 29520, Note_on_c, 0, 59, 0
3, 29520, Note_on_c, 0, 55, 0
3, 29760, Note_on_c, 0, 71, 41
3, 29760, Note_on_c, 0, 67, 41
3, 29880, Note_on_c, 0, 67, 0
3, 29880, Note_on_c, 0, 71, 0
3, 30000, Note_on_c, 0, 71, 41
3, 30000, Note_on_c, 0, 67, 41
3, 30120, Note_on_c, 0, 67, 0
3, 30120, Note_on_c, 0, 71, 0
3, 30240, Note_on_c, 0, 71, 41
3, 30240, Note_on_c, 0, 67, 41
3, 30360, Note_on_c, 0, 67, 0
3, 30360, Note_on_c, 0, 71, 0
3, 30480, Note_on_c, 0, 67, 41
3, 30480, Note_on_c, 0, 71, 41
3, 30600, Note_on_c, 0, 71, 0
3, 30600, Note_on_c, 0, 67, 0
3, 30720, Note_on_c, 0, 71, 46
3, 30720, Note_on_c, 0, 67, 39
3, 30960, Note_on_c, 0, 67, 0
3, 30960, Note_on_c, 0, 71, 0
3, 30960, Note_on_c, 0, 67, 39
3, 30960, Note_on_c, 0, 71, 46
3, 31200, Note_on_c, 0, 71, 0
3, 31200, Note_on_c, 0, 67, 0
3, 31200, Note_on_c, 0, 67, 39
3, 31200, Note_on_c, 0, 71, 46
3, 31440, Note_on_c, 0, 71, 0
3, 31440, Note_on_c, 0, 67, 0
3, 31440, Note_on_c, 0, 67, 39
3, 31440, Note_on_c, 0, 71, 46
3, 31680, Note_on_c, 0, 71, 0
3, 31680, Note_on_c, 0, 67, 0
3, 31680, Note_on_c, 0, 66, 46
3, 31680, Note_on_c, 0, 57, 39
3, 31920, Note_on_c, 0, 57, 0
3, 31920, Note_on_c, 0, 66, 0
3, 31920, Note_on_c, 0, 57, 39
3, 31920, Note_on_c, 0, 66, 46
3, 32160, Note_on_c, 0, 66, 0
3, 32160, Note_on_c, 0, 57, 0
3, 32160, Note_on_c, 0, 57, 39
3, 32160, Note_on_c, 0, 64, 46
3, 32400, Note_on_c, 0, 64, 0
3, 32400, Note_on_c, 0, 57, 0
3, 32400, Note_on_c, 0, 57, 39
3, 32400, Note_on_c, 0, 64, 46
3, 32640, Note_on_c, 0, 64, 0
3, 32640, Note_on_c, 0, 57, 0
3, 32640, Note_on_c, 0, 62, 37
3, 32640, Note_on_c, 0, 66, 44
3, 32880, Note_on_c, 0, 66, 0
3, 32880, Note_on_c, 0, 62, 0
3, 32880, Note_on_c, 0, 62, 32
3, 32880, Note_on_c, 0, 66, 38
3, 33120, Note_on_c, 0, 66, 0
3, 33120, Note_on_c, 0, 62, 0
3, 33120, Note_on_c, 0, 62, 32
3, 33120, Note_on_c, 0, 66, 38
3, 33360, Note_on_c, 0, 66, 0
3, 33360, Note_on_c, 0, 62, 0
3, 33360, Note_on_c, 0, 62, 32
3, 33360, Note_on_c, 0, 66, 38
3, 33600, Note_on_c, 0, 66, 0
3, 33600, Note_on_c, 0, 62, 0
3, 33600, Note_on_c, 0, 62, 36
3, 33600, Note_on_c, 0, 67, 43
3, 33840, Note_on_c, 0, 67, 0
3, 33840, Note_on_c, 0, 62, 0
3, 33840, Note_on_c, 0, 62, 32
3, 33840, Note_on_c, 0, 67, 38
3, 34080, Note_on_c, 0, 67, 0
3, 34080, Note_on_c, 0, 62, 0
3, 34080, Note_on_c, 0, 62, 32
3, 34080, Note_on_c, 0, 67, 38
3, 34320, Note_on_c, 0, 67, 0
3, 34320, Note_on_c, 0, 62, 0
3, 34320, Note_on_c, 0, 62, 32
3, 34320, Note_on_c, 0, 67, 38
3, 34560, Note_on_c, 0, 67, 0
3, 34560, Note_on_c, 0, 62, 0
3, 34560, Note_on_c, 0, 62, 37
3, 34560, Note_on_c, 0, 66, 44
3, 34800, Note_on_c, 0, 66, 0
3, 34800, Note_on_c, 0, 62, 0
3, 34800, Note_on_c, 0, 62, 32
3, 34800, Note_on_c, 0, 66, 38
3, 35040, Note_on_c, 0, 66, 0
3, 35040, Note_on_c, 0, 62, 0
3, 35040, Note_on_c, 0, 62, 32
3, 35040, Note_on_c, 0, 66, 38
3, 35280, Note_on_c, 0, 66, 0
3, 35280, Note_on_c, 0, 62, 0
3, 35280, Note_on_c, 0, 62, 32
3, 35280, Note_on_c, 0, 66, 38
3, 35520, Note_on_c, 0, 66, 0
3, 35520, Note_on_c, 0, 62, 0
3, 35520, Note_on_c, 0, 62, 37
3, 35520, Note_on_c, 0, 67, 44
3, 35760, Note_on_c, 0, 67, 0
3, 35760, Note_on_c, 0, 62, 0
3, 35760, Note_on_c, 0, 62, 32
3, 35760, Note_on_c, 0, 67, 38
3, 36000, Note_on_c, 0, 67, 0
3, 36000, Note_on_c, 0, 62, 0
3, 36000, Note_on_c, 0, 62, 32
3, 36000, Note_on_c, 0, 67, 38
3, 36240, Note_on_c, 0, 67, 0
3, 36240, Note_on_c, 0, 62, 0
3, 36240, Note_on_c, 0, 62, 32
3, 36240, Note_on_c, 0, 67, 38
3, 36480, Note_on_c, 0, 67, 0
3, 36480, Note_on_c, 0, 62, 0
3, 36480, Note_on_c, 0, 62, 38
3, 36480, Note_on_c, 0, 66, 45
3, 36960, Note_on_c, 0, 66, 0
3, 36960, Note_on_c, 0, 62, 0
3, 37440, Note_on_c, 0, 38, 69
3, 37440, Note_on_c, 0, 50, 69
3, 37920, Note_on_c, 0, 50, 0
3, 37920, Note_on_c, 0, 38, 0
3, 38400, Note_on_c, 0, 62, 45
3, 38400, Note_on_c, 0, 58, 38
3, 38880, Note_on_c, 0, 58, 0
3, 38880, Note_on_c, 0, 62, 0
3, 39120, Note_on_c, 0, 62, 41
3, 39120, Note_on_c, 0, 58, 34
3, 39360, Note_on_c, 0, 58, 0
3, 39360, Note_on_c, 0, 62, 0
3, 39360, Note_on_c, 0, 63, 45
3, 39360, Note_on_c, 0, 60, 38
3, 39840, Note_on_c, 0, 60, 0
3, 39840, Note_on_c, 0, 63, 0
3, 40080, Note_on_c, 0, 60, 34
3, 40080, Note_on_c, 0, 63, 41
3, 40320, Note_on_c, 0, 63, 0
3, 40320, Note_on_c, 0, 60, 0
3, 40320, Note_on_c, 0, 62, 38
3, 40320, Note_on_c, 0, 65, 45
3, 40800, Note_on_c, 0, 65, 0
3, 40800, Note_on_c, 0, 62, 0
3, 41040, Note_on_c, 0, 62, 41
3, 41040, Note_on_c, 0, 58, 34
3, 41280, Note_on_c, 0, 58, 0
3, 41280, Note_on_c, 0, 62, 0
3, 41280, Note_on_c, 0, 57, 38
3, 41280, Note_on_c, 0, 60, 45
3, 41760, Note_on_c, 0, 60, 0
3, 41760, Note_on_c, 0, 57, 0
3, 42000, Note_on_c, 0, 60, 41
3, 42000, Note_on_c, 0, 57, 34
3, 42240, Note_on_c, 0, 57, 0
3, 42240, Note_on_c, 0, 60, 0
3, 42240, Note_on_c, 0, 62, 49
3, 42240, Note_on_c, 0, 58, 41
3, 42720, Note_on_c, 0, 58, 0
3, 42720, Note_on_c, 0, 62, 0
3, 42960, Note_on_c, 0, 58, 43
3, 42960, Note_on_c, 0, 55, 36
3, 43200, Note_on_c, 0, 55, 0
3, 43200, Note_on_c, 0, 58, 0
3, 43200, Note_on_c, 0, 55, 48
3, 43200, Note_on_c, 0, 51, 40
3, 43680, Note_on_c, 0, 51, 0
3, 43680, Note_on_c, 0, 55, 0
3, 43920, Note_on_c, 0, 51, 55
3, 43920, Note_on_c, 0, 55, 55
3, 44160, Note_on_c, 0, 55, 0
3, 44160, Note_on_c, 0, 51, 0
3, 44160, Note_on_c, 0, 50, 58
3, 44160, Note_on_c, 0, 54, 58
3, 44520, Note_on_c, 0, 54, 0
3, 44520, Note_on_c, 0, 50, 0
3, 44520, Note_on_c, 0, 42, 51
3, 44580, Note_on_c, 0, 42, 0
3, 44580, Note_on_c, 0, 43, 51
3, 44640, Note_on_c, 0, 43, 0
3, 44640, Note_on_c, 0, 45, 61
3, 44880, Note_on_c, 0, 45, 0
3, 44880, Note_on_c, 0, 42, 56
3, 45120, Note_on_c, 0, 42, 0
3, 45120, Note_on_c, 0, 38, 56
3, 45600, Note_on_c, 0, 38, 0
3, 46080, Control_c, 0, 91, 127
3, 46081, Note_on_c, 0, 55, 34
3, 46081, Note_on_c, 0, 59, 40
3, 46320, Note_on_c, 0, 55, 34
3, 46320, Note_on_c, 0, 59, 40
3, 46321, Note_on_c, 0, 59, 0
3, 46321, Note_on_c, 0, 55, 0
3, 46560, Note_on_c, 0, 55, 0
3, 46560, Note_on_c, 0, 59, 0
3, 46560, Note_on_c, 0, 55, 34
3, 46560, Note_on_c, 0, 59, 40
3, 46800, Note_on_c, 0, 59, 0
3, 46800, Note_on_c, 0, 55, 0
3, 46800, Note_on_c, 0, 55, 33
3, 46800, Note_on_c, 0, 59, 39
3, 47040, Note_on_c, 0, 59, 0
3, 47040, Note_on_c, 0, 55, 0
3, 47040, Note_on_c, 0, 55, 34
3, 47040, Note_on_c, 0, 59, 40
3, 47280, Note_on_c, 0, 59, 0
3, 47280, Note_on_c, 0, 55, 0
3, 47280, Note_on_c, 0, 55, 34
3, 47280, Note_on_c, 0, 59, 41
3, 47520, Note_on_c, 0, 59, 0
3, 47520, Note_on_c, 0, 55, 0
3, 47520, Note_on_c, 0, 55, 34
3, 47520, Note_on_c, 0, 59, 41
3, 47760, Note_on_c, 0, 59, 0
3, 47760, Note_on_c, 0, 55, 0
3, 47760, Note_on_c, 0, 55, 34
3, 47760, Note_on_c, 0, 59, 41
3, 48000, Note_on_c, 0, 59, 0
3, 48000, Note_on_c, 0, 55, 0
3, 48000, Note_on_c, 0, 55, 37
3, 48000, Note_on_c, 0, 60, 44
3, 48480, Note_on_c, 0, 60, 0
3, 48480, Note_on_c, 0, 55, 0
3, 48480, Note_on_c, 0, 55, 34
3, 48480, Note_on_c, 0, 59, 41
3, 48720, Note_on_c, 0, 59, 0
3, 48720, Note_on_c, 0, 55, 0
3, 48960, Note_on_c, 0, 74, 36
3, 48960, Note_on_c, 0, 68, 36
3, 49080, Note_on_c, 0, 68, 0
3, 49080, Note_on_c, 0, 74, 0
3, 49200, Note_on_c, 0, 74, 36
3, 49200, Note_on_c, 0, 68, 36
3, 49320, Note_on_c, 0, 68, 0
3, 49320, Note_on_c, 0, 74, 0
3, 49440, Note_on_c, 0, 74, 36
3, 49440, Note_on_c, 0, 68, 36
3, 49560, Note_on_c, 0, 68, 0
3, 49560, Note_on_c, 0, 74, 0
3, 49680, Note_on_c, 0, 68, 36
3, 49680, Note_on_c, 0, 74, 36
3, 49800, Note_on_c, 0, 74, 0
3, 49800, Note_on_c, 0, 68, 0
3, 49920, Note_on_c, 0, 72, 41
3, 49920, Note_on_c, 0, 69, 41
3, 50400, Note_on_c, 0, 69, 0
3, 50400, Note_on_c, 0, 72, 0
3, 50880, Note_on_c, 0, 66, 36
3, 50880, Note_on_c, 0, 72, 36
3, 51000, Note_on_c, 0, 72, 0
3, 51000, Note_on_c, 0, 66, 0
3, 51120, Note_on_c, 0, 66, 36
3, 51120, Note_on_c, 0, 72, 36
3, 51240, Note_on_c, 0, 72, 0
3, 51240, Note_on_c, 0, 66, 0
3, 51360, Note_on_c, 0, 66, 36
3, 51360, Note_on_c, 0, 72, 36
3, 51480, Note_on_c, 0, 72, 0
3, 51480, Note_on_c, 0, 66, 0
3, 51600, Note_on_c, 0, 66, 36
3, 51600, Note_on_c, 0, 72, 36
3, 51720, Note_on_c, 0, 72, 0
3, 51720, Note_on_c, 0, 66, 0
3, 51840, Note_on_c, 0, 71, 41
3, 51840, Note_on_c, 0, 67, 41
3, 52320, Note_on_c, 0, 67, 0
3, 52320, Note_on_c, 0, 71, 0
3, 55680, Note_on_c, 0, 64, 34
3, 55680, Note_on_c, 0, 67, 34
3, 55920, Note_on_c, 0, 67, 0
3, 55920, Note_on_c, 0, 64, 0
3, 56520, Note_on_c, 0, 67, 44
3, 56580, Note_on_c, 0, 67, 0
3, 56580, Note_on_c, 0, 65, 44
3, 56640, Note_on_c, 0, 65, 0
3, 56640, Note_on_c, 0, 63, 55
3, 57120, Note_on_c, 0, 63, 0
3, 57480, Note_on_c, 0, 69, 49
3, 57540, Note_on_c, 0, 69, 0
3, 57540, Note_on_c, 0, 67, 49
3, 57600, Note_on_c, 0, 67, 0
3, 57600, Note_on_c, 0, 62, 56
3, 57600, Note_on_c, 0, 66, 56
3, 58080, Note_on_c, 0, 66, 0
3, 58080, Note_on_c, 0, 62, 0
3, 58080, Note_on_c, 0, 64, 46
3, 58080, Note_on_c, 0, 67, 46
3, 58560, Note_on_c, 0, 67, 0
3, 58560, Note_on_c, 0, 64, 0
3, 58560, Note_on_c, 0, 60, 46
3, 58560, Note_on_c, 0, 64, 46
3, 59040, Note_on_c, 0, 64, 0
3, 59040, Note_on_c, 0, 60, 0
3, 59040, Note_on_c, 0, 62, 46
3, 59520, Note_on_c, 0, 62, 0
3, 59520, Note_on_c, 0, 55, 37
3, 59520, Note_on_c, 0, 59, 44
3, 59760, Note_on_c, 0, 59, 0
3, 59760, Note_on_c, 0, 55, 0
3, 59760, Note_on_c, 0, 55, 32
3, 59760, Note_on_c, 0, 59, 38
3, 60000, Note_on_c, 0, 59, 0
3, 60000, Note_on_c, 0, 55, 0
3, 60000, Note_on_c, 0, 55, 32
3, 60000, Note_on_c, 0, 59, 38
3, 60240, Note_on_c, 0, 59, 0
3, 60240, Note_on_c, 0, 55, 0
3, 60240, Note_on_c, 0, 55, 32
3, 60240, Note_on_c, 0, 59, 38
3, 60480, Note_on_c, 0, 59, 0
3, 60480, Note_on_c, 0, 55, 0
3, 60480, Note_on_c, 0, 55, 36
3, 60480, Note_on_c, 0, 60, 43
3, 60720, Note_on_c, 0, 60, 0
3, 60720, Note_on_c, 0, 55, 0
3, 60720, Note_on_c, 0, 55, 32
3, 60720, Note_on_c, 0, 60, 38
3, 60960, Note_on_c, 0, 60, 0
3, 60960, Note_on_c, 0, 55, 0
3, 60960, Note_on_c, 0, 55, 32
3, 60960, Note_on_c, 0, 60, 38
3, 61200, Note_on_c, 0, 60, 0
3, 61200, Note_on_c, 0, 55, 0
3, 61200, Note_on_c, 0, 55, 32
3, 61200, Note_on_c, 0, 60, 38
3, 61440, Note_on_c, 0, 60, 0
3, 61440, Note_on_c, 0, 55, 0
3, 61440, Note_on_c, 0, 55, 37
3, 61440, Note_on_c, 0, 59, 44
3, 61680, Note_on_c, 0, 59, 0
3, 61680, Note_on_c, 0, 55, 0
3, 61680, Note_on_c, 0, 55, 32
3, 61680, Note_on_c, 0, 59, 38
3, 61920, Note_on_c, 0, 59, 0
3, 61920, Note_on_c, 0, 55, 0
3, 61920, Note_on_c, 0, 55, 32
3, 61920, Note_on_c, 0, 59, 38
3, 62160, Note_on_c, 0, 59, 0
3, 62160, Note_on_c, 0, 55, 0
3, 62160, Note_on_c, 0, 55, 32
3, 62160, Note_on_c, 0, 59, 38
3, 62400, Note_on_c, 0, 59, 0
3, 62400, Note_on_c, 0, 55, 0
3, 62400, Note_on_c, 0, 55, 37
3, 62400, Note_on_c, 0, 60, 44
3, 62640, Note_on_c, 0, 60, 0
3, 62640, Note_on_c, 0, 55, 0
3, 62640, Note_on_c, 0, 55, 32
3, 62640, Note_on_c, 0, 60, 38
3, 62880, Note_on_c, 0, 60, 0
3, 62880, Note_on_c, 0, 55, 0
3, 62880, Note_on_c, 0, 55, 32
3, 62880, Note_on_c, 0, 60, 38
3, 63120, Note_on_c, 0, 60, 0
3, 63120, Note_on_c, 0, 55, 0
3, 63120, Note_on_c, 0, 55, 32
3, 63120, Note_on_c, 0, 60, 38
3, 63360, Note_on_c, 0, 60, 0
3, 63360, Note_on_c, 0, 55, 0
3, 63360, Note_on_c, 0, 55, 38
3, 63360, Note_on_c, 0, 59, 45
3, 63840, Note_on_c, 0, 59, 0
3, 63840, Note_on_c, 0, 55, 0
3, 64320, Note_on_c, 0, 31, 69
3, 64320, Note_on_c, 0, 43, 69
3, 64800, Note_on_c, 0, 43, 0
3, 64800, Note_on_c, 0, 31, 0
3, 65280, Note_on_c, 0, 62, 45
3, 65280, Note_on_c, 0, 58, 38
3, 65760, Note_on_c, 0, 58, 0
3, 65760, Note_on_c, 0, 62, 0
3, 66000, Note_on_c, 0, 62, 41
3, 66000, Note_on_c, 0, 58, 34
3, 66240, Note_on_c, 0, 58, 0
3, 66240, Note_on_c, 0, 62, 0
3, 66240, Note_on_c, 0, 63, 45
3, 66240, Note_on_c, 0, 60, 38
3, 66720, Note_on_c, 0, 60, 0
3, 66720, Note_on_c, 0, 63, 0
3, 66960, Note_on_c, 0, 60, 34
3, 66960, Note_on_c, 0, 63, 41
3, 67200, Note_on_c, 0, 63, 0
3, 67200, Note_on_c, 0, 60, 0
3, 67200, Note_on_c, 0, 62, 38
3, 67200, Note_on_c, 0, 65, 45
3, 67680, Note_on_c, 0, 65, 0
3, 67680, Note_on_c, 0, 62, 0
3, 67920, Note_on_c, 0, 62, 41
3, 67920, Note_on_c, 0, 58, 34
3, 68160, Note_on_c, 0, 58, 0
3, 68160, Note_on_c, 0, 62, 0
3, 68160, Note_on_c, 0, 57, 38
3, 68160, Note_on_c, 0, 60, 45
3, 68640, Note_on_c, 0, 60, 0
3, 68640, Note_on_c, 0, 57, 0
3, 68880, Note_on_c, 0, 60, 41
3, 68880, Note_on_c, 0, 57, 34
3, 69120, Note_on_c, 0, 57, 0
3, 69120, Note_on_c, 0, 60, 0
3, 69120, Note_on_c, 0, 62, 49
3, 69120, Note_on_c, 0, 58, 41
3, 69600, Note_on_c, 0, 58, 0
3, 69600, Note_on_c, 0, 62, 0
3, 69840, Note_on_c, 0, 58, 43
3, 69840, Note_on_c, 0, 55, 36
3, 70080, Note_on_c, 0, 55, 0
3, 70080, Note_on_c, 0, 58, 0
3, 70080, Note_on_c, 0, 55, 48
3, 70080, Note_on_c, 0, 51, 40
3, 70560, Note_on_c, 0, 51, 0
3, 70560, Note_on_c, 0, 55, 0
3, 70800, Note_on_c, 0, 51, 55
3, 70800, Note_on_c, 0, 55, 55
3, 71040, Note_on_c, 0, 55, 0
3, 71040, Note_on_c, 0, 51, 0
3, 71040, Note_on_c, 0, 50, 58
3, 71040, Note_on_c, 0, 54, 58
3, 71400, Note_on_c, 0, 54, 0
3, 71400, Note_on_c, 0, 50, 0
3, 71400, Note_on_c, 0, 42, 51
3, 71460, Note_on_c, 0, 42, 0
3, 71460, Note_on_c, 0, 43, 51
3, 71520, Note_on_c, 0, 43, 0
3, 71520, Note_on_c, 0, 45, 61
3, 71760, Note_on_c, 0, 45, 0
3, 71760, Note_on_c, 0, 42, 56
3, 72000, Note_on_c, 0, 42, 0
3, 72000, Note_on_c, 0, 38, 56
3, 72480, Note_on_c, 0, 38, 0
3, 72960, Control_c, 0, 91, 127
3, 72961, Note_on_c, 0, 55, 34
3, 72961, Note_on_c, 0, 59, 40
3, 73200, Note_on_c, 0, 55, 34
3, 73200, Note_on_c, 0, 59, 40
3, 73201, Note_on_c, 0, 59, 0
3, 73201, Note_on_c, 0, 55, 0
3, 73440, Note_on_c, 0, 55, 0
3, 73440, Note_on_c, 0, 59, 0
3, 73440, Note_on_c, 0, 55, 34
3, 73440, Note_on_c, 0, 59, 40
3, 73680, Note_on_c, 0, 59, 0
3, 73680, Note_on_c, 0, 55, 0
3, 73680, Note_on_c, 0, 55, 33
3, 73680, Note_on_c, 0, 59, 39
3, 73920, Note_on_c, 0, 59, 0
3, 73920, Note_on_c, 0, 55, 0
3, 73920, Note_on_c, 0, 55, 34
3, 73920, Note_on_c, 0, 59, 40
3, 74160, Note_on_c, 0, 59, 0
3, 74160, Note_on_c, 0, 55, 0
3, 74160, Note_on_c, 0, 55, 34
3, 74160, Note_on_c, 0, 59, 41
3, 74400, Note_on_c, 0, 59, 0
3, 74400, Note_on_c, 0, 55, 0
3, 74400, Note_on_c, 0, 55, 34
3, 74400, Note_on_c, 0, 59, 41
3, 74640, Note_on_c, 0, 59, 0
3, 74640, Note_on_c, 0, 55, 0
3, 74640, Note_on_c, 0, 55, 34
3, 74640, Note_on_c, 0, 59, 41
3, 74880, Note_on_c, 0, 59, 0
3, 74880, Note_on_c, 0, 55, 0
3, 74880, Note_on_c, 0, 55, 37
3, 74880, Note_on_c, 0, 60, 44
3, 75360, Note_on_c, 0, 60, 0
3, 75360, Note_on_c, 0, 55, 0
3, 75360, Note_on_c, 0, 55, 34
3, 75360, Note_on_c, 0, 59, 41
3, 75600, Note_on_c, 0, 59, 0
3, 75600, Note_on_c, 0, 55, 0
3, 75840, Note_on_c, 0, 74, 36
3, 75840, Note_on_c, 0, 68, 36
3, 75960, Note_on_c, 0, 68, 0
3, 75960, Note_on_c, 0, 74, 0
3, 76080, Note_on_c, 0, 74, 36
3, 76080, Note_on_c, 0, 68, 36
3, 76200, Note_on_c, 0, 68, 0
3, 76200, Note_on_c, 0, 74, 0
3, 76320, Note_on_c, 0, 74, 36
3, 76320, Note_on_c, 0, 68, 36
3, 76440, Note_on_c, 0, 68, 0
3, 76440, Note_on_c, 0, 74, 0
3, 76560, Note_on_c, 0, 68, 36
3, 76560, Note_on_c, 0, 74, 36
3, 76680, Note_on_c, 0, 74, 0
3, 76680, Note_on_c, 0, 68, 0
3, 76800, Note_on_c, 0, 72, 41
3, 76800, Note_on_c, 0, 69, 41
3, 77280, Note_on_c, 0, 69, 0
3, 77280, Note_on_c, 0, 72, 0
3, 77760, Note_on_c, 0, 66, 36
3, 77760, Note_on_c, 0, 72, 36
3, 77880, Note_on_c, 0, 72, 0
3, 77880, Note_on_c, 0, 66, 0
3, 78000, Note_on_c, 0, 66, 36
3, 78000, Note_on_c, 0, 72, 36
3, 78120, Note_on_c, 0, 72, 0
3, 78120, Note_on_c, 0, 66, 0
3, 78240, Note_on_c, 0, 66, 36
3, 78240, Note_on_c, 0, 72, 36
3, 78360, Note_on_c, 0, 72, 0
3, 78360, Note_on_c, 0, 66, 0
3, 78480, Note_on_c, 0, 66, 36
3, 78480, Note_on_c, 0, 72, 36
3, 78600, Note_on_c, 0, 72, 0
3, 78600, Note_on_c, 0, 66, 0
3, 78720, Note_on_c, 0, 71, 41
3, 78720, Note_on_c, 0, 67, 41
3, 79200, Note_on_c, 0, 67, 0
3, 79200, Note_on_c, 0, 71, 0
3, 82560, Note_on_c, 0, 64, 34
3, 82560, Note_on_c, 0, 67, 34
3, 82800, Note_on_c, 0, 67, 0
3, 82800, Note_on_c, 0, 64, 0
3, 83400, Note_on_c, 0, 67, 44
3, 83460, Note_on_c, 0, 67, 0
3, 83460, Note_on_c, 0, 65, 44
3, 83520, Note_on_c, 0, 65, 0
3, 83520, Note_on_c, 0, 63, 55
3, 84000, Note_on_c, 0, 63, 0
3, 84360, Note_on_c, 0, 69, 47
3, 84420, Note_on_c, 0, 69, 0
3, 84420, Note_on_c, 0, 67, 47
3, 84480, Note_on_c, 0, 67, 0
3, 84480, Note_on_c, 0, 62, 56
3, 84480, Note_on_c, 0, 66, 56
3, 84960, Note_on_c, 0, 66, 0
3, 84960, Note_on_c, 0, 62, 0
3, 84960, Note_on_c, 0, 64, 46
3, 84960, Note_on_c, 0, 67, 46
3, 85440, Note_on_c, 0, 67, 0
3, 85440, Note_on_c, 0, 64, 0
3, 85440, Note_on_c, 0, 60, 46
3, 85440, Note_on_c, 0, 64, 46
3, 85920, Note_on_c, 0, 64, 0
3, 85920, Note_on_c, 0, 60, 0
3, 85920, Note_on_c, 0, 62, 46
3, 86400, Note_on_c, 0, 62, 0
3, 86400, Note_on_c, 0, 55, 37
3, 86400, Note_on_c, 0, 59, 44
3, 86640, Note_on_c, 0, 59, 0
3, 86640, Note_on_c, 0, 55, 0
3, 86640, Note_on_c, 0, 55, 32
3, 86640, Note_on_c, 0, 59, 38
3, 86880, Note_on_c, 0, 59, 0
3, 86880, Note_on_c, 0, 55, 0
3, 86880, Note_on_c, 0, 55, 32
3, 86880, Note_on_c, 0, 59, 38
3, 87120, Note_on_c, 0, 59, 0
3, 87120, Note_on_c, 0, 55, 0
3, 87120, Note_on_c, 0, 55, 32
3, 87120, Note_on_c, 0, 59, 38
3, 87360, Note_on_c, 0, 59, 0
3, 87360, Note_on_c, 0, 55, 0
3, 87360, Note_on_c, 0, 55, 36
3, 87360, Note_on_c, 0, 60, 43
3, 87600, Note_on_c, 0, 60, 0
3, 87600, Note_on_c, 0, 55, 0
3, 87600, Note_on_c, 0, 55, 32
3, 87600, Note_on_c, 0, 60, 38
3, 87840, Note_on_c, 0, 60, 0
3, 87840, Note_on_c, 0, 55, 0
3, 87840, Note_on_c, 0, 55, 32
3, 87840, Note_on_c, 0, 60, 38
3, 88080, Note_on_c, 0, 60, 0
3, 88080, Note_on_c, 0, 55, 0
3, 88080, Note_on_c, 0, 55, 32
3, 88080, Note_on_c, 0, 60, 38
3, 88320, Note_on_c, 0, 60, 0
3, 88320, Note_on_c, 0, 55, 0
3, 88320, Note_on_c, 0, 55, 37
3, 88320, Note_on_c, 0, 59, 44
3, 88560, Note_on_c, 0, 59, 0
3, 88560, Note_on_c, 0, 55, 0
3, 88560, Note_on_c, 0, 55, 32
3, 88560, Note_on_c, 0, 59, 38
3, 88800, Note_on_c, 0, 59, 0
3, 88800, Note_on_c, 0, 55, 0
3, 88800, Note_on_c, 0, 55, 32
3, 88800, Note_on_c, 0, 59, 38
3, 89040, Note_on_c, 0, 59, 0
3, 89040, Note_on_c, 0, 55, 0
3, 89040, Note_on_c, 0, 55, 32
3, 89040, Note_on_c, 0, 59, 38
3, 89280, Note_on_c, 0, 59, 0
3, 89280, Note_on_c, 0, 55, 0
3, 89280, Note_on_c, 0, 55, 37
3, 89280, Note_on_c, 0, 60, 44
3, 89520, Note_on_c, 0, 60, 0
3, 89520, Note_on_c, 0, 55, 0
3, 89520, Note_on_c, 0, 55, 32
3, 89520, Note_on_c, 0, 60, 38
3, 89760, Note_on_c, 0, 60, 0
3, 89760, Note_on_c, 0, 55, 0
3, 89760, Note_on_c, 0, 55, 32
3, 89760, Note_on_c, 0, 60, 38
3, 90000, Note_on_c, 0, 60, 0
3, 90000, Note_on_c, 0, 55, 0
3, 90000, Note_on_c, 0, 55, 32
3, 90000, Note_on_c, 0, 60, 38
3, 90240, Note_on_c, 0, 60, 0
3, 90240, Note_on_c, 0, 55, 0
3, 90240, Note_on_c, 0, 55, 38
3, 90240, Note_on_c, 0, 59, 45
3, 90720, Note_on_c, 0, 59, 0
3, 90720, Note_on_c, 0, 55, 0
3, 91200, Note_on_c, 0, 31, 69
3, 91200, Note_on_c, 0, 43, 69
3, 91680, Note_on_c, 0, 43, 0
3, 91680, Note_on_c, 0, 31, 0
3, 92160, Note_on_c, 0, 40, 60
3, 92160, Note_on_c, 0, 52, 60
3, 92640, Note_on_c, 0, 52, 0
3, 92640, Note_on_c, 0, 40, 0
3, 92880, Note_on_c, 0, 67, 39
3, 92880, Note_on_c, 0, 71, 39
3, 93120, Note_on_c, 0, 71, 0
3, 93120, Note_on_c, 0, 67, 0
3, 93120, Note_on_c, 0, 66, 45
3, 93120, Note_on_c, 0, 69, 45
3, 93840, Note_on_c, 0, 69, 0
3, 93840, Note_on_c, 0, 66, 0
3, 93840, Note_on_c, 0, 69, 39
3, 93840, Note_on_c, 0, 72, 39
3, 94080, Note_on_c, 0, 72, 0
3, 94080, Note_on_c, 0, 69, 0
3, 94080, Note_on_c, 0, 67, 45
3, 94080, Note_on_c, 0, 71, 45
3, 94800, Note_on_c, 0, 71, 0
3, 94800, Note_on_c, 0, 67, 0
3, 94800, Note_on_c, 0, 64, 40
3, 94800, Note_on_c, 0, 70, 40
3, 95040, Note_on_c, 0, 70, 0
3, 95040, Note_on_c, 0, 64, 0
3, 95040, Note_on_c, 0, 62, 45
3, 95040, Note_on_c, 0, 71, 45
3, 95760, Note_on_c, 0, 71, 0
3, 95760, Note_on_c, 0, 62, 0
3, 95760, Note_on_c, 0, 62, 45
3, 95760, Note_on_c, 0, 66, 45
3, 96000, Note_on_c, 0, 66, 0
3, 96000, Note_on_c, 0, 62, 0
3, 96000, Note_on_c, 0, 61, 48
3, 96000, Note_on_c, 0, 64, 48
3, 96720, Note_on_c, 0, 64, 0
3, 96720, Note_on_c, 0, 61, 0
3, 96720, Note_on_c, 0, 58, 48
3, 96960, Note_on_c, 0, 58, 0
3, 96960, Note_on_c, 0, 59, 54
3, 97440, Note_on_c, 0, 59, 0
3, 97440, Note_on_c, 0, 64, 49
3, 97920, Note_on_c, 0, 64, 0
3, 97920, Note_on_c, 0, 66, 49
3, 98400, Note_on_c, 0, 66, 0
3, 98400, Note_on_c, 0, 66, 49
3, 98880, Note_on_c, 0, 66, 0
3, 98880, Note_on_c, 0, 59, 49
3, 99360, Note_on_c, 0, 59, 0
3, 99600, Note_on_c, 0, 39, 56
3, 99600, Note_on_c, 0, 51, 56
3, 99840, Note_on_c, 0, 51, 0
3, 99840, Note_on_c, 0, 39, 0
3, 99840, Note_on_c, 0, 40, 60
3, 99840, Note_on_c, 0, 52, 60
3, 100320, Note_on_c, 0, 52, 0
3, 100320, Note_on_c, 0, 40, 0
3, 100560, Note_on_c, 0, 67, 39
3, 100560, Note_on_c, 0, 71, 39
3, 100800, Note_on_c, 0, 71, 0
3, 100800, Note_on_c, 0, 67, 0
3, 100800, Note_on_c, 0, 66, 45
3, 100800, Note_on_c, 0, 69, 45
3, 101520, Note_on_c, 0, 69, 0
3, 101520, Note_on_c, 0, 66, 0
3, 101520, Note_on_c, 0, 69, 39
3, 101520, Note_on_c, 0, 72, 39
3, 101760, Note_on_c, 0, 72, 0
3, 101760, Note_on_c, 0, 69, 0
3, 101760, Note_on_c, 0, 67, 45
3, 101760, Note_on_c, 0, 71, 45
3, 102480, Note_on_c, 0, 71, 0
3, 102480, Note_on_c, 0, 67, 0
3, 102480, Note_on_c, 0, 64, 40
3, 102480, Note_on_c, 0, 70, 40
3, 102720, Note_on_c, 0, 70, 0
3, 102720, Note_on_c, 0, 64, 0
3, 102720, Note_on_c, 0, 62, 45
3, 102720, Note_on_c, 0, 71, 45
3, 103440, Note_on_c, 0, 71, 0
3, 103440, Note_on_c, 0, 62, 0
3, 103440, Note_on_c, 0, 62, 45
3, 103440, Note_on_c, 0, 66, 45
3, 103680, Note_on_c, 0, 66, 0
3, 103680, Note_on_c, 0, 62, 0
3, 103680, Note_on_c, 0, 61, 48
3, 103680, Note_on_c, 0, 64, 48
3, 104400, Note_on_c, 0, 64, 0
3, 104400, Note_on_c, 0, 61, 0
3, 104400, Note_on_c, 0, 58, 48
3, 104640, Note_on_c, 0, 58, 0
3, 104640, Note_on_c, 0, 59, 54
3, 105120, Note_on_c, 0, 59, 0
3, 105120, Note_on_c, 0, 64, 49
3, 105600, Note_on_c, 0, 64, 0
3, 105600, Note_on_c, 0, 66, 49
3, 106080, Note_on_c, 0, 66, 0
3, 106080, Note_on_c, 0, 66, 49
3, 106560, Note_on_c, 0, 66, 0
3, 106560, Note_on_c, 0, 59, 49
3, 107040, Note_on_c, 0, 59, 0
3, 107280, Note_on_c, 0, 35, 56
3, 107280, Note_on_c, 0, 47, 56
3, 107520, Note_on_c, 0, 47, 0
3, 107520, Note_on_c, 0, 35, 0
3, 107520, Note_on_c, 0, 36, 60
3, 107520, Note_on_c, 0, 48, 60
3, 108000, Note_on_c, 0, 48, 0
3, 108000, Note_on_c, 0, 36, 0
3, 108240, Note_on_c, 0, 60, 35
3, 108240, Note_on_c, 0, 64, 42
3, 108480, Note_on_c, 0, 64, 0
3, 108480, Note_on_c, 0, 60, 0
3, 108480, Note_on_c, 0, 59, 40
3, 108480, Note_on_c, 0, 62, 48
3, 109200, Note_on_c, 0, 62, 0
3, 109200, Note_on_c, 0, 59, 0
3, 109200, Note_on_c, 0, 59, 40
3, 109200, Note_on_c, 0, 56, 34
3, 109440, Note_on_c, 0, 56, 0
3, 109440, Note_on_c, 0, 59, 0
3, 109440, Note_on_c, 0, 57, 39
3, 109440, Note_on_c, 0, 60, 46
3, 109920, Note_on_c, 0, 60, 0
3, 109920, Note_on_c, 0, 57, 0
3, 109920, Note_on_c, 0, 62, 44
3, 109920, Note_on_c, 0, 59, 37
3, 110400, Note_on_c, 0, 59, 0
3, 110400, Note_on_c, 0, 62, 0
3, 110400, Note_on_c, 0, 64, 40
3, 110400, Note_on_c, 0, 60, 34
3, 110880, Note_on_c, 0, 60, 0
3, 110880, Note_on_c, 0, 64, 0
3, 111600, Note_on_c, 0, 71, 30
3, 111600, Note_on_c, 0, 74, 30
3, 111840, Note_on_c, 0, 74, 0
3, 111840, Note_on_c, 0, 71, 0
3, 111840, Note_on_c, 0, 69, 35
3, 111840, Note_on_c, 0, 72, 35
3, 112320, Note_on_c, 0, 72, 0
3, 112320, Note_on_c, 0, 69, 0
3, 112560, Note_on_c, 0, 66, 31
3, 112800, Note_on_c, 0, 66, 0
3, 112800, Note_on_c, 0, 67, 36
3, 113280, Note_on_c, 0, 67, 0
3, 113280, Note_on_c, 0, 63, 36
3, 113760, Note_on_c, 0, 63, 0
3, 113760, Note_on_c, 0, 64, 30
3, 114240, Note_on_c, 0, 64, 0
3, 114240, Note_on_c, 0, 59, 35
3, 114720, Note_on_c, 0, 59, 0
3, 115440, Note_on_c, 0, 52, 55
3, 115680, Note_on_c, 0, 52, 0
3, 115680, Note_on_c, 0, 64, 62
3, 116400, Note_on_c, 0, 64, 0
3, 116400, Note_on_c, 0, 63, 47
3, 116640, Note_on_c, 0, 63, 0
3, 116640, Note_on_c, 0, 66, 51
3, 117360, Note_on_c, 0, 66, 0
3, 117360, Note_on_c, 0, 64, 49
3, 117600, Note_on_c, 0, 64, 0
3, 117600, Note_on_c, 0, 67, 54
3, 118320, Note_on_c, 0, 67, 0
3, 118320, Note_on_c, 0, 66, 47
3, 118560, Note_on_c, 0, 66, 0
3, 118560, Note_on_c, 0, 69, 51
3, 119280, Note_on_c, 0, 69, 0
3, 119280, Note_on_c, 0, 66, 53
3, 119520, Note_on_c, 0, 66, 0
3, 119520, Note_on_c, 0, 63, 58
3, 120240, Note_on_c, 0, 63, 0
3, 120240, Note_on_c, 0, 60, 54
3, 120480, Note_on_c, 0, 60, 0
3, 120480, Note_on_c, 0, 57, 58
3, 121200, Note_on_c, 0, 57, 0
3, 121200, Note_on_c, 0, 54, 52
3, 121440, Note_on_c, 0, 54, 0
3, 121440, Note_on_c, 0, 51, 50
3, 121680, Note_on_c, 0, 51, 0
3, 121680, Note_on_c, 0, 51, 42
3, 121800, Note_on_c, 0, 51, 0
3, 121800, Note_on_c, 0, 48, 42
3, 121920, Note_on_c, 0, 48, 0
3, 121920, Note_on_c, 0, 45, 55
3, 122040, Note_on_c, 0, 45, 0
3, 122160, Note_on_c, 0, 48, 42
3, 122280, Note_on_c, 0, 48, 0
3, 122280, Note_on_c, 0, 45, 42
3, 122400, Note_on_c, 0, 45, 0
3, 122400, Note_on_c, 0, 42, 56
3, 122520, Note_on_c, 0, 42, 0
3, 122640, Note_on_c, 0, 45, 49
3, 122760, Note_on_c, 0, 45, 0
3, 122760, Note_on_c, 0, 42, 49
3, 122880, Note_on_c, 0, 42, 0
3, 122880, Note_on_c, 0, 39, 63
3, 123120, Note_on_c, 0, 39, 0
3, 126240, Note_on_c, 0, 51, 52
3, 126720, Note_on_c, 0, 51, 0
3, 126720, Note_on_c, 0, 52, 54
3, 126960, Note_on_c, 0, 52, 0
3, 127200, Note_on_c, 0, 45, 51
3, 127440, Note_on_c, 0, 45, 0
3, 127680, Note_on_c, 0, 47, 51
3, 127920, Note_on_c, 0, 47, 0
3, 128160, Note_on_c, 0, 47, 51
3, 128400, Note_on_c, 0, 47, 0
3, 128880, Note_on_c, 0, 52, 48
3, 129120, Note_on_c, 0, 52, 0
3, 129120, Note_on_c, 0, 40, 53
3, 129360, Note_on_c, 0, 40, 0
3, 129840, Note_on_c, 0, 52, 38
3, 130080, Note_on_c, 0, 52, 0
3, 130080, Note_on_c, 0, 40, 43
3, 130320, Note_on_c, 0, 40, 0
3, 130800, Note_on_c, 0, 52, 43
3, 131040, Note_on_c, 0, 52, 0
3, 131040, Note_on_c, 0, 40, 47
3, 131280, Note_on_c, 0, 40, 0
3, 131760, Note_on_c, 0, 52, 48
3, 132000, Note_on_c, 0, 52, 0
3, 132000, Note_on_c, 0, 40, 52
3, 132240, Note_on_c, 0, 40, 0
3, 132720, Note_on_c, 0, 52, 51
3, 132960, Note_on_c, 0, 52, 0
3, 132960, Note_on_c, 0, 40, 59
3, 133200, Note_on_c, 0, 40, 0
3, 133680, Note_on_c, 0, 51, 52
3, 133920, Note_on_c, 0, 51, 0
3, 133920, Note_on_c, 0, 39, 55
3, 134160, Note_on_c, 0, 39, 0
3, 134640, Note_on_c, 0, 50, 47
3, 134880, Note_on_c, 0, 50, 0
3, 134880, Note_on_c, 0, 38, 52
3, 135120, Note_on_c, 0, 38, 0
3, 135600, Note_on_c, 0, 50, 35
3, 135840, Note_on_c, 0, 50, 0
3, 135840, Note_on_c, 0, 38, 40
3, 136080, Note_on_c, 0, 38, 0
3, 136560, Note_on_c, 0, 50, 38
3, 136800, Note_on_c, 0, 50, 0
3, 136800, Note_on_c, 0, 38, 43
3, 137040, Note_on_c, 0, 38, 0
3, 137520, Note_on_c, 0, 50, 36
3, 137760, Note_on_c, 0, 50, 0
3, 137760, Note_on_c, 0, 38, 41
3, 138000, Note_on_c, 0, 38, 0
3, 138240, Control_c, 0, 91, 127
3, 138241, Note_on_c, 0, 55, 34
3, 138241, Note_on_c, 0, 59, 40
3, 138480, Note_on_c, 0, 55, 34
3, 138480, Note_on_c, 0, 59, 40
3, 138481, Note_on_c, 0, 59, 0
3, 138481, Note_on_c, 0, 55, 0
3, 138720, Note_on_c, 0, 55, 0
3, 138720, Note_on_c, 0, 59, 0
3, 138720, Note_on_c, 0, 55, 34
3, 138720, Note_on_c, 0, 59, 40
3, 138960, Note_on_c, 0, 59, 0
3, 138960, Note_on_c, 0, 55, 0
3, 138960, Note_on_c, 0, 55, 33
3, 138960, Note_on_c, 0, 59, 39
3, 139200, Note_on_c, 0, 59, 0
3, 139200, Note_on_c, 0, 55, 0
3, 139200, Note_on_c, 0, 55, 34
3, 139200, Note_on_c, 0, 59, 40
3, 139440, Note_on_c, 0, 59, 0
3, 139440, Note_on_c, 0, 55, 0
3, 139440, Note_on_c, 0, 55, 34
3, 139440, Note_on_c, 0, 59, 41
3, 139680, Note_on_c, 0, 59, 0
3, 139680, Note_on_c, 0, 55, 0
3, 139680, Note_on_c, 0, 55, 34
3, 139680, Note_on_c, 0, 59, 41
3, 139920, Note_on_c, 0, 59, 0
3, 139920, Note_on_c, 0, 55, 0
3, 139920, Note_on_c, 0, 55, 34
3, 139920, Note_on_c, 0, 59, 41
3, 140160, Note_on_c, 0, 59, 0
3, 140160, Note_on_c, 0, 55, 0
3, 140160, Note_on_c, 0, 55, 37
3, 140160, Note_on_c, 0, 60, 44
3, 140640, Note_on_c, 0, 60, 0
3, 140640, Note_on_c, 0, 55, 0
3, 140640, Note_on_c, 0, 55, 41
3, 140640, Note_on_c, 0, 59, 41
3, 140880, Note_on_c, 0, 59, 0
3, 140880, Note_on_c, 0, 55, 0
3, 141120, Note_on_c, 0, 65, 41
3, 141120, Note_on_c, 0, 67, 41
3, 141240, Note_on_c, 0, 67, 0
3, 141240, Note_on_c, 0, 65, 0
3, 141360, Note_on_c, 0, 65, 41
3, 141360, Note_on_c, 0, 67, 41
3, 141480, Note_on_c, 0, 67, 0
3, 141480, Note_on_c, 0, 65, 0
3, 141600, Note_on_c, 0, 65, 41
3, 141600, Note_on_c, 0, 67, 41
3, 141720, Note_on_c, 0, 67, 0
3, 141720, Note_on_c, 0, 65, 0
3, 141840, Note_on_c, 0, 67, 41
3, 141840, Note_on_c, 0, 65, 41
3, 141960, Note_on_c, 0, 65, 0
3, 141960, Note_on_c, 0, 67, 0
3, 142080, Note_on_c, 0, 64, 46
3, 142080, Note_on_c, 0, 67, 46
3, 142800, Note_on_c, 0, 67, 0
3, 142800, Note_on_c, 0, 64, 0
3, 142800, Note_on_c, 0, 62, 41
3, 142800, Note_on_c, 0, 65, 41
3, 143040, Note_on_c, 0, 65, 0
3, 143040, Note_on_c, 0, 62, 0
3, 143040, Note_on_c, 0, 60, 49
3, 143040, Note_on_c, 0, 64, 49
3, 143520, Note_on_c, 0, 64, 0
3, 143520, Note_on_c, 0, 60, 0
3, 143520, Note_on_c, 0, 61, 50
3, 143520, Note_on_c, 0, 64, 50
3, 144000, Note_on_c, 0, 64, 0
3, 144000, Note_on_c, 0, 61, 0
3, 144000, Note_on_c, 0, 62, 46
3, 144480, Note_on_c, 0, 62, 0
3, 145920, Control_c, 0, 91, 127
3, 145921, Note_on_c, 0, 55, 34
3, 145921, Note_on_c, 0, 59, 40
3, 146160, Note_on_c, 0, 55, 30
3, 146160, Note_on_c, 0, 59, 36
3, 146161, Note_on_c, 0, 59, 0
3, 146161, Note_on_c, 0, 55, 0
3, 146400, Note_on_c, 0, 55, 0
3, 146400, Note_on_c, 0, 59, 0
3, 146400, Note_on_c, 0, 55, 30
3, 146400, Note_on_c, 0, 59, 36
3, 146640, Note_on_c, 0, 59, 0
3, 146640, Note_on_c, 0, 55, 0
3, 146640, Note_on_c, 0, 55, 30
3, 146640, Note_on_c, 0, 59, 36
3, 146880, Note_on_c, 0, 59, 0
3, 146880, Note_on_c, 0, 55, 0
3, 146880, Note_on_c, 0, 55, 34
3, 146880, Note_on_c, 0, 59, 40
3, 147120, Note_on_c, 0, 59, 0
3, 147120, Note_on_c, 0, 55, 0
3, 147120, Note_on_c, 0, 55, 32
3, 147120, Note_on_c, 0, 59, 38
3, 147360, Note_on_c, 0, 59, 0
3, 147360, Note_on_c, 0, 55, 0
3, 147360, Note_on_c, 0, 55, 32
3, 147360, Note_on_c, 0, 59, 38
3, 147600, Note_on_c, 0, 59, 0
3, 147600, Note_on_c, 0, 55, 0
3, 147600, Note_on_c, 0, 55, 32
3, 147600, Note_on_c, 0, 59, 38
3, 147840, Note_on_c, 0, 59, 0
3, 147840, Note_on_c, 0, 55, 0
3, 147840, Note_on_c, 0, 55, 37
3, 147840, Note_on_c, 0, 60, 44
3, 148320, Note_on_c, 0, 60, 0
3, 148320, Note_on_c, 0, 55, 0
3, 148320, Note_on_c, 0, 55, 34
3, 148320, Note_on_c, 0, 59, 41
3, 148560, Note_on_c, 0, 59, 0
3, 148560, Note_on_c, 0, 55, 0
3, 148800, Note_on_c, 0, 71, 41
3, 148800, Note_on_c, 0, 67, 41
3, 149040, Note_on_c, 0, 67, 0
3, 149040, Note_on_c, 0, 71, 0
3, 149040, Note_on_c, 0, 71, 38
3, 149040, Note_on_c, 0, 67, 38
3, 149280, Note_on_c, 0, 67, 0
3, 149280, Note_on_c, 0, 71, 0
3, 149280, Note_on_c, 0, 71, 44
3, 149280, Note_on_c, 0, 67, 44
3, 149520, Note_on_c, 0, 67, 0
3, 149520, Note_on_c, 0, 71, 0
3, 149520, Note_on_c, 0, 67, 41
3, 149520, Note_on_c, 0, 71, 41
3, 149760, Note_on_c, 0, 71, 0
3, 149760, Note_on_c, 0, 67, 0
3, 149760, Note_on_c, 0, 71, 46
3, 149760, Note_on_c, 0, 67, 39
3, 150000, Note_on_c, 0, 67, 0
3, 150000, Note_on_c, 0, 71, 0
3, 150000, Note_on_c, 0, 67, 39
3, 150000, Note_on_c, 0, 71, 46
3, 150240, Note_on_c, 0, 71, 0
3, 150240, Note_on_c, 0, 67, 0
3, 150240, Note_on_c, 0, 67, 39
3, 150240, Note_on_c, 0, 71, 46
3, 150480, Note_on_c, 0, 71, 0
3, 150480, Note_on_c, 0, 67, 0
3, 150480, Note_on_c, 0, 67, 39
3, 150480, Note_on_c, 0, 71, 46
3, 150720, Note_on_c, 0, 71, 0
3, 150720, Note_on_c, 0, 67, 0
3, 150720, Note_on_c, 0, 66, 46
3, 150720, Note_on_c, 0, 57, 39
3, 150960, Note_on_c, 0, 57, 0
3, 150960, Note_on_c, 0, 66, 0
3, 150960, Note_on_c, 0, 57, 39
3, 150960, Note_on_c, 0, 66, 46
3, 151200, Note_on_c, 0, 66, 0
3, 151200, Note_on_c, 0, 57, 0
3, 151200, Note_on_c, 0, 57, 39
3, 151200, Note_on_c, 0, 64, 46
3, 151440, Note_on_c, 0, 64, 0
3, 151440, Note_on_c, 0, 57, 0
3, 151440, Note_on_c, 0, 57, 39
3, 151440, Note_on_c, 0, 64, 46
3, 151680, Note_on_c, 0, 64, 0
3, 151680, Note_on_c, 0, 57, 0
3, 151680, Note_on_c, 0, 62, 37
3, 151680, Note_on_c, 0, 66, 44
3, 151920, Note_on_c, 0, 66, 0
3, 151920, Note_on_c, 0, 62, 0
3, 151920, Note_on_c, 0, 62, 32
3, 151920, Note_on_c, 0, 66, 38
3, 152160, Note_on_c, 0, 66, 0
3, 152160, Note_on_c, 0, 62, 0
3, 152160, Note_on_c, 0, 62, 32
3, 152160, Note_on_c, 0, 66, 38
3, 152400, Note_on_c, 0, 66, 0
3, 152400, Note_on_c, 0, 62, 0
3, 152400, Note_on_c, 0, 62, 32
3, 152400, Note_on_c, 0, 66, 38
3, 152640, Note_on_c, 0, 66, 0
3, 152640, Note_on_c, 0, 62, 0
3, 152640, Note_on_c, 0, 62, 36
3, 152640, Note_on_c, 0, 67, 43
3, 152880, Note_on_c, 0, 67, 0
3, 152880, Note_on_c, 0, 62, 0
3, 152880, Note_on_c, 0, 62, 32
3, 152880, Note_on_c, 0, 67, 38
3, 153120, Note_on_c, 0, 67, 0
3, 153120, Note_on_c, 0, 62, 0
3, 153120, Note_on_c, 0, 62, 32
3, 153120, Note_on_c, 0, 67, 38
3, 153360, Note_on_c, 0, 67, 0
3, 153360, Note_on_c, 0, 62, 0
3, 153360, Note_on_c, 0, 62, 32
3, 153360, Note_on_c, 0, 67, 38
3, 153600, Note_on_c, 0, 67, 0
3, 153600, Note_on_c, 0, 62, 0
3, 153600, Note_on_c, 0, 62, 37
3, 153600, Note_on_c, 0, 66, 44
3, 153840, Note_on_c, 0, 66, 0
3, 153840, Note_on_c, 0, 62, 0
3, 153840, Note_on_c, 0, 62, 32
3, 153840, Note_on_c, 0, 66, 38
3, 154080, Note_on_c, 0, 66, 0
3, 154080, Note_on_c, 0, 62, 0
3, 154080, Note_on_c, 0, 62, 32
3, 154080, Note_on_c, 0, 66, 38
3, 154320, Note_on_c, 0, 66, 0
3, 154320, Note_on_c, 0, 62, 0
3, 154320, Note_on_c, 0, 62, 32
3, 154320, Note_on_c, 0, 66, 38
3, 154560, Note_on_c, 0, 66, 0
3, 154560, Note_on_c, 0, 62, 0
3, 154560, Note_on_c, 0, 62, 37
3, 154560, Note_on_c, 0, 67, 44
3, 154800, Note_on_c, 0, 67, 0
3, 154800, Note_on_c, 0, 62, 0
3, 154800, Note_on_c, 0, 62, 32
3, 154800, Note_on_c, 0, 67, 38
3, 155040, Note_on_c, 0, 67, 0
3, 155040, Note_on_c, 0, 62, 0
3, 155040, Note_on_c, 0, 62, 32
3, 155040, Note_on_c, 0, 67, 38
3, 155280, Note_on_c, 0, 67, 0
3, 155280, Note_on_c, 0, 62, 0
3, 155280, Note_on_c, 0, 62, 32
3, 155280, Note_on_c, 0, 67, 38
3, 155520, Note_on_c, 0, 67, 0
3, 155520, Note_on_c, 0, 62, 0
3, 155520, Note_on_c, 0, 62, 38
3, 155520, Note_on_c, 0, 66, 45
3, 155760, Note_on_c, 0, 66, 0
3, 155760, Note_on_c, 0, 62, 0
3, 155760, Note_on_c, 0, 62, 34
3, 155760, Note_on_c, 0, 66, 41
3, 156000, Note_on_c, 0, 66, 0
3, 156000, Note_on_c, 0, 62, 0
3, 156000, Note_on_c, 0, 62, 38
3, 156000, Note_on_c, 0, 66, 45
3, 156240, Note_on_c, 0, 66, 0
3, 156240, Note_on_c, 0, 62, 0
3, 156240, Note_on_c, 0, 62, 34
3, 156240, Note_on_c, 0, 66, 40
3, 156360, Note_on_c, 0, 66, 0
3, 156360, Note_on_c, 0, 62, 0
3, 156480, Note_on_c, 0, 62, 40
3, 156480, Note_on_c, 0, 66, 48
3, 156960, Note_on_c, 0, 66, 0
3, 156960, Note_on_c, 0, 62, 0
3, 157440, Control_c, 0, 91, 127
3, 157441, Note_on_c, 0, 55, 34
3, 157441, Note_on_c, 0, 59, 40
3, 157680, Note_on_c, 0, 55, 30
3, 157680, Note_on_c, 0, 59, 36
3, 157681, Note_on_c, 0, 59, 0
3, 157681, Note_on_c, 0, 55, 0
3, 157920, Note_on_c, 0, 55, 0
3, 157920, Note_on_c, 0, 59, 0
3, 157920, Note_on_c, 0, 55, 30
3, 157920, Note_on_c, 0, 59, 36
3, 158160, Note_on_c, 0, 59, 0
3, 158160, Note_on_c, 0, 55, 0
3, 158160, Note_on_c, 0, 55, 30
3, 158160, Note_on_c, 0, 59, 36
3, 158400, Note_on_c, 0, 59, 0
3, 158400, Note_on_c, 0, 55, 0
3, 158400, Note_on_c, 0, 55, 34
3, 158400, Note_on_c, 0, 59, 40
3, 158640, Note_on_c, 0, 59, 0
3, 158640, Note_on_c, 0, 55, 0
3, 158640, Note_on_c, 0, 55, 32
3, 158640, Note_on_c, 0, 59, 38
3, 158880, Note_on_c, 0, 59, 0
3, 158880, Note_on_c, 0, 55, 0
3, 158880, Note_on_c, 0, 55, 32
3, 158880, Note_on_c, 0, 59, 38
3, 159120, Note_on_c, 0, 59, 0
3, 159120, Note_on_c, 0, 55, 0
3, 159120, Note_on_c, 0, 55, 32
3, 159120, Note_on_c, 0, 59, 38
3, 159360, Note_on_c, 0, 59, 0
3, 159360, Note_on_c, 0, 55, 0
3, 159360, Note_on_c, 0, 55, 37
3, 159360, Note_on_c, 0, 60, 44
3, 159840, Note_on_c, 0, 60, 0
3, 159840, Note_on_c, 0, 55, 0
3, 159840, Note_on_c, 0, 55, 34
3, 159840, Note_on_c, 0, 59, 41
3, 160080, Note_on_c, 0, 59, 0
3, 160080, Note_on_c, 0, 55, 0
3, 160320, Note_on_c, 0, 65, 38
3, 160440, Note_on_c, 0, 65, 0
3, 160440, Note_on_c, 0, 67, 33
3, 160560, Note_on_c, 0, 67, 0
3, 160560, Note_on_c, 0, 65, 38
3, 160680, Note_on_c, 0, 65, 0
3, 160680, Note_on_c, 0, 67, 33
3, 160800, Note_on_c, 0, 67, 0
3, 160800, Note_on_c, 0, 65, 38
3, 160920, Note_on_c, 0, 65, 0
3, 160920, Note_on_c, 0, 67, 34
3, 161040, Note_on_c, 0, 67, 0
3, 161040, Note_on_c, 0, 65, 38
3, 161160, Note_on_c, 0, 65, 0
3, 161160, Note_on_c, 0, 67, 33
3, 161280, Note_on_c, 0, 67, 0
3, 161280, Note_on_c, 0, 64, 52
3, 161760, Note_on_c, 0, 64, 0
3, 162000, Note_on_c, 0, 64, 48
3, 162120, Note_on_c, 0, 64, 0
3, 162120, Note_on_c, 0, 62, 48
3, 162240, Note_on_c, 0, 62, 0
3, 162240, Note_on_c, 0, 60, 52
3, 162720, Note_on_c, 0, 60, 0
3, 162960, Note_on_c, 0, 61, 52
3, 163200, Note_on_c, 0, 61, 0
3, 163200, Note_on_c, 0, 62, 58
3, 164160, Note_on_c, 0, 62, 0
3, 164160, Note_on_c, 0, 50, 52
3, 164640, Note_on_c, 0, 50, 0
3, 165120, Note_on_c, 0, 55, 34
3, 165120, Note_on_c, 0, 59, 40
3, 165120, Control_c, 0, 91, 127
3, 165360, Note_on_c, 0, 59, 0
3, 165360, Note_on_c, 0, 55, 0
3, 165360, Note_on_c, 0, 55, 30
3, 165360, Note_on_c, 0, 59, 36
3, 165600, Note_on_c, 0, 59, 0
3, 165600, Note_on_c, 0, 55, 0
3, 165600, Note_on_c, 0, 55, 30
3, 165600, Note_on_c, 0, 59, 36
3, 165840, Note_on_c, 0, 59, 0
3, 165840, Note_on_c, 0, 55, 0
3, 165840, Note_on_c, 0, 55, 30
3, 165840, Note_on_c, 0, 59, 36
3, 166080, Note_on_c, 0, 59, 0
3, 166080, Note_on_c, 0, 55, 0
3, 166080, Note_on_c, 0, 55, 34
3, 166080, Note_on_c, 0, 59, 40
3, 166320, Note_on_c, 0, 59, 0
3, 166320, Note_on_c, 0, 55, 0
3, 166320, Note_on_c, 0, 55, 32
3, 166320, Note_on_c, 0, 59, 38
3, 166560, Note_on_c, 0, 59, 0
3, 166560, Note_on_c, 0, 55, 0
3, 166560, Note_on_c, 0, 55, 32
3, 166560, Note_on_c, 0, 59, 38
3, 166800, Note_on_c, 0, 59, 0
3, 166800, Note_on_c, 0, 55, 0
3, 166800, Note_on_c, 0, 55, 32
3, 166800, Note_on_c, 0, 59, 38
3, 167040, Note_on_c, 0, 59, 0
3, 167040, Note_on_c, 0, 55, 0
3, 167040, Note_on_c, 0, 55, 37
3, 167040, Note_on_c, 0, 60, 44
3, 167520, Note_on_c, 0, 60, 0
3, 167520, Note_on_c, 0, 55, 0
3, 167520, Note_on_c, 0, 55, 34
3, 167520, Note_on_c, 0, 59, 41
3, 167760, Note_on_c, 0, 59, 0
3, 167760, Note_on_c, 0, 55, 0
3, 168000, Note_on_c, 0, 71, 41
3, 168000, Note_on_c, 0, 67, 41
3, 168240, Note_on_c, 0, 67, 0
3, 168240, Note_on_c, 0, 71, 0
3, 168240, Note_on_c, 0, 71, 38
3, 168240, Note_on_c, 0, 67, 38
3, 168480, Note_on_c, 0, 67, 0
3, 168480, Note_on_c, 0, 71, 0
3, 168480, Note_on_c, 0, 71, 44
3, 168480, Note_on_c, 0, 67, 44
3, 168720, Note_on_c, 0, 67, 0
3, 168720, Note_on_c, 0, 71, 0
3, 168720, Note_on_c, 0, 67, 41
3, 168720, Note_on_c, 0, 71, 41
3, 168960, Note_on_c, 0, 71, 0
3, 168960, Note_on_c, 0, 67, 0
3, 168960, Note_on_c, 0, 71, 46
3, 168960, Note_on_c, 0, 67, 39
3, 169200, Note_on_c, 0, 67, 0
3, 169200, Note_on_c, 0, 71, 0
3, 169200, Note_on_c, 0, 67, 39
3, 169200, Note_on_c, 0, 71, 46
3, 169440, Note_on_c, 0, 71, 0
3, 169440, Note_on_c, 0, 67, 0
3, 169440, Note_on_c, 0, 67, 39
3, 169440, Note_on_c, 0, 71, 46
3, 169680, Note_on_c, 0, 71, 0
3, 169680, Note_on_c, 0, 67, 0
3, 169680, Note_on_c, 0, 67, 39
3, 169680, Note_on_c, 0, 71, 46
3, 169920, Note_on_c, 0, 71, 0
3, 169920, Note_on_c, 0, 67, 0
3, 169920, Note_on_c, 0, 66, 46
3, 169920, Note_on_c, 0, 57, 39
3, 170160, Note_on_c, 0, 57, 0
3, 170160, Note_on_c, 0, 66, 0
3, 170160, Note_on_c, 0, 57, 39
3, 170160, Note_on_c, 0, 66, 46
3, 170400, Note_on_c, 0, 66, 0
3, 170400, Note_on_c, 0, 57, 0
3, 170400, Note_on_c, 0, 57, 39
3, 170400, Note_on_c, 0, 64, 46
3, 170640, Note_on_c, 0, 64, 0
3, 170640, Note_on_c, 0, 57, 0
3, 170640, Note_on_c, 0, 57, 39
3, 170640, Note_on_c, 0, 64, 46
3, 170880, Note_on_c, 0, 64, 0
3, 170880, Note_on_c, 0, 57, 0
3, 170880, Note_on_c, 0, 62, 37
3, 170880, Note_on_c, 0, 66, 44
3, 171120, Note_on_c, 0, 66, 0
3, 171120, Note_on_c, 0, 62, 0
3, 171120, Note_on_c, 0, 62, 32
3, 171120, Note_on_c, 0, 66, 38
3, 171360, Note_on_c, 0, 66, 0
3, 171360, Note_on_c, 0, 62, 0
3, 171360, Note_on_c, 0, 62, 32
3, 171360, Note_on_c, 0, 66, 38
3, 171600, Note_on_c, 0, 66, 0
3, 171600, Note_on_c, 0, 62, 0
3, 171600, Note_on_c, 0, 62, 32
3, 171600, Note_on_c, 0, 66, 38
3, 171840, Note_on_c, 0, 66, 0
3, 171840, Note_on_c, 0, 62, 0
3, 171840, Note_on_c, 0, 62, 36
3, 171840, Note_on_c, 0, 67, 43
3, 172080, Note_on_c, 0, 67, 0
3, 172080, Note_on_c, 0, 62, 0
3, 172080, Note_on_c, 0, 62, 32
3, 172080, Note_on_c, 0, 67, 38
3, 172320, Note_on_c, 0, 67, 0
3, 172320, Note_on_c, 0, 62, 0
3, 172320, Note_on_c, 0, 62, 32
3, 172320, Note_on_c, 0, 67, 38
3, 172560, Note_on_c, 0, 67, 0
3, 172560, Note_on_c, 0, 62, 0
3, 172560, Note_on_c, 0, 62, 32
3, 172560, Note_on_c, 0, 67, 38
3, 172800, Note_on_c, 0, 67, 0
3, 172800, Note_on_c, 0, 62, 0
3, 172800, Note_on_c, 0, 62, 37
3, 172800, Note_on_c, 0, 66, 44
3, 173040, Note_on_c, 0, 66, 0
3, 173040, Note_on_c, 0, 62, 0
3, 173040, Note_on_c, 0, 62, 32
3, 173040, Note_on_c, 0, 66, 38
3, 173280, Note_on_c, 0, 66, 0
3, 173280, Note_on_c, 0, 62, 0
3, 173280, Note_on_c, 0, 62, 32
3, 173280, Note_on_c, 0, 66, 38
3, 173520, Note_on_c, 0, 66, 0
3, 173520, Note_on_c, 0, 62, 0
3, 173520, Note_on_c, 0, 62, 32
3, 173520, Note_on_c, 0, 66, 38
3, 173760, Note_on_c, 0, 66, 0
3, 173760, Note_on_c, 0, 62, 0
3, 173760, Note_on_c, 0, 62, 37
3, 173760, Note_on_c, 0, 67, 44
3, 174000, Note_on_c, 0, 67, 0
3, 174000, Note_on_c, 0, 62, 0
3, 174000, Note_on_c, 0, 62, 32
3, 174000, Note_on_c, 0, 67, 38
3, 174240, Note_on_c, 0, 67, 0
3, 174240, Note_on_c, 0, 62, 0
3, 174240, Note_on_c, 0, 62, 32
3, 174240, Note_on_c, 0, 67, 38
3, 174480, Note_on_c, 0, 67, 0
3, 174480, Note_on_c, 0, 62, 0
3, 174480, Note_on_c, 0, 62, 32
3, 174480, Note_on_c, 0, 67, 38
3, 174720, Note_on_c, 0, 67, 0
3, 174720, Note_on_c, 0, 62, 0
3, 174720, Note_on_c, 0, 62, 38
3, 174720, Note_on_c, 0, 66, 45
3, 174960, Note_on_c, 0, 66, 0
3, 174960, Note_on_c, 0, 62, 0
3, 174960, Note_on_c, 0, 62, 34
3, 174960, Note_on_c, 0, 66, 41
3, 175200, Note_on_c, 0, 66, 0
3, 175200, Note_on_c, 0, 62, 0
3, 175200, Note_on_c, 0, 62, 38
3, 175200, Note_on_c, 0, 66, 45
3, 175440, Note_on_c, 0, 66, 0
3, 175440, Note_on_c, 0, 62, 0
3, 175440, Note_on_c, 0, 62, 34
3, 175440, Note_on_c, 0, 66, 40
3, 175560, Note_on_c, 0, 66, 0
3, 175560, Note_on_c, 0, 62, 0
3, 175680, Note_on_c, 0, 62, 40
3, 175680, Note_on_c, 0, 66, 48
3, 176160, Note_on_c, 0, 66, 0
3, 176160, Note_on_c, 0, 62, 0
3, 176640, Note_on_c, 0, 58, 45
3, 176760, Note_on_c, 0, 58, 0
3, 176760, Note_on_c, 0, 65, 39
3, 176880, Note_on_c, 0, 65, 0
3, 176880, Note_on_c, 0, 62, 45
3, 177000, Note_on_c, 0, 62, 0
3, 177000, Note_on_c, 0, 65, 38
3, 177120, Note_on_c, 0, 65, 0
3, 177120, Note_on_c, 0, 58, 45
3, 177240, Note_on_c, 0, 58, 0
3, 177240, Note_on_c, 0, 65, 41
3, 177360, Note_on_c, 0, 65, 0
3, 177360, Note_on_c, 0, 62, 45
3, 177480, Note_on_c, 0, 62, 0
3, 177480, Note_on_c, 0, 65, 39
3, 177600, Note_on_c, 0, 65, 0
3, 177600, Note_on_c, 0, 60, 45
3, 177720, Note_on_c, 0, 60, 0
3, 177720, Note_on_c, 0, 65, 39
3, 177840, Note_on_c, 0, 65, 0
3, 177840, Note_on_c, 0, 63, 45
3, 177960, Note_on_c, 0, 63, 0
3, 177960, Note_on_c, 0, 65, 39
3, 178080, Note_on_c, 0, 65, 0
3, 178080, Note_on_c, 0, 60, 45
3, 178200, Note_on_c, 0, 60, 0
3, 178200, Note_on_c, 0, 65, 41
3, 178320, Note_on_c, 0, 65, 0
3, 178320, Note_on_c, 0, 63, 45
3, 178440, Note_on_c, 0, 63, 0
3, 178440, Note_on_c, 0, 65, 40
3, 178560, Note_on_c, 0, 65, 0
3, 178560, Note_on_c, 0, 58, 45
3, 178680, Note_on_c, 0, 58, 0
3, 178680, Note_on_c, 0, 65, 40
3, 178800, Note_on_c, 0, 65, 0
3, 178800, Note_on_c, 0, 62, 45
3, 178920, Note_on_c, 0, 62, 0
3, 178920, Note_on_c, 0, 65, 40
3, 179040, Note_on_c, 0, 65, 0
3, 179040, Note_on_c, 0, 58, 45
3, 179160, Note_on_c, 0, 58, 0
3, 179160, Note_on_c, 0, 65, 40
3, 179280, Note_on_c, 0, 65, 0
3, 179280, Note_on_c, 0, 62, 45
3, 179400, Note_on_c, 0, 62, 0
3, 179400, Note_on_c, 0, 65, 39
3, 179520, Note_on_c, 0, 65, 0
3, 179520, Note_on_c, 0, 57, 45
3, 179640, Note_on_c, 0, 57, 0
3, 179640, Note_on_c, 0, 62, 39
3, 179760, Note_on_c, 0, 62, 0
3, 179760, Note_on_c, 0, 60, 45
3, 179880, Note_on_c, 0, 60, 0
3, 179880, Note_on_c, 0, 62, 41
3, 180000, Note_on_c, 0, 62, 0
3, 180000, Note_on_c, 0, 57, 45
3, 180120, Note_on_c, 0, 57, 0
3, 180120, Note_on_c, 0, 62, 40
3, 180240, Note_on_c, 0, 62, 0
3, 180240, Note_on_c, 0, 60, 45
3, 180360, Note_on_c, 0, 60, 0
3, 180360, Note_on_c, 0, 62, 40
3, 180480, Note_on_c, 0, 62, 0
3, 180480, Note_on_c, 0, 55, 45
3, 180600, Note_on_c, 0, 55, 0
3, 180600, Note_on_c, 0, 62, 40
3, 180720, Note_on_c, 0, 62, 0
3, 180720, Note_on_c, 0, 58, 45
3, 180840, Note_on_c, 0, 58, 0
3, 180840, Note_on_c, 0, 62, 39
3, 180960, Note_on_c, 0, 62, 0
3, 180960, Note_on_c, 0, 55, 45
3, 181080, Note_on_c, 0, 55, 0
3, 181080, Note_on_c, 0, 62, 40
3, 181200, Note_on_c, 0, 62, 0
3, 181200, Note_on_c, 0, 58, 45
3, 181320, Note_on_c, 0, 58, 0
3, 181320, Note_on_c, 0, 62, 40
3, 181440, Note_on_c, 0, 62, 0
3, 181440, Note_on_c, 0, 51, 45
3, 181560, Note_on_c, 0, 51, 0
3, 181560, Note_on_c, 0, 55, 39
3, 181680, Note_on_c, 0, 55, 0
3, 181680, Note_on_c, 0, 54, 45
3, 181800, Note_on_c, 0, 54, 0
3, 181800, Note_on_c, 0, 55, 39
3, 181920, Note_on_c, 0, 55, 0
3, 181920, Note_on_c, 0, 51, 45
3, 182040, Note_on_c, 0, 51, 0
3, 182040, Note_on_c, 0, 55, 39
3, 182160, Note_on_c, 0, 55, 0
3, 182160, Note_on_c, 0, 54, 45
3, 182280, Note_on_c, 0, 54, 0
3, 182280, Note_on_c, 0, 55, 39
3, 182400, Note_on_c, 0, 55, 0
3, 182400, Note_on_c, 0, 50, 58
3, 182880, Note_on_c, 0, 50, 0
3, 183360, Note_on_c, 0, 38, 60
3, 183480, Note_on_c, 0, 38, 0
3, 183480, Note_on_c, 0, 50, 60
3, 183600, Note_on_c, 0, 50, 0
3, 183600, Note_on_c, 0, 36, 60
3, 183720, Note_on_c, 0, 36, 0
3, 183720, Note_on_c, 0, 48, 59
3, 183840, Note_on_c, 0, 48, 0
3, 183840, Note_on_c, 0, 35, 58
3, 183960, Note_on_c, 0, 35, 0
3, 183960, Note_on_c, 0, 47, 57
3, 184080, Note_on_c, 0, 47, 0
3, 184080, Note_on_c, 0, 33, 56
3, 184200, Note_on_c, 0, 33, 0
3, 184200, Note_on_c, 0, 45, 56
3, 184320, Note_on_c, 0, 45, 0
3, 184320, Note_on_c, 0, 31, 65
3, 184320, Control_c, 0, 91, 127
3, 184800, Note_on_c, 0, 31, 0
3, 184800, Note_on_c, 0, 55, 30
3, 184800, Note_on_c, 0, 59, 36
3, 185040, Note_on_c, 0, 59, 0
3, 185040, Note_on_c, 0, 55, 0
3, 185040, Note_on_c, 0, 55, 30
3, 185040, Note_on_c, 0, 59, 36
3, 185280, Note_on_c, 0, 59, 0
3, 185280, Note_on_c, 0, 55, 0
3, 185280, Note_on_c, 0, 55, 34
3, 185280, Note_on_c, 0, 59, 40
3, 185520, Note_on_c, 0, 59, 0
3, 185520, Note_on_c, 0, 55, 0
3, 185520, Note_on_c, 0, 55, 32
3, 185520, Note_on_c, 0, 59, 38
3, 185760, Note_on_c, 0, 59, 0
3, 185760, Note_on_c, 0, 55, 0
3, 185760, Note_on_c, 0, 55, 32
3, 185760, Note_on_c, 0, 59, 38
3, 186000, Note_on_c, 0, 59, 0
3, 186000, Note_on_c, 0, 55, 0
3, 186000, Note_on_c, 0, 55, 32
3, 186000, Note_on_c, 0, 59, 38
3, 186240, Note_on_c, 0, 59, 0
3, 186240, Note_on_c, 0, 55, 0
3, 186240, Note_on_c, 0, 55, 37
3, 186240, Note_on_c, 0, 60, 44
3, 186720, Note_on_c, 0, 60, 0
3, 186720, Note_on_c, 0, 55, 0
3, 186720, Note_on_c, 0, 55, 34
3, 186720, Note_on_c, 0, 59, 41
3, 186960, Note_on_c, 0, 59, 0
3, 186960, Note_on_c, 0, 55, 0
3, 187200, Note_on_c, 0, 74, 41
3, 187200, Note_on_c, 0, 68, 41
3, 187440, Note_on_c, 0, 68, 0
3, 187440, Note_on_c, 0, 74, 0
3, 187440, Note_on_c, 0, 74, 38
3, 187440, Note_on_c, 0, 68, 38
3, 187680, Note_on_c, 0, 68, 0
3, 187680, Note_on_c, 0, 74, 0
3, 187680, Note_on_c, 0, 74, 44
3, 187680, Note_on_c, 0, 68, 44
3, 187920, Note_on_c, 0, 68, 0
3, 187920, Note_on_c, 0, 74, 0
3, 187920, Note_on_c, 0, 68, 41
3, 187920, Note_on_c, 0, 74, 41
3, 188160, Note_on_c, 0, 74, 0
3, 188160, Note_on_c, 0, 68, 0
3, 188160, Note_on_c, 0, 69, 50
3, 188160, Note_on_c, 0, 72, 50
3, 188640, Note_on_c, 0, 72, 0
3, 188640, Note_on_c, 0, 69, 0
3, 189120, Note_on_c, 0, 72, 41
3, 189120, Note_on_c, 0, 66, 41
3, 189360, Note_on_c, 0, 66, 0
3, 189360, Note_on_c, 0, 72, 0
3, 189360, Note_on_c, 0, 72, 38
3, 189360, Note_on_c, 0, 66, 38
3, 189600, Note_on_c, 0, 66, 0
3, 189600, Note_on_c, 0, 72, 0
3, 189600, Note_on_c, 0, 72, 44
3, 189600, Note_on_c, 0, 66, 44
3, 189840, Note_on_c, 0, 66, 0
3, 189840, Note_on_c, 0, 72, 0
3, 189840, Note_on_c, 0, 66, 41
3, 189840, Note_on_c, 0, 72, 41
3, 190080, Note_on_c, 0, 72, 0
3, 190080, Note_on_c, 0, 66, 0
3, 190080, Note_on_c, 0, 67, 50
3, 190080, Note_on_c, 0, 71, 50
3, 190560, Note_on_c, 0, 71, 0
3, 190560, Note_on_c, 0, 67, 0
3, 193920, Note_on_c, 0, 64, 34
3, 193920, Note_on_c, 0, 67, 34
3, 194400, Note_on_c, 0, 67, 0
3, 194400, Note_on_c, 0, 64, 0
3, 194880, Note_on_c, 0, 63, 45
3, 195000, Note_on_c, 0, 63, 0
3, 195000, Note_on_c, 0, 67, 38
3, 195120, Note_on_c, 0, 67, 0
3, 195120, Note_on_c, 0, 63, 45
3, 195240, Note_on_c, 0, 63, 0
3, 195240, Note_on_c, 0, 67, 38
3, 195360, Note_on_c, 0, 67, 0
3, 195360, Note_on_c, 0, 63, 45
3, 195480, Note_on_c, 0, 63, 0
3, 195480, Note_on_c, 0, 67, 39
3, 195600, Note_on_c, 0, 67, 0
3, 195600, Note_on_c, 0, 63, 45
3, 195720, Note_on_c, 0, 63, 0
3, 195720, Note_on_c, 0, 67, 39
3, 195840, Note_on_c, 0, 67, 0
3, 195840, Note_on_c, 0, 62, 50
3, 195840, Note_on_c, 0, 66, 50
3, 196320, Note_on_c, 0, 66, 0
3, 196320, Note_on_c, 0, 62, 0
3, 196320, Note_on_c, 0, 67, 46
3, 196800, Note_on_c, 0, 67, 0
3, 196800, Note_on_c, 0, 60, 49
3, 196800, Note_on_c, 0, 72, 49
3, 197280, Note_on_c, 0, 72, 0
3, 197280, Note_on_c, 0, 60, 0
3, 197280, Note_on_c, 0, 62, 47
3, 197280, Note_on_c, 0, 72, 47
3, 197760, Note_on_c, 0, 72, 0
3, 197760, Note_on_c, 0, 62, 0
3, 197760, Note_on_c, 0, 67, 39
3, 197760, Note_on_c, 0, 71, 47
3, 198000, Note_on_c, 0, 71, 0
3, 198000, Note_on_c, 0, 67, 0
3, 198000, Note_on_c, 0, 67, 34
3, 198000, Note_on_c, 0, 71, 40
3, 198240, Note_on_c, 0, 71, 0
3, 198240, Note_on_c, 0, 67, 0
3, 198240, Note_on_c, 0, 67, 36
3, 198240, Note_on_c, 0, 71, 43
3, 198480, Note_on_c, 0, 71, 0
3, 198480, Note_on_c, 0, 67, 0
3, 198480, Note_on_c, 0, 67, 34
3, 198480, Note_on_c, 0, 71, 40
3, 198720, Note_on_c, 0, 71, 0
3, 198720, Note_on_c, 0, 67, 0
3, 198720, Note_on_c, 0, 67, 36
3, 198720, Note_on_c, 0, 72, 43
3, 198960, Note_on_c, 0, 72, 0
3, 198960, Note_on_c, 0, 67, 0
3, 198960, Note_on_c, 0, 67, 31
3, 198960, Note_on_c, 0, 72, 37
3, 199200, Note_on_c, 0, 72, 0
3, 199200, Note_on_c, 0, 67, 0
3, 199200, Note_on_c, 0, 67, 36
3, 199200, Note_on_c, 0, 72, 43
3, 199440, Note_on_c, 0, 72, 0
3, 199440, Note_on_c, 0, 67, 0
3, 199440, Note_on_c, 0, 67, 31
3, 199440, Note_on_c, 0, 72, 37
3, 199680, Note_on_c, 0, 72, 0
3, 199680, Note_on_c, 0, 67, 0
3, 199680, Note_on_c, 0, 67, 39
3, 199680, Note_on_c, 0, 71, 47
3, 199920, Note_on_c, 0, 71, 0
3, 199920, Note_on_c, 0, 67, 0
3, 199920, Note_on_c, 0, 67, 34
3, 199920, Note_on_c, 0, 71, 40
3, 200160, Note_on_c, 0, 71, 0
3, 200160, Note_on_c, 0, 67, 0
3, 200160, Note_on_c, 0, 67, 36
3, 200160, Note_on_c, 0, 71, 43
3, 200400, Note_on_c, 0, 71, 0
3, 200400, Note_on_c, 0, 67, 0
3, 200400, Note_on_c, 0, 67, 34
3, 200400, Note_on_c, 0, 71, 40
3, 200640, Note_on_c, 0, 71, 0
3, 200640, Note_on_c, 0, 67, 0
3, 200640, Note_on_c, 0, 67, 36
3, 200640, Note_on_c, 0, 72, 43
3, 200880, Note_on_c, 0, 72, 0
3, 200880, Note_on_c, 0, 67, 0
3, 200880, Note_on_c, 0, 67, 31
3, 200880, Note_on_c, 0, 72, 37
3, 201120, Note_on_c, 0, 72, 0
3, 201120, Note_on_c, 0, 67, 0
3, 201120, Note_on_c, 0, 67, 36
3, 201120, Note_on_c, 0, 72, 43
3, 201360, Note_on_c, 0, 72, 0
3, 201360, Note_on_c, 0, 67, 0
3, 201360, Note_on_c, 0, 67, 31
3, 201360, Note_on_c, 0, 72, 37
3, 201600, Note_on_c, 0, 72, 0
3, 201600, Note_on_c, 0, 67, 0
3, 201600, Note_on_c, 0, 67, 39
3, 201600, Note_on_c, 0, 71, 47
3, 202080, Note_on_c, 0, 71, 0
3, 202080, Note_on_c, 0, 67, 0
3, 202200, Note_on_c, 0, 67, 56
3, 202320, Note_on_c, 0, 67, 0
3, 202320, Note_on_c, 0, 62, 55
3, 202440, Note_on_c, 0, 62, 0
3, 202440, Note_on_c, 0, 59, 54
3, 202560, Note_on_c, 0, 59, 0
3, 202560, Note_on_c, 0, 55, 60
3, 202800, Note_on_c, 0, 55, 0
3, 203520, Note_on_c, 0, 58, 45
3, 203640, Note_on_c, 0, 58, 0
3, 203640, Note_on_c, 0, 65, 39
3, 203760, Note_on_c, 0, 65, 0
3, 203760, Note_on_c, 0, 62, 45
3, 203880, Note_on_c, 0, 62, 0
3, 203880, Note_on_c, 0, 65, 38
3, 204000, Note_on_c, 0, 65, 0
3, 204000, Note_on_c, 0, 58, 45
3, 204120, Note_on_c, 0, 58, 0
3, 204120, Note_on_c, 0, 65, 41
3, 204240, Note_on_c, 0, 65, 0
3, 204240, Note_on_c, 0, 62, 45
3, 204360, Note_on_c, 0, 62, 0
3, 204360, Note_on_c, 0, 65, 39
3, 204480, Note_on_c, 0, 65, 0
3, 204480, Note_on_c, 0, 60, 45
3, 204600, Note_on_c, 0, 60, 0
3, 204600, Note_on_c, 0, 65, 39
3, 204720, Note_on_c, 0, 65, 0
3, 204720, Note_on_c, 0, 63, 45
3, 204840, Note_on_c, 0, 63, 0
3, 204840, Note_on_c, 0, 65, 39
3, 204960, Note_on_c, 0, 65, 0
3, 204960, Note_on_c, 0, 60, 45
3, 205080, Note_on_c, 0, 60, 0
3, 205080, Note_on_c, 0, 65, 41
3, 205200, Note_on_c, 0, 65, 0
3, 205200, Note_on_c, 0, 63, 45
3, 205320, Note_on_c, 0, 63, 0
3, 205320, Note_on_c, 0, 65, 40
3, 205440, Note_on_c, 0, 65, 0
3, 205440, Note_on_c, 0, 58, 45
3, 205560, Note_on_c, 0, 58, 0
3, 205560, Note_on_c, 0, 65, 40
3, 205680, Note_on_c, 0, 65, 0
3, 205680, Note_on_c, 0, 62, 45
3, 205800, Note_on_c, 0, 62, 0
3, 205800, Note_on_c, 0, 65, 40
3, 205920, Note_on_c, 0, 65, 0
3, 205920, Note_on_c, 0, 58, 45
3, 206040, Note_on_c, 0, 58, 0
3, 206040, Note_on_c, 0, 65, 40
3, 206160, Note_on_c, 0, 65, 0
3, 206160, Note_on_c, 0, 62, 45
3, 206280, Note_on_c, 0, 62, 0
3, 206280, Note_on_c, 0, 65, 39
3, 206400, Note_on_c, 0, 65, 0
3, 206400, Note_on_c, 0, 57, 45
3, 206520, Note_on_c, 0, 57, 0
3, 206520, Note_on_c, 0, 62, 39
3, 206640, Note_on_c, 0, 62, 0
3, 206640, Note_on_c, 0, 60, 45
3, 206760, Note_on_c, 0, 60, 0
3, 206760, Note_on_c, 0, 62, 41
3, 206880, Note_on_c, 0, 62, 0
3, 206880, Note_on_c, 0, 57, 45
3, 207000, Note_on_c, 0, 57, 0
3, 207000, Note_on_c, 0, 62, 40
3, 207120, Note_on_c, 0, 62, 0
3, 207120, Note_on_c, 0, 60, 45
3, 207240, Note_on_c, 0, 60, 0
3, 207240, Note_on_c, 0, 62, 40
3, 207360, Note_on_c, 0, 62, 0
3, 207360, Note_on_c, 0, 55, 45
3, 207480, Note_on_c, 0, 55, 0
3, 207480, Note_on_c, 0, 62, 40
3, 207600, Note_on_c, 0, 62, 0
3, 207600, Note_on_c, 0, 58, 45
3, 207720, Note_on_c, 0, 58, 0
3, 207720, Note_on_c, 0, 62, 39
3, 207840, Note_on_c, 0, 62, 0
3, 207840, Note_on_c, 0, 55, 45
3, 207960, Note_on_c, 0, 55, 0
3, 207960, Note_on_c, 0, 62, 40
3, 208080, Note_on_c, 0, 62, 0
3, 208080, Note_on_c, 0, 58, 45
3, 208200, Note_on_c, 0, 58, 0
3, 208200, Note_on_c, 0, 62, 40
3, 208320, Note_on_c, 0, 62, 0
3, 208320, Note_on_c, 0, 51, 45
3, 208440, Note_on_c, 0, 51, 0
3, 208440, Note_on_c, 0, 55, 39
3, 208560, Note_on_c, 0, 55, 0
3, 208560, Note_on_c, 0, 54, 45
3, 208680, Note_on_c, 0, 54, 0
3, 208680, Note_on_c, 0, 55, 39
3, 208800, Note_on_c, 0, 55, 0
3, 208800, Note_on_c, 0, 51, 45
3, 208920, Note_on_c, 0, 51, 0
3, 208920, Note_on_c, 0, 55, 39
3, 209040, Note_on_c, 0, 55, 0
3, 209040, Note_on_c, 0, 54, 45
3, 209160, Note_on_c, 0, 54, 0
3, 209160, Note_on_c, 0, 55, 39
3, 209280, Note_on_c, 0, 55, 0
3, 209280, Note_on_c, 0, 50, 58
3, 209760, Note_on_c, 0, 50, 0
3, 210240, Note_on_c, 0, 38, 58
3, 210360, Note_on_c, 0, 38, 0
3, 210360, Note_on_c, 0, 50, 57
3, 210480, Note_on_c, 0, 50, 0
3, 210480, Note_on_c, 0, 36, 57
3, 210600, Note_on_c, 0, 36, 0
3, 210600, Note_on_c, 0, 48, 56
3, 210720, Note_on_c, 0, 48, 0
3, 210720, Note_on_c, 0, 35, 56
3, 210840, Note_on_c, 0, 35, 0
3, 210840, Note_on_c, 0, 47, 55
3, 210960, Note_on_c, 0, 47, 0
3, 210960, Note_on_c, 0, 33, 55
3, 211080, Note_on_c, 0, 33, 0
3, 211080, Note_on_c, 0, 45, 56
3, 211200, Note_on_c, 0, 45, 0
3, 211200, Note_on_c, 0, 31, 65
3, 211200, Control_c, 0, 91, 127
3, 211680, Note_on_c, 0, 31, 0
3, 211680, Note_on_c, 0, 55, 30
3, 211680, Note_on_c, 0, 59, 36
3, 211920, Note_on_c, 0, 59, 0
3, 211920, Note_on_c, 0, 55, 0
3, 211920, Note_on_c, 0, 55, 30
3, 211920, Note_on_c, 0, 59, 36
3, 212160, Note_on_c, 0, 59, 0
3, 212160, Note_on_c, 0, 55, 0
3, 212160, Note_on_c, 0, 55, 34
3, 212160, Note_on_c, 0, 59, 40
3, 212400, Note_on_c, 0, 59, 0
3, 212400, Note_on_c, 0, 55, 0
3, 212400, Note_on_c, 0, 55, 32
3, 212400, Note_on_c, 0, 59, 38
3, 212640, Note_on_c, 0, 59, 0
3, 212640, Note_on_c, 0, 55, 0
3, 212640, Note_on_c, 0, 55, 32
3, 212640, Note_on_c, 0, 59, 38
3, 212880, Note_on_c, 0, 59, 0
3, 212880, Note_on_c, 0, 55, 0
3, 212880, Note_on_c, 0, 55, 32
3, 212880, Note_on_c, 0, 59, 38
3, 213120, Note_on_c, 0, 59, 0
3, 213120, Note_on_c, 0, 55, 0
3, 213120, Note_on_c, 0, 55, 37
3, 213120, Note_on_c, 0, 60, 44
3, 213600, Note_on_c, 0, 60, 0
3, 213600, Note_on_c, 0, 55, 0
3, 213600, Note_on_c, 0, 55, 34
3, 213600, Note_on_c, 0, 59, 41
3, 213840, Note_on_c, 0, 59, 0
3, 213840, Note_on_c, 0, 55, 0
3, 214080, Note_on_c, 0, 74, 41
3, 214080, Note_on_c, 0, 68, 41
3, 214200, Note_on_c, 0, 68, 0
3, 214200, Note_on_c, 0, 74, 0
3, 214320, Note_on_c, 0, 74, 38
3, 214320, Note_on_c, 0, 68, 38
3, 214440, Note_on_c, 0, 68, 0
3, 214440, Note_on_c, 0, 74, 0
3, 214560, Note_on_c, 0, 74, 44
3, 214560, Note_on_c, 0, 68, 44
3, 214680, Note_on_c, 0, 68, 0
3, 214680, Note_on_c, 0, 74, 0
3, 214800, Note_on_c, 0, 68, 41
3, 214800, Note_on_c, 0, 74, 41
3, 214920, Note_on_c, 0, 74, 0
3, 214920, Note_on_c, 0, 68, 0
3, 215040, Note_on_c, 0, 69, 50
3, 215040, Note_on_c, 0, 72, 50
3, 215520, Note_on_c, 0, 72, 0
3, 215520, Note_on_c, 0, 69, 0
3, 216000, Note_on_c, 0, 72, 41
3, 216000, Note_on_c, 0, 66, 41
3, 216120, Note_on_c, 0, 66, 0
3, 216120, Note_on_c, 0, 72, 0
3, 216240, Note_on_c, 0, 72, 38
3, 216240, Note_on_c, 0, 66, 38
3, 216360, Note_on_c, 0, 66, 0
3, 216360, Note_on_c, 0, 72, 0
3, 216480, Note_on_c, 0, 72, 44
3, 216480, Note_on_c, 0, 66, 44
3, 216600, Note_on_c, 0, 66, 0
3, 216600, Note_on_c, 0, 72, 0
3, 216720, Note_on_c, 0, 66, 41
3, 216720, Note_on_c, 0, 72, 41
3, 216840, Note_on_c, 0, 72, 0
3, 216840, Note_on_c, 0, 66, 0
3, 216960, Note_on_c, 0, 67, 50
3, 216960, Note_on_c, 0, 71, 50
3, 217440, Note_on_c, 0, 71, 0
3, 217440, Note_on_c, 0, 67, 0
3, 220800, Note_on_c, 0, 64, 34
3, 220800, Note_on_c, 0, 67, 34
3, 221280, Note_on_c, 0, 67, 0
3, 221280, Note_on_c, 0, 64, 0
3, 221760, Note_on_c, 0, 63, 45
3, 221880, Note_on_c, 0, 63, 0
3, 221880, Note_on_c, 0, 67, 38
3, 222000, Note_on_c, 0, 67, 0
3, 222000, Note_on_c, 0, 63, 45
3, 222120, Note_on_c, 0, 63, 0
3, 222120, Note_on_c, 0, 67, 38
3, 222240, Note_on_c, 0, 67, 0
3, 222240, Note_on_c, 0, 63, 45
3, 222360, Note_on_c, 0, 63, 0
3, 222360, Note_on_c, 0, 67, 39
3, 222480, Note_on_c, 0, 67, 0
3, 222480, Note_on_c, 0, 63, 45
3, 222600, Note_on_c, 0, 63, 0
3, 222600, Note_on_c, 0, 67, 39
3, 222720, Note_on_c, 0, 67, 0
3, 222720, Note_on_c, 0, 62, 50
3, 222720, Note_on_c, 0, 66, 50
3, 223200, Note_on_c, 0, 66, 0
3, 223200, Note_on_c, 0, 62, 0
3, 223200, Note_on_c, 0, 67, 46
3, 223680, Note_on_c, 0, 67, 0
3, 223680, Note_on_c, 0, 60, 49
3, 223680, Note_on_c, 0, 72, 49
3, 224160, Note_on_c, 0, 72, 0
3, 224160, Note_on_c, 0, 60, 0
3, 224160, Note_on_c, 0, 62, 47
3, 224160, Note_on_c, 0, 72, 47
3, 224640, Note_on_c, 0, 72, 0
3, 224640, Note_on_c, 0, 62, 0
3, 224640, Note_on_c, 0, 67, 39
3, 224640, Note_on_c, 0, 71, 47
3, 224880, Note_on_c, 0, 71, 0
3, 224880, Note_on_c, 0, 67, 0
3, 224880, Note_on_c, 0, 67, 34
3, 224880, Note_on_c, 0, 71, 40
3, 225120, Note_on_c, 0, 71, 0
3, 225120, Note_on_c, 0, 67, 0
3, 225120, Note_on_c, 0, 67, 36
3, 225120, Note_on_c, 0, 71, 43
3, 225360, Note_on_c, 0, 71, 0
3, 225360, Note_on_c, 0, 67, 0
3, 225360, Note_on_c, 0, 67, 34
3, 225360, Note_on_c, 0, 71, 40
3, 225600, Note_on_c, 0, 71, 0
3, 225600, Note_on_c, 0, 67, 0
3, 225600, Note_on_c, 0, 67, 36
3, 225600, Note_on_c, 0, 72, 43
3, 225840, Note_on_c, 0, 72, 0
3, 225840, Note_on_c, 0, 67, 0
3, 225840, Note_on_c, 0, 67, 31
3, 225840, Note_on_c, 0, 72, 37
3, 226080, Note_on_c, 0, 72, 0
3, 226080, Note_on_c, 0, 67, 0
3, 226080, Note_on_c, 0, 67, 36
3, 226080, Note_on_c, 0, 72, 43
3, 226320, Note_on_c, 0, 72, 0
3, 226320, Note_on_c, 0, 67, 0
3, 226320, Note_on_c, 0, 67, 31
3, 226320, Note_on_c, 0, 72, 37
3, 226560, Note_on_c, 0, 72, 0
3, 226560, Note_on_c, 0, 67, 0
3, 226560, Note_on_c, 0, 67, 39
3, 226560, Note_on_c, 0, 71, 47
3, 226800, Note_on_c, 0, 71, 0
3, 226800, Note_on_c, 0, 67, 0
3, 226800, Note_on_c, 0, 67, 34
3, 226800, Note_on_c, 0, 71, 40
3, 227040, Note_on_c, 0, 71, 0
3, 227040, Note_on_c, 0, 67, 0
3, 227040, Note_on_c, 0, 67, 36
3, 227040, Note_on_c, 0, 71, 43
3, 227280, Note_on_c, 0, 71, 0
3, 227280, Note_on_c, 0, 67, 0
3, 227280, Note_on_c, 0, 67, 34
3, 227280, Note_on_c, 0, 71, 40
3, 227520, Note_on_c, 0, 71, 0
3, 227520, Note_on_c, 0, 67, 0
3, 227520, Note_on_c, 0, 67, 36
3, 227520, Note_on_c, 0, 72, 43
3, 227760, Note_on_c, 0, 72, 0
3, 227760, Note_on_c, 0, 67, 0
3, 227760, Note_on_c, 0, 67, 31
3, 227760, Note_on_c, 0, 72, 37
3, 228000, Note_on_c, 0, 72, 0
3, 228000, Note_on_c, 0, 67, 0
3, 228000, Note_on_c, 0, 67, 36
3, 228000, Note_on_c, 0, 72, 43
3, 228240, Note_on_c, 0, 72, 0
3, 228240, Note_on_c, 0, 67, 0
3, 228240, Note_on_c, 0, 67, 31
3, 228240, Note_on_c, 0, 72, 37
3, 228480, Note_on_c, 0, 72, 0
3, 228480, Note_on_c, 0, 67, 0
3, 228480, Note_on_c, 0, 67, 39
3, 228480, Note_on_c, 0, 71, 47
3, 228960, Note_on_c, 0, 71, 0
3, 228960, Note_on_c, 0, 67, 0
3, 229080, Note_on_c, 0, 67, 56
3, 229200, Note_on_c, 0, 67, 0
3, 229200, Note_on_c, 0, 62, 55
3, 229320, Note_on_c, 0, 62, 0
3, 229320, Note_on_c, 0, 59, 54
3, 229440, Note_on_c, 0, 59, 0
3, 229440, Note_on_c, 0, 55, 60
3, 229680, Note_on_c, 0, 55, 0
3, 229680, End_track
4, 0, Start_track
4, 0, Title_t, "Pedale"
4, 74, Control_c, 0, 64, 127
4, 381, Control_c, 0, 64, 0
4, 1017, Control_c, 0, 64, 127
4, 1920, Control_c, 0, 64, 0
4, 3932, Control_c, 0, 64, 127
4, 4214, Control_c, 0, 64, 0
4, 4899, Control_c, 0, 64, 127
4, 5292, Control_c, 0, 64, 0
4, 5354, Control_c, 0, 64, 127
4, 5771, Control_c, 0, 64, 0
4, 5845, Control_c, 0, 64, 127
4, 6255, Control_c, 0, 64, 0
4, 6367, Control_c, 0, 64, 127
4, 6737, Control_c, 0, 64, 0
4, 7754, Control_c, 0, 64, 127
4, 8048, Control_c, 0, 64, 0
4, 8711, Control_c, 0, 64, 127
4, 9600, Control_c, 0, 64, 0
4, 11566, Control_c, 0, 64, 127
4, 12018, Control_c, 0, 64, 0
4, 12052, Control_c, 0, 64, 127
4, 12494, Control_c, 0, 64, 0
4, 12580, Control_c, 0, 64, 127
4, 12975, Control_c, 0, 64, 0
4, 13020, Control_c, 0, 64, 127
4, 13440, Control_c, 0, 64, 0
4, 17346, Control_c, 0, 64, 127
4, 17775, Control_c, 0, 64, 0
4, 17900, Control_c, 0, 64, 127
4, 18749, Control_c, 0, 64, 0
4, 19271, Control_c, 0, 64, 127
4, 19581, Control_c, 0, 64, 0
4, 20217, Control_c, 0, 64, 127
4, 21120, Control_c, 0, 64, 0
4, 23132, Control_c, 0, 64, 127
4, 23414, Control_c, 0, 64, 0
4, 24099, Control_c, 0, 64, 127
4, 24492, Control_c, 0, 64, 0
4, 24554, Control_c, 0, 64, 127
4, 24971, Control_c, 0, 64, 0
4, 25045, Control_c, 0, 64, 127
4, 25455, Control_c, 0, 64, 0
4, 25567, Control_c, 0, 64, 127
4, 25937, Control_c, 0, 64, 0
4, 26954, Control_c, 0, 64, 127
4, 27248, Control_c, 0, 64, 0
4, 27911, Control_c, 0, 64, 127
4, 28800, Control_c, 0, 64, 0
4, 30766, Control_c, 0, 64, 127
4, 31218, Control_c, 0, 64, 0
4, 31252, Control_c, 0, 64, 127
4, 31694, Control_c, 0, 64, 0
4, 31780, Control_c, 0, 64, 127
4, 32175, Control_c, 0, 64, 0
4, 32220, Control_c, 0, 64, 127
4, 32640, Control_c, 0, 64, 0
4, 36546, Control_c, 0, 64, 127
4, 36975, Control_c, 0, 64, 0
4, 37100, Control_c, 0, 64, 127
4, 37949, Control_c, 0, 64, 0
4, 38520, Control_c, 0, 64, 127
4, 38892, Control_c, 0, 64, 0
4, 39917, Control_c, 0, 64, 127
4, 40320, Control_c, 0, 64, 0
4, 40472, Control_c, 0, 64, 127
4, 40691, Control_c, 0, 64, 0
4, 41827, Control_c, 0, 64, 127
4, 42259, Control_c, 0, 64, 0
4, 42388, Control_c, 0, 64, 127
4, 42619, Control_c, 0, 64, 0
4, 43740, Control_c, 0, 64, 127
4, 44160, Control_c, 0, 64, 0
4, 44294, Control_c, 0, 64, 127
4, 44541, Control_c, 0, 64, 0
4, 44707, Control_c, 0, 64, 127
4, 44892, Control_c, 0, 64, 0
4, 45194, Control_c, 0, 64, 127
4, 45611, Control_c, 0, 64, 0
4, 46133, Control_c, 0, 64, 127
4, 46453, Control_c, 0, 64, 0
4, 47136, Control_c, 0, 64, 127
4, 48000, Control_c, 0, 64, 0
4, 49984, Control_c, 0, 64, 127
4, 50443, Control_c, 0, 64, 0
4, 51883, Control_c, 0, 64, 127
4, 52337, Control_c, 0, 64, 0
4, 56726, Control_c, 0, 64, 127
4, 57492, Control_c, 0, 64, 0
4, 57713, Control_c, 0, 64, 127
4, 57974, Control_c, 0, 64, 0
4, 58190, Control_c, 0, 64, 127
4, 58573, Control_c, 0, 64, 0
4, 58673, Control_c, 0, 64, 127
4, 59058, Control_c, 0, 64, 0
4, 59128, Control_c, 0, 64, 127
4, 59520, Control_c, 0, 64, 0
4, 63487, Control_c, 0, 64, 127
4, 63851, Control_c, 0, 64, 0
4, 63907, Control_c, 0, 64, 127
4, 64814, Control_c, 0, 64, 0
4, 65403, Control_c, 0, 64, 127
4, 65772, Control_c, 0, 64, 0
4, 66797, Control_c, 0, 64, 127
4, 67200, Control_c, 0, 64, 0
4, 67352, Control_c, 0, 64, 127
4, 67571, Control_c, 0, 64, 0
4, 68707, Control_c, 0, 64, 127
4, 69139, Control_c, 0, 64, 0
4, 69268, Control_c, 0, 64, 127
4, 69499, Control_c, 0, 64, 0
4, 70620, Control_c, 0, 64, 127
4, 71040, Control_c, 0, 64, 0
4, 71174, Control_c, 0, 64, 127
4, 71421, Control_c, 0, 64, 0
4, 71587, Control_c, 0, 64, 127
4, 71772, Control_c, 0, 64, 0
4, 72074, Control_c, 0, 64, 127
4, 72491, Control_c, 0, 64, 0
4, 73013, Control_c, 0, 64, 127
4, 73333, Control_c, 0, 64, 0
4, 74016, Control_c, 0, 64, 127
4, 74880, Control_c, 0, 64, 0
4, 76917, Control_c, 0, 64, 127
4, 77323, Control_c, 0, 64, 0
4, 78805, Control_c, 0, 64, 127
4, 79217, Control_c, 0, 64, 0
4, 83606, Control_c, 0, 64, 127
4, 84372, Control_c, 0, 64, 0
4, 84593, Control_c, 0, 64, 127
4, 84854, Control_c, 0, 64, 0
4, 85070, Control_c, 0, 64, 127
4, 85453, Control_c, 0, 64, 0
4, 85553, Control_c, 0, 64, 127
4, 85938, Control_c, 0, 64, 0
4, 86008, Control_c, 0, 64, 127
4, 86400, Control_c, 0, 64, 0
4, 90360, Control_c, 0, 64, 127
4, 90731, Control_c, 0, 64, 0
4, 90787, Control_c, 0, 64, 127
4, 91694, Control_c, 0, 64, 0
4, 92366, Control_c, 0, 64, 127
4, 93141, Control_c, 0, 64, 0
4, 93440, Control_c, 0, 64, 127
4, 94080, Control_c, 0, 64, 0
4, 94286, Control_c, 0, 64, 127
4, 94821, Control_c, 0, 64, 0
4, 95189, Control_c, 0, 64, 127
4, 96000, Control_c, 0, 64, 0
4, 96160, Control_c, 0, 64, 127
4, 96985, Control_c, 0, 64, 0
4, 97155, Control_c, 0, 64, 127
4, 97687, Control_c, 0, 64, 0
4, 97920, Control_c, 0, 64, 127
4, 98177, Control_c, 0, 64, 0
4, 98309, Control_c, 0, 64, 127
4, 98416, Control_c, 0, 64, 0
4, 98903, Control_c, 0, 64, 127
4, 99497, Control_c, 0, 64, 0
4, 100080, Control_c, 0, 64, 127
4, 100821, Control_c, 0, 64, 0
4, 101120, Control_c, 0, 64, 127
4, 101760, Control_c, 0, 64, 0
4, 101966, Control_c, 0, 64, 127
4, 102501, Control_c, 0, 64, 0
4, 102869, Control_c, 0, 64, 127
4, 103680, Control_c, 0, 64, 0
4, 103840, Control_c, 0, 64, 127
4, 104665, Control_c, 0, 64, 0
4, 104835, Control_c, 0, 64, 127
4, 105367, Control_c, 0, 64, 0
4, 105600, Control_c, 0, 64, 127
4, 105857, Control_c, 0, 64, 0
4, 105989, Control_c, 0, 64, 127
4, 106096, Control_c, 0, 64, 0
4, 106583, Control_c, 0, 64, 127
4, 107177, Control_c, 0, 64, 0
4, 107726, Control_c, 0, 64, 127
4, 108489, Control_c, 0, 64, 0
4, 108812, Control_c, 0, 64, 127
4, 109440, Control_c, 0, 64, 0
4, 109596, Control_c, 0, 64, 127
4, 109934, Control_c, 0, 64, 0
4, 110076, Control_c, 0, 64, 127
4, 110417, Control_c, 0, 64, 0
4, 110570, Control_c, 0, 64, 127
4, 110661, Control_c, 0, 64, 0
4, 111516, Control_c, 0, 64, 127
4, 111857, Control_c, 0, 64, 0
4, 112038, Control_c, 0, 64, 127
4, 112885, Control_c, 0, 64, 0
4, 113040, Control_c, 0, 64, 127
4, 113530, Control_c, 0, 64, 0
4, 113619, Control_c, 0, 64, 127
4, 114017, Control_c, 0, 64, 0
4, 114106, Control_c, 0, 64, 127
4, 114493, Control_c, 0, 64, 0
4, 114854, Control_c, 0, 64, 127
4, 115208, Control_c, 0, 64, 0
4, 115349, Control_c, 0, 64, 127
4, 116168, Control_c, 0, 64, 0
4, 116709, Control_c, 0, 64, 127
4, 117124, Control_c, 0, 64, 0
4, 117459, Control_c, 0, 64, 127
4, 118097, Control_c, 0, 64, 0
4, 118447, Control_c, 0, 64, 127
4, 119040, Control_c, 0, 64, 0
4, 119196, Control_c, 0, 64, 127
4, 121693, Control_c, 0, 64, 0
4, 121857, Control_c, 0, 64, 127
4, 121991, Control_c, 0, 64, 0
4, 122210, Control_c, 0, 64, 127
4, 122450, Control_c, 0, 64, 0
4, 122725, Control_c, 0, 64, 127
4, 122885, Control_c, 0, 64, 0
4, 123652, Control_c, 0, 64, 127
4, 123920, Control_c, 0, 64, 0
4, 124166, Control_c, 0, 64, 127
4, 124389, Control_c, 0, 64, 0
4, 124640, Control_c, 0, 64, 127
4, 124800, Control_c, 0, 64, 0
4, 128823, Control_c, 0, 64, 127
4, 129246, Control_c, 0, 64, 0
4, 129680, Control_c, 0, 64, 127
4, 130229, Control_c, 0, 64, 0
4, 130744, Control_c, 0, 64, 127
4, 131210, Control_c, 0, 64, 0
4, 131647, Control_c, 0, 64, 127
4, 132170, Control_c, 0, 64, 0
4, 132686, Control_c, 0, 64, 127
4, 133109, Control_c, 0, 64, 0
4, 133635, Control_c, 0, 64, 127
4, 134057, Control_c, 0, 64, 0
4, 134560, Control_c, 0, 64, 127
4, 135052, Control_c, 0, 64, 0
4, 135463, Control_c, 0, 64, 127
4, 135966, Control_c, 0, 64, 0
4, 136476, Control_c, 0, 64, 127
4, 136956, Control_c, 0, 64, 0
4, 137548, Control_c, 0, 64, 127
4, 137958, Control_c, 0, 64, 0
4, 138339, Control_c, 0, 64, 127
4, 138595, Control_c, 0, 64, 0
4, 139285, Control_c, 0, 64, 127
4, 140160, Control_c, 0, 64, 0
4, 142130, Control_c, 0, 64, 127
4, 142578, Control_c, 0, 64, 0
4, 143171, Control_c, 0, 64, 127
4, 143539, Control_c, 0, 64, 0
4, 143612, Control_c, 0, 64, 127
4, 144007, Control_c, 0, 64, 0
4, 144170, Control_c, 0, 64, 127
4, 144497, Control_c, 0, 64, 0
4, 144593, Control_c, 0, 64, 127
4, 144973, Control_c, 0, 64, 0
4, 145970, Control_c, 0, 64, 127
4, 146291, Control_c, 0, 64, 0
4, 149823, Control_c, 0, 64, 127
4, 150257, Control_c, 0, 64, 0
4, 150809, Control_c, 0, 64, 127
4, 151222, Control_c, 0, 64, 0
4, 151275, Control_c, 0, 64, 127
4, 151697, Control_c, 0, 64, 0
4, 157507, Control_c, 0, 64, 127
4, 157816, Control_c, 0, 64, 0
4, 159932, Control_c, 0, 64, 127
4, 160335, Control_c, 0, 64, 0
4, 160423, Control_c, 0, 64, 127
4, 161296, Control_c, 0, 64, 0
4, 164252, Control_c, 0, 64, 127
4, 164415, Control_c, 0, 64, 0
4, 164492, Control_c, 0, 64, 127
4, 164657, Control_c, 0, 64, 0
4, 164737, Control_c, 0, 64, 127
4, 164898, Control_c, 0, 64, 0
4, 164960, Control_c, 0, 64, 127
4, 165131, Control_c, 0, 64, 0
4, 165184, Control_c, 0, 64, 127
4, 165498, Control_c, 0, 64, 0
4, 169023, Control_c, 0, 64, 127
4, 169463, Control_c, 0, 64, 0
4, 169986, Control_c, 0, 64, 127
4, 170413, Control_c, 0, 64, 0
4, 170477, Control_c, 0, 64, 127
4, 170888, Control_c, 0, 64, 0
4, 175740, Control_c, 0, 64, 127
4, 176181, Control_c, 0, 64, 0
4, 176695, Control_c, 0, 64, 127
4, 177132, Control_c, 0, 64, 0
4, 177175, Control_c, 0, 64, 127
4, 177617, Control_c, 0, 64, 0
4, 177652, Control_c, 0, 64, 127
4, 177855, Control_c, 0, 64, 0
4, 177909, Control_c, 0, 64, 127
4, 178560, Control_c, 0, 64, 0
4, 178656, Control_c, 0, 64, 127
4, 179056, Control_c, 0, 64, 0
4, 179107, Control_c, 0, 64, 127
4, 179536, Control_c, 0, 64, 0
4, 179594, Control_c, 0, 64, 127
4, 179769, Control_c, 0, 64, 0
4, 179848, Control_c, 0, 64, 127
4, 180493, Control_c, 0, 64, 0
4, 180583, Control_c, 0, 64, 127
4, 180981, Control_c, 0, 64, 0
4, 181038, Control_c, 0, 64, 127
4, 181455, Control_c, 0, 64, 0
4, 181497, Control_c, 0, 64, 127
4, 181691, Control_c, 0, 64, 0
4, 181754, Control_c, 0, 64, 127
4, 182400, Control_c, 0, 64, 0
4, 184408, Control_c, 0, 64, 127
4, 184691, Control_c, 0, 64, 0
4, 194003, Control_c, 0, 64, 127
4, 194406, Control_c, 0, 64, 0
4, 194952, Control_c, 0, 64, 127
4, 195132, Control_c, 0, 64, 0
4, 195183, Control_c, 0, 64, 127
4, 195375, Control_c, 0, 64, 0
4, 195417, Control_c, 0, 64, 127
4, 195840, Control_c, 0, 64, 0
4, 197859, Control_c, 0, 64, 127
4, 198730, Control_c, 0, 64, 0
4, 198840, Control_c, 0, 64, 127
4, 199692, Control_c, 0, 64, 0
4, 199828, Control_c, 0, 64, 127
4, 200658, Control_c, 0, 64, 0
4, 200803, Control_c, 0, 64, 127
4, 201621, Control_c, 0, 64, 0
4, 201706, Control_c, 0, 64, 127
4, 202758, Control_c, 0, 64, 0
4, 203583, Control_c, 0, 64, 127
4, 204012, Control_c, 0, 64, 0
4, 204055, Control_c, 0, 64, 127
4, 204497, Control_c, 0, 64, 0
4, 204532, Control_c, 0, 64, 127
4, 204735, Control_c, 0, 64, 0
4, 204789, Control_c, 0, 64, 127
4, 205440, Control_c, 0, 64, 0
4, 205536, Control_c, 0, 64, 127
4, 205936, Control_c, 0, 64, 0
4, 205987, Control_c, 0, 64, 127
4, 206416, Control_c, 0, 64, 0
4, 206474, Control_c, 0, 64, 127
4, 206649, Control_c, 0, 64, 0
4, 206728, Control_c, 0, 64, 127
4, 207373, Control_c, 0, 64, 0
4, 207463, Control_c, 0, 64, 127
4, 207861, Control_c, 0, 64, 0
4, 207918, Control_c, 0, 64, 127
4, 208335, Control_c, 0, 64, 0
4, 208377, Control_c, 0, 64, 127
4, 208571, Control_c, 0, 64, 0
4, 208634, Control_c, 0, 64, 127
4, 209280, Control_c, 0, 64, 0
4, 211288, Control_c, 0, 64, 127
4, 211571, Control_c, 0, 64, 0
4, 220883, Control_c, 0, 64, 127
4, 221286, Control_c, 0, 64, 0
4, 221832, Control_c, 0, 64, 127
4, 222012, Control_c, 0, 64, 0
4, 222063, Control_c, 0, 64, 127
4, 222255, Control_c, 0, 64, 0
4, 222297, Control_c, 0, 64, 127
4, 222720, Control_c, 0, 64, 0
4, 224739, Control_c, 0, 64, 127
4, 225610, Control_c, 0, 64, 0
4, 225720, Control_c, 0, 64, 127
4, 226572, Control_c, 0, 64, 0
4, 226708, Control_c, 0, 64, 127
4, 227538, Control_c, 0, 64, 0
4, 227683, Control_c, 0, 64, 127
4, 228501, Control_c, 0, 64, 0
4, 228586, Control_c, 0, 64, 127
4, 229638, Control_c, 0, 64, 0
4, 229638, End_track
5, 0, Start_track
5, 0, Title_t, "Haydn: Piano sonata in G major, Hoboken XVI:40, 2. Movement"
5, 0, End_track
6, 0, Start_track
6, 0, Title_t, "Copyright © 1998 by Bernd Krüger"
6, 0, End_track
7, 0, Start_track
7, 0, Title_t, "http://www.piano-midi.de"
7, 0, End_track
8, 0, Start_track
8, 0, Title_t, "Edition: 2011-11-29"
8, 0, End_track
0, 0, End_of_file
