0, 0, Header, 1, 17, 480
1, 0, Start_track
1, 0, Title_t, "Haydn: Klaviersonate Hoboken XVI: 33 2. Satz"
1, 0, Copyright_t, "Copyright © 2012 by Bernd Krueger"
1, 0, Text_t, "Bernd Krueger"
1, 0, Text_t, "Adagio"
1, 0, Text_t, "Erstellt: 18.2.2012\012"
1, 0, Text_t, "Dauer:  5:18 Minuten\012"
1, 0, Time_signature, 3, 2, 24, 8
1, 0, Key_signature, -1, "major"
1, 0, Tempo, 1613337
1, 0, Marker_t, "Teil 1"
1, 360, Tempo, 860462
1, 480, Tempo, 1613337
1, 1440, Tempo, 1633097
1, 1800, Tempo, 849497
1, 1920, Tempo, 1594049
1, 2280, Tempo, 1298701
1, 4320, Tempo, 1538856
1, 4440, Tempo, 1613337
1, 4512, Tempo, 1674107
1, 4531, Tempo, 1613337
1, 4551, Tempo, 1556824
1, 4570, Tempo, 1504136
1, 4589, Tempo, 1286174
1, 4608, Tempo, 1238135
1, 4627, Tempo, 1193792
1, 4647, Tempo, 1142639
1, 4666, Tempo, 1104769
1, 4685, Tempo, 1069138
1, 4704, Tempo, 1027925
1, 4740, Tempo, 1613337
1, 4800, Tempo, 1113999
1, 5760, Tempo, 1937359
1, 6000, Tempo, 823271
1, 6240, Tempo, 1613337
1, 6720, Tempo, 1467351
1, 6797, Tempo, 1435750
1, 6835, Tempo, 1420455
1, 6855, Tempo, 1405481
1, 6874, Tempo, 1390821
1, 6893, Tempo, 1376462
1, 6912, Tempo, 1362398
1, 6931, Tempo, 1348618
1, 6945, Tempo, 1362398
1, 6975, Tempo, 1348618
1, 7005, Tempo, 1335113
1, 7035, Tempo, 1321877
1, 7065, Tempo, 1308901
1, 7095, Tempo, 1296176
1, 7120, Tempo, 1856436
1, 7200, Tempo, 1995344
1, 7440, Tempo, 833565
1, 7680, Tempo, 1321877
1, 8160, Tempo, 1140684
1, 8220, Tempo, 1590246
1, 8240, Tempo, 1271456
1, 8640, Tempo, 1140684
1, 8700, Tempo, 1571503
1, 8720, Tempo, 1348618
1, 10000, Tempo, 1669914
1, 10080, Tempo, 1500750
1, 11520, Tempo, 1712818
1, 11600, Tempo, 1335113
1, 12527, Tempo, 1335113
1, 12617, Tempo, 1348618
1, 12707, Tempo, 1362398
1, 12797, Tempo, 1376462
1, 12872, Tempo, 1390821
1, 12880, Tempo, 1757984
1, 12960, Tempo, 1321877
1, 13800, Tempo, 1224490
1, 13920, Tempo, 1308901
1, 14040, Tempo, 1435750
1, 14400, Tempo, 1712818
1, 14480, Tempo, 1335113
1, 15407, Tempo, 1335113
1, 15497, Tempo, 1348618
1, 15587, Tempo, 1362398
1, 15677, Tempo, 1376462
1, 15752, Tempo, 1390821
1, 15760, Tempo, 1757984
1, 15840, Tempo, 1321877
1, 16680, Tempo, 1224490
1, 16800, Tempo, 1308901
1, 16920, Tempo, 1435750
1, 17280, Tempo, 1308901
1, 17440, Tempo, 1383445
1, 17680, Tempo, 1605566
1, 17760, Tempo, 1433007
1, 18240, Tempo, 1467351
1, 18317, Tempo, 1435750
1, 18355, Tempo, 1420455
1, 18375, Tempo, 1405481
1, 18394, Tempo, 1390821
1, 18413, Tempo, 1376462
1, 18432, Tempo, 1362398
1, 18451, Tempo, 1348618
1, 18465, Tempo, 1362398
1, 18495, Tempo, 1348618
1, 18525, Tempo, 1335113
1, 18555, Tempo, 1321877
1, 18585, Tempo, 1308901
1, 18615, Tempo, 1296176
1, 18640, Tempo, 1856436
1, 18720, Tempo, 1390821
1, 19100, Tempo, 1352265
1, 19250, Tempo, 1337196
1, 19400, Tempo, 1322460
1, 19550, Tempo, 1308044
1, 19560, Tempo, 1283697
1, 19680, Tempo, 1376462
1, 20160, Tempo, 1390821
1, 20210, Tempo, 1383445
1, 20315, Tempo, 1367677
1, 20420, Tempo, 1352265
1, 20525, Tempo, 1337196
1, 20615, Tempo, 1293940
1, 20690, Tempo, 1308044
1, 20765, Tempo, 1322460
1, 20840, Tempo, 1337196
1, 20915, Tempo, 1352265
1, 20975, Tempo, 1367677
1, 21000, Tempo, 1283697
1, 21120, Tempo, 1376462
1, 21520, Tempo, 1720677
1, 21600, Tempo, 1544799
1, 21720, Tempo, 1384402
1, 22115, Tempo, 1337196
1, 22175, Tempo, 1352265
1, 22220, Tempo, 1367677
1, 22280, Tempo, 1383445
1, 22325, Tempo, 1399580
1, 22385, Tempo, 1416096
1, 22430, Tempo, 1433007
1, 22440, Tempo, 1283697
1, 22560, Tempo, 1376462
1, 23030, Tempo, 1433007
1, 23060, Tempo, 1416096
1, 23075, Tempo, 1399580
1, 23105, Tempo, 1383445
1, 23120, Tempo, 1367677
1, 23150, Tempo, 1352265
1, 23165, Tempo, 1337196
1, 23195, Tempo, 1322460
1, 23210, Tempo, 1308044
1, 23255, Tempo, 1322460
1, 23285, Tempo, 1337196
1, 23330, Tempo, 1352265
1, 23360, Tempo, 1367677
1, 23405, Tempo, 1383445
1, 23435, Tempo, 1399580
1, 23440, Tempo, 1629107
1, 23520, Tempo, 1376462
1, 23920, Tempo, 1362398
1, 24000, Tempo, 1376462
1, 24240, Tempo, 1451379
1, 24480, Tempo, 1487357
1, 24547, Tempo, 1451379
1, 24560, Tempo, 1384402
1, 24600, Tempo, 1368613
1, 24720, Tempo, 1417100
1, 24800, Tempo, 1384402
1, 24840, Tempo, 1338091
1, 24880, Tempo, 1384402
1, 24960, Tempo, 1400560
1, 25040, Tempo, 1400560
1, 25080, Tempo, 1338091
1, 25200, Tempo, 1451379
1, 25280, Tempo, 1384402
1, 25320, Tempo, 1353180
1, 25440, Tempo, 1308901
1, 25663, Tempo, 1294778
1, 25721, Tempo, 1308901
1, 25759, Tempo, 1323335
1, 25798, Tempo, 1338091
1, 25836, Tempo, 1353180
1, 25875, Tempo, 1368613
1, 25920, Tempo, 1390821
1, 26435, Tempo, 1337196
1, 26495, Tempo, 1352265
1, 26540, Tempo, 1367677
1, 26600, Tempo, 1383445
1, 26645, Tempo, 1399580
1, 26705, Tempo, 1416096
1, 26750, Tempo, 1433007
1, 26760, Tempo, 1283697
1, 26880, Tempo, 1376462
1, 27350, Tempo, 1433007
1, 27380, Tempo, 1416096
1, 27395, Tempo, 1399580
1, 27425, Tempo, 1383445
1, 27440, Tempo, 1367677
1, 27470, Tempo, 1352265
1, 27485, Tempo, 1337196
1, 27515, Tempo, 1322460
1, 27530, Tempo, 1308044
1, 27575, Tempo, 1322460
1, 27605, Tempo, 1337196
1, 27650, Tempo, 1352265
1, 27680, Tempo, 1367677
1, 27725, Tempo, 1383445
1, 27755, Tempo, 1399580
1, 27760, Tempo, 1629107
1, 27840, Tempo, 1376462
1, 28240, Tempo, 1362398
1, 28320, Tempo, 1376462
1, 28560, Tempo, 1451379
1, 28800, Tempo, 1487357
1, 28867, Tempo, 1451379
1, 28880, Tempo, 1384402
1, 28920, Tempo, 1368613
1, 29040, Tempo, 1417100
1, 29120, Tempo, 1384402
1, 29160, Tempo, 1338091
1, 29200, Tempo, 1384402
1, 29280, Tempo, 1400560
1, 29360, Tempo, 1400560
1, 29400, Tempo, 1338091
1, 29520, Tempo, 1451379
1, 29600, Tempo, 1384402
1, 29640, Tempo, 1353180
1, 29760, Tempo, 1308901
1, 29983, Tempo, 1294778
1, 30041, Tempo, 1308901
1, 30079, Tempo, 1323335
1, 30118, Tempo, 1338091
1, 30156, Tempo, 1353180
1, 30195, Tempo, 1368613
1, 30240, Tempo, 1390821
1, 30720, Tempo, 1400560
1, 30734, Tempo, 1434034
1, 30753, Tempo, 1417100
1, 30772, Tempo, 1400560
1, 30791, Tempo, 1384402
1, 30811, Tempo, 1368613
1, 30830, Tempo, 1353180
1, 30849, Tempo, 1338091
1, 30868, Tempo, 1323335
1, 30887, Tempo, 1308901
1, 30907, Tempo, 1294778
1, 30926, Tempo, 1280956
1, 30945, Tempo, 1267427
1, 30945, Tempo, 1323335
1, 30955, Tempo, 1267427
1, 30993, Tempo, 1254181
1, 31031, Tempo, 1241208
1, 31070, Tempo, 1228501
1, 31140, Tempo, 1855288
1, 31200, Tempo, 1376462
1, 31600, Tempo, 1651073
1, 31670, Tempo, 1433007
1, 31680, Tempo, 1487357
1, 31760, Tempo, 1384402
1, 31785, Tempo, 1417100
1, 31890, Tempo, 1400560
1, 31980, Tempo, 1384402
1, 32070, Tempo, 1368613
1, 32160, Tempo, 1353180
1, 32400, Tempo, 1353180
1, 32560, Tempo, 1506024
1, 32640, Tempo, 1417100
1, 32880, Tempo, 1564945
1, 33040, Tempo, 2465078
1, 33120, Tempo, 1773050
1, 34560, Tempo, 1613337
1, 34560, Marker_t, "Teil 1 Wiederholung"
1, 34920, Tempo, 860462
1, 35040, Tempo, 1613337
1, 36000, Tempo, 1633097
1, 36360, Tempo, 849497
1, 36480, Tempo, 1594049
1, 36840, Tempo, 1298701
1, 38880, Tempo, 1538856
1, 39000, Tempo, 1613337
1, 39072, Tempo, 1674107
1, 39091, Tempo, 1613337
1, 39111, Tempo, 1556824
1, 39130, Tempo, 1504136
1, 39149, Tempo, 1286174
1, 39168, Tempo, 1238135
1, 39187, Tempo, 1193792
1, 39207, Tempo, 1142639
1, 39226, Tempo, 1104769
1, 39245, Tempo, 1069138
1, 39264, Tempo, 1027925
1, 39300, Tempo, 1613337
1, 39360, Tempo, 1113999
1, 40320, Tempo, 1937359
1, 40560, Tempo, 823271
1, 40800, Tempo, 1613337
1, 41280, Tempo, 1467351
1, 41357, Tempo, 1435750
1, 41395, Tempo, 1420455
1, 41415, Tempo, 1405481
1, 41434, Tempo, 1390821
1, 41453, Tempo, 1376462
1, 41472, Tempo, 1362398
1, 41478, Tempo, 1333630
1, 41508, Tempo, 1318971
1, 41538, Tempo, 1304631
1, 41568, Tempo, 1290600
1, 41598, Tempo, 1276867
1, 41628, Tempo, 1263424
1, 41658, Tempo, 1250260
1, 41673, Tempo, 1237369
1, 41680, Tempo, 1856436
1, 41760, Tempo, 1995344
1, 42000, Tempo, 833565
1, 42240, Tempo, 1321877
1, 42720, Tempo, 1140684
1, 42780, Tempo, 1590246
1, 42800, Tempo, 1271456
1, 43200, Tempo, 1140684
1, 43260, Tempo, 1571503
1, 43280, Tempo, 1348618
1, 44560, Tempo, 1669914
1, 44640, Tempo, 1500750
1, 46080, Tempo, 1739635
1, 46160, Tempo, 1335113
1, 46440, Tempo, 1348618
1, 46560, Tempo, 1318971
1, 47087, Tempo, 1335113
1, 47177, Tempo, 1348618
1, 47267, Tempo, 1362398
1, 47357, Tempo, 1376462
1, 47432, Tempo, 1390821
1, 47440, Tempo, 1757984
1, 47520, Tempo, 1321877
1, 48360, Tempo, 1224490
1, 48480, Tempo, 1308901
1, 48600, Tempo, 1435750
1, 48960, Tempo, 1712818
1, 49040, Tempo, 1335113
1, 49967, Tempo, 1335113
1, 50057, Tempo, 1348618
1, 50147, Tempo, 1362398
1, 50237, Tempo, 1376462
1, 50312, Tempo, 1390821
1, 50320, Tempo, 1757984
1, 50400, Tempo, 1321877
1, 51240, Tempo, 1224490
1, 51360, Tempo, 1308901
1, 51480, Tempo, 1435750
1, 51840, Tempo, 1308901
1, 52000, Tempo, 1383445
1, 52240, Tempo, 1605566
1, 52320, Tempo, 1433007
1, 52800, Tempo, 1467351
1, 52877, Tempo, 1435750
1, 52915, Tempo, 1420455
1, 52935, Tempo, 1405481
1, 52954, Tempo, 1390821
1, 52973, Tempo, 1376462
1, 52992, Tempo, 1362398
1, 53002, Tempo, 1333630
1, 53047, Tempo, 1318971
1, 53077, Tempo, 1304631
1, 53107, Tempo, 1290600
1, 53137, Tempo, 1276867
1, 53145, Tempo, 1308901
1, 53175, Tempo, 1296176
1, 53200, Tempo, 1856436
1, 53280, Tempo, 1390821
1, 53660, Tempo, 1352265
1, 53810, Tempo, 1337196
1, 53960, Tempo, 1322460
1, 54110, Tempo, 1308044
1, 54120, Tempo, 1283697
1, 54240, Tempo, 1376462
1, 54720, Tempo, 1390821
1, 54770, Tempo, 1383445
1, 54875, Tempo, 1367677
1, 54980, Tempo, 1352265
1, 55085, Tempo, 1337196
1, 55175, Tempo, 1293940
1, 55250, Tempo, 1308044
1, 55325, Tempo, 1322460
1, 55400, Tempo, 1337196
1, 55475, Tempo, 1352265
1, 55535, Tempo, 1367677
1, 55560, Tempo, 1283697
1, 55680, Tempo, 1376462
1, 56080, Tempo, 1720677
1, 56160, Tempo, 1544799
1, 56280, Tempo, 1384402
1, 56675, Tempo, 1337196
1, 56735, Tempo, 1352265
1, 56780, Tempo, 1367677
1, 56840, Tempo, 1383445
1, 56885, Tempo, 1399580
1, 56945, Tempo, 1416096
1, 56990, Tempo, 1433007
1, 57000, Tempo, 1283697
1, 57120, Tempo, 1376462
1, 57590, Tempo, 1433007
1, 57607, Tempo, 1579363
1, 57622, Tempo, 1538856
1, 57637, Tempo, 1500375
1, 57652, Tempo, 1446132
1, 57667, Tempo, 1412097
1, 57682, Tempo, 1379628
1, 57697, Tempo, 1333630
1, 57710, Tempo, 1352265
1, 57725, Tempo, 1337196
1, 57755, Tempo, 1322460
1, 57770, Tempo, 1308044
1, 57815, Tempo, 1322460
1, 57845, Tempo, 1337196
1, 57890, Tempo, 1352265
1, 57920, Tempo, 1367677
1, 57965, Tempo, 1383445
1, 57995, Tempo, 1399580
1, 58000, Tempo, 1629107
1, 58080, Tempo, 1376462
1, 58480, Tempo, 1362398
1, 58560, Tempo, 1376462
1, 58800, Tempo, 1451379
1, 59040, Tempo, 1487357
1, 59107, Tempo, 1451379
1, 59120, Tempo, 1384402
1, 59160, Tempo, 1368613
1, 59280, Tempo, 1417100
1, 59360, Tempo, 1384402
1, 59400, Tempo, 1338091
1, 59440, Tempo, 1384402
1, 59520, Tempo, 1400560
1, 59600, Tempo, 1400560
1, 59640, Tempo, 1338091
1, 59760, Tempo, 1451379
1, 59840, Tempo, 1384402
1, 59880, Tempo, 1353180
1, 60000, Tempo, 1308901
1, 60223, Tempo, 1294778
1, 60281, Tempo, 1308901
1, 60319, Tempo, 1323335
1, 60358, Tempo, 1338091
1, 60396, Tempo, 1353180
1, 60435, Tempo, 1368613
1, 60480, Tempo, 1390821
1, 60995, Tempo, 1337196
1, 61055, Tempo, 1352265
1, 61100, Tempo, 1367677
1, 61160, Tempo, 1383445
1, 61205, Tempo, 1399580
1, 61265, Tempo, 1416096
1, 61310, Tempo, 1433007
1, 61320, Tempo, 1283697
1, 61440, Tempo, 1376462
1, 61910, Tempo, 1433007
1, 61940, Tempo, 1416096
1, 61955, Tempo, 1399580
1, 61985, Tempo, 1383445
1, 62000, Tempo, 1367677
1, 62030, Tempo, 1352265
1, 62045, Tempo, 1337196
1, 62075, Tempo, 1322460
1, 62090, Tempo, 1308044
1, 62135, Tempo, 1322460
1, 62165, Tempo, 1337196
1, 62210, Tempo, 1352265
1, 62240, Tempo, 1367677
1, 62285, Tempo, 1383445
1, 62315, Tempo, 1399580
1, 62320, Tempo, 1629107
1, 62400, Tempo, 1376462
1, 62800, Tempo, 1362398
1, 62880, Tempo, 1376462
1, 63120, Tempo, 1451379
1, 63360, Tempo, 1487357
1, 63427, Tempo, 1451379
1, 63440, Tempo, 1384402
1, 63480, Tempo, 1368613
1, 63600, Tempo, 1417100
1, 63680, Tempo, 1384402
1, 63720, Tempo, 1338091
1, 63760, Tempo, 1384402
1, 63840, Tempo, 1400560
1, 63920, Tempo, 1400560
1, 63960, Tempo, 1338091
1, 64080, Tempo, 1451379
1, 64160, Tempo, 1384402
1, 64200, Tempo, 1353180
1, 64320, Tempo, 1308901
1, 64543, Tempo, 1294778
1, 64601, Tempo, 1308901
1, 64639, Tempo, 1323335
1, 64678, Tempo, 1338091
1, 64716, Tempo, 1353180
1, 64755, Tempo, 1368613
1, 64800, Tempo, 1390821
1, 65280, Tempo, 1400560
1, 65294, Tempo, 1434034
1, 65313, Tempo, 1417100
1, 65332, Tempo, 1400560
1, 65351, Tempo, 1384402
1, 65371, Tempo, 1368613
1, 65390, Tempo, 1353180
1, 65409, Tempo, 1338091
1, 65428, Tempo, 1323335
1, 65447, Tempo, 1308901
1, 65467, Tempo, 1294778
1, 65486, Tempo, 1280956
1, 65505, Tempo, 1267427
1, 65505, Tempo, 1323335
1, 65515, Tempo, 1267427
1, 65553, Tempo, 1254181
1, 65591, Tempo, 1241208
1, 65630, Tempo, 1228501
1, 65700, Tempo, 1855288
1, 65760, Tempo, 1376462
1, 66160, Tempo, 1651073
1, 66230, Tempo, 1433007
1, 66240, Tempo, 1487357
1, 66320, Tempo, 1384402
1, 66345, Tempo, 1417100
1, 66450, Tempo, 1400560
1, 66540, Tempo, 1384402
1, 66630, Tempo, 1368613
1, 66720, Tempo, 1353180
1, 66960, Tempo, 1353180
1, 67120, Tempo, 1506024
1, 67200, Tempo, 1417100
1, 67440, Tempo, 1564945
1, 67600, Tempo, 2465078
1, 67680, Tempo, 1773050
1, 69120, Tempo, 1613337
1, 69120, Marker_t, "Teil 2"
1, 69480, Tempo, 860462
1, 69600, Tempo, 1613337
1, 70080, Tempo, 1467351
1, 70085, Tempo, 1579363
1, 70100, Tempo, 1558846
1, 70115, Tempo, 1538856
1, 70130, Tempo, 1519372
1, 70145, Tempo, 1481847
1, 70160, Tempo, 1463772
1, 70175, Tempo, 1446132
1, 70190, Tempo, 1412097
1, 70195, Tempo, 1420455
1, 70215, Tempo, 1405481
1, 70234, Tempo, 1390821
1, 70253, Tempo, 1376462
1, 70272, Tempo, 1362398
1, 70291, Tempo, 1348618
1, 70305, Tempo, 1362398
1, 70325, Tempo, 1333630
1, 70355, Tempo, 1318971
1, 70370, Tempo, 1304631
1, 70385, Tempo, 1290600
1, 70400, Tempo, 1276867
1, 70415, Tempo, 1263424
1, 70430, Tempo, 1250260
1, 70455, Tempo, 1296176
1, 70480, Tempo, 1856436
1, 70560, Tempo, 1995344
1, 70800, Tempo, 833565
1, 71040, Tempo, 1321877
1, 72480, Tempo, 1368613
1, 72560, Tempo, 1294778
1, 72880, Tempo, 1368613
1, 72960, Tempo, 1294778
1, 73360, Tempo, 1506024
1, 73440, Tempo, 1338091
1, 73820, Tempo, 1352265
1, 73970, Tempo, 1337196
1, 74120, Tempo, 1322460
1, 74270, Tempo, 1308044
1, 74280, Tempo, 1283697
1, 74400, Tempo, 1376462
1, 74880, Tempo, 1321877
1, 75360, Tempo, 1368613
1, 75440, Tempo, 1294778
1, 75760, Tempo, 1368613
1, 75840, Tempo, 1294778
1, 76240, Tempo, 1506024
1, 76307, Tempo, 1353180
1, 76397, Tempo, 1338091
1, 76472, Tempo, 1323335
1, 76562, Tempo, 1308901
1, 76637, Tempo, 1294778
1, 76720, Tempo, 1525165
1, 76850, Tempo, 1337196
1, 77000, Tempo, 1322460
1, 77150, Tempo, 1308044
1, 77160, Tempo, 1283697
1, 77280, Tempo, 1323335
1, 77680, Tempo, 1544799
1, 77760, Tempo, 1353180
1, 77837, Tempo, 1338091
1, 77912, Tempo, 1323335
1, 78002, Tempo, 1308901
1, 78077, Tempo, 1294778
1, 78160, Tempo, 1400560
1, 78290, Tempo, 1337196
1, 78317, Tempo, 1308901
1, 78467, Tempo, 1294778
1, 78617, Tempo, 1280956
1, 78640, Tempo, 1451379
1, 78720, Tempo, 1323335
1, 79120, Tempo, 1544799
1, 79200, Tempo, 1338091
1, 79217, Tempo, 1368613
1, 79277, Tempo, 1353180
1, 79322, Tempo, 1338091
1, 79367, Tempo, 1323335
1, 79412, Tempo, 1308901
1, 79442, Tempo, 1323335
1, 79457, Tempo, 1338091
1, 79487, Tempo, 1353180
1, 79502, Tempo, 1368613
1, 79517, Tempo, 1368613
1, 79577, Tempo, 1384402
1, 79622, Tempo, 1400560
1, 79667, Tempo, 1417100
1, 80160, Tempo, 1368613
1, 80807, Tempo, 1338091
1, 80852, Tempo, 1353180
1, 80882, Tempo, 1368613
1, 80912, Tempo, 1384402
1, 80942, Tempo, 1400560
1, 80972, Tempo, 1417100
1, 81002, Tempo, 1434034
1, 81032, Tempo, 1451379
1, 81062, Tempo, 1469148
1, 81092, Tempo, 1487357
1, 81120, Tempo, 1368613
1, 82080, Tempo, 1368613
1, 82247, Tempo, 1338091
1, 82560, Tempo, 1368613
1, 82727, Tempo, 1338091
1, 82772, Tempo, 1353180
1, 82802, Tempo, 1368613
1, 82832, Tempo, 1384402
1, 82862, Tempo, 1400560
1, 82892, Tempo, 1417100
1, 82922, Tempo, 1434034
1, 82952, Tempo, 1451379
1, 82982, Tempo, 1469148
1, 83012, Tempo, 1487357
1, 83400, Tempo, 1298701
1, 84960, Tempo, 1538856
1, 85080, Tempo, 1613337
1, 85152, Tempo, 1674107
1, 85171, Tempo, 1613337
1, 85191, Tempo, 1556824
1, 85210, Tempo, 1504136
1, 85229, Tempo, 1286174
1, 85248, Tempo, 1238135
1, 85267, Tempo, 1193792
1, 85287, Tempo, 1142639
1, 85306, Tempo, 1104769
1, 85325, Tempo, 1069138
1, 85344, Tempo, 1027925
1, 85380, Tempo, 1613337
1, 85440, Tempo, 1113999
1, 86400, Tempo, 1487357
1, 86467, Tempo, 1451379
1, 86480, Tempo, 1384402
1, 86520, Tempo, 1368613
1, 86640, Tempo, 1417100
1, 86720, Tempo, 1384402
1, 86760, Tempo, 1338091
1, 86800, Tempo, 1384402
1, 86880, Tempo, 1400560
1, 86960, Tempo, 1400560
1, 87000, Tempo, 1338091
1, 87120, Tempo, 1451379
1, 87200, Tempo, 1384402
1, 87240, Tempo, 1353180
1, 87360, Tempo, 1308901
1, 87583, Tempo, 1294778
1, 87641, Tempo, 1308901
1, 87679, Tempo, 1323335
1, 87718, Tempo, 1338091
1, 87756, Tempo, 1353180
1, 87795, Tempo, 1368613
1, 87840, Tempo, 1487357
1, 87907, Tempo, 1451379
1, 87920, Tempo, 1384402
1, 87960, Tempo, 1368613
1, 88080, Tempo, 1417100
1, 88160, Tempo, 1384402
1, 88200, Tempo, 1338091
1, 88240, Tempo, 1384402
1, 88320, Tempo, 1400560
1, 88400, Tempo, 1400560
1, 88440, Tempo, 1338091
1, 88560, Tempo, 1451379
1, 88640, Tempo, 1384402
1, 88680, Tempo, 1353180
1, 88800, Tempo, 1308901
1, 88847, Tempo, 1308901
1, 88907, Tempo, 1323335
1, 88967, Tempo, 1338091
1, 89027, Tempo, 1353180
1, 89087, Tempo, 1368613
1, 89147, Tempo, 1384402
1, 89207, Tempo, 1400560
1, 89267, Tempo, 1417100
1, 89280, Tempo, 1390821
1, 89330, Tempo, 1383445
1, 89435, Tempo, 1367677
1, 89540, Tempo, 1352265
1, 89645, Tempo, 1337196
1, 89735, Tempo, 1293940
1, 89760, Tempo, 1308901
1, 89762, Tempo, 1338091
1, 89867, Tempo, 1323335
1, 89972, Tempo, 1308901
1, 90077, Tempo, 1294778
1, 90167, Tempo, 1280956
1, 90227, Tempo, 1294778
1, 90302, Tempo, 1308901
1, 90362, Tempo, 1323335
1, 90422, Tempo, 1338091
1, 90640, Tempo, 1368613
1, 90720, Tempo, 1390821
1, 90737, Tempo, 1323335
1, 90887, Tempo, 1308901
1, 91037, Tempo, 1294778
1, 91172, Tempo, 1280956
1, 91322, Tempo, 1280956
1, 91502, Tempo, 1267427
1, 91562, Tempo, 1280956
1, 91607, Tempo, 1294778
1, 91652, Tempo, 1280956
1, 91757, Tempo, 1294778
1, 91847, Tempo, 1308901
1, 91952, Tempo, 1323335
1, 92042, Tempo, 1338091
1, 92080, Tempo, 1720677
1, 92160, Tempo, 1433007
1, 92180, Tempo, 1416096
1, 92195, Tempo, 1399580
1, 92225, Tempo, 1383445
1, 92240, Tempo, 1367677
1, 92270, Tempo, 1352265
1, 92285, Tempo, 1337196
1, 92315, Tempo, 1322460
1, 92330, Tempo, 1308044
1, 92375, Tempo, 1322460
1, 92405, Tempo, 1337196
1, 92450, Tempo, 1352265
1, 92480, Tempo, 1367677
1, 92525, Tempo, 1383445
1, 92555, Tempo, 1399580
1, 92560, Tempo, 1629107
1, 92640, Tempo, 1376462
1, 93040, Tempo, 1362398
1, 93120, Tempo, 1376462
1, 93360, Tempo, 1451379
1, 93520, Tempo, 1827040
1, 93600, Tempo, 1390821
1, 93650, Tempo, 1383445
1, 93755, Tempo, 1367677
1, 93860, Tempo, 1352265
1, 93965, Tempo, 1337196
1, 94055, Tempo, 1293940
1, 94080, Tempo, 1308901
1, 94082, Tempo, 1338091
1, 94187, Tempo, 1323335
1, 94292, Tempo, 1308901
1, 94397, Tempo, 1294778
1, 94487, Tempo, 1280956
1, 94547, Tempo, 1294778
1, 94622, Tempo, 1308901
1, 94682, Tempo, 1323335
1, 94742, Tempo, 1338091
1, 94960, Tempo, 1368613
1, 95040, Tempo, 1390821
1, 95090, Tempo, 1383445
1, 95195, Tempo, 1367677
1, 95300, Tempo, 1352265
1, 95405, Tempo, 1337196
1, 95495, Tempo, 1293940
1, 95520, Tempo, 1308901
1, 95522, Tempo, 1338091
1, 95627, Tempo, 1323335
1, 95732, Tempo, 1308901
1, 95837, Tempo, 1294778
1, 95927, Tempo, 1280956
1, 95987, Tempo, 1294778
1, 96062, Tempo, 1308901
1, 96122, Tempo, 1323335
1, 96182, Tempo, 1338091
1, 96400, Tempo, 1368613
1, 96480, Tempo, 1390821
1, 96530, Tempo, 1383445
1, 96635, Tempo, 1367677
1, 96740, Tempo, 1352265
1, 96845, Tempo, 1337196
1, 96935, Tempo, 1293940
1, 96960, Tempo, 1308901
1, 96962, Tempo, 1338091
1, 97067, Tempo, 1323335
1, 97172, Tempo, 1308901
1, 97277, Tempo, 1294778
1, 97367, Tempo, 1280956
1, 97427, Tempo, 1294778
1, 97502, Tempo, 1308901
1, 97562, Tempo, 1323335
1, 97622, Tempo, 1338091
1, 97840, Tempo, 1368613
1, 97920, Tempo, 1469148
1, 98000, Tempo, 1294778
1, 98080, Tempo, 1308901
1, 98320, Tempo, 1400560
1, 98400, Tempo, 1323335
1, 98480, Tempo, 1280956
1, 98800, Tempo, 1308901
1, 98880, Tempo, 1400560
1, 98960, Tempo, 1280956
1, 99120, Tempo, 1338091
1, 99280, Tempo, 1434034
1, 99360, Tempo, 1544799
1, 99600, Tempo, 1280956
1, 99840, Tempo, 1267427
1, 100240, Tempo, 1323335
1, 100320, Tempo, 1267427
1, 100352, Tempo, 1308901
1, 100382, Tempo, 1323335
1, 100412, Tempo, 1338091
1, 100442, Tempo, 1353180
1, 100472, Tempo, 1368613
1, 100502, Tempo, 1384402
1, 100532, Tempo, 1400560
1, 100562, Tempo, 1417100
1, 100592, Tempo, 1434034
1, 100800, Tempo, 1433007
1, 100820, Tempo, 1416096
1, 100835, Tempo, 1399580
1, 100865, Tempo, 1383445
1, 100880, Tempo, 1367677
1, 100910, Tempo, 1352265
1, 100925, Tempo, 1337196
1, 100955, Tempo, 1322460
1, 100970, Tempo, 1308044
1, 101015, Tempo, 1322460
1, 101045, Tempo, 1337196
1, 101090, Tempo, 1352265
1, 101120, Tempo, 1367677
1, 101165, Tempo, 1383445
1, 101195, Tempo, 1399580
1, 101200, Tempo, 1629107
1, 101280, Tempo, 1376462
1, 101680, Tempo, 1362398
1, 101760, Tempo, 1376462
1, 102000, Tempo, 1451379
1, 102160, Tempo, 1827040
1, 102240, Tempo, 1585624
1, 102320, Tempo, 1353180
1, 102400, Tempo, 1308901
1, 102640, Tempo, 1651073
1, 102720, Tempo, 1353180
1, 103440, Tempo, 1428912
1, 103680, Tempo, 1585624
1, 103760, Tempo, 1353180
1, 103840, Tempo, 1308901
1, 104080, Tempo, 1651073
1, 104160, Tempo, 1353180
1, 104880, Tempo, 1428912
1, 105120, Tempo, 1585624
1, 105200, Tempo, 1353180
1, 105280, Tempo, 1308901
1, 105520, Tempo, 1651073
1, 105600, Tempo, 1353180
1, 105840, Tempo, 1417100
1, 106400, Tempo, 1628664
1, 106560, Tempo, 1417100
1, 106800, Tempo, 1368613
1, 107040, Tempo, 1323335
1, 107507, Tempo, 1417100
1, 107537, Tempo, 1434034
1, 107552, Tempo, 1451379
1, 107567, Tempo, 1469148
1, 107582, Tempo, 1487357
1, 107612, Tempo, 1506024
1, 107627, Tempo, 1525165
1, 107642, Tempo, 1544799
1, 107657, Tempo, 1564945
1, 107687, Tempo, 1585624
1, 107702, Tempo, 1606856
1, 107717, Tempo, 1628664
1, 107747, Tempo, 1651073
1, 107762, Tempo, 1674107
1, 107777, Tempo, 1697793
1, 107792, Tempo, 1722158
1, 107807, Tempo, 1747234
1, 107837, Tempo, 1773050
1, 107852, Tempo, 1799640
1, 107867, Tempo, 1827040
1, 107882, Tempo, 1855288
1, 107897, Tempo, 1884422
1, 107912, Tempo, 2277904
1, 107927, Tempo, 2367798
1, 107942, Tempo, 2415459
1, 107957, Tempo, 2516779
1, 107972, Tempo, 2626970
1, 107987, Tempo, 2747253
1, 107987, End_track
2, 0, Start_track
2, 0, Title_t, "Piano right"
2, 0, Program_c, 0, 0
2, 0, Note_on_c, 0, 81, 50
2, 360, Note_on_c, 0, 81, 0
2, 360, Note_on_c, 0, 77, 46
2, 420, Note_on_c, 0, 77, 0
2, 420, Note_on_c, 0, 74, 41
2, 480, Note_on_c, 0, 74, 0
2, 480, Note_on_c, 0, 73, 50
2, 720, Note_on_c, 0, 73, 0
2, 1440, Note_on_c, 0, 82, 50
2, 1800, Note_on_c, 0, 82, 0
2, 1800, Note_on_c, 0, 79, 46
2, 1860, Note_on_c, 0, 79, 0
2, 1860, Note_on_c, 0, 76, 41
2, 1920, Note_on_c, 0, 76, 0
2, 1920, Note_on_c, 0, 74, 50
2, 2160, Note_on_c, 0, 74, 0
2, 2280, Note_on_c, 0, 85, 47
2, 2400, Note_on_c, 0, 85, 0
2, 2400, Note_on_c, 0, 86, 55
2, 2640, Note_on_c, 0, 86, 0
2, 2760, Note_on_c, 0, 81, 43
2, 2880, Note_on_c, 0, 81, 0
2, 2880, Note_on_c, 0, 82, 53
2, 3120, Note_on_c, 0, 82, 0
2, 3240, Note_on_c, 0, 74, 41
2, 3360, Note_on_c, 0, 74, 0
2, 3360, Note_on_c, 0, 73, 50
2, 3600, Note_on_c, 0, 73, 0
2, 3720, Note_on_c, 0, 76, 41
2, 3840, Note_on_c, 0, 76, 0
2, 3840, Note_on_c, 0, 81, 50
2, 4080, Note_on_c, 0, 81, 0
2, 4200, Note_on_c, 0, 79, 41
2, 4320, Note_on_c, 0, 79, 0
2, 4320, Note_on_c, 0, 79, 35
2, 4440, Note_on_c, 0, 79, 0
2, 4440, Note_on_c, 0, 77, 32
2, 4560, Note_on_c, 0, 77, 0
2, 4560, Note_on_c, 0, 79, 38
2, 4590, Note_on_c, 0, 79, 0
2, 4590, Note_on_c, 0, 77, 32
2, 4620, Note_on_c, 0, 77, 0
2, 4620, Note_on_c, 0, 79, 30
2, 4650, Note_on_c, 0, 79, 0
2, 4650, Note_on_c, 0, 77, 31
2, 4680, Note_on_c, 0, 77, 0
2, 4680, Note_on_c, 0, 79, 33
2, 4710, Note_on_c, 0, 79, 0
2, 4710, Note_on_c, 0, 77, 36
2, 4740, Note_on_c, 0, 77, 0
2, 4740, Note_on_c, 0, 76, 37
2, 4770, Note_on_c, 0, 76, 0
2, 4770, Note_on_c, 0, 77, 38
2, 4800, Note_on_c, 0, 77, 0
2, 4800, Note_on_c, 0, 76, 40
2, 5040, Note_on_c, 0, 76, 0
2, 5760, Note_on_c, 0, 69, 45
2, 6000, Note_on_c, 0, 69, 0
2, 6000, Note_on_c, 0, 67, 42
2, 6060, Note_on_c, 0, 67, 0
2, 6060, Note_on_c, 0, 65, 36
2, 6120, Note_on_c, 0, 65, 0
2, 6120, Note_on_c, 0, 64, 41
2, 6180, Note_on_c, 0, 64, 0
2, 6180, Note_on_c, 0, 62, 36
2, 6240, Note_on_c, 0, 62, 0
2, 6240, Note_on_c, 0, 61, 45
2, 6480, Note_on_c, 0, 61, 0
2, 6720, Note_on_c, 0, 55, 45
2, 6800, Note_on_c, 0, 55, 0
2, 6800, Note_on_c, 0, 58, 41
2, 6880, Note_on_c, 0, 58, 0
2, 6880, Note_on_c, 0, 61, 41
2, 6960, Note_on_c, 0, 61, 0
2, 6960, Note_on_c, 0, 64, 45
2, 7040, Note_on_c, 0, 64, 0
2, 7040, Note_on_c, 0, 67, 41
2, 7120, Note_on_c, 0, 67, 0
2, 7120, Note_on_c, 0, 69, 41
2, 7200, Note_on_c, 0, 69, 0
2, 7200, Note_on_c, 0, 70, 57
2, 7440, Note_on_c, 0, 70, 0
2, 7440, Note_on_c, 0, 69, 42
2, 7500, Note_on_c, 0, 69, 0
2, 7500, Note_on_c, 0, 67, 36
2, 7560, Note_on_c, 0, 67, 0
2, 7560, Note_on_c, 0, 65, 41
2, 7620, Note_on_c, 0, 65, 0
2, 7620, Note_on_c, 0, 64, 36
2, 7680, Note_on_c, 0, 64, 0
2, 7680, Note_on_c, 0, 62, 45
2, 7920, Note_on_c, 0, 62, 0
2, 8040, Note_on_c, 0, 73, 43
2, 8160, Note_on_c, 0, 73, 0
2, 8160, Note_on_c, 0, 74, 45
2, 8190, Note_on_c, 0, 74, 0
2, 8190, Note_on_c, 0, 73, 42
2, 8220, Note_on_c, 0, 73, 0
2, 8220, Note_on_c, 0, 74, 53
2, 8400, Note_on_c, 0, 74, 0
2, 8520, Note_on_c, 0, 76, 41
2, 8640, Note_on_c, 0, 76, 0
2, 8640, Note_on_c, 0, 77, 45
2, 8670, Note_on_c, 0, 77, 0
2, 8670, Note_on_c, 0, 76, 42
2, 8700, Note_on_c, 0, 76, 0
2, 8700, Note_on_c, 0, 77, 53
2, 8880, Note_on_c, 0, 77, 0
2, 9000, Note_on_c, 0, 85, 55
2, 9120, Note_on_c, 0, 85, 0
2, 9120, Note_on_c, 0, 86, 64
2, 9360, Note_on_c, 0, 86, 0
2, 9480, Note_on_c, 0, 88, 65
2, 9600, Note_on_c, 0, 88, 0
2, 9600, Note_on_c, 0, 89, 69
2, 9840, Note_on_c, 0, 89, 0
2, 9960, Note_on_c, 0, 56, 34
2, 10070, Note_on_c, 0, 56, 0
2, 10080, Note_on_c, 0, 56, 40
2, 10560, Note_on_c, 0, 56, 0
2, 10560, Note_on_c, 0, 57, 35
2, 10590, Note_on_c, 0, 57, 0
2, 10590, Note_on_c, 0, 56, 32
2, 10620, Note_on_c, 0, 56, 0
2, 10620, Note_on_c, 0, 57, 40
2, 11040, Note_on_c, 0, 57, 0
2, 11600, Note_on_c, 0, 84, 40
2, 11680, Note_on_c, 0, 84, 0
2, 11680, Note_on_c, 0, 79, 40
2, 11760, Note_on_c, 0, 79, 0
2, 11760, Note_on_c, 0, 81, 45
2, 11840, Note_on_c, 0, 81, 0
2, 11840, Note_on_c, 0, 84, 40
2, 11920, Note_on_c, 0, 84, 0
2, 11920, Note_on_c, 0, 76, 40
2, 12000, Note_on_c, 0, 76, 0
2, 12000, Note_on_c, 0, 77, 42
2, 12080, Note_on_c, 0, 77, 0
2, 12080, Note_on_c, 0, 81, 40
2, 12160, Note_on_c, 0, 81, 0
2, 12160, Note_on_c, 0, 77, 35
2, 12240, Note_on_c, 0, 77, 0
2, 12240, Note_on_c, 0, 76, 40
2, 12320, Note_on_c, 0, 76, 0
2, 12320, Note_on_c, 0, 74, 37
2, 12400, Note_on_c, 0, 74, 0
2, 12400, Note_on_c, 0, 72, 37
2, 12480, Note_on_c, 0, 72, 0
2, 12480, Note_on_c, 0, 70, 40
2, 12560, Note_on_c, 0, 70, 0
2, 12560, Note_on_c, 0, 69, 38
2, 12640, Note_on_c, 0, 69, 0
2, 12640, Note_on_c, 0, 67, 38
2, 12720, Note_on_c, 0, 67, 0
2, 12720, Note_on_c, 0, 65, 40
2, 12800, Note_on_c, 0, 65, 0
2, 12800, Note_on_c, 0, 64, 35
2, 12880, Note_on_c, 0, 64, 0
2, 12880, Note_on_c, 0, 62, 33
2, 12960, Note_on_c, 0, 62, 0
2, 12960, Note_on_c, 0, 60, 40
2, 13860, Note_on_c, 0, 60, 0
2, 13860, Note_on_c, 0, 64, 40
2, 13920, Note_on_c, 0, 64, 0
2, 13920, Note_on_c, 0, 62, 40
2, 14280, Note_on_c, 0, 62, 0
2, 14280, Note_on_c, 0, 60, 40
2, 14390, Note_on_c, 0, 60, 0
2, 14400, Note_on_c, 0, 60, 45
2, 14480, Note_on_c, 0, 60, 0
2, 14480, Note_on_c, 0, 84, 40
2, 14560, Note_on_c, 0, 84, 0
2, 14560, Note_on_c, 0, 79, 40
2, 14640, Note_on_c, 0, 79, 0
2, 14640, Note_on_c, 0, 81, 45
2, 14720, Note_on_c, 0, 81, 0
2, 14720, Note_on_c, 0, 84, 40
2, 14800, Note_on_c, 0, 84, 0
2, 14800, Note_on_c, 0, 76, 40
2, 14880, Note_on_c, 0, 76, 0
2, 14880, Note_on_c, 0, 77, 42
2, 14960, Note_on_c, 0, 77, 0
2, 14960, Note_on_c, 0, 81, 40
2, 15040, Note_on_c, 0, 81, 0
2, 15040, Note_on_c, 0, 77, 35
2, 15120, Note_on_c, 0, 77, 0
2, 15120, Note_on_c, 0, 76, 40
2, 15200, Note_on_c, 0, 76, 0
2, 15200, Note_on_c, 0, 74, 37
2, 15280, Note_on_c, 0, 74, 0
2, 15280, Note_on_c, 0, 72, 37
2, 15360, Note_on_c, 0, 72, 0
2, 15360, Note_on_c, 0, 70, 40
2, 15440, Note_on_c, 0, 70, 0
2, 15440, Note_on_c, 0, 69, 38
2, 15520, Note_on_c, 0, 69, 0
2, 15520, Note_on_c, 0, 67, 38
2, 15600, Note_on_c, 0, 67, 0
2, 15600, Note_on_c, 0, 65, 40
2, 15680, Note_on_c, 0, 65, 0
2, 15680, Note_on_c, 0, 64, 35
2, 15760, Note_on_c, 0, 64, 0
2, 15760, Note_on_c, 0, 62, 33
2, 15840, Note_on_c, 0, 62, 0
2, 15840, Note_on_c, 0, 60, 40
2, 16740, Note_on_c, 0, 60, 0
2, 16740, Note_on_c, 0, 63, 40
2, 16800, Note_on_c, 0, 63, 0
2, 16800, Note_on_c, 0, 62, 40
2, 17160, Note_on_c, 0, 62, 0
2, 17160, Note_on_c, 0, 60, 40
2, 17280, Note_on_c, 0, 60, 0
2, 17280, Note_on_c, 0, 65, 40
2, 17640, Note_on_c, 0, 65, 0
2, 17640, Note_on_c, 0, 62, 40
2, 17760, Note_on_c, 0, 62, 0
2, 17760, Note_on_c, 0, 58, 40
2, 18320, Note_on_c, 0, 58, 0
2, 18320, Note_on_c, 0, 62, 41
2, 18360, Note_on_c, 0, 62, 0
2, 18400, Note_on_c, 0, 64, 41
2, 18440, Note_on_c, 0, 64, 0
2, 18480, Note_on_c, 0, 65, 45
2, 18520, Note_on_c, 0, 65, 0
2, 18560, Note_on_c, 0, 67, 41
2, 18600, Note_on_c, 0, 67, 0
2, 18640, Note_on_c, 0, 69, 41
2, 18680, Note_on_c, 0, 69, 0
2, 18720, Note_on_c, 0, 70, 48
2, 19560, Note_on_c, 0, 70, 0
2, 19560, Note_on_c, 0, 72, 46
2, 19620, Note_on_c, 0, 72, 0
2, 19620, Note_on_c, 0, 70, 42
2, 19680, Note_on_c, 0, 70, 0
2, 19680, Note_on_c, 0, 69, 48
2, 20160, Note_on_c, 0, 69, 0
2, 20160, Note_on_c, 0, 74, 50
2, 20640, Note_on_c, 0, 74, 0
2, 20640, Note_on_c, 0, 79, 66
2, 21120, Note_on_c, 0, 79, 0
2, 21120, Note_on_c, 0, 77, 58
2, 21590, Note_on_c, 0, 77, 0
2, 21600, Note_on_c, 0, 77, 50
2, 21720, Note_on_c, 0, 77, 0
2, 21720, Note_on_c, 0, 76, 45
2, 21840, Note_on_c, 0, 76, 0
2, 21840, Note_on_c, 0, 74, 43
2, 21960, Note_on_c, 0, 74, 0
2, 21960, Note_on_c, 0, 72, 43
2, 22080, Note_on_c, 0, 72, 0
2, 22080, Note_on_c, 0, 70, 53
2, 22560, Note_on_c, 0, 70, 0
2, 22560, Note_on_c, 0, 69, 45
2, 23040, Note_on_c, 0, 69, 0
2, 23120, Note_on_c, 0, 67, 40
2, 23200, Note_on_c, 0, 67, 0
2, 23200, Note_on_c, 0, 70, 40
2, 23280, Note_on_c, 0, 70, 0
2, 23280, Note_on_c, 0, 74, 45
2, 23360, Note_on_c, 0, 74, 0
2, 23360, Note_on_c, 0, 70, 35
2, 23440, Note_on_c, 0, 70, 0
2, 23440, Note_on_c, 0, 67, 35
2, 23520, Note_on_c, 0, 67, 0
2, 23520, Note_on_c, 0, 65, 41
2, 24180, Note_on_c, 0, 65, 0
2, 24180, Note_on_c, 0, 69, 35
2, 24240, Note_on_c, 0, 69, 0
2, 24240, Note_on_c, 0, 67, 42
2, 24240, Note_on_c, 0, 64, 36
2, 24480, Note_on_c, 0, 64, 0
2, 24480, Note_on_c, 0, 67, 0
2, 24480, Note_on_c, 0, 69, 50
2, 24560, Note_on_c, 0, 69, 0
2, 24560, Note_on_c, 0, 72, 50
2, 24640, Note_on_c, 0, 72, 0
2, 24640, Note_on_c, 0, 70, 47
2, 24720, Note_on_c, 0, 70, 0
2, 24720, Note_on_c, 0, 69, 50
2, 24800, Note_on_c, 0, 69, 0
2, 24800, Note_on_c, 0, 77, 55
2, 24880, Note_on_c, 0, 77, 0
2, 24880, Note_on_c, 0, 76, 48
2, 24960, Note_on_c, 0, 76, 0
2, 24960, Note_on_c, 0, 74, 50
2, 25040, Note_on_c, 0, 74, 0
2, 25040, Note_on_c, 0, 82, 56
2, 25120, Note_on_c, 0, 82, 0
2, 25120, Note_on_c, 0, 81, 50
2, 25200, Note_on_c, 0, 81, 0
2, 25200, Note_on_c, 0, 79, 58
2, 25280, Note_on_c, 0, 79, 0
2, 25280, Note_on_c, 0, 86, 61
2, 25360, Note_on_c, 0, 86, 0
2, 25360, Note_on_c, 0, 84, 54
2, 25440, Note_on_c, 0, 84, 0
2, 25440, Note_on_c, 0, 82, 55
2, 25520, Note_on_c, 0, 82, 0
2, 25520, Note_on_c, 0, 81, 50
2, 25600, Note_on_c, 0, 81, 0
2, 25600, Note_on_c, 0, 79, 46
2, 25680, Note_on_c, 0, 79, 0
2, 25680, Note_on_c, 0, 77, 54
2, 25760, Note_on_c, 0, 77, 0
2, 25760, Note_on_c, 0, 76, 50
2, 25840, Note_on_c, 0, 76, 0
2, 25840, Note_on_c, 0, 74, 50
2, 25920, Note_on_c, 0, 74, 0
2, 25920, Note_on_c, 0, 72, 50
2, 26400, Note_on_c, 0, 72, 0
2, 26400, Note_on_c, 0, 70, 50
2, 26430, Note_on_c, 0, 70, 0
2, 26430, Note_on_c, 0, 72, 46
2, 26460, Note_on_c, 0, 72, 0
2, 26460, Note_on_c, 0, 70, 53
2, 26880, Note_on_c, 0, 70, 0
2, 26880, Note_on_c, 0, 69, 45
2, 27360, Note_on_c, 0, 69, 0
2, 27440, Note_on_c, 0, 66, 40
2, 27520, Note_on_c, 0, 66, 0
2, 27520, Note_on_c, 0, 67, 40
2, 27600, Note_on_c, 0, 67, 0
2, 27600, Note_on_c, 0, 74, 45
2, 27680, Note_on_c, 0, 74, 0
2, 27680, Note_on_c, 0, 70, 35
2, 27760, Note_on_c, 0, 70, 0
2, 27760, Note_on_c, 0, 67, 35
2, 27840, Note_on_c, 0, 67, 0
2, 27840, Note_on_c, 0, 65, 41
2, 28500, Note_on_c, 0, 65, 0
2, 28500, Note_on_c, 0, 69, 35
2, 28560, Note_on_c, 0, 69, 0
2, 28560, Note_on_c, 0, 67, 42
2, 28560, Note_on_c, 0, 64, 36
2, 28800, Note_on_c, 0, 64, 0
2, 28800, Note_on_c, 0, 67, 0
2, 28800, Note_on_c, 0, 69, 50
2, 28880, Note_on_c, 0, 69, 0
2, 28880, Note_on_c, 0, 72, 50
2, 28960, Note_on_c, 0, 72, 0
2, 28960, Note_on_c, 0, 70, 47
2, 29040, Note_on_c, 0, 70, 0
2, 29040, Note_on_c, 0, 69, 50
2, 29120, Note_on_c, 0, 69, 0
2, 29120, Note_on_c, 0, 77, 55
2, 29200, Note_on_c, 0, 77, 0
2, 29200, Note_on_c, 0, 76, 48
2, 29280, Note_on_c, 0, 76, 0
2, 29280, Note_on_c, 0, 74, 50
2, 29360, Note_on_c, 0, 74, 0
2, 29360, Note_on_c, 0, 82, 56
2, 29440, Note_on_c, 0, 82, 0
2, 29440, Note_on_c, 0, 81, 50
2, 29520, Note_on_c, 0, 81, 0
2, 29520, Note_on_c, 0, 79, 57
2, 29600, Note_on_c, 0, 79, 0
2, 29600, Note_on_c, 0, 86, 62
2, 29680, Note_on_c, 0, 86, 0
2, 29680, Note_on_c, 0, 84, 54
2, 29760, Note_on_c, 0, 84, 0
2, 29760, Note_on_c, 0, 82, 55
2, 29840, Note_on_c, 0, 82, 0
2, 29840, Note_on_c, 0, 81, 50
2, 29920, Note_on_c, 0, 81, 0
2, 29920, Note_on_c, 0, 79, 46
2, 30000, Note_on_c, 0, 79, 0
2, 30000, Note_on_c, 0, 77, 54
2, 30080, Note_on_c, 0, 77, 0
2, 30080, Note_on_c, 0, 76, 50
2, 30160, Note_on_c, 0, 76, 0
2, 30160, Note_on_c, 0, 74, 50
2, 30240, Note_on_c, 0, 74, 0
2, 30240, Note_on_c, 0, 72, 50
2, 30720, Note_on_c, 0, 72, 0
2, 30720, Note_on_c, 0, 70, 42
2, 30750, Note_on_c, 0, 70, 0
2, 30750, Note_on_c, 0, 72, 37
2, 30780, Note_on_c, 0, 72, 0
2, 30780, Note_on_c, 0, 70, 41
2, 30810, Note_on_c, 0, 70, 0
2, 30810, Note_on_c, 0, 72, 38
2, 30840, Note_on_c, 0, 72, 0
2, 30840, Note_on_c, 0, 70, 43
2, 30870, Note_on_c, 0, 70, 0
2, 30870, Note_on_c, 0, 72, 39
2, 30900, Note_on_c, 0, 72, 0
2, 30900, Note_on_c, 0, 70, 43
2, 30930, Note_on_c, 0, 70, 0
2, 30930, Note_on_c, 0, 72, 40
2, 30960, Note_on_c, 0, 72, 0
2, 30960, Note_on_c, 0, 70, 45
2, 30990, Note_on_c, 0, 70, 0
2, 30990, Note_on_c, 0, 72, 42
2, 31020, Note_on_c, 0, 72, 0
2, 31020, Note_on_c, 0, 70, 45
2, 31050, Note_on_c, 0, 70, 0
2, 31050, Note_on_c, 0, 72, 42
2, 31080, Note_on_c, 0, 72, 0
2, 31080, Note_on_c, 0, 70, 45
2, 31110, Note_on_c, 0, 70, 0
2, 31110, Note_on_c, 0, 72, 42
2, 31140, Note_on_c, 0, 72, 0
2, 31140, Note_on_c, 0, 69, 47
2, 31170, Note_on_c, 0, 69, 0
2, 31170, Note_on_c, 0, 70, 42
2, 31200, Note_on_c, 0, 70, 0
2, 31200, Note_on_c, 0, 69, 55
2, 31680, Note_on_c, 0, 69, 0
2, 31680, Note_on_c, 0, 66, 40
2, 31760, Note_on_c, 0, 66, 0
2, 31760, Note_on_c, 0, 67, 35
2, 31840, Note_on_c, 0, 67, 0
2, 31840, Note_on_c, 0, 70, 35
2, 31920, Note_on_c, 0, 70, 0
2, 31920, Note_on_c, 0, 74, 37
2, 32000, Note_on_c, 0, 74, 0
2, 32000, Note_on_c, 0, 79, 40
2, 32080, Note_on_c, 0, 79, 0
2, 32080, Note_on_c, 0, 82, 40
2, 32160, Note_on_c, 0, 82, 0
2, 32160, Note_on_c, 0, 86, 42
2, 32240, Note_on_c, 0, 86, 0
2, 32240, Note_on_c, 0, 84, 38
2, 32320, Note_on_c, 0, 84, 0
2, 32320, Note_on_c, 0, 82, 38
2, 32400, Note_on_c, 0, 82, 0
2, 32400, Note_on_c, 0, 81, 41
2, 32480, Note_on_c, 0, 81, 0
2, 32480, Note_on_c, 0, 79, 35
2, 32560, Note_on_c, 0, 79, 0
2, 32560, Note_on_c, 0, 77, 33
2, 32630, Note_on_c, 0, 77, 0
2, 32640, Note_on_c, 0, 77, 41
2, 32720, Note_on_c, 0, 77, 0
2, 32720, Note_on_c, 0, 76, 35
2, 32800, Note_on_c, 0, 76, 0
2, 32800, Note_on_c, 0, 79, 35
2, 32880, Note_on_c, 0, 79, 0
2, 32880, Note_on_c, 0, 82, 39
2, 32960, Note_on_c, 0, 82, 0
2, 32960, Note_on_c, 0, 79, 35
2, 33040, Note_on_c, 0, 79, 0
2, 33040, Note_on_c, 0, 76, 35
2, 33110, Note_on_c, 0, 76, 0
2, 33120, Note_on_c, 0, 76, 41
2, 33600, Note_on_c, 0, 76, 0
2, 33600, Note_on_c, 0, 77, 41
2, 34080, Note_on_c, 0, 77, 0
2, 34560, Note_on_c, 0, 81, 50
2, 34920, Note_on_c, 0, 81, 0
2, 34920, Note_on_c, 0, 77, 46
2, 34980, Note_on_c, 0, 77, 0
2, 34980, Note_on_c, 0, 74, 41
2, 35040, Note_on_c, 0, 74, 0
2, 35040, Note_on_c, 0, 73, 50
2, 35280, Note_on_c, 0, 73, 0
2, 36000, Note_on_c, 0, 82, 50
2, 36360, Note_on_c, 0, 82, 0
2, 36360, Note_on_c, 0, 79, 46
2, 36420, Note_on_c, 0, 79, 0
2, 36420, Note_on_c, 0, 76, 41
2, 36480, Note_on_c, 0, 76, 0
2, 36480, Note_on_c, 0, 74, 50
2, 36720, Note_on_c, 0, 74, 0
2, 36840, Note_on_c, 0, 85, 47
2, 36960, Note_on_c, 0, 85, 0
2, 36960, Note_on_c, 0, 86, 55
2, 37200, Note_on_c, 0, 86, 0
2, 37320, Note_on_c, 0, 81, 43
2, 37440, Note_on_c, 0, 81, 0
2, 37440, Note_on_c, 0, 82, 53
2, 37680, Note_on_c, 0, 82, 0
2, 37800, Note_on_c, 0, 74, 41
2, 37920, Note_on_c, 0, 74, 0
2, 37920, Note_on_c, 0, 73, 50
2, 38160, Note_on_c, 0, 73, 0
2, 38280, Note_on_c, 0, 76, 41
2, 38400, Note_on_c, 0, 76, 0
2, 38400, Note_on_c, 0, 81, 50
2, 38640, Note_on_c, 0, 81, 0
2, 38760, Note_on_c, 0, 79, 41
2, 38880, Note_on_c, 0, 79, 0
2, 38880, Note_on_c, 0, 79, 35
2, 39000, Note_on_c, 0, 79, 0
2, 39000, Note_on_c, 0, 77, 32
2, 39120, Note_on_c, 0, 77, 0
2, 39120, Note_on_c, 0, 79, 38
2, 39150, Note_on_c, 0, 79, 0
2, 39150, Note_on_c, 0, 77, 32
2, 39180, Note_on_c, 0, 77, 0
2, 39180, Note_on_c, 0, 79, 30
2, 39210, Note_on_c, 0, 79, 0
2, 39210, Note_on_c, 0, 77, 31
2, 39240, Note_on_c, 0, 77, 0
2, 39240, Note_on_c, 0, 79, 33
2, 39270, Note_on_c, 0, 79, 0
2, 39270, Note_on_c, 0, 77, 36
2, 39300, Note_on_c, 0, 77, 0
2, 39300, Note_on_c, 0, 76, 37
2, 39330, Note_on_c, 0, 76, 0
2, 39330, Note_on_c, 0, 77, 38
2, 39360, Note_on_c, 0, 77, 0
2, 39360, Note_on_c, 0, 76, 40
2, 39600, Note_on_c, 0, 76, 0
2, 40320, Note_on_c, 0, 69, 45
2, 40560, Note_on_c, 0, 69, 0
2, 40560, Note_on_c, 0, 67, 42
2, 40620, Note_on_c, 0, 67, 0
2, 40620, Note_on_c, 0, 65, 36
2, 40680, Note_on_c, 0, 65, 0
2, 40680, Note_on_c, 0, 64, 41
2, 40740, Note_on_c, 0, 64, 0
2, 40740, Note_on_c, 0, 62, 36
2, 40800, Note_on_c, 0, 62, 0
2, 40800, Note_on_c, 0, 61, 45
2, 41040, Note_on_c, 0, 61, 0
2, 41280, Note_on_c, 0, 55, 45
2, 41360, Note_on_c, 0, 55, 0
2, 41360, Note_on_c, 0, 58, 41
2, 41440, Note_on_c, 0, 58, 0
2, 41440, Note_on_c, 0, 61, 41
2, 41520, Note_on_c, 0, 61, 0
2, 41520, Note_on_c, 0, 64, 45
2, 41600, Note_on_c, 0, 64, 0
2, 41600, Note_on_c, 0, 67, 41
2, 41680, Note_on_c, 0, 67, 0
2, 41680, Note_on_c, 0, 69, 41
2, 41760, Note_on_c, 0, 69, 0
2, 41760, Note_on_c, 0, 70, 57
2, 42000, Note_on_c, 0, 70, 0
2, 42000, Note_on_c, 0, 69, 42
2, 42060, Note_on_c, 0, 69, 0
2, 42060, Note_on_c, 0, 67, 36
2, 42120, Note_on_c, 0, 67, 0
2, 42120, Note_on_c, 0, 65, 41
2, 42180, Note_on_c, 0, 65, 0
2, 42180, Note_on_c, 0, 64, 36
2, 42240, Note_on_c, 0, 64, 0
2, 42240, Note_on_c, 0, 62, 45
2, 42480, Note_on_c, 0, 62, 0
2, 42600, Note_on_c, 0, 73, 43
2, 42720, Note_on_c, 0, 73, 0
2, 42720, Note_on_c, 0, 74, 45
2, 42750, Note_on_c, 0, 74, 0
2, 42750, Note_on_c, 0, 73, 42
2, 42780, Note_on_c, 0, 73, 0
2, 42780, Note_on_c, 0, 74, 53
2, 42960, Note_on_c, 0, 74, 0
2, 43080, Note_on_c, 0, 76, 41
2, 43200, Note_on_c, 0, 76, 0
2, 43200, Note_on_c, 0, 77, 45
2, 43230, Note_on_c, 0, 77, 0
2, 43230, Note_on_c, 0, 76, 42
2, 43260, Note_on_c, 0, 76, 0
2, 43260, Note_on_c, 0, 77, 53
2, 43440, Note_on_c, 0, 77, 0
2, 43560, Note_on_c, 0, 85, 55
2, 43680, Note_on_c, 0, 85, 0
2, 43680, Note_on_c, 0, 86, 64
2, 43920, Note_on_c, 0, 86, 0
2, 44040, Note_on_c, 0, 88, 65
2, 44160, Note_on_c, 0, 88, 0
2, 44160, Note_on_c, 0, 89, 69
2, 44400, Note_on_c, 0, 89, 0
2, 44520, Note_on_c, 0, 56, 34
2, 44630, Note_on_c, 0, 56, 0
2, 44640, Note_on_c, 0, 56, 40
2, 45120, Note_on_c, 0, 56, 0
2, 45120, Note_on_c, 0, 57, 35
2, 45150, Note_on_c, 0, 57, 0
2, 45150, Note_on_c, 0, 56, 32
2, 45180, Note_on_c, 0, 56, 0
2, 45180, Note_on_c, 0, 57, 40
2, 45600, Note_on_c, 0, 57, 0
2, 46160, Note_on_c, 0, 84, 40
2, 46240, Note_on_c, 0, 84, 0
2, 46240, Note_on_c, 0, 79, 40
2, 46320, Note_on_c, 0, 79, 0
2, 46320, Note_on_c, 0, 81, 45
2, 46400, Note_on_c, 0, 81, 0
2, 46400, Note_on_c, 0, 84, 40
2, 46480, Note_on_c, 0, 84, 0
2, 46480, Note_on_c, 0, 76, 40
2, 46560, Note_on_c, 0, 76, 0
2, 46560, Note_on_c, 0, 77, 42
2, 46640, Note_on_c, 0, 77, 0
2, 46640, Note_on_c, 0, 81, 40
2, 46720, Note_on_c, 0, 81, 0
2, 46720, Note_on_c, 0, 77, 35
2, 46800, Note_on_c, 0, 77, 0
2, 46800, Note_on_c, 0, 76, 40
2, 46880, Note_on_c, 0, 76, 0
2, 46880, Note_on_c, 0, 74, 37
2, 46960, Note_on_c, 0, 74, 0
2, 46960, Note_on_c, 0, 72, 37
2, 47040, Note_on_c, 0, 72, 0
2, 47040, Note_on_c, 0, 70, 40
2, 47120, Note_on_c, 0, 70, 0
2, 47120, Note_on_c, 0, 69, 38
2, 47200, Note_on_c, 0, 69, 0
2, 47200, Note_on_c, 0, 67, 38
2, 47280, Note_on_c, 0, 67, 0
2, 47280, Note_on_c, 0, 65, 40
2, 47360, Note_on_c, 0, 65, 0
2, 47360, Note_on_c, 0, 64, 35
2, 47440, Note_on_c, 0, 64, 0
2, 47440, Note_on_c, 0, 62, 33
2, 47520, Note_on_c, 0, 62, 0
2, 47520, Note_on_c, 0, 60, 40
2, 48420, Note_on_c, 0, 60, 0
2, 48420, Note_on_c, 0, 64, 40
2, 48480, Note_on_c, 0, 64, 0
2, 48480, Note_on_c, 0, 62, 40
2, 48840, Note_on_c, 0, 62, 0
2, 48840, Note_on_c, 0, 60, 40
2, 48950, Note_on_c, 0, 60, 0
2, 48960, Note_on_c, 0, 60, 45
2, 49040, Note_on_c, 0, 60, 0
2, 49040, Note_on_c, 0, 84, 40
2, 49120, Note_on_c, 0, 84, 0
2, 49120, Note_on_c, 0, 79, 40
2, 49200, Note_on_c, 0, 79, 0
2, 49200, Note_on_c, 0, 81, 45
2, 49280, Note_on_c, 0, 81, 0
2, 49280, Note_on_c, 0, 84, 40
2, 49360, Note_on_c, 0, 84, 0
2, 49360, Note_on_c, 0, 76, 40
2, 49440, Note_on_c, 0, 76, 0
2, 49440, Note_on_c, 0, 77, 42
2, 49520, Note_on_c, 0, 77, 0
2, 49520, Note_on_c, 0, 81, 40
2, 49600, Note_on_c, 0, 81, 0
2, 49600, Note_on_c, 0, 77, 35
2, 49680, Note_on_c, 0, 77, 0
2, 49680, Note_on_c, 0, 76, 40
2, 49760, Note_on_c, 0, 76, 0
2, 49760, Note_on_c, 0, 74, 37
2, 49840, Note_on_c, 0, 74, 0
2, 49840, Note_on_c, 0, 72, 37
2, 49920, Note_on_c, 0, 72, 0
2, 49920, Note_on_c, 0, 70, 40
2, 50000, Note_on_c, 0, 70, 0
2, 50000, Note_on_c, 0, 69, 38
2, 50080, Note_on_c, 0, 69, 0
2, 50080, Note_on_c, 0, 67, 38
2, 50160, Note_on_c, 0, 67, 0
2, 50160, Note_on_c, 0, 65, 40
2, 50240, Note_on_c, 0, 65, 0
2, 50240, Note_on_c, 0, 64, 35
2, 50320, Note_on_c, 0, 64, 0
2, 50320, Note_on_c, 0, 62, 33
2, 50400, Note_on_c, 0, 62, 0
2, 50400, Note_on_c, 0, 60, 40
2, 51300, Note_on_c, 0, 60, 0
2, 51300, Note_on_c, 0, 63, 40
2, 51360, Note_on_c, 0, 63, 0
2, 51360, Note_on_c, 0, 62, 40
2, 51720, Note_on_c, 0, 62, 0
2, 51720, Note_on_c, 0, 60, 40
2, 51840, Note_on_c, 0, 60, 0
2, 51840, Note_on_c, 0, 65, 40
2, 52200, Note_on_c, 0, 65, 0
2, 52200, Note_on_c, 0, 62, 40
2, 52320, Note_on_c, 0, 62, 0
2, 52320, Note_on_c, 0, 58, 40
2, 52880, Note_on_c, 0, 58, 0
2, 52880, Note_on_c, 0, 62, 41
2, 52920, Note_on_c, 0, 62, 0
2, 52960, Note_on_c, 0, 64, 41
2, 53000, Note_on_c, 0, 64, 0
2, 53040, Note_on_c, 0, 65, 45
2, 53080, Note_on_c, 0, 65, 0
2, 53120, Note_on_c, 0, 67, 41
2, 53160, Note_on_c, 0, 67, 0
2, 53200, Note_on_c, 0, 69, 41
2, 53240, Note_on_c, 0, 69, 0
2, 53280, Note_on_c, 0, 70, 48
2, 54120, Note_on_c, 0, 70, 0
2, 54120, Note_on_c, 0, 72, 46
2, 54180, Note_on_c, 0, 72, 0
2, 54180, Note_on_c, 0, 70, 42
2, 54240, Note_on_c, 0, 70, 0
2, 54240, Note_on_c, 0, 69, 48
2, 54720, Note_on_c, 0, 69, 0
2, 54720, Note_on_c, 0, 74, 52
2, 55200, Note_on_c, 0, 74, 0
2, 55200, Note_on_c, 0, 79, 66
2, 55680, Note_on_c, 0, 79, 0
2, 55680, Note_on_c, 0, 77, 61
2, 56150, Note_on_c, 0, 77, 0
2, 56160, Note_on_c, 0, 77, 50
2, 56280, Note_on_c, 0, 77, 0
2, 56280, Note_on_c, 0, 76, 45
2, 56400, Note_on_c, 0, 76, 0
2, 56400, Note_on_c, 0, 74, 43
2, 56520, Note_on_c, 0, 74, 0
2, 56520, Note_on_c, 0, 72, 43
2, 56640, Note_on_c, 0, 72, 0
2, 56640, Note_on_c, 0, 70, 53
2, 57120, Note_on_c, 0, 70, 0
2, 57120, Note_on_c, 0, 69, 45
2, 57600, Note_on_c, 0, 69, 0
2, 57680, Note_on_c, 0, 67, 40
2, 57760, Note_on_c, 0, 67, 0
2, 57760, Note_on_c, 0, 70, 40
2, 57840, Note_on_c, 0, 70, 0
2, 57840, Note_on_c, 0, 74, 45
2, 57920, Note_on_c, 0, 74, 0
2, 57920, Note_on_c, 0, 70, 35
2, 58000, Note_on_c, 0, 70, 0
2, 58000, Note_on_c, 0, 67, 35
2, 58080, Note_on_c, 0, 67, 0
2, 58080, Note_on_c, 0, 65, 41
2, 58740, Note_on_c, 0, 65, 0
2, 58740, Note_on_c, 0, 69, 35
2, 58800, Note_on_c, 0, 69, 0
2, 58800, Note_on_c, 0, 67, 42
2, 58800, Note_on_c, 0, 64, 36
2, 59040, Note_on_c, 0, 64, 0
2, 59040, Note_on_c, 0, 67, 0
2, 59040, Note_on_c, 0, 69, 50
2, 59120, Note_on_c, 0, 69, 0
2, 59120, Note_on_c, 0, 72, 50
2, 59200, Note_on_c, 0, 72, 0
2, 59200, Note_on_c, 0, 70, 47
2, 59280, Note_on_c, 0, 70, 0
2, 59280, Note_on_c, 0, 69, 50
2, 59360, Note_on_c, 0, 69, 0
2, 59360, Note_on_c, 0, 77, 55
2, 59440, Note_on_c, 0, 77, 0
2, 59440, Note_on_c, 0, 76, 48
2, 59520, Note_on_c, 0, 76, 0
2, 59520, Note_on_c, 0, 74, 50
2, 59600, Note_on_c, 0, 74, 0
2, 59600, Note_on_c, 0, 82, 56
2, 59680, Note_on_c, 0, 82, 0
2, 59680, Note_on_c, 0, 81, 50
2, 59760, Note_on_c, 0, 81, 0
2, 59760, Note_on_c, 0, 79, 58
2, 59840, Note_on_c, 0, 79, 0
2, 59840, Note_on_c, 0, 86, 61
2, 59920, Note_on_c, 0, 86, 0
2, 59920, Note_on_c, 0, 84, 54
2, 60000, Note_on_c, 0, 84, 0
2, 60000, Note_on_c, 0, 82, 55
2, 60080, Note_on_c, 0, 82, 0
2, 60080, Note_on_c, 0, 81, 50
2, 60160, Note_on_c, 0, 81, 0
2, 60160, Note_on_c, 0, 79, 46
2, 60240, Note_on_c, 0, 79, 0
2, 60240, Note_on_c, 0, 77, 54
2, 60320, Note_on_c, 0, 77, 0
2, 60320, Note_on_c, 0, 76, 50
2, 60400, Note_on_c, 0, 76, 0
2, 60400, Note_on_c, 0, 74, 50
2, 60480, Note_on_c, 0, 74, 0
2, 60480, Note_on_c, 0, 72, 50
2, 60960, Note_on_c, 0, 72, 0
2, 60960, Note_on_c, 0, 70, 50
2, 60990, Note_on_c, 0, 70, 0
2, 60990, Note_on_c, 0, 72, 46
2, 61020, Note_on_c, 0, 72, 0
2, 61020, Note_on_c, 0, 70, 53
2, 61440, Note_on_c, 0, 70, 0
2, 61440, Note_on_c, 0, 69, 45
2, 61920, Note_on_c, 0, 69, 0
2, 62000, Note_on_c, 0, 66, 40
2, 62080, Note_on_c, 0, 66, 0
2, 62080, Note_on_c, 0, 67, 40
2, 62160, Note_on_c, 0, 67, 0
2, 62160, Note_on_c, 0, 74, 45
2, 62240, Note_on_c, 0, 74, 0
2, 62240, Note_on_c, 0, 70, 35
2, 62320, Note_on_c, 0, 70, 0
2, 62320, Note_on_c, 0, 67, 35
2, 62400, Note_on_c, 0, 67, 0
2, 62400, Note_on_c, 0, 65, 41
2, 63060, Note_on_c, 0, 65, 0
2, 63060, Note_on_c, 0, 69, 35
2, 63120, Note_on_c, 0, 69, 0
2, 63120, Note_on_c, 0, 67, 42
2, 63120, Note_on_c, 0, 64, 36
2, 63360, Note_on_c, 0, 64, 0
2, 63360, Note_on_c, 0, 67, 0
2, 63360, Note_on_c, 0, 69, 50
2, 63440, Note_on_c, 0, 69, 0
2, 63440, Note_on_c, 0, 72, 50
2, 63520, Note_on_c, 0, 72, 0
2, 63520, Note_on_c, 0, 70, 47
2, 63600, Note_on_c, 0, 70, 0
2, 63600, Note_on_c, 0, 69, 50
2, 63680, Note_on_c, 0, 69, 0
2, 63680, Note_on_c, 0, 77, 55
2, 63760, Note_on_c, 0, 77, 0
2, 63760, Note_on_c, 0, 76, 48
2, 63840, Note_on_c, 0, 76, 0
2, 63840, Note_on_c, 0, 74, 50
2, 63920, Note_on_c, 0, 74, 0
2, 63920, Note_on_c, 0, 82, 56
2, 64000, Note_on_c, 0, 82, 0
2, 64000, Note_on_c, 0, 81, 50
2, 64080, Note_on_c, 0, 81, 0
2, 64080, Note_on_c, 0, 79, 57
2, 64160, Note_on_c, 0, 79, 0
2, 64160, Note_on_c, 0, 86, 62
2, 64240, Note_on_c, 0, 86, 0
2, 64240, Note_on_c, 0, 84, 54
2, 64320, Note_on_c, 0, 84, 0
2, 64320, Note_on_c, 0, 82, 55
2, 64400, Note_on_c, 0, 82, 0
2, 64400, Note_on_c, 0, 81, 50
2, 64480, Note_on_c, 0, 81, 0
2, 64480, Note_on_c, 0, 79, 46
2, 64560, Note_on_c, 0, 79, 0
2, 64560, Note_on_c, 0, 77, 54
2, 64640, Note_on_c, 0, 77, 0
2, 64640, Note_on_c, 0, 76, 50
2, 64720, Note_on_c, 0, 76, 0
2, 64720, Note_on_c, 0, 74, 50
2, 64800, Note_on_c, 0, 74, 0
2, 64800, Note_on_c, 0, 72, 50
2, 65280, Note_on_c, 0, 72, 0
2, 65280, Note_on_c, 0, 70, 42
2, 65310, Note_on_c, 0, 70, 0
2, 65310, Note_on_c, 0, 72, 37
2, 65340, Note_on_c, 0, 72, 0
2, 65340, Note_on_c, 0, 70, 41
2, 65370, Note_on_c, 0, 70, 0
2, 65370, Note_on_c, 0, 72, 38
2, 65400, Note_on_c, 0, 72, 0
2, 65400, Note_on_c, 0, 70, 43
2, 65430, Note_on_c, 0, 70, 0
2, 65430, Note_on_c, 0, 72, 39
2, 65460, Note_on_c, 0, 72, 0
2, 65460, Note_on_c, 0, 70, 43
2, 65490, Note_on_c, 0, 70, 0
2, 65490, Note_on_c, 0, 72, 40
2, 65520, Note_on_c, 0, 72, 0
2, 65520, Note_on_c, 0, 70, 45
2, 65550, Note_on_c, 0, 70, 0
2, 65550, Note_on_c, 0, 72, 42
2, 65580, Note_on_c, 0, 72, 0
2, 65580, Note_on_c, 0, 70, 45
2, 65610, Note_on_c, 0, 70, 0
2, 65610, Note_on_c, 0, 72, 42
2, 65640, Note_on_c, 0, 72, 0
2, 65640, Note_on_c, 0, 70, 45
2, 65670, Note_on_c, 0, 70, 0
2, 65670, Note_on_c, 0, 72, 42
2, 65700, Note_on_c, 0, 72, 0
2, 65700, Note_on_c, 0, 69, 47
2, 65730, Note_on_c, 0, 69, 0
2, 65730, Note_on_c, 0, 70, 42
2, 65760, Note_on_c, 0, 70, 0
2, 65760, Note_on_c, 0, 69, 55
2, 66240, Note_on_c, 0, 69, 0
2, 66240, Note_on_c, 0, 66, 40
2, 66320, Note_on_c, 0, 66, 0
2, 66320, Note_on_c, 0, 67, 35
2, 66400, Note_on_c, 0, 67, 0
2, 66400, Note_on_c, 0, 70, 35
2, 66480, Note_on_c, 0, 70, 0
2, 66480, Note_on_c, 0, 74, 37
2, 66560, Note_on_c, 0, 74, 0
2, 66560, Note_on_c, 0, 79, 40
2, 66640, Note_on_c, 0, 79, 0
2, 66640, Note_on_c, 0, 82, 40
2, 66720, Note_on_c, 0, 82, 0
2, 66720, Note_on_c, 0, 86, 42
2, 66800, Note_on_c, 0, 86, 0
2, 66800, Note_on_c, 0, 84, 38
2, 66880, Note_on_c, 0, 84, 0
2, 66880, Note_on_c, 0, 82, 38
2, 66960, Note_on_c, 0, 82, 0
2, 66960, Note_on_c, 0, 81, 41
2, 67040, Note_on_c, 0, 81, 0
2, 67040, Note_on_c, 0, 79, 35
2, 67120, Note_on_c, 0, 79, 0
2, 67120, Note_on_c, 0, 77, 33
2, 67190, Note_on_c, 0, 77, 0
2, 67200, Note_on_c, 0, 77, 41
2, 67280, Note_on_c, 0, 77, 0
2, 67280, Note_on_c, 0, 76, 35
2, 67360, Note_on_c, 0, 76, 0
2, 67360, Note_on_c, 0, 79, 35
2, 67440, Note_on_c, 0, 79, 0
2, 67440, Note_on_c, 0, 82, 39
2, 67520, Note_on_c, 0, 82, 0
2, 67520, Note_on_c, 0, 79, 35
2, 67600, Note_on_c, 0, 79, 0
2, 67600, Note_on_c, 0, 76, 35
2, 67670, Note_on_c, 0, 76, 0
2, 67680, Note_on_c, 0, 76, 41
2, 68160, Note_on_c, 0, 76, 0
2, 68160, Note_on_c, 0, 77, 41
2, 68640, Note_on_c, 0, 77, 0
2, 69120, Note_on_c, 0, 72, 50
2, 69480, Note_on_c, 0, 72, 0
2, 69480, Note_on_c, 0, 69, 46
2, 69540, Note_on_c, 0, 69, 0
2, 69540, Note_on_c, 0, 65, 41
2, 69600, Note_on_c, 0, 65, 0
2, 69600, Note_on_c, 0, 64, 50
2, 69840, Note_on_c, 0, 64, 0
2, 70080, Note_on_c, 0, 55, 45
2, 70160, Note_on_c, 0, 55, 0
2, 70160, Note_on_c, 0, 58, 41
2, 70240, Note_on_c, 0, 58, 0
2, 70240, Note_on_c, 0, 60, 41
2, 70320, Note_on_c, 0, 60, 0
2, 70320, Note_on_c, 0, 64, 45
2, 70400, Note_on_c, 0, 64, 0
2, 70400, Note_on_c, 0, 67, 41
2, 70480, Note_on_c, 0, 67, 0
2, 70480, Note_on_c, 0, 70, 41
2, 70560, Note_on_c, 0, 70, 0
2, 70560, Note_on_c, 0, 74, 57
2, 70800, Note_on_c, 0, 74, 0
2, 70800, Note_on_c, 0, 72, 42
2, 70860, Note_on_c, 0, 72, 0
2, 70860, Note_on_c, 0, 70, 36
2, 70920, Note_on_c, 0, 70, 0
2, 70920, Note_on_c, 0, 69, 41
2, 70980, Note_on_c, 0, 69, 0
2, 70980, Note_on_c, 0, 67, 36
2, 71040, Note_on_c, 0, 67, 0
2, 71040, Note_on_c, 0, 66, 45
2, 71280, Note_on_c, 0, 66, 0
2, 72240, Note_on_c, 0, 70, 42
2, 72320, Note_on_c, 0, 70, 0
2, 72320, Note_on_c, 0, 74, 41
2, 72400, Note_on_c, 0, 74, 0
2, 72400, Note_on_c, 0, 79, 41
2, 72480, Note_on_c, 0, 79, 0
2, 72480, Note_on_c, 0, 82, 45
2, 72560, Note_on_c, 0, 82, 0
2, 72560, Note_on_c, 0, 86, 42
2, 72640, Note_on_c, 0, 86, 0
2, 72640, Note_on_c, 0, 84, 40
2, 72720, Note_on_c, 0, 84, 0
2, 72720, Note_on_c, 0, 82, 42
2, 72800, Note_on_c, 0, 82, 0
2, 72800, Note_on_c, 0, 81, 41
2, 72880, Note_on_c, 0, 81, 0
2, 72880, Note_on_c, 0, 79, 41
2, 72960, Note_on_c, 0, 79, 0
2, 72960, Note_on_c, 0, 86, 45
2, 73040, Note_on_c, 0, 86, 0
2, 73040, Note_on_c, 0, 84, 42
2, 73120, Note_on_c, 0, 84, 0
2, 73120, Note_on_c, 0, 82, 42
2, 73200, Note_on_c, 0, 82, 0
2, 73200, Note_on_c, 0, 81, 45
2, 73280, Note_on_c, 0, 81, 0
2, 73280, Note_on_c, 0, 79, 40
2, 73360, Note_on_c, 0, 79, 0
2, 73360, Note_on_c, 0, 77, 38
2, 73430, Note_on_c, 0, 77, 0
2, 73440, Note_on_c, 0, 77, 48
2, 74400, Note_on_c, 0, 77, 0
2, 74400, Note_on_c, 0, 76, 50
2, 74430, Note_on_c, 0, 76, 0
2, 74430, Note_on_c, 0, 77, 46
2, 74460, Note_on_c, 0, 77, 0
2, 74460, Note_on_c, 0, 76, 53
2, 74880, Note_on_c, 0, 76, 0
2, 74960, Note_on_c, 0, 72, 39
2, 75040, Note_on_c, 0, 72, 0
2, 75040, Note_on_c, 0, 74, 39
2, 75120, Note_on_c, 0, 74, 0
2, 75120, Note_on_c, 0, 76, 39
2, 75200, Note_on_c, 0, 76, 0
2, 75200, Note_on_c, 0, 77, 41
2, 75280, Note_on_c, 0, 77, 0
2, 75280, Note_on_c, 0, 79, 42
2, 75360, Note_on_c, 0, 79, 0
2, 75360, Note_on_c, 0, 81, 45
2, 75440, Note_on_c, 0, 81, 0
2, 75440, Note_on_c, 0, 82, 42
2, 75520, Note_on_c, 0, 82, 0
2, 75520, Note_on_c, 0, 84, 40
2, 75600, Note_on_c, 0, 84, 0
2, 75600, Note_on_c, 0, 82, 48
2, 75680, Note_on_c, 0, 82, 0
2, 75680, Note_on_c, 0, 81, 41
2, 75760, Note_on_c, 0, 81, 0
2, 75760, Note_on_c, 0, 79, 41
2, 75840, Note_on_c, 0, 79, 0
2, 75840, Note_on_c, 0, 77, 45
2, 75920, Note_on_c, 0, 77, 0
2, 75920, Note_on_c, 0, 84, 42
2, 76000, Note_on_c, 0, 84, 0
2, 76000, Note_on_c, 0, 81, 42
2, 76080, Note_on_c, 0, 81, 0
2, 76080, Note_on_c, 0, 79, 45
2, 76160, Note_on_c, 0, 79, 0
2, 76160, Note_on_c, 0, 77, 40
2, 76240, Note_on_c, 0, 77, 0
2, 76240, Note_on_c, 0, 76, 38
2, 76310, Note_on_c, 0, 76, 0
2, 76320, Note_on_c, 0, 76, 48
2, 76680, Note_on_c, 0, 76, 0
2, 76680, Note_on_c, 0, 74, 46
2, 76800, Note_on_c, 0, 74, 0
2, 76800, Note_on_c, 0, 82, 50
2, 77280, Note_on_c, 0, 82, 0
2, 77280, Note_on_c, 0, 74, 46
2, 77760, Note_on_c, 0, 74, 0
2, 77760, Note_on_c, 0, 73, 50
2, 78120, Note_on_c, 0, 73, 0
2, 78120, Note_on_c, 0, 76, 49
2, 78240, Note_on_c, 0, 76, 0
2, 78240, Note_on_c, 0, 79, 56
2, 78720, Note_on_c, 0, 79, 0
2, 78720, Note_on_c, 0, 77, 51
2, 79080, Note_on_c, 0, 77, 0
2, 79080, Note_on_c, 0, 74, 48
2, 79200, Note_on_c, 0, 74, 0
2, 79200, Note_on_c, 0, 81, 59
2, 79680, Note_on_c, 0, 81, 0
2, 80720, Note_on_c, 0, 69, 41
2, 80800, Note_on_c, 0, 69, 0
2, 80800, Note_on_c, 0, 67, 42
2, 80880, Note_on_c, 0, 67, 0
2, 80880, Note_on_c, 0, 65, 48
2, 80960, Note_on_c, 0, 65, 0
2, 80960, Note_on_c, 0, 64, 42
2, 81040, Note_on_c, 0, 64, 0
2, 81040, Note_on_c, 0, 62, 42
2, 81120, Note_on_c, 0, 62, 0
2, 81120, Note_on_c, 0, 61, 49
2, 81600, Note_on_c, 0, 61, 0
2, 82160, Note_on_c, 0, 82, 46
2, 82240, Note_on_c, 0, 82, 0
2, 82240, Note_on_c, 0, 81, 48
2, 82320, Note_on_c, 0, 81, 0
2, 82320, Note_on_c, 0, 79, 53
2, 82400, Note_on_c, 0, 79, 0
2, 82400, Note_on_c, 0, 77, 47
2, 82480, Note_on_c, 0, 77, 0
2, 82480, Note_on_c, 0, 76, 43
2, 82560, Note_on_c, 0, 76, 0
2, 82560, Note_on_c, 0, 74, 53
2, 82640, Note_on_c, 0, 74, 0
2, 82640, Note_on_c, 0, 81, 46
2, 82720, Note_on_c, 0, 81, 0
2, 82720, Note_on_c, 0, 79, 48
2, 82800, Note_on_c, 0, 79, 0
2, 82800, Note_on_c, 0, 77, 53
2, 82880, Note_on_c, 0, 77, 0
2, 82880, Note_on_c, 0, 76, 47
2, 82960, Note_on_c, 0, 76, 0
2, 82960, Note_on_c, 0, 74, 46
2, 83040, Note_on_c, 0, 74, 0
2, 83040, Note_on_c, 0, 86, 68
2, 83220, Note_on_c, 0, 86, 0
2, 83400, Note_on_c, 0, 84, 43
2, 83400, Note_on_c, 0, 74, 43
2, 83520, Note_on_c, 0, 84, 0
2, 83520, Note_on_c, 0, 82, 50
2, 83760, Note_on_c, 0, 82, 0
2, 83760, Note_on_c, 0, 74, 0
2, 83880, Note_on_c, 0, 74, 41
2, 84000, Note_on_c, 0, 74, 0
2, 84000, Note_on_c, 0, 73, 50
2, 84240, Note_on_c, 0, 73, 0
2, 84360, Note_on_c, 0, 76, 41
2, 84480, Note_on_c, 0, 76, 0
2, 84480, Note_on_c, 0, 81, 50
2, 84720, Note_on_c, 0, 81, 0
2, 84840, Note_on_c, 0, 79, 41
2, 84960, Note_on_c, 0, 79, 0
2, 84960, Note_on_c, 0, 79, 35
2, 85080, Note_on_c, 0, 79, 0
2, 85080, Note_on_c, 0, 77, 32
2, 85200, Note_on_c, 0, 77, 0
2, 85200, Note_on_c, 0, 79, 38
2, 85230, Note_on_c, 0, 79, 0
2, 85230, Note_on_c, 0, 77, 32
2, 85260, Note_on_c, 0, 77, 0
2, 85260, Note_on_c, 0, 79, 30
2, 85290, Note_on_c, 0, 79, 0
2, 85290, Note_on_c, 0, 77, 31
2, 85320, Note_on_c, 0, 77, 0
2, 85320, Note_on_c, 0, 79, 33
2, 85350, Note_on_c, 0, 79, 0
2, 85350, Note_on_c, 0, 77, 36
2, 85380, Note_on_c, 0, 77, 0
2, 85380, Note_on_c, 0, 76, 37
2, 85410, Note_on_c, 0, 76, 0
2, 85410, Note_on_c, 0, 77, 38
2, 85440, Note_on_c, 0, 77, 0
2, 85440, Note_on_c, 0, 76, 40
2, 85680, Note_on_c, 0, 76, 0
2, 86400, Note_on_c, 0, 69, 50
2, 86480, Note_on_c, 0, 69, 0
2, 86480, Note_on_c, 0, 76, 50
2, 86560, Note_on_c, 0, 76, 0
2, 86560, Note_on_c, 0, 74, 47
2, 86640, Note_on_c, 0, 74, 0
2, 86640, Note_on_c, 0, 73, 50
2, 86720, Note_on_c, 0, 73, 0
2, 86720, Note_on_c, 0, 79, 55
2, 86800, Note_on_c, 0, 79, 0
2, 86800, Note_on_c, 0, 77, 48
2, 86880, Note_on_c, 0, 77, 0
2, 86880, Note_on_c, 0, 76, 50
2, 86960, Note_on_c, 0, 76, 0
2, 86960, Note_on_c, 0, 82, 56
2, 87040, Note_on_c, 0, 82, 0
2, 87040, Note_on_c, 0, 81, 50
2, 87120, Note_on_c, 0, 81, 0
2, 87120, Note_on_c, 0, 79, 58
2, 87200, Note_on_c, 0, 79, 0
2, 87200, Note_on_c, 0, 88, 63
2, 87280, Note_on_c, 0, 88, 0
2, 87280, Note_on_c, 0, 86, 56
2, 87360, Note_on_c, 0, 86, 0
2, 87360, Note_on_c, 0, 85, 60
2, 87440, Note_on_c, 0, 85, 0
2, 87440, Note_on_c, 0, 82, 57
2, 87520, Note_on_c, 0, 82, 0
2, 87520, Note_on_c, 0, 81, 51
2, 87600, Note_on_c, 0, 81, 0
2, 87600, Note_on_c, 0, 79, 54
2, 87680, Note_on_c, 0, 79, 0
2, 87680, Note_on_c, 0, 77, 50
2, 87760, Note_on_c, 0, 77, 0
2, 87760, Note_on_c, 0, 76, 50
2, 87840, Note_on_c, 0, 76, 0
2, 87840, Note_on_c, 0, 74, 50
2, 87920, Note_on_c, 0, 74, 0
2, 87920, Note_on_c, 0, 81, 50
2, 88000, Note_on_c, 0, 81, 0
2, 88000, Note_on_c, 0, 79, 47
2, 88080, Note_on_c, 0, 79, 0
2, 88080, Note_on_c, 0, 78, 50
2, 88160, Note_on_c, 0, 78, 0
2, 88160, Note_on_c, 0, 84, 55
2, 88240, Note_on_c, 0, 84, 0
2, 88240, Note_on_c, 0, 82, 48
2, 88320, Note_on_c, 0, 82, 0
2, 88320, Note_on_c, 0, 81, 50
2, 88400, Note_on_c, 0, 81, 0
2, 88400, Note_on_c, 0, 87, 59
2, 88480, Note_on_c, 0, 87, 0
2, 88480, Note_on_c, 0, 86, 53
2, 88560, Note_on_c, 0, 86, 0
2, 88560, Note_on_c, 0, 84, 48
2, 88640, Note_on_c, 0, 84, 0
2, 88640, Note_on_c, 0, 82, 50
2, 88720, Note_on_c, 0, 82, 0
2, 88720, Note_on_c, 0, 81, 49
2, 88800, Note_on_c, 0, 81, 0
2, 88800, Note_on_c, 0, 79, 48
2, 88880, Note_on_c, 0, 79, 0
2, 88880, Note_on_c, 0, 78, 51
2, 88960, Note_on_c, 0, 78, 0
2, 88960, Note_on_c, 0, 79, 48
2, 89040, Note_on_c, 0, 79, 0
2, 89040, Note_on_c, 0, 81, 54
2, 89120, Note_on_c, 0, 81, 0
2, 89120, Note_on_c, 0, 78, 50
2, 89200, Note_on_c, 0, 78, 0
2, 89200, Note_on_c, 0, 72, 46
2, 89280, Note_on_c, 0, 72, 0
2, 89280, Note_on_c, 0, 70, 50
2, 89760, Note_on_c, 0, 70, 0
2, 89760, Note_on_c, 0, 82, 62
2, 90240, Note_on_c, 0, 82, 0
2, 90240, Note_on_c, 0, 74, 57
2, 90720, Note_on_c, 0, 74, 0
2, 90720, Note_on_c, 0, 73, 50
2, 91200, Note_on_c, 0, 73, 0
2, 91200, Note_on_c, 0, 79, 62
2, 91680, Note_on_c, 0, 79, 0
2, 91680, Note_on_c, 0, 77, 55
2, 92160, Note_on_c, 0, 77, 0
2, 92240, Note_on_c, 0, 76, 40
2, 92320, Note_on_c, 0, 76, 0
2, 92320, Note_on_c, 0, 79, 40
2, 92400, Note_on_c, 0, 79, 0
2, 92400, Note_on_c, 0, 82, 45
2, 92480, Note_on_c, 0, 82, 0
2, 92480, Note_on_c, 0, 79, 35
2, 92560, Note_on_c, 0, 79, 0
2, 92560, Note_on_c, 0, 76, 35
2, 92640, Note_on_c, 0, 76, 0
2, 92640, Note_on_c, 0, 74, 41
2, 93300, Note_on_c, 0, 74, 0
2, 93300, Note_on_c, 0, 77, 35
2, 93360, Note_on_c, 0, 77, 0
2, 93360, Note_on_c, 0, 76, 42
2, 93360, Note_on_c, 0, 73, 36
2, 93600, Note_on_c, 0, 73, 0
2, 93600, Note_on_c, 0, 76, 0
2, 93600, Note_on_c, 0, 78, 43
2, 94080, Note_on_c, 0, 78, 0
2, 94080, Note_on_c, 0, 81, 54
2, 94640, Note_on_c, 0, 81, 0
2, 94640, Note_on_c, 0, 87, 60
2, 94720, Note_on_c, 0, 87, 0
2, 94720, Note_on_c, 0, 86, 54
2, 94800, Note_on_c, 0, 86, 0
2, 94800, Note_on_c, 0, 84, 58
2, 94880, Note_on_c, 0, 84, 0
2, 94880, Note_on_c, 0, 82, 54
2, 94960, Note_on_c, 0, 82, 0
2, 94960, Note_on_c, 0, 81, 49
2, 95040, Note_on_c, 0, 81, 0
2, 95040, Note_on_c, 0, 79, 54
2, 95520, Note_on_c, 0, 79, 0
2, 95520, Note_on_c, 0, 82, 54
2, 96080, Note_on_c, 0, 82, 0
2, 96080, Note_on_c, 0, 86, 54
2, 96160, Note_on_c, 0, 86, 0
2, 96160, Note_on_c, 0, 84, 49
2, 96240, Note_on_c, 0, 84, 0
2, 96240, Note_on_c, 0, 82, 53
2, 96320, Note_on_c, 0, 82, 0
2, 96320, Note_on_c, 0, 81, 49
2, 96400, Note_on_c, 0, 81, 0
2, 96400, Note_on_c, 0, 79, 49
2, 96480, Note_on_c, 0, 79, 0
2, 96480, Note_on_c, 0, 78, 54
2, 97040, Note_on_c, 0, 78, 0
2, 97040, Note_on_c, 0, 79, 54
2, 97120, Note_on_c, 0, 79, 0
2, 97120, Note_on_c, 0, 80, 51
2, 97200, Note_on_c, 0, 80, 0
2, 97200, Note_on_c, 0, 81, 54
2, 97280, Note_on_c, 0, 81, 0
2, 97280, Note_on_c, 0, 82, 51
2, 97360, Note_on_c, 0, 82, 0
2, 97360, Note_on_c, 0, 84, 49
2, 97440, Note_on_c, 0, 84, 0
2, 97440, Note_on_c, 0, 86, 62
2, 97520, Note_on_c, 0, 86, 0
2, 97520, Note_on_c, 0, 87, 65
2, 97600, Note_on_c, 0, 87, 0
2, 97600, Note_on_c, 0, 86, 58
2, 97680, Note_on_c, 0, 86, 0
2, 97680, Note_on_c, 0, 84, 61
2, 97760, Note_on_c, 0, 84, 0
2, 97760, Note_on_c, 0, 82, 57
2, 97840, Note_on_c, 0, 82, 0
2, 97840, Note_on_c, 0, 81, 54
2, 97920, Note_on_c, 0, 81, 0
2, 97920, Note_on_c, 0, 82, 62
2, 98000, Note_on_c, 0, 82, 0
2, 98000, Note_on_c, 0, 86, 51
2, 98080, Note_on_c, 0, 86, 0
2, 98080, Note_on_c, 0, 78, 45
2, 98160, Note_on_c, 0, 78, 0
2, 98160, Note_on_c, 0, 79, 55
2, 98240, Note_on_c, 0, 79, 0
2, 98240, Note_on_c, 0, 82, 51
2, 98320, Note_on_c, 0, 82, 0
2, 98320, Note_on_c, 0, 74, 47
2, 98400, Note_on_c, 0, 74, 0
2, 98400, Note_on_c, 0, 82, 62
2, 98480, Note_on_c, 0, 82, 0
2, 98480, Note_on_c, 0, 86, 51
2, 98560, Note_on_c, 0, 86, 0
2, 98560, Note_on_c, 0, 78, 45
2, 98640, Note_on_c, 0, 78, 0
2, 98640, Note_on_c, 0, 79, 55
2, 98720, Note_on_c, 0, 79, 0
2, 98720, Note_on_c, 0, 82, 51
2, 98800, Note_on_c, 0, 82, 0
2, 98800, Note_on_c, 0, 74, 47
2, 98880, Note_on_c, 0, 74, 0
2, 98880, Note_on_c, 0, 75, 54
2, 98960, Note_on_c, 0, 75, 0
2, 98960, Note_on_c, 0, 78, 47
2, 99040, Note_on_c, 0, 78, 0
2, 99040, Note_on_c, 0, 79, 47
2, 99120, Note_on_c, 0, 79, 0
2, 99120, Note_on_c, 0, 74, 53
2, 99200, Note_on_c, 0, 74, 0
2, 99200, Note_on_c, 0, 78, 48
2, 99280, Note_on_c, 0, 78, 0
2, 99280, Note_on_c, 0, 79, 48
2, 99360, Note_on_c, 0, 79, 0
2, 99360, Note_on_c, 0, 73, 62
2, 99600, Note_on_c, 0, 73, 0
2, 99920, Note_on_c, 0, 67, 46
2, 100000, Note_on_c, 0, 67, 0
2, 100000, Note_on_c, 0, 70, 46
2, 100080, Note_on_c, 0, 70, 0
2, 100080, Note_on_c, 0, 73, 54
2, 100160, Note_on_c, 0, 73, 0
2, 100160, Note_on_c, 0, 76, 47
2, 100240, Note_on_c, 0, 76, 0
2, 100240, Note_on_c, 0, 79, 47
2, 100320, Note_on_c, 0, 79, 0
2, 100320, Note_on_c, 0, 82, 53
2, 100400, Note_on_c, 0, 82, 0
2, 100400, Note_on_c, 0, 79, 48
2, 100480, Note_on_c, 0, 79, 0
2, 100480, Note_on_c, 0, 85, 54
2, 100560, Note_on_c, 0, 85, 0
2, 100560, Note_on_c, 0, 86, 57
2, 100800, Note_on_c, 0, 86, 0
2, 100880, Note_on_c, 0, 64, 34
2, 100960, Note_on_c, 0, 64, 0
2, 100960, Note_on_c, 0, 67, 34
2, 101040, Note_on_c, 0, 67, 0
2, 101040, Note_on_c, 0, 70, 38
2, 101120, Note_on_c, 0, 70, 0
2, 101120, Note_on_c, 0, 67, 29
2, 101200, Note_on_c, 0, 67, 0
2, 101200, Note_on_c, 0, 64, 29
2, 101280, Note_on_c, 0, 64, 0
2, 101280, Note_on_c, 0, 62, 34
2, 101940, Note_on_c, 0, 62, 0
2, 101940, Note_on_c, 0, 65, 29
2, 102000, Note_on_c, 0, 65, 0
2, 102000, Note_on_c, 0, 64, 35
2, 102000, Note_on_c, 0, 61, 30
2, 102240, Note_on_c, 0, 61, 0
2, 102240, Note_on_c, 0, 64, 0
2, 102240, Note_on_c, 0, 62, 36
2, 102720, Note_on_c, 0, 62, 0
2, 102960, Note_on_c, 0, 86, 38
2, 102960, Note_on_c, 0, 89, 38
2, 103200, Note_on_c, 0, 89, 0
2, 103200, Note_on_c, 0, 86, 0
2, 103200, Note_on_c, 0, 89, 38
2, 103200, Note_on_c, 0, 86, 38
2, 103440, Note_on_c, 0, 86, 0
2, 103440, Note_on_c, 0, 89, 0
2, 103440, Note_on_c, 0, 86, 38
2, 103440, Note_on_c, 0, 89, 38
2, 103680, Note_on_c, 0, 89, 0
2, 103680, Note_on_c, 0, 86, 0
2, 104400, Note_on_c, 0, 86, 38
2, 104400, Note_on_c, 0, 89, 38
2, 104640, Note_on_c, 0, 89, 0
2, 104640, Note_on_c, 0, 86, 0
2, 104640, Note_on_c, 0, 89, 38
2, 104640, Note_on_c, 0, 86, 38
2, 104880, Note_on_c, 0, 86, 0
2, 104880, Note_on_c, 0, 89, 0
2, 104880, Note_on_c, 0, 86, 38
2, 104880, Note_on_c, 0, 89, 38
2, 105120, Note_on_c, 0, 89, 0
2, 105120, Note_on_c, 0, 86, 0
2, 105840, Note_on_c, 0, 62, 27
2, 105840, Note_on_c, 0, 65, 32
2, 106080, Note_on_c, 0, 65, 0
2, 106080, Note_on_c, 0, 62, 0
2, 106080, Note_on_c, 0, 65, 32
2, 106080, Note_on_c, 0, 62, 27
2, 106320, Note_on_c, 0, 62, 0
2, 106320, Note_on_c, 0, 65, 0
2, 106320, Note_on_c, 0, 56, 27
2, 106320, Note_on_c, 0, 62, 32
2, 106560, Note_on_c, 0, 62, 0
2, 106560, Note_on_c, 0, 56, 0
2, 106560, Note_on_c, 0, 57, 33
2, 106640, Note_on_c, 0, 57, 0
2, 106640, Note_on_c, 0, 61, 33
2, 106720, Note_on_c, 0, 61, 0
2, 106720, Note_on_c, 0, 64, 38
2, 106800, Note_on_c, 0, 64, 0
2, 106800, Note_on_c, 0, 69, 32
2, 106880, Note_on_c, 0, 69, 0
2, 106880, Note_on_c, 0, 64, 33
2, 106960, Note_on_c, 0, 64, 0
2, 106960, Note_on_c, 0, 61, 38
2, 107040, Note_on_c, 0, 61, 0
2, 107040, End_track
3, 0, Start_track
3, 0, Title_t, "Piano left"
3, 0, Program_c, 0, 0
3, 0, Note_on_c, 0, 65, 34
3, 0, Note_on_c, 0, 62, 28
3, 480, Note_on_c, 0, 62, 0
3, 480, Note_on_c, 0, 65, 0
3, 480, Note_on_c, 0, 67, 32
3, 480, Note_on_c, 0, 64, 27
3, 720, Note_on_c, 0, 64, 0
3, 720, Note_on_c, 0, 67, 0
3, 1440, Note_on_c, 0, 70, 28
3, 1440, Note_on_c, 0, 67, 28
3, 1440, Note_on_c, 0, 73, 34
3, 1440, Note_on_c, 0, 64, 28
3, 1920, Note_on_c, 0, 64, 0
3, 1920, Note_on_c, 0, 70, 0
3, 1920, Note_on_c, 0, 67, 0
3, 1920, Note_on_c, 0, 73, 0
3, 1920, Note_on_c, 0, 69, 27
3, 1920, Note_on_c, 0, 74, 32
3, 1920, Note_on_c, 0, 65, 27
3, 2160, Note_on_c, 0, 65, 0
3, 2160, Note_on_c, 0, 74, 0
3, 2160, Note_on_c, 0, 69, 0
3, 2880, Note_on_c, 0, 67, 26
3, 3120, Note_on_c, 0, 67, 0
3, 3360, Note_on_c, 0, 69, 26
3, 3600, Note_on_c, 0, 69, 0
3, 3840, Note_on_c, 0, 61, 27
3, 3840, Note_on_c, 0, 69, 32
3, 4080, Note_on_c, 0, 69, 0
3, 4080, Note_on_c, 0, 61, 0
3, 4320, Note_on_c, 0, 62, 27
3, 4320, Note_on_c, 0, 69, 32
3, 4560, Note_on_c, 0, 69, 0
3, 4560, Note_on_c, 0, 62, 0
3, 4800, Note_on_c, 0, 69, 27
3, 4800, Note_on_c, 0, 73, 32
3, 5040, Note_on_c, 0, 73, 0
3, 5040, Note_on_c, 0, 69, 0
3, 5760, Note_on_c, 0, 53, 30
3, 5760, Note_on_c, 0, 50, 25
3, 6240, Note_on_c, 0, 50, 0
3, 6240, Note_on_c, 0, 53, 0
3, 6240, Note_on_c, 0, 55, 28
3, 6240, Note_on_c, 0, 52, 24
3, 6480, Note_on_c, 0, 52, 0
3, 6480, Note_on_c, 0, 55, 0
3, 7200, Note_on_c, 0, 52, 25
3, 7200, Note_on_c, 0, 58, 25
3, 7200, Note_on_c, 0, 61, 30
3, 7200, Note_on_c, 0, 55, 25
3, 7680, Note_on_c, 0, 55, 0
3, 7680, Note_on_c, 0, 52, 0
3, 7680, Note_on_c, 0, 58, 0
3, 7680, Note_on_c, 0, 61, 0
3, 7680, Note_on_c, 0, 57, 28
3, 7680, Note_on_c, 0, 53, 24
3, 7920, Note_on_c, 0, 53, 0
3, 7920, Note_on_c, 0, 57, 0
3, 8640, Note_on_c, 0, 46, 26
3, 8640, Note_on_c, 0, 50, 26
3, 8640, Note_on_c, 0, 56, 35
3, 9120, Note_on_c, 0, 56, 0
3, 9120, Note_on_c, 0, 50, 0
3, 9120, Note_on_c, 0, 46, 0
3, 9600, Note_on_c, 0, 34, 28
3, 9840, Note_on_c, 0, 34, 0
3, 10080, Note_on_c, 0, 33, 32
3, 10560, Note_on_c, 0, 33, 0
3, 11520, Note_on_c, 0, 29, 32
3, 11520, Note_on_c, 0, 41, 32
3, 12000, Note_on_c, 0, 41, 0
3, 12000, Note_on_c, 0, 29, 0
3, 13200, Note_on_c, 0, 52, 21
3, 13200, Note_on_c, 0, 58, 27
3, 13440, Note_on_c, 0, 58, 0
3, 13440, Note_on_c, 0, 52, 0
3, 13440, Note_on_c, 0, 52, 21
3, 13440, Note_on_c, 0, 58, 27
3, 13680, Note_on_c, 0, 58, 0
3, 13680, Note_on_c, 0, 52, 0
3, 13680, Note_on_c, 0, 52, 21
3, 13680, Note_on_c, 0, 58, 27
3, 13920, Note_on_c, 0, 58, 0
3, 13920, Note_on_c, 0, 52, 0
3, 13920, Note_on_c, 0, 58, 29
3, 13920, Note_on_c, 0, 52, 23
3, 14160, Note_on_c, 0, 52, 0
3, 14160, Note_on_c, 0, 58, 0
3, 14160, Note_on_c, 0, 52, 21
3, 14160, Note_on_c, 0, 58, 27
3, 14400, Note_on_c, 0, 58, 0
3, 14400, Note_on_c, 0, 52, 0
3, 14400, Note_on_c, 0, 53, 32
3, 14400, Note_on_c, 0, 57, 32
3, 14880, Note_on_c, 0, 57, 0
3, 14880, Note_on_c, 0, 53, 0
3, 16080, Note_on_c, 0, 51, 21
3, 16080, Note_on_c, 0, 57, 27
3, 16320, Note_on_c, 0, 57, 0
3, 16320, Note_on_c, 0, 51, 0
3, 16320, Note_on_c, 0, 51, 21
3, 16320, Note_on_c, 0, 57, 27
3, 16560, Note_on_c, 0, 57, 0
3, 16560, Note_on_c, 0, 51, 0
3, 16560, Note_on_c, 0, 51, 21
3, 16560, Note_on_c, 0, 57, 27
3, 16800, Note_on_c, 0, 57, 0
3, 16800, Note_on_c, 0, 51, 0
3, 16800, Note_on_c, 0, 57, 29
3, 16800, Note_on_c, 0, 51, 23
3, 17040, Note_on_c, 0, 51, 0
3, 17040, Note_on_c, 0, 57, 0
3, 17040, Note_on_c, 0, 51, 21
3, 17040, Note_on_c, 0, 57, 27
3, 17280, Note_on_c, 0, 57, 0
3, 17280, Note_on_c, 0, 51, 0
3, 17520, Note_on_c, 0, 50, 21
3, 17520, Note_on_c, 0, 53, 27
3, 17760, Note_on_c, 0, 53, 0
3, 17760, Note_on_c, 0, 50, 0
3, 17760, Note_on_c, 0, 50, 23
3, 17760, Note_on_c, 0, 53, 29
3, 18000, Note_on_c, 0, 53, 0
3, 18000, Note_on_c, 0, 50, 0
3, 18000, Note_on_c, 0, 50, 21
3, 18000, Note_on_c, 0, 53, 27
3, 18240, Note_on_c, 0, 53, 0
3, 18240, Note_on_c, 0, 50, 0
3, 18240, Note_on_c, 0, 50, 23
3, 18240, Note_on_c, 0, 53, 29
3, 18480, Note_on_c, 0, 53, 0
3, 18480, Note_on_c, 0, 50, 0
3, 18720, Note_on_c, 0, 48, 27
3, 18800, Note_on_c, 0, 48, 0
3, 18800, Note_on_c, 0, 52, 25
3, 18880, Note_on_c, 0, 52, 0
3, 18880, Note_on_c, 0, 55, 25
3, 18960, Note_on_c, 0, 55, 0
3, 18960, Note_on_c, 0, 48, 27
3, 19040, Note_on_c, 0, 48, 0
3, 19040, Note_on_c, 0, 52, 25
3, 19120, Note_on_c, 0, 52, 0
3, 19120, Note_on_c, 0, 55, 25
3, 19200, Note_on_c, 0, 55, 0
3, 19200, Note_on_c, 0, 48, 27
3, 19280, Note_on_c, 0, 48, 0
3, 19280, Note_on_c, 0, 52, 25
3, 19360, Note_on_c, 0, 52, 0
3, 19360, Note_on_c, 0, 55, 25
3, 19440, Note_on_c, 0, 55, 0
3, 19440, Note_on_c, 0, 48, 27
3, 19520, Note_on_c, 0, 48, 0
3, 19520, Note_on_c, 0, 52, 25
3, 19600, Note_on_c, 0, 52, 0
3, 19600, Note_on_c, 0, 55, 25
3, 19680, Note_on_c, 0, 55, 0
3, 19680, Note_on_c, 0, 48, 27
3, 19760, Note_on_c, 0, 48, 0
3, 19760, Note_on_c, 0, 53, 25
3, 19840, Note_on_c, 0, 53, 0
3, 19840, Note_on_c, 0, 57, 25
3, 19920, Note_on_c, 0, 57, 0
3, 19920, Note_on_c, 0, 48, 27
3, 20000, Note_on_c, 0, 48, 0
3, 20000, Note_on_c, 0, 53, 25
3, 20080, Note_on_c, 0, 53, 0
3, 20080, Note_on_c, 0, 57, 25
3, 20160, Note_on_c, 0, 57, 0
3, 20160, Note_on_c, 0, 46, 31
3, 20240, Note_on_c, 0, 46, 0
3, 20240, Note_on_c, 0, 53, 25
3, 20320, Note_on_c, 0, 53, 0
3, 20320, Note_on_c, 0, 57, 29
3, 20400, Note_on_c, 0, 57, 0
3, 20400, Note_on_c, 0, 46, 32
3, 20480, Note_on_c, 0, 46, 0
3, 20480, Note_on_c, 0, 53, 35
3, 20560, Note_on_c, 0, 53, 0
3, 20560, Note_on_c, 0, 57, 38
3, 20640, Note_on_c, 0, 57, 0
3, 20640, Note_on_c, 0, 46, 42
3, 20720, Note_on_c, 0, 46, 0
3, 20720, Note_on_c, 0, 53, 37
3, 20800, Note_on_c, 0, 53, 0
3, 20800, Note_on_c, 0, 55, 37
3, 20880, Note_on_c, 0, 55, 0
3, 20880, Note_on_c, 0, 46, 42
3, 20960, Note_on_c, 0, 46, 0
3, 20960, Note_on_c, 0, 53, 35
3, 21040, Note_on_c, 0, 53, 0
3, 21040, Note_on_c, 0, 55, 36
3, 21120, Note_on_c, 0, 55, 0
3, 21120, Note_on_c, 0, 47, 43
3, 21200, Note_on_c, 0, 47, 0
3, 21200, Note_on_c, 0, 50, 35
3, 21280, Note_on_c, 0, 50, 0
3, 21280, Note_on_c, 0, 55, 35
3, 21360, Note_on_c, 0, 55, 0
3, 21360, Note_on_c, 0, 47, 41
3, 21440, Note_on_c, 0, 47, 0
3, 21440, Note_on_c, 0, 50, 34
3, 21520, Note_on_c, 0, 50, 0
3, 21520, Note_on_c, 0, 55, 34
3, 21600, Note_on_c, 0, 55, 0
3, 21600, Note_on_c, 0, 48, 39
3, 21680, Note_on_c, 0, 48, 0
3, 21680, Note_on_c, 0, 52, 31
3, 21760, Note_on_c, 0, 52, 0
3, 21760, Note_on_c, 0, 55, 31
3, 21840, Note_on_c, 0, 55, 0
3, 21840, Note_on_c, 0, 48, 35
3, 21920, Note_on_c, 0, 48, 0
3, 21920, Note_on_c, 0, 52, 31
3, 22000, Note_on_c, 0, 52, 0
3, 22000, Note_on_c, 0, 55, 31
3, 22080, Note_on_c, 0, 55, 0
3, 22080, Note_on_c, 0, 52, 35
3, 22160, Note_on_c, 0, 52, 0
3, 22160, Note_on_c, 0, 55, 32
3, 22240, Note_on_c, 0, 55, 0
3, 22240, Note_on_c, 0, 60, 32
3, 22320, Note_on_c, 0, 60, 0
3, 22320, Note_on_c, 0, 52, 35
3, 22400, Note_on_c, 0, 52, 0
3, 22400, Note_on_c, 0, 55, 29
3, 22480, Note_on_c, 0, 55, 0
3, 22480, Note_on_c, 0, 60, 29
3, 22560, Note_on_c, 0, 60, 0
3, 22560, Note_on_c, 0, 53, 35
3, 22640, Note_on_c, 0, 53, 0
3, 22640, Note_on_c, 0, 57, 27
3, 22720, Note_on_c, 0, 57, 0
3, 22720, Note_on_c, 0, 60, 27
3, 22800, Note_on_c, 0, 60, 0
3, 22800, Note_on_c, 0, 53, 32
3, 22880, Note_on_c, 0, 53, 0
3, 22880, Note_on_c, 0, 57, 27
3, 22960, Note_on_c, 0, 57, 0
3, 22960, Note_on_c, 0, 60, 27
3, 23040, Note_on_c, 0, 60, 0
3, 23040, Note_on_c, 0, 58, 32
3, 23040, Note_on_c, 0, 62, 40
3, 23280, Note_on_c, 0, 62, 0
3, 23280, Note_on_c, 0, 58, 0
3, 23520, Note_on_c, 0, 57, 30
3, 23520, Note_on_c, 0, 48, 24
3, 24000, Note_on_c, 0, 57, 0
3, 24000, Note_on_c, 0, 58, 27
3, 24480, Note_on_c, 0, 58, 0
3, 24480, Note_on_c, 0, 48, 0
3, 24480, Note_on_c, 0, 53, 40
3, 24560, Note_on_c, 0, 53, 0
3, 24560, Note_on_c, 0, 57, 40
3, 24640, Note_on_c, 0, 57, 0
3, 24640, Note_on_c, 0, 55, 37
3, 24720, Note_on_c, 0, 55, 0
3, 24720, Note_on_c, 0, 53, 40
3, 24800, Note_on_c, 0, 53, 0
3, 24800, Note_on_c, 0, 62, 44
3, 24880, Note_on_c, 0, 62, 0
3, 24880, Note_on_c, 0, 60, 38
3, 24960, Note_on_c, 0, 60, 0
3, 24960, Note_on_c, 0, 58, 40
3, 25040, Note_on_c, 0, 58, 0
3, 25040, Note_on_c, 0, 67, 44
3, 25120, Note_on_c, 0, 67, 0
3, 25120, Note_on_c, 0, 65, 40
3, 25200, Note_on_c, 0, 65, 0
3, 25200, Note_on_c, 0, 64, 45
3, 25280, Note_on_c, 0, 64, 0
3, 25280, Note_on_c, 0, 70, 52
3, 25360, Note_on_c, 0, 70, 0
3, 25360, Note_on_c, 0, 69, 43
3, 25440, Note_on_c, 0, 69, 0
3, 25440, Note_on_c, 0, 67, 44
3, 25520, Note_on_c, 0, 67, 0
3, 25520, Note_on_c, 0, 65, 40
3, 25600, Note_on_c, 0, 65, 0
3, 25600, Note_on_c, 0, 64, 36
3, 25680, Note_on_c, 0, 64, 0
3, 25680, Note_on_c, 0, 62, 43
3, 25760, Note_on_c, 0, 62, 0
3, 25760, Note_on_c, 0, 60, 40
3, 25840, Note_on_c, 0, 60, 0
3, 25840, Note_on_c, 0, 58, 40
3, 25920, Note_on_c, 0, 58, 0
3, 25920, Note_on_c, 0, 57, 39
3, 26000, Note_on_c, 0, 57, 0
3, 26000, Note_on_c, 0, 60, 31
3, 26080, Note_on_c, 0, 60, 0
3, 26080, Note_on_c, 0, 65, 31
3, 26160, Note_on_c, 0, 65, 0
3, 26160, Note_on_c, 0, 57, 35
3, 26240, Note_on_c, 0, 57, 0
3, 26240, Note_on_c, 0, 60, 31
3, 26320, Note_on_c, 0, 60, 0
3, 26320, Note_on_c, 0, 65, 31
3, 26400, Note_on_c, 0, 65, 0
3, 26400, Note_on_c, 0, 55, 35
3, 26480, Note_on_c, 0, 55, 0
3, 26480, Note_on_c, 0, 58, 32
3, 26560, Note_on_c, 0, 58, 0
3, 26560, Note_on_c, 0, 64, 32
3, 26640, Note_on_c, 0, 64, 0
3, 26640, Note_on_c, 0, 55, 35
3, 26720, Note_on_c, 0, 55, 0
3, 26720, Note_on_c, 0, 58, 29
3, 26800, Note_on_c, 0, 58, 0
3, 26800, Note_on_c, 0, 64, 29
3, 26880, Note_on_c, 0, 64, 0
3, 26880, Note_on_c, 0, 53, 35
3, 26960, Note_on_c, 0, 53, 0
3, 26960, Note_on_c, 0, 57, 27
3, 27040, Note_on_c, 0, 57, 0
3, 27040, Note_on_c, 0, 65, 27
3, 27120, Note_on_c, 0, 65, 0
3, 27120, Note_on_c, 0, 53, 32
3, 27200, Note_on_c, 0, 53, 0
3, 27200, Note_on_c, 0, 57, 27
3, 27280, Note_on_c, 0, 57, 0
3, 27280, Note_on_c, 0, 65, 27
3, 27360, Note_on_c, 0, 65, 0
3, 27360, Note_on_c, 0, 58, 32
3, 27360, Note_on_c, 0, 62, 40
3, 27840, Note_on_c, 0, 62, 0
3, 27840, Note_on_c, 0, 58, 0
3, 27840, Note_on_c, 0, 57, 30
3, 27840, Note_on_c, 0, 48, 24
3, 28320, Note_on_c, 0, 57, 0
3, 28320, Note_on_c, 0, 58, 27
3, 28800, Note_on_c, 0, 58, 0
3, 28800, Note_on_c, 0, 48, 0
3, 28800, Note_on_c, 0, 53, 40
3, 28880, Note_on_c, 0, 53, 0
3, 28880, Note_on_c, 0, 57, 40
3, 28960, Note_on_c, 0, 57, 0
3, 28960, Note_on_c, 0, 55, 37
3, 29040, Note_on_c, 0, 55, 0
3, 29040, Note_on_c, 0, 53, 40
3, 29120, Note_on_c, 0, 53, 0
3, 29120, Note_on_c, 0, 62, 44
3, 29200, Note_on_c, 0, 62, 0
3, 29200, Note_on_c, 0, 60, 38
3, 29280, Note_on_c, 0, 60, 0
3, 29280, Note_on_c, 0, 58, 40
3, 29360, Note_on_c, 0, 58, 0
3, 29360, Note_on_c, 0, 67, 44
3, 29440, Note_on_c, 0, 67, 0
3, 29440, Note_on_c, 0, 65, 40
3, 29520, Note_on_c, 0, 65, 0
3, 29520, Note_on_c, 0, 64, 46
3, 29600, Note_on_c, 0, 64, 0
3, 29600, Note_on_c, 0, 70, 51
3, 29680, Note_on_c, 0, 70, 0
3, 29680, Note_on_c, 0, 69, 43
3, 29760, Note_on_c, 0, 69, 0
3, 29760, Note_on_c, 0, 67, 44
3, 29840, Note_on_c, 0, 67, 0
3, 29840, Note_on_c, 0, 65, 40
3, 29920, Note_on_c, 0, 65, 0
3, 29920, Note_on_c, 0, 64, 36
3, 30000, Note_on_c, 0, 64, 0
3, 30000, Note_on_c, 0, 62, 43
3, 30080, Note_on_c, 0, 62, 0
3, 30080, Note_on_c, 0, 60, 40
3, 30160, Note_on_c, 0, 60, 0
3, 30160, Note_on_c, 0, 58, 40
3, 30240, Note_on_c, 0, 58, 0
3, 30240, Note_on_c, 0, 57, 39
3, 30320, Note_on_c, 0, 57, 0
3, 30320, Note_on_c, 0, 60, 31
3, 30400, Note_on_c, 0, 60, 0
3, 30400, Note_on_c, 0, 65, 31
3, 30480, Note_on_c, 0, 65, 0
3, 30480, Note_on_c, 0, 57, 35
3, 30560, Note_on_c, 0, 57, 0
3, 30560, Note_on_c, 0, 60, 31
3, 30640, Note_on_c, 0, 60, 0
3, 30640, Note_on_c, 0, 65, 31
3, 30720, Note_on_c, 0, 65, 0
3, 30720, Note_on_c, 0, 55, 35
3, 30800, Note_on_c, 0, 55, 0
3, 30800, Note_on_c, 0, 58, 32
3, 30880, Note_on_c, 0, 58, 0
3, 30880, Note_on_c, 0, 64, 32
3, 30960, Note_on_c, 0, 64, 0
3, 30960, Note_on_c, 0, 55, 35
3, 31040, Note_on_c, 0, 55, 0
3, 31040, Note_on_c, 0, 58, 29
3, 31120, Note_on_c, 0, 58, 0
3, 31120, Note_on_c, 0, 64, 29
3, 31200, Note_on_c, 0, 64, 0
3, 31200, Note_on_c, 0, 53, 35
3, 31280, Note_on_c, 0, 53, 0
3, 31280, Note_on_c, 0, 57, 27
3, 31360, Note_on_c, 0, 57, 0
3, 31360, Note_on_c, 0, 65, 27
3, 31440, Note_on_c, 0, 65, 0
3, 31440, Note_on_c, 0, 53, 32
3, 31520, Note_on_c, 0, 53, 0
3, 31520, Note_on_c, 0, 57, 27
3, 31600, Note_on_c, 0, 57, 0
3, 31600, Note_on_c, 0, 65, 27
3, 31680, Note_on_c, 0, 65, 0
3, 31680, Note_on_c, 0, 58, 26
3, 31680, Note_on_c, 0, 62, 36
3, 32160, Note_on_c, 0, 62, 0
3, 32160, Note_on_c, 0, 58, 0
3, 32640, Note_on_c, 0, 70, 36
3, 32640, Note_on_c, 0, 60, 27
3, 33120, Note_on_c, 0, 60, 0
3, 33120, Note_on_c, 0, 65, 27
3, 33600, Note_on_c, 0, 70, 0
3, 33600, Note_on_c, 0, 69, 27
3, 34080, Note_on_c, 0, 69, 0
3, 34080, Note_on_c, 0, 65, 0
3, 34560, Note_on_c, 0, 65, 34
3, 34560, Note_on_c, 0, 62, 28
3, 35040, Note_on_c, 0, 62, 0
3, 35040, Note_on_c, 0, 65, 0
3, 35040, Note_on_c, 0, 67, 32
3, 35040, Note_on_c, 0, 64, 27
3, 35280, Note_on_c, 0, 64, 0
3, 35280, Note_on_c, 0, 67, 0
3, 36000, Note_on_c, 0, 70, 28
3, 36000, Note_on_c, 0, 67, 28
3, 36000, Note_on_c, 0, 73, 34
3, 36000, Note_on_c, 0, 64, 28
3, 36480, Note_on_c, 0, 64, 0
3, 36480, Note_on_c, 0, 70, 0
3, 36480, Note_on_c, 0, 67, 0
3, 36480, Note_on_c, 0, 73, 0
3, 36480, Note_on_c, 0, 69, 27
3, 36480, Note_on_c, 0, 74, 32
3, 36480, Note_on_c, 0, 65, 27
3, 36720, Note_on_c, 0, 65, 0
3, 36720, Note_on_c, 0, 74, 0
3, 36720, Note_on_c, 0, 69, 0
3, 37440, Note_on_c, 0, 67, 26
3, 37680, Note_on_c, 0, 67, 0
3, 37920, Note_on_c, 0, 69, 26
3, 38160, Note_on_c, 0, 69, 0
3, 38400, Note_on_c, 0, 61, 27
3, 38400, Note_on_c, 0, 69, 32
3, 38640, Note_on_c, 0, 69, 0
3, 38640, Note_on_c, 0, 61, 0
3, 38880, Note_on_c, 0, 62, 27
3, 38880, Note_on_c, 0, 69, 32
3, 39120, Note_on_c, 0, 69, 0
3, 39120, Note_on_c, 0, 62, 0
3, 39360, Note_on_c, 0, 69, 27
3, 39360, Note_on_c, 0, 73, 32
3, 39600, Note_on_c, 0, 73, 0
3, 39600, Note_on_c, 0, 69, 0
3, 40320, Note_on_c, 0, 53, 30
3, 40320, Note_on_c, 0, 50, 25
3, 40800, Note_on_c, 0, 50, 0
3, 40800, Note_on_c, 0, 53, 0
3, 40800, Note_on_c, 0, 55, 28
3, 40800, Note_on_c, 0, 52, 24
3, 41040, Note_on_c, 0, 52, 0
3, 41040, Note_on_c, 0, 55, 0
3, 41760, Note_on_c, 0, 52, 25
3, 41760, Note_on_c, 0, 58, 25
3, 41760, Note_on_c, 0, 61, 30
3, 41760, Note_on_c, 0, 55, 25
3, 42240, Note_on_c, 0, 55, 0
3, 42240, Note_on_c, 0, 52, 0
3, 42240, Note_on_c, 0, 58, 0
3, 42240, Note_on_c, 0, 61, 0
3, 42240, Note_on_c, 0, 57, 28
3, 42240, Note_on_c, 0, 53, 24
3, 42480, Note_on_c, 0, 53, 0
3, 42480, Note_on_c, 0, 57, 0
3, 43200, Note_on_c, 0, 46, 26
3, 43200, Note_on_c, 0, 50, 26
3, 43200, Note_on_c, 0, 56, 35
3, 43680, Note_on_c, 0, 56, 0
3, 43680, Note_on_c, 0, 50, 0
3, 43680, Note_on_c, 0, 46, 0
3, 44160, Note_on_c, 0, 34, 28
3, 44400, Note_on_c, 0, 34, 0
3, 44640, Note_on_c, 0, 33, 32
3, 45120, Note_on_c, 0, 33, 0
3, 46080, Note_on_c, 0, 29, 32
3, 46080, Note_on_c, 0, 41, 32
3, 46560, Note_on_c, 0, 41, 0
3, 46560, Note_on_c, 0, 29, 0
3, 47760, Note_on_c, 0, 52, 21
3, 47760, Note_on_c, 0, 58, 27
3, 48000, Note_on_c, 0, 58, 0
3, 48000, Note_on_c, 0, 52, 0
3, 48000, Note_on_c, 0, 52, 21
3, 48000, Note_on_c, 0, 58, 27
3, 48240, Note_on_c, 0, 58, 0
3, 48240, Note_on_c, 0, 52, 0
3, 48240, Note_on_c, 0, 52, 21
3, 48240, Note_on_c, 0, 58, 27
3, 48480, Note_on_c, 0, 58, 0
3, 48480, Note_on_c, 0, 52, 0
3, 48480, Note_on_c, 0, 58, 29
3, 48480, Note_on_c, 0, 52, 23
3, 48720, Note_on_c, 0, 52, 0
3, 48720, Note_on_c, 0, 58, 0
3, 48720, Note_on_c, 0, 52, 21
3, 48720, Note_on_c, 0, 58, 27
3, 48960, Note_on_c, 0, 58, 0
3, 48960, Note_on_c, 0, 52, 0
3, 48960, Note_on_c, 0, 53, 32
3, 48960, Note_on_c, 0, 57, 32
3, 49440, Note_on_c, 0, 57, 0
3, 49440, Note_on_c, 0, 53, 0
3, 50640, Note_on_c, 0, 51, 21
3, 50640, Note_on_c, 0, 57, 27
3, 50880, Note_on_c, 0, 57, 0
3, 50880, Note_on_c, 0, 51, 0
3, 50880, Note_on_c, 0, 51, 21
3, 50880, Note_on_c, 0, 57, 27
3, 51120, Note_on_c, 0, 57, 0
3, 51120, Note_on_c, 0, 51, 0
3, 51120, Note_on_c, 0, 51, 21
3, 51120, Note_on_c, 0, 57, 27
3, 51360, Note_on_c, 0, 57, 0
3, 51360, Note_on_c, 0, 51, 0
3, 51360, Note_on_c, 0, 57, 29
3, 51360, Note_on_c, 0, 51, 23
3, 51600, Note_on_c, 0, 51, 0
3, 51600, Note_on_c, 0, 57, 0
3, 51600, Note_on_c, 0, 51, 21
3, 51600, Note_on_c, 0, 57, 27
3, 51840, Note_on_c, 0, 57, 0
3, 51840, Note_on_c, 0, 51, 0
3, 52080, Note_on_c, 0, 50, 21
3, 52080, Note_on_c, 0, 53, 27
3, 52320, Note_on_c, 0, 53, 0
3, 52320, Note_on_c, 0, 50, 0
3, 52320, Note_on_c, 0, 50, 23
3, 52320, Note_on_c, 0, 53, 29
3, 52560, Note_on_c, 0, 53, 0
3, 52560, Note_on_c, 0, 50, 0
3, 52560, Note_on_c, 0, 50, 21
3, 52560, Note_on_c, 0, 53, 27
3, 52800, Note_on_c, 0, 53, 0
3, 52800, Note_on_c, 0, 50, 0
3, 52800, Note_on_c, 0, 50, 23
3, 52800, Note_on_c, 0, 53, 29
3, 53040, Note_on_c, 0, 53, 0
3, 53040, Note_on_c, 0, 50, 0
3, 53280, Note_on_c, 0, 48, 27
3, 53360, Note_on_c, 0, 48, 0
3, 53360, Note_on_c, 0, 52, 25
3, 53440, Note_on_c, 0, 52, 0
3, 53440, Note_on_c, 0, 55, 25
3, 53520, Note_on_c, 0, 55, 0
3, 53520, Note_on_c, 0, 48, 27
3, 53600, Note_on_c, 0, 48, 0
3, 53600, Note_on_c, 0, 52, 25
3, 53680, Note_on_c, 0, 52, 0
3, 53680, Note_on_c, 0, 55, 25
3, 53760, Note_on_c, 0, 55, 0
3, 53760, Note_on_c, 0, 48, 27
3, 53840, Note_on_c, 0, 48, 0
3, 53840, Note_on_c, 0, 52, 25
3, 53920, Note_on_c, 0, 52, 0
3, 53920, Note_on_c, 0, 55, 25
3, 54000, Note_on_c, 0, 55, 0
3, 54000, Note_on_c, 0, 48, 27
3, 54080, Note_on_c, 0, 48, 0
3, 54080, Note_on_c, 0, 52, 25
3, 54160, Note_on_c, 0, 52, 0
3, 54160, Note_on_c, 0, 55, 25
3, 54240, Note_on_c, 0, 55, 0
3, 54240, Note_on_c, 0, 48, 27
3, 54320, Note_on_c, 0, 48, 0
3, 54320, Note_on_c, 0, 53, 25
3, 54400, Note_on_c, 0, 53, 0
3, 54400, Note_on_c, 0, 57, 25
3, 54480, Note_on_c, 0, 57, 0
3, 54480, Note_on_c, 0, 48, 27
3, 54560, Note_on_c, 0, 48, 0
3, 54560, Note_on_c, 0, 53, 25
3, 54640, Note_on_c, 0, 53, 0
3, 54640, Note_on_c, 0, 57, 25
3, 54720, Note_on_c, 0, 57, 0
3, 54720, Note_on_c, 0, 46, 31
3, 54800, Note_on_c, 0, 46, 0
3, 54800, Note_on_c, 0, 53, 25
3, 54880, Note_on_c, 0, 53, 0
3, 54880, Note_on_c, 0, 57, 29
3, 54960, Note_on_c, 0, 57, 0
3, 54960, Note_on_c, 0, 46, 32
3, 55040, Note_on_c, 0, 46, 0
3, 55040, Note_on_c, 0, 53, 35
3, 55120, Note_on_c, 0, 53, 0
3, 55120, Note_on_c, 0, 57, 38
3, 55200, Note_on_c, 0, 57, 0
3, 55200, Note_on_c, 0, 46, 42
3, 55280, Note_on_c, 0, 46, 0
3, 55280, Note_on_c, 0, 53, 37
3, 55360, Note_on_c, 0, 53, 0
3, 55360, Note_on_c, 0, 55, 37
3, 55440, Note_on_c, 0, 55, 0
3, 55440, Note_on_c, 0, 46, 42
3, 55520, Note_on_c, 0, 46, 0
3, 55520, Note_on_c, 0, 53, 35
3, 55600, Note_on_c, 0, 53, 0
3, 55600, Note_on_c, 0, 55, 36
3, 55680, Note_on_c, 0, 55, 0
3, 55680, Note_on_c, 0, 47, 43
3, 55760, Note_on_c, 0, 47, 0
3, 55760, Note_on_c, 0, 50, 35
3, 55840, Note_on_c, 0, 50, 0
3, 55840, Note_on_c, 0, 55, 35
3, 55920, Note_on_c, 0, 55, 0
3, 55920, Note_on_c, 0, 47, 41
3, 56000, Note_on_c, 0, 47, 0
3, 56000, Note_on_c, 0, 50, 34
3, 56080, Note_on_c, 0, 50, 0
3, 56080, Note_on_c, 0, 55, 34
3, 56160, Note_on_c, 0, 55, 0
3, 56160, Note_on_c, 0, 48, 39
3, 56240, Note_on_c, 0, 48, 0
3, 56240, Note_on_c, 0, 52, 31
3, 56320, Note_on_c, 0, 52, 0
3, 56320, Note_on_c, 0, 55, 31
3, 56400, Note_on_c, 0, 55, 0
3, 56400, Note_on_c, 0, 48, 35
3, 56480, Note_on_c, 0, 48, 0
3, 56480, Note_on_c, 0, 52, 31
3, 56560, Note_on_c, 0, 52, 0
3, 56560, Note_on_c, 0, 55, 31
3, 56640, Note_on_c, 0, 55, 0
3, 56640, Note_on_c, 0, 52, 35
3, 56720, Note_on_c, 0, 52, 0
3, 56720, Note_on_c, 0, 55, 32
3, 56800, Note_on_c, 0, 55, 0
3, 56800, Note_on_c, 0, 60, 32
3, 56880, Note_on_c, 0, 60, 0
3, 56880, Note_on_c, 0, 52, 35
3, 56960, Note_on_c, 0, 52, 0
3, 56960, Note_on_c, 0, 55, 29
3, 57040, Note_on_c, 0, 55, 0
3, 57040, Note_on_c, 0, 60, 29
3, 57120, Note_on_c, 0, 60, 0
3, 57120, Note_on_c, 0, 53, 35
3, 57200, Note_on_c, 0, 53, 0
3, 57200, Note_on_c, 0, 57, 27
3, 57280, Note_on_c, 0, 57, 0
3, 57280, Note_on_c, 0, 60, 27
3, 57360, Note_on_c, 0, 60, 0
3, 57360, Note_on_c, 0, 53, 32
3, 57440, Note_on_c, 0, 53, 0
3, 57440, Note_on_c, 0, 57, 27
3, 57520, Note_on_c, 0, 57, 0
3, 57520, Note_on_c, 0, 60, 27
3, 57600, Note_on_c, 0, 60, 0
3, 57600, Note_on_c, 0, 58, 32
3, 57600, Note_on_c, 0, 62, 40
3, 57840, Note_on_c, 0, 62, 0
3, 57840, Note_on_c, 0, 58, 0
3, 58080, Note_on_c, 0, 57, 30
3, 58080, Note_on_c, 0, 48, 24
3, 58560, Note_on_c, 0, 57, 0
3, 58560, Note_on_c, 0, 58, 27
3, 59040, Note_on_c, 0, 58, 0
3, 59040, Note_on_c, 0, 48, 0
3, 59040, Note_on_c, 0, 53, 40
3, 59120, Note_on_c, 0, 53, 0
3, 59120, Note_on_c, 0, 57, 40
3, 59200, Note_on_c, 0, 57, 0
3, 59200, Note_on_c, 0, 55, 37
3, 59280, Note_on_c, 0, 55, 0
3, 59280, Note_on_c, 0, 53, 40
3, 59360, Note_on_c, 0, 53, 0
3, 59360, Note_on_c, 0, 62, 44
3, 59440, Note_on_c, 0, 62, 0
3, 59440, Note_on_c, 0, 60, 38
3, 59520, Note_on_c, 0, 60, 0
3, 59520, Note_on_c, 0, 58, 40
3, 59600, Note_on_c, 0, 58, 0
3, 59600, Note_on_c, 0, 67, 44
3, 59680, Note_on_c, 0, 67, 0
3, 59680, Note_on_c, 0, 65, 40
3, 59760, Note_on_c, 0, 65, 0
3, 59760, Note_on_c, 0, 64, 45
3, 59840, Note_on_c, 0, 64, 0
3, 59840, Note_on_c, 0, 70, 52
3, 59920, Note_on_c, 0, 70, 0
3, 59920, Note_on_c, 0, 69, 43
3, 60000, Note_on_c, 0, 69, 0
3, 60000, Note_on_c, 0, 67, 44
3, 60080, Note_on_c, 0, 67, 0
3, 60080, Note_on_c, 0, 65, 40
3, 60160, Note_on_c, 0, 65, 0
3, 60160, Note_on_c, 0, 64, 36
3, 60240, Note_on_c, 0, 64, 0
3, 60240, Note_on_c, 0, 62, 43
3, 60320, Note_on_c, 0, 62, 0
3, 60320, Note_on_c, 0, 60, 40
3, 60400, Note_on_c, 0, 60, 0
3, 60400, Note_on_c, 0, 58, 40
3, 60480, Note_on_c, 0, 58, 0
3, 60480, Note_on_c, 0, 57, 39
3, 60560, Note_on_c, 0, 57, 0
3, 60560, Note_on_c, 0, 60, 31
3, 60640, Note_on_c, 0, 60, 0
3, 60640, Note_on_c, 0, 65, 31
3, 60720, Note_on_c, 0, 65, 0
3, 60720, Note_on_c, 0, 57, 35
3, 60800, Note_on_c, 0, 57, 0
3, 60800, Note_on_c, 0, 60, 31
3, 60880, Note_on_c, 0, 60, 0
3, 60880, Note_on_c, 0, 65, 31
3, 60960, Note_on_c, 0, 65, 0
3, 60960, Note_on_c, 0, 55, 35
3, 61040, Note_on_c, 0, 55, 0
3, 61040, Note_on_c, 0, 58, 32
3, 61120, Note_on_c, 0, 58, 0
3, 61120, Note_on_c, 0, 64, 32
3, 61200, Note_on_c, 0, 64, 0
3, 61200, Note_on_c, 0, 55, 35
3, 61280, Note_on_c, 0, 55, 0
3, 61280, Note_on_c, 0, 58, 29
3, 61360, Note_on_c, 0, 58, 0
3, 61360, Note_on_c, 0, 64, 29
3, 61440, Note_on_c, 0, 64, 0
3, 61440, Note_on_c, 0, 53, 35
3, 61520, Note_on_c, 0, 53, 0
3, 61520, Note_on_c, 0, 57, 27
3, 61600, Note_on_c, 0, 57, 0
3, 61600, Note_on_c, 0, 65, 27
3, 61680, Note_on_c, 0, 65, 0
3, 61680, Note_on_c, 0, 53, 32
3, 61760, Note_on_c, 0, 53, 0
3, 61760, Note_on_c, 0, 57, 27
3, 61840, Note_on_c, 0, 57, 0
3, 61840, Note_on_c, 0, 65, 27
3, 61920, Note_on_c, 0, 65, 0
3, 61920, Note_on_c, 0, 58, 32
3, 61920, Note_on_c, 0, 62, 40
3, 62400, Note_on_c, 0, 62, 0
3, 62400, Note_on_c, 0, 58, 0
3, 62400, Note_on_c, 0, 57, 30
3, 62400, Note_on_c, 0, 48, 24
3, 62880, Note_on_c, 0, 57, 0
3, 62880, Note_on_c, 0, 58, 27
3, 63360, Note_on_c, 0, 58, 0
3, 63360, Note_on_c, 0, 48, 0
3, 63360, Note_on_c, 0, 53, 40
3, 63440, Note_on_c, 0, 53, 0
3, 63440, Note_on_c, 0, 57, 40
3, 63520, Note_on_c, 0, 57, 0
3, 63520, Note_on_c, 0, 55, 37
3, 63600, Note_on_c, 0, 55, 0
3, 63600, Note_on_c, 0, 53, 40
3, 63680, Note_on_c, 0, 53, 0
3, 63680, Note_on_c, 0, 62, 44
3, 63760, Note_on_c, 0, 62, 0
3, 63760, Note_on_c, 0, 60, 38
3, 63840, Note_on_c, 0, 60, 0
3, 63840, Note_on_c, 0, 58, 40
3, 63920, Note_on_c, 0, 58, 0
3, 63920, Note_on_c, 0, 67, 44
3, 64000, Note_on_c, 0, 67, 0
3, 64000, Note_on_c, 0, 65, 40
3, 64080, Note_on_c, 0, 65, 0
3, 64080, Note_on_c, 0, 64, 46
3, 64160, Note_on_c, 0, 64, 0
3, 64160, Note_on_c, 0, 70, 51
3, 64240, Note_on_c, 0, 70, 0
3, 64240, Note_on_c, 0, 69, 43
3, 64320, Note_on_c, 0, 69, 0
3, 64320, Note_on_c, 0, 67, 44
3, 64400, Note_on_c, 0, 67, 0
3, 64400, Note_on_c, 0, 65, 40
3, 64480, Note_on_c, 0, 65, 0
3, 64480, Note_on_c, 0, 64, 36
3, 64560, Note_on_c, 0, 64, 0
3, 64560, Note_on_c, 0, 62, 43
3, 64640, Note_on_c, 0, 62, 0
3, 64640, Note_on_c, 0, 60, 40
3, 64720, Note_on_c, 0, 60, 0
3, 64720, Note_on_c, 0, 58, 40
3, 64800, Note_on_c, 0, 58, 0
3, 64800, Note_on_c, 0, 57, 39
3, 64880, Note_on_c, 0, 57, 0
3, 64880, Note_on_c, 0, 60, 31
3, 64960, Note_on_c, 0, 60, 0
3, 64960, Note_on_c, 0, 65, 31
3, 65040, Note_on_c, 0, 65, 0
3, 65040, Note_on_c, 0, 57, 35
3, 65120, Note_on_c, 0, 57, 0
3, 65120, Note_on_c, 0, 60, 31
3, 65200, Note_on_c, 0, 60, 0
3, 65200, Note_on_c, 0, 65, 31
3, 65280, Note_on_c, 0, 65, 0
3, 65280, Note_on_c, 0, 55, 35
3, 65360, Note_on_c, 0, 55, 0
3, 65360, Note_on_c, 0, 58, 32
3, 65440, Note_on_c, 0, 58, 0
3, 65440, Note_on_c, 0, 64, 32
3, 65520, Note_on_c, 0, 64, 0
3, 65520, Note_on_c, 0, 55, 35
3, 65600, Note_on_c, 0, 55, 0
3, 65600, Note_on_c, 0, 58, 29
3, 65680, Note_on_c, 0, 58, 0
3, 65680, Note_on_c, 0, 64, 29
3, 65760, Note_on_c, 0, 64, 0
3, 65760, Note_on_c, 0, 53, 35
3, 65840, Note_on_c, 0, 53, 0
3, 65840, Note_on_c, 0, 57, 27
3, 65920, Note_on_c, 0, 57, 0
3, 65920, Note_on_c, 0, 65, 27
3, 66000, Note_on_c, 0, 65, 0
3, 66000, Note_on_c, 0, 53, 32
3, 66080, Note_on_c, 0, 53, 0
3, 66080, Note_on_c, 0, 57, 27
3, 66160, Note_on_c, 0, 57, 0
3, 66160, Note_on_c, 0, 65, 27
3, 66240, Note_on_c, 0, 65, 0
3, 66240, Note_on_c, 0, 58, 26
3, 66240, Note_on_c, 0, 62, 36
3, 66720, Note_on_c, 0, 62, 0
3, 66720, Note_on_c, 0, 58, 0
3, 67200, Note_on_c, 0, 70, 36
3, 67200, Note_on_c, 0, 60, 27
3, 67680, Note_on_c, 0, 60, 0
3, 67680, Note_on_c, 0, 65, 27
3, 68160, Note_on_c, 0, 70, 0
3, 68160, Note_on_c, 0, 69, 27
3, 68640, Note_on_c, 0, 69, 0
3, 68640, Note_on_c, 0, 65, 0
3, 69120, Note_on_c, 0, 57, 34
3, 69120, Note_on_c, 0, 53, 28
3, 69600, Note_on_c, 0, 53, 0
3, 69600, Note_on_c, 0, 57, 0
3, 69600, Note_on_c, 0, 58, 32
3, 69600, Note_on_c, 0, 55, 27
3, 69840, Note_on_c, 0, 55, 0
3, 69840, Note_on_c, 0, 58, 0
3, 71040, Note_on_c, 0, 60, 24
3, 71040, Note_on_c, 0, 63, 28
3, 71040, Note_on_c, 0, 57, 24
3, 71280, Note_on_c, 0, 57, 0
3, 71280, Note_on_c, 0, 63, 0
3, 71280, Note_on_c, 0, 60, 0
3, 72000, Note_on_c, 0, 58, 42
3, 72080, Note_on_c, 0, 58, 0
3, 72080, Note_on_c, 0, 62, 39
3, 72160, Note_on_c, 0, 62, 0
3, 72160, Note_on_c, 0, 67, 39
3, 72240, Note_on_c, 0, 67, 0
3, 73440, Note_on_c, 0, 60, 27
3, 73520, Note_on_c, 0, 60, 0
3, 73520, Note_on_c, 0, 67, 25
3, 73600, Note_on_c, 0, 67, 0
3, 73600, Note_on_c, 0, 70, 25
3, 73680, Note_on_c, 0, 70, 0
3, 73680, Note_on_c, 0, 60, 27
3, 73760, Note_on_c, 0, 60, 0
3, 73760, Note_on_c, 0, 67, 25
3, 73840, Note_on_c, 0, 67, 0
3, 73840, Note_on_c, 0, 70, 25
3, 73920, Note_on_c, 0, 70, 0
3, 73920, Note_on_c, 0, 60, 27
3, 74000, Note_on_c, 0, 60, 0
3, 74000, Note_on_c, 0, 67, 25
3, 74080, Note_on_c, 0, 67, 0
3, 74080, Note_on_c, 0, 70, 25
3, 74160, Note_on_c, 0, 70, 0
3, 74160, Note_on_c, 0, 60, 27
3, 74240, Note_on_c, 0, 60, 0
3, 74240, Note_on_c, 0, 67, 25
3, 74320, Note_on_c, 0, 67, 0
3, 74320, Note_on_c, 0, 70, 25
3, 74400, Note_on_c, 0, 70, 0
3, 74400, Note_on_c, 0, 60, 27
3, 74480, Note_on_c, 0, 60, 0
3, 74480, Note_on_c, 0, 67, 25
3, 74560, Note_on_c, 0, 67, 0
3, 74560, Note_on_c, 0, 70, 25
3, 74640, Note_on_c, 0, 70, 0
3, 74640, Note_on_c, 0, 60, 27
3, 74720, Note_on_c, 0, 60, 0
3, 74720, Note_on_c, 0, 67, 25
3, 74800, Note_on_c, 0, 67, 0
3, 74800, Note_on_c, 0, 70, 25
3, 74870, Note_on_c, 0, 70, 0
3, 74880, Note_on_c, 0, 65, 23
3, 74880, Note_on_c, 0, 70, 36
3, 75360, Note_on_c, 0, 70, 0
3, 75360, Note_on_c, 0, 69, 27
3, 76320, Note_on_c, 0, 69, 0
3, 76320, Note_on_c, 0, 65, 0
3, 76320, Note_on_c, 0, 58, 26
3, 76400, Note_on_c, 0, 58, 0
3, 76400, Note_on_c, 0, 65, 22
3, 76480, Note_on_c, 0, 65, 0
3, 76480, Note_on_c, 0, 69, 22
3, 76560, Note_on_c, 0, 69, 0
3, 76560, Note_on_c, 0, 58, 27
3, 76640, Note_on_c, 0, 58, 0
3, 76640, Note_on_c, 0, 65, 25
3, 76720, Note_on_c, 0, 65, 0
3, 76720, Note_on_c, 0, 69, 25
3, 76800, Note_on_c, 0, 69, 0
3, 76800, Note_on_c, 0, 58, 27
3, 76880, Note_on_c, 0, 58, 0
3, 76880, Note_on_c, 0, 65, 25
3, 76960, Note_on_c, 0, 65, 0
3, 76960, Note_on_c, 0, 67, 25
3, 77040, Note_on_c, 0, 67, 0
3, 77040, Note_on_c, 0, 58, 27
3, 77120, Note_on_c, 0, 58, 0
3, 77120, Note_on_c, 0, 65, 25
3, 77200, Note_on_c, 0, 65, 0
3, 77200, Note_on_c, 0, 67, 25
3, 77280, Note_on_c, 0, 67, 0
3, 77280, Note_on_c, 0, 58, 27
3, 77360, Note_on_c, 0, 58, 0
3, 77360, Note_on_c, 0, 65, 25
3, 77440, Note_on_c, 0, 65, 0
3, 77440, Note_on_c, 0, 67, 25
3, 77520, Note_on_c, 0, 67, 0
3, 77520, Note_on_c, 0, 58, 30
3, 77600, Note_on_c, 0, 58, 0
3, 77600, Note_on_c, 0, 65, 26
3, 77680, Note_on_c, 0, 65, 0
3, 77680, Note_on_c, 0, 67, 29
3, 77750, Note_on_c, 0, 67, 0
3, 77760, Note_on_c, 0, 57, 37
3, 77840, Note_on_c, 0, 57, 0
3, 77840, Note_on_c, 0, 64, 31
3, 77920, Note_on_c, 0, 64, 0
3, 77920, Note_on_c, 0, 67, 31
3, 78000, Note_on_c, 0, 67, 0
3, 78000, Note_on_c, 0, 57, 37
3, 78080, Note_on_c, 0, 57, 0
3, 78080, Note_on_c, 0, 64, 31
3, 78160, Note_on_c, 0, 64, 0
3, 78160, Note_on_c, 0, 67, 31
3, 78240, Note_on_c, 0, 67, 0
3, 78240, Note_on_c, 0, 61, 39
3, 78320, Note_on_c, 0, 61, 0
3, 78320, Note_on_c, 0, 64, 33
3, 78400, Note_on_c, 0, 64, 0
3, 78400, Note_on_c, 0, 69, 33
3, 78480, Note_on_c, 0, 69, 0
3, 78480, Note_on_c, 0, 61, 39
3, 78560, Note_on_c, 0, 61, 0
3, 78560, Note_on_c, 0, 64, 31
3, 78640, Note_on_c, 0, 64, 0
3, 78640, Note_on_c, 0, 69, 30
3, 78720, Note_on_c, 0, 69, 0
3, 78720, Note_on_c, 0, 62, 37
3, 78800, Note_on_c, 0, 62, 0
3, 78800, Note_on_c, 0, 65, 30
3, 78880, Note_on_c, 0, 65, 0
3, 78880, Note_on_c, 0, 69, 30
3, 78960, Note_on_c, 0, 69, 0
3, 78960, Note_on_c, 0, 62, 33
3, 79040, Note_on_c, 0, 62, 0
3, 79040, Note_on_c, 0, 65, 25
3, 79120, Note_on_c, 0, 65, 0
3, 79120, Note_on_c, 0, 69, 25
3, 79190, Note_on_c, 0, 69, 0
3, 79200, Note_on_c, 0, 57, 34
3, 79280, Note_on_c, 0, 57, 0
3, 79280, Note_on_c, 0, 61, 27
3, 79360, Note_on_c, 0, 61, 0
3, 79360, Note_on_c, 0, 64, 27
3, 79440, Note_on_c, 0, 64, 0
3, 79440, Note_on_c, 0, 69, 29
3, 79520, Note_on_c, 0, 69, 0
3, 79520, Note_on_c, 0, 64, 27
3, 79600, Note_on_c, 0, 64, 0
3, 79600, Note_on_c, 0, 61, 27
3, 79680, Note_on_c, 0, 61, 0
3, 79680, Note_on_c, 0, 57, 33
3, 79920, Note_on_c, 0, 57, 0
3, 80160, Note_on_c, 0, 57, 46
3, 80240, Note_on_c, 0, 57, 0
3, 80240, Note_on_c, 0, 58, 39
3, 80320, Note_on_c, 0, 58, 0
3, 80320, Note_on_c, 0, 57, 39
3, 80400, Note_on_c, 0, 57, 0
3, 80400, Note_on_c, 0, 55, 44
3, 80480, Note_on_c, 0, 55, 0
3, 80480, Note_on_c, 0, 53, 35
3, 80560, Note_on_c, 0, 53, 0
3, 80560, Note_on_c, 0, 52, 37
3, 80640, Note_on_c, 0, 52, 0
3, 80640, Note_on_c, 0, 50, 48
3, 80880, Note_on_c, 0, 50, 0
3, 81120, Note_on_c, 0, 52, 34
3, 81120, Note_on_c, 0, 55, 34
3, 81120, Note_on_c, 0, 58, 34
3, 81600, Note_on_c, 0, 58, 0
3, 81600, Note_on_c, 0, 55, 0
3, 81600, Note_on_c, 0, 52, 0
3, 82080, Note_on_c, 0, 73, 40
3, 82080, Note_on_c, 0, 70, 32
3, 82080, Note_on_c, 0, 67, 32
3, 82080, Note_on_c, 0, 64, 32
3, 82560, Note_on_c, 0, 64, 0
3, 82560, Note_on_c, 0, 73, 0
3, 82560, Note_on_c, 0, 70, 0
3, 82560, Note_on_c, 0, 67, 0
3, 82560, Note_on_c, 0, 74, 40
3, 82560, Note_on_c, 0, 69, 32
3, 82560, Note_on_c, 0, 65, 32
3, 83040, Note_on_c, 0, 65, 0
3, 83040, Note_on_c, 0, 69, 0
3, 83040, Note_on_c, 0, 74, 0
3, 83400, Note_on_c, 0, 66, 38
3, 83520, Note_on_c, 0, 66, 0
3, 83520, Note_on_c, 0, 67, 26
3, 83760, Note_on_c, 0, 67, 0
3, 83880, Note_on_c, 0, 70, 37
3, 84000, Note_on_c, 0, 70, 0
3, 84000, Note_on_c, 0, 69, 26
3, 84240, Note_on_c, 0, 69, 0
3, 84360, Note_on_c, 0, 61, 35
3, 84480, Note_on_c, 0, 61, 0
3, 84480, Note_on_c, 0, 57, 32
3, 84720, Note_on_c, 0, 57, 0
3, 84840, Note_on_c, 0, 61, 29
3, 84840, Note_on_c, 0, 69, 37
3, 84960, Note_on_c, 0, 69, 0
3, 84960, Note_on_c, 0, 61, 0
3, 84960, Note_on_c, 0, 62, 27
3, 84960, Note_on_c, 0, 69, 32
3, 85200, Note_on_c, 0, 69, 0
3, 85200, Note_on_c, 0, 62, 0
3, 85440, Note_on_c, 0, 69, 27
3, 85440, Note_on_c, 0, 73, 32
3, 85680, Note_on_c, 0, 73, 0
3, 85680, Note_on_c, 0, 69, 0
3, 86480, Note_on_c, 0, 61, 40
3, 86560, Note_on_c, 0, 61, 0
3, 86560, Note_on_c, 0, 58, 37
3, 86640, Note_on_c, 0, 58, 0
3, 86640, Note_on_c, 0, 57, 40
3, 86720, Note_on_c, 0, 57, 0
3, 86720, Note_on_c, 0, 64, 44
3, 86800, Note_on_c, 0, 64, 0
3, 86800, Note_on_c, 0, 62, 38
3, 86880, Note_on_c, 0, 62, 0
3, 86880, Note_on_c, 0, 61, 40
3, 86960, Note_on_c, 0, 61, 0
3, 86960, Note_on_c, 0, 67, 44
3, 87040, Note_on_c, 0, 67, 0
3, 87040, Note_on_c, 0, 65, 40
3, 87120, Note_on_c, 0, 65, 0
3, 87120, Note_on_c, 0, 64, 45
3, 87360, Note_on_c, 0, 64, 0
3, 87920, Note_on_c, 0, 66, 40
3, 88000, Note_on_c, 0, 66, 0
3, 88000, Note_on_c, 0, 64, 37
3, 88080, Note_on_c, 0, 64, 0
3, 88080, Note_on_c, 0, 62, 40
3, 88160, Note_on_c, 0, 62, 0
3, 88160, Note_on_c, 0, 69, 44
3, 88240, Note_on_c, 0, 69, 0
3, 88240, Note_on_c, 0, 67, 38
3, 88320, Note_on_c, 0, 67, 0
3, 88320, Note_on_c, 0, 66, 40
3, 88400, Note_on_c, 0, 66, 0
3, 88400, Note_on_c, 0, 72, 44
3, 88480, Note_on_c, 0, 72, 0
3, 88480, Note_on_c, 0, 70, 40
3, 88560, Note_on_c, 0, 70, 0
3, 88560, Note_on_c, 0, 69, 39
3, 88800, Note_on_c, 0, 69, 0
3, 89280, Note_on_c, 0, 55, 31
3, 89360, Note_on_c, 0, 55, 0
3, 89360, Note_on_c, 0, 58, 25
3, 89440, Note_on_c, 0, 58, 0
3, 89440, Note_on_c, 0, 63, 29
3, 89520, Note_on_c, 0, 63, 0
3, 89520, Note_on_c, 0, 55, 32
3, 89600, Note_on_c, 0, 55, 0
3, 89600, Note_on_c, 0, 58, 35
3, 89680, Note_on_c, 0, 58, 0
3, 89680, Note_on_c, 0, 63, 38
3, 89760, Note_on_c, 0, 63, 0
3, 89760, Note_on_c, 0, 55, 42
3, 89840, Note_on_c, 0, 55, 0
3, 89840, Note_on_c, 0, 58, 37
3, 89920, Note_on_c, 0, 58, 0
3, 89920, Note_on_c, 0, 63, 37
3, 90000, Note_on_c, 0, 63, 0
3, 90000, Note_on_c, 0, 55, 42
3, 90080, Note_on_c, 0, 55, 0
3, 90080, Note_on_c, 0, 58, 35
3, 90160, Note_on_c, 0, 58, 0
3, 90160, Note_on_c, 0, 63, 36
3, 90240, Note_on_c, 0, 63, 0
3, 90240, Note_on_c, 0, 56, 43
3, 90320, Note_on_c, 0, 56, 0
3, 90320, Note_on_c, 0, 62, 35
3, 90400, Note_on_c, 0, 62, 0
3, 90400, Note_on_c, 0, 65, 35
3, 90480, Note_on_c, 0, 65, 0
3, 90480, Note_on_c, 0, 56, 41
3, 90560, Note_on_c, 0, 56, 0
3, 90560, Note_on_c, 0, 62, 34
3, 90640, Note_on_c, 0, 62, 0
3, 90640, Note_on_c, 0, 65, 34
3, 90720, Note_on_c, 0, 65, 0
3, 90720, Note_on_c, 0, 57, 31
3, 90800, Note_on_c, 0, 57, 0
3, 90800, Note_on_c, 0, 64, 25
3, 90880, Note_on_c, 0, 64, 0
3, 90880, Note_on_c, 0, 67, 29
3, 90960, Note_on_c, 0, 67, 0
3, 90960, Note_on_c, 0, 57, 32
3, 91040, Note_on_c, 0, 57, 0
3, 91040, Note_on_c, 0, 64, 35
3, 91120, Note_on_c, 0, 64, 0
3, 91120, Note_on_c, 0, 69, 38
3, 91200, Note_on_c, 0, 69, 0
3, 91200, Note_on_c, 0, 61, 42
3, 91280, Note_on_c, 0, 61, 0
3, 91280, Note_on_c, 0, 64, 37
3, 91360, Note_on_c, 0, 64, 0
3, 91360, Note_on_c, 0, 69, 37
3, 91440, Note_on_c, 0, 69, 0
3, 91440, Note_on_c, 0, 61, 42
3, 91520, Note_on_c, 0, 61, 0
3, 91520, Note_on_c, 0, 64, 35
3, 91600, Note_on_c, 0, 64, 0
3, 91600, Note_on_c, 0, 69, 36
3, 91680, Note_on_c, 0, 69, 0
3, 91680, Note_on_c, 0, 62, 43
3, 91760, Note_on_c, 0, 62, 0
3, 91760, Note_on_c, 0, 65, 35
3, 91840, Note_on_c, 0, 65, 0
3, 91840, Note_on_c, 0, 69, 35
3, 91920, Note_on_c, 0, 69, 0
3, 91920, Note_on_c, 0, 62, 41
3, 92000, Note_on_c, 0, 62, 0
3, 92000, Note_on_c, 0, 65, 34
3, 92080, Note_on_c, 0, 65, 0
3, 92080, Note_on_c, 0, 69, 34
3, 92160, Note_on_c, 0, 69, 0
3, 92160, Note_on_c, 0, 58, 40
3, 92640, Note_on_c, 0, 58, 0
3, 92640, Note_on_c, 0, 65, 30
3, 92640, Note_on_c, 0, 57, 24
3, 93120, Note_on_c, 0, 65, 0
3, 93120, Note_on_c, 0, 67, 27
3, 93600, Note_on_c, 0, 67, 0
3, 93600, Note_on_c, 0, 57, 0
3, 93600, Note_on_c, 0, 62, 31
3, 93680, Note_on_c, 0, 62, 0
3, 93680, Note_on_c, 0, 69, 25
3, 93760, Note_on_c, 0, 69, 0
3, 93760, Note_on_c, 0, 72, 29
3, 93840, Note_on_c, 0, 72, 0
3, 93840, Note_on_c, 0, 62, 32
3, 93920, Note_on_c, 0, 62, 0
3, 93920, Note_on_c, 0, 69, 35
3, 94000, Note_on_c, 0, 69, 0
3, 94000, Note_on_c, 0, 72, 38
3, 94080, Note_on_c, 0, 72, 0
3, 94080, Note_on_c, 0, 62, 42
3, 94160, Note_on_c, 0, 62, 0
3, 94160, Note_on_c, 0, 69, 37
3, 94240, Note_on_c, 0, 69, 0
3, 94240, Note_on_c, 0, 72, 33
3, 94320, Note_on_c, 0, 72, 0
3, 94320, Note_on_c, 0, 62, 39
3, 94400, Note_on_c, 0, 62, 0
3, 94400, Note_on_c, 0, 69, 34
3, 94480, Note_on_c, 0, 69, 0
3, 94480, Note_on_c, 0, 72, 34
3, 94560, Note_on_c, 0, 72, 0
3, 94560, Note_on_c, 0, 62, 40
3, 94640, Note_on_c, 0, 62, 0
3, 94640, Note_on_c, 0, 69, 32
3, 94720, Note_on_c, 0, 69, 0
3, 94720, Note_on_c, 0, 72, 32
3, 94800, Note_on_c, 0, 72, 0
3, 94800, Note_on_c, 0, 62, 38
3, 94880, Note_on_c, 0, 62, 0
3, 94880, Note_on_c, 0, 69, 32
3, 94960, Note_on_c, 0, 69, 0
3, 94960, Note_on_c, 0, 72, 32
3, 95040, Note_on_c, 0, 72, 0
3, 95040, Note_on_c, 0, 62, 31
3, 95120, Note_on_c, 0, 62, 0
3, 95120, Note_on_c, 0, 67, 25
3, 95200, Note_on_c, 0, 67, 0
3, 95200, Note_on_c, 0, 70, 29
3, 95280, Note_on_c, 0, 70, 0
3, 95280, Note_on_c, 0, 62, 32
3, 95360, Note_on_c, 0, 62, 0
3, 95360, Note_on_c, 0, 67, 35
3, 95440, Note_on_c, 0, 67, 0
3, 95440, Note_on_c, 0, 70, 38
3, 95520, Note_on_c, 0, 70, 0
3, 95520, Note_on_c, 0, 62, 42
3, 95600, Note_on_c, 0, 62, 0
3, 95600, Note_on_c, 0, 67, 37
3, 95680, Note_on_c, 0, 67, 0
3, 95680, Note_on_c, 0, 70, 33
3, 95760, Note_on_c, 0, 70, 0
3, 95760, Note_on_c, 0, 62, 39
3, 95840, Note_on_c, 0, 62, 0
3, 95840, Note_on_c, 0, 67, 34
3, 95920, Note_on_c, 0, 67, 0
3, 95920, Note_on_c, 0, 70, 34
3, 96000, Note_on_c, 0, 70, 0
3, 96000, Note_on_c, 0, 62, 40
3, 96080, Note_on_c, 0, 62, 0
3, 96080, Note_on_c, 0, 67, 32
3, 96160, Note_on_c, 0, 67, 0
3, 96160, Note_on_c, 0, 70, 32
3, 96240, Note_on_c, 0, 70, 0
3, 96240, Note_on_c, 0, 62, 38
3, 96320, Note_on_c, 0, 62, 0
3, 96320, Note_on_c, 0, 67, 32
3, 96400, Note_on_c, 0, 67, 0
3, 96400, Note_on_c, 0, 70, 32
3, 96480, Note_on_c, 0, 70, 0
3, 96480, Note_on_c, 0, 62, 31
3, 96560, Note_on_c, 0, 62, 0
3, 96560, Note_on_c, 0, 69, 25
3, 96640, Note_on_c, 0, 69, 0
3, 96640, Note_on_c, 0, 72, 29
3, 96720, Note_on_c, 0, 72, 0
3, 96720, Note_on_c, 0, 62, 32
3, 96800, Note_on_c, 0, 62, 0
3, 96800, Note_on_c, 0, 69, 35
3, 96880, Note_on_c, 0, 69, 0
3, 96880, Note_on_c, 0, 72, 38
3, 96960, Note_on_c, 0, 72, 0
3, 96960, Note_on_c, 0, 62, 42
3, 97040, Note_on_c, 0, 62, 0
3, 97040, Note_on_c, 0, 69, 37
3, 97120, Note_on_c, 0, 69, 0
3, 97120, Note_on_c, 0, 72, 33
3, 97200, Note_on_c, 0, 72, 0
3, 97200, Note_on_c, 0, 62, 39
3, 97280, Note_on_c, 0, 62, 0
3, 97280, Note_on_c, 0, 69, 34
3, 97360, Note_on_c, 0, 69, 0
3, 97360, Note_on_c, 0, 72, 34
3, 97440, Note_on_c, 0, 72, 0
3, 97440, Note_on_c, 0, 62, 40
3, 97520, Note_on_c, 0, 62, 0
3, 97520, Note_on_c, 0, 69, 32
3, 97600, Note_on_c, 0, 69, 0
3, 97600, Note_on_c, 0, 72, 32
3, 97680, Note_on_c, 0, 72, 0
3, 97680, Note_on_c, 0, 62, 38
3, 97760, Note_on_c, 0, 62, 0
3, 97760, Note_on_c, 0, 69, 32
3, 97840, Note_on_c, 0, 69, 0
3, 97840, Note_on_c, 0, 72, 32
3, 97920, Note_on_c, 0, 72, 0
3, 99600, Note_on_c, 0, 55, 41
3, 99680, Note_on_c, 0, 55, 0
3, 99680, Note_on_c, 0, 58, 37
3, 99760, Note_on_c, 0, 58, 0
3, 99760, Note_on_c, 0, 61, 37
3, 99840, Note_on_c, 0, 61, 0
3, 99840, Note_on_c, 0, 64, 43
3, 99920, Note_on_c, 0, 64, 0
3, 100560, Note_on_c, 0, 53, 30
3, 100800, Note_on_c, 0, 53, 0
3, 100800, Note_on_c, 0, 55, 34
3, 100800, Note_on_c, 0, 43, 34
3, 101280, Note_on_c, 0, 43, 0
3, 101280, Note_on_c, 0, 55, 0
3, 101280, Note_on_c, 0, 53, 25
3, 101280, Note_on_c, 0, 45, 20
3, 101760, Note_on_c, 0, 53, 0
3, 101760, Note_on_c, 0, 55, 22
3, 102240, Note_on_c, 0, 55, 0
3, 102240, Note_on_c, 0, 45, 0
3, 102240, Note_on_c, 0, 46, 38
3, 102320, Note_on_c, 0, 46, 0
3, 102320, Note_on_c, 0, 50, 33
3, 102400, Note_on_c, 0, 50, 0
3, 102400, Note_on_c, 0, 56, 33
3, 102480, Note_on_c, 0, 56, 0
3, 102480, Note_on_c, 0, 46, 38
3, 102560, Note_on_c, 0, 46, 0
3, 102560, Note_on_c, 0, 50, 35
3, 102640, Note_on_c, 0, 50, 0
3, 102640, Note_on_c, 0, 56, 33
3, 102720, Note_on_c, 0, 56, 0
3, 102720, Note_on_c, 0, 46, 38
3, 102960, Note_on_c, 0, 46, 0
3, 103680, Note_on_c, 0, 45, 38
3, 103760, Note_on_c, 0, 45, 0
3, 103760, Note_on_c, 0, 50, 33
3, 103840, Note_on_c, 0, 50, 0
3, 103843, Note_on_c, 0, 53, 33
3, 103920, Note_on_c, 0, 45, 38
3, 103923, Note_on_c, 0, 53, 0
3, 104000, Note_on_c, 0, 45, 0
3, 104000, Note_on_c, 0, 50, 35
3, 104080, Note_on_c, 0, 50, 0
3, 104080, Note_on_c, 0, 53, 33
3, 104160, Note_on_c, 0, 53, 0
3, 104160, Note_on_c, 0, 45, 38
3, 104400, Note_on_c, 0, 45, 0
3, 105120, Note_on_c, 0, 44, 38
3, 105200, Note_on_c, 0, 44, 0
3, 105200, Note_on_c, 0, 50, 33
3, 105280, Note_on_c, 0, 50, 0
3, 105283, Note_on_c, 0, 53, 33
3, 105360, Note_on_c, 0, 44, 38
3, 105363, Note_on_c, 0, 53, 0
3, 105440, Note_on_c, 0, 44, 0
3, 105440, Note_on_c, 0, 50, 35
3, 105520, Note_on_c, 0, 50, 0
3, 105520, Note_on_c, 0, 53, 33
3, 105600, Note_on_c, 0, 53, 0
3, 105600, Note_on_c, 0, 44, 38
3, 105840, Note_on_c, 0, 44, 0
3, 107040, Note_on_c, 0, 57, 34
3, 107120, Note_on_c, 0, 57, 0
3, 107120, Note_on_c, 0, 52, 31
3, 107200, Note_on_c, 0, 52, 0
3, 107200, Note_on_c, 0, 49, 31
3, 107280, Note_on_c, 0, 49, 0
3, 107280, Note_on_c, 0, 45, 34
3, 107360, Note_on_c, 0, 45, 0
3, 107360, Note_on_c, 0, 40, 30
3, 107440, Note_on_c, 0, 40, 0
3, 107440, Note_on_c, 0, 37, 29
3, 107520, Note_on_c, 0, 37, 0
3, 107520, Note_on_c, 0, 33, 31
3, 107600, Note_on_c, 0, 33, 0
3, 107600, Note_on_c, 0, 37, 28
3, 107680, Note_on_c, 0, 37, 0
3, 107680, Note_on_c, 0, 40, 28
3, 107760, Note_on_c, 0, 40, 0
3, 107760, Note_on_c, 0, 45, 28
3, 107840, Note_on_c, 0, 45, 0
3, 107840, Note_on_c, 0, 49, 27
3, 107920, Note_on_c, 0, 49, 0
3, 107920, Note_on_c, 0, 52, 27
3, 108000, Note_on_c, 0, 52, 0
3, 108000, Note_on_c, 0, 45, 27
3, 108240, Note_on_c, 0, 45, 0
3, 108480, Note_on_c, 0, 57, 26
3, 108960, Note_on_c, 0, 57, 0
3, 108960, End_track
4, 0, Start_track
4, 0, Title_t, "Pedale"
4, 0, Program_c, 0, 0
4, 378, Control_c, 0, 64, 127
4, 491, Control_c, 0, 64, 0
4, 1793, Control_c, 0, 64, 127
4, 1932, Control_c, 0, 64, 0
4, 4595, Control_c, 0, 64, 127
4, 4807, Control_c, 0, 64, 0
4, 6053, Control_c, 0, 64, 127
4, 6251, Control_c, 0, 64, 0
4, 6787, Control_c, 0, 64, 127
4, 7200, Control_c, 0, 64, 0
4, 7491, Control_c, 0, 64, 127
4, 7696, Control_c, 0, 64, 0
4, 18766, Control_c, 0, 64, 127
4, 19699, Control_c, 0, 64, 0
4, 19740, Control_c, 0, 64, 127
4, 20167, Control_c, 0, 64, 0
4, 20195, Control_c, 0, 64, 127
4, 20655, Control_c, 0, 64, 0
4, 20683, Control_c, 0, 64, 127
4, 21136, Control_c, 0, 64, 0
4, 21175, Control_c, 0, 64, 127
4, 21616, Control_c, 0, 64, 0
4, 21646, Control_c, 0, 64, 127
4, 22093, Control_c, 0, 64, 0
4, 22133, Control_c, 0, 64, 127
4, 22582, Control_c, 0, 64, 0
4, 22624, Control_c, 0, 64, 127
4, 23050, Control_c, 0, 64, 0
4, 23079, Control_c, 0, 64, 127
4, 23532, Control_c, 0, 64, 0
4, 23587, Control_c, 0, 64, 127
4, 24014, Control_c, 0, 64, 0
4, 25936, Control_c, 0, 64, 0
4, 25966, Control_c, 0, 64, 127
4, 26413, Control_c, 0, 64, 0
4, 26453, Control_c, 0, 64, 127
4, 26902, Control_c, 0, 64, 0
4, 26944, Control_c, 0, 64, 127
4, 27370, Control_c, 0, 64, 0
4, 27628, Control_c, 0, 64, 127
4, 27852, Control_c, 0, 64, 0
4, 27907, Control_c, 0, 64, 127
4, 28334, Control_c, 0, 64, 0
4, 30256, Control_c, 0, 64, 0
4, 30286, Control_c, 0, 64, 127
4, 30733, Control_c, 0, 64, 0
4, 30773, Control_c, 0, 64, 127
4, 31222, Control_c, 0, 64, 0
4, 31264, Control_c, 0, 64, 127
4, 31680, Control_c, 0, 64, 0
4, 34938, Control_c, 0, 64, 127
4, 35051, Control_c, 0, 64, 0
4, 36353, Control_c, 0, 64, 127
4, 36492, Control_c, 0, 64, 0
4, 39155, Control_c, 0, 64, 127
4, 39367, Control_c, 0, 64, 0
4, 40613, Control_c, 0, 64, 127
4, 40811, Control_c, 0, 64, 0
4, 41347, Control_c, 0, 64, 127
4, 41760, Control_c, 0, 64, 0
4, 42051, Control_c, 0, 64, 127
4, 42256, Control_c, 0, 64, 0
4, 53326, Control_c, 0, 64, 127
4, 54259, Control_c, 0, 64, 0
4, 54300, Control_c, 0, 64, 127
4, 54727, Control_c, 0, 64, 0
4, 54755, Control_c, 0, 64, 127
4, 55215, Control_c, 0, 64, 0
4, 55243, Control_c, 0, 64, 127
4, 55696, Control_c, 0, 64, 0
4, 55735, Control_c, 0, 64, 127
4, 56176, Control_c, 0, 64, 0
4, 56206, Control_c, 0, 64, 127
4, 56653, Control_c, 0, 64, 0
4, 56693, Control_c, 0, 64, 127
4, 57142, Control_c, 0, 64, 0
4, 57184, Control_c, 0, 64, 127
4, 57610, Control_c, 0, 64, 0
4, 57639, Control_c, 0, 64, 127
4, 58092, Control_c, 0, 64, 0
4, 58147, Control_c, 0, 64, 127
4, 58574, Control_c, 0, 64, 0
4, 60496, Control_c, 0, 64, 0
4, 60526, Control_c, 0, 64, 127
4, 60973, Control_c, 0, 64, 0
4, 61013, Control_c, 0, 64, 127
4, 61462, Control_c, 0, 64, 0
4, 61504, Control_c, 0, 64, 127
4, 61930, Control_c, 0, 64, 0
4, 62164, Control_c, 0, 64, 127
4, 62412, Control_c, 0, 64, 0
4, 62467, Control_c, 0, 64, 127
4, 62894, Control_c, 0, 64, 0
4, 64816, Control_c, 0, 64, 0
4, 64846, Control_c, 0, 64, 127
4, 65293, Control_c, 0, 64, 0
4, 65333, Control_c, 0, 64, 127
4, 65782, Control_c, 0, 64, 0
4, 65824, Control_c, 0, 64, 127
4, 66240, Control_c, 0, 64, 0
4, 69498, Control_c, 0, 64, 127
4, 69611, Control_c, 0, 64, 0
4, 70147, Control_c, 0, 64, 127
4, 70560, Control_c, 0, 64, 0
4, 70851, Control_c, 0, 64, 127
4, 71056, Control_c, 0, 64, 0
4, 73486, Control_c, 0, 64, 127
4, 74419, Control_c, 0, 64, 0
4, 74460, Control_c, 0, 64, 127
4, 74905, Control_c, 0, 64, 0
4, 76366, Control_c, 0, 64, 127
4, 76810, Control_c, 0, 64, 0
4, 76881, Control_c, 0, 64, 127
4, 77780, Control_c, 0, 64, 0
4, 77806, Control_c, 0, 64, 127
4, 78735, Control_c, 0, 64, 0
4, 78777, Control_c, 0, 64, 127
4, 79212, Control_c, 0, 64, 0
4, 79237, Control_c, 0, 64, 127
4, 79720, Control_c, 0, 64, 0
4, 82080, Control_c, 0, 64, 0
4, 85235, Control_c, 0, 64, 127
4, 85447, Control_c, 0, 64, 0
4, 86400, Control_c, 0, 64, 0
4, 89287, Control_c, 0, 64, 0
4, 89315, Control_c, 0, 64, 127
4, 90256, Control_c, 0, 64, 0
4, 90295, Control_c, 0, 64, 127
4, 90727, Control_c, 0, 64, 0
4, 90755, Control_c, 0, 64, 127
4, 91696, Control_c, 0, 64, 0
4, 91735, Control_c, 0, 64, 127
4, 92170, Control_c, 0, 64, 0
4, 92428, Control_c, 0, 64, 127
4, 92652, Control_c, 0, 64, 0
4, 92707, Control_c, 0, 64, 127
4, 93134, Control_c, 0, 64, 0
4, 93607, Control_c, 0, 64, 0
4, 93635, Control_c, 0, 64, 127
4, 94576, Control_c, 0, 64, 0
4, 94615, Control_c, 0, 64, 127
4, 95047, Control_c, 0, 64, 0
4, 95075, Control_c, 0, 64, 127
4, 96016, Control_c, 0, 64, 0
4, 96055, Control_c, 0, 64, 127
4, 96487, Control_c, 0, 64, 0
4, 96515, Control_c, 0, 64, 127
4, 96972, Control_c, 0, 64, 0
4, 97006, Control_c, 0, 64, 127
4, 97457, Control_c, 0, 64, 0
4, 97486, Control_c, 0, 64, 127
4, 97947, Control_c, 0, 64, 0
4, 99420, Control_c, 0, 64, 127
4, 100570, Control_c, 0, 64, 0
4, 100810, Control_c, 0, 64, 0
4, 101068, Control_c, 0, 64, 127
4, 101292, Control_c, 0, 64, 0
4, 101347, Control_c, 0, 64, 127
4, 101774, Control_c, 0, 64, 0
4, 102272, Control_c, 0, 64, 127
4, 102940, Control_c, 0, 64, 0
4, 102997, Control_c, 0, 64, 127
4, 103705, Control_c, 0, 64, 0
4, 103761, Control_c, 0, 64, 127
4, 104380, Control_c, 0, 64, 0
4, 104436, Control_c, 0, 64, 127
4, 105127, Control_c, 0, 64, 0
4, 105160, Control_c, 0, 64, 127
4, 105820, Control_c, 0, 64, 0
4, 105872, Control_c, 0, 64, 127
4, 106560, Control_c, 0, 64, 0
4, 106595, Control_c, 0, 64, 127
4, 108932, Control_c, 0, 64, 0
4, 108932, End_track
5, 0, Start_track
5, 0, Title_t, "Haydn: Sonata Hoboken XVI:33 2. movement"
5, 0, End_track
6, 0, Start_track
6, 0, Title_t, "Copyright © 2010 by Bernd Krueger"
6, 0, End_track
7, 0, Start_track
7, 0, Title_t, "http://www.piano-midi.de/"
7, 0, End_track
8, 0, Start_track
8, 0, Title_t, "Edition: 2012-02-18"
8, 0, End_track
9, 0, Start_track
9, 0, Title_t, "Spur 8"
9, 0, End_track
10, 0, Start_track
10, 0, Title_t, "Spur 9"
10, 0, End_track
11, 0, Start_track
11, 0, Title_t, "Spur 10"
11, 0, End_track
12, 0, Start_track
12, 0, Title_t, "Spur 11"
12, 0, End_track
13, 0, Start_track
13, 0, Title_t, "Spur 12"
13, 0, End_track
14, 0, Start_track
14, 0, Title_t, "Spur 13"
14, 0, End_track
15, 0, Start_track
15, 0, Title_t, "Spur 14"
15, 0, End_track
16, 0, Start_track
16, 0, Title_t, "Spur 15"
16, 0, End_track
17, 0, Start_track
17, 0, Title_t, "Spur 16"
17, 0, End_track
0, 0, End_of_file
