0, 0, Header, 1, 17, 480
1, 0, Start_track
1, 0, Title_t, "Haydn: Klaviersonate Hob. XVI:9, 3. Satz"
1, 0, Title_t, "Scherzo"
1, 0, Copyright_t, "Copyright © 2011 by Bernd Krueger"
1, 0, Text_t, "Bernd Krueger"
1, 0, Text_t, "Erstellt: 12.11.2011\012"
1, 0, Text_t, "Dauer:  0:51 Minuten\012"
1, 0, Time_signature, 2, 2, 24, 8
1, 0, Key_signature, -1, "major"
1, 0, Tempo, 502892
1, 720, Marker_t, "Teil 1"
1, 960, Tempo, 511465
1, 1440, Tempo, 496648
1, 1760, Tempo, 539617
1, 1800, Tempo, 559128
1, 1920, Tempo, 522557
1, 2400, Tempo, 502892
1, 2720, Tempo, 535045
1, 2880, Tempo, 502892
1, 3360, Tempo, 546398
1, 3680, Tempo, 574163
1, 3720, Tempo, 607165
1, 3840, Tempo, 536577
1, 4320, Tempo, 522557
1, 4560, Tempo, 502892
1, 4800, Tempo, 509295
1, 5280, Tempo, 498712
1, 5600, Tempo, 539617
1, 5640, Tempo, 551420
1, 5760, Tempo, 524843
1, 6240, Tempo, 502892
1, 6560, Tempo, 535045
1, 6720, Tempo, 511073
1, 7040, Tempo, 521694
1, 7200, Tempo, 539617
1, 7520, Tempo, 574163
1, 7560, Tempo, 610314
1, 7680, Tempo, 504881
1, 8400, Tempo, 502892
1, 8400, Marker_t, "Teil 1 Wiederholung"
1, 8640, Tempo, 509295
1, 9120, Tempo, 502892
1, 9440, Tempo, 539617
1, 9600, Tempo, 529474
1, 10080, Tempo, 506928
1, 10400, Tempo, 535045
1, 10560, Tempo, 502892
1, 11040, Tempo, 543922
1, 11360, Tempo, 574163
1, 11400, Tempo, 616523
1, 11520, Tempo, 517375
1, 12240, Tempo, 502892
1, 12480, Tempo, 509295
1, 12960, Tempo, 502892
1, 13280, Tempo, 539617
1, 13440, Tempo, 531821
1, 13920, Tempo, 502892
1, 14240, Tempo, 535045
1, 14400, Tempo, 511073
1, 14720, Tempo, 521694
1, 14880, Tempo, 539617
1, 15200, Tempo, 574163
1, 15240, Tempo, 610314
1, 15360, Tempo, 504881
1, 16000, Tempo, 532765
1, 16080, Marker_t, "Teil 2"
1, 16317, Tempo, 508992
1, 16375, Tempo, 506928
1, 16433, Tempo, 504881
1, 16490, Tempo, 502892
1, 16548, Tempo, 500877
1, 16960, Tempo, 530504
1, 17120, Tempo, 500877
1, 17277, Tempo, 496894
1, 17335, Tempo, 498878
1, 17393, Tempo, 500877
1, 17450, Tempo, 502892
1, 17489, Tempo, 504881
1, 17585, Tempo, 502892
1, 17661, Tempo, 500877
1, 17738, Tempo, 498878
1, 18000, Tempo, 532765
1, 18240, Tempo, 496894
1, 18560, Tempo, 500877
1, 18880, Tempo, 530504
1, 19040, Tempo, 500877
1, 19200, Tempo, 500877
1, 19920, Tempo, 532765
1, 20157, Tempo, 508992
1, 20215, Tempo, 506928
1, 20273, Tempo, 504881
1, 20330, Tempo, 502892
1, 20388, Tempo, 500877
1, 20800, Tempo, 530504
1, 20960, Tempo, 500877
1, 21117, Tempo, 502892
1, 21194, Tempo, 500877
1, 21252, Tempo, 498878
1, 21329, Tempo, 496894
1, 21386, Tempo, 494927
1, 21578, Tempo, 491079
1, 21636, Tempo, 493016
1, 21693, Tempo, 494927
1, 21751, Tempo, 496894
1, 21809, Tempo, 498878
1, 21866, Tempo, 500877
1, 21905, Tempo, 502892
1, 21920, Tempo, 532765
1, 22080, Tempo, 504881
1, 22240, Tempo, 532765
1, 22400, Tempo, 511073
1, 22560, Tempo, 523880
1, 22720, Tempo, 541956
1, 22880, Tempo, 574163
1, 23040, Tempo, 556380
1, 23360, Tempo, 598802
1, 23520, Tempo, 553914
1, 23760, Tempo, 502892
1, 24000, Tempo, 505008
1, 24480, Tempo, 502892
1, 24800, Tempo, 539617
1, 24960, Tempo, 534188
1, 25440, Tempo, 498878
1, 25760, Tempo, 535045
1, 25920, Tempo, 502892
1, 26400, Tempo, 543922
1, 26720, Tempo, 574163
1, 26760, Tempo, 604108
1, 26880, Tempo, 529474
1, 27360, Tempo, 518045
1, 27600, Tempo, 502892
1, 27840, Tempo, 511465
1, 28320, Tempo, 502892
1, 28640, Tempo, 539617
1, 28680, Tempo, 569746
1, 28800, Tempo, 527148
1, 29280, Tempo, 502892
1, 29600, Tempo, 535045
1, 29760, Tempo, 511073
1, 30080, Tempo, 521694
1, 30240, Tempo, 539617
1, 30560, Tempo, 574163
1, 30600, Tempo, 613434
1, 30720, Tempo, 504881
1, 31200, Tempo, 504881
1, 31440, Tempo, 532765
1, 31440, Marker_t, "Teil 2 Wiederholung"
1, 31677, Tempo, 508992
1, 31735, Tempo, 506928
1, 31793, Tempo, 504881
1, 31850, Tempo, 502892
1, 31908, Tempo, 500877
1, 32320, Tempo, 530504
1, 32480, Tempo, 500877
1, 32637, Tempo, 496894
1, 32695, Tempo, 498878
1, 32753, Tempo, 500877
1, 32810, Tempo, 502892
1, 32849, Tempo, 504881
1, 32945, Tempo, 502892
1, 33021, Tempo, 500877
1, 33098, Tempo, 498878
1, 33360, Tempo, 532765
1, 33600, Tempo, 496894
1, 33920, Tempo, 500877
1, 34240, Tempo, 530504
1, 34400, Tempo, 500877
1, 34560, Tempo, 500877
1, 35280, Tempo, 532765
1, 35517, Tempo, 508992
1, 35575, Tempo, 506928
1, 35633, Tempo, 504881
1, 35690, Tempo, 502892
1, 35748, Tempo, 500877
1, 36160, Tempo, 530504
1, 36320, Tempo, 500877
1, 36477, Tempo, 502892
1, 36554, Tempo, 500877
1, 36612, Tempo, 498878
1, 36689, Tempo, 496894
1, 36746, Tempo, 494927
1, 36938, Tempo, 491079
1, 36996, Tempo, 493016
1, 37053, Tempo, 494927
1, 37111, Tempo, 496894
1, 37169, Tempo, 498878
1, 37226, Tempo, 500877
1, 37265, Tempo, 502892
1, 37280, Tempo, 532765
1, 37440, Tempo, 504881
1, 37600, Tempo, 532765
1, 37760, Tempo, 511073
1, 37920, Tempo, 523880
1, 38080, Tempo, 541956
1, 38240, Tempo, 574163
1, 38400, Tempo, 556380
1, 38720, Tempo, 598802
1, 38880, Tempo, 553914
1, 39120, Tempo, 502892
1, 39360, Tempo, 509295
1, 39840, Tempo, 502892
1, 40160, Tempo, 539617
1, 40320, Tempo, 534188
1, 40800, Tempo, 498878
1, 41120, Tempo, 535045
1, 41280, Tempo, 502892
1, 41760, Tempo, 543922
1, 42080, Tempo, 574163
1, 42120, Tempo, 604108
1, 42240, Tempo, 529474
1, 42720, Tempo, 518045
1, 42960, Tempo, 502892
1, 43200, Tempo, 507142
1, 43680, Tempo, 502892
1, 44000, Tempo, 539617
1, 44160, Tempo, 527148
1, 44640, Tempo, 513523
1, 44880, Tempo, 553812
1, 45120, Tempo, 524888
1, 45360, Tempo, 541467
1, 45600, Tempo, 595179
1, 45840, Tempo, 636200
1, 46080, Tempo, 536481
1, 46080, End_track
2, 0, Start_track
2, 0, Title_t, "Piano right"
2, 0, Program_c, 0, 0
2, 720, Note_on_c, 0, 72, 40
2, 960, Note_on_c, 0, 72, 0
2, 960, Note_on_c, 0, 77, 45
2, 1080, Note_on_c, 0, 77, 0
2, 1080, Note_on_c, 0, 72, 40
2, 1200, Note_on_c, 0, 72, 0
2, 1200, Note_on_c, 0, 77, 41
2, 1320, Note_on_c, 0, 77, 0
2, 1320, Note_on_c, 0, 72, 42
2, 1440, Note_on_c, 0, 72, 0
2, 1440, Note_on_c, 0, 81, 48
2, 1560, Note_on_c, 0, 81, 0
2, 1560, Note_on_c, 0, 77, 44
2, 1680, Note_on_c, 0, 77, 0
2, 1680, Note_on_c, 0, 81, 44
2, 1800, Note_on_c, 0, 81, 0
2, 1800, Note_on_c, 0, 77, 45
2, 1920, Note_on_c, 0, 77, 0
2, 1920, Note_on_c, 0, 84, 55
2, 2400, Note_on_c, 0, 84, 0
2, 2400, Note_on_c, 0, 82, 47
2, 2520, Note_on_c, 0, 82, 0
2, 2520, Note_on_c, 0, 81, 44
2, 2640, Note_on_c, 0, 81, 0
2, 2640, Note_on_c, 0, 79, 44
2, 2760, Note_on_c, 0, 79, 0
2, 2760, Note_on_c, 0, 77, 44
2, 2880, Note_on_c, 0, 77, 0
2, 2880, Note_on_c, 0, 76, 44
2, 3000, Note_on_c, 0, 76, 0
2, 3000, Note_on_c, 0, 77, 45
2, 3120, Note_on_c, 0, 77, 0
2, 3120, Note_on_c, 0, 79, 46
2, 3240, Note_on_c, 0, 79, 0
2, 3240, Note_on_c, 0, 76, 44
2, 3360, Note_on_c, 0, 76, 0
2, 3360, Note_on_c, 0, 72, 47
2, 3480, Note_on_c, 0, 72, 0
2, 3600, Note_on_c, 0, 79, 39
2, 3600, Note_on_c, 0, 82, 47
2, 3660, Note_on_c, 0, 82, 0
2, 3660, Note_on_c, 0, 79, 0
2, 3840, Note_on_c, 0, 79, 39
2, 3840, Note_on_c, 0, 82, 46
2, 4320, Note_on_c, 0, 82, 0
2, 4320, Note_on_c, 0, 79, 0
2, 4320, Note_on_c, 0, 81, 45
2, 4320, Note_on_c, 0, 77, 38
2, 4560, Note_on_c, 0, 77, 0
2, 4560, Note_on_c, 0, 81, 0
2, 4560, Note_on_c, 0, 72, 40
2, 4800, Note_on_c, 0, 72, 0
2, 4800, Note_on_c, 0, 77, 45
2, 4920, Note_on_c, 0, 77, 0
2, 4920, Note_on_c, 0, 72, 40
2, 5040, Note_on_c, 0, 72, 0
2, 5040, Note_on_c, 0, 77, 41
2, 5160, Note_on_c, 0, 77, 0
2, 5160, Note_on_c, 0, 72, 42
2, 5280, Note_on_c, 0, 72, 0
2, 5280, Note_on_c, 0, 81, 48
2, 5400, Note_on_c, 0, 81, 0
2, 5400, Note_on_c, 0, 77, 44
2, 5520, Note_on_c, 0, 77, 0
2, 5520, Note_on_c, 0, 81, 44
2, 5640, Note_on_c, 0, 81, 0
2, 5640, Note_on_c, 0, 77, 45
2, 5760, Note_on_c, 0, 77, 0
2, 5760, Note_on_c, 0, 84, 55
2, 6240, Note_on_c, 0, 84, 0
2, 6240, Note_on_c, 0, 82, 47
2, 6360, Note_on_c, 0, 82, 0
2, 6360, Note_on_c, 0, 81, 44
2, 6480, Note_on_c, 0, 81, 0
2, 6480, Note_on_c, 0, 79, 44
2, 6600, Note_on_c, 0, 79, 0
2, 6600, Note_on_c, 0, 77, 44
2, 6720, Note_on_c, 0, 77, 0
2, 6720, Note_on_c, 0, 79, 40
2, 6840, Note_on_c, 0, 79, 0
2, 6840, Note_on_c, 0, 81, 41
2, 6960, Note_on_c, 0, 81, 0
2, 6960, Note_on_c, 0, 82, 42
2, 7080, Note_on_c, 0, 82, 0
2, 7080, Note_on_c, 0, 79, 40
2, 7200, Note_on_c, 0, 79, 0
2, 7200, Note_on_c, 0, 77, 43
2, 7320, Note_on_c, 0, 77, 0
2, 7320, Note_on_c, 0, 76, 43
2, 7440, Note_on_c, 0, 76, 0
2, 7440, Note_on_c, 0, 74, 43
2, 7560, Note_on_c, 0, 74, 0
2, 7560, Note_on_c, 0, 72, 43
2, 7680, Note_on_c, 0, 72, 0
2, 7680, Note_on_c, 0, 77, 46
2, 8160, Note_on_c, 0, 77, 0
2, 8400, Note_on_c, 0, 72, 40
2, 8640, Note_on_c, 0, 72, 0
2, 8640, Note_on_c, 0, 77, 45
2, 8760, Note_on_c, 0, 77, 0
2, 8760, Note_on_c, 0, 72, 40
2, 8880, Note_on_c, 0, 72, 0
2, 8880, Note_on_c, 0, 77, 41
2, 9000, Note_on_c, 0, 77, 0
2, 9000, Note_on_c, 0, 72, 42
2, 9120, Note_on_c, 0, 72, 0
2, 9120, Note_on_c, 0, 81, 48
2, 9240, Note_on_c, 0, 81, 0
2, 9240, Note_on_c, 0, 77, 44
2, 9360, Note_on_c, 0, 77, 0
2, 9360, Note_on_c, 0, 81, 44
2, 9480, Note_on_c, 0, 81, 0
2, 9480, Note_on_c, 0, 77, 45
2, 9600, Note_on_c, 0, 77, 0
2, 9600, Note_on_c, 0, 84, 55
2, 10080, Note_on_c, 0, 84, 0
2, 10080, Note_on_c, 0, 82, 47
2, 10200, Note_on_c, 0, 82, 0
2, 10200, Note_on_c, 0, 81, 44
2, 10320, Note_on_c, 0, 81, 0
2, 10320, Note_on_c, 0, 79, 44
2, 10440, Note_on_c, 0, 79, 0
2, 10440, Note_on_c, 0, 77, 44
2, 10560, Note_on_c, 0, 77, 0
2, 10560, Note_on_c, 0, 76, 44
2, 10680, Note_on_c, 0, 76, 0
2, 10680, Note_on_c, 0, 77, 45
2, 10800, Note_on_c, 0, 77, 0
2, 10800, Note_on_c, 0, 79, 46
2, 10920, Note_on_c, 0, 79, 0
2, 10920, Note_on_c, 0, 76, 44
2, 11040, Note_on_c, 0, 76, 0
2, 11040, Note_on_c, 0, 72, 47
2, 11160, Note_on_c, 0, 72, 0
2, 11280, Note_on_c, 0, 79, 39
2, 11280, Note_on_c, 0, 82, 47
2, 11340, Note_on_c, 0, 82, 0
2, 11340, Note_on_c, 0, 79, 0
2, 11520, Note_on_c, 0, 79, 39
2, 11520, Note_on_c, 0, 82, 46
2, 12000, Note_on_c, 0, 82, 0
2, 12000, Note_on_c, 0, 79, 0
2, 12000, Note_on_c, 0, 81, 45
2, 12000, Note_on_c, 0, 77, 38
2, 12240, Note_on_c, 0, 77, 0
2, 12240, Note_on_c, 0, 81, 0
2, 12240, Note_on_c, 0, 72, 40
2, 12480, Note_on_c, 0, 72, 0
2, 12480, Note_on_c, 0, 77, 45
2, 12600, Note_on_c, 0, 77, 0
2, 12600, Note_on_c, 0, 72, 40
2, 12720, Note_on_c, 0, 72, 0
2, 12720, Note_on_c, 0, 77, 42
2, 12840, Note_on_c, 0, 77, 0
2, 12840, Note_on_c, 0, 72, 42
2, 12960, Note_on_c, 0, 72, 0
2, 12960, Note_on_c, 0, 81, 49
2, 13080, Note_on_c, 0, 81, 0
2, 13080, Note_on_c, 0, 77, 44
2, 13200, Note_on_c, 0, 77, 0
2, 13200, Note_on_c, 0, 81, 46
2, 13320, Note_on_c, 0, 81, 0
2, 13320, Note_on_c, 0, 77, 46
2, 13440, Note_on_c, 0, 77, 0
2, 13440, Note_on_c, 0, 84, 48
2, 13920, Note_on_c, 0, 84, 0
2, 13920, Note_on_c, 0, 82, 47
2, 14040, Note_on_c, 0, 82, 0
2, 14040, Note_on_c, 0, 81, 44
2, 14160, Note_on_c, 0, 81, 0
2, 14160, Note_on_c, 0, 79, 44
2, 14280, Note_on_c, 0, 79, 0
2, 14280, Note_on_c, 0, 77, 44
2, 14400, Note_on_c, 0, 77, 0
2, 14400, Note_on_c, 0, 79, 40
2, 14520, Note_on_c, 0, 79, 0
2, 14520, Note_on_c, 0, 81, 41
2, 14640, Note_on_c, 0, 81, 0
2, 14640, Note_on_c, 0, 82, 42
2, 14760, Note_on_c, 0, 82, 0
2, 14760, Note_on_c, 0, 79, 40
2, 14880, Note_on_c, 0, 79, 0
2, 14880, Note_on_c, 0, 77, 43
2, 15000, Note_on_c, 0, 77, 0
2, 15000, Note_on_c, 0, 76, 43
2, 15120, Note_on_c, 0, 76, 0
2, 15120, Note_on_c, 0, 74, 43
2, 15240, Note_on_c, 0, 74, 0
2, 15240, Note_on_c, 0, 72, 43
2, 15360, Note_on_c, 0, 72, 0
2, 15360, Note_on_c, 0, 77, 46
2, 15840, Note_on_c, 0, 77, 0
2, 16080, Note_on_c, 0, 72, 42
2, 16320, Note_on_c, 0, 72, 0
2, 16320, Note_on_c, 0, 82, 45
2, 16440, Note_on_c, 0, 82, 0
2, 16560, Note_on_c, 0, 82, 39
2, 16680, Note_on_c, 0, 82, 0
2, 16800, Note_on_c, 0, 82, 44
2, 16920, Note_on_c, 0, 82, 0
2, 17040, Note_on_c, 0, 86, 47
2, 17160, Note_on_c, 0, 86, 0
2, 17160, Note_on_c, 0, 82, 43
2, 17280, Note_on_c, 0, 82, 0
2, 17280, Note_on_c, 0, 81, 50
2, 17760, Note_on_c, 0, 81, 0
2, 18000, Note_on_c, 0, 84, 50
2, 18240, Note_on_c, 0, 84, 0
2, 18240, Note_on_c, 0, 76, 57
2, 18360, Note_on_c, 0, 76, 0
2, 18480, Note_on_c, 0, 76, 45
2, 18600, Note_on_c, 0, 76, 0
2, 18720, Note_on_c, 0, 76, 50
2, 18840, Note_on_c, 0, 76, 0
2, 18960, Note_on_c, 0, 79, 54
2, 19080, Note_on_c, 0, 79, 0
2, 19080, Note_on_c, 0, 76, 46
2, 19200, Note_on_c, 0, 76, 0
2, 19200, Note_on_c, 0, 77, 53
2, 19680, Note_on_c, 0, 77, 0
2, 19920, Note_on_c, 0, 72, 50
2, 20160, Note_on_c, 0, 72, 0
2, 20160, Note_on_c, 0, 79, 55
2, 20280, Note_on_c, 0, 79, 0
2, 20400, Note_on_c, 0, 79, 53
2, 20520, Note_on_c, 0, 79, 0
2, 20640, Note_on_c, 0, 79, 56
2, 20760, Note_on_c, 0, 79, 0
2, 20880, Note_on_c, 0, 67, 54
2, 21000, Note_on_c, 0, 67, 0
2, 21000, Note_on_c, 0, 70, 48
2, 21120, Note_on_c, 0, 70, 0
2, 21120, Note_on_c, 0, 69, 54
2, 21240, Note_on_c, 0, 69, 0
2, 21240, Note_on_c, 0, 72, 46
2, 21360, Note_on_c, 0, 72, 0
2, 21360, Note_on_c, 0, 70, 54
2, 21480, Note_on_c, 0, 70, 0
2, 21480, Note_on_c, 0, 69, 46
2, 21600, Note_on_c, 0, 69, 0
2, 21600, Note_on_c, 0, 67, 54
2, 21720, Note_on_c, 0, 67, 0
2, 21720, Note_on_c, 0, 65, 46
2, 21840, Note_on_c, 0, 65, 0
2, 21840, Note_on_c, 0, 64, 49
2, 21960, Note_on_c, 0, 64, 0
2, 21960, Note_on_c, 0, 65, 45
2, 22080, Note_on_c, 0, 65, 0
2, 22080, Note_on_c, 0, 62, 45
2, 22200, Note_on_c, 0, 62, 0
2, 22200, Note_on_c, 0, 70, 51
2, 22320, Note_on_c, 0, 70, 0
2, 22320, Note_on_c, 0, 74, 58
2, 22440, Note_on_c, 0, 74, 0
2, 22440, Note_on_c, 0, 72, 45
2, 22560, Note_on_c, 0, 72, 0
2, 22560, Note_on_c, 0, 70, 54
2, 22680, Note_on_c, 0, 70, 0
2, 22680, Note_on_c, 0, 69, 46
2, 22800, Note_on_c, 0, 69, 0
2, 22800, Note_on_c, 0, 67, 50
2, 22920, Note_on_c, 0, 67, 0
2, 22920, Note_on_c, 0, 65, 49
2, 23040, Note_on_c, 0, 65, 0
2, 23040, Note_on_c, 0, 64, 58
2, 23520, Note_on_c, 0, 64, 0
2, 23760, Note_on_c, 0, 72, 40
2, 24000, Note_on_c, 0, 72, 0
2, 24000, Note_on_c, 0, 77, 45
2, 24120, Note_on_c, 0, 77, 0
2, 24120, Note_on_c, 0, 72, 40
2, 24240, Note_on_c, 0, 72, 0
2, 24240, Note_on_c, 0, 77, 41
2, 24360, Note_on_c, 0, 77, 0
2, 24360, Note_on_c, 0, 72, 42
2, 24480, Note_on_c, 0, 72, 0
2, 24480, Note_on_c, 0, 81, 48
2, 24600, Note_on_c, 0, 81, 0
2, 24600, Note_on_c, 0, 77, 44
2, 24720, Note_on_c, 0, 77, 0
2, 24720, Note_on_c, 0, 81, 44
2, 24840, Note_on_c, 0, 81, 0
2, 24840, Note_on_c, 0, 77, 45
2, 24960, Note_on_c, 0, 77, 0
2, 24960, Note_on_c, 0, 84, 55
2, 25440, Note_on_c, 0, 84, 0
2, 25440, Note_on_c, 0, 82, 47
2, 25560, Note_on_c, 0, 82, 0
2, 25560, Note_on_c, 0, 81, 44
2, 25680, Note_on_c, 0, 81, 0
2, 25680, Note_on_c, 0, 79, 44
2, 25800, Note_on_c, 0, 79, 0
2, 25800, Note_on_c, 0, 77, 44
2, 25920, Note_on_c, 0, 77, 0
2, 25920, Note_on_c, 0, 76, 44
2, 26040, Note_on_c, 0, 76, 0
2, 26040, Note_on_c, 0, 77, 45
2, 26160, Note_on_c, 0, 77, 0
2, 26160, Note_on_c, 0, 79, 46
2, 26280, Note_on_c, 0, 79, 0
2, 26280, Note_on_c, 0, 76, 44
2, 26400, Note_on_c, 0, 76, 0
2, 26400, Note_on_c, 0, 72, 47
2, 26520, Note_on_c, 0, 72, 0
2, 26640, Note_on_c, 0, 79, 39
2, 26640, Note_on_c, 0, 82, 47
2, 26700, Note_on_c, 0, 82, 0
2, 26700, Note_on_c, 0, 79, 0
2, 26880, Note_on_c, 0, 79, 39
2, 26880, Note_on_c, 0, 82, 46
2, 27360, Note_on_c, 0, 82, 0
2, 27360, Note_on_c, 0, 79, 0
2, 27360, Note_on_c, 0, 81, 45
2, 27360, Note_on_c, 0, 77, 38
2, 27600, Note_on_c, 0, 77, 0
2, 27600, Note_on_c, 0, 81, 0
2, 27600, Note_on_c, 0, 72, 40
2, 27840, Note_on_c, 0, 72, 0
2, 27840, Note_on_c, 0, 77, 45
2, 27960, Note_on_c, 0, 77, 0
2, 27960, Note_on_c, 0, 72, 40
2, 28080, Note_on_c, 0, 72, 0
2, 28080, Note_on_c, 0, 77, 41
2, 28200, Note_on_c, 0, 77, 0
2, 28200, Note_on_c, 0, 72, 42
2, 28320, Note_on_c, 0, 72, 0
2, 28320, Note_on_c, 0, 81, 48
2, 28440, Note_on_c, 0, 81, 0
2, 28440, Note_on_c, 0, 77, 44
2, 28560, Note_on_c, 0, 77, 0
2, 28560, Note_on_c, 0, 81, 44
2, 28680, Note_on_c, 0, 81, 0
2, 28680, Note_on_c, 0, 77, 45
2, 28800, Note_on_c, 0, 77, 0
2, 28800, Note_on_c, 0, 84, 55
2, 29280, Note_on_c, 0, 84, 0
2, 29280, Note_on_c, 0, 82, 47
2, 29400, Note_on_c, 0, 82, 0
2, 29400, Note_on_c, 0, 81, 44
2, 29520, Note_on_c, 0, 81, 0
2, 29520, Note_on_c, 0, 79, 44
2, 29640, Note_on_c, 0, 79, 0
2, 29640, Note_on_c, 0, 77, 44
2, 29760, Note_on_c, 0, 77, 0
2, 29760, Note_on_c, 0, 79, 40
2, 29880, Note_on_c, 0, 79, 0
2, 29880, Note_on_c, 0, 81, 41
2, 30000, Note_on_c, 0, 81, 0
2, 30000, Note_on_c, 0, 82, 42
2, 30120, Note_on_c, 0, 82, 0
2, 30120, Note_on_c, 0, 79, 40
2, 30240, Note_on_c, 0, 79, 0
2, 30240, Note_on_c, 0, 77, 43
2, 30360, Note_on_c, 0, 77, 0
2, 30360, Note_on_c, 0, 76, 43
2, 30480, Note_on_c, 0, 76, 0
2, 30480, Note_on_c, 0, 74, 43
2, 30600, Note_on_c, 0, 74, 0
2, 30600, Note_on_c, 0, 72, 43
2, 30720, Note_on_c, 0, 72, 0
2, 30720, Note_on_c, 0, 77, 46
2, 31200, Note_on_c, 0, 77, 0
2, 31440, Note_on_c, 0, 72, 42
2, 31680, Note_on_c, 0, 72, 0
2, 31680, Note_on_c, 0, 82, 46
2, 31800, Note_on_c, 0, 82, 0
2, 31920, Note_on_c, 0, 82, 40
2, 32040, Note_on_c, 0, 82, 0
2, 32160, Note_on_c, 0, 82, 45
2, 32280, Note_on_c, 0, 82, 0
2, 32400, Note_on_c, 0, 86, 47
2, 32520, Note_on_c, 0, 86, 0
2, 32520, Note_on_c, 0, 82, 44
2, 32640, Note_on_c, 0, 82, 0
2, 32640, Note_on_c, 0, 81, 51
2, 33120, Note_on_c, 0, 81, 0
2, 33360, Note_on_c, 0, 84, 50
2, 33600, Note_on_c, 0, 84, 0
2, 33600, Note_on_c, 0, 76, 58
2, 33720, Note_on_c, 0, 76, 0
2, 33840, Note_on_c, 0, 76, 46
2, 33960, Note_on_c, 0, 76, 0
2, 34080, Note_on_c, 0, 76, 49
2, 34200, Note_on_c, 0, 76, 0
2, 34320, Note_on_c, 0, 79, 55
2, 34440, Note_on_c, 0, 79, 0
2, 34440, Note_on_c, 0, 76, 50
2, 34560, Note_on_c, 0, 76, 0
2, 34560, Note_on_c, 0, 77, 56
2, 35040, Note_on_c, 0, 77, 0
2, 35280, Note_on_c, 0, 72, 50
2, 35520, Note_on_c, 0, 72, 0
2, 35520, Note_on_c, 0, 79, 62
2, 35640, Note_on_c, 0, 79, 0
2, 35760, Note_on_c, 0, 79, 55
2, 35880, Note_on_c, 0, 79, 0
2, 36000, Note_on_c, 0, 79, 62
2, 36120, Note_on_c, 0, 79, 0
2, 36240, Note_on_c, 0, 67, 54
2, 36360, Note_on_c, 0, 67, 0
2, 36360, Note_on_c, 0, 70, 48
2, 36480, Note_on_c, 0, 70, 0
2, 36480, Note_on_c, 0, 69, 54
2, 36600, Note_on_c, 0, 69, 0
2, 36600, Note_on_c, 0, 72, 46
2, 36720, Note_on_c, 0, 72, 0
2, 36720, Note_on_c, 0, 70, 54
2, 36840, Note_on_c, 0, 70, 0
2, 36840, Note_on_c, 0, 69, 46
2, 36960, Note_on_c, 0, 69, 0
2, 36960, Note_on_c, 0, 67, 54
2, 37080, Note_on_c, 0, 67, 0
2, 37080, Note_on_c, 0, 65, 46
2, 37200, Note_on_c, 0, 65, 0
2, 37200, Note_on_c, 0, 64, 49
2, 37320, Note_on_c, 0, 64, 0
2, 37320, Note_on_c, 0, 65, 45
2, 37440, Note_on_c, 0, 65, 0
2, 37440, Note_on_c, 0, 62, 45
2, 37560, Note_on_c, 0, 62, 0
2, 37560, Note_on_c, 0, 70, 51
2, 37680, Note_on_c, 0, 70, 0
2, 37680, Note_on_c, 0, 74, 58
2, 37800, Note_on_c, 0, 74, 0
2, 37800, Note_on_c, 0, 72, 45
2, 37920, Note_on_c, 0, 72, 0
2, 37920, Note_on_c, 0, 70, 54
2, 38040, Note_on_c, 0, 70, 0
2, 38040, Note_on_c, 0, 69, 46
2, 38160, Note_on_c, 0, 69, 0
2, 38160, Note_on_c, 0, 67, 50
2, 38280, Note_on_c, 0, 67, 0
2, 38280, Note_on_c, 0, 65, 49
2, 38400, Note_on_c, 0, 65, 0
2, 38400, Note_on_c, 0, 64, 58
2, 38880, Note_on_c, 0, 64, 0
2, 39120, Note_on_c, 0, 72, 48
2, 39360, Note_on_c, 0, 72, 0
2, 39360, Note_on_c, 0, 77, 54
2, 39480, Note_on_c, 0, 77, 0
2, 39480, Note_on_c, 0, 72, 48
2, 39600, Note_on_c, 0, 72, 0
2, 39600, Note_on_c, 0, 77, 49
2, 39720, Note_on_c, 0, 77, 0
2, 39720, Note_on_c, 0, 72, 50
2, 39840, Note_on_c, 0, 72, 0
2, 39840, Note_on_c, 0, 81, 57
2, 39960, Note_on_c, 0, 81, 0
2, 39960, Note_on_c, 0, 77, 52
2, 40080, Note_on_c, 0, 77, 0
2, 40080, Note_on_c, 0, 81, 52
2, 40200, Note_on_c, 0, 81, 0
2, 40200, Note_on_c, 0, 77, 54
2, 40320, Note_on_c, 0, 77, 0
2, 40320, Note_on_c, 0, 84, 63
2, 40800, Note_on_c, 0, 84, 0
2, 40800, Note_on_c, 0, 82, 56
2, 40920, Note_on_c, 0, 82, 0
2, 40920, Note_on_c, 0, 81, 52
2, 41040, Note_on_c, 0, 81, 0
2, 41040, Note_on_c, 0, 79, 52
2, 41160, Note_on_c, 0, 79, 0
2, 41160, Note_on_c, 0, 77, 52
2, 41280, Note_on_c, 0, 77, 0
2, 41280, Note_on_c, 0, 76, 52
2, 41400, Note_on_c, 0, 76, 0
2, 41400, Note_on_c, 0, 77, 54
2, 41520, Note_on_c, 0, 77, 0
2, 41520, Note_on_c, 0, 79, 55
2, 41640, Note_on_c, 0, 79, 0
2, 41640, Note_on_c, 0, 76, 52
2, 41760, Note_on_c, 0, 76, 0
2, 41760, Note_on_c, 0, 72, 56
2, 41880, Note_on_c, 0, 72, 0
2, 42000, Note_on_c, 0, 79, 46
2, 42000, Note_on_c, 0, 82, 56
2, 42060, Note_on_c, 0, 82, 0
2, 42060, Note_on_c, 0, 79, 0
2, 42240, Note_on_c, 0, 79, 46
2, 42240, Note_on_c, 0, 82, 55
2, 42720, Note_on_c, 0, 82, 0
2, 42720, Note_on_c, 0, 79, 0
2, 42720, Note_on_c, 0, 81, 54
2, 42720, Note_on_c, 0, 77, 45
2, 42960, Note_on_c, 0, 77, 0
2, 42960, Note_on_c, 0, 81, 0
2, 42960, Note_on_c, 0, 72, 48
2, 43200, Note_on_c, 0, 72, 0
2, 43200, Note_on_c, 0, 77, 54
2, 43320, Note_on_c, 0, 77, 0
2, 43320, Note_on_c, 0, 72, 48
2, 43440, Note_on_c, 0, 72, 0
2, 43440, Note_on_c, 0, 77, 49
2, 43560, Note_on_c, 0, 77, 0
2, 43560, Note_on_c, 0, 72, 50
2, 43680, Note_on_c, 0, 72, 0
2, 43680, Note_on_c, 0, 81, 57
2, 43800, Note_on_c, 0, 81, 0
2, 43800, Note_on_c, 0, 77, 52
2, 43920, Note_on_c, 0, 77, 0
2, 43920, Note_on_c, 0, 81, 52
2, 44040, Note_on_c, 0, 81, 0
2, 44040, Note_on_c, 0, 77, 54
2, 44160, Note_on_c, 0, 77, 0
2, 44160, Note_on_c, 0, 84, 66
2, 44640, Note_on_c, 0, 84, 0
2, 44640, Note_on_c, 0, 82, 56
2, 44760, Note_on_c, 0, 82, 0
2, 44760, Note_on_c, 0, 81, 52
2, 44880, Note_on_c, 0, 81, 0
2, 44880, Note_on_c, 0, 79, 52
2, 45000, Note_on_c, 0, 79, 0
2, 45000, Note_on_c, 0, 77, 52
2, 45120, Note_on_c, 0, 77, 0
2, 45120, Note_on_c, 0, 79, 48
2, 45240, Note_on_c, 0, 79, 0
2, 45240, Note_on_c, 0, 81, 49
2, 45360, Note_on_c, 0, 81, 0
2, 45360, Note_on_c, 0, 82, 50
2, 45480, Note_on_c, 0, 82, 0
2, 45480, Note_on_c, 0, 79, 48
2, 45600, Note_on_c, 0, 79, 0
2, 45600, Note_on_c, 0, 77, 51
2, 45720, Note_on_c, 0, 77, 0
2, 45720, Note_on_c, 0, 76, 51
2, 45840, Note_on_c, 0, 76, 0
2, 45840, Note_on_c, 0, 74, 51
2, 45960, Note_on_c, 0, 74, 0
2, 45960, Note_on_c, 0, 72, 51
2, 46080, Note_on_c, 0, 72, 0
2, 46080, Note_on_c, 0, 77, 62
2, 46560, Note_on_c, 0, 77, 0
2, 46560, End_track
3, 0, Start_track
3, 0, Title_t, "Piano left"
3, 0, Program_c, 0, 0
3, 960, Note_on_c, 0, 65, 28
3, 960, Note_on_c, 0, 69, 34
3, 1440, Note_on_c, 0, 69, 0
3, 1440, Note_on_c, 0, 65, 0
3, 1920, Note_on_c, 0, 69, 39
3, 1920, Note_on_c, 0, 65, 32
3, 2040, Note_on_c, 0, 65, 0
3, 2040, Note_on_c, 0, 69, 0
3, 2160, Note_on_c, 0, 65, 24
3, 2160, Note_on_c, 0, 69, 28
3, 2280, Note_on_c, 0, 69, 0
3, 2280, Note_on_c, 0, 65, 0
3, 2400, Note_on_c, 0, 65, 24
3, 2400, Note_on_c, 0, 69, 28
3, 2520, Note_on_c, 0, 69, 0
3, 2520, Note_on_c, 0, 65, 0
3, 2640, Note_on_c, 0, 65, 24
3, 2640, Note_on_c, 0, 69, 28
3, 2760, Note_on_c, 0, 69, 0
3, 2760, Note_on_c, 0, 65, 0
3, 2880, Note_on_c, 0, 67, 37
3, 2880, Note_on_c, 0, 60, 30
3, 3000, Note_on_c, 0, 60, 0
3, 3000, Note_on_c, 0, 67, 0
3, 3120, Note_on_c, 0, 60, 24
3, 3120, Note_on_c, 0, 67, 29
3, 3240, Note_on_c, 0, 67, 0
3, 3240, Note_on_c, 0, 60, 0
3, 3360, Note_on_c, 0, 60, 24
3, 3360, Note_on_c, 0, 67, 29
3, 3480, Note_on_c, 0, 67, 0
3, 3480, Note_on_c, 0, 60, 0
3, 3600, Note_on_c, 0, 60, 22
3, 3600, Note_on_c, 0, 67, 27
3, 3660, Note_on_c, 0, 67, 0
3, 3660, Note_on_c, 0, 60, 0
3, 3840, Note_on_c, 0, 65, 34
3, 4080, Note_on_c, 0, 65, 0
3, 4080, Note_on_c, 0, 60, 26
3, 4140, Note_on_c, 0, 60, 0
3, 4320, Note_on_c, 0, 53, 32
3, 4800, Note_on_c, 0, 53, 0
3, 4800, Note_on_c, 0, 65, 28
3, 4800, Note_on_c, 0, 69, 34
3, 5280, Note_on_c, 0, 69, 0
3, 5280, Note_on_c, 0, 65, 0
3, 5760, Note_on_c, 0, 69, 39
3, 5760, Note_on_c, 0, 65, 32
3, 5880, Note_on_c, 0, 65, 0
3, 5880, Note_on_c, 0, 69, 0
3, 6000, Note_on_c, 0, 65, 24
3, 6000, Note_on_c, 0, 69, 28
3, 6120, Note_on_c, 0, 69, 0
3, 6120, Note_on_c, 0, 65, 0
3, 6240, Note_on_c, 0, 65, 24
3, 6240, Note_on_c, 0, 69, 28
3, 6360, Note_on_c, 0, 69, 0
3, 6360, Note_on_c, 0, 65, 0
3, 6480, Note_on_c, 0, 65, 24
3, 6480, Note_on_c, 0, 69, 28
3, 6600, Note_on_c, 0, 69, 0
3, 6600, Note_on_c, 0, 65, 0
3, 6720, Note_on_c, 0, 67, 34
3, 6720, Note_on_c, 0, 58, 28
3, 7200, Note_on_c, 0, 58, 0
3, 7200, Note_on_c, 0, 67, 0
3, 7200, Note_on_c, 0, 60, 22
3, 7200, Note_on_c, 0, 67, 27
3, 7680, Note_on_c, 0, 67, 0
3, 7680, Note_on_c, 0, 60, 0
3, 7680, Note_on_c, 0, 65, 34
3, 8160, Note_on_c, 0, 65, 0
3, 8640, Note_on_c, 0, 65, 28
3, 8640, Note_on_c, 0, 69, 34
3, 9120, Note_on_c, 0, 69, 0
3, 9120, Note_on_c, 0, 65, 0
3, 9600, Note_on_c, 0, 69, 39
3, 9600, Note_on_c, 0, 65, 32
3, 9720, Note_on_c, 0, 65, 0
3, 9720, Note_on_c, 0, 69, 0
3, 9840, Note_on_c, 0, 65, 24
3, 9840, Note_on_c, 0, 69, 28
3, 9960, Note_on_c, 0, 69, 0
3, 9960, Note_on_c, 0, 65, 0
3, 10080, Note_on_c, 0, 65, 24
3, 10080, Note_on_c, 0, 69, 28
3, 10200, Note_on_c, 0, 69, 0
3, 10200, Note_on_c, 0, 65, 0
3, 10320, Note_on_c, 0, 65, 24
3, 10320, Note_on_c, 0, 69, 28
3, 10440, Note_on_c, 0, 69, 0
3, 10440, Note_on_c, 0, 65, 0
3, 10560, Note_on_c, 0, 67, 37
3, 10560, Note_on_c, 0, 60, 30
3, 10680, Note_on_c, 0, 60, 0
3, 10680, Note_on_c, 0, 67, 0
3, 10800, Note_on_c, 0, 60, 24
3, 10800, Note_on_c, 0, 67, 29
3, 10920, Note_on_c, 0, 67, 0
3, 10920, Note_on_c, 0, 60, 0
3, 11040, Note_on_c, 0, 60, 24
3, 11040, Note_on_c, 0, 67, 29
3, 11160, Note_on_c, 0, 67, 0
3, 11160, Note_on_c, 0, 60, 0
3, 11280, Note_on_c, 0, 60, 22
3, 11280, Note_on_c, 0, 67, 27
3, 11340, Note_on_c, 0, 67, 0
3, 11340, Note_on_c, 0, 60, 0
3, 11520, Note_on_c, 0, 65, 34
3, 11760, Note_on_c, 0, 65, 0
3, 11760, Note_on_c, 0, 60, 26
3, 11820, Note_on_c, 0, 60, 0
3, 12000, Note_on_c, 0, 53, 32
3, 12480, Note_on_c, 0, 53, 0
3, 12480, Note_on_c, 0, 65, 28
3, 12480, Note_on_c, 0, 69, 34
3, 12960, Note_on_c, 0, 69, 0
3, 12960, Note_on_c, 0, 65, 0
3, 13440, Note_on_c, 0, 69, 34
3, 13440, Note_on_c, 0, 65, 28
3, 13560, Note_on_c, 0, 65, 0
3, 13560, Note_on_c, 0, 69, 0
3, 13680, Note_on_c, 0, 65, 24
3, 13680, Note_on_c, 0, 69, 28
3, 13800, Note_on_c, 0, 69, 0
3, 13800, Note_on_c, 0, 65, 0
3, 13920, Note_on_c, 0, 65, 24
3, 13920, Note_on_c, 0, 69, 28
3, 14040, Note_on_c, 0, 69, 0
3, 14040, Note_on_c, 0, 65, 0
3, 14160, Note_on_c, 0, 65, 24
3, 14160, Note_on_c, 0, 69, 28
3, 14280, Note_on_c, 0, 69, 0
3, 14280, Note_on_c, 0, 65, 0
3, 14400, Note_on_c, 0, 67, 34
3, 14400, Note_on_c, 0, 58, 28
3, 14880, Note_on_c, 0, 58, 0
3, 14880, Note_on_c, 0, 67, 0
3, 14880, Note_on_c, 0, 60, 22
3, 14880, Note_on_c, 0, 67, 27
3, 15360, Note_on_c, 0, 67, 0
3, 15360, Note_on_c, 0, 60, 0
3, 15360, Note_on_c, 0, 65, 34
3, 15840, Note_on_c, 0, 65, 0
3, 16320, Note_on_c, 0, 52, 34
3, 16440, Note_on_c, 0, 52, 0
3, 16440, Note_on_c, 0, 60, 24
3, 16560, Note_on_c, 0, 60, 0
3, 16560, Note_on_c, 0, 52, 28
3, 16680, Note_on_c, 0, 52, 0
3, 16680, Note_on_c, 0, 60, 25
3, 16800, Note_on_c, 0, 60, 0
3, 16800, Note_on_c, 0, 52, 30
3, 16920, Note_on_c, 0, 52, 0
3, 16920, Note_on_c, 0, 60, 25
3, 17040, Note_on_c, 0, 60, 0
3, 17040, Note_on_c, 0, 52, 28
3, 17160, Note_on_c, 0, 52, 0
3, 17160, Note_on_c, 0, 60, 25
3, 17280, Note_on_c, 0, 60, 0
3, 17280, Note_on_c, 0, 53, 37
3, 17400, Note_on_c, 0, 53, 0
3, 17400, Note_on_c, 0, 60, 25
3, 17520, Note_on_c, 0, 60, 0
3, 17520, Note_on_c, 0, 53, 29
3, 17640, Note_on_c, 0, 53, 0
3, 17640, Note_on_c, 0, 60, 27
3, 17760, Note_on_c, 0, 60, 0
3, 17760, Note_on_c, 0, 53, 31
3, 17880, Note_on_c, 0, 53, 0
3, 17880, Note_on_c, 0, 60, 30
3, 18000, Note_on_c, 0, 60, 0
3, 18000, Note_on_c, 0, 53, 40
3, 18120, Note_on_c, 0, 53, 0
3, 18120, Note_on_c, 0, 60, 29
3, 18240, Note_on_c, 0, 60, 0
3, 18240, Note_on_c, 0, 55, 47
3, 18360, Note_on_c, 0, 55, 0
3, 18360, Note_on_c, 0, 60, 31
3, 18480, Note_on_c, 0, 60, 0
3, 18480, Note_on_c, 0, 55, 35
3, 18600, Note_on_c, 0, 55, 0
3, 18600, Note_on_c, 0, 60, 28
3, 18720, Note_on_c, 0, 60, 0
3, 18720, Note_on_c, 0, 55, 36
3, 18840, Note_on_c, 0, 55, 0
3, 18840, Note_on_c, 0, 60, 29
3, 18960, Note_on_c, 0, 60, 0
3, 18960, Note_on_c, 0, 55, 37
3, 19080, Note_on_c, 0, 55, 0
3, 19080, Note_on_c, 0, 60, 34
3, 19200, Note_on_c, 0, 60, 0
3, 19200, Note_on_c, 0, 57, 49
3, 19320, Note_on_c, 0, 57, 0
3, 19320, Note_on_c, 0, 60, 34
3, 19440, Note_on_c, 0, 60, 0
3, 19440, Note_on_c, 0, 57, 33
3, 19560, Note_on_c, 0, 57, 0
3, 19560, Note_on_c, 0, 60, 28
3, 19680, Note_on_c, 0, 60, 0
3, 19680, Note_on_c, 0, 57, 36
3, 19800, Note_on_c, 0, 57, 0
3, 19800, Note_on_c, 0, 60, 31
3, 19920, Note_on_c, 0, 60, 0
3, 19920, Note_on_c, 0, 57, 36
3, 20040, Note_on_c, 0, 57, 0
3, 20040, Note_on_c, 0, 60, 32
3, 20160, Note_on_c, 0, 60, 0
3, 20160, Note_on_c, 0, 52, 40
3, 20280, Note_on_c, 0, 52, 0
3, 20280, Note_on_c, 0, 60, 28
3, 20400, Note_on_c, 0, 60, 0
3, 20400, Note_on_c, 0, 52, 32
3, 20520, Note_on_c, 0, 52, 0
3, 20520, Note_on_c, 0, 60, 28
3, 20640, Note_on_c, 0, 60, 0
3, 20640, Note_on_c, 0, 52, 34
3, 20760, Note_on_c, 0, 52, 0
3, 20760, Note_on_c, 0, 60, 28
3, 20880, Note_on_c, 0, 60, 0
3, 20880, Note_on_c, 0, 52, 31
3, 21000, Note_on_c, 0, 52, 0
3, 21000, Note_on_c, 0, 60, 27
3, 21120, Note_on_c, 0, 60, 0
3, 21120, Note_on_c, 0, 53, 46
3, 21600, Note_on_c, 0, 53, 0
3, 22080, Note_on_c, 0, 58, 42
3, 22080, Note_on_c, 0, 46, 42
3, 22560, Note_on_c, 0, 46, 0
3, 22560, Note_on_c, 0, 58, 0
3, 22800, Note_on_c, 0, 59, 44
3, 23040, Note_on_c, 0, 59, 0
3, 23040, Note_on_c, 0, 60, 49
3, 23280, Note_on_c, 0, 60, 0
3, 23280, Note_on_c, 0, 55, 39
3, 23400, Note_on_c, 0, 55, 0
3, 23520, Note_on_c, 0, 48, 45
3, 23760, Note_on_c, 0, 48, 0
3, 24000, Note_on_c, 0, 65, 28
3, 24000, Note_on_c, 0, 69, 34
3, 24480, Note_on_c, 0, 69, 0
3, 24480, Note_on_c, 0, 65, 0
3, 24960, Note_on_c, 0, 69, 39
3, 24960, Note_on_c, 0, 65, 32
3, 25080, Note_on_c, 0, 65, 0
3, 25080, Note_on_c, 0, 69, 0
3, 25200, Note_on_c, 0, 65, 24
3, 25200, Note_on_c, 0, 69, 28
3, 25320, Note_on_c, 0, 69, 0
3, 25320, Note_on_c, 0, 65, 0
3, 25440, Note_on_c, 0, 65, 24
3, 25440, Note_on_c, 0, 69, 28
3, 25560, Note_on_c, 0, 69, 0
3, 25560, Note_on_c, 0, 65, 0
3, 25680, Note_on_c, 0, 65, 24
3, 25680, Note_on_c, 0, 69, 28
3, 25800, Note_on_c, 0, 69, 0
3, 25800, Note_on_c, 0, 65, 0
3, 25920, Note_on_c, 0, 67, 37
3, 25920, Note_on_c, 0, 60, 30
3, 26040, Note_on_c, 0, 60, 0
3, 26040, Note_on_c, 0, 67, 0
3, 26160, Note_on_c, 0, 60, 24
3, 26160, Note_on_c, 0, 67, 29
3, 26280, Note_on_c, 0, 67, 0
3, 26280, Note_on_c, 0, 60, 0
3, 26400, Note_on_c, 0, 60, 24
3, 26400, Note_on_c, 0, 67, 29
3, 26520, Note_on_c, 0, 67, 0
3, 26520, Note_on_c, 0, 60, 0
3, 26640, Note_on_c, 0, 60, 22
3, 26640, Note_on_c, 0, 67, 27
3, 26700, Note_on_c, 0, 67, 0
3, 26700, Note_on_c, 0, 60, 0
3, 26880, Note_on_c, 0, 65, 34
3, 27120, Note_on_c, 0, 65, 0
3, 27120, Note_on_c, 0, 60, 26
3, 27180, Note_on_c, 0, 60, 0
3, 27360, Note_on_c, 0, 53, 32
3, 27840, Note_on_c, 0, 53, 0
3, 27840, Note_on_c, 0, 65, 28
3, 27840, Note_on_c, 0, 69, 34
3, 28320, Note_on_c, 0, 69, 0
3, 28320, Note_on_c, 0, 65, 0
3, 28800, Note_on_c, 0, 69, 39
3, 28800, Note_on_c, 0, 65, 32
3, 28920, Note_on_c, 0, 65, 0
3, 28920, Note_on_c, 0, 69, 0
3, 29040, Note_on_c, 0, 65, 24
3, 29040, Note_on_c, 0, 69, 28
3, 29160, Note_on_c, 0, 69, 0
3, 29160, Note_on_c, 0, 65, 0
3, 29280, Note_on_c, 0, 65, 24
3, 29280, Note_on_c, 0, 69, 28
3, 29400, Note_on_c, 0, 69, 0
3, 29400, Note_on_c, 0, 65, 0
3, 29520, Note_on_c, 0, 65, 24
3, 29520, Note_on_c, 0, 69, 28
3, 29640, Note_on_c, 0, 69, 0
3, 29640, Note_on_c, 0, 65, 0
3, 29760, Note_on_c, 0, 67, 34
3, 29760, Note_on_c, 0, 58, 28
3, 30240, Note_on_c, 0, 58, 0
3, 30240, Note_on_c, 0, 67, 0
3, 30240, Note_on_c, 0, 60, 22
3, 30240, Note_on_c, 0, 67, 27
3, 30720, Note_on_c, 0, 67, 0
3, 30720, Note_on_c, 0, 60, 0
3, 30720, Note_on_c, 0, 53, 29
3, 30720, Note_on_c, 0, 65, 34
3, 31200, Note_on_c, 0, 65, 0
3, 31200, Note_on_c, 0, 53, 0
3, 31680, Note_on_c, 0, 52, 35
3, 31800, Note_on_c, 0, 52, 0
3, 31800, Note_on_c, 0, 60, 25
3, 31920, Note_on_c, 0, 60, 0
3, 31920, Note_on_c, 0, 52, 28
3, 32040, Note_on_c, 0, 52, 0
3, 32040, Note_on_c, 0, 60, 25
3, 32160, Note_on_c, 0, 60, 0
3, 32160, Note_on_c, 0, 52, 31
3, 32280, Note_on_c, 0, 52, 0
3, 32280, Note_on_c, 0, 60, 26
3, 32400, Note_on_c, 0, 60, 0
3, 32400, Note_on_c, 0, 52, 28
3, 32520, Note_on_c, 0, 52, 0
3, 32520, Note_on_c, 0, 60, 25
3, 32640, Note_on_c, 0, 60, 0
3, 32640, Note_on_c, 0, 53, 38
3, 32760, Note_on_c, 0, 53, 0
3, 32760, Note_on_c, 0, 60, 25
3, 32880, Note_on_c, 0, 60, 0
3, 32880, Note_on_c, 0, 53, 29
3, 33000, Note_on_c, 0, 53, 0
3, 33000, Note_on_c, 0, 60, 27
3, 33120, Note_on_c, 0, 60, 0
3, 33120, Note_on_c, 0, 53, 31
3, 33240, Note_on_c, 0, 53, 0
3, 33240, Note_on_c, 0, 60, 30
3, 33360, Note_on_c, 0, 60, 0
3, 33360, Note_on_c, 0, 53, 41
3, 33480, Note_on_c, 0, 53, 0
3, 33480, Note_on_c, 0, 60, 29
3, 33600, Note_on_c, 0, 60, 0
3, 33600, Note_on_c, 0, 55, 48
3, 33720, Note_on_c, 0, 55, 0
3, 33720, Note_on_c, 0, 60, 31
3, 33840, Note_on_c, 0, 60, 0
3, 33840, Note_on_c, 0, 55, 35
3, 33960, Note_on_c, 0, 55, 0
3, 33960, Note_on_c, 0, 60, 28
3, 34080, Note_on_c, 0, 60, 0
3, 34080, Note_on_c, 0, 55, 37
3, 34200, Note_on_c, 0, 55, 0
3, 34200, Note_on_c, 0, 60, 30
3, 34320, Note_on_c, 0, 60, 0
3, 34320, Note_on_c, 0, 55, 37
3, 34440, Note_on_c, 0, 55, 0
3, 34440, Note_on_c, 0, 60, 34
3, 34560, Note_on_c, 0, 60, 0
3, 34560, Note_on_c, 0, 57, 47
3, 34680, Note_on_c, 0, 57, 0
3, 34680, Note_on_c, 0, 60, 34
3, 34800, Note_on_c, 0, 60, 0
3, 34800, Note_on_c, 0, 57, 33
3, 34920, Note_on_c, 0, 57, 0
3, 34920, Note_on_c, 0, 60, 28
3, 35040, Note_on_c, 0, 60, 0
3, 35040, Note_on_c, 0, 57, 36
3, 35160, Note_on_c, 0, 57, 0
3, 35160, Note_on_c, 0, 60, 31
3, 35280, Note_on_c, 0, 60, 0
3, 35280, Note_on_c, 0, 57, 36
3, 35400, Note_on_c, 0, 57, 0
3, 35400, Note_on_c, 0, 60, 32
3, 35520, Note_on_c, 0, 60, 0
3, 35520, Note_on_c, 0, 52, 40
3, 35640, Note_on_c, 0, 52, 0
3, 35640, Note_on_c, 0, 60, 28
3, 35760, Note_on_c, 0, 60, 0
3, 35760, Note_on_c, 0, 52, 32
3, 35880, Note_on_c, 0, 52, 0
3, 35880, Note_on_c, 0, 60, 28
3, 36000, Note_on_c, 0, 60, 0
3, 36000, Note_on_c, 0, 52, 34
3, 36120, Note_on_c, 0, 52, 0
3, 36120, Note_on_c, 0, 60, 28
3, 36240, Note_on_c, 0, 60, 0
3, 36240, Note_on_c, 0, 52, 31
3, 36360, Note_on_c, 0, 52, 0
3, 36360, Note_on_c, 0, 60, 27
3, 36480, Note_on_c, 0, 60, 0
3, 36480, Note_on_c, 0, 53, 46
3, 36960, Note_on_c, 0, 53, 0
3, 37440, Note_on_c, 0, 58, 42
3, 37440, Note_on_c, 0, 46, 42
3, 37920, Note_on_c, 0, 46, 0
3, 37920, Note_on_c, 0, 58, 0
3, 38160, Note_on_c, 0, 59, 44
3, 38400, Note_on_c, 0, 59, 0
3, 38400, Note_on_c, 0, 60, 49
3, 38640, Note_on_c, 0, 60, 0
3, 38640, Note_on_c, 0, 55, 39
3, 38760, Note_on_c, 0, 55, 0
3, 38880, Note_on_c, 0, 48, 45
3, 39120, Note_on_c, 0, 48, 0
3, 39360, Note_on_c, 0, 65, 33
3, 39360, Note_on_c, 0, 69, 40
3, 39840, Note_on_c, 0, 69, 0
3, 39840, Note_on_c, 0, 65, 0
3, 40320, Note_on_c, 0, 69, 46
3, 40320, Note_on_c, 0, 65, 38
3, 40440, Note_on_c, 0, 65, 0
3, 40440, Note_on_c, 0, 69, 0
3, 40560, Note_on_c, 0, 65, 28
3, 40560, Note_on_c, 0, 69, 33
3, 40680, Note_on_c, 0, 69, 0
3, 40680, Note_on_c, 0, 65, 0
3, 40800, Note_on_c, 0, 65, 28
3, 40800, Note_on_c, 0, 69, 33
3, 40920, Note_on_c, 0, 69, 0
3, 40920, Note_on_c, 0, 65, 0
3, 41040, Note_on_c, 0, 65, 28
3, 41040, Note_on_c, 0, 69, 33
3, 41160, Note_on_c, 0, 69, 0
3, 41160, Note_on_c, 0, 65, 0
3, 41280, Note_on_c, 0, 67, 44
3, 41280, Note_on_c, 0, 60, 36
3, 41400, Note_on_c, 0, 60, 0
3, 41400, Note_on_c, 0, 67, 0
3, 41520, Note_on_c, 0, 60, 28
3, 41520, Note_on_c, 0, 67, 34
3, 41640, Note_on_c, 0, 67, 0
3, 41640, Note_on_c, 0, 60, 0
3, 41760, Note_on_c, 0, 60, 28
3, 41760, Note_on_c, 0, 67, 34
3, 41880, Note_on_c, 0, 67, 0
3, 41880, Note_on_c, 0, 60, 0
3, 42000, Note_on_c, 0, 60, 26
3, 42000, Note_on_c, 0, 67, 32
3, 42060, Note_on_c, 0, 67, 0
3, 42060, Note_on_c, 0, 60, 0
3, 42240, Note_on_c, 0, 65, 40
3, 42480, Note_on_c, 0, 65, 0
3, 42480, Note_on_c, 0, 60, 31
3, 42540, Note_on_c, 0, 60, 0
3, 42720, Note_on_c, 0, 53, 38
3, 43200, Note_on_c, 0, 53, 0
3, 43200, Note_on_c, 0, 65, 33
3, 43200, Note_on_c, 0, 69, 40
3, 43680, Note_on_c, 0, 69, 0
3, 43680, Note_on_c, 0, 65, 0
3, 44160, Note_on_c, 0, 69, 46
3, 44160, Note_on_c, 0, 65, 38
3, 44280, Note_on_c, 0, 65, 0
3, 44280, Note_on_c, 0, 69, 0
3, 44400, Note_on_c, 0, 65, 28
3, 44400, Note_on_c, 0, 69, 33
3, 44520, Note_on_c, 0, 69, 0
3, 44520, Note_on_c, 0, 65, 0
3, 44640, Note_on_c, 0, 65, 28
3, 44640, Note_on_c, 0, 69, 33
3, 44760, Note_on_c, 0, 69, 0
3, 44760, Note_on_c, 0, 65, 0
3, 44880, Note_on_c, 0, 65, 28
3, 44880, Note_on_c, 0, 69, 33
3, 45000, Note_on_c, 0, 69, 0
3, 45000, Note_on_c, 0, 65, 0
3, 45120, Note_on_c, 0, 67, 40
3, 45120, Note_on_c, 0, 58, 33
3, 45600, Note_on_c, 0, 58, 0
3, 45600, Note_on_c, 0, 67, 0
3, 45600, Note_on_c, 0, 60, 26
3, 45600, Note_on_c, 0, 67, 32
3, 46080, Note_on_c, 0, 67, 0
3, 46080, Note_on_c, 0, 60, 0
3, 46080, Note_on_c, 0, 53, 27
3, 46080, Note_on_c, 0, 65, 38
3, 46560, Note_on_c, 0, 65, 0
3, 46560, Note_on_c, 0, 53, 0
3, 46560, End_track
4, 0, Start_track
4, 0, Title_t, "Pedale"
4, 0, Program_c, 0, 0
4, 0, End_track
5, 0, Start_track
5, 0, Title_t, "Haydn Piano Sonata in F major, 3. movement"
5, 0, End_track
6, 0, Start_track
6, 0, Title_t, "Copyright © 2010 by Bernd Krueger"
6, 0, End_track
7, 0, Start_track
7, 0, Title_t, "http://www.piano-midi.de/"
7, 0, End_track
8, 0, Start_track
8, 0, Title_t, "Edition: 2011-11-12"
8, 0, End_track
9, 0, Start_track
9, 0, Title_t, "Spur 8"
9, 0, End_track
10, 0, Start_track
10, 0, Title_t, "Spur 9"
10, 0, End_track
11, 0, Start_track
11, 0, Title_t, "Spur 10"
11, 0, End_track
12, 0, Start_track
12, 0, Title_t, "Spur 11"
12, 0, End_track
13, 0, Start_track
13, 0, Title_t, "Spur 12"
13, 0, End_track
14, 0, Start_track
14, 0, Title_t, "Spur 13"
14, 0, End_track
15, 0, Start_track
15, 0, Title_t, "Spur 14"
15, 0, End_track
16, 0, Start_track
16, 0, Title_t, "Spur 15"
16, 0, End_track
17, 0, Start_track
17, 0, Title_t, "Spur 16"
17, 0, End_track
0, 0, End_of_file
