0, 0, Header, 1, 17, 480
1, 0, Start_track
1, 0, Title_t, "Haydn: Klaviersonate Hob. XVI:7, 2. Satz"
1, 0, Copyright_t, "Copyright © 2011 by Bernd Krueger"
1, 0, Text_t, "Bernd Krueger"
1, 0, Text_t, "Menuet"
1, 0, Text_t, "Erstellt: 24.10.2011\012"
1, 0, Text_t, "Dauer: 2:20 Minuten\012"
1, 0, Time_signature, 3, 2, 24, 8
1, 0, Key_signature, 0, "major"
1, 0, Tempo, 530786
1, 0, Marker_t, "Teil 1"
1, 960, Tempo, 514271
1, 1320, Tempo, 553710
1, 1440, Tempo, 530786
1, 2400, Tempo, 516573
1, 2760, Tempo, 551065
1, 2880, Tempo, 530786
1, 3840, Tempo, 518896
1, 4200, Tempo, 556380
1, 4320, Tempo, 525947
1, 4800, Tempo, 538213
1, 5760, Tempo, 521241
1, 6240, Tempo, 507485
1, 7200, Tempo, 518896
1, 7680, Tempo, 507485
1, 8640, Tempo, 518896
1, 9120, Tempo, 516573
1, 9543, Tempo, 530786
1, 9562, Tempo, 528355
1, 9581, Tempo, 525947
1, 9600, Tempo, 523606
1, 9619, Tempo, 521241
1, 9639, Tempo, 518896
1, 9658, Tempo, 516573
1, 9677, Tempo, 514271
1, 9696, Tempo, 511989
1, 9715, Tempo, 509727
1, 9735, Tempo, 507485
1, 9754, Tempo, 505263
1, 9773, Tempo, 503060
1, 9792, Tempo, 498712
1, 9831, Tempo, 500877
1, 9850, Tempo, 503060
1, 9869, Tempo, 505263
1, 9888, Tempo, 507485
1, 9907, Tempo, 509727
1, 9946, Tempo, 511989
1, 9965, Tempo, 514271
1, 9984, Tempo, 516573
1, 10003, Tempo, 518896
1, 10023, Tempo, 521241
1, 10042, Tempo, 523606
1, 10080, Tempo, 535714
1, 10560, Tempo, 551065
1, 11520, Tempo, 530786
1, 11520, Marker_t, "Teil 1 Wiederholung"
1, 11640, Tempo, 520698
1, 12000, Tempo, 527565
1, 12480, Tempo, 514271
1, 12840, Tempo, 553710
1, 12960, Tempo, 530786
1, 13920, Tempo, 516573
1, 14280, Tempo, 551065
1, 14400, Tempo, 530786
1, 15360, Tempo, 518896
1, 15720, Tempo, 556380
1, 15840, Tempo, 520698
1, 16080, Tempo, 537009
1, 16320, Tempo, 538213
1, 17280, Tempo, 521241
1, 17760, Tempo, 507485
1, 18240, Tempo, 505348
1, 18720, Tempo, 518896
1, 19200, Tempo, 507485
1, 20160, Tempo, 518896
1, 20640, Tempo, 516573
1, 21063, Tempo, 530786
1, 21082, Tempo, 528355
1, 21101, Tempo, 525947
1, 21120, Tempo, 523606
1, 21139, Tempo, 521241
1, 21159, Tempo, 518896
1, 21178, Tempo, 516573
1, 21197, Tempo, 514271
1, 21216, Tempo, 511989
1, 21235, Tempo, 509727
1, 21255, Tempo, 507485
1, 21274, Tempo, 505263
1, 21293, Tempo, 503060
1, 21312, Tempo, 498712
1, 21351, Tempo, 500877
1, 21370, Tempo, 503060
1, 21389, Tempo, 505263
1, 21408, Tempo, 507485
1, 21427, Tempo, 509727
1, 21466, Tempo, 511989
1, 21485, Tempo, 514271
1, 21504, Tempo, 516573
1, 21523, Tempo, 518896
1, 21543, Tempo, 521241
1, 21562, Tempo, 523606
1, 21600, Tempo, 535714
1, 22080, Tempo, 559545
1, 23040, Tempo, 482975
1, 23040, Marker_t, "Teil 2"
1, 23520, Tempo, 529895
1, 24000, Tempo, 514271
1, 24360, Tempo, 553710
1, 24480, Tempo, 488878
1, 24960, Tempo, 529895
1, 25440, Tempo, 516573
1, 25800, Tempo, 551065
1, 25920, Tempo, 518896
1, 26400, Tempo, 532245
1, 26640, Tempo, 548446
1, 26880, Tempo, 516218
1, 27240, Tempo, 556380
1, 27360, Tempo, 525947
1, 27840, Tempo, 538213
1, 28800, Tempo, 521241
1, 29280, Tempo, 507485
1, 29760, Tempo, 501128
1, 30240, Tempo, 518896
1, 30720, Tempo, 507485
1, 30799, Tempo, 507485
1, 30972, Tempo, 505263
1, 31145, Tempo, 503060
1, 31317, Tempo, 500877
1, 31490, Tempo, 498712
1, 31663, Tempo, 496565
1, 31680, Tempo, 518896
1, 32160, Tempo, 516573
1, 32583, Tempo, 530786
1, 32602, Tempo, 528355
1, 33082, Tempo, 523606
1, 33120, Tempo, 535714
1, 33600, Tempo, 556380
1, 34560, Tempo, 490878
1, 34560, Marker_t, "Teil 2 Wiederholung"
1, 35160, Tempo, 525256
1, 35520, Tempo, 514271
1, 35880, Tempo, 553710
1, 36000, Tempo, 494927
1, 36480, Tempo, 532245
1, 36960, Tempo, 516573
1, 37320, Tempo, 551065
1, 37440, Tempo, 518896
1, 37920, Tempo, 507485
1, 38160, Tempo, 548446
1, 38400, Tempo, 518896
1, 38760, Tempo, 556380
1, 38880, Tempo, 525947
1, 39360, Tempo, 538213
1, 40320, Tempo, 521241
1, 40800, Tempo, 507485
1, 41760, Tempo, 518896
1, 42240, Tempo, 507485
1, 42319, Tempo, 507485
1, 42492, Tempo, 505263
1, 42665, Tempo, 503060
1, 42837, Tempo, 500877
1, 43010, Tempo, 498712
1, 43183, Tempo, 496565
1, 43200, Tempo, 518896
1, 43680, Tempo, 516573
1, 44103, Tempo, 530786
1, 44122, Tempo, 528355
1, 44602, Tempo, 523606
1, 44640, Tempo, 535714
1, 45120, Tempo, 554375
1, 45840, Tempo, 584567
1, 46080, Key_signature, -2, "major"
1, 46080, Tempo, 546797
1, 46080, Marker_t, "Trio Teil 1"
1, 46320, Tempo, 499043
1, 46560, Tempo, 522967
1, 46800, Tempo, 501128
1, 47040, Tempo, 529895
1, 47280, Tempo, 514007
1, 47520, Tempo, 522967
1, 47760, Tempo, 511814
1, 48000, Tempo, 529895
1, 48120, Tempo, 537009
1, 48240, Tempo, 522967
1, 48480, Tempo, 544316
1, 48720, Tempo, 556948
1, 48960, Tempo, 537009
1, 49200, Tempo, 499043
1, 49440, Tempo, 522967
1, 49680, Tempo, 501128
1, 49920, Tempo, 529895
1, 50160, Tempo, 509641
1, 50400, Tempo, 527565
1, 50640, Tempo, 514007
1, 50880, Tempo, 527565
1, 51000, Tempo, 537009
1, 51120, Tempo, 522967
1, 51240, Tempo, 539423
1, 51360, Tempo, 549300
1, 51600, Tempo, 556948
1, 51960, Tempo, 527565
1, 52320, Tempo, 556948
1, 52440, Tempo, 522967
1, 52800, Tempo, 556948
1, 52920, Tempo, 518448
1, 53280, Tempo, 529895
1, 53520, Tempo, 522967
1, 53760, Tempo, 527565
1, 53880, Tempo, 537009
1, 54000, Tempo, 525256
1, 54120, Tempo, 539423
1, 54240, Tempo, 549300
1, 54480, Tempo, 556948
1, 54720, Tempo, 546797
1, 55680, Tempo, 554375
1, 56160, Tempo, 546797
1, 56640, Tempo, 539423
1, 56643, Tempo, 529895
1, 56739, Tempo, 532245
1, 56835, Tempo, 534616
1, 56912, Tempo, 537009
1, 57008, Tempo, 539423
1, 57085, Tempo, 541859
1, 57181, Tempo, 544316
1, 57257, Tempo, 546797
1, 57353, Tempo, 549300
1, 57430, Tempo, 551826
1, 57526, Tempo, 554375
1, 57600, Tempo, 529895
1, 57600, Marker_t, "Trio Teil 1 Wiederholung"
1, 57840, Tempo, 514007
1, 58080, Tempo, 522967
1, 58320, Tempo, 501128
1, 58560, Tempo, 529895
1, 58800, Tempo, 516218
1, 59040, Tempo, 529895
1, 59280, Tempo, 511814
1, 59520, Tempo, 522967
1, 59640, Tempo, 532245
1, 59760, Tempo, 518448
1, 60000, Tempo, 529895
1, 60240, Tempo, 556948
1, 60480, Tempo, 514007
1, 60720, Tempo, 501128
1, 60960, Tempo, 522967
1, 61200, Tempo, 505348
1, 61440, Tempo, 529895
1, 61680, Tempo, 509641
1, 61920, Tempo, 532245
1, 62160, Tempo, 520698
1, 62400, Tempo, 527565
1, 62520, Tempo, 527565
1, 62640, Tempo, 520698
1, 62760, Tempo, 539423
1, 62880, Tempo, 549300
1, 63120, Tempo, 556948
1, 63480, Tempo, 527565
1, 63840, Tempo, 556948
1, 63960, Tempo, 522967
1, 64320, Tempo, 556948
1, 64440, Tempo, 518448
1, 64800, Tempo, 529895
1, 65040, Tempo, 520698
1, 65280, Tempo, 527565
1, 65400, Tempo, 539423
1, 65520, Tempo, 529895
1, 65640, Tempo, 539423
1, 65760, Tempo, 549300
1, 66000, Tempo, 556948
1, 66240, Tempo, 546797
1, 67200, Tempo, 554375
1, 67680, Tempo, 546797
1, 68160, Tempo, 539423
1, 68163, Tempo, 529895
1, 68259, Tempo, 532245
1, 68355, Tempo, 534616
1, 68432, Tempo, 537009
1, 68528, Tempo, 539423
1, 68605, Tempo, 541859
1, 68701, Tempo, 544316
1, 68777, Tempo, 546797
1, 68873, Tempo, 549300
1, 68950, Tempo, 551826
1, 69046, Tempo, 554375
1, 69120, Tempo, 534616
1, 69120, Marker_t, "Trio Teil 2"
1, 69360, Tempo, 507485
1, 69600, Tempo, 522967
1, 69840, Tempo, 505348
1, 70080, Tempo, 529895
1, 70320, Tempo, 516218
1, 70575, Tempo, 527565
1, 70805, Tempo, 525256
1, 71036, Tempo, 522967
1, 71266, Tempo, 520698
1, 71477, Tempo, 518448
1, 71520, Tempo, 544316
1, 72000, Tempo, 529895
1, 72240, Tempo, 509641
1, 72480, Tempo, 522967
1, 72720, Tempo, 505348
1, 72960, Tempo, 529895
1, 73200, Tempo, 514007
1, 73455, Tempo, 527565
1, 73685, Tempo, 525256
1, 73916, Tempo, 522967
1, 74146, Tempo, 520698
1, 74357, Tempo, 518448
1, 74400, Tempo, 544316
1, 74880, Tempo, 546797
1, 75120, Tempo, 503229
1, 75360, Tempo, 522967
1, 75600, Tempo, 503229
1, 75720, Tempo, 503229
1, 75840, Tempo, 529895
1, 76080, Tempo, 514007
1, 76320, Tempo, 529895
1, 76560, Tempo, 516218
1, 76800, Tempo, 529895
1, 76920, Tempo, 520698
1, 77040, Tempo, 544316
1, 77520, Tempo, 556948
1, 77760, Tempo, 520698
1, 78000, Tempo, 499043
1, 78240, Tempo, 516218
1, 78480, Tempo, 496977
1, 78600, Tempo, 496977
1, 78720, Tempo, 529895
1, 78960, Tempo, 514007
1, 79200, Tempo, 520698
1, 79440, Tempo, 511814
1, 79680, Tempo, 527565
1, 79800, Tempo, 532245
1, 79920, Tempo, 518448
1, 80040, Tempo, 539423
1, 80160, Tempo, 549300
1, 80400, Tempo, 556948
1, 80760, Tempo, 527565
1, 81120, Tempo, 556948
1, 81240, Tempo, 518448
1, 81600, Tempo, 556948
1, 81720, Tempo, 514007
1, 82080, Tempo, 529895
1, 82320, Tempo, 518448
1, 82560, Tempo, 527565
1, 82680, Tempo, 539423
1, 82800, Tempo, 529895
1, 82920, Tempo, 539423
1, 83040, Tempo, 549300
1, 83280, Tempo, 556948
1, 83520, Tempo, 546797
1, 84480, Tempo, 554375
1, 84960, Tempo, 546797
1, 85440, Tempo, 539423
1, 85443, Tempo, 529895
1, 85539, Tempo, 532245
1, 85635, Tempo, 534616
1, 85712, Tempo, 537009
1, 85808, Tempo, 539423
1, 85885, Tempo, 541859
1, 85981, Tempo, 544316
1, 86057, Tempo, 546797
1, 86153, Tempo, 549300
1, 86230, Tempo, 551826
1, 86326, Tempo, 554375
1, 86400, Tempo, 532245
1, 86400, Marker_t, "Trio Teil 2 Wiederholung"
1, 86640, Tempo, 507485
1, 86880, Tempo, 511814
1, 87120, Tempo, 501128
1, 87360, Tempo, 529895
1, 87855, Tempo, 527565
1, 88085, Tempo, 525256
1, 88316, Tempo, 522967
1, 88546, Tempo, 520698
1, 88757, Tempo, 518448
1, 88800, Tempo, 544316
1, 89280, Tempo, 537009
1, 89520, Tempo, 509641
1, 89760, Tempo, 522967
1, 90000, Tempo, 507485
1, 90240, Tempo, 529895
1, 90735, Tempo, 527565
1, 90965, Tempo, 525256
1, 91196, Tempo, 522967
1, 91426, Tempo, 520698
1, 91637, Tempo, 518448
1, 91680, Tempo, 544316
1, 92160, Tempo, 546797
1, 92400, Tempo, 503229
1, 92640, Tempo, 522967
1, 92880, Tempo, 505348
1, 93120, Tempo, 529895
1, 93600, Tempo, 520698
1, 93840, Tempo, 516218
1, 94080, Tempo, 529895
1, 94200, Tempo, 537009
1, 94320, Tempo, 520698
1, 94560, Tempo, 539423
1, 94800, Tempo, 556948
1, 95040, Tempo, 537009
1, 95280, Tempo, 511814
1, 95520, Tempo, 522967
1, 95760, Tempo, 505348
1, 96000, Tempo, 529895
1, 96480, Tempo, 522967
1, 96720, Tempo, 509641
1, 96960, Tempo, 527565
1, 97080, Tempo, 534616
1, 97200, Tempo, 520698
1, 97320, Tempo, 520698
1, 97440, Tempo, 549300
1, 97680, Tempo, 556948
1, 98040, Tempo, 518448
1, 98400, Tempo, 556948
1, 98520, Tempo, 518448
1, 98880, Tempo, 556948
1, 99000, Tempo, 516218
1, 99360, Tempo, 529895
1, 99600, Tempo, 546797
1, 99840, Tempo, 527565
1, 99960, Tempo, 559545
1, 100080, Tempo, 541859
1, 100200, Tempo, 539423
1, 100320, Tempo, 549300
1, 100560, Tempo, 556948
1, 100800, Tempo, 546797
1, 101760, Tempo, 554375
1, 102240, Tempo, 546797
1, 102720, Tempo, 601624
1, 103200, Tempo, 626763
1, 103560, Tempo, 716589
1, 103680, Key_signature, 0, "major"
1, 103680, Tempo, 530786
1, 103680, Marker_t, "Da Capo Teil 1"
1, 104400, Tempo, 516218
1, 104520, Tempo, 518448
1, 104640, Tempo, 514271
1, 105000, Tempo, 553710
1, 105120, Tempo, 530786
1, 105840, Tempo, 518448
1, 106080, Tempo, 516573
1, 106440, Tempo, 551065
1, 106560, Tempo, 530786
1, 107520, Tempo, 518896
1, 107880, Tempo, 567483
1, 108000, Tempo, 525947
1, 108480, Tempo, 538213
1, 109440, Tempo, 521241
1, 109920, Tempo, 507485
1, 110880, Tempo, 518896
1, 111360, Tempo, 507485
1, 112320, Tempo, 518896
1, 112800, Tempo, 516573
1, 113223, Tempo, 530786
1, 113242, Tempo, 528355
1, 113261, Tempo, 525947
1, 113280, Tempo, 523606
1, 113299, Tempo, 521241
1, 113319, Tempo, 518896
1, 113338, Tempo, 516573
1, 113357, Tempo, 514271
1, 113376, Tempo, 511989
1, 113395, Tempo, 509727
1, 113415, Tempo, 507485
1, 113434, Tempo, 505263
1, 113453, Tempo, 503060
1, 113472, Tempo, 498712
1, 113511, Tempo, 500877
1, 113530, Tempo, 503060
1, 113549, Tempo, 505263
1, 113568, Tempo, 507485
1, 113587, Tempo, 509727
1, 113626, Tempo, 511989
1, 113645, Tempo, 514271
1, 113664, Tempo, 516573
1, 113683, Tempo, 518896
1, 113703, Tempo, 521241
1, 113722, Tempo, 523606
1, 113760, Tempo, 535714
1, 114240, Tempo, 562166
1, 115200, Tempo, 490878
1, 115200, Marker_t, "Da Capo Teil 2"
1, 115680, Tempo, 525256
1, 116160, Tempo, 514271
1, 116520, Tempo, 553710
1, 116640, Tempo, 490878
1, 116760, Tempo, 492894
1, 117120, Tempo, 529895
1, 117600, Tempo, 516573
1, 117960, Tempo, 551065
1, 118080, Tempo, 518896
1, 118800, Tempo, 556948
1, 119040, Tempo, 518896
1, 119400, Tempo, 556380
1, 119520, Tempo, 525947
1, 120000, Tempo, 538213
1, 120960, Tempo, 521241
1, 121440, Tempo, 507485
1, 121920, Tempo, 505348
1, 122400, Tempo, 518896
1, 122880, Tempo, 507485
1, 122959, Tempo, 507485
1, 123132, Tempo, 505263
1, 123305, Tempo, 503060
1, 123477, Tempo, 500877
1, 123650, Tempo, 498712
1, 123823, Tempo, 496565
1, 123840, Tempo, 518896
1, 124320, Tempo, 532245
1, 124743, Tempo, 530786
1, 124762, Tempo, 528355
1, 124800, Tempo, 554375
1, 125280, Tempo, 567483
1, 125760, Tempo, 664967
1, 125760, End_track
2, 0, Start_track
2, 0, Title_t, "Piano right"
2, 0, Program_c, 0, 0
2, 0, Note_on_c, 0, 72, 57
2, 480, Note_on_c, 0, 72, 0
2, 480, Note_on_c, 0, 84, 57
2, 600, Note_on_c, 0, 84, 0
2, 960, Note_on_c, 0, 76, 57
2, 1200, Note_on_c, 0, 76, 0
2, 1320, Note_on_c, 0, 79, 48
2, 1440, Note_on_c, 0, 79, 0
2, 1440, Note_on_c, 0, 77, 57
2, 1920, Note_on_c, 0, 77, 0
2, 1920, Note_on_c, 0, 74, 52
2, 2040, Note_on_c, 0, 74, 0
2, 2400, Note_on_c, 0, 74, 57
2, 2640, Note_on_c, 0, 74, 0
2, 2760, Note_on_c, 0, 77, 54
2, 2880, Note_on_c, 0, 77, 0
2, 2880, Note_on_c, 0, 76, 57
2, 3360, Note_on_c, 0, 76, 0
2, 3360, Note_on_c, 0, 72, 54
2, 3480, Note_on_c, 0, 72, 0
2, 3840, Note_on_c, 0, 69, 58
2, 4080, Note_on_c, 0, 69, 0
2, 4200, Note_on_c, 0, 74, 46
2, 4320, Note_on_c, 0, 74, 0
2, 4320, Note_on_c, 0, 72, 58
2, 5280, Note_on_c, 0, 72, 0
2, 5280, Note_on_c, 0, 71, 55
2, 5520, Note_on_c, 0, 71, 0
2, 5760, Note_on_c, 0, 74, 75
2, 6240, Note_on_c, 0, 74, 0
2, 6240, Note_on_c, 0, 79, 57
2, 6360, Note_on_c, 0, 79, 0
2, 6360, Note_on_c, 0, 78, 55
2, 6480, Note_on_c, 0, 78, 0
2, 6480, Note_on_c, 0, 79, 57
2, 6600, Note_on_c, 0, 79, 0
2, 6600, Note_on_c, 0, 81, 55
2, 6720, Note_on_c, 0, 81, 0
2, 6720, Note_on_c, 0, 83, 62
2, 6840, Note_on_c, 0, 83, 0
2, 6840, Note_on_c, 0, 81, 55
2, 6960, Note_on_c, 0, 81, 0
2, 6960, Note_on_c, 0, 83, 62
2, 7080, Note_on_c, 0, 83, 0
2, 7080, Note_on_c, 0, 84, 59
2, 7200, Note_on_c, 0, 84, 0
2, 7200, Note_on_c, 0, 86, 73
2, 7680, Note_on_c, 0, 86, 0
2, 7680, Note_on_c, 0, 79, 57
2, 7800, Note_on_c, 0, 79, 0
2, 7800, Note_on_c, 0, 78, 55
2, 7920, Note_on_c, 0, 78, 0
2, 7920, Note_on_c, 0, 79, 57
2, 8040, Note_on_c, 0, 79, 0
2, 8040, Note_on_c, 0, 81, 55
2, 8160, Note_on_c, 0, 81, 0
2, 8160, Note_on_c, 0, 83, 62
2, 8280, Note_on_c, 0, 83, 0
2, 8280, Note_on_c, 0, 81, 55
2, 8400, Note_on_c, 0, 81, 0
2, 8400, Note_on_c, 0, 83, 62
2, 8520, Note_on_c, 0, 83, 0
2, 8520, Note_on_c, 0, 84, 59
2, 8640, Note_on_c, 0, 84, 0
2, 8640, Note_on_c, 0, 86, 75
2, 9120, Note_on_c, 0, 86, 0
2, 9120, Note_on_c, 0, 71, 58
2, 9600, Note_on_c, 0, 71, 0
2, 9600, Note_on_c, 0, 69, 57
2, 9660, Note_on_c, 0, 69, 0
2, 9660, Note_on_c, 0, 71, 50
2, 9720, Note_on_c, 0, 71, 0
2, 9720, Note_on_c, 0, 69, 52
2, 9780, Note_on_c, 0, 69, 0
2, 9780, Note_on_c, 0, 71, 58
2, 9840, Note_on_c, 0, 71, 0
2, 9840, Note_on_c, 0, 69, 49
2, 9915, Note_on_c, 0, 69, 0
2, 9915, Note_on_c, 0, 71, 52
2, 9990, Note_on_c, 0, 71, 0
2, 9990, Note_on_c, 0, 69, 52
2, 10065, Note_on_c, 0, 69, 0
2, 10080, Note_on_c, 0, 67, 58
2, 11040, Note_on_c, 0, 67, 0
2, 11520, Note_on_c, 0, 72, 57
2, 12000, Note_on_c, 0, 72, 0
2, 12000, Note_on_c, 0, 84, 57
2, 12120, Note_on_c, 0, 84, 0
2, 12480, Note_on_c, 0, 76, 57
2, 12720, Note_on_c, 0, 76, 0
2, 12840, Note_on_c, 0, 79, 48
2, 12960, Note_on_c, 0, 79, 0
2, 12960, Note_on_c, 0, 77, 57
2, 13440, Note_on_c, 0, 77, 0
2, 13440, Note_on_c, 0, 74, 52
2, 13560, Note_on_c, 0, 74, 0
2, 13920, Note_on_c, 0, 74, 57
2, 14160, Note_on_c, 0, 74, 0
2, 14280, Note_on_c, 0, 77, 54
2, 14400, Note_on_c, 0, 77, 0
2, 14400, Note_on_c, 0, 76, 57
2, 14880, Note_on_c, 0, 76, 0
2, 14880, Note_on_c, 0, 72, 54
2, 15000, Note_on_c, 0, 72, 0
2, 15360, Note_on_c, 0, 69, 58
2, 15600, Note_on_c, 0, 69, 0
2, 15720, Note_on_c, 0, 74, 46
2, 15840, Note_on_c, 0, 74, 0
2, 15840, Note_on_c, 0, 72, 58
2, 16800, Note_on_c, 0, 72, 0
2, 16800, Note_on_c, 0, 71, 55
2, 17040, Note_on_c, 0, 71, 0
2, 17280, Note_on_c, 0, 74, 75
2, 17760, Note_on_c, 0, 74, 0
2, 17760, Note_on_c, 0, 79, 57
2, 17880, Note_on_c, 0, 79, 0
2, 17880, Note_on_c, 0, 78, 55
2, 18000, Note_on_c, 0, 78, 0
2, 18000, Note_on_c, 0, 79, 57
2, 18120, Note_on_c, 0, 79, 0
2, 18120, Note_on_c, 0, 81, 55
2, 18240, Note_on_c, 0, 81, 0
2, 18240, Note_on_c, 0, 83, 62
2, 18360, Note_on_c, 0, 83, 0
2, 18360, Note_on_c, 0, 81, 55
2, 18480, Note_on_c, 0, 81, 0
2, 18480, Note_on_c, 0, 83, 62
2, 18600, Note_on_c, 0, 83, 0
2, 18600, Note_on_c, 0, 84, 59
2, 18720, Note_on_c, 0, 84, 0
2, 18720, Note_on_c, 0, 86, 75
2, 19200, Note_on_c, 0, 86, 0
2, 19200, Note_on_c, 0, 79, 57
2, 19320, Note_on_c, 0, 79, 0
2, 19320, Note_on_c, 0, 78, 55
2, 19440, Note_on_c, 0, 78, 0
2, 19440, Note_on_c, 0, 79, 57
2, 19560, Note_on_c, 0, 79, 0
2, 19560, Note_on_c, 0, 81, 55
2, 19680, Note_on_c, 0, 81, 0
2, 19680, Note_on_c, 0, 83, 62
2, 19800, Note_on_c, 0, 83, 0
2, 19800, Note_on_c, 0, 81, 55
2, 19920, Note_on_c, 0, 81, 0
2, 19920, Note_on_c, 0, 83, 62
2, 20040, Note_on_c, 0, 83, 0
2, 20040, Note_on_c, 0, 84, 59
2, 20160, Note_on_c, 0, 84, 0
2, 20160, Note_on_c, 0, 86, 76
2, 20640, Note_on_c, 0, 86, 0
2, 20640, Note_on_c, 0, 71, 58
2, 21120, Note_on_c, 0, 71, 0
2, 21120, Note_on_c, 0, 69, 57
2, 21180, Note_on_c, 0, 69, 0
2, 21180, Note_on_c, 0, 71, 50
2, 21240, Note_on_c, 0, 71, 0
2, 21240, Note_on_c, 0, 69, 52
2, 21300, Note_on_c, 0, 69, 0
2, 21300, Note_on_c, 0, 71, 58
2, 21360, Note_on_c, 0, 71, 0
2, 21360, Note_on_c, 0, 69, 49
2, 21435, Note_on_c, 0, 69, 0
2, 21435, Note_on_c, 0, 71, 52
2, 21510, Note_on_c, 0, 71, 0
2, 21510, Note_on_c, 0, 69, 52
2, 21585, Note_on_c, 0, 69, 0
2, 21600, Note_on_c, 0, 67, 58
2, 22560, Note_on_c, 0, 67, 0
2, 23040, Note_on_c, 0, 79, 57
2, 23520, Note_on_c, 0, 79, 0
2, 23520, Note_on_c, 0, 84, 57
2, 23640, Note_on_c, 0, 84, 0
2, 24000, Note_on_c, 0, 76, 57
2, 24240, Note_on_c, 0, 76, 0
2, 24360, Note_on_c, 0, 79, 48
2, 24480, Note_on_c, 0, 79, 0
2, 24480, Note_on_c, 0, 77, 57
2, 24960, Note_on_c, 0, 77, 0
2, 24960, Note_on_c, 0, 86, 52
2, 25080, Note_on_c, 0, 86, 0
2, 25440, Note_on_c, 0, 74, 57
2, 25680, Note_on_c, 0, 74, 0
2, 25800, Note_on_c, 0, 77, 54
2, 25920, Note_on_c, 0, 77, 0
2, 25920, Note_on_c, 0, 76, 57
2, 26400, Note_on_c, 0, 76, 0
2, 26400, Note_on_c, 0, 79, 62
2, 26880, Note_on_c, 0, 79, 0
2, 26880, Note_on_c, 0, 80, 58
2, 27240, Note_on_c, 0, 80, 0
2, 27254, Note_on_c, 0, 81, 51
2, 27360, Note_on_c, 0, 72, 58
2, 27374, Note_on_c, 0, 81, 0
2, 28320, Note_on_c, 0, 72, 0
2, 28320, Note_on_c, 0, 71, 55
2, 28560, Note_on_c, 0, 71, 0
2, 28800, Note_on_c, 0, 67, 75
2, 29280, Note_on_c, 0, 67, 0
2, 29280, Note_on_c, 0, 72, 57
2, 29400, Note_on_c, 0, 72, 0
2, 29400, Note_on_c, 0, 71, 55
2, 29515, Note_on_c, 0, 72, 57
2, 29520, Note_on_c, 0, 71, 0
2, 29635, Note_on_c, 0, 72, 0
2, 29640, Note_on_c, 0, 74, 55
2, 29755, Note_on_c, 0, 76, 62
2, 29760, Note_on_c, 0, 74, 0
2, 29875, Note_on_c, 0, 76, 0
2, 29880, Note_on_c, 0, 74, 55
2, 29995, Note_on_c, 0, 76, 62
2, 30000, Note_on_c, 0, 74, 0
2, 30115, Note_on_c, 0, 76, 0
2, 30120, Note_on_c, 0, 77, 59
2, 30240, Note_on_c, 0, 77, 0
2, 30240, Note_on_c, 0, 79, 81
2, 30720, Note_on_c, 0, 79, 0
2, 30720, Note_on_c, 0, 72, 57
2, 30960, Note_on_c, 0, 72, 0
2, 30960, Note_on_c, 0, 74, 57
2, 31080, Note_on_c, 0, 74, 0
2, 31080, Note_on_c, 0, 76, 55
2, 31200, Note_on_c, 0, 76, 0
2, 31200, Note_on_c, 0, 77, 63
2, 31320, Note_on_c, 0, 77, 0
2, 31320, Note_on_c, 0, 79, 65
2, 31440, Note_on_c, 0, 79, 0
2, 31440, Note_on_c, 0, 81, 66
2, 31560, Note_on_c, 0, 81, 0
2, 31560, Note_on_c, 0, 83, 69
2, 31680, Note_on_c, 0, 83, 0
2, 31680, Note_on_c, 0, 84, 78
2, 32160, Note_on_c, 0, 84, 0
2, 32160, Note_on_c, 0, 76, 69
2, 32160, Note_on_c, 0, 72, 58
2, 32640, Note_on_c, 0, 72, 0
2, 32640, Note_on_c, 0, 76, 0
2, 32640, Note_on_c, 0, 71, 58
2, 32640, Note_on_c, 0, 74, 69
2, 33120, Note_on_c, 0, 74, 0
2, 33120, Note_on_c, 0, 71, 0
2, 33120, Note_on_c, 0, 67, 60
2, 33120, Note_on_c, 0, 72, 69
2, 33120, Note_on_c, 0, 64, 60
2, 34320, Note_on_c, 0, 64, 0
2, 34320, Note_on_c, 0, 72, 0
2, 34320, Note_on_c, 0, 67, 0
2, 34560, Note_on_c, 0, 79, 57
2, 35040, Note_on_c, 0, 79, 0
2, 35040, Note_on_c, 0, 84, 57
2, 35160, Note_on_c, 0, 84, 0
2, 35520, Note_on_c, 0, 76, 57
2, 35760, Note_on_c, 0, 76, 0
2, 35880, Note_on_c, 0, 79, 48
2, 36000, Note_on_c, 0, 79, 0
2, 36000, Note_on_c, 0, 77, 57
2, 36480, Note_on_c, 0, 77, 0
2, 36480, Note_on_c, 0, 86, 52
2, 36600, Note_on_c, 0, 86, 0
2, 36960, Note_on_c, 0, 74, 57
2, 37200, Note_on_c, 0, 74, 0
2, 37320, Note_on_c, 0, 77, 54
2, 37440, Note_on_c, 0, 77, 0
2, 37440, Note_on_c, 0, 76, 57
2, 37920, Note_on_c, 0, 76, 0
2, 37920, Note_on_c, 0, 79, 62
2, 38400, Note_on_c, 0, 79, 0
2, 38400, Note_on_c, 0, 80, 58
2, 38760, Note_on_c, 0, 80, 0
2, 38774, Note_on_c, 0, 81, 51
2, 38880, Note_on_c, 0, 72, 59
2, 38894, Note_on_c, 0, 81, 0
2, 39840, Note_on_c, 0, 72, 0
2, 39840, Note_on_c, 0, 71, 55
2, 40080, Note_on_c, 0, 71, 0
2, 40320, Note_on_c, 0, 67, 75
2, 40800, Note_on_c, 0, 67, 0
2, 40800, Note_on_c, 0, 72, 57
2, 40920, Note_on_c, 0, 72, 0
2, 40920, Note_on_c, 0, 71, 55
2, 41035, Note_on_c, 0, 72, 57
2, 41040, Note_on_c, 0, 71, 0
2, 41155, Note_on_c, 0, 72, 0
2, 41160, Note_on_c, 0, 74, 55
2, 41275, Note_on_c, 0, 76, 62
2, 41280, Note_on_c, 0, 74, 0
2, 41395, Note_on_c, 0, 76, 0
2, 41400, Note_on_c, 0, 74, 55
2, 41515, Note_on_c, 0, 76, 62
2, 41520, Note_on_c, 0, 74, 0
2, 41635, Note_on_c, 0, 76, 0
2, 41640, Note_on_c, 0, 77, 59
2, 41760, Note_on_c, 0, 77, 0
2, 41760, Note_on_c, 0, 79, 81
2, 42240, Note_on_c, 0, 79, 0
2, 42240, Note_on_c, 0, 72, 57
2, 42480, Note_on_c, 0, 72, 0
2, 42480, Note_on_c, 0, 74, 57
2, 42600, Note_on_c, 0, 74, 0
2, 42600, Note_on_c, 0, 76, 55
2, 42720, Note_on_c, 0, 76, 0
2, 42720, Note_on_c, 0, 77, 63
2, 42840, Note_on_c, 0, 77, 0
2, 42840, Note_on_c, 0, 79, 65
2, 42960, Note_on_c, 0, 79, 0
2, 42960, Note_on_c, 0, 81, 66
2, 43080, Note_on_c, 0, 81, 0
2, 43080, Note_on_c, 0, 83, 69
2, 43200, Note_on_c, 0, 83, 0
2, 43200, Note_on_c, 0, 84, 78
2, 43680, Note_on_c, 0, 84, 0
2, 43680, Note_on_c, 0, 76, 69
2, 43680, Note_on_c, 0, 72, 58
2, 44160, Note_on_c, 0, 72, 0
2, 44160, Note_on_c, 0, 76, 0
2, 44160, Note_on_c, 0, 71, 58
2, 44160, Note_on_c, 0, 74, 69
2, 44640, Note_on_c, 0, 74, 0
2, 44640, Note_on_c, 0, 71, 0
2, 44640, Note_on_c, 0, 67, 60
2, 44640, Note_on_c, 0, 72, 69
2, 44640, Note_on_c, 0, 64, 60
2, 45840, Note_on_c, 0, 64, 0
2, 45840, Note_on_c, 0, 72, 0
2, 45840, Note_on_c, 0, 67, 0
2, 46320, Note_on_c, 0, 67, 46
2, 46560, Note_on_c, 0, 67, 0
2, 46800, Note_on_c, 0, 67, 43
2, 47040, Note_on_c, 0, 67, 0
2, 47280, Note_on_c, 0, 67, 42
2, 47520, Note_on_c, 0, 67, 0
2, 47760, Note_on_c, 0, 79, 46
2, 47760, Note_on_c, 0, 75, 39
2, 47820, Note_on_c, 0, 75, 0
2, 47820, Note_on_c, 0, 79, 0
2, 48000, Note_on_c, 0, 79, 48
2, 48000, Note_on_c, 0, 75, 40
2, 48240, Note_on_c, 0, 75, 0
2, 48240, Note_on_c, 0, 79, 0
2, 48240, Note_on_c, 0, 77, 41
2, 48240, Note_on_c, 0, 74, 34
2, 48300, Note_on_c, 0, 74, 0
2, 48300, Note_on_c, 0, 77, 0
2, 48480, Note_on_c, 0, 74, 39
2, 48480, Note_on_c, 0, 77, 46
2, 48720, Note_on_c, 0, 77, 0
2, 48720, Note_on_c, 0, 74, 0
2, 48720, Note_on_c, 0, 75, 40
2, 48720, Note_on_c, 0, 72, 33
2, 48780, Note_on_c, 0, 72, 0
2, 48780, Note_on_c, 0, 75, 0
2, 49200, Note_on_c, 0, 67, 46
2, 49440, Note_on_c, 0, 67, 0
2, 49680, Note_on_c, 0, 67, 43
2, 49920, Note_on_c, 0, 67, 0
2, 50160, Note_on_c, 0, 67, 42
2, 50400, Note_on_c, 0, 67, 0
2, 50640, Note_on_c, 0, 77, 46
2, 50640, Note_on_c, 0, 74, 39
2, 50700, Note_on_c, 0, 74, 0
2, 50700, Note_on_c, 0, 77, 0
2, 50880, Note_on_c, 0, 77, 48
2, 50880, Note_on_c, 0, 74, 40
2, 51120, Note_on_c, 0, 74, 0
2, 51120, Note_on_c, 0, 77, 0
2, 51120, Note_on_c, 0, 75, 41
2, 51120, Note_on_c, 0, 72, 34
2, 51180, Note_on_c, 0, 72, 0
2, 51180, Note_on_c, 0, 75, 0
2, 51360, Note_on_c, 0, 72, 39
2, 51360, Note_on_c, 0, 75, 46
2, 51600, Note_on_c, 0, 75, 0
2, 51600, Note_on_c, 0, 72, 0
2, 51600, Note_on_c, 0, 74, 40
2, 51600, Note_on_c, 0, 71, 33
2, 51660, Note_on_c, 0, 71, 0
2, 51660, Note_on_c, 0, 74, 0
2, 51960, Note_on_c, 0, 72, 39
2, 52080, Note_on_c, 0, 72, 0
2, 52080, Note_on_c, 0, 75, 47
2, 52200, Note_on_c, 0, 75, 0
2, 52200, Note_on_c, 0, 72, 41
2, 52320, Note_on_c, 0, 72, 0
2, 52440, Note_on_c, 0, 72, 42
2, 52560, Note_on_c, 0, 72, 0
2, 52560, Note_on_c, 0, 75, 50
2, 52680, Note_on_c, 0, 75, 0
2, 52680, Note_on_c, 0, 72, 42
2, 52800, Note_on_c, 0, 72, 0
2, 52920, Note_on_c, 0, 72, 46
2, 53040, Note_on_c, 0, 72, 0
2, 53040, Note_on_c, 0, 75, 55
2, 53160, Note_on_c, 0, 75, 0
2, 53160, Note_on_c, 0, 72, 47
2, 53280, Note_on_c, 0, 72, 0
2, 53520, Note_on_c, 0, 81, 46
2, 53520, Note_on_c, 0, 84, 55
2, 53580, Note_on_c, 0, 84, 0
2, 53580, Note_on_c, 0, 81, 0
2, 53760, Note_on_c, 0, 81, 51
2, 53760, Note_on_c, 0, 84, 62
2, 54000, Note_on_c, 0, 84, 0
2, 54000, Note_on_c, 0, 81, 0
2, 54000, Note_on_c, 0, 79, 43
2, 54000, Note_on_c, 0, 82, 51
2, 54060, Note_on_c, 0, 82, 0
2, 54060, Note_on_c, 0, 79, 0
2, 54240, Note_on_c, 0, 82, 57
2, 54240, Note_on_c, 0, 79, 48
2, 54480, Note_on_c, 0, 79, 0
2, 54480, Note_on_c, 0, 82, 0
2, 54480, Note_on_c, 0, 78, 41
2, 54480, Note_on_c, 0, 81, 49
2, 54720, Note_on_c, 0, 81, 0
2, 54720, Note_on_c, 0, 78, 0
2, 54720, Note_on_c, 0, 82, 58
2, 54720, Note_on_c, 0, 79, 58
2, 55200, Note_on_c, 0, 79, 0
2, 55200, Note_on_c, 0, 82, 0
2, 55200, Note_on_c, 0, 79, 48
2, 55200, Note_on_c, 0, 70, 48
2, 55680, Note_on_c, 0, 70, 0
2, 55680, Note_on_c, 0, 79, 0
2, 55680, Note_on_c, 0, 78, 47
2, 55680, Note_on_c, 0, 69, 47
2, 56160, Note_on_c, 0, 69, 0
2, 56160, Note_on_c, 0, 78, 0
2, 56160, Note_on_c, 0, 79, 55
2, 56160, Note_on_c, 0, 70, 55
2, 56640, Note_on_c, 0, 70, 0
2, 56640, Note_on_c, 0, 79, 0
2, 57840, Note_on_c, 0, 67, 46
2, 58080, Note_on_c, 0, 67, 0
2, 58320, Note_on_c, 0, 67, 43
2, 58560, Note_on_c, 0, 67, 0
2, 58800, Note_on_c, 0, 67, 42
2, 59040, Note_on_c, 0, 67, 0
2, 59280, Note_on_c, 0, 79, 46
2, 59280, Note_on_c, 0, 75, 39
2, 59340, Note_on_c, 0, 75, 0
2, 59340, Note_on_c, 0, 79, 0
2, 59520, Note_on_c, 0, 79, 48
2, 59520, Note_on_c, 0, 75, 40
2, 59760, Note_on_c, 0, 75, 0
2, 59760, Note_on_c, 0, 79, 0
2, 59760, Note_on_c, 0, 77, 41
2, 59760, Note_on_c, 0, 74, 34
2, 59820, Note_on_c, 0, 74, 0
2, 59820, Note_on_c, 0, 77, 0
2, 60000, Note_on_c, 0, 74, 39
2, 60000, Note_on_c, 0, 77, 46
2, 60240, Note_on_c, 0, 77, 0
2, 60240, Note_on_c, 0, 74, 0
2, 60240, Note_on_c, 0, 75, 40
2, 60240, Note_on_c, 0, 72, 33
2, 60300, Note_on_c, 0, 72, 0
2, 60300, Note_on_c, 0, 75, 0
2, 60720, Note_on_c, 0, 67, 46
2, 60960, Note_on_c, 0, 67, 0
2, 61200, Note_on_c, 0, 67, 43
2, 61440, Note_on_c, 0, 67, 0
2, 61680, Note_on_c, 0, 67, 42
2, 61920, Note_on_c, 0, 67, 0
2, 62160, Note_on_c, 0, 77, 46
2, 62160, Note_on_c, 0, 74, 39
2, 62220, Note_on_c, 0, 74, 0
2, 62220, Note_on_c, 0, 77, 0
2, 62400, Note_on_c, 0, 77, 48
2, 62400, Note_on_c, 0, 74, 40
2, 62640, Note_on_c, 0, 74, 0
2, 62640, Note_on_c, 0, 77, 0
2, 62640, Note_on_c, 0, 75, 41
2, 62640, Note_on_c, 0, 72, 34
2, 62700, Note_on_c, 0, 72, 0
2, 62700, Note_on_c, 0, 75, 0
2, 62880, Note_on_c, 0, 72, 39
2, 62880, Note_on_c, 0, 75, 46
2, 63120, Note_on_c, 0, 75, 0
2, 63120, Note_on_c, 0, 72, 0
2, 63120, Note_on_c, 0, 74, 40
2, 63120, Note_on_c, 0, 71, 33
2, 63180, Note_on_c, 0, 71, 0
2, 63180, Note_on_c, 0, 74, 0
2, 63480, Note_on_c, 0, 72, 39
2, 63600, Note_on_c, 0, 72, 0
2, 63600, Note_on_c, 0, 75, 47
2, 63720, Note_on_c, 0, 75, 0
2, 63720, Note_on_c, 0, 72, 41
2, 63840, Note_on_c, 0, 72, 0
2, 63960, Note_on_c, 0, 72, 42
2, 64080, Note_on_c, 0, 72, 0
2, 64080, Note_on_c, 0, 75, 50
2, 64200, Note_on_c, 0, 75, 0
2, 64200, Note_on_c, 0, 72, 42
2, 64320, Note_on_c, 0, 72, 0
2, 64440, Note_on_c, 0, 72, 46
2, 64560, Note_on_c, 0, 72, 0
2, 64560, Note_on_c, 0, 75, 55
2, 64680, Note_on_c, 0, 75, 0
2, 64680, Note_on_c, 0, 72, 47
2, 64800, Note_on_c, 0, 72, 0
2, 65040, Note_on_c, 0, 81, 46
2, 65040, Note_on_c, 0, 84, 55
2, 65100, Note_on_c, 0, 84, 0
2, 65100, Note_on_c, 0, 81, 0
2, 65280, Note_on_c, 0, 81, 51
2, 65280, Note_on_c, 0, 84, 62
2, 65520, Note_on_c, 0, 84, 0
2, 65520, Note_on_c, 0, 81, 0
2, 65520, Note_on_c, 0, 79, 43
2, 65520, Note_on_c, 0, 82, 51
2, 65580, Note_on_c, 0, 82, 0
2, 65580, Note_on_c, 0, 79, 0
2, 65760, Note_on_c, 0, 82, 57
2, 65760, Note_on_c, 0, 79, 48
2, 66000, Note_on_c, 0, 79, 0
2, 66000, Note_on_c, 0, 82, 0
2, 66000, Note_on_c, 0, 78, 41
2, 66000, Note_on_c, 0, 81, 49
2, 66240, Note_on_c, 0, 81, 0
2, 66240, Note_on_c, 0, 78, 0
2, 66240, Note_on_c, 0, 82, 58
2, 66240, Note_on_c, 0, 79, 58
2, 66720, Note_on_c, 0, 79, 0
2, 66720, Note_on_c, 0, 82, 0
2, 66720, Note_on_c, 0, 79, 48
2, 66720, Note_on_c, 0, 70, 48
2, 67200, Note_on_c, 0, 70, 0
2, 67200, Note_on_c, 0, 79, 0
2, 67200, Note_on_c, 0, 78, 47
2, 67200, Note_on_c, 0, 69, 47
2, 67680, Note_on_c, 0, 69, 0
2, 67680, Note_on_c, 0, 78, 0
2, 67680, Note_on_c, 0, 79, 55
2, 67680, Note_on_c, 0, 70, 55
2, 68160, Note_on_c, 0, 70, 0
2, 68160, Note_on_c, 0, 79, 0
2, 69360, Note_on_c, 0, 72, 46
2, 69600, Note_on_c, 0, 72, 0
2, 69840, Note_on_c, 0, 72, 43
2, 70080, Note_on_c, 0, 72, 0
2, 70320, Note_on_c, 0, 72, 42
2, 70560, Note_on_c, 0, 72, 0
2, 70560, Note_on_c, 0, 72, 57
2, 70680, Note_on_c, 0, 72, 0
2, 70680, Note_on_c, 0, 74, 50
2, 70800, Note_on_c, 0, 74, 0
2, 70800, Note_on_c, 0, 76, 52
2, 70920, Note_on_c, 0, 76, 0
2, 70920, Note_on_c, 0, 77, 55
2, 71040, Note_on_c, 0, 77, 0
2, 71040, Note_on_c, 0, 79, 55
2, 71160, Note_on_c, 0, 79, 0
2, 71160, Note_on_c, 0, 80, 52
2, 71280, Note_on_c, 0, 80, 0
2, 71280, Note_on_c, 0, 82, 55
2, 71400, Note_on_c, 0, 82, 0
2, 71400, Note_on_c, 0, 84, 55
2, 71520, Note_on_c, 0, 84, 0
2, 71520, Note_on_c, 0, 80, 63
2, 72000, Note_on_c, 0, 80, 0
2, 72240, Note_on_c, 0, 74, 50
2, 72480, Note_on_c, 0, 74, 0
2, 72720, Note_on_c, 0, 74, 47
2, 72960, Note_on_c, 0, 74, 0
2, 73200, Note_on_c, 0, 74, 46
2, 73440, Note_on_c, 0, 74, 0
2, 73440, Note_on_c, 0, 74, 59
2, 73560, Note_on_c, 0, 74, 0
2, 73560, Note_on_c, 0, 76, 52
2, 73680, Note_on_c, 0, 76, 0
2, 73680, Note_on_c, 0, 78, 55
2, 73800, Note_on_c, 0, 78, 0
2, 73800, Note_on_c, 0, 79, 57
2, 73920, Note_on_c, 0, 79, 0
2, 73920, Note_on_c, 0, 81, 57
2, 74040, Note_on_c, 0, 81, 0
2, 74040, Note_on_c, 0, 83, 55
2, 74160, Note_on_c, 0, 83, 0
2, 74160, Note_on_c, 0, 84, 57
2, 74280, Note_on_c, 0, 84, 0
2, 74280, Note_on_c, 0, 86, 57
2, 74400, Note_on_c, 0, 86, 0
2, 74400, Note_on_c, 0, 83, 65
2, 74880, Note_on_c, 0, 83, 0
2, 75120, Note_on_c, 0, 67, 46
2, 75360, Note_on_c, 0, 67, 0
2, 75600, Note_on_c, 0, 67, 43
2, 75840, Note_on_c, 0, 67, 0
2, 76080, Note_on_c, 0, 67, 42
2, 76320, Note_on_c, 0, 67, 0
2, 76560, Note_on_c, 0, 79, 46
2, 76560, Note_on_c, 0, 75, 39
2, 76620, Note_on_c, 0, 75, 0
2, 76620, Note_on_c, 0, 79, 0
2, 76800, Note_on_c, 0, 79, 48
2, 76800, Note_on_c, 0, 75, 40
2, 77040, Note_on_c, 0, 75, 0
2, 77040, Note_on_c, 0, 79, 0
2, 77040, Note_on_c, 0, 77, 41
2, 77040, Note_on_c, 0, 74, 34
2, 77100, Note_on_c, 0, 74, 0
2, 77100, Note_on_c, 0, 77, 0
2, 77280, Note_on_c, 0, 74, 39
2, 77280, Note_on_c, 0, 77, 46
2, 77520, Note_on_c, 0, 77, 0
2, 77520, Note_on_c, 0, 74, 0
2, 77520, Note_on_c, 0, 75, 40
2, 77520, Note_on_c, 0, 72, 33
2, 77580, Note_on_c, 0, 72, 0
2, 77580, Note_on_c, 0, 75, 0
2, 78000, Note_on_c, 0, 67, 46
2, 78240, Note_on_c, 0, 67, 0
2, 78480, Note_on_c, 0, 67, 43
2, 78720, Note_on_c, 0, 67, 0
2, 78960, Note_on_c, 0, 67, 42
2, 79200, Note_on_c, 0, 67, 0
2, 79440, Note_on_c, 0, 77, 46
2, 79440, Note_on_c, 0, 74, 39
2, 79500, Note_on_c, 0, 74, 0
2, 79500, Note_on_c, 0, 77, 0
2, 79680, Note_on_c, 0, 77, 48
2, 79680, Note_on_c, 0, 74, 40
2, 79920, Note_on_c, 0, 74, 0
2, 79920, Note_on_c, 0, 77, 0
2, 79920, Note_on_c, 0, 75, 41
2, 79920, Note_on_c, 0, 72, 34
2, 79980, Note_on_c, 0, 72, 0
2, 79980, Note_on_c, 0, 75, 0
2, 80160, Note_on_c, 0, 72, 39
2, 80160, Note_on_c, 0, 75, 46
2, 80400, Note_on_c, 0, 75, 0
2, 80400, Note_on_c, 0, 72, 0
2, 80400, Note_on_c, 0, 74, 40
2, 80400, Note_on_c, 0, 71, 33
2, 80460, Note_on_c, 0, 71, 0
2, 80460, Note_on_c, 0, 74, 0
2, 80760, Note_on_c, 0, 72, 39
2, 80880, Note_on_c, 0, 72, 0
2, 80880, Note_on_c, 0, 75, 47
2, 81000, Note_on_c, 0, 75, 0
2, 81000, Note_on_c, 0, 72, 41
2, 81120, Note_on_c, 0, 72, 0
2, 81240, Note_on_c, 0, 72, 42
2, 81360, Note_on_c, 0, 72, 0
2, 81360, Note_on_c, 0, 75, 50
2, 81480, Note_on_c, 0, 75, 0
2, 81480, Note_on_c, 0, 72, 42
2, 81600, Note_on_c, 0, 72, 0
2, 81720, Note_on_c, 0, 72, 46
2, 81840, Note_on_c, 0, 72, 0
2, 81840, Note_on_c, 0, 75, 55
2, 81960, Note_on_c, 0, 75, 0
2, 81960, Note_on_c, 0, 72, 47
2, 82080, Note_on_c, 0, 72, 0
2, 82320, Note_on_c, 0, 77, 46
2, 82320, Note_on_c, 0, 80, 55
2, 82380, Note_on_c, 0, 80, 0
2, 82380, Note_on_c, 0, 77, 0
2, 82560, Note_on_c, 0, 77, 51
2, 82560, Note_on_c, 0, 80, 62
2, 82800, Note_on_c, 0, 80, 0
2, 82800, Note_on_c, 0, 77, 0
2, 82800, Note_on_c, 0, 75, 43
2, 82800, Note_on_c, 0, 79, 51
2, 82860, Note_on_c, 0, 79, 0
2, 82860, Note_on_c, 0, 75, 0
2, 83040, Note_on_c, 0, 79, 57
2, 83040, Note_on_c, 0, 75, 48
2, 83280, Note_on_c, 0, 75, 0
2, 83280, Note_on_c, 0, 79, 0
2, 83280, Note_on_c, 0, 74, 41
2, 83280, Note_on_c, 0, 77, 49
2, 83520, Note_on_c, 0, 77, 0
2, 83520, Note_on_c, 0, 74, 0
2, 83520, Note_on_c, 0, 75, 58
2, 83520, Note_on_c, 0, 72, 58
2, 84000, Note_on_c, 0, 72, 0
2, 84000, Note_on_c, 0, 75, 0
2, 84000, Note_on_c, 0, 72, 48
2, 84000, Note_on_c, 0, 63, 48
2, 84480, Note_on_c, 0, 63, 0
2, 84480, Note_on_c, 0, 72, 0
2, 84480, Note_on_c, 0, 71, 47
2, 84480, Note_on_c, 0, 62, 47
2, 84960, Note_on_c, 0, 62, 0
2, 84960, Note_on_c, 0, 71, 0
2, 84960, Note_on_c, 0, 72, 55
2, 84960, Note_on_c, 0, 60, 55
2, 85440, Note_on_c, 0, 60, 0
2, 85440, Note_on_c, 0, 72, 0
2, 86640, Note_on_c, 0, 72, 46
2, 86880, Note_on_c, 0, 72, 0
2, 87120, Note_on_c, 0, 72, 43
2, 87360, Note_on_c, 0, 72, 0
2, 87600, Note_on_c, 0, 72, 42
2, 87840, Note_on_c, 0, 72, 0
2, 87840, Note_on_c, 0, 72, 57
2, 87960, Note_on_c, 0, 72, 0
2, 87960, Note_on_c, 0, 74, 50
2, 88080, Note_on_c, 0, 74, 0
2, 88080, Note_on_c, 0, 76, 52
2, 88200, Note_on_c, 0, 76, 0
2, 88200, Note_on_c, 0, 77, 55
2, 88320, Note_on_c, 0, 77, 0
2, 88320, Note_on_c, 0, 79, 55
2, 88440, Note_on_c, 0, 79, 0
2, 88440, Note_on_c, 0, 80, 52
2, 88560, Note_on_c, 0, 80, 0
2, 88560, Note_on_c, 0, 82, 55
2, 88680, Note_on_c, 0, 82, 0
2, 88680, Note_on_c, 0, 84, 55
2, 88800, Note_on_c, 0, 84, 0
2, 88800, Note_on_c, 0, 80, 63
2, 89280, Note_on_c, 0, 80, 0
2, 89520, Note_on_c, 0, 74, 50
2, 89760, Note_on_c, 0, 74, 0
2, 90000, Note_on_c, 0, 74, 47
2, 90240, Note_on_c, 0, 74, 0
2, 90480, Note_on_c, 0, 74, 46
2, 90720, Note_on_c, 0, 74, 0
2, 90720, Note_on_c, 0, 74, 59
2, 90840, Note_on_c, 0, 74, 0
2, 90840, Note_on_c, 0, 76, 52
2, 90960, Note_on_c, 0, 76, 0
2, 90960, Note_on_c, 0, 78, 55
2, 91080, Note_on_c, 0, 78, 0
2, 91080, Note_on_c, 0, 79, 57
2, 91200, Note_on_c, 0, 79, 0
2, 91200, Note_on_c, 0, 81, 57
2, 91320, Note_on_c, 0, 81, 0
2, 91320, Note_on_c, 0, 83, 55
2, 91440, Note_on_c, 0, 83, 0
2, 91440, Note_on_c, 0, 84, 57
2, 91560, Note_on_c, 0, 84, 0
2, 91560, Note_on_c, 0, 86, 57
2, 91680, Note_on_c, 0, 86, 0
2, 91680, Note_on_c, 0, 83, 65
2, 92160, Note_on_c, 0, 83, 0
2, 92400, Note_on_c, 0, 67, 46
2, 92640, Note_on_c, 0, 67, 0
2, 92880, Note_on_c, 0, 67, 43
2, 93120, Note_on_c, 0, 67, 0
2, 93360, Note_on_c, 0, 67, 42
2, 93600, Note_on_c, 0, 67, 0
2, 93840, Note_on_c, 0, 79, 46
2, 93840, Note_on_c, 0, 75, 39
2, 93900, Note_on_c, 0, 75, 0
2, 93900, Note_on_c, 0, 79, 0
2, 94080, Note_on_c, 0, 79, 48
2, 94080, Note_on_c, 0, 75, 40
2, 94320, Note_on_c, 0, 75, 0
2, 94320, Note_on_c, 0, 79, 0
2, 94320, Note_on_c, 0, 77, 41
2, 94320, Note_on_c, 0, 74, 34
2, 94380, Note_on_c, 0, 74, 0
2, 94380, Note_on_c, 0, 77, 0
2, 94560, Note_on_c, 0, 74, 39
2, 94560, Note_on_c, 0, 77, 46
2, 94800, Note_on_c, 0, 77, 0
2, 94800, Note_on_c, 0, 74, 0
2, 94800, Note_on_c, 0, 75, 40
2, 94800, Note_on_c, 0, 72, 33
2, 94860, Note_on_c, 0, 72, 0
2, 94860, Note_on_c, 0, 75, 0
2, 95280, Note_on_c, 0, 67, 46
2, 95520, Note_on_c, 0, 67, 0
2, 95760, Note_on_c, 0, 67, 43
2, 96000, Note_on_c, 0, 67, 0
2, 96240, Note_on_c, 0, 67, 42
2, 96480, Note_on_c, 0, 67, 0
2, 96720, Note_on_c, 0, 77, 46
2, 96720, Note_on_c, 0, 74, 39
2, 96780, Note_on_c, 0, 74, 0
2, 96780, Note_on_c, 0, 77, 0
2, 96960, Note_on_c, 0, 77, 48
2, 96960, Note_on_c, 0, 74, 40
2, 97200, Note_on_c, 0, 74, 0
2, 97200, Note_on_c, 0, 77, 0
2, 97200, Note_on_c, 0, 75, 41
2, 97200, Note_on_c, 0, 72, 34
2, 97260, Note_on_c, 0, 72, 0
2, 97260, Note_on_c, 0, 75, 0
2, 97440, Note_on_c, 0, 72, 39
2, 97440, Note_on_c, 0, 75, 46
2, 97680, Note_on_c, 0, 75, 0
2, 97680, Note_on_c, 0, 72, 0
2, 97680, Note_on_c, 0, 74, 40
2, 97680, Note_on_c, 0, 71, 33
2, 97740, Note_on_c, 0, 71, 0
2, 97740, Note_on_c, 0, 74, 0
2, 98040, Note_on_c, 0, 72, 39
2, 98160, Note_on_c, 0, 72, 0
2, 98160, Note_on_c, 0, 75, 47
2, 98280, Note_on_c, 0, 75, 0
2, 98280, Note_on_c, 0, 72, 41
2, 98400, Note_on_c, 0, 72, 0
2, 98520, Note_on_c, 0, 72, 42
2, 98640, Note_on_c, 0, 72, 0
2, 98640, Note_on_c, 0, 75, 50
2, 98760, Note_on_c, 0, 75, 0
2, 98760, Note_on_c, 0, 72, 42
2, 98880, Note_on_c, 0, 72, 0
2, 99000, Note_on_c, 0, 72, 46
2, 99120, Note_on_c, 0, 72, 0
2, 99120, Note_on_c, 0, 75, 55
2, 99240, Note_on_c, 0, 75, 0
2, 99240, Note_on_c, 0, 72, 47
2, 99360, Note_on_c, 0, 72, 0
2, 99600, Note_on_c, 0, 77, 46
2, 99600, Note_on_c, 0, 80, 55
2, 99660, Note_on_c, 0, 80, 0
2, 99660, Note_on_c, 0, 77, 0
2, 99840, Note_on_c, 0, 77, 51
2, 99840, Note_on_c, 0, 80, 62
2, 100080, Note_on_c, 0, 80, 0
2, 100080, Note_on_c, 0, 77, 0
2, 100080, Note_on_c, 0, 75, 43
2, 100080, Note_on_c, 0, 79, 51
2, 100140, Note_on_c, 0, 79, 0
2, 100140, Note_on_c, 0, 75, 0
2, 100320, Note_on_c, 0, 79, 57
2, 100320, Note_on_c, 0, 75, 48
2, 100560, Note_on_c, 0, 75, 0
2, 100560, Note_on_c, 0, 79, 0
2, 100560, Note_on_c, 0, 74, 41
2, 100560, Note_on_c, 0, 77, 49
2, 100800, Note_on_c, 0, 77, 0
2, 100800, Note_on_c, 0, 74, 0
2, 100800, Note_on_c, 0, 75, 58
2, 100800, Note_on_c, 0, 72, 58
2, 101280, Note_on_c, 0, 72, 0
2, 101280, Note_on_c, 0, 75, 0
2, 101280, Note_on_c, 0, 72, 48
2, 101280, Note_on_c, 0, 63, 48
2, 101760, Note_on_c, 0, 63, 0
2, 101760, Note_on_c, 0, 72, 0
2, 101760, Note_on_c, 0, 71, 47
2, 101760, Note_on_c, 0, 62, 47
2, 102240, Note_on_c, 0, 62, 0
2, 102240, Note_on_c, 0, 71, 0
2, 102240, Note_on_c, 0, 72, 55
2, 102240, Note_on_c, 0, 60, 55
2, 102720, Note_on_c, 0, 60, 0
2, 102720, Note_on_c, 0, 72, 0
2, 103680, Note_on_c, 0, 72, 57
2, 104160, Note_on_c, 0, 72, 0
2, 104160, Note_on_c, 0, 84, 57
2, 104280, Note_on_c, 0, 84, 0
2, 104640, Note_on_c, 0, 76, 57
2, 104880, Note_on_c, 0, 76, 0
2, 105000, Note_on_c, 0, 79, 48
2, 105120, Note_on_c, 0, 79, 0
2, 105120, Note_on_c, 0, 77, 57
2, 105600, Note_on_c, 0, 77, 0
2, 105600, Note_on_c, 0, 74, 52
2, 105720, Note_on_c, 0, 74, 0
2, 106080, Note_on_c, 0, 74, 57
2, 106320, Note_on_c, 0, 74, 0
2, 106440, Note_on_c, 0, 77, 54
2, 106560, Note_on_c, 0, 77, 0
2, 106560, Note_on_c, 0, 76, 57
2, 107040, Note_on_c, 0, 76, 0
2, 107040, Note_on_c, 0, 72, 54
2, 107160, Note_on_c, 0, 72, 0
2, 107520, Note_on_c, 0, 69, 58
2, 107760, Note_on_c, 0, 69, 0
2, 107880, Note_on_c, 0, 74, 46
2, 108000, Note_on_c, 0, 74, 0
2, 108000, Note_on_c, 0, 72, 58
2, 108960, Note_on_c, 0, 72, 0
2, 108960, Note_on_c, 0, 71, 55
2, 109200, Note_on_c, 0, 71, 0
2, 109440, Note_on_c, 0, 74, 75
2, 109920, Note_on_c, 0, 74, 0
2, 109920, Note_on_c, 0, 79, 57
2, 110040, Note_on_c, 0, 79, 0
2, 110040, Note_on_c, 0, 78, 55
2, 110160, Note_on_c, 0, 78, 0
2, 110160, Note_on_c, 0, 79, 57
2, 110280, Note_on_c, 0, 79, 0
2, 110280, Note_on_c, 0, 81, 55
2, 110400, Note_on_c, 0, 81, 0
2, 110400, Note_on_c, 0, 83, 62
2, 110520, Note_on_c, 0, 83, 0
2, 110520, Note_on_c, 0, 81, 55
2, 110640, Note_on_c, 0, 81, 0
2, 110640, Note_on_c, 0, 83, 62
2, 110760, Note_on_c, 0, 83, 0
2, 110760, Note_on_c, 0, 84, 59
2, 110880, Note_on_c, 0, 84, 0
2, 110880, Note_on_c, 0, 86, 75
2, 111360, Note_on_c, 0, 86, 0
2, 111360, Note_on_c, 0, 79, 57
2, 111480, Note_on_c, 0, 79, 0
2, 111480, Note_on_c, 0, 78, 55
2, 111600, Note_on_c, 0, 78, 0
2, 111600, Note_on_c, 0, 79, 57
2, 111720, Note_on_c, 0, 79, 0
2, 111720, Note_on_c, 0, 81, 55
2, 111840, Note_on_c, 0, 81, 0
2, 111840, Note_on_c, 0, 83, 62
2, 111960, Note_on_c, 0, 83, 0
2, 111960, Note_on_c, 0, 81, 55
2, 112080, Note_on_c, 0, 81, 0
2, 112080, Note_on_c, 0, 83, 62
2, 112200, Note_on_c, 0, 83, 0
2, 112200, Note_on_c, 0, 84, 59
2, 112320, Note_on_c, 0, 84, 0
2, 112320, Note_on_c, 0, 86, 75
2, 112800, Note_on_c, 0, 86, 0
2, 112800, Note_on_c, 0, 71, 58
2, 113280, Note_on_c, 0, 71, 0
2, 113280, Note_on_c, 0, 69, 57
2, 113340, Note_on_c, 0, 69, 0
2, 113340, Note_on_c, 0, 71, 50
2, 113400, Note_on_c, 0, 71, 0
2, 113400, Note_on_c, 0, 69, 52
2, 113460, Note_on_c, 0, 69, 0
2, 113460, Note_on_c, 0, 71, 58
2, 113520, Note_on_c, 0, 71, 0
2, 113520, Note_on_c, 0, 69, 49
2, 113595, Note_on_c, 0, 69, 0
2, 113595, Note_on_c, 0, 71, 52
2, 113670, Note_on_c, 0, 71, 0
2, 113670, Note_on_c, 0, 69, 52
2, 113745, Note_on_c, 0, 69, 0
2, 113760, Note_on_c, 0, 67, 58
2, 114720, Note_on_c, 0, 67, 0
2, 115200, Note_on_c, 0, 79, 57
2, 115680, Note_on_c, 0, 79, 0
2, 115680, Note_on_c, 0, 84, 57
2, 115800, Note_on_c, 0, 84, 0
2, 116160, Note_on_c, 0, 76, 57
2, 116400, Note_on_c, 0, 76, 0
2, 116520, Note_on_c, 0, 79, 48
2, 116640, Note_on_c, 0, 79, 0
2, 116640, Note_on_c, 0, 77, 57
2, 117120, Note_on_c, 0, 77, 0
2, 117120, Note_on_c, 0, 86, 52
2, 117240, Note_on_c, 0, 86, 0
2, 117600, Note_on_c, 0, 74, 57
2, 117840, Note_on_c, 0, 74, 0
2, 117960, Note_on_c, 0, 77, 54
2, 118080, Note_on_c, 0, 77, 0
2, 118080, Note_on_c, 0, 76, 57
2, 118560, Note_on_c, 0, 76, 0
2, 118560, Note_on_c, 0, 79, 62
2, 119040, Note_on_c, 0, 79, 0
2, 119040, Note_on_c, 0, 80, 58
2, 119400, Note_on_c, 0, 80, 0
2, 119414, Note_on_c, 0, 81, 51
2, 119520, Note_on_c, 0, 72, 58
2, 119534, Note_on_c, 0, 81, 0
2, 120480, Note_on_c, 0, 72, 0
2, 120480, Note_on_c, 0, 71, 55
2, 120720, Note_on_c, 0, 71, 0
2, 120960, Note_on_c, 0, 67, 75
2, 121440, Note_on_c, 0, 67, 0
2, 121440, Note_on_c, 0, 72, 57
2, 121560, Note_on_c, 0, 72, 0
2, 121560, Note_on_c, 0, 71, 55
2, 121675, Note_on_c, 0, 72, 57
2, 121680, Note_on_c, 0, 71, 0
2, 121795, Note_on_c, 0, 72, 0
2, 121800, Note_on_c, 0, 74, 55
2, 121915, Note_on_c, 0, 76, 62
2, 121920, Note_on_c, 0, 74, 0
2, 122035, Note_on_c, 0, 76, 0
2, 122040, Note_on_c, 0, 74, 55
2, 122155, Note_on_c, 0, 76, 62
2, 122160, Note_on_c, 0, 74, 0
2, 122275, Note_on_c, 0, 76, 0
2, 122280, Note_on_c, 0, 77, 59
2, 122400, Note_on_c, 0, 77, 0
2, 122400, Note_on_c, 0, 79, 81
2, 122880, Note_on_c, 0, 79, 0
2, 122880, Note_on_c, 0, 72, 57
2, 123120, Note_on_c, 0, 72, 0
2, 123120, Note_on_c, 0, 74, 57
2, 123240, Note_on_c, 0, 74, 0
2, 123240, Note_on_c, 0, 76, 55
2, 123360, Note_on_c, 0, 76, 0
2, 123360, Note_on_c, 0, 77, 63
2, 123480, Note_on_c, 0, 77, 0
2, 123480, Note_on_c, 0, 79, 65
2, 123600, Note_on_c, 0, 79, 0
2, 123600, Note_on_c, 0, 81, 66
2, 123720, Note_on_c, 0, 81, 0
2, 123720, Note_on_c, 0, 83, 69
2, 123840, Note_on_c, 0, 83, 0
2, 123840, Note_on_c, 0, 84, 78
2, 124320, Note_on_c, 0, 84, 0
2, 124320, Note_on_c, 0, 76, 69
2, 124320, Note_on_c, 0, 72, 58
2, 124800, Note_on_c, 0, 72, 0
2, 124800, Note_on_c, 0, 76, 0
2, 124800, Note_on_c, 0, 71, 58
2, 124800, Note_on_c, 0, 74, 69
2, 125280, Note_on_c, 0, 74, 0
2, 125280, Note_on_c, 0, 71, 0
2, 125280, Note_on_c, 0, 67, 60
2, 125280, Note_on_c, 0, 72, 70
2, 125280, Note_on_c, 0, 64, 60
2, 126480, Note_on_c, 0, 64, 0
2, 126480, Note_on_c, 0, 72, 0
2, 126480, Note_on_c, 0, 67, 0
2, 126480, End_track
3, 0, Start_track
3, 0, Title_t, "Piano left"
3, 0, Program_c, 0, 0
3, 0, Note_on_c, 0, 48, 40
3, 0, Note_on_c, 0, 60, 46
3, 720, Note_on_c, 0, 60, 0
3, 720, Note_on_c, 0, 48, 0
3, 960, Note_on_c, 0, 60, 37
3, 1440, Note_on_c, 0, 60, 0
3, 1440, Note_on_c, 0, 62, 46
3, 1920, Note_on_c, 0, 62, 0
3, 1920, Note_on_c, 0, 59, 42
3, 2040, Note_on_c, 0, 59, 0
3, 2400, Note_on_c, 0, 55, 40
3, 2880, Note_on_c, 0, 55, 0
3, 2880, Note_on_c, 0, 60, 46
3, 3360, Note_on_c, 0, 60, 0
3, 3360, Note_on_c, 0, 52, 39
3, 3480, Note_on_c, 0, 52, 0
3, 3840, Note_on_c, 0, 53, 42
3, 4320, Note_on_c, 0, 53, 0
3, 4320, Note_on_c, 0, 55, 46
3, 4800, Note_on_c, 0, 55, 0
3, 4800, Note_on_c, 0, 50, 40
3, 4920, Note_on_c, 0, 50, 0
3, 5280, Note_on_c, 0, 43, 42
3, 5520, Note_on_c, 0, 43, 0
3, 5760, Note_on_c, 0, 55, 50
3, 5760, Note_on_c, 0, 59, 59
3, 6240, Note_on_c, 0, 59, 0
3, 6240, Note_on_c, 0, 55, 0
3, 7200, Note_on_c, 0, 55, 50
3, 7200, Note_on_c, 0, 59, 59
3, 7680, Note_on_c, 0, 59, 0
3, 7680, Note_on_c, 0, 55, 0
3, 8640, Note_on_c, 0, 55, 50
3, 8640, Note_on_c, 0, 59, 59
3, 9120, Note_on_c, 0, 59, 0
3, 9120, Note_on_c, 0, 55, 0
3, 9120, Note_on_c, 0, 62, 41
3, 9600, Note_on_c, 0, 62, 0
3, 9600, Note_on_c, 0, 50, 35
3, 10080, Note_on_c, 0, 50, 0
3, 10080, Note_on_c, 0, 55, 46
3, 10560, Note_on_c, 0, 55, 0
3, 10560, Note_on_c, 0, 50, 40
3, 10680, Note_on_c, 0, 50, 0
3, 11040, Note_on_c, 0, 43, 42
3, 11280, Note_on_c, 0, 43, 0
3, 11520, Note_on_c, 0, 48, 40
3, 11520, Note_on_c, 0, 60, 46
3, 12240, Note_on_c, 0, 60, 0
3, 12240, Note_on_c, 0, 48, 0
3, 12480, Note_on_c, 0, 60, 37
3, 12960, Note_on_c, 0, 60, 0
3, 12960, Note_on_c, 0, 62, 46
3, 13440, Note_on_c, 0, 62, 0
3, 13440, Note_on_c, 0, 59, 42
3, 13560, Note_on_c, 0, 59, 0
3, 13920, Note_on_c, 0, 55, 40
3, 14400, Note_on_c, 0, 55, 0
3, 14400, Note_on_c, 0, 60, 46
3, 14880, Note_on_c, 0, 60, 0
3, 14880, Note_on_c, 0, 52, 39
3, 15000, Note_on_c, 0, 52, 0
3, 15360, Note_on_c, 0, 53, 42
3, 15840, Note_on_c, 0, 53, 0
3, 15840, Note_on_c, 0, 55, 46
3, 16320, Note_on_c, 0, 55, 0
3, 16320, Note_on_c, 0, 50, 40
3, 16440, Note_on_c, 0, 50, 0
3, 16800, Note_on_c, 0, 43, 42
3, 17040, Note_on_c, 0, 43, 0
3, 17280, Note_on_c, 0, 55, 50
3, 17280, Note_on_c, 0, 59, 59
3, 17760, Note_on_c, 0, 59, 0
3, 17760, Note_on_c, 0, 55, 0
3, 18720, Note_on_c, 0, 55, 50
3, 18720, Note_on_c, 0, 59, 59
3, 19200, Note_on_c, 0, 59, 0
3, 19200, Note_on_c, 0, 55, 0
3, 20160, Note_on_c, 0, 55, 50
3, 20160, Note_on_c, 0, 59, 59
3, 20640, Note_on_c, 0, 59, 0
3, 20640, Note_on_c, 0, 55, 0
3, 20640, Note_on_c, 0, 62, 41
3, 21120, Note_on_c, 0, 62, 0
3, 21120, Note_on_c, 0, 50, 35
3, 21600, Note_on_c, 0, 50, 0
3, 21600, Note_on_c, 0, 55, 46
3, 22080, Note_on_c, 0, 55, 0
3, 22080, Note_on_c, 0, 50, 40
3, 22200, Note_on_c, 0, 50, 0
3, 22560, Note_on_c, 0, 43, 42
3, 22800, Note_on_c, 0, 43, 0
3, 23040, Note_on_c, 0, 76, 46
3, 23760, Note_on_c, 0, 76, 0
3, 24000, Note_on_c, 0, 72, 37
3, 24480, Note_on_c, 0, 72, 0
3, 24480, Note_on_c, 0, 74, 46
3, 24960, Note_on_c, 0, 74, 0
3, 24960, Note_on_c, 0, 71, 42
3, 25080, Note_on_c, 0, 71, 0
3, 25440, Note_on_c, 0, 67, 40
3, 25920, Note_on_c, 0, 67, 0
3, 25920, Note_on_c, 0, 72, 46
3, 26400, Note_on_c, 0, 72, 0
3, 26400, Note_on_c, 0, 64, 39
3, 26880, Note_on_c, 0, 64, 0
3, 26880, Note_on_c, 0, 65, 46
3, 27360, Note_on_c, 0, 65, 0
3, 27360, Note_on_c, 0, 67, 54
3, 27840, Note_on_c, 0, 67, 0
3, 27840, Note_on_c, 0, 62, 40
3, 27960, Note_on_c, 0, 62, 0
3, 28320, Note_on_c, 0, 55, 42
3, 28560, Note_on_c, 0, 55, 0
3, 28800, Note_on_c, 0, 48, 50
3, 28800, Note_on_c, 0, 52, 50
3, 28800, Note_on_c, 0, 55, 50
3, 28800, Note_on_c, 0, 60, 59
3, 29280, Note_on_c, 0, 60, 0
3, 29280, Note_on_c, 0, 48, 0
3, 29280, Note_on_c, 0, 52, 0
3, 29280, Note_on_c, 0, 55, 0
3, 30240, Note_on_c, 0, 48, 50
3, 30240, Note_on_c, 0, 52, 50
3, 30240, Note_on_c, 0, 55, 50
3, 30240, Note_on_c, 0, 60, 59
3, 30720, Note_on_c, 0, 60, 0
3, 30720, Note_on_c, 0, 48, 0
3, 30720, Note_on_c, 0, 52, 0
3, 30720, Note_on_c, 0, 55, 0
3, 31680, Note_on_c, 0, 52, 59
3, 32160, Note_on_c, 0, 52, 0
3, 32160, Note_on_c, 0, 55, 41
3, 32640, Note_on_c, 0, 55, 0
3, 32640, Note_on_c, 0, 43, 41
3, 33120, Note_on_c, 0, 43, 0
3, 33120, Note_on_c, 0, 48, 46
3, 33600, Note_on_c, 0, 48, 0
3, 33600, Note_on_c, 0, 43, 40
3, 33720, Note_on_c, 0, 43, 0
3, 34080, Note_on_c, 0, 36, 42
3, 34320, Note_on_c, 0, 36, 0
3, 34560, Note_on_c, 0, 76, 46
3, 35280, Note_on_c, 0, 76, 0
3, 35520, Note_on_c, 0, 72, 37
3, 36000, Note_on_c, 0, 72, 0
3, 36000, Note_on_c, 0, 74, 46
3, 36480, Note_on_c, 0, 74, 0
3, 36480, Note_on_c, 0, 71, 42
3, 36600, Note_on_c, 0, 71, 0
3, 36960, Note_on_c, 0, 67, 40
3, 37440, Note_on_c, 0, 67, 0
3, 37440, Note_on_c, 0, 72, 46
3, 37920, Note_on_c, 0, 72, 0
3, 37920, Note_on_c, 0, 64, 39
3, 38400, Note_on_c, 0, 64, 0
3, 38400, Note_on_c, 0, 65, 46
3, 38880, Note_on_c, 0, 65, 0
3, 38880, Note_on_c, 0, 67, 54
3, 39360, Note_on_c, 0, 67, 0
3, 39360, Note_on_c, 0, 62, 40
3, 39480, Note_on_c, 0, 62, 0
3, 39840, Note_on_c, 0, 55, 42
3, 40080, Note_on_c, 0, 55, 0
3, 40320, Note_on_c, 0, 48, 50
3, 40320, Note_on_c, 0, 52, 50
3, 40320, Note_on_c, 0, 55, 50
3, 40320, Note_on_c, 0, 60, 59
3, 40800, Note_on_c, 0, 60, 0
3, 40800, Note_on_c, 0, 48, 0
3, 40800, Note_on_c, 0, 52, 0
3, 40800, Note_on_c, 0, 55, 0
3, 41760, Note_on_c, 0, 48, 50
3, 41760, Note_on_c, 0, 52, 50
3, 41760, Note_on_c, 0, 55, 50
3, 41760, Note_on_c, 0, 60, 59
3, 42240, Note_on_c, 0, 60, 0
3, 42240, Note_on_c, 0, 48, 0
3, 42240, Note_on_c, 0, 52, 0
3, 42240, Note_on_c, 0, 55, 0
3, 43200, Note_on_c, 0, 52, 59
3, 43680, Note_on_c, 0, 52, 0
3, 43680, Note_on_c, 0, 55, 41
3, 44160, Note_on_c, 0, 55, 0
3, 44160, Note_on_c, 0, 43, 41
3, 44640, Note_on_c, 0, 43, 0
3, 44640, Note_on_c, 0, 48, 46
3, 45120, Note_on_c, 0, 48, 0
3, 45120, Note_on_c, 0, 43, 40
3, 45240, Note_on_c, 0, 43, 0
3, 45600, Note_on_c, 0, 36, 42
3, 45840, Note_on_c, 0, 36, 0
3, 46080, Note_on_c, 0, 48, 46
3, 46560, Note_on_c, 0, 48, 0
3, 46560, Note_on_c, 0, 55, 40
3, 46560, Note_on_c, 0, 51, 33
3, 47040, Note_on_c, 0, 51, 0
3, 47040, Note_on_c, 0, 55, 0
3, 47040, Note_on_c, 0, 53, 40
3, 47040, Note_on_c, 0, 50, 33
3, 47520, Note_on_c, 0, 50, 0
3, 47520, Note_on_c, 0, 53, 0
3, 47520, Note_on_c, 0, 48, 39
3, 47520, Note_on_c, 0, 51, 46
3, 48000, Note_on_c, 0, 51, 0
3, 48000, Note_on_c, 0, 48, 0
3, 48960, Note_on_c, 0, 55, 46
3, 49440, Note_on_c, 0, 55, 0
3, 49440, Note_on_c, 0, 62, 40
3, 49440, Note_on_c, 0, 59, 33
3, 49920, Note_on_c, 0, 59, 0
3, 49920, Note_on_c, 0, 62, 0
3, 49920, Note_on_c, 0, 60, 40
3, 49920, Note_on_c, 0, 57, 33
3, 50400, Note_on_c, 0, 57, 0
3, 50400, Note_on_c, 0, 60, 0
3, 50400, Note_on_c, 0, 55, 39
3, 50400, Note_on_c, 0, 59, 46
3, 50880, Note_on_c, 0, 59, 0
3, 50880, Note_on_c, 0, 55, 0
3, 51840, Note_on_c, 0, 60, 51
3, 52320, Note_on_c, 0, 60, 0
3, 52320, Note_on_c, 0, 63, 49
3, 52800, Note_on_c, 0, 63, 0
3, 52800, Note_on_c, 0, 60, 52
3, 53280, Note_on_c, 0, 60, 0
3, 53280, Note_on_c, 0, 54, 56
3, 54240, Note_on_c, 0, 54, 0
3, 54720, Note_on_c, 0, 55, 51
3, 55200, Note_on_c, 0, 55, 0
3, 55200, Note_on_c, 0, 62, 48
3, 55680, Note_on_c, 0, 62, 0
3, 55680, Note_on_c, 0, 50, 51
3, 56160, Note_on_c, 0, 50, 0
3, 56160, Note_on_c, 0, 55, 51
3, 56400, Note_on_c, 0, 55, 0
3, 56400, Note_on_c, 0, 43, 43
3, 56640, Note_on_c, 0, 43, 0
3, 56640, Note_on_c, 0, 55, 51
3, 56880, Note_on_c, 0, 55, 0
3, 56880, Note_on_c, 0, 53, 43
3, 57120, Note_on_c, 0, 53, 0
3, 57120, Note_on_c, 0, 51, 48
3, 57360, Note_on_c, 0, 51, 0
3, 57360, Note_on_c, 0, 50, 40
3, 57600, Note_on_c, 0, 50, 0
3, 57600, Note_on_c, 0, 48, 43
3, 58080, Note_on_c, 0, 48, 0
3, 58080, Note_on_c, 0, 55, 40
3, 58080, Note_on_c, 0, 51, 33
3, 58560, Note_on_c, 0, 51, 0
3, 58560, Note_on_c, 0, 55, 0
3, 58560, Note_on_c, 0, 53, 40
3, 58560, Note_on_c, 0, 50, 33
3, 59040, Note_on_c, 0, 50, 0
3, 59040, Note_on_c, 0, 53, 0
3, 59040, Note_on_c, 0, 48, 39
3, 59040, Note_on_c, 0, 51, 46
3, 59520, Note_on_c, 0, 51, 0
3, 59520, Note_on_c, 0, 48, 0
3, 60480, Note_on_c, 0, 55, 46
3, 60960, Note_on_c, 0, 55, 0
3, 60960, Note_on_c, 0, 62, 40
3, 60960, Note_on_c, 0, 59, 33
3, 61440, Note_on_c, 0, 59, 0
3, 61440, Note_on_c, 0, 62, 0
3, 61440, Note_on_c, 0, 60, 40
3, 61440, Note_on_c, 0, 57, 33
3, 61920, Note_on_c, 0, 57, 0
3, 61920, Note_on_c, 0, 60, 0
3, 61920, Note_on_c, 0, 55, 39
3, 61920, Note_on_c, 0, 59, 46
3, 62400, Note_on_c, 0, 59, 0
3, 62400, Note_on_c, 0, 55, 0
3, 63360, Note_on_c, 0, 60, 51
3, 63840, Note_on_c, 0, 60, 0
3, 63840, Note_on_c, 0, 63, 49
3, 64320, Note_on_c, 0, 63, 0
3, 64320, Note_on_c, 0, 60, 52
3, 64800, Note_on_c, 0, 60, 0
3, 64800, Note_on_c, 0, 54, 56
3, 65760, Note_on_c, 0, 54, 0
3, 66240, Note_on_c, 0, 55, 51
3, 66720, Note_on_c, 0, 55, 0
3, 66720, Note_on_c, 0, 62, 48
3, 67200, Note_on_c, 0, 62, 0
3, 67200, Note_on_c, 0, 50, 51
3, 67680, Note_on_c, 0, 50, 0
3, 67680, Note_on_c, 0, 55, 51
3, 67920, Note_on_c, 0, 55, 0
3, 67920, Note_on_c, 0, 43, 43
3, 68160, Note_on_c, 0, 43, 0
3, 68160, Note_on_c, 0, 55, 51
3, 68400, Note_on_c, 0, 55, 0
3, 68400, Note_on_c, 0, 53, 43
3, 68640, Note_on_c, 0, 53, 0
3, 68640, Note_on_c, 0, 51, 48
3, 68880, Note_on_c, 0, 51, 0
3, 68880, Note_on_c, 0, 50, 40
3, 69120, Note_on_c, 0, 50, 0
3, 69120, Note_on_c, 0, 48, 43
3, 69600, Note_on_c, 0, 48, 0
3, 69600, Note_on_c, 0, 64, 40
3, 69600, Note_on_c, 0, 60, 33
3, 70080, Note_on_c, 0, 60, 0
3, 70080, Note_on_c, 0, 64, 0
3, 70080, Note_on_c, 0, 65, 40
3, 70080, Note_on_c, 0, 62, 33
3, 70560, Note_on_c, 0, 62, 0
3, 70560, Note_on_c, 0, 65, 0
3, 70560, Note_on_c, 0, 64, 39
3, 70560, Note_on_c, 0, 67, 46
3, 71040, Note_on_c, 0, 67, 0
3, 71040, Note_on_c, 0, 64, 0
3, 71520, Note_on_c, 0, 65, 46
3, 72000, Note_on_c, 0, 65, 0
3, 72000, Note_on_c, 0, 50, 47
3, 72480, Note_on_c, 0, 50, 0
3, 72480, Note_on_c, 0, 66, 43
3, 72480, Note_on_c, 0, 62, 35
3, 72960, Note_on_c, 0, 62, 0
3, 72960, Note_on_c, 0, 66, 0
3, 72960, Note_on_c, 0, 67, 43
3, 72960, Note_on_c, 0, 64, 35
3, 73440, Note_on_c, 0, 64, 0
3, 73440, Note_on_c, 0, 67, 0
3, 73440, Note_on_c, 0, 66, 39
3, 73440, Note_on_c, 0, 69, 46
3, 73920, Note_on_c, 0, 69, 0
3, 73920, Note_on_c, 0, 66, 0
3, 74400, Note_on_c, 0, 67, 46
3, 74880, Note_on_c, 0, 67, 0
3, 74880, Note_on_c, 0, 36, 39
3, 74880, Note_on_c, 0, 48, 43
3, 75360, Note_on_c, 0, 48, 0
3, 75360, Note_on_c, 0, 36, 0
3, 75360, Note_on_c, 0, 55, 40
3, 75360, Note_on_c, 0, 51, 33
3, 75840, Note_on_c, 0, 51, 0
3, 75840, Note_on_c, 0, 55, 0
3, 75840, Note_on_c, 0, 53, 40
3, 75840, Note_on_c, 0, 50, 33
3, 76320, Note_on_c, 0, 50, 0
3, 76320, Note_on_c, 0, 53, 0
3, 76320, Note_on_c, 0, 48, 39
3, 76320, Note_on_c, 0, 51, 46
3, 76800, Note_on_c, 0, 51, 0
3, 76800, Note_on_c, 0, 48, 0
3, 77760, Note_on_c, 0, 43, 37
3, 77760, Note_on_c, 0, 55, 46
3, 78240, Note_on_c, 0, 55, 0
3, 78240, Note_on_c, 0, 43, 0
3, 78240, Note_on_c, 0, 62, 40
3, 78240, Note_on_c, 0, 59, 33
3, 78720, Note_on_c, 0, 59, 0
3, 78720, Note_on_c, 0, 62, 0
3, 78720, Note_on_c, 0, 60, 40
3, 78720, Note_on_c, 0, 57, 33
3, 79200, Note_on_c, 0, 57, 0
3, 79200, Note_on_c, 0, 60, 0
3, 79200, Note_on_c, 0, 55, 39
3, 79200, Note_on_c, 0, 59, 46
3, 79680, Note_on_c, 0, 59, 0
3, 79680, Note_on_c, 0, 55, 0
3, 80640, Note_on_c, 0, 60, 51
3, 81120, Note_on_c, 0, 60, 0
3, 81120, Note_on_c, 0, 63, 49
3, 81600, Note_on_c, 0, 63, 0
3, 81600, Note_on_c, 0, 60, 52
3, 82080, Note_on_c, 0, 60, 0
3, 82080, Note_on_c, 0, 59, 56
3, 83040, Note_on_c, 0, 59, 0
3, 83520, Note_on_c, 0, 60, 51
3, 84000, Note_on_c, 0, 60, 0
3, 84000, Note_on_c, 0, 55, 48
3, 84480, Note_on_c, 0, 55, 0
3, 84480, Note_on_c, 0, 43, 51
3, 84960, Note_on_c, 0, 43, 0
3, 84960, Note_on_c, 0, 48, 51
3, 85440, Note_on_c, 0, 48, 0
3, 85440, Note_on_c, 0, 55, 51
3, 85680, Note_on_c, 0, 55, 0
3, 85680, Note_on_c, 0, 53, 43
3, 85920, Note_on_c, 0, 53, 0
3, 85920, Note_on_c, 0, 51, 48
3, 86160, Note_on_c, 0, 51, 0
3, 86160, Note_on_c, 0, 50, 40
3, 86400, Note_on_c, 0, 50, 0
3, 86400, Note_on_c, 0, 48, 43
3, 86880, Note_on_c, 0, 48, 0
3, 86880, Note_on_c, 0, 64, 40
3, 86880, Note_on_c, 0, 60, 33
3, 87360, Note_on_c, 0, 60, 0
3, 87360, Note_on_c, 0, 64, 0
3, 87360, Note_on_c, 0, 65, 40
3, 87360, Note_on_c, 0, 62, 33
3, 87840, Note_on_c, 0, 62, 0
3, 87840, Note_on_c, 0, 65, 0
3, 87840, Note_on_c, 0, 64, 42
3, 87840, Note_on_c, 0, 67, 50
3, 88320, Note_on_c, 0, 67, 0
3, 88320, Note_on_c, 0, 64, 0
3, 88800, Note_on_c, 0, 65, 50
3, 89280, Note_on_c, 0, 65, 0
3, 89280, Note_on_c, 0, 50, 47
3, 89760, Note_on_c, 0, 50, 0
3, 89760, Note_on_c, 0, 66, 43
3, 89760, Note_on_c, 0, 62, 35
3, 90240, Note_on_c, 0, 62, 0
3, 90240, Note_on_c, 0, 66, 0
3, 90240, Note_on_c, 0, 67, 43
3, 90240, Note_on_c, 0, 64, 35
3, 90720, Note_on_c, 0, 64, 0
3, 90720, Note_on_c, 0, 67, 0
3, 90720, Note_on_c, 0, 66, 39
3, 90720, Note_on_c, 0, 69, 46
3, 91200, Note_on_c, 0, 69, 0
3, 91200, Note_on_c, 0, 66, 0
3, 91680, Note_on_c, 0, 67, 46
3, 92160, Note_on_c, 0, 67, 0
3, 92160, Note_on_c, 0, 36, 39
3, 92160, Note_on_c, 0, 48, 43
3, 92640, Note_on_c, 0, 48, 0
3, 92640, Note_on_c, 0, 36, 0
3, 92640, Note_on_c, 0, 55, 40
3, 92640, Note_on_c, 0, 51, 33
3, 93120, Note_on_c, 0, 51, 0
3, 93120, Note_on_c, 0, 55, 0
3, 93120, Note_on_c, 0, 53, 40
3, 93120, Note_on_c, 0, 50, 33
3, 93600, Note_on_c, 0, 50, 0
3, 93600, Note_on_c, 0, 53, 0
3, 93600, Note_on_c, 0, 48, 39
3, 93600, Note_on_c, 0, 51, 46
3, 94080, Note_on_c, 0, 51, 0
3, 94080, Note_on_c, 0, 48, 0
3, 95040, Note_on_c, 0, 43, 37
3, 95040, Note_on_c, 0, 55, 46
3, 95520, Note_on_c, 0, 55, 0
3, 95520, Note_on_c, 0, 43, 0
3, 95520, Note_on_c, 0, 62, 40
3, 95520, Note_on_c, 0, 59, 33
3, 96000, Note_on_c, 0, 59, 0
3, 96000, Note_on_c, 0, 62, 0
3, 96000, Note_on_c, 0, 60, 40
3, 96000, Note_on_c, 0, 57, 33
3, 96480, Note_on_c, 0, 57, 0
3, 96480, Note_on_c, 0, 60, 0
3, 96480, Note_on_c, 0, 55, 39
3, 96480, Note_on_c, 0, 59, 46
3, 96960, Note_on_c, 0, 59, 0
3, 96960, Note_on_c, 0, 55, 0
3, 97920, Note_on_c, 0, 60, 51
3, 98400, Note_on_c, 0, 60, 0
3, 98400, Note_on_c, 0, 63, 49
3, 98880, Note_on_c, 0, 63, 0
3, 98880, Note_on_c, 0, 60, 52
3, 99360, Note_on_c, 0, 60, 0
3, 99360, Note_on_c, 0, 59, 56
3, 100320, Note_on_c, 0, 59, 0
3, 100800, Note_on_c, 0, 60, 51
3, 101280, Note_on_c, 0, 60, 0
3, 101280, Note_on_c, 0, 55, 48
3, 101760, Note_on_c, 0, 55, 0
3, 101760, Note_on_c, 0, 43, 51
3, 102240, Note_on_c, 0, 43, 0
3, 102240, Note_on_c, 0, 48, 51
3, 102720, Note_on_c, 0, 48, 0
3, 102720, Note_on_c, 0, 43, 51
3, 102840, Note_on_c, 0, 43, 0
3, 103200, Note_on_c, 0, 36, 48
3, 103440, Note_on_c, 0, 36, 0
3, 103680, Note_on_c, 0, 48, 40
3, 103680, Note_on_c, 0, 60, 46
3, 104400, Note_on_c, 0, 60, 0
3, 104400, Note_on_c, 0, 48, 0
3, 104640, Note_on_c, 0, 60, 37
3, 105120, Note_on_c, 0, 60, 0
3, 105120, Note_on_c, 0, 62, 46
3, 105600, Note_on_c, 0, 62, 0
3, 105600, Note_on_c, 0, 59, 42
3, 105720, Note_on_c, 0, 59, 0
3, 106080, Note_on_c, 0, 55, 40
3, 106560, Note_on_c, 0, 55, 0
3, 106560, Note_on_c, 0, 60, 46
3, 107040, Note_on_c, 0, 60, 0
3, 107040, Note_on_c, 0, 52, 39
3, 107160, Note_on_c, 0, 52, 0
3, 107520, Note_on_c, 0, 53, 42
3, 108000, Note_on_c, 0, 53, 0
3, 108000, Note_on_c, 0, 55, 46
3, 108480, Note_on_c, 0, 55, 0
3, 108480, Note_on_c, 0, 50, 40
3, 108600, Note_on_c, 0, 50, 0
3, 108960, Note_on_c, 0, 43, 42
3, 109200, Note_on_c, 0, 43, 0
3, 109440, Note_on_c, 0, 55, 50
3, 109440, Note_on_c, 0, 59, 59
3, 109920, Note_on_c, 0, 59, 0
3, 109920, Note_on_c, 0, 55, 0
3, 110880, Note_on_c, 0, 55, 50
3, 110880, Note_on_c, 0, 59, 59
3, 111360, Note_on_c, 0, 59, 0
3, 111360, Note_on_c, 0, 55, 0
3, 112320, Note_on_c, 0, 55, 50
3, 112320, Note_on_c, 0, 59, 59
3, 112800, Note_on_c, 0, 59, 0
3, 112800, Note_on_c, 0, 55, 0
3, 112800, Note_on_c, 0, 62, 41
3, 113280, Note_on_c, 0, 62, 0
3, 113280, Note_on_c, 0, 50, 35
3, 113760, Note_on_c, 0, 50, 0
3, 113760, Note_on_c, 0, 55, 46
3, 114240, Note_on_c, 0, 55, 0
3, 114240, Note_on_c, 0, 50, 40
3, 114360, Note_on_c, 0, 50, 0
3, 114720, Note_on_c, 0, 43, 42
3, 114960, Note_on_c, 0, 43, 0
3, 115200, Note_on_c, 0, 76, 46
3, 115920, Note_on_c, 0, 76, 0
3, 116160, Note_on_c, 0, 72, 37
3, 116640, Note_on_c, 0, 72, 0
3, 116640, Note_on_c, 0, 74, 46
3, 117120, Note_on_c, 0, 74, 0
3, 117120, Note_on_c, 0, 71, 42
3, 117240, Note_on_c, 0, 71, 0
3, 117600, Note_on_c, 0, 67, 40
3, 118080, Note_on_c, 0, 67, 0
3, 118080, Note_on_c, 0, 72, 46
3, 118560, Note_on_c, 0, 72, 0
3, 118560, Note_on_c, 0, 64, 39
3, 119040, Note_on_c, 0, 64, 0
3, 119040, Note_on_c, 0, 65, 46
3, 119520, Note_on_c, 0, 65, 0
3, 119520, Note_on_c, 0, 67, 54
3, 120000, Note_on_c, 0, 67, 0
3, 120000, Note_on_c, 0, 62, 40
3, 120120, Note_on_c, 0, 62, 0
3, 120480, Note_on_c, 0, 55, 42
3, 120720, Note_on_c, 0, 55, 0
3, 120960, Note_on_c, 0, 48, 50
3, 120960, Note_on_c, 0, 52, 50
3, 120960, Note_on_c, 0, 55, 50
3, 120960, Note_on_c, 0, 60, 59
3, 121440, Note_on_c, 0, 60, 0
3, 121440, Note_on_c, 0, 48, 0
3, 121440, Note_on_c, 0, 52, 0
3, 121440, Note_on_c, 0, 55, 0
3, 122400, Note_on_c, 0, 48, 50
3, 122400, Note_on_c, 0, 52, 50
3, 122400, Note_on_c, 0, 55, 50
3, 122400, Note_on_c, 0, 60, 59
3, 122880, Note_on_c, 0, 60, 0
3, 122880, Note_on_c, 0, 48, 0
3, 122880, Note_on_c, 0, 52, 0
3, 122880, Note_on_c, 0, 55, 0
3, 123840, Note_on_c, 0, 52, 59
3, 124320, Note_on_c, 0, 52, 0
3, 124320, Note_on_c, 0, 55, 41
3, 124800, Note_on_c, 0, 55, 0
3, 124800, Note_on_c, 0, 43, 41
3, 125280, Note_on_c, 0, 43, 0
3, 125280, Note_on_c, 0, 48, 46
3, 125760, Note_on_c, 0, 48, 0
3, 125760, Note_on_c, 0, 43, 40
3, 125880, Note_on_c, 0, 43, 0
3, 126240, Note_on_c, 0, 36, 42
3, 126480, Note_on_c, 0, 36, 0
3, 126480, End_track
4, 0, Start_track
4, 0, Title_t, "Pedale"
4, 0, Program_c, 0, 0
4, 9653, Control_c, 0, 64, 127
4, 10080, Control_c, 0, 64, 0
4, 21173, Control_c, 0, 64, 127
4, 21600, Control_c, 0, 64, 0
4, 32693, Control_c, 0, 64, 127
4, 33120, Control_c, 0, 64, 0
4, 44213, Control_c, 0, 64, 127
4, 44640, Control_c, 0, 64, 0
4, 46165, Control_c, 0, 64, 127
4, 46568, Control_c, 0, 64, 0
4, 46701, Control_c, 0, 64, 127
4, 47052, Control_c, 0, 64, 0
4, 47167, Control_c, 0, 64, 127
4, 47541, Control_c, 0, 64, 0
4, 49045, Control_c, 0, 64, 127
4, 49448, Control_c, 0, 64, 0
4, 49581, Control_c, 0, 64, 127
4, 49932, Control_c, 0, 64, 0
4, 50047, Control_c, 0, 64, 127
4, 50421, Control_c, 0, 64, 0
4, 51918, Control_c, 0, 64, 127
4, 53296, Control_c, 0, 64, 0
4, 57685, Control_c, 0, 64, 127
4, 58088, Control_c, 0, 64, 0
4, 58221, Control_c, 0, 64, 127
4, 58572, Control_c, 0, 64, 0
4, 58687, Control_c, 0, 64, 127
4, 59061, Control_c, 0, 64, 0
4, 60565, Control_c, 0, 64, 127
4, 60968, Control_c, 0, 64, 0
4, 61101, Control_c, 0, 64, 127
4, 61452, Control_c, 0, 64, 0
4, 61567, Control_c, 0, 64, 127
4, 61941, Control_c, 0, 64, 0
4, 63438, Control_c, 0, 64, 127
4, 64816, Control_c, 0, 64, 0
4, 69205, Control_c, 0, 64, 127
4, 69608, Control_c, 0, 64, 0
4, 69741, Control_c, 0, 64, 127
4, 70092, Control_c, 0, 64, 0
4, 70207, Control_c, 0, 64, 127
4, 70560, Control_c, 0, 64, 0
4, 72085, Control_c, 0, 64, 127
4, 72488, Control_c, 0, 64, 0
4, 72621, Control_c, 0, 64, 127
4, 72972, Control_c, 0, 64, 0
4, 73087, Control_c, 0, 64, 127
4, 73440, Control_c, 0, 64, 0
4, 74965, Control_c, 0, 64, 127
4, 75368, Control_c, 0, 64, 0
4, 75501, Control_c, 0, 64, 127
4, 75852, Control_c, 0, 64, 0
4, 75967, Control_c, 0, 64, 127
4, 76341, Control_c, 0, 64, 0
4, 77845, Control_c, 0, 64, 127
4, 78248, Control_c, 0, 64, 0
4, 78381, Control_c, 0, 64, 127
4, 78732, Control_c, 0, 64, 0
4, 78847, Control_c, 0, 64, 127
4, 79221, Control_c, 0, 64, 0
4, 80718, Control_c, 0, 64, 127
4, 82096, Control_c, 0, 64, 0
4, 86485, Control_c, 0, 64, 127
4, 86888, Control_c, 0, 64, 0
4, 87021, Control_c, 0, 64, 127
4, 87372, Control_c, 0, 64, 0
4, 87487, Control_c, 0, 64, 127
4, 87840, Control_c, 0, 64, 0
4, 89365, Control_c, 0, 64, 127
4, 89768, Control_c, 0, 64, 0
4, 89901, Control_c, 0, 64, 127
4, 90252, Control_c, 0, 64, 0
4, 90367, Control_c, 0, 64, 127
4, 90720, Control_c, 0, 64, 0
4, 92245, Control_c, 0, 64, 127
4, 92648, Control_c, 0, 64, 0
4, 92781, Control_c, 0, 64, 127
4, 93132, Control_c, 0, 64, 0
4, 93247, Control_c, 0, 64, 127
4, 93621, Control_c, 0, 64, 0
4, 95125, Control_c, 0, 64, 127
4, 95528, Control_c, 0, 64, 0
4, 95661, Control_c, 0, 64, 127
4, 96012, Control_c, 0, 64, 0
4, 96127, Control_c, 0, 64, 127
4, 96501, Control_c, 0, 64, 0
4, 97998, Control_c, 0, 64, 127
4, 99376, Control_c, 0, 64, 0
4, 113333, Control_c, 0, 64, 127
4, 113760, Control_c, 0, 64, 0
4, 124853, Control_c, 0, 64, 127
4, 125280, Control_c, 0, 64, 0
4, 125280, End_track
5, 0, Start_track
5, 0, Title_t, "Haydn Piano Sonata in C major, 2. movement"
5, 0, End_track
6, 0, Start_track
6, 0, Title_t, "Copyright © 2010 by Bernd Krueger"
6, 0, End_track
7, 0, Start_track
7, 0, Title_t, "http://www.piano-midi.de/"
7, 0, End_track
8, 0, Start_track
8, 0, Title_t, "Edition: 2011-10-24"
8, 0, End_track
9, 0, Start_track
9, 0, Title_t, "Spur 8"
9, 0, End_track
10, 0, Start_track
10, 0, Title_t, "Spur 9"
10, 0, End_track
11, 0, Start_track
11, 0, Title_t, "Spur 10"
11, 0, End_track
12, 0, Start_track
12, 0, Title_t, "Spur 11"
12, 0, End_track
13, 0, Start_track
13, 0, Title_t, "Spur 12"
13, 0, End_track
14, 0, Start_track
14, 0, Title_t, "Spur 13"
14, 0, End_track
15, 0, Start_track
15, 0, Title_t, "Spur 14"
15, 0, End_track
16, 0, Start_track
16, 0, Title_t, "Spur 15"
16, 0, End_track
17, 0, Start_track
17, 0, Title_t, "Spur 16"
17, 0, End_track
0, 0, End_of_file
