0, 0, Header, 1, 17, 480
1, 0, Start_track
1, 0, Title_t, "Haydn: Klaviersonate Hob. XVI:9, 2. Satz"
1, 0, Title_t, "Menuet"
1, 0, Copyright_t, "Copyright © 2011 by Bernd Krueger"
1, 0, Text_t, "Bernd Krueger"
1, 0, Text_t, "Erstellt: 8.11.2011\012"
1, 0, Text_t, "Dauer: 2:50 Minuten\012"
1, 0, Time_signature, 3, 2, 24, 8
1, 0, Key_signature, -1, "major"
1, 0, Tempo, 480692
1, 0, Marker_t, "Teil 1"
1, 960, Tempo, 470404
1, 1440, Tempo, 480692
1, 1920, Tempo, 482470
1, 2400, Tempo, 504583
1, 2419, Tempo, 502681
1, 2439, Tempo, 500751
1, 2458, Tempo, 497018
1, 2477, Tempo, 495131
1, 2496, Tempo, 493299
1, 2515, Tempo, 489636
1, 2535, Tempo, 487805
1, 2554, Tempo, 486027
1, 2573, Tempo, 480692
1, 2611, Tempo, 482470
1, 2650, Tempo, 484222
1, 2669, Tempo, 486027
1, 2707, Tempo, 487805
1, 2727, Tempo, 489636
1, 2765, Tempo, 491441
1, 2784, Tempo, 493299
1, 2823, Tempo, 495131
1, 2842, Tempo, 497018
1, 2880, Tempo, 482470
1, 3360, Tempo, 472106
1, 4320, Tempo, 487805
1, 5040, Tempo, 467071
1, 5280, Tempo, 480692
1, 5520, Tempo, 524659
1, 5760, Tempo, 480692
1, 6720, Tempo, 472106
1, 7200, Tempo, 482470
1, 7680, Tempo, 497018
1, 8160, Tempo, 480692
1, 8480, Tempo, 516440
1, 8640, Tempo, 478965
1, 9120, Tempo, 486027
1, 9600, Tempo, 478965
1, 9920, Tempo, 516440
1, 10080, Tempo, 477213
1, 11360, Tempo, 512426
1, 11520, Tempo, 478965
1, 12000, Tempo, 482470
1, 12480, Tempo, 495131
1, 12595, Tempo, 493299
1, 12691, Tempo, 491441
1, 12730, Tempo, 493299
1, 12768, Tempo, 495131
1, 12807, Tempo, 497018
1, 12845, Tempo, 498878
1, 12883, Tempo, 500751
1, 12922, Tempo, 502681
1, 12941, Tempo, 504583
1, 12960, Tempo, 497018
1, 13440, Tempo, 520517
1, 14400, Tempo, 480692
1, 14400, Marker_t, "Teil 1 Wiederholung"
1, 15360, Tempo, 470404
1, 15840, Tempo, 480692
1, 16320, Tempo, 482470
1, 16800, Tempo, 504583
1, 16819, Tempo, 502681
1, 16839, Tempo, 500751
1, 16858, Tempo, 497018
1, 16877, Tempo, 495131
1, 16896, Tempo, 493299
1, 16915, Tempo, 489636
1, 16935, Tempo, 487805
1, 16954, Tempo, 486027
1, 16973, Tempo, 480692
1, 17011, Tempo, 482470
1, 17050, Tempo, 484222
1, 17069, Tempo, 486027
1, 17107, Tempo, 487805
1, 17127, Tempo, 489636
1, 17165, Tempo, 491441
1, 17184, Tempo, 493299
1, 17223, Tempo, 495131
1, 17242, Tempo, 497018
1, 17280, Tempo, 482470
1, 17760, Tempo, 472106
1, 18720, Tempo, 487805
1, 19440, Tempo, 460405
1, 19680, Tempo, 480692
1, 19920, Tempo, 524659
1, 20160, Tempo, 480692
1, 21120, Tempo, 472106
1, 21600, Tempo, 482470
1, 22080, Tempo, 497018
1, 22560, Tempo, 480692
1, 22880, Tempo, 516440
1, 23040, Tempo, 465766
1, 23280, Tempo, 476872
1, 23520, Tempo, 486027
1, 24000, Tempo, 478965
1, 24320, Tempo, 516440
1, 24480, Tempo, 469410
1, 24720, Tempo, 476872
1, 25760, Tempo, 512426
1, 25920, Tempo, 478965
1, 26400, Tempo, 482470
1, 26880, Tempo, 495131
1, 26995, Tempo, 493299
1, 27091, Tempo, 491441
1, 27130, Tempo, 493299
1, 27168, Tempo, 495131
1, 27207, Tempo, 497018
1, 27245, Tempo, 498878
1, 27283, Tempo, 500751
1, 27322, Tempo, 502681
1, 27341, Tempo, 504583
1, 27360, Tempo, 497018
1, 27840, Tempo, 520517
1, 28320, Tempo, 538987
1, 28800, Tempo, 480692
1, 28800, Marker_t, "Teil 2"
1, 29760, Tempo, 470404
1, 30237, Tempo, 473111
1, 30333, Tempo, 474984
1, 30409, Tempo, 476872
1, 30486, Tempo, 478774
1, 30582, Tempo, 480692
1, 30659, Tempo, 482625
1, 30736, Tempo, 476872
1, 30889, Tempo, 478774
1, 31043, Tempo, 480692
1, 31177, Tempo, 482625
1, 31216, Tempo, 474984
1, 31293, Tempo, 476872
1, 31369, Tempo, 478774
1, 31446, Tempo, 480692
1, 31523, Tempo, 482625
1, 31600, Tempo, 484574
1, 31677, Tempo, 486539
1, 31680, Tempo, 482470
1, 31840, Tempo, 480692
1, 32160, Tempo, 504583
1, 32320, Tempo, 480692
1, 32960, Tempo, 518493
1, 33120, Tempo, 498878
1, 33600, Tempo, 508475
1, 34080, Tempo, 514447
1, 34560, Tempo, 500751
1, 34720, Tempo, 478965
1, 34800, Tempo, 478965
1, 35040, Tempo, 482470
1, 35280, Tempo, 475511
1, 35520, Tempo, 484222
1, 35760, Tempo, 487805
1, 36000, Tempo, 494560
1, 36240, Tempo, 480692
1, 36480, Tempo, 482470
1, 36720, Tempo, 475511
1, 36960, Tempo, 486027
1, 37200, Tempo, 484222
1, 37440, Tempo, 487805
1, 37600, Tempo, 480692
1, 37920, Tempo, 504583
1, 38080, Tempo, 480692
1, 38720, Tempo, 518493
1, 38880, Tempo, 498878
1, 39360, Tempo, 508475
1, 39840, Tempo, 524659
1, 40320, Tempo, 480692
1, 41280, Tempo, 470404
1, 41760, Tempo, 480692
1, 42240, Tempo, 482470
1, 42720, Tempo, 504583
1, 42739, Tempo, 502681
1, 42759, Tempo, 500751
1, 42778, Tempo, 497018
1, 42797, Tempo, 495131
1, 42816, Tempo, 493299
1, 42835, Tempo, 489636
1, 42855, Tempo, 487805
1, 42874, Tempo, 486027
1, 42893, Tempo, 480692
1, 42931, Tempo, 482470
1, 42970, Tempo, 484222
1, 42989, Tempo, 486027
1, 43027, Tempo, 487805
1, 43047, Tempo, 489636
1, 43085, Tempo, 491441
1, 43104, Tempo, 493299
1, 43143, Tempo, 495131
1, 43162, Tempo, 497018
1, 43200, Tempo, 482470
1, 43680, Tempo, 472106
1, 44640, Tempo, 487805
1, 45360, Tempo, 467071
1, 45600, Tempo, 480692
1, 45840, Tempo, 524659
1, 46080, Tempo, 480692
1, 47040, Tempo, 467581
1, 47400, Tempo, 486539
1, 47520, Tempo, 482470
1, 48000, Tempo, 497018
1, 48480, Tempo, 480692
1, 48800, Tempo, 516440
1, 48960, Tempo, 478965
1, 49440, Tempo, 486027
1, 49920, Tempo, 478965
1, 50240, Tempo, 516440
1, 50400, Tempo, 477213
1, 50720, Tempo, 557984
1, 50880, Tempo, 477213
1, 51200, Tempo, 491441
1, 51360, Tempo, 477213
1, 51680, Tempo, 512426
1, 51840, Tempo, 478965
1, 52320, Tempo, 482470
1, 52800, Tempo, 495131
1, 52915, Tempo, 493299
1, 53011, Tempo, 491441
1, 53050, Tempo, 493299
1, 53088, Tempo, 495131
1, 53127, Tempo, 497018
1, 53165, Tempo, 498878
1, 53203, Tempo, 500751
1, 53242, Tempo, 502681
1, 53261, Tempo, 504583
1, 53280, Tempo, 497018
1, 53760, Tempo, 520517
1, 54720, Tempo, 480692
1, 54720, Marker_t, "Teil 2 Wiederholung"
1, 55680, Tempo, 470404
1, 56138, Tempo, 471254
1, 56215, Tempo, 473111
1, 56292, Tempo, 474984
1, 56369, Tempo, 476872
1, 56426, Tempo, 478774
1, 56503, Tempo, 480692
1, 56580, Tempo, 482625
1, 56637, Tempo, 474984
1, 56714, Tempo, 476872
1, 56791, Tempo, 478774
1, 56868, Tempo, 480692
1, 56945, Tempo, 482625
1, 57021, Tempo, 484574
1, 57098, Tempo, 486539
1, 57137, Tempo, 473111
1, 57194, Tempo, 474984
1, 57233, Tempo, 476872
1, 57271, Tempo, 478774
1, 57309, Tempo, 480692
1, 57348, Tempo, 482625
1, 57405, Tempo, 484574
1, 57444, Tempo, 486539
1, 57482, Tempo, 488520
1, 57521, Tempo, 490517
1, 57559, Tempo, 492530
1, 57600, Tempo, 482470
1, 57760, Tempo, 480692
1, 58080, Tempo, 504583
1, 58240, Tempo, 480692
1, 58880, Tempo, 518493
1, 58920, Tempo, 531821
1, 59040, Tempo, 498878
1, 59520, Tempo, 508475
1, 60000, Tempo, 514447
1, 60480, Tempo, 527148
1, 60640, Tempo, 478965
1, 60720, Tempo, 478965
1, 60960, Tempo, 482470
1, 61200, Tempo, 475511
1, 61440, Tempo, 484222
1, 61680, Tempo, 487805
1, 61920, Tempo, 504965
1, 62040, Tempo, 480692
1, 62160, Tempo, 480692
1, 62400, Tempo, 482470
1, 62640, Tempo, 475511
1, 62880, Tempo, 486027
1, 63120, Tempo, 484222
1, 63360, Tempo, 487805
1, 63520, Tempo, 480692
1, 63840, Tempo, 504583
1, 64000, Tempo, 480692
1, 64640, Tempo, 518493
1, 64800, Tempo, 498878
1, 65280, Tempo, 508475
1, 65760, Tempo, 524659
1, 66240, Tempo, 473111
1, 66480, Tempo, 478774
1, 67200, Tempo, 470404
1, 67680, Tempo, 480692
1, 68160, Tempo, 482470
1, 68640, Tempo, 504583
1, 68659, Tempo, 502681
1, 68679, Tempo, 500751
1, 68698, Tempo, 497018
1, 68717, Tempo, 495131
1, 68736, Tempo, 493299
1, 68755, Tempo, 489636
1, 68775, Tempo, 487805
1, 68794, Tempo, 486027
1, 68813, Tempo, 480692
1, 68851, Tempo, 482470
1, 68890, Tempo, 484222
1, 68909, Tempo, 486027
1, 68947, Tempo, 487805
1, 68967, Tempo, 489636
1, 69005, Tempo, 491441
1, 69024, Tempo, 493299
1, 69063, Tempo, 495131
1, 69082, Tempo, 497018
1, 69120, Tempo, 482470
1, 69600, Tempo, 472106
1, 70560, Tempo, 487805
1, 70800, Tempo, 486539
1, 71280, Tempo, 467071
1, 71520, Tempo, 480692
1, 71760, Tempo, 524659
1, 72000, Tempo, 473111
1, 72240, Tempo, 478774
1, 72960, Tempo, 472106
1, 73440, Tempo, 482470
1, 73920, Tempo, 497018
1, 74400, Tempo, 480692
1, 74720, Tempo, 516440
1, 74880, Tempo, 478965
1, 75360, Tempo, 486027
1, 75840, Tempo, 478965
1, 76160, Tempo, 516440
1, 76320, Tempo, 477213
1, 76640, Tempo, 557984
1, 76800, Tempo, 477213
1, 77120, Tempo, 491441
1, 77280, Tempo, 474984
1, 77600, Tempo, 512426
1, 77760, Tempo, 478965
1, 78240, Tempo, 482470
1, 78720, Tempo, 495131
1, 78835, Tempo, 493299
1, 78931, Tempo, 491441
1, 78970, Tempo, 493299
1, 79008, Tempo, 495131
1, 79047, Tempo, 497018
1, 79085, Tempo, 498878
1, 79123, Tempo, 500751
1, 79162, Tempo, 502681
1, 79181, Tempo, 504583
1, 79200, Tempo, 497018
1, 79680, Tempo, 520517
1, 80160, Tempo, 572410
1, 80640, Key_signature, -2, "major"
1, 80640, Tempo, 505178
1, 80640, Marker_t, "Trio Teil 1"
1, 81120, Tempo, 478965
1, 81600, Tempo, 470404
1, 82080, Tempo, 480692
1, 82560, Tempo, 482470
1, 82563, Tempo, 473111
1, 82621, Tempo, 474984
1, 82678, Tempo, 476872
1, 82736, Tempo, 478774
1, 82793, Tempo, 480692
1, 82851, Tempo, 482625
1, 82909, Tempo, 484574
1, 82966, Tempo, 486539
1, 83024, Tempo, 488520
1, 83062, Tempo, 473111
1, 83139, Tempo, 474984
1, 83216, Tempo, 476872
1, 83293, Tempo, 478774
1, 83369, Tempo, 480692
1, 83446, Tempo, 482625
1, 83504, Tempo, 484574
1, 83520, Tempo, 482470
1, 83680, Tempo, 480692
1, 84000, Tempo, 484770
1, 84160, Tempo, 480692
1, 84800, Tempo, 518493
1, 84960, Tempo, 482470
1, 85440, Tempo, 482470
1, 85600, Tempo, 480692
1, 86400, Tempo, 482820
1, 86880, Tempo, 477061
1, 87360, Tempo, 486736
1, 87840, Tempo, 482820
1, 88320, Tempo, 477061
1, 88800, Tempo, 486736
1, 89280, Tempo, 478965
1, 89760, Tempo, 482470
1, 90240, Tempo, 495131
1, 90355, Tempo, 493299
1, 90451, Tempo, 491441
1, 90490, Tempo, 493299
1, 90528, Tempo, 495131
1, 90567, Tempo, 497018
1, 90605, Tempo, 498878
1, 90643, Tempo, 500751
1, 90682, Tempo, 502681
1, 90701, Tempo, 504583
1, 90720, Tempo, 497018
1, 91200, Tempo, 520517
1, 91680, Tempo, 518269
1, 92160, Tempo, 505178
1, 92160, Marker_t, "Trio Teil 1 Wiederholung"
1, 92640, Tempo, 478965
1, 93120, Tempo, 470404
1, 93600, Tempo, 473111
1, 94080, Tempo, 482470
1, 94084, Tempo, 473111
1, 94141, Tempo, 474984
1, 94199, Tempo, 476872
1, 94257, Tempo, 478774
1, 94314, Tempo, 480692
1, 94372, Tempo, 482625
1, 94429, Tempo, 484574
1, 94487, Tempo, 486539
1, 94525, Tempo, 488520
1, 94545, Tempo, 476872
1, 94621, Tempo, 478774
1, 94698, Tempo, 480692
1, 94775, Tempo, 482625
1, 94852, Tempo, 484574
1, 94929, Tempo, 486539
1, 95005, Tempo, 488520
1, 95040, Tempo, 482470
1, 95200, Tempo, 480692
1, 95520, Tempo, 482820
1, 95680, Tempo, 480692
1, 96320, Tempo, 518493
1, 96480, Tempo, 482470
1, 96960, Tempo, 482470
1, 97120, Tempo, 480692
1, 97920, Tempo, 473111
1, 98160, Tempo, 482625
1, 98400, Tempo, 477061
1, 98880, Tempo, 486736
1, 99360, Tempo, 476872
1, 99600, Tempo, 480692
1, 99840, Tempo, 477061
1, 100320, Tempo, 486736
1, 100800, Tempo, 478965
1, 101280, Tempo, 482470
1, 101760, Tempo, 495131
1, 101875, Tempo, 493299
1, 101971, Tempo, 491441
1, 102010, Tempo, 493299
1, 102048, Tempo, 495131
1, 102087, Tempo, 497018
1, 102125, Tempo, 498878
1, 102163, Tempo, 500751
1, 102202, Tempo, 502681
1, 102221, Tempo, 504583
1, 102240, Tempo, 497018
1, 102720, Tempo, 520517
1, 103200, Tempo, 529474
1, 103680, Tempo, 470404
1, 103680, Marker_t, "Trio Teil 2"
1, 104160, Tempo, 471439
1, 104640, Tempo, 482470
1, 105600, Tempo, 474984
1, 105720, Tempo, 473111
1, 106080, Tempo, 482470
1, 106560, Tempo, 470404
1, 107040, Tempo, 473298
1, 107520, Tempo, 482470
1, 108000, Tempo, 498878
1, 108480, Tempo, 508475
1, 108960, Tempo, 514447
1, 109440, Tempo, 482820
1, 109920, Tempo, 477061
1, 110400, Tempo, 486736
1, 110880, Tempo, 482820
1, 111360, Tempo, 477061
1, 111840, Tempo, 486736
1, 112320, Tempo, 478965
1, 112800, Tempo, 482470
1, 113280, Tempo, 495131
1, 113395, Tempo, 493299
1, 113491, Tempo, 491441
1, 113530, Tempo, 493299
1, 113568, Tempo, 495131
1, 113607, Tempo, 497018
1, 113645, Tempo, 498878
1, 113683, Tempo, 500751
1, 113722, Tempo, 502681
1, 113741, Tempo, 504583
1, 113760, Tempo, 497018
1, 114240, Tempo, 520517
1, 114720, Tempo, 520517
1, 115200, Tempo, 470404
1, 115200, Marker_t, "Trio Teil 2 Wiederholung"
1, 115680, Tempo, 475172
1, 116160, Tempo, 482470
1, 117120, Tempo, 473111
1, 117600, Tempo, 478774
1, 118080, Tempo, 470404
1, 118560, Tempo, 471439
1, 119040, Tempo, 482470
1, 119520, Tempo, 498878
1, 120000, Tempo, 508475
1, 120480, Tempo, 514447
1, 120960, Tempo, 478774
1, 121080, Tempo, 473111
1, 121200, Tempo, 482625
1, 121440, Tempo, 477061
1, 121920, Tempo, 486736
1, 122400, Tempo, 473111
1, 122640, Tempo, 480692
1, 122880, Tempo, 477061
1, 123360, Tempo, 486736
1, 123840, Tempo, 478965
1, 124320, Tempo, 482470
1, 124800, Tempo, 495131
1, 124915, Tempo, 493299
1, 125011, Tempo, 491441
1, 125050, Tempo, 493299
1, 125088, Tempo, 495131
1, 125127, Tempo, 497018
1, 125165, Tempo, 498878
1, 125203, Tempo, 500751
1, 125242, Tempo, 502681
1, 125261, Tempo, 504583
1, 125280, Tempo, 497018
1, 125760, Tempo, 520517
1, 126240, Tempo, 586396
1, 126720, Key_signature, -1, "major"
1, 126720, Tempo, 473111
1, 126720, Marker_t, "Teil 1 Da Capo"
1, 126960, Tempo, 478774
1, 127680, Tempo, 470404
1, 128160, Tempo, 480692
1, 128640, Tempo, 482470
1, 129120, Tempo, 504583
1, 129139, Tempo, 502681
1, 129159, Tempo, 500751
1, 129178, Tempo, 497018
1, 129197, Tempo, 495131
1, 129216, Tempo, 493299
1, 129235, Tempo, 489636
1, 129255, Tempo, 487805
1, 129274, Tempo, 486027
1, 129293, Tempo, 480692
1, 129331, Tempo, 482470
1, 129370, Tempo, 484222
1, 129389, Tempo, 486027
1, 129427, Tempo, 487805
1, 129447, Tempo, 489636
1, 129485, Tempo, 491441
1, 129504, Tempo, 493299
1, 129543, Tempo, 495131
1, 129562, Tempo, 497018
1, 129600, Tempo, 482470
1, 130080, Tempo, 472106
1, 130560, Tempo, 467581
1, 131040, Tempo, 487805
1, 131760, Tempo, 467071
1, 132000, Tempo, 480692
1, 132240, Tempo, 524659
1, 132480, Tempo, 474984
1, 132720, Tempo, 478774
1, 133440, Tempo, 472106
1, 133920, Tempo, 482470
1, 134400, Tempo, 497018
1, 134880, Tempo, 480692
1, 135200, Tempo, 516440
1, 135360, Tempo, 473111
1, 135600, Tempo, 478774
1, 135840, Tempo, 486027
1, 136320, Tempo, 478965
1, 136640, Tempo, 516440
1, 136800, Tempo, 471254
1, 137040, Tempo, 476872
1, 138080, Tempo, 512426
1, 138240, Tempo, 478965
1, 138720, Tempo, 482470
1, 139200, Tempo, 495131
1, 139315, Tempo, 493299
1, 139411, Tempo, 491441
1, 139450, Tempo, 493299
1, 139488, Tempo, 495131
1, 139527, Tempo, 497018
1, 139565, Tempo, 498878
1, 139603, Tempo, 500751
1, 139642, Tempo, 502681
1, 139661, Tempo, 504583
1, 139680, Tempo, 497018
1, 140160, Tempo, 520517
1, 140640, Tempo, 538987
1, 141120, Tempo, 480692
1, 141120, Marker_t, "Teil 2 Da Capo"
1, 142080, Tempo, 470404
1, 142498, Tempo, 467581
1, 142555, Tempo, 469410
1, 142613, Tempo, 471254
1, 142651, Tempo, 473111
1, 142709, Tempo, 474984
1, 142747, Tempo, 476872
1, 142805, Tempo, 478774
1, 142863, Tempo, 480692
1, 142901, Tempo, 482625
1, 142959, Tempo, 484574
1, 142997, Tempo, 486539
1, 143040, Tempo, 482470
1, 143093, Tempo, 473111
1, 143151, Tempo, 474984
1, 143189, Tempo, 476872
1, 143227, Tempo, 478774
1, 143285, Tempo, 480692
1, 143323, Tempo, 482625
1, 143362, Tempo, 484574
1, 143419, Tempo, 486539
1, 143458, Tempo, 488520
1, 143496, Tempo, 490517
1, 143515, Tempo, 478774
1, 144000, Tempo, 482470
1, 144160, Tempo, 480692
1, 144480, Tempo, 504583
1, 144640, Tempo, 480692
1, 145280, Tempo, 518493
1, 145440, Tempo, 484574
1, 145680, Tempo, 500751
1, 145920, Tempo, 508475
1, 146400, Tempo, 514447
1, 146880, Tempo, 509251
1, 147040, Tempo, 478965
1, 147120, Tempo, 478965
1, 147360, Tempo, 482470
1, 147600, Tempo, 475511
1, 147840, Tempo, 484222
1, 148080, Tempo, 487805
1, 148320, Tempo, 494560
1, 148560, Tempo, 480692
1, 148800, Tempo, 482470
1, 149040, Tempo, 475511
1, 149280, Tempo, 486027
1, 149520, Tempo, 484222
1, 149760, Tempo, 487805
1, 149920, Tempo, 480692
1, 150240, Tempo, 504583
1, 150400, Tempo, 480692
1, 151040, Tempo, 518493
1, 151200, Tempo, 498878
1, 151680, Tempo, 508475
1, 152160, Tempo, 524659
1, 152640, Tempo, 469410
1, 152880, Tempo, 480692
1, 153600, Tempo, 470404
1, 154080, Tempo, 480692
1, 154560, Tempo, 482470
1, 155040, Tempo, 504583
1, 155059, Tempo, 502681
1, 155079, Tempo, 500751
1, 155098, Tempo, 497018
1, 155117, Tempo, 495131
1, 155136, Tempo, 493299
1, 155155, Tempo, 489636
1, 155175, Tempo, 487805
1, 155194, Tempo, 486027
1, 155213, Tempo, 480692
1, 155251, Tempo, 482470
1, 155290, Tempo, 484222
1, 155309, Tempo, 486027
1, 155347, Tempo, 487805
1, 155367, Tempo, 489636
1, 155405, Tempo, 491441
1, 155424, Tempo, 493299
1, 155463, Tempo, 495131
1, 155482, Tempo, 497018
1, 155520, Tempo, 482470
1, 156000, Tempo, 472106
1, 156960, Tempo, 487805
1, 157680, Tempo, 467071
1, 157920, Tempo, 480692
1, 158160, Tempo, 524659
1, 158400, Tempo, 473111
1, 158640, Tempo, 478774
1, 159360, Tempo, 472106
1, 159840, Tempo, 482470
1, 160320, Tempo, 497018
1, 160800, Tempo, 480692
1, 161120, Tempo, 516440
1, 161280, Tempo, 478965
1, 161760, Tempo, 486027
1, 162240, Tempo, 478965
1, 162560, Tempo, 516440
1, 162720, Tempo, 477213
1, 163040, Tempo, 557984
1, 163200, Tempo, 471254
1, 163520, Tempo, 491441
1, 163680, Tempo, 469410
1, 164000, Tempo, 512426
1, 164040, Tempo, 520291
1, 164160, Tempo, 471254
1, 164280, Tempo, 478774
1, 164640, Tempo, 482470
1, 165120, Tempo, 495131
1, 165235, Tempo, 493299
1, 165331, Tempo, 491441
1, 165370, Tempo, 493299
1, 165408, Tempo, 495131
1, 165447, Tempo, 497018
1, 165485, Tempo, 498878
1, 165523, Tempo, 500751
1, 165562, Tempo, 502681
1, 165581, Tempo, 504583
1, 165600, Tempo, 511422
1, 166080, Tempo, 577923
1, 166560, Tempo, 589275
1, 166560, End_track
2, 0, Start_track
2, 0, Title_t, "Piano right"
2, 0, Program_c, 0, 0
2, 0, Note_on_c, 0, 77, 62
2, 60, Note_on_c, 0, 77, 0
2, 60, Note_on_c, 0, 79, 48
2, 120, Note_on_c, 0, 79, 0
2, 120, Note_on_c, 0, 77, 56
2, 180, Note_on_c, 0, 77, 0
2, 180, Note_on_c, 0, 76, 48
2, 240, Note_on_c, 0, 76, 0
2, 240, Note_on_c, 0, 77, 61
2, 960, Note_on_c, 0, 77, 0
2, 960, Note_on_c, 0, 82, 55
2, 1120, Note_on_c, 0, 82, 0
2, 1120, Note_on_c, 0, 79, 46
2, 1280, Note_on_c, 0, 79, 0
2, 1280, Note_on_c, 0, 76, 45
2, 1440, Note_on_c, 0, 76, 0
2, 1440, Note_on_c, 0, 77, 50
2, 1680, Note_on_c, 0, 77, 0
2, 1680, Note_on_c, 0, 81, 43
2, 1920, Note_on_c, 0, 81, 0
2, 1920, Note_on_c, 0, 72, 50
2, 2400, Note_on_c, 0, 72, 0
2, 2400, Note_on_c, 0, 70, 46
2, 2460, Note_on_c, 0, 70, 0
2, 2460, Note_on_c, 0, 72, 41
2, 2520, Note_on_c, 0, 72, 0
2, 2520, Note_on_c, 0, 70, 46
2, 2580, Note_on_c, 0, 70, 0
2, 2580, Note_on_c, 0, 72, 41
2, 2640, Note_on_c, 0, 72, 0
2, 2640, Note_on_c, 0, 70, 46
2, 2720, Note_on_c, 0, 70, 0
2, 2720, Note_on_c, 0, 72, 43
2, 2800, Note_on_c, 0, 72, 0
2, 2800, Note_on_c, 0, 70, 43
2, 2880, Note_on_c, 0, 70, 0
2, 2880, Note_on_c, 0, 69, 50
2, 3120, Note_on_c, 0, 69, 0
2, 3120, Note_on_c, 0, 72, 43
2, 3360, Note_on_c, 0, 72, 0
2, 3360, Note_on_c, 0, 77, 50
2, 3520, Note_on_c, 0, 77, 0
2, 3520, Note_on_c, 0, 76, 41
2, 3680, Note_on_c, 0, 76, 0
2, 3680, Note_on_c, 0, 74, 41
2, 3840, Note_on_c, 0, 74, 0
2, 3840, Note_on_c, 0, 72, 47
2, 4000, Note_on_c, 0, 72, 0
2, 4000, Note_on_c, 0, 70, 40
2, 4160, Note_on_c, 0, 70, 0
2, 4160, Note_on_c, 0, 69, 40
2, 4320, Note_on_c, 0, 69, 0
2, 4320, Note_on_c, 0, 67, 50
2, 5040, Note_on_c, 0, 67, 0
2, 5040, Note_on_c, 0, 69, 43
2, 5160, Note_on_c, 0, 69, 0
2, 5160, Note_on_c, 0, 70, 38
2, 5280, Note_on_c, 0, 70, 0
2, 5280, Note_on_c, 0, 69, 47
2, 5760, Note_on_c, 0, 69, 0
2, 5760, Note_on_c, 0, 77, 64
2, 5820, Note_on_c, 0, 77, 0
2, 5820, Note_on_c, 0, 79, 51
2, 5880, Note_on_c, 0, 79, 0
2, 5880, Note_on_c, 0, 77, 56
2, 5940, Note_on_c, 0, 77, 0
2, 5940, Note_on_c, 0, 76, 50
2, 6000, Note_on_c, 0, 76, 0
2, 6000, Note_on_c, 0, 77, 57
2, 6720, Note_on_c, 0, 77, 0
2, 6720, Note_on_c, 0, 82, 50
2, 6880, Note_on_c, 0, 82, 0
2, 6880, Note_on_c, 0, 79, 46
2, 7040, Note_on_c, 0, 79, 0
2, 7040, Note_on_c, 0, 76, 45
2, 7200, Note_on_c, 0, 76, 0
2, 7200, Note_on_c, 0, 77, 50
2, 7440, Note_on_c, 0, 77, 0
2, 7440, Note_on_c, 0, 81, 43
2, 7680, Note_on_c, 0, 81, 0
2, 7680, Note_on_c, 0, 72, 50
2, 8160, Note_on_c, 0, 72, 0
2, 8160, Note_on_c, 0, 81, 50
2, 8320, Note_on_c, 0, 81, 0
2, 8320, Note_on_c, 0, 83, 46
2, 8480, Note_on_c, 0, 83, 0
2, 8480, Note_on_c, 0, 84, 46
2, 8630, Note_on_c, 0, 84, 0
2, 8640, Note_on_c, 0, 84, 54
2, 8800, Note_on_c, 0, 84, 0
2, 8800, Note_on_c, 0, 83, 48
2, 8960, Note_on_c, 0, 83, 0
2, 8960, Note_on_c, 0, 81, 48
2, 9120, Note_on_c, 0, 81, 0
2, 9120, Note_on_c, 0, 79, 53
2, 9600, Note_on_c, 0, 79, 0
2, 9600, Note_on_c, 0, 81, 50
2, 9760, Note_on_c, 0, 81, 0
2, 9760, Note_on_c, 0, 83, 47
2, 9920, Note_on_c, 0, 83, 0
2, 9920, Note_on_c, 0, 84, 47
2, 10070, Note_on_c, 0, 84, 0
2, 10080, Note_on_c, 0, 84, 53
2, 10240, Note_on_c, 0, 84, 0
2, 10240, Note_on_c, 0, 83, 46
2, 10400, Note_on_c, 0, 83, 0
2, 10400, Note_on_c, 0, 81, 46
2, 10560, Note_on_c, 0, 81, 0
2, 10560, Note_on_c, 0, 79, 50
2, 10720, Note_on_c, 0, 79, 0
2, 10720, Note_on_c, 0, 77, 44
2, 10880, Note_on_c, 0, 77, 0
2, 10880, Note_on_c, 0, 76, 44
2, 11040, Note_on_c, 0, 76, 0
2, 11040, Note_on_c, 0, 77, 48
2, 11200, Note_on_c, 0, 77, 0
2, 11200, Note_on_c, 0, 76, 45
2, 11360, Note_on_c, 0, 76, 0
2, 11360, Note_on_c, 0, 74, 45
2, 11520, Note_on_c, 0, 74, 0
2, 11520, Note_on_c, 0, 76, 50
2, 11680, Note_on_c, 0, 76, 0
2, 11680, Note_on_c, 0, 77, 46
2, 11840, Note_on_c, 0, 77, 0
2, 11840, Note_on_c, 0, 79, 46
2, 12000, Note_on_c, 0, 79, 0
2, 12000, Note_on_c, 0, 72, 50
2, 12480, Note_on_c, 0, 72, 0
2, 12480, Note_on_c, 0, 71, 46
2, 12540, Note_on_c, 0, 71, 0
2, 12540, Note_on_c, 0, 72, 41
2, 12600, Note_on_c, 0, 72, 0
2, 12600, Note_on_c, 0, 71, 46
2, 12660, Note_on_c, 0, 71, 0
2, 12660, Note_on_c, 0, 72, 41
2, 12720, Note_on_c, 0, 72, 0
2, 12720, Note_on_c, 0, 71, 46
2, 12800, Note_on_c, 0, 71, 0
2, 12800, Note_on_c, 0, 72, 43
2, 12880, Note_on_c, 0, 72, 0
2, 12880, Note_on_c, 0, 71, 43
2, 12960, Note_on_c, 0, 71, 0
2, 12960, Note_on_c, 0, 72, 50
2, 13920, Note_on_c, 0, 72, 0
2, 14400, Note_on_c, 0, 77, 64
2, 14460, Note_on_c, 0, 77, 0
2, 14460, Note_on_c, 0, 79, 51
2, 14520, Note_on_c, 0, 79, 0
2, 14520, Note_on_c, 0, 77, 56
2, 14580, Note_on_c, 0, 77, 0
2, 14580, Note_on_c, 0, 76, 51
2, 14640, Note_on_c, 0, 76, 0
2, 14640, Note_on_c, 0, 77, 62
2, 15360, Note_on_c, 0, 77, 0
2, 15360, Note_on_c, 0, 82, 50
2, 15520, Note_on_c, 0, 82, 0
2, 15520, Note_on_c, 0, 79, 46
2, 15680, Note_on_c, 0, 79, 0
2, 15680, Note_on_c, 0, 76, 45
2, 15840, Note_on_c, 0, 76, 0
2, 15840, Note_on_c, 0, 77, 50
2, 16080, Note_on_c, 0, 77, 0
2, 16080, Note_on_c, 0, 81, 43
2, 16320, Note_on_c, 0, 81, 0
2, 16320, Note_on_c, 0, 72, 50
2, 16800, Note_on_c, 0, 72, 0
2, 16800, Note_on_c, 0, 70, 46
2, 16860, Note_on_c, 0, 70, 0
2, 16860, Note_on_c, 0, 72, 41
2, 16920, Note_on_c, 0, 72, 0
2, 16920, Note_on_c, 0, 70, 46
2, 16980, Note_on_c, 0, 70, 0
2, 16980, Note_on_c, 0, 72, 41
2, 17040, Note_on_c, 0, 72, 0
2, 17040, Note_on_c, 0, 70, 46
2, 17120, Note_on_c, 0, 70, 0
2, 17120, Note_on_c, 0, 72, 43
2, 17200, Note_on_c, 0, 72, 0
2, 17200, Note_on_c, 0, 70, 43
2, 17280, Note_on_c, 0, 70, 0
2, 17280, Note_on_c, 0, 69, 50
2, 17520, Note_on_c, 0, 69, 0
2, 17520, Note_on_c, 0, 72, 43
2, 17760, Note_on_c, 0, 72, 0
2, 17760, Note_on_c, 0, 77, 50
2, 17920, Note_on_c, 0, 77, 0
2, 17920, Note_on_c, 0, 76, 41
2, 18080, Note_on_c, 0, 76, 0
2, 18080, Note_on_c, 0, 74, 41
2, 18240, Note_on_c, 0, 74, 0
2, 18240, Note_on_c, 0, 72, 47
2, 18400, Note_on_c, 0, 72, 0
2, 18400, Note_on_c, 0, 70, 40
2, 18560, Note_on_c, 0, 70, 0
2, 18560, Note_on_c, 0, 69, 40
2, 18720, Note_on_c, 0, 69, 0
2, 18720, Note_on_c, 0, 67, 50
2, 19440, Note_on_c, 0, 67, 0
2, 19440, Note_on_c, 0, 69, 43
2, 19560, Note_on_c, 0, 69, 0
2, 19560, Note_on_c, 0, 70, 38
2, 19680, Note_on_c, 0, 70, 0
2, 19680, Note_on_c, 0, 69, 47
2, 20160, Note_on_c, 0, 69, 0
2, 20160, Note_on_c, 0, 77, 64
2, 20220, Note_on_c, 0, 77, 0
2, 20220, Note_on_c, 0, 79, 51
2, 20280, Note_on_c, 0, 79, 0
2, 20280, Note_on_c, 0, 77, 56
2, 20340, Note_on_c, 0, 77, 0
2, 20340, Note_on_c, 0, 76, 54
2, 20400, Note_on_c, 0, 76, 0
2, 20400, Note_on_c, 0, 77, 65
2, 21120, Note_on_c, 0, 77, 0
2, 21120, Note_on_c, 0, 82, 58
2, 21280, Note_on_c, 0, 82, 0
2, 21280, Note_on_c, 0, 79, 46
2, 21440, Note_on_c, 0, 79, 0
2, 21440, Note_on_c, 0, 76, 45
2, 21600, Note_on_c, 0, 76, 0
2, 21600, Note_on_c, 0, 77, 50
2, 21840, Note_on_c, 0, 77, 0
2, 21840, Note_on_c, 0, 81, 43
2, 22080, Note_on_c, 0, 81, 0
2, 22080, Note_on_c, 0, 72, 50
2, 22560, Note_on_c, 0, 72, 0
2, 22560, Note_on_c, 0, 81, 50
2, 22720, Note_on_c, 0, 81, 0
2, 22720, Note_on_c, 0, 83, 46
2, 22880, Note_on_c, 0, 83, 0
2, 22880, Note_on_c, 0, 84, 46
2, 23030, Note_on_c, 0, 84, 0
2, 23040, Note_on_c, 0, 84, 54
2, 23200, Note_on_c, 0, 84, 0
2, 23200, Note_on_c, 0, 83, 48
2, 23360, Note_on_c, 0, 83, 0
2, 23360, Note_on_c, 0, 81, 48
2, 23520, Note_on_c, 0, 81, 0
2, 23520, Note_on_c, 0, 79, 53
2, 24000, Note_on_c, 0, 79, 0
2, 24000, Note_on_c, 0, 81, 50
2, 24160, Note_on_c, 0, 81, 0
2, 24160, Note_on_c, 0, 83, 47
2, 24320, Note_on_c, 0, 83, 0
2, 24320, Note_on_c, 0, 84, 47
2, 24470, Note_on_c, 0, 84, 0
2, 24480, Note_on_c, 0, 84, 53
2, 24640, Note_on_c, 0, 84, 0
2, 24640, Note_on_c, 0, 83, 46
2, 24800, Note_on_c, 0, 83, 0
2, 24800, Note_on_c, 0, 81, 46
2, 24960, Note_on_c, 0, 81, 0
2, 24960, Note_on_c, 0, 79, 50
2, 25120, Note_on_c, 0, 79, 0
2, 25120, Note_on_c, 0, 77, 44
2, 25280, Note_on_c, 0, 77, 0
2, 25280, Note_on_c, 0, 76, 44
2, 25440, Note_on_c, 0, 76, 0
2, 25440, Note_on_c, 0, 77, 48
2, 25600, Note_on_c, 0, 77, 0
2, 25600, Note_on_c, 0, 76, 45
2, 25760, Note_on_c, 0, 76, 0
2, 25760, Note_on_c, 0, 74, 45
2, 25920, Note_on_c, 0, 74, 0
2, 25920, Note_on_c, 0, 76, 50
2, 26080, Note_on_c, 0, 76, 0
2, 26080, Note_on_c, 0, 77, 46
2, 26240, Note_on_c, 0, 77, 0
2, 26240, Note_on_c, 0, 79, 46
2, 26400, Note_on_c, 0, 79, 0
2, 26400, Note_on_c, 0, 72, 50
2, 26880, Note_on_c, 0, 72, 0
2, 26880, Note_on_c, 0, 71, 46
2, 26940, Note_on_c, 0, 71, 0
2, 26940, Note_on_c, 0, 72, 41
2, 27000, Note_on_c, 0, 72, 0
2, 27000, Note_on_c, 0, 71, 46
2, 27060, Note_on_c, 0, 71, 0
2, 27060, Note_on_c, 0, 72, 41
2, 27120, Note_on_c, 0, 72, 0
2, 27120, Note_on_c, 0, 71, 46
2, 27200, Note_on_c, 0, 71, 0
2, 27200, Note_on_c, 0, 72, 43
2, 27280, Note_on_c, 0, 72, 0
2, 27280, Note_on_c, 0, 71, 43
2, 27360, Note_on_c, 0, 71, 0
2, 27360, Note_on_c, 0, 72, 50
2, 28320, Note_on_c, 0, 72, 0
2, 28800, Note_on_c, 0, 72, 50
2, 29760, Note_on_c, 0, 72, 0
2, 29760, Note_on_c, 0, 79, 50
2, 29920, Note_on_c, 0, 79, 0
2, 29920, Note_on_c, 0, 76, 46
2, 30080, Note_on_c, 0, 76, 0
2, 30080, Note_on_c, 0, 72, 45
2, 30240, Note_on_c, 0, 72, 0
2, 30240, Note_on_c, 0, 81, 50
2, 30400, Note_on_c, 0, 81, 0
2, 30400, Note_on_c, 0, 77, 45
2, 30560, Note_on_c, 0, 77, 0
2, 30560, Note_on_c, 0, 72, 45
2, 30720, Note_on_c, 0, 72, 0
2, 30720, Note_on_c, 0, 82, 55
2, 30880, Note_on_c, 0, 82, 0
2, 30880, Note_on_c, 0, 81, 48
2, 31040, Note_on_c, 0, 81, 0
2, 31040, Note_on_c, 0, 79, 48
2, 31200, Note_on_c, 0, 79, 0
2, 31200, Note_on_c, 0, 81, 54
2, 31680, Note_on_c, 0, 81, 0
2, 31680, Note_on_c, 0, 79, 53
2, 31840, Note_on_c, 0, 79, 0
2, 31840, Note_on_c, 0, 82, 50
2, 32000, Note_on_c, 0, 82, 0
2, 32000, Note_on_c, 0, 81, 47
2, 32160, Note_on_c, 0, 81, 0
2, 32160, Note_on_c, 0, 79, 51
2, 32320, Note_on_c, 0, 79, 0
2, 32320, Note_on_c, 0, 86, 55
2, 32480, Note_on_c, 0, 86, 0
2, 32480, Note_on_c, 0, 84, 49
2, 32640, Note_on_c, 0, 84, 0
2, 32640, Note_on_c, 0, 82, 54
2, 32800, Note_on_c, 0, 82, 0
2, 32800, Note_on_c, 0, 81, 50
2, 32960, Note_on_c, 0, 81, 0
2, 32960, Note_on_c, 0, 79, 45
2, 33120, Note_on_c, 0, 79, 0
2, 33120, Note_on_c, 0, 77, 50
2, 33360, Note_on_c, 0, 77, 0
2, 33360, Note_on_c, 0, 76, 43
2, 34080, Note_on_c, 0, 76, 0
2, 34800, Note_on_c, 0, 72, 45
2, 35280, Note_on_c, 0, 72, 0
2, 35280, Note_on_c, 0, 80, 53
2, 35760, Note_on_c, 0, 80, 0
2, 35760, Note_on_c, 0, 72, 48
2, 36240, Note_on_c, 0, 72, 0
2, 36240, Note_on_c, 0, 70, 40
2, 36480, Note_on_c, 0, 70, 0
2, 36480, Note_on_c, 0, 79, 49
2, 36720, Note_on_c, 0, 79, 0
2, 36720, Note_on_c, 0, 70, 40
2, 37200, Note_on_c, 0, 70, 0
2, 37200, Note_on_c, 0, 68, 40
2, 37680, Note_on_c, 0, 68, 0
2, 37680, Note_on_c, 0, 67, 43
2, 37920, Note_on_c, 0, 67, 0
2, 37920, Note_on_c, 0, 73, 50
2, 38160, Note_on_c, 0, 73, 0
2, 38160, Note_on_c, 0, 70, 46
2, 38400, Note_on_c, 0, 70, 0
2, 38400, Note_on_c, 0, 67, 47
2, 38640, Note_on_c, 0, 67, 0
2, 38640, Note_on_c, 0, 65, 43
2, 38880, Note_on_c, 0, 65, 0
2, 38880, Note_on_c, 0, 65, 47
2, 39120, Note_on_c, 0, 65, 0
2, 39120, Note_on_c, 0, 64, 39
2, 39840, Note_on_c, 0, 64, 0
2, 40320, Note_on_c, 0, 77, 64
2, 40380, Note_on_c, 0, 77, 0
2, 40380, Note_on_c, 0, 79, 51
2, 40440, Note_on_c, 0, 79, 0
2, 40440, Note_on_c, 0, 77, 56
2, 40500, Note_on_c, 0, 77, 0
2, 40500, Note_on_c, 0, 76, 51
2, 40560, Note_on_c, 0, 76, 0
2, 40560, Note_on_c, 0, 77, 64
2, 41280, Note_on_c, 0, 77, 0
2, 41280, Note_on_c, 0, 82, 55
2, 41440, Note_on_c, 0, 82, 0
2, 41440, Note_on_c, 0, 79, 46
2, 41600, Note_on_c, 0, 79, 0
2, 41600, Note_on_c, 0, 76, 45
2, 41760, Note_on_c, 0, 76, 0
2, 41760, Note_on_c, 0, 77, 50
2, 42000, Note_on_c, 0, 77, 0
2, 42000, Note_on_c, 0, 81, 43
2, 42240, Note_on_c, 0, 81, 0
2, 42240, Note_on_c, 0, 72, 50
2, 42720, Note_on_c, 0, 72, 0
2, 42720, Note_on_c, 0, 70, 46
2, 42780, Note_on_c, 0, 70, 0
2, 42780, Note_on_c, 0, 72, 41
2, 42840, Note_on_c, 0, 72, 0
2, 42840, Note_on_c, 0, 70, 46
2, 42900, Note_on_c, 0, 70, 0
2, 42900, Note_on_c, 0, 72, 41
2, 42960, Note_on_c, 0, 72, 0
2, 42960, Note_on_c, 0, 70, 46
2, 43040, Note_on_c, 0, 70, 0
2, 43040, Note_on_c, 0, 72, 43
2, 43120, Note_on_c, 0, 72, 0
2, 43120, Note_on_c, 0, 70, 43
2, 43200, Note_on_c, 0, 70, 0
2, 43200, Note_on_c, 0, 69, 50
2, 43440, Note_on_c, 0, 69, 0
2, 43440, Note_on_c, 0, 72, 43
2, 43680, Note_on_c, 0, 72, 0
2, 43680, Note_on_c, 0, 77, 50
2, 43840, Note_on_c, 0, 77, 0
2, 43840, Note_on_c, 0, 76, 41
2, 44000, Note_on_c, 0, 76, 0
2, 44000, Note_on_c, 0, 74, 41
2, 44160, Note_on_c, 0, 74, 0
2, 44160, Note_on_c, 0, 72, 47
2, 44320, Note_on_c, 0, 72, 0
2, 44320, Note_on_c, 0, 70, 40
2, 44480, Note_on_c, 0, 70, 0
2, 44480, Note_on_c, 0, 69, 40
2, 44640, Note_on_c, 0, 69, 0
2, 44640, Note_on_c, 0, 67, 50
2, 45360, Note_on_c, 0, 67, 0
2, 45360, Note_on_c, 0, 69, 43
2, 45480, Note_on_c, 0, 69, 0
2, 45480, Note_on_c, 0, 70, 38
2, 45600, Note_on_c, 0, 70, 0
2, 45600, Note_on_c, 0, 69, 47
2, 46080, Note_on_c, 0, 69, 0
2, 46080, Note_on_c, 0, 77, 64
2, 46140, Note_on_c, 0, 77, 0
2, 46140, Note_on_c, 0, 79, 51
2, 46200, Note_on_c, 0, 79, 0
2, 46200, Note_on_c, 0, 77, 56
2, 46260, Note_on_c, 0, 77, 0
2, 46260, Note_on_c, 0, 76, 54
2, 46320, Note_on_c, 0, 76, 0
2, 46320, Note_on_c, 0, 77, 63
2, 47040, Note_on_c, 0, 77, 0
2, 47040, Note_on_c, 0, 82, 55
2, 47200, Note_on_c, 0, 82, 0
2, 47200, Note_on_c, 0, 79, 46
2, 47360, Note_on_c, 0, 79, 0
2, 47360, Note_on_c, 0, 76, 45
2, 47520, Note_on_c, 0, 76, 0
2, 47520, Note_on_c, 0, 77, 50
2, 47760, Note_on_c, 0, 77, 0
2, 47760, Note_on_c, 0, 81, 43
2, 48000, Note_on_c, 0, 81, 0
2, 48000, Note_on_c, 0, 72, 50
2, 48480, Note_on_c, 0, 72, 0
2, 48480, Note_on_c, 0, 74, 50
2, 48640, Note_on_c, 0, 74, 0
2, 48640, Note_on_c, 0, 76, 46
2, 48800, Note_on_c, 0, 76, 0
2, 48800, Note_on_c, 0, 77, 46
2, 48950, Note_on_c, 0, 77, 0
2, 48960, Note_on_c, 0, 77, 54
2, 49120, Note_on_c, 0, 77, 0
2, 49120, Note_on_c, 0, 76, 48
2, 49280, Note_on_c, 0, 76, 0
2, 49280, Note_on_c, 0, 74, 48
2, 49440, Note_on_c, 0, 74, 0
2, 49440, Note_on_c, 0, 72, 51
2, 49920, Note_on_c, 0, 72, 0
2, 49920, Note_on_c, 0, 74, 50
2, 50080, Note_on_c, 0, 74, 0
2, 50080, Note_on_c, 0, 76, 47
2, 50240, Note_on_c, 0, 76, 0
2, 50240, Note_on_c, 0, 77, 47
2, 50390, Note_on_c, 0, 77, 0
2, 50400, Note_on_c, 0, 77, 53
2, 50560, Note_on_c, 0, 77, 0
2, 50560, Note_on_c, 0, 76, 46
2, 50720, Note_on_c, 0, 76, 0
2, 50720, Note_on_c, 0, 74, 43
2, 50880, Note_on_c, 0, 74, 0
2, 50880, Note_on_c, 0, 72, 57
2, 51040, Note_on_c, 0, 72, 0
2, 51040, Note_on_c, 0, 77, 49
2, 51200, Note_on_c, 0, 77, 0
2, 51200, Note_on_c, 0, 81, 53
2, 51360, Note_on_c, 0, 81, 0
2, 51360, Note_on_c, 0, 72, 57
2, 51520, Note_on_c, 0, 72, 0
2, 51520, Note_on_c, 0, 79, 49
2, 51680, Note_on_c, 0, 79, 0
2, 51680, Note_on_c, 0, 82, 55
2, 51840, Note_on_c, 0, 82, 0
2, 51840, Note_on_c, 0, 81, 57
2, 52000, Note_on_c, 0, 81, 0
2, 52000, Note_on_c, 0, 82, 46
2, 52160, Note_on_c, 0, 82, 0
2, 52160, Note_on_c, 0, 84, 46
2, 52320, Note_on_c, 0, 84, 0
2, 52320, Note_on_c, 0, 77, 50
2, 52800, Note_on_c, 0, 77, 0
2, 52800, Note_on_c, 0, 76, 46
2, 52860, Note_on_c, 0, 76, 0
2, 52860, Note_on_c, 0, 77, 41
2, 52920, Note_on_c, 0, 77, 0
2, 52920, Note_on_c, 0, 76, 46
2, 52980, Note_on_c, 0, 76, 0
2, 52980, Note_on_c, 0, 77, 41
2, 53040, Note_on_c, 0, 77, 0
2, 53040, Note_on_c, 0, 76, 46
2, 53120, Note_on_c, 0, 76, 0
2, 53120, Note_on_c, 0, 77, 43
2, 53200, Note_on_c, 0, 77, 0
2, 53200, Note_on_c, 0, 76, 43
2, 53280, Note_on_c, 0, 76, 0
2, 53280, Note_on_c, 0, 77, 50
2, 54240, Note_on_c, 0, 77, 0
2, 54720, Note_on_c, 0, 72, 50
2, 55680, Note_on_c, 0, 72, 0
2, 55680, Note_on_c, 0, 79, 50
2, 55840, Note_on_c, 0, 79, 0
2, 55840, Note_on_c, 0, 76, 46
2, 56000, Note_on_c, 0, 76, 0
2, 56000, Note_on_c, 0, 72, 45
2, 56160, Note_on_c, 0, 72, 0
2, 56160, Note_on_c, 0, 81, 50
2, 56320, Note_on_c, 0, 81, 0
2, 56320, Note_on_c, 0, 77, 45
2, 56480, Note_on_c, 0, 77, 0
2, 56480, Note_on_c, 0, 72, 45
2, 56640, Note_on_c, 0, 72, 0
2, 56640, Note_on_c, 0, 82, 55
2, 56800, Note_on_c, 0, 82, 0
2, 56800, Note_on_c, 0, 81, 48
2, 56960, Note_on_c, 0, 81, 0
2, 56960, Note_on_c, 0, 79, 48
2, 57120, Note_on_c, 0, 79, 0
2, 57120, Note_on_c, 0, 81, 54
2, 57600, Note_on_c, 0, 81, 0
2, 57600, Note_on_c, 0, 79, 53
2, 57760, Note_on_c, 0, 79, 0
2, 57760, Note_on_c, 0, 82, 50
2, 57920, Note_on_c, 0, 82, 0
2, 57920, Note_on_c, 0, 81, 47
2, 58080, Note_on_c, 0, 81, 0
2, 58080, Note_on_c, 0, 79, 51
2, 58240, Note_on_c, 0, 79, 0
2, 58240, Note_on_c, 0, 86, 54
2, 58400, Note_on_c, 0, 86, 0
2, 58400, Note_on_c, 0, 84, 49
2, 58560, Note_on_c, 0, 84, 0
2, 58560, Note_on_c, 0, 82, 54
2, 58720, Note_on_c, 0, 82, 0
2, 58720, Note_on_c, 0, 81, 50
2, 58880, Note_on_c, 0, 81, 0
2, 58880, Note_on_c, 0, 79, 45
2, 59040, Note_on_c, 0, 79, 0
2, 59040, Note_on_c, 0, 77, 50
2, 59280, Note_on_c, 0, 77, 0
2, 59280, Note_on_c, 0, 76, 43
2, 60000, Note_on_c, 0, 76, 0
2, 60720, Note_on_c, 0, 72, 45
2, 61200, Note_on_c, 0, 72, 0
2, 61200, Note_on_c, 0, 80, 53
2, 61680, Note_on_c, 0, 80, 0
2, 61680, Note_on_c, 0, 72, 48
2, 62160, Note_on_c, 0, 72, 0
2, 62160, Note_on_c, 0, 70, 40
2, 62400, Note_on_c, 0, 70, 0
2, 62400, Note_on_c, 0, 79, 49
2, 62640, Note_on_c, 0, 79, 0
2, 62640, Note_on_c, 0, 70, 40
2, 63120, Note_on_c, 0, 70, 0
2, 63120, Note_on_c, 0, 68, 40
2, 63600, Note_on_c, 0, 68, 0
2, 63600, Note_on_c, 0, 67, 43
2, 63840, Note_on_c, 0, 67, 0
2, 63840, Note_on_c, 0, 73, 50
2, 64080, Note_on_c, 0, 73, 0
2, 64080, Note_on_c, 0, 70, 46
2, 64320, Note_on_c, 0, 70, 0
2, 64320, Note_on_c, 0, 67, 47
2, 64560, Note_on_c, 0, 67, 0
2, 64560, Note_on_c, 0, 65, 43
2, 64800, Note_on_c, 0, 65, 0
2, 64800, Note_on_c, 0, 65, 47
2, 65040, Note_on_c, 0, 65, 0
2, 65040, Note_on_c, 0, 64, 39
2, 65760, Note_on_c, 0, 64, 0
2, 66240, Note_on_c, 0, 77, 65
2, 66300, Note_on_c, 0, 77, 0
2, 66300, Note_on_c, 0, 79, 51
2, 66360, Note_on_c, 0, 79, 0
2, 66360, Note_on_c, 0, 77, 56
2, 66420, Note_on_c, 0, 77, 0
2, 66420, Note_on_c, 0, 76, 53
2, 66480, Note_on_c, 0, 76, 0
2, 66480, Note_on_c, 0, 77, 64
2, 67200, Note_on_c, 0, 77, 0
2, 67200, Note_on_c, 0, 82, 55
2, 67360, Note_on_c, 0, 82, 0
2, 67360, Note_on_c, 0, 79, 46
2, 67520, Note_on_c, 0, 79, 0
2, 67520, Note_on_c, 0, 76, 45
2, 67680, Note_on_c, 0, 76, 0
2, 67680, Note_on_c, 0, 77, 50
2, 67920, Note_on_c, 0, 77, 0
2, 67920, Note_on_c, 0, 81, 43
2, 68160, Note_on_c, 0, 81, 0
2, 68160, Note_on_c, 0, 72, 50
2, 68640, Note_on_c, 0, 72, 0
2, 68640, Note_on_c, 0, 70, 46
2, 68700, Note_on_c, 0, 70, 0
2, 68700, Note_on_c, 0, 72, 41
2, 68760, Note_on_c, 0, 72, 0
2, 68760, Note_on_c, 0, 70, 46
2, 68820, Note_on_c, 0, 70, 0
2, 68820, Note_on_c, 0, 72, 41
2, 68880, Note_on_c, 0, 72, 0
2, 68880, Note_on_c, 0, 70, 46
2, 68960, Note_on_c, 0, 70, 0
2, 68960, Note_on_c, 0, 72, 43
2, 69040, Note_on_c, 0, 72, 0
2, 69040, Note_on_c, 0, 70, 43
2, 69120, Note_on_c, 0, 70, 0
2, 69120, Note_on_c, 0, 69, 50
2, 69360, Note_on_c, 0, 69, 0
2, 69360, Note_on_c, 0, 72, 43
2, 69600, Note_on_c, 0, 72, 0
2, 69600, Note_on_c, 0, 77, 50
2, 69760, Note_on_c, 0, 77, 0
2, 69760, Note_on_c, 0, 76, 41
2, 69920, Note_on_c, 0, 76, 0
2, 69920, Note_on_c, 0, 74, 41
2, 70080, Note_on_c, 0, 74, 0
2, 70080, Note_on_c, 0, 72, 47
2, 70240, Note_on_c, 0, 72, 0
2, 70240, Note_on_c, 0, 70, 40
2, 70400, Note_on_c, 0, 70, 0
2, 70400, Note_on_c, 0, 69, 40
2, 70560, Note_on_c, 0, 69, 0
2, 70560, Note_on_c, 0, 67, 50
2, 71280, Note_on_c, 0, 67, 0
2, 71280, Note_on_c, 0, 69, 43
2, 71400, Note_on_c, 0, 69, 0
2, 71400, Note_on_c, 0, 70, 38
2, 71520, Note_on_c, 0, 70, 0
2, 71520, Note_on_c, 0, 69, 47
2, 72000, Note_on_c, 0, 69, 0
2, 72000, Note_on_c, 0, 77, 66
2, 72060, Note_on_c, 0, 77, 0
2, 72060, Note_on_c, 0, 79, 51
2, 72120, Note_on_c, 0, 79, 0
2, 72120, Note_on_c, 0, 77, 56
2, 72180, Note_on_c, 0, 77, 0
2, 72180, Note_on_c, 0, 76, 54
2, 72240, Note_on_c, 0, 76, 0
2, 72240, Note_on_c, 0, 77, 66
2, 72960, Note_on_c, 0, 77, 0
2, 72960, Note_on_c, 0, 82, 55
2, 73120, Note_on_c, 0, 82, 0
2, 73120, Note_on_c, 0, 79, 46
2, 73280, Note_on_c, 0, 79, 0
2, 73280, Note_on_c, 0, 76, 45
2, 73440, Note_on_c, 0, 76, 0
2, 73440, Note_on_c, 0, 77, 50
2, 73680, Note_on_c, 0, 77, 0
2, 73680, Note_on_c, 0, 81, 43
2, 73920, Note_on_c, 0, 81, 0
2, 73920, Note_on_c, 0, 72, 50
2, 74400, Note_on_c, 0, 72, 0
2, 74400, Note_on_c, 0, 74, 50
2, 74560, Note_on_c, 0, 74, 0
2, 74560, Note_on_c, 0, 76, 46
2, 74720, Note_on_c, 0, 76, 0
2, 74720, Note_on_c, 0, 77, 46
2, 74870, Note_on_c, 0, 77, 0
2, 74880, Note_on_c, 0, 77, 54
2, 75040, Note_on_c, 0, 77, 0
2, 75040, Note_on_c, 0, 76, 48
2, 75200, Note_on_c, 0, 76, 0
2, 75200, Note_on_c, 0, 74, 48
2, 75360, Note_on_c, 0, 74, 0
2, 75360, Note_on_c, 0, 72, 51
2, 75840, Note_on_c, 0, 72, 0
2, 75840, Note_on_c, 0, 74, 50
2, 76000, Note_on_c, 0, 74, 0
2, 76000, Note_on_c, 0, 76, 47
2, 76160, Note_on_c, 0, 76, 0
2, 76160, Note_on_c, 0, 77, 47
2, 76310, Note_on_c, 0, 77, 0
2, 76320, Note_on_c, 0, 77, 53
2, 76480, Note_on_c, 0, 77, 0
2, 76480, Note_on_c, 0, 76, 46
2, 76640, Note_on_c, 0, 76, 0
2, 76640, Note_on_c, 0, 74, 43
2, 76800, Note_on_c, 0, 74, 0
2, 76800, Note_on_c, 0, 72, 53
2, 76960, Note_on_c, 0, 72, 0
2, 76960, Note_on_c, 0, 77, 47
2, 77120, Note_on_c, 0, 77, 0
2, 77120, Note_on_c, 0, 81, 50
2, 77280, Note_on_c, 0, 81, 0
2, 77280, Note_on_c, 0, 72, 56
2, 77440, Note_on_c, 0, 72, 0
2, 77440, Note_on_c, 0, 79, 49
2, 77600, Note_on_c, 0, 79, 0
2, 77600, Note_on_c, 0, 82, 53
2, 77760, Note_on_c, 0, 82, 0
2, 77760, Note_on_c, 0, 81, 61
2, 77920, Note_on_c, 0, 81, 0
2, 77920, Note_on_c, 0, 82, 46
2, 78080, Note_on_c, 0, 82, 0
2, 78080, Note_on_c, 0, 84, 46
2, 78240, Note_on_c, 0, 84, 0
2, 78240, Note_on_c, 0, 77, 50
2, 78720, Note_on_c, 0, 77, 0
2, 78720, Note_on_c, 0, 76, 46
2, 78780, Note_on_c, 0, 76, 0
2, 78780, Note_on_c, 0, 77, 41
2, 78840, Note_on_c, 0, 77, 0
2, 78840, Note_on_c, 0, 76, 46
2, 78900, Note_on_c, 0, 76, 0
2, 78900, Note_on_c, 0, 77, 41
2, 78960, Note_on_c, 0, 77, 0
2, 78960, Note_on_c, 0, 76, 46
2, 79040, Note_on_c, 0, 76, 0
2, 79040, Note_on_c, 0, 77, 43
2, 79120, Note_on_c, 0, 77, 0
2, 79120, Note_on_c, 0, 76, 43
2, 79200, Note_on_c, 0, 76, 0
2, 79200, Note_on_c, 0, 77, 55
2, 80160, Note_on_c, 0, 77, 0
2, 81120, Note_on_c, 0, 74, 42
2, 81120, Note_on_c, 0, 77, 50
2, 81600, Note_on_c, 0, 77, 0
2, 81600, Note_on_c, 0, 74, 0
2, 81600, Note_on_c, 0, 82, 50
2, 81760, Note_on_c, 0, 82, 0
2, 81760, Note_on_c, 0, 81, 46
2, 81920, Note_on_c, 0, 81, 0
2, 81920, Note_on_c, 0, 79, 45
2, 82080, Note_on_c, 0, 79, 0
2, 82080, Note_on_c, 0, 77, 50
2, 82560, Note_on_c, 0, 77, 0
2, 82560, Note_on_c, 0, 74, 55
2, 82720, Note_on_c, 0, 74, 0
2, 82720, Note_on_c, 0, 75, 48
2, 82880, Note_on_c, 0, 75, 0
2, 82880, Note_on_c, 0, 77, 48
2, 83040, Note_on_c, 0, 77, 0
2, 83040, Note_on_c, 0, 75, 55
2, 83200, Note_on_c, 0, 75, 0
2, 83200, Note_on_c, 0, 77, 48
2, 83360, Note_on_c, 0, 77, 0
2, 83360, Note_on_c, 0, 79, 48
2, 83520, Note_on_c, 0, 79, 0
2, 83520, Note_on_c, 0, 77, 53
2, 84000, Note_on_c, 0, 77, 0
2, 84000, Note_on_c, 0, 70, 44
2, 84240, Note_on_c, 0, 70, 0
2, 84480, Note_on_c, 0, 70, 45
2, 84720, Note_on_c, 0, 70, 0
2, 84960, Note_on_c, 0, 69, 46
2, 85120, Note_on_c, 0, 69, 0
2, 85120, Note_on_c, 0, 70, 40
2, 85280, Note_on_c, 0, 70, 0
2, 85280, Note_on_c, 0, 72, 40
2, 85440, Note_on_c, 0, 72, 0
2, 85440, Note_on_c, 0, 70, 45
2, 85920, Note_on_c, 0, 70, 0
2, 86400, Note_on_c, 0, 72, 45
2, 86460, Note_on_c, 0, 72, 0
2, 86460, Note_on_c, 0, 70, 40
2, 86520, Note_on_c, 0, 70, 0
2, 86520, Note_on_c, 0, 72, 46
2, 86880, Note_on_c, 0, 72, 0
2, 86880, Note_on_c, 0, 81, 46
2, 87360, Note_on_c, 0, 81, 0
2, 87360, Note_on_c, 0, 69, 38
2, 87840, Note_on_c, 0, 69, 0
2, 87840, Note_on_c, 0, 70, 45
2, 87900, Note_on_c, 0, 70, 0
2, 87900, Note_on_c, 0, 69, 40
2, 87960, Note_on_c, 0, 69, 0
2, 87960, Note_on_c, 0, 70, 46
2, 88320, Note_on_c, 0, 70, 0
2, 88320, Note_on_c, 0, 79, 46
2, 88800, Note_on_c, 0, 79, 0
2, 88800, Note_on_c, 0, 70, 38
2, 89280, Note_on_c, 0, 70, 0
2, 89280, Note_on_c, 0, 69, 51
2, 89440, Note_on_c, 0, 69, 0
2, 89440, Note_on_c, 0, 70, 41
2, 89600, Note_on_c, 0, 70, 0
2, 89600, Note_on_c, 0, 72, 41
2, 89760, Note_on_c, 0, 72, 0
2, 89760, Note_on_c, 0, 65, 45
2, 90240, Note_on_c, 0, 65, 0
2, 90240, Note_on_c, 0, 64, 41
2, 90300, Note_on_c, 0, 64, 0
2, 90300, Note_on_c, 0, 65, 36
2, 90360, Note_on_c, 0, 65, 0
2, 90360, Note_on_c, 0, 64, 41
2, 90420, Note_on_c, 0, 64, 0
2, 90420, Note_on_c, 0, 65, 36
2, 90480, Note_on_c, 0, 65, 0
2, 90480, Note_on_c, 0, 64, 41
2, 90560, Note_on_c, 0, 64, 0
2, 90560, Note_on_c, 0, 65, 38
2, 90640, Note_on_c, 0, 65, 0
2, 90640, Note_on_c, 0, 64, 38
2, 90720, Note_on_c, 0, 64, 0
2, 90720, Note_on_c, 0, 65, 49
2, 91680, Note_on_c, 0, 65, 0
2, 92640, Note_on_c, 0, 74, 42
2, 92640, Note_on_c, 0, 77, 50
2, 93120, Note_on_c, 0, 77, 0
2, 93120, Note_on_c, 0, 74, 0
2, 93120, Note_on_c, 0, 82, 50
2, 93280, Note_on_c, 0, 82, 0
2, 93280, Note_on_c, 0, 81, 46
2, 93440, Note_on_c, 0, 81, 0
2, 93440, Note_on_c, 0, 79, 45
2, 93600, Note_on_c, 0, 79, 0
2, 93600, Note_on_c, 0, 77, 50
2, 94080, Note_on_c, 0, 77, 0
2, 94080, Note_on_c, 0, 74, 55
2, 94240, Note_on_c, 0, 74, 0
2, 94240, Note_on_c, 0, 75, 48
2, 94400, Note_on_c, 0, 75, 0
2, 94400, Note_on_c, 0, 77, 48
2, 94560, Note_on_c, 0, 77, 0
2, 94560, Note_on_c, 0, 75, 55
2, 94720, Note_on_c, 0, 75, 0
2, 94720, Note_on_c, 0, 77, 48
2, 94880, Note_on_c, 0, 77, 0
2, 94880, Note_on_c, 0, 79, 48
2, 95040, Note_on_c, 0, 79, 0
2, 95040, Note_on_c, 0, 77, 53
2, 95520, Note_on_c, 0, 77, 0
2, 95520, Note_on_c, 0, 70, 44
2, 95760, Note_on_c, 0, 70, 0
2, 96000, Note_on_c, 0, 70, 45
2, 96240, Note_on_c, 0, 70, 0
2, 96480, Note_on_c, 0, 69, 46
2, 96640, Note_on_c, 0, 69, 0
2, 96640, Note_on_c, 0, 70, 40
2, 96800, Note_on_c, 0, 70, 0
2, 96800, Note_on_c, 0, 72, 40
2, 96960, Note_on_c, 0, 72, 0
2, 96960, Note_on_c, 0, 70, 45
2, 97440, Note_on_c, 0, 70, 0
2, 97920, Note_on_c, 0, 72, 45
2, 97980, Note_on_c, 0, 72, 0
2, 97980, Note_on_c, 0, 70, 40
2, 98040, Note_on_c, 0, 70, 0
2, 98040, Note_on_c, 0, 72, 46
2, 98400, Note_on_c, 0, 72, 0
2, 98400, Note_on_c, 0, 81, 46
2, 98880, Note_on_c, 0, 81, 0
2, 98880, Note_on_c, 0, 69, 38
2, 99360, Note_on_c, 0, 69, 0
2, 99360, Note_on_c, 0, 70, 45
2, 99420, Note_on_c, 0, 70, 0
2, 99420, Note_on_c, 0, 69, 40
2, 99480, Note_on_c, 0, 69, 0
2, 99480, Note_on_c, 0, 70, 46
2, 99840, Note_on_c, 0, 70, 0
2, 99840, Note_on_c, 0, 79, 46
2, 100320, Note_on_c, 0, 79, 0
2, 100320, Note_on_c, 0, 70, 38
2, 100800, Note_on_c, 0, 70, 0
2, 100800, Note_on_c, 0, 69, 51
2, 100960, Note_on_c, 0, 69, 0
2, 100960, Note_on_c, 0, 70, 41
2, 101120, Note_on_c, 0, 70, 0
2, 101120, Note_on_c, 0, 72, 41
2, 101280, Note_on_c, 0, 72, 0
2, 101280, Note_on_c, 0, 65, 45
2, 101760, Note_on_c, 0, 65, 0
2, 101760, Note_on_c, 0, 64, 41
2, 101820, Note_on_c, 0, 64, 0
2, 101820, Note_on_c, 0, 65, 36
2, 101880, Note_on_c, 0, 65, 0
2, 101880, Note_on_c, 0, 64, 41
2, 101940, Note_on_c, 0, 64, 0
2, 101940, Note_on_c, 0, 65, 36
2, 102000, Note_on_c, 0, 65, 0
2, 102000, Note_on_c, 0, 64, 41
2, 102080, Note_on_c, 0, 64, 0
2, 102080, Note_on_c, 0, 65, 38
2, 102160, Note_on_c, 0, 65, 0
2, 102160, Note_on_c, 0, 64, 38
2, 102240, Note_on_c, 0, 64, 0
2, 102240, Note_on_c, 0, 65, 49
2, 103200, Note_on_c, 0, 65, 0
2, 103680, Note_on_c, 0, 77, 50
2, 103840, Note_on_c, 0, 77, 0
2, 103840, Note_on_c, 0, 75, 46
2, 104000, Note_on_c, 0, 75, 0
2, 104000, Note_on_c, 0, 74, 40
2, 104160, Note_on_c, 0, 74, 0
2, 104160, Note_on_c, 0, 77, 50
2, 104320, Note_on_c, 0, 77, 0
2, 104320, Note_on_c, 0, 75, 45
2, 104480, Note_on_c, 0, 75, 0
2, 104480, Note_on_c, 0, 74, 41
2, 104640, Note_on_c, 0, 74, 0
2, 104640, Note_on_c, 0, 72, 51
2, 104800, Note_on_c, 0, 72, 0
2, 104800, Note_on_c, 0, 70, 46
2, 104960, Note_on_c, 0, 70, 0
2, 104960, Note_on_c, 0, 68, 41
2, 105120, Note_on_c, 0, 68, 0
2, 105120, Note_on_c, 0, 67, 54
2, 105600, Note_on_c, 0, 67, 0
2, 105600, Note_on_c, 0, 72, 50
2, 105760, Note_on_c, 0, 72, 0
2, 105760, Note_on_c, 0, 71, 45
2, 105920, Note_on_c, 0, 71, 0
2, 105920, Note_on_c, 0, 72, 41
2, 106080, Note_on_c, 0, 72, 0
2, 106080, Note_on_c, 0, 75, 53
2, 106240, Note_on_c, 0, 75, 0
2, 106240, Note_on_c, 0, 74, 47
2, 106400, Note_on_c, 0, 74, 0
2, 106400, Note_on_c, 0, 75, 47
2, 106560, Note_on_c, 0, 75, 0
2, 106560, Note_on_c, 0, 79, 50
2, 106720, Note_on_c, 0, 79, 0
2, 106720, Note_on_c, 0, 77, 46
2, 106880, Note_on_c, 0, 77, 0
2, 106880, Note_on_c, 0, 75, 40
2, 107040, Note_on_c, 0, 75, 0
2, 107040, Note_on_c, 0, 79, 50
2, 107200, Note_on_c, 0, 79, 0
2, 107200, Note_on_c, 0, 77, 45
2, 107360, Note_on_c, 0, 77, 0
2, 107360, Note_on_c, 0, 75, 41
2, 107520, Note_on_c, 0, 75, 0
2, 107520, Note_on_c, 0, 74, 51
2, 107680, Note_on_c, 0, 74, 0
2, 107680, Note_on_c, 0, 72, 46
2, 107840, Note_on_c, 0, 72, 0
2, 107840, Note_on_c, 0, 70, 41
2, 107990, Note_on_c, 0, 70, 0
2, 108000, Note_on_c, 0, 70, 50
2, 108240, Note_on_c, 0, 70, 0
2, 108240, Note_on_c, 0, 69, 43
2, 108960, Note_on_c, 0, 69, 0
2, 109440, Note_on_c, 0, 77, 47
2, 109500, Note_on_c, 0, 77, 0
2, 109500, Note_on_c, 0, 75, 42
2, 109560, Note_on_c, 0, 75, 0
2, 109560, Note_on_c, 0, 77, 48
2, 109920, Note_on_c, 0, 77, 0
2, 109920, Note_on_c, 0, 86, 48
2, 110400, Note_on_c, 0, 86, 0
2, 110400, Note_on_c, 0, 74, 39
2, 110880, Note_on_c, 0, 74, 0
2, 110880, Note_on_c, 0, 75, 47
2, 110940, Note_on_c, 0, 75, 0
2, 110940, Note_on_c, 0, 74, 42
2, 111000, Note_on_c, 0, 74, 0
2, 111000, Note_on_c, 0, 75, 48
2, 111360, Note_on_c, 0, 75, 0
2, 111360, Note_on_c, 0, 84, 48
2, 111840, Note_on_c, 0, 84, 0
2, 111840, Note_on_c, 0, 75, 39
2, 112320, Note_on_c, 0, 75, 0
2, 112320, Note_on_c, 0, 74, 51
2, 112480, Note_on_c, 0, 74, 0
2, 112480, Note_on_c, 0, 75, 41
2, 112640, Note_on_c, 0, 75, 0
2, 112640, Note_on_c, 0, 77, 41
2, 112800, Note_on_c, 0, 77, 0
2, 112800, Note_on_c, 0, 70, 45
2, 113280, Note_on_c, 0, 70, 0
2, 113280, Note_on_c, 0, 69, 41
2, 113340, Note_on_c, 0, 69, 0
2, 113340, Note_on_c, 0, 70, 36
2, 113400, Note_on_c, 0, 70, 0
2, 113400, Note_on_c, 0, 69, 41
2, 113460, Note_on_c, 0, 69, 0
2, 113460, Note_on_c, 0, 70, 36
2, 113520, Note_on_c, 0, 70, 0
2, 113520, Note_on_c, 0, 69, 41
2, 113600, Note_on_c, 0, 69, 0
2, 113600, Note_on_c, 0, 70, 38
2, 113680, Note_on_c, 0, 70, 0
2, 113680, Note_on_c, 0, 69, 38
2, 113760, Note_on_c, 0, 69, 0
2, 113760, Note_on_c, 0, 70, 49
2, 114720, Note_on_c, 0, 70, 0
2, 115200, Note_on_c, 0, 77, 50
2, 115360, Note_on_c, 0, 77, 0
2, 115360, Note_on_c, 0, 75, 46
2, 115520, Note_on_c, 0, 75, 0
2, 115520, Note_on_c, 0, 74, 40
2, 115680, Note_on_c, 0, 74, 0
2, 115680, Note_on_c, 0, 77, 50
2, 115840, Note_on_c, 0, 77, 0
2, 115840, Note_on_c, 0, 75, 45
2, 116000, Note_on_c, 0, 75, 0
2, 116000, Note_on_c, 0, 74, 41
2, 116160, Note_on_c, 0, 74, 0
2, 116160, Note_on_c, 0, 72, 51
2, 116320, Note_on_c, 0, 72, 0
2, 116320, Note_on_c, 0, 70, 46
2, 116480, Note_on_c, 0, 70, 0
2, 116480, Note_on_c, 0, 68, 41
2, 116640, Note_on_c, 0, 68, 0
2, 116640, Note_on_c, 0, 67, 54
2, 117120, Note_on_c, 0, 67, 0
2, 117120, Note_on_c, 0, 72, 50
2, 117280, Note_on_c, 0, 72, 0
2, 117280, Note_on_c, 0, 71, 45
2, 117440, Note_on_c, 0, 71, 0
2, 117440, Note_on_c, 0, 72, 41
2, 117600, Note_on_c, 0, 72, 0
2, 117600, Note_on_c, 0, 75, 53
2, 117760, Note_on_c, 0, 75, 0
2, 117760, Note_on_c, 0, 74, 47
2, 117920, Note_on_c, 0, 74, 0
2, 117920, Note_on_c, 0, 75, 47
2, 118080, Note_on_c, 0, 75, 0
2, 118080, Note_on_c, 0, 79, 50
2, 118240, Note_on_c, 0, 79, 0
2, 118240, Note_on_c, 0, 77, 46
2, 118400, Note_on_c, 0, 77, 0
2, 118400, Note_on_c, 0, 75, 40
2, 118560, Note_on_c, 0, 75, 0
2, 118560, Note_on_c, 0, 79, 50
2, 118720, Note_on_c, 0, 79, 0
2, 118720, Note_on_c, 0, 77, 45
2, 118880, Note_on_c, 0, 77, 0
2, 118880, Note_on_c, 0, 75, 41
2, 119040, Note_on_c, 0, 75, 0
2, 119040, Note_on_c, 0, 74, 51
2, 119200, Note_on_c, 0, 74, 0
2, 119200, Note_on_c, 0, 72, 46
2, 119360, Note_on_c, 0, 72, 0
2, 119360, Note_on_c, 0, 70, 41
2, 119510, Note_on_c, 0, 70, 0
2, 119520, Note_on_c, 0, 70, 50
2, 119760, Note_on_c, 0, 70, 0
2, 119760, Note_on_c, 0, 69, 43
2, 120480, Note_on_c, 0, 69, 0
2, 120960, Note_on_c, 0, 77, 47
2, 121020, Note_on_c, 0, 77, 0
2, 121020, Note_on_c, 0, 75, 42
2, 121080, Note_on_c, 0, 75, 0
2, 121080, Note_on_c, 0, 77, 48
2, 121440, Note_on_c, 0, 77, 0
2, 121440, Note_on_c, 0, 86, 48
2, 121920, Note_on_c, 0, 86, 0
2, 121920, Note_on_c, 0, 74, 39
2, 122400, Note_on_c, 0, 74, 0
2, 122400, Note_on_c, 0, 75, 47
2, 122460, Note_on_c, 0, 75, 0
2, 122460, Note_on_c, 0, 74, 42
2, 122520, Note_on_c, 0, 74, 0
2, 122520, Note_on_c, 0, 75, 48
2, 122880, Note_on_c, 0, 75, 0
2, 122880, Note_on_c, 0, 84, 48
2, 123360, Note_on_c, 0, 84, 0
2, 123360, Note_on_c, 0, 75, 39
2, 123840, Note_on_c, 0, 75, 0
2, 123840, Note_on_c, 0, 74, 51
2, 124000, Note_on_c, 0, 74, 0
2, 124000, Note_on_c, 0, 75, 41
2, 124160, Note_on_c, 0, 75, 0
2, 124160, Note_on_c, 0, 77, 41
2, 124320, Note_on_c, 0, 77, 0
2, 124320, Note_on_c, 0, 70, 45
2, 124800, Note_on_c, 0, 70, 0
2, 124800, Note_on_c, 0, 69, 41
2, 124860, Note_on_c, 0, 69, 0
2, 124860, Note_on_c, 0, 70, 36
2, 124920, Note_on_c, 0, 70, 0
2, 124920, Note_on_c, 0, 69, 41
2, 124980, Note_on_c, 0, 69, 0
2, 124980, Note_on_c, 0, 70, 36
2, 125040, Note_on_c, 0, 70, 0
2, 125040, Note_on_c, 0, 69, 41
2, 125120, Note_on_c, 0, 69, 0
2, 125120, Note_on_c, 0, 70, 38
2, 125200, Note_on_c, 0, 70, 0
2, 125200, Note_on_c, 0, 69, 38
2, 125280, Note_on_c, 0, 69, 0
2, 125280, Note_on_c, 0, 70, 49
2, 126240, Note_on_c, 0, 70, 0
2, 126720, Note_on_c, 0, 77, 64
2, 126780, Note_on_c, 0, 77, 0
2, 126780, Note_on_c, 0, 79, 51
2, 126840, Note_on_c, 0, 79, 0
2, 126840, Note_on_c, 0, 77, 56
2, 126900, Note_on_c, 0, 77, 0
2, 126900, Note_on_c, 0, 76, 51
2, 126960, Note_on_c, 0, 76, 0
2, 126960, Note_on_c, 0, 77, 62
2, 127680, Note_on_c, 0, 77, 0
2, 127680, Note_on_c, 0, 82, 50
2, 127840, Note_on_c, 0, 82, 0
2, 127840, Note_on_c, 0, 79, 46
2, 128000, Note_on_c, 0, 79, 0
2, 128000, Note_on_c, 0, 76, 45
2, 128160, Note_on_c, 0, 76, 0
2, 128160, Note_on_c, 0, 77, 50
2, 128400, Note_on_c, 0, 77, 0
2, 128400, Note_on_c, 0, 81, 43
2, 128640, Note_on_c, 0, 81, 0
2, 128640, Note_on_c, 0, 72, 50
2, 129120, Note_on_c, 0, 72, 0
2, 129120, Note_on_c, 0, 70, 46
2, 129180, Note_on_c, 0, 70, 0
2, 129180, Note_on_c, 0, 72, 41
2, 129240, Note_on_c, 0, 72, 0
2, 129240, Note_on_c, 0, 70, 46
2, 129300, Note_on_c, 0, 70, 0
2, 129300, Note_on_c, 0, 72, 41
2, 129360, Note_on_c, 0, 72, 0
2, 129360, Note_on_c, 0, 70, 46
2, 129440, Note_on_c, 0, 70, 0
2, 129440, Note_on_c, 0, 72, 43
2, 129520, Note_on_c, 0, 72, 0
2, 129520, Note_on_c, 0, 70, 43
2, 129600, Note_on_c, 0, 70, 0
2, 129600, Note_on_c, 0, 69, 50
2, 129840, Note_on_c, 0, 69, 0
2, 129840, Note_on_c, 0, 72, 43
2, 130080, Note_on_c, 0, 72, 0
2, 130080, Note_on_c, 0, 77, 50
2, 130240, Note_on_c, 0, 77, 0
2, 130240, Note_on_c, 0, 76, 41
2, 130400, Note_on_c, 0, 76, 0
2, 130400, Note_on_c, 0, 74, 41
2, 130560, Note_on_c, 0, 74, 0
2, 130560, Note_on_c, 0, 72, 47
2, 130720, Note_on_c, 0, 72, 0
2, 130720, Note_on_c, 0, 70, 40
2, 130880, Note_on_c, 0, 70, 0
2, 130880, Note_on_c, 0, 69, 40
2, 131040, Note_on_c, 0, 69, 0
2, 131040, Note_on_c, 0, 67, 50
2, 131760, Note_on_c, 0, 67, 0
2, 131760, Note_on_c, 0, 69, 43
2, 131880, Note_on_c, 0, 69, 0
2, 131880, Note_on_c, 0, 70, 38
2, 132000, Note_on_c, 0, 70, 0
2, 132000, Note_on_c, 0, 69, 47
2, 132480, Note_on_c, 0, 69, 0
2, 132480, Note_on_c, 0, 77, 64
2, 132540, Note_on_c, 0, 77, 0
2, 132540, Note_on_c, 0, 79, 51
2, 132600, Note_on_c, 0, 79, 0
2, 132600, Note_on_c, 0, 77, 56
2, 132660, Note_on_c, 0, 77, 0
2, 132660, Note_on_c, 0, 76, 54
2, 132720, Note_on_c, 0, 76, 0
2, 132720, Note_on_c, 0, 77, 65
2, 133440, Note_on_c, 0, 77, 0
2, 133440, Note_on_c, 0, 82, 58
2, 133600, Note_on_c, 0, 82, 0
2, 133600, Note_on_c, 0, 79, 46
2, 133760, Note_on_c, 0, 79, 0
2, 133760, Note_on_c, 0, 76, 45
2, 133920, Note_on_c, 0, 76, 0
2, 133920, Note_on_c, 0, 77, 50
2, 134160, Note_on_c, 0, 77, 0
2, 134160, Note_on_c, 0, 81, 43
2, 134400, Note_on_c, 0, 81, 0
2, 134400, Note_on_c, 0, 72, 50
2, 134880, Note_on_c, 0, 72, 0
2, 134880, Note_on_c, 0, 81, 50
2, 135040, Note_on_c, 0, 81, 0
2, 135040, Note_on_c, 0, 83, 46
2, 135200, Note_on_c, 0, 83, 0
2, 135200, Note_on_c, 0, 84, 46
2, 135350, Note_on_c, 0, 84, 0
2, 135360, Note_on_c, 0, 84, 54
2, 135520, Note_on_c, 0, 84, 0
2, 135520, Note_on_c, 0, 83, 48
2, 135680, Note_on_c, 0, 83, 0
2, 135680, Note_on_c, 0, 81, 48
2, 135840, Note_on_c, 0, 81, 0
2, 135840, Note_on_c, 0, 79, 53
2, 136320, Note_on_c, 0, 79, 0
2, 136320, Note_on_c, 0, 81, 50
2, 136480, Note_on_c, 0, 81, 0
2, 136480, Note_on_c, 0, 83, 47
2, 136640, Note_on_c, 0, 83, 0
2, 136640, Note_on_c, 0, 84, 47
2, 136790, Note_on_c, 0, 84, 0
2, 136800, Note_on_c, 0, 84, 53
2, 136960, Note_on_c, 0, 84, 0
2, 136960, Note_on_c, 0, 83, 46
2, 137120, Note_on_c, 0, 83, 0
2, 137120, Note_on_c, 0, 81, 46
2, 137280, Note_on_c, 0, 81, 0
2, 137280, Note_on_c, 0, 79, 50
2, 137440, Note_on_c, 0, 79, 0
2, 137440, Note_on_c, 0, 77, 44
2, 137600, Note_on_c, 0, 77, 0
2, 137600, Note_on_c, 0, 76, 44
2, 137760, Note_on_c, 0, 76, 0
2, 137760, Note_on_c, 0, 77, 48
2, 137920, Note_on_c, 0, 77, 0
2, 137920, Note_on_c, 0, 76, 45
2, 138080, Note_on_c, 0, 76, 0
2, 138080, Note_on_c, 0, 74, 45
2, 138240, Note_on_c, 0, 74, 0
2, 138240, Note_on_c, 0, 76, 50
2, 138400, Note_on_c, 0, 76, 0
2, 138400, Note_on_c, 0, 77, 46
2, 138560, Note_on_c, 0, 77, 0
2, 138560, Note_on_c, 0, 79, 46
2, 138720, Note_on_c, 0, 79, 0
2, 138720, Note_on_c, 0, 72, 50
2, 139200, Note_on_c, 0, 72, 0
2, 139200, Note_on_c, 0, 71, 46
2, 139260, Note_on_c, 0, 71, 0
2, 139260, Note_on_c, 0, 72, 41
2, 139320, Note_on_c, 0, 72, 0
2, 139320, Note_on_c, 0, 71, 46
2, 139380, Note_on_c, 0, 71, 0
2, 139380, Note_on_c, 0, 72, 41
2, 139440, Note_on_c, 0, 72, 0
2, 139440, Note_on_c, 0, 71, 46
2, 139520, Note_on_c, 0, 71, 0
2, 139520, Note_on_c, 0, 72, 43
2, 139600, Note_on_c, 0, 72, 0
2, 139600, Note_on_c, 0, 71, 43
2, 139680, Note_on_c, 0, 71, 0
2, 139680, Note_on_c, 0, 72, 50
2, 140640, Note_on_c, 0, 72, 0
2, 141120, Note_on_c, 0, 72, 50
2, 142080, Note_on_c, 0, 72, 0
2, 142080, Note_on_c, 0, 79, 50
2, 142240, Note_on_c, 0, 79, 0
2, 142240, Note_on_c, 0, 76, 46
2, 142400, Note_on_c, 0, 76, 0
2, 142400, Note_on_c, 0, 72, 45
2, 142560, Note_on_c, 0, 72, 0
2, 142560, Note_on_c, 0, 81, 50
2, 142720, Note_on_c, 0, 81, 0
2, 142720, Note_on_c, 0, 77, 45
2, 142880, Note_on_c, 0, 77, 0
2, 142880, Note_on_c, 0, 72, 45
2, 143040, Note_on_c, 0, 72, 0
2, 143040, Note_on_c, 0, 82, 55
2, 143200, Note_on_c, 0, 82, 0
2, 143200, Note_on_c, 0, 81, 48
2, 143360, Note_on_c, 0, 81, 0
2, 143360, Note_on_c, 0, 79, 48
2, 143520, Note_on_c, 0, 79, 0
2, 143520, Note_on_c, 0, 81, 54
2, 144000, Note_on_c, 0, 81, 0
2, 144000, Note_on_c, 0, 79, 53
2, 144160, Note_on_c, 0, 79, 0
2, 144160, Note_on_c, 0, 82, 50
2, 144320, Note_on_c, 0, 82, 0
2, 144320, Note_on_c, 0, 81, 47
2, 144480, Note_on_c, 0, 81, 0
2, 144480, Note_on_c, 0, 79, 51
2, 144640, Note_on_c, 0, 79, 0
2, 144640, Note_on_c, 0, 86, 55
2, 144800, Note_on_c, 0, 86, 0
2, 144800, Note_on_c, 0, 84, 49
2, 144960, Note_on_c, 0, 84, 0
2, 144960, Note_on_c, 0, 82, 54
2, 145120, Note_on_c, 0, 82, 0
2, 145120, Note_on_c, 0, 81, 50
2, 145280, Note_on_c, 0, 81, 0
2, 145280, Note_on_c, 0, 79, 45
2, 145440, Note_on_c, 0, 79, 0
2, 145440, Note_on_c, 0, 77, 50
2, 145680, Note_on_c, 0, 77, 0
2, 145680, Note_on_c, 0, 76, 43
2, 146400, Note_on_c, 0, 76, 0
2, 147120, Note_on_c, 0, 72, 45
2, 147600, Note_on_c, 0, 72, 0
2, 147600, Note_on_c, 0, 80, 53
2, 148080, Note_on_c, 0, 80, 0
2, 148080, Note_on_c, 0, 72, 48
2, 148560, Note_on_c, 0, 72, 0
2, 148560, Note_on_c, 0, 70, 40
2, 148800, Note_on_c, 0, 70, 0
2, 148800, Note_on_c, 0, 79, 49
2, 149040, Note_on_c, 0, 79, 0
2, 149040, Note_on_c, 0, 70, 40
2, 149520, Note_on_c, 0, 70, 0
2, 149520, Note_on_c, 0, 68, 40
2, 150000, Note_on_c, 0, 68, 0
2, 150000, Note_on_c, 0, 67, 43
2, 150240, Note_on_c, 0, 67, 0
2, 150240, Note_on_c, 0, 73, 50
2, 150480, Note_on_c, 0, 73, 0
2, 150480, Note_on_c, 0, 70, 46
2, 150720, Note_on_c, 0, 70, 0
2, 150720, Note_on_c, 0, 67, 47
2, 150960, Note_on_c, 0, 67, 0
2, 150960, Note_on_c, 0, 65, 43
2, 151200, Note_on_c, 0, 65, 0
2, 151200, Note_on_c, 0, 65, 47
2, 151440, Note_on_c, 0, 65, 0
2, 151440, Note_on_c, 0, 64, 39
2, 152160, Note_on_c, 0, 64, 0
2, 152640, Note_on_c, 0, 77, 65
2, 152700, Note_on_c, 0, 77, 0
2, 152700, Note_on_c, 0, 79, 51
2, 152760, Note_on_c, 0, 79, 0
2, 152760, Note_on_c, 0, 77, 56
2, 152820, Note_on_c, 0, 77, 0
2, 152820, Note_on_c, 0, 76, 53
2, 152880, Note_on_c, 0, 76, 0
2, 152880, Note_on_c, 0, 77, 64
2, 153600, Note_on_c, 0, 77, 0
2, 153600, Note_on_c, 0, 82, 55
2, 153760, Note_on_c, 0, 82, 0
2, 153760, Note_on_c, 0, 79, 46
2, 153920, Note_on_c, 0, 79, 0
2, 153920, Note_on_c, 0, 76, 45
2, 154080, Note_on_c, 0, 76, 0
2, 154080, Note_on_c, 0, 77, 50
2, 154320, Note_on_c, 0, 77, 0
2, 154320, Note_on_c, 0, 81, 43
2, 154560, Note_on_c, 0, 81, 0
2, 154560, Note_on_c, 0, 72, 50
2, 155040, Note_on_c, 0, 72, 0
2, 155040, Note_on_c, 0, 70, 46
2, 155100, Note_on_c, 0, 70, 0
2, 155100, Note_on_c, 0, 72, 41
2, 155160, Note_on_c, 0, 72, 0
2, 155160, Note_on_c, 0, 70, 46
2, 155220, Note_on_c, 0, 70, 0
2, 155220, Note_on_c, 0, 72, 41
2, 155280, Note_on_c, 0, 72, 0
2, 155280, Note_on_c, 0, 70, 46
2, 155360, Note_on_c, 0, 70, 0
2, 155360, Note_on_c, 0, 72, 43
2, 155440, Note_on_c, 0, 72, 0
2, 155440, Note_on_c, 0, 70, 43
2, 155520, Note_on_c, 0, 70, 0
2, 155520, Note_on_c, 0, 69, 50
2, 155760, Note_on_c, 0, 69, 0
2, 155760, Note_on_c, 0, 72, 43
2, 156000, Note_on_c, 0, 72, 0
2, 156000, Note_on_c, 0, 77, 50
2, 156160, Note_on_c, 0, 77, 0
2, 156160, Note_on_c, 0, 76, 41
2, 156320, Note_on_c, 0, 76, 0
2, 156320, Note_on_c, 0, 74, 41
2, 156480, Note_on_c, 0, 74, 0
2, 156480, Note_on_c, 0, 72, 47
2, 156640, Note_on_c, 0, 72, 0
2, 156640, Note_on_c, 0, 70, 40
2, 156800, Note_on_c, 0, 70, 0
2, 156800, Note_on_c, 0, 69, 40
2, 156960, Note_on_c, 0, 69, 0
2, 156960, Note_on_c, 0, 67, 50
2, 157680, Note_on_c, 0, 67, 0
2, 157680, Note_on_c, 0, 69, 43
2, 157800, Note_on_c, 0, 69, 0
2, 157800, Note_on_c, 0, 70, 38
2, 157920, Note_on_c, 0, 70, 0
2, 157920, Note_on_c, 0, 69, 47
2, 158400, Note_on_c, 0, 69, 0
2, 158400, Note_on_c, 0, 77, 66
2, 158460, Note_on_c, 0, 77, 0
2, 158460, Note_on_c, 0, 79, 51
2, 158520, Note_on_c, 0, 79, 0
2, 158520, Note_on_c, 0, 77, 56
2, 158580, Note_on_c, 0, 77, 0
2, 158580, Note_on_c, 0, 76, 54
2, 158640, Note_on_c, 0, 76, 0
2, 158640, Note_on_c, 0, 77, 66
2, 159360, Note_on_c, 0, 77, 0
2, 159360, Note_on_c, 0, 82, 55
2, 159520, Note_on_c, 0, 82, 0
2, 159520, Note_on_c, 0, 79, 46
2, 159680, Note_on_c, 0, 79, 0
2, 159680, Note_on_c, 0, 76, 45
2, 159840, Note_on_c, 0, 76, 0
2, 159840, Note_on_c, 0, 77, 50
2, 160080, Note_on_c, 0, 77, 0
2, 160080, Note_on_c, 0, 81, 43
2, 160320, Note_on_c, 0, 81, 0
2, 160320, Note_on_c, 0, 72, 50
2, 160800, Note_on_c, 0, 72, 0
2, 160800, Note_on_c, 0, 74, 50
2, 160960, Note_on_c, 0, 74, 0
2, 160960, Note_on_c, 0, 76, 46
2, 161120, Note_on_c, 0, 76, 0
2, 161120, Note_on_c, 0, 77, 46
2, 161270, Note_on_c, 0, 77, 0
2, 161280, Note_on_c, 0, 77, 54
2, 161440, Note_on_c, 0, 77, 0
2, 161440, Note_on_c, 0, 76, 48
2, 161600, Note_on_c, 0, 76, 0
2, 161600, Note_on_c, 0, 74, 48
2, 161760, Note_on_c, 0, 74, 0
2, 161760, Note_on_c, 0, 72, 51
2, 162240, Note_on_c, 0, 72, 0
2, 162240, Note_on_c, 0, 74, 50
2, 162400, Note_on_c, 0, 74, 0
2, 162400, Note_on_c, 0, 76, 47
2, 162560, Note_on_c, 0, 76, 0
2, 162560, Note_on_c, 0, 77, 47
2, 162710, Note_on_c, 0, 77, 0
2, 162720, Note_on_c, 0, 77, 53
2, 162880, Note_on_c, 0, 77, 0
2, 162880, Note_on_c, 0, 76, 46
2, 163040, Note_on_c, 0, 76, 0
2, 163040, Note_on_c, 0, 74, 43
2, 163200, Note_on_c, 0, 74, 0
2, 163200, Note_on_c, 0, 72, 53
2, 163360, Note_on_c, 0, 72, 0
2, 163360, Note_on_c, 0, 77, 47
2, 163520, Note_on_c, 0, 77, 0
2, 163520, Note_on_c, 0, 81, 50
2, 163680, Note_on_c, 0, 81, 0
2, 163680, Note_on_c, 0, 72, 56
2, 163840, Note_on_c, 0, 72, 0
2, 163840, Note_on_c, 0, 79, 49
2, 164000, Note_on_c, 0, 79, 0
2, 164000, Note_on_c, 0, 82, 53
2, 164160, Note_on_c, 0, 82, 0
2, 164160, Note_on_c, 0, 81, 61
2, 164320, Note_on_c, 0, 81, 0
2, 164320, Note_on_c, 0, 82, 46
2, 164480, Note_on_c, 0, 82, 0
2, 164480, Note_on_c, 0, 84, 46
2, 164640, Note_on_c, 0, 84, 0
2, 164640, Note_on_c, 0, 77, 50
2, 165120, Note_on_c, 0, 77, 0
2, 165120, Note_on_c, 0, 76, 46
2, 165180, Note_on_c, 0, 76, 0
2, 165180, Note_on_c, 0, 77, 41
2, 165240, Note_on_c, 0, 77, 0
2, 165240, Note_on_c, 0, 76, 46
2, 165300, Note_on_c, 0, 76, 0
2, 165300, Note_on_c, 0, 77, 41
2, 165360, Note_on_c, 0, 77, 0
2, 165360, Note_on_c, 0, 76, 46
2, 165440, Note_on_c, 0, 76, 0
2, 165440, Note_on_c, 0, 77, 43
2, 165520, Note_on_c, 0, 77, 0
2, 165520, Note_on_c, 0, 76, 43
2, 165600, Note_on_c, 0, 76, 0
2, 165600, Note_on_c, 0, 77, 55
2, 166560, Note_on_c, 0, 77, 0
2, 166560, End_track
3, 0, Start_track
3, 0, Title_t, "Piano left"
3, 0, Program_c, 0, 0
3, 0, Note_on_c, 0, 41, 33
3, 0, Note_on_c, 0, 53, 39
3, 480, Note_on_c, 0, 53, 0
3, 480, Note_on_c, 0, 41, 0
3, 480, Note_on_c, 0, 57, 34
3, 480, Note_on_c, 0, 45, 28
3, 960, Note_on_c, 0, 45, 0
3, 960, Note_on_c, 0, 57, 0
3, 960, Note_on_c, 0, 60, 34
3, 960, Note_on_c, 0, 48, 28
3, 1440, Note_on_c, 0, 48, 0
3, 1440, Note_on_c, 0, 60, 0
3, 1440, Note_on_c, 0, 53, 34
3, 1440, Note_on_c, 0, 65, 41
3, 1920, Note_on_c, 0, 65, 0
3, 1920, Note_on_c, 0, 53, 0
3, 2400, Note_on_c, 0, 67, 34
3, 2880, Note_on_c, 0, 67, 0
3, 2880, Note_on_c, 0, 65, 41
3, 3360, Note_on_c, 0, 65, 0
3, 4320, Note_on_c, 0, 64, 41
3, 4800, Note_on_c, 0, 64, 0
3, 4800, Note_on_c, 0, 60, 34
3, 5280, Note_on_c, 0, 60, 0
3, 5280, Note_on_c, 0, 65, 41
3, 5760, Note_on_c, 0, 65, 0
3, 5760, Note_on_c, 0, 53, 39
3, 6240, Note_on_c, 0, 53, 0
3, 6240, Note_on_c, 0, 57, 34
3, 6720, Note_on_c, 0, 57, 0
3, 6720, Note_on_c, 0, 60, 34
3, 7200, Note_on_c, 0, 60, 0
3, 7200, Note_on_c, 0, 53, 34
3, 7200, Note_on_c, 0, 65, 41
3, 7680, Note_on_c, 0, 65, 0
3, 7680, Note_on_c, 0, 53, 0
3, 8160, Note_on_c, 0, 65, 34
3, 8640, Note_on_c, 0, 65, 0
3, 8640, Note_on_c, 0, 64, 41
3, 9600, Note_on_c, 0, 64, 0
3, 9600, Note_on_c, 0, 65, 35
3, 10080, Note_on_c, 0, 65, 0
3, 10080, Note_on_c, 0, 64, 41
3, 11040, Note_on_c, 0, 64, 0
3, 11040, Note_on_c, 0, 59, 38
3, 11040, Note_on_c, 0, 47, 32
3, 11520, Note_on_c, 0, 47, 0
3, 11520, Note_on_c, 0, 59, 0
3, 11520, Note_on_c, 0, 48, 34
3, 11520, Note_on_c, 0, 60, 41
3, 12000, Note_on_c, 0, 60, 0
3, 12000, Note_on_c, 0, 48, 0
3, 12000, Note_on_c, 0, 64, 41
3, 12000, Note_on_c, 0, 55, 34
3, 12480, Note_on_c, 0, 55, 0
3, 12480, Note_on_c, 0, 64, 0
3, 12480, Note_on_c, 0, 55, 28
3, 12480, Note_on_c, 0, 62, 34
3, 12960, Note_on_c, 0, 62, 0
3, 12960, Note_on_c, 0, 55, 0
3, 12960, Note_on_c, 0, 60, 41
3, 13440, Note_on_c, 0, 60, 0
3, 13440, Note_on_c, 0, 55, 38
3, 13560, Note_on_c, 0, 55, 0
3, 13920, Note_on_c, 0, 48, 39
3, 14400, Note_on_c, 0, 48, 0
3, 14400, Note_on_c, 0, 41, 33
3, 14400, Note_on_c, 0, 53, 39
3, 14880, Note_on_c, 0, 53, 0
3, 14880, Note_on_c, 0, 41, 0
3, 14880, Note_on_c, 0, 57, 34
3, 14880, Note_on_c, 0, 45, 28
3, 15360, Note_on_c, 0, 45, 0
3, 15360, Note_on_c, 0, 57, 0
3, 15360, Note_on_c, 0, 60, 34
3, 15360, Note_on_c, 0, 48, 28
3, 15840, Note_on_c, 0, 48, 0
3, 15840, Note_on_c, 0, 60, 0
3, 15840, Note_on_c, 0, 53, 34
3, 15840, Note_on_c, 0, 65, 41
3, 16320, Note_on_c, 0, 65, 0
3, 16320, Note_on_c, 0, 53, 0
3, 16800, Note_on_c, 0, 67, 34
3, 17280, Note_on_c, 0, 67, 0
3, 17280, Note_on_c, 0, 65, 41
3, 17760, Note_on_c, 0, 65, 0
3, 18720, Note_on_c, 0, 64, 41
3, 19200, Note_on_c, 0, 64, 0
3, 19200, Note_on_c, 0, 60, 34
3, 19680, Note_on_c, 0, 60, 0
3, 19680, Note_on_c, 0, 65, 41
3, 20160, Note_on_c, 0, 65, 0
3, 20160, Note_on_c, 0, 53, 39
3, 20640, Note_on_c, 0, 53, 0
3, 20640, Note_on_c, 0, 57, 34
3, 21120, Note_on_c, 0, 57, 0
3, 21120, Note_on_c, 0, 60, 34
3, 21600, Note_on_c, 0, 60, 0
3, 21600, Note_on_c, 0, 53, 34
3, 21600, Note_on_c, 0, 65, 41
3, 22080, Note_on_c, 0, 65, 0
3, 22080, Note_on_c, 0, 53, 0
3, 22560, Note_on_c, 0, 65, 34
3, 23040, Note_on_c, 0, 65, 0
3, 23040, Note_on_c, 0, 64, 41
3, 24000, Note_on_c, 0, 64, 0
3, 24000, Note_on_c, 0, 65, 35
3, 24480, Note_on_c, 0, 65, 0
3, 24480, Note_on_c, 0, 64, 41
3, 25440, Note_on_c, 0, 64, 0
3, 25440, Note_on_c, 0, 59, 38
3, 25440, Note_on_c, 0, 47, 32
3, 25920, Note_on_c, 0, 47, 0
3, 25920, Note_on_c, 0, 59, 0
3, 25920, Note_on_c, 0, 48, 34
3, 25920, Note_on_c, 0, 60, 41
3, 26400, Note_on_c, 0, 60, 0
3, 26400, Note_on_c, 0, 48, 0
3, 26400, Note_on_c, 0, 64, 41
3, 26400, Note_on_c, 0, 55, 34
3, 26880, Note_on_c, 0, 55, 0
3, 26880, Note_on_c, 0, 64, 0
3, 26880, Note_on_c, 0, 55, 28
3, 26880, Note_on_c, 0, 62, 34
3, 27360, Note_on_c, 0, 62, 0
3, 27360, Note_on_c, 0, 55, 0
3, 27360, Note_on_c, 0, 60, 41
3, 27840, Note_on_c, 0, 60, 0
3, 27840, Note_on_c, 0, 55, 38
3, 27960, Note_on_c, 0, 55, 0
3, 28320, Note_on_c, 0, 48, 39
3, 28800, Note_on_c, 0, 48, 0
3, 28800, Note_on_c, 0, 60, 33
3, 29280, Note_on_c, 0, 67, 34
3, 29760, Note_on_c, 0, 67, 0
3, 29760, Note_on_c, 0, 70, 34
3, 30240, Note_on_c, 0, 70, 0
3, 30240, Note_on_c, 0, 69, 46
3, 30720, Note_on_c, 0, 69, 0
3, 30720, Note_on_c, 0, 64, 41
3, 31200, Note_on_c, 0, 64, 0
3, 31200, Note_on_c, 0, 60, 0
3, 31200, Note_on_c, 0, 65, 47
3, 31680, Note_on_c, 0, 65, 0
3, 31680, Note_on_c, 0, 58, 46
3, 32640, Note_on_c, 0, 58, 0
3, 32640, Note_on_c, 0, 59, 42
3, 33120, Note_on_c, 0, 59, 0
3, 33120, Note_on_c, 0, 60, 46
3, 33600, Note_on_c, 0, 60, 0
3, 33600, Note_on_c, 0, 55, 40
3, 33720, Note_on_c, 0, 55, 0
3, 34080, Note_on_c, 0, 48, 35
3, 34560, Note_on_c, 0, 48, 0
3, 34560, Note_on_c, 0, 60, 40
3, 35040, Note_on_c, 0, 60, 0
3, 35040, Note_on_c, 0, 68, 37
3, 35520, Note_on_c, 0, 68, 0
3, 35520, Note_on_c, 0, 65, 33
3, 36000, Note_on_c, 0, 65, 0
3, 36000, Note_on_c, 0, 67, 41
3, 36480, Note_on_c, 0, 67, 0
3, 36480, Note_on_c, 0, 64, 33
3, 36960, Note_on_c, 0, 64, 0
3, 36960, Note_on_c, 0, 65, 33
3, 37440, Note_on_c, 0, 65, 0
3, 37440, Note_on_c, 0, 58, 42
3, 38400, Note_on_c, 0, 58, 0
3, 38400, Note_on_c, 0, 59, 41
3, 38880, Note_on_c, 0, 59, 0
3, 38880, Note_on_c, 0, 60, 43
3, 39360, Note_on_c, 0, 60, 0
3, 39360, Note_on_c, 0, 55, 34
3, 39480, Note_on_c, 0, 55, 0
3, 39840, Note_on_c, 0, 48, 37
3, 40320, Note_on_c, 0, 48, 0
3, 40320, Note_on_c, 0, 41, 33
3, 40320, Note_on_c, 0, 53, 39
3, 40800, Note_on_c, 0, 53, 0
3, 40800, Note_on_c, 0, 41, 0
3, 40800, Note_on_c, 0, 57, 34
3, 40800, Note_on_c, 0, 45, 28
3, 41280, Note_on_c, 0, 45, 0
3, 41280, Note_on_c, 0, 57, 0
3, 41280, Note_on_c, 0, 60, 34
3, 41280, Note_on_c, 0, 48, 28
3, 41760, Note_on_c, 0, 48, 0
3, 41760, Note_on_c, 0, 60, 0
3, 41760, Note_on_c, 0, 53, 34
3, 41760, Note_on_c, 0, 65, 41
3, 42240, Note_on_c, 0, 65, 0
3, 42240, Note_on_c, 0, 53, 0
3, 42720, Note_on_c, 0, 67, 34
3, 43200, Note_on_c, 0, 67, 0
3, 43200, Note_on_c, 0, 65, 41
3, 43680, Note_on_c, 0, 65, 0
3, 44640, Note_on_c, 0, 64, 41
3, 45120, Note_on_c, 0, 64, 0
3, 45120, Note_on_c, 0, 60, 34
3, 45600, Note_on_c, 0, 60, 0
3, 45600, Note_on_c, 0, 65, 41
3, 46080, Note_on_c, 0, 65, 0
3, 46080, Note_on_c, 0, 41, 33
3, 46080, Note_on_c, 0, 53, 39
3, 46560, Note_on_c, 0, 53, 0
3, 46560, Note_on_c, 0, 41, 0
3, 46560, Note_on_c, 0, 45, 28
3, 46560, Note_on_c, 0, 57, 34
3, 47040, Note_on_c, 0, 57, 0
3, 47040, Note_on_c, 0, 45, 0
3, 47040, Note_on_c, 0, 48, 28
3, 47040, Note_on_c, 0, 60, 34
3, 47520, Note_on_c, 0, 60, 0
3, 47520, Note_on_c, 0, 48, 0
3, 47520, Note_on_c, 0, 53, 34
3, 47520, Note_on_c, 0, 65, 41
3, 48000, Note_on_c, 0, 65, 0
3, 48000, Note_on_c, 0, 53, 0
3, 48480, Note_on_c, 0, 46, 28
3, 48480, Note_on_c, 0, 58, 34
3, 48960, Note_on_c, 0, 58, 0
3, 48960, Note_on_c, 0, 46, 0
3, 48960, Note_on_c, 0, 57, 41
3, 48960, Note_on_c, 0, 45, 34
3, 49440, Note_on_c, 0, 45, 0
3, 49440, Note_on_c, 0, 57, 0
3, 49440, Note_on_c, 0, 65, 27
3, 49440, Note_on_c, 0, 53, 22
3, 49920, Note_on_c, 0, 53, 0
3, 49920, Note_on_c, 0, 65, 0
3, 49920, Note_on_c, 0, 58, 35
3, 49920, Note_on_c, 0, 46, 29
3, 50400, Note_on_c, 0, 46, 0
3, 50400, Note_on_c, 0, 58, 0
3, 50400, Note_on_c, 0, 45, 34
3, 50400, Note_on_c, 0, 57, 41
3, 50880, Note_on_c, 0, 57, 0
3, 50880, Note_on_c, 0, 45, 0
3, 50880, Note_on_c, 0, 53, 23
3, 50880, Note_on_c, 0, 65, 28
3, 51360, Note_on_c, 0, 65, 0
3, 51360, Note_on_c, 0, 53, 0
3, 51360, Note_on_c, 0, 52, 30
3, 51360, Note_on_c, 0, 64, 36
3, 51840, Note_on_c, 0, 64, 0
3, 51840, Note_on_c, 0, 52, 0
3, 51840, Note_on_c, 0, 53, 28
3, 51840, Note_on_c, 0, 65, 41
3, 52320, Note_on_c, 0, 65, 0
3, 52320, Note_on_c, 0, 53, 0
3, 52320, Note_on_c, 0, 57, 41
3, 52320, Note_on_c, 0, 48, 34
3, 52800, Note_on_c, 0, 48, 0
3, 52800, Note_on_c, 0, 57, 0
3, 52800, Note_on_c, 0, 48, 28
3, 52800, Note_on_c, 0, 55, 34
3, 53280, Note_on_c, 0, 55, 0
3, 53280, Note_on_c, 0, 48, 0
3, 53280, Note_on_c, 0, 53, 41
3, 53760, Note_on_c, 0, 53, 0
3, 53760, Note_on_c, 0, 48, 38
3, 53880, Note_on_c, 0, 48, 0
3, 54240, Note_on_c, 0, 41, 39
3, 54720, Note_on_c, 0, 41, 0
3, 54720, Note_on_c, 0, 60, 33
3, 55200, Note_on_c, 0, 67, 34
3, 55680, Note_on_c, 0, 67, 0
3, 55680, Note_on_c, 0, 70, 34
3, 56160, Note_on_c, 0, 70, 0
3, 56160, Note_on_c, 0, 69, 46
3, 56640, Note_on_c, 0, 69, 0
3, 56640, Note_on_c, 0, 64, 41
3, 57120, Note_on_c, 0, 64, 0
3, 57120, Note_on_c, 0, 60, 0
3, 57120, Note_on_c, 0, 65, 47
3, 57600, Note_on_c, 0, 65, 0
3, 57600, Note_on_c, 0, 58, 46
3, 58560, Note_on_c, 0, 58, 0
3, 58560, Note_on_c, 0, 59, 42
3, 59040, Note_on_c, 0, 59, 0
3, 59040, Note_on_c, 0, 60, 46
3, 59520, Note_on_c, 0, 60, 0
3, 59520, Note_on_c, 0, 55, 37
3, 59640, Note_on_c, 0, 55, 0
3, 60000, Note_on_c, 0, 48, 32
3, 60480, Note_on_c, 0, 48, 0
3, 60480, Note_on_c, 0, 60, 40
3, 60960, Note_on_c, 0, 60, 0
3, 60960, Note_on_c, 0, 68, 37
3, 61440, Note_on_c, 0, 68, 0
3, 61440, Note_on_c, 0, 65, 33
3, 61920, Note_on_c, 0, 65, 0
3, 61920, Note_on_c, 0, 67, 41
3, 62400, Note_on_c, 0, 67, 0
3, 62400, Note_on_c, 0, 64, 33
3, 62880, Note_on_c, 0, 64, 0
3, 62880, Note_on_c, 0, 65, 33
3, 63360, Note_on_c, 0, 65, 0
3, 63360, Note_on_c, 0, 58, 42
3, 64320, Note_on_c, 0, 58, 0
3, 64320, Note_on_c, 0, 59, 41
3, 64800, Note_on_c, 0, 59, 0
3, 64800, Note_on_c, 0, 60, 43
3, 65280, Note_on_c, 0, 60, 0
3, 65280, Note_on_c, 0, 55, 34
3, 65400, Note_on_c, 0, 55, 0
3, 65760, Note_on_c, 0, 48, 37
3, 66240, Note_on_c, 0, 48, 0
3, 66240, Note_on_c, 0, 41, 33
3, 66240, Note_on_c, 0, 53, 39
3, 66720, Note_on_c, 0, 53, 0
3, 66720, Note_on_c, 0, 41, 0
3, 66720, Note_on_c, 0, 57, 34
3, 66720, Note_on_c, 0, 45, 28
3, 67200, Note_on_c, 0, 45, 0
3, 67200, Note_on_c, 0, 57, 0
3, 67200, Note_on_c, 0, 60, 34
3, 67200, Note_on_c, 0, 48, 28
3, 67680, Note_on_c, 0, 48, 0
3, 67680, Note_on_c, 0, 60, 0
3, 67680, Note_on_c, 0, 53, 34
3, 67680, Note_on_c, 0, 65, 41
3, 68160, Note_on_c, 0, 65, 0
3, 68160, Note_on_c, 0, 53, 0
3, 68640, Note_on_c, 0, 67, 34
3, 69120, Note_on_c, 0, 67, 0
3, 69120, Note_on_c, 0, 65, 41
3, 69600, Note_on_c, 0, 65, 0
3, 70560, Note_on_c, 0, 64, 41
3, 71040, Note_on_c, 0, 64, 0
3, 71040, Note_on_c, 0, 60, 34
3, 71520, Note_on_c, 0, 60, 0
3, 71520, Note_on_c, 0, 65, 41
3, 72000, Note_on_c, 0, 65, 0
3, 72000, Note_on_c, 0, 41, 33
3, 72000, Note_on_c, 0, 53, 39
3, 72480, Note_on_c, 0, 53, 0
3, 72480, Note_on_c, 0, 41, 0
3, 72480, Note_on_c, 0, 45, 28
3, 72480, Note_on_c, 0, 57, 34
3, 72960, Note_on_c, 0, 57, 0
3, 72960, Note_on_c, 0, 45, 0
3, 72960, Note_on_c, 0, 48, 28
3, 72960, Note_on_c, 0, 60, 34
3, 73440, Note_on_c, 0, 60, 0
3, 73440, Note_on_c, 0, 48, 0
3, 73440, Note_on_c, 0, 53, 34
3, 73440, Note_on_c, 0, 65, 41
3, 73920, Note_on_c, 0, 65, 0
3, 73920, Note_on_c, 0, 53, 0
3, 74400, Note_on_c, 0, 46, 28
3, 74400, Note_on_c, 0, 58, 34
3, 74880, Note_on_c, 0, 58, 0
3, 74880, Note_on_c, 0, 46, 0
3, 74880, Note_on_c, 0, 57, 41
3, 74880, Note_on_c, 0, 45, 34
3, 75360, Note_on_c, 0, 45, 0
3, 75360, Note_on_c, 0, 57, 0
3, 75360, Note_on_c, 0, 65, 27
3, 75360, Note_on_c, 0, 53, 22
3, 75840, Note_on_c, 0, 53, 0
3, 75840, Note_on_c, 0, 65, 0
3, 75840, Note_on_c, 0, 58, 35
3, 75840, Note_on_c, 0, 46, 29
3, 76320, Note_on_c, 0, 46, 0
3, 76320, Note_on_c, 0, 58, 0
3, 76320, Note_on_c, 0, 45, 34
3, 76320, Note_on_c, 0, 57, 41
3, 76800, Note_on_c, 0, 57, 0
3, 76800, Note_on_c, 0, 45, 0
3, 76800, Note_on_c, 0, 53, 23
3, 76800, Note_on_c, 0, 65, 28
3, 77280, Note_on_c, 0, 65, 0
3, 77280, Note_on_c, 0, 53, 0
3, 77280, Note_on_c, 0, 52, 30
3, 77280, Note_on_c, 0, 64, 36
3, 77760, Note_on_c, 0, 64, 0
3, 77760, Note_on_c, 0, 52, 0
3, 77760, Note_on_c, 0, 53, 28
3, 77760, Note_on_c, 0, 65, 41
3, 78240, Note_on_c, 0, 65, 0
3, 78240, Note_on_c, 0, 53, 0
3, 78240, Note_on_c, 0, 57, 41
3, 78240, Note_on_c, 0, 48, 34
3, 78720, Note_on_c, 0, 48, 0
3, 78720, Note_on_c, 0, 57, 0
3, 78720, Note_on_c, 0, 48, 28
3, 78720, Note_on_c, 0, 55, 34
3, 79200, Note_on_c, 0, 55, 0
3, 79200, Note_on_c, 0, 48, 0
3, 79200, Note_on_c, 0, 53, 41
3, 79680, Note_on_c, 0, 53, 0
3, 79680, Note_on_c, 0, 48, 38
3, 79800, Note_on_c, 0, 48, 0
3, 80160, Note_on_c, 0, 41, 39
3, 80640, Note_on_c, 0, 41, 0
3, 80640, Note_on_c, 0, 34, 39
3, 80640, Note_on_c, 0, 46, 46
3, 81600, Note_on_c, 0, 46, 0
3, 81600, Note_on_c, 0, 34, 0
3, 81600, Note_on_c, 0, 63, 34
3, 82080, Note_on_c, 0, 63, 0
3, 82080, Note_on_c, 0, 62, 46
3, 82560, Note_on_c, 0, 62, 0
3, 82560, Note_on_c, 0, 58, 41
3, 83040, Note_on_c, 0, 58, 0
3, 83040, Note_on_c, 0, 60, 47
3, 83520, Note_on_c, 0, 60, 0
3, 83520, Note_on_c, 0, 62, 46
3, 84000, Note_on_c, 0, 62, 0
3, 84960, Note_on_c, 0, 53, 33
3, 84960, Note_on_c, 0, 63, 39
3, 85440, Note_on_c, 0, 63, 0
3, 85440, Note_on_c, 0, 53, 0
3, 85440, Note_on_c, 0, 58, 33
3, 85440, Note_on_c, 0, 62, 39
3, 85920, Note_on_c, 0, 62, 0
3, 85920, Note_on_c, 0, 58, 0
3, 86400, Note_on_c, 0, 53, 38
3, 86560, Note_on_c, 0, 53, 0
3, 86560, Note_on_c, 0, 57, 28
3, 86720, Note_on_c, 0, 57, 0
3, 86720, Note_on_c, 0, 60, 26
3, 86880, Note_on_c, 0, 60, 0
3, 86880, Note_on_c, 0, 53, 29
3, 87040, Note_on_c, 0, 53, 0
3, 87040, Note_on_c, 0, 57, 27
3, 87200, Note_on_c, 0, 57, 0
3, 87200, Note_on_c, 0, 60, 27
3, 87360, Note_on_c, 0, 60, 0
3, 87360, Note_on_c, 0, 53, 33
3, 87520, Note_on_c, 0, 53, 0
3, 87520, Note_on_c, 0, 57, 27
3, 87680, Note_on_c, 0, 57, 0
3, 87680, Note_on_c, 0, 60, 27
3, 87840, Note_on_c, 0, 60, 0
3, 87840, Note_on_c, 0, 52, 38
3, 88000, Note_on_c, 0, 52, 0
3, 88000, Note_on_c, 0, 55, 28
3, 88160, Note_on_c, 0, 55, 0
3, 88160, Note_on_c, 0, 60, 26
3, 88320, Note_on_c, 0, 60, 0
3, 88320, Note_on_c, 0, 52, 29
3, 88480, Note_on_c, 0, 52, 0
3, 88480, Note_on_c, 0, 55, 27
3, 88640, Note_on_c, 0, 55, 0
3, 88640, Note_on_c, 0, 60, 27
3, 88800, Note_on_c, 0, 60, 0
3, 88800, Note_on_c, 0, 52, 33
3, 88960, Note_on_c, 0, 52, 0
3, 88960, Note_on_c, 0, 55, 27
3, 89120, Note_on_c, 0, 55, 0
3, 89120, Note_on_c, 0, 60, 27
3, 89280, Note_on_c, 0, 60, 0
3, 89280, Note_on_c, 0, 53, 36
3, 89760, Note_on_c, 0, 53, 0
3, 89760, Note_on_c, 0, 57, 36
3, 89760, Note_on_c, 0, 48, 30
3, 90240, Note_on_c, 0, 48, 0
3, 90240, Note_on_c, 0, 57, 0
3, 90240, Note_on_c, 0, 48, 25
3, 90240, Note_on_c, 0, 55, 30
3, 90720, Note_on_c, 0, 55, 0
3, 90720, Note_on_c, 0, 48, 0
3, 90720, Note_on_c, 0, 53, 36
3, 91200, Note_on_c, 0, 53, 0
3, 91200, Note_on_c, 0, 48, 34
3, 91320, Note_on_c, 0, 48, 0
3, 91680, Note_on_c, 0, 41, 35
3, 92160, Note_on_c, 0, 41, 0
3, 92160, Note_on_c, 0, 34, 39
3, 92160, Note_on_c, 0, 46, 46
3, 93120, Note_on_c, 0, 46, 0
3, 93120, Note_on_c, 0, 34, 0
3, 93120, Note_on_c, 0, 63, 34
3, 93600, Note_on_c, 0, 63, 0
3, 93600, Note_on_c, 0, 62, 46
3, 94080, Note_on_c, 0, 62, 0
3, 94080, Note_on_c, 0, 58, 41
3, 94560, Note_on_c, 0, 58, 0
3, 94560, Note_on_c, 0, 60, 47
3, 95040, Note_on_c, 0, 60, 0
3, 95040, Note_on_c, 0, 62, 46
3, 95520, Note_on_c, 0, 62, 0
3, 96480, Note_on_c, 0, 53, 33
3, 96480, Note_on_c, 0, 63, 39
3, 96960, Note_on_c, 0, 63, 0
3, 96960, Note_on_c, 0, 53, 0
3, 96960, Note_on_c, 0, 58, 33
3, 96960, Note_on_c, 0, 62, 39
3, 97440, Note_on_c, 0, 62, 0
3, 97440, Note_on_c, 0, 58, 0
3, 97920, Note_on_c, 0, 53, 38
3, 98080, Note_on_c, 0, 53, 0
3, 98080, Note_on_c, 0, 57, 28
3, 98240, Note_on_c, 0, 57, 0
3, 98240, Note_on_c, 0, 60, 26
3, 98400, Note_on_c, 0, 60, 0
3, 98400, Note_on_c, 0, 53, 29
3, 98560, Note_on_c, 0, 53, 0
3, 98560, Note_on_c, 0, 57, 27
3, 98720, Note_on_c, 0, 57, 0
3, 98720, Note_on_c, 0, 60, 27
3, 98880, Note_on_c, 0, 60, 0
3, 98880, Note_on_c, 0, 53, 33
3, 99040, Note_on_c, 0, 53, 0
3, 99040, Note_on_c, 0, 57, 27
3, 99200, Note_on_c, 0, 57, 0
3, 99200, Note_on_c, 0, 60, 27
3, 99360, Note_on_c, 0, 60, 0
3, 99360, Note_on_c, 0, 52, 38
3, 99520, Note_on_c, 0, 52, 0
3, 99520, Note_on_c, 0, 55, 28
3, 99680, Note_on_c, 0, 55, 0
3, 99680, Note_on_c, 0, 60, 26
3, 99840, Note_on_c, 0, 60, 0
3, 99840, Note_on_c, 0, 52, 29
3, 100000, Note_on_c, 0, 52, 0
3, 100000, Note_on_c, 0, 55, 27
3, 100160, Note_on_c, 0, 55, 0
3, 100160, Note_on_c, 0, 60, 27
3, 100320, Note_on_c, 0, 60, 0
3, 100320, Note_on_c, 0, 52, 33
3, 100480, Note_on_c, 0, 52, 0
3, 100480, Note_on_c, 0, 55, 27
3, 100640, Note_on_c, 0, 55, 0
3, 100640, Note_on_c, 0, 60, 27
3, 100800, Note_on_c, 0, 60, 0
3, 100800, Note_on_c, 0, 53, 36
3, 101280, Note_on_c, 0, 53, 0
3, 101280, Note_on_c, 0, 57, 36
3, 101280, Note_on_c, 0, 48, 30
3, 101760, Note_on_c, 0, 48, 0
3, 101760, Note_on_c, 0, 57, 0
3, 101760, Note_on_c, 0, 48, 25
3, 101760, Note_on_c, 0, 55, 30
3, 102240, Note_on_c, 0, 55, 0
3, 102240, Note_on_c, 0, 48, 0
3, 102240, Note_on_c, 0, 53, 36
3, 102720, Note_on_c, 0, 53, 0
3, 102720, Note_on_c, 0, 48, 34
3, 102840, Note_on_c, 0, 48, 0
3, 103200, Note_on_c, 0, 41, 35
3, 103680, Note_on_c, 0, 41, 0
3, 103680, Note_on_c, 0, 50, 42
3, 104160, Note_on_c, 0, 50, 0
3, 104160, Note_on_c, 0, 58, 37
3, 104640, Note_on_c, 0, 58, 0
3, 104640, Note_on_c, 0, 50, 38
3, 105120, Note_on_c, 0, 50, 0
3, 105120, Note_on_c, 0, 51, 47
3, 105600, Note_on_c, 0, 51, 0
3, 105600, Note_on_c, 0, 55, 37
3, 106080, Note_on_c, 0, 55, 0
3, 106080, Note_on_c, 0, 60, 38
3, 106560, Note_on_c, 0, 60, 0
3, 106560, Note_on_c, 0, 51, 42
3, 107040, Note_on_c, 0, 51, 0
3, 107040, Note_on_c, 0, 60, 37
3, 107520, Note_on_c, 0, 60, 0
3, 107520, Note_on_c, 0, 52, 38
3, 108000, Note_on_c, 0, 52, 0
3, 108000, Note_on_c, 0, 53, 42
3, 108480, Note_on_c, 0, 53, 0
3, 108480, Note_on_c, 0, 48, 37
3, 108600, Note_on_c, 0, 48, 0
3, 108960, Note_on_c, 0, 41, 33
3, 109440, Note_on_c, 0, 41, 0
3, 109440, Note_on_c, 0, 58, 38
3, 109600, Note_on_c, 0, 58, 0
3, 109600, Note_on_c, 0, 62, 28
3, 109760, Note_on_c, 0, 62, 0
3, 109760, Note_on_c, 0, 65, 26
3, 109920, Note_on_c, 0, 65, 0
3, 109920, Note_on_c, 0, 58, 40
3, 110080, Note_on_c, 0, 58, 0
3, 110080, Note_on_c, 0, 62, 27
3, 110240, Note_on_c, 0, 62, 0
3, 110240, Note_on_c, 0, 65, 27
3, 110400, Note_on_c, 0, 65, 0
3, 110400, Note_on_c, 0, 58, 33
3, 110560, Note_on_c, 0, 58, 0
3, 110560, Note_on_c, 0, 62, 27
3, 110720, Note_on_c, 0, 62, 0
3, 110720, Note_on_c, 0, 65, 27
3, 110880, Note_on_c, 0, 65, 0
3, 110880, Note_on_c, 0, 57, 38
3, 111040, Note_on_c, 0, 57, 0
3, 111040, Note_on_c, 0, 60, 28
3, 111200, Note_on_c, 0, 60, 0
3, 111200, Note_on_c, 0, 65, 26
3, 111360, Note_on_c, 0, 65, 0
3, 111360, Note_on_c, 0, 57, 36
3, 111520, Note_on_c, 0, 57, 0
3, 111520, Note_on_c, 0, 60, 27
3, 111680, Note_on_c, 0, 60, 0
3, 111680, Note_on_c, 0, 65, 27
3, 111840, Note_on_c, 0, 65, 0
3, 111840, Note_on_c, 0, 57, 33
3, 112000, Note_on_c, 0, 57, 0
3, 112000, Note_on_c, 0, 60, 27
3, 112160, Note_on_c, 0, 60, 0
3, 112160, Note_on_c, 0, 65, 27
3, 112320, Note_on_c, 0, 65, 0
3, 112320, Note_on_c, 0, 58, 36
3, 112800, Note_on_c, 0, 58, 0
3, 112800, Note_on_c, 0, 62, 36
3, 112800, Note_on_c, 0, 53, 30
3, 113280, Note_on_c, 0, 53, 0
3, 113280, Note_on_c, 0, 62, 0
3, 113280, Note_on_c, 0, 53, 25
3, 113280, Note_on_c, 0, 60, 30
3, 113760, Note_on_c, 0, 60, 0
3, 113760, Note_on_c, 0, 53, 0
3, 113760, Note_on_c, 0, 58, 36
3, 114240, Note_on_c, 0, 58, 0
3, 114240, Note_on_c, 0, 53, 34
3, 114360, Note_on_c, 0, 53, 0
3, 114720, Note_on_c, 0, 46, 35
3, 115200, Note_on_c, 0, 46, 0
3, 115200, Note_on_c, 0, 50, 42
3, 115680, Note_on_c, 0, 50, 0
3, 115680, Note_on_c, 0, 58, 37
3, 116160, Note_on_c, 0, 58, 0
3, 116160, Note_on_c, 0, 50, 38
3, 116640, Note_on_c, 0, 50, 0
3, 116640, Note_on_c, 0, 51, 47
3, 117120, Note_on_c, 0, 51, 0
3, 117120, Note_on_c, 0, 55, 37
3, 117600, Note_on_c, 0, 55, 0
3, 117600, Note_on_c, 0, 60, 38
3, 118080, Note_on_c, 0, 60, 0
3, 118080, Note_on_c, 0, 51, 42
3, 118560, Note_on_c, 0, 51, 0
3, 118560, Note_on_c, 0, 60, 37
3, 119040, Note_on_c, 0, 60, 0
3, 119040, Note_on_c, 0, 52, 38
3, 119520, Note_on_c, 0, 52, 0
3, 119520, Note_on_c, 0, 53, 42
3, 120000, Note_on_c, 0, 53, 0
3, 120000, Note_on_c, 0, 48, 37
3, 120120, Note_on_c, 0, 48, 0
3, 120480, Note_on_c, 0, 41, 33
3, 120960, Note_on_c, 0, 41, 0
3, 120960, Note_on_c, 0, 58, 38
3, 121120, Note_on_c, 0, 58, 0
3, 121120, Note_on_c, 0, 62, 28
3, 121280, Note_on_c, 0, 62, 0
3, 121280, Note_on_c, 0, 65, 26
3, 121440, Note_on_c, 0, 65, 0
3, 121440, Note_on_c, 0, 58, 40
3, 121600, Note_on_c, 0, 58, 0
3, 121600, Note_on_c, 0, 62, 27
3, 121760, Note_on_c, 0, 62, 0
3, 121760, Note_on_c, 0, 65, 27
3, 121920, Note_on_c, 0, 65, 0
3, 121920, Note_on_c, 0, 58, 33
3, 122080, Note_on_c, 0, 58, 0
3, 122080, Note_on_c, 0, 62, 27
3, 122240, Note_on_c, 0, 62, 0
3, 122240, Note_on_c, 0, 65, 27
3, 122400, Note_on_c, 0, 65, 0
3, 122400, Note_on_c, 0, 57, 38
3, 122560, Note_on_c, 0, 57, 0
3, 122560, Note_on_c, 0, 60, 28
3, 122720, Note_on_c, 0, 60, 0
3, 122720, Note_on_c, 0, 65, 26
3, 122880, Note_on_c, 0, 65, 0
3, 122880, Note_on_c, 0, 57, 36
3, 123040, Note_on_c, 0, 57, 0
3, 123040, Note_on_c, 0, 60, 27
3, 123200, Note_on_c, 0, 60, 0
3, 123200, Note_on_c, 0, 65, 27
3, 123360, Note_on_c, 0, 65, 0
3, 123360, Note_on_c, 0, 57, 33
3, 123520, Note_on_c, 0, 57, 0
3, 123520, Note_on_c, 0, 60, 27
3, 123680, Note_on_c, 0, 60, 0
3, 123680, Note_on_c, 0, 65, 27
3, 123840, Note_on_c, 0, 65, 0
3, 123840, Note_on_c, 0, 58, 36
3, 124320, Note_on_c, 0, 58, 0
3, 124320, Note_on_c, 0, 62, 36
3, 124320, Note_on_c, 0, 53, 30
3, 124800, Note_on_c, 0, 53, 0
3, 124800, Note_on_c, 0, 62, 0
3, 124800, Note_on_c, 0, 53, 25
3, 124800, Note_on_c, 0, 60, 30
3, 125280, Note_on_c, 0, 60, 0
3, 125280, Note_on_c, 0, 53, 0
3, 125280, Note_on_c, 0, 58, 36
3, 125760, Note_on_c, 0, 58, 0
3, 125760, Note_on_c, 0, 53, 34
3, 125880, Note_on_c, 0, 53, 0
3, 126240, Note_on_c, 0, 46, 35
3, 126720, Note_on_c, 0, 46, 0
3, 126720, Note_on_c, 0, 41, 33
3, 126720, Note_on_c, 0, 53, 39
3, 127200, Note_on_c, 0, 53, 0
3, 127200, Note_on_c, 0, 41, 0
3, 127200, Note_on_c, 0, 57, 34
3, 127200, Note_on_c, 0, 45, 28
3, 127680, Note_on_c, 0, 45, 0
3, 127680, Note_on_c, 0, 57, 0
3, 127680, Note_on_c, 0, 60, 34
3, 127680, Note_on_c, 0, 48, 28
3, 128160, Note_on_c, 0, 48, 0
3, 128160, Note_on_c, 0, 60, 0
3, 128160, Note_on_c, 0, 53, 34
3, 128160, Note_on_c, 0, 65, 41
3, 128640, Note_on_c, 0, 65, 0
3, 128640, Note_on_c, 0, 53, 0
3, 129120, Note_on_c, 0, 67, 34
3, 129600, Note_on_c, 0, 67, 0
3, 129600, Note_on_c, 0, 65, 41
3, 130080, Note_on_c, 0, 65, 0
3, 131040, Note_on_c, 0, 64, 41
3, 131520, Note_on_c, 0, 64, 0
3, 131520, Note_on_c, 0, 60, 34
3, 132000, Note_on_c, 0, 60, 0
3, 132000, Note_on_c, 0, 65, 41
3, 132480, Note_on_c, 0, 65, 0
3, 132480, Note_on_c, 0, 53, 39
3, 132960, Note_on_c, 0, 53, 0
3, 132960, Note_on_c, 0, 57, 34
3, 133440, Note_on_c, 0, 57, 0
3, 133440, Note_on_c, 0, 60, 34
3, 133920, Note_on_c, 0, 60, 0
3, 133920, Note_on_c, 0, 53, 34
3, 133920, Note_on_c, 0, 65, 41
3, 134400, Note_on_c, 0, 65, 0
3, 134400, Note_on_c, 0, 53, 0
3, 134880, Note_on_c, 0, 65, 34
3, 135360, Note_on_c, 0, 65, 0
3, 135360, Note_on_c, 0, 64, 41
3, 136320, Note_on_c, 0, 64, 0
3, 136320, Note_on_c, 0, 65, 35
3, 136800, Note_on_c, 0, 65, 0
3, 136800, Note_on_c, 0, 64, 41
3, 137760, Note_on_c, 0, 64, 0
3, 137760, Note_on_c, 0, 59, 38
3, 137760, Note_on_c, 0, 47, 32
3, 138240, Note_on_c, 0, 47, 0
3, 138240, Note_on_c, 0, 59, 0
3, 138240, Note_on_c, 0, 48, 34
3, 138240, Note_on_c, 0, 60, 41
3, 138720, Note_on_c, 0, 60, 0
3, 138720, Note_on_c, 0, 48, 0
3, 138720, Note_on_c, 0, 64, 41
3, 138720, Note_on_c, 0, 55, 34
3, 139200, Note_on_c, 0, 55, 0
3, 139200, Note_on_c, 0, 64, 0
3, 139200, Note_on_c, 0, 55, 28
3, 139200, Note_on_c, 0, 62, 34
3, 139680, Note_on_c, 0, 62, 0
3, 139680, Note_on_c, 0, 55, 0
3, 139680, Note_on_c, 0, 60, 41
3, 140160, Note_on_c, 0, 60, 0
3, 140160, Note_on_c, 0, 55, 38
3, 140280, Note_on_c, 0, 55, 0
3, 140640, Note_on_c, 0, 48, 39
3, 141120, Note_on_c, 0, 48, 0
3, 141120, Note_on_c, 0, 60, 33
3, 141600, Note_on_c, 0, 67, 34
3, 142080, Note_on_c, 0, 67, 0
3, 142080, Note_on_c, 0, 70, 34
3, 142560, Note_on_c, 0, 70, 0
3, 142560, Note_on_c, 0, 69, 46
3, 143040, Note_on_c, 0, 69, 0
3, 143040, Note_on_c, 0, 64, 41
3, 143520, Note_on_c, 0, 64, 0
3, 143520, Note_on_c, 0, 60, 0
3, 143520, Note_on_c, 0, 65, 47
3, 144000, Note_on_c, 0, 65, 0
3, 144000, Note_on_c, 0, 58, 46
3, 144960, Note_on_c, 0, 58, 0
3, 144960, Note_on_c, 0, 59, 42
3, 145440, Note_on_c, 0, 59, 0
3, 145440, Note_on_c, 0, 60, 46
3, 145920, Note_on_c, 0, 60, 0
3, 145920, Note_on_c, 0, 55, 41
3, 146040, Note_on_c, 0, 55, 0
3, 146400, Note_on_c, 0, 48, 35
3, 146880, Note_on_c, 0, 48, 0
3, 146880, Note_on_c, 0, 60, 40
3, 147360, Note_on_c, 0, 60, 0
3, 147360, Note_on_c, 0, 68, 37
3, 147840, Note_on_c, 0, 68, 0
3, 147840, Note_on_c, 0, 65, 33
3, 148320, Note_on_c, 0, 65, 0
3, 148320, Note_on_c, 0, 67, 41
3, 148800, Note_on_c, 0, 67, 0
3, 148800, Note_on_c, 0, 64, 33
3, 149280, Note_on_c, 0, 64, 0
3, 149280, Note_on_c, 0, 65, 33
3, 149760, Note_on_c, 0, 65, 0
3, 149760, Note_on_c, 0, 58, 42
3, 150720, Note_on_c, 0, 58, 0
3, 150720, Note_on_c, 0, 59, 41
3, 151200, Note_on_c, 0, 59, 0
3, 151200, Note_on_c, 0, 60, 43
3, 151680, Note_on_c, 0, 60, 0
3, 151680, Note_on_c, 0, 55, 34
3, 151800, Note_on_c, 0, 55, 0
3, 152160, Note_on_c, 0, 48, 37
3, 152640, Note_on_c, 0, 48, 0
3, 152640, Note_on_c, 0, 41, 33
3, 152640, Note_on_c, 0, 53, 39
3, 153120, Note_on_c, 0, 53, 0
3, 153120, Note_on_c, 0, 41, 0
3, 153120, Note_on_c, 0, 57, 34
3, 153120, Note_on_c, 0, 45, 28
3, 153600, Note_on_c, 0, 45, 0
3, 153600, Note_on_c, 0, 57, 0
3, 153600, Note_on_c, 0, 60, 34
3, 153600, Note_on_c, 0, 48, 28
3, 154080, Note_on_c, 0, 48, 0
3, 154080, Note_on_c, 0, 60, 0
3, 154080, Note_on_c, 0, 53, 34
3, 154080, Note_on_c, 0, 65, 41
3, 154560, Note_on_c, 0, 65, 0
3, 154560, Note_on_c, 0, 53, 0
3, 155040, Note_on_c, 0, 67, 34
3, 155520, Note_on_c, 0, 67, 0
3, 155520, Note_on_c, 0, 65, 41
3, 156000, Note_on_c, 0, 65, 0
3, 156960, Note_on_c, 0, 64, 41
3, 157440, Note_on_c, 0, 64, 0
3, 157440, Note_on_c, 0, 60, 34
3, 157920, Note_on_c, 0, 60, 0
3, 157920, Note_on_c, 0, 65, 41
3, 158400, Note_on_c, 0, 65, 0
3, 158400, Note_on_c, 0, 41, 33
3, 158400, Note_on_c, 0, 53, 39
3, 158880, Note_on_c, 0, 53, 0
3, 158880, Note_on_c, 0, 41, 0
3, 158880, Note_on_c, 0, 45, 28
3, 158880, Note_on_c, 0, 57, 34
3, 159360, Note_on_c, 0, 57, 0
3, 159360, Note_on_c, 0, 45, 0
3, 159360, Note_on_c, 0, 48, 28
3, 159360, Note_on_c, 0, 60, 34
3, 159840, Note_on_c, 0, 60, 0
3, 159840, Note_on_c, 0, 48, 0
3, 159840, Note_on_c, 0, 53, 34
3, 159840, Note_on_c, 0, 65, 41
3, 160320, Note_on_c, 0, 65, 0
3, 160320, Note_on_c, 0, 53, 0
3, 160800, Note_on_c, 0, 46, 28
3, 160800, Note_on_c, 0, 58, 34
3, 161280, Note_on_c, 0, 58, 0
3, 161280, Note_on_c, 0, 46, 0
3, 161280, Note_on_c, 0, 57, 41
3, 161280, Note_on_c, 0, 45, 34
3, 161760, Note_on_c, 0, 45, 0
3, 161760, Note_on_c, 0, 57, 0
3, 161760, Note_on_c, 0, 65, 27
3, 161760, Note_on_c, 0, 53, 22
3, 162240, Note_on_c, 0, 53, 0
3, 162240, Note_on_c, 0, 65, 0
3, 162240, Note_on_c, 0, 58, 35
3, 162240, Note_on_c, 0, 46, 29
3, 162720, Note_on_c, 0, 46, 0
3, 162720, Note_on_c, 0, 58, 0
3, 162720, Note_on_c, 0, 45, 34
3, 162720, Note_on_c, 0, 57, 41
3, 163200, Note_on_c, 0, 57, 0
3, 163200, Note_on_c, 0, 45, 0
3, 163200, Note_on_c, 0, 53, 23
3, 163200, Note_on_c, 0, 65, 28
3, 163680, Note_on_c, 0, 65, 0
3, 163680, Note_on_c, 0, 53, 0
3, 163680, Note_on_c, 0, 52, 30
3, 163680, Note_on_c, 0, 64, 36
3, 164160, Note_on_c, 0, 64, 0
3, 164160, Note_on_c, 0, 52, 0
3, 164160, Note_on_c, 0, 53, 28
3, 164160, Note_on_c, 0, 65, 41
3, 164640, Note_on_c, 0, 65, 0
3, 164640, Note_on_c, 0, 53, 0
3, 164640, Note_on_c, 0, 57, 41
3, 164640, Note_on_c, 0, 48, 34
3, 165120, Note_on_c, 0, 48, 0
3, 165120, Note_on_c, 0, 57, 0
3, 165120, Note_on_c, 0, 48, 28
3, 165120, Note_on_c, 0, 55, 34
3, 165600, Note_on_c, 0, 55, 0
3, 165600, Note_on_c, 0, 48, 0
3, 165600, Note_on_c, 0, 53, 41
3, 166080, Note_on_c, 0, 53, 0
3, 166080, Note_on_c, 0, 48, 38
3, 166200, Note_on_c, 0, 48, 0
3, 166560, Note_on_c, 0, 41, 39
3, 167040, Note_on_c, 0, 41, 0
3, 167040, End_track
4, 0, Start_track
4, 0, Title_t, "Pedale"
4, 0, Program_c, 0, 0
4, 2446, Control_c, 0, 64, 127
4, 2886, Control_c, 0, 64, 0
4, 12555, Control_c, 0, 64, 127
4, 13003, Control_c, 0, 64, 0
4, 16846, Control_c, 0, 64, 127
4, 17286, Control_c, 0, 64, 0
4, 26955, Control_c, 0, 64, 127
4, 27403, Control_c, 0, 64, 0
4, 42766, Control_c, 0, 64, 127
4, 43206, Control_c, 0, 64, 0
4, 52875, Control_c, 0, 64, 127
4, 53323, Control_c, 0, 64, 0
4, 68686, Control_c, 0, 64, 127
4, 69126, Control_c, 0, 64, 0
4, 78795, Control_c, 0, 64, 127
4, 79243, Control_c, 0, 64, 0
4, 90315, Control_c, 0, 64, 127
4, 90743, Control_c, 0, 64, 0
4, 101835, Control_c, 0, 64, 127
4, 102283, Control_c, 0, 64, 0
4, 113355, Control_c, 0, 64, 127
4, 113803, Control_c, 0, 64, 0
4, 124875, Control_c, 0, 64, 127
4, 125323, Control_c, 0, 64, 0
4, 129166, Control_c, 0, 64, 127
4, 129606, Control_c, 0, 64, 0
4, 139275, Control_c, 0, 64, 127
4, 139723, Control_c, 0, 64, 0
4, 155086, Control_c, 0, 64, 127
4, 155526, Control_c, 0, 64, 0
4, 165195, Control_c, 0, 64, 127
4, 165643, Control_c, 0, 64, 0
4, 165643, End_track
5, 0, Start_track
5, 0, Title_t, "Haydn Piano Sonata in F major, 2. movement"
5, 0, End_track
6, 0, Start_track
6, 0, Title_t, "Copyright © 2010 by Bernd Krueger"
6, 0, End_track
7, 0, Start_track
7, 0, Title_t, "http://www.piano-midi.de/"
7, 0, End_track
8, 0, Start_track
8, 0, Title_t, "Edition: 2011-11-08"
8, 0, End_track
9, 0, Start_track
9, 0, Title_t, "Spur 8"
9, 0, End_track
10, 0, Start_track
10, 0, Title_t, "Spur 9"
10, 0, End_track
11, 0, Start_track
11, 0, Title_t, "Spur 10"
11, 0, End_track
12, 0, Start_track
12, 0, Title_t, "Spur 11"
12, 0, End_track
13, 0, Start_track
13, 0, Title_t, "Spur 12"
13, 0, End_track
14, 0, Start_track
14, 0, Title_t, "Spur 13"
14, 0, End_track
15, 0, Start_track
15, 0, Title_t, "Spur 14"
15, 0, End_track
16, 0, Start_track
16, 0, Title_t, "Spur 15"
16, 0, End_track
17, 0, Start_track
17, 0, Title_t, "Spur 16"
17, 0, End_track
0, 0, End_of_file
