0, 0, Header, 1, 17, 480
1, 0, Start_track
1, 0, Title_t, "Sonate XVI:35 2. Satz"
1, 0, Copyright_t, "Copyright © 2009 by Bernd Krueger"
1, 0, Text_t, "Joseph Haydn"
1, 0, Text_t, "Adagio"
1, 0, Text_t, "Erstellt: 18.1.2009\012"
1, 0, Text_t, "Update: 5.12.2011\012"
1, 0, Text_t, "Dauer: 6:35 Minuten\012"
1, 0, Time_signature, 4, 2, 24, 8
1, 0, Key_signature, -1, "major"
1, 0, Tempo, 500000
1, 1440, Tempo, 1212121
1, 1680, Marker_t, "Teil 1"
1, 1920, Tempo, 1200000
1, 2400, Tempo, 1188119
1, 2580, Tempo, 1176471
1, 2760, Tempo, 1250000
1, 2880, Tempo, 1200000
1, 3600, Tempo, 1263158
1, 3840, Tempo, 1212121
1, 4320, Tempo, 1188119
1, 4500, Tempo, 1200000
1, 4680, Tempo, 1250000
1, 4800, Tempo, 1212121
1, 5520, Tempo, 1250000
1, 5760, Tempo, 1200000
1, 6720, Tempo, 1250000
1, 6960, Tempo, 1200000
1, 7440, Tempo, 1263158
1, 7680, Tempo, 1200000
1, 8400, Tempo, 1263158
1, 8640, Tempo, 1212121
1, 9360, Tempo, 1290323
1, 9600, Tempo, 1224490
1, 10080, Tempo, 1188119
1, 10440, Tempo, 1263158
1, 10560, Tempo, 1176471
1, 10740, Tempo, 1263158
1, 10800, Tempo, 1176471
1, 10980, Tempo, 1276596
1, 11040, Tempo, 1176471
1, 11220, Tempo, 1263158
1, 11280, Tempo, 1176471
1, 11400, Tempo, 1212121
1, 11460, Tempo, 1318681
1, 11520, Tempo, 1188119
1, 12000, Tempo, 1188119
1, 12240, Tempo, 1153846
1, 12360, Tempo, 1250000
1, 12480, Tempo, 1200000
1, 13200, Tempo, 1250000
1, 13440, Tempo, 1200000
1, 14400, Tempo, 1188119
1, 14496, Tempo, 1176471
1, 14573, Tempo, 1165049
1, 14650, Tempo, 1153846
1, 14765, Tempo, 1250000
1, 14880, Tempo, 1153846
1, 15240, Tempo, 1395349
1, 15360, Tempo, 1224490
1, 16080, Tempo, 1237113
1, 16200, Tempo, 1518987
1, 16320, Tempo, 1263158
1, 16800, Tempo, 1200000
1, 17280, Tempo, 1188119
1, 17760, Tempo, 1176471
1, 18120, Tempo, 1276596
1, 18240, Tempo, 1176471
1, 18720, Tempo, 1111111
1, 18840, Tempo, 1176471
1, 19200, Tempo, 1165049
1, 19680, Tempo, 1153846
1, 20040, Tempo, 1237113
1, 20160, Tempo, 1153846
1, 20400, Tempo, 1132075
1, 21000, Tempo, 1276596
1, 21120, Tempo, 1153846
1, 21600, Tempo, 1142857
1, 21960, Tempo, 1250000
1, 22080, Tempo, 1153846
1, 22560, Tempo, 1081081
1, 22680, Tempo, 1132075
1, 23040, Tempo, 1121495
1, 23160, Tempo, 1121495
1, 23280, Tempo, 1132075
1, 23400, Tempo, 1121495
1, 23520, Tempo, 1111111
1, 23640, Tempo, 1121495
1, 23760, Tempo, 1132075
1, 23880, Tempo, 1200000
1, 24000, Tempo, 1142857
1, 24840, Tempo, 1224490
1, 24960, Tempo, 1142857
1, 25080, Tempo, 1153846
1, 25200, Tempo, 1153846
1, 25320, Tempo, 1142857
1, 25440, Tempo, 1153846
1, 25560, Tempo, 1188119
1, 25680, Tempo, 1153846
1, 25800, Tempo, 1304348
1, 25920, Tempo, 1153846
1, 26760, Tempo, 1250000
1, 26880, Tempo, 1165049
1, 27000, Tempo, 1142857
1, 27720, Tempo, 1188119
1, 27840, Tempo, 1142857
1, 28080, Tempo, 1090909
1, 28200, Tempo, 1165049
1, 28320, Tempo, 1132075
1, 28560, Tempo, 1090909
1, 28680, Tempo, 1188119
1, 28800, Tempo, 1132075
1, 29160, Tempo, 1212121
1, 29280, Tempo, 1142857
1, 30221, Tempo, 1165049
1, 30266, Tempo, 1153846
1, 30296, Tempo, 1142857
1, 30326, Tempo, 1132075
1, 30356, Tempo, 1121495
1, 30386, Tempo, 1111111
1, 30476, Tempo, 1121495
1, 30551, Tempo, 1132075
1, 30626, Tempo, 1142857
1, 30701, Tempo, 1153846
1, 30720, Tempo, 1132075
1, 31080, Tempo, 1200000
1, 31200, Tempo, 1132075
1, 32171, Tempo, 1165049
1, 32216, Tempo, 1153846
1, 32261, Tempo, 1142857
1, 32306, Tempo, 1132075
1, 32336, Tempo, 1121495
1, 32441, Tempo, 1132075
1, 32531, Tempo, 1142857
1, 32546, Tempo, 1165049
1, 32561, Tempo, 1188119
1, 32576, Tempo, 1212121
1, 32591, Tempo, 1237113
1, 32606, Tempo, 1263158
1, 32621, Tempo, 1290323
1, 32640, Tempo, 1142857
1, 33600, Tempo, 1061947
1, 33720, Tempo, 1121495
1, 34320, Tempo, 1276596
1, 34560, Tempo, 1121495
1, 35040, Tempo, 1111111
1, 35400, Tempo, 1212121
1, 35520, Tempo, 1111111
1, 35880, Tempo, 1165049
1, 36000, Tempo, 1132075
1, 36360, Tempo, 1263158
1, 36480, Tempo, 1142857
1, 36960, Tempo, 1132075
1, 37440, Tempo, 1111111
1, 37920, Tempo, 1100917
1, 38320, Tempo, 1643836
1, 38400, Tempo, 1132075
1, 39000, Tempo, 1165049
1, 39240, Tempo, 1237113
1, 39360, Tempo, 1200000
1, 40200, Tempo, 1764706
1, 40320, Tempo, 1290323
1, 42000, Marker_t, "Teil 1 Wiederholung"
1, 42120, Tempo, 1212121
1, 42240, Tempo, 1200000
1, 42720, Tempo, 1188119
1, 42900, Tempo, 1176471
1, 43080, Tempo, 1250000
1, 43200, Tempo, 1200000
1, 43920, Tempo, 1263158
1, 44160, Tempo, 1212121
1, 44640, Tempo, 1188119
1, 44820, Tempo, 1200000
1, 45000, Tempo, 1250000
1, 45120, Tempo, 1212121
1, 45840, Tempo, 1250000
1, 46080, Tempo, 1200000
1, 47040, Tempo, 1250000
1, 47280, Tempo, 1200000
1, 47760, Tempo, 1263158
1, 48000, Tempo, 1200000
1, 48720, Tempo, 1263158
1, 48960, Tempo, 1212121
1, 49680, Tempo, 1290323
1, 49920, Tempo, 1224490
1, 50400, Tempo, 1188119
1, 50760, Tempo, 1263158
1, 50880, Tempo, 1176471
1, 51060, Tempo, 1263158
1, 51120, Tempo, 1176471
1, 51300, Tempo, 1276596
1, 51360, Tempo, 1176471
1, 51540, Tempo, 1263158
1, 51600, Tempo, 1176471
1, 51720, Tempo, 1212121
1, 51780, Tempo, 1318681
1, 51840, Tempo, 1188119
1, 52320, Tempo, 1188119
1, 52560, Tempo, 1153846
1, 52680, Tempo, 1250000
1, 52800, Tempo, 1200000
1, 53520, Tempo, 1250000
1, 53760, Tempo, 1200000
1, 54720, Tempo, 1188119
1, 54816, Tempo, 1176471
1, 54893, Tempo, 1165049
1, 54970, Tempo, 1153846
1, 55085, Tempo, 1250000
1, 55200, Tempo, 1153846
1, 55560, Tempo, 1395349
1, 55680, Tempo, 1224490
1, 56400, Tempo, 1237113
1, 56520, Tempo, 1518987
1, 56640, Tempo, 1263158
1, 57120, Tempo, 1200000
1, 57600, Tempo, 1188119
1, 58080, Tempo, 1176471
1, 58440, Tempo, 1276596
1, 58560, Tempo, 1176471
1, 59040, Tempo, 1111111
1, 59160, Tempo, 1176471
1, 59520, Tempo, 1165049
1, 60000, Tempo, 1153846
1, 60360, Tempo, 1237113
1, 60480, Tempo, 1153846
1, 60720, Tempo, 1132075
1, 61320, Tempo, 1276596
1, 61440, Tempo, 1153846
1, 61920, Tempo, 1142857
1, 62280, Tempo, 1250000
1, 62400, Tempo, 1153846
1, 62880, Tempo, 1081081
1, 63000, Tempo, 1132075
1, 63360, Tempo, 1121495
1, 63480, Tempo, 1121495
1, 63600, Tempo, 1132075
1, 63720, Tempo, 1121495
1, 63840, Tempo, 1111111
1, 63960, Tempo, 1121495
1, 64080, Tempo, 1132075
1, 64200, Tempo, 1200000
1, 64320, Tempo, 1142857
1, 65160, Tempo, 1224490
1, 65280, Tempo, 1142857
1, 65400, Tempo, 1153846
1, 65520, Tempo, 1153846
1, 65640, Tempo, 1142857
1, 65760, Tempo, 1153846
1, 65880, Tempo, 1188119
1, 66000, Tempo, 1153846
1, 66120, Tempo, 1304348
1, 66240, Tempo, 1153846
1, 67080, Tempo, 1250000
1, 67200, Tempo, 1165049
1, 67320, Tempo, 1142857
1, 68040, Tempo, 1188119
1, 68160, Tempo, 1142857
1, 68400, Tempo, 1090909
1, 68520, Tempo, 1165049
1, 68640, Tempo, 1132075
1, 68880, Tempo, 1090909
1, 69000, Tempo, 1188119
1, 69120, Tempo, 1132075
1, 69480, Tempo, 1212121
1, 69600, Tempo, 1142857
1, 70541, Tempo, 1165049
1, 70586, Tempo, 1153846
1, 70616, Tempo, 1142857
1, 70646, Tempo, 1132075
1, 70676, Tempo, 1121495
1, 70706, Tempo, 1111111
1, 70796, Tempo, 1121495
1, 70871, Tempo, 1132075
1, 70946, Tempo, 1142857
1, 71021, Tempo, 1153846
1, 71040, Tempo, 1132075
1, 71400, Tempo, 1200000
1, 71520, Tempo, 1132075
1, 72491, Tempo, 1165049
1, 72536, Tempo, 1153846
1, 72581, Tempo, 1142857
1, 72626, Tempo, 1132075
1, 72656, Tempo, 1121495
1, 72761, Tempo, 1132075
1, 72851, Tempo, 1142857
1, 72866, Tempo, 1165049
1, 72881, Tempo, 1188119
1, 72896, Tempo, 1212121
1, 72911, Tempo, 1237113
1, 72926, Tempo, 1263158
1, 72941, Tempo, 1290323
1, 72960, Tempo, 1142857
1, 73920, Tempo, 1061947
1, 74040, Tempo, 1121495
1, 74640, Tempo, 1276596
1, 74880, Tempo, 1121495
1, 75360, Tempo, 1111111
1, 75720, Tempo, 1212121
1, 75840, Tempo, 1111111
1, 76200, Tempo, 1165049
1, 76320, Tempo, 1132075
1, 76680, Tempo, 1263158
1, 76800, Tempo, 1142857
1, 77280, Tempo, 1132075
1, 77760, Tempo, 1111111
1, 78240, Tempo, 1100917
1, 78640, Tempo, 1643836
1, 78720, Tempo, 1132075
1, 79320, Tempo, 1165049
1, 79560, Tempo, 1237113
1, 79680, Tempo, 1200000
1, 80520, Tempo, 1764706
1, 80640, Tempo, 1290323
1, 82320, Marker_t, "Teil 2"
1, 82500, Tempo, 1212121
1, 82560, Tempo, 1200000
1, 83040, Tempo, 1188119
1, 83220, Tempo, 1176471
1, 83400, Tempo, 1250000
1, 83520, Tempo, 1165049
1, 83760, Tempo, 1165049
1, 84360, Tempo, 1224490
1, 84480, Tempo, 1153846
1, 84960, Tempo, 1153846
1, 85080, Tempo, 1132075
1, 85140, Tempo, 1176471
1, 85320, Tempo, 1224490
1, 85440, Tempo, 1176471
1, 85680, Tempo, 1165049
1, 86400, Tempo, 1142857
1, 88200, Tempo, 1263158
1, 88320, Tempo, 1100917
1, 88560, Tempo, 1142857
1, 88800, Tempo, 1100917
1, 89040, Tempo, 1121495
1, 89160, Tempo, 1250000
1, 89280, Tempo, 1121495
1, 90240, Tempo, 1142857
1, 90720, Tempo, 1132075
1, 91080, Tempo, 1250000
1, 91200, Tempo, 1121495
1, 92040, Tempo, 1224490
1, 92160, Tempo, 1121495
1, 93000, Tempo, 1176471
1, 93120, Tempo, 1111111
1, 94080, Tempo, 1121495
1, 94920, Tempo, 1176471
1, 95040, Tempo, 1111111
1, 96000, Tempo, 1142857
1, 96480, Tempo, 1132075
1, 96960, Tempo, 1165049
1, 97384, Tempo, 1165049
1, 97461, Tempo, 1176471
1, 97538, Tempo, 1188119
1, 97615, Tempo, 1200000
1, 97672, Tempo, 1212121
1, 97749, Tempo, 1224490
1, 97826, Tempo, 1237113
1, 97883, Tempo, 1250000
1, 97903, Tempo, 1188119
1, 97920, Tempo, 1188119
1, 98400, Tempo, 1176471
1, 98760, Tempo, 1276596
1, 98880, Tempo, 1176471
1, 99360, Tempo, 1111111
1, 99480, Tempo, 1176471
1, 99840, Tempo, 1165049
1, 100320, Tempo, 1153846
1, 100680, Tempo, 1237113
1, 100800, Tempo, 1153846
1, 101040, Tempo, 1132075
1, 101640, Tempo, 1395349
1, 101760, Tempo, 1153846
1, 102240, Tempo, 1142857
1, 102600, Tempo, 1250000
1, 102720, Tempo, 1153846
1, 103200, Tempo, 1081081
1, 103320, Tempo, 1132075
1, 103680, Tempo, 1121495
1, 103800, Tempo, 1121495
1, 103920, Tempo, 1132075
1, 104040, Tempo, 1121495
1, 104160, Tempo, 1111111
1, 104280, Tempo, 1121495
1, 104400, Tempo, 1132075
1, 104520, Tempo, 1200000
1, 104640, Tempo, 1142857
1, 105480, Tempo, 1224490
1, 105600, Tempo, 1142857
1, 105720, Tempo, 1153846
1, 105840, Tempo, 1153846
1, 105960, Tempo, 1142857
1, 106080, Tempo, 1153846
1, 106200, Tempo, 1188119
1, 106320, Tempo, 1153846
1, 106440, Tempo, 1304348
1, 106560, Tempo, 1153846
1, 107400, Tempo, 1250000
1, 107520, Tempo, 1165049
1, 107640, Tempo, 1142857
1, 108360, Tempo, 1188119
1, 108480, Tempo, 1142857
1, 108720, Tempo, 1090909
1, 108840, Tempo, 1165049
1, 108960, Tempo, 1132075
1, 109200, Tempo, 1090909
1, 109320, Tempo, 1188119
1, 109440, Tempo, 1132075
1, 109800, Tempo, 1212121
1, 109920, Tempo, 1142857
1, 110861, Tempo, 1165049
1, 110906, Tempo, 1153846
1, 110936, Tempo, 1142857
1, 110966, Tempo, 1132075
1, 110996, Tempo, 1121495
1, 111026, Tempo, 1111111
1, 111116, Tempo, 1121495
1, 111191, Tempo, 1132075
1, 111266, Tempo, 1142857
1, 111341, Tempo, 1153846
1, 111360, Tempo, 1132075
1, 111720, Tempo, 1200000
1, 111840, Tempo, 1132075
1, 112811, Tempo, 1165049
1, 112856, Tempo, 1153846
1, 112901, Tempo, 1142857
1, 112946, Tempo, 1132075
1, 112976, Tempo, 1121495
1, 113081, Tempo, 1132075
1, 113171, Tempo, 1142857
1, 113186, Tempo, 1165049
1, 113201, Tempo, 1188119
1, 113216, Tempo, 1212121
1, 113231, Tempo, 1237113
1, 113246, Tempo, 1263158
1, 113261, Tempo, 1290323
1, 113280, Tempo, 1142857
1, 114240, Tempo, 1061947
1, 114360, Tempo, 1121495
1, 114960, Tempo, 1276596
1, 115200, Tempo, 1121495
1, 115680, Tempo, 1111111
1, 116040, Tempo, 1212121
1, 116160, Tempo, 1111111
1, 116520, Tempo, 1165049
1, 116640, Tempo, 1132075
1, 117000, Tempo, 1263158
1, 117120, Tempo, 1142857
1, 117600, Tempo, 1132075
1, 118080, Tempo, 1111111
1, 118560, Tempo, 1100917
1, 118960, Tempo, 1643836
1, 119040, Tempo, 1132075
1, 119640, Tempo, 1165049
1, 119880, Tempo, 1237113
1, 120000, Tempo, 1200000
1, 120840, Tempo, 1764706
1, 120960, Tempo, 1290323
1, 122640, Tempo, 1290323
1, 122640, Marker_t, "Teil 2 Wiederholung"
1, 122820, Tempo, 1212121
1, 122880, Tempo, 1200000
1, 123360, Tempo, 1188119
1, 123540, Tempo, 1176471
1, 123720, Tempo, 1250000
1, 123840, Tempo, 1165049
1, 124080, Tempo, 1165049
1, 124680, Tempo, 1224490
1, 124800, Tempo, 1153846
1, 125280, Tempo, 1153846
1, 125400, Tempo, 1132075
1, 125460, Tempo, 1176471
1, 125640, Tempo, 1224490
1, 125760, Tempo, 1176471
1, 126000, Tempo, 1165049
1, 126720, Tempo, 1142857
1, 128520, Tempo, 1263158
1, 128640, Tempo, 1100917
1, 128880, Tempo, 1142857
1, 129120, Tempo, 1100917
1, 129360, Tempo, 1121495
1, 129480, Tempo, 1250000
1, 129600, Tempo, 1121495
1, 130560, Tempo, 1142857
1, 131040, Tempo, 1132075
1, 131400, Tempo, 1250000
1, 131520, Tempo, 1121495
1, 132360, Tempo, 1224490
1, 132480, Tempo, 1121495
1, 133320, Tempo, 1176471
1, 133440, Tempo, 1111111
1, 134400, Tempo, 1121495
1, 135240, Tempo, 1176471
1, 135360, Tempo, 1111111
1, 136320, Tempo, 1142857
1, 136800, Tempo, 1132075
1, 137280, Tempo, 1165049
1, 137704, Tempo, 1165049
1, 137781, Tempo, 1176471
1, 137858, Tempo, 1188119
1, 137935, Tempo, 1200000
1, 137992, Tempo, 1212121
1, 138069, Tempo, 1224490
1, 138146, Tempo, 1237113
1, 138203, Tempo, 1250000
1, 138223, Tempo, 1188119
1, 138240, Tempo, 1188119
1, 138720, Tempo, 1176471
1, 139080, Tempo, 1276596
1, 139200, Tempo, 1176471
1, 139680, Tempo, 1111111
1, 139800, Tempo, 1176471
1, 140160, Tempo, 1165049
1, 140640, Tempo, 1153846
1, 141000, Tempo, 1237113
1, 141120, Tempo, 1153846
1, 141360, Tempo, 1132075
1, 141960, Tempo, 1395349
1, 142080, Tempo, 1153846
1, 142560, Tempo, 1142857
1, 142920, Tempo, 1250000
1, 143040, Tempo, 1153846
1, 143520, Tempo, 1081081
1, 143640, Tempo, 1132075
1, 144000, Tempo, 1121495
1, 144120, Tempo, 1121495
1, 144240, Tempo, 1132075
1, 144360, Tempo, 1121495
1, 144480, Tempo, 1111111
1, 144600, Tempo, 1121495
1, 144720, Tempo, 1132075
1, 144840, Tempo, 1200000
1, 144960, Tempo, 1142857
1, 145800, Tempo, 1224490
1, 145920, Tempo, 1142857
1, 146040, Tempo, 1153846
1, 146160, Tempo, 1153846
1, 146280, Tempo, 1142857
1, 146400, Tempo, 1153846
1, 146520, Tempo, 1188119
1, 146640, Tempo, 1153846
1, 146760, Tempo, 1304348
1, 146880, Tempo, 1153846
1, 147720, Tempo, 1250000
1, 147840, Tempo, 1165049
1, 147960, Tempo, 1142857
1, 148680, Tempo, 1188119
1, 148800, Tempo, 1142857
1, 149040, Tempo, 1090909
1, 149160, Tempo, 1165049
1, 149280, Tempo, 1132075
1, 149520, Tempo, 1090909
1, 149640, Tempo, 1188119
1, 149760, Tempo, 1132075
1, 150120, Tempo, 1212121
1, 150240, Tempo, 1142857
1, 151181, Tempo, 1165049
1, 151226, Tempo, 1153846
1, 151256, Tempo, 1142857
1, 151286, Tempo, 1132075
1, 151316, Tempo, 1121495
1, 151346, Tempo, 1111111
1, 151436, Tempo, 1121495
1, 151511, Tempo, 1132075
1, 151586, Tempo, 1142857
1, 151661, Tempo, 1153846
1, 151680, Tempo, 1132075
1, 152040, Tempo, 1200000
1, 152160, Tempo, 1132075
1, 153131, Tempo, 1165049
1, 153176, Tempo, 1153846
1, 153221, Tempo, 1142857
1, 153266, Tempo, 1132075
1, 153296, Tempo, 1121495
1, 153401, Tempo, 1132075
1, 153491, Tempo, 1142857
1, 153506, Tempo, 1165049
1, 153521, Tempo, 1188119
1, 153536, Tempo, 1212121
1, 153551, Tempo, 1237113
1, 153566, Tempo, 1263158
1, 153581, Tempo, 1290323
1, 153600, Tempo, 1142857
1, 154560, Tempo, 1061947
1, 154680, Tempo, 1121495
1, 155280, Tempo, 1276596
1, 155520, Tempo, 1121495
1, 156000, Tempo, 1111111
1, 156360, Tempo, 1212121
1, 156480, Tempo, 1111111
1, 156840, Tempo, 1165049
1, 156960, Tempo, 1132075
1, 157320, Tempo, 1263158
1, 157440, Tempo, 1142857
1, 157920, Tempo, 1132075
1, 158400, Tempo, 1111111
1, 158880, Tempo, 1100917
1, 159280, Tempo, 1643836
1, 159360, Tempo, 1132075
1, 159840, Tempo, 1188119
1, 159960, Tempo, 1276596
1, 160200, Tempo, 1411765
1, 160320, Tempo, 1276596
1, 161160, Tempo, 2142857
1, 161280, Tempo, 1463415
1, 161280, End_track
2, 0, Start_track
2, 0, Title_t, "Piano right"
2, 0, Program_c, 0, 0
2, 1920, Note_on_c, 0, 57, 51
2, 1920, Note_on_c, 0, 65, 60
2, 1920, Note_on_c, 0, 60, 51
2, 2040, Note_on_c, 0, 60, 0
2, 2040, Note_on_c, 0, 57, 0
2, 2280, Note_on_c, 0, 65, 0
2, 2280, Note_on_c, 0, 60, 56
2, 2400, Note_on_c, 0, 60, 0
2, 2400, Note_on_c, 0, 70, 60
2, 2520, Note_on_c, 0, 70, 0
2, 2520, Note_on_c, 0, 69, 54
2, 2640, Note_on_c, 0, 69, 0
2, 2640, Note_on_c, 0, 67, 54
2, 2760, Note_on_c, 0, 67, 0
2, 2760, Note_on_c, 0, 65, 54
2, 2880, Note_on_c, 0, 65, 0
2, 2880, Note_on_c, 0, 64, 60
2, 3000, Note_on_c, 0, 64, 0
2, 3120, Note_on_c, 0, 65, 57
2, 3240, Note_on_c, 0, 65, 0
2, 3360, Note_on_c, 0, 67, 60
2, 3480, Note_on_c, 0, 67, 0
2, 3600, Note_on_c, 0, 69, 55
2, 3720, Note_on_c, 0, 69, 0
2, 3840, Note_on_c, 0, 67, 51
2, 3840, Note_on_c, 0, 64, 51
2, 3840, Note_on_c, 0, 70, 60
2, 3960, Note_on_c, 0, 64, 0
2, 3960, Note_on_c, 0, 67, 0
2, 4200, Note_on_c, 0, 70, 0
2, 4200, Note_on_c, 0, 67, 56
2, 4320, Note_on_c, 0, 67, 0
2, 4320, Note_on_c, 0, 76, 60
2, 4440, Note_on_c, 0, 76, 0
2, 4440, Note_on_c, 0, 74, 54
2, 4560, Note_on_c, 0, 74, 0
2, 4560, Note_on_c, 0, 72, 54
2, 4680, Note_on_c, 0, 72, 0
2, 4680, Note_on_c, 0, 70, 54
2, 4800, Note_on_c, 0, 70, 0
2, 4800, Note_on_c, 0, 69, 60
2, 4920, Note_on_c, 0, 69, 0
2, 5040, Note_on_c, 0, 70, 57
2, 5160, Note_on_c, 0, 70, 0
2, 5280, Note_on_c, 0, 72, 60
2, 5400, Note_on_c, 0, 72, 0
2, 5520, Note_on_c, 0, 73, 61
2, 5640, Note_on_c, 0, 73, 0
2, 5760, Note_on_c, 0, 74, 55
2, 6120, Note_on_c, 0, 74, 0
2, 6120, Note_on_c, 0, 76, 48
2, 6240, Note_on_c, 0, 76, 0
2, 6240, Note_on_c, 0, 79, 55
2, 6360, Note_on_c, 0, 79, 0
2, 6360, Note_on_c, 0, 77, 51
2, 6480, Note_on_c, 0, 77, 0
2, 6480, Note_on_c, 0, 76, 51
2, 6600, Note_on_c, 0, 76, 0
2, 6600, Note_on_c, 0, 74, 51
2, 6720, Note_on_c, 0, 74, 0
2, 6720, Note_on_c, 0, 72, 55
2, 6900, Note_on_c, 0, 72, 0
2, 6960, Note_on_c, 0, 72, 49
2, 7200, Note_on_c, 0, 72, 0
2, 7200, Note_on_c, 0, 70, 49
2, 7230, Note_on_c, 0, 70, 0
2, 7230, Note_on_c, 0, 72, 44
2, 7260, Note_on_c, 0, 72, 0
2, 7260, Note_on_c, 0, 70, 49
2, 7290, Note_on_c, 0, 70, 0
2, 7290, Note_on_c, 0, 72, 42
2, 7320, Note_on_c, 0, 72, 0
2, 7320, Note_on_c, 0, 70, 49
2, 7360, Note_on_c, 0, 70, 0
2, 7360, Note_on_c, 0, 72, 45
2, 7400, Note_on_c, 0, 72, 0
2, 7400, Note_on_c, 0, 70, 45
2, 7440, Note_on_c, 0, 70, 0
2, 7440, Note_on_c, 0, 69, 49
2, 7680, Note_on_c, 0, 69, 0
2, 7680, Note_on_c, 0, 67, 54
2, 7860, Note_on_c, 0, 67, 0
2, 7920, Note_on_c, 0, 69, 49
2, 7980, Note_on_c, 0, 69, 0
2, 7980, Note_on_c, 0, 67, 43
2, 8040, Note_on_c, 0, 67, 0
2, 8040, Note_on_c, 0, 66, 44
2, 8100, Note_on_c, 0, 66, 0
2, 8100, Note_on_c, 0, 67, 44
2, 8160, Note_on_c, 0, 67, 0
2, 8160, Note_on_c, 0, 70, 49
2, 8400, Note_on_c, 0, 70, 0
2, 8400, Note_on_c, 0, 74, 44
2, 8640, Note_on_c, 0, 74, 0
2, 8640, Note_on_c, 0, 65, 44
2, 9360, Note_on_c, 0, 65, 0
2, 9360, Note_on_c, 0, 64, 42
2, 9420, Note_on_c, 0, 64, 0
2, 9420, Note_on_c, 0, 65, 38
2, 9480, Note_on_c, 0, 65, 0
2, 9480, Note_on_c, 0, 64, 42
2, 9600, Note_on_c, 0, 64, 0
2, 9600, Note_on_c, 0, 65, 60
2, 9600, Note_on_c, 0, 57, 51
2, 9600, Note_on_c, 0, 60, 51
2, 9720, Note_on_c, 0, 60, 0
2, 9720, Note_on_c, 0, 57, 0
2, 9960, Note_on_c, 0, 65, 0
2, 9960, Note_on_c, 0, 60, 56
2, 10080, Note_on_c, 0, 60, 0
2, 10080, Note_on_c, 0, 70, 60
2, 10200, Note_on_c, 0, 70, 0
2, 10200, Note_on_c, 0, 69, 54
2, 10320, Note_on_c, 0, 69, 0
2, 10320, Note_on_c, 0, 67, 54
2, 10440, Note_on_c, 0, 67, 0
2, 10440, Note_on_c, 0, 65, 54
2, 10560, Note_on_c, 0, 65, 0
2, 10560, Note_on_c, 0, 64, 60
2, 10740, Note_on_c, 0, 64, 0
2, 10740, Note_on_c, 0, 60, 53
2, 10800, Note_on_c, 0, 60, 0
2, 10800, Note_on_c, 0, 65, 57
2, 10980, Note_on_c, 0, 65, 0
2, 10980, Note_on_c, 0, 60, 53
2, 11040, Note_on_c, 0, 60, 0
2, 11040, Note_on_c, 0, 67, 60
2, 11220, Note_on_c, 0, 67, 0
2, 11220, Note_on_c, 0, 60, 53
2, 11280, Note_on_c, 0, 60, 0
2, 11280, Note_on_c, 0, 69, 55
2, 11460, Note_on_c, 0, 69, 0
2, 11460, Note_on_c, 0, 60, 53
2, 11520, Note_on_c, 0, 60, 0
2, 11520, Note_on_c, 0, 70, 60
2, 11880, Note_on_c, 0, 70, 0
2, 11880, Note_on_c, 0, 67, 56
2, 12000, Note_on_c, 0, 67, 0
2, 12000, Note_on_c, 0, 76, 60
2, 12120, Note_on_c, 0, 76, 0
2, 12120, Note_on_c, 0, 74, 54
2, 12240, Note_on_c, 0, 74, 0
2, 12240, Note_on_c, 0, 72, 54
2, 12360, Note_on_c, 0, 72, 0
2, 12360, Note_on_c, 0, 70, 54
2, 12480, Note_on_c, 0, 70, 0
2, 12480, Note_on_c, 0, 69, 60
2, 12720, Note_on_c, 0, 69, 0
2, 12720, Note_on_c, 0, 70, 57
2, 12960, Note_on_c, 0, 70, 0
2, 12960, Note_on_c, 0, 72, 60
2, 13200, Note_on_c, 0, 72, 0
2, 13200, Note_on_c, 0, 73, 61
2, 13440, Note_on_c, 0, 73, 0
2, 13560, Note_on_c, 0, 73, 55
2, 13680, Note_on_c, 0, 73, 0
2, 13680, Note_on_c, 0, 74, 58
2, 13800, Note_on_c, 0, 74, 0
2, 13800, Note_on_c, 0, 76, 55
2, 13920, Note_on_c, 0, 76, 0
2, 13920, Note_on_c, 0, 77, 57
2, 14040, Note_on_c, 0, 77, 0
2, 14040, Note_on_c, 0, 78, 59
2, 14160, Note_on_c, 0, 78, 0
2, 14160, Note_on_c, 0, 79, 61
2, 14280, Note_on_c, 0, 79, 0
2, 14280, Note_on_c, 0, 81, 63
2, 14400, Note_on_c, 0, 81, 0
2, 14400, Note_on_c, 0, 82, 65
2, 14520, Note_on_c, 0, 82, 0
2, 14520, Note_on_c, 0, 83, 68
2, 14640, Note_on_c, 0, 83, 0
2, 14640, Note_on_c, 0, 84, 70
2, 14760, Note_on_c, 0, 84, 0
2, 14760, Note_on_c, 0, 85, 68
2, 14880, Note_on_c, 0, 85, 0
2, 14880, Note_on_c, 0, 86, 75
2, 15000, Note_on_c, 0, 86, 0
2, 15000, Note_on_c, 0, 81, 63
2, 15120, Note_on_c, 0, 81, 0
2, 15120, Note_on_c, 0, 82, 66
2, 15240, Note_on_c, 0, 82, 0
2, 15240, Note_on_c, 0, 79, 61
2, 15360, Note_on_c, 0, 79, 0
2, 15360, Note_on_c, 0, 77, 71
2, 16080, Note_on_c, 0, 77, 0
2, 16080, Note_on_c, 0, 79, 41
2, 16200, Note_on_c, 0, 79, 0
2, 16200, Note_on_c, 0, 77, 35
2, 16320, Note_on_c, 0, 77, 0
2, 16320, Note_on_c, 0, 76, 39
2, 16800, Note_on_c, 0, 76, 0
2, 17280, Note_on_c, 0, 79, 60
2, 17760, Note_on_c, 0, 79, 0
2, 17760, Note_on_c, 0, 77, 55
2, 17880, Note_on_c, 0, 77, 0
2, 17880, Note_on_c, 0, 76, 50
2, 18000, Note_on_c, 0, 76, 0
2, 18000, Note_on_c, 0, 74, 55
2, 18120, Note_on_c, 0, 74, 0
2, 18120, Note_on_c, 0, 72, 49
2, 18210, Note_on_c, 0, 72, 0
2, 18240, Note_on_c, 0, 72, 55
2, 18720, Note_on_c, 0, 72, 0
2, 18720, Note_on_c, 0, 71, 55
2, 18780, Note_on_c, 0, 71, 0
2, 18780, Note_on_c, 0, 72, 51
2, 18840, Note_on_c, 0, 72, 0
2, 18840, Note_on_c, 0, 71, 57
2, 19080, Note_on_c, 0, 71, 0
2, 19080, Note_on_c, 0, 71, 51
2, 19200, Note_on_c, 0, 71, 0
2, 19200, Note_on_c, 0, 72, 55
2, 19320, Note_on_c, 0, 72, 0
2, 19320, Note_on_c, 0, 74, 52
2, 19440, Note_on_c, 0, 74, 0
2, 19440, Note_on_c, 0, 76, 54
2, 19560, Note_on_c, 0, 76, 0
2, 19560, Note_on_c, 0, 77, 55
2, 19680, Note_on_c, 0, 77, 0
2, 19680, Note_on_c, 0, 79, 59
2, 19800, Note_on_c, 0, 79, 0
2, 19800, Note_on_c, 0, 81, 61
2, 19920, Note_on_c, 0, 81, 0
2, 19920, Note_on_c, 0, 83, 64
2, 20040, Note_on_c, 0, 83, 0
2, 20040, Note_on_c, 0, 84, 66
2, 20130, Note_on_c, 0, 84, 0
2, 20160, Note_on_c, 0, 84, 66
2, 20280, Note_on_c, 0, 84, 0
2, 20280, Note_on_c, 0, 83, 64
2, 20400, Note_on_c, 0, 83, 0
2, 20400, Note_on_c, 0, 81, 61
2, 20460, Note_on_c, 0, 81, 0
2, 20520, Note_on_c, 0, 79, 59
2, 20580, Note_on_c, 0, 79, 0
2, 20640, Note_on_c, 0, 79, 57
2, 20760, Note_on_c, 0, 79, 0
2, 20760, Note_on_c, 0, 77, 55
2, 20880, Note_on_c, 0, 77, 0
2, 20880, Note_on_c, 0, 76, 52
2, 20940, Note_on_c, 0, 76, 0
2, 21000, Note_on_c, 0, 74, 50
2, 21060, Note_on_c, 0, 74, 0
2, 21120, Note_on_c, 0, 79, 64
2, 21480, Note_on_c, 0, 79, 0
2, 21480, Note_on_c, 0, 81, 59
2, 21540, Note_on_c, 0, 81, 0
2, 21540, Note_on_c, 0, 79, 55
2, 21600, Note_on_c, 0, 79, 0
2, 21600, Note_on_c, 0, 77, 62
2, 21720, Note_on_c, 0, 77, 0
2, 21720, Note_on_c, 0, 76, 55
2, 21840, Note_on_c, 0, 76, 0
2, 21840, Note_on_c, 0, 74, 57
2, 21960, Note_on_c, 0, 74, 0
2, 21960, Note_on_c, 0, 72, 55
2, 22050, Note_on_c, 0, 72, 0
2, 22080, Note_on_c, 0, 72, 61
2, 22560, Note_on_c, 0, 72, 0
2, 22560, Note_on_c, 0, 71, 55
2, 22620, Note_on_c, 0, 71, 0
2, 22620, Note_on_c, 0, 72, 51
2, 22680, Note_on_c, 0, 72, 0
2, 22680, Note_on_c, 0, 71, 55
2, 22920, Note_on_c, 0, 71, 0
2, 22920, Note_on_c, 0, 77, 52
2, 23040, Note_on_c, 0, 77, 0
2, 23040, Note_on_c, 0, 76, 60
2, 23100, Note_on_c, 0, 76, 0
2, 23160, Note_on_c, 0, 77, 55
2, 23220, Note_on_c, 0, 77, 0
2, 23280, Note_on_c, 0, 79, 60
2, 23340, Note_on_c, 0, 79, 0
2, 23400, Note_on_c, 0, 81, 61
2, 23460, Note_on_c, 0, 81, 0
2, 23520, Note_on_c, 0, 83, 70
2, 23580, Note_on_c, 0, 83, 0
2, 23640, Note_on_c, 0, 84, 65
2, 23700, Note_on_c, 0, 84, 0
2, 23760, Note_on_c, 0, 83, 68
2, 23820, Note_on_c, 0, 83, 0
2, 23880, Note_on_c, 0, 84, 66
2, 23940, Note_on_c, 0, 84, 0
2, 24000, Note_on_c, 0, 84, 73
2, 24120, Note_on_c, 0, 84, 0
2, 24120, Note_on_c, 0, 83, 66
2, 24240, Note_on_c, 0, 83, 0
2, 24240, Note_on_c, 0, 81, 67
2, 24360, Note_on_c, 0, 81, 0
2, 24360, Note_on_c, 0, 79, 64
2, 24450, Note_on_c, 0, 79, 0
2, 24480, Note_on_c, 0, 79, 69
2, 24600, Note_on_c, 0, 79, 0
2, 24600, Note_on_c, 0, 77, 64
2, 24720, Note_on_c, 0, 77, 0
2, 24720, Note_on_c, 0, 76, 62
2, 24840, Note_on_c, 0, 76, 0
2, 24840, Note_on_c, 0, 74, 61
2, 24960, Note_on_c, 0, 74, 0
2, 24960, Note_on_c, 0, 76, 62
2, 25080, Note_on_c, 0, 76, 0
2, 25080, Note_on_c, 0, 77, 62
2, 25200, Note_on_c, 0, 77, 0
2, 25200, Note_on_c, 0, 76, 69
2, 25320, Note_on_c, 0, 76, 0
2, 25320, Note_on_c, 0, 77, 68
2, 25440, Note_on_c, 0, 77, 0
2, 25440, Note_on_c, 0, 79, 76
2, 25560, Note_on_c, 0, 79, 0
2, 25560, Note_on_c, 0, 81, 74
2, 25680, Note_on_c, 0, 81, 0
2, 25680, Note_on_c, 0, 79, 83
2, 25800, Note_on_c, 0, 79, 0
2, 25800, Note_on_c, 0, 81, 78
2, 25920, Note_on_c, 0, 81, 0
2, 25920, Note_on_c, 0, 82, 89
2, 25920, Note_on_c, 0, 70, 75
2, 26880, Note_on_c, 0, 70, 0
2, 26880, Note_on_c, 0, 82, 0
2, 27000, Note_on_c, 0, 81, 70
2, 27120, Note_on_c, 0, 81, 0
2, 27120, Note_on_c, 0, 80, 75
2, 27240, Note_on_c, 0, 80, 0
2, 27240, Note_on_c, 0, 81, 68
2, 27360, Note_on_c, 0, 81, 0
2, 27480, Note_on_c, 0, 79, 67
2, 27600, Note_on_c, 0, 79, 0
2, 27600, Note_on_c, 0, 78, 76
2, 27720, Note_on_c, 0, 78, 0
2, 27720, Note_on_c, 0, 79, 67
2, 27840, Note_on_c, 0, 79, 0
2, 27960, Note_on_c, 0, 78, 70
2, 28080, Note_on_c, 0, 78, 0
2, 28080, Note_on_c, 0, 78, 69
2, 28140, Note_on_c, 0, 78, 0
2, 28140, Note_on_c, 0, 79, 63
2, 28200, Note_on_c, 0, 79, 0
2, 28200, Note_on_c, 0, 78, 68
2, 28320, Note_on_c, 0, 78, 0
2, 28440, Note_on_c, 0, 77, 72
2, 28560, Note_on_c, 0, 77, 0
2, 28560, Note_on_c, 0, 77, 72
2, 28620, Note_on_c, 0, 77, 0
2, 28620, Note_on_c, 0, 79, 65
2, 28680, Note_on_c, 0, 79, 0
2, 28680, Note_on_c, 0, 77, 75
2, 28800, Note_on_c, 0, 77, 0
2, 28920, Note_on_c, 0, 76, 67
2, 29040, Note_on_c, 0, 76, 0
2, 29040, Note_on_c, 0, 77, 70
2, 29160, Note_on_c, 0, 77, 0
2, 29160, Note_on_c, 0, 79, 72
2, 29250, Note_on_c, 0, 79, 0
2, 29280, Note_on_c, 0, 79, 72
2, 29400, Note_on_c, 0, 79, 0
2, 29400, Note_on_c, 0, 69, 66
2, 29520, Note_on_c, 0, 69, 0
2, 29520, Note_on_c, 0, 77, 72
2, 29640, Note_on_c, 0, 77, 0
2, 29640, Note_on_c, 0, 74, 65
2, 29760, Note_on_c, 0, 74, 0
2, 29760, Note_on_c, 0, 72, 72
2, 30240, Note_on_c, 0, 72, 0
2, 30240, Note_on_c, 0, 71, 68
2, 30280, Note_on_c, 0, 71, 0
2, 30280, Note_on_c, 0, 72, 60
2, 30320, Note_on_c, 0, 72, 0
2, 30320, Note_on_c, 0, 71, 68
2, 30360, Note_on_c, 0, 71, 0
2, 30360, Note_on_c, 0, 72, 61
2, 30400, Note_on_c, 0, 72, 0
2, 30400, Note_on_c, 0, 71, 68
2, 30440, Note_on_c, 0, 71, 0
2, 30440, Note_on_c, 0, 72, 61
2, 30480, Note_on_c, 0, 72, 0
2, 30480, Note_on_c, 0, 71, 68
2, 30720, Note_on_c, 0, 71, 0
2, 30840, Note_on_c, 0, 84, 72
2, 30960, Note_on_c, 0, 84, 0
2, 30960, Note_on_c, 0, 88, 78
2, 31080, Note_on_c, 0, 88, 0
2, 31080, Note_on_c, 0, 84, 72
2, 31200, Note_on_c, 0, 84, 0
2, 31200, Note_on_c, 0, 83, 77
2, 31320, Note_on_c, 0, 83, 0
2, 31320, Note_on_c, 0, 81, 69
2, 31440, Note_on_c, 0, 81, 0
2, 31440, Note_on_c, 0, 79, 76
2, 31560, Note_on_c, 0, 79, 0
2, 31560, Note_on_c, 0, 77, 67
2, 31680, Note_on_c, 0, 77, 0
2, 31680, Note_on_c, 0, 76, 75
2, 32160, Note_on_c, 0, 76, 0
2, 32160, Note_on_c, 0, 74, 68
2, 32200, Note_on_c, 0, 74, 0
2, 32200, Note_on_c, 0, 76, 60
2, 32240, Note_on_c, 0, 76, 0
2, 32240, Note_on_c, 0, 74, 68
2, 32280, Note_on_c, 0, 74, 0
2, 32280, Note_on_c, 0, 76, 61
2, 32320, Note_on_c, 0, 76, 0
2, 32320, Note_on_c, 0, 74, 68
2, 32360, Note_on_c, 0, 74, 0
2, 32360, Note_on_c, 0, 76, 61
2, 32394, Note_on_c, 0, 74, 68
2, 32400, Note_on_c, 0, 76, 0
2, 32434, Note_on_c, 0, 74, 0
2, 32435, Note_on_c, 0, 76, 60
2, 32474, Note_on_c, 0, 74, 68
2, 32475, Note_on_c, 0, 76, 0
2, 32514, Note_on_c, 0, 74, 0
2, 32517, Note_on_c, 0, 72, 63
2, 32577, Note_on_c, 0, 72, 0
2, 32577, Note_on_c, 0, 74, 62
2, 32637, Note_on_c, 0, 74, 0
2, 32640, Note_on_c, 0, 72, 68
2, 32760, Note_on_c, 0, 72, 0
2, 32880, Note_on_c, 0, 76, 48
2, 32880, Note_on_c, 0, 72, 40
2, 33000, Note_on_c, 0, 72, 0
2, 33000, Note_on_c, 0, 76, 0
2, 33120, Note_on_c, 0, 76, 48
2, 33120, Note_on_c, 0, 72, 40
2, 33240, Note_on_c, 0, 72, 0
2, 33240, Note_on_c, 0, 76, 0
2, 33360, Note_on_c, 0, 76, 48
2, 33360, Note_on_c, 0, 72, 40
2, 33480, Note_on_c, 0, 72, 0
2, 33480, Note_on_c, 0, 76, 0
2, 33600, Note_on_c, 0, 77, 52
2, 33600, Note_on_c, 0, 72, 44
2, 33660, Note_on_c, 0, 77, 0
2, 33660, Note_on_c, 0, 76, 47
2, 33720, Note_on_c, 0, 76, 0
2, 33720, Note_on_c, 0, 74, 47
2, 33780, Note_on_c, 0, 74, 0
2, 33780, Note_on_c, 0, 76, 48
2, 33840, Note_on_c, 0, 76, 0
2, 33840, Note_on_c, 0, 72, 0
2, 33840, Note_on_c, 0, 79, 52
2, 33840, Note_on_c, 0, 76, 44
2, 34080, Note_on_c, 0, 76, 0
2, 34080, Note_on_c, 0, 79, 0
2, 34080, Note_on_c, 0, 72, 51
2, 34080, Note_on_c, 0, 76, 60
2, 34320, Note_on_c, 0, 76, 0
2, 34320, Note_on_c, 0, 72, 0
2, 34320, Note_on_c, 0, 72, 66
2, 34320, Note_on_c, 0, 69, 55
2, 34560, Note_on_c, 0, 69, 0
2, 34560, Note_on_c, 0, 72, 0
2, 34560, Note_on_c, 0, 69, 72
2, 34560, Note_on_c, 0, 65, 60
2, 35160, Note_on_c, 0, 65, 0
2, 35160, Note_on_c, 0, 69, 0
2, 35160, Note_on_c, 0, 65, 49
2, 35160, Note_on_c, 0, 69, 58
2, 35280, Note_on_c, 0, 69, 0
2, 35280, Note_on_c, 0, 65, 0
2, 35280, Note_on_c, 0, 67, 49
2, 35280, Note_on_c, 0, 71, 58
2, 35400, Note_on_c, 0, 71, 0
2, 35400, Note_on_c, 0, 67, 0
2, 35400, Note_on_c, 0, 69, 49
2, 35400, Note_on_c, 0, 72, 58
2, 35508, Note_on_c, 0, 72, 0
2, 35508, Note_on_c, 0, 69, 0
2, 35520, Note_on_c, 0, 69, 53
2, 35520, Note_on_c, 0, 72, 63
2, 35640, Note_on_c, 0, 72, 0
2, 35640, Note_on_c, 0, 69, 0
2, 35640, Note_on_c, 0, 67, 50
2, 35640, Note_on_c, 0, 71, 59
2, 35760, Note_on_c, 0, 71, 0
2, 35760, Note_on_c, 0, 67, 0
2, 35760, Note_on_c, 0, 69, 59
2, 35760, Note_on_c, 0, 65, 50
2, 35880, Note_on_c, 0, 65, 0
2, 35880, Note_on_c, 0, 69, 0
2, 35880, Note_on_c, 0, 64, 50
2, 35880, Note_on_c, 0, 67, 59
2, 35988, Note_on_c, 0, 67, 0
2, 35988, Note_on_c, 0, 64, 0
2, 36000, Note_on_c, 0, 64, 53
2, 36000, Note_on_c, 0, 67, 63
2, 36120, Note_on_c, 0, 67, 0
2, 36120, Note_on_c, 0, 64, 0
2, 36120, Note_on_c, 0, 62, 45
2, 36120, Note_on_c, 0, 65, 53
2, 36240, Note_on_c, 0, 65, 0
2, 36240, Note_on_c, 0, 62, 0
2, 36240, Note_on_c, 0, 60, 45
2, 36240, Note_on_c, 0, 64, 53
2, 36360, Note_on_c, 0, 64, 0
2, 36360, Note_on_c, 0, 60, 0
2, 36360, Note_on_c, 0, 62, 53
2, 36360, Note_on_c, 0, 59, 45
2, 36468, Note_on_c, 0, 59, 0
2, 36468, Note_on_c, 0, 62, 0
2, 36720, Note_on_c, 0, 72, 63
2, 36800, Note_on_c, 0, 72, 0
2, 36800, Note_on_c, 0, 76, 57
2, 36880, Note_on_c, 0, 76, 0
2, 36880, Note_on_c, 0, 84, 57
2, 36960, Note_on_c, 0, 84, 0
2, 36960, Note_on_c, 0, 72, 63
2, 37040, Note_on_c, 0, 72, 0
2, 37040, Note_on_c, 0, 76, 55
2, 37120, Note_on_c, 0, 76, 0
2, 37120, Note_on_c, 0, 84, 55
2, 37200, Note_on_c, 0, 84, 0
2, 37200, Note_on_c, 0, 72, 63
2, 37280, Note_on_c, 0, 72, 0
2, 37280, Note_on_c, 0, 76, 55
2, 37360, Note_on_c, 0, 76, 0
2, 37360, Note_on_c, 0, 84, 55
2, 37440, Note_on_c, 0, 84, 0
2, 37440, Note_on_c, 0, 72, 69
2, 37520, Note_on_c, 0, 72, 0
2, 37520, Note_on_c, 0, 76, 59
2, 37600, Note_on_c, 0, 76, 0
2, 37600, Note_on_c, 0, 84, 61
2, 37680, Note_on_c, 0, 84, 0
2, 37680, Note_on_c, 0, 76, 72
2, 37760, Note_on_c, 0, 76, 0
2, 37760, Note_on_c, 0, 79, 64
2, 37840, Note_on_c, 0, 79, 0
2, 37840, Note_on_c, 0, 88, 66
2, 37920, Note_on_c, 0, 88, 0
2, 37920, Note_on_c, 0, 72, 75
2, 38000, Note_on_c, 0, 72, 0
2, 38000, Note_on_c, 0, 76, 66
2, 38080, Note_on_c, 0, 76, 0
2, 38080, Note_on_c, 0, 84, 69
2, 38160, Note_on_c, 0, 84, 0
2, 38160, Note_on_c, 0, 69, 80
2, 38240, Note_on_c, 0, 69, 0
2, 38240, Note_on_c, 0, 72, 69
2, 38320, Note_on_c, 0, 72, 0
2, 38320, Note_on_c, 0, 81, 71
2, 38400, Note_on_c, 0, 81, 0
2, 38400, Note_on_c, 0, 65, 81
2, 39000, Note_on_c, 0, 65, 0
2, 39000, Note_on_c, 0, 72, 66
2, 39000, Note_on_c, 0, 69, 56
2, 39120, Note_on_c, 0, 69, 0
2, 39120, Note_on_c, 0, 72, 0
2, 39120, Note_on_c, 0, 71, 68
2, 39120, Note_on_c, 0, 67, 57
2, 39240, Note_on_c, 0, 67, 0
2, 39240, Note_on_c, 0, 71, 0
2, 39240, Note_on_c, 0, 65, 53
2, 39240, Note_on_c, 0, 69, 63
2, 39348, Note_on_c, 0, 69, 0
2, 39348, Note_on_c, 0, 65, 0
2, 39360, Note_on_c, 0, 65, 56
2, 39360, Note_on_c, 0, 69, 67
2, 39480, Note_on_c, 0, 69, 0
2, 39480, Note_on_c, 0, 65, 0
2, 39480, Note_on_c, 0, 67, 65
2, 39480, Note_on_c, 0, 64, 55
2, 39600, Note_on_c, 0, 64, 0
2, 39600, Note_on_c, 0, 67, 0
2, 39600, Note_on_c, 0, 62, 53
2, 39600, Note_on_c, 0, 65, 63
2, 39720, Note_on_c, 0, 65, 0
2, 39720, Note_on_c, 0, 62, 0
2, 39720, Note_on_c, 0, 64, 61
2, 39720, Note_on_c, 0, 60, 51
2, 39828, Note_on_c, 0, 60, 0
2, 39828, Note_on_c, 0, 64, 0
2, 39840, Note_on_c, 0, 64, 63
2, 39960, Note_on_c, 0, 64, 0
2, 39960, Note_on_c, 0, 62, 56
2, 40080, Note_on_c, 0, 62, 0
2, 40080, Note_on_c, 0, 60, 56
2, 40200, Note_on_c, 0, 60, 0
2, 40200, Note_on_c, 0, 53, 47
2, 40200, Note_on_c, 0, 59, 56
2, 40308, Note_on_c, 0, 59, 0
2, 40308, Note_on_c, 0, 53, 0
2, 40320, Note_on_c, 0, 53, 59
2, 40320, Note_on_c, 0, 59, 59
2, 41235, Note_on_c, 0, 59, 0
2, 41235, Note_on_c, 0, 53, 0
2, 41280, Note_on_c, 0, 55, 52
2, 41280, Note_on_c, 0, 52, 52
2, 41280, Note_on_c, 0, 60, 52
2, 41520, Note_on_c, 0, 60, 0
2, 41520, Note_on_c, 0, 52, 0
2, 41520, Note_on_c, 0, 55, 0
2, 42240, Note_on_c, 0, 60, 51
2, 42240, Note_on_c, 0, 65, 60
2, 42240, Note_on_c, 0, 57, 51
2, 42360, Note_on_c, 0, 57, 0
2, 42360, Note_on_c, 0, 60, 0
2, 42600, Note_on_c, 0, 65, 0
2, 42600, Note_on_c, 0, 60, 56
2, 42720, Note_on_c, 0, 60, 0
2, 42720, Note_on_c, 0, 70, 60
2, 42840, Note_on_c, 0, 70, 0
2, 42840, Note_on_c, 0, 69, 54
2, 42960, Note_on_c, 0, 69, 0
2, 42960, Note_on_c, 0, 67, 54
2, 43080, Note_on_c, 0, 67, 0
2, 43080, Note_on_c, 0, 65, 54
2, 43200, Note_on_c, 0, 65, 0
2, 43200, Note_on_c, 0, 64, 60
2, 43320, Note_on_c, 0, 64, 0
2, 43440, Note_on_c, 0, 65, 57
2, 43560, Note_on_c, 0, 65, 0
2, 43680, Note_on_c, 0, 67, 60
2, 43800, Note_on_c, 0, 67, 0
2, 43920, Note_on_c, 0, 69, 55
2, 44040, Note_on_c, 0, 69, 0
2, 44160, Note_on_c, 0, 67, 51
2, 44160, Note_on_c, 0, 64, 51
2, 44160, Note_on_c, 0, 70, 60
2, 44280, Note_on_c, 0, 64, 0
2, 44280, Note_on_c, 0, 67, 0
2, 44520, Note_on_c, 0, 70, 0
2, 44520, Note_on_c, 0, 67, 56
2, 44640, Note_on_c, 0, 67, 0
2, 44640, Note_on_c, 0, 76, 60
2, 44760, Note_on_c, 0, 76, 0
2, 44760, Note_on_c, 0, 74, 54
2, 44880, Note_on_c, 0, 74, 0
2, 44880, Note_on_c, 0, 72, 54
2, 45000, Note_on_c, 0, 72, 0
2, 45000, Note_on_c, 0, 70, 54
2, 45120, Note_on_c, 0, 70, 0
2, 45120, Note_on_c, 0, 69, 60
2, 45240, Note_on_c, 0, 69, 0
2, 45360, Note_on_c, 0, 70, 57
2, 45480, Note_on_c, 0, 70, 0
2, 45600, Note_on_c, 0, 72, 60
2, 45720, Note_on_c, 0, 72, 0
2, 45840, Note_on_c, 0, 73, 61
2, 45960, Note_on_c, 0, 73, 0
2, 46080, Note_on_c, 0, 74, 55
2, 46440, Note_on_c, 0, 74, 0
2, 46440, Note_on_c, 0, 76, 48
2, 46560, Note_on_c, 0, 76, 0
2, 46560, Note_on_c, 0, 79, 55
2, 46680, Note_on_c, 0, 79, 0
2, 46680, Note_on_c, 0, 77, 51
2, 46800, Note_on_c, 0, 77, 0
2, 46800, Note_on_c, 0, 76, 51
2, 46920, Note_on_c, 0, 76, 0
2, 46920, Note_on_c, 0, 74, 51
2, 47040, Note_on_c, 0, 74, 0
2, 47040, Note_on_c, 0, 72, 55
2, 47220, Note_on_c, 0, 72, 0
2, 47280, Note_on_c, 0, 72, 49
2, 47520, Note_on_c, 0, 72, 0
2, 47520, Note_on_c, 0, 70, 49
2, 47550, Note_on_c, 0, 70, 0
2, 47550, Note_on_c, 0, 72, 44
2, 47580, Note_on_c, 0, 72, 0
2, 47580, Note_on_c, 0, 70, 49
2, 47610, Note_on_c, 0, 70, 0
2, 47610, Note_on_c, 0, 72, 42
2, 47640, Note_on_c, 0, 72, 0
2, 47640, Note_on_c, 0, 70, 49
2, 47680, Note_on_c, 0, 70, 0
2, 47680, Note_on_c, 0, 72, 45
2, 47720, Note_on_c, 0, 72, 0
2, 47720, Note_on_c, 0, 70, 45
2, 47760, Note_on_c, 0, 70, 0
2, 47760, Note_on_c, 0, 69, 49
2, 48000, Note_on_c, 0, 69, 0
2, 48000, Note_on_c, 0, 67, 54
2, 48180, Note_on_c, 0, 67, 0
2, 48240, Note_on_c, 0, 69, 49
2, 48300, Note_on_c, 0, 69, 0
2, 48300, Note_on_c, 0, 67, 43
2, 48360, Note_on_c, 0, 67, 0
2, 48360, Note_on_c, 0, 66, 44
2, 48420, Note_on_c, 0, 66, 0
2, 48420, Note_on_c, 0, 67, 44
2, 48480, Note_on_c, 0, 67, 0
2, 48480, Note_on_c, 0, 70, 49
2, 48720, Note_on_c, 0, 70, 0
2, 48720, Note_on_c, 0, 74, 44
2, 48960, Note_on_c, 0, 74, 0
2, 48960, Note_on_c, 0, 65, 44
2, 49680, Note_on_c, 0, 65, 0
2, 49680, Note_on_c, 0, 64, 42
2, 49740, Note_on_c, 0, 64, 0
2, 49740, Note_on_c, 0, 65, 38
2, 49800, Note_on_c, 0, 65, 0
2, 49800, Note_on_c, 0, 64, 42
2, 49920, Note_on_c, 0, 64, 0
2, 49920, Note_on_c, 0, 60, 51
2, 49920, Note_on_c, 0, 65, 60
2, 49920, Note_on_c, 0, 57, 51
2, 50040, Note_on_c, 0, 57, 0
2, 50040, Note_on_c, 0, 60, 0
2, 50280, Note_on_c, 0, 65, 0
2, 50280, Note_on_c, 0, 60, 56
2, 50400, Note_on_c, 0, 60, 0
2, 50400, Note_on_c, 0, 70, 60
2, 50520, Note_on_c, 0, 70, 0
2, 50520, Note_on_c, 0, 69, 54
2, 50640, Note_on_c, 0, 69, 0
2, 50640, Note_on_c, 0, 67, 54
2, 50760, Note_on_c, 0, 67, 0
2, 50760, Note_on_c, 0, 65, 54
2, 50880, Note_on_c, 0, 65, 0
2, 50880, Note_on_c, 0, 64, 60
2, 51060, Note_on_c, 0, 64, 0
2, 51060, Note_on_c, 0, 60, 53
2, 51120, Note_on_c, 0, 60, 0
2, 51120, Note_on_c, 0, 65, 57
2, 51300, Note_on_c, 0, 65, 0
2, 51300, Note_on_c, 0, 60, 53
2, 51360, Note_on_c, 0, 60, 0
2, 51360, Note_on_c, 0, 67, 60
2, 51540, Note_on_c, 0, 67, 0
2, 51540, Note_on_c, 0, 60, 53
2, 51600, Note_on_c, 0, 60, 0
2, 51600, Note_on_c, 0, 69, 55
2, 51780, Note_on_c, 0, 69, 0
2, 51780, Note_on_c, 0, 60, 53
2, 51840, Note_on_c, 0, 60, 0
2, 51840, Note_on_c, 0, 70, 60
2, 52200, Note_on_c, 0, 70, 0
2, 52200, Note_on_c, 0, 67, 56
2, 52320, Note_on_c, 0, 67, 0
2, 52320, Note_on_c, 0, 76, 60
2, 52440, Note_on_c, 0, 76, 0
2, 52440, Note_on_c, 0, 74, 54
2, 52560, Note_on_c, 0, 74, 0
2, 52560, Note_on_c, 0, 72, 54
2, 52680, Note_on_c, 0, 72, 0
2, 52680, Note_on_c, 0, 70, 54
2, 52800, Note_on_c, 0, 70, 0
2, 52800, Note_on_c, 0, 69, 60
2, 53040, Note_on_c, 0, 69, 0
2, 53040, Note_on_c, 0, 70, 57
2, 53280, Note_on_c, 0, 70, 0
2, 53280, Note_on_c, 0, 72, 60
2, 53520, Note_on_c, 0, 72, 0
2, 53520, Note_on_c, 0, 73, 61
2, 53760, Note_on_c, 0, 73, 0
2, 53880, Note_on_c, 0, 73, 55
2, 54000, Note_on_c, 0, 73, 0
2, 54000, Note_on_c, 0, 74, 58
2, 54120, Note_on_c, 0, 74, 0
2, 54120, Note_on_c, 0, 76, 55
2, 54240, Note_on_c, 0, 76, 0
2, 54240, Note_on_c, 0, 77, 57
2, 54360, Note_on_c, 0, 77, 0
2, 54360, Note_on_c, 0, 78, 59
2, 54480, Note_on_c, 0, 78, 0
2, 54480, Note_on_c, 0, 79, 61
2, 54600, Note_on_c, 0, 79, 0
2, 54600, Note_on_c, 0, 81, 63
2, 54720, Note_on_c, 0, 81, 0
2, 54720, Note_on_c, 0, 82, 65
2, 54840, Note_on_c, 0, 82, 0
2, 54840, Note_on_c, 0, 83, 68
2, 54960, Note_on_c, 0, 83, 0
2, 54960, Note_on_c, 0, 84, 70
2, 55080, Note_on_c, 0, 84, 0
2, 55080, Note_on_c, 0, 85, 68
2, 55200, Note_on_c, 0, 85, 0
2, 55200, Note_on_c, 0, 86, 75
2, 55320, Note_on_c, 0, 86, 0
2, 55320, Note_on_c, 0, 81, 63
2, 55440, Note_on_c, 0, 81, 0
2, 55440, Note_on_c, 0, 82, 66
2, 55560, Note_on_c, 0, 82, 0
2, 55560, Note_on_c, 0, 79, 61
2, 55680, Note_on_c, 0, 79, 0
2, 55680, Note_on_c, 0, 77, 71
2, 56400, Note_on_c, 0, 77, 0
2, 56400, Note_on_c, 0, 79, 41
2, 56520, Note_on_c, 0, 79, 0
2, 56520, Note_on_c, 0, 77, 35
2, 56640, Note_on_c, 0, 77, 0
2, 56640, Note_on_c, 0, 76, 39
2, 57120, Note_on_c, 0, 76, 0
2, 57600, Note_on_c, 0, 79, 60
2, 58080, Note_on_c, 0, 79, 0
2, 58080, Note_on_c, 0, 77, 55
2, 58200, Note_on_c, 0, 77, 0
2, 58200, Note_on_c, 0, 76, 50
2, 58320, Note_on_c, 0, 76, 0
2, 58320, Note_on_c, 0, 74, 55
2, 58440, Note_on_c, 0, 74, 0
2, 58440, Note_on_c, 0, 72, 49
2, 58530, Note_on_c, 0, 72, 0
2, 58560, Note_on_c, 0, 72, 55
2, 59040, Note_on_c, 0, 72, 0
2, 59040, Note_on_c, 0, 71, 55
2, 59100, Note_on_c, 0, 71, 0
2, 59100, Note_on_c, 0, 72, 51
2, 59160, Note_on_c, 0, 72, 0
2, 59160, Note_on_c, 0, 71, 57
2, 59400, Note_on_c, 0, 71, 0
2, 59400, Note_on_c, 0, 71, 51
2, 59520, Note_on_c, 0, 71, 0
2, 59520, Note_on_c, 0, 72, 55
2, 59640, Note_on_c, 0, 72, 0
2, 59640, Note_on_c, 0, 74, 52
2, 59760, Note_on_c, 0, 74, 0
2, 59760, Note_on_c, 0, 76, 54
2, 59880, Note_on_c, 0, 76, 0
2, 59880, Note_on_c, 0, 77, 55
2, 60000, Note_on_c, 0, 77, 0
2, 60000, Note_on_c, 0, 79, 59
2, 60120, Note_on_c, 0, 79, 0
2, 60120, Note_on_c, 0, 81, 61
2, 60240, Note_on_c, 0, 81, 0
2, 60240, Note_on_c, 0, 83, 64
2, 60360, Note_on_c, 0, 83, 0
2, 60360, Note_on_c, 0, 84, 66
2, 60450, Note_on_c, 0, 84, 0
2, 60480, Note_on_c, 0, 84, 66
2, 60600, Note_on_c, 0, 84, 0
2, 60600, Note_on_c, 0, 83, 64
2, 60720, Note_on_c, 0, 83, 0
2, 60720, Note_on_c, 0, 81, 61
2, 60780, Note_on_c, 0, 81, 0
2, 60840, Note_on_c, 0, 79, 59
2, 60900, Note_on_c, 0, 79, 0
2, 60960, Note_on_c, 0, 79, 57
2, 61080, Note_on_c, 0, 79, 0
2, 61080, Note_on_c, 0, 77, 55
2, 61200, Note_on_c, 0, 77, 0
2, 61200, Note_on_c, 0, 76, 52
2, 61260, Note_on_c, 0, 76, 0
2, 61320, Note_on_c, 0, 74, 50
2, 61380, Note_on_c, 0, 74, 0
2, 61440, Note_on_c, 0, 79, 64
2, 61800, Note_on_c, 0, 79, 0
2, 61800, Note_on_c, 0, 81, 59
2, 61860, Note_on_c, 0, 81, 0
2, 61860, Note_on_c, 0, 79, 55
2, 61920, Note_on_c, 0, 79, 0
2, 61920, Note_on_c, 0, 77, 62
2, 62040, Note_on_c, 0, 77, 0
2, 62040, Note_on_c, 0, 76, 55
2, 62160, Note_on_c, 0, 76, 0
2, 62160, Note_on_c, 0, 74, 57
2, 62280, Note_on_c, 0, 74, 0
2, 62280, Note_on_c, 0, 72, 55
2, 62370, Note_on_c, 0, 72, 0
2, 62400, Note_on_c, 0, 72, 61
2, 62880, Note_on_c, 0, 72, 0
2, 62880, Note_on_c, 0, 71, 55
2, 62940, Note_on_c, 0, 71, 0
2, 62940, Note_on_c, 0, 72, 51
2, 63000, Note_on_c, 0, 72, 0
2, 63000, Note_on_c, 0, 71, 55
2, 63240, Note_on_c, 0, 71, 0
2, 63240, Note_on_c, 0, 77, 52
2, 63360, Note_on_c, 0, 77, 0
2, 63360, Note_on_c, 0, 76, 60
2, 63420, Note_on_c, 0, 76, 0
2, 63480, Note_on_c, 0, 77, 55
2, 63540, Note_on_c, 0, 77, 0
2, 63600, Note_on_c, 0, 79, 60
2, 63660, Note_on_c, 0, 79, 0
2, 63720, Note_on_c, 0, 81, 61
2, 63780, Note_on_c, 0, 81, 0
2, 63840, Note_on_c, 0, 83, 70
2, 63900, Note_on_c, 0, 83, 0
2, 63960, Note_on_c, 0, 84, 65
2, 64020, Note_on_c, 0, 84, 0
2, 64080, Note_on_c, 0, 83, 68
2, 64140, Note_on_c, 0, 83, 0
2, 64200, Note_on_c, 0, 84, 66
2, 64260, Note_on_c, 0, 84, 0
2, 64320, Note_on_c, 0, 84, 73
2, 64440, Note_on_c, 0, 84, 0
2, 64440, Note_on_c, 0, 83, 66
2, 64560, Note_on_c, 0, 83, 0
2, 64560, Note_on_c, 0, 81, 67
2, 64680, Note_on_c, 0, 81, 0
2, 64680, Note_on_c, 0, 79, 64
2, 64770, Note_on_c, 0, 79, 0
2, 64800, Note_on_c, 0, 79, 69
2, 64920, Note_on_c, 0, 79, 0
2, 64920, Note_on_c, 0, 77, 64
2, 65040, Note_on_c, 0, 77, 0
2, 65040, Note_on_c, 0, 76, 62
2, 65160, Note_on_c, 0, 76, 0
2, 65160, Note_on_c, 0, 74, 61
2, 65280, Note_on_c, 0, 74, 0
2, 65280, Note_on_c, 0, 76, 62
2, 65400, Note_on_c, 0, 76, 0
2, 65400, Note_on_c, 0, 77, 62
2, 65520, Note_on_c, 0, 77, 0
2, 65520, Note_on_c, 0, 76, 69
2, 65640, Note_on_c, 0, 76, 0
2, 65640, Note_on_c, 0, 77, 68
2, 65760, Note_on_c, 0, 77, 0
2, 65760, Note_on_c, 0, 79, 76
2, 65880, Note_on_c, 0, 79, 0
2, 65880, Note_on_c, 0, 81, 74
2, 66000, Note_on_c, 0, 81, 0
2, 66000, Note_on_c, 0, 79, 83
2, 66120, Note_on_c, 0, 79, 0
2, 66120, Note_on_c, 0, 81, 78
2, 66240, Note_on_c, 0, 81, 0
2, 66240, Note_on_c, 0, 70, 75
2, 66240, Note_on_c, 0, 82, 89
2, 67200, Note_on_c, 0, 82, 0
2, 67200, Note_on_c, 0, 70, 0
2, 67320, Note_on_c, 0, 81, 70
2, 67440, Note_on_c, 0, 81, 0
2, 67440, Note_on_c, 0, 80, 75
2, 67560, Note_on_c, 0, 80, 0
2, 67560, Note_on_c, 0, 81, 68
2, 67680, Note_on_c, 0, 81, 0
2, 67800, Note_on_c, 0, 79, 67
2, 67920, Note_on_c, 0, 79, 0
2, 67920, Note_on_c, 0, 78, 76
2, 68040, Note_on_c, 0, 78, 0
2, 68040, Note_on_c, 0, 79, 67
2, 68160, Note_on_c, 0, 79, 0
2, 68280, Note_on_c, 0, 78, 70
2, 68400, Note_on_c, 0, 78, 0
2, 68400, Note_on_c, 0, 78, 69
2, 68460, Note_on_c, 0, 78, 0
2, 68460, Note_on_c, 0, 79, 63
2, 68520, Note_on_c, 0, 79, 0
2, 68520, Note_on_c, 0, 78, 68
2, 68640, Note_on_c, 0, 78, 0
2, 68760, Note_on_c, 0, 77, 72
2, 68880, Note_on_c, 0, 77, 0
2, 68880, Note_on_c, 0, 77, 72
2, 68940, Note_on_c, 0, 77, 0
2, 68940, Note_on_c, 0, 79, 65
2, 69000, Note_on_c, 0, 79, 0
2, 69000, Note_on_c, 0, 77, 75
2, 69120, Note_on_c, 0, 77, 0
2, 69240, Note_on_c, 0, 76, 67
2, 69360, Note_on_c, 0, 76, 0
2, 69360, Note_on_c, 0, 77, 70
2, 69480, Note_on_c, 0, 77, 0
2, 69480, Note_on_c, 0, 79, 72
2, 69570, Note_on_c, 0, 79, 0
2, 69600, Note_on_c, 0, 79, 72
2, 69720, Note_on_c, 0, 79, 0
2, 69720, Note_on_c, 0, 69, 66
2, 69840, Note_on_c, 0, 69, 0
2, 69840, Note_on_c, 0, 77, 72
2, 69960, Note_on_c, 0, 77, 0
2, 69960, Note_on_c, 0, 74, 65
2, 70080, Note_on_c, 0, 74, 0
2, 70080, Note_on_c, 0, 72, 72
2, 70560, Note_on_c, 0, 72, 0
2, 70560, Note_on_c, 0, 71, 68
2, 70600, Note_on_c, 0, 71, 0
2, 70600, Note_on_c, 0, 72, 60
2, 70640, Note_on_c, 0, 72, 0
2, 70640, Note_on_c, 0, 71, 68
2, 70680, Note_on_c, 0, 71, 0
2, 70680, Note_on_c, 0, 72, 61
2, 70720, Note_on_c, 0, 72, 0
2, 70720, Note_on_c, 0, 71, 68
2, 70760, Note_on_c, 0, 71, 0
2, 70760, Note_on_c, 0, 72, 61
2, 70800, Note_on_c, 0, 72, 0
2, 70800, Note_on_c, 0, 71, 68
2, 71040, Note_on_c, 0, 71, 0
2, 71160, Note_on_c, 0, 84, 72
2, 71280, Note_on_c, 0, 84, 0
2, 71280, Note_on_c, 0, 88, 78
2, 71400, Note_on_c, 0, 88, 0
2, 71400, Note_on_c, 0, 84, 72
2, 71520, Note_on_c, 0, 84, 0
2, 71520, Note_on_c, 0, 83, 77
2, 71640, Note_on_c, 0, 83, 0
2, 71640, Note_on_c, 0, 81, 69
2, 71760, Note_on_c, 0, 81, 0
2, 71760, Note_on_c, 0, 79, 76
2, 71880, Note_on_c, 0, 79, 0
2, 71880, Note_on_c, 0, 77, 67
2, 72000, Note_on_c, 0, 77, 0
2, 72000, Note_on_c, 0, 76, 75
2, 72480, Note_on_c, 0, 76, 0
2, 72480, Note_on_c, 0, 74, 68
2, 72520, Note_on_c, 0, 74, 0
2, 72520, Note_on_c, 0, 76, 60
2, 72560, Note_on_c, 0, 76, 0
2, 72560, Note_on_c, 0, 74, 68
2, 72600, Note_on_c, 0, 74, 0
2, 72600, Note_on_c, 0, 76, 61
2, 72640, Note_on_c, 0, 76, 0
2, 72640, Note_on_c, 0, 74, 68
2, 72680, Note_on_c, 0, 74, 0
2, 72680, Note_on_c, 0, 76, 61
2, 72714, Note_on_c, 0, 74, 68
2, 72720, Note_on_c, 0, 76, 0
2, 72754, Note_on_c, 0, 74, 0
2, 72755, Note_on_c, 0, 76, 60
2, 72794, Note_on_c, 0, 74, 68
2, 72795, Note_on_c, 0, 76, 0
2, 72834, Note_on_c, 0, 74, 0
2, 72837, Note_on_c, 0, 72, 63
2, 72897, Note_on_c, 0, 72, 0
2, 72897, Note_on_c, 0, 74, 62
2, 72957, Note_on_c, 0, 74, 0
2, 72960, Note_on_c, 0, 72, 68
2, 73080, Note_on_c, 0, 72, 0
2, 73200, Note_on_c, 0, 76, 48
2, 73200, Note_on_c, 0, 72, 40
2, 73320, Note_on_c, 0, 72, 0
2, 73320, Note_on_c, 0, 76, 0
2, 73440, Note_on_c, 0, 76, 48
2, 73440, Note_on_c, 0, 72, 40
2, 73560, Note_on_c, 0, 72, 0
2, 73560, Note_on_c, 0, 76, 0
2, 73680, Note_on_c, 0, 76, 48
2, 73680, Note_on_c, 0, 72, 40
2, 73800, Note_on_c, 0, 72, 0
2, 73800, Note_on_c, 0, 76, 0
2, 73920, Note_on_c, 0, 77, 52
2, 73920, Note_on_c, 0, 72, 44
2, 73980, Note_on_c, 0, 77, 0
2, 73980, Note_on_c, 0, 76, 47
2, 74040, Note_on_c, 0, 76, 0
2, 74040, Note_on_c, 0, 74, 47
2, 74100, Note_on_c, 0, 74, 0
2, 74100, Note_on_c, 0, 76, 48
2, 74160, Note_on_c, 0, 76, 0
2, 74160, Note_on_c, 0, 72, 0
2, 74160, Note_on_c, 0, 76, 44
2, 74160, Note_on_c, 0, 79, 52
2, 74400, Note_on_c, 0, 79, 0
2, 74400, Note_on_c, 0, 76, 0
2, 74400, Note_on_c, 0, 76, 60
2, 74400, Note_on_c, 0, 72, 51
2, 74640, Note_on_c, 0, 72, 0
2, 74640, Note_on_c, 0, 76, 0
2, 74640, Note_on_c, 0, 72, 66
2, 74640, Note_on_c, 0, 69, 55
2, 74880, Note_on_c, 0, 69, 0
2, 74880, Note_on_c, 0, 72, 0
2, 74880, Note_on_c, 0, 65, 60
2, 74880, Note_on_c, 0, 69, 72
2, 75480, Note_on_c, 0, 69, 0
2, 75480, Note_on_c, 0, 65, 0
2, 75480, Note_on_c, 0, 69, 58
2, 75480, Note_on_c, 0, 65, 49
2, 75600, Note_on_c, 0, 65, 0
2, 75600, Note_on_c, 0, 69, 0
2, 75600, Note_on_c, 0, 67, 49
2, 75600, Note_on_c, 0, 71, 58
2, 75720, Note_on_c, 0, 71, 0
2, 75720, Note_on_c, 0, 67, 0
2, 75720, Note_on_c, 0, 69, 49
2, 75720, Note_on_c, 0, 72, 58
2, 75828, Note_on_c, 0, 72, 0
2, 75828, Note_on_c, 0, 69, 0
2, 75840, Note_on_c, 0, 72, 63
2, 75840, Note_on_c, 0, 69, 53
2, 75960, Note_on_c, 0, 69, 0
2, 75960, Note_on_c, 0, 72, 0
2, 75960, Note_on_c, 0, 67, 50
2, 75960, Note_on_c, 0, 71, 59
2, 76080, Note_on_c, 0, 71, 0
2, 76080, Note_on_c, 0, 67, 0
2, 76080, Note_on_c, 0, 65, 50
2, 76080, Note_on_c, 0, 69, 59
2, 76200, Note_on_c, 0, 69, 0
2, 76200, Note_on_c, 0, 65, 0
2, 76200, Note_on_c, 0, 64, 50
2, 76200, Note_on_c, 0, 67, 59
2, 76308, Note_on_c, 0, 67, 0
2, 76308, Note_on_c, 0, 64, 0
2, 76320, Note_on_c, 0, 64, 53
2, 76320, Note_on_c, 0, 67, 63
2, 76440, Note_on_c, 0, 67, 0
2, 76440, Note_on_c, 0, 64, 0
2, 76440, Note_on_c, 0, 65, 53
2, 76440, Note_on_c, 0, 62, 45
2, 76560, Note_on_c, 0, 62, 0
2, 76560, Note_on_c, 0, 65, 0
2, 76560, Note_on_c, 0, 64, 53
2, 76560, Note_on_c, 0, 60, 45
2, 76680, Note_on_c, 0, 60, 0
2, 76680, Note_on_c, 0, 64, 0
2, 76680, Note_on_c, 0, 59, 45
2, 76680, Note_on_c, 0, 62, 53
2, 76788, Note_on_c, 0, 62, 0
2, 76788, Note_on_c, 0, 59, 0
2, 77040, Note_on_c, 0, 72, 63
2, 77120, Note_on_c, 0, 72, 0
2, 77120, Note_on_c, 0, 76, 57
2, 77200, Note_on_c, 0, 76, 0
2, 77200, Note_on_c, 0, 84, 57
2, 77280, Note_on_c, 0, 84, 0
2, 77280, Note_on_c, 0, 72, 63
2, 77360, Note_on_c, 0, 72, 0
2, 77360, Note_on_c, 0, 76, 55
2, 77440, Note_on_c, 0, 76, 0
2, 77440, Note_on_c, 0, 84, 55
2, 77520, Note_on_c, 0, 84, 0
2, 77520, Note_on_c, 0, 72, 63
2, 77600, Note_on_c, 0, 72, 0
2, 77600, Note_on_c, 0, 76, 55
2, 77680, Note_on_c, 0, 76, 0
2, 77680, Note_on_c, 0, 84, 55
2, 77760, Note_on_c, 0, 84, 0
2, 77760, Note_on_c, 0, 72, 69
2, 77840, Note_on_c, 0, 72, 0
2, 77840, Note_on_c, 0, 76, 59
2, 77920, Note_on_c, 0, 76, 0
2, 77920, Note_on_c, 0, 84, 61
2, 78000, Note_on_c, 0, 84, 0
2, 78000, Note_on_c, 0, 76, 72
2, 78080, Note_on_c, 0, 76, 0
2, 78080, Note_on_c, 0, 79, 64
2, 78160, Note_on_c, 0, 79, 0
2, 78160, Note_on_c, 0, 88, 66
2, 78240, Note_on_c, 0, 88, 0
2, 78240, Note_on_c, 0, 72, 75
2, 78320, Note_on_c, 0, 72, 0
2, 78320, Note_on_c, 0, 76, 66
2, 78400, Note_on_c, 0, 76, 0
2, 78400, Note_on_c, 0, 84, 69
2, 78480, Note_on_c, 0, 84, 0
2, 78480, Note_on_c, 0, 69, 80
2, 78560, Note_on_c, 0, 69, 0
2, 78560, Note_on_c, 0, 72, 69
2, 78640, Note_on_c, 0, 72, 0
2, 78640, Note_on_c, 0, 81, 71
2, 78720, Note_on_c, 0, 81, 0
2, 78720, Note_on_c, 0, 65, 81
2, 79320, Note_on_c, 0, 65, 0
2, 79320, Note_on_c, 0, 72, 66
2, 79320, Note_on_c, 0, 69, 56
2, 79440, Note_on_c, 0, 69, 0
2, 79440, Note_on_c, 0, 72, 0
2, 79440, Note_on_c, 0, 67, 57
2, 79440, Note_on_c, 0, 71, 68
2, 79560, Note_on_c, 0, 71, 0
2, 79560, Note_on_c, 0, 67, 0
2, 79560, Note_on_c, 0, 69, 63
2, 79560, Note_on_c, 0, 65, 53
2, 79668, Note_on_c, 0, 65, 0
2, 79668, Note_on_c, 0, 69, 0
2, 79680, Note_on_c, 0, 69, 67
2, 79680, Note_on_c, 0, 65, 56
2, 79800, Note_on_c, 0, 65, 0
2, 79800, Note_on_c, 0, 69, 0
2, 79800, Note_on_c, 0, 67, 65
2, 79800, Note_on_c, 0, 64, 55
2, 79920, Note_on_c, 0, 64, 0
2, 79920, Note_on_c, 0, 67, 0
2, 79920, Note_on_c, 0, 62, 53
2, 79920, Note_on_c, 0, 65, 63
2, 80040, Note_on_c, 0, 65, 0
2, 80040, Note_on_c, 0, 62, 0
2, 80040, Note_on_c, 0, 60, 51
2, 80040, Note_on_c, 0, 64, 61
2, 80148, Note_on_c, 0, 64, 0
2, 80148, Note_on_c, 0, 60, 0
2, 80160, Note_on_c, 0, 64, 63
2, 80280, Note_on_c, 0, 64, 0
2, 80280, Note_on_c, 0, 62, 56
2, 80400, Note_on_c, 0, 62, 0
2, 80400, Note_on_c, 0, 60, 56
2, 80520, Note_on_c, 0, 60, 0
2, 80520, Note_on_c, 0, 59, 56
2, 80520, Note_on_c, 0, 53, 47
2, 80628, Note_on_c, 0, 53, 0
2, 80628, Note_on_c, 0, 59, 0
2, 80640, Note_on_c, 0, 59, 59
2, 80640, Note_on_c, 0, 53, 59
2, 81555, Note_on_c, 0, 53, 0
2, 81555, Note_on_c, 0, 59, 0
2, 81600, Note_on_c, 0, 55, 52
2, 81600, Note_on_c, 0, 52, 52
2, 81600, Note_on_c, 0, 60, 52
2, 81840, Note_on_c, 0, 60, 0
2, 81840, Note_on_c, 0, 52, 0
2, 81840, Note_on_c, 0, 55, 0
2, 82560, Note_on_c, 0, 72, 60
2, 82560, Note_on_c, 0, 67, 51
2, 82560, Note_on_c, 0, 64, 51
2, 82680, Note_on_c, 0, 64, 0
2, 82680, Note_on_c, 0, 67, 0
2, 82920, Note_on_c, 0, 72, 0
2, 82920, Note_on_c, 0, 67, 56
2, 83040, Note_on_c, 0, 67, 0
2, 83040, Note_on_c, 0, 77, 60
2, 83160, Note_on_c, 0, 77, 0
2, 83160, Note_on_c, 0, 76, 54
2, 83280, Note_on_c, 0, 76, 0
2, 83280, Note_on_c, 0, 74, 54
2, 83400, Note_on_c, 0, 74, 0
2, 83400, Note_on_c, 0, 72, 54
2, 83520, Note_on_c, 0, 72, 0
2, 83520, Note_on_c, 0, 79, 60
2, 83640, Note_on_c, 0, 79, 0
2, 84480, Note_on_c, 0, 77, 60
2, 84840, Note_on_c, 0, 77, 0
2, 84840, Note_on_c, 0, 72, 56
2, 84960, Note_on_c, 0, 72, 0
2, 84960, Note_on_c, 0, 82, 60
2, 85080, Note_on_c, 0, 82, 0
2, 85080, Note_on_c, 0, 81, 54
2, 85200, Note_on_c, 0, 81, 0
2, 85200, Note_on_c, 0, 79, 54
2, 85320, Note_on_c, 0, 79, 0
2, 85320, Note_on_c, 0, 77, 54
2, 85440, Note_on_c, 0, 77, 0
2, 85440, Note_on_c, 0, 84, 60
2, 85560, Note_on_c, 0, 84, 0
2, 86280, Note_on_c, 0, 83, 60
2, 86320, Note_on_c, 0, 83, 0
2, 86320, Note_on_c, 0, 84, 62
2, 86360, Note_on_c, 0, 84, 0
2, 86361, Note_on_c, 0, 86, 64
2, 86400, Note_on_c, 0, 84, 67
2, 86401, Note_on_c, 0, 86, 0
2, 87240, Note_on_c, 0, 84, 0
2, 87240, Note_on_c, 0, 82, 60
2, 87280, Note_on_c, 0, 82, 0
2, 87280, Note_on_c, 0, 81, 60
2, 87320, Note_on_c, 0, 81, 0
2, 87321, Note_on_c, 0, 79, 60
2, 87360, Note_on_c, 0, 78, 68
2, 87361, Note_on_c, 0, 79, 0
2, 87480, Note_on_c, 0, 78, 0
2, 87480, Note_on_c, 0, 75, 63
2, 87600, Note_on_c, 0, 75, 0
2, 87600, Note_on_c, 0, 74, 63
2, 87720, Note_on_c, 0, 74, 0
2, 87720, Note_on_c, 0, 72, 64
2, 87840, Note_on_c, 0, 72, 0
2, 87840, Note_on_c, 0, 70, 68
2, 87960, Note_on_c, 0, 70, 0
2, 87960, Note_on_c, 0, 69, 70
2, 88080, Note_on_c, 0, 69, 0
2, 88080, Note_on_c, 0, 67, 71
2, 88200, Note_on_c, 0, 67, 0
2, 88200, Note_on_c, 0, 66, 73
2, 88320, Note_on_c, 0, 66, 0
2, 88320, Note_on_c, 0, 67, 74
2, 88437, Note_on_c, 0, 67, 0
2, 88560, Note_on_c, 0, 70, 77
2, 88680, Note_on_c, 0, 70, 0
2, 88800, Note_on_c, 0, 74, 82
2, 88920, Note_on_c, 0, 74, 0
2, 89040, Note_on_c, 0, 79, 84
2, 89160, Note_on_c, 0, 79, 0
2, 89280, Note_on_c, 0, 82, 86
2, 89400, Note_on_c, 0, 82, 0
2, 90240, Note_on_c, 0, 86, 90
2, 90360, Note_on_c, 0, 86, 0
2, 90480, Note_on_c, 0, 86, 90
2, 90960, Note_on_c, 0, 86, 0
2, 90960, Note_on_c, 0, 84, 72
2, 91020, Note_on_c, 0, 84, 0
2, 91020, Note_on_c, 0, 82, 73
2, 91080, Note_on_c, 0, 82, 0
2, 91080, Note_on_c, 0, 81, 74
2, 91140, Note_on_c, 0, 81, 0
2, 91140, Note_on_c, 0, 79, 74
2, 91200, Note_on_c, 0, 79, 0
2, 91200, Note_on_c, 0, 84, 84
2, 91320, Note_on_c, 0, 84, 0
2, 91440, Note_on_c, 0, 84, 84
2, 91920, Note_on_c, 0, 84, 0
2, 91920, Note_on_c, 0, 82, 70
2, 91980, Note_on_c, 0, 82, 0
2, 91980, Note_on_c, 0, 81, 72
2, 92040, Note_on_c, 0, 81, 0
2, 92040, Note_on_c, 0, 79, 73
2, 92100, Note_on_c, 0, 79, 0
2, 92100, Note_on_c, 0, 77, 75
2, 92160, Note_on_c, 0, 77, 0
2, 92160, Note_on_c, 0, 84, 77
2, 92280, Note_on_c, 0, 84, 0
2, 92280, Note_on_c, 0, 82, 68
2, 92370, Note_on_c, 0, 82, 0
2, 92400, Note_on_c, 0, 82, 72
2, 92520, Note_on_c, 0, 82, 0
2, 92520, Note_on_c, 0, 81, 67
2, 92610, Note_on_c, 0, 81, 0
2, 92640, Note_on_c, 0, 81, 72
2, 92880, Note_on_c, 0, 81, 0
2, 93120, Note_on_c, 0, 84, 61
2, 93240, Note_on_c, 0, 84, 0
2, 93240, Note_on_c, 0, 82, 57
2, 93330, Note_on_c, 0, 82, 0
2, 93360, Note_on_c, 0, 82, 61
2, 93480, Note_on_c, 0, 82, 0
2, 93480, Note_on_c, 0, 81, 54
2, 93570, Note_on_c, 0, 81, 0
2, 93600, Note_on_c, 0, 81, 60
2, 93840, Note_on_c, 0, 81, 0
2, 94080, Note_on_c, 0, 84, 69
2, 94110, Note_on_c, 0, 84, 0
2, 94110, Note_on_c, 0, 86, 63
2, 94140, Note_on_c, 0, 86, 0
2, 94140, Note_on_c, 0, 84, 69
2, 94170, Note_on_c, 0, 84, 0
2, 94170, Note_on_c, 0, 86, 61
2, 94200, Note_on_c, 0, 86, 0
2, 94200, Note_on_c, 0, 82, 68
2, 94290, Note_on_c, 0, 82, 0
2, 94320, Note_on_c, 0, 82, 68
2, 94350, Note_on_c, 0, 82, 0
2, 94350, Note_on_c, 0, 84, 61
2, 94380, Note_on_c, 0, 84, 0
2, 94380, Note_on_c, 0, 82, 68
2, 94410, Note_on_c, 0, 82, 0
2, 94410, Note_on_c, 0, 84, 62
2, 94440, Note_on_c, 0, 84, 0
2, 94440, Note_on_c, 0, 81, 67
2, 94530, Note_on_c, 0, 81, 0
2, 94560, Note_on_c, 0, 81, 72
2, 94800, Note_on_c, 0, 81, 0
2, 95010, Note_on_c, 0, 82, 62
2, 95040, Note_on_c, 0, 82, 0
2, 95040, Note_on_c, 0, 81, 70
2, 95160, Note_on_c, 0, 81, 0
2, 95160, Note_on_c, 0, 79, 65
2, 95250, Note_on_c, 0, 79, 0
2, 95250, Note_on_c, 0, 81, 62
2, 95280, Note_on_c, 0, 81, 0
2, 95280, Note_on_c, 0, 79, 70
2, 95400, Note_on_c, 0, 79, 0
2, 95400, Note_on_c, 0, 77, 62
2, 95520, Note_on_c, 0, 77, 0
2, 95520, Note_on_c, 0, 77, 69
2, 95760, Note_on_c, 0, 77, 0
2, 96000, Note_on_c, 0, 77, 65
2, 96120, Note_on_c, 0, 77, 0
2, 96120, Note_on_c, 0, 76, 57
2, 96240, Note_on_c, 0, 76, 0
2, 96240, Note_on_c, 0, 74, 61
2, 96360, Note_on_c, 0, 74, 0
2, 96360, Note_on_c, 0, 72, 54
2, 96450, Note_on_c, 0, 72, 0
2, 96480, Note_on_c, 0, 72, 60
2, 96720, Note_on_c, 0, 72, 0
2, 96720, Note_on_c, 0, 72, 54
2, 96960, Note_on_c, 0, 72, 0
2, 96960, Note_on_c, 0, 74, 54
2, 97020, Note_on_c, 0, 74, 0
2, 97020, Note_on_c, 0, 72, 54
2, 97080, Note_on_c, 0, 72, 0
2, 97080, Note_on_c, 0, 71, 54
2, 97140, Note_on_c, 0, 71, 0
2, 97140, Note_on_c, 0, 72, 60
2, 97340, Note_on_c, 0, 72, 0
2, 97920, Note_on_c, 0, 72, 60
2, 98400, Note_on_c, 0, 72, 0
2, 98400, Note_on_c, 0, 70, 55
2, 98520, Note_on_c, 0, 70, 0
2, 98520, Note_on_c, 0, 69, 50
2, 98640, Note_on_c, 0, 69, 0
2, 98640, Note_on_c, 0, 67, 55
2, 98760, Note_on_c, 0, 67, 0
2, 98760, Note_on_c, 0, 65, 49
2, 98850, Note_on_c, 0, 65, 0
2, 98880, Note_on_c, 0, 65, 55
2, 99360, Note_on_c, 0, 65, 0
2, 99360, Note_on_c, 0, 64, 55
2, 99420, Note_on_c, 0, 64, 0
2, 99420, Note_on_c, 0, 65, 51
2, 99480, Note_on_c, 0, 65, 0
2, 99480, Note_on_c, 0, 64, 57
2, 99720, Note_on_c, 0, 64, 0
2, 99720, Note_on_c, 0, 64, 51
2, 99840, Note_on_c, 0, 64, 0
2, 99840, Note_on_c, 0, 65, 55
2, 99960, Note_on_c, 0, 65, 0
2, 99960, Note_on_c, 0, 67, 52
2, 100080, Note_on_c, 0, 67, 0
2, 100080, Note_on_c, 0, 69, 54
2, 100200, Note_on_c, 0, 69, 0
2, 100200, Note_on_c, 0, 70, 55
2, 100320, Note_on_c, 0, 70, 0
2, 100320, Note_on_c, 0, 72, 59
2, 100440, Note_on_c, 0, 72, 0
2, 100440, Note_on_c, 0, 74, 61
2, 100560, Note_on_c, 0, 74, 0
2, 100560, Note_on_c, 0, 76, 64
2, 100680, Note_on_c, 0, 76, 0
2, 100680, Note_on_c, 0, 77, 66
2, 100770, Note_on_c, 0, 77, 0
2, 100800, Note_on_c, 0, 77, 66
2, 100920, Note_on_c, 0, 77, 0
2, 100920, Note_on_c, 0, 76, 64
2, 101040, Note_on_c, 0, 76, 0
2, 101040, Note_on_c, 0, 74, 61
2, 101100, Note_on_c, 0, 74, 0
2, 101160, Note_on_c, 0, 72, 59
2, 101220, Note_on_c, 0, 72, 0
2, 101280, Note_on_c, 0, 72, 57
2, 101400, Note_on_c, 0, 72, 0
2, 101400, Note_on_c, 0, 70, 55
2, 101520, Note_on_c, 0, 70, 0
2, 101520, Note_on_c, 0, 69, 52
2, 101580, Note_on_c, 0, 69, 0
2, 101640, Note_on_c, 0, 67, 50
2, 101700, Note_on_c, 0, 67, 0
2, 101760, Note_on_c, 0, 84, 72
2, 102120, Note_on_c, 0, 84, 0
2, 102120, Note_on_c, 0, 86, 64
2, 102180, Note_on_c, 0, 86, 0
2, 102180, Note_on_c, 0, 84, 60
2, 102240, Note_on_c, 0, 84, 0
2, 102240, Note_on_c, 0, 82, 68
2, 102360, Note_on_c, 0, 82, 0
2, 102360, Note_on_c, 0, 81, 60
2, 102480, Note_on_c, 0, 81, 0
2, 102480, Note_on_c, 0, 79, 62
2, 102600, Note_on_c, 0, 79, 0
2, 102600, Note_on_c, 0, 77, 60
2, 102690, Note_on_c, 0, 77, 0
2, 102720, Note_on_c, 0, 77, 70
2, 103200, Note_on_c, 0, 77, 0
2, 103200, Note_on_c, 0, 76, 60
2, 103260, Note_on_c, 0, 76, 0
2, 103260, Note_on_c, 0, 77, 56
2, 103320, Note_on_c, 0, 77, 0
2, 103320, Note_on_c, 0, 76, 60
2, 103560, Note_on_c, 0, 76, 0
2, 103560, Note_on_c, 0, 82, 57
2, 103680, Note_on_c, 0, 82, 0
2, 103680, Note_on_c, 0, 81, 66
2, 103740, Note_on_c, 0, 81, 0
2, 103800, Note_on_c, 0, 82, 60
2, 103860, Note_on_c, 0, 82, 0
2, 103920, Note_on_c, 0, 84, 66
2, 103980, Note_on_c, 0, 84, 0
2, 104040, Note_on_c, 0, 86, 67
2, 104100, Note_on_c, 0, 86, 0
2, 104160, Note_on_c, 0, 88, 77
2, 104220, Note_on_c, 0, 88, 0
2, 104280, Note_on_c, 0, 89, 71
2, 104340, Note_on_c, 0, 89, 0
2, 104400, Note_on_c, 0, 88, 74
2, 104460, Note_on_c, 0, 88, 0
2, 104520, Note_on_c, 0, 89, 72
2, 104580, Note_on_c, 0, 89, 0
2, 104640, Note_on_c, 0, 89, 80
2, 104760, Note_on_c, 0, 89, 0
2, 104760, Note_on_c, 0, 88, 72
2, 104880, Note_on_c, 0, 88, 0
2, 104880, Note_on_c, 0, 86, 73
2, 105000, Note_on_c, 0, 86, 0
2, 105000, Note_on_c, 0, 84, 70
2, 105090, Note_on_c, 0, 84, 0
2, 105120, Note_on_c, 0, 84, 75
2, 105240, Note_on_c, 0, 84, 0
2, 105240, Note_on_c, 0, 82, 70
2, 105360, Note_on_c, 0, 82, 0
2, 105360, Note_on_c, 0, 81, 68
2, 105480, Note_on_c, 0, 81, 0
2, 105480, Note_on_c, 0, 79, 67
2, 105600, Note_on_c, 0, 79, 0
2, 105600, Note_on_c, 0, 81, 68
2, 105720, Note_on_c, 0, 81, 0
2, 105720, Note_on_c, 0, 82, 68
2, 105840, Note_on_c, 0, 82, 0
2, 105840, Note_on_c, 0, 81, 75
2, 105960, Note_on_c, 0, 81, 0
2, 105960, Note_on_c, 0, 82, 74
2, 106080, Note_on_c, 0, 82, 0
2, 106080, Note_on_c, 0, 84, 83
2, 106200, Note_on_c, 0, 84, 0
2, 106200, Note_on_c, 0, 86, 81
2, 106320, Note_on_c, 0, 86, 0
2, 106320, Note_on_c, 0, 84, 91
2, 106440, Note_on_c, 0, 84, 0
2, 106440, Note_on_c, 0, 86, 85
2, 106560, Note_on_c, 0, 86, 0
2, 106560, Note_on_c, 0, 87, 97
2, 106560, Note_on_c, 0, 75, 82
2, 107520, Note_on_c, 0, 75, 0
2, 107520, Note_on_c, 0, 87, 0
2, 107640, Note_on_c, 0, 86, 70
2, 107760, Note_on_c, 0, 86, 0
2, 107760, Note_on_c, 0, 85, 75
2, 107880, Note_on_c, 0, 85, 0
2, 107880, Note_on_c, 0, 86, 68
2, 108000, Note_on_c, 0, 86, 0
2, 108120, Note_on_c, 0, 84, 67
2, 108240, Note_on_c, 0, 84, 0
2, 108240, Note_on_c, 0, 83, 76
2, 108360, Note_on_c, 0, 83, 0
2, 108360, Note_on_c, 0, 84, 67
2, 108480, Note_on_c, 0, 84, 0
2, 108600, Note_on_c, 0, 83, 70
2, 108720, Note_on_c, 0, 83, 0
2, 108720, Note_on_c, 0, 83, 69
2, 108780, Note_on_c, 0, 83, 0
2, 108780, Note_on_c, 0, 84, 63
2, 108840, Note_on_c, 0, 84, 0
2, 108840, Note_on_c, 0, 83, 68
2, 108960, Note_on_c, 0, 83, 0
2, 109080, Note_on_c, 0, 82, 72
2, 109200, Note_on_c, 0, 82, 0
2, 109200, Note_on_c, 0, 82, 72
2, 109260, Note_on_c, 0, 82, 0
2, 109260, Note_on_c, 0, 84, 65
2, 109320, Note_on_c, 0, 84, 0
2, 109320, Note_on_c, 0, 82, 75
2, 109440, Note_on_c, 0, 82, 0
2, 109560, Note_on_c, 0, 81, 67
2, 109680, Note_on_c, 0, 81, 0
2, 109680, Note_on_c, 0, 82, 70
2, 109800, Note_on_c, 0, 82, 0
2, 109800, Note_on_c, 0, 84, 72
2, 109890, Note_on_c, 0, 84, 0
2, 109920, Note_on_c, 0, 84, 72
2, 110040, Note_on_c, 0, 84, 0
2, 110040, Note_on_c, 0, 74, 66
2, 110160, Note_on_c, 0, 74, 0
2, 110160, Note_on_c, 0, 82, 72
2, 110280, Note_on_c, 0, 82, 0
2, 110280, Note_on_c, 0, 79, 65
2, 110400, Note_on_c, 0, 79, 0
2, 110400, Note_on_c, 0, 77, 72
2, 110880, Note_on_c, 0, 77, 0
2, 110880, Note_on_c, 0, 76, 68
2, 110920, Note_on_c, 0, 76, 0
2, 110920, Note_on_c, 0, 77, 60
2, 110960, Note_on_c, 0, 77, 0
2, 110960, Note_on_c, 0, 76, 68
2, 111000, Note_on_c, 0, 76, 0
2, 111000, Note_on_c, 0, 77, 61
2, 111040, Note_on_c, 0, 77, 0
2, 111040, Note_on_c, 0, 76, 68
2, 111080, Note_on_c, 0, 76, 0
2, 111080, Note_on_c, 0, 77, 61
2, 111120, Note_on_c, 0, 77, 0
2, 111120, Note_on_c, 0, 76, 68
2, 111360, Note_on_c, 0, 76, 0
2, 111480, Note_on_c, 0, 84, 72
2, 111600, Note_on_c, 0, 84, 0
2, 111600, Note_on_c, 0, 81, 75
2, 111720, Note_on_c, 0, 81, 0
2, 111720, Note_on_c, 0, 77, 67
2, 111840, Note_on_c, 0, 77, 0
2, 111840, Note_on_c, 0, 75, 77
2, 111960, Note_on_c, 0, 75, 0
2, 111960, Note_on_c, 0, 74, 69
2, 112080, Note_on_c, 0, 74, 0
2, 112080, Note_on_c, 0, 85, 82
2, 112200, Note_on_c, 0, 85, 0
2, 112200, Note_on_c, 0, 86, 76
2, 112320, Note_on_c, 0, 86, 0
2, 112320, Note_on_c, 0, 77, 75
2, 112800, Note_on_c, 0, 77, 0
2, 112800, Note_on_c, 0, 79, 68
2, 112840, Note_on_c, 0, 79, 0
2, 112840, Note_on_c, 0, 81, 60
2, 112880, Note_on_c, 0, 81, 0
2, 112880, Note_on_c, 0, 79, 68
2, 112920, Note_on_c, 0, 79, 0
2, 112920, Note_on_c, 0, 81, 61
2, 112960, Note_on_c, 0, 81, 0
2, 112960, Note_on_c, 0, 79, 68
2, 113000, Note_on_c, 0, 79, 0
2, 113000, Note_on_c, 0, 81, 61
2, 113034, Note_on_c, 0, 79, 68
2, 113040, Note_on_c, 0, 81, 0
2, 113074, Note_on_c, 0, 79, 0
2, 113075, Note_on_c, 0, 81, 60
2, 113114, Note_on_c, 0, 79, 68
2, 113115, Note_on_c, 0, 81, 0
2, 113154, Note_on_c, 0, 79, 0
2, 113157, Note_on_c, 0, 77, 63
2, 113217, Note_on_c, 0, 77, 0
2, 113217, Note_on_c, 0, 79, 62
2, 113277, Note_on_c, 0, 79, 0
2, 113280, Note_on_c, 0, 77, 68
2, 113400, Note_on_c, 0, 77, 0
2, 113520, Note_on_c, 0, 65, 40
2, 113520, Note_on_c, 0, 69, 48
2, 113640, Note_on_c, 0, 69, 0
2, 113640, Note_on_c, 0, 65, 0
2, 113760, Note_on_c, 0, 69, 48
2, 113760, Note_on_c, 0, 65, 40
2, 113880, Note_on_c, 0, 65, 0
2, 113880, Note_on_c, 0, 69, 0
2, 114000, Note_on_c, 0, 65, 40
2, 114000, Note_on_c, 0, 69, 48
2, 114120, Note_on_c, 0, 69, 0
2, 114120, Note_on_c, 0, 65, 0
2, 114240, Note_on_c, 0, 70, 52
2, 114240, Note_on_c, 0, 65, 44
2, 114300, Note_on_c, 0, 70, 0
2, 114300, Note_on_c, 0, 69, 47
2, 114360, Note_on_c, 0, 69, 0
2, 114360, Note_on_c, 0, 67, 47
2, 114420, Note_on_c, 0, 67, 0
2, 114420, Note_on_c, 0, 69, 48
2, 114480, Note_on_c, 0, 69, 0
2, 114480, Note_on_c, 0, 65, 0
2, 114480, Note_on_c, 0, 69, 44
2, 114480, Note_on_c, 0, 72, 52
2, 114720, Note_on_c, 0, 72, 0
2, 114720, Note_on_c, 0, 69, 0
2, 114720, Note_on_c, 0, 65, 51
2, 114720, Note_on_c, 0, 69, 60
2, 114960, Note_on_c, 0, 69, 0
2, 114960, Note_on_c, 0, 65, 0
2, 114960, Note_on_c, 0, 62, 55
2, 114960, Note_on_c, 0, 65, 66
2, 115200, Note_on_c, 0, 65, 0
2, 115200, Note_on_c, 0, 62, 0
2, 115200, Note_on_c, 0, 62, 72
2, 115200, Note_on_c, 0, 58, 60
2, 115800, Note_on_c, 0, 58, 0
2, 115800, Note_on_c, 0, 62, 0
2, 115800, Note_on_c, 0, 62, 58
2, 115800, Note_on_c, 0, 58, 49
2, 115920, Note_on_c, 0, 58, 0
2, 115920, Note_on_c, 0, 62, 0
2, 115920, Note_on_c, 0, 64, 58
2, 115920, Note_on_c, 0, 60, 49
2, 116040, Note_on_c, 0, 60, 0
2, 116040, Note_on_c, 0, 64, 0
2, 116040, Note_on_c, 0, 65, 58
2, 116040, Note_on_c, 0, 62, 49
2, 116148, Note_on_c, 0, 62, 0
2, 116148, Note_on_c, 0, 65, 0
2, 116160, Note_on_c, 0, 62, 53
2, 116160, Note_on_c, 0, 65, 63
2, 116280, Note_on_c, 0, 65, 0
2, 116280, Note_on_c, 0, 62, 0
2, 116280, Note_on_c, 0, 60, 50
2, 116280, Note_on_c, 0, 64, 59
2, 116400, Note_on_c, 0, 64, 0
2, 116400, Note_on_c, 0, 60, 0
2, 116400, Note_on_c, 0, 62, 59
2, 116400, Note_on_c, 0, 58, 50
2, 116520, Note_on_c, 0, 58, 0
2, 116520, Note_on_c, 0, 62, 0
2, 116520, Note_on_c, 0, 60, 59
2, 116520, Note_on_c, 0, 57, 50
2, 116628, Note_on_c, 0, 57, 0
2, 116628, Note_on_c, 0, 60, 0
2, 116640, Note_on_c, 0, 57, 53
2, 116640, Note_on_c, 0, 60, 63
2, 116760, Note_on_c, 0, 60, 0
2, 116760, Note_on_c, 0, 57, 0
2, 116760, Note_on_c, 0, 55, 45
2, 116760, Note_on_c, 0, 58, 53
2, 116880, Note_on_c, 0, 58, 0
2, 116880, Note_on_c, 0, 55, 0
2, 116880, Note_on_c, 0, 53, 45
2, 116880, Note_on_c, 0, 57, 53
2, 117000, Note_on_c, 0, 57, 0
2, 117000, Note_on_c, 0, 53, 0
2, 117000, Note_on_c, 0, 52, 45
2, 117000, Note_on_c, 0, 55, 53
2, 117120, Note_on_c, 0, 55, 0
2, 117120, Note_on_c, 0, 52, 0
2, 117360, Note_on_c, 0, 65, 50
2, 117440, Note_on_c, 0, 65, 0
2, 117440, Note_on_c, 0, 69, 46
2, 117520, Note_on_c, 0, 69, 0
2, 117520, Note_on_c, 0, 77, 46
2, 117600, Note_on_c, 0, 77, 0
2, 117600, Note_on_c, 0, 65, 52
2, 117680, Note_on_c, 0, 65, 0
2, 117680, Note_on_c, 0, 69, 46
2, 117760, Note_on_c, 0, 69, 0
2, 117760, Note_on_c, 0, 77, 46
2, 117840, Note_on_c, 0, 77, 0
2, 117840, Note_on_c, 0, 65, 54
2, 117920, Note_on_c, 0, 65, 0
2, 117920, Note_on_c, 0, 69, 47
2, 118000, Note_on_c, 0, 69, 0
2, 118000, Note_on_c, 0, 77, 47
2, 118080, Note_on_c, 0, 77, 0
2, 118080, Note_on_c, 0, 65, 60
2, 118160, Note_on_c, 0, 65, 0
2, 118160, Note_on_c, 0, 69, 52
2, 118240, Note_on_c, 0, 69, 0
2, 118240, Note_on_c, 0, 77, 54
2, 118320, Note_on_c, 0, 77, 0
2, 118320, Note_on_c, 0, 69, 65
2, 118400, Note_on_c, 0, 69, 0
2, 118400, Note_on_c, 0, 72, 58
2, 118480, Note_on_c, 0, 72, 0
2, 118480, Note_on_c, 0, 81, 61
2, 118560, Note_on_c, 0, 81, 0
2, 118560, Note_on_c, 0, 65, 69
2, 118640, Note_on_c, 0, 65, 0
2, 118640, Note_on_c, 0, 69, 62
2, 118720, Note_on_c, 0, 69, 0
2, 118720, Note_on_c, 0, 77, 65
2, 118800, Note_on_c, 0, 77, 0
2, 118800, Note_on_c, 0, 62, 76
2, 118880, Note_on_c, 0, 62, 0
2, 118880, Note_on_c, 0, 65, 66
2, 118960, Note_on_c, 0, 65, 0
2, 118960, Note_on_c, 0, 74, 69
2, 119040, Note_on_c, 0, 74, 0
2, 119040, Note_on_c, 0, 58, 80
2, 119640, Note_on_c, 0, 58, 0
2, 119640, Note_on_c, 0, 74, 56
2, 119640, Note_on_c, 0, 77, 66
2, 119760, Note_on_c, 0, 77, 0
2, 119760, Note_on_c, 0, 74, 0
2, 119760, Note_on_c, 0, 76, 68
2, 119760, Note_on_c, 0, 72, 57
2, 119880, Note_on_c, 0, 72, 0
2, 119880, Note_on_c, 0, 76, 0
2, 119880, Note_on_c, 0, 70, 53
2, 119880, Note_on_c, 0, 74, 63
2, 119988, Note_on_c, 0, 74, 0
2, 119988, Note_on_c, 0, 70, 0
2, 120000, Note_on_c, 0, 70, 56
2, 120000, Note_on_c, 0, 74, 67
2, 120120, Note_on_c, 0, 74, 0
2, 120120, Note_on_c, 0, 70, 0
2, 120120, Note_on_c, 0, 69, 55
2, 120120, Note_on_c, 0, 72, 65
2, 120240, Note_on_c, 0, 72, 0
2, 120240, Note_on_c, 0, 69, 0
2, 120240, Note_on_c, 0, 67, 53
2, 120240, Note_on_c, 0, 70, 63
2, 120360, Note_on_c, 0, 70, 0
2, 120360, Note_on_c, 0, 67, 0
2, 120360, Note_on_c, 0, 69, 61
2, 120360, Note_on_c, 0, 65, 51
2, 120468, Note_on_c, 0, 65, 0
2, 120468, Note_on_c, 0, 69, 0
2, 120480, Note_on_c, 0, 69, 63
2, 120600, Note_on_c, 0, 69, 0
2, 120600, Note_on_c, 0, 67, 56
2, 120720, Note_on_c, 0, 67, 0
2, 120720, Note_on_c, 0, 65, 56
2, 120840, Note_on_c, 0, 65, 0
2, 120840, Note_on_c, 0, 58, 47
2, 120840, Note_on_c, 0, 64, 56
2, 120948, Note_on_c, 0, 64, 0
2, 120948, Note_on_c, 0, 58, 0
2, 120960, Note_on_c, 0, 58, 59
2, 120960, Note_on_c, 0, 64, 59
2, 121875, Note_on_c, 0, 64, 0
2, 121875, Note_on_c, 0, 58, 0
2, 121920, Note_on_c, 0, 57, 52
2, 121920, Note_on_c, 0, 65, 52
2, 121920, Note_on_c, 0, 60, 52
2, 122160, Note_on_c, 0, 60, 0
2, 122160, Note_on_c, 0, 65, 0
2, 122160, Note_on_c, 0, 57, 0
2, 122880, Note_on_c, 0, 72, 60
2, 122880, Note_on_c, 0, 67, 51
2, 122880, Note_on_c, 0, 64, 51
2, 123000, Note_on_c, 0, 64, 0
2, 123000, Note_on_c, 0, 67, 0
2, 123240, Note_on_c, 0, 72, 0
2, 123240, Note_on_c, 0, 67, 56
2, 123360, Note_on_c, 0, 67, 0
2, 123360, Note_on_c, 0, 77, 60
2, 123480, Note_on_c, 0, 77, 0
2, 123480, Note_on_c, 0, 76, 54
2, 123600, Note_on_c, 0, 76, 0
2, 123600, Note_on_c, 0, 74, 54
2, 123720, Note_on_c, 0, 74, 0
2, 123720, Note_on_c, 0, 72, 54
2, 123840, Note_on_c, 0, 72, 0
2, 123840, Note_on_c, 0, 79, 60
2, 123960, Note_on_c, 0, 79, 0
2, 124800, Note_on_c, 0, 77, 60
2, 125160, Note_on_c, 0, 77, 0
2, 125160, Note_on_c, 0, 72, 56
2, 125280, Note_on_c, 0, 72, 0
2, 125280, Note_on_c, 0, 82, 60
2, 125400, Note_on_c, 0, 82, 0
2, 125400, Note_on_c, 0, 81, 54
2, 125520, Note_on_c, 0, 81, 0
2, 125520, Note_on_c, 0, 79, 54
2, 125640, Note_on_c, 0, 79, 0
2, 125640, Note_on_c, 0, 77, 54
2, 125760, Note_on_c, 0, 77, 0
2, 125760, Note_on_c, 0, 84, 60
2, 125880, Note_on_c, 0, 84, 0
2, 126600, Note_on_c, 0, 83, 60
2, 126640, Note_on_c, 0, 83, 0
2, 126640, Note_on_c, 0, 84, 62
2, 126680, Note_on_c, 0, 84, 0
2, 126681, Note_on_c, 0, 86, 64
2, 126720, Note_on_c, 0, 84, 67
2, 126721, Note_on_c, 0, 86, 0
2, 127560, Note_on_c, 0, 84, 0
2, 127560, Note_on_c, 0, 82, 60
2, 127600, Note_on_c, 0, 82, 0
2, 127600, Note_on_c, 0, 81, 60
2, 127640, Note_on_c, 0, 81, 0
2, 127641, Note_on_c, 0, 79, 60
2, 127680, Note_on_c, 0, 78, 68
2, 127681, Note_on_c, 0, 79, 0
2, 127800, Note_on_c, 0, 78, 0
2, 127800, Note_on_c, 0, 75, 63
2, 127920, Note_on_c, 0, 75, 0
2, 127920, Note_on_c, 0, 74, 63
2, 128040, Note_on_c, 0, 74, 0
2, 128040, Note_on_c, 0, 72, 64
2, 128160, Note_on_c, 0, 72, 0
2, 128160, Note_on_c, 0, 70, 68
2, 128280, Note_on_c, 0, 70, 0
2, 128280, Note_on_c, 0, 69, 70
2, 128400, Note_on_c, 0, 69, 0
2, 128400, Note_on_c, 0, 67, 71
2, 128520, Note_on_c, 0, 67, 0
2, 128520, Note_on_c, 0, 66, 73
2, 128640, Note_on_c, 0, 66, 0
2, 128640, Note_on_c, 0, 67, 74
2, 128755, Note_on_c, 0, 67, 0
2, 128880, Note_on_c, 0, 70, 77
2, 129000, Note_on_c, 0, 70, 0
2, 129120, Note_on_c, 0, 74, 82
2, 129240, Note_on_c, 0, 74, 0
2, 129360, Note_on_c, 0, 79, 84
2, 129480, Note_on_c, 0, 79, 0
2, 129600, Note_on_c, 0, 82, 86
2, 129720, Note_on_c, 0, 82, 0
2, 130560, Note_on_c, 0, 86, 90
2, 130680, Note_on_c, 0, 86, 0
2, 130800, Note_on_c, 0, 86, 90
2, 131280, Note_on_c, 0, 86, 0
2, 131280, Note_on_c, 0, 84, 72
2, 131340, Note_on_c, 0, 84, 0
2, 131340, Note_on_c, 0, 82, 73
2, 131400, Note_on_c, 0, 82, 0
2, 131400, Note_on_c, 0, 81, 74
2, 131460, Note_on_c, 0, 81, 0
2, 131460, Note_on_c, 0, 79, 74
2, 131520, Note_on_c, 0, 79, 0
2, 131520, Note_on_c, 0, 84, 84
2, 131640, Note_on_c, 0, 84, 0
2, 131760, Note_on_c, 0, 84, 84
2, 132240, Note_on_c, 0, 84, 0
2, 132240, Note_on_c, 0, 82, 70
2, 132300, Note_on_c, 0, 82, 0
2, 132300, Note_on_c, 0, 81, 72
2, 132360, Note_on_c, 0, 81, 0
2, 132360, Note_on_c, 0, 79, 73
2, 132420, Note_on_c, 0, 79, 0
2, 132420, Note_on_c, 0, 77, 75
2, 132480, Note_on_c, 0, 77, 0
2, 132480, Note_on_c, 0, 84, 77
2, 132600, Note_on_c, 0, 84, 0
2, 132600, Note_on_c, 0, 82, 68
2, 132690, Note_on_c, 0, 82, 0
2, 132720, Note_on_c, 0, 82, 72
2, 132840, Note_on_c, 0, 82, 0
2, 132840, Note_on_c, 0, 81, 67
2, 132930, Note_on_c, 0, 81, 0
2, 132960, Note_on_c, 0, 81, 72
2, 133200, Note_on_c, 0, 81, 0
2, 133440, Note_on_c, 0, 84, 61
2, 133560, Note_on_c, 0, 84, 0
2, 133560, Note_on_c, 0, 82, 57
2, 133650, Note_on_c, 0, 82, 0
2, 133680, Note_on_c, 0, 82, 61
2, 133800, Note_on_c, 0, 82, 0
2, 133800, Note_on_c, 0, 81, 54
2, 133890, Note_on_c, 0, 81, 0
2, 133920, Note_on_c, 0, 81, 60
2, 134160, Note_on_c, 0, 81, 0
2, 134400, Note_on_c, 0, 84, 69
2, 134430, Note_on_c, 0, 84, 0
2, 134430, Note_on_c, 0, 86, 63
2, 134460, Note_on_c, 0, 86, 0
2, 134460, Note_on_c, 0, 84, 69
2, 134490, Note_on_c, 0, 84, 0
2, 134490, Note_on_c, 0, 86, 61
2, 134520, Note_on_c, 0, 86, 0
2, 134520, Note_on_c, 0, 82, 68
2, 134610, Note_on_c, 0, 82, 0
2, 134640, Note_on_c, 0, 82, 68
2, 134670, Note_on_c, 0, 82, 0
2, 134670, Note_on_c, 0, 84, 61
2, 134700, Note_on_c, 0, 84, 0
2, 134700, Note_on_c, 0, 82, 68
2, 134730, Note_on_c, 0, 82, 0
2, 134730, Note_on_c, 0, 84, 62
2, 134760, Note_on_c, 0, 84, 0
2, 134760, Note_on_c, 0, 81, 67
2, 134850, Note_on_c, 0, 81, 0
2, 134880, Note_on_c, 0, 81, 72
2, 135120, Note_on_c, 0, 81, 0
2, 135330, Note_on_c, 0, 82, 62
2, 135360, Note_on_c, 0, 82, 0
2, 135360, Note_on_c, 0, 81, 70
2, 135480, Note_on_c, 0, 81, 0
2, 135480, Note_on_c, 0, 79, 65
2, 135570, Note_on_c, 0, 79, 0
2, 135570, Note_on_c, 0, 81, 62
2, 135600, Note_on_c, 0, 81, 0
2, 135600, Note_on_c, 0, 79, 70
2, 135720, Note_on_c, 0, 79, 0
2, 135720, Note_on_c, 0, 77, 62
2, 135810, Note_on_c, 0, 77, 0
2, 135840, Note_on_c, 0, 77, 69
2, 136080, Note_on_c, 0, 77, 0
2, 136320, Note_on_c, 0, 77, 65
2, 136440, Note_on_c, 0, 77, 0
2, 136440, Note_on_c, 0, 76, 57
2, 136560, Note_on_c, 0, 76, 0
2, 136560, Note_on_c, 0, 74, 61
2, 136680, Note_on_c, 0, 74, 0
2, 136680, Note_on_c, 0, 72, 54
2, 136770, Note_on_c, 0, 72, 0
2, 136800, Note_on_c, 0, 72, 60
2, 137040, Note_on_c, 0, 72, 0
2, 137040, Note_on_c, 0, 72, 54
2, 137280, Note_on_c, 0, 72, 0
2, 137280, Note_on_c, 0, 74, 54
2, 137340, Note_on_c, 0, 74, 0
2, 137340, Note_on_c, 0, 72, 54
2, 137400, Note_on_c, 0, 72, 0
2, 137400, Note_on_c, 0, 71, 54
2, 137460, Note_on_c, 0, 71, 0
2, 137460, Note_on_c, 0, 72, 60
2, 137660, Note_on_c, 0, 72, 0
2, 138240, Note_on_c, 0, 72, 60
2, 138720, Note_on_c, 0, 72, 0
2, 138720, Note_on_c, 0, 70, 55
2, 138840, Note_on_c, 0, 70, 0
2, 138840, Note_on_c, 0, 69, 50
2, 138960, Note_on_c, 0, 69, 0
2, 138960, Note_on_c, 0, 67, 55
2, 139080, Note_on_c, 0, 67, 0
2, 139080, Note_on_c, 0, 65, 49
2, 139170, Note_on_c, 0, 65, 0
2, 139200, Note_on_c, 0, 65, 55
2, 139680, Note_on_c, 0, 65, 0
2, 139680, Note_on_c, 0, 64, 55
2, 139740, Note_on_c, 0, 64, 0
2, 139740, Note_on_c, 0, 65, 51
2, 139800, Note_on_c, 0, 65, 0
2, 139800, Note_on_c, 0, 64, 57
2, 140040, Note_on_c, 0, 64, 0
2, 140040, Note_on_c, 0, 64, 51
2, 140160, Note_on_c, 0, 64, 0
2, 140160, Note_on_c, 0, 65, 55
2, 140280, Note_on_c, 0, 65, 0
2, 140280, Note_on_c, 0, 67, 52
2, 140400, Note_on_c, 0, 67, 0
2, 140400, Note_on_c, 0, 69, 54
2, 140520, Note_on_c, 0, 69, 0
2, 140520, Note_on_c, 0, 70, 55
2, 140640, Note_on_c, 0, 70, 0
2, 140640, Note_on_c, 0, 72, 59
2, 140760, Note_on_c, 0, 72, 0
2, 140760, Note_on_c, 0, 74, 61
2, 140880, Note_on_c, 0, 74, 0
2, 140880, Note_on_c, 0, 76, 64
2, 141000, Note_on_c, 0, 76, 0
2, 141000, Note_on_c, 0, 77, 66
2, 141090, Note_on_c, 0, 77, 0
2, 141120, Note_on_c, 0, 77, 66
2, 141240, Note_on_c, 0, 77, 0
2, 141240, Note_on_c, 0, 76, 64
2, 141360, Note_on_c, 0, 76, 0
2, 141360, Note_on_c, 0, 74, 61
2, 141420, Note_on_c, 0, 74, 0
2, 141480, Note_on_c, 0, 72, 59
2, 141540, Note_on_c, 0, 72, 0
2, 141600, Note_on_c, 0, 72, 57
2, 141720, Note_on_c, 0, 72, 0
2, 141720, Note_on_c, 0, 70, 55
2, 141840, Note_on_c, 0, 70, 0
2, 141840, Note_on_c, 0, 69, 52
2, 141900, Note_on_c, 0, 69, 0
2, 141960, Note_on_c, 0, 67, 50
2, 142020, Note_on_c, 0, 67, 0
2, 142080, Note_on_c, 0, 84, 72
2, 142440, Note_on_c, 0, 84, 0
2, 142440, Note_on_c, 0, 86, 64
2, 142500, Note_on_c, 0, 86, 0
2, 142500, Note_on_c, 0, 84, 60
2, 142560, Note_on_c, 0, 84, 0
2, 142560, Note_on_c, 0, 82, 68
2, 142680, Note_on_c, 0, 82, 0
2, 142680, Note_on_c, 0, 81, 60
2, 142800, Note_on_c, 0, 81, 0
2, 142800, Note_on_c, 0, 79, 62
2, 142920, Note_on_c, 0, 79, 0
2, 142920, Note_on_c, 0, 77, 60
2, 143010, Note_on_c, 0, 77, 0
2, 143040, Note_on_c, 0, 77, 70
2, 143520, Note_on_c, 0, 77, 0
2, 143520, Note_on_c, 0, 76, 60
2, 143580, Note_on_c, 0, 76, 0
2, 143580, Note_on_c, 0, 77, 56
2, 143640, Note_on_c, 0, 77, 0
2, 143640, Note_on_c, 0, 76, 60
2, 143880, Note_on_c, 0, 76, 0
2, 143880, Note_on_c, 0, 82, 57
2, 144000, Note_on_c, 0, 82, 0
2, 144000, Note_on_c, 0, 81, 66
2, 144060, Note_on_c, 0, 81, 0
2, 144120, Note_on_c, 0, 82, 60
2, 144180, Note_on_c, 0, 82, 0
2, 144240, Note_on_c, 0, 84, 66
2, 144300, Note_on_c, 0, 84, 0
2, 144360, Note_on_c, 0, 86, 67
2, 144420, Note_on_c, 0, 86, 0
2, 144480, Note_on_c, 0, 88, 77
2, 144540, Note_on_c, 0, 88, 0
2, 144600, Note_on_c, 0, 89, 71
2, 144660, Note_on_c, 0, 89, 0
2, 144720, Note_on_c, 0, 88, 74
2, 144780, Note_on_c, 0, 88, 0
2, 144840, Note_on_c, 0, 89, 72
2, 144900, Note_on_c, 0, 89, 0
2, 144960, Note_on_c, 0, 89, 80
2, 145080, Note_on_c, 0, 89, 0
2, 145080, Note_on_c, 0, 88, 72
2, 145200, Note_on_c, 0, 88, 0
2, 145200, Note_on_c, 0, 86, 73
2, 145320, Note_on_c, 0, 86, 0
2, 145320, Note_on_c, 0, 84, 70
2, 145410, Note_on_c, 0, 84, 0
2, 145440, Note_on_c, 0, 84, 75
2, 145560, Note_on_c, 0, 84, 0
2, 145560, Note_on_c, 0, 82, 70
2, 145680, Note_on_c, 0, 82, 0
2, 145680, Note_on_c, 0, 81, 68
2, 145800, Note_on_c, 0, 81, 0
2, 145800, Note_on_c, 0, 79, 67
2, 145920, Note_on_c, 0, 79, 0
2, 145920, Note_on_c, 0, 81, 68
2, 146040, Note_on_c, 0, 81, 0
2, 146040, Note_on_c, 0, 82, 68
2, 146160, Note_on_c, 0, 82, 0
2, 146160, Note_on_c, 0, 81, 75
2, 146280, Note_on_c, 0, 81, 0
2, 146280, Note_on_c, 0, 82, 74
2, 146400, Note_on_c, 0, 82, 0
2, 146400, Note_on_c, 0, 84, 83
2, 146520, Note_on_c, 0, 84, 0
2, 146520, Note_on_c, 0, 86, 81
2, 146640, Note_on_c, 0, 86, 0
2, 146640, Note_on_c, 0, 84, 91
2, 146760, Note_on_c, 0, 84, 0
2, 146760, Note_on_c, 0, 86, 85
2, 146880, Note_on_c, 0, 86, 0
2, 146880, Note_on_c, 0, 87, 97
2, 146880, Note_on_c, 0, 75, 82
2, 147840, Note_on_c, 0, 75, 0
2, 147840, Note_on_c, 0, 87, 0
2, 147960, Note_on_c, 0, 86, 70
2, 148080, Note_on_c, 0, 86, 0
2, 148080, Note_on_c, 0, 85, 75
2, 148200, Note_on_c, 0, 85, 0
2, 148200, Note_on_c, 0, 86, 68
2, 148320, Note_on_c, 0, 86, 0
2, 148440, Note_on_c, 0, 84, 67
2, 148560, Note_on_c, 0, 84, 0
2, 148560, Note_on_c, 0, 83, 76
2, 148680, Note_on_c, 0, 83, 0
2, 148680, Note_on_c, 0, 84, 67
2, 148800, Note_on_c, 0, 84, 0
2, 148920, Note_on_c, 0, 83, 70
2, 149040, Note_on_c, 0, 83, 0
2, 149040, Note_on_c, 0, 83, 69
2, 149100, Note_on_c, 0, 83, 0
2, 149100, Note_on_c, 0, 84, 63
2, 149160, Note_on_c, 0, 84, 0
2, 149160, Note_on_c, 0, 83, 68
2, 149280, Note_on_c, 0, 83, 0
2, 149400, Note_on_c, 0, 82, 72
2, 149520, Note_on_c, 0, 82, 0
2, 149520, Note_on_c, 0, 82, 72
2, 149580, Note_on_c, 0, 82, 0
2, 149580, Note_on_c, 0, 84, 65
2, 149640, Note_on_c, 0, 84, 0
2, 149640, Note_on_c, 0, 82, 75
2, 149760, Note_on_c, 0, 82, 0
2, 149880, Note_on_c, 0, 81, 67
2, 150000, Note_on_c, 0, 81, 0
2, 150000, Note_on_c, 0, 82, 70
2, 150120, Note_on_c, 0, 82, 0
2, 150120, Note_on_c, 0, 84, 72
2, 150210, Note_on_c, 0, 84, 0
2, 150240, Note_on_c, 0, 84, 72
2, 150360, Note_on_c, 0, 84, 0
2, 150360, Note_on_c, 0, 74, 66
2, 150480, Note_on_c, 0, 74, 0
2, 150480, Note_on_c, 0, 82, 72
2, 150600, Note_on_c, 0, 82, 0
2, 150600, Note_on_c, 0, 79, 65
2, 150720, Note_on_c, 0, 79, 0
2, 150720, Note_on_c, 0, 77, 72
2, 151200, Note_on_c, 0, 77, 0
2, 151200, Note_on_c, 0, 76, 68
2, 151240, Note_on_c, 0, 76, 0
2, 151240, Note_on_c, 0, 77, 60
2, 151280, Note_on_c, 0, 77, 0
2, 151280, Note_on_c, 0, 76, 68
2, 151320, Note_on_c, 0, 76, 0
2, 151320, Note_on_c, 0, 77, 61
2, 151360, Note_on_c, 0, 77, 0
2, 151360, Note_on_c, 0, 76, 68
2, 151400, Note_on_c, 0, 76, 0
2, 151400, Note_on_c, 0, 77, 61
2, 151440, Note_on_c, 0, 77, 0
2, 151440, Note_on_c, 0, 76, 68
2, 151680, Note_on_c, 0, 76, 0
2, 151800, Note_on_c, 0, 84, 72
2, 151920, Note_on_c, 0, 84, 0
2, 151920, Note_on_c, 0, 81, 75
2, 152040, Note_on_c, 0, 81, 0
2, 152040, Note_on_c, 0, 77, 67
2, 152160, Note_on_c, 0, 77, 0
2, 152160, Note_on_c, 0, 75, 77
2, 152280, Note_on_c, 0, 75, 0
2, 152280, Note_on_c, 0, 74, 69
2, 152400, Note_on_c, 0, 74, 0
2, 152400, Note_on_c, 0, 85, 82
2, 152520, Note_on_c, 0, 85, 0
2, 152520, Note_on_c, 0, 86, 76
2, 152640, Note_on_c, 0, 86, 0
2, 152640, Note_on_c, 0, 77, 75
2, 153120, Note_on_c, 0, 77, 0
2, 153120, Note_on_c, 0, 79, 68
2, 153160, Note_on_c, 0, 79, 0
2, 153160, Note_on_c, 0, 81, 60
2, 153200, Note_on_c, 0, 81, 0
2, 153200, Note_on_c, 0, 79, 68
2, 153240, Note_on_c, 0, 79, 0
2, 153240, Note_on_c, 0, 81, 61
2, 153280, Note_on_c, 0, 81, 0
2, 153280, Note_on_c, 0, 79, 68
2, 153320, Note_on_c, 0, 79, 0
2, 153320, Note_on_c, 0, 81, 61
2, 153354, Note_on_c, 0, 79, 68
2, 153360, Note_on_c, 0, 81, 0
2, 153394, Note_on_c, 0, 79, 0
2, 153395, Note_on_c, 0, 81, 60
2, 153434, Note_on_c, 0, 79, 68
2, 153435, Note_on_c, 0, 81, 0
2, 153474, Note_on_c, 0, 79, 0
2, 153477, Note_on_c, 0, 77, 63
2, 153537, Note_on_c, 0, 77, 0
2, 153537, Note_on_c, 0, 79, 62
2, 153597, Note_on_c, 0, 79, 0
2, 153600, Note_on_c, 0, 77, 68
2, 153720, Note_on_c, 0, 77, 0
2, 153840, Note_on_c, 0, 69, 48
2, 153840, Note_on_c, 0, 65, 40
2, 153960, Note_on_c, 0, 65, 0
2, 153960, Note_on_c, 0, 69, 0
2, 154080, Note_on_c, 0, 69, 48
2, 154080, Note_on_c, 0, 65, 40
2, 154200, Note_on_c, 0, 65, 0
2, 154200, Note_on_c, 0, 69, 0
2, 154320, Note_on_c, 0, 65, 40
2, 154320, Note_on_c, 0, 69, 48
2, 154440, Note_on_c, 0, 69, 0
2, 154440, Note_on_c, 0, 65, 0
2, 154560, Note_on_c, 0, 65, 44
2, 154560, Note_on_c, 0, 70, 52
2, 154620, Note_on_c, 0, 70, 0
2, 154620, Note_on_c, 0, 69, 47
2, 154680, Note_on_c, 0, 69, 0
2, 154680, Note_on_c, 0, 67, 47
2, 154740, Note_on_c, 0, 67, 0
2, 154740, Note_on_c, 0, 69, 48
2, 154800, Note_on_c, 0, 69, 0
2, 154800, Note_on_c, 0, 65, 0
2, 154800, Note_on_c, 0, 69, 44
2, 154800, Note_on_c, 0, 72, 52
2, 155040, Note_on_c, 0, 72, 0
2, 155040, Note_on_c, 0, 69, 0
2, 155040, Note_on_c, 0, 65, 51
2, 155040, Note_on_c, 0, 69, 60
2, 155280, Note_on_c, 0, 69, 0
2, 155280, Note_on_c, 0, 65, 0
2, 155280, Note_on_c, 0, 65, 66
2, 155280, Note_on_c, 0, 62, 55
2, 155520, Note_on_c, 0, 62, 0
2, 155520, Note_on_c, 0, 65, 0
2, 155520, Note_on_c, 0, 62, 72
2, 155520, Note_on_c, 0, 58, 60
2, 156120, Note_on_c, 0, 58, 0
2, 156120, Note_on_c, 0, 62, 0
2, 156120, Note_on_c, 0, 58, 49
2, 156120, Note_on_c, 0, 62, 58
2, 156240, Note_on_c, 0, 62, 0
2, 156240, Note_on_c, 0, 58, 0
2, 156240, Note_on_c, 0, 64, 58
2, 156240, Note_on_c, 0, 60, 49
2, 156360, Note_on_c, 0, 60, 0
2, 156360, Note_on_c, 0, 64, 0
2, 156360, Note_on_c, 0, 65, 58
2, 156360, Note_on_c, 0, 62, 49
2, 156468, Note_on_c, 0, 62, 0
2, 156468, Note_on_c, 0, 65, 0
2, 156480, Note_on_c, 0, 65, 63
2, 156480, Note_on_c, 0, 62, 53
2, 156600, Note_on_c, 0, 62, 0
2, 156600, Note_on_c, 0, 65, 0
2, 156600, Note_on_c, 0, 64, 59
2, 156600, Note_on_c, 0, 60, 50
2, 156720, Note_on_c, 0, 60, 0
2, 156720, Note_on_c, 0, 64, 0
2, 156720, Note_on_c, 0, 62, 59
2, 156720, Note_on_c, 0, 58, 50
2, 156840, Note_on_c, 0, 58, 0
2, 156840, Note_on_c, 0, 62, 0
2, 156840, Note_on_c, 0, 60, 59
2, 156840, Note_on_c, 0, 57, 50
2, 156948, Note_on_c, 0, 57, 0
2, 156948, Note_on_c, 0, 60, 0
2, 156960, Note_on_c, 0, 57, 53
2, 156960, Note_on_c, 0, 60, 63
2, 157080, Note_on_c, 0, 60, 0
2, 157080, Note_on_c, 0, 57, 0
2, 157080, Note_on_c, 0, 58, 53
2, 157080, Note_on_c, 0, 55, 45
2, 157200, Note_on_c, 0, 55, 0
2, 157200, Note_on_c, 0, 58, 0
2, 157200, Note_on_c, 0, 57, 53
2, 157200, Note_on_c, 0, 53, 45
2, 157320, Note_on_c, 0, 53, 0
2, 157320, Note_on_c, 0, 57, 0
2, 157320, Note_on_c, 0, 55, 53
2, 157320, Note_on_c, 0, 52, 45
2, 157440, Note_on_c, 0, 52, 0
2, 157440, Note_on_c, 0, 55, 0
2, 157680, Note_on_c, 0, 65, 50
2, 157760, Note_on_c, 0, 65, 0
2, 157760, Note_on_c, 0, 69, 46
2, 157840, Note_on_c, 0, 69, 0
2, 157840, Note_on_c, 0, 77, 46
2, 157920, Note_on_c, 0, 77, 0
2, 157920, Note_on_c, 0, 65, 52
2, 158000, Note_on_c, 0, 65, 0
2, 158000, Note_on_c, 0, 69, 46
2, 158080, Note_on_c, 0, 69, 0
2, 158080, Note_on_c, 0, 77, 46
2, 158160, Note_on_c, 0, 77, 0
2, 158160, Note_on_c, 0, 65, 54
2, 158240, Note_on_c, 0, 65, 0
2, 158240, Note_on_c, 0, 69, 47
2, 158320, Note_on_c, 0, 69, 0
2, 158320, Note_on_c, 0, 77, 47
2, 158400, Note_on_c, 0, 77, 0
2, 158400, Note_on_c, 0, 65, 60
2, 158480, Note_on_c, 0, 65, 0
2, 158480, Note_on_c, 0, 69, 52
2, 158560, Note_on_c, 0, 69, 0
2, 158560, Note_on_c, 0, 77, 54
2, 158640, Note_on_c, 0, 77, 0
2, 158640, Note_on_c, 0, 69, 65
2, 158720, Note_on_c, 0, 69, 0
2, 158720, Note_on_c, 0, 72, 58
2, 158800, Note_on_c, 0, 72, 0
2, 158800, Note_on_c, 0, 81, 61
2, 158880, Note_on_c, 0, 81, 0
2, 158880, Note_on_c, 0, 65, 69
2, 158960, Note_on_c, 0, 65, 0
2, 158960, Note_on_c, 0, 69, 62
2, 159040, Note_on_c, 0, 69, 0
2, 159040, Note_on_c, 0, 77, 65
2, 159120, Note_on_c, 0, 77, 0
2, 159120, Note_on_c, 0, 62, 76
2, 159200, Note_on_c, 0, 62, 0
2, 159200, Note_on_c, 0, 65, 66
2, 159280, Note_on_c, 0, 65, 0
2, 159280, Note_on_c, 0, 74, 69
2, 159360, Note_on_c, 0, 74, 0
2, 159360, Note_on_c, 0, 58, 80
2, 159960, Note_on_c, 0, 58, 0
2, 159960, Note_on_c, 0, 77, 66
2, 159960, Note_on_c, 0, 74, 56
2, 160080, Note_on_c, 0, 74, 0
2, 160080, Note_on_c, 0, 77, 0
2, 160080, Note_on_c, 0, 76, 68
2, 160080, Note_on_c, 0, 72, 57
2, 160200, Note_on_c, 0, 72, 0
2, 160200, Note_on_c, 0, 76, 0
2, 160200, Note_on_c, 0, 74, 63
2, 160200, Note_on_c, 0, 70, 53
2, 160308, Note_on_c, 0, 70, 0
2, 160308, Note_on_c, 0, 74, 0
2, 160320, Note_on_c, 0, 74, 67
2, 160320, Note_on_c, 0, 70, 56
2, 160440, Note_on_c, 0, 70, 0
2, 160440, Note_on_c, 0, 74, 0
2, 160440, Note_on_c, 0, 69, 55
2, 160440, Note_on_c, 0, 72, 65
2, 160560, Note_on_c, 0, 72, 0
2, 160560, Note_on_c, 0, 69, 0
2, 160560, Note_on_c, 0, 67, 53
2, 160560, Note_on_c, 0, 70, 63
2, 160680, Note_on_c, 0, 70, 0
2, 160680, Note_on_c, 0, 67, 0
2, 160680, Note_on_c, 0, 65, 51
2, 160680, Note_on_c, 0, 69, 61
2, 160788, Note_on_c, 0, 69, 0
2, 160788, Note_on_c, 0, 65, 0
2, 160800, Note_on_c, 0, 69, 63
2, 160920, Note_on_c, 0, 69, 0
2, 160920, Note_on_c, 0, 67, 56
2, 161040, Note_on_c, 0, 67, 0
2, 161040, Note_on_c, 0, 65, 56
2, 161160, Note_on_c, 0, 65, 0
2, 161160, Note_on_c, 0, 58, 47
2, 161160, Note_on_c, 0, 64, 56
2, 161268, Note_on_c, 0, 64, 0
2, 161268, Note_on_c, 0, 58, 0
2, 161280, Note_on_c, 0, 58, 59
2, 161280, Note_on_c, 0, 64, 59
2, 162195, Note_on_c, 0, 64, 0
2, 162195, Note_on_c, 0, 58, 0
2, 162240, Note_on_c, 0, 60, 52
2, 162240, Note_on_c, 0, 65, 52
2, 162240, Note_on_c, 0, 57, 52
2, 162480, Note_on_c, 0, 57, 0
2, 162480, Note_on_c, 0, 65, 0
2, 162480, Note_on_c, 0, 60, 0
2, 162480, End_track
3, 0, Start_track
3, 0, Title_t, "Piano left"
3, 0, Program_c, 0, 0
3, 1875, Note_on_c, 0, 41, 45
3, 1890, Note_on_c, 0, 45, 48
3, 1905, Note_on_c, 0, 48, 51
3, 1920, Note_on_c, 0, 53, 53
3, 2040, Note_on_c, 0, 53, 0
3, 2040, Note_on_c, 0, 41, 0
3, 2040, Note_on_c, 0, 45, 0
3, 2040, Note_on_c, 0, 48, 0
3, 2880, Note_on_c, 0, 55, 42
3, 2880, Note_on_c, 0, 48, 42
3, 2880, Note_on_c, 0, 58, 50
3, 3000, Note_on_c, 0, 58, 0
3, 3000, Note_on_c, 0, 48, 0
3, 3000, Note_on_c, 0, 55, 0
3, 3795, Note_on_c, 0, 52, 45
3, 3810, Note_on_c, 0, 55, 48
3, 3825, Note_on_c, 0, 58, 51
3, 3840, Note_on_c, 0, 60, 53
3, 3960, Note_on_c, 0, 60, 0
3, 3960, Note_on_c, 0, 52, 0
3, 3960, Note_on_c, 0, 55, 0
3, 3960, Note_on_c, 0, 58, 0
3, 4800, Note_on_c, 0, 60, 50
3, 4800, Note_on_c, 0, 53, 42
3, 4920, Note_on_c, 0, 53, 0
3, 4920, Note_on_c, 0, 60, 0
3, 5760, Note_on_c, 0, 65, 44
3, 5760, Note_on_c, 0, 58, 44
3, 6720, Note_on_c, 0, 58, 0
3, 6720, Note_on_c, 0, 57, 44
3, 6960, Note_on_c, 0, 57, 0
3, 6960, Note_on_c, 0, 65, 0
3, 7680, Note_on_c, 0, 58, 43
3, 7680, Note_on_c, 0, 46, 43
3, 8640, Note_on_c, 0, 46, 0
3, 8640, Note_on_c, 0, 58, 0
3, 8640, Note_on_c, 0, 48, 37
3, 8640, Note_on_c, 0, 57, 37
3, 9120, Note_on_c, 0, 57, 0
3, 9120, Note_on_c, 0, 55, 33
3, 9540, Note_on_c, 0, 55, 0
3, 9540, Note_on_c, 0, 48, 0
3, 9555, Note_on_c, 0, 41, 45
3, 9570, Note_on_c, 0, 45, 48
3, 9585, Note_on_c, 0, 48, 51
3, 9600, Note_on_c, 0, 53, 53
3, 9720, Note_on_c, 0, 53, 0
3, 9720, Note_on_c, 0, 41, 0
3, 9720, Note_on_c, 0, 45, 0
3, 9720, Note_on_c, 0, 48, 0
3, 10560, Note_on_c, 0, 58, 50
3, 10560, Note_on_c, 0, 48, 42
3, 10800, Note_on_c, 0, 58, 0
3, 10800, Note_on_c, 0, 57, 50
3, 11040, Note_on_c, 0, 57, 0
3, 11040, Note_on_c, 0, 55, 50
3, 11280, Note_on_c, 0, 55, 0
3, 11280, Note_on_c, 0, 53, 50
3, 11520, Note_on_c, 0, 53, 0
3, 11520, Note_on_c, 0, 55, 53
3, 11520, Note_on_c, 0, 52, 48
3, 12480, Note_on_c, 0, 52, 0
3, 12480, Note_on_c, 0, 55, 0
3, 12480, Note_on_c, 0, 48, 0
3, 12480, Note_on_c, 0, 53, 50
3, 12480, Note_on_c, 0, 41, 42
3, 12600, Note_on_c, 0, 41, 0
3, 12600, Note_on_c, 0, 53, 0
3, 13440, Note_on_c, 0, 58, 44
3, 13440, Note_on_c, 0, 46, 44
3, 13920, Note_on_c, 0, 46, 0
3, 13920, Note_on_c, 0, 58, 0
3, 14880, Note_on_c, 0, 58, 30
3, 14880, Note_on_c, 0, 70, 36
3, 15360, Note_on_c, 0, 70, 0
3, 15360, Note_on_c, 0, 58, 0
3, 15360, Note_on_c, 0, 69, 40
3, 15360, Note_on_c, 0, 60, 34
3, 16320, Note_on_c, 0, 69, 0
3, 16320, Note_on_c, 0, 67, 32
3, 16800, Note_on_c, 0, 67, 0
3, 16800, Note_on_c, 0, 60, 0
3, 17280, Note_on_c, 0, 60, 40
3, 17400, Note_on_c, 0, 60, 0
3, 17400, Note_on_c, 0, 67, 32
3, 17520, Note_on_c, 0, 67, 0
3, 17520, Note_on_c, 0, 64, 32
3, 17640, Note_on_c, 0, 64, 0
3, 17640, Note_on_c, 0, 67, 32
3, 17760, Note_on_c, 0, 67, 0
3, 17760, Note_on_c, 0, 60, 40
3, 17880, Note_on_c, 0, 60, 0
3, 17880, Note_on_c, 0, 67, 31
3, 18000, Note_on_c, 0, 67, 0
3, 18000, Note_on_c, 0, 64, 31
3, 18120, Note_on_c, 0, 64, 0
3, 18120, Note_on_c, 0, 67, 31
3, 18240, Note_on_c, 0, 67, 0
3, 18240, Note_on_c, 0, 62, 40
3, 18360, Note_on_c, 0, 62, 0
3, 18360, Note_on_c, 0, 67, 30
3, 18480, Note_on_c, 0, 67, 0
3, 18480, Note_on_c, 0, 65, 30
3, 18600, Note_on_c, 0, 65, 0
3, 18600, Note_on_c, 0, 67, 30
3, 18720, Note_on_c, 0, 67, 0
3, 18720, Note_on_c, 0, 62, 40
3, 18840, Note_on_c, 0, 62, 0
3, 18840, Note_on_c, 0, 67, 33
3, 18960, Note_on_c, 0, 67, 0
3, 18960, Note_on_c, 0, 65, 33
3, 19080, Note_on_c, 0, 65, 0
3, 19080, Note_on_c, 0, 67, 33
3, 19200, Note_on_c, 0, 67, 0
3, 19200, Note_on_c, 0, 60, 40
3, 19320, Note_on_c, 0, 60, 0
3, 19320, Note_on_c, 0, 67, 32
3, 19440, Note_on_c, 0, 67, 0
3, 19440, Note_on_c, 0, 64, 32
3, 19560, Note_on_c, 0, 64, 0
3, 19560, Note_on_c, 0, 67, 32
3, 19680, Note_on_c, 0, 67, 0
3, 19680, Note_on_c, 0, 60, 40
3, 19800, Note_on_c, 0, 60, 0
3, 19800, Note_on_c, 0, 67, 33
3, 19920, Note_on_c, 0, 67, 0
3, 19920, Note_on_c, 0, 64, 35
3, 20040, Note_on_c, 0, 64, 0
3, 20040, Note_on_c, 0, 67, 37
3, 20160, Note_on_c, 0, 67, 0
3, 20160, Note_on_c, 0, 62, 47
3, 20280, Note_on_c, 0, 62, 0
3, 20280, Note_on_c, 0, 67, 35
3, 20400, Note_on_c, 0, 67, 0
3, 20400, Note_on_c, 0, 65, 35
3, 20460, Note_on_c, 0, 65, 0
3, 20520, Note_on_c, 0, 67, 35
3, 20580, Note_on_c, 0, 67, 0
3, 20640, Note_on_c, 0, 62, 44
3, 20760, Note_on_c, 0, 62, 0
3, 20760, Note_on_c, 0, 67, 33
3, 20880, Note_on_c, 0, 67, 0
3, 20880, Note_on_c, 0, 65, 33
3, 20940, Note_on_c, 0, 65, 0
3, 21000, Note_on_c, 0, 67, 33
3, 21060, Note_on_c, 0, 67, 0
3, 21120, Note_on_c, 0, 60, 40
3, 21240, Note_on_c, 0, 60, 0
3, 21240, Note_on_c, 0, 67, 32
3, 21360, Note_on_c, 0, 67, 0
3, 21360, Note_on_c, 0, 64, 32
3, 21480, Note_on_c, 0, 64, 0
3, 21480, Note_on_c, 0, 67, 32
3, 21600, Note_on_c, 0, 67, 0
3, 21600, Note_on_c, 0, 60, 40
3, 21720, Note_on_c, 0, 60, 0
3, 21720, Note_on_c, 0, 67, 31
3, 21840, Note_on_c, 0, 67, 0
3, 21840, Note_on_c, 0, 64, 31
3, 21960, Note_on_c, 0, 64, 0
3, 21960, Note_on_c, 0, 67, 31
3, 22080, Note_on_c, 0, 67, 0
3, 22080, Note_on_c, 0, 62, 40
3, 22200, Note_on_c, 0, 62, 0
3, 22200, Note_on_c, 0, 67, 30
3, 22320, Note_on_c, 0, 67, 0
3, 22320, Note_on_c, 0, 65, 30
3, 22440, Note_on_c, 0, 65, 0
3, 22440, Note_on_c, 0, 67, 30
3, 22560, Note_on_c, 0, 67, 0
3, 22560, Note_on_c, 0, 62, 40
3, 22680, Note_on_c, 0, 62, 0
3, 22680, Note_on_c, 0, 67, 33
3, 22800, Note_on_c, 0, 67, 0
3, 22800, Note_on_c, 0, 65, 33
3, 22920, Note_on_c, 0, 65, 0
3, 22920, Note_on_c, 0, 67, 33
3, 23040, Note_on_c, 0, 67, 0
3, 23040, Note_on_c, 0, 60, 40
3, 23100, Note_on_c, 0, 60, 0
3, 23160, Note_on_c, 0, 67, 32
3, 23220, Note_on_c, 0, 67, 0
3, 23280, Note_on_c, 0, 64, 32
3, 23340, Note_on_c, 0, 64, 0
3, 23400, Note_on_c, 0, 67, 32
3, 23460, Note_on_c, 0, 67, 0
3, 23520, Note_on_c, 0, 60, 46
3, 23580, Note_on_c, 0, 60, 0
3, 23640, Note_on_c, 0, 67, 35
3, 23700, Note_on_c, 0, 67, 0
3, 23760, Note_on_c, 0, 64, 36
3, 23820, Note_on_c, 0, 64, 0
3, 23880, Note_on_c, 0, 67, 38
3, 23940, Note_on_c, 0, 67, 0
3, 24000, Note_on_c, 0, 62, 49
3, 24120, Note_on_c, 0, 62, 0
3, 24120, Note_on_c, 0, 67, 39
3, 24240, Note_on_c, 0, 67, 0
3, 24240, Note_on_c, 0, 65, 39
3, 24360, Note_on_c, 0, 65, 0
3, 24360, Note_on_c, 0, 67, 39
3, 24480, Note_on_c, 0, 67, 0
3, 24480, Note_on_c, 0, 62, 50
3, 24600, Note_on_c, 0, 62, 0
3, 24600, Note_on_c, 0, 67, 40
3, 24720, Note_on_c, 0, 67, 0
3, 24720, Note_on_c, 0, 65, 40
3, 24840, Note_on_c, 0, 65, 0
3, 24840, Note_on_c, 0, 67, 40
3, 24960, Note_on_c, 0, 67, 0
3, 24960, Note_on_c, 0, 60, 48
3, 25080, Note_on_c, 0, 60, 0
3, 25080, Note_on_c, 0, 67, 32
3, 25200, Note_on_c, 0, 67, 0
3, 25200, Note_on_c, 0, 64, 32
3, 25320, Note_on_c, 0, 64, 0
3, 25320, Note_on_c, 0, 67, 32
3, 25440, Note_on_c, 0, 67, 0
3, 25440, Note_on_c, 0, 60, 52
3, 25560, Note_on_c, 0, 60, 0
3, 25560, Note_on_c, 0, 67, 39
3, 25680, Note_on_c, 0, 67, 0
3, 25680, Note_on_c, 0, 64, 42
3, 25800, Note_on_c, 0, 64, 0
3, 25800, Note_on_c, 0, 67, 45
3, 25920, Note_on_c, 0, 67, 0
3, 25920, Note_on_c, 0, 52, 65
3, 26040, Note_on_c, 0, 52, 0
3, 26040, Note_on_c, 0, 60, 55
3, 26160, Note_on_c, 0, 60, 0
3, 26160, Note_on_c, 0, 55, 55
3, 26280, Note_on_c, 0, 55, 0
3, 26280, Note_on_c, 0, 60, 55
3, 26400, Note_on_c, 0, 60, 0
3, 26400, Note_on_c, 0, 52, 63
3, 26520, Note_on_c, 0, 52, 0
3, 26520, Note_on_c, 0, 60, 51
3, 26640, Note_on_c, 0, 60, 0
3, 26640, Note_on_c, 0, 55, 51
3, 26760, Note_on_c, 0, 55, 0
3, 26760, Note_on_c, 0, 60, 51
3, 26880, Note_on_c, 0, 60, 0
3, 26880, Note_on_c, 0, 53, 58
3, 27000, Note_on_c, 0, 53, 0
3, 27000, Note_on_c, 0, 60, 45
3, 27120, Note_on_c, 0, 60, 0
3, 27120, Note_on_c, 0, 57, 45
3, 27240, Note_on_c, 0, 57, 0
3, 27240, Note_on_c, 0, 60, 45
3, 27360, Note_on_c, 0, 60, 0
3, 27360, Note_on_c, 0, 52, 51
3, 27480, Note_on_c, 0, 52, 0
3, 27480, Note_on_c, 0, 61, 44
3, 27600, Note_on_c, 0, 61, 0
3, 27600, Note_on_c, 0, 55, 44
3, 27720, Note_on_c, 0, 55, 0
3, 27720, Note_on_c, 0, 61, 44
3, 27840, Note_on_c, 0, 61, 0
3, 27840, Note_on_c, 0, 50, 51
3, 27960, Note_on_c, 0, 50, 0
3, 27960, Note_on_c, 0, 60, 43
3, 28080, Note_on_c, 0, 60, 0
3, 28080, Note_on_c, 0, 57, 43
3, 28200, Note_on_c, 0, 57, 0
3, 28200, Note_on_c, 0, 60, 43
3, 28320, Note_on_c, 0, 60, 0
3, 28320, Note_on_c, 0, 55, 51
3, 28440, Note_on_c, 0, 55, 0
3, 28440, Note_on_c, 0, 62, 43
3, 28560, Note_on_c, 0, 62, 0
3, 28560, Note_on_c, 0, 59, 43
3, 28680, Note_on_c, 0, 59, 0
3, 28680, Note_on_c, 0, 62, 43
3, 28800, Note_on_c, 0, 62, 0
3, 28800, Note_on_c, 0, 48, 47
3, 28920, Note_on_c, 0, 48, 0
3, 28920, Note_on_c, 0, 60, 41
3, 29040, Note_on_c, 0, 60, 0
3, 29040, Note_on_c, 0, 52, 41
3, 29160, Note_on_c, 0, 52, 0
3, 29160, Note_on_c, 0, 60, 41
3, 29280, Note_on_c, 0, 60, 0
3, 29280, Note_on_c, 0, 53, 47
3, 29400, Note_on_c, 0, 53, 0
3, 29400, Note_on_c, 0, 62, 41
3, 29520, Note_on_c, 0, 62, 0
3, 29520, Note_on_c, 0, 57, 41
3, 29640, Note_on_c, 0, 57, 0
3, 29640, Note_on_c, 0, 62, 41
3, 29760, Note_on_c, 0, 62, 0
3, 29760, Note_on_c, 0, 55, 47
3, 29880, Note_on_c, 0, 55, 0
3, 29880, Note_on_c, 0, 64, 40
3, 30000, Note_on_c, 0, 64, 0
3, 30000, Note_on_c, 0, 60, 40
3, 30120, Note_on_c, 0, 60, 0
3, 30120, Note_on_c, 0, 64, 40
3, 30240, Note_on_c, 0, 64, 0
3, 30240, Note_on_c, 0, 55, 47
3, 30360, Note_on_c, 0, 55, 0
3, 30360, Note_on_c, 0, 65, 42
3, 30480, Note_on_c, 0, 65, 0
3, 30480, Note_on_c, 0, 62, 42
3, 30600, Note_on_c, 0, 62, 0
3, 30600, Note_on_c, 0, 65, 42
3, 30720, Note_on_c, 0, 65, 0
3, 30720, Note_on_c, 0, 52, 47
3, 30840, Note_on_c, 0, 52, 0
3, 30840, Note_on_c, 0, 60, 41
3, 30960, Note_on_c, 0, 60, 0
3, 30960, Note_on_c, 0, 55, 41
3, 31080, Note_on_c, 0, 55, 0
3, 31080, Note_on_c, 0, 60, 41
3, 31200, Note_on_c, 0, 60, 0
3, 31200, Note_on_c, 0, 53, 47
3, 31320, Note_on_c, 0, 53, 0
3, 31320, Note_on_c, 0, 60, 41
3, 31440, Note_on_c, 0, 60, 0
3, 31440, Note_on_c, 0, 57, 41
3, 31560, Note_on_c, 0, 57, 0
3, 31560, Note_on_c, 0, 60, 41
3, 31680, Note_on_c, 0, 60, 0
3, 31680, Note_on_c, 0, 55, 47
3, 31800, Note_on_c, 0, 55, 0
3, 31800, Note_on_c, 0, 64, 40
3, 31920, Note_on_c, 0, 64, 0
3, 31920, Note_on_c, 0, 60, 40
3, 32040, Note_on_c, 0, 60, 0
3, 32040, Note_on_c, 0, 64, 40
3, 32160, Note_on_c, 0, 64, 0
3, 32160, Note_on_c, 0, 55, 47
3, 32280, Note_on_c, 0, 55, 0
3, 32280, Note_on_c, 0, 65, 42
3, 32400, Note_on_c, 0, 65, 0
3, 32400, Note_on_c, 0, 62, 42
3, 32520, Note_on_c, 0, 62, 0
3, 32520, Note_on_c, 0, 65, 42
3, 32640, Note_on_c, 0, 65, 0
3, 32640, Note_on_c, 0, 64, 47
3, 32640, Note_on_c, 0, 60, 39
3, 33120, Note_on_c, 0, 60, 0
3, 33120, Note_on_c, 0, 64, 0
3, 35040, Note_on_c, 0, 53, 70
3, 35040, Note_on_c, 0, 41, 59
3, 35160, Note_on_c, 0, 41, 0
3, 35160, Note_on_c, 0, 53, 0
3, 35520, Note_on_c, 0, 55, 63
3, 35520, Note_on_c, 0, 43, 53
3, 35640, Note_on_c, 0, 43, 0
3, 35640, Note_on_c, 0, 55, 0
3, 36000, Note_on_c, 0, 43, 53
3, 36000, Note_on_c, 0, 55, 63
3, 36120, Note_on_c, 0, 55, 0
3, 36120, Note_on_c, 0, 43, 0
3, 36480, Note_on_c, 0, 36, 63
3, 36480, Note_on_c, 0, 48, 63
3, 36960, Note_on_c, 0, 48, 0
3, 36960, Note_on_c, 0, 36, 0
3, 38880, Note_on_c, 0, 53, 70
3, 38880, Note_on_c, 0, 41, 59
3, 39000, Note_on_c, 0, 41, 0
3, 39000, Note_on_c, 0, 53, 0
3, 39360, Note_on_c, 0, 55, 63
3, 39360, Note_on_c, 0, 43, 53
3, 39480, Note_on_c, 0, 43, 0
3, 39480, Note_on_c, 0, 55, 0
3, 39840, Note_on_c, 0, 53, 63
3, 39846, Note_on_c, 0, 43, 53
3, 40080, Note_on_c, 0, 53, 0
3, 40086, Note_on_c, 0, 43, 0
3, 40320, Note_on_c, 0, 48, 56
3, 41235, Note_on_c, 0, 48, 0
3, 41235, Note_on_c, 0, 36, 49
3, 41250, Note_on_c, 0, 40, 53
3, 41265, Note_on_c, 0, 43, 56
3, 41280, Note_on_c, 0, 48, 60
3, 41500, Note_on_c, 0, 40, 0
3, 41520, Note_on_c, 0, 36, 0
3, 41520, Note_on_c, 0, 43, 0
3, 41520, Note_on_c, 0, 48, 0
3, 42195, Note_on_c, 0, 41, 45
3, 42210, Note_on_c, 0, 45, 48
3, 42225, Note_on_c, 0, 48, 51
3, 42240, Note_on_c, 0, 53, 53
3, 42360, Note_on_c, 0, 53, 0
3, 42360, Note_on_c, 0, 41, 0
3, 42360, Note_on_c, 0, 45, 0
3, 42360, Note_on_c, 0, 48, 0
3, 43200, Note_on_c, 0, 55, 42
3, 43200, Note_on_c, 0, 58, 50
3, 43200, Note_on_c, 0, 48, 42
3, 43320, Note_on_c, 0, 48, 0
3, 43320, Note_on_c, 0, 58, 0
3, 43320, Note_on_c, 0, 55, 0
3, 44115, Note_on_c, 0, 52, 45
3, 44130, Note_on_c, 0, 55, 48
3, 44145, Note_on_c, 0, 58, 51
3, 44160, Note_on_c, 0, 60, 53
3, 44280, Note_on_c, 0, 60, 0
3, 44280, Note_on_c, 0, 52, 0
3, 44280, Note_on_c, 0, 55, 0
3, 44280, Note_on_c, 0, 58, 0
3, 45120, Note_on_c, 0, 60, 50
3, 45120, Note_on_c, 0, 53, 42
3, 45240, Note_on_c, 0, 53, 0
3, 45240, Note_on_c, 0, 60, 0
3, 46080, Note_on_c, 0, 58, 44
3, 46080, Note_on_c, 0, 65, 44
3, 47040, Note_on_c, 0, 58, 0
3, 47040, Note_on_c, 0, 57, 44
3, 47280, Note_on_c, 0, 57, 0
3, 47280, Note_on_c, 0, 65, 0
3, 48000, Note_on_c, 0, 46, 43
3, 48000, Note_on_c, 0, 58, 43
3, 48960, Note_on_c, 0, 58, 0
3, 48960, Note_on_c, 0, 46, 0
3, 48960, Note_on_c, 0, 57, 37
3, 48960, Note_on_c, 0, 48, 37
3, 49440, Note_on_c, 0, 57, 0
3, 49440, Note_on_c, 0, 55, 33
3, 49860, Note_on_c, 0, 55, 0
3, 49860, Note_on_c, 0, 48, 0
3, 49875, Note_on_c, 0, 41, 45
3, 49890, Note_on_c, 0, 45, 48
3, 49905, Note_on_c, 0, 48, 51
3, 49920, Note_on_c, 0, 53, 53
3, 50040, Note_on_c, 0, 53, 0
3, 50040, Note_on_c, 0, 41, 0
3, 50040, Note_on_c, 0, 45, 0
3, 50040, Note_on_c, 0, 48, 0
3, 50880, Note_on_c, 0, 58, 50
3, 50880, Note_on_c, 0, 48, 42
3, 51120, Note_on_c, 0, 58, 0
3, 51120, Note_on_c, 0, 57, 50
3, 51360, Note_on_c, 0, 57, 0
3, 51360, Note_on_c, 0, 55, 50
3, 51600, Note_on_c, 0, 55, 0
3, 51600, Note_on_c, 0, 53, 50
3, 51840, Note_on_c, 0, 53, 0
3, 51840, Note_on_c, 0, 55, 53
3, 51840, Note_on_c, 0, 52, 48
3, 52800, Note_on_c, 0, 52, 0
3, 52800, Note_on_c, 0, 55, 0
3, 52800, Note_on_c, 0, 48, 0
3, 52800, Note_on_c, 0, 53, 50
3, 52800, Note_on_c, 0, 41, 42
3, 52920, Note_on_c, 0, 41, 0
3, 52920, Note_on_c, 0, 53, 0
3, 53760, Note_on_c, 0, 58, 44
3, 53760, Note_on_c, 0, 46, 44
3, 54240, Note_on_c, 0, 46, 0
3, 54240, Note_on_c, 0, 58, 0
3, 55200, Note_on_c, 0, 70, 36
3, 55200, Note_on_c, 0, 58, 30
3, 55680, Note_on_c, 0, 58, 0
3, 55680, Note_on_c, 0, 70, 0
3, 55680, Note_on_c, 0, 69, 40
3, 55680, Note_on_c, 0, 60, 34
3, 56640, Note_on_c, 0, 69, 0
3, 56640, Note_on_c, 0, 67, 32
3, 57120, Note_on_c, 0, 67, 0
3, 57120, Note_on_c, 0, 60, 0
3, 57600, Note_on_c, 0, 60, 40
3, 57720, Note_on_c, 0, 60, 0
3, 57720, Note_on_c, 0, 67, 32
3, 57840, Note_on_c, 0, 67, 0
3, 57840, Note_on_c, 0, 64, 32
3, 57960, Note_on_c, 0, 64, 0
3, 57960, Note_on_c, 0, 67, 32
3, 58080, Note_on_c, 0, 67, 0
3, 58080, Note_on_c, 0, 60, 40
3, 58200, Note_on_c, 0, 60, 0
3, 58200, Note_on_c, 0, 67, 31
3, 58320, Note_on_c, 0, 67, 0
3, 58320, Note_on_c, 0, 64, 31
3, 58440, Note_on_c, 0, 64, 0
3, 58440, Note_on_c, 0, 67, 31
3, 58560, Note_on_c, 0, 67, 0
3, 58560, Note_on_c, 0, 62, 40
3, 58680, Note_on_c, 0, 62, 0
3, 58680, Note_on_c, 0, 67, 30
3, 58800, Note_on_c, 0, 67, 0
3, 58800, Note_on_c, 0, 65, 30
3, 58920, Note_on_c, 0, 65, 0
3, 58920, Note_on_c, 0, 67, 30
3, 59040, Note_on_c, 0, 67, 0
3, 59040, Note_on_c, 0, 62, 40
3, 59160, Note_on_c, 0, 62, 0
3, 59160, Note_on_c, 0, 67, 33
3, 59280, Note_on_c, 0, 67, 0
3, 59280, Note_on_c, 0, 65, 33
3, 59400, Note_on_c, 0, 65, 0
3, 59400, Note_on_c, 0, 67, 33
3, 59520, Note_on_c, 0, 67, 0
3, 59520, Note_on_c, 0, 60, 40
3, 59640, Note_on_c, 0, 60, 0
3, 59640, Note_on_c, 0, 67, 32
3, 59760, Note_on_c, 0, 67, 0
3, 59760, Note_on_c, 0, 64, 32
3, 59880, Note_on_c, 0, 64, 0
3, 59880, Note_on_c, 0, 67, 32
3, 60000, Note_on_c, 0, 67, 0
3, 60000, Note_on_c, 0, 60, 40
3, 60120, Note_on_c, 0, 60, 0
3, 60120, Note_on_c, 0, 67, 33
3, 60240, Note_on_c, 0, 67, 0
3, 60240, Note_on_c, 0, 64, 35
3, 60360, Note_on_c, 0, 64, 0
3, 60360, Note_on_c, 0, 67, 37
3, 60480, Note_on_c, 0, 67, 0
3, 60480, Note_on_c, 0, 62, 47
3, 60600, Note_on_c, 0, 62, 0
3, 60600, Note_on_c, 0, 67, 35
3, 60720, Note_on_c, 0, 67, 0
3, 60720, Note_on_c, 0, 65, 35
3, 60780, Note_on_c, 0, 65, 0
3, 60840, Note_on_c, 0, 67, 35
3, 60900, Note_on_c, 0, 67, 0
3, 60960, Note_on_c, 0, 62, 44
3, 61080, Note_on_c, 0, 62, 0
3, 61080, Note_on_c, 0, 67, 33
3, 61200, Note_on_c, 0, 67, 0
3, 61200, Note_on_c, 0, 65, 33
3, 61260, Note_on_c, 0, 65, 0
3, 61320, Note_on_c, 0, 67, 33
3, 61380, Note_on_c, 0, 67, 0
3, 61440, Note_on_c, 0, 60, 40
3, 61560, Note_on_c, 0, 60, 0
3, 61560, Note_on_c, 0, 67, 32
3, 61680, Note_on_c, 0, 67, 0
3, 61680, Note_on_c, 0, 64, 32
3, 61800, Note_on_c, 0, 64, 0
3, 61800, Note_on_c, 0, 67, 32
3, 61920, Note_on_c, 0, 67, 0
3, 61920, Note_on_c, 0, 60, 40
3, 62040, Note_on_c, 0, 60, 0
3, 62040, Note_on_c, 0, 67, 31
3, 62160, Note_on_c, 0, 67, 0
3, 62160, Note_on_c, 0, 64, 31
3, 62280, Note_on_c, 0, 64, 0
3, 62280, Note_on_c, 0, 67, 31
3, 62400, Note_on_c, 0, 67, 0
3, 62400, Note_on_c, 0, 62, 40
3, 62520, Note_on_c, 0, 62, 0
3, 62520, Note_on_c, 0, 67, 30
3, 62640, Note_on_c, 0, 67, 0
3, 62640, Note_on_c, 0, 65, 30
3, 62760, Note_on_c, 0, 65, 0
3, 62760, Note_on_c, 0, 67, 30
3, 62880, Note_on_c, 0, 67, 0
3, 62880, Note_on_c, 0, 62, 40
3, 63000, Note_on_c, 0, 62, 0
3, 63000, Note_on_c, 0, 67, 33
3, 63120, Note_on_c, 0, 67, 0
3, 63120, Note_on_c, 0, 65, 33
3, 63240, Note_on_c, 0, 65, 0
3, 63240, Note_on_c, 0, 67, 33
3, 63360, Note_on_c, 0, 67, 0
3, 63360, Note_on_c, 0, 60, 40
3, 63420, Note_on_c, 0, 60, 0
3, 63480, Note_on_c, 0, 67, 32
3, 63540, Note_on_c, 0, 67, 0
3, 63600, Note_on_c, 0, 64, 32
3, 63660, Note_on_c, 0, 64, 0
3, 63720, Note_on_c, 0, 67, 32
3, 63780, Note_on_c, 0, 67, 0
3, 63840, Note_on_c, 0, 60, 46
3, 63900, Note_on_c, 0, 60, 0
3, 63960, Note_on_c, 0, 67, 35
3, 64020, Note_on_c, 0, 67, 0
3, 64080, Note_on_c, 0, 64, 36
3, 64140, Note_on_c, 0, 64, 0
3, 64200, Note_on_c, 0, 67, 38
3, 64260, Note_on_c, 0, 67, 0
3, 64320, Note_on_c, 0, 62, 49
3, 64440, Note_on_c, 0, 62, 0
3, 64440, Note_on_c, 0, 67, 39
3, 64560, Note_on_c, 0, 67, 0
3, 64560, Note_on_c, 0, 65, 39
3, 64680, Note_on_c, 0, 65, 0
3, 64680, Note_on_c, 0, 67, 39
3, 64800, Note_on_c, 0, 67, 0
3, 64800, Note_on_c, 0, 62, 50
3, 64920, Note_on_c, 0, 62, 0
3, 64920, Note_on_c, 0, 67, 40
3, 65040, Note_on_c, 0, 67, 0
3, 65040, Note_on_c, 0, 65, 40
3, 65160, Note_on_c, 0, 65, 0
3, 65160, Note_on_c, 0, 67, 40
3, 65280, Note_on_c, 0, 67, 0
3, 65280, Note_on_c, 0, 60, 48
3, 65400, Note_on_c, 0, 60, 0
3, 65400, Note_on_c, 0, 67, 32
3, 65520, Note_on_c, 0, 67, 0
3, 65520, Note_on_c, 0, 64, 32
3, 65640, Note_on_c, 0, 64, 0
3, 65640, Note_on_c, 0, 67, 32
3, 65760, Note_on_c, 0, 67, 0
3, 65760, Note_on_c, 0, 60, 52
3, 65880, Note_on_c, 0, 60, 0
3, 65880, Note_on_c, 0, 67, 39
3, 66000, Note_on_c, 0, 67, 0
3, 66000, Note_on_c, 0, 64, 42
3, 66120, Note_on_c, 0, 64, 0
3, 66120, Note_on_c, 0, 67, 45
3, 66240, Note_on_c, 0, 67, 0
3, 66240, Note_on_c, 0, 52, 65
3, 66360, Note_on_c, 0, 52, 0
3, 66360, Note_on_c, 0, 60, 55
3, 66480, Note_on_c, 0, 60, 0
3, 66480, Note_on_c, 0, 55, 55
3, 66600, Note_on_c, 0, 55, 0
3, 66600, Note_on_c, 0, 60, 55
3, 66720, Note_on_c, 0, 60, 0
3, 66720, Note_on_c, 0, 52, 63
3, 66840, Note_on_c, 0, 52, 0
3, 66840, Note_on_c, 0, 60, 51
3, 66960, Note_on_c, 0, 60, 0
3, 66960, Note_on_c, 0, 55, 51
3, 67080, Note_on_c, 0, 55, 0
3, 67080, Note_on_c, 0, 60, 51
3, 67200, Note_on_c, 0, 60, 0
3, 67200, Note_on_c, 0, 53, 58
3, 67320, Note_on_c, 0, 53, 0
3, 67320, Note_on_c, 0, 60, 45
3, 67440, Note_on_c, 0, 60, 0
3, 67440, Note_on_c, 0, 57, 45
3, 67560, Note_on_c, 0, 57, 0
3, 67560, Note_on_c, 0, 60, 45
3, 67680, Note_on_c, 0, 60, 0
3, 67680, Note_on_c, 0, 52, 51
3, 67800, Note_on_c, 0, 52, 0
3, 67800, Note_on_c, 0, 61, 44
3, 67920, Note_on_c, 0, 61, 0
3, 67920, Note_on_c, 0, 55, 44
3, 68040, Note_on_c, 0, 55, 0
3, 68040, Note_on_c, 0, 61, 44
3, 68160, Note_on_c, 0, 61, 0
3, 68160, Note_on_c, 0, 50, 51
3, 68280, Note_on_c, 0, 50, 0
3, 68280, Note_on_c, 0, 60, 43
3, 68400, Note_on_c, 0, 60, 0
3, 68400, Note_on_c, 0, 57, 43
3, 68520, Note_on_c, 0, 57, 0
3, 68520, Note_on_c, 0, 60, 43
3, 68640, Note_on_c, 0, 60, 0
3, 68640, Note_on_c, 0, 55, 51
3, 68760, Note_on_c, 0, 55, 0
3, 68760, Note_on_c, 0, 62, 43
3, 68880, Note_on_c, 0, 62, 0
3, 68880, Note_on_c, 0, 59, 43
3, 69000, Note_on_c, 0, 59, 0
3, 69000, Note_on_c, 0, 62, 43
3, 69120, Note_on_c, 0, 62, 0
3, 69120, Note_on_c, 0, 48, 47
3, 69240, Note_on_c, 0, 48, 0
3, 69240, Note_on_c, 0, 60, 41
3, 69360, Note_on_c, 0, 60, 0
3, 69360, Note_on_c, 0, 52, 41
3, 69480, Note_on_c, 0, 52, 0
3, 69480, Note_on_c, 0, 60, 41
3, 69600, Note_on_c, 0, 60, 0
3, 69600, Note_on_c, 0, 53, 47
3, 69720, Note_on_c, 0, 53, 0
3, 69720, Note_on_c, 0, 62, 41
3, 69840, Note_on_c, 0, 62, 0
3, 69840, Note_on_c, 0, 57, 41
3, 69960, Note_on_c, 0, 57, 0
3, 69960, Note_on_c, 0, 62, 41
3, 70080, Note_on_c, 0, 62, 0
3, 70080, Note_on_c, 0, 55, 47
3, 70200, Note_on_c, 0, 55, 0
3, 70200, Note_on_c, 0, 64, 40
3, 70320, Note_on_c, 0, 64, 0
3, 70320, Note_on_c, 0, 60, 40
3, 70440, Note_on_c, 0, 60, 0
3, 70440, Note_on_c, 0, 64, 40
3, 70560, Note_on_c, 0, 64, 0
3, 70560, Note_on_c, 0, 55, 47
3, 70680, Note_on_c, 0, 55, 0
3, 70680, Note_on_c, 0, 65, 42
3, 70800, Note_on_c, 0, 65, 0
3, 70800, Note_on_c, 0, 62, 42
3, 70920, Note_on_c, 0, 62, 0
3, 70920, Note_on_c, 0, 65, 42
3, 71040, Note_on_c, 0, 65, 0
3, 71040, Note_on_c, 0, 52, 47
3, 71160, Note_on_c, 0, 52, 0
3, 71160, Note_on_c, 0, 60, 41
3, 71280, Note_on_c, 0, 60, 0
3, 71280, Note_on_c, 0, 55, 41
3, 71400, Note_on_c, 0, 55, 0
3, 71400, Note_on_c, 0, 60, 41
3, 71520, Note_on_c, 0, 60, 0
3, 71520, Note_on_c, 0, 53, 47
3, 71640, Note_on_c, 0, 53, 0
3, 71640, Note_on_c, 0, 60, 41
3, 71760, Note_on_c, 0, 60, 0
3, 71760, Note_on_c, 0, 57, 41
3, 71880, Note_on_c, 0, 57, 0
3, 71880, Note_on_c, 0, 60, 41
3, 72000, Note_on_c, 0, 60, 0
3, 72000, Note_on_c, 0, 55, 47
3, 72120, Note_on_c, 0, 55, 0
3, 72120, Note_on_c, 0, 64, 40
3, 72240, Note_on_c, 0, 64, 0
3, 72240, Note_on_c, 0, 60, 40
3, 72360, Note_on_c, 0, 60, 0
3, 72360, Note_on_c, 0, 64, 40
3, 72480, Note_on_c, 0, 64, 0
3, 72480, Note_on_c, 0, 55, 47
3, 72600, Note_on_c, 0, 55, 0
3, 72600, Note_on_c, 0, 65, 42
3, 72720, Note_on_c, 0, 65, 0
3, 72720, Note_on_c, 0, 62, 42
3, 72840, Note_on_c, 0, 62, 0
3, 72840, Note_on_c, 0, 65, 42
3, 72960, Note_on_c, 0, 65, 0
3, 72960, Note_on_c, 0, 60, 39
3, 72960, Note_on_c, 0, 64, 47
3, 73440, Note_on_c, 0, 64, 0
3, 73440, Note_on_c, 0, 60, 0
3, 75360, Note_on_c, 0, 41, 59
3, 75360, Note_on_c, 0, 53, 70
3, 75480, Note_on_c, 0, 53, 0
3, 75480, Note_on_c, 0, 41, 0
3, 75840, Note_on_c, 0, 55, 63
3, 75840, Note_on_c, 0, 43, 53
3, 75960, Note_on_c, 0, 43, 0
3, 75960, Note_on_c, 0, 55, 0
3, 76320, Note_on_c, 0, 43, 53
3, 76320, Note_on_c, 0, 55, 63
3, 76440, Note_on_c, 0, 55, 0
3, 76440, Note_on_c, 0, 43, 0
3, 76800, Note_on_c, 0, 36, 63
3, 76800, Note_on_c, 0, 48, 63
3, 77280, Note_on_c, 0, 48, 0
3, 77280, Note_on_c, 0, 36, 0
3, 79200, Note_on_c, 0, 41, 59
3, 79200, Note_on_c, 0, 53, 70
3, 79320, Note_on_c, 0, 53, 0
3, 79320, Note_on_c, 0, 41, 0
3, 79680, Note_on_c, 0, 55, 63
3, 79680, Note_on_c, 0, 43, 53
3, 79800, Note_on_c, 0, 43, 0
3, 79800, Note_on_c, 0, 55, 0
3, 80160, Note_on_c, 0, 53, 63
3, 80166, Note_on_c, 0, 43, 53
3, 80400, Note_on_c, 0, 53, 0
3, 80406, Note_on_c, 0, 43, 0
3, 80640, Note_on_c, 0, 48, 56
3, 81555, Note_on_c, 0, 48, 0
3, 81555, Note_on_c, 0, 36, 49
3, 81570, Note_on_c, 0, 40, 53
3, 81585, Note_on_c, 0, 43, 56
3, 81600, Note_on_c, 0, 48, 60
3, 81820, Note_on_c, 0, 40, 0
3, 81840, Note_on_c, 0, 36, 0
3, 81840, Note_on_c, 0, 43, 0
3, 81840, Note_on_c, 0, 48, 0
3, 82515, Note_on_c, 0, 48, 45
3, 82530, Note_on_c, 0, 52, 48
3, 82545, Note_on_c, 0, 55, 51
3, 82560, Note_on_c, 0, 60, 53
3, 82680, Note_on_c, 0, 60, 0
3, 82680, Note_on_c, 0, 48, 0
3, 82680, Note_on_c, 0, 52, 0
3, 82680, Note_on_c, 0, 55, 0
3, 83520, Note_on_c, 0, 60, 44
3, 83640, Note_on_c, 0, 60, 0
3, 83640, Note_on_c, 0, 70, 37
3, 83760, Note_on_c, 0, 70, 0
3, 83760, Note_on_c, 0, 67, 37
3, 83880, Note_on_c, 0, 67, 0
3, 83880, Note_on_c, 0, 70, 37
3, 84000, Note_on_c, 0, 70, 0
3, 84000, Note_on_c, 0, 60, 44
3, 84120, Note_on_c, 0, 60, 0
3, 84120, Note_on_c, 0, 70, 39
3, 84240, Note_on_c, 0, 70, 0
3, 84240, Note_on_c, 0, 67, 39
3, 84360, Note_on_c, 0, 67, 0
3, 84360, Note_on_c, 0, 70, 39
3, 84480, Note_on_c, 0, 70, 0
3, 84480, Note_on_c, 0, 60, 44
3, 84600, Note_on_c, 0, 60, 0
3, 84600, Note_on_c, 0, 69, 37
3, 84720, Note_on_c, 0, 69, 0
3, 84720, Note_on_c, 0, 65, 37
3, 84840, Note_on_c, 0, 65, 0
3, 84840, Note_on_c, 0, 69, 37
3, 84960, Note_on_c, 0, 69, 0
3, 84960, Note_on_c, 0, 60, 44
3, 85080, Note_on_c, 0, 60, 0
3, 85080, Note_on_c, 0, 69, 39
3, 85200, Note_on_c, 0, 69, 0
3, 85200, Note_on_c, 0, 65, 39
3, 85320, Note_on_c, 0, 65, 0
3, 85320, Note_on_c, 0, 69, 39
3, 85440, Note_on_c, 0, 69, 0
3, 85440, Note_on_c, 0, 60, 44
3, 85560, Note_on_c, 0, 60, 0
3, 85560, Note_on_c, 0, 67, 37
3, 85680, Note_on_c, 0, 67, 0
3, 85680, Note_on_c, 0, 64, 37
3, 85800, Note_on_c, 0, 64, 0
3, 85800, Note_on_c, 0, 67, 37
3, 85920, Note_on_c, 0, 67, 0
3, 85920, Note_on_c, 0, 60, 44
3, 86040, Note_on_c, 0, 60, 0
3, 86040, Note_on_c, 0, 67, 39
3, 86160, Note_on_c, 0, 67, 0
3, 86160, Note_on_c, 0, 64, 39
3, 86280, Note_on_c, 0, 64, 0
3, 86280, Note_on_c, 0, 67, 39
3, 86400, Note_on_c, 0, 67, 0
3, 86400, Note_on_c, 0, 57, 44
3, 86520, Note_on_c, 0, 57, 0
3, 86520, Note_on_c, 0, 63, 39
3, 86640, Note_on_c, 0, 63, 0
3, 86640, Note_on_c, 0, 60, 39
3, 86760, Note_on_c, 0, 60, 0
3, 86760, Note_on_c, 0, 63, 39
3, 86880, Note_on_c, 0, 63, 0
3, 86880, Note_on_c, 0, 57, 44
3, 87000, Note_on_c, 0, 57, 0
3, 87000, Note_on_c, 0, 63, 39
3, 87120, Note_on_c, 0, 63, 0
3, 87120, Note_on_c, 0, 60, 39
3, 87240, Note_on_c, 0, 60, 0
3, 87240, Note_on_c, 0, 63, 39
3, 87360, Note_on_c, 0, 63, 0
3, 87360, Note_on_c, 0, 57, 44
3, 87480, Note_on_c, 0, 57, 0
3, 87480, Note_on_c, 0, 63, 40
3, 87600, Note_on_c, 0, 63, 0
3, 87600, Note_on_c, 0, 60, 41
3, 87720, Note_on_c, 0, 60, 0
3, 87720, Note_on_c, 0, 63, 42
3, 87840, Note_on_c, 0, 63, 0
3, 87840, Note_on_c, 0, 57, 49
3, 87960, Note_on_c, 0, 57, 0
3, 87960, Note_on_c, 0, 63, 45
3, 88080, Note_on_c, 0, 63, 0
3, 88080, Note_on_c, 0, 60, 46
3, 88200, Note_on_c, 0, 60, 0
3, 88200, Note_on_c, 0, 63, 47
3, 88320, Note_on_c, 0, 63, 0
3, 88320, Note_on_c, 0, 58, 55
3, 88440, Note_on_c, 0, 58, 0
3, 88440, Note_on_c, 0, 67, 48
3, 88560, Note_on_c, 0, 67, 0
3, 88560, Note_on_c, 0, 62, 48
3, 88680, Note_on_c, 0, 62, 0
3, 88680, Note_on_c, 0, 67, 48
3, 88800, Note_on_c, 0, 67, 0
3, 88800, Note_on_c, 0, 58, 55
3, 88920, Note_on_c, 0, 58, 0
3, 88920, Note_on_c, 0, 67, 48
3, 89040, Note_on_c, 0, 67, 0
3, 89040, Note_on_c, 0, 62, 48
3, 89160, Note_on_c, 0, 62, 0
3, 89160, Note_on_c, 0, 67, 48
3, 89280, Note_on_c, 0, 67, 0
3, 89280, Note_on_c, 0, 58, 55
3, 89400, Note_on_c, 0, 58, 0
3, 89400, Note_on_c, 0, 67, 48
3, 89520, Note_on_c, 0, 67, 0
3, 89520, Note_on_c, 0, 62, 48
3, 89640, Note_on_c, 0, 62, 0
3, 89640, Note_on_c, 0, 67, 48
3, 89760, Note_on_c, 0, 67, 0
3, 89760, Note_on_c, 0, 58, 55
3, 89880, Note_on_c, 0, 58, 0
3, 89880, Note_on_c, 0, 67, 48
3, 90000, Note_on_c, 0, 67, 0
3, 90000, Note_on_c, 0, 62, 48
3, 90120, Note_on_c, 0, 62, 0
3, 90120, Note_on_c, 0, 67, 48
3, 90240, Note_on_c, 0, 67, 0
3, 90240, Note_on_c, 0, 58, 55
3, 90360, Note_on_c, 0, 58, 0
3, 90360, Note_on_c, 0, 67, 45
3, 90480, Note_on_c, 0, 67, 0
3, 90480, Note_on_c, 0, 64, 45
3, 90600, Note_on_c, 0, 64, 0
3, 90600, Note_on_c, 0, 67, 45
3, 90720, Note_on_c, 0, 67, 0
3, 90720, Note_on_c, 0, 58, 52
3, 90840, Note_on_c, 0, 58, 0
3, 90840, Note_on_c, 0, 67, 42
3, 90960, Note_on_c, 0, 67, 0
3, 90960, Note_on_c, 0, 64, 42
3, 91080, Note_on_c, 0, 64, 0
3, 91080, Note_on_c, 0, 67, 42
3, 91200, Note_on_c, 0, 67, 0
3, 91200, Note_on_c, 0, 57, 55
3, 91320, Note_on_c, 0, 57, 0
3, 91320, Note_on_c, 0, 65, 46
3, 91440, Note_on_c, 0, 65, 0
3, 91440, Note_on_c, 0, 60, 46
3, 91560, Note_on_c, 0, 60, 0
3, 91560, Note_on_c, 0, 65, 46
3, 91680, Note_on_c, 0, 65, 0
3, 91680, Note_on_c, 0, 57, 55
3, 91800, Note_on_c, 0, 57, 0
3, 91800, Note_on_c, 0, 65, 48
3, 91920, Note_on_c, 0, 65, 0
3, 91920, Note_on_c, 0, 60, 48
3, 92040, Note_on_c, 0, 60, 0
3, 92040, Note_on_c, 0, 65, 43
3, 92160, Note_on_c, 0, 65, 0
3, 92160, Note_on_c, 0, 52, 50
3, 92280, Note_on_c, 0, 52, 0
3, 92280, Note_on_c, 0, 60, 38
3, 92400, Note_on_c, 0, 60, 0
3, 92400, Note_on_c, 0, 55, 38
3, 92520, Note_on_c, 0, 55, 0
3, 92520, Note_on_c, 0, 60, 38
3, 92640, Note_on_c, 0, 60, 0
3, 92640, Note_on_c, 0, 53, 48
3, 92760, Note_on_c, 0, 53, 0
3, 92760, Note_on_c, 0, 60, 40
3, 92880, Note_on_c, 0, 60, 0
3, 92880, Note_on_c, 0, 57, 40
3, 93000, Note_on_c, 0, 57, 0
3, 93000, Note_on_c, 0, 60, 34
3, 93120, Note_on_c, 0, 60, 0
3, 93120, Note_on_c, 0, 52, 40
3, 93240, Note_on_c, 0, 52, 0
3, 93240, Note_on_c, 0, 60, 31
3, 93360, Note_on_c, 0, 60, 0
3, 93360, Note_on_c, 0, 55, 31
3, 93480, Note_on_c, 0, 55, 0
3, 93480, Note_on_c, 0, 60, 31
3, 93600, Note_on_c, 0, 60, 0
3, 93600, Note_on_c, 0, 53, 34
3, 93720, Note_on_c, 0, 53, 0
3, 93720, Note_on_c, 0, 60, 27
3, 93840, Note_on_c, 0, 60, 0
3, 93840, Note_on_c, 0, 57, 27
3, 93960, Note_on_c, 0, 57, 0
3, 93960, Note_on_c, 0, 60, 27
3, 94080, Note_on_c, 0, 60, 0
3, 94080, Note_on_c, 0, 52, 53
3, 94200, Note_on_c, 0, 52, 0
3, 94200, Note_on_c, 0, 60, 40
3, 94320, Note_on_c, 0, 60, 0
3, 94320, Note_on_c, 0, 55, 40
3, 94440, Note_on_c, 0, 55, 0
3, 94440, Note_on_c, 0, 60, 40
3, 94560, Note_on_c, 0, 60, 0
3, 94560, Note_on_c, 0, 53, 48
3, 94680, Note_on_c, 0, 53, 0
3, 94680, Note_on_c, 0, 60, 40
3, 94800, Note_on_c, 0, 60, 0
3, 94800, Note_on_c, 0, 57, 40
3, 94920, Note_on_c, 0, 57, 0
3, 94920, Note_on_c, 0, 60, 34
3, 95040, Note_on_c, 0, 60, 0
3, 95040, Note_on_c, 0, 58, 46
3, 95160, Note_on_c, 0, 58, 0
3, 95160, Note_on_c, 0, 67, 35
3, 95280, Note_on_c, 0, 67, 0
3, 95280, Note_on_c, 0, 62, 35
3, 95400, Note_on_c, 0, 62, 0
3, 95400, Note_on_c, 0, 67, 35
3, 95520, Note_on_c, 0, 67, 0
3, 95520, Note_on_c, 0, 59, 45
3, 95640, Note_on_c, 0, 59, 0
3, 95640, Note_on_c, 0, 67, 36
3, 95760, Note_on_c, 0, 67, 0
3, 95760, Note_on_c, 0, 62, 36
3, 95880, Note_on_c, 0, 62, 0
3, 95880, Note_on_c, 0, 67, 36
3, 96000, Note_on_c, 0, 67, 0
3, 96000, Note_on_c, 0, 60, 43
3, 96120, Note_on_c, 0, 60, 0
3, 96120, Note_on_c, 0, 67, 34
3, 96240, Note_on_c, 0, 67, 0
3, 96240, Note_on_c, 0, 64, 34
3, 96360, Note_on_c, 0, 64, 0
3, 96360, Note_on_c, 0, 67, 34
3, 96480, Note_on_c, 0, 67, 0
3, 96480, Note_on_c, 0, 60, 42
3, 96600, Note_on_c, 0, 60, 0
3, 96600, Note_on_c, 0, 67, 32
3, 96720, Note_on_c, 0, 67, 0
3, 96720, Note_on_c, 0, 64, 32
3, 96840, Note_on_c, 0, 64, 0
3, 96840, Note_on_c, 0, 67, 32
3, 96960, Note_on_c, 0, 67, 0
3, 96960, Note_on_c, 0, 60, 37
3, 97080, Note_on_c, 0, 60, 0
3, 97080, Note_on_c, 0, 62, 29
3, 97200, Note_on_c, 0, 62, 0
3, 97200, Note_on_c, 0, 58, 38
3, 97320, Note_on_c, 0, 58, 0
3, 97320, Note_on_c, 0, 60, 32
3, 97440, Note_on_c, 0, 60, 0
3, 97440, Note_on_c, 0, 57, 34
3, 97560, Note_on_c, 0, 57, 0
3, 97560, Note_on_c, 0, 58, 27
3, 97680, Note_on_c, 0, 58, 0
3, 97680, Note_on_c, 0, 55, 34
3, 97800, Note_on_c, 0, 55, 0
3, 97800, Note_on_c, 0, 57, 28
3, 97920, Note_on_c, 0, 57, 0
3, 97920, Note_on_c, 0, 53, 37
3, 98040, Note_on_c, 0, 53, 0
3, 98040, Note_on_c, 0, 60, 31
3, 98160, Note_on_c, 0, 60, 0
3, 98160, Note_on_c, 0, 57, 28
3, 98280, Note_on_c, 0, 57, 0
3, 98280, Note_on_c, 0, 60, 28
3, 98400, Note_on_c, 0, 60, 0
3, 98400, Note_on_c, 0, 53, 40
3, 98520, Note_on_c, 0, 53, 0
3, 98520, Note_on_c, 0, 60, 31
3, 98640, Note_on_c, 0, 60, 0
3, 98640, Note_on_c, 0, 57, 31
3, 98760, Note_on_c, 0, 57, 0
3, 98760, Note_on_c, 0, 60, 31
3, 98880, Note_on_c, 0, 60, 0
3, 98880, Note_on_c, 0, 55, 40
3, 99000, Note_on_c, 0, 55, 0
3, 99000, Note_on_c, 0, 60, 30
3, 99120, Note_on_c, 0, 60, 0
3, 99120, Note_on_c, 0, 58, 30
3, 99240, Note_on_c, 0, 58, 0
3, 99240, Note_on_c, 0, 60, 30
3, 99360, Note_on_c, 0, 60, 0
3, 99360, Note_on_c, 0, 55, 40
3, 99480, Note_on_c, 0, 55, 0
3, 99480, Note_on_c, 0, 60, 33
3, 99600, Note_on_c, 0, 60, 0
3, 99600, Note_on_c, 0, 58, 33
3, 99720, Note_on_c, 0, 58, 0
3, 99720, Note_on_c, 0, 60, 33
3, 99840, Note_on_c, 0, 60, 0
3, 99840, Note_on_c, 0, 53, 40
3, 99960, Note_on_c, 0, 53, 0
3, 99960, Note_on_c, 0, 60, 32
3, 100080, Note_on_c, 0, 60, 0
3, 100080, Note_on_c, 0, 57, 32
3, 100200, Note_on_c, 0, 57, 0
3, 100200, Note_on_c, 0, 60, 32
3, 100320, Note_on_c, 0, 60, 0
3, 100320, Note_on_c, 0, 53, 40
3, 100440, Note_on_c, 0, 53, 0
3, 100440, Note_on_c, 0, 60, 33
3, 100560, Note_on_c, 0, 60, 0
3, 100560, Note_on_c, 0, 57, 35
3, 100680, Note_on_c, 0, 57, 0
3, 100680, Note_on_c, 0, 60, 37
3, 100800, Note_on_c, 0, 60, 0
3, 100800, Note_on_c, 0, 55, 47
3, 100920, Note_on_c, 0, 55, 0
3, 100920, Note_on_c, 0, 60, 35
3, 101040, Note_on_c, 0, 60, 0
3, 101040, Note_on_c, 0, 58, 35
3, 101100, Note_on_c, 0, 58, 0
3, 101160, Note_on_c, 0, 60, 35
3, 101220, Note_on_c, 0, 60, 0
3, 101280, Note_on_c, 0, 55, 44
3, 101400, Note_on_c, 0, 55, 0
3, 101400, Note_on_c, 0, 60, 33
3, 101520, Note_on_c, 0, 60, 0
3, 101520, Note_on_c, 0, 58, 33
3, 101580, Note_on_c, 0, 58, 0
3, 101640, Note_on_c, 0, 60, 33
3, 101700, Note_on_c, 0, 60, 0
3, 101760, Note_on_c, 0, 53, 40
3, 101880, Note_on_c, 0, 53, 0
3, 101880, Note_on_c, 0, 60, 32
3, 102000, Note_on_c, 0, 60, 0
3, 102000, Note_on_c, 0, 57, 32
3, 102120, Note_on_c, 0, 57, 0
3, 102120, Note_on_c, 0, 60, 32
3, 102240, Note_on_c, 0, 60, 0
3, 102240, Note_on_c, 0, 53, 40
3, 102360, Note_on_c, 0, 53, 0
3, 102360, Note_on_c, 0, 60, 31
3, 102480, Note_on_c, 0, 60, 0
3, 102480, Note_on_c, 0, 57, 31
3, 102600, Note_on_c, 0, 57, 0
3, 102600, Note_on_c, 0, 60, 31
3, 102720, Note_on_c, 0, 60, 0
3, 102720, Note_on_c, 0, 55, 40
3, 102840, Note_on_c, 0, 55, 0
3, 102840, Note_on_c, 0, 60, 30
3, 102960, Note_on_c, 0, 60, 0
3, 102960, Note_on_c, 0, 58, 30
3, 103080, Note_on_c, 0, 58, 0
3, 103080, Note_on_c, 0, 60, 30
3, 103200, Note_on_c, 0, 60, 0
3, 103200, Note_on_c, 0, 55, 40
3, 103320, Note_on_c, 0, 55, 0
3, 103320, Note_on_c, 0, 60, 33
3, 103440, Note_on_c, 0, 60, 0
3, 103440, Note_on_c, 0, 58, 33
3, 103560, Note_on_c, 0, 58, 0
3, 103560, Note_on_c, 0, 60, 33
3, 103680, Note_on_c, 0, 60, 0
3, 103680, Note_on_c, 0, 53, 40
3, 103740, Note_on_c, 0, 53, 0
3, 103800, Note_on_c, 0, 60, 32
3, 103860, Note_on_c, 0, 60, 0
3, 103920, Note_on_c, 0, 57, 32
3, 103980, Note_on_c, 0, 57, 0
3, 104040, Note_on_c, 0, 60, 32
3, 104100, Note_on_c, 0, 60, 0
3, 104160, Note_on_c, 0, 53, 46
3, 104220, Note_on_c, 0, 53, 0
3, 104280, Note_on_c, 0, 60, 35
3, 104340, Note_on_c, 0, 60, 0
3, 104400, Note_on_c, 0, 57, 36
3, 104460, Note_on_c, 0, 57, 0
3, 104520, Note_on_c, 0, 60, 38
3, 104580, Note_on_c, 0, 60, 0
3, 104640, Note_on_c, 0, 55, 49
3, 104760, Note_on_c, 0, 55, 0
3, 104760, Note_on_c, 0, 60, 39
3, 104880, Note_on_c, 0, 60, 0
3, 104880, Note_on_c, 0, 58, 39
3, 105000, Note_on_c, 0, 58, 0
3, 105000, Note_on_c, 0, 60, 39
3, 105120, Note_on_c, 0, 60, 0
3, 105120, Note_on_c, 0, 55, 50
3, 105240, Note_on_c, 0, 55, 0
3, 105240, Note_on_c, 0, 60, 40
3, 105360, Note_on_c, 0, 60, 0
3, 105360, Note_on_c, 0, 58, 40
3, 105480, Note_on_c, 0, 58, 0
3, 105480, Note_on_c, 0, 60, 40
3, 105600, Note_on_c, 0, 60, 0
3, 105600, Note_on_c, 0, 53, 48
3, 105720, Note_on_c, 0, 53, 0
3, 105720, Note_on_c, 0, 60, 32
3, 105840, Note_on_c, 0, 60, 0
3, 105840, Note_on_c, 0, 57, 32
3, 105960, Note_on_c, 0, 57, 0
3, 105960, Note_on_c, 0, 60, 32
3, 106080, Note_on_c, 0, 60, 0
3, 106080, Note_on_c, 0, 53, 52
3, 106200, Note_on_c, 0, 53, 0
3, 106200, Note_on_c, 0, 60, 39
3, 106320, Note_on_c, 0, 60, 0
3, 106320, Note_on_c, 0, 57, 42
3, 106440, Note_on_c, 0, 57, 0
3, 106440, Note_on_c, 0, 60, 45
3, 106560, Note_on_c, 0, 60, 0
3, 106560, Note_on_c, 0, 57, 65
3, 106680, Note_on_c, 0, 57, 0
3, 106680, Note_on_c, 0, 65, 55
3, 106800, Note_on_c, 0, 65, 0
3, 106800, Note_on_c, 0, 60, 55
3, 106920, Note_on_c, 0, 60, 0
3, 106920, Note_on_c, 0, 65, 55
3, 107040, Note_on_c, 0, 65, 0
3, 107040, Note_on_c, 0, 57, 63
3, 107160, Note_on_c, 0, 57, 0
3, 107160, Note_on_c, 0, 65, 51
3, 107280, Note_on_c, 0, 65, 0
3, 107280, Note_on_c, 0, 60, 51
3, 107400, Note_on_c, 0, 60, 0
3, 107400, Note_on_c, 0, 65, 51
3, 107520, Note_on_c, 0, 65, 0
3, 107520, Note_on_c, 0, 58, 58
3, 107640, Note_on_c, 0, 58, 0
3, 107640, Note_on_c, 0, 65, 45
3, 107760, Note_on_c, 0, 65, 0
3, 107760, Note_on_c, 0, 62, 45
3, 107880, Note_on_c, 0, 62, 0
3, 107880, Note_on_c, 0, 65, 45
3, 108000, Note_on_c, 0, 65, 0
3, 108000, Note_on_c, 0, 57, 51
3, 108120, Note_on_c, 0, 57, 0
3, 108120, Note_on_c, 0, 66, 44
3, 108240, Note_on_c, 0, 66, 0
3, 108240, Note_on_c, 0, 60, 44
3, 108360, Note_on_c, 0, 60, 0
3, 108360, Note_on_c, 0, 66, 44
3, 108480, Note_on_c, 0, 66, 0
3, 108480, Note_on_c, 0, 55, 51
3, 108600, Note_on_c, 0, 55, 0
3, 108600, Note_on_c, 0, 65, 43
3, 108720, Note_on_c, 0, 65, 0
3, 108720, Note_on_c, 0, 62, 43
3, 108840, Note_on_c, 0, 62, 0
3, 108840, Note_on_c, 0, 65, 43
3, 108960, Note_on_c, 0, 65, 0
3, 108960, Note_on_c, 0, 60, 51
3, 109080, Note_on_c, 0, 60, 0
3, 109080, Note_on_c, 0, 67, 43
3, 109200, Note_on_c, 0, 67, 0
3, 109200, Note_on_c, 0, 64, 43
3, 109320, Note_on_c, 0, 64, 0
3, 109320, Note_on_c, 0, 67, 43
3, 109440, Note_on_c, 0, 67, 0
3, 109440, Note_on_c, 0, 53, 47
3, 109560, Note_on_c, 0, 53, 0
3, 109560, Note_on_c, 0, 65, 41
3, 109680, Note_on_c, 0, 65, 0
3, 109680, Note_on_c, 0, 57, 41
3, 109800, Note_on_c, 0, 57, 0
3, 109800, Note_on_c, 0, 65, 41
3, 109920, Note_on_c, 0, 65, 0
3, 109920, Note_on_c, 0, 58, 47
3, 110040, Note_on_c, 0, 58, 0
3, 110040, Note_on_c, 0, 67, 41
3, 110160, Note_on_c, 0, 67, 0
3, 110160, Note_on_c, 0, 62, 41
3, 110280, Note_on_c, 0, 62, 0
3, 110280, Note_on_c, 0, 67, 41
3, 110400, Note_on_c, 0, 67, 0
3, 110400, Note_on_c, 0, 60, 47
3, 110520, Note_on_c, 0, 60, 0
3, 110520, Note_on_c, 0, 69, 40
3, 110640, Note_on_c, 0, 69, 0
3, 110640, Note_on_c, 0, 65, 40
3, 110760, Note_on_c, 0, 65, 0
3, 110760, Note_on_c, 0, 69, 40
3, 110880, Note_on_c, 0, 69, 0
3, 110880, Note_on_c, 0, 60, 47
3, 111000, Note_on_c, 0, 60, 0
3, 111000, Note_on_c, 0, 67, 42
3, 111120, Note_on_c, 0, 67, 0
3, 111120, Note_on_c, 0, 64, 42
3, 111240, Note_on_c, 0, 64, 0
3, 111240, Note_on_c, 0, 67, 42
3, 111360, Note_on_c, 0, 67, 0
3, 111360, Note_on_c, 0, 57, 47
3, 111480, Note_on_c, 0, 57, 0
3, 111480, Note_on_c, 0, 65, 41
3, 111600, Note_on_c, 0, 65, 0
3, 111600, Note_on_c, 0, 60, 41
3, 111720, Note_on_c, 0, 60, 0
3, 111720, Note_on_c, 0, 65, 41
3, 111840, Note_on_c, 0, 65, 0
3, 111840, Note_on_c, 0, 58, 47
3, 111960, Note_on_c, 0, 58, 0
3, 111960, Note_on_c, 0, 65, 41
3, 112080, Note_on_c, 0, 65, 0
3, 112080, Note_on_c, 0, 62, 41
3, 112200, Note_on_c, 0, 62, 0
3, 112200, Note_on_c, 0, 65, 41
3, 112320, Note_on_c, 0, 65, 0
3, 112320, Note_on_c, 0, 60, 47
3, 112440, Note_on_c, 0, 60, 0
3, 112440, Note_on_c, 0, 69, 38
3, 112560, Note_on_c, 0, 69, 0
3, 112560, Note_on_c, 0, 65, 38
3, 112680, Note_on_c, 0, 65, 0
3, 112680, Note_on_c, 0, 69, 38
3, 112800, Note_on_c, 0, 69, 0
3, 112800, Note_on_c, 0, 60, 47
3, 112920, Note_on_c, 0, 60, 0
3, 112920, Note_on_c, 0, 64, 42
3, 113040, Note_on_c, 0, 64, 0
3, 113040, Note_on_c, 0, 60, 42
3, 113160, Note_on_c, 0, 60, 0
3, 113160, Note_on_c, 0, 64, 42
3, 113280, Note_on_c, 0, 64, 0
3, 113280, Note_on_c, 0, 53, 39
3, 113280, Note_on_c, 0, 65, 47
3, 113518, Note_on_c, 0, 65, 0
3, 113760, Note_on_c, 0, 53, 0
3, 115680, Note_on_c, 0, 34, 59
3, 115680, Note_on_c, 0, 46, 70
3, 115800, Note_on_c, 0, 46, 0
3, 115800, Note_on_c, 0, 34, 0
3, 116160, Note_on_c, 0, 36, 53
3, 116160, Note_on_c, 0, 48, 63
3, 116280, Note_on_c, 0, 48, 0
3, 116280, Note_on_c, 0, 36, 0
3, 116640, Note_on_c, 0, 48, 63
3, 116640, Note_on_c, 0, 36, 53
3, 116760, Note_on_c, 0, 36, 0
3, 116760, Note_on_c, 0, 48, 0
3, 117120, Note_on_c, 0, 29, 50
3, 117120, Note_on_c, 0, 41, 50
3, 117600, Note_on_c, 0, 41, 0
3, 117600, Note_on_c, 0, 29, 0
3, 119520, Note_on_c, 0, 34, 59
3, 119520, Note_on_c, 0, 46, 70
3, 119640, Note_on_c, 0, 46, 0
3, 119640, Note_on_c, 0, 34, 0
3, 120000, Note_on_c, 0, 36, 53
3, 120000, Note_on_c, 0, 48, 63
3, 120120, Note_on_c, 0, 48, 0
3, 120120, Note_on_c, 0, 36, 0
3, 120480, Note_on_c, 0, 58, 63
3, 120480, Note_on_c, 0, 48, 53
3, 120720, Note_on_c, 0, 48, 0
3, 120720, Note_on_c, 0, 58, 0
3, 120960, Note_on_c, 0, 53, 56
3, 121875, Note_on_c, 0, 53, 0
3, 121875, Note_on_c, 0, 41, 49
3, 121890, Note_on_c, 0, 45, 53
3, 121905, Note_on_c, 0, 48, 56
3, 121920, Note_on_c, 0, 53, 60
3, 122140, Note_on_c, 0, 45, 0
3, 122160, Note_on_c, 0, 41, 0
3, 122160, Note_on_c, 0, 48, 0
3, 122160, Note_on_c, 0, 53, 0
3, 122835, Note_on_c, 0, 48, 45
3, 122850, Note_on_c, 0, 52, 48
3, 122865, Note_on_c, 0, 55, 51
3, 122880, Note_on_c, 0, 60, 53
3, 123000, Note_on_c, 0, 60, 0
3, 123000, Note_on_c, 0, 48, 0
3, 123000, Note_on_c, 0, 52, 0
3, 123000, Note_on_c, 0, 55, 0
3, 123840, Note_on_c, 0, 60, 44
3, 123960, Note_on_c, 0, 60, 0
3, 123960, Note_on_c, 0, 70, 37
3, 124080, Note_on_c, 0, 70, 0
3, 124080, Note_on_c, 0, 67, 37
3, 124200, Note_on_c, 0, 67, 0
3, 124200, Note_on_c, 0, 70, 37
3, 124320, Note_on_c, 0, 70, 0
3, 124320, Note_on_c, 0, 60, 44
3, 124440, Note_on_c, 0, 60, 0
3, 124440, Note_on_c, 0, 70, 39
3, 124560, Note_on_c, 0, 70, 0
3, 124560, Note_on_c, 0, 67, 39
3, 124680, Note_on_c, 0, 67, 0
3, 124680, Note_on_c, 0, 70, 39
3, 124800, Note_on_c, 0, 70, 0
3, 124800, Note_on_c, 0, 60, 44
3, 124920, Note_on_c, 0, 60, 0
3, 124920, Note_on_c, 0, 69, 37
3, 125040, Note_on_c, 0, 69, 0
3, 125040, Note_on_c, 0, 65, 37
3, 125160, Note_on_c, 0, 65, 0
3, 125160, Note_on_c, 0, 69, 37
3, 125280, Note_on_c, 0, 69, 0
3, 125280, Note_on_c, 0, 60, 44
3, 125400, Note_on_c, 0, 60, 0
3, 125400, Note_on_c, 0, 69, 39
3, 125520, Note_on_c, 0, 69, 0
3, 125520, Note_on_c, 0, 65, 39
3, 125640, Note_on_c, 0, 65, 0
3, 125640, Note_on_c, 0, 69, 39
3, 125760, Note_on_c, 0, 69, 0
3, 125760, Note_on_c, 0, 60, 44
3, 125880, Note_on_c, 0, 60, 0
3, 125880, Note_on_c, 0, 67, 37
3, 126000, Note_on_c, 0, 67, 0
3, 126000, Note_on_c, 0, 64, 37
3, 126120, Note_on_c, 0, 64, 0
3, 126120, Note_on_c, 0, 67, 37
3, 126240, Note_on_c, 0, 67, 0
3, 126240, Note_on_c, 0, 60, 44
3, 126360, Note_on_c, 0, 60, 0
3, 126360, Note_on_c, 0, 67, 39
3, 126480, Note_on_c, 0, 67, 0
3, 126480, Note_on_c, 0, 64, 39
3, 126600, Note_on_c, 0, 64, 0
3, 126600, Note_on_c, 0, 67, 39
3, 126720, Note_on_c, 0, 67, 0
3, 126720, Note_on_c, 0, 57, 44
3, 126840, Note_on_c, 0, 57, 0
3, 126840, Note_on_c, 0, 63, 39
3, 126960, Note_on_c, 0, 63, 0
3, 126960, Note_on_c, 0, 60, 39
3, 127080, Note_on_c, 0, 60, 0
3, 127080, Note_on_c, 0, 63, 39
3, 127200, Note_on_c, 0, 63, 0
3, 127200, Note_on_c, 0, 57, 44
3, 127320, Note_on_c, 0, 57, 0
3, 127320, Note_on_c, 0, 63, 39
3, 127440, Note_on_c, 0, 63, 0
3, 127440, Note_on_c, 0, 60, 39
3, 127560, Note_on_c, 0, 60, 0
3, 127560, Note_on_c, 0, 63, 39
3, 127680, Note_on_c, 0, 63, 0
3, 127680, Note_on_c, 0, 57, 44
3, 127800, Note_on_c, 0, 57, 0
3, 127800, Note_on_c, 0, 63, 40
3, 127920, Note_on_c, 0, 63, 0
3, 127920, Note_on_c, 0, 60, 41
3, 128040, Note_on_c, 0, 60, 0
3, 128040, Note_on_c, 0, 63, 42
3, 128160, Note_on_c, 0, 63, 0
3, 128160, Note_on_c, 0, 57, 49
3, 128280, Note_on_c, 0, 57, 0
3, 128280, Note_on_c, 0, 63, 45
3, 128400, Note_on_c, 0, 63, 0
3, 128400, Note_on_c, 0, 60, 46
3, 128520, Note_on_c, 0, 60, 0
3, 128520, Note_on_c, 0, 63, 47
3, 128640, Note_on_c, 0, 63, 0
3, 128640, Note_on_c, 0, 58, 55
3, 128760, Note_on_c, 0, 58, 0
3, 128760, Note_on_c, 0, 67, 48
3, 128880, Note_on_c, 0, 67, 0
3, 128880, Note_on_c, 0, 62, 48
3, 129000, Note_on_c, 0, 62, 0
3, 129000, Note_on_c, 0, 67, 48
3, 129120, Note_on_c, 0, 67, 0
3, 129120, Note_on_c, 0, 58, 55
3, 129240, Note_on_c, 0, 58, 0
3, 129240, Note_on_c, 0, 67, 48
3, 129360, Note_on_c, 0, 67, 0
3, 129360, Note_on_c, 0, 62, 48
3, 129480, Note_on_c, 0, 62, 0
3, 129480, Note_on_c, 0, 67, 48
3, 129600, Note_on_c, 0, 67, 0
3, 129600, Note_on_c, 0, 58, 55
3, 129720, Note_on_c, 0, 58, 0
3, 129720, Note_on_c, 0, 67, 48
3, 129840, Note_on_c, 0, 67, 0
3, 129840, Note_on_c, 0, 62, 48
3, 129960, Note_on_c, 0, 62, 0
3, 129960, Note_on_c, 0, 67, 48
3, 130080, Note_on_c, 0, 67, 0
3, 130080, Note_on_c, 0, 58, 55
3, 130200, Note_on_c, 0, 58, 0
3, 130200, Note_on_c, 0, 67, 48
3, 130320, Note_on_c, 0, 67, 0
3, 130320, Note_on_c, 0, 62, 48
3, 130440, Note_on_c, 0, 62, 0
3, 130440, Note_on_c, 0, 67, 48
3, 130560, Note_on_c, 0, 67, 0
3, 130560, Note_on_c, 0, 58, 55
3, 130680, Note_on_c, 0, 58, 0
3, 130680, Note_on_c, 0, 67, 45
3, 130800, Note_on_c, 0, 67, 0
3, 130800, Note_on_c, 0, 64, 45
3, 130920, Note_on_c, 0, 64, 0
3, 130920, Note_on_c, 0, 67, 45
3, 131040, Note_on_c, 0, 67, 0
3, 131040, Note_on_c, 0, 58, 52
3, 131160, Note_on_c, 0, 58, 0
3, 131160, Note_on_c, 0, 67, 42
3, 131280, Note_on_c, 0, 67, 0
3, 131280, Note_on_c, 0, 64, 42
3, 131400, Note_on_c, 0, 64, 0
3, 131400, Note_on_c, 0, 67, 42
3, 131520, Note_on_c, 0, 67, 0
3, 131520, Note_on_c, 0, 57, 55
3, 131640, Note_on_c, 0, 57, 0
3, 131640, Note_on_c, 0, 65, 46
3, 131760, Note_on_c, 0, 65, 0
3, 131760, Note_on_c, 0, 60, 46
3, 131880, Note_on_c, 0, 60, 0
3, 131880, Note_on_c, 0, 65, 46
3, 132000, Note_on_c, 0, 65, 0
3, 132000, Note_on_c, 0, 57, 55
3, 132120, Note_on_c, 0, 57, 0
3, 132120, Note_on_c, 0, 65, 48
3, 132240, Note_on_c, 0, 65, 0
3, 132240, Note_on_c, 0, 60, 48
3, 132360, Note_on_c, 0, 60, 0
3, 132360, Note_on_c, 0, 65, 43
3, 132480, Note_on_c, 0, 65, 0
3, 132480, Note_on_c, 0, 52, 50
3, 132600, Note_on_c, 0, 52, 0
3, 132600, Note_on_c, 0, 60, 38
3, 132720, Note_on_c, 0, 60, 0
3, 132720, Note_on_c, 0, 55, 38
3, 132840, Note_on_c, 0, 55, 0
3, 132840, Note_on_c, 0, 60, 38
3, 132960, Note_on_c, 0, 60, 0
3, 132960, Note_on_c, 0, 53, 48
3, 133080, Note_on_c, 0, 53, 0
3, 133080, Note_on_c, 0, 60, 40
3, 133200, Note_on_c, 0, 60, 0
3, 133200, Note_on_c, 0, 57, 40
3, 133320, Note_on_c, 0, 57, 0
3, 133320, Note_on_c, 0, 60, 34
3, 133440, Note_on_c, 0, 60, 0
3, 133440, Note_on_c, 0, 52, 40
3, 133560, Note_on_c, 0, 52, 0
3, 133560, Note_on_c, 0, 60, 31
3, 133680, Note_on_c, 0, 60, 0
3, 133680, Note_on_c, 0, 55, 31
3, 133800, Note_on_c, 0, 55, 0
3, 133800, Note_on_c, 0, 60, 31
3, 133920, Note_on_c, 0, 60, 0
3, 133920, Note_on_c, 0, 53, 34
3, 134040, Note_on_c, 0, 53, 0
3, 134040, Note_on_c, 0, 60, 27
3, 134160, Note_on_c, 0, 60, 0
3, 134160, Note_on_c, 0, 57, 27
3, 134280, Note_on_c, 0, 57, 0
3, 134280, Note_on_c, 0, 60, 27
3, 134400, Note_on_c, 0, 60, 0
3, 134400, Note_on_c, 0, 52, 53
3, 134520, Note_on_c, 0, 52, 0
3, 134520, Note_on_c, 0, 60, 40
3, 134640, Note_on_c, 0, 60, 0
3, 134640, Note_on_c, 0, 55, 40
3, 134760, Note_on_c, 0, 55, 0
3, 134760, Note_on_c, 0, 60, 40
3, 134880, Note_on_c, 0, 60, 0
3, 134880, Note_on_c, 0, 53, 48
3, 135000, Note_on_c, 0, 53, 0
3, 135000, Note_on_c, 0, 60, 40
3, 135120, Note_on_c, 0, 60, 0
3, 135120, Note_on_c, 0, 57, 40
3, 135240, Note_on_c, 0, 57, 0
3, 135240, Note_on_c, 0, 60, 34
3, 135360, Note_on_c, 0, 60, 0
3, 135360, Note_on_c, 0, 58, 46
3, 135480, Note_on_c, 0, 58, 0
3, 135480, Note_on_c, 0, 67, 35
3, 135600, Note_on_c, 0, 67, 0
3, 135600, Note_on_c, 0, 62, 35
3, 135720, Note_on_c, 0, 62, 0
3, 135720, Note_on_c, 0, 67, 35
3, 135840, Note_on_c, 0, 67, 0
3, 135840, Note_on_c, 0, 59, 45
3, 135960, Note_on_c, 0, 59, 0
3, 135960, Note_on_c, 0, 67, 36
3, 136080, Note_on_c, 0, 67, 0
3, 136080, Note_on_c, 0, 62, 36
3, 136200, Note_on_c, 0, 62, 0
3, 136200, Note_on_c, 0, 67, 36
3, 136320, Note_on_c, 0, 67, 0
3, 136320, Note_on_c, 0, 60, 43
3, 136440, Note_on_c, 0, 60, 0
3, 136440, Note_on_c, 0, 67, 34
3, 136560, Note_on_c, 0, 67, 0
3, 136560, Note_on_c, 0, 64, 34
3, 136680, Note_on_c, 0, 64, 0
3, 136680, Note_on_c, 0, 67, 34
3, 136800, Note_on_c, 0, 67, 0
3, 136800, Note_on_c, 0, 60, 42
3, 136920, Note_on_c, 0, 60, 0
3, 136920, Note_on_c, 0, 67, 32
3, 137040, Note_on_c, 0, 67, 0
3, 137040, Note_on_c, 0, 64, 32
3, 137160, Note_on_c, 0, 64, 0
3, 137160, Note_on_c, 0, 67, 32
3, 137280, Note_on_c, 0, 67, 0
3, 137280, Note_on_c, 0, 60, 37
3, 137400, Note_on_c, 0, 60, 0
3, 137400, Note_on_c, 0, 62, 29
3, 137520, Note_on_c, 0, 62, 0
3, 137520, Note_on_c, 0, 58, 38
3, 137640, Note_on_c, 0, 58, 0
3, 137640, Note_on_c, 0, 60, 32
3, 137760, Note_on_c, 0, 60, 0
3, 137760, Note_on_c, 0, 57, 34
3, 137880, Note_on_c, 0, 57, 0
3, 137880, Note_on_c, 0, 58, 27
3, 138000, Note_on_c, 0, 58, 0
3, 138000, Note_on_c, 0, 55, 34
3, 138120, Note_on_c, 0, 55, 0
3, 138120, Note_on_c, 0, 57, 28
3, 138240, Note_on_c, 0, 57, 0
3, 138240, Note_on_c, 0, 53, 37
3, 138360, Note_on_c, 0, 53, 0
3, 138360, Note_on_c, 0, 60, 31
3, 138480, Note_on_c, 0, 60, 0
3, 138480, Note_on_c, 0, 57, 28
3, 138600, Note_on_c, 0, 57, 0
3, 138600, Note_on_c, 0, 60, 28
3, 138720, Note_on_c, 0, 60, 0
3, 138720, Note_on_c, 0, 53, 40
3, 138840, Note_on_c, 0, 53, 0
3, 138840, Note_on_c, 0, 60, 31
3, 138960, Note_on_c, 0, 60, 0
3, 138960, Note_on_c, 0, 57, 31
3, 139080, Note_on_c, 0, 57, 0
3, 139080, Note_on_c, 0, 60, 31
3, 139200, Note_on_c, 0, 60, 0
3, 139200, Note_on_c, 0, 55, 40
3, 139320, Note_on_c, 0, 55, 0
3, 139320, Note_on_c, 0, 60, 30
3, 139440, Note_on_c, 0, 60, 0
3, 139440, Note_on_c, 0, 58, 30
3, 139560, Note_on_c, 0, 58, 0
3, 139560, Note_on_c, 0, 60, 30
3, 139680, Note_on_c, 0, 60, 0
3, 139680, Note_on_c, 0, 55, 40
3, 139800, Note_on_c, 0, 55, 0
3, 139800, Note_on_c, 0, 60, 33
3, 139920, Note_on_c, 0, 60, 0
3, 139920, Note_on_c, 0, 58, 33
3, 140040, Note_on_c, 0, 58, 0
3, 140040, Note_on_c, 0, 60, 33
3, 140160, Note_on_c, 0, 60, 0
3, 140160, Note_on_c, 0, 53, 40
3, 140280, Note_on_c, 0, 53, 0
3, 140280, Note_on_c, 0, 60, 32
3, 140400, Note_on_c, 0, 60, 0
3, 140400, Note_on_c, 0, 57, 32
3, 140520, Note_on_c, 0, 57, 0
3, 140520, Note_on_c, 0, 60, 32
3, 140640, Note_on_c, 0, 60, 0
3, 140640, Note_on_c, 0, 53, 40
3, 140760, Note_on_c, 0, 53, 0
3, 140760, Note_on_c, 0, 60, 33
3, 140880, Note_on_c, 0, 60, 0
3, 140880, Note_on_c, 0, 57, 35
3, 141000, Note_on_c, 0, 57, 0
3, 141000, Note_on_c, 0, 60, 37
3, 141120, Note_on_c, 0, 60, 0
3, 141120, Note_on_c, 0, 55, 47
3, 141240, Note_on_c, 0, 55, 0
3, 141240, Note_on_c, 0, 60, 35
3, 141360, Note_on_c, 0, 60, 0
3, 141360, Note_on_c, 0, 58, 35
3, 141420, Note_on_c, 0, 58, 0
3, 141480, Note_on_c, 0, 60, 35
3, 141540, Note_on_c, 0, 60, 0
3, 141600, Note_on_c, 0, 55, 44
3, 141720, Note_on_c, 0, 55, 0
3, 141720, Note_on_c, 0, 60, 33
3, 141840, Note_on_c, 0, 60, 0
3, 141840, Note_on_c, 0, 58, 33
3, 141900, Note_on_c, 0, 58, 0
3, 141960, Note_on_c, 0, 60, 33
3, 142020, Note_on_c, 0, 60, 0
3, 142080, Note_on_c, 0, 53, 40
3, 142200, Note_on_c, 0, 53, 0
3, 142200, Note_on_c, 0, 60, 32
3, 142320, Note_on_c, 0, 60, 0
3, 142320, Note_on_c, 0, 57, 32
3, 142440, Note_on_c, 0, 57, 0
3, 142440, Note_on_c, 0, 60, 32
3, 142560, Note_on_c, 0, 60, 0
3, 142560, Note_on_c, 0, 53, 40
3, 142680, Note_on_c, 0, 53, 0
3, 142680, Note_on_c, 0, 60, 31
3, 142800, Note_on_c, 0, 60, 0
3, 142800, Note_on_c, 0, 57, 31
3, 142920, Note_on_c, 0, 57, 0
3, 142920, Note_on_c, 0, 60, 31
3, 143040, Note_on_c, 0, 60, 0
3, 143040, Note_on_c, 0, 55, 40
3, 143160, Note_on_c, 0, 55, 0
3, 143160, Note_on_c, 0, 60, 30
3, 143280, Note_on_c, 0, 60, 0
3, 143280, Note_on_c, 0, 58, 30
3, 143400, Note_on_c, 0, 58, 0
3, 143400, Note_on_c, 0, 60, 30
3, 143520, Note_on_c, 0, 60, 0
3, 143520, Note_on_c, 0, 55, 40
3, 143640, Note_on_c, 0, 55, 0
3, 143640, Note_on_c, 0, 60, 33
3, 143760, Note_on_c, 0, 60, 0
3, 143760, Note_on_c, 0, 58, 33
3, 143880, Note_on_c, 0, 58, 0
3, 143880, Note_on_c, 0, 60, 33
3, 144000, Note_on_c, 0, 60, 0
3, 144000, Note_on_c, 0, 53, 40
3, 144060, Note_on_c, 0, 53, 0
3, 144120, Note_on_c, 0, 60, 32
3, 144180, Note_on_c, 0, 60, 0
3, 144240, Note_on_c, 0, 57, 32
3, 144300, Note_on_c, 0, 57, 0
3, 144360, Note_on_c, 0, 60, 32
3, 144420, Note_on_c, 0, 60, 0
3, 144480, Note_on_c, 0, 53, 46
3, 144540, Note_on_c, 0, 53, 0
3, 144600, Note_on_c, 0, 60, 35
3, 144660, Note_on_c, 0, 60, 0
3, 144720, Note_on_c, 0, 57, 36
3, 144780, Note_on_c, 0, 57, 0
3, 144840, Note_on_c, 0, 60, 38
3, 144900, Note_on_c, 0, 60, 0
3, 144960, Note_on_c, 0, 55, 49
3, 145080, Note_on_c, 0, 55, 0
3, 145080, Note_on_c, 0, 60, 39
3, 145200, Note_on_c, 0, 60, 0
3, 145200, Note_on_c, 0, 58, 39
3, 145320, Note_on_c, 0, 58, 0
3, 145320, Note_on_c, 0, 60, 39
3, 145440, Note_on_c, 0, 60, 0
3, 145440, Note_on_c, 0, 55, 50
3, 145560, Note_on_c, 0, 55, 0
3, 145560, Note_on_c, 0, 60, 40
3, 145680, Note_on_c, 0, 60, 0
3, 145680, Note_on_c, 0, 58, 40
3, 145800, Note_on_c, 0, 58, 0
3, 145800, Note_on_c, 0, 60, 40
3, 145920, Note_on_c, 0, 60, 0
3, 145920, Note_on_c, 0, 53, 48
3, 146040, Note_on_c, 0, 53, 0
3, 146040, Note_on_c, 0, 60, 32
3, 146160, Note_on_c, 0, 60, 0
3, 146160, Note_on_c, 0, 57, 32
3, 146280, Note_on_c, 0, 57, 0
3, 146280, Note_on_c, 0, 60, 32
3, 146400, Note_on_c, 0, 60, 0
3, 146400, Note_on_c, 0, 53, 52
3, 146520, Note_on_c, 0, 53, 0
3, 146520, Note_on_c, 0, 60, 39
3, 146640, Note_on_c, 0, 60, 0
3, 146640, Note_on_c, 0, 57, 42
3, 146760, Note_on_c, 0, 57, 0
3, 146760, Note_on_c, 0, 60, 45
3, 146880, Note_on_c, 0, 60, 0
3, 146880, Note_on_c, 0, 57, 65
3, 147000, Note_on_c, 0, 57, 0
3, 147000, Note_on_c, 0, 65, 55
3, 147120, Note_on_c, 0, 65, 0
3, 147120, Note_on_c, 0, 60, 55
3, 147240, Note_on_c, 0, 60, 0
3, 147240, Note_on_c, 0, 65, 55
3, 147360, Note_on_c, 0, 65, 0
3, 147360, Note_on_c, 0, 57, 63
3, 147480, Note_on_c, 0, 57, 0
3, 147480, Note_on_c, 0, 65, 51
3, 147600, Note_on_c, 0, 65, 0
3, 147600, Note_on_c, 0, 60, 51
3, 147720, Note_on_c, 0, 60, 0
3, 147720, Note_on_c, 0, 65, 51
3, 147840, Note_on_c, 0, 65, 0
3, 147840, Note_on_c, 0, 58, 58
3, 147960, Note_on_c, 0, 58, 0
3, 147960, Note_on_c, 0, 65, 45
3, 148080, Note_on_c, 0, 65, 0
3, 148080, Note_on_c, 0, 62, 45
3, 148200, Note_on_c, 0, 62, 0
3, 148200, Note_on_c, 0, 65, 45
3, 148320, Note_on_c, 0, 65, 0
3, 148320, Note_on_c, 0, 57, 51
3, 148440, Note_on_c, 0, 57, 0
3, 148440, Note_on_c, 0, 66, 44
3, 148560, Note_on_c, 0, 66, 0
3, 148560, Note_on_c, 0, 60, 44
3, 148680, Note_on_c, 0, 60, 0
3, 148680, Note_on_c, 0, 66, 44
3, 148800, Note_on_c, 0, 66, 0
3, 148800, Note_on_c, 0, 55, 51
3, 148920, Note_on_c, 0, 55, 0
3, 148920, Note_on_c, 0, 65, 43
3, 149040, Note_on_c, 0, 65, 0
3, 149040, Note_on_c, 0, 62, 43
3, 149160, Note_on_c, 0, 62, 0
3, 149160, Note_on_c, 0, 65, 43
3, 149280, Note_on_c, 0, 65, 0
3, 149280, Note_on_c, 0, 60, 51
3, 149400, Note_on_c, 0, 60, 0
3, 149400, Note_on_c, 0, 67, 43
3, 149520, Note_on_c, 0, 67, 0
3, 149520, Note_on_c, 0, 64, 43
3, 149640, Note_on_c, 0, 64, 0
3, 149640, Note_on_c, 0, 67, 43
3, 149760, Note_on_c, 0, 67, 0
3, 149760, Note_on_c, 0, 53, 47
3, 149880, Note_on_c, 0, 53, 0
3, 149880, Note_on_c, 0, 65, 41
3, 150000, Note_on_c, 0, 65, 0
3, 150000, Note_on_c, 0, 57, 41
3, 150120, Note_on_c, 0, 57, 0
3, 150120, Note_on_c, 0, 65, 41
3, 150240, Note_on_c, 0, 65, 0
3, 150240, Note_on_c, 0, 58, 47
3, 150360, Note_on_c, 0, 58, 0
3, 150360, Note_on_c, 0, 67, 41
3, 150480, Note_on_c, 0, 67, 0
3, 150480, Note_on_c, 0, 62, 41
3, 150600, Note_on_c, 0, 62, 0
3, 150600, Note_on_c, 0, 67, 41
3, 150720, Note_on_c, 0, 67, 0
3, 150720, Note_on_c, 0, 60, 47
3, 150840, Note_on_c, 0, 60, 0
3, 150840, Note_on_c, 0, 69, 40
3, 150960, Note_on_c, 0, 69, 0
3, 150960, Note_on_c, 0, 65, 40
3, 151080, Note_on_c, 0, 65, 0
3, 151080, Note_on_c, 0, 69, 40
3, 151200, Note_on_c, 0, 69, 0
3, 151200, Note_on_c, 0, 60, 47
3, 151320, Note_on_c, 0, 60, 0
3, 151320, Note_on_c, 0, 67, 42
3, 151440, Note_on_c, 0, 67, 0
3, 151440, Note_on_c, 0, 64, 42
3, 151560, Note_on_c, 0, 64, 0
3, 151560, Note_on_c, 0, 67, 42
3, 151680, Note_on_c, 0, 67, 0
3, 151680, Note_on_c, 0, 57, 47
3, 151800, Note_on_c, 0, 57, 0
3, 151800, Note_on_c, 0, 65, 41
3, 151920, Note_on_c, 0, 65, 0
3, 151920, Note_on_c, 0, 60, 41
3, 152040, Note_on_c, 0, 60, 0
3, 152040, Note_on_c, 0, 65, 41
3, 152160, Note_on_c, 0, 65, 0
3, 152160, Note_on_c, 0, 58, 47
3, 152280, Note_on_c, 0, 58, 0
3, 152280, Note_on_c, 0, 65, 41
3, 152400, Note_on_c, 0, 65, 0
3, 152400, Note_on_c, 0, 62, 41
3, 152520, Note_on_c, 0, 62, 0
3, 152520, Note_on_c, 0, 65, 41
3, 152640, Note_on_c, 0, 65, 0
3, 152640, Note_on_c, 0, 60, 47
3, 152760, Note_on_c, 0, 60, 0
3, 152760, Note_on_c, 0, 69, 38
3, 152880, Note_on_c, 0, 69, 0
3, 152880, Note_on_c, 0, 65, 38
3, 153000, Note_on_c, 0, 65, 0
3, 153000, Note_on_c, 0, 69, 38
3, 153120, Note_on_c, 0, 69, 0
3, 153120, Note_on_c, 0, 60, 47
3, 153240, Note_on_c, 0, 60, 0
3, 153240, Note_on_c, 0, 64, 42
3, 153360, Note_on_c, 0, 64, 0
3, 153360, Note_on_c, 0, 60, 42
3, 153480, Note_on_c, 0, 60, 0
3, 153480, Note_on_c, 0, 64, 42
3, 153600, Note_on_c, 0, 64, 0
3, 153600, Note_on_c, 0, 65, 47
3, 153600, Note_on_c, 0, 53, 39
3, 153838, Note_on_c, 0, 65, 0
3, 154080, Note_on_c, 0, 53, 0
3, 156000, Note_on_c, 0, 46, 70
3, 156000, Note_on_c, 0, 34, 59
3, 156120, Note_on_c, 0, 34, 0
3, 156120, Note_on_c, 0, 46, 0
3, 156480, Note_on_c, 0, 36, 53
3, 156480, Note_on_c, 0, 48, 63
3, 156600, Note_on_c, 0, 48, 0
3, 156600, Note_on_c, 0, 36, 0
3, 156960, Note_on_c, 0, 48, 63
3, 156960, Note_on_c, 0, 36, 53
3, 157080, Note_on_c, 0, 36, 0
3, 157080, Note_on_c, 0, 48, 0
3, 157440, Note_on_c, 0, 29, 50
3, 157440, Note_on_c, 0, 41, 50
3, 157920, Note_on_c, 0, 41, 0
3, 157920, Note_on_c, 0, 29, 0
3, 159840, Note_on_c, 0, 46, 70
3, 159840, Note_on_c, 0, 34, 59
3, 159960, Note_on_c, 0, 34, 0
3, 159960, Note_on_c, 0, 46, 0
3, 160320, Note_on_c, 0, 36, 53
3, 160320, Note_on_c, 0, 48, 63
3, 160440, Note_on_c, 0, 48, 0
3, 160440, Note_on_c, 0, 36, 0
3, 160800, Note_on_c, 0, 48, 53
3, 160800, Note_on_c, 0, 58, 63
3, 161040, Note_on_c, 0, 58, 0
3, 161040, Note_on_c, 0, 48, 0
3, 161280, Note_on_c, 0, 53, 56
3, 162195, Note_on_c, 0, 53, 0
3, 162195, Note_on_c, 0, 41, 49
3, 162210, Note_on_c, 0, 45, 53
3, 162225, Note_on_c, 0, 48, 56
3, 162240, Note_on_c, 0, 53, 60
3, 162460, Note_on_c, 0, 45, 0
3, 162480, Note_on_c, 0, 41, 0
3, 162480, Note_on_c, 0, 48, 0
3, 162480, Note_on_c, 0, 53, 0
3, 162480, End_track
4, 0, Start_track
4, 0, Title_t, "Pedale"
4, 0, Program_c, 0, 0
4, 1920, Control_c, 0, 64, 127
4, 2410, Control_c, 0, 64, 0
4, 3840, Control_c, 0, 64, 127
4, 4331, Control_c, 0, 64, 0
4, 5792, Control_c, 0, 64, 127
4, 6246, Control_c, 0, 64, 0
4, 6303, Control_c, 0, 64, 127
4, 6722, Control_c, 0, 64, 0
4, 7241, Control_c, 0, 64, 127
4, 7445, Control_c, 0, 64, 0
4, 7491, Control_c, 0, 64, 127
4, 7680, Control_c, 0, 64, 0
4, 8180, Control_c, 0, 64, 127
4, 8657, Control_c, 0, 64, 0
4, 8715, Control_c, 0, 64, 127
4, 9374, Control_c, 0, 64, 0
4, 9664, Control_c, 0, 64, 127
4, 10087, Control_c, 0, 64, 0
4, 10133, Control_c, 0, 64, 127
4, 10336, Control_c, 0, 64, 0
4, 10377, Control_c, 0, 64, 127
4, 10574, Control_c, 0, 64, 0
4, 10634, Control_c, 0, 64, 127
4, 10810, Control_c, 0, 64, 0
4, 10850, Control_c, 0, 64, 127
4, 11050, Control_c, 0, 64, 0
4, 11090, Control_c, 0, 64, 127
4, 11294, Control_c, 0, 64, 0
4, 11340, Control_c, 0, 64, 127
4, 11520, Control_c, 0, 64, 0
4, 11629, Control_c, 0, 64, 127
4, 12011, Control_c, 0, 64, 0
4, 14966, Control_c, 0, 64, 127
4, 15139, Control_c, 0, 64, 0
4, 15200, Control_c, 0, 64, 127
4, 15360, Control_c, 0, 64, 0
4, 15600, Control_c, 0, 64, 127
4, 16091, Control_c, 0, 64, 0
4, 16158, Control_c, 0, 64, 127
4, 16327, Control_c, 0, 64, 0
4, 17280, Control_c, 0, 64, 127
4, 17774, Control_c, 0, 64, 0
4, 17806, Control_c, 0, 64, 127
4, 18251, Control_c, 0, 64, 0
4, 18283, Control_c, 0, 64, 127
4, 18727, Control_c, 0, 64, 0
4, 18860, Control_c, 0, 64, 127
4, 19200, Control_c, 0, 64, 0
4, 19250, Control_c, 0, 64, 127
4, 19687, Control_c, 0, 64, 0
4, 19747, Control_c, 0, 64, 127
4, 20164, Control_c, 0, 64, 0
4, 20210, Control_c, 0, 64, 127
4, 20393, Control_c, 0, 64, 0
4, 20679, Control_c, 0, 64, 127
4, 20886, Control_c, 0, 64, 0
4, 21163, Control_c, 0, 64, 127
4, 21609, Control_c, 0, 64, 0
4, 21649, Control_c, 0, 64, 127
4, 22087, Control_c, 0, 64, 0
4, 22126, Control_c, 0, 64, 127
4, 22571, Control_c, 0, 64, 0
4, 22729, Control_c, 0, 64, 127
4, 23040, Control_c, 0, 64, 0
4, 24043, Control_c, 0, 64, 127
4, 24490, Control_c, 0, 64, 0
4, 24526, Control_c, 0, 64, 127
4, 24960, Control_c, 0, 64, 0
4, 25101, Control_c, 0, 64, 127
4, 25458, Control_c, 0, 64, 0
4, 25518, Control_c, 0, 64, 127
4, 25927, Control_c, 0, 64, 0
4, 26040, Control_c, 0, 64, 127
4, 26880, Control_c, 0, 64, 0
4, 26947, Control_c, 0, 64, 127
4, 27369, Control_c, 0, 64, 0
4, 27434, Control_c, 0, 64, 127
4, 27851, Control_c, 0, 64, 0
4, 27921, Control_c, 0, 64, 127
4, 28326, Control_c, 0, 64, 0
4, 28391, Control_c, 0, 64, 127
4, 28800, Control_c, 0, 64, 0
4, 28847, Control_c, 0, 64, 127
4, 29289, Control_c, 0, 64, 0
4, 29322, Control_c, 0, 64, 127
4, 29766, Control_c, 0, 64, 0
4, 29806, Control_c, 0, 64, 127
4, 30248, Control_c, 0, 64, 0
4, 30278, Control_c, 0, 64, 127
4, 30728, Control_c, 0, 64, 0
4, 30793, Control_c, 0, 64, 127
4, 31211, Control_c, 0, 64, 0
4, 31267, Control_c, 0, 64, 127
4, 31693, Control_c, 0, 64, 0
4, 31756, Control_c, 0, 64, 127
4, 32172, Control_c, 0, 64, 0
4, 32223, Control_c, 0, 64, 127
4, 32643, Control_c, 0, 64, 0
4, 33607, Control_c, 0, 64, 127
4, 33850, Control_c, 0, 64, 0
4, 33904, Control_c, 0, 64, 127
4, 34095, Control_c, 0, 64, 0
4, 34151, Control_c, 0, 64, 127
4, 34560, Control_c, 0, 64, 0
4, 34606, Control_c, 0, 64, 127
4, 35057, Control_c, 0, 64, 0
4, 35309, Control_c, 0, 64, 127
4, 35537, Control_c, 0, 64, 0
4, 35595, Control_c, 0, 64, 127
4, 35765, Control_c, 0, 64, 0
4, 36080, Control_c, 0, 64, 127
4, 36257, Control_c, 0, 64, 0
4, 36544, Control_c, 0, 64, 127
4, 38406, Control_c, 0, 64, 0
4, 38509, Control_c, 0, 64, 127
4, 38887, Control_c, 0, 64, 0
4, 39200, Control_c, 0, 64, 127
4, 39370, Control_c, 0, 64, 0
4, 39440, Control_c, 0, 64, 127
4, 39604, Control_c, 0, 64, 0
4, 39903, Control_c, 0, 64, 127
4, 40088, Control_c, 0, 64, 0
4, 40352, Control_c, 0, 64, 127
4, 41259, Control_c, 0, 64, 0
4, 41305, Control_c, 0, 64, 127
4, 41700, Control_c, 0, 64, 0
4, 42240, Control_c, 0, 64, 127
4, 42730, Control_c, 0, 64, 0
4, 44160, Control_c, 0, 64, 127
4, 44651, Control_c, 0, 64, 0
4, 46112, Control_c, 0, 64, 127
4, 46566, Control_c, 0, 64, 0
4, 46623, Control_c, 0, 64, 127
4, 47042, Control_c, 0, 64, 0
4, 47561, Control_c, 0, 64, 127
4, 47765, Control_c, 0, 64, 0
4, 47811, Control_c, 0, 64, 127
4, 48000, Control_c, 0, 64, 0
4, 48500, Control_c, 0, 64, 127
4, 48977, Control_c, 0, 64, 0
4, 49035, Control_c, 0, 64, 127
4, 49694, Control_c, 0, 64, 0
4, 49973, Control_c, 0, 64, 127
4, 50407, Control_c, 0, 64, 0
4, 50453, Control_c, 0, 64, 127
4, 50656, Control_c, 0, 64, 0
4, 50697, Control_c, 0, 64, 127
4, 50894, Control_c, 0, 64, 0
4, 50954, Control_c, 0, 64, 127
4, 51130, Control_c, 0, 64, 0
4, 51170, Control_c, 0, 64, 127
4, 51370, Control_c, 0, 64, 0
4, 51410, Control_c, 0, 64, 127
4, 51614, Control_c, 0, 64, 0
4, 51660, Control_c, 0, 64, 127
4, 51840, Control_c, 0, 64, 0
4, 51949, Control_c, 0, 64, 127
4, 52331, Control_c, 0, 64, 0
4, 52423, Control_c, 0, 64, 127
4, 52805, Control_c, 0, 64, 0
4, 55286, Control_c, 0, 64, 127
4, 55452, Control_c, 0, 64, 0
4, 55555, Control_c, 0, 64, 127
4, 55692, Control_c, 0, 64, 0
4, 55920, Control_c, 0, 64, 127
4, 56411, Control_c, 0, 64, 0
4, 56478, Control_c, 0, 64, 127
4, 56647, Control_c, 0, 64, 0
4, 57600, Control_c, 0, 64, 127
4, 58094, Control_c, 0, 64, 0
4, 58126, Control_c, 0, 64, 127
4, 58571, Control_c, 0, 64, 0
4, 58603, Control_c, 0, 64, 127
4, 59047, Control_c, 0, 64, 0
4, 59180, Control_c, 0, 64, 127
4, 59520, Control_c, 0, 64, 0
4, 59570, Control_c, 0, 64, 127
4, 60007, Control_c, 0, 64, 0
4, 60067, Control_c, 0, 64, 127
4, 60484, Control_c, 0, 64, 0
4, 60530, Control_c, 0, 64, 127
4, 60713, Control_c, 0, 64, 0
4, 60999, Control_c, 0, 64, 127
4, 61206, Control_c, 0, 64, 0
4, 61483, Control_c, 0, 64, 127
4, 61929, Control_c, 0, 64, 0
4, 61969, Control_c, 0, 64, 127
4, 62407, Control_c, 0, 64, 0
4, 62446, Control_c, 0, 64, 127
4, 62891, Control_c, 0, 64, 0
4, 63049, Control_c, 0, 64, 127
4, 63360, Control_c, 0, 64, 0
4, 64363, Control_c, 0, 64, 127
4, 64810, Control_c, 0, 64, 0
4, 64846, Control_c, 0, 64, 127
4, 65280, Control_c, 0, 64, 0
4, 65421, Control_c, 0, 64, 127
4, 65778, Control_c, 0, 64, 0
4, 65838, Control_c, 0, 64, 127
4, 66247, Control_c, 0, 64, 0
4, 66360, Control_c, 0, 64, 127
4, 67200, Control_c, 0, 64, 0
4, 67267, Control_c, 0, 64, 127
4, 67689, Control_c, 0, 64, 0
4, 67754, Control_c, 0, 64, 127
4, 68171, Control_c, 0, 64, 0
4, 68241, Control_c, 0, 64, 127
4, 68646, Control_c, 0, 64, 0
4, 68711, Control_c, 0, 64, 127
4, 69120, Control_c, 0, 64, 0
4, 69167, Control_c, 0, 64, 127
4, 69609, Control_c, 0, 64, 0
4, 69642, Control_c, 0, 64, 127
4, 70086, Control_c, 0, 64, 0
4, 70126, Control_c, 0, 64, 127
4, 70568, Control_c, 0, 64, 0
4, 70598, Control_c, 0, 64, 127
4, 71048, Control_c, 0, 64, 0
4, 71113, Control_c, 0, 64, 127
4, 71531, Control_c, 0, 64, 0
4, 71587, Control_c, 0, 64, 127
4, 72013, Control_c, 0, 64, 0
4, 72076, Control_c, 0, 64, 127
4, 72492, Control_c, 0, 64, 0
4, 72543, Control_c, 0, 64, 127
4, 72963, Control_c, 0, 64, 0
4, 73927, Control_c, 0, 64, 127
4, 74170, Control_c, 0, 64, 0
4, 74224, Control_c, 0, 64, 127
4, 74415, Control_c, 0, 64, 0
4, 74471, Control_c, 0, 64, 127
4, 74880, Control_c, 0, 64, 0
4, 74926, Control_c, 0, 64, 127
4, 75377, Control_c, 0, 64, 0
4, 75629, Control_c, 0, 64, 127
4, 75857, Control_c, 0, 64, 0
4, 75915, Control_c, 0, 64, 127
4, 76085, Control_c, 0, 64, 0
4, 76400, Control_c, 0, 64, 127
4, 76577, Control_c, 0, 64, 0
4, 76828, Control_c, 0, 64, 127
4, 78726, Control_c, 0, 64, 0
4, 78829, Control_c, 0, 64, 127
4, 79207, Control_c, 0, 64, 0
4, 79520, Control_c, 0, 64, 127
4, 79690, Control_c, 0, 64, 0
4, 79760, Control_c, 0, 64, 127
4, 79924, Control_c, 0, 64, 0
4, 80223, Control_c, 0, 64, 127
4, 80408, Control_c, 0, 64, 0
4, 80672, Control_c, 0, 64, 127
4, 81579, Control_c, 0, 64, 0
4, 81625, Control_c, 0, 64, 127
4, 82020, Control_c, 0, 64, 0
4, 82560, Control_c, 0, 64, 127
4, 83050, Control_c, 0, 64, 0
4, 83556, Control_c, 0, 64, 127
4, 84480, Control_c, 0, 64, 0
4, 84565, Control_c, 0, 64, 127
4, 85449, Control_c, 0, 64, 0
4, 85620, Control_c, 0, 64, 127
4, 86400, Control_c, 0, 64, 0
4, 86457, Control_c, 0, 64, 127
4, 87373, Control_c, 0, 64, 0
4, 87420, Control_c, 0, 64, 127
4, 87848, Control_c, 0, 64, 0
4, 87888, Control_c, 0, 64, 127
4, 88334, Control_c, 0, 64, 0
4, 88384, Control_c, 0, 64, 127
4, 89308, Control_c, 0, 64, 0
4, 89358, Control_c, 0, 64, 127
4, 90254, Control_c, 0, 64, 0
4, 90304, Control_c, 0, 64, 127
4, 91228, Control_c, 0, 64, 0
4, 91278, Control_c, 0, 64, 127
4, 92160, Control_c, 0, 64, 0
4, 92259, Control_c, 0, 64, 127
4, 92649, Control_c, 0, 64, 0
4, 92739, Control_c, 0, 64, 127
4, 93127, Control_c, 0, 64, 0
4, 93226, Control_c, 0, 64, 127
4, 93615, Control_c, 0, 64, 0
4, 93720, Control_c, 0, 64, 127
4, 94080, Control_c, 0, 64, 0
4, 94179, Control_c, 0, 64, 127
4, 94569, Control_c, 0, 64, 0
4, 94659, Control_c, 0, 64, 127
4, 95047, Control_c, 0, 64, 0
4, 95146, Control_c, 0, 64, 127
4, 95535, Control_c, 0, 64, 0
4, 95640, Control_c, 0, 64, 127
4, 96007, Control_c, 0, 64, 0
4, 96106, Control_c, 0, 64, 127
4, 96495, Control_c, 0, 64, 0
4, 96600, Control_c, 0, 64, 127
4, 97017, Control_c, 0, 64, 0
4, 97963, Control_c, 0, 64, 127
4, 98414, Control_c, 0, 64, 0
4, 98467, Control_c, 0, 64, 127
4, 98891, Control_c, 0, 64, 0
4, 98923, Control_c, 0, 64, 127
4, 99367, Control_c, 0, 64, 0
4, 99500, Control_c, 0, 64, 127
4, 99840, Control_c, 0, 64, 0
4, 99890, Control_c, 0, 64, 127
4, 100327, Control_c, 0, 64, 0
4, 100387, Control_c, 0, 64, 127
4, 100804, Control_c, 0, 64, 0
4, 100850, Control_c, 0, 64, 127
4, 101033, Control_c, 0, 64, 0
4, 101319, Control_c, 0, 64, 127
4, 101526, Control_c, 0, 64, 0
4, 101803, Control_c, 0, 64, 127
4, 102249, Control_c, 0, 64, 0
4, 102289, Control_c, 0, 64, 127
4, 102727, Control_c, 0, 64, 0
4, 102766, Control_c, 0, 64, 127
4, 103211, Control_c, 0, 64, 0
4, 103369, Control_c, 0, 64, 127
4, 103680, Control_c, 0, 64, 0
4, 104683, Control_c, 0, 64, 127
4, 105130, Control_c, 0, 64, 0
4, 105166, Control_c, 0, 64, 127
4, 105600, Control_c, 0, 64, 0
4, 105741, Control_c, 0, 64, 127
4, 106098, Control_c, 0, 64, 0
4, 106158, Control_c, 0, 64, 127
4, 106567, Control_c, 0, 64, 0
4, 106680, Control_c, 0, 64, 127
4, 107520, Control_c, 0, 64, 0
4, 107587, Control_c, 0, 64, 127
4, 108009, Control_c, 0, 64, 0
4, 108074, Control_c, 0, 64, 127
4, 108491, Control_c, 0, 64, 0
4, 108561, Control_c, 0, 64, 127
4, 108966, Control_c, 0, 64, 0
4, 109031, Control_c, 0, 64, 127
4, 109440, Control_c, 0, 64, 0
4, 109487, Control_c, 0, 64, 127
4, 109929, Control_c, 0, 64, 0
4, 109962, Control_c, 0, 64, 127
4, 110406, Control_c, 0, 64, 0
4, 110446, Control_c, 0, 64, 127
4, 110888, Control_c, 0, 64, 0
4, 110918, Control_c, 0, 64, 127
4, 111368, Control_c, 0, 64, 0
4, 111433, Control_c, 0, 64, 127
4, 111851, Control_c, 0, 64, 0
4, 111907, Control_c, 0, 64, 127
4, 112333, Control_c, 0, 64, 0
4, 112396, Control_c, 0, 64, 127
4, 112812, Control_c, 0, 64, 0
4, 112863, Control_c, 0, 64, 127
4, 113283, Control_c, 0, 64, 0
4, 114247, Control_c, 0, 64, 127
4, 114490, Control_c, 0, 64, 0
4, 114544, Control_c, 0, 64, 127
4, 114735, Control_c, 0, 64, 0
4, 114791, Control_c, 0, 64, 127
4, 115200, Control_c, 0, 64, 0
4, 115246, Control_c, 0, 64, 127
4, 115697, Control_c, 0, 64, 0
4, 115949, Control_c, 0, 64, 127
4, 116177, Control_c, 0, 64, 0
4, 116235, Control_c, 0, 64, 127
4, 116405, Control_c, 0, 64, 0
4, 116720, Control_c, 0, 64, 127
4, 116897, Control_c, 0, 64, 0
4, 117148, Control_c, 0, 64, 127
4, 119046, Control_c, 0, 64, 0
4, 119149, Control_c, 0, 64, 127
4, 119527, Control_c, 0, 64, 0
4, 119840, Control_c, 0, 64, 127
4, 120010, Control_c, 0, 64, 0
4, 120080, Control_c, 0, 64, 127
4, 120244, Control_c, 0, 64, 0
4, 120543, Control_c, 0, 64, 127
4, 120728, Control_c, 0, 64, 0
4, 120992, Control_c, 0, 64, 127
4, 121899, Control_c, 0, 64, 0
4, 121945, Control_c, 0, 64, 127
4, 122340, Control_c, 0, 64, 0
4, 122880, Control_c, 0, 64, 127
4, 123370, Control_c, 0, 64, 0
4, 123876, Control_c, 0, 64, 127
4, 124800, Control_c, 0, 64, 0
4, 124885, Control_c, 0, 64, 127
4, 125769, Control_c, 0, 64, 0
4, 125940, Control_c, 0, 64, 127
4, 126720, Control_c, 0, 64, 0
4, 126777, Control_c, 0, 64, 127
4, 127693, Control_c, 0, 64, 0
4, 127740, Control_c, 0, 64, 127
4, 128168, Control_c, 0, 64, 0
4, 128208, Control_c, 0, 64, 127
4, 128654, Control_c, 0, 64, 0
4, 128704, Control_c, 0, 64, 127
4, 129628, Control_c, 0, 64, 0
4, 129678, Control_c, 0, 64, 127
4, 130574, Control_c, 0, 64, 0
4, 130624, Control_c, 0, 64, 127
4, 131548, Control_c, 0, 64, 0
4, 131598, Control_c, 0, 64, 127
4, 132480, Control_c, 0, 64, 0
4, 132579, Control_c, 0, 64, 127
4, 132969, Control_c, 0, 64, 0
4, 133059, Control_c, 0, 64, 127
4, 133447, Control_c, 0, 64, 0
4, 133546, Control_c, 0, 64, 127
4, 133935, Control_c, 0, 64, 0
4, 134040, Control_c, 0, 64, 127
4, 134400, Control_c, 0, 64, 0
4, 134499, Control_c, 0, 64, 127
4, 134889, Control_c, 0, 64, 0
4, 134979, Control_c, 0, 64, 127
4, 135367, Control_c, 0, 64, 0
4, 135466, Control_c, 0, 64, 127
4, 135855, Control_c, 0, 64, 0
4, 135960, Control_c, 0, 64, 127
4, 136327, Control_c, 0, 64, 0
4, 136426, Control_c, 0, 64, 127
4, 136815, Control_c, 0, 64, 0
4, 136920, Control_c, 0, 64, 127
4, 137337, Control_c, 0, 64, 0
4, 138293, Control_c, 0, 64, 127
4, 138734, Control_c, 0, 64, 0
4, 138766, Control_c, 0, 64, 127
4, 139211, Control_c, 0, 64, 0
4, 139243, Control_c, 0, 64, 127
4, 139687, Control_c, 0, 64, 0
4, 139820, Control_c, 0, 64, 127
4, 140160, Control_c, 0, 64, 0
4, 140210, Control_c, 0, 64, 127
4, 140647, Control_c, 0, 64, 0
4, 140707, Control_c, 0, 64, 127
4, 141124, Control_c, 0, 64, 0
4, 141170, Control_c, 0, 64, 127
4, 141353, Control_c, 0, 64, 0
4, 141639, Control_c, 0, 64, 127
4, 141846, Control_c, 0, 64, 0
4, 142123, Control_c, 0, 64, 127
4, 142569, Control_c, 0, 64, 0
4, 142609, Control_c, 0, 64, 127
4, 143047, Control_c, 0, 64, 0
4, 143086, Control_c, 0, 64, 127
4, 143531, Control_c, 0, 64, 0
4, 143689, Control_c, 0, 64, 127
4, 144000, Control_c, 0, 64, 0
4, 145003, Control_c, 0, 64, 127
4, 145450, Control_c, 0, 64, 0
4, 145486, Control_c, 0, 64, 127
4, 145920, Control_c, 0, 64, 0
4, 146061, Control_c, 0, 64, 127
4, 146418, Control_c, 0, 64, 0
4, 146478, Control_c, 0, 64, 127
4, 146887, Control_c, 0, 64, 0
4, 147000, Control_c, 0, 64, 127
4, 147840, Control_c, 0, 64, 0
4, 147907, Control_c, 0, 64, 127
4, 148329, Control_c, 0, 64, 0
4, 148394, Control_c, 0, 64, 127
4, 148811, Control_c, 0, 64, 0
4, 148881, Control_c, 0, 64, 127
4, 149286, Control_c, 0, 64, 0
4, 149351, Control_c, 0, 64, 127
4, 149760, Control_c, 0, 64, 0
4, 149807, Control_c, 0, 64, 127
4, 150249, Control_c, 0, 64, 0
4, 150282, Control_c, 0, 64, 127
4, 150726, Control_c, 0, 64, 0
4, 150766, Control_c, 0, 64, 127
4, 151208, Control_c, 0, 64, 0
4, 151238, Control_c, 0, 64, 127
4, 151688, Control_c, 0, 64, 0
4, 151753, Control_c, 0, 64, 127
4, 152171, Control_c, 0, 64, 0
4, 152227, Control_c, 0, 64, 127
4, 152653, Control_c, 0, 64, 0
4, 152716, Control_c, 0, 64, 127
4, 153132, Control_c, 0, 64, 0
4, 153183, Control_c, 0, 64, 127
4, 153603, Control_c, 0, 64, 0
4, 154567, Control_c, 0, 64, 127
4, 154810, Control_c, 0, 64, 0
4, 154864, Control_c, 0, 64, 127
4, 155055, Control_c, 0, 64, 0
4, 155111, Control_c, 0, 64, 127
4, 155520, Control_c, 0, 64, 0
4, 155566, Control_c, 0, 64, 127
4, 156017, Control_c, 0, 64, 0
4, 156269, Control_c, 0, 64, 127
4, 156497, Control_c, 0, 64, 0
4, 156555, Control_c, 0, 64, 127
4, 156725, Control_c, 0, 64, 0
4, 157040, Control_c, 0, 64, 127
4, 157217, Control_c, 0, 64, 0
4, 157468, Control_c, 0, 64, 127
4, 159366, Control_c, 0, 64, 0
4, 159469, Control_c, 0, 64, 127
4, 159847, Control_c, 0, 64, 0
4, 160160, Control_c, 0, 64, 127
4, 160330, Control_c, 0, 64, 0
4, 160400, Control_c, 0, 64, 127
4, 160564, Control_c, 0, 64, 0
4, 160863, Control_c, 0, 64, 127
4, 161048, Control_c, 0, 64, 0
4, 161312, Control_c, 0, 64, 127
4, 162219, Control_c, 0, 64, 0
4, 162265, Control_c, 0, 64, 127
4, 162660, Control_c, 0, 64, 0
4, 162660, End_track
5, 0, Start_track
5, 0, Title_t, "Haydn: Sonata Hoboken XVI:35 2. movement"
5, 0, End_track
6, 0, Start_track
6, 0, Title_t, "Copyright © 2009 by Bernd Krueger"
6, 0, End_track
7, 0, Start_track
7, 0, Title_t, "http://www.piano-midi.de/"
7, 0, End_track
8, 0, Start_track
8, 0, Title_t, "Edition: 2011-12-05"
8, 0, End_track
9, 0, Start_track
9, 0, Title_t, "Spur 8"
9, 0, End_track
10, 0, Start_track
10, 0, Title_t, "Spur 9"
10, 0, End_track
11, 0, Start_track
11, 0, Title_t, "Spur 10"
11, 0, End_track
12, 0, Start_track
12, 0, Title_t, "Spur 11"
12, 0, End_track
13, 0, Start_track
13, 0, Title_t, "Spur 12"
13, 0, End_track
14, 0, Start_track
14, 0, Title_t, "Spur 13"
14, 0, End_track
15, 0, Start_track
15, 0, Title_t, "Spur 14"
15, 0, End_track
16, 0, Start_track
16, 0, Title_t, "Spur 15"
16, 0, End_track
17, 0, Start_track
17, 0, Title_t, "Spur 16"
17, 0, End_track
0, 0, End_of_file
