0, 0, Header, 1, 17, 480
1, 0, Start_track
1, 0, Title_t, "Sonate XVI:35 3. Satz"
1, 0, Copyright_t, "Copyright © 2009 by Bernd Krueger"
1, 0, Text_t, "Joseph Haydn"
1, 0, Text_t, "Finale Allegro"
1, 0, Text_t, "Erstellt: 2.2.2009\012"
1, 0, Text_t, "Update: 6.12.2011\012"
1, 0, Text_t, "Dauer: 2:24. Minuten\012"
1, 0, Time_signature, 3, 2, 24, 8
1, 0, Key_signature, 0, "major"
1, 0, Tempo, 300752
1, 0, Marker_t, "Teil 1"
1, 960, Tempo, 287081
1, 1320, Tempo, 309278
1, 1440, Tempo, 300752
1, 2400, Tempo, 304569
1, 2880, Tempo, 295567
1, 3120, Tempo, 300752
1, 3360, Tempo, 293399
1, 3600, Tempo, 301508
1, 3840, Tempo, 294840
1, 4080, Tempo, 319149
1, 4320, Tempo, 299252
1, 5760, Tempo, 300752
1, 6240, Tempo, 289157
1, 6600, Tempo, 307692
1, 6720, Tempo, 300000
1, 6960, Tempo, 310881
1, 7200, Tempo, 300000
1, 8160, Tempo, 304569
1, 8640, Tempo, 291262
1, 8880, Tempo, 302267
1, 9120, Tempo, 291262
1, 9360, Tempo, 300752
1, 9600, Tempo, 291262
1, 9840, Tempo, 325203
1, 10080, Tempo, 305344
1, 11520, Tempo, 300752
1, 11520, Marker_t, "Teil 1 Wiederholung"
1, 12480, Tempo, 287770
1, 12840, Tempo, 309278
1, 12960, Tempo, 300752
1, 13920, Tempo, 304569
1, 14400, Tempo, 295567
1, 14640, Tempo, 300752
1, 14880, Tempo, 293399
1, 15120, Tempo, 301508
1, 15360, Tempo, 294840
1, 15600, Tempo, 319149
1, 15840, Tempo, 299252
1, 17280, Tempo, 300752
1, 18240, Tempo, 289855
1, 18480, Tempo, 310881
1, 18720, Tempo, 300000
1, 19680, Tempo, 304569
1, 20160, Tempo, 291262
1, 20400, Tempo, 302267
1, 20640, Tempo, 291262
1, 20880, Tempo, 300752
1, 21120, Tempo, 291262
1, 21360, Tempo, 325203
1, 21600, Tempo, 305344
1, 23040, Tempo, 300752
1, 23040, Marker_t, "Teil 2"
1, 24000, Tempo, 291971
1, 24240, Tempo, 306122
1, 24480, Tempo, 298507
1, 25440, Tempo, 304569
1, 25920, Tempo, 300752
1, 26880, Tempo, 295567
1, 27240, Tempo, 325203
1, 27360, Tempo, 300000
1, 28320, Tempo, 294840
1, 28680, Tempo, 323450
1, 28800, Tempo, 300000
1, 29280, Tempo, 294118
1, 29640, Tempo, 305344
1, 29760, Tempo, 296296
1, 30120, Tempo, 325203
1, 30240, Tempo, 299252
1, 30720, Tempo, 296296
1, 31080, Tempo, 314136
1, 31200, Tempo, 298507
1, 31560, Tempo, 326087
1, 31680, Tempo, 299252
1, 32160, Tempo, 294840
1, 32520, Tempo, 304569
1, 32640, Tempo, 294840
1, 33000, Tempo, 317460
1, 33120, Tempo, 299252
1, 33600, Tempo, 314136
1, 34080, Tempo, 326087
1, 34440, Tempo, 485830
1, 34560, Tempo, 422535
1, 35400, Tempo, 310881
1, 35520, Tempo, 303030
1, 35880, Tempo, 328767
1, 36000, Tempo, 300752
1, 36960, Tempo, 291262
1, 37320, Tempo, 306122
1, 37440, Tempo, 300752
1, 38400, Tempo, 304569
1, 38880, Tempo, 295567
1, 39120, Tempo, 300752
1, 39360, Tempo, 293399
1, 39600, Tempo, 301508
1, 39840, Tempo, 294840
1, 40080, Tempo, 319149
1, 40320, Tempo, 299252
1, 41760, Tempo, 300752
1, 42240, Tempo, 288462
1, 42600, Tempo, 304569
1, 42720, Tempo, 300000
1, 42960, Tempo, 310881
1, 43200, Tempo, 300000
1, 44160, Tempo, 304569
1, 44640, Tempo, 291262
1, 44880, Tempo, 302267
1, 45120, Tempo, 291262
1, 45360, Tempo, 300752
1, 45600, Tempo, 291262
1, 45840, Tempo, 325203
1, 46080, Tempo, 305344
1, 47520, Tempo, 300752
1, 47520, Marker_t, "Teil 2 Wiederholung"
1, 48480, Tempo, 291971
1, 48720, Tempo, 306122
1, 48960, Tempo, 298507
1, 49920, Tempo, 304569
1, 50400, Tempo, 300752
1, 51360, Tempo, 295567
1, 51720, Tempo, 325203
1, 51840, Tempo, 300000
1, 52800, Tempo, 294840
1, 53160, Tempo, 323450
1, 53280, Tempo, 300000
1, 53760, Tempo, 294118
1, 54120, Tempo, 305344
1, 54240, Tempo, 296296
1, 54600, Tempo, 325203
1, 54720, Tempo, 299252
1, 55200, Tempo, 296296
1, 55560, Tempo, 314136
1, 55680, Tempo, 298507
1, 56040, Tempo, 326087
1, 56160, Tempo, 299252
1, 56640, Tempo, 294840
1, 57000, Tempo, 304569
1, 57120, Tempo, 294840
1, 57480, Tempo, 317460
1, 57600, Tempo, 299252
1, 58080, Tempo, 314136
1, 58560, Tempo, 326087
1, 58920, Tempo, 485830
1, 59040, Tempo, 451128
1, 59880, Tempo, 310881
1, 60000, Tempo, 303030
1, 60360, Tempo, 328767
1, 60480, Tempo, 300752
1, 61440, Tempo, 291262
1, 61800, Tempo, 306122
1, 61920, Tempo, 312500
1, 62160, Tempo, 300752
1, 62880, Tempo, 304569
1, 63360, Tempo, 295567
1, 63600, Tempo, 300752
1, 63840, Tempo, 293399
1, 64080, Tempo, 301508
1, 64320, Tempo, 294840
1, 64560, Tempo, 319149
1, 64800, Tempo, 299252
1, 66240, Tempo, 300752
1, 66720, Tempo, 288462
1, 67080, Tempo, 304569
1, 67200, Tempo, 300000
1, 67440, Tempo, 310881
1, 67680, Tempo, 300000
1, 68640, Tempo, 304569
1, 69120, Tempo, 291262
1, 69360, Tempo, 302267
1, 69600, Tempo, 291262
1, 69840, Tempo, 300752
1, 70080, Tempo, 291262
1, 70320, Tempo, 325203
1, 70560, Tempo, 305344
1, 72000, Tempo, 300752
1, 72000, Marker_t, "Teil 3"
1, 72960, Tempo, 287081
1, 73320, Tempo, 309278
1, 73440, Tempo, 300752
1, 74400, Tempo, 304569
1, 74880, Tempo, 295567
1, 75120, Tempo, 300752
1, 75360, Tempo, 293399
1, 75600, Tempo, 301508
1, 75840, Tempo, 294840
1, 76080, Tempo, 319149
1, 76320, Tempo, 299252
1, 77760, Tempo, 300752
1, 78720, Tempo, 287081
1, 79080, Tempo, 309278
1, 79200, Tempo, 296296
1, 80520, Tempo, 364742
1, 80640, Tempo, 298507
1, 81600, Tempo, 301508
1, 81960, Tempo, 337079
1, 82080, Tempo, 298507
1, 83400, Tempo, 320000
1, 83520, Tempo, 326975
1, 84000, Tempo, 300000
1, 84480, Tempo, 287081
1, 84840, Tempo, 309278
1, 84960, Tempo, 296296
1, 86280, Tempo, 364742
1, 86400, Tempo, 298507
1, 87360, Tempo, 301508
1, 87720, Tempo, 406780
1, 87840, Tempo, 298507
1, 89160, Tempo, 327869
1, 89280, Tempo, 297767
1, 90720, Tempo, 300752
1, 91680, Tempo, 292683
1, 92040, Tempo, 309278
1, 92160, Tempo, 300752
1, 93120, Tempo, 293399
1, 93480, Tempo, 336134
1, 93600, Tempo, 300752
1, 94560, Tempo, 292683
1, 94920, Tempo, 331492
1, 95040, Tempo, 301508
1, 96000, Tempo, 294118
1, 96360, Tempo, 336134
1, 96480, Tempo, 300000
1, 96960, Tempo, 297030
1, 97320, Tempo, 306122
1, 97440, Tempo, 301508
1, 97800, Tempo, 314961
1, 97920, Tempo, 298507
1, 98880, Tempo, 285714
1, 99240, Tempo, 324324
1, 99360, Tempo, 310881
1, 99840, Tempo, 324324
1, 100320, Tempo, 342857
1, 100680, Tempo, 474308
1, 100800, Tempo, 300752
1, 101760, Tempo, 287081
1, 102120, Tempo, 309278
1, 102240, Tempo, 300752
1, 103200, Tempo, 304569
1, 103680, Tempo, 295567
1, 103920, Tempo, 300752
1, 104160, Tempo, 293399
1, 104400, Tempo, 301508
1, 104640, Tempo, 294840
1, 104880, Tempo, 319149
1, 105120, Tempo, 306122
1, 105600, Tempo, 299252
1, 106560, Tempo, 300752
1, 107040, Tempo, 289157
1, 107400, Tempo, 307692
1, 107520, Tempo, 300000
1, 107760, Tempo, 310881
1, 108000, Tempo, 300000
1, 108960, Tempo, 304569
1, 109440, Tempo, 291262
1, 109680, Tempo, 302267
1, 109920, Tempo, 291262
1, 110160, Tempo, 300752
1, 110400, Tempo, 291262
1, 110640, Tempo, 325203
1, 110880, Tempo, 305344
1, 112320, Tempo, 300752
1, 112320, Marker_t, "Teil 3 Wiederholung"
1, 113280, Tempo, 287081
1, 113640, Tempo, 309278
1, 113760, Tempo, 300752
1, 114720, Tempo, 304569
1, 115200, Tempo, 295567
1, 115440, Tempo, 300752
1, 115680, Tempo, 293399
1, 115920, Tempo, 301508
1, 116160, Tempo, 294840
1, 116400, Tempo, 319149
1, 116640, Tempo, 299252
1, 118080, Tempo, 300752
1, 119040, Tempo, 287081
1, 119400, Tempo, 309278
1, 119520, Tempo, 296296
1, 120840, Tempo, 364742
1, 120960, Tempo, 298507
1, 121920, Tempo, 301508
1, 122280, Tempo, 337079
1, 122400, Tempo, 298507
1, 123720, Tempo, 320000
1, 123840, Tempo, 326975
1, 124320, Tempo, 300000
1, 124800, Tempo, 287081
1, 125160, Tempo, 309278
1, 125280, Tempo, 296296
1, 126600, Tempo, 364742
1, 126720, Tempo, 298507
1, 127680, Tempo, 301508
1, 128040, Tempo, 406780
1, 128160, Tempo, 298507
1, 129480, Tempo, 327869
1, 129600, Tempo, 297767
1, 131040, Tempo, 300752
1, 132000, Tempo, 292683
1, 132360, Tempo, 309278
1, 132480, Tempo, 300752
1, 133440, Tempo, 293399
1, 133800, Tempo, 336134
1, 133920, Tempo, 300752
1, 134880, Tempo, 292683
1, 135240, Tempo, 331492
1, 135360, Tempo, 301508
1, 136320, Tempo, 294118
1, 136680, Tempo, 336134
1, 136800, Tempo, 300000
1, 137280, Tempo, 297030
1, 137640, Tempo, 306122
1, 137760, Tempo, 301508
1, 138120, Tempo, 314961
1, 138240, Tempo, 298507
1, 139200, Tempo, 285714
1, 139560, Tempo, 324324
1, 139680, Tempo, 310881
1, 140160, Tempo, 324324
1, 140640, Tempo, 342857
1, 141000, Tempo, 474308
1, 141120, Tempo, 300752
1, 142080, Tempo, 287081
1, 142440, Tempo, 309278
1, 142560, Tempo, 300752
1, 143520, Tempo, 304569
1, 144000, Tempo, 295567
1, 144240, Tempo, 300752
1, 144480, Tempo, 293399
1, 144720, Tempo, 301508
1, 144960, Tempo, 294840
1, 145200, Tempo, 319149
1, 145440, Tempo, 306905
1, 145920, Tempo, 299252
1, 146880, Tempo, 300752
1, 147360, Tempo, 289157
1, 147720, Tempo, 307692
1, 147840, Tempo, 300000
1, 148080, Tempo, 310881
1, 148320, Tempo, 300000
1, 149280, Tempo, 304569
1, 149760, Tempo, 291262
1, 150000, Tempo, 302267
1, 150240, Tempo, 291262
1, 150480, Tempo, 300752
1, 150720, Tempo, 291262
1, 150960, Tempo, 325203
1, 151200, Tempo, 305344
1, 152640, Key_signature, -3, "major"
1, 152640, Marker_t, "Teil 4"
1, 153840, Tempo, 317460
1, 154080, Tempo, 304569
1, 155280, Tempo, 318302
1, 155520, Tempo, 304569
1, 156480, Tempo, 312500
1, 156960, Tempo, 307692
1, 156994, Tempo, 309278
1, 157186, Tempo, 310078
1, 157378, Tempo, 310881
1, 157570, Tempo, 311688
1, 157762, Tempo, 312500
1, 157915, Tempo, 311688
1, 157934, Tempo, 312500
1, 157954, Tempo, 313316
1, 157973, Tempo, 314961
1, 157992, Tempo, 315789
1, 158011, Tempo, 317460
1, 158030, Tempo, 318302
1, 158050, Tempo, 320000
1, 158069, Tempo, 320856
1, 158088, Tempo, 322581
1, 158107, Tempo, 323450
1, 158126, Tempo, 325203
1, 158146, Tempo, 326087
1, 158165, Tempo, 327869
1, 158184, Tempo, 328767
1, 158203, Tempo, 330579
1, 158222, Tempo, 331492
1, 158242, Tempo, 333333
1, 158261, Tempo, 334262
1, 158280, Tempo, 336134
1, 158299, Tempo, 337079
1, 158318, Tempo, 338983
1, 158338, Tempo, 339943
1, 158357, Tempo, 341880
1, 158400, Tempo, 306905
1, 159360, Tempo, 300000
1, 159600, Tempo, 314961
1, 159840, Tempo, 306905
1, 160800, Tempo, 299252
1, 161040, Tempo, 319149
1, 161280, Tempo, 300000
1, 161520, Tempo, 313316
1, 161760, Tempo, 302267
1, 162000, Tempo, 312500
1, 162240, Tempo, 301508
1, 162480, Tempo, 319149
1, 162720, Tempo, 306122
1, 164160, Tempo, 305344
1, 164160, Marker_t, "Teil 4 Wiederholung"
1, 165360, Tempo, 317460
1, 165600, Tempo, 304569
1, 166800, Tempo, 318302
1, 167040, Tempo, 304569
1, 168000, Tempo, 312500
1, 168480, Tempo, 307692
1, 168514, Tempo, 309278
1, 168706, Tempo, 310078
1, 168898, Tempo, 310881
1, 169090, Tempo, 311688
1, 169282, Tempo, 312500
1, 169435, Tempo, 311688
1, 169454, Tempo, 312500
1, 169474, Tempo, 313316
1, 169493, Tempo, 314961
1, 169512, Tempo, 315789
1, 169531, Tempo, 317460
1, 169550, Tempo, 318302
1, 169570, Tempo, 320000
1, 169589, Tempo, 320856
1, 169608, Tempo, 322581
1, 169627, Tempo, 323450
1, 169646, Tempo, 325203
1, 169666, Tempo, 326087
1, 169685, Tempo, 327869
1, 169704, Tempo, 328767
1, 169723, Tempo, 330579
1, 169742, Tempo, 331492
1, 169762, Tempo, 333333
1, 169781, Tempo, 334262
1, 169800, Tempo, 336134
1, 169819, Tempo, 337079
1, 169838, Tempo, 338983
1, 169858, Tempo, 339943
1, 169877, Tempo, 341880
1, 169920, Tempo, 306905
1, 170880, Tempo, 300000
1, 171120, Tempo, 314961
1, 171360, Tempo, 306905
1, 172320, Tempo, 299252
1, 172560, Tempo, 319149
1, 172800, Tempo, 300000
1, 173040, Tempo, 313316
1, 173280, Tempo, 302267
1, 173520, Tempo, 312500
1, 173760, Tempo, 301508
1, 174000, Tempo, 319149
1, 174240, Tempo, 310078
1, 174720, Tempo, 332410
1, 175200, Tempo, 363636
1, 175680, Tempo, 305344
1, 175680, Marker_t, "Teil 5"
1, 176880, Tempo, 322581
1, 177120, Tempo, 305344
1, 178320, Tempo, 360360
1, 178560, Tempo, 305344
1, 179760, Tempo, 322581
1, 180000, Tempo, 305344
1, 181200, Tempo, 326087
1, 181440, Tempo, 305344
1, 182640, Tempo, 326087
1, 182880, Tempo, 305344
1, 183360, Tempo, 303030
1, 183600, Tempo, 309278
1, 183840, Tempo, 306905
1, 184080, Tempo, 400000
1, 184320, Tempo, 305344
1, 185760, Tempo, 422535
1, 186600, Tempo, 310881
1, 186720, Tempo, 303030
1, 187080, Tempo, 328767
1, 187200, Key_signature, 0, "major"
1, 187200, Marker_t, "Teil 6"
1, 188160, Tempo, 287081
1, 188520, Tempo, 309278
1, 188640, Tempo, 300752
1, 189600, Tempo, 304569
1, 190080, Tempo, 295567
1, 190320, Tempo, 300752
1, 190560, Tempo, 293399
1, 190800, Tempo, 301508
1, 191040, Tempo, 294840
1, 191280, Tempo, 319149
1, 191520, Tempo, 299252
1, 192960, Tempo, 300752
1, 193440, Tempo, 289157
1, 193800, Tempo, 307692
1, 193920, Tempo, 300000
1, 194160, Tempo, 310881
1, 194400, Tempo, 300000
1, 195360, Tempo, 304569
1, 195840, Tempo, 291262
1, 196080, Tempo, 302267
1, 196320, Tempo, 291262
1, 196560, Tempo, 300752
1, 196800, Tempo, 291262
1, 197040, Tempo, 325203
1, 197280, Tempo, 305344
1, 198720, Tempo, 300752
1, 199680, Tempo, 291971
1, 199920, Tempo, 322581
1, 200160, Tempo, 295567
1, 200640, Tempo, 297767
1, 201120, Tempo, 304569
1, 201600, Tempo, 300752
1, 202560, Tempo, 295567
1, 202920, Tempo, 325203
1, 203040, Tempo, 300000
1, 204000, Tempo, 294840
1, 204360, Tempo, 323450
1, 204480, Tempo, 300000
1, 204960, Tempo, 294118
1, 205320, Tempo, 305344
1, 205440, Tempo, 296296
1, 205800, Tempo, 325203
1, 205920, Tempo, 299252
1, 206400, Tempo, 296296
1, 206760, Tempo, 314136
1, 206880, Tempo, 298507
1, 207240, Tempo, 326087
1, 207360, Tempo, 299252
1, 207840, Tempo, 294840
1, 208200, Tempo, 304569
1, 208320, Tempo, 294840
1, 208680, Tempo, 317460
1, 208800, Tempo, 299252
1, 209280, Tempo, 314136
1, 209760, Tempo, 326087
1, 210120, Tempo, 485830
1, 210240, Tempo, 422535
1, 210720, Tempo, 422535
1, 210840, Tempo, 312500
1, 210960, Tempo, 311688
1, 211080, Tempo, 310881
1, 211200, Tempo, 306122
1, 211560, Tempo, 316623
1, 211680, Tempo, 300752
1, 212640, Tempo, 291262
1, 213000, Tempo, 306122
1, 213120, Tempo, 300752
1, 214080, Tempo, 304569
1, 214560, Tempo, 295567
1, 214800, Tempo, 300752
1, 215040, Tempo, 293399
1, 215280, Tempo, 301508
1, 215520, Tempo, 294840
1, 215760, Tempo, 319149
1, 216000, Tempo, 299252
1, 217440, Tempo, 300752
1, 217920, Tempo, 288462
1, 218280, Tempo, 304569
1, 218400, Tempo, 300000
1, 218640, Tempo, 310881
1, 218880, Tempo, 300000
1, 219840, Tempo, 304569
1, 220320, Tempo, 291262
1, 220560, Tempo, 302267
1, 220800, Tempo, 291262
1, 221040, Tempo, 300752
1, 221280, Tempo, 291262
1, 221520, Tempo, 325203
1, 221760, Tempo, 300000
1, 222720, Tempo, 304569
1, 223200, Tempo, 291262
1, 223440, Tempo, 302267
1, 223680, Tempo, 291262
1, 223920, Tempo, 300752
1, 224160, Tempo, 291262
1, 224400, Tempo, 325203
1, 224640, Tempo, 335196
1, 225600, Tempo, 384418
1, 225600, End_track
2, 0, Start_track
2, 0, Title_t, "Piano right"
2, 0, Program_c, 0, 0
2, 0, Note_on_c, 0, 76, 45
2, 840, Note_on_c, 0, 76, 0
2, 840, Note_on_c, 0, 77, 41
2, 960, Note_on_c, 0, 77, 0
2, 960, Note_on_c, 0, 74, 45
2, 1320, Note_on_c, 0, 74, 0
2, 1320, Note_on_c, 0, 76, 41
2, 1440, Note_on_c, 0, 76, 0
2, 1440, Note_on_c, 0, 72, 45
2, 1560, Note_on_c, 0, 72, 0
2, 1920, Note_on_c, 0, 79, 43
2, 2040, Note_on_c, 0, 79, 0
2, 2400, Note_on_c, 0, 79, 43
2, 2520, Note_on_c, 0, 79, 0
2, 2880, Note_on_c, 0, 79, 45
2, 3120, Note_on_c, 0, 79, 0
2, 3120, Note_on_c, 0, 77, 41
2, 3240, Note_on_c, 0, 77, 0
2, 3360, Note_on_c, 0, 77, 45
2, 3600, Note_on_c, 0, 77, 0
2, 3600, Note_on_c, 0, 76, 41
2, 3720, Note_on_c, 0, 76, 0
2, 3840, Note_on_c, 0, 76, 45
2, 4080, Note_on_c, 0, 76, 0
2, 4080, Note_on_c, 0, 74, 40
2, 4200, Note_on_c, 0, 74, 0
2, 4320, Note_on_c, 0, 74, 45
2, 4440, Note_on_c, 0, 74, 0
2, 4800, Note_on_c, 0, 71, 41
2, 4920, Note_on_c, 0, 71, 0
2, 5280, Note_on_c, 0, 67, 41
2, 5400, Note_on_c, 0, 67, 0
2, 5760, Note_on_c, 0, 76, 72
2, 6600, Note_on_c, 0, 76, 0
2, 6600, Note_on_c, 0, 77, 59
2, 6720, Note_on_c, 0, 77, 0
2, 6720, Note_on_c, 0, 74, 69
2, 7080, Note_on_c, 0, 74, 0
2, 7080, Note_on_c, 0, 76, 64
2, 7200, Note_on_c, 0, 76, 0
2, 7200, Note_on_c, 0, 72, 70
2, 7320, Note_on_c, 0, 72, 0
2, 7680, Note_on_c, 0, 84, 70
2, 7800, Note_on_c, 0, 84, 0
2, 8160, Note_on_c, 0, 84, 70
2, 8280, Note_on_c, 0, 84, 0
2, 8640, Note_on_c, 0, 80, 67
2, 8760, Note_on_c, 0, 80, 0
2, 8760, Note_on_c, 0, 81, 59
2, 8880, Note_on_c, 0, 81, 0
2, 9120, Note_on_c, 0, 76, 68
2, 9240, Note_on_c, 0, 76, 0
2, 9240, Note_on_c, 0, 77, 59
2, 9360, Note_on_c, 0, 77, 0
2, 9600, Note_on_c, 0, 74, 70
2, 9720, Note_on_c, 0, 74, 0
2, 9720, Note_on_c, 0, 71, 58
2, 9840, Note_on_c, 0, 71, 0
2, 10080, Note_on_c, 0, 72, 71
2, 10200, Note_on_c, 0, 72, 0
2, 11520, Note_on_c, 0, 76, 45
2, 12360, Note_on_c, 0, 76, 0
2, 12360, Note_on_c, 0, 77, 41
2, 12480, Note_on_c, 0, 77, 0
2, 12480, Note_on_c, 0, 74, 45
2, 12840, Note_on_c, 0, 74, 0
2, 12840, Note_on_c, 0, 76, 41
2, 12960, Note_on_c, 0, 76, 0
2, 12960, Note_on_c, 0, 72, 45
2, 13080, Note_on_c, 0, 72, 0
2, 13440, Note_on_c, 0, 79, 43
2, 13560, Note_on_c, 0, 79, 0
2, 13920, Note_on_c, 0, 79, 43
2, 14040, Note_on_c, 0, 79, 0
2, 14400, Note_on_c, 0, 79, 45
2, 14640, Note_on_c, 0, 79, 0
2, 14640, Note_on_c, 0, 77, 41
2, 14760, Note_on_c, 0, 77, 0
2, 14880, Note_on_c, 0, 77, 45
2, 15120, Note_on_c, 0, 77, 0
2, 15120, Note_on_c, 0, 76, 41
2, 15240, Note_on_c, 0, 76, 0
2, 15360, Note_on_c, 0, 76, 45
2, 15600, Note_on_c, 0, 76, 0
2, 15600, Note_on_c, 0, 74, 40
2, 15720, Note_on_c, 0, 74, 0
2, 15840, Note_on_c, 0, 74, 45
2, 15960, Note_on_c, 0, 74, 0
2, 16320, Note_on_c, 0, 71, 41
2, 16440, Note_on_c, 0, 71, 0
2, 16800, Note_on_c, 0, 67, 41
2, 16920, Note_on_c, 0, 67, 0
2, 17280, Note_on_c, 0, 76, 72
2, 18120, Note_on_c, 0, 76, 0
2, 18120, Note_on_c, 0, 77, 59
2, 18240, Note_on_c, 0, 77, 0
2, 18240, Note_on_c, 0, 74, 69
2, 18600, Note_on_c, 0, 74, 0
2, 18600, Note_on_c, 0, 76, 64
2, 18720, Note_on_c, 0, 76, 0
2, 18720, Note_on_c, 0, 72, 70
2, 18840, Note_on_c, 0, 72, 0
2, 19200, Note_on_c, 0, 84, 70
2, 19320, Note_on_c, 0, 84, 0
2, 19680, Note_on_c, 0, 84, 70
2, 19800, Note_on_c, 0, 84, 0
2, 20160, Note_on_c, 0, 80, 67
2, 20280, Note_on_c, 0, 80, 0
2, 20280, Note_on_c, 0, 81, 59
2, 20400, Note_on_c, 0, 81, 0
2, 20640, Note_on_c, 0, 76, 68
2, 20760, Note_on_c, 0, 76, 0
2, 20760, Note_on_c, 0, 77, 59
2, 20880, Note_on_c, 0, 77, 0
2, 21120, Note_on_c, 0, 74, 70
2, 21240, Note_on_c, 0, 74, 0
2, 21240, Note_on_c, 0, 71, 58
2, 21360, Note_on_c, 0, 71, 0
2, 21600, Note_on_c, 0, 72, 71
2, 21720, Note_on_c, 0, 72, 0
2, 23040, Note_on_c, 0, 77, 45
2, 23880, Note_on_c, 0, 77, 0
2, 23880, Note_on_c, 0, 79, 41
2, 24000, Note_on_c, 0, 79, 0
2, 24000, Note_on_c, 0, 76, 45
2, 24360, Note_on_c, 0, 76, 0
2, 24360, Note_on_c, 0, 77, 41
2, 24480, Note_on_c, 0, 77, 0
2, 24480, Note_on_c, 0, 74, 45
2, 24600, Note_on_c, 0, 74, 0
2, 24960, Note_on_c, 0, 71, 43
2, 25080, Note_on_c, 0, 71, 0
2, 25440, Note_on_c, 0, 67, 43
2, 25560, Note_on_c, 0, 67, 0
2, 25920, Note_on_c, 0, 84, 65
2, 26760, Note_on_c, 0, 84, 0
2, 26760, Note_on_c, 0, 86, 57
2, 26880, Note_on_c, 0, 86, 0
2, 26880, Note_on_c, 0, 83, 66
2, 27240, Note_on_c, 0, 83, 0
2, 27240, Note_on_c, 0, 84, 57
2, 27360, Note_on_c, 0, 84, 0
2, 27360, Note_on_c, 0, 81, 65
2, 28200, Note_on_c, 0, 81, 0
2, 28200, Note_on_c, 0, 83, 57
2, 28320, Note_on_c, 0, 83, 0
2, 28320, Note_on_c, 0, 79, 66
2, 28680, Note_on_c, 0, 79, 0
2, 28680, Note_on_c, 0, 81, 57
2, 28800, Note_on_c, 0, 81, 0
2, 28800, Note_on_c, 0, 78, 66
2, 29132, Note_on_c, 0, 81, 61
2, 29160, Note_on_c, 0, 78, 0
2, 29252, Note_on_c, 0, 81, 0
2, 29308, Note_on_c, 0, 84, 66
2, 29640, Note_on_c, 0, 81, 62
2, 29668, Note_on_c, 0, 84, 0
2, 29760, Note_on_c, 0, 81, 0
2, 29760, Note_on_c, 0, 78, 66
2, 30120, Note_on_c, 0, 78, 0
2, 30120, Note_on_c, 0, 81, 63
2, 30240, Note_on_c, 0, 81, 0
2, 30240, Note_on_c, 0, 79, 71
2, 30360, Note_on_c, 0, 79, 0
2, 30720, Note_on_c, 0, 79, 66
2, 30840, Note_on_c, 0, 79, 0
2, 31200, Note_on_c, 0, 79, 66
2, 31320, Note_on_c, 0, 79, 0
2, 31680, Note_on_c, 0, 78, 66
2, 32012, Note_on_c, 0, 81, 61
2, 32040, Note_on_c, 0, 78, 0
2, 32132, Note_on_c, 0, 81, 0
2, 32188, Note_on_c, 0, 84, 66
2, 32520, Note_on_c, 0, 81, 62
2, 32548, Note_on_c, 0, 84, 0
2, 32640, Note_on_c, 0, 81, 0
2, 32640, Note_on_c, 0, 78, 66
2, 33000, Note_on_c, 0, 78, 0
2, 33000, Note_on_c, 0, 81, 63
2, 33120, Note_on_c, 0, 81, 0
2, 33120, Note_on_c, 0, 79, 71
2, 33240, Note_on_c, 0, 79, 0
2, 33600, Note_on_c, 0, 79, 66
2, 33720, Note_on_c, 0, 79, 0
2, 34080, Note_on_c, 0, 79, 66
2, 34200, Note_on_c, 0, 79, 0
2, 34560, Note_on_c, 0, 79, 71
2, 35400, Note_on_c, 0, 79, 0
2, 35400, Note_on_c, 0, 81, 41
2, 35520, Note_on_c, 0, 81, 0
2, 35520, Note_on_c, 0, 77, 45
2, 35880, Note_on_c, 0, 77, 0
2, 35880, Note_on_c, 0, 79, 41
2, 36000, Note_on_c, 0, 79, 0
2, 36000, Note_on_c, 0, 76, 45
2, 36840, Note_on_c, 0, 76, 0
2, 36840, Note_on_c, 0, 77, 41
2, 36960, Note_on_c, 0, 77, 0
2, 36960, Note_on_c, 0, 74, 45
2, 37320, Note_on_c, 0, 74, 0
2, 37320, Note_on_c, 0, 76, 41
2, 37440, Note_on_c, 0, 76, 0
2, 37440, Note_on_c, 0, 72, 45
2, 37560, Note_on_c, 0, 72, 0
2, 37920, Note_on_c, 0, 79, 43
2, 38040, Note_on_c, 0, 79, 0
2, 38400, Note_on_c, 0, 79, 43
2, 38520, Note_on_c, 0, 79, 0
2, 38880, Note_on_c, 0, 79, 45
2, 39120, Note_on_c, 0, 79, 0
2, 39120, Note_on_c, 0, 77, 41
2, 39240, Note_on_c, 0, 77, 0
2, 39360, Note_on_c, 0, 77, 45
2, 39600, Note_on_c, 0, 77, 0
2, 39600, Note_on_c, 0, 76, 41
2, 39720, Note_on_c, 0, 76, 0
2, 39840, Note_on_c, 0, 76, 45
2, 40080, Note_on_c, 0, 76, 0
2, 40080, Note_on_c, 0, 74, 40
2, 40200, Note_on_c, 0, 74, 0
2, 40320, Note_on_c, 0, 74, 45
2, 40440, Note_on_c, 0, 74, 0
2, 40800, Note_on_c, 0, 71, 41
2, 40920, Note_on_c, 0, 71, 0
2, 41280, Note_on_c, 0, 67, 41
2, 41400, Note_on_c, 0, 67, 0
2, 41760, Note_on_c, 0, 76, 72
2, 42600, Note_on_c, 0, 76, 0
2, 42600, Note_on_c, 0, 77, 59
2, 42720, Note_on_c, 0, 77, 0
2, 42720, Note_on_c, 0, 74, 69
2, 43080, Note_on_c, 0, 74, 0
2, 43080, Note_on_c, 0, 76, 64
2, 43200, Note_on_c, 0, 76, 0
2, 43200, Note_on_c, 0, 72, 70
2, 43320, Note_on_c, 0, 72, 0
2, 43680, Note_on_c, 0, 84, 70
2, 43800, Note_on_c, 0, 84, 0
2, 44160, Note_on_c, 0, 84, 70
2, 44280, Note_on_c, 0, 84, 0
2, 44640, Note_on_c, 0, 80, 67
2, 44760, Note_on_c, 0, 80, 0
2, 44760, Note_on_c, 0, 81, 59
2, 44880, Note_on_c, 0, 81, 0
2, 45120, Note_on_c, 0, 76, 68
2, 45240, Note_on_c, 0, 76, 0
2, 45240, Note_on_c, 0, 77, 59
2, 45360, Note_on_c, 0, 77, 0
2, 45600, Note_on_c, 0, 74, 70
2, 45720, Note_on_c, 0, 74, 0
2, 45720, Note_on_c, 0, 71, 58
2, 45840, Note_on_c, 0, 71, 0
2, 46080, Note_on_c, 0, 72, 71
2, 46200, Note_on_c, 0, 72, 0
2, 47520, Note_on_c, 0, 77, 45
2, 48360, Note_on_c, 0, 77, 0
2, 48360, Note_on_c, 0, 79, 41
2, 48480, Note_on_c, 0, 79, 0
2, 48480, Note_on_c, 0, 76, 45
2, 48840, Note_on_c, 0, 76, 0
2, 48840, Note_on_c, 0, 77, 41
2, 48960, Note_on_c, 0, 77, 0
2, 48960, Note_on_c, 0, 74, 45
2, 49080, Note_on_c, 0, 74, 0
2, 49440, Note_on_c, 0, 71, 43
2, 49560, Note_on_c, 0, 71, 0
2, 49920, Note_on_c, 0, 67, 43
2, 50040, Note_on_c, 0, 67, 0
2, 50400, Note_on_c, 0, 84, 65
2, 51240, Note_on_c, 0, 84, 0
2, 51240, Note_on_c, 0, 86, 57
2, 51360, Note_on_c, 0, 86, 0
2, 51360, Note_on_c, 0, 83, 66
2, 51720, Note_on_c, 0, 83, 0
2, 51720, Note_on_c, 0, 84, 57
2, 51840, Note_on_c, 0, 84, 0
2, 51840, Note_on_c, 0, 81, 65
2, 52680, Note_on_c, 0, 81, 0
2, 52680, Note_on_c, 0, 83, 57
2, 52800, Note_on_c, 0, 83, 0
2, 52800, Note_on_c, 0, 79, 66
2, 53160, Note_on_c, 0, 79, 0
2, 53160, Note_on_c, 0, 81, 57
2, 53280, Note_on_c, 0, 81, 0
2, 53280, Note_on_c, 0, 78, 66
2, 53612, Note_on_c, 0, 81, 61
2, 53640, Note_on_c, 0, 78, 0
2, 53732, Note_on_c, 0, 81, 0
2, 53788, Note_on_c, 0, 84, 66
2, 54120, Note_on_c, 0, 81, 62
2, 54148, Note_on_c, 0, 84, 0
2, 54240, Note_on_c, 0, 81, 0
2, 54240, Note_on_c, 0, 78, 66
2, 54600, Note_on_c, 0, 78, 0
2, 54600, Note_on_c, 0, 81, 63
2, 54720, Note_on_c, 0, 81, 0
2, 54720, Note_on_c, 0, 79, 71
2, 54840, Note_on_c, 0, 79, 0
2, 55200, Note_on_c, 0, 79, 66
2, 55320, Note_on_c, 0, 79, 0
2, 55680, Note_on_c, 0, 79, 66
2, 55800, Note_on_c, 0, 79, 0
2, 56160, Note_on_c, 0, 78, 66
2, 56492, Note_on_c, 0, 81, 61
2, 56520, Note_on_c, 0, 78, 0
2, 56612, Note_on_c, 0, 81, 0
2, 56668, Note_on_c, 0, 84, 66
2, 57000, Note_on_c, 0, 81, 62
2, 57028, Note_on_c, 0, 84, 0
2, 57120, Note_on_c, 0, 81, 0
2, 57120, Note_on_c, 0, 78, 66
2, 57480, Note_on_c, 0, 78, 0
2, 57480, Note_on_c, 0, 81, 63
2, 57600, Note_on_c, 0, 81, 0
2, 57600, Note_on_c, 0, 79, 71
2, 57720, Note_on_c, 0, 79, 0
2, 58080, Note_on_c, 0, 79, 66
2, 58200, Note_on_c, 0, 79, 0
2, 58560, Note_on_c, 0, 79, 66
2, 58680, Note_on_c, 0, 79, 0
2, 59040, Note_on_c, 0, 79, 71
2, 59880, Note_on_c, 0, 79, 0
2, 59880, Note_on_c, 0, 81, 41
2, 60000, Note_on_c, 0, 81, 0
2, 60000, Note_on_c, 0, 77, 45
2, 60360, Note_on_c, 0, 77, 0
2, 60360, Note_on_c, 0, 79, 41
2, 60480, Note_on_c, 0, 79, 0
2, 60480, Note_on_c, 0, 76, 45
2, 61320, Note_on_c, 0, 76, 0
2, 61320, Note_on_c, 0, 77, 41
2, 61440, Note_on_c, 0, 77, 0
2, 61440, Note_on_c, 0, 74, 45
2, 61800, Note_on_c, 0, 74, 0
2, 61800, Note_on_c, 0, 76, 41
2, 61920, Note_on_c, 0, 76, 0
2, 61920, Note_on_c, 0, 72, 45
2, 62040, Note_on_c, 0, 72, 0
2, 62400, Note_on_c, 0, 79, 43
2, 62520, Note_on_c, 0, 79, 0
2, 62880, Note_on_c, 0, 79, 43
2, 63000, Note_on_c, 0, 79, 0
2, 63360, Note_on_c, 0, 79, 45
2, 63600, Note_on_c, 0, 79, 0
2, 63600, Note_on_c, 0, 77, 41
2, 63720, Note_on_c, 0, 77, 0
2, 63840, Note_on_c, 0, 77, 45
2, 64080, Note_on_c, 0, 77, 0
2, 64080, Note_on_c, 0, 76, 41
2, 64200, Note_on_c, 0, 76, 0
2, 64320, Note_on_c, 0, 76, 45
2, 64560, Note_on_c, 0, 76, 0
2, 64560, Note_on_c, 0, 74, 40
2, 64680, Note_on_c, 0, 74, 0
2, 64800, Note_on_c, 0, 74, 45
2, 64920, Note_on_c, 0, 74, 0
2, 65280, Note_on_c, 0, 71, 41
2, 65400, Note_on_c, 0, 71, 0
2, 65760, Note_on_c, 0, 67, 41
2, 65880, Note_on_c, 0, 67, 0
2, 66240, Note_on_c, 0, 76, 72
2, 67080, Note_on_c, 0, 76, 0
2, 67080, Note_on_c, 0, 77, 59
2, 67200, Note_on_c, 0, 77, 0
2, 67200, Note_on_c, 0, 74, 69
2, 67560, Note_on_c, 0, 74, 0
2, 67560, Note_on_c, 0, 76, 64
2, 67680, Note_on_c, 0, 76, 0
2, 67680, Note_on_c, 0, 72, 70
2, 67800, Note_on_c, 0, 72, 0
2, 68160, Note_on_c, 0, 84, 70
2, 68280, Note_on_c, 0, 84, 0
2, 68640, Note_on_c, 0, 84, 70
2, 68760, Note_on_c, 0, 84, 0
2, 69120, Note_on_c, 0, 80, 67
2, 69240, Note_on_c, 0, 80, 0
2, 69240, Note_on_c, 0, 81, 59
2, 69360, Note_on_c, 0, 81, 0
2, 69600, Note_on_c, 0, 76, 68
2, 69720, Note_on_c, 0, 76, 0
2, 69720, Note_on_c, 0, 77, 59
2, 69840, Note_on_c, 0, 77, 0
2, 70080, Note_on_c, 0, 74, 70
2, 70200, Note_on_c, 0, 74, 0
2, 70200, Note_on_c, 0, 71, 58
2, 70320, Note_on_c, 0, 71, 0
2, 70560, Note_on_c, 0, 72, 71
2, 70680, Note_on_c, 0, 72, 0
2, 72000, Note_on_c, 0, 76, 45
2, 72840, Note_on_c, 0, 76, 0
2, 72840, Note_on_c, 0, 79, 41
2, 72960, Note_on_c, 0, 79, 0
2, 72960, Note_on_c, 0, 78, 45
2, 73320, Note_on_c, 0, 78, 0
2, 73320, Note_on_c, 0, 81, 41
2, 73440, Note_on_c, 0, 81, 0
2, 73440, Note_on_c, 0, 79, 45
2, 73560, Note_on_c, 0, 79, 0
2, 73920, Note_on_c, 0, 86, 48
2, 74040, Note_on_c, 0, 86, 0
2, 74400, Note_on_c, 0, 86, 48
2, 74520, Note_on_c, 0, 86, 0
2, 74880, Note_on_c, 0, 86, 52
2, 75120, Note_on_c, 0, 86, 0
2, 75120, Note_on_c, 0, 84, 45
2, 75240, Note_on_c, 0, 84, 0
2, 75360, Note_on_c, 0, 84, 52
2, 75600, Note_on_c, 0, 84, 0
2, 75600, Note_on_c, 0, 83, 45
2, 75720, Note_on_c, 0, 83, 0
2, 75840, Note_on_c, 0, 83, 52
2, 76080, Note_on_c, 0, 83, 0
2, 76080, Note_on_c, 0, 81, 44
2, 76200, Note_on_c, 0, 81, 0
2, 76320, Note_on_c, 0, 81, 53
2, 76440, Note_on_c, 0, 81, 0
2, 76800, Note_on_c, 0, 78, 50
2, 76920, Note_on_c, 0, 78, 0
2, 77280, Note_on_c, 0, 74, 48
2, 77400, Note_on_c, 0, 74, 0
2, 78240, Note_on_c, 0, 83, 45
2, 78240, Note_on_c, 0, 79, 45
2, 78360, Note_on_c, 0, 79, 0
2, 78360, Note_on_c, 0, 83, 0
2, 78720, Note_on_c, 0, 83, 45
2, 78720, Note_on_c, 0, 79, 45
2, 78840, Note_on_c, 0, 79, 0
2, 78840, Note_on_c, 0, 83, 0
2, 79200, Note_on_c, 0, 83, 50
2, 79200, Note_on_c, 0, 79, 50
2, 79320, Note_on_c, 0, 79, 0
2, 79320, Note_on_c, 0, 83, 0
2, 79680, Note_on_c, 0, 83, 45
2, 79680, Note_on_c, 0, 79, 45
2, 79800, Note_on_c, 0, 79, 0
2, 79800, Note_on_c, 0, 83, 0
2, 80160, Note_on_c, 0, 83, 45
2, 80160, Note_on_c, 0, 79, 45
2, 80280, Note_on_c, 0, 79, 0
2, 80280, Note_on_c, 0, 83, 0
2, 80640, Note_on_c, 0, 83, 58
2, 80640, Note_on_c, 0, 79, 58
2, 81120, Note_on_c, 0, 79, 0
2, 81120, Note_on_c, 0, 83, 0
2, 81120, Note_on_c, 0, 84, 50
2, 81120, Note_on_c, 0, 81, 50
2, 81600, Note_on_c, 0, 81, 0
2, 81600, Note_on_c, 0, 84, 0
2, 81600, Note_on_c, 0, 86, 50
2, 81600, Note_on_c, 0, 83, 50
2, 82080, Note_on_c, 0, 83, 0
2, 82080, Note_on_c, 0, 86, 0
2, 82080, Note_on_c, 0, 84, 60
2, 82240, Note_on_c, 0, 84, 0
2, 82240, Note_on_c, 0, 81, 51
2, 82400, Note_on_c, 0, 81, 0
2, 82400, Note_on_c, 0, 76, 51
2, 82560, Note_on_c, 0, 76, 0
2, 82560, Note_on_c, 0, 83, 59
2, 82720, Note_on_c, 0, 83, 0
2, 82720, Note_on_c, 0, 79, 50
2, 82880, Note_on_c, 0, 79, 0
2, 82880, Note_on_c, 0, 74, 51
2, 83040, Note_on_c, 0, 74, 0
2, 83040, Note_on_c, 0, 81, 59
2, 83200, Note_on_c, 0, 81, 0
2, 83200, Note_on_c, 0, 78, 52
2, 83360, Note_on_c, 0, 78, 0
2, 83360, Note_on_c, 0, 72, 52
2, 83520, Note_on_c, 0, 72, 0
2, 84000, Note_on_c, 0, 83, 60
2, 84000, Note_on_c, 0, 79, 51
2, 84120, Note_on_c, 0, 79, 0
2, 84120, Note_on_c, 0, 83, 0
2, 84480, Note_on_c, 0, 83, 59
2, 84480, Note_on_c, 0, 79, 50
2, 84600, Note_on_c, 0, 79, 0
2, 84600, Note_on_c, 0, 83, 0
2, 84960, Note_on_c, 0, 83, 68
2, 84960, Note_on_c, 0, 79, 57
2, 85080, Note_on_c, 0, 79, 0
2, 85080, Note_on_c, 0, 83, 0
2, 85440, Note_on_c, 0, 83, 60
2, 85440, Note_on_c, 0, 79, 51
2, 85560, Note_on_c, 0, 79, 0
2, 85560, Note_on_c, 0, 83, 0
2, 85920, Note_on_c, 0, 83, 59
2, 85920, Note_on_c, 0, 79, 50
2, 86040, Note_on_c, 0, 79, 0
2, 86040, Note_on_c, 0, 83, 0
2, 86400, Note_on_c, 0, 83, 74
2, 86400, Note_on_c, 0, 79, 62
2, 86880, Note_on_c, 0, 79, 0
2, 86880, Note_on_c, 0, 83, 0
2, 86880, Note_on_c, 0, 84, 71
2, 86880, Note_on_c, 0, 81, 60
2, 87360, Note_on_c, 0, 81, 0
2, 87360, Note_on_c, 0, 84, 0
2, 87360, Note_on_c, 0, 86, 75
2, 87360, Note_on_c, 0, 83, 63
2, 87840, Note_on_c, 0, 83, 0
2, 87840, Note_on_c, 0, 86, 0
2, 87840, Note_on_c, 0, 84, 75
2, 88000, Note_on_c, 0, 84, 0
2, 88000, Note_on_c, 0, 81, 60
2, 88160, Note_on_c, 0, 81, 0
2, 88160, Note_on_c, 0, 76, 60
2, 88320, Note_on_c, 0, 76, 0
2, 88320, Note_on_c, 0, 83, 72
2, 88480, Note_on_c, 0, 83, 0
2, 88480, Note_on_c, 0, 79, 57
2, 88640, Note_on_c, 0, 79, 0
2, 88640, Note_on_c, 0, 74, 57
2, 88800, Note_on_c, 0, 74, 0
2, 88800, Note_on_c, 0, 81, 70
2, 88960, Note_on_c, 0, 81, 0
2, 88960, Note_on_c, 0, 78, 58
2, 89120, Note_on_c, 0, 78, 0
2, 89120, Note_on_c, 0, 72, 58
2, 89280, Note_on_c, 0, 72, 0
2, 89280, Note_on_c, 0, 71, 70
2, 89280, Note_on_c, 0, 79, 70
2, 91680, Note_on_c, 0, 71, 0
2, 92160, Note_on_c, 0, 79, 0
2, 92160, Note_on_c, 0, 79, 54
2, 93000, Note_on_c, 0, 79, 0
2, 93000, Note_on_c, 0, 81, 49
2, 93120, Note_on_c, 0, 81, 0
2, 93120, Note_on_c, 0, 77, 55
2, 93480, Note_on_c, 0, 77, 0
2, 93480, Note_on_c, 0, 79, 50
2, 93600, Note_on_c, 0, 79, 0
2, 93600, Note_on_c, 0, 76, 54
2, 94440, Note_on_c, 0, 76, 0
2, 94440, Note_on_c, 0, 77, 49
2, 94560, Note_on_c, 0, 77, 0
2, 94560, Note_on_c, 0, 74, 55
2, 94920, Note_on_c, 0, 74, 0
2, 94920, Note_on_c, 0, 76, 50
2, 95040, Note_on_c, 0, 76, 0
2, 95040, Note_on_c, 0, 73, 55
2, 95520, Note_on_c, 0, 73, 0
2, 95520, Note_on_c, 0, 70, 55
2, 95520, Note_on_c, 0, 73, 55
2, 96000, Note_on_c, 0, 73, 0
2, 96000, Note_on_c, 0, 70, 0
2, 96000, Note_on_c, 0, 69, 55
2, 96000, Note_on_c, 0, 74, 55
2, 96480, Note_on_c, 0, 74, 0
2, 96480, Note_on_c, 0, 69, 0
2, 96480, Note_on_c, 0, 67, 55
2, 96480, Note_on_c, 0, 76, 55
2, 96960, Note_on_c, 0, 76, 0
2, 96960, Note_on_c, 0, 67, 0
2, 96960, Note_on_c, 0, 77, 55
2, 96960, Note_on_c, 0, 65, 55
2, 97320, Note_on_c, 0, 77, 0
2, 97320, Note_on_c, 0, 79, 45
2, 97440, Note_on_c, 0, 79, 0
2, 97440, Note_on_c, 0, 65, 0
2, 97440, Note_on_c, 0, 76, 55
2, 97800, Note_on_c, 0, 76, 0
2, 97800, Note_on_c, 0, 77, 45
2, 97920, Note_on_c, 0, 77, 0
2, 97920, Note_on_c, 0, 74, 60
2, 98760, Note_on_c, 0, 74, 0
2, 98760, Note_on_c, 0, 76, 49
2, 98880, Note_on_c, 0, 76, 0
2, 98880, Note_on_c, 0, 72, 56
2, 99240, Note_on_c, 0, 72, 0
2, 99240, Note_on_c, 0, 74, 47
2, 99360, Note_on_c, 0, 74, 0
2, 99360, Note_on_c, 0, 67, 55
2, 99360, Note_on_c, 0, 71, 55
2, 99720, Note_on_c, 0, 71, 0
2, 99720, Note_on_c, 0, 74, 43
2, 99840, Note_on_c, 0, 74, 0
2, 99840, Note_on_c, 0, 67, 0
2, 99840, Note_on_c, 0, 69, 52
2, 99840, Note_on_c, 0, 72, 52
2, 100200, Note_on_c, 0, 72, 0
2, 100200, Note_on_c, 0, 76, 36
2, 100320, Note_on_c, 0, 76, 0
2, 100320, Note_on_c, 0, 69, 0
2, 100320, Note_on_c, 0, 71, 44
2, 100320, Note_on_c, 0, 74, 44
2, 100680, Note_on_c, 0, 74, 0
2, 100680, Note_on_c, 0, 77, 42
2, 100800, Note_on_c, 0, 77, 0
2, 100800, Note_on_c, 0, 71, 0
2, 100800, Note_on_c, 0, 72, 40
2, 100800, Note_on_c, 0, 76, 48
2, 101640, Note_on_c, 0, 76, 0
2, 101640, Note_on_c, 0, 77, 41
2, 101760, Note_on_c, 0, 77, 0
2, 101760, Note_on_c, 0, 72, 0
2, 101760, Note_on_c, 0, 71, 40
2, 101760, Note_on_c, 0, 74, 45
2, 102120, Note_on_c, 0, 74, 0
2, 102120, Note_on_c, 0, 76, 41
2, 102240, Note_on_c, 0, 76, 0
2, 102240, Note_on_c, 0, 71, 0
2, 102240, Note_on_c, 0, 72, 45
2, 102360, Note_on_c, 0, 72, 0
2, 102720, Note_on_c, 0, 79, 43
2, 102840, Note_on_c, 0, 79, 0
2, 103200, Note_on_c, 0, 79, 43
2, 103320, Note_on_c, 0, 79, 0
2, 103680, Note_on_c, 0, 79, 45
2, 103920, Note_on_c, 0, 79, 0
2, 103920, Note_on_c, 0, 77, 41
2, 104040, Note_on_c, 0, 77, 0
2, 104160, Note_on_c, 0, 77, 45
2, 104400, Note_on_c, 0, 77, 0
2, 104400, Note_on_c, 0, 76, 41
2, 104520, Note_on_c, 0, 76, 0
2, 104640, Note_on_c, 0, 76, 45
2, 104880, Note_on_c, 0, 76, 0
2, 104880, Note_on_c, 0, 74, 40
2, 105000, Note_on_c, 0, 74, 0
2, 105120, Note_on_c, 0, 74, 45
2, 105240, Note_on_c, 0, 74, 0
2, 105600, Note_on_c, 0, 71, 41
2, 105720, Note_on_c, 0, 71, 0
2, 106080, Note_on_c, 0, 67, 41
2, 106200, Note_on_c, 0, 67, 0
2, 106560, Note_on_c, 0, 76, 72
2, 107400, Note_on_c, 0, 76, 0
2, 107400, Note_on_c, 0, 77, 59
2, 107520, Note_on_c, 0, 77, 0
2, 107520, Note_on_c, 0, 74, 69
2, 107880, Note_on_c, 0, 74, 0
2, 107880, Note_on_c, 0, 76, 64
2, 108000, Note_on_c, 0, 76, 0
2, 108000, Note_on_c, 0, 72, 70
2, 108120, Note_on_c, 0, 72, 0
2, 108480, Note_on_c, 0, 84, 70
2, 108600, Note_on_c, 0, 84, 0
2, 108960, Note_on_c, 0, 84, 70
2, 109080, Note_on_c, 0, 84, 0
2, 109440, Note_on_c, 0, 80, 67
2, 109560, Note_on_c, 0, 80, 0
2, 109560, Note_on_c, 0, 81, 59
2, 109680, Note_on_c, 0, 81, 0
2, 109920, Note_on_c, 0, 76, 68
2, 110040, Note_on_c, 0, 76, 0
2, 110040, Note_on_c, 0, 77, 59
2, 110160, Note_on_c, 0, 77, 0
2, 110400, Note_on_c, 0, 74, 70
2, 110520, Note_on_c, 0, 74, 0
2, 110520, Note_on_c, 0, 71, 58
2, 110640, Note_on_c, 0, 71, 0
2, 110880, Note_on_c, 0, 72, 71
2, 111000, Note_on_c, 0, 72, 0
2, 112320, Note_on_c, 0, 76, 45
2, 113160, Note_on_c, 0, 76, 0
2, 113160, Note_on_c, 0, 79, 41
2, 113280, Note_on_c, 0, 79, 0
2, 113280, Note_on_c, 0, 78, 45
2, 113640, Note_on_c, 0, 78, 0
2, 113640, Note_on_c, 0, 81, 41
2, 113760, Note_on_c, 0, 81, 0
2, 113760, Note_on_c, 0, 79, 45
2, 113880, Note_on_c, 0, 79, 0
2, 114240, Note_on_c, 0, 86, 48
2, 114360, Note_on_c, 0, 86, 0
2, 114720, Note_on_c, 0, 86, 48
2, 114840, Note_on_c, 0, 86, 0
2, 115200, Note_on_c, 0, 86, 52
2, 115440, Note_on_c, 0, 86, 0
2, 115440, Note_on_c, 0, 84, 45
2, 115560, Note_on_c, 0, 84, 0
2, 115680, Note_on_c, 0, 84, 52
2, 115920, Note_on_c, 0, 84, 0
2, 115920, Note_on_c, 0, 83, 45
2, 116040, Note_on_c, 0, 83, 0
2, 116160, Note_on_c, 0, 83, 52
2, 116400, Note_on_c, 0, 83, 0
2, 116400, Note_on_c, 0, 81, 44
2, 116520, Note_on_c, 0, 81, 0
2, 116640, Note_on_c, 0, 81, 53
2, 116760, Note_on_c, 0, 81, 0
2, 117120, Note_on_c, 0, 78, 50
2, 117240, Note_on_c, 0, 78, 0
2, 117600, Note_on_c, 0, 74, 48
2, 117720, Note_on_c, 0, 74, 0
2, 118560, Note_on_c, 0, 83, 45
2, 118560, Note_on_c, 0, 79, 45
2, 118680, Note_on_c, 0, 79, 0
2, 118680, Note_on_c, 0, 83, 0
2, 119040, Note_on_c, 0, 83, 45
2, 119040, Note_on_c, 0, 79, 45
2, 119160, Note_on_c, 0, 79, 0
2, 119160, Note_on_c, 0, 83, 0
2, 119520, Note_on_c, 0, 83, 50
2, 119520, Note_on_c, 0, 79, 50
2, 119640, Note_on_c, 0, 79, 0
2, 119640, Note_on_c, 0, 83, 0
2, 120000, Note_on_c, 0, 83, 45
2, 120000, Note_on_c, 0, 79, 45
2, 120120, Note_on_c, 0, 79, 0
2, 120120, Note_on_c, 0, 83, 0
2, 120480, Note_on_c, 0, 83, 45
2, 120480, Note_on_c, 0, 79, 45
2, 120600, Note_on_c, 0, 79, 0
2, 120600, Note_on_c, 0, 83, 0
2, 120960, Note_on_c, 0, 83, 58
2, 120960, Note_on_c, 0, 79, 58
2, 121440, Note_on_c, 0, 79, 0
2, 121440, Note_on_c, 0, 83, 0
2, 121440, Note_on_c, 0, 84, 50
2, 121440, Note_on_c, 0, 81, 50
2, 121920, Note_on_c, 0, 81, 0
2, 121920, Note_on_c, 0, 84, 0
2, 121920, Note_on_c, 0, 86, 50
2, 121920, Note_on_c, 0, 83, 50
2, 122400, Note_on_c, 0, 83, 0
2, 122400, Note_on_c, 0, 86, 0
2, 122400, Note_on_c, 0, 84, 60
2, 122560, Note_on_c, 0, 84, 0
2, 122560, Note_on_c, 0, 81, 51
2, 122720, Note_on_c, 0, 81, 0
2, 122720, Note_on_c, 0, 76, 51
2, 122880, Note_on_c, 0, 76, 0
2, 122880, Note_on_c, 0, 83, 59
2, 123040, Note_on_c, 0, 83, 0
2, 123040, Note_on_c, 0, 79, 50
2, 123200, Note_on_c, 0, 79, 0
2, 123200, Note_on_c, 0, 74, 51
2, 123360, Note_on_c, 0, 74, 0
2, 123360, Note_on_c, 0, 81, 59
2, 123520, Note_on_c, 0, 81, 0
2, 123520, Note_on_c, 0, 78, 52
2, 123680, Note_on_c, 0, 78, 0
2, 123680, Note_on_c, 0, 72, 52
2, 123840, Note_on_c, 0, 72, 0
2, 124320, Note_on_c, 0, 83, 60
2, 124320, Note_on_c, 0, 79, 51
2, 124440, Note_on_c, 0, 79, 0
2, 124440, Note_on_c, 0, 83, 0
2, 124800, Note_on_c, 0, 83, 59
2, 124800, Note_on_c, 0, 79, 50
2, 124920, Note_on_c, 0, 79, 0
2, 124920, Note_on_c, 0, 83, 0
2, 125280, Note_on_c, 0, 79, 57
2, 125280, Note_on_c, 0, 83, 68
2, 125400, Note_on_c, 0, 83, 0
2, 125400, Note_on_c, 0, 79, 0
2, 125760, Note_on_c, 0, 83, 60
2, 125760, Note_on_c, 0, 79, 51
2, 125880, Note_on_c, 0, 79, 0
2, 125880, Note_on_c, 0, 83, 0
2, 126240, Note_on_c, 0, 79, 50
2, 126240, Note_on_c, 0, 83, 59
2, 126360, Note_on_c, 0, 83, 0
2, 126360, Note_on_c, 0, 79, 0
2, 126720, Note_on_c, 0, 83, 74
2, 126720, Note_on_c, 0, 79, 62
2, 127200, Note_on_c, 0, 79, 0
2, 127200, Note_on_c, 0, 83, 0
2, 127200, Note_on_c, 0, 81, 60
2, 127200, Note_on_c, 0, 84, 71
2, 127680, Note_on_c, 0, 84, 0
2, 127680, Note_on_c, 0, 81, 0
2, 127680, Note_on_c, 0, 86, 75
2, 127680, Note_on_c, 0, 83, 63
2, 128160, Note_on_c, 0, 83, 0
2, 128160, Note_on_c, 0, 86, 0
2, 128160, Note_on_c, 0, 84, 75
2, 128320, Note_on_c, 0, 84, 0
2, 128320, Note_on_c, 0, 81, 60
2, 128480, Note_on_c, 0, 81, 0
2, 128480, Note_on_c, 0, 76, 60
2, 128640, Note_on_c, 0, 76, 0
2, 128640, Note_on_c, 0, 83, 72
2, 128800, Note_on_c, 0, 83, 0
2, 128800, Note_on_c, 0, 79, 57
2, 128960, Note_on_c, 0, 79, 0
2, 128960, Note_on_c, 0, 74, 57
2, 129120, Note_on_c, 0, 74, 0
2, 129120, Note_on_c, 0, 81, 70
2, 129280, Note_on_c, 0, 81, 0
2, 129280, Note_on_c, 0, 78, 58
2, 129440, Note_on_c, 0, 78, 0
2, 129440, Note_on_c, 0, 72, 58
2, 129600, Note_on_c, 0, 72, 0
2, 129600, Note_on_c, 0, 79, 70
2, 129600, Note_on_c, 0, 71, 70
2, 132000, Note_on_c, 0, 71, 0
2, 132480, Note_on_c, 0, 79, 0
2, 132480, Note_on_c, 0, 79, 54
2, 133320, Note_on_c, 0, 79, 0
2, 133320, Note_on_c, 0, 81, 49
2, 133440, Note_on_c, 0, 81, 0
2, 133440, Note_on_c, 0, 77, 55
2, 133800, Note_on_c, 0, 77, 0
2, 133800, Note_on_c, 0, 79, 50
2, 133920, Note_on_c, 0, 79, 0
2, 133920, Note_on_c, 0, 76, 54
2, 134760, Note_on_c, 0, 76, 0
2, 134760, Note_on_c, 0, 77, 49
2, 134880, Note_on_c, 0, 77, 0
2, 134880, Note_on_c, 0, 74, 55
2, 135240, Note_on_c, 0, 74, 0
2, 135240, Note_on_c, 0, 76, 50
2, 135360, Note_on_c, 0, 76, 0
2, 135360, Note_on_c, 0, 73, 55
2, 135840, Note_on_c, 0, 73, 0
2, 135840, Note_on_c, 0, 70, 55
2, 135840, Note_on_c, 0, 73, 55
2, 136320, Note_on_c, 0, 73, 0
2, 136320, Note_on_c, 0, 70, 0
2, 136320, Note_on_c, 0, 74, 55
2, 136320, Note_on_c, 0, 69, 55
2, 136800, Note_on_c, 0, 69, 0
2, 136800, Note_on_c, 0, 74, 0
2, 136800, Note_on_c, 0, 67, 55
2, 136800, Note_on_c, 0, 76, 55
2, 137280, Note_on_c, 0, 76, 0
2, 137280, Note_on_c, 0, 67, 0
2, 137280, Note_on_c, 0, 65, 55
2, 137280, Note_on_c, 0, 77, 55
2, 137640, Note_on_c, 0, 77, 0
2, 137640, Note_on_c, 0, 79, 45
2, 137760, Note_on_c, 0, 79, 0
2, 137760, Note_on_c, 0, 65, 0
2, 137760, Note_on_c, 0, 76, 55
2, 138120, Note_on_c, 0, 76, 0
2, 138120, Note_on_c, 0, 77, 45
2, 138240, Note_on_c, 0, 77, 0
2, 138240, Note_on_c, 0, 74, 60
2, 139080, Note_on_c, 0, 74, 0
2, 139080, Note_on_c, 0, 76, 49
2, 139200, Note_on_c, 0, 76, 0
2, 139200, Note_on_c, 0, 72, 56
2, 139560, Note_on_c, 0, 72, 0
2, 139560, Note_on_c, 0, 74, 47
2, 139680, Note_on_c, 0, 74, 0
2, 139680, Note_on_c, 0, 67, 55
2, 139680, Note_on_c, 0, 71, 55
2, 140040, Note_on_c, 0, 71, 0
2, 140040, Note_on_c, 0, 74, 43
2, 140160, Note_on_c, 0, 74, 0
2, 140160, Note_on_c, 0, 67, 0
2, 140160, Note_on_c, 0, 69, 52
2, 140160, Note_on_c, 0, 72, 52
2, 140520, Note_on_c, 0, 72, 0
2, 140520, Note_on_c, 0, 76, 36
2, 140640, Note_on_c, 0, 76, 0
2, 140640, Note_on_c, 0, 69, 0
2, 140640, Note_on_c, 0, 71, 44
2, 140640, Note_on_c, 0, 74, 44
2, 141000, Note_on_c, 0, 74, 0
2, 141000, Note_on_c, 0, 77, 42
2, 141120, Note_on_c, 0, 77, 0
2, 141120, Note_on_c, 0, 71, 0
2, 141120, Note_on_c, 0, 72, 40
2, 141120, Note_on_c, 0, 76, 48
2, 141960, Note_on_c, 0, 76, 0
2, 141960, Note_on_c, 0, 77, 41
2, 142080, Note_on_c, 0, 77, 0
2, 142080, Note_on_c, 0, 72, 0
2, 142080, Note_on_c, 0, 71, 40
2, 142080, Note_on_c, 0, 74, 45
2, 142440, Note_on_c, 0, 74, 0
2, 142440, Note_on_c, 0, 76, 41
2, 142560, Note_on_c, 0, 76, 0
2, 142560, Note_on_c, 0, 71, 0
2, 142560, Note_on_c, 0, 72, 45
2, 142680, Note_on_c, 0, 72, 0
2, 143040, Note_on_c, 0, 79, 43
2, 143160, Note_on_c, 0, 79, 0
2, 143520, Note_on_c, 0, 79, 43
2, 143640, Note_on_c, 0, 79, 0
2, 144000, Note_on_c, 0, 79, 45
2, 144240, Note_on_c, 0, 79, 0
2, 144240, Note_on_c, 0, 77, 41
2, 144360, Note_on_c, 0, 77, 0
2, 144480, Note_on_c, 0, 77, 45
2, 144720, Note_on_c, 0, 77, 0
2, 144720, Note_on_c, 0, 76, 41
2, 144840, Note_on_c, 0, 76, 0
2, 144960, Note_on_c, 0, 76, 45
2, 145200, Note_on_c, 0, 76, 0
2, 145200, Note_on_c, 0, 74, 40
2, 145320, Note_on_c, 0, 74, 0
2, 145440, Note_on_c, 0, 74, 45
2, 145560, Note_on_c, 0, 74, 0
2, 145920, Note_on_c, 0, 71, 41
2, 146040, Note_on_c, 0, 71, 0
2, 146400, Note_on_c, 0, 67, 41
2, 146520, Note_on_c, 0, 67, 0
2, 146880, Note_on_c, 0, 76, 72
2, 147720, Note_on_c, 0, 76, 0
2, 147720, Note_on_c, 0, 77, 59
2, 147840, Note_on_c, 0, 77, 0
2, 147840, Note_on_c, 0, 74, 69
2, 148200, Note_on_c, 0, 74, 0
2, 148200, Note_on_c, 0, 76, 64
2, 148320, Note_on_c, 0, 76, 0
2, 148320, Note_on_c, 0, 72, 70
2, 148440, Note_on_c, 0, 72, 0
2, 148800, Note_on_c, 0, 84, 70
2, 148920, Note_on_c, 0, 84, 0
2, 149280, Note_on_c, 0, 84, 70
2, 149400, Note_on_c, 0, 84, 0
2, 149760, Note_on_c, 0, 80, 67
2, 149880, Note_on_c, 0, 80, 0
2, 149880, Note_on_c, 0, 81, 59
2, 150000, Note_on_c, 0, 81, 0
2, 150240, Note_on_c, 0, 76, 68
2, 150360, Note_on_c, 0, 76, 0
2, 150360, Note_on_c, 0, 77, 59
2, 150480, Note_on_c, 0, 77, 0
2, 150720, Note_on_c, 0, 74, 70
2, 150840, Note_on_c, 0, 74, 0
2, 150840, Note_on_c, 0, 71, 58
2, 150960, Note_on_c, 0, 71, 0
2, 151200, Note_on_c, 0, 72, 71
2, 151320, Note_on_c, 0, 72, 0
2, 152640, Note_on_c, 0, 72, 50
2, 153120, Note_on_c, 0, 72, 0
2, 153120, Note_on_c, 0, 71, 48
2, 153600, Note_on_c, 0, 71, 0
2, 153600, Note_on_c, 0, 72, 48
2, 154080, Note_on_c, 0, 72, 0
2, 154080, Note_on_c, 0, 72, 50
2, 154080, Note_on_c, 0, 74, 50
2, 154560, Note_on_c, 0, 74, 0
2, 154560, Note_on_c, 0, 75, 49
2, 155040, Note_on_c, 0, 75, 0
2, 155040, Note_on_c, 0, 77, 54
2, 155520, Note_on_c, 0, 77, 0
2, 155520, Note_on_c, 0, 72, 0
2, 155520, Note_on_c, 0, 72, 55
2, 155520, Note_on_c, 0, 75, 55
2, 156000, Note_on_c, 0, 75, 0
2, 156000, Note_on_c, 0, 72, 0
2, 156000, Note_on_c, 0, 71, 45
2, 156000, Note_on_c, 0, 74, 45
2, 156480, Note_on_c, 0, 74, 0
2, 156480, Note_on_c, 0, 71, 0
2, 156480, Note_on_c, 0, 67, 54
2, 156480, Note_on_c, 0, 79, 54
2, 156960, Note_on_c, 0, 79, 0
2, 156960, Note_on_c, 0, 67, 0
2, 156960, Note_on_c, 0, 74, 52
2, 156960, Note_on_c, 0, 77, 52
2, 157440, Note_on_c, 0, 77, 0
2, 157440, Note_on_c, 0, 74, 0
2, 157440, Note_on_c, 0, 72, 46
2, 157440, Note_on_c, 0, 75, 46
2, 157920, Note_on_c, 0, 75, 0
2, 157920, Note_on_c, 0, 72, 0
2, 157920, Note_on_c, 0, 71, 46
2, 157920, Note_on_c, 0, 74, 46
2, 158400, Note_on_c, 0, 74, 0
2, 158400, Note_on_c, 0, 71, 0
2, 158400, Note_on_c, 0, 72, 59
2, 158640, Note_on_c, 0, 72, 0
2, 158640, Note_on_c, 0, 77, 53
2, 158880, Note_on_c, 0, 77, 0
2, 158880, Note_on_c, 0, 76, 57
2, 159120, Note_on_c, 0, 76, 0
2, 159120, Note_on_c, 0, 79, 53
2, 159360, Note_on_c, 0, 79, 0
2, 159360, Note_on_c, 0, 77, 57
2, 159600, Note_on_c, 0, 77, 0
2, 159600, Note_on_c, 0, 84, 61
2, 159840, Note_on_c, 0, 84, 0
2, 159840, Note_on_c, 0, 82, 60
2, 160080, Note_on_c, 0, 82, 0
2, 160080, Note_on_c, 0, 74, 53
2, 160320, Note_on_c, 0, 74, 0
2, 160320, Note_on_c, 0, 75, 58
2, 160560, Note_on_c, 0, 75, 0
2, 160560, Note_on_c, 0, 74, 53
2, 160800, Note_on_c, 0, 74, 0
2, 160800, Note_on_c, 0, 75, 58
2, 161040, Note_on_c, 0, 75, 0
2, 161040, Note_on_c, 0, 82, 62
2, 161280, Note_on_c, 0, 82, 0
2, 161280, Note_on_c, 0, 72, 61
2, 161520, Note_on_c, 0, 72, 0
2, 161520, Note_on_c, 0, 80, 53
2, 161760, Note_on_c, 0, 80, 0
2, 161760, Note_on_c, 0, 79, 58
2, 162000, Note_on_c, 0, 79, 0
2, 162000, Note_on_c, 0, 75, 53
2, 162240, Note_on_c, 0, 75, 0
2, 162240, Note_on_c, 0, 77, 59
2, 162480, Note_on_c, 0, 77, 0
2, 162480, Note_on_c, 0, 74, 53
2, 162720, Note_on_c, 0, 74, 0
2, 162720, Note_on_c, 0, 75, 64
2, 163200, Note_on_c, 0, 75, 0
2, 164160, Note_on_c, 0, 72, 50
2, 164640, Note_on_c, 0, 72, 0
2, 164640, Note_on_c, 0, 71, 48
2, 165120, Note_on_c, 0, 71, 0
2, 165120, Note_on_c, 0, 72, 48
2, 165600, Note_on_c, 0, 72, 0
2, 165600, Note_on_c, 0, 72, 50
2, 165600, Note_on_c, 0, 74, 50
2, 166080, Note_on_c, 0, 74, 0
2, 166080, Note_on_c, 0, 75, 49
2, 166560, Note_on_c, 0, 75, 0
2, 166560, Note_on_c, 0, 77, 54
2, 167040, Note_on_c, 0, 77, 0
2, 167040, Note_on_c, 0, 72, 0
2, 167040, Note_on_c, 0, 72, 55
2, 167040, Note_on_c, 0, 75, 55
2, 167520, Note_on_c, 0, 75, 0
2, 167520, Note_on_c, 0, 72, 0
2, 167520, Note_on_c, 0, 71, 45
2, 167520, Note_on_c, 0, 74, 45
2, 168000, Note_on_c, 0, 74, 0
2, 168000, Note_on_c, 0, 71, 0
2, 168000, Note_on_c, 0, 67, 54
2, 168000, Note_on_c, 0, 79, 54
2, 168480, Note_on_c, 0, 79, 0
2, 168480, Note_on_c, 0, 67, 0
2, 168480, Note_on_c, 0, 74, 52
2, 168480, Note_on_c, 0, 77, 52
2, 168960, Note_on_c, 0, 77, 0
2, 168960, Note_on_c, 0, 74, 0
2, 168960, Note_on_c, 0, 72, 46
2, 168960, Note_on_c, 0, 75, 46
2, 169440, Note_on_c, 0, 75, 0
2, 169440, Note_on_c, 0, 72, 0
2, 169440, Note_on_c, 0, 71, 46
2, 169440, Note_on_c, 0, 74, 46
2, 169920, Note_on_c, 0, 74, 0
2, 169920, Note_on_c, 0, 71, 0
2, 169920, Note_on_c, 0, 72, 59
2, 170160, Note_on_c, 0, 72, 0
2, 170160, Note_on_c, 0, 77, 53
2, 170400, Note_on_c, 0, 77, 0
2, 170400, Note_on_c, 0, 76, 57
2, 170640, Note_on_c, 0, 76, 0
2, 170640, Note_on_c, 0, 79, 53
2, 170880, Note_on_c, 0, 79, 0
2, 170880, Note_on_c, 0, 77, 57
2, 171120, Note_on_c, 0, 77, 0
2, 171120, Note_on_c, 0, 84, 61
2, 171360, Note_on_c, 0, 84, 0
2, 171360, Note_on_c, 0, 82, 60
2, 171600, Note_on_c, 0, 82, 0
2, 171600, Note_on_c, 0, 74, 53
2, 171840, Note_on_c, 0, 74, 0
2, 171840, Note_on_c, 0, 75, 58
2, 172080, Note_on_c, 0, 75, 0
2, 172080, Note_on_c, 0, 74, 53
2, 172320, Note_on_c, 0, 74, 0
2, 172320, Note_on_c, 0, 75, 58
2, 172560, Note_on_c, 0, 75, 0
2, 172560, Note_on_c, 0, 82, 62
2, 172800, Note_on_c, 0, 82, 0
2, 172800, Note_on_c, 0, 72, 61
2, 173040, Note_on_c, 0, 72, 0
2, 173040, Note_on_c, 0, 80, 53
2, 173280, Note_on_c, 0, 80, 0
2, 173280, Note_on_c, 0, 79, 58
2, 173520, Note_on_c, 0, 79, 0
2, 173520, Note_on_c, 0, 75, 53
2, 173760, Note_on_c, 0, 75, 0
2, 173760, Note_on_c, 0, 77, 59
2, 174000, Note_on_c, 0, 77, 0
2, 174000, Note_on_c, 0, 74, 53
2, 174240, Note_on_c, 0, 74, 0
2, 174240, Note_on_c, 0, 75, 64
2, 174720, Note_on_c, 0, 75, 0
2, 175680, Note_on_c, 0, 67, 55
2, 175680, Note_on_c, 0, 79, 67
2, 175920, Note_on_c, 0, 79, 0
2, 175920, Note_on_c, 0, 78, 57
2, 176160, Note_on_c, 0, 78, 0
2, 176160, Note_on_c, 0, 79, 67
2, 176400, Note_on_c, 0, 79, 0
2, 176400, Note_on_c, 0, 75, 57
2, 176640, Note_on_c, 0, 75, 0
2, 176640, Note_on_c, 0, 74, 67
2, 176880, Note_on_c, 0, 74, 0
2, 176880, Note_on_c, 0, 72, 60
2, 177120, Note_on_c, 0, 72, 0
2, 177120, Note_on_c, 0, 67, 0
2, 177120, Note_on_c, 0, 71, 55
2, 177120, Note_on_c, 0, 68, 67
2, 177360, Note_on_c, 0, 68, 0
2, 177360, Note_on_c, 0, 67, 58
2, 177600, Note_on_c, 0, 67, 0
2, 177600, Note_on_c, 0, 68, 67
2, 177840, Note_on_c, 0, 68, 0
2, 177840, Note_on_c, 0, 65, 58
2, 178080, Note_on_c, 0, 65, 0
2, 178080, Note_on_c, 0, 67, 67
2, 178320, Note_on_c, 0, 67, 0
2, 178320, Note_on_c, 0, 68, 58
2, 178560, Note_on_c, 0, 68, 0
2, 178560, Note_on_c, 0, 71, 0
2, 178560, Note_on_c, 0, 67, 38
2, 178560, Note_on_c, 0, 79, 46
2, 178800, Note_on_c, 0, 79, 0
2, 178800, Note_on_c, 0, 78, 39
2, 179040, Note_on_c, 0, 78, 0
2, 179040, Note_on_c, 0, 79, 46
2, 179280, Note_on_c, 0, 79, 0
2, 179280, Note_on_c, 0, 75, 39
2, 179520, Note_on_c, 0, 75, 0
2, 179520, Note_on_c, 0, 74, 46
2, 179760, Note_on_c, 0, 74, 0
2, 179760, Note_on_c, 0, 72, 42
2, 180000, Note_on_c, 0, 72, 0
2, 180000, Note_on_c, 0, 67, 0
2, 180000, Note_on_c, 0, 71, 38
2, 180000, Note_on_c, 0, 68, 46
2, 180240, Note_on_c, 0, 68, 0
2, 180240, Note_on_c, 0, 67, 40
2, 180480, Note_on_c, 0, 67, 0
2, 180480, Note_on_c, 0, 68, 47
2, 180720, Note_on_c, 0, 68, 0
2, 180720, Note_on_c, 0, 65, 42
2, 180960, Note_on_c, 0, 65, 0
2, 180960, Note_on_c, 0, 67, 49
2, 181200, Note_on_c, 0, 67, 0
2, 181200, Note_on_c, 0, 68, 43
2, 181440, Note_on_c, 0, 68, 0
2, 181440, Note_on_c, 0, 71, 0
2, 181440, Note_on_c, 0, 72, 42
2, 181440, Note_on_c, 0, 67, 51
2, 181680, Note_on_c, 0, 67, 0
2, 181680, Note_on_c, 0, 65, 45
2, 181920, Note_on_c, 0, 65, 0
2, 181920, Note_on_c, 0, 67, 52
2, 182160, Note_on_c, 0, 67, 0
2, 182160, Note_on_c, 0, 63, 46
2, 182400, Note_on_c, 0, 63, 0
2, 182400, Note_on_c, 0, 65, 54
2, 182640, Note_on_c, 0, 65, 0
2, 182640, Note_on_c, 0, 67, 48
2, 182880, Note_on_c, 0, 67, 0
2, 182880, Note_on_c, 0, 72, 0
2, 182880, Note_on_c, 0, 67, 46
2, 182880, Note_on_c, 0, 74, 56
2, 183120, Note_on_c, 0, 74, 0
2, 183120, Note_on_c, 0, 75, 50
2, 183360, Note_on_c, 0, 75, 0
2, 183360, Note_on_c, 0, 77, 62
2, 183600, Note_on_c, 0, 77, 0
2, 183600, Note_on_c, 0, 74, 56
2, 183840, Note_on_c, 0, 74, 0
2, 183840, Note_on_c, 0, 75, 67
2, 184080, Note_on_c, 0, 75, 0
2, 184080, Note_on_c, 0, 72, 63
2, 184320, Note_on_c, 0, 72, 0
2, 184320, Note_on_c, 0, 67, 0
2, 184320, Note_on_c, 0, 67, 73
2, 184320, Note_on_c, 0, 79, 73
2, 186240, Note_on_c, 0, 67, 0
2, 186600, Note_on_c, 0, 79, 0
2, 186600, Note_on_c, 0, 81, 41
2, 186720, Note_on_c, 0, 81, 0
2, 186720, Note_on_c, 0, 77, 45
2, 187080, Note_on_c, 0, 77, 0
2, 187080, Note_on_c, 0, 79, 41
2, 187200, Note_on_c, 0, 79, 0
2, 187200, Note_on_c, 0, 76, 45
2, 188040, Note_on_c, 0, 76, 0
2, 188040, Note_on_c, 0, 77, 41
2, 188160, Note_on_c, 0, 77, 0
2, 188160, Note_on_c, 0, 74, 45
2, 188520, Note_on_c, 0, 74, 0
2, 188520, Note_on_c, 0, 76, 41
2, 188640, Note_on_c, 0, 76, 0
2, 188640, Note_on_c, 0, 72, 45
2, 188760, Note_on_c, 0, 72, 0
2, 189120, Note_on_c, 0, 79, 43
2, 189240, Note_on_c, 0, 79, 0
2, 189600, Note_on_c, 0, 79, 43
2, 189720, Note_on_c, 0, 79, 0
2, 190080, Note_on_c, 0, 79, 45
2, 190320, Note_on_c, 0, 79, 0
2, 190320, Note_on_c, 0, 77, 41
2, 190440, Note_on_c, 0, 77, 0
2, 190560, Note_on_c, 0, 77, 45
2, 190800, Note_on_c, 0, 77, 0
2, 190800, Note_on_c, 0, 76, 41
2, 190920, Note_on_c, 0, 76, 0
2, 191040, Note_on_c, 0, 76, 45
2, 191280, Note_on_c, 0, 76, 0
2, 191280, Note_on_c, 0, 74, 40
2, 191400, Note_on_c, 0, 74, 0
2, 191520, Note_on_c, 0, 74, 45
2, 191640, Note_on_c, 0, 74, 0
2, 192000, Note_on_c, 0, 71, 41
2, 192120, Note_on_c, 0, 71, 0
2, 192480, Note_on_c, 0, 67, 41
2, 192600, Note_on_c, 0, 67, 0
2, 192960, Note_on_c, 0, 76, 72
2, 193800, Note_on_c, 0, 76, 0
2, 193800, Note_on_c, 0, 77, 59
2, 193920, Note_on_c, 0, 77, 0
2, 193920, Note_on_c, 0, 74, 69
2, 194280, Note_on_c, 0, 74, 0
2, 194280, Note_on_c, 0, 76, 64
2, 194400, Note_on_c, 0, 76, 0
2, 194400, Note_on_c, 0, 72, 70
2, 194520, Note_on_c, 0, 72, 0
2, 194880, Note_on_c, 0, 84, 70
2, 195000, Note_on_c, 0, 84, 0
2, 195360, Note_on_c, 0, 84, 70
2, 195480, Note_on_c, 0, 84, 0
2, 195840, Note_on_c, 0, 80, 67
2, 195960, Note_on_c, 0, 80, 0
2, 195960, Note_on_c, 0, 81, 59
2, 196080, Note_on_c, 0, 81, 0
2, 196320, Note_on_c, 0, 76, 68
2, 196440, Note_on_c, 0, 76, 0
2, 196440, Note_on_c, 0, 77, 59
2, 196560, Note_on_c, 0, 77, 0
2, 196800, Note_on_c, 0, 74, 70
2, 196920, Note_on_c, 0, 74, 0
2, 196920, Note_on_c, 0, 71, 58
2, 197040, Note_on_c, 0, 71, 0
2, 197280, Note_on_c, 0, 72, 71
2, 197400, Note_on_c, 0, 72, 0
2, 198720, Note_on_c, 0, 77, 45
2, 199560, Note_on_c, 0, 77, 0
2, 199560, Note_on_c, 0, 79, 41
2, 199680, Note_on_c, 0, 79, 0
2, 199680, Note_on_c, 0, 76, 45
2, 200040, Note_on_c, 0, 76, 0
2, 200040, Note_on_c, 0, 77, 41
2, 200160, Note_on_c, 0, 77, 0
2, 200160, Note_on_c, 0, 74, 45
2, 200280, Note_on_c, 0, 74, 0
2, 200640, Note_on_c, 0, 71, 43
2, 200760, Note_on_c, 0, 71, 0
2, 201120, Note_on_c, 0, 67, 43
2, 201240, Note_on_c, 0, 67, 0
2, 201600, Note_on_c, 0, 84, 65
2, 202440, Note_on_c, 0, 84, 0
2, 202440, Note_on_c, 0, 86, 57
2, 202560, Note_on_c, 0, 86, 0
2, 202560, Note_on_c, 0, 83, 66
2, 202920, Note_on_c, 0, 83, 0
2, 202920, Note_on_c, 0, 84, 57
2, 203040, Note_on_c, 0, 84, 0
2, 203040, Note_on_c, 0, 81, 65
2, 203880, Note_on_c, 0, 81, 0
2, 203880, Note_on_c, 0, 83, 57
2, 204000, Note_on_c, 0, 83, 0
2, 204000, Note_on_c, 0, 79, 66
2, 204360, Note_on_c, 0, 79, 0
2, 204360, Note_on_c, 0, 81, 57
2, 204480, Note_on_c, 0, 81, 0
2, 204480, Note_on_c, 0, 78, 66
2, 204812, Note_on_c, 0, 81, 61
2, 204840, Note_on_c, 0, 78, 0
2, 204932, Note_on_c, 0, 81, 0
2, 204988, Note_on_c, 0, 84, 66
2, 205320, Note_on_c, 0, 81, 62
2, 205348, Note_on_c, 0, 84, 0
2, 205440, Note_on_c, 0, 81, 0
2, 205440, Note_on_c, 0, 78, 66
2, 205800, Note_on_c, 0, 78, 0
2, 205800, Note_on_c, 0, 81, 63
2, 205920, Note_on_c, 0, 81, 0
2, 205920, Note_on_c, 0, 79, 71
2, 206040, Note_on_c, 0, 79, 0
2, 206400, Note_on_c, 0, 79, 66
2, 206520, Note_on_c, 0, 79, 0
2, 206880, Note_on_c, 0, 79, 66
2, 207000, Note_on_c, 0, 79, 0
2, 207360, Note_on_c, 0, 78, 66
2, 207692, Note_on_c, 0, 81, 61
2, 207720, Note_on_c, 0, 78, 0
2, 207812, Note_on_c, 0, 81, 0
2, 207868, Note_on_c, 0, 84, 66
2, 208200, Note_on_c, 0, 81, 62
2, 208228, Note_on_c, 0, 84, 0
2, 208320, Note_on_c, 0, 81, 0
2, 208320, Note_on_c, 0, 78, 66
2, 208680, Note_on_c, 0, 78, 0
2, 208680, Note_on_c, 0, 81, 63
2, 208800, Note_on_c, 0, 81, 0
2, 208800, Note_on_c, 0, 79, 71
2, 208920, Note_on_c, 0, 79, 0
2, 209280, Note_on_c, 0, 79, 66
2, 209400, Note_on_c, 0, 79, 0
2, 209760, Note_on_c, 0, 79, 66
2, 209880, Note_on_c, 0, 79, 0
2, 210240, Note_on_c, 0, 79, 71
2, 210880, Note_on_c, 0, 79, 0
2, 210880, Note_on_c, 0, 81, 42
2, 211040, Note_on_c, 0, 81, 0
2, 211040, Note_on_c, 0, 79, 42
2, 211200, Note_on_c, 0, 79, 0
2, 211200, Note_on_c, 0, 77, 45
2, 211360, Note_on_c, 0, 77, 0
2, 211360, Note_on_c, 0, 79, 40
2, 211520, Note_on_c, 0, 79, 0
2, 211520, Note_on_c, 0, 77, 40
2, 211680, Note_on_c, 0, 77, 0
2, 211680, Note_on_c, 0, 76, 45
2, 212320, Note_on_c, 0, 76, 0
2, 212320, Note_on_c, 0, 77, 41
2, 212480, Note_on_c, 0, 77, 0
2, 212480, Note_on_c, 0, 76, 41
2, 212640, Note_on_c, 0, 76, 0
2, 212640, Note_on_c, 0, 74, 45
2, 212800, Note_on_c, 0, 74, 0
2, 212800, Note_on_c, 0, 76, 41
2, 212960, Note_on_c, 0, 76, 0
2, 212960, Note_on_c, 0, 74, 41
2, 213120, Note_on_c, 0, 74, 0
2, 213120, Note_on_c, 0, 72, 45
2, 213240, Note_on_c, 0, 72, 0
2, 213360, Note_on_c, 0, 79, 44
2, 213480, Note_on_c, 0, 79, 0
2, 213600, Note_on_c, 0, 79, 46
2, 213720, Note_on_c, 0, 79, 0
2, 213840, Note_on_c, 0, 79, 48
2, 213960, Note_on_c, 0, 79, 0
2, 214080, Note_on_c, 0, 79, 51
2, 214200, Note_on_c, 0, 79, 0
2, 214320, Note_on_c, 0, 79, 53
2, 214440, Note_on_c, 0, 79, 0
2, 214560, Note_on_c, 0, 79, 55
2, 214800, Note_on_c, 0, 79, 0
2, 214800, Note_on_c, 0, 78, 49
2, 215040, Note_on_c, 0, 78, 0
2, 215040, Note_on_c, 0, 77, 52
2, 215280, Note_on_c, 0, 77, 0
2, 215280, Note_on_c, 0, 76, 44
2, 215520, Note_on_c, 0, 76, 0
2, 215520, Note_on_c, 0, 75, 47
2, 215760, Note_on_c, 0, 75, 0
2, 215760, Note_on_c, 0, 74, 43
2, 216000, Note_on_c, 0, 74, 0
2, 216000, Note_on_c, 0, 74, 50
2, 216120, Note_on_c, 0, 74, 0
2, 216480, Note_on_c, 0, 71, 41
2, 216600, Note_on_c, 0, 71, 0
2, 216960, Note_on_c, 0, 67, 41
2, 217080, Note_on_c, 0, 67, 0
2, 217440, Note_on_c, 0, 76, 72
2, 218080, Note_on_c, 0, 76, 0
2, 218080, Note_on_c, 0, 77, 63
2, 218240, Note_on_c, 0, 77, 0
2, 218240, Note_on_c, 0, 76, 63
2, 218400, Note_on_c, 0, 76, 0
2, 218400, Note_on_c, 0, 74, 69
2, 218560, Note_on_c, 0, 74, 0
2, 218560, Note_on_c, 0, 76, 65
2, 218720, Note_on_c, 0, 76, 0
2, 218720, Note_on_c, 0, 74, 66
2, 218880, Note_on_c, 0, 74, 0
2, 218880, Note_on_c, 0, 72, 70
2, 219040, Note_on_c, 0, 72, 0
2, 219040, Note_on_c, 0, 76, 64
2, 219200, Note_on_c, 0, 76, 0
2, 219200, Note_on_c, 0, 79, 65
2, 219360, Note_on_c, 0, 79, 0
2, 219360, Note_on_c, 0, 76, 70
2, 219520, Note_on_c, 0, 76, 0
2, 219520, Note_on_c, 0, 79, 66
2, 219680, Note_on_c, 0, 79, 0
2, 219680, Note_on_c, 0, 84, 66
2, 219840, Note_on_c, 0, 84, 0
2, 219840, Note_on_c, 0, 79, 70
2, 220000, Note_on_c, 0, 79, 0
2, 220000, Note_on_c, 0, 84, 65
2, 220160, Note_on_c, 0, 84, 0
2, 220160, Note_on_c, 0, 88, 65
2, 220320, Note_on_c, 0, 88, 0
2, 220320, Note_on_c, 0, 74, 76
2, 220800, Note_on_c, 0, 74, 0
2, 220800, Note_on_c, 0, 77, 68
2, 221160, Note_on_c, 0, 77, 0
2, 221160, Note_on_c, 0, 74, 63
2, 221280, Note_on_c, 0, 74, 0
2, 221280, Note_on_c, 0, 71, 70
2, 221640, Note_on_c, 0, 71, 0
2, 221640, Note_on_c, 0, 74, 64
2, 221760, Note_on_c, 0, 74, 0
2, 221760, Note_on_c, 0, 72, 70
2, 221920, Note_on_c, 0, 72, 0
2, 221920, Note_on_c, 0, 76, 64
2, 222080, Note_on_c, 0, 76, 0
2, 222080, Note_on_c, 0, 79, 65
2, 222240, Note_on_c, 0, 79, 0
2, 222240, Note_on_c, 0, 76, 70
2, 222400, Note_on_c, 0, 76, 0
2, 222400, Note_on_c, 0, 79, 66
2, 222560, Note_on_c, 0, 79, 0
2, 222560, Note_on_c, 0, 84, 66
2, 222720, Note_on_c, 0, 84, 0
2, 222720, Note_on_c, 0, 79, 70
2, 222880, Note_on_c, 0, 79, 0
2, 222880, Note_on_c, 0, 84, 65
2, 223040, Note_on_c, 0, 84, 0
2, 223040, Note_on_c, 0, 88, 65
2, 223200, Note_on_c, 0, 88, 0
2, 223200, Note_on_c, 0, 74, 76
2, 223680, Note_on_c, 0, 74, 0
2, 223680, Note_on_c, 0, 77, 68
2, 224040, Note_on_c, 0, 77, 0
2, 224040, Note_on_c, 0, 74, 63
2, 224160, Note_on_c, 0, 74, 0
2, 224160, Note_on_c, 0, 71, 70
2, 224520, Note_on_c, 0, 71, 0
2, 224520, Note_on_c, 0, 74, 64
2, 224640, Note_on_c, 0, 74, 0
2, 224640, Note_on_c, 0, 72, 77
2, 224760, Note_on_c, 0, 72, 0
2, 225120, Note_on_c, 0, 84, 77
2, 225120, Note_on_c, 0, 76, 65
2, 225240, Note_on_c, 0, 76, 0
2, 225240, Note_on_c, 0, 84, 0
2, 225600, Note_on_c, 0, 84, 74
2, 225600, Note_on_c, 0, 76, 62
2, 225720, Note_on_c, 0, 76, 0
2, 225720, Note_on_c, 0, 84, 0
2, 226080, Note_on_c, 0, 84, 76
2, 226080, Note_on_c, 0, 76, 64
2, 226560, Note_on_c, 0, 76, 0
2, 226560, Note_on_c, 0, 84, 0
2, 226560, End_track
3, 0, Start_track
3, 0, Title_t, "Piano left"
3, 0, Program_c, 0, 0
3, 480, Note_on_c, 0, 60, 27
3, 480, Note_on_c, 0, 67, 33
3, 960, Note_on_c, 0, 67, 0
3, 960, Note_on_c, 0, 60, 0
3, 960, Note_on_c, 0, 67, 33
3, 960, Note_on_c, 0, 65, 27
3, 1440, Note_on_c, 0, 65, 0
3, 1440, Note_on_c, 0, 67, 0
3, 1440, Note_on_c, 0, 64, 30
3, 1440, Note_on_c, 0, 67, 36
3, 1560, Note_on_c, 0, 67, 0
3, 1560, Note_on_c, 0, 64, 0
3, 2880, Note_on_c, 0, 59, 30
3, 2880, Note_on_c, 0, 67, 36
3, 3840, Note_on_c, 0, 59, 0
3, 3840, Note_on_c, 0, 60, 33
3, 4320, Note_on_c, 0, 60, 0
3, 4320, Note_on_c, 0, 55, 36
3, 4440, Note_on_c, 0, 55, 0
3, 4800, Note_on_c, 0, 67, 0
3, 6240, Note_on_c, 0, 60, 40
3, 6240, Note_on_c, 0, 67, 48
3, 6720, Note_on_c, 0, 67, 0
3, 6720, Note_on_c, 0, 60, 0
3, 6720, Note_on_c, 0, 67, 48
3, 6720, Note_on_c, 0, 65, 40
3, 7200, Note_on_c, 0, 65, 0
3, 7200, Note_on_c, 0, 67, 0
3, 7200, Note_on_c, 0, 64, 44
3, 7200, Note_on_c, 0, 67, 52
3, 7320, Note_on_c, 0, 67, 0
3, 7320, Note_on_c, 0, 64, 0
3, 8160, Note_on_c, 0, 60, 48
3, 8160, Note_on_c, 0, 52, 40
3, 8280, Note_on_c, 0, 52, 0
3, 8280, Note_on_c, 0, 60, 0
3, 8640, Note_on_c, 0, 53, 44
3, 8640, Note_on_c, 0, 60, 52
3, 8760, Note_on_c, 0, 60, 0
3, 8760, Note_on_c, 0, 53, 0
3, 9600, Note_on_c, 0, 55, 40
3, 9600, Note_on_c, 0, 65, 48
3, 9720, Note_on_c, 0, 65, 0
3, 9720, Note_on_c, 0, 55, 0
3, 10080, Note_on_c, 0, 64, 52
3, 10080, Note_on_c, 0, 60, 44
3, 10200, Note_on_c, 0, 60, 0
3, 10200, Note_on_c, 0, 64, 0
3, 12000, Note_on_c, 0, 60, 27
3, 12000, Note_on_c, 0, 67, 33
3, 12480, Note_on_c, 0, 67, 0
3, 12480, Note_on_c, 0, 60, 0
3, 12480, Note_on_c, 0, 67, 33
3, 12480, Note_on_c, 0, 65, 27
3, 12960, Note_on_c, 0, 65, 0
3, 12960, Note_on_c, 0, 67, 0
3, 12960, Note_on_c, 0, 64, 30
3, 12960, Note_on_c, 0, 67, 36
3, 13080, Note_on_c, 0, 67, 0
3, 13080, Note_on_c, 0, 64, 0
3, 14400, Note_on_c, 0, 59, 30
3, 14400, Note_on_c, 0, 67, 36
3, 15360, Note_on_c, 0, 59, 0
3, 15360, Note_on_c, 0, 60, 33
3, 15840, Note_on_c, 0, 60, 0
3, 15840, Note_on_c, 0, 55, 36
3, 15960, Note_on_c, 0, 55, 0
3, 16320, Note_on_c, 0, 67, 0
3, 17760, Note_on_c, 0, 60, 40
3, 17760, Note_on_c, 0, 67, 48
3, 18240, Note_on_c, 0, 67, 0
3, 18240, Note_on_c, 0, 60, 0
3, 18240, Note_on_c, 0, 67, 48
3, 18240, Note_on_c, 0, 65, 40
3, 18720, Note_on_c, 0, 65, 0
3, 18720, Note_on_c, 0, 67, 0
3, 18720, Note_on_c, 0, 64, 44
3, 18720, Note_on_c, 0, 67, 52
3, 18840, Note_on_c, 0, 67, 0
3, 18840, Note_on_c, 0, 64, 0
3, 19680, Note_on_c, 0, 60, 48
3, 19680, Note_on_c, 0, 52, 40
3, 19800, Note_on_c, 0, 52, 0
3, 19800, Note_on_c, 0, 60, 0
3, 20160, Note_on_c, 0, 53, 44
3, 20160, Note_on_c, 0, 60, 52
3, 20280, Note_on_c, 0, 60, 0
3, 20280, Note_on_c, 0, 53, 0
3, 21120, Note_on_c, 0, 55, 40
3, 21120, Note_on_c, 0, 65, 48
3, 21240, Note_on_c, 0, 65, 0
3, 21240, Note_on_c, 0, 55, 0
3, 21600, Note_on_c, 0, 64, 52
3, 21600, Note_on_c, 0, 60, 44
3, 21720, Note_on_c, 0, 60, 0
3, 21720, Note_on_c, 0, 64, 0
3, 23520, Note_on_c, 0, 59, 27
3, 23520, Note_on_c, 0, 67, 33
3, 24000, Note_on_c, 0, 67, 0
3, 24000, Note_on_c, 0, 59, 0
3, 24000, Note_on_c, 0, 67, 33
3, 24000, Note_on_c, 0, 60, 27
3, 24480, Note_on_c, 0, 60, 0
3, 24480, Note_on_c, 0, 67, 0
3, 24480, Note_on_c, 0, 55, 30
3, 24480, Note_on_c, 0, 67, 36
3, 24600, Note_on_c, 0, 67, 0
3, 24600, Note_on_c, 0, 55, 0
3, 26400, Note_on_c, 0, 64, 37
3, 26400, Note_on_c, 0, 67, 46
3, 26880, Note_on_c, 0, 67, 0
3, 26880, Note_on_c, 0, 64, 0
3, 26880, Note_on_c, 0, 66, 46
3, 26880, Note_on_c, 0, 62, 37
3, 27360, Note_on_c, 0, 62, 0
3, 27360, Note_on_c, 0, 66, 0
3, 27840, Note_on_c, 0, 60, 37
3, 27840, Note_on_c, 0, 64, 46
3, 28320, Note_on_c, 0, 64, 0
3, 28320, Note_on_c, 0, 60, 0
3, 28320, Note_on_c, 0, 62, 46
3, 28320, Note_on_c, 0, 59, 37
3, 28800, Note_on_c, 0, 59, 0
3, 28800, Note_on_c, 0, 62, 0
3, 28800, Note_on_c, 0, 57, 50
3, 28800, Note_on_c, 0, 60, 50
3, 29760, Note_on_c, 0, 60, 0
3, 29760, Note_on_c, 0, 57, 0
3, 29767, Note_on_c, 0, 50, 44
3, 30240, Note_on_c, 0, 55, 56
3, 30247, Note_on_c, 0, 50, 0
3, 30600, Note_on_c, 0, 55, 0
3, 30600, Note_on_c, 0, 59, 50
3, 30720, Note_on_c, 0, 59, 0
3, 30720, Note_on_c, 0, 62, 57
3, 31080, Note_on_c, 0, 62, 0
3, 31080, Note_on_c, 0, 67, 50
3, 31200, Note_on_c, 0, 67, 0
3, 31200, Note_on_c, 0, 71, 57
3, 31560, Note_on_c, 0, 71, 0
3, 31560, Note_on_c, 0, 67, 53
3, 31680, Note_on_c, 0, 67, 0
3, 31680, Note_on_c, 0, 69, 50
3, 31680, Note_on_c, 0, 72, 50
3, 32640, Note_on_c, 0, 72, 0
3, 32640, Note_on_c, 0, 69, 0
3, 32647, Note_on_c, 0, 62, 44
3, 33120, Note_on_c, 0, 55, 56
3, 33127, Note_on_c, 0, 62, 0
3, 33480, Note_on_c, 0, 55, 0
3, 33480, Note_on_c, 0, 59, 50
3, 33600, Note_on_c, 0, 59, 0
3, 33600, Note_on_c, 0, 50, 57
3, 33960, Note_on_c, 0, 50, 0
3, 33960, Note_on_c, 0, 55, 50
3, 34080, Note_on_c, 0, 55, 0
3, 34080, Note_on_c, 0, 47, 57
3, 34433, Note_on_c, 0, 50, 53
3, 34440, Note_on_c, 0, 47, 0
3, 34553, Note_on_c, 0, 50, 0
3, 34560, Note_on_c, 0, 43, 56
3, 35040, Note_on_c, 0, 43, 0
3, 36480, Note_on_c, 0, 60, 27
3, 36480, Note_on_c, 0, 67, 33
3, 36960, Note_on_c, 0, 67, 0
3, 36960, Note_on_c, 0, 60, 0
3, 36960, Note_on_c, 0, 67, 33
3, 36960, Note_on_c, 0, 65, 27
3, 37440, Note_on_c, 0, 65, 0
3, 37440, Note_on_c, 0, 67, 0
3, 37440, Note_on_c, 0, 64, 30
3, 37440, Note_on_c, 0, 67, 36
3, 37560, Note_on_c, 0, 67, 0
3, 37560, Note_on_c, 0, 64, 0
3, 38880, Note_on_c, 0, 59, 30
3, 38880, Note_on_c, 0, 67, 36
3, 39840, Note_on_c, 0, 59, 0
3, 39840, Note_on_c, 0, 60, 33
3, 40320, Note_on_c, 0, 60, 0
3, 40320, Note_on_c, 0, 55, 36
3, 40440, Note_on_c, 0, 55, 0
3, 40800, Note_on_c, 0, 67, 0
3, 42240, Note_on_c, 0, 60, 40
3, 42240, Note_on_c, 0, 67, 48
3, 42720, Note_on_c, 0, 67, 0
3, 42720, Note_on_c, 0, 60, 0
3, 42720, Note_on_c, 0, 67, 48
3, 42720, Note_on_c, 0, 65, 40
3, 43200, Note_on_c, 0, 65, 0
3, 43200, Note_on_c, 0, 67, 0
3, 43200, Note_on_c, 0, 64, 44
3, 43200, Note_on_c, 0, 67, 52
3, 43320, Note_on_c, 0, 67, 0
3, 43320, Note_on_c, 0, 64, 0
3, 44160, Note_on_c, 0, 60, 48
3, 44160, Note_on_c, 0, 52, 40
3, 44280, Note_on_c, 0, 52, 0
3, 44280, Note_on_c, 0, 60, 0
3, 44640, Note_on_c, 0, 53, 44
3, 44640, Note_on_c, 0, 60, 52
3, 44760, Note_on_c, 0, 60, 0
3, 44760, Note_on_c, 0, 53, 0
3, 45600, Note_on_c, 0, 55, 40
3, 45600, Note_on_c, 0, 65, 48
3, 45720, Note_on_c, 0, 65, 0
3, 45720, Note_on_c, 0, 55, 0
3, 46080, Note_on_c, 0, 64, 52
3, 46080, Note_on_c, 0, 60, 44
3, 46200, Note_on_c, 0, 60, 0
3, 46200, Note_on_c, 0, 64, 0
3, 48000, Note_on_c, 0, 59, 27
3, 48000, Note_on_c, 0, 67, 33
3, 48480, Note_on_c, 0, 67, 0
3, 48480, Note_on_c, 0, 59, 0
3, 48480, Note_on_c, 0, 67, 33
3, 48480, Note_on_c, 0, 60, 27
3, 48960, Note_on_c, 0, 60, 0
3, 48960, Note_on_c, 0, 67, 0
3, 48960, Note_on_c, 0, 55, 30
3, 48960, Note_on_c, 0, 67, 36
3, 49080, Note_on_c, 0, 67, 0
3, 49080, Note_on_c, 0, 55, 0
3, 50880, Note_on_c, 0, 64, 37
3, 50880, Note_on_c, 0, 67, 46
3, 51360, Note_on_c, 0, 67, 0
3, 51360, Note_on_c, 0, 64, 0
3, 51360, Note_on_c, 0, 66, 46
3, 51360, Note_on_c, 0, 62, 37
3, 51840, Note_on_c, 0, 62, 0
3, 51840, Note_on_c, 0, 66, 0
3, 52320, Note_on_c, 0, 60, 37
3, 52320, Note_on_c, 0, 64, 46
3, 52800, Note_on_c, 0, 64, 0
3, 52800, Note_on_c, 0, 60, 0
3, 52800, Note_on_c, 0, 62, 46
3, 52800, Note_on_c, 0, 59, 37
3, 53280, Note_on_c, 0, 59, 0
3, 53280, Note_on_c, 0, 62, 0
3, 53280, Note_on_c, 0, 57, 50
3, 53280, Note_on_c, 0, 60, 50
3, 54240, Note_on_c, 0, 60, 0
3, 54240, Note_on_c, 0, 57, 0
3, 54247, Note_on_c, 0, 50, 44
3, 54720, Note_on_c, 0, 55, 56
3, 54727, Note_on_c, 0, 50, 0
3, 55080, Note_on_c, 0, 55, 0
3, 55080, Note_on_c, 0, 59, 50
3, 55200, Note_on_c, 0, 59, 0
3, 55200, Note_on_c, 0, 62, 57
3, 55560, Note_on_c, 0, 62, 0
3, 55560, Note_on_c, 0, 67, 50
3, 55680, Note_on_c, 0, 67, 0
3, 55680, Note_on_c, 0, 71, 57
3, 56040, Note_on_c, 0, 71, 0
3, 56040, Note_on_c, 0, 67, 53
3, 56160, Note_on_c, 0, 67, 0
3, 56160, Note_on_c, 0, 69, 50
3, 56160, Note_on_c, 0, 72, 50
3, 57120, Note_on_c, 0, 72, 0
3, 57120, Note_on_c, 0, 69, 0
3, 57127, Note_on_c, 0, 62, 44
3, 57600, Note_on_c, 0, 55, 56
3, 57607, Note_on_c, 0, 62, 0
3, 57960, Note_on_c, 0, 55, 0
3, 57960, Note_on_c, 0, 59, 50
3, 58080, Note_on_c, 0, 59, 0
3, 58080, Note_on_c, 0, 50, 57
3, 58440, Note_on_c, 0, 50, 0
3, 58440, Note_on_c, 0, 55, 50
3, 58560, Note_on_c, 0, 55, 0
3, 58560, Note_on_c, 0, 47, 57
3, 58913, Note_on_c, 0, 50, 53
3, 58920, Note_on_c, 0, 47, 0
3, 59033, Note_on_c, 0, 50, 0
3, 59040, Note_on_c, 0, 43, 56
3, 59520, Note_on_c, 0, 43, 0
3, 60960, Note_on_c, 0, 60, 27
3, 60960, Note_on_c, 0, 67, 33
3, 61440, Note_on_c, 0, 67, 0
3, 61440, Note_on_c, 0, 60, 0
3, 61440, Note_on_c, 0, 67, 33
3, 61440, Note_on_c, 0, 65, 27
3, 61920, Note_on_c, 0, 65, 0
3, 61920, Note_on_c, 0, 67, 0
3, 61920, Note_on_c, 0, 64, 30
3, 61920, Note_on_c, 0, 67, 36
3, 62040, Note_on_c, 0, 67, 0
3, 62040, Note_on_c, 0, 64, 0
3, 63360, Note_on_c, 0, 59, 30
3, 63360, Note_on_c, 0, 67, 36
3, 64320, Note_on_c, 0, 59, 0
3, 64320, Note_on_c, 0, 60, 33
3, 64800, Note_on_c, 0, 60, 0
3, 64800, Note_on_c, 0, 55, 36
3, 64920, Note_on_c, 0, 55, 0
3, 65280, Note_on_c, 0, 67, 0
3, 66720, Note_on_c, 0, 60, 40
3, 66720, Note_on_c, 0, 67, 48
3, 67200, Note_on_c, 0, 67, 0
3, 67200, Note_on_c, 0, 60, 0
3, 67200, Note_on_c, 0, 67, 48
3, 67200, Note_on_c, 0, 65, 40
3, 67680, Note_on_c, 0, 65, 0
3, 67680, Note_on_c, 0, 67, 0
3, 67680, Note_on_c, 0, 64, 44
3, 67680, Note_on_c, 0, 67, 52
3, 67800, Note_on_c, 0, 67, 0
3, 67800, Note_on_c, 0, 64, 0
3, 68640, Note_on_c, 0, 60, 48
3, 68640, Note_on_c, 0, 52, 40
3, 68760, Note_on_c, 0, 52, 0
3, 68760, Note_on_c, 0, 60, 0
3, 69120, Note_on_c, 0, 53, 44
3, 69120, Note_on_c, 0, 60, 52
3, 69240, Note_on_c, 0, 60, 0
3, 69240, Note_on_c, 0, 53, 0
3, 70080, Note_on_c, 0, 55, 40
3, 70080, Note_on_c, 0, 65, 48
3, 70200, Note_on_c, 0, 65, 0
3, 70200, Note_on_c, 0, 55, 0
3, 70560, Note_on_c, 0, 64, 52
3, 70560, Note_on_c, 0, 60, 44
3, 70680, Note_on_c, 0, 60, 0
3, 70680, Note_on_c, 0, 64, 0
3, 72480, Note_on_c, 0, 72, 33
3, 72600, Note_on_c, 0, 72, 0
3, 72960, Note_on_c, 0, 69, 33
3, 73080, Note_on_c, 0, 69, 0
3, 73440, Note_on_c, 0, 71, 36
3, 73560, Note_on_c, 0, 71, 0
3, 74880, Note_on_c, 0, 66, 30
3, 74880, Note_on_c, 0, 74, 36
3, 75840, Note_on_c, 0, 66, 0
3, 75840, Note_on_c, 0, 67, 33
3, 76320, Note_on_c, 0, 67, 0
3, 76320, Note_on_c, 0, 62, 36
3, 76440, Note_on_c, 0, 62, 0
3, 76800, Note_on_c, 0, 74, 0
3, 77760, Note_on_c, 0, 67, 54
3, 78600, Note_on_c, 0, 67, 0
3, 78600, Note_on_c, 0, 69, 49
3, 78720, Note_on_c, 0, 69, 0
3, 78720, Note_on_c, 0, 66, 55
3, 79080, Note_on_c, 0, 66, 0
3, 79080, Note_on_c, 0, 67, 50
3, 79200, Note_on_c, 0, 67, 0
3, 79200, Note_on_c, 0, 64, 56
3, 79560, Note_on_c, 0, 64, 0
3, 79560, Note_on_c, 0, 66, 52
3, 79680, Note_on_c, 0, 66, 0
3, 79680, Note_on_c, 0, 62, 57
3, 80040, Note_on_c, 0, 62, 0
3, 80040, Note_on_c, 0, 64, 53
3, 80160, Note_on_c, 0, 64, 0
3, 80160, Note_on_c, 0, 60, 59
3, 80520, Note_on_c, 0, 60, 0
3, 80520, Note_on_c, 0, 62, 54
3, 80640, Note_on_c, 0, 62, 0
3, 80640, Note_on_c, 0, 59, 61
3, 81000, Note_on_c, 0, 59, 0
3, 81000, Note_on_c, 0, 60, 56
3, 81120, Note_on_c, 0, 60, 0
3, 81120, Note_on_c, 0, 57, 62
3, 81480, Note_on_c, 0, 57, 0
3, 81480, Note_on_c, 0, 59, 57
3, 81600, Note_on_c, 0, 59, 0
3, 81600, Note_on_c, 0, 55, 63
3, 82080, Note_on_c, 0, 55, 0
3, 82080, Note_on_c, 0, 60, 61
3, 82560, Note_on_c, 0, 60, 0
3, 82560, Note_on_c, 0, 62, 63
3, 83040, Note_on_c, 0, 62, 0
3, 83040, Note_on_c, 0, 62, 65
3, 83520, Note_on_c, 0, 62, 0
3, 83520, Note_on_c, 0, 67, 74
3, 84160, Note_on_c, 0, 67, 0
3, 84160, Note_on_c, 0, 69, 56
3, 84320, Note_on_c, 0, 69, 0
3, 84320, Note_on_c, 0, 67, 56
3, 84480, Note_on_c, 0, 67, 0
3, 84480, Note_on_c, 0, 66, 65
3, 84640, Note_on_c, 0, 66, 0
3, 84640, Note_on_c, 0, 67, 56
3, 84800, Note_on_c, 0, 67, 0
3, 84800, Note_on_c, 0, 66, 57
3, 84960, Note_on_c, 0, 66, 0
3, 84960, Note_on_c, 0, 64, 65
3, 85120, Note_on_c, 0, 64, 0
3, 85120, Note_on_c, 0, 66, 57
3, 85280, Note_on_c, 0, 66, 0
3, 85280, Note_on_c, 0, 64, 57
3, 85440, Note_on_c, 0, 64, 0
3, 85440, Note_on_c, 0, 62, 65
3, 85600, Note_on_c, 0, 62, 0
3, 85600, Note_on_c, 0, 64, 60
3, 85760, Note_on_c, 0, 64, 0
3, 85760, Note_on_c, 0, 62, 60
3, 85920, Note_on_c, 0, 62, 0
3, 85920, Note_on_c, 0, 60, 65
3, 86080, Note_on_c, 0, 60, 0
3, 86080, Note_on_c, 0, 62, 59
3, 86240, Note_on_c, 0, 62, 0
3, 86240, Note_on_c, 0, 60, 59
3, 86400, Note_on_c, 0, 60, 0
3, 86400, Note_on_c, 0, 59, 65
3, 86560, Note_on_c, 0, 59, 0
3, 86560, Note_on_c, 0, 60, 58
3, 86720, Note_on_c, 0, 60, 0
3, 86720, Note_on_c, 0, 59, 58
3, 86880, Note_on_c, 0, 59, 0
3, 86880, Note_on_c, 0, 57, 65
3, 87040, Note_on_c, 0, 57, 0
3, 87040, Note_on_c, 0, 59, 58
3, 87200, Note_on_c, 0, 59, 0
3, 87200, Note_on_c, 0, 57, 58
3, 87360, Note_on_c, 0, 57, 0
3, 87360, Note_on_c, 0, 55, 65
3, 87840, Note_on_c, 0, 55, 0
3, 87840, Note_on_c, 0, 60, 61
3, 88320, Note_on_c, 0, 60, 0
3, 88320, Note_on_c, 0, 62, 63
3, 88800, Note_on_c, 0, 62, 0
3, 88800, Note_on_c, 0, 62, 65
3, 89280, Note_on_c, 0, 62, 0
3, 89280, Note_on_c, 0, 55, 61
3, 89760, Note_on_c, 0, 55, 0
3, 90720, Note_on_c, 0, 67, 54
3, 91560, Note_on_c, 0, 67, 0
3, 91560, Note_on_c, 0, 69, 46
3, 91680, Note_on_c, 0, 69, 0
3, 91680, Note_on_c, 0, 65, 52
3, 92040, Note_on_c, 0, 65, 0
3, 92040, Note_on_c, 0, 67, 47
3, 92160, Note_on_c, 0, 67, 0
3, 92160, Note_on_c, 0, 64, 54
3, 92640, Note_on_c, 0, 70, 53
3, 93000, Note_on_c, 0, 70, 0
3, 93000, Note_on_c, 0, 72, 46
3, 93120, Note_on_c, 0, 72, 0
3, 93120, Note_on_c, 0, 69, 52
3, 93480, Note_on_c, 0, 69, 0
3, 93480, Note_on_c, 0, 70, 52
3, 93600, Note_on_c, 0, 70, 0
3, 93600, Note_on_c, 0, 67, 54
3, 94080, Note_on_c, 0, 67, 0
3, 94080, Note_on_c, 0, 64, 0
3, 94080, Note_on_c, 0, 67, 46
3, 94080, Note_on_c, 0, 70, 46
3, 94560, Note_on_c, 0, 70, 0
3, 94560, Note_on_c, 0, 67, 0
3, 94560, Note_on_c, 0, 65, 48
3, 94560, Note_on_c, 0, 69, 48
3, 95040, Note_on_c, 0, 69, 0
3, 95040, Note_on_c, 0, 65, 0
3, 95040, Note_on_c, 0, 64, 48
3, 95040, Note_on_c, 0, 67, 48
3, 95520, Note_on_c, 0, 67, 0
3, 95520, Note_on_c, 0, 64, 0
3, 95520, Note_on_c, 0, 55, 53
3, 95880, Note_on_c, 0, 55, 0
3, 95880, Note_on_c, 0, 57, 43
3, 96000, Note_on_c, 0, 57, 0
3, 96000, Note_on_c, 0, 53, 53
3, 96360, Note_on_c, 0, 53, 0
3, 96360, Note_on_c, 0, 55, 42
3, 96480, Note_on_c, 0, 55, 0
3, 96480, Note_on_c, 0, 52, 53
3, 96840, Note_on_c, 0, 52, 0
3, 96840, Note_on_c, 0, 53, 42
3, 96960, Note_on_c, 0, 53, 0
3, 96960, Note_on_c, 0, 50, 53
3, 97440, Note_on_c, 0, 50, 0
3, 97440, Note_on_c, 0, 52, 53
3, 97440, Note_on_c, 0, 55, 53
3, 97920, Note_on_c, 0, 55, 0
3, 97920, Note_on_c, 0, 52, 0
3, 97920, Note_on_c, 0, 53, 53
3, 97920, Note_on_c, 0, 57, 53
3, 98880, Note_on_c, 0, 53, 0
3, 98880, Note_on_c, 0, 54, 53
3, 99360, Note_on_c, 0, 54, 0
3, 99360, Note_on_c, 0, 57, 0
3, 99360, Note_on_c, 0, 55, 53
3, 99840, Note_on_c, 0, 55, 0
3, 101280, Note_on_c, 0, 64, 33
3, 101280, Note_on_c, 0, 60, 27
3, 101760, Note_on_c, 0, 60, 0
3, 101760, Note_on_c, 0, 64, 0
3, 101760, Note_on_c, 0, 55, 27
3, 101760, Note_on_c, 0, 65, 33
3, 102240, Note_on_c, 0, 65, 0
3, 102240, Note_on_c, 0, 55, 0
3, 102240, Note_on_c, 0, 60, 30
3, 102240, Note_on_c, 0, 64, 36
3, 102360, Note_on_c, 0, 64, 0
3, 102360, Note_on_c, 0, 60, 0
3, 103680, Note_on_c, 0, 59, 30
3, 103680, Note_on_c, 0, 67, 36
3, 104640, Note_on_c, 0, 59, 0
3, 104640, Note_on_c, 0, 60, 33
3, 105120, Note_on_c, 0, 60, 0
3, 105120, Note_on_c, 0, 55, 36
3, 105240, Note_on_c, 0, 55, 0
3, 105600, Note_on_c, 0, 67, 0
3, 107040, Note_on_c, 0, 60, 40
3, 107040, Note_on_c, 0, 67, 48
3, 107520, Note_on_c, 0, 67, 0
3, 107520, Note_on_c, 0, 60, 0
3, 107520, Note_on_c, 0, 67, 48
3, 107520, Note_on_c, 0, 65, 40
3, 108000, Note_on_c, 0, 65, 0
3, 108000, Note_on_c, 0, 67, 0
3, 108000, Note_on_c, 0, 64, 44
3, 108000, Note_on_c, 0, 67, 52
3, 108120, Note_on_c, 0, 67, 0
3, 108120, Note_on_c, 0, 64, 0
3, 108960, Note_on_c, 0, 60, 48
3, 108960, Note_on_c, 0, 52, 40
3, 109080, Note_on_c, 0, 52, 0
3, 109080, Note_on_c, 0, 60, 0
3, 109440, Note_on_c, 0, 53, 44
3, 109440, Note_on_c, 0, 60, 52
3, 109560, Note_on_c, 0, 60, 0
3, 109560, Note_on_c, 0, 53, 0
3, 110400, Note_on_c, 0, 55, 40
3, 110400, Note_on_c, 0, 65, 48
3, 110520, Note_on_c, 0, 65, 0
3, 110520, Note_on_c, 0, 55, 0
3, 110880, Note_on_c, 0, 64, 52
3, 110880, Note_on_c, 0, 60, 44
3, 111000, Note_on_c, 0, 60, 0
3, 111000, Note_on_c, 0, 64, 0
3, 112800, Note_on_c, 0, 72, 33
3, 112920, Note_on_c, 0, 72, 0
3, 113280, Note_on_c, 0, 69, 33
3, 113400, Note_on_c, 0, 69, 0
3, 113760, Note_on_c, 0, 71, 36
3, 113880, Note_on_c, 0, 71, 0
3, 115200, Note_on_c, 0, 66, 30
3, 115200, Note_on_c, 0, 74, 36
3, 116160, Note_on_c, 0, 66, 0
3, 116160, Note_on_c, 0, 67, 33
3, 116640, Note_on_c, 0, 67, 0
3, 116640, Note_on_c, 0, 62, 36
3, 116760, Note_on_c, 0, 62, 0
3, 117120, Note_on_c, 0, 74, 0
3, 118080, Note_on_c, 0, 67, 54
3, 118920, Note_on_c, 0, 67, 0
3, 118920, Note_on_c, 0, 69, 49
3, 119040, Note_on_c, 0, 69, 0
3, 119040, Note_on_c, 0, 66, 55
3, 119400, Note_on_c, 0, 66, 0
3, 119400, Note_on_c, 0, 67, 50
3, 119520, Note_on_c, 0, 67, 0
3, 119520, Note_on_c, 0, 64, 56
3, 119880, Note_on_c, 0, 64, 0
3, 119880, Note_on_c, 0, 66, 52
3, 120000, Note_on_c, 0, 66, 0
3, 120000, Note_on_c, 0, 62, 57
3, 120360, Note_on_c, 0, 62, 0
3, 120360, Note_on_c, 0, 64, 53
3, 120480, Note_on_c, 0, 64, 0
3, 120480, Note_on_c, 0, 60, 59
3, 120840, Note_on_c, 0, 60, 0
3, 120840, Note_on_c, 0, 62, 54
3, 120960, Note_on_c, 0, 62, 0
3, 120960, Note_on_c, 0, 59, 61
3, 121320, Note_on_c, 0, 59, 0
3, 121320, Note_on_c, 0, 60, 56
3, 121440, Note_on_c, 0, 60, 0
3, 121440, Note_on_c, 0, 57, 62
3, 121800, Note_on_c, 0, 57, 0
3, 121800, Note_on_c, 0, 59, 57
3, 121920, Note_on_c, 0, 59, 0
3, 121920, Note_on_c, 0, 55, 63
3, 122400, Note_on_c, 0, 55, 0
3, 122400, Note_on_c, 0, 60, 61
3, 122880, Note_on_c, 0, 60, 0
3, 122880, Note_on_c, 0, 62, 63
3, 123360, Note_on_c, 0, 62, 0
3, 123360, Note_on_c, 0, 62, 65
3, 123840, Note_on_c, 0, 62, 0
3, 123840, Note_on_c, 0, 67, 74
3, 124480, Note_on_c, 0, 67, 0
3, 124480, Note_on_c, 0, 69, 56
3, 124640, Note_on_c, 0, 69, 0
3, 124640, Note_on_c, 0, 67, 56
3, 124800, Note_on_c, 0, 67, 0
3, 124800, Note_on_c, 0, 66, 65
3, 124960, Note_on_c, 0, 66, 0
3, 124960, Note_on_c, 0, 67, 56
3, 125120, Note_on_c, 0, 67, 0
3, 125120, Note_on_c, 0, 66, 57
3, 125280, Note_on_c, 0, 66, 0
3, 125280, Note_on_c, 0, 64, 65
3, 125440, Note_on_c, 0, 64, 0
3, 125440, Note_on_c, 0, 66, 57
3, 125600, Note_on_c, 0, 66, 0
3, 125600, Note_on_c, 0, 64, 57
3, 125760, Note_on_c, 0, 64, 0
3, 125760, Note_on_c, 0, 62, 65
3, 125920, Note_on_c, 0, 62, 0
3, 125920, Note_on_c, 0, 64, 60
3, 126080, Note_on_c, 0, 64, 0
3, 126080, Note_on_c, 0, 62, 60
3, 126240, Note_on_c, 0, 62, 0
3, 126240, Note_on_c, 0, 60, 65
3, 126400, Note_on_c, 0, 60, 0
3, 126400, Note_on_c, 0, 62, 59
3, 126560, Note_on_c, 0, 62, 0
3, 126560, Note_on_c, 0, 60, 59
3, 126720, Note_on_c, 0, 60, 0
3, 126720, Note_on_c, 0, 59, 65
3, 126880, Note_on_c, 0, 59, 0
3, 126880, Note_on_c, 0, 60, 58
3, 127040, Note_on_c, 0, 60, 0
3, 127040, Note_on_c, 0, 59, 58
3, 127200, Note_on_c, 0, 59, 0
3, 127200, Note_on_c, 0, 57, 65
3, 127360, Note_on_c, 0, 57, 0
3, 127360, Note_on_c, 0, 59, 58
3, 127520, Note_on_c, 0, 59, 0
3, 127520, Note_on_c, 0, 57, 58
3, 127680, Note_on_c, 0, 57, 0
3, 127680, Note_on_c, 0, 55, 65
3, 128160, Note_on_c, 0, 55, 0
3, 128160, Note_on_c, 0, 60, 61
3, 128640, Note_on_c, 0, 60, 0
3, 128640, Note_on_c, 0, 62, 63
3, 129120, Note_on_c, 0, 62, 0
3, 129120, Note_on_c, 0, 62, 65
3, 129600, Note_on_c, 0, 62, 0
3, 129600, Note_on_c, 0, 55, 61
3, 130080, Note_on_c, 0, 55, 0
3, 131040, Note_on_c, 0, 67, 54
3, 131880, Note_on_c, 0, 67, 0
3, 131880, Note_on_c, 0, 69, 46
3, 132000, Note_on_c, 0, 69, 0
3, 132000, Note_on_c, 0, 65, 52
3, 132360, Note_on_c, 0, 65, 0
3, 132360, Note_on_c, 0, 67, 47
3, 132480, Note_on_c, 0, 67, 0
3, 132480, Note_on_c, 0, 64, 54
3, 132960, Note_on_c, 0, 70, 53
3, 133320, Note_on_c, 0, 70, 0
3, 133320, Note_on_c, 0, 72, 46
3, 133440, Note_on_c, 0, 72, 0
3, 133440, Note_on_c, 0, 69, 52
3, 133800, Note_on_c, 0, 69, 0
3, 133800, Note_on_c, 0, 70, 52
3, 133920, Note_on_c, 0, 70, 0
3, 133920, Note_on_c, 0, 67, 54
3, 134400, Note_on_c, 0, 67, 0
3, 134400, Note_on_c, 0, 64, 0
3, 134400, Note_on_c, 0, 67, 46
3, 134400, Note_on_c, 0, 70, 46
3, 134880, Note_on_c, 0, 70, 0
3, 134880, Note_on_c, 0, 67, 0
3, 134880, Note_on_c, 0, 65, 48
3, 134880, Note_on_c, 0, 69, 48
3, 135360, Note_on_c, 0, 69, 0
3, 135360, Note_on_c, 0, 65, 0
3, 135360, Note_on_c, 0, 64, 48
3, 135360, Note_on_c, 0, 67, 48
3, 135840, Note_on_c, 0, 67, 0
3, 135840, Note_on_c, 0, 64, 0
3, 135840, Note_on_c, 0, 55, 53
3, 136200, Note_on_c, 0, 55, 0
3, 136200, Note_on_c, 0, 57, 43
3, 136320, Note_on_c, 0, 57, 0
3, 136320, Note_on_c, 0, 53, 53
3, 136680, Note_on_c, 0, 53, 0
3, 136680, Note_on_c, 0, 55, 42
3, 136800, Note_on_c, 0, 55, 0
3, 136800, Note_on_c, 0, 52, 53
3, 137160, Note_on_c, 0, 52, 0
3, 137160, Note_on_c, 0, 53, 42
3, 137280, Note_on_c, 0, 53, 0
3, 137280, Note_on_c, 0, 50, 53
3, 137760, Note_on_c, 0, 50, 0
3, 137760, Note_on_c, 0, 52, 53
3, 137760, Note_on_c, 0, 55, 53
3, 138240, Note_on_c, 0, 55, 0
3, 138240, Note_on_c, 0, 52, 0
3, 138240, Note_on_c, 0, 53, 53
3, 138240, Note_on_c, 0, 57, 53
3, 139200, Note_on_c, 0, 53, 0
3, 139200, Note_on_c, 0, 54, 53
3, 139680, Note_on_c, 0, 54, 0
3, 139680, Note_on_c, 0, 57, 0
3, 139680, Note_on_c, 0, 55, 53
3, 140160, Note_on_c, 0, 55, 0
3, 141600, Note_on_c, 0, 64, 33
3, 141600, Note_on_c, 0, 60, 27
3, 142080, Note_on_c, 0, 60, 0
3, 142080, Note_on_c, 0, 64, 0
3, 142080, Note_on_c, 0, 55, 27
3, 142080, Note_on_c, 0, 65, 33
3, 142560, Note_on_c, 0, 65, 0
3, 142560, Note_on_c, 0, 55, 0
3, 142560, Note_on_c, 0, 60, 30
3, 142560, Note_on_c, 0, 64, 36
3, 142680, Note_on_c, 0, 64, 0
3, 142680, Note_on_c, 0, 60, 0
3, 144000, Note_on_c, 0, 59, 30
3, 144000, Note_on_c, 0, 67, 36
3, 144960, Note_on_c, 0, 59, 0
3, 144960, Note_on_c, 0, 60, 33
3, 145440, Note_on_c, 0, 60, 0
3, 145440, Note_on_c, 0, 55, 36
3, 145560, Note_on_c, 0, 55, 0
3, 145920, Note_on_c, 0, 67, 0
3, 147360, Note_on_c, 0, 60, 40
3, 147360, Note_on_c, 0, 67, 48
3, 147840, Note_on_c, 0, 67, 0
3, 147840, Note_on_c, 0, 60, 0
3, 147840, Note_on_c, 0, 67, 48
3, 147840, Note_on_c, 0, 65, 40
3, 148320, Note_on_c, 0, 65, 0
3, 148320, Note_on_c, 0, 67, 0
3, 148320, Note_on_c, 0, 64, 44
3, 148320, Note_on_c, 0, 67, 52
3, 148440, Note_on_c, 0, 67, 0
3, 148440, Note_on_c, 0, 64, 0
3, 149280, Note_on_c, 0, 60, 48
3, 149280, Note_on_c, 0, 52, 40
3, 149400, Note_on_c, 0, 52, 0
3, 149400, Note_on_c, 0, 60, 0
3, 149760, Note_on_c, 0, 53, 44
3, 149760, Note_on_c, 0, 60, 52
3, 149880, Note_on_c, 0, 60, 0
3, 149880, Note_on_c, 0, 53, 0
3, 150720, Note_on_c, 0, 55, 40
3, 150720, Note_on_c, 0, 65, 48
3, 150840, Note_on_c, 0, 65, 0
3, 150840, Note_on_c, 0, 55, 0
3, 151200, Note_on_c, 0, 64, 52
3, 151200, Note_on_c, 0, 60, 44
3, 151320, Note_on_c, 0, 60, 0
3, 151320, Note_on_c, 0, 64, 0
3, 152640, Note_on_c, 0, 36, 40
3, 152880, Note_on_c, 0, 36, 0
3, 152880, Note_on_c, 0, 48, 28
3, 153120, Note_on_c, 0, 48, 0
3, 153120, Note_on_c, 0, 38, 32
3, 153360, Note_on_c, 0, 38, 0
3, 153360, Note_on_c, 0, 50, 28
3, 153600, Note_on_c, 0, 50, 0
3, 153600, Note_on_c, 0, 39, 32
3, 153840, Note_on_c, 0, 39, 0
3, 153840, Note_on_c, 0, 51, 28
3, 154080, Note_on_c, 0, 51, 0
3, 154080, Note_on_c, 0, 41, 40
3, 154320, Note_on_c, 0, 41, 0
3, 154320, Note_on_c, 0, 53, 30
3, 154560, Note_on_c, 0, 53, 0
3, 154560, Note_on_c, 0, 43, 34
3, 154800, Note_on_c, 0, 43, 0
3, 154800, Note_on_c, 0, 55, 30
3, 155040, Note_on_c, 0, 55, 0
3, 155040, Note_on_c, 0, 44, 34
3, 155280, Note_on_c, 0, 44, 0
3, 155280, Note_on_c, 0, 56, 30
3, 155520, Note_on_c, 0, 56, 0
3, 155520, Note_on_c, 0, 43, 40
3, 155760, Note_on_c, 0, 43, 0
3, 155760, Note_on_c, 0, 55, 32
3, 156000, Note_on_c, 0, 55, 0
3, 156000, Note_on_c, 0, 45, 37
3, 156240, Note_on_c, 0, 45, 0
3, 156240, Note_on_c, 0, 57, 34
3, 156480, Note_on_c, 0, 57, 0
3, 156480, Note_on_c, 0, 47, 39
3, 156720, Note_on_c, 0, 47, 0
3, 156720, Note_on_c, 0, 59, 34
3, 156960, Note_on_c, 0, 59, 0
3, 156960, Note_on_c, 0, 48, 43
3, 157200, Note_on_c, 0, 48, 0
3, 157200, Note_on_c, 0, 60, 31
3, 157440, Note_on_c, 0, 60, 0
3, 157440, Note_on_c, 0, 51, 36
3, 157680, Note_on_c, 0, 51, 0
3, 157680, Note_on_c, 0, 63, 31
3, 157920, Note_on_c, 0, 63, 0
3, 157920, Note_on_c, 0, 55, 31
3, 158160, Note_on_c, 0, 55, 0
3, 158160, Note_on_c, 0, 67, 35
3, 158400, Note_on_c, 0, 67, 0
3, 158400, Note_on_c, 0, 56, 34
3, 158400, Note_on_c, 0, 68, 40
3, 159840, Note_on_c, 0, 68, 0
3, 159840, Note_on_c, 0, 56, 0
3, 159840, Note_on_c, 0, 58, 32
3, 159840, Note_on_c, 0, 56, 32
3, 159840, Note_on_c, 0, 65, 38
3, 160800, Note_on_c, 0, 65, 0
3, 160800, Note_on_c, 0, 56, 0
3, 160800, Note_on_c, 0, 55, 31
3, 160800, Note_on_c, 0, 63, 37
3, 161280, Note_on_c, 0, 63, 0
3, 161280, Note_on_c, 0, 55, 0
3, 161280, Note_on_c, 0, 58, 0
3, 161280, Note_on_c, 0, 56, 46
3, 161760, Note_on_c, 0, 56, 0
3, 161760, Note_on_c, 0, 58, 42
3, 162240, Note_on_c, 0, 58, 0
3, 162240, Note_on_c, 0, 46, 44
3, 162720, Note_on_c, 0, 46, 0
3, 162720, Note_on_c, 0, 51, 45
3, 163200, Note_on_c, 0, 51, 0
3, 163200, Note_on_c, 0, 55, 46
3, 163440, Note_on_c, 0, 55, 0
3, 163440, Note_on_c, 0, 53, 44
3, 163680, Note_on_c, 0, 53, 0
3, 163680, Note_on_c, 0, 51, 40
3, 163920, Note_on_c, 0, 51, 0
3, 163920, Note_on_c, 0, 50, 36
3, 164160, Note_on_c, 0, 50, 0
3, 164160, Note_on_c, 0, 36, 40
3, 164400, Note_on_c, 0, 36, 0
3, 164400, Note_on_c, 0, 48, 28
3, 164640, Note_on_c, 0, 48, 0
3, 164640, Note_on_c, 0, 38, 32
3, 164880, Note_on_c, 0, 38, 0
3, 164880, Note_on_c, 0, 50, 28
3, 165120, Note_on_c, 0, 50, 0
3, 165120, Note_on_c, 0, 39, 32
3, 165360, Note_on_c, 0, 39, 0
3, 165360, Note_on_c, 0, 51, 28
3, 165600, Note_on_c, 0, 51, 0
3, 165600, Note_on_c, 0, 41, 40
3, 165840, Note_on_c, 0, 41, 0
3, 165840, Note_on_c, 0, 53, 30
3, 166080, Note_on_c, 0, 53, 0
3, 166080, Note_on_c, 0, 43, 34
3, 166320, Note_on_c, 0, 43, 0
3, 166320, Note_on_c, 0, 55, 30
3, 166560, Note_on_c, 0, 55, 0
3, 166560, Note_on_c, 0, 44, 34
3, 166800, Note_on_c, 0, 44, 0
3, 166800, Note_on_c, 0, 56, 30
3, 167040, Note_on_c, 0, 56, 0
3, 167040, Note_on_c, 0, 43, 40
3, 167280, Note_on_c, 0, 43, 0
3, 167280, Note_on_c, 0, 55, 32
3, 167520, Note_on_c, 0, 55, 0
3, 167520, Note_on_c, 0, 45, 37
3, 167760, Note_on_c, 0, 45, 0
3, 167760, Note_on_c, 0, 57, 34
3, 168000, Note_on_c, 0, 57, 0
3, 168000, Note_on_c, 0, 47, 39
3, 168240, Note_on_c, 0, 47, 0
3, 168240, Note_on_c, 0, 59, 34
3, 168480, Note_on_c, 0, 59, 0
3, 168480, Note_on_c, 0, 48, 43
3, 168720, Note_on_c, 0, 48, 0
3, 168720, Note_on_c, 0, 60, 31
3, 168960, Note_on_c, 0, 60, 0
3, 168960, Note_on_c, 0, 51, 36
3, 169200, Note_on_c, 0, 51, 0
3, 169200, Note_on_c, 0, 63, 31
3, 169440, Note_on_c, 0, 63, 0
3, 169440, Note_on_c, 0, 55, 31
3, 169680, Note_on_c, 0, 55, 0
3, 169680, Note_on_c, 0, 67, 35
3, 169920, Note_on_c, 0, 67, 0
3, 169920, Note_on_c, 0, 56, 34
3, 169920, Note_on_c, 0, 68, 40
3, 171360, Note_on_c, 0, 68, 0
3, 171360, Note_on_c, 0, 56, 0
3, 171360, Note_on_c, 0, 58, 32
3, 171360, Note_on_c, 0, 56, 32
3, 171360, Note_on_c, 0, 65, 38
3, 172320, Note_on_c, 0, 65, 0
3, 172320, Note_on_c, 0, 56, 0
3, 172320, Note_on_c, 0, 55, 31
3, 172320, Note_on_c, 0, 63, 37
3, 172800, Note_on_c, 0, 63, 0
3, 172800, Note_on_c, 0, 55, 0
3, 172800, Note_on_c, 0, 58, 0
3, 172800, Note_on_c, 0, 56, 46
3, 173280, Note_on_c, 0, 56, 0
3, 173280, Note_on_c, 0, 58, 42
3, 173760, Note_on_c, 0, 58, 0
3, 173760, Note_on_c, 0, 46, 44
3, 174240, Note_on_c, 0, 46, 0
3, 174240, Note_on_c, 0, 51, 45
3, 174720, Note_on_c, 0, 51, 0
3, 174720, Note_on_c, 0, 46, 46
3, 175200, Note_on_c, 0, 46, 0
3, 175200, Note_on_c, 0, 39, 41
3, 175680, Note_on_c, 0, 39, 0
3, 175680, Note_on_c, 0, 63, 48
3, 175920, Note_on_c, 0, 63, 0
3, 175920, Note_on_c, 0, 62, 43
3, 176160, Note_on_c, 0, 62, 0
3, 176160, Note_on_c, 0, 63, 48
3, 176400, Note_on_c, 0, 63, 0
3, 176400, Note_on_c, 0, 60, 43
3, 176640, Note_on_c, 0, 60, 0
3, 176640, Note_on_c, 0, 62, 48
3, 176880, Note_on_c, 0, 62, 0
3, 176880, Note_on_c, 0, 63, 42
3, 177120, Note_on_c, 0, 63, 0
3, 177120, Note_on_c, 0, 65, 43
3, 177360, Note_on_c, 0, 65, 0
3, 177360, Note_on_c, 0, 64, 36
3, 177600, Note_on_c, 0, 64, 0
3, 177600, Note_on_c, 0, 65, 43
3, 177838, Note_on_c, 0, 65, 0
3, 177840, Note_on_c, 0, 62, 38
3, 178080, Note_on_c, 0, 62, 0
3, 178080, Note_on_c, 0, 63, 43
3, 178320, Note_on_c, 0, 63, 0
3, 178320, Note_on_c, 0, 65, 36
3, 178560, Note_on_c, 0, 65, 0
3, 178560, Note_on_c, 0, 63, 33
3, 178800, Note_on_c, 0, 63, 0
3, 178800, Note_on_c, 0, 62, 30
3, 179040, Note_on_c, 0, 62, 0
3, 179040, Note_on_c, 0, 63, 33
3, 179280, Note_on_c, 0, 63, 0
3, 179280, Note_on_c, 0, 60, 30
3, 179520, Note_on_c, 0, 60, 0
3, 179520, Note_on_c, 0, 62, 33
3, 179760, Note_on_c, 0, 62, 0
3, 179760, Note_on_c, 0, 63, 29
3, 180000, Note_on_c, 0, 63, 0
3, 180000, Note_on_c, 0, 65, 33
3, 180240, Note_on_c, 0, 65, 0
3, 180240, Note_on_c, 0, 64, 28
3, 180480, Note_on_c, 0, 64, 0
3, 180480, Note_on_c, 0, 65, 33
3, 180718, Note_on_c, 0, 65, 0
3, 180720, Note_on_c, 0, 62, 31
3, 180960, Note_on_c, 0, 62, 0
3, 180960, Note_on_c, 0, 63, 35
3, 181200, Note_on_c, 0, 63, 0
3, 181200, Note_on_c, 0, 65, 30
3, 181440, Note_on_c, 0, 65, 0
3, 181440, Note_on_c, 0, 63, 36
3, 181680, Note_on_c, 0, 63, 0
3, 181680, Note_on_c, 0, 62, 31
3, 181920, Note_on_c, 0, 62, 0
3, 181920, Note_on_c, 0, 63, 37
3, 182158, Note_on_c, 0, 63, 0
3, 182160, Note_on_c, 0, 60, 35
3, 182400, Note_on_c, 0, 60, 0
3, 182400, Note_on_c, 0, 62, 39
3, 182640, Note_on_c, 0, 62, 0
3, 182640, Note_on_c, 0, 63, 33
3, 182880, Note_on_c, 0, 63, 0
3, 182880, Note_on_c, 0, 59, 44
3, 183120, Note_on_c, 0, 59, 0
3, 183120, Note_on_c, 0, 60, 38
3, 183360, Note_on_c, 0, 60, 0
3, 183360, Note_on_c, 0, 62, 48
3, 183600, Note_on_c, 0, 62, 0
3, 183600, Note_on_c, 0, 59, 44
3, 183840, Note_on_c, 0, 59, 0
3, 183840, Note_on_c, 0, 60, 54
3, 184080, Note_on_c, 0, 60, 0
3, 184080, Note_on_c, 0, 57, 48
3, 184320, Note_on_c, 0, 57, 0
3, 184320, Note_on_c, 0, 55, 62
3, 186240, Note_on_c, 0, 55, 0
3, 187680, Note_on_c, 0, 60, 27
3, 187680, Note_on_c, 0, 67, 33
3, 188160, Note_on_c, 0, 67, 0
3, 188160, Note_on_c, 0, 60, 0
3, 188160, Note_on_c, 0, 67, 33
3, 188160, Note_on_c, 0, 65, 27
3, 188640, Note_on_c, 0, 65, 0
3, 188640, Note_on_c, 0, 67, 0
3, 188640, Note_on_c, 0, 64, 30
3, 188640, Note_on_c, 0, 67, 36
3, 188760, Note_on_c, 0, 67, 0
3, 188760, Note_on_c, 0, 64, 0
3, 190080, Note_on_c, 0, 59, 30
3, 190080, Note_on_c, 0, 67, 36
3, 191040, Note_on_c, 0, 59, 0
3, 191040, Note_on_c, 0, 60, 33
3, 191520, Note_on_c, 0, 60, 0
3, 191520, Note_on_c, 0, 55, 36
3, 191640, Note_on_c, 0, 55, 0
3, 192000, Note_on_c, 0, 67, 0
3, 193440, Note_on_c, 0, 60, 40
3, 193440, Note_on_c, 0, 67, 48
3, 193920, Note_on_c, 0, 67, 0
3, 193920, Note_on_c, 0, 60, 0
3, 193920, Note_on_c, 0, 67, 48
3, 193920, Note_on_c, 0, 65, 40
3, 194400, Note_on_c, 0, 65, 0
3, 194400, Note_on_c, 0, 67, 0
3, 194400, Note_on_c, 0, 64, 44
3, 194400, Note_on_c, 0, 67, 52
3, 194520, Note_on_c, 0, 67, 0
3, 194520, Note_on_c, 0, 64, 0
3, 195840, Note_on_c, 0, 53, 44
3, 195840, Note_on_c, 0, 60, 52
3, 195960, Note_on_c, 0, 60, 0
3, 195960, Note_on_c, 0, 53, 0
3, 196800, Note_on_c, 0, 55, 40
3, 196800, Note_on_c, 0, 65, 48
3, 196920, Note_on_c, 0, 65, 0
3, 196920, Note_on_c, 0, 55, 0
3, 197280, Note_on_c, 0, 64, 52
3, 197280, Note_on_c, 0, 60, 44
3, 197400, Note_on_c, 0, 60, 0
3, 197400, Note_on_c, 0, 64, 0
3, 199200, Note_on_c, 0, 59, 27
3, 199200, Note_on_c, 0, 67, 33
3, 199680, Note_on_c, 0, 67, 0
3, 199680, Note_on_c, 0, 59, 0
3, 199680, Note_on_c, 0, 67, 33
3, 199680, Note_on_c, 0, 60, 27
3, 200160, Note_on_c, 0, 60, 0
3, 200160, Note_on_c, 0, 67, 0
3, 200160, Note_on_c, 0, 55, 30
3, 200160, Note_on_c, 0, 67, 36
3, 200280, Note_on_c, 0, 67, 0
3, 200280, Note_on_c, 0, 55, 0
3, 202080, Note_on_c, 0, 64, 37
3, 202080, Note_on_c, 0, 67, 46
3, 202560, Note_on_c, 0, 67, 0
3, 202560, Note_on_c, 0, 64, 0
3, 202560, Note_on_c, 0, 66, 46
3, 202560, Note_on_c, 0, 62, 37
3, 203040, Note_on_c, 0, 62, 0
3, 203040, Note_on_c, 0, 66, 0
3, 203520, Note_on_c, 0, 60, 37
3, 203520, Note_on_c, 0, 64, 46
3, 204000, Note_on_c, 0, 64, 0
3, 204000, Note_on_c, 0, 60, 0
3, 204000, Note_on_c, 0, 62, 46
3, 204000, Note_on_c, 0, 59, 37
3, 204480, Note_on_c, 0, 59, 0
3, 204480, Note_on_c, 0, 62, 0
3, 204480, Note_on_c, 0, 57, 50
3, 204480, Note_on_c, 0, 60, 50
3, 205440, Note_on_c, 0, 60, 0
3, 205440, Note_on_c, 0, 57, 0
3, 205447, Note_on_c, 0, 50, 44
3, 205920, Note_on_c, 0, 55, 56
3, 205927, Note_on_c, 0, 50, 0
3, 206280, Note_on_c, 0, 55, 0
3, 206280, Note_on_c, 0, 59, 50
3, 206400, Note_on_c, 0, 59, 0
3, 206400, Note_on_c, 0, 62, 57
3, 206760, Note_on_c, 0, 62, 0
3, 206760, Note_on_c, 0, 67, 50
3, 206880, Note_on_c, 0, 67, 0
3, 206880, Note_on_c, 0, 71, 57
3, 207240, Note_on_c, 0, 71, 0
3, 207240, Note_on_c, 0, 67, 53
3, 207360, Note_on_c, 0, 67, 0
3, 207360, Note_on_c, 0, 69, 50
3, 207360, Note_on_c, 0, 72, 50
3, 208320, Note_on_c, 0, 72, 0
3, 208320, Note_on_c, 0, 69, 0
3, 208327, Note_on_c, 0, 62, 44
3, 208800, Note_on_c, 0, 55, 56
3, 208807, Note_on_c, 0, 62, 0
3, 209160, Note_on_c, 0, 55, 0
3, 209160, Note_on_c, 0, 59, 50
3, 209280, Note_on_c, 0, 59, 0
3, 209280, Note_on_c, 0, 50, 57
3, 209640, Note_on_c, 0, 50, 0
3, 209640, Note_on_c, 0, 55, 50
3, 209760, Note_on_c, 0, 55, 0
3, 209760, Note_on_c, 0, 47, 57
3, 210113, Note_on_c, 0, 50, 53
3, 210120, Note_on_c, 0, 47, 0
3, 210233, Note_on_c, 0, 50, 0
3, 210240, Note_on_c, 0, 43, 56
3, 210720, Note_on_c, 0, 43, 0
3, 212160, Note_on_c, 0, 60, 27
3, 212160, Note_on_c, 0, 67, 33
3, 212640, Note_on_c, 0, 67, 0
3, 212640, Note_on_c, 0, 60, 0
3, 212640, Note_on_c, 0, 67, 33
3, 212640, Note_on_c, 0, 65, 27
3, 213120, Note_on_c, 0, 65, 0
3, 213120, Note_on_c, 0, 67, 0
3, 213120, Note_on_c, 0, 64, 30
3, 213120, Note_on_c, 0, 67, 36
3, 213240, Note_on_c, 0, 67, 0
3, 213240, Note_on_c, 0, 64, 0
3, 214560, Note_on_c, 0, 59, 30
3, 214560, Note_on_c, 0, 67, 36
3, 215520, Note_on_c, 0, 59, 0
3, 215520, Note_on_c, 0, 60, 33
3, 216000, Note_on_c, 0, 60, 0
3, 216000, Note_on_c, 0, 55, 36
3, 216120, Note_on_c, 0, 55, 0
3, 216480, Note_on_c, 0, 67, 0
3, 217920, Note_on_c, 0, 60, 40
3, 217920, Note_on_c, 0, 67, 48
3, 218400, Note_on_c, 0, 67, 0
3, 218400, Note_on_c, 0, 60, 0
3, 218400, Note_on_c, 0, 67, 48
3, 218400, Note_on_c, 0, 65, 40
3, 218880, Note_on_c, 0, 65, 0
3, 218880, Note_on_c, 0, 67, 0
3, 218880, Note_on_c, 0, 64, 44
3, 218880, Note_on_c, 0, 67, 52
3, 219000, Note_on_c, 0, 67, 0
3, 219000, Note_on_c, 0, 64, 0
3, 219840, Note_on_c, 0, 55, 48
3, 219840, Note_on_c, 0, 52, 40
3, 219960, Note_on_c, 0, 52, 0
3, 219960, Note_on_c, 0, 55, 0
3, 220320, Note_on_c, 0, 53, 44
3, 220320, Note_on_c, 0, 57, 52
3, 220440, Note_on_c, 0, 57, 0
3, 220440, Note_on_c, 0, 53, 0
3, 221280, Note_on_c, 0, 55, 40
3, 221280, Note_on_c, 0, 65, 48
3, 221400, Note_on_c, 0, 65, 0
3, 221400, Note_on_c, 0, 55, 0
3, 221760, Note_on_c, 0, 64, 44
3, 221760, Note_on_c, 0, 67, 52
3, 221880, Note_on_c, 0, 67, 0
3, 221880, Note_on_c, 0, 64, 0
3, 222720, Note_on_c, 0, 55, 48
3, 222720, Note_on_c, 0, 52, 40
3, 222840, Note_on_c, 0, 52, 0
3, 222840, Note_on_c, 0, 55, 0
3, 223200, Note_on_c, 0, 53, 44
3, 223200, Note_on_c, 0, 57, 52
3, 223320, Note_on_c, 0, 57, 0
3, 223320, Note_on_c, 0, 53, 0
3, 224160, Note_on_c, 0, 55, 40
3, 224160, Note_on_c, 0, 65, 48
3, 224280, Note_on_c, 0, 65, 0
3, 224280, Note_on_c, 0, 55, 0
3, 224640, Note_on_c, 0, 64, 49
3, 224640, Note_on_c, 0, 60, 41
3, 224760, Note_on_c, 0, 60, 0
3, 224760, Note_on_c, 0, 64, 0
3, 225120, Note_on_c, 0, 48, 45
3, 225120, Note_on_c, 0, 60, 53
3, 225240, Note_on_c, 0, 60, 0
3, 225240, Note_on_c, 0, 48, 0
3, 225600, Note_on_c, 0, 48, 44
3, 225600, Note_on_c, 0, 60, 52
3, 225720, Note_on_c, 0, 60, 0
3, 225720, Note_on_c, 0, 48, 0
3, 226080, Note_on_c, 0, 48, 45
3, 226080, Note_on_c, 0, 60, 53
3, 226560, Note_on_c, 0, 60, 0
3, 226560, Note_on_c, 0, 48, 0
3, 226560, End_track
4, 0, Start_track
4, 0, Title_t, "Pedale"
4, 0, Program_c, 0, 0
4, 57, Control_c, 0, 64, 127
4, 970, Control_c, 0, 64, 0
4, 1130, Control_c, 0, 64, 127
4, 1447, Control_c, 0, 64, 0
4, 2887, Control_c, 0, 64, 127
4, 3135, Control_c, 0, 64, 0
4, 3459, Control_c, 0, 64, 127
4, 3610, Control_c, 0, 64, 0
4, 3946, Control_c, 0, 64, 127
4, 4092, Control_c, 0, 64, 0
4, 5781, Control_c, 0, 64, 127
4, 6731, Control_c, 0, 64, 0
4, 6861, Control_c, 0, 64, 127
4, 7278, Control_c, 0, 64, 0
4, 8640, Control_c, 0, 64, 127
4, 8765, Control_c, 0, 64, 0
4, 9160, Control_c, 0, 64, 127
4, 9250, Control_c, 0, 64, 0
4, 9646, Control_c, 0, 64, 127
4, 9731, Control_c, 0, 64, 0
4, 11577, Control_c, 0, 64, 127
4, 12490, Control_c, 0, 64, 0
4, 12650, Control_c, 0, 64, 127
4, 12967, Control_c, 0, 64, 0
4, 14407, Control_c, 0, 64, 127
4, 14655, Control_c, 0, 64, 0
4, 14979, Control_c, 0, 64, 127
4, 15130, Control_c, 0, 64, 0
4, 15466, Control_c, 0, 64, 127
4, 15612, Control_c, 0, 64, 0
4, 17301, Control_c, 0, 64, 127
4, 18251, Control_c, 0, 64, 0
4, 18396, Control_c, 0, 64, 127
4, 18798, Control_c, 0, 64, 0
4, 20160, Control_c, 0, 64, 127
4, 20285, Control_c, 0, 64, 0
4, 20680, Control_c, 0, 64, 127
4, 20770, Control_c, 0, 64, 0
4, 21166, Control_c, 0, 64, 127
4, 21251, Control_c, 0, 64, 0
4, 23097, Control_c, 0, 64, 127
4, 24010, Control_c, 0, 64, 0
4, 24170, Control_c, 0, 64, 127
4, 24487, Control_c, 0, 64, 0
4, 25977, Control_c, 0, 64, 127
4, 26890, Control_c, 0, 64, 0
4, 27050, Control_c, 0, 64, 127
4, 27360, Control_c, 0, 64, 0
4, 27530, Control_c, 0, 64, 127
4, 28330, Control_c, 0, 64, 0
4, 28490, Control_c, 0, 64, 127
4, 28800, Control_c, 0, 64, 0
4, 28956, Control_c, 0, 64, 127
4, 30240, Control_c, 0, 64, 0
4, 30374, Control_c, 0, 64, 127
4, 31680, Control_c, 0, 64, 0
4, 31836, Control_c, 0, 64, 127
4, 33120, Control_c, 0, 64, 0
4, 33254, Control_c, 0, 64, 127
4, 35040, Control_c, 0, 64, 0
4, 35640, Control_c, 0, 64, 127
4, 36007, Control_c, 0, 64, 0
4, 36113, Control_c, 0, 64, 127
4, 36970, Control_c, 0, 64, 0
4, 37130, Control_c, 0, 64, 127
4, 37447, Control_c, 0, 64, 0
4, 38887, Control_c, 0, 64, 127
4, 39135, Control_c, 0, 64, 0
4, 39459, Control_c, 0, 64, 127
4, 39610, Control_c, 0, 64, 0
4, 39946, Control_c, 0, 64, 127
4, 40092, Control_c, 0, 64, 0
4, 41781, Control_c, 0, 64, 127
4, 42731, Control_c, 0, 64, 0
4, 42918, Control_c, 0, 64, 127
4, 43278, Control_c, 0, 64, 0
4, 44640, Control_c, 0, 64, 127
4, 44765, Control_c, 0, 64, 0
4, 45160, Control_c, 0, 64, 127
4, 45250, Control_c, 0, 64, 0
4, 45646, Control_c, 0, 64, 127
4, 45731, Control_c, 0, 64, 0
4, 47577, Control_c, 0, 64, 127
4, 48490, Control_c, 0, 64, 0
4, 48650, Control_c, 0, 64, 127
4, 48967, Control_c, 0, 64, 0
4, 50457, Control_c, 0, 64, 127
4, 51370, Control_c, 0, 64, 0
4, 51530, Control_c, 0, 64, 127
4, 51840, Control_c, 0, 64, 0
4, 51939, Control_c, 0, 64, 127
4, 52810, Control_c, 0, 64, 0
4, 52970, Control_c, 0, 64, 127
4, 53280, Control_c, 0, 64, 0
4, 53436, Control_c, 0, 64, 127
4, 54720, Control_c, 0, 64, 0
4, 54854, Control_c, 0, 64, 127
4, 56160, Control_c, 0, 64, 0
4, 56316, Control_c, 0, 64, 127
4, 57600, Control_c, 0, 64, 0
4, 57734, Control_c, 0, 64, 127
4, 59520, Control_c, 0, 64, 0
4, 60120, Control_c, 0, 64, 127
4, 60487, Control_c, 0, 64, 0
4, 60593, Control_c, 0, 64, 127
4, 61450, Control_c, 0, 64, 0
4, 61610, Control_c, 0, 64, 127
4, 61927, Control_c, 0, 64, 0
4, 63367, Control_c, 0, 64, 127
4, 63615, Control_c, 0, 64, 0
4, 63939, Control_c, 0, 64, 127
4, 64090, Control_c, 0, 64, 0
4, 64426, Control_c, 0, 64, 127
4, 64572, Control_c, 0, 64, 0
4, 66261, Control_c, 0, 64, 127
4, 67211, Control_c, 0, 64, 0
4, 67356, Control_c, 0, 64, 127
4, 67758, Control_c, 0, 64, 0
4, 69120, Control_c, 0, 64, 127
4, 69245, Control_c, 0, 64, 0
4, 69640, Control_c, 0, 64, 127
4, 69730, Control_c, 0, 64, 0
4, 70126, Control_c, 0, 64, 127
4, 70211, Control_c, 0, 64, 0
4, 72057, Control_c, 0, 64, 127
4, 72970, Control_c, 0, 64, 0
4, 73130, Control_c, 0, 64, 127
4, 73447, Control_c, 0, 64, 0
4, 74887, Control_c, 0, 64, 127
4, 75135, Control_c, 0, 64, 0
4, 75459, Control_c, 0, 64, 127
4, 75610, Control_c, 0, 64, 0
4, 75946, Control_c, 0, 64, 127
4, 76092, Control_c, 0, 64, 0
4, 78268, Control_c, 0, 64, 127
4, 78734, Control_c, 0, 64, 0
4, 78840, Control_c, 0, 64, 127
4, 79206, Control_c, 0, 64, 0
4, 79286, Control_c, 0, 64, 127
4, 79693, Control_c, 0, 64, 0
4, 79749, Control_c, 0, 64, 127
4, 80180, Control_c, 0, 64, 0
4, 80263, Control_c, 0, 64, 127
4, 80683, Control_c, 0, 64, 0
4, 80774, Control_c, 0, 64, 127
4, 81133, Control_c, 0, 64, 0
4, 81212, Control_c, 0, 64, 127
4, 81614, Control_c, 0, 64, 0
4, 81706, Control_c, 0, 64, 127
4, 82086, Control_c, 0, 64, 0
4, 82172, Control_c, 0, 64, 127
4, 82574, Control_c, 0, 64, 0
4, 82657, Control_c, 0, 64, 127
4, 83053, Control_c, 0, 64, 0
4, 83103, Control_c, 0, 64, 127
4, 83520, Control_c, 0, 64, 0
4, 84028, Control_c, 0, 64, 127
4, 84494, Control_c, 0, 64, 0
4, 84600, Control_c, 0, 64, 127
4, 84966, Control_c, 0, 64, 0
4, 85046, Control_c, 0, 64, 127
4, 85453, Control_c, 0, 64, 0
4, 85509, Control_c, 0, 64, 127
4, 85940, Control_c, 0, 64, 0
4, 86023, Control_c, 0, 64, 127
4, 86443, Control_c, 0, 64, 0
4, 86534, Control_c, 0, 64, 127
4, 86893, Control_c, 0, 64, 0
4, 86972, Control_c, 0, 64, 127
4, 87374, Control_c, 0, 64, 0
4, 87466, Control_c, 0, 64, 127
4, 87846, Control_c, 0, 64, 0
4, 87932, Control_c, 0, 64, 127
4, 88334, Control_c, 0, 64, 0
4, 88417, Control_c, 0, 64, 127
4, 88813, Control_c, 0, 64, 0
4, 88897, Control_c, 0, 64, 127
4, 89280, Control_c, 0, 64, 0
4, 91228, Control_c, 0, 64, 127
4, 91694, Control_c, 0, 64, 0
4, 91800, Control_c, 0, 64, 127
4, 92173, Control_c, 0, 64, 0
4, 92739, Control_c, 0, 64, 127
4, 93130, Control_c, 0, 64, 0
4, 93261, Control_c, 0, 64, 127
4, 93614, Control_c, 0, 64, 0
4, 94179, Control_c, 0, 64, 127
4, 94575, Control_c, 0, 64, 0
4, 94652, Control_c, 0, 64, 127
4, 95045, Control_c, 0, 64, 0
4, 95612, Control_c, 0, 64, 127
4, 96006, Control_c, 0, 64, 0
4, 96113, Control_c, 0, 64, 127
4, 96494, Control_c, 0, 64, 0
4, 96600, Control_c, 0, 64, 127
4, 96973, Control_c, 0, 64, 0
4, 97108, Control_c, 0, 64, 127
4, 97452, Control_c, 0, 64, 0
4, 97588, Control_c, 0, 64, 127
4, 97934, Control_c, 0, 64, 0
4, 98019, Control_c, 0, 64, 127
4, 98882, Control_c, 0, 64, 0
4, 98979, Control_c, 0, 64, 127
4, 99366, Control_c, 0, 64, 0
4, 99466, Control_c, 0, 64, 127
4, 99855, Control_c, 0, 64, 0
4, 99967, Control_c, 0, 64, 127
4, 100333, Control_c, 0, 64, 0
4, 100419, Control_c, 0, 64, 127
4, 100800, Control_c, 0, 64, 0
4, 100980, Control_c, 0, 64, 127
4, 101770, Control_c, 0, 64, 0
4, 101930, Control_c, 0, 64, 127
4, 102247, Control_c, 0, 64, 0
4, 103687, Control_c, 0, 64, 127
4, 103935, Control_c, 0, 64, 0
4, 104259, Control_c, 0, 64, 127
4, 104410, Control_c, 0, 64, 0
4, 104746, Control_c, 0, 64, 127
4, 104892, Control_c, 0, 64, 0
4, 106581, Control_c, 0, 64, 127
4, 107531, Control_c, 0, 64, 0
4, 107676, Control_c, 0, 64, 127
4, 108078, Control_c, 0, 64, 0
4, 109440, Control_c, 0, 64, 127
4, 109565, Control_c, 0, 64, 0
4, 109960, Control_c, 0, 64, 127
4, 110050, Control_c, 0, 64, 0
4, 110446, Control_c, 0, 64, 127
4, 110531, Control_c, 0, 64, 0
4, 112377, Control_c, 0, 64, 127
4, 113290, Control_c, 0, 64, 0
4, 113450, Control_c, 0, 64, 127
4, 113767, Control_c, 0, 64, 0
4, 115207, Control_c, 0, 64, 127
4, 115455, Control_c, 0, 64, 0
4, 115779, Control_c, 0, 64, 127
4, 115930, Control_c, 0, 64, 0
4, 116266, Control_c, 0, 64, 127
4, 116412, Control_c, 0, 64, 0
4, 118588, Control_c, 0, 64, 127
4, 119054, Control_c, 0, 64, 0
4, 119160, Control_c, 0, 64, 127
4, 119526, Control_c, 0, 64, 0
4, 119606, Control_c, 0, 64, 127
4, 120013, Control_c, 0, 64, 0
4, 120126, Control_c, 0, 64, 127
4, 120500, Control_c, 0, 64, 0
4, 120583, Control_c, 0, 64, 127
4, 121003, Control_c, 0, 64, 0
4, 121094, Control_c, 0, 64, 127
4, 121453, Control_c, 0, 64, 0
4, 121581, Control_c, 0, 64, 127
4, 121934, Control_c, 0, 64, 0
4, 122026, Control_c, 0, 64, 127
4, 122406, Control_c, 0, 64, 0
4, 122492, Control_c, 0, 64, 127
4, 122894, Control_c, 0, 64, 0
4, 122977, Control_c, 0, 64, 127
4, 123373, Control_c, 0, 64, 0
4, 123475, Control_c, 0, 64, 127
4, 123840, Control_c, 0, 64, 0
4, 124348, Control_c, 0, 64, 127
4, 124814, Control_c, 0, 64, 0
4, 124920, Control_c, 0, 64, 127
4, 125286, Control_c, 0, 64, 0
4, 125366, Control_c, 0, 64, 127
4, 125773, Control_c, 0, 64, 0
4, 125852, Control_c, 0, 64, 127
4, 126260, Control_c, 0, 64, 0
4, 126343, Control_c, 0, 64, 127
4, 126763, Control_c, 0, 64, 0
4, 126854, Control_c, 0, 64, 127
4, 127213, Control_c, 0, 64, 0
4, 127341, Control_c, 0, 64, 127
4, 127694, Control_c, 0, 64, 0
4, 127786, Control_c, 0, 64, 127
4, 128166, Control_c, 0, 64, 0
4, 128252, Control_c, 0, 64, 127
4, 128654, Control_c, 0, 64, 0
4, 128737, Control_c, 0, 64, 127
4, 129133, Control_c, 0, 64, 0
4, 129229, Control_c, 0, 64, 127
4, 129600, Control_c, 0, 64, 0
4, 131548, Control_c, 0, 64, 127
4, 132014, Control_c, 0, 64, 0
4, 132120, Control_c, 0, 64, 127
4, 132493, Control_c, 0, 64, 0
4, 133059, Control_c, 0, 64, 127
4, 133450, Control_c, 0, 64, 0
4, 133574, Control_c, 0, 64, 127
4, 133934, Control_c, 0, 64, 0
4, 134499, Control_c, 0, 64, 127
4, 134895, Control_c, 0, 64, 0
4, 135028, Control_c, 0, 64, 127
4, 135365, Control_c, 0, 64, 0
4, 135932, Control_c, 0, 64, 127
4, 136326, Control_c, 0, 64, 0
4, 136433, Control_c, 0, 64, 127
4, 136814, Control_c, 0, 64, 0
4, 136920, Control_c, 0, 64, 127
4, 137293, Control_c, 0, 64, 0
4, 137421, Control_c, 0, 64, 127
4, 137772, Control_c, 0, 64, 0
4, 137908, Control_c, 0, 64, 127
4, 138254, Control_c, 0, 64, 0
4, 138339, Control_c, 0, 64, 127
4, 139202, Control_c, 0, 64, 0
4, 139299, Control_c, 0, 64, 127
4, 139686, Control_c, 0, 64, 0
4, 139786, Control_c, 0, 64, 127
4, 140175, Control_c, 0, 64, 0
4, 140287, Control_c, 0, 64, 127
4, 140653, Control_c, 0, 64, 0
4, 140774, Control_c, 0, 64, 127
4, 141120, Control_c, 0, 64, 0
4, 141300, Control_c, 0, 64, 127
4, 142090, Control_c, 0, 64, 0
4, 142250, Control_c, 0, 64, 127
4, 142567, Control_c, 0, 64, 0
4, 144007, Control_c, 0, 64, 127
4, 144255, Control_c, 0, 64, 0
4, 144579, Control_c, 0, 64, 127
4, 144730, Control_c, 0, 64, 0
4, 145066, Control_c, 0, 64, 127
4, 145212, Control_c, 0, 64, 0
4, 146901, Control_c, 0, 64, 127
4, 147851, Control_c, 0, 64, 0
4, 147996, Control_c, 0, 64, 127
4, 148398, Control_c, 0, 64, 0
4, 149760, Control_c, 0, 64, 127
4, 149885, Control_c, 0, 64, 0
4, 150280, Control_c, 0, 64, 127
4, 150370, Control_c, 0, 64, 0
4, 150766, Control_c, 0, 64, 127
4, 150851, Control_c, 0, 64, 0
4, 152683, Control_c, 0, 64, 127
4, 153135, Control_c, 0, 64, 0
4, 153290, Control_c, 0, 64, 127
4, 153612, Control_c, 0, 64, 0
4, 153741, Control_c, 0, 64, 127
4, 154094, Control_c, 0, 64, 0
4, 154236, Control_c, 0, 64, 127
4, 154574, Control_c, 0, 64, 0
4, 154701, Control_c, 0, 64, 127
4, 155055, Control_c, 0, 64, 0
4, 155224, Control_c, 0, 64, 127
4, 155524, Control_c, 0, 64, 0
4, 155646, Control_c, 0, 64, 127
4, 156009, Control_c, 0, 64, 0
4, 156149, Control_c, 0, 64, 127
4, 156490, Control_c, 0, 64, 0
4, 156652, Control_c, 0, 64, 127
4, 156960, Control_c, 0, 64, 0
4, 157158, Control_c, 0, 64, 127
4, 157455, Control_c, 0, 64, 0
4, 157596, Control_c, 0, 64, 127
4, 157930, Control_c, 0, 64, 0
4, 158076, Control_c, 0, 64, 127
4, 158400, Control_c, 0, 64, 0
4, 158549, Control_c, 0, 64, 127
4, 158895, Control_c, 0, 64, 0
4, 158995, Control_c, 0, 64, 127
4, 159377, Control_c, 0, 64, 0
4, 159475, Control_c, 0, 64, 127
4, 159840, Control_c, 0, 64, 0
4, 160038, Control_c, 0, 64, 127
4, 160814, Control_c, 0, 64, 0
4, 160956, Control_c, 0, 64, 127
4, 161450, Control_c, 0, 64, 0
4, 161577, Control_c, 0, 64, 127
4, 161774, Control_c, 0, 64, 0
4, 161887, Control_c, 0, 64, 127
4, 162258, Control_c, 0, 64, 0
4, 162396, Control_c, 0, 64, 127
4, 162734, Control_c, 0, 64, 0
4, 162918, Control_c, 0, 64, 127
4, 163217, Control_c, 0, 64, 0
4, 164203, Control_c, 0, 64, 127
4, 164655, Control_c, 0, 64, 0
4, 164810, Control_c, 0, 64, 127
4, 165132, Control_c, 0, 64, 0
4, 165261, Control_c, 0, 64, 127
4, 165614, Control_c, 0, 64, 0
4, 165756, Control_c, 0, 64, 127
4, 166094, Control_c, 0, 64, 0
4, 166221, Control_c, 0, 64, 127
4, 166575, Control_c, 0, 64, 0
4, 166744, Control_c, 0, 64, 127
4, 167044, Control_c, 0, 64, 0
4, 167166, Control_c, 0, 64, 127
4, 167529, Control_c, 0, 64, 0
4, 167669, Control_c, 0, 64, 127
4, 168010, Control_c, 0, 64, 0
4, 168172, Control_c, 0, 64, 127
4, 168480, Control_c, 0, 64, 0
4, 168678, Control_c, 0, 64, 127
4, 168975, Control_c, 0, 64, 0
4, 169116, Control_c, 0, 64, 127
4, 169450, Control_c, 0, 64, 0
4, 169596, Control_c, 0, 64, 127
4, 169920, Control_c, 0, 64, 0
4, 170069, Control_c, 0, 64, 127
4, 170415, Control_c, 0, 64, 0
4, 170515, Control_c, 0, 64, 127
4, 170897, Control_c, 0, 64, 0
4, 170995, Control_c, 0, 64, 127
4, 171360, Control_c, 0, 64, 0
4, 171558, Control_c, 0, 64, 127
4, 172334, Control_c, 0, 64, 0
4, 172476, Control_c, 0, 64, 127
4, 172970, Control_c, 0, 64, 0
4, 173097, Control_c, 0, 64, 127
4, 173294, Control_c, 0, 64, 0
4, 173407, Control_c, 0, 64, 127
4, 173778, Control_c, 0, 64, 0
4, 173916, Control_c, 0, 64, 127
4, 174254, Control_c, 0, 64, 0
4, 174560, Control_c, 0, 64, 127
4, 175680, Control_c, 0, 64, 0
4, 178560, Control_c, 0, 64, 0
4, 186840, Control_c, 0, 64, 127
4, 187200, Control_c, 0, 64, 0
4, 187327, Control_c, 0, 64, 127
4, 188170, Control_c, 0, 64, 0
4, 188330, Control_c, 0, 64, 127
4, 188647, Control_c, 0, 64, 0
4, 190087, Control_c, 0, 64, 127
4, 190335, Control_c, 0, 64, 0
4, 190659, Control_c, 0, 64, 127
4, 190810, Control_c, 0, 64, 0
4, 191146, Control_c, 0, 64, 127
4, 191292, Control_c, 0, 64, 0
4, 192981, Control_c, 0, 64, 127
4, 193931, Control_c, 0, 64, 0
4, 194054, Control_c, 0, 64, 127
4, 194478, Control_c, 0, 64, 0
4, 195840, Control_c, 0, 64, 127
4, 195965, Control_c, 0, 64, 0
4, 196360, Control_c, 0, 64, 127
4, 196450, Control_c, 0, 64, 0
4, 196846, Control_c, 0, 64, 127
4, 196931, Control_c, 0, 64, 0
4, 198777, Control_c, 0, 64, 127
4, 199690, Control_c, 0, 64, 0
4, 199850, Control_c, 0, 64, 127
4, 200167, Control_c, 0, 64, 0
4, 201657, Control_c, 0, 64, 127
4, 202570, Control_c, 0, 64, 0
4, 202730, Control_c, 0, 64, 127
4, 203040, Control_c, 0, 64, 0
4, 203139, Control_c, 0, 64, 127
4, 204010, Control_c, 0, 64, 0
4, 204170, Control_c, 0, 64, 127
4, 204480, Control_c, 0, 64, 0
4, 204636, Control_c, 0, 64, 127
4, 205920, Control_c, 0, 64, 0
4, 206054, Control_c, 0, 64, 127
4, 207360, Control_c, 0, 64, 0
4, 207516, Control_c, 0, 64, 127
4, 208800, Control_c, 0, 64, 0
4, 208934, Control_c, 0, 64, 127
4, 210720, Control_c, 0, 64, 0
4, 211320, Control_c, 0, 64, 127
4, 211687, Control_c, 0, 64, 0
4, 211793, Control_c, 0, 64, 127
4, 212650, Control_c, 0, 64, 0
4, 212810, Control_c, 0, 64, 127
4, 213127, Control_c, 0, 64, 0
4, 214567, Control_c, 0, 64, 127
4, 214815, Control_c, 0, 64, 0
4, 215139, Control_c, 0, 64, 127
4, 215290, Control_c, 0, 64, 0
4, 215626, Control_c, 0, 64, 127
4, 215772, Control_c, 0, 64, 0
4, 217461, Control_c, 0, 64, 127
4, 218411, Control_c, 0, 64, 0
4, 218492, Control_c, 0, 64, 127
4, 218894, Control_c, 0, 64, 0
4, 219036, Control_c, 0, 64, 127
4, 220320, Control_c, 0, 64, 0
4, 220433, Control_c, 0, 64, 127
4, 220560, Control_c, 0, 64, 0
4, 220840, Control_c, 0, 64, 127
4, 221290, Control_c, 0, 64, 0
4, 221471, Control_c, 0, 64, 127
4, 221760, Control_c, 0, 64, 0
4, 221866, Control_c, 0, 64, 127
4, 223200, Control_c, 0, 64, 0
4, 223341, Control_c, 0, 64, 127
4, 223483, Control_c, 0, 64, 0
4, 223720, Control_c, 0, 64, 127
4, 224167, Control_c, 0, 64, 0
4, 224287, Control_c, 0, 64, 127
4, 224640, Control_c, 0, 64, 0
4, 226080, Control_c, 0, 64, 127
4, 226827, Control_c, 0, 64, 0
4, 226827, End_track
5, 0, Start_track
5, 0, Title_t, "Haydn: Sonata Hoboken XVI:35 3. movement"
5, 0, End_track
6, 0, Start_track
6, 0, Title_t, "Copyright © 2009 by Bernd Krueger"
6, 0, End_track
7, 0, Start_track
7, 0, Title_t, "http://www.piano-midi.de/"
7, 0, End_track
8, 0, Start_track
8, 0, Title_t, "Edition: 2011-12-06"
8, 0, End_track
9, 0, Start_track
9, 0, Title_t, "Spur 8"
9, 0, End_track
10, 0, Start_track
10, 0, Title_t, "Spur 9"
10, 0, End_track
11, 0, Start_track
11, 0, Title_t, "Spur 10"
11, 0, End_track
12, 0, Start_track
12, 0, Title_t, "Spur 11"
12, 0, End_track
13, 0, Start_track
13, 0, Title_t, "Spur 12"
13, 0, End_track
14, 0, Start_track
14, 0, Title_t, "Spur 13"
14, 0, End_track
15, 0, Start_track
15, 0, Title_t, "Spur 14"
15, 0, End_track
16, 0, Start_track
16, 0, Title_t, "Spur 15"
16, 0, End_track
17, 0, Start_track
17, 0, Title_t, "Spur 16"
17, 0, End_track
0, 0, End_of_file
