0, 0, Header, 1, 17, 480
1, 0, Start_track
1, 0, Title_t, "Sonate Hoboken XVI:8 4. Satz"
1, 0, Copyright_t, "Copyright © 2009 by Bernd Krueger"
1, 0, Text_t, "Joseph Haydn"
1, 0, Text_t, "Allegro"
1, 0, Text_t, "Erstellt: 21.2.2009\012"
1, 0, Text_t, "Update: 16.11.2011\012"
1, 0, Text_t, "Dauer: 0:40 Minuten\012"
1, 0, Time_signature, 3, 3, 12, 8
1, 0, Key_signature, 1, "major"
1, 0, Tempo, 547945
1, 480, Tempo, 558140
1, 720, Tempo, 542986
1, 1200, Tempo, 560748
1, 1440, Tempo, 540541
1, 1680, Tempo, 545455
1, 1920, Tempo, 571429
1, 2280, Tempo, 558140
1, 2880, Tempo, 545455
1, 3480, Tempo, 571429
1, 3600, Tempo, 540541
1, 3720, Tempo, 563380
1, 3840, Tempo, 542986
1, 3960, Tempo, 560748
1, 4080, Tempo, 545455
1, 4200, Tempo, 568720
1, 4320, Tempo, 552995
1, 4800, Tempo, 566038
1, 5040, Tempo, 594059
1, 5280, Tempo, 609137
1, 5520, Tempo, 634921
1, 5760, Tempo, 547945
1, 6240, Tempo, 558140
1, 6480, Tempo, 542986
1, 6960, Tempo, 560748
1, 7200, Tempo, 535714
1, 7440, Tempo, 545455
1, 7680, Tempo, 571429
1, 8040, Tempo, 558140
1, 8640, Tempo, 538117
1, 8880, Tempo, 545455
1, 9240, Tempo, 571429
1, 9360, Tempo, 533333
1, 9480, Tempo, 563380
1, 9600, Tempo, 533333
1, 9720, Tempo, 560748
1, 9840, Tempo, 545455
1, 9960, Tempo, 568720
1, 10080, Tempo, 552995
1, 10560, Tempo, 566038
1, 10800, Tempo, 594059
1, 11040, Tempo, 609137
1, 11280, Tempo, 634921
1, 11520, Tempo, 533333
1, 11640, Tempo, 563380
1, 11760, Tempo, 533333
1, 11880, Tempo, 552995
1, 12000, Tempo, 538117
1, 12120, Tempo, 571429
1, 12240, Tempo, 540541
1, 12720, Tempo, 555556
1, 12960, Tempo, 542986
1, 13440, Tempo, 560748
1, 13680, Tempo, 538117
1, 13800, Tempo, 563380
1, 13920, Tempo, 538117
1, 14040, Tempo, 566038
1, 14160, Tempo, 542986
1, 14280, Tempo, 705882
1, 14400, Tempo, 533333
1, 14520, Tempo, 563380
1, 14640, Tempo, 533333
1, 14760, Tempo, 552995
1, 14880, Tempo, 538117
1, 15000, Tempo, 571429
1, 15120, Tempo, 540541
1, 15600, Tempo, 555556
1, 15840, Tempo, 542986
1, 16320, Tempo, 560748
1, 16560, Tempo, 538117
1, 16680, Tempo, 563380
1, 16800, Tempo, 538117
1, 16920, Tempo, 566038
1, 17040, Tempo, 542986
1, 17160, Tempo, 714286
1, 17280, Tempo, 547945
1, 17760, Tempo, 558140
1, 18000, Tempo, 542986
1, 18480, Tempo, 560748
1, 18720, Tempo, 540541
1, 18960, Tempo, 545455
1, 19200, Tempo, 571429
1, 19560, Tempo, 558140
1, 20160, Tempo, 545455
1, 20760, Tempo, 571429
1, 20880, Tempo, 540541
1, 21000, Tempo, 563380
1, 21120, Tempo, 542986
1, 21240, Tempo, 560748
1, 21360, Tempo, 545455
1, 21480, Tempo, 568720
1, 21600, Tempo, 552995
1, 22080, Tempo, 566038
1, 22320, Tempo, 594059
1, 22560, Tempo, 609137
1, 22800, Tempo, 634921
1, 23040, Tempo, 533333
1, 23160, Tempo, 563380
1, 23280, Tempo, 533333
1, 23400, Tempo, 552995
1, 23520, Tempo, 538117
1, 23640, Tempo, 571429
1, 23760, Tempo, 540541
1, 24240, Tempo, 555556
1, 24480, Tempo, 542986
1, 24960, Tempo, 560748
1, 25200, Tempo, 533333
1, 25320, Tempo, 563380
1, 25440, Tempo, 533333
1, 25560, Tempo, 566038
1, 25680, Tempo, 542986
1, 25800, Tempo, 705882
1, 25920, Tempo, 528634
1, 26040, Tempo, 563380
1, 26160, Tempo, 526316
1, 26280, Tempo, 552995
1, 26400, Tempo, 538117
1, 26520, Tempo, 571429
1, 26640, Tempo, 540541
1, 27120, Tempo, 555556
1, 27360, Tempo, 542986
1, 27840, Tempo, 560748
1, 28080, Tempo, 533333
1, 28200, Tempo, 563380
1, 28320, Tempo, 533333
1, 28440, Tempo, 566038
1, 28560, Tempo, 542986
1, 28680, Tempo, 714286
1, 28800, Tempo, 547945
1, 29280, Tempo, 558140
1, 29520, Tempo, 542986
1, 30000, Tempo, 560748
1, 30240, Tempo, 535714
1, 30480, Tempo, 545455
1, 30720, Tempo, 571429
1, 31080, Tempo, 558140
1, 31680, Tempo, 545455
1, 32280, Tempo, 571429
1, 32400, Tempo, 540541
1, 32520, Tempo, 579710
1, 32640, Tempo, 542986
1, 32760, Tempo, 574163
1, 32880, Tempo, 545455
1, 33000, Tempo, 582524
1, 33120, Tempo, 560748
1, 33600, Tempo, 591133
1, 33840, Tempo, 645161
1, 34080, Tempo, 740741
1, 34320, Tempo, 774194
1, 34320, End_track
2, 0, Start_track
2, 0, Title_t, "Piano right"
2, 0, Program_c, 0, 0
2, 0, Note_on_c, 0, 74, 63
2, 240, Note_on_c, 0, 74, 0
2, 240, Note_on_c, 0, 79, 65
2, 480, Note_on_c, 0, 79, 0
2, 480, Note_on_c, 0, 83, 68
2, 720, Note_on_c, 0, 83, 0
2, 720, Note_on_c, 0, 86, 71
2, 1200, Note_on_c, 0, 86, 0
2, 1200, Note_on_c, 0, 74, 63
2, 1440, Note_on_c, 0, 74, 0
2, 1440, Note_on_c, 0, 76, 68
2, 1680, Note_on_c, 0, 76, 0
2, 1680, Note_on_c, 0, 84, 63
2, 1920, Note_on_c, 0, 84, 0
2, 1920, Note_on_c, 0, 76, 58
2, 2160, Note_on_c, 0, 76, 0
2, 2160, Note_on_c, 0, 74, 58
2, 2400, Note_on_c, 0, 74, 0
2, 2880, Note_on_c, 0, 72, 51
2, 3120, Note_on_c, 0, 72, 0
2, 3120, Note_on_c, 0, 81, 45
2, 3360, Note_on_c, 0, 81, 0
2, 3360, Note_on_c, 0, 72, 45
2, 3600, Note_on_c, 0, 72, 0
2, 3600, Note_on_c, 0, 71, 52
2, 3720, Note_on_c, 0, 71, 0
2, 3720, Note_on_c, 0, 79, 44
2, 3840, Note_on_c, 0, 79, 0
2, 3840, Note_on_c, 0, 72, 54
2, 3960, Note_on_c, 0, 72, 0
2, 3960, Note_on_c, 0, 79, 44
2, 4080, Note_on_c, 0, 79, 0
2, 4080, Note_on_c, 0, 74, 53
2, 4200, Note_on_c, 0, 74, 0
2, 4200, Note_on_c, 0, 79, 45
2, 4320, Note_on_c, 0, 79, 0
2, 4320, Note_on_c, 0, 72, 56
2, 4440, Note_on_c, 0, 72, 0
2, 4440, Note_on_c, 0, 76, 41
2, 4560, Note_on_c, 0, 76, 0
2, 4560, Note_on_c, 0, 74, 52
2, 4680, Note_on_c, 0, 74, 0
2, 4680, Note_on_c, 0, 72, 42
2, 4800, Note_on_c, 0, 72, 0
2, 4800, Note_on_c, 0, 71, 49
2, 4920, Note_on_c, 0, 71, 0
2, 4920, Note_on_c, 0, 69, 40
2, 5040, Note_on_c, 0, 69, 0
2, 5040, Note_on_c, 0, 67, 49
2, 5280, Note_on_c, 0, 67, 0
2, 5760, Note_on_c, 0, 74, 63
2, 6000, Note_on_c, 0, 74, 0
2, 6000, Note_on_c, 0, 79, 65
2, 6240, Note_on_c, 0, 79, 0
2, 6240, Note_on_c, 0, 83, 68
2, 6480, Note_on_c, 0, 83, 0
2, 6480, Note_on_c, 0, 86, 71
2, 6960, Note_on_c, 0, 86, 0
2, 6960, Note_on_c, 0, 74, 63
2, 7200, Note_on_c, 0, 74, 0
2, 7200, Note_on_c, 0, 76, 68
2, 7440, Note_on_c, 0, 76, 0
2, 7440, Note_on_c, 0, 84, 63
2, 7680, Note_on_c, 0, 84, 0
2, 7680, Note_on_c, 0, 76, 58
2, 7920, Note_on_c, 0, 76, 0
2, 7920, Note_on_c, 0, 74, 58
2, 8160, Note_on_c, 0, 74, 0
2, 8640, Note_on_c, 0, 72, 51
2, 8880, Note_on_c, 0, 72, 0
2, 8880, Note_on_c, 0, 81, 45
2, 9120, Note_on_c, 0, 81, 0
2, 9120, Note_on_c, 0, 72, 45
2, 9360, Note_on_c, 0, 72, 0
2, 9360, Note_on_c, 0, 71, 52
2, 9480, Note_on_c, 0, 71, 0
2, 9480, Note_on_c, 0, 79, 44
2, 9600, Note_on_c, 0, 79, 0
2, 9600, Note_on_c, 0, 72, 54
2, 9720, Note_on_c, 0, 72, 0
2, 9720, Note_on_c, 0, 79, 44
2, 9840, Note_on_c, 0, 79, 0
2, 9840, Note_on_c, 0, 74, 53
2, 9960, Note_on_c, 0, 74, 0
2, 9960, Note_on_c, 0, 79, 45
2, 10080, Note_on_c, 0, 79, 0
2, 10080, Note_on_c, 0, 72, 56
2, 10200, Note_on_c, 0, 72, 0
2, 10200, Note_on_c, 0, 76, 41
2, 10320, Note_on_c, 0, 76, 0
2, 10320, Note_on_c, 0, 74, 52
2, 10440, Note_on_c, 0, 74, 0
2, 10440, Note_on_c, 0, 72, 42
2, 10560, Note_on_c, 0, 72, 0
2, 10560, Note_on_c, 0, 71, 49
2, 10680, Note_on_c, 0, 71, 0
2, 10680, Note_on_c, 0, 69, 40
2, 10800, Note_on_c, 0, 69, 0
2, 10800, Note_on_c, 0, 67, 49
2, 11040, Note_on_c, 0, 67, 0
2, 11520, Note_on_c, 0, 66, 56
2, 11640, Note_on_c, 0, 66, 0
2, 11640, Note_on_c, 0, 62, 48
2, 11760, Note_on_c, 0, 62, 0
2, 11760, Note_on_c, 0, 66, 56
2, 11880, Note_on_c, 0, 66, 0
2, 11880, Note_on_c, 0, 62, 47
2, 12000, Note_on_c, 0, 62, 0
2, 12000, Note_on_c, 0, 66, 56
2, 12120, Note_on_c, 0, 66, 0
2, 12120, Note_on_c, 0, 62, 49
2, 12240, Note_on_c, 0, 62, 0
2, 12240, Note_on_c, 0, 67, 56
2, 12360, Note_on_c, 0, 67, 0
2, 12360, Note_on_c, 0, 62, 50
2, 12480, Note_on_c, 0, 62, 0
2, 12480, Note_on_c, 0, 69, 59
2, 12600, Note_on_c, 0, 69, 0
2, 12600, Note_on_c, 0, 62, 54
2, 12720, Note_on_c, 0, 62, 0
2, 12720, Note_on_c, 0, 71, 62
2, 12840, Note_on_c, 0, 71, 0
2, 12840, Note_on_c, 0, 62, 55
2, 12960, Note_on_c, 0, 62, 0
2, 12960, Note_on_c, 0, 72, 65
2, 13080, Note_on_c, 0, 72, 0
2, 13080, Note_on_c, 0, 62, 56
2, 13200, Note_on_c, 0, 62, 0
2, 13200, Note_on_c, 0, 72, 64
2, 13320, Note_on_c, 0, 72, 0
2, 13320, Note_on_c, 0, 62, 56
2, 13440, Note_on_c, 0, 62, 0
2, 13440, Note_on_c, 0, 71, 63
2, 13560, Note_on_c, 0, 71, 0
2, 13560, Note_on_c, 0, 62, 53
2, 13680, Note_on_c, 0, 62, 0
2, 13680, Note_on_c, 0, 69, 61
2, 13800, Note_on_c, 0, 69, 0
2, 13800, Note_on_c, 0, 74, 47
2, 13920, Note_on_c, 0, 74, 0
2, 13920, Note_on_c, 0, 66, 59
2, 14040, Note_on_c, 0, 66, 0
2, 14040, Note_on_c, 0, 69, 44
2, 14160, Note_on_c, 0, 69, 0
2, 14160, Note_on_c, 0, 62, 54
2, 14398, Note_on_c, 0, 62, 0
2, 14400, Note_on_c, 0, 66, 70
2, 14520, Note_on_c, 0, 66, 0
2, 14520, Note_on_c, 0, 74, 59
2, 14640, Note_on_c, 0, 74, 0
2, 14640, Note_on_c, 0, 66, 70
2, 14760, Note_on_c, 0, 66, 0
2, 14760, Note_on_c, 0, 74, 58
2, 14880, Note_on_c, 0, 74, 0
2, 14880, Note_on_c, 0, 66, 70
2, 15000, Note_on_c, 0, 66, 0
2, 15000, Note_on_c, 0, 74, 56
2, 15120, Note_on_c, 0, 74, 0
2, 15120, Note_on_c, 0, 67, 71
2, 15240, Note_on_c, 0, 67, 0
2, 15240, Note_on_c, 0, 74, 63
2, 15360, Note_on_c, 0, 74, 0
2, 15360, Note_on_c, 0, 69, 73
2, 15480, Note_on_c, 0, 69, 0
2, 15480, Note_on_c, 0, 74, 62
2, 15600, Note_on_c, 0, 74, 0
2, 15600, Note_on_c, 0, 71, 78
2, 15720, Note_on_c, 0, 71, 0
2, 15720, Note_on_c, 0, 74, 75
2, 15840, Note_on_c, 0, 74, 0
2, 15840, Note_on_c, 0, 72, 80
2, 15960, Note_on_c, 0, 72, 0
2, 15960, Note_on_c, 0, 74, 71
2, 16080, Note_on_c, 0, 74, 0
2, 16080, Note_on_c, 0, 72, 75
2, 16200, Note_on_c, 0, 72, 0
2, 16200, Note_on_c, 0, 74, 64
2, 16320, Note_on_c, 0, 74, 0
2, 16320, Note_on_c, 0, 71, 72
2, 16440, Note_on_c, 0, 71, 0
2, 16440, Note_on_c, 0, 74, 60
2, 16560, Note_on_c, 0, 74, 0
2, 16560, Note_on_c, 0, 69, 70
2, 16680, Note_on_c, 0, 69, 0
2, 16680, Note_on_c, 0, 74, 54
2, 16800, Note_on_c, 0, 74, 0
2, 16800, Note_on_c, 0, 66, 67
2, 16920, Note_on_c, 0, 66, 0
2, 16920, Note_on_c, 0, 69, 50
2, 17040, Note_on_c, 0, 69, 0
2, 17040, Note_on_c, 0, 62, 62
2, 17280, Note_on_c, 0, 62, 0
2, 17280, Note_on_c, 0, 74, 50
2, 17520, Note_on_c, 0, 74, 0
2, 17520, Note_on_c, 0, 79, 52
2, 17760, Note_on_c, 0, 79, 0
2, 17760, Note_on_c, 0, 83, 54
2, 18000, Note_on_c, 0, 83, 0
2, 18000, Note_on_c, 0, 86, 56
2, 18480, Note_on_c, 0, 86, 0
2, 18480, Note_on_c, 0, 74, 50
2, 18720, Note_on_c, 0, 74, 0
2, 18720, Note_on_c, 0, 76, 54
2, 18960, Note_on_c, 0, 76, 0
2, 18960, Note_on_c, 0, 84, 50
2, 19200, Note_on_c, 0, 84, 0
2, 19200, Note_on_c, 0, 76, 46
2, 19440, Note_on_c, 0, 76, 0
2, 19440, Note_on_c, 0, 74, 46
2, 19680, Note_on_c, 0, 74, 0
2, 20160, Note_on_c, 0, 72, 68
2, 20400, Note_on_c, 0, 72, 0
2, 20400, Note_on_c, 0, 81, 60
2, 20640, Note_on_c, 0, 81, 0
2, 20640, Note_on_c, 0, 72, 60
2, 20880, Note_on_c, 0, 72, 0
2, 20880, Note_on_c, 0, 71, 70
2, 21000, Note_on_c, 0, 71, 0
2, 21000, Note_on_c, 0, 79, 59
2, 21120, Note_on_c, 0, 79, 0
2, 21120, Note_on_c, 0, 72, 72
2, 21240, Note_on_c, 0, 72, 0
2, 21240, Note_on_c, 0, 79, 59
2, 21360, Note_on_c, 0, 79, 0
2, 21360, Note_on_c, 0, 74, 71
2, 21480, Note_on_c, 0, 74, 0
2, 21480, Note_on_c, 0, 79, 60
2, 21600, Note_on_c, 0, 79, 0
2, 21600, Note_on_c, 0, 72, 75
2, 21720, Note_on_c, 0, 72, 0
2, 21720, Note_on_c, 0, 76, 64
2, 21840, Note_on_c, 0, 76, 0
2, 21840, Note_on_c, 0, 74, 70
2, 21960, Note_on_c, 0, 74, 0
2, 21960, Note_on_c, 0, 72, 62
2, 22080, Note_on_c, 0, 72, 0
2, 22080, Note_on_c, 0, 71, 66
2, 22200, Note_on_c, 0, 71, 0
2, 22200, Note_on_c, 0, 69, 59
2, 22320, Note_on_c, 0, 69, 0
2, 22320, Note_on_c, 0, 67, 74
2, 22560, Note_on_c, 0, 67, 0
2, 23040, Note_on_c, 0, 66, 56
2, 23160, Note_on_c, 0, 66, 0
2, 23160, Note_on_c, 0, 62, 48
2, 23280, Note_on_c, 0, 62, 0
2, 23280, Note_on_c, 0, 66, 56
2, 23400, Note_on_c, 0, 66, 0
2, 23400, Note_on_c, 0, 62, 47
2, 23520, Note_on_c, 0, 62, 0
2, 23520, Note_on_c, 0, 66, 56
2, 23640, Note_on_c, 0, 66, 0
2, 23640, Note_on_c, 0, 62, 49
2, 23760, Note_on_c, 0, 62, 0
2, 23760, Note_on_c, 0, 67, 56
2, 23880, Note_on_c, 0, 67, 0
2, 23880, Note_on_c, 0, 62, 50
2, 24000, Note_on_c, 0, 62, 0
2, 24000, Note_on_c, 0, 69, 59
2, 24120, Note_on_c, 0, 69, 0
2, 24120, Note_on_c, 0, 62, 54
2, 24240, Note_on_c, 0, 62, 0
2, 24240, Note_on_c, 0, 71, 62
2, 24360, Note_on_c, 0, 71, 0
2, 24360, Note_on_c, 0, 62, 55
2, 24480, Note_on_c, 0, 62, 0
2, 24480, Note_on_c, 0, 72, 65
2, 24600, Note_on_c, 0, 72, 0
2, 24600, Note_on_c, 0, 62, 56
2, 24720, Note_on_c, 0, 62, 0
2, 24720, Note_on_c, 0, 72, 64
2, 24840, Note_on_c, 0, 72, 0
2, 24840, Note_on_c, 0, 62, 56
2, 24960, Note_on_c, 0, 62, 0
2, 24960, Note_on_c, 0, 71, 63
2, 25080, Note_on_c, 0, 71, 0
2, 25080, Note_on_c, 0, 62, 53
2, 25200, Note_on_c, 0, 62, 0
2, 25200, Note_on_c, 0, 69, 61
2, 25320, Note_on_c, 0, 69, 0
2, 25320, Note_on_c, 0, 74, 47
2, 25440, Note_on_c, 0, 74, 0
2, 25440, Note_on_c, 0, 66, 59
2, 25560, Note_on_c, 0, 66, 0
2, 25560, Note_on_c, 0, 69, 44
2, 25680, Note_on_c, 0, 69, 0
2, 25680, Note_on_c, 0, 62, 54
2, 25918, Note_on_c, 0, 62, 0
2, 25920, Note_on_c, 0, 66, 70
2, 26040, Note_on_c, 0, 66, 0
2, 26040, Note_on_c, 0, 74, 59
2, 26160, Note_on_c, 0, 74, 0
2, 26160, Note_on_c, 0, 66, 70
2, 26280, Note_on_c, 0, 66, 0
2, 26280, Note_on_c, 0, 74, 58
2, 26400, Note_on_c, 0, 74, 0
2, 26400, Note_on_c, 0, 66, 70
2, 26520, Note_on_c, 0, 66, 0
2, 26520, Note_on_c, 0, 74, 56
2, 26640, Note_on_c, 0, 74, 0
2, 26640, Note_on_c, 0, 67, 71
2, 26760, Note_on_c, 0, 67, 0
2, 26760, Note_on_c, 0, 74, 63
2, 26880, Note_on_c, 0, 74, 0
2, 26880, Note_on_c, 0, 69, 73
2, 27000, Note_on_c, 0, 69, 0
2, 27000, Note_on_c, 0, 74, 62
2, 27120, Note_on_c, 0, 74, 0
2, 27120, Note_on_c, 0, 71, 78
2, 27240, Note_on_c, 0, 71, 0
2, 27240, Note_on_c, 0, 74, 75
2, 27360, Note_on_c, 0, 74, 0
2, 27360, Note_on_c, 0, 72, 80
2, 27480, Note_on_c, 0, 72, 0
2, 27480, Note_on_c, 0, 74, 71
2, 27600, Note_on_c, 0, 74, 0
2, 27600, Note_on_c, 0, 72, 75
2, 27720, Note_on_c, 0, 72, 0
2, 27720, Note_on_c, 0, 74, 64
2, 27840, Note_on_c, 0, 74, 0
2, 27840, Note_on_c, 0, 71, 72
2, 27960, Note_on_c, 0, 71, 0
2, 27960, Note_on_c, 0, 74, 60
2, 28080, Note_on_c, 0, 74, 0
2, 28080, Note_on_c, 0, 69, 70
2, 28200, Note_on_c, 0, 69, 0
2, 28200, Note_on_c, 0, 74, 54
2, 28320, Note_on_c, 0, 74, 0
2, 28320, Note_on_c, 0, 66, 67
2, 28440, Note_on_c, 0, 66, 0
2, 28440, Note_on_c, 0, 69, 50
2, 28560, Note_on_c, 0, 69, 0
2, 28560, Note_on_c, 0, 62, 62
2, 28800, Note_on_c, 0, 62, 0
2, 28800, Note_on_c, 0, 74, 50
2, 29040, Note_on_c, 0, 74, 0
2, 29040, Note_on_c, 0, 79, 52
2, 29280, Note_on_c, 0, 79, 0
2, 29280, Note_on_c, 0, 83, 54
2, 29520, Note_on_c, 0, 83, 0
2, 29520, Note_on_c, 0, 86, 56
2, 30000, Note_on_c, 0, 86, 0
2, 30000, Note_on_c, 0, 74, 50
2, 30240, Note_on_c, 0, 74, 0
2, 30240, Note_on_c, 0, 76, 54
2, 30480, Note_on_c, 0, 76, 0
2, 30480, Note_on_c, 0, 84, 50
2, 30720, Note_on_c, 0, 84, 0
2, 30720, Note_on_c, 0, 76, 46
2, 30960, Note_on_c, 0, 76, 0
2, 30960, Note_on_c, 0, 74, 46
2, 31200, Note_on_c, 0, 74, 0
2, 31680, Note_on_c, 0, 72, 68
2, 31920, Note_on_c, 0, 72, 0
2, 31920, Note_on_c, 0, 81, 60
2, 32160, Note_on_c, 0, 81, 0
2, 32160, Note_on_c, 0, 72, 60
2, 32400, Note_on_c, 0, 72, 0
2, 32400, Note_on_c, 0, 71, 70
2, 32520, Note_on_c, 0, 71, 0
2, 32520, Note_on_c, 0, 79, 59
2, 32640, Note_on_c, 0, 79, 0
2, 32640, Note_on_c, 0, 72, 72
2, 32760, Note_on_c, 0, 72, 0
2, 32760, Note_on_c, 0, 79, 59
2, 32880, Note_on_c, 0, 79, 0
2, 32880, Note_on_c, 0, 74, 71
2, 33000, Note_on_c, 0, 74, 0
2, 33000, Note_on_c, 0, 79, 60
2, 33120, Note_on_c, 0, 79, 0
2, 33120, Note_on_c, 0, 72, 75
2, 33240, Note_on_c, 0, 72, 0
2, 33240, Note_on_c, 0, 76, 64
2, 33360, Note_on_c, 0, 76, 0
2, 33360, Note_on_c, 0, 74, 70
2, 33480, Note_on_c, 0, 74, 0
2, 33480, Note_on_c, 0, 72, 62
2, 33600, Note_on_c, 0, 72, 0
2, 33600, Note_on_c, 0, 71, 66
2, 33720, Note_on_c, 0, 71, 0
2, 33720, Note_on_c, 0, 69, 59
2, 33840, Note_on_c, 0, 69, 0
2, 33840, Note_on_c, 0, 67, 74
2, 34080, Note_on_c, 0, 67, 0
2, 34080, End_track
3, 0, Start_track
3, 0, Title_t, "Piano left"
3, 0, Program_c, 0, 0
3, 0, Note_on_c, 0, 67, 40
3, 120, Note_on_c, 0, 67, 0
3, 120, Note_on_c, 0, 71, 36
3, 240, Note_on_c, 0, 71, 0
3, 240, Note_on_c, 0, 67, 41
3, 360, Note_on_c, 0, 67, 0
3, 360, Note_on_c, 0, 71, 38
3, 480, Note_on_c, 0, 71, 0
3, 480, Note_on_c, 0, 67, 43
3, 600, Note_on_c, 0, 67, 0
3, 600, Note_on_c, 0, 71, 39
3, 720, Note_on_c, 0, 71, 0
3, 720, Note_on_c, 0, 67, 45
3, 840, Note_on_c, 0, 67, 0
3, 840, Note_on_c, 0, 71, 40
3, 960, Note_on_c, 0, 71, 0
3, 960, Note_on_c, 0, 67, 45
3, 1080, Note_on_c, 0, 67, 0
3, 1080, Note_on_c, 0, 71, 41
3, 1200, Note_on_c, 0, 71, 0
3, 1200, Note_on_c, 0, 67, 44
3, 1320, Note_on_c, 0, 67, 0
3, 1320, Note_on_c, 0, 71, 38
3, 1440, Note_on_c, 0, 71, 0
3, 1440, Note_on_c, 0, 67, 45
3, 1560, Note_on_c, 0, 67, 0
3, 1560, Note_on_c, 0, 72, 40
3, 1680, Note_on_c, 0, 72, 0
3, 1680, Note_on_c, 0, 67, 45
3, 1800, Note_on_c, 0, 67, 0
3, 1800, Note_on_c, 0, 72, 34
3, 1920, Note_on_c, 0, 72, 0
3, 1920, Note_on_c, 0, 67, 44
3, 2040, Note_on_c, 0, 67, 0
3, 2040, Note_on_c, 0, 72, 34
3, 2160, Note_on_c, 0, 72, 0
3, 2160, Note_on_c, 0, 67, 43
3, 2280, Note_on_c, 0, 67, 0
3, 2280, Note_on_c, 0, 71, 34
3, 2400, Note_on_c, 0, 71, 0
3, 2400, Note_on_c, 0, 67, 38
3, 2520, Note_on_c, 0, 67, 0
3, 2520, Note_on_c, 0, 71, 32
3, 2640, Note_on_c, 0, 71, 0
3, 2640, Note_on_c, 0, 67, 38
3, 2760, Note_on_c, 0, 67, 0
3, 2760, Note_on_c, 0, 71, 32
3, 2880, Note_on_c, 0, 71, 0
3, 2880, Note_on_c, 0, 62, 35
3, 3000, Note_on_c, 0, 62, 0
3, 3000, Note_on_c, 0, 69, 31
3, 3120, Note_on_c, 0, 69, 0
3, 3120, Note_on_c, 0, 62, 35
3, 3240, Note_on_c, 0, 62, 0
3, 3240, Note_on_c, 0, 69, 31
3, 3360, Note_on_c, 0, 69, 0
3, 3360, Note_on_c, 0, 62, 35
3, 3480, Note_on_c, 0, 62, 0
3, 3480, Note_on_c, 0, 69, 31
3, 3600, Note_on_c, 0, 69, 0
3, 3600, Note_on_c, 0, 67, 40
3, 3720, Note_on_c, 0, 67, 0
3, 3840, Note_on_c, 0, 69, 37
3, 3960, Note_on_c, 0, 69, 0
3, 4080, Note_on_c, 0, 71, 41
3, 4200, Note_on_c, 0, 71, 0
3, 4320, Note_on_c, 0, 60, 45
3, 4800, Note_on_c, 0, 60, 0
3, 4800, Note_on_c, 0, 62, 32
3, 5040, Note_on_c, 0, 62, 0
3, 5040, Note_on_c, 0, 55, 37
3, 5280, Note_on_c, 0, 55, 0
3, 5280, Note_on_c, 0, 50, 35
3, 5400, Note_on_c, 0, 50, 0
3, 5520, Note_on_c, 0, 43, 37
3, 5640, Note_on_c, 0, 43, 0
3, 5760, Note_on_c, 0, 67, 40
3, 5880, Note_on_c, 0, 67, 0
3, 5880, Note_on_c, 0, 71, 36
3, 6000, Note_on_c, 0, 71, 0
3, 6000, Note_on_c, 0, 67, 41
3, 6120, Note_on_c, 0, 67, 0
3, 6120, Note_on_c, 0, 71, 38
3, 6240, Note_on_c, 0, 71, 0
3, 6240, Note_on_c, 0, 67, 43
3, 6360, Note_on_c, 0, 67, 0
3, 6360, Note_on_c, 0, 71, 39
3, 6480, Note_on_c, 0, 71, 0
3, 6480, Note_on_c, 0, 67, 45
3, 6600, Note_on_c, 0, 67, 0
3, 6600, Note_on_c, 0, 71, 40
3, 6720, Note_on_c, 0, 71, 0
3, 6720, Note_on_c, 0, 67, 45
3, 6840, Note_on_c, 0, 67, 0
3, 6840, Note_on_c, 0, 71, 41
3, 6960, Note_on_c, 0, 71, 0
3, 6960, Note_on_c, 0, 67, 44
3, 7080, Note_on_c, 0, 67, 0
3, 7080, Note_on_c, 0, 71, 38
3, 7200, Note_on_c, 0, 71, 0
3, 7200, Note_on_c, 0, 67, 45
3, 7320, Note_on_c, 0, 67, 0
3, 7320, Note_on_c, 0, 72, 40
3, 7440, Note_on_c, 0, 72, 0
3, 7440, Note_on_c, 0, 67, 45
3, 7560, Note_on_c, 0, 67, 0
3, 7560, Note_on_c, 0, 72, 38
3, 7680, Note_on_c, 0, 72, 0
3, 7680, Note_on_c, 0, 67, 45
3, 7800, Note_on_c, 0, 67, 0
3, 7800, Note_on_c, 0, 72, 34
3, 7920, Note_on_c, 0, 72, 0
3, 7920, Note_on_c, 0, 67, 44
3, 8040, Note_on_c, 0, 67, 0
3, 8040, Note_on_c, 0, 71, 30
3, 8160, Note_on_c, 0, 71, 0
3, 8160, Note_on_c, 0, 67, 39
3, 8280, Note_on_c, 0, 67, 0
3, 8280, Note_on_c, 0, 71, 32
3, 8400, Note_on_c, 0, 71, 0
3, 8400, Note_on_c, 0, 67, 38
3, 8520, Note_on_c, 0, 67, 0
3, 8520, Note_on_c, 0, 71, 32
3, 8640, Note_on_c, 0, 71, 0
3, 8640, Note_on_c, 0, 62, 35
3, 8760, Note_on_c, 0, 62, 0
3, 8760, Note_on_c, 0, 69, 31
3, 8880, Note_on_c, 0, 69, 0
3, 8880, Note_on_c, 0, 62, 35
3, 9000, Note_on_c, 0, 62, 0
3, 9000, Note_on_c, 0, 69, 31
3, 9120, Note_on_c, 0, 69, 0
3, 9120, Note_on_c, 0, 62, 35
3, 9240, Note_on_c, 0, 62, 0
3, 9240, Note_on_c, 0, 69, 31
3, 9360, Note_on_c, 0, 69, 0
3, 9360, Note_on_c, 0, 67, 40
3, 9480, Note_on_c, 0, 67, 0
3, 9600, Note_on_c, 0, 69, 37
3, 9720, Note_on_c, 0, 69, 0
3, 9840, Note_on_c, 0, 71, 41
3, 9960, Note_on_c, 0, 71, 0
3, 10080, Note_on_c, 0, 60, 45
3, 10560, Note_on_c, 0, 60, 0
3, 10560, Note_on_c, 0, 62, 32
3, 10800, Note_on_c, 0, 62, 0
3, 10800, Note_on_c, 0, 55, 37
3, 11040, Note_on_c, 0, 55, 0
3, 11040, Note_on_c, 0, 50, 35
3, 11160, Note_on_c, 0, 50, 0
3, 11280, Note_on_c, 0, 43, 37
3, 11400, Note_on_c, 0, 43, 0
3, 11520, Note_on_c, 0, 50, 40
3, 12000, Note_on_c, 0, 60, 39
3, 12240, Note_on_c, 0, 60, 0
3, 12240, Note_on_c, 0, 50, 0
3, 12240, Note_on_c, 0, 59, 45
3, 12480, Note_on_c, 0, 59, 0
3, 12480, Note_on_c, 0, 54, 40
3, 12720, Note_on_c, 0, 54, 0
3, 12720, Note_on_c, 0, 55, 42
3, 12960, Note_on_c, 0, 55, 0
3, 12960, Note_on_c, 0, 57, 52
3, 13200, Note_on_c, 0, 57, 0
3, 13200, Note_on_c, 0, 54, 47
3, 13440, Note_on_c, 0, 54, 0
3, 13440, Note_on_c, 0, 55, 47
3, 13680, Note_on_c, 0, 55, 0
3, 13680, Note_on_c, 0, 50, 56
3, 13680, Note_on_c, 0, 54, 56
3, 14160, Note_on_c, 0, 54, 0
3, 14160, Note_on_c, 0, 50, 0
3, 14400, Note_on_c, 0, 62, 67
3, 14400, Note_on_c, 0, 50, 57
3, 14880, Note_on_c, 0, 50, 0
3, 14880, Note_on_c, 0, 62, 0
3, 14880, Note_on_c, 0, 48, 51
3, 14880, Note_on_c, 0, 60, 62
3, 15120, Note_on_c, 0, 60, 0
3, 15120, Note_on_c, 0, 48, 0
3, 15120, Note_on_c, 0, 47, 60
3, 15120, Note_on_c, 0, 59, 72
3, 15360, Note_on_c, 0, 59, 0
3, 15360, Note_on_c, 0, 47, 0
3, 15360, Note_on_c, 0, 45, 54
3, 15360, Note_on_c, 0, 57, 64
3, 15600, Note_on_c, 0, 57, 0
3, 15600, Note_on_c, 0, 45, 0
3, 15600, Note_on_c, 0, 43, 56
3, 15600, Note_on_c, 0, 55, 66
3, 15840, Note_on_c, 0, 55, 0
3, 15840, Note_on_c, 0, 43, 0
3, 15840, Note_on_c, 0, 42, 62
3, 15840, Note_on_c, 0, 54, 73
3, 16320, Note_on_c, 0, 54, 0
3, 16320, Note_on_c, 0, 42, 0
3, 16320, Note_on_c, 0, 43, 49
3, 16320, Note_on_c, 0, 55, 59
3, 16560, Note_on_c, 0, 55, 0
3, 16560, Note_on_c, 0, 43, 0
3, 16560, Note_on_c, 0, 38, 54
3, 16560, Note_on_c, 0, 50, 64
3, 17040, Note_on_c, 0, 50, 0
3, 17040, Note_on_c, 0, 38, 0
3, 17280, Note_on_c, 0, 67, 32
3, 17400, Note_on_c, 0, 67, 0
3, 17400, Note_on_c, 0, 71, 28
3, 17520, Note_on_c, 0, 71, 0
3, 17520, Note_on_c, 0, 67, 32
3, 17640, Note_on_c, 0, 67, 0
3, 17640, Note_on_c, 0, 71, 30
3, 17760, Note_on_c, 0, 71, 0
3, 17760, Note_on_c, 0, 67, 34
3, 17880, Note_on_c, 0, 67, 0
3, 17880, Note_on_c, 0, 71, 31
3, 18000, Note_on_c, 0, 71, 0
3, 18000, Note_on_c, 0, 67, 36
3, 18120, Note_on_c, 0, 67, 0
3, 18120, Note_on_c, 0, 71, 32
3, 18240, Note_on_c, 0, 71, 0
3, 18240, Note_on_c, 0, 67, 36
3, 18360, Note_on_c, 0, 67, 0
3, 18360, Note_on_c, 0, 71, 32
3, 18480, Note_on_c, 0, 71, 0
3, 18480, Note_on_c, 0, 67, 35
3, 18600, Note_on_c, 0, 67, 0
3, 18600, Note_on_c, 0, 71, 30
3, 18720, Note_on_c, 0, 71, 0
3, 18720, Note_on_c, 0, 67, 36
3, 18840, Note_on_c, 0, 67, 0
3, 18840, Note_on_c, 0, 72, 32
3, 18960, Note_on_c, 0, 72, 0
3, 18960, Note_on_c, 0, 67, 36
3, 19080, Note_on_c, 0, 67, 0
3, 19080, Note_on_c, 0, 72, 32
3, 19200, Note_on_c, 0, 72, 0
3, 19200, Note_on_c, 0, 67, 39
3, 19320, Note_on_c, 0, 67, 0
3, 19320, Note_on_c, 0, 72, 34
3, 19440, Note_on_c, 0, 72, 0
3, 19440, Note_on_c, 0, 67, 38
3, 19560, Note_on_c, 0, 67, 0
3, 19560, Note_on_c, 0, 71, 27
3, 19680, Note_on_c, 0, 71, 0
3, 19680, Note_on_c, 0, 67, 32
3, 19800, Note_on_c, 0, 67, 0
3, 19800, Note_on_c, 0, 71, 25
3, 19920, Note_on_c, 0, 71, 0
3, 19920, Note_on_c, 0, 67, 30
3, 20040, Note_on_c, 0, 67, 0
3, 20040, Note_on_c, 0, 71, 25
3, 20160, Note_on_c, 0, 71, 0
3, 20160, Note_on_c, 0, 62, 47
3, 20280, Note_on_c, 0, 62, 0
3, 20280, Note_on_c, 0, 69, 41
3, 20400, Note_on_c, 0, 69, 0
3, 20400, Note_on_c, 0, 62, 47
3, 20520, Note_on_c, 0, 62, 0
3, 20520, Note_on_c, 0, 69, 41
3, 20640, Note_on_c, 0, 69, 0
3, 20640, Note_on_c, 0, 62, 47
3, 20760, Note_on_c, 0, 62, 0
3, 20760, Note_on_c, 0, 69, 41
3, 20880, Note_on_c, 0, 69, 0
3, 20880, Note_on_c, 0, 67, 54
3, 21000, Note_on_c, 0, 67, 0
3, 21120, Note_on_c, 0, 69, 49
3, 21240, Note_on_c, 0, 69, 0
3, 21360, Note_on_c, 0, 71, 55
3, 21480, Note_on_c, 0, 71, 0
3, 21600, Note_on_c, 0, 60, 60
3, 22080, Note_on_c, 0, 60, 0
3, 22080, Note_on_c, 0, 62, 51
3, 22320, Note_on_c, 0, 62, 0
3, 22320, Note_on_c, 0, 55, 57
3, 22560, Note_on_c, 0, 55, 0
3, 22560, Note_on_c, 0, 50, 54
3, 22680, Note_on_c, 0, 50, 0
3, 22800, Note_on_c, 0, 43, 55
3, 22920, Note_on_c, 0, 43, 0
3, 23040, Note_on_c, 0, 50, 40
3, 23520, Note_on_c, 0, 60, 39
3, 23760, Note_on_c, 0, 60, 0
3, 23760, Note_on_c, 0, 50, 0
3, 23760, Note_on_c, 0, 59, 45
3, 24000, Note_on_c, 0, 59, 0
3, 24000, Note_on_c, 0, 54, 40
3, 24240, Note_on_c, 0, 54, 0
3, 24240, Note_on_c, 0, 55, 42
3, 24480, Note_on_c, 0, 55, 0
3, 24480, Note_on_c, 0, 57, 52
3, 24720, Note_on_c, 0, 57, 0
3, 24720, Note_on_c, 0, 54, 47
3, 24960, Note_on_c, 0, 54, 0
3, 24960, Note_on_c, 0, 55, 47
3, 25200, Note_on_c, 0, 55, 0
3, 25200, Note_on_c, 0, 50, 56
3, 25200, Note_on_c, 0, 54, 56
3, 25680, Note_on_c, 0, 54, 0
3, 25680, Note_on_c, 0, 50, 0
3, 25920, Note_on_c, 0, 62, 67
3, 25920, Note_on_c, 0, 50, 57
3, 26400, Note_on_c, 0, 50, 0
3, 26400, Note_on_c, 0, 62, 0
3, 26400, Note_on_c, 0, 48, 51
3, 26400, Note_on_c, 0, 60, 62
3, 26640, Note_on_c, 0, 60, 0
3, 26640, Note_on_c, 0, 48, 0
3, 26640, Note_on_c, 0, 47, 60
3, 26640, Note_on_c, 0, 59, 72
3, 26880, Note_on_c, 0, 59, 0
3, 26880, Note_on_c, 0, 47, 0
3, 26880, Note_on_c, 0, 45, 54
3, 26880, Note_on_c, 0, 57, 64
3, 27120, Note_on_c, 0, 57, 0
3, 27120, Note_on_c, 0, 45, 0
3, 27120, Note_on_c, 0, 43, 56
3, 27120, Note_on_c, 0, 55, 66
3, 27360, Note_on_c, 0, 55, 0
3, 27360, Note_on_c, 0, 43, 0
3, 27360, Note_on_c, 0, 42, 62
3, 27360, Note_on_c, 0, 54, 73
3, 27840, Note_on_c, 0, 54, 0
3, 27840, Note_on_c, 0, 42, 0
3, 27840, Note_on_c, 0, 43, 49
3, 27840, Note_on_c, 0, 55, 59
3, 28080, Note_on_c, 0, 55, 0
3, 28080, Note_on_c, 0, 43, 0
3, 28080, Note_on_c, 0, 38, 54
3, 28080, Note_on_c, 0, 50, 64
3, 28560, Note_on_c, 0, 50, 0
3, 28560, Note_on_c, 0, 38, 0
3, 28800, Note_on_c, 0, 67, 32
3, 28920, Note_on_c, 0, 67, 0
3, 28920, Note_on_c, 0, 71, 28
3, 29040, Note_on_c, 0, 71, 0
3, 29040, Note_on_c, 0, 67, 32
3, 29160, Note_on_c, 0, 67, 0
3, 29160, Note_on_c, 0, 71, 30
3, 29280, Note_on_c, 0, 71, 0
3, 29280, Note_on_c, 0, 67, 34
3, 29400, Note_on_c, 0, 67, 0
3, 29400, Note_on_c, 0, 71, 31
3, 29520, Note_on_c, 0, 71, 0
3, 29520, Note_on_c, 0, 67, 36
3, 29640, Note_on_c, 0, 67, 0
3, 29640, Note_on_c, 0, 71, 32
3, 29760, Note_on_c, 0, 71, 0
3, 29760, Note_on_c, 0, 67, 36
3, 29880, Note_on_c, 0, 67, 0
3, 29880, Note_on_c, 0, 71, 32
3, 30000, Note_on_c, 0, 71, 0
3, 30000, Note_on_c, 0, 67, 35
3, 30120, Note_on_c, 0, 67, 0
3, 30120, Note_on_c, 0, 71, 30
3, 30240, Note_on_c, 0, 71, 0
3, 30240, Note_on_c, 0, 67, 36
3, 30360, Note_on_c, 0, 67, 0
3, 30360, Note_on_c, 0, 72, 32
3, 30480, Note_on_c, 0, 72, 0
3, 30480, Note_on_c, 0, 67, 36
3, 30600, Note_on_c, 0, 67, 0
3, 30600, Note_on_c, 0, 72, 32
3, 30720, Note_on_c, 0, 72, 0
3, 30720, Note_on_c, 0, 67, 39
3, 30840, Note_on_c, 0, 67, 0
3, 30840, Note_on_c, 0, 72, 34
3, 30960, Note_on_c, 0, 72, 0
3, 30960, Note_on_c, 0, 67, 38
3, 31080, Note_on_c, 0, 67, 0
3, 31080, Note_on_c, 0, 71, 27
3, 31200, Note_on_c, 0, 71, 0
3, 31200, Note_on_c, 0, 67, 32
3, 31320, Note_on_c, 0, 67, 0
3, 31320, Note_on_c, 0, 71, 25
3, 31440, Note_on_c, 0, 71, 0
3, 31440, Note_on_c, 0, 67, 30
3, 31560, Note_on_c, 0, 67, 0
3, 31560, Note_on_c, 0, 71, 25
3, 31680, Note_on_c, 0, 71, 0
3, 31680, Note_on_c, 0, 62, 47
3, 31800, Note_on_c, 0, 62, 0
3, 31800, Note_on_c, 0, 69, 41
3, 31920, Note_on_c, 0, 69, 0
3, 31920, Note_on_c, 0, 62, 47
3, 32040, Note_on_c, 0, 62, 0
3, 32040, Note_on_c, 0, 69, 41
3, 32160, Note_on_c, 0, 69, 0
3, 32160, Note_on_c, 0, 62, 47
3, 32280, Note_on_c, 0, 62, 0
3, 32280, Note_on_c, 0, 69, 41
3, 32400, Note_on_c, 0, 69, 0
3, 32400, Note_on_c, 0, 67, 54
3, 32520, Note_on_c, 0, 67, 0
3, 32640, Note_on_c, 0, 69, 49
3, 32760, Note_on_c, 0, 69, 0
3, 32880, Note_on_c, 0, 71, 55
3, 33000, Note_on_c, 0, 71, 0
3, 33120, Note_on_c, 0, 60, 60
3, 33600, Note_on_c, 0, 60, 0
3, 33600, Note_on_c, 0, 62, 51
3, 33840, Note_on_c, 0, 62, 0
3, 33840, Note_on_c, 0, 55, 57
3, 34080, Note_on_c, 0, 55, 0
3, 34080, Note_on_c, 0, 50, 54
3, 34200, Note_on_c, 0, 50, 0
3, 34320, Note_on_c, 0, 43, 55
3, 34560, Note_on_c, 0, 43, 0
3, 34560, End_track
4, 0, Start_track
4, 0, Title_t, "Pedale"
4, 0, Program_c, 0, 0
4, 50, Control_c, 0, 64, 127
4, 1448, Control_c, 0, 64, 0
4, 1560, Control_c, 0, 64, 127
4, 2167, Control_c, 0, 64, 0
4, 2245, Control_c, 0, 64, 127
4, 2880, Control_c, 0, 64, 0
4, 2965, Control_c, 0, 64, 127
4, 3600, Control_c, 0, 64, 0
4, 4320, Control_c, 0, 64, 127
4, 4812, Control_c, 0, 64, 0
4, 4899, Control_c, 0, 64, 127
4, 5040, Control_c, 0, 64, 0
4, 5810, Control_c, 0, 64, 127
4, 7208, Control_c, 0, 64, 0
4, 7320, Control_c, 0, 64, 127
4, 7927, Control_c, 0, 64, 0
4, 8005, Control_c, 0, 64, 127
4, 8640, Control_c, 0, 64, 0
4, 8725, Control_c, 0, 64, 127
4, 9360, Control_c, 0, 64, 0
4, 10080, Control_c, 0, 64, 127
4, 10572, Control_c, 0, 64, 0
4, 10659, Control_c, 0, 64, 127
4, 10800, Control_c, 0, 64, 0
4, 11562, Control_c, 0, 64, 127
4, 12240, Control_c, 0, 64, 0
4, 12318, Control_c, 0, 64, 127
4, 12490, Control_c, 0, 64, 0
4, 12572, Control_c, 0, 64, 127
4, 12734, Control_c, 0, 64, 0
4, 12798, Control_c, 0, 64, 127
4, 12960, Control_c, 0, 64, 0
4, 13024, Control_c, 0, 64, 127
4, 13455, Control_c, 0, 64, 0
4, 13518, Control_c, 0, 64, 127
4, 13680, Control_c, 0, 64, 0
4, 13786, Control_c, 0, 64, 127
4, 14400, Control_c, 0, 64, 0
4, 14492, Control_c, 0, 64, 127
4, 15120, Control_c, 0, 64, 0
4, 15198, Control_c, 0, 64, 127
4, 15370, Control_c, 0, 64, 0
4, 15452, Control_c, 0, 64, 127
4, 15614, Control_c, 0, 64, 0
4, 15678, Control_c, 0, 64, 127
4, 15840, Control_c, 0, 64, 0
4, 15904, Control_c, 0, 64, 127
4, 16335, Control_c, 0, 64, 0
4, 16398, Control_c, 0, 64, 127
4, 16560, Control_c, 0, 64, 0
4, 16666, Control_c, 0, 64, 127
4, 17280, Control_c, 0, 64, 0
4, 17365, Control_c, 0, 64, 127
4, 18728, Control_c, 0, 64, 0
4, 18840, Control_c, 0, 64, 127
4, 19447, Control_c, 0, 64, 0
4, 19525, Control_c, 0, 64, 127
4, 20160, Control_c, 0, 64, 0
4, 20245, Control_c, 0, 64, 127
4, 20880, Control_c, 0, 64, 0
4, 21600, Control_c, 0, 64, 127
4, 22092, Control_c, 0, 64, 0
4, 22179, Control_c, 0, 64, 127
4, 22320, Control_c, 0, 64, 0
4, 23082, Control_c, 0, 64, 127
4, 23760, Control_c, 0, 64, 0
4, 23838, Control_c, 0, 64, 127
4, 24010, Control_c, 0, 64, 0
4, 24092, Control_c, 0, 64, 127
4, 24254, Control_c, 0, 64, 0
4, 24318, Control_c, 0, 64, 127
4, 24480, Control_c, 0, 64, 0
4, 24544, Control_c, 0, 64, 127
4, 24975, Control_c, 0, 64, 0
4, 25038, Control_c, 0, 64, 127
4, 25200, Control_c, 0, 64, 0
4, 25306, Control_c, 0, 64, 127
4, 25920, Control_c, 0, 64, 0
4, 26012, Control_c, 0, 64, 127
4, 26640, Control_c, 0, 64, 0
4, 26718, Control_c, 0, 64, 127
4, 26890, Control_c, 0, 64, 0
4, 26972, Control_c, 0, 64, 127
4, 27134, Control_c, 0, 64, 0
4, 27198, Control_c, 0, 64, 127
4, 27360, Control_c, 0, 64, 0
4, 27424, Control_c, 0, 64, 127
4, 27855, Control_c, 0, 64, 0
4, 27918, Control_c, 0, 64, 127
4, 28080, Control_c, 0, 64, 0
4, 28186, Control_c, 0, 64, 127
4, 28800, Control_c, 0, 64, 0
4, 28899, Control_c, 0, 64, 127
4, 30248, Control_c, 0, 64, 0
4, 30360, Control_c, 0, 64, 127
4, 30967, Control_c, 0, 64, 0
4, 31045, Control_c, 0, 64, 127
4, 31680, Control_c, 0, 64, 0
4, 31765, Control_c, 0, 64, 127
4, 32400, Control_c, 0, 64, 0
4, 33120, Control_c, 0, 64, 127
4, 33612, Control_c, 0, 64, 0
4, 33699, Control_c, 0, 64, 127
4, 33840, Control_c, 0, 64, 0
4, 33840, End_track
5, 0, Start_track
5, 0, Title_t, "Haydn: Sonata Hoboken XVI:8 4. movement"
5, 0, End_track
6, 0, Start_track
6, 0, Title_t, "Copyright © 2009 by Bernd Krueger"
6, 0, End_track
7, 0, Start_track
7, 0, Title_t, "http://www.piano-midi.de/"
7, 0, End_track
8, 0, Start_track
8, 0, Title_t, "Edition: 2011-11-16"
8, 0, End_track
9, 0, Start_track
9, 0, Title_t, "Spur 8"
9, 0, End_track
10, 0, Start_track
10, 0, Title_t, "Spur 9"
10, 0, End_track
11, 0, Start_track
11, 0, Title_t, "Spur 10"
11, 0, End_track
12, 0, Start_track
12, 0, Title_t, "Spur 11"
12, 0, End_track
13, 0, Start_track
13, 0, Title_t, "Spur 12"
13, 0, End_track
14, 0, Start_track
14, 0, Title_t, "Spur 13"
14, 0, End_track
15, 0, Start_track
15, 0, Title_t, "Spur 14"
15, 0, End_track
16, 0, Start_track
16, 0, Title_t, "Spur 15"
16, 0, End_track
17, 0, Start_track
17, 0, Title_t, "Spur 16"
17, 0, End_track
0, 0, End_of_file
