0, 0, Header, 1, 17, 480
1, 0, Start_track
1, 0, Title_t, "Haydn: Klaviersonate Hob. XVI:7, 3. Satz"
1, 0, Title_t, "Finale"
1, 0, Copyright_t, "Copyright © 2011 by Bernd Krueger"
1, 0, Text_t, "Bernd Krueger"
1, 0, Text_t, "Allegro"
1, 0, Text_t, "Erstellt: 28.10.2011\012"
1, 0, Text_t, "Dauer: 1:31 Minuten\012"
1, 0, Time_signature, 3, 3, 12, 8
1, 0, Key_signature, 0, "major"
1, 0, Tempo, 530786
1, 0, Marker_t, "Teil 1"
1, 640, Tempo, 595652
1, 720, Tempo, 529895
1, 1120, Tempo, 581226
1, 1200, Tempo, 529895
1, 1440, Tempo, 541859
1, 1920, Tempo, 529895
1, 2160, Tempo, 529895
1, 2400, Tempo, 527565
1, 2880, Tempo, 527565
1, 3360, Tempo, 534616
1, 4080, Tempo, 546797
1, 4240, Tempo, 601624
1, 4320, Tempo, 534616
1, 4960, Tempo, 581226
1, 5040, Tempo, 534616
1, 5520, Tempo, 559545
1, 5760, Tempo, 534616
1, 6480, Tempo, 529895
1, 7200, Tempo, 534616
1, 7680, Tempo, 544316
1, 7920, Tempo, 534616
1, 8560, Tempo, 636740
1, 8640, Tempo, 537009
1, 9280, Tempo, 589797
1, 9360, Tempo, 529895
1, 10000, Tempo, 584055
1, 10080, Tempo, 529895
1, 10720, Tempo, 672420
1, 10800, Tempo, 564812
1, 11040, Tempo, 525256
1, 11280, Tempo, 541859
1, 11440, Tempo, 586912
1, 11520, Tempo, 532245
1, 12160, Tempo, 586912
1, 12240, Tempo, 575650
1, 12880, Tempo, 633379
1, 12960, Tempo, 537009
1, 13600, Tempo, 607718
1, 13680, Tempo, 529895
1, 14320, Tempo, 564812
1, 14400, Tempo, 522967
1, 15040, Tempo, 643570
1, 15120, Tempo, 589797
1, 15360, Tempo, 509641
1, 15600, Tempo, 534616
1, 16320, Tempo, 549300
1, 16480, Tempo, 607718
1, 16560, Tempo, 581226
1, 17040, Tempo, 601624
1, 17280, Tempo, 586912
1, 17520, Tempo, 620283
1, 17760, Tempo, 712335
1, 18000, Tempo, 530786
1, 18000, Marker_t, "Teil 1 Wiederholung"
1, 18640, Tempo, 595652
1, 18720, Tempo, 529895
1, 19120, Tempo, 581226
1, 19200, Tempo, 529895
1, 19440, Tempo, 537009
1, 20160, Tempo, 529895
1, 20400, Tempo, 527565
1, 20880, Tempo, 527565
1, 21360, Tempo, 534616
1, 21600, Tempo, 544316
1, 22080, Tempo, 546797
1, 22240, Tempo, 601624
1, 22320, Tempo, 534616
1, 22960, Tempo, 581226
1, 23040, Tempo, 534616
1, 23520, Tempo, 546797
1, 23760, Tempo, 534616
1, 24480, Tempo, 529895
1, 25200, Tempo, 534616
1, 25680, Tempo, 544316
1, 25920, Tempo, 534616
1, 26560, Tempo, 636740
1, 26640, Tempo, 537009
1, 27280, Tempo, 589797
1, 27360, Tempo, 529895
1, 28000, Tempo, 584055
1, 28080, Tempo, 529895
1, 28720, Tempo, 672420
1, 28800, Tempo, 564812
1, 29040, Tempo, 525256
1, 29280, Tempo, 541859
1, 29440, Tempo, 586912
1, 29520, Tempo, 532245
1, 30160, Tempo, 586912
1, 30240, Tempo, 575650
1, 30720, Tempo, 598623
1, 30880, Tempo, 633379
1, 30960, Tempo, 537009
1, 31600, Tempo, 607718
1, 31680, Tempo, 529895
1, 31920, Tempo, 525256
1, 32320, Tempo, 564812
1, 32400, Tempo, 522967
1, 32640, Tempo, 520698
1, 33040, Tempo, 643570
1, 33120, Tempo, 589797
1, 33360, Tempo, 509641
1, 33600, Tempo, 534616
1, 34320, Tempo, 549300
1, 34480, Tempo, 607718
1, 34560, Tempo, 581226
1, 35040, Tempo, 607718
1, 35280, Tempo, 589797
1, 35520, Tempo, 613936
1, 35760, Tempo, 708132
1, 36000, Tempo, 530786
1, 36000, Marker_t, "Teil 2"
1, 36640, Tempo, 595652
1, 36720, Tempo, 529895
1, 36960, Tempo, 539423
1, 37080, Tempo, 559545
1, 37120, Tempo, 554375
1, 37200, Tempo, 539423
1, 37360, Tempo, 607718
1, 37440, Tempo, 541859
1, 37840, Tempo, 592710
1, 37920, Tempo, 539423
1, 38160, Tempo, 532245
1, 38400, Tempo, 527565
1, 38480, Tempo, 556948
1, 38560, Tempo, 650548
1, 38640, Tempo, 546797
1, 38880, Tempo, 537009
1, 39120, Tempo, 544316
1, 39360, Tempo, 551826
1, 39480, Tempo, 546797
1, 39520, Tempo, 534616
1, 39600, Tempo, 544316
1, 40200, Tempo, 610811
1, 40320, Tempo, 541859
1, 40560, Tempo, 527565
1, 40960, Tempo, 595652
1, 41040, Tempo, 529895
1, 41440, Tempo, 554375
1, 41520, Tempo, 537009
1, 41680, Tempo, 607718
1, 41760, Tempo, 544316
1, 42160, Tempo, 592710
1, 42240, Tempo, 541859
1, 42480, Tempo, 537009
1, 42720, Tempo, 527565
1, 42800, Tempo, 556948
1, 42840, Tempo, 567483
1, 42880, Tempo, 650548
1, 42960, Tempo, 556948
1, 43200, Tempo, 549300
1, 43680, Tempo, 564812
1, 43800, Tempo, 554375
1, 43840, Tempo, 549300
1, 43920, Tempo, 556948
1, 44400, Tempo, 575650
1, 44560, Tempo, 738643
1, 44640, Tempo, 570180
1, 44880, Tempo, 534616
1, 45280, Tempo, 581226
1, 45360, Tempo, 534616
1, 45840, Tempo, 562166
1, 46080, Tempo, 539423
1, 46800, Tempo, 529895
1, 47520, Tempo, 534616
1, 48000, Tempo, 544316
1, 48240, Tempo, 537009
1, 48880, Tempo, 589797
1, 48960, Tempo, 529895
1, 49600, Tempo, 584055
1, 49680, Tempo, 529895
1, 50320, Tempo, 672420
1, 50400, Tempo, 564812
1, 50640, Tempo, 525256
1, 50880, Tempo, 541859
1, 51040, Tempo, 586912
1, 51120, Tempo, 532245
1, 51760, Tempo, 586912
1, 51840, Tempo, 575650
1, 52480, Tempo, 633379
1, 52560, Tempo, 537009
1, 53200, Tempo, 607718
1, 53280, Tempo, 529895
1, 53920, Tempo, 564812
1, 54000, Tempo, 522967
1, 54640, Tempo, 643570
1, 54720, Tempo, 589797
1, 54960, Tempo, 509641
1, 55200, Tempo, 534616
1, 55920, Tempo, 549300
1, 56080, Tempo, 607718
1, 56160, Tempo, 581226
1, 56640, Tempo, 601624
1, 56880, Tempo, 617093
1, 57120, Tempo, 661303
1, 57600, Tempo, 530786
1, 57600, Marker_t, "Teil 2 Wiederholung"
1, 58240, Tempo, 595652
1, 58320, Tempo, 529895
1, 58680, Tempo, 567483
1, 58720, Tempo, 554375
1, 58800, Tempo, 549300
1, 58960, Tempo, 607718
1, 59040, Tempo, 544316
1, 59440, Tempo, 592710
1, 59520, Tempo, 546797
1, 59760, Tempo, 541859
1, 60000, Tempo, 527565
1, 60080, Tempo, 556948
1, 60160, Tempo, 650548
1, 60240, Tempo, 544316
1, 60480, Tempo, 532245
1, 60720, Tempo, 541859
1, 60960, Tempo, 549300
1, 61080, Tempo, 544316
1, 61120, Tempo, 534616
1, 61200, Tempo, 544316
1, 61800, Tempo, 610811
1, 61920, Tempo, 541859
1, 62160, Tempo, 527565
1, 62560, Tempo, 595652
1, 62640, Tempo, 529895
1, 63000, Tempo, 575650
1, 63120, Tempo, 544316
1, 63280, Tempo, 607718
1, 63360, Tempo, 539423
1, 63760, Tempo, 592710
1, 63840, Tempo, 541859
1, 64080, Tempo, 529895
1, 64320, Tempo, 527565
1, 64400, Tempo, 556948
1, 64440, Tempo, 567483
1, 64480, Tempo, 650548
1, 64560, Tempo, 556948
1, 64800, Tempo, 546797
1, 65280, Tempo, 559545
1, 65440, Tempo, 549300
1, 65520, Tempo, 554375
1, 66000, Tempo, 575650
1, 66160, Tempo, 738643
1, 66240, Tempo, 570180
1, 66480, Tempo, 534616
1, 66880, Tempo, 581226
1, 66960, Tempo, 534616
1, 67440, Tempo, 564812
1, 67680, Tempo, 544316
1, 68400, Tempo, 529895
1, 69120, Tempo, 534616
1, 69600, Tempo, 544316
1, 69840, Tempo, 537009
1, 70480, Tempo, 589797
1, 70560, Tempo, 529895
1, 71200, Tempo, 584055
1, 71280, Tempo, 529895
1, 71920, Tempo, 672420
1, 72000, Tempo, 564812
1, 72240, Tempo, 525256
1, 72480, Tempo, 541859
1, 72640, Tempo, 586912
1, 72720, Tempo, 532245
1, 73360, Tempo, 586912
1, 73440, Tempo, 575650
1, 74080, Tempo, 633379
1, 74160, Tempo, 537009
1, 74800, Tempo, 607718
1, 74880, Tempo, 529895
1, 75520, Tempo, 564812
1, 75600, Tempo, 522967
1, 76240, Tempo, 643570
1, 76320, Tempo, 589797
1, 76560, Tempo, 509641
1, 76800, Tempo, 534616
1, 77520, Tempo, 549300
1, 77640, Tempo, 640137
1, 77760, Tempo, 595652
1, 78240, Tempo, 613936
1, 78480, Tempo, 691802
1, 78720, Tempo, 661303
1, 78720, End_track
2, 0, Start_track
2, 0, Title_t, "Piano right"
2, 0, Program_c, 0, 0
2, 0, Note_on_c, 0, 72, 60
2, 480, Note_on_c, 0, 72, 0
2, 480, Note_on_c, 0, 76, 55
2, 560, Note_on_c, 0, 76, 0
2, 560, Note_on_c, 0, 74, 49
2, 640, Note_on_c, 0, 74, 0
2, 640, Note_on_c, 0, 72, 49
2, 720, Note_on_c, 0, 72, 0
2, 720, Note_on_c, 0, 79, 60
2, 1200, Note_on_c, 0, 79, 0
2, 1200, Note_on_c, 0, 77, 52
2, 1440, Note_on_c, 0, 77, 0
2, 1440, Note_on_c, 0, 76, 60
2, 1920, Note_on_c, 0, 76, 0
2, 1920, Note_on_c, 0, 76, 60
2, 2040, Note_on_c, 0, 76, 0
2, 2040, Note_on_c, 0, 67, 40
2, 2160, Note_on_c, 0, 67, 0
2, 2160, Note_on_c, 0, 74, 60
2, 2280, Note_on_c, 0, 74, 0
2, 2280, Note_on_c, 0, 67, 35
2, 2400, Note_on_c, 0, 67, 0
2, 2400, Note_on_c, 0, 74, 60
2, 2520, Note_on_c, 0, 74, 0
2, 2520, Note_on_c, 0, 67, 39
2, 2640, Note_on_c, 0, 67, 0
2, 2640, Note_on_c, 0, 76, 61
2, 2760, Note_on_c, 0, 76, 0
2, 2760, Note_on_c, 0, 67, 38
2, 2880, Note_on_c, 0, 67, 0
2, 2880, Note_on_c, 0, 77, 63
2, 3000, Note_on_c, 0, 77, 0
2, 3000, Note_on_c, 0, 67, 37
2, 3120, Note_on_c, 0, 67, 0
2, 3120, Note_on_c, 0, 76, 60
2, 3240, Note_on_c, 0, 76, 0
2, 3240, Note_on_c, 0, 67, 38
2, 3360, Note_on_c, 0, 67, 0
2, 3360, Note_on_c, 0, 74, 58
2, 3480, Note_on_c, 0, 74, 0
2, 3480, Note_on_c, 0, 67, 38
2, 3600, Note_on_c, 0, 67, 0
2, 3600, Note_on_c, 0, 76, 60
2, 4080, Note_on_c, 0, 76, 0
2, 4080, Note_on_c, 0, 67, 55
2, 4160, Note_on_c, 0, 67, 0
2, 4160, Note_on_c, 0, 69, 55
2, 4240, Note_on_c, 0, 69, 0
2, 4240, Note_on_c, 0, 71, 55
2, 4320, Note_on_c, 0, 71, 0
2, 4320, Note_on_c, 0, 72, 60
2, 4800, Note_on_c, 0, 72, 0
2, 4800, Note_on_c, 0, 76, 55
2, 4880, Note_on_c, 0, 76, 0
2, 4880, Note_on_c, 0, 74, 49
2, 4960, Note_on_c, 0, 74, 0
2, 4960, Note_on_c, 0, 72, 49
2, 5040, Note_on_c, 0, 72, 0
2, 5040, Note_on_c, 0, 79, 60
2, 5520, Note_on_c, 0, 79, 0
2, 5520, Note_on_c, 0, 77, 52
2, 5760, Note_on_c, 0, 77, 0
2, 5760, Note_on_c, 0, 76, 60
2, 6240, Note_on_c, 0, 76, 0
2, 6240, Note_on_c, 0, 76, 60
2, 6360, Note_on_c, 0, 76, 0
2, 6360, Note_on_c, 0, 67, 40
2, 6480, Note_on_c, 0, 67, 0
2, 6480, Note_on_c, 0, 74, 60
2, 6600, Note_on_c, 0, 74, 0
2, 6600, Note_on_c, 0, 67, 35
2, 6720, Note_on_c, 0, 67, 0
2, 6720, Note_on_c, 0, 74, 60
2, 6840, Note_on_c, 0, 74, 0
2, 6840, Note_on_c, 0, 67, 39
2, 6960, Note_on_c, 0, 67, 0
2, 6960, Note_on_c, 0, 76, 61
2, 7080, Note_on_c, 0, 76, 0
2, 7080, Note_on_c, 0, 67, 38
2, 7200, Note_on_c, 0, 67, 0
2, 7200, Note_on_c, 0, 74, 63
2, 7320, Note_on_c, 0, 74, 0
2, 7320, Note_on_c, 0, 67, 37
2, 7440, Note_on_c, 0, 67, 0
2, 7440, Note_on_c, 0, 74, 60
2, 7560, Note_on_c, 0, 74, 0
2, 7560, Note_on_c, 0, 67, 38
2, 7680, Note_on_c, 0, 67, 0
2, 7680, Note_on_c, 0, 72, 58
2, 7800, Note_on_c, 0, 72, 0
2, 7800, Note_on_c, 0, 67, 38
2, 7920, Note_on_c, 0, 67, 0
2, 7920, Note_on_c, 0, 71, 63
2, 8040, Note_on_c, 0, 71, 0
2, 8040, Note_on_c, 0, 74, 51
2, 8160, Note_on_c, 0, 74, 0
2, 8160, Note_on_c, 0, 71, 58
2, 8280, Note_on_c, 0, 71, 0
2, 8280, Note_on_c, 0, 67, 50
2, 8400, Note_on_c, 0, 67, 0
2, 8400, Note_on_c, 0, 69, 57
2, 8520, Note_on_c, 0, 69, 0
2, 8520, Note_on_c, 0, 66, 53
2, 8640, Note_on_c, 0, 66, 0
2, 8640, Note_on_c, 0, 67, 63
2, 9120, Note_on_c, 0, 67, 0
2, 11040, Note_on_c, 0, 84, 63
2, 11120, Note_on_c, 0, 84, 0
2, 11120, Note_on_c, 0, 83, 57
2, 11200, Note_on_c, 0, 83, 0
2, 11200, Note_on_c, 0, 81, 57
2, 11280, Note_on_c, 0, 81, 0
2, 11280, Note_on_c, 0, 79, 63
2, 11360, Note_on_c, 0, 79, 0
2, 11360, Note_on_c, 0, 78, 57
2, 11440, Note_on_c, 0, 78, 0
2, 11440, Note_on_c, 0, 76, 56
2, 11520, Note_on_c, 0, 76, 0
2, 11520, Note_on_c, 0, 74, 63
2, 11640, Note_on_c, 0, 74, 0
2, 11640, Note_on_c, 0, 81, 55
2, 11760, Note_on_c, 0, 81, 0
2, 11760, Note_on_c, 0, 84, 59
2, 11880, Note_on_c, 0, 84, 0
2, 11880, Note_on_c, 0, 81, 52
2, 12000, Note_on_c, 0, 81, 0
2, 12000, Note_on_c, 0, 83, 61
2, 12120, Note_on_c, 0, 83, 0
2, 12120, Note_on_c, 0, 79, 56
2, 12240, Note_on_c, 0, 79, 0
2, 12240, Note_on_c, 0, 81, 63
2, 12480, Note_on_c, 0, 81, 0
2, 12480, Note_on_c, 0, 79, 58
2, 12720, Note_on_c, 0, 79, 0
2, 12720, Note_on_c, 0, 78, 53
2, 12768, Note_on_c, 0, 78, 0
2, 12768, Note_on_c, 0, 79, 48
2, 12816, Note_on_c, 0, 79, 0
2, 12816, Note_on_c, 0, 78, 53
2, 12864, Note_on_c, 0, 78, 0
2, 12864, Note_on_c, 0, 79, 48
2, 12912, Note_on_c, 0, 79, 0
2, 12912, Note_on_c, 0, 78, 48
2, 12960, Note_on_c, 0, 78, 0
2, 12960, Note_on_c, 0, 71, 63
2, 12960, Note_on_c, 0, 74, 63
2, 12960, Note_on_c, 0, 79, 63
2, 13440, Note_on_c, 0, 79, 0
2, 13440, Note_on_c, 0, 74, 0
2, 13440, Note_on_c, 0, 71, 0
2, 15360, Note_on_c, 0, 84, 63
2, 15440, Note_on_c, 0, 84, 0
2, 15440, Note_on_c, 0, 83, 57
2, 15520, Note_on_c, 0, 83, 0
2, 15520, Note_on_c, 0, 81, 57
2, 15600, Note_on_c, 0, 81, 0
2, 15600, Note_on_c, 0, 79, 63
2, 15680, Note_on_c, 0, 79, 0
2, 15680, Note_on_c, 0, 78, 57
2, 15760, Note_on_c, 0, 78, 0
2, 15760, Note_on_c, 0, 76, 56
2, 15840, Note_on_c, 0, 76, 0
2, 15840, Note_on_c, 0, 74, 63
2, 15960, Note_on_c, 0, 74, 0
2, 15960, Note_on_c, 0, 81, 55
2, 16080, Note_on_c, 0, 81, 0
2, 16080, Note_on_c, 0, 84, 59
2, 16200, Note_on_c, 0, 84, 0
2, 16200, Note_on_c, 0, 81, 52
2, 16320, Note_on_c, 0, 81, 0
2, 16320, Note_on_c, 0, 83, 61
2, 16440, Note_on_c, 0, 83, 0
2, 16440, Note_on_c, 0, 79, 56
2, 16560, Note_on_c, 0, 79, 0
2, 16560, Note_on_c, 0, 81, 63
2, 16800, Note_on_c, 0, 81, 0
2, 16800, Note_on_c, 0, 79, 58
2, 17040, Note_on_c, 0, 79, 0
2, 17040, Note_on_c, 0, 78, 53
2, 17088, Note_on_c, 0, 78, 0
2, 17088, Note_on_c, 0, 79, 48
2, 17136, Note_on_c, 0, 79, 0
2, 17136, Note_on_c, 0, 78, 53
2, 17184, Note_on_c, 0, 78, 0
2, 17184, Note_on_c, 0, 79, 48
2, 17232, Note_on_c, 0, 79, 0
2, 17232, Note_on_c, 0, 78, 48
2, 17280, Note_on_c, 0, 78, 0
2, 17280, Note_on_c, 0, 71, 63
2, 17280, Note_on_c, 0, 74, 63
2, 17280, Note_on_c, 0, 79, 63
2, 17760, Note_on_c, 0, 79, 0
2, 17760, Note_on_c, 0, 74, 0
2, 17760, Note_on_c, 0, 71, 0
2, 18000, Note_on_c, 0, 72, 60
2, 18480, Note_on_c, 0, 72, 0
2, 18480, Note_on_c, 0, 76, 55
2, 18560, Note_on_c, 0, 76, 0
2, 18560, Note_on_c, 0, 74, 49
2, 18640, Note_on_c, 0, 74, 0
2, 18640, Note_on_c, 0, 72, 49
2, 18720, Note_on_c, 0, 72, 0
2, 18720, Note_on_c, 0, 79, 60
2, 19200, Note_on_c, 0, 79, 0
2, 19200, Note_on_c, 0, 77, 52
2, 19440, Note_on_c, 0, 77, 0
2, 19440, Note_on_c, 0, 76, 60
2, 19920, Note_on_c, 0, 76, 0
2, 19920, Note_on_c, 0, 76, 60
2, 20040, Note_on_c, 0, 76, 0
2, 20040, Note_on_c, 0, 67, 40
2, 20160, Note_on_c, 0, 67, 0
2, 20160, Note_on_c, 0, 74, 60
2, 20280, Note_on_c, 0, 74, 0
2, 20280, Note_on_c, 0, 67, 35
2, 20400, Note_on_c, 0, 67, 0
2, 20400, Note_on_c, 0, 74, 60
2, 20520, Note_on_c, 0, 74, 0
2, 20520, Note_on_c, 0, 67, 39
2, 20640, Note_on_c, 0, 67, 0
2, 20640, Note_on_c, 0, 76, 61
2, 20760, Note_on_c, 0, 76, 0
2, 20760, Note_on_c, 0, 67, 38
2, 20880, Note_on_c, 0, 67, 0
2, 20880, Note_on_c, 0, 77, 63
2, 21000, Note_on_c, 0, 77, 0
2, 21000, Note_on_c, 0, 67, 37
2, 21120, Note_on_c, 0, 67, 0
2, 21120, Note_on_c, 0, 76, 60
2, 21240, Note_on_c, 0, 76, 0
2, 21240, Note_on_c, 0, 67, 38
2, 21360, Note_on_c, 0, 67, 0
2, 21360, Note_on_c, 0, 74, 58
2, 21480, Note_on_c, 0, 74, 0
2, 21480, Note_on_c, 0, 67, 38
2, 21600, Note_on_c, 0, 67, 0
2, 21600, Note_on_c, 0, 76, 60
2, 22080, Note_on_c, 0, 76, 0
2, 22080, Note_on_c, 0, 67, 55
2, 22160, Note_on_c, 0, 67, 0
2, 22160, Note_on_c, 0, 69, 55
2, 22240, Note_on_c, 0, 69, 0
2, 22240, Note_on_c, 0, 71, 55
2, 22320, Note_on_c, 0, 71, 0
2, 22320, Note_on_c, 0, 72, 60
2, 22800, Note_on_c, 0, 72, 0
2, 22800, Note_on_c, 0, 76, 55
2, 22880, Note_on_c, 0, 76, 0
2, 22880, Note_on_c, 0, 74, 49
2, 22960, Note_on_c, 0, 74, 0
2, 22960, Note_on_c, 0, 72, 49
2, 23040, Note_on_c, 0, 72, 0
2, 23040, Note_on_c, 0, 79, 60
2, 23520, Note_on_c, 0, 79, 0
2, 23520, Note_on_c, 0, 77, 52
2, 23760, Note_on_c, 0, 77, 0
2, 23760, Note_on_c, 0, 76, 60
2, 24240, Note_on_c, 0, 76, 0
2, 24240, Note_on_c, 0, 76, 60
2, 24360, Note_on_c, 0, 76, 0
2, 24360, Note_on_c, 0, 67, 40
2, 24480, Note_on_c, 0, 67, 0
2, 24480, Note_on_c, 0, 74, 60
2, 24600, Note_on_c, 0, 74, 0
2, 24600, Note_on_c, 0, 67, 35
2, 24720, Note_on_c, 0, 67, 0
2, 24720, Note_on_c, 0, 74, 60
2, 24840, Note_on_c, 0, 74, 0
2, 24840, Note_on_c, 0, 67, 39
2, 24960, Note_on_c, 0, 67, 0
2, 24960, Note_on_c, 0, 76, 61
2, 25080, Note_on_c, 0, 76, 0
2, 25080, Note_on_c, 0, 67, 38
2, 25200, Note_on_c, 0, 67, 0
2, 25200, Note_on_c, 0, 74, 63
2, 25320, Note_on_c, 0, 74, 0
2, 25320, Note_on_c, 0, 67, 37
2, 25440, Note_on_c, 0, 67, 0
2, 25440, Note_on_c, 0, 74, 60
2, 25560, Note_on_c, 0, 74, 0
2, 25560, Note_on_c, 0, 67, 38
2, 25680, Note_on_c, 0, 67, 0
2, 25680, Note_on_c, 0, 72, 58
2, 25800, Note_on_c, 0, 72, 0
2, 25800, Note_on_c, 0, 67, 38
2, 25920, Note_on_c, 0, 67, 0
2, 25920, Note_on_c, 0, 71, 63
2, 26040, Note_on_c, 0, 71, 0
2, 26040, Note_on_c, 0, 74, 51
2, 26160, Note_on_c, 0, 74, 0
2, 26160, Note_on_c, 0, 71, 58
2, 26280, Note_on_c, 0, 71, 0
2, 26280, Note_on_c, 0, 67, 50
2, 26400, Note_on_c, 0, 67, 0
2, 26400, Note_on_c, 0, 69, 57
2, 26520, Note_on_c, 0, 69, 0
2, 26520, Note_on_c, 0, 66, 53
2, 26640, Note_on_c, 0, 66, 0
2, 26640, Note_on_c, 0, 67, 63
2, 27120, Note_on_c, 0, 67, 0
2, 29040, Note_on_c, 0, 84, 63
2, 29120, Note_on_c, 0, 84, 0
2, 29120, Note_on_c, 0, 83, 57
2, 29200, Note_on_c, 0, 83, 0
2, 29200, Note_on_c, 0, 81, 57
2, 29280, Note_on_c, 0, 81, 0
2, 29280, Note_on_c, 0, 79, 63
2, 29360, Note_on_c, 0, 79, 0
2, 29360, Note_on_c, 0, 78, 57
2, 29440, Note_on_c, 0, 78, 0
2, 29440, Note_on_c, 0, 76, 56
2, 29520, Note_on_c, 0, 76, 0
2, 29520, Note_on_c, 0, 74, 63
2, 29640, Note_on_c, 0, 74, 0
2, 29640, Note_on_c, 0, 81, 55
2, 29760, Note_on_c, 0, 81, 0
2, 29760, Note_on_c, 0, 84, 59
2, 29880, Note_on_c, 0, 84, 0
2, 29880, Note_on_c, 0, 81, 52
2, 30000, Note_on_c, 0, 81, 0
2, 30000, Note_on_c, 0, 83, 61
2, 30120, Note_on_c, 0, 83, 0
2, 30120, Note_on_c, 0, 79, 56
2, 30240, Note_on_c, 0, 79, 0
2, 30240, Note_on_c, 0, 81, 63
2, 30480, Note_on_c, 0, 81, 0
2, 30480, Note_on_c, 0, 79, 58
2, 30720, Note_on_c, 0, 79, 0
2, 30720, Note_on_c, 0, 78, 53
2, 30768, Note_on_c, 0, 78, 0
2, 30768, Note_on_c, 0, 79, 48
2, 30816, Note_on_c, 0, 79, 0
2, 30816, Note_on_c, 0, 78, 53
2, 30864, Note_on_c, 0, 78, 0
2, 30864, Note_on_c, 0, 79, 48
2, 30912, Note_on_c, 0, 79, 0
2, 30912, Note_on_c, 0, 78, 48
2, 30960, Note_on_c, 0, 78, 0
2, 30960, Note_on_c, 0, 71, 63
2, 30960, Note_on_c, 0, 74, 63
2, 30960, Note_on_c, 0, 79, 63
2, 31440, Note_on_c, 0, 79, 0
2, 31440, Note_on_c, 0, 74, 0
2, 31440, Note_on_c, 0, 71, 0
2, 33360, Note_on_c, 0, 84, 63
2, 33440, Note_on_c, 0, 84, 0
2, 33440, Note_on_c, 0, 83, 57
2, 33520, Note_on_c, 0, 83, 0
2, 33520, Note_on_c, 0, 81, 57
2, 33600, Note_on_c, 0, 81, 0
2, 33600, Note_on_c, 0, 79, 63
2, 33680, Note_on_c, 0, 79, 0
2, 33680, Note_on_c, 0, 78, 57
2, 33760, Note_on_c, 0, 78, 0
2, 33760, Note_on_c, 0, 76, 56
2, 33840, Note_on_c, 0, 76, 0
2, 33840, Note_on_c, 0, 74, 63
2, 33960, Note_on_c, 0, 74, 0
2, 33960, Note_on_c, 0, 81, 55
2, 34080, Note_on_c, 0, 81, 0
2, 34080, Note_on_c, 0, 84, 59
2, 34200, Note_on_c, 0, 84, 0
2, 34200, Note_on_c, 0, 81, 52
2, 34320, Note_on_c, 0, 81, 0
2, 34320, Note_on_c, 0, 83, 61
2, 34440, Note_on_c, 0, 83, 0
2, 34440, Note_on_c, 0, 79, 56
2, 34560, Note_on_c, 0, 79, 0
2, 34560, Note_on_c, 0, 81, 63
2, 34800, Note_on_c, 0, 81, 0
2, 34800, Note_on_c, 0, 79, 58
2, 35040, Note_on_c, 0, 79, 0
2, 35040, Note_on_c, 0, 78, 53
2, 35088, Note_on_c, 0, 78, 0
2, 35088, Note_on_c, 0, 79, 48
2, 35136, Note_on_c, 0, 79, 0
2, 35136, Note_on_c, 0, 78, 53
2, 35184, Note_on_c, 0, 78, 0
2, 35184, Note_on_c, 0, 79, 48
2, 35232, Note_on_c, 0, 79, 0
2, 35232, Note_on_c, 0, 78, 48
2, 35280, Note_on_c, 0, 78, 0
2, 35280, Note_on_c, 0, 71, 63
2, 35280, Note_on_c, 0, 74, 63
2, 35280, Note_on_c, 0, 79, 63
2, 35760, Note_on_c, 0, 79, 0
2, 35760, Note_on_c, 0, 74, 0
2, 35760, Note_on_c, 0, 71, 0
2, 36000, Note_on_c, 0, 79, 69
2, 36480, Note_on_c, 0, 79, 0
2, 36480, Note_on_c, 0, 83, 61
2, 36560, Note_on_c, 0, 83, 0
2, 36560, Note_on_c, 0, 81, 51
2, 36640, Note_on_c, 0, 81, 0
2, 36640, Note_on_c, 0, 79, 51
2, 36720, Note_on_c, 0, 79, 0
2, 36720, Note_on_c, 0, 86, 69
2, 37200, Note_on_c, 0, 86, 0
2, 37200, Note_on_c, 0, 77, 52
2, 37440, Note_on_c, 0, 77, 0
2, 37440, Note_on_c, 0, 76, 60
2, 37560, Note_on_c, 0, 76, 0
2, 37560, Note_on_c, 0, 67, 35
2, 37680, Note_on_c, 0, 67, 0
2, 37680, Note_on_c, 0, 74, 60
2, 37800, Note_on_c, 0, 74, 0
2, 37800, Note_on_c, 0, 67, 39
2, 37920, Note_on_c, 0, 67, 0
2, 37920, Note_on_c, 0, 77, 60
2, 38040, Note_on_c, 0, 77, 0
2, 38040, Note_on_c, 0, 67, 40
2, 38160, Note_on_c, 0, 67, 0
2, 38160, Note_on_c, 0, 76, 60
2, 38280, Note_on_c, 0, 76, 0
2, 38280, Note_on_c, 0, 67, 35
2, 38400, Note_on_c, 0, 67, 0
2, 38400, Note_on_c, 0, 74, 60
2, 38520, Note_on_c, 0, 74, 0
2, 38520, Note_on_c, 0, 67, 39
2, 38640, Note_on_c, 0, 67, 0
2, 38640, Note_on_c, 0, 79, 61
2, 38760, Note_on_c, 0, 79, 0
2, 38760, Note_on_c, 0, 67, 38
2, 38880, Note_on_c, 0, 67, 0
2, 38880, Note_on_c, 0, 79, 63
2, 39000, Note_on_c, 0, 79, 0
2, 39000, Note_on_c, 0, 67, 37
2, 39120, Note_on_c, 0, 67, 0
2, 39120, Note_on_c, 0, 77, 60
2, 39240, Note_on_c, 0, 77, 0
2, 39240, Note_on_c, 0, 67, 38
2, 39360, Note_on_c, 0, 67, 0
2, 39360, Note_on_c, 0, 76, 58
2, 39480, Note_on_c, 0, 76, 0
2, 39480, Note_on_c, 0, 67, 38
2, 39600, Note_on_c, 0, 67, 0
2, 39600, Note_on_c, 0, 74, 60
2, 40080, Note_on_c, 0, 74, 0
2, 40320, Note_on_c, 0, 79, 69
2, 40800, Note_on_c, 0, 79, 0
2, 40800, Note_on_c, 0, 83, 61
2, 40880, Note_on_c, 0, 83, 0
2, 40880, Note_on_c, 0, 81, 51
2, 40960, Note_on_c, 0, 81, 0
2, 40960, Note_on_c, 0, 79, 51
2, 41040, Note_on_c, 0, 79, 0
2, 41040, Note_on_c, 0, 86, 69
2, 41520, Note_on_c, 0, 86, 0
2, 41520, Note_on_c, 0, 77, 44
2, 41760, Note_on_c, 0, 77, 0
2, 41760, Note_on_c, 0, 75, 51
2, 41880, Note_on_c, 0, 75, 0
2, 41880, Note_on_c, 0, 67, 29
2, 42000, Note_on_c, 0, 67, 0
2, 42000, Note_on_c, 0, 74, 51
2, 42120, Note_on_c, 0, 74, 0
2, 42120, Note_on_c, 0, 67, 33
2, 42240, Note_on_c, 0, 67, 0
2, 42240, Note_on_c, 0, 77, 51
2, 42360, Note_on_c, 0, 77, 0
2, 42360, Note_on_c, 0, 67, 34
2, 42480, Note_on_c, 0, 67, 0
2, 42480, Note_on_c, 0, 75, 51
2, 42600, Note_on_c, 0, 75, 0
2, 42600, Note_on_c, 0, 67, 29
2, 42720, Note_on_c, 0, 67, 0
2, 42720, Note_on_c, 0, 74, 51
2, 42840, Note_on_c, 0, 74, 0
2, 42840, Note_on_c, 0, 67, 33
2, 42960, Note_on_c, 0, 67, 0
2, 42960, Note_on_c, 0, 79, 51
2, 43080, Note_on_c, 0, 79, 0
2, 43080, Note_on_c, 0, 67, 32
2, 43200, Note_on_c, 0, 67, 0
2, 43200, Note_on_c, 0, 79, 53
2, 43320, Note_on_c, 0, 79, 0
2, 43320, Note_on_c, 0, 67, 31
2, 43440, Note_on_c, 0, 67, 0
2, 43440, Note_on_c, 0, 77, 51
2, 43560, Note_on_c, 0, 77, 0
2, 43560, Note_on_c, 0, 67, 32
2, 43680, Note_on_c, 0, 67, 0
2, 43680, Note_on_c, 0, 75, 49
2, 43800, Note_on_c, 0, 75, 0
2, 43800, Note_on_c, 0, 67, 32
2, 43920, Note_on_c, 0, 67, 0
2, 43920, Note_on_c, 0, 74, 51
2, 44400, Note_on_c, 0, 74, 0
2, 44640, Note_on_c, 0, 72, 60
2, 45120, Note_on_c, 0, 72, 0
2, 45120, Note_on_c, 0, 76, 55
2, 45200, Note_on_c, 0, 76, 0
2, 45200, Note_on_c, 0, 74, 49
2, 45280, Note_on_c, 0, 74, 0
2, 45280, Note_on_c, 0, 72, 49
2, 45360, Note_on_c, 0, 72, 0
2, 45360, Note_on_c, 0, 79, 60
2, 45840, Note_on_c, 0, 79, 0
2, 45840, Note_on_c, 0, 77, 52
2, 46080, Note_on_c, 0, 77, 0
2, 46080, Note_on_c, 0, 76, 60
2, 46560, Note_on_c, 0, 76, 0
2, 46560, Note_on_c, 0, 76, 60
2, 46680, Note_on_c, 0, 76, 0
2, 46680, Note_on_c, 0, 67, 40
2, 46800, Note_on_c, 0, 67, 0
2, 46800, Note_on_c, 0, 74, 60
2, 46920, Note_on_c, 0, 74, 0
2, 46920, Note_on_c, 0, 67, 35
2, 47040, Note_on_c, 0, 67, 0
2, 47040, Note_on_c, 0, 74, 60
2, 47160, Note_on_c, 0, 74, 0
2, 47160, Note_on_c, 0, 67, 39
2, 47280, Note_on_c, 0, 67, 0
2, 47280, Note_on_c, 0, 76, 61
2, 47400, Note_on_c, 0, 76, 0
2, 47400, Note_on_c, 0, 67, 38
2, 47520, Note_on_c, 0, 67, 0
2, 47520, Note_on_c, 0, 77, 63
2, 47640, Note_on_c, 0, 77, 0
2, 47640, Note_on_c, 0, 67, 37
2, 47760, Note_on_c, 0, 67, 0
2, 47760, Note_on_c, 0, 76, 60
2, 47880, Note_on_c, 0, 76, 0
2, 47880, Note_on_c, 0, 67, 38
2, 48000, Note_on_c, 0, 67, 0
2, 48000, Note_on_c, 0, 74, 58
2, 48120, Note_on_c, 0, 74, 0
2, 48120, Note_on_c, 0, 67, 38
2, 48240, Note_on_c, 0, 67, 0
2, 48240, Note_on_c, 0, 76, 60
2, 48720, Note_on_c, 0, 76, 0
2, 50640, Note_on_c, 0, 77, 63
2, 50720, Note_on_c, 0, 77, 0
2, 50720, Note_on_c, 0, 76, 57
2, 50800, Note_on_c, 0, 76, 0
2, 50800, Note_on_c, 0, 74, 57
2, 50880, Note_on_c, 0, 74, 0
2, 50880, Note_on_c, 0, 72, 63
2, 50960, Note_on_c, 0, 72, 0
2, 50960, Note_on_c, 0, 71, 57
2, 51040, Note_on_c, 0, 71, 0
2, 51040, Note_on_c, 0, 69, 56
2, 51120, Note_on_c, 0, 69, 0
2, 51120, Note_on_c, 0, 67, 63
2, 51240, Note_on_c, 0, 67, 0
2, 51240, Note_on_c, 0, 74, 55
2, 51360, Note_on_c, 0, 74, 0
2, 51360, Note_on_c, 0, 77, 59
2, 51480, Note_on_c, 0, 77, 0
2, 51480, Note_on_c, 0, 74, 52
2, 51600, Note_on_c, 0, 74, 0
2, 51600, Note_on_c, 0, 76, 61
2, 51720, Note_on_c, 0, 76, 0
2, 51720, Note_on_c, 0, 72, 56
2, 51840, Note_on_c, 0, 72, 0
2, 51840, Note_on_c, 0, 74, 63
2, 52080, Note_on_c, 0, 74, 0
2, 52080, Note_on_c, 0, 72, 58
2, 52320, Note_on_c, 0, 72, 0
2, 52320, Note_on_c, 0, 71, 53
2, 52368, Note_on_c, 0, 71, 0
2, 52368, Note_on_c, 0, 72, 48
2, 52416, Note_on_c, 0, 72, 0
2, 52416, Note_on_c, 0, 71, 53
2, 52464, Note_on_c, 0, 71, 0
2, 52464, Note_on_c, 0, 72, 48
2, 52512, Note_on_c, 0, 72, 0
2, 52512, Note_on_c, 0, 71, 48
2, 52560, Note_on_c, 0, 71, 0
2, 52560, Note_on_c, 0, 72, 63
2, 53040, Note_on_c, 0, 72, 0
2, 54960, Note_on_c, 0, 77, 63
2, 55040, Note_on_c, 0, 77, 0
2, 55040, Note_on_c, 0, 76, 57
2, 55120, Note_on_c, 0, 76, 0
2, 55120, Note_on_c, 0, 74, 57
2, 55200, Note_on_c, 0, 74, 0
2, 55200, Note_on_c, 0, 72, 63
2, 55280, Note_on_c, 0, 72, 0
2, 55280, Note_on_c, 0, 71, 57
2, 55360, Note_on_c, 0, 71, 0
2, 55360, Note_on_c, 0, 69, 56
2, 55440, Note_on_c, 0, 69, 0
2, 55440, Note_on_c, 0, 67, 63
2, 55560, Note_on_c, 0, 67, 0
2, 55560, Note_on_c, 0, 74, 55
2, 55680, Note_on_c, 0, 74, 0
2, 55680, Note_on_c, 0, 77, 59
2, 55800, Note_on_c, 0, 77, 0
2, 55800, Note_on_c, 0, 74, 52
2, 55920, Note_on_c, 0, 74, 0
2, 55920, Note_on_c, 0, 76, 61
2, 56040, Note_on_c, 0, 76, 0
2, 56040, Note_on_c, 0, 72, 56
2, 56160, Note_on_c, 0, 72, 0
2, 56160, Note_on_c, 0, 74, 63
2, 56400, Note_on_c, 0, 74, 0
2, 56400, Note_on_c, 0, 72, 58
2, 56640, Note_on_c, 0, 72, 0
2, 56640, Note_on_c, 0, 71, 53
2, 56688, Note_on_c, 0, 71, 0
2, 56688, Note_on_c, 0, 72, 48
2, 56736, Note_on_c, 0, 72, 0
2, 56736, Note_on_c, 0, 71, 53
2, 56784, Note_on_c, 0, 71, 0
2, 56784, Note_on_c, 0, 72, 48
2, 56832, Note_on_c, 0, 72, 0
2, 56832, Note_on_c, 0, 71, 48
2, 56880, Note_on_c, 0, 71, 0
2, 56880, Note_on_c, 0, 72, 63
2, 57360, Note_on_c, 0, 72, 0
2, 57600, Note_on_c, 0, 79, 69
2, 58080, Note_on_c, 0, 79, 0
2, 58080, Note_on_c, 0, 83, 61
2, 58160, Note_on_c, 0, 83, 0
2, 58160, Note_on_c, 0, 81, 51
2, 58240, Note_on_c, 0, 81, 0
2, 58240, Note_on_c, 0, 79, 51
2, 58320, Note_on_c, 0, 79, 0
2, 58320, Note_on_c, 0, 86, 69
2, 58800, Note_on_c, 0, 86, 0
2, 58800, Note_on_c, 0, 77, 52
2, 59040, Note_on_c, 0, 77, 0
2, 59040, Note_on_c, 0, 76, 60
2, 59160, Note_on_c, 0, 76, 0
2, 59160, Note_on_c, 0, 67, 35
2, 59280, Note_on_c, 0, 67, 0
2, 59280, Note_on_c, 0, 74, 60
2, 59400, Note_on_c, 0, 74, 0
2, 59400, Note_on_c, 0, 67, 39
2, 59520, Note_on_c, 0, 67, 0
2, 59520, Note_on_c, 0, 77, 60
2, 59640, Note_on_c, 0, 77, 0
2, 59640, Note_on_c, 0, 67, 40
2, 59760, Note_on_c, 0, 67, 0
2, 59760, Note_on_c, 0, 76, 60
2, 59880, Note_on_c, 0, 76, 0
2, 59880, Note_on_c, 0, 67, 35
2, 60000, Note_on_c, 0, 67, 0
2, 60000, Note_on_c, 0, 74, 60
2, 60120, Note_on_c, 0, 74, 0
2, 60120, Note_on_c, 0, 67, 39
2, 60240, Note_on_c, 0, 67, 0
2, 60240, Note_on_c, 0, 79, 61
2, 60360, Note_on_c, 0, 79, 0
2, 60360, Note_on_c, 0, 67, 38
2, 60480, Note_on_c, 0, 67, 0
2, 60480, Note_on_c, 0, 79, 63
2, 60600, Note_on_c, 0, 79, 0
2, 60600, Note_on_c, 0, 67, 37
2, 60720, Note_on_c, 0, 67, 0
2, 60720, Note_on_c, 0, 77, 60
2, 60840, Note_on_c, 0, 77, 0
2, 60840, Note_on_c, 0, 67, 38
2, 60960, Note_on_c, 0, 67, 0
2, 60960, Note_on_c, 0, 76, 58
2, 61080, Note_on_c, 0, 76, 0
2, 61080, Note_on_c, 0, 67, 38
2, 61200, Note_on_c, 0, 67, 0
2, 61200, Note_on_c, 0, 74, 60
2, 61680, Note_on_c, 0, 74, 0
2, 61920, Note_on_c, 0, 79, 69
2, 62400, Note_on_c, 0, 79, 0
2, 62400, Note_on_c, 0, 83, 61
2, 62480, Note_on_c, 0, 83, 0
2, 62480, Note_on_c, 0, 81, 51
2, 62560, Note_on_c, 0, 81, 0
2, 62560, Note_on_c, 0, 79, 51
2, 62640, Note_on_c, 0, 79, 0
2, 62640, Note_on_c, 0, 86, 69
2, 63120, Note_on_c, 0, 86, 0
2, 63120, Note_on_c, 0, 77, 44
2, 63360, Note_on_c, 0, 77, 0
2, 63360, Note_on_c, 0, 75, 51
2, 63480, Note_on_c, 0, 75, 0
2, 63480, Note_on_c, 0, 67, 29
2, 63600, Note_on_c, 0, 67, 0
2, 63600, Note_on_c, 0, 74, 51
2, 63720, Note_on_c, 0, 74, 0
2, 63720, Note_on_c, 0, 67, 33
2, 63840, Note_on_c, 0, 67, 0
2, 63840, Note_on_c, 0, 77, 51
2, 63960, Note_on_c, 0, 77, 0
2, 63960, Note_on_c, 0, 67, 34
2, 64080, Note_on_c, 0, 67, 0
2, 64080, Note_on_c, 0, 75, 51
2, 64200, Note_on_c, 0, 75, 0
2, 64200, Note_on_c, 0, 67, 29
2, 64320, Note_on_c, 0, 67, 0
2, 64320, Note_on_c, 0, 74, 51
2, 64440, Note_on_c, 0, 74, 0
2, 64440, Note_on_c, 0, 67, 33
2, 64560, Note_on_c, 0, 67, 0
2, 64560, Note_on_c, 0, 79, 51
2, 64680, Note_on_c, 0, 79, 0
2, 64680, Note_on_c, 0, 67, 32
2, 64800, Note_on_c, 0, 67, 0
2, 64800, Note_on_c, 0, 79, 53
2, 64920, Note_on_c, 0, 79, 0
2, 64920, Note_on_c, 0, 67, 31
2, 65040, Note_on_c, 0, 67, 0
2, 65040, Note_on_c, 0, 77, 51
2, 65160, Note_on_c, 0, 77, 0
2, 65160, Note_on_c, 0, 67, 32
2, 65280, Note_on_c, 0, 67, 0
2, 65280, Note_on_c, 0, 75, 49
2, 65400, Note_on_c, 0, 75, 0
2, 65400, Note_on_c, 0, 67, 32
2, 65520, Note_on_c, 0, 67, 0
2, 65520, Note_on_c, 0, 74, 51
2, 66000, Note_on_c, 0, 74, 0
2, 66240, Note_on_c, 0, 72, 60
2, 66720, Note_on_c, 0, 72, 0
2, 66720, Note_on_c, 0, 76, 55
2, 66800, Note_on_c, 0, 76, 0
2, 66800, Note_on_c, 0, 74, 49
2, 66880, Note_on_c, 0, 74, 0
2, 66880, Note_on_c, 0, 72, 49
2, 66960, Note_on_c, 0, 72, 0
2, 66960, Note_on_c, 0, 79, 60
2, 67440, Note_on_c, 0, 79, 0
2, 67440, Note_on_c, 0, 77, 52
2, 67680, Note_on_c, 0, 77, 0
2, 67680, Note_on_c, 0, 76, 60
2, 68160, Note_on_c, 0, 76, 0
2, 68160, Note_on_c, 0, 76, 60
2, 68280, Note_on_c, 0, 76, 0
2, 68280, Note_on_c, 0, 67, 40
2, 68400, Note_on_c, 0, 67, 0
2, 68400, Note_on_c, 0, 74, 60
2, 68520, Note_on_c, 0, 74, 0
2, 68520, Note_on_c, 0, 67, 35
2, 68640, Note_on_c, 0, 67, 0
2, 68640, Note_on_c, 0, 74, 60
2, 68760, Note_on_c, 0, 74, 0
2, 68760, Note_on_c, 0, 67, 39
2, 68880, Note_on_c, 0, 67, 0
2, 68880, Note_on_c, 0, 76, 61
2, 69000, Note_on_c, 0, 76, 0
2, 69000, Note_on_c, 0, 67, 38
2, 69120, Note_on_c, 0, 67, 0
2, 69120, Note_on_c, 0, 77, 63
2, 69240, Note_on_c, 0, 77, 0
2, 69240, Note_on_c, 0, 67, 37
2, 69360, Note_on_c, 0, 67, 0
2, 69360, Note_on_c, 0, 76, 60
2, 69480, Note_on_c, 0, 76, 0
2, 69480, Note_on_c, 0, 67, 38
2, 69600, Note_on_c, 0, 67, 0
2, 69600, Note_on_c, 0, 74, 58
2, 69720, Note_on_c, 0, 74, 0
2, 69720, Note_on_c, 0, 67, 38
2, 69840, Note_on_c, 0, 67, 0
2, 69840, Note_on_c, 0, 76, 60
2, 70320, Note_on_c, 0, 76, 0
2, 72240, Note_on_c, 0, 77, 63
2, 72320, Note_on_c, 0, 77, 0
2, 72320, Note_on_c, 0, 76, 57
2, 72400, Note_on_c, 0, 76, 0
2, 72400, Note_on_c, 0, 74, 57
2, 72480, Note_on_c, 0, 74, 0
2, 72480, Note_on_c, 0, 72, 63
2, 72560, Note_on_c, 0, 72, 0
2, 72560, Note_on_c, 0, 71, 57
2, 72640, Note_on_c, 0, 71, 0
2, 72640, Note_on_c, 0, 69, 56
2, 72720, Note_on_c, 0, 69, 0
2, 72720, Note_on_c, 0, 67, 63
2, 72840, Note_on_c, 0, 67, 0
2, 72840, Note_on_c, 0, 74, 55
2, 72960, Note_on_c, 0, 74, 0
2, 72960, Note_on_c, 0, 77, 59
2, 73080, Note_on_c, 0, 77, 0
2, 73080, Note_on_c, 0, 74, 52
2, 73200, Note_on_c, 0, 74, 0
2, 73200, Note_on_c, 0, 76, 61
2, 73320, Note_on_c, 0, 76, 0
2, 73320, Note_on_c, 0, 72, 56
2, 73440, Note_on_c, 0, 72, 0
2, 73440, Note_on_c, 0, 74, 63
2, 73680, Note_on_c, 0, 74, 0
2, 73680, Note_on_c, 0, 72, 58
2, 73920, Note_on_c, 0, 72, 0
2, 73920, Note_on_c, 0, 71, 53
2, 73968, Note_on_c, 0, 71, 0
2, 73968, Note_on_c, 0, 72, 48
2, 74016, Note_on_c, 0, 72, 0
2, 74016, Note_on_c, 0, 71, 53
2, 74064, Note_on_c, 0, 71, 0
2, 74064, Note_on_c, 0, 72, 48
2, 74112, Note_on_c, 0, 72, 0
2, 74112, Note_on_c, 0, 71, 48
2, 74160, Note_on_c, 0, 71, 0
2, 74160, Note_on_c, 0, 72, 63
2, 74640, Note_on_c, 0, 72, 0
2, 76560, Note_on_c, 0, 77, 63
2, 76640, Note_on_c, 0, 77, 0
2, 76640, Note_on_c, 0, 76, 57
2, 76720, Note_on_c, 0, 76, 0
2, 76720, Note_on_c, 0, 74, 57
2, 76800, Note_on_c, 0, 74, 0
2, 76800, Note_on_c, 0, 72, 63
2, 76880, Note_on_c, 0, 72, 0
2, 76880, Note_on_c, 0, 71, 57
2, 76960, Note_on_c, 0, 71, 0
2, 76960, Note_on_c, 0, 69, 56
2, 77040, Note_on_c, 0, 69, 0
2, 77040, Note_on_c, 0, 67, 63
2, 77160, Note_on_c, 0, 67, 0
2, 77160, Note_on_c, 0, 74, 55
2, 77280, Note_on_c, 0, 74, 0
2, 77280, Note_on_c, 0, 77, 59
2, 77400, Note_on_c, 0, 77, 0
2, 77400, Note_on_c, 0, 74, 52
2, 77520, Note_on_c, 0, 74, 0
2, 77520, Note_on_c, 0, 76, 61
2, 77640, Note_on_c, 0, 76, 0
2, 77640, Note_on_c, 0, 72, 56
2, 77760, Note_on_c, 0, 72, 0
2, 77760, Note_on_c, 0, 74, 63
2, 78000, Note_on_c, 0, 74, 0
2, 78000, Note_on_c, 0, 72, 58
2, 78240, Note_on_c, 0, 72, 0
2, 78240, Note_on_c, 0, 71, 53
2, 78288, Note_on_c, 0, 71, 0
2, 78288, Note_on_c, 0, 72, 48
2, 78336, Note_on_c, 0, 72, 0
2, 78336, Note_on_c, 0, 71, 53
2, 78384, Note_on_c, 0, 71, 0
2, 78384, Note_on_c, 0, 72, 48
2, 78432, Note_on_c, 0, 72, 0
2, 78432, Note_on_c, 0, 71, 48
2, 78480, Note_on_c, 0, 71, 0
2, 78480, Note_on_c, 0, 72, 63
2, 78960, Note_on_c, 0, 72, 0
2, 78960, End_track
3, 0, Start_track
3, 0, Title_t, "Piano left"
3, 0, Program_c, 0, 0
3, 0, Note_on_c, 0, 60, 40
3, 120, Note_on_c, 0, 60, 0
3, 120, Note_on_c, 0, 67, 32
3, 240, Note_on_c, 0, 67, 0
3, 240, Note_on_c, 0, 64, 40
3, 360, Note_on_c, 0, 64, 0
3, 360, Note_on_c, 0, 67, 32
3, 480, Note_on_c, 0, 67, 0
3, 480, Note_on_c, 0, 60, 40
3, 600, Note_on_c, 0, 60, 0
3, 600, Note_on_c, 0, 67, 33
3, 720, Note_on_c, 0, 67, 0
3, 720, Note_on_c, 0, 59, 40
3, 840, Note_on_c, 0, 59, 0
3, 840, Note_on_c, 0, 67, 32
3, 960, Note_on_c, 0, 67, 0
3, 960, Note_on_c, 0, 62, 37
3, 1080, Note_on_c, 0, 62, 0
3, 1080, Note_on_c, 0, 67, 33
3, 1200, Note_on_c, 0, 67, 0
3, 1200, Note_on_c, 0, 59, 40
3, 1320, Note_on_c, 0, 59, 0
3, 1320, Note_on_c, 0, 67, 35
3, 1440, Note_on_c, 0, 67, 0
3, 1440, Note_on_c, 0, 60, 40
3, 1920, Note_on_c, 0, 60, 0
3, 1920, Note_on_c, 0, 60, 36
3, 2160, Note_on_c, 0, 60, 0
3, 2160, Note_on_c, 0, 59, 40
3, 2640, Note_on_c, 0, 59, 0
3, 2640, Note_on_c, 0, 60, 43
3, 2880, Note_on_c, 0, 60, 0
3, 2880, Note_on_c, 0, 62, 48
3, 3120, Note_on_c, 0, 62, 0
3, 3120, Note_on_c, 0, 60, 45
3, 3360, Note_on_c, 0, 60, 0
3, 3360, Note_on_c, 0, 59, 40
3, 3600, Note_on_c, 0, 59, 0
3, 3600, Note_on_c, 0, 60, 43
3, 4080, Note_on_c, 0, 60, 0
3, 4320, Note_on_c, 0, 60, 40
3, 4440, Note_on_c, 0, 60, 0
3, 4440, Note_on_c, 0, 67, 32
3, 4560, Note_on_c, 0, 67, 0
3, 4560, Note_on_c, 0, 64, 40
3, 4680, Note_on_c, 0, 64, 0
3, 4680, Note_on_c, 0, 67, 32
3, 4800, Note_on_c, 0, 67, 0
3, 4800, Note_on_c, 0, 60, 40
3, 4920, Note_on_c, 0, 60, 0
3, 4920, Note_on_c, 0, 67, 33
3, 5040, Note_on_c, 0, 67, 0
3, 5040, Note_on_c, 0, 59, 40
3, 5160, Note_on_c, 0, 59, 0
3, 5160, Note_on_c, 0, 67, 32
3, 5280, Note_on_c, 0, 67, 0
3, 5280, Note_on_c, 0, 62, 37
3, 5400, Note_on_c, 0, 62, 0
3, 5400, Note_on_c, 0, 67, 33
3, 5520, Note_on_c, 0, 67, 0
3, 5520, Note_on_c, 0, 59, 40
3, 5640, Note_on_c, 0, 59, 0
3, 5640, Note_on_c, 0, 67, 35
3, 5760, Note_on_c, 0, 67, 0
3, 5760, Note_on_c, 0, 60, 40
3, 6240, Note_on_c, 0, 60, 0
3, 6240, Note_on_c, 0, 60, 36
3, 6480, Note_on_c, 0, 60, 0
3, 6480, Note_on_c, 0, 59, 40
3, 6960, Note_on_c, 0, 59, 0
3, 6960, Note_on_c, 0, 60, 43
3, 7200, Note_on_c, 0, 60, 0
3, 7200, Note_on_c, 0, 59, 48
3, 7680, Note_on_c, 0, 59, 0
3, 7680, Note_on_c, 0, 52, 40
3, 7920, Note_on_c, 0, 52, 0
3, 7920, Note_on_c, 0, 50, 50
3, 8400, Note_on_c, 0, 50, 0
3, 8400, Note_on_c, 0, 38, 40
3, 8640, Note_on_c, 0, 38, 0
3, 8640, Note_on_c, 0, 43, 62
3, 8760, Note_on_c, 0, 43, 0
3, 8760, Note_on_c, 0, 55, 48
3, 8880, Note_on_c, 0, 55, 0
3, 8880, Note_on_c, 0, 45, 57
3, 9000, Note_on_c, 0, 45, 0
3, 9000, Note_on_c, 0, 57, 49
3, 9120, Note_on_c, 0, 57, 0
3, 9120, Note_on_c, 0, 47, 60
3, 9240, Note_on_c, 0, 47, 0
3, 9240, Note_on_c, 0, 59, 50
3, 9360, Note_on_c, 0, 59, 0
3, 9360, Note_on_c, 0, 45, 62
3, 9480, Note_on_c, 0, 45, 0
3, 9480, Note_on_c, 0, 57, 51
3, 9600, Note_on_c, 0, 57, 0
3, 9600, Note_on_c, 0, 47, 62
3, 9720, Note_on_c, 0, 47, 0
3, 9720, Note_on_c, 0, 59, 52
3, 9840, Note_on_c, 0, 59, 0
3, 9840, Note_on_c, 0, 48, 66
3, 9960, Note_on_c, 0, 48, 0
3, 9960, Note_on_c, 0, 60, 55
3, 10080, Note_on_c, 0, 60, 0
3, 10080, Note_on_c, 0, 47, 66
3, 10200, Note_on_c, 0, 47, 0
3, 10200, Note_on_c, 0, 59, 55
3, 10320, Note_on_c, 0, 59, 0
3, 10320, Note_on_c, 0, 48, 66
3, 10440, Note_on_c, 0, 48, 0
3, 10440, Note_on_c, 0, 60, 57
3, 10560, Note_on_c, 0, 60, 0
3, 10560, Note_on_c, 0, 50, 69
3, 10680, Note_on_c, 0, 50, 0
3, 10680, Note_on_c, 0, 62, 62
3, 10800, Note_on_c, 0, 62, 0
3, 10800, Note_on_c, 0, 52, 62
3, 10800, Note_on_c, 0, 64, 71
3, 11280, Note_on_c, 0, 64, 0
3, 11280, Note_on_c, 0, 52, 0
3, 11520, Note_on_c, 0, 54, 50
3, 12000, Note_on_c, 0, 54, 0
3, 12000, Note_on_c, 0, 55, 46
3, 12240, Note_on_c, 0, 55, 0
3, 12240, Note_on_c, 0, 60, 50
3, 12480, Note_on_c, 0, 60, 0
3, 12480, Note_on_c, 0, 62, 42
3, 12720, Note_on_c, 0, 62, 0
3, 12720, Note_on_c, 0, 50, 42
3, 12960, Note_on_c, 0, 50, 0
3, 12960, Note_on_c, 0, 43, 62
3, 13080, Note_on_c, 0, 43, 0
3, 13080, Note_on_c, 0, 55, 48
3, 13200, Note_on_c, 0, 55, 0
3, 13200, Note_on_c, 0, 45, 57
3, 13320, Note_on_c, 0, 45, 0
3, 13320, Note_on_c, 0, 57, 49
3, 13440, Note_on_c, 0, 57, 0
3, 13440, Note_on_c, 0, 47, 60
3, 13560, Note_on_c, 0, 47, 0
3, 13560, Note_on_c, 0, 59, 50
3, 13680, Note_on_c, 0, 59, 0
3, 13680, Note_on_c, 0, 45, 62
3, 13800, Note_on_c, 0, 45, 0
3, 13800, Note_on_c, 0, 57, 51
3, 13920, Note_on_c, 0, 57, 0
3, 13920, Note_on_c, 0, 47, 62
3, 14040, Note_on_c, 0, 47, 0
3, 14040, Note_on_c, 0, 59, 52
3, 14160, Note_on_c, 0, 59, 0
3, 14160, Note_on_c, 0, 48, 66
3, 14280, Note_on_c, 0, 48, 0
3, 14280, Note_on_c, 0, 60, 55
3, 14400, Note_on_c, 0, 60, 0
3, 14400, Note_on_c, 0, 47, 66
3, 14520, Note_on_c, 0, 47, 0
3, 14520, Note_on_c, 0, 59, 55
3, 14640, Note_on_c, 0, 59, 0
3, 14640, Note_on_c, 0, 48, 66
3, 14760, Note_on_c, 0, 48, 0
3, 14760, Note_on_c, 0, 60, 57
3, 14880, Note_on_c, 0, 60, 0
3, 14880, Note_on_c, 0, 50, 69
3, 15000, Note_on_c, 0, 50, 0
3, 15000, Note_on_c, 0, 62, 62
3, 15120, Note_on_c, 0, 62, 0
3, 15120, Note_on_c, 0, 52, 62
3, 15120, Note_on_c, 0, 64, 71
3, 15600, Note_on_c, 0, 64, 0
3, 15600, Note_on_c, 0, 52, 0
3, 15840, Note_on_c, 0, 54, 50
3, 16320, Note_on_c, 0, 54, 0
3, 16320, Note_on_c, 0, 55, 46
3, 16560, Note_on_c, 0, 55, 0
3, 16560, Note_on_c, 0, 60, 50
3, 16800, Note_on_c, 0, 60, 0
3, 16800, Note_on_c, 0, 62, 42
3, 17040, Note_on_c, 0, 62, 0
3, 17040, Note_on_c, 0, 50, 42
3, 17280, Note_on_c, 0, 50, 0
3, 17280, Note_on_c, 0, 55, 50
3, 17520, Note_on_c, 0, 55, 0
3, 17520, Note_on_c, 0, 50, 38
3, 17760, Note_on_c, 0, 50, 0
3, 17760, Note_on_c, 0, 43, 46
3, 18000, Note_on_c, 0, 43, 0
3, 18000, Note_on_c, 0, 60, 40
3, 18120, Note_on_c, 0, 60, 0
3, 18120, Note_on_c, 0, 67, 32
3, 18240, Note_on_c, 0, 67, 0
3, 18240, Note_on_c, 0, 64, 40
3, 18360, Note_on_c, 0, 64, 0
3, 18360, Note_on_c, 0, 67, 32
3, 18480, Note_on_c, 0, 67, 0
3, 18480, Note_on_c, 0, 60, 40
3, 18600, Note_on_c, 0, 60, 0
3, 18600, Note_on_c, 0, 67, 33
3, 18720, Note_on_c, 0, 67, 0
3, 18720, Note_on_c, 0, 59, 40
3, 18840, Note_on_c, 0, 59, 0
3, 18840, Note_on_c, 0, 67, 32
3, 18960, Note_on_c, 0, 67, 0
3, 18960, Note_on_c, 0, 62, 37
3, 19080, Note_on_c, 0, 62, 0
3, 19080, Note_on_c, 0, 67, 33
3, 19200, Note_on_c, 0, 67, 0
3, 19200, Note_on_c, 0, 59, 40
3, 19320, Note_on_c, 0, 59, 0
3, 19320, Note_on_c, 0, 67, 35
3, 19440, Note_on_c, 0, 67, 0
3, 19440, Note_on_c, 0, 60, 40
3, 19920, Note_on_c, 0, 60, 0
3, 19920, Note_on_c, 0, 60, 36
3, 20160, Note_on_c, 0, 60, 0
3, 20160, Note_on_c, 0, 59, 40
3, 20640, Note_on_c, 0, 59, 0
3, 20640, Note_on_c, 0, 60, 43
3, 20880, Note_on_c, 0, 60, 0
3, 20880, Note_on_c, 0, 62, 48
3, 21120, Note_on_c, 0, 62, 0
3, 21120, Note_on_c, 0, 60, 45
3, 21360, Note_on_c, 0, 60, 0
3, 21360, Note_on_c, 0, 59, 40
3, 21600, Note_on_c, 0, 59, 0
3, 21600, Note_on_c, 0, 60, 43
3, 22080, Note_on_c, 0, 60, 0
3, 22320, Note_on_c, 0, 60, 40
3, 22440, Note_on_c, 0, 60, 0
3, 22440, Note_on_c, 0, 67, 32
3, 22560, Note_on_c, 0, 67, 0
3, 22560, Note_on_c, 0, 64, 40
3, 22680, Note_on_c, 0, 64, 0
3, 22680, Note_on_c, 0, 67, 32
3, 22800, Note_on_c, 0, 67, 0
3, 22800, Note_on_c, 0, 60, 40
3, 22920, Note_on_c, 0, 60, 0
3, 22920, Note_on_c, 0, 67, 33
3, 23040, Note_on_c, 0, 67, 0
3, 23040, Note_on_c, 0, 59, 40
3, 23160, Note_on_c, 0, 59, 0
3, 23160, Note_on_c, 0, 67, 32
3, 23280, Note_on_c, 0, 67, 0
3, 23280, Note_on_c, 0, 62, 37
3, 23400, Note_on_c, 0, 62, 0
3, 23400, Note_on_c, 0, 67, 33
3, 23520, Note_on_c, 0, 67, 0
3, 23520, Note_on_c, 0, 59, 40
3, 23640, Note_on_c, 0, 59, 0
3, 23640, Note_on_c, 0, 67, 35
3, 23760, Note_on_c, 0, 67, 0
3, 23760, Note_on_c, 0, 60, 40
3, 24240, Note_on_c, 0, 60, 0
3, 24240, Note_on_c, 0, 60, 36
3, 24480, Note_on_c, 0, 60, 0
3, 24480, Note_on_c, 0, 59, 40
3, 24960, Note_on_c, 0, 59, 0
3, 24960, Note_on_c, 0, 60, 43
3, 25200, Note_on_c, 0, 60, 0
3, 25200, Note_on_c, 0, 59, 48
3, 25680, Note_on_c, 0, 59, 0
3, 25680, Note_on_c, 0, 52, 40
3, 25920, Note_on_c, 0, 52, 0
3, 25920, Note_on_c, 0, 50, 50
3, 26400, Note_on_c, 0, 50, 0
3, 26400, Note_on_c, 0, 38, 40
3, 26640, Note_on_c, 0, 38, 0
3, 26640, Note_on_c, 0, 43, 62
3, 26760, Note_on_c, 0, 43, 0
3, 26760, Note_on_c, 0, 55, 48
3, 26880, Note_on_c, 0, 55, 0
3, 26880, Note_on_c, 0, 45, 57
3, 27000, Note_on_c, 0, 45, 0
3, 27000, Note_on_c, 0, 57, 49
3, 27120, Note_on_c, 0, 57, 0
3, 27120, Note_on_c, 0, 47, 60
3, 27240, Note_on_c, 0, 47, 0
3, 27240, Note_on_c, 0, 59, 50
3, 27360, Note_on_c, 0, 59, 0
3, 27360, Note_on_c, 0, 45, 62
3, 27480, Note_on_c, 0, 45, 0
3, 27480, Note_on_c, 0, 57, 51
3, 27600, Note_on_c, 0, 57, 0
3, 27600, Note_on_c, 0, 47, 62
3, 27720, Note_on_c, 0, 47, 0
3, 27720, Note_on_c, 0, 59, 52
3, 27840, Note_on_c, 0, 59, 0
3, 27840, Note_on_c, 0, 48, 66
3, 27960, Note_on_c, 0, 48, 0
3, 27960, Note_on_c, 0, 60, 55
3, 28080, Note_on_c, 0, 60, 0
3, 28080, Note_on_c, 0, 47, 66
3, 28200, Note_on_c, 0, 47, 0
3, 28200, Note_on_c, 0, 59, 55
3, 28320, Note_on_c, 0, 59, 0
3, 28320, Note_on_c, 0, 48, 66
3, 28440, Note_on_c, 0, 48, 0
3, 28440, Note_on_c, 0, 60, 57
3, 28560, Note_on_c, 0, 60, 0
3, 28560, Note_on_c, 0, 50, 69
3, 28680, Note_on_c, 0, 50, 0
3, 28680, Note_on_c, 0, 62, 62
3, 28800, Note_on_c, 0, 62, 0
3, 28800, Note_on_c, 0, 52, 62
3, 28800, Note_on_c, 0, 64, 71
3, 29280, Note_on_c, 0, 64, 0
3, 29280, Note_on_c, 0, 52, 0
3, 29520, Note_on_c, 0, 54, 50
3, 30000, Note_on_c, 0, 54, 0
3, 30000, Note_on_c, 0, 55, 46
3, 30240, Note_on_c, 0, 55, 0
3, 30240, Note_on_c, 0, 60, 50
3, 30480, Note_on_c, 0, 60, 0
3, 30480, Note_on_c, 0, 62, 42
3, 30720, Note_on_c, 0, 62, 0
3, 30720, Note_on_c, 0, 50, 42
3, 30960, Note_on_c, 0, 50, 0
3, 30960, Note_on_c, 0, 43, 62
3, 31080, Note_on_c, 0, 43, 0
3, 31080, Note_on_c, 0, 55, 48
3, 31200, Note_on_c, 0, 55, 0
3, 31200, Note_on_c, 0, 45, 57
3, 31320, Note_on_c, 0, 45, 0
3, 31320, Note_on_c, 0, 57, 49
3, 31440, Note_on_c, 0, 57, 0
3, 31440, Note_on_c, 0, 47, 60
3, 31560, Note_on_c, 0, 47, 0
3, 31560, Note_on_c, 0, 59, 50
3, 31680, Note_on_c, 0, 59, 0
3, 31680, Note_on_c, 0, 45, 62
3, 31800, Note_on_c, 0, 45, 0
3, 31800, Note_on_c, 0, 57, 51
3, 31920, Note_on_c, 0, 57, 0
3, 31920, Note_on_c, 0, 47, 62
3, 32040, Note_on_c, 0, 47, 0
3, 32040, Note_on_c, 0, 59, 52
3, 32160, Note_on_c, 0, 59, 0
3, 32160, Note_on_c, 0, 48, 66
3, 32280, Note_on_c, 0, 48, 0
3, 32280, Note_on_c, 0, 60, 55
3, 32400, Note_on_c, 0, 60, 0
3, 32400, Note_on_c, 0, 47, 66
3, 32520, Note_on_c, 0, 47, 0
3, 32520, Note_on_c, 0, 59, 55
3, 32640, Note_on_c, 0, 59, 0
3, 32640, Note_on_c, 0, 48, 66
3, 32760, Note_on_c, 0, 48, 0
3, 32760, Note_on_c, 0, 60, 57
3, 32880, Note_on_c, 0, 60, 0
3, 32880, Note_on_c, 0, 50, 69
3, 33000, Note_on_c, 0, 50, 0
3, 33000, Note_on_c, 0, 62, 62
3, 33120, Note_on_c, 0, 62, 0
3, 33120, Note_on_c, 0, 52, 62
3, 33120, Note_on_c, 0, 64, 71
3, 33600, Note_on_c, 0, 64, 0
3, 33600, Note_on_c, 0, 52, 0
3, 33840, Note_on_c, 0, 54, 50
3, 34320, Note_on_c, 0, 54, 0
3, 34320, Note_on_c, 0, 55, 46
3, 34560, Note_on_c, 0, 55, 0
3, 34560, Note_on_c, 0, 60, 50
3, 34800, Note_on_c, 0, 60, 0
3, 34800, Note_on_c, 0, 62, 42
3, 35040, Note_on_c, 0, 62, 0
3, 35040, Note_on_c, 0, 50, 42
3, 35280, Note_on_c, 0, 50, 0
3, 35280, Note_on_c, 0, 55, 50
3, 35520, Note_on_c, 0, 55, 0
3, 35520, Note_on_c, 0, 50, 38
3, 35760, Note_on_c, 0, 50, 0
3, 35760, Note_on_c, 0, 43, 46
3, 36000, Note_on_c, 0, 43, 0
3, 36000, Note_on_c, 0, 55, 40
3, 36120, Note_on_c, 0, 55, 0
3, 36120, Note_on_c, 0, 62, 32
3, 36240, Note_on_c, 0, 62, 0
3, 36240, Note_on_c, 0, 59, 40
3, 36360, Note_on_c, 0, 59, 0
3, 36360, Note_on_c, 0, 62, 32
3, 36480, Note_on_c, 0, 62, 0
3, 36480, Note_on_c, 0, 55, 40
3, 36600, Note_on_c, 0, 55, 0
3, 36600, Note_on_c, 0, 62, 33
3, 36720, Note_on_c, 0, 62, 0
3, 36720, Note_on_c, 0, 55, 40
3, 36840, Note_on_c, 0, 55, 0
3, 36840, Note_on_c, 0, 62, 32
3, 36960, Note_on_c, 0, 62, 0
3, 36960, Note_on_c, 0, 59, 37
3, 37080, Note_on_c, 0, 59, 0
3, 37080, Note_on_c, 0, 62, 33
3, 37200, Note_on_c, 0, 62, 0
3, 37200, Note_on_c, 0, 55, 40
3, 37320, Note_on_c, 0, 55, 0
3, 37320, Note_on_c, 0, 62, 35
3, 37440, Note_on_c, 0, 62, 0
3, 37440, Note_on_c, 0, 60, 40
3, 37680, Note_on_c, 0, 60, 0
3, 37680, Note_on_c, 0, 59, 45
3, 37920, Note_on_c, 0, 59, 0
3, 37920, Note_on_c, 0, 62, 36
3, 38160, Note_on_c, 0, 62, 0
3, 38160, Note_on_c, 0, 60, 40
3, 38400, Note_on_c, 0, 60, 0
3, 38400, Note_on_c, 0, 59, 45
3, 38640, Note_on_c, 0, 59, 0
3, 38640, Note_on_c, 0, 64, 43
3, 38876, Note_on_c, 0, 64, 0
3, 38880, Note_on_c, 0, 64, 48
3, 39120, Note_on_c, 0, 64, 0
3, 39120, Note_on_c, 0, 62, 45
3, 39360, Note_on_c, 0, 62, 0
3, 39360, Note_on_c, 0, 60, 40
3, 39600, Note_on_c, 0, 60, 0
3, 39600, Note_on_c, 0, 55, 40
3, 39720, Note_on_c, 0, 55, 0
3, 39720, Note_on_c, 0, 62, 32
3, 39840, Note_on_c, 0, 62, 0
3, 39840, Note_on_c, 0, 59, 40
3, 39960, Note_on_c, 0, 59, 0
3, 39960, Note_on_c, 0, 62, 32
3, 40080, Note_on_c, 0, 62, 0
3, 40080, Note_on_c, 0, 55, 40
3, 40200, Note_on_c, 0, 55, 0
3, 40200, Note_on_c, 0, 62, 33
3, 40320, Note_on_c, 0, 62, 0
3, 40320, Note_on_c, 0, 55, 40
3, 40440, Note_on_c, 0, 55, 0
3, 40440, Note_on_c, 0, 62, 32
3, 40560, Note_on_c, 0, 62, 0
3, 40560, Note_on_c, 0, 59, 40
3, 40680, Note_on_c, 0, 59, 0
3, 40680, Note_on_c, 0, 62, 32
3, 40800, Note_on_c, 0, 62, 0
3, 40800, Note_on_c, 0, 55, 40
3, 40920, Note_on_c, 0, 55, 0
3, 40920, Note_on_c, 0, 62, 33
3, 41040, Note_on_c, 0, 62, 0
3, 41040, Note_on_c, 0, 55, 40
3, 41160, Note_on_c, 0, 55, 0
3, 41160, Note_on_c, 0, 62, 32
3, 41280, Note_on_c, 0, 62, 0
3, 41280, Note_on_c, 0, 59, 37
3, 41400, Note_on_c, 0, 59, 0
3, 41400, Note_on_c, 0, 62, 33
3, 41520, Note_on_c, 0, 62, 0
3, 41520, Note_on_c, 0, 55, 34
3, 41640, Note_on_c, 0, 55, 0
3, 41640, Note_on_c, 0, 62, 29
3, 41760, Note_on_c, 0, 62, 0
3, 41760, Note_on_c, 0, 60, 34
3, 42000, Note_on_c, 0, 60, 0
3, 42000, Note_on_c, 0, 59, 38
3, 42240, Note_on_c, 0, 59, 0
3, 42240, Note_on_c, 0, 62, 30
3, 42480, Note_on_c, 0, 62, 0
3, 42480, Note_on_c, 0, 60, 34
3, 42720, Note_on_c, 0, 60, 0
3, 42720, Note_on_c, 0, 59, 38
3, 42960, Note_on_c, 0, 59, 0
3, 42960, Note_on_c, 0, 63, 36
3, 43195, Note_on_c, 0, 63, 0
3, 43200, Note_on_c, 0, 63, 40
3, 43440, Note_on_c, 0, 63, 0
3, 43440, Note_on_c, 0, 62, 38
3, 43680, Note_on_c, 0, 62, 0
3, 43680, Note_on_c, 0, 60, 34
3, 43920, Note_on_c, 0, 60, 0
3, 43920, Note_on_c, 0, 55, 34
3, 44040, Note_on_c, 0, 55, 0
3, 44040, Note_on_c, 0, 62, 27
3, 44160, Note_on_c, 0, 62, 0
3, 44160, Note_on_c, 0, 59, 34
3, 44280, Note_on_c, 0, 59, 0
3, 44280, Note_on_c, 0, 62, 27
3, 44400, Note_on_c, 0, 62, 0
3, 44400, Note_on_c, 0, 55, 34
3, 44520, Note_on_c, 0, 55, 0
3, 44520, Note_on_c, 0, 62, 28
3, 44640, Note_on_c, 0, 62, 0
3, 44640, Note_on_c, 0, 60, 40
3, 44760, Note_on_c, 0, 60, 0
3, 44760, Note_on_c, 0, 67, 32
3, 44880, Note_on_c, 0, 67, 0
3, 44880, Note_on_c, 0, 64, 40
3, 45000, Note_on_c, 0, 64, 0
3, 45000, Note_on_c, 0, 67, 32
3, 45120, Note_on_c, 0, 67, 0
3, 45120, Note_on_c, 0, 60, 40
3, 45240, Note_on_c, 0, 60, 0
3, 45240, Note_on_c, 0, 67, 33
3, 45360, Note_on_c, 0, 67, 0
3, 45360, Note_on_c, 0, 59, 40
3, 45480, Note_on_c, 0, 59, 0
3, 45480, Note_on_c, 0, 67, 32
3, 45600, Note_on_c, 0, 67, 0
3, 45600, Note_on_c, 0, 62, 37
3, 45720, Note_on_c, 0, 62, 0
3, 45720, Note_on_c, 0, 67, 33
3, 45840, Note_on_c, 0, 67, 0
3, 45840, Note_on_c, 0, 59, 40
3, 45960, Note_on_c, 0, 59, 0
3, 45960, Note_on_c, 0, 67, 35
3, 46080, Note_on_c, 0, 67, 0
3, 46080, Note_on_c, 0, 60, 40
3, 46560, Note_on_c, 0, 60, 0
3, 46560, Note_on_c, 0, 60, 36
3, 46800, Note_on_c, 0, 60, 0
3, 46800, Note_on_c, 0, 59, 40
3, 47280, Note_on_c, 0, 59, 0
3, 47280, Note_on_c, 0, 60, 43
3, 47520, Note_on_c, 0, 60, 0
3, 47520, Note_on_c, 0, 62, 48
3, 47760, Note_on_c, 0, 62, 0
3, 47760, Note_on_c, 0, 60, 40
3, 48000, Note_on_c, 0, 60, 0
3, 48000, Note_on_c, 0, 59, 40
3, 48240, Note_on_c, 0, 59, 0
3, 48240, Note_on_c, 0, 48, 62
3, 48360, Note_on_c, 0, 48, 0
3, 48360, Note_on_c, 0, 60, 48
3, 48480, Note_on_c, 0, 60, 0
3, 48480, Note_on_c, 0, 50, 57
3, 48600, Note_on_c, 0, 50, 0
3, 48600, Note_on_c, 0, 62, 49
3, 48720, Note_on_c, 0, 62, 0
3, 48720, Note_on_c, 0, 52, 60
3, 48840, Note_on_c, 0, 52, 0
3, 48840, Note_on_c, 0, 64, 50
3, 48960, Note_on_c, 0, 64, 0
3, 48960, Note_on_c, 0, 50, 62
3, 49080, Note_on_c, 0, 50, 0
3, 49080, Note_on_c, 0, 62, 51
3, 49200, Note_on_c, 0, 62, 0
3, 49200, Note_on_c, 0, 52, 62
3, 49320, Note_on_c, 0, 52, 0
3, 49320, Note_on_c, 0, 64, 52
3, 49440, Note_on_c, 0, 64, 0
3, 49440, Note_on_c, 0, 53, 66
3, 49560, Note_on_c, 0, 53, 0
3, 49560, Note_on_c, 0, 65, 55
3, 49680, Note_on_c, 0, 65, 0
3, 49680, Note_on_c, 0, 52, 66
3, 49800, Note_on_c, 0, 52, 0
3, 49800, Note_on_c, 0, 64, 55
3, 49920, Note_on_c, 0, 64, 0
3, 49920, Note_on_c, 0, 53, 66
3, 50040, Note_on_c, 0, 53, 0
3, 50040, Note_on_c, 0, 65, 57
3, 50160, Note_on_c, 0, 65, 0
3, 50160, Note_on_c, 0, 55, 69
3, 50280, Note_on_c, 0, 55, 0
3, 50280, Note_on_c, 0, 67, 62
3, 50400, Note_on_c, 0, 67, 0
3, 50400, Note_on_c, 0, 45, 62
3, 50400, Note_on_c, 0, 57, 71
3, 50880, Note_on_c, 0, 57, 0
3, 50880, Note_on_c, 0, 45, 0
3, 51120, Note_on_c, 0, 59, 50
3, 51600, Note_on_c, 0, 59, 0
3, 51600, Note_on_c, 0, 60, 46
3, 51840, Note_on_c, 0, 60, 0
3, 51840, Note_on_c, 0, 53, 50
3, 52080, Note_on_c, 0, 53, 0
3, 52080, Note_on_c, 0, 55, 42
3, 52320, Note_on_c, 0, 55, 0
3, 52320, Note_on_c, 0, 43, 42
3, 52560, Note_on_c, 0, 43, 0
3, 52560, Note_on_c, 0, 48, 62
3, 52680, Note_on_c, 0, 48, 0
3, 52680, Note_on_c, 0, 60, 48
3, 52800, Note_on_c, 0, 60, 0
3, 52800, Note_on_c, 0, 50, 57
3, 52920, Note_on_c, 0, 50, 0
3, 52920, Note_on_c, 0, 62, 49
3, 53040, Note_on_c, 0, 62, 0
3, 53040, Note_on_c, 0, 52, 60
3, 53160, Note_on_c, 0, 52, 0
3, 53160, Note_on_c, 0, 64, 50
3, 53280, Note_on_c, 0, 64, 0
3, 53280, Note_on_c, 0, 50, 62
3, 53400, Note_on_c, 0, 50, 0
3, 53400, Note_on_c, 0, 62, 51
3, 53520, Note_on_c, 0, 62, 0
3, 53520, Note_on_c, 0, 52, 62
3, 53640, Note_on_c, 0, 52, 0
3, 53640, Note_on_c, 0, 64, 52
3, 53760, Note_on_c, 0, 64, 0
3, 53760, Note_on_c, 0, 53, 66
3, 53880, Note_on_c, 0, 53, 0
3, 53880, Note_on_c, 0, 65, 55
3, 54000, Note_on_c, 0, 65, 0
3, 54000, Note_on_c, 0, 52, 66
3, 54120, Note_on_c, 0, 52, 0
3, 54120, Note_on_c, 0, 64, 55
3, 54240, Note_on_c, 0, 64, 0
3, 54240, Note_on_c, 0, 53, 66
3, 54360, Note_on_c, 0, 53, 0
3, 54360, Note_on_c, 0, 65, 57
3, 54480, Note_on_c, 0, 65, 0
3, 54480, Note_on_c, 0, 55, 69
3, 54600, Note_on_c, 0, 55, 0
3, 54600, Note_on_c, 0, 67, 62
3, 54720, Note_on_c, 0, 67, 0
3, 54720, Note_on_c, 0, 45, 62
3, 54720, Note_on_c, 0, 57, 71
3, 55200, Note_on_c, 0, 57, 0
3, 55200, Note_on_c, 0, 45, 0
3, 55440, Note_on_c, 0, 59, 50
3, 55920, Note_on_c, 0, 59, 0
3, 55920, Note_on_c, 0, 60, 46
3, 56160, Note_on_c, 0, 60, 0
3, 56160, Note_on_c, 0, 53, 50
3, 56400, Note_on_c, 0, 53, 0
3, 56400, Note_on_c, 0, 55, 42
3, 56640, Note_on_c, 0, 55, 0
3, 56640, Note_on_c, 0, 43, 42
3, 56880, Note_on_c, 0, 43, 0
3, 56880, Note_on_c, 0, 48, 50
3, 57120, Note_on_c, 0, 48, 0
3, 57120, Note_on_c, 0, 36, 38
3, 57360, Note_on_c, 0, 36, 0
3, 57600, Note_on_c, 0, 55, 40
3, 57720, Note_on_c, 0, 55, 0
3, 57720, Note_on_c, 0, 62, 32
3, 57840, Note_on_c, 0, 62, 0
3, 57840, Note_on_c, 0, 59, 40
3, 57960, Note_on_c, 0, 59, 0
3, 57960, Note_on_c, 0, 62, 32
3, 58080, Note_on_c, 0, 62, 0
3, 58080, Note_on_c, 0, 55, 40
3, 58200, Note_on_c, 0, 55, 0
3, 58200, Note_on_c, 0, 62, 33
3, 58320, Note_on_c, 0, 62, 0
3, 58320, Note_on_c, 0, 55, 40
3, 58440, Note_on_c, 0, 55, 0
3, 58440, Note_on_c, 0, 62, 32
3, 58560, Note_on_c, 0, 62, 0
3, 58560, Note_on_c, 0, 59, 37
3, 58680, Note_on_c, 0, 59, 0
3, 58680, Note_on_c, 0, 62, 33
3, 58800, Note_on_c, 0, 62, 0
3, 58800, Note_on_c, 0, 55, 40
3, 58920, Note_on_c, 0, 55, 0
3, 58920, Note_on_c, 0, 62, 35
3, 59040, Note_on_c, 0, 62, 0
3, 59040, Note_on_c, 0, 60, 40
3, 59280, Note_on_c, 0, 60, 0
3, 59280, Note_on_c, 0, 59, 45
3, 59520, Note_on_c, 0, 59, 0
3, 59520, Note_on_c, 0, 62, 36
3, 59760, Note_on_c, 0, 62, 0
3, 59760, Note_on_c, 0, 60, 40
3, 60000, Note_on_c, 0, 60, 0
3, 60000, Note_on_c, 0, 59, 45
3, 60240, Note_on_c, 0, 59, 0
3, 60240, Note_on_c, 0, 64, 43
3, 60476, Note_on_c, 0, 64, 0
3, 60480, Note_on_c, 0, 64, 48
3, 60720, Note_on_c, 0, 64, 0
3, 60720, Note_on_c, 0, 62, 45
3, 60960, Note_on_c, 0, 62, 0
3, 60960, Note_on_c, 0, 60, 40
3, 61200, Note_on_c, 0, 60, 0
3, 61200, Note_on_c, 0, 55, 40
3, 61320, Note_on_c, 0, 55, 0
3, 61320, Note_on_c, 0, 62, 32
3, 61440, Note_on_c, 0, 62, 0
3, 61440, Note_on_c, 0, 59, 40
3, 61560, Note_on_c, 0, 59, 0
3, 61560, Note_on_c, 0, 62, 32
3, 61680, Note_on_c, 0, 62, 0
3, 61680, Note_on_c, 0, 55, 40
3, 61800, Note_on_c, 0, 55, 0
3, 61800, Note_on_c, 0, 62, 33
3, 61920, Note_on_c, 0, 62, 0
3, 61920, Note_on_c, 0, 55, 40
3, 62040, Note_on_c, 0, 55, 0
3, 62040, Note_on_c, 0, 62, 32
3, 62160, Note_on_c, 0, 62, 0
3, 62160, Note_on_c, 0, 59, 40
3, 62280, Note_on_c, 0, 59, 0
3, 62280, Note_on_c, 0, 62, 32
3, 62400, Note_on_c, 0, 62, 0
3, 62400, Note_on_c, 0, 55, 40
3, 62520, Note_on_c, 0, 55, 0
3, 62520, Note_on_c, 0, 62, 33
3, 62640, Note_on_c, 0, 62, 0
3, 62640, Note_on_c, 0, 55, 40
3, 62760, Note_on_c, 0, 55, 0
3, 62760, Note_on_c, 0, 62, 32
3, 62880, Note_on_c, 0, 62, 0
3, 62880, Note_on_c, 0, 59, 37
3, 63000, Note_on_c, 0, 59, 0
3, 63000, Note_on_c, 0, 62, 33
3, 63120, Note_on_c, 0, 62, 0
3, 63120, Note_on_c, 0, 55, 34
3, 63240, Note_on_c, 0, 55, 0
3, 63240, Note_on_c, 0, 62, 29
3, 63360, Note_on_c, 0, 62, 0
3, 63360, Note_on_c, 0, 60, 34
3, 63600, Note_on_c, 0, 60, 0
3, 63600, Note_on_c, 0, 59, 38
3, 63840, Note_on_c, 0, 59, 0
3, 63840, Note_on_c, 0, 62, 30
3, 64080, Note_on_c, 0, 62, 0
3, 64080, Note_on_c, 0, 60, 34
3, 64320, Note_on_c, 0, 60, 0
3, 64320, Note_on_c, 0, 59, 38
3, 64560, Note_on_c, 0, 59, 0
3, 64560, Note_on_c, 0, 63, 36
3, 64795, Note_on_c, 0, 63, 0
3, 64800, Note_on_c, 0, 63, 40
3, 65040, Note_on_c, 0, 63, 0
3, 65040, Note_on_c, 0, 62, 38
3, 65280, Note_on_c, 0, 62, 0
3, 65280, Note_on_c, 0, 60, 34
3, 65520, Note_on_c, 0, 60, 0
3, 65520, Note_on_c, 0, 55, 34
3, 65640, Note_on_c, 0, 55, 0
3, 65640, Note_on_c, 0, 62, 27
3, 65760, Note_on_c, 0, 62, 0
3, 65760, Note_on_c, 0, 59, 34
3, 65880, Note_on_c, 0, 59, 0
3, 65880, Note_on_c, 0, 62, 27
3, 66000, Note_on_c, 0, 62, 0
3, 66000, Note_on_c, 0, 55, 34
3, 66120, Note_on_c, 0, 55, 0
3, 66120, Note_on_c, 0, 62, 28
3, 66240, Note_on_c, 0, 62, 0
3, 66240, Note_on_c, 0, 60, 40
3, 66360, Note_on_c, 0, 60, 0
3, 66360, Note_on_c, 0, 67, 32
3, 66480, Note_on_c, 0, 67, 0
3, 66480, Note_on_c, 0, 64, 40
3, 66600, Note_on_c, 0, 64, 0
3, 66600, Note_on_c, 0, 67, 32
3, 66720, Note_on_c, 0, 67, 0
3, 66720, Note_on_c, 0, 60, 40
3, 66840, Note_on_c, 0, 60, 0
3, 66840, Note_on_c, 0, 67, 33
3, 66960, Note_on_c, 0, 67, 0
3, 66960, Note_on_c, 0, 59, 40
3, 67080, Note_on_c, 0, 59, 0
3, 67080, Note_on_c, 0, 67, 32
3, 67200, Note_on_c, 0, 67, 0
3, 67200, Note_on_c, 0, 62, 37
3, 67320, Note_on_c, 0, 62, 0
3, 67320, Note_on_c, 0, 67, 33
3, 67440, Note_on_c, 0, 67, 0
3, 67440, Note_on_c, 0, 59, 40
3, 67560, Note_on_c, 0, 59, 0
3, 67560, Note_on_c, 0, 67, 35
3, 67680, Note_on_c, 0, 67, 0
3, 67680, Note_on_c, 0, 60, 40
3, 68160, Note_on_c, 0, 60, 0
3, 68160, Note_on_c, 0, 60, 36
3, 68400, Note_on_c, 0, 60, 0
3, 68400, Note_on_c, 0, 59, 40
3, 68880, Note_on_c, 0, 59, 0
3, 68880, Note_on_c, 0, 60, 43
3, 69120, Note_on_c, 0, 60, 0
3, 69120, Note_on_c, 0, 62, 48
3, 69360, Note_on_c, 0, 62, 0
3, 69360, Note_on_c, 0, 60, 40
3, 69600, Note_on_c, 0, 60, 0
3, 69600, Note_on_c, 0, 59, 40
3, 69840, Note_on_c, 0, 59, 0
3, 69840, Note_on_c, 0, 48, 62
3, 69960, Note_on_c, 0, 48, 0
3, 69960, Note_on_c, 0, 60, 48
3, 70080, Note_on_c, 0, 60, 0
3, 70080, Note_on_c, 0, 50, 57
3, 70200, Note_on_c, 0, 50, 0
3, 70200, Note_on_c, 0, 62, 49
3, 70320, Note_on_c, 0, 62, 0
3, 70320, Note_on_c, 0, 52, 60
3, 70440, Note_on_c, 0, 52, 0
3, 70440, Note_on_c, 0, 64, 50
3, 70560, Note_on_c, 0, 64, 0
3, 70560, Note_on_c, 0, 50, 62
3, 70680, Note_on_c, 0, 50, 0
3, 70680, Note_on_c, 0, 62, 51
3, 70800, Note_on_c, 0, 62, 0
3, 70800, Note_on_c, 0, 52, 62
3, 70920, Note_on_c, 0, 52, 0
3, 70920, Note_on_c, 0, 64, 52
3, 71040, Note_on_c, 0, 64, 0
3, 71040, Note_on_c, 0, 53, 66
3, 71160, Note_on_c, 0, 53, 0
3, 71160, Note_on_c, 0, 65, 55
3, 71280, Note_on_c, 0, 65, 0
3, 71280, Note_on_c, 0, 52, 66
3, 71400, Note_on_c, 0, 52, 0
3, 71400, Note_on_c, 0, 64, 55
3, 71520, Note_on_c, 0, 64, 0
3, 71520, Note_on_c, 0, 53, 66
3, 71640, Note_on_c, 0, 53, 0
3, 71640, Note_on_c, 0, 65, 57
3, 71760, Note_on_c, 0, 65, 0
3, 71760, Note_on_c, 0, 55, 69
3, 71880, Note_on_c, 0, 55, 0
3, 71880, Note_on_c, 0, 67, 62
3, 72000, Note_on_c, 0, 67, 0
3, 72000, Note_on_c, 0, 45, 62
3, 72000, Note_on_c, 0, 57, 71
3, 72480, Note_on_c, 0, 57, 0
3, 72480, Note_on_c, 0, 45, 0
3, 72720, Note_on_c, 0, 59, 50
3, 73200, Note_on_c, 0, 59, 0
3, 73200, Note_on_c, 0, 60, 46
3, 73440, Note_on_c, 0, 60, 0
3, 73440, Note_on_c, 0, 53, 50
3, 73680, Note_on_c, 0, 53, 0
3, 73680, Note_on_c, 0, 55, 42
3, 73920, Note_on_c, 0, 55, 0
3, 73920, Note_on_c, 0, 43, 42
3, 74160, Note_on_c, 0, 43, 0
3, 74160, Note_on_c, 0, 48, 62
3, 74280, Note_on_c, 0, 48, 0
3, 74280, Note_on_c, 0, 60, 48
3, 74400, Note_on_c, 0, 60, 0
3, 74400, Note_on_c, 0, 50, 57
3, 74520, Note_on_c, 0, 50, 0
3, 74520, Note_on_c, 0, 62, 49
3, 74640, Note_on_c, 0, 62, 0
3, 74640, Note_on_c, 0, 52, 60
3, 74760, Note_on_c, 0, 52, 0
3, 74760, Note_on_c, 0, 64, 50
3, 74880, Note_on_c, 0, 64, 0
3, 74880, Note_on_c, 0, 50, 62
3, 75000, Note_on_c, 0, 50, 0
3, 75000, Note_on_c, 0, 62, 51
3, 75120, Note_on_c, 0, 62, 0
3, 75120, Note_on_c, 0, 52, 62
3, 75240, Note_on_c, 0, 52, 0
3, 75240, Note_on_c, 0, 64, 52
3, 75360, Note_on_c, 0, 64, 0
3, 75360, Note_on_c, 0, 53, 66
3, 75480, Note_on_c, 0, 53, 0
3, 75480, Note_on_c, 0, 65, 55
3, 75600, Note_on_c, 0, 65, 0
3, 75600, Note_on_c, 0, 52, 66
3, 75720, Note_on_c, 0, 52, 0
3, 75720, Note_on_c, 0, 64, 55
3, 75840, Note_on_c, 0, 64, 0
3, 75840, Note_on_c, 0, 53, 66
3, 75960, Note_on_c, 0, 53, 0
3, 75960, Note_on_c, 0, 65, 57
3, 76080, Note_on_c, 0, 65, 0
3, 76080, Note_on_c, 0, 55, 69
3, 76200, Note_on_c, 0, 55, 0
3, 76200, Note_on_c, 0, 67, 62
3, 76320, Note_on_c, 0, 67, 0
3, 76320, Note_on_c, 0, 45, 62
3, 76320, Note_on_c, 0, 57, 71
3, 76800, Note_on_c, 0, 57, 0
3, 76800, Note_on_c, 0, 45, 0
3, 77040, Note_on_c, 0, 59, 50
3, 77520, Note_on_c, 0, 59, 0
3, 77520, Note_on_c, 0, 60, 46
3, 77760, Note_on_c, 0, 60, 0
3, 77760, Note_on_c, 0, 53, 50
3, 78000, Note_on_c, 0, 53, 0
3, 78000, Note_on_c, 0, 55, 42
3, 78240, Note_on_c, 0, 55, 0
3, 78240, Note_on_c, 0, 43, 42
3, 78480, Note_on_c, 0, 43, 0
3, 78480, Note_on_c, 0, 48, 50
3, 78720, Note_on_c, 0, 48, 0
3, 78720, Note_on_c, 0, 36, 38
3, 78960, Note_on_c, 0, 36, 0
3, 78960, End_track
4, 0, Start_track
4, 0, Title_t, "Pedale"
4, 0, Program_c, 0, 0
4, 36, Control_c, 0, 64, 127
4, 486, Control_c, 0, 64, 0
4, 777, Control_c, 0, 64, 127
4, 1207, Control_c, 0, 64, 0
4, 1271, Control_c, 0, 64, 127
4, 1468, Control_c, 0, 64, 0
4, 1977, Control_c, 0, 64, 127
4, 2160, Control_c, 0, 64, 0
4, 2210, Control_c, 0, 64, 127
4, 2650, Control_c, 0, 64, 0
4, 2746, Control_c, 0, 64, 127
4, 2896, Control_c, 0, 64, 0
4, 2958, Control_c, 0, 64, 127
4, 3129, Control_c, 0, 64, 0
4, 3198, Control_c, 0, 64, 127
4, 3369, Control_c, 0, 64, 0
4, 3452, Control_c, 0, 64, 127
4, 3600, Control_c, 0, 64, 0
4, 4387, Control_c, 0, 64, 127
4, 4810, Control_c, 0, 64, 0
4, 5083, Control_c, 0, 64, 127
4, 5529, Control_c, 0, 64, 0
4, 5598, Control_c, 0, 64, 127
4, 5803, Control_c, 0, 64, 0
4, 6249, Control_c, 0, 64, 127
4, 6480, Control_c, 0, 64, 0
4, 6579, Control_c, 0, 64, 127
4, 6973, Control_c, 0, 64, 0
4, 7038, Control_c, 0, 64, 127
4, 7200, Control_c, 0, 64, 0
4, 7306, Control_c, 0, 64, 127
4, 7698, Control_c, 0, 64, 0
4, 7765, Control_c, 0, 64, 127
4, 7920, Control_c, 0, 64, 0
4, 12735, Control_c, 0, 64, 127
4, 12967, Control_c, 0, 64, 0
4, 17083, Control_c, 0, 64, 127
4, 17287, Control_c, 0, 64, 0
4, 18060, Control_c, 0, 64, 127
4, 18486, Control_c, 0, 64, 0
4, 18777, Control_c, 0, 64, 127
4, 19207, Control_c, 0, 64, 0
4, 19271, Control_c, 0, 64, 127
4, 19468, Control_c, 0, 64, 0
4, 19977, Control_c, 0, 64, 127
4, 20160, Control_c, 0, 64, 0
4, 20210, Control_c, 0, 64, 127
4, 20650, Control_c, 0, 64, 0
4, 20746, Control_c, 0, 64, 127
4, 20896, Control_c, 0, 64, 0
4, 20958, Control_c, 0, 64, 127
4, 21129, Control_c, 0, 64, 0
4, 21198, Control_c, 0, 64, 127
4, 21369, Control_c, 0, 64, 0
4, 21452, Control_c, 0, 64, 127
4, 21600, Control_c, 0, 64, 0
4, 22387, Control_c, 0, 64, 127
4, 22810, Control_c, 0, 64, 0
4, 23083, Control_c, 0, 64, 127
4, 23529, Control_c, 0, 64, 0
4, 23598, Control_c, 0, 64, 127
4, 23803, Control_c, 0, 64, 0
4, 24249, Control_c, 0, 64, 127
4, 24480, Control_c, 0, 64, 0
4, 24579, Control_c, 0, 64, 127
4, 24973, Control_c, 0, 64, 0
4, 25038, Control_c, 0, 64, 127
4, 25200, Control_c, 0, 64, 0
4, 25306, Control_c, 0, 64, 127
4, 25698, Control_c, 0, 64, 0
4, 25765, Control_c, 0, 64, 127
4, 25920, Control_c, 0, 64, 0
4, 30735, Control_c, 0, 64, 127
4, 30967, Control_c, 0, 64, 0
4, 35083, Control_c, 0, 64, 127
4, 35287, Control_c, 0, 64, 0
4, 36036, Control_c, 0, 64, 127
4, 36486, Control_c, 0, 64, 0
4, 36551, Control_c, 0, 64, 127
4, 36720, Control_c, 0, 64, 0
4, 36777, Control_c, 0, 64, 127
4, 37446, Control_c, 0, 64, 0
4, 37510, Control_c, 0, 64, 127
4, 37682, Control_c, 0, 64, 0
4, 37744, Control_c, 0, 64, 127
4, 37926, Control_c, 0, 64, 0
4, 38012, Control_c, 0, 64, 127
4, 38160, Control_c, 0, 64, 0
4, 38210, Control_c, 0, 64, 127
4, 38418, Control_c, 0, 64, 0
4, 38492, Control_c, 0, 64, 127
4, 38650, Control_c, 0, 64, 0
4, 38746, Control_c, 0, 64, 127
4, 38896, Control_c, 0, 64, 0
4, 38958, Control_c, 0, 64, 127
4, 39129, Control_c, 0, 64, 0
4, 39198, Control_c, 0, 64, 127
4, 39369, Control_c, 0, 64, 0
4, 39452, Control_c, 0, 64, 127
4, 39600, Control_c, 0, 64, 0
4, 39678, Control_c, 0, 64, 127
4, 40320, Control_c, 0, 64, 0
4, 40356, Control_c, 0, 64, 127
4, 40806, Control_c, 0, 64, 0
4, 40871, Control_c, 0, 64, 127
4, 41040, Control_c, 0, 64, 0
4, 41097, Control_c, 0, 64, 127
4, 41766, Control_c, 0, 64, 0
4, 41830, Control_c, 0, 64, 127
4, 42002, Control_c, 0, 64, 0
4, 42064, Control_c, 0, 64, 127
4, 42246, Control_c, 0, 64, 0
4, 42332, Control_c, 0, 64, 127
4, 42480, Control_c, 0, 64, 0
4, 42530, Control_c, 0, 64, 127
4, 42738, Control_c, 0, 64, 0
4, 42812, Control_c, 0, 64, 127
4, 42970, Control_c, 0, 64, 0
4, 43066, Control_c, 0, 64, 127
4, 43216, Control_c, 0, 64, 0
4, 43278, Control_c, 0, 64, 127
4, 43449, Control_c, 0, 64, 0
4, 43518, Control_c, 0, 64, 127
4, 43689, Control_c, 0, 64, 0
4, 43772, Control_c, 0, 64, 127
4, 43920, Control_c, 0, 64, 0
4, 43998, Control_c, 0, 64, 127
4, 44640, Control_c, 0, 64, 0
4, 44707, Control_c, 0, 64, 127
4, 45130, Control_c, 0, 64, 0
4, 45452, Control_c, 0, 64, 127
4, 45849, Control_c, 0, 64, 0
4, 45918, Control_c, 0, 64, 127
4, 46123, Control_c, 0, 64, 0
4, 46569, Control_c, 0, 64, 127
4, 46800, Control_c, 0, 64, 0
4, 46899, Control_c, 0, 64, 127
4, 47293, Control_c, 0, 64, 0
4, 47358, Control_c, 0, 64, 127
4, 47520, Control_c, 0, 64, 0
4, 47626, Control_c, 0, 64, 127
4, 47774, Control_c, 0, 64, 0
4, 47838, Control_c, 0, 64, 127
4, 48018, Control_c, 0, 64, 0
4, 48085, Control_c, 0, 64, 127
4, 48240, Control_c, 0, 64, 0
4, 52335, Control_c, 0, 64, 127
4, 52567, Control_c, 0, 64, 0
4, 56683, Control_c, 0, 64, 127
4, 56887, Control_c, 0, 64, 0
4, 57636, Control_c, 0, 64, 127
4, 58086, Control_c, 0, 64, 0
4, 58151, Control_c, 0, 64, 127
4, 58320, Control_c, 0, 64, 0
4, 58377, Control_c, 0, 64, 127
4, 59046, Control_c, 0, 64, 0
4, 59110, Control_c, 0, 64, 127
4, 59282, Control_c, 0, 64, 0
4, 59344, Control_c, 0, 64, 127
4, 59526, Control_c, 0, 64, 0
4, 59612, Control_c, 0, 64, 127
4, 59760, Control_c, 0, 64, 0
4, 59810, Control_c, 0, 64, 127
4, 60018, Control_c, 0, 64, 0
4, 60092, Control_c, 0, 64, 127
4, 60250, Control_c, 0, 64, 0
4, 60346, Control_c, 0, 64, 127
4, 60496, Control_c, 0, 64, 0
4, 60558, Control_c, 0, 64, 127
4, 60729, Control_c, 0, 64, 0
4, 60798, Control_c, 0, 64, 127
4, 60969, Control_c, 0, 64, 0
4, 61052, Control_c, 0, 64, 127
4, 61200, Control_c, 0, 64, 0
4, 61278, Control_c, 0, 64, 127
4, 61920, Control_c, 0, 64, 0
4, 61956, Control_c, 0, 64, 127
4, 62406, Control_c, 0, 64, 0
4, 62471, Control_c, 0, 64, 127
4, 62640, Control_c, 0, 64, 0
4, 62697, Control_c, 0, 64, 127
4, 63366, Control_c, 0, 64, 0
4, 63430, Control_c, 0, 64, 127
4, 63602, Control_c, 0, 64, 0
4, 63664, Control_c, 0, 64, 127
4, 63846, Control_c, 0, 64, 0
4, 63932, Control_c, 0, 64, 127
4, 64080, Control_c, 0, 64, 0
4, 64130, Control_c, 0, 64, 127
4, 64338, Control_c, 0, 64, 0
4, 64412, Control_c, 0, 64, 127
4, 64570, Control_c, 0, 64, 0
4, 64666, Control_c, 0, 64, 127
4, 64816, Control_c, 0, 64, 0
4, 64878, Control_c, 0, 64, 127
4, 65049, Control_c, 0, 64, 0
4, 65118, Control_c, 0, 64, 127
4, 65289, Control_c, 0, 64, 0
4, 65372, Control_c, 0, 64, 127
4, 65520, Control_c, 0, 64, 0
4, 65598, Control_c, 0, 64, 127
4, 66240, Control_c, 0, 64, 0
4, 66307, Control_c, 0, 64, 127
4, 66730, Control_c, 0, 64, 0
4, 67052, Control_c, 0, 64, 127
4, 67449, Control_c, 0, 64, 0
4, 67518, Control_c, 0, 64, 127
4, 67723, Control_c, 0, 64, 0
4, 68169, Control_c, 0, 64, 127
4, 68400, Control_c, 0, 64, 0
4, 68499, Control_c, 0, 64, 127
4, 68893, Control_c, 0, 64, 0
4, 68958, Control_c, 0, 64, 127
4, 69120, Control_c, 0, 64, 0
4, 69226, Control_c, 0, 64, 127
4, 69374, Control_c, 0, 64, 0
4, 69438, Control_c, 0, 64, 127
4, 69618, Control_c, 0, 64, 0
4, 69685, Control_c, 0, 64, 127
4, 69840, Control_c, 0, 64, 0
4, 73935, Control_c, 0, 64, 127
4, 74167, Control_c, 0, 64, 0
4, 78283, Control_c, 0, 64, 127
4, 78487, Control_c, 0, 64, 0
4, 78487, End_track
5, 0, Start_track
5, 0, Title_t, "Haydn Piano Sonata in C major, 3. movement"
5, 0, End_track
6, 0, Start_track
6, 0, Title_t, "Copyright © 2010 by Bernd Krueger"
6, 0, End_track
7, 0, Start_track
7, 0, Title_t, "http://www.piano-midi.de/"
7, 0, End_track
8, 0, Start_track
8, 0, Title_t, "Edition: 2011-10-28"
8, 0, End_track
9, 0, Start_track
9, 0, Title_t, "Spur 8"
9, 0, End_track
10, 0, Start_track
10, 0, Title_t, "Spur 9"
10, 0, End_track
11, 0, Start_track
11, 0, Title_t, "Spur 10"
11, 0, End_track
12, 0, Start_track
12, 0, Title_t, "Spur 11"
12, 0, End_track
13, 0, Start_track
13, 0, Title_t, "Spur 12"
13, 0, End_track
14, 0, Start_track
14, 0, Title_t, "Spur 13"
14, 0, End_track
15, 0, Start_track
15, 0, Title_t, "Spur 14"
15, 0, End_track
16, 0, Start_track
16, 0, Title_t, "Spur 15"
16, 0, End_track
17, 0, Start_track
17, 0, Title_t, "Spur 16"
17, 0, End_track
0, 0, End_of_file
