0, 0, Header, 1, 17, 480
1, 0, Start_track
1, 0, Title_t, "Haydn: Klaviersonate Hoboken XVI: 43 2. Satz"
1, 0, Copyright_t, "Copyright © 2012 by Bernd Krueger"
1, 0, Text_t, "Bernd Krueger"
1, 0, Text_t, "Menuet"
1, 0, Text_t, "Erstellt: 13.1.2012\012"
1, 0, Text_t, "Dauer: 2:29 Minuten\012"
1, 0, Time_signature, 3, 2, 24, 8
1, 0, Key_signature, -4, "major"
1, 0, Tempo, 503229
1, 960, Marker_t, "Teil 1"
1, 1320, Tempo, 457213
1, 1440, Tempo, 503229
1, 2760, Tempo, 455477
1, 2880, Tempo, 503229
1, 4200, Tempo, 458961
1, 4320, Tempo, 482975
1, 4800, Tempo, 488878
1, 5280, Tempo, 516218
1, 5760, Tempo, 501128
1, 7080, Tempo, 475323
1, 7200, Tempo, 490878
1, 7680, Tempo, 501128
1, 8160, Tempo, 514007
1, 8640, Tempo, 492894
1, 9120, Tempo, 503229
1, 9960, Tempo, 473447
1, 10080, Tempo, 486894
1, 10560, Tempo, 501128
1, 11040, Tempo, 527565
1, 11520, Tempo, 496977
1, 12420, Tempo, 503229
1, 12480, Marker_t, "Teil 1 Wiederholung"
1, 12840, Tempo, 457213
1, 12960, Tempo, 503229
1, 14280, Tempo, 455477
1, 14400, Tempo, 503229
1, 15720, Tempo, 458961
1, 15840, Tempo, 482975
1, 16320, Tempo, 488878
1, 16800, Tempo, 516218
1, 17280, Tempo, 501128
1, 18600, Tempo, 475323
1, 18720, Tempo, 490878
1, 19200, Tempo, 501128
1, 19680, Tempo, 514007
1, 20160, Tempo, 492894
1, 20640, Tempo, 503229
1, 21480, Tempo, 473447
1, 21600, Tempo, 486894
1, 22080, Tempo, 501128
1, 22560, Tempo, 527565
1, 23040, Tempo, 496977
1, 24000, Tempo, 503229
1, 24000, Marker_t, "Teil 2"
1, 24360, Tempo, 457213
1, 24480, Tempo, 503229
1, 25440, Tempo, 490878
1, 25800, Tempo, 492894
1, 25920, Tempo, 507485
1, 26400, Tempo, 514007
1, 26880, Tempo, 492894
1, 27240, Tempo, 492894
1, 27360, Tempo, 505348
1, 27480, Tempo, 505348
1, 27840, Tempo, 520698
1, 28320, Tempo, 499043
1, 28680, Tempo, 492894
1, 28800, Tempo, 488878
1, 29280, Tempo, 496977
1, 29760, Tempo, 514007
1, 30240, Tempo, 499043
1, 31200, Tempo, 514007
1, 31560, Tempo, 469741
1, 31680, Tempo, 499043
1, 32640, Tempo, 514007
1, 33000, Tempo, 469741
1, 33120, Tempo, 499043
1, 33600, Tempo, 514007
1, 34080, Tempo, 546797
1, 34440, Tempo, 620283
1, 34560, Tempo, 499043
1, 35040, Tempo, 556948
1, 35520, Tempo, 503229
1, 35880, Tempo, 457213
1, 36000, Tempo, 503229
1, 37320, Tempo, 455477
1, 37440, Tempo, 499043
1, 37920, Tempo, 534616
1, 38400, Tempo, 501128
1, 38760, Tempo, 458961
1, 38880, Tempo, 482975
1, 39360, Tempo, 488878
1, 39840, Tempo, 503229
1, 40200, Tempo, 458961
1, 40320, Tempo, 482975
1, 40800, Tempo, 488878
1, 41280, Tempo, 503229
1, 41640, Tempo, 458961
1, 41760, Tempo, 482975
1, 42240, Tempo, 488878
1, 42720, Tempo, 527565
1, 43200, Tempo, 537009
1, 44160, Tempo, 503229
1, 44160, Marker_t, "Teil 2 Wiederholung"
1, 44520, Tempo, 457213
1, 44640, Tempo, 503229
1, 45600, Tempo, 494927
1, 45960, Tempo, 492894
1, 46080, Tempo, 499043
1, 46560, Tempo, 511814
1, 47040, Tempo, 501128
1, 47400, Tempo, 492894
1, 47520, Tempo, 505348
1, 48000, Tempo, 516218
1, 48480, Tempo, 501128
1, 48840, Tempo, 492894
1, 48960, Tempo, 496977
1, 49440, Tempo, 503229
1, 49920, Tempo, 516218
1, 50400, Tempo, 499043
1, 51360, Tempo, 514007
1, 51720, Tempo, 469741
1, 51840, Tempo, 499043
1, 52800, Tempo, 514007
1, 53160, Tempo, 469741
1, 53280, Tempo, 499043
1, 53760, Tempo, 514007
1, 54240, Tempo, 546797
1, 54600, Tempo, 620283
1, 54720, Tempo, 499043
1, 55200, Tempo, 556948
1, 55680, Tempo, 503229
1, 56040, Tempo, 457213
1, 56160, Tempo, 503229
1, 57480, Tempo, 455477
1, 57600, Tempo, 499043
1, 58080, Tempo, 534616
1, 58560, Tempo, 501128
1, 58920, Tempo, 458961
1, 59040, Tempo, 482975
1, 59520, Tempo, 488878
1, 60000, Tempo, 503229
1, 60360, Tempo, 458961
1, 60480, Tempo, 482975
1, 60960, Tempo, 488878
1, 61440, Tempo, 503229
1, 61800, Tempo, 458961
1, 61920, Tempo, 482975
1, 62400, Tempo, 488878
1, 62880, Tempo, 527565
1, 63360, Tempo, 541859
1, 64320, Tempo, 448665
1, 64320, Marker_t, "Teil 3"
1, 64560, Tempo, 464288
1, 64800, Tempo, 442054
1, 65040, Tempo, 452046
1, 66000, Tempo, 471587
1, 66240, Tempo, 445335
1, 66480, Tempo, 450349
1, 66720, Tempo, 445335
1, 67200, Tempo, 437222
1, 67440, Tempo, 452046
1, 67680, Tempo, 438821
1, 67920, Tempo, 453755
1, 68160, Tempo, 452046
1, 68880, Tempo, 469741
1, 69120, Tempo, 450349
1, 69360, Tempo, 458961
1, 69600, Tempo, 452046
1, 70080, Tempo, 437222
1, 70119, Tempo, 438821
1, 70320, Tempo, 452046
1, 70560, Tempo, 438821
1, 70800, Tempo, 445335
1, 71040, Tempo, 442054
1, 71760, Tempo, 469741
1, 72000, Tempo, 450349
1, 72240, Tempo, 458961
1, 72960, Tempo, 442054
1, 73200, Tempo, 452046
1, 73440, Tempo, 426348
1, 73680, Tempo, 448665
1, 73920, Tempo, 424839
1, 74160, Tempo, 445335
1, 74400, Tempo, 437222
1, 74640, Tempo, 469741
1, 74880, Tempo, 450349
1, 75120, Tempo, 458961
1, 75840, Tempo, 448665
1, 75840, Marker_t, "Teil 3 Wiederholung"
1, 76080, Tempo, 464288
1, 76320, Tempo, 442054
1, 76560, Tempo, 452046
1, 77520, Tempo, 471587
1, 77760, Tempo, 445335
1, 78000, Tempo, 450349
1, 78240, Tempo, 445335
1, 78720, Tempo, 434059
1, 78960, Tempo, 452046
1, 79200, Tempo, 440432
1, 79440, Tempo, 452046
1, 80400, Tempo, 469741
1, 80640, Tempo, 450349
1, 80880, Tempo, 458961
1, 81120, Tempo, 452046
1, 81600, Tempo, 442054
1, 81840, Tempo, 452046
1, 82080, Tempo, 440432
1, 82320, Tempo, 453755
1, 82560, Tempo, 443689
1, 83280, Tempo, 469741
1, 83520, Tempo, 450349
1, 83760, Tempo, 458961
1, 84480, Tempo, 442054
1, 84720, Tempo, 452046
1, 84960, Tempo, 426348
1, 85200, Tempo, 450349
1, 85440, Tempo, 427869
1, 85680, Tempo, 445335
1, 85920, Tempo, 437222
1, 86160, Tempo, 469741
1, 86400, Tempo, 450349
1, 86640, Tempo, 458961
1, 87360, Tempo, 442054
1, 87360, Marker_t, "Teil 4"
1, 87600, Tempo, 452046
1, 87840, Tempo, 429400
1, 88080, Tempo, 446994
1, 88320, Tempo, 429400
1, 88560, Tempo, 445335
1, 88800, Tempo, 437222
1, 89040, Tempo, 469741
1, 89280, Tempo, 450349
1, 89520, Tempo, 458961
1, 90240, Tempo, 442054
1, 90480, Tempo, 452046
1, 90720, Tempo, 435635
1, 90960, Tempo, 453755
1, 91200, Tempo, 430942
1, 91440, Tempo, 445335
1, 91680, Tempo, 455477
1, 91920, Tempo, 503229
1, 92160, Tempo, 473447
1, 93120, Tempo, 448665
1, 93360, Tempo, 464288
1, 93600, Tempo, 442054
1, 93840, Tempo, 452046
1, 94080, Tempo, 448665
1, 94800, Tempo, 471587
1, 95040, Tempo, 445335
1, 95280, Tempo, 450349
1, 95520, Tempo, 445335
1, 96000, Tempo, 437222
1, 96240, Tempo, 452046
1, 96480, Tempo, 440432
1, 96720, Tempo, 448665
1, 97680, Tempo, 469741
1, 97920, Tempo, 450349
1, 98160, Tempo, 458961
1, 98400, Tempo, 452046
1, 98880, Tempo, 442054
1, 99120, Tempo, 452046
1, 99360, Tempo, 426348
1, 99600, Tempo, 453755
1, 99840, Tempo, 427869
1, 100080, Tempo, 445335
1, 100320, Tempo, 437222
1, 100560, Tempo, 469741
1, 100800, Tempo, 450349
1, 101040, Tempo, 458961
1, 101760, Tempo, 442054
1, 101760, Marker_t, "Teil 4 Wiederholung"
1, 102000, Tempo, 452046
1, 102240, Tempo, 430942
1, 102480, Tempo, 445335
1, 102720, Tempo, 427869
1, 102960, Tempo, 445335
1, 103200, Tempo, 437222
1, 103440, Tempo, 469741
1, 103680, Tempo, 450349
1, 103920, Tempo, 458961
1, 104640, Tempo, 442054
1, 104880, Tempo, 452046
1, 105120, Tempo, 438821
1, 105360, Tempo, 453755
1, 105600, Tempo, 435635
1, 105840, Tempo, 445335
1, 106080, Tempo, 462499
1, 106200, Tempo, 488878
1, 106320, Tempo, 518448
1, 106560, Tempo, 473447
1, 107520, Tempo, 448665
1, 107760, Tempo, 464288
1, 108000, Tempo, 442054
1, 108240, Tempo, 452046
1, 109200, Tempo, 471587
1, 109440, Tempo, 445335
1, 109680, Tempo, 450349
1, 109920, Tempo, 445335
1, 110400, Tempo, 437222
1, 110640, Tempo, 452046
1, 110880, Tempo, 440432
1, 111120, Tempo, 453755
1, 111360, Tempo, 450349
1, 112080, Tempo, 469741
1, 112320, Tempo, 450349
1, 112560, Tempo, 458961
1, 112800, Tempo, 452046
1, 113280, Tempo, 442054
1, 113520, Tempo, 452046
1, 113760, Tempo, 426348
1, 114000, Tempo, 445335
1, 114240, Tempo, 429400
1, 114480, Tempo, 445335
1, 114720, Tempo, 437222
1, 114960, Tempo, 477213
1, 115200, Tempo, 450349
1, 115440, Tempo, 458961
1, 116160, Tempo, 503229
1, 116160, Marker_t, "Teil 1 Da capo"
1, 116520, Tempo, 457213
1, 116640, Tempo, 503229
1, 117960, Tempo, 455477
1, 118080, Tempo, 503229
1, 119400, Tempo, 458961
1, 119520, Tempo, 482975
1, 120000, Tempo, 488878
1, 120480, Tempo, 516218
1, 120960, Tempo, 501128
1, 122280, Tempo, 475323
1, 122400, Tempo, 490878
1, 122880, Tempo, 501128
1, 123360, Tempo, 514007
1, 123840, Tempo, 492894
1, 124320, Tempo, 503229
1, 125160, Tempo, 473447
1, 125280, Tempo, 486894
1, 125760, Tempo, 501128
1, 126240, Tempo, 527565
1, 126720, Tempo, 496977
1, 127680, Tempo, 503229
1, 127680, Marker_t, "Teil 2 Da capo"
1, 128040, Tempo, 457213
1, 128160, Tempo, 496977
1, 129120, Tempo, 490878
1, 129480, Tempo, 492894
1, 129600, Tempo, 496977
1, 130080, Tempo, 509641
1, 130560, Tempo, 499043
1, 130920, Tempo, 492894
1, 131040, Tempo, 505348
1, 131160, Tempo, 509641
1, 131520, Tempo, 520698
1, 132000, Tempo, 499043
1, 132360, Tempo, 492894
1, 132480, Tempo, 481039
1, 132960, Tempo, 492894
1, 133440, Tempo, 514007
1, 133920, Tempo, 499043
1, 134880, Tempo, 514007
1, 135240, Tempo, 469741
1, 135360, Tempo, 499043
1, 136320, Tempo, 514007
1, 136680, Tempo, 469741
1, 136800, Tempo, 499043
1, 137280, Tempo, 514007
1, 137760, Tempo, 546797
1, 138120, Tempo, 620283
1, 138240, Tempo, 499043
1, 138720, Tempo, 556948
1, 139200, Tempo, 503229
1, 139560, Tempo, 457213
1, 139680, Tempo, 503229
1, 141000, Tempo, 455477
1, 141120, Tempo, 499043
1, 141600, Tempo, 534616
1, 142080, Tempo, 501128
1, 142440, Tempo, 458961
1, 142560, Tempo, 482975
1, 143040, Tempo, 488878
1, 143520, Tempo, 503229
1, 143880, Tempo, 458961
1, 144000, Tempo, 482975
1, 144480, Tempo, 488878
1, 144960, Tempo, 503229
1, 145320, Tempo, 458961
1, 145440, Tempo, 490878
1, 145920, Tempo, 511814
1, 146400, Tempo, 559545
1, 146880, Tempo, 586912
1, 146880, End_track
2, 0, Start_track
2, 0, Title_t, "Piano right"
2, 0, Program_c, 0, 0
2, 960, Note_on_c, 0, 75, 72
2, 1080, Note_on_c, 0, 75, 0
2, 1320, Note_on_c, 0, 75, 61
2, 1410, Note_on_c, 0, 75, 0
2, 1440, Note_on_c, 0, 75, 72
2, 1920, Note_on_c, 0, 75, 0
2, 2400, Note_on_c, 0, 80, 72
2, 2520, Note_on_c, 0, 80, 0
2, 2760, Note_on_c, 0, 80, 64
2, 2850, Note_on_c, 0, 80, 0
2, 2880, Note_on_c, 0, 80, 72
2, 3360, Note_on_c, 0, 80, 0
2, 3840, Note_on_c, 0, 68, 61
2, 3840, Note_on_c, 0, 72, 72
2, 3960, Note_on_c, 0, 72, 0
2, 3960, Note_on_c, 0, 68, 0
2, 4200, Note_on_c, 0, 68, 51
2, 4200, Note_on_c, 0, 72, 61
2, 4290, Note_on_c, 0, 72, 0
2, 4290, Note_on_c, 0, 68, 0
2, 4320, Note_on_c, 0, 68, 61
2, 4320, Note_on_c, 0, 72, 72
2, 4800, Note_on_c, 0, 72, 0
2, 4800, Note_on_c, 0, 68, 0
2, 4800, Note_on_c, 0, 73, 68
2, 4800, Note_on_c, 0, 70, 57
2, 4920, Note_on_c, 0, 70, 0
2, 4920, Note_on_c, 0, 73, 0
2, 5280, Note_on_c, 0, 73, 52
2, 5280, Note_on_c, 0, 77, 62
2, 5400, Note_on_c, 0, 77, 0
2, 5400, Note_on_c, 0, 73, 0
2, 5760, Note_on_c, 0, 70, 64
2, 5760, Note_on_c, 0, 67, 55
2, 6710, Note_on_c, 0, 67, 0
2, 6710, Note_on_c, 0, 70, 0
2, 6720, Note_on_c, 0, 63, 72
2, 6840, Note_on_c, 0, 63, 0
2, 7080, Note_on_c, 0, 63, 51
2, 7170, Note_on_c, 0, 63, 0
2, 7200, Note_on_c, 0, 68, 72
2, 7320, Note_on_c, 0, 68, 0
2, 7680, Note_on_c, 0, 68, 64
2, 7800, Note_on_c, 0, 68, 0
2, 8160, Note_on_c, 0, 68, 64
2, 8280, Note_on_c, 0, 68, 0
2, 8640, Note_on_c, 0, 70, 72
2, 9120, Note_on_c, 0, 70, 0
2, 9600, Note_on_c, 0, 70, 72
2, 9720, Note_on_c, 0, 70, 0
2, 9960, Note_on_c, 0, 70, 63
2, 10050, Note_on_c, 0, 70, 0
2, 10080, Note_on_c, 0, 72, 72
2, 10200, Note_on_c, 0, 72, 0
2, 10560, Note_on_c, 0, 72, 69
2, 10680, Note_on_c, 0, 72, 0
2, 11040, Note_on_c, 0, 68, 62
2, 11040, Note_on_c, 0, 74, 74
2, 11160, Note_on_c, 0, 74, 0
2, 11160, Note_on_c, 0, 68, 0
2, 11520, Note_on_c, 0, 75, 83
2, 11520, Note_on_c, 0, 67, 70
2, 12000, Note_on_c, 0, 67, 0
2, 12000, Note_on_c, 0, 75, 0
2, 12480, Note_on_c, 0, 75, 72
2, 12600, Note_on_c, 0, 75, 0
2, 12840, Note_on_c, 0, 75, 61
2, 12930, Note_on_c, 0, 75, 0
2, 12960, Note_on_c, 0, 75, 72
2, 13440, Note_on_c, 0, 75, 0
2, 13920, Note_on_c, 0, 80, 72
2, 14040, Note_on_c, 0, 80, 0
2, 14280, Note_on_c, 0, 80, 64
2, 14370, Note_on_c, 0, 80, 0
2, 14400, Note_on_c, 0, 80, 72
2, 14880, Note_on_c, 0, 80, 0
2, 15360, Note_on_c, 0, 68, 61
2, 15360, Note_on_c, 0, 72, 72
2, 15480, Note_on_c, 0, 72, 0
2, 15480, Note_on_c, 0, 68, 0
2, 15720, Note_on_c, 0, 68, 51
2, 15720, Note_on_c, 0, 72, 61
2, 15810, Note_on_c, 0, 72, 0
2, 15810, Note_on_c, 0, 68, 0
2, 15840, Note_on_c, 0, 68, 61
2, 15840, Note_on_c, 0, 72, 72
2, 16320, Note_on_c, 0, 72, 0
2, 16320, Note_on_c, 0, 68, 0
2, 16320, Note_on_c, 0, 73, 68
2, 16320, Note_on_c, 0, 70, 57
2, 16440, Note_on_c, 0, 70, 0
2, 16440, Note_on_c, 0, 73, 0
2, 16800, Note_on_c, 0, 73, 52
2, 16800, Note_on_c, 0, 77, 62
2, 16920, Note_on_c, 0, 77, 0
2, 16920, Note_on_c, 0, 73, 0
2, 17280, Note_on_c, 0, 70, 64
2, 17280, Note_on_c, 0, 67, 55
2, 18230, Note_on_c, 0, 67, 0
2, 18230, Note_on_c, 0, 70, 0
2, 18240, Note_on_c, 0, 63, 72
2, 18360, Note_on_c, 0, 63, 0
2, 18600, Note_on_c, 0, 63, 51
2, 18690, Note_on_c, 0, 63, 0
2, 18720, Note_on_c, 0, 68, 72
2, 18840, Note_on_c, 0, 68, 0
2, 19200, Note_on_c, 0, 68, 64
2, 19320, Note_on_c, 0, 68, 0
2, 19680, Note_on_c, 0, 68, 64
2, 19800, Note_on_c, 0, 68, 0
2, 20160, Note_on_c, 0, 70, 72
2, 20640, Note_on_c, 0, 70, 0
2, 21120, Note_on_c, 0, 70, 72
2, 21240, Note_on_c, 0, 70, 0
2, 21480, Note_on_c, 0, 70, 63
2, 21570, Note_on_c, 0, 70, 0
2, 21600, Note_on_c, 0, 72, 72
2, 21720, Note_on_c, 0, 72, 0
2, 22080, Note_on_c, 0, 72, 69
2, 22200, Note_on_c, 0, 72, 0
2, 22560, Note_on_c, 0, 68, 62
2, 22560, Note_on_c, 0, 74, 74
2, 22680, Note_on_c, 0, 74, 0
2, 22680, Note_on_c, 0, 68, 0
2, 23040, Note_on_c, 0, 75, 83
2, 23040, Note_on_c, 0, 67, 70
2, 23520, Note_on_c, 0, 67, 0
2, 23520, Note_on_c, 0, 75, 0
2, 24000, Note_on_c, 0, 75, 72
2, 24120, Note_on_c, 0, 75, 0
2, 24360, Note_on_c, 0, 75, 61
2, 24450, Note_on_c, 0, 75, 0
2, 24480, Note_on_c, 0, 75, 72
2, 24600, Note_on_c, 0, 75, 0
2, 24960, Note_on_c, 0, 75, 60
2, 25080, Note_on_c, 0, 75, 0
2, 25440, Note_on_c, 0, 77, 67
2, 25560, Note_on_c, 0, 77, 0
2, 25800, Note_on_c, 0, 77, 50
2, 25890, Note_on_c, 0, 77, 0
2, 25920, Note_on_c, 0, 77, 61
2, 26400, Note_on_c, 0, 77, 0
2, 26400, Note_on_c, 0, 82, 59
2, 26760, Note_on_c, 0, 82, 0
2, 26880, Note_on_c, 0, 75, 67
2, 27000, Note_on_c, 0, 75, 0
2, 27240, Note_on_c, 0, 75, 50
2, 27330, Note_on_c, 0, 75, 0
2, 27360, Note_on_c, 0, 75, 61
2, 27840, Note_on_c, 0, 75, 0
2, 27840, Note_on_c, 0, 80, 59
2, 28200, Note_on_c, 0, 80, 0
2, 28320, Note_on_c, 0, 72, 67
2, 28440, Note_on_c, 0, 72, 0
2, 28680, Note_on_c, 0, 72, 50
2, 28770, Note_on_c, 0, 72, 0
2, 28800, Note_on_c, 0, 72, 61
2, 29280, Note_on_c, 0, 72, 0
2, 29280, Note_on_c, 0, 73, 57
2, 29760, Note_on_c, 0, 73, 0
2, 29760, Note_on_c, 0, 74, 59
2, 30240, Note_on_c, 0, 74, 0
2, 30240, Note_on_c, 0, 75, 72
2, 30360, Note_on_c, 0, 75, 0
2, 30720, Note_on_c, 0, 75, 60
2, 30840, Note_on_c, 0, 75, 0
2, 31200, Note_on_c, 0, 77, 67
2, 31560, Note_on_c, 0, 77, 0
2, 31560, Note_on_c, 0, 79, 50
2, 31680, Note_on_c, 0, 79, 0
2, 31680, Note_on_c, 0, 75, 72
2, 31800, Note_on_c, 0, 75, 0
2, 32160, Note_on_c, 0, 75, 60
2, 32280, Note_on_c, 0, 75, 0
2, 32640, Note_on_c, 0, 82, 67
2, 33000, Note_on_c, 0, 82, 0
2, 33000, Note_on_c, 0, 82, 50
2, 33120, Note_on_c, 0, 82, 0
2, 33120, Note_on_c, 0, 75, 72
2, 33240, Note_on_c, 0, 75, 0
2, 33600, Note_on_c, 0, 75, 60
2, 33720, Note_on_c, 0, 75, 0
2, 34080, Note_on_c, 0, 82, 52
2, 34440, Note_on_c, 0, 82, 0
2, 34440, Note_on_c, 0, 82, 39
2, 34560, Note_on_c, 0, 82, 0
2, 34560, Note_on_c, 0, 75, 57
2, 35040, Note_on_c, 0, 75, 0
2, 35520, Note_on_c, 0, 63, 82
2, 35520, Note_on_c, 0, 60, 69
2, 35640, Note_on_c, 0, 60, 0
2, 35640, Note_on_c, 0, 63, 0
2, 35880, Note_on_c, 0, 63, 75
2, 35880, Note_on_c, 0, 60, 63
2, 35970, Note_on_c, 0, 60, 0
2, 35970, Note_on_c, 0, 63, 0
2, 36000, Note_on_c, 0, 63, 83
2, 36000, Note_on_c, 0, 60, 70
2, 36480, Note_on_c, 0, 60, 0
2, 36480, Note_on_c, 0, 63, 0
2, 36960, Note_on_c, 0, 84, 92
2, 36960, Note_on_c, 0, 80, 78
2, 37080, Note_on_c, 0, 80, 0
2, 37080, Note_on_c, 0, 84, 0
2, 37320, Note_on_c, 0, 80, 73
2, 37320, Note_on_c, 0, 84, 86
2, 37410, Note_on_c, 0, 84, 0
2, 37410, Note_on_c, 0, 80, 0
2, 37440, Note_on_c, 0, 84, 93
2, 37440, Note_on_c, 0, 80, 79
2, 37920, Note_on_c, 0, 80, 0
2, 37920, Note_on_c, 0, 84, 0
2, 38400, Note_on_c, 0, 69, 61
2, 38400, Note_on_c, 0, 72, 72
2, 38520, Note_on_c, 0, 72, 0
2, 38520, Note_on_c, 0, 69, 0
2, 38760, Note_on_c, 0, 69, 51
2, 38760, Note_on_c, 0, 72, 61
2, 38850, Note_on_c, 0, 72, 0
2, 38850, Note_on_c, 0, 69, 0
2, 38880, Note_on_c, 0, 69, 61
2, 38880, Note_on_c, 0, 72, 72
2, 39360, Note_on_c, 0, 72, 0
2, 39360, Note_on_c, 0, 69, 0
2, 39360, Note_on_c, 0, 73, 68
2, 39360, Note_on_c, 0, 70, 57
2, 39480, Note_on_c, 0, 70, 0
2, 39480, Note_on_c, 0, 73, 0
2, 39840, Note_on_c, 0, 67, 61
2, 39840, Note_on_c, 0, 70, 72
2, 39960, Note_on_c, 0, 70, 0
2, 39960, Note_on_c, 0, 67, 0
2, 40200, Note_on_c, 0, 67, 51
2, 40200, Note_on_c, 0, 70, 61
2, 40290, Note_on_c, 0, 70, 0
2, 40290, Note_on_c, 0, 67, 0
2, 40320, Note_on_c, 0, 67, 61
2, 40320, Note_on_c, 0, 70, 72
2, 40800, Note_on_c, 0, 70, 0
2, 40800, Note_on_c, 0, 67, 0
2, 40800, Note_on_c, 0, 72, 68
2, 40800, Note_on_c, 0, 68, 57
2, 40920, Note_on_c, 0, 68, 0
2, 40920, Note_on_c, 0, 72, 0
2, 41280, Note_on_c, 0, 72, 61
2, 41280, Note_on_c, 0, 75, 72
2, 41400, Note_on_c, 0, 75, 0
2, 41400, Note_on_c, 0, 72, 0
2, 41640, Note_on_c, 0, 72, 51
2, 41640, Note_on_c, 0, 75, 61
2, 41730, Note_on_c, 0, 75, 0
2, 41730, Note_on_c, 0, 72, 0
2, 41760, Note_on_c, 0, 72, 61
2, 41760, Note_on_c, 0, 75, 72
2, 42240, Note_on_c, 0, 75, 0
2, 42240, Note_on_c, 0, 72, 0
2, 42240, Note_on_c, 0, 73, 68
2, 42240, Note_on_c, 0, 77, 57
2, 42360, Note_on_c, 0, 77, 0
2, 42360, Note_on_c, 0, 73, 0
2, 42720, Note_on_c, 0, 61, 62
2, 42720, Note_on_c, 0, 67, 74
2, 42840, Note_on_c, 0, 67, 0
2, 42840, Note_on_c, 0, 61, 0
2, 43200, Note_on_c, 0, 68, 83
2, 43200, Note_on_c, 0, 60, 70
2, 43680, Note_on_c, 0, 60, 0
2, 43680, Note_on_c, 0, 68, 0
2, 44160, Note_on_c, 0, 75, 72
2, 44280, Note_on_c, 0, 75, 0
2, 44520, Note_on_c, 0, 75, 61
2, 44610, Note_on_c, 0, 75, 0
2, 44640, Note_on_c, 0, 75, 72
2, 44760, Note_on_c, 0, 75, 0
2, 45120, Note_on_c, 0, 75, 60
2, 45240, Note_on_c, 0, 75, 0
2, 45600, Note_on_c, 0, 77, 67
2, 45720, Note_on_c, 0, 77, 0
2, 45960, Note_on_c, 0, 77, 50
2, 46050, Note_on_c, 0, 77, 0
2, 46080, Note_on_c, 0, 77, 61
2, 46560, Note_on_c, 0, 77, 0
2, 46560, Note_on_c, 0, 82, 59
2, 46920, Note_on_c, 0, 82, 0
2, 47040, Note_on_c, 0, 75, 67
2, 47160, Note_on_c, 0, 75, 0
2, 47400, Note_on_c, 0, 75, 50
2, 47490, Note_on_c, 0, 75, 0
2, 47520, Note_on_c, 0, 75, 61
2, 48000, Note_on_c, 0, 75, 0
2, 48000, Note_on_c, 0, 80, 59
2, 48360, Note_on_c, 0, 80, 0
2, 48480, Note_on_c, 0, 72, 67
2, 48600, Note_on_c, 0, 72, 0
2, 48840, Note_on_c, 0, 72, 50
2, 48930, Note_on_c, 0, 72, 0
2, 48960, Note_on_c, 0, 72, 61
2, 49440, Note_on_c, 0, 72, 0
2, 49440, Note_on_c, 0, 73, 57
2, 49920, Note_on_c, 0, 73, 0
2, 49920, Note_on_c, 0, 74, 59
2, 50400, Note_on_c, 0, 74, 0
2, 50400, Note_on_c, 0, 75, 72
2, 50520, Note_on_c, 0, 75, 0
2, 50880, Note_on_c, 0, 75, 60
2, 51000, Note_on_c, 0, 75, 0
2, 51360, Note_on_c, 0, 77, 67
2, 51720, Note_on_c, 0, 77, 0
2, 51720, Note_on_c, 0, 79, 50
2, 51840, Note_on_c, 0, 79, 0
2, 51840, Note_on_c, 0, 75, 72
2, 51960, Note_on_c, 0, 75, 0
2, 52320, Note_on_c, 0, 75, 60
2, 52440, Note_on_c, 0, 75, 0
2, 52800, Note_on_c, 0, 82, 67
2, 53160, Note_on_c, 0, 82, 0
2, 53160, Note_on_c, 0, 82, 50
2, 53280, Note_on_c, 0, 82, 0
2, 53280, Note_on_c, 0, 75, 72
2, 53400, Note_on_c, 0, 75, 0
2, 53760, Note_on_c, 0, 75, 60
2, 53880, Note_on_c, 0, 75, 0
2, 54240, Note_on_c, 0, 82, 52
2, 54600, Note_on_c, 0, 82, 0
2, 54600, Note_on_c, 0, 82, 39
2, 54720, Note_on_c, 0, 82, 0
2, 54720, Note_on_c, 0, 75, 57
2, 55200, Note_on_c, 0, 75, 0
2, 55680, Note_on_c, 0, 63, 82
2, 55680, Note_on_c, 0, 60, 69
2, 55800, Note_on_c, 0, 60, 0
2, 55800, Note_on_c, 0, 63, 0
2, 56040, Note_on_c, 0, 63, 75
2, 56040, Note_on_c, 0, 60, 63
2, 56130, Note_on_c, 0, 60, 0
2, 56130, Note_on_c, 0, 63, 0
2, 56160, Note_on_c, 0, 63, 83
2, 56160, Note_on_c, 0, 60, 70
2, 56640, Note_on_c, 0, 60, 0
2, 56640, Note_on_c, 0, 63, 0
2, 57120, Note_on_c, 0, 84, 92
2, 57120, Note_on_c, 0, 80, 78
2, 57240, Note_on_c, 0, 80, 0
2, 57240, Note_on_c, 0, 84, 0
2, 57480, Note_on_c, 0, 80, 73
2, 57480, Note_on_c, 0, 84, 86
2, 57570, Note_on_c, 0, 84, 0
2, 57570, Note_on_c, 0, 80, 0
2, 57600, Note_on_c, 0, 84, 93
2, 57600, Note_on_c, 0, 80, 79
2, 58080, Note_on_c, 0, 80, 0
2, 58080, Note_on_c, 0, 84, 0
2, 58560, Note_on_c, 0, 69, 61
2, 58560, Note_on_c, 0, 72, 72
2, 58680, Note_on_c, 0, 72, 0
2, 58680, Note_on_c, 0, 69, 0
2, 58920, Note_on_c, 0, 69, 51
2, 58920, Note_on_c, 0, 72, 61
2, 59010, Note_on_c, 0, 72, 0
2, 59010, Note_on_c, 0, 69, 0
2, 59040, Note_on_c, 0, 69, 61
2, 59040, Note_on_c, 0, 72, 72
2, 59520, Note_on_c, 0, 72, 0
2, 59520, Note_on_c, 0, 69, 0
2, 59520, Note_on_c, 0, 73, 68
2, 59520, Note_on_c, 0, 70, 57
2, 59640, Note_on_c, 0, 70, 0
2, 59640, Note_on_c, 0, 73, 0
2, 60000, Note_on_c, 0, 67, 61
2, 60000, Note_on_c, 0, 70, 72
2, 60120, Note_on_c, 0, 70, 0
2, 60120, Note_on_c, 0, 67, 0
2, 60360, Note_on_c, 0, 67, 51
2, 60360, Note_on_c, 0, 70, 61
2, 60450, Note_on_c, 0, 70, 0
2, 60450, Note_on_c, 0, 67, 0
2, 60480, Note_on_c, 0, 67, 61
2, 60480, Note_on_c, 0, 70, 72
2, 60960, Note_on_c, 0, 70, 0
2, 60960, Note_on_c, 0, 67, 0
2, 60960, Note_on_c, 0, 72, 68
2, 60960, Note_on_c, 0, 68, 57
2, 61080, Note_on_c, 0, 68, 0
2, 61080, Note_on_c, 0, 72, 0
2, 61440, Note_on_c, 0, 72, 61
2, 61440, Note_on_c, 0, 75, 72
2, 61560, Note_on_c, 0, 75, 0
2, 61560, Note_on_c, 0, 72, 0
2, 61800, Note_on_c, 0, 72, 51
2, 61800, Note_on_c, 0, 75, 61
2, 61890, Note_on_c, 0, 75, 0
2, 61890, Note_on_c, 0, 72, 0
2, 61920, Note_on_c, 0, 72, 61
2, 61920, Note_on_c, 0, 75, 72
2, 62400, Note_on_c, 0, 75, 0
2, 62400, Note_on_c, 0, 72, 0
2, 62400, Note_on_c, 0, 73, 68
2, 62400, Note_on_c, 0, 77, 57
2, 62520, Note_on_c, 0, 77, 0
2, 62520, Note_on_c, 0, 73, 0
2, 62880, Note_on_c, 0, 61, 62
2, 62880, Note_on_c, 0, 67, 74
2, 63000, Note_on_c, 0, 67, 0
2, 63000, Note_on_c, 0, 61, 0
2, 63360, Note_on_c, 0, 68, 83
2, 63360, Note_on_c, 0, 60, 70
2, 63840, Note_on_c, 0, 60, 0
2, 63840, Note_on_c, 0, 68, 0
2, 64320, Note_on_c, 0, 72, 60
2, 64560, Note_on_c, 0, 72, 0
2, 64560, Note_on_c, 0, 73, 54
2, 64800, Note_on_c, 0, 73, 0
2, 64800, Note_on_c, 0, 77, 60
2, 65040, Note_on_c, 0, 77, 0
2, 65040, Note_on_c, 0, 75, 55
2, 65280, Note_on_c, 0, 75, 0
2, 65280, Note_on_c, 0, 73, 58
2, 65520, Note_on_c, 0, 73, 0
2, 65520, Note_on_c, 0, 72, 53
2, 65640, Note_on_c, 0, 72, 0
2, 65760, Note_on_c, 0, 72, 55
2, 66230, Note_on_c, 0, 72, 0
2, 66240, Note_on_c, 0, 72, 60
2, 67200, Note_on_c, 0, 72, 0
2, 67200, Note_on_c, 0, 79, 60
2, 67440, Note_on_c, 0, 79, 0
2, 67440, Note_on_c, 0, 80, 54
2, 67680, Note_on_c, 0, 80, 0
2, 67680, Note_on_c, 0, 84, 60
2, 67920, Note_on_c, 0, 84, 0
2, 67920, Note_on_c, 0, 80, 55
2, 68160, Note_on_c, 0, 80, 0
2, 68160, Note_on_c, 0, 79, 58
2, 68400, Note_on_c, 0, 79, 0
2, 68400, Note_on_c, 0, 77, 53
2, 68640, Note_on_c, 0, 77, 0
2, 68640, Note_on_c, 0, 75, 55
2, 68875, Note_on_c, 0, 75, 0
2, 69120, Note_on_c, 0, 75, 60
2, 70080, Note_on_c, 0, 75, 0
2, 70080, Note_on_c, 0, 79, 60
2, 70320, Note_on_c, 0, 79, 0
2, 70320, Note_on_c, 0, 80, 54
2, 70560, Note_on_c, 0, 80, 0
2, 70560, Note_on_c, 0, 84, 60
2, 70800, Note_on_c, 0, 84, 0
2, 70800, Note_on_c, 0, 80, 55
2, 71040, Note_on_c, 0, 80, 0
2, 71040, Note_on_c, 0, 79, 58
2, 71280, Note_on_c, 0, 79, 0
2, 71280, Note_on_c, 0, 77, 53
2, 71520, Note_on_c, 0, 77, 0
2, 71520, Note_on_c, 0, 75, 55
2, 71760, Note_on_c, 0, 75, 0
2, 71760, Note_on_c, 0, 74, 52
2, 72000, Note_on_c, 0, 74, 0
2, 72000, Note_on_c, 0, 82, 60
2, 72960, Note_on_c, 0, 82, 0
2, 72960, Note_on_c, 0, 80, 60
2, 73200, Note_on_c, 0, 80, 0
2, 73200, Note_on_c, 0, 79, 54
2, 73310, Note_on_c, 0, 79, 0
2, 73440, Note_on_c, 0, 79, 60
2, 73680, Note_on_c, 0, 79, 0
2, 73680, Note_on_c, 0, 77, 55
2, 73770, Note_on_c, 0, 77, 0
2, 73920, Note_on_c, 0, 75, 58
2, 74160, Note_on_c, 0, 75, 0
2, 74160, Note_on_c, 0, 77, 51
2, 74250, Note_on_c, 0, 77, 0
2, 74400, Note_on_c, 0, 74, 55
2, 74640, Note_on_c, 0, 74, 0
2, 74640, Note_on_c, 0, 77, 47
2, 74730, Note_on_c, 0, 77, 0
2, 74880, Note_on_c, 0, 75, 60
2, 75360, Note_on_c, 0, 75, 0
2, 75840, Note_on_c, 0, 72, 60
2, 76080, Note_on_c, 0, 72, 0
2, 76080, Note_on_c, 0, 73, 54
2, 76320, Note_on_c, 0, 73, 0
2, 76320, Note_on_c, 0, 77, 60
2, 76560, Note_on_c, 0, 77, 0
2, 76560, Note_on_c, 0, 75, 55
2, 76800, Note_on_c, 0, 75, 0
2, 76800, Note_on_c, 0, 73, 58
2, 77040, Note_on_c, 0, 73, 0
2, 77040, Note_on_c, 0, 72, 53
2, 77150, Note_on_c, 0, 72, 0
2, 77280, Note_on_c, 0, 72, 55
2, 77750, Note_on_c, 0, 72, 0
2, 77760, Note_on_c, 0, 72, 60
2, 78720, Note_on_c, 0, 72, 0
2, 78720, Note_on_c, 0, 79, 60
2, 78960, Note_on_c, 0, 79, 0
2, 78960, Note_on_c, 0, 80, 54
2, 79200, Note_on_c, 0, 80, 0
2, 79200, Note_on_c, 0, 84, 60
2, 79440, Note_on_c, 0, 84, 0
2, 79440, Note_on_c, 0, 80, 55
2, 79680, Note_on_c, 0, 80, 0
2, 79680, Note_on_c, 0, 79, 58
2, 79920, Note_on_c, 0, 79, 0
2, 79920, Note_on_c, 0, 77, 53
2, 80160, Note_on_c, 0, 77, 0
2, 80160, Note_on_c, 0, 75, 55
2, 80395, Note_on_c, 0, 75, 0
2, 80640, Note_on_c, 0, 75, 60
2, 81600, Note_on_c, 0, 75, 0
2, 81600, Note_on_c, 0, 79, 60
2, 81840, Note_on_c, 0, 79, 0
2, 81840, Note_on_c, 0, 80, 54
2, 82080, Note_on_c, 0, 80, 0
2, 82080, Note_on_c, 0, 84, 60
2, 82320, Note_on_c, 0, 84, 0
2, 82320, Note_on_c, 0, 80, 55
2, 82560, Note_on_c, 0, 80, 0
2, 82560, Note_on_c, 0, 79, 58
2, 82800, Note_on_c, 0, 79, 0
2, 82800, Note_on_c, 0, 77, 53
2, 83040, Note_on_c, 0, 77, 0
2, 83040, Note_on_c, 0, 75, 55
2, 83280, Note_on_c, 0, 75, 0
2, 83280, Note_on_c, 0, 74, 52
2, 83520, Note_on_c, 0, 74, 0
2, 83520, Note_on_c, 0, 82, 60
2, 84480, Note_on_c, 0, 82, 0
2, 84480, Note_on_c, 0, 80, 60
2, 84720, Note_on_c, 0, 80, 0
2, 84720, Note_on_c, 0, 79, 54
2, 84830, Note_on_c, 0, 79, 0
2, 84960, Note_on_c, 0, 79, 60
2, 85200, Note_on_c, 0, 79, 0
2, 85200, Note_on_c, 0, 77, 55
2, 85290, Note_on_c, 0, 77, 0
2, 85440, Note_on_c, 0, 75, 58
2, 85680, Note_on_c, 0, 75, 0
2, 85680, Note_on_c, 0, 77, 51
2, 85770, Note_on_c, 0, 77, 0
2, 85920, Note_on_c, 0, 74, 55
2, 86160, Note_on_c, 0, 74, 0
2, 86160, Note_on_c, 0, 77, 47
2, 86250, Note_on_c, 0, 77, 0
2, 86400, Note_on_c, 0, 75, 60
2, 86880, Note_on_c, 0, 75, 0
2, 87360, Note_on_c, 0, 77, 60
2, 87600, Note_on_c, 0, 77, 0
2, 87600, Note_on_c, 0, 75, 54
2, 87780, Note_on_c, 0, 75, 0
2, 87840, Note_on_c, 0, 75, 60
2, 88080, Note_on_c, 0, 75, 0
2, 88080, Note_on_c, 0, 73, 55
2, 88200, Note_on_c, 0, 73, 0
2, 88320, Note_on_c, 0, 73, 58
2, 88560, Note_on_c, 0, 73, 0
2, 88560, Note_on_c, 0, 75, 51
2, 88680, Note_on_c, 0, 75, 0
2, 88800, Note_on_c, 0, 72, 55
2, 89040, Note_on_c, 0, 72, 0
2, 89040, Note_on_c, 0, 73, 47
2, 89160, Note_on_c, 0, 73, 0
2, 89280, Note_on_c, 0, 70, 60
2, 90240, Note_on_c, 0, 70, 0
2, 90240, Note_on_c, 0, 72, 60
2, 90480, Note_on_c, 0, 72, 0
2, 90480, Note_on_c, 0, 70, 54
2, 90660, Note_on_c, 0, 70, 0
2, 90720, Note_on_c, 0, 70, 60
2, 90960, Note_on_c, 0, 70, 0
2, 90960, Note_on_c, 0, 68, 55
2, 91200, Note_on_c, 0, 68, 0
2, 91200, Note_on_c, 0, 67, 58
2, 91440, Note_on_c, 0, 67, 0
2, 91440, Note_on_c, 0, 68, 51
2, 91680, Note_on_c, 0, 68, 0
2, 91680, Note_on_c, 0, 67, 55
2, 91920, Note_on_c, 0, 67, 0
2, 91920, Note_on_c, 0, 68, 47
2, 92160, Note_on_c, 0, 68, 0
2, 92160, Note_on_c, 0, 68, 51
2, 92160, Note_on_c, 0, 72, 60
2, 92640, Note_on_c, 0, 72, 0
2, 92640, Note_on_c, 0, 68, 0
2, 92640, Note_on_c, 0, 67, 49
2, 92640, Note_on_c, 0, 70, 49
2, 93120, Note_on_c, 0, 70, 0
2, 93120, Note_on_c, 0, 67, 0
2, 93120, Note_on_c, 0, 72, 57
2, 93360, Note_on_c, 0, 72, 0
2, 93360, Note_on_c, 0, 73, 48
2, 93600, Note_on_c, 0, 73, 0
2, 93600, Note_on_c, 0, 77, 57
2, 93840, Note_on_c, 0, 77, 0
2, 93840, Note_on_c, 0, 75, 47
2, 94080, Note_on_c, 0, 75, 0
2, 94080, Note_on_c, 0, 73, 56
2, 94320, Note_on_c, 0, 73, 0
2, 94320, Note_on_c, 0, 72, 49
2, 94430, Note_on_c, 0, 72, 0
2, 94560, Note_on_c, 0, 72, 55
2, 95030, Note_on_c, 0, 72, 0
2, 95040, Note_on_c, 0, 72, 60
2, 96000, Note_on_c, 0, 72, 0
2, 96000, Note_on_c, 0, 79, 60
2, 96240, Note_on_c, 0, 79, 0
2, 96240, Note_on_c, 0, 80, 54
2, 96480, Note_on_c, 0, 80, 0
2, 96480, Note_on_c, 0, 84, 60
2, 96720, Note_on_c, 0, 84, 0
2, 96720, Note_on_c, 0, 80, 55
2, 96960, Note_on_c, 0, 80, 0
2, 96960, Note_on_c, 0, 79, 58
2, 97200, Note_on_c, 0, 79, 0
2, 97200, Note_on_c, 0, 77, 53
2, 97440, Note_on_c, 0, 77, 0
2, 97440, Note_on_c, 0, 75, 55
2, 97675, Note_on_c, 0, 75, 0
2, 97920, Note_on_c, 0, 75, 60
2, 98880, Note_on_c, 0, 75, 0
2, 98880, Note_on_c, 0, 73, 60
2, 99120, Note_on_c, 0, 73, 0
2, 99120, Note_on_c, 0, 72, 54
2, 99230, Note_on_c, 0, 72, 0
2, 99360, Note_on_c, 0, 72, 60
2, 99600, Note_on_c, 0, 72, 0
2, 99600, Note_on_c, 0, 70, 55
2, 99690, Note_on_c, 0, 70, 0
2, 99840, Note_on_c, 0, 68, 58
2, 100080, Note_on_c, 0, 68, 0
2, 100080, Note_on_c, 0, 70, 51
2, 100170, Note_on_c, 0, 70, 0
2, 100320, Note_on_c, 0, 67, 55
2, 100560, Note_on_c, 0, 67, 0
2, 100560, Note_on_c, 0, 70, 47
2, 100650, Note_on_c, 0, 70, 0
2, 100800, Note_on_c, 0, 68, 60
2, 101280, Note_on_c, 0, 68, 0
2, 101760, Note_on_c, 0, 77, 60
2, 102000, Note_on_c, 0, 77, 0
2, 102000, Note_on_c, 0, 75, 54
2, 102180, Note_on_c, 0, 75, 0
2, 102240, Note_on_c, 0, 75, 60
2, 102480, Note_on_c, 0, 75, 0
2, 102480, Note_on_c, 0, 73, 55
2, 102600, Note_on_c, 0, 73, 0
2, 102720, Note_on_c, 0, 73, 58
2, 102960, Note_on_c, 0, 73, 0
2, 102960, Note_on_c, 0, 75, 51
2, 103080, Note_on_c, 0, 75, 0
2, 103200, Note_on_c, 0, 72, 55
2, 103440, Note_on_c, 0, 72, 0
2, 103440, Note_on_c, 0, 73, 47
2, 103560, Note_on_c, 0, 73, 0
2, 103680, Note_on_c, 0, 70, 60
2, 104640, Note_on_c, 0, 70, 0
2, 104640, Note_on_c, 0, 72, 60
2, 104880, Note_on_c, 0, 72, 0
2, 104880, Note_on_c, 0, 70, 54
2, 105060, Note_on_c, 0, 70, 0
2, 105120, Note_on_c, 0, 70, 60
2, 105360, Note_on_c, 0, 70, 0
2, 105360, Note_on_c, 0, 68, 55
2, 105600, Note_on_c, 0, 68, 0
2, 105600, Note_on_c, 0, 67, 58
2, 105840, Note_on_c, 0, 67, 0
2, 105840, Note_on_c, 0, 68, 51
2, 106080, Note_on_c, 0, 68, 0
2, 106080, Note_on_c, 0, 67, 55
2, 106320, Note_on_c, 0, 67, 0
2, 106320, Note_on_c, 0, 68, 47
2, 106560, Note_on_c, 0, 68, 0
2, 106560, Note_on_c, 0, 68, 51
2, 106560, Note_on_c, 0, 72, 60
2, 107040, Note_on_c, 0, 72, 0
2, 107040, Note_on_c, 0, 68, 0
2, 107040, Note_on_c, 0, 70, 54
2, 107040, Note_on_c, 0, 67, 45
2, 107520, Note_on_c, 0, 67, 0
2, 107520, Note_on_c, 0, 70, 0
2, 107520, Note_on_c, 0, 72, 50
2, 107760, Note_on_c, 0, 72, 0
2, 107760, Note_on_c, 0, 73, 45
2, 108000, Note_on_c, 0, 73, 0
2, 108000, Note_on_c, 0, 77, 55
2, 108240, Note_on_c, 0, 77, 0
2, 108240, Note_on_c, 0, 75, 48
2, 108480, Note_on_c, 0, 75, 0
2, 108480, Note_on_c, 0, 73, 54
2, 108720, Note_on_c, 0, 73, 0
2, 108720, Note_on_c, 0, 72, 47
2, 108830, Note_on_c, 0, 72, 0
2, 108960, Note_on_c, 0, 72, 55
2, 109430, Note_on_c, 0, 72, 0
2, 109440, Note_on_c, 0, 72, 60
2, 110400, Note_on_c, 0, 72, 0
2, 110400, Note_on_c, 0, 79, 60
2, 110640, Note_on_c, 0, 79, 0
2, 110640, Note_on_c, 0, 80, 54
2, 110880, Note_on_c, 0, 80, 0
2, 110880, Note_on_c, 0, 84, 60
2, 111120, Note_on_c, 0, 84, 0
2, 111120, Note_on_c, 0, 80, 55
2, 111360, Note_on_c, 0, 80, 0
2, 111360, Note_on_c, 0, 79, 58
2, 111600, Note_on_c, 0, 79, 0
2, 111600, Note_on_c, 0, 77, 53
2, 111840, Note_on_c, 0, 77, 0
2, 111840, Note_on_c, 0, 75, 55
2, 112075, Note_on_c, 0, 75, 0
2, 112320, Note_on_c, 0, 75, 60
2, 113280, Note_on_c, 0, 75, 0
2, 113280, Note_on_c, 0, 73, 60
2, 113520, Note_on_c, 0, 73, 0
2, 113520, Note_on_c, 0, 72, 54
2, 113630, Note_on_c, 0, 72, 0
2, 113760, Note_on_c, 0, 72, 60
2, 114000, Note_on_c, 0, 72, 0
2, 114000, Note_on_c, 0, 70, 55
2, 114090, Note_on_c, 0, 70, 0
2, 114240, Note_on_c, 0, 68, 58
2, 114480, Note_on_c, 0, 68, 0
2, 114480, Note_on_c, 0, 70, 51
2, 114570, Note_on_c, 0, 70, 0
2, 114720, Note_on_c, 0, 67, 55
2, 114960, Note_on_c, 0, 67, 0
2, 114960, Note_on_c, 0, 70, 47
2, 115050, Note_on_c, 0, 70, 0
2, 115200, Note_on_c, 0, 68, 60
2, 115680, Note_on_c, 0, 68, 0
2, 116160, Note_on_c, 0, 75, 72
2, 116280, Note_on_c, 0, 75, 0
2, 116520, Note_on_c, 0, 75, 61
2, 116610, Note_on_c, 0, 75, 0
2, 116640, Note_on_c, 0, 75, 72
2, 117120, Note_on_c, 0, 75, 0
2, 117600, Note_on_c, 0, 80, 72
2, 117720, Note_on_c, 0, 80, 0
2, 117960, Note_on_c, 0, 80, 64
2, 118050, Note_on_c, 0, 80, 0
2, 118080, Note_on_c, 0, 80, 72
2, 118560, Note_on_c, 0, 80, 0
2, 119040, Note_on_c, 0, 68, 61
2, 119040, Note_on_c, 0, 72, 72
2, 119160, Note_on_c, 0, 72, 0
2, 119160, Note_on_c, 0, 68, 0
2, 119400, Note_on_c, 0, 68, 51
2, 119400, Note_on_c, 0, 72, 61
2, 119490, Note_on_c, 0, 72, 0
2, 119490, Note_on_c, 0, 68, 0
2, 119520, Note_on_c, 0, 68, 61
2, 119520, Note_on_c, 0, 72, 72
2, 120000, Note_on_c, 0, 72, 0
2, 120000, Note_on_c, 0, 68, 0
2, 120000, Note_on_c, 0, 73, 68
2, 120000, Note_on_c, 0, 70, 57
2, 120120, Note_on_c, 0, 70, 0
2, 120120, Note_on_c, 0, 73, 0
2, 120480, Note_on_c, 0, 73, 52
2, 120480, Note_on_c, 0, 77, 62
2, 120600, Note_on_c, 0, 77, 0
2, 120600, Note_on_c, 0, 73, 0
2, 120960, Note_on_c, 0, 70, 64
2, 120960, Note_on_c, 0, 67, 55
2, 121910, Note_on_c, 0, 67, 0
2, 121910, Note_on_c, 0, 70, 0
2, 121920, Note_on_c, 0, 63, 72
2, 122040, Note_on_c, 0, 63, 0
2, 122280, Note_on_c, 0, 63, 51
2, 122370, Note_on_c, 0, 63, 0
2, 122400, Note_on_c, 0, 68, 72
2, 122520, Note_on_c, 0, 68, 0
2, 122880, Note_on_c, 0, 68, 64
2, 123000, Note_on_c, 0, 68, 0
2, 123360, Note_on_c, 0, 68, 64
2, 123480, Note_on_c, 0, 68, 0
2, 123840, Note_on_c, 0, 70, 72
2, 124320, Note_on_c, 0, 70, 0
2, 124800, Note_on_c, 0, 70, 72
2, 124920, Note_on_c, 0, 70, 0
2, 125160, Note_on_c, 0, 70, 63
2, 125250, Note_on_c, 0, 70, 0
2, 125280, Note_on_c, 0, 72, 72
2, 125400, Note_on_c, 0, 72, 0
2, 125760, Note_on_c, 0, 72, 69
2, 125880, Note_on_c, 0, 72, 0
2, 126240, Note_on_c, 0, 68, 62
2, 126240, Note_on_c, 0, 74, 74
2, 126360, Note_on_c, 0, 74, 0
2, 126360, Note_on_c, 0, 68, 0
2, 126720, Note_on_c, 0, 75, 83
2, 126720, Note_on_c, 0, 67, 70
2, 127200, Note_on_c, 0, 67, 0
2, 127200, Note_on_c, 0, 75, 0
2, 127680, Note_on_c, 0, 75, 72
2, 127800, Note_on_c, 0, 75, 0
2, 128040, Note_on_c, 0, 75, 61
2, 128130, Note_on_c, 0, 75, 0
2, 128160, Note_on_c, 0, 75, 72
2, 128280, Note_on_c, 0, 75, 0
2, 128640, Note_on_c, 0, 75, 60
2, 128760, Note_on_c, 0, 75, 0
2, 129120, Note_on_c, 0, 77, 67
2, 129240, Note_on_c, 0, 77, 0
2, 129480, Note_on_c, 0, 77, 50
2, 129570, Note_on_c, 0, 77, 0
2, 129600, Note_on_c, 0, 77, 61
2, 130080, Note_on_c, 0, 77, 0
2, 130080, Note_on_c, 0, 82, 59
2, 130440, Note_on_c, 0, 82, 0
2, 130560, Note_on_c, 0, 75, 67
2, 130680, Note_on_c, 0, 75, 0
2, 130920, Note_on_c, 0, 75, 50
2, 131010, Note_on_c, 0, 75, 0
2, 131040, Note_on_c, 0, 75, 61
2, 131520, Note_on_c, 0, 75, 0
2, 131520, Note_on_c, 0, 80, 59
2, 131880, Note_on_c, 0, 80, 0
2, 132000, Note_on_c, 0, 72, 67
2, 132120, Note_on_c, 0, 72, 0
2, 132360, Note_on_c, 0, 72, 50
2, 132450, Note_on_c, 0, 72, 0
2, 132480, Note_on_c, 0, 72, 61
2, 132960, Note_on_c, 0, 72, 0
2, 132960, Note_on_c, 0, 73, 57
2, 133440, Note_on_c, 0, 73, 0
2, 133440, Note_on_c, 0, 74, 59
2, 133920, Note_on_c, 0, 74, 0
2, 133920, Note_on_c, 0, 75, 72
2, 134040, Note_on_c, 0, 75, 0
2, 134400, Note_on_c, 0, 75, 60
2, 134520, Note_on_c, 0, 75, 0
2, 134880, Note_on_c, 0, 77, 67
2, 135240, Note_on_c, 0, 77, 0
2, 135240, Note_on_c, 0, 79, 50
2, 135360, Note_on_c, 0, 79, 0
2, 135360, Note_on_c, 0, 75, 72
2, 135480, Note_on_c, 0, 75, 0
2, 135840, Note_on_c, 0, 75, 60
2, 135960, Note_on_c, 0, 75, 0
2, 136320, Note_on_c, 0, 82, 67
2, 136680, Note_on_c, 0, 82, 0
2, 136680, Note_on_c, 0, 82, 50
2, 136800, Note_on_c, 0, 82, 0
2, 136800, Note_on_c, 0, 75, 72
2, 136920, Note_on_c, 0, 75, 0
2, 137280, Note_on_c, 0, 75, 60
2, 137400, Note_on_c, 0, 75, 0
2, 137760, Note_on_c, 0, 82, 52
2, 138120, Note_on_c, 0, 82, 0
2, 138120, Note_on_c, 0, 82, 39
2, 138240, Note_on_c, 0, 82, 0
2, 138240, Note_on_c, 0, 75, 57
2, 138720, Note_on_c, 0, 75, 0
2, 139200, Note_on_c, 0, 63, 82
2, 139200, Note_on_c, 0, 60, 69
2, 139320, Note_on_c, 0, 60, 0
2, 139320, Note_on_c, 0, 63, 0
2, 139560, Note_on_c, 0, 63, 75
2, 139560, Note_on_c, 0, 60, 63
2, 139650, Note_on_c, 0, 60, 0
2, 139650, Note_on_c, 0, 63, 0
2, 139680, Note_on_c, 0, 63, 83
2, 139680, Note_on_c, 0, 60, 70
2, 140160, Note_on_c, 0, 60, 0
2, 140160, Note_on_c, 0, 63, 0
2, 140640, Note_on_c, 0, 84, 92
2, 140640, Note_on_c, 0, 80, 78
2, 140760, Note_on_c, 0, 80, 0
2, 140760, Note_on_c, 0, 84, 0
2, 141000, Note_on_c, 0, 80, 73
2, 141000, Note_on_c, 0, 84, 86
2, 141090, Note_on_c, 0, 84, 0
2, 141090, Note_on_c, 0, 80, 0
2, 141120, Note_on_c, 0, 84, 93
2, 141120, Note_on_c, 0, 80, 79
2, 141600, Note_on_c, 0, 80, 0
2, 141600, Note_on_c, 0, 84, 0
2, 142080, Note_on_c, 0, 69, 61
2, 142080, Note_on_c, 0, 72, 72
2, 142200, Note_on_c, 0, 72, 0
2, 142200, Note_on_c, 0, 69, 0
2, 142440, Note_on_c, 0, 69, 51
2, 142440, Note_on_c, 0, 72, 61
2, 142530, Note_on_c, 0, 72, 0
2, 142530, Note_on_c, 0, 69, 0
2, 142560, Note_on_c, 0, 69, 61
2, 142560, Note_on_c, 0, 72, 72
2, 143040, Note_on_c, 0, 72, 0
2, 143040, Note_on_c, 0, 69, 0
2, 143040, Note_on_c, 0, 73, 68
2, 143040, Note_on_c, 0, 70, 57
2, 143160, Note_on_c, 0, 70, 0
2, 143160, Note_on_c, 0, 73, 0
2, 143520, Note_on_c, 0, 67, 61
2, 143520, Note_on_c, 0, 70, 72
2, 143640, Note_on_c, 0, 70, 0
2, 143640, Note_on_c, 0, 67, 0
2, 143880, Note_on_c, 0, 67, 51
2, 143880, Note_on_c, 0, 70, 61
2, 143970, Note_on_c, 0, 70, 0
2, 143970, Note_on_c, 0, 67, 0
2, 144000, Note_on_c, 0, 67, 61
2, 144000, Note_on_c, 0, 70, 72
2, 144480, Note_on_c, 0, 70, 0
2, 144480, Note_on_c, 0, 67, 0
2, 144480, Note_on_c, 0, 72, 68
2, 144480, Note_on_c, 0, 68, 57
2, 144600, Note_on_c, 0, 68, 0
2, 144600, Note_on_c, 0, 72, 0
2, 144960, Note_on_c, 0, 72, 61
2, 144960, Note_on_c, 0, 75, 72
2, 145080, Note_on_c, 0, 75, 0
2, 145080, Note_on_c, 0, 72, 0
2, 145320, Note_on_c, 0, 72, 51
2, 145320, Note_on_c, 0, 75, 61
2, 145410, Note_on_c, 0, 75, 0
2, 145410, Note_on_c, 0, 72, 0
2, 145440, Note_on_c, 0, 72, 61
2, 145440, Note_on_c, 0, 75, 72
2, 145920, Note_on_c, 0, 75, 0
2, 145920, Note_on_c, 0, 72, 0
2, 145920, Note_on_c, 0, 73, 68
2, 145920, Note_on_c, 0, 77, 57
2, 146040, Note_on_c, 0, 77, 0
2, 146040, Note_on_c, 0, 73, 0
2, 146400, Note_on_c, 0, 61, 62
2, 146400, Note_on_c, 0, 67, 74
2, 146520, Note_on_c, 0, 67, 0
2, 146520, Note_on_c, 0, 61, 0
2, 146880, Note_on_c, 0, 68, 83
2, 146880, Note_on_c, 0, 60, 70
2, 147360, Note_on_c, 0, 60, 0
2, 147360, Note_on_c, 0, 68, 0
2, 147360, End_track
3, 0, Start_track
3, 0, Title_t, "Piano left"
3, 0, Program_c, 0, 0
3, 1920, Note_on_c, 0, 60, 56
3, 1920, Note_on_c, 0, 56, 46
3, 2400, Note_on_c, 0, 56, 0
3, 2400, Note_on_c, 0, 60, 0
3, 3360, Note_on_c, 0, 63, 57
3, 3360, Note_on_c, 0, 60, 48
3, 3840, Note_on_c, 0, 60, 0
3, 3840, Note_on_c, 0, 63, 0
3, 3840, Note_on_c, 0, 65, 51
3, 3960, Note_on_c, 0, 65, 0
3, 4200, Note_on_c, 0, 65, 42
3, 4290, Note_on_c, 0, 65, 0
3, 4320, Note_on_c, 0, 65, 51
3, 4800, Note_on_c, 0, 65, 0
3, 4800, Note_on_c, 0, 61, 48
3, 4920, Note_on_c, 0, 61, 0
3, 5280, Note_on_c, 0, 58, 44
3, 5400, Note_on_c, 0, 58, 0
3, 5760, Note_on_c, 0, 63, 46
3, 6710, Note_on_c, 0, 63, 0
3, 6720, Note_on_c, 0, 61, 46
3, 7200, Note_on_c, 0, 61, 0
3, 7200, Note_on_c, 0, 63, 52
3, 7200, Note_on_c, 0, 60, 44
3, 7320, Note_on_c, 0, 60, 0
3, 7320, Note_on_c, 0, 63, 0
3, 7680, Note_on_c, 0, 58, 38
3, 7680, Note_on_c, 0, 61, 46
3, 7800, Note_on_c, 0, 61, 0
3, 7800, Note_on_c, 0, 58, 0
3, 8160, Note_on_c, 0, 56, 38
3, 8160, Note_on_c, 0, 60, 46
3, 8280, Note_on_c, 0, 60, 0
3, 8280, Note_on_c, 0, 56, 0
3, 8640, Note_on_c, 0, 55, 40
3, 8640, Note_on_c, 0, 58, 48
3, 9120, Note_on_c, 0, 58, 0
3, 9120, Note_on_c, 0, 55, 0
3, 9120, Note_on_c, 0, 56, 45
3, 9120, Note_on_c, 0, 53, 37
3, 9240, Note_on_c, 0, 53, 0
3, 9240, Note_on_c, 0, 56, 0
3, 9600, Note_on_c, 0, 55, 45
3, 9600, Note_on_c, 0, 51, 37
3, 9720, Note_on_c, 0, 51, 0
3, 9720, Note_on_c, 0, 55, 0
3, 10080, Note_on_c, 0, 56, 52
3, 10200, Note_on_c, 0, 56, 0
3, 10560, Note_on_c, 0, 53, 46
3, 10680, Note_on_c, 0, 53, 0
3, 11040, Note_on_c, 0, 58, 56
3, 11160, Note_on_c, 0, 58, 0
3, 11520, Note_on_c, 0, 51, 60
3, 12000, Note_on_c, 0, 51, 0
3, 13440, Note_on_c, 0, 60, 56
3, 13440, Note_on_c, 0, 56, 46
3, 13920, Note_on_c, 0, 56, 0
3, 13920, Note_on_c, 0, 60, 0
3, 14880, Note_on_c, 0, 63, 57
3, 14880, Note_on_c, 0, 60, 48
3, 15360, Note_on_c, 0, 60, 0
3, 15360, Note_on_c, 0, 63, 0
3, 15360, Note_on_c, 0, 65, 51
3, 15480, Note_on_c, 0, 65, 0
3, 15720, Note_on_c, 0, 65, 42
3, 15810, Note_on_c, 0, 65, 0
3, 15840, Note_on_c, 0, 65, 51
3, 16320, Note_on_c, 0, 65, 0
3, 16320, Note_on_c, 0, 61, 48
3, 16440, Note_on_c, 0, 61, 0
3, 16800, Note_on_c, 0, 58, 44
3, 16920, Note_on_c, 0, 58, 0
3, 17280, Note_on_c, 0, 63, 46
3, 18230, Note_on_c, 0, 63, 0
3, 18240, Note_on_c, 0, 61, 46
3, 18720, Note_on_c, 0, 61, 0
3, 18720, Note_on_c, 0, 63, 52
3, 18720, Note_on_c, 0, 60, 44
3, 18840, Note_on_c, 0, 60, 0
3, 18840, Note_on_c, 0, 63, 0
3, 19200, Note_on_c, 0, 58, 38
3, 19200, Note_on_c, 0, 61, 46
3, 19320, Note_on_c, 0, 61, 0
3, 19320, Note_on_c, 0, 58, 0
3, 19680, Note_on_c, 0, 56, 38
3, 19680, Note_on_c, 0, 60, 46
3, 19800, Note_on_c, 0, 60, 0
3, 19800, Note_on_c, 0, 56, 0
3, 20160, Note_on_c, 0, 55, 40
3, 20160, Note_on_c, 0, 58, 48
3, 20640, Note_on_c, 0, 58, 0
3, 20640, Note_on_c, 0, 55, 0
3, 20640, Note_on_c, 0, 56, 45
3, 20640, Note_on_c, 0, 53, 37
3, 20760, Note_on_c, 0, 53, 0
3, 20760, Note_on_c, 0, 56, 0
3, 21120, Note_on_c, 0, 55, 45
3, 21120, Note_on_c, 0, 51, 37
3, 21240, Note_on_c, 0, 51, 0
3, 21240, Note_on_c, 0, 55, 0
3, 21600, Note_on_c, 0, 56, 52
3, 21720, Note_on_c, 0, 56, 0
3, 22080, Note_on_c, 0, 53, 46
3, 22200, Note_on_c, 0, 53, 0
3, 22560, Note_on_c, 0, 58, 56
3, 22680, Note_on_c, 0, 58, 0
3, 23040, Note_on_c, 0, 51, 60
3, 23520, Note_on_c, 0, 51, 0
3, 25440, Note_on_c, 0, 69, 38
3, 25440, Note_on_c, 0, 75, 46
3, 25920, Note_on_c, 0, 69, 0
3, 25920, Note_on_c, 0, 70, 50
3, 26400, Note_on_c, 0, 75, 0
3, 26400, Note_on_c, 0, 74, 46
3, 26760, Note_on_c, 0, 74, 0
3, 26880, Note_on_c, 0, 70, 0
3, 26880, Note_on_c, 0, 67, 38
3, 26880, Note_on_c, 0, 73, 46
3, 27360, Note_on_c, 0, 67, 0
3, 27360, Note_on_c, 0, 68, 50
3, 27840, Note_on_c, 0, 73, 0
3, 27840, Note_on_c, 0, 72, 46
3, 28200, Note_on_c, 0, 72, 0
3, 28320, Note_on_c, 0, 68, 0
3, 28800, Note_on_c, 0, 65, 38
3, 28800, Note_on_c, 0, 68, 46
3, 30240, Note_on_c, 0, 68, 0
3, 30240, Note_on_c, 0, 65, 0
3, 30240, Note_on_c, 0, 63, 38
3, 30240, Note_on_c, 0, 67, 46
3, 30360, Note_on_c, 0, 67, 0
3, 30360, Note_on_c, 0, 63, 0
3, 31200, Note_on_c, 0, 58, 38
3, 31200, Note_on_c, 0, 62, 38
3, 31200, Note_on_c, 0, 68, 46
3, 31680, Note_on_c, 0, 68, 0
3, 31680, Note_on_c, 0, 62, 0
3, 31680, Note_on_c, 0, 58, 0
3, 31680, Note_on_c, 0, 63, 38
3, 31680, Note_on_c, 0, 67, 46
3, 31800, Note_on_c, 0, 67, 0
3, 31800, Note_on_c, 0, 63, 0
3, 32640, Note_on_c, 0, 58, 38
3, 32640, Note_on_c, 0, 62, 38
3, 32640, Note_on_c, 0, 68, 46
3, 33120, Note_on_c, 0, 68, 0
3, 33120, Note_on_c, 0, 62, 0
3, 33120, Note_on_c, 0, 58, 0
3, 33120, Note_on_c, 0, 63, 38
3, 33120, Note_on_c, 0, 67, 46
3, 33240, Note_on_c, 0, 67, 0
3, 33240, Note_on_c, 0, 63, 0
3, 34080, Note_on_c, 0, 58, 30
3, 34080, Note_on_c, 0, 62, 30
3, 34080, Note_on_c, 0, 68, 36
3, 34560, Note_on_c, 0, 68, 0
3, 34560, Note_on_c, 0, 62, 0
3, 34560, Note_on_c, 0, 58, 0
3, 34560, Note_on_c, 0, 63, 30
3, 34560, Note_on_c, 0, 67, 36
3, 35040, Note_on_c, 0, 67, 0
3, 35040, Note_on_c, 0, 63, 0
3, 36480, Note_on_c, 0, 44, 58
3, 36480, Note_on_c, 0, 56, 69
3, 36960, Note_on_c, 0, 56, 0
3, 36960, Note_on_c, 0, 44, 0
3, 38400, Note_on_c, 0, 63, 42
3, 38400, Note_on_c, 0, 66, 51
3, 38520, Note_on_c, 0, 66, 0
3, 38520, Note_on_c, 0, 63, 0
3, 38760, Note_on_c, 0, 63, 36
3, 38760, Note_on_c, 0, 66, 42
3, 38850, Note_on_c, 0, 66, 0
3, 38850, Note_on_c, 0, 63, 0
3, 38880, Note_on_c, 0, 63, 42
3, 38880, Note_on_c, 0, 66, 51
3, 39360, Note_on_c, 0, 66, 0
3, 39360, Note_on_c, 0, 63, 0
3, 39360, Note_on_c, 0, 61, 40
3, 39360, Note_on_c, 0, 65, 48
3, 39480, Note_on_c, 0, 65, 0
3, 39480, Note_on_c, 0, 61, 0
3, 39840, Note_on_c, 0, 61, 42
3, 39840, Note_on_c, 0, 63, 51
3, 39960, Note_on_c, 0, 63, 0
3, 39960, Note_on_c, 0, 61, 0
3, 40200, Note_on_c, 0, 61, 36
3, 40200, Note_on_c, 0, 63, 42
3, 40290, Note_on_c, 0, 63, 0
3, 40290, Note_on_c, 0, 61, 0
3, 40320, Note_on_c, 0, 61, 42
3, 40320, Note_on_c, 0, 63, 51
3, 40800, Note_on_c, 0, 61, 0
3, 40800, Note_on_c, 0, 60, 40
3, 40920, Note_on_c, 0, 60, 0
3, 40920, Note_on_c, 0, 63, 0
3, 42720, Note_on_c, 0, 51, 47
3, 42720, Note_on_c, 0, 58, 56
3, 42840, Note_on_c, 0, 58, 0
3, 42840, Note_on_c, 0, 51, 0
3, 43200, Note_on_c, 0, 44, 50
3, 43200, Note_on_c, 0, 56, 60
3, 43680, Note_on_c, 0, 56, 0
3, 43680, Note_on_c, 0, 44, 0
3, 45600, Note_on_c, 0, 69, 38
3, 45600, Note_on_c, 0, 75, 46
3, 46080, Note_on_c, 0, 69, 0
3, 46080, Note_on_c, 0, 70, 50
3, 46560, Note_on_c, 0, 75, 0
3, 46560, Note_on_c, 0, 74, 46
3, 46920, Note_on_c, 0, 74, 0
3, 47040, Note_on_c, 0, 70, 0
3, 47040, Note_on_c, 0, 67, 38
3, 47040, Note_on_c, 0, 73, 46
3, 47520, Note_on_c, 0, 67, 0
3, 47520, Note_on_c, 0, 68, 50
3, 48000, Note_on_c, 0, 73, 0
3, 48000, Note_on_c, 0, 72, 46
3, 48360, Note_on_c, 0, 72, 0
3, 48480, Note_on_c, 0, 68, 0
3, 48960, Note_on_c, 0, 65, 38
3, 48960, Note_on_c, 0, 68, 46
3, 50400, Note_on_c, 0, 68, 0
3, 50400, Note_on_c, 0, 65, 0
3, 50400, Note_on_c, 0, 63, 38
3, 50400, Note_on_c, 0, 67, 46
3, 50520, Note_on_c, 0, 67, 0
3, 50520, Note_on_c, 0, 63, 0
3, 51360, Note_on_c, 0, 58, 38
3, 51360, Note_on_c, 0, 62, 38
3, 51360, Note_on_c, 0, 68, 46
3, 51840, Note_on_c, 0, 68, 0
3, 51840, Note_on_c, 0, 62, 0
3, 51840, Note_on_c, 0, 58, 0
3, 51840, Note_on_c, 0, 63, 38
3, 51840, Note_on_c, 0, 67, 46
3, 51960, Note_on_c, 0, 67, 0
3, 51960, Note_on_c, 0, 63, 0
3, 52800, Note_on_c, 0, 58, 38
3, 52800, Note_on_c, 0, 62, 38
3, 52800, Note_on_c, 0, 68, 46
3, 53280, Note_on_c, 0, 68, 0
3, 53280, Note_on_c, 0, 62, 0
3, 53280, Note_on_c, 0, 58, 0
3, 53280, Note_on_c, 0, 63, 38
3, 53280, Note_on_c, 0, 67, 46
3, 53400, Note_on_c, 0, 67, 0
3, 53400, Note_on_c, 0, 63, 0
3, 54240, Note_on_c, 0, 58, 30
3, 54240, Note_on_c, 0, 62, 30
3, 54240, Note_on_c, 0, 68, 36
3, 54720, Note_on_c, 0, 68, 0
3, 54720, Note_on_c, 0, 62, 0
3, 54720, Note_on_c, 0, 58, 0
3, 54720, Note_on_c, 0, 63, 30
3, 54720, Note_on_c, 0, 67, 36
3, 55200, Note_on_c, 0, 67, 0
3, 55200, Note_on_c, 0, 63, 0
3, 56640, Note_on_c, 0, 44, 58
3, 56640, Note_on_c, 0, 56, 69
3, 57120, Note_on_c, 0, 56, 0
3, 57120, Note_on_c, 0, 44, 0
3, 58560, Note_on_c, 0, 63, 42
3, 58560, Note_on_c, 0, 66, 51
3, 58680, Note_on_c, 0, 66, 0
3, 58680, Note_on_c, 0, 63, 0
3, 58920, Note_on_c, 0, 63, 36
3, 58920, Note_on_c, 0, 66, 42
3, 59010, Note_on_c, 0, 66, 0
3, 59010, Note_on_c, 0, 63, 0
3, 59040, Note_on_c, 0, 63, 42
3, 59040, Note_on_c, 0, 66, 51
3, 59520, Note_on_c, 0, 66, 0
3, 59520, Note_on_c, 0, 63, 0
3, 59520, Note_on_c, 0, 61, 40
3, 59520, Note_on_c, 0, 65, 48
3, 59640, Note_on_c, 0, 65, 0
3, 59640, Note_on_c, 0, 61, 0
3, 60000, Note_on_c, 0, 61, 42
3, 60000, Note_on_c, 0, 63, 51
3, 60120, Note_on_c, 0, 63, 0
3, 60120, Note_on_c, 0, 61, 0
3, 60360, Note_on_c, 0, 61, 36
3, 60360, Note_on_c, 0, 63, 42
3, 60450, Note_on_c, 0, 63, 0
3, 60450, Note_on_c, 0, 61, 0
3, 60480, Note_on_c, 0, 61, 42
3, 60480, Note_on_c, 0, 63, 51
3, 60960, Note_on_c, 0, 61, 0
3, 60960, Note_on_c, 0, 60, 40
3, 61080, Note_on_c, 0, 60, 0
3, 61080, Note_on_c, 0, 63, 0
3, 62880, Note_on_c, 0, 51, 47
3, 62880, Note_on_c, 0, 58, 56
3, 63000, Note_on_c, 0, 58, 0
3, 63000, Note_on_c, 0, 51, 0
3, 63360, Note_on_c, 0, 44, 50
3, 63360, Note_on_c, 0, 56, 60
3, 63840, Note_on_c, 0, 56, 0
3, 63840, Note_on_c, 0, 44, 0
3, 64800, Note_on_c, 0, 56, 34
3, 65040, Note_on_c, 0, 56, 0
3, 65040, Note_on_c, 0, 63, 28
3, 65280, Note_on_c, 0, 63, 0
3, 65280, Note_on_c, 0, 60, 32
3, 65520, Note_on_c, 0, 60, 0
3, 65520, Note_on_c, 0, 63, 28
3, 65760, Note_on_c, 0, 63, 0
3, 65760, Note_on_c, 0, 56, 32
3, 66000, Note_on_c, 0, 56, 0
3, 66000, Note_on_c, 0, 63, 28
3, 66240, Note_on_c, 0, 63, 0
3, 66240, Note_on_c, 0, 56, 34
3, 66480, Note_on_c, 0, 56, 0
3, 66480, Note_on_c, 0, 63, 24
3, 66720, Note_on_c, 0, 63, 0
3, 66720, Note_on_c, 0, 60, 28
3, 66960, Note_on_c, 0, 60, 0
3, 66960, Note_on_c, 0, 63, 24
3, 67200, Note_on_c, 0, 63, 0
3, 67200, Note_on_c, 0, 56, 28
3, 67440, Note_on_c, 0, 56, 0
3, 67440, Note_on_c, 0, 63, 24
3, 67680, Note_on_c, 0, 63, 0
3, 67680, Note_on_c, 0, 56, 34
3, 67920, Note_on_c, 0, 56, 0
3, 67920, Note_on_c, 0, 63, 28
3, 68160, Note_on_c, 0, 63, 0
3, 68160, Note_on_c, 0, 60, 32
3, 68400, Note_on_c, 0, 60, 0
3, 68400, Note_on_c, 0, 63, 28
3, 68640, Note_on_c, 0, 63, 0
3, 68640, Note_on_c, 0, 56, 32
3, 68880, Note_on_c, 0, 56, 0
3, 68880, Note_on_c, 0, 63, 28
3, 69120, Note_on_c, 0, 63, 0
3, 69120, Note_on_c, 0, 56, 34
3, 69360, Note_on_c, 0, 56, 0
3, 69360, Note_on_c, 0, 63, 24
3, 69600, Note_on_c, 0, 63, 0
3, 69600, Note_on_c, 0, 60, 28
3, 69840, Note_on_c, 0, 60, 0
3, 69840, Note_on_c, 0, 63, 24
3, 70080, Note_on_c, 0, 63, 0
3, 70080, Note_on_c, 0, 56, 28
3, 70320, Note_on_c, 0, 56, 0
3, 70320, Note_on_c, 0, 63, 24
3, 70560, Note_on_c, 0, 63, 0
3, 70560, Note_on_c, 0, 56, 34
3, 70800, Note_on_c, 0, 56, 0
3, 70800, Note_on_c, 0, 62, 28
3, 71040, Note_on_c, 0, 62, 0
3, 71040, Note_on_c, 0, 58, 32
3, 71280, Note_on_c, 0, 58, 0
3, 71280, Note_on_c, 0, 62, 28
3, 71520, Note_on_c, 0, 62, 0
3, 71520, Note_on_c, 0, 56, 32
3, 71760, Note_on_c, 0, 56, 0
3, 71760, Note_on_c, 0, 62, 28
3, 72000, Note_on_c, 0, 62, 0
3, 72000, Note_on_c, 0, 55, 34
3, 72240, Note_on_c, 0, 55, 0
3, 72240, Note_on_c, 0, 63, 24
3, 72480, Note_on_c, 0, 63, 0
3, 72480, Note_on_c, 0, 58, 28
3, 72720, Note_on_c, 0, 58, 0
3, 72720, Note_on_c, 0, 63, 24
3, 72960, Note_on_c, 0, 63, 0
3, 72960, Note_on_c, 0, 55, 28
3, 73200, Note_on_c, 0, 55, 0
3, 73200, Note_on_c, 0, 63, 24
3, 73440, Note_on_c, 0, 63, 0
3, 73440, Note_on_c, 0, 56, 40
3, 73920, Note_on_c, 0, 56, 0
3, 74400, Note_on_c, 0, 58, 36
3, 74880, Note_on_c, 0, 58, 0
3, 74880, Note_on_c, 0, 51, 40
3, 75360, Note_on_c, 0, 51, 0
3, 76320, Note_on_c, 0, 56, 34
3, 76560, Note_on_c, 0, 56, 0
3, 76560, Note_on_c, 0, 63, 28
3, 76800, Note_on_c, 0, 63, 0
3, 76800, Note_on_c, 0, 60, 32
3, 77040, Note_on_c, 0, 60, 0
3, 77040, Note_on_c, 0, 63, 28
3, 77280, Note_on_c, 0, 63, 0
3, 77280, Note_on_c, 0, 56, 32
3, 77520, Note_on_c, 0, 56, 0
3, 77520, Note_on_c, 0, 63, 28
3, 77760, Note_on_c, 0, 63, 0
3, 77760, Note_on_c, 0, 56, 34
3, 78000, Note_on_c, 0, 56, 0
3, 78000, Note_on_c, 0, 63, 24
3, 78240, Note_on_c, 0, 63, 0
3, 78240, Note_on_c, 0, 60, 28
3, 78480, Note_on_c, 0, 60, 0
3, 78480, Note_on_c, 0, 63, 24
3, 78720, Note_on_c, 0, 63, 0
3, 78720, Note_on_c, 0, 56, 28
3, 78960, Note_on_c, 0, 56, 0
3, 78960, Note_on_c, 0, 63, 24
3, 79200, Note_on_c, 0, 63, 0
3, 79200, Note_on_c, 0, 56, 34
3, 79440, Note_on_c, 0, 56, 0
3, 79440, Note_on_c, 0, 63, 28
3, 79680, Note_on_c, 0, 63, 0
3, 79680, Note_on_c, 0, 60, 32
3, 79920, Note_on_c, 0, 60, 0
3, 79920, Note_on_c, 0, 63, 28
3, 80160, Note_on_c, 0, 63, 0
3, 80160, Note_on_c, 0, 56, 32
3, 80400, Note_on_c, 0, 56, 0
3, 80400, Note_on_c, 0, 63, 28
3, 80640, Note_on_c, 0, 63, 0
3, 80640, Note_on_c, 0, 56, 34
3, 80880, Note_on_c, 0, 56, 0
3, 80880, Note_on_c, 0, 63, 24
3, 81120, Note_on_c, 0, 63, 0
3, 81120, Note_on_c, 0, 60, 28
3, 81360, Note_on_c, 0, 60, 0
3, 81360, Note_on_c, 0, 63, 24
3, 81600, Note_on_c, 0, 63, 0
3, 81600, Note_on_c, 0, 56, 28
3, 81840, Note_on_c, 0, 56, 0
3, 81840, Note_on_c, 0, 63, 24
3, 82080, Note_on_c, 0, 63, 0
3, 82080, Note_on_c, 0, 56, 34
3, 82320, Note_on_c, 0, 56, 0
3, 82320, Note_on_c, 0, 62, 28
3, 82560, Note_on_c, 0, 62, 0
3, 82560, Note_on_c, 0, 58, 32
3, 82800, Note_on_c, 0, 58, 0
3, 82800, Note_on_c, 0, 62, 28
3, 83040, Note_on_c, 0, 62, 0
3, 83040, Note_on_c, 0, 56, 32
3, 83280, Note_on_c, 0, 56, 0
3, 83280, Note_on_c, 0, 62, 28
3, 83520, Note_on_c, 0, 62, 0
3, 83520, Note_on_c, 0, 55, 34
3, 83760, Note_on_c, 0, 55, 0
3, 83760, Note_on_c, 0, 63, 24
3, 84000, Note_on_c, 0, 63, 0
3, 84000, Note_on_c, 0, 58, 28
3, 84240, Note_on_c, 0, 58, 0
3, 84240, Note_on_c, 0, 63, 24
3, 84480, Note_on_c, 0, 63, 0
3, 84480, Note_on_c, 0, 55, 28
3, 84720, Note_on_c, 0, 55, 0
3, 84720, Note_on_c, 0, 63, 24
3, 84960, Note_on_c, 0, 63, 0
3, 84960, Note_on_c, 0, 56, 40
3, 85440, Note_on_c, 0, 56, 0
3, 85920, Note_on_c, 0, 58, 36
3, 86400, Note_on_c, 0, 58, 0
3, 86400, Note_on_c, 0, 51, 40
3, 86880, Note_on_c, 0, 51, 0
3, 87840, Note_on_c, 0, 63, 40
3, 88320, Note_on_c, 0, 63, 0
3, 88320, Note_on_c, 0, 67, 36
3, 88800, Note_on_c, 0, 67, 0
3, 88800, Note_on_c, 0, 68, 36
3, 89280, Note_on_c, 0, 68, 0
3, 89280, Note_on_c, 0, 67, 40
3, 89760, Note_on_c, 0, 67, 0
3, 89760, Note_on_c, 0, 63, 37
3, 90240, Note_on_c, 0, 63, 0
3, 90720, Note_on_c, 0, 53, 40
3, 91200, Note_on_c, 0, 62, 36
3, 91680, Note_on_c, 0, 62, 0
3, 91680, Note_on_c, 0, 62, 36
3, 92160, Note_on_c, 0, 53, 0
3, 92160, Note_on_c, 0, 51, 40
3, 92640, Note_on_c, 0, 62, 0
3, 92640, Note_on_c, 0, 63, 37
3, 93120, Note_on_c, 0, 63, 0
3, 93120, Note_on_c, 0, 51, 0
3, 93600, Note_on_c, 0, 56, 34
3, 93840, Note_on_c, 0, 56, 0
3, 93840, Note_on_c, 0, 63, 28
3, 94080, Note_on_c, 0, 63, 0
3, 94080, Note_on_c, 0, 60, 32
3, 94320, Note_on_c, 0, 60, 0
3, 94320, Note_on_c, 0, 63, 28
3, 94560, Note_on_c, 0, 63, 0
3, 94560, Note_on_c, 0, 56, 32
3, 94800, Note_on_c, 0, 56, 0
3, 94800, Note_on_c, 0, 63, 28
3, 95040, Note_on_c, 0, 63, 0
3, 95040, Note_on_c, 0, 56, 34
3, 95280, Note_on_c, 0, 56, 0
3, 95280, Note_on_c, 0, 63, 24
3, 95520, Note_on_c, 0, 63, 0
3, 95520, Note_on_c, 0, 60, 28
3, 95760, Note_on_c, 0, 60, 0
3, 95760, Note_on_c, 0, 63, 24
3, 96000, Note_on_c, 0, 63, 0
3, 96000, Note_on_c, 0, 56, 28
3, 96240, Note_on_c, 0, 56, 0
3, 96240, Note_on_c, 0, 63, 24
3, 96480, Note_on_c, 0, 63, 0
3, 96480, Note_on_c, 0, 48, 34
3, 96720, Note_on_c, 0, 48, 0
3, 96720, Note_on_c, 0, 56, 28
3, 96960, Note_on_c, 0, 56, 0
3, 96960, Note_on_c, 0, 51, 32
3, 97200, Note_on_c, 0, 51, 0
3, 97200, Note_on_c, 0, 56, 28
3, 97440, Note_on_c, 0, 56, 0
3, 97440, Note_on_c, 0, 48, 32
3, 97680, Note_on_c, 0, 48, 0
3, 97680, Note_on_c, 0, 56, 28
3, 97920, Note_on_c, 0, 56, 0
3, 97920, Note_on_c, 0, 48, 34
3, 98160, Note_on_c, 0, 48, 0
3, 98160, Note_on_c, 0, 56, 24
3, 98400, Note_on_c, 0, 56, 0
3, 98400, Note_on_c, 0, 51, 28
3, 98640, Note_on_c, 0, 51, 0
3, 98640, Note_on_c, 0, 56, 24
3, 98880, Note_on_c, 0, 56, 0
3, 98880, Note_on_c, 0, 48, 28
3, 99120, Note_on_c, 0, 48, 0
3, 99120, Note_on_c, 0, 56, 24
3, 99360, Note_on_c, 0, 56, 0
3, 99360, Note_on_c, 0, 49, 40
3, 99840, Note_on_c, 0, 49, 0
3, 100320, Note_on_c, 0, 51, 36
3, 100800, Note_on_c, 0, 51, 0
3, 100800, Note_on_c, 0, 56, 40
3, 100800, Note_on_c, 0, 44, 32
3, 101280, Note_on_c, 0, 44, 0
3, 101280, Note_on_c, 0, 56, 0
3, 102240, Note_on_c, 0, 63, 40
3, 102720, Note_on_c, 0, 63, 0
3, 102720, Note_on_c, 0, 67, 36
3, 103200, Note_on_c, 0, 67, 0
3, 103200, Note_on_c, 0, 68, 36
3, 103680, Note_on_c, 0, 68, 0
3, 103680, Note_on_c, 0, 67, 40
3, 104160, Note_on_c, 0, 67, 0
3, 104160, Note_on_c, 0, 63, 37
3, 104640, Note_on_c, 0, 63, 0
3, 105120, Note_on_c, 0, 53, 40
3, 105600, Note_on_c, 0, 62, 36
3, 106080, Note_on_c, 0, 62, 0
3, 106080, Note_on_c, 0, 62, 36
3, 106560, Note_on_c, 0, 53, 0
3, 106560, Note_on_c, 0, 51, 40
3, 107040, Note_on_c, 0, 62, 0
3, 107040, Note_on_c, 0, 63, 37
3, 107520, Note_on_c, 0, 63, 0
3, 107520, Note_on_c, 0, 51, 0
3, 108000, Note_on_c, 0, 56, 34
3, 108240, Note_on_c, 0, 56, 0
3, 108240, Note_on_c, 0, 63, 28
3, 108480, Note_on_c, 0, 63, 0
3, 108480, Note_on_c, 0, 60, 32
3, 108720, Note_on_c, 0, 60, 0
3, 108720, Note_on_c, 0, 63, 28
3, 108960, Note_on_c, 0, 63, 0
3, 108960, Note_on_c, 0, 56, 32
3, 109200, Note_on_c, 0, 56, 0
3, 109200, Note_on_c, 0, 63, 28
3, 109440, Note_on_c, 0, 63, 0
3, 109440, Note_on_c, 0, 56, 34
3, 109680, Note_on_c, 0, 56, 0
3, 109680, Note_on_c, 0, 63, 24
3, 109920, Note_on_c, 0, 63, 0
3, 109920, Note_on_c, 0, 60, 28
3, 110160, Note_on_c, 0, 60, 0
3, 110160, Note_on_c, 0, 63, 24
3, 110400, Note_on_c, 0, 63, 0
3, 110400, Note_on_c, 0, 56, 28
3, 110640, Note_on_c, 0, 56, 0
3, 110640, Note_on_c, 0, 63, 24
3, 110880, Note_on_c, 0, 63, 0
3, 110880, Note_on_c, 0, 48, 34
3, 111120, Note_on_c, 0, 48, 0
3, 111120, Note_on_c, 0, 56, 28
3, 111360, Note_on_c, 0, 56, 0
3, 111360, Note_on_c, 0, 51, 32
3, 111600, Note_on_c, 0, 51, 0
3, 111600, Note_on_c, 0, 56, 28
3, 111840, Note_on_c, 0, 56, 0
3, 111840, Note_on_c, 0, 48, 32
3, 112080, Note_on_c, 0, 48, 0
3, 112080, Note_on_c, 0, 56, 28
3, 112320, Note_on_c, 0, 56, 0
3, 112320, Note_on_c, 0, 48, 34
3, 112560, Note_on_c, 0, 48, 0
3, 112560, Note_on_c, 0, 56, 24
3, 112800, Note_on_c, 0, 56, 0
3, 112800, Note_on_c, 0, 51, 28
3, 113040, Note_on_c, 0, 51, 0
3, 113040, Note_on_c, 0, 56, 24
3, 113280, Note_on_c, 0, 56, 0
3, 113280, Note_on_c, 0, 48, 28
3, 113520, Note_on_c, 0, 48, 0
3, 113520, Note_on_c, 0, 56, 24
3, 113760, Note_on_c, 0, 56, 0
3, 113760, Note_on_c, 0, 49, 40
3, 114240, Note_on_c, 0, 49, 0
3, 114720, Note_on_c, 0, 51, 36
3, 115200, Note_on_c, 0, 51, 0
3, 115200, Note_on_c, 0, 56, 40
3, 115200, Note_on_c, 0, 44, 32
3, 115680, Note_on_c, 0, 44, 0
3, 115680, Note_on_c, 0, 56, 0
3, 117120, Note_on_c, 0, 60, 56
3, 117120, Note_on_c, 0, 56, 46
3, 117600, Note_on_c, 0, 56, 0
3, 117600, Note_on_c, 0, 60, 0
3, 118560, Note_on_c, 0, 63, 57
3, 118560, Note_on_c, 0, 60, 48
3, 119040, Note_on_c, 0, 60, 0
3, 119040, Note_on_c, 0, 63, 0
3, 119040, Note_on_c, 0, 65, 51
3, 119160, Note_on_c, 0, 65, 0
3, 119400, Note_on_c, 0, 65, 42
3, 119490, Note_on_c, 0, 65, 0
3, 119520, Note_on_c, 0, 65, 51
3, 120000, Note_on_c, 0, 65, 0
3, 120000, Note_on_c, 0, 61, 48
3, 120120, Note_on_c, 0, 61, 0
3, 120480, Note_on_c, 0, 58, 44
3, 120600, Note_on_c, 0, 58, 0
3, 120960, Note_on_c, 0, 63, 46
3, 121910, Note_on_c, 0, 63, 0
3, 121920, Note_on_c, 0, 61, 46
3, 122400, Note_on_c, 0, 61, 0
3, 122400, Note_on_c, 0, 63, 52
3, 122400, Note_on_c, 0, 60, 44
3, 122520, Note_on_c, 0, 60, 0
3, 122520, Note_on_c, 0, 63, 0
3, 122880, Note_on_c, 0, 58, 38
3, 122880, Note_on_c, 0, 61, 46
3, 123000, Note_on_c, 0, 61, 0
3, 123000, Note_on_c, 0, 58, 0
3, 123360, Note_on_c, 0, 56, 38
3, 123360, Note_on_c, 0, 60, 46
3, 123480, Note_on_c, 0, 60, 0
3, 123480, Note_on_c, 0, 56, 0
3, 123840, Note_on_c, 0, 55, 40
3, 123840, Note_on_c, 0, 58, 48
3, 124320, Note_on_c, 0, 58, 0
3, 124320, Note_on_c, 0, 55, 0
3, 124320, Note_on_c, 0, 56, 45
3, 124320, Note_on_c, 0, 53, 37
3, 124440, Note_on_c, 0, 53, 0
3, 124440, Note_on_c, 0, 56, 0
3, 124800, Note_on_c, 0, 55, 45
3, 124800, Note_on_c, 0, 51, 37
3, 124920, Note_on_c, 0, 51, 0
3, 124920, Note_on_c, 0, 55, 0
3, 125280, Note_on_c, 0, 56, 52
3, 125400, Note_on_c, 0, 56, 0
3, 125760, Note_on_c, 0, 53, 46
3, 125880, Note_on_c, 0, 53, 0
3, 126240, Note_on_c, 0, 58, 56
3, 126360, Note_on_c, 0, 58, 0
3, 126720, Note_on_c, 0, 51, 60
3, 127200, Note_on_c, 0, 51, 0
3, 129120, Note_on_c, 0, 69, 38
3, 129120, Note_on_c, 0, 75, 46
3, 129600, Note_on_c, 0, 69, 0
3, 129600, Note_on_c, 0, 70, 50
3, 130080, Note_on_c, 0, 75, 0
3, 130080, Note_on_c, 0, 74, 46
3, 130440, Note_on_c, 0, 74, 0
3, 130560, Note_on_c, 0, 70, 0
3, 130560, Note_on_c, 0, 67, 38
3, 130560, Note_on_c, 0, 73, 46
3, 131040, Note_on_c, 0, 67, 0
3, 131040, Note_on_c, 0, 68, 50
3, 131520, Note_on_c, 0, 73, 0
3, 131520, Note_on_c, 0, 72, 46
3, 131880, Note_on_c, 0, 72, 0
3, 132000, Note_on_c, 0, 68, 0
3, 132480, Note_on_c, 0, 65, 38
3, 132480, Note_on_c, 0, 68, 46
3, 133920, Note_on_c, 0, 68, 0
3, 133920, Note_on_c, 0, 65, 0
3, 133920, Note_on_c, 0, 63, 38
3, 133920, Note_on_c, 0, 67, 46
3, 134040, Note_on_c, 0, 67, 0
3, 134040, Note_on_c, 0, 63, 0
3, 134880, Note_on_c, 0, 58, 38
3, 134880, Note_on_c, 0, 62, 38
3, 134880, Note_on_c, 0, 68, 46
3, 135360, Note_on_c, 0, 68, 0
3, 135360, Note_on_c, 0, 62, 0
3, 135360, Note_on_c, 0, 58, 0
3, 135360, Note_on_c, 0, 63, 38
3, 135360, Note_on_c, 0, 67, 46
3, 135480, Note_on_c, 0, 67, 0
3, 135480, Note_on_c, 0, 63, 0
3, 136320, Note_on_c, 0, 58, 38
3, 136320, Note_on_c, 0, 62, 38
3, 136320, Note_on_c, 0, 68, 46
3, 136800, Note_on_c, 0, 68, 0
3, 136800, Note_on_c, 0, 62, 0
3, 136800, Note_on_c, 0, 58, 0
3, 136800, Note_on_c, 0, 63, 38
3, 136800, Note_on_c, 0, 67, 46
3, 136920, Note_on_c, 0, 67, 0
3, 136920, Note_on_c, 0, 63, 0
3, 137760, Note_on_c, 0, 58, 30
3, 137760, Note_on_c, 0, 62, 30
3, 137760, Note_on_c, 0, 68, 36
3, 138240, Note_on_c, 0, 68, 0
3, 138240, Note_on_c, 0, 62, 0
3, 138240, Note_on_c, 0, 58, 0
3, 138240, Note_on_c, 0, 63, 30
3, 138240, Note_on_c, 0, 67, 36
3, 138720, Note_on_c, 0, 67, 0
3, 138720, Note_on_c, 0, 63, 0
3, 140160, Note_on_c, 0, 44, 58
3, 140160, Note_on_c, 0, 56, 69
3, 140640, Note_on_c, 0, 56, 0
3, 140640, Note_on_c, 0, 44, 0
3, 142080, Note_on_c, 0, 63, 42
3, 142080, Note_on_c, 0, 66, 51
3, 142200, Note_on_c, 0, 66, 0
3, 142200, Note_on_c, 0, 63, 0
3, 142440, Note_on_c, 0, 63, 36
3, 142440, Note_on_c, 0, 66, 42
3, 142530, Note_on_c, 0, 66, 0
3, 142530, Note_on_c, 0, 63, 0
3, 142560, Note_on_c, 0, 63, 42
3, 142560, Note_on_c, 0, 66, 51
3, 143040, Note_on_c, 0, 66, 0
3, 143040, Note_on_c, 0, 63, 0
3, 143040, Note_on_c, 0, 61, 40
3, 143040, Note_on_c, 0, 65, 48
3, 143160, Note_on_c, 0, 65, 0
3, 143160, Note_on_c, 0, 61, 0
3, 143520, Note_on_c, 0, 61, 42
3, 143520, Note_on_c, 0, 63, 51
3, 143640, Note_on_c, 0, 63, 0
3, 143640, Note_on_c, 0, 61, 0
3, 143880, Note_on_c, 0, 61, 36
3, 143880, Note_on_c, 0, 63, 42
3, 143970, Note_on_c, 0, 63, 0
3, 143970, Note_on_c, 0, 61, 0
3, 144000, Note_on_c, 0, 61, 42
3, 144000, Note_on_c, 0, 63, 51
3, 144480, Note_on_c, 0, 61, 0
3, 144480, Note_on_c, 0, 60, 40
3, 144600, Note_on_c, 0, 60, 0
3, 144600, Note_on_c, 0, 63, 0
3, 146400, Note_on_c, 0, 51, 47
3, 146400, Note_on_c, 0, 58, 56
3, 146520, Note_on_c, 0, 58, 0
3, 146520, Note_on_c, 0, 51, 0
3, 146880, Note_on_c, 0, 44, 50
3, 146880, Note_on_c, 0, 56, 60
3, 147360, Note_on_c, 0, 56, 0
3, 147360, Note_on_c, 0, 44, 0
3, 147360, End_track
4, 0, Start_track
4, 0, Title_t, "Pedale"
4, 0, Program_c, 0, 0
4, 25941, Control_c, 0, 64, 127
4, 26423, Control_c, 0, 64, 0
4, 27459, Control_c, 0, 64, 127
4, 27858, Control_c, 0, 64, 0
4, 28892, Control_c, 0, 64, 127
4, 29296, Control_c, 0, 64, 0
4, 29555, Control_c, 0, 64, 127
4, 29777, Control_c, 0, 64, 0
4, 30057, Control_c, 0, 64, 127
4, 30248, Control_c, 0, 64, 0
4, 31292, Control_c, 0, 64, 127
4, 31689, Control_c, 0, 64, 0
4, 32760, Control_c, 0, 64, 127
4, 33133, Control_c, 0, 64, 0
4, 34200, Control_c, 0, 64, 127
4, 34578, Control_c, 0, 64, 0
4, 35499, Control_c, 0, 64, 127
4, 36480, Control_c, 0, 64, 0
4, 37080, Control_c, 0, 64, 127
4, 37943, Control_c, 0, 64, 0
4, 46101, Control_c, 0, 64, 127
4, 46583, Control_c, 0, 64, 0
4, 47619, Control_c, 0, 64, 127
4, 48018, Control_c, 0, 64, 0
4, 49052, Control_c, 0, 64, 127
4, 49456, Control_c, 0, 64, 0
4, 49715, Control_c, 0, 64, 127
4, 49937, Control_c, 0, 64, 0
4, 50217, Control_c, 0, 64, 127
4, 50408, Control_c, 0, 64, 0
4, 51452, Control_c, 0, 64, 127
4, 51849, Control_c, 0, 64, 0
4, 52920, Control_c, 0, 64, 127
4, 53293, Control_c, 0, 64, 0
4, 54360, Control_c, 0, 64, 127
4, 54738, Control_c, 0, 64, 0
4, 55659, Control_c, 0, 64, 127
4, 56640, Control_c, 0, 64, 0
4, 57254, Control_c, 0, 64, 127
4, 58103, Control_c, 0, 64, 0
4, 65930, Control_c, 0, 64, 127
4, 66240, Control_c, 0, 64, 0
4, 66424, Control_c, 0, 64, 127
4, 67218, Control_c, 0, 64, 0
4, 68810, Control_c, 0, 64, 127
4, 69120, Control_c, 0, 64, 0
4, 69304, Control_c, 0, 64, 127
4, 70094, Control_c, 0, 64, 0
4, 70098, Control_c, 0, 64, 0
4, 72184, Control_c, 0, 64, 127
4, 72974, Control_c, 0, 64, 0
4, 72978, Control_c, 0, 64, 0
4, 77450, Control_c, 0, 64, 127
4, 77760, Control_c, 0, 64, 0
4, 77944, Control_c, 0, 64, 127
4, 78738, Control_c, 0, 64, 0
4, 80330, Control_c, 0, 64, 127
4, 80640, Control_c, 0, 64, 0
4, 80824, Control_c, 0, 64, 127
4, 81614, Control_c, 0, 64, 0
4, 81618, Control_c, 0, 64, 0
4, 83704, Control_c, 0, 64, 127
4, 84494, Control_c, 0, 64, 0
4, 84498, Control_c, 0, 64, 0
4, 87374, Control_c, 0, 64, 0
4, 87378, Control_c, 0, 64, 0
4, 90254, Control_c, 0, 64, 0
4, 90258, Control_c, 0, 64, 0
4, 94730, Control_c, 0, 64, 127
4, 95040, Control_c, 0, 64, 0
4, 95224, Control_c, 0, 64, 127
4, 96018, Control_c, 0, 64, 0
4, 97610, Control_c, 0, 64, 127
4, 97920, Control_c, 0, 64, 0
4, 98104, Control_c, 0, 64, 127
4, 98104, Control_c, 0, 64, 127
4, 98894, Control_c, 0, 64, 0
4, 98898, Control_c, 0, 64, 0
4, 101774, Control_c, 0, 64, 0
4, 101778, Control_c, 0, 64, 0
4, 104654, Control_c, 0, 64, 0
4, 104658, Control_c, 0, 64, 0
4, 109130, Control_c, 0, 64, 127
4, 109440, Control_c, 0, 64, 0
4, 109624, Control_c, 0, 64, 127
4, 110418, Control_c, 0, 64, 0
4, 112010, Control_c, 0, 64, 127
4, 112320, Control_c, 0, 64, 0
4, 112504, Control_c, 0, 64, 127
4, 112504, Control_c, 0, 64, 127
4, 113294, Control_c, 0, 64, 0
4, 113298, Control_c, 0, 64, 0
4, 129621, Control_c, 0, 64, 127
4, 130103, Control_c, 0, 64, 0
4, 131139, Control_c, 0, 64, 127
4, 131538, Control_c, 0, 64, 0
4, 132572, Control_c, 0, 64, 127
4, 132976, Control_c, 0, 64, 0
4, 133235, Control_c, 0, 64, 127
4, 133457, Control_c, 0, 64, 0
4, 133737, Control_c, 0, 64, 127
4, 133928, Control_c, 0, 64, 0
4, 134972, Control_c, 0, 64, 127
4, 135369, Control_c, 0, 64, 0
4, 136440, Control_c, 0, 64, 127
4, 136813, Control_c, 0, 64, 0
4, 137880, Control_c, 0, 64, 127
4, 138258, Control_c, 0, 64, 0
4, 139179, Control_c, 0, 64, 127
4, 140160, Control_c, 0, 64, 0
4, 140760, Control_c, 0, 64, 127
4, 141623, Control_c, 0, 64, 0
4, 141623, End_track
5, 0, Start_track
5, 0, Title_t, "Haydn: Sonata Hoboken XVI:43 2. movement"
5, 0, End_track
6, 0, Start_track
6, 0, Title_t, "Copyright © 2010 by Bernd Krueger"
6, 0, End_track
7, 0, Start_track
7, 0, Title_t, "http://www.piano-midi.de/"
7, 0, End_track
8, 0, Start_track
8, 0, Title_t, "Edition: 2012-01-13"
8, 0, End_track
9, 0, Start_track
9, 0, Title_t, "Spur 8"
9, 0, End_track
10, 0, Start_track
10, 0, Title_t, "Spur 9"
10, 0, End_track
11, 0, Start_track
11, 0, Title_t, "Spur 10"
11, 0, End_track
12, 0, Start_track
12, 0, Title_t, "Spur 11"
12, 0, End_track
13, 0, Start_track
13, 0, Title_t, "Spur 12"
13, 0, End_track
14, 0, Start_track
14, 0, Title_t, "Spur 13"
14, 0, End_track
15, 0, Start_track
15, 0, Title_t, "Spur 14"
15, 0, End_track
16, 0, Start_track
16, 0, Title_t, "Spur 15"
16, 0, End_track
17, 0, Start_track
17, 0, Title_t, "Spur 16"
17, 0, End_track
0, 0, End_of_file
