0, 0, Header, 1, 17, 480
1, 0, Start_track
1, 0, Title_t, "Franz Liszt: Etudes d'execution transcendante No. 5"
1, 0, Title_t, "Feux Follets (Irrlichter)"
1, 0, Copyright_t, "Copyright © 2006 by Bernd Krueger"
1, 0, Text_t, "Franz Liszt"
1, 0, Text_t, "Veröffentlicht: 1.2.2007\012"
1, 0, Text_t, "Update: 9.3.2011\012"
1, 0, Text_t, "Update 6.3.2014\012"
1, 0, Text_t, "Dauer: 3:16 Minuten\012"
1, 0, Time_signature, 2, 2, 24, 8
1, 0, Key_signature, -2, "major"
1, 0, Tempo, 600000
1, 173, Tempo, 615385
1, 422, Tempo, 612245
1, 672, Tempo, 609137
1, 922, Tempo, 606061
1, 1171, Tempo, 603015
1, 1421, Tempo, 600000
1, 1670, Tempo, 597015
1, 1920, Tempo, 594059
1, 2093, Tempo, 594059
1, 2246, Tempo, 591133
1, 2400, Tempo, 588235
1, 2573, Tempo, 585366
1, 2726, Tempo, 582524
1, 2861, Tempo, 582524
1, 3187, Tempo, 585366
1, 3514, Tempo, 588235
1, 3840, Tempo, 582524
1, 3974, Tempo, 585366
1, 4090, Tempo, 588235
1, 4224, Tempo, 591133
1, 4339, Tempo, 594059
1, 4454, Tempo, 597015
1, 4589, Tempo, 600000
1, 4704, Tempo, 603015
1, 4819, Tempo, 606061
1, 4877, Tempo, 615385
1, 4934, Tempo, 618557
1, 5011, Tempo, 621762
1, 5069, Tempo, 625000
1, 5146, Tempo, 628272
1, 5203, Tempo, 631579
1, 5261, Tempo, 634921
1, 5338, Tempo, 638298
1, 5395, Tempo, 641711
1, 5472, Tempo, 645161
1, 5530, Tempo, 648649
1, 5606, Tempo, 652174
1, 5664, Tempo, 655738
1, 5722, Tempo, 659341
1, 5760, Tempo, 745342
1, 6000, Tempo, 600000
1, 6010, Tempo, 603015
1, 6182, Tempo, 606061
1, 6355, Tempo, 609137
1, 6528, Tempo, 612245
1, 6701, Tempo, 615385
1, 7200, Tempo, 610066
1, 7215, Tempo, 616333
1, 7230, Tempo, 625978
1, 7245, Tempo, 635930
1, 7260, Tempo, 646204
1, 7275, Tempo, 656814
1, 7290, Tempo, 664084
1, 7305, Tempo, 675295
1, 7320, Tempo, 686892
1, 7335, Tempo, 698893
1, 7350, Tempo, 711322
1, 7365, Tempo, 724200
1, 7380, Tempo, 660429
1, 7395, Tempo, 664084
1, 7410, Tempo, 667780
1, 7411, Tempo, 628272
1, 7450, Tempo, 631579
1, 7469, Tempo, 634921
1, 7560, Tempo, 858984
1, 7680, Tempo, 779221
1, 7800, Tempo, 662983
1, 8160, Tempo, 722892
1, 8280, Tempo, 666667
1, 8400, Tempo, 685714
1, 8880, Tempo, 606061
1, 8995, Tempo, 609137
1, 9168, Tempo, 612245
1, 9341, Tempo, 615385
1, 9859, Tempo, 609137
1, 9898, Tempo, 612245
1, 9936, Tempo, 615385
1, 9955, Tempo, 618557
1, 9994, Tempo, 621762
1, 10032, Tempo, 625000
1, 10051, Tempo, 628272
1, 10090, Tempo, 631579
1, 10109, Tempo, 634921
1, 10560, Tempo, 779221
1, 10680, Tempo, 662983
1, 11040, Tempo, 722892
1, 11160, Tempo, 666667
1, 11280, Tempo, 685714
1, 11520, Tempo, 779221
1, 11640, Tempo, 686892
1, 12000, Tempo, 746733
1, 12120, Tempo, 686892
1, 12240, Tempo, 719856
1, 12600, Tempo, 686892
1, 12720, Tempo, 724200
1, 12960, Tempo, 780742
1, 13080, Tempo, 715564
1, 13200, Tempo, 760938
1, 13440, Tempo, 765795
1, 13653, Tempo, 751409
1, 13803, Tempo, 746733
1, 13938, Tempo, 742115
1, 14088, Tempo, 737554
1, 14223, Tempo, 733048
1, 14358, Tempo, 728597
1, 14396, Tempo, 674157
1, 14473, Tempo, 670391
1, 14531, Tempo, 666667
1, 14588, Tempo, 662983
1, 14646, Tempo, 659341
1, 14723, Tempo, 655738
1, 14780, Tempo, 652174
1, 14838, Tempo, 648649
1, 14895, Tempo, 645161
1, 14953, Tempo, 641711
1, 15136, Tempo, 634921
1, 15328, Tempo, 631579
1, 15732, Tempo, 628272
1, 15798, Tempo, 631579
1, 15855, Tempo, 634921
1, 15894, Tempo, 638298
1, 15932, Tempo, 641711
1, 15971, Tempo, 645161
1, 16009, Tempo, 648649
1, 16047, Tempo, 652174
1, 16086, Tempo, 655738
1, 16124, Tempo, 659341
1, 16163, Tempo, 662983
1, 16201, Tempo, 666667
1, 16239, Tempo, 670391
1, 16278, Tempo, 674157
1, 16316, Tempo, 677966
1, 16320, Tempo, 705882
1, 16560, Tempo, 662983
1, 16563, Tempo, 770812
1, 16800, Tempo, 806452
1, 17040, Tempo, 762389
1, 17280, Tempo, 825537
1, 17498, Tempo, 797236
1, 17556, Tempo, 792707
1, 17613, Tempo, 788229
1, 17652, Tempo, 783801
1, 17709, Tempo, 779423
1, 17748, Tempo, 775094
1, 17805, Tempo, 770812
1, 17844, Tempo, 766577
1, 18120, Tempo, 845547
1, 18240, Tempo, 806452
1, 18420, Tempo, 883002
1, 18480, Tempo, 770812
1, 18720, Tempo, 806452
1, 18960, Tempo, 762389
1, 19200, Tempo, 825537
1, 19418, Tempo, 797236
1, 19476, Tempo, 792707
1, 19533, Tempo, 788229
1, 19572, Tempo, 783801
1, 19629, Tempo, 779423
1, 19668, Tempo, 775094
1, 19725, Tempo, 770812
1, 19764, Tempo, 766577
1, 20040, Tempo, 845547
1, 20160, Tempo, 801817
1, 20340, Tempo, 861203
1, 20400, Tempo, 770812
1, 20640, Tempo, 806452
1, 20880, Tempo, 762389
1, 21120, Tempo, 825537
1, 21338, Tempo, 797236
1, 21396, Tempo, 792707
1, 21453, Tempo, 788229
1, 21492, Tempo, 783801
1, 21549, Tempo, 779423
1, 21588, Tempo, 775094
1, 21645, Tempo, 770812
1, 21684, Tempo, 766577
1, 21960, Tempo, 845547
1, 22080, Tempo, 766577
1, 22320, Tempo, 770812
1, 22560, Tempo, 806452
1, 22800, Tempo, 762389
1, 23040, Tempo, 825537
1, 23258, Tempo, 797236
1, 23316, Tempo, 792707
1, 23373, Tempo, 788229
1, 23412, Tempo, 783801
1, 23469, Tempo, 779423
1, 23508, Tempo, 775094
1, 23565, Tempo, 770812
1, 23604, Tempo, 766577
1, 23880, Tempo, 845547
1, 24000, Tempo, 825537
1, 24180, Tempo, 955566
1, 24240, Tempo, 779221
1, 24900, Tempo, 909091
1, 24960, Tempo, 779221
1, 25140, Tempo, 857143
1, 25200, Tempo, 785855
1, 25380, Tempo, 845070
1, 25440, Tempo, 791035
1, 25620, Tempo, 869565
1, 25680, Tempo, 796284
1, 25860, Tempo, 858984
1, 25920, Tempo, 791035
1, 26100, Tempo, 840925
1, 26160, Tempo, 791035
1, 26340, Tempo, 851064
1, 26400, Tempo, 796284
1, 26820, Tempo, 871460
1, 26880, Tempo, 779221
1, 27120, Tempo, 734304
1, 27252, Tempo, 730460
1, 27328, Tempo, 734304
1, 27405, Tempo, 738189
1, 27482, Tempo, 742115
1, 27559, Tempo, 746083
1, 27636, Tempo, 750094
1, 27712, Tempo, 754148
1, 27789, Tempo, 758246
1, 27840, Tempo, 770812
1, 28080, Tempo, 770812
1, 28320, Tempo, 806452
1, 28560, Tempo, 762389
1, 28800, Tempo, 825537
1, 29018, Tempo, 797236
1, 29076, Tempo, 792707
1, 29133, Tempo, 788229
1, 29172, Tempo, 783801
1, 29229, Tempo, 779423
1, 29268, Tempo, 775094
1, 29325, Tempo, 770812
1, 29364, Tempo, 766577
1, 29640, Tempo, 845547
1, 29760, Tempo, 784314
1, 29940, Tempo, 883002
1, 30000, Tempo, 770812
1, 30240, Tempo, 806452
1, 30480, Tempo, 762389
1, 30720, Tempo, 825537
1, 30938, Tempo, 797236
1, 30996, Tempo, 792707
1, 31053, Tempo, 788229
1, 31092, Tempo, 783801
1, 31149, Tempo, 779423
1, 31188, Tempo, 775094
1, 31245, Tempo, 770812
1, 31284, Tempo, 766577
1, 31560, Tempo, 845547
1, 31680, Tempo, 801817
1, 31860, Tempo, 861203
1, 31920, Tempo, 746733
1, 32160, Tempo, 780742
1, 32400, Tempo, 733048
1, 32640, Tempo, 812458
1, 32846, Tempo, 770713
1, 32906, Tempo, 765795
1, 32951, Tempo, 760938
1, 32996, Tempo, 756144
1, 33041, Tempo, 751409
1, 33101, Tempo, 746733
1, 33146, Tempo, 742115
1, 33191, Tempo, 737554
1, 33236, Tempo, 733048
1, 33480, Tempo, 806994
1, 33600, Tempo, 742115
1, 33840, Tempo, 756144
1, 34080, Tempo, 785855
1, 34320, Tempo, 742115
1, 34560, Tempo, 806994
1, 34736, Tempo, 770713
1, 34796, Tempo, 765795
1, 34856, Tempo, 760938
1, 34901, Tempo, 756144
1, 34961, Tempo, 751409
1, 35006, Tempo, 746733
1, 35066, Tempo, 742115
1, 35081, Tempo, 746733
1, 35400, Tempo, 845547
1, 35520, Tempo, 765795
1, 35700, Tempo, 970089
1, 35760, Tempo, 785855
1, 36000, Tempo, 770713
1, 36180, Tempo, 913520
1, 36240, Tempo, 785855
1, 36480, Tempo, 812458
1, 36660, Tempo, 920528
1, 36720, Tempo, 791035
1, 37260, Tempo, 823610
1, 37380, Tempo, 1232539
1, 37440, Tempo, 913520
1, 37860, Tempo, 957243
1, 37920, Tempo, 886525
1, 38400, Tempo, 861079
1, 38820, Tempo, 927644
1, 38880, Tempo, 842933
1, 39360, Tempo, 1040222
1, 39480, Tempo, 748316
1, 39840, Tempo, 798085
1, 39900, Tempo, 734574
1, 39960, Tempo, 700280
1, 40080, Tempo, 767460
1, 40320, Tempo, 1160991
1, 40440, Tempo, 604961
1, 40453, Tempo, 627090
1, 40543, Tempo, 630385
1, 40633, Tempo, 633714
1, 40723, Tempo, 637078
1, 40813, Tempo, 640478
1, 40903, Tempo, 643915
1, 40993, Tempo, 647389
1, 41083, Tempo, 650900
1, 41173, Tempo, 654450
1, 41248, Tempo, 658039
1, 41280, Tempo, 1040222
1, 41400, Tempo, 748316
1, 41760, Tempo, 798085
1, 41820, Tempo, 734574
1, 41880, Tempo, 700280
1, 42000, Tempo, 767460
1, 42240, Tempo, 1160991
1, 42358, Tempo, 611122
1, 42463, Tempo, 614251
1, 42568, Tempo, 617411
1, 42673, Tempo, 620604
1, 42778, Tempo, 623830
1, 42883, Tempo, 627090
1, 42988, Tempo, 630385
1, 43093, Tempo, 633714
1, 43198, Tempo, 637078
1, 43200, Tempo, 1160991
1, 43320, Tempo, 604961
1, 43440, Tempo, 606061
1, 43555, Tempo, 609137
1, 43728, Tempo, 612245
1, 43901, Tempo, 615385
1, 44040, Tempo, 627090
1, 44100, Tempo, 906618
1, 44160, Tempo, 1160991
1, 44278, Tempo, 578704
1, 44323, Tempo, 581508
1, 44353, Tempo, 584340
1, 44398, Tempo, 587199
1, 44428, Tempo, 590087
1, 44473, Tempo, 593003
1, 44503, Tempo, 595948
1, 44533, Tempo, 598922
1, 44580, Tempo, 787608
1, 44640, Tempo, 1160991
1, 44745, Tempo, 581508
1, 44835, Tempo, 584340
1, 44925, Tempo, 587199
1, 45015, Tempo, 590087
1, 45060, Tempo, 757767
1, 45105, Tempo, 593003
1, 45195, Tempo, 595948
1, 45285, Tempo, 598922
1, 45360, Tempo, 601926
1, 45420, Tempo, 734574
1, 45450, Tempo, 604961
1, 45480, Tempo, 608026
1, 45540, Tempo, 608026
1, 45630, Tempo, 611122
1, 45720, Tempo, 614251
1, 45810, Tempo, 617411
1, 45885, Tempo, 620604
1, 45960, Tempo, 627090
1, 46020, Tempo, 906618
1, 46080, Tempo, 759494
1, 46200, Tempo, 666667
1, 46500, Tempo, 805369
1, 46560, Tempo, 666667
1, 46980, Tempo, 923077
1, 47040, Tempo, 697674
1, 47160, Tempo, 666667
1, 47460, Tempo, 805369
1, 47520, Tempo, 666667
1, 47940, Tempo, 923077
1, 48000, Tempo, 759494
1, 48120, Tempo, 655738
1, 48420, Tempo, 805369
1, 48480, Tempo, 659341
1, 48900, Tempo, 923077
1, 48960, Tempo, 697674
1, 49080, Tempo, 648649
1, 49380, Tempo, 750000
1, 49440, Tempo, 645161
1, 49860, Tempo, 1064774
1, 49920, Tempo, 659341
1, 50400, Tempo, 675295
1, 50640, Tempo, 756430
1, 50760, Tempo, 657030
1, 50880, Tempo, 659341
1, 51360, Tempo, 667780
1, 51600, Tempo, 756430
1, 51720, Tempo, 657030
1, 51840, Tempo, 659341
1, 52320, Tempo, 667780
1, 52560, Tempo, 756430
1, 52680, Tempo, 657030
1, 53309, Tempo, 656814
1, 53354, Tempo, 660429
1, 53399, Tempo, 664084
1, 53444, Tempo, 667780
1, 53474, Tempo, 671517
1, 53519, Tempo, 675295
1, 53564, Tempo, 679117
1, 53609, Tempo, 682982
1, 53639, Tempo, 686892
1, 53684, Tempo, 690846
1, 53729, Tempo, 694847
1, 53759, Tempo, 698893
1, 54248, Tempo, 698893
1, 54323, Tempo, 702988
1, 54398, Tempo, 707130
1, 54473, Tempo, 711322
1, 54548, Tempo, 715564
1, 54623, Tempo, 719856
1, 54698, Tempo, 724200
1, 54720, Tempo, 756144
1, 54840, Tempo, 877835
1, 54960, Tempo, 780742
1, 55680, Tempo, 780742
1, 55920, Tempo, 698893
1, 56348, Tempo, 698893
1, 56393, Tempo, 702988
1, 56423, Tempo, 707130
1, 56453, Tempo, 711322
1, 56483, Tempo, 715564
1, 56528, Tempo, 719856
1, 56558, Tempo, 724200
1, 56588, Tempo, 728597
1, 56618, Tempo, 733048
1, 56640, Tempo, 765795
1, 56760, Tempo, 877835
1, 56880, Tempo, 780742
1, 57533, Tempo, 775695
1, 57653, Tempo, 770713
1, 57773, Tempo, 765795
1, 57878, Tempo, 760938
1, 57998, Tempo, 756144
1, 58103, Tempo, 751409
1, 58148, Tempo, 756144
1, 58193, Tempo, 760938
1, 58238, Tempo, 765795
1, 58268, Tempo, 770713
1, 58313, Tempo, 775695
1, 58358, Tempo, 780742
1, 58403, Tempo, 785855
1, 58433, Tempo, 791035
1, 58478, Tempo, 796284
1, 58523, Tempo, 801603
1, 58553, Tempo, 806994
1, 58560, Key_signature, 3, "major"
1, 58680, Tempo, 756144
1, 59160, Tempo, 806994
1, 59280, Tempo, 751409
1, 59640, Tempo, 756144
1, 60120, Tempo, 806994
1, 60240, Tempo, 751409
1, 60480, Tempo, 806994
1, 60600, Tempo, 756144
1, 61080, Tempo, 806994
1, 61200, Tempo, 751409
1, 61440, Tempo, 796284
1, 61560, Tempo, 756144
1, 62040, Tempo, 806994
1, 62160, Tempo, 751409
1, 62400, Tempo, 780742
1, 62520, Tempo, 715564
1, 63000, Tempo, 785855
1, 63120, Tempo, 719856
1, 63360, Tempo, 698893
1, 63840, Tempo, 690846
1, 64320, Tempo, 686892
1, 66233, Tempo, 682982
1, 66338, Tempo, 686892
1, 66443, Tempo, 690846
1, 66548, Tempo, 694847
1, 66653, Tempo, 698893
1, 66758, Tempo, 702988
1, 66863, Tempo, 707130
1, 66968, Tempo, 711322
1, 67073, Tempo, 715564
1, 67178, Tempo, 719856
1, 68151, Tempo, 719856
1, 68376, Tempo, 724200
1, 68586, Tempo, 728597
1, 68796, Tempo, 733048
1, 69006, Tempo, 737554
1, 69051, Tempo, 737554
1, 69083, Tempo, 715564
1, 69096, Tempo, 733048
1, 69126, Tempo, 737554
1, 69141, Tempo, 742115
1, 69156, Tempo, 746733
1, 69171, Tempo, 751409
1, 69186, Tempo, 756144
1, 69201, Tempo, 760938
1, 69216, Tempo, 765795
1, 69231, Tempo, 770713
1, 69246, Tempo, 775695
1, 69261, Tempo, 780742
1, 69263, Tempo, 770713
1, 69278, Tempo, 780742
1, 69360, Tempo, 719856
1, 70080, Tempo, 796284
1, 70200, Tempo, 724200
1, 70680, Tempo, 780742
1, 70800, Tempo, 711322
1, 70920, Tempo, 715564
1, 71280, Tempo, 719856
1, 72000, Tempo, 796284
1, 72120, Tempo, 719856
1, 72600, Tempo, 780742
1, 72720, Tempo, 711322
1, 72840, Tempo, 715564
1, 73080, Tempo, 791035
1, 73200, Tempo, 728597
1, 73440, Tempo, 719856
1, 73920, Tempo, 796284
1, 74040, Tempo, 715564
1, 74400, Tempo, 719856
1, 74520, Tempo, 780742
1, 74640, Tempo, 711322
1, 74760, Tempo, 715564
1, 75120, Tempo, 719856
1, 75840, Tempo, 796284
1, 75960, Tempo, 715564
1, 76440, Tempo, 780742
1, 76560, Tempo, 711322
1, 76680, Tempo, 715564
1, 77040, Tempo, 733048
1, 77280, Tempo, 733048
1, 77700, Tempo, 858984
1, 77760, Tempo, 742115
1, 77940, Tempo, 857143
1, 78000, Tempo, 751409
1, 78180, Tempo, 845070
1, 78240, Tempo, 756144
1, 78420, Tempo, 869565
1, 78480, Tempo, 765795
1, 78660, Tempo, 839161
1, 78720, Tempo, 779221
1, 78900, Tempo, 821918
1, 78960, Tempo, 779221
1, 79140, Tempo, 851064
1, 79200, Tempo, 779221
1, 79620, Tempo, 845070
1, 79680, Tempo, 796284
1, 79920, Tempo, 751409
1, 80160, Tempo, 733048
1, 80400, Tempo, 698893
1, 80640, Tempo, 796284
1, 80760, Tempo, 715564
1, 81120, Tempo, 719856
1, 81240, Tempo, 780742
1, 81360, Tempo, 711322
1, 81480, Tempo, 715564
1, 81840, Tempo, 733048
1, 82080, Tempo, 715564
1, 82320, Tempo, 698893
1, 82560, Tempo, 796284
1, 82680, Tempo, 715564
1, 83040, Tempo, 719856
1, 83160, Tempo, 780742
1, 83280, Tempo, 711322
1, 83400, Tempo, 715564
1, 83760, Tempo, 746733
1, 84000, Tempo, 724200
1, 84500, Tempo, 796284
1, 84600, Tempo, 724200
1, 84780, Tempo, 707130
1, 84980, Tempo, 719856
1, 85100, Tempo, 780742
1, 85220, Tempo, 711322
1, 85340, Tempo, 715564
1, 85680, Tempo, 751409
1, 85920, Tempo, 728597
1, 86160, Tempo, 707130
1, 86420, Tempo, 796284
1, 86540, Tempo, 715564
1, 86900, Tempo, 719856
1, 87020, Tempo, 780742
1, 87140, Tempo, 711322
1, 87260, Tempo, 715564
1, 87360, Key_signature, -2, "major"
1, 87480, Tempo, 801603
1, 87540, Tempo, 904295
1, 87600, Tempo, 779221
1, 88260, Tempo, 909091
1, 88320, Tempo, 791035
1, 88500, Tempo, 857143
1, 88560, Tempo, 779221
1, 89220, Tempo, 909091
1, 89280, Tempo, 791035
1, 89460, Tempo, 857143
1, 89520, Tempo, 756144
1, 90180, Tempo, 909091
1, 90240, Tempo, 775695
1, 90420, Tempo, 857143
1, 90480, Tempo, 756144
1, 91140, Tempo, 909091
1, 91200, Tempo, 775695
1, 91380, Tempo, 857143
1, 91440, Tempo, 751409
1, 92100, Tempo, 909091
1, 92160, Tempo, 775695
1, 92309, Tempo, 789474
1, 92324, Tempo, 805369
1, 92399, Tempo, 800000
1, 92474, Tempo, 794702
1, 92534, Tempo, 789474
1, 92609, Tempo, 784314
1, 92669, Tempo, 779221
1, 92744, Tempo, 774194
1, 92759, Tempo, 774194
1, 92849, Tempo, 769231
1, 92939, Tempo, 764331
1, 93029, Tempo, 759494
1, 93254, Tempo, 754717
1, 93299, Tempo, 759494
1, 93329, Tempo, 764331
1, 93359, Tempo, 769231
1, 93389, Tempo, 774194
1, 93419, Tempo, 779221
1, 93449, Tempo, 784314
1, 93479, Tempo, 789474
1, 93509, Tempo, 794702
1, 93539, Tempo, 800000
1, 93569, Tempo, 805369
1, 93599, Tempo, 810811
1, 93644, Tempo, 816327
1, 93689, Tempo, 821918
1, 93734, Tempo, 827586
1, 93764, Tempo, 833333
1, 93809, Tempo, 839161
1, 93818, Tempo, 851064
1, 93833, Tempo, 857143
1, 93848, Tempo, 863309
1, 93863, Tempo, 869565
1, 93878, Tempo, 875912
1, 93893, Tempo, 882353
1, 93908, Tempo, 888889
1, 93923, Tempo, 895522
1, 93938, Tempo, 902256
1, 93953, Tempo, 960000
1, 93968, Tempo, 1025641
1, 94080, Tempo, 842933
1, 94500, Tempo, 927644
1, 94560, Tempo, 842933
1, 95040, Tempo, 842933
1, 95460, Tempo, 927644
1, 95520, Tempo, 842933
1, 96000, Tempo, 842933
1, 96420, Tempo, 927644
1, 96480, Tempo, 842933
1, 96900, Tempo, 923077
1, 97080, Tempo, 780742
1, 97200, Tempo, 770713
1, 97560, Tempo, 871460
1, 97680, Tempo, 780742
1, 97920, Tempo, 925212
1, 98040, Tempo, 791035
1, 98160, Tempo, 791035
1, 98520, Tempo, 925212
1, 98640, Tempo, 823610
1, 98820, Tempo, 794702
1, 98880, Tempo, 939702
1, 99000, Tempo, 812458
1, 99120, Tempo, 801603
1, 99480, Tempo, 884304
1, 99600, Tempo, 823610
1, 99780, Tempo, 845070
1, 99840, Tempo, 1037165
1, 99960, Tempo, 939702
1, 100080, Tempo, 884304
1, 100320, Tempo, 925212
1, 100440, Tempo, 1093892
1, 100560, Tempo, 939702
1, 100680, Tempo, 1228250
1, 100800, Tempo, 923077
1, 100920, Tempo, 724200
1, 101040, Tempo, 728597
1, 101160, Tempo, 751409
1, 101400, Tempo, 823610
1, 101520, Tempo, 751409
1, 101760, Tempo, 923077
1, 101880, Tempo, 724200
1, 102000, Tempo, 733048
1, 102060, Tempo, 751409
1, 102360, Tempo, 823610
1, 102480, Tempo, 751409
1, 102660, Tempo, 863309
1, 102720, Tempo, 745342
1, 102840, Tempo, 806994
1, 102960, Tempo, 751409
1, 103140, Tempo, 888889
1, 103200, Tempo, 750000
1, 103320, Tempo, 806994
1, 103440, Tempo, 751409
1, 103680, Tempo, 846860
1, 103743, Tempo, 812458
1, 103833, Tempo, 806994
1, 103923, Tempo, 801603
1, 104013, Tempo, 796284
1, 104103, Tempo, 791035
1, 104193, Tempo, 785855
1, 104283, Tempo, 780742
1, 104373, Tempo, 775695
1, 104463, Tempo, 770713
1, 104553, Tempo, 765795
1, 104643, Tempo, 760938
1, 105123, Tempo, 765795
1, 105228, Tempo, 770713
1, 105318, Tempo, 775695
1, 105423, Tempo, 780742
1, 105513, Tempo, 785855
1, 105603, Tempo, 791035
1, 106583, Tempo, 780742
1, 106673, Tempo, 785855
1, 106748, Tempo, 791035
1, 106823, Tempo, 796284
1, 106898, Tempo, 801603
1, 106973, Tempo, 806994
1, 107018, Tempo, 806994
1, 107048, Tempo, 812458
1, 107063, Tempo, 817996
1, 107093, Tempo, 823610
1, 107108, Tempo, 829302
1, 107138, Tempo, 835073
1, 107153, Tempo, 840925
1, 107168, Tempo, 846860
1, 107198, Tempo, 852878
1, 107213, Tempo, 858984
1, 107243, Tempo, 865177
1, 107258, Tempo, 871460
1, 107273, Tempo, 877835
1, 107303, Tempo, 884304
1, 107318, Tempo, 890869
1, 107348, Tempo, 897532
1, 107363, Tempo, 904295
1, 107378, Tempo, 911162
1, 107393, Tempo, 858984
1, 107400, Tempo, 1093892
1, 107520, Tempo, 994200
1, 107760, Tempo, 796284
1, 107993, Tempo, 760938
1, 108000, Tempo, 751409
1, 108480, Tempo, 791035
1, 108600, Tempo, 737554
1, 108720, Tempo, 742115
1, 109080, Tempo, 801603
1, 109200, Tempo, 751409
1, 110340, Tempo, 846860
1, 110400, Tempo, 737554
1, 111300, Tempo, 904295
1, 111360, Tempo, 742115
1, 111600, Tempo, 796284
1, 111833, Tempo, 760938
1, 112320, Tempo, 791035
1, 112440, Tempo, 742115
1, 112560, Tempo, 742115
1, 112920, Tempo, 801603
1, 113040, Tempo, 751409
1, 113239, Tempo, 756144
1, 113464, Tempo, 751409
1, 113689, Tempo, 746733
1, 113914, Tempo, 742115
1, 114139, Tempo, 737554
1, 114180, Tempo, 852878
1, 114240, Tempo, 737554
1, 115140, Tempo, 852878
1, 115200, Tempo, 742115
1, 115320, Tempo, 748316
1, 115680, Tempo, 798085
1, 115740, Tempo, 734574
1, 115800, Tempo, 700280
1, 115920, Tempo, 767460
1, 116160, Tempo, 1160991
1, 116270, Tempo, 639318
1, 116330, Tempo, 642742
1, 116390, Tempo, 646204
1, 116435, Tempo, 649702
1, 116495, Tempo, 653239
1, 116555, Tempo, 656814
1, 116600, Tempo, 660429
1, 116660, Tempo, 664084
1, 116720, Tempo, 667780
1, 116765, Tempo, 671517
1, 116825, Tempo, 675295
1, 116885, Tempo, 679117
1, 116930, Tempo, 682982
1, 116990, Tempo, 686892
1, 117050, Tempo, 690846
1, 117095, Tempo, 694847
1, 117120, Tempo, 1040222
1, 117240, Tempo, 748316
1, 117600, Tempo, 798085
1, 117660, Tempo, 734574
1, 117720, Tempo, 700280
1, 117840, Tempo, 767460
1, 118080, Tempo, 1160991
1, 118190, Tempo, 619515
1, 118280, Tempo, 622730
1, 118355, Tempo, 625978
1, 118430, Tempo, 629261
1, 118505, Tempo, 632578
1, 118580, Tempo, 635930
1, 118655, Tempo, 639318
1, 118730, Tempo, 642742
1, 118805, Tempo, 646204
1, 118880, Tempo, 649702
1, 118955, Tempo, 653239
1, 119030, Tempo, 656814
1, 119038, Tempo, 637078
1, 119040, Tempo, 1160991
1, 119160, Tempo, 604961
1, 119280, Tempo, 606061
1, 119395, Tempo, 609137
1, 119568, Tempo, 612245
1, 119741, Tempo, 615385
1, 119880, Tempo, 627090
1, 119940, Tempo, 906618
1, 120000, Tempo, 1160991
1, 120120, Tempo, 604961
1, 120240, Tempo, 606061
1, 120355, Tempo, 609137
1, 120528, Tempo, 612245
1, 120701, Tempo, 615385
1, 120840, Tempo, 627090
1, 120960, Tempo, 625978
1, 121445, Tempo, 635930
1, 121505, Tempo, 639318
1, 121550, Tempo, 642742
1, 121595, Tempo, 646204
1, 121640, Tempo, 649702
1, 121685, Tempo, 653239
1, 121730, Tempo, 656814
1, 121775, Tempo, 660429
1, 121820, Tempo, 664084
1, 121865, Tempo, 667780
1, 121910, Tempo, 671517
1, 121920, Tempo, 1135289
1, 122040, Tempo, 625978
1, 122047, Tempo, 629261
1, 122122, Tempo, 625978
1, 122197, Tempo, 622730
1, 122257, Tempo, 619515
1, 122332, Tempo, 616333
1, 122392, Tempo, 613183
1, 122407, Tempo, 606980
1, 122467, Tempo, 610066
1, 122527, Tempo, 613183
1, 122587, Tempo, 616333
1, 122647, Tempo, 619515
1, 122707, Tempo, 622730
1, 122767, Tempo, 625978
1, 122827, Tempo, 629261
1, 122872, Tempo, 632578
1, 122880, Tempo, 1191658
1, 123000, Tempo, 625978
1, 123007, Tempo, 629261
1, 123082, Tempo, 625978
1, 123157, Tempo, 622730
1, 123217, Tempo, 619515
1, 123292, Tempo, 616333
1, 123352, Tempo, 613183
1, 123367, Tempo, 606980
1, 123427, Tempo, 610066
1, 123487, Tempo, 613183
1, 123547, Tempo, 616333
1, 123607, Tempo, 619515
1, 123667, Tempo, 622730
1, 123727, Tempo, 625978
1, 123787, Tempo, 629261
1, 123832, Tempo, 632578
1, 123840, Tempo, 877835
1, 123960, Tempo, 625978
1, 123967, Tempo, 629261
1, 124042, Tempo, 625978
1, 124117, Tempo, 622730
1, 124177, Tempo, 619515
1, 124252, Tempo, 616333
1, 124312, Tempo, 613183
1, 124327, Tempo, 606980
1, 124387, Tempo, 610066
1, 124447, Tempo, 613183
1, 124507, Tempo, 616333
1, 124567, Tempo, 619515
1, 124627, Tempo, 622730
1, 124687, Tempo, 625978
1, 124747, Tempo, 629261
1, 124792, Tempo, 632578
1, 124800, Tempo, 616333
1, 124807, Tempo, 619515
1, 124867, Tempo, 622730
1, 124927, Tempo, 625978
1, 124987, Tempo, 629261
1, 125032, Tempo, 632578
1, 126480, Tempo, 1168452
1, 126600, Tempo, 791035
1, 126720, Tempo, 791035
1, 126720, End_track
2, 0, Start_track
2, 0, Title_t, "Piano right"
2, 0, Program_c, 0, 0
2, 0, Control_c, 0, 91, 127
2, 0, Text_t, "bdca426d104a26ac9dcb070447587523"
2, 240, Note_on_c, 0, 65, 37
2, 300, Note_on_c, 0, 66, 37
2, 312, Note_on_c, 0, 65, 0
2, 360, Note_on_c, 0, 65, 37
2, 372, Note_on_c, 0, 66, 0
2, 420, Note_on_c, 0, 67, 38
2, 432, Note_on_c, 0, 65, 0
2, 480, Note_on_c, 0, 68, 38
2, 492, Note_on_c, 0, 67, 0
2, 540, Note_on_c, 0, 69, 38
2, 552, Note_on_c, 0, 68, 0
2, 600, Note_on_c, 0, 68, 39
2, 612, Note_on_c, 0, 69, 0
2, 660, Note_on_c, 0, 70, 39
2, 672, Note_on_c, 0, 68, 0
2, 720, Note_on_c, 0, 71, 39
2, 732, Note_on_c, 0, 70, 0
2, 780, Note_on_c, 0, 72, 41
2, 792, Note_on_c, 0, 71, 0
2, 840, Note_on_c, 0, 71, 41
2, 852, Note_on_c, 0, 72, 0
2, 900, Note_on_c, 0, 73, 41
2, 912, Note_on_c, 0, 71, 0
2, 960, Note_on_c, 0, 74, 42
2, 972, Note_on_c, 0, 73, 0
2, 1020, Note_on_c, 0, 75, 42
2, 1032, Note_on_c, 0, 74, 0
2, 1080, Note_on_c, 0, 74, 42
2, 1092, Note_on_c, 0, 75, 0
2, 1140, Note_on_c, 0, 76, 43
2, 1152, Note_on_c, 0, 74, 0
2, 1200, Note_on_c, 0, 77, 43
2, 1212, Note_on_c, 0, 76, 0
2, 1260, Note_on_c, 0, 78, 43
2, 1272, Note_on_c, 0, 77, 0
2, 1320, Note_on_c, 0, 77, 44
2, 1332, Note_on_c, 0, 78, 0
2, 1380, Note_on_c, 0, 79, 44
2, 1392, Note_on_c, 0, 77, 0
2, 1440, Note_on_c, 0, 80, 44
2, 1452, Note_on_c, 0, 79, 0
2, 1500, Note_on_c, 0, 81, 45
2, 1512, Note_on_c, 0, 80, 0
2, 1560, Note_on_c, 0, 80, 45
2, 1572, Note_on_c, 0, 81, 0
2, 1620, Note_on_c, 0, 82, 45
2, 1632, Note_on_c, 0, 80, 0
2, 1680, Note_on_c, 0, 83, 45
2, 1692, Note_on_c, 0, 82, 0
2, 1740, Note_on_c, 0, 84, 45
2, 1752, Note_on_c, 0, 83, 0
2, 1800, Note_on_c, 0, 83, 45
2, 1812, Note_on_c, 0, 84, 0
2, 1860, Note_on_c, 0, 86, 46
2, 1872, Note_on_c, 0, 83, 0
2, 1920, Note_on_c, 0, 84, 46
2, 1932, Note_on_c, 0, 86, 0
2, 1980, Note_on_c, 0, 85, 46
2, 1992, Note_on_c, 0, 84, 0
2, 2040, Note_on_c, 0, 84, 48
2, 2052, Note_on_c, 0, 85, 0
2, 2100, Note_on_c, 0, 86, 48
2, 2112, Note_on_c, 0, 84, 0
2, 2160, Note_on_c, 0, 87, 48
2, 2172, Note_on_c, 0, 86, 0
2, 2220, Note_on_c, 0, 89, 49
2, 2232, Note_on_c, 0, 87, 0
2, 2280, Note_on_c, 0, 87, 49
2, 2292, Note_on_c, 0, 89, 0
2, 2340, Note_on_c, 0, 90, 49
2, 2352, Note_on_c, 0, 87, 0
2, 2400, Note_on_c, 0, 91, 50
2, 2412, Note_on_c, 0, 90, 0
2, 2460, Note_on_c, 0, 92, 50
2, 2472, Note_on_c, 0, 91, 0
2, 2520, Note_on_c, 0, 91, 50
2, 2532, Note_on_c, 0, 92, 0
2, 2580, Note_on_c, 0, 95, 51
2, 2592, Note_on_c, 0, 91, 0
2, 2640, Note_on_c, 0, 96, 51
2, 2652, Note_on_c, 0, 95, 0
2, 2700, Note_on_c, 0, 97, 51
2, 2712, Note_on_c, 0, 96, 0
2, 2760, Note_on_c, 0, 96, 52
2, 2772, Note_on_c, 0, 97, 0
2, 2820, Note_on_c, 0, 98, 52
2, 2832, Note_on_c, 0, 96, 0
2, 2880, Note_on_c, 0, 99, 54
2, 2892, Note_on_c, 0, 98, 0
2, 2940, Note_on_c, 0, 99, 0
2, 2940, Note_on_c, 0, 98, 54
2, 3000, Note_on_c, 0, 98, 0
2, 3000, Note_on_c, 0, 99, 53
2, 3060, Note_on_c, 0, 99, 0
2, 3060, Note_on_c, 0, 97, 53
2, 3120, Note_on_c, 0, 97, 0
2, 3120, Note_on_c, 0, 96, 52
2, 3180, Note_on_c, 0, 96, 0
2, 3180, Note_on_c, 0, 95, 52
2, 3240, Note_on_c, 0, 95, 0
2, 3240, Note_on_c, 0, 96, 51
2, 3300, Note_on_c, 0, 96, 0
2, 3300, Note_on_c, 0, 94, 51
2, 3360, Note_on_c, 0, 94, 0
2, 3360, Note_on_c, 0, 93, 50
2, 3420, Note_on_c, 0, 93, 0
2, 3420, Note_on_c, 0, 92, 50
2, 3480, Note_on_c, 0, 92, 0
2, 3480, Note_on_c, 0, 93, 49
2, 3540, Note_on_c, 0, 93, 0
2, 3540, Note_on_c, 0, 91, 49
2, 3600, Note_on_c, 0, 91, 0
2, 3600, Note_on_c, 0, 90, 48
2, 3660, Note_on_c, 0, 90, 0
2, 3660, Note_on_c, 0, 89, 48
2, 3720, Note_on_c, 0, 89, 0
2, 3720, Note_on_c, 0, 90, 46
2, 3780, Note_on_c, 0, 90, 0
2, 3780, Note_on_c, 0, 88, 45
2, 3840, Note_on_c, 0, 88, 0
2, 3840, Note_on_c, 0, 87, 44
2, 3900, Note_on_c, 0, 87, 0
2, 3900, Note_on_c, 0, 86, 44
2, 3960, Note_on_c, 0, 86, 0
2, 3960, Note_on_c, 0, 87, 44
2, 4020, Note_on_c, 0, 87, 0
2, 4020, Note_on_c, 0, 85, 43
2, 4080, Note_on_c, 0, 85, 0
2, 4080, Note_on_c, 0, 84, 43
2, 4140, Note_on_c, 0, 84, 0
2, 4140, Note_on_c, 0, 83, 43
2, 4200, Note_on_c, 0, 83, 0
2, 4200, Note_on_c, 0, 84, 42
2, 4260, Note_on_c, 0, 84, 0
2, 4260, Note_on_c, 0, 82, 42
2, 4320, Note_on_c, 0, 82, 0
2, 4320, Note_on_c, 0, 81, 41
2, 4380, Note_on_c, 0, 81, 0
2, 4380, Note_on_c, 0, 80, 41
2, 4440, Note_on_c, 0, 80, 0
2, 4440, Note_on_c, 0, 81, 41
2, 4500, Note_on_c, 0, 81, 0
2, 4500, Note_on_c, 0, 79, 39
2, 4560, Note_on_c, 0, 79, 0
2, 4560, Note_on_c, 0, 78, 39
2, 4620, Note_on_c, 0, 78, 0
2, 4620, Note_on_c, 0, 77, 38
2, 4680, Note_on_c, 0, 77, 0
2, 4680, Note_on_c, 0, 78, 38
2, 4740, Note_on_c, 0, 78, 0
2, 4740, Note_on_c, 0, 75, 37
2, 4800, Note_on_c, 0, 75, 0
2, 4800, Note_on_c, 0, 74, 37
2, 4860, Note_on_c, 0, 74, 0
2, 4860, Note_on_c, 0, 73, 37
2, 4920, Note_on_c, 0, 73, 0
2, 4920, Note_on_c, 0, 74, 36
2, 4980, Note_on_c, 0, 74, 0
2, 4980, Note_on_c, 0, 72, 36
2, 5040, Note_on_c, 0, 72, 0
2, 5040, Note_on_c, 0, 70, 36
2, 5100, Note_on_c, 0, 70, 0
2, 5100, Note_on_c, 0, 69, 36
2, 5160, Note_on_c, 0, 69, 0
2, 5160, Note_on_c, 0, 70, 36
2, 5220, Note_on_c, 0, 70, 0
2, 5220, Note_on_c, 0, 68, 35
2, 5280, Note_on_c, 0, 68, 0
2, 5280, Note_on_c, 0, 67, 35
2, 5340, Note_on_c, 0, 67, 0
2, 5340, Note_on_c, 0, 66, 33
2, 5400, Note_on_c, 0, 66, 0
2, 5400, Note_on_c, 0, 67, 33
2, 5460, Note_on_c, 0, 67, 0
2, 5460, Note_on_c, 0, 65, 33
2, 5520, Note_on_c, 0, 65, 0
2, 5520, Note_on_c, 0, 73, 32
2, 5580, Note_on_c, 0, 73, 0
2, 5580, Note_on_c, 0, 70, 32
2, 5640, Note_on_c, 0, 70, 0
2, 5640, Note_on_c, 0, 67, 31
2, 5700, Note_on_c, 0, 67, 0
2, 5700, Note_on_c, 0, 65, 31
2, 5760, Note_on_c, 0, 65, 0
2, 5760, Note_on_c, 0, 64, 38
2, 6000, Note_on_c, 0, 64, 0
2, 6240, Note_on_c, 0, 97, 43
2, 6300, Note_on_c, 0, 97, 0
2, 6300, Note_on_c, 0, 94, 43
2, 6360, Note_on_c, 0, 94, 0
2, 6360, Note_on_c, 0, 90, 42
2, 6420, Note_on_c, 0, 90, 0
2, 6420, Note_on_c, 0, 87, 41
2, 6480, Note_on_c, 0, 87, 0
2, 6480, Note_on_c, 0, 91, 41
2, 6540, Note_on_c, 0, 91, 0
2, 6540, Note_on_c, 0, 88, 39
2, 6600, Note_on_c, 0, 88, 0
2, 6600, Note_on_c, 0, 84, 39
2, 6660, Note_on_c, 0, 84, 0
2, 6660, Note_on_c, 0, 81, 38
2, 6720, Note_on_c, 0, 81, 0
2, 6720, Note_on_c, 0, 85, 37
2, 6780, Note_on_c, 0, 85, 0
2, 6780, Note_on_c, 0, 82, 36
2, 6840, Note_on_c, 0, 82, 0
2, 6840, Note_on_c, 0, 78, 36
2, 6900, Note_on_c, 0, 78, 0
2, 6900, Note_on_c, 0, 75, 36
2, 6960, Note_on_c, 0, 75, 0
2, 6960, Note_on_c, 0, 79, 35
2, 7020, Note_on_c, 0, 79, 0
2, 7020, Note_on_c, 0, 76, 35
2, 7080, Note_on_c, 0, 76, 0
2, 7080, Note_on_c, 0, 72, 33
2, 7140, Note_on_c, 0, 72, 0
2, 7140, Note_on_c, 0, 69, 32
2, 7200, Note_on_c, 0, 69, 0
2, 7200, Note_on_c, 0, 73, 32
2, 7260, Note_on_c, 0, 73, 0
2, 7260, Note_on_c, 0, 70, 31
2, 7320, Note_on_c, 0, 70, 0
2, 7320, Note_on_c, 0, 66, 31
2, 7380, Note_on_c, 0, 66, 0
2, 7380, Note_on_c, 0, 64, 30
2, 7440, Note_on_c, 0, 64, 0
2, 7440, Note_on_c, 0, 64, 30
2, 7440, Note_on_c, 0, 67, 30
2, 7560, Note_on_c, 0, 67, 0
2, 7560, Note_on_c, 0, 64, 0
2, 7800, Note_on_c, 0, 85, 39
2, 7800, Note_on_c, 0, 76, 33
2, 7800, Note_on_c, 0, 73, 33
2, 7860, Note_on_c, 0, 73, 0
2, 7860, Note_on_c, 0, 76, 0
2, 7860, Note_on_c, 0, 85, 0
2, 7920, Note_on_c, 0, 84, 35
2, 7920, Note_on_c, 0, 73, 28
2, 7920, Note_on_c, 0, 76, 28
2, 7980, Note_on_c, 0, 76, 0
2, 7980, Note_on_c, 0, 73, 0
2, 7980, Note_on_c, 0, 84, 0
2, 8040, Note_on_c, 0, 83, 37
2, 8040, Note_on_c, 0, 76, 31
2, 8040, Note_on_c, 0, 73, 31
2, 8100, Note_on_c, 0, 73, 0
2, 8100, Note_on_c, 0, 76, 0
2, 8100, Note_on_c, 0, 83, 0
2, 8160, Note_on_c, 0, 73, 28
2, 8160, Note_on_c, 0, 82, 33
2, 8160, Note_on_c, 0, 76, 28
2, 8220, Note_on_c, 0, 76, 0
2, 8220, Note_on_c, 0, 82, 0
2, 8220, Note_on_c, 0, 73, 0
2, 8280, Note_on_c, 0, 76, 32
2, 8280, Note_on_c, 0, 73, 32
2, 8280, Note_on_c, 0, 85, 38
2, 8340, Note_on_c, 0, 85, 0
2, 8340, Note_on_c, 0, 73, 0
2, 8340, Note_on_c, 0, 76, 0
2, 8400, Note_on_c, 0, 73, 35
2, 8400, Note_on_c, 0, 84, 42
2, 8400, Note_on_c, 0, 76, 35
2, 8460, Note_on_c, 0, 84, 0
2, 8460, Note_on_c, 0, 83, 41
2, 8520, Note_on_c, 0, 83, 0
2, 8520, Note_on_c, 0, 76, 0
2, 8520, Note_on_c, 0, 73, 0
2, 8520, Note_on_c, 0, 82, 39
2, 8580, Note_on_c, 0, 82, 0
2, 8880, Note_on_c, 0, 99, 43
2, 8940, Note_on_c, 0, 99, 0
2, 8940, Note_on_c, 0, 96, 43
2, 9000, Note_on_c, 0, 96, 0
2, 9000, Note_on_c, 0, 92, 42
2, 9060, Note_on_c, 0, 92, 0
2, 9060, Note_on_c, 0, 89, 41
2, 9120, Note_on_c, 0, 89, 0
2, 9120, Note_on_c, 0, 93, 41
2, 9180, Note_on_c, 0, 93, 0
2, 9180, Note_on_c, 0, 90, 39
2, 9240, Note_on_c, 0, 90, 0
2, 9240, Note_on_c, 0, 86, 39
2, 9300, Note_on_c, 0, 86, 0
2, 9300, Note_on_c, 0, 83, 38
2, 9360, Note_on_c, 0, 83, 0
2, 9360, Note_on_c, 0, 87, 37
2, 9420, Note_on_c, 0, 87, 0
2, 9420, Note_on_c, 0, 84, 36
2, 9480, Note_on_c, 0, 84, 0
2, 9480, Note_on_c, 0, 80, 36
2, 9540, Note_on_c, 0, 80, 0
2, 9540, Note_on_c, 0, 77, 36
2, 9600, Note_on_c, 0, 77, 0
2, 9600, Note_on_c, 0, 81, 35
2, 9660, Note_on_c, 0, 81, 0
2, 9660, Note_on_c, 0, 78, 35
2, 9720, Note_on_c, 0, 78, 0
2, 9720, Note_on_c, 0, 74, 33
2, 9780, Note_on_c, 0, 74, 0
2, 9780, Note_on_c, 0, 71, 32
2, 9840, Note_on_c, 0, 71, 0
2, 9840, Note_on_c, 0, 75, 32
2, 9900, Note_on_c, 0, 75, 0
2, 9900, Note_on_c, 0, 72, 31
2, 9960, Note_on_c, 0, 72, 0
2, 9960, Note_on_c, 0, 68, 31
2, 10020, Note_on_c, 0, 68, 0
2, 10020, Note_on_c, 0, 65, 30
2, 10080, Note_on_c, 0, 65, 0
2, 10080, Note_on_c, 0, 66, 30
2, 10080, Note_on_c, 0, 69, 30
2, 10200, Note_on_c, 0, 69, 0
2, 10200, Note_on_c, 0, 66, 0
2, 10680, Note_on_c, 0, 90, 46
2, 10680, Note_on_c, 0, 81, 39
2, 10680, Note_on_c, 0, 78, 39
2, 10740, Note_on_c, 0, 78, 0
2, 10740, Note_on_c, 0, 81, 0
2, 10740, Note_on_c, 0, 90, 0
2, 10800, Note_on_c, 0, 89, 41
2, 10800, Note_on_c, 0, 81, 33
2, 10800, Note_on_c, 0, 78, 33
2, 10860, Note_on_c, 0, 78, 0
2, 10860, Note_on_c, 0, 81, 0
2, 10860, Note_on_c, 0, 89, 0
2, 10920, Note_on_c, 0, 78, 37
2, 10920, Note_on_c, 0, 81, 37
2, 10920, Note_on_c, 0, 88, 45
2, 10980, Note_on_c, 0, 88, 0
2, 10980, Note_on_c, 0, 81, 0
2, 10980, Note_on_c, 0, 78, 0
2, 11040, Note_on_c, 0, 78, 33
2, 11040, Note_on_c, 0, 87, 39
2, 11040, Note_on_c, 0, 81, 33
2, 11100, Note_on_c, 0, 81, 0
2, 11100, Note_on_c, 0, 87, 0
2, 11100, Note_on_c, 0, 78, 0
2, 11160, Note_on_c, 0, 81, 38
2, 11160, Note_on_c, 0, 90, 45
2, 11160, Note_on_c, 0, 78, 38
2, 11220, Note_on_c, 0, 78, 0
2, 11220, Note_on_c, 0, 90, 0
2, 11220, Note_on_c, 0, 81, 0
2, 11280, Note_on_c, 0, 89, 50
2, 11280, Note_on_c, 0, 78, 41
2, 11280, Note_on_c, 0, 81, 41
2, 11340, Note_on_c, 0, 89, 0
2, 11340, Note_on_c, 0, 88, 48
2, 11400, Note_on_c, 0, 88, 0
2, 11400, Note_on_c, 0, 81, 0
2, 11400, Note_on_c, 0, 78, 0
2, 11400, Note_on_c, 0, 87, 43
2, 11460, Note_on_c, 0, 87, 0
2, 11640, Note_on_c, 0, 87, 38
2, 11640, Note_on_c, 0, 75, 31
2, 11640, Note_on_c, 0, 78, 31
2, 11700, Note_on_c, 0, 78, 0
2, 11700, Note_on_c, 0, 75, 0
2, 11700, Note_on_c, 0, 87, 0
2, 11760, Note_on_c, 0, 86, 33
2, 11760, Note_on_c, 0, 75, 27
2, 11760, Note_on_c, 0, 78, 27
2, 11820, Note_on_c, 0, 78, 0
2, 11820, Note_on_c, 0, 75, 0
2, 11820, Note_on_c, 0, 86, 0
2, 11880, Note_on_c, 0, 85, 36
2, 11880, Note_on_c, 0, 75, 29
2, 11880, Note_on_c, 0, 78, 29
2, 11940, Note_on_c, 0, 78, 0
2, 11940, Note_on_c, 0, 75, 0
2, 11940, Note_on_c, 0, 85, 0
2, 12000, Note_on_c, 0, 78, 27
2, 12000, Note_on_c, 0, 84, 31
2, 12000, Note_on_c, 0, 75, 27
2, 12060, Note_on_c, 0, 75, 0
2, 12060, Note_on_c, 0, 84, 0
2, 12060, Note_on_c, 0, 78, 0
2, 12120, Note_on_c, 0, 75, 30
2, 12120, Note_on_c, 0, 78, 30
2, 12120, Note_on_c, 0, 87, 37
2, 12180, Note_on_c, 0, 87, 0
2, 12180, Note_on_c, 0, 78, 0
2, 12180, Note_on_c, 0, 75, 0
2, 12240, Note_on_c, 0, 86, 39
2, 12240, Note_on_c, 0, 75, 33
2, 12240, Note_on_c, 0, 78, 33
2, 12300, Note_on_c, 0, 86, 0
2, 12300, Note_on_c, 0, 85, 38
2, 12360, Note_on_c, 0, 85, 0
2, 12360, Note_on_c, 0, 78, 0
2, 12360, Note_on_c, 0, 75, 0
2, 12360, Note_on_c, 0, 84, 37
2, 12420, Note_on_c, 0, 84, 0
2, 12600, Note_on_c, 0, 84, 36
2, 12600, Note_on_c, 0, 75, 29
2, 12600, Note_on_c, 0, 72, 29
2, 12660, Note_on_c, 0, 72, 0
2, 12660, Note_on_c, 0, 75, 0
2, 12660, Note_on_c, 0, 84, 0
2, 12720, Note_on_c, 0, 83, 38
2, 12720, Note_on_c, 0, 72, 32
2, 12720, Note_on_c, 0, 75, 32
2, 12780, Note_on_c, 0, 83, 0
2, 12780, Note_on_c, 0, 82, 37
2, 12840, Note_on_c, 0, 82, 0
2, 12840, Note_on_c, 0, 75, 0
2, 12840, Note_on_c, 0, 72, 0
2, 12840, Note_on_c, 0, 81, 37
2, 12900, Note_on_c, 0, 81, 0
2, 13080, Note_on_c, 0, 75, 28
2, 13080, Note_on_c, 0, 72, 28
2, 13080, Note_on_c, 0, 81, 35
2, 13140, Note_on_c, 0, 81, 0
2, 13140, Note_on_c, 0, 72, 0
2, 13140, Note_on_c, 0, 75, 0
2, 13200, Note_on_c, 0, 80, 36
2, 13200, Note_on_c, 0, 75, 30
2, 13200, Note_on_c, 0, 72, 30
2, 13260, Note_on_c, 0, 80, 0
2, 13260, Note_on_c, 0, 79, 36
2, 13320, Note_on_c, 0, 79, 0
2, 13320, Note_on_c, 0, 72, 0
2, 13320, Note_on_c, 0, 75, 0
2, 13320, Note_on_c, 0, 78, 35
2, 13380, Note_on_c, 0, 78, 0
2, 13560, Note_on_c, 0, 77, 36
2, 13560, Note_on_c, 0, 72, 28
2, 13620, Note_on_c, 0, 72, 0
2, 13620, Note_on_c, 0, 77, 0
2, 13680, Note_on_c, 0, 75, 24
2, 13680, Note_on_c, 0, 78, 30
2, 13740, Note_on_c, 0, 78, 0
2, 13740, Note_on_c, 0, 75, 0
2, 13800, Note_on_c, 0, 72, 28
2, 13800, Note_on_c, 0, 77, 36
2, 13860, Note_on_c, 0, 77, 0
2, 13860, Note_on_c, 0, 72, 0
2, 13920, Note_on_c, 0, 75, 24
2, 13920, Note_on_c, 0, 79, 31
2, 13980, Note_on_c, 0, 79, 0
2, 13980, Note_on_c, 0, 75, 0
2, 14040, Note_on_c, 0, 77, 36
2, 14040, Note_on_c, 0, 72, 28
2, 14100, Note_on_c, 0, 72, 0
2, 14100, Note_on_c, 0, 77, 0
2, 14160, Note_on_c, 0, 75, 24
2, 14160, Note_on_c, 0, 78, 30
2, 14220, Note_on_c, 0, 78, 0
2, 14220, Note_on_c, 0, 75, 0
2, 14280, Note_on_c, 0, 77, 36
2, 14280, Note_on_c, 0, 72, 28
2, 14340, Note_on_c, 0, 72, 0
2, 14340, Note_on_c, 0, 77, 0
2, 14400, Note_on_c, 0, 79, 32
2, 14440, Note_on_c, 0, 79, 0
2, 14480, Note_on_c, 0, 77, 36
2, 14520, Note_on_c, 0, 77, 0
2, 14560, Note_on_c, 0, 78, 30
2, 14600, Note_on_c, 0, 78, 0
2, 14640, Note_on_c, 0, 77, 36
2, 14680, Note_on_c, 0, 77, 0
2, 14720, Note_on_c, 0, 79, 29
2, 14760, Note_on_c, 0, 79, 0
2, 14800, Note_on_c, 0, 77, 36
2, 14840, Note_on_c, 0, 77, 0
2, 14880, Note_on_c, 0, 78, 32
2, 14920, Note_on_c, 0, 78, 0
2, 14960, Note_on_c, 0, 77, 36
2, 15000, Note_on_c, 0, 77, 0
2, 15040, Note_on_c, 0, 79, 30
2, 15080, Note_on_c, 0, 79, 0
2, 15120, Note_on_c, 0, 77, 36
2, 15180, Note_on_c, 0, 77, 0
2, 15180, Note_on_c, 0, 78, 31
2, 15240, Note_on_c, 0, 78, 0
2, 15240, Note_on_c, 0, 77, 36
2, 15300, Note_on_c, 0, 77, 0
2, 15300, Note_on_c, 0, 79, 31
2, 15360, Note_on_c, 0, 79, 0
2, 15360, Note_on_c, 0, 77, 36
2, 15420, Note_on_c, 0, 77, 0
2, 15420, Note_on_c, 0, 78, 31
2, 15480, Note_on_c, 0, 78, 0
2, 15480, Note_on_c, 0, 77, 36
2, 15540, Note_on_c, 0, 77, 0
2, 15540, Note_on_c, 0, 79, 31
2, 15600, Note_on_c, 0, 79, 0
2, 15600, Note_on_c, 0, 77, 36
2, 15660, Note_on_c, 0, 77, 0
2, 15660, Note_on_c, 0, 78, 31
2, 15720, Note_on_c, 0, 78, 0
2, 15720, Note_on_c, 0, 77, 36
2, 15780, Note_on_c, 0, 77, 0
2, 15780, Note_on_c, 0, 79, 30
2, 15840, Note_on_c, 0, 79, 0
2, 15840, Note_on_c, 0, 77, 36
2, 15900, Note_on_c, 0, 77, 0
2, 15900, Note_on_c, 0, 78, 31
2, 15960, Note_on_c, 0, 78, 0
2, 15960, Note_on_c, 0, 77, 36
2, 16020, Note_on_c, 0, 77, 0
2, 16020, Note_on_c, 0, 79, 31
2, 16080, Note_on_c, 0, 79, 0
2, 16080, Note_on_c, 0, 77, 36
2, 16140, Note_on_c, 0, 77, 0
2, 16140, Note_on_c, 0, 78, 31
2, 16200, Note_on_c, 0, 78, 0
2, 16200, Note_on_c, 0, 77, 36
2, 16260, Note_on_c, 0, 77, 0
2, 16260, Note_on_c, 0, 79, 32
2, 16320, Note_on_c, 0, 79, 0
2, 16320, Note_on_c, 0, 77, 36
2, 16380, Note_on_c, 0, 78, 32
2, 16390, Note_on_c, 0, 77, 0
2, 16440, Note_on_c, 0, 77, 36
2, 16450, Note_on_c, 0, 78, 0
2, 16500, Note_on_c, 0, 79, 31
2, 16510, Note_on_c, 0, 77, 0
2, 16560, Note_on_c, 0, 79, 0
2, 16560, Note_on_c, 0, 77, 36
2, 16560, Note_on_c, 0, 69, 29
2, 16620, Note_on_c, 0, 69, 0
2, 16620, Note_on_c, 0, 77, 0
2, 16620, Note_on_c, 0, 72, 27
2, 16620, Note_on_c, 0, 78, 32
2, 16680, Note_on_c, 0, 78, 0
2, 16680, Note_on_c, 0, 72, 0
2, 16680, Note_on_c, 0, 77, 36
2, 16680, Note_on_c, 0, 69, 29
2, 16740, Note_on_c, 0, 69, 0
2, 16740, Note_on_c, 0, 77, 0
2, 16740, Note_on_c, 0, 79, 31
2, 16740, Note_on_c, 0, 72, 26
2, 16800, Note_on_c, 0, 72, 0
2, 16800, Note_on_c, 0, 79, 0
2, 16800, Note_on_c, 0, 70, 29
2, 16800, Note_on_c, 0, 77, 36
2, 16860, Note_on_c, 0, 77, 0
2, 16860, Note_on_c, 0, 70, 0
2, 16860, Note_on_c, 0, 78, 32
2, 16860, Note_on_c, 0, 74, 27
2, 16920, Note_on_c, 0, 74, 0
2, 16920, Note_on_c, 0, 78, 0
2, 16920, Note_on_c, 0, 70, 29
2, 16920, Note_on_c, 0, 77, 36
2, 16980, Note_on_c, 0, 77, 0
2, 16980, Note_on_c, 0, 70, 0
2, 16980, Note_on_c, 0, 79, 31
2, 16980, Note_on_c, 0, 74, 26
2, 17040, Note_on_c, 0, 74, 0
2, 17040, Note_on_c, 0, 79, 0
2, 17040, Note_on_c, 0, 69, 29
2, 17040, Note_on_c, 0, 77, 36
2, 17100, Note_on_c, 0, 77, 0
2, 17100, Note_on_c, 0, 69, 0
2, 17100, Note_on_c, 0, 75, 27
2, 17100, Note_on_c, 0, 78, 32
2, 17160, Note_on_c, 0, 78, 0
2, 17160, Note_on_c, 0, 75, 0
2, 17160, Note_on_c, 0, 77, 36
2, 17160, Note_on_c, 0, 69, 29
2, 17220, Note_on_c, 0, 69, 0
2, 17220, Note_on_c, 0, 77, 0
2, 17220, Note_on_c, 0, 75, 26
2, 17220, Note_on_c, 0, 79, 31
2, 17280, Note_on_c, 0, 79, 0
2, 17280, Note_on_c, 0, 75, 0
2, 17280, Note_on_c, 0, 70, 29
2, 17280, Note_on_c, 0, 77, 36
2, 17340, Note_on_c, 0, 77, 0
2, 17340, Note_on_c, 0, 70, 0
2, 17340, Note_on_c, 0, 78, 32
2, 17340, Note_on_c, 0, 74, 27
2, 17370, Note_on_c, 0, 74, 0
2, 17370, Note_on_c, 0, 78, 0
2, 17400, Note_on_c, 0, 78, 42
2, 17400, Note_on_c, 0, 70, 42
2, 17460, Note_on_c, 0, 70, 0
2, 17460, Note_on_c, 0, 78, 0
2, 17460, Note_on_c, 0, 74, 36
2, 17460, Note_on_c, 0, 79, 36
2, 17490, Note_on_c, 0, 79, 0
2, 17490, Note_on_c, 0, 74, 0
2, 17520, Note_on_c, 0, 80, 45
2, 17520, Note_on_c, 0, 74, 37
2, 17580, Note_on_c, 0, 74, 0
2, 17580, Note_on_c, 0, 80, 0
2, 17580, Note_on_c, 0, 81, 38
2, 17580, Note_on_c, 0, 77, 32
2, 17640, Note_on_c, 0, 77, 0
2, 17640, Note_on_c, 0, 81, 0
2, 17640, Note_on_c, 0, 74, 38
2, 17640, Note_on_c, 0, 81, 45
2, 17700, Note_on_c, 0, 81, 0
2, 17700, Note_on_c, 0, 74, 0
2, 17700, Note_on_c, 0, 82, 38
2, 17700, Note_on_c, 0, 77, 32
2, 17730, Note_on_c, 0, 77, 0
2, 17730, Note_on_c, 0, 82, 0
2, 17760, Note_on_c, 0, 72, 39
2, 17760, Note_on_c, 0, 82, 46
2, 17820, Note_on_c, 0, 82, 0
2, 17820, Note_on_c, 0, 72, 0
2, 17820, Note_on_c, 0, 81, 41
2, 17820, Note_on_c, 0, 75, 35
2, 17850, Note_on_c, 0, 75, 0
2, 17850, Note_on_c, 0, 81, 0
2, 17880, Note_on_c, 0, 72, 38
2, 17880, Note_on_c, 0, 81, 45
2, 17940, Note_on_c, 0, 81, 0
2, 17940, Note_on_c, 0, 72, 0
2, 17940, Note_on_c, 0, 75, 32
2, 17940, Note_on_c, 0, 80, 38
2, 17970, Note_on_c, 0, 80, 0
2, 17970, Note_on_c, 0, 75, 0
2, 18000, Note_on_c, 0, 72, 36
2, 18000, Note_on_c, 0, 80, 43
2, 18060, Note_on_c, 0, 80, 0
2, 18060, Note_on_c, 0, 72, 0
2, 18060, Note_on_c, 0, 75, 31
2, 18060, Note_on_c, 0, 79, 37
2, 18090, Note_on_c, 0, 79, 0
2, 18090, Note_on_c, 0, 75, 0
2, 18120, Note_on_c, 0, 79, 42
2, 18120, Note_on_c, 0, 72, 35
2, 18180, Note_on_c, 0, 72, 0
2, 18180, Note_on_c, 0, 79, 0
2, 18180, Note_on_c, 0, 75, 29
2, 18180, Note_on_c, 0, 78, 36
2, 18210, Note_on_c, 0, 78, 0
2, 18210, Note_on_c, 0, 75, 0
2, 18240, Note_on_c, 0, 77, 36
2, 18240, Note_on_c, 0, 70, 29
2, 18300, Note_on_c, 0, 78, 32
2, 18300, Note_on_c, 0, 74, 27
2, 18306, Note_on_c, 0, 70, 0
2, 18306, Note_on_c, 0, 77, 0
2, 18360, Note_on_c, 0, 77, 36
2, 18360, Note_on_c, 0, 70, 29
2, 18366, Note_on_c, 0, 78, 0
2, 18366, Note_on_c, 0, 74, 0
2, 18420, Note_on_c, 0, 74, 26
2, 18420, Note_on_c, 0, 79, 31
2, 18426, Note_on_c, 0, 77, 0
2, 18426, Note_on_c, 0, 70, 0
2, 18480, Note_on_c, 0, 74, 0
2, 18480, Note_on_c, 0, 79, 0
2, 18480, Note_on_c, 0, 77, 36
2, 18480, Note_on_c, 0, 69, 29
2, 18540, Note_on_c, 0, 69, 0
2, 18540, Note_on_c, 0, 77, 0
2, 18540, Note_on_c, 0, 72, 27
2, 18540, Note_on_c, 0, 78, 32
2, 18600, Note_on_c, 0, 78, 0
2, 18600, Note_on_c, 0, 72, 0
2, 18600, Note_on_c, 0, 77, 36
2, 18600, Note_on_c, 0, 69, 29
2, 18660, Note_on_c, 0, 69, 0
2, 18660, Note_on_c, 0, 77, 0
2, 18660, Note_on_c, 0, 79, 31
2, 18660, Note_on_c, 0, 72, 26
2, 18720, Note_on_c, 0, 72, 0
2, 18720, Note_on_c, 0, 79, 0
2, 18720, Note_on_c, 0, 70, 29
2, 18720, Note_on_c, 0, 77, 36
2, 18780, Note_on_c, 0, 77, 0
2, 18780, Note_on_c, 0, 70, 0
2, 18780, Note_on_c, 0, 74, 27
2, 18780, Note_on_c, 0, 78, 32
2, 18840, Note_on_c, 0, 78, 0
2, 18840, Note_on_c, 0, 74, 0
2, 18840, Note_on_c, 0, 77, 36
2, 18840, Note_on_c, 0, 70, 29
2, 18900, Note_on_c, 0, 70, 0
2, 18900, Note_on_c, 0, 77, 0
2, 18900, Note_on_c, 0, 74, 26
2, 18900, Note_on_c, 0, 79, 31
2, 18960, Note_on_c, 0, 79, 0
2, 18960, Note_on_c, 0, 74, 0
2, 18960, Note_on_c, 0, 69, 29
2, 18960, Note_on_c, 0, 77, 36
2, 19020, Note_on_c, 0, 77, 0
2, 19020, Note_on_c, 0, 69, 0
2, 19020, Note_on_c, 0, 78, 32
2, 19020, Note_on_c, 0, 75, 27
2, 19080, Note_on_c, 0, 75, 0
2, 19080, Note_on_c, 0, 78, 0
2, 19080, Note_on_c, 0, 77, 36
2, 19080, Note_on_c, 0, 69, 29
2, 19140, Note_on_c, 0, 69, 0
2, 19140, Note_on_c, 0, 77, 0
2, 19140, Note_on_c, 0, 75, 26
2, 19140, Note_on_c, 0, 79, 31
2, 19200, Note_on_c, 0, 79, 0
2, 19200, Note_on_c, 0, 75, 0
2, 19200, Note_on_c, 0, 77, 36
2, 19200, Note_on_c, 0, 70, 29
2, 19260, Note_on_c, 0, 70, 0
2, 19260, Note_on_c, 0, 77, 0
2, 19260, Note_on_c, 0, 78, 32
2, 19260, Note_on_c, 0, 74, 27
2, 19290, Note_on_c, 0, 74, 0
2, 19290, Note_on_c, 0, 78, 0
2, 19320, Note_on_c, 0, 78, 42
2, 19320, Note_on_c, 0, 70, 42
2, 19380, Note_on_c, 0, 70, 0
2, 19380, Note_on_c, 0, 78, 0
2, 19380, Note_on_c, 0, 74, 36
2, 19380, Note_on_c, 0, 79, 36
2, 19410, Note_on_c, 0, 79, 0
2, 19410, Note_on_c, 0, 74, 0
2, 19440, Note_on_c, 0, 74, 37
2, 19440, Note_on_c, 0, 80, 45
2, 19500, Note_on_c, 0, 80, 0
2, 19500, Note_on_c, 0, 74, 0
2, 19500, Note_on_c, 0, 81, 38
2, 19500, Note_on_c, 0, 77, 32
2, 19530, Note_on_c, 0, 77, 0
2, 19530, Note_on_c, 0, 81, 0
2, 19560, Note_on_c, 0, 81, 45
2, 19560, Note_on_c, 0, 74, 38
2, 19620, Note_on_c, 0, 74, 0
2, 19620, Note_on_c, 0, 81, 0
2, 19620, Note_on_c, 0, 82, 38
2, 19620, Note_on_c, 0, 77, 32
2, 19650, Note_on_c, 0, 77, 0
2, 19650, Note_on_c, 0, 82, 0
2, 19680, Note_on_c, 0, 82, 46
2, 19680, Note_on_c, 0, 72, 39
2, 19740, Note_on_c, 0, 72, 0
2, 19740, Note_on_c, 0, 82, 0
2, 19740, Note_on_c, 0, 75, 35
2, 19740, Note_on_c, 0, 81, 41
2, 19770, Note_on_c, 0, 81, 0
2, 19770, Note_on_c, 0, 75, 0
2, 19800, Note_on_c, 0, 81, 45
2, 19800, Note_on_c, 0, 72, 38
2, 19860, Note_on_c, 0, 72, 0
2, 19860, Note_on_c, 0, 81, 0
2, 19860, Note_on_c, 0, 75, 32
2, 19860, Note_on_c, 0, 80, 38
2, 19890, Note_on_c, 0, 80, 0
2, 19890, Note_on_c, 0, 75, 0
2, 19920, Note_on_c, 0, 80, 43
2, 19920, Note_on_c, 0, 72, 36
2, 19980, Note_on_c, 0, 72, 0
2, 19980, Note_on_c, 0, 80, 0
2, 19980, Note_on_c, 0, 79, 37
2, 19980, Note_on_c, 0, 75, 31
2, 20010, Note_on_c, 0, 75, 0
2, 20010, Note_on_c, 0, 79, 0
2, 20040, Note_on_c, 0, 79, 42
2, 20040, Note_on_c, 0, 72, 35
2, 20100, Note_on_c, 0, 72, 0
2, 20100, Note_on_c, 0, 79, 0
2, 20100, Note_on_c, 0, 78, 36
2, 20100, Note_on_c, 0, 75, 29
2, 20130, Note_on_c, 0, 75, 0
2, 20130, Note_on_c, 0, 78, 0
2, 20160, Note_on_c, 0, 77, 36
2, 20160, Note_on_c, 0, 74, 29
2, 20220, Note_on_c, 0, 74, 0
2, 20220, Note_on_c, 0, 77, 0
2, 20220, Note_on_c, 0, 78, 32
2, 20220, Note_on_c, 0, 70, 27
2, 20280, Note_on_c, 0, 70, 0
2, 20280, Note_on_c, 0, 78, 0
2, 20280, Note_on_c, 0, 74, 29
2, 20280, Note_on_c, 0, 77, 36
2, 20340, Note_on_c, 0, 77, 0
2, 20340, Note_on_c, 0, 74, 0
2, 20340, Note_on_c, 0, 81, 36
2, 20400, Note_on_c, 0, 81, 0
2, 20400, Note_on_c, 0, 82, 36
2, 20400, Note_on_c, 0, 74, 29
2, 20460, Note_on_c, 0, 74, 0
2, 20460, Note_on_c, 0, 82, 0
2, 20460, Note_on_c, 0, 77, 27
2, 20460, Note_on_c, 0, 83, 32
2, 20520, Note_on_c, 0, 83, 0
2, 20520, Note_on_c, 0, 77, 0
2, 20520, Note_on_c, 0, 82, 36
2, 20520, Note_on_c, 0, 74, 29
2, 20580, Note_on_c, 0, 74, 0
2, 20580, Note_on_c, 0, 82, 0
2, 20580, Note_on_c, 0, 83, 31
2, 20580, Note_on_c, 0, 77, 26
2, 20640, Note_on_c, 0, 77, 0
2, 20640, Note_on_c, 0, 83, 0
2, 20640, Note_on_c, 0, 82, 36
2, 20640, Note_on_c, 0, 75, 29
2, 20700, Note_on_c, 0, 75, 0
2, 20700, Note_on_c, 0, 82, 0
2, 20700, Note_on_c, 0, 83, 32
2, 20700, Note_on_c, 0, 78, 27
2, 20760, Note_on_c, 0, 78, 0
2, 20760, Note_on_c, 0, 83, 0
2, 20760, Note_on_c, 0, 82, 36
2, 20760, Note_on_c, 0, 75, 29
2, 20820, Note_on_c, 0, 75, 0
2, 20820, Note_on_c, 0, 82, 0
2, 20820, Note_on_c, 0, 83, 31
2, 20820, Note_on_c, 0, 78, 26
2, 20880, Note_on_c, 0, 78, 0
2, 20880, Note_on_c, 0, 83, 0
2, 20880, Note_on_c, 0, 82, 36
2, 20880, Note_on_c, 0, 74, 29
2, 20940, Note_on_c, 0, 74, 0
2, 20940, Note_on_c, 0, 82, 0
2, 20940, Note_on_c, 0, 83, 32
2, 20940, Note_on_c, 0, 80, 27
2, 21000, Note_on_c, 0, 80, 0
2, 21000, Note_on_c, 0, 83, 0
2, 21000, Note_on_c, 0, 74, 29
2, 21000, Note_on_c, 0, 82, 36
2, 21060, Note_on_c, 0, 82, 0
2, 21060, Note_on_c, 0, 74, 0
2, 21060, Note_on_c, 0, 83, 31
2, 21060, Note_on_c, 0, 80, 26
2, 21120, Note_on_c, 0, 80, 0
2, 21120, Note_on_c, 0, 83, 0
2, 21120, Note_on_c, 0, 82, 36
2, 21120, Note_on_c, 0, 75, 29
2, 21180, Note_on_c, 0, 75, 0
2, 21180, Note_on_c, 0, 82, 0
2, 21180, Note_on_c, 0, 78, 27
2, 21180, Note_on_c, 0, 83, 32
2, 21210, Note_on_c, 0, 83, 0
2, 21210, Note_on_c, 0, 78, 0
2, 21240, Note_on_c, 0, 83, 42
2, 21240, Note_on_c, 0, 75, 42
2, 21300, Note_on_c, 0, 75, 0
2, 21300, Note_on_c, 0, 83, 0
2, 21300, Note_on_c, 0, 78, 36
2, 21300, Note_on_c, 0, 84, 36
2, 21330, Note_on_c, 0, 84, 0
2, 21330, Note_on_c, 0, 78, 0
2, 21360, Note_on_c, 0, 78, 37
2, 21360, Note_on_c, 0, 85, 45
2, 21420, Note_on_c, 0, 85, 0
2, 21420, Note_on_c, 0, 78, 0
2, 21420, Note_on_c, 0, 82, 32
2, 21420, Note_on_c, 0, 86, 38
2, 21480, Note_on_c, 0, 86, 0
2, 21480, Note_on_c, 0, 82, 0
2, 21480, Note_on_c, 0, 86, 45
2, 21480, Note_on_c, 0, 78, 38
2, 21540, Note_on_c, 0, 78, 0
2, 21540, Note_on_c, 0, 86, 0
2, 21540, Note_on_c, 0, 87, 38
2, 21540, Note_on_c, 0, 82, 32
2, 21570, Note_on_c, 0, 82, 0
2, 21570, Note_on_c, 0, 87, 0
2, 21600, Note_on_c, 0, 87, 46
2, 21600, Note_on_c, 0, 77, 39
2, 21660, Note_on_c, 0, 77, 0
2, 21660, Note_on_c, 0, 87, 0
2, 21660, Note_on_c, 0, 86, 41
2, 21660, Note_on_c, 0, 80, 35
2, 21690, Note_on_c, 0, 80, 0
2, 21690, Note_on_c, 0, 86, 0
2, 21720, Note_on_c, 0, 86, 45
2, 21720, Note_on_c, 0, 77, 38
2, 21780, Note_on_c, 0, 77, 0
2, 21780, Note_on_c, 0, 86, 0
2, 21780, Note_on_c, 0, 80, 32
2, 21780, Note_on_c, 0, 85, 38
2, 21810, Note_on_c, 0, 85, 0
2, 21810, Note_on_c, 0, 80, 0
2, 21840, Note_on_c, 0, 77, 36
2, 21840, Note_on_c, 0, 85, 43
2, 21900, Note_on_c, 0, 85, 0
2, 21900, Note_on_c, 0, 77, 0
2, 21900, Note_on_c, 0, 80, 31
2, 21900, Note_on_c, 0, 84, 37
2, 21930, Note_on_c, 0, 84, 0
2, 21930, Note_on_c, 0, 80, 0
2, 21960, Note_on_c, 0, 84, 42
2, 21960, Note_on_c, 0, 77, 35
2, 22020, Note_on_c, 0, 77, 0
2, 22020, Note_on_c, 0, 84, 0
2, 22020, Note_on_c, 0, 83, 36
2, 22020, Note_on_c, 0, 80, 29
2, 22050, Note_on_c, 0, 80, 0
2, 22050, Note_on_c, 0, 83, 0
2, 22080, Note_on_c, 0, 78, 29
2, 22080, Note_on_c, 0, 82, 36
2, 22140, Note_on_c, 0, 82, 0
2, 22140, Note_on_c, 0, 78, 0
2, 22140, Note_on_c, 0, 83, 32
2, 22140, Note_on_c, 0, 75, 27
2, 22200, Note_on_c, 0, 75, 0
2, 22200, Note_on_c, 0, 83, 0
2, 22200, Note_on_c, 0, 82, 36
2, 22200, Note_on_c, 0, 78, 29
2, 22260, Note_on_c, 0, 78, 0
2, 22260, Note_on_c, 0, 82, 0
2, 22260, Note_on_c, 0, 83, 31
2, 22260, Note_on_c, 0, 75, 26
2, 22320, Note_on_c, 0, 75, 0
2, 22320, Note_on_c, 0, 83, 0
2, 22320, Note_on_c, 0, 74, 29
2, 22320, Note_on_c, 0, 82, 36
2, 22380, Note_on_c, 0, 82, 0
2, 22380, Note_on_c, 0, 74, 0
2, 22380, Note_on_c, 0, 83, 32
2, 22380, Note_on_c, 0, 77, 27
2, 22440, Note_on_c, 0, 77, 0
2, 22440, Note_on_c, 0, 83, 0
2, 22440, Note_on_c, 0, 74, 29
2, 22440, Note_on_c, 0, 82, 36
2, 22500, Note_on_c, 0, 82, 0
2, 22500, Note_on_c, 0, 74, 0
2, 22500, Note_on_c, 0, 77, 26
2, 22500, Note_on_c, 0, 83, 31
2, 22560, Note_on_c, 0, 83, 0
2, 22560, Note_on_c, 0, 77, 0
2, 22560, Note_on_c, 0, 75, 29
2, 22560, Note_on_c, 0, 82, 36
2, 22620, Note_on_c, 0, 82, 0
2, 22620, Note_on_c, 0, 75, 0
2, 22620, Note_on_c, 0, 78, 27
2, 22620, Note_on_c, 0, 83, 32
2, 22680, Note_on_c, 0, 83, 0
2, 22680, Note_on_c, 0, 78, 0
2, 22680, Note_on_c, 0, 75, 29
2, 22680, Note_on_c, 0, 82, 36
2, 22740, Note_on_c, 0, 82, 0
2, 22740, Note_on_c, 0, 75, 0
2, 22740, Note_on_c, 0, 83, 31
2, 22740, Note_on_c, 0, 78, 26
2, 22800, Note_on_c, 0, 78, 0
2, 22800, Note_on_c, 0, 83, 0
2, 22800, Note_on_c, 0, 82, 36
2, 22800, Note_on_c, 0, 74, 29
2, 22860, Note_on_c, 0, 74, 0
2, 22860, Note_on_c, 0, 82, 0
2, 22860, Note_on_c, 0, 83, 32
2, 22860, Note_on_c, 0, 80, 27
2, 22920, Note_on_c, 0, 80, 0
2, 22920, Note_on_c, 0, 83, 0
2, 22920, Note_on_c, 0, 74, 29
2, 22920, Note_on_c, 0, 82, 36
2, 22980, Note_on_c, 0, 82, 0
2, 22980, Note_on_c, 0, 74, 0
2, 22980, Note_on_c, 0, 80, 26
2, 22980, Note_on_c, 0, 83, 31
2, 23040, Note_on_c, 0, 83, 0
2, 23040, Note_on_c, 0, 80, 0
2, 23040, Note_on_c, 0, 82, 36
2, 23040, Note_on_c, 0, 75, 29
2, 23100, Note_on_c, 0, 75, 0
2, 23100, Note_on_c, 0, 82, 0
2, 23100, Note_on_c, 0, 78, 27
2, 23100, Note_on_c, 0, 83, 32
2, 23130, Note_on_c, 0, 83, 0
2, 23130, Note_on_c, 0, 78, 0
2, 23160, Note_on_c, 0, 83, 42
2, 23160, Note_on_c, 0, 75, 42
2, 23220, Note_on_c, 0, 75, 0
2, 23220, Note_on_c, 0, 83, 0
2, 23220, Note_on_c, 0, 84, 36
2, 23220, Note_on_c, 0, 78, 36
2, 23250, Note_on_c, 0, 78, 0
2, 23250, Note_on_c, 0, 84, 0
2, 23280, Note_on_c, 0, 78, 37
2, 23280, Note_on_c, 0, 85, 45
2, 23340, Note_on_c, 0, 85, 0
2, 23340, Note_on_c, 0, 78, 0
2, 23340, Note_on_c, 0, 82, 32
2, 23340, Note_on_c, 0, 86, 38
2, 23400, Note_on_c, 0, 86, 0
2, 23400, Note_on_c, 0, 82, 0
2, 23400, Note_on_c, 0, 86, 45
2, 23400, Note_on_c, 0, 78, 38
2, 23460, Note_on_c, 0, 78, 0
2, 23460, Note_on_c, 0, 86, 0
2, 23460, Note_on_c, 0, 87, 38
2, 23460, Note_on_c, 0, 82, 32
2, 23490, Note_on_c, 0, 82, 0
2, 23490, Note_on_c, 0, 87, 0
2, 23520, Note_on_c, 0, 87, 46
2, 23520, Note_on_c, 0, 77, 39
2, 23580, Note_on_c, 0, 77, 0
2, 23580, Note_on_c, 0, 87, 0
2, 23580, Note_on_c, 0, 80, 35
2, 23580, Note_on_c, 0, 86, 41
2, 23610, Note_on_c, 0, 86, 0
2, 23610, Note_on_c, 0, 80, 0
2, 23640, Note_on_c, 0, 86, 45
2, 23640, Note_on_c, 0, 77, 38
2, 23700, Note_on_c, 0, 77, 0
2, 23700, Note_on_c, 0, 86, 0
2, 23700, Note_on_c, 0, 85, 38
2, 23700, Note_on_c, 0, 80, 32
2, 23730, Note_on_c, 0, 80, 0
2, 23730, Note_on_c, 0, 85, 0
2, 23760, Note_on_c, 0, 77, 36
2, 23760, Note_on_c, 0, 85, 43
2, 23820, Note_on_c, 0, 85, 0
2, 23820, Note_on_c, 0, 77, 0
2, 23820, Note_on_c, 0, 84, 37
2, 23820, Note_on_c, 0, 80, 31
2, 23850, Note_on_c, 0, 80, 0
2, 23850, Note_on_c, 0, 84, 0
2, 23880, Note_on_c, 0, 77, 35
2, 23880, Note_on_c, 0, 84, 42
2, 23940, Note_on_c, 0, 84, 0
2, 23940, Note_on_c, 0, 77, 0
2, 23940, Note_on_c, 0, 80, 29
2, 23940, Note_on_c, 0, 83, 36
2, 23970, Note_on_c, 0, 83, 0
2, 23970, Note_on_c, 0, 80, 0
2, 24000, Note_on_c, 0, 78, 29
2, 24000, Note_on_c, 0, 82, 36
2, 24060, Note_on_c, 0, 82, 0
2, 24060, Note_on_c, 0, 78, 0
2, 24060, Note_on_c, 0, 75, 27
2, 24060, Note_on_c, 0, 83, 32
2, 24120, Note_on_c, 0, 83, 0
2, 24120, Note_on_c, 0, 75, 0
2, 24120, Note_on_c, 0, 78, 29
2, 24120, Note_on_c, 0, 82, 36
2, 24180, Note_on_c, 0, 82, 0
2, 24180, Note_on_c, 0, 78, 0
2, 24180, Note_on_c, 0, 87, 33
2, 24240, Note_on_c, 0, 87, 0
2, 24240, Note_on_c, 0, 78, 37
2, 24240, Note_on_c, 0, 90, 45
2, 24300, Note_on_c, 0, 78, 0
2, 24300, Note_on_c, 0, 85, 29
2, 24300, Note_on_c, 0, 87, 36
2, 24360, Note_on_c, 0, 87, 0
2, 24360, Note_on_c, 0, 85, 0
2, 24360, Note_on_c, 0, 90, 0
2, 24360, Note_on_c, 0, 90, 38
2, 24360, Note_on_c, 0, 78, 31
2, 24420, Note_on_c, 0, 78, 0
2, 24420, Note_on_c, 0, 90, 0
2, 24420, Note_on_c, 0, 88, 36
2, 24420, Note_on_c, 0, 85, 29
2, 24480, Note_on_c, 0, 85, 0
2, 24480, Note_on_c, 0, 88, 0
2, 24480, Note_on_c, 0, 78, 39
2, 24480, Note_on_c, 0, 88, 48
2, 24540, Note_on_c, 0, 78, 0
2, 24540, Note_on_c, 0, 86, 35
2, 24540, Note_on_c, 0, 83, 28
2, 24600, Note_on_c, 0, 83, 0
2, 24600, Note_on_c, 0, 86, 0
2, 24600, Note_on_c, 0, 88, 0
2, 24600, Note_on_c, 0, 88, 38
2, 24600, Note_on_c, 0, 78, 31
2, 24660, Note_on_c, 0, 78, 0
2, 24660, Note_on_c, 0, 88, 0
2, 24660, Note_on_c, 0, 83, 29
2, 24660, Note_on_c, 0, 87, 36
2, 24720, Note_on_c, 0, 87, 0
2, 24720, Note_on_c, 0, 83, 0
2, 24720, Note_on_c, 0, 87, 45
2, 24720, Note_on_c, 0, 76, 45
2, 24780, Note_on_c, 0, 76, 0
2, 24780, Note_on_c, 0, 84, 33
2, 24780, Note_on_c, 0, 82, 27
2, 24840, Note_on_c, 0, 82, 0
2, 24840, Note_on_c, 0, 84, 0
2, 24840, Note_on_c, 0, 87, 0
2, 24840, Note_on_c, 0, 87, 38
2, 24840, Note_on_c, 0, 76, 31
2, 24900, Note_on_c, 0, 76, 0
2, 24900, Note_on_c, 0, 87, 0
2, 24900, Note_on_c, 0, 82, 35
2, 24900, Note_on_c, 0, 85, 35
2, 24960, Note_on_c, 0, 85, 0
2, 24960, Note_on_c, 0, 82, 0
2, 24960, Note_on_c, 0, 85, 45
2, 24960, Note_on_c, 0, 75, 37
2, 25020, Note_on_c, 0, 75, 0
2, 25020, Note_on_c, 0, 82, 33
2, 25020, Note_on_c, 0, 78, 27
2, 25080, Note_on_c, 0, 78, 0
2, 25080, Note_on_c, 0, 82, 0
2, 25080, Note_on_c, 0, 85, 0
2, 25080, Note_on_c, 0, 85, 38
2, 25080, Note_on_c, 0, 75, 31
2, 25140, Note_on_c, 0, 75, 0
2, 25140, Note_on_c, 0, 85, 0
2, 25140, Note_on_c, 0, 78, 35
2, 25140, Note_on_c, 0, 83, 35
2, 25185, Note_on_c, 0, 83, 0
2, 25185, Note_on_c, 0, 78, 0
2, 25200, Note_on_c, 0, 73, 35
2, 25200, Note_on_c, 0, 84, 42
2, 25260, Note_on_c, 0, 73, 0
2, 25260, Note_on_c, 0, 81, 33
2, 25260, Note_on_c, 0, 79, 33
2, 25320, Note_on_c, 0, 79, 0
2, 25320, Note_on_c, 0, 81, 0
2, 25320, Note_on_c, 0, 84, 0
2, 25320, Note_on_c, 0, 84, 36
2, 25320, Note_on_c, 0, 73, 29
2, 25380, Note_on_c, 0, 73, 0
2, 25380, Note_on_c, 0, 84, 0
2, 25380, Note_on_c, 0, 79, 32
2, 25380, Note_on_c, 0, 82, 32
2, 25425, Note_on_c, 0, 82, 0
2, 25425, Note_on_c, 0, 79, 0
2, 25440, Note_on_c, 0, 72, 35
2, 25440, Note_on_c, 0, 82, 41
2, 25500, Note_on_c, 0, 72, 0
2, 25500, Note_on_c, 0, 77, 27
2, 25500, Note_on_c, 0, 80, 32
2, 25560, Note_on_c, 0, 80, 0
2, 25560, Note_on_c, 0, 77, 0
2, 25560, Note_on_c, 0, 82, 0
2, 25560, Note_on_c, 0, 72, 29
2, 25560, Note_on_c, 0, 82, 36
2, 25620, Note_on_c, 0, 82, 0
2, 25620, Note_on_c, 0, 72, 0
2, 25620, Note_on_c, 0, 77, 26
2, 25620, Note_on_c, 0, 81, 31
2, 25665, Note_on_c, 0, 81, 0
2, 25665, Note_on_c, 0, 77, 0
2, 25680, Note_on_c, 0, 81, 41
2, 25680, Note_on_c, 0, 70, 35
2, 25740, Note_on_c, 0, 70, 0
2, 25740, Note_on_c, 0, 78, 31
2, 25740, Note_on_c, 0, 76, 26
2, 25800, Note_on_c, 0, 76, 0
2, 25800, Note_on_c, 0, 78, 0
2, 25800, Note_on_c, 0, 81, 0
2, 25800, Note_on_c, 0, 81, 36
2, 25800, Note_on_c, 0, 70, 29
2, 25860, Note_on_c, 0, 70, 0
2, 25860, Note_on_c, 0, 81, 0
2, 25860, Note_on_c, 0, 79, 31
2, 25860, Note_on_c, 0, 76, 26
2, 25905, Note_on_c, 0, 76, 0
2, 25905, Note_on_c, 0, 79, 0
2, 25920, Note_on_c, 0, 69, 32
2, 25920, Note_on_c, 0, 79, 38
2, 25980, Note_on_c, 0, 69, 0
2, 25980, Note_on_c, 0, 76, 29
2, 25980, Note_on_c, 0, 72, 24
2, 26040, Note_on_c, 0, 72, 0
2, 26040, Note_on_c, 0, 76, 0
2, 26040, Note_on_c, 0, 79, 0
2, 26040, Note_on_c, 0, 79, 36
2, 26040, Note_on_c, 0, 69, 29
2, 26100, Note_on_c, 0, 69, 0
2, 26100, Note_on_c, 0, 79, 0
2, 26100, Note_on_c, 0, 72, 25
2, 26100, Note_on_c, 0, 77, 30
2, 26145, Note_on_c, 0, 77, 0
2, 26145, Note_on_c, 0, 72, 0
2, 26160, Note_on_c, 0, 73, 28
2, 26160, Note_on_c, 0, 77, 33
2, 26220, Note_on_c, 0, 77, 0
2, 26220, Note_on_c, 0, 75, 28
2, 26280, Note_on_c, 0, 75, 0
2, 26280, Note_on_c, 0, 73, 0
2, 26280, Note_on_c, 0, 77, 33
2, 26280, Note_on_c, 0, 70, 28
2, 26340, Note_on_c, 0, 77, 0
2, 26340, Note_on_c, 0, 76, 28
2, 26400, Note_on_c, 0, 76, 0
2, 26400, Note_on_c, 0, 70, 0
2, 26400, Note_on_c, 0, 79, 31
2, 26400, Note_on_c, 0, 75, 26
2, 26460, Note_on_c, 0, 79, 0
2, 26460, Note_on_c, 0, 76, 27
2, 26520, Note_on_c, 0, 76, 0
2, 26520, Note_on_c, 0, 75, 0
2, 26520, Note_on_c, 0, 79, 32
2, 26520, Note_on_c, 0, 72, 27
2, 26580, Note_on_c, 0, 79, 0
2, 26580, Note_on_c, 0, 77, 25
2, 26640, Note_on_c, 0, 77, 0
2, 26640, Note_on_c, 0, 72, 0
2, 26640, Note_on_c, 0, 70, 25
2, 26640, Note_on_c, 0, 77, 30
2, 26700, Note_on_c, 0, 77, 0
2, 26700, Note_on_c, 0, 70, 0
2, 26700, Note_on_c, 0, 75, 26
2, 26760, Note_on_c, 0, 75, 0
2, 26760, Note_on_c, 0, 77, 31
2, 26820, Note_on_c, 0, 77, 0
2, 26820, Note_on_c, 0, 76, 26
2, 26880, Note_on_c, 0, 76, 0
2, 26880, Note_on_c, 0, 79, 32
2, 26880, Note_on_c, 0, 72, 27
2, 26940, Note_on_c, 0, 72, 0
2, 26940, Note_on_c, 0, 79, 0
2, 26940, Note_on_c, 0, 75, 28
2, 27000, Note_on_c, 0, 75, 0
2, 27000, Note_on_c, 0, 79, 31
2, 27060, Note_on_c, 0, 79, 0
2, 27060, Note_on_c, 0, 78, 28
2, 27120, Note_on_c, 0, 78, 0
2, 27120, Note_on_c, 0, 77, 36
2, 27180, Note_on_c, 0, 77, 0
2, 27180, Note_on_c, 0, 78, 31
2, 27240, Note_on_c, 0, 78, 0
2, 27240, Note_on_c, 0, 77, 36
2, 27300, Note_on_c, 0, 77, 0
2, 27300, Note_on_c, 0, 79, 30
2, 27360, Note_on_c, 0, 79, 0
2, 27360, Note_on_c, 0, 77, 36
2, 27420, Note_on_c, 0, 77, 0
2, 27420, Note_on_c, 0, 78, 31
2, 27480, Note_on_c, 0, 78, 0
2, 27480, Note_on_c, 0, 77, 36
2, 27540, Note_on_c, 0, 77, 0
2, 27540, Note_on_c, 0, 79, 31
2, 27600, Note_on_c, 0, 79, 0
2, 27600, Note_on_c, 0, 77, 36
2, 27660, Note_on_c, 0, 77, 0
2, 27660, Note_on_c, 0, 78, 31
2, 27720, Note_on_c, 0, 78, 0
2, 27720, Note_on_c, 0, 77, 36
2, 27780, Note_on_c, 0, 77, 0
2, 27780, Note_on_c, 0, 79, 32
2, 27840, Note_on_c, 0, 79, 0
2, 27840, Note_on_c, 0, 77, 36
2, 27900, Note_on_c, 0, 77, 0
2, 27900, Note_on_c, 0, 78, 32
2, 27960, Note_on_c, 0, 78, 0
2, 27960, Note_on_c, 0, 77, 36
2, 28020, Note_on_c, 0, 77, 0
2, 28020, Note_on_c, 0, 79, 31
2, 28080, Note_on_c, 0, 79, 0
2, 28080, Note_on_c, 0, 69, 29
2, 28080, Note_on_c, 0, 77, 36
2, 28140, Note_on_c, 0, 77, 0
2, 28140, Note_on_c, 0, 69, 0
2, 28140, Note_on_c, 0, 78, 32
2, 28140, Note_on_c, 0, 72, 27
2, 28200, Note_on_c, 0, 72, 0
2, 28200, Note_on_c, 0, 78, 0
2, 28200, Note_on_c, 0, 69, 29
2, 28200, Note_on_c, 0, 77, 36
2, 28260, Note_on_c, 0, 77, 0
2, 28260, Note_on_c, 0, 69, 0
2, 28260, Note_on_c, 0, 72, 26
2, 28260, Note_on_c, 0, 79, 31
2, 28320, Note_on_c, 0, 79, 0
2, 28320, Note_on_c, 0, 72, 0
2, 28320, Note_on_c, 0, 70, 29
2, 28320, Note_on_c, 0, 77, 36
2, 28380, Note_on_c, 0, 77, 0
2, 28380, Note_on_c, 0, 70, 0
2, 28380, Note_on_c, 0, 74, 27
2, 28380, Note_on_c, 0, 78, 32
2, 28440, Note_on_c, 0, 78, 0
2, 28440, Note_on_c, 0, 74, 0
2, 28440, Note_on_c, 0, 70, 29
2, 28440, Note_on_c, 0, 77, 36
2, 28500, Note_on_c, 0, 77, 0
2, 28500, Note_on_c, 0, 70, 0
2, 28500, Note_on_c, 0, 74, 26
2, 28500, Note_on_c, 0, 79, 31
2, 28560, Note_on_c, 0, 79, 0
2, 28560, Note_on_c, 0, 74, 0
2, 28560, Note_on_c, 0, 69, 29
2, 28560, Note_on_c, 0, 77, 36
2, 28620, Note_on_c, 0, 77, 0
2, 28620, Note_on_c, 0, 69, 0
2, 28620, Note_on_c, 0, 78, 32
2, 28620, Note_on_c, 0, 72, 27
2, 28680, Note_on_c, 0, 72, 0
2, 28680, Note_on_c, 0, 78, 0
2, 28680, Note_on_c, 0, 77, 36
2, 28680, Note_on_c, 0, 69, 29
2, 28740, Note_on_c, 0, 69, 0
2, 28740, Note_on_c, 0, 77, 0
2, 28740, Note_on_c, 0, 72, 26
2, 28740, Note_on_c, 0, 79, 31
2, 28800, Note_on_c, 0, 79, 0
2, 28800, Note_on_c, 0, 72, 0
2, 28800, Note_on_c, 0, 77, 36
2, 28800, Note_on_c, 0, 70, 29
2, 28860, Note_on_c, 0, 70, 0
2, 28860, Note_on_c, 0, 77, 0
2, 28860, Note_on_c, 0, 78, 32
2, 28860, Note_on_c, 0, 74, 27
2, 28890, Note_on_c, 0, 74, 0
2, 28890, Note_on_c, 0, 78, 0
2, 28920, Note_on_c, 0, 70, 42
2, 28920, Note_on_c, 0, 78, 42
2, 28980, Note_on_c, 0, 78, 0
2, 28980, Note_on_c, 0, 70, 0
2, 28980, Note_on_c, 0, 74, 36
2, 28980, Note_on_c, 0, 79, 36
2, 29010, Note_on_c, 0, 79, 0
2, 29010, Note_on_c, 0, 74, 0
2, 29040, Note_on_c, 0, 80, 45
2, 29040, Note_on_c, 0, 74, 45
2, 29100, Note_on_c, 0, 74, 0
2, 29100, Note_on_c, 0, 80, 0
2, 29100, Note_on_c, 0, 81, 38
2, 29100, Note_on_c, 0, 77, 38
2, 29160, Note_on_c, 0, 77, 0
2, 29160, Note_on_c, 0, 81, 0
2, 29160, Note_on_c, 0, 81, 45
2, 29160, Note_on_c, 0, 74, 45
2, 29220, Note_on_c, 0, 74, 0
2, 29220, Note_on_c, 0, 81, 0
2, 29220, Note_on_c, 0, 82, 38
2, 29220, Note_on_c, 0, 77, 38
2, 29250, Note_on_c, 0, 77, 0
2, 29250, Note_on_c, 0, 82, 0
2, 29280, Note_on_c, 0, 72, 46
2, 29280, Note_on_c, 0, 82, 46
2, 29340, Note_on_c, 0, 82, 0
2, 29340, Note_on_c, 0, 72, 0
2, 29340, Note_on_c, 0, 81, 41
2, 29340, Note_on_c, 0, 75, 41
2, 29370, Note_on_c, 0, 75, 0
2, 29370, Note_on_c, 0, 81, 0
2, 29400, Note_on_c, 0, 81, 45
2, 29400, Note_on_c, 0, 72, 45
2, 29460, Note_on_c, 0, 72, 0
2, 29460, Note_on_c, 0, 81, 0
2, 29460, Note_on_c, 0, 75, 38
2, 29460, Note_on_c, 0, 80, 38
2, 29490, Note_on_c, 0, 80, 0
2, 29490, Note_on_c, 0, 75, 0
2, 29520, Note_on_c, 0, 80, 43
2, 29520, Note_on_c, 0, 72, 43
2, 29580, Note_on_c, 0, 72, 0
2, 29580, Note_on_c, 0, 80, 0
2, 29580, Note_on_c, 0, 79, 37
2, 29580, Note_on_c, 0, 75, 37
2, 29610, Note_on_c, 0, 75, 0
2, 29610, Note_on_c, 0, 79, 0
2, 29640, Note_on_c, 0, 79, 42
2, 29640, Note_on_c, 0, 72, 42
2, 29700, Note_on_c, 0, 72, 0
2, 29700, Note_on_c, 0, 79, 0
2, 29700, Note_on_c, 0, 78, 36
2, 29700, Note_on_c, 0, 75, 36
2, 29730, Note_on_c, 0, 75, 0
2, 29730, Note_on_c, 0, 78, 0
2, 29760, Note_on_c, 0, 74, 29
2, 29760, Note_on_c, 0, 77, 36
2, 29820, Note_on_c, 0, 77, 0
2, 29820, Note_on_c, 0, 74, 0
2, 29820, Note_on_c, 0, 70, 27
2, 29820, Note_on_c, 0, 78, 32
2, 29880, Note_on_c, 0, 78, 0
2, 29880, Note_on_c, 0, 70, 0
2, 29880, Note_on_c, 0, 74, 29
2, 29880, Note_on_c, 0, 77, 36
2, 29940, Note_on_c, 0, 77, 0
2, 29940, Note_on_c, 0, 74, 0
2, 29940, Note_on_c, 0, 79, 31
2, 29940, Note_on_c, 0, 70, 26
2, 30000, Note_on_c, 0, 70, 0
2, 30000, Note_on_c, 0, 79, 0
2, 30000, Note_on_c, 0, 69, 29
2, 30000, Note_on_c, 0, 77, 36
2, 30060, Note_on_c, 0, 77, 0
2, 30060, Note_on_c, 0, 69, 0
2, 30060, Note_on_c, 0, 72, 27
2, 30060, Note_on_c, 0, 78, 32
2, 30120, Note_on_c, 0, 78, 0
2, 30120, Note_on_c, 0, 72, 0
2, 30120, Note_on_c, 0, 77, 36
2, 30120, Note_on_c, 0, 69, 29
2, 30180, Note_on_c, 0, 69, 0
2, 30180, Note_on_c, 0, 77, 0
2, 30180, Note_on_c, 0, 72, 26
2, 30180, Note_on_c, 0, 79, 31
2, 30240, Note_on_c, 0, 79, 0
2, 30240, Note_on_c, 0, 72, 0
2, 30240, Note_on_c, 0, 77, 36
2, 30240, Note_on_c, 0, 70, 29
2, 30300, Note_on_c, 0, 70, 0
2, 30300, Note_on_c, 0, 77, 0
2, 30300, Note_on_c, 0, 74, 27
2, 30300, Note_on_c, 0, 78, 32
2, 30360, Note_on_c, 0, 78, 0
2, 30360, Note_on_c, 0, 74, 0
2, 30360, Note_on_c, 0, 77, 36
2, 30360, Note_on_c, 0, 70, 29
2, 30420, Note_on_c, 0, 70, 0
2, 30420, Note_on_c, 0, 77, 0
2, 30420, Note_on_c, 0, 74, 26
2, 30420, Note_on_c, 0, 79, 31
2, 30480, Note_on_c, 0, 79, 0
2, 30480, Note_on_c, 0, 74, 0
2, 30480, Note_on_c, 0, 77, 36
2, 30480, Note_on_c, 0, 69, 29
2, 30540, Note_on_c, 0, 69, 0
2, 30540, Note_on_c, 0, 77, 0
2, 30540, Note_on_c, 0, 78, 32
2, 30540, Note_on_c, 0, 75, 27
2, 30600, Note_on_c, 0, 75, 0
2, 30600, Note_on_c, 0, 78, 0
2, 30600, Note_on_c, 0, 69, 29
2, 30600, Note_on_c, 0, 77, 36
2, 30660, Note_on_c, 0, 77, 0
2, 30660, Note_on_c, 0, 69, 0
2, 30660, Note_on_c, 0, 75, 26
2, 30660, Note_on_c, 0, 79, 31
2, 30720, Note_on_c, 0, 79, 0
2, 30720, Note_on_c, 0, 75, 0
2, 30720, Note_on_c, 0, 70, 29
2, 30720, Note_on_c, 0, 77, 36
2, 30780, Note_on_c, 0, 77, 0
2, 30780, Note_on_c, 0, 70, 0
2, 30780, Note_on_c, 0, 74, 27
2, 30780, Note_on_c, 0, 78, 32
2, 30810, Note_on_c, 0, 78, 0
2, 30810, Note_on_c, 0, 74, 0
2, 30840, Note_on_c, 0, 78, 42
2, 30840, Note_on_c, 0, 70, 42
2, 30900, Note_on_c, 0, 70, 0
2, 30900, Note_on_c, 0, 78, 0
2, 30900, Note_on_c, 0, 74, 36
2, 30900, Note_on_c, 0, 79, 36
2, 30930, Note_on_c, 0, 79, 0
2, 30930, Note_on_c, 0, 74, 0
2, 30960, Note_on_c, 0, 74, 45
2, 30960, Note_on_c, 0, 80, 45
2, 31020, Note_on_c, 0, 80, 0
2, 31020, Note_on_c, 0, 74, 0
2, 31020, Note_on_c, 0, 81, 38
2, 31020, Note_on_c, 0, 77, 38
2, 31080, Note_on_c, 0, 77, 0
2, 31080, Note_on_c, 0, 81, 0
2, 31080, Note_on_c, 0, 81, 45
2, 31080, Note_on_c, 0, 74, 45
2, 31140, Note_on_c, 0, 74, 0
2, 31140, Note_on_c, 0, 81, 0
2, 31140, Note_on_c, 0, 77, 38
2, 31140, Note_on_c, 0, 82, 38
2, 31170, Note_on_c, 0, 82, 0
2, 31170, Note_on_c, 0, 77, 0
2, 31200, Note_on_c, 0, 72, 46
2, 31200, Note_on_c, 0, 82, 46
2, 31260, Note_on_c, 0, 82, 0
2, 31260, Note_on_c, 0, 72, 0
2, 31260, Note_on_c, 0, 81, 41
2, 31260, Note_on_c, 0, 75, 41
2, 31290, Note_on_c, 0, 75, 0
2, 31290, Note_on_c, 0, 81, 0
2, 31320, Note_on_c, 0, 72, 45
2, 31320, Note_on_c, 0, 81, 45
2, 31380, Note_on_c, 0, 81, 0
2, 31380, Note_on_c, 0, 72, 0
2, 31380, Note_on_c, 0, 75, 38
2, 31380, Note_on_c, 0, 80, 38
2, 31410, Note_on_c, 0, 80, 0
2, 31410, Note_on_c, 0, 75, 0
2, 31440, Note_on_c, 0, 80, 43
2, 31440, Note_on_c, 0, 72, 43
2, 31500, Note_on_c, 0, 72, 0
2, 31500, Note_on_c, 0, 80, 0
2, 31500, Note_on_c, 0, 79, 37
2, 31500, Note_on_c, 0, 75, 37
2, 31530, Note_on_c, 0, 75, 0
2, 31530, Note_on_c, 0, 79, 0
2, 31560, Note_on_c, 0, 72, 42
2, 31560, Note_on_c, 0, 79, 42
2, 31620, Note_on_c, 0, 79, 0
2, 31620, Note_on_c, 0, 72, 0
2, 31620, Note_on_c, 0, 75, 37
2, 31620, Note_on_c, 0, 78, 37
2, 31650, Note_on_c, 0, 78, 0
2, 31650, Note_on_c, 0, 75, 0
2, 31680, Note_on_c, 0, 74, 29
2, 31680, Note_on_c, 0, 77, 37
2, 31740, Note_on_c, 0, 77, 0
2, 31740, Note_on_c, 0, 74, 0
2, 31740, Note_on_c, 0, 70, 28
2, 31740, Note_on_c, 0, 78, 33
2, 31800, Note_on_c, 0, 78, 0
2, 31800, Note_on_c, 0, 70, 0
2, 31800, Note_on_c, 0, 77, 37
2, 31800, Note_on_c, 0, 74, 30
2, 31860, Note_on_c, 0, 74, 0
2, 31860, Note_on_c, 0, 77, 0
2, 31860, Note_on_c, 0, 81, 36
2, 31920, Note_on_c, 0, 81, 0
2, 31920, Note_on_c, 0, 74, 30
2, 31920, Note_on_c, 0, 82, 37
2, 31980, Note_on_c, 0, 82, 0
2, 31980, Note_on_c, 0, 74, 0
2, 31980, Note_on_c, 0, 77, 28
2, 31980, Note_on_c, 0, 83, 33
2, 32040, Note_on_c, 0, 83, 0
2, 32040, Note_on_c, 0, 77, 0
2, 32040, Note_on_c, 0, 82, 38
2, 32040, Note_on_c, 0, 74, 30
2, 32100, Note_on_c, 0, 74, 0
2, 32100, Note_on_c, 0, 82, 0
2, 32100, Note_on_c, 0, 77, 27
2, 32100, Note_on_c, 0, 84, 33
2, 32160, Note_on_c, 0, 84, 0
2, 32160, Note_on_c, 0, 77, 0
2, 32160, Note_on_c, 0, 82, 38
2, 32160, Note_on_c, 0, 75, 31
2, 32220, Note_on_c, 0, 75, 0
2, 32220, Note_on_c, 0, 82, 0
2, 32220, Note_on_c, 0, 83, 34
2, 32220, Note_on_c, 0, 78, 28
2, 32280, Note_on_c, 0, 78, 0
2, 32280, Note_on_c, 0, 83, 0
2, 32280, Note_on_c, 0, 75, 31
2, 32280, Note_on_c, 0, 82, 38
2, 32340, Note_on_c, 0, 82, 0
2, 32340, Note_on_c, 0, 75, 0
2, 32340, Note_on_c, 0, 78, 28
2, 32340, Note_on_c, 0, 84, 33
2, 32400, Note_on_c, 0, 84, 0
2, 32400, Note_on_c, 0, 78, 0
2, 32400, Note_on_c, 0, 77, 31
2, 32400, Note_on_c, 0, 82, 39
2, 32460, Note_on_c, 0, 82, 0
2, 32460, Note_on_c, 0, 77, 0
2, 32460, Note_on_c, 0, 83, 34
2, 32460, Note_on_c, 0, 80, 29
2, 32520, Note_on_c, 0, 80, 0
2, 32520, Note_on_c, 0, 83, 0
2, 32520, Note_on_c, 0, 77, 31
2, 32520, Note_on_c, 0, 82, 39
2, 32580, Note_on_c, 0, 82, 0
2, 32580, Note_on_c, 0, 77, 0
2, 32580, Note_on_c, 0, 80, 28
2, 32580, Note_on_c, 0, 84, 34
2, 32640, Note_on_c, 0, 84, 0
2, 32640, Note_on_c, 0, 80, 0
2, 32640, Note_on_c, 0, 75, 32
2, 32640, Note_on_c, 0, 82, 39
2, 32700, Note_on_c, 0, 82, 0
2, 32700, Note_on_c, 0, 75, 0
2, 32700, Note_on_c, 0, 79, 29
2, 32700, Note_on_c, 0, 83, 35
2, 32730, Note_on_c, 0, 83, 0
2, 32730, Note_on_c, 0, 79, 0
2, 32760, Note_on_c, 0, 75, 47
2, 32760, Note_on_c, 0, 83, 47
2, 32820, Note_on_c, 0, 83, 0
2, 32820, Note_on_c, 0, 75, 0
2, 32820, Note_on_c, 0, 79, 40
2, 32820, Note_on_c, 0, 84, 40
2, 32850, Note_on_c, 0, 84, 0
2, 32850, Note_on_c, 0, 79, 0
2, 32880, Note_on_c, 0, 79, 50
2, 32880, Note_on_c, 0, 85, 50
2, 32940, Note_on_c, 0, 85, 0
2, 32940, Note_on_c, 0, 79, 0
2, 32940, Note_on_c, 0, 86, 42
2, 32940, Note_on_c, 0, 82, 42
2, 33000, Note_on_c, 0, 82, 0
2, 33000, Note_on_c, 0, 86, 0
2, 33000, Note_on_c, 0, 86, 51
2, 33000, Note_on_c, 0, 79, 51
2, 33060, Note_on_c, 0, 79, 0
2, 33060, Note_on_c, 0, 86, 0
2, 33060, Note_on_c, 0, 87, 43
2, 33060, Note_on_c, 0, 82, 43
2, 33090, Note_on_c, 0, 82, 0
2, 33090, Note_on_c, 0, 87, 0
2, 33120, Note_on_c, 0, 77, 52
2, 33120, Note_on_c, 0, 87, 52
2, 33180, Note_on_c, 0, 87, 0
2, 33180, Note_on_c, 0, 77, 0
2, 33180, Note_on_c, 0, 80, 47
2, 33180, Note_on_c, 0, 86, 47
2, 33210, Note_on_c, 0, 86, 0
2, 33210, Note_on_c, 0, 80, 0
2, 33240, Note_on_c, 0, 86, 51
2, 33240, Note_on_c, 0, 77, 51
2, 33300, Note_on_c, 0, 77, 0
2, 33300, Note_on_c, 0, 86, 0
2, 33300, Note_on_c, 0, 85, 44
2, 33300, Note_on_c, 0, 80, 44
2, 33330, Note_on_c, 0, 80, 0
2, 33330, Note_on_c, 0, 85, 0
2, 33360, Note_on_c, 0, 77, 49
2, 33360, Note_on_c, 0, 85, 49
2, 33420, Note_on_c, 0, 85, 0
2, 33420, Note_on_c, 0, 77, 0
2, 33420, Note_on_c, 0, 80, 43
2, 33420, Note_on_c, 0, 84, 43
2, 33450, Note_on_c, 0, 84, 0
2, 33450, Note_on_c, 0, 80, 0
2, 33480, Note_on_c, 0, 77, 49
2, 33480, Note_on_c, 0, 84, 49
2, 33540, Note_on_c, 0, 84, 0
2, 33540, Note_on_c, 0, 77, 0
2, 33540, Note_on_c, 0, 80, 42
2, 33540, Note_on_c, 0, 83, 42
2, 33570, Note_on_c, 0, 83, 0
2, 33570, Note_on_c, 0, 80, 0
2, 33600, Note_on_c, 0, 79, 34
2, 33600, Note_on_c, 0, 82, 42
2, 33660, Note_on_c, 0, 82, 0
2, 33660, Note_on_c, 0, 79, 0
2, 33660, Note_on_c, 0, 83, 38
2, 33660, Note_on_c, 0, 75, 32
2, 33720, Note_on_c, 0, 75, 0
2, 33720, Note_on_c, 0, 83, 0
2, 33720, Note_on_c, 0, 82, 42
2, 33720, Note_on_c, 0, 79, 34
2, 33780, Note_on_c, 0, 79, 0
2, 33780, Note_on_c, 0, 82, 0
2, 33780, Note_on_c, 0, 75, 31
2, 33780, Note_on_c, 0, 84, 37
2, 33840, Note_on_c, 0, 84, 0
2, 33840, Note_on_c, 0, 75, 0
2, 33840, Note_on_c, 0, 82, 43
2, 33840, Note_on_c, 0, 74, 34
2, 33900, Note_on_c, 0, 74, 0
2, 33900, Note_on_c, 0, 82, 0
2, 33900, Note_on_c, 0, 83, 38
2, 33900, Note_on_c, 0, 77, 32
2, 33960, Note_on_c, 0, 77, 0
2, 33960, Note_on_c, 0, 83, 0
2, 33960, Note_on_c, 0, 74, 35
2, 33960, Note_on_c, 0, 82, 43
2, 34020, Note_on_c, 0, 82, 0
2, 34020, Note_on_c, 0, 74, 0
2, 34020, Note_on_c, 0, 84, 37
2, 34020, Note_on_c, 0, 77, 31
2, 34080, Note_on_c, 0, 77, 0
2, 34080, Note_on_c, 0, 84, 0
2, 34080, Note_on_c, 0, 82, 43
2, 34080, Note_on_c, 0, 75, 35
2, 34140, Note_on_c, 0, 75, 0
2, 34140, Note_on_c, 0, 82, 0
2, 34140, Note_on_c, 0, 78, 33
2, 34140, Note_on_c, 0, 83, 39
2, 34200, Note_on_c, 0, 83, 0
2, 34200, Note_on_c, 0, 78, 0
2, 34200, Note_on_c, 0, 75, 35
2, 34200, Note_on_c, 0, 82, 44
2, 34260, Note_on_c, 0, 82, 0
2, 34260, Note_on_c, 0, 75, 0
2, 34260, Note_on_c, 0, 78, 32
2, 34260, Note_on_c, 0, 84, 38
2, 34320, Note_on_c, 0, 84, 0
2, 34320, Note_on_c, 0, 78, 0
2, 34320, Note_on_c, 0, 82, 44
2, 34320, Note_on_c, 0, 77, 35
2, 34380, Note_on_c, 0, 77, 0
2, 34380, Note_on_c, 0, 82, 0
2, 34380, Note_on_c, 0, 83, 39
2, 34380, Note_on_c, 0, 80, 33
2, 34440, Note_on_c, 0, 80, 0
2, 34440, Note_on_c, 0, 83, 0
2, 34440, Note_on_c, 0, 82, 45
2, 34440, Note_on_c, 0, 77, 36
2, 34500, Note_on_c, 0, 77, 0
2, 34500, Note_on_c, 0, 82, 0
2, 34500, Note_on_c, 0, 84, 38
2, 34500, Note_on_c, 0, 80, 32
2, 34560, Note_on_c, 0, 80, 0
2, 34560, Note_on_c, 0, 84, 0
2, 34560, Note_on_c, 0, 82, 45
2, 34560, Note_on_c, 0, 75, 36
2, 34620, Note_on_c, 0, 75, 0
2, 34620, Note_on_c, 0, 82, 0
2, 34620, Note_on_c, 0, 79, 34
2, 34620, Note_on_c, 0, 83, 40
2, 34650, Note_on_c, 0, 83, 0
2, 34650, Note_on_c, 0, 79, 0
2, 34680, Note_on_c, 0, 83, 53
2, 34680, Note_on_c, 0, 75, 53
2, 34740, Note_on_c, 0, 75, 0
2, 34740, Note_on_c, 0, 83, 0
2, 34740, Note_on_c, 0, 79, 45
2, 34740, Note_on_c, 0, 84, 45
2, 34770, Note_on_c, 0, 84, 0
2, 34770, Note_on_c, 0, 79, 0
2, 34800, Note_on_c, 0, 85, 57
2, 34800, Note_on_c, 0, 79, 57
2, 34860, Note_on_c, 0, 79, 0
2, 34860, Note_on_c, 0, 85, 0
2, 34860, Note_on_c, 0, 82, 48
2, 34860, Note_on_c, 0, 86, 48
2, 34920, Note_on_c, 0, 86, 0
2, 34920, Note_on_c, 0, 82, 0
2, 34920, Note_on_c, 0, 86, 58
2, 34920, Note_on_c, 0, 79, 58
2, 34980, Note_on_c, 0, 79, 0
2, 34980, Note_on_c, 0, 86, 0
2, 34980, Note_on_c, 0, 82, 49
2, 34980, Note_on_c, 0, 87, 49
2, 35010, Note_on_c, 0, 87, 0
2, 35010, Note_on_c, 0, 82, 0
2, 35040, Note_on_c, 0, 87, 59
2, 35040, Note_on_c, 0, 77, 59
2, 35100, Note_on_c, 0, 77, 0
2, 35100, Note_on_c, 0, 87, 0
2, 35100, Note_on_c, 0, 86, 53
2, 35100, Note_on_c, 0, 80, 53
2, 35130, Note_on_c, 0, 80, 0
2, 35130, Note_on_c, 0, 86, 0
2, 35160, Note_on_c, 0, 77, 58
2, 35160, Note_on_c, 0, 86, 58
2, 35220, Note_on_c, 0, 86, 0
2, 35220, Note_on_c, 0, 77, 0
2, 35220, Note_on_c, 0, 80, 49
2, 35220, Note_on_c, 0, 85, 49
2, 35250, Note_on_c, 0, 85, 0
2, 35250, Note_on_c, 0, 80, 0
2, 35280, Note_on_c, 0, 85, 55
2, 35280, Note_on_c, 0, 77, 55
2, 35340, Note_on_c, 0, 77, 0
2, 35340, Note_on_c, 0, 85, 0
2, 35340, Note_on_c, 0, 84, 48
2, 35340, Note_on_c, 0, 80, 48
2, 35370, Note_on_c, 0, 80, 0
2, 35370, Note_on_c, 0, 84, 0
2, 35400, Note_on_c, 0, 77, 54
2, 35400, Note_on_c, 0, 84, 54
2, 35460, Note_on_c, 0, 84, 0
2, 35460, Note_on_c, 0, 77, 0
2, 35460, Note_on_c, 0, 83, 46
2, 35460, Note_on_c, 0, 80, 46
2, 35490, Note_on_c, 0, 80, 0
2, 35490, Note_on_c, 0, 83, 0
2, 35520, Note_on_c, 0, 79, 44
2, 35520, Note_on_c, 0, 82, 58
2, 35580, Note_on_c, 0, 82, 0
2, 35580, Note_on_c, 0, 79, 0
2, 35580, Note_on_c, 0, 84, 55
2, 35580, Note_on_c, 0, 75, 42
2, 35640, Note_on_c, 0, 75, 0
2, 35640, Note_on_c, 0, 84, 0
2, 35640, Note_on_c, 0, 79, 44
2, 35640, Note_on_c, 0, 82, 58
2, 35700, Note_on_c, 0, 82, 0
2, 35700, Note_on_c, 0, 79, 0
2, 35700, Note_on_c, 0, 87, 54
2, 35760, Note_on_c, 0, 87, 0
2, 35760, Note_on_c, 0, 80, 43
2, 35760, Note_on_c, 0, 91, 54
2, 35820, Note_on_c, 0, 80, 0
2, 35820, Note_on_c, 0, 86, 33
2, 35820, Note_on_c, 0, 88, 41
2, 35880, Note_on_c, 0, 88, 0
2, 35880, Note_on_c, 0, 86, 0
2, 35880, Note_on_c, 0, 91, 0
2, 35880, Note_on_c, 0, 80, 36
2, 35880, Note_on_c, 0, 91, 45
2, 35940, Note_on_c, 0, 91, 0
2, 35940, Note_on_c, 0, 80, 0
2, 35940, Note_on_c, 0, 89, 42
2, 35940, Note_on_c, 0, 86, 33
2, 35985, Note_on_c, 0, 86, 0
2, 35985, Note_on_c, 0, 89, 0
2, 36000, Note_on_c, 0, 89, 55
2, 36000, Note_on_c, 0, 79, 45
2, 36060, Note_on_c, 0, 79, 0
2, 36060, Note_on_c, 0, 84, 32
2, 36060, Note_on_c, 0, 86, 39
2, 36120, Note_on_c, 0, 86, 0
2, 36120, Note_on_c, 0, 84, 0
2, 36120, Note_on_c, 0, 89, 0
2, 36120, Note_on_c, 0, 89, 45
2, 36120, Note_on_c, 0, 79, 36
2, 36180, Note_on_c, 0, 79, 0
2, 36180, Note_on_c, 0, 89, 0
2, 36180, Note_on_c, 0, 84, 33
2, 36180, Note_on_c, 0, 87, 42
2, 36240, Note_on_c, 0, 87, 0
2, 36240, Note_on_c, 0, 84, 0
2, 36240, Note_on_c, 0, 87, 52
2, 36240, Note_on_c, 0, 77, 52
2, 36300, Note_on_c, 0, 77, 0
2, 36300, Note_on_c, 0, 83, 31
2, 36300, Note_on_c, 0, 85, 37
2, 36360, Note_on_c, 0, 85, 0
2, 36360, Note_on_c, 0, 83, 0
2, 36360, Note_on_c, 0, 87, 0
2, 36360, Note_on_c, 0, 87, 45
2, 36360, Note_on_c, 0, 77, 36
2, 36420, Note_on_c, 0, 77, 0
2, 36420, Note_on_c, 0, 87, 0
2, 36420, Note_on_c, 0, 82, 39
2, 36420, Note_on_c, 0, 86, 39
2, 36465, Note_on_c, 0, 86, 0
2, 36465, Note_on_c, 0, 82, 0
2, 36480, Note_on_c, 0, 86, 50
2, 36480, Note_on_c, 0, 75, 43
2, 36540, Note_on_c, 0, 75, 0
2, 36540, Note_on_c, 0, 83, 37
2, 36540, Note_on_c, 0, 79, 31
2, 36600, Note_on_c, 0, 79, 0
2, 36600, Note_on_c, 0, 83, 0
2, 36600, Note_on_c, 0, 86, 0
2, 36600, Note_on_c, 0, 75, 36
2, 36600, Note_on_c, 0, 86, 44
2, 36660, Note_on_c, 0, 86, 0
2, 36660, Note_on_c, 0, 75, 0
2, 36660, Note_on_c, 0, 84, 39
2, 36660, Note_on_c, 0, 79, 39
2, 36705, Note_on_c, 0, 79, 0
2, 36705, Note_on_c, 0, 84, 0
2, 36720, Note_on_c, 0, 79, 39
2, 36720, Note_on_c, 0, 84, 48
2, 36780, Note_on_c, 0, 79, 0
2, 36780, Note_on_c, 0, 73, 37
2, 36780, Note_on_c, 0, 81, 37
2, 36840, Note_on_c, 0, 81, 0
2, 36840, Note_on_c, 0, 73, 0
2, 36840, Note_on_c, 0, 84, 0
2, 36840, Note_on_c, 0, 84, 39
2, 36840, Note_on_c, 0, 79, 32
2, 36900, Note_on_c, 0, 79, 0
2, 36900, Note_on_c, 0, 84, 0
2, 36900, Note_on_c, 0, 73, 36
2, 36900, Note_on_c, 0, 82, 36
2, 36960, Note_on_c, 0, 82, 0
2, 36960, Note_on_c, 0, 73, 0
2, 36960, Note_on_c, 0, 81, 45
2, 36960, Note_on_c, 0, 73, 37
2, 37020, Note_on_c, 0, 73, 0
2, 37020, Note_on_c, 0, 78, 35
2, 37020, Note_on_c, 0, 70, 29
2, 37080, Note_on_c, 0, 70, 0
2, 37080, Note_on_c, 0, 78, 0
2, 37080, Note_on_c, 0, 81, 0
2, 37080, Note_on_c, 0, 81, 37
2, 37080, Note_on_c, 0, 73, 31
2, 37140, Note_on_c, 0, 73, 0
2, 37140, Note_on_c, 0, 81, 0
2, 37140, Note_on_c, 0, 70, 27
2, 37140, Note_on_c, 0, 79, 33
2, 37200, Note_on_c, 0, 79, 0
2, 37200, Note_on_c, 0, 70, 0
2, 37200, Note_on_c, 0, 70, 36
2, 37200, Note_on_c, 0, 77, 43
2, 37260, Note_on_c, 0, 70, 0
2, 37260, Note_on_c, 0, 75, 32
2, 37260, Note_on_c, 0, 67, 27
2, 37320, Note_on_c, 0, 67, 0
2, 37320, Note_on_c, 0, 75, 0
2, 37320, Note_on_c, 0, 77, 0
2, 37320, Note_on_c, 0, 77, 36
2, 37320, Note_on_c, 0, 73, 29
2, 37380, Note_on_c, 0, 73, 0
2, 37380, Note_on_c, 0, 77, 0
2, 37380, Note_on_c, 0, 76, 31
2, 37380, Note_on_c, 0, 67, 26
2, 37440, Note_on_c, 0, 67, 0
2, 37440, Note_on_c, 0, 76, 0
2, 37440, Note_on_c, 0, 79, 52
2, 37440, Note_on_c, 0, 70, 40
2, 37500, Note_on_c, 0, 70, 0
2, 37500, Note_on_c, 0, 65, 36
2, 37560, Note_on_c, 0, 65, 0
2, 37560, Note_on_c, 0, 70, 45
2, 37620, Note_on_c, 0, 70, 0
2, 37620, Note_on_c, 0, 79, 0
2, 37620, Note_on_c, 0, 77, 41
2, 37680, Note_on_c, 0, 77, 0
2, 37680, Note_on_c, 0, 74, 52
2, 37680, Note_on_c, 0, 68, 40
2, 37740, Note_on_c, 0, 68, 0
2, 37740, Note_on_c, 0, 65, 40
2, 37800, Note_on_c, 0, 65, 0
2, 37800, Note_on_c, 0, 68, 40
2, 37860, Note_on_c, 0, 68, 0
2, 37860, Note_on_c, 0, 74, 0
2, 37860, Note_on_c, 0, 75, 41
2, 37920, Note_on_c, 0, 75, 0
2, 37920, Note_on_c, 0, 70, 40
2, 37920, Note_on_c, 0, 74, 52
2, 37920, Note_on_c, 0, 64, 40
2, 37980, Note_on_c, 0, 64, 0
2, 37980, Note_on_c, 0, 70, 0
2, 37980, Note_on_c, 0, 67, 40
2, 38040, Note_on_c, 0, 67, 0
2, 38040, Note_on_c, 0, 64, 40
2, 38100, Note_on_c, 0, 64, 0
2, 38100, Note_on_c, 0, 74, 0
2, 38100, Note_on_c, 0, 72, 41
2, 38160, Note_on_c, 0, 72, 0
2, 38160, Note_on_c, 0, 63, 40
2, 38160, Note_on_c, 0, 67, 52
2, 38220, Note_on_c, 0, 63, 0
2, 38220, Note_on_c, 0, 60, 40
2, 38280, Note_on_c, 0, 60, 0
2, 38280, Note_on_c, 0, 63, 40
2, 38340, Note_on_c, 0, 63, 0
2, 38340, Note_on_c, 0, 67, 0
2, 38340, Note_on_c, 0, 69, 41
2, 38400, Note_on_c, 0, 69, 0
2, 38400, Note_on_c, 0, 72, 52
2, 38400, Note_on_c, 0, 62, 40
2, 38460, Note_on_c, 0, 62, 0
2, 38460, Note_on_c, 0, 65, 36
2, 38520, Note_on_c, 0, 65, 0
2, 38520, Note_on_c, 0, 62, 45
2, 38580, Note_on_c, 0, 62, 0
2, 38580, Note_on_c, 0, 72, 0
2, 38580, Note_on_c, 0, 70, 41
2, 38640, Note_on_c, 0, 70, 0
2, 38640, Note_on_c, 0, 67, 52
2, 38640, Note_on_c, 0, 56, 40
2, 38700, Note_on_c, 0, 56, 0
2, 38700, Note_on_c, 0, 62, 40
2, 38760, Note_on_c, 0, 62, 0
2, 38760, Note_on_c, 0, 56, 40
2, 38820, Note_on_c, 0, 56, 0
2, 38820, Note_on_c, 0, 67, 0
2, 38820, Note_on_c, 0, 62, 40
2, 38820, Note_on_c, 0, 65, 41
2, 38880, Note_on_c, 0, 65, 0
2, 38880, Note_on_c, 0, 62, 0
2, 38880, Note_on_c, 0, 65, 52
2, 38880, Note_on_c, 0, 55, 40
2, 38940, Note_on_c, 0, 55, 0
2, 38940, Note_on_c, 0, 60, 40
2, 39000, Note_on_c, 0, 60, 0
2, 39000, Note_on_c, 0, 55, 40
2, 39060, Note_on_c, 0, 55, 0
2, 39060, Note_on_c, 0, 65, 0
2, 39060, Note_on_c, 0, 63, 41
2, 39120, Note_on_c, 0, 63, 0
2, 39120, Note_on_c, 0, 60, 52
2, 39120, Note_on_c, 0, 51, 40
2, 39180, Note_on_c, 0, 51, 0
2, 39180, Note_on_c, 0, 57, 40
2, 39240, Note_on_c, 0, 57, 0
2, 39240, Note_on_c, 0, 51, 40
2, 39300, Note_on_c, 0, 51, 0
2, 39300, Note_on_c, 0, 60, 0
2, 39300, Note_on_c, 0, 62, 41
2, 39300, Note_on_c, 0, 57, 40
2, 39360, Note_on_c, 0, 57, 0
2, 39360, Note_on_c, 0, 62, 0
2, 39360, Note_on_c, 0, 58, 52
2, 39360, Note_on_c, 0, 50, 47
2, 39480, Note_on_c, 0, 50, 0
2, 39480, Note_on_c, 0, 58, 0
2, 39480, Note_on_c, 0, 50, 31
2, 39540, Note_on_c, 0, 50, 0
2, 39600, Note_on_c, 0, 48, 36
2, 39660, Note_on_c, 0, 48, 0
2, 39720, Note_on_c, 0, 47, 32
2, 39780, Note_on_c, 0, 47, 0
2, 39840, Note_on_c, 0, 46, 36
2, 39900, Note_on_c, 0, 46, 0
2, 39960, Note_on_c, 0, 50, 32
2, 40020, Note_on_c, 0, 50, 0
2, 40080, Note_on_c, 0, 48, 36
2, 40140, Note_on_c, 0, 48, 0
2, 40140, Note_on_c, 0, 47, 31
2, 40200, Note_on_c, 0, 47, 0
2, 40200, Note_on_c, 0, 46, 31
2, 40260, Note_on_c, 0, 46, 0
2, 40440, Note_on_c, 0, 87, 37
2, 40500, Note_on_c, 0, 87, 0
2, 40500, Note_on_c, 0, 84, 37
2, 40560, Note_on_c, 0, 84, 0
2, 40560, Note_on_c, 0, 80, 36
2, 40620, Note_on_c, 0, 80, 0
2, 40620, Note_on_c, 0, 77, 36
2, 40680, Note_on_c, 0, 77, 0
2, 40680, Note_on_c, 0, 81, 36
2, 40740, Note_on_c, 0, 81, 0
2, 40740, Note_on_c, 0, 78, 35
2, 40800, Note_on_c, 0, 78, 0
2, 40800, Note_on_c, 0, 74, 35
2, 40860, Note_on_c, 0, 74, 0
2, 40860, Note_on_c, 0, 71, 33
2, 40920, Note_on_c, 0, 71, 0
2, 40920, Note_on_c, 0, 75, 33
2, 40980, Note_on_c, 0, 75, 0
2, 40980, Note_on_c, 0, 72, 32
2, 41040, Note_on_c, 0, 72, 0
2, 41040, Note_on_c, 0, 68, 32
2, 41100, Note_on_c, 0, 68, 0
2, 41100, Note_on_c, 0, 65, 31
2, 41160, Note_on_c, 0, 65, 0
2, 41160, Note_on_c, 0, 69, 30
2, 41220, Note_on_c, 0, 69, 0
2, 41220, Note_on_c, 0, 78, 30
2, 41280, Note_on_c, 0, 78, 0
2, 41280, Note_on_c, 0, 70, 38
2, 41280, Note_on_c, 0, 77, 38
2, 41400, Note_on_c, 0, 77, 0
2, 41400, Note_on_c, 0, 70, 0
2, 41400, Note_on_c, 0, 50, 31
2, 41460, Note_on_c, 0, 50, 0
2, 41520, Note_on_c, 0, 48, 36
2, 41580, Note_on_c, 0, 48, 0
2, 41640, Note_on_c, 0, 47, 32
2, 41700, Note_on_c, 0, 47, 0
2, 41760, Note_on_c, 0, 46, 36
2, 41820, Note_on_c, 0, 46, 0
2, 41880, Note_on_c, 0, 50, 32
2, 41940, Note_on_c, 0, 50, 0
2, 42000, Note_on_c, 0, 48, 36
2, 42060, Note_on_c, 0, 48, 0
2, 42060, Note_on_c, 0, 47, 31
2, 42120, Note_on_c, 0, 47, 0
2, 42120, Note_on_c, 0, 46, 31
2, 42180, Note_on_c, 0, 46, 0
2, 42360, Note_on_c, 0, 87, 37
2, 42420, Note_on_c, 0, 87, 0
2, 42420, Note_on_c, 0, 84, 37
2, 42480, Note_on_c, 0, 84, 0
2, 42480, Note_on_c, 0, 80, 36
2, 42540, Note_on_c, 0, 80, 0
2, 42540, Note_on_c, 0, 77, 36
2, 42600, Note_on_c, 0, 77, 0
2, 42600, Note_on_c, 0, 81, 36
2, 42660, Note_on_c, 0, 81, 0
2, 42660, Note_on_c, 0, 78, 35
2, 42720, Note_on_c, 0, 78, 0
2, 42720, Note_on_c, 0, 74, 35
2, 42780, Note_on_c, 0, 74, 0
2, 42780, Note_on_c, 0, 71, 33
2, 42840, Note_on_c, 0, 71, 0
2, 42840, Note_on_c, 0, 75, 33
2, 42900, Note_on_c, 0, 75, 0
2, 42900, Note_on_c, 0, 72, 32
2, 42960, Note_on_c, 0, 72, 0
2, 42960, Note_on_c, 0, 68, 32
2, 43020, Note_on_c, 0, 68, 0
2, 43020, Note_on_c, 0, 65, 31
2, 43080, Note_on_c, 0, 65, 0
2, 43080, Note_on_c, 0, 69, 30
2, 43140, Note_on_c, 0, 69, 0
2, 43140, Note_on_c, 0, 78, 30
2, 43179, Note_on_c, 0, 78, 0
2, 43200, Note_on_c, 0, 62, 36
2, 43200, Note_on_c, 0, 65, 36
2, 43260, Note_on_c, 0, 65, 0
2, 43260, Note_on_c, 0, 62, 0
2, 43320, Note_on_c, 0, 89, 41
2, 43380, Note_on_c, 0, 89, 0
2, 43380, Note_on_c, 0, 86, 41
2, 43440, Note_on_c, 0, 86, 0
2, 43440, Note_on_c, 0, 82, 39
2, 43500, Note_on_c, 0, 82, 0
2, 43500, Note_on_c, 0, 79, 39
2, 43560, Note_on_c, 0, 79, 0
2, 43560, Note_on_c, 0, 83, 38
2, 43620, Note_on_c, 0, 83, 0
2, 43620, Note_on_c, 0, 80, 37
2, 43680, Note_on_c, 0, 80, 0
2, 43680, Note_on_c, 0, 76, 37
2, 43740, Note_on_c, 0, 76, 0
2, 43740, Note_on_c, 0, 73, 36
2, 43800, Note_on_c, 0, 73, 0
2, 43800, Note_on_c, 0, 77, 36
2, 43860, Note_on_c, 0, 77, 0
2, 43860, Note_on_c, 0, 74, 36
2, 43920, Note_on_c, 0, 74, 0
2, 43920, Note_on_c, 0, 70, 36
2, 43980, Note_on_c, 0, 70, 0
2, 43980, Note_on_c, 0, 67, 35
2, 44040, Note_on_c, 0, 67, 0
2, 44040, Note_on_c, 0, 71, 33
2, 44100, Note_on_c, 0, 71, 0
2, 44100, Note_on_c, 0, 80, 33
2, 44160, Note_on_c, 0, 80, 0
2, 44160, Note_on_c, 0, 63, 39
2, 44160, Note_on_c, 0, 67, 39
2, 44220, Note_on_c, 0, 67, 0
2, 44220, Note_on_c, 0, 63, 0
2, 44280, Note_on_c, 0, 91, 45
2, 44340, Note_on_c, 0, 91, 0
2, 44340, Note_on_c, 0, 88, 45
2, 44400, Note_on_c, 0, 88, 0
2, 44400, Note_on_c, 0, 84, 43
2, 44460, Note_on_c, 0, 84, 0
2, 44460, Note_on_c, 0, 81, 43
2, 44520, Note_on_c, 0, 81, 0
2, 44520, Note_on_c, 0, 85, 42
2, 44580, Note_on_c, 0, 85, 0
2, 44580, Note_on_c, 0, 82, 41
2, 44640, Note_on_c, 0, 82, 0
2, 44640, Note_on_c, 0, 69, 43
2, 44640, Note_on_c, 0, 63, 43
2, 44700, Note_on_c, 0, 63, 0
2, 44700, Note_on_c, 0, 69, 0
2, 44760, Note_on_c, 0, 93, 45
2, 44820, Note_on_c, 0, 93, 0
2, 44820, Note_on_c, 0, 90, 45
2, 44880, Note_on_c, 0, 90, 0
2, 44880, Note_on_c, 0, 86, 43
2, 44940, Note_on_c, 0, 86, 0
2, 44940, Note_on_c, 0, 83, 43
2, 45000, Note_on_c, 0, 83, 0
2, 45000, Note_on_c, 0, 87, 42
2, 45060, Note_on_c, 0, 87, 0
2, 45060, Note_on_c, 0, 84, 41
2, 45120, Note_on_c, 0, 84, 0
2, 45120, Note_on_c, 0, 96, 55
2, 45180, Note_on_c, 0, 96, 0
2, 45180, Note_on_c, 0, 93, 55
2, 45240, Note_on_c, 0, 93, 0
2, 45240, Note_on_c, 0, 89, 54
2, 45300, Note_on_c, 0, 89, 0
2, 45300, Note_on_c, 0, 86, 54
2, 45360, Note_on_c, 0, 86, 0
2, 45360, Note_on_c, 0, 90, 51
2, 45420, Note_on_c, 0, 90, 0
2, 45420, Note_on_c, 0, 87, 49
2, 45480, Note_on_c, 0, 87, 0
2, 45480, Note_on_c, 0, 99, 62
2, 45540, Note_on_c, 0, 99, 0
2, 45540, Note_on_c, 0, 96, 57
2, 45600, Note_on_c, 0, 96, 0
2, 45600, Note_on_c, 0, 92, 60
2, 45660, Note_on_c, 0, 92, 0
2, 45660, Note_on_c, 0, 89, 53
2, 45720, Note_on_c, 0, 89, 0
2, 45720, Note_on_c, 0, 93, 60
2, 45780, Note_on_c, 0, 93, 0
2, 45780, Note_on_c, 0, 90, 52
2, 45840, Note_on_c, 0, 90, 0
2, 45840, Note_on_c, 0, 100, 63
2, 45900, Note_on_c, 0, 100, 0
2, 45900, Note_on_c, 0, 87, 57
2, 45960, Note_on_c, 0, 87, 0
2, 45960, Note_on_c, 0, 101, 74
2, 46020, Note_on_c, 0, 101, 0
2, 46020, Note_on_c, 0, 87, 67
2, 46080, Note_on_c, 0, 87, 0
2, 46200, Note_on_c, 0, 94, 45
2, 46200, Note_on_c, 0, 98, 45
2, 46260, Note_on_c, 0, 98, 0
2, 46260, Note_on_c, 0, 94, 0
2, 46260, Note_on_c, 0, 93, 45
2, 46320, Note_on_c, 0, 93, 0
2, 46320, Note_on_c, 0, 98, 45
2, 46320, Note_on_c, 0, 92, 45
2, 46380, Note_on_c, 0, 92, 0
2, 46380, Note_on_c, 0, 98, 0
2, 46380, Note_on_c, 0, 91, 45
2, 46440, Note_on_c, 0, 91, 0
2, 46440, Note_on_c, 0, 90, 45
2, 46440, Note_on_c, 0, 98, 45
2, 46500, Note_on_c, 0, 98, 0
2, 46500, Note_on_c, 0, 90, 0
2, 46500, Note_on_c, 0, 89, 45
2, 46560, Note_on_c, 0, 89, 0
2, 46560, Note_on_c, 0, 94, 44
2, 46560, Note_on_c, 0, 98, 44
2, 46620, Note_on_c, 0, 98, 0
2, 46620, Note_on_c, 0, 94, 0
2, 46620, Note_on_c, 0, 88, 44
2, 46680, Note_on_c, 0, 88, 0
2, 46680, Note_on_c, 0, 94, 44
2, 46680, Note_on_c, 0, 89, 44
2, 46740, Note_on_c, 0, 89, 0
2, 46740, Note_on_c, 0, 94, 0
2, 46740, Note_on_c, 0, 86, 44
2, 46800, Note_on_c, 0, 86, 0
2, 46800, Note_on_c, 0, 84, 43
2, 46800, Note_on_c, 0, 89, 43
2, 46860, Note_on_c, 0, 89, 0
2, 46860, Note_on_c, 0, 84, 0
2, 46860, Note_on_c, 0, 83, 43
2, 46920, Note_on_c, 0, 83, 0
2, 46920, Note_on_c, 0, 86, 42
2, 46920, Note_on_c, 0, 82, 42
2, 46980, Note_on_c, 0, 82, 0
2, 46980, Note_on_c, 0, 86, 0
2, 46980, Note_on_c, 0, 81, 42
2, 47040, Note_on_c, 0, 81, 0
2, 47040, Note_on_c, 0, 89, 45
2, 47040, Note_on_c, 0, 82, 45
2, 47100, Note_on_c, 0, 82, 0
2, 47100, Note_on_c, 0, 89, 0
2, 47100, Note_on_c, 0, 81, 45
2, 47160, Note_on_c, 0, 81, 0
2, 47160, Note_on_c, 0, 86, 45
2, 47160, Note_on_c, 0, 82, 45
2, 47220, Note_on_c, 0, 82, 0
2, 47220, Note_on_c, 0, 86, 0
2, 47220, Note_on_c, 0, 81, 45
2, 47280, Note_on_c, 0, 81, 0
2, 47280, Note_on_c, 0, 86, 45
2, 47280, Note_on_c, 0, 80, 45
2, 47340, Note_on_c, 0, 80, 0
2, 47340, Note_on_c, 0, 86, 0
2, 47340, Note_on_c, 0, 79, 45
2, 47400, Note_on_c, 0, 79, 0
2, 47400, Note_on_c, 0, 78, 45
2, 47400, Note_on_c, 0, 82, 45
2, 47460, Note_on_c, 0, 82, 0
2, 47460, Note_on_c, 0, 78, 0
2, 47460, Note_on_c, 0, 77, 45
2, 47520, Note_on_c, 0, 77, 0
2, 47520, Note_on_c, 0, 86, 44
2, 47520, Note_on_c, 0, 82, 44
2, 47580, Note_on_c, 0, 82, 0
2, 47580, Note_on_c, 0, 86, 0
2, 47580, Note_on_c, 0, 76, 44
2, 47640, Note_on_c, 0, 76, 0
2, 47640, Note_on_c, 0, 77, 44
2, 47640, Note_on_c, 0, 82, 44
2, 47700, Note_on_c, 0, 82, 0
2, 47700, Note_on_c, 0, 77, 0
2, 47700, Note_on_c, 0, 74, 44
2, 47760, Note_on_c, 0, 74, 0
2, 47760, Note_on_c, 0, 77, 43
2, 47760, Note_on_c, 0, 72, 43
2, 47820, Note_on_c, 0, 72, 0
2, 47820, Note_on_c, 0, 77, 0
2, 47820, Note_on_c, 0, 71, 43
2, 47880, Note_on_c, 0, 71, 0
2, 47880, Note_on_c, 0, 74, 42
2, 47880, Note_on_c, 0, 70, 42
2, 47940, Note_on_c, 0, 70, 0
2, 47940, Note_on_c, 0, 74, 0
2, 47940, Note_on_c, 0, 68, 42
2, 48000, Note_on_c, 0, 68, 0
2, 48000, Note_on_c, 0, 78, 53
2, 48000, Note_on_c, 0, 70, 46
2, 48000, Note_on_c, 0, 66, 39
2, 48060, Note_on_c, 0, 66, 0
2, 48060, Note_on_c, 0, 70, 0
2, 48060, Note_on_c, 0, 78, 0
2, 48120, Note_on_c, 0, 90, 52
2, 48120, Note_on_c, 0, 87, 52
2, 48180, Note_on_c, 0, 87, 0
2, 48180, Note_on_c, 0, 90, 0
2, 48180, Note_on_c, 0, 86, 52
2, 48240, Note_on_c, 0, 86, 0
2, 48240, Note_on_c, 0, 85, 51
2, 48240, Note_on_c, 0, 90, 51
2, 48300, Note_on_c, 0, 90, 0
2, 48300, Note_on_c, 0, 85, 0
2, 48300, Note_on_c, 0, 84, 52
2, 48360, Note_on_c, 0, 84, 0
2, 48360, Note_on_c, 0, 87, 50
2, 48360, Note_on_c, 0, 90, 50
2, 48420, Note_on_c, 0, 90, 0
2, 48420, Note_on_c, 0, 87, 0
2, 48420, Note_on_c, 0, 83, 51
2, 48480, Note_on_c, 0, 83, 0
2, 48480, Note_on_c, 0, 82, 50
2, 48480, Note_on_c, 0, 90, 50
2, 48540, Note_on_c, 0, 90, 0
2, 48540, Note_on_c, 0, 82, 0
2, 48540, Note_on_c, 0, 81, 50
2, 48600, Note_on_c, 0, 81, 0
2, 48600, Note_on_c, 0, 80, 50
2, 48600, Note_on_c, 0, 87, 50
2, 48660, Note_on_c, 0, 87, 0
2, 48660, Note_on_c, 0, 80, 0
2, 48660, Note_on_c, 0, 79, 51
2, 48720, Note_on_c, 0, 79, 0
2, 48720, Note_on_c, 0, 87, 50
2, 48720, Note_on_c, 0, 78, 50
2, 48780, Note_on_c, 0, 78, 0
2, 48780, Note_on_c, 0, 87, 0
2, 48780, Note_on_c, 0, 77, 50
2, 48840, Note_on_c, 0, 77, 0
2, 48840, Note_on_c, 0, 82, 49
2, 48840, Note_on_c, 0, 78, 49
2, 48900, Note_on_c, 0, 78, 0
2, 48900, Note_on_c, 0, 82, 0
2, 48900, Note_on_c, 0, 76, 50
2, 48960, Note_on_c, 0, 76, 0
2, 48960, Note_on_c, 0, 87, 55
2, 48960, Note_on_c, 0, 78, 55
2, 49020, Note_on_c, 0, 78, 0
2, 49020, Note_on_c, 0, 87, 0
2, 49020, Note_on_c, 0, 75, 55
2, 49080, Note_on_c, 0, 75, 0
2, 49080, Note_on_c, 0, 75, 56
2, 49080, Note_on_c, 0, 82, 56
2, 49140, Note_on_c, 0, 82, 0
2, 49140, Note_on_c, 0, 75, 0
2, 49140, Note_on_c, 0, 74, 56
2, 49200, Note_on_c, 0, 74, 0
2, 49200, Note_on_c, 0, 73, 55
2, 49200, Note_on_c, 0, 78, 55
2, 49260, Note_on_c, 0, 78, 0
2, 49260, Note_on_c, 0, 73, 0
2, 49260, Note_on_c, 0, 72, 55
2, 49320, Note_on_c, 0, 72, 0
2, 49320, Note_on_c, 0, 75, 54
2, 49320, Note_on_c, 0, 78, 54
2, 49380, Note_on_c, 0, 78, 0
2, 49380, Note_on_c, 0, 75, 0
2, 49380, Note_on_c, 0, 71, 54
2, 49440, Note_on_c, 0, 71, 0
2, 49440, Note_on_c, 0, 78, 54
2, 49440, Note_on_c, 0, 75, 54
2, 49500, Note_on_c, 0, 75, 0
2, 49500, Note_on_c, 0, 78, 0
2, 49500, Note_on_c, 0, 70, 54
2, 49560, Note_on_c, 0, 70, 0
2, 49560, Note_on_c, 0, 78, 54
2, 49560, Note_on_c, 0, 75, 54
2, 49620, Note_on_c, 0, 75, 0
2, 49620, Note_on_c, 0, 78, 0
2, 49620, Note_on_c, 0, 69, 54
2, 49680, Note_on_c, 0, 69, 0
2, 49680, Note_on_c, 0, 75, 54
2, 49680, Note_on_c, 0, 68, 54
2, 49740, Note_on_c, 0, 68, 0
2, 49740, Note_on_c, 0, 75, 0
2, 49740, Note_on_c, 0, 67, 54
2, 49800, Note_on_c, 0, 67, 0
2, 49800, Note_on_c, 0, 70, 53
2, 49800, Note_on_c, 0, 66, 53
2, 49860, Note_on_c, 0, 66, 0
2, 49860, Note_on_c, 0, 70, 0
2, 49860, Note_on_c, 0, 63, 53
2, 49920, Note_on_c, 0, 63, 0
2, 50040, Note_on_c, 0, 95, 31
2, 50040, Note_on_c, 0, 87, 31
2, 50100, Note_on_c, 0, 87, 0
2, 50100, Note_on_c, 0, 95, 0
2, 50100, Note_on_c, 0, 83, 36
2, 50100, Note_on_c, 0, 90, 36
2, 50160, Note_on_c, 0, 90, 0
2, 50160, Note_on_c, 0, 83, 0
2, 50280, Note_on_c, 0, 87, 32
2, 50280, Note_on_c, 0, 78, 32
2, 50340, Note_on_c, 0, 78, 0
2, 50340, Note_on_c, 0, 87, 0
2, 50340, Note_on_c, 0, 83, 36
2, 50340, Note_on_c, 0, 75, 36
2, 50400, Note_on_c, 0, 75, 0
2, 50400, Note_on_c, 0, 83, 0
2, 50520, Note_on_c, 0, 71, 31
2, 50520, Note_on_c, 0, 80, 31
2, 50580, Note_on_c, 0, 80, 0
2, 50580, Note_on_c, 0, 71, 0
2, 50580, Note_on_c, 0, 68, 36
2, 50580, Note_on_c, 0, 77, 36
2, 50640, Note_on_c, 0, 77, 0
2, 50640, Note_on_c, 0, 68, 0
2, 50700, Note_on_c, 0, 83, 32
2, 50730, Note_on_c, 0, 92, 38
2, 50760, Note_on_c, 0, 97, 45
2, 50880, Note_on_c, 0, 97, 0
2, 50880, Note_on_c, 0, 92, 0
2, 50880, Note_on_c, 0, 83, 0
2, 51000, Note_on_c, 0, 94, 31
2, 51000, Note_on_c, 0, 85, 31
2, 51060, Note_on_c, 0, 85, 0
2, 51060, Note_on_c, 0, 94, 0
2, 51060, Note_on_c, 0, 89, 36
2, 51060, Note_on_c, 0, 82, 36
2, 51120, Note_on_c, 0, 82, 0
2, 51120, Note_on_c, 0, 89, 0
2, 51240, Note_on_c, 0, 85, 32
2, 51240, Note_on_c, 0, 77, 32
2, 51300, Note_on_c, 0, 77, 0
2, 51300, Note_on_c, 0, 85, 0
2, 51300, Note_on_c, 0, 82, 36
2, 51300, Note_on_c, 0, 73, 36
2, 51360, Note_on_c, 0, 73, 0
2, 51360, Note_on_c, 0, 82, 0
2, 51480, Note_on_c, 0, 78, 31
2, 51480, Note_on_c, 0, 70, 31
2, 51540, Note_on_c, 0, 70, 0
2, 51540, Note_on_c, 0, 78, 0
2, 51540, Note_on_c, 0, 75, 36
2, 51540, Note_on_c, 0, 66, 36
2, 51600, Note_on_c, 0, 66, 0
2, 51600, Note_on_c, 0, 75, 0
2, 51660, Note_on_c, 0, 82, 32
2, 51690, Note_on_c, 0, 90, 38
2, 51720, Note_on_c, 0, 95, 45
2, 51840, Note_on_c, 0, 95, 0
2, 51840, Note_on_c, 0, 90, 0
2, 51840, Note_on_c, 0, 82, 0
2, 51960, Note_on_c, 0, 83, 31
2, 51960, Note_on_c, 0, 92, 31
2, 52020, Note_on_c, 0, 92, 0
2, 52020, Note_on_c, 0, 83, 0
2, 52020, Note_on_c, 0, 87, 36
2, 52020, Note_on_c, 0, 80, 36
2, 52080, Note_on_c, 0, 80, 0
2, 52080, Note_on_c, 0, 87, 0
2, 52200, Note_on_c, 0, 87, 32
2, 52200, Note_on_c, 0, 80, 32
2, 52260, Note_on_c, 0, 80, 0
2, 52260, Note_on_c, 0, 87, 0
2, 52260, Note_on_c, 0, 83, 36
2, 52260, Note_on_c, 0, 77, 36
2, 52320, Note_on_c, 0, 77, 0
2, 52320, Note_on_c, 0, 83, 0
2, 52440, Note_on_c, 0, 80, 31
2, 52440, Note_on_c, 0, 74, 31
2, 52500, Note_on_c, 0, 74, 0
2, 52500, Note_on_c, 0, 76, 36
2, 52560, Note_on_c, 0, 76, 0
2, 52560, Note_on_c, 0, 80, 0
2, 52560, Note_on_c, 0, 77, 31
2, 52680, Note_on_c, 0, 77, 0
2, 52680, Note_on_c, 0, 80, 38
2, 52680, Note_on_c, 0, 94, 45
2, 52800, Note_on_c, 0, 94, 0
2, 52800, Note_on_c, 0, 80, 0
2, 52920, Note_on_c, 0, 90, 32
2, 52920, Note_on_c, 0, 82, 32
2, 52980, Note_on_c, 0, 82, 0
2, 52980, Note_on_c, 0, 90, 0
2, 52980, Note_on_c, 0, 87, 36
2, 52980, Note_on_c, 0, 78, 36
2, 53040, Note_on_c, 0, 78, 0
2, 53040, Note_on_c, 0, 87, 0
2, 53160, Note_on_c, 0, 82, 32
2, 53160, Note_on_c, 0, 75, 32
2, 53220, Note_on_c, 0, 75, 0
2, 53220, Note_on_c, 0, 82, 0
2, 53220, Note_on_c, 0, 87, 36
2, 53220, Note_on_c, 0, 78, 36
2, 53280, Note_on_c, 0, 78, 0
2, 53280, Note_on_c, 0, 87, 0
2, 53280, Note_on_c, 0, 78, 45
2, 53280, Note_on_c, 0, 90, 45
2, 53340, Note_on_c, 0, 90, 0
2, 53340, Note_on_c, 0, 89, 36
2, 53400, Note_on_c, 0, 89, 0
2, 53400, Note_on_c, 0, 88, 38
2, 53460, Note_on_c, 0, 88, 0
2, 53460, Note_on_c, 0, 87, 42
2, 53520, Note_on_c, 0, 87, 0
2, 53520, Note_on_c, 0, 78, 0
2, 53520, Note_on_c, 0, 93, 48
2, 53520, Note_on_c, 0, 81, 48
2, 53580, Note_on_c, 0, 93, 0
2, 53580, Note_on_c, 0, 92, 41
2, 53640, Note_on_c, 0, 92, 0
2, 53640, Note_on_c, 0, 91, 44
2, 53700, Note_on_c, 0, 91, 0
2, 53700, Note_on_c, 0, 90, 48
2, 53760, Note_on_c, 0, 90, 0
2, 53760, Note_on_c, 0, 81, 0
2, 53760, Note_on_c, 0, 97, 63
2, 53760, Note_on_c, 0, 85, 51
2, 53820, Note_on_c, 0, 85, 0
2, 53820, Note_on_c, 0, 97, 0
2, 54000, Note_on_c, 0, 80, 29
2, 54000, Note_on_c, 0, 77, 29
2, 54000, Note_on_c, 0, 86, 33
2, 54060, Note_on_c, 0, 86, 0
2, 54060, Note_on_c, 0, 83, 31
2, 54120, Note_on_c, 0, 83, 0
2, 54120, Note_on_c, 0, 77, 0
2, 54120, Note_on_c, 0, 80, 0
2, 54120, Note_on_c, 0, 79, 33
2, 54180, Note_on_c, 0, 79, 0
2, 54180, Note_on_c, 0, 76, 27
2, 54240, Note_on_c, 0, 76, 0
2, 54240, Note_on_c, 0, 80, 33
2, 54300, Note_on_c, 0, 80, 0
2, 54300, Note_on_c, 0, 77, 28
2, 54360, Note_on_c, 0, 77, 0
2, 54360, Note_on_c, 0, 85, 33
2, 54420, Note_on_c, 0, 85, 0
2, 54420, Note_on_c, 0, 82, 33
2, 54480, Note_on_c, 0, 82, 0
2, 54480, Note_on_c, 0, 86, 35
2, 54540, Note_on_c, 0, 86, 0
2, 54540, Note_on_c, 0, 83, 36
2, 54600, Note_on_c, 0, 83, 0
2, 54600, Note_on_c, 0, 91, 37
2, 54660, Note_on_c, 0, 91, 0
2, 54660, Note_on_c, 0, 88, 38
2, 54720, Note_on_c, 0, 88, 0
2, 54720, Note_on_c, 0, 92, 39
2, 54780, Note_on_c, 0, 92, 0
2, 54780, Note_on_c, 0, 89, 37
2, 54840, Note_on_c, 0, 89, 0
2, 54840, Note_on_c, 0, 98, 48
2, 54900, Note_on_c, 0, 98, 0
2, 54900, Note_on_c, 0, 89, 36
2, 54900, Note_on_c, 0, 86, 36
2, 54960, Note_on_c, 0, 86, 0
2, 54960, Note_on_c, 0, 89, 0
2, 54960, Note_on_c, 0, 97, 45
2, 55020, Note_on_c, 0, 97, 0
2, 55020, Note_on_c, 0, 89, 36
2, 55020, Note_on_c, 0, 85, 36
2, 55080, Note_on_c, 0, 85, 0
2, 55080, Note_on_c, 0, 89, 0
2, 55080, Note_on_c, 0, 95, 48
2, 55140, Note_on_c, 0, 95, 0
2, 55140, Note_on_c, 0, 83, 39
2, 55140, Note_on_c, 0, 89, 39
2, 55200, Note_on_c, 0, 89, 0
2, 55200, Note_on_c, 0, 83, 0
2, 55200, Note_on_c, 0, 94, 46
2, 55260, Note_on_c, 0, 94, 0
2, 55260, Note_on_c, 0, 82, 36
2, 55260, Note_on_c, 0, 85, 36
2, 55320, Note_on_c, 0, 85, 0
2, 55320, Note_on_c, 0, 82, 0
2, 55320, Note_on_c, 0, 93, 45
2, 55380, Note_on_c, 0, 93, 0
2, 55380, Note_on_c, 0, 84, 39
2, 55380, Note_on_c, 0, 81, 39
2, 55440, Note_on_c, 0, 81, 0
2, 55440, Note_on_c, 0, 84, 0
2, 55440, Note_on_c, 0, 92, 48
2, 55500, Note_on_c, 0, 92, 0
2, 55500, Note_on_c, 0, 84, 38
2, 55500, Note_on_c, 0, 80, 38
2, 55560, Note_on_c, 0, 80, 0
2, 55560, Note_on_c, 0, 84, 0
2, 55560, Note_on_c, 0, 90, 46
2, 55620, Note_on_c, 0, 90, 0
2, 55620, Note_on_c, 0, 84, 39
2, 55620, Note_on_c, 0, 78, 39
2, 55680, Note_on_c, 0, 78, 0
2, 55680, Note_on_c, 0, 84, 0
2, 55680, Note_on_c, 0, 77, 50
2, 55680, Note_on_c, 0, 89, 50
2, 55680, Note_on_c, 0, 85, 50
2, 55800, Note_on_c, 0, 85, 0
2, 55800, Note_on_c, 0, 89, 0
2, 55800, Note_on_c, 0, 77, 0
2, 55920, Note_on_c, 0, 68, 28
2, 55920, Note_on_c, 0, 65, 28
2, 55920, Note_on_c, 0, 74, 33
2, 55980, Note_on_c, 0, 74, 0
2, 55980, Note_on_c, 0, 71, 31
2, 56040, Note_on_c, 0, 71, 0
2, 56040, Note_on_c, 0, 67, 33
2, 56100, Note_on_c, 0, 67, 0
2, 56100, Note_on_c, 0, 64, 27
2, 56160, Note_on_c, 0, 64, 0
2, 56160, Note_on_c, 0, 65, 0
2, 56160, Note_on_c, 0, 68, 0
2, 56160, Note_on_c, 0, 68, 33
2, 56220, Note_on_c, 0, 68, 0
2, 56220, Note_on_c, 0, 65, 28
2, 56280, Note_on_c, 0, 65, 0
2, 56280, Note_on_c, 0, 73, 33
2, 56340, Note_on_c, 0, 73, 0
2, 56340, Note_on_c, 0, 70, 33
2, 56400, Note_on_c, 0, 70, 0
2, 56400, Note_on_c, 0, 74, 35
2, 56460, Note_on_c, 0, 74, 0
2, 56460, Note_on_c, 0, 71, 36
2, 56520, Note_on_c, 0, 71, 0
2, 56520, Note_on_c, 0, 79, 37
2, 56580, Note_on_c, 0, 79, 0
2, 56580, Note_on_c, 0, 76, 38
2, 56640, Note_on_c, 0, 76, 0
2, 56640, Note_on_c, 0, 80, 39
2, 56700, Note_on_c, 0, 80, 0
2, 56700, Note_on_c, 0, 77, 37
2, 56760, Note_on_c, 0, 77, 0
2, 56760, Note_on_c, 0, 86, 48
2, 56820, Note_on_c, 0, 86, 0
2, 56820, Note_on_c, 0, 74, 36
2, 56820, Note_on_c, 0, 77, 36
2, 56880, Note_on_c, 0, 77, 0
2, 56880, Note_on_c, 0, 74, 0
2, 56880, Note_on_c, 0, 85, 45
2, 56940, Note_on_c, 0, 85, 0
2, 56940, Note_on_c, 0, 73, 36
2, 56940, Note_on_c, 0, 77, 36
2, 57000, Note_on_c, 0, 77, 0
2, 57000, Note_on_c, 0, 73, 0
2, 57000, Note_on_c, 0, 83, 48
2, 57060, Note_on_c, 0, 83, 0
2, 57060, Note_on_c, 0, 77, 39
2, 57060, Note_on_c, 0, 71, 39
2, 57120, Note_on_c, 0, 71, 0
2, 57120, Note_on_c, 0, 77, 0
2, 57120, Note_on_c, 0, 82, 46
2, 57180, Note_on_c, 0, 82, 0
2, 57180, Note_on_c, 0, 73, 36
2, 57180, Note_on_c, 0, 70, 36
2, 57240, Note_on_c, 0, 70, 0
2, 57240, Note_on_c, 0, 73, 0
2, 57240, Note_on_c, 0, 81, 45
2, 57300, Note_on_c, 0, 81, 0
2, 57300, Note_on_c, 0, 69, 39
2, 57300, Note_on_c, 0, 72, 39
2, 57360, Note_on_c, 0, 72, 0
2, 57360, Note_on_c, 0, 69, 0
2, 57360, Note_on_c, 0, 80, 48
2, 57420, Note_on_c, 0, 80, 0
2, 57420, Note_on_c, 0, 68, 38
2, 57420, Note_on_c, 0, 72, 38
2, 57480, Note_on_c, 0, 72, 0
2, 57480, Note_on_c, 0, 68, 0
2, 57480, Note_on_c, 0, 78, 46
2, 57540, Note_on_c, 0, 78, 0
2, 57540, Note_on_c, 0, 66, 39
2, 57540, Note_on_c, 0, 72, 39
2, 57600, Note_on_c, 0, 72, 0
2, 57600, Note_on_c, 0, 66, 0
2, 57600, Note_on_c, 0, 77, 46
2, 57660, Note_on_c, 0, 77, 0
2, 57660, Note_on_c, 0, 65, 38
2, 57660, Note_on_c, 0, 68, 38
2, 57720, Note_on_c, 0, 68, 0
2, 57720, Note_on_c, 0, 65, 0
2, 57720, Note_on_c, 0, 74, 46
2, 57780, Note_on_c, 0, 74, 0
2, 57780, Note_on_c, 0, 62, 38
2, 57780, Note_on_c, 0, 65, 38
2, 57840, Note_on_c, 0, 65, 0
2, 57840, Note_on_c, 0, 62, 0
2, 57840, Note_on_c, 0, 73, 48
2, 57900, Note_on_c, 0, 73, 0
2, 57900, Note_on_c, 0, 61, 39
2, 57900, Note_on_c, 0, 65, 39
2, 57960, Note_on_c, 0, 65, 0
2, 57960, Note_on_c, 0, 61, 0
2, 57960, Note_on_c, 0, 71, 49
2, 58020, Note_on_c, 0, 71, 0
2, 58020, Note_on_c, 0, 59, 41
2, 58020, Note_on_c, 0, 65, 41
2, 58080, Note_on_c, 0, 65, 0
2, 58080, Note_on_c, 0, 59, 0
2, 58080, Note_on_c, 0, 70, 50
2, 58140, Note_on_c, 0, 70, 0
2, 58140, Note_on_c, 0, 61, 42
2, 58140, Note_on_c, 0, 58, 42
2, 58200, Note_on_c, 0, 58, 0
2, 58200, Note_on_c, 0, 61, 0
2, 58200, Note_on_c, 0, 69, 51
2, 58260, Note_on_c, 0, 69, 0
2, 58260, Note_on_c, 0, 57, 42
2, 58260, Note_on_c, 0, 60, 42
2, 58320, Note_on_c, 0, 60, 0
2, 58320, Note_on_c, 0, 57, 0
2, 58320, Note_on_c, 0, 68, 52
2, 58380, Note_on_c, 0, 68, 0
2, 58380, Note_on_c, 0, 56, 43
2, 58380, Note_on_c, 0, 60, 43
2, 58440, Note_on_c, 0, 60, 0
2, 58440, Note_on_c, 0, 56, 0
2, 58440, Note_on_c, 0, 66, 52
2, 58500, Note_on_c, 0, 66, 0
2, 58500, Note_on_c, 0, 54, 44
2, 58500, Note_on_c, 0, 60, 44
2, 58560, Note_on_c, 0, 60, 0
2, 58560, Note_on_c, 0, 54, 0
2, 58560, Note_on_c, 0, 65, 59
2, 58560, Note_on_c, 0, 56, 59
2, 58680, Note_on_c, 0, 56, 0
2, 58680, Note_on_c, 0, 65, 0
2, 58680, Note_on_c, 0, 62, 83
2, 58680, Note_on_c, 0, 56, 71
2, 58680, Note_on_c, 0, 53, 71
2, 58740, Note_on_c, 0, 53, 0
2, 58740, Note_on_c, 0, 56, 0
2, 58740, Note_on_c, 0, 62, 0
2, 58800, Note_on_c, 0, 56, 65
2, 58800, Note_on_c, 0, 61, 77
2, 58800, Note_on_c, 0, 53, 65
2, 58860, Note_on_c, 0, 53, 0
2, 58860, Note_on_c, 0, 61, 0
2, 58860, Note_on_c, 0, 56, 0
2, 58920, Note_on_c, 0, 60, 77
2, 58920, Note_on_c, 0, 53, 65
2, 58920, Note_on_c, 0, 56, 65
2, 58980, Note_on_c, 0, 56, 0
2, 58980, Note_on_c, 0, 53, 0
2, 58980, Note_on_c, 0, 60, 0
2, 59040, Note_on_c, 0, 53, 71
2, 59040, Note_on_c, 0, 56, 71
2, 59040, Note_on_c, 0, 59, 83
2, 59100, Note_on_c, 0, 59, 0
2, 59100, Note_on_c, 0, 56, 0
2, 59100, Note_on_c, 0, 53, 0
2, 59160, Note_on_c, 0, 56, 65
2, 59160, Note_on_c, 0, 62, 77
2, 59160, Note_on_c, 0, 53, 65
2, 59220, Note_on_c, 0, 53, 0
2, 59220, Note_on_c, 0, 62, 0
2, 59220, Note_on_c, 0, 56, 0
2, 59280, Note_on_c, 0, 61, 83
2, 59280, Note_on_c, 0, 56, 71
2, 59280, Note_on_c, 0, 53, 71
2, 59340, Note_on_c, 0, 61, 0
2, 59340, Note_on_c, 0, 60, 75
2, 59400, Note_on_c, 0, 60, 0
2, 59400, Note_on_c, 0, 53, 0
2, 59400, Note_on_c, 0, 56, 0
2, 59400, Note_on_c, 0, 59, 75
2, 59520, Note_on_c, 0, 59, 0
2, 59640, Note_on_c, 0, 68, 33
2, 59640, Note_on_c, 0, 65, 33
2, 59640, Note_on_c, 0, 74, 39
2, 59700, Note_on_c, 0, 74, 0
2, 59700, Note_on_c, 0, 65, 0
2, 59700, Note_on_c, 0, 68, 0
2, 59760, Note_on_c, 0, 65, 30
2, 59760, Note_on_c, 0, 68, 30
2, 59760, Note_on_c, 0, 73, 36
2, 59820, Note_on_c, 0, 73, 0
2, 59820, Note_on_c, 0, 68, 0
2, 59820, Note_on_c, 0, 65, 0
2, 59880, Note_on_c, 0, 65, 30
2, 59880, Note_on_c, 0, 72, 36
2, 59880, Note_on_c, 0, 68, 30
2, 59940, Note_on_c, 0, 68, 0
2, 59940, Note_on_c, 0, 72, 0
2, 59940, Note_on_c, 0, 65, 0
2, 60000, Note_on_c, 0, 65, 33
2, 60000, Note_on_c, 0, 68, 33
2, 60000, Note_on_c, 0, 71, 39
2, 60060, Note_on_c, 0, 71, 0
2, 60060, Note_on_c, 0, 68, 0
2, 60060, Note_on_c, 0, 65, 0
2, 60120, Note_on_c, 0, 68, 30
2, 60120, Note_on_c, 0, 65, 30
2, 60120, Note_on_c, 0, 74, 36
2, 60180, Note_on_c, 0, 74, 0
2, 60180, Note_on_c, 0, 65, 0
2, 60180, Note_on_c, 0, 68, 0
2, 60240, Note_on_c, 0, 73, 39
2, 60240, Note_on_c, 0, 65, 33
2, 60240, Note_on_c, 0, 68, 33
2, 60300, Note_on_c, 0, 73, 0
2, 60300, Note_on_c, 0, 72, 36
2, 60360, Note_on_c, 0, 72, 0
2, 60360, Note_on_c, 0, 68, 0
2, 60360, Note_on_c, 0, 65, 0
2, 60360, Note_on_c, 0, 71, 36
2, 60480, Note_on_c, 0, 71, 0
2, 60600, Note_on_c, 0, 65, 71
2, 60600, Note_on_c, 0, 56, 71
2, 60600, Note_on_c, 0, 62, 83
2, 60660, Note_on_c, 0, 62, 0
2, 60660, Note_on_c, 0, 56, 0
2, 60660, Note_on_c, 0, 65, 0
2, 60720, Note_on_c, 0, 65, 65
2, 60720, Note_on_c, 0, 61, 77
2, 60720, Note_on_c, 0, 56, 65
2, 60780, Note_on_c, 0, 56, 0
2, 60780, Note_on_c, 0, 61, 0
2, 60780, Note_on_c, 0, 65, 0
2, 60840, Note_on_c, 0, 56, 65
2, 60840, Note_on_c, 0, 65, 65
2, 60840, Note_on_c, 0, 60, 77
2, 60900, Note_on_c, 0, 60, 0
2, 60900, Note_on_c, 0, 65, 0
2, 60900, Note_on_c, 0, 56, 0
2, 60960, Note_on_c, 0, 65, 71
2, 60960, Note_on_c, 0, 56, 71
2, 60960, Note_on_c, 0, 59, 83
2, 61020, Note_on_c, 0, 59, 0
2, 61020, Note_on_c, 0, 56, 0
2, 61020, Note_on_c, 0, 65, 0
2, 61080, Note_on_c, 0, 62, 77
2, 61080, Note_on_c, 0, 65, 65
2, 61080, Note_on_c, 0, 56, 65
2, 61140, Note_on_c, 0, 56, 0
2, 61140, Note_on_c, 0, 65, 0
2, 61140, Note_on_c, 0, 62, 0
2, 61200, Note_on_c, 0, 61, 83
2, 61200, Note_on_c, 0, 56, 71
2, 61200, Note_on_c, 0, 65, 71
2, 61260, Note_on_c, 0, 61, 0
2, 61260, Note_on_c, 0, 60, 75
2, 61320, Note_on_c, 0, 60, 0
2, 61320, Note_on_c, 0, 65, 0
2, 61320, Note_on_c, 0, 56, 0
2, 61320, Note_on_c, 0, 59, 75
2, 61440, Note_on_c, 0, 59, 0
2, 61560, Note_on_c, 0, 77, 33
2, 61560, Note_on_c, 0, 74, 39
2, 61560, Note_on_c, 0, 68, 33
2, 61620, Note_on_c, 0, 68, 0
2, 61620, Note_on_c, 0, 74, 0
2, 61620, Note_on_c, 0, 77, 0
2, 61680, Note_on_c, 0, 68, 30
2, 61680, Note_on_c, 0, 73, 36
2, 61680, Note_on_c, 0, 77, 30
2, 61740, Note_on_c, 0, 77, 0
2, 61740, Note_on_c, 0, 73, 0
2, 61740, Note_on_c, 0, 68, 0
2, 61800, Note_on_c, 0, 68, 30
2, 61800, Note_on_c, 0, 72, 36
2, 61800, Note_on_c, 0, 77, 30
2, 61860, Note_on_c, 0, 77, 0
2, 61860, Note_on_c, 0, 72, 0
2, 61860, Note_on_c, 0, 68, 0
2, 61920, Note_on_c, 0, 77, 33
2, 61920, Note_on_c, 0, 71, 39
2, 61920, Note_on_c, 0, 68, 33
2, 61980, Note_on_c, 0, 68, 0
2, 61980, Note_on_c, 0, 71, 0
2, 61980, Note_on_c, 0, 77, 0
2, 62040, Note_on_c, 0, 68, 30
2, 62040, Note_on_c, 0, 77, 30
2, 62040, Note_on_c, 0, 74, 36
2, 62100, Note_on_c, 0, 74, 0
2, 62100, Note_on_c, 0, 77, 0
2, 62100, Note_on_c, 0, 68, 0
2, 62160, Note_on_c, 0, 77, 33
2, 62160, Note_on_c, 0, 73, 39
2, 62160, Note_on_c, 0, 68, 33
2, 62220, Note_on_c, 0, 73, 0
2, 62220, Note_on_c, 0, 72, 36
2, 62280, Note_on_c, 0, 72, 0
2, 62280, Note_on_c, 0, 68, 0
2, 62280, Note_on_c, 0, 77, 0
2, 62280, Note_on_c, 0, 71, 36
2, 62400, Note_on_c, 0, 71, 0
2, 62520, Note_on_c, 0, 71, 33
2, 62520, Note_on_c, 0, 77, 39
2, 62520, Note_on_c, 0, 80, 33
2, 62580, Note_on_c, 0, 80, 0
2, 62580, Note_on_c, 0, 77, 0
2, 62580, Note_on_c, 0, 71, 0
2, 62640, Note_on_c, 0, 76, 36
2, 62640, Note_on_c, 0, 71, 30
2, 62640, Note_on_c, 0, 80, 30
2, 62700, Note_on_c, 0, 80, 0
2, 62700, Note_on_c, 0, 71, 0
2, 62700, Note_on_c, 0, 76, 0
2, 62760, Note_on_c, 0, 80, 30
2, 62760, Note_on_c, 0, 75, 36
2, 62760, Note_on_c, 0, 71, 30
2, 62820, Note_on_c, 0, 71, 0
2, 62820, Note_on_c, 0, 75, 0
2, 62820, Note_on_c, 0, 80, 0
2, 62880, Note_on_c, 0, 74, 39
2, 62880, Note_on_c, 0, 80, 33
2, 62880, Note_on_c, 0, 71, 33
2, 62940, Note_on_c, 0, 71, 0
2, 62940, Note_on_c, 0, 80, 0
2, 62940, Note_on_c, 0, 74, 0
2, 63000, Note_on_c, 0, 80, 36
2, 63000, Note_on_c, 0, 74, 30
2, 63000, Note_on_c, 0, 83, 30
2, 63060, Note_on_c, 0, 83, 0
2, 63060, Note_on_c, 0, 74, 0
2, 63060, Note_on_c, 0, 80, 0
2, 63120, Note_on_c, 0, 79, 39
2, 63120, Note_on_c, 0, 74, 33
2, 63120, Note_on_c, 0, 83, 33
2, 63180, Note_on_c, 0, 79, 0
2, 63180, Note_on_c, 0, 78, 36
2, 63240, Note_on_c, 0, 78, 0
2, 63240, Note_on_c, 0, 83, 0
2, 63240, Note_on_c, 0, 74, 0
2, 63240, Note_on_c, 0, 77, 36
2, 63360, Note_on_c, 0, 77, 0
2, 63360, Note_on_c, 0, 77, 37
2, 63360, Note_on_c, 0, 86, 37
2, 63600, Note_on_c, 0, 86, 0
2, 63600, Note_on_c, 0, 77, 0
2, 63600, Note_on_c, 0, 89, 38
2, 63600, Note_on_c, 0, 80, 38
2, 63840, Note_on_c, 0, 80, 0
2, 63840, Note_on_c, 0, 89, 0
2, 63840, Note_on_c, 0, 83, 39
2, 63840, Note_on_c, 0, 92, 39
2, 64080, Note_on_c, 0, 92, 0
2, 64080, Note_on_c, 0, 83, 0
2, 64080, Note_on_c, 0, 86, 37
2, 64080, Note_on_c, 0, 95, 37
2, 64320, Note_on_c, 0, 95, 0
2, 64320, Note_on_c, 0, 86, 0
2, 64320, Note_on_c, 0, 89, 48
2, 64320, Note_on_c, 0, 98, 48
2, 64560, Note_on_c, 0, 98, 0
2, 64560, Note_on_c, 0, 89, 0
2, 64560, Note_on_c, 0, 98, 45
2, 64560, Note_on_c, 0, 89, 45
2, 64800, Note_on_c, 0, 89, 0
2, 64800, Note_on_c, 0, 98, 0
2, 64800, Note_on_c, 0, 98, 49
2, 64800, Note_on_c, 0, 89, 49
2, 65040, Note_on_c, 0, 89, 0
2, 65040, Note_on_c, 0, 98, 0
2, 65040, Note_on_c, 0, 89, 45
2, 65040, Note_on_c, 0, 98, 45
2, 65280, Note_on_c, 0, 98, 0
2, 65280, Note_on_c, 0, 89, 0
2, 69120, Note_on_c, 0, 77, 26
2, 69180, Note_on_c, 0, 77, 0
2, 69180, Note_on_c, 0, 78, 23
2, 69240, Note_on_c, 0, 78, 0
2, 69240, Note_on_c, 0, 77, 26
2, 69300, Note_on_c, 0, 77, 0
2, 69300, Note_on_c, 0, 78, 23
2, 69360, Note_on_c, 0, 78, 0
2, 69360, Note_on_c, 0, 70, 33
2, 69360, Note_on_c, 0, 76, 26
2, 69420, Note_on_c, 0, 76, 0
2, 69420, Note_on_c, 0, 78, 23
2, 69480, Note_on_c, 0, 78, 0
2, 69480, Note_on_c, 0, 70, 0
2, 69480, Note_on_c, 0, 76, 30
2, 69480, Note_on_c, 0, 71, 30
2, 69540, Note_on_c, 0, 76, 0
2, 69540, Note_on_c, 0, 78, 23
2, 69600, Note_on_c, 0, 78, 0
2, 69600, Note_on_c, 0, 71, 0
2, 69600, Note_on_c, 0, 76, 26
2, 69600, Note_on_c, 0, 72, 35
2, 69660, Note_on_c, 0, 76, 0
2, 69660, Note_on_c, 0, 78, 23
2, 69720, Note_on_c, 0, 78, 0
2, 69720, Note_on_c, 0, 72, 0
2, 69720, Note_on_c, 0, 76, 26
2, 69720, Note_on_c, 0, 73, 31
2, 69780, Note_on_c, 0, 76, 0
2, 69780, Note_on_c, 0, 78, 23
2, 69840, Note_on_c, 0, 78, 0
2, 69840, Note_on_c, 0, 73, 0
2, 69840, Note_on_c, 0, 73, 36
2, 69840, Note_on_c, 0, 76, 26
2, 69900, Note_on_c, 0, 76, 0
2, 69900, Note_on_c, 0, 78, 23
2, 69960, Note_on_c, 0, 78, 0
2, 69960, Note_on_c, 0, 73, 0
2, 69960, Note_on_c, 0, 76, 26
2, 69960, Note_on_c, 0, 74, 31
2, 70020, Note_on_c, 0, 76, 0
2, 70020, Note_on_c, 0, 78, 23
2, 70080, Note_on_c, 0, 78, 0
2, 70080, Note_on_c, 0, 74, 0
2, 70080, Note_on_c, 0, 73, 27
2, 70080, Note_on_c, 0, 76, 27
2, 70140, Note_on_c, 0, 76, 0
2, 70140, Note_on_c, 0, 73, 0
2, 70140, Note_on_c, 0, 78, 23
2, 70200, Note_on_c, 0, 78, 0
2, 70200, Note_on_c, 0, 76, 23
2, 70200, Note_on_c, 0, 85, 47
2, 70260, Note_on_c, 0, 85, 0
2, 70260, Note_on_c, 0, 76, 0
2, 70260, Note_on_c, 0, 78, 19
2, 70260, Note_on_c, 0, 73, 19
2, 70320, Note_on_c, 0, 73, 0
2, 70320, Note_on_c, 0, 78, 0
2, 70320, Note_on_c, 0, 76, 24
2, 70320, Note_on_c, 0, 83, 47
2, 70380, Note_on_c, 0, 83, 0
2, 70380, Note_on_c, 0, 76, 0
2, 70380, Note_on_c, 0, 78, 19
2, 70380, Note_on_c, 0, 73, 19
2, 70440, Note_on_c, 0, 73, 0
2, 70440, Note_on_c, 0, 78, 0
2, 70440, Note_on_c, 0, 76, 24
2, 70440, Note_on_c, 0, 81, 42
2, 70500, Note_on_c, 0, 81, 0
2, 70500, Note_on_c, 0, 76, 0
2, 70500, Note_on_c, 0, 78, 20
2, 70500, Note_on_c, 0, 73, 20
2, 70560, Note_on_c, 0, 73, 0
2, 70560, Note_on_c, 0, 78, 0
2, 70560, Note_on_c, 0, 74, 25
2, 70560, Note_on_c, 0, 81, 47
2, 70620, Note_on_c, 0, 81, 0
2, 70620, Note_on_c, 0, 74, 0
2, 70620, Note_on_c, 0, 71, 21
2, 70620, Note_on_c, 0, 76, 21
2, 70680, Note_on_c, 0, 76, 0
2, 70680, Note_on_c, 0, 71, 0
2, 70680, Note_on_c, 0, 74, 24
2, 70680, Note_on_c, 0, 80, 43
2, 70740, Note_on_c, 0, 80, 0
2, 70740, Note_on_c, 0, 74, 0
2, 70740, Note_on_c, 0, 76, 19
2, 70740, Note_on_c, 0, 71, 19
2, 70800, Note_on_c, 0, 71, 0
2, 70800, Note_on_c, 0, 76, 0
2, 70800, Note_on_c, 0, 74, 24
2, 70800, Note_on_c, 0, 79, 47
2, 70860, Note_on_c, 0, 79, 0
2, 70860, Note_on_c, 0, 74, 0
2, 70860, Note_on_c, 0, 71, 18
2, 70860, Note_on_c, 0, 78, 38
2, 70920, Note_on_c, 0, 78, 0
2, 70920, Note_on_c, 0, 71, 0
2, 70920, Note_on_c, 0, 77, 47
2, 70920, Note_on_c, 0, 74, 23
2, 70980, Note_on_c, 0, 74, 0
2, 70980, Note_on_c, 0, 77, 0
2, 70980, Note_on_c, 0, 71, 19
2, 71040, Note_on_c, 0, 71, 0
2, 71040, Note_on_c, 0, 73, 24
2, 71040, Note_on_c, 0, 76, 47
2, 71100, Note_on_c, 0, 76, 0
2, 71100, Note_on_c, 0, 73, 0
2, 71100, Note_on_c, 0, 69, 22
2, 71160, Note_on_c, 0, 69, 0
2, 71160, Note_on_c, 0, 73, 22
2, 71220, Note_on_c, 0, 73, 0
2, 71220, Note_on_c, 0, 78, 22
2, 71280, Note_on_c, 0, 78, 0
2, 71280, Note_on_c, 0, 70, 33
2, 71280, Note_on_c, 0, 76, 26
2, 71340, Note_on_c, 0, 76, 0
2, 71340, Note_on_c, 0, 78, 23
2, 71400, Note_on_c, 0, 78, 0
2, 71400, Note_on_c, 0, 70, 0
2, 71400, Note_on_c, 0, 71, 30
2, 71400, Note_on_c, 0, 76, 30
2, 71460, Note_on_c, 0, 76, 0
2, 71460, Note_on_c, 0, 78, 23
2, 71520, Note_on_c, 0, 78, 0
2, 71520, Note_on_c, 0, 71, 0
2, 71520, Note_on_c, 0, 76, 26
2, 71520, Note_on_c, 0, 72, 35
2, 71580, Note_on_c, 0, 76, 0
2, 71580, Note_on_c, 0, 78, 23
2, 71640, Note_on_c, 0, 78, 0
2, 71640, Note_on_c, 0, 72, 0
2, 71640, Note_on_c, 0, 76, 26
2, 71640, Note_on_c, 0, 73, 31
2, 71700, Note_on_c, 0, 76, 0
2, 71700, Note_on_c, 0, 78, 23
2, 71760, Note_on_c, 0, 78, 0
2, 71760, Note_on_c, 0, 73, 0
2, 71760, Note_on_c, 0, 73, 36
2, 71760, Note_on_c, 0, 76, 26
2, 71820, Note_on_c, 0, 76, 0
2, 71820, Note_on_c, 0, 78, 23
2, 71880, Note_on_c, 0, 78, 0
2, 71880, Note_on_c, 0, 73, 0
2, 71880, Note_on_c, 0, 74, 31
2, 71880, Note_on_c, 0, 76, 26
2, 71940, Note_on_c, 0, 76, 0
2, 71940, Note_on_c, 0, 78, 23
2, 72000, Note_on_c, 0, 78, 0
2, 72000, Note_on_c, 0, 74, 0
2, 72000, Note_on_c, 0, 73, 27
2, 72000, Note_on_c, 0, 76, 27
2, 72060, Note_on_c, 0, 76, 0
2, 72060, Note_on_c, 0, 73, 0
2, 72060, Note_on_c, 0, 78, 23
2, 72120, Note_on_c, 0, 78, 0
2, 72120, Note_on_c, 0, 85, 51
2, 72120, Note_on_c, 0, 76, 23
2, 72180, Note_on_c, 0, 76, 0
2, 72180, Note_on_c, 0, 85, 0
2, 72180, Note_on_c, 0, 78, 19
2, 72180, Note_on_c, 0, 73, 19
2, 72240, Note_on_c, 0, 73, 0
2, 72240, Note_on_c, 0, 78, 0
2, 72240, Note_on_c, 0, 76, 24
2, 72240, Note_on_c, 0, 83, 51
2, 72300, Note_on_c, 0, 83, 0
2, 72300, Note_on_c, 0, 76, 0
2, 72300, Note_on_c, 0, 78, 19
2, 72300, Note_on_c, 0, 73, 19
2, 72360, Note_on_c, 0, 73, 0
2, 72360, Note_on_c, 0, 78, 0
2, 72360, Note_on_c, 0, 76, 24
2, 72360, Note_on_c, 0, 81, 49
2, 72420, Note_on_c, 0, 81, 0
2, 72420, Note_on_c, 0, 76, 0
2, 72420, Note_on_c, 0, 73, 20
2, 72420, Note_on_c, 0, 78, 20
2, 72480, Note_on_c, 0, 78, 0
2, 72480, Note_on_c, 0, 73, 0
2, 72480, Note_on_c, 0, 74, 25
2, 72480, Note_on_c, 0, 81, 51
2, 72540, Note_on_c, 0, 81, 0
2, 72540, Note_on_c, 0, 74, 0
2, 72540, Note_on_c, 0, 71, 21
2, 72540, Note_on_c, 0, 76, 21
2, 72600, Note_on_c, 0, 76, 0
2, 72600, Note_on_c, 0, 71, 0
2, 72600, Note_on_c, 0, 74, 24
2, 72600, Note_on_c, 0, 80, 49
2, 72660, Note_on_c, 0, 80, 0
2, 72660, Note_on_c, 0, 74, 0
2, 72660, Note_on_c, 0, 76, 19
2, 72660, Note_on_c, 0, 71, 19
2, 72720, Note_on_c, 0, 71, 0
2, 72720, Note_on_c, 0, 76, 0
2, 72720, Note_on_c, 0, 74, 24
2, 72720, Note_on_c, 0, 79, 51
2, 72780, Note_on_c, 0, 79, 0
2, 72780, Note_on_c, 0, 74, 0
2, 72780, Note_on_c, 0, 71, 18
2, 72780, Note_on_c, 0, 78, 32
2, 72840, Note_on_c, 0, 78, 0
2, 72840, Note_on_c, 0, 71, 0
2, 72840, Note_on_c, 0, 77, 51
2, 72840, Note_on_c, 0, 74, 23
2, 72900, Note_on_c, 0, 74, 0
2, 72900, Note_on_c, 0, 77, 0
2, 72900, Note_on_c, 0, 71, 23
2, 72960, Note_on_c, 0, 71, 0
2, 72960, Note_on_c, 0, 76, 51
2, 72960, Note_on_c, 0, 73, 29
2, 73020, Note_on_c, 0, 73, 0
2, 73020, Note_on_c, 0, 76, 0
2, 73020, Note_on_c, 0, 69, 22
2, 73080, Note_on_c, 0, 69, 0
2, 73080, Note_on_c, 0, 73, 22
2, 73140, Note_on_c, 0, 73, 0
2, 73140, Note_on_c, 0, 80, 22
2, 73200, Note_on_c, 0, 80, 0
2, 73200, Note_on_c, 0, 81, 26
2, 73200, Note_on_c, 0, 75, 33
2, 73260, Note_on_c, 0, 81, 0
2, 73260, Note_on_c, 0, 82, 23
2, 73320, Note_on_c, 0, 82, 0
2, 73320, Note_on_c, 0, 75, 0
2, 73320, Note_on_c, 0, 76, 30
2, 73320, Note_on_c, 0, 81, 30
2, 73380, Note_on_c, 0, 81, 0
2, 73380, Note_on_c, 0, 82, 23
2, 73440, Note_on_c, 0, 82, 0
2, 73440, Note_on_c, 0, 76, 0
2, 73440, Note_on_c, 0, 81, 26
2, 73440, Note_on_c, 0, 76, 35
2, 73500, Note_on_c, 0, 81, 0
2, 73500, Note_on_c, 0, 82, 23
2, 73560, Note_on_c, 0, 82, 0
2, 73560, Note_on_c, 0, 76, 0
2, 73560, Note_on_c, 0, 77, 31
2, 73560, Note_on_c, 0, 81, 26
2, 73620, Note_on_c, 0, 81, 0
2, 73620, Note_on_c, 0, 82, 23
2, 73680, Note_on_c, 0, 82, 0
2, 73680, Note_on_c, 0, 77, 0
2, 73680, Note_on_c, 0, 81, 26
2, 73680, Note_on_c, 0, 78, 36
2, 73740, Note_on_c, 0, 81, 0
2, 73740, Note_on_c, 0, 82, 23
2, 73800, Note_on_c, 0, 82, 0
2, 73800, Note_on_c, 0, 78, 0
2, 73800, Note_on_c, 0, 79, 31
2, 73800, Note_on_c, 0, 81, 26
2, 73860, Note_on_c, 0, 81, 0
2, 73860, Note_on_c, 0, 82, 23
2, 73920, Note_on_c, 0, 82, 0
2, 73920, Note_on_c, 0, 79, 0
2, 73920, Note_on_c, 0, 81, 27
2, 73920, Note_on_c, 0, 77, 27
2, 73980, Note_on_c, 0, 77, 0
2, 73980, Note_on_c, 0, 81, 0
2, 73980, Note_on_c, 0, 82, 23
2, 74040, Note_on_c, 0, 82, 0
2, 74040, Note_on_c, 0, 89, 56
2, 74040, Note_on_c, 0, 81, 23
2, 74100, Note_on_c, 0, 81, 0
2, 74100, Note_on_c, 0, 89, 0
2, 74100, Note_on_c, 0, 82, 19
2, 74100, Note_on_c, 0, 77, 19
2, 74160, Note_on_c, 0, 77, 0
2, 74160, Note_on_c, 0, 82, 0
2, 74160, Note_on_c, 0, 88, 56
2, 74160, Note_on_c, 0, 81, 24
2, 74220, Note_on_c, 0, 81, 0
2, 74220, Note_on_c, 0, 88, 0
2, 74220, Note_on_c, 0, 77, 19
2, 74220, Note_on_c, 0, 82, 19
2, 74280, Note_on_c, 0, 82, 0
2, 74280, Note_on_c, 0, 77, 0
2, 74280, Note_on_c, 0, 81, 24
2, 74280, Note_on_c, 0, 86, 52
2, 74340, Note_on_c, 0, 86, 0
2, 74340, Note_on_c, 0, 81, 0
2, 74340, Note_on_c, 0, 82, 24
2, 74340, Note_on_c, 0, 77, 20
2, 74400, Note_on_c, 0, 77, 0
2, 74400, Note_on_c, 0, 82, 0
2, 74400, Note_on_c, 0, 86, 56
2, 74400, Note_on_c, 0, 79, 25
2, 74460, Note_on_c, 0, 79, 0
2, 74460, Note_on_c, 0, 86, 0
2, 74460, Note_on_c, 0, 81, 21
2, 74460, Note_on_c, 0, 76, 21
2, 74520, Note_on_c, 0, 76, 0
2, 74520, Note_on_c, 0, 81, 0
2, 74520, Note_on_c, 0, 85, 52
2, 74520, Note_on_c, 0, 79, 24
2, 74580, Note_on_c, 0, 79, 0
2, 74580, Note_on_c, 0, 85, 0
2, 74580, Note_on_c, 0, 76, 19
2, 74580, Note_on_c, 0, 81, 19
2, 74640, Note_on_c, 0, 81, 0
2, 74640, Note_on_c, 0, 76, 0
2, 74640, Note_on_c, 0, 79, 24
2, 74640, Note_on_c, 0, 84, 56
2, 74700, Note_on_c, 0, 84, 0
2, 74700, Note_on_c, 0, 79, 0
2, 74700, Note_on_c, 0, 83, 46
2, 74700, Note_on_c, 0, 76, 18
2, 74760, Note_on_c, 0, 76, 0
2, 74760, Note_on_c, 0, 83, 0
2, 74760, Note_on_c, 0, 82, 49
2, 74760, Note_on_c, 0, 79, 23
2, 74820, Note_on_c, 0, 79, 0
2, 74820, Note_on_c, 0, 82, 0
2, 74820, Note_on_c, 0, 76, 19
2, 74880, Note_on_c, 0, 76, 0
2, 74880, Note_on_c, 0, 77, 29
2, 74880, Note_on_c, 0, 81, 56
2, 74940, Note_on_c, 0, 81, 0
2, 74940, Note_on_c, 0, 77, 0
2, 74940, Note_on_c, 0, 74, 22
2, 75000, Note_on_c, 0, 74, 0
2, 75000, Note_on_c, 0, 77, 22
2, 75060, Note_on_c, 0, 77, 0
2, 75060, Note_on_c, 0, 82, 22
2, 75120, Note_on_c, 0, 82, 0
2, 75120, Note_on_c, 0, 75, 33
2, 75120, Note_on_c, 0, 81, 26
2, 75180, Note_on_c, 0, 81, 0
2, 75180, Note_on_c, 0, 82, 23
2, 75240, Note_on_c, 0, 82, 0
2, 75240, Note_on_c, 0, 75, 0
2, 75240, Note_on_c, 0, 81, 30
2, 75240, Note_on_c, 0, 76, 30
2, 75300, Note_on_c, 0, 81, 0
2, 75300, Note_on_c, 0, 82, 23
2, 75360, Note_on_c, 0, 82, 0
2, 75360, Note_on_c, 0, 76, 0
2, 75360, Note_on_c, 0, 76, 35
2, 75360, Note_on_c, 0, 81, 26
2, 75420, Note_on_c, 0, 81, 0
2, 75420, Note_on_c, 0, 82, 23
2, 75480, Note_on_c, 0, 82, 0
2, 75480, Note_on_c, 0, 76, 0
2, 75480, Note_on_c, 0, 77, 31
2, 75480, Note_on_c, 0, 81, 26
2, 75540, Note_on_c, 0, 81, 0
2, 75540, Note_on_c, 0, 82, 23
2, 75600, Note_on_c, 0, 82, 0
2, 75600, Note_on_c, 0, 77, 0
2, 75600, Note_on_c, 0, 78, 36
2, 75600, Note_on_c, 0, 81, 26
2, 75660, Note_on_c, 0, 81, 0
2, 75660, Note_on_c, 0, 82, 23
2, 75720, Note_on_c, 0, 82, 0
2, 75720, Note_on_c, 0, 78, 0
2, 75720, Note_on_c, 0, 81, 26
2, 75720, Note_on_c, 0, 79, 31
2, 75780, Note_on_c, 0, 81, 0
2, 75780, Note_on_c, 0, 82, 23
2, 75840, Note_on_c, 0, 82, 0
2, 75840, Note_on_c, 0, 79, 0
2, 75840, Note_on_c, 0, 77, 27
2, 75840, Note_on_c, 0, 81, 27
2, 75900, Note_on_c, 0, 81, 0
2, 75900, Note_on_c, 0, 77, 0
2, 75900, Note_on_c, 0, 82, 23
2, 75960, Note_on_c, 0, 82, 0
2, 75960, Note_on_c, 0, 89, 51
2, 75960, Note_on_c, 0, 81, 23
2, 76020, Note_on_c, 0, 81, 0
2, 76020, Note_on_c, 0, 89, 0
2, 76020, Note_on_c, 0, 82, 19
2, 76020, Note_on_c, 0, 77, 19
2, 76080, Note_on_c, 0, 77, 0
2, 76080, Note_on_c, 0, 82, 0
2, 76080, Note_on_c, 0, 81, 24
2, 76080, Note_on_c, 0, 88, 51
2, 76140, Note_on_c, 0, 88, 0
2, 76140, Note_on_c, 0, 81, 0
2, 76140, Note_on_c, 0, 82, 19
2, 76140, Note_on_c, 0, 77, 19
2, 76200, Note_on_c, 0, 77, 0
2, 76200, Note_on_c, 0, 82, 0
2, 76200, Note_on_c, 0, 86, 49
2, 76200, Note_on_c, 0, 81, 24
2, 76260, Note_on_c, 0, 81, 0
2, 76260, Note_on_c, 0, 86, 0
2, 76260, Note_on_c, 0, 82, 20
2, 76260, Note_on_c, 0, 77, 20
2, 76320, Note_on_c, 0, 77, 0
2, 76320, Note_on_c, 0, 82, 0
2, 76320, Note_on_c, 0, 86, 51
2, 76320, Note_on_c, 0, 79, 25
2, 76380, Note_on_c, 0, 79, 0
2, 76380, Note_on_c, 0, 86, 0
2, 76380, Note_on_c, 0, 76, 21
2, 76380, Note_on_c, 0, 81, 21
2, 76440, Note_on_c, 0, 81, 0
2, 76440, Note_on_c, 0, 76, 0
2, 76440, Note_on_c, 0, 85, 49
2, 76440, Note_on_c, 0, 79, 24
2, 76500, Note_on_c, 0, 79, 0
2, 76500, Note_on_c, 0, 85, 0
2, 76500, Note_on_c, 0, 76, 19
2, 76500, Note_on_c, 0, 81, 23
2, 76560, Note_on_c, 0, 81, 0
2, 76560, Note_on_c, 0, 76, 0
2, 76560, Note_on_c, 0, 79, 24
2, 76560, Note_on_c, 0, 84, 51
2, 76620, Note_on_c, 0, 84, 0
2, 76620, Note_on_c, 0, 79, 0
2, 76620, Note_on_c, 0, 83, 43
2, 76620, Note_on_c, 0, 76, 18
2, 76680, Note_on_c, 0, 76, 0
2, 76680, Note_on_c, 0, 83, 0
2, 76680, Note_on_c, 0, 82, 51
2, 76680, Note_on_c, 0, 79, 23
2, 76740, Note_on_c, 0, 79, 0
2, 76740, Note_on_c, 0, 82, 0
2, 76740, Note_on_c, 0, 76, 19
2, 76800, Note_on_c, 0, 76, 0
2, 76800, Note_on_c, 0, 77, 29
2, 76800, Note_on_c, 0, 81, 51
2, 76860, Note_on_c, 0, 81, 0
2, 76860, Note_on_c, 0, 77, 0
2, 76860, Note_on_c, 0, 74, 22
2, 76920, Note_on_c, 0, 74, 0
2, 76920, Note_on_c, 0, 77, 22
2, 76980, Note_on_c, 0, 77, 0
2, 76980, Note_on_c, 0, 86, 22
2, 77040, Note_on_c, 0, 86, 0
2, 77040, Note_on_c, 0, 89, 45
2, 77040, Note_on_c, 0, 77, 37
2, 77100, Note_on_c, 0, 77, 0
2, 77100, Note_on_c, 0, 86, 36
2, 77100, Note_on_c, 0, 84, 29
2, 77160, Note_on_c, 0, 84, 0
2, 77160, Note_on_c, 0, 86, 0
2, 77160, Note_on_c, 0, 89, 0
2, 77160, Note_on_c, 0, 89, 38
2, 77160, Note_on_c, 0, 77, 31
2, 77220, Note_on_c, 0, 77, 0
2, 77220, Note_on_c, 0, 89, 0
2, 77220, Note_on_c, 0, 84, 29
2, 77220, Note_on_c, 0, 87, 36
2, 77280, Note_on_c, 0, 87, 0
2, 77280, Note_on_c, 0, 84, 0
2, 77280, Note_on_c, 0, 87, 48
2, 77280, Note_on_c, 0, 77, 39
2, 77340, Note_on_c, 0, 77, 0
2, 77340, Note_on_c, 0, 85, 35
2, 77340, Note_on_c, 0, 82, 28
2, 77400, Note_on_c, 0, 82, 0
2, 77400, Note_on_c, 0, 85, 0
2, 77400, Note_on_c, 0, 87, 0
2, 77400, Note_on_c, 0, 87, 38
2, 77400, Note_on_c, 0, 77, 31
2, 77460, Note_on_c, 0, 77, 0
2, 77460, Note_on_c, 0, 87, 0
2, 77460, Note_on_c, 0, 82, 29
2, 77460, Note_on_c, 0, 86, 36
2, 77520, Note_on_c, 0, 86, 0
2, 77520, Note_on_c, 0, 82, 0
2, 77520, Note_on_c, 0, 86, 45
2, 77520, Note_on_c, 0, 75, 45
2, 77580, Note_on_c, 0, 75, 0
2, 77580, Note_on_c, 0, 83, 33
2, 77580, Note_on_c, 0, 81, 27
2, 77640, Note_on_c, 0, 81, 0
2, 77640, Note_on_c, 0, 83, 0
2, 77640, Note_on_c, 0, 86, 0
2, 77640, Note_on_c, 0, 75, 31
2, 77640, Note_on_c, 0, 86, 38
2, 77700, Note_on_c, 0, 86, 0
2, 77700, Note_on_c, 0, 75, 0
2, 77700, Note_on_c, 0, 81, 35
2, 77700, Note_on_c, 0, 84, 35
2, 77760, Note_on_c, 0, 84, 0
2, 77760, Note_on_c, 0, 81, 0
2, 77760, Note_on_c, 0, 84, 45
2, 77760, Note_on_c, 0, 74, 37
2, 77820, Note_on_c, 0, 74, 0
2, 77820, Note_on_c, 0, 77, 27
2, 77820, Note_on_c, 0, 81, 33
2, 77880, Note_on_c, 0, 81, 0
2, 77880, Note_on_c, 0, 77, 0
2, 77880, Note_on_c, 0, 84, 0
2, 77880, Note_on_c, 0, 84, 38
2, 77880, Note_on_c, 0, 74, 31
2, 77940, Note_on_c, 0, 74, 0
2, 77940, Note_on_c, 0, 84, 0
2, 77940, Note_on_c, 0, 77, 35
2, 77940, Note_on_c, 0, 82, 35
2, 78000, Note_on_c, 0, 82, 0
2, 78000, Note_on_c, 0, 77, 0
2, 78000, Note_on_c, 0, 72, 35
2, 78000, Note_on_c, 0, 83, 42
2, 78060, Note_on_c, 0, 72, 0
2, 78060, Note_on_c, 0, 80, 33
2, 78060, Note_on_c, 0, 78, 33
2, 78120, Note_on_c, 0, 78, 0
2, 78120, Note_on_c, 0, 80, 0
2, 78120, Note_on_c, 0, 83, 0
2, 78120, Note_on_c, 0, 72, 29
2, 78120, Note_on_c, 0, 83, 36
2, 78180, Note_on_c, 0, 83, 0
2, 78180, Note_on_c, 0, 72, 0
2, 78180, Note_on_c, 0, 78, 32
2, 78180, Note_on_c, 0, 81, 32
2, 78240, Note_on_c, 0, 81, 0
2, 78240, Note_on_c, 0, 78, 0
2, 78240, Note_on_c, 0, 81, 41
2, 78240, Note_on_c, 0, 71, 35
2, 78300, Note_on_c, 0, 71, 0
2, 78300, Note_on_c, 0, 79, 32
2, 78300, Note_on_c, 0, 76, 27
2, 78360, Note_on_c, 0, 76, 0
2, 78360, Note_on_c, 0, 79, 0
2, 78360, Note_on_c, 0, 81, 0
2, 78360, Note_on_c, 0, 71, 29
2, 78360, Note_on_c, 0, 81, 36
2, 78420, Note_on_c, 0, 81, 0
2, 78420, Note_on_c, 0, 71, 0
2, 78420, Note_on_c, 0, 80, 31
2, 78420, Note_on_c, 0, 76, 26
2, 78480, Note_on_c, 0, 76, 0
2, 78480, Note_on_c, 0, 80, 0
2, 78480, Note_on_c, 0, 69, 35
2, 78480, Note_on_c, 0, 80, 41
2, 78540, Note_on_c, 0, 69, 0
2, 78540, Note_on_c, 0, 77, 31
2, 78540, Note_on_c, 0, 75, 26
2, 78600, Note_on_c, 0, 75, 0
2, 78600, Note_on_c, 0, 77, 0
2, 78600, Note_on_c, 0, 80, 0
2, 78600, Note_on_c, 0, 69, 29
2, 78600, Note_on_c, 0, 80, 36
2, 78660, Note_on_c, 0, 80, 0
2, 78660, Note_on_c, 0, 69, 0
2, 78660, Note_on_c, 0, 78, 31
2, 78660, Note_on_c, 0, 75, 26
2, 78720, Note_on_c, 0, 75, 0
2, 78720, Note_on_c, 0, 78, 0
2, 78720, Note_on_c, 0, 78, 38
2, 78720, Note_on_c, 0, 68, 32
2, 78780, Note_on_c, 0, 68, 0
2, 78780, Note_on_c, 0, 75, 29
2, 78780, Note_on_c, 0, 71, 24
2, 78840, Note_on_c, 0, 71, 0
2, 78840, Note_on_c, 0, 75, 0
2, 78840, Note_on_c, 0, 78, 0
2, 78840, Note_on_c, 0, 68, 29
2, 78840, Note_on_c, 0, 78, 36
2, 78900, Note_on_c, 0, 78, 0
2, 78900, Note_on_c, 0, 68, 0
2, 78900, Note_on_c, 0, 76, 30
2, 78900, Note_on_c, 0, 71, 25
2, 78960, Note_on_c, 0, 71, 0
2, 78960, Note_on_c, 0, 76, 0
2, 78960, Note_on_c, 0, 72, 28
2, 78960, Note_on_c, 0, 76, 33
2, 79020, Note_on_c, 0, 76, 0
2, 79020, Note_on_c, 0, 74, 28
2, 79080, Note_on_c, 0, 74, 0
2, 79080, Note_on_c, 0, 72, 0
2, 79080, Note_on_c, 0, 76, 33
2, 79080, Note_on_c, 0, 69, 28
2, 79140, Note_on_c, 0, 76, 0
2, 79140, Note_on_c, 0, 75, 28
2, 79200, Note_on_c, 0, 75, 0
2, 79200, Note_on_c, 0, 69, 0
2, 79200, Note_on_c, 0, 74, 26
2, 79200, Note_on_c, 0, 78, 31
2, 79260, Note_on_c, 0, 78, 0
2, 79260, Note_on_c, 0, 75, 27
2, 79320, Note_on_c, 0, 75, 0
2, 79320, Note_on_c, 0, 74, 0
2, 79320, Note_on_c, 0, 71, 27
2, 79320, Note_on_c, 0, 78, 32
2, 79380, Note_on_c, 0, 78, 0
2, 79380, Note_on_c, 0, 76, 25
2, 79440, Note_on_c, 0, 76, 0
2, 79440, Note_on_c, 0, 71, 0
2, 79440, Note_on_c, 0, 76, 30
2, 79440, Note_on_c, 0, 69, 25
2, 79500, Note_on_c, 0, 69, 0
2, 79500, Note_on_c, 0, 76, 0
2, 79500, Note_on_c, 0, 74, 26
2, 79560, Note_on_c, 0, 74, 0
2, 79560, Note_on_c, 0, 76, 31
2, 79620, Note_on_c, 0, 76, 0
2, 79620, Note_on_c, 0, 75, 26
2, 79680, Note_on_c, 0, 75, 0
2, 79680, Note_on_c, 0, 78, 32
2, 79680, Note_on_c, 0, 71, 27
2, 79740, Note_on_c, 0, 71, 0
2, 79740, Note_on_c, 0, 78, 0
2, 79740, Note_on_c, 0, 76, 28
2, 79800, Note_on_c, 0, 76, 0
2, 79800, Note_on_c, 0, 78, 31
2, 79860, Note_on_c, 0, 78, 0
2, 79860, Note_on_c, 0, 77, 28
2, 79920, Note_on_c, 0, 77, 0
2, 79920, Note_on_c, 0, 76, 33
2, 79980, Note_on_c, 0, 76, 0
2, 79980, Note_on_c, 0, 78, 30
2, 80040, Note_on_c, 0, 78, 0
2, 80040, Note_on_c, 0, 76, 33
2, 80100, Note_on_c, 0, 76, 0
2, 80100, Note_on_c, 0, 90, 39
2, 80160, Note_on_c, 0, 90, 0
2, 80160, Note_on_c, 0, 88, 39
2, 80220, Note_on_c, 0, 88, 0
2, 80220, Note_on_c, 0, 78, 33
2, 80280, Note_on_c, 0, 78, 0
2, 80280, Note_on_c, 0, 76, 33
2, 80340, Note_on_c, 0, 76, 0
2, 80340, Note_on_c, 0, 66, 30
2, 80400, Note_on_c, 0, 66, 0
2, 80400, Note_on_c, 0, 64, 33
2, 80460, Note_on_c, 0, 64, 0
2, 80460, Note_on_c, 0, 66, 29
2, 80520, Note_on_c, 0, 66, 0
2, 80520, Note_on_c, 0, 64, 33
2, 80580, Note_on_c, 0, 64, 0
2, 80580, Note_on_c, 0, 78, 32
2, 80640, Note_on_c, 0, 78, 0
2, 80640, Note_on_c, 0, 76, 27
2, 80700, Note_on_c, 0, 76, 0
2, 80700, Note_on_c, 0, 78, 23
2, 80700, Note_on_c, 0, 73, 23
2, 80760, Note_on_c, 0, 73, 0
2, 80760, Note_on_c, 0, 78, 0
2, 80760, Note_on_c, 0, 85, 51
2, 80760, Note_on_c, 0, 76, 28
2, 80820, Note_on_c, 0, 76, 0
2, 80820, Note_on_c, 0, 85, 0
2, 80820, Note_on_c, 0, 73, 23
2, 80820, Note_on_c, 0, 78, 23
2, 80880, Note_on_c, 0, 78, 0
2, 80880, Note_on_c, 0, 73, 0
2, 80880, Note_on_c, 0, 83, 51
2, 80880, Note_on_c, 0, 76, 29
2, 80940, Note_on_c, 0, 76, 0
2, 80940, Note_on_c, 0, 83, 0
2, 80940, Note_on_c, 0, 73, 23
2, 80940, Note_on_c, 0, 78, 23
2, 81000, Note_on_c, 0, 78, 0
2, 81000, Note_on_c, 0, 73, 0
2, 81000, Note_on_c, 0, 81, 49
2, 81000, Note_on_c, 0, 76, 29
2, 81060, Note_on_c, 0, 76, 0
2, 81060, Note_on_c, 0, 81, 0
2, 81060, Note_on_c, 0, 73, 24
2, 81060, Note_on_c, 0, 78, 24
2, 81120, Note_on_c, 0, 78, 0
2, 81120, Note_on_c, 0, 73, 0
2, 81120, Note_on_c, 0, 81, 51
2, 81120, Note_on_c, 0, 74, 30
2, 81180, Note_on_c, 0, 74, 0
2, 81180, Note_on_c, 0, 81, 0
2, 81180, Note_on_c, 0, 71, 25
2, 81180, Note_on_c, 0, 76, 25
2, 81240, Note_on_c, 0, 76, 0
2, 81240, Note_on_c, 0, 71, 0
2, 81240, Note_on_c, 0, 74, 29
2, 81240, Note_on_c, 0, 80, 42
2, 81300, Note_on_c, 0, 80, 0
2, 81300, Note_on_c, 0, 74, 0
2, 81300, Note_on_c, 0, 71, 23
2, 81300, Note_on_c, 0, 76, 23
2, 81360, Note_on_c, 0, 76, 0
2, 81360, Note_on_c, 0, 71, 0
2, 81360, Note_on_c, 0, 79, 45
2, 81360, Note_on_c, 0, 74, 29
2, 81420, Note_on_c, 0, 74, 0
2, 81420, Note_on_c, 0, 79, 0
2, 81420, Note_on_c, 0, 71, 22
2, 81420, Note_on_c, 0, 78, 41
2, 81480, Note_on_c, 0, 78, 0
2, 81480, Note_on_c, 0, 71, 0
2, 81480, Note_on_c, 0, 77, 51
2, 81480, Note_on_c, 0, 74, 28
2, 81540, Note_on_c, 0, 74, 0
2, 81540, Note_on_c, 0, 77, 0
2, 81540, Note_on_c, 0, 71, 23
2, 81600, Note_on_c, 0, 71, 0
2, 81600, Note_on_c, 0, 76, 51
2, 81600, Note_on_c, 0, 73, 29
2, 81660, Note_on_c, 0, 73, 0
2, 81660, Note_on_c, 0, 76, 0
2, 81660, Note_on_c, 0, 69, 22
2, 81720, Note_on_c, 0, 69, 0
2, 81720, Note_on_c, 0, 73, 22
2, 81780, Note_on_c, 0, 73, 0
2, 81780, Note_on_c, 0, 78, 22
2, 81840, Note_on_c, 0, 78, 0
2, 81840, Note_on_c, 0, 76, 33
2, 81900, Note_on_c, 0, 76, 0
2, 81900, Note_on_c, 0, 78, 30
2, 81960, Note_on_c, 0, 78, 0
2, 81960, Note_on_c, 0, 76, 33
2, 82020, Note_on_c, 0, 76, 0
2, 82020, Note_on_c, 0, 90, 39
2, 82080, Note_on_c, 0, 90, 0
2, 82080, Note_on_c, 0, 88, 39
2, 82140, Note_on_c, 0, 88, 0
2, 82140, Note_on_c, 0, 78, 33
2, 82200, Note_on_c, 0, 78, 0
2, 82200, Note_on_c, 0, 76, 30
2, 82260, Note_on_c, 0, 76, 0
2, 82260, Note_on_c, 0, 66, 33
2, 82320, Note_on_c, 0, 66, 0
2, 82320, Note_on_c, 0, 64, 30
2, 82380, Note_on_c, 0, 66, 33
2, 82436, Note_on_c, 0, 64, 0
2, 82440, Note_on_c, 0, 66, 0
2, 82440, Note_on_c, 0, 64, 30
2, 82500, Note_on_c, 0, 64, 0
2, 82500, Note_on_c, 0, 78, 33
2, 82560, Note_on_c, 0, 78, 0
2, 82560, Note_on_c, 0, 76, 27
2, 82620, Note_on_c, 0, 76, 0
2, 82620, Note_on_c, 0, 78, 23
2, 82620, Note_on_c, 0, 73, 23
2, 82680, Note_on_c, 0, 73, 0
2, 82680, Note_on_c, 0, 78, 0
2, 82680, Note_on_c, 0, 85, 51
2, 82680, Note_on_c, 0, 76, 28
2, 82740, Note_on_c, 0, 76, 0
2, 82740, Note_on_c, 0, 85, 0
2, 82740, Note_on_c, 0, 78, 23
2, 82740, Note_on_c, 0, 73, 23
2, 82800, Note_on_c, 0, 73, 0
2, 82800, Note_on_c, 0, 78, 0
2, 82800, Note_on_c, 0, 76, 29
2, 82800, Note_on_c, 0, 83, 51
2, 82860, Note_on_c, 0, 83, 0
2, 82860, Note_on_c, 0, 76, 0
2, 82860, Note_on_c, 0, 78, 23
2, 82860, Note_on_c, 0, 73, 23
2, 82920, Note_on_c, 0, 73, 0
2, 82920, Note_on_c, 0, 78, 0
2, 82920, Note_on_c, 0, 76, 29
2, 82920, Note_on_c, 0, 81, 48
2, 82980, Note_on_c, 0, 81, 0
2, 82980, Note_on_c, 0, 76, 0
2, 82980, Note_on_c, 0, 78, 24
2, 82980, Note_on_c, 0, 73, 24
2, 83040, Note_on_c, 0, 73, 0
2, 83040, Note_on_c, 0, 78, 0
2, 83040, Note_on_c, 0, 81, 51
2, 83040, Note_on_c, 0, 74, 30
2, 83100, Note_on_c, 0, 74, 0
2, 83100, Note_on_c, 0, 81, 0
2, 83100, Note_on_c, 0, 71, 25
2, 83100, Note_on_c, 0, 76, 25
2, 83160, Note_on_c, 0, 76, 0
2, 83160, Note_on_c, 0, 71, 0
2, 83160, Note_on_c, 0, 74, 29
2, 83160, Note_on_c, 0, 80, 48
2, 83220, Note_on_c, 0, 80, 0
2, 83220, Note_on_c, 0, 74, 0
2, 83220, Note_on_c, 0, 76, 23
2, 83220, Note_on_c, 0, 71, 23
2, 83280, Note_on_c, 0, 71, 0
2, 83280, Note_on_c, 0, 76, 0
2, 83280, Note_on_c, 0, 74, 29
2, 83280, Note_on_c, 0, 79, 51
2, 83340, Note_on_c, 0, 79, 0
2, 83340, Note_on_c, 0, 74, 0
2, 83340, Note_on_c, 0, 78, 38
2, 83340, Note_on_c, 0, 71, 22
2, 83400, Note_on_c, 0, 71, 0
2, 83400, Note_on_c, 0, 78, 0
2, 83400, Note_on_c, 0, 77, 51
2, 83400, Note_on_c, 0, 74, 28
2, 83460, Note_on_c, 0, 74, 0
2, 83460, Note_on_c, 0, 77, 0
2, 83460, Note_on_c, 0, 71, 23
2, 83520, Note_on_c, 0, 71, 0
2, 83520, Note_on_c, 0, 76, 51
2, 83520, Note_on_c, 0, 73, 29
2, 83580, Note_on_c, 0, 73, 0
2, 83580, Note_on_c, 0, 76, 0
2, 83580, Note_on_c, 0, 69, 22
2, 83640, Note_on_c, 0, 69, 0
2, 83640, Note_on_c, 0, 73, 22
2, 83700, Note_on_c, 0, 73, 0
2, 83700, Note_on_c, 0, 80, 25
2, 83760, Note_on_c, 0, 80, 0
2, 83760, Note_on_c, 0, 81, 33
2, 83820, Note_on_c, 0, 81, 0
2, 83820, Note_on_c, 0, 82, 30
2, 83880, Note_on_c, 0, 82, 0
2, 83880, Note_on_c, 0, 81, 33
2, 83940, Note_on_c, 0, 81, 0
2, 83940, Note_on_c, 0, 94, 38
2, 84000, Note_on_c, 0, 94, 0
2, 84000, Note_on_c, 0, 93, 38
2, 84060, Note_on_c, 0, 93, 0
2, 84060, Note_on_c, 0, 82, 33
2, 84120, Note_on_c, 0, 82, 0
2, 84120, Note_on_c, 0, 81, 31
2, 84180, Note_on_c, 0, 81, 0
2, 84180, Note_on_c, 0, 70, 33
2, 84240, Note_on_c, 0, 70, 0
2, 84240, Note_on_c, 0, 69, 30
2, 84300, Note_on_c, 0, 70, 33
2, 84355, Note_on_c, 0, 69, 0
2, 84360, Note_on_c, 0, 70, 0
2, 84360, Note_on_c, 0, 69, 31
2, 84420, Note_on_c, 0, 69, 0
2, 84420, Note_on_c, 0, 82, 33
2, 84480, Note_on_c, 0, 82, 0
2, 84480, Note_on_c, 0, 81, 27
2, 84540, Note_on_c, 0, 81, 0
2, 84540, Note_on_c, 0, 77, 23
2, 84540, Note_on_c, 0, 82, 23
2, 84600, Note_on_c, 0, 82, 0
2, 84600, Note_on_c, 0, 77, 0
2, 84600, Note_on_c, 0, 81, 28
2, 84600, Note_on_c, 0, 89, 51
2, 84660, Note_on_c, 0, 89, 0
2, 84660, Note_on_c, 0, 81, 0
2, 84660, Note_on_c, 0, 82, 23
2, 84660, Note_on_c, 0, 77, 23
2, 84720, Note_on_c, 0, 77, 0
2, 84720, Note_on_c, 0, 82, 0
2, 84720, Note_on_c, 0, 81, 29
2, 84720, Note_on_c, 0, 88, 51
2, 84780, Note_on_c, 0, 88, 0
2, 84780, Note_on_c, 0, 81, 0
2, 84780, Note_on_c, 0, 82, 23
2, 84780, Note_on_c, 0, 77, 23
2, 84840, Note_on_c, 0, 77, 0
2, 84840, Note_on_c, 0, 82, 0
2, 84840, Note_on_c, 0, 86, 49
2, 84840, Note_on_c, 0, 81, 29
2, 84900, Note_on_c, 0, 81, 0
2, 84900, Note_on_c, 0, 86, 0
2, 84900, Note_on_c, 0, 77, 24
2, 84900, Note_on_c, 0, 82, 24
2, 84960, Note_on_c, 0, 82, 0
2, 84960, Note_on_c, 0, 77, 0
2, 84960, Note_on_c, 0, 86, 51
2, 84960, Note_on_c, 0, 79, 30
2, 85020, Note_on_c, 0, 79, 0
2, 85020, Note_on_c, 0, 86, 0
2, 85020, Note_on_c, 0, 81, 25
2, 85020, Note_on_c, 0, 76, 25
2, 85080, Note_on_c, 0, 76, 0
2, 85080, Note_on_c, 0, 81, 0
2, 85080, Note_on_c, 0, 85, 49
2, 85080, Note_on_c, 0, 79, 29
2, 85140, Note_on_c, 0, 79, 0
2, 85140, Note_on_c, 0, 85, 0
2, 85140, Note_on_c, 0, 81, 23
2, 85140, Note_on_c, 0, 76, 23
2, 85200, Note_on_c, 0, 76, 0
2, 85200, Note_on_c, 0, 81, 0
2, 85200, Note_on_c, 0, 79, 29
2, 85200, Note_on_c, 0, 84, 51
2, 85260, Note_on_c, 0, 84, 0
2, 85260, Note_on_c, 0, 79, 0
2, 85260, Note_on_c, 0, 83, 42
2, 85260, Note_on_c, 0, 76, 22
2, 85320, Note_on_c, 0, 76, 0
2, 85320, Note_on_c, 0, 83, 0
2, 85320, Note_on_c, 0, 82, 51
2, 85320, Note_on_c, 0, 79, 28
2, 85380, Note_on_c, 0, 79, 0
2, 85380, Note_on_c, 0, 82, 0
2, 85380, Note_on_c, 0, 76, 23
2, 85440, Note_on_c, 0, 76, 0
2, 85440, Note_on_c, 0, 77, 29
2, 85440, Note_on_c, 0, 81, 51
2, 85500, Note_on_c, 0, 81, 0
2, 85500, Note_on_c, 0, 77, 0
2, 85500, Note_on_c, 0, 74, 22
2, 85560, Note_on_c, 0, 74, 0
2, 85560, Note_on_c, 0, 77, 22
2, 85620, Note_on_c, 0, 77, 0
2, 85620, Note_on_c, 0, 82, 22
2, 85680, Note_on_c, 0, 82, 0
2, 85680, Note_on_c, 0, 81, 33
2, 85740, Note_on_c, 0, 81, 0
2, 85740, Note_on_c, 0, 82, 29
2, 85800, Note_on_c, 0, 82, 0
2, 85800, Note_on_c, 0, 81, 33
2, 85860, Note_on_c, 0, 81, 0
2, 85860, Note_on_c, 0, 94, 38
2, 85920, Note_on_c, 0, 94, 0
2, 85920, Note_on_c, 0, 93, 38
2, 85980, Note_on_c, 0, 93, 0
2, 85980, Note_on_c, 0, 82, 33
2, 86040, Note_on_c, 0, 82, 0
2, 86040, Note_on_c, 0, 81, 31
2, 86100, Note_on_c, 0, 81, 0
2, 86100, Note_on_c, 0, 70, 33
2, 86160, Note_on_c, 0, 70, 0
2, 86160, Note_on_c, 0, 69, 31
2, 86220, Note_on_c, 0, 69, 0
2, 86220, Note_on_c, 0, 70, 33
2, 86280, Note_on_c, 0, 70, 0
2, 86280, Note_on_c, 0, 69, 30
2, 86340, Note_on_c, 0, 69, 0
2, 86340, Note_on_c, 0, 82, 33
2, 86400, Note_on_c, 0, 82, 0
2, 86400, Note_on_c, 0, 81, 27
2, 86460, Note_on_c, 0, 81, 0
2, 86460, Note_on_c, 0, 77, 23
2, 86460, Note_on_c, 0, 82, 23
2, 86520, Note_on_c, 0, 82, 0
2, 86520, Note_on_c, 0, 77, 0
2, 86520, Note_on_c, 0, 89, 51
2, 86520, Note_on_c, 0, 81, 28
2, 86580, Note_on_c, 0, 81, 0
2, 86580, Note_on_c, 0, 89, 0
2, 86580, Note_on_c, 0, 77, 23
2, 86580, Note_on_c, 0, 82, 23
2, 86640, Note_on_c, 0, 82, 0
2, 86640, Note_on_c, 0, 77, 0
2, 86640, Note_on_c, 0, 81, 29
2, 86640, Note_on_c, 0, 88, 51
2, 86700, Note_on_c, 0, 88, 0
2, 86700, Note_on_c, 0, 81, 0
2, 86700, Note_on_c, 0, 77, 23
2, 86700, Note_on_c, 0, 82, 23
2, 86760, Note_on_c, 0, 82, 0
2, 86760, Note_on_c, 0, 77, 0
2, 86760, Note_on_c, 0, 81, 29
2, 86760, Note_on_c, 0, 86, 49
2, 86820, Note_on_c, 0, 86, 0
2, 86820, Note_on_c, 0, 81, 0
2, 86820, Note_on_c, 0, 82, 24
2, 86820, Note_on_c, 0, 77, 24
2, 86880, Note_on_c, 0, 77, 0
2, 86880, Note_on_c, 0, 82, 0
2, 86880, Note_on_c, 0, 86, 45
2, 86880, Note_on_c, 0, 79, 30
2, 86940, Note_on_c, 0, 79, 0
2, 86940, Note_on_c, 0, 86, 0
2, 86940, Note_on_c, 0, 81, 25
2, 86940, Note_on_c, 0, 76, 25
2, 87000, Note_on_c, 0, 76, 0
2, 87000, Note_on_c, 0, 81, 0
2, 87000, Note_on_c, 0, 79, 29
2, 87000, Note_on_c, 0, 85, 49
2, 87060, Note_on_c, 0, 85, 0
2, 87060, Note_on_c, 0, 79, 0
2, 87060, Note_on_c, 0, 76, 23
2, 87060, Note_on_c, 0, 81, 23
2, 87120, Note_on_c, 0, 81, 0
2, 87120, Note_on_c, 0, 76, 0
2, 87120, Note_on_c, 0, 84, 51
2, 87120, Note_on_c, 0, 79, 29
2, 87180, Note_on_c, 0, 79, 0
2, 87180, Note_on_c, 0, 84, 0
2, 87180, Note_on_c, 0, 83, 42
2, 87180, Note_on_c, 0, 76, 22
2, 87240, Note_on_c, 0, 76, 0
2, 87240, Note_on_c, 0, 83, 0
2, 87240, Note_on_c, 0, 79, 28
2, 87240, Note_on_c, 0, 82, 51
2, 87300, Note_on_c, 0, 82, 0
2, 87300, Note_on_c, 0, 79, 0
2, 87300, Note_on_c, 0, 76, 23
2, 87360, Note_on_c, 0, 76, 0
2, 87360, Note_on_c, 0, 81, 51
2, 87360, Note_on_c, 0, 77, 29
2, 87420, Note_on_c, 0, 77, 0
2, 87420, Note_on_c, 0, 81, 0
2, 87420, Note_on_c, 0, 74, 22
2, 87480, Note_on_c, 0, 74, 0
2, 87480, Note_on_c, 0, 77, 22
2, 87540, Note_on_c, 0, 77, 0
2, 87540, Note_on_c, 0, 86, 25
2, 87600, Note_on_c, 0, 86, 0
2, 87600, Note_on_c, 0, 89, 53
2, 87600, Note_on_c, 0, 77, 44
2, 87660, Note_on_c, 0, 77, 0
2, 87660, Note_on_c, 0, 84, 44
2, 87660, Note_on_c, 0, 81, 44
2, 87720, Note_on_c, 0, 81, 0
2, 87720, Note_on_c, 0, 84, 0
2, 87720, Note_on_c, 0, 75, 41
2, 87780, Note_on_c, 0, 75, 0
2, 87780, Note_on_c, 0, 89, 0
2, 87780, Note_on_c, 0, 87, 49
2, 87840, Note_on_c, 0, 87, 0
2, 87840, Note_on_c, 0, 85, 57
2, 87840, Note_on_c, 0, 73, 46
2, 87900, Note_on_c, 0, 73, 0
2, 87900, Note_on_c, 0, 82, 41
2, 87900, Note_on_c, 0, 77, 41
2, 87960, Note_on_c, 0, 77, 0
2, 87960, Note_on_c, 0, 82, 0
2, 87960, Note_on_c, 0, 74, 45
2, 88020, Note_on_c, 0, 74, 0
2, 88020, Note_on_c, 0, 85, 0
2, 88020, Note_on_c, 0, 86, 50
2, 88080, Note_on_c, 0, 86, 0
2, 88080, Note_on_c, 0, 80, 54
2, 88080, Note_on_c, 0, 68, 54
2, 88140, Note_on_c, 0, 68, 0
2, 88140, Note_on_c, 0, 75, 39
2, 88140, Note_on_c, 0, 72, 31
2, 88200, Note_on_c, 0, 72, 0
2, 88200, Note_on_c, 0, 75, 0
2, 88200, Note_on_c, 0, 69, 43
2, 88260, Note_on_c, 0, 69, 0
2, 88260, Note_on_c, 0, 80, 0
2, 88260, Note_on_c, 0, 81, 51
2, 88320, Note_on_c, 0, 81, 0
2, 88320, Note_on_c, 0, 72, 46
2, 88320, Note_on_c, 0, 84, 55
2, 88380, Note_on_c, 0, 72, 0
2, 88380, Note_on_c, 0, 77, 47
2, 88380, Note_on_c, 0, 74, 47
2, 88440, Note_on_c, 0, 74, 0
2, 88440, Note_on_c, 0, 77, 0
2, 88440, Note_on_c, 0, 70, 43
2, 88500, Note_on_c, 0, 70, 0
2, 88500, Note_on_c, 0, 84, 0
2, 88500, Note_on_c, 0, 82, 43
2, 88560, Note_on_c, 0, 82, 0
2, 88560, Note_on_c, 0, 77, 47
2, 88560, Note_on_c, 0, 89, 56
2, 88620, Note_on_c, 0, 77, 0
2, 88620, Note_on_c, 0, 84, 47
2, 88620, Note_on_c, 0, 81, 47
2, 88680, Note_on_c, 0, 81, 0
2, 88680, Note_on_c, 0, 84, 0
2, 88680, Note_on_c, 0, 75, 44
2, 88740, Note_on_c, 0, 75, 0
2, 88740, Note_on_c, 0, 89, 0
2, 88740, Note_on_c, 0, 87, 52
2, 88800, Note_on_c, 0, 87, 0
2, 88800, Note_on_c, 0, 73, 49
2, 88800, Note_on_c, 0, 85, 61
2, 88860, Note_on_c, 0, 73, 0
2, 88860, Note_on_c, 0, 82, 43
2, 88860, Note_on_c, 0, 77, 43
2, 88920, Note_on_c, 0, 77, 0
2, 88920, Note_on_c, 0, 82, 0
2, 88920, Note_on_c, 0, 74, 48
2, 88980, Note_on_c, 0, 74, 0
2, 88980, Note_on_c, 0, 85, 0
2, 88980, Note_on_c, 0, 86, 53
2, 89040, Note_on_c, 0, 86, 0
2, 89040, Note_on_c, 0, 80, 58
2, 89040, Note_on_c, 0, 68, 58
2, 89100, Note_on_c, 0, 68, 0
2, 89100, Note_on_c, 0, 75, 41
2, 89100, Note_on_c, 0, 72, 33
2, 89160, Note_on_c, 0, 72, 0
2, 89160, Note_on_c, 0, 75, 0
2, 89160, Note_on_c, 0, 69, 46
2, 89220, Note_on_c, 0, 69, 0
2, 89220, Note_on_c, 0, 80, 0
2, 89220, Note_on_c, 0, 81, 54
2, 89280, Note_on_c, 0, 81, 0
2, 89280, Note_on_c, 0, 84, 58
2, 89280, Note_on_c, 0, 72, 49
2, 89340, Note_on_c, 0, 72, 0
2, 89340, Note_on_c, 0, 74, 49
2, 89340, Note_on_c, 0, 77, 49
2, 89400, Note_on_c, 0, 77, 0
2, 89400, Note_on_c, 0, 74, 0
2, 89400, Note_on_c, 0, 70, 46
2, 89460, Note_on_c, 0, 70, 0
2, 89460, Note_on_c, 0, 84, 0
2, 89460, Note_on_c, 0, 82, 46
2, 89520, Note_on_c, 0, 82, 0
2, 89520, Note_on_c, 0, 82, 56
2, 89520, Note_on_c, 0, 94, 70
2, 89580, Note_on_c, 0, 82, 0
2, 89580, Note_on_c, 0, 89, 56
2, 89580, Note_on_c, 0, 86, 56
2, 89640, Note_on_c, 0, 86, 0
2, 89640, Note_on_c, 0, 89, 0
2, 89640, Note_on_c, 0, 80, 54
2, 89700, Note_on_c, 0, 80, 0
2, 89700, Note_on_c, 0, 94, 0
2, 89700, Note_on_c, 0, 92, 63
2, 89760, Note_on_c, 0, 92, 0
2, 89760, Note_on_c, 0, 77, 60
2, 89760, Note_on_c, 0, 89, 72
2, 89820, Note_on_c, 0, 77, 0
2, 89820, Note_on_c, 0, 87, 51
2, 89820, Note_on_c, 0, 82, 51
2, 89880, Note_on_c, 0, 82, 0
2, 89880, Note_on_c, 0, 87, 0
2, 89880, Note_on_c, 0, 78, 59
2, 89940, Note_on_c, 0, 78, 0
2, 89940, Note_on_c, 0, 89, 0
2, 89940, Note_on_c, 0, 90, 64
2, 90000, Note_on_c, 0, 90, 0
2, 90000, Note_on_c, 0, 73, 71
2, 90000, Note_on_c, 0, 85, 71
2, 90060, Note_on_c, 0, 73, 0
2, 90060, Note_on_c, 0, 77, 41
2, 90060, Note_on_c, 0, 80, 51
2, 90120, Note_on_c, 0, 80, 0
2, 90120, Note_on_c, 0, 77, 0
2, 90120, Note_on_c, 0, 74, 56
2, 90180, Note_on_c, 0, 74, 0
2, 90180, Note_on_c, 0, 85, 0
2, 90180, Note_on_c, 0, 86, 66
2, 90240, Note_on_c, 0, 86, 0
2, 90240, Note_on_c, 0, 89, 72
2, 90240, Note_on_c, 0, 77, 58
2, 90300, Note_on_c, 0, 77, 0
2, 90300, Note_on_c, 0, 78, 59
2, 90300, Note_on_c, 0, 82, 59
2, 90360, Note_on_c, 0, 82, 0
2, 90360, Note_on_c, 0, 78, 0
2, 90360, Note_on_c, 0, 75, 56
2, 90420, Note_on_c, 0, 75, 0
2, 90420, Note_on_c, 0, 89, 0
2, 90420, Note_on_c, 0, 87, 56
2, 90480, Note_on_c, 0, 87, 0
2, 90480, Note_on_c, 0, 94, 81
2, 90480, Note_on_c, 0, 82, 66
2, 90540, Note_on_c, 0, 82, 0
2, 90540, Note_on_c, 0, 86, 66
2, 90540, Note_on_c, 0, 89, 66
2, 90600, Note_on_c, 0, 89, 0
2, 90600, Note_on_c, 0, 86, 0
2, 90600, Note_on_c, 0, 80, 61
2, 90660, Note_on_c, 0, 80, 0
2, 90660, Note_on_c, 0, 94, 0
2, 90660, Note_on_c, 0, 92, 74
2, 90720, Note_on_c, 0, 92, 0
2, 90720, Note_on_c, 0, 89, 84
2, 90720, Note_on_c, 0, 77, 69
2, 90780, Note_on_c, 0, 77, 0
2, 90780, Note_on_c, 0, 87, 60
2, 90780, Note_on_c, 0, 82, 60
2, 90840, Note_on_c, 0, 82, 0
2, 90840, Note_on_c, 0, 87, 0
2, 90840, Note_on_c, 0, 78, 68
2, 90900, Note_on_c, 0, 78, 0
2, 90900, Note_on_c, 0, 89, 0
2, 90900, Note_on_c, 0, 90, 74
2, 90960, Note_on_c, 0, 90, 0
2, 90960, Note_on_c, 0, 85, 83
2, 90960, Note_on_c, 0, 73, 83
2, 91020, Note_on_c, 0, 73, 0
2, 91020, Note_on_c, 0, 80, 60
2, 91020, Note_on_c, 0, 77, 46
2, 91080, Note_on_c, 0, 77, 0
2, 91080, Note_on_c, 0, 80, 0
2, 91080, Note_on_c, 0, 74, 64
2, 91140, Note_on_c, 0, 74, 0
2, 91140, Note_on_c, 0, 85, 0
2, 91140, Note_on_c, 0, 86, 76
2, 91200, Note_on_c, 0, 86, 0
2, 91200, Note_on_c, 0, 77, 68
2, 91200, Note_on_c, 0, 89, 84
2, 91260, Note_on_c, 0, 77, 0
2, 91260, Note_on_c, 0, 82, 69
2, 91260, Note_on_c, 0, 78, 69
2, 91320, Note_on_c, 0, 78, 0
2, 91320, Note_on_c, 0, 82, 0
2, 91320, Note_on_c, 0, 75, 64
2, 91380, Note_on_c, 0, 75, 0
2, 91380, Note_on_c, 0, 89, 0
2, 91380, Note_on_c, 0, 87, 64
2, 91440, Note_on_c, 0, 87, 0
2, 91440, Note_on_c, 0, 85, 75
2, 91440, Note_on_c, 0, 97, 91
2, 91500, Note_on_c, 0, 85, 0
2, 91500, Note_on_c, 0, 90, 75
2, 91560, Note_on_c, 0, 90, 0
2, 91560, Note_on_c, 0, 85, 70
2, 91620, Note_on_c, 0, 85, 0
2, 91620, Note_on_c, 0, 97, 0
2, 91620, Note_on_c, 0, 97, 83
2, 91680, Note_on_c, 0, 97, 0
2, 91680, Note_on_c, 0, 100, 92
2, 91680, Note_on_c, 0, 88, 80
2, 91740, Note_on_c, 0, 88, 0
2, 91740, Note_on_c, 0, 90, 68
2, 91800, Note_on_c, 0, 90, 0
2, 91800, Note_on_c, 0, 87, 78
2, 91860, Note_on_c, 0, 87, 0
2, 91860, Note_on_c, 0, 100, 0
2, 91860, Note_on_c, 0, 99, 82
2, 91920, Note_on_c, 0, 99, 0
2, 91920, Note_on_c, 0, 81, 91
2, 91920, Note_on_c, 0, 93, 91
2, 91980, Note_on_c, 0, 81, 0
2, 91980, Note_on_c, 0, 90, 67
2, 91980, Note_on_c, 0, 88, 53
2, 92040, Note_on_c, 0, 88, 0
2, 92040, Note_on_c, 0, 90, 0
2, 92040, Note_on_c, 0, 82, 72
2, 92100, Note_on_c, 0, 82, 0
2, 92100, Note_on_c, 0, 93, 0
2, 92100, Note_on_c, 0, 94, 83
2, 92160, Note_on_c, 0, 94, 0
2, 92160, Note_on_c, 0, 97, 91
2, 92160, Note_on_c, 0, 85, 75
2, 92220, Note_on_c, 0, 85, 0
2, 92220, Note_on_c, 0, 90, 75
2, 92220, Note_on_c, 0, 87, 75
2, 92280, Note_on_c, 0, 87, 0
2, 92280, Note_on_c, 0, 90, 0
2, 92280, Note_on_c, 0, 83, 70
2, 92340, Note_on_c, 0, 83, 0
2, 92340, Note_on_c, 0, 97, 0
2, 92340, Note_on_c, 0, 95, 70
2, 92400, Note_on_c, 0, 95, 0
2, 92400, Note_on_c, 0, 91, 56
2, 92400, Note_on_c, 0, 96, 66
2, 92460, Note_on_c, 0, 96, 0
2, 92460, Note_on_c, 0, 91, 0
2, 92460, Note_on_c, 0, 85, 46
2, 92460, Note_on_c, 0, 94, 56
2, 92520, Note_on_c, 0, 94, 0
2, 92520, Note_on_c, 0, 85, 0
2, 92520, Note_on_c, 0, 96, 56
2, 92520, Note_on_c, 0, 91, 46
2, 92580, Note_on_c, 0, 91, 0
2, 92580, Note_on_c, 0, 96, 0
2, 92580, Note_on_c, 0, 85, 46
2, 92580, Note_on_c, 0, 94, 56
2, 92640, Note_on_c, 0, 94, 0
2, 92640, Note_on_c, 0, 85, 0
2, 92640, Note_on_c, 0, 93, 60
2, 92640, Note_on_c, 0, 88, 50
2, 92700, Note_on_c, 0, 88, 0
2, 92700, Note_on_c, 0, 93, 0
2, 92700, Note_on_c, 0, 82, 42
2, 92700, Note_on_c, 0, 91, 49
2, 92760, Note_on_c, 0, 91, 0
2, 92760, Note_on_c, 0, 82, 0
2, 92760, Note_on_c, 0, 93, 49
2, 92760, Note_on_c, 0, 88, 41
2, 92820, Note_on_c, 0, 88, 0
2, 92820, Note_on_c, 0, 93, 0
2, 92820, Note_on_c, 0, 82, 41
2, 92820, Note_on_c, 0, 91, 49
2, 92880, Note_on_c, 0, 91, 0
2, 92880, Note_on_c, 0, 82, 0
2, 92880, Note_on_c, 0, 90, 58
2, 92880, Note_on_c, 0, 85, 50
2, 92940, Note_on_c, 0, 85, 0
2, 92940, Note_on_c, 0, 90, 0
2, 92940, Note_on_c, 0, 79, 40
2, 92940, Note_on_c, 0, 88, 48
2, 93000, Note_on_c, 0, 88, 0
2, 93000, Note_on_c, 0, 79, 0
2, 93000, Note_on_c, 0, 90, 47
2, 93000, Note_on_c, 0, 85, 40
2, 93060, Note_on_c, 0, 85, 0
2, 93060, Note_on_c, 0, 90, 0
2, 93060, Note_on_c, 0, 88, 46
2, 93060, Note_on_c, 0, 79, 39
2, 93120, Note_on_c, 0, 79, 0
2, 93120, Note_on_c, 0, 88, 0
2, 93120, Note_on_c, 0, 87, 51
2, 93120, Note_on_c, 0, 79, 43
2, 93180, Note_on_c, 0, 79, 0
2, 93180, Note_on_c, 0, 87, 0
2, 93180, Note_on_c, 0, 76, 33
2, 93180, Note_on_c, 0, 85, 40
2, 93240, Note_on_c, 0, 85, 0
2, 93240, Note_on_c, 0, 76, 0
2, 93240, Note_on_c, 0, 79, 33
2, 93240, Note_on_c, 0, 87, 40
2, 93300, Note_on_c, 0, 87, 0
2, 93300, Note_on_c, 0, 79, 0
2, 93300, Note_on_c, 0, 76, 32
2, 93300, Note_on_c, 0, 85, 39
2, 93360, Note_on_c, 0, 85, 0
2, 93360, Note_on_c, 0, 76, 0
2, 93360, Note_on_c, 0, 79, 40
2, 93360, Note_on_c, 0, 84, 49
2, 93420, Note_on_c, 0, 84, 0
2, 93420, Note_on_c, 0, 79, 0
2, 93420, Note_on_c, 0, 73, 31
2, 93420, Note_on_c, 0, 81, 38
2, 93480, Note_on_c, 0, 81, 0
2, 93480, Note_on_c, 0, 73, 0
2, 93480, Note_on_c, 0, 79, 31
2, 93480, Note_on_c, 0, 84, 38
2, 93540, Note_on_c, 0, 84, 0
2, 93540, Note_on_c, 0, 79, 0
2, 93540, Note_on_c, 0, 73, 31
2, 93540, Note_on_c, 0, 82, 37
2, 93600, Note_on_c, 0, 82, 0
2, 93600, Note_on_c, 0, 73, 0
2, 93600, Note_on_c, 0, 81, 43
2, 93600, Note_on_c, 0, 76, 37
2, 93660, Note_on_c, 0, 76, 0
2, 93660, Note_on_c, 0, 81, 0
2, 93660, Note_on_c, 0, 70, 29
2, 93660, Note_on_c, 0, 78, 34
2, 93720, Note_on_c, 0, 78, 0
2, 93720, Note_on_c, 0, 70, 0
2, 93720, Note_on_c, 0, 76, 29
2, 93720, Note_on_c, 0, 81, 34
2, 93780, Note_on_c, 0, 81, 0
2, 93780, Note_on_c, 0, 76, 0
2, 93780, Note_on_c, 0, 70, 28
2, 93780, Note_on_c, 0, 79, 33
2, 93840, Note_on_c, 0, 79, 0
2, 93840, Note_on_c, 0, 70, 0
2, 93840, Note_on_c, 0, 77, 42
2, 93840, Note_on_c, 0, 73, 34
2, 93900, Note_on_c, 0, 73, 0
2, 93900, Note_on_c, 0, 77, 0
2, 93900, Note_on_c, 0, 67, 25
2, 93900, Note_on_c, 0, 75, 30
2, 93960, Note_on_c, 0, 75, 0
2, 93960, Note_on_c, 0, 67, 0
2, 93960, Note_on_c, 0, 77, 30
2, 93960, Note_on_c, 0, 73, 25
2, 94020, Note_on_c, 0, 73, 0
2, 94020, Note_on_c, 0, 77, 0
2, 94020, Note_on_c, 0, 76, 31
2, 94020, Note_on_c, 0, 67, 26
2, 94080, Note_on_c, 0, 67, 0
2, 94080, Note_on_c, 0, 76, 0
2, 94080, Note_on_c, 0, 70, 32
2, 94080, Note_on_c, 0, 79, 42
2, 94080, Note_on_c, 0, 74, 32
2, 94140, Note_on_c, 0, 74, 0
2, 94140, Note_on_c, 0, 70, 0
2, 94140, Note_on_c, 0, 65, 29
2, 94200, Note_on_c, 0, 65, 0
2, 94200, Note_on_c, 0, 70, 36
2, 94260, Note_on_c, 0, 70, 0
2, 94260, Note_on_c, 0, 79, 0
2, 94260, Note_on_c, 0, 77, 33
2, 94320, Note_on_c, 0, 77, 0
2, 94320, Note_on_c, 0, 74, 42
2, 94320, Note_on_c, 0, 68, 32
2, 94380, Note_on_c, 0, 68, 0
2, 94380, Note_on_c, 0, 65, 32
2, 94440, Note_on_c, 0, 65, 0
2, 94440, Note_on_c, 0, 68, 32
2, 94500, Note_on_c, 0, 68, 0
2, 94500, Note_on_c, 0, 74, 0
2, 94500, Note_on_c, 0, 75, 33
2, 94560, Note_on_c, 0, 75, 0
2, 94560, Note_on_c, 0, 64, 32
2, 94560, Note_on_c, 0, 74, 42
2, 94560, Note_on_c, 0, 70, 32
2, 94620, Note_on_c, 0, 70, 0
2, 94620, Note_on_c, 0, 64, 0
2, 94620, Note_on_c, 0, 67, 32
2, 94680, Note_on_c, 0, 67, 0
2, 94680, Note_on_c, 0, 64, 32
2, 94740, Note_on_c, 0, 64, 0
2, 94740, Note_on_c, 0, 74, 0
2, 94740, Note_on_c, 0, 72, 33
2, 94800, Note_on_c, 0, 72, 0
2, 94800, Note_on_c, 0, 63, 32
2, 94800, Note_on_c, 0, 67, 42
2, 94860, Note_on_c, 0, 63, 0
2, 94860, Note_on_c, 0, 60, 32
2, 94920, Note_on_c, 0, 60, 0
2, 94920, Note_on_c, 0, 63, 32
2, 94980, Note_on_c, 0, 63, 0
2, 94980, Note_on_c, 0, 67, 0
2, 94980, Note_on_c, 0, 69, 33
2, 95040, Note_on_c, 0, 69, 0
2, 95040, Note_on_c, 0, 70, 32
2, 95040, Note_on_c, 0, 79, 42
2, 95040, Note_on_c, 0, 74, 32
2, 95100, Note_on_c, 0, 74, 0
2, 95100, Note_on_c, 0, 70, 0
2, 95100, Note_on_c, 0, 65, 29
2, 95160, Note_on_c, 0, 65, 0
2, 95160, Note_on_c, 0, 70, 36
2, 95220, Note_on_c, 0, 70, 0
2, 95220, Note_on_c, 0, 79, 0
2, 95220, Note_on_c, 0, 77, 33
2, 95280, Note_on_c, 0, 77, 0
2, 95280, Note_on_c, 0, 68, 32
2, 95280, Note_on_c, 0, 74, 42
2, 95340, Note_on_c, 0, 68, 0
2, 95340, Note_on_c, 0, 65, 32
2, 95400, Note_on_c, 0, 65, 0
2, 95400, Note_on_c, 0, 68, 32
2, 95460, Note_on_c, 0, 68, 0
2, 95460, Note_on_c, 0, 74, 0
2, 95460, Note_on_c, 0, 75, 33
2, 95520, Note_on_c, 0, 75, 0
2, 95520, Note_on_c, 0, 74, 42
2, 95520, Note_on_c, 0, 70, 32
2, 95520, Note_on_c, 0, 64, 32
2, 95580, Note_on_c, 0, 64, 0
2, 95580, Note_on_c, 0, 70, 0
2, 95580, Note_on_c, 0, 67, 32
2, 95640, Note_on_c, 0, 67, 0
2, 95640, Note_on_c, 0, 64, 32
2, 95700, Note_on_c, 0, 64, 0
2, 95700, Note_on_c, 0, 74, 0
2, 95700, Note_on_c, 0, 72, 33
2, 95760, Note_on_c, 0, 72, 0
2, 95760, Note_on_c, 0, 63, 32
2, 95760, Note_on_c, 0, 67, 42
2, 95820, Note_on_c, 0, 63, 0
2, 95820, Note_on_c, 0, 60, 32
2, 95880, Note_on_c, 0, 60, 0
2, 95880, Note_on_c, 0, 63, 32
2, 95940, Note_on_c, 0, 63, 0
2, 95940, Note_on_c, 0, 67, 0
2, 95940, Note_on_c, 0, 69, 33
2, 96000, Note_on_c, 0, 69, 0
2, 96000, Note_on_c, 0, 62, 32
2, 96000, Note_on_c, 0, 72, 42
2, 96060, Note_on_c, 0, 62, 0
2, 96060, Note_on_c, 0, 65, 29
2, 96120, Note_on_c, 0, 65, 0
2, 96120, Note_on_c, 0, 62, 36
2, 96180, Note_on_c, 0, 62, 0
2, 96180, Note_on_c, 0, 72, 0
2, 96180, Note_on_c, 0, 70, 33
2, 96240, Note_on_c, 0, 70, 0
2, 96240, Note_on_c, 0, 56, 32
2, 96240, Note_on_c, 0, 67, 42
2, 96300, Note_on_c, 0, 56, 0
2, 96300, Note_on_c, 0, 62, 32
2, 96360, Note_on_c, 0, 62, 0
2, 96360, Note_on_c, 0, 56, 32
2, 96420, Note_on_c, 0, 56, 0
2, 96420, Note_on_c, 0, 67, 0
2, 96420, Note_on_c, 0, 62, 28
2, 96420, Note_on_c, 0, 65, 33
2, 96480, Note_on_c, 0, 65, 0
2, 96480, Note_on_c, 0, 62, 0
2, 96480, Note_on_c, 0, 65, 42
2, 96480, Note_on_c, 0, 55, 32
2, 96540, Note_on_c, 0, 55, 0
2, 96540, Note_on_c, 0, 60, 32
2, 96600, Note_on_c, 0, 60, 0
2, 96600, Note_on_c, 0, 55, 32
2, 96660, Note_on_c, 0, 55, 0
2, 96660, Note_on_c, 0, 65, 0
2, 96660, Note_on_c, 0, 63, 33
2, 96660, Note_on_c, 0, 60, 28
2, 96720, Note_on_c, 0, 60, 0
2, 96720, Note_on_c, 0, 63, 0
2, 96720, Note_on_c, 0, 51, 32
2, 96720, Note_on_c, 0, 60, 42
2, 96780, Note_on_c, 0, 51, 0
2, 96780, Note_on_c, 0, 57, 32
2, 96840, Note_on_c, 0, 57, 0
2, 96840, Note_on_c, 0, 51, 32
2, 96900, Note_on_c, 0, 51, 0
2, 96900, Note_on_c, 0, 60, 0
2, 96900, Note_on_c, 0, 62, 33
2, 96900, Note_on_c, 0, 57, 32
2, 96960, Note_on_c, 0, 57, 0
2, 96960, Note_on_c, 0, 62, 0
2, 97080, Note_on_c, 0, 65, 33
2, 97080, Note_on_c, 0, 62, 33
2, 97080, Note_on_c, 0, 74, 39
2, 97140, Note_on_c, 0, 74, 0
2, 97140, Note_on_c, 0, 62, 0
2, 97140, Note_on_c, 0, 65, 0
2, 97200, Note_on_c, 0, 62, 30
2, 97200, Note_on_c, 0, 72, 36
2, 97200, Note_on_c, 0, 65, 30
2, 97260, Note_on_c, 0, 65, 0
2, 97260, Note_on_c, 0, 72, 0
2, 97260, Note_on_c, 0, 62, 0
2, 97320, Note_on_c, 0, 62, 30
2, 97320, Note_on_c, 0, 65, 30
2, 97320, Note_on_c, 0, 71, 36
2, 97380, Note_on_c, 0, 71, 0
2, 97380, Note_on_c, 0, 65, 0
2, 97380, Note_on_c, 0, 62, 0
2, 97440, Note_on_c, 0, 65, 33
2, 97440, Note_on_c, 0, 62, 33
2, 97440, Note_on_c, 0, 70, 39
2, 97500, Note_on_c, 0, 70, 0
2, 97500, Note_on_c, 0, 62, 0
2, 97500, Note_on_c, 0, 65, 0
2, 97560, Note_on_c, 0, 62, 30
2, 97560, Note_on_c, 0, 74, 36
2, 97560, Note_on_c, 0, 65, 30
2, 97620, Note_on_c, 0, 65, 0
2, 97620, Note_on_c, 0, 74, 0
2, 97620, Note_on_c, 0, 62, 0
2, 97680, Note_on_c, 0, 72, 39
2, 97680, Note_on_c, 0, 65, 33
2, 97680, Note_on_c, 0, 62, 33
2, 97740, Note_on_c, 0, 72, 0
2, 97740, Note_on_c, 0, 71, 36
2, 97800, Note_on_c, 0, 71, 0
2, 97800, Note_on_c, 0, 62, 0
2, 97800, Note_on_c, 0, 65, 0
2, 97800, Note_on_c, 0, 70, 36
2, 97920, Note_on_c, 0, 70, 0
2, 98040, Note_on_c, 0, 77, 39
2, 98040, Note_on_c, 0, 65, 33
2, 98040, Note_on_c, 0, 70, 33
2, 98100, Note_on_c, 0, 70, 0
2, 98100, Note_on_c, 0, 65, 0
2, 98100, Note_on_c, 0, 77, 0
2, 98160, Note_on_c, 0, 65, 30
2, 98160, Note_on_c, 0, 76, 36
2, 98160, Note_on_c, 0, 70, 30
2, 98220, Note_on_c, 0, 70, 0
2, 98220, Note_on_c, 0, 76, 0
2, 98220, Note_on_c, 0, 65, 0
2, 98280, Note_on_c, 0, 75, 36
2, 98280, Note_on_c, 0, 65, 30
2, 98280, Note_on_c, 0, 70, 30
2, 98340, Note_on_c, 0, 70, 0
2, 98340, Note_on_c, 0, 65, 0
2, 98340, Note_on_c, 0, 75, 0
2, 98400, Note_on_c, 0, 70, 33
2, 98400, Note_on_c, 0, 65, 33
2, 98400, Note_on_c, 0, 74, 39
2, 98460, Note_on_c, 0, 74, 0
2, 98460, Note_on_c, 0, 65, 0
2, 98460, Note_on_c, 0, 70, 0
2, 98520, Note_on_c, 0, 77, 36
2, 98520, Note_on_c, 0, 65, 30
2, 98520, Note_on_c, 0, 70, 30
2, 98580, Note_on_c, 0, 70, 0
2, 98580, Note_on_c, 0, 65, 0
2, 98580, Note_on_c, 0, 77, 0
2, 98640, Note_on_c, 0, 65, 33
2, 98640, Note_on_c, 0, 70, 33
2, 98640, Note_on_c, 0, 76, 39
2, 98700, Note_on_c, 0, 76, 0
2, 98700, Note_on_c, 0, 75, 36
2, 98760, Note_on_c, 0, 75, 0
2, 98760, Note_on_c, 0, 70, 0
2, 98760, Note_on_c, 0, 65, 0
2, 98760, Note_on_c, 0, 74, 36
2, 98880, Note_on_c, 0, 74, 0
2, 99000, Note_on_c, 0, 82, 39
2, 99000, Note_on_c, 0, 73, 33
2, 99000, Note_on_c, 0, 70, 33
2, 99060, Note_on_c, 0, 70, 0
2, 99060, Note_on_c, 0, 73, 0
2, 99060, Note_on_c, 0, 82, 0
2, 99120, Note_on_c, 0, 73, 30
2, 99120, Note_on_c, 0, 70, 30
2, 99120, Note_on_c, 0, 80, 36
2, 99180, Note_on_c, 0, 80, 0
2, 99180, Note_on_c, 0, 70, 0
2, 99180, Note_on_c, 0, 73, 0
2, 99240, Note_on_c, 0, 70, 30
2, 99240, Note_on_c, 0, 79, 36
2, 99240, Note_on_c, 0, 73, 30
2, 99300, Note_on_c, 0, 73, 0
2, 99300, Note_on_c, 0, 79, 0
2, 99300, Note_on_c, 0, 70, 0
2, 99360, Note_on_c, 0, 70, 33
2, 99360, Note_on_c, 0, 73, 33
2, 99360, Note_on_c, 0, 78, 39
2, 99420, Note_on_c, 0, 78, 0
2, 99420, Note_on_c, 0, 73, 0
2, 99420, Note_on_c, 0, 70, 0
2, 99480, Note_on_c, 0, 82, 36
2, 99480, Note_on_c, 0, 73, 30
2, 99480, Note_on_c, 0, 70, 30
2, 99540, Note_on_c, 0, 70, 0
2, 99540, Note_on_c, 0, 73, 0
2, 99540, Note_on_c, 0, 82, 0
2, 99600, Note_on_c, 0, 70, 33
2, 99600, Note_on_c, 0, 80, 39
2, 99600, Note_on_c, 0, 73, 33
2, 99660, Note_on_c, 0, 80, 0
2, 99660, Note_on_c, 0, 79, 36
2, 99720, Note_on_c, 0, 79, 0
2, 99720, Note_on_c, 0, 73, 0
2, 99720, Note_on_c, 0, 70, 0
2, 99720, Note_on_c, 0, 78, 36
2, 99840, Note_on_c, 0, 78, 0
2, 99960, Note_on_c, 0, 72, 33
2, 99960, Note_on_c, 0, 78, 39
2, 99960, Note_on_c, 0, 69, 33
2, 100020, Note_on_c, 0, 69, 0
2, 100020, Note_on_c, 0, 78, 0
2, 100020, Note_on_c, 0, 72, 0
2, 100080, Note_on_c, 0, 72, 30
2, 100080, Note_on_c, 0, 77, 36
2, 100080, Note_on_c, 0, 69, 30
2, 100140, Note_on_c, 0, 69, 0
2, 100140, Note_on_c, 0, 77, 0
2, 100140, Note_on_c, 0, 72, 0
2, 100200, Note_on_c, 0, 72, 30
2, 100200, Note_on_c, 0, 69, 30
2, 100200, Note_on_c, 0, 76, 36
2, 100260, Note_on_c, 0, 76, 0
2, 100260, Note_on_c, 0, 69, 0
2, 100260, Note_on_c, 0, 72, 0
2, 100320, Note_on_c, 0, 72, 33
2, 100320, Note_on_c, 0, 69, 33
2, 100320, Note_on_c, 0, 75, 39
2, 100380, Note_on_c, 0, 75, 0
2, 100380, Note_on_c, 0, 69, 0
2, 100380, Note_on_c, 0, 72, 0
2, 100440, Note_on_c, 0, 69, 30
2, 100440, Note_on_c, 0, 72, 36
2, 100500, Note_on_c, 0, 72, 0
2, 100500, Note_on_c, 0, 69, 0
2, 100560, Note_on_c, 0, 79, 39
2, 100560, Note_on_c, 0, 72, 33
2, 100560, Note_on_c, 0, 69, 33
2, 100620, Note_on_c, 0, 79, 0
2, 100620, Note_on_c, 0, 78, 36
2, 100680, Note_on_c, 0, 78, 0
2, 100680, Note_on_c, 0, 69, 0
2, 100680, Note_on_c, 0, 72, 0
2, 100680, Note_on_c, 0, 77, 36
2, 100800, Note_on_c, 0, 77, 0
2, 100920, Note_on_c, 0, 74, 39
2, 100920, Note_on_c, 0, 62, 33
2, 100980, Note_on_c, 0, 62, 0
2, 100980, Note_on_c, 0, 74, 0
2, 100980, Note_on_c, 0, 66, 31
2, 101040, Note_on_c, 0, 66, 0
2, 101040, Note_on_c, 0, 72, 36
2, 101040, Note_on_c, 0, 62, 30
2, 101100, Note_on_c, 0, 62, 0
2, 101100, Note_on_c, 0, 72, 0
2, 101100, Note_on_c, 0, 67, 28
2, 101160, Note_on_c, 0, 67, 0
2, 101160, Note_on_c, 0, 62, 30
2, 101160, Note_on_c, 0, 71, 36
2, 101220, Note_on_c, 0, 71, 0
2, 101220, Note_on_c, 0, 62, 0
2, 101220, Note_on_c, 0, 66, 29
2, 101280, Note_on_c, 0, 66, 0
2, 101280, Note_on_c, 0, 62, 33
2, 101280, Note_on_c, 0, 70, 39
2, 101340, Note_on_c, 0, 70, 0
2, 101340, Note_on_c, 0, 62, 0
2, 101340, Note_on_c, 0, 67, 31
2, 101400, Note_on_c, 0, 67, 0
2, 101400, Note_on_c, 0, 62, 30
2, 101400, Note_on_c, 0, 74, 36
2, 101460, Note_on_c, 0, 74, 0
2, 101460, Note_on_c, 0, 62, 0
2, 101460, Note_on_c, 0, 66, 29
2, 101520, Note_on_c, 0, 66, 0
2, 101520, Note_on_c, 0, 72, 39
2, 101520, Note_on_c, 0, 62, 33
2, 101580, Note_on_c, 0, 72, 0
2, 101580, Note_on_c, 0, 71, 36
2, 101640, Note_on_c, 0, 71, 0
2, 101640, Note_on_c, 0, 62, 0
2, 101640, Note_on_c, 0, 70, 36
2, 101760, Note_on_c, 0, 70, 0
2, 101880, Note_on_c, 0, 77, 39
2, 101880, Note_on_c, 0, 65, 33
2, 101940, Note_on_c, 0, 65, 0
2, 101940, Note_on_c, 0, 77, 0
2, 101940, Note_on_c, 0, 71, 31
2, 102000, Note_on_c, 0, 71, 0
2, 102000, Note_on_c, 0, 76, 36
2, 102000, Note_on_c, 0, 65, 30
2, 102060, Note_on_c, 0, 65, 0
2, 102060, Note_on_c, 0, 76, 0
2, 102060, Note_on_c, 0, 72, 28
2, 102120, Note_on_c, 0, 72, 0
2, 102120, Note_on_c, 0, 75, 36
2, 102120, Note_on_c, 0, 65, 30
2, 102180, Note_on_c, 0, 65, 0
2, 102180, Note_on_c, 0, 75, 0
2, 102180, Note_on_c, 0, 71, 29
2, 102240, Note_on_c, 0, 71, 0
2, 102240, Note_on_c, 0, 65, 33
2, 102240, Note_on_c, 0, 74, 39
2, 102300, Note_on_c, 0, 74, 0
2, 102300, Note_on_c, 0, 65, 0
2, 102300, Note_on_c, 0, 72, 31
2, 102360, Note_on_c, 0, 72, 0
2, 102360, Note_on_c, 0, 65, 30
2, 102360, Note_on_c, 0, 77, 36
2, 102420, Note_on_c, 0, 77, 0
2, 102420, Note_on_c, 0, 65, 0
2, 102420, Note_on_c, 0, 71, 29
2, 102480, Note_on_c, 0, 71, 0
2, 102480, Note_on_c, 0, 65, 33
2, 102480, Note_on_c, 0, 76, 39
2, 102540, Note_on_c, 0, 76, 0
2, 102540, Note_on_c, 0, 75, 36
2, 102600, Note_on_c, 0, 75, 0
2, 102600, Note_on_c, 0, 65, 0
2, 102600, Note_on_c, 0, 74, 36
2, 102720, Note_on_c, 0, 74, 0
2, 102840, Note_on_c, 0, 70, 30
2, 102840, Note_on_c, 0, 82, 37
2, 102840, Note_on_c, 0, 73, 29
2, 102900, Note_on_c, 0, 73, 0
2, 102900, Note_on_c, 0, 82, 0
2, 102900, Note_on_c, 0, 70, 0
2, 102960, Note_on_c, 0, 70, 35
2, 102960, Note_on_c, 0, 73, 35
2, 102960, Note_on_c, 0, 80, 41
2, 103020, Note_on_c, 0, 80, 0
2, 103020, Note_on_c, 0, 79, 39
2, 103080, Note_on_c, 0, 79, 0
2, 103080, Note_on_c, 0, 73, 0
2, 103080, Note_on_c, 0, 70, 0
2, 103080, Note_on_c, 0, 78, 39
2, 103200, Note_on_c, 0, 78, 0
2, 103320, Note_on_c, 0, 78, 34
2, 103320, Note_on_c, 0, 87, 42
2, 103320, Note_on_c, 0, 75, 35
2, 103380, Note_on_c, 0, 75, 0
2, 103380, Note_on_c, 0, 87, 0
2, 103380, Note_on_c, 0, 78, 0
2, 103440, Note_on_c, 0, 75, 40
2, 103440, Note_on_c, 0, 78, 40
2, 103440, Note_on_c, 0, 85, 47
2, 103500, Note_on_c, 0, 85, 0
2, 103500, Note_on_c, 0, 84, 44
2, 103560, Note_on_c, 0, 84, 0
2, 103560, Note_on_c, 0, 78, 0
2, 103560, Note_on_c, 0, 75, 0
2, 103560, Note_on_c, 0, 83, 45
2, 103680, Note_on_c, 0, 83, 0
2, 103800, Note_on_c, 0, 87, 42
2, 103800, Note_on_c, 0, 84, 42
2, 103800, Note_on_c, 0, 93, 50
2, 103860, Note_on_c, 0, 93, 0
2, 103860, Note_on_c, 0, 84, 0
2, 103860, Note_on_c, 0, 87, 0
2, 103920, Note_on_c, 0, 84, 45
2, 103920, Note_on_c, 0, 92, 54
2, 103920, Note_on_c, 0, 87, 45
2, 103980, Note_on_c, 0, 87, 0
2, 103980, Note_on_c, 0, 92, 0
2, 103980, Note_on_c, 0, 84, 0
2, 104040, Note_on_c, 0, 84, 45
2, 104040, Note_on_c, 0, 87, 45
2, 104040, Note_on_c, 0, 91, 53
2, 104100, Note_on_c, 0, 91, 0
2, 104100, Note_on_c, 0, 87, 0
2, 104100, Note_on_c, 0, 84, 0
2, 104160, Note_on_c, 0, 87, 42
2, 104160, Note_on_c, 0, 90, 50
2, 104160, Note_on_c, 0, 84, 42
2, 104220, Note_on_c, 0, 84, 0
2, 104220, Note_on_c, 0, 90, 0
2, 104220, Note_on_c, 0, 87, 0
2, 104280, Note_on_c, 0, 81, 42
2, 104280, Note_on_c, 0, 84, 42
2, 104280, Note_on_c, 0, 89, 50
2, 104340, Note_on_c, 0, 89, 0
2, 104340, Note_on_c, 0, 84, 0
2, 104340, Note_on_c, 0, 81, 0
2, 104400, Note_on_c, 0, 88, 49
2, 104400, Note_on_c, 0, 84, 41
2, 104400, Note_on_c, 0, 81, 41
2, 104460, Note_on_c, 0, 81, 0
2, 104460, Note_on_c, 0, 84, 0
2, 104460, Note_on_c, 0, 88, 0
2, 104520, Note_on_c, 0, 84, 40
2, 104520, Note_on_c, 0, 81, 40
2, 104520, Note_on_c, 0, 87, 48
2, 104580, Note_on_c, 0, 87, 0
2, 104580, Note_on_c, 0, 81, 0
2, 104580, Note_on_c, 0, 84, 0
2, 104640, Note_on_c, 0, 81, 45
2, 104640, Note_on_c, 0, 78, 45
2, 104640, Note_on_c, 0, 86, 53
2, 104700, Note_on_c, 0, 86, 0
2, 104700, Note_on_c, 0, 78, 0
2, 104700, Note_on_c, 0, 81, 0
2, 104760, Note_on_c, 0, 78, 45
2, 104760, Note_on_c, 0, 85, 54
2, 104760, Note_on_c, 0, 81, 45
2, 104820, Note_on_c, 0, 81, 0
2, 104820, Note_on_c, 0, 85, 0
2, 104820, Note_on_c, 0, 78, 0
2, 104880, Note_on_c, 0, 78, 45
2, 104880, Note_on_c, 0, 81, 45
2, 104880, Note_on_c, 0, 84, 54
2, 104940, Note_on_c, 0, 84, 0
2, 104940, Note_on_c, 0, 81, 0
2, 104940, Note_on_c, 0, 78, 0
2, 105000, Note_on_c, 0, 78, 46
2, 105000, Note_on_c, 0, 75, 46
2, 105000, Note_on_c, 0, 83, 55
2, 105060, Note_on_c, 0, 83, 0
2, 105060, Note_on_c, 0, 75, 0
2, 105060, Note_on_c, 0, 78, 0
2, 105120, Note_on_c, 0, 82, 57
2, 105120, Note_on_c, 0, 78, 46
2, 105120, Note_on_c, 0, 75, 46
2, 105180, Note_on_c, 0, 75, 0
2, 105180, Note_on_c, 0, 78, 0
2, 105180, Note_on_c, 0, 82, 0
2, 105240, Note_on_c, 0, 72, 48
2, 105240, Note_on_c, 0, 75, 48
2, 105240, Note_on_c, 0, 81, 58
2, 105300, Note_on_c, 0, 81, 0
2, 105300, Note_on_c, 0, 75, 0
2, 105300, Note_on_c, 0, 72, 0
2, 105360, Note_on_c, 0, 75, 49
2, 105360, Note_on_c, 0, 72, 49
2, 105360, Note_on_c, 0, 80, 58
2, 105420, Note_on_c, 0, 80, 0
2, 105420, Note_on_c, 0, 72, 0
2, 105420, Note_on_c, 0, 75, 0
2, 105480, Note_on_c, 0, 75, 50
2, 105480, Note_on_c, 0, 79, 59
2, 105480, Note_on_c, 0, 72, 50
2, 105540, Note_on_c, 0, 72, 0
2, 105540, Note_on_c, 0, 79, 0
2, 105540, Note_on_c, 0, 75, 0
2, 105600, Note_on_c, 0, 72, 50
2, 105600, Note_on_c, 0, 78, 62
2, 105600, Note_on_c, 0, 75, 50
2, 105660, Note_on_c, 0, 75, 0
2, 105660, Note_on_c, 0, 78, 0
2, 105660, Note_on_c, 0, 72, 0
2, 105720, Note_on_c, 0, 77, 59
2, 105720, Note_on_c, 0, 75, 50
2, 105720, Note_on_c, 0, 72, 50
2, 105780, Note_on_c, 0, 72, 0
2, 105780, Note_on_c, 0, 75, 0
2, 105780, Note_on_c, 0, 77, 0
2, 105840, Note_on_c, 0, 75, 48
2, 105840, Note_on_c, 0, 79, 58
2, 105900, Note_on_c, 0, 79, 0
2, 105900, Note_on_c, 0, 75, 0
2, 105960, Note_on_c, 0, 77, 55
2, 105960, Note_on_c, 0, 75, 46
2, 106020, Note_on_c, 0, 75, 0
2, 106020, Note_on_c, 0, 77, 0
2, 106080, Note_on_c, 0, 75, 37
2, 106080, Note_on_c, 0, 78, 45
2, 106200, Note_on_c, 0, 78, 0
2, 106200, Note_on_c, 0, 75, 0
2, 106200, Note_on_c, 0, 75, 37
2, 106200, Note_on_c, 0, 77, 37
2, 106320, Note_on_c, 0, 77, 0
2, 106320, Note_on_c, 0, 75, 0
2, 106320, Note_on_c, 0, 75, 37
2, 106320, Note_on_c, 0, 79, 45
2, 106440, Note_on_c, 0, 79, 0
2, 106440, Note_on_c, 0, 75, 0
2, 106440, Note_on_c, 0, 77, 38
2, 106440, Note_on_c, 0, 75, 32
2, 106560, Note_on_c, 0, 75, 0
2, 106560, Note_on_c, 0, 77, 0
2, 106560, Note_on_c, 0, 78, 45
2, 106560, Note_on_c, 0, 75, 37
2, 106680, Note_on_c, 0, 75, 0
2, 106680, Note_on_c, 0, 78, 0
2, 106680, Note_on_c, 0, 77, 37
2, 106680, Note_on_c, 0, 75, 31
2, 106800, Note_on_c, 0, 75, 0
2, 106800, Note_on_c, 0, 77, 0
2, 106800, Note_on_c, 0, 79, 42
2, 106800, Note_on_c, 0, 75, 35
2, 106920, Note_on_c, 0, 75, 0
2, 106920, Note_on_c, 0, 79, 0
2, 106920, Note_on_c, 0, 75, 29
2, 106920, Note_on_c, 0, 77, 36
2, 107040, Note_on_c, 0, 77, 0
2, 107040, Note_on_c, 0, 75, 0
2, 107040, Note_on_c, 0, 75, 33
2, 107040, Note_on_c, 0, 79, 39
2, 107160, Note_on_c, 0, 79, 0
2, 107160, Note_on_c, 0, 75, 0
2, 107160, Note_on_c, 0, 75, 28
2, 107160, Note_on_c, 0, 77, 33
2, 107280, Note_on_c, 0, 77, 0
2, 107280, Note_on_c, 0, 75, 0
2, 107280, Note_on_c, 0, 75, 31
2, 107280, Note_on_c, 0, 79, 37
2, 107400, Note_on_c, 0, 79, 0
2, 107400, Note_on_c, 0, 75, 0
2, 107400, Note_on_c, 0, 75, 26
2, 107400, Note_on_c, 0, 77, 31
2, 107520, Note_on_c, 0, 77, 0
2, 107520, Note_on_c, 0, 75, 0
2, 107520, Note_on_c, 0, 77, 35
2, 107520, Note_on_c, 0, 74, 28
2, 107640, Note_on_c, 0, 74, 0
2, 107640, Note_on_c, 0, 77, 0
2, 107760, Note_on_c, 0, 62, 35
2, 107820, Note_on_c, 0, 63, 35
2, 107832, Note_on_c, 0, 62, 0
2, 107880, Note_on_c, 0, 62, 35
2, 107892, Note_on_c, 0, 63, 0
2, 107940, Note_on_c, 0, 64, 35
2, 107952, Note_on_c, 0, 62, 0
2, 108000, Note_on_c, 0, 65, 36
2, 108012, Note_on_c, 0, 64, 0
2, 108060, Note_on_c, 0, 66, 36
2, 108072, Note_on_c, 0, 65, 0
2, 108120, Note_on_c, 0, 65, 36
2, 108132, Note_on_c, 0, 66, 0
2, 108180, Note_on_c, 0, 67, 36
2, 108192, Note_on_c, 0, 65, 0
2, 108240, Note_on_c, 0, 68, 36
2, 108252, Note_on_c, 0, 67, 0
2, 108300, Note_on_c, 0, 69, 36
2, 108312, Note_on_c, 0, 68, 0
2, 108360, Note_on_c, 0, 68, 37
2, 108372, Note_on_c, 0, 69, 0
2, 108420, Note_on_c, 0, 70, 37
2, 108432, Note_on_c, 0, 68, 0
2, 108480, Note_on_c, 0, 71, 37
2, 108492, Note_on_c, 0, 70, 0
2, 108540, Note_on_c, 0, 72, 37
2, 108552, Note_on_c, 0, 71, 0
2, 108600, Note_on_c, 0, 71, 38
2, 108612, Note_on_c, 0, 72, 0
2, 108660, Note_on_c, 0, 73, 38
2, 108672, Note_on_c, 0, 71, 0
2, 108720, Note_on_c, 0, 74, 38
2, 108732, Note_on_c, 0, 73, 0
2, 108780, Note_on_c, 0, 75, 39
2, 108792, Note_on_c, 0, 74, 0
2, 108840, Note_on_c, 0, 74, 39
2, 108852, Note_on_c, 0, 75, 0
2, 108900, Note_on_c, 0, 76, 39
2, 108912, Note_on_c, 0, 74, 0
2, 108960, Note_on_c, 0, 77, 39
2, 108972, Note_on_c, 0, 76, 0
2, 109020, Note_on_c, 0, 78, 38
2, 109032, Note_on_c, 0, 77, 0
2, 109080, Note_on_c, 0, 77, 38
2, 109092, Note_on_c, 0, 78, 0
2, 109140, Note_on_c, 0, 79, 38
2, 109152, Note_on_c, 0, 77, 0
2, 109200, Note_on_c, 0, 80, 38
2, 109212, Note_on_c, 0, 79, 0
2, 109260, Note_on_c, 0, 81, 39
2, 109272, Note_on_c, 0, 80, 0
2, 109320, Note_on_c, 0, 80, 39
2, 109332, Note_on_c, 0, 81, 0
2, 109380, Note_on_c, 0, 83, 39
2, 109392, Note_on_c, 0, 80, 0
2, 109440, Note_on_c, 0, 86, 39
2, 109452, Note_on_c, 0, 83, 0
2, 109500, Note_on_c, 0, 86, 0
2, 109500, Note_on_c, 0, 87, 41
2, 109560, Note_on_c, 0, 87, 0
2, 109560, Note_on_c, 0, 86, 41
2, 109620, Note_on_c, 0, 86, 0
2, 109620, Note_on_c, 0, 89, 41
2, 109680, Note_on_c, 0, 89, 0
2, 109680, Note_on_c, 0, 90, 41
2, 109740, Note_on_c, 0, 90, 0
2, 109740, Note_on_c, 0, 91, 42
2, 109800, Note_on_c, 0, 91, 0
2, 109800, Note_on_c, 0, 90, 42
2, 109860, Note_on_c, 0, 90, 0
2, 109860, Note_on_c, 0, 92, 42
2, 109920, Note_on_c, 0, 92, 0
2, 109920, Note_on_c, 0, 93, 43
2, 109980, Note_on_c, 0, 93, 0
2, 109980, Note_on_c, 0, 94, 43
2, 110040, Note_on_c, 0, 94, 0
2, 110040, Note_on_c, 0, 93, 43
2, 110100, Note_on_c, 0, 93, 0
2, 110100, Note_on_c, 0, 97, 43
2, 110160, Note_on_c, 0, 97, 0
2, 110160, Note_on_c, 0, 98, 44
2, 110220, Note_on_c, 0, 98, 0
2, 110220, Note_on_c, 0, 97, 44
2, 110280, Note_on_c, 0, 97, 0
2, 110280, Note_on_c, 0, 98, 44
2, 110340, Note_on_c, 0, 98, 0
2, 110340, Note_on_c, 0, 97, 44
2, 110400, Note_on_c, 0, 97, 0
2, 110400, Note_on_c, 0, 96, 45
2, 110400, Note_on_c, 0, 99, 55
2, 110460, Note_on_c, 0, 96, 0
2, 110460, Note_on_c, 0, 95, 39
2, 110520, Note_on_c, 0, 95, 0
2, 110520, Note_on_c, 0, 96, 39
2, 110580, Note_on_c, 0, 96, 0
2, 110580, Note_on_c, 0, 94, 39
2, 110640, Note_on_c, 0, 94, 0
2, 110640, Note_on_c, 0, 99, 0
2, 110640, Note_on_c, 0, 93, 39
2, 110700, Note_on_c, 0, 93, 0
2, 110700, Note_on_c, 0, 91, 39
2, 110760, Note_on_c, 0, 91, 0
2, 110760, Note_on_c, 0, 92, 39
2, 110820, Note_on_c, 0, 92, 0
2, 110820, Note_on_c, 0, 90, 39
2, 110880, Note_on_c, 0, 90, 0
2, 110880, Note_on_c, 0, 89, 45
2, 110880, Note_on_c, 0, 101, 54
2, 110940, Note_on_c, 0, 89, 0
2, 110940, Note_on_c, 0, 88, 39
2, 111000, Note_on_c, 0, 88, 0
2, 111000, Note_on_c, 0, 89, 39
2, 111060, Note_on_c, 0, 89, 0
2, 111060, Note_on_c, 0, 87, 39
2, 111120, Note_on_c, 0, 87, 0
2, 111120, Note_on_c, 0, 101, 0
2, 111120, Note_on_c, 0, 86, 39
2, 111180, Note_on_c, 0, 86, 0
2, 111180, Note_on_c, 0, 85, 39
2, 111240, Note_on_c, 0, 85, 0
2, 111240, Note_on_c, 0, 84, 39
2, 111300, Note_on_c, 0, 84, 0
2, 111300, Note_on_c, 0, 83, 39
2, 111340, Note_on_c, 0, 83, 0
2, 111350, Note_on_c, 0, 82, 49
2, 111360, Note_on_c, 0, 98, 58
2, 111420, Note_on_c, 0, 98, 0
2, 111420, Note_on_c, 0, 82, 0
2, 111840, Note_on_c, 0, 53, 30
2, 111840, Note_on_c, 0, 62, 30
2, 111840, Note_on_c, 0, 59, 30
2, 111840, Note_on_c, 0, 56, 30
2, 112320, Note_on_c, 0, 56, 0
2, 112320, Note_on_c, 0, 53, 0
2, 112320, Note_on_c, 0, 62, 0
2, 112320, Note_on_c, 0, 59, 0
2, 112440, Note_on_c, 0, 86, 46
2, 112440, Note_on_c, 0, 80, 33
2, 112440, Note_on_c, 0, 77, 33
2, 112500, Note_on_c, 0, 77, 0
2, 112500, Note_on_c, 0, 80, 0
2, 112500, Note_on_c, 0, 86, 0
2, 112560, Note_on_c, 0, 85, 46
2, 112560, Note_on_c, 0, 80, 33
2, 112560, Note_on_c, 0, 77, 33
2, 112620, Note_on_c, 0, 77, 0
2, 112620, Note_on_c, 0, 80, 0
2, 112620, Note_on_c, 0, 85, 0
2, 112680, Note_on_c, 0, 77, 33
2, 112680, Note_on_c, 0, 84, 46
2, 112680, Note_on_c, 0, 80, 33
2, 112740, Note_on_c, 0, 80, 0
2, 112740, Note_on_c, 0, 84, 0
2, 112740, Note_on_c, 0, 77, 0
2, 112800, Note_on_c, 0, 83, 46
2, 112800, Note_on_c, 0, 80, 33
2, 112800, Note_on_c, 0, 74, 33
2, 112860, Note_on_c, 0, 83, 0
2, 112920, Note_on_c, 0, 86, 49
2, 112980, Note_on_c, 0, 86, 0
2, 113040, Note_on_c, 0, 74, 0
2, 113040, Note_on_c, 0, 80, 0
2, 113040, Note_on_c, 0, 74, 27
2, 113040, Note_on_c, 0, 85, 50
2, 113040, Note_on_c, 0, 77, 29
2, 113100, Note_on_c, 0, 77, 0
2, 113100, Note_on_c, 0, 85, 0
2, 113100, Note_on_c, 0, 74, 0
2, 113100, Note_on_c, 0, 84, 46
2, 113160, Note_on_c, 0, 84, 0
2, 113160, Note_on_c, 0, 83, 46
2, 113220, Note_on_c, 0, 83, 0
2, 113280, Note_on_c, 0, 86, 30
2, 113280, Note_on_c, 0, 78, 30
2, 113280, Note_on_c, 0, 93, 38
2, 113400, Note_on_c, 0, 93, 0
2, 113400, Note_on_c, 0, 78, 0
2, 113400, Note_on_c, 0, 86, 0
2, 114240, Note_on_c, 0, 96, 38
2, 114240, Note_on_c, 0, 87, 30
2, 114240, Note_on_c, 0, 79, 30
2, 114360, Note_on_c, 0, 79, 0
2, 114360, Note_on_c, 0, 87, 0
2, 114360, Note_on_c, 0, 96, 0
2, 114720, Note_on_c, 0, 87, 30
2, 114720, Note_on_c, 0, 93, 30
2, 114720, Note_on_c, 0, 101, 38
2, 114840, Note_on_c, 0, 101, 0
2, 114840, Note_on_c, 0, 93, 0
2, 114840, Note_on_c, 0, 87, 0
2, 115200, Note_on_c, 0, 86, 30
2, 115200, Note_on_c, 0, 101, 38
2, 115200, Note_on_c, 0, 94, 30
2, 115260, Note_on_c, 0, 94, 0
2, 115260, Note_on_c, 0, 101, 0
2, 115260, Note_on_c, 0, 86, 0
2, 115320, Note_on_c, 0, 50, 31
2, 115380, Note_on_c, 0, 50, 0
2, 115440, Note_on_c, 0, 48, 36
2, 115500, Note_on_c, 0, 48, 0
2, 115560, Note_on_c, 0, 47, 32
2, 115620, Note_on_c, 0, 47, 0
2, 115680, Note_on_c, 0, 46, 36
2, 115740, Note_on_c, 0, 46, 0
2, 115800, Note_on_c, 0, 50, 32
2, 115860, Note_on_c, 0, 50, 0
2, 115920, Note_on_c, 0, 48, 36
2, 115980, Note_on_c, 0, 48, 0
2, 115980, Note_on_c, 0, 47, 31
2, 116040, Note_on_c, 0, 47, 0
2, 116040, Note_on_c, 0, 46, 31
2, 116100, Note_on_c, 0, 46, 0
2, 116280, Note_on_c, 0, 87, 37
2, 116340, Note_on_c, 0, 87, 0
2, 116340, Note_on_c, 0, 84, 37
2, 116400, Note_on_c, 0, 84, 0
2, 116400, Note_on_c, 0, 80, 36
2, 116460, Note_on_c, 0, 80, 0
2, 116460, Note_on_c, 0, 77, 36
2, 116520, Note_on_c, 0, 77, 0
2, 116520, Note_on_c, 0, 81, 36
2, 116580, Note_on_c, 0, 81, 0
2, 116580, Note_on_c, 0, 78, 35
2, 116640, Note_on_c, 0, 78, 0
2, 116640, Note_on_c, 0, 74, 35
2, 116700, Note_on_c, 0, 74, 0
2, 116700, Note_on_c, 0, 71, 33
2, 116760, Note_on_c, 0, 71, 0
2, 116760, Note_on_c, 0, 75, 33
2, 116820, Note_on_c, 0, 75, 0
2, 116820, Note_on_c, 0, 72, 32
2, 116880, Note_on_c, 0, 72, 0
2, 116880, Note_on_c, 0, 68, 32
2, 116940, Note_on_c, 0, 68, 0
2, 116940, Note_on_c, 0, 65, 31
2, 117000, Note_on_c, 0, 65, 0
2, 117000, Note_on_c, 0, 69, 30
2, 117060, Note_on_c, 0, 69, 0
2, 117060, Note_on_c, 0, 78, 30
2, 117120, Note_on_c, 0, 78, 0
2, 117120, Note_on_c, 0, 77, 38
2, 117120, Note_on_c, 0, 70, 38
2, 117240, Note_on_c, 0, 70, 0
2, 117240, Note_on_c, 0, 77, 0
2, 117240, Note_on_c, 0, 50, 31
2, 117300, Note_on_c, 0, 50, 0
2, 117360, Note_on_c, 0, 48, 36
2, 117420, Note_on_c, 0, 48, 0
2, 117480, Note_on_c, 0, 47, 32
2, 117540, Note_on_c, 0, 47, 0
2, 117600, Note_on_c, 0, 46, 36
2, 117660, Note_on_c, 0, 46, 0
2, 117720, Note_on_c, 0, 50, 32
2, 117780, Note_on_c, 0, 50, 0
2, 117840, Note_on_c, 0, 48, 36
2, 117900, Note_on_c, 0, 48, 0
2, 117900, Note_on_c, 0, 47, 31
2, 117960, Note_on_c, 0, 47, 0
2, 117960, Note_on_c, 0, 46, 31
2, 118020, Note_on_c, 0, 46, 0
2, 118200, Note_on_c, 0, 87, 37
2, 118260, Note_on_c, 0, 87, 0
2, 118260, Note_on_c, 0, 84, 37
2, 118320, Note_on_c, 0, 84, 0
2, 118320, Note_on_c, 0, 80, 36
2, 118380, Note_on_c, 0, 80, 0
2, 118380, Note_on_c, 0, 77, 36
2, 118440, Note_on_c, 0, 77, 0
2, 118440, Note_on_c, 0, 81, 36
2, 118500, Note_on_c, 0, 81, 0
2, 118500, Note_on_c, 0, 78, 35
2, 118560, Note_on_c, 0, 78, 0
2, 118560, Note_on_c, 0, 74, 35
2, 118620, Note_on_c, 0, 74, 0
2, 118620, Note_on_c, 0, 71, 33
2, 118680, Note_on_c, 0, 71, 0
2, 118680, Note_on_c, 0, 75, 33
2, 118740, Note_on_c, 0, 75, 0
2, 118740, Note_on_c, 0, 72, 32
2, 118800, Note_on_c, 0, 72, 0
2, 118800, Note_on_c, 0, 68, 32
2, 118860, Note_on_c, 0, 68, 0
2, 118860, Note_on_c, 0, 65, 31
2, 118920, Note_on_c, 0, 65, 0
2, 118920, Note_on_c, 0, 69, 30
2, 118980, Note_on_c, 0, 69, 0
2, 118980, Note_on_c, 0, 78, 30
2, 119019, Note_on_c, 0, 78, 0
2, 119040, Note_on_c, 0, 60, 36
2, 119040, Note_on_c, 0, 66, 36
2, 119100, Note_on_c, 0, 66, 0
2, 119100, Note_on_c, 0, 60, 0
2, 119160, Note_on_c, 0, 90, 41
2, 119220, Note_on_c, 0, 90, 0
2, 119220, Note_on_c, 0, 87, 41
2, 119280, Note_on_c, 0, 87, 0
2, 119280, Note_on_c, 0, 83, 39
2, 119340, Note_on_c, 0, 83, 0
2, 119340, Note_on_c, 0, 80, 39
2, 119400, Note_on_c, 0, 80, 0
2, 119400, Note_on_c, 0, 84, 38
2, 119460, Note_on_c, 0, 84, 0
2, 119460, Note_on_c, 0, 81, 37
2, 119520, Note_on_c, 0, 81, 0
2, 119520, Note_on_c, 0, 77, 37
2, 119580, Note_on_c, 0, 77, 0
2, 119580, Note_on_c, 0, 74, 36
2, 119640, Note_on_c, 0, 74, 0
2, 119640, Note_on_c, 0, 78, 36
2, 119700, Note_on_c, 0, 78, 0
2, 119700, Note_on_c, 0, 75, 36
2, 119760, Note_on_c, 0, 75, 0
2, 119760, Note_on_c, 0, 71, 36
2, 119820, Note_on_c, 0, 71, 0
2, 119820, Note_on_c, 0, 68, 35
2, 119880, Note_on_c, 0, 68, 0
2, 119880, Note_on_c, 0, 72, 33
2, 119940, Note_on_c, 0, 72, 0
2, 119940, Note_on_c, 0, 81, 33
2, 120000, Note_on_c, 0, 81, 0
2, 120000, Note_on_c, 0, 69, 36
2, 120000, Note_on_c, 0, 63, 36
2, 120060, Note_on_c, 0, 63, 0
2, 120060, Note_on_c, 0, 69, 0
2, 120120, Note_on_c, 0, 93, 41
2, 120180, Note_on_c, 0, 93, 0
2, 120180, Note_on_c, 0, 90, 41
2, 120240, Note_on_c, 0, 90, 0
2, 120240, Note_on_c, 0, 86, 39
2, 120300, Note_on_c, 0, 86, 0
2, 120300, Note_on_c, 0, 83, 39
2, 120360, Note_on_c, 0, 83, 0
2, 120360, Note_on_c, 0, 87, 38
2, 120420, Note_on_c, 0, 87, 0
2, 120420, Note_on_c, 0, 84, 37
2, 120480, Note_on_c, 0, 84, 0
2, 120480, Note_on_c, 0, 96, 37
2, 120540, Note_on_c, 0, 96, 0
2, 120540, Note_on_c, 0, 93, 36
2, 120600, Note_on_c, 0, 93, 0
2, 120600, Note_on_c, 0, 89, 36
2, 120660, Note_on_c, 0, 89, 0
2, 120660, Note_on_c, 0, 86, 36
2, 120720, Note_on_c, 0, 86, 0
2, 120720, Note_on_c, 0, 90, 36
2, 120780, Note_on_c, 0, 90, 0
2, 120780, Note_on_c, 0, 87, 35
2, 120840, Note_on_c, 0, 87, 0
2, 120840, Note_on_c, 0, 99, 33
2, 120900, Note_on_c, 0, 99, 0
2, 120900, Note_on_c, 0, 96, 33
2, 120960, Note_on_c, 0, 96, 0
2, 120960, Note_on_c, 0, 92, 41
2, 121020, Note_on_c, 0, 92, 0
2, 121020, Note_on_c, 0, 89, 36
2, 121080, Note_on_c, 0, 89, 0
2, 121080, Note_on_c, 0, 93, 42
2, 121140, Note_on_c, 0, 93, 0
2, 121140, Note_on_c, 0, 90, 36
2, 121200, Note_on_c, 0, 90, 0
2, 121200, Note_on_c, 0, 100, 38
2, 121260, Note_on_c, 0, 100, 0
2, 121260, Note_on_c, 0, 87, 31
2, 121320, Note_on_c, 0, 87, 0
2, 121320, Note_on_c, 0, 101, 36
2, 121380, Note_on_c, 0, 101, 0
2, 121380, Note_on_c, 0, 87, 27
2, 121440, Note_on_c, 0, 87, 0
2, 121440, Note_on_c, 0, 100, 45
2, 121500, Note_on_c, 0, 100, 0
2, 121500, Note_on_c, 0, 87, 27
2, 121560, Note_on_c, 0, 87, 0
2, 121560, Note_on_c, 0, 101, 42
2, 121620, Note_on_c, 0, 101, 0
2, 121620, Note_on_c, 0, 87, 29
2, 121680, Note_on_c, 0, 87, 0
2, 121680, Note_on_c, 0, 100, 37
2, 121740, Note_on_c, 0, 100, 0
2, 121740, Note_on_c, 0, 87, 29
2, 121800, Note_on_c, 0, 87, 0
2, 121800, Note_on_c, 0, 101, 37
2, 121860, Note_on_c, 0, 101, 0
2, 121860, Note_on_c, 0, 87, 29
2, 121920, Note_on_c, 0, 87, 0
2, 121920, Note_on_c, 0, 101, 43
2, 122040, Note_on_c, 0, 101, 0
2, 122040, Note_on_c, 0, 90, 28
2, 122040, Note_on_c, 0, 98, 35
2, 122100, Note_on_c, 0, 98, 0
2, 122100, Note_on_c, 0, 90, 0
2, 122100, Note_on_c, 0, 94, 31
2, 122100, Note_on_c, 0, 89, 26
2, 122160, Note_on_c, 0, 89, 0
2, 122160, Note_on_c, 0, 94, 0
2, 122160, Note_on_c, 0, 86, 25
2, 122160, Note_on_c, 0, 90, 30
2, 122220, Note_on_c, 0, 90, 0
2, 122220, Note_on_c, 0, 86, 0
2, 122220, Note_on_c, 0, 89, 29
2, 122220, Note_on_c, 0, 82, 24
2, 122280, Note_on_c, 0, 82, 0
2, 122280, Note_on_c, 0, 89, 0
2, 122280, Note_on_c, 0, 78, 23
2, 122280, Note_on_c, 0, 86, 28
2, 122340, Note_on_c, 0, 86, 0
2, 122340, Note_on_c, 0, 78, 0
2, 122340, Note_on_c, 0, 82, 28
2, 122340, Note_on_c, 0, 77, 23
2, 122400, Note_on_c, 0, 77, 0
2, 122400, Note_on_c, 0, 82, 0
2, 122400, Note_on_c, 0, 78, 27
2, 122400, Note_on_c, 0, 74, 22
2, 122460, Note_on_c, 0, 74, 0
2, 122460, Note_on_c, 0, 78, 0
2, 122460, Note_on_c, 0, 77, 28
2, 122460, Note_on_c, 0, 70, 23
2, 122520, Note_on_c, 0, 70, 0
2, 122520, Note_on_c, 0, 77, 0
2, 122520, Note_on_c, 0, 78, 29
2, 122520, Note_on_c, 0, 74, 24
2, 122580, Note_on_c, 0, 74, 0
2, 122580, Note_on_c, 0, 78, 0
2, 122580, Note_on_c, 0, 77, 25
2, 122580, Note_on_c, 0, 82, 30
2, 122640, Note_on_c, 0, 82, 0
2, 122640, Note_on_c, 0, 77, 0
2, 122640, Note_on_c, 0, 86, 31
2, 122640, Note_on_c, 0, 78, 26
2, 122700, Note_on_c, 0, 78, 0
2, 122700, Note_on_c, 0, 86, 0
2, 122700, Note_on_c, 0, 82, 27
2, 122700, Note_on_c, 0, 89, 32
2, 122760, Note_on_c, 0, 89, 0
2, 122760, Note_on_c, 0, 82, 0
2, 122760, Note_on_c, 0, 90, 33
2, 122760, Note_on_c, 0, 86, 28
2, 122820, Note_on_c, 0, 86, 0
2, 122820, Note_on_c, 0, 90, 0
2, 122820, Note_on_c, 0, 94, 35
2, 122820, Note_on_c, 0, 89, 28
2, 122880, Note_on_c, 0, 89, 0
2, 122880, Note_on_c, 0, 94, 0
2, 122880, Note_on_c, 0, 82, 29
2, 122880, Note_on_c, 0, 98, 36
2, 122940, Note_on_c, 0, 98, 0
2, 122940, Note_on_c, 0, 82, 0
2, 123000, Note_on_c, 0, 86, 32
2, 123000, Note_on_c, 0, 78, 27
2, 123060, Note_on_c, 0, 78, 0
2, 123060, Note_on_c, 0, 86, 0
2, 123060, Note_on_c, 0, 82, 29
2, 123060, Note_on_c, 0, 77, 24
2, 123120, Note_on_c, 0, 77, 0
2, 123120, Note_on_c, 0, 82, 0
2, 123120, Note_on_c, 0, 74, 23
2, 123120, Note_on_c, 0, 78, 28
2, 123180, Note_on_c, 0, 78, 0
2, 123180, Note_on_c, 0, 74, 0
2, 123180, Note_on_c, 0, 70, 22
2, 123180, Note_on_c, 0, 77, 28
2, 123240, Note_on_c, 0, 77, 0
2, 123240, Note_on_c, 0, 70, 0
2, 123240, Note_on_c, 0, 74, 27
2, 123240, Note_on_c, 0, 66, 22
2, 123300, Note_on_c, 0, 66, 0
2, 123300, Note_on_c, 0, 74, 0
2, 123300, Note_on_c, 0, 65, 22
2, 123300, Note_on_c, 0, 70, 26
2, 123360, Note_on_c, 0, 70, 0
2, 123360, Note_on_c, 0, 65, 0
2, 123360, Note_on_c, 0, 62, 21
2, 123360, Note_on_c, 0, 66, 25
2, 123420, Note_on_c, 0, 66, 0
2, 123420, Note_on_c, 0, 62, 0
2, 123420, Note_on_c, 0, 65, 26
2, 123420, Note_on_c, 0, 58, 22
2, 123480, Note_on_c, 0, 58, 0
2, 123480, Note_on_c, 0, 65, 0
2, 123480, Note_on_c, 0, 62, 22
2, 123480, Note_on_c, 0, 66, 28
2, 123540, Note_on_c, 0, 66, 0
2, 123540, Note_on_c, 0, 62, 0
2, 123540, Note_on_c, 0, 70, 28
2, 123540, Note_on_c, 0, 65, 23
2, 123600, Note_on_c, 0, 65, 0
2, 123600, Note_on_c, 0, 70, 0
2, 123600, Note_on_c, 0, 66, 24
2, 123600, Note_on_c, 0, 74, 29
2, 123660, Note_on_c, 0, 74, 0
2, 123660, Note_on_c, 0, 66, 0
2, 123660, Note_on_c, 0, 77, 30
2, 123660, Note_on_c, 0, 70, 25
2, 123720, Note_on_c, 0, 70, 0
2, 123720, Note_on_c, 0, 77, 0
2, 123720, Note_on_c, 0, 78, 31
2, 123720, Note_on_c, 0, 74, 26
2, 123780, Note_on_c, 0, 74, 0
2, 123780, Note_on_c, 0, 78, 0
2, 123780, Note_on_c, 0, 77, 27
2, 123780, Note_on_c, 0, 82, 32
2, 123840, Note_on_c, 0, 82, 0
2, 123840, Note_on_c, 0, 77, 0
2, 123840, Note_on_c, 0, 86, 33
2, 123840, Note_on_c, 0, 70, 28
2, 123900, Note_on_c, 0, 70, 0
2, 123900, Note_on_c, 0, 86, 0
2, 123960, Note_on_c, 0, 74, 29
2, 123960, Note_on_c, 0, 66, 29
2, 124020, Note_on_c, 0, 66, 0
2, 124020, Note_on_c, 0, 74, 0
2, 124020, Note_on_c, 0, 70, 28
2, 124020, Note_on_c, 0, 65, 28
2, 124080, Note_on_c, 0, 65, 0
2, 124080, Note_on_c, 0, 70, 0
2, 124080, Note_on_c, 0, 62, 27
2, 124080, Note_on_c, 0, 66, 27
2, 124140, Note_on_c, 0, 66, 0
2, 124140, Note_on_c, 0, 62, 0
2, 124140, Note_on_c, 0, 58, 26
2, 124140, Note_on_c, 0, 65, 26
2, 124200, Note_on_c, 0, 65, 0
2, 124200, Note_on_c, 0, 58, 0
2, 124200, Note_on_c, 0, 54, 24
2, 124200, Note_on_c, 0, 62, 24
2, 124260, Note_on_c, 0, 62, 0
2, 124260, Note_on_c, 0, 54, 0
2, 124260, Note_on_c, 0, 53, 23
2, 124260, Note_on_c, 0, 58, 23
2, 124320, Note_on_c, 0, 58, 0
2, 124320, Note_on_c, 0, 53, 0
2, 124320, Note_on_c, 0, 62, 22
2, 124320, Note_on_c, 0, 54, 22
2, 124380, Note_on_c, 0, 54, 0
2, 124380, Note_on_c, 0, 62, 0
2, 124380, Note_on_c, 0, 58, 21
2, 124380, Note_on_c, 0, 65, 21
2, 124440, Note_on_c, 0, 65, 0
2, 124440, Note_on_c, 0, 58, 0
2, 124440, Note_on_c, 0, 62, 21
2, 124440, Note_on_c, 0, 66, 21
2, 124500, Note_on_c, 0, 66, 0
2, 124500, Note_on_c, 0, 62, 0
2, 124500, Note_on_c, 0, 70, 22
2, 124500, Note_on_c, 0, 65, 22
2, 124560, Note_on_c, 0, 65, 0
2, 124560, Note_on_c, 0, 70, 0
2, 124560, Note_on_c, 0, 74, 22
2, 124560, Note_on_c, 0, 66, 22
2, 124620, Note_on_c, 0, 66, 0
2, 124620, Note_on_c, 0, 74, 0
2, 124620, Note_on_c, 0, 70, 24
2, 124620, Note_on_c, 0, 77, 24
2, 124680, Note_on_c, 0, 77, 0
2, 124680, Note_on_c, 0, 70, 0
2, 124680, Note_on_c, 0, 74, 26
2, 124680, Note_on_c, 0, 78, 26
2, 124740, Note_on_c, 0, 78, 0
2, 124740, Note_on_c, 0, 74, 0
2, 124740, Note_on_c, 0, 77, 27
2, 124740, Note_on_c, 0, 82, 27
2, 124800, Note_on_c, 0, 82, 0
2, 124800, Note_on_c, 0, 77, 0
2, 124800, Note_on_c, 0, 86, 28
2, 124800, Note_on_c, 0, 78, 28
2, 124860, Note_on_c, 0, 78, 0
2, 124860, Note_on_c, 0, 86, 0
2, 124860, Note_on_c, 0, 82, 29
2, 124860, Note_on_c, 0, 89, 29
2, 124920, Note_on_c, 0, 89, 0
2, 124920, Note_on_c, 0, 82, 0
2, 124920, Note_on_c, 0, 86, 30
2, 124920, Note_on_c, 0, 90, 30
2, 124980, Note_on_c, 0, 90, 0
2, 124980, Note_on_c, 0, 86, 0
2, 124980, Note_on_c, 0, 94, 32
2, 124980, Note_on_c, 0, 89, 32
2, 125040, Note_on_c, 0, 89, 0
2, 125040, Note_on_c, 0, 94, 0
2, 125040, Note_on_c, 0, 90, 28
2, 125040, Note_on_c, 0, 98, 35
2, 125100, Note_on_c, 0, 98, 0
2, 125100, Note_on_c, 0, 90, 0
2, 125100, Note_on_c, 0, 94, 28
2, 125100, Note_on_c, 0, 89, 22
2, 125160, Note_on_c, 0, 89, 0
2, 125160, Note_on_c, 0, 94, 0
2, 125160, Note_on_c, 0, 90, 26
2, 125160, Note_on_c, 0, 86, 22
2, 125220, Note_on_c, 0, 86, 0
2, 125220, Note_on_c, 0, 90, 0
2, 125220, Note_on_c, 0, 82, 22
2, 125220, Note_on_c, 0, 89, 26
2, 125280, Note_on_c, 0, 89, 0
2, 125280, Note_on_c, 0, 82, 0
2, 125280, Note_on_c, 0, 90, 27
2, 125280, Note_on_c, 0, 98, 32
2, 125340, Note_on_c, 0, 98, 0
2, 125340, Note_on_c, 0, 90, 0
2, 125340, Note_on_c, 0, 89, 21
2, 125340, Note_on_c, 0, 94, 26
2, 125400, Note_on_c, 0, 94, 0
2, 125400, Note_on_c, 0, 89, 0
2, 125400, Note_on_c, 0, 86, 21
2, 125400, Note_on_c, 0, 90, 24
2, 125460, Note_on_c, 0, 90, 0
2, 125460, Note_on_c, 0, 86, 0
2, 125460, Note_on_c, 0, 82, 21
2, 125460, Note_on_c, 0, 89, 24
2, 125520, Note_on_c, 0, 89, 0
2, 125520, Note_on_c, 0, 82, 0
2, 125520, Note_on_c, 0, 98, 31
2, 125520, Note_on_c, 0, 90, 25
2, 125580, Note_on_c, 0, 90, 0
2, 125580, Note_on_c, 0, 98, 0
2, 125580, Note_on_c, 0, 94, 24
2, 125580, Note_on_c, 0, 89, 20
2, 125640, Note_on_c, 0, 89, 0
2, 125640, Note_on_c, 0, 94, 0
2, 125640, Note_on_c, 0, 90, 24
2, 125640, Note_on_c, 0, 86, 20
2, 125700, Note_on_c, 0, 86, 0
2, 125700, Note_on_c, 0, 90, 0
2, 125700, Note_on_c, 0, 89, 23
2, 125700, Note_on_c, 0, 82, 20
2, 125760, Note_on_c, 0, 82, 0
2, 125760, Note_on_c, 0, 89, 0
2, 125760, Note_on_c, 0, 98, 29
2, 125760, Note_on_c, 0, 90, 24
2, 125820, Note_on_c, 0, 90, 0
2, 125820, Note_on_c, 0, 98, 0
2, 125820, Note_on_c, 0, 94, 23
2, 125820, Note_on_c, 0, 89, 18
2, 125880, Note_on_c, 0, 89, 0
2, 125880, Note_on_c, 0, 94, 0
2, 125880, Note_on_c, 0, 90, 22
2, 125880, Note_on_c, 0, 86, 18
2, 125940, Note_on_c, 0, 86, 0
2, 125940, Note_on_c, 0, 90, 0
2, 125940, Note_on_c, 0, 89, 22
2, 125940, Note_on_c, 0, 82, 18
2, 126000, Note_on_c, 0, 82, 0
2, 126000, Note_on_c, 0, 89, 0
2, 126000, Note_on_c, 0, 98, 28
2, 126000, Note_on_c, 0, 90, 22
2, 126060, Note_on_c, 0, 90, 0
2, 126060, Note_on_c, 0, 98, 0
2, 126060, Note_on_c, 0, 89, 18
2, 126060, Note_on_c, 0, 94, 22
2, 126120, Note_on_c, 0, 94, 0
2, 126120, Note_on_c, 0, 89, 0
2, 126120, Note_on_c, 0, 86, 18
2, 126120, Note_on_c, 0, 90, 22
2, 126180, Note_on_c, 0, 90, 0
2, 126180, Note_on_c, 0, 86, 0
2, 126180, Note_on_c, 0, 89, 22
2, 126180, Note_on_c, 0, 82, 18
2, 126240, Note_on_c, 0, 82, 0
2, 126240, Note_on_c, 0, 89, 0
2, 126330, Note_on_c, 0, 86, 32
2, 126360, Note_on_c, 0, 94, 38
2, 126390, Note_on_c, 0, 101, 43
2, 126480, Note_on_c, 0, 101, 0
2, 126480, Note_on_c, 0, 94, 0
2, 126480, Note_on_c, 0, 86, 0
2, 126480, End_track
3, 0, Start_track
3, 0, Title_t, "Piano left"
3, 0, Program_c, 0, 0
3, 0, Control_c, 0, 91, 127
3, 1350, Note_on_c, 0, 53, 33
3, 1380, Note_on_c, 0, 59, 37
3, 1410, Note_on_c, 0, 62, 41
3, 1440, Note_on_c, 0, 68, 51
3, 1890, Note_on_c, 0, 60, 29
3, 1920, Note_on_c, 0, 62, 0
3, 1920, Note_on_c, 0, 59, 0
3, 1920, Note_on_c, 0, 63, 41
3, 2160, Note_on_c, 0, 68, 0
3, 2160, Note_on_c, 0, 67, 44
3, 2400, Note_on_c, 0, 67, 0
3, 2400, Note_on_c, 0, 63, 48
3, 2610, Note_on_c, 0, 60, 0
3, 2640, Note_on_c, 0, 63, 0
3, 2640, Note_on_c, 0, 60, 44
3, 2880, Note_on_c, 0, 60, 0
3, 2880, Note_on_c, 0, 53, 0
3, 2880, Note_on_c, 0, 63, 0
3, 4200, Note_on_c, 0, 53, 31
3, 4230, Note_on_c, 0, 57, 33
3, 4260, Note_on_c, 0, 60, 36
3, 4290, Note_on_c, 0, 63, 38
3, 4320, Note_on_c, 0, 66, 41
3, 4710, Note_on_c, 0, 63, 0
3, 4710, Note_on_c, 0, 60, 0
3, 4710, Note_on_c, 0, 57, 0
3, 4770, Note_on_c, 0, 58, 32
3, 4800, Note_on_c, 0, 62, 43
3, 5040, Note_on_c, 0, 65, 31
3, 5280, Note_on_c, 0, 65, 0
3, 5280, Note_on_c, 0, 66, 0
3, 5280, Note_on_c, 0, 62, 0
3, 5280, Note_on_c, 0, 61, 41
3, 5520, Note_on_c, 0, 61, 0
3, 5520, Note_on_c, 0, 58, 30
3, 5670, Note_on_c, 0, 58, 0
3, 5670, Note_on_c, 0, 58, 0
3, 5670, Note_on_c, 0, 53, 0
3, 5670, Note_on_c, 0, 53, 30
3, 5700, Note_on_c, 0, 55, 30
3, 5730, Note_on_c, 0, 58, 30
3, 5760, Note_on_c, 0, 61, 30
3, 6000, Note_on_c, 0, 61, 0
3, 6000, Note_on_c, 0, 53, 0
3, 6000, Note_on_c, 0, 55, 0
3, 6000, Note_on_c, 0, 58, 0
3, 6240, Note_on_c, 0, 88, 30
3, 6240, Note_on_c, 0, 91, 30
3, 6300, Note_on_c, 0, 91, 0
3, 6300, Note_on_c, 0, 88, 0
3, 6360, Note_on_c, 0, 81, 26
3, 6360, Note_on_c, 0, 84, 26
3, 6420, Note_on_c, 0, 84, 0
3, 6420, Note_on_c, 0, 81, 0
3, 6480, Note_on_c, 0, 85, 26
3, 6480, Note_on_c, 0, 82, 26
3, 6540, Note_on_c, 0, 82, 0
3, 6540, Note_on_c, 0, 85, 0
3, 6600, Note_on_c, 0, 75, 26
3, 6600, Note_on_c, 0, 78, 26
3, 6660, Note_on_c, 0, 78, 0
3, 6660, Note_on_c, 0, 75, 0
3, 6720, Note_on_c, 0, 76, 30
3, 6720, Note_on_c, 0, 79, 30
3, 6780, Note_on_c, 0, 79, 0
3, 6780, Note_on_c, 0, 76, 0
3, 6840, Note_on_c, 0, 72, 26
3, 6840, Note_on_c, 0, 69, 26
3, 6900, Note_on_c, 0, 69, 0
3, 6900, Note_on_c, 0, 72, 0
3, 6960, Note_on_c, 0, 73, 26
3, 6960, Note_on_c, 0, 70, 26
3, 7020, Note_on_c, 0, 70, 0
3, 7020, Note_on_c, 0, 73, 0
3, 7080, Note_on_c, 0, 63, 26
3, 7080, Note_on_c, 0, 66, 26
3, 7140, Note_on_c, 0, 66, 0
3, 7140, Note_on_c, 0, 63, 0
3, 7200, Note_on_c, 0, 64, 30
3, 7200, Note_on_c, 0, 67, 30
3, 7260, Note_on_c, 0, 67, 0
3, 7260, Note_on_c, 0, 64, 0
3, 7320, Note_on_c, 0, 57, 27
3, 7320, Note_on_c, 0, 60, 27
3, 7380, Note_on_c, 0, 60, 0
3, 7380, Note_on_c, 0, 57, 0
3, 7440, Note_on_c, 0, 58, 30
3, 7440, Note_on_c, 0, 61, 30
3, 7560, Note_on_c, 0, 61, 0
3, 7560, Note_on_c, 0, 58, 0
3, 7680, Note_on_c, 0, 41, 36
3, 7740, Note_on_c, 0, 41, 0
3, 7800, Note_on_c, 0, 53, 18
3, 7800, Note_on_c, 0, 67, 23
3, 7800, Note_on_c, 0, 58, 18
3, 7800, Note_on_c, 0, 61, 18
3, 7860, Note_on_c, 0, 61, 0
3, 7860, Note_on_c, 0, 53, 0
3, 7860, Note_on_c, 0, 67, 0
3, 7860, Note_on_c, 0, 58, 0
3, 7920, Note_on_c, 0, 58, 18
3, 7920, Note_on_c, 0, 61, 18
3, 7920, Note_on_c, 0, 53, 18
3, 7920, Note_on_c, 0, 67, 23
3, 7980, Note_on_c, 0, 67, 0
3, 7980, Note_on_c, 0, 58, 0
3, 7980, Note_on_c, 0, 61, 0
3, 7980, Note_on_c, 0, 53, 0
3, 8040, Note_on_c, 0, 67, 23
3, 8040, Note_on_c, 0, 53, 18
3, 8040, Note_on_c, 0, 58, 18
3, 8040, Note_on_c, 0, 61, 18
3, 8100, Note_on_c, 0, 61, 0
3, 8100, Note_on_c, 0, 67, 0
3, 8100, Note_on_c, 0, 53, 0
3, 8100, Note_on_c, 0, 58, 0
3, 8160, Note_on_c, 0, 67, 24
3, 8160, Note_on_c, 0, 53, 20
3, 8160, Note_on_c, 0, 61, 20
3, 8160, Note_on_c, 0, 58, 20
3, 8220, Note_on_c, 0, 58, 0
3, 8220, Note_on_c, 0, 67, 0
3, 8220, Note_on_c, 0, 53, 0
3, 8220, Note_on_c, 0, 61, 0
3, 8280, Note_on_c, 0, 67, 27
3, 8280, Note_on_c, 0, 61, 22
3, 8280, Note_on_c, 0, 58, 22
3, 8280, Note_on_c, 0, 53, 22
3, 8340, Note_on_c, 0, 53, 0
3, 8340, Note_on_c, 0, 67, 0
3, 8340, Note_on_c, 0, 61, 0
3, 8340, Note_on_c, 0, 58, 0
3, 8400, Note_on_c, 0, 67, 22
3, 8400, Note_on_c, 0, 53, 18
3, 8400, Note_on_c, 0, 61, 18
3, 8400, Note_on_c, 0, 58, 18
3, 8640, Note_on_c, 0, 58, 0
3, 8640, Note_on_c, 0, 67, 0
3, 8640, Note_on_c, 0, 53, 0
3, 8640, Note_on_c, 0, 61, 0
3, 8880, Note_on_c, 0, 93, 30
3, 8880, Note_on_c, 0, 90, 30
3, 8940, Note_on_c, 0, 90, 0
3, 8940, Note_on_c, 0, 93, 0
3, 9000, Note_on_c, 0, 83, 26
3, 9000, Note_on_c, 0, 86, 26
3, 9060, Note_on_c, 0, 86, 0
3, 9060, Note_on_c, 0, 83, 0
3, 9120, Note_on_c, 0, 84, 26
3, 9120, Note_on_c, 0, 87, 26
3, 9180, Note_on_c, 0, 87, 0
3, 9180, Note_on_c, 0, 84, 0
3, 9240, Note_on_c, 0, 80, 26
3, 9240, Note_on_c, 0, 77, 26
3, 9300, Note_on_c, 0, 77, 0
3, 9300, Note_on_c, 0, 80, 0
3, 9360, Note_on_c, 0, 78, 30
3, 9360, Note_on_c, 0, 81, 30
3, 9420, Note_on_c, 0, 81, 0
3, 9420, Note_on_c, 0, 78, 0
3, 9480, Note_on_c, 0, 74, 26
3, 9480, Note_on_c, 0, 71, 26
3, 9540, Note_on_c, 0, 71, 0
3, 9540, Note_on_c, 0, 74, 0
3, 9600, Note_on_c, 0, 72, 26
3, 9600, Note_on_c, 0, 75, 26
3, 9660, Note_on_c, 0, 75, 0
3, 9660, Note_on_c, 0, 72, 0
3, 9720, Note_on_c, 0, 65, 26
3, 9720, Note_on_c, 0, 68, 26
3, 9780, Note_on_c, 0, 68, 0
3, 9780, Note_on_c, 0, 65, 0
3, 9840, Note_on_c, 0, 69, 30
3, 9840, Note_on_c, 0, 66, 30
3, 9900, Note_on_c, 0, 66, 0
3, 9900, Note_on_c, 0, 69, 0
3, 9960, Note_on_c, 0, 62, 27
3, 9960, Note_on_c, 0, 59, 27
3, 10020, Note_on_c, 0, 59, 0
3, 10020, Note_on_c, 0, 62, 0
3, 10080, Note_on_c, 0, 60, 30
3, 10080, Note_on_c, 0, 63, 30
3, 10200, Note_on_c, 0, 63, 0
3, 10200, Note_on_c, 0, 60, 0
3, 10560, Note_on_c, 0, 41, 39
3, 10620, Note_on_c, 0, 41, 0
3, 10680, Note_on_c, 0, 60, 22
3, 10680, Note_on_c, 0, 63, 22
3, 10680, Note_on_c, 0, 69, 27
3, 10740, Note_on_c, 0, 69, 0
3, 10740, Note_on_c, 0, 63, 0
3, 10740, Note_on_c, 0, 60, 0
3, 10800, Note_on_c, 0, 69, 27
3, 10800, Note_on_c, 0, 60, 22
3, 10800, Note_on_c, 0, 63, 22
3, 10860, Note_on_c, 0, 63, 0
3, 10860, Note_on_c, 0, 60, 0
3, 10860, Note_on_c, 0, 69, 0
3, 10920, Note_on_c, 0, 63, 22
3, 10920, Note_on_c, 0, 60, 22
3, 10920, Note_on_c, 0, 69, 27
3, 10980, Note_on_c, 0, 69, 0
3, 10980, Note_on_c, 0, 60, 0
3, 10980, Note_on_c, 0, 63, 0
3, 11040, Note_on_c, 0, 69, 28
3, 11040, Note_on_c, 0, 60, 24
3, 11040, Note_on_c, 0, 63, 24
3, 11100, Note_on_c, 0, 63, 0
3, 11100, Note_on_c, 0, 60, 0
3, 11100, Note_on_c, 0, 69, 0
3, 11160, Note_on_c, 0, 69, 31
3, 11160, Note_on_c, 0, 60, 26
3, 11160, Note_on_c, 0, 63, 26
3, 11220, Note_on_c, 0, 63, 0
3, 11220, Note_on_c, 0, 60, 0
3, 11220, Note_on_c, 0, 69, 0
3, 11280, Note_on_c, 0, 69, 26
3, 11280, Note_on_c, 0, 60, 20
3, 11280, Note_on_c, 0, 63, 20
3, 11520, Note_on_c, 0, 63, 0
3, 11520, Note_on_c, 0, 60, 0
3, 11520, Note_on_c, 0, 69, 0
3, 11640, Note_on_c, 0, 60, 18
3, 11640, Note_on_c, 0, 63, 18
3, 11640, Note_on_c, 0, 69, 22
3, 11700, Note_on_c, 0, 69, 0
3, 11700, Note_on_c, 0, 63, 0
3, 11700, Note_on_c, 0, 60, 0
3, 11760, Note_on_c, 0, 69, 22
3, 11760, Note_on_c, 0, 60, 18
3, 11760, Note_on_c, 0, 63, 18
3, 11820, Note_on_c, 0, 63, 0
3, 11820, Note_on_c, 0, 60, 0
3, 11820, Note_on_c, 0, 69, 0
3, 11880, Note_on_c, 0, 63, 18
3, 11880, Note_on_c, 0, 60, 18
3, 11880, Note_on_c, 0, 69, 22
3, 11940, Note_on_c, 0, 69, 0
3, 11940, Note_on_c, 0, 60, 0
3, 11940, Note_on_c, 0, 63, 0
3, 12000, Note_on_c, 0, 60, 18
3, 12000, Note_on_c, 0, 69, 23
3, 12000, Note_on_c, 0, 63, 18
3, 12060, Note_on_c, 0, 63, 0
3, 12060, Note_on_c, 0, 69, 0
3, 12060, Note_on_c, 0, 60, 0
3, 12120, Note_on_c, 0, 63, 20
3, 12120, Note_on_c, 0, 69, 26
3, 12120, Note_on_c, 0, 60, 20
3, 12180, Note_on_c, 0, 60, 0
3, 12180, Note_on_c, 0, 69, 0
3, 12180, Note_on_c, 0, 63, 0
3, 12240, Note_on_c, 0, 69, 20
3, 12240, Note_on_c, 0, 63, 17
3, 12240, Note_on_c, 0, 60, 17
3, 12480, Note_on_c, 0, 60, 0
3, 12480, Note_on_c, 0, 63, 0
3, 12480, Note_on_c, 0, 69, 0
3, 12600, Note_on_c, 0, 66, 18
3, 12600, Note_on_c, 0, 63, 18
3, 12600, Note_on_c, 0, 69, 25
3, 12660, Note_on_c, 0, 69, 0
3, 12660, Note_on_c, 0, 63, 0
3, 12660, Note_on_c, 0, 66, 0
3, 12720, Note_on_c, 0, 63, 16
3, 12720, Note_on_c, 0, 66, 16
3, 12720, Note_on_c, 0, 69, 18
3, 12960, Note_on_c, 0, 69, 0
3, 12960, Note_on_c, 0, 66, 0
3, 12960, Note_on_c, 0, 63, 0
3, 13080, Note_on_c, 0, 66, 18
3, 13080, Note_on_c, 0, 69, 24
3, 13140, Note_on_c, 0, 69, 0
3, 13140, Note_on_c, 0, 66, 0
3, 13200, Note_on_c, 0, 66, 15
3, 13200, Note_on_c, 0, 69, 18
3, 13440, Note_on_c, 0, 69, 0
3, 13440, Note_on_c, 0, 66, 0
3, 13560, Note_on_c, 0, 69, 24
3, 13560, Note_on_c, 0, 75, 31
3, 13620, Note_on_c, 0, 75, 0
3, 13620, Note_on_c, 0, 69, 0
3, 13680, Note_on_c, 0, 72, 25
3, 13740, Note_on_c, 0, 72, 0
3, 13800, Note_on_c, 0, 69, 24
3, 13800, Note_on_c, 0, 75, 31
3, 13860, Note_on_c, 0, 75, 0
3, 13860, Note_on_c, 0, 69, 0
3, 13920, Note_on_c, 0, 72, 27
3, 13980, Note_on_c, 0, 72, 0
3, 14040, Note_on_c, 0, 69, 24
3, 14040, Note_on_c, 0, 75, 31
3, 14100, Note_on_c, 0, 75, 0
3, 14100, Note_on_c, 0, 69, 0
3, 14160, Note_on_c, 0, 72, 26
3, 14220, Note_on_c, 0, 72, 0
3, 14280, Note_on_c, 0, 75, 31
3, 14280, Note_on_c, 0, 69, 24
3, 14340, Note_on_c, 0, 69, 0
3, 14340, Note_on_c, 0, 75, 0
3, 16560, Note_on_c, 0, 65, 32
3, 16560, Note_on_c, 0, 63, 41
3, 16800, Note_on_c, 0, 63, 0
3, 16800, Note_on_c, 0, 62, 32
3, 17040, Note_on_c, 0, 62, 0
3, 17040, Note_on_c, 0, 65, 0
3, 17040, Note_on_c, 0, 60, 38
3, 17040, Note_on_c, 0, 65, 30
3, 17280, Note_on_c, 0, 60, 0
3, 17280, Note_on_c, 0, 58, 33
3, 17520, Note_on_c, 0, 58, 0
3, 17520, Note_on_c, 0, 65, 0
3, 17520, Note_on_c, 0, 65, 25
3, 17520, Note_on_c, 0, 53, 25
3, 17520, Note_on_c, 0, 62, 32
3, 17640, Note_on_c, 0, 62, 0
3, 17640, Note_on_c, 0, 53, 0
3, 17640, Note_on_c, 0, 65, 0
3, 17760, Note_on_c, 0, 53, 23
3, 17760, Note_on_c, 0, 63, 29
3, 17760, Note_on_c, 0, 65, 23
3, 17880, Note_on_c, 0, 65, 0
3, 17880, Note_on_c, 0, 63, 0
3, 17880, Note_on_c, 0, 53, 0
3, 18000, Note_on_c, 0, 63, 33
3, 18000, Note_on_c, 0, 65, 26
3, 18000, Note_on_c, 0, 57, 26
3, 18120, Note_on_c, 0, 57, 0
3, 18120, Note_on_c, 0, 63, 0
3, 18240, Note_on_c, 0, 58, 23
3, 18240, Note_on_c, 0, 62, 29
3, 18360, Note_on_c, 0, 62, 0
3, 18360, Note_on_c, 0, 58, 0
3, 18360, Note_on_c, 0, 65, 0
3, 18480, Note_on_c, 0, 65, 32
3, 18480, Note_on_c, 0, 63, 41
3, 18720, Note_on_c, 0, 63, 0
3, 18720, Note_on_c, 0, 62, 32
3, 18960, Note_on_c, 0, 62, 0
3, 18960, Note_on_c, 0, 65, 0
3, 18960, Note_on_c, 0, 65, 30
3, 18960, Note_on_c, 0, 60, 38
3, 19200, Note_on_c, 0, 60, 0
3, 19200, Note_on_c, 0, 58, 33
3, 19440, Note_on_c, 0, 58, 0
3, 19440, Note_on_c, 0, 65, 0
3, 19440, Note_on_c, 0, 53, 25
3, 19440, Note_on_c, 0, 62, 32
3, 19440, Note_on_c, 0, 65, 25
3, 19560, Note_on_c, 0, 65, 0
3, 19560, Note_on_c, 0, 62, 0
3, 19560, Note_on_c, 0, 53, 0
3, 19680, Note_on_c, 0, 63, 29
3, 19680, Note_on_c, 0, 65, 23
3, 19680, Note_on_c, 0, 53, 23
3, 19800, Note_on_c, 0, 53, 0
3, 19800, Note_on_c, 0, 65, 0
3, 19800, Note_on_c, 0, 63, 0
3, 19920, Note_on_c, 0, 65, 26
3, 19920, Note_on_c, 0, 63, 33
3, 19920, Note_on_c, 0, 57, 26
3, 20040, Note_on_c, 0, 57, 0
3, 20040, Note_on_c, 0, 63, 0
3, 20160, Note_on_c, 0, 62, 29
3, 20160, Note_on_c, 0, 58, 23
3, 20280, Note_on_c, 0, 65, 0
3, 20400, Note_on_c, 0, 58, 0
3, 20400, Note_on_c, 0, 62, 0
3, 20400, Note_on_c, 0, 68, 41
3, 20400, Note_on_c, 0, 70, 32
3, 20640, Note_on_c, 0, 68, 0
3, 20640, Note_on_c, 0, 66, 32
3, 20880, Note_on_c, 0, 66, 0
3, 20880, Note_on_c, 0, 70, 0
3, 20880, Note_on_c, 0, 65, 38
3, 20880, Note_on_c, 0, 70, 30
3, 21120, Note_on_c, 0, 65, 0
3, 21120, Note_on_c, 0, 63, 33
3, 21360, Note_on_c, 0, 63, 0
3, 21360, Note_on_c, 0, 70, 0
3, 21360, Note_on_c, 0, 70, 25
3, 21360, Note_on_c, 0, 58, 25
3, 21360, Note_on_c, 0, 66, 32
3, 21480, Note_on_c, 0, 66, 0
3, 21480, Note_on_c, 0, 58, 0
3, 21480, Note_on_c, 0, 70, 0
3, 21600, Note_on_c, 0, 68, 29
3, 21600, Note_on_c, 0, 70, 23
3, 21600, Note_on_c, 0, 58, 23
3, 21720, Note_on_c, 0, 58, 0
3, 21720, Note_on_c, 0, 70, 0
3, 21720, Note_on_c, 0, 68, 0
3, 21840, Note_on_c, 0, 62, 26
3, 21840, Note_on_c, 0, 68, 33
3, 21840, Note_on_c, 0, 70, 26
3, 21960, Note_on_c, 0, 68, 0
3, 21960, Note_on_c, 0, 62, 0
3, 22080, Note_on_c, 0, 66, 29
3, 22080, Note_on_c, 0, 63, 23
3, 22200, Note_on_c, 0, 63, 0
3, 22200, Note_on_c, 0, 66, 0
3, 22200, Note_on_c, 0, 70, 0
3, 22320, Note_on_c, 0, 70, 32
3, 22320, Note_on_c, 0, 68, 41
3, 22560, Note_on_c, 0, 68, 0
3, 22560, Note_on_c, 0, 66, 32
3, 22800, Note_on_c, 0, 66, 0
3, 22800, Note_on_c, 0, 70, 0
3, 22800, Note_on_c, 0, 65, 38
3, 22800, Note_on_c, 0, 70, 30
3, 23040, Note_on_c, 0, 65, 0
3, 23040, Note_on_c, 0, 63, 33
3, 23280, Note_on_c, 0, 63, 0
3, 23280, Note_on_c, 0, 70, 0
3, 23280, Note_on_c, 0, 58, 25
3, 23280, Note_on_c, 0, 70, 25
3, 23280, Note_on_c, 0, 66, 32
3, 23400, Note_on_c, 0, 66, 0
3, 23400, Note_on_c, 0, 70, 0
3, 23400, Note_on_c, 0, 58, 0
3, 23520, Note_on_c, 0, 68, 29
3, 23520, Note_on_c, 0, 70, 23
3, 23520, Note_on_c, 0, 58, 23
3, 23640, Note_on_c, 0, 58, 0
3, 23640, Note_on_c, 0, 70, 0
3, 23640, Note_on_c, 0, 68, 0
3, 23760, Note_on_c, 0, 70, 26
3, 23760, Note_on_c, 0, 68, 33
3, 23760, Note_on_c, 0, 62, 26
3, 23880, Note_on_c, 0, 62, 0
3, 23880, Note_on_c, 0, 68, 0
3, 24000, Note_on_c, 0, 63, 23
3, 24000, Note_on_c, 0, 66, 29
3, 24120, Note_on_c, 0, 66, 0
3, 24120, Note_on_c, 0, 63, 0
3, 24120, Note_on_c, 0, 70, 0
3, 24240, Note_on_c, 0, 61, 36
3, 24240, Note_on_c, 0, 46, 30
3, 24480, Note_on_c, 0, 46, 0
3, 24480, Note_on_c, 0, 61, 0
3, 24480, Note_on_c, 0, 47, 24
3, 24480, Note_on_c, 0, 63, 29
3, 24600, Note_on_c, 0, 63, 0
3, 24600, Note_on_c, 0, 47, 0
3, 24720, Note_on_c, 0, 64, 35
3, 24720, Note_on_c, 0, 49, 28
3, 24960, Note_on_c, 0, 49, 0
3, 24960, Note_on_c, 0, 64, 0
3, 24960, Note_on_c, 0, 66, 25
3, 24960, Note_on_c, 0, 51, 20
3, 25080, Note_on_c, 0, 51, 0
3, 25080, Note_on_c, 0, 66, 0
3, 25200, Note_on_c, 0, 67, 31
3, 25200, Note_on_c, 0, 52, 26
3, 25440, Note_on_c, 0, 52, 0
3, 25440, Note_on_c, 0, 67, 0
3, 25440, Note_on_c, 0, 69, 25
3, 25440, Note_on_c, 0, 53, 21
3, 25560, Note_on_c, 0, 53, 0
3, 25560, Note_on_c, 0, 69, 0
3, 25680, Note_on_c, 0, 64, 27
3, 25680, Note_on_c, 0, 55, 22
3, 25800, Note_on_c, 0, 64, 0
3, 25800, Note_on_c, 0, 61, 23
3, 25920, Note_on_c, 0, 61, 0
3, 25920, Note_on_c, 0, 55, 0
3, 25920, Note_on_c, 0, 57, 24
3, 25920, Note_on_c, 0, 65, 29
3, 25980, Note_on_c, 0, 65, 0
3, 26040, Note_on_c, 0, 60, 25
3, 26100, Note_on_c, 0, 60, 0
3, 26160, Note_on_c, 0, 57, 0
3, 26160, Note_on_c, 0, 67, 29
3, 26160, Note_on_c, 0, 58, 29
3, 26220, Note_on_c, 0, 67, 0
3, 26280, Note_on_c, 0, 61, 24
3, 26340, Note_on_c, 0, 61, 0
3, 26400, Note_on_c, 0, 58, 0
3, 26400, Note_on_c, 0, 60, 24
3, 26400, Note_on_c, 0, 69, 29
3, 26460, Note_on_c, 0, 69, 0
3, 26520, Note_on_c, 0, 63, 24
3, 26580, Note_on_c, 0, 63, 0
3, 26640, Note_on_c, 0, 60, 0
3, 26640, Note_on_c, 0, 67, 29
3, 26640, Note_on_c, 0, 61, 24
3, 26700, Note_on_c, 0, 61, 0
3, 26700, Note_on_c, 0, 67, 0
3, 26880, Note_on_c, 0, 69, 29
3, 26880, Note_on_c, 0, 63, 24
3, 26940, Note_on_c, 0, 63, 0
3, 26940, Note_on_c, 0, 69, 0
3, 28080, Note_on_c, 0, 51, 41
3, 28140, Note_on_c, 0, 51, 0
3, 28170, Note_on_c, 0, 67, 36
3, 28200, Note_on_c, 0, 67, 0
3, 28200, Note_on_c, 0, 65, 41
3, 28230, Note_on_c, 0, 65, 0
3, 28320, Note_on_c, 0, 50, 41
3, 28380, Note_on_c, 0, 50, 0
3, 28410, Note_on_c, 0, 66, 36
3, 28440, Note_on_c, 0, 66, 0
3, 28440, Note_on_c, 0, 65, 41
3, 28470, Note_on_c, 0, 65, 0
3, 28560, Note_on_c, 0, 48, 41
3, 28620, Note_on_c, 0, 48, 0
3, 28650, Note_on_c, 0, 67, 36
3, 28680, Note_on_c, 0, 67, 0
3, 28680, Note_on_c, 0, 65, 41
3, 28710, Note_on_c, 0, 65, 0
3, 28800, Note_on_c, 0, 46, 41
3, 28860, Note_on_c, 0, 46, 0
3, 28890, Note_on_c, 0, 66, 35
3, 28920, Note_on_c, 0, 66, 0
3, 28920, Note_on_c, 0, 65, 41
3, 28950, Note_on_c, 0, 65, 0
3, 29040, Note_on_c, 0, 41, 44
3, 29100, Note_on_c, 0, 41, 0
3, 29130, Note_on_c, 0, 67, 39
3, 29160, Note_on_c, 0, 67, 0
3, 29160, Note_on_c, 0, 65, 45
3, 29190, Note_on_c, 0, 65, 0
3, 29280, Note_on_c, 0, 41, 46
3, 29340, Note_on_c, 0, 41, 0
3, 29370, Note_on_c, 0, 66, 39
3, 29400, Note_on_c, 0, 66, 0
3, 29400, Note_on_c, 0, 65, 45
3, 29430, Note_on_c, 0, 65, 0
3, 29520, Note_on_c, 0, 45, 45
3, 29580, Note_on_c, 0, 45, 0
3, 29610, Note_on_c, 0, 67, 36
3, 29640, Note_on_c, 0, 67, 0
3, 29640, Note_on_c, 0, 65, 41
3, 29670, Note_on_c, 0, 65, 0
3, 29760, Note_on_c, 0, 46, 41
3, 29820, Note_on_c, 0, 46, 0
3, 29850, Note_on_c, 0, 66, 36
3, 29880, Note_on_c, 0, 66, 0
3, 29880, Note_on_c, 0, 65, 41
3, 29910, Note_on_c, 0, 65, 0
3, 30000, Note_on_c, 0, 51, 41
3, 30060, Note_on_c, 0, 51, 0
3, 30090, Note_on_c, 0, 67, 36
3, 30120, Note_on_c, 0, 67, 0
3, 30120, Note_on_c, 0, 65, 41
3, 30150, Note_on_c, 0, 65, 0
3, 30240, Note_on_c, 0, 50, 41
3, 30300, Note_on_c, 0, 50, 0
3, 30330, Note_on_c, 0, 66, 36
3, 30360, Note_on_c, 0, 66, 0
3, 30360, Note_on_c, 0, 65, 41
3, 30390, Note_on_c, 0, 65, 0
3, 30480, Note_on_c, 0, 48, 41
3, 30540, Note_on_c, 0, 48, 0
3, 30570, Note_on_c, 0, 67, 36
3, 30600, Note_on_c, 0, 67, 0
3, 30600, Note_on_c, 0, 65, 41
3, 30630, Note_on_c, 0, 65, 0
3, 30720, Note_on_c, 0, 46, 41
3, 30780, Note_on_c, 0, 46, 0
3, 30810, Note_on_c, 0, 66, 35
3, 30840, Note_on_c, 0, 66, 0
3, 30840, Note_on_c, 0, 65, 41
3, 30870, Note_on_c, 0, 65, 0
3, 30960, Note_on_c, 0, 41, 44
3, 31020, Note_on_c, 0, 41, 0
3, 31050, Note_on_c, 0, 67, 39
3, 31080, Note_on_c, 0, 67, 0
3, 31080, Note_on_c, 0, 65, 45
3, 31110, Note_on_c, 0, 65, 0
3, 31200, Note_on_c, 0, 41, 46
3, 31260, Note_on_c, 0, 41, 0
3, 31290, Note_on_c, 0, 66, 39
3, 31320, Note_on_c, 0, 66, 0
3, 31320, Note_on_c, 0, 65, 45
3, 31350, Note_on_c, 0, 65, 0
3, 31440, Note_on_c, 0, 45, 45
3, 31500, Note_on_c, 0, 45, 0
3, 31530, Note_on_c, 0, 67, 36
3, 31560, Note_on_c, 0, 67, 0
3, 31560, Note_on_c, 0, 65, 41
3, 31590, Note_on_c, 0, 65, 0
3, 31680, Note_on_c, 0, 46, 46
3, 31740, Note_on_c, 0, 46, 0
3, 31770, Note_on_c, 0, 67, 42
3, 31800, Note_on_c, 0, 67, 0
3, 31800, Note_on_c, 0, 65, 46
3, 31830, Note_on_c, 0, 65, 0
3, 31920, Note_on_c, 0, 56, 52
3, 31980, Note_on_c, 0, 56, 0
3, 32010, Note_on_c, 0, 71, 46
3, 32040, Note_on_c, 0, 71, 0
3, 32040, Note_on_c, 0, 70, 53
3, 32070, Note_on_c, 0, 70, 0
3, 32160, Note_on_c, 0, 55, 54
3, 32220, Note_on_c, 0, 55, 0
3, 32250, Note_on_c, 0, 72, 48
3, 32280, Note_on_c, 0, 72, 0
3, 32280, Note_on_c, 0, 70, 55
3, 32310, Note_on_c, 0, 70, 0
3, 32400, Note_on_c, 0, 50, 55
3, 32460, Note_on_c, 0, 50, 0
3, 32490, Note_on_c, 0, 71, 49
3, 32520, Note_on_c, 0, 71, 0
3, 32520, Note_on_c, 0, 70, 56
3, 32550, Note_on_c, 0, 70, 0
3, 32640, Note_on_c, 0, 51, 56
3, 32700, Note_on_c, 0, 51, 0
3, 32730, Note_on_c, 0, 71, 49
3, 32760, Note_on_c, 0, 71, 0
3, 32760, Note_on_c, 0, 70, 57
3, 32790, Note_on_c, 0, 70, 0
3, 32880, Note_on_c, 0, 46, 59
3, 32940, Note_on_c, 0, 46, 0
3, 32970, Note_on_c, 0, 72, 51
3, 33000, Note_on_c, 0, 72, 0
3, 33000, Note_on_c, 0, 70, 60
3, 33030, Note_on_c, 0, 70, 0
3, 33120, Note_on_c, 0, 46, 60
3, 33180, Note_on_c, 0, 46, 0
3, 33210, Note_on_c, 0, 71, 52
3, 33240, Note_on_c, 0, 71, 0
3, 33240, Note_on_c, 0, 70, 60
3, 33270, Note_on_c, 0, 70, 0
3, 33360, Note_on_c, 0, 50, 61
3, 33420, Note_on_c, 0, 50, 0
3, 33450, Note_on_c, 0, 72, 52
3, 33480, Note_on_c, 0, 72, 0
3, 33480, Note_on_c, 0, 70, 60
3, 33510, Note_on_c, 0, 70, 0
3, 33600, Note_on_c, 0, 51, 60
3, 33660, Note_on_c, 0, 51, 0
3, 33690, Note_on_c, 0, 71, 53
3, 33720, Note_on_c, 0, 71, 0
3, 33720, Note_on_c, 0, 70, 60
3, 33750, Note_on_c, 0, 70, 0
3, 33840, Note_on_c, 0, 56, 54
3, 33900, Note_on_c, 0, 56, 0
3, 33930, Note_on_c, 0, 72, 47
3, 33960, Note_on_c, 0, 72, 0
3, 33960, Note_on_c, 0, 70, 54
3, 33990, Note_on_c, 0, 70, 0
3, 34080, Note_on_c, 0, 55, 54
3, 34140, Note_on_c, 0, 55, 0
3, 34170, Note_on_c, 0, 71, 46
3, 34200, Note_on_c, 0, 71, 0
3, 34200, Note_on_c, 0, 70, 55
3, 34230, Note_on_c, 0, 70, 0
3, 34320, Note_on_c, 0, 50, 55
3, 34380, Note_on_c, 0, 50, 0
3, 34410, Note_on_c, 0, 72, 48
3, 34440, Note_on_c, 0, 72, 0
3, 34440, Note_on_c, 0, 70, 56
3, 34470, Note_on_c, 0, 70, 0
3, 34560, Note_on_c, 0, 51, 56
3, 34620, Note_on_c, 0, 51, 0
3, 34650, Note_on_c, 0, 71, 52
3, 34680, Note_on_c, 0, 71, 0
3, 34680, Note_on_c, 0, 70, 57
3, 34710, Note_on_c, 0, 70, 0
3, 34800, Note_on_c, 0, 46, 62
3, 34860, Note_on_c, 0, 46, 0
3, 34890, Note_on_c, 0, 72, 55
3, 34920, Note_on_c, 0, 72, 0
3, 34920, Note_on_c, 0, 70, 63
3, 34950, Note_on_c, 0, 70, 0
3, 35040, Note_on_c, 0, 46, 63
3, 35100, Note_on_c, 0, 46, 0
3, 35130, Note_on_c, 0, 71, 57
3, 35160, Note_on_c, 0, 71, 0
3, 35160, Note_on_c, 0, 70, 63
3, 35190, Note_on_c, 0, 70, 0
3, 35280, Note_on_c, 0, 50, 58
3, 35340, Note_on_c, 0, 50, 0
3, 35370, Note_on_c, 0, 72, 50
3, 35400, Note_on_c, 0, 72, 0
3, 35400, Note_on_c, 0, 70, 58
3, 35430, Note_on_c, 0, 70, 0
3, 35520, Note_on_c, 0, 51, 44
3, 35760, Note_on_c, 0, 51, 0
3, 35760, Note_on_c, 0, 47, 42
3, 35760, Note_on_c, 0, 35, 35
3, 35820, Note_on_c, 0, 35, 0
3, 35820, Note_on_c, 0, 47, 0
3, 35880, Note_on_c, 0, 56, 27
3, 35880, Note_on_c, 0, 62, 33
3, 35880, Note_on_c, 0, 53, 27
3, 35940, Note_on_c, 0, 53, 0
3, 35940, Note_on_c, 0, 62, 0
3, 35940, Note_on_c, 0, 56, 0
3, 35940, Note_on_c, 0, 48, 35
3, 35970, Note_on_c, 0, 55, 35
3, 36000, Note_on_c, 0, 63, 42
3, 36120, Note_on_c, 0, 63, 0
3, 36120, Note_on_c, 0, 55, 0
3, 36120, Note_on_c, 0, 48, 0
3, 36240, Note_on_c, 0, 50, 42
3, 36240, Note_on_c, 0, 38, 35
3, 36300, Note_on_c, 0, 38, 0
3, 36300, Note_on_c, 0, 50, 0
3, 36360, Note_on_c, 0, 65, 35
3, 36360, Note_on_c, 0, 59, 28
3, 36360, Note_on_c, 0, 56, 28
3, 36420, Note_on_c, 0, 56, 0
3, 36420, Note_on_c, 0, 59, 0
3, 36420, Note_on_c, 0, 65, 0
3, 36420, Note_on_c, 0, 51, 35
3, 36450, Note_on_c, 0, 60, 35
3, 36480, Note_on_c, 0, 67, 42
3, 36600, Note_on_c, 0, 67, 0
3, 36600, Note_on_c, 0, 60, 0
3, 36600, Note_on_c, 0, 51, 0
3, 36720, Note_on_c, 0, 40, 36
3, 36780, Note_on_c, 0, 40, 0
3, 36840, Note_on_c, 0, 46, 28
3, 36900, Note_on_c, 0, 46, 0
3, 36960, Note_on_c, 0, 52, 35
3, 37020, Note_on_c, 0, 52, 0
3, 37080, Note_on_c, 0, 58, 27
3, 37140, Note_on_c, 0, 58, 0
3, 37200, Note_on_c, 0, 61, 28
3, 37200, Note_on_c, 0, 55, 18
3, 37320, Note_on_c, 0, 61, 0
3, 37320, Note_on_c, 0, 58, 23
3, 37410, Note_on_c, 0, 58, 0
3, 37410, Note_on_c, 0, 53, 20
3, 37440, Note_on_c, 0, 55, 0
3, 37440, Note_on_c, 0, 62, 36
3, 37560, Note_on_c, 0, 62, 0
3, 37560, Note_on_c, 0, 53, 0
3, 37680, Note_on_c, 0, 59, 27
3, 37680, Note_on_c, 0, 53, 22
3, 37920, Note_on_c, 0, 59, 0
3, 37920, Note_on_c, 0, 60, 27
3, 38160, Note_on_c, 0, 60, 0
3, 38160, Note_on_c, 0, 53, 0
3, 38160, Note_on_c, 0, 40, 41
3, 38220, Note_on_c, 0, 40, 0
3, 38220, Note_on_c, 0, 41, 36
3, 38280, Note_on_c, 0, 41, 0
3, 38280, Note_on_c, 0, 40, 43
3, 38340, Note_on_c, 0, 40, 0
3, 38340, Note_on_c, 0, 41, 36
3, 38400, Note_on_c, 0, 53, 36
3, 38640, Note_on_c, 0, 53, 0
3, 38640, Note_on_c, 0, 41, 0
3, 38640, Note_on_c, 0, 47, 27
3, 38640, Note_on_c, 0, 41, 22
3, 38880, Note_on_c, 0, 47, 0
3, 38880, Note_on_c, 0, 48, 27
3, 39120, Note_on_c, 0, 48, 0
3, 39120, Note_on_c, 0, 41, 0
3, 39120, Note_on_c, 0, 42, 41
3, 39240, Note_on_c, 0, 42, 0
3, 39240, Note_on_c, 0, 41, 36
3, 39360, Note_on_c, 0, 41, 0
3, 39360, Note_on_c, 0, 34, 41
3, 39480, Note_on_c, 0, 34, 0
3, 39480, Note_on_c, 0, 53, 26
3, 39480, Note_on_c, 0, 58, 22
3, 39540, Note_on_c, 0, 58, 0
3, 39540, Note_on_c, 0, 53, 0
3, 39540, Note_on_c, 0, 62, 25
3, 39600, Note_on_c, 0, 62, 0
3, 39600, Note_on_c, 0, 54, 25
3, 39600, Note_on_c, 0, 58, 21
3, 39660, Note_on_c, 0, 58, 0
3, 39660, Note_on_c, 0, 54, 0
3, 39660, Note_on_c, 0, 62, 25
3, 39720, Note_on_c, 0, 62, 0
3, 39720, Note_on_c, 0, 55, 25
3, 39720, Note_on_c, 0, 58, 21
3, 39780, Note_on_c, 0, 58, 0
3, 39780, Note_on_c, 0, 55, 0
3, 39780, Note_on_c, 0, 62, 25
3, 39840, Note_on_c, 0, 62, 0
3, 39840, Note_on_c, 0, 54, 30
3, 39840, Note_on_c, 0, 58, 25
3, 39900, Note_on_c, 0, 58, 0
3, 39900, Note_on_c, 0, 54, 0
3, 39900, Note_on_c, 0, 62, 22
3, 39960, Note_on_c, 0, 62, 0
3, 39960, Note_on_c, 0, 53, 30
3, 39960, Note_on_c, 0, 58, 25
3, 40020, Note_on_c, 0, 58, 0
3, 40020, Note_on_c, 0, 53, 0
3, 40020, Note_on_c, 0, 62, 21
3, 40080, Note_on_c, 0, 62, 0
3, 40080, Note_on_c, 0, 54, 30
3, 40080, Note_on_c, 0, 58, 25
3, 40140, Note_on_c, 0, 58, 0
3, 40140, Note_on_c, 0, 54, 0
3, 40140, Note_on_c, 0, 62, 25
3, 40200, Note_on_c, 0, 62, 0
3, 40200, Note_on_c, 0, 58, 25
3, 40200, Note_on_c, 0, 55, 30
3, 40260, Note_on_c, 0, 55, 0
3, 40260, Note_on_c, 0, 58, 0
3, 40260, Note_on_c, 0, 62, 22
3, 40300, Note_on_c, 0, 62, 0
3, 40300, Note_on_c, 0, 54, 30
3, 40310, Note_on_c, 0, 57, 30
3, 40320, Note_on_c, 0, 63, 30
3, 40380, Note_on_c, 0, 63, 0
3, 40380, Note_on_c, 0, 57, 0
3, 40380, Note_on_c, 0, 54, 0
3, 40440, Note_on_c, 0, 81, 41
3, 40440, Note_on_c, 0, 78, 41
3, 40500, Note_on_c, 0, 78, 0
3, 40500, Note_on_c, 0, 81, 0
3, 40560, Note_on_c, 0, 74, 39
3, 40560, Note_on_c, 0, 71, 39
3, 40620, Note_on_c, 0, 71, 0
3, 40620, Note_on_c, 0, 74, 0
3, 40680, Note_on_c, 0, 75, 38
3, 40680, Note_on_c, 0, 72, 38
3, 40740, Note_on_c, 0, 72, 0
3, 40740, Note_on_c, 0, 75, 0
3, 40800, Note_on_c, 0, 68, 38
3, 40800, Note_on_c, 0, 65, 38
3, 40860, Note_on_c, 0, 65, 0
3, 40860, Note_on_c, 0, 68, 0
3, 40920, Note_on_c, 0, 66, 37
3, 40920, Note_on_c, 0, 69, 37
3, 40980, Note_on_c, 0, 69, 0
3, 40980, Note_on_c, 0, 66, 0
3, 41040, Note_on_c, 0, 59, 36
3, 41040, Note_on_c, 0, 62, 36
3, 41100, Note_on_c, 0, 62, 0
3, 41100, Note_on_c, 0, 59, 0
3, 41160, Note_on_c, 0, 63, 36
3, 41160, Note_on_c, 0, 60, 36
3, 41220, Note_on_c, 0, 60, 0
3, 41220, Note_on_c, 0, 63, 0
3, 41280, Note_on_c, 0, 41, 45
3, 41400, Note_on_c, 0, 41, 0
3, 41400, Note_on_c, 0, 53, 26
3, 41400, Note_on_c, 0, 58, 22
3, 41460, Note_on_c, 0, 58, 0
3, 41460, Note_on_c, 0, 53, 0
3, 41460, Note_on_c, 0, 62, 25
3, 41520, Note_on_c, 0, 62, 0
3, 41520, Note_on_c, 0, 58, 21
3, 41520, Note_on_c, 0, 54, 25
3, 41580, Note_on_c, 0, 54, 0
3, 41580, Note_on_c, 0, 58, 0
3, 41580, Note_on_c, 0, 62, 25
3, 41640, Note_on_c, 0, 62, 0
3, 41640, Note_on_c, 0, 55, 25
3, 41640, Note_on_c, 0, 58, 21
3, 41700, Note_on_c, 0, 58, 0
3, 41700, Note_on_c, 0, 55, 0
3, 41700, Note_on_c, 0, 62, 25
3, 41760, Note_on_c, 0, 62, 0
3, 41760, Note_on_c, 0, 54, 30
3, 41760, Note_on_c, 0, 58, 25
3, 41820, Note_on_c, 0, 58, 0
3, 41820, Note_on_c, 0, 54, 0
3, 41820, Note_on_c, 0, 62, 22
3, 41880, Note_on_c, 0, 62, 0
3, 41880, Note_on_c, 0, 53, 30
3, 41880, Note_on_c, 0, 58, 25
3, 41940, Note_on_c, 0, 58, 0
3, 41940, Note_on_c, 0, 53, 0
3, 41940, Note_on_c, 0, 62, 21
3, 42000, Note_on_c, 0, 62, 0
3, 42000, Note_on_c, 0, 54, 30
3, 42000, Note_on_c, 0, 58, 25
3, 42060, Note_on_c, 0, 58, 0
3, 42060, Note_on_c, 0, 54, 0
3, 42060, Note_on_c, 0, 62, 25
3, 42120, Note_on_c, 0, 62, 0
3, 42120, Note_on_c, 0, 55, 30
3, 42120, Note_on_c, 0, 58, 25
3, 42180, Note_on_c, 0, 58, 0
3, 42180, Note_on_c, 0, 55, 0
3, 42180, Note_on_c, 0, 62, 22
3, 42220, Note_on_c, 0, 62, 0
3, 42220, Note_on_c, 0, 54, 25
3, 42230, Note_on_c, 0, 57, 25
3, 42240, Note_on_c, 0, 63, 30
3, 42300, Note_on_c, 0, 63, 0
3, 42300, Note_on_c, 0, 57, 0
3, 42300, Note_on_c, 0, 54, 0
3, 42360, Note_on_c, 0, 81, 41
3, 42360, Note_on_c, 0, 78, 35
3, 42420, Note_on_c, 0, 78, 0
3, 42420, Note_on_c, 0, 81, 0
3, 42480, Note_on_c, 0, 71, 33
3, 42480, Note_on_c, 0, 74, 39
3, 42540, Note_on_c, 0, 74, 0
3, 42540, Note_on_c, 0, 71, 0
3, 42600, Note_on_c, 0, 75, 38
3, 42600, Note_on_c, 0, 72, 32
3, 42660, Note_on_c, 0, 72, 0
3, 42660, Note_on_c, 0, 75, 0
3, 42720, Note_on_c, 0, 68, 38
3, 42720, Note_on_c, 0, 65, 32
3, 42780, Note_on_c, 0, 65, 0
3, 42780, Note_on_c, 0, 68, 0
3, 42840, Note_on_c, 0, 66, 31
3, 42840, Note_on_c, 0, 69, 37
3, 42900, Note_on_c, 0, 69, 0
3, 42900, Note_on_c, 0, 66, 0
3, 42960, Note_on_c, 0, 62, 36
3, 42960, Note_on_c, 0, 59, 30
3, 43020, Note_on_c, 0, 59, 0
3, 43020, Note_on_c, 0, 62, 0
3, 43080, Note_on_c, 0, 63, 36
3, 43080, Note_on_c, 0, 60, 29
3, 43140, Note_on_c, 0, 60, 0
3, 43140, Note_on_c, 0, 63, 0
3, 43180, Note_on_c, 0, 46, 36
3, 43190, Note_on_c, 0, 56, 36
3, 43200, Note_on_c, 0, 59, 43
3, 43260, Note_on_c, 0, 59, 0
3, 43260, Note_on_c, 0, 56, 0
3, 43260, Note_on_c, 0, 46, 0
3, 43320, Note_on_c, 0, 80, 37
3, 43320, Note_on_c, 0, 83, 45
3, 43380, Note_on_c, 0, 83, 0
3, 43380, Note_on_c, 0, 80, 0
3, 43440, Note_on_c, 0, 76, 43
3, 43440, Note_on_c, 0, 73, 36
3, 43500, Note_on_c, 0, 73, 0
3, 43500, Note_on_c, 0, 76, 0
3, 43560, Note_on_c, 0, 74, 35
3, 43560, Note_on_c, 0, 77, 42
3, 43620, Note_on_c, 0, 77, 0
3, 43620, Note_on_c, 0, 74, 0
3, 43680, Note_on_c, 0, 70, 42
3, 43680, Note_on_c, 0, 67, 35
3, 43740, Note_on_c, 0, 67, 0
3, 43740, Note_on_c, 0, 70, 0
3, 43800, Note_on_c, 0, 68, 35
3, 43800, Note_on_c, 0, 71, 41
3, 43860, Note_on_c, 0, 71, 0
3, 43860, Note_on_c, 0, 68, 0
3, 43920, Note_on_c, 0, 61, 33
3, 43920, Note_on_c, 0, 64, 39
3, 43980, Note_on_c, 0, 64, 0
3, 43980, Note_on_c, 0, 61, 0
3, 44040, Note_on_c, 0, 65, 38
3, 44040, Note_on_c, 0, 62, 32
3, 44100, Note_on_c, 0, 62, 0
3, 44100, Note_on_c, 0, 65, 0
3, 44140, Note_on_c, 0, 46, 39
3, 44160, Note_on_c, 0, 61, 46
3, 44220, Note_on_c, 0, 61, 0
3, 44220, Note_on_c, 0, 46, 0
3, 44280, Note_on_c, 0, 85, 49
3, 44280, Note_on_c, 0, 82, 41
3, 44340, Note_on_c, 0, 82, 0
3, 44340, Note_on_c, 0, 85, 0
3, 44400, Note_on_c, 0, 75, 39
3, 44400, Note_on_c, 0, 78, 46
3, 44460, Note_on_c, 0, 78, 0
3, 44460, Note_on_c, 0, 75, 0
3, 44520, Note_on_c, 0, 75, 38
3, 44520, Note_on_c, 0, 79, 45
3, 44580, Note_on_c, 0, 79, 0
3, 44580, Note_on_c, 0, 75, 0
3, 44600, Note_on_c, 0, 46, 43
3, 44620, Note_on_c, 0, 54, 43
3, 44640, Note_on_c, 0, 60, 51
3, 44700, Note_on_c, 0, 60, 0
3, 44700, Note_on_c, 0, 54, 0
3, 44700, Note_on_c, 0, 46, 0
3, 44760, Note_on_c, 0, 84, 41
3, 44760, Note_on_c, 0, 87, 49
3, 44820, Note_on_c, 0, 87, 0
3, 44820, Note_on_c, 0, 84, 0
3, 44880, Note_on_c, 0, 80, 46
3, 44880, Note_on_c, 0, 77, 39
3, 44940, Note_on_c, 0, 77, 0
3, 44940, Note_on_c, 0, 80, 0
3, 45000, Note_on_c, 0, 81, 45
3, 45000, Note_on_c, 0, 78, 38
3, 45060, Note_on_c, 0, 78, 0
3, 45060, Note_on_c, 0, 81, 0
3, 45120, Note_on_c, 0, 78, 49
3, 45120, Note_on_c, 0, 75, 41
3, 45180, Note_on_c, 0, 75, 0
3, 45180, Note_on_c, 0, 78, 0
3, 45240, Note_on_c, 0, 71, 49
3, 45240, Note_on_c, 0, 68, 41
3, 45300, Note_on_c, 0, 68, 0
3, 45300, Note_on_c, 0, 71, 0
3, 45360, Note_on_c, 0, 69, 39
3, 45360, Note_on_c, 0, 72, 46
3, 45420, Note_on_c, 0, 72, 0
3, 45420, Note_on_c, 0, 69, 0
3, 45480, Note_on_c, 0, 69, 45
3, 45480, Note_on_c, 0, 66, 38
3, 45540, Note_on_c, 0, 66, 0
3, 45540, Note_on_c, 0, 69, 0
3, 45600, Note_on_c, 0, 62, 52
3, 45600, Note_on_c, 0, 59, 44
3, 45660, Note_on_c, 0, 59, 0
3, 45660, Note_on_c, 0, 62, 0
3, 45720, Note_on_c, 0, 60, 45
3, 45720, Note_on_c, 0, 63, 55
3, 45780, Note_on_c, 0, 63, 0
3, 45780, Note_on_c, 0, 60, 0
3, 45840, Note_on_c, 0, 59, 51
3, 45840, Note_on_c, 0, 64, 60
3, 45840, Note_on_c, 0, 56, 51
3, 45900, Note_on_c, 0, 56, 0
3, 45900, Note_on_c, 0, 64, 0
3, 45900, Note_on_c, 0, 59, 0
3, 45960, Note_on_c, 0, 65, 63
3, 45960, Note_on_c, 0, 60, 53
3, 45960, Note_on_c, 0, 57, 53
3, 46020, Note_on_c, 0, 57, 0
3, 46020, Note_on_c, 0, 60, 0
3, 46020, Note_on_c, 0, 65, 0
3, 46080, Note_on_c, 0, 34, 59
3, 46080, Note_on_c, 0, 46, 72
3, 46200, Note_on_c, 0, 62, 52
3, 46200, Note_on_c, 0, 50, 44
3, 46320, Note_on_c, 0, 50, 0
3, 46320, Note_on_c, 0, 62, 0
3, 46320, Note_on_c, 0, 53, 44
3, 46320, Note_on_c, 0, 60, 52
3, 46440, Note_on_c, 0, 60, 0
3, 46440, Note_on_c, 0, 53, 0
3, 46440, Note_on_c, 0, 58, 52
3, 46560, Note_on_c, 0, 58, 0
3, 46560, Note_on_c, 0, 46, 0
3, 46560, Note_on_c, 0, 34, 0
3, 46560, Note_on_c, 0, 32, 59
3, 46560, Note_on_c, 0, 44, 72
3, 46680, Note_on_c, 0, 50, 45
3, 46680, Note_on_c, 0, 62, 53
3, 46800, Note_on_c, 0, 62, 0
3, 46800, Note_on_c, 0, 50, 0
3, 46800, Note_on_c, 0, 53, 45
3, 46800, Note_on_c, 0, 60, 55
3, 46860, Note_on_c, 0, 60, 0
3, 46860, Note_on_c, 0, 59, 48
3, 46920, Note_on_c, 0, 59, 0
3, 46920, Note_on_c, 0, 53, 0
3, 46920, Note_on_c, 0, 58, 56
3, 47040, Note_on_c, 0, 58, 0
3, 47040, Note_on_c, 0, 44, 0
3, 47040, Note_on_c, 0, 32, 0
3, 47040, Note_on_c, 0, 30, 59
3, 47040, Note_on_c, 0, 42, 72
3, 47160, Note_on_c, 0, 62, 52
3, 47160, Note_on_c, 0, 50, 44
3, 47280, Note_on_c, 0, 50, 0
3, 47280, Note_on_c, 0, 62, 0
3, 47280, Note_on_c, 0, 60, 52
3, 47280, Note_on_c, 0, 54, 44
3, 47400, Note_on_c, 0, 54, 0
3, 47400, Note_on_c, 0, 60, 0
3, 47400, Note_on_c, 0, 58, 52
3, 47520, Note_on_c, 0, 58, 0
3, 47520, Note_on_c, 0, 42, 0
3, 47520, Note_on_c, 0, 30, 0
3, 47520, Note_on_c, 0, 29, 59
3, 47520, Note_on_c, 0, 41, 72
3, 47640, Note_on_c, 0, 50, 45
3, 47640, Note_on_c, 0, 62, 53
3, 47760, Note_on_c, 0, 62, 0
3, 47760, Note_on_c, 0, 50, 0
3, 47760, Note_on_c, 0, 56, 45
3, 47760, Note_on_c, 0, 60, 55
3, 47820, Note_on_c, 0, 60, 0
3, 47820, Note_on_c, 0, 59, 48
3, 47880, Note_on_c, 0, 59, 0
3, 47880, Note_on_c, 0, 56, 0
3, 47880, Note_on_c, 0, 58, 56
3, 48000, Note_on_c, 0, 58, 0
3, 48000, Note_on_c, 0, 41, 0
3, 48000, Note_on_c, 0, 29, 0
3, 48000, Note_on_c, 0, 51, 81
3, 48000, Note_on_c, 0, 39, 68
3, 48120, Note_on_c, 0, 66, 58
3, 48120, Note_on_c, 0, 54, 52
3, 48240, Note_on_c, 0, 54, 0
3, 48240, Note_on_c, 0, 66, 0
3, 48240, Note_on_c, 0, 58, 49
3, 48240, Note_on_c, 0, 65, 58
3, 48360, Note_on_c, 0, 65, 0
3, 48360, Note_on_c, 0, 58, 0
3, 48360, Note_on_c, 0, 63, 59
3, 48480, Note_on_c, 0, 63, 0
3, 48480, Note_on_c, 0, 39, 0
3, 48480, Note_on_c, 0, 51, 0
3, 48480, Note_on_c, 0, 37, 70
3, 48480, Note_on_c, 0, 49, 83
3, 48600, Note_on_c, 0, 66, 62
3, 48600, Note_on_c, 0, 54, 51
3, 48720, Note_on_c, 0, 54, 0
3, 48720, Note_on_c, 0, 66, 0
3, 48720, Note_on_c, 0, 65, 65
3, 48720, Note_on_c, 0, 58, 54
3, 48780, Note_on_c, 0, 65, 0
3, 48780, Note_on_c, 0, 64, 57
3, 48840, Note_on_c, 0, 64, 0
3, 48840, Note_on_c, 0, 58, 0
3, 48840, Note_on_c, 0, 63, 66
3, 48960, Note_on_c, 0, 63, 0
3, 48960, Note_on_c, 0, 49, 0
3, 48960, Note_on_c, 0, 37, 0
3, 48960, Note_on_c, 0, 35, 72
3, 48960, Note_on_c, 0, 47, 87
3, 49080, Note_on_c, 0, 54, 52
3, 49080, Note_on_c, 0, 66, 63
3, 49200, Note_on_c, 0, 66, 0
3, 49200, Note_on_c, 0, 54, 0
3, 49200, Note_on_c, 0, 59, 53
3, 49200, Note_on_c, 0, 65, 63
3, 49320, Note_on_c, 0, 65, 0
3, 49320, Note_on_c, 0, 59, 0
3, 49320, Note_on_c, 0, 63, 63
3, 49440, Note_on_c, 0, 63, 0
3, 49440, Note_on_c, 0, 47, 0
3, 49440, Note_on_c, 0, 35, 0
3, 49440, Note_on_c, 0, 34, 75
3, 49440, Note_on_c, 0, 46, 91
3, 49560, Note_on_c, 0, 66, 65
3, 49560, Note_on_c, 0, 54, 55
3, 49680, Note_on_c, 0, 54, 0
3, 49680, Note_on_c, 0, 66, 0
3, 49680, Note_on_c, 0, 65, 70
3, 49680, Note_on_c, 0, 58, 58
3, 49740, Note_on_c, 0, 65, 0
3, 49740, Note_on_c, 0, 64, 60
3, 49800, Note_on_c, 0, 64, 0
3, 49800, Note_on_c, 0, 58, 0
3, 49800, Note_on_c, 0, 63, 72
3, 49920, Note_on_c, 0, 63, 0
3, 49920, Note_on_c, 0, 46, 0
3, 49920, Note_on_c, 0, 34, 0
3, 49920, Note_on_c, 0, 32, 36
3, 49920, Note_on_c, 0, 44, 36
3, 49980, Note_on_c, 0, 45, 28
3, 49992, Note_on_c, 0, 44, 0
3, 50040, Note_on_c, 0, 45, 0
3, 50040, Note_on_c, 0, 45, 28
3, 50100, Note_on_c, 0, 45, 0
3, 50100, Note_on_c, 0, 46, 29
3, 50160, Note_on_c, 0, 46, 0
3, 50160, Note_on_c, 0, 32, 0
3, 50160, Note_on_c, 0, 47, 29
3, 50220, Note_on_c, 0, 48, 29
3, 50232, Note_on_c, 0, 47, 0
3, 50280, Note_on_c, 0, 48, 0
3, 50280, Note_on_c, 0, 47, 30
3, 50340, Note_on_c, 0, 47, 0
3, 50340, Note_on_c, 0, 48, 30
3, 50400, Note_on_c, 0, 48, 0
3, 50400, Note_on_c, 0, 37, 36
3, 50400, Note_on_c, 0, 49, 36
3, 50460, Note_on_c, 0, 50, 31
3, 50472, Note_on_c, 0, 49, 0
3, 50520, Note_on_c, 0, 50, 0
3, 50520, Note_on_c, 0, 49, 32
3, 50580, Note_on_c, 0, 49, 0
3, 50580, Note_on_c, 0, 51, 32
3, 50640, Note_on_c, 0, 51, 0
3, 50640, Note_on_c, 0, 37, 0
3, 50640, Note_on_c, 0, 52, 33
3, 50700, Note_on_c, 0, 53, 35
3, 50712, Note_on_c, 0, 52, 0
3, 50760, Note_on_c, 0, 53, 0
3, 50760, Note_on_c, 0, 52, 36
3, 50820, Note_on_c, 0, 52, 0
3, 50820, Note_on_c, 0, 53, 36
3, 50880, Note_on_c, 0, 53, 0
3, 50880, Note_on_c, 0, 42, 36
3, 50880, Note_on_c, 0, 54, 36
3, 50940, Note_on_c, 0, 55, 28
3, 50952, Note_on_c, 0, 54, 0
3, 51000, Note_on_c, 0, 55, 0
3, 51000, Note_on_c, 0, 54, 28
3, 51060, Note_on_c, 0, 54, 0
3, 51060, Note_on_c, 0, 56, 29
3, 51120, Note_on_c, 0, 56, 0
3, 51120, Note_on_c, 0, 42, 0
3, 51120, Note_on_c, 0, 57, 29
3, 51180, Note_on_c, 0, 58, 29
3, 51192, Note_on_c, 0, 57, 0
3, 51240, Note_on_c, 0, 58, 0
3, 51240, Note_on_c, 0, 57, 30
3, 51300, Note_on_c, 0, 57, 0
3, 51300, Note_on_c, 0, 58, 30
3, 51360, Note_on_c, 0, 58, 0
3, 51360, Note_on_c, 0, 47, 36
3, 51360, Note_on_c, 0, 59, 36
3, 51420, Note_on_c, 0, 60, 31
3, 51432, Note_on_c, 0, 59, 0
3, 51480, Note_on_c, 0, 60, 0
3, 51480, Note_on_c, 0, 59, 32
3, 51540, Note_on_c, 0, 59, 0
3, 51540, Note_on_c, 0, 61, 32
3, 51600, Note_on_c, 0, 61, 0
3, 51600, Note_on_c, 0, 47, 0
3, 51600, Note_on_c, 0, 62, 33
3, 51660, Note_on_c, 0, 63, 35
3, 51672, Note_on_c, 0, 62, 0
3, 51720, Note_on_c, 0, 63, 0
3, 51720, Note_on_c, 0, 62, 36
3, 51780, Note_on_c, 0, 62, 0
3, 51780, Note_on_c, 0, 63, 36
3, 51840, Note_on_c, 0, 63, 0
3, 51840, Note_on_c, 0, 65, 36
3, 51840, Note_on_c, 0, 53, 36
3, 51900, Note_on_c, 0, 66, 28
3, 51912, Note_on_c, 0, 65, 0
3, 51960, Note_on_c, 0, 66, 0
3, 51960, Note_on_c, 0, 65, 28
3, 52020, Note_on_c, 0, 65, 0
3, 52020, Note_on_c, 0, 67, 29
3, 52080, Note_on_c, 0, 67, 0
3, 52080, Note_on_c, 0, 53, 0
3, 52080, Note_on_c, 0, 68, 29
3, 52140, Note_on_c, 0, 69, 29
3, 52152, Note_on_c, 0, 68, 0
3, 52200, Note_on_c, 0, 69, 0
3, 52200, Note_on_c, 0, 68, 30
3, 52260, Note_on_c, 0, 68, 0
3, 52260, Note_on_c, 0, 69, 30
3, 52320, Note_on_c, 0, 69, 0
3, 52320, Note_on_c, 0, 58, 36
3, 52320, Note_on_c, 0, 70, 36
3, 52380, Note_on_c, 0, 71, 31
3, 52392, Note_on_c, 0, 70, 0
3, 52440, Note_on_c, 0, 71, 0
3, 52440, Note_on_c, 0, 70, 32
3, 52500, Note_on_c, 0, 70, 0
3, 52500, Note_on_c, 0, 73, 32
3, 52560, Note_on_c, 0, 73, 0
3, 52560, Note_on_c, 0, 58, 0
3, 52560, Note_on_c, 0, 74, 33
3, 52620, Note_on_c, 0, 74, 0
3, 52620, Note_on_c, 0, 73, 35
3, 52680, Note_on_c, 0, 73, 0
3, 52680, Note_on_c, 0, 74, 36
3, 52740, Note_on_c, 0, 74, 0
3, 52740, Note_on_c, 0, 70, 36
3, 52800, Note_on_c, 0, 70, 0
3, 52800, Note_on_c, 0, 63, 36
3, 52800, Note_on_c, 0, 75, 33
3, 52860, Note_on_c, 0, 74, 33
3, 52872, Note_on_c, 0, 75, 0
3, 52920, Note_on_c, 0, 74, 0
3, 52920, Note_on_c, 0, 73, 33
3, 52980, Note_on_c, 0, 73, 0
3, 52980, Note_on_c, 0, 72, 33
3, 53040, Note_on_c, 0, 72, 0
3, 53040, Note_on_c, 0, 63, 0
3, 53040, Note_on_c, 0, 71, 33
3, 53100, Note_on_c, 0, 70, 33
3, 53112, Note_on_c, 0, 71, 0
3, 53160, Note_on_c, 0, 70, 0
3, 53160, Note_on_c, 0, 66, 33
3, 53220, Note_on_c, 0, 66, 0
3, 53220, Note_on_c, 0, 63, 33
3, 53280, Note_on_c, 0, 63, 0
3, 53280, Note_on_c, 0, 59, 43
3, 53280, Note_on_c, 0, 69, 43
3, 53340, Note_on_c, 0, 69, 0
3, 53340, Note_on_c, 0, 68, 35
3, 53400, Note_on_c, 0, 68, 0
3, 53400, Note_on_c, 0, 67, 36
3, 53460, Note_on_c, 0, 67, 0
3, 53460, Note_on_c, 0, 66, 36
3, 53520, Note_on_c, 0, 66, 0
3, 53520, Note_on_c, 0, 59, 0
3, 53520, Note_on_c, 0, 60, 45
3, 53520, Note_on_c, 0, 65, 45
3, 53580, Note_on_c, 0, 65, 0
3, 53580, Note_on_c, 0, 64, 37
3, 53640, Note_on_c, 0, 64, 0
3, 53640, Note_on_c, 0, 63, 38
3, 53700, Note_on_c, 0, 63, 0
3, 53700, Note_on_c, 0, 62, 38
3, 53760, Note_on_c, 0, 62, 0
3, 53760, Note_on_c, 0, 60, 0
3, 53760, Note_on_c, 0, 61, 56
3, 53760, Note_on_c, 0, 49, 56
3, 53820, Note_on_c, 0, 49, 0
3, 53820, Note_on_c, 0, 61, 0
3, 54000, Note_on_c, 0, 71, 28
3, 54060, Note_on_c, 0, 71, 0
3, 54060, Note_on_c, 0, 74, 22
3, 54120, Note_on_c, 0, 74, 0
3, 54120, Note_on_c, 0, 70, 28
3, 54180, Note_on_c, 0, 70, 0
3, 54180, Note_on_c, 0, 73, 24
3, 54240, Note_on_c, 0, 73, 0
3, 54240, Note_on_c, 0, 71, 28
3, 54300, Note_on_c, 0, 71, 0
3, 54300, Note_on_c, 0, 74, 25
3, 54360, Note_on_c, 0, 74, 0
3, 54360, Note_on_c, 0, 64, 30
3, 54420, Note_on_c, 0, 64, 0
3, 54420, Note_on_c, 0, 67, 29
3, 54480, Note_on_c, 0, 67, 0
3, 54480, Note_on_c, 0, 65, 30
3, 54540, Note_on_c, 0, 65, 0
3, 54540, Note_on_c, 0, 68, 32
3, 54600, Note_on_c, 0, 68, 0
3, 54600, Note_on_c, 0, 58, 33
3, 54660, Note_on_c, 0, 58, 0
3, 54660, Note_on_c, 0, 61, 36
3, 54720, Note_on_c, 0, 61, 0
3, 54720, Note_on_c, 0, 59, 36
3, 54780, Note_on_c, 0, 59, 0
3, 54780, Note_on_c, 0, 62, 33
3, 54840, Note_on_c, 0, 62, 0
3, 54840, Note_on_c, 0, 59, 39
3, 54900, Note_on_c, 0, 59, 0
3, 54900, Note_on_c, 0, 49, 33
3, 54960, Note_on_c, 0, 49, 0
3, 54960, Note_on_c, 0, 57, 39
3, 55020, Note_on_c, 0, 57, 0
3, 55020, Note_on_c, 0, 49, 32
3, 55080, Note_on_c, 0, 49, 0
3, 55080, Note_on_c, 0, 56, 39
3, 55140, Note_on_c, 0, 56, 0
3, 55140, Note_on_c, 0, 49, 31
3, 55200, Note_on_c, 0, 49, 0
3, 55200, Note_on_c, 0, 55, 39
3, 55260, Note_on_c, 0, 55, 0
3, 55260, Note_on_c, 0, 49, 33
3, 55320, Note_on_c, 0, 49, 0
3, 55320, Note_on_c, 0, 54, 39
3, 55380, Note_on_c, 0, 54, 0
3, 55380, Note_on_c, 0, 49, 32
3, 55440, Note_on_c, 0, 49, 0
3, 55440, Note_on_c, 0, 57, 39
3, 55500, Note_on_c, 0, 57, 0
3, 55500, Note_on_c, 0, 49, 32
3, 55560, Note_on_c, 0, 49, 0
3, 55560, Note_on_c, 0, 63, 39
3, 55620, Note_on_c, 0, 63, 0
3, 55620, Note_on_c, 0, 49, 33
3, 55680, Note_on_c, 0, 49, 0
3, 55680, Note_on_c, 0, 68, 43
3, 55680, Note_on_c, 0, 61, 43
3, 55740, Note_on_c, 0, 61, 0
3, 55740, Note_on_c, 0, 68, 0
3, 55800, Note_on_c, 0, 37, 43
3, 55860, Note_on_c, 0, 37, 0
3, 55920, Note_on_c, 0, 59, 28
3, 55980, Note_on_c, 0, 59, 0
3, 55980, Note_on_c, 0, 62, 22
3, 56040, Note_on_c, 0, 62, 0
3, 56040, Note_on_c, 0, 58, 28
3, 56100, Note_on_c, 0, 58, 0
3, 56100, Note_on_c, 0, 61, 24
3, 56160, Note_on_c, 0, 61, 0
3, 56160, Note_on_c, 0, 59, 28
3, 56220, Note_on_c, 0, 59, 0
3, 56220, Note_on_c, 0, 62, 25
3, 56280, Note_on_c, 0, 62, 0
3, 56280, Note_on_c, 0, 52, 30
3, 56340, Note_on_c, 0, 52, 0
3, 56340, Note_on_c, 0, 55, 29
3, 56400, Note_on_c, 0, 55, 0
3, 56400, Note_on_c, 0, 53, 30
3, 56460, Note_on_c, 0, 53, 0
3, 56460, Note_on_c, 0, 56, 32
3, 56520, Note_on_c, 0, 56, 0
3, 56520, Note_on_c, 0, 46, 33
3, 56580, Note_on_c, 0, 46, 0
3, 56580, Note_on_c, 0, 49, 36
3, 56640, Note_on_c, 0, 49, 0
3, 56640, Note_on_c, 0, 47, 36
3, 56700, Note_on_c, 0, 47, 0
3, 56700, Note_on_c, 0, 50, 33
3, 56760, Note_on_c, 0, 50, 0
3, 56760, Note_on_c, 0, 47, 39
3, 56820, Note_on_c, 0, 47, 0
3, 56820, Note_on_c, 0, 37, 33
3, 56880, Note_on_c, 0, 37, 0
3, 56880, Note_on_c, 0, 45, 39
3, 56940, Note_on_c, 0, 45, 0
3, 56940, Note_on_c, 0, 37, 32
3, 57000, Note_on_c, 0, 37, 0
3, 57000, Note_on_c, 0, 44, 39
3, 57060, Note_on_c, 0, 44, 0
3, 57060, Note_on_c, 0, 37, 31
3, 57120, Note_on_c, 0, 37, 0
3, 57120, Note_on_c, 0, 43, 39
3, 57180, Note_on_c, 0, 43, 0
3, 57180, Note_on_c, 0, 37, 33
3, 57240, Note_on_c, 0, 37, 0
3, 57240, Note_on_c, 0, 42, 39
3, 57300, Note_on_c, 0, 42, 0
3, 57300, Note_on_c, 0, 37, 32
3, 57360, Note_on_c, 0, 37, 0
3, 57360, Note_on_c, 0, 45, 39
3, 57420, Note_on_c, 0, 45, 0
3, 57420, Note_on_c, 0, 37, 32
3, 57480, Note_on_c, 0, 37, 0
3, 57480, Note_on_c, 0, 51, 39
3, 57540, Note_on_c, 0, 51, 0
3, 57540, Note_on_c, 0, 37, 33
3, 57600, Note_on_c, 0, 37, 0
3, 57600, Note_on_c, 0, 49, 39
3, 57660, Note_on_c, 0, 49, 0
3, 57660, Note_on_c, 0, 37, 32
3, 57720, Note_on_c, 0, 37, 0
3, 57720, Note_on_c, 0, 47, 39
3, 57780, Note_on_c, 0, 47, 0
3, 57780, Note_on_c, 0, 37, 32
3, 57840, Note_on_c, 0, 37, 0
3, 57840, Note_on_c, 0, 45, 41
3, 57900, Note_on_c, 0, 45, 0
3, 57900, Note_on_c, 0, 37, 33
3, 57960, Note_on_c, 0, 37, 0
3, 57960, Note_on_c, 0, 44, 41
3, 58020, Note_on_c, 0, 44, 0
3, 58020, Note_on_c, 0, 37, 33
3, 58080, Note_on_c, 0, 37, 0
3, 58080, Note_on_c, 0, 43, 42
3, 58140, Note_on_c, 0, 43, 0
3, 58140, Note_on_c, 0, 37, 35
3, 58200, Note_on_c, 0, 37, 0
3, 58200, Note_on_c, 0, 42, 43
3, 58260, Note_on_c, 0, 42, 0
3, 58260, Note_on_c, 0, 37, 36
3, 58320, Note_on_c, 0, 37, 0
3, 58320, Note_on_c, 0, 45, 44
3, 58380, Note_on_c, 0, 45, 0
3, 58380, Note_on_c, 0, 37, 36
3, 58440, Note_on_c, 0, 37, 0
3, 58440, Note_on_c, 0, 51, 45
3, 58500, Note_on_c, 0, 51, 0
3, 58500, Note_on_c, 0, 37, 36
3, 58560, Note_on_c, 0, 37, 0
3, 58560, Note_on_c, 0, 49, 50
3, 58680, Note_on_c, 0, 49, 0
3, 58680, Note_on_c, 0, 35, 58
3, 58680, Note_on_c, 0, 47, 69
3, 58740, Note_on_c, 0, 47, 0
3, 58740, Note_on_c, 0, 35, 0
3, 58800, Note_on_c, 0, 48, 60
3, 58800, Note_on_c, 0, 36, 51
3, 58860, Note_on_c, 0, 36, 0
3, 58860, Note_on_c, 0, 48, 0
3, 58920, Note_on_c, 0, 37, 51
3, 58920, Note_on_c, 0, 49, 60
3, 58980, Note_on_c, 0, 49, 0
3, 58980, Note_on_c, 0, 37, 0
3, 59040, Note_on_c, 0, 38, 58
3, 59040, Note_on_c, 0, 50, 69
3, 59100, Note_on_c, 0, 50, 0
3, 59100, Note_on_c, 0, 38, 0
3, 59160, Note_on_c, 0, 47, 65
3, 59220, Note_on_c, 0, 47, 0
3, 59280, Note_on_c, 0, 48, 69
3, 59340, Note_on_c, 0, 48, 0
3, 59340, Note_on_c, 0, 49, 64
3, 59400, Note_on_c, 0, 49, 0
3, 59400, Note_on_c, 0, 50, 64
3, 59520, Note_on_c, 0, 50, 0
3, 59640, Note_on_c, 0, 59, 33
3, 59700, Note_on_c, 0, 59, 0
3, 59760, Note_on_c, 0, 60, 28
3, 59820, Note_on_c, 0, 60, 0
3, 59880, Note_on_c, 0, 61, 28
3, 59940, Note_on_c, 0, 61, 0
3, 60000, Note_on_c, 0, 62, 33
3, 60060, Note_on_c, 0, 62, 0
3, 60120, Note_on_c, 0, 59, 30
3, 60180, Note_on_c, 0, 59, 0
3, 60240, Note_on_c, 0, 60, 33
3, 60300, Note_on_c, 0, 60, 0
3, 60300, Note_on_c, 0, 61, 30
3, 60360, Note_on_c, 0, 61, 0
3, 60360, Note_on_c, 0, 62, 30
3, 60480, Note_on_c, 0, 62, 0
3, 60600, Note_on_c, 0, 35, 58
3, 60600, Note_on_c, 0, 47, 69
3, 60660, Note_on_c, 0, 47, 0
3, 60660, Note_on_c, 0, 35, 0
3, 60720, Note_on_c, 0, 36, 51
3, 60720, Note_on_c, 0, 48, 60
3, 60780, Note_on_c, 0, 48, 0
3, 60780, Note_on_c, 0, 36, 0
3, 60840, Note_on_c, 0, 49, 60
3, 60840, Note_on_c, 0, 37, 51
3, 60900, Note_on_c, 0, 37, 0
3, 60900, Note_on_c, 0, 49, 0
3, 60960, Note_on_c, 0, 50, 69
3, 60960, Note_on_c, 0, 38, 58
3, 61020, Note_on_c, 0, 38, 0
3, 61020, Note_on_c, 0, 50, 0
3, 61080, Note_on_c, 0, 47, 65
3, 61140, Note_on_c, 0, 47, 0
3, 61200, Note_on_c, 0, 48, 69
3, 61260, Note_on_c, 0, 48, 0
3, 61260, Note_on_c, 0, 49, 64
3, 61320, Note_on_c, 0, 49, 0
3, 61320, Note_on_c, 0, 50, 64
3, 61440, Note_on_c, 0, 50, 0
3, 61560, Note_on_c, 0, 59, 33
3, 61620, Note_on_c, 0, 59, 0
3, 61680, Note_on_c, 0, 60, 28
3, 61740, Note_on_c, 0, 60, 0
3, 61800, Note_on_c, 0, 61, 28
3, 61860, Note_on_c, 0, 61, 0
3, 61920, Note_on_c, 0, 62, 33
3, 61980, Note_on_c, 0, 62, 0
3, 62040, Note_on_c, 0, 59, 30
3, 62100, Note_on_c, 0, 59, 0
3, 62160, Note_on_c, 0, 60, 33
3, 62220, Note_on_c, 0, 60, 0
3, 62220, Note_on_c, 0, 61, 30
3, 62280, Note_on_c, 0, 61, 0
3, 62280, Note_on_c, 0, 62, 30
3, 62400, Note_on_c, 0, 62, 0
3, 62520, Note_on_c, 0, 62, 33
3, 62580, Note_on_c, 0, 62, 0
3, 62640, Note_on_c, 0, 63, 28
3, 62700, Note_on_c, 0, 63, 0
3, 62760, Note_on_c, 0, 64, 28
3, 62820, Note_on_c, 0, 64, 0
3, 62880, Note_on_c, 0, 65, 33
3, 62940, Note_on_c, 0, 65, 0
3, 63000, Note_on_c, 0, 65, 30
3, 63060, Note_on_c, 0, 65, 0
3, 63120, Note_on_c, 0, 66, 33
3, 63180, Note_on_c, 0, 66, 0
3, 63180, Note_on_c, 0, 67, 30
3, 63240, Note_on_c, 0, 67, 0
3, 63240, Note_on_c, 0, 68, 30
3, 63360, Note_on_c, 0, 68, 0
3, 63360, Note_on_c, 0, 83, 31
3, 63360, Note_on_c, 0, 68, 31
3, 63420, Note_on_c, 0, 68, 0
3, 63420, Note_on_c, 0, 83, 0
3, 63420, Note_on_c, 0, 81, 25
3, 63420, Note_on_c, 0, 69, 25
3, 63480, Note_on_c, 0, 69, 0
3, 63480, Note_on_c, 0, 81, 0
3, 63480, Note_on_c, 0, 82, 25
3, 63480, Note_on_c, 0, 70, 25
3, 63540, Note_on_c, 0, 70, 0
3, 63540, Note_on_c, 0, 82, 0
3, 63540, Note_on_c, 0, 71, 25
3, 63540, Note_on_c, 0, 80, 25
3, 63600, Note_on_c, 0, 80, 0
3, 63600, Note_on_c, 0, 71, 0
3, 63600, Note_on_c, 0, 71, 31
3, 63600, Note_on_c, 0, 87, 31
3, 63660, Note_on_c, 0, 87, 0
3, 63660, Note_on_c, 0, 71, 0
3, 63660, Note_on_c, 0, 72, 25
3, 63660, Note_on_c, 0, 84, 25
3, 63720, Note_on_c, 0, 84, 0
3, 63720, Note_on_c, 0, 72, 0
3, 63720, Note_on_c, 0, 73, 25
3, 63720, Note_on_c, 0, 85, 25
3, 63780, Note_on_c, 0, 85, 0
3, 63780, Note_on_c, 0, 73, 0
3, 63780, Note_on_c, 0, 74, 25
3, 63780, Note_on_c, 0, 83, 25
3, 63840, Note_on_c, 0, 83, 0
3, 63840, Note_on_c, 0, 74, 0
3, 63840, Note_on_c, 0, 74, 31
3, 63840, Note_on_c, 0, 88, 31
3, 63900, Note_on_c, 0, 88, 0
3, 63900, Note_on_c, 0, 74, 0
3, 63900, Note_on_c, 0, 87, 27
3, 63900, Note_on_c, 0, 75, 27
3, 63960, Note_on_c, 0, 75, 0
3, 63960, Note_on_c, 0, 87, 0
3, 63960, Note_on_c, 0, 76, 27
3, 63960, Note_on_c, 0, 88, 27
3, 64020, Note_on_c, 0, 88, 0
3, 64020, Note_on_c, 0, 76, 0
3, 64020, Note_on_c, 0, 86, 27
3, 64020, Note_on_c, 0, 77, 27
3, 64080, Note_on_c, 0, 77, 0
3, 64080, Note_on_c, 0, 86, 0
3, 64080, Note_on_c, 0, 92, 31
3, 64080, Note_on_c, 0, 77, 31
3, 64140, Note_on_c, 0, 77, 0
3, 64140, Note_on_c, 0, 92, 0
3, 64140, Note_on_c, 0, 90, 27
3, 64140, Note_on_c, 0, 78, 27
3, 64200, Note_on_c, 0, 78, 0
3, 64200, Note_on_c, 0, 90, 0
3, 64200, Note_on_c, 0, 91, 27
3, 64200, Note_on_c, 0, 79, 27
3, 64260, Note_on_c, 0, 79, 0
3, 64260, Note_on_c, 0, 91, 0
3, 64260, Note_on_c, 0, 89, 27
3, 64260, Note_on_c, 0, 80, 27
3, 64320, Note_on_c, 0, 80, 0
3, 64320, Note_on_c, 0, 89, 0
3, 64320, Note_on_c, 0, 95, 32
3, 64320, Note_on_c, 0, 80, 32
3, 64380, Note_on_c, 0, 80, 0
3, 64380, Note_on_c, 0, 95, 0
3, 64380, Note_on_c, 0, 93, 29
3, 64380, Note_on_c, 0, 81, 29
3, 64440, Note_on_c, 0, 81, 0
3, 64440, Note_on_c, 0, 93, 0
3, 64440, Note_on_c, 0, 82, 29
3, 64440, Note_on_c, 0, 94, 29
3, 64500, Note_on_c, 0, 94, 0
3, 64500, Note_on_c, 0, 82, 0
3, 64500, Note_on_c, 0, 92, 29
3, 64500, Note_on_c, 0, 83, 29
3, 64560, Note_on_c, 0, 83, 0
3, 64560, Note_on_c, 0, 92, 0
3, 64560, Note_on_c, 0, 80, 32
3, 64560, Note_on_c, 0, 95, 32
3, 64620, Note_on_c, 0, 95, 0
3, 64620, Note_on_c, 0, 80, 0
3, 64620, Note_on_c, 0, 81, 29
3, 64620, Note_on_c, 0, 93, 29
3, 64680, Note_on_c, 0, 93, 0
3, 64680, Note_on_c, 0, 81, 0
3, 64680, Note_on_c, 0, 82, 29
3, 64680, Note_on_c, 0, 94, 29
3, 64740, Note_on_c, 0, 94, 0
3, 64740, Note_on_c, 0, 82, 0
3, 64740, Note_on_c, 0, 92, 28
3, 64740, Note_on_c, 0, 83, 28
3, 64800, Note_on_c, 0, 83, 0
3, 64800, Note_on_c, 0, 92, 0
3, 64800, Note_on_c, 0, 95, 32
3, 64800, Note_on_c, 0, 80, 32
3, 64860, Note_on_c, 0, 80, 0
3, 64860, Note_on_c, 0, 95, 0
3, 64860, Note_on_c, 0, 81, 29
3, 64860, Note_on_c, 0, 93, 29
3, 64920, Note_on_c, 0, 93, 0
3, 64920, Note_on_c, 0, 81, 0
3, 64920, Note_on_c, 0, 82, 29
3, 64920, Note_on_c, 0, 94, 29
3, 64980, Note_on_c, 0, 94, 0
3, 64980, Note_on_c, 0, 82, 0
3, 64980, Note_on_c, 0, 92, 29
3, 64980, Note_on_c, 0, 83, 29
3, 65040, Note_on_c, 0, 83, 0
3, 65040, Note_on_c, 0, 92, 0
3, 65040, Note_on_c, 0, 80, 32
3, 65040, Note_on_c, 0, 95, 32
3, 65100, Note_on_c, 0, 95, 0
3, 65100, Note_on_c, 0, 80, 0
3, 65100, Note_on_c, 0, 93, 28
3, 65100, Note_on_c, 0, 81, 28
3, 65160, Note_on_c, 0, 81, 0
3, 65160, Note_on_c, 0, 93, 0
3, 65160, Note_on_c, 0, 82, 28
3, 65160, Note_on_c, 0, 94, 28
3, 65220, Note_on_c, 0, 94, 0
3, 65220, Note_on_c, 0, 82, 0
3, 65220, Note_on_c, 0, 92, 28
3, 65220, Note_on_c, 0, 83, 28
3, 65280, Note_on_c, 0, 83, 0
3, 65280, Note_on_c, 0, 92, 0
3, 65280, Note_on_c, 0, 101, 49
3, 65280, Note_on_c, 0, 98, 37
3, 65280, Note_on_c, 0, 95, 37
3, 65340, Note_on_c, 0, 95, 0
3, 65340, Note_on_c, 0, 98, 0
3, 65340, Note_on_c, 0, 101, 0
3, 65340, Note_on_c, 0, 97, 30
3, 65340, Note_on_c, 0, 94, 30
3, 65400, Note_on_c, 0, 94, 0
3, 65400, Note_on_c, 0, 97, 0
3, 65400, Note_on_c, 0, 101, 37
3, 65400, Note_on_c, 0, 98, 30
3, 65400, Note_on_c, 0, 95, 30
3, 65460, Note_on_c, 0, 95, 0
3, 65460, Note_on_c, 0, 98, 0
3, 65460, Note_on_c, 0, 101, 0
3, 65460, Note_on_c, 0, 96, 30
3, 65460, Note_on_c, 0, 93, 30
3, 65520, Note_on_c, 0, 93, 0
3, 65520, Note_on_c, 0, 96, 0
3, 65520, Note_on_c, 0, 98, 46
3, 65520, Note_on_c, 0, 92, 37
3, 65520, Note_on_c, 0, 95, 37
3, 65580, Note_on_c, 0, 95, 0
3, 65580, Note_on_c, 0, 92, 0
3, 65580, Note_on_c, 0, 98, 0
3, 65580, Note_on_c, 0, 91, 30
3, 65580, Note_on_c, 0, 94, 30
3, 65640, Note_on_c, 0, 94, 0
3, 65640, Note_on_c, 0, 91, 0
3, 65640, Note_on_c, 0, 98, 37
3, 65640, Note_on_c, 0, 95, 30
3, 65640, Note_on_c, 0, 92, 30
3, 65700, Note_on_c, 0, 92, 0
3, 65700, Note_on_c, 0, 95, 0
3, 65700, Note_on_c, 0, 98, 0
3, 65700, Note_on_c, 0, 90, 30
3, 65700, Note_on_c, 0, 93, 30
3, 65760, Note_on_c, 0, 93, 0
3, 65760, Note_on_c, 0, 90, 0
3, 65760, Note_on_c, 0, 95, 48
3, 65760, Note_on_c, 0, 89, 37
3, 65760, Note_on_c, 0, 92, 37
3, 65820, Note_on_c, 0, 92, 0
3, 65820, Note_on_c, 0, 89, 0
3, 65820, Note_on_c, 0, 95, 0
3, 65820, Note_on_c, 0, 91, 31
3, 65820, Note_on_c, 0, 88, 31
3, 65880, Note_on_c, 0, 88, 0
3, 65880, Note_on_c, 0, 91, 0
3, 65880, Note_on_c, 0, 95, 37
3, 65880, Note_on_c, 0, 89, 31
3, 65880, Note_on_c, 0, 92, 31
3, 65940, Note_on_c, 0, 92, 0
3, 65940, Note_on_c, 0, 89, 0
3, 65940, Note_on_c, 0, 95, 0
3, 65940, Note_on_c, 0, 87, 31
3, 65940, Note_on_c, 0, 90, 31
3, 66000, Note_on_c, 0, 90, 0
3, 66000, Note_on_c, 0, 87, 0
3, 66000, Note_on_c, 0, 92, 45
3, 66000, Note_on_c, 0, 86, 37
3, 66000, Note_on_c, 0, 89, 37
3, 66060, Note_on_c, 0, 89, 0
3, 66060, Note_on_c, 0, 86, 0
3, 66060, Note_on_c, 0, 92, 0
3, 66060, Note_on_c, 0, 85, 30
3, 66060, Note_on_c, 0, 88, 30
3, 66120, Note_on_c, 0, 88, 0
3, 66120, Note_on_c, 0, 85, 0
3, 66120, Note_on_c, 0, 92, 37
3, 66120, Note_on_c, 0, 89, 30
3, 66120, Note_on_c, 0, 86, 30
3, 66180, Note_on_c, 0, 86, 0
3, 66180, Note_on_c, 0, 89, 0
3, 66180, Note_on_c, 0, 92, 0
3, 66180, Note_on_c, 0, 84, 30
3, 66180, Note_on_c, 0, 87, 30
3, 66240, Note_on_c, 0, 87, 0
3, 66240, Note_on_c, 0, 84, 0
3, 66240, Note_on_c, 0, 89, 44
3, 66240, Note_on_c, 0, 86, 33
3, 66240, Note_on_c, 0, 83, 33
3, 66300, Note_on_c, 0, 83, 0
3, 66300, Note_on_c, 0, 86, 0
3, 66300, Note_on_c, 0, 89, 0
3, 66300, Note_on_c, 0, 82, 27
3, 66300, Note_on_c, 0, 85, 27
3, 66360, Note_on_c, 0, 85, 0
3, 66360, Note_on_c, 0, 82, 0
3, 66360, Note_on_c, 0, 89, 33
3, 66360, Note_on_c, 0, 83, 27
3, 66360, Note_on_c, 0, 86, 27
3, 66420, Note_on_c, 0, 86, 0
3, 66420, Note_on_c, 0, 83, 0
3, 66420, Note_on_c, 0, 89, 0
3, 66420, Note_on_c, 0, 81, 27
3, 66420, Note_on_c, 0, 84, 27
3, 66480, Note_on_c, 0, 84, 0
3, 66480, Note_on_c, 0, 81, 0
3, 66480, Note_on_c, 0, 86, 42
3, 66480, Note_on_c, 0, 83, 33
3, 66480, Note_on_c, 0, 80, 33
3, 66540, Note_on_c, 0, 80, 0
3, 66540, Note_on_c, 0, 83, 0
3, 66540, Note_on_c, 0, 86, 0
3, 66540, Note_on_c, 0, 82, 27
3, 66540, Note_on_c, 0, 79, 27
3, 66600, Note_on_c, 0, 79, 0
3, 66600, Note_on_c, 0, 82, 0
3, 66600, Note_on_c, 0, 86, 33
3, 66600, Note_on_c, 0, 80, 27
3, 66600, Note_on_c, 0, 83, 27
3, 66660, Note_on_c, 0, 83, 0
3, 66660, Note_on_c, 0, 80, 0
3, 66660, Note_on_c, 0, 86, 0
3, 66660, Note_on_c, 0, 81, 27
3, 66660, Note_on_c, 0, 78, 27
3, 66720, Note_on_c, 0, 78, 0
3, 66720, Note_on_c, 0, 81, 0
3, 66720, Note_on_c, 0, 83, 43
3, 66720, Note_on_c, 0, 77, 33
3, 66720, Note_on_c, 0, 80, 33
3, 66780, Note_on_c, 0, 80, 0
3, 66780, Note_on_c, 0, 77, 0
3, 66780, Note_on_c, 0, 83, 0
3, 66780, Note_on_c, 0, 79, 27
3, 66780, Note_on_c, 0, 76, 27
3, 66840, Note_on_c, 0, 76, 0
3, 66840, Note_on_c, 0, 79, 0
3, 66840, Note_on_c, 0, 83, 33
3, 66840, Note_on_c, 0, 77, 27
3, 66840, Note_on_c, 0, 80, 27
3, 66900, Note_on_c, 0, 80, 0
3, 66900, Note_on_c, 0, 77, 0
3, 66900, Note_on_c, 0, 83, 0
3, 66900, Note_on_c, 0, 78, 27
3, 66900, Note_on_c, 0, 75, 27
3, 66960, Note_on_c, 0, 75, 0
3, 66960, Note_on_c, 0, 78, 0
3, 66960, Note_on_c, 0, 80, 41
3, 66960, Note_on_c, 0, 77, 33
3, 66960, Note_on_c, 0, 74, 33
3, 67020, Note_on_c, 0, 74, 0
3, 67020, Note_on_c, 0, 77, 0
3, 67020, Note_on_c, 0, 80, 0
3, 67020, Note_on_c, 0, 76, 27
3, 67020, Note_on_c, 0, 73, 27
3, 67080, Note_on_c, 0, 73, 0
3, 67080, Note_on_c, 0, 76, 0
3, 67080, Note_on_c, 0, 80, 33
3, 67080, Note_on_c, 0, 77, 27
3, 67080, Note_on_c, 0, 74, 27
3, 67140, Note_on_c, 0, 74, 0
3, 67140, Note_on_c, 0, 77, 0
3, 67140, Note_on_c, 0, 80, 0
3, 67140, Note_on_c, 0, 72, 27
3, 67140, Note_on_c, 0, 75, 27
3, 67200, Note_on_c, 0, 75, 0
3, 67200, Note_on_c, 0, 72, 0
3, 67200, Note_on_c, 0, 80, 33
3, 67200, Note_on_c, 0, 74, 33
3, 67200, Note_on_c, 0, 77, 33
3, 67260, Note_on_c, 0, 77, 0
3, 67260, Note_on_c, 0, 74, 0
3, 67260, Note_on_c, 0, 80, 0
3, 67260, Note_on_c, 0, 73, 27
3, 67260, Note_on_c, 0, 76, 27
3, 67320, Note_on_c, 0, 76, 0
3, 67320, Note_on_c, 0, 73, 0
3, 67320, Note_on_c, 0, 77, 27
3, 67320, Note_on_c, 0, 74, 27
3, 67320, Note_on_c, 0, 80, 27
3, 67380, Note_on_c, 0, 80, 0
3, 67380, Note_on_c, 0, 74, 0
3, 67380, Note_on_c, 0, 77, 0
3, 67380, Note_on_c, 0, 76, 27
3, 67380, Note_on_c, 0, 73, 27
3, 67440, Note_on_c, 0, 73, 0
3, 67440, Note_on_c, 0, 76, 0
3, 67440, Note_on_c, 0, 77, 33
3, 67440, Note_on_c, 0, 74, 33
3, 67440, Note_on_c, 0, 80, 33
3, 67500, Note_on_c, 0, 80, 0
3, 67500, Note_on_c, 0, 74, 0
3, 67500, Note_on_c, 0, 77, 0
3, 67500, Note_on_c, 0, 73, 27
3, 67500, Note_on_c, 0, 76, 27
3, 67560, Note_on_c, 0, 76, 0
3, 67560, Note_on_c, 0, 73, 0
3, 67560, Note_on_c, 0, 80, 27
3, 67560, Note_on_c, 0, 77, 27
3, 67560, Note_on_c, 0, 74, 27
3, 67620, Note_on_c, 0, 74, 0
3, 67620, Note_on_c, 0, 77, 0
3, 67620, Note_on_c, 0, 80, 0
3, 67620, Note_on_c, 0, 76, 27
3, 67620, Note_on_c, 0, 73, 27
3, 67680, Note_on_c, 0, 73, 0
3, 67680, Note_on_c, 0, 76, 0
3, 67680, Note_on_c, 0, 77, 33
3, 67680, Note_on_c, 0, 74, 33
3, 67680, Note_on_c, 0, 80, 33
3, 67740, Note_on_c, 0, 80, 0
3, 67740, Note_on_c, 0, 74, 0
3, 67740, Note_on_c, 0, 77, 0
3, 67740, Note_on_c, 0, 73, 27
3, 67740, Note_on_c, 0, 76, 27
3, 67800, Note_on_c, 0, 76, 0
3, 67800, Note_on_c, 0, 73, 0
3, 67800, Note_on_c, 0, 80, 27
3, 67800, Note_on_c, 0, 77, 27
3, 67800, Note_on_c, 0, 74, 27
3, 67860, Note_on_c, 0, 74, 0
3, 67860, Note_on_c, 0, 77, 0
3, 67860, Note_on_c, 0, 80, 0
3, 67860, Note_on_c, 0, 73, 27
3, 67860, Note_on_c, 0, 76, 27
3, 67920, Note_on_c, 0, 76, 0
3, 67920, Note_on_c, 0, 73, 0
3, 67920, Note_on_c, 0, 74, 33
3, 67920, Note_on_c, 0, 77, 33
3, 67920, Note_on_c, 0, 80, 33
3, 67980, Note_on_c, 0, 80, 0
3, 67980, Note_on_c, 0, 77, 0
3, 67980, Note_on_c, 0, 74, 0
3, 67980, Note_on_c, 0, 73, 27
3, 67980, Note_on_c, 0, 76, 27
3, 68040, Note_on_c, 0, 76, 0
3, 68040, Note_on_c, 0, 73, 0
3, 68040, Note_on_c, 0, 74, 27
3, 68040, Note_on_c, 0, 80, 27
3, 68040, Note_on_c, 0, 77, 27
3, 68100, Note_on_c, 0, 77, 0
3, 68100, Note_on_c, 0, 80, 0
3, 68100, Note_on_c, 0, 74, 0
3, 68100, Note_on_c, 0, 73, 27
3, 68100, Note_on_c, 0, 76, 27
3, 68160, Note_on_c, 0, 76, 0
3, 68160, Note_on_c, 0, 73, 0
3, 68160, Note_on_c, 0, 80, 27
3, 68160, Note_on_c, 0, 74, 27
3, 68160, Note_on_c, 0, 77, 27
3, 68220, Note_on_c, 0, 77, 0
3, 68220, Note_on_c, 0, 74, 0
3, 68220, Note_on_c, 0, 80, 0
3, 68220, Note_on_c, 0, 78, 27
3, 68280, Note_on_c, 0, 78, 0
3, 68280, Note_on_c, 0, 77, 27
3, 68340, Note_on_c, 0, 77, 0
3, 68340, Note_on_c, 0, 78, 27
3, 68400, Note_on_c, 0, 78, 0
3, 68400, Note_on_c, 0, 77, 25
3, 68460, Note_on_c, 0, 77, 0
3, 68460, Note_on_c, 0, 78, 25
3, 68520, Note_on_c, 0, 78, 0
3, 68520, Note_on_c, 0, 77, 25
3, 68580, Note_on_c, 0, 77, 0
3, 68580, Note_on_c, 0, 78, 27
3, 68640, Note_on_c, 0, 78, 0
3, 68640, Note_on_c, 0, 77, 27
3, 68700, Note_on_c, 0, 77, 0
3, 68700, Note_on_c, 0, 78, 27
3, 68760, Note_on_c, 0, 78, 0
3, 68760, Note_on_c, 0, 77, 27
3, 68820, Note_on_c, 0, 77, 0
3, 68820, Note_on_c, 0, 78, 27
3, 68880, Note_on_c, 0, 78, 0
3, 68880, Note_on_c, 0, 77, 23
3, 68940, Note_on_c, 0, 77, 0
3, 68940, Note_on_c, 0, 78, 23
3, 69000, Note_on_c, 0, 78, 0
3, 69000, Note_on_c, 0, 77, 24
3, 69060, Note_on_c, 0, 77, 0
3, 69060, Note_on_c, 0, 78, 24
3, 69120, Note_on_c, 0, 78, 0
3, 69360, Note_on_c, 0, 62, 32
3, 69360, Note_on_c, 0, 67, 30
3, 69480, Note_on_c, 0, 67, 0
3, 69480, Note_on_c, 0, 68, 26
3, 69600, Note_on_c, 0, 68, 0
3, 69600, Note_on_c, 0, 62, 0
3, 69600, Note_on_c, 0, 61, 36
3, 69600, Note_on_c, 0, 68, 30
3, 69720, Note_on_c, 0, 68, 0
3, 69720, Note_on_c, 0, 69, 26
3, 69840, Note_on_c, 0, 69, 0
3, 69840, Note_on_c, 0, 61, 0
3, 69840, Note_on_c, 0, 70, 35
3, 69840, Note_on_c, 0, 56, 32
3, 69960, Note_on_c, 0, 70, 0
3, 69960, Note_on_c, 0, 71, 29
3, 70080, Note_on_c, 0, 71, 0
3, 70080, Note_on_c, 0, 56, 0
3, 70080, Note_on_c, 0, 57, 29
3, 70080, Note_on_c, 0, 64, 36
3, 70320, Note_on_c, 0, 64, 0
3, 70320, Note_on_c, 0, 57, 0
3, 70320, Note_on_c, 0, 57, 24
3, 70320, Note_on_c, 0, 52, 24
3, 70320, Note_on_c, 0, 64, 30
3, 70560, Note_on_c, 0, 64, 0
3, 70560, Note_on_c, 0, 52, 0
3, 70560, Note_on_c, 0, 57, 0
3, 70560, Note_on_c, 0, 59, 24
3, 70560, Note_on_c, 0, 64, 30
3, 70560, Note_on_c, 0, 52, 24
3, 70800, Note_on_c, 0, 52, 0
3, 70800, Note_on_c, 0, 64, 0
3, 70800, Note_on_c, 0, 59, 0
3, 70800, Note_on_c, 0, 64, 30
3, 70800, Note_on_c, 0, 56, 24
3, 71040, Note_on_c, 0, 56, 0
3, 71040, Note_on_c, 0, 64, 0
3, 71040, Note_on_c, 0, 57, 29
3, 71040, Note_on_c, 0, 64, 36
3, 71280, Note_on_c, 0, 64, 0
3, 71280, Note_on_c, 0, 57, 0
3, 71280, Note_on_c, 0, 62, 32
3, 71280, Note_on_c, 0, 67, 30
3, 71400, Note_on_c, 0, 67, 0
3, 71400, Note_on_c, 0, 68, 26
3, 71520, Note_on_c, 0, 68, 0
3, 71520, Note_on_c, 0, 62, 0
3, 71520, Note_on_c, 0, 61, 36
3, 71520, Note_on_c, 0, 68, 30
3, 71640, Note_on_c, 0, 68, 0
3, 71640, Note_on_c, 0, 69, 26
3, 71760, Note_on_c, 0, 69, 0
3, 71760, Note_on_c, 0, 61, 0
3, 71760, Note_on_c, 0, 70, 35
3, 71760, Note_on_c, 0, 56, 32
3, 71880, Note_on_c, 0, 70, 0
3, 71880, Note_on_c, 0, 71, 29
3, 72000, Note_on_c, 0, 71, 0
3, 72000, Note_on_c, 0, 56, 0
3, 72000, Note_on_c, 0, 64, 36
3, 72000, Note_on_c, 0, 57, 29
3, 72240, Note_on_c, 0, 57, 0
3, 72240, Note_on_c, 0, 64, 0
3, 72240, Note_on_c, 0, 57, 24
3, 72240, Note_on_c, 0, 52, 24
3, 72240, Note_on_c, 0, 64, 30
3, 72480, Note_on_c, 0, 64, 0
3, 72480, Note_on_c, 0, 52, 0
3, 72480, Note_on_c, 0, 57, 0
3, 72480, Note_on_c, 0, 64, 30
3, 72480, Note_on_c, 0, 52, 24
3, 72480, Note_on_c, 0, 59, 24
3, 72720, Note_on_c, 0, 59, 0
3, 72720, Note_on_c, 0, 52, 0
3, 72720, Note_on_c, 0, 64, 0
3, 72720, Note_on_c, 0, 56, 24
3, 72720, Note_on_c, 0, 64, 30
3, 72960, Note_on_c, 0, 64, 0
3, 72960, Note_on_c, 0, 56, 0
3, 72960, Note_on_c, 0, 64, 30
3, 72960, Note_on_c, 0, 57, 24
3, 73200, Note_on_c, 0, 57, 0
3, 73200, Note_on_c, 0, 64, 0
3, 73200, Note_on_c, 0, 67, 32
3, 73200, Note_on_c, 0, 72, 30
3, 73320, Note_on_c, 0, 72, 0
3, 73320, Note_on_c, 0, 73, 26
3, 73440, Note_on_c, 0, 73, 0
3, 73440, Note_on_c, 0, 67, 0
3, 73440, Note_on_c, 0, 73, 30
3, 73440, Note_on_c, 0, 65, 36
3, 73560, Note_on_c, 0, 73, 0
3, 73560, Note_on_c, 0, 74, 26
3, 73680, Note_on_c, 0, 74, 0
3, 73680, Note_on_c, 0, 65, 0
3, 73680, Note_on_c, 0, 61, 32
3, 73680, Note_on_c, 0, 75, 35
3, 73800, Note_on_c, 0, 75, 0
3, 73800, Note_on_c, 0, 76, 29
3, 73920, Note_on_c, 0, 76, 0
3, 73920, Note_on_c, 0, 61, 0
3, 73920, Note_on_c, 0, 62, 29
3, 73920, Note_on_c, 0, 69, 36
3, 74160, Note_on_c, 0, 69, 0
3, 74160, Note_on_c, 0, 62, 0
3, 74160, Note_on_c, 0, 57, 24
3, 74160, Note_on_c, 0, 69, 30
3, 74160, Note_on_c, 0, 62, 24
3, 74400, Note_on_c, 0, 62, 0
3, 74400, Note_on_c, 0, 69, 0
3, 74400, Note_on_c, 0, 57, 0
3, 74400, Note_on_c, 0, 64, 24
3, 74400, Note_on_c, 0, 57, 24
3, 74400, Note_on_c, 0, 69, 30
3, 74640, Note_on_c, 0, 69, 0
3, 74640, Note_on_c, 0, 57, 0
3, 74640, Note_on_c, 0, 64, 0
3, 74640, Note_on_c, 0, 61, 24
3, 74640, Note_on_c, 0, 69, 30
3, 74880, Note_on_c, 0, 61, 0
3, 74880, Note_on_c, 0, 62, 29
3, 75120, Note_on_c, 0, 62, 0
3, 75120, Note_on_c, 0, 69, 0
3, 75120, Note_on_c, 0, 67, 32
3, 75120, Note_on_c, 0, 72, 30
3, 75240, Note_on_c, 0, 72, 0
3, 75240, Note_on_c, 0, 73, 26
3, 75360, Note_on_c, 0, 73, 0
3, 75360, Note_on_c, 0, 67, 0
3, 75360, Note_on_c, 0, 65, 36
3, 75360, Note_on_c, 0, 73, 30
3, 75480, Note_on_c, 0, 73, 0
3, 75480, Note_on_c, 0, 74, 26
3, 75600, Note_on_c, 0, 74, 0
3, 75600, Note_on_c, 0, 65, 0
3, 75600, Note_on_c, 0, 61, 32
3, 75600, Note_on_c, 0, 75, 35
3, 75720, Note_on_c, 0, 75, 0
3, 75720, Note_on_c, 0, 76, 29
3, 75840, Note_on_c, 0, 76, 0
3, 75840, Note_on_c, 0, 61, 0
3, 75840, Note_on_c, 0, 69, 36
3, 75840, Note_on_c, 0, 62, 29
3, 76080, Note_on_c, 0, 62, 0
3, 76080, Note_on_c, 0, 69, 0
3, 76080, Note_on_c, 0, 69, 30
3, 76080, Note_on_c, 0, 62, 24
3, 76080, Note_on_c, 0, 57, 24
3, 76320, Note_on_c, 0, 57, 0
3, 76320, Note_on_c, 0, 62, 0
3, 76320, Note_on_c, 0, 69, 0
3, 76320, Note_on_c, 0, 69, 30
3, 76320, Note_on_c, 0, 64, 24
3, 76320, Note_on_c, 0, 57, 24
3, 76560, Note_on_c, 0, 57, 0
3, 76560, Note_on_c, 0, 64, 0
3, 76560, Note_on_c, 0, 69, 0
3, 76560, Note_on_c, 0, 61, 24
3, 76560, Note_on_c, 0, 69, 30
3, 76800, Note_on_c, 0, 61, 0
3, 76800, Note_on_c, 0, 62, 29
3, 77040, Note_on_c, 0, 62, 0
3, 77040, Note_on_c, 0, 69, 0
3, 77040, Note_on_c, 0, 60, 36
3, 77040, Note_on_c, 0, 45, 30
3, 77280, Note_on_c, 0, 45, 0
3, 77280, Note_on_c, 0, 60, 0
3, 77280, Note_on_c, 0, 46, 24
3, 77280, Note_on_c, 0, 62, 29
3, 77400, Note_on_c, 0, 62, 0
3, 77400, Note_on_c, 0, 46, 0
3, 77520, Note_on_c, 0, 48, 28
3, 77520, Note_on_c, 0, 63, 35
3, 77760, Note_on_c, 0, 63, 0
3, 77760, Note_on_c, 0, 48, 0
3, 77760, Note_on_c, 0, 65, 25
3, 77760, Note_on_c, 0, 50, 20
3, 77880, Note_on_c, 0, 50, 0
3, 77880, Note_on_c, 0, 65, 0
3, 78000, Note_on_c, 0, 66, 31
3, 78000, Note_on_c, 0, 51, 26
3, 78240, Note_on_c, 0, 51, 0
3, 78240, Note_on_c, 0, 66, 0
3, 78240, Note_on_c, 0, 68, 25
3, 78240, Note_on_c, 0, 52, 21
3, 78360, Note_on_c, 0, 52, 0
3, 78360, Note_on_c, 0, 68, 0
3, 78480, Note_on_c, 0, 54, 22
3, 78480, Note_on_c, 0, 63, 27
3, 78600, Note_on_c, 0, 63, 0
3, 78600, Note_on_c, 0, 60, 23
3, 78720, Note_on_c, 0, 60, 0
3, 78720, Note_on_c, 0, 54, 0
3, 78720, Note_on_c, 0, 56, 24
3, 78720, Note_on_c, 0, 64, 29
3, 78780, Note_on_c, 0, 64, 0
3, 78840, Note_on_c, 0, 59, 25
3, 78900, Note_on_c, 0, 59, 0
3, 78960, Note_on_c, 0, 56, 0
3, 78960, Note_on_c, 0, 57, 29
3, 78960, Note_on_c, 0, 66, 29
3, 79020, Note_on_c, 0, 66, 0
3, 79080, Note_on_c, 0, 60, 24
3, 79140, Note_on_c, 0, 60, 0
3, 79200, Note_on_c, 0, 57, 0
3, 79200, Note_on_c, 0, 59, 24
3, 79200, Note_on_c, 0, 68, 29
3, 79260, Note_on_c, 0, 68, 0
3, 79320, Note_on_c, 0, 62, 24
3, 79380, Note_on_c, 0, 62, 0
3, 79440, Note_on_c, 0, 59, 0
3, 79440, Note_on_c, 0, 66, 29
3, 79440, Note_on_c, 0, 60, 24
3, 79500, Note_on_c, 0, 60, 0
3, 79500, Note_on_c, 0, 66, 0
3, 79680, Note_on_c, 0, 62, 24
3, 79680, Note_on_c, 0, 68, 29
3, 79740, Note_on_c, 0, 68, 0
3, 79740, Note_on_c, 0, 62, 0
3, 79920, Note_on_c, 0, 71, 43
3, 79920, Note_on_c, 0, 68, 37
3, 79980, Note_on_c, 0, 68, 0
3, 79980, Note_on_c, 0, 71, 0
3, 80040, Note_on_c, 0, 62, 32
3, 80100, Note_on_c, 0, 62, 0
3, 80160, Note_on_c, 0, 69, 41
3, 80160, Note_on_c, 0, 73, 46
3, 80220, Note_on_c, 0, 73, 0
3, 80220, Note_on_c, 0, 69, 0
3, 80280, Note_on_c, 0, 61, 31
3, 80340, Note_on_c, 0, 61, 0
3, 80400, Note_on_c, 0, 74, 46
3, 80400, Note_on_c, 0, 68, 41
3, 80460, Note_on_c, 0, 68, 0
3, 80460, Note_on_c, 0, 74, 0
3, 80520, Note_on_c, 0, 59, 32
3, 80580, Note_on_c, 0, 59, 0
3, 80610, Note_on_c, 0, 57, 38
3, 80640, Note_on_c, 0, 73, 43
3, 80730, Note_on_c, 0, 63, 36
3, 80760, Note_on_c, 0, 63, 0
3, 80760, Note_on_c, 0, 64, 48
3, 80820, Note_on_c, 0, 64, 0
3, 80880, Note_on_c, 0, 73, 0
3, 80880, Note_on_c, 0, 57, 0
3, 80880, Note_on_c, 0, 49, 37
3, 80940, Note_on_c, 0, 49, 0
3, 80970, Note_on_c, 0, 66, 32
3, 81000, Note_on_c, 0, 66, 0
3, 81000, Note_on_c, 0, 64, 45
3, 81060, Note_on_c, 0, 64, 0
3, 81120, Note_on_c, 0, 40, 38
3, 81180, Note_on_c, 0, 40, 0
3, 81210, Note_on_c, 0, 63, 26
3, 81240, Note_on_c, 0, 63, 0
3, 81240, Note_on_c, 0, 64, 42
3, 81300, Note_on_c, 0, 64, 0
3, 81360, Note_on_c, 0, 44, 37
3, 81420, Note_on_c, 0, 44, 0
3, 81450, Note_on_c, 0, 65, 31
3, 81480, Note_on_c, 0, 65, 0
3, 81480, Note_on_c, 0, 64, 42
3, 81540, Note_on_c, 0, 64, 0
3, 81600, Note_on_c, 0, 45, 39
3, 81660, Note_on_c, 0, 45, 0
3, 81690, Note_on_c, 0, 63, 26
3, 81720, Note_on_c, 0, 63, 0
3, 81720, Note_on_c, 0, 64, 43
3, 81780, Note_on_c, 0, 64, 0
3, 81840, Note_on_c, 0, 71, 43
3, 81840, Note_on_c, 0, 68, 37
3, 81900, Note_on_c, 0, 68, 0
3, 81900, Note_on_c, 0, 71, 0
3, 81960, Note_on_c, 0, 62, 32
3, 82020, Note_on_c, 0, 62, 0
3, 82080, Note_on_c, 0, 73, 46
3, 82080, Note_on_c, 0, 69, 41
3, 82140, Note_on_c, 0, 69, 0
3, 82140, Note_on_c, 0, 73, 0
3, 82200, Note_on_c, 0, 61, 31
3, 82260, Note_on_c, 0, 61, 0
3, 82320, Note_on_c, 0, 74, 46
3, 82320, Note_on_c, 0, 68, 41
3, 82380, Note_on_c, 0, 68, 0
3, 82380, Note_on_c, 0, 74, 0
3, 82440, Note_on_c, 0, 59, 32
3, 82500, Note_on_c, 0, 59, 0
3, 82539, Note_on_c, 0, 57, 37
3, 82560, Note_on_c, 0, 73, 43
3, 82650, Note_on_c, 0, 63, 36
3, 82680, Note_on_c, 0, 63, 0
3, 82680, Note_on_c, 0, 64, 48
3, 82740, Note_on_c, 0, 64, 0
3, 82800, Note_on_c, 0, 73, 0
3, 82800, Note_on_c, 0, 49, 37
3, 82809, Note_on_c, 0, 57, 0
3, 82860, Note_on_c, 0, 49, 0
3, 82890, Note_on_c, 0, 66, 32
3, 82920, Note_on_c, 0, 66, 0
3, 82920, Note_on_c, 0, 64, 45
3, 82980, Note_on_c, 0, 64, 0
3, 83040, Note_on_c, 0, 40, 38
3, 83100, Note_on_c, 0, 40, 0
3, 83130, Note_on_c, 0, 63, 26
3, 83160, Note_on_c, 0, 63, 0
3, 83160, Note_on_c, 0, 64, 42
3, 83220, Note_on_c, 0, 64, 0
3, 83280, Note_on_c, 0, 44, 37
3, 83340, Note_on_c, 0, 44, 0
3, 83370, Note_on_c, 0, 65, 31
3, 83400, Note_on_c, 0, 65, 0
3, 83400, Note_on_c, 0, 64, 42
3, 83460, Note_on_c, 0, 64, 0
3, 83520, Note_on_c, 0, 45, 39
3, 83580, Note_on_c, 0, 45, 0
3, 83610, Note_on_c, 0, 63, 26
3, 83640, Note_on_c, 0, 63, 0
3, 83640, Note_on_c, 0, 64, 43
3, 83700, Note_on_c, 0, 64, 0
3, 83760, Note_on_c, 0, 73, 37
3, 83760, Note_on_c, 0, 76, 43
3, 83820, Note_on_c, 0, 76, 0
3, 83820, Note_on_c, 0, 73, 0
3, 83880, Note_on_c, 0, 67, 32
3, 83940, Note_on_c, 0, 67, 0
3, 84000, Note_on_c, 0, 77, 46
3, 84000, Note_on_c, 0, 74, 41
3, 84060, Note_on_c, 0, 74, 0
3, 84060, Note_on_c, 0, 77, 0
3, 84120, Note_on_c, 0, 65, 31
3, 84180, Note_on_c, 0, 65, 0
3, 84240, Note_on_c, 0, 73, 41
3, 84240, Note_on_c, 0, 79, 46
3, 84300, Note_on_c, 0, 79, 0
3, 84300, Note_on_c, 0, 73, 0
3, 84360, Note_on_c, 0, 64, 32
3, 84420, Note_on_c, 0, 64, 0
3, 84480, Note_on_c, 0, 62, 43
3, 84480, Note_on_c, 0, 77, 43
3, 84570, Note_on_c, 0, 68, 36
3, 84600, Note_on_c, 0, 68, 0
3, 84600, Note_on_c, 0, 69, 48
3, 84660, Note_on_c, 0, 69, 0
3, 84720, Note_on_c, 0, 77, 0
3, 84720, Note_on_c, 0, 62, 0
3, 84720, Note_on_c, 0, 53, 37
3, 84780, Note_on_c, 0, 53, 0
3, 84810, Note_on_c, 0, 70, 32
3, 84840, Note_on_c, 0, 70, 0
3, 84840, Note_on_c, 0, 69, 45
3, 84900, Note_on_c, 0, 69, 0
3, 84960, Note_on_c, 0, 45, 38
3, 85020, Note_on_c, 0, 45, 0
3, 85050, Note_on_c, 0, 68, 26
3, 85080, Note_on_c, 0, 68, 0
3, 85080, Note_on_c, 0, 69, 42
3, 85140, Note_on_c, 0, 69, 0
3, 85200, Note_on_c, 0, 49, 37
3, 85260, Note_on_c, 0, 49, 0
3, 85290, Note_on_c, 0, 70, 31
3, 85320, Note_on_c, 0, 70, 0
3, 85320, Note_on_c, 0, 69, 42
3, 85380, Note_on_c, 0, 69, 0
3, 85440, Note_on_c, 0, 50, 39
3, 85500, Note_on_c, 0, 50, 0
3, 85530, Note_on_c, 0, 68, 26
3, 85560, Note_on_c, 0, 68, 0
3, 85560, Note_on_c, 0, 69, 43
3, 85620, Note_on_c, 0, 69, 0
3, 85680, Note_on_c, 0, 76, 43
3, 85680, Note_on_c, 0, 73, 37
3, 85740, Note_on_c, 0, 73, 0
3, 85740, Note_on_c, 0, 76, 0
3, 85800, Note_on_c, 0, 67, 32
3, 85860, Note_on_c, 0, 67, 0
3, 85920, Note_on_c, 0, 74, 41
3, 85920, Note_on_c, 0, 77, 46
3, 85980, Note_on_c, 0, 77, 0
3, 85980, Note_on_c, 0, 74, 0
3, 86040, Note_on_c, 0, 65, 31
3, 86100, Note_on_c, 0, 65, 0
3, 86160, Note_on_c, 0, 73, 41
3, 86160, Note_on_c, 0, 79, 46
3, 86220, Note_on_c, 0, 79, 0
3, 86220, Note_on_c, 0, 73, 0
3, 86280, Note_on_c, 0, 64, 32
3, 86340, Note_on_c, 0, 64, 0
3, 86400, Note_on_c, 0, 62, 43
3, 86400, Note_on_c, 0, 77, 43
3, 86490, Note_on_c, 0, 68, 36
3, 86520, Note_on_c, 0, 68, 0
3, 86520, Note_on_c, 0, 69, 48
3, 86580, Note_on_c, 0, 69, 0
3, 86640, Note_on_c, 0, 77, 0
3, 86640, Note_on_c, 0, 62, 0
3, 86640, Note_on_c, 0, 53, 37
3, 86700, Note_on_c, 0, 53, 0
3, 86730, Note_on_c, 0, 70, 32
3, 86760, Note_on_c, 0, 70, 0
3, 86760, Note_on_c, 0, 69, 45
3, 86820, Note_on_c, 0, 69, 0
3, 86880, Note_on_c, 0, 45, 38
3, 86940, Note_on_c, 0, 45, 0
3, 86970, Note_on_c, 0, 68, 26
3, 87000, Note_on_c, 0, 68, 0
3, 87000, Note_on_c, 0, 69, 42
3, 87060, Note_on_c, 0, 69, 0
3, 87120, Note_on_c, 0, 49, 37
3, 87180, Note_on_c, 0, 49, 0
3, 87210, Note_on_c, 0, 70, 31
3, 87240, Note_on_c, 0, 70, 0
3, 87240, Note_on_c, 0, 69, 42
3, 87300, Note_on_c, 0, 69, 0
3, 87360, Note_on_c, 0, 50, 39
3, 87420, Note_on_c, 0, 50, 0
3, 87600, Note_on_c, 0, 29, 44
3, 87600, Note_on_c, 0, 41, 44
3, 87660, Note_on_c, 0, 41, 0
3, 87660, Note_on_c, 0, 42, 36
3, 87720, Note_on_c, 0, 42, 0
3, 87720, Note_on_c, 0, 41, 36
3, 87780, Note_on_c, 0, 41, 0
3, 87780, Note_on_c, 0, 42, 36
3, 87840, Note_on_c, 0, 42, 0
3, 87840, Note_on_c, 0, 29, 0
3, 87840, Note_on_c, 0, 41, 45
3, 87840, Note_on_c, 0, 53, 45
3, 87900, Note_on_c, 0, 53, 0
3, 87900, Note_on_c, 0, 54, 38
3, 87960, Note_on_c, 0, 54, 0
3, 87960, Note_on_c, 0, 53, 38
3, 88020, Note_on_c, 0, 53, 0
3, 88020, Note_on_c, 0, 54, 38
3, 88080, Note_on_c, 0, 54, 0
3, 88080, Note_on_c, 0, 41, 0
3, 88080, Note_on_c, 0, 65, 45
3, 88080, Note_on_c, 0, 53, 45
3, 88140, Note_on_c, 0, 65, 0
3, 88140, Note_on_c, 0, 66, 38
3, 88200, Note_on_c, 0, 66, 0
3, 88200, Note_on_c, 0, 65, 37
3, 88260, Note_on_c, 0, 65, 0
3, 88260, Note_on_c, 0, 66, 37
3, 88320, Note_on_c, 0, 66, 0
3, 88320, Note_on_c, 0, 53, 0
3, 88320, Note_on_c, 0, 65, 46
3, 88380, Note_on_c, 0, 65, 0
3, 88380, Note_on_c, 0, 67, 37
3, 88440, Note_on_c, 0, 67, 0
3, 88440, Note_on_c, 0, 65, 37
3, 88500, Note_on_c, 0, 65, 0
3, 88560, Note_on_c, 0, 29, 47
3, 88560, Note_on_c, 0, 41, 47
3, 88620, Note_on_c, 0, 41, 0
3, 88620, Note_on_c, 0, 42, 39
3, 88680, Note_on_c, 0, 42, 0
3, 88680, Note_on_c, 0, 41, 39
3, 88740, Note_on_c, 0, 41, 0
3, 88740, Note_on_c, 0, 42, 39
3, 88800, Note_on_c, 0, 42, 0
3, 88800, Note_on_c, 0, 29, 0
3, 88800, Note_on_c, 0, 41, 48
3, 88800, Note_on_c, 0, 53, 48
3, 88860, Note_on_c, 0, 53, 0
3, 88860, Note_on_c, 0, 54, 40
3, 88920, Note_on_c, 0, 54, 0
3, 88920, Note_on_c, 0, 53, 40
3, 88980, Note_on_c, 0, 53, 0
3, 88980, Note_on_c, 0, 54, 40
3, 89040, Note_on_c, 0, 54, 0
3, 89040, Note_on_c, 0, 41, 0
3, 89040, Note_on_c, 0, 53, 48
3, 89040, Note_on_c, 0, 65, 48
3, 89100, Note_on_c, 0, 65, 0
3, 89100, Note_on_c, 0, 66, 40
3, 89160, Note_on_c, 0, 66, 0
3, 89160, Note_on_c, 0, 65, 39
3, 89220, Note_on_c, 0, 65, 0
3, 89220, Note_on_c, 0, 66, 39
3, 89280, Note_on_c, 0, 66, 0
3, 89280, Note_on_c, 0, 53, 0
3, 89280, Note_on_c, 0, 65, 49
3, 89340, Note_on_c, 0, 65, 0
3, 89340, Note_on_c, 0, 67, 40
3, 89400, Note_on_c, 0, 67, 0
3, 89400, Note_on_c, 0, 65, 40
3, 89460, Note_on_c, 0, 65, 0
3, 89520, Note_on_c, 0, 34, 56
3, 89520, Note_on_c, 0, 46, 56
3, 89580, Note_on_c, 0, 46, 0
3, 89580, Note_on_c, 0, 47, 47
3, 89640, Note_on_c, 0, 47, 0
3, 89640, Note_on_c, 0, 46, 47
3, 89700, Note_on_c, 0, 46, 0
3, 89700, Note_on_c, 0, 47, 47
3, 89760, Note_on_c, 0, 47, 0
3, 89760, Note_on_c, 0, 34, 0
3, 89760, Note_on_c, 0, 46, 57
3, 89760, Note_on_c, 0, 58, 57
3, 89820, Note_on_c, 0, 58, 0
3, 89820, Note_on_c, 0, 59, 50
3, 89880, Note_on_c, 0, 59, 0
3, 89880, Note_on_c, 0, 58, 50
3, 89940, Note_on_c, 0, 58, 0
3, 89940, Note_on_c, 0, 59, 51
3, 90000, Note_on_c, 0, 59, 0
3, 90000, Note_on_c, 0, 46, 0
3, 90000, Note_on_c, 0, 58, 57
3, 90000, Note_on_c, 0, 70, 57
3, 90060, Note_on_c, 0, 70, 0
3, 90060, Note_on_c, 0, 71, 51
3, 90120, Note_on_c, 0, 71, 0
3, 90120, Note_on_c, 0, 70, 44
3, 90180, Note_on_c, 0, 70, 0
3, 90180, Note_on_c, 0, 71, 44
3, 90240, Note_on_c, 0, 71, 0
3, 90240, Note_on_c, 0, 58, 0
3, 90240, Note_on_c, 0, 70, 58
3, 90300, Note_on_c, 0, 70, 0
3, 90480, Note_on_c, 0, 34, 66
3, 90480, Note_on_c, 0, 46, 66
3, 90540, Note_on_c, 0, 46, 0
3, 90540, Note_on_c, 0, 47, 54
3, 90600, Note_on_c, 0, 47, 0
3, 90600, Note_on_c, 0, 46, 54
3, 90660, Note_on_c, 0, 46, 0
3, 90660, Note_on_c, 0, 47, 54
3, 90720, Note_on_c, 0, 47, 0
3, 90720, Note_on_c, 0, 34, 0
3, 90720, Note_on_c, 0, 58, 67
3, 90720, Note_on_c, 0, 46, 67
3, 90780, Note_on_c, 0, 58, 0
3, 90780, Note_on_c, 0, 59, 58
3, 90840, Note_on_c, 0, 59, 0
3, 90840, Note_on_c, 0, 58, 58
3, 90900, Note_on_c, 0, 58, 0
3, 90900, Note_on_c, 0, 59, 59
3, 90960, Note_on_c, 0, 59, 0
3, 90960, Note_on_c, 0, 46, 0
3, 90960, Note_on_c, 0, 70, 67
3, 90960, Note_on_c, 0, 58, 67
3, 91020, Note_on_c, 0, 70, 0
3, 91020, Note_on_c, 0, 71, 59
3, 91080, Note_on_c, 0, 71, 0
3, 91080, Note_on_c, 0, 70, 51
3, 91140, Note_on_c, 0, 70, 0
3, 91140, Note_on_c, 0, 71, 51
3, 91200, Note_on_c, 0, 71, 0
3, 91200, Note_on_c, 0, 58, 0
3, 91200, Note_on_c, 0, 70, 68
3, 91260, Note_on_c, 0, 70, 0
3, 91440, Note_on_c, 0, 46, 93
3, 91440, Note_on_c, 0, 34, 77
3, 91500, Note_on_c, 0, 34, 0
3, 91500, Note_on_c, 0, 46, 0
3, 91560, Note_on_c, 0, 42, 70
3, 91560, Note_on_c, 0, 54, 82
3, 91620, Note_on_c, 0, 54, 0
3, 91620, Note_on_c, 0, 42, 0
3, 91680, Note_on_c, 0, 35, 81
3, 91680, Note_on_c, 0, 47, 97
3, 91740, Note_on_c, 0, 47, 0
3, 91740, Note_on_c, 0, 35, 0
3, 91800, Note_on_c, 0, 54, 83
3, 91800, Note_on_c, 0, 42, 70
3, 91860, Note_on_c, 0, 42, 0
3, 91860, Note_on_c, 0, 54, 0
3, 91920, Note_on_c, 0, 49, 96
3, 91920, Note_on_c, 0, 37, 81
3, 91980, Note_on_c, 0, 37, 0
3, 91980, Note_on_c, 0, 49, 0
3, 92040, Note_on_c, 0, 42, 75
3, 92040, Note_on_c, 0, 54, 87
3, 92100, Note_on_c, 0, 54, 0
3, 92100, Note_on_c, 0, 42, 0
3, 92160, Note_on_c, 0, 39, 81
3, 92160, Note_on_c, 0, 51, 96
3, 92220, Note_on_c, 0, 51, 0
3, 92220, Note_on_c, 0, 39, 0
3, 92280, Note_on_c, 0, 42, 76
3, 92280, Note_on_c, 0, 54, 90
3, 92340, Note_on_c, 0, 54, 0
3, 92340, Note_on_c, 0, 42, 0
3, 92400, Note_on_c, 0, 52, 96
3, 92400, Note_on_c, 0, 40, 81
3, 92460, Note_on_c, 0, 40, 0
3, 92460, Note_on_c, 0, 52, 0
3, 92520, Note_on_c, 0, 55, 91
3, 92520, Note_on_c, 0, 46, 77
3, 92580, Note_on_c, 0, 46, 0
3, 92580, Note_on_c, 0, 55, 0
3, 92640, Note_on_c, 0, 58, 90
3, 92640, Note_on_c, 0, 49, 76
3, 92700, Note_on_c, 0, 49, 0
3, 92700, Note_on_c, 0, 58, 0
3, 92760, Note_on_c, 0, 61, 92
3, 92760, Note_on_c, 0, 52, 76
3, 92820, Note_on_c, 0, 52, 0
3, 92820, Note_on_c, 0, 61, 0
3, 92880, Note_on_c, 0, 64, 91
3, 92880, Note_on_c, 0, 55, 77
3, 92940, Note_on_c, 0, 55, 0
3, 92940, Note_on_c, 0, 64, 0
3, 93000, Note_on_c, 0, 67, 91
3, 93000, Note_on_c, 0, 58, 77
3, 93060, Note_on_c, 0, 58, 0
3, 93060, Note_on_c, 0, 67, 0
3, 93120, Note_on_c, 0, 61, 72
3, 93120, Note_on_c, 0, 70, 86
3, 93180, Note_on_c, 0, 70, 0
3, 93180, Note_on_c, 0, 61, 0
3, 93240, Note_on_c, 0, 64, 67
3, 93240, Note_on_c, 0, 73, 80
3, 93300, Note_on_c, 0, 73, 0
3, 93300, Note_on_c, 0, 64, 0
3, 93360, Note_on_c, 0, 76, 73
3, 93420, Note_on_c, 0, 76, 0
3, 93480, Note_on_c, 0, 64, 68
3, 93540, Note_on_c, 0, 64, 0
3, 93600, Note_on_c, 0, 73, 63
3, 93660, Note_on_c, 0, 73, 0
3, 93720, Note_on_c, 0, 61, 57
3, 93780, Note_on_c, 0, 61, 0
3, 93840, Note_on_c, 0, 70, 53
3, 93900, Note_on_c, 0, 70, 0
3, 93960, Note_on_c, 0, 58, 45
3, 94020, Note_on_c, 0, 58, 0
3, 94080, Note_on_c, 0, 62, 29
3, 94200, Note_on_c, 0, 62, 0
3, 94320, Note_on_c, 0, 53, 18
3, 94320, Note_on_c, 0, 59, 22
3, 94560, Note_on_c, 0, 59, 0
3, 94560, Note_on_c, 0, 60, 22
3, 94800, Note_on_c, 0, 60, 0
3, 94800, Note_on_c, 0, 53, 0
3, 94800, Note_on_c, 0, 40, 33
3, 94860, Note_on_c, 0, 40, 0
3, 94860, Note_on_c, 0, 41, 29
3, 94920, Note_on_c, 0, 41, 0
3, 94920, Note_on_c, 0, 40, 35
3, 94980, Note_on_c, 0, 40, 0
3, 94980, Note_on_c, 0, 41, 29
3, 95040, Note_on_c, 0, 53, 29
3, 95100, Note_on_c, 0, 53, 0
3, 95100, Note_on_c, 0, 41, 0
3, 95280, Note_on_c, 0, 59, 22
3, 95280, Note_on_c, 0, 53, 18
3, 95520, Note_on_c, 0, 59, 0
3, 95520, Note_on_c, 0, 60, 22
3, 95760, Note_on_c, 0, 60, 0
3, 95760, Note_on_c, 0, 53, 0
3, 95760, Note_on_c, 0, 40, 33
3, 95820, Note_on_c, 0, 40, 0
3, 95820, Note_on_c, 0, 41, 29
3, 95880, Note_on_c, 0, 41, 0
3, 95880, Note_on_c, 0, 40, 35
3, 95940, Note_on_c, 0, 40, 0
3, 95940, Note_on_c, 0, 41, 29
3, 96000, Note_on_c, 0, 53, 29
3, 96060, Note_on_c, 0, 53, 0
3, 96060, Note_on_c, 0, 41, 0
3, 96240, Note_on_c, 0, 41, 18
3, 96240, Note_on_c, 0, 47, 22
3, 96243, Note_on_c, 0, 50, 22
3, 96480, Note_on_c, 0, 47, 0
3, 96480, Note_on_c, 0, 48, 22
3, 96483, Note_on_c, 0, 50, 0
3, 96483, Note_on_c, 0, 51, 22
3, 96720, Note_on_c, 0, 48, 0
3, 96720, Note_on_c, 0, 41, 0
3, 96720, Note_on_c, 0, 42, 33
3, 96723, Note_on_c, 0, 51, 0
3, 96780, Note_on_c, 0, 42, 0
3, 96780, Note_on_c, 0, 41, 29
3, 96840, Note_on_c, 0, 41, 0
3, 96840, Note_on_c, 0, 42, 35
3, 96900, Note_on_c, 0, 42, 0
3, 96900, Note_on_c, 0, 41, 29
3, 96960, Note_on_c, 0, 41, 0
3, 96960, Note_on_c, 0, 58, 38
3, 96960, Note_on_c, 0, 34, 38
3, 96960, Note_on_c, 0, 50, 30
3, 97080, Note_on_c, 0, 50, 0
3, 97080, Note_on_c, 0, 34, 0
3, 97080, Note_on_c, 0, 58, 0
3, 97080, Note_on_c, 0, 58, 26
3, 97080, Note_on_c, 0, 50, 20
3, 97080, Note_on_c, 0, 53, 20
3, 97140, Note_on_c, 0, 53, 0
3, 97140, Note_on_c, 0, 50, 0
3, 97140, Note_on_c, 0, 58, 0
3, 97200, Note_on_c, 0, 58, 22
3, 97200, Note_on_c, 0, 53, 17
3, 97200, Note_on_c, 0, 50, 17
3, 97260, Note_on_c, 0, 50, 0
3, 97260, Note_on_c, 0, 53, 0
3, 97260, Note_on_c, 0, 58, 0
3, 97320, Note_on_c, 0, 53, 17
3, 97320, Note_on_c, 0, 50, 17
3, 97320, Note_on_c, 0, 58, 22
3, 97380, Note_on_c, 0, 58, 0
3, 97380, Note_on_c, 0, 50, 0
3, 97380, Note_on_c, 0, 53, 0
3, 97440, Note_on_c, 0, 50, 20
3, 97440, Note_on_c, 0, 58, 25
3, 97440, Note_on_c, 0, 53, 20
3, 97500, Note_on_c, 0, 53, 0
3, 97500, Note_on_c, 0, 58, 0
3, 97500, Note_on_c, 0, 50, 0
3, 97560, Note_on_c, 0, 50, 17
3, 97560, Note_on_c, 0, 53, 17
3, 97560, Note_on_c, 0, 58, 22
3, 97620, Note_on_c, 0, 58, 0
3, 97620, Note_on_c, 0, 53, 0
3, 97620, Note_on_c, 0, 50, 0
3, 97680, Note_on_c, 0, 53, 17
3, 97680, Note_on_c, 0, 50, 17
3, 97680, Note_on_c, 0, 58, 22
3, 97740, Note_on_c, 0, 58, 0
3, 97740, Note_on_c, 0, 50, 0
3, 97740, Note_on_c, 0, 53, 0
3, 97920, Note_on_c, 0, 32, 44
3, 98040, Note_on_c, 0, 32, 0
3, 98040, Note_on_c, 0, 53, 20
3, 98040, Note_on_c, 0, 58, 20
3, 98040, Note_on_c, 0, 62, 26
3, 98100, Note_on_c, 0, 62, 0
3, 98100, Note_on_c, 0, 58, 0
3, 98100, Note_on_c, 0, 53, 0
3, 98160, Note_on_c, 0, 53, 17
3, 98160, Note_on_c, 0, 58, 17
3, 98160, Note_on_c, 0, 62, 22
3, 98220, Note_on_c, 0, 62, 0
3, 98220, Note_on_c, 0, 58, 0
3, 98220, Note_on_c, 0, 53, 0
3, 98280, Note_on_c, 0, 58, 17
3, 98280, Note_on_c, 0, 62, 22
3, 98280, Note_on_c, 0, 53, 17
3, 98340, Note_on_c, 0, 53, 0
3, 98340, Note_on_c, 0, 62, 0
3, 98340, Note_on_c, 0, 58, 0
3, 98400, Note_on_c, 0, 53, 20
3, 98400, Note_on_c, 0, 62, 25
3, 98400, Note_on_c, 0, 58, 20
3, 98460, Note_on_c, 0, 58, 0
3, 98460, Note_on_c, 0, 62, 0
3, 98460, Note_on_c, 0, 53, 0
3, 98520, Note_on_c, 0, 53, 17
3, 98520, Note_on_c, 0, 62, 22
3, 98520, Note_on_c, 0, 58, 17
3, 98580, Note_on_c, 0, 58, 0
3, 98580, Note_on_c, 0, 62, 0
3, 98580, Note_on_c, 0, 53, 0
3, 98640, Note_on_c, 0, 53, 17
3, 98640, Note_on_c, 0, 58, 17
3, 98640, Note_on_c, 0, 62, 22
3, 98700, Note_on_c, 0, 62, 0
3, 98700, Note_on_c, 0, 58, 0
3, 98700, Note_on_c, 0, 53, 0
3, 98880, Note_on_c, 0, 30, 45
3, 99000, Note_on_c, 0, 30, 0
3, 99000, Note_on_c, 0, 64, 26
3, 99000, Note_on_c, 0, 61, 20
3, 99000, Note_on_c, 0, 54, 20
3, 99060, Note_on_c, 0, 54, 0
3, 99060, Note_on_c, 0, 61, 0
3, 99060, Note_on_c, 0, 64, 0
3, 99120, Note_on_c, 0, 61, 17
3, 99120, Note_on_c, 0, 64, 22
3, 99120, Note_on_c, 0, 54, 17
3, 99180, Note_on_c, 0, 54, 0
3, 99180, Note_on_c, 0, 64, 0
3, 99180, Note_on_c, 0, 61, 0
3, 99240, Note_on_c, 0, 64, 22
3, 99240, Note_on_c, 0, 61, 17
3, 99240, Note_on_c, 0, 54, 17
3, 99300, Note_on_c, 0, 54, 0
3, 99300, Note_on_c, 0, 61, 0
3, 99300, Note_on_c, 0, 64, 0
3, 99360, Note_on_c, 0, 64, 25
3, 99360, Note_on_c, 0, 61, 20
3, 99360, Note_on_c, 0, 54, 20
3, 99420, Note_on_c, 0, 54, 0
3, 99420, Note_on_c, 0, 61, 0
3, 99420, Note_on_c, 0, 64, 0
3, 99480, Note_on_c, 0, 54, 17
3, 99480, Note_on_c, 0, 64, 22
3, 99480, Note_on_c, 0, 61, 17
3, 99540, Note_on_c, 0, 61, 0
3, 99540, Note_on_c, 0, 64, 0
3, 99540, Note_on_c, 0, 54, 0
3, 99600, Note_on_c, 0, 64, 22
3, 99600, Note_on_c, 0, 61, 17
3, 99600, Note_on_c, 0, 54, 17
3, 99660, Note_on_c, 0, 54, 0
3, 99660, Note_on_c, 0, 61, 0
3, 99660, Note_on_c, 0, 64, 0
3, 99840, Note_on_c, 0, 29, 42
3, 99960, Note_on_c, 0, 29, 0
3, 99960, Note_on_c, 0, 57, 20
3, 99960, Note_on_c, 0, 66, 26
3, 99960, Note_on_c, 0, 63, 20
3, 100020, Note_on_c, 0, 63, 0
3, 100020, Note_on_c, 0, 66, 0
3, 100020, Note_on_c, 0, 57, 0
3, 100080, Note_on_c, 0, 63, 17
3, 100080, Note_on_c, 0, 65, 22
3, 100080, Note_on_c, 0, 57, 17
3, 100140, Note_on_c, 0, 57, 0
3, 100140, Note_on_c, 0, 65, 0
3, 100140, Note_on_c, 0, 63, 0
3, 100200, Note_on_c, 0, 57, 17
3, 100200, Note_on_c, 0, 63, 17
3, 100200, Note_on_c, 0, 65, 22
3, 100260, Note_on_c, 0, 65, 0
3, 100260, Note_on_c, 0, 63, 0
3, 100260, Note_on_c, 0, 57, 0
3, 100320, Note_on_c, 0, 65, 25
3, 100320, Note_on_c, 0, 63, 20
3, 100320, Note_on_c, 0, 57, 20
3, 100380, Note_on_c, 0, 57, 0
3, 100380, Note_on_c, 0, 63, 0
3, 100380, Note_on_c, 0, 65, 0
3, 100440, Note_on_c, 0, 60, 20
3, 100440, Note_on_c, 0, 63, 17
3, 100440, Note_on_c, 0, 65, 22
3, 100500, Note_on_c, 0, 65, 0
3, 100500, Note_on_c, 0, 63, 0
3, 100500, Note_on_c, 0, 60, 0
3, 100560, Note_on_c, 0, 63, 17
3, 100560, Note_on_c, 0, 65, 22
3, 100620, Note_on_c, 0, 65, 0
3, 100620, Note_on_c, 0, 63, 0
3, 100800, Note_on_c, 0, 34, 46
3, 100920, Note_on_c, 0, 34, 0
3, 100920, Note_on_c, 0, 58, 20
3, 100920, Note_on_c, 0, 65, 26
3, 100980, Note_on_c, 0, 65, 0
3, 100980, Note_on_c, 0, 58, 0
3, 101040, Note_on_c, 0, 65, 22
3, 101040, Note_on_c, 0, 53, 17
3, 101100, Note_on_c, 0, 53, 0
3, 101100, Note_on_c, 0, 65, 0
3, 101160, Note_on_c, 0, 58, 17
3, 101160, Note_on_c, 0, 65, 22
3, 101220, Note_on_c, 0, 65, 0
3, 101220, Note_on_c, 0, 58, 0
3, 101280, Note_on_c, 0, 65, 25
3, 101280, Note_on_c, 0, 53, 20
3, 101340, Note_on_c, 0, 53, 0
3, 101340, Note_on_c, 0, 65, 0
3, 101400, Note_on_c, 0, 58, 17
3, 101400, Note_on_c, 0, 65, 22
3, 101460, Note_on_c, 0, 65, 0
3, 101460, Note_on_c, 0, 58, 0
3, 101520, Note_on_c, 0, 65, 22
3, 101520, Note_on_c, 0, 53, 20
3, 101640, Note_on_c, 0, 53, 0
3, 101640, Note_on_c, 0, 65, 0
3, 101760, Note_on_c, 0, 32, 46
3, 101880, Note_on_c, 0, 32, 0
3, 101880, Note_on_c, 0, 62, 20
3, 101880, Note_on_c, 0, 70, 26
3, 101940, Note_on_c, 0, 70, 0
3, 101940, Note_on_c, 0, 62, 0
3, 102000, Note_on_c, 0, 70, 22
3, 102000, Note_on_c, 0, 56, 17
3, 102060, Note_on_c, 0, 56, 0
3, 102060, Note_on_c, 0, 70, 0
3, 102120, Note_on_c, 0, 62, 17
3, 102120, Note_on_c, 0, 70, 22
3, 102180, Note_on_c, 0, 70, 0
3, 102180, Note_on_c, 0, 62, 0
3, 102240, Note_on_c, 0, 56, 20
3, 102240, Note_on_c, 0, 70, 25
3, 102300, Note_on_c, 0, 70, 0
3, 102300, Note_on_c, 0, 56, 0
3, 102360, Note_on_c, 0, 62, 17
3, 102360, Note_on_c, 0, 70, 22
3, 102420, Note_on_c, 0, 70, 0
3, 102420, Note_on_c, 0, 62, 0
3, 102480, Note_on_c, 0, 56, 20
3, 102480, Note_on_c, 0, 70, 22
3, 102600, Note_on_c, 0, 70, 0
3, 102600, Note_on_c, 0, 56, 0
3, 102720, Note_on_c, 0, 42, 46
3, 102720, Note_on_c, 0, 30, 46
3, 102840, Note_on_c, 0, 30, 0
3, 102840, Note_on_c, 0, 42, 0
3, 102840, Note_on_c, 0, 54, 17
3, 102840, Note_on_c, 0, 61, 17
3, 102840, Note_on_c, 0, 64, 22
3, 102900, Note_on_c, 0, 64, 0
3, 102900, Note_on_c, 0, 61, 0
3, 102900, Note_on_c, 0, 54, 0
3, 102960, Note_on_c, 0, 64, 23
3, 102960, Note_on_c, 0, 61, 21
3, 102960, Note_on_c, 0, 58, 21
3, 103080, Note_on_c, 0, 58, 0
3, 103080, Note_on_c, 0, 61, 0
3, 103080, Note_on_c, 0, 64, 0
3, 103200, Note_on_c, 0, 35, 52
3, 103200, Note_on_c, 0, 47, 52
3, 103320, Note_on_c, 0, 47, 0
3, 103320, Note_on_c, 0, 35, 0
3, 103320, Note_on_c, 0, 59, 20
3, 103320, Note_on_c, 0, 66, 20
3, 103320, Note_on_c, 0, 69, 26
3, 103380, Note_on_c, 0, 69, 0
3, 103380, Note_on_c, 0, 66, 0
3, 103380, Note_on_c, 0, 59, 0
3, 103440, Note_on_c, 0, 63, 24
3, 103440, Note_on_c, 0, 69, 26
3, 103440, Note_on_c, 0, 66, 24
3, 103560, Note_on_c, 0, 66, 0
3, 103560, Note_on_c, 0, 69, 0
3, 103560, Note_on_c, 0, 63, 0
3, 103680, Note_on_c, 0, 29, 59
3, 103680, Note_on_c, 0, 41, 59
3, 103800, Note_on_c, 0, 41, 0
3, 103800, Note_on_c, 0, 29, 0
3, 103800, Note_on_c, 0, 53, 46
3, 103860, Note_on_c, 0, 53, 0
3, 103860, Note_on_c, 0, 52, 39
3, 103920, Note_on_c, 0, 52, 0
3, 103920, Note_on_c, 0, 54, 46
3, 103980, Note_on_c, 0, 54, 0
3, 103980, Note_on_c, 0, 53, 39
3, 104040, Note_on_c, 0, 53, 0
3, 104040, Note_on_c, 0, 55, 46
3, 104100, Note_on_c, 0, 55, 0
3, 104100, Note_on_c, 0, 54, 39
3, 104160, Note_on_c, 0, 54, 0
3, 104160, Note_on_c, 0, 56, 46
3, 104220, Note_on_c, 0, 56, 0
3, 104220, Note_on_c, 0, 55, 40
3, 104280, Note_on_c, 0, 55, 0
3, 104280, Note_on_c, 0, 57, 46
3, 104340, Note_on_c, 0, 57, 0
3, 104340, Note_on_c, 0, 56, 40
3, 104400, Note_on_c, 0, 56, 0
3, 104400, Note_on_c, 0, 58, 46
3, 104460, Note_on_c, 0, 58, 0
3, 104460, Note_on_c, 0, 57, 40
3, 104520, Note_on_c, 0, 57, 0
3, 104520, Note_on_c, 0, 59, 46
3, 104580, Note_on_c, 0, 59, 0
3, 104580, Note_on_c, 0, 58, 40
3, 104640, Note_on_c, 0, 58, 0
3, 104640, Note_on_c, 0, 60, 46
3, 104700, Note_on_c, 0, 60, 0
3, 104700, Note_on_c, 0, 59, 46
3, 104760, Note_on_c, 0, 59, 0
3, 104760, Note_on_c, 0, 61, 46
3, 104820, Note_on_c, 0, 61, 0
3, 104820, Note_on_c, 0, 60, 42
3, 104880, Note_on_c, 0, 60, 0
3, 104880, Note_on_c, 0, 62, 48
3, 104940, Note_on_c, 0, 62, 0
3, 104940, Note_on_c, 0, 61, 42
3, 105000, Note_on_c, 0, 61, 0
3, 105000, Note_on_c, 0, 63, 49
3, 105060, Note_on_c, 0, 63, 0
3, 105060, Note_on_c, 0, 62, 46
3, 105120, Note_on_c, 0, 62, 0
3, 105120, Note_on_c, 0, 64, 50
3, 105180, Note_on_c, 0, 64, 0
3, 105180, Note_on_c, 0, 63, 46
3, 105240, Note_on_c, 0, 63, 0
3, 105240, Note_on_c, 0, 65, 54
3, 105300, Note_on_c, 0, 65, 0
3, 105300, Note_on_c, 0, 64, 48
3, 105360, Note_on_c, 0, 64, 0
3, 105360, Note_on_c, 0, 66, 57
3, 105420, Note_on_c, 0, 66, 0
3, 105420, Note_on_c, 0, 65, 53
3, 105480, Note_on_c, 0, 65, 0
3, 105480, Note_on_c, 0, 67, 58
3, 105540, Note_on_c, 0, 67, 0
3, 105540, Note_on_c, 0, 66, 55
3, 105600, Note_on_c, 0, 66, 0
3, 105600, Note_on_c, 0, 68, 62
3, 105660, Note_on_c, 0, 68, 0
3, 105660, Note_on_c, 0, 67, 53
3, 105720, Note_on_c, 0, 67, 0
3, 105720, Note_on_c, 0, 69, 58
3, 105780, Note_on_c, 0, 69, 0
3, 105780, Note_on_c, 0, 68, 50
3, 105840, Note_on_c, 0, 68, 0
3, 105840, Note_on_c, 0, 70, 54
3, 105900, Note_on_c, 0, 70, 0
3, 105900, Note_on_c, 0, 69, 48
3, 105960, Note_on_c, 0, 69, 0
3, 105960, Note_on_c, 0, 72, 50
3, 106020, Note_on_c, 0, 72, 0
3, 106020, Note_on_c, 0, 69, 42
3, 106080, Note_on_c, 0, 69, 0
3, 106080, Note_on_c, 0, 68, 38
3, 106140, Note_on_c, 0, 68, 0
3, 106140, Note_on_c, 0, 71, 35
3, 106200, Note_on_c, 0, 71, 0
3, 106200, Note_on_c, 0, 69, 38
3, 106260, Note_on_c, 0, 69, 0
3, 106260, Note_on_c, 0, 72, 33
3, 106320, Note_on_c, 0, 72, 0
3, 106320, Note_on_c, 0, 68, 38
3, 106380, Note_on_c, 0, 68, 0
3, 106380, Note_on_c, 0, 71, 35
3, 106440, Note_on_c, 0, 71, 0
3, 106440, Note_on_c, 0, 69, 38
3, 106500, Note_on_c, 0, 69, 0
3, 106500, Note_on_c, 0, 72, 35
3, 106560, Note_on_c, 0, 72, 0
3, 106560, Note_on_c, 0, 68, 38
3, 106620, Note_on_c, 0, 68, 0
3, 106620, Note_on_c, 0, 71, 35
3, 106680, Note_on_c, 0, 71, 0
3, 106680, Note_on_c, 0, 69, 37
3, 106740, Note_on_c, 0, 69, 0
3, 106740, Note_on_c, 0, 72, 32
3, 106800, Note_on_c, 0, 72, 0
3, 106800, Note_on_c, 0, 68, 36
3, 106860, Note_on_c, 0, 68, 0
3, 106860, Note_on_c, 0, 71, 31
3, 106920, Note_on_c, 0, 71, 0
3, 106920, Note_on_c, 0, 69, 36
3, 106980, Note_on_c, 0, 69, 0
3, 106980, Note_on_c, 0, 72, 30
3, 107040, Note_on_c, 0, 72, 0
3, 107040, Note_on_c, 0, 68, 35
3, 107100, Note_on_c, 0, 68, 0
3, 107100, Note_on_c, 0, 71, 29
3, 107160, Note_on_c, 0, 71, 0
3, 107160, Note_on_c, 0, 69, 33
3, 107220, Note_on_c, 0, 69, 0
3, 107220, Note_on_c, 0, 72, 28
3, 107280, Note_on_c, 0, 72, 0
3, 107280, Note_on_c, 0, 68, 32
3, 107340, Note_on_c, 0, 68, 0
3, 107340, Note_on_c, 0, 71, 27
3, 107400, Note_on_c, 0, 71, 0
3, 107400, Note_on_c, 0, 69, 31
3, 107460, Note_on_c, 0, 69, 0
3, 107460, Note_on_c, 0, 72, 26
3, 107520, Note_on_c, 0, 72, 0
3, 107520, Note_on_c, 0, 70, 30
3, 107640, Note_on_c, 0, 70, 0
3, 108000, Note_on_c, 0, 59, 30
3, 108000, Note_on_c, 0, 50, 30
3, 108000, Note_on_c, 0, 56, 30
3, 108600, Note_on_c, 0, 62, 43
3, 108660, Note_on_c, 0, 62, 0
3, 108720, Note_on_c, 0, 59, 0
3, 108720, Note_on_c, 0, 50, 0
3, 108720, Note_on_c, 0, 56, 0
3, 108720, Note_on_c, 0, 56, 30
3, 108720, Note_on_c, 0, 53, 30
3, 108720, Note_on_c, 0, 61, 43
3, 108780, Note_on_c, 0, 61, 0
3, 108840, Note_on_c, 0, 60, 43
3, 108900, Note_on_c, 0, 60, 0
3, 108960, Note_on_c, 0, 53, 0
3, 108960, Note_on_c, 0, 56, 0
3, 108960, Note_on_c, 0, 50, 30
3, 108960, Note_on_c, 0, 59, 43
3, 108960, Note_on_c, 0, 55, 30
3, 109020, Note_on_c, 0, 59, 0
3, 109080, Note_on_c, 0, 62, 43
3, 109140, Note_on_c, 0, 62, 0
3, 109200, Note_on_c, 0, 55, 0
3, 109200, Note_on_c, 0, 50, 0
3, 109200, Note_on_c, 0, 53, 30
3, 109200, Note_on_c, 0, 55, 30
3, 109200, Note_on_c, 0, 61, 43
3, 109260, Note_on_c, 0, 61, 0
3, 109260, Note_on_c, 0, 60, 43
3, 109320, Note_on_c, 0, 60, 0
3, 109320, Note_on_c, 0, 59, 43
3, 109380, Note_on_c, 0, 59, 0
3, 109440, Note_on_c, 0, 55, 0
3, 109440, Note_on_c, 0, 53, 0
3, 109440, Note_on_c, 0, 54, 28
3, 109440, Note_on_c, 0, 50, 28
3, 109440, Note_on_c, 0, 62, 36
3, 109440, Note_on_c, 0, 57, 28
3, 109560, Note_on_c, 0, 57, 0
3, 109560, Note_on_c, 0, 54, 0
3, 109560, Note_on_c, 0, 50, 0
3, 109560, Note_on_c, 0, 62, 0
3, 110400, Note_on_c, 0, 55, 28
3, 110400, Note_on_c, 0, 48, 28
3, 110400, Note_on_c, 0, 63, 36
3, 110520, Note_on_c, 0, 63, 0
3, 110520, Note_on_c, 0, 48, 0
3, 110520, Note_on_c, 0, 55, 0
3, 110880, Note_on_c, 0, 48, 28
3, 110880, Note_on_c, 0, 57, 36
3, 110880, Note_on_c, 0, 51, 28
3, 110880, Note_on_c, 0, 41, 28
3, 111000, Note_on_c, 0, 41, 0
3, 111000, Note_on_c, 0, 48, 0
3, 111000, Note_on_c, 0, 57, 0
3, 111000, Note_on_c, 0, 51, 0
3, 111320, Note_on_c, 0, 46, 28
3, 111330, Note_on_c, 0, 53, 28
3, 111340, Note_on_c, 0, 62, 36
3, 111420, Note_on_c, 0, 62, 0
3, 111420, Note_on_c, 0, 53, 0
3, 111420, Note_on_c, 0, 46, 0
3, 111600, Note_on_c, 0, 38, 35
3, 111660, Note_on_c, 0, 39, 35
3, 111672, Note_on_c, 0, 38, 0
3, 111720, Note_on_c, 0, 38, 35
3, 111732, Note_on_c, 0, 39, 0
3, 111780, Note_on_c, 0, 40, 35
3, 111792, Note_on_c, 0, 38, 0
3, 111840, Note_on_c, 0, 41, 36
3, 111852, Note_on_c, 0, 40, 0
3, 111900, Note_on_c, 0, 42, 36
3, 111912, Note_on_c, 0, 41, 0
3, 111960, Note_on_c, 0, 41, 36
3, 111972, Note_on_c, 0, 42, 0
3, 112020, Note_on_c, 0, 43, 36
3, 112032, Note_on_c, 0, 41, 0
3, 112080, Note_on_c, 0, 44, 36
3, 112092, Note_on_c, 0, 43, 0
3, 112140, Note_on_c, 0, 45, 36
3, 112152, Note_on_c, 0, 44, 0
3, 112200, Note_on_c, 0, 44, 37
3, 112212, Note_on_c, 0, 45, 0
3, 112260, Note_on_c, 0, 46, 37
3, 112272, Note_on_c, 0, 44, 0
3, 112320, Note_on_c, 0, 47, 37
3, 112332, Note_on_c, 0, 46, 0
3, 112380, Note_on_c, 0, 48, 37
3, 112392, Note_on_c, 0, 47, 0
3, 112440, Note_on_c, 0, 47, 38
3, 112452, Note_on_c, 0, 48, 0
3, 112500, Note_on_c, 0, 49, 38
3, 112512, Note_on_c, 0, 47, 0
3, 112560, Note_on_c, 0, 50, 38
3, 112572, Note_on_c, 0, 49, 0
3, 112620, Note_on_c, 0, 51, 39
3, 112632, Note_on_c, 0, 50, 0
3, 112680, Note_on_c, 0, 50, 39
3, 112692, Note_on_c, 0, 51, 0
3, 112740, Note_on_c, 0, 52, 39
3, 112752, Note_on_c, 0, 50, 0
3, 112800, Note_on_c, 0, 53, 39
3, 112812, Note_on_c, 0, 52, 0
3, 112860, Note_on_c, 0, 54, 38
3, 112872, Note_on_c, 0, 53, 0
3, 112920, Note_on_c, 0, 53, 38
3, 112932, Note_on_c, 0, 54, 0
3, 112980, Note_on_c, 0, 55, 38
3, 112992, Note_on_c, 0, 53, 0
3, 113040, Note_on_c, 0, 56, 38
3, 113052, Note_on_c, 0, 55, 0
3, 113100, Note_on_c, 0, 57, 39
3, 113112, Note_on_c, 0, 56, 0
3, 113160, Note_on_c, 0, 56, 39
3, 113172, Note_on_c, 0, 57, 0
3, 113220, Note_on_c, 0, 59, 39
3, 113232, Note_on_c, 0, 56, 0
3, 113280, Note_on_c, 0, 62, 33
3, 113280, Note_on_c, 0, 50, 33
3, 113292, Note_on_c, 0, 59, 0
3, 113340, Note_on_c, 0, 63, 35
3, 113352, Note_on_c, 0, 62, 0
3, 113400, Note_on_c, 0, 62, 35
3, 113412, Note_on_c, 0, 63, 0
3, 113460, Note_on_c, 0, 65, 35
3, 113472, Note_on_c, 0, 62, 0
3, 113520, Note_on_c, 0, 50, 0
3, 113520, Note_on_c, 0, 66, 35
3, 113532, Note_on_c, 0, 65, 0
3, 113580, Note_on_c, 0, 67, 35
3, 113592, Note_on_c, 0, 66, 0
3, 113640, Note_on_c, 0, 66, 35
3, 113652, Note_on_c, 0, 67, 0
3, 113700, Note_on_c, 0, 68, 35
3, 113712, Note_on_c, 0, 66, 0
3, 113760, Note_on_c, 0, 69, 36
3, 113772, Note_on_c, 0, 68, 0
3, 113820, Note_on_c, 0, 70, 36
3, 113832, Note_on_c, 0, 69, 0
3, 113880, Note_on_c, 0, 69, 36
3, 113892, Note_on_c, 0, 70, 0
3, 113940, Note_on_c, 0, 73, 36
3, 113952, Note_on_c, 0, 69, 0
3, 114000, Note_on_c, 0, 74, 36
3, 114012, Note_on_c, 0, 73, 0
3, 114060, Note_on_c, 0, 73, 36
3, 114072, Note_on_c, 0, 74, 0
3, 114120, Note_on_c, 0, 74, 36
3, 114132, Note_on_c, 0, 73, 0
3, 114180, Note_on_c, 0, 73, 36
3, 114192, Note_on_c, 0, 74, 0
3, 114240, Note_on_c, 0, 60, 45
3, 114240, Note_on_c, 0, 72, 38
3, 114252, Note_on_c, 0, 73, 0
3, 114300, Note_on_c, 0, 71, 33
3, 114312, Note_on_c, 0, 72, 0
3, 114360, Note_on_c, 0, 72, 33
3, 114372, Note_on_c, 0, 71, 0
3, 114420, Note_on_c, 0, 70, 33
3, 114432, Note_on_c, 0, 72, 0
3, 114480, Note_on_c, 0, 60, 0
3, 114480, Note_on_c, 0, 69, 33
3, 114492, Note_on_c, 0, 70, 0
3, 114540, Note_on_c, 0, 67, 33
3, 114552, Note_on_c, 0, 69, 0
3, 114600, Note_on_c, 0, 68, 33
3, 114612, Note_on_c, 0, 67, 0
3, 114660, Note_on_c, 0, 66, 33
3, 114672, Note_on_c, 0, 68, 0
3, 114720, Note_on_c, 0, 53, 45
3, 114720, Note_on_c, 0, 65, 38
3, 114732, Note_on_c, 0, 66, 0
3, 114780, Note_on_c, 0, 64, 33
3, 114792, Note_on_c, 0, 65, 0
3, 114840, Note_on_c, 0, 65, 33
3, 114852, Note_on_c, 0, 64, 0
3, 114900, Note_on_c, 0, 63, 33
3, 114912, Note_on_c, 0, 65, 0
3, 114960, Note_on_c, 0, 53, 0
3, 114960, Note_on_c, 0, 62, 33
3, 114972, Note_on_c, 0, 63, 0
3, 115020, Note_on_c, 0, 61, 33
3, 115032, Note_on_c, 0, 62, 0
3, 115080, Note_on_c, 0, 60, 33
3, 115092, Note_on_c, 0, 61, 0
3, 115140, Note_on_c, 0, 59, 33
3, 115152, Note_on_c, 0, 60, 0
3, 115188, Note_on_c, 0, 59, 0
3, 115200, Note_on_c, 0, 46, 41
3, 115200, Note_on_c, 0, 58, 49
3, 115260, Note_on_c, 0, 58, 0
3, 115260, Note_on_c, 0, 46, 0
3, 115320, Note_on_c, 0, 58, 22
3, 115320, Note_on_c, 0, 53, 26
3, 115380, Note_on_c, 0, 53, 0
3, 115380, Note_on_c, 0, 58, 0
3, 115380, Note_on_c, 0, 62, 25
3, 115440, Note_on_c, 0, 62, 0
3, 115440, Note_on_c, 0, 58, 21
3, 115440, Note_on_c, 0, 54, 25
3, 115500, Note_on_c, 0, 54, 0
3, 115500, Note_on_c, 0, 58, 0
3, 115500, Note_on_c, 0, 62, 25
3, 115560, Note_on_c, 0, 62, 0
3, 115560, Note_on_c, 0, 58, 21
3, 115560, Note_on_c, 0, 55, 25
3, 115620, Note_on_c, 0, 55, 0
3, 115620, Note_on_c, 0, 58, 0
3, 115620, Note_on_c, 0, 62, 25
3, 115680, Note_on_c, 0, 62, 0
3, 115680, Note_on_c, 0, 58, 25
3, 115680, Note_on_c, 0, 54, 30
3, 115740, Note_on_c, 0, 54, 0
3, 115740, Note_on_c, 0, 58, 0
3, 115740, Note_on_c, 0, 62, 22
3, 115800, Note_on_c, 0, 62, 0
3, 115800, Note_on_c, 0, 53, 30
3, 115800, Note_on_c, 0, 58, 25
3, 115860, Note_on_c, 0, 58, 0
3, 115860, Note_on_c, 0, 53, 0
3, 115860, Note_on_c, 0, 62, 21
3, 115920, Note_on_c, 0, 62, 0
3, 115920, Note_on_c, 0, 58, 25
3, 115920, Note_on_c, 0, 54, 30
3, 115980, Note_on_c, 0, 54, 0
3, 115980, Note_on_c, 0, 58, 0
3, 115980, Note_on_c, 0, 62, 25
3, 116040, Note_on_c, 0, 62, 0
3, 116040, Note_on_c, 0, 58, 25
3, 116040, Note_on_c, 0, 55, 30
3, 116100, Note_on_c, 0, 55, 0
3, 116100, Note_on_c, 0, 58, 0
3, 116100, Note_on_c, 0, 62, 22
3, 116140, Note_on_c, 0, 62, 0
3, 116140, Note_on_c, 0, 54, 30
3, 116150, Note_on_c, 0, 57, 30
3, 116160, Note_on_c, 0, 63, 30
3, 116220, Note_on_c, 0, 63, 0
3, 116220, Note_on_c, 0, 57, 0
3, 116220, Note_on_c, 0, 54, 0
3, 116280, Note_on_c, 0, 81, 41
3, 116280, Note_on_c, 0, 78, 41
3, 116340, Note_on_c, 0, 78, 0
3, 116340, Note_on_c, 0, 81, 0
3, 116400, Note_on_c, 0, 71, 39
3, 116400, Note_on_c, 0, 74, 39
3, 116460, Note_on_c, 0, 74, 0
3, 116460, Note_on_c, 0, 71, 0
3, 116520, Note_on_c, 0, 72, 38
3, 116520, Note_on_c, 0, 75, 38
3, 116580, Note_on_c, 0, 75, 0
3, 116580, Note_on_c, 0, 72, 0
3, 116640, Note_on_c, 0, 68, 38
3, 116640, Note_on_c, 0, 65, 38
3, 116700, Note_on_c, 0, 65, 0
3, 116700, Note_on_c, 0, 68, 0
3, 116760, Note_on_c, 0, 69, 37
3, 116760, Note_on_c, 0, 66, 37
3, 116820, Note_on_c, 0, 66, 0
3, 116820, Note_on_c, 0, 69, 0
3, 116880, Note_on_c, 0, 62, 36
3, 116880, Note_on_c, 0, 59, 36
3, 116940, Note_on_c, 0, 59, 0
3, 116940, Note_on_c, 0, 62, 0
3, 117000, Note_on_c, 0, 60, 36
3, 117000, Note_on_c, 0, 63, 36
3, 117060, Note_on_c, 0, 63, 0
3, 117060, Note_on_c, 0, 60, 0
3, 117120, Note_on_c, 0, 41, 45
3, 117240, Note_on_c, 0, 41, 0
3, 117240, Note_on_c, 0, 58, 22
3, 117240, Note_on_c, 0, 53, 26
3, 117300, Note_on_c, 0, 53, 0
3, 117300, Note_on_c, 0, 58, 0
3, 117300, Note_on_c, 0, 62, 25
3, 117360, Note_on_c, 0, 62, 0
3, 117360, Note_on_c, 0, 58, 21
3, 117360, Note_on_c, 0, 54, 25
3, 117420, Note_on_c, 0, 54, 0
3, 117420, Note_on_c, 0, 58, 0
3, 117420, Note_on_c, 0, 62, 25
3, 117480, Note_on_c, 0, 62, 0
3, 117480, Note_on_c, 0, 58, 21
3, 117480, Note_on_c, 0, 55, 25
3, 117540, Note_on_c, 0, 55, 0
3, 117540, Note_on_c, 0, 58, 0
3, 117540, Note_on_c, 0, 62, 25
3, 117600, Note_on_c, 0, 62, 0
3, 117600, Note_on_c, 0, 54, 30
3, 117600, Note_on_c, 0, 58, 25
3, 117660, Note_on_c, 0, 58, 0
3, 117660, Note_on_c, 0, 54, 0
3, 117660, Note_on_c, 0, 62, 22
3, 117720, Note_on_c, 0, 62, 0
3, 117720, Note_on_c, 0, 53, 30
3, 117720, Note_on_c, 0, 58, 25
3, 117780, Note_on_c, 0, 58, 0
3, 117780, Note_on_c, 0, 53, 0
3, 117780, Note_on_c, 0, 62, 21
3, 117840, Note_on_c, 0, 62, 0
3, 117840, Note_on_c, 0, 58, 25
3, 117840, Note_on_c, 0, 54, 30
3, 117900, Note_on_c, 0, 54, 0
3, 117900, Note_on_c, 0, 58, 0
3, 117900, Note_on_c, 0, 62, 25
3, 117960, Note_on_c, 0, 62, 0
3, 117960, Note_on_c, 0, 58, 25
3, 117960, Note_on_c, 0, 55, 30
3, 118020, Note_on_c, 0, 55, 0
3, 118020, Note_on_c, 0, 58, 0
3, 118020, Note_on_c, 0, 62, 22
3, 118060, Note_on_c, 0, 54, 25
3, 118070, Note_on_c, 0, 57, 25
3, 118080, Note_on_c, 0, 62, 0
3, 118080, Note_on_c, 0, 63, 30
3, 118140, Note_on_c, 0, 63, 0
3, 118140, Note_on_c, 0, 57, 0
3, 118140, Note_on_c, 0, 54, 0
3, 118200, Note_on_c, 0, 78, 35
3, 118200, Note_on_c, 0, 81, 41
3, 118260, Note_on_c, 0, 81, 0
3, 118260, Note_on_c, 0, 78, 0
3, 118320, Note_on_c, 0, 71, 33
3, 118320, Note_on_c, 0, 74, 39
3, 118380, Note_on_c, 0, 74, 0
3, 118380, Note_on_c, 0, 71, 0
3, 118440, Note_on_c, 0, 72, 32
3, 118440, Note_on_c, 0, 75, 38
3, 118500, Note_on_c, 0, 75, 0
3, 118500, Note_on_c, 0, 72, 0
3, 118560, Note_on_c, 0, 68, 38
3, 118560, Note_on_c, 0, 65, 32
3, 118620, Note_on_c, 0, 65, 0
3, 118620, Note_on_c, 0, 68, 0
3, 118680, Note_on_c, 0, 69, 37
3, 118680, Note_on_c, 0, 66, 31
3, 118740, Note_on_c, 0, 66, 0
3, 118740, Note_on_c, 0, 69, 0
3, 118800, Note_on_c, 0, 62, 36
3, 118800, Note_on_c, 0, 59, 30
3, 118860, Note_on_c, 0, 59, 0
3, 118860, Note_on_c, 0, 62, 0
3, 118920, Note_on_c, 0, 63, 36
3, 118920, Note_on_c, 0, 60, 29
3, 118980, Note_on_c, 0, 60, 0
3, 118980, Note_on_c, 0, 63, 0
3, 119040, Note_on_c, 0, 57, 43
3, 119040, Note_on_c, 0, 51, 36
3, 119100, Note_on_c, 0, 51, 0
3, 119100, Note_on_c, 0, 57, 0
3, 119160, Note_on_c, 0, 84, 45
3, 119160, Note_on_c, 0, 81, 37
3, 119280, Note_on_c, 0, 81, 0
3, 119280, Note_on_c, 0, 84, 0
3, 119280, Note_on_c, 0, 77, 43
3, 119280, Note_on_c, 0, 74, 36
3, 119400, Note_on_c, 0, 74, 0
3, 119400, Note_on_c, 0, 77, 0
3, 119400, Note_on_c, 0, 75, 35
3, 119400, Note_on_c, 0, 78, 42
3, 119520, Note_on_c, 0, 78, 0
3, 119520, Note_on_c, 0, 75, 0
3, 119520, Note_on_c, 0, 70, 42
3, 119520, Note_on_c, 0, 68, 35
3, 119640, Note_on_c, 0, 68, 0
3, 119640, Note_on_c, 0, 70, 0
3, 119640, Note_on_c, 0, 72, 41
3, 119640, Note_on_c, 0, 69, 35
3, 119760, Note_on_c, 0, 69, 0
3, 119760, Note_on_c, 0, 72, 0
3, 119760, Note_on_c, 0, 62, 33
3, 119760, Note_on_c, 0, 65, 39
3, 119880, Note_on_c, 0, 65, 0
3, 119880, Note_on_c, 0, 62, 0
3, 119880, Note_on_c, 0, 63, 32
3, 119880, Note_on_c, 0, 66, 38
3, 120000, Note_on_c, 0, 66, 0
3, 120000, Note_on_c, 0, 63, 0
3, 120000, Note_on_c, 0, 60, 43
3, 120000, Note_on_c, 0, 54, 36
3, 120000, Note_on_c, 0, 46, 36
3, 120060, Note_on_c, 0, 46, 0
3, 120060, Note_on_c, 0, 54, 0
3, 120060, Note_on_c, 0, 60, 0
3, 120120, Note_on_c, 0, 84, 37
3, 120120, Note_on_c, 0, 87, 45
3, 120240, Note_on_c, 0, 87, 0
3, 120240, Note_on_c, 0, 84, 0
3, 120240, Note_on_c, 0, 77, 36
3, 120240, Note_on_c, 0, 80, 43
3, 120360, Note_on_c, 0, 80, 0
3, 120360, Note_on_c, 0, 77, 0
3, 120360, Note_on_c, 0, 81, 42
3, 120360, Note_on_c, 0, 78, 35
3, 120480, Note_on_c, 0, 78, 0
3, 120480, Note_on_c, 0, 81, 0
3, 120480, Note_on_c, 0, 90, 42
3, 120480, Note_on_c, 0, 87, 35
3, 120600, Note_on_c, 0, 87, 0
3, 120600, Note_on_c, 0, 90, 0
3, 120600, Note_on_c, 0, 83, 41
3, 120600, Note_on_c, 0, 80, 35
3, 120720, Note_on_c, 0, 80, 0
3, 120720, Note_on_c, 0, 83, 0
3, 120720, Note_on_c, 0, 81, 33
3, 120720, Note_on_c, 0, 84, 39
3, 120840, Note_on_c, 0, 84, 0
3, 120840, Note_on_c, 0, 81, 0
3, 120840, Note_on_c, 0, 90, 32
3, 120840, Note_on_c, 0, 93, 38
3, 120960, Note_on_c, 0, 93, 0
3, 120960, Note_on_c, 0, 90, 0
3, 120960, Note_on_c, 0, 83, 39
3, 120960, Note_on_c, 0, 86, 39
3, 121080, Note_on_c, 0, 86, 0
3, 121080, Note_on_c, 0, 83, 0
3, 121080, Note_on_c, 0, 87, 35
3, 121080, Note_on_c, 0, 84, 35
3, 121200, Note_on_c, 0, 84, 0
3, 121200, Note_on_c, 0, 87, 0
3, 121200, Note_on_c, 0, 80, 39
3, 121200, Note_on_c, 0, 83, 39
3, 121320, Note_on_c, 0, 83, 0
3, 121320, Note_on_c, 0, 80, 0
3, 121320, Note_on_c, 0, 81, 33
3, 121320, Note_on_c, 0, 84, 33
3, 121440, Note_on_c, 0, 84, 0
3, 121440, Note_on_c, 0, 81, 0
3, 121440, Note_on_c, 0, 80, 39
3, 121440, Note_on_c, 0, 83, 39
3, 121560, Note_on_c, 0, 83, 0
3, 121560, Note_on_c, 0, 80, 0
3, 121560, Note_on_c, 0, 84, 32
3, 121560, Note_on_c, 0, 81, 32
3, 121680, Note_on_c, 0, 81, 0
3, 121680, Note_on_c, 0, 84, 0
3, 121680, Note_on_c, 0, 80, 39
3, 121680, Note_on_c, 0, 83, 39
3, 121800, Note_on_c, 0, 83, 0
3, 121800, Note_on_c, 0, 80, 0
3, 121800, Note_on_c, 0, 84, 35
3, 121800, Note_on_c, 0, 81, 35
3, 121920, Note_on_c, 0, 81, 0
3, 121920, Note_on_c, 0, 84, 0
3, 121920, Note_on_c, 0, 82, 39
3, 121920, Note_on_c, 0, 86, 39
3, 122040, Note_on_c, 0, 86, 0
3, 122040, Note_on_c, 0, 82, 0
3, 126240, Note_on_c, 0, 65, 20
3, 126270, Note_on_c, 0, 70, 22
3, 126300, Note_on_c, 0, 77, 24
3, 126480, Note_on_c, 0, 77, 0
3, 126480, Note_on_c, 0, 70, 0
3, 126480, Note_on_c, 0, 65, 0
3, 126720, Note_on_c, 0, 46, 24
3, 126750, Note_on_c, 0, 53, 28
3, 126780, Note_on_c, 0, 62, 32
3, 126810, Note_on_c, 0, 62, 0
3, 126810, Note_on_c, 0, 53, 0
3, 126810, Note_on_c, 0, 46, 0
3, 126810, End_track
4, 0, Start_track
4, 0, Title_t, "Pedale"
4, 0, Program_c, 0, 0
4, 2437, Control_c, 0, 64, 127
4, 2888, Control_c, 0, 64, 0
4, 2926, Control_c, 0, 64, 127
4, 3846, Control_c, 0, 64, 0
4, 3892, Control_c, 0, 64, 127
4, 4329, Control_c, 0, 64, 0
4, 4355, Control_c, 0, 64, 127
4, 4800, Control_c, 0, 64, 0
4, 4837, Control_c, 0, 64, 127
4, 5047, Control_c, 0, 64, 0
4, 5075, Control_c, 0, 64, 127
4, 5292, Control_c, 0, 64, 0
4, 5329, Control_c, 0, 64, 127
4, 5771, Control_c, 0, 64, 0
4, 6240, Control_c, 0, 64, 127
4, 6736, Control_c, 0, 64, 0
4, 6755, Control_c, 0, 64, 127
4, 7215, Control_c, 0, 64, 0
4, 7240, Control_c, 0, 64, 127
4, 7444, Control_c, 0, 64, 0
4, 8413, Control_c, 0, 64, 127
4, 8525, Control_c, 0, 64, 0
4, 8885, Control_c, 0, 64, 127
4, 9607, Control_c, 0, 64, 0
4, 9636, Control_c, 0, 64, 127
4, 10092, Control_c, 0, 64, 0
4, 11282, Control_c, 0, 64, 127
4, 11407, Control_c, 0, 64, 0
4, 12237, Control_c, 0, 64, 127
4, 12400, Control_c, 0, 64, 0
4, 12736, Control_c, 0, 64, 127
4, 12912, Control_c, 0, 64, 0
4, 13210, Control_c, 0, 64, 127
4, 13336, Control_c, 0, 64, 0
4, 15109, Control_c, 0, 64, 127
4, 16320, Control_c, 0, 64, 0
4, 16574, Control_c, 0, 64, 127
4, 17045, Control_c, 0, 64, 0
4, 17095, Control_c, 0, 64, 127
4, 17523, Control_c, 0, 64, 0
4, 17557, Control_c, 0, 64, 127
4, 17611, Control_c, 0, 64, 0
4, 17680, Control_c, 0, 64, 127
4, 17743, Control_c, 0, 64, 0
4, 17817, Control_c, 0, 64, 127
4, 17863, Control_c, 0, 64, 0
4, 17909, Control_c, 0, 64, 127
4, 17973, Control_c, 0, 64, 0
4, 18052, Control_c, 0, 64, 127
4, 18106, Control_c, 0, 64, 0
4, 18172, Control_c, 0, 64, 127
4, 18240, Control_c, 0, 64, 0
4, 18509, Control_c, 0, 64, 127
4, 18965, Control_c, 0, 64, 0
4, 19015, Control_c, 0, 64, 127
4, 19443, Control_c, 0, 64, 0
4, 19477, Control_c, 0, 64, 127
4, 19531, Control_c, 0, 64, 0
4, 19600, Control_c, 0, 64, 127
4, 19663, Control_c, 0, 64, 0
4, 19737, Control_c, 0, 64, 127
4, 19783, Control_c, 0, 64, 0
4, 19829, Control_c, 0, 64, 127
4, 19893, Control_c, 0, 64, 0
4, 19972, Control_c, 0, 64, 127
4, 20026, Control_c, 0, 64, 0
4, 20092, Control_c, 0, 64, 127
4, 20160, Control_c, 0, 64, 0
4, 20414, Control_c, 0, 64, 127
4, 20885, Control_c, 0, 64, 0
4, 20935, Control_c, 0, 64, 127
4, 21363, Control_c, 0, 64, 0
4, 21397, Control_c, 0, 64, 127
4, 21451, Control_c, 0, 64, 0
4, 21520, Control_c, 0, 64, 127
4, 21583, Control_c, 0, 64, 0
4, 21657, Control_c, 0, 64, 127
4, 21703, Control_c, 0, 64, 0
4, 21749, Control_c, 0, 64, 127
4, 21813, Control_c, 0, 64, 0
4, 21892, Control_c, 0, 64, 127
4, 21946, Control_c, 0, 64, 0
4, 22012, Control_c, 0, 64, 127
4, 22086, Control_c, 0, 64, 0
4, 22334, Control_c, 0, 64, 127
4, 22805, Control_c, 0, 64, 0
4, 22855, Control_c, 0, 64, 127
4, 23283, Control_c, 0, 64, 0
4, 23317, Control_c, 0, 64, 127
4, 23371, Control_c, 0, 64, 0
4, 23440, Control_c, 0, 64, 127
4, 23503, Control_c, 0, 64, 0
4, 23577, Control_c, 0, 64, 127
4, 23623, Control_c, 0, 64, 0
4, 23669, Control_c, 0, 64, 127
4, 23733, Control_c, 0, 64, 0
4, 23812, Control_c, 0, 64, 127
4, 23866, Control_c, 0, 64, 0
4, 23932, Control_c, 0, 64, 127
4, 24005, Control_c, 0, 64, 0
4, 24253, Control_c, 0, 64, 127
4, 24491, Control_c, 0, 64, 0
4, 24519, Control_c, 0, 64, 127
4, 24729, Control_c, 0, 64, 0
4, 24758, Control_c, 0, 64, 127
4, 24963, Control_c, 0, 64, 0
4, 24993, Control_c, 0, 64, 127
4, 25204, Control_c, 0, 64, 0
4, 25242, Control_c, 0, 64, 127
4, 25447, Control_c, 0, 64, 0
4, 25463, Control_c, 0, 64, 127
4, 25682, Control_c, 0, 64, 0
4, 25703, Control_c, 0, 64, 127
4, 25928, Control_c, 0, 64, 0
4, 25963, Control_c, 0, 64, 127
4, 26171, Control_c, 0, 64, 0
4, 26206, Control_c, 0, 64, 127
4, 26420, Control_c, 0, 64, 0
4, 26475, Control_c, 0, 64, 127
4, 26644, Control_c, 0, 64, 0
4, 26677, Control_c, 0, 64, 127
4, 26892, Control_c, 0, 64, 0
4, 28094, Control_c, 0, 64, 127
4, 28252, Control_c, 0, 64, 0
4, 28340, Control_c, 0, 64, 127
4, 28483, Control_c, 0, 64, 0
4, 28577, Control_c, 0, 64, 127
4, 28735, Control_c, 0, 64, 0
4, 28830, Control_c, 0, 64, 127
4, 28975, Control_c, 0, 64, 0
4, 29069, Control_c, 0, 64, 127
4, 29226, Control_c, 0, 64, 0
4, 29312, Control_c, 0, 64, 127
4, 29480, Control_c, 0, 64, 0
4, 29552, Control_c, 0, 64, 127
4, 29703, Control_c, 0, 64, 0
4, 29800, Control_c, 0, 64, 127
4, 29935, Control_c, 0, 64, 0
4, 30014, Control_c, 0, 64, 127
4, 30172, Control_c, 0, 64, 0
4, 30260, Control_c, 0, 64, 127
4, 30403, Control_c, 0, 64, 0
4, 30497, Control_c, 0, 64, 127
4, 30655, Control_c, 0, 64, 0
4, 30750, Control_c, 0, 64, 127
4, 30895, Control_c, 0, 64, 0
4, 30989, Control_c, 0, 64, 127
4, 31146, Control_c, 0, 64, 0
4, 31232, Control_c, 0, 64, 127
4, 31400, Control_c, 0, 64, 0
4, 31472, Control_c, 0, 64, 127
4, 31623, Control_c, 0, 64, 0
4, 31689, Control_c, 0, 64, 127
4, 31852, Control_c, 0, 64, 0
4, 31949, Control_c, 0, 64, 127
4, 32089, Control_c, 0, 64, 0
4, 32180, Control_c, 0, 64, 127
4, 32323, Control_c, 0, 64, 0
4, 32423, Control_c, 0, 64, 127
4, 32557, Control_c, 0, 64, 0
4, 32669, Control_c, 0, 64, 127
4, 32817, Control_c, 0, 64, 0
4, 32909, Control_c, 0, 64, 127
4, 33066, Control_c, 0, 64, 0
4, 33157, Control_c, 0, 64, 127
4, 33309, Control_c, 0, 64, 0
4, 33386, Control_c, 0, 64, 127
4, 33555, Control_c, 0, 64, 0
4, 33623, Control_c, 0, 64, 127
4, 33749, Control_c, 0, 64, 0
4, 33863, Control_c, 0, 64, 127
4, 34003, Control_c, 0, 64, 0
4, 34100, Control_c, 0, 64, 127
4, 34243, Control_c, 0, 64, 0
4, 34349, Control_c, 0, 64, 127
4, 34500, Control_c, 0, 64, 0
4, 34589, Control_c, 0, 64, 127
4, 34726, Control_c, 0, 64, 0
4, 34832, Control_c, 0, 64, 127
4, 34980, Control_c, 0, 64, 0
4, 35055, Control_c, 0, 64, 127
4, 35223, Control_c, 0, 64, 0
4, 35277, Control_c, 0, 64, 127
4, 35463, Control_c, 0, 64, 0
4, 35773, Control_c, 0, 64, 127
4, 35886, Control_c, 0, 64, 0
4, 35908, Control_c, 0, 64, 127
4, 35956, Control_c, 0, 64, 0
4, 36039, Control_c, 0, 64, 127
4, 36247, Control_c, 0, 64, 0
4, 36252, Control_c, 0, 64, 127
4, 36363, Control_c, 0, 64, 0
4, 36385, Control_c, 0, 64, 127
4, 36422, Control_c, 0, 64, 0
4, 36513, Control_c, 0, 64, 127
4, 36659, Control_c, 0, 64, 0
4, 36762, Control_c, 0, 64, 127
4, 36860, Control_c, 0, 64, 0
4, 36983, Control_c, 0, 64, 127
4, 37069, Control_c, 0, 64, 0
4, 37205, Control_c, 0, 64, 127
4, 37448, Control_c, 0, 64, 0
4, 37483, Control_c, 0, 64, 127
4, 37691, Control_c, 0, 64, 0
4, 37726, Control_c, 0, 64, 127
4, 37943, Control_c, 0, 64, 0
4, 37995, Control_c, 0, 64, 127
4, 38164, Control_c, 0, 64, 0
4, 38197, Control_c, 0, 64, 127
4, 38408, Control_c, 0, 64, 0
4, 38443, Control_c, 0, 64, 127
4, 38651, Control_c, 0, 64, 0
4, 38686, Control_c, 0, 64, 127
4, 38901, Control_c, 0, 64, 0
4, 38955, Control_c, 0, 64, 127
4, 39124, Control_c, 0, 64, 0
4, 39157, Control_c, 0, 64, 127
4, 39360, Control_c, 0, 64, 0
4, 40089, Control_c, 0, 64, 127
4, 40203, Control_c, 0, 64, 0
4, 40434, Control_c, 0, 64, 127
4, 40810, Control_c, 0, 64, 0
4, 40834, Control_c, 0, 64, 127
4, 41287, Control_c, 0, 64, 0
4, 42009, Control_c, 0, 64, 127
4, 42123, Control_c, 0, 64, 0
4, 42354, Control_c, 0, 64, 127
4, 42725, Control_c, 0, 64, 0
4, 42743, Control_c, 0, 64, 127
4, 43227, Control_c, 0, 64, 0
4, 43314, Control_c, 0, 64, 127
4, 43684, Control_c, 0, 64, 0
4, 43698, Control_c, 0, 64, 127
4, 44184, Control_c, 0, 64, 0
4, 44287, Control_c, 0, 64, 127
4, 44667, Control_c, 0, 64, 0
4, 44775, Control_c, 0, 64, 127
4, 45147, Control_c, 0, 64, 0
4, 45234, Control_c, 0, 64, 127
4, 45602, Control_c, 0, 64, 0
4, 45618, Control_c, 0, 64, 127
4, 45846, Control_c, 0, 64, 0
4, 45879, Control_c, 0, 64, 127
4, 46087, Control_c, 0, 64, 0
4, 46126, Control_c, 0, 64, 127
4, 46566, Control_c, 0, 64, 0
4, 46597, Control_c, 0, 64, 127
4, 47051, Control_c, 0, 64, 0
4, 47086, Control_c, 0, 64, 127
4, 47532, Control_c, 0, 64, 0
4, 47564, Control_c, 0, 64, 127
4, 48009, Control_c, 0, 64, 0
4, 48049, Control_c, 0, 64, 127
4, 48488, Control_c, 0, 64, 0
4, 48555, Control_c, 0, 64, 127
4, 48976, Control_c, 0, 64, 0
4, 49023, Control_c, 0, 64, 127
4, 49448, Control_c, 0, 64, 0
4, 49506, Control_c, 0, 64, 127
4, 49920, Control_c, 0, 64, 0
4, 50075, Control_c, 0, 64, 127
4, 50140, Control_c, 0, 64, 0
4, 50300, Control_c, 0, 64, 127
4, 50380, Control_c, 0, 64, 0
4, 50546, Control_c, 0, 64, 127
4, 50600, Control_c, 0, 64, 0
4, 50729, Control_c, 0, 64, 127
4, 50806, Control_c, 0, 64, 0
4, 51029, Control_c, 0, 64, 127
4, 51100, Control_c, 0, 64, 0
4, 51263, Control_c, 0, 64, 127
4, 51317, Control_c, 0, 64, 0
4, 51495, Control_c, 0, 64, 127
4, 51566, Control_c, 0, 64, 0
4, 51695, Control_c, 0, 64, 127
4, 51806, Control_c, 0, 64, 0
4, 52000, Control_c, 0, 64, 127
4, 52060, Control_c, 0, 64, 0
4, 52260, Control_c, 0, 64, 127
4, 52312, Control_c, 0, 64, 0
4, 52469, Control_c, 0, 64, 127
4, 52520, Control_c, 0, 64, 0
4, 52580, Control_c, 0, 64, 127
4, 52800, Control_c, 0, 64, 0
4, 52963, Control_c, 0, 64, 127
4, 53032, Control_c, 0, 64, 0
4, 53217, Control_c, 0, 64, 127
4, 53298, Control_c, 0, 64, 0
4, 53335, Control_c, 0, 64, 127
4, 53525, Control_c, 0, 64, 0
4, 53586, Control_c, 0, 64, 127
4, 53760, Control_c, 0, 64, 0
4, 54015, Control_c, 0, 64, 127
4, 54251, Control_c, 0, 64, 0
4, 54280, Control_c, 0, 64, 127
4, 54490, Control_c, 0, 64, 0
4, 54532, Control_c, 0, 64, 127
4, 54725, Control_c, 0, 64, 0
4, 54752, Control_c, 0, 64, 127
4, 54844, Control_c, 0, 64, 0
4, 54866, Control_c, 0, 64, 127
4, 54959, Control_c, 0, 64, 0
4, 54985, Control_c, 0, 64, 127
4, 55090, Control_c, 0, 64, 0
4, 55109, Control_c, 0, 64, 127
4, 55208, Control_c, 0, 64, 0
4, 55236, Control_c, 0, 64, 127
4, 55322, Control_c, 0, 64, 0
4, 55343, Control_c, 0, 64, 127
4, 55447, Control_c, 0, 64, 0
4, 55469, Control_c, 0, 64, 127
4, 55563, Control_c, 0, 64, 0
4, 55593, Control_c, 0, 64, 127
4, 55680, Control_c, 0, 64, 0
4, 55946, Control_c, 0, 64, 127
4, 56171, Control_c, 0, 64, 0
4, 56200, Control_c, 0, 64, 127
4, 56410, Control_c, 0, 64, 0
4, 56452, Control_c, 0, 64, 127
4, 56642, Control_c, 0, 64, 0
4, 56672, Control_c, 0, 64, 127
4, 56766, Control_c, 0, 64, 0
4, 56786, Control_c, 0, 64, 127
4, 56891, Control_c, 0, 64, 0
4, 56905, Control_c, 0, 64, 127
4, 57005, Control_c, 0, 64, 0
4, 57036, Control_c, 0, 64, 127
4, 57130, Control_c, 0, 64, 0
4, 57151, Control_c, 0, 64, 127
4, 57242, Control_c, 0, 64, 0
4, 57274, Control_c, 0, 64, 127
4, 57365, Control_c, 0, 64, 0
4, 57396, Control_c, 0, 64, 127
4, 57483, Control_c, 0, 64, 0
4, 57506, Control_c, 0, 64, 127
4, 57610, Control_c, 0, 64, 0
4, 57635, Control_c, 0, 64, 127
4, 57723, Control_c, 0, 64, 0
4, 57745, Control_c, 0, 64, 127
4, 57845, Control_c, 0, 64, 0
4, 57869, Control_c, 0, 64, 127
4, 57970, Control_c, 0, 64, 0
4, 57989, Control_c, 0, 64, 127
4, 58083, Control_c, 0, 64, 0
4, 58105, Control_c, 0, 64, 127
4, 58202, Control_c, 0, 64, 0
4, 58226, Control_c, 0, 64, 127
4, 58330, Control_c, 0, 64, 0
4, 58361, Control_c, 0, 64, 127
4, 58450, Control_c, 0, 64, 0
4, 58469, Control_c, 0, 64, 127
4, 58560, Control_c, 0, 64, 0
4, 59303, Control_c, 0, 64, 127
4, 59405, Control_c, 0, 64, 0
4, 60252, Control_c, 0, 64, 127
4, 60366, Control_c, 0, 64, 0
4, 61217, Control_c, 0, 64, 127
4, 61333, Control_c, 0, 64, 0
4, 62169, Control_c, 0, 64, 127
4, 62289, Control_c, 0, 64, 0
4, 63129, Control_c, 0, 64, 127
4, 63260, Control_c, 0, 64, 0
4, 63360, Control_c, 0, 64, 127
4, 63435, Control_c, 0, 64, 0
4, 63629, Control_c, 0, 64, 127
4, 63692, Control_c, 0, 64, 0
4, 63866, Control_c, 0, 64, 127
4, 63926, Control_c, 0, 64, 0
4, 64112, Control_c, 0, 64, 127
4, 64172, Control_c, 0, 64, 0
4, 64360, Control_c, 0, 64, 127
4, 64815, Control_c, 0, 64, 0
4, 64875, Control_c, 0, 64, 127
4, 66249, Control_c, 0, 64, 0
4, 66274, Control_c, 0, 64, 127
4, 67213, Control_c, 0, 64, 0
4, 67244, Control_c, 0, 64, 127
4, 68171, Control_c, 0, 64, 0
4, 68204, Control_c, 0, 64, 127
4, 69369, Control_c, 0, 64, 0
4, 69406, Control_c, 0, 64, 127
4, 69611, Control_c, 0, 64, 0
4, 69637, Control_c, 0, 64, 127
4, 69844, Control_c, 0, 64, 0
4, 69877, Control_c, 0, 64, 127
4, 70087, Control_c, 0, 64, 0
4, 70820, Control_c, 0, 64, 127
4, 70895, Control_c, 0, 64, 0
4, 71097, Control_c, 0, 64, 127
4, 71288, Control_c, 0, 64, 0
4, 71326, Control_c, 0, 64, 127
4, 71531, Control_c, 0, 64, 0
4, 71591, Control_c, 0, 64, 127
4, 71764, Control_c, 0, 64, 0
4, 71834, Control_c, 0, 64, 127
4, 72007, Control_c, 0, 64, 0
4, 72740, Control_c, 0, 64, 127
4, 72815, Control_c, 0, 64, 0
4, 72997, Control_c, 0, 64, 127
4, 73208, Control_c, 0, 64, 0
4, 73246, Control_c, 0, 64, 127
4, 73451, Control_c, 0, 64, 0
4, 73477, Control_c, 0, 64, 127
4, 73684, Control_c, 0, 64, 0
4, 73717, Control_c, 0, 64, 127
4, 73924, Control_c, 0, 64, 0
4, 74660, Control_c, 0, 64, 127
4, 74735, Control_c, 0, 64, 0
4, 74928, Control_c, 0, 64, 127
4, 75127, Control_c, 0, 64, 0
4, 75166, Control_c, 0, 64, 127
4, 75371, Control_c, 0, 64, 0
4, 75397, Control_c, 0, 64, 127
4, 75604, Control_c, 0, 64, 0
4, 75637, Control_c, 0, 64, 127
4, 75849, Control_c, 0, 64, 0
4, 76580, Control_c, 0, 64, 127
4, 76655, Control_c, 0, 64, 0
4, 76810, Control_c, 0, 64, 127
4, 77016, Control_c, 0, 64, 0
4, 77053, Control_c, 0, 64, 127
4, 77288, Control_c, 0, 64, 0
4, 77319, Control_c, 0, 64, 127
4, 77528, Control_c, 0, 64, 0
4, 77554, Control_c, 0, 64, 127
4, 77765, Control_c, 0, 64, 0
4, 77793, Control_c, 0, 64, 127
4, 77946, Control_c, 0, 64, 0
4, 78042, Control_c, 0, 64, 127
4, 78242, Control_c, 0, 64, 0
4, 78263, Control_c, 0, 64, 127
4, 78446, Control_c, 0, 64, 0
4, 78485, Control_c, 0, 64, 127
4, 78730, Control_c, 0, 64, 0
4, 78763, Control_c, 0, 64, 127
4, 78971, Control_c, 0, 64, 0
4, 79006, Control_c, 0, 64, 127
4, 79217, Control_c, 0, 64, 0
4, 79275, Control_c, 0, 64, 127
4, 79446, Control_c, 0, 64, 0
4, 79532, Control_c, 0, 64, 127
4, 79692, Control_c, 0, 64, 0
4, 79966, Control_c, 0, 64, 127
4, 80171, Control_c, 0, 64, 0
4, 80197, Control_c, 0, 64, 127
4, 80404, Control_c, 0, 64, 0
4, 80437, Control_c, 0, 64, 127
4, 80643, Control_c, 0, 64, 0
4, 81380, Control_c, 0, 64, 127
4, 81455, Control_c, 0, 64, 0
4, 81629, Control_c, 0, 64, 127
4, 81849, Control_c, 0, 64, 0
4, 81886, Control_c, 0, 64, 127
4, 82091, Control_c, 0, 64, 0
4, 82117, Control_c, 0, 64, 127
4, 82324, Control_c, 0, 64, 0
4, 82357, Control_c, 0, 64, 127
4, 82563, Control_c, 0, 64, 0
4, 83300, Control_c, 0, 64, 127
4, 83375, Control_c, 0, 64, 0
4, 83549, Control_c, 0, 64, 127
4, 83768, Control_c, 0, 64, 0
4, 83806, Control_c, 0, 64, 127
4, 84011, Control_c, 0, 64, 0
4, 84037, Control_c, 0, 64, 127
4, 84244, Control_c, 0, 64, 0
4, 84277, Control_c, 0, 64, 127
4, 84485, Control_c, 0, 64, 0
4, 85220, Control_c, 0, 64, 127
4, 85295, Control_c, 0, 64, 0
4, 85466, Control_c, 0, 64, 127
4, 85687, Control_c, 0, 64, 0
4, 85726, Control_c, 0, 64, 127
4, 85931, Control_c, 0, 64, 0
4, 85957, Control_c, 0, 64, 127
4, 86164, Control_c, 0, 64, 0
4, 86197, Control_c, 0, 64, 127
4, 86407, Control_c, 0, 64, 0
4, 87140, Control_c, 0, 64, 127
4, 87215, Control_c, 0, 64, 0
4, 87370, Control_c, 0, 64, 127
4, 87609, Control_c, 0, 64, 0
4, 87649, Control_c, 0, 64, 127
4, 87848, Control_c, 0, 64, 0
4, 87879, Control_c, 0, 64, 127
4, 88087, Control_c, 0, 64, 0
4, 88118, Control_c, 0, 64, 127
4, 88323, Control_c, 0, 64, 0
4, 88353, Control_c, 0, 64, 127
4, 88515, Control_c, 0, 64, 0
4, 88620, Control_c, 0, 64, 127
4, 88808, Control_c, 0, 64, 0
4, 88839, Control_c, 0, 64, 127
4, 89047, Control_c, 0, 64, 0
4, 89078, Control_c, 0, 64, 127
4, 89286, Control_c, 0, 64, 0
4, 89313, Control_c, 0, 64, 127
4, 89469, Control_c, 0, 64, 0
4, 89569, Control_c, 0, 64, 127
4, 89768, Control_c, 0, 64, 0
4, 89799, Control_c, 0, 64, 127
4, 90007, Control_c, 0, 64, 0
4, 90038, Control_c, 0, 64, 127
4, 90243, Control_c, 0, 64, 0
4, 90273, Control_c, 0, 64, 127
4, 90419, Control_c, 0, 64, 0
4, 90493, Control_c, 0, 64, 127
4, 90728, Control_c, 0, 64, 0
4, 90759, Control_c, 0, 64, 127
4, 90967, Control_c, 0, 64, 0
4, 90998, Control_c, 0, 64, 127
4, 91203, Control_c, 0, 64, 0
4, 91233, Control_c, 0, 64, 127
4, 91379, Control_c, 0, 64, 0
4, 91453, Control_c, 0, 64, 127
4, 91688, Control_c, 0, 64, 0
4, 91719, Control_c, 0, 64, 127
4, 91927, Control_c, 0, 64, 0
4, 91958, Control_c, 0, 64, 127
4, 92163, Control_c, 0, 64, 0
4, 92193, Control_c, 0, 64, 127
4, 92339, Control_c, 0, 64, 0
4, 92415, Control_c, 0, 64, 127
4, 92652, Control_c, 0, 64, 0
4, 92689, Control_c, 0, 64, 127
4, 92890, Control_c, 0, 64, 0
4, 92923, Control_c, 0, 64, 127
4, 93127, Control_c, 0, 64, 0
4, 93160, Control_c, 0, 64, 127
4, 93363, Control_c, 0, 64, 0
4, 93400, Control_c, 0, 64, 127
4, 93457, Control_c, 0, 64, 0
4, 93646, Control_c, 0, 64, 127
4, 93697, Control_c, 0, 64, 0
4, 93886, Control_c, 0, 64, 127
4, 93949, Control_c, 0, 64, 0
4, 94123, Control_c, 0, 64, 127
4, 94331, Control_c, 0, 64, 0
4, 94366, Control_c, 0, 64, 127
4, 94577, Control_c, 0, 64, 0
4, 94635, Control_c, 0, 64, 127
4, 94804, Control_c, 0, 64, 0
4, 94837, Control_c, 0, 64, 127
4, 95048, Control_c, 0, 64, 0
4, 95083, Control_c, 0, 64, 127
4, 95291, Control_c, 0, 64, 0
4, 95326, Control_c, 0, 64, 127
4, 95538, Control_c, 0, 64, 0
4, 95595, Control_c, 0, 64, 127
4, 95764, Control_c, 0, 64, 0
4, 95829, Control_c, 0, 64, 127
4, 96008, Control_c, 0, 64, 0
4, 96043, Control_c, 0, 64, 127
4, 96251, Control_c, 0, 64, 0
4, 96286, Control_c, 0, 64, 127
4, 96500, Control_c, 0, 64, 0
4, 96555, Control_c, 0, 64, 127
4, 96724, Control_c, 0, 64, 0
4, 96757, Control_c, 0, 64, 127
4, 96966, Control_c, 0, 64, 0
4, 97692, Control_c, 0, 64, 127
4, 97804, Control_c, 0, 64, 0
4, 97920, Control_c, 0, 64, 0
4, 98652, Control_c, 0, 64, 127
4, 98769, Control_c, 0, 64, 0
4, 98880, Control_c, 0, 64, 0
4, 99612, Control_c, 0, 64, 127
4, 99727, Control_c, 0, 64, 0
4, 99840, Control_c, 0, 64, 0
4, 100572, Control_c, 0, 64, 127
4, 100686, Control_c, 0, 64, 0
4, 100800, Control_c, 0, 64, 0
4, 100949, Control_c, 0, 64, 127
4, 101015, Control_c, 0, 64, 0
4, 101063, Control_c, 0, 64, 127
4, 101135, Control_c, 0, 64, 0
4, 101186, Control_c, 0, 64, 127
4, 101255, Control_c, 0, 64, 0
4, 101309, Control_c, 0, 64, 127
4, 101369, Control_c, 0, 64, 0
4, 101426, Control_c, 0, 64, 127
4, 101486, Control_c, 0, 64, 0
4, 101532, Control_c, 0, 64, 127
4, 101646, Control_c, 0, 64, 0
4, 101760, Control_c, 0, 64, 0
4, 101909, Control_c, 0, 64, 127
4, 101975, Control_c, 0, 64, 0
4, 102023, Control_c, 0, 64, 127
4, 102097, Control_c, 0, 64, 0
4, 102146, Control_c, 0, 64, 127
4, 102215, Control_c, 0, 64, 0
4, 102269, Control_c, 0, 64, 127
4, 102340, Control_c, 0, 64, 0
4, 102386, Control_c, 0, 64, 127
4, 102457, Control_c, 0, 64, 0
4, 102492, Control_c, 0, 64, 127
4, 102606, Control_c, 0, 64, 0
4, 102866, Control_c, 0, 64, 127
4, 102909, Control_c, 0, 64, 0
4, 102972, Control_c, 0, 64, 127
4, 103088, Control_c, 0, 64, 0
4, 103346, Control_c, 0, 64, 127
4, 103389, Control_c, 0, 64, 0
4, 103452, Control_c, 0, 64, 127
4, 103564, Control_c, 0, 64, 0
4, 103803, Control_c, 0, 64, 127
4, 103930, Control_c, 0, 64, 0
4, 103969, Control_c, 0, 64, 127
4, 104040, Control_c, 0, 64, 0
4, 104075, Control_c, 0, 64, 127
4, 104166, Control_c, 0, 64, 0
4, 104195, Control_c, 0, 64, 127
4, 104286, Control_c, 0, 64, 0
4, 104303, Control_c, 0, 64, 127
4, 104407, Control_c, 0, 64, 0
4, 104432, Control_c, 0, 64, 127
4, 104526, Control_c, 0, 64, 0
4, 104563, Control_c, 0, 64, 127
4, 104652, Control_c, 0, 64, 0
4, 104680, Control_c, 0, 64, 127
4, 104767, Control_c, 0, 64, 0
4, 104795, Control_c, 0, 64, 127
4, 104886, Control_c, 0, 64, 0
4, 104917, Control_c, 0, 64, 127
4, 105010, Control_c, 0, 64, 0
4, 105029, Control_c, 0, 64, 127
4, 105126, Control_c, 0, 64, 0
4, 105152, Control_c, 0, 64, 127
4, 105252, Control_c, 0, 64, 0
4, 105272, Control_c, 0, 64, 127
4, 105363, Control_c, 0, 64, 0
4, 105395, Control_c, 0, 64, 127
4, 105489, Control_c, 0, 64, 0
4, 105529, Control_c, 0, 64, 127
4, 105612, Control_c, 0, 64, 0
4, 105635, Control_c, 0, 64, 127
4, 105728, Control_c, 0, 64, 0
4, 105760, Control_c, 0, 64, 127
4, 105850, Control_c, 0, 64, 0
4, 105869, Control_c, 0, 64, 127
4, 105965, Control_c, 0, 64, 0
4, 106000, Control_c, 0, 64, 127
4, 106091, Control_c, 0, 64, 0
4, 106129, Control_c, 0, 64, 127
4, 106567, Control_c, 0, 64, 0
4, 106603, Control_c, 0, 64, 127
4, 107052, Control_c, 0, 64, 0
4, 107086, Control_c, 0, 64, 127
4, 107523, Control_c, 0, 64, 0
4, 109463, Control_c, 0, 64, 127
4, 109532, Control_c, 0, 64, 0
4, 109726, Control_c, 0, 64, 127
4, 110404, Control_c, 0, 64, 0
4, 110448, Control_c, 0, 64, 127
4, 110503, Control_c, 0, 64, 0
4, 110660, Control_c, 0, 64, 127
4, 110903, Control_c, 0, 64, 0
4, 110929, Control_c, 0, 64, 127
4, 110986, Control_c, 0, 64, 0
4, 111160, Control_c, 0, 64, 127
4, 111363, Control_c, 0, 64, 0
4, 115200, Control_c, 0, 64, 0
4, 115929, Control_c, 0, 64, 127
4, 116043, Control_c, 0, 64, 0
4, 116274, Control_c, 0, 64, 127
4, 116647, Control_c, 0, 64, 0
4, 116658, Control_c, 0, 64, 127
4, 117128, Control_c, 0, 64, 0
4, 117849, Control_c, 0, 64, 127
4, 117963, Control_c, 0, 64, 0
4, 118194, Control_c, 0, 64, 127
4, 118565, Control_c, 0, 64, 0
4, 118588, Control_c, 0, 64, 127
4, 119067, Control_c, 0, 64, 0
4, 119154, Control_c, 0, 64, 127
4, 119530, Control_c, 0, 64, 0
4, 119557, Control_c, 0, 64, 127
4, 120025, Control_c, 0, 64, 0
4, 120135, Control_c, 0, 64, 127
4, 120490, Control_c, 0, 64, 0
4, 120537, Control_c, 0, 64, 127
4, 120968, Control_c, 0, 64, 0
4, 121009, Control_c, 0, 64, 127
4, 121212, Control_c, 0, 64, 0
4, 121257, Control_c, 0, 64, 127
4, 121944, Control_c, 0, 64, 0
4, 122034, Control_c, 0, 64, 127
4, 122896, Control_c, 0, 64, 0
4, 123057, Control_c, 0, 64, 127
4, 123856, Control_c, 0, 64, 0
4, 123983, Control_c, 0, 64, 127
4, 126243, Control_c, 0, 64, 0
4, 126269, Control_c, 0, 64, 127
4, 126480, Control_c, 0, 64, 0
4, 126720, Control_c, 0, 64, 127
4, 126861, Control_c, 0, 64, 0
4, 126861, End_track
5, 0, Start_track
5, 0, Title_t, "Franz Liszt: Etudes d'execution transcendante No. 5"
5, 65280, Control_c, 0, 64, 0
5, 65280, Control_c, 0, 64, 0
5, 65313, Control_c, 0, 64, 127
5, 66240, Control_c, 0, 64, 0
5, 67200, Control_c, 0, 64, 0
5, 67440, Control_c, 0, 64, 0
5, 67680, Control_c, 0, 64, 0
5, 67920, Control_c, 0, 64, 0
5, 67920, End_track
6, 0, Start_track
6, 0, Title_t, "Copyright © 2006 by Bernd Krueger"
6, 0, End_track
7, 0, Start_track
7, 0, Title_t, "http://www.piano-midi.de/"
7, 0, End_track
8, 0, Start_track
8, 0, Title_t, "Edition: 2014-03-06"
8, 0, End_track
9, 0, Start_track
9, 0, Title_t, "Spur 8"
9, 0, End_track
10, 0, Start_track
10, 0, Title_t, "Spur 9"
10, 0, End_track
11, 0, Start_track
11, 0, Title_t, "Spur 10"
11, 0, End_track
12, 0, Start_track
12, 0, Title_t, "Spur 11"
12, 0, End_track
13, 0, Start_track
13, 0, Title_t, "Spur 12"
13, 0, End_track
14, 0, Start_track
14, 0, Title_t, "Spur 13"
14, 0, End_track
15, 0, Start_track
15, 0, Title_t, "Spur 14"
15, 0, End_track
16, 0, Start_track
16, 0, Title_t, "Spur 15"
16, 0, End_track
17, 0, Start_track
17, 0, Title_t, "Spur 16"
17, 0, End_track
0, 0, End_of_file
