0, 0, Header, 1, 8, 480
1, 0, Start_track
1, 0, Title_t, "Etude No. 5 aus Grandes Etudes de Paganini"
1, 0, Copyright_t, "Copyright © 1998 von Bernd Krüger. http://www.piano-midi.de"
1, 0, Text_t, "Franz Liszt"
1, 0, Text_t, "Allegretto"
1, 0, Text_t, "Korrekturen am 21.8.98\012"
1, 0, Text_t, "Anpassungen an Digitalpiano am 29.12.98\012"
1, 0, Text_t, "Update am 24.4.99\012"
1, 0, Text_t, "Normierung: 23.12.2002\012"
1, 0, Text_t, "Update am 9.2.2011\012"
1, 0, Text_t, "Update am 4.3.2014\012"
1, 0, Text_t, "Dauer: 3:04 Minuten\012"
1, 0, Time_signature, 2, 2, 24, 8
1, 0, Key_signature, 4, "major"
1, 0, Tempo, 817327
1, 1200, Tempo, 794702
1, 1440, Tempo, 817327
1, 1680, Tempo, 789266
1, 1920, Tempo, 817327
1, 2160, Tempo, 794702
1, 2400, Tempo, 817327
1, 2640, Tempo, 783801
1, 2760, Tempo, 783801
1, 2880, Tempo, 789266
1, 3120, Tempo, 752823
1, 3240, Tempo, 773196
1, 3360, Tempo, 778513
1, 3600, Tempo, 752823
1, 3720, Tempo, 773196
1, 3840, Tempo, 762873
1, 4080, Tempo, 747943
1, 4200, Tempo, 805910
1, 4320, Tempo, 778513
1, 4560, Tempo, 752823
1, 4680, Tempo, 762873
1, 4800, Tempo, 778513
1, 5040, Tempo, 762873
1, 5280, Tempo, 778513
1, 5520, Tempo, 738280
1, 5640, Tempo, 747943
1, 5760, Tempo, 762873
1, 6000, Tempo, 743126
1, 6120, Tempo, 757863
1, 6240, Tempo, 762873
1, 6480, Tempo, 773196
1, 6600, Tempo, 794702
1, 6720, Tempo, 783801
1, 6960, Tempo, 800213
1, 7200, Tempo, 783801
1, 7440, Tempo, 823271
1, 7560, Tempo, 908265
1, 7920, Tempo, 762873
1, 8400, Tempo, 702083
1, 8520, Tempo, 733496
1, 8640, Tempo, 743126
1, 8880, Tempo, 689338
1, 9000, Tempo, 710732
1, 9120, Tempo, 724200
1, 9360, Tempo, 685244
1, 9460, Tempo, 710732
1, 9480, Tempo, 743126
1, 9600, Tempo, 733496
1, 9840, Tempo, 702083
1, 9960, Tempo, 733496
1, 10080, Tempo, 794702
1, 10320, Tempo, 706381
1, 10440, Tempo, 728863
1, 10560, Tempo, 733496
1, 10800, Tempo, 665336
1, 10920, Tempo, 719683
1, 11040, Tempo, 685244
1, 11280, Tempo, 697756
1, 11400, Tempo, 743126
1, 11520, Tempo, 778008
1, 11760, Tempo, 857388
1, 11880, Tempo, 940439
1, 12000, Tempo, 1041486
1, 12240, Tempo, 773196
1, 12360, Tempo, 778513
1, 12480, Tempo, 783801
1, 12720, Tempo, 757863
1, 12840, Tempo, 783801
1, 12960, Tempo, 851547
1, 13200, Tempo, 702083
1, 13320, Tempo, 719683
1, 13440, Tempo, 762873
1, 13680, Tempo, 715222
1, 13800, Tempo, 757863
1, 13920, Tempo, 794702
1, 14160, Tempo, 773196
1, 14280, Tempo, 794702
1, 14400, Tempo, 783801
1, 14640, Tempo, 800213
1, 14880, Tempo, 783801
1, 15120, Tempo, 880153
1, 15240, Tempo, 1122125
1, 15360, Tempo, 978155
1, 16040, Tempo, 805261
1, 16080, Tempo, 669195
1, 16320, Tempo, 689338
1, 16560, Tempo, 665336
1, 16800, Tempo, 685244
1, 17040, Tempo, 661521
1, 17280, Tempo, 685244
1, 17520, Tempo, 661521
1, 17760, Tempo, 681122
1, 18000, Tempo, 646482
1, 18120, Tempo, 694766
1, 18240, Tempo, 677124
1, 18480, Tempo, 646482
1, 18600, Tempo, 685323
1, 18720, Tempo, 673174
1, 18960, Tempo, 646482
1, 19080, Tempo, 685323
1, 19200, Tempo, 673174
1, 19440, Tempo, 642880
1, 19560, Tempo, 669195
1, 19680, Tempo, 677124
1, 19920, Tempo, 669195
1, 20160, Tempo, 689338
1, 20400, Tempo, 665336
1, 20640, Tempo, 685244
1, 20880, Tempo, 661521
1, 21120, Tempo, 681122
1, 21360, Tempo, 642880
1, 21480, Tempo, 646482
1, 21600, Tempo, 673174
1, 21840, Tempo, 642880
1, 21960, Tempo, 650195
1, 22080, Tempo, 673174
1, 22320, Tempo, 657606
1, 22440, Tempo, 685323
1, 22560, Tempo, 653880
1, 22800, Tempo, 685244
1, 22920, Tempo, 715222
1, 23040, Tempo, 743126
1, 23160, Tempo, 693481
1, 23280, Tempo, 710732
1, 23480, Tempo, 680735
1, 23520, Tempo, 747943
1, 23760, Tempo, 650195
1, 23880, Tempo, 693481
1, 24000, Tempo, 677124
1, 24240, Tempo, 628733
1, 24360, Tempo, 650195
1, 24480, Tempo, 669195
1, 24720, Tempo, 618557
1, 24840, Tempo, 650195
1, 24960, Tempo, 681122
1, 25200, Tempo, 611933
1, 25320, Tempo, 650195
1, 25440, Tempo, 681122
1, 25660, Tempo, 639318
1, 25680, Tempo, 653880
1, 25800, Tempo, 677124
1, 25920, Tempo, 689338
1, 26160, Tempo, 611933
1, 26280, Tempo, 669195
1, 26400, Tempo, 657606
1, 26640, Tempo, 639318
1, 26760, Tempo, 685244
1, 26880, Tempo, 829302
1, 27120, Tempo, 1021798
1, 27240, Tempo, 1133144
1, 27360, Tempo, 1816530
1, 27600, Tempo, 669195
1, 27840, Tempo, 689338
1, 28080, Tempo, 665336
1, 28320, Tempo, 685244
1, 28560, Tempo, 661521
1, 28800, Tempo, 685244
1, 29040, Tempo, 661521
1, 29280, Tempo, 681122
1, 29520, Tempo, 715222
1, 29760, Tempo, 752823
1, 30000, Tempo, 841515
1, 30120, Tempo, 841515
1, 30220, Tempo, 853971
1, 30480, Tempo, 1031105
1, 30600, Tempo, 1191895
1, 30700, Tempo, 1049869
1, 31200, Tempo, 639318
1, 31440, Tempo, 847697
1, 31680, Key_signature, 1, "major"
1, 31680, Tempo, 738280
1, 31920, Tempo, 635728
1, 32040, Tempo, 778513
1, 32160, Tempo, 710732
1, 32400, Tempo, 639318
1, 32520, Tempo, 757863
1, 32640, Tempo, 710732
1, 32880, Tempo, 642880
1, 33000, Tempo, 747943
1, 33120, Tempo, 710732
1, 33360, Tempo, 653880
1, 33480, Tempo, 767951
1, 33600, Tempo, 710732
1, 33840, Tempo, 665336
1, 33960, Tempo, 762873
1, 34080, Tempo, 710732
1, 34320, Tempo, 738280
1, 34440, Tempo, 841515
1, 34560, Tempo, 800213
1, 35280, Tempo, 767951
1, 35520, Tempo, 738280
1, 35760, Tempo, 650195
1, 35880, Tempo, 778513
1, 36000, Tempo, 710732
1, 36240, Tempo, 661521
1, 36360, Tempo, 757863
1, 36480, Tempo, 710732
1, 36720, Tempo, 677124
1, 36840, Tempo, 789266
1, 36960, Tempo, 706381
1, 37200, Tempo, 661521
1, 37320, Tempo, 697756
1, 37440, Tempo, 685244
1, 37680, Tempo, 653880
1, 37800, Tempo, 738280
1, 37920, Tempo, 710732
1, 38160, Tempo, 894055
1, 38280, Tempo, 1111111
1, 38400, Tempo, 778513
1, 39120, Tempo, 767951
1, 39360, Tempo, 724200
1, 39600, Tempo, 650195
1, 39720, Tempo, 752823
1, 39840, Tempo, 715222
1, 40080, Tempo, 657606
1, 40200, Tempo, 733496
1, 40320, Tempo, 706381
1, 40560, Tempo, 544910
1, 40680, Tempo, 602289
1, 40800, Tempo, 685244
1, 41040, Tempo, 743126
1, 41280, Tempo, 715222
1, 41520, Tempo, 650195
1, 41640, Tempo, 752823
1, 41760, Tempo, 728863
1, 42000, Tempo, 639318
1, 42120, Tempo, 661521
1, 42240, Tempo, 685244
1, 42480, Tempo, 547495
1, 42600, Tempo, 621891
1, 42720, Tempo, 719683
1, 42960, Tempo, 743126
1, 43200, Tempo, 715222
1, 43220, Tempo, 725865
1, 43440, Tempo, 566465
1, 43560, Tempo, 657606
1, 43680, Tempo, 677124
1, 43920, Tempo, 558191
1, 44040, Tempo, 719683
1, 44160, Tempo, 745805
1, 44400, Tempo, 547495
1, 44520, Tempo, 661521
1, 44640, Tempo, 708132
1, 44880, Tempo, 566465
1, 45000, Tempo, 702083
1, 45120, Tempo, 689338
1, 45360, Tempo, 592476
1, 45460, Tempo, 642880
1, 45480, Tempo, 639318
1, 45600, Tempo, 677660
1, 45840, Tempo, 592476
1, 45960, Tempo, 733496
1, 46080, Tempo, 699545
1, 46320, Tempo, 598623
1, 46440, Tempo, 671216
1, 46560, Tempo, 653880
1, 46800, Tempo, 595533
1, 46900, Tempo, 806452
1, 47040, Tempo, 725865
1, 47081, Tempo, 715222
1, 47280, Tempo, 595948
1, 47400, Tempo, 789266
1, 47520, Tempo, 689338
1, 47760, Tempo, 632244
1, 47880, Tempo, 823271
1, 48000, Tempo, 743126
1, 48240, Tempo, 642880
1, 48360, Tempo, 743126
1, 48480, Tempo, 728863
1, 48720, Tempo, 615195
1, 48840, Tempo, 773196
1, 48960, Tempo, 677124
1, 49200, Tempo, 639318
1, 49320, Tempo, 794702
1, 49440, Tempo, 847697
1, 49680, Tempo, 1031105
1, 49800, Tempo, 1271456
1, 49920, Key_signature, 4, "major"
1, 49920, Tempo, 1346499
1, 50600, Tempo, 1359003
1, 50640, Tempo, 675295
1, 50880, Tempo, 695652
1, 51120, Tempo, 671441
1, 51360, Tempo, 691483
1, 51600, Tempo, 667482
1, 51840, Tempo, 691483
1, 52080, Tempo, 667482
1, 52320, Tempo, 687364
1, 52560, Tempo, 652387
1, 52680, Tempo, 701098
1, 52800, Tempo, 683293
1, 53040, Tempo, 652387
1, 53160, Tempo, 691643
1, 53280, Tempo, 679271
1, 53520, Tempo, 652387
1, 53640, Tempo, 691643
1, 53760, Tempo, 679271
1, 54000, Tempo, 648719
1, 54120, Tempo, 675295
1, 54240, Tempo, 683293
1, 54480, Tempo, 675295
1, 54720, Tempo, 695652
1, 54960, Tempo, 671441
1, 55200, Tempo, 691483
1, 55440, Tempo, 653880
1, 55560, Tempo, 669195
1, 55680, Tempo, 687364
1, 55920, Tempo, 648719
1, 56040, Tempo, 652387
1, 56160, Tempo, 679271
1, 56400, Tempo, 648719
1, 56520, Tempo, 656096
1, 56640, Tempo, 679271
1, 56880, Tempo, 663717
1, 57000, Tempo, 691643
1, 57120, Tempo, 659848
1, 57360, Tempo, 691483
1, 57480, Tempo, 721674
1, 57600, Tempo, 702083
1, 57720, Tempo, 719683
1, 57840, Tempo, 767951
1, 58080, Tempo, 782881
1, 58320, Tempo, 702083
1, 58440, Tempo, 738280
1, 58560, Tempo, 689338
1, 58800, Tempo, 628733
1, 58920, Tempo, 650195
1, 59040, Tempo, 669195
1, 59280, Tempo, 618557
1, 59400, Tempo, 650195
1, 59520, Tempo, 681122
1, 59760, Tempo, 611933
1, 59880, Tempo, 650195
1, 60000, Tempo, 704143
1, 60220, Tempo, 639318
1, 60240, Tempo, 653880
1, 60360, Tempo, 677124
1, 60480, Tempo, 689338
1, 60720, Tempo, 611933
1, 60840, Tempo, 669195
1, 60960, Tempo, 657606
1, 61200, Tempo, 639318
1, 61320, Tempo, 685244
1, 61440, Tempo, 823271
1, 61680, Tempo, 1012658
1, 61800, Tempo, 1167770
1, 61920, Tempo, 2043597
1, 62160, Tempo, 661521
1, 62400, Tempo, 685244
1, 62640, Tempo, 657606
1, 62880, Tempo, 685244
1, 63120, Tempo, 653880
1, 63360, Tempo, 685244
1, 63600, Tempo, 653880
1, 63840, Tempo, 673174
1, 64080, Tempo, 715222
1, 64320, Tempo, 752823
1, 64560, Tempo, 841515
1, 64680, Tempo, 841515
1, 64780, Tempo, 853971
1, 64800, Tempo, 930377
1, 65040, Tempo, 1144383
1, 65160, Tempo, 1612037
1, 65280, Tempo, 894055
1, 66240, Key_signature, 0, "major"
1, 66240, Tempo, 733496
1, 66960, Tempo, 747943
1, 67200, Tempo, 762873
1, 67440, Tempo, 894055
1, 67868, Tempo, 625261
1, 67944, Tempo, 621891
1, 68019, Tempo, 618557
1, 68095, Tempo, 615195
1, 68146, Tempo, 611933
1, 68222, Tempo, 608704
1, 68297, Tempo, 605449
1, 68373, Tempo, 602289
1, 68424, Tempo, 599101
1, 68499, Tempo, 595948
1, 68575, Tempo, 592885
1, 68626, Tempo, 589855
1, 68640, Tempo, 724200
1, 68880, Tempo, 747943
1, 69120, Tempo, 706381
1, 69840, Tempo, 894055
1, 70080, Tempo, 733496
1, 70800, Tempo, 715222
1, 71040, Tempo, 733496
1, 71280, Tempo, 894055
1, 71740, Tempo, 693481
1, 71760, Tempo, 715222
1, 71809, Tempo, 635728
1, 71859, Tempo, 632244
1, 71910, Tempo, 628733
1, 71960, Tempo, 625261
1, 72011, Tempo, 621891
1, 72062, Tempo, 618557
1, 72112, Tempo, 615195
1, 72163, Tempo, 611933
1, 72213, Tempo, 608704
1, 72264, Tempo, 605449
1, 72314, Tempo, 602289
1, 72365, Tempo, 599101
1, 72415, Tempo, 595948
1, 72466, Tempo, 592885
1, 72480, Tempo, 697756
1, 72720, Tempo, 719683
1, 72960, Tempo, 706381
1, 73920, Tempo, 677124
1, 74160, Tempo, 635728
1, 74400, Tempo, 685244
1, 74640, Tempo, 639318
1, 74880, Tempo, 657606
1, 75120, Tempo, 635728
1, 75360, Tempo, 681122
1, 75600, Tempo, 702083
1, 75840, Tempo, 685244
1, 76080, Tempo, 653880
1, 76320, Tempo, 715222
1, 76560, Tempo, 611933
1, 76800, Tempo, 657606
1, 77040, Tempo, 635728
1, 77280, Tempo, 681122
1, 77520, Tempo, 724375
1, 77760, Tempo, 692601
1, 78000, Tempo, 653880
1, 78120, Tempo, 737101
1, 78240, Tempo, 708132
1, 78480, Tempo, 702083
1, 78720, Tempo, 685244
1, 78960, Tempo, 639318
1, 79200, Tempo, 673174
1, 79440, Tempo, 639318
1, 79680, Tempo, 677124
1, 79920, Tempo, 642880
1, 80040, Tempo, 665336
1, 80100, Tempo, 681122
1, 80160, Tempo, 697756
1, 80400, Tempo, 646482
1, 80640, Tempo, 673174
1, 80880, Tempo, 642880
1, 81120, Tempo, 789266
1, 81360, Tempo, 969775
1, 81600, Tempo, 733496
1, 82320, Tempo, 715222
1, 82560, Tempo, 673174
1, 82800, Tempo, 894055
1, 83244, Tempo, 641574
1, 83319, Tempo, 638298
1, 83370, Tempo, 635122
1, 83446, Tempo, 631912
1, 83496, Tempo, 628799
1, 83572, Tempo, 625652
1, 83623, Tempo, 622536
1, 83673, Tempo, 619515
1, 83749, Tempo, 616459
1, 83799, Tempo, 613497
1, 83875, Tempo, 610501
1, 83926, Tempo, 607595
1, 83976, Tempo, 604656
1, 83980, Tempo, 661521
1, 84000, Tempo, 665336
1, 84240, Tempo, 693481
1, 84480, Tempo, 677124
1, 85200, Tempo, 894055
1, 85440, Tempo, 733496
1, 86160, Tempo, 778513
1, 86400, Tempo, 757863
1, 86640, Tempo, 894055
1, 87100, Tempo, 693481
1, 87104, Tempo, 639318
1, 87180, Tempo, 635728
1, 87231, Tempo, 632244
1, 87306, Tempo, 628733
1, 87357, Tempo, 625261
1, 87433, Tempo, 621891
1, 87483, Tempo, 618557
1, 87559, Tempo, 615195
1, 87610, Tempo, 611933
1, 87685, Tempo, 608704
1, 87736, Tempo, 605449
1, 87786, Tempo, 602289
1, 87820, Tempo, 661521
1, 87840, Tempo, 697756
1, 88080, Tempo, 719683
1, 88320, Tempo, 706381
1, 88800, Tempo, 689338
1, 89280, Tempo, 677124
1, 89520, Tempo, 635728
1, 89760, Tempo, 685244
1, 90000, Tempo, 628733
1, 90240, Tempo, 657606
1, 90480, Tempo, 635728
1, 90720, Tempo, 681122
1, 90960, Tempo, 702083
1, 91200, Tempo, 685244
1, 91440, Tempo, 653880
1, 91680, Tempo, 715222
1, 91920, Tempo, 611933
1, 92160, Tempo, 657606
1, 92400, Tempo, 615195
1, 92640, Tempo, 642880
1, 92880, Tempo, 669195
1, 93120, Tempo, 685244
1, 93360, Tempo, 646482
1, 93600, Tempo, 661521
1, 93840, Tempo, 625261
1, 94080, Tempo, 657606
1, 94320, Tempo, 621891
1, 94560, Tempo, 646482
1, 94780, Tempo, 618557
1, 95040, Tempo, 646482
1, 95280, Tempo, 615195
1, 95520, Tempo, 642880
1, 95760, Tempo, 602289
1, 96000, Tempo, 639318
1, 96220, Tempo, 618557
1, 96240, Tempo, 618557
1, 96480, Tempo, 639318
1, 96720, Tempo, 620989
1, 96960, Tempo, 677660
1, 97180, Tempo, 618557
1, 97200, Tempo, 625261
1, 97440, Tempo, 657606
1, 97680, Tempo, 611933
1, 97920, Tempo, 646482
1, 98140, Tempo, 618557
1, 98160, Tempo, 632244
1, 98400, Tempo, 681354
1, 98640, Tempo, 615195
1, 98880, Tempo, 646482
1, 99120, Tempo, 602289
1, 99360, Tempo, 625261
1, 99600, Tempo, 599101
1, 99840, Tempo, 625261
1, 100080, Tempo, 608704
1, 100320, Tempo, 635728
1, 100560, Tempo, 605449
1, 100800, Tempo, 653880
1, 101040, Tempo, 661521
1, 101280, Tempo, 639318
1, 101520, Tempo, 650195
1, 101760, Tempo, 646482
1, 101980, Tempo, 618557
1, 102000, Tempo, 615195
1, 102240, Tempo, 542299
1, 102340, Tempo, 544910
1, 102440, Tempo, 547495
1, 102540, Tempo, 550105
1, 102640, Tempo, 552843
1, 102720, Tempo, 555504
1, 102960, Tempo, 537249
1, 103080, Tempo, 539763
1, 103200, Tempo, 542299
1, 103320, Tempo, 544910
1, 103440, Tempo, 547495
1, 103560, Tempo, 550105
1, 103660, Tempo, 552843
1, 103680, Tempo, 555504
1, 103920, Tempo, 534712
1, 104100, Tempo, 537249
1, 104280, Tempo, 539763
1, 104460, Tempo, 542299
1, 104620, Tempo, 544910
1, 104640, Tempo, 550105
1, 104880, Tempo, 529801
1, 104980, Tempo, 532245
1, 105060, Tempo, 534712
1, 105160, Tempo, 537249
1, 105240, Tempo, 539763
1, 105320, Tempo, 542299
1, 105420, Tempo, 544910
1, 105500, Tempo, 547495
1, 105580, Tempo, 550105
1, 105840, Tempo, 520111
1, 105860, Tempo, 544910
1, 105900, Tempo, 542299
1, 105920, Tempo, 539763
1, 105960, Tempo, 537249
1, 105980, Tempo, 534712
1, 106020, Tempo, 532245
1, 106040, Tempo, 529801
1, 106060, Tempo, 527287
1, 106100, Tempo, 524888
1, 106120, Tempo, 522512
1, 106160, Tempo, 520111
1, 106180, Tempo, 517777
1, 106200, Tempo, 515464
1, 106240, Tempo, 513128
1, 106260, Tempo, 510856
1, 106300, Tempo, 508604
1, 106320, Tempo, 506286
1, 106360, Tempo, 504075
1, 106380, Tempo, 501882
1, 106400, Tempo, 499667
1, 106440, Tempo, 497512
1, 106460, Tempo, 495376
1, 106500, Tempo, 493218
1, 106520, Tempo, 491119
1, 106540, Tempo, 488998
1, 106560, Tempo, 961693
1, 107280, Tempo, 519660
1, 107520, Key_signature, 4, "major"
1, 107520, Tempo, 488998
1, 107880, Tempo, 501882
1, 108000, Tempo, 488998
1, 108360, Tempo, 504075
1, 108480, Tempo, 488998
1, 108840, Tempo, 499667
1, 108960, Tempo, 491119
1, 109200, Tempo, 482820
1, 109320, Tempo, 493218
1, 109440, Tempo, 493218
1, 109680, Tempo, 484848
1, 109800, Tempo, 499667
1, 109920, Tempo, 499667
1, 110160, Tempo, 488998
1, 110280, Tempo, 508604
1, 110400, Tempo, 495376
1, 110640, Tempo, 486934
1, 110760, Tempo, 499667
1, 110880, Tempo, 565291
1, 111000, Tempo, 470884
1, 111120, Tempo, 484848
1, 111360, Tempo, 478774
1, 111720, Tempo, 488998
1, 111840, Tempo, 478774
1, 112200, Tempo, 486934
1, 112320, Tempo, 476796
1, 112680, Tempo, 495376
1, 112800, Tempo, 486934
1, 113160, Tempo, 497512
1, 113280, Tempo, 486934
1, 113520, Tempo, 497512
1, 113640, Tempo, 513128
1, 113760, Tempo, 495376
1, 114000, Tempo, 506286
1, 114120, Tempo, 520111
1, 114240, Tempo, 513128
1, 114360, Tempo, 498380
1, 114480, Tempo, 530786
1, 114600, Tempo, 562008
1, 114720, Tempo, 543331
1, 114960, Tempo, 475248
1, 115080, Tempo, 506971
1, 115200, Tempo, 494927
1, 115440, Tempo, 467035
1, 115560, Tempo, 482820
1, 115680, Tempo, 489197
1, 115920, Tempo, 465152
1, 116040, Tempo, 482820
1, 116160, Tempo, 497925
1, 116400, Tempo, 465152
1, 116520, Tempo, 486934
1, 116640, Tempo, 497925
1, 116860, Tempo, 467253
1, 116880, Tempo, 480808
1, 117000, Tempo, 494927
1, 117120, Tempo, 503905
1, 117360, Tempo, 476796
1, 117480, Tempo, 504075
1, 117600, Tempo, 491119
1, 117840, Tempo, 478774
1, 117960, Tempo, 500835
1, 118080, Tempo, 724200
1, 118320, Tempo, 986518
1, 118440, Tempo, 1155847
1, 118560, Tempo, 1494396
1, 118800, Tempo, 478774
1, 119040, Tempo, 472851
1, 119400, Tempo, 484848
1, 119520, Tempo, 472851
1, 119880, Tempo, 482820
1, 120000, Tempo, 472851
1, 120360, Tempo, 495376
1, 120480, Tempo, 486934
1, 120840, Tempo, 497512
1, 120960, Tempo, 504075
1, 121200, Tempo, 497512
1, 121320, Tempo, 513128
1, 121440, Tempo, 501882
1, 121680, Tempo, 506286
1, 121800, Tempo, 520111
1, 121920, Tempo, 527287
1, 122400, Tempo, 510856
1, 122620, Tempo, 534712
1, 122640, Tempo, 532245
1, 122760, Tempo, 544910
1, 122880, Tempo, 605449
1, 123360, Tempo, 747943
1, 123600, Tempo, 937940
1, 123720, Tempo, 1111111
1, 123840, Tempo, 1378993
1, 124200, Tempo, 470884
1, 124320, Tempo, 2336449
1, 125210, Tempo, 2336449
1, 125210, End_track
2, 0, Start_track
2, 0, Title_t, "Piano right"
2, 0, Program_c, 0, 0
2, 0, Control_c, 0, 7, 100
2, 0, Control_c, 0, 10, 64
2, 0, Control_c, 0, 91, 127
2, 0, Text_t, "bdca426d104a26ac9dcb070447587523"
2, 719, Control_c, 0, 91, 127
2, 720, Note_on_c, 0, 80, 39
2, 720, Note_on_c, 0, 83, 44
2, 838, Note_on_c, 0, 83, 0
2, 838, Note_on_c, 0, 80, 0
2, 840, Note_on_c, 0, 81, 41
2, 840, Note_on_c, 0, 78, 36
2, 958, Note_on_c, 0, 78, 0
2, 958, Note_on_c, 0, 81, 0
2, 960, Note_on_c, 0, 76, 42
2, 960, Note_on_c, 0, 80, 46
2, 1180, Note_on_c, 0, 80, 0
2, 1180, Note_on_c, 0, 76, 0
2, 1200, Note_on_c, 0, 80, 37
2, 1200, Note_on_c, 0, 76, 34
2, 1318, Note_on_c, 0, 76, 0
2, 1318, Note_on_c, 0, 80, 0
2, 1320, Note_on_c, 0, 71, 32
2, 1320, Note_on_c, 0, 78, 36
2, 1438, Note_on_c, 0, 78, 0
2, 1438, Note_on_c, 0, 71, 0
2, 1440, Note_on_c, 0, 68, 35
2, 1440, Note_on_c, 0, 76, 40
2, 1660, Note_on_c, 0, 76, 0
2, 1660, Note_on_c, 0, 68, 0
2, 1680, Note_on_c, 0, 83, 43
2, 1680, Note_on_c, 0, 80, 37
2, 1798, Note_on_c, 0, 80, 0
2, 1798, Note_on_c, 0, 83, 0
2, 1800, Note_on_c, 0, 78, 35
2, 1800, Note_on_c, 0, 81, 40
2, 1918, Note_on_c, 0, 81, 0
2, 1918, Note_on_c, 0, 78, 0
2, 1920, Note_on_c, 0, 76, 40
2, 1920, Note_on_c, 0, 80, 45
2, 2140, Note_on_c, 0, 80, 0
2, 2140, Note_on_c, 0, 76, 0
2, 2160, Note_on_c, 0, 80, 37
2, 2160, Note_on_c, 0, 76, 34
2, 2278, Note_on_c, 0, 76, 0
2, 2278, Note_on_c, 0, 80, 0
2, 2280, Note_on_c, 0, 71, 32
2, 2280, Note_on_c, 0, 78, 36
2, 2398, Note_on_c, 0, 78, 0
2, 2398, Note_on_c, 0, 71, 0
2, 2400, Note_on_c, 0, 76, 42
2, 2400, Note_on_c, 0, 68, 36
2, 2620, Note_on_c, 0, 68, 0
2, 2620, Note_on_c, 0, 76, 0
2, 2640, Note_on_c, 0, 76, 42
2, 2640, Note_on_c, 0, 68, 36
2, 2758, Note_on_c, 0, 68, 0
2, 2758, Note_on_c, 0, 76, 0
2, 2760, Note_on_c, 0, 71, 34
2, 2760, Note_on_c, 0, 78, 37
2, 2878, Note_on_c, 0, 78, 0
2, 2878, Note_on_c, 0, 71, 0
2, 2880, Note_on_c, 0, 80, 45
2, 2880, Note_on_c, 0, 76, 40
2, 3100, Note_on_c, 0, 76, 0
2, 3100, Note_on_c, 0, 80, 0
2, 3120, Note_on_c, 0, 71, 39
2, 3120, Note_on_c, 0, 78, 44
2, 3238, Note_on_c, 0, 78, 0
2, 3238, Note_on_c, 0, 71, 0
2, 3240, Note_on_c, 0, 76, 35
2, 3240, Note_on_c, 0, 80, 40
2, 3358, Note_on_c, 0, 80, 0
2, 3358, Note_on_c, 0, 76, 0
2, 3360, Note_on_c, 0, 78, 47
2, 3360, Note_on_c, 0, 81, 47
2, 3580, Note_on_c, 0, 81, 0
2, 3580, Note_on_c, 0, 78, 0
2, 3600, Note_on_c, 0, 71, 40
2, 3600, Note_on_c, 0, 78, 45
2, 3718, Note_on_c, 0, 78, 0
2, 3718, Note_on_c, 0, 71, 0
2, 3720, Note_on_c, 0, 78, 37
2, 3720, Note_on_c, 0, 81, 43
2, 3838, Note_on_c, 0, 81, 0
2, 3838, Note_on_c, 0, 78, 0
2, 3840, Note_on_c, 0, 83, 50
2, 3840, Note_on_c, 0, 80, 44
2, 4060, Note_on_c, 0, 80, 0
2, 4060, Note_on_c, 0, 83, 0
2, 4080, Note_on_c, 0, 78, 35
2, 4080, Note_on_c, 0, 81, 39
2, 4198, Note_on_c, 0, 81, 0
2, 4198, Note_on_c, 0, 78, 0
2, 4200, Note_on_c, 0, 80, 36
2, 4200, Note_on_c, 0, 76, 33
2, 4318, Note_on_c, 0, 76, 0
2, 4318, Note_on_c, 0, 80, 0
2, 4320, Note_on_c, 0, 71, 39
2, 4320, Note_on_c, 0, 78, 44
2, 4540, Note_on_c, 0, 78, 0
2, 4540, Note_on_c, 0, 71, 0
2, 4560, Note_on_c, 0, 83, 44
2, 4560, Note_on_c, 0, 80, 39
2, 4678, Note_on_c, 0, 80, 0
2, 4678, Note_on_c, 0, 83, 0
2, 4680, Note_on_c, 0, 78, 36
2, 4680, Note_on_c, 0, 81, 41
2, 4798, Note_on_c, 0, 81, 0
2, 4798, Note_on_c, 0, 78, 0
2, 4800, Note_on_c, 0, 80, 49
2, 4800, Note_on_c, 0, 76, 44
2, 5020, Note_on_c, 0, 76, 0
2, 5020, Note_on_c, 0, 80, 0
2, 5040, Note_on_c, 0, 76, 35
2, 5040, Note_on_c, 0, 80, 40
2, 5158, Note_on_c, 0, 80, 0
2, 5158, Note_on_c, 0, 76, 0
2, 5160, Note_on_c, 0, 78, 36
2, 5160, Note_on_c, 0, 71, 33
2, 5278, Note_on_c, 0, 71, 0
2, 5278, Note_on_c, 0, 78, 0
2, 5280, Note_on_c, 0, 76, 44
2, 5280, Note_on_c, 0, 68, 39
2, 5500, Note_on_c, 0, 68, 0
2, 5500, Note_on_c, 0, 76, 0
2, 5520, Note_on_c, 0, 80, 43
2, 5520, Note_on_c, 0, 83, 47
2, 5638, Note_on_c, 0, 83, 0
2, 5638, Note_on_c, 0, 80, 0
2, 5640, Note_on_c, 0, 81, 44
2, 5640, Note_on_c, 0, 78, 39
2, 5758, Note_on_c, 0, 78, 0
2, 5758, Note_on_c, 0, 81, 0
2, 5760, Note_on_c, 0, 76, 46
2, 5760, Note_on_c, 0, 80, 53
2, 5980, Note_on_c, 0, 80, 0
2, 5980, Note_on_c, 0, 76, 0
2, 6000, Note_on_c, 0, 76, 35
2, 6000, Note_on_c, 0, 80, 39
2, 6118, Note_on_c, 0, 80, 0
2, 6118, Note_on_c, 0, 76, 0
2, 6120, Note_on_c, 0, 71, 32
2, 6120, Note_on_c, 0, 78, 36
2, 6238, Note_on_c, 0, 78, 0
2, 6238, Note_on_c, 0, 71, 0
2, 6240, Note_on_c, 0, 68, 44
2, 6240, Note_on_c, 0, 76, 44
2, 6460, Note_on_c, 0, 76, 0
2, 6460, Note_on_c, 0, 68, 0
2, 6480, Note_on_c, 0, 68, 40
2, 6480, Note_on_c, 0, 76, 45
2, 6598, Note_on_c, 0, 76, 0
2, 6598, Note_on_c, 0, 68, 0
2, 6600, Note_on_c, 0, 78, 41
2, 6600, Note_on_c, 0, 71, 36
2, 6718, Note_on_c, 0, 71, 0
2, 6718, Note_on_c, 0, 78, 0
2, 6720, Note_on_c, 0, 76, 39
2, 6720, Note_on_c, 0, 80, 44
2, 6940, Note_on_c, 0, 80, 0
2, 6940, Note_on_c, 0, 76, 0
2, 6960, Note_on_c, 0, 81, 39
2, 6960, Note_on_c, 0, 78, 35
2, 7078, Note_on_c, 0, 78, 0
2, 7078, Note_on_c, 0, 81, 0
2, 7080, Note_on_c, 0, 80, 35
2, 7080, Note_on_c, 0, 76, 31
2, 7198, Note_on_c, 0, 76, 0
2, 7198, Note_on_c, 0, 80, 0
2, 7200, Note_on_c, 0, 71, 33
2, 7200, Note_on_c, 0, 78, 36
2, 7420, Note_on_c, 0, 78, 0
2, 7420, Note_on_c, 0, 71, 0
2, 7440, Note_on_c, 0, 80, 36
2, 7440, Note_on_c, 0, 76, 32
2, 7558, Note_on_c, 0, 76, 0
2, 7558, Note_on_c, 0, 80, 0
2, 7560, Note_on_c, 0, 71, 27
2, 7560, Note_on_c, 0, 78, 32
2, 7678, Note_on_c, 0, 78, 0
2, 7678, Note_on_c, 0, 71, 0
2, 7680, Note_on_c, 0, 68, 30
2, 7680, Note_on_c, 0, 76, 34
2, 8160, Note_on_c, 0, 76, 0
2, 8160, Note_on_c, 0, 68, 0
2, 8400, Note_on_c, 0, 56, 60
2, 8400, Note_on_c, 0, 64, 66
2, 8458, Note_on_c, 0, 64, 0
2, 8458, Note_on_c, 0, 56, 0
2, 8520, Note_on_c, 0, 64, 56
2, 8520, Note_on_c, 0, 68, 63
2, 8578, Note_on_c, 0, 68, 0
2, 8578, Note_on_c, 0, 64, 0
2, 8640, Note_on_c, 0, 59, 65
2, 8640, Note_on_c, 0, 66, 73
2, 8860, Note_on_c, 0, 66, 0
2, 8860, Note_on_c, 0, 59, 0
2, 8880, Note_on_c, 0, 64, 60
2, 8880, Note_on_c, 0, 68, 66
2, 8938, Note_on_c, 0, 68, 0
2, 8938, Note_on_c, 0, 64, 0
2, 9000, Note_on_c, 0, 69, 63
2, 9000, Note_on_c, 0, 66, 56
2, 9058, Note_on_c, 0, 66, 0
2, 9058, Note_on_c, 0, 69, 0
2, 9120, Note_on_c, 0, 68, 63
2, 9120, Note_on_c, 0, 71, 72
2, 9340, Note_on_c, 0, 71, 0
2, 9340, Note_on_c, 0, 68, 0
2, 9360, Note_on_c, 0, 73, 65
2, 9360, Note_on_c, 0, 69, 59
2, 9418, Note_on_c, 0, 69, 0
2, 9418, Note_on_c, 0, 73, 0
2, 9480, Note_on_c, 0, 71, 63
2, 9480, Note_on_c, 0, 68, 55
2, 9538, Note_on_c, 0, 68, 0
2, 9538, Note_on_c, 0, 71, 0
2, 9600, Note_on_c, 0, 66, 63
2, 9600, Note_on_c, 0, 69, 71
2, 9820, Note_on_c, 0, 69, 0
2, 9820, Note_on_c, 0, 66, 0
2, 9840, Note_on_c, 0, 68, 71
2, 9840, Note_on_c, 0, 64, 63
2, 9898, Note_on_c, 0, 64, 0
2, 9898, Note_on_c, 0, 68, 0
2, 9960, Note_on_c, 0, 66, 60
2, 9960, Note_on_c, 0, 69, 66
2, 10018, Note_on_c, 0, 69, 0
2, 10018, Note_on_c, 0, 66, 0
2, 10080, Note_on_c, 0, 59, 66
2, 10080, Note_on_c, 0, 66, 74
2, 10300, Note_on_c, 0, 66, 0
2, 10300, Note_on_c, 0, 59, 0
2, 10320, Note_on_c, 0, 56, 60
2, 10320, Note_on_c, 0, 64, 66
2, 10378, Note_on_c, 0, 64, 0
2, 10378, Note_on_c, 0, 56, 0
2, 10440, Note_on_c, 0, 64, 57
2, 10440, Note_on_c, 0, 68, 64
2, 10498, Note_on_c, 0, 68, 0
2, 10498, Note_on_c, 0, 64, 0
2, 10560, Note_on_c, 0, 59, 65
2, 10560, Note_on_c, 0, 66, 73
2, 10780, Note_on_c, 0, 66, 0
2, 10780, Note_on_c, 0, 59, 0
2, 10800, Note_on_c, 0, 68, 66
2, 10800, Note_on_c, 0, 64, 60
2, 10858, Note_on_c, 0, 64, 0
2, 10858, Note_on_c, 0, 68, 0
2, 10920, Note_on_c, 0, 66, 56
2, 10920, Note_on_c, 0, 69, 63
2, 10978, Note_on_c, 0, 69, 0
2, 10978, Note_on_c, 0, 66, 0
2, 11040, Note_on_c, 0, 71, 72
2, 11040, Note_on_c, 0, 68, 63
2, 11260, Note_on_c, 0, 68, 0
2, 11260, Note_on_c, 0, 71, 0
2, 11280, Note_on_c, 0, 73, 65
2, 11280, Note_on_c, 0, 69, 59
2, 11338, Note_on_c, 0, 69, 0
2, 11338, Note_on_c, 0, 73, 0
2, 11400, Note_on_c, 0, 68, 56
2, 11400, Note_on_c, 0, 71, 63
2, 11458, Note_on_c, 0, 71, 0
2, 11458, Note_on_c, 0, 68, 0
2, 11520, Note_on_c, 0, 69, 69
2, 11520, Note_on_c, 0, 66, 62
2, 11740, Note_on_c, 0, 66, 0
2, 11740, Note_on_c, 0, 69, 0
2, 11760, Note_on_c, 0, 64, 63
2, 11760, Note_on_c, 0, 68, 71
2, 11818, Note_on_c, 0, 68, 0
2, 11818, Note_on_c, 0, 64, 0
2, 11880, Note_on_c, 0, 66, 60
2, 11880, Note_on_c, 0, 69, 66
2, 11938, Note_on_c, 0, 69, 0
2, 11938, Note_on_c, 0, 66, 0
2, 12000, Note_on_c, 0, 59, 60
2, 12000, Note_on_c, 0, 66, 66
2, 12180, Note_on_c, 0, 66, 0
2, 12180, Note_on_c, 0, 59, 0
2, 12240, Note_on_c, 0, 83, 47
2, 12240, Note_on_c, 0, 80, 43
2, 12358, Note_on_c, 0, 80, 0
2, 12358, Note_on_c, 0, 83, 0
2, 12360, Note_on_c, 0, 78, 41
2, 12360, Note_on_c, 0, 81, 45
2, 12478, Note_on_c, 0, 81, 0
2, 12478, Note_on_c, 0, 78, 0
2, 12480, Note_on_c, 0, 80, 53
2, 12480, Note_on_c, 0, 76, 46
2, 12700, Note_on_c, 0, 76, 0
2, 12700, Note_on_c, 0, 80, 0
2, 12720, Note_on_c, 0, 76, 35
2, 12720, Note_on_c, 0, 80, 39
2, 12838, Note_on_c, 0, 80, 0
2, 12838, Note_on_c, 0, 76, 0
2, 12840, Note_on_c, 0, 71, 33
2, 12840, Note_on_c, 0, 78, 36
2, 12958, Note_on_c, 0, 78, 0
2, 12958, Note_on_c, 0, 71, 0
2, 12960, Note_on_c, 0, 68, 39
2, 12960, Note_on_c, 0, 76, 44
2, 13180, Note_on_c, 0, 76, 0
2, 13180, Note_on_c, 0, 68, 0
2, 13200, Note_on_c, 0, 68, 60
2, 13200, Note_on_c, 0, 71, 66
2, 13258, Note_on_c, 0, 71, 0
2, 13258, Note_on_c, 0, 68, 0
2, 13320, Note_on_c, 0, 66, 54
2, 13320, Note_on_c, 0, 69, 62
2, 13378, Note_on_c, 0, 69, 0
2, 13378, Note_on_c, 0, 66, 0
2, 13440, Note_on_c, 0, 68, 72
2, 13440, Note_on_c, 0, 64, 64
2, 13660, Note_on_c, 0, 64, 0
2, 13660, Note_on_c, 0, 68, 0
2, 13680, Note_on_c, 0, 64, 59
2, 13680, Note_on_c, 0, 68, 65
2, 13738, Note_on_c, 0, 68, 0
2, 13738, Note_on_c, 0, 64, 0
2, 13800, Note_on_c, 0, 66, 62
2, 13800, Note_on_c, 0, 59, 54
2, 13858, Note_on_c, 0, 59, 0
2, 13858, Note_on_c, 0, 66, 0
2, 13920, Note_on_c, 0, 64, 72
2, 13920, Note_on_c, 0, 56, 63
2, 14100, Note_on_c, 0, 56, 0
2, 14100, Note_on_c, 0, 64, 0
2, 14160, Note_on_c, 0, 68, 40
2, 14160, Note_on_c, 0, 76, 45
2, 14278, Note_on_c, 0, 76, 0
2, 14278, Note_on_c, 0, 68, 0
2, 14280, Note_on_c, 0, 78, 41
2, 14280, Note_on_c, 0, 71, 36
2, 14398, Note_on_c, 0, 71, 0
2, 14398, Note_on_c, 0, 78, 0
2, 14400, Note_on_c, 0, 76, 39
2, 14400, Note_on_c, 0, 80, 44
2, 14620, Note_on_c, 0, 80, 0
2, 14620, Note_on_c, 0, 76, 0
2, 14640, Note_on_c, 0, 78, 35
2, 14640, Note_on_c, 0, 81, 39
2, 14758, Note_on_c, 0, 81, 0
2, 14758, Note_on_c, 0, 78, 0
2, 14760, Note_on_c, 0, 76, 31
2, 14760, Note_on_c, 0, 80, 35
2, 14878, Note_on_c, 0, 80, 0
2, 14878, Note_on_c, 0, 76, 0
2, 14880, Note_on_c, 0, 71, 33
2, 14880, Note_on_c, 0, 78, 36
2, 15100, Note_on_c, 0, 78, 0
2, 15100, Note_on_c, 0, 71, 0
2, 15120, Note_on_c, 0, 76, 32
2, 15120, Note_on_c, 0, 80, 36
2, 15238, Note_on_c, 0, 80, 0
2, 15238, Note_on_c, 0, 76, 0
2, 15240, Note_on_c, 0, 78, 32
2, 15240, Note_on_c, 0, 71, 27
2, 15358, Note_on_c, 0, 71, 0
2, 15358, Note_on_c, 0, 78, 0
2, 15360, Note_on_c, 0, 68, 30
2, 15360, Note_on_c, 0, 76, 34
2, 15840, Note_on_c, 0, 76, 0
2, 15840, Note_on_c, 0, 68, 0
2, 16079, Control_c, 0, 91, 127
2, 16080, Note_on_c, 0, 92, 37
2, 16080, Note_on_c, 0, 95, 43
2, 16198, Note_on_c, 0, 95, 0
2, 16198, Note_on_c, 0, 92, 0
2, 16200, Note_on_c, 0, 90, 35
2, 16200, Note_on_c, 0, 93, 39
2, 16318, Note_on_c, 0, 93, 0
2, 16318, Note_on_c, 0, 90, 0
2, 16320, Note_on_c, 0, 92, 46
2, 16320, Note_on_c, 0, 88, 42
2, 16550, Note_on_c, 0, 88, 0
2, 16550, Note_on_c, 0, 92, 0
2, 16560, Note_on_c, 0, 88, 34
2, 16560, Note_on_c, 0, 92, 37
2, 16678, Note_on_c, 0, 92, 0
2, 16678, Note_on_c, 0, 88, 0
2, 16680, Note_on_c, 0, 90, 35
2, 16680, Note_on_c, 0, 83, 31
2, 16798, Note_on_c, 0, 83, 0
2, 16798, Note_on_c, 0, 90, 0
2, 16800, Note_on_c, 0, 80, 36
2, 16800, Note_on_c, 0, 88, 41
2, 17030, Note_on_c, 0, 88, 0
2, 17030, Note_on_c, 0, 80, 0
2, 17040, Note_on_c, 0, 83, 42
2, 17040, Note_on_c, 0, 80, 36
2, 17158, Note_on_c, 0, 80, 0
2, 17158, Note_on_c, 0, 83, 0
2, 17160, Note_on_c, 0, 78, 33
2, 17160, Note_on_c, 0, 81, 36
2, 17278, Note_on_c, 0, 81, 0
2, 17278, Note_on_c, 0, 78, 0
2, 17280, Note_on_c, 0, 76, 40
2, 17280, Note_on_c, 0, 80, 45
2, 17510, Note_on_c, 0, 80, 0
2, 17510, Note_on_c, 0, 76, 0
2, 17520, Note_on_c, 0, 76, 34
2, 17520, Note_on_c, 0, 80, 37
2, 17638, Note_on_c, 0, 80, 0
2, 17638, Note_on_c, 0, 76, 0
2, 17640, Note_on_c, 0, 78, 35
2, 17640, Note_on_c, 0, 71, 31
2, 17758, Note_on_c, 0, 71, 0
2, 17758, Note_on_c, 0, 78, 0
2, 17760, Note_on_c, 0, 68, 42
2, 17760, Note_on_c, 0, 76, 42
2, 17990, Note_on_c, 0, 76, 0
2, 17990, Note_on_c, 0, 68, 0
2, 18000, Note_on_c, 0, 76, 42
2, 18000, Note_on_c, 0, 68, 36
2, 18118, Note_on_c, 0, 68, 0
2, 18118, Note_on_c, 0, 76, 0
2, 18120, Note_on_c, 0, 78, 37
2, 18120, Note_on_c, 0, 71, 34
2, 18238, Note_on_c, 0, 71, 0
2, 18238, Note_on_c, 0, 78, 0
2, 18240, Note_on_c, 0, 76, 40
2, 18240, Note_on_c, 0, 80, 45
2, 18470, Note_on_c, 0, 80, 0
2, 18470, Note_on_c, 0, 76, 0
2, 18480, Note_on_c, 0, 78, 43
2, 18480, Note_on_c, 0, 71, 37
2, 18598, Note_on_c, 0, 71, 0
2, 18598, Note_on_c, 0, 78, 0
2, 18600, Note_on_c, 0, 76, 34
2, 18600, Note_on_c, 0, 80, 37
2, 18718, Note_on_c, 0, 80, 0
2, 18718, Note_on_c, 0, 76, 0
2, 18720, Note_on_c, 0, 78, 43
2, 18720, Note_on_c, 0, 81, 47
2, 18950, Note_on_c, 0, 81, 0
2, 18950, Note_on_c, 0, 78, 0
2, 18960, Note_on_c, 0, 71, 40
2, 18960, Note_on_c, 0, 78, 45
2, 19078, Note_on_c, 0, 78, 0
2, 19078, Note_on_c, 0, 71, 0
2, 19080, Note_on_c, 0, 78, 36
2, 19080, Note_on_c, 0, 81, 42
2, 19198, Note_on_c, 0, 81, 0
2, 19198, Note_on_c, 0, 78, 0
2, 19200, Note_on_c, 0, 80, 44
2, 19200, Note_on_c, 0, 83, 50
2, 19430, Note_on_c, 0, 83, 0
2, 19430, Note_on_c, 0, 80, 0
2, 19440, Note_on_c, 0, 81, 39
2, 19440, Note_on_c, 0, 78, 35
2, 19558, Note_on_c, 0, 78, 0
2, 19558, Note_on_c, 0, 81, 0
2, 19560, Note_on_c, 0, 76, 32
2, 19560, Note_on_c, 0, 80, 36
2, 19678, Note_on_c, 0, 80, 0
2, 19678, Note_on_c, 0, 76, 0
2, 19680, Note_on_c, 0, 78, 44
2, 19680, Note_on_c, 0, 71, 39
2, 19910, Note_on_c, 0, 71, 0
2, 19910, Note_on_c, 0, 78, 0
2, 19920, Note_on_c, 0, 92, 37
2, 19920, Note_on_c, 0, 95, 43
2, 20038, Note_on_c, 0, 95, 0
2, 20038, Note_on_c, 0, 92, 0
2, 20040, Note_on_c, 0, 90, 35
2, 20040, Note_on_c, 0, 93, 39
2, 20158, Note_on_c, 0, 93, 0
2, 20158, Note_on_c, 0, 90, 0
2, 20160, Note_on_c, 0, 88, 42
2, 20160, Note_on_c, 0, 92, 46
2, 20390, Note_on_c, 0, 92, 0
2, 20390, Note_on_c, 0, 88, 0
2, 20400, Note_on_c, 0, 92, 37
2, 20400, Note_on_c, 0, 88, 34
2, 20518, Note_on_c, 0, 88, 0
2, 20518, Note_on_c, 0, 92, 0
2, 20520, Note_on_c, 0, 83, 31
2, 20520, Note_on_c, 0, 90, 35
2, 20638, Note_on_c, 0, 90, 0
2, 20638, Note_on_c, 0, 83, 0
2, 20640, Note_on_c, 0, 88, 41
2, 20640, Note_on_c, 0, 80, 36
2, 20870, Note_on_c, 0, 80, 0
2, 20870, Note_on_c, 0, 88, 0
2, 20880, Note_on_c, 0, 80, 36
2, 20880, Note_on_c, 0, 83, 42
2, 20998, Note_on_c, 0, 83, 0
2, 20998, Note_on_c, 0, 80, 0
2, 21000, Note_on_c, 0, 78, 34
2, 21000, Note_on_c, 0, 81, 37
2, 21118, Note_on_c, 0, 81, 0
2, 21118, Note_on_c, 0, 78, 0
2, 21120, Note_on_c, 0, 80, 45
2, 21120, Note_on_c, 0, 76, 40
2, 21350, Note_on_c, 0, 76, 0
2, 21350, Note_on_c, 0, 80, 0
2, 21360, Note_on_c, 0, 76, 34
2, 21360, Note_on_c, 0, 80, 37
2, 21478, Note_on_c, 0, 80, 0
2, 21478, Note_on_c, 0, 76, 0
2, 21480, Note_on_c, 0, 71, 31
2, 21480, Note_on_c, 0, 78, 35
2, 21598, Note_on_c, 0, 78, 0
2, 21598, Note_on_c, 0, 71, 0
2, 21600, Note_on_c, 0, 68, 36
2, 21600, Note_on_c, 0, 76, 42
2, 21830, Note_on_c, 0, 76, 0
2, 21830, Note_on_c, 0, 68, 0
2, 21840, Note_on_c, 0, 68, 36
2, 21840, Note_on_c, 0, 76, 42
2, 21958, Note_on_c, 0, 76, 0
2, 21958, Note_on_c, 0, 68, 0
2, 21960, Note_on_c, 0, 71, 34
2, 21960, Note_on_c, 0, 78, 37
2, 22078, Note_on_c, 0, 78, 0
2, 22078, Note_on_c, 0, 71, 0
2, 22080, Note_on_c, 0, 80, 45
2, 22080, Note_on_c, 0, 76, 40
2, 22310, Note_on_c, 0, 76, 0
2, 22310, Note_on_c, 0, 80, 0
2, 22320, Note_on_c, 0, 78, 39
2, 22320, Note_on_c, 0, 81, 44
2, 22438, Note_on_c, 0, 81, 0
2, 22438, Note_on_c, 0, 78, 0
2, 22440, Note_on_c, 0, 80, 39
2, 22440, Note_on_c, 0, 76, 35
2, 22558, Note_on_c, 0, 76, 0
2, 22558, Note_on_c, 0, 80, 0
2, 22560, Note_on_c, 0, 78, 41
2, 22560, Note_on_c, 0, 71, 36
2, 22790, Note_on_c, 0, 71, 0
2, 22790, Note_on_c, 0, 78, 0
2, 22800, Note_on_c, 0, 76, 40
2, 22800, Note_on_c, 0, 80, 45
2, 22918, Note_on_c, 0, 80, 0
2, 22918, Note_on_c, 0, 76, 0
2, 22920, Note_on_c, 0, 78, 37
2, 22920, Note_on_c, 0, 71, 34
2, 23038, Note_on_c, 0, 71, 0
2, 23038, Note_on_c, 0, 78, 0
2, 23040, Note_on_c, 0, 68, 35
2, 23040, Note_on_c, 0, 76, 39
2, 23520, Note_on_c, 0, 76, 0
2, 23520, Note_on_c, 0, 68, 0
2, 23760, Note_on_c, 0, 56, 60
2, 23760, Note_on_c, 0, 64, 66
2, 23818, Note_on_c, 0, 64, 0
2, 23818, Note_on_c, 0, 56, 0
2, 23880, Note_on_c, 0, 64, 55
2, 23880, Note_on_c, 0, 68, 63
2, 23938, Note_on_c, 0, 68, 0
2, 23938, Note_on_c, 0, 64, 0
2, 24000, Note_on_c, 0, 59, 65
2, 24000, Note_on_c, 0, 66, 73
2, 24220, Note_on_c, 0, 66, 0
2, 24220, Note_on_c, 0, 59, 0
2, 24240, Note_on_c, 0, 64, 60
2, 24240, Note_on_c, 0, 68, 66
2, 24298, Note_on_c, 0, 68, 0
2, 24298, Note_on_c, 0, 64, 0
2, 24360, Note_on_c, 0, 66, 57
2, 24360, Note_on_c, 0, 69, 64
2, 24418, Note_on_c, 0, 69, 0
2, 24418, Note_on_c, 0, 66, 0
2, 24480, Note_on_c, 0, 71, 72
2, 24480, Note_on_c, 0, 68, 63
2, 24700, Note_on_c, 0, 68, 0
2, 24700, Note_on_c, 0, 71, 0
2, 24720, Note_on_c, 0, 69, 62
2, 24720, Note_on_c, 0, 73, 69
2, 24778, Note_on_c, 0, 73, 0
2, 24778, Note_on_c, 0, 69, 0
2, 24840, Note_on_c, 0, 71, 64
2, 24840, Note_on_c, 0, 68, 57
2, 24898, Note_on_c, 0, 68, 0
2, 24898, Note_on_c, 0, 71, 0
2, 24960, Note_on_c, 0, 69, 74
2, 24960, Note_on_c, 0, 66, 66
2, 25180, Note_on_c, 0, 66, 0
2, 25180, Note_on_c, 0, 69, 0
2, 25200, Note_on_c, 0, 64, 61
2, 25200, Note_on_c, 0, 68, 67
2, 25258, Note_on_c, 0, 68, 0
2, 25258, Note_on_c, 0, 64, 0
2, 25320, Note_on_c, 0, 69, 64
2, 25320, Note_on_c, 0, 66, 57
2, 25378, Note_on_c, 0, 66, 0
2, 25378, Note_on_c, 0, 69, 0
2, 25440, Note_on_c, 0, 59, 66
2, 25440, Note_on_c, 0, 66, 74
2, 25660, Note_on_c, 0, 66, 0
2, 25660, Note_on_c, 0, 59, 0
2, 25680, Note_on_c, 0, 56, 60
2, 25680, Note_on_c, 0, 64, 66
2, 25738, Note_on_c, 0, 64, 0
2, 25738, Note_on_c, 0, 56, 0
2, 25800, Note_on_c, 0, 64, 56
2, 25800, Note_on_c, 0, 68, 63
2, 25858, Note_on_c, 0, 68, 0
2, 25858, Note_on_c, 0, 64, 0
2, 25920, Note_on_c, 0, 59, 65
2, 25920, Note_on_c, 0, 66, 73
2, 26140, Note_on_c, 0, 66, 0
2, 26140, Note_on_c, 0, 59, 0
2, 26160, Note_on_c, 0, 64, 60
2, 26160, Note_on_c, 0, 68, 66
2, 26218, Note_on_c, 0, 68, 0
2, 26218, Note_on_c, 0, 64, 0
2, 26280, Note_on_c, 0, 69, 63
2, 26280, Note_on_c, 0, 66, 56
2, 26338, Note_on_c, 0, 66, 0
2, 26338, Note_on_c, 0, 69, 0
2, 26400, Note_on_c, 0, 68, 63
2, 26400, Note_on_c, 0, 71, 72
2, 26620, Note_on_c, 0, 71, 0
2, 26620, Note_on_c, 0, 68, 0
2, 26640, Note_on_c, 0, 73, 72
2, 26640, Note_on_c, 0, 69, 63
2, 26698, Note_on_c, 0, 69, 0
2, 26698, Note_on_c, 0, 73, 0
2, 26760, Note_on_c, 0, 71, 69
2, 26760, Note_on_c, 0, 68, 62
2, 26818, Note_on_c, 0, 68, 0
2, 26818, Note_on_c, 0, 71, 0
2, 26880, Note_on_c, 0, 66, 66
2, 26880, Note_on_c, 0, 69, 74
2, 27100, Note_on_c, 0, 69, 0
2, 27100, Note_on_c, 0, 66, 0
2, 27120, Note_on_c, 0, 68, 66
2, 27120, Note_on_c, 0, 64, 60
2, 27178, Note_on_c, 0, 64, 0
2, 27178, Note_on_c, 0, 68, 0
2, 27240, Note_on_c, 0, 66, 56
2, 27240, Note_on_c, 0, 69, 63
2, 27298, Note_on_c, 0, 69, 0
2, 27298, Note_on_c, 0, 66, 0
2, 27360, Note_on_c, 0, 59, 57
2, 27360, Note_on_c, 0, 66, 64
2, 27540, Note_on_c, 0, 66, 0
2, 27540, Note_on_c, 0, 59, 0
2, 27600, Note_on_c, 0, 92, 37
2, 27600, Note_on_c, 0, 95, 43
2, 27718, Note_on_c, 0, 95, 0
2, 27718, Note_on_c, 0, 92, 0
2, 27720, Note_on_c, 0, 93, 41
2, 27720, Note_on_c, 0, 90, 36
2, 27838, Note_on_c, 0, 90, 0
2, 27838, Note_on_c, 0, 93, 0
2, 27840, Note_on_c, 0, 88, 42
2, 27840, Note_on_c, 0, 92, 46
2, 28070, Note_on_c, 0, 92, 0
2, 28070, Note_on_c, 0, 88, 0
2, 28080, Note_on_c, 0, 92, 37
2, 28080, Note_on_c, 0, 88, 34
2, 28198, Note_on_c, 0, 88, 0
2, 28198, Note_on_c, 0, 92, 0
2, 28200, Note_on_c, 0, 83, 31
2, 28200, Note_on_c, 0, 90, 35
2, 28318, Note_on_c, 0, 90, 0
2, 28318, Note_on_c, 0, 83, 0
2, 28320, Note_on_c, 0, 80, 36
2, 28320, Note_on_c, 0, 88, 41
2, 28550, Note_on_c, 0, 88, 0
2, 28550, Note_on_c, 0, 80, 0
2, 28560, Note_on_c, 0, 83, 42
2, 28560, Note_on_c, 0, 80, 36
2, 28678, Note_on_c, 0, 80, 0
2, 28678, Note_on_c, 0, 83, 0
2, 28680, Note_on_c, 0, 78, 34
2, 28680, Note_on_c, 0, 81, 37
2, 28798, Note_on_c, 0, 81, 0
2, 28798, Note_on_c, 0, 78, 0
2, 28800, Note_on_c, 0, 76, 40
2, 28800, Note_on_c, 0, 80, 45
2, 29030, Note_on_c, 0, 80, 0
2, 29030, Note_on_c, 0, 76, 0
2, 29040, Note_on_c, 0, 80, 37
2, 29040, Note_on_c, 0, 76, 34
2, 29158, Note_on_c, 0, 76, 0
2, 29158, Note_on_c, 0, 80, 0
2, 29160, Note_on_c, 0, 71, 32
2, 29160, Note_on_c, 0, 78, 36
2, 29278, Note_on_c, 0, 78, 0
2, 29278, Note_on_c, 0, 71, 0
2, 29280, Note_on_c, 0, 76, 42
2, 29280, Note_on_c, 0, 68, 36
2, 29510, Note_on_c, 0, 68, 0
2, 29510, Note_on_c, 0, 76, 0
2, 29520, Note_on_c, 0, 64, 42
2, 29520, Note_on_c, 0, 56, 36
2, 29578, Note_on_c, 0, 56, 0
2, 29578, Note_on_c, 0, 64, 0
2, 29640, Note_on_c, 0, 59, 33
2, 29640, Note_on_c, 0, 66, 36
2, 29698, Note_on_c, 0, 66, 0
2, 29698, Note_on_c, 0, 59, 0
2, 29760, Note_on_c, 0, 68, 45
2, 29760, Note_on_c, 0, 64, 40
2, 29990, Note_on_c, 0, 64, 0
2, 29990, Note_on_c, 0, 68, 0
2, 30000, Note_on_c, 0, 66, 36
2, 30000, Note_on_c, 0, 69, 42
2, 30058, Note_on_c, 0, 69, 0
2, 30058, Note_on_c, 0, 66, 0
2, 30120, Note_on_c, 0, 64, 33
2, 30120, Note_on_c, 0, 68, 36
2, 30178, Note_on_c, 0, 68, 0
2, 30178, Note_on_c, 0, 64, 0
2, 30240, Note_on_c, 0, 59, 33
2, 30240, Note_on_c, 0, 66, 36
2, 30470, Note_on_c, 0, 66, 0
2, 30470, Note_on_c, 0, 59, 0
2, 30480, Note_on_c, 0, 64, 36
2, 30480, Note_on_c, 0, 68, 41
2, 30538, Note_on_c, 0, 68, 0
2, 30538, Note_on_c, 0, 64, 0
2, 30600, Note_on_c, 0, 59, 31
2, 30600, Note_on_c, 0, 66, 35
2, 30658, Note_on_c, 0, 66, 0
2, 30658, Note_on_c, 0, 59, 0
2, 30720, Note_on_c, 0, 64, 36
2, 30720, Note_on_c, 0, 56, 32
2, 31200, Note_on_c, 0, 56, 0
2, 31200, Note_on_c, 0, 64, 0
2, 31440, Note_on_c, 0, 59, 59
2, 31440, Note_on_c, 0, 71, 66
2, 31558, Note_on_c, 0, 71, 0
2, 31558, Note_on_c, 0, 59, 0
2, 31680, Note_on_c, 0, 59, 66
2, 31680, Note_on_c, 0, 64, 66
2, 31680, Note_on_c, 0, 67, 66
2, 31680, Note_on_c, 0, 71, 73
2, 31920, Note_on_c, 0, 71, 0
2, 31920, Note_on_c, 0, 59, 0
2, 31920, Note_on_c, 0, 64, 0
2, 31920, Note_on_c, 0, 67, 0
2, 31920, Note_on_c, 0, 57, 66
2, 32010, Note_on_c, 0, 57, 0
2, 32040, Note_on_c, 0, 55, 63
2, 32098, Note_on_c, 0, 55, 0
2, 32160, Note_on_c, 0, 57, 66
2, 32160, Note_on_c, 0, 66, 66
2, 32160, Note_on_c, 0, 69, 73
2, 32400, Note_on_c, 0, 69, 0
2, 32400, Note_on_c, 0, 66, 0
2, 32400, Note_on_c, 0, 57, 0
2, 32400, Note_on_c, 0, 55, 66
2, 32490, Note_on_c, 0, 55, 0
2, 32520, Note_on_c, 0, 54, 62
2, 32578, Note_on_c, 0, 54, 0
2, 32640, Note_on_c, 0, 55, 66
2, 32640, Note_on_c, 0, 64, 66
2, 32640, Note_on_c, 0, 67, 73
2, 32880, Note_on_c, 0, 67, 0
2, 32880, Note_on_c, 0, 64, 0
2, 32880, Note_on_c, 0, 55, 0
2, 32880, Note_on_c, 0, 54, 66
2, 32970, Note_on_c, 0, 54, 0
2, 33000, Note_on_c, 0, 52, 63
2, 33058, Note_on_c, 0, 52, 0
2, 33120, Note_on_c, 0, 55, 70
2, 33120, Note_on_c, 0, 64, 70
2, 33120, Note_on_c, 0, 67, 79
2, 33360, Note_on_c, 0, 67, 0
2, 33360, Note_on_c, 0, 64, 0
2, 33360, Note_on_c, 0, 55, 0
2, 33360, Note_on_c, 0, 54, 66
2, 33450, Note_on_c, 0, 54, 0
2, 33480, Note_on_c, 0, 52, 62
2, 33538, Note_on_c, 0, 52, 0
2, 33600, Note_on_c, 0, 55, 67
2, 33600, Note_on_c, 0, 59, 67
2, 33600, Note_on_c, 0, 67, 75
2, 33600, Note_on_c, 0, 64, 67
2, 33840, Note_on_c, 0, 64, 0
2, 33840, Note_on_c, 0, 55, 0
2, 33840, Note_on_c, 0, 59, 0
2, 33840, Note_on_c, 0, 67, 0
2, 33840, Note_on_c, 0, 54, 66
2, 33930, Note_on_c, 0, 54, 0
2, 33960, Note_on_c, 0, 52, 62
2, 34018, Note_on_c, 0, 52, 0
2, 34080, Note_on_c, 0, 52, 65
2, 34080, Note_on_c, 0, 55, 65
2, 34080, Note_on_c, 0, 61, 65
2, 34080, Note_on_c, 0, 64, 72
2, 34320, Note_on_c, 0, 64, 0
2, 34320, Note_on_c, 0, 52, 0
2, 34320, Note_on_c, 0, 55, 0
2, 34320, Note_on_c, 0, 61, 0
2, 34320, Note_on_c, 0, 51, 66
2, 34410, Note_on_c, 0, 51, 0
2, 34440, Note_on_c, 0, 52, 62
2, 34530, Note_on_c, 0, 52, 0
2, 34560, Note_on_c, 0, 67, 79
2, 34560, Note_on_c, 0, 64, 70
2, 34560, Note_on_c, 0, 59, 70
2, 34560, Note_on_c, 0, 55, 70
2, 35040, Note_on_c, 0, 55, 0
2, 35040, Note_on_c, 0, 67, 0
2, 35040, Note_on_c, 0, 64, 0
2, 35040, Note_on_c, 0, 59, 0
2, 35040, Note_on_c, 0, 54, 65
2, 35040, Note_on_c, 0, 63, 65
2, 35040, Note_on_c, 0, 66, 72
2, 35280, Note_on_c, 0, 66, 0
2, 35280, Note_on_c, 0, 63, 0
2, 35280, Note_on_c, 0, 54, 0
2, 35280, Note_on_c, 0, 50, 72
2, 35280, Note_on_c, 0, 62, 72
2, 35398, Note_on_c, 0, 62, 0
2, 35398, Note_on_c, 0, 50, 0
2, 35520, Note_on_c, 0, 55, 76
2, 35520, Note_on_c, 0, 59, 76
2, 35520, Note_on_c, 0, 62, 76
2, 35520, Note_on_c, 0, 67, 84
2, 35760, Note_on_c, 0, 67, 0
2, 35760, Note_on_c, 0, 55, 0
2, 35760, Note_on_c, 0, 59, 0
2, 35760, Note_on_c, 0, 62, 0
2, 35760, Note_on_c, 0, 54, 66
2, 35818, Note_on_c, 0, 54, 0
2, 35880, Note_on_c, 0, 55, 61
2, 35938, Note_on_c, 0, 55, 0
2, 36000, Note_on_c, 0, 62, 72
2, 36000, Note_on_c, 0, 57, 72
2, 36000, Note_on_c, 0, 66, 72
2, 36000, Note_on_c, 0, 69, 81
2, 36240, Note_on_c, 0, 69, 0
2, 36240, Note_on_c, 0, 62, 0
2, 36240, Note_on_c, 0, 57, 0
2, 36240, Note_on_c, 0, 66, 0
2, 36240, Note_on_c, 0, 55, 66
2, 36298, Note_on_c, 0, 55, 0
2, 36360, Note_on_c, 0, 57, 61
2, 36418, Note_on_c, 0, 57, 0
2, 36480, Note_on_c, 0, 67, 66
2, 36480, Note_on_c, 0, 59, 66
2, 36480, Note_on_c, 0, 62, 66
2, 36480, Note_on_c, 0, 71, 73
2, 36720, Note_on_c, 0, 71, 0
2, 36720, Note_on_c, 0, 67, 0
2, 36720, Note_on_c, 0, 59, 0
2, 36720, Note_on_c, 0, 62, 0
2, 36720, Note_on_c, 0, 57, 66
2, 36778, Note_on_c, 0, 57, 0
2, 36840, Note_on_c, 0, 59, 62
2, 36898, Note_on_c, 0, 59, 0
2, 36960, Note_on_c, 0, 67, 75
2, 36960, Note_on_c, 0, 60, 75
2, 36960, Note_on_c, 0, 64, 75
2, 36960, Note_on_c, 0, 72, 83
2, 37200, Note_on_c, 0, 72, 0
2, 37200, Note_on_c, 0, 67, 0
2, 37200, Note_on_c, 0, 60, 0
2, 37200, Note_on_c, 0, 64, 0
2, 37200, Note_on_c, 0, 62, 66
2, 37258, Note_on_c, 0, 62, 0
2, 37320, Note_on_c, 0, 64, 62
2, 37378, Note_on_c, 0, 64, 0
2, 37440, Note_on_c, 0, 55, 69
2, 37440, Note_on_c, 0, 59, 69
2, 37440, Note_on_c, 0, 71, 77
2, 37440, Note_on_c, 0, 62, 69
2, 37680, Note_on_c, 0, 62, 0
2, 37680, Note_on_c, 0, 55, 0
2, 37680, Note_on_c, 0, 59, 0
2, 37680, Note_on_c, 0, 71, 0
2, 37680, Note_on_c, 0, 57, 66
2, 37738, Note_on_c, 0, 57, 0
2, 37800, Note_on_c, 0, 59, 62
2, 37858, Note_on_c, 0, 59, 0
2, 37920, Note_on_c, 0, 57, 67
2, 37920, Note_on_c, 0, 60, 67
2, 37920, Note_on_c, 0, 66, 67
2, 37920, Note_on_c, 0, 69, 76
2, 38160, Note_on_c, 0, 69, 0
2, 38160, Note_on_c, 0, 57, 0
2, 38160, Note_on_c, 0, 60, 0
2, 38160, Note_on_c, 0, 66, 0
2, 38160, Note_on_c, 0, 59, 66
2, 38218, Note_on_c, 0, 59, 0
2, 38280, Note_on_c, 0, 54, 61
2, 38338, Note_on_c, 0, 54, 0
2, 38400, Note_on_c, 0, 67, 82
2, 38400, Note_on_c, 0, 62, 73
2, 38400, Note_on_c, 0, 59, 73
2, 38400, Note_on_c, 0, 55, 73
2, 38880, Note_on_c, 0, 55, 0
2, 38880, Note_on_c, 0, 67, 0
2, 38880, Note_on_c, 0, 62, 0
2, 38880, Note_on_c, 0, 59, 0
2, 39120, Note_on_c, 0, 59, 62
2, 39120, Note_on_c, 0, 71, 70
2, 39238, Note_on_c, 0, 71, 0
2, 39238, Note_on_c, 0, 59, 0
2, 39360, Note_on_c, 0, 57, 67
2, 39360, Note_on_c, 0, 66, 67
2, 39360, Note_on_c, 0, 69, 76
2, 39600, Note_on_c, 0, 69, 0
2, 39600, Note_on_c, 0, 66, 0
2, 39600, Note_on_c, 0, 57, 0
2, 39600, Note_on_c, 0, 55, 63
2, 39658, Note_on_c, 0, 55, 0
2, 39720, Note_on_c, 0, 54, 61
2, 39778, Note_on_c, 0, 54, 0
2, 39840, Note_on_c, 0, 64, 63
2, 39840, Note_on_c, 0, 55, 63
2, 39840, Note_on_c, 0, 67, 71
2, 40080, Note_on_c, 0, 67, 0
2, 40080, Note_on_c, 0, 55, 0
2, 40080, Note_on_c, 0, 64, 0
2, 40080, Note_on_c, 0, 54, 64
2, 40138, Note_on_c, 0, 54, 0
2, 40200, Note_on_c, 0, 52, 61
2, 40258, Note_on_c, 0, 52, 0
2, 40320, Note_on_c, 0, 63, 72
2, 40320, Note_on_c, 0, 51, 64
2, 40320, Note_on_c, 0, 59, 64
2, 40560, Note_on_c, 0, 59, 0
2, 40560, Note_on_c, 0, 51, 0
2, 40560, Note_on_c, 0, 63, 0
2, 41040, Note_on_c, 0, 59, 63
2, 41040, Note_on_c, 0, 71, 71
2, 41158, Note_on_c, 0, 71, 0
2, 41158, Note_on_c, 0, 59, 0
2, 41280, Note_on_c, 0, 57, 66
2, 41280, Note_on_c, 0, 66, 66
2, 41280, Note_on_c, 0, 69, 73
2, 41520, Note_on_c, 0, 69, 0
2, 41520, Note_on_c, 0, 66, 0
2, 41520, Note_on_c, 0, 57, 0
2, 41520, Note_on_c, 0, 55, 62
2, 41578, Note_on_c, 0, 55, 0
2, 41640, Note_on_c, 0, 54, 59
2, 41698, Note_on_c, 0, 54, 0
2, 41760, Note_on_c, 0, 64, 63
2, 41760, Note_on_c, 0, 55, 63
2, 41760, Note_on_c, 0, 67, 71
2, 42000, Note_on_c, 0, 67, 0
2, 42000, Note_on_c, 0, 55, 0
2, 42000, Note_on_c, 0, 64, 0
2, 42000, Note_on_c, 0, 54, 63
2, 42058, Note_on_c, 0, 54, 0
2, 42120, Note_on_c, 0, 52, 60
2, 42178, Note_on_c, 0, 52, 0
2, 42240, Note_on_c, 0, 71, 72
2, 42240, Note_on_c, 0, 59, 64
2, 42240, Note_on_c, 0, 63, 64
2, 42480, Note_on_c, 0, 63, 0
2, 42480, Note_on_c, 0, 59, 0
2, 42480, Note_on_c, 0, 71, 0
2, 42960, Note_on_c, 0, 59, 62
2, 42960, Note_on_c, 0, 71, 70
2, 43078, Note_on_c, 0, 71, 0
2, 43078, Note_on_c, 0, 59, 0
2, 43200, Note_on_c, 0, 64, 72
2, 43200, Note_on_c, 0, 71, 72
2, 43200, Note_on_c, 0, 76, 81
2, 43440, Note_on_c, 0, 76, 0
2, 43440, Note_on_c, 0, 71, 0
2, 43440, Note_on_c, 0, 64, 0
2, 43440, Note_on_c, 0, 62, 64
2, 43498, Note_on_c, 0, 62, 0
2, 43560, Note_on_c, 0, 59, 59
2, 43618, Note_on_c, 0, 59, 0
2, 43680, Note_on_c, 0, 64, 60
2, 43680, Note_on_c, 0, 60, 60
2, 43680, Note_on_c, 0, 72, 66
2, 43920, Note_on_c, 0, 72, 0
2, 43920, Note_on_c, 0, 60, 0
2, 43920, Note_on_c, 0, 64, 0
2, 43920, Note_on_c, 0, 59, 59
2, 43978, Note_on_c, 0, 59, 0
2, 44040, Note_on_c, 0, 57, 55
2, 44098, Note_on_c, 0, 57, 0
2, 44160, Note_on_c, 0, 62, 69
2, 44160, Note_on_c, 0, 69, 69
2, 44160, Note_on_c, 0, 74, 77
2, 44400, Note_on_c, 0, 74, 0
2, 44400, Note_on_c, 0, 69, 0
2, 44400, Note_on_c, 0, 62, 0
2, 44400, Note_on_c, 0, 60, 63
2, 44458, Note_on_c, 0, 60, 0
2, 44520, Note_on_c, 0, 57, 57
2, 44578, Note_on_c, 0, 57, 0
2, 44640, Note_on_c, 0, 62, 54
2, 44640, Note_on_c, 0, 59, 54
2, 44640, Note_on_c, 0, 71, 61
2, 44880, Note_on_c, 0, 71, 0
2, 44880, Note_on_c, 0, 59, 0
2, 44880, Note_on_c, 0, 62, 0
2, 44880, Note_on_c, 0, 57, 59
2, 44938, Note_on_c, 0, 57, 0
2, 45000, Note_on_c, 0, 55, 56
2, 45058, Note_on_c, 0, 55, 0
2, 45120, Note_on_c, 0, 60, 70
2, 45120, Note_on_c, 0, 67, 70
2, 45120, Note_on_c, 0, 72, 79
2, 45360, Note_on_c, 0, 72, 0
2, 45360, Note_on_c, 0, 67, 0
2, 45360, Note_on_c, 0, 60, 0
2, 45360, Note_on_c, 0, 59, 61
2, 45418, Note_on_c, 0, 59, 0
2, 45480, Note_on_c, 0, 55, 56
2, 45538, Note_on_c, 0, 55, 0
2, 45600, Note_on_c, 0, 60, 55
2, 45600, Note_on_c, 0, 57, 55
2, 45600, Note_on_c, 0, 69, 62
2, 45840, Note_on_c, 0, 69, 0
2, 45840, Note_on_c, 0, 57, 0
2, 45840, Note_on_c, 0, 60, 0
2, 45840, Note_on_c, 0, 55, 60
2, 45898, Note_on_c, 0, 55, 0
2, 45960, Note_on_c, 0, 54, 56
2, 46018, Note_on_c, 0, 54, 0
2, 46080, Note_on_c, 0, 59, 63
2, 46080, Note_on_c, 0, 66, 63
2, 46080, Note_on_c, 0, 71, 71
2, 46320, Note_on_c, 0, 71, 0
2, 46320, Note_on_c, 0, 66, 0
2, 46320, Note_on_c, 0, 59, 0
2, 46320, Note_on_c, 0, 57, 61
2, 46378, Note_on_c, 0, 57, 0
2, 46440, Note_on_c, 0, 54, 56
2, 46498, Note_on_c, 0, 54, 0
2, 46560, Note_on_c, 0, 59, 56
2, 46560, Note_on_c, 0, 55, 56
2, 46560, Note_on_c, 0, 67, 63
2, 46800, Note_on_c, 0, 67, 0
2, 46800, Note_on_c, 0, 55, 0
2, 46800, Note_on_c, 0, 59, 0
2, 46800, Note_on_c, 0, 54, 60
2, 46858, Note_on_c, 0, 54, 0
2, 46920, Note_on_c, 0, 52, 56
2, 47010, Note_on_c, 0, 52, 0
2, 47040, Note_on_c, 0, 67, 56
2, 47040, Note_on_c, 0, 55, 50
2, 47040, Note_on_c, 0, 60, 50
2, 47040, Note_on_c, 0, 64, 50
2, 47280, Note_on_c, 0, 64, 0
2, 47280, Note_on_c, 0, 67, 0
2, 47280, Note_on_c, 0, 55, 0
2, 47280, Note_on_c, 0, 60, 0
2, 47280, Note_on_c, 0, 54, 63
2, 47338, Note_on_c, 0, 54, 0
2, 47400, Note_on_c, 0, 52, 67
2, 47458, Note_on_c, 0, 52, 0
2, 47520, Note_on_c, 0, 67, 71
2, 47520, Note_on_c, 0, 61, 63
2, 47520, Note_on_c, 0, 55, 63
2, 47520, Note_on_c, 0, 64, 63
2, 47760, Note_on_c, 0, 64, 0
2, 47760, Note_on_c, 0, 67, 0
2, 47760, Note_on_c, 0, 61, 0
2, 47760, Note_on_c, 0, 55, 0
2, 47760, Note_on_c, 0, 54, 67
2, 47818, Note_on_c, 0, 54, 0
2, 47880, Note_on_c, 0, 52, 63
2, 47938, Note_on_c, 0, 52, 0
2, 48000, Note_on_c, 0, 51, 67
2, 48000, Note_on_c, 0, 59, 67
2, 48000, Note_on_c, 0, 63, 75
2, 48240, Note_on_c, 0, 63, 0
2, 48240, Note_on_c, 0, 59, 0
2, 48240, Note_on_c, 0, 51, 0
2, 48240, Note_on_c, 0, 52, 57
2, 48298, Note_on_c, 0, 52, 0
2, 48360, Note_on_c, 0, 54, 54
2, 48418, Note_on_c, 0, 54, 0
2, 48480, Note_on_c, 0, 55, 55
2, 48480, Note_on_c, 0, 52, 55
2, 48480, Note_on_c, 0, 64, 62
2, 48720, Note_on_c, 0, 64, 0
2, 48720, Note_on_c, 0, 52, 0
2, 48720, Note_on_c, 0, 55, 0
2, 48720, Note_on_c, 0, 54, 55
2, 48778, Note_on_c, 0, 54, 0
2, 48840, Note_on_c, 0, 55, 55
2, 48898, Note_on_c, 0, 55, 0
2, 48960, Note_on_c, 0, 60, 67
2, 48960, Note_on_c, 0, 53, 60
2, 49196, Note_on_c, 0, 60, 0
2, 49200, Note_on_c, 0, 53, 0
2, 49200, Note_on_c, 0, 65, 47
2, 49200, Note_on_c, 0, 69, 54
2, 49258, Note_on_c, 0, 69, 0
2, 49258, Note_on_c, 0, 65, 0
2, 49320, Note_on_c, 0, 60, 45
2, 49320, Note_on_c, 0, 65, 51
2, 49378, Note_on_c, 0, 65, 0
2, 49378, Note_on_c, 0, 60, 0
2, 49440, Note_on_c, 0, 55, 57
2, 49440, Note_on_c, 0, 59, 57
2, 49440, Note_on_c, 0, 64, 65
2, 49620, Note_on_c, 0, 64, 0
2, 49620, Note_on_c, 0, 59, 0
2, 49620, Note_on_c, 0, 55, 0
2, 49680, Note_on_c, 0, 59, 54
2, 49680, Note_on_c, 0, 66, 60
2, 49738, Note_on_c, 0, 66, 0
2, 49738, Note_on_c, 0, 59, 0
2, 49800, Note_on_c, 0, 59, 50
2, 49800, Note_on_c, 0, 63, 56
2, 49860, Note_on_c, 0, 63, 0
2, 49860, Note_on_c, 0, 59, 0
2, 49920, Note_on_c, 0, 55, 62
2, 49920, Note_on_c, 0, 59, 62
2, 49920, Note_on_c, 0, 64, 70
2, 50400, Note_on_c, 0, 64, 0
2, 50400, Note_on_c, 0, 59, 0
2, 50400, Note_on_c, 0, 55, 0
2, 50640, Note_on_c, 0, 92, 37
2, 50640, Note_on_c, 0, 95, 43
2, 50758, Note_on_c, 0, 95, 0
2, 50758, Note_on_c, 0, 92, 0
2, 50760, Note_on_c, 0, 90, 35
2, 50760, Note_on_c, 0, 93, 39
2, 50878, Note_on_c, 0, 93, 0
2, 50878, Note_on_c, 0, 90, 0
2, 50880, Note_on_c, 0, 88, 42
2, 50880, Note_on_c, 0, 92, 46
2, 51110, Note_on_c, 0, 92, 0
2, 51110, Note_on_c, 0, 88, 0
2, 51120, Note_on_c, 0, 88, 34
2, 51120, Note_on_c, 0, 92, 37
2, 51238, Note_on_c, 0, 92, 0
2, 51238, Note_on_c, 0, 88, 0
2, 51240, Note_on_c, 0, 83, 31
2, 51240, Note_on_c, 0, 90, 35
2, 51358, Note_on_c, 0, 90, 0
2, 51358, Note_on_c, 0, 83, 0
2, 51360, Note_on_c, 0, 80, 36
2, 51360, Note_on_c, 0, 88, 41
2, 51590, Note_on_c, 0, 88, 0
2, 51590, Note_on_c, 0, 80, 0
2, 51600, Note_on_c, 0, 83, 42
2, 51600, Note_on_c, 0, 80, 36
2, 51718, Note_on_c, 0, 80, 0
2, 51718, Note_on_c, 0, 83, 0
2, 51720, Note_on_c, 0, 78, 34
2, 51720, Note_on_c, 0, 81, 37
2, 51838, Note_on_c, 0, 81, 0
2, 51838, Note_on_c, 0, 78, 0
2, 51840, Note_on_c, 0, 76, 40
2, 51840, Note_on_c, 0, 80, 45
2, 52070, Note_on_c, 0, 80, 0
2, 52070, Note_on_c, 0, 76, 0
2, 52080, Note_on_c, 0, 76, 34
2, 52080, Note_on_c, 0, 80, 37
2, 52198, Note_on_c, 0, 80, 0
2, 52198, Note_on_c, 0, 76, 0
2, 52200, Note_on_c, 0, 71, 31
2, 52200, Note_on_c, 0, 78, 35
2, 52318, Note_on_c, 0, 78, 0
2, 52318, Note_on_c, 0, 71, 0
2, 52320, Note_on_c, 0, 68, 36
2, 52320, Note_on_c, 0, 76, 42
2, 52550, Note_on_c, 0, 76, 0
2, 52550, Note_on_c, 0, 68, 0
2, 52560, Note_on_c, 0, 68, 36
2, 52560, Note_on_c, 0, 76, 42
2, 52678, Note_on_c, 0, 76, 0
2, 52678, Note_on_c, 0, 68, 0
2, 52680, Note_on_c, 0, 71, 34
2, 52680, Note_on_c, 0, 78, 37
2, 52798, Note_on_c, 0, 78, 0
2, 52798, Note_on_c, 0, 71, 0
2, 52800, Note_on_c, 0, 76, 40
2, 52800, Note_on_c, 0, 80, 45
2, 53030, Note_on_c, 0, 80, 0
2, 53030, Note_on_c, 0, 76, 0
2, 53040, Note_on_c, 0, 71, 37
2, 53040, Note_on_c, 0, 78, 43
2, 53158, Note_on_c, 0, 78, 0
2, 53158, Note_on_c, 0, 71, 0
2, 53160, Note_on_c, 0, 76, 35
2, 53160, Note_on_c, 0, 80, 39
2, 53278, Note_on_c, 0, 80, 0
2, 53278, Note_on_c, 0, 76, 0
2, 53280, Note_on_c, 0, 78, 43
2, 53280, Note_on_c, 0, 81, 47
2, 53510, Note_on_c, 0, 81, 0
2, 53510, Note_on_c, 0, 78, 0
2, 53520, Note_on_c, 0, 71, 40
2, 53520, Note_on_c, 0, 78, 45
2, 53638, Note_on_c, 0, 78, 0
2, 53638, Note_on_c, 0, 71, 0
2, 53640, Note_on_c, 0, 78, 36
2, 53640, Note_on_c, 0, 81, 42
2, 53758, Note_on_c, 0, 81, 0
2, 53758, Note_on_c, 0, 78, 0
2, 53760, Note_on_c, 0, 80, 44
2, 53760, Note_on_c, 0, 83, 50
2, 53990, Note_on_c, 0, 83, 0
2, 53990, Note_on_c, 0, 80, 0
2, 54000, Note_on_c, 0, 78, 35
2, 54000, Note_on_c, 0, 81, 39
2, 54118, Note_on_c, 0, 81, 0
2, 54118, Note_on_c, 0, 78, 0
2, 54120, Note_on_c, 0, 76, 33
2, 54120, Note_on_c, 0, 80, 36
2, 54238, Note_on_c, 0, 80, 0
2, 54238, Note_on_c, 0, 76, 0
2, 54240, Note_on_c, 0, 71, 39
2, 54240, Note_on_c, 0, 78, 44
2, 54470, Note_on_c, 0, 78, 0
2, 54470, Note_on_c, 0, 71, 0
2, 54480, Note_on_c, 0, 92, 37
2, 54480, Note_on_c, 0, 95, 43
2, 54598, Note_on_c, 0, 95, 0
2, 54598, Note_on_c, 0, 92, 0
2, 54600, Note_on_c, 0, 90, 35
2, 54600, Note_on_c, 0, 93, 39
2, 54718, Note_on_c, 0, 93, 0
2, 54718, Note_on_c, 0, 90, 0
2, 54720, Note_on_c, 0, 88, 42
2, 54720, Note_on_c, 0, 92, 46
2, 54950, Note_on_c, 0, 92, 0
2, 54950, Note_on_c, 0, 88, 0
2, 54960, Note_on_c, 0, 88, 34
2, 54960, Note_on_c, 0, 92, 37
2, 55078, Note_on_c, 0, 92, 0
2, 55078, Note_on_c, 0, 88, 0
2, 55080, Note_on_c, 0, 83, 32
2, 55080, Note_on_c, 0, 90, 36
2, 55198, Note_on_c, 0, 90, 0
2, 55198, Note_on_c, 0, 83, 0
2, 55200, Note_on_c, 0, 80, 41
2, 55200, Note_on_c, 0, 88, 41
2, 55430, Note_on_c, 0, 88, 0
2, 55430, Note_on_c, 0, 80, 0
2, 55440, Note_on_c, 0, 83, 42
2, 55440, Note_on_c, 0, 80, 36
2, 55558, Note_on_c, 0, 80, 0
2, 55558, Note_on_c, 0, 83, 0
2, 55560, Note_on_c, 0, 78, 35
2, 55560, Note_on_c, 0, 81, 39
2, 55678, Note_on_c, 0, 81, 0
2, 55678, Note_on_c, 0, 78, 0
2, 55680, Note_on_c, 0, 76, 40
2, 55680, Note_on_c, 0, 80, 45
2, 55910, Note_on_c, 0, 80, 0
2, 55910, Note_on_c, 0, 76, 0
2, 55920, Note_on_c, 0, 76, 34
2, 55920, Note_on_c, 0, 80, 37
2, 56038, Note_on_c, 0, 80, 0
2, 56038, Note_on_c, 0, 76, 0
2, 56040, Note_on_c, 0, 71, 30
2, 56040, Note_on_c, 0, 78, 34
2, 56158, Note_on_c, 0, 78, 0
2, 56158, Note_on_c, 0, 71, 0
2, 56160, Note_on_c, 0, 68, 36
2, 56160, Note_on_c, 0, 76, 42
2, 56390, Note_on_c, 0, 76, 0
2, 56390, Note_on_c, 0, 68, 0
2, 56400, Note_on_c, 0, 68, 36
2, 56400, Note_on_c, 0, 76, 42
2, 56518, Note_on_c, 0, 76, 0
2, 56518, Note_on_c, 0, 68, 0
2, 56520, Note_on_c, 0, 71, 34
2, 56520, Note_on_c, 0, 78, 37
2, 56638, Note_on_c, 0, 78, 0
2, 56638, Note_on_c, 0, 71, 0
2, 56640, Note_on_c, 0, 76, 40
2, 56640, Note_on_c, 0, 80, 45
2, 56870, Note_on_c, 0, 80, 0
2, 56870, Note_on_c, 0, 76, 0
2, 56880, Note_on_c, 0, 78, 39
2, 56880, Note_on_c, 0, 81, 44
2, 56998, Note_on_c, 0, 81, 0
2, 56998, Note_on_c, 0, 78, 0
2, 57000, Note_on_c, 0, 76, 35
2, 57000, Note_on_c, 0, 80, 39
2, 57118, Note_on_c, 0, 80, 0
2, 57118, Note_on_c, 0, 76, 0
2, 57120, Note_on_c, 0, 71, 36
2, 57120, Note_on_c, 0, 78, 41
2, 57350, Note_on_c, 0, 78, 0
2, 57350, Note_on_c, 0, 71, 0
2, 57360, Note_on_c, 0, 76, 40
2, 57360, Note_on_c, 0, 80, 45
2, 57478, Note_on_c, 0, 80, 0
2, 57478, Note_on_c, 0, 76, 0
2, 57480, Note_on_c, 0, 71, 34
2, 57480, Note_on_c, 0, 78, 37
2, 57598, Note_on_c, 0, 78, 0
2, 57598, Note_on_c, 0, 71, 0
2, 57600, Note_on_c, 0, 68, 35
2, 57600, Note_on_c, 0, 76, 39
2, 58080, Note_on_c, 0, 76, 0
2, 58080, Note_on_c, 0, 68, 0
2, 58320, Note_on_c, 0, 56, 60
2, 58320, Note_on_c, 0, 64, 66
2, 58378, Note_on_c, 0, 64, 0
2, 58378, Note_on_c, 0, 56, 0
2, 58440, Note_on_c, 0, 64, 55
2, 58440, Note_on_c, 0, 68, 63
2, 58498, Note_on_c, 0, 68, 0
2, 58498, Note_on_c, 0, 64, 0
2, 58560, Note_on_c, 0, 59, 65
2, 58560, Note_on_c, 0, 66, 73
2, 58780, Note_on_c, 0, 66, 0
2, 58780, Note_on_c, 0, 59, 0
2, 58800, Note_on_c, 0, 64, 60
2, 58800, Note_on_c, 0, 68, 66
2, 58858, Note_on_c, 0, 68, 0
2, 58858, Note_on_c, 0, 64, 0
2, 58920, Note_on_c, 0, 66, 57
2, 58920, Note_on_c, 0, 69, 64
2, 58978, Note_on_c, 0, 69, 0
2, 58978, Note_on_c, 0, 66, 0
2, 59040, Note_on_c, 0, 68, 63
2, 59040, Note_on_c, 0, 71, 72
2, 59260, Note_on_c, 0, 71, 0
2, 59260, Note_on_c, 0, 68, 0
2, 59280, Note_on_c, 0, 69, 62
2, 59280, Note_on_c, 0, 73, 69
2, 59338, Note_on_c, 0, 73, 0
2, 59338, Note_on_c, 0, 69, 0
2, 59400, Note_on_c, 0, 68, 57
2, 59400, Note_on_c, 0, 71, 64
2, 59458, Note_on_c, 0, 71, 0
2, 59458, Note_on_c, 0, 68, 0
2, 59520, Note_on_c, 0, 66, 66
2, 59520, Note_on_c, 0, 69, 74
2, 59740, Note_on_c, 0, 69, 0
2, 59740, Note_on_c, 0, 66, 0
2, 59760, Note_on_c, 0, 64, 61
2, 59760, Note_on_c, 0, 68, 67
2, 59818, Note_on_c, 0, 68, 0
2, 59818, Note_on_c, 0, 64, 0
2, 59880, Note_on_c, 0, 66, 56
2, 59880, Note_on_c, 0, 69, 63
2, 59938, Note_on_c, 0, 69, 0
2, 59938, Note_on_c, 0, 66, 0
2, 60000, Note_on_c, 0, 59, 66
2, 60000, Note_on_c, 0, 66, 74
2, 60220, Note_on_c, 0, 66, 0
2, 60220, Note_on_c, 0, 59, 0
2, 60240, Note_on_c, 0, 56, 60
2, 60240, Note_on_c, 0, 64, 66
2, 60298, Note_on_c, 0, 64, 0
2, 60298, Note_on_c, 0, 56, 0
2, 60360, Note_on_c, 0, 64, 56
2, 60360, Note_on_c, 0, 68, 63
2, 60418, Note_on_c, 0, 68, 0
2, 60418, Note_on_c, 0, 64, 0
2, 60480, Note_on_c, 0, 59, 65
2, 60480, Note_on_c, 0, 66, 73
2, 60700, Note_on_c, 0, 66, 0
2, 60700, Note_on_c, 0, 59, 0
2, 60720, Note_on_c, 0, 64, 60
2, 60720, Note_on_c, 0, 68, 66
2, 60778, Note_on_c, 0, 68, 0
2, 60778, Note_on_c, 0, 64, 0
2, 60840, Note_on_c, 0, 66, 56
2, 60840, Note_on_c, 0, 69, 63
2, 60898, Note_on_c, 0, 69, 0
2, 60898, Note_on_c, 0, 66, 0
2, 60960, Note_on_c, 0, 68, 63
2, 60960, Note_on_c, 0, 71, 72
2, 61180, Note_on_c, 0, 71, 0
2, 61180, Note_on_c, 0, 68, 0
2, 61200, Note_on_c, 0, 69, 63
2, 61200, Note_on_c, 0, 73, 72
2, 61258, Note_on_c, 0, 73, 0
2, 61258, Note_on_c, 0, 69, 0
2, 61320, Note_on_c, 0, 68, 62
2, 61320, Note_on_c, 0, 71, 69
2, 61378, Note_on_c, 0, 71, 0
2, 61378, Note_on_c, 0, 68, 0
2, 61440, Note_on_c, 0, 66, 66
2, 61440, Note_on_c, 0, 69, 74
2, 61660, Note_on_c, 0, 69, 0
2, 61660, Note_on_c, 0, 66, 0
2, 61680, Note_on_c, 0, 64, 60
2, 61680, Note_on_c, 0, 68, 66
2, 61738, Note_on_c, 0, 68, 0
2, 61738, Note_on_c, 0, 64, 0
2, 61800, Note_on_c, 0, 66, 55
2, 61800, Note_on_c, 0, 69, 63
2, 61858, Note_on_c, 0, 69, 0
2, 61858, Note_on_c, 0, 66, 0
2, 61920, Note_on_c, 0, 59, 57
2, 61920, Note_on_c, 0, 66, 64
2, 62100, Note_on_c, 0, 66, 0
2, 62100, Note_on_c, 0, 59, 0
2, 62160, Note_on_c, 0, 92, 37
2, 62160, Note_on_c, 0, 95, 43
2, 62278, Note_on_c, 0, 95, 0
2, 62278, Note_on_c, 0, 92, 0
2, 62280, Note_on_c, 0, 90, 35
2, 62280, Note_on_c, 0, 93, 39
2, 62398, Note_on_c, 0, 93, 0
2, 62398, Note_on_c, 0, 90, 0
2, 62400, Note_on_c, 0, 88, 42
2, 62400, Note_on_c, 0, 92, 46
2, 62630, Note_on_c, 0, 92, 0
2, 62630, Note_on_c, 0, 88, 0
2, 62640, Note_on_c, 0, 88, 34
2, 62640, Note_on_c, 0, 92, 37
2, 62758, Note_on_c, 0, 92, 0
2, 62758, Note_on_c, 0, 88, 0
2, 62760, Note_on_c, 0, 83, 31
2, 62760, Note_on_c, 0, 90, 35
2, 62878, Note_on_c, 0, 90, 0
2, 62878, Note_on_c, 0, 83, 0
2, 62880, Note_on_c, 0, 80, 36
2, 62880, Note_on_c, 0, 88, 41
2, 63110, Note_on_c, 0, 88, 0
2, 63110, Note_on_c, 0, 80, 0
2, 63120, Note_on_c, 0, 83, 42
2, 63120, Note_on_c, 0, 80, 36
2, 63238, Note_on_c, 0, 80, 0
2, 63238, Note_on_c, 0, 83, 0
2, 63240, Note_on_c, 0, 78, 34
2, 63240, Note_on_c, 0, 81, 37
2, 63358, Note_on_c, 0, 81, 0
2, 63358, Note_on_c, 0, 78, 0
2, 63360, Note_on_c, 0, 76, 40
2, 63360, Note_on_c, 0, 80, 45
2, 63590, Note_on_c, 0, 80, 0
2, 63590, Note_on_c, 0, 76, 0
2, 63600, Note_on_c, 0, 76, 34
2, 63600, Note_on_c, 0, 80, 37
2, 63718, Note_on_c, 0, 80, 0
2, 63718, Note_on_c, 0, 76, 0
2, 63720, Note_on_c, 0, 71, 36
2, 63720, Note_on_c, 0, 78, 36
2, 63838, Note_on_c, 0, 78, 0
2, 63838, Note_on_c, 0, 71, 0
2, 63840, Note_on_c, 0, 68, 36
2, 63840, Note_on_c, 0, 76, 42
2, 64070, Note_on_c, 0, 76, 0
2, 64070, Note_on_c, 0, 68, 0
2, 64080, Note_on_c, 0, 56, 36
2, 64080, Note_on_c, 0, 64, 42
2, 64138, Note_on_c, 0, 64, 0
2, 64138, Note_on_c, 0, 56, 0
2, 64200, Note_on_c, 0, 59, 34
2, 64200, Note_on_c, 0, 66, 37
2, 64258, Note_on_c, 0, 66, 0
2, 64258, Note_on_c, 0, 59, 0
2, 64320, Note_on_c, 0, 64, 40
2, 64320, Note_on_c, 0, 68, 45
2, 64550, Note_on_c, 0, 68, 0
2, 64550, Note_on_c, 0, 64, 0
2, 64560, Note_on_c, 0, 66, 36
2, 64560, Note_on_c, 0, 69, 42
2, 64618, Note_on_c, 0, 69, 0
2, 64618, Note_on_c, 0, 66, 0
2, 64680, Note_on_c, 0, 64, 32
2, 64680, Note_on_c, 0, 68, 36
2, 64738, Note_on_c, 0, 68, 0
2, 64738, Note_on_c, 0, 64, 0
2, 64800, Note_on_c, 0, 59, 33
2, 64800, Note_on_c, 0, 66, 36
2, 65030, Note_on_c, 0, 66, 0
2, 65030, Note_on_c, 0, 59, 0
2, 65040, Note_on_c, 0, 64, 36
2, 65040, Note_on_c, 0, 68, 41
2, 65098, Note_on_c, 0, 68, 0
2, 65098, Note_on_c, 0, 64, 0
2, 65160, Note_on_c, 0, 59, 31
2, 65160, Note_on_c, 0, 66, 35
2, 65218, Note_on_c, 0, 66, 0
2, 65218, Note_on_c, 0, 59, 0
2, 65280, Note_on_c, 0, 56, 32
2, 65280, Note_on_c, 0, 64, 36
2, 65760, Note_on_c, 0, 64, 0
2, 65760, Note_on_c, 0, 56, 0
2, 66000, Note_on_c, 0, 64, 71
2, 66000, Note_on_c, 0, 76, 79
2, 66118, Note_on_c, 0, 76, 0
2, 66118, Note_on_c, 0, 64, 0
2, 66240, Note_on_c, 0, 69, 79
2, 66240, Note_on_c, 0, 81, 87
2, 66960, Note_on_c, 0, 81, 0
2, 66960, Note_on_c, 0, 69, 0
2, 66960, Note_on_c, 0, 64, 72
2, 66960, Note_on_c, 0, 76, 81
2, 67080, Note_on_c, 0, 76, 0
2, 67080, Note_on_c, 0, 64, 0
2, 67200, Note_on_c, 0, 60, 79
2, 67200, Note_on_c, 0, 72, 87
2, 67440, Note_on_c, 0, 72, 0
2, 67440, Note_on_c, 0, 60, 0
2, 67440, Note_on_c, 0, 57, 74
2, 67440, Note_on_c, 0, 69, 83
2, 67680, Note_on_c, 0, 69, 0
2, 67680, Note_on_c, 0, 57, 0
2, 67920, Note_on_c, 0, 57, 43
2, 67954, Note_on_c, 0, 59, 43
2, 67956, Note_on_c, 0, 57, 0
2, 67988, Note_on_c, 0, 60, 43
2, 67990, Note_on_c, 0, 59, 0
2, 68022, Note_on_c, 0, 62, 43
2, 68024, Note_on_c, 0, 60, 0
2, 68056, Note_on_c, 0, 64, 45
2, 68058, Note_on_c, 0, 62, 0
2, 68090, Note_on_c, 0, 65, 45
2, 68092, Note_on_c, 0, 64, 0
2, 68124, Note_on_c, 0, 67, 45
2, 68126, Note_on_c, 0, 65, 0
2, 68160, Note_on_c, 0, 67, 0
2, 68160, Note_on_c, 0, 69, 45
2, 68194, Note_on_c, 0, 71, 45
2, 68196, Note_on_c, 0, 69, 0
2, 68228, Note_on_c, 0, 72, 45
2, 68230, Note_on_c, 0, 71, 0
2, 68262, Note_on_c, 0, 74, 45
2, 68264, Note_on_c, 0, 72, 0
2, 68296, Note_on_c, 0, 76, 47
2, 68298, Note_on_c, 0, 74, 0
2, 68330, Note_on_c, 0, 77, 48
2, 68332, Note_on_c, 0, 76, 0
2, 68364, Note_on_c, 0, 79, 48
2, 68366, Note_on_c, 0, 77, 0
2, 68400, Note_on_c, 0, 79, 0
2, 68400, Note_on_c, 0, 81, 47
2, 68434, Note_on_c, 0, 83, 47
2, 68436, Note_on_c, 0, 81, 0
2, 68468, Note_on_c, 0, 84, 47
2, 68470, Note_on_c, 0, 83, 0
2, 68502, Note_on_c, 0, 86, 48
2, 68504, Note_on_c, 0, 84, 0
2, 68536, Note_on_c, 0, 88, 48
2, 68538, Note_on_c, 0, 86, 0
2, 68570, Note_on_c, 0, 89, 47
2, 68572, Note_on_c, 0, 88, 0
2, 68604, Note_on_c, 0, 91, 48
2, 68606, Note_on_c, 0, 89, 0
2, 68640, Note_on_c, 0, 91, 0
2, 68640, Note_on_c, 0, 93, 54
2, 68758, Note_on_c, 0, 93, 0
2, 68880, Note_on_c, 0, 96, 54
2, 68880, Note_on_c, 0, 86, 34
2, 68880, Note_on_c, 0, 89, 34
2, 68938, Note_on_c, 0, 89, 0
2, 68938, Note_on_c, 0, 86, 0
2, 68938, Note_on_c, 0, 96, 0
2, 69000, Note_on_c, 0, 86, 34
2, 69000, Note_on_c, 0, 89, 34
2, 69000, Note_on_c, 0, 95, 46
2, 69058, Note_on_c, 0, 95, 0
2, 69058, Note_on_c, 0, 89, 0
2, 69058, Note_on_c, 0, 86, 0
2, 69120, Note_on_c, 0, 93, 47
2, 69120, Note_on_c, 0, 84, 39
2, 69160, Note_on_c, 0, 93, 0
2, 69160, Note_on_c, 0, 95, 44
2, 69200, Note_on_c, 0, 95, 0
2, 69200, Note_on_c, 0, 93, 47
2, 69240, Note_on_c, 0, 93, 0
2, 69240, Note_on_c, 0, 95, 44
2, 69280, Note_on_c, 0, 95, 0
2, 69280, Note_on_c, 0, 93, 47
2, 69320, Note_on_c, 0, 93, 0
2, 69320, Note_on_c, 0, 95, 47
2, 69360, Note_on_c, 0, 95, 0
2, 69370, Note_on_c, 0, 93, 44
2, 69420, Note_on_c, 0, 93, 0
2, 69420, Note_on_c, 0, 92, 45
2, 69480, Note_on_c, 0, 92, 0
2, 69480, Note_on_c, 0, 95, 51
2, 69540, Note_on_c, 0, 95, 0
2, 69540, Note_on_c, 0, 93, 47
2, 69600, Note_on_c, 0, 93, 0
2, 69600, Note_on_c, 0, 84, 0
2, 69600, Note_on_c, 0, 92, 43
2, 69600, Note_on_c, 0, 83, 35
2, 69810, Note_on_c, 0, 83, 0
2, 69810, Note_on_c, 0, 92, 0
2, 69840, Note_on_c, 0, 62, 71
2, 69840, Note_on_c, 0, 74, 79
2, 69958, Note_on_c, 0, 74, 0
2, 69958, Note_on_c, 0, 62, 0
2, 70080, Note_on_c, 0, 65, 79
2, 70080, Note_on_c, 0, 77, 87
2, 70800, Note_on_c, 0, 77, 0
2, 70800, Note_on_c, 0, 65, 0
2, 70800, Note_on_c, 0, 62, 72
2, 70800, Note_on_c, 0, 74, 81
2, 70920, Note_on_c, 0, 74, 0
2, 70920, Note_on_c, 0, 62, 0
2, 71040, Note_on_c, 0, 59, 79
2, 71040, Note_on_c, 0, 71, 87
2, 71270, Note_on_c, 0, 71, 0
2, 71270, Note_on_c, 0, 59, 0
2, 71280, Note_on_c, 0, 56, 74
2, 71280, Note_on_c, 0, 68, 83
2, 71520, Note_on_c, 0, 68, 0
2, 71520, Note_on_c, 0, 56, 0
2, 71760, Note_on_c, 0, 59, 43
2, 71794, Note_on_c, 0, 60, 43
2, 71796, Note_on_c, 0, 59, 0
2, 71828, Note_on_c, 0, 62, 43
2, 71830, Note_on_c, 0, 60, 0
2, 71862, Note_on_c, 0, 64, 43
2, 71864, Note_on_c, 0, 62, 0
2, 71896, Note_on_c, 0, 65, 44
2, 71898, Note_on_c, 0, 64, 0
2, 71930, Note_on_c, 0, 67, 45
2, 71932, Note_on_c, 0, 65, 0
2, 71964, Note_on_c, 0, 69, 45
2, 71966, Note_on_c, 0, 67, 0
2, 72000, Note_on_c, 0, 69, 0
2, 72000, Note_on_c, 0, 71, 45
2, 72034, Note_on_c, 0, 72, 45
2, 72036, Note_on_c, 0, 71, 0
2, 72068, Note_on_c, 0, 74, 45
2, 72070, Note_on_c, 0, 72, 0
2, 72102, Note_on_c, 0, 76, 45
2, 72104, Note_on_c, 0, 74, 0
2, 72136, Note_on_c, 0, 77, 47
2, 72138, Note_on_c, 0, 76, 0
2, 72170, Note_on_c, 0, 79, 47
2, 72172, Note_on_c, 0, 77, 0
2, 72204, Note_on_c, 0, 81, 48
2, 72206, Note_on_c, 0, 79, 0
2, 72240, Note_on_c, 0, 81, 0
2, 72240, Note_on_c, 0, 83, 47
2, 72274, Note_on_c, 0, 84, 47
2, 72276, Note_on_c, 0, 83, 0
2, 72308, Note_on_c, 0, 86, 47
2, 72310, Note_on_c, 0, 84, 0
2, 72342, Note_on_c, 0, 88, 47
2, 72344, Note_on_c, 0, 86, 0
2, 72376, Note_on_c, 0, 89, 48
2, 72378, Note_on_c, 0, 88, 0
2, 72410, Note_on_c, 0, 91, 47
2, 72412, Note_on_c, 0, 89, 0
2, 72444, Note_on_c, 0, 93, 47
2, 72446, Note_on_c, 0, 91, 0
2, 72480, Note_on_c, 0, 93, 0
2, 72480, Note_on_c, 0, 95, 53
2, 72598, Note_on_c, 0, 95, 0
2, 72720, Note_on_c, 0, 98, 49
2, 72720, Note_on_c, 0, 89, 34
2, 72778, Note_on_c, 0, 89, 0
2, 72778, Note_on_c, 0, 98, 0
2, 72840, Note_on_c, 0, 88, 34
2, 72840, Note_on_c, 0, 96, 45
2, 72898, Note_on_c, 0, 96, 0
2, 72898, Note_on_c, 0, 88, 0
2, 72960, Note_on_c, 0, 95, 47
2, 72960, Note_on_c, 0, 86, 39
2, 73000, Note_on_c, 0, 95, 0
2, 73000, Note_on_c, 0, 96, 44
2, 73040, Note_on_c, 0, 96, 0
2, 73040, Note_on_c, 0, 95, 47
2, 73080, Note_on_c, 0, 95, 0
2, 73080, Note_on_c, 0, 96, 44
2, 73120, Note_on_c, 0, 96, 0
2, 73120, Note_on_c, 0, 95, 47
2, 73160, Note_on_c, 0, 95, 0
2, 73160, Note_on_c, 0, 96, 47
2, 73200, Note_on_c, 0, 96, 0
2, 73210, Note_on_c, 0, 95, 44
2, 73260, Note_on_c, 0, 95, 0
2, 73260, Note_on_c, 0, 93, 45
2, 73320, Note_on_c, 0, 93, 0
2, 73320, Note_on_c, 0, 96, 51
2, 73380, Note_on_c, 0, 96, 0
2, 73380, Note_on_c, 0, 95, 47
2, 73440, Note_on_c, 0, 95, 0
2, 73440, Note_on_c, 0, 86, 0
2, 73440, Note_on_c, 0, 93, 43
2, 73440, Note_on_c, 0, 84, 35
2, 73640, Note_on_c, 0, 84, 0
2, 73640, Note_on_c, 0, 93, 0
2, 73680, Note_on_c, 0, 100, 56
2, 73680, Note_on_c, 0, 88, 51
2, 73738, Note_on_c, 0, 88, 0
2, 73738, Note_on_c, 0, 100, 0
2, 73920, Note_on_c, 0, 105, 63
2, 73920, Note_on_c, 0, 93, 55
2, 73978, Note_on_c, 0, 93, 0
2, 73978, Note_on_c, 0, 105, 0
2, 74160, Note_on_c, 0, 64, 45
2, 74218, Note_on_c, 0, 64, 0
2, 74220, Note_on_c, 0, 62, 43
2, 74278, Note_on_c, 0, 62, 0
2, 74280, Note_on_c, 0, 61, 45
2, 74338, Note_on_c, 0, 61, 0
2, 74340, Note_on_c, 0, 59, 44
2, 74398, Note_on_c, 0, 59, 0
2, 74400, Note_on_c, 0, 57, 50
2, 74580, Note_on_c, 0, 57, 0
2, 74640, Note_on_c, 0, 93, 44
2, 74698, Note_on_c, 0, 93, 0
2, 74700, Note_on_c, 0, 91, 41
2, 74758, Note_on_c, 0, 91, 0
2, 74760, Note_on_c, 0, 89, 44
2, 74818, Note_on_c, 0, 89, 0
2, 74820, Note_on_c, 0, 88, 40
2, 74878, Note_on_c, 0, 88, 0
2, 74880, Note_on_c, 0, 89, 47
2, 75060, Note_on_c, 0, 89, 0
2, 75120, Note_on_c, 0, 69, 45
2, 75178, Note_on_c, 0, 69, 0
2, 75180, Note_on_c, 0, 67, 42
2, 75238, Note_on_c, 0, 67, 0
2, 75240, Note_on_c, 0, 65, 45
2, 75298, Note_on_c, 0, 65, 0
2, 75300, Note_on_c, 0, 64, 43
2, 75358, Note_on_c, 0, 64, 0
2, 75360, Note_on_c, 0, 62, 49
2, 75540, Note_on_c, 0, 62, 0
2, 75600, Note_on_c, 0, 101, 56
2, 75600, Note_on_c, 0, 93, 56
2, 75658, Note_on_c, 0, 93, 0
2, 75658, Note_on_c, 0, 101, 0
2, 75840, Note_on_c, 0, 98, 63
2, 75840, Note_on_c, 0, 89, 63
2, 75898, Note_on_c, 0, 89, 0
2, 75898, Note_on_c, 0, 98, 0
2, 76080, Note_on_c, 0, 62, 45
2, 76138, Note_on_c, 0, 62, 0
2, 76140, Note_on_c, 0, 60, 43
2, 76198, Note_on_c, 0, 60, 0
2, 76200, Note_on_c, 0, 59, 45
2, 76258, Note_on_c, 0, 59, 0
2, 76260, Note_on_c, 0, 57, 44
2, 76318, Note_on_c, 0, 57, 0
2, 76320, Note_on_c, 0, 55, 49
2, 76500, Note_on_c, 0, 55, 0
2, 76560, Note_on_c, 0, 91, 42
2, 76618, Note_on_c, 0, 91, 0
2, 76620, Note_on_c, 0, 89, 39
2, 76678, Note_on_c, 0, 89, 0
2, 76680, Note_on_c, 0, 88, 42
2, 76738, Note_on_c, 0, 88, 0
2, 76740, Note_on_c, 0, 86, 39
2, 76798, Note_on_c, 0, 86, 0
2, 76800, Note_on_c, 0, 88, 45
2, 76980, Note_on_c, 0, 88, 0
2, 77040, Note_on_c, 0, 67, 45
2, 77098, Note_on_c, 0, 67, 0
2, 77100, Note_on_c, 0, 65, 43
2, 77158, Note_on_c, 0, 65, 0
2, 77160, Note_on_c, 0, 64, 45
2, 77218, Note_on_c, 0, 64, 0
2, 77220, Note_on_c, 0, 62, 43
2, 77278, Note_on_c, 0, 62, 0
2, 77280, Note_on_c, 0, 60, 49
2, 77460, Note_on_c, 0, 60, 0
2, 77520, Note_on_c, 0, 100, 60
2, 77520, Note_on_c, 0, 91, 60
2, 77578, Note_on_c, 0, 91, 0
2, 77578, Note_on_c, 0, 100, 0
2, 77760, Note_on_c, 0, 98, 64
2, 77760, Note_on_c, 0, 89, 64
2, 77818, Note_on_c, 0, 89, 0
2, 77818, Note_on_c, 0, 98, 0
2, 78000, Note_on_c, 0, 74, 46
2, 78058, Note_on_c, 0, 74, 0
2, 78060, Note_on_c, 0, 72, 43
2, 78118, Note_on_c, 0, 72, 0
2, 78120, Note_on_c, 0, 71, 46
2, 78178, Note_on_c, 0, 71, 0
2, 78180, Note_on_c, 0, 69, 43
2, 78238, Note_on_c, 0, 69, 0
2, 78240, Note_on_c, 0, 68, 52
2, 78420, Note_on_c, 0, 68, 0
2, 78480, Note_on_c, 0, 98, 60
2, 78480, Note_on_c, 0, 89, 60
2, 78538, Note_on_c, 0, 89, 0
2, 78538, Note_on_c, 0, 98, 0
2, 78720, Note_on_c, 0, 96, 64
2, 78720, Note_on_c, 0, 88, 64
2, 78778, Note_on_c, 0, 88, 0
2, 78778, Note_on_c, 0, 96, 0
2, 78960, Note_on_c, 0, 76, 46
2, 79018, Note_on_c, 0, 76, 0
2, 79020, Note_on_c, 0, 74, 43
2, 79078, Note_on_c, 0, 74, 0
2, 79080, Note_on_c, 0, 72, 46
2, 79138, Note_on_c, 0, 72, 0
2, 79140, Note_on_c, 0, 71, 44
2, 79198, Note_on_c, 0, 71, 0
2, 79200, Note_on_c, 0, 69, 52
2, 79380, Note_on_c, 0, 69, 0
2, 79440, Note_on_c, 0, 72, 46
2, 79498, Note_on_c, 0, 72, 0
2, 79500, Note_on_c, 0, 71, 44
2, 79558, Note_on_c, 0, 71, 0
2, 79560, Note_on_c, 0, 69, 46
2, 79618, Note_on_c, 0, 69, 0
2, 79620, Note_on_c, 0, 67, 45
2, 79678, Note_on_c, 0, 67, 0
2, 79680, Note_on_c, 0, 65, 52
2, 79860, Note_on_c, 0, 65, 0
2, 79920, Note_on_c, 0, 69, 46
2, 79978, Note_on_c, 0, 69, 0
2, 79980, Note_on_c, 0, 67, 45
2, 80038, Note_on_c, 0, 67, 0
2, 80040, Note_on_c, 0, 65, 46
2, 80098, Note_on_c, 0, 65, 0
2, 80100, Note_on_c, 0, 64, 44
2, 80158, Note_on_c, 0, 64, 0
2, 80160, Note_on_c, 0, 63, 52
2, 80340, Note_on_c, 0, 63, 0
2, 80400, Note_on_c, 0, 96, 47
2, 80458, Note_on_c, 0, 96, 0
2, 80460, Note_on_c, 0, 93, 45
2, 80518, Note_on_c, 0, 93, 0
2, 80520, Note_on_c, 0, 89, 47
2, 80578, Note_on_c, 0, 89, 0
2, 80580, Note_on_c, 0, 87, 45
2, 80638, Note_on_c, 0, 87, 0
2, 80640, Note_on_c, 0, 88, 53
2, 80820, Note_on_c, 0, 88, 0
2, 80880, Note_on_c, 0, 76, 43
2, 80938, Note_on_c, 0, 76, 0
2, 80940, Note_on_c, 0, 71, 40
2, 80998, Note_on_c, 0, 71, 0
2, 81000, Note_on_c, 0, 68, 44
2, 81058, Note_on_c, 0, 68, 0
2, 81060, Note_on_c, 0, 71, 42
2, 81118, Note_on_c, 0, 71, 0
2, 81120, Note_on_c, 0, 64, 47
2, 81300, Note_on_c, 0, 64, 0
2, 81360, Note_on_c, 0, 67, 71
2, 81360, Note_on_c, 0, 79, 79
2, 81478, Note_on_c, 0, 79, 0
2, 81478, Note_on_c, 0, 67, 0
2, 81600, Note_on_c, 0, 72, 79
2, 81600, Note_on_c, 0, 84, 87
2, 82320, Note_on_c, 0, 84, 0
2, 82320, Note_on_c, 0, 72, 0
2, 82320, Note_on_c, 0, 67, 72
2, 82320, Note_on_c, 0, 79, 81
2, 82440, Note_on_c, 0, 79, 0
2, 82440, Note_on_c, 0, 67, 0
2, 82560, Note_on_c, 0, 64, 79
2, 82560, Note_on_c, 0, 76, 87
2, 82800, Note_on_c, 0, 76, 0
2, 82800, Note_on_c, 0, 64, 0
2, 82800, Note_on_c, 0, 60, 75
2, 82800, Note_on_c, 0, 72, 84
2, 83040, Note_on_c, 0, 72, 0
2, 83040, Note_on_c, 0, 60, 0
2, 83280, Note_on_c, 0, 60, 43
2, 83314, Note_on_c, 0, 62, 43
2, 83316, Note_on_c, 0, 60, 0
2, 83348, Note_on_c, 0, 64, 43
2, 83350, Note_on_c, 0, 62, 0
2, 83382, Note_on_c, 0, 65, 43
2, 83384, Note_on_c, 0, 64, 0
2, 83416, Note_on_c, 0, 67, 44
2, 83418, Note_on_c, 0, 65, 0
2, 83450, Note_on_c, 0, 69, 45
2, 83452, Note_on_c, 0, 67, 0
2, 83484, Note_on_c, 0, 71, 45
2, 83486, Note_on_c, 0, 69, 0
2, 83520, Note_on_c, 0, 71, 0
2, 83520, Note_on_c, 0, 72, 45
2, 83554, Note_on_c, 0, 74, 45
2, 83556, Note_on_c, 0, 72, 0
2, 83588, Note_on_c, 0, 76, 45
2, 83590, Note_on_c, 0, 74, 0
2, 83622, Note_on_c, 0, 77, 45
2, 83624, Note_on_c, 0, 76, 0
2, 83656, Note_on_c, 0, 79, 47
2, 83658, Note_on_c, 0, 77, 0
2, 83690, Note_on_c, 0, 81, 47
2, 83692, Note_on_c, 0, 79, 0
2, 83724, Note_on_c, 0, 83, 48
2, 83726, Note_on_c, 0, 81, 0
2, 83760, Note_on_c, 0, 83, 0
2, 83760, Note_on_c, 0, 84, 47
2, 83794, Note_on_c, 0, 86, 47
2, 83796, Note_on_c, 0, 84, 0
2, 83828, Note_on_c, 0, 88, 47
2, 83830, Note_on_c, 0, 86, 0
2, 83862, Note_on_c, 0, 89, 48
2, 83864, Note_on_c, 0, 88, 0
2, 83896, Note_on_c, 0, 91, 48
2, 83898, Note_on_c, 0, 89, 0
2, 83930, Note_on_c, 0, 93, 47
2, 83932, Note_on_c, 0, 91, 0
2, 83964, Note_on_c, 0, 95, 48
2, 83966, Note_on_c, 0, 93, 0
2, 84000, Note_on_c, 0, 95, 0
2, 84000, Note_on_c, 0, 96, 53
2, 84118, Note_on_c, 0, 96, 0
2, 84240, Note_on_c, 0, 100, 54
2, 84240, Note_on_c, 0, 89, 34
2, 84240, Note_on_c, 0, 93, 34
2, 84298, Note_on_c, 0, 93, 0
2, 84298, Note_on_c, 0, 89, 0
2, 84298, Note_on_c, 0, 100, 0
2, 84360, Note_on_c, 0, 89, 34
2, 84360, Note_on_c, 0, 93, 34
2, 84360, Note_on_c, 0, 98, 45
2, 84418, Note_on_c, 0, 98, 0
2, 84418, Note_on_c, 0, 93, 0
2, 84418, Note_on_c, 0, 89, 0
2, 84480, Note_on_c, 0, 96, 47
2, 84480, Note_on_c, 0, 88, 39
2, 84520, Note_on_c, 0, 96, 0
2, 84520, Note_on_c, 0, 98, 44
2, 84560, Note_on_c, 0, 98, 0
2, 84560, Note_on_c, 0, 96, 47
2, 84600, Note_on_c, 0, 96, 0
2, 84600, Note_on_c, 0, 98, 44
2, 84640, Note_on_c, 0, 98, 0
2, 84640, Note_on_c, 0, 96, 47
2, 84680, Note_on_c, 0, 96, 0
2, 84680, Note_on_c, 0, 98, 47
2, 84720, Note_on_c, 0, 98, 0
2, 84730, Note_on_c, 0, 96, 44
2, 84780, Note_on_c, 0, 96, 0
2, 84780, Note_on_c, 0, 95, 45
2, 84838, Note_on_c, 0, 95, 0
2, 84840, Note_on_c, 0, 98, 51
2, 84898, Note_on_c, 0, 98, 0
2, 84900, Note_on_c, 0, 96, 47
2, 84958, Note_on_c, 0, 96, 0
2, 84960, Note_on_c, 0, 88, 0
2, 84960, Note_on_c, 0, 95, 43
2, 84960, Note_on_c, 0, 86, 39
2, 85170, Note_on_c, 0, 86, 0
2, 85170, Note_on_c, 0, 95, 0
2, 85200, Note_on_c, 0, 62, 63
2, 85200, Note_on_c, 0, 74, 71
2, 85318, Note_on_c, 0, 74, 0
2, 85318, Note_on_c, 0, 62, 0
2, 85440, Note_on_c, 0, 65, 71
2, 85440, Note_on_c, 0, 77, 79
2, 86160, Note_on_c, 0, 77, 0
2, 86160, Note_on_c, 0, 65, 0
2, 86160, Note_on_c, 0, 62, 64
2, 86160, Note_on_c, 0, 74, 72
2, 86340, Note_on_c, 0, 74, 0
2, 86340, Note_on_c, 0, 62, 0
2, 86400, Note_on_c, 0, 59, 71
2, 86400, Note_on_c, 0, 71, 79
2, 86640, Note_on_c, 0, 71, 0
2, 86640, Note_on_c, 0, 59, 0
2, 86640, Note_on_c, 0, 55, 67
2, 86640, Note_on_c, 0, 67, 67
2, 86880, Note_on_c, 0, 67, 0
2, 86880, Note_on_c, 0, 55, 0
2, 87120, Note_on_c, 0, 59, 43
2, 87154, Note_on_c, 0, 60, 43
2, 87156, Note_on_c, 0, 59, 0
2, 87188, Note_on_c, 0, 62, 43
2, 87190, Note_on_c, 0, 60, 0
2, 87222, Note_on_c, 0, 64, 43
2, 87224, Note_on_c, 0, 62, 0
2, 87256, Note_on_c, 0, 65, 44
2, 87258, Note_on_c, 0, 64, 0
2, 87290, Note_on_c, 0, 67, 45
2, 87292, Note_on_c, 0, 65, 0
2, 87324, Note_on_c, 0, 69, 45
2, 87326, Note_on_c, 0, 67, 0
2, 87360, Note_on_c, 0, 69, 0
2, 87360, Note_on_c, 0, 71, 45
2, 87394, Note_on_c, 0, 72, 45
2, 87396, Note_on_c, 0, 71, 0
2, 87428, Note_on_c, 0, 74, 45
2, 87430, Note_on_c, 0, 72, 0
2, 87462, Note_on_c, 0, 76, 45
2, 87464, Note_on_c, 0, 74, 0
2, 87496, Note_on_c, 0, 77, 47
2, 87498, Note_on_c, 0, 76, 0
2, 87530, Note_on_c, 0, 79, 47
2, 87532, Note_on_c, 0, 77, 0
2, 87564, Note_on_c, 0, 81, 48
2, 87566, Note_on_c, 0, 79, 0
2, 87600, Note_on_c, 0, 81, 0
2, 87600, Note_on_c, 0, 83, 47
2, 87634, Note_on_c, 0, 84, 47
2, 87636, Note_on_c, 0, 83, 0
2, 87668, Note_on_c, 0, 86, 47
2, 87670, Note_on_c, 0, 84, 0
2, 87702, Note_on_c, 0, 88, 47
2, 87704, Note_on_c, 0, 86, 0
2, 87736, Note_on_c, 0, 89, 48
2, 87738, Note_on_c, 0, 88, 0
2, 87770, Note_on_c, 0, 91, 47
2, 87772, Note_on_c, 0, 89, 0
2, 87804, Note_on_c, 0, 93, 47
2, 87806, Note_on_c, 0, 91, 0
2, 87840, Note_on_c, 0, 93, 0
2, 87840, Note_on_c, 0, 95, 53
2, 87958, Note_on_c, 0, 95, 0
2, 88080, Note_on_c, 0, 101, 51
2, 88080, Note_on_c, 0, 93, 34
2, 88138, Note_on_c, 0, 93, 0
2, 88138, Note_on_c, 0, 101, 0
2, 88200, Note_on_c, 0, 91, 34
2, 88200, Note_on_c, 0, 100, 45
2, 88258, Note_on_c, 0, 100, 0
2, 88258, Note_on_c, 0, 91, 0
2, 88320, Note_on_c, 0, 98, 47
2, 88320, Note_on_c, 0, 89, 39
2, 88360, Note_on_c, 0, 98, 0
2, 88360, Note_on_c, 0, 100, 44
2, 88400, Note_on_c, 0, 100, 0
2, 88400, Note_on_c, 0, 98, 47
2, 88440, Note_on_c, 0, 98, 0
2, 88440, Note_on_c, 0, 100, 44
2, 88480, Note_on_c, 0, 100, 0
2, 88480, Note_on_c, 0, 98, 47
2, 88520, Note_on_c, 0, 98, 0
2, 88520, Note_on_c, 0, 100, 47
2, 88560, Note_on_c, 0, 100, 0
2, 88570, Note_on_c, 0, 98, 44
2, 88620, Note_on_c, 0, 98, 0
2, 88620, Note_on_c, 0, 97, 45
2, 88678, Note_on_c, 0, 97, 0
2, 88680, Note_on_c, 0, 100, 51
2, 88738, Note_on_c, 0, 100, 0
2, 88740, Note_on_c, 0, 98, 47
2, 88798, Note_on_c, 0, 98, 0
2, 88800, Note_on_c, 0, 89, 0
2, 88800, Note_on_c, 0, 96, 43
2, 88800, Note_on_c, 0, 88, 35
2, 89000, Note_on_c, 0, 88, 0
2, 89000, Note_on_c, 0, 96, 0
2, 89040, Note_on_c, 0, 91, 65
2, 89098, Note_on_c, 0, 91, 0
2, 89280, Note_on_c, 0, 96, 73
2, 89338, Note_on_c, 0, 96, 0
2, 89520, Note_on_c, 0, 67, 45
2, 89578, Note_on_c, 0, 67, 0
2, 89580, Note_on_c, 0, 65, 43
2, 89638, Note_on_c, 0, 65, 0
2, 89640, Note_on_c, 0, 64, 45
2, 89698, Note_on_c, 0, 64, 0
2, 89700, Note_on_c, 0, 62, 43
2, 89758, Note_on_c, 0, 62, 0
2, 89760, Note_on_c, 0, 60, 50
2, 89940, Note_on_c, 0, 60, 0
2, 90000, Note_on_c, 0, 84, 43
2, 90058, Note_on_c, 0, 84, 0
2, 90060, Note_on_c, 0, 88, 39
2, 90118, Note_on_c, 0, 88, 0
2, 90120, Note_on_c, 0, 91, 43
2, 90178, Note_on_c, 0, 91, 0
2, 90180, Note_on_c, 0, 88, 39
2, 90238, Note_on_c, 0, 88, 0
2, 90240, Note_on_c, 0, 89, 45
2, 90420, Note_on_c, 0, 89, 0
2, 90480, Note_on_c, 0, 72, 45
2, 90538, Note_on_c, 0, 72, 0
2, 90540, Note_on_c, 0, 70, 42
2, 90598, Note_on_c, 0, 70, 0
2, 90600, Note_on_c, 0, 69, 45
2, 90658, Note_on_c, 0, 69, 0
2, 90660, Note_on_c, 0, 67, 43
2, 90718, Note_on_c, 0, 67, 0
2, 90720, Note_on_c, 0, 65, 49
2, 90900, Note_on_c, 0, 65, 0
2, 90960, Note_on_c, 0, 101, 56
2, 90960, Note_on_c, 0, 93, 51
2, 91018, Note_on_c, 0, 93, 0
2, 91018, Note_on_c, 0, 101, 0
2, 91200, Note_on_c, 0, 98, 63
2, 91200, Note_on_c, 0, 90, 55
2, 91258, Note_on_c, 0, 90, 0
2, 91258, Note_on_c, 0, 98, 0
2, 91440, Note_on_c, 0, 69, 45
2, 91498, Note_on_c, 0, 69, 0
2, 91500, Note_on_c, 0, 67, 42
2, 91558, Note_on_c, 0, 67, 0
2, 91560, Note_on_c, 0, 66, 45
2, 91618, Note_on_c, 0, 66, 0
2, 91620, Note_on_c, 0, 64, 43
2, 91678, Note_on_c, 0, 64, 0
2, 91680, Note_on_c, 0, 62, 49
2, 91860, Note_on_c, 0, 62, 0
2, 91920, Note_on_c, 0, 86, 49
2, 91978, Note_on_c, 0, 86, 0
2, 91980, Note_on_c, 0, 90, 51
2, 92038, Note_on_c, 0, 90, 0
2, 92040, Note_on_c, 0, 93, 53
2, 92098, Note_on_c, 0, 93, 0
2, 92100, Note_on_c, 0, 90, 50
2, 92158, Note_on_c, 0, 90, 0
2, 92160, Note_on_c, 0, 91, 52
2, 92340, Note_on_c, 0, 91, 0
2, 92400, Note_on_c, 0, 74, 47
2, 92458, Note_on_c, 0, 74, 0
2, 92460, Note_on_c, 0, 72, 44
2, 92518, Note_on_c, 0, 72, 0
2, 92520, Note_on_c, 0, 71, 47
2, 92578, Note_on_c, 0, 71, 0
2, 92580, Note_on_c, 0, 69, 44
2, 92638, Note_on_c, 0, 69, 0
2, 92640, Note_on_c, 0, 67, 52
2, 92820, Note_on_c, 0, 67, 0
2, 92880, Note_on_c, 0, 103, 64
2, 92880, Note_on_c, 0, 95, 57
2, 92938, Note_on_c, 0, 95, 0
2, 92938, Note_on_c, 0, 103, 0
2, 93120, Note_on_c, 0, 100, 72
2, 93120, Note_on_c, 0, 92, 63
2, 93178, Note_on_c, 0, 92, 0
2, 93178, Note_on_c, 0, 100, 0
2, 93360, Note_on_c, 0, 71, 50
2, 93418, Note_on_c, 0, 71, 0
2, 93420, Note_on_c, 0, 69, 47
2, 93478, Note_on_c, 0, 69, 0
2, 93480, Note_on_c, 0, 68, 50
2, 93538, Note_on_c, 0, 68, 0
2, 93540, Note_on_c, 0, 66, 46
2, 93598, Note_on_c, 0, 66, 0
2, 93600, Note_on_c, 0, 64, 54
2, 93780, Note_on_c, 0, 64, 0
2, 93840, Note_on_c, 0, 88, 54
2, 93898, Note_on_c, 0, 88, 0
2, 93900, Note_on_c, 0, 92, 54
2, 93958, Note_on_c, 0, 92, 0
2, 93960, Note_on_c, 0, 95, 56
2, 94018, Note_on_c, 0, 95, 0
2, 94020, Note_on_c, 0, 92, 53
2, 94078, Note_on_c, 0, 92, 0
2, 94080, Note_on_c, 0, 93, 56
2, 94260, Note_on_c, 0, 93, 0
2, 94320, Note_on_c, 0, 76, 52
2, 94378, Note_on_c, 0, 76, 0
2, 94380, Note_on_c, 0, 74, 49
2, 94438, Note_on_c, 0, 74, 0
2, 94440, Note_on_c, 0, 72, 51
2, 94498, Note_on_c, 0, 72, 0
2, 94500, Note_on_c, 0, 71, 47
2, 94558, Note_on_c, 0, 71, 0
2, 94560, Note_on_c, 0, 69, 54
2, 94740, Note_on_c, 0, 69, 0
2, 94800, Note_on_c, 0, 76, 51
2, 94858, Note_on_c, 0, 76, 0
2, 94860, Note_on_c, 0, 72, 47
2, 94918, Note_on_c, 0, 72, 0
2, 94920, Note_on_c, 0, 69, 51
2, 94978, Note_on_c, 0, 69, 0
2, 94980, Note_on_c, 0, 67, 47
2, 95038, Note_on_c, 0, 67, 0
2, 95040, Note_on_c, 0, 65, 54
2, 95220, Note_on_c, 0, 65, 0
2, 95280, Note_on_c, 0, 89, 50
2, 95338, Note_on_c, 0, 89, 0
2, 95340, Note_on_c, 0, 93, 47
2, 95398, Note_on_c, 0, 93, 0
2, 95400, Note_on_c, 0, 96, 50
2, 95458, Note_on_c, 0, 96, 0
2, 95460, Note_on_c, 0, 93, 46
2, 95518, Note_on_c, 0, 93, 0
2, 95520, Note_on_c, 0, 89, 54
2, 95700, Note_on_c, 0, 89, 0
2, 95760, Note_on_c, 0, 77, 47
2, 95818, Note_on_c, 0, 77, 0
2, 95820, Note_on_c, 0, 72, 43
2, 95878, Note_on_c, 0, 72, 0
2, 95880, Note_on_c, 0, 69, 47
2, 95938, Note_on_c, 0, 69, 0
2, 95940, Note_on_c, 0, 65, 45
2, 95998, Note_on_c, 0, 65, 0
2, 96000, Note_on_c, 0, 64, 54
2, 96180, Note_on_c, 0, 64, 0
2, 96240, Note_on_c, 0, 88, 45
2, 96298, Note_on_c, 0, 88, 0
2, 96300, Note_on_c, 0, 93, 41
2, 96358, Note_on_c, 0, 93, 0
2, 96360, Note_on_c, 0, 96, 45
2, 96418, Note_on_c, 0, 96, 0
2, 96420, Note_on_c, 0, 93, 42
2, 96478, Note_on_c, 0, 93, 0
2, 96480, Note_on_c, 0, 88, 49
2, 96660, Note_on_c, 0, 88, 0
2, 96720, Note_on_c, 0, 76, 45
2, 96778, Note_on_c, 0, 76, 0
2, 96780, Note_on_c, 0, 72, 42
2, 96838, Note_on_c, 0, 72, 0
2, 96840, Note_on_c, 0, 69, 45
2, 96898, Note_on_c, 0, 69, 0
2, 96900, Note_on_c, 0, 64, 42
2, 96958, Note_on_c, 0, 64, 0
2, 96960, Note_on_c, 0, 63, 47
2, 97140, Note_on_c, 0, 63, 0
2, 97200, Note_on_c, 0, 87, 44
2, 97258, Note_on_c, 0, 87, 0
2, 97260, Note_on_c, 0, 93, 41
2, 97318, Note_on_c, 0, 93, 0
2, 97320, Note_on_c, 0, 96, 44
2, 97378, Note_on_c, 0, 96, 0
2, 97380, Note_on_c, 0, 93, 40
2, 97438, Note_on_c, 0, 93, 0
2, 97440, Note_on_c, 0, 87, 45
2, 97620, Note_on_c, 0, 87, 0
2, 97680, Note_on_c, 0, 75, 45
2, 97738, Note_on_c, 0, 75, 0
2, 97740, Note_on_c, 0, 72, 41
2, 97798, Note_on_c, 0, 72, 0
2, 97800, Note_on_c, 0, 69, 45
2, 97858, Note_on_c, 0, 69, 0
2, 97860, Note_on_c, 0, 66, 42
2, 97918, Note_on_c, 0, 66, 0
2, 97920, Note_on_c, 0, 64, 50
2, 98100, Note_on_c, 0, 64, 0
2, 98160, Note_on_c, 0, 88, 44
2, 98218, Note_on_c, 0, 88, 0
2, 98220, Note_on_c, 0, 91, 40
2, 98278, Note_on_c, 0, 91, 0
2, 98280, Note_on_c, 0, 95, 44
2, 98338, Note_on_c, 0, 95, 0
2, 98340, Note_on_c, 0, 91, 40
2, 98398, Note_on_c, 0, 91, 0
2, 98400, Note_on_c, 0, 88, 46
2, 98580, Note_on_c, 0, 88, 0
2, 98640, Note_on_c, 0, 71, 46
2, 98698, Note_on_c, 0, 71, 0
2, 98700, Note_on_c, 0, 67, 43
2, 98758, Note_on_c, 0, 67, 0
2, 98760, Note_on_c, 0, 64, 46
2, 98818, Note_on_c, 0, 64, 0
2, 98820, Note_on_c, 0, 62, 43
2, 98878, Note_on_c, 0, 62, 0
2, 98880, Note_on_c, 0, 60, 51
2, 99060, Note_on_c, 0, 60, 0
2, 99120, Note_on_c, 0, 84, 43
2, 99120, Note_on_c, 0, 88, 49
2, 99178, Note_on_c, 0, 88, 0
2, 99180, Note_on_c, 0, 91, 45
2, 99238, Note_on_c, 0, 91, 0
2, 99240, Note_on_c, 0, 96, 49
2, 99298, Note_on_c, 0, 96, 0
2, 99300, Note_on_c, 0, 91, 45
2, 99358, Note_on_c, 0, 91, 0
2, 99360, Note_on_c, 0, 84, 0
2, 99360, Note_on_c, 0, 84, 43
2, 99360, Note_on_c, 0, 88, 52
2, 99478, Note_on_c, 0, 88, 0
2, 99478, Note_on_c, 0, 84, 0
2, 99600, Note_on_c, 0, 72, 49
2, 99658, Note_on_c, 0, 72, 0
2, 99660, Note_on_c, 0, 67, 45
2, 99718, Note_on_c, 0, 67, 0
2, 99720, Note_on_c, 0, 64, 49
2, 99778, Note_on_c, 0, 64, 0
2, 99780, Note_on_c, 0, 60, 45
2, 99838, Note_on_c, 0, 60, 0
2, 99840, Note_on_c, 0, 59, 53
2, 100020, Note_on_c, 0, 59, 0
2, 100080, Note_on_c, 0, 83, 43
2, 100080, Note_on_c, 0, 88, 49
2, 100138, Note_on_c, 0, 88, 0
2, 100140, Note_on_c, 0, 91, 45
2, 100198, Note_on_c, 0, 91, 0
2, 100200, Note_on_c, 0, 95, 49
2, 100258, Note_on_c, 0, 95, 0
2, 100260, Note_on_c, 0, 91, 45
2, 100318, Note_on_c, 0, 91, 0
2, 100320, Note_on_c, 0, 83, 0
2, 100320, Note_on_c, 0, 83, 43
2, 100320, Note_on_c, 0, 88, 51
2, 100438, Note_on_c, 0, 88, 0
2, 100438, Note_on_c, 0, 83, 0
2, 100560, Note_on_c, 0, 71, 50
2, 100618, Note_on_c, 0, 71, 0
2, 100620, Note_on_c, 0, 67, 45
2, 100678, Note_on_c, 0, 67, 0
2, 100680, Note_on_c, 0, 64, 50
2, 100738, Note_on_c, 0, 64, 0
2, 100740, Note_on_c, 0, 59, 46
2, 100798, Note_on_c, 0, 59, 0
2, 100800, Note_on_c, 0, 58, 54
2, 100980, Note_on_c, 0, 58, 0
2, 101040, Note_on_c, 0, 82, 53
2, 101040, Note_on_c, 0, 88, 53
2, 101098, Note_on_c, 0, 88, 0
2, 101100, Note_on_c, 0, 91, 49
2, 101158, Note_on_c, 0, 91, 0
2, 101160, Note_on_c, 0, 94, 53
2, 101218, Note_on_c, 0, 94, 0
2, 101220, Note_on_c, 0, 91, 49
2, 101278, Note_on_c, 0, 91, 0
2, 101280, Note_on_c, 0, 82, 0
2, 101280, Note_on_c, 0, 82, 56
2, 101280, Note_on_c, 0, 88, 56
2, 101398, Note_on_c, 0, 88, 0
2, 101398, Note_on_c, 0, 82, 0
2, 101520, Note_on_c, 0, 70, 51
2, 101578, Note_on_c, 0, 70, 0
2, 101580, Note_on_c, 0, 67, 47
2, 101638, Note_on_c, 0, 67, 0
2, 101640, Note_on_c, 0, 64, 51
2, 101698, Note_on_c, 0, 64, 0
2, 101700, Note_on_c, 0, 61, 47
2, 101758, Note_on_c, 0, 61, 0
2, 101760, Note_on_c, 0, 59, 54
2, 101940, Note_on_c, 0, 59, 0
2, 102000, Note_on_c, 0, 87, 50
2, 102058, Note_on_c, 0, 87, 0
2, 102060, Note_on_c, 0, 95, 46
2, 102118, Note_on_c, 0, 95, 0
2, 102120, Note_on_c, 0, 90, 50
2, 102178, Note_on_c, 0, 90, 0
2, 102180, Note_on_c, 0, 87, 45
2, 102238, Note_on_c, 0, 87, 0
2, 102240, Note_on_c, 0, 83, 53
2, 102295, Note_on_c, 0, 83, 0
2, 102480, Note_on_c, 0, 81, 50
2, 102538, Note_on_c, 0, 81, 0
2, 102540, Note_on_c, 0, 83, 46
2, 102598, Note_on_c, 0, 83, 0
2, 102600, Note_on_c, 0, 81, 50
2, 102658, Note_on_c, 0, 81, 0
2, 102660, Note_on_c, 0, 78, 47
2, 102718, Note_on_c, 0, 78, 0
2, 102720, Note_on_c, 0, 76, 53
2, 102775, Note_on_c, 0, 76, 0
2, 102960, Note_on_c, 0, 76, 53
2, 103018, Note_on_c, 0, 76, 0
2, 103020, Note_on_c, 0, 79, 47
2, 103078, Note_on_c, 0, 79, 0
2, 103080, Note_on_c, 0, 76, 50
2, 103138, Note_on_c, 0, 76, 0
2, 103140, Note_on_c, 0, 74, 47
2, 103198, Note_on_c, 0, 74, 0
2, 103200, Note_on_c, 0, 72, 54
2, 103255, Note_on_c, 0, 72, 0
2, 103440, Note_on_c, 0, 72, 54
2, 103498, Note_on_c, 0, 72, 0
2, 103500, Note_on_c, 0, 76, 49
2, 103558, Note_on_c, 0, 76, 0
2, 103560, Note_on_c, 0, 72, 52
2, 103618, Note_on_c, 0, 72, 0
2, 103620, Note_on_c, 0, 70, 50
2, 103678, Note_on_c, 0, 70, 0
2, 103680, Note_on_c, 0, 71, 54
2, 103735, Note_on_c, 0, 71, 0
2, 103920, Note_on_c, 0, 75, 54
2, 103978, Note_on_c, 0, 75, 0
2, 103980, Note_on_c, 0, 83, 50
2, 104038, Note_on_c, 0, 83, 0
2, 104040, Note_on_c, 0, 78, 53
2, 104098, Note_on_c, 0, 78, 0
2, 104100, Note_on_c, 0, 75, 50
2, 104158, Note_on_c, 0, 75, 0
2, 104160, Note_on_c, 0, 71, 55
2, 104215, Note_on_c, 0, 71, 0
2, 104400, Note_on_c, 0, 69, 57
2, 104458, Note_on_c, 0, 69, 0
2, 104460, Note_on_c, 0, 71, 52
2, 104518, Note_on_c, 0, 71, 0
2, 104520, Note_on_c, 0, 69, 55
2, 104578, Note_on_c, 0, 69, 0
2, 104580, Note_on_c, 0, 66, 54
2, 104638, Note_on_c, 0, 66, 0
2, 104640, Note_on_c, 0, 64, 63
2, 104695, Note_on_c, 0, 64, 0
2, 104880, Note_on_c, 0, 64, 63
2, 104938, Note_on_c, 0, 64, 0
2, 104940, Note_on_c, 0, 67, 55
2, 104998, Note_on_c, 0, 67, 0
2, 105000, Note_on_c, 0, 64, 60
2, 105058, Note_on_c, 0, 64, 0
2, 105060, Note_on_c, 0, 62, 54
2, 105118, Note_on_c, 0, 62, 0
2, 105120, Note_on_c, 0, 60, 64
2, 105175, Note_on_c, 0, 60, 0
2, 105360, Note_on_c, 0, 60, 63
2, 105418, Note_on_c, 0, 60, 0
2, 105420, Note_on_c, 0, 64, 55
2, 105478, Note_on_c, 0, 64, 0
2, 105480, Note_on_c, 0, 60, 60
2, 105538, Note_on_c, 0, 60, 0
2, 105540, Note_on_c, 0, 58, 55
2, 105598, Note_on_c, 0, 58, 0
2, 105600, Note_on_c, 0, 59, 65
2, 105900, Note_on_c, 0, 63, 55
2, 105910, Note_on_c, 0, 59, 0
2, 105960, Note_on_c, 0, 66, 56
2, 105970, Note_on_c, 0, 63, 0
2, 106020, Note_on_c, 0, 70, 57
2, 106030, Note_on_c, 0, 66, 0
2, 106080, Note_on_c, 0, 70, 0
2, 106080, Note_on_c, 0, 71, 59
2, 106140, Note_on_c, 0, 75, 60
2, 106150, Note_on_c, 0, 71, 0
2, 106200, Note_on_c, 0, 78, 61
2, 106210, Note_on_c, 0, 75, 0
2, 106260, Note_on_c, 0, 82, 62
2, 106270, Note_on_c, 0, 78, 0
2, 106320, Note_on_c, 0, 82, 0
2, 106320, Note_on_c, 0, 83, 63
2, 106380, Note_on_c, 0, 87, 63
2, 106390, Note_on_c, 0, 83, 0
2, 106440, Note_on_c, 0, 90, 65
2, 106450, Note_on_c, 0, 87, 0
2, 106500, Note_on_c, 0, 94, 67
2, 106510, Note_on_c, 0, 90, 0
2, 106560, Note_on_c, 0, 94, 0
2, 106560, Note_on_c, 0, 95, 69
2, 106740, Note_on_c, 0, 95, 0
2, 107280, Note_on_c, 0, 92, 37
2, 107280, Note_on_c, 0, 95, 43
2, 107398, Note_on_c, 0, 95, 0
2, 107398, Note_on_c, 0, 92, 0
2, 107400, Note_on_c, 0, 90, 34
2, 107400, Note_on_c, 0, 93, 37
2, 107518, Note_on_c, 0, 93, 0
2, 107518, Note_on_c, 0, 90, 0
2, 107520, Note_on_c, 0, 88, 42
2, 107520, Note_on_c, 0, 92, 46
2, 107740, Note_on_c, 0, 92, 0
2, 107740, Note_on_c, 0, 88, 0
2, 107760, Note_on_c, 0, 88, 34
2, 107760, Note_on_c, 0, 92, 37
2, 107878, Note_on_c, 0, 92, 0
2, 107878, Note_on_c, 0, 88, 0
2, 107880, Note_on_c, 0, 83, 31
2, 107880, Note_on_c, 0, 90, 35
2, 107998, Note_on_c, 0, 90, 0
2, 107998, Note_on_c, 0, 83, 0
2, 108000, Note_on_c, 0, 80, 36
2, 108000, Note_on_c, 0, 88, 41
2, 108220, Note_on_c, 0, 88, 0
2, 108220, Note_on_c, 0, 80, 0
2, 108240, Note_on_c, 0, 83, 42
2, 108240, Note_on_c, 0, 80, 36
2, 108358, Note_on_c, 0, 80, 0
2, 108358, Note_on_c, 0, 83, 0
2, 108360, Note_on_c, 0, 78, 33
2, 108360, Note_on_c, 0, 81, 36
2, 108478, Note_on_c, 0, 81, 0
2, 108478, Note_on_c, 0, 78, 0
2, 108480, Note_on_c, 0, 76, 40
2, 108480, Note_on_c, 0, 80, 45
2, 108700, Note_on_c, 0, 80, 0
2, 108700, Note_on_c, 0, 76, 0
2, 108720, Note_on_c, 0, 76, 34
2, 108720, Note_on_c, 0, 80, 37
2, 108838, Note_on_c, 0, 80, 0
2, 108838, Note_on_c, 0, 76, 0
2, 108840, Note_on_c, 0, 71, 31
2, 108840, Note_on_c, 0, 78, 35
2, 108958, Note_on_c, 0, 78, 0
2, 108958, Note_on_c, 0, 71, 0
2, 108960, Note_on_c, 0, 68, 36
2, 108960, Note_on_c, 0, 76, 42
2, 109180, Note_on_c, 0, 76, 0
2, 109180, Note_on_c, 0, 68, 0
2, 109200, Note_on_c, 0, 68, 36
2, 109200, Note_on_c, 0, 76, 42
2, 109318, Note_on_c, 0, 76, 0
2, 109318, Note_on_c, 0, 68, 0
2, 109320, Note_on_c, 0, 71, 33
2, 109320, Note_on_c, 0, 78, 36
2, 109438, Note_on_c, 0, 78, 0
2, 109438, Note_on_c, 0, 71, 0
2, 109440, Note_on_c, 0, 76, 40
2, 109440, Note_on_c, 0, 80, 45
2, 109660, Note_on_c, 0, 80, 0
2, 109660, Note_on_c, 0, 76, 0
2, 109680, Note_on_c, 0, 71, 37
2, 109680, Note_on_c, 0, 78, 43
2, 109798, Note_on_c, 0, 78, 0
2, 109798, Note_on_c, 0, 71, 0
2, 109800, Note_on_c, 0, 76, 35
2, 109800, Note_on_c, 0, 80, 39
2, 109918, Note_on_c, 0, 80, 0
2, 109918, Note_on_c, 0, 76, 0
2, 109920, Note_on_c, 0, 78, 43
2, 109920, Note_on_c, 0, 81, 47
2, 110140, Note_on_c, 0, 81, 0
2, 110140, Note_on_c, 0, 78, 0
2, 110160, Note_on_c, 0, 71, 40
2, 110160, Note_on_c, 0, 78, 45
2, 110278, Note_on_c, 0, 78, 0
2, 110278, Note_on_c, 0, 71, 0
2, 110280, Note_on_c, 0, 78, 36
2, 110280, Note_on_c, 0, 81, 41
2, 110398, Note_on_c, 0, 81, 0
2, 110398, Note_on_c, 0, 78, 0
2, 110400, Note_on_c, 0, 80, 44
2, 110400, Note_on_c, 0, 83, 50
2, 110620, Note_on_c, 0, 83, 0
2, 110620, Note_on_c, 0, 80, 0
2, 110640, Note_on_c, 0, 78, 35
2, 110640, Note_on_c, 0, 81, 39
2, 110758, Note_on_c, 0, 81, 0
2, 110758, Note_on_c, 0, 78, 0
2, 110760, Note_on_c, 0, 76, 31
2, 110760, Note_on_c, 0, 80, 35
2, 110878, Note_on_c, 0, 80, 0
2, 110878, Note_on_c, 0, 76, 0
2, 110880, Note_on_c, 0, 71, 39
2, 110880, Note_on_c, 0, 78, 44
2, 111100, Note_on_c, 0, 78, 0
2, 111100, Note_on_c, 0, 71, 0
2, 111120, Note_on_c, 0, 92, 37
2, 111120, Note_on_c, 0, 95, 43
2, 111238, Note_on_c, 0, 95, 0
2, 111238, Note_on_c, 0, 92, 0
2, 111240, Note_on_c, 0, 90, 35
2, 111240, Note_on_c, 0, 93, 39
2, 111358, Note_on_c, 0, 93, 0
2, 111358, Note_on_c, 0, 90, 0
2, 111360, Note_on_c, 0, 88, 42
2, 111360, Note_on_c, 0, 92, 46
2, 111580, Note_on_c, 0, 92, 0
2, 111580, Note_on_c, 0, 88, 0
2, 111600, Note_on_c, 0, 88, 34
2, 111600, Note_on_c, 0, 92, 37
2, 111718, Note_on_c, 0, 92, 0
2, 111718, Note_on_c, 0, 88, 0
2, 111720, Note_on_c, 0, 83, 30
2, 111720, Note_on_c, 0, 90, 34
2, 111838, Note_on_c, 0, 90, 0
2, 111838, Note_on_c, 0, 83, 0
2, 111840, Note_on_c, 0, 80, 36
2, 111840, Note_on_c, 0, 88, 41
2, 112060, Note_on_c, 0, 88, 0
2, 112060, Note_on_c, 0, 80, 0
2, 112080, Note_on_c, 0, 83, 42
2, 112080, Note_on_c, 0, 80, 36
2, 112198, Note_on_c, 0, 80, 0
2, 112198, Note_on_c, 0, 83, 0
2, 112200, Note_on_c, 0, 78, 34
2, 112200, Note_on_c, 0, 81, 37
2, 112318, Note_on_c, 0, 81, 0
2, 112318, Note_on_c, 0, 78, 0
2, 112320, Note_on_c, 0, 76, 40
2, 112320, Note_on_c, 0, 80, 45
2, 112540, Note_on_c, 0, 80, 0
2, 112540, Note_on_c, 0, 76, 0
2, 112560, Note_on_c, 0, 76, 34
2, 112560, Note_on_c, 0, 80, 37
2, 112678, Note_on_c, 0, 80, 0
2, 112678, Note_on_c, 0, 76, 0
2, 112680, Note_on_c, 0, 71, 34
2, 112680, Note_on_c, 0, 78, 37
2, 112798, Note_on_c, 0, 78, 0
2, 112798, Note_on_c, 0, 71, 0
2, 112800, Note_on_c, 0, 68, 36
2, 112800, Note_on_c, 0, 76, 42
2, 113020, Note_on_c, 0, 76, 0
2, 113020, Note_on_c, 0, 68, 0
2, 113040, Note_on_c, 0, 68, 36
2, 113040, Note_on_c, 0, 76, 42
2, 113158, Note_on_c, 0, 76, 0
2, 113158, Note_on_c, 0, 68, 0
2, 113160, Note_on_c, 0, 71, 34
2, 113160, Note_on_c, 0, 78, 37
2, 113278, Note_on_c, 0, 78, 0
2, 113278, Note_on_c, 0, 71, 0
2, 113280, Note_on_c, 0, 76, 40
2, 113280, Note_on_c, 0, 80, 45
2, 113500, Note_on_c, 0, 80, 0
2, 113500, Note_on_c, 0, 76, 0
2, 113520, Note_on_c, 0, 78, 39
2, 113520, Note_on_c, 0, 81, 44
2, 113638, Note_on_c, 0, 81, 0
2, 113638, Note_on_c, 0, 78, 0
2, 113640, Note_on_c, 0, 76, 35
2, 113640, Note_on_c, 0, 80, 40
2, 113758, Note_on_c, 0, 80, 0
2, 113758, Note_on_c, 0, 76, 0
2, 113760, Note_on_c, 0, 71, 36
2, 113760, Note_on_c, 0, 78, 41
2, 113980, Note_on_c, 0, 78, 0
2, 113980, Note_on_c, 0, 71, 0
2, 114000, Note_on_c, 0, 76, 40
2, 114000, Note_on_c, 0, 80, 45
2, 114118, Note_on_c, 0, 80, 0
2, 114118, Note_on_c, 0, 76, 0
2, 114120, Note_on_c, 0, 71, 33
2, 114120, Note_on_c, 0, 78, 36
2, 114238, Note_on_c, 0, 78, 0
2, 114238, Note_on_c, 0, 71, 0
2, 114240, Note_on_c, 0, 68, 35
2, 114240, Note_on_c, 0, 76, 39
2, 114720, Note_on_c, 0, 76, 0
2, 114720, Note_on_c, 0, 68, 0
2, 114960, Note_on_c, 0, 56, 53
2, 114960, Note_on_c, 0, 64, 60
2, 115018, Note_on_c, 0, 64, 0
2, 115018, Note_on_c, 0, 56, 0
2, 115080, Note_on_c, 0, 64, 51
2, 115080, Note_on_c, 0, 68, 56
2, 115138, Note_on_c, 0, 68, 0
2, 115138, Note_on_c, 0, 64, 0
2, 115200, Note_on_c, 0, 59, 59
2, 115200, Note_on_c, 0, 66, 65
2, 115420, Note_on_c, 0, 66, 0
2, 115420, Note_on_c, 0, 59, 0
2, 115440, Note_on_c, 0, 64, 53
2, 115440, Note_on_c, 0, 68, 60
2, 115498, Note_on_c, 0, 68, 0
2, 115498, Note_on_c, 0, 64, 0
2, 115560, Note_on_c, 0, 66, 50
2, 115560, Note_on_c, 0, 69, 55
2, 115618, Note_on_c, 0, 69, 0
2, 115618, Note_on_c, 0, 66, 0
2, 115680, Note_on_c, 0, 68, 56
2, 115680, Note_on_c, 0, 71, 63
2, 115900, Note_on_c, 0, 71, 0
2, 115900, Note_on_c, 0, 68, 0
2, 115920, Note_on_c, 0, 69, 54
2, 115920, Note_on_c, 0, 73, 62
2, 115978, Note_on_c, 0, 73, 0
2, 115978, Note_on_c, 0, 69, 0
2, 116040, Note_on_c, 0, 68, 52
2, 116040, Note_on_c, 0, 71, 57
2, 116098, Note_on_c, 0, 71, 0
2, 116098, Note_on_c, 0, 68, 0
2, 116160, Note_on_c, 0, 66, 60
2, 116160, Note_on_c, 0, 69, 66
2, 116380, Note_on_c, 0, 69, 0
2, 116380, Note_on_c, 0, 66, 0
2, 116400, Note_on_c, 0, 64, 54
2, 116400, Note_on_c, 0, 68, 61
2, 116458, Note_on_c, 0, 68, 0
2, 116458, Note_on_c, 0, 64, 0
2, 116520, Note_on_c, 0, 66, 54
2, 116520, Note_on_c, 0, 69, 61
2, 116578, Note_on_c, 0, 69, 0
2, 116578, Note_on_c, 0, 66, 0
2, 116640, Note_on_c, 0, 59, 60
2, 116640, Note_on_c, 0, 66, 66
2, 116860, Note_on_c, 0, 66, 0
2, 116860, Note_on_c, 0, 59, 0
2, 116880, Note_on_c, 0, 56, 53
2, 116880, Note_on_c, 0, 64, 60
2, 116938, Note_on_c, 0, 64, 0
2, 116938, Note_on_c, 0, 56, 0
2, 117000, Note_on_c, 0, 64, 50
2, 117000, Note_on_c, 0, 68, 55
2, 117058, Note_on_c, 0, 68, 0
2, 117058, Note_on_c, 0, 64, 0
2, 117120, Note_on_c, 0, 59, 59
2, 117120, Note_on_c, 0, 66, 65
2, 117340, Note_on_c, 0, 66, 0
2, 117340, Note_on_c, 0, 59, 0
2, 117360, Note_on_c, 0, 64, 53
2, 117360, Note_on_c, 0, 68, 60
2, 117418, Note_on_c, 0, 68, 0
2, 117418, Note_on_c, 0, 64, 0
2, 117480, Note_on_c, 0, 66, 49
2, 117480, Note_on_c, 0, 69, 54
2, 117538, Note_on_c, 0, 69, 0
2, 117538, Note_on_c, 0, 66, 0
2, 117600, Note_on_c, 0, 68, 56
2, 117600, Note_on_c, 0, 71, 63
2, 117820, Note_on_c, 0, 71, 0
2, 117820, Note_on_c, 0, 68, 0
2, 117840, Note_on_c, 0, 69, 56
2, 117840, Note_on_c, 0, 73, 63
2, 117898, Note_on_c, 0, 73, 0
2, 117898, Note_on_c, 0, 69, 0
2, 117960, Note_on_c, 0, 68, 53
2, 117960, Note_on_c, 0, 71, 60
2, 118018, Note_on_c, 0, 71, 0
2, 118018, Note_on_c, 0, 68, 0
2, 118080, Note_on_c, 0, 66, 60
2, 118080, Note_on_c, 0, 69, 66
2, 118300, Note_on_c, 0, 69, 0
2, 118300, Note_on_c, 0, 66, 0
2, 118320, Note_on_c, 0, 64, 53
2, 118320, Note_on_c, 0, 68, 60
2, 118378, Note_on_c, 0, 68, 0
2, 118378, Note_on_c, 0, 64, 0
2, 118440, Note_on_c, 0, 66, 50
2, 118440, Note_on_c, 0, 69, 55
2, 118498, Note_on_c, 0, 69, 0
2, 118498, Note_on_c, 0, 66, 0
2, 118560, Note_on_c, 0, 59, 52
2, 118560, Note_on_c, 0, 66, 57
2, 118740, Note_on_c, 0, 66, 0
2, 118740, Note_on_c, 0, 59, 0
2, 118800, Note_on_c, 0, 92, 37
2, 118800, Note_on_c, 0, 95, 43
2, 118918, Note_on_c, 0, 95, 0
2, 118918, Note_on_c, 0, 92, 0
2, 118920, Note_on_c, 0, 90, 35
2, 118920, Note_on_c, 0, 93, 40
2, 119038, Note_on_c, 0, 93, 0
2, 119038, Note_on_c, 0, 90, 0
2, 119040, Note_on_c, 0, 88, 42
2, 119040, Note_on_c, 0, 92, 46
2, 119260, Note_on_c, 0, 92, 0
2, 119260, Note_on_c, 0, 88, 0
2, 119280, Note_on_c, 0, 88, 34
2, 119280, Note_on_c, 0, 92, 37
2, 119398, Note_on_c, 0, 92, 0
2, 119398, Note_on_c, 0, 88, 0
2, 119400, Note_on_c, 0, 83, 31
2, 119400, Note_on_c, 0, 90, 35
2, 119518, Note_on_c, 0, 90, 0
2, 119518, Note_on_c, 0, 83, 0
2, 119520, Note_on_c, 0, 80, 36
2, 119520, Note_on_c, 0, 88, 41
2, 119740, Note_on_c, 0, 88, 0
2, 119740, Note_on_c, 0, 80, 0
2, 119760, Note_on_c, 0, 83, 42
2, 119760, Note_on_c, 0, 80, 36
2, 119878, Note_on_c, 0, 80, 0
2, 119878, Note_on_c, 0, 83, 0
2, 119880, Note_on_c, 0, 78, 35
2, 119880, Note_on_c, 0, 81, 39
2, 119998, Note_on_c, 0, 81, 0
2, 119998, Note_on_c, 0, 78, 0
2, 120000, Note_on_c, 0, 76, 40
2, 120000, Note_on_c, 0, 80, 45
2, 120220, Note_on_c, 0, 80, 0
2, 120220, Note_on_c, 0, 76, 0
2, 120240, Note_on_c, 0, 76, 34
2, 120240, Note_on_c, 0, 80, 37
2, 120358, Note_on_c, 0, 80, 0
2, 120358, Note_on_c, 0, 76, 0
2, 120360, Note_on_c, 0, 71, 31
2, 120360, Note_on_c, 0, 78, 35
2, 120478, Note_on_c, 0, 78, 0
2, 120478, Note_on_c, 0, 71, 0
2, 120480, Note_on_c, 0, 68, 36
2, 120480, Note_on_c, 0, 76, 42
2, 120700, Note_on_c, 0, 76, 0
2, 120700, Note_on_c, 0, 68, 0
2, 120720, Note_on_c, 0, 56, 36
2, 120720, Note_on_c, 0, 64, 42
2, 120838, Note_on_c, 0, 64, 0
2, 120838, Note_on_c, 0, 56, 0
2, 120840, Note_on_c, 0, 59, 35
2, 120840, Note_on_c, 0, 66, 39
2, 120958, Note_on_c, 0, 66, 0
2, 120958, Note_on_c, 0, 59, 0
2, 120960, Note_on_c, 0, 64, 40
2, 120960, Note_on_c, 0, 68, 45
2, 121190, Note_on_c, 0, 68, 0
2, 121190, Note_on_c, 0, 64, 0
2, 121200, Note_on_c, 0, 66, 39
2, 121200, Note_on_c, 0, 69, 44
2, 121318, Note_on_c, 0, 69, 0
2, 121318, Note_on_c, 0, 66, 0
2, 121320, Note_on_c, 0, 64, 35
2, 121320, Note_on_c, 0, 68, 40
2, 121438, Note_on_c, 0, 68, 0
2, 121438, Note_on_c, 0, 64, 0
2, 121440, Note_on_c, 0, 59, 36
2, 121440, Note_on_c, 0, 66, 41
2, 121670, Note_on_c, 0, 66, 0
2, 121670, Note_on_c, 0, 59, 0
2, 121680, Note_on_c, 0, 64, 40
2, 121680, Note_on_c, 0, 68, 45
2, 121798, Note_on_c, 0, 68, 0
2, 121798, Note_on_c, 0, 64, 0
2, 121800, Note_on_c, 0, 59, 33
2, 121800, Note_on_c, 0, 66, 36
2, 121918, Note_on_c, 0, 66, 0
2, 121918, Note_on_c, 0, 59, 0
2, 121920, Note_on_c, 0, 56, 35
2, 121920, Note_on_c, 0, 64, 39
2, 122400, Note_on_c, 0, 64, 0
2, 122400, Note_on_c, 0, 56, 0
2, 122400, Note_on_c, 0, 59, 34
2, 122400, Note_on_c, 0, 66, 37
2, 122630, Note_on_c, 0, 66, 0
2, 122630, Note_on_c, 0, 59, 0
2, 122640, Note_on_c, 0, 64, 36
2, 122640, Note_on_c, 0, 68, 42
2, 122758, Note_on_c, 0, 68, 0
2, 122758, Note_on_c, 0, 64, 0
2, 122760, Note_on_c, 0, 59, 32
2, 122760, Note_on_c, 0, 66, 36
2, 122878, Note_on_c, 0, 66, 0
2, 122878, Note_on_c, 0, 59, 0
2, 122880, Note_on_c, 0, 56, 33
2, 122880, Note_on_c, 0, 64, 36
2, 123360, Note_on_c, 0, 64, 0
2, 123360, Note_on_c, 0, 56, 0
2, 123360, Note_on_c, 0, 59, 29
2, 123360, Note_on_c, 0, 66, 33
2, 123590, Note_on_c, 0, 66, 0
2, 123590, Note_on_c, 0, 59, 0
2, 123600, Note_on_c, 0, 64, 30
2, 123600, Note_on_c, 0, 68, 34
2, 123718, Note_on_c, 0, 68, 0
2, 123718, Note_on_c, 0, 64, 0
2, 123720, Note_on_c, 0, 59, 26
2, 123720, Note_on_c, 0, 66, 30
2, 123838, Note_on_c, 0, 66, 0
2, 123838, Note_on_c, 0, 59, 0
2, 123840, Note_on_c, 0, 56, 27
2, 123840, Note_on_c, 0, 64, 31
2, 124080, Note_on_c, 0, 64, 0
2, 124080, Note_on_c, 0, 56, 0
2, 124200, Note_on_c, 0, 64, 71
2, 124200, Note_on_c, 0, 68, 71
2, 124200, Note_on_c, 0, 76, 79
2, 124318, Note_on_c, 0, 76, 0
2, 124318, Note_on_c, 0, 68, 0
2, 124318, Note_on_c, 0, 64, 0
2, 124320, Note_on_c, 0, 64, 74
2, 124320, Note_on_c, 0, 68, 74
2, 124320, Note_on_c, 0, 76, 83
2, 124560, Note_on_c, 0, 76, 0
2, 124560, Note_on_c, 0, 68, 0
2, 124560, Note_on_c, 0, 64, 0
2, 124560, End_track
3, 0, Start_track
3, 0, Title_t, "Piano left"
3, 0, Program_c, 0, 0
3, 0, Control_c, 0, 7, 100
3, 0, Control_c, 0, 10, 64
3, 0, Control_c, 0, 64, 0
3, 719, Control_c, 0, 64, 0
3, 719, Control_c, 0, 91, 127
3, 16079, Control_c, 0, 91, 127
3, 16094, Control_c, 0, 64, 127
3, 16320, Note_on_c, 0, 52, 37
3, 16320, Note_on_c, 0, 59, 37
3, 16327, Control_c, 0, 64, 0
3, 16391, Control_c, 0, 64, 127
3, 16438, Note_on_c, 0, 59, 0
3, 16440, Note_on_c, 0, 64, 35
3, 16558, Note_on_c, 0, 64, 0
3, 16560, Note_on_c, 0, 71, 32
3, 16567, Control_c, 0, 64, 0
3, 16624, Control_c, 0, 64, 127
3, 16687, Control_c, 0, 64, 0
3, 16790, Note_on_c, 0, 71, 0
3, 16800, Note_on_c, 0, 52, 0
3, 16800, Note_on_c, 0, 71, 37
3, 16800, Note_on_c, 0, 64, 37
3, 16850, Control_c, 0, 64, 127
3, 16918, Note_on_c, 0, 64, 0
3, 16920, Note_on_c, 0, 59, 36
3, 17038, Note_on_c, 0, 59, 0
3, 17040, Note_on_c, 0, 52, 35
3, 17051, Control_c, 0, 64, 0
3, 17104, Control_c, 0, 64, 127
3, 17270, Note_on_c, 0, 52, 0
3, 17280, Note_on_c, 0, 71, 0
3, 17280, Note_on_c, 0, 52, 32
3, 17280, Note_on_c, 0, 59, 36
3, 17286, Control_c, 0, 64, 0
3, 17351, Control_c, 0, 64, 127
3, 17398, Note_on_c, 0, 59, 0
3, 17400, Note_on_c, 0, 64, 35
3, 17518, Note_on_c, 0, 64, 0
3, 17520, Note_on_c, 0, 71, 35
3, 17532, Control_c, 0, 64, 0
3, 17577, Control_c, 0, 64, 127
3, 17655, Control_c, 0, 64, 0
3, 17750, Note_on_c, 0, 71, 0
3, 17760, Note_on_c, 0, 52, 0
3, 17760, Note_on_c, 0, 64, 36
3, 17760, Note_on_c, 0, 71, 36
3, 17796, Control_c, 0, 64, 127
3, 17878, Note_on_c, 0, 64, 0
3, 17880, Note_on_c, 0, 59, 35
3, 17998, Note_on_c, 0, 59, 0
3, 18000, Note_on_c, 0, 52, 35
3, 18011, Control_c, 0, 64, 0
3, 18230, Note_on_c, 0, 52, 0
3, 18240, Note_on_c, 0, 71, 0
3, 18240, Control_c, 0, 64, 127
3, 18240, Note_on_c, 0, 59, 36
3, 18240, Note_on_c, 0, 52, 36
3, 18358, Note_on_c, 0, 52, 0
3, 18360, Note_on_c, 0, 64, 33
3, 18470, Note_on_c, 0, 59, 0
3, 18478, Note_on_c, 0, 64, 0
3, 18487, Control_c, 0, 64, 0
3, 18720, Note_on_c, 0, 63, 32
3, 18720, Note_on_c, 0, 71, 36
3, 18784, Control_c, 0, 64, 127
3, 18840, Note_on_c, 0, 59, 33
3, 18950, Note_on_c, 0, 71, 0
3, 18950, Note_on_c, 0, 63, 0
3, 18958, Note_on_c, 0, 59, 0
3, 18974, Control_c, 0, 64, 0
3, 19200, Note_on_c, 0, 52, 31
3, 19200, Note_on_c, 0, 59, 35
3, 19200, Control_c, 0, 64, 127
3, 19320, Note_on_c, 0, 64, 33
3, 19430, Note_on_c, 0, 59, 0
3, 19430, Note_on_c, 0, 52, 0
3, 19438, Note_on_c, 0, 64, 0
3, 19447, Control_c, 0, 64, 0
3, 19504, Control_c, 0, 64, 127
3, 19680, Note_on_c, 0, 66, 35
3, 19680, Note_on_c, 0, 63, 31
3, 19687, Control_c, 0, 64, 0
3, 19800, Note_on_c, 0, 59, 32
3, 19910, Note_on_c, 0, 63, 0
3, 19910, Note_on_c, 0, 66, 0
3, 19918, Note_on_c, 0, 59, 0
3, 19948, Control_c, 0, 64, 127
3, 20160, Note_on_c, 0, 59, 37
3, 20160, Note_on_c, 0, 52, 34
3, 20170, Control_c, 0, 64, 0
3, 20231, Control_c, 0, 64, 127
3, 20278, Note_on_c, 0, 59, 0
3, 20280, Note_on_c, 0, 64, 35
3, 20398, Note_on_c, 0, 64, 0
3, 20400, Note_on_c, 0, 71, 32
3, 20414, Control_c, 0, 64, 0
3, 20464, Control_c, 0, 64, 127
3, 20630, Note_on_c, 0, 71, 0
3, 20640, Note_on_c, 0, 52, 0
3, 20640, Note_on_c, 0, 64, 37
3, 20640, Note_on_c, 0, 71, 37
3, 20649, Control_c, 0, 64, 0
3, 20676, Control_c, 0, 64, 127
3, 20758, Note_on_c, 0, 64, 0
3, 20760, Note_on_c, 0, 59, 35
3, 20878, Note_on_c, 0, 59, 0
3, 20880, Note_on_c, 0, 52, 35
3, 20892, Control_c, 0, 64, 0
3, 20944, Control_c, 0, 64, 127
3, 21110, Note_on_c, 0, 52, 0
3, 21120, Note_on_c, 0, 71, 0
3, 21120, Note_on_c, 0, 52, 32
3, 21120, Note_on_c, 0, 59, 36
3, 21123, Control_c, 0, 64, 0
3, 21198, Control_c, 0, 64, 127
3, 21238, Note_on_c, 0, 59, 0
3, 21240, Note_on_c, 0, 64, 35
3, 21358, Note_on_c, 0, 64, 0
3, 21360, Note_on_c, 0, 71, 35
3, 21369, Control_c, 0, 64, 0
3, 21431, Control_c, 0, 64, 127
3, 21492, Control_c, 0, 64, 0
3, 21590, Note_on_c, 0, 71, 0
3, 21600, Note_on_c, 0, 52, 0
3, 21600, Note_on_c, 0, 64, 36
3, 21600, Note_on_c, 0, 71, 36
3, 21657, Control_c, 0, 64, 127
3, 21718, Note_on_c, 0, 64, 0
3, 21720, Note_on_c, 0, 59, 35
3, 21838, Note_on_c, 0, 59, 0
3, 21840, Note_on_c, 0, 52, 35
3, 21847, Control_c, 0, 64, 0
3, 22070, Note_on_c, 0, 52, 0
3, 22080, Note_on_c, 0, 71, 0
3, 22080, Control_c, 0, 64, 127
3, 22080, Note_on_c, 0, 59, 36
3, 22080, Note_on_c, 0, 52, 36
3, 22198, Note_on_c, 0, 52, 0
3, 22200, Note_on_c, 0, 64, 33
3, 22310, Note_on_c, 0, 59, 0
3, 22318, Note_on_c, 0, 64, 0
3, 22340, Control_c, 0, 64, 0
3, 22398, Control_c, 0, 64, 127
3, 22553, Control_c, 0, 64, 0
3, 22560, Note_on_c, 0, 69, 36
3, 22560, Note_on_c, 0, 63, 36
3, 22610, Control_c, 0, 64, 127
3, 22680, Note_on_c, 0, 59, 33
3, 22790, Note_on_c, 0, 63, 0
3, 22790, Note_on_c, 0, 69, 0
3, 22798, Note_on_c, 0, 59, 0
3, 22814, Control_c, 0, 64, 0
3, 23040, Note_on_c, 0, 52, 39
3, 23093, Control_c, 0, 64, 127
3, 23158, Note_on_c, 0, 52, 0
3, 23160, Note_on_c, 0, 59, 32
3, 23278, Note_on_c, 0, 59, 0
3, 23280, Note_on_c, 0, 68, 34
3, 23398, Note_on_c, 0, 68, 0
3, 23400, Note_on_c, 0, 64, 32
3, 23518, Note_on_c, 0, 64, 0
3, 23520, Note_on_c, 0, 71, 39
3, 23750, Note_on_c, 0, 71, 0
3, 23760, Control_c, 0, 64, 0
3, 27646, Control_c, 0, 64, 127
3, 27840, Control_c, 0, 64, 0
3, 27840, Note_on_c, 0, 52, 34
3, 27840, Note_on_c, 0, 59, 37
3, 27897, Control_c, 0, 64, 127
3, 27958, Note_on_c, 0, 59, 0
3, 27960, Note_on_c, 0, 64, 34
3, 28078, Note_on_c, 0, 64, 0
3, 28080, Note_on_c, 0, 71, 32
3, 28088, Control_c, 0, 64, 0
3, 28130, Control_c, 0, 64, 127
3, 28215, Control_c, 0, 64, 0
3, 28310, Note_on_c, 0, 71, 0
3, 28320, Note_on_c, 0, 52, 0
3, 28320, Note_on_c, 0, 71, 37
3, 28320, Note_on_c, 0, 64, 37
3, 28363, Control_c, 0, 64, 127
3, 28438, Note_on_c, 0, 64, 0
3, 28440, Note_on_c, 0, 59, 34
3, 28558, Note_on_c, 0, 59, 0
3, 28560, Note_on_c, 0, 52, 35
3, 28568, Control_c, 0, 64, 0
3, 28617, Control_c, 0, 64, 127
3, 28790, Note_on_c, 0, 52, 0
3, 28800, Note_on_c, 0, 71, 0
3, 28800, Note_on_c, 0, 52, 32
3, 28800, Note_on_c, 0, 59, 36
3, 28808, Control_c, 0, 64, 0
3, 28839, Control_c, 0, 64, 127
3, 28918, Note_on_c, 0, 59, 0
3, 28920, Note_on_c, 0, 64, 35
3, 29038, Note_on_c, 0, 64, 0
3, 29040, Note_on_c, 0, 71, 35
3, 29047, Control_c, 0, 64, 0
3, 29270, Note_on_c, 0, 71, 0
3, 29280, Note_on_c, 0, 52, 0
3, 29280, Note_on_c, 0, 71, 36
3, 29280, Note_on_c, 0, 64, 36
3, 29312, Control_c, 0, 64, 127
3, 29398, Note_on_c, 0, 64, 0
3, 29400, Note_on_c, 0, 59, 35
3, 29518, Note_on_c, 0, 59, 0
3, 29520, Note_on_c, 0, 52, 35
3, 29527, Control_c, 0, 64, 0
3, 29750, Note_on_c, 0, 52, 0
3, 29760, Note_on_c, 0, 71, 0
3, 31680, Note_on_c, 0, 40, 59
3, 31680, Note_on_c, 0, 47, 66
3, 31860, Note_on_c, 0, 47, 0
3, 31860, Note_on_c, 0, 40, 0
3, 32160, Note_on_c, 0, 39, 55
3, 32160, Note_on_c, 0, 47, 62
3, 32340, Note_on_c, 0, 47, 0
3, 32340, Note_on_c, 0, 39, 0
3, 32640, Note_on_c, 0, 40, 59
3, 32640, Note_on_c, 0, 47, 66
3, 32820, Note_on_c, 0, 47, 0
3, 32820, Note_on_c, 0, 40, 0
3, 33120, Note_on_c, 0, 36, 54
3, 33120, Note_on_c, 0, 48, 61
3, 33300, Note_on_c, 0, 48, 0
3, 33300, Note_on_c, 0, 36, 0
3, 33600, Note_on_c, 0, 35, 57
3, 33600, Note_on_c, 0, 47, 64
3, 33780, Note_on_c, 0, 47, 0
3, 33780, Note_on_c, 0, 35, 0
3, 34080, Note_on_c, 0, 34, 54
3, 34080, Note_on_c, 0, 46, 61
3, 34260, Note_on_c, 0, 46, 0
3, 34260, Note_on_c, 0, 34, 0
3, 34560, Note_on_c, 0, 35, 61
3, 34560, Note_on_c, 0, 47, 69
3, 35040, Note_on_c, 0, 47, 0
3, 35040, Note_on_c, 0, 35, 0
3, 35040, Note_on_c, 0, 35, 57
3, 35040, Note_on_c, 0, 47, 65
3, 35280, Note_on_c, 0, 47, 0
3, 35280, Note_on_c, 0, 35, 0
3, 35520, Note_on_c, 0, 31, 66
3, 35520, Note_on_c, 0, 43, 73
3, 35700, Note_on_c, 0, 43, 0
3, 35700, Note_on_c, 0, 31, 0
3, 36000, Note_on_c, 0, 38, 59
3, 36000, Note_on_c, 0, 50, 66
3, 36180, Note_on_c, 0, 50, 0
3, 36180, Note_on_c, 0, 38, 0
3, 36480, Note_on_c, 0, 43, 59
3, 36480, Note_on_c, 0, 55, 66
3, 36660, Note_on_c, 0, 55, 0
3, 36660, Note_on_c, 0, 43, 0
3, 36960, Note_on_c, 0, 36, 55
3, 36960, Note_on_c, 0, 48, 62
3, 37140, Note_on_c, 0, 48, 0
3, 37140, Note_on_c, 0, 36, 0
3, 37440, Note_on_c, 0, 38, 57
3, 37440, Note_on_c, 0, 50, 64
3, 37620, Note_on_c, 0, 50, 0
3, 37620, Note_on_c, 0, 38, 0
3, 37920, Note_on_c, 0, 38, 54
3, 37920, Note_on_c, 0, 50, 61
3, 38100, Note_on_c, 0, 50, 0
3, 38100, Note_on_c, 0, 38, 0
3, 38400, Note_on_c, 0, 31, 65
3, 38400, Note_on_c, 0, 43, 72
3, 38880, Note_on_c, 0, 43, 0
3, 38880, Note_on_c, 0, 31, 0
3, 39360, Note_on_c, 0, 51, 66
3, 39360, Note_on_c, 0, 39, 59
3, 39360, Note_on_c, 0, 47, 59
3, 39540, Note_on_c, 0, 47, 0
3, 39540, Note_on_c, 0, 39, 0
3, 39540, Note_on_c, 0, 51, 0
3, 39840, Note_on_c, 0, 47, 54
3, 39840, Note_on_c, 0, 40, 54
3, 39840, Note_on_c, 0, 52, 60
3, 40020, Note_on_c, 0, 52, 0
3, 40020, Note_on_c, 0, 40, 0
3, 40020, Note_on_c, 0, 47, 0
3, 40320, Note_on_c, 0, 42, 54
3, 40320, Note_on_c, 0, 35, 54
3, 40320, Note_on_c, 0, 47, 60
3, 40500, Note_on_c, 0, 47, 0
3, 40500, Note_on_c, 0, 35, 0
3, 40500, Note_on_c, 0, 42, 0
3, 40560, Note_on_c, 0, 47, 61
3, 40560, Note_on_c, 0, 59, 69
3, 40650, Note_on_c, 0, 59, 0
3, 40650, Note_on_c, 0, 47, 0
3, 40680, Note_on_c, 0, 48, 57
3, 40680, Note_on_c, 0, 60, 65
3, 40770, Note_on_c, 0, 60, 0
3, 40770, Note_on_c, 0, 48, 0
3, 40800, Note_on_c, 0, 47, 67
3, 40800, Note_on_c, 0, 59, 76
3, 40918, Note_on_c, 0, 59, 0
3, 40918, Note_on_c, 0, 47, 0
3, 41280, Note_on_c, 0, 51, 67
3, 41280, Note_on_c, 0, 39, 60
3, 41280, Note_on_c, 0, 47, 60
3, 41460, Note_on_c, 0, 47, 0
3, 41460, Note_on_c, 0, 39, 0
3, 41460, Note_on_c, 0, 51, 0
3, 41760, Note_on_c, 0, 47, 54
3, 41760, Note_on_c, 0, 40, 54
3, 41760, Note_on_c, 0, 52, 60
3, 41940, Note_on_c, 0, 52, 0
3, 41940, Note_on_c, 0, 40, 0
3, 41940, Note_on_c, 0, 47, 0
3, 42240, Note_on_c, 0, 42, 54
3, 42240, Note_on_c, 0, 35, 54
3, 42240, Note_on_c, 0, 47, 60
3, 42420, Note_on_c, 0, 47, 0
3, 42420, Note_on_c, 0, 35, 0
3, 42420, Note_on_c, 0, 42, 0
3, 42480, Note_on_c, 0, 58, 66
3, 42570, Note_on_c, 0, 58, 0
3, 42600, Note_on_c, 0, 60, 64
3, 42690, Note_on_c, 0, 60, 0
3, 42720, Note_on_c, 0, 59, 72
3, 42838, Note_on_c, 0, 59, 0
3, 43200, Note_on_c, 0, 56, 71
3, 43200, Note_on_c, 0, 44, 63
3, 43200, Note_on_c, 0, 52, 63
3, 43380, Note_on_c, 0, 52, 0
3, 43380, Note_on_c, 0, 44, 0
3, 43380, Note_on_c, 0, 56, 0
3, 43680, Note_on_c, 0, 52, 54
3, 43680, Note_on_c, 0, 45, 54
3, 43680, Note_on_c, 0, 57, 61
3, 43860, Note_on_c, 0, 57, 0
3, 43860, Note_on_c, 0, 45, 0
3, 43860, Note_on_c, 0, 52, 0
3, 44160, Note_on_c, 0, 54, 65
3, 44160, Note_on_c, 0, 42, 57
3, 44160, Note_on_c, 0, 50, 57
3, 44340, Note_on_c, 0, 50, 0
3, 44340, Note_on_c, 0, 42, 0
3, 44340, Note_on_c, 0, 54, 0
3, 44640, Note_on_c, 0, 50, 49
3, 44640, Note_on_c, 0, 43, 49
3, 44640, Note_on_c, 0, 55, 55
3, 44820, Note_on_c, 0, 55, 0
3, 44820, Note_on_c, 0, 43, 0
3, 44820, Note_on_c, 0, 50, 0
3, 45120, Note_on_c, 0, 48, 57
3, 45120, Note_on_c, 0, 40, 57
3, 45120, Note_on_c, 0, 52, 64
3, 45300, Note_on_c, 0, 52, 0
3, 45300, Note_on_c, 0, 40, 0
3, 45300, Note_on_c, 0, 48, 0
3, 45600, Note_on_c, 0, 48, 46
3, 45600, Note_on_c, 0, 42, 46
3, 45600, Note_on_c, 0, 54, 52
3, 45780, Note_on_c, 0, 54, 0
3, 45780, Note_on_c, 0, 42, 0
3, 45780, Note_on_c, 0, 48, 0
3, 46080, Note_on_c, 0, 51, 58
3, 46080, Note_on_c, 0, 39, 52
3, 46080, Note_on_c, 0, 47, 52
3, 46260, Note_on_c, 0, 47, 0
3, 46260, Note_on_c, 0, 39, 0
3, 46260, Note_on_c, 0, 51, 0
3, 46560, Note_on_c, 0, 47, 47
3, 46560, Note_on_c, 0, 40, 47
3, 46560, Note_on_c, 0, 52, 54
3, 46740, Note_on_c, 0, 52, 0
3, 46740, Note_on_c, 0, 40, 0
3, 46740, Note_on_c, 0, 47, 0
3, 47040, Note_on_c, 0, 36, 46
3, 47040, Note_on_c, 0, 48, 52
3, 47220, Note_on_c, 0, 48, 0
3, 47220, Note_on_c, 0, 36, 0
3, 47520, Note_on_c, 0, 46, 57
3, 47520, Note_on_c, 0, 34, 51
3, 47700, Note_on_c, 0, 34, 0
3, 47700, Note_on_c, 0, 46, 0
3, 48000, Note_on_c, 0, 35, 54
3, 48000, Note_on_c, 0, 47, 61
3, 48180, Note_on_c, 0, 47, 0
3, 48180, Note_on_c, 0, 35, 0
3, 48480, Note_on_c, 0, 48, 49
3, 48480, Note_on_c, 0, 36, 44
3, 48660, Note_on_c, 0, 36, 0
3, 48660, Note_on_c, 0, 48, 0
3, 48960, Note_on_c, 0, 33, 50
3, 48960, Note_on_c, 0, 45, 56
3, 49140, Note_on_c, 0, 45, 0
3, 49140, Note_on_c, 0, 33, 0
3, 49200, Note_on_c, 0, 60, 49
3, 49258, Note_on_c, 0, 60, 0
3, 49320, Note_on_c, 0, 57, 49
3, 49378, Note_on_c, 0, 57, 0
3, 49440, Note_on_c, 0, 35, 51
3, 49440, Note_on_c, 0, 47, 57
3, 49620, Note_on_c, 0, 47, 0
3, 49620, Note_on_c, 0, 35, 0
3, 49680, Note_on_c, 0, 57, 54
3, 49738, Note_on_c, 0, 57, 0
3, 49800, Note_on_c, 0, 54, 51
3, 49860, Note_on_c, 0, 54, 0
3, 49920, Note_on_c, 0, 40, 60
3, 49920, Note_on_c, 0, 52, 67
3, 50400, Note_on_c, 0, 52, 0
3, 50400, Note_on_c, 0, 40, 0
3, 50690, Control_c, 0, 64, 127
3, 50880, Note_on_c, 0, 52, 34
3, 50880, Note_on_c, 0, 59, 37
3, 50888, Control_c, 0, 64, 0
3, 50958, Control_c, 0, 64, 127
3, 50998, Note_on_c, 0, 59, 0
3, 51000, Note_on_c, 0, 64, 35
3, 51118, Note_on_c, 0, 64, 0
3, 51120, Note_on_c, 0, 71, 32
3, 51129, Control_c, 0, 64, 0
3, 51170, Control_c, 0, 64, 127
3, 51350, Note_on_c, 0, 71, 0
3, 51360, Note_on_c, 0, 52, 0
3, 51360, Control_c, 0, 64, 0
3, 51360, Note_on_c, 0, 64, 37
3, 51360, Note_on_c, 0, 71, 37
3, 51403, Control_c, 0, 64, 127
3, 51478, Note_on_c, 0, 64, 0
3, 51480, Note_on_c, 0, 59, 36
3, 51598, Note_on_c, 0, 59, 0
3, 51600, Note_on_c, 0, 52, 35
3, 51609, Control_c, 0, 64, 0
3, 51664, Control_c, 0, 64, 127
3, 51830, Note_on_c, 0, 52, 0
3, 51840, Note_on_c, 0, 71, 0
3, 51840, Control_c, 0, 64, 0
3, 51840, Note_on_c, 0, 52, 32
3, 51840, Note_on_c, 0, 59, 36
3, 51883, Control_c, 0, 64, 127
3, 51958, Note_on_c, 0, 59, 0
3, 51960, Note_on_c, 0, 64, 35
3, 52078, Note_on_c, 0, 64, 0
3, 52080, Note_on_c, 0, 71, 35
3, 52089, Control_c, 0, 64, 0
3, 52137, Control_c, 0, 64, 127
3, 52193, Control_c, 0, 64, 0
3, 52310, Note_on_c, 0, 71, 0
3, 52320, Note_on_c, 0, 52, 0
3, 52320, Note_on_c, 0, 64, 36
3, 52320, Note_on_c, 0, 71, 36
3, 52391, Control_c, 0, 64, 127
3, 52438, Note_on_c, 0, 64, 0
3, 52440, Note_on_c, 0, 59, 35
3, 52558, Note_on_c, 0, 59, 0
3, 52560, Note_on_c, 0, 52, 35
3, 52570, Control_c, 0, 64, 0
3, 52624, Control_c, 0, 64, 127
3, 52692, Control_c, 0, 64, 0
3, 52790, Note_on_c, 0, 52, 0
3, 52800, Note_on_c, 0, 71, 0
3, 52800, Control_c, 0, 64, 127
3, 52800, Note_on_c, 0, 52, 36
3, 52800, Note_on_c, 0, 59, 32
3, 52918, Note_on_c, 0, 52, 0
3, 52920, Note_on_c, 0, 64, 33
3, 53030, Note_on_c, 0, 59, 0
3, 53038, Note_on_c, 0, 64, 0
3, 53047, Control_c, 0, 64, 0
3, 53104, Control_c, 0, 64, 127
3, 53176, Control_c, 0, 64, 0
3, 53280, Note_on_c, 0, 71, 36
3, 53280, Note_on_c, 0, 63, 32
3, 53344, Control_c, 0, 64, 127
3, 53400, Note_on_c, 0, 59, 36
3, 53510, Note_on_c, 0, 63, 0
3, 53510, Note_on_c, 0, 71, 0
3, 53518, Note_on_c, 0, 59, 0
3, 53533, Control_c, 0, 64, 0
3, 53584, Control_c, 0, 64, 127
3, 53652, Control_c, 0, 64, 0
3, 53760, Note_on_c, 0, 52, 31
3, 53760, Note_on_c, 0, 59, 35
3, 53831, Control_c, 0, 64, 127
3, 53880, Note_on_c, 0, 64, 33
3, 53990, Note_on_c, 0, 59, 0
3, 53990, Note_on_c, 0, 52, 0
3, 53998, Note_on_c, 0, 64, 0
3, 54007, Control_c, 0, 64, 0
3, 54064, Control_c, 0, 64, 127
3, 54240, Note_on_c, 0, 63, 31
3, 54240, Note_on_c, 0, 66, 35
3, 54247, Control_c, 0, 64, 0
3, 54318, Control_c, 0, 64, 127
3, 54360, Note_on_c, 0, 59, 33
3, 54470, Note_on_c, 0, 66, 0
3, 54470, Note_on_c, 0, 63, 0
3, 54478, Note_on_c, 0, 59, 0
3, 54487, Control_c, 0, 64, 0
3, 54551, Control_c, 0, 64, 127
3, 54720, Control_c, 0, 64, 0
3, 54720, Note_on_c, 0, 52, 34
3, 54720, Note_on_c, 0, 59, 37
3, 54812, Control_c, 0, 64, 127
3, 54838, Note_on_c, 0, 59, 0
3, 54840, Note_on_c, 0, 64, 35
3, 54958, Note_on_c, 0, 64, 0
3, 54960, Note_on_c, 0, 71, 32
3, 54975, Control_c, 0, 64, 0
3, 55031, Control_c, 0, 64, 127
3, 55086, Control_c, 0, 64, 0
3, 55190, Note_on_c, 0, 71, 0
3, 55200, Note_on_c, 0, 52, 0
3, 55200, Note_on_c, 0, 64, 37
3, 55200, Note_on_c, 0, 71, 37
3, 55257, Control_c, 0, 64, 127
3, 55318, Note_on_c, 0, 64, 0
3, 55320, Note_on_c, 0, 59, 35
3, 55438, Note_on_c, 0, 59, 0
3, 55440, Note_on_c, 0, 52, 35
3, 55450, Control_c, 0, 64, 0
3, 55532, Control_c, 0, 64, 127
3, 55670, Note_on_c, 0, 52, 0
3, 55680, Note_on_c, 0, 71, 0
3, 55680, Note_on_c, 0, 52, 32
3, 55680, Note_on_c, 0, 59, 36
3, 55685, Control_c, 0, 64, 0
3, 55751, Control_c, 0, 64, 127
3, 55798, Note_on_c, 0, 59, 0
3, 55800, Note_on_c, 0, 64, 35
3, 55918, Note_on_c, 0, 64, 0
3, 55920, Note_on_c, 0, 71, 35
3, 55933, Control_c, 0, 64, 0
3, 55984, Control_c, 0, 64, 127
3, 56047, Control_c, 0, 64, 0
3, 56150, Note_on_c, 0, 71, 0
3, 56160, Note_on_c, 0, 52, 0
3, 56160, Note_on_c, 0, 64, 36
3, 56160, Note_on_c, 0, 71, 36
3, 56196, Control_c, 0, 64, 127
3, 56278, Note_on_c, 0, 64, 0
3, 56280, Note_on_c, 0, 59, 35
3, 56398, Note_on_c, 0, 59, 0
3, 56400, Note_on_c, 0, 52, 35
3, 56408, Control_c, 0, 64, 0
3, 56630, Note_on_c, 0, 52, 0
3, 56640, Note_on_c, 0, 71, 0
3, 56640, Control_c, 0, 64, 127
3, 56640, Note_on_c, 0, 52, 36
3, 56640, Note_on_c, 0, 59, 32
3, 56758, Note_on_c, 0, 52, 0
3, 56760, Note_on_c, 0, 64, 33
3, 56870, Note_on_c, 0, 59, 0
3, 56878, Note_on_c, 0, 64, 0
3, 56894, Control_c, 0, 64, 0
3, 56944, Control_c, 0, 64, 127
3, 57120, Note_on_c, 0, 69, 36
3, 57120, Note_on_c, 0, 63, 32
3, 57128, Control_c, 0, 64, 0
3, 57177, Control_c, 0, 64, 127
3, 57240, Note_on_c, 0, 59, 33
3, 57350, Note_on_c, 0, 63, 0
3, 57350, Note_on_c, 0, 69, 0
3, 57358, Note_on_c, 0, 59, 0
3, 57370, Control_c, 0, 64, 0
3, 57417, Control_c, 0, 64, 127
3, 57493, Control_c, 0, 64, 0
3, 57600, Note_on_c, 0, 52, 39
3, 57639, Control_c, 0, 64, 127
3, 57718, Note_on_c, 0, 52, 0
3, 57720, Note_on_c, 0, 59, 32
3, 57838, Note_on_c, 0, 59, 0
3, 57840, Note_on_c, 0, 68, 34
3, 57958, Note_on_c, 0, 68, 0
3, 57960, Note_on_c, 0, 64, 32
3, 58078, Note_on_c, 0, 64, 0
3, 58080, Note_on_c, 0, 71, 39
3, 58306, Control_c, 0, 64, 0
3, 58310, Note_on_c, 0, 71, 0
3, 62185, Control_c, 0, 64, 127
3, 62400, Note_on_c, 0, 52, 34
3, 62400, Note_on_c, 0, 59, 37
3, 62408, Control_c, 0, 64, 0
3, 62499, Control_c, 0, 64, 127
3, 62518, Note_on_c, 0, 59, 0
3, 62520, Note_on_c, 0, 64, 34
3, 62638, Note_on_c, 0, 64, 0
3, 62640, Note_on_c, 0, 71, 32
3, 62647, Control_c, 0, 64, 0
3, 62718, Control_c, 0, 64, 127
3, 62870, Note_on_c, 0, 71, 0
3, 62880, Note_on_c, 0, 52, 0
3, 62880, Note_on_c, 0, 64, 37
3, 62880, Note_on_c, 0, 71, 37
3, 62887, Control_c, 0, 64, 0
3, 62951, Control_c, 0, 64, 127
3, 62998, Note_on_c, 0, 64, 0
3, 63000, Note_on_c, 0, 59, 34
3, 63118, Note_on_c, 0, 59, 0
3, 63120, Note_on_c, 0, 52, 35
3, 63132, Control_c, 0, 64, 0
3, 63205, Control_c, 0, 64, 127
3, 63350, Note_on_c, 0, 52, 0
3, 63360, Note_on_c, 0, 71, 0
3, 63360, Note_on_c, 0, 52, 32
3, 63360, Note_on_c, 0, 59, 36
3, 63367, Control_c, 0, 64, 0
3, 63403, Control_c, 0, 64, 127
3, 63478, Note_on_c, 0, 59, 0
3, 63480, Note_on_c, 0, 64, 35
3, 63598, Note_on_c, 0, 64, 0
3, 63600, Note_on_c, 0, 71, 35
3, 63619, Control_c, 0, 64, 0
3, 63650, Control_c, 0, 64, 127
3, 63727, Control_c, 0, 64, 0
3, 63830, Note_on_c, 0, 71, 0
3, 63840, Note_on_c, 0, 52, 0
3, 63840, Note_on_c, 0, 64, 36
3, 63840, Note_on_c, 0, 71, 36
3, 63876, Control_c, 0, 64, 127
3, 63958, Note_on_c, 0, 64, 0
3, 63960, Note_on_c, 0, 59, 35
3, 64078, Note_on_c, 0, 59, 0
3, 64080, Note_on_c, 0, 52, 35
3, 64090, Control_c, 0, 64, 0
3, 64310, Note_on_c, 0, 52, 0
3, 64320, Note_on_c, 0, 71, 0
3, 66000, Note_on_c, 0, 40, 71
3, 66000, Note_on_c, 0, 52, 71
3, 66118, Note_on_c, 0, 52, 0
3, 66118, Note_on_c, 0, 40, 0
3, 66240, Note_on_c, 0, 45, 77
3, 66240, Note_on_c, 0, 57, 77
3, 66960, Note_on_c, 0, 57, 0
3, 66960, Note_on_c, 0, 45, 0
3, 66960, Note_on_c, 0, 40, 72
3, 66960, Note_on_c, 0, 52, 72
3, 67080, Note_on_c, 0, 52, 0
3, 67080, Note_on_c, 0, 40, 0
3, 67200, Note_on_c, 0, 36, 79
3, 67200, Note_on_c, 0, 48, 79
3, 67440, Note_on_c, 0, 48, 0
3, 67440, Note_on_c, 0, 36, 0
3, 67440, Note_on_c, 0, 33, 75
3, 67440, Note_on_c, 0, 45, 75
3, 67680, Note_on_c, 0, 45, 0
3, 67680, Note_on_c, 0, 33, 0
3, 67920, Note_on_c, 0, 48, 36
3, 67952, Control_c, 0, 64, 127
3, 67954, Note_on_c, 0, 50, 36
3, 67956, Note_on_c, 0, 48, 0
3, 67988, Note_on_c, 0, 52, 36
3, 67990, Note_on_c, 0, 50, 0
3, 68022, Note_on_c, 0, 53, 37
3, 68024, Note_on_c, 0, 52, 0
3, 68056, Note_on_c, 0, 55, 38
3, 68058, Note_on_c, 0, 53, 0
3, 68090, Note_on_c, 0, 57, 38
3, 68092, Note_on_c, 0, 55, 0
3, 68124, Note_on_c, 0, 59, 40
3, 68126, Note_on_c, 0, 57, 0
3, 68160, Note_on_c, 0, 59, 0
3, 68160, Note_on_c, 0, 60, 41
3, 68194, Note_on_c, 0, 62, 41
3, 68196, Note_on_c, 0, 60, 0
3, 68228, Note_on_c, 0, 64, 41
3, 68230, Note_on_c, 0, 62, 0
3, 68262, Note_on_c, 0, 65, 41
3, 68264, Note_on_c, 0, 64, 0
3, 68296, Note_on_c, 0, 67, 42
3, 68298, Note_on_c, 0, 65, 0
3, 68330, Note_on_c, 0, 69, 43
3, 68332, Note_on_c, 0, 67, 0
3, 68364, Note_on_c, 0, 71, 43
3, 68366, Note_on_c, 0, 69, 0
3, 68400, Note_on_c, 0, 71, 0
3, 68400, Note_on_c, 0, 72, 42
3, 68434, Note_on_c, 0, 74, 43
3, 68436, Note_on_c, 0, 72, 0
3, 68468, Note_on_c, 0, 76, 43
3, 68470, Note_on_c, 0, 74, 0
3, 68502, Note_on_c, 0, 77, 43
3, 68504, Note_on_c, 0, 76, 0
3, 68536, Note_on_c, 0, 79, 44
3, 68538, Note_on_c, 0, 77, 0
3, 68570, Note_on_c, 0, 81, 42
3, 68572, Note_on_c, 0, 79, 0
3, 68604, Note_on_c, 0, 83, 42
3, 68606, Note_on_c, 0, 81, 0
3, 68640, Note_on_c, 0, 83, 0
3, 68640, Note_on_c, 0, 84, 48
3, 68649, Control_c, 0, 64, 0
3, 68758, Note_on_c, 0, 84, 0
3, 68880, Note_on_c, 0, 83, 32
3, 68880, Note_on_c, 0, 74, 27
3, 68880, Note_on_c, 0, 77, 27
3, 68938, Note_on_c, 0, 77, 0
3, 68938, Note_on_c, 0, 74, 0
3, 68938, Note_on_c, 0, 83, 0
3, 69000, Note_on_c, 0, 74, 27
3, 69000, Note_on_c, 0, 77, 27
3, 69000, Note_on_c, 0, 83, 32
3, 69058, Note_on_c, 0, 83, 0
3, 69058, Note_on_c, 0, 77, 0
3, 69058, Note_on_c, 0, 74, 0
3, 69060, Note_on_c, 0, 64, 36
3, 69118, Note_on_c, 0, 64, 0
3, 69120, Note_on_c, 0, 81, 36
3, 69120, Note_on_c, 0, 72, 32
3, 69120, Note_on_c, 0, 76, 32
3, 69140, Control_c, 0, 64, 127
3, 69600, Note_on_c, 0, 76, 0
3, 69600, Note_on_c, 0, 72, 0
3, 69600, Note_on_c, 0, 81, 0
3, 69600, Note_on_c, 0, 71, 26
3, 69600, Note_on_c, 0, 76, 26
3, 69600, Note_on_c, 0, 80, 30
3, 69618, Control_c, 0, 64, 0
3, 69810, Note_on_c, 0, 80, 0
3, 69810, Note_on_c, 0, 76, 0
3, 69810, Note_on_c, 0, 71, 0
3, 69840, Note_on_c, 0, 38, 71
3, 69840, Note_on_c, 0, 50, 71
3, 69958, Note_on_c, 0, 50, 0
3, 69958, Note_on_c, 0, 38, 0
3, 70080, Note_on_c, 0, 41, 77
3, 70080, Note_on_c, 0, 53, 77
3, 70800, Note_on_c, 0, 53, 0
3, 70800, Note_on_c, 0, 41, 0
3, 70800, Note_on_c, 0, 38, 72
3, 70800, Note_on_c, 0, 50, 72
3, 70920, Note_on_c, 0, 50, 0
3, 70920, Note_on_c, 0, 38, 0
3, 71040, Note_on_c, 0, 35, 79
3, 71040, Note_on_c, 0, 47, 79
3, 71270, Note_on_c, 0, 47, 0
3, 71270, Note_on_c, 0, 35, 0
3, 71280, Note_on_c, 0, 32, 74
3, 71280, Note_on_c, 0, 44, 74
3, 71520, Note_on_c, 0, 44, 0
3, 71520, Note_on_c, 0, 32, 0
3, 71760, Note_on_c, 0, 50, 36
3, 71776, Control_c, 0, 64, 127
3, 71794, Note_on_c, 0, 52, 36
3, 71796, Note_on_c, 0, 50, 0
3, 71828, Note_on_c, 0, 53, 36
3, 71830, Note_on_c, 0, 52, 0
3, 71862, Note_on_c, 0, 55, 37
3, 71864, Note_on_c, 0, 53, 0
3, 71896, Note_on_c, 0, 57, 37
3, 71898, Note_on_c, 0, 55, 0
3, 71930, Note_on_c, 0, 59, 38
3, 71932, Note_on_c, 0, 57, 0
3, 71964, Note_on_c, 0, 60, 40
3, 71966, Note_on_c, 0, 59, 0
3, 72000, Note_on_c, 0, 60, 0
3, 72000, Note_on_c, 0, 62, 40
3, 72034, Note_on_c, 0, 64, 41
3, 72036, Note_on_c, 0, 62, 0
3, 72068, Note_on_c, 0, 65, 41
3, 72070, Note_on_c, 0, 64, 0
3, 72102, Note_on_c, 0, 67, 41
3, 72104, Note_on_c, 0, 65, 0
3, 72136, Note_on_c, 0, 69, 42
3, 72138, Note_on_c, 0, 67, 0
3, 72170, Note_on_c, 0, 71, 43
3, 72172, Note_on_c, 0, 69, 0
3, 72204, Note_on_c, 0, 72, 43
3, 72206, Note_on_c, 0, 71, 0
3, 72240, Note_on_c, 0, 72, 0
3, 72240, Note_on_c, 0, 74, 42
3, 72274, Note_on_c, 0, 76, 42
3, 72276, Note_on_c, 0, 74, 0
3, 72308, Note_on_c, 0, 77, 43
3, 72310, Note_on_c, 0, 76, 0
3, 72342, Note_on_c, 0, 79, 43
3, 72344, Note_on_c, 0, 77, 0
3, 72376, Note_on_c, 0, 81, 43
3, 72378, Note_on_c, 0, 79, 0
3, 72410, Note_on_c, 0, 83, 42
3, 72412, Note_on_c, 0, 81, 0
3, 72444, Note_on_c, 0, 84, 42
3, 72446, Note_on_c, 0, 83, 0
3, 72480, Note_on_c, 0, 84, 0
3, 72480, Note_on_c, 0, 86, 48
3, 72495, Control_c, 0, 64, 0
3, 72598, Note_on_c, 0, 86, 0
3, 72720, Note_on_c, 0, 68, 27
3, 72720, Note_on_c, 0, 77, 32
3, 72778, Note_on_c, 0, 77, 0
3, 72778, Note_on_c, 0, 68, 0
3, 72840, Note_on_c, 0, 76, 32
3, 72840, Note_on_c, 0, 68, 27
3, 72898, Note_on_c, 0, 68, 0
3, 72898, Note_on_c, 0, 76, 0
3, 72960, Note_on_c, 0, 80, 36
3, 72960, Note_on_c, 0, 69, 32
3, 72960, Note_on_c, 0, 77, 32
3, 73008, Control_c, 0, 64, 127
3, 73440, Note_on_c, 0, 77, 0
3, 73440, Note_on_c, 0, 69, 0
3, 73440, Note_on_c, 0, 80, 0
3, 73440, Note_on_c, 0, 69, 30
3, 73440, Note_on_c, 0, 76, 30
3, 73440, Note_on_c, 0, 81, 34
3, 73466, Control_c, 0, 64, 0
3, 73640, Note_on_c, 0, 81, 0
3, 73640, Note_on_c, 0, 76, 0
3, 73640, Note_on_c, 0, 69, 0
3, 74310, Note_on_c, 0, 67, 27
3, 74340, Note_on_c, 0, 73, 27
3, 74370, Note_on_c, 0, 76, 27
3, 74400, Note_on_c, 0, 81, 33
3, 74580, Note_on_c, 0, 81, 0
3, 74580, Note_on_c, 0, 67, 0
3, 74580, Note_on_c, 0, 73, 0
3, 74580, Note_on_c, 0, 76, 0
3, 75120, Note_on_c, 0, 74, 27
3, 75120, Note_on_c, 0, 81, 31
3, 75120, Note_on_c, 0, 77, 27
3, 75300, Note_on_c, 0, 77, 0
3, 75300, Note_on_c, 0, 81, 0
3, 75300, Note_on_c, 0, 74, 0
3, 75360, Note_on_c, 0, 86, 36
3, 75360, Note_on_c, 0, 81, 32
3, 75360, Note_on_c, 0, 77, 32
3, 75540, Note_on_c, 0, 77, 0
3, 75540, Note_on_c, 0, 81, 0
3, 75540, Note_on_c, 0, 86, 0
3, 76230, Note_on_c, 0, 65, 27
3, 76260, Note_on_c, 0, 71, 27
3, 76290, Note_on_c, 0, 74, 27
3, 76320, Note_on_c, 0, 79, 34
3, 76500, Note_on_c, 0, 79, 0
3, 76500, Note_on_c, 0, 65, 0
3, 76500, Note_on_c, 0, 71, 0
3, 76500, Note_on_c, 0, 74, 0
3, 77040, Note_on_c, 0, 72, 27
3, 77040, Note_on_c, 0, 79, 31
3, 77040, Note_on_c, 0, 76, 27
3, 77220, Note_on_c, 0, 76, 0
3, 77220, Note_on_c, 0, 79, 0
3, 77220, Note_on_c, 0, 72, 0
3, 77280, Note_on_c, 0, 84, 36
3, 77280, Note_on_c, 0, 79, 32
3, 77280, Note_on_c, 0, 76, 32
3, 77460, Note_on_c, 0, 76, 0
3, 77460, Note_on_c, 0, 79, 0
3, 77460, Note_on_c, 0, 84, 0
3, 78240, Note_on_c, 0, 86, 36
3, 78240, Note_on_c, 0, 83, 33
3, 78240, Note_on_c, 0, 77, 33
3, 78420, Note_on_c, 0, 77, 0
3, 78420, Note_on_c, 0, 83, 0
3, 78420, Note_on_c, 0, 86, 0
3, 79200, Note_on_c, 0, 84, 36
3, 79200, Note_on_c, 0, 81, 33
3, 79200, Note_on_c, 0, 76, 33
3, 79380, Note_on_c, 0, 76, 0
3, 79380, Note_on_c, 0, 81, 0
3, 79380, Note_on_c, 0, 84, 0
3, 79680, Note_on_c, 0, 84, 36
3, 79680, Note_on_c, 0, 81, 33
3, 79680, Note_on_c, 0, 77, 33
3, 79860, Note_on_c, 0, 77, 0
3, 79860, Note_on_c, 0, 81, 0
3, 79860, Note_on_c, 0, 84, 0
3, 80160, Note_on_c, 0, 77, 33
3, 80160, Note_on_c, 0, 81, 36
3, 80160, Note_on_c, 0, 72, 33
3, 80340, Note_on_c, 0, 72, 0
3, 80340, Note_on_c, 0, 81, 0
3, 80340, Note_on_c, 0, 77, 0
3, 80640, Note_on_c, 0, 80, 32
3, 80640, Note_on_c, 0, 64, 27
3, 80640, Note_on_c, 0, 71, 27
3, 80820, Note_on_c, 0, 71, 0
3, 80820, Note_on_c, 0, 64, 0
3, 80820, Note_on_c, 0, 80, 0
3, 80897, Control_c, 0, 64, 127
3, 81128, Control_c, 0, 64, 0
3, 81360, Note_on_c, 0, 43, 71
3, 81360, Note_on_c, 0, 55, 71
3, 81478, Note_on_c, 0, 55, 0
3, 81478, Note_on_c, 0, 43, 0
3, 81600, Note_on_c, 0, 48, 77
3, 81600, Note_on_c, 0, 60, 77
3, 82320, Note_on_c, 0, 60, 0
3, 82320, Note_on_c, 0, 48, 0
3, 82320, Note_on_c, 0, 43, 72
3, 82320, Note_on_c, 0, 55, 72
3, 82440, Note_on_c, 0, 55, 0
3, 82440, Note_on_c, 0, 43, 0
3, 82560, Note_on_c, 0, 40, 79
3, 82560, Note_on_c, 0, 52, 79
3, 82800, Note_on_c, 0, 52, 0
3, 82800, Note_on_c, 0, 40, 0
3, 82800, Note_on_c, 0, 36, 76
3, 82800, Note_on_c, 0, 48, 76
3, 83040, Note_on_c, 0, 48, 0
3, 83040, Note_on_c, 0, 36, 0
3, 83280, Note_on_c, 0, 52, 36
3, 83296, Control_c, 0, 64, 127
3, 83314, Note_on_c, 0, 53, 36
3, 83316, Note_on_c, 0, 52, 0
3, 83348, Note_on_c, 0, 55, 36
3, 83350, Note_on_c, 0, 53, 0
3, 83382, Note_on_c, 0, 57, 37
3, 83384, Note_on_c, 0, 55, 0
3, 83416, Note_on_c, 0, 59, 37
3, 83418, Note_on_c, 0, 57, 0
3, 83450, Note_on_c, 0, 60, 38
3, 83452, Note_on_c, 0, 59, 0
3, 83484, Note_on_c, 0, 62, 40
3, 83486, Note_on_c, 0, 60, 0
3, 83520, Note_on_c, 0, 62, 0
3, 83520, Note_on_c, 0, 64, 40
3, 83554, Note_on_c, 0, 65, 41
3, 83556, Note_on_c, 0, 64, 0
3, 83588, Note_on_c, 0, 67, 41
3, 83590, Note_on_c, 0, 65, 0
3, 83622, Note_on_c, 0, 69, 41
3, 83624, Note_on_c, 0, 67, 0
3, 83656, Note_on_c, 0, 71, 42
3, 83658, Note_on_c, 0, 69, 0
3, 83690, Note_on_c, 0, 72, 43
3, 83692, Note_on_c, 0, 71, 0
3, 83724, Note_on_c, 0, 74, 43
3, 83726, Note_on_c, 0, 72, 0
3, 83760, Note_on_c, 0, 74, 0
3, 83760, Note_on_c, 0, 76, 42
3, 83794, Note_on_c, 0, 77, 42
3, 83796, Note_on_c, 0, 76, 0
3, 83828, Note_on_c, 0, 79, 43
3, 83830, Note_on_c, 0, 77, 0
3, 83862, Note_on_c, 0, 81, 43
3, 83864, Note_on_c, 0, 79, 0
3, 83896, Note_on_c, 0, 83, 43
3, 83898, Note_on_c, 0, 81, 0
3, 83930, Note_on_c, 0, 84, 42
3, 83932, Note_on_c, 0, 83, 0
3, 83964, Note_on_c, 0, 86, 42
3, 83966, Note_on_c, 0, 84, 0
3, 84000, Note_on_c, 0, 86, 0
3, 84000, Note_on_c, 0, 88, 48
3, 84009, Control_c, 0, 64, 0
3, 84118, Note_on_c, 0, 88, 0
3, 84240, Note_on_c, 0, 86, 32
3, 84240, Note_on_c, 0, 77, 27
3, 84240, Note_on_c, 0, 81, 27
3, 84298, Note_on_c, 0, 81, 0
3, 84298, Note_on_c, 0, 77, 0
3, 84298, Note_on_c, 0, 86, 0
3, 84360, Note_on_c, 0, 77, 27
3, 84360, Note_on_c, 0, 81, 27
3, 84360, Note_on_c, 0, 86, 32
3, 84418, Note_on_c, 0, 86, 0
3, 84418, Note_on_c, 0, 81, 0
3, 84418, Note_on_c, 0, 77, 0
3, 84420, Note_on_c, 0, 67, 36
3, 84480, Note_on_c, 0, 84, 36
3, 84480, Note_on_c, 0, 76, 36
3, 84521, Control_c, 0, 64, 127
3, 84960, Note_on_c, 0, 76, 0
3, 84960, Note_on_c, 0, 84, 0
3, 84960, Note_on_c, 0, 67, 0
3, 84960, Note_on_c, 0, 67, 34
3, 84960, Note_on_c, 0, 74, 34
3, 84960, Note_on_c, 0, 83, 34
3, 84973, Control_c, 0, 64, 0
3, 85170, Note_on_c, 0, 83, 0
3, 85170, Note_on_c, 0, 74, 0
3, 85170, Note_on_c, 0, 67, 0
3, 85200, Note_on_c, 0, 38, 63
3, 85200, Note_on_c, 0, 50, 63
3, 85318, Note_on_c, 0, 50, 0
3, 85318, Note_on_c, 0, 38, 0
3, 85440, Note_on_c, 0, 41, 70
3, 85440, Note_on_c, 0, 53, 70
3, 86160, Note_on_c, 0, 53, 0
3, 86160, Note_on_c, 0, 41, 0
3, 86160, Note_on_c, 0, 38, 64
3, 86160, Note_on_c, 0, 50, 64
3, 86340, Note_on_c, 0, 50, 0
3, 86340, Note_on_c, 0, 38, 0
3, 86400, Note_on_c, 0, 35, 71
3, 86400, Note_on_c, 0, 47, 71
3, 86640, Note_on_c, 0, 47, 0
3, 86640, Note_on_c, 0, 35, 0
3, 86640, Note_on_c, 0, 31, 67
3, 86640, Note_on_c, 0, 43, 67
3, 86880, Note_on_c, 0, 43, 0
3, 86880, Note_on_c, 0, 31, 0
3, 87120, Note_on_c, 0, 50, 36
3, 87139, Control_c, 0, 64, 127
3, 87154, Note_on_c, 0, 52, 36
3, 87156, Note_on_c, 0, 50, 0
3, 87188, Note_on_c, 0, 53, 36
3, 87190, Note_on_c, 0, 52, 0
3, 87222, Note_on_c, 0, 55, 37
3, 87224, Note_on_c, 0, 53, 0
3, 87256, Note_on_c, 0, 57, 37
3, 87258, Note_on_c, 0, 55, 0
3, 87290, Note_on_c, 0, 59, 38
3, 87292, Note_on_c, 0, 57, 0
3, 87324, Note_on_c, 0, 60, 40
3, 87326, Note_on_c, 0, 59, 0
3, 87360, Note_on_c, 0, 60, 0
3, 87360, Note_on_c, 0, 62, 40
3, 87394, Note_on_c, 0, 64, 41
3, 87396, Note_on_c, 0, 62, 0
3, 87428, Note_on_c, 0, 65, 41
3, 87430, Note_on_c, 0, 64, 0
3, 87462, Note_on_c, 0, 67, 41
3, 87464, Note_on_c, 0, 65, 0
3, 87496, Note_on_c, 0, 69, 42
3, 87498, Note_on_c, 0, 67, 0
3, 87530, Note_on_c, 0, 71, 43
3, 87532, Note_on_c, 0, 69, 0
3, 87564, Note_on_c, 0, 72, 43
3, 87566, Note_on_c, 0, 71, 0
3, 87600, Note_on_c, 0, 72, 0
3, 87600, Note_on_c, 0, 74, 42
3, 87634, Note_on_c, 0, 76, 42
3, 87636, Note_on_c, 0, 74, 0
3, 87668, Note_on_c, 0, 77, 43
3, 87670, Note_on_c, 0, 76, 0
3, 87702, Note_on_c, 0, 79, 43
3, 87704, Note_on_c, 0, 77, 0
3, 87736, Note_on_c, 0, 81, 43
3, 87738, Note_on_c, 0, 79, 0
3, 87770, Note_on_c, 0, 83, 42
3, 87772, Note_on_c, 0, 81, 0
3, 87804, Note_on_c, 0, 84, 42
3, 87806, Note_on_c, 0, 83, 0
3, 87840, Note_on_c, 0, 84, 0
3, 87840, Note_on_c, 0, 86, 48
3, 87852, Control_c, 0, 64, 0
3, 87958, Note_on_c, 0, 86, 0
3, 88080, Note_on_c, 0, 71, 27
3, 88080, Note_on_c, 0, 81, 32
3, 88138, Note_on_c, 0, 81, 0
3, 88138, Note_on_c, 0, 71, 0
3, 88200, Note_on_c, 0, 79, 32
3, 88200, Note_on_c, 0, 71, 27
3, 88258, Note_on_c, 0, 71, 0
3, 88258, Note_on_c, 0, 79, 0
3, 88320, Note_on_c, 0, 77, 36
3, 88320, Note_on_c, 0, 71, 32
3, 88320, Note_on_c, 0, 67, 32
3, 88363, Control_c, 0, 64, 127
3, 88800, Note_on_c, 0, 67, 0
3, 88800, Note_on_c, 0, 71, 0
3, 88800, Note_on_c, 0, 77, 0
3, 88800, Note_on_c, 0, 72, 30
3, 88800, Note_on_c, 0, 76, 34
3, 88816, Control_c, 0, 64, 0
3, 89000, Note_on_c, 0, 76, 0
3, 89000, Note_on_c, 0, 72, 0
3, 89670, Note_on_c, 0, 70, 27
3, 89700, Note_on_c, 0, 76, 27
3, 89730, Note_on_c, 0, 79, 27
3, 89760, Note_on_c, 0, 84, 33
3, 89940, Note_on_c, 0, 84, 0
3, 89940, Note_on_c, 0, 70, 0
3, 89940, Note_on_c, 0, 76, 0
3, 89940, Note_on_c, 0, 79, 0
3, 90480, Note_on_c, 0, 81, 31
3, 90480, Note_on_c, 0, 77, 27
3, 90660, Note_on_c, 0, 77, 0
3, 90660, Note_on_c, 0, 81, 0
3, 90720, Note_on_c, 0, 72, 32
3, 90720, Note_on_c, 0, 81, 36
3, 90720, Note_on_c, 0, 77, 32
3, 90900, Note_on_c, 0, 77, 0
3, 90900, Note_on_c, 0, 81, 0
3, 90900, Note_on_c, 0, 72, 0
3, 91590, Note_on_c, 0, 72, 27
3, 91620, Note_on_c, 0, 78, 27
3, 91650, Note_on_c, 0, 81, 27
3, 91680, Note_on_c, 0, 86, 34
3, 91860, Note_on_c, 0, 86, 0
3, 91860, Note_on_c, 0, 72, 0
3, 91860, Note_on_c, 0, 78, 0
3, 91860, Note_on_c, 0, 81, 0
3, 92400, Note_on_c, 0, 79, 30
3, 92400, Note_on_c, 0, 83, 34
3, 92580, Note_on_c, 0, 83, 0
3, 92580, Note_on_c, 0, 79, 0
3, 92640, Note_on_c, 0, 83, 40
3, 92640, Note_on_c, 0, 79, 35
3, 92640, Note_on_c, 0, 74, 35
3, 92820, Note_on_c, 0, 74, 0
3, 92820, Note_on_c, 0, 79, 0
3, 92820, Note_on_c, 0, 83, 0
3, 93510, Note_on_c, 0, 74, 32
3, 93540, Note_on_c, 0, 80, 32
3, 93570, Note_on_c, 0, 83, 32
3, 93600, Note_on_c, 0, 88, 36
3, 93780, Note_on_c, 0, 88, 0
3, 93780, Note_on_c, 0, 74, 0
3, 93780, Note_on_c, 0, 80, 0
3, 93780, Note_on_c, 0, 83, 0
3, 93863, Control_c, 0, 64, 127
3, 94080, Control_c, 0, 64, 0
3, 94320, Note_on_c, 0, 84, 36
3, 94320, Note_on_c, 0, 81, 33
3, 94500, Note_on_c, 0, 81, 0
3, 94500, Note_on_c, 0, 84, 0
3, 94560, Note_on_c, 0, 84, 41
3, 94560, Note_on_c, 0, 81, 36
3, 94560, Note_on_c, 0, 76, 36
3, 94740, Note_on_c, 0, 76, 0
3, 94740, Note_on_c, 0, 81, 0
3, 94740, Note_on_c, 0, 84, 0
3, 95280, Note_on_c, 0, 72, 23
3, 95280, Note_on_c, 0, 77, 23
3, 95280, Note_on_c, 0, 81, 26
3, 95330, Control_c, 0, 64, 127
3, 95460, Note_on_c, 0, 81, 0
3, 95460, Note_on_c, 0, 77, 0
3, 95460, Note_on_c, 0, 72, 0
3, 95520, Note_on_c, 0, 84, 27
3, 95520, Note_on_c, 0, 81, 25
3, 95520, Note_on_c, 0, 77, 25
3, 95534, Control_c, 0, 64, 0
3, 95700, Note_on_c, 0, 77, 0
3, 95700, Note_on_c, 0, 81, 0
3, 95700, Note_on_c, 0, 84, 0
3, 95803, Control_c, 0, 64, 127
3, 96000, Control_c, 0, 64, 0
3, 96240, Note_on_c, 0, 72, 23
3, 96240, Note_on_c, 0, 76, 23
3, 96240, Note_on_c, 0, 81, 26
3, 96276, Control_c, 0, 64, 127
3, 96420, Note_on_c, 0, 81, 0
3, 96420, Note_on_c, 0, 76, 0
3, 96420, Note_on_c, 0, 72, 0
3, 96480, Note_on_c, 0, 84, 27
3, 96480, Note_on_c, 0, 81, 25
3, 96480, Note_on_c, 0, 76, 25
3, 96487, Control_c, 0, 64, 0
3, 96660, Note_on_c, 0, 76, 0
3, 96660, Note_on_c, 0, 81, 0
3, 96660, Note_on_c, 0, 84, 0
3, 96748, Control_c, 0, 64, 127
3, 96965, Control_c, 0, 64, 0
3, 97200, Note_on_c, 0, 72, 23
3, 97200, Note_on_c, 0, 78, 23
3, 97200, Note_on_c, 0, 81, 26
3, 97246, Control_c, 0, 64, 127
3, 97380, Note_on_c, 0, 81, 0
3, 97380, Note_on_c, 0, 78, 0
3, 97380, Note_on_c, 0, 72, 0
3, 97440, Note_on_c, 0, 84, 27
3, 97440, Note_on_c, 0, 81, 25
3, 97440, Note_on_c, 0, 78, 25
3, 97455, Control_c, 0, 64, 0
3, 97620, Note_on_c, 0, 78, 0
3, 97620, Note_on_c, 0, 81, 0
3, 97620, Note_on_c, 0, 84, 0
3, 97720, Control_c, 0, 64, 127
3, 97923, Control_c, 0, 64, 0
3, 98160, Note_on_c, 0, 71, 26
3, 98160, Note_on_c, 0, 76, 26
3, 98160, Note_on_c, 0, 79, 29
3, 98203, Control_c, 0, 64, 127
3, 98340, Note_on_c, 0, 79, 0
3, 98340, Note_on_c, 0, 76, 0
3, 98340, Note_on_c, 0, 71, 0
3, 98400, Note_on_c, 0, 83, 32
3, 98400, Note_on_c, 0, 79, 27
3, 98400, Note_on_c, 0, 76, 27
3, 98418, Control_c, 0, 64, 0
3, 98580, Note_on_c, 0, 76, 0
3, 98580, Note_on_c, 0, 79, 0
3, 98580, Note_on_c, 0, 83, 0
3, 98690, Control_c, 0, 64, 127
3, 98883, Control_c, 0, 64, 0
3, 99120, Note_on_c, 0, 67, 29
3, 99120, Note_on_c, 0, 76, 29
3, 99120, Note_on_c, 0, 79, 33
3, 99159, Control_c, 0, 64, 127
3, 99300, Note_on_c, 0, 79, 0
3, 99300, Note_on_c, 0, 76, 0
3, 99300, Note_on_c, 0, 67, 0
3, 99360, Note_on_c, 0, 72, 32
3, 99360, Note_on_c, 0, 79, 36
3, 99360, Note_on_c, 0, 76, 32
3, 99378, Control_c, 0, 64, 0
3, 99478, Note_on_c, 0, 76, 0
3, 99478, Note_on_c, 0, 79, 0
3, 99478, Note_on_c, 0, 72, 0
3, 99660, Control_c, 0, 64, 127
3, 99859, Control_c, 0, 64, 0
3, 100080, Note_on_c, 0, 67, 30
3, 100080, Note_on_c, 0, 76, 30
3, 100080, Note_on_c, 0, 79, 34
3, 100119, Control_c, 0, 64, 127
3, 100260, Note_on_c, 0, 79, 0
3, 100260, Note_on_c, 0, 76, 0
3, 100260, Note_on_c, 0, 67, 0
3, 100320, Note_on_c, 0, 71, 32
3, 100320, Note_on_c, 0, 79, 36
3, 100320, Note_on_c, 0, 76, 32
3, 100334, Control_c, 0, 64, 0
3, 100438, Note_on_c, 0, 76, 0
3, 100438, Note_on_c, 0, 79, 0
3, 100438, Note_on_c, 0, 71, 0
3, 100631, Control_c, 0, 64, 127
3, 100800, Control_c, 0, 64, 0
3, 101040, Note_on_c, 0, 67, 30
3, 101040, Note_on_c, 0, 76, 30
3, 101040, Note_on_c, 0, 79, 34
3, 101060, Control_c, 0, 64, 127
3, 101220, Note_on_c, 0, 79, 0
3, 101220, Note_on_c, 0, 76, 0
3, 101220, Note_on_c, 0, 67, 0
3, 101280, Note_on_c, 0, 73, 32
3, 101280, Note_on_c, 0, 79, 36
3, 101280, Note_on_c, 0, 76, 32
3, 101283, Control_c, 0, 64, 0
3, 101398, Note_on_c, 0, 76, 0
3, 101398, Note_on_c, 0, 79, 0
3, 101398, Note_on_c, 0, 73, 0
3, 101520, Note_on_c, 0, 73, 27
3, 101520, Note_on_c, 0, 76, 27
3, 101520, Note_on_c, 0, 79, 32
3, 101555, Control_c, 0, 64, 127
3, 101700, Note_on_c, 0, 79, 0
3, 101700, Note_on_c, 0, 76, 0
3, 101700, Note_on_c, 0, 73, 0
3, 101760, Note_on_c, 0, 75, 30
3, 101760, Note_on_c, 0, 78, 30
3, 101760, Note_on_c, 0, 83, 34
3, 101761, Control_c, 0, 64, 0
3, 101940, Note_on_c, 0, 83, 0
3, 101940, Note_on_c, 0, 78, 0
3, 101940, Note_on_c, 0, 75, 0
3, 102023, Control_c, 0, 64, 127
3, 102240, Note_on_c, 0, 75, 52
3, 102255, Control_c, 0, 64, 0
3, 102283, Control_c, 0, 64, 127
3, 102298, Note_on_c, 0, 75, 0
3, 102300, Note_on_c, 0, 83, 45
3, 102358, Note_on_c, 0, 83, 0
3, 102360, Note_on_c, 0, 78, 50
3, 102418, Note_on_c, 0, 78, 0
3, 102420, Note_on_c, 0, 75, 46
3, 102478, Note_on_c, 0, 75, 0
3, 102491, Control_c, 0, 64, 0
3, 102535, Control_c, 0, 64, 127
3, 102720, Note_on_c, 0, 67, 51
3, 102740, Control_c, 0, 64, 0
3, 102755, Control_c, 0, 64, 127
3, 102778, Note_on_c, 0, 67, 0
3, 102780, Note_on_c, 0, 76, 46
3, 102838, Note_on_c, 0, 76, 0
3, 102840, Note_on_c, 0, 71, 50
3, 102898, Note_on_c, 0, 71, 0
3, 102900, Note_on_c, 0, 67, 46
3, 102958, Note_on_c, 0, 67, 0
3, 102966, Control_c, 0, 64, 0
3, 103200, Note_on_c, 0, 64, 53
3, 103237, Control_c, 0, 64, 127
3, 103258, Note_on_c, 0, 64, 0
3, 103260, Note_on_c, 0, 72, 47
3, 103318, Note_on_c, 0, 72, 0
3, 103320, Note_on_c, 0, 67, 51
3, 103378, Note_on_c, 0, 67, 0
3, 103380, Note_on_c, 0, 64, 49
3, 103438, Note_on_c, 0, 64, 0
3, 103455, Control_c, 0, 64, 0
3, 103680, Note_on_c, 0, 63, 54
3, 103720, Control_c, 0, 64, 127
3, 103738, Note_on_c, 0, 63, 0
3, 103740, Note_on_c, 0, 71, 50
3, 103798, Note_on_c, 0, 71, 0
3, 103800, Note_on_c, 0, 66, 52
3, 103858, Note_on_c, 0, 66, 0
3, 103860, Note_on_c, 0, 63, 49
3, 103918, Note_on_c, 0, 63, 0
3, 104160, Note_on_c, 0, 63, 54
3, 104218, Note_on_c, 0, 63, 0
3, 104220, Note_on_c, 0, 71, 50
3, 104278, Note_on_c, 0, 71, 0
3, 104280, Note_on_c, 0, 66, 54
3, 104338, Note_on_c, 0, 66, 0
3, 104340, Note_on_c, 0, 63, 51
3, 104398, Note_on_c, 0, 63, 0
3, 104406, Control_c, 0, 64, 0
3, 104640, Note_on_c, 0, 55, 63
3, 104663, Control_c, 0, 64, 127
3, 104698, Note_on_c, 0, 55, 0
3, 104700, Note_on_c, 0, 64, 55
3, 104758, Note_on_c, 0, 64, 0
3, 104760, Note_on_c, 0, 59, 59
3, 104818, Note_on_c, 0, 59, 0
3, 104820, Note_on_c, 0, 55, 54
3, 104878, Note_on_c, 0, 55, 0
3, 104889, Control_c, 0, 64, 0
3, 105120, Note_on_c, 0, 52, 63
3, 105140, Control_c, 0, 64, 127
3, 105178, Note_on_c, 0, 52, 0
3, 105180, Note_on_c, 0, 60, 55
3, 105238, Note_on_c, 0, 60, 0
3, 105240, Note_on_c, 0, 55, 59
3, 105298, Note_on_c, 0, 55, 0
3, 105300, Note_on_c, 0, 52, 56
3, 105358, Note_on_c, 0, 52, 0
3, 105369, Control_c, 0, 64, 0
3, 105600, Note_on_c, 0, 51, 66
3, 105650, Control_c, 0, 64, 127
3, 105660, Note_on_c, 0, 55, 61
3, 105670, Note_on_c, 0, 51, 0
3, 105720, Note_on_c, 0, 55, 0
3, 105720, Note_on_c, 0, 54, 61
3, 105780, Note_on_c, 0, 51, 59
3, 105790, Note_on_c, 0, 54, 0
3, 105840, Note_on_c, 0, 51, 0
3, 105840, Note_on_c, 0, 47, 52
3, 105900, Note_on_c, 0, 54, 53
3, 105910, Note_on_c, 0, 47, 0
3, 105960, Note_on_c, 0, 58, 54
3, 105970, Note_on_c, 0, 54, 0
3, 106020, Note_on_c, 0, 58, 0
3, 106020, Note_on_c, 0, 59, 54
3, 106080, Note_on_c, 0, 59, 0
3, 106080, Note_on_c, 0, 63, 56
3, 106140, Note_on_c, 0, 66, 57
3, 106150, Note_on_c, 0, 63, 0
3, 106200, Note_on_c, 0, 70, 59
3, 106210, Note_on_c, 0, 66, 0
3, 106260, Note_on_c, 0, 71, 61
3, 106270, Note_on_c, 0, 70, 0
3, 106320, Note_on_c, 0, 71, 0
3, 106320, Note_on_c, 0, 75, 63
3, 106380, Note_on_c, 0, 78, 63
3, 106390, Note_on_c, 0, 75, 0
3, 106440, Note_on_c, 0, 82, 65
3, 106450, Note_on_c, 0, 78, 0
3, 106500, Note_on_c, 0, 83, 66
3, 106510, Note_on_c, 0, 82, 0
3, 106560, Note_on_c, 0, 83, 0
3, 106560, Note_on_c, 0, 87, 69
3, 106586, Control_c, 0, 64, 0
3, 106740, Note_on_c, 0, 87, 0
3, 107308, Control_c, 0, 64, 127
3, 107520, Note_on_c, 0, 83, 34
3, 107520, Note_on_c, 0, 76, 34
3, 107526, Control_c, 0, 64, 0
3, 107598, Control_c, 0, 64, 127
3, 107610, Note_on_c, 0, 76, 0
3, 107610, Note_on_c, 0, 83, 0
3, 107640, Note_on_c, 0, 76, 33
3, 107640, Note_on_c, 0, 83, 33
3, 107730, Note_on_c, 0, 83, 0
3, 107730, Note_on_c, 0, 76, 0
3, 107756, Control_c, 0, 64, 0
3, 107831, Control_c, 0, 64, 127
3, 107993, Control_c, 0, 64, 0
3, 108000, Note_on_c, 0, 71, 34
3, 108000, Note_on_c, 0, 76, 34
3, 108064, Control_c, 0, 64, 127
3, 108090, Note_on_c, 0, 76, 0
3, 108090, Note_on_c, 0, 71, 0
3, 108120, Note_on_c, 0, 71, 33
3, 108120, Note_on_c, 0, 76, 33
3, 108210, Note_on_c, 0, 76, 0
3, 108210, Note_on_c, 0, 71, 0
3, 108262, Control_c, 0, 64, 0
3, 108325, Control_c, 0, 64, 127
3, 108480, Note_on_c, 0, 64, 34
3, 108480, Note_on_c, 0, 71, 34
3, 108487, Control_c, 0, 64, 0
3, 108544, Control_c, 0, 64, 127
3, 108570, Note_on_c, 0, 71, 0
3, 108570, Note_on_c, 0, 64, 0
3, 108600, Note_on_c, 0, 64, 31
3, 108600, Note_on_c, 0, 71, 31
3, 108690, Note_on_c, 0, 71, 0
3, 108690, Note_on_c, 0, 64, 0
3, 108724, Control_c, 0, 64, 0
3, 108784, Control_c, 0, 64, 127
3, 108859, Control_c, 0, 64, 0
3, 108960, Note_on_c, 0, 64, 34
3, 108960, Note_on_c, 0, 59, 34
3, 109024, Control_c, 0, 64, 127
3, 109050, Note_on_c, 0, 59, 0
3, 109050, Note_on_c, 0, 64, 0
3, 109080, Note_on_c, 0, 59, 31
3, 109080, Note_on_c, 0, 64, 31
3, 109170, Note_on_c, 0, 64, 0
3, 109170, Note_on_c, 0, 59, 0
3, 109214, Control_c, 0, 64, 0
3, 109264, Control_c, 0, 64, 127
3, 109337, Control_c, 0, 64, 0
3, 109440, Note_on_c, 0, 52, 34
3, 109440, Note_on_c, 0, 59, 34
3, 109504, Control_c, 0, 64, 127
3, 109530, Note_on_c, 0, 59, 0
3, 109530, Note_on_c, 0, 52, 0
3, 109560, Note_on_c, 0, 52, 32
3, 109560, Note_on_c, 0, 59, 32
3, 109650, Note_on_c, 0, 59, 0
3, 109650, Note_on_c, 0, 52, 0
3, 109695, Control_c, 0, 64, 0
3, 109751, Control_c, 0, 64, 127
3, 109816, Control_c, 0, 64, 0
3, 109920, Note_on_c, 0, 71, 36
3, 109920, Note_on_c, 0, 63, 36
3, 109970, Control_c, 0, 64, 127
3, 110010, Note_on_c, 0, 63, 0
3, 110010, Note_on_c, 0, 71, 0
3, 110040, Note_on_c, 0, 63, 33
3, 110040, Note_on_c, 0, 71, 33
3, 110130, Note_on_c, 0, 71, 0
3, 110130, Note_on_c, 0, 63, 0
3, 110169, Control_c, 0, 64, 0
3, 110217, Control_c, 0, 64, 127
3, 110294, Control_c, 0, 64, 0
3, 110400, Note_on_c, 0, 52, 44
3, 110400, Note_on_c, 0, 59, 44
3, 110450, Control_c, 0, 64, 127
3, 110490, Note_on_c, 0, 59, 0
3, 110490, Note_on_c, 0, 52, 0
3, 110520, Note_on_c, 0, 52, 41
3, 110520, Note_on_c, 0, 59, 41
3, 110610, Note_on_c, 0, 59, 0
3, 110610, Note_on_c, 0, 52, 0
3, 110661, Control_c, 0, 64, 0
3, 110711, Control_c, 0, 64, 127
3, 110880, Note_on_c, 0, 59, 50
3, 110880, Note_on_c, 0, 71, 50
3, 110896, Control_c, 0, 64, 0
3, 110951, Control_c, 0, 64, 127
3, 110970, Note_on_c, 0, 71, 0
3, 110970, Note_on_c, 0, 59, 0
3, 111000, Note_on_c, 0, 59, 45
3, 111000, Note_on_c, 0, 71, 45
3, 111090, Note_on_c, 0, 71, 0
3, 111090, Note_on_c, 0, 59, 0
3, 111150, Control_c, 0, 64, 0
3, 111219, Control_c, 0, 64, 127
3, 111360, Note_on_c, 0, 83, 34
3, 111360, Note_on_c, 0, 76, 34
3, 111366, Control_c, 0, 64, 0
3, 111424, Control_c, 0, 64, 127
3, 111450, Note_on_c, 0, 76, 0
3, 111450, Note_on_c, 0, 83, 0
3, 111480, Note_on_c, 0, 76, 31
3, 111480, Note_on_c, 0, 83, 31
3, 111570, Note_on_c, 0, 83, 0
3, 111570, Note_on_c, 0, 76, 0
3, 111614, Control_c, 0, 64, 0
3, 111671, Control_c, 0, 64, 127
3, 111735, Control_c, 0, 64, 0
3, 111840, Note_on_c, 0, 71, 34
3, 111840, Note_on_c, 0, 76, 34
3, 111904, Control_c, 0, 64, 127
3, 111930, Note_on_c, 0, 76, 0
3, 111930, Note_on_c, 0, 71, 0
3, 111960, Note_on_c, 0, 71, 32
3, 111960, Note_on_c, 0, 76, 32
3, 112050, Note_on_c, 0, 76, 0
3, 112050, Note_on_c, 0, 71, 0
3, 112095, Control_c, 0, 64, 0
3, 112158, Control_c, 0, 64, 127
3, 112320, Note_on_c, 0, 64, 34
3, 112320, Note_on_c, 0, 71, 34
3, 112328, Control_c, 0, 64, 0
3, 112410, Note_on_c, 0, 71, 0
3, 112410, Note_on_c, 0, 64, 0
3, 112426, Control_c, 0, 64, 127
3, 112440, Note_on_c, 0, 64, 32
3, 112440, Note_on_c, 0, 71, 32
3, 112530, Note_on_c, 0, 71, 0
3, 112530, Note_on_c, 0, 64, 0
3, 112574, Control_c, 0, 64, 0
3, 112645, Control_c, 0, 64, 127
3, 112683, Control_c, 0, 64, 0
3, 112800, Note_on_c, 0, 59, 34
3, 112800, Note_on_c, 0, 64, 34
3, 112828, Control_c, 0, 64, 127
3, 112890, Note_on_c, 0, 64, 0
3, 112890, Note_on_c, 0, 59, 0
3, 112920, Note_on_c, 0, 59, 32
3, 112920, Note_on_c, 0, 64, 32
3, 113010, Note_on_c, 0, 64, 0
3, 113010, Note_on_c, 0, 59, 0
3, 113053, Control_c, 0, 64, 0
3, 113104, Control_c, 0, 64, 127
3, 113166, Control_c, 0, 64, 0
3, 113280, Note_on_c, 0, 52, 35
3, 113280, Note_on_c, 0, 59, 35
3, 113337, Control_c, 0, 64, 127
3, 113370, Note_on_c, 0, 59, 0
3, 113370, Note_on_c, 0, 52, 0
3, 113400, Note_on_c, 0, 52, 32
3, 113400, Note_on_c, 0, 59, 32
3, 113490, Note_on_c, 0, 59, 0
3, 113490, Note_on_c, 0, 52, 0
3, 113554, Control_c, 0, 64, 0
3, 113619, Control_c, 0, 64, 127
3, 113760, Note_on_c, 0, 63, 34
3, 113760, Note_on_c, 0, 59, 34
3, 113779, Control_c, 0, 64, 0
3, 113838, Control_c, 0, 64, 127
3, 113850, Note_on_c, 0, 59, 0
3, 113850, Note_on_c, 0, 63, 0
3, 113880, Note_on_c, 0, 59, 33
3, 113880, Note_on_c, 0, 63, 33
3, 113970, Note_on_c, 0, 63, 0
3, 113970, Note_on_c, 0, 59, 0
3, 114010, Control_c, 0, 64, 0
3, 114071, Control_c, 0, 64, 127
3, 114139, Control_c, 0, 64, 0
3, 114240, Note_on_c, 0, 59, 45
3, 114240, Note_on_c, 0, 52, 45
3, 114279, Control_c, 0, 64, 127
3, 114330, Note_on_c, 0, 52, 0
3, 114330, Note_on_c, 0, 59, 0
3, 114360, Note_on_c, 0, 59, 43
3, 114360, Note_on_c, 0, 52, 43
3, 114450, Note_on_c, 0, 52, 0
3, 114450, Note_on_c, 0, 59, 0
3, 114480, Note_on_c, 0, 64, 47
3, 114570, Note_on_c, 0, 64, 0
3, 114600, Note_on_c, 0, 64, 45
3, 114690, Note_on_c, 0, 64, 0
3, 114720, Note_on_c, 0, 71, 53
3, 114960, Note_on_c, 0, 71, 0
3, 114971, Control_c, 0, 64, 0
3, 118828, Control_c, 0, 64, 127
3, 119040, Note_on_c, 0, 83, 34
3, 119040, Note_on_c, 0, 76, 34
3, 119043, Control_c, 0, 64, 0
3, 119118, Control_c, 0, 64, 127
3, 119130, Note_on_c, 0, 76, 0
3, 119130, Note_on_c, 0, 83, 0
3, 119160, Note_on_c, 0, 76, 32
3, 119160, Note_on_c, 0, 83, 32
3, 119250, Note_on_c, 0, 83, 0
3, 119250, Note_on_c, 0, 76, 0
3, 119287, Control_c, 0, 64, 0
3, 119351, Control_c, 0, 64, 127
3, 119520, Note_on_c, 0, 71, 34
3, 119520, Note_on_c, 0, 76, 34
3, 119532, Control_c, 0, 64, 0
3, 119584, Control_c, 0, 64, 127
3, 119610, Note_on_c, 0, 76, 0
3, 119610, Note_on_c, 0, 71, 0
3, 119640, Note_on_c, 0, 71, 31
3, 119640, Note_on_c, 0, 76, 31
3, 119730, Note_on_c, 0, 76, 0
3, 119730, Note_on_c, 0, 71, 0
3, 119774, Control_c, 0, 64, 0
3, 119838, Control_c, 0, 64, 127
3, 120000, Note_on_c, 0, 64, 34
3, 120000, Note_on_c, 0, 71, 34
3, 120006, Control_c, 0, 64, 0
3, 120078, Control_c, 0, 64, 127
3, 120090, Note_on_c, 0, 71, 0
3, 120090, Note_on_c, 0, 64, 0
3, 120120, Note_on_c, 0, 64, 31
3, 120120, Note_on_c, 0, 71, 31
3, 120210, Note_on_c, 0, 71, 0
3, 120210, Note_on_c, 0, 64, 0
3, 120247, Control_c, 0, 64, 0
3, 120297, Control_c, 0, 64, 127
3, 120385, Control_c, 0, 64, 0
3, 120480, Note_on_c, 0, 59, 34
3, 120480, Note_on_c, 0, 64, 34
3, 120551, Control_c, 0, 64, 127
3, 120570, Note_on_c, 0, 64, 0
3, 120570, Note_on_c, 0, 59, 0
3, 120600, Note_on_c, 0, 59, 32
3, 120600, Note_on_c, 0, 64, 32
3, 120690, Note_on_c, 0, 64, 0
3, 120690, Note_on_c, 0, 59, 0
3, 120739, Control_c, 0, 64, 0
3, 120784, Control_c, 0, 64, 127
3, 120856, Control_c, 0, 64, 0
3, 120960, Note_on_c, 0, 52, 34
3, 120960, Note_on_c, 0, 59, 34
3, 121003, Control_c, 0, 64, 127
3, 121050, Note_on_c, 0, 59, 0
3, 121050, Note_on_c, 0, 52, 0
3, 121080, Note_on_c, 0, 52, 32
3, 121080, Note_on_c, 0, 59, 32
3, 121170, Note_on_c, 0, 59, 0
3, 121170, Note_on_c, 0, 52, 0
3, 121222, Control_c, 0, 64, 0
3, 121440, Note_on_c, 0, 51, 34
3, 121440, Note_on_c, 0, 47, 34
3, 121518, Control_c, 0, 64, 127
3, 121530, Note_on_c, 0, 47, 0
3, 121530, Note_on_c, 0, 51, 0
3, 121560, Note_on_c, 0, 47, 32
3, 121560, Note_on_c, 0, 51, 32
3, 121650, Note_on_c, 0, 51, 0
3, 121650, Note_on_c, 0, 47, 0
3, 121694, Control_c, 0, 64, 0
3, 121920, Note_on_c, 0, 47, 36
3, 121920, Note_on_c, 0, 40, 36
3, 121963, Control_c, 0, 64, 127
3, 122010, Note_on_c, 0, 40, 0
3, 122010, Note_on_c, 0, 47, 0
3, 122040, Note_on_c, 0, 40, 35
3, 122040, Note_on_c, 0, 47, 35
3, 122130, Note_on_c, 0, 47, 0
3, 122130, Note_on_c, 0, 40, 0
3, 122160, Note_on_c, 0, 40, 36
3, 122160, Note_on_c, 0, 47, 36
3, 122400, Note_on_c, 0, 47, 0
3, 122400, Note_on_c, 0, 40, 0
3, 122425, Control_c, 0, 64, 0
3, 122880, Note_on_c, 0, 47, 35
3, 122880, Note_on_c, 0, 40, 35
3, 122958, Control_c, 0, 64, 127
3, 122970, Note_on_c, 0, 40, 0
3, 122970, Note_on_c, 0, 47, 0
3, 123000, Note_on_c, 0, 40, 33
3, 123000, Note_on_c, 0, 47, 33
3, 123090, Note_on_c, 0, 47, 0
3, 123090, Note_on_c, 0, 40, 0
3, 123120, Note_on_c, 0, 40, 35
3, 123120, Note_on_c, 0, 47, 35
3, 123360, Note_on_c, 0, 47, 0
3, 123360, Note_on_c, 0, 40, 0
3, 123377, Control_c, 0, 64, 0
3, 124200, Note_on_c, 0, 40, 73
3, 124200, Note_on_c, 0, 47, 73
3, 124200, Note_on_c, 0, 52, 73
3, 124250, Control_c, 0, 64, 127
3, 124318, Note_on_c, 0, 52, 0
3, 124318, Note_on_c, 0, 47, 0
3, 124318, Note_on_c, 0, 40, 0
3, 124320, Note_on_c, 0, 40, 77
3, 124320, Note_on_c, 0, 47, 77
3, 124320, Note_on_c, 0, 52, 77
3, 124560, Note_on_c, 0, 52, 0
3, 124560, Note_on_c, 0, 47, 0
3, 124560, Note_on_c, 0, 40, 0
3, 124567, Control_c, 0, 64, 0
3, 124567, End_track
4, 0, Start_track
4, 0, Title_t, "Liszt: Etude No. 5  from Grandes Etudes de Paganini"
4, 0, End_track
5, 0, Start_track
5, 0, Title_t, "Copyright © 1998 by Bernd Krüger"
5, 0, End_track
6, 0, Start_track
6, 0, Title_t, "http://www.piano-midi.de"
6, 0, End_track
7, 0, Start_track
7, 0, Title_t, "Edition: 2014-03-04"
7, 0, End_track
8, 0, Start_track
8, 0, Title_t, "Spur 7"
8, 0, End_track
0, 0, End_of_file
