0, 0, Header, 1, 8, 480
1, 0, Start_track
1, 0, Title_t, "Lieder ohne Worte Op. 62 No. 5"
1, 0, Title_t, "Venetianisches Gondellied"
1, 0, Copyright_t, "Copyright © 2004 by Bernd Krueger"
1, 0, Text_t, "Mendelslsohn"
1, 0, Text_t, "Allegro con Anima"
1, 0, Text_t, "Fertiggestellt am 13.1.2004\012"
1, 0, Text_t, "Update am 3.4.2014\012"
1, 0, Text_t, "Dauer: 2:39 Minuten\012"
1, 0, SMPTE_offset, 96, 0, 3, 0, 0
1, 0, Time_signature, 6, 3, 12, 8
1, 0, Key_signature, 0, "major"
1, 0, Tempo, 615511
1, 1200, Tempo, 873108
1, 1440, Tempo, 849017
1, 1680, Tempo, 879250
1, 2160, Tempo, 854823
1, 2400, Tempo, 879250
1, 2760, Tempo, 1000834
1, 2880, Tempo, 879250
1, 4320, Tempo, 849017
1, 4560, Tempo, 879250
1, 4920, Tempo, 984737
1, 5040, Tempo, 879250
1, 5760, Tempo, 854823
1, 6000, Tempo, 879250
1, 6360, Tempo, 1025816
1, 6480, Tempo, 851064
1, 6720, Tempo, 875912
1, 7200, Tempo, 860832
1, 7440, Tempo, 873108
1, 7680, Tempo, 837404
1, 7920, Tempo, 809826
1, 8160, Tempo, 860832
1, 8400, Tempo, 885609
1, 8640, Tempo, 892061
1, 8880, Tempo, 837404
1, 9120, Tempo, 821918
1, 9360, Tempo, 857143
1, 9600, Tempo, 873108
1, 10080, Tempo, 860832
1, 10560, Tempo, 946970
1, 10680, Tempo, 946970
1, 10692, Tempo, 961693
1, 10704, Tempo, 984737
1, 10720, Tempo, 1000834
1, 10732, Tempo, 1025816
1, 10744, Tempo, 1052078
1, 10760, Tempo, 1070473
1, 10772, Tempo, 1099102
1, 10784, Tempo, 1129305
1, 10800, Tempo, 860832
1, 11040, Tempo, 873108
1, 12000, Tempo, 918695
1, 12240, Tempo, 879250
1, 12720, Tempo, 905114
1, 12960, Tempo, 860832
1, 13200, Tempo, 873108
1, 13440, Tempo, 826219
1, 13680, Tempo, 809826
1, 13920, Tempo, 837404
1, 14160, Tempo, 885609
1, 14400, Tempo, 843170
1, 14640, Tempo, 860832
1, 14880, Tempo, 860832
1, 15120, Tempo, 898607
1, 15360, Tempo, 815217
1, 15480, Tempo, 873108
1, 15840, Tempo, 860832
1, 16080, Tempo, 815217
1, 16200, Tempo, 860832
1, 16560, Tempo, 905114
1, 16800, Tempo, 961693
1, 17160, Tempo, 1119194
1, 17280, Tempo, 879250
1, 18000, Tempo, 879250
1, 18720, Tempo, 854823
1, 18960, Tempo, 879250
1, 19320, Tempo, 1025816
1, 19440, Tempo, 879250
1, 20160, Tempo, 860832
1, 20400, Tempo, 873108
1, 20640, Tempo, 837404
1, 20880, Tempo, 809826
1, 21120, Tempo, 860832
1, 21360, Tempo, 885609
1, 21600, Tempo, 892061
1, 21840, Tempo, 837404
1, 22080, Tempo, 821918
1, 22320, Tempo, 839161
1, 22560, Tempo, 873108
1, 22800, Tempo, 869565
1, 23040, Tempo, 860832
1, 23520, Tempo, 946970
1, 23640, Tempo, 946970
1, 23652, Tempo, 961693
1, 23664, Tempo, 984737
1, 23680, Tempo, 1000834
1, 23692, Tempo, 1025816
1, 23704, Tempo, 1052078
1, 23720, Tempo, 1070473
1, 23732, Tempo, 1099102
1, 23744, Tempo, 1129305
1, 23760, Tempo, 860832
1, 24000, Tempo, 873108
1, 24960, Tempo, 918695
1, 25200, Tempo, 879250
1, 25680, Tempo, 905114
1, 25920, Tempo, 860832
1, 26160, Tempo, 873108
1, 26400, Tempo, 826219
1, 26640, Tempo, 809826
1, 26880, Tempo, 837404
1, 27120, Tempo, 885609
1, 27360, Tempo, 961693
1, 27600, Tempo, 860832
1, 27840, Tempo, 860832
1, 28080, Tempo, 954198
1, 28320, Tempo, 815217
1, 28440, Tempo, 873108
1, 28800, Tempo, 860832
1, 29040, Tempo, 815217
1, 29160, Tempo, 860832
1, 29520, Tempo, 905114
1, 29760, Tempo, 961693
1, 30120, Tempo, 1150527
1, 30240, Tempo, 879250
1, 30960, Tempo, 860832
1, 31200, Tempo, 837404
1, 31440, Tempo, 854823
1, 31680, Tempo, 826219
1, 32160, Tempo, 849017
1, 32340, Tempo, 779120
1, 32400, Tempo, 815217
1, 32640, Tempo, 843170
1, 32880, Tempo, 860832
1, 33840, Tempo, 815217
1, 34320, Tempo, 854823
1, 34560, Tempo, 826219
1, 35040, Tempo, 849017
1, 35220, Tempo, 779120
1, 35280, Tempo, 815217
1, 35520, Tempo, 843170
1, 35760, Tempo, 860832
1, 36000, Tempo, 833333
1, 36240, Tempo, 857143
1, 36720, Tempo, 833333
1, 36960, Tempo, 857143
1, 37440, Tempo, 837404
1, 37920, Tempo, 860832
1, 38160, Tempo, 843170
1, 38640, Tempo, 885609
1, 38880, Tempo, 843170
1, 39360, Tempo, 866927
1, 39600, Tempo, 843170
1, 40080, Tempo, 892061
1, 40320, Tempo, 860832
1, 40560, Tempo, 843170
1, 40800, Tempo, 879250
1, 41040, Tempo, 860832
1, 41280, Tempo, 843170
1, 41520, Tempo, 932546
1, 41760, Tempo, 911854
1, 42000, Tempo, 845070
1, 42240, Tempo, 863309
1, 42720, Tempo, 879250
1, 43200, Tempo, 898607
1, 43440, Tempo, 851064
1, 43680, Tempo, 869565
1, 43920, Tempo, 860832
1, 43940, Tempo, 892061
1, 44160, Tempo, 866927
1, 44640, Tempo, 860832
1, 44880, Tempo, 839161
1, 45120, Tempo, 946970
1, 45360, Tempo, 851064
1, 45600, Tempo, 875912
1, 46080, Tempo, 860832
1, 46320, Tempo, 873108
1, 46560, Tempo, 837404
1, 46800, Tempo, 809826
1, 47040, Tempo, 860832
1, 47280, Tempo, 885609
1, 47520, Tempo, 860832
1, 47760, Tempo, 873108
1, 48000, Tempo, 837404
1, 48240, Tempo, 809826
1, 48480, Tempo, 860832
1, 48720, Tempo, 911854
1, 48960, Tempo, 860832
1, 49200, Tempo, 815217
1, 49320, Tempo, 860832
1, 49680, Tempo, 905114
1, 49920, Tempo, 961693
1, 50280, Tempo, 1119194
1, 50400, Tempo, 879250
1, 51120, Tempo, 860832
1, 51360, Tempo, 837404
1, 51600, Tempo, 854823
1, 51840, Tempo, 826219
1, 52320, Tempo, 849017
1, 52500, Tempo, 779120
1, 52560, Tempo, 815217
1, 52800, Tempo, 843170
1, 53040, Tempo, 860832
1, 54000, Tempo, 815217
1, 54480, Tempo, 854823
1, 54720, Tempo, 826219
1, 55200, Tempo, 849017
1, 55380, Tempo, 779120
1, 55440, Tempo, 815217
1, 55680, Tempo, 843170
1, 55920, Tempo, 860832
1, 56760, Tempo, 827586
1, 56880, Tempo, 857143
1, 57600, Tempo, 837404
1, 58080, Tempo, 860832
1, 58320, Tempo, 843170
1, 58800, Tempo, 885609
1, 59040, Tempo, 843170
1, 59520, Tempo, 866927
1, 59760, Tempo, 843170
1, 60240, Tempo, 892061
1, 60480, Tempo, 860832
1, 60720, Tempo, 843170
1, 60960, Tempo, 879250
1, 61200, Tempo, 860832
1, 61440, Tempo, 843170
1, 61680, Tempo, 932546
1, 61920, Tempo, 911854
1, 62160, Tempo, 866927
1, 62880, Tempo, 879250
1, 63360, Tempo, 898607
1, 63600, Tempo, 845070
1, 63840, Tempo, 869565
1, 64080, Tempo, 860832
1, 64100, Tempo, 892061
1, 64320, Tempo, 845070
1, 64560, Tempo, 863309
1, 64800, Tempo, 860832
1, 65040, Tempo, 839161
1, 65280, Tempo, 946970
1, 65520, Tempo, 845070
1, 65760, Tempo, 875912
1, 66000, Tempo, 882353
1, 66240, Tempo, 860832
1, 66480, Tempo, 873108
1, 66600, Tempo, 827586
1, 66720, Tempo, 837404
1, 66960, Tempo, 809826
1, 67200, Tempo, 860832
1, 67440, Tempo, 885609
1, 67680, Tempo, 860832
1, 67920, Tempo, 873108
1, 68160, Tempo, 837404
1, 68400, Tempo, 809826
1, 68640, Tempo, 860832
1, 68880, Tempo, 911854
1, 69120, Tempo, 860832
1, 69360, Tempo, 815217
1, 69480, Tempo, 860832
1, 69840, Tempo, 905114
1, 70080, Tempo, 961693
1, 70440, Tempo, 1119194
1, 70560, Tempo, 898607
1, 71280, Tempo, 906481
1, 71520, Tempo, 857143
1, 71760, Tempo, 900225
1, 72000, Tempo, 857143
1, 72240, Tempo, 869565
1, 72480, Tempo, 893921
1, 72660, Tempo, 820457
1, 72720, Tempo, 858492
1, 72960, Tempo, 845070
1, 73200, Tempo, 906481
1, 73680, Tempo, 882353
1, 73920, Tempo, 902256
1, 74160, Tempo, 858492
1, 74400, Tempo, 845070
1, 74640, Tempo, 900225
1, 74880, Tempo, 869943
1, 75120, Tempo, 851064
1, 75360, Tempo, 893921
1, 75540, Tempo, 820457
1, 75600, Tempo, 858492
1, 75840, Tempo, 887968
1, 76080, Tempo, 906481
1, 77040, Tempo, 854823
1, 77760, Tempo, 826219
1, 77800, Tempo, 837404
1, 77940, Tempo, 831716
1, 78080, Tempo, 826219
1, 78200, Tempo, 820681
1, 78220, Tempo, 821918
1, 78700, Tempo, 816327
1, 79820, Tempo, 816327
1, 80020, Tempo, 821918
1, 80220, Tempo, 827586
1, 80420, Tempo, 833333
1, 80620, Tempo, 839161
1, 80640, Tempo, 784314
1, 80880, Tempo, 816327
1, 81360, Tempo, 816327
1, 81640, Tempo, 821918
1, 81840, Tempo, 827586
1, 82040, Tempo, 833333
1, 82080, Tempo, 863309
1, 82320, Tempo, 833333
1, 82780, Tempo, 827586
1, 82840, Tempo, 833333
1, 82900, Tempo, 839161
1, 82960, Tempo, 845070
1, 83020, Tempo, 851064
1, 83060, Tempo, 857143
1, 83120, Tempo, 863309
1, 83180, Tempo, 869565
1, 83240, Tempo, 875912
1, 83280, Tempo, 882353
1, 83340, Tempo, 888889
1, 83400, Tempo, 895522
1, 83460, Tempo, 902256
1, 83500, Tempo, 909091
1, 83520, Tempo, 879250
1, 84960, Tempo, 1231022
1, 86400, Tempo, 857143
1, 86400, End_track
2, 0, Start_track
2, 0, Title_t, "Piano right"
2, 0, Program_c, 0, 0
2, 0, Control_c, 0, 7, 127
2, 0, Control_c, 0, 10, 64
2, 0, Control_c, 0, 91, 127
2, 2880, Note_on_c, 0, 69, 77
2, 3600, Note_on_c, 0, 69, 0
2, 3600, Note_on_c, 0, 64, 68
2, 4080, Note_on_c, 0, 64, 0
2, 5040, Note_on_c, 0, 57, 76
2, 5756, Note_on_c, 0, 57, 0
2, 5760, Note_on_c, 0, 52, 70
2, 6240, Note_on_c, 0, 52, 0
2, 6480, Note_on_c, 0, 76, 44
2, 6480, Note_on_c, 0, 72, 35
2, 6960, Note_on_c, 0, 72, 0
2, 6960, Note_on_c, 0, 76, 0
2, 6960, Note_on_c, 0, 69, 33
2, 6960, Note_on_c, 0, 72, 40
2, 7200, Note_on_c, 0, 72, 0
2, 7200, Note_on_c, 0, 69, 0
2, 7200, Note_on_c, 0, 64, 33
2, 7200, Note_on_c, 0, 69, 40
2, 7680, Note_on_c, 0, 69, 0
2, 7680, Note_on_c, 0, 64, 0
2, 7680, Note_on_c, 0, 68, 34
2, 7680, Note_on_c, 0, 71, 42
2, 7920, Note_on_c, 0, 71, 0
2, 7920, Note_on_c, 0, 68, 0
2, 7920, Note_on_c, 0, 69, 32
2, 7920, Note_on_c, 0, 72, 39
2, 8160, Note_on_c, 0, 72, 0
2, 8160, Note_on_c, 0, 69, 0
2, 8160, Note_on_c, 0, 71, 35
2, 8160, Note_on_c, 0, 74, 44
2, 8400, Note_on_c, 0, 74, 0
2, 8400, Note_on_c, 0, 71, 0
2, 8400, Note_on_c, 0, 72, 36
2, 8400, Note_on_c, 0, 76, 46
2, 8640, Note_on_c, 0, 76, 0
2, 8640, Note_on_c, 0, 72, 0
2, 8640, Note_on_c, 0, 76, 39
2, 8640, Note_on_c, 0, 79, 49
2, 9120, Note_on_c, 0, 79, 0
2, 9120, Note_on_c, 0, 76, 0
2, 9120, Note_on_c, 0, 74, 38
2, 9120, Note_on_c, 0, 77, 48
2, 9600, Note_on_c, 0, 77, 0
2, 9600, Note_on_c, 0, 74, 0
2, 9600, Note_on_c, 0, 72, 33
2, 9600, Note_on_c, 0, 76, 40
2, 9840, Note_on_c, 0, 76, 0
2, 9840, Note_on_c, 0, 72, 0
2, 9840, Note_on_c, 0, 71, 35
2, 9840, Note_on_c, 0, 74, 44
2, 10080, Note_on_c, 0, 74, 0
2, 10080, Note_on_c, 0, 71, 0
2, 10080, Note_on_c, 0, 72, 39
2, 10080, Note_on_c, 0, 76, 49
2, 10560, Note_on_c, 0, 76, 0
2, 10560, Note_on_c, 0, 72, 0
2, 10560, Note_on_c, 0, 69, 38
2, 10560, Note_on_c, 0, 72, 46
2, 10680, Note_on_c, 0, 72, 0
2, 10680, Note_on_c, 0, 69, 0
2, 10680, Note_on_c, 0, 63, 31
2, 10710, Note_on_c, 0, 66, 32
2, 10740, Note_on_c, 0, 68, 33
2, 10770, Note_on_c, 0, 68, 0
2, 10770, Note_on_c, 0, 71, 34
2, 10800, Note_on_c, 0, 71, 0
2, 10800, Note_on_c, 0, 69, 44
2, 11040, Note_on_c, 0, 69, 0
2, 11040, Note_on_c, 0, 66, 0
2, 11040, Note_on_c, 0, 64, 33
2, 11040, Note_on_c, 0, 68, 40
2, 11280, Note_on_c, 0, 68, 0
2, 11280, Note_on_c, 0, 64, 0
2, 11280, Note_on_c, 0, 66, 35
2, 11280, Note_on_c, 0, 69, 44
2, 11520, Note_on_c, 0, 69, 0
2, 11520, Note_on_c, 0, 66, 0
2, 11520, Note_on_c, 0, 63, 0
2, 11520, Note_on_c, 0, 68, 36
2, 11520, Note_on_c, 0, 71, 43
2, 12240, Note_on_c, 0, 71, 0
2, 12240, Note_on_c, 0, 68, 0
2, 12240, Note_on_c, 0, 76, 44
2, 12240, Note_on_c, 0, 68, 35
2, 12720, Note_on_c, 0, 76, 0
2, 12720, Note_on_c, 0, 72, 40
2, 12960, Note_on_c, 0, 72, 0
2, 12960, Note_on_c, 0, 68, 0
2, 12960, Note_on_c, 0, 64, 33
2, 12960, Note_on_c, 0, 69, 40
2, 13440, Note_on_c, 0, 69, 0
2, 13440, Note_on_c, 0, 64, 0
2, 13440, Note_on_c, 0, 68, 34
2, 13440, Note_on_c, 0, 71, 42
2, 13680, Note_on_c, 0, 71, 0
2, 13680, Note_on_c, 0, 68, 0
2, 13680, Note_on_c, 0, 69, 32
2, 13680, Note_on_c, 0, 72, 39
2, 13920, Note_on_c, 0, 72, 0
2, 13920, Note_on_c, 0, 69, 0
2, 13920, Note_on_c, 0, 71, 35
2, 13920, Note_on_c, 0, 74, 44
2, 14160, Note_on_c, 0, 74, 0
2, 14160, Note_on_c, 0, 71, 0
2, 14160, Note_on_c, 0, 72, 36
2, 14160, Note_on_c, 0, 76, 46
2, 14400, Note_on_c, 0, 76, 0
2, 14400, Note_on_c, 0, 72, 0
2, 14400, Note_on_c, 0, 74, 41
2, 14400, Note_on_c, 0, 79, 49
2, 14640, Note_on_c, 0, 74, 0
2, 14640, Note_on_c, 0, 76, 43
2, 14880, Note_on_c, 0, 76, 0
2, 14880, Note_on_c, 0, 77, 40
2, 15120, Note_on_c, 0, 77, 0
2, 15120, Note_on_c, 0, 76, 43
2, 15360, Note_on_c, 0, 76, 0
2, 15360, Note_on_c, 0, 79, 0
2, 15360, Note_on_c, 0, 74, 33
2, 15360, Note_on_c, 0, 77, 40
2, 15720, Note_on_c, 0, 77, 0
2, 15720, Note_on_c, 0, 74, 0
2, 15720, Note_on_c, 0, 72, 35
2, 15720, Note_on_c, 0, 76, 44
2, 15834, Note_on_c, 0, 76, 0
2, 15834, Note_on_c, 0, 72, 0
2, 15840, Note_on_c, 0, 72, 37
2, 15840, Note_on_c, 0, 76, 46
2, 16080, Note_on_c, 0, 76, 0
2, 16080, Note_on_c, 0, 72, 0
2, 16080, Note_on_c, 0, 71, 39
2, 16080, Note_on_c, 0, 74, 47
2, 16440, Note_on_c, 0, 74, 0
2, 16440, Note_on_c, 0, 71, 0
2, 16440, Note_on_c, 0, 69, 38
2, 16440, Note_on_c, 0, 72, 48
2, 16554, Note_on_c, 0, 72, 0
2, 16554, Note_on_c, 0, 69, 0
2, 16560, Note_on_c, 0, 69, 35
2, 16560, Note_on_c, 0, 72, 39
2, 16800, Note_on_c, 0, 72, 0
2, 16800, Note_on_c, 0, 69, 0
2, 16800, Note_on_c, 0, 68, 33
2, 16800, Note_on_c, 0, 71, 40
2, 17160, Note_on_c, 0, 71, 0
2, 17160, Note_on_c, 0, 68, 0
2, 17160, Note_on_c, 0, 69, 37
2, 17274, Note_on_c, 0, 69, 0
2, 17280, Note_on_c, 0, 69, 34
2, 18000, Note_on_c, 0, 69, 0
2, 18000, Note_on_c, 0, 57, 76
2, 18720, Note_on_c, 0, 57, 0
2, 18720, Note_on_c, 0, 52, 70
2, 19200, Note_on_c, 0, 52, 0
2, 19440, Note_on_c, 0, 76, 36
2, 19440, Note_on_c, 0, 88, 48
2, 19440, Note_on_c, 0, 84, 36
2, 19920, Note_on_c, 0, 84, 0
2, 19920, Note_on_c, 0, 88, 0
2, 19920, Note_on_c, 0, 76, 0
2, 19920, Note_on_c, 0, 72, 34
2, 19920, Note_on_c, 0, 81, 34
2, 19920, Note_on_c, 0, 84, 44
2, 20160, Note_on_c, 0, 84, 0
2, 20160, Note_on_c, 0, 81, 0
2, 20160, Note_on_c, 0, 72, 0
2, 20160, Note_on_c, 0, 69, 34
2, 20160, Note_on_c, 0, 76, 34
2, 20160, Note_on_c, 0, 81, 44
2, 20640, Note_on_c, 0, 81, 0
2, 20640, Note_on_c, 0, 76, 0
2, 20640, Note_on_c, 0, 69, 0
2, 20640, Note_on_c, 0, 71, 35
2, 20640, Note_on_c, 0, 80, 35
2, 20640, Note_on_c, 0, 83, 46
2, 20880, Note_on_c, 0, 83, 0
2, 20880, Note_on_c, 0, 80, 0
2, 20880, Note_on_c, 0, 71, 0
2, 20880, Note_on_c, 0, 72, 33
2, 20880, Note_on_c, 0, 81, 33
2, 20880, Note_on_c, 0, 84, 42
2, 21120, Note_on_c, 0, 84, 0
2, 21120, Note_on_c, 0, 81, 0
2, 21120, Note_on_c, 0, 72, 0
2, 21120, Note_on_c, 0, 74, 36
2, 21120, Note_on_c, 0, 83, 36
2, 21120, Note_on_c, 0, 86, 48
2, 21360, Note_on_c, 0, 86, 0
2, 21360, Note_on_c, 0, 83, 0
2, 21360, Note_on_c, 0, 74, 0
2, 21360, Note_on_c, 0, 76, 37
2, 21360, Note_on_c, 0, 84, 37
2, 21360, Note_on_c, 0, 88, 50
2, 21600, Note_on_c, 0, 88, 0
2, 21600, Note_on_c, 0, 84, 0
2, 21600, Note_on_c, 0, 76, 0
2, 21600, Note_on_c, 0, 79, 40
2, 21600, Note_on_c, 0, 88, 40
2, 21600, Note_on_c, 0, 91, 53
2, 22080, Note_on_c, 0, 91, 0
2, 22080, Note_on_c, 0, 88, 0
2, 22080, Note_on_c, 0, 79, 0
2, 22080, Note_on_c, 0, 77, 39
2, 22080, Note_on_c, 0, 86, 39
2, 22080, Note_on_c, 0, 89, 52
2, 22560, Note_on_c, 0, 89, 0
2, 22560, Note_on_c, 0, 86, 0
2, 22560, Note_on_c, 0, 77, 0
2, 22560, Note_on_c, 0, 76, 34
2, 22560, Note_on_c, 0, 84, 34
2, 22560, Note_on_c, 0, 88, 44
2, 22800, Note_on_c, 0, 88, 0
2, 22800, Note_on_c, 0, 84, 0
2, 22800, Note_on_c, 0, 76, 0
2, 22800, Note_on_c, 0, 74, 36
2, 22800, Note_on_c, 0, 83, 36
2, 22800, Note_on_c, 0, 86, 48
2, 23040, Note_on_c, 0, 86, 0
2, 23040, Note_on_c, 0, 83, 0
2, 23040, Note_on_c, 0, 74, 0
2, 23040, Note_on_c, 0, 76, 40
2, 23040, Note_on_c, 0, 84, 40
2, 23040, Note_on_c, 0, 88, 53
2, 23520, Note_on_c, 0, 88, 0
2, 23520, Note_on_c, 0, 84, 0
2, 23520, Note_on_c, 0, 76, 0
2, 23520, Note_on_c, 0, 72, 39
2, 23520, Note_on_c, 0, 81, 39
2, 23520, Note_on_c, 0, 84, 52
2, 23640, Note_on_c, 0, 84, 0
2, 23640, Note_on_c, 0, 81, 0
2, 23640, Note_on_c, 0, 72, 0
2, 23640, Note_on_c, 0, 69, 33
2, 23670, Note_on_c, 0, 75, 35
2, 23700, Note_on_c, 0, 78, 36
2, 23730, Note_on_c, 0, 83, 38
2, 23760, Note_on_c, 0, 83, 0
2, 23760, Note_on_c, 0, 81, 48
2, 24000, Note_on_c, 0, 81, 0
2, 24000, Note_on_c, 0, 78, 0
2, 24000, Note_on_c, 0, 75, 0
2, 24000, Note_on_c, 0, 68, 34
2, 24000, Note_on_c, 0, 80, 44
2, 24240, Note_on_c, 0, 80, 0
2, 24240, Note_on_c, 0, 68, 0
2, 24240, Note_on_c, 0, 69, 36
2, 24240, Note_on_c, 0, 81, 48
2, 24480, Note_on_c, 0, 81, 0
2, 24480, Note_on_c, 0, 69, 0
2, 24480, Note_on_c, 0, 69, 0
2, 24480, Note_on_c, 0, 71, 37
2, 24480, Note_on_c, 0, 80, 37
2, 24480, Note_on_c, 0, 83, 47
2, 25200, Note_on_c, 0, 83, 0
2, 25200, Note_on_c, 0, 80, 0
2, 25200, Note_on_c, 0, 71, 0
2, 25200, Note_on_c, 0, 76, 39
2, 25200, Note_on_c, 0, 88, 52
2, 25200, Note_on_c, 0, 80, 39
2, 25680, Note_on_c, 0, 80, 0
2, 25680, Note_on_c, 0, 88, 0
2, 25680, Note_on_c, 0, 72, 44
2, 25680, Note_on_c, 0, 84, 48
2, 25920, Note_on_c, 0, 84, 0
2, 25920, Note_on_c, 0, 72, 0
2, 25920, Note_on_c, 0, 76, 0
2, 25920, Note_on_c, 0, 69, 37
2, 25920, Note_on_c, 0, 76, 37
2, 25920, Note_on_c, 0, 81, 48
2, 26400, Note_on_c, 0, 81, 0
2, 26400, Note_on_c, 0, 76, 0
2, 26400, Note_on_c, 0, 69, 0
2, 26400, Note_on_c, 0, 71, 38
2, 26400, Note_on_c, 0, 80, 38
2, 26400, Note_on_c, 0, 83, 50
2, 26640, Note_on_c, 0, 83, 0
2, 26640, Note_on_c, 0, 80, 0
2, 26640, Note_on_c, 0, 71, 0
2, 26640, Note_on_c, 0, 72, 36
2, 26640, Note_on_c, 0, 81, 36
2, 26640, Note_on_c, 0, 84, 46
2, 26880, Note_on_c, 0, 84, 0
2, 26880, Note_on_c, 0, 81, 0
2, 26880, Note_on_c, 0, 72, 0
2, 26880, Note_on_c, 0, 74, 39
2, 26880, Note_on_c, 0, 83, 39
2, 26880, Note_on_c, 0, 86, 52
2, 27120, Note_on_c, 0, 86, 0
2, 27120, Note_on_c, 0, 83, 0
2, 27120, Note_on_c, 0, 74, 0
2, 27120, Note_on_c, 0, 76, 40
2, 27120, Note_on_c, 0, 84, 40
2, 27120, Note_on_c, 0, 88, 55
2, 27360, Note_on_c, 0, 88, 0
2, 27360, Note_on_c, 0, 84, 0
2, 27360, Note_on_c, 0, 76, 0
2, 27360, Note_on_c, 0, 79, 47
2, 27360, Note_on_c, 0, 86, 47
2, 27360, Note_on_c, 0, 91, 58
2, 27600, Note_on_c, 0, 86, 0
2, 27600, Note_on_c, 0, 79, 0
2, 27600, Note_on_c, 0, 77, 51
2, 27960, Note_on_c, 0, 77, 0
2, 27960, Note_on_c, 0, 76, 48
2, 28080, Note_on_c, 0, 76, 0
2, 28080, Note_on_c, 0, 76, 51
2, 28320, Note_on_c, 0, 91, 0
2, 28320, Note_on_c, 0, 86, 40
2, 28320, Note_on_c, 0, 89, 52
2, 28680, Note_on_c, 0, 89, 0
2, 28680, Note_on_c, 0, 86, 0
2, 28680, Note_on_c, 0, 84, 39
2, 28680, Note_on_c, 0, 88, 52
2, 28794, Note_on_c, 0, 88, 0
2, 28794, Note_on_c, 0, 84, 0
2, 28800, Note_on_c, 0, 84, 44
2, 28800, Note_on_c, 0, 88, 58
2, 29040, Note_on_c, 0, 88, 0
2, 29040, Note_on_c, 0, 84, 0
2, 29040, Note_on_c, 0, 76, 0
2, 29040, Note_on_c, 0, 74, 40
2, 29040, Note_on_c, 0, 83, 40
2, 29040, Note_on_c, 0, 86, 53
2, 29400, Note_on_c, 0, 86, 0
2, 29400, Note_on_c, 0, 83, 0
2, 29400, Note_on_c, 0, 74, 0
2, 29400, Note_on_c, 0, 72, 39
2, 29400, Note_on_c, 0, 81, 39
2, 29400, Note_on_c, 0, 84, 52
2, 29514, Note_on_c, 0, 84, 0
2, 29514, Note_on_c, 0, 81, 0
2, 29514, Note_on_c, 0, 72, 0
2, 29520, Note_on_c, 0, 72, 36
2, 29520, Note_on_c, 0, 81, 36
2, 29520, Note_on_c, 0, 84, 42
2, 29760, Note_on_c, 0, 84, 0
2, 29760, Note_on_c, 0, 81, 0
2, 29760, Note_on_c, 0, 72, 0
2, 29760, Note_on_c, 0, 71, 34
2, 29760, Note_on_c, 0, 80, 34
2, 29760, Note_on_c, 0, 83, 44
2, 30120, Note_on_c, 0, 83, 0
2, 30120, Note_on_c, 0, 80, 0
2, 30120, Note_on_c, 0, 71, 0
2, 30120, Note_on_c, 0, 69, 34
2, 30120, Note_on_c, 0, 81, 41
2, 30234, Note_on_c, 0, 81, 0
2, 30234, Note_on_c, 0, 69, 0
2, 30240, Note_on_c, 0, 69, 32
2, 30240, Note_on_c, 0, 81, 37
2, 30960, Note_on_c, 0, 81, 0
2, 30960, Note_on_c, 0, 69, 0
2, 30960, Note_on_c, 0, 63, 39
2, 30960, Note_on_c, 0, 66, 46
2, 31200, Note_on_c, 0, 66, 0
2, 31200, Note_on_c, 0, 63, 0
2, 31200, Note_on_c, 0, 64, 40
2, 31200, Note_on_c, 0, 68, 48
2, 31440, Note_on_c, 0, 68, 0
2, 31440, Note_on_c, 0, 64, 0
2, 31440, Note_on_c, 0, 66, 42
2, 31440, Note_on_c, 0, 69, 50
2, 31680, Note_on_c, 0, 69, 0
2, 31680, Note_on_c, 0, 66, 0
2, 31680, Note_on_c, 0, 68, 44
2, 31680, Note_on_c, 0, 71, 52
2, 31920, Note_on_c, 0, 71, 0
2, 31920, Note_on_c, 0, 68, 0
2, 31920, Note_on_c, 0, 76, 50
2, 32160, Note_on_c, 0, 76, 0
2, 32160, Note_on_c, 0, 68, 42
2, 32160, Note_on_c, 0, 71, 50
2, 32340, Note_on_c, 0, 71, 0
2, 32340, Note_on_c, 0, 68, 0
2, 32340, Note_on_c, 0, 68, 35
2, 32340, Note_on_c, 0, 71, 42
2, 32400, Note_on_c, 0, 71, 0
2, 32400, Note_on_c, 0, 68, 0
2, 32400, Note_on_c, 0, 66, 43
2, 32400, Note_on_c, 0, 69, 51
2, 32640, Note_on_c, 0, 69, 0
2, 32640, Note_on_c, 0, 66, 0
2, 32640, Note_on_c, 0, 64, 40
2, 32640, Note_on_c, 0, 68, 48
2, 32880, Note_on_c, 0, 68, 0
2, 32880, Note_on_c, 0, 64, 0
2, 32880, Note_on_c, 0, 63, 40
2, 32880, Note_on_c, 0, 66, 48
2, 33120, Note_on_c, 0, 66, 0
2, 33120, Note_on_c, 0, 63, 0
2, 33120, Note_on_c, 0, 68, 44
2, 33120, Note_on_c, 0, 71, 52
2, 33600, Note_on_c, 0, 71, 0
2, 33600, Note_on_c, 0, 68, 0
2, 33600, Note_on_c, 0, 64, 41
2, 33600, Note_on_c, 0, 68, 49
2, 33840, Note_on_c, 0, 68, 0
2, 33840, Note_on_c, 0, 64, 0
2, 33840, Note_on_c, 0, 63, 39
2, 33840, Note_on_c, 0, 66, 46
2, 34080, Note_on_c, 0, 66, 0
2, 34080, Note_on_c, 0, 63, 0
2, 34080, Note_on_c, 0, 64, 40
2, 34080, Note_on_c, 0, 68, 48
2, 34320, Note_on_c, 0, 68, 0
2, 34320, Note_on_c, 0, 64, 0
2, 34320, Note_on_c, 0, 66, 42
2, 34320, Note_on_c, 0, 69, 50
2, 34560, Note_on_c, 0, 69, 0
2, 34560, Note_on_c, 0, 66, 0
2, 34560, Note_on_c, 0, 68, 44
2, 34560, Note_on_c, 0, 71, 52
2, 34800, Note_on_c, 0, 71, 0
2, 34800, Note_on_c, 0, 68, 0
2, 34800, Note_on_c, 0, 76, 50
2, 35040, Note_on_c, 0, 76, 0
2, 35040, Note_on_c, 0, 68, 42
2, 35040, Note_on_c, 0, 71, 50
2, 35220, Note_on_c, 0, 71, 0
2, 35220, Note_on_c, 0, 68, 0
2, 35220, Note_on_c, 0, 68, 35
2, 35220, Note_on_c, 0, 71, 42
2, 35280, Note_on_c, 0, 71, 0
2, 35280, Note_on_c, 0, 68, 0
2, 35280, Note_on_c, 0, 66, 43
2, 35280, Note_on_c, 0, 69, 51
2, 35520, Note_on_c, 0, 69, 0
2, 35520, Note_on_c, 0, 66, 0
2, 35520, Note_on_c, 0, 64, 40
2, 35520, Note_on_c, 0, 68, 48
2, 35760, Note_on_c, 0, 68, 0
2, 35760, Note_on_c, 0, 64, 0
2, 35760, Note_on_c, 0, 63, 40
2, 35760, Note_on_c, 0, 66, 48
2, 36000, Note_on_c, 0, 66, 0
2, 36000, Note_on_c, 0, 63, 0
2, 36000, Note_on_c, 0, 68, 44
2, 36000, Note_on_c, 0, 71, 52
2, 37440, Note_on_c, 0, 71, 0
2, 37440, Note_on_c, 0, 68, 0
2, 37440, Note_on_c, 0, 67, 54
2, 37440, Note_on_c, 0, 73, 64
2, 38160, Note_on_c, 0, 73, 0
2, 38160, Note_on_c, 0, 67, 0
2, 38160, Note_on_c, 0, 66, 57
2, 38160, Note_on_c, 0, 74, 68
2, 38880, Note_on_c, 0, 74, 0
2, 38880, Note_on_c, 0, 66, 0
2, 38880, Note_on_c, 0, 69, 62
2, 38880, Note_on_c, 0, 75, 73
2, 39600, Note_on_c, 0, 75, 0
2, 39600, Note_on_c, 0, 69, 0
2, 39600, Note_on_c, 0, 69, 65
2, 39600, Note_on_c, 0, 72, 65
2, 39600, Note_on_c, 0, 76, 77
2, 40320, Note_on_c, 0, 76, 0
2, 40320, Note_on_c, 0, 72, 0
2, 40320, Note_on_c, 0, 69, 0
2, 40320, Note_on_c, 0, 70, 69
2, 40320, Note_on_c, 0, 76, 69
2, 40320, Note_on_c, 0, 79, 82
2, 41040, Note_on_c, 0, 79, 0
2, 41040, Note_on_c, 0, 76, 0
2, 41040, Note_on_c, 0, 70, 0
2, 41040, Note_on_c, 0, 70, 73
2, 41040, Note_on_c, 0, 74, 73
2, 41040, Note_on_c, 0, 77, 86
2, 41760, Note_on_c, 0, 77, 0
2, 41760, Note_on_c, 0, 74, 0
2, 41760, Note_on_c, 0, 70, 0
2, 41760, Note_on_c, 0, 69, 71
2, 41760, Note_on_c, 0, 72, 71
2, 41760, Note_on_c, 0, 75, 77
2, 41760, Note_on_c, 0, 78, 81
2, 41760, Note_on_c, 0, 81, 91
2, 43200, Note_on_c, 0, 81, 0
2, 43200, Note_on_c, 0, 75, 0
2, 43200, Note_on_c, 0, 69, 0
2, 43200, Note_on_c, 0, 72, 0
2, 43200, Note_on_c, 0, 78, 0
2, 43200, Note_on_c, 0, 45, 88
2, 43920, Note_on_c, 0, 45, 0
2, 43920, Note_on_c, 0, 39, 78
2, 44400, Note_on_c, 0, 39, 0
2, 45360, Note_on_c, 0, 76, 44
2, 45360, Note_on_c, 0, 72, 35
2, 45840, Note_on_c, 0, 72, 0
2, 45840, Note_on_c, 0, 76, 0
2, 45840, Note_on_c, 0, 69, 33
2, 45840, Note_on_c, 0, 72, 40
2, 46080, Note_on_c, 0, 72, 0
2, 46080, Note_on_c, 0, 69, 0
2, 46080, Note_on_c, 0, 64, 31
2, 46080, Note_on_c, 0, 69, 38
2, 46560, Note_on_c, 0, 69, 0
2, 46560, Note_on_c, 0, 64, 0
2, 46560, Note_on_c, 0, 68, 34
2, 46560, Note_on_c, 0, 71, 42
2, 46800, Note_on_c, 0, 71, 0
2, 46800, Note_on_c, 0, 68, 0
2, 46800, Note_on_c, 0, 69, 32
2, 46800, Note_on_c, 0, 72, 39
2, 47040, Note_on_c, 0, 72, 0
2, 47040, Note_on_c, 0, 69, 0
2, 47040, Note_on_c, 0, 71, 35
2, 47040, Note_on_c, 0, 74, 44
2, 47280, Note_on_c, 0, 74, 0
2, 47280, Note_on_c, 0, 71, 0
2, 47280, Note_on_c, 0, 72, 36
2, 47280, Note_on_c, 0, 76, 46
2, 47520, Note_on_c, 0, 76, 0
2, 47520, Note_on_c, 0, 72, 0
2, 47520, Note_on_c, 0, 64, 31
2, 47520, Note_on_c, 0, 69, 38
2, 48000, Note_on_c, 0, 69, 0
2, 48000, Note_on_c, 0, 64, 0
2, 48000, Note_on_c, 0, 68, 34
2, 48000, Note_on_c, 0, 71, 42
2, 48240, Note_on_c, 0, 71, 0
2, 48240, Note_on_c, 0, 68, 0
2, 48240, Note_on_c, 0, 69, 32
2, 48240, Note_on_c, 0, 72, 39
2, 48480, Note_on_c, 0, 72, 0
2, 48480, Note_on_c, 0, 69, 0
2, 48480, Note_on_c, 0, 71, 35
2, 48480, Note_on_c, 0, 74, 44
2, 48720, Note_on_c, 0, 74, 0
2, 48720, Note_on_c, 0, 71, 0
2, 48720, Note_on_c, 0, 72, 36
2, 48720, Note_on_c, 0, 76, 46
2, 49200, Note_on_c, 0, 76, 0
2, 49200, Note_on_c, 0, 72, 0
2, 49200, Note_on_c, 0, 71, 39
2, 49200, Note_on_c, 0, 74, 49
2, 49560, Note_on_c, 0, 74, 0
2, 49560, Note_on_c, 0, 71, 0
2, 49560, Note_on_c, 0, 69, 38
2, 49560, Note_on_c, 0, 72, 48
2, 49680, Note_on_c, 0, 72, 0
2, 49680, Note_on_c, 0, 69, 0
2, 49680, Note_on_c, 0, 69, 35
2, 49680, Note_on_c, 0, 72, 39
2, 49920, Note_on_c, 0, 72, 0
2, 49920, Note_on_c, 0, 69, 0
2, 49920, Note_on_c, 0, 68, 33
2, 49920, Note_on_c, 0, 71, 40
2, 50280, Note_on_c, 0, 71, 0
2, 50280, Note_on_c, 0, 68, 0
2, 50280, Note_on_c, 0, 69, 37
2, 50400, Note_on_c, 0, 69, 0
2, 50400, Note_on_c, 0, 69, 37
2, 51120, Note_on_c, 0, 69, 0
2, 51120, Note_on_c, 0, 63, 35
2, 51120, Note_on_c, 0, 66, 41
2, 51240, Note_on_c, 0, 64, 27
2, 51360, Note_on_c, 0, 66, 0
2, 51360, Note_on_c, 0, 63, 0
2, 51360, Note_on_c, 0, 68, 43
2, 51480, Note_on_c, 0, 64, 0
2, 51480, Note_on_c, 0, 64, 27
2, 51600, Note_on_c, 0, 68, 0
2, 51600, Note_on_c, 0, 66, 37
2, 51600, Note_on_c, 0, 69, 45
2, 51720, Note_on_c, 0, 64, 0
2, 51720, Note_on_c, 0, 64, 27
2, 51840, Note_on_c, 0, 69, 0
2, 51840, Note_on_c, 0, 66, 0
2, 51840, Note_on_c, 0, 68, 39
2, 51840, Note_on_c, 0, 71, 46
2, 51960, Note_on_c, 0, 64, 0
2, 51960, Note_on_c, 0, 64, 31
2, 52080, Note_on_c, 0, 71, 0
2, 52080, Note_on_c, 0, 68, 0
2, 52080, Note_on_c, 0, 76, 45
2, 52200, Note_on_c, 0, 64, 0
2, 52200, Note_on_c, 0, 64, 31
2, 52320, Note_on_c, 0, 76, 0
2, 52320, Note_on_c, 0, 68, 37
2, 52320, Note_on_c, 0, 71, 45
2, 52440, Note_on_c, 0, 64, 0
2, 52440, Note_on_c, 0, 64, 31
2, 52500, Note_on_c, 0, 71, 0
2, 52500, Note_on_c, 0, 68, 0
2, 52500, Note_on_c, 0, 68, 31
2, 52500, Note_on_c, 0, 71, 37
2, 52560, Note_on_c, 0, 71, 0
2, 52560, Note_on_c, 0, 68, 0
2, 52560, Note_on_c, 0, 66, 38
2, 52560, Note_on_c, 0, 69, 45
2, 52680, Note_on_c, 0, 64, 0
2, 52680, Note_on_c, 0, 64, 28
2, 52800, Note_on_c, 0, 69, 0
2, 52800, Note_on_c, 0, 66, 0
2, 52800, Note_on_c, 0, 68, 43
2, 52920, Note_on_c, 0, 64, 0
2, 52920, Note_on_c, 0, 64, 28
2, 53040, Note_on_c, 0, 68, 0
2, 53040, Note_on_c, 0, 63, 36
2, 53040, Note_on_c, 0, 66, 43
2, 53160, Note_on_c, 0, 64, 0
2, 53160, Note_on_c, 0, 64, 28
2, 53280, Note_on_c, 0, 66, 0
2, 53280, Note_on_c, 0, 63, 0
2, 53280, Note_on_c, 0, 68, 39
2, 53280, Note_on_c, 0, 71, 46
2, 53400, Note_on_c, 0, 64, 0
2, 53400, Note_on_c, 0, 64, 28
2, 53640, Note_on_c, 0, 64, 0
2, 53640, Note_on_c, 0, 64, 29
2, 53760, Note_on_c, 0, 71, 0
2, 53760, Note_on_c, 0, 68, 0
2, 53760, Note_on_c, 0, 68, 44
2, 53880, Note_on_c, 0, 64, 0
2, 53880, Note_on_c, 0, 64, 28
2, 54000, Note_on_c, 0, 68, 0
2, 54000, Note_on_c, 0, 63, 35
2, 54000, Note_on_c, 0, 66, 41
2, 54120, Note_on_c, 0, 64, 0
2, 54120, Note_on_c, 0, 64, 28
2, 54240, Note_on_c, 0, 66, 0
2, 54240, Note_on_c, 0, 63, 0
2, 54240, Note_on_c, 0, 68, 43
2, 54360, Note_on_c, 0, 64, 0
2, 54360, Note_on_c, 0, 64, 27
2, 54480, Note_on_c, 0, 68, 0
2, 54480, Note_on_c, 0, 66, 37
2, 54480, Note_on_c, 0, 69, 45
2, 54600, Note_on_c, 0, 64, 0
2, 54600, Note_on_c, 0, 64, 27
2, 54720, Note_on_c, 0, 69, 0
2, 54720, Note_on_c, 0, 66, 0
2, 54720, Note_on_c, 0, 68, 39
2, 54720, Note_on_c, 0, 71, 46
2, 54840, Note_on_c, 0, 64, 0
2, 54840, Note_on_c, 0, 64, 27
2, 54960, Note_on_c, 0, 71, 0
2, 54960, Note_on_c, 0, 68, 0
2, 54960, Note_on_c, 0, 76, 45
2, 55080, Note_on_c, 0, 64, 0
2, 55080, Note_on_c, 0, 64, 27
2, 55200, Note_on_c, 0, 76, 0
2, 55200, Note_on_c, 0, 68, 37
2, 55200, Note_on_c, 0, 71, 45
2, 55320, Note_on_c, 0, 64, 0
2, 55320, Note_on_c, 0, 64, 31
2, 55380, Note_on_c, 0, 71, 0
2, 55380, Note_on_c, 0, 68, 0
2, 55380, Note_on_c, 0, 68, 31
2, 55380, Note_on_c, 0, 71, 37
2, 55440, Note_on_c, 0, 71, 0
2, 55440, Note_on_c, 0, 68, 0
2, 55440, Note_on_c, 0, 66, 38
2, 55440, Note_on_c, 0, 69, 45
2, 55560, Note_on_c, 0, 64, 0
2, 55560, Note_on_c, 0, 64, 30
2, 55680, Note_on_c, 0, 69, 0
2, 55680, Note_on_c, 0, 66, 0
2, 55680, Note_on_c, 0, 68, 43
2, 55800, Note_on_c, 0, 64, 0
2, 55800, Note_on_c, 0, 64, 29
2, 55920, Note_on_c, 0, 68, 0
2, 55920, Note_on_c, 0, 63, 36
2, 55920, Note_on_c, 0, 66, 43
2, 56040, Note_on_c, 0, 64, 0
2, 56040, Note_on_c, 0, 64, 29
2, 56160, Note_on_c, 0, 66, 0
2, 56160, Note_on_c, 0, 63, 0
2, 56160, Note_on_c, 0, 68, 44
2, 56160, Note_on_c, 0, 71, 52
2, 56280, Note_on_c, 0, 64, 0
2, 56280, Note_on_c, 0, 64, 35
2, 56520, Note_on_c, 0, 64, 0
2, 56520, Note_on_c, 0, 64, 36
2, 56760, Note_on_c, 0, 64, 0
2, 56760, Note_on_c, 0, 64, 38
2, 57000, Note_on_c, 0, 64, 0
2, 57000, Note_on_c, 0, 64, 39
2, 57240, Note_on_c, 0, 64, 0
2, 57240, Note_on_c, 0, 64, 41
2, 57480, Note_on_c, 0, 64, 0
2, 57480, Note_on_c, 0, 64, 42
2, 57600, Note_on_c, 0, 71, 0
2, 57600, Note_on_c, 0, 68, 0
2, 57600, Note_on_c, 0, 67, 54
2, 57600, Note_on_c, 0, 73, 64
2, 57720, Note_on_c, 0, 64, 0
2, 57720, Note_on_c, 0, 64, 46
2, 57960, Note_on_c, 0, 64, 0
2, 57960, Note_on_c, 0, 64, 47
2, 58200, Note_on_c, 0, 64, 0
2, 58200, Note_on_c, 0, 64, 48
2, 58320, Note_on_c, 0, 64, 0
2, 58320, Note_on_c, 0, 73, 0
2, 58320, Note_on_c, 0, 67, 0
2, 58320, Note_on_c, 0, 69, 57
2, 58320, Note_on_c, 0, 74, 68
2, 58440, Note_on_c, 0, 66, 48
2, 58680, Note_on_c, 0, 66, 0
2, 58680, Note_on_c, 0, 66, 49
2, 58920, Note_on_c, 0, 66, 0
2, 58920, Note_on_c, 0, 66, 50
2, 59040, Note_on_c, 0, 74, 0
2, 59040, Note_on_c, 0, 69, 0
2, 59040, Note_on_c, 0, 69, 62
2, 59040, Note_on_c, 0, 75, 73
2, 59160, Note_on_c, 0, 66, 0
2, 59160, Note_on_c, 0, 66, 50
2, 59400, Note_on_c, 0, 66, 0
2, 59400, Note_on_c, 0, 66, 52
2, 59640, Note_on_c, 0, 66, 0
2, 59640, Note_on_c, 0, 66, 54
2, 59760, Note_on_c, 0, 66, 0
2, 59760, Note_on_c, 0, 75, 0
2, 59760, Note_on_c, 0, 69, 0
2, 59760, Note_on_c, 0, 72, 65
2, 59760, Note_on_c, 0, 76, 77
2, 59880, Note_on_c, 0, 69, 54
2, 60120, Note_on_c, 0, 69, 0
2, 60120, Note_on_c, 0, 69, 56
2, 60360, Note_on_c, 0, 69, 0
2, 60360, Note_on_c, 0, 69, 57
2, 60480, Note_on_c, 0, 69, 0
2, 60480, Note_on_c, 0, 76, 0
2, 60480, Note_on_c, 0, 72, 0
2, 60480, Note_on_c, 0, 76, 69
2, 60480, Note_on_c, 0, 79, 82
2, 60600, Note_on_c, 0, 70, 59
2, 60840, Note_on_c, 0, 70, 0
2, 60840, Note_on_c, 0, 70, 60
2, 61080, Note_on_c, 0, 70, 0
2, 61080, Note_on_c, 0, 70, 61
2, 61200, Note_on_c, 0, 79, 0
2, 61200, Note_on_c, 0, 76, 0
2, 61200, Note_on_c, 0, 74, 73
2, 61200, Note_on_c, 0, 77, 86
2, 61320, Note_on_c, 0, 70, 0
2, 61320, Note_on_c, 0, 70, 61
2, 61560, Note_on_c, 0, 70, 0
2, 61560, Note_on_c, 0, 70, 63
2, 61800, Note_on_c, 0, 70, 0
2, 61800, Note_on_c, 0, 70, 64
2, 61920, Note_on_c, 0, 70, 0
2, 61920, Note_on_c, 0, 77, 0
2, 61920, Note_on_c, 0, 74, 0
2, 61920, Note_on_c, 0, 69, 71
2, 61920, Note_on_c, 0, 72, 71
2, 61920, Note_on_c, 0, 75, 77
2, 61920, Note_on_c, 0, 78, 78
2, 61920, Note_on_c, 0, 81, 91
2, 63360, Note_on_c, 0, 81, 0
2, 63360, Note_on_c, 0, 75, 0
2, 63360, Note_on_c, 0, 69, 0
2, 63360, Note_on_c, 0, 72, 0
2, 63360, Note_on_c, 0, 78, 0
2, 63360, Note_on_c, 0, 45, 88
2, 64080, Note_on_c, 0, 45, 0
2, 64080, Note_on_c, 0, 39, 76
2, 64560, Note_on_c, 0, 39, 0
2, 65520, Note_on_c, 0, 76, 46
2, 65520, Note_on_c, 0, 72, 38
2, 65640, Note_on_c, 0, 64, 30
2, 65880, Note_on_c, 0, 64, 0
2, 65880, Note_on_c, 0, 64, 30
2, 66000, Note_on_c, 0, 72, 0
2, 66000, Note_on_c, 0, 76, 0
2, 66000, Note_on_c, 0, 69, 36
2, 66000, Note_on_c, 0, 72, 42
2, 66120, Note_on_c, 0, 64, 0
2, 66120, Note_on_c, 0, 64, 29
2, 66240, Note_on_c, 0, 72, 0
2, 66240, Note_on_c, 0, 69, 0
2, 66240, Note_on_c, 0, 69, 42
2, 66360, Note_on_c, 0, 64, 0
2, 66360, Note_on_c, 0, 64, 30
2, 66600, Note_on_c, 0, 64, 0
2, 66600, Note_on_c, 0, 64, 30
2, 66720, Note_on_c, 0, 69, 0
2, 66720, Note_on_c, 0, 68, 37
2, 66720, Note_on_c, 0, 71, 44
2, 66840, Note_on_c, 0, 64, 0
2, 66840, Note_on_c, 0, 64, 29
2, 66960, Note_on_c, 0, 71, 0
2, 66960, Note_on_c, 0, 68, 0
2, 66960, Note_on_c, 0, 69, 35
2, 66960, Note_on_c, 0, 72, 41
2, 67080, Note_on_c, 0, 64, 0
2, 67080, Note_on_c, 0, 64, 30
2, 67200, Note_on_c, 0, 72, 0
2, 67200, Note_on_c, 0, 69, 0
2, 67200, Note_on_c, 0, 71, 38
2, 67200, Note_on_c, 0, 74, 46
2, 67320, Note_on_c, 0, 64, 0
2, 67320, Note_on_c, 0, 64, 31
2, 67440, Note_on_c, 0, 74, 0
2, 67440, Note_on_c, 0, 71, 0
2, 67440, Note_on_c, 0, 72, 39
2, 67440, Note_on_c, 0, 76, 48
2, 67560, Note_on_c, 0, 64, 0
2, 67560, Note_on_c, 0, 64, 30
2, 67680, Note_on_c, 0, 76, 0
2, 67680, Note_on_c, 0, 72, 0
2, 67680, Note_on_c, 0, 69, 42
2, 67800, Note_on_c, 0, 64, 0
2, 67800, Note_on_c, 0, 64, 31
2, 68040, Note_on_c, 0, 64, 0
2, 68040, Note_on_c, 0, 64, 29
2, 68160, Note_on_c, 0, 69, 0
2, 68160, Note_on_c, 0, 68, 37
2, 68160, Note_on_c, 0, 71, 44
2, 68280, Note_on_c, 0, 64, 0
2, 68280, Note_on_c, 0, 64, 29
2, 68400, Note_on_c, 0, 71, 0
2, 68400, Note_on_c, 0, 68, 0
2, 68400, Note_on_c, 0, 69, 35
2, 68400, Note_on_c, 0, 72, 41
2, 68520, Note_on_c, 0, 64, 0
2, 68520, Note_on_c, 0, 64, 30
2, 68640, Note_on_c, 0, 72, 0
2, 68640, Note_on_c, 0, 69, 0
2, 68640, Note_on_c, 0, 71, 38
2, 68640, Note_on_c, 0, 74, 46
2, 68760, Note_on_c, 0, 64, 0
2, 68760, Note_on_c, 0, 64, 31
2, 68880, Note_on_c, 0, 74, 0
2, 68880, Note_on_c, 0, 71, 0
2, 68880, Note_on_c, 0, 72, 39
2, 68880, Note_on_c, 0, 76, 48
2, 69000, Note_on_c, 0, 64, 0
2, 69000, Note_on_c, 0, 64, 33
2, 69240, Note_on_c, 0, 64, 0
2, 69240, Note_on_c, 0, 64, 34
2, 69360, Note_on_c, 0, 76, 0
2, 69360, Note_on_c, 0, 72, 0
2, 69360, Note_on_c, 0, 71, 42
2, 69360, Note_on_c, 0, 74, 51
2, 69480, Note_on_c, 0, 64, 0
2, 69480, Note_on_c, 0, 64, 31
2, 69720, Note_on_c, 0, 64, 0
2, 69720, Note_on_c, 0, 74, 0
2, 69720, Note_on_c, 0, 71, 0
2, 69720, Note_on_c, 0, 69, 41
2, 69720, Note_on_c, 0, 72, 50
2, 69834, Note_on_c, 0, 72, 0
2, 69834, Note_on_c, 0, 69, 0
2, 69840, Note_on_c, 0, 69, 35
2, 69840, Note_on_c, 0, 72, 38
2, 70080, Note_on_c, 0, 72, 0
2, 70080, Note_on_c, 0, 69, 0
2, 70080, Note_on_c, 0, 68, 33
2, 70080, Note_on_c, 0, 71, 39
2, 70440, Note_on_c, 0, 71, 0
2, 70440, Note_on_c, 0, 68, 0
2, 70440, Note_on_c, 0, 69, 37
2, 70554, Note_on_c, 0, 69, 0
2, 70560, Note_on_c, 0, 69, 34
2, 71280, Note_on_c, 0, 69, 0
2, 71280, Note_on_c, 0, 68, 37
2, 71280, Note_on_c, 0, 71, 46
2, 71520, Note_on_c, 0, 71, 0
2, 71520, Note_on_c, 0, 68, 0
2, 71520, Note_on_c, 0, 69, 38
2, 71520, Note_on_c, 0, 73, 48
2, 71760, Note_on_c, 0, 73, 0
2, 71760, Note_on_c, 0, 69, 0
2, 71760, Note_on_c, 0, 71, 39
2, 71760, Note_on_c, 0, 74, 50
2, 72000, Note_on_c, 0, 74, 0
2, 72000, Note_on_c, 0, 71, 0
2, 72000, Note_on_c, 0, 73, 41
2, 72000, Note_on_c, 0, 76, 52
2, 72240, Note_on_c, 0, 76, 0
2, 72240, Note_on_c, 0, 73, 0
2, 72240, Note_on_c, 0, 81, 50
2, 72480, Note_on_c, 0, 81, 0
2, 72480, Note_on_c, 0, 73, 39
2, 72480, Note_on_c, 0, 76, 50
2, 72660, Note_on_c, 0, 76, 0
2, 72660, Note_on_c, 0, 73, 0
2, 72660, Note_on_c, 0, 73, 33
2, 72660, Note_on_c, 0, 76, 42
2, 72720, Note_on_c, 0, 76, 0
2, 72720, Note_on_c, 0, 73, 0
2, 72720, Note_on_c, 0, 71, 40
2, 72720, Note_on_c, 0, 74, 51
2, 72960, Note_on_c, 0, 74, 0
2, 72960, Note_on_c, 0, 71, 0
2, 72960, Note_on_c, 0, 69, 38
2, 72960, Note_on_c, 0, 73, 48
2, 73200, Note_on_c, 0, 73, 0
2, 73200, Note_on_c, 0, 69, 0
2, 73200, Note_on_c, 0, 68, 36
2, 73200, Note_on_c, 0, 71, 46
2, 73440, Note_on_c, 0, 71, 0
2, 73440, Note_on_c, 0, 68, 0
2, 73440, Note_on_c, 0, 73, 41
2, 73440, Note_on_c, 0, 76, 52
2, 73920, Note_on_c, 0, 76, 0
2, 73920, Note_on_c, 0, 73, 0
2, 73920, Note_on_c, 0, 69, 38
2, 73920, Note_on_c, 0, 73, 49
2, 74160, Note_on_c, 0, 73, 0
2, 74160, Note_on_c, 0, 69, 0
2, 74160, Note_on_c, 0, 68, 37
2, 74160, Note_on_c, 0, 71, 46
2, 74400, Note_on_c, 0, 71, 0
2, 74400, Note_on_c, 0, 68, 0
2, 74400, Note_on_c, 0, 69, 38
2, 74400, Note_on_c, 0, 73, 48
2, 74640, Note_on_c, 0, 73, 0
2, 74640, Note_on_c, 0, 69, 0
2, 74640, Note_on_c, 0, 71, 39
2, 74640, Note_on_c, 0, 74, 50
2, 74880, Note_on_c, 0, 74, 0
2, 74880, Note_on_c, 0, 71, 0
2, 74880, Note_on_c, 0, 73, 41
2, 74880, Note_on_c, 0, 76, 52
2, 75120, Note_on_c, 0, 76, 0
2, 75120, Note_on_c, 0, 73, 0
2, 75120, Note_on_c, 0, 81, 50
2, 75360, Note_on_c, 0, 81, 0
2, 75360, Note_on_c, 0, 73, 39
2, 75360, Note_on_c, 0, 76, 50
2, 75540, Note_on_c, 0, 76, 0
2, 75540, Note_on_c, 0, 73, 0
2, 75540, Note_on_c, 0, 73, 33
2, 75540, Note_on_c, 0, 76, 42
2, 75600, Note_on_c, 0, 76, 0
2, 75600, Note_on_c, 0, 73, 0
2, 75600, Note_on_c, 0, 71, 40
2, 75600, Note_on_c, 0, 74, 51
2, 75840, Note_on_c, 0, 74, 0
2, 75840, Note_on_c, 0, 71, 0
2, 75840, Note_on_c, 0, 69, 38
2, 75840, Note_on_c, 0, 73, 48
2, 76080, Note_on_c, 0, 73, 0
2, 76080, Note_on_c, 0, 69, 0
2, 76080, Note_on_c, 0, 68, 36
2, 76080, Note_on_c, 0, 71, 46
2, 76320, Note_on_c, 0, 71, 0
2, 76320, Note_on_c, 0, 68, 0
2, 76320, Note_on_c, 0, 73, 41
2, 76320, Note_on_c, 0, 76, 47
2, 77160, Note_on_c, 0, 76, 0
2, 77160, Note_on_c, 0, 73, 0
2, 77160, Note_on_c, 0, 64, 47
2, 77280, Note_on_c, 0, 64, 0
2, 77280, Note_on_c, 0, 69, 51
2, 77400, Note_on_c, 0, 69, 0
2, 77400, Note_on_c, 0, 71, 43
2, 77520, Note_on_c, 0, 71, 0
2, 77520, Note_on_c, 0, 69, 50
2, 77640, Note_on_c, 0, 69, 0
2, 77640, Note_on_c, 0, 71, 43
2, 77760, Note_on_c, 0, 71, 0
2, 77760, Note_on_c, 0, 73, 48
2, 77880, Note_on_c, 0, 73, 0
2, 77880, Note_on_c, 0, 76, 43
2, 78000, Note_on_c, 0, 76, 0
2, 78000, Note_on_c, 0, 73, 48
2, 78120, Note_on_c, 0, 73, 0
2, 78120, Note_on_c, 0, 76, 42
2, 78240, Note_on_c, 0, 76, 0
2, 78240, Note_on_c, 0, 73, 47
2, 78360, Note_on_c, 0, 73, 0
2, 78360, Note_on_c, 0, 74, 41
2, 78480, Note_on_c, 0, 74, 0
2, 78480, Note_on_c, 0, 76, 46
2, 78600, Note_on_c, 0, 76, 0
2, 78600, Note_on_c, 0, 81, 41
2, 78720, Note_on_c, 0, 81, 0
2, 78720, Note_on_c, 0, 76, 45
2, 78840, Note_on_c, 0, 76, 0
2, 78840, Note_on_c, 0, 80, 39
2, 78960, Note_on_c, 0, 80, 0
2, 78960, Note_on_c, 0, 76, 45
2, 79080, Note_on_c, 0, 76, 0
2, 79080, Note_on_c, 0, 80, 39
2, 79200, Note_on_c, 0, 80, 0
2, 79200, Note_on_c, 0, 81, 44
2, 79320, Note_on_c, 0, 81, 0
2, 79320, Note_on_c, 0, 85, 38
2, 79440, Note_on_c, 0, 85, 0
2, 79440, Note_on_c, 0, 81, 43
2, 79560, Note_on_c, 0, 81, 0
2, 79560, Note_on_c, 0, 83, 38
2, 79680, Note_on_c, 0, 83, 0
2, 79680, Note_on_c, 0, 81, 42
2, 79800, Note_on_c, 0, 81, 0
2, 79800, Note_on_c, 0, 83, 38
2, 79920, Note_on_c, 0, 83, 0
2, 79920, Note_on_c, 0, 85, 39
2, 80040, Note_on_c, 0, 85, 0
2, 80040, Note_on_c, 0, 88, 38
2, 80160, Note_on_c, 0, 88, 0
2, 80160, Note_on_c, 0, 93, 38
2, 80280, Note_on_c, 0, 93, 0
2, 80280, Note_on_c, 0, 97, 38
2, 80400, Note_on_c, 0, 97, 0
2, 80400, Note_on_c, 0, 100, 38
2, 80520, Note_on_c, 0, 100, 0
2, 80520, Note_on_c, 0, 97, 38
2, 80640, Note_on_c, 0, 97, 0
2, 80640, Note_on_c, 0, 93, 43
2, 80760, Note_on_c, 0, 93, 0
2, 80760, Note_on_c, 0, 88, 38
2, 80880, Note_on_c, 0, 88, 0
2, 80880, Note_on_c, 0, 85, 39
2, 81000, Note_on_c, 0, 85, 0
2, 81000, Note_on_c, 0, 81, 39
2, 81120, Note_on_c, 0, 81, 0
2, 81120, Note_on_c, 0, 76, 39
2, 81240, Note_on_c, 0, 76, 0
2, 81240, Note_on_c, 0, 81, 39
2, 81360, Note_on_c, 0, 81, 0
2, 81360, Note_on_c, 0, 85, 43
2, 81480, Note_on_c, 0, 85, 0
2, 81480, Note_on_c, 0, 88, 43
2, 81600, Note_on_c, 0, 88, 0
2, 81600, Note_on_c, 0, 85, 38
2, 81720, Note_on_c, 0, 85, 0
2, 81720, Note_on_c, 0, 81, 38
2, 81840, Note_on_c, 0, 81, 0
2, 81840, Note_on_c, 0, 76, 38
2, 81960, Note_on_c, 0, 76, 0
2, 81960, Note_on_c, 0, 73, 38
2, 82080, Note_on_c, 0, 73, 0
2, 82080, Note_on_c, 0, 69, 43
2, 82200, Note_on_c, 0, 69, 0
2, 82200, Note_on_c, 0, 64, 36
2, 82320, Note_on_c, 0, 64, 0
2, 82320, Note_on_c, 0, 69, 36
2, 82440, Note_on_c, 0, 69, 0
2, 82440, Note_on_c, 0, 73, 36
2, 82560, Note_on_c, 0, 73, 0
2, 82560, Note_on_c, 0, 76, 35
2, 82680, Note_on_c, 0, 76, 0
2, 82680, Note_on_c, 0, 73, 34
2, 82800, Note_on_c, 0, 73, 0
2, 82800, Note_on_c, 0, 69, 38
2, 82920, Note_on_c, 0, 69, 0
2, 82920, Note_on_c, 0, 64, 32
2, 83040, Note_on_c, 0, 64, 0
2, 83040, Note_on_c, 0, 61, 32
2, 83160, Note_on_c, 0, 61, 0
2, 83160, Note_on_c, 0, 57, 31
2, 83280, Note_on_c, 0, 57, 0
2, 83280, Note_on_c, 0, 52, 31
2, 83400, Note_on_c, 0, 52, 0
2, 83400, Note_on_c, 0, 49, 30
2, 83520, Note_on_c, 0, 49, 0
2, 84240, Note_on_c, 0, 61, 26
2, 84240, Note_on_c, 0, 64, 26
2, 84240, Note_on_c, 0, 73, 31
2, 84480, Note_on_c, 0, 73, 0
2, 84480, Note_on_c, 0, 64, 0
2, 84480, Note_on_c, 0, 61, 0
2, 84960, Note_on_c, 0, 61, 26
2, 84960, Note_on_c, 0, 64, 26
2, 84960, Note_on_c, 0, 69, 31
2, 85200, Note_on_c, 0, 69, 0
2, 85200, Note_on_c, 0, 64, 0
2, 85200, Note_on_c, 0, 61, 0
2, 85200, End_track
3, 0, Start_track
3, 0, Title_t, "Piano left"
3, 0, Program_c, 0, 0
3, 0, Control_c, 0, 7, 127
3, 0, Control_c, 0, 10, 64
3, 0, Control_c, 0, 64, 0
3, 0, Text_t, "bdca426d104a26ac9dcb070447587523"
3, 1200, Note_on_c, 0, 52, 30
3, 1440, Note_on_c, 0, 52, 0
3, 1440, Control_c, 0, 64, 127
3, 1440, Note_on_c, 0, 60, 32
3, 1440, Note_on_c, 0, 57, 27
3, 1680, Note_on_c, 0, 57, 0
3, 1680, Note_on_c, 0, 60, 0
3, 1680, Note_on_c, 0, 45, 29
3, 1920, Note_on_c, 0, 45, 0
3, 1920, Note_on_c, 0, 52, 30
3, 2160, Note_on_c, 0, 52, 0
3, 2160, Note_on_c, 0, 60, 32
3, 2160, Note_on_c, 0, 57, 27
3, 2400, Note_on_c, 0, 57, 0
3, 2400, Note_on_c, 0, 60, 0
3, 2400, Note_on_c, 0, 45, 30
3, 2640, Note_on_c, 0, 45, 0
3, 2640, Note_on_c, 0, 52, 31
3, 2880, Note_on_c, 0, 52, 0
3, 2880, Note_on_c, 0, 60, 32
3, 2880, Note_on_c, 0, 57, 27
3, 3120, Note_on_c, 0, 57, 0
3, 3120, Note_on_c, 0, 60, 0
3, 3120, Note_on_c, 0, 45, 30
3, 3360, Note_on_c, 0, 45, 0
3, 3360, Note_on_c, 0, 52, 30
3, 3600, Note_on_c, 0, 52, 0
3, 3600, Note_on_c, 0, 57, 27
3, 3600, Note_on_c, 0, 60, 32
3, 3840, Note_on_c, 0, 60, 0
3, 3840, Note_on_c, 0, 57, 0
3, 3840, Note_on_c, 0, 45, 31
3, 4080, Note_on_c, 0, 45, 0
3, 4080, Note_on_c, 0, 52, 31
3, 4320, Note_on_c, 0, 52, 0
3, 4320, Note_on_c, 0, 60, 33
3, 4320, Note_on_c, 0, 57, 28
3, 4560, Note_on_c, 0, 57, 0
3, 4560, Note_on_c, 0, 60, 0
3, 4560, Note_on_c, 0, 45, 30
3, 4800, Note_on_c, 0, 45, 0
3, 4800, Note_on_c, 0, 52, 30
3, 5040, Note_on_c, 0, 52, 0
3, 5040, Note_on_c, 0, 60, 33
3, 5280, Note_on_c, 0, 60, 0
3, 5280, Note_on_c, 0, 45, 30
3, 5520, Note_on_c, 0, 45, 0
3, 5520, Note_on_c, 0, 52, 30
3, 5760, Note_on_c, 0, 52, 0
3, 5760, Note_on_c, 0, 60, 33
3, 5760, Note_on_c, 0, 57, 28
3, 6000, Note_on_c, 0, 57, 0
3, 6000, Note_on_c, 0, 60, 0
3, 6000, Note_on_c, 0, 45, 31
3, 6240, Note_on_c, 0, 45, 0
3, 6240, Note_on_c, 0, 52, 31
3, 6480, Note_on_c, 0, 52, 0
3, 6480, Note_on_c, 0, 60, 29
3, 6480, Note_on_c, 0, 57, 25
3, 6720, Note_on_c, 0, 57, 0
3, 6720, Note_on_c, 0, 60, 0
3, 6720, Note_on_c, 0, 40, 27
3, 6960, Note_on_c, 0, 40, 0
3, 6960, Note_on_c, 0, 52, 27
3, 7200, Note_on_c, 0, 52, 0
3, 7200, Note_on_c, 0, 60, 29
3, 7200, Note_on_c, 0, 57, 25
3, 7440, Note_on_c, 0, 57, 0
3, 7440, Note_on_c, 0, 60, 0
3, 7440, Note_on_c, 0, 33, 27
3, 7680, Note_on_c, 0, 33, 0
3, 7680, Note_on_c, 0, 52, 27
3, 7920, Note_on_c, 0, 52, 0
3, 7920, Note_on_c, 0, 60, 29
3, 7920, Note_on_c, 0, 57, 25
3, 8160, Note_on_c, 0, 57, 0
3, 8160, Note_on_c, 0, 60, 0
3, 8160, Note_on_c, 0, 45, 27
3, 8400, Note_on_c, 0, 45, 0
3, 8400, Note_on_c, 0, 52, 27
3, 8640, Note_on_c, 0, 52, 0
3, 8640, Note_on_c, 0, 62, 29
3, 8640, Note_on_c, 0, 57, 25
3, 8647, Control_c, 0, 64, 0
3, 8747, Control_c, 0, 64, 127
3, 8880, Note_on_c, 0, 57, 0
3, 8880, Note_on_c, 0, 62, 0
3, 8880, Note_on_c, 0, 45, 27
3, 9120, Note_on_c, 0, 45, 0
3, 9120, Note_on_c, 0, 53, 27
3, 9360, Note_on_c, 0, 53, 0
3, 9360, Note_on_c, 0, 62, 26
3, 9360, Note_on_c, 0, 57, 22
3, 9600, Note_on_c, 0, 57, 0
3, 9600, Note_on_c, 0, 62, 0
3, 9600, Note_on_c, 0, 45, 27
3, 9840, Note_on_c, 0, 45, 0
3, 9840, Note_on_c, 0, 53, 27
3, 10080, Note_on_c, 0, 53, 0
3, 10080, Note_on_c, 0, 60, 29
3, 10080, Note_on_c, 0, 57, 25
3, 10087, Control_c, 0, 64, 0
3, 10187, Control_c, 0, 64, 127
3, 10320, Note_on_c, 0, 57, 0
3, 10320, Note_on_c, 0, 60, 0
3, 10320, Note_on_c, 0, 45, 27
3, 10560, Note_on_c, 0, 45, 0
3, 10560, Note_on_c, 0, 52, 27
3, 10685, Control_c, 0, 64, 0
3, 10800, Note_on_c, 0, 52, 0
3, 10800, Note_on_c, 0, 60, 29
3, 10800, Note_on_c, 0, 57, 25
3, 10844, Control_c, 0, 64, 127
3, 11040, Note_on_c, 0, 57, 0
3, 11040, Note_on_c, 0, 60, 0
3, 11040, Note_on_c, 0, 45, 27
3, 11280, Note_on_c, 0, 45, 0
3, 11280, Note_on_c, 0, 52, 27
3, 11520, Note_on_c, 0, 52, 0
3, 11520, Note_on_c, 0, 56, 27
3, 11520, Note_on_c, 0, 59, 32
3, 11524, Control_c, 0, 64, 0
3, 11602, Control_c, 0, 64, 127
3, 11760, Note_on_c, 0, 59, 0
3, 11760, Note_on_c, 0, 56, 0
3, 11760, Note_on_c, 0, 40, 27
3, 12000, Note_on_c, 0, 40, 0
3, 12000, Note_on_c, 0, 52, 27
3, 12240, Note_on_c, 0, 52, 0
3, 12240, Note_on_c, 0, 62, 29
3, 12240, Note_on_c, 0, 59, 25
3, 12480, Note_on_c, 0, 59, 0
3, 12480, Note_on_c, 0, 62, 0
3, 12480, Note_on_c, 0, 40, 27
3, 12720, Note_on_c, 0, 40, 0
3, 12720, Note_on_c, 0, 52, 27
3, 12960, Note_on_c, 0, 52, 0
3, 12960, Note_on_c, 0, 60, 29
3, 12960, Note_on_c, 0, 57, 25
3, 12965, Control_c, 0, 64, 0
3, 13051, Control_c, 0, 64, 127
3, 13200, Note_on_c, 0, 57, 0
3, 13200, Note_on_c, 0, 60, 0
3, 13200, Note_on_c, 0, 45, 27
3, 13440, Note_on_c, 0, 45, 0
3, 13440, Note_on_c, 0, 52, 27
3, 13680, Note_on_c, 0, 52, 0
3, 13680, Note_on_c, 0, 60, 29
3, 13680, Note_on_c, 0, 57, 25
3, 13920, Note_on_c, 0, 57, 0
3, 13920, Note_on_c, 0, 60, 0
3, 13920, Note_on_c, 0, 45, 27
3, 14160, Note_on_c, 0, 45, 0
3, 14160, Note_on_c, 0, 52, 27
3, 14400, Note_on_c, 0, 52, 0
3, 14400, Note_on_c, 0, 62, 29
3, 14400, Note_on_c, 0, 59, 25
3, 14408, Control_c, 0, 64, 0
3, 14507, Control_c, 0, 64, 127
3, 14640, Note_on_c, 0, 59, 0
3, 14640, Note_on_c, 0, 62, 0
3, 14640, Note_on_c, 0, 47, 27
3, 14880, Note_on_c, 0, 47, 0
3, 14880, Note_on_c, 0, 55, 27
3, 15120, Note_on_c, 0, 55, 0
3, 15120, Note_on_c, 0, 64, 29
3, 15120, Note_on_c, 0, 60, 25
3, 15129, Control_c, 0, 64, 0
3, 15176, Control_c, 0, 64, 127
3, 15360, Note_on_c, 0, 60, 0
3, 15360, Note_on_c, 0, 64, 0
3, 15360, Note_on_c, 0, 48, 27
3, 15600, Note_on_c, 0, 48, 0
3, 15600, Note_on_c, 0, 55, 27
3, 15840, Note_on_c, 0, 55, 0
3, 15840, Note_on_c, 0, 65, 27
3, 15840, Note_on_c, 0, 62, 23
3, 15847, Control_c, 0, 64, 0
3, 15947, Control_c, 0, 64, 127
3, 16080, Note_on_c, 0, 62, 0
3, 16080, Note_on_c, 0, 65, 0
3, 16080, Note_on_c, 0, 50, 27
3, 16320, Note_on_c, 0, 50, 0
3, 16320, Note_on_c, 0, 57, 27
3, 16560, Note_on_c, 0, 57, 0
3, 16560, Note_on_c, 0, 64, 29
3, 16566, Control_c, 0, 64, 0
3, 16632, Control_c, 0, 64, 127
3, 16800, Note_on_c, 0, 64, 0
3, 16800, Note_on_c, 0, 52, 27
3, 17040, Note_on_c, 0, 52, 0
3, 17040, Note_on_c, 0, 62, 27
3, 17280, Note_on_c, 0, 62, 0
3, 17280, Note_on_c, 0, 57, 27
3, 17280, Note_on_c, 0, 60, 32
3, 17286, Control_c, 0, 64, 0
3, 17374, Control_c, 0, 64, 127
3, 17517, Note_on_c, 0, 57, 0
3, 17520, Note_on_c, 0, 60, 0
3, 17520, Note_on_c, 0, 45, 27
3, 17760, Note_on_c, 0, 45, 0
3, 17760, Note_on_c, 0, 52, 27
3, 18000, Note_on_c, 0, 52, 0
3, 18000, Note_on_c, 0, 60, 29
3, 18240, Note_on_c, 0, 60, 0
3, 18240, Note_on_c, 0, 45, 27
3, 18480, Note_on_c, 0, 45, 0
3, 18480, Note_on_c, 0, 52, 27
3, 18720, Note_on_c, 0, 52, 0
3, 18720, Note_on_c, 0, 60, 29
3, 18720, Note_on_c, 0, 57, 25
3, 18960, Note_on_c, 0, 57, 0
3, 18960, Note_on_c, 0, 60, 0
3, 18960, Note_on_c, 0, 45, 27
3, 19200, Note_on_c, 0, 45, 0
3, 19200, Note_on_c, 0, 52, 27
3, 19440, Note_on_c, 0, 52, 0
3, 19440, Note_on_c, 0, 60, 29
3, 19440, Note_on_c, 0, 57, 25
3, 19680, Note_on_c, 0, 57, 0
3, 19680, Note_on_c, 0, 60, 0
3, 19680, Note_on_c, 0, 40, 27
3, 19920, Note_on_c, 0, 40, 0
3, 19920, Note_on_c, 0, 52, 27
3, 20160, Note_on_c, 0, 52, 0
3, 20160, Note_on_c, 0, 60, 29
3, 20160, Note_on_c, 0, 57, 25
3, 20400, Note_on_c, 0, 57, 0
3, 20400, Note_on_c, 0, 60, 0
3, 20400, Note_on_c, 0, 33, 27
3, 20640, Note_on_c, 0, 33, 0
3, 20640, Note_on_c, 0, 52, 27
3, 20880, Note_on_c, 0, 52, 0
3, 20880, Note_on_c, 0, 60, 29
3, 20880, Note_on_c, 0, 57, 25
3, 21120, Note_on_c, 0, 57, 0
3, 21120, Note_on_c, 0, 60, 0
3, 21120, Note_on_c, 0, 45, 27
3, 21360, Note_on_c, 0, 45, 0
3, 21360, Note_on_c, 0, 52, 27
3, 21600, Note_on_c, 0, 52, 0
3, 21600, Note_on_c, 0, 62, 29
3, 21600, Note_on_c, 0, 57, 25
3, 21606, Control_c, 0, 64, 0
3, 21707, Control_c, 0, 64, 127
3, 21840, Note_on_c, 0, 57, 0
3, 21840, Note_on_c, 0, 62, 0
3, 21840, Note_on_c, 0, 45, 27
3, 22080, Note_on_c, 0, 45, 0
3, 22080, Note_on_c, 0, 53, 27
3, 22320, Note_on_c, 0, 53, 0
3, 22320, Note_on_c, 0, 62, 26
3, 22320, Note_on_c, 0, 57, 22
3, 22560, Note_on_c, 0, 57, 0
3, 22560, Note_on_c, 0, 62, 0
3, 22560, Note_on_c, 0, 45, 27
3, 22800, Note_on_c, 0, 45, 0
3, 22800, Note_on_c, 0, 53, 27
3, 23040, Note_on_c, 0, 53, 0
3, 23040, Note_on_c, 0, 60, 29
3, 23040, Note_on_c, 0, 57, 25
3, 23047, Control_c, 0, 64, 0
3, 23147, Control_c, 0, 64, 127
3, 23280, Note_on_c, 0, 57, 0
3, 23280, Note_on_c, 0, 60, 0
3, 23280, Note_on_c, 0, 45, 27
3, 23520, Note_on_c, 0, 45, 0
3, 23520, Note_on_c, 0, 52, 27
3, 23645, Control_c, 0, 64, 0
3, 23760, Note_on_c, 0, 52, 0
3, 23760, Note_on_c, 0, 60, 29
3, 23760, Note_on_c, 0, 57, 25
3, 23804, Control_c, 0, 64, 127
3, 24000, Note_on_c, 0, 57, 0
3, 24000, Note_on_c, 0, 60, 0
3, 24000, Note_on_c, 0, 45, 27
3, 24240, Note_on_c, 0, 45, 0
3, 24240, Note_on_c, 0, 52, 27
3, 24480, Note_on_c, 0, 52, 0
3, 24480, Note_on_c, 0, 56, 27
3, 24480, Note_on_c, 0, 59, 32
3, 24487, Control_c, 0, 64, 0
3, 24556, Control_c, 0, 64, 127
3, 24720, Note_on_c, 0, 59, 0
3, 24720, Note_on_c, 0, 56, 0
3, 24720, Note_on_c, 0, 40, 27
3, 24960, Note_on_c, 0, 40, 0
3, 24960, Note_on_c, 0, 52, 27
3, 25200, Note_on_c, 0, 52, 0
3, 25200, Note_on_c, 0, 62, 29
3, 25200, Note_on_c, 0, 59, 25
3, 25440, Note_on_c, 0, 59, 0
3, 25440, Note_on_c, 0, 62, 0
3, 25440, Note_on_c, 0, 40, 27
3, 25680, Note_on_c, 0, 40, 0
3, 25680, Note_on_c, 0, 52, 27
3, 25920, Note_on_c, 0, 52, 0
3, 25920, Note_on_c, 0, 60, 29
3, 25920, Note_on_c, 0, 57, 25
3, 25929, Control_c, 0, 64, 0
3, 26011, Control_c, 0, 64, 127
3, 26160, Note_on_c, 0, 57, 0
3, 26160, Note_on_c, 0, 60, 0
3, 26160, Note_on_c, 0, 45, 27
3, 26400, Note_on_c, 0, 45, 0
3, 26400, Note_on_c, 0, 52, 27
3, 26640, Note_on_c, 0, 52, 0
3, 26640, Note_on_c, 0, 60, 29
3, 26640, Note_on_c, 0, 57, 25
3, 26880, Note_on_c, 0, 57, 0
3, 26880, Note_on_c, 0, 60, 0
3, 26880, Note_on_c, 0, 45, 27
3, 27120, Note_on_c, 0, 45, 0
3, 27120, Note_on_c, 0, 52, 27
3, 27360, Note_on_c, 0, 52, 0
3, 27360, Note_on_c, 0, 62, 29
3, 27360, Note_on_c, 0, 59, 25
3, 27367, Control_c, 0, 64, 0
3, 27467, Control_c, 0, 64, 127
3, 27600, Note_on_c, 0, 59, 0
3, 27600, Note_on_c, 0, 62, 0
3, 27600, Note_on_c, 0, 47, 27
3, 27840, Note_on_c, 0, 47, 0
3, 27840, Note_on_c, 0, 55, 27
3, 28080, Note_on_c, 0, 55, 0
3, 28080, Note_on_c, 0, 64, 29
3, 28080, Note_on_c, 0, 60, 25
3, 28089, Control_c, 0, 64, 0
3, 28136, Control_c, 0, 64, 127
3, 28320, Note_on_c, 0, 60, 0
3, 28320, Note_on_c, 0, 64, 0
3, 28320, Note_on_c, 0, 48, 27
3, 28560, Note_on_c, 0, 48, 0
3, 28560, Note_on_c, 0, 55, 27
3, 28800, Note_on_c, 0, 55, 0
3, 28800, Note_on_c, 0, 65, 29
3, 28800, Note_on_c, 0, 62, 25
3, 28810, Control_c, 0, 64, 0
3, 28907, Control_c, 0, 64, 127
3, 29040, Note_on_c, 0, 62, 0
3, 29040, Note_on_c, 0, 65, 0
3, 29040, Note_on_c, 0, 50, 27
3, 29280, Note_on_c, 0, 50, 0
3, 29280, Note_on_c, 0, 57, 27
3, 29520, Note_on_c, 0, 57, 0
3, 29520, Note_on_c, 0, 64, 29
3, 29526, Control_c, 0, 64, 0
3, 29602, Control_c, 0, 64, 127
3, 29760, Note_on_c, 0, 64, 0
3, 29760, Note_on_c, 0, 52, 27
3, 30000, Note_on_c, 0, 52, 0
3, 30000, Note_on_c, 0, 62, 27
3, 30240, Note_on_c, 0, 62, 0
3, 30240, Note_on_c, 0, 57, 27
3, 30240, Note_on_c, 0, 60, 32
3, 30246, Control_c, 0, 64, 0
3, 30316, Control_c, 0, 64, 127
3, 30480, Note_on_c, 0, 60, 0
3, 30480, Note_on_c, 0, 57, 0
3, 30480, Note_on_c, 0, 45, 27
3, 30720, Note_on_c, 0, 45, 0
3, 30720, Note_on_c, 0, 52, 27
3, 30960, Note_on_c, 0, 52, 0
3, 30960, Note_on_c, 0, 57, 29
3, 30960, Note_on_c, 0, 60, 35
3, 30970, Control_c, 0, 64, 0
3, 31074, Control_c, 0, 64, 127
3, 31200, Note_on_c, 0, 60, 0
3, 31200, Note_on_c, 0, 57, 0
3, 31200, Note_on_c, 0, 45, 32
3, 31440, Note_on_c, 0, 45, 0
3, 31440, Note_on_c, 0, 52, 32
3, 31680, Note_on_c, 0, 52, 0
3, 31680, Note_on_c, 0, 59, 36
3, 31680, Note_on_c, 0, 56, 30
3, 31687, Control_c, 0, 64, 0
3, 31726, Control_c, 0, 64, 127
3, 31920, Note_on_c, 0, 56, 0
3, 31920, Note_on_c, 0, 59, 0
3, 31920, Note_on_c, 0, 40, 32
3, 32160, Note_on_c, 0, 40, 0
3, 32160, Note_on_c, 0, 52, 32
3, 32308, Control_c, 0, 64, 0
3, 32400, Note_on_c, 0, 52, 0
3, 32400, Note_on_c, 0, 60, 36
3, 32400, Note_on_c, 0, 57, 30
3, 32435, Control_c, 0, 64, 127
3, 32640, Note_on_c, 0, 57, 0
3, 32640, Note_on_c, 0, 60, 0
3, 32640, Note_on_c, 0, 40, 32
3, 32880, Note_on_c, 0, 40, 0
3, 32880, Note_on_c, 0, 52, 32
3, 33120, Note_on_c, 0, 52, 0
3, 33120, Note_on_c, 0, 59, 36
3, 33120, Note_on_c, 0, 56, 30
3, 33122, Control_c, 0, 64, 0
3, 33257, Control_c, 0, 64, 127
3, 33360, Note_on_c, 0, 56, 0
3, 33360, Note_on_c, 0, 59, 0
3, 33360, Note_on_c, 0, 40, 32
3, 33600, Note_on_c, 0, 40, 0
3, 33600, Note_on_c, 0, 52, 32
3, 33840, Note_on_c, 0, 52, 0
3, 33840, Note_on_c, 0, 57, 29
3, 33840, Note_on_c, 0, 60, 35
3, 33850, Control_c, 0, 64, 0
3, 33954, Control_c, 0, 64, 127
3, 34080, Note_on_c, 0, 60, 0
3, 34080, Note_on_c, 0, 57, 0
3, 34080, Note_on_c, 0, 45, 32
3, 34320, Note_on_c, 0, 45, 0
3, 34320, Note_on_c, 0, 52, 32
3, 34560, Note_on_c, 0, 52, 0
3, 34560, Note_on_c, 0, 59, 36
3, 34560, Note_on_c, 0, 56, 30
3, 34566, Control_c, 0, 64, 0
3, 34606, Control_c, 0, 64, 127
3, 34800, Note_on_c, 0, 56, 0
3, 34800, Note_on_c, 0, 59, 0
3, 34800, Note_on_c, 0, 40, 32
3, 35040, Note_on_c, 0, 40, 0
3, 35040, Note_on_c, 0, 52, 32
3, 35188, Control_c, 0, 64, 0
3, 35280, Note_on_c, 0, 52, 0
3, 35280, Note_on_c, 0, 60, 36
3, 35280, Note_on_c, 0, 57, 30
3, 35386, Control_c, 0, 64, 127
3, 35520, Note_on_c, 0, 57, 0
3, 35520, Note_on_c, 0, 60, 0
3, 35520, Note_on_c, 0, 40, 32
3, 35760, Note_on_c, 0, 40, 0
3, 35760, Note_on_c, 0, 52, 32
3, 36000, Note_on_c, 0, 52, 0
3, 36000, Note_on_c, 0, 59, 40
3, 36000, Note_on_c, 0, 56, 28
3, 36005, Control_c, 0, 64, 0
3, 36137, Control_c, 0, 64, 127
3, 36240, Note_on_c, 0, 56, 0
3, 36240, Note_on_c, 0, 59, 0
3, 36240, Note_on_c, 0, 40, 36
3, 36480, Note_on_c, 0, 40, 0
3, 36480, Note_on_c, 0, 52, 36
3, 36720, Note_on_c, 0, 52, 0
3, 36720, Note_on_c, 0, 56, 28
3, 36720, Note_on_c, 0, 59, 40
3, 36960, Note_on_c, 0, 59, 0
3, 36960, Note_on_c, 0, 56, 0
3, 36960, Note_on_c, 0, 40, 36
3, 37200, Note_on_c, 0, 40, 0
3, 37200, Note_on_c, 0, 52, 36
3, 37440, Note_on_c, 0, 52, 0
3, 37440, Note_on_c, 0, 57, 42
3, 37440, Note_on_c, 0, 61, 50
3, 37445, Control_c, 0, 64, 0
3, 37520, Control_c, 0, 64, 127
3, 37680, Note_on_c, 0, 61, 0
3, 37680, Note_on_c, 0, 57, 0
3, 37680, Note_on_c, 0, 45, 53
3, 37920, Note_on_c, 0, 45, 0
3, 37920, Note_on_c, 0, 52, 53
3, 38160, Note_on_c, 0, 52, 0
3, 38160, Note_on_c, 0, 57, 44
3, 38160, Note_on_c, 0, 62, 52
3, 38168, Control_c, 0, 64, 0
3, 38274, Control_c, 0, 64, 127
3, 38400, Note_on_c, 0, 62, 0
3, 38400, Note_on_c, 0, 57, 0
3, 38400, Note_on_c, 0, 50, 57
3, 38640, Note_on_c, 0, 50, 0
3, 38640, Note_on_c, 0, 54, 57
3, 38880, Note_on_c, 0, 54, 0
3, 38880, Note_on_c, 0, 63, 58
3, 38880, Note_on_c, 0, 59, 49
3, 38885, Control_c, 0, 64, 0
3, 38995, Control_c, 0, 64, 127
3, 39120, Note_on_c, 0, 59, 0
3, 39120, Note_on_c, 0, 63, 0
3, 39120, Note_on_c, 0, 47, 63
3, 39360, Note_on_c, 0, 47, 0
3, 39360, Note_on_c, 0, 54, 62
3, 39600, Note_on_c, 0, 54, 0
3, 39600, Note_on_c, 0, 64, 59
3, 39600, Note_on_c, 0, 60, 50
3, 39608, Control_c, 0, 64, 0
3, 39726, Control_c, 0, 64, 127
3, 39840, Note_on_c, 0, 60, 0
3, 39840, Note_on_c, 0, 64, 0
3, 39840, Note_on_c, 0, 48, 65
3, 40080, Note_on_c, 0, 48, 0
3, 40080, Note_on_c, 0, 57, 65
3, 40320, Note_on_c, 0, 57, 0
3, 40320, Note_on_c, 0, 64, 62
3, 40320, Note_on_c, 0, 61, 53
3, 40329, Control_c, 0, 64, 0
3, 40423, Control_c, 0, 64, 127
3, 40560, Note_on_c, 0, 61, 0
3, 40560, Note_on_c, 0, 64, 0
3, 40560, Note_on_c, 0, 49, 67
3, 40800, Note_on_c, 0, 49, 0
3, 40800, Note_on_c, 0, 58, 68
3, 41040, Note_on_c, 0, 58, 0
3, 41040, Note_on_c, 0, 65, 66
3, 41040, Note_on_c, 0, 62, 56
3, 41047, Control_c, 0, 64, 0
3, 41166, Control_c, 0, 64, 127
3, 41280, Note_on_c, 0, 62, 0
3, 41280, Note_on_c, 0, 65, 0
3, 41280, Note_on_c, 0, 50, 73
3, 41520, Note_on_c, 0, 50, 0
3, 41520, Note_on_c, 0, 58, 74
3, 41760, Note_on_c, 0, 58, 0
3, 41760, Note_on_c, 0, 63, 59
3, 41760, Note_on_c, 0, 66, 70
3, 41767, Control_c, 0, 64, 0
3, 41909, Control_c, 0, 64, 127
3, 42000, Note_on_c, 0, 66, 0
3, 42000, Note_on_c, 0, 63, 0
3, 42000, Note_on_c, 0, 51, 75
3, 42240, Note_on_c, 0, 51, 0
3, 42240, Note_on_c, 0, 60, 76
3, 42480, Note_on_c, 0, 60, 0
3, 42480, Note_on_c, 0, 66, 72
3, 42480, Note_on_c, 0, 63, 61
3, 42720, Note_on_c, 0, 63, 0
3, 42720, Note_on_c, 0, 66, 0
3, 42720, Note_on_c, 0, 51, 72
3, 42960, Note_on_c, 0, 51, 0
3, 42960, Note_on_c, 0, 60, 72
3, 43200, Note_on_c, 0, 60, 0
3, 43200, Note_on_c, 0, 63, 53
3, 43200, Note_on_c, 0, 66, 63
3, 43440, Note_on_c, 0, 66, 0
3, 43440, Note_on_c, 0, 63, 0
3, 43440, Note_on_c, 0, 51, 61
3, 43680, Note_on_c, 0, 51, 0
3, 43680, Note_on_c, 0, 60, 61
3, 43920, Note_on_c, 0, 60, 0
3, 43920, Note_on_c, 0, 66, 56
3, 43920, Note_on_c, 0, 63, 48
3, 44160, Note_on_c, 0, 63, 0
3, 44160, Note_on_c, 0, 66, 0
3, 44160, Note_on_c, 0, 51, 51
3, 44400, Note_on_c, 0, 51, 0
3, 44400, Note_on_c, 0, 60, 48
3, 44640, Note_on_c, 0, 60, 0
3, 44640, Note_on_c, 0, 63, 40
3, 44640, Note_on_c, 0, 66, 47
3, 44880, Note_on_c, 0, 66, 0
3, 44880, Note_on_c, 0, 63, 0
3, 44880, Note_on_c, 0, 51, 40
3, 45120, Note_on_c, 0, 51, 0
3, 45120, Note_on_c, 0, 60, 38
3, 45360, Note_on_c, 0, 60, 0
3, 45360, Control_c, 0, 64, 0
3, 45360, Note_on_c, 0, 52, 29
3, 45474, Control_c, 0, 64, 127
3, 45600, Note_on_c, 0, 52, 0
3, 45600, Note_on_c, 0, 40, 27
3, 45840, Note_on_c, 0, 40, 0
3, 45840, Note_on_c, 0, 52, 27
3, 46080, Note_on_c, 0, 52, 0
3, 46080, Note_on_c, 0, 60, 29
3, 46080, Note_on_c, 0, 57, 25
3, 46320, Note_on_c, 0, 57, 0
3, 46320, Note_on_c, 0, 60, 0
3, 46320, Note_on_c, 0, 40, 27
3, 46560, Note_on_c, 0, 40, 0
3, 46560, Note_on_c, 0, 52, 27
3, 46800, Note_on_c, 0, 52, 0
3, 46800, Note_on_c, 0, 64, 29
3, 46800, Note_on_c, 0, 57, 25
3, 46811, Note_on_c, 0, 60, 25
3, 47040, Note_on_c, 0, 57, 0
3, 47040, Note_on_c, 0, 64, 0
3, 47040, Note_on_c, 0, 40, 27
3, 47051, Note_on_c, 0, 60, 0
3, 47280, Note_on_c, 0, 40, 0
3, 47280, Note_on_c, 0, 52, 27
3, 47520, Note_on_c, 0, 52, 0
3, 47520, Note_on_c, 0, 60, 29
3, 47520, Note_on_c, 0, 57, 25
3, 47527, Control_c, 0, 64, 0
3, 47623, Control_c, 0, 64, 127
3, 47760, Note_on_c, 0, 57, 0
3, 47760, Note_on_c, 0, 60, 0
3, 47760, Note_on_c, 0, 40, 27
3, 48000, Note_on_c, 0, 40, 0
3, 48000, Note_on_c, 0, 52, 27
3, 48240, Note_on_c, 0, 52, 0
3, 48240, Note_on_c, 0, 64, 29
3, 48240, Note_on_c, 0, 57, 25
3, 48251, Note_on_c, 0, 60, 25
3, 48480, Note_on_c, 0, 57, 0
3, 48480, Note_on_c, 0, 64, 0
3, 48480, Note_on_c, 0, 40, 27
3, 48491, Note_on_c, 0, 60, 0
3, 48720, Note_on_c, 0, 40, 0
3, 48720, Note_on_c, 0, 52, 27
3, 48960, Note_on_c, 0, 52, 0
3, 48960, Note_on_c, 0, 65, 29
3, 48966, Control_c, 0, 64, 0
3, 49067, Control_c, 0, 64, 127
3, 49200, Note_on_c, 0, 52, 27
3, 49440, Note_on_c, 0, 52, 0
3, 49440, Note_on_c, 0, 57, 27
3, 49680, Note_on_c, 0, 57, 0
3, 49680, Note_on_c, 0, 65, 0
3, 49680, Note_on_c, 0, 64, 29
3, 49683, Control_c, 0, 64, 0
3, 49726, Control_c, 0, 64, 127
3, 49920, Note_on_c, 0, 52, 27
3, 50160, Note_on_c, 0, 52, 0
3, 50160, Note_on_c, 0, 64, 0
3, 50160, Note_on_c, 0, 62, 27
3, 50400, Note_on_c, 0, 62, 0
3, 50400, Control_c, 0, 64, 0
3, 50400, Note_on_c, 0, 57, 27
3, 50400, Note_on_c, 0, 60, 32
3, 50506, Control_c, 0, 64, 127
3, 50640, Note_on_c, 0, 60, 0
3, 50640, Note_on_c, 0, 57, 0
3, 50640, Note_on_c, 0, 45, 27
3, 50880, Note_on_c, 0, 45, 0
3, 50880, Note_on_c, 0, 52, 27
3, 51120, Note_on_c, 0, 52, 0
3, 51120, Note_on_c, 0, 57, 26
3, 51120, Note_on_c, 0, 60, 31
3, 51130, Control_c, 0, 64, 0
3, 51234, Control_c, 0, 64, 127
3, 51360, Note_on_c, 0, 60, 0
3, 51360, Note_on_c, 0, 57, 0
3, 51360, Note_on_c, 0, 45, 28
3, 51600, Note_on_c, 0, 45, 0
3, 51600, Note_on_c, 0, 52, 28
3, 51840, Note_on_c, 0, 52, 0
3, 51840, Note_on_c, 0, 59, 32
3, 51840, Note_on_c, 0, 56, 27
3, 51845, Control_c, 0, 64, 0
3, 51886, Control_c, 0, 64, 127
3, 52080, Note_on_c, 0, 56, 0
3, 52080, Note_on_c, 0, 59, 0
3, 52080, Note_on_c, 0, 40, 28
3, 52320, Note_on_c, 0, 40, 0
3, 52320, Note_on_c, 0, 52, 28
3, 52468, Control_c, 0, 64, 0
3, 52560, Note_on_c, 0, 52, 0
3, 52560, Note_on_c, 0, 60, 32
3, 52560, Note_on_c, 0, 57, 27
3, 52645, Control_c, 0, 64, 127
3, 52800, Note_on_c, 0, 57, 0
3, 52800, Note_on_c, 0, 60, 0
3, 52800, Note_on_c, 0, 40, 28
3, 53040, Note_on_c, 0, 40, 0
3, 53040, Note_on_c, 0, 52, 28
3, 53280, Note_on_c, 0, 52, 0
3, 53280, Note_on_c, 0, 59, 32
3, 53280, Note_on_c, 0, 56, 27
3, 53286, Control_c, 0, 64, 0
3, 53417, Control_c, 0, 64, 127
3, 53520, Note_on_c, 0, 56, 0
3, 53520, Note_on_c, 0, 59, 0
3, 53520, Note_on_c, 0, 40, 28
3, 53760, Note_on_c, 0, 40, 0
3, 53760, Note_on_c, 0, 52, 28
3, 54000, Note_on_c, 0, 52, 0
3, 54000, Note_on_c, 0, 57, 26
3, 54000, Note_on_c, 0, 60, 31
3, 54010, Control_c, 0, 64, 0
3, 54114, Control_c, 0, 64, 127
3, 54240, Note_on_c, 0, 60, 0
3, 54240, Note_on_c, 0, 57, 0
3, 54240, Note_on_c, 0, 45, 28
3, 54480, Note_on_c, 0, 45, 0
3, 54480, Note_on_c, 0, 52, 28
3, 54720, Note_on_c, 0, 52, 0
3, 54720, Note_on_c, 0, 59, 32
3, 54720, Note_on_c, 0, 56, 27
3, 54726, Control_c, 0, 64, 0
3, 54766, Control_c, 0, 64, 127
3, 54960, Note_on_c, 0, 56, 0
3, 54960, Note_on_c, 0, 59, 0
3, 54960, Note_on_c, 0, 40, 28
3, 55200, Note_on_c, 0, 40, 0
3, 55200, Note_on_c, 0, 52, 28
3, 55348, Control_c, 0, 64, 0
3, 55440, Note_on_c, 0, 52, 0
3, 55440, Note_on_c, 0, 60, 32
3, 55440, Note_on_c, 0, 57, 27
3, 55475, Control_c, 0, 64, 127
3, 55680, Note_on_c, 0, 57, 0
3, 55680, Note_on_c, 0, 60, 0
3, 55680, Note_on_c, 0, 40, 28
3, 55920, Note_on_c, 0, 40, 0
3, 55920, Note_on_c, 0, 52, 28
3, 56160, Note_on_c, 0, 52, 0
3, 56160, Note_on_c, 0, 59, 36
3, 56160, Note_on_c, 0, 56, 25
3, 56166, Control_c, 0, 64, 0
3, 56297, Control_c, 0, 64, 127
3, 56400, Note_on_c, 0, 56, 0
3, 56400, Note_on_c, 0, 59, 0
3, 56400, Note_on_c, 0, 40, 33
3, 56640, Note_on_c, 0, 40, 0
3, 56640, Note_on_c, 0, 52, 34
3, 56880, Note_on_c, 0, 52, 0
3, 56880, Note_on_c, 0, 56, 27
3, 56880, Note_on_c, 0, 59, 39
3, 57120, Note_on_c, 0, 59, 0
3, 57120, Note_on_c, 0, 56, 0
3, 57120, Note_on_c, 0, 40, 36
3, 57360, Note_on_c, 0, 40, 0
3, 57360, Note_on_c, 0, 52, 37
3, 57600, Note_on_c, 0, 52, 0
3, 57600, Note_on_c, 0, 57, 42
3, 57600, Note_on_c, 0, 61, 50
3, 57606, Control_c, 0, 64, 0
3, 57680, Control_c, 0, 64, 127
3, 57840, Note_on_c, 0, 61, 0
3, 57840, Note_on_c, 0, 57, 0
3, 57840, Note_on_c, 0, 45, 54
3, 58080, Note_on_c, 0, 45, 0
3, 58080, Note_on_c, 0, 52, 54
3, 58320, Note_on_c, 0, 52, 0
3, 58320, Note_on_c, 0, 57, 44
3, 58320, Note_on_c, 0, 62, 52
3, 58329, Control_c, 0, 64, 0
3, 58434, Control_c, 0, 64, 127
3, 58560, Note_on_c, 0, 62, 0
3, 58560, Note_on_c, 0, 57, 0
3, 58560, Note_on_c, 0, 50, 58
3, 58800, Note_on_c, 0, 50, 0
3, 58800, Note_on_c, 0, 54, 58
3, 59040, Note_on_c, 0, 54, 0
3, 59040, Note_on_c, 0, 63, 58
3, 59040, Note_on_c, 0, 59, 49
3, 59045, Control_c, 0, 64, 0
3, 59109, Control_c, 0, 64, 127
3, 59280, Note_on_c, 0, 59, 0
3, 59280, Note_on_c, 0, 63, 0
3, 59280, Note_on_c, 0, 47, 64
3, 59520, Note_on_c, 0, 47, 0
3, 59520, Note_on_c, 0, 54, 64
3, 59760, Note_on_c, 0, 54, 0
3, 59760, Note_on_c, 0, 64, 59
3, 59760, Note_on_c, 0, 60, 50
3, 59767, Control_c, 0, 64, 0
3, 59840, Control_c, 0, 64, 127
3, 60000, Note_on_c, 0, 60, 0
3, 60000, Note_on_c, 0, 64, 0
3, 60000, Note_on_c, 0, 48, 67
3, 60240, Note_on_c, 0, 48, 0
3, 60240, Note_on_c, 0, 57, 67
3, 60480, Note_on_c, 0, 57, 0
3, 60480, Note_on_c, 0, 64, 62
3, 60480, Note_on_c, 0, 61, 53
3, 60484, Control_c, 0, 64, 0
3, 60583, Control_c, 0, 64, 127
3, 60720, Note_on_c, 0, 61, 0
3, 60720, Note_on_c, 0, 64, 0
3, 60720, Note_on_c, 0, 49, 70
3, 60960, Note_on_c, 0, 49, 0
3, 60960, Note_on_c, 0, 58, 70
3, 61200, Note_on_c, 0, 58, 0
3, 61200, Note_on_c, 0, 65, 66
3, 61200, Note_on_c, 0, 62, 56
3, 61207, Control_c, 0, 64, 0
3, 61269, Control_c, 0, 64, 127
3, 61440, Note_on_c, 0, 62, 0
3, 61440, Note_on_c, 0, 65, 0
3, 61440, Note_on_c, 0, 50, 74
3, 61680, Note_on_c, 0, 50, 0
3, 61680, Note_on_c, 0, 58, 74
3, 61920, Note_on_c, 0, 58, 0
3, 61920, Note_on_c, 0, 63, 59
3, 61920, Note_on_c, 0, 66, 70
3, 61924, Control_c, 0, 64, 0
3, 62011, Control_c, 0, 64, 127
3, 62160, Note_on_c, 0, 66, 0
3, 62160, Note_on_c, 0, 63, 0
3, 62160, Note_on_c, 0, 51, 79
3, 62400, Note_on_c, 0, 51, 0
3, 62400, Note_on_c, 0, 60, 78
3, 62640, Note_on_c, 0, 60, 0
3, 62640, Note_on_c, 0, 66, 72
3, 62640, Note_on_c, 0, 63, 61
3, 62880, Note_on_c, 0, 63, 0
3, 62880, Note_on_c, 0, 66, 0
3, 62880, Note_on_c, 0, 51, 70
3, 63120, Note_on_c, 0, 51, 0
3, 63120, Note_on_c, 0, 60, 71
3, 63360, Note_on_c, 0, 60, 0
3, 63360, Note_on_c, 0, 63, 53
3, 63360, Note_on_c, 0, 66, 63
3, 63600, Note_on_c, 0, 66, 0
3, 63600, Note_on_c, 0, 63, 0
3, 63600, Note_on_c, 0, 51, 55
3, 63840, Note_on_c, 0, 51, 0
3, 63840, Note_on_c, 0, 60, 53
3, 64080, Note_on_c, 0, 60, 0
3, 64080, Note_on_c, 0, 66, 56
3, 64080, Note_on_c, 0, 63, 48
3, 64320, Note_on_c, 0, 63, 0
3, 64320, Note_on_c, 0, 66, 0
3, 64320, Note_on_c, 0, 51, 51
3, 64560, Note_on_c, 0, 51, 0
3, 64560, Note_on_c, 0, 60, 48
3, 64800, Note_on_c, 0, 60, 0
3, 64800, Note_on_c, 0, 63, 40
3, 64800, Note_on_c, 0, 66, 47
3, 65040, Note_on_c, 0, 66, 0
3, 65040, Note_on_c, 0, 63, 0
3, 65040, Note_on_c, 0, 51, 40
3, 65280, Note_on_c, 0, 51, 0
3, 65280, Note_on_c, 0, 60, 38
3, 65520, Note_on_c, 0, 60, 0
3, 65520, Control_c, 0, 64, 0
3, 65520, Note_on_c, 0, 52, 32
3, 65633, Control_c, 0, 64, 127
3, 65760, Note_on_c, 0, 52, 0
3, 65760, Note_on_c, 0, 40, 29
3, 66000, Note_on_c, 0, 40, 0
3, 66000, Note_on_c, 0, 52, 29
3, 66240, Note_on_c, 0, 52, 0
3, 66240, Note_on_c, 0, 60, 32
3, 66240, Note_on_c, 0, 57, 27
3, 66480, Note_on_c, 0, 57, 0
3, 66480, Note_on_c, 0, 60, 0
3, 66480, Note_on_c, 0, 40, 29
3, 66720, Note_on_c, 0, 40, 0
3, 66720, Note_on_c, 0, 52, 29
3, 66960, Note_on_c, 0, 52, 0
3, 66960, Note_on_c, 0, 60, 32
3, 66960, Note_on_c, 0, 57, 27
3, 67200, Note_on_c, 0, 57, 0
3, 67200, Note_on_c, 0, 60, 0
3, 67200, Note_on_c, 0, 40, 30
3, 67440, Note_on_c, 0, 40, 0
3, 67440, Note_on_c, 0, 52, 30
3, 67680, Note_on_c, 0, 52, 0
3, 67680, Note_on_c, 0, 60, 32
3, 67680, Note_on_c, 0, 57, 27
3, 67685, Control_c, 0, 64, 0
3, 67783, Control_c, 0, 64, 127
3, 67920, Note_on_c, 0, 57, 0
3, 67920, Note_on_c, 0, 60, 0
3, 67920, Note_on_c, 0, 40, 29
3, 68160, Note_on_c, 0, 40, 0
3, 68160, Note_on_c, 0, 52, 29
3, 68400, Note_on_c, 0, 52, 0
3, 68400, Note_on_c, 0, 60, 32
3, 68400, Note_on_c, 0, 57, 27
3, 68640, Note_on_c, 0, 57, 0
3, 68640, Note_on_c, 0, 60, 0
3, 68640, Note_on_c, 0, 40, 30
3, 68880, Note_on_c, 0, 40, 0
3, 68880, Note_on_c, 0, 52, 30
3, 69120, Note_on_c, 0, 52, 0
3, 69120, Note_on_c, 0, 65, 32
3, 69125, Control_c, 0, 64, 0
3, 69227, Control_c, 0, 64, 127
3, 69360, Note_on_c, 0, 52, 29
3, 69600, Note_on_c, 0, 52, 0
3, 69600, Note_on_c, 0, 57, 29
3, 69840, Note_on_c, 0, 57, 0
3, 69840, Note_on_c, 0, 65, 0
3, 69840, Note_on_c, 0, 64, 29
3, 69843, Control_c, 0, 64, 0
3, 69886, Control_c, 0, 64, 127
3, 70080, Note_on_c, 0, 52, 27
3, 70320, Note_on_c, 0, 52, 0
3, 70320, Note_on_c, 0, 64, 0
3, 70320, Note_on_c, 0, 62, 27
3, 70560, Note_on_c, 0, 62, 0
3, 70560, Control_c, 0, 64, 0
3, 70560, Note_on_c, 0, 57, 26
3, 70560, Note_on_c, 0, 61, 32
3, 70674, Control_c, 0, 64, 127
3, 70800, Note_on_c, 0, 61, 0
3, 70800, Note_on_c, 0, 57, 0
3, 70800, Note_on_c, 0, 45, 27
3, 71040, Note_on_c, 0, 45, 0
3, 71040, Note_on_c, 0, 52, 27
3, 71280, Note_on_c, 0, 52, 0
3, 71280, Note_on_c, 0, 62, 29
3, 71280, Note_on_c, 0, 65, 30
3, 71287, Control_c, 0, 64, 0
3, 71394, Control_c, 0, 64, 127
3, 71520, Note_on_c, 0, 65, 0
3, 71520, Note_on_c, 0, 62, 0
3, 71520, Note_on_c, 0, 45, 32
3, 71760, Note_on_c, 0, 45, 0
3, 71760, Note_on_c, 0, 57, 32
3, 72000, Note_on_c, 0, 57, 0
3, 72000, Note_on_c, 0, 64, 36
3, 72000, Note_on_c, 0, 61, 30
3, 72003, Control_c, 0, 64, 0
3, 72046, Control_c, 0, 64, 127
3, 72240, Note_on_c, 0, 61, 0
3, 72240, Note_on_c, 0, 64, 0
3, 72240, Note_on_c, 0, 45, 32
3, 72480, Note_on_c, 0, 45, 0
3, 72480, Note_on_c, 0, 57, 32
3, 72628, Control_c, 0, 64, 0
3, 72720, Note_on_c, 0, 57, 0
3, 72720, Note_on_c, 0, 65, 36
3, 72720, Note_on_c, 0, 62, 30
3, 72808, Control_c, 0, 64, 127
3, 72960, Note_on_c, 0, 62, 0
3, 72960, Note_on_c, 0, 65, 0
3, 72960, Note_on_c, 0, 38, 32
3, 73200, Note_on_c, 0, 38, 0
3, 73200, Note_on_c, 0, 57, 30
3, 73440, Note_on_c, 0, 57, 0
3, 73440, Note_on_c, 0, 64, 36
3, 73440, Note_on_c, 0, 61, 30
3, 73446, Control_c, 0, 64, 0
3, 73577, Control_c, 0, 64, 127
3, 73680, Note_on_c, 0, 61, 0
3, 73680, Note_on_c, 0, 64, 0
3, 73680, Note_on_c, 0, 45, 32
3, 73920, Note_on_c, 0, 45, 0
3, 73920, Note_on_c, 0, 57, 32
3, 74160, Note_on_c, 0, 57, 0
3, 74160, Note_on_c, 0, 62, 29
3, 74160, Note_on_c, 0, 65, 30
3, 74168, Control_c, 0, 64, 0
3, 74274, Control_c, 0, 64, 127
3, 74400, Note_on_c, 0, 65, 0
3, 74400, Note_on_c, 0, 62, 0
3, 74400, Note_on_c, 0, 45, 32
3, 74640, Note_on_c, 0, 45, 0
3, 74640, Note_on_c, 0, 57, 32
3, 74880, Note_on_c, 0, 57, 0
3, 74880, Note_on_c, 0, 64, 36
3, 74880, Note_on_c, 0, 61, 30
3, 74887, Control_c, 0, 64, 0
3, 74926, Control_c, 0, 64, 127
3, 75120, Note_on_c, 0, 61, 0
3, 75120, Note_on_c, 0, 64, 0
3, 75120, Note_on_c, 0, 45, 32
3, 75360, Note_on_c, 0, 45, 0
3, 75360, Note_on_c, 0, 57, 32
3, 75508, Control_c, 0, 64, 0
3, 75600, Note_on_c, 0, 57, 0
3, 75600, Note_on_c, 0, 65, 36
3, 75600, Note_on_c, 0, 62, 30
3, 75635, Control_c, 0, 64, 127
3, 75840, Note_on_c, 0, 62, 0
3, 75840, Note_on_c, 0, 65, 0
3, 75840, Note_on_c, 0, 38, 32
3, 76080, Note_on_c, 0, 38, 0
3, 76080, Note_on_c, 0, 57, 30
3, 76320, Note_on_c, 0, 57, 0
3, 76320, Note_on_c, 0, 64, 36
3, 76320, Note_on_c, 0, 61, 25
3, 76325, Control_c, 0, 64, 0
3, 76457, Control_c, 0, 64, 127
3, 76560, Note_on_c, 0, 61, 0
3, 76560, Note_on_c, 0, 64, 0
3, 76560, Note_on_c, 0, 45, 32
3, 76800, Note_on_c, 0, 45, 0
3, 76800, Note_on_c, 0, 52, 32
3, 77040, Note_on_c, 0, 52, 0
3, 77040, Note_on_c, 0, 57, 28
3, 77040, Note_on_c, 0, 61, 34
3, 77047, Control_c, 0, 64, 0
3, 77104, Control_c, 0, 64, 127
3, 77280, Note_on_c, 0, 61, 0
3, 77280, Note_on_c, 0, 57, 0
3, 77280, Note_on_c, 0, 45, 29
3, 77520, Note_on_c, 0, 45, 0
3, 77520, Note_on_c, 0, 52, 29
3, 77760, Note_on_c, 0, 52, 0
3, 77760, Note_on_c, 0, 61, 34
3, 77760, Note_on_c, 0, 57, 28
3, 78000, Note_on_c, 0, 57, 0
3, 78000, Note_on_c, 0, 61, 0
3, 78000, Note_on_c, 0, 45, 29
3, 78240, Note_on_c, 0, 45, 0
3, 78240, Note_on_c, 0, 52, 29
3, 78480, Note_on_c, 0, 52, 0
3, 78480, Note_on_c, 0, 61, 28
3, 78480, Note_on_c, 0, 57, 23
3, 78720, Note_on_c, 0, 57, 0
3, 78720, Note_on_c, 0, 61, 0
3, 78720, Note_on_c, 0, 45, 28
3, 78960, Note_on_c, 0, 45, 0
3, 78960, Note_on_c, 0, 52, 28
3, 79200, Note_on_c, 0, 52, 0
3, 79200, Note_on_c, 0, 61, 32
3, 79200, Note_on_c, 0, 57, 27
3, 79440, Note_on_c, 0, 57, 0
3, 79440, Note_on_c, 0, 61, 0
3, 79440, Note_on_c, 0, 45, 28
3, 79680, Note_on_c, 0, 45, 0
3, 79680, Note_on_c, 0, 52, 28
3, 79920, Note_on_c, 0, 52, 0
3, 79920, Note_on_c, 0, 61, 32
3, 79920, Note_on_c, 0, 57, 27
3, 80160, Note_on_c, 0, 57, 0
3, 80160, Note_on_c, 0, 61, 0
3, 80640, Note_on_c, 0, 69, 65
3, 80880, Note_on_c, 0, 69, 0
3, 80880, Note_on_c, 0, 64, 60
3, 81840, Note_on_c, 0, 64, 0
3, 82080, Note_on_c, 0, 57, 50
3, 82320, Note_on_c, 0, 57, 0
3, 82320, Note_on_c, 0, 52, 43
3, 83280, Note_on_c, 0, 52, 0
3, 83520, Note_on_c, 0, 33, 20
3, 83520, Note_on_c, 0, 45, 24
3, 83760, Note_on_c, 0, 45, 0
3, 83760, Note_on_c, 0, 33, 0
3, 84240, Note_on_c, 0, 33, 20
3, 84240, Note_on_c, 0, 45, 24
3, 84480, Note_on_c, 0, 45, 0
3, 84480, Note_on_c, 0, 33, 0
3, 84960, Note_on_c, 0, 33, 20
3, 84960, Note_on_c, 0, 45, 24
3, 85200, Note_on_c, 0, 45, 0
3, 85200, Note_on_c, 0, 33, 0
3, 86613, Control_c, 0, 64, 0
3, 86613, End_track
4, 0, Start_track
4, 0, Title_t, "Mendelssohn: Songs without Words, Op. 62 No. 5"
4, 0, End_track
5, 0, Start_track
5, 0, Title_t, "Copyright © 2004 by Bernd Krüger"
5, 0, End_track
6, 0, Start_track
6, 0, Title_t, "http://www.piano-midi.de"
6, 0, End_track
7, 0, Start_track
7, 0, Title_t, "Edition: 2014-04-03"
7, 0, End_track
8, 0, Start_track
8, 0, Title_t, "Spur 7"
8, 0, End_track
0, 0, End_of_file
