0, 0, Header, 1, 17, 480
1, 0, Start_track
1, 0, Title_t, "Mendelssohn: Lieder ohne Worte Opus 19 Nr. 5"
1, 0, Copyright_t, "Copyright © 2014 by Bernd Krueger"
1, 0, Text_t, "Bernd Krueger"
1, 0, Text_t, "Piano agitato"
1, 0, Text_t, "Erstellt: 30.11.2014\012"
1, 0, Text_t, "Dauer:  2:56 Minuten\012"
1, 0, Time_signature, 6, 2, 24, 8
1, 0, Key_signature, 3, "major"
1, 0, Tempo, 222403
1, 2400, Tempo, 245118
1, 2400, Marker_t, "Part 1"
1, 3600, Tempo, 249709
1, 3840, Tempo, 245118
1, 5520, Tempo, 250752
1, 5760, Tempo, 245118
1, 8400, Tempo, 250229
1, 8640, Tempo, 245118
1, 10320, Tempo, 237831
1, 11280, Tempo, 249190
1, 11520, Tempo, 245118
1, 12480, Tempo, 252866
1, 12720, Tempo, 245118
1, 13680, Tempo, 259988
1, 13920, Tempo, 245118
1, 15120, Tempo, 251277
1, 15360, Tempo, 244618
1, 16560, Tempo, 252334
1, 16800, Tempo, 245118
1, 19200, Tempo, 247137
1, 19680, Tempo, 252866
1, 20160, Tempo, 245118
1, 21120, Tempo, 250229
1, 21360, Tempo, 244618
1, 23520, Tempo, 240693
1, 24000, Tempo, 243132
1, 24480, Tempo, 247137
1, 24960, Tempo, 250229
1, 25200, Tempo, 244121
1, 25680, Tempo, 250229
1, 25920, Tempo, 244121
1, 26880, Tempo, 250752
1, 27120, Tempo, 244121
1, 28080, Tempo, 249709
1, 28320, Tempo, 245118
1, 28800, Tempo, 239732
1, 29280, Tempo, 242640
1, 30240, Tempo, 246124
1, 30960, Tempo, 251277
1, 31200, Tempo, 245118
1, 32880, Tempo, 250229
1, 33120, Tempo, 245118
1, 35520, Tempo, 243625
1, 37200, Tempo, 255015
1, 37440, Tempo, 241663
1, 37920, Tempo, 244618
1, 38880, Tempo, 242150
1, 39360, Tempo, 244618
1, 40320, Tempo, 239254
1, 40800, Tempo, 245620
1, 41520, Tempo, 250752
1, 41760, Tempo, 241177
1, 42240, Tempo, 244121
1, 43200, Tempo, 243625
1, 43440, Tempo, 259639
1, 43680, Tempo, 240211
1, 44160, Tempo, 243625
1, 44880, Tempo, 259079
1, 45120, Tempo, 240693
1, 45600, Tempo, 244121
1, 46320, Tempo, 256312
1, 46560, Tempo, 240693
1, 47040, Tempo, 243132
1, 47760, Tempo, 260202
1, 48000, Tempo, 238303
1, 48480, Tempo, 241663
1, 48960, Tempo, 243132
1, 49440, Tempo, 245308
1, 51778, Tempo, 244310
1, 52288, Tempo, 243813
1, 52798, Tempo, 243319
1, 53788, Tempo, 243813
1, 53998, Tempo, 244310
1, 54208, Tempo, 244808
1, 54418, Tempo, 245308
1, 54628, Tempo, 245811
1, 54720, Tempo, 244808
1, 56640, Tempo, 243319
1, 57360, Tempo, 249387
1, 57600, Tempo, 244808
1, 60240, Tempo, 254680
1, 60480, Tempo, 242336
1, 61440, Tempo, 244310
1, 61680, Tempo, 251477
1, 61920, Tempo, 242827
1, 62880, Tempo, 248870
1, 63120, Tempo, 255765
1, 63360, Tempo, 245308
1, 65520, Tempo, 254680
1, 65760, Tempo, 247331
1, 66240, Tempo, 244808
1, 68160, Tempo, 243319
1, 68880, Tempo, 249387
1, 69120, Tempo, 244808
1, 71760, Tempo, 254680
1, 72000, Tempo, 242336
1, 72960, Tempo, 244310
1, 73200, Tempo, 251477
1, 73440, Tempo, 242827
1, 74400, Tempo, 248870
1, 74640, Tempo, 255765
1, 74880, Tempo, 245308
1, 77760, Tempo, 242336
1, 78720, Tempo, 244310
1, 78960, Tempo, 251477
1, 79200, Tempo, 242827
1, 80160, Tempo, 248870
1, 80400, Tempo, 255765
1, 80640, Tempo, 245308
1, 80667, Tempo, 246822
1, 80967, Tempo, 246316
1, 81267, Tempo, 245811
1, 81567, Tempo, 245308
1, 83517, Tempo, 244808
1, 83520, Tempo, 245308
1, 84000, Tempo, 249387
1, 84480, Tempo, 251477
1, 85440, Tempo, 267750
1, 85920, Tempo, 248870
1, 86400, Tempo, 245308
1, 86427, Tempo, 246822
1, 86727, Tempo, 246316
1, 87027, Tempo, 245811
1, 87327, Tempo, 245308
1, 87797, Tempo, 243813
1, 87977, Tempo, 244310
1, 88127, Tempo, 244808
1, 88277, Tempo, 245308
1, 88457, Tempo, 245811
1, 88607, Tempo, 246316
1, 88757, Tempo, 246822
1, 88937, Tempo, 247331
1, 89087, Tempo, 247842
1, 89237, Tempo, 248355
1, 89277, Tempo, 244808
1, 89280, Tempo, 247842
1, 89520, Tempo, 266560
1, 89760, Tempo, 246316
1, 89907, Tempo, 245811
1, 90207, Tempo, 245308
1, 90707, Tempo, 245308
1, 90917, Tempo, 245811
1, 91097, Tempo, 246316
1, 91277, Tempo, 246822
1, 91457, Tempo, 247331
1, 91637, Tempo, 247842
1, 91817, Tempo, 248355
1, 91997, Tempo, 248870
1, 92177, Tempo, 249387
1, 92357, Tempo, 249906
1, 92400, Tempo, 270161
1, 92640, Tempo, 245811
1, 92787, Tempo, 245811
1, 93087, Tempo, 245308
1, 94800, Tempo, 253068
1, 95040, Tempo, 239914
1, 95337, Tempo, 240877
1, 95697, Tempo, 241361
1, 96057, Tempo, 241848
1, 96387, Tempo, 242336
1, 96747, Tempo, 242827
1, 97107, Tempo, 243319
1, 97200, Tempo, 267750
1, 97437, Tempo, 243813
1, 97440, Tempo, 244808
1, 97440, Marker_t, "Part 1 Repeat"
1, 98640, Tempo, 249709
1, 98880, Tempo, 245118
1, 100560, Tempo, 250752
1, 100800, Tempo, 245118
1, 103440, Tempo, 250229
1, 103680, Tempo, 245118
1, 105360, Tempo, 237831
1, 106320, Tempo, 249190
1, 106560, Tempo, 245118
1, 107520, Tempo, 252866
1, 107760, Tempo, 245118
1, 108720, Tempo, 259988
1, 108960, Tempo, 245118
1, 110160, Tempo, 251277
1, 110400, Tempo, 244618
1, 111600, Tempo, 252334
1, 111840, Tempo, 245118
1, 114240, Tempo, 247137
1, 114720, Tempo, 252866
1, 115200, Tempo, 245118
1, 116160, Tempo, 250229
1, 116400, Tempo, 244618
1, 118560, Tempo, 240693
1, 119040, Tempo, 243132
1, 119520, Tempo, 247137
1, 120000, Tempo, 250229
1, 120240, Tempo, 244121
1, 120720, Tempo, 250229
1, 120960, Tempo, 244121
1, 121920, Tempo, 250752
1, 122160, Tempo, 244121
1, 123120, Tempo, 249709
1, 123360, Tempo, 245118
1, 123840, Tempo, 239732
1, 124320, Tempo, 242640
1, 125280, Tempo, 246124
1, 126000, Tempo, 251277
1, 126240, Tempo, 245118
1, 127920, Tempo, 250229
1, 128160, Tempo, 245118
1, 130560, Tempo, 243625
1, 132240, Tempo, 255015
1, 132480, Tempo, 241663
1, 132960, Tempo, 244618
1, 133920, Tempo, 242150
1, 134400, Tempo, 244618
1, 135360, Tempo, 239254
1, 135840, Tempo, 245620
1, 136560, Tempo, 250752
1, 136800, Tempo, 241177
1, 137280, Tempo, 244121
1, 138240, Tempo, 243625
1, 138480, Tempo, 259639
1, 138720, Tempo, 240211
1, 139200, Tempo, 243625
1, 139920, Tempo, 259079
1, 140160, Tempo, 240693
1, 140640, Tempo, 244121
1, 141360, Tempo, 256312
1, 141600, Tempo, 240693
1, 142080, Tempo, 243132
1, 142800, Tempo, 260202
1, 143040, Tempo, 238303
1, 143520, Tempo, 241663
1, 144000, Tempo, 243132
1, 144480, Tempo, 245308
1, 146818, Tempo, 244310
1, 147328, Tempo, 243813
1, 147838, Tempo, 243319
1, 148828, Tempo, 243813
1, 149038, Tempo, 244310
1, 149248, Tempo, 244808
1, 149458, Tempo, 245308
1, 149668, Tempo, 245811
1, 149760, Tempo, 244808
1, 151680, Tempo, 243319
1, 152400, Tempo, 249387
1, 152640, Tempo, 244808
1, 155280, Tempo, 254680
1, 155520, Tempo, 242336
1, 156480, Tempo, 244310
1, 156720, Tempo, 251477
1, 156960, Tempo, 242827
1, 157920, Tempo, 248870
1, 158160, Tempo, 255765
1, 158400, Tempo, 245308
1, 160560, Tempo, 254680
1, 160800, Tempo, 247331
1, 161280, Tempo, 244808
1, 163200, Tempo, 243319
1, 163920, Tempo, 249387
1, 164160, Tempo, 244808
1, 166800, Tempo, 254680
1, 167040, Tempo, 242336
1, 168000, Tempo, 244310
1, 168240, Tempo, 251477
1, 168480, Tempo, 242827
1, 169440, Tempo, 248870
1, 169680, Tempo, 255765
1, 169920, Tempo, 245308
1, 172800, Tempo, 242336
1, 173760, Tempo, 244310
1, 174000, Tempo, 251477
1, 174240, Tempo, 242827
1, 175200, Tempo, 248870
1, 175440, Tempo, 255765
1, 175680, Tempo, 245308
1, 175707, Tempo, 246822
1, 176007, Tempo, 246316
1, 176307, Tempo, 245811
1, 176607, Tempo, 245308
1, 178557, Tempo, 244808
1, 178560, Tempo, 245308
1, 179040, Tempo, 249387
1, 179520, Tempo, 251477
1, 180480, Tempo, 267750
1, 180960, Tempo, 248870
1, 181440, Tempo, 245308
1, 181467, Tempo, 246822
1, 181767, Tempo, 246316
1, 182067, Tempo, 245811
1, 182367, Tempo, 245308
1, 182837, Tempo, 243813
1, 183017, Tempo, 244310
1, 183167, Tempo, 244808
1, 183317, Tempo, 245308
1, 183497, Tempo, 245811
1, 183647, Tempo, 246316
1, 183797, Tempo, 246822
1, 183977, Tempo, 247331
1, 184127, Tempo, 247842
1, 184277, Tempo, 248355
1, 184317, Tempo, 244808
1, 184320, Tempo, 247842
1, 184560, Tempo, 266560
1, 184800, Tempo, 246316
1, 184947, Tempo, 245811
1, 185247, Tempo, 245308
1, 185747, Tempo, 245308
1, 185957, Tempo, 245811
1, 186137, Tempo, 246316
1, 186317, Tempo, 246822
1, 186497, Tempo, 247331
1, 186677, Tempo, 247842
1, 186857, Tempo, 248355
1, 187037, Tempo, 248870
1, 187217, Tempo, 249387
1, 187397, Tempo, 249906
1, 187440, Tempo, 270161
1, 187680, Tempo, 245811
1, 187827, Tempo, 245811
1, 188127, Tempo, 245308
1, 189840, Tempo, 253068
1, 190080, Tempo, 239914
1, 190377, Tempo, 240877
1, 190737, Tempo, 241361
1, 191097, Tempo, 241848
1, 191427, Tempo, 242336
1, 191787, Tempo, 242827
1, 192147, Tempo, 243319
1, 192477, Tempo, 243813
1, 192480, Marker_t, "Part 2"
1, 192960, Tempo, 245118
1, 193680, Tempo, 249709
1, 193920, Tempo, 245118
1, 195600, Tempo, 250752
1, 195840, Tempo, 245118
1, 198480, Tempo, 250229
1, 198720, Tempo, 244808
1, 200160, Tempo, 255765
1, 200400, Tempo, 244808
1, 201600, Tempo, 255221
1, 201840, Tempo, 244808
1, 202323, Tempo, 239435
1, 202563, Tempo, 239914
1, 202773, Tempo, 240394
1, 202983, Tempo, 240877
1, 203193, Tempo, 241361
1, 203403, Tempo, 241848
1, 203643, Tempo, 242336
1, 203853, Tempo, 242827
1, 204063, Tempo, 243319
1, 204273, Tempo, 243813
1, 204480, Tempo, 245118
1, 205200, Tempo, 249709
1, 205440, Tempo, 245118
1, 207120, Tempo, 250752
1, 207360, Tempo, 245118
1, 210000, Tempo, 250229
1, 210240, Tempo, 244808
1, 211680, Tempo, 255765
1, 211920, Tempo, 244808
1, 213120, Tempo, 255221
1, 213360, Tempo, 244808
1, 213843, Tempo, 239435
1, 214083, Tempo, 239914
1, 214293, Tempo, 240394
1, 214503, Tempo, 240877
1, 214713, Tempo, 241361
1, 214923, Tempo, 241848
1, 215163, Tempo, 242336
1, 215373, Tempo, 242827
1, 215583, Tempo, 243319
1, 215793, Tempo, 243813
1, 216000, Tempo, 244808
1, 217440, Tempo, 255765
1, 217680, Tempo, 244808
1, 218640, Tempo, 254140
1, 218880, Tempo, 244808
1, 220320, Tempo, 255765
1, 220560, Tempo, 244808
1, 221520, Tempo, 252536
1, 221760, Tempo, 244808
1, 223200, Tempo, 255765
1, 223440, Tempo, 244808
1, 224400, Tempo, 252536
1, 224640, Tempo, 244808
1, 226080, Tempo, 255765
1, 226320, Tempo, 244808
1, 227280, Tempo, 253603
1, 227520, Tempo, 244808
1, 228960, Tempo, 255765
1, 229200, Tempo, 244808
1, 230160, Tempo, 253068
1, 230400, Tempo, 244310
1, 231840, Tempo, 255765
1, 232080, Tempo, 244808
1, 233040, Tempo, 253603
1, 233280, Tempo, 244808
1, 234480, Tempo, 251477
1, 234720, Tempo, 247331
1, 234960, Tempo, 244808
1, 235920, Tempo, 253603
1, 236160, Tempo, 242827
1, 237360, Tempo, 251477
1, 237600, Tempo, 247331
1, 237840, Tempo, 242827
1, 238800, Tempo, 253603
1, 239040, Tempo, 238958
1, 240240, Tempo, 247842
1, 240480, Tempo, 239435
1, 241680, Tempo, 248355
1, 241920, Tempo, 238958
1, 243120, Tempo, 247842
1, 243360, Tempo, 239435
1, 244320, Tempo, 246822
1, 244560, Tempo, 269554
1, 244800, Tempo, 238958
1, 246000, Tempo, 247842
1, 246240, Tempo, 239435
1, 247440, Tempo, 248355
1, 247680, Tempo, 239435
1, 248880, Tempo, 248355
1, 249120, Tempo, 239435
1, 250320, Tempo, 248355
1, 250560, Tempo, 239435
1, 251760, Tempo, 248355
1, 252000, Tempo, 239435
1, 253200, Tempo, 248355
1, 253440, Tempo, 239435
1, 254640, Tempo, 248355
1, 254880, Tempo, 239435
1, 256080, Tempo, 248355
1, 256320, Tempo, 239435
1, 257520, Tempo, 248355
1, 257760, Tempo, 239435
1, 258960, Tempo, 248355
1, 259200, Tempo, 239435
1, 260400, Tempo, 248355
1, 260640, Tempo, 239435
1, 261840, Tempo, 248355
1, 262080, Tempo, 239435
1, 264720, Tempo, 246316
1, 264960, Tempo, 238958
1, 266160, Tempo, 245308
1, 266400, Tempo, 238958
1, 267600, Tempo, 246316
1, 267840, Tempo, 239435
1, 270480, Tempo, 246316
1, 270720, Tempo, 238958
1, 271920, Tempo, 245308
1, 272160, Tempo, 238958
1, 273360, Tempo, 246316
1, 273600, Tempo, 239435
1, 275040, Tempo, 239435
1, 276480, Key_signature, 6, "major"
1, 276480, Tempo, 244808
1, 278400, Tempo, 243319
1, 279120, Tempo, 249387
1, 279360, Tempo, 244808
1, 282000, Tempo, 254680
1, 282240, Tempo, 242336
1, 283200, Tempo, 244310
1, 283440, Tempo, 251477
1, 283680, Tempo, 242827
1, 284640, Tempo, 248870
1, 284880, Tempo, 255765
1, 285120, Tempo, 245308
1, 287280, Tempo, 254680
1, 287520, Tempo, 239435
1, 288000, Tempo, 244808
1, 289920, Tempo, 243319
1, 290640, Tempo, 249387
1, 290880, Tempo, 244808
1, 293520, Tempo, 254680
1, 293760, Tempo, 242336
1, 294720, Tempo, 244310
1, 294960, Tempo, 251477
1, 295200, Tempo, 242827
1, 296160, Tempo, 248870
1, 296400, Tempo, 255765
1, 296640, Tempo, 245308
1, 298800, Tempo, 254680
1, 299520, Tempo, 242336
1, 300480, Tempo, 244310
1, 300720, Tempo, 251477
1, 300960, Tempo, 242827
1, 301920, Tempo, 248870
1, 302160, Tempo, 255765
1, 302400, Tempo, 245308
1, 303600, Tempo, 250952
1, 303840, Tempo, 244310
1, 304800, Tempo, 246316
1, 305040, Tempo, 256860
1, 305280, Tempo, 242336
1, 306240, Tempo, 244310
1, 306480, Tempo, 251477
1, 306720, Tempo, 242827
1, 307680, Tempo, 248870
1, 307920, Tempo, 255765
1, 308160, Tempo, 242336
1, 309120, Tempo, 244310
1, 309360, Tempo, 251477
1, 309600, Tempo, 242827
1, 310560, Tempo, 248870
1, 310800, Tempo, 255765
1, 311040, Tempo, 242827
1, 312000, Tempo, 248870
1, 312240, Tempo, 255765
1, 312480, Tempo, 242827
1, 312960, Tempo, 245811
1, 313440, Tempo, 250428
1, 313680, Tempo, 261335
1, 313920, Tempo, 243319
1, 316800, Tempo, 245308
1, 316827, Tempo, 246822
1, 317127, Tempo, 246316
1, 317427, Tempo, 245811
1, 317727, Tempo, 245308
1, 319677, Tempo, 244808
1, 319680, Tempo, 245308
1, 320160, Tempo, 249387
1, 320640, Tempo, 251477
1, 321600, Tempo, 267750
1, 322080, Tempo, 248870
1, 322560, Tempo, 245308
1, 322587, Tempo, 246822
1, 322887, Tempo, 246316
1, 323187, Tempo, 245811
1, 323487, Tempo, 245308
1, 323957, Tempo, 243813
1, 324137, Tempo, 244310
1, 324287, Tempo, 244808
1, 324437, Tempo, 245308
1, 324617, Tempo, 245811
1, 324767, Tempo, 246316
1, 324917, Tempo, 246822
1, 325097, Tempo, 247331
1, 325247, Tempo, 247842
1, 325397, Tempo, 248355
1, 325437, Tempo, 244808
1, 325440, Tempo, 247842
1, 325680, Tempo, 266560
1, 325920, Tempo, 246316
1, 326067, Tempo, 245811
1, 326367, Tempo, 245308
1, 326867, Tempo, 245308
1, 327077, Tempo, 245811
1, 327257, Tempo, 246316
1, 327437, Tempo, 246822
1, 327617, Tempo, 247331
1, 327797, Tempo, 247842
1, 327977, Tempo, 248355
1, 328157, Tempo, 248870
1, 328337, Tempo, 249387
1, 328517, Tempo, 249906
1, 328560, Tempo, 270161
1, 328800, Tempo, 245811
1, 328947, Tempo, 245811
1, 329247, Tempo, 245308
1, 330960, Tempo, 253068
1, 331200, Tempo, 239914
1, 331497, Tempo, 240877
1, 331857, Tempo, 241361
1, 332217, Tempo, 241848
1, 332547, Tempo, 242336
1, 332907, Tempo, 242827
1, 333267, Tempo, 243319
1, 333360, Tempo, 267750
1, 333597, Tempo, 243813
1, 333600, Tempo, 244808
1, 334080, Tempo, 242336
1, 334347, Tempo, 242827
1, 334707, Tempo, 243319
1, 334800, Tempo, 267750
1, 335037, Tempo, 243813
1, 335040, Tempo, 244808
1, 335520, Tempo, 242336
1, 335787, Tempo, 242827
1, 336147, Tempo, 243319
1, 336240, Tempo, 267750
1, 336477, Tempo, 243813
1, 336480, Tempo, 244808
1, 337985, Tempo, 244808
1, 338075, Tempo, 245308
1, 338135, Tempo, 245811
1, 338195, Tempo, 246316
1, 338285, Tempo, 246822
1, 338345, Tempo, 247331
1, 338405, Tempo, 247842
1, 338465, Tempo, 248355
1, 338555, Tempo, 248870
1, 338615, Tempo, 249387
1, 338675, Tempo, 249906
1, 338735, Tempo, 250428
1, 338825, Tempo, 250952
1, 338885, Tempo, 251477
1, 338945, Tempo, 252006
1, 339005, Tempo, 252536
1, 339095, Tempo, 253068
1, 339155, Tempo, 253603
1, 339215, Tempo, 254140
1, 339275, Tempo, 254680
1, 339365, Tempo, 255221
1, 339425, Tempo, 255765
1, 339485, Tempo, 256312
1, 339545, Tempo, 256860
1, 339600, Tempo, 277021
1, 339840, Tempo, 290430
1, 341280, Tempo, 300616
1, 342240, Tempo, 324167
1, 342240, End_track
2, 0, Start_track
2, 0, Title_t, "Piano right"
2, 0, Program_c, 0, 0
2, 2400, Note_on_c, 0, 61, 50
2, 2640, Note_on_c, 0, 57, 40
2, 2856, Note_on_c, 0, 61, 0
2, 2880, Note_on_c, 0, 57, 0
2, 2880, Note_on_c, 0, 61, 56
2, 3120, Note_on_c, 0, 56, 37
2, 3360, Note_on_c, 0, 56, 0
2, 3360, Note_on_c, 0, 57, 42
2, 3600, Note_on_c, 0, 57, 0
2, 3600, Note_on_c, 0, 54, 34
2, 3840, Note_on_c, 0, 54, 0
2, 3840, Note_on_c, 0, 61, 0
2, 3840, Note_on_c, 0, 66, 54
2, 4080, Note_on_c, 0, 61, 39
2, 4296, Note_on_c, 0, 66, 0
2, 4320, Note_on_c, 0, 61, 0
2, 4320, Note_on_c, 0, 66, 55
2, 4560, Note_on_c, 0, 60, 45
2, 4800, Note_on_c, 0, 60, 0
2, 4800, Note_on_c, 0, 61, 55
2, 5040, Note_on_c, 0, 61, 0
2, 5040, Note_on_c, 0, 57, 46
2, 5280, Note_on_c, 0, 57, 0
2, 5280, Note_on_c, 0, 66, 0
2, 5280, Note_on_c, 0, 69, 66
2, 5520, Note_on_c, 0, 66, 55
2, 5760, Note_on_c, 0, 66, 0
2, 5760, Note_on_c, 0, 69, 0
2, 5760, Note_on_c, 0, 74, 73
2, 6000, Note_on_c, 0, 68, 56
2, 6240, Note_on_c, 0, 68, 0
2, 6240, Note_on_c, 0, 69, 61
2, 6480, Note_on_c, 0, 69, 0
2, 6480, Note_on_c, 0, 66, 56
2, 6720, Note_on_c, 0, 66, 0
2, 6720, Note_on_c, 0, 74, 0
2, 6720, Note_on_c, 0, 73, 68
2, 6960, Note_on_c, 0, 69, 49
2, 7200, Note_on_c, 0, 69, 0
2, 7200, Note_on_c, 0, 73, 0
2, 7200, Note_on_c, 0, 72, 68
2, 7440, Note_on_c, 0, 68, 50
2, 7680, Note_on_c, 0, 68, 0
2, 7680, Note_on_c, 0, 69, 55
2, 7920, Note_on_c, 0, 69, 0
2, 7920, Note_on_c, 0, 66, 45
2, 8150, Note_on_c, 0, 72, 0
2, 8160, Note_on_c, 0, 66, 0
2, 8160, Note_on_c, 0, 72, 51
2, 8400, Note_on_c, 0, 69, 33
2, 8640, Note_on_c, 0, 69, 0
2, 8640, Note_on_c, 0, 72, 0
2, 8640, Note_on_c, 0, 73, 56
2, 8880, Note_on_c, 0, 68, 43
2, 9120, Note_on_c, 0, 68, 0
2, 9120, Note_on_c, 0, 61, 46
2, 9360, Note_on_c, 0, 61, 0
2, 9360, Note_on_c, 0, 63, 42
2, 9600, Note_on_c, 0, 63, 0
2, 9600, Note_on_c, 0, 73, 0
2, 9600, Note_on_c, 0, 65, 40
2, 9600, Note_on_c, 0, 71, 50
2, 9840, Note_on_c, 0, 65, 0
2, 9840, Note_on_c, 0, 61, 38
2, 10010, Note_on_c, 0, 71, 0
2, 10020, Note_on_c, 0, 71, 43
2, 10080, Note_on_c, 0, 71, 0
2, 10080, Note_on_c, 0, 61, 0
2, 10080, Note_on_c, 0, 66, 44
2, 10080, Note_on_c, 0, 69, 55
2, 10320, Note_on_c, 0, 69, 0
2, 10320, Note_on_c, 0, 66, 0
2, 10320, Note_on_c, 0, 61, 46
2, 10560, Note_on_c, 0, 61, 0
2, 10560, Note_on_c, 0, 65, 50
2, 10560, Note_on_c, 0, 68, 63
2, 10800, Note_on_c, 0, 68, 0
2, 10800, Note_on_c, 0, 65, 0
2, 10800, Note_on_c, 0, 61, 54
2, 11040, Note_on_c, 0, 61, 0
2, 11040, Note_on_c, 0, 66, 55
2, 11040, Note_on_c, 0, 69, 69
2, 11280, Note_on_c, 0, 69, 0
2, 11280, Note_on_c, 0, 66, 0
2, 11280, Note_on_c, 0, 61, 57
2, 11520, Note_on_c, 0, 61, 0
2, 11520, Note_on_c, 0, 66, 55
2, 11520, Note_on_c, 0, 69, 69
2, 11520, Note_on_c, 0, 73, 76
2, 11760, Note_on_c, 0, 66, 0
2, 11760, Note_on_c, 0, 62, 54
2, 12000, Note_on_c, 0, 62, 0
2, 12000, Note_on_c, 0, 73, 0
2, 12000, Note_on_c, 0, 69, 0
2, 12000, Note_on_c, 0, 68, 48
2, 12000, Note_on_c, 0, 71, 61
2, 12240, Note_on_c, 0, 68, 0
2, 12240, Note_on_c, 0, 62, 49
2, 12480, Note_on_c, 0, 62, 0
2, 12480, Note_on_c, 0, 71, 0
2, 12480, Note_on_c, 0, 66, 40
2, 12480, Note_on_c, 0, 69, 50
2, 12720, Note_on_c, 0, 69, 0
2, 12720, Note_on_c, 0, 66, 0
2, 12720, Note_on_c, 0, 62, 41
2, 12960, Note_on_c, 0, 62, 0
2, 12960, Note_on_c, 0, 66, 44
2, 12960, Note_on_c, 0, 69, 56
2, 13200, Note_on_c, 0, 66, 0
2, 13200, Note_on_c, 0, 61, 45
2, 13440, Note_on_c, 0, 61, 0
2, 13440, Note_on_c, 0, 69, 0
2, 13440, Note_on_c, 0, 65, 40
2, 13440, Note_on_c, 0, 68, 50
2, 13680, Note_on_c, 0, 65, 0
2, 13680, Note_on_c, 0, 59, 43
2, 13920, Note_on_c, 0, 59, 0
2, 13920, Note_on_c, 0, 68, 0
2, 13920, Note_on_c, 0, 61, 50
2, 14160, Note_on_c, 0, 57, 40
2, 14376, Note_on_c, 0, 61, 0
2, 14400, Note_on_c, 0, 57, 0
2, 14400, Note_on_c, 0, 61, 56
2, 14640, Note_on_c, 0, 56, 37
2, 14880, Note_on_c, 0, 56, 0
2, 14880, Note_on_c, 0, 57, 42
2, 15120, Note_on_c, 0, 57, 0
2, 15120, Note_on_c, 0, 54, 34
2, 15360, Note_on_c, 0, 54, 0
2, 15360, Note_on_c, 0, 61, 0
2, 15360, Note_on_c, 0, 66, 54
2, 15600, Note_on_c, 0, 61, 39
2, 15816, Note_on_c, 0, 66, 0
2, 15840, Note_on_c, 0, 61, 0
2, 15840, Note_on_c, 0, 66, 55
2, 16080, Note_on_c, 0, 60, 45
2, 16320, Note_on_c, 0, 60, 0
2, 16320, Note_on_c, 0, 61, 55
2, 16560, Note_on_c, 0, 61, 0
2, 16560, Note_on_c, 0, 57, 46
2, 16800, Note_on_c, 0, 57, 0
2, 16800, Note_on_c, 0, 66, 0
2, 16800, Note_on_c, 0, 69, 66
2, 17040, Note_on_c, 0, 66, 55
2, 17280, Note_on_c, 0, 66, 0
2, 17280, Note_on_c, 0, 69, 0
2, 17280, Note_on_c, 0, 74, 73
2, 17520, Note_on_c, 0, 68, 56
2, 17760, Note_on_c, 0, 68, 0
2, 17760, Note_on_c, 0, 69, 61
2, 18000, Note_on_c, 0, 69, 0
2, 18000, Note_on_c, 0, 66, 56
2, 18240, Note_on_c, 0, 66, 0
2, 18240, Note_on_c, 0, 74, 0
2, 18240, Note_on_c, 0, 73, 68
2, 18480, Note_on_c, 0, 69, 49
2, 18720, Note_on_c, 0, 69, 0
2, 18720, Note_on_c, 0, 73, 0
2, 18720, Note_on_c, 0, 72, 68
2, 18960, Note_on_c, 0, 68, 50
2, 19200, Note_on_c, 0, 68, 0
2, 19200, Note_on_c, 0, 69, 55
2, 19440, Note_on_c, 0, 69, 0
2, 19440, Note_on_c, 0, 66, 45
2, 19670, Note_on_c, 0, 72, 0
2, 19680, Note_on_c, 0, 66, 0
2, 19680, Note_on_c, 0, 72, 51
2, 19920, Note_on_c, 0, 69, 33
2, 20160, Note_on_c, 0, 69, 0
2, 20160, Note_on_c, 0, 72, 0
2, 20160, Note_on_c, 0, 73, 56
2, 20400, Note_on_c, 0, 68, 43
2, 20640, Note_on_c, 0, 68, 0
2, 20640, Note_on_c, 0, 61, 46
2, 20880, Note_on_c, 0, 61, 0
2, 20880, Note_on_c, 0, 62, 42
2, 21120, Note_on_c, 0, 62, 0
2, 21120, Note_on_c, 0, 73, 0
2, 21120, Note_on_c, 0, 64, 40
2, 21120, Note_on_c, 0, 70, 50
2, 21360, Note_on_c, 0, 70, 0
2, 21360, Note_on_c, 0, 64, 0
2, 21360, Note_on_c, 0, 61, 38
2, 21600, Note_on_c, 0, 61, 0
2, 21600, Note_on_c, 0, 62, 46
2, 21600, Note_on_c, 0, 71, 56
2, 21840, Note_on_c, 0, 62, 0
2, 21840, Note_on_c, 0, 66, 43
2, 22080, Note_on_c, 0, 66, 0
2, 22080, Note_on_c, 0, 71, 0
2, 22080, Note_on_c, 0, 64, 46
2, 22320, Note_on_c, 0, 64, 0
2, 22320, Note_on_c, 0, 62, 42
2, 22560, Note_on_c, 0, 62, 0
2, 22560, Note_on_c, 0, 61, 40
2, 22560, Note_on_c, 0, 70, 50
2, 22800, Note_on_c, 0, 61, 0
2, 22800, Note_on_c, 0, 64, 38
2, 23040, Note_on_c, 0, 64, 0
2, 23040, Note_on_c, 0, 70, 0
2, 23040, Note_on_c, 0, 62, 46
2, 23040, Note_on_c, 0, 71, 56
2, 23280, Note_on_c, 0, 62, 0
2, 23280, Note_on_c, 0, 66, 43
2, 23520, Note_on_c, 0, 66, 0
2, 23520, Note_on_c, 0, 71, 0
2, 23520, Note_on_c, 0, 69, 50
2, 23520, Note_on_c, 0, 61, 46
2, 23760, Note_on_c, 0, 61, 0
2, 23760, Note_on_c, 0, 69, 0
2, 23760, Note_on_c, 0, 64, 42
2, 24000, Note_on_c, 0, 64, 0
2, 24000, Note_on_c, 0, 59, 40
2, 24000, Note_on_c, 0, 68, 50
2, 24240, Note_on_c, 0, 68, 0
2, 24240, Note_on_c, 0, 59, 0
2, 24240, Note_on_c, 0, 62, 38
2, 24480, Note_on_c, 0, 62, 0
2, 24480, Note_on_c, 0, 57, 46
2, 24480, Note_on_c, 0, 66, 56
2, 24720, Note_on_c, 0, 57, 0
2, 24720, Note_on_c, 0, 61, 43
2, 24960, Note_on_c, 0, 61, 0
2, 24960, Note_on_c, 0, 66, 0
2, 24960, Note_on_c, 0, 65, 56
2, 24960, Note_on_c, 0, 56, 46
2, 25200, Note_on_c, 0, 56, 0
2, 25200, Note_on_c, 0, 59, 42
2, 25440, Note_on_c, 0, 59, 0
2, 25440, Note_on_c, 0, 65, 0
2, 25440, Note_on_c, 0, 61, 40
2, 25440, Note_on_c, 0, 70, 50
2, 25680, Note_on_c, 0, 61, 0
2, 25680, Note_on_c, 0, 64, 38
2, 25920, Note_on_c, 0, 64, 0
2, 25920, Note_on_c, 0, 70, 0
2, 25920, Note_on_c, 0, 62, 43
2, 25920, Note_on_c, 0, 71, 56
2, 26160, Note_on_c, 0, 62, 0
2, 26160, Note_on_c, 0, 66, 43
2, 26400, Note_on_c, 0, 66, 0
2, 26400, Note_on_c, 0, 71, 0
2, 26400, Note_on_c, 0, 64, 46
2, 26640, Note_on_c, 0, 64, 0
2, 26640, Note_on_c, 0, 62, 42
2, 26880, Note_on_c, 0, 62, 0
2, 26880, Note_on_c, 0, 61, 40
2, 26880, Note_on_c, 0, 70, 50
2, 27120, Note_on_c, 0, 61, 0
2, 27120, Note_on_c, 0, 64, 38
2, 27360, Note_on_c, 0, 64, 0
2, 27360, Note_on_c, 0, 70, 0
2, 27360, Note_on_c, 0, 62, 46
2, 27360, Note_on_c, 0, 71, 56
2, 27600, Note_on_c, 0, 62, 0
2, 27600, Note_on_c, 0, 66, 43
2, 27840, Note_on_c, 0, 66, 0
2, 27840, Note_on_c, 0, 71, 0
2, 27840, Note_on_c, 0, 64, 46
2, 28080, Note_on_c, 0, 64, 0
2, 28080, Note_on_c, 0, 62, 42
2, 28320, Note_on_c, 0, 62, 0
2, 28320, Note_on_c, 0, 61, 40
2, 28320, Note_on_c, 0, 70, 50
2, 28560, Note_on_c, 0, 61, 0
2, 28560, Note_on_c, 0, 64, 38
2, 28800, Note_on_c, 0, 64, 0
2, 28800, Note_on_c, 0, 70, 0
2, 28800, Note_on_c, 0, 62, 46
2, 28800, Note_on_c, 0, 71, 56
2, 29040, Note_on_c, 0, 62, 0
2, 29040, Note_on_c, 0, 66, 43
2, 29280, Note_on_c, 0, 66, 0
2, 29280, Note_on_c, 0, 71, 0
2, 29280, Note_on_c, 0, 69, 50
2, 29280, Note_on_c, 0, 61, 46
2, 29520, Note_on_c, 0, 61, 0
2, 29520, Note_on_c, 0, 69, 0
2, 29520, Note_on_c, 0, 64, 42
2, 29760, Note_on_c, 0, 64, 0
2, 29760, Note_on_c, 0, 59, 40
2, 29760, Note_on_c, 0, 68, 50
2, 30000, Note_on_c, 0, 68, 0
2, 30000, Note_on_c, 0, 59, 0
2, 30000, Note_on_c, 0, 62, 38
2, 30240, Note_on_c, 0, 62, 0
2, 30240, Note_on_c, 0, 57, 46
2, 30240, Note_on_c, 0, 66, 56
2, 30480, Note_on_c, 0, 57, 0
2, 30480, Note_on_c, 0, 61, 43
2, 30720, Note_on_c, 0, 61, 0
2, 30720, Note_on_c, 0, 66, 0
2, 30720, Note_on_c, 0, 65, 56
2, 30720, Note_on_c, 0, 56, 46
2, 30960, Note_on_c, 0, 56, 0
2, 30960, Note_on_c, 0, 59, 42
2, 31200, Note_on_c, 0, 59, 0
2, 31200, Note_on_c, 0, 65, 0
2, 31200, Note_on_c, 0, 61, 40
2, 31200, Note_on_c, 0, 70, 50
2, 31440, Note_on_c, 0, 61, 0
2, 31440, Note_on_c, 0, 64, 38
2, 31680, Note_on_c, 0, 64, 0
2, 31680, Note_on_c, 0, 70, 0
2, 31680, Note_on_c, 0, 62, 43
2, 31680, Note_on_c, 0, 71, 56
2, 31920, Note_on_c, 0, 62, 0
2, 31920, Note_on_c, 0, 66, 43
2, 32160, Note_on_c, 0, 66, 0
2, 32160, Note_on_c, 0, 71, 0
2, 32160, Note_on_c, 0, 64, 46
2, 32400, Note_on_c, 0, 64, 0
2, 32400, Note_on_c, 0, 62, 42
2, 32640, Note_on_c, 0, 62, 0
2, 32640, Note_on_c, 0, 70, 40
2, 32640, Note_on_c, 0, 73, 50
2, 32880, Note_on_c, 0, 70, 0
2, 32880, Note_on_c, 0, 66, 38
2, 33120, Note_on_c, 0, 66, 0
2, 33120, Note_on_c, 0, 73, 0
2, 33120, Note_on_c, 0, 71, 45
2, 33120, Note_on_c, 0, 74, 56
2, 33360, Note_on_c, 0, 71, 0
2, 33360, Note_on_c, 0, 66, 43
2, 33600, Note_on_c, 0, 66, 0
2, 33600, Note_on_c, 0, 74, 0
2, 33600, Note_on_c, 0, 72, 48
2, 33600, Note_on_c, 0, 75, 61
2, 33840, Note_on_c, 0, 72, 0
2, 33840, Note_on_c, 0, 66, 48
2, 34080, Note_on_c, 0, 66, 0
2, 34080, Note_on_c, 0, 75, 0
2, 34080, Note_on_c, 0, 71, 53
2, 34080, Note_on_c, 0, 76, 66
2, 34320, Note_on_c, 0, 71, 0
2, 34320, Note_on_c, 0, 68, 52
2, 34560, Note_on_c, 0, 68, 0
2, 34560, Note_on_c, 0, 76, 0
2, 34560, Note_on_c, 0, 75, 58
2, 34560, Note_on_c, 0, 78, 72
2, 34800, Note_on_c, 0, 75, 0
2, 34800, Note_on_c, 0, 69, 57
2, 35040, Note_on_c, 0, 69, 0
2, 35040, Note_on_c, 0, 78, 0
2, 35040, Note_on_c, 0, 76, 62
2, 35040, Note_on_c, 0, 79, 78
2, 35280, Note_on_c, 0, 76, 0
2, 35280, Note_on_c, 0, 71, 62
2, 35520, Note_on_c, 0, 71, 0
2, 35520, Note_on_c, 0, 79, 0
2, 35520, Note_on_c, 0, 76, 67
2, 35520, Note_on_c, 0, 80, 84
2, 35760, Note_on_c, 0, 76, 0
2, 35760, Note_on_c, 0, 71, 66
2, 36000, Note_on_c, 0, 71, 0
2, 36000, Note_on_c, 0, 80, 0
2, 36000, Note_on_c, 0, 76, 73
2, 36000, Note_on_c, 0, 81, 91
2, 36240, Note_on_c, 0, 76, 0
2, 36240, Note_on_c, 0, 73, 70
2, 36480, Note_on_c, 0, 73, 0
2, 36480, Note_on_c, 0, 81, 0
2, 36480, Note_on_c, 0, 76, 75
2, 36480, Note_on_c, 0, 85, 93
2, 36720, Note_on_c, 0, 76, 0
2, 36720, Note_on_c, 0, 73, 71
2, 36960, Note_on_c, 0, 73, 0
2, 36960, Note_on_c, 0, 85, 0
2, 36960, Note_on_c, 0, 76, 75
2, 36960, Note_on_c, 0, 83, 93
2, 37200, Note_on_c, 0, 76, 0
2, 37200, Note_on_c, 0, 73, 71
2, 37410, Note_on_c, 0, 83, 0
2, 37440, Note_on_c, 0, 73, 0
2, 37440, Note_on_c, 0, 76, 75
2, 37440, Note_on_c, 0, 83, 93
2, 37680, Note_on_c, 0, 76, 0
2, 37680, Note_on_c, 0, 73, 71
2, 37920, Note_on_c, 0, 73, 0
2, 37920, Note_on_c, 0, 83, 0
2, 37920, Note_on_c, 0, 76, 75
2, 37920, Note_on_c, 0, 82, 93
2, 38160, Note_on_c, 0, 76, 0
2, 38160, Note_on_c, 0, 73, 71
2, 38400, Note_on_c, 0, 73, 0
2, 38400, Note_on_c, 0, 82, 0
2, 38400, Note_on_c, 0, 74, 75
2, 38400, Note_on_c, 0, 79, 93
2, 38640, Note_on_c, 0, 74, 0
2, 38640, Note_on_c, 0, 71, 63
2, 38850, Note_on_c, 0, 79, 0
2, 38880, Note_on_c, 0, 71, 0
2, 38880, Note_on_c, 0, 73, 75
2, 38880, Note_on_c, 0, 79, 93
2, 39120, Note_on_c, 0, 73, 0
2, 39120, Note_on_c, 0, 70, 68
2, 39360, Note_on_c, 0, 70, 0
2, 39360, Note_on_c, 0, 79, 0
2, 39360, Note_on_c, 0, 73, 71
2, 39360, Note_on_c, 0, 78, 90
2, 39600, Note_on_c, 0, 73, 0
2, 39600, Note_on_c, 0, 70, 65
2, 39840, Note_on_c, 0, 70, 0
2, 39840, Note_on_c, 0, 78, 0
2, 39840, Note_on_c, 0, 73, 66
2, 39840, Note_on_c, 0, 76, 83
2, 40080, Note_on_c, 0, 73, 0
2, 40080, Note_on_c, 0, 67, 60
2, 40290, Note_on_c, 0, 76, 0
2, 40320, Note_on_c, 0, 67, 0
2, 40320, Note_on_c, 0, 73, 61
2, 40320, Note_on_c, 0, 76, 77
2, 40560, Note_on_c, 0, 73, 0
2, 40560, Note_on_c, 0, 66, 56
2, 40800, Note_on_c, 0, 66, 0
2, 40800, Note_on_c, 0, 76, 0
2, 40800, Note_on_c, 0, 72, 57
2, 40800, Note_on_c, 0, 75, 71
2, 41040, Note_on_c, 0, 72, 0
2, 41040, Note_on_c, 0, 70, 51
2, 41280, Note_on_c, 0, 70, 0
2, 41280, Note_on_c, 0, 75, 0
2, 41280, Note_on_c, 0, 71, 52
2, 41280, Note_on_c, 0, 74, 66
2, 41520, Note_on_c, 0, 71, 0
2, 41520, Note_on_c, 0, 65, 47
2, 41730, Note_on_c, 0, 74, 0
2, 41760, Note_on_c, 0, 65, 0
2, 41760, Note_on_c, 0, 71, 48
2, 41760, Note_on_c, 0, 74, 60
2, 42000, Note_on_c, 0, 71, 0
2, 42000, Note_on_c, 0, 64, 44
2, 42240, Note_on_c, 0, 64, 0
2, 42240, Note_on_c, 0, 74, 0
2, 42240, Note_on_c, 0, 69, 44
2, 42240, Note_on_c, 0, 73, 55
2, 42480, Note_on_c, 0, 69, 0
2, 42480, Note_on_c, 0, 68, 39
2, 42720, Note_on_c, 0, 68, 0
2, 42720, Note_on_c, 0, 73, 0
2, 42720, Note_on_c, 0, 69, 40
2, 42720, Note_on_c, 0, 72, 50
2, 42960, Note_on_c, 0, 69, 0
2, 42960, Note_on_c, 0, 65, 38
2, 43200, Note_on_c, 0, 65, 0
2, 43200, Note_on_c, 0, 72, 0
2, 43200, Note_on_c, 0, 68, 40
2, 43200, Note_on_c, 0, 71, 50
2, 43440, Note_on_c, 0, 68, 0
2, 43440, Note_on_c, 0, 64, 38
2, 43680, Note_on_c, 0, 64, 0
2, 43680, Note_on_c, 0, 71, 0
2, 43680, Note_on_c, 0, 74, 74
2, 43680, Note_on_c, 0, 71, 62
2, 43920, Note_on_c, 0, 71, 0
2, 43920, Note_on_c, 0, 64, 56
2, 44160, Note_on_c, 0, 64, 0
2, 44160, Note_on_c, 0, 74, 0
2, 44160, Note_on_c, 0, 72, 62
2, 44160, Note_on_c, 0, 69, 62
2, 44400, Note_on_c, 0, 69, 0
2, 44400, Note_on_c, 0, 64, 38
2, 44640, Note_on_c, 0, 64, 0
2, 44640, Note_on_c, 0, 72, 0
2, 44640, Note_on_c, 0, 68, 40
2, 44640, Note_on_c, 0, 71, 50
2, 44880, Note_on_c, 0, 68, 0
2, 44880, Note_on_c, 0, 64, 38
2, 45120, Note_on_c, 0, 64, 0
2, 45120, Note_on_c, 0, 71, 0
2, 45120, Note_on_c, 0, 76, 74
2, 45120, Note_on_c, 0, 71, 62
2, 45360, Note_on_c, 0, 71, 0
2, 45360, Note_on_c, 0, 64, 56
2, 45600, Note_on_c, 0, 64, 0
2, 45600, Note_on_c, 0, 76, 0
2, 45600, Note_on_c, 0, 72, 62
2, 45600, Note_on_c, 0, 69, 62
2, 45840, Note_on_c, 0, 69, 0
2, 45840, Note_on_c, 0, 64, 38
2, 46080, Note_on_c, 0, 64, 0
2, 46080, Note_on_c, 0, 72, 0
2, 46080, Note_on_c, 0, 68, 40
2, 46080, Note_on_c, 0, 71, 50
2, 46320, Note_on_c, 0, 68, 0
2, 46320, Note_on_c, 0, 64, 38
2, 46560, Note_on_c, 0, 64, 0
2, 46560, Note_on_c, 0, 71, 0
2, 46560, Note_on_c, 0, 74, 74
2, 46560, Note_on_c, 0, 71, 62
2, 46800, Note_on_c, 0, 71, 0
2, 46800, Note_on_c, 0, 64, 56
2, 47040, Note_on_c, 0, 64, 0
2, 47040, Note_on_c, 0, 74, 0
2, 47040, Note_on_c, 0, 72, 62
2, 47040, Note_on_c, 0, 69, 62
2, 47280, Note_on_c, 0, 69, 0
2, 47280, Note_on_c, 0, 64, 38
2, 47520, Note_on_c, 0, 64, 0
2, 47520, Note_on_c, 0, 72, 0
2, 47520, Note_on_c, 0, 68, 40
2, 47520, Note_on_c, 0, 71, 50
2, 47760, Note_on_c, 0, 68, 0
2, 47760, Note_on_c, 0, 64, 38
2, 48000, Note_on_c, 0, 64, 0
2, 48000, Note_on_c, 0, 71, 0
2, 48000, Note_on_c, 0, 76, 74
2, 48000, Note_on_c, 0, 71, 62
2, 48240, Note_on_c, 0, 71, 0
2, 48240, Note_on_c, 0, 64, 56
2, 48480, Note_on_c, 0, 64, 0
2, 48480, Note_on_c, 0, 76, 0
2, 48480, Note_on_c, 0, 72, 62
2, 48480, Note_on_c, 0, 69, 62
2, 48720, Note_on_c, 0, 69, 0
2, 48720, Note_on_c, 0, 64, 38
2, 48960, Note_on_c, 0, 64, 0
2, 48960, Note_on_c, 0, 72, 0
2, 48960, Note_on_c, 0, 68, 40
2, 48960, Note_on_c, 0, 71, 50
2, 49200, Note_on_c, 0, 71, 0
2, 49200, Note_on_c, 0, 68, 0
2, 49200, Note_on_c, 0, 64, 38
2, 49440, Note_on_c, 0, 64, 0
2, 49440, Note_on_c, 0, 63, 42
2, 49680, Note_on_c, 0, 63, 0
2, 49680, Note_on_c, 0, 64, 38
2, 49920, Note_on_c, 0, 64, 0
2, 49920, Note_on_c, 0, 68, 42
2, 50160, Note_on_c, 0, 68, 0
2, 50160, Note_on_c, 0, 64, 38
2, 50400, Note_on_c, 0, 64, 0
2, 50400, Note_on_c, 0, 71, 45
2, 50640, Note_on_c, 0, 71, 0
2, 50640, Note_on_c, 0, 68, 45
2, 50880, Note_on_c, 0, 68, 0
2, 50880, Note_on_c, 0, 67, 46
2, 51120, Note_on_c, 0, 67, 0
2, 51120, Note_on_c, 0, 68, 49
2, 51360, Note_on_c, 0, 68, 0
2, 51360, Note_on_c, 0, 71, 50
2, 51600, Note_on_c, 0, 71, 0
2, 51600, Note_on_c, 0, 68, 52
2, 51840, Note_on_c, 0, 68, 0
2, 51840, Note_on_c, 0, 74, 54
2, 52080, Note_on_c, 0, 74, 0
2, 52080, Note_on_c, 0, 71, 54
2, 52320, Note_on_c, 0, 71, 0
2, 52320, Note_on_c, 0, 77, 55
2, 52560, Note_on_c, 0, 77, 0
2, 52560, Note_on_c, 0, 74, 56
2, 52800, Note_on_c, 0, 74, 0
2, 52800, Note_on_c, 0, 80, 59
2, 53040, Note_on_c, 0, 80, 0
2, 53040, Note_on_c, 0, 77, 63
2, 53280, Note_on_c, 0, 77, 0
2, 53280, Note_on_c, 0, 83, 70
2, 53520, Note_on_c, 0, 83, 0
2, 53520, Note_on_c, 0, 80, 62
2, 53760, Note_on_c, 0, 80, 0
2, 53760, Note_on_c, 0, 86, 70
2, 54000, Note_on_c, 0, 86, 0
2, 54000, Note_on_c, 0, 83, 59
2, 54240, Note_on_c, 0, 83, 0
2, 54240, Note_on_c, 0, 81, 65
2, 54480, Note_on_c, 0, 81, 0
2, 54480, Note_on_c, 0, 80, 61
2, 54720, Note_on_c, 0, 80, 0
2, 54720, Note_on_c, 0, 88, 69
2, 54960, Note_on_c, 0, 88, 0
2, 54960, Note_on_c, 0, 86, 63
2, 55200, Note_on_c, 0, 86, 0
2, 55200, Note_on_c, 0, 85, 59
2, 55440, Note_on_c, 0, 85, 0
2, 55440, Note_on_c, 0, 83, 58
2, 55680, Note_on_c, 0, 83, 0
2, 55680, Note_on_c, 0, 81, 56
2, 55920, Note_on_c, 0, 81, 0
2, 55920, Note_on_c, 0, 80, 49
2, 56160, Note_on_c, 0, 80, 0
2, 56160, Note_on_c, 0, 81, 55
2, 56400, Note_on_c, 0, 81, 0
2, 56400, Note_on_c, 0, 78, 53
2, 56640, Note_on_c, 0, 78, 0
2, 56640, Note_on_c, 0, 75, 51
2, 56880, Note_on_c, 0, 75, 0
2, 56880, Note_on_c, 0, 71, 51
2, 57120, Note_on_c, 0, 71, 0
2, 57120, Note_on_c, 0, 69, 48
2, 57360, Note_on_c, 0, 69, 0
2, 57360, Note_on_c, 0, 66, 46
2, 57600, Note_on_c, 0, 66, 0
2, 57600, Note_on_c, 0, 74, 61
2, 57600, Note_on_c, 0, 68, 61
2, 57840, Note_on_c, 0, 68, 0
2, 57840, Note_on_c, 0, 74, 0
2, 57840, Note_on_c, 0, 71, 51
2, 58080, Note_on_c, 0, 71, 0
2, 58080, Note_on_c, 0, 68, 48
2, 58320, Note_on_c, 0, 68, 0
2, 58320, Note_on_c, 0, 64, 47
2, 58560, Note_on_c, 0, 64, 0
2, 58560, Note_on_c, 0, 62, 46
2, 58800, Note_on_c, 0, 62, 0
2, 58800, Note_on_c, 0, 59, 43
2, 59040, Note_on_c, 0, 59, 0
2, 59040, Note_on_c, 0, 67, 49
2, 59280, Note_on_c, 0, 67, 0
2, 59280, Note_on_c, 0, 64, 42
2, 59520, Note_on_c, 0, 64, 0
2, 59520, Note_on_c, 0, 61, 45
2, 59760, Note_on_c, 0, 61, 0
2, 59760, Note_on_c, 0, 57, 46
2, 60000, Note_on_c, 0, 57, 0
2, 60000, Note_on_c, 0, 56, 48
2, 60240, Note_on_c, 0, 56, 0
2, 60240, Note_on_c, 0, 55, 52
2, 60480, Note_on_c, 0, 55, 0
2, 60480, Note_on_c, 0, 54, 54
2, 60720, Note_on_c, 0, 54, 0
2, 60720, Note_on_c, 0, 58, 38
2, 60960, Note_on_c, 0, 58, 0
2, 60960, Note_on_c, 0, 59, 45
2, 61200, Note_on_c, 0, 59, 0
2, 61200, Note_on_c, 0, 54, 38
2, 61440, Note_on_c, 0, 54, 0
2, 61440, Note_on_c, 0, 61, 43
2, 61680, Note_on_c, 0, 61, 0
2, 61680, Note_on_c, 0, 54, 38
2, 61920, Note_on_c, 0, 54, 0
2, 61920, Note_on_c, 0, 62, 50
2, 62160, Note_on_c, 0, 62, 0
2, 62160, Note_on_c, 0, 56, 38
2, 62400, Note_on_c, 0, 56, 0
2, 62400, Note_on_c, 0, 52, 43
2, 62640, Note_on_c, 0, 52, 0
2, 62640, Note_on_c, 0, 56, 38
2, 62880, Note_on_c, 0, 56, 0
2, 62880, Note_on_c, 0, 50, 45
2, 63120, Note_on_c, 0, 50, 0
2, 63120, Note_on_c, 0, 56, 37
2, 63360, Note_on_c, 0, 56, 0
2, 63360, Note_on_c, 0, 49, 45
2, 63600, Note_on_c, 0, 49, 0
2, 63600, Note_on_c, 0, 52, 33
2, 63840, Note_on_c, 0, 52, 0
2, 63840, Note_on_c, 0, 57, 33
2, 64080, Note_on_c, 0, 57, 0
2, 64080, Note_on_c, 0, 59, 33
2, 64320, Note_on_c, 0, 59, 0
2, 64320, Note_on_c, 0, 61, 33
2, 64560, Note_on_c, 0, 61, 0
2, 64560, Note_on_c, 0, 64, 33
2, 64800, Note_on_c, 0, 64, 0
2, 64800, Note_on_c, 0, 61, 36
2, 65040, Note_on_c, 0, 61, 0
2, 65040, Note_on_c, 0, 59, 31
2, 65280, Note_on_c, 0, 59, 0
2, 65280, Note_on_c, 0, 57, 33
2, 65520, Note_on_c, 0, 57, 0
2, 65520, Note_on_c, 0, 52, 33
2, 65760, Note_on_c, 0, 64, 50
2, 66240, Note_on_c, 0, 64, 0
2, 66240, Note_on_c, 0, 52, 0
2, 66240, Note_on_c, 0, 69, 65
2, 66240, Note_on_c, 0, 57, 55
2, 68160, Note_on_c, 0, 57, 0
2, 68160, Note_on_c, 0, 69, 0
2, 68160, Note_on_c, 0, 68, 69
2, 68160, Note_on_c, 0, 56, 58
2, 68640, Note_on_c, 0, 56, 0
2, 68640, Note_on_c, 0, 68, 0
2, 68640, Note_on_c, 0, 57, 62
2, 68640, Note_on_c, 0, 69, 74
2, 69120, Note_on_c, 0, 69, 0
2, 69120, Note_on_c, 0, 57, 0
2, 69120, Note_on_c, 0, 71, 84
2, 69120, Note_on_c, 0, 59, 71
2, 70560, Note_on_c, 0, 59, 0
2, 70560, Note_on_c, 0, 71, 0
2, 70560, Note_on_c, 0, 73, 77
2, 70560, Note_on_c, 0, 61, 65
2, 72000, Note_on_c, 0, 61, 0
2, 72000, Note_on_c, 0, 73, 0
2, 72000, Note_on_c, 0, 76, 89
2, 72000, Note_on_c, 0, 73, 89
2, 72000, Note_on_c, 0, 64, 75
2, 72480, Note_on_c, 0, 64, 0
2, 72480, Note_on_c, 0, 73, 0
2, 72480, Note_on_c, 0, 76, 0
2, 72480, Note_on_c, 0, 74, 76
2, 72480, Note_on_c, 0, 71, 76
2, 72480, Note_on_c, 0, 62, 63
2, 72960, Note_on_c, 0, 62, 0
2, 72960, Note_on_c, 0, 71, 0
2, 72960, Note_on_c, 0, 74, 0
2, 72960, Note_on_c, 0, 73, 70
2, 72960, Note_on_c, 0, 69, 70
2, 72960, Note_on_c, 0, 61, 59
2, 73440, Note_on_c, 0, 61, 0
2, 73440, Note_on_c, 0, 69, 0
2, 73440, Note_on_c, 0, 73, 0
2, 73440, Note_on_c, 0, 71, 82
2, 73440, Note_on_c, 0, 68, 82
2, 73440, Note_on_c, 0, 59, 70
2, 73920, Note_on_c, 0, 59, 0
2, 73920, Note_on_c, 0, 68, 0
2, 73920, Note_on_c, 0, 71, 0
2, 73920, Note_on_c, 0, 73, 75
2, 73920, Note_on_c, 0, 61, 62
2, 74400, Note_on_c, 0, 61, 0
2, 74400, Note_on_c, 0, 73, 0
2, 74400, Note_on_c, 0, 71, 68
2, 74400, Note_on_c, 0, 59, 57
2, 74880, Note_on_c, 0, 59, 0
2, 74880, Note_on_c, 0, 71, 0
2, 74880, Note_on_c, 0, 69, 90
2, 74880, Note_on_c, 0, 57, 77
2, 75840, Note_on_c, 0, 57, 0
2, 75840, Note_on_c, 0, 69, 0
2, 75840, Note_on_c, 0, 81, 86
2, 75840, Note_on_c, 0, 69, 73
2, 76320, Note_on_c, 0, 69, 0
2, 76320, Note_on_c, 0, 81, 0
2, 76320, Note_on_c, 0, 83, 91
2, 76320, Note_on_c, 0, 71, 77
2, 77280, Note_on_c, 0, 71, 0
2, 77280, Note_on_c, 0, 83, 0
2, 77280, Note_on_c, 0, 85, 95
2, 77280, Note_on_c, 0, 73, 80
2, 77760, Note_on_c, 0, 73, 0
2, 77760, Note_on_c, 0, 85, 0
2, 77760, Note_on_c, 0, 76, 82
2, 77760, Note_on_c, 0, 85, 97
2, 77760, Note_on_c, 0, 88, 97
2, 78240, Note_on_c, 0, 88, 0
2, 78240, Note_on_c, 0, 85, 0
2, 78240, Note_on_c, 0, 76, 0
2, 78240, Note_on_c, 0, 74, 75
2, 78240, Note_on_c, 0, 83, 89
2, 78240, Note_on_c, 0, 86, 89
2, 78720, Note_on_c, 0, 86, 0
2, 78720, Note_on_c, 0, 83, 0
2, 78720, Note_on_c, 0, 74, 0
2, 78720, Note_on_c, 0, 73, 69
2, 78720, Note_on_c, 0, 81, 82
2, 78720, Note_on_c, 0, 85, 82
2, 79200, Note_on_c, 0, 85, 0
2, 79200, Note_on_c, 0, 81, 0
2, 79200, Note_on_c, 0, 73, 0
2, 79200, Note_on_c, 0, 71, 80
2, 79200, Note_on_c, 0, 80, 95
2, 79200, Note_on_c, 0, 83, 95
2, 79680, Note_on_c, 0, 83, 0
2, 79680, Note_on_c, 0, 80, 0
2, 79680, Note_on_c, 0, 71, 0
2, 79680, Note_on_c, 0, 73, 75
2, 79680, Note_on_c, 0, 85, 89
2, 80160, Note_on_c, 0, 85, 0
2, 80160, Note_on_c, 0, 73, 0
2, 80160, Note_on_c, 0, 71, 68
2, 80160, Note_on_c, 0, 83, 80
2, 80640, Note_on_c, 0, 83, 0
2, 80640, Note_on_c, 0, 71, 0
2, 80640, Note_on_c, 0, 69, 79
2, 80640, Note_on_c, 0, 81, 93
2, 81120, Note_on_c, 0, 81, 0
2, 81120, Note_on_c, 0, 69, 0
2, 81120, Note_on_c, 0, 76, 80
2, 81120, Note_on_c, 0, 80, 80
2, 81600, Note_on_c, 0, 80, 0
2, 81600, Note_on_c, 0, 76, 0
2, 81600, Note_on_c, 0, 74, 77
2, 81600, Note_on_c, 0, 78, 77
2, 82080, Note_on_c, 0, 78, 0
2, 82080, Note_on_c, 0, 74, 0
2, 82080, Note_on_c, 0, 73, 72
2, 82080, Note_on_c, 0, 76, 72
2, 82560, Note_on_c, 0, 76, 0
2, 82560, Note_on_c, 0, 73, 0
2, 82560, Note_on_c, 0, 72, 70
2, 82560, Note_on_c, 0, 75, 70
2, 83040, Note_on_c, 0, 75, 0
2, 83040, Note_on_c, 0, 72, 0
2, 83040, Note_on_c, 0, 71, 70
2, 83040, Note_on_c, 0, 74, 70
2, 83520, Note_on_c, 0, 74, 0
2, 83520, Note_on_c, 0, 71, 0
2, 83520, Note_on_c, 0, 73, 74
2, 83520, Note_on_c, 0, 69, 65
2, 83760, Note_on_c, 0, 69, 0
2, 83760, Note_on_c, 0, 73, 0
2, 84000, Note_on_c, 0, 74, 57
2, 84000, Note_on_c, 0, 69, 50
2, 84180, Note_on_c, 0, 69, 0
2, 84180, Note_on_c, 0, 74, 0
2, 84480, Note_on_c, 0, 73, 51
2, 84480, Note_on_c, 0, 69, 45
2, 84660, Note_on_c, 0, 69, 0
2, 84660, Note_on_c, 0, 73, 0
2, 84960, Note_on_c, 0, 69, 50
2, 84960, Note_on_c, 0, 66, 50
2, 84960, Note_on_c, 0, 71, 57
2, 85140, Note_on_c, 0, 71, 0
2, 85140, Note_on_c, 0, 66, 0
2, 85140, Note_on_c, 0, 69, 0
2, 85920, Note_on_c, 0, 68, 65
2, 85920, Note_on_c, 0, 76, 74
2, 86160, Note_on_c, 0, 76, 0
2, 86160, Note_on_c, 0, 68, 0
2, 86400, Note_on_c, 0, 69, 67
2, 86400, Note_on_c, 0, 81, 79
2, 86880, Note_on_c, 0, 81, 0
2, 86880, Note_on_c, 0, 69, 0
2, 86880, Note_on_c, 0, 76, 57
2, 86880, Note_on_c, 0, 80, 68
2, 87360, Note_on_c, 0, 80, 0
2, 87360, Note_on_c, 0, 76, 0
2, 87360, Note_on_c, 0, 74, 55
2, 87360, Note_on_c, 0, 78, 65
2, 87840, Note_on_c, 0, 78, 0
2, 87840, Note_on_c, 0, 74, 0
2, 87840, Note_on_c, 0, 73, 51
2, 87840, Note_on_c, 0, 76, 61
2, 88320, Note_on_c, 0, 76, 0
2, 88320, Note_on_c, 0, 73, 0
2, 88320, Note_on_c, 0, 72, 50
2, 88320, Note_on_c, 0, 75, 59
2, 88800, Note_on_c, 0, 75, 0
2, 88800, Note_on_c, 0, 72, 0
2, 88800, Note_on_c, 0, 71, 50
2, 88800, Note_on_c, 0, 74, 59
2, 89280, Note_on_c, 0, 74, 0
2, 89280, Note_on_c, 0, 71, 0
2, 89520, Note_on_c, 0, 73, 47
2, 89760, Note_on_c, 0, 73, 0
2, 89760, Note_on_c, 0, 74, 47
2, 90000, Note_on_c, 0, 74, 0
2, 90000, Note_on_c, 0, 76, 47
2, 90240, Note_on_c, 0, 76, 0
2, 90240, Note_on_c, 0, 78, 51
2, 90480, Note_on_c, 0, 78, 0
2, 90480, Note_on_c, 0, 74, 47
2, 90720, Note_on_c, 0, 74, 0
2, 90720, Note_on_c, 0, 76, 50
2, 90960, Note_on_c, 0, 76, 0
2, 90960, Note_on_c, 0, 78, 47
2, 91200, Note_on_c, 0, 78, 0
2, 91200, Note_on_c, 0, 80, 49
2, 91440, Note_on_c, 0, 80, 0
2, 91440, Note_on_c, 0, 76, 47
2, 91680, Note_on_c, 0, 76, 0
2, 91680, Note_on_c, 0, 78, 50
2, 91920, Note_on_c, 0, 78, 0
2, 91920, Note_on_c, 0, 80, 47
2, 92160, Note_on_c, 0, 80, 0
2, 92160, Note_on_c, 0, 81, 50
2, 92400, Note_on_c, 0, 81, 0
2, 92400, Note_on_c, 0, 85, 51
2, 92640, Note_on_c, 0, 85, 0
2, 92640, Note_on_c, 0, 86, 51
2, 92880, Note_on_c, 0, 86, 0
2, 92880, Note_on_c, 0, 88, 50
2, 93120, Note_on_c, 0, 88, 0
2, 93120, Note_on_c, 0, 90, 54
2, 93360, Note_on_c, 0, 90, 0
2, 93360, Note_on_c, 0, 86, 48
2, 93600, Note_on_c, 0, 86, 0
2, 93600, Note_on_c, 0, 88, 50
2, 93840, Note_on_c, 0, 88, 0
2, 93840, Note_on_c, 0, 90, 47
2, 94080, Note_on_c, 0, 90, 0
2, 94080, Note_on_c, 0, 92, 47
2, 94320, Note_on_c, 0, 92, 0
2, 94320, Note_on_c, 0, 88, 45
2, 94560, Note_on_c, 0, 88, 0
2, 94560, Note_on_c, 0, 90, 47
2, 94800, Note_on_c, 0, 90, 0
2, 94800, Note_on_c, 0, 92, 44
2, 95040, Note_on_c, 0, 92, 0
2, 95040, Note_on_c, 0, 93, 52
2, 95280, Note_on_c, 0, 93, 0
2, 95280, Note_on_c, 0, 88, 52
2, 95520, Note_on_c, 0, 88, 0
2, 95520, Note_on_c, 0, 85, 48
2, 95760, Note_on_c, 0, 85, 0
2, 95760, Note_on_c, 0, 81, 48
2, 96000, Note_on_c, 0, 81, 0
2, 96000, Note_on_c, 0, 76, 48
2, 96240, Note_on_c, 0, 76, 0
2, 96240, Note_on_c, 0, 73, 48
2, 96480, Note_on_c, 0, 73, 0
2, 96480, Note_on_c, 0, 69, 46
2, 96720, Note_on_c, 0, 69, 0
2, 96720, Note_on_c, 0, 64, 45
2, 96960, Note_on_c, 0, 64, 0
2, 96960, Note_on_c, 0, 61, 43
2, 97200, Note_on_c, 0, 61, 0
2, 97200, Note_on_c, 0, 57, 42
2, 97440, Note_on_c, 0, 57, 0
2, 97440, Note_on_c, 0, 61, 50
2, 97680, Note_on_c, 0, 57, 40
2, 97896, Note_on_c, 0, 61, 0
2, 97920, Note_on_c, 0, 57, 0
2, 97920, Note_on_c, 0, 61, 50
2, 98160, Note_on_c, 0, 56, 37
2, 98400, Note_on_c, 0, 56, 0
2, 98400, Note_on_c, 0, 57, 42
2, 98640, Note_on_c, 0, 57, 0
2, 98640, Note_on_c, 0, 54, 34
2, 98880, Note_on_c, 0, 54, 0
2, 98880, Note_on_c, 0, 61, 0
2, 98880, Note_on_c, 0, 66, 54
2, 99120, Note_on_c, 0, 61, 39
2, 99336, Note_on_c, 0, 66, 0
2, 99360, Note_on_c, 0, 61, 0
2, 99360, Note_on_c, 0, 66, 55
2, 99600, Note_on_c, 0, 60, 45
2, 99840, Note_on_c, 0, 60, 0
2, 99840, Note_on_c, 0, 61, 55
2, 100080, Note_on_c, 0, 61, 0
2, 100080, Note_on_c, 0, 57, 46
2, 100320, Note_on_c, 0, 57, 0
2, 100320, Note_on_c, 0, 66, 0
2, 100320, Note_on_c, 0, 69, 66
2, 100560, Note_on_c, 0, 66, 55
2, 100800, Note_on_c, 0, 66, 0
2, 100800, Note_on_c, 0, 69, 0
2, 100800, Note_on_c, 0, 74, 73
2, 101040, Note_on_c, 0, 68, 56
2, 101280, Note_on_c, 0, 68, 0
2, 101280, Note_on_c, 0, 69, 61
2, 101520, Note_on_c, 0, 69, 0
2, 101520, Note_on_c, 0, 66, 56
2, 101760, Note_on_c, 0, 66, 0
2, 101760, Note_on_c, 0, 74, 0
2, 101760, Note_on_c, 0, 73, 68
2, 102000, Note_on_c, 0, 69, 49
2, 102240, Note_on_c, 0, 69, 0
2, 102240, Note_on_c, 0, 73, 0
2, 102240, Note_on_c, 0, 72, 68
2, 102480, Note_on_c, 0, 68, 50
2, 102720, Note_on_c, 0, 68, 0
2, 102720, Note_on_c, 0, 69, 55
2, 102960, Note_on_c, 0, 69, 0
2, 102960, Note_on_c, 0, 66, 45
2, 103190, Note_on_c, 0, 72, 0
2, 103200, Note_on_c, 0, 66, 0
2, 103200, Note_on_c, 0, 72, 51
2, 103440, Note_on_c, 0, 69, 33
2, 103680, Note_on_c, 0, 69, 0
2, 103680, Note_on_c, 0, 72, 0
2, 103680, Note_on_c, 0, 73, 56
2, 103920, Note_on_c, 0, 68, 43
2, 104160, Note_on_c, 0, 68, 0
2, 104160, Note_on_c, 0, 61, 46
2, 104400, Note_on_c, 0, 61, 0
2, 104400, Note_on_c, 0, 63, 42
2, 104640, Note_on_c, 0, 63, 0
2, 104640, Note_on_c, 0, 73, 0
2, 104640, Note_on_c, 0, 65, 40
2, 104640, Note_on_c, 0, 71, 50
2, 104880, Note_on_c, 0, 65, 0
2, 104880, Note_on_c, 0, 61, 38
2, 105050, Note_on_c, 0, 71, 0
2, 105060, Note_on_c, 0, 71, 43
2, 105120, Note_on_c, 0, 71, 0
2, 105120, Note_on_c, 0, 61, 0
2, 105120, Note_on_c, 0, 66, 44
2, 105120, Note_on_c, 0, 69, 55
2, 105360, Note_on_c, 0, 69, 0
2, 105360, Note_on_c, 0, 66, 0
2, 105360, Note_on_c, 0, 61, 46
2, 105600, Note_on_c, 0, 61, 0
2, 105600, Note_on_c, 0, 65, 50
2, 105600, Note_on_c, 0, 68, 63
2, 105840, Note_on_c, 0, 68, 0
2, 105840, Note_on_c, 0, 65, 0
2, 105840, Note_on_c, 0, 61, 54
2, 106080, Note_on_c, 0, 61, 0
2, 106080, Note_on_c, 0, 66, 55
2, 106080, Note_on_c, 0, 69, 69
2, 106320, Note_on_c, 0, 69, 0
2, 106320, Note_on_c, 0, 66, 0
2, 106320, Note_on_c, 0, 61, 57
2, 106560, Note_on_c, 0, 61, 0
2, 106560, Note_on_c, 0, 66, 55
2, 106560, Note_on_c, 0, 69, 69
2, 106560, Note_on_c, 0, 73, 76
2, 106800, Note_on_c, 0, 66, 0
2, 106800, Note_on_c, 0, 62, 54
2, 107040, Note_on_c, 0, 62, 0
2, 107040, Note_on_c, 0, 73, 0
2, 107040, Note_on_c, 0, 69, 0
2, 107040, Note_on_c, 0, 68, 48
2, 107040, Note_on_c, 0, 71, 61
2, 107280, Note_on_c, 0, 68, 0
2, 107280, Note_on_c, 0, 62, 49
2, 107520, Note_on_c, 0, 62, 0
2, 107520, Note_on_c, 0, 71, 0
2, 107520, Note_on_c, 0, 66, 40
2, 107520, Note_on_c, 0, 69, 50
2, 107760, Note_on_c, 0, 69, 0
2, 107760, Note_on_c, 0, 66, 0
2, 107760, Note_on_c, 0, 62, 41
2, 108000, Note_on_c, 0, 62, 0
2, 108000, Note_on_c, 0, 66, 44
2, 108000, Note_on_c, 0, 69, 56
2, 108240, Note_on_c, 0, 66, 0
2, 108240, Note_on_c, 0, 61, 45
2, 108480, Note_on_c, 0, 61, 0
2, 108480, Note_on_c, 0, 69, 0
2, 108480, Note_on_c, 0, 65, 40
2, 108480, Note_on_c, 0, 68, 50
2, 108720, Note_on_c, 0, 65, 0
2, 108720, Note_on_c, 0, 59, 43
2, 108960, Note_on_c, 0, 59, 0
2, 108960, Note_on_c, 0, 68, 0
2, 108960, Note_on_c, 0, 61, 50
2, 109200, Note_on_c, 0, 57, 40
2, 109416, Note_on_c, 0, 61, 0
2, 109440, Note_on_c, 0, 57, 0
2, 109440, Note_on_c, 0, 61, 56
2, 109680, Note_on_c, 0, 56, 37
2, 109920, Note_on_c, 0, 56, 0
2, 109920, Note_on_c, 0, 57, 42
2, 110160, Note_on_c, 0, 57, 0
2, 110160, Note_on_c, 0, 54, 34
2, 110400, Note_on_c, 0, 54, 0
2, 110400, Note_on_c, 0, 61, 0
2, 110400, Note_on_c, 0, 66, 54
2, 110640, Note_on_c, 0, 61, 39
2, 110856, Note_on_c, 0, 66, 0
2, 110880, Note_on_c, 0, 61, 0
2, 110880, Note_on_c, 0, 66, 55
2, 111120, Note_on_c, 0, 60, 45
2, 111360, Note_on_c, 0, 60, 0
2, 111360, Note_on_c, 0, 61, 55
2, 111600, Note_on_c, 0, 61, 0
2, 111600, Note_on_c, 0, 57, 46
2, 111840, Note_on_c, 0, 57, 0
2, 111840, Note_on_c, 0, 66, 0
2, 111840, Note_on_c, 0, 69, 66
2, 112080, Note_on_c, 0, 66, 55
2, 112320, Note_on_c, 0, 66, 0
2, 112320, Note_on_c, 0, 69, 0
2, 112320, Note_on_c, 0, 74, 73
2, 112560, Note_on_c, 0, 68, 56
2, 112800, Note_on_c, 0, 68, 0
2, 112800, Note_on_c, 0, 69, 61
2, 113040, Note_on_c, 0, 69, 0
2, 113040, Note_on_c, 0, 66, 56
2, 113280, Note_on_c, 0, 66, 0
2, 113280, Note_on_c, 0, 74, 0
2, 113280, Note_on_c, 0, 73, 68
2, 113520, Note_on_c, 0, 69, 49
2, 113760, Note_on_c, 0, 69, 0
2, 113760, Note_on_c, 0, 73, 0
2, 113760, Note_on_c, 0, 72, 68
2, 114000, Note_on_c, 0, 68, 50
2, 114240, Note_on_c, 0, 68, 0
2, 114240, Note_on_c, 0, 69, 55
2, 114480, Note_on_c, 0, 69, 0
2, 114480, Note_on_c, 0, 66, 45
2, 114710, Note_on_c, 0, 72, 0
2, 114720, Note_on_c, 0, 66, 0
2, 114720, Note_on_c, 0, 72, 51
2, 114960, Note_on_c, 0, 69, 33
2, 115200, Note_on_c, 0, 69, 0
2, 115200, Note_on_c, 0, 72, 0
2, 115200, Note_on_c, 0, 73, 56
2, 115440, Note_on_c, 0, 68, 43
2, 115680, Note_on_c, 0, 68, 0
2, 115680, Note_on_c, 0, 61, 46
2, 115920, Note_on_c, 0, 61, 0
2, 115920, Note_on_c, 0, 62, 42
2, 116160, Note_on_c, 0, 62, 0
2, 116160, Note_on_c, 0, 73, 0
2, 116160, Note_on_c, 0, 64, 40
2, 116160, Note_on_c, 0, 70, 50
2, 116400, Note_on_c, 0, 70, 0
2, 116400, Note_on_c, 0, 64, 0
2, 116400, Note_on_c, 0, 61, 38
2, 116640, Note_on_c, 0, 61, 0
2, 116640, Note_on_c, 0, 62, 46
2, 116640, Note_on_c, 0, 71, 56
2, 116880, Note_on_c, 0, 62, 0
2, 116880, Note_on_c, 0, 66, 43
2, 117120, Note_on_c, 0, 66, 0
2, 117120, Note_on_c, 0, 71, 0
2, 117120, Note_on_c, 0, 64, 46
2, 117360, Note_on_c, 0, 64, 0
2, 117360, Note_on_c, 0, 62, 42
2, 117600, Note_on_c, 0, 62, 0
2, 117600, Note_on_c, 0, 61, 40
2, 117600, Note_on_c, 0, 70, 50
2, 117840, Note_on_c, 0, 61, 0
2, 117840, Note_on_c, 0, 64, 38
2, 118080, Note_on_c, 0, 64, 0
2, 118080, Note_on_c, 0, 70, 0
2, 118080, Note_on_c, 0, 62, 46
2, 118080, Note_on_c, 0, 71, 56
2, 118320, Note_on_c, 0, 62, 0
2, 118320, Note_on_c, 0, 66, 43
2, 118560, Note_on_c, 0, 66, 0
2, 118560, Note_on_c, 0, 71, 0
2, 118560, Note_on_c, 0, 69, 50
2, 118560, Note_on_c, 0, 61, 46
2, 118800, Note_on_c, 0, 61, 0
2, 118800, Note_on_c, 0, 69, 0
2, 118800, Note_on_c, 0, 64, 42
2, 119040, Note_on_c, 0, 64, 0
2, 119040, Note_on_c, 0, 59, 40
2, 119040, Note_on_c, 0, 68, 50
2, 119280, Note_on_c, 0, 68, 0
2, 119280, Note_on_c, 0, 59, 0
2, 119280, Note_on_c, 0, 62, 38
2, 119520, Note_on_c, 0, 62, 0
2, 119520, Note_on_c, 0, 57, 46
2, 119520, Note_on_c, 0, 66, 56
2, 119760, Note_on_c, 0, 57, 0
2, 119760, Note_on_c, 0, 61, 43
2, 120000, Note_on_c, 0, 61, 0
2, 120000, Note_on_c, 0, 66, 0
2, 120000, Note_on_c, 0, 65, 56
2, 120000, Note_on_c, 0, 56, 46
2, 120240, Note_on_c, 0, 56, 0
2, 120240, Note_on_c, 0, 59, 42
2, 120480, Note_on_c, 0, 59, 0
2, 120480, Note_on_c, 0, 65, 0
2, 120480, Note_on_c, 0, 61, 40
2, 120480, Note_on_c, 0, 70, 50
2, 120720, Note_on_c, 0, 61, 0
2, 120720, Note_on_c, 0, 64, 38
2, 120960, Note_on_c, 0, 64, 0
2, 120960, Note_on_c, 0, 70, 0
2, 120960, Note_on_c, 0, 62, 43
2, 120960, Note_on_c, 0, 71, 56
2, 121200, Note_on_c, 0, 62, 0
2, 121200, Note_on_c, 0, 66, 43
2, 121440, Note_on_c, 0, 66, 0
2, 121440, Note_on_c, 0, 71, 0
2, 121440, Note_on_c, 0, 64, 46
2, 121680, Note_on_c, 0, 64, 0
2, 121680, Note_on_c, 0, 62, 42
2, 121920, Note_on_c, 0, 62, 0
2, 121920, Note_on_c, 0, 61, 40
2, 121920, Note_on_c, 0, 70, 50
2, 122160, Note_on_c, 0, 61, 0
2, 122160, Note_on_c, 0, 64, 38
2, 122400, Note_on_c, 0, 64, 0
2, 122400, Note_on_c, 0, 70, 0
2, 122400, Note_on_c, 0, 62, 46
2, 122400, Note_on_c, 0, 71, 56
2, 122640, Note_on_c, 0, 62, 0
2, 122640, Note_on_c, 0, 66, 43
2, 122880, Note_on_c, 0, 66, 0
2, 122880, Note_on_c, 0, 71, 0
2, 122880, Note_on_c, 0, 64, 46
2, 123120, Note_on_c, 0, 64, 0
2, 123120, Note_on_c, 0, 62, 42
2, 123360, Note_on_c, 0, 62, 0
2, 123360, Note_on_c, 0, 61, 40
2, 123360, Note_on_c, 0, 70, 50
2, 123600, Note_on_c, 0, 61, 0
2, 123600, Note_on_c, 0, 64, 38
2, 123840, Note_on_c, 0, 64, 0
2, 123840, Note_on_c, 0, 70, 0
2, 123840, Note_on_c, 0, 62, 46
2, 123840, Note_on_c, 0, 71, 56
2, 124080, Note_on_c, 0, 62, 0
2, 124080, Note_on_c, 0, 66, 43
2, 124320, Note_on_c, 0, 66, 0
2, 124320, Note_on_c, 0, 71, 0
2, 124320, Note_on_c, 0, 69, 50
2, 124320, Note_on_c, 0, 61, 46
2, 124560, Note_on_c, 0, 61, 0
2, 124560, Note_on_c, 0, 69, 0
2, 124560, Note_on_c, 0, 64, 42
2, 124800, Note_on_c, 0, 64, 0
2, 124800, Note_on_c, 0, 59, 40
2, 124800, Note_on_c, 0, 68, 50
2, 125040, Note_on_c, 0, 68, 0
2, 125040, Note_on_c, 0, 59, 0
2, 125040, Note_on_c, 0, 62, 38
2, 125280, Note_on_c, 0, 62, 0
2, 125280, Note_on_c, 0, 57, 46
2, 125280, Note_on_c, 0, 66, 56
2, 125520, Note_on_c, 0, 57, 0
2, 125520, Note_on_c, 0, 61, 43
2, 125760, Note_on_c, 0, 61, 0
2, 125760, Note_on_c, 0, 66, 0
2, 125760, Note_on_c, 0, 65, 56
2, 125760, Note_on_c, 0, 56, 46
2, 126000, Note_on_c, 0, 56, 0
2, 126000, Note_on_c, 0, 59, 42
2, 126240, Note_on_c, 0, 59, 0
2, 126240, Note_on_c, 0, 65, 0
2, 126240, Note_on_c, 0, 61, 40
2, 126240, Note_on_c, 0, 70, 50
2, 126480, Note_on_c, 0, 61, 0
2, 126480, Note_on_c, 0, 64, 38
2, 126720, Note_on_c, 0, 64, 0
2, 126720, Note_on_c, 0, 70, 0
2, 126720, Note_on_c, 0, 62, 43
2, 126720, Note_on_c, 0, 71, 56
2, 126960, Note_on_c, 0, 62, 0
2, 126960, Note_on_c, 0, 66, 43
2, 127200, Note_on_c, 0, 66, 0
2, 127200, Note_on_c, 0, 71, 0
2, 127200, Note_on_c, 0, 64, 46
2, 127440, Note_on_c, 0, 64, 0
2, 127440, Note_on_c, 0, 62, 42
2, 127680, Note_on_c, 0, 62, 0
2, 127680, Note_on_c, 0, 70, 40
2, 127680, Note_on_c, 0, 73, 50
2, 127920, Note_on_c, 0, 70, 0
2, 127920, Note_on_c, 0, 66, 38
2, 128160, Note_on_c, 0, 66, 0
2, 128160, Note_on_c, 0, 73, 0
2, 128160, Note_on_c, 0, 71, 45
2, 128160, Note_on_c, 0, 74, 56
2, 128400, Note_on_c, 0, 71, 0
2, 128400, Note_on_c, 0, 66, 43
2, 128640, Note_on_c, 0, 66, 0
2, 128640, Note_on_c, 0, 74, 0
2, 128640, Note_on_c, 0, 72, 48
2, 128640, Note_on_c, 0, 75, 61
2, 128880, Note_on_c, 0, 72, 0
2, 128880, Note_on_c, 0, 66, 48
2, 129120, Note_on_c, 0, 66, 0
2, 129120, Note_on_c, 0, 75, 0
2, 129120, Note_on_c, 0, 71, 53
2, 129120, Note_on_c, 0, 76, 66
2, 129360, Note_on_c, 0, 71, 0
2, 129360, Note_on_c, 0, 68, 52
2, 129600, Note_on_c, 0, 68, 0
2, 129600, Note_on_c, 0, 76, 0
2, 129600, Note_on_c, 0, 75, 58
2, 129600, Note_on_c, 0, 78, 72
2, 129840, Note_on_c, 0, 75, 0
2, 129840, Note_on_c, 0, 69, 57
2, 130080, Note_on_c, 0, 69, 0
2, 130080, Note_on_c, 0, 78, 0
2, 130080, Note_on_c, 0, 76, 62
2, 130080, Note_on_c, 0, 79, 78
2, 130320, Note_on_c, 0, 76, 0
2, 130320, Note_on_c, 0, 71, 62
2, 130560, Note_on_c, 0, 71, 0
2, 130560, Note_on_c, 0, 79, 0
2, 130560, Note_on_c, 0, 76, 67
2, 130560, Note_on_c, 0, 80, 84
2, 130800, Note_on_c, 0, 76, 0
2, 130800, Note_on_c, 0, 71, 66
2, 131040, Note_on_c, 0, 71, 0
2, 131040, Note_on_c, 0, 80, 0
2, 131040, Note_on_c, 0, 76, 73
2, 131040, Note_on_c, 0, 81, 91
2, 131280, Note_on_c, 0, 76, 0
2, 131280, Note_on_c, 0, 73, 70
2, 131520, Note_on_c, 0, 73, 0
2, 131520, Note_on_c, 0, 81, 0
2, 131520, Note_on_c, 0, 76, 75
2, 131520, Note_on_c, 0, 85, 93
2, 131760, Note_on_c, 0, 76, 0
2, 131760, Note_on_c, 0, 73, 71
2, 132000, Note_on_c, 0, 73, 0
2, 132000, Note_on_c, 0, 85, 0
2, 132000, Note_on_c, 0, 76, 75
2, 132000, Note_on_c, 0, 83, 93
2, 132240, Note_on_c, 0, 76, 0
2, 132240, Note_on_c, 0, 73, 71
2, 132450, Note_on_c, 0, 83, 0
2, 132480, Note_on_c, 0, 73, 0
2, 132480, Note_on_c, 0, 76, 75
2, 132480, Note_on_c, 0, 83, 93
2, 132720, Note_on_c, 0, 76, 0
2, 132720, Note_on_c, 0, 73, 71
2, 132960, Note_on_c, 0, 73, 0
2, 132960, Note_on_c, 0, 83, 0
2, 132960, Note_on_c, 0, 76, 75
2, 132960, Note_on_c, 0, 82, 93
2, 133200, Note_on_c, 0, 76, 0
2, 133200, Note_on_c, 0, 73, 71
2, 133440, Note_on_c, 0, 73, 0
2, 133440, Note_on_c, 0, 82, 0
2, 133440, Note_on_c, 0, 74, 75
2, 133440, Note_on_c, 0, 79, 93
2, 133680, Note_on_c, 0, 74, 0
2, 133680, Note_on_c, 0, 71, 63
2, 133890, Note_on_c, 0, 79, 0
2, 133920, Note_on_c, 0, 71, 0
2, 133920, Note_on_c, 0, 73, 75
2, 133920, Note_on_c, 0, 79, 93
2, 134160, Note_on_c, 0, 73, 0
2, 134160, Note_on_c, 0, 70, 68
2, 134400, Note_on_c, 0, 70, 0
2, 134400, Note_on_c, 0, 79, 0
2, 134400, Note_on_c, 0, 73, 71
2, 134400, Note_on_c, 0, 78, 90
2, 134640, Note_on_c, 0, 73, 0
2, 134640, Note_on_c, 0, 70, 65
2, 134880, Note_on_c, 0, 70, 0
2, 134880, Note_on_c, 0, 78, 0
2, 134880, Note_on_c, 0, 73, 66
2, 134880, Note_on_c, 0, 76, 83
2, 135120, Note_on_c, 0, 73, 0
2, 135120, Note_on_c, 0, 67, 60
2, 135330, Note_on_c, 0, 76, 0
2, 135360, Note_on_c, 0, 67, 0
2, 135360, Note_on_c, 0, 73, 61
2, 135360, Note_on_c, 0, 76, 77
2, 135600, Note_on_c, 0, 73, 0
2, 135600, Note_on_c, 0, 66, 56
2, 135840, Note_on_c, 0, 66, 0
2, 135840, Note_on_c, 0, 76, 0
2, 135840, Note_on_c, 0, 72, 57
2, 135840, Note_on_c, 0, 75, 71
2, 136080, Note_on_c, 0, 72, 0
2, 136080, Note_on_c, 0, 70, 51
2, 136320, Note_on_c, 0, 70, 0
2, 136320, Note_on_c, 0, 75, 0
2, 136320, Note_on_c, 0, 71, 52
2, 136320, Note_on_c, 0, 74, 66
2, 136560, Note_on_c, 0, 71, 0
2, 136560, Note_on_c, 0, 65, 47
2, 136770, Note_on_c, 0, 74, 0
2, 136800, Note_on_c, 0, 65, 0
2, 136800, Note_on_c, 0, 71, 48
2, 136800, Note_on_c, 0, 74, 60
2, 137040, Note_on_c, 0, 71, 0
2, 137040, Note_on_c, 0, 64, 44
2, 137280, Note_on_c, 0, 64, 0
2, 137280, Note_on_c, 0, 74, 0
2, 137280, Note_on_c, 0, 69, 44
2, 137280, Note_on_c, 0, 73, 55
2, 137520, Note_on_c, 0, 69, 0
2, 137520, Note_on_c, 0, 68, 39
2, 137760, Note_on_c, 0, 68, 0
2, 137760, Note_on_c, 0, 73, 0
2, 137760, Note_on_c, 0, 69, 40
2, 137760, Note_on_c, 0, 72, 50
2, 138000, Note_on_c, 0, 69, 0
2, 138000, Note_on_c, 0, 65, 38
2, 138240, Note_on_c, 0, 65, 0
2, 138240, Note_on_c, 0, 72, 0
2, 138240, Note_on_c, 0, 68, 40
2, 138240, Note_on_c, 0, 71, 50
2, 138480, Note_on_c, 0, 68, 0
2, 138480, Note_on_c, 0, 64, 38
2, 138720, Note_on_c, 0, 64, 0
2, 138720, Note_on_c, 0, 71, 0
2, 138720, Note_on_c, 0, 74, 74
2, 138720, Note_on_c, 0, 71, 62
2, 138960, Note_on_c, 0, 71, 0
2, 138960, Note_on_c, 0, 64, 56
2, 139200, Note_on_c, 0, 64, 0
2, 139200, Note_on_c, 0, 74, 0
2, 139200, Note_on_c, 0, 72, 62
2, 139200, Note_on_c, 0, 69, 62
2, 139440, Note_on_c, 0, 69, 0
2, 139440, Note_on_c, 0, 64, 38
2, 139680, Note_on_c, 0, 64, 0
2, 139680, Note_on_c, 0, 72, 0
2, 139680, Note_on_c, 0, 68, 40
2, 139680, Note_on_c, 0, 71, 50
2, 139920, Note_on_c, 0, 68, 0
2, 139920, Note_on_c, 0, 64, 38
2, 140160, Note_on_c, 0, 64, 0
2, 140160, Note_on_c, 0, 71, 0
2, 140160, Note_on_c, 0, 76, 74
2, 140160, Note_on_c, 0, 71, 62
2, 140400, Note_on_c, 0, 71, 0
2, 140400, Note_on_c, 0, 64, 56
2, 140640, Note_on_c, 0, 64, 0
2, 140640, Note_on_c, 0, 76, 0
2, 140640, Note_on_c, 0, 72, 62
2, 140640, Note_on_c, 0, 69, 62
2, 140880, Note_on_c, 0, 69, 0
2, 140880, Note_on_c, 0, 64, 38
2, 141120, Note_on_c, 0, 64, 0
2, 141120, Note_on_c, 0, 72, 0
2, 141120, Note_on_c, 0, 68, 40
2, 141120, Note_on_c, 0, 71, 50
2, 141360, Note_on_c, 0, 68, 0
2, 141360, Note_on_c, 0, 64, 38
2, 141600, Note_on_c, 0, 64, 0
2, 141600, Note_on_c, 0, 71, 0
2, 141600, Note_on_c, 0, 74, 74
2, 141600, Note_on_c, 0, 71, 62
2, 141840, Note_on_c, 0, 71, 0
2, 141840, Note_on_c, 0, 64, 56
2, 142080, Note_on_c, 0, 64, 0
2, 142080, Note_on_c, 0, 74, 0
2, 142080, Note_on_c, 0, 72, 62
2, 142080, Note_on_c, 0, 69, 62
2, 142320, Note_on_c, 0, 69, 0
2, 142320, Note_on_c, 0, 64, 38
2, 142560, Note_on_c, 0, 64, 0
2, 142560, Note_on_c, 0, 72, 0
2, 142560, Note_on_c, 0, 68, 40
2, 142560, Note_on_c, 0, 71, 50
2, 142800, Note_on_c, 0, 68, 0
2, 142800, Note_on_c, 0, 64, 38
2, 143040, Note_on_c, 0, 64, 0
2, 143040, Note_on_c, 0, 71, 0
2, 143040, Note_on_c, 0, 76, 74
2, 143040, Note_on_c, 0, 71, 62
2, 143280, Note_on_c, 0, 71, 0
2, 143280, Note_on_c, 0, 64, 56
2, 143520, Note_on_c, 0, 64, 0
2, 143520, Note_on_c, 0, 76, 0
2, 143520, Note_on_c, 0, 72, 62
2, 143520, Note_on_c, 0, 69, 62
2, 143760, Note_on_c, 0, 69, 0
2, 143760, Note_on_c, 0, 64, 38
2, 144000, Note_on_c, 0, 64, 0
2, 144000, Note_on_c, 0, 72, 0
2, 144000, Note_on_c, 0, 68, 40
2, 144000, Note_on_c, 0, 71, 50
2, 144240, Note_on_c, 0, 71, 0
2, 144240, Note_on_c, 0, 68, 0
2, 144240, Note_on_c, 0, 64, 38
2, 144480, Note_on_c, 0, 64, 0
2, 144480, Note_on_c, 0, 63, 42
2, 144720, Note_on_c, 0, 63, 0
2, 144720, Note_on_c, 0, 64, 38
2, 144960, Note_on_c, 0, 64, 0
2, 144960, Note_on_c, 0, 68, 42
2, 145200, Note_on_c, 0, 68, 0
2, 145200, Note_on_c, 0, 64, 38
2, 145440, Note_on_c, 0, 64, 0
2, 145440, Note_on_c, 0, 71, 45
2, 145680, Note_on_c, 0, 71, 0
2, 145680, Note_on_c, 0, 68, 45
2, 145920, Note_on_c, 0, 68, 0
2, 145920, Note_on_c, 0, 67, 46
2, 146160, Note_on_c, 0, 67, 0
2, 146160, Note_on_c, 0, 68, 49
2, 146400, Note_on_c, 0, 68, 0
2, 146400, Note_on_c, 0, 71, 50
2, 146640, Note_on_c, 0, 71, 0
2, 146640, Note_on_c, 0, 68, 52
2, 146880, Note_on_c, 0, 68, 0
2, 146880, Note_on_c, 0, 74, 54
2, 147120, Note_on_c, 0, 74, 0
2, 147120, Note_on_c, 0, 71, 54
2, 147360, Note_on_c, 0, 71, 0
2, 147360, Note_on_c, 0, 77, 55
2, 147600, Note_on_c, 0, 77, 0
2, 147600, Note_on_c, 0, 74, 56
2, 147840, Note_on_c, 0, 74, 0
2, 147840, Note_on_c, 0, 80, 59
2, 148080, Note_on_c, 0, 80, 0
2, 148080, Note_on_c, 0, 77, 63
2, 148320, Note_on_c, 0, 77, 0
2, 148320, Note_on_c, 0, 83, 70
2, 148560, Note_on_c, 0, 83, 0
2, 148560, Note_on_c, 0, 80, 62
2, 148800, Note_on_c, 0, 80, 0
2, 148800, Note_on_c, 0, 86, 70
2, 149040, Note_on_c, 0, 86, 0
2, 149040, Note_on_c, 0, 83, 59
2, 149280, Note_on_c, 0, 83, 0
2, 149280, Note_on_c, 0, 81, 65
2, 149520, Note_on_c, 0, 81, 0
2, 149520, Note_on_c, 0, 80, 61
2, 149760, Note_on_c, 0, 80, 0
2, 149760, Note_on_c, 0, 88, 69
2, 150000, Note_on_c, 0, 88, 0
2, 150000, Note_on_c, 0, 86, 63
2, 150240, Note_on_c, 0, 86, 0
2, 150240, Note_on_c, 0, 85, 59
2, 150480, Note_on_c, 0, 85, 0
2, 150480, Note_on_c, 0, 83, 58
2, 150720, Note_on_c, 0, 83, 0
2, 150720, Note_on_c, 0, 81, 56
2, 150960, Note_on_c, 0, 81, 0
2, 150960, Note_on_c, 0, 80, 49
2, 151200, Note_on_c, 0, 80, 0
2, 151200, Note_on_c, 0, 81, 55
2, 151440, Note_on_c, 0, 81, 0
2, 151440, Note_on_c, 0, 78, 53
2, 151680, Note_on_c, 0, 78, 0
2, 151680, Note_on_c, 0, 75, 51
2, 151920, Note_on_c, 0, 75, 0
2, 151920, Note_on_c, 0, 71, 51
2, 152160, Note_on_c, 0, 71, 0
2, 152160, Note_on_c, 0, 69, 48
2, 152400, Note_on_c, 0, 69, 0
2, 152400, Note_on_c, 0, 66, 46
2, 152640, Note_on_c, 0, 66, 0
2, 152640, Note_on_c, 0, 74, 61
2, 152640, Note_on_c, 0, 68, 61
2, 152880, Note_on_c, 0, 68, 0
2, 152880, Note_on_c, 0, 74, 0
2, 152880, Note_on_c, 0, 71, 51
2, 153120, Note_on_c, 0, 71, 0
2, 153120, Note_on_c, 0, 68, 48
2, 153360, Note_on_c, 0, 68, 0
2, 153360, Note_on_c, 0, 64, 47
2, 153600, Note_on_c, 0, 64, 0
2, 153600, Note_on_c, 0, 62, 46
2, 153840, Note_on_c, 0, 62, 0
2, 153840, Note_on_c, 0, 59, 43
2, 154080, Note_on_c, 0, 59, 0
2, 154080, Note_on_c, 0, 67, 49
2, 154320, Note_on_c, 0, 67, 0
2, 154320, Note_on_c, 0, 64, 42
2, 154560, Note_on_c, 0, 64, 0
2, 154560, Note_on_c, 0, 61, 45
2, 154800, Note_on_c, 0, 61, 0
2, 154800, Note_on_c, 0, 57, 46
2, 155040, Note_on_c, 0, 57, 0
2, 155040, Note_on_c, 0, 56, 48
2, 155280, Note_on_c, 0, 56, 0
2, 155280, Note_on_c, 0, 55, 52
2, 155520, Note_on_c, 0, 55, 0
2, 155520, Note_on_c, 0, 54, 54
2, 155760, Note_on_c, 0, 54, 0
2, 155760, Note_on_c, 0, 58, 38
2, 156000, Note_on_c, 0, 58, 0
2, 156000, Note_on_c, 0, 59, 45
2, 156240, Note_on_c, 0, 59, 0
2, 156240, Note_on_c, 0, 54, 38
2, 156480, Note_on_c, 0, 54, 0
2, 156480, Note_on_c, 0, 61, 43
2, 156720, Note_on_c, 0, 61, 0
2, 156720, Note_on_c, 0, 54, 38
2, 156960, Note_on_c, 0, 54, 0
2, 156960, Note_on_c, 0, 62, 50
2, 157200, Note_on_c, 0, 62, 0
2, 157200, Note_on_c, 0, 56, 38
2, 157440, Note_on_c, 0, 56, 0
2, 157440, Note_on_c, 0, 52, 43
2, 157680, Note_on_c, 0, 52, 0
2, 157680, Note_on_c, 0, 56, 38
2, 157920, Note_on_c, 0, 56, 0
2, 157920, Note_on_c, 0, 50, 45
2, 158160, Note_on_c, 0, 50, 0
2, 158160, Note_on_c, 0, 56, 37
2, 158400, Note_on_c, 0, 56, 0
2, 158400, Note_on_c, 0, 49, 45
2, 158640, Note_on_c, 0, 49, 0
2, 158640, Note_on_c, 0, 52, 33
2, 158880, Note_on_c, 0, 52, 0
2, 158880, Note_on_c, 0, 57, 33
2, 159120, Note_on_c, 0, 57, 0
2, 159120, Note_on_c, 0, 59, 33
2, 159360, Note_on_c, 0, 59, 0
2, 159360, Note_on_c, 0, 61, 33
2, 159600, Note_on_c, 0, 61, 0
2, 159600, Note_on_c, 0, 64, 33
2, 159840, Note_on_c, 0, 64, 0
2, 159840, Note_on_c, 0, 61, 36
2, 160080, Note_on_c, 0, 61, 0
2, 160080, Note_on_c, 0, 59, 31
2, 160320, Note_on_c, 0, 59, 0
2, 160320, Note_on_c, 0, 57, 33
2, 160560, Note_on_c, 0, 57, 0
2, 160560, Note_on_c, 0, 52, 33
2, 160800, Note_on_c, 0, 64, 50
2, 161280, Note_on_c, 0, 64, 0
2, 161280, Note_on_c, 0, 52, 0
2, 161280, Note_on_c, 0, 69, 65
2, 161280, Note_on_c, 0, 57, 55
2, 163200, Note_on_c, 0, 57, 0
2, 163200, Note_on_c, 0, 69, 0
2, 163200, Note_on_c, 0, 68, 69
2, 163200, Note_on_c, 0, 56, 58
2, 163680, Note_on_c, 0, 56, 0
2, 163680, Note_on_c, 0, 68, 0
2, 163680, Note_on_c, 0, 57, 62
2, 163680, Note_on_c, 0, 69, 74
2, 164160, Note_on_c, 0, 69, 0
2, 164160, Note_on_c, 0, 57, 0
2, 164160, Note_on_c, 0, 71, 84
2, 164160, Note_on_c, 0, 59, 71
2, 165600, Note_on_c, 0, 59, 0
2, 165600, Note_on_c, 0, 71, 0
2, 165600, Note_on_c, 0, 73, 77
2, 165600, Note_on_c, 0, 61, 65
2, 167040, Note_on_c, 0, 61, 0
2, 167040, Note_on_c, 0, 73, 0
2, 167040, Note_on_c, 0, 76, 89
2, 167040, Note_on_c, 0, 73, 89
2, 167040, Note_on_c, 0, 64, 75
2, 167520, Note_on_c, 0, 64, 0
2, 167520, Note_on_c, 0, 73, 0
2, 167520, Note_on_c, 0, 76, 0
2, 167520, Note_on_c, 0, 74, 76
2, 167520, Note_on_c, 0, 71, 76
2, 167520, Note_on_c, 0, 62, 63
2, 168000, Note_on_c, 0, 62, 0
2, 168000, Note_on_c, 0, 71, 0
2, 168000, Note_on_c, 0, 74, 0
2, 168000, Note_on_c, 0, 73, 70
2, 168000, Note_on_c, 0, 69, 70
2, 168000, Note_on_c, 0, 61, 59
2, 168480, Note_on_c, 0, 61, 0
2, 168480, Note_on_c, 0, 69, 0
2, 168480, Note_on_c, 0, 73, 0
2, 168480, Note_on_c, 0, 71, 82
2, 168480, Note_on_c, 0, 68, 82
2, 168480, Note_on_c, 0, 59, 70
2, 168960, Note_on_c, 0, 59, 0
2, 168960, Note_on_c, 0, 68, 0
2, 168960, Note_on_c, 0, 71, 0
2, 168960, Note_on_c, 0, 73, 75
2, 168960, Note_on_c, 0, 61, 62
2, 169440, Note_on_c, 0, 61, 0
2, 169440, Note_on_c, 0, 73, 0
2, 169440, Note_on_c, 0, 71, 68
2, 169440, Note_on_c, 0, 59, 57
2, 169920, Note_on_c, 0, 59, 0
2, 169920, Note_on_c, 0, 71, 0
2, 169920, Note_on_c, 0, 69, 90
2, 169920, Note_on_c, 0, 57, 77
2, 170880, Note_on_c, 0, 57, 0
2, 170880, Note_on_c, 0, 69, 0
2, 170880, Note_on_c, 0, 81, 86
2, 170880, Note_on_c, 0, 69, 73
2, 171360, Note_on_c, 0, 69, 0
2, 171360, Note_on_c, 0, 81, 0
2, 171360, Note_on_c, 0, 83, 91
2, 171360, Note_on_c, 0, 71, 77
2, 172320, Note_on_c, 0, 71, 0
2, 172320, Note_on_c, 0, 83, 0
2, 172320, Note_on_c, 0, 85, 95
2, 172320, Note_on_c, 0, 73, 80
2, 172800, Note_on_c, 0, 73, 0
2, 172800, Note_on_c, 0, 85, 0
2, 172800, Note_on_c, 0, 76, 82
2, 172800, Note_on_c, 0, 85, 97
2, 172800, Note_on_c, 0, 88, 97
2, 173280, Note_on_c, 0, 88, 0
2, 173280, Note_on_c, 0, 85, 0
2, 173280, Note_on_c, 0, 76, 0
2, 173280, Note_on_c, 0, 74, 75
2, 173280, Note_on_c, 0, 83, 89
2, 173280, Note_on_c, 0, 86, 89
2, 173760, Note_on_c, 0, 86, 0
2, 173760, Note_on_c, 0, 83, 0
2, 173760, Note_on_c, 0, 74, 0
2, 173760, Note_on_c, 0, 73, 69
2, 173760, Note_on_c, 0, 81, 82
2, 173760, Note_on_c, 0, 85, 82
2, 174240, Note_on_c, 0, 85, 0
2, 174240, Note_on_c, 0, 81, 0
2, 174240, Note_on_c, 0, 73, 0
2, 174240, Note_on_c, 0, 71, 80
2, 174240, Note_on_c, 0, 80, 95
2, 174240, Note_on_c, 0, 83, 95
2, 174720, Note_on_c, 0, 83, 0
2, 174720, Note_on_c, 0, 80, 0
2, 174720, Note_on_c, 0, 71, 0
2, 174720, Note_on_c, 0, 73, 75
2, 174720, Note_on_c, 0, 85, 89
2, 175200, Note_on_c, 0, 85, 0
2, 175200, Note_on_c, 0, 73, 0
2, 175200, Note_on_c, 0, 71, 68
2, 175200, Note_on_c, 0, 83, 80
2, 175680, Note_on_c, 0, 83, 0
2, 175680, Note_on_c, 0, 71, 0
2, 175680, Note_on_c, 0, 69, 79
2, 175680, Note_on_c, 0, 81, 93
2, 176160, Note_on_c, 0, 81, 0
2, 176160, Note_on_c, 0, 69, 0
2, 176160, Note_on_c, 0, 76, 80
2, 176160, Note_on_c, 0, 80, 80
2, 176640, Note_on_c, 0, 80, 0
2, 176640, Note_on_c, 0, 76, 0
2, 176640, Note_on_c, 0, 74, 77
2, 176640, Note_on_c, 0, 78, 77
2, 177120, Note_on_c, 0, 78, 0
2, 177120, Note_on_c, 0, 74, 0
2, 177120, Note_on_c, 0, 73, 72
2, 177120, Note_on_c, 0, 76, 72
2, 177600, Note_on_c, 0, 76, 0
2, 177600, Note_on_c, 0, 73, 0
2, 177600, Note_on_c, 0, 72, 70
2, 177600, Note_on_c, 0, 75, 70
2, 178080, Note_on_c, 0, 75, 0
2, 178080, Note_on_c, 0, 72, 0
2, 178080, Note_on_c, 0, 71, 70
2, 178080, Note_on_c, 0, 74, 70
2, 178560, Note_on_c, 0, 74, 0
2, 178560, Note_on_c, 0, 71, 0
2, 178560, Note_on_c, 0, 73, 74
2, 178560, Note_on_c, 0, 69, 65
2, 178800, Note_on_c, 0, 69, 0
2, 178800, Note_on_c, 0, 73, 0
2, 179040, Note_on_c, 0, 74, 57
2, 179040, Note_on_c, 0, 69, 50
2, 179220, Note_on_c, 0, 69, 0
2, 179220, Note_on_c, 0, 74, 0
2, 179520, Note_on_c, 0, 73, 51
2, 179520, Note_on_c, 0, 69, 45
2, 179700, Note_on_c, 0, 69, 0
2, 179700, Note_on_c, 0, 73, 0
2, 180000, Note_on_c, 0, 69, 50
2, 180000, Note_on_c, 0, 66, 50
2, 180000, Note_on_c, 0, 71, 57
2, 180180, Note_on_c, 0, 71, 0
2, 180180, Note_on_c, 0, 66, 0
2, 180180, Note_on_c, 0, 69, 0
2, 180960, Note_on_c, 0, 68, 65
2, 180960, Note_on_c, 0, 76, 74
2, 181200, Note_on_c, 0, 76, 0
2, 181200, Note_on_c, 0, 68, 0
2, 181440, Note_on_c, 0, 69, 67
2, 181440, Note_on_c, 0, 81, 79
2, 181920, Note_on_c, 0, 81, 0
2, 181920, Note_on_c, 0, 69, 0
2, 181920, Note_on_c, 0, 76, 57
2, 181920, Note_on_c, 0, 80, 68
2, 182400, Note_on_c, 0, 80, 0
2, 182400, Note_on_c, 0, 76, 0
2, 182400, Note_on_c, 0, 74, 55
2, 182400, Note_on_c, 0, 78, 65
2, 182880, Note_on_c, 0, 78, 0
2, 182880, Note_on_c, 0, 74, 0
2, 182880, Note_on_c, 0, 73, 51
2, 182880, Note_on_c, 0, 76, 61
2, 183360, Note_on_c, 0, 76, 0
2, 183360, Note_on_c, 0, 73, 0
2, 183360, Note_on_c, 0, 72, 50
2, 183360, Note_on_c, 0, 75, 59
2, 183840, Note_on_c, 0, 75, 0
2, 183840, Note_on_c, 0, 72, 0
2, 183840, Note_on_c, 0, 71, 50
2, 183840, Note_on_c, 0, 74, 59
2, 184320, Note_on_c, 0, 74, 0
2, 184320, Note_on_c, 0, 71, 0
2, 184560, Note_on_c, 0, 73, 47
2, 184800, Note_on_c, 0, 73, 0
2, 184800, Note_on_c, 0, 74, 47
2, 185040, Note_on_c, 0, 74, 0
2, 185040, Note_on_c, 0, 76, 47
2, 185280, Note_on_c, 0, 76, 0
2, 185280, Note_on_c, 0, 78, 51
2, 185520, Note_on_c, 0, 78, 0
2, 185520, Note_on_c, 0, 74, 47
2, 185760, Note_on_c, 0, 74, 0
2, 185760, Note_on_c, 0, 76, 50
2, 186000, Note_on_c, 0, 76, 0
2, 186000, Note_on_c, 0, 78, 47
2, 186240, Note_on_c, 0, 78, 0
2, 186240, Note_on_c, 0, 80, 49
2, 186480, Note_on_c, 0, 80, 0
2, 186480, Note_on_c, 0, 76, 47
2, 186720, Note_on_c, 0, 76, 0
2, 186720, Note_on_c, 0, 78, 50
2, 186960, Note_on_c, 0, 78, 0
2, 186960, Note_on_c, 0, 80, 47
2, 187200, Note_on_c, 0, 80, 0
2, 187200, Note_on_c, 0, 81, 50
2, 187440, Note_on_c, 0, 81, 0
2, 187440, Note_on_c, 0, 85, 51
2, 187680, Note_on_c, 0, 85, 0
2, 187680, Note_on_c, 0, 86, 51
2, 187920, Note_on_c, 0, 86, 0
2, 187920, Note_on_c, 0, 88, 50
2, 188160, Note_on_c, 0, 88, 0
2, 188160, Note_on_c, 0, 90, 54
2, 188400, Note_on_c, 0, 90, 0
2, 188400, Note_on_c, 0, 86, 48
2, 188640, Note_on_c, 0, 86, 0
2, 188640, Note_on_c, 0, 88, 50
2, 188880, Note_on_c, 0, 88, 0
2, 188880, Note_on_c, 0, 90, 47
2, 189120, Note_on_c, 0, 90, 0
2, 189120, Note_on_c, 0, 92, 47
2, 189360, Note_on_c, 0, 92, 0
2, 189360, Note_on_c, 0, 88, 45
2, 189600, Note_on_c, 0, 88, 0
2, 189600, Note_on_c, 0, 90, 47
2, 189840, Note_on_c, 0, 90, 0
2, 189840, Note_on_c, 0, 92, 44
2, 190080, Note_on_c, 0, 92, 0
2, 190080, Note_on_c, 0, 93, 52
2, 190320, Note_on_c, 0, 93, 0
2, 190320, Note_on_c, 0, 88, 52
2, 190560, Note_on_c, 0, 88, 0
2, 190560, Note_on_c, 0, 85, 48
2, 190800, Note_on_c, 0, 85, 0
2, 190800, Note_on_c, 0, 81, 48
2, 191040, Note_on_c, 0, 81, 0
2, 191040, Note_on_c, 0, 76, 48
2, 191280, Note_on_c, 0, 76, 0
2, 191280, Note_on_c, 0, 73, 48
2, 191520, Note_on_c, 0, 73, 0
2, 191520, Note_on_c, 0, 69, 46
2, 191760, Note_on_c, 0, 69, 0
2, 191760, Note_on_c, 0, 64, 45
2, 192000, Note_on_c, 0, 64, 0
2, 192000, Note_on_c, 0, 61, 43
2, 192240, Note_on_c, 0, 61, 0
2, 192240, Note_on_c, 0, 57, 42
2, 192480, Note_on_c, 0, 57, 0
2, 192960, Note_on_c, 0, 52, 56
2, 193200, Note_on_c, 0, 47, 37
2, 193440, Note_on_c, 0, 47, 0
2, 193440, Note_on_c, 0, 48, 42
2, 193680, Note_on_c, 0, 48, 0
2, 193680, Note_on_c, 0, 45, 34
2, 193920, Note_on_c, 0, 45, 0
2, 193920, Note_on_c, 0, 52, 0
2, 193920, Note_on_c, 0, 57, 54
2, 194160, Note_on_c, 0, 52, 39
2, 194376, Note_on_c, 0, 57, 0
2, 194400, Note_on_c, 0, 52, 0
2, 194400, Note_on_c, 0, 57, 55
2, 194640, Note_on_c, 0, 51, 45
2, 194880, Note_on_c, 0, 51, 0
2, 194880, Note_on_c, 0, 52, 55
2, 195120, Note_on_c, 0, 52, 0
2, 195120, Note_on_c, 0, 48, 46
2, 195360, Note_on_c, 0, 48, 0
2, 195360, Note_on_c, 0, 57, 0
2, 195360, Note_on_c, 0, 60, 66
2, 195600, Note_on_c, 0, 57, 55
2, 195840, Note_on_c, 0, 57, 0
2, 195840, Note_on_c, 0, 60, 0
2, 195840, Note_on_c, 0, 65, 73
2, 196080, Note_on_c, 0, 59, 56
2, 196320, Note_on_c, 0, 59, 0
2, 196320, Note_on_c, 0, 60, 61
2, 196560, Note_on_c, 0, 60, 0
2, 196560, Note_on_c, 0, 57, 56
2, 196800, Note_on_c, 0, 57, 0
2, 196800, Note_on_c, 0, 65, 0
2, 196800, Note_on_c, 0, 64, 68
2, 197040, Note_on_c, 0, 60, 49
2, 197280, Note_on_c, 0, 60, 0
2, 197280, Note_on_c, 0, 64, 0
2, 197280, Note_on_c, 0, 63, 68
2, 197520, Note_on_c, 0, 59, 50
2, 197760, Note_on_c, 0, 59, 0
2, 197760, Note_on_c, 0, 60, 55
2, 198000, Note_on_c, 0, 60, 0
2, 198000, Note_on_c, 0, 57, 45
2, 198230, Note_on_c, 0, 63, 0
2, 198240, Note_on_c, 0, 57, 0
2, 198240, Note_on_c, 0, 63, 51
2, 198480, Note_on_c, 0, 60, 33
2, 198720, Note_on_c, 0, 60, 0
2, 198720, Note_on_c, 0, 63, 0
2, 198720, Note_on_c, 0, 64, 45
2, 199200, Note_on_c, 0, 64, 0
2, 199440, Note_on_c, 0, 52, 39
2, 199680, Note_on_c, 0, 52, 0
2, 199680, Note_on_c, 0, 59, 40
2, 199920, Note_on_c, 0, 59, 0
2, 199920, Note_on_c, 0, 63, 42
2, 200160, Note_on_c, 0, 63, 0
2, 200160, Note_on_c, 0, 64, 44
2, 200640, Note_on_c, 0, 64, 0
2, 200880, Note_on_c, 0, 64, 43
2, 201120, Note_on_c, 0, 64, 0
2, 201120, Note_on_c, 0, 71, 48
2, 201360, Note_on_c, 0, 71, 0
2, 201360, Note_on_c, 0, 75, 50
2, 201600, Note_on_c, 0, 75, 0
2, 201600, Note_on_c, 0, 76, 52
2, 202080, Note_on_c, 0, 76, 0
2, 202320, Note_on_c, 0, 88, 58
2, 202560, Note_on_c, 0, 88, 0
2, 202560, Note_on_c, 0, 85, 57
2, 202800, Note_on_c, 0, 85, 0
2, 202800, Note_on_c, 0, 82, 55
2, 203040, Note_on_c, 0, 82, 0
2, 203040, Note_on_c, 0, 79, 54
2, 203280, Note_on_c, 0, 79, 0
2, 203280, Note_on_c, 0, 76, 54
2, 203520, Note_on_c, 0, 76, 0
2, 203520, Note_on_c, 0, 73, 54
2, 203760, Note_on_c, 0, 73, 0
2, 203760, Note_on_c, 0, 70, 53
2, 204000, Note_on_c, 0, 70, 0
2, 204000, Note_on_c, 0, 66, 50
2, 204240, Note_on_c, 0, 66, 0
2, 204240, Note_on_c, 0, 62, 46
2, 204480, Note_on_c, 0, 62, 0
2, 204480, Note_on_c, 0, 66, 56
2, 204720, Note_on_c, 0, 61, 37
2, 204960, Note_on_c, 0, 61, 0
2, 204960, Note_on_c, 0, 62, 42
2, 205200, Note_on_c, 0, 62, 0
2, 205200, Note_on_c, 0, 59, 34
2, 205440, Note_on_c, 0, 59, 0
2, 205440, Note_on_c, 0, 66, 0
2, 205440, Note_on_c, 0, 71, 54
2, 205680, Note_on_c, 0, 66, 39
2, 205896, Note_on_c, 0, 71, 0
2, 205920, Note_on_c, 0, 66, 0
2, 205920, Note_on_c, 0, 71, 55
2, 206160, Note_on_c, 0, 65, 45
2, 206400, Note_on_c, 0, 65, 0
2, 206400, Note_on_c, 0, 66, 55
2, 206640, Note_on_c, 0, 66, 0
2, 206640, Note_on_c, 0, 62, 46
2, 206880, Note_on_c, 0, 62, 0
2, 206880, Note_on_c, 0, 71, 0
2, 206880, Note_on_c, 0, 74, 66
2, 207120, Note_on_c, 0, 71, 55
2, 207360, Note_on_c, 0, 71, 0
2, 207360, Note_on_c, 0, 74, 0
2, 207360, Note_on_c, 0, 79, 73
2, 207600, Note_on_c, 0, 73, 56
2, 207840, Note_on_c, 0, 73, 0
2, 207840, Note_on_c, 0, 74, 61
2, 208080, Note_on_c, 0, 74, 0
2, 208080, Note_on_c, 0, 71, 56
2, 208320, Note_on_c, 0, 71, 0
2, 208320, Note_on_c, 0, 79, 0
2, 208320, Note_on_c, 0, 78, 68
2, 208560, Note_on_c, 0, 74, 49
2, 208800, Note_on_c, 0, 74, 0
2, 208800, Note_on_c, 0, 78, 0
2, 208800, Note_on_c, 0, 77, 68
2, 209040, Note_on_c, 0, 73, 50
2, 209280, Note_on_c, 0, 73, 0
2, 209280, Note_on_c, 0, 74, 55
2, 209520, Note_on_c, 0, 74, 0
2, 209520, Note_on_c, 0, 71, 45
2, 209750, Note_on_c, 0, 77, 0
2, 209760, Note_on_c, 0, 71, 0
2, 209760, Note_on_c, 0, 77, 51
2, 210000, Note_on_c, 0, 74, 33
2, 210240, Note_on_c, 0, 74, 0
2, 210240, Note_on_c, 0, 77, 0
2, 210240, Note_on_c, 0, 73, 45
2, 210240, Note_on_c, 0, 78, 45
2, 210720, Note_on_c, 0, 78, 0
2, 210720, Note_on_c, 0, 73, 0
2, 210960, Note_on_c, 0, 66, 39
2, 211200, Note_on_c, 0, 66, 0
2, 211200, Note_on_c, 0, 73, 40
2, 211440, Note_on_c, 0, 73, 0
2, 211440, Note_on_c, 0, 77, 42
2, 211680, Note_on_c, 0, 77, 0
2, 211680, Note_on_c, 0, 78, 44
2, 212160, Note_on_c, 0, 78, 0
2, 212400, Note_on_c, 0, 78, 43
2, 212640, Note_on_c, 0, 78, 0
2, 212640, Note_on_c, 0, 85, 48
2, 212880, Note_on_c, 0, 85, 0
2, 212880, Note_on_c, 0, 89, 50
2, 213120, Note_on_c, 0, 89, 0
2, 213120, Note_on_c, 0, 90, 52
2, 213600, Note_on_c, 0, 90, 0
2, 213840, Note_on_c, 0, 87, 58
2, 214080, Note_on_c, 0, 87, 0
2, 214080, Note_on_c, 0, 84, 57
2, 214320, Note_on_c, 0, 84, 0
2, 214320, Note_on_c, 0, 81, 55
2, 214560, Note_on_c, 0, 81, 0
2, 214560, Note_on_c, 0, 78, 54
2, 214800, Note_on_c, 0, 78, 0
2, 214800, Note_on_c, 0, 75, 54
2, 215040, Note_on_c, 0, 75, 0
2, 215040, Note_on_c, 0, 72, 54
2, 215280, Note_on_c, 0, 72, 0
2, 215280, Note_on_c, 0, 69, 53
2, 215520, Note_on_c, 0, 69, 0
2, 215520, Note_on_c, 0, 66, 50
2, 215760, Note_on_c, 0, 66, 0
2, 215760, Note_on_c, 0, 63, 46
2, 216000, Note_on_c, 0, 63, 0
2, 216000, Note_on_c, 0, 61, 45
2, 216480, Note_on_c, 0, 61, 0
2, 216720, Note_on_c, 0, 61, 42
2, 216960, Note_on_c, 0, 61, 0
2, 216960, Note_on_c, 0, 68, 44
2, 217200, Note_on_c, 0, 68, 0
2, 217200, Note_on_c, 0, 71, 46
2, 217440, Note_on_c, 0, 71, 0
2, 217440, Note_on_c, 0, 70, 49
2, 217920, Note_on_c, 0, 70, 0
2, 218160, Note_on_c, 0, 73, 49
2, 218400, Note_on_c, 0, 73, 0
2, 218400, Note_on_c, 0, 78, 55
2, 218640, Note_on_c, 0, 78, 0
2, 218640, Note_on_c, 0, 82, 57
2, 218880, Note_on_c, 0, 82, 0
2, 218880, Note_on_c, 0, 85, 67
2, 219120, Note_on_c, 0, 85, 0
2, 219120, Note_on_c, 0, 83, 58
2, 219360, Note_on_c, 0, 83, 0
2, 219600, Note_on_c, 0, 59, 46
2, 219840, Note_on_c, 0, 59, 0
2, 219840, Note_on_c, 0, 66, 47
2, 220080, Note_on_c, 0, 66, 0
2, 220080, Note_on_c, 0, 69, 50
2, 220320, Note_on_c, 0, 69, 0
2, 220320, Note_on_c, 0, 68, 52
2, 220800, Note_on_c, 0, 68, 0
2, 221040, Note_on_c, 0, 71, 52
2, 221280, Note_on_c, 0, 71, 0
2, 221280, Note_on_c, 0, 76, 59
2, 221520, Note_on_c, 0, 76, 0
2, 221520, Note_on_c, 0, 80, 62
2, 221760, Note_on_c, 0, 80, 0
2, 221760, Note_on_c, 0, 83, 70
2, 222000, Note_on_c, 0, 83, 0
2, 222000, Note_on_c, 0, 81, 62
2, 222240, Note_on_c, 0, 81, 0
2, 222480, Note_on_c, 0, 57, 49
2, 222720, Note_on_c, 0, 57, 0
2, 222720, Note_on_c, 0, 64, 51
2, 222960, Note_on_c, 0, 64, 0
2, 222960, Note_on_c, 0, 68, 53
2, 223200, Note_on_c, 0, 68, 0
2, 223200, Note_on_c, 0, 67, 56
2, 223680, Note_on_c, 0, 67, 0
2, 223920, Note_on_c, 0, 70, 56
2, 224160, Note_on_c, 0, 70, 0
2, 224160, Note_on_c, 0, 75, 63
2, 224400, Note_on_c, 0, 75, 0
2, 224400, Note_on_c, 0, 79, 66
2, 224640, Note_on_c, 0, 79, 0
2, 224640, Note_on_c, 0, 81, 73
2, 224880, Note_on_c, 0, 81, 0
2, 224880, Note_on_c, 0, 80, 67
2, 225120, Note_on_c, 0, 80, 0
2, 225360, Note_on_c, 0, 56, 53
2, 225600, Note_on_c, 0, 56, 0
2, 225600, Note_on_c, 0, 63, 54
2, 225840, Note_on_c, 0, 63, 0
2, 225840, Note_on_c, 0, 66, 57
2, 226080, Note_on_c, 0, 66, 0
2, 226080, Note_on_c, 0, 65, 60
2, 226560, Note_on_c, 0, 65, 0
2, 226800, Note_on_c, 0, 71, 60
2, 227040, Note_on_c, 0, 71, 0
2, 227040, Note_on_c, 0, 73, 67
2, 227280, Note_on_c, 0, 73, 0
2, 227280, Note_on_c, 0, 77, 70
2, 227520, Note_on_c, 0, 77, 0
2, 227520, Note_on_c, 0, 80, 77
2, 227760, Note_on_c, 0, 80, 0
2, 227760, Note_on_c, 0, 78, 71
2, 228000, Note_on_c, 0, 78, 0
2, 228240, Note_on_c, 0, 66, 56
2, 228480, Note_on_c, 0, 66, 0
2, 228480, Note_on_c, 0, 71, 58
2, 228720, Note_on_c, 0, 71, 0
2, 228720, Note_on_c, 0, 76, 61
2, 228960, Note_on_c, 0, 76, 0
2, 228960, Note_on_c, 0, 74, 64
2, 229440, Note_on_c, 0, 74, 0
2, 229680, Note_on_c, 0, 69, 64
2, 229920, Note_on_c, 0, 69, 0
2, 229920, Note_on_c, 0, 68, 71
2, 230160, Note_on_c, 0, 68, 0
2, 230160, Note_on_c, 0, 73, 75
2, 230400, Note_on_c, 0, 73, 0
2, 230400, Note_on_c, 0, 80, 79
2, 230640, Note_on_c, 0, 80, 0
2, 230640, Note_on_c, 0, 78, 76
2, 230880, Note_on_c, 0, 78, 0
2, 231120, Note_on_c, 0, 66, 59
2, 231360, Note_on_c, 0, 66, 0
2, 231360, Note_on_c, 0, 71, 61
2, 231600, Note_on_c, 0, 71, 0
2, 231600, Note_on_c, 0, 76, 64
2, 231840, Note_on_c, 0, 76, 0
2, 231840, Note_on_c, 0, 74, 68
2, 232320, Note_on_c, 0, 74, 0
2, 232560, Note_on_c, 0, 69, 67
2, 232800, Note_on_c, 0, 69, 0
2, 232800, Note_on_c, 0, 68, 75
2, 233040, Note_on_c, 0, 68, 0
2, 233040, Note_on_c, 0, 73, 79
2, 233280, Note_on_c, 0, 73, 0
2, 233280, Note_on_c, 0, 71, 90
2, 233760, Note_on_c, 0, 71, 0
2, 234000, Note_on_c, 0, 59, 62
2, 234240, Note_on_c, 0, 59, 0
2, 234240, Note_on_c, 0, 64, 64
2, 234480, Note_on_c, 0, 64, 0
2, 234480, Note_on_c, 0, 70, 67
2, 234720, Note_on_c, 0, 70, 0
2, 234720, Note_on_c, 0, 71, 70
2, 235200, Note_on_c, 0, 71, 0
2, 235440, Note_on_c, 0, 59, 68
2, 235680, Note_on_c, 0, 59, 0
2, 235680, Note_on_c, 0, 64, 76
2, 235920, Note_on_c, 0, 64, 0
2, 235920, Note_on_c, 0, 70, 80
2, 236160, Note_on_c, 0, 70, 0
2, 236160, Note_on_c, 0, 71, 90
2, 236400, Note_on_c, 0, 71, 0
2, 236400, Note_on_c, 0, 59, 62
2, 236640, Note_on_c, 0, 59, 0
2, 236640, Note_on_c, 0, 64, 66
2, 236880, Note_on_c, 0, 64, 0
2, 236880, Note_on_c, 0, 70, 72
2, 237120, Note_on_c, 0, 70, 0
2, 237120, Note_on_c, 0, 71, 84
2, 237360, Note_on_c, 0, 71, 0
2, 237360, Note_on_c, 0, 59, 72
2, 237600, Note_on_c, 0, 59, 0
2, 237600, Note_on_c, 0, 64, 75
2, 237840, Note_on_c, 0, 64, 0
2, 237840, Note_on_c, 0, 70, 82
2, 238080, Note_on_c, 0, 70, 0
2, 238080, Note_on_c, 0, 71, 89
2, 238320, Note_on_c, 0, 71, 0
2, 238320, Note_on_c, 0, 59, 77
2, 238560, Note_on_c, 0, 59, 0
2, 238560, Note_on_c, 0, 64, 81
2, 238800, Note_on_c, 0, 64, 0
2, 238800, Note_on_c, 0, 70, 88
2, 239040, Note_on_c, 0, 70, 0
2, 239040, Note_on_c, 0, 66, 81
2, 239040, Note_on_c, 0, 72, 103
2, 239280, Note_on_c, 0, 66, 0
2, 239280, Note_on_c, 0, 65, 67
2, 239520, Note_on_c, 0, 65, 0
2, 239520, Note_on_c, 0, 66, 71
2, 239760, Note_on_c, 0, 66, 0
2, 239760, Note_on_c, 0, 68, 72
2, 240000, Note_on_c, 0, 68, 0
2, 240000, Note_on_c, 0, 69, 78
2, 240240, Note_on_c, 0, 69, 0
2, 240240, Note_on_c, 0, 68, 72
2, 240480, Note_on_c, 0, 68, 0
2, 240480, Note_on_c, 0, 72, 0
2, 240480, Note_on_c, 0, 66, 81
2, 240480, Note_on_c, 0, 73, 103
2, 240720, Note_on_c, 0, 66, 0
2, 240720, Note_on_c, 0, 65, 70
2, 240960, Note_on_c, 0, 65, 0
2, 240960, Note_on_c, 0, 73, 0
2, 240960, Note_on_c, 0, 66, 72
2, 241200, Note_on_c, 0, 66, 0
2, 241200, Note_on_c, 0, 68, 74
2, 241440, Note_on_c, 0, 68, 0
2, 241440, Note_on_c, 0, 69, 76
2, 241680, Note_on_c, 0, 69, 0
2, 241680, Note_on_c, 0, 68, 72
2, 241920, Note_on_c, 0, 68, 0
2, 241920, Note_on_c, 0, 66, 81
2, 241920, Note_on_c, 0, 72, 103
2, 242160, Note_on_c, 0, 66, 0
2, 242160, Note_on_c, 0, 65, 67
2, 242400, Note_on_c, 0, 65, 0
2, 242400, Note_on_c, 0, 66, 71
2, 242640, Note_on_c, 0, 66, 0
2, 242640, Note_on_c, 0, 68, 72
2, 242880, Note_on_c, 0, 68, 0
2, 242880, Note_on_c, 0, 69, 78
2, 243120, Note_on_c, 0, 69, 0
2, 243120, Note_on_c, 0, 68, 72
2, 243360, Note_on_c, 0, 68, 0
2, 243360, Note_on_c, 0, 72, 0
2, 243360, Note_on_c, 0, 66, 81
2, 243360, Note_on_c, 0, 73, 103
2, 243600, Note_on_c, 0, 66, 0
2, 243600, Note_on_c, 0, 65, 70
2, 243840, Note_on_c, 0, 65, 0
2, 243840, Note_on_c, 0, 73, 0
2, 243840, Note_on_c, 0, 66, 72
2, 244080, Note_on_c, 0, 66, 0
2, 244080, Note_on_c, 0, 68, 74
2, 244320, Note_on_c, 0, 68, 0
2, 244320, Note_on_c, 0, 69, 76
2, 244560, Note_on_c, 0, 69, 0
2, 244560, Note_on_c, 0, 68, 72
2, 244800, Note_on_c, 0, 68, 0
2, 244800, Note_on_c, 0, 66, 81
2, 244800, Note_on_c, 0, 72, 103
2, 245040, Note_on_c, 0, 66, 0
2, 245040, Note_on_c, 0, 65, 67
2, 245280, Note_on_c, 0, 65, 0
2, 245280, Note_on_c, 0, 66, 71
2, 245520, Note_on_c, 0, 66, 0
2, 245520, Note_on_c, 0, 68, 72
2, 245760, Note_on_c, 0, 68, 0
2, 245760, Note_on_c, 0, 69, 78
2, 246000, Note_on_c, 0, 69, 0
2, 246000, Note_on_c, 0, 68, 72
2, 246240, Note_on_c, 0, 68, 0
2, 246240, Note_on_c, 0, 66, 52
2, 246480, Note_on_c, 0, 66, 0
2, 246480, Note_on_c, 0, 65, 53
2, 246720, Note_on_c, 0, 65, 0
2, 246720, Note_on_c, 0, 66, 54
2, 246960, Note_on_c, 0, 66, 0
2, 246960, Note_on_c, 0, 67, 55
2, 247200, Note_on_c, 0, 67, 0
2, 247200, Note_on_c, 0, 69, 61
2, 247440, Note_on_c, 0, 69, 0
2, 247440, Note_on_c, 0, 66, 54
2, 247680, Note_on_c, 0, 66, 0
2, 247680, Note_on_c, 0, 72, 0
2, 247680, Note_on_c, 0, 71, 62
2, 247680, Note_on_c, 0, 69, 58
2, 247920, Note_on_c, 0, 69, 0
2, 247920, Note_on_c, 0, 67, 47
2, 248160, Note_on_c, 0, 67, 0
2, 248160, Note_on_c, 0, 66, 47
2, 248400, Note_on_c, 0, 66, 0
2, 248400, Note_on_c, 0, 67, 47
2, 248640, Note_on_c, 0, 67, 0
2, 248640, Note_on_c, 0, 69, 54
2, 248880, Note_on_c, 0, 69, 0
2, 248880, Note_on_c, 0, 67, 47
2, 249120, Note_on_c, 0, 67, 0
2, 249120, Note_on_c, 0, 71, 0
2, 249120, Note_on_c, 0, 74, 60
2, 249120, Note_on_c, 0, 68, 56
2, 249360, Note_on_c, 0, 68, 0
2, 249360, Note_on_c, 0, 66, 45
2, 249600, Note_on_c, 0, 66, 0
2, 249600, Note_on_c, 0, 68, 45
2, 249840, Note_on_c, 0, 68, 0
2, 249840, Note_on_c, 0, 69, 45
2, 250080, Note_on_c, 0, 69, 0
2, 250080, Note_on_c, 0, 71, 52
2, 250320, Note_on_c, 0, 71, 0
2, 250320, Note_on_c, 0, 68, 45
2, 250560, Note_on_c, 0, 68, 0
2, 250560, Note_on_c, 0, 74, 0
2, 250560, Note_on_c, 0, 73, 57
2, 250560, Note_on_c, 0, 71, 53
2, 250800, Note_on_c, 0, 71, 0
2, 250800, Note_on_c, 0, 69, 43
2, 251040, Note_on_c, 0, 69, 0
2, 251040, Note_on_c, 0, 68, 44
2, 251280, Note_on_c, 0, 68, 0
2, 251280, Note_on_c, 0, 69, 44
2, 251520, Note_on_c, 0, 69, 0
2, 251520, Note_on_c, 0, 71, 49
2, 251760, Note_on_c, 0, 71, 0
2, 251760, Note_on_c, 0, 69, 44
2, 252000, Note_on_c, 0, 69, 0
2, 252000, Note_on_c, 0, 73, 0
2, 252000, Note_on_c, 0, 76, 55
2, 252000, Note_on_c, 0, 70, 51
2, 252240, Note_on_c, 0, 70, 0
2, 252240, Note_on_c, 0, 68, 42
2, 252480, Note_on_c, 0, 68, 0
2, 252480, Note_on_c, 0, 70, 42
2, 252720, Note_on_c, 0, 70, 0
2, 252720, Note_on_c, 0, 71, 41
2, 252960, Note_on_c, 0, 71, 0
2, 252960, Note_on_c, 0, 73, 47
2, 253200, Note_on_c, 0, 73, 0
2, 253200, Note_on_c, 0, 70, 42
2, 253440, Note_on_c, 0, 70, 0
2, 253440, Note_on_c, 0, 76, 0
2, 253440, Note_on_c, 0, 74, 52
2, 253440, Note_on_c, 0, 73, 49
2, 253680, Note_on_c, 0, 73, 0
2, 253680, Note_on_c, 0, 71, 40
2, 253920, Note_on_c, 0, 71, 0
2, 253920, Note_on_c, 0, 70, 40
2, 254160, Note_on_c, 0, 70, 0
2, 254160, Note_on_c, 0, 71, 40
2, 254400, Note_on_c, 0, 71, 0
2, 254400, Note_on_c, 0, 73, 46
2, 254640, Note_on_c, 0, 73, 0
2, 254640, Note_on_c, 0, 71, 41
2, 254880, Note_on_c, 0, 71, 0
2, 254880, Note_on_c, 0, 74, 0
2, 254880, Note_on_c, 0, 73, 52
2, 254880, Note_on_c, 0, 71, 49
2, 255120, Note_on_c, 0, 71, 0
2, 255120, Note_on_c, 0, 69, 40
2, 255360, Note_on_c, 0, 69, 0
2, 255360, Note_on_c, 0, 68, 40
2, 255600, Note_on_c, 0, 68, 0
2, 255600, Note_on_c, 0, 69, 40
2, 255840, Note_on_c, 0, 69, 0
2, 255840, Note_on_c, 0, 71, 46
2, 256080, Note_on_c, 0, 71, 0
2, 256080, Note_on_c, 0, 69, 41
2, 256320, Note_on_c, 0, 69, 0
2, 256320, Note_on_c, 0, 73, 0
2, 256320, Note_on_c, 0, 72, 52
2, 256320, Note_on_c, 0, 69, 49
2, 256560, Note_on_c, 0, 69, 0
2, 256560, Note_on_c, 0, 68, 40
2, 256800, Note_on_c, 0, 68, 0
2, 256800, Note_on_c, 0, 67, 40
2, 257040, Note_on_c, 0, 67, 0
2, 257040, Note_on_c, 0, 68, 40
2, 257280, Note_on_c, 0, 68, 0
2, 257280, Note_on_c, 0, 69, 46
2, 257520, Note_on_c, 0, 69, 0
2, 257520, Note_on_c, 0, 68, 41
2, 257760, Note_on_c, 0, 68, 0
2, 257760, Note_on_c, 0, 72, 0
2, 257760, Note_on_c, 0, 71, 52
2, 257760, Note_on_c, 0, 69, 49
2, 258000, Note_on_c, 0, 69, 0
2, 258000, Note_on_c, 0, 68, 40
2, 258240, Note_on_c, 0, 68, 0
2, 258240, Note_on_c, 0, 66, 40
2, 258480, Note_on_c, 0, 66, 0
2, 258480, Note_on_c, 0, 68, 40
2, 258720, Note_on_c, 0, 68, 0
2, 258720, Note_on_c, 0, 69, 46
2, 258960, Note_on_c, 0, 69, 0
2, 258960, Note_on_c, 0, 68, 41
2, 259200, Note_on_c, 0, 68, 0
2, 259200, Note_on_c, 0, 71, 0
2, 259200, Note_on_c, 0, 70, 52
2, 259200, Note_on_c, 0, 68, 49
2, 259440, Note_on_c, 0, 68, 0
2, 259440, Note_on_c, 0, 66, 40
2, 259680, Note_on_c, 0, 66, 0
2, 259680, Note_on_c, 0, 65, 40
2, 259920, Note_on_c, 0, 65, 0
2, 259920, Note_on_c, 0, 66, 40
2, 260160, Note_on_c, 0, 66, 0
2, 260160, Note_on_c, 0, 68, 46
2, 260400, Note_on_c, 0, 68, 0
2, 260400, Note_on_c, 0, 66, 41
2, 260640, Note_on_c, 0, 66, 0
2, 260640, Note_on_c, 0, 70, 0
2, 260640, Note_on_c, 0, 69, 52
2, 260640, Note_on_c, 0, 68, 49
2, 260880, Note_on_c, 0, 68, 0
2, 260880, Note_on_c, 0, 66, 40
2, 261120, Note_on_c, 0, 66, 0
2, 261120, Note_on_c, 0, 65, 40
2, 261360, Note_on_c, 0, 65, 0
2, 261360, Note_on_c, 0, 66, 40
2, 261600, Note_on_c, 0, 66, 0
2, 261600, Note_on_c, 0, 68, 46
2, 261840, Note_on_c, 0, 68, 0
2, 261840, Note_on_c, 0, 66, 41
2, 262080, Note_on_c, 0, 66, 0
2, 262080, Note_on_c, 0, 69, 0
2, 262080, Note_on_c, 0, 65, 55
2, 262320, Note_on_c, 0, 65, 0
2, 262320, Note_on_c, 0, 61, 45
2, 262560, Note_on_c, 0, 61, 0
2, 262560, Note_on_c, 0, 56, 49
2, 262800, Note_on_c, 0, 56, 0
2, 262800, Note_on_c, 0, 61, 47
2, 263040, Note_on_c, 0, 61, 0
2, 263040, Note_on_c, 0, 65, 49
2, 263280, Note_on_c, 0, 65, 0
2, 263280, Note_on_c, 0, 68, 49
2, 263520, Note_on_c, 0, 68, 0
2, 263520, Note_on_c, 0, 65, 57
2, 263760, Note_on_c, 0, 65, 0
2, 263760, Note_on_c, 0, 61, 45
2, 264000, Note_on_c, 0, 61, 0
2, 264000, Note_on_c, 0, 56, 49
2, 264240, Note_on_c, 0, 56, 0
2, 264240, Note_on_c, 0, 61, 47
2, 264480, Note_on_c, 0, 61, 0
2, 264480, Note_on_c, 0, 65, 46
2, 264720, Note_on_c, 0, 65, 0
2, 264720, Note_on_c, 0, 68, 43
2, 264960, Note_on_c, 0, 68, 0
2, 264960, Note_on_c, 0, 66, 55
2, 265200, Note_on_c, 0, 66, 0
2, 265200, Note_on_c, 0, 61, 45
2, 265440, Note_on_c, 0, 61, 0
2, 265440, Note_on_c, 0, 57, 49
2, 265680, Note_on_c, 0, 57, 0
2, 265680, Note_on_c, 0, 61, 47
2, 265920, Note_on_c, 0, 61, 0
2, 265920, Note_on_c, 0, 66, 49
2, 266160, Note_on_c, 0, 66, 0
2, 266160, Note_on_c, 0, 69, 49
2, 266400, Note_on_c, 0, 69, 0
2, 266400, Note_on_c, 0, 66, 57
2, 266640, Note_on_c, 0, 66, 0
2, 266640, Note_on_c, 0, 63, 45
2, 266880, Note_on_c, 0, 63, 0
2, 266880, Note_on_c, 0, 60, 49
2, 267120, Note_on_c, 0, 60, 0
2, 267120, Note_on_c, 0, 63, 47
2, 267360, Note_on_c, 0, 63, 0
2, 267360, Note_on_c, 0, 66, 46
2, 267600, Note_on_c, 0, 66, 0
2, 267600, Note_on_c, 0, 69, 43
2, 267840, Note_on_c, 0, 69, 0
2, 267840, Note_on_c, 0, 68, 55
2, 268080, Note_on_c, 0, 68, 0
2, 268080, Note_on_c, 0, 65, 45
2, 268320, Note_on_c, 0, 65, 0
2, 268320, Note_on_c, 0, 61, 49
2, 268560, Note_on_c, 0, 61, 0
2, 268560, Note_on_c, 0, 65, 47
2, 268800, Note_on_c, 0, 65, 0
2, 268800, Note_on_c, 0, 68, 49
2, 269040, Note_on_c, 0, 68, 0
2, 269040, Note_on_c, 0, 73, 49
2, 269280, Note_on_c, 0, 73, 0
2, 269280, Note_on_c, 0, 68, 57
2, 269520, Note_on_c, 0, 68, 0
2, 269520, Note_on_c, 0, 65, 45
2, 269760, Note_on_c, 0, 65, 0
2, 269760, Note_on_c, 0, 61, 49
2, 270000, Note_on_c, 0, 61, 0
2, 270000, Note_on_c, 0, 65, 47
2, 270240, Note_on_c, 0, 65, 0
2, 270240, Note_on_c, 0, 68, 46
2, 270480, Note_on_c, 0, 68, 0
2, 270480, Note_on_c, 0, 73, 43
2, 270720, Note_on_c, 0, 73, 0
2, 270720, Note_on_c, 0, 69, 55
2, 270960, Note_on_c, 0, 69, 0
2, 270960, Note_on_c, 0, 66, 45
2, 271200, Note_on_c, 0, 66, 0
2, 271200, Note_on_c, 0, 61, 49
2, 271440, Note_on_c, 0, 61, 0
2, 271440, Note_on_c, 0, 66, 47
2, 271680, Note_on_c, 0, 66, 0
2, 271680, Note_on_c, 0, 69, 49
2, 271920, Note_on_c, 0, 69, 0
2, 271920, Note_on_c, 0, 73, 49
2, 272160, Note_on_c, 0, 73, 0
2, 272160, Note_on_c, 0, 69, 57
2, 272400, Note_on_c, 0, 69, 0
2, 272400, Note_on_c, 0, 66, 45
2, 272640, Note_on_c, 0, 66, 0
2, 272640, Note_on_c, 0, 63, 49
2, 272880, Note_on_c, 0, 63, 0
2, 272880, Note_on_c, 0, 66, 47
2, 273120, Note_on_c, 0, 66, 0
2, 273120, Note_on_c, 0, 69, 46
2, 273360, Note_on_c, 0, 69, 0
2, 273360, Note_on_c, 0, 72, 43
2, 273600, Note_on_c, 0, 72, 0
2, 273600, Note_on_c, 0, 73, 55
2, 273840, Note_on_c, 0, 73, 0
2, 273840, Note_on_c, 0, 68, 45
2, 274080, Note_on_c, 0, 68, 0
2, 274080, Note_on_c, 0, 65, 49
2, 274320, Note_on_c, 0, 65, 0
2, 274320, Note_on_c, 0, 68, 47
2, 274560, Note_on_c, 0, 68, 0
2, 274560, Note_on_c, 0, 73, 49
2, 274800, Note_on_c, 0, 73, 0
2, 274800, Note_on_c, 0, 77, 49
2, 275040, Note_on_c, 0, 77, 0
2, 275040, Note_on_c, 0, 80, 55
2, 275280, Note_on_c, 0, 80, 0
2, 275280, Note_on_c, 0, 77, 45
2, 275520, Note_on_c, 0, 77, 0
2, 275520, Note_on_c, 0, 83, 55
2, 275760, Note_on_c, 0, 83, 0
2, 275760, Note_on_c, 0, 80, 53
2, 276000, Note_on_c, 0, 80, 0
2, 276000, Note_on_c, 0, 78, 49
2, 276240, Note_on_c, 0, 78, 0
2, 276240, Note_on_c, 0, 77, 49
2, 276480, Note_on_c, 0, 77, 0
2, 276480, Note_on_c, 0, 85, 69
2, 276720, Note_on_c, 0, 85, 0
2, 276720, Note_on_c, 0, 83, 63
2, 276960, Note_on_c, 0, 83, 0
2, 276960, Note_on_c, 0, 82, 59
2, 277200, Note_on_c, 0, 82, 0
2, 277200, Note_on_c, 0, 80, 58
2, 277440, Note_on_c, 0, 80, 0
2, 277440, Note_on_c, 0, 78, 56
2, 277680, Note_on_c, 0, 78, 0
2, 277680, Note_on_c, 0, 77, 49
2, 277920, Note_on_c, 0, 77, 0
2, 277920, Note_on_c, 0, 78, 55
2, 278160, Note_on_c, 0, 78, 0
2, 278160, Note_on_c, 0, 75, 53
2, 278400, Note_on_c, 0, 75, 0
2, 278400, Note_on_c, 0, 72, 51
2, 278640, Note_on_c, 0, 72, 0
2, 278640, Note_on_c, 0, 68, 51
2, 278880, Note_on_c, 0, 68, 0
2, 278880, Note_on_c, 0, 66, 48
2, 279120, Note_on_c, 0, 66, 0
2, 279120, Note_on_c, 0, 63, 46
2, 279360, Note_on_c, 0, 63, 0
2, 279360, Note_on_c, 0, 71, 61
2, 279360, Note_on_c, 0, 65, 61
2, 279600, Note_on_c, 0, 65, 0
2, 279600, Note_on_c, 0, 71, 0
2, 279600, Note_on_c, 0, 68, 51
2, 279840, Note_on_c, 0, 68, 0
2, 279840, Note_on_c, 0, 65, 48
2, 280080, Note_on_c, 0, 65, 0
2, 280080, Note_on_c, 0, 61, 47
2, 280320, Note_on_c, 0, 61, 0
2, 280320, Note_on_c, 0, 60, 46
2, 280560, Note_on_c, 0, 60, 0
2, 280560, Note_on_c, 0, 59, 43
2, 280800, Note_on_c, 0, 59, 0
2, 280800, Note_on_c, 0, 58, 49
2, 281040, Note_on_c, 0, 58, 0
2, 281040, Note_on_c, 0, 61, 42
2, 281280, Note_on_c, 0, 61, 0
2, 281280, Note_on_c, 0, 64, 45
2, 281520, Note_on_c, 0, 64, 0
2, 281520, Note_on_c, 0, 76, 46
2, 281760, Note_on_c, 0, 76, 0
2, 281760, Note_on_c, 0, 73, 48
2, 282000, Note_on_c, 0, 73, 0
2, 282000, Note_on_c, 0, 70, 52
2, 282240, Note_on_c, 0, 70, 0
2, 282240, Note_on_c, 0, 67, 54
2, 282457, Note_on_c, 0, 63, 38
2, 282480, Note_on_c, 0, 67, 0
2, 282697, Note_on_c, 0, 63, 0
2, 282720, Note_on_c, 0, 68, 45
2, 282960, Note_on_c, 0, 68, 0
2, 282960, Note_on_c, 0, 63, 38
2, 283200, Note_on_c, 0, 63, 0
2, 283200, Note_on_c, 0, 70, 43
2, 283440, Note_on_c, 0, 70, 0
2, 283440, Note_on_c, 0, 63, 38
2, 283680, Note_on_c, 0, 63, 0
2, 283680, Note_on_c, 0, 71, 50
2, 283920, Note_on_c, 0, 71, 0
2, 283920, Note_on_c, 0, 65, 38
2, 284160, Note_on_c, 0, 65, 0
2, 284160, Note_on_c, 0, 61, 43
2, 284400, Note_on_c, 0, 61, 0
2, 284400, Note_on_c, 0, 65, 38
2, 284640, Note_on_c, 0, 65, 0
2, 284640, Note_on_c, 0, 59, 45
2, 284880, Note_on_c, 0, 59, 0
2, 284880, Note_on_c, 0, 65, 37
2, 285120, Note_on_c, 0, 65, 0
2, 285120, Note_on_c, 0, 58, 45
2, 285360, Note_on_c, 0, 58, 0
2, 285360, Note_on_c, 0, 61, 33
2, 285600, Note_on_c, 0, 61, 0
2, 285600, Note_on_c, 0, 66, 33
2, 285840, Note_on_c, 0, 66, 0
2, 285854, Note_on_c, 0, 70, 33
2, 286080, Note_on_c, 0, 66, 33
2, 286094, Note_on_c, 0, 70, 0
2, 286320, Note_on_c, 0, 66, 0
2, 286320, Note_on_c, 0, 61, 33
2, 286560, Note_on_c, 0, 61, 0
2, 286560, Note_on_c, 0, 58, 36
2, 286800, Note_on_c, 0, 58, 0
2, 286800, Note_on_c, 0, 56, 31
2, 287040, Note_on_c, 0, 56, 0
2, 287520, Note_on_c, 0, 61, 59
2, 288000, Note_on_c, 0, 66, 64
2, 288480, Note_on_c, 0, 61, 0
2, 288480, Note_on_c, 0, 63, 55
2, 288960, Note_on_c, 0, 63, 0
2, 288960, Note_on_c, 0, 61, 55
2, 289440, Note_on_c, 0, 61, 0
2, 289440, Note_on_c, 0, 60, 58
2, 289920, Note_on_c, 0, 66, 0
2, 289920, Note_on_c, 0, 65, 62
2, 290400, Note_on_c, 0, 65, 0
2, 290400, Note_on_c, 0, 66, 70
2, 290880, Note_on_c, 0, 66, 0
2, 290880, Note_on_c, 0, 60, 0
2, 290880, Note_on_c, 0, 59, 58
2, 290880, Note_on_c, 0, 68, 72
2, 290880, Note_on_c, 0, 65, 60
2, 292320, Note_on_c, 0, 65, 0
2, 292320, Note_on_c, 0, 68, 0
2, 292320, Note_on_c, 0, 59, 0
2, 292320, Note_on_c, 0, 58, 54
2, 292320, Note_on_c, 0, 64, 54
2, 292320, Note_on_c, 0, 70, 54
2, 293760, Note_on_c, 0, 70, 0
2, 293760, Note_on_c, 0, 64, 0
2, 293760, Note_on_c, 0, 58, 0
2, 293760, Note_on_c, 0, 70, 62
2, 293760, Note_on_c, 0, 63, 62
2, 293760, Note_on_c, 0, 73, 73
2, 294240, Note_on_c, 0, 73, 0
2, 294240, Note_on_c, 0, 70, 0
2, 294240, Note_on_c, 0, 68, 52
2, 294240, Note_on_c, 0, 71, 62
2, 294720, Note_on_c, 0, 71, 0
2, 294720, Note_on_c, 0, 68, 0
2, 294720, Note_on_c, 0, 66, 45
2, 294720, Note_on_c, 0, 70, 54
2, 295200, Note_on_c, 0, 70, 0
2, 295200, Note_on_c, 0, 66, 0
2, 295200, Note_on_c, 0, 63, 0
2, 295200, Note_on_c, 0, 65, 66
2, 295200, Note_on_c, 0, 68, 66
2, 295680, Note_on_c, 0, 68, 0
2, 295680, Note_on_c, 0, 70, 49
2, 296160, Note_on_c, 0, 70, 0
2, 296160, Note_on_c, 0, 68, 41
2, 296640, Note_on_c, 0, 68, 0
2, 296640, Note_on_c, 0, 65, 0
2, 296640, Note_on_c, 0, 66, 50
2, 297120, Note_on_c, 0, 66, 0
2, 297600, Note_on_c, 0, 78, 58
2, 297600, Note_on_c, 0, 66, 49
2, 298080, Note_on_c, 0, 66, 0
2, 298080, Note_on_c, 0, 78, 0
2, 298080, Note_on_c, 0, 68, 58
2, 298080, Note_on_c, 0, 77, 58
2, 298080, Note_on_c, 0, 80, 69
2, 299040, Note_on_c, 0, 80, 0
2, 299040, Note_on_c, 0, 77, 0
2, 299040, Note_on_c, 0, 68, 0
2, 299040, Note_on_c, 0, 70, 62
2, 299040, Note_on_c, 0, 76, 62
2, 299040, Note_on_c, 0, 82, 73
2, 299510, Note_on_c, 0, 82, 0
2, 299510, Note_on_c, 0, 76, 0
2, 299510, Note_on_c, 0, 70, 0
2, 299520, Note_on_c, 0, 85, 89
2, 299520, Note_on_c, 0, 82, 75
2, 299520, Note_on_c, 0, 73, 75
2, 300000, Note_on_c, 0, 73, 0
2, 300000, Note_on_c, 0, 82, 0
2, 300000, Note_on_c, 0, 85, 0
2, 300000, Note_on_c, 0, 83, 76
2, 300000, Note_on_c, 0, 80, 64
2, 300000, Note_on_c, 0, 71, 63
2, 300480, Note_on_c, 0, 71, 0
2, 300480, Note_on_c, 0, 80, 0
2, 300480, Note_on_c, 0, 83, 0
2, 300480, Note_on_c, 0, 82, 70
2, 300480, Note_on_c, 0, 78, 70
2, 300960, Note_on_c, 0, 78, 0
2, 300960, Note_on_c, 0, 82, 0
2, 300960, Note_on_c, 0, 77, 82
2, 300960, Note_on_c, 0, 80, 82
2, 301440, Note_on_c, 0, 80, 0
2, 301440, Note_on_c, 0, 82, 75
2, 301920, Note_on_c, 0, 82, 0
2, 301920, Note_on_c, 0, 80, 68
2, 302400, Note_on_c, 0, 80, 0
2, 302400, Note_on_c, 0, 77, 0
2, 302400, Note_on_c, 0, 78, 90
2, 302880, Note_on_c, 0, 78, 0
2, 303360, Note_on_c, 0, 66, 73
2, 303360, Note_on_c, 0, 78, 86
2, 303360, Note_on_c, 0, 70, 73
2, 303840, Note_on_c, 0, 70, 0
2, 303840, Note_on_c, 0, 78, 0
2, 303840, Note_on_c, 0, 66, 0
2, 303840, Note_on_c, 0, 68, 77
2, 303840, Note_on_c, 0, 80, 91
2, 303840, Note_on_c, 0, 71, 77
2, 304800, Note_on_c, 0, 71, 0
2, 304800, Note_on_c, 0, 80, 0
2, 304800, Note_on_c, 0, 68, 0
2, 304800, Note_on_c, 0, 70, 80
2, 304800, Note_on_c, 0, 82, 95
2, 304800, Note_on_c, 0, 73, 80
2, 305280, Note_on_c, 0, 73, 0
2, 305280, Note_on_c, 0, 82, 0
2, 305280, Note_on_c, 0, 70, 0
2, 305280, Note_on_c, 0, 73, 82
2, 305280, Note_on_c, 0, 78, 97
2, 305280, Note_on_c, 0, 85, 97
2, 305760, Note_on_c, 0, 85, 0
2, 305760, Note_on_c, 0, 78, 0
2, 305760, Note_on_c, 0, 73, 0
2, 305760, Note_on_c, 0, 71, 75
2, 305760, Note_on_c, 0, 83, 89
2, 306240, Note_on_c, 0, 83, 0
2, 306240, Note_on_c, 0, 71, 0
2, 306240, Note_on_c, 0, 70, 69
2, 306240, Note_on_c, 0, 82, 82
2, 306710, Note_on_c, 0, 82, 0
2, 306710, Note_on_c, 0, 70, 0
2, 306720, Note_on_c, 0, 70, 76
2, 306720, Note_on_c, 0, 75, 90
2, 306720, Note_on_c, 0, 82, 90
2, 307200, Note_on_c, 0, 82, 0
2, 307200, Note_on_c, 0, 75, 0
2, 307200, Note_on_c, 0, 70, 0
2, 307200, Note_on_c, 0, 68, 69
2, 307200, Note_on_c, 0, 80, 81
2, 307680, Note_on_c, 0, 80, 0
2, 307680, Note_on_c, 0, 68, 0
2, 307680, Note_on_c, 0, 78, 71
2, 307680, Note_on_c, 0, 66, 60
2, 308150, Note_on_c, 0, 66, 0
2, 308150, Note_on_c, 0, 78, 0
2, 308160, Note_on_c, 0, 66, 69
2, 308160, Note_on_c, 0, 78, 82
2, 308640, Note_on_c, 0, 78, 0
2, 308640, Note_on_c, 0, 66, 0
2, 308640, Note_on_c, 0, 77, 72
2, 308640, Note_on_c, 0, 65, 61
2, 309120, Note_on_c, 0, 65, 0
2, 309120, Note_on_c, 0, 77, 0
2, 309120, Note_on_c, 0, 63, 54
2, 309120, Note_on_c, 0, 75, 64
2, 309590, Note_on_c, 0, 75, 0
2, 309590, Note_on_c, 0, 63, 0
2, 309600, Note_on_c, 0, 73, 71
2, 309600, Note_on_c, 0, 61, 60
2, 310032, Note_on_c, 0, 61, 0
2, 310032, Note_on_c, 0, 73, 0
2, 310080, Note_on_c, 0, 61, 56
2, 310080, Note_on_c, 0, 73, 66
2, 310512, Note_on_c, 0, 73, 0
2, 310512, Note_on_c, 0, 61, 0
2, 310560, Note_on_c, 0, 73, 60
2, 310560, Note_on_c, 0, 61, 51
2, 311030, Note_on_c, 0, 61, 0
2, 311030, Note_on_c, 0, 73, 0
2, 311040, Note_on_c, 0, 73, 62
2, 311040, Note_on_c, 0, 61, 52
2, 311040, Note_on_c, 0, 70, 52
2, 311520, Note_on_c, 0, 70, 0
2, 311520, Note_on_c, 0, 61, 0
2, 311520, Note_on_c, 0, 73, 0
2, 311520, Note_on_c, 0, 68, 48
2, 311520, Note_on_c, 0, 71, 57
2, 312000, Note_on_c, 0, 71, 0
2, 312000, Note_on_c, 0, 68, 0
2, 312000, Note_on_c, 0, 66, 39
2, 312000, Note_on_c, 0, 70, 46
2, 312480, Note_on_c, 0, 70, 0
2, 312480, Note_on_c, 0, 66, 0
2, 312480, Note_on_c, 0, 73, 56
2, 312480, Note_on_c, 0, 63, 47
2, 312960, Note_on_c, 0, 73, 0
2, 312960, Note_on_c, 0, 71, 49
2, 313440, Note_on_c, 0, 71, 0
2, 313440, Note_on_c, 0, 68, 41
2, 313920, Note_on_c, 0, 68, 0
2, 313920, Note_on_c, 0, 63, 0
2, 313920, Note_on_c, 0, 66, 51
2, 314160, Note_on_c, 0, 61, 43
2, 314400, Note_on_c, 0, 61, 0
2, 314400, Note_on_c, 0, 60, 43
2, 314640, Note_on_c, 0, 60, 0
2, 314640, Note_on_c, 0, 61, 40
2, 314880, Note_on_c, 0, 61, 0
2, 314880, Note_on_c, 0, 63, 43
2, 315120, Note_on_c, 0, 63, 0
2, 315120, Note_on_c, 0, 61, 40
2, 315360, Note_on_c, 0, 61, 0
2, 315360, Note_on_c, 0, 66, 0
2, 315360, Note_on_c, 0, 65, 49
2, 316800, Note_on_c, 0, 65, 0
2, 316800, Note_on_c, 0, 66, 67
2, 316800, Note_on_c, 0, 78, 79
2, 317280, Note_on_c, 0, 78, 0
2, 317280, Note_on_c, 0, 66, 0
2, 317280, Note_on_c, 0, 73, 68
2, 317280, Note_on_c, 0, 77, 68
2, 317760, Note_on_c, 0, 77, 0
2, 317760, Note_on_c, 0, 73, 0
2, 317760, Note_on_c, 0, 71, 65
2, 317760, Note_on_c, 0, 75, 65
2, 318240, Note_on_c, 0, 75, 0
2, 318240, Note_on_c, 0, 71, 0
2, 318240, Note_on_c, 0, 70, 61
2, 318240, Note_on_c, 0, 73, 61
2, 318720, Note_on_c, 0, 73, 0
2, 318720, Note_on_c, 0, 70, 0
2, 318720, Note_on_c, 0, 69, 59
2, 318720, Note_on_c, 0, 72, 59
2, 319200, Note_on_c, 0, 72, 0
2, 319200, Note_on_c, 0, 69, 0
2, 319200, Note_on_c, 0, 68, 59
2, 319200, Note_on_c, 0, 71, 59
2, 319680, Note_on_c, 0, 71, 0
2, 319680, Note_on_c, 0, 68, 0
2, 319680, Note_on_c, 0, 70, 62
2, 319680, Note_on_c, 0, 66, 55
2, 319920, Note_on_c, 0, 66, 0
2, 319920, Note_on_c, 0, 70, 0
2, 320160, Note_on_c, 0, 71, 57
2, 320160, Note_on_c, 0, 66, 50
2, 320340, Note_on_c, 0, 66, 0
2, 320340, Note_on_c, 0, 71, 0
2, 320640, Note_on_c, 0, 70, 51
2, 320640, Note_on_c, 0, 66, 45
2, 320820, Note_on_c, 0, 66, 0
2, 320820, Note_on_c, 0, 70, 0
2, 321120, Note_on_c, 0, 66, 50
2, 321120, Note_on_c, 0, 63, 50
2, 321120, Note_on_c, 0, 68, 57
2, 321300, Note_on_c, 0, 68, 0
2, 321300, Note_on_c, 0, 63, 0
2, 321300, Note_on_c, 0, 66, 0
2, 322080, Note_on_c, 0, 65, 66
2, 322320, Note_on_c, 0, 65, 0
2, 322560, Note_on_c, 0, 66, 60
2, 322560, Note_on_c, 0, 78, 71
2, 323040, Note_on_c, 0, 78, 0
2, 323040, Note_on_c, 0, 66, 0
2, 323040, Note_on_c, 0, 73, 51
2, 323040, Note_on_c, 0, 77, 61
2, 323520, Note_on_c, 0, 77, 0
2, 323520, Note_on_c, 0, 73, 0
2, 323520, Note_on_c, 0, 71, 49
2, 323520, Note_on_c, 0, 75, 58
2, 324000, Note_on_c, 0, 75, 0
2, 324000, Note_on_c, 0, 71, 0
2, 324000, Note_on_c, 0, 70, 45
2, 324000, Note_on_c, 0, 73, 54
2, 324480, Note_on_c, 0, 73, 0
2, 324480, Note_on_c, 0, 70, 0
2, 324480, Note_on_c, 0, 69, 45
2, 324480, Note_on_c, 0, 72, 53
2, 324960, Note_on_c, 0, 72, 0
2, 324960, Note_on_c, 0, 69, 0
2, 324960, Note_on_c, 0, 68, 45
2, 324960, Note_on_c, 0, 71, 53
2, 325440, Note_on_c, 0, 71, 0
2, 325440, Note_on_c, 0, 68, 0
2, 325440, Note_on_c, 0, 70, 50
2, 325680, Note_on_c, 0, 70, 0
2, 325680, Note_on_c, 0, 65, 47
2, 325920, Note_on_c, 0, 65, 0
2, 325920, Note_on_c, 0, 66, 47
2, 326160, Note_on_c, 0, 66, 0
2, 326160, Note_on_c, 0, 68, 47
2, 326400, Note_on_c, 0, 68, 0
2, 326400, Note_on_c, 0, 70, 51
2, 326640, Note_on_c, 0, 70, 0
2, 326640, Note_on_c, 0, 71, 47
2, 326880, Note_on_c, 0, 71, 0
2, 326880, Note_on_c, 0, 73, 50
2, 327120, Note_on_c, 0, 73, 0
2, 327120, Note_on_c, 0, 72, 47
2, 327360, Note_on_c, 0, 72, 0
2, 327360, Note_on_c, 0, 73, 49
2, 327600, Note_on_c, 0, 73, 0
2, 327600, Note_on_c, 0, 75, 47
2, 327840, Note_on_c, 0, 75, 0
2, 327840, Note_on_c, 0, 76, 50
2, 328080, Note_on_c, 0, 76, 0
2, 328080, Note_on_c, 0, 77, 47
2, 328320, Note_on_c, 0, 77, 0
2, 328320, Note_on_c, 0, 78, 50
2, 328560, Note_on_c, 0, 78, 0
2, 328560, Note_on_c, 0, 77, 50
2, 328800, Note_on_c, 0, 77, 0
2, 328800, Note_on_c, 0, 78, 49
2, 329040, Note_on_c, 0, 78, 0
2, 329040, Note_on_c, 0, 80, 48
2, 329280, Note_on_c, 0, 80, 0
2, 329280, Note_on_c, 0, 82, 51
2, 329520, Note_on_c, 0, 82, 0
2, 329520, Note_on_c, 0, 83, 45
2, 329760, Note_on_c, 0, 83, 0
2, 329760, Note_on_c, 0, 85, 46
2, 330000, Note_on_c, 0, 85, 0
2, 330000, Note_on_c, 0, 84, 43
2, 330240, Note_on_c, 0, 84, 0
2, 330240, Note_on_c, 0, 85, 42
2, 330480, Note_on_c, 0, 85, 0
2, 330480, Note_on_c, 0, 87, 40
2, 330720, Note_on_c, 0, 87, 0
2, 330720, Note_on_c, 0, 88, 41
2, 330960, Note_on_c, 0, 88, 0
2, 330960, Note_on_c, 0, 89, 38
2, 331200, Note_on_c, 0, 89, 0
2, 331200, Note_on_c, 0, 90, 44
2, 331440, Note_on_c, 0, 90, 0
2, 331440, Note_on_c, 0, 85, 44
2, 331680, Note_on_c, 0, 85, 0
2, 331680, Note_on_c, 0, 82, 40
2, 331920, Note_on_c, 0, 82, 0
2, 331920, Note_on_c, 0, 80, 37
2, 332160, Note_on_c, 0, 80, 0
2, 332160, Note_on_c, 0, 82, 40
2, 332400, Note_on_c, 0, 82, 0
2, 332400, Note_on_c, 0, 78, 36
2, 332640, Note_on_c, 0, 78, 0
2, 332640, Note_on_c, 0, 85, 45
2, 332880, Note_on_c, 0, 85, 0
2, 332880, Note_on_c, 0, 82, 36
2, 333120, Note_on_c, 0, 82, 0
2, 333120, Note_on_c, 0, 78, 40
2, 333360, Note_on_c, 0, 78, 0
2, 333360, Note_on_c, 0, 77, 36
2, 333600, Note_on_c, 0, 77, 0
2, 333600, Note_on_c, 0, 78, 40
2, 333840, Note_on_c, 0, 78, 0
2, 333840, Note_on_c, 0, 73, 36
2, 334080, Note_on_c, 0, 73, 0
2, 334080, Note_on_c, 0, 82, 45
2, 334320, Note_on_c, 0, 82, 0
2, 334320, Note_on_c, 0, 78, 36
2, 334560, Note_on_c, 0, 78, 0
2, 334560, Note_on_c, 0, 73, 40
2, 334800, Note_on_c, 0, 73, 0
2, 334800, Note_on_c, 0, 71, 36
2, 335040, Note_on_c, 0, 71, 0
2, 335040, Note_on_c, 0, 73, 40
2, 335280, Note_on_c, 0, 73, 0
2, 335280, Note_on_c, 0, 70, 36
2, 335520, Note_on_c, 0, 70, 0
2, 335520, Note_on_c, 0, 78, 45
2, 335760, Note_on_c, 0, 78, 0
2, 335760, Note_on_c, 0, 73, 36
2, 336000, Note_on_c, 0, 73, 0
2, 336000, Note_on_c, 0, 70, 40
2, 336240, Note_on_c, 0, 70, 0
2, 336240, Note_on_c, 0, 68, 36
2, 336480, Note_on_c, 0, 68, 0
2, 336480, Note_on_c, 0, 70, 40
2, 336720, Note_on_c, 0, 70, 0
2, 336720, Note_on_c, 0, 66, 36
2, 336960, Note_on_c, 0, 66, 0
2, 336960, Note_on_c, 0, 73, 45
2, 337200, Note_on_c, 0, 73, 0
2, 337200, Note_on_c, 0, 70, 37
2, 337440, Note_on_c, 0, 70, 0
2, 337440, Note_on_c, 0, 66, 37
2, 337680, Note_on_c, 0, 66, 0
2, 337680, Note_on_c, 0, 61, 37
2, 337920, Note_on_c, 0, 61, 0
2, 338640, Note_on_c, 0, 70, 39
2, 338880, Note_on_c, 0, 70, 0
2, 338880, Note_on_c, 0, 73, 42
2, 339120, Note_on_c, 0, 73, 0
2, 339120, Note_on_c, 0, 78, 40
2, 339360, Note_on_c, 0, 78, 0
2, 339360, Note_on_c, 0, 82, 43
2, 339600, Note_on_c, 0, 82, 0
2, 339600, Note_on_c, 0, 85, 39
2, 339840, Note_on_c, 0, 85, 0
2, 339840, Note_on_c, 0, 90, 45
2, 340080, Note_on_c, 0, 90, 0
2, 341280, Note_on_c, 0, 58, 26
2, 341280, Note_on_c, 0, 66, 26
2, 341280, Note_on_c, 0, 70, 31
2, 341760, Note_on_c, 0, 70, 0
2, 341760, Note_on_c, 0, 66, 0
2, 341760, Note_on_c, 0, 58, 0
2, 342720, Note_on_c, 0, 78, 38
2, 342720, Note_on_c, 0, 70, 32
2, 343200, Note_on_c, 0, 70, 0
2, 343200, Note_on_c, 0, 78, 0
2, 343200, End_track
3, 0, Start_track
3, 0, Title_t, "Piano left"
3, 0, Program_c, 0, 0
3, 2880, Note_on_c, 0, 30, 40
3, 2880, Note_on_c, 0, 42, 48
3, 3840, Note_on_c, 0, 42, 0
3, 3840, Note_on_c, 0, 30, 0
3, 4320, Note_on_c, 0, 42, 40
3, 4320, Note_on_c, 0, 54, 48
3, 5280, Note_on_c, 0, 54, 0
3, 5280, Note_on_c, 0, 42, 0
3, 5760, Note_on_c, 0, 62, 60
3, 5760, Note_on_c, 0, 57, 50
3, 5760, Note_on_c, 0, 54, 50
3, 6720, Note_on_c, 0, 62, 0
3, 6720, Note_on_c, 0, 61, 48
3, 7200, Note_on_c, 0, 61, 0
3, 7200, Note_on_c, 0, 60, 54
3, 7920, Note_on_c, 0, 54, 0
3, 7920, Note_on_c, 0, 57, 0
3, 8160, Note_on_c, 0, 60, 0
3, 8160, Note_on_c, 0, 57, 39
3, 8160, Note_on_c, 0, 54, 33
3, 8640, Note_on_c, 0, 54, 0
3, 8640, Note_on_c, 0, 57, 0
3, 8640, Note_on_c, 0, 53, 40
3, 8640, Note_on_c, 0, 56, 48
3, 9120, Note_on_c, 0, 56, 0
3, 9120, Note_on_c, 0, 53, 0
3, 9600, Note_on_c, 0, 49, 38
3, 9600, Note_on_c, 0, 37, 32
3, 10080, Note_on_c, 0, 37, 0
3, 10080, Note_on_c, 0, 49, 0
3, 10080, Note_on_c, 0, 42, 40
3, 10080, Note_on_c, 0, 54, 48
3, 10560, Note_on_c, 0, 54, 0
3, 10560, Note_on_c, 0, 42, 0
3, 11520, Note_on_c, 0, 35, 40
3, 11520, Note_on_c, 0, 47, 48
3, 12000, Note_on_c, 0, 47, 0
3, 12000, Note_on_c, 0, 35, 0
3, 12960, Note_on_c, 0, 49, 41
3, 12960, Note_on_c, 0, 37, 34
3, 13440, Note_on_c, 0, 37, 0
3, 13440, Note_on_c, 0, 49, 0
3, 14400, Note_on_c, 0, 30, 40
3, 14400, Note_on_c, 0, 42, 48
3, 15360, Note_on_c, 0, 42, 0
3, 15360, Note_on_c, 0, 30, 0
3, 15840, Note_on_c, 0, 42, 40
3, 15840, Note_on_c, 0, 54, 48
3, 16800, Note_on_c, 0, 54, 0
3, 16800, Note_on_c, 0, 42, 0
3, 17280, Note_on_c, 0, 62, 55
3, 17280, Note_on_c, 0, 57, 46
3, 17280, Note_on_c, 0, 54, 46
3, 18240, Note_on_c, 0, 62, 0
3, 18240, Note_on_c, 0, 61, 48
3, 18720, Note_on_c, 0, 61, 0
3, 18720, Note_on_c, 0, 60, 54
3, 19440, Note_on_c, 0, 54, 0
3, 19440, Note_on_c, 0, 57, 0
3, 19680, Note_on_c, 0, 60, 0
3, 19680, Note_on_c, 0, 57, 39
3, 19680, Note_on_c, 0, 54, 33
3, 20160, Note_on_c, 0, 54, 0
3, 20160, Note_on_c, 0, 57, 0
3, 20160, Note_on_c, 0, 53, 40
3, 20160, Note_on_c, 0, 56, 48
3, 20640, Note_on_c, 0, 56, 0
3, 20640, Note_on_c, 0, 53, 0
3, 21120, Note_on_c, 0, 54, 38
3, 21120, Note_on_c, 0, 42, 32
3, 21600, Note_on_c, 0, 42, 0
3, 21600, Note_on_c, 0, 47, 40
3, 22080, Note_on_c, 0, 47, 0
3, 22080, Note_on_c, 0, 54, 0
3, 22560, Note_on_c, 0, 54, 38
3, 22560, Note_on_c, 0, 42, 32
3, 23040, Note_on_c, 0, 42, 0
3, 23040, Note_on_c, 0, 54, 0
3, 23040, Note_on_c, 0, 47, 48
3, 24480, Note_on_c, 0, 47, 0
3, 24480, Note_on_c, 0, 49, 40
3, 25440, Note_on_c, 0, 49, 0
3, 25440, Note_on_c, 0, 54, 38
3, 25440, Note_on_c, 0, 42, 32
3, 25920, Note_on_c, 0, 42, 0
3, 25920, Note_on_c, 0, 47, 40
3, 26400, Note_on_c, 0, 47, 0
3, 26400, Note_on_c, 0, 54, 0
3, 26880, Note_on_c, 0, 54, 38
3, 26880, Note_on_c, 0, 42, 32
3, 27360, Note_on_c, 0, 42, 0
3, 27360, Note_on_c, 0, 47, 40
3, 27840, Note_on_c, 0, 47, 0
3, 27840, Note_on_c, 0, 54, 0
3, 28320, Note_on_c, 0, 54, 38
3, 28320, Note_on_c, 0, 42, 32
3, 28800, Note_on_c, 0, 42, 0
3, 28800, Note_on_c, 0, 54, 0
3, 28800, Note_on_c, 0, 47, 48
3, 30240, Note_on_c, 0, 47, 0
3, 30240, Note_on_c, 0, 49, 40
3, 31200, Note_on_c, 0, 49, 0
3, 31200, Note_on_c, 0, 54, 38
3, 31200, Note_on_c, 0, 42, 32
3, 31680, Note_on_c, 0, 42, 0
3, 31680, Note_on_c, 0, 47, 40
3, 32160, Note_on_c, 0, 47, 0
3, 32160, Note_on_c, 0, 54, 0
3, 32640, Note_on_c, 0, 61, 38
3, 33120, Note_on_c, 0, 61, 0
3, 33120, Note_on_c, 0, 59, 42
3, 33600, Note_on_c, 0, 59, 0
3, 33600, Note_on_c, 0, 57, 46
3, 34080, Note_on_c, 0, 57, 0
3, 34080, Note_on_c, 0, 56, 50
3, 34560, Note_on_c, 0, 56, 0
3, 34560, Note_on_c, 0, 54, 54
3, 35040, Note_on_c, 0, 54, 0
3, 35040, Note_on_c, 0, 52, 63
3, 35520, Note_on_c, 0, 52, 0
3, 35520, Note_on_c, 0, 50, 72
3, 36000, Note_on_c, 0, 50, 0
3, 36000, Note_on_c, 0, 49, 84
3, 36480, Note_on_c, 0, 49, 0
3, 36480, Note_on_c, 0, 45, 82
3, 36960, Note_on_c, 0, 45, 0
3, 36960, Note_on_c, 0, 43, 82
3, 37440, Note_on_c, 0, 43, 0
3, 37440, Note_on_c, 0, 42, 86
3, 39840, Note_on_c, 0, 42, 0
3, 39840, Note_on_c, 0, 46, 72
3, 40320, Note_on_c, 0, 46, 0
3, 40320, Note_on_c, 0, 47, 70
3, 41280, Note_on_c, 0, 47, 0
3, 41280, Note_on_c, 0, 44, 57
3, 41760, Note_on_c, 0, 44, 0
3, 41760, Note_on_c, 0, 45, 55
3, 42720, Note_on_c, 0, 45, 0
3, 42720, Note_on_c, 0, 39, 44
3, 43200, Note_on_c, 0, 39, 0
3, 43200, Note_on_c, 0, 40, 47
3, 43680, Note_on_c, 0, 40, 0
3, 43680, Note_on_c, 0, 52, 69
3, 43680, Note_on_c, 0, 44, 58
3, 44160, Note_on_c, 0, 44, 0
3, 44160, Note_on_c, 0, 52, 0
3, 44160, Note_on_c, 0, 45, 53
3, 44640, Note_on_c, 0, 45, 0
3, 44640, Note_on_c, 0, 40, 54
3, 45120, Note_on_c, 0, 40, 0
3, 45120, Note_on_c, 0, 52, 69
3, 45120, Note_on_c, 0, 44, 58
3, 45600, Note_on_c, 0, 44, 0
3, 45600, Note_on_c, 0, 52, 0
3, 45600, Note_on_c, 0, 45, 53
3, 46080, Note_on_c, 0, 45, 0
3, 46080, Note_on_c, 0, 40, 54
3, 46560, Note_on_c, 0, 40, 0
3, 46560, Note_on_c, 0, 52, 69
3, 46560, Note_on_c, 0, 44, 58
3, 47040, Note_on_c, 0, 44, 0
3, 47040, Note_on_c, 0, 52, 0
3, 47040, Note_on_c, 0, 45, 53
3, 47520, Note_on_c, 0, 45, 0
3, 47520, Note_on_c, 0, 40, 54
3, 48000, Note_on_c, 0, 40, 0
3, 48000, Note_on_c, 0, 52, 69
3, 48000, Note_on_c, 0, 44, 58
3, 48480, Note_on_c, 0, 44, 0
3, 48480, Note_on_c, 0, 52, 0
3, 48480, Note_on_c, 0, 45, 53
3, 48960, Note_on_c, 0, 45, 0
3, 48960, Note_on_c, 0, 40, 54
3, 49440, Note_on_c, 0, 40, 0
3, 54240, Note_on_c, 0, 40, 54
3, 54720, Note_on_c, 0, 40, 0
3, 54720, Note_on_c, 0, 45, 64
3, 54720, Note_on_c, 0, 37, 64
3, 55680, Note_on_c, 0, 37, 0
3, 56160, Note_on_c, 0, 42, 58
3, 56640, Note_on_c, 0, 45, 0
3, 56640, Note_on_c, 0, 44, 62
3, 57120, Note_on_c, 0, 44, 0
3, 57120, Note_on_c, 0, 42, 0
3, 57120, Note_on_c, 0, 45, 70
3, 57600, Note_on_c, 0, 45, 0
3, 57600, Note_on_c, 0, 47, 72
3, 57600, Note_on_c, 0, 40, 72
3, 58560, Note_on_c, 0, 40, 0
3, 59040, Note_on_c, 0, 47, 0
3, 59040, Note_on_c, 0, 45, 54
3, 59040, Note_on_c, 0, 49, 54
3, 60000, Note_on_c, 0, 45, 0
3, 60480, Note_on_c, 0, 49, 0
3, 60480, Note_on_c, 0, 38, 73
3, 60480, Note_on_c, 0, 52, 73
3, 60960, Note_on_c, 0, 52, 0
3, 60960, Note_on_c, 0, 50, 62
3, 61440, Note_on_c, 0, 50, 0
3, 61440, Note_on_c, 0, 38, 0
3, 61440, Note_on_c, 0, 49, 54
3, 61920, Note_on_c, 0, 49, 0
3, 61920, Note_on_c, 0, 40, 66
3, 61920, Note_on_c, 0, 47, 66
3, 62400, Note_on_c, 0, 47, 0
3, 62400, Note_on_c, 0, 49, 49
3, 62880, Note_on_c, 0, 49, 0
3, 62880, Note_on_c, 0, 40, 0
3, 62880, Note_on_c, 0, 47, 41
3, 63360, Note_on_c, 0, 47, 0
3, 63360, Note_on_c, 0, 45, 50
3, 65760, Note_on_c, 0, 45, 0
3, 65760, Note_on_c, 0, 49, 36
3, 66000, Note_on_c, 0, 49, 0
3, 66000, Note_on_c, 0, 45, 36
3, 66240, Note_on_c, 0, 45, 0
3, 66240, Note_on_c, 0, 42, 48
3, 66480, Note_on_c, 0, 42, 0
3, 66480, Note_on_c, 0, 45, 36
3, 66720, Note_on_c, 0, 45, 0
3, 66720, Note_on_c, 0, 47, 36
3, 66960, Note_on_c, 0, 47, 0
3, 66960, Note_on_c, 0, 49, 36
3, 67200, Note_on_c, 0, 49, 0
3, 67200, Note_on_c, 0, 47, 37
3, 67440, Note_on_c, 0, 47, 0
3, 67440, Note_on_c, 0, 45, 37
3, 67680, Note_on_c, 0, 45, 0
3, 67680, Note_on_c, 0, 51, 47
3, 67920, Note_on_c, 0, 51, 0
3, 67920, Note_on_c, 0, 42, 37
3, 68160, Note_on_c, 0, 42, 0
3, 68160, Note_on_c, 0, 44, 51
3, 68400, Note_on_c, 0, 44, 0
3, 68400, Note_on_c, 0, 45, 45
3, 68640, Note_on_c, 0, 45, 0
3, 68640, Note_on_c, 0, 44, 56
3, 68880, Note_on_c, 0, 44, 0
3, 68880, Note_on_c, 0, 42, 50
3, 69120, Note_on_c, 0, 42, 0
3, 69120, Note_on_c, 0, 40, 65
3, 69360, Note_on_c, 0, 40, 0
3, 69360, Note_on_c, 0, 50, 38
3, 69600, Note_on_c, 0, 50, 0
3, 69600, Note_on_c, 0, 52, 52
3, 69840, Note_on_c, 0, 52, 0
3, 69840, Note_on_c, 0, 54, 39
3, 70080, Note_on_c, 0, 54, 0
3, 70080, Note_on_c, 0, 52, 51
3, 70320, Note_on_c, 0, 52, 0
3, 70320, Note_on_c, 0, 50, 47
3, 70560, Note_on_c, 0, 50, 0
3, 70560, Note_on_c, 0, 55, 67
3, 70560, Note_on_c, 0, 45, 67
3, 70800, Note_on_c, 0, 45, 0
3, 70800, Note_on_c, 0, 55, 0
3, 70800, Note_on_c, 0, 52, 49
3, 71040, Note_on_c, 0, 52, 0
3, 71040, Note_on_c, 0, 49, 54
3, 71280, Note_on_c, 0, 49, 0
3, 71280, Note_on_c, 0, 47, 47
3, 71520, Note_on_c, 0, 47, 0
3, 71520, Note_on_c, 0, 43, 57
3, 71760, Note_on_c, 0, 43, 0
3, 71760, Note_on_c, 0, 40, 53
3, 72000, Note_on_c, 0, 40, 0
3, 72000, Note_on_c, 0, 38, 72
3, 72240, Note_on_c, 0, 38, 0
3, 72240, Note_on_c, 0, 42, 51
3, 72480, Note_on_c, 0, 42, 0
3, 72480, Note_on_c, 0, 44, 58
3, 72720, Note_on_c, 0, 44, 0
3, 72720, Note_on_c, 0, 45, 48
3, 72960, Note_on_c, 0, 45, 0
3, 72960, Note_on_c, 0, 47, 55
3, 73200, Note_on_c, 0, 47, 0
3, 73200, Note_on_c, 0, 49, 47
3, 73440, Note_on_c, 0, 49, 0
3, 73440, Note_on_c, 0, 50, 64
3, 73440, Note_on_c, 0, 40, 64
3, 73680, Note_on_c, 0, 40, 0
3, 73680, Note_on_c, 0, 50, 0
3, 73680, Note_on_c, 0, 49, 49
3, 73920, Note_on_c, 0, 49, 0
3, 73920, Note_on_c, 0, 50, 55
3, 74160, Note_on_c, 0, 50, 0
3, 74160, Note_on_c, 0, 47, 48
3, 74400, Note_on_c, 0, 47, 0
3, 74400, Note_on_c, 0, 52, 54
3, 74640, Note_on_c, 0, 52, 0
3, 74640, Note_on_c, 0, 50, 41
3, 74880, Note_on_c, 0, 50, 0
3, 74880, Note_on_c, 0, 49, 60
3, 74880, Note_on_c, 0, 45, 60
3, 75120, Note_on_c, 0, 45, 0
3, 75120, Note_on_c, 0, 49, 0
3, 75120, Note_on_c, 0, 52, 54
3, 75360, Note_on_c, 0, 52, 0
3, 75360, Note_on_c, 0, 50, 54
3, 75600, Note_on_c, 0, 50, 0
3, 75600, Note_on_c, 0, 49, 54
3, 75840, Note_on_c, 0, 49, 0
3, 75840, Note_on_c, 0, 47, 54
3, 76080, Note_on_c, 0, 47, 0
3, 76080, Note_on_c, 0, 45, 51
3, 76320, Note_on_c, 0, 45, 0
3, 76320, Note_on_c, 0, 44, 55
3, 76560, Note_on_c, 0, 44, 0
3, 76560, Note_on_c, 0, 45, 55
3, 76800, Note_on_c, 0, 45, 0
3, 76800, Note_on_c, 0, 43, 57
3, 77040, Note_on_c, 0, 43, 0
3, 77040, Note_on_c, 0, 45, 60
3, 77280, Note_on_c, 0, 45, 0
3, 77280, Note_on_c, 0, 42, 61
3, 77520, Note_on_c, 0, 42, 0
3, 77520, Note_on_c, 0, 46, 65
3, 77760, Note_on_c, 0, 46, 0
3, 77760, Note_on_c, 0, 38, 75
3, 78000, Note_on_c, 0, 38, 0
3, 78000, Note_on_c, 0, 42, 53
3, 78240, Note_on_c, 0, 42, 0
3, 78240, Note_on_c, 0, 44, 62
3, 78480, Note_on_c, 0, 44, 0
3, 78480, Note_on_c, 0, 45, 50
3, 78720, Note_on_c, 0, 45, 0
3, 78720, Note_on_c, 0, 47, 65
3, 78960, Note_on_c, 0, 47, 0
3, 78960, Note_on_c, 0, 49, 49
3, 79200, Note_on_c, 0, 49, 0
3, 79200, Note_on_c, 0, 50, 73
3, 79440, Note_on_c, 0, 50, 0
3, 79440, Note_on_c, 0, 40, 51
3, 79680, Note_on_c, 0, 40, 0
3, 79680, Note_on_c, 0, 52, 64
3, 79920, Note_on_c, 0, 52, 0
3, 79920, Note_on_c, 0, 40, 50
3, 80160, Note_on_c, 0, 40, 0
3, 80160, Note_on_c, 0, 50, 56
3, 80400, Note_on_c, 0, 50, 0
3, 80400, Note_on_c, 0, 40, 43
3, 80640, Note_on_c, 0, 40, 0
3, 80640, Note_on_c, 0, 45, 63
3, 80880, Note_on_c, 0, 49, 48
3, 81120, Note_on_c, 0, 49, 0
3, 81120, Note_on_c, 0, 50, 50
3, 81360, Note_on_c, 0, 50, 0
3, 81360, Note_on_c, 0, 52, 46
3, 81600, Note_on_c, 0, 52, 0
3, 81600, Note_on_c, 0, 54, 47
3, 81840, Note_on_c, 0, 54, 0
3, 81840, Note_on_c, 0, 50, 45
3, 82080, Note_on_c, 0, 50, 0
3, 82080, Note_on_c, 0, 52, 45
3, 82320, Note_on_c, 0, 52, 0
3, 82320, Note_on_c, 0, 45, 0
3, 82320, Note_on_c, 0, 54, 41
3, 82560, Note_on_c, 0, 54, 0
3, 82560, Note_on_c, 0, 56, 43
3, 82800, Note_on_c, 0, 56, 0
3, 82800, Note_on_c, 0, 52, 41
3, 83040, Note_on_c, 0, 52, 0
3, 83040, Note_on_c, 0, 54, 42
3, 83280, Note_on_c, 0, 54, 0
3, 83280, Note_on_c, 0, 56, 37
3, 83520, Note_on_c, 0, 56, 0
3, 83520, Note_on_c, 0, 57, 42
3, 83760, Note_on_c, 0, 57, 0
3, 84000, Note_on_c, 0, 66, 38
3, 84180, Note_on_c, 0, 66, 0
3, 84480, Note_on_c, 0, 64, 32
3, 84660, Note_on_c, 0, 64, 0
3, 84960, Note_on_c, 0, 63, 38
3, 85140, Note_on_c, 0, 63, 0
3, 85920, Note_on_c, 0, 62, 38
3, 86160, Note_on_c, 0, 62, 0
3, 86400, Note_on_c, 0, 57, 63
3, 86640, Note_on_c, 0, 61, 48
3, 86880, Note_on_c, 0, 61, 0
3, 86880, Note_on_c, 0, 62, 50
3, 87120, Note_on_c, 0, 62, 0
3, 87120, Note_on_c, 0, 64, 46
3, 87360, Note_on_c, 0, 64, 0
3, 87360, Note_on_c, 0, 66, 47
3, 87600, Note_on_c, 0, 66, 0
3, 87600, Note_on_c, 0, 62, 45
3, 87840, Note_on_c, 0, 62, 0
3, 87840, Note_on_c, 0, 64, 45
3, 88080, Note_on_c, 0, 64, 0
3, 88080, Note_on_c, 0, 57, 0
3, 88080, Note_on_c, 0, 66, 41
3, 88320, Note_on_c, 0, 66, 0
3, 88320, Note_on_c, 0, 68, 43
3, 88560, Note_on_c, 0, 68, 0
3, 88560, Note_on_c, 0, 64, 41
3, 88800, Note_on_c, 0, 64, 0
3, 88800, Note_on_c, 0, 66, 42
3, 89040, Note_on_c, 0, 66, 0
3, 89040, Note_on_c, 0, 68, 37
3, 89280, Note_on_c, 0, 68, 0
3, 89280, Note_on_c, 0, 69, 56
3, 89760, Note_on_c, 0, 64, 54
3, 89760, Note_on_c, 0, 68, 64
3, 90240, Note_on_c, 0, 68, 0
3, 90240, Note_on_c, 0, 64, 0
3, 90240, Note_on_c, 0, 62, 51
3, 90240, Note_on_c, 0, 66, 61
3, 90720, Note_on_c, 0, 66, 0
3, 90720, Note_on_c, 0, 62, 0
3, 90720, Note_on_c, 0, 61, 48
3, 90720, Note_on_c, 0, 64, 57
3, 90960, Note_on_c, 0, 69, 0
3, 91200, Note_on_c, 0, 64, 0
3, 91200, Note_on_c, 0, 61, 0
3, 91200, Note_on_c, 0, 60, 47
3, 91200, Note_on_c, 0, 63, 56
3, 91680, Note_on_c, 0, 63, 0
3, 91680, Note_on_c, 0, 60, 0
3, 91680, Note_on_c, 0, 59, 47
3, 91680, Note_on_c, 0, 62, 56
3, 92160, Note_on_c, 0, 62, 0
3, 92160, Note_on_c, 0, 59, 0
3, 92160, Note_on_c, 0, 57, 47
3, 92160, Note_on_c, 0, 61, 56
3, 92640, Note_on_c, 0, 61, 0
3, 92640, Note_on_c, 0, 57, 0
3, 92640, Note_on_c, 0, 52, 48
3, 92640, Note_on_c, 0, 56, 57
3, 93120, Note_on_c, 0, 56, 0
3, 93120, Note_on_c, 0, 52, 0
3, 93120, Note_on_c, 0, 50, 44
3, 93120, Note_on_c, 0, 54, 53
3, 93600, Note_on_c, 0, 54, 0
3, 93600, Note_on_c, 0, 50, 0
3, 93600, Note_on_c, 0, 49, 40
3, 93600, Note_on_c, 0, 52, 48
3, 94080, Note_on_c, 0, 52, 0
3, 94080, Note_on_c, 0, 49, 0
3, 94080, Note_on_c, 0, 48, 39
3, 94080, Note_on_c, 0, 51, 46
3, 94560, Note_on_c, 0, 51, 0
3, 94560, Note_on_c, 0, 48, 0
3, 94560, Note_on_c, 0, 47, 37
3, 94560, Note_on_c, 0, 50, 44
3, 95040, Note_on_c, 0, 50, 0
3, 95040, Note_on_c, 0, 47, 0
3, 95040, Note_on_c, 0, 45, 39
3, 95040, Note_on_c, 0, 49, 43
3, 96480, Note_on_c, 0, 49, 0
3, 96480, Note_on_c, 0, 45, 0
3, 97920, Note_on_c, 0, 30, 40
3, 97920, Note_on_c, 0, 42, 48
3, 98880, Note_on_c, 0, 42, 0
3, 98880, Note_on_c, 0, 30, 0
3, 99360, Note_on_c, 0, 42, 40
3, 99360, Note_on_c, 0, 54, 48
3, 100320, Note_on_c, 0, 54, 0
3, 100320, Note_on_c, 0, 42, 0
3, 100800, Note_on_c, 0, 62, 60
3, 100800, Note_on_c, 0, 57, 50
3, 100800, Note_on_c, 0, 54, 50
3, 101760, Note_on_c, 0, 62, 0
3, 101760, Note_on_c, 0, 61, 48
3, 102240, Note_on_c, 0, 61, 0
3, 102240, Note_on_c, 0, 60, 54
3, 102960, Note_on_c, 0, 54, 0
3, 102960, Note_on_c, 0, 57, 0
3, 103200, Note_on_c, 0, 60, 0
3, 103200, Note_on_c, 0, 57, 39
3, 103200, Note_on_c, 0, 54, 33
3, 103680, Note_on_c, 0, 54, 0
3, 103680, Note_on_c, 0, 57, 0
3, 103680, Note_on_c, 0, 53, 40
3, 103680, Note_on_c, 0, 56, 48
3, 104160, Note_on_c, 0, 56, 0
3, 104160, Note_on_c, 0, 53, 0
3, 104640, Note_on_c, 0, 49, 38
3, 104640, Note_on_c, 0, 37, 32
3, 105120, Note_on_c, 0, 37, 0
3, 105120, Note_on_c, 0, 49, 0
3, 105120, Note_on_c, 0, 42, 40
3, 105120, Note_on_c, 0, 54, 48
3, 105600, Note_on_c, 0, 54, 0
3, 105600, Note_on_c, 0, 42, 0
3, 106560, Note_on_c, 0, 35, 40
3, 106560, Note_on_c, 0, 47, 48
3, 107040, Note_on_c, 0, 47, 0
3, 107040, Note_on_c, 0, 35, 0
3, 108000, Note_on_c, 0, 49, 41
3, 108000, Note_on_c, 0, 37, 34
3, 108480, Note_on_c, 0, 37, 0
3, 108480, Note_on_c, 0, 49, 0
3, 109440, Note_on_c, 0, 30, 40
3, 109440, Note_on_c, 0, 42, 48
3, 110400, Note_on_c, 0, 42, 0
3, 110400, Note_on_c, 0, 30, 0
3, 110880, Note_on_c, 0, 42, 40
3, 110880, Note_on_c, 0, 54, 48
3, 111840, Note_on_c, 0, 54, 0
3, 111840, Note_on_c, 0, 42, 0
3, 112320, Note_on_c, 0, 62, 55
3, 112320, Note_on_c, 0, 57, 46
3, 112320, Note_on_c, 0, 54, 46
3, 113280, Note_on_c, 0, 62, 0
3, 113280, Note_on_c, 0, 61, 48
3, 113760, Note_on_c, 0, 61, 0
3, 113760, Note_on_c, 0, 60, 54
3, 114480, Note_on_c, 0, 54, 0
3, 114480, Note_on_c, 0, 57, 0
3, 114720, Note_on_c, 0, 60, 0
3, 114720, Note_on_c, 0, 57, 39
3, 114720, Note_on_c, 0, 54, 33
3, 115200, Note_on_c, 0, 54, 0
3, 115200, Note_on_c, 0, 57, 0
3, 115200, Note_on_c, 0, 53, 40
3, 115200, Note_on_c, 0, 56, 48
3, 115680, Note_on_c, 0, 56, 0
3, 115680, Note_on_c, 0, 53, 0
3, 116160, Note_on_c, 0, 54, 38
3, 116160, Note_on_c, 0, 42, 32
3, 116640, Note_on_c, 0, 42, 0
3, 116640, Note_on_c, 0, 47, 40
3, 117120, Note_on_c, 0, 47, 0
3, 117120, Note_on_c, 0, 54, 0
3, 117600, Note_on_c, 0, 54, 38
3, 117600, Note_on_c, 0, 42, 32
3, 118080, Note_on_c, 0, 42, 0
3, 118080, Note_on_c, 0, 54, 0
3, 118080, Note_on_c, 0, 47, 48
3, 119520, Note_on_c, 0, 47, 0
3, 119520, Note_on_c, 0, 49, 40
3, 120480, Note_on_c, 0, 49, 0
3, 120480, Note_on_c, 0, 54, 38
3, 120480, Note_on_c, 0, 42, 32
3, 120960, Note_on_c, 0, 42, 0
3, 120960, Note_on_c, 0, 47, 40
3, 121440, Note_on_c, 0, 47, 0
3, 121440, Note_on_c, 0, 54, 0
3, 121920, Note_on_c, 0, 54, 38
3, 121920, Note_on_c, 0, 42, 32
3, 122400, Note_on_c, 0, 42, 0
3, 122400, Note_on_c, 0, 47, 40
3, 122880, Note_on_c, 0, 47, 0
3, 122880, Note_on_c, 0, 54, 0
3, 123360, Note_on_c, 0, 54, 38
3, 123360, Note_on_c, 0, 42, 32
3, 123840, Note_on_c, 0, 42, 0
3, 123840, Note_on_c, 0, 54, 0
3, 123840, Note_on_c, 0, 47, 48
3, 125280, Note_on_c, 0, 47, 0
3, 125280, Note_on_c, 0, 49, 40
3, 126240, Note_on_c, 0, 49, 0
3, 126240, Note_on_c, 0, 54, 38
3, 126240, Note_on_c, 0, 42, 32
3, 126720, Note_on_c, 0, 42, 0
3, 126720, Note_on_c, 0, 47, 40
3, 127200, Note_on_c, 0, 47, 0
3, 127200, Note_on_c, 0, 54, 0
3, 127680, Note_on_c, 0, 61, 38
3, 128160, Note_on_c, 0, 61, 0
3, 128160, Note_on_c, 0, 59, 42
3, 128640, Note_on_c, 0, 59, 0
3, 128640, Note_on_c, 0, 57, 46
3, 129120, Note_on_c, 0, 57, 0
3, 129120, Note_on_c, 0, 56, 50
3, 129600, Note_on_c, 0, 56, 0
3, 129600, Note_on_c, 0, 54, 54
3, 130080, Note_on_c, 0, 54, 0
3, 130080, Note_on_c, 0, 52, 63
3, 130560, Note_on_c, 0, 52, 0
3, 130560, Note_on_c, 0, 50, 72
3, 131040, Note_on_c, 0, 50, 0
3, 131040, Note_on_c, 0, 49, 84
3, 131520, Note_on_c, 0, 49, 0
3, 131520, Note_on_c, 0, 45, 82
3, 132000, Note_on_c, 0, 45, 0
3, 132000, Note_on_c, 0, 43, 82
3, 132480, Note_on_c, 0, 43, 0
3, 132480, Note_on_c, 0, 42, 86
3, 134880, Note_on_c, 0, 42, 0
3, 134880, Note_on_c, 0, 46, 72
3, 135360, Note_on_c, 0, 46, 0
3, 135360, Note_on_c, 0, 47, 70
3, 136320, Note_on_c, 0, 47, 0
3, 136320, Note_on_c, 0, 44, 57
3, 136800, Note_on_c, 0, 44, 0
3, 136800, Note_on_c, 0, 45, 55
3, 137760, Note_on_c, 0, 45, 0
3, 137760, Note_on_c, 0, 39, 44
3, 138240, Note_on_c, 0, 39, 0
3, 138240, Note_on_c, 0, 40, 47
3, 138720, Note_on_c, 0, 40, 0
3, 138720, Note_on_c, 0, 52, 69
3, 138720, Note_on_c, 0, 44, 58
3, 139200, Note_on_c, 0, 44, 0
3, 139200, Note_on_c, 0, 52, 0
3, 139200, Note_on_c, 0, 45, 53
3, 139680, Note_on_c, 0, 45, 0
3, 139680, Note_on_c, 0, 40, 54
3, 140160, Note_on_c, 0, 40, 0
3, 140160, Note_on_c, 0, 52, 69
3, 140160, Note_on_c, 0, 44, 58
3, 140640, Note_on_c, 0, 44, 0
3, 140640, Note_on_c, 0, 52, 0
3, 140640, Note_on_c, 0, 45, 53
3, 141120, Note_on_c, 0, 45, 0
3, 141120, Note_on_c, 0, 40, 54
3, 141600, Note_on_c, 0, 40, 0
3, 141600, Note_on_c, 0, 52, 69
3, 141600, Note_on_c, 0, 44, 58
3, 142080, Note_on_c, 0, 44, 0
3, 142080, Note_on_c, 0, 52, 0
3, 142080, Note_on_c, 0, 45, 53
3, 142560, Note_on_c, 0, 45, 0
3, 142560, Note_on_c, 0, 40, 54
3, 143040, Note_on_c, 0, 40, 0
3, 143040, Note_on_c, 0, 52, 69
3, 143040, Note_on_c, 0, 44, 58
3, 143520, Note_on_c, 0, 44, 0
3, 143520, Note_on_c, 0, 52, 0
3, 143520, Note_on_c, 0, 45, 53
3, 144000, Note_on_c, 0, 45, 0
3, 144000, Note_on_c, 0, 40, 54
3, 144480, Note_on_c, 0, 40, 0
3, 149280, Note_on_c, 0, 40, 54
3, 149760, Note_on_c, 0, 40, 0
3, 149760, Note_on_c, 0, 37, 64
3, 149760, Note_on_c, 0, 45, 64
3, 150720, Note_on_c, 0, 37, 0
3, 151200, Note_on_c, 0, 42, 58
3, 151680, Note_on_c, 0, 45, 0
3, 151680, Note_on_c, 0, 44, 62
3, 152160, Note_on_c, 0, 44, 0
3, 152160, Note_on_c, 0, 42, 0
3, 152160, Note_on_c, 0, 45, 70
3, 152640, Note_on_c, 0, 45, 0
3, 152640, Note_on_c, 0, 47, 72
3, 152640, Note_on_c, 0, 40, 72
3, 153600, Note_on_c, 0, 40, 0
3, 154080, Note_on_c, 0, 47, 0
3, 154080, Note_on_c, 0, 45, 54
3, 154080, Note_on_c, 0, 49, 54
3, 155040, Note_on_c, 0, 45, 0
3, 155520, Note_on_c, 0, 49, 0
3, 155520, Note_on_c, 0, 52, 73
3, 155520, Note_on_c, 0, 38, 73
3, 156000, Note_on_c, 0, 52, 0
3, 156000, Note_on_c, 0, 50, 62
3, 156480, Note_on_c, 0, 50, 0
3, 156480, Note_on_c, 0, 38, 0
3, 156480, Note_on_c, 0, 49, 54
3, 156960, Note_on_c, 0, 49, 0
3, 156960, Note_on_c, 0, 47, 66
3, 156960, Note_on_c, 0, 40, 66
3, 157440, Note_on_c, 0, 47, 0
3, 157440, Note_on_c, 0, 49, 49
3, 157920, Note_on_c, 0, 49, 0
3, 157920, Note_on_c, 0, 40, 0
3, 157920, Note_on_c, 0, 47, 41
3, 158400, Note_on_c, 0, 47, 0
3, 158400, Note_on_c, 0, 45, 50
3, 160800, Note_on_c, 0, 45, 0
3, 160800, Note_on_c, 0, 49, 36
3, 161040, Note_on_c, 0, 49, 0
3, 161040, Note_on_c, 0, 45, 36
3, 161280, Note_on_c, 0, 45, 0
3, 161280, Note_on_c, 0, 42, 48
3, 161520, Note_on_c, 0, 42, 0
3, 161520, Note_on_c, 0, 45, 36
3, 161760, Note_on_c, 0, 45, 0
3, 161760, Note_on_c, 0, 47, 36
3, 162000, Note_on_c, 0, 47, 0
3, 162000, Note_on_c, 0, 49, 36
3, 162240, Note_on_c, 0, 49, 0
3, 162240, Note_on_c, 0, 47, 37
3, 162480, Note_on_c, 0, 47, 0
3, 162480, Note_on_c, 0, 45, 37
3, 162720, Note_on_c, 0, 45, 0
3, 162720, Note_on_c, 0, 51, 47
3, 162960, Note_on_c, 0, 51, 0
3, 162960, Note_on_c, 0, 42, 37
3, 163200, Note_on_c, 0, 42, 0
3, 163200, Note_on_c, 0, 44, 51
3, 163440, Note_on_c, 0, 44, 0
3, 163440, Note_on_c, 0, 45, 45
3, 163680, Note_on_c, 0, 45, 0
3, 163680, Note_on_c, 0, 44, 56
3, 163920, Note_on_c, 0, 44, 0
3, 163920, Note_on_c, 0, 42, 50
3, 164160, Note_on_c, 0, 42, 0
3, 164160, Note_on_c, 0, 40, 65
3, 164400, Note_on_c, 0, 40, 0
3, 164400, Note_on_c, 0, 50, 38
3, 164640, Note_on_c, 0, 50, 0
3, 164640, Note_on_c, 0, 52, 52
3, 164880, Note_on_c, 0, 52, 0
3, 164880, Note_on_c, 0, 54, 39
3, 165120, Note_on_c, 0, 54, 0
3, 165120, Note_on_c, 0, 52, 51
3, 165360, Note_on_c, 0, 52, 0
3, 165360, Note_on_c, 0, 50, 47
3, 165600, Note_on_c, 0, 50, 0
3, 165600, Note_on_c, 0, 55, 67
3, 165600, Note_on_c, 0, 45, 67
3, 165840, Note_on_c, 0, 45, 0
3, 165840, Note_on_c, 0, 55, 0
3, 165840, Note_on_c, 0, 52, 49
3, 166080, Note_on_c, 0, 52, 0
3, 166080, Note_on_c, 0, 49, 62
3, 166320, Note_on_c, 0, 49, 0
3, 166320, Note_on_c, 0, 47, 56
3, 166560, Note_on_c, 0, 47, 0
3, 166560, Note_on_c, 0, 43, 65
3, 166800, Note_on_c, 0, 43, 0
3, 166800, Note_on_c, 0, 40, 62
3, 167040, Note_on_c, 0, 40, 0
3, 167040, Note_on_c, 0, 38, 72
3, 167280, Note_on_c, 0, 38, 0
3, 167280, Note_on_c, 0, 42, 51
3, 167520, Note_on_c, 0, 42, 0
3, 167520, Note_on_c, 0, 44, 58
3, 167760, Note_on_c, 0, 44, 0
3, 167760, Note_on_c, 0, 45, 48
3, 168000, Note_on_c, 0, 45, 0
3, 168000, Note_on_c, 0, 47, 55
3, 168240, Note_on_c, 0, 47, 0
3, 168240, Note_on_c, 0, 49, 47
3, 168480, Note_on_c, 0, 49, 0
3, 168480, Note_on_c, 0, 50, 64
3, 168480, Note_on_c, 0, 40, 64
3, 168720, Note_on_c, 0, 40, 0
3, 168720, Note_on_c, 0, 50, 0
3, 168720, Note_on_c, 0, 49, 49
3, 168960, Note_on_c, 0, 49, 0
3, 168960, Note_on_c, 0, 50, 55
3, 169200, Note_on_c, 0, 50, 0
3, 169200, Note_on_c, 0, 47, 48
3, 169440, Note_on_c, 0, 47, 0
3, 169440, Note_on_c, 0, 52, 54
3, 169680, Note_on_c, 0, 52, 0
3, 169680, Note_on_c, 0, 50, 41
3, 169920, Note_on_c, 0, 50, 0
3, 169920, Note_on_c, 0, 49, 60
3, 169920, Note_on_c, 0, 45, 60
3, 170160, Note_on_c, 0, 45, 0
3, 170160, Note_on_c, 0, 49, 0
3, 170160, Note_on_c, 0, 52, 54
3, 170400, Note_on_c, 0, 52, 0
3, 170400, Note_on_c, 0, 50, 54
3, 170640, Note_on_c, 0, 50, 0
3, 170640, Note_on_c, 0, 49, 54
3, 170880, Note_on_c, 0, 49, 0
3, 170880, Note_on_c, 0, 47, 54
3, 171120, Note_on_c, 0, 47, 0
3, 171120, Note_on_c, 0, 45, 51
3, 171360, Note_on_c, 0, 45, 0
3, 171360, Note_on_c, 0, 44, 55
3, 171600, Note_on_c, 0, 44, 0
3, 171600, Note_on_c, 0, 45, 55
3, 171840, Note_on_c, 0, 45, 0
3, 171840, Note_on_c, 0, 43, 57
3, 172080, Note_on_c, 0, 43, 0
3, 172080, Note_on_c, 0, 45, 60
3, 172320, Note_on_c, 0, 45, 0
3, 172320, Note_on_c, 0, 42, 61
3, 172560, Note_on_c, 0, 42, 0
3, 172560, Note_on_c, 0, 46, 65
3, 172800, Note_on_c, 0, 46, 0
3, 172800, Note_on_c, 0, 38, 75
3, 173040, Note_on_c, 0, 38, 0
3, 173040, Note_on_c, 0, 42, 53
3, 173280, Note_on_c, 0, 42, 0
3, 173280, Note_on_c, 0, 44, 66
3, 173520, Note_on_c, 0, 44, 0
3, 173520, Note_on_c, 0, 45, 50
3, 173760, Note_on_c, 0, 45, 0
3, 173760, Note_on_c, 0, 47, 63
3, 174000, Note_on_c, 0, 47, 0
3, 174000, Note_on_c, 0, 49, 49
3, 174240, Note_on_c, 0, 49, 0
3, 174240, Note_on_c, 0, 50, 67
3, 174480, Note_on_c, 0, 50, 0
3, 174480, Note_on_c, 0, 40, 51
3, 174720, Note_on_c, 0, 40, 0
3, 174720, Note_on_c, 0, 52, 57
3, 174960, Note_on_c, 0, 52, 0
3, 174960, Note_on_c, 0, 40, 50
3, 175200, Note_on_c, 0, 40, 0
3, 175200, Note_on_c, 0, 50, 56
3, 175440, Note_on_c, 0, 50, 0
3, 175440, Note_on_c, 0, 40, 43
3, 175680, Note_on_c, 0, 40, 0
3, 175680, Note_on_c, 0, 45, 63
3, 175920, Note_on_c, 0, 49, 48
3, 176160, Note_on_c, 0, 49, 0
3, 176160, Note_on_c, 0, 50, 50
3, 176400, Note_on_c, 0, 50, 0
3, 176400, Note_on_c, 0, 52, 46
3, 176640, Note_on_c, 0, 52, 0
3, 176640, Note_on_c, 0, 54, 47
3, 176880, Note_on_c, 0, 54, 0
3, 176880, Note_on_c, 0, 50, 45
3, 177120, Note_on_c, 0, 50, 0
3, 177120, Note_on_c, 0, 52, 45
3, 177360, Note_on_c, 0, 52, 0
3, 177360, Note_on_c, 0, 45, 0
3, 177360, Note_on_c, 0, 54, 41
3, 177600, Note_on_c, 0, 54, 0
3, 177600, Note_on_c, 0, 56, 43
3, 177840, Note_on_c, 0, 56, 0
3, 177840, Note_on_c, 0, 52, 41
3, 178080, Note_on_c, 0, 52, 0
3, 178080, Note_on_c, 0, 54, 42
3, 178320, Note_on_c, 0, 54, 0
3, 178320, Note_on_c, 0, 56, 37
3, 178560, Note_on_c, 0, 56, 0
3, 178560, Note_on_c, 0, 57, 42
3, 178800, Note_on_c, 0, 57, 0
3, 179040, Note_on_c, 0, 66, 38
3, 179220, Note_on_c, 0, 66, 0
3, 179520, Note_on_c, 0, 64, 32
3, 179700, Note_on_c, 0, 64, 0
3, 180000, Note_on_c, 0, 63, 38
3, 180180, Note_on_c, 0, 63, 0
3, 180960, Note_on_c, 0, 62, 38
3, 181200, Note_on_c, 0, 62, 0
3, 181440, Note_on_c, 0, 57, 63
3, 181680, Note_on_c, 0, 61, 48
3, 181920, Note_on_c, 0, 61, 0
3, 181920, Note_on_c, 0, 62, 50
3, 182160, Note_on_c, 0, 62, 0
3, 182160, Note_on_c, 0, 64, 46
3, 182400, Note_on_c, 0, 64, 0
3, 182400, Note_on_c, 0, 66, 47
3, 182640, Note_on_c, 0, 66, 0
3, 182640, Note_on_c, 0, 62, 45
3, 182880, Note_on_c, 0, 62, 0
3, 182880, Note_on_c, 0, 64, 45
3, 183120, Note_on_c, 0, 64, 0
3, 183120, Note_on_c, 0, 57, 0
3, 183120, Note_on_c, 0, 66, 41
3, 183360, Note_on_c, 0, 66, 0
3, 183360, Note_on_c, 0, 68, 43
3, 183600, Note_on_c, 0, 68, 0
3, 183600, Note_on_c, 0, 64, 41
3, 183840, Note_on_c, 0, 64, 0
3, 183840, Note_on_c, 0, 66, 42
3, 184080, Note_on_c, 0, 66, 0
3, 184080, Note_on_c, 0, 68, 37
3, 184320, Note_on_c, 0, 68, 0
3, 184320, Note_on_c, 0, 69, 56
3, 184800, Note_on_c, 0, 64, 54
3, 184800, Note_on_c, 0, 68, 64
3, 185280, Note_on_c, 0, 68, 0
3, 185280, Note_on_c, 0, 64, 0
3, 185280, Note_on_c, 0, 66, 61
3, 185280, Note_on_c, 0, 62, 51
3, 185760, Note_on_c, 0, 62, 0
3, 185760, Note_on_c, 0, 66, 0
3, 185760, Note_on_c, 0, 61, 48
3, 185760, Note_on_c, 0, 64, 57
3, 186000, Note_on_c, 0, 69, 0
3, 186240, Note_on_c, 0, 64, 0
3, 186240, Note_on_c, 0, 61, 0
3, 186240, Note_on_c, 0, 60, 47
3, 186240, Note_on_c, 0, 63, 56
3, 186720, Note_on_c, 0, 63, 0
3, 186720, Note_on_c, 0, 60, 0
3, 186720, Note_on_c, 0, 59, 47
3, 186720, Note_on_c, 0, 62, 56
3, 187200, Note_on_c, 0, 62, 0
3, 187200, Note_on_c, 0, 59, 0
3, 187200, Note_on_c, 0, 57, 47
3, 187200, Note_on_c, 0, 61, 56
3, 187680, Note_on_c, 0, 61, 0
3, 187680, Note_on_c, 0, 57, 0
3, 187680, Note_on_c, 0, 56, 57
3, 187680, Note_on_c, 0, 52, 48
3, 188160, Note_on_c, 0, 52, 0
3, 188160, Note_on_c, 0, 56, 0
3, 188160, Note_on_c, 0, 50, 44
3, 188160, Note_on_c, 0, 54, 53
3, 188640, Note_on_c, 0, 54, 0
3, 188640, Note_on_c, 0, 50, 0
3, 188640, Note_on_c, 0, 52, 48
3, 188640, Note_on_c, 0, 49, 40
3, 189120, Note_on_c, 0, 49, 0
3, 189120, Note_on_c, 0, 52, 0
3, 189120, Note_on_c, 0, 48, 39
3, 189120, Note_on_c, 0, 51, 46
3, 189600, Note_on_c, 0, 51, 0
3, 189600, Note_on_c, 0, 48, 0
3, 189600, Note_on_c, 0, 47, 37
3, 189600, Note_on_c, 0, 50, 44
3, 190080, Note_on_c, 0, 50, 0
3, 190080, Note_on_c, 0, 47, 0
3, 190080, Note_on_c, 0, 45, 39
3, 190080, Note_on_c, 0, 49, 43
3, 191520, Note_on_c, 0, 49, 0
3, 191520, Note_on_c, 0, 45, 0
3, 192480, Note_on_c, 0, 52, 50
3, 192720, Note_on_c, 0, 52, 0
3, 192720, Note_on_c, 0, 48, 42
3, 192960, Note_on_c, 0, 48, 0
3, 192960, Note_on_c, 0, 33, 48
3, 193920, Note_on_c, 0, 33, 0
3, 194400, Note_on_c, 0, 33, 40
3, 194400, Note_on_c, 0, 45, 48
3, 195360, Note_on_c, 0, 45, 0
3, 195360, Note_on_c, 0, 33, 0
3, 195840, Note_on_c, 0, 53, 60
3, 195840, Note_on_c, 0, 48, 50
3, 195840, Note_on_c, 0, 45, 50
3, 196800, Note_on_c, 0, 53, 0
3, 196800, Note_on_c, 0, 52, 48
3, 197280, Note_on_c, 0, 52, 0
3, 197280, Note_on_c, 0, 51, 54
3, 198000, Note_on_c, 0, 45, 0
3, 198000, Note_on_c, 0, 48, 0
3, 198240, Note_on_c, 0, 51, 0
3, 198240, Note_on_c, 0, 48, 39
3, 198240, Note_on_c, 0, 45, 33
3, 198720, Note_on_c, 0, 45, 0
3, 198720, Note_on_c, 0, 48, 0
3, 198960, Note_on_c, 0, 32, 35
3, 199200, Note_on_c, 0, 32, 0
3, 199200, Note_on_c, 0, 47, 42
3, 199440, Note_on_c, 0, 47, 0
3, 200400, Note_on_c, 0, 43, 36
3, 200640, Note_on_c, 0, 43, 0
3, 200640, Note_on_c, 0, 59, 39
3, 200880, Note_on_c, 0, 59, 0
3, 201840, Note_on_c, 0, 54, 36
3, 202080, Note_on_c, 0, 54, 0
3, 202080, Note_on_c, 0, 67, 39
3, 202320, Note_on_c, 0, 67, 0
3, 204480, Note_on_c, 0, 35, 44
3, 204480, Note_on_c, 0, 47, 48
3, 205440, Note_on_c, 0, 47, 0
3, 205440, Note_on_c, 0, 35, 0
3, 205920, Note_on_c, 0, 47, 40
3, 205920, Note_on_c, 0, 59, 48
3, 206880, Note_on_c, 0, 59, 0
3, 206880, Note_on_c, 0, 47, 0
3, 207360, Note_on_c, 0, 67, 60
3, 207360, Note_on_c, 0, 62, 50
3, 207360, Note_on_c, 0, 59, 50
3, 208320, Note_on_c, 0, 67, 0
3, 208320, Note_on_c, 0, 66, 48
3, 208800, Note_on_c, 0, 66, 0
3, 208800, Note_on_c, 0, 65, 54
3, 209520, Note_on_c, 0, 59, 0
3, 209520, Note_on_c, 0, 62, 0
3, 209760, Note_on_c, 0, 65, 0
3, 209760, Note_on_c, 0, 62, 39
3, 209760, Note_on_c, 0, 59, 33
3, 210240, Note_on_c, 0, 59, 0
3, 210240, Note_on_c, 0, 62, 0
3, 210480, Note_on_c, 0, 46, 35
3, 210720, Note_on_c, 0, 46, 0
3, 210720, Note_on_c, 0, 61, 42
3, 210960, Note_on_c, 0, 61, 0
3, 211920, Note_on_c, 0, 57, 36
3, 212160, Note_on_c, 0, 57, 0
3, 212160, Note_on_c, 0, 73, 39
3, 212400, Note_on_c, 0, 73, 0
3, 213360, Note_on_c, 0, 68, 36
3, 213600, Note_on_c, 0, 68, 0
3, 213600, Note_on_c, 0, 81, 39
3, 213840, Note_on_c, 0, 81, 0
3, 216240, Note_on_c, 0, 41, 35
3, 216480, Note_on_c, 0, 41, 0
3, 216480, Note_on_c, 0, 56, 42
3, 216720, Note_on_c, 0, 56, 0
3, 217680, Note_on_c, 0, 52, 40
3, 217920, Note_on_c, 0, 52, 0
3, 217920, Note_on_c, 0, 66, 44
3, 218160, Note_on_c, 0, 66, 0
3, 219120, Note_on_c, 0, 39, 40
3, 219360, Note_on_c, 0, 39, 0
3, 219360, Note_on_c, 0, 54, 49
3, 219600, Note_on_c, 0, 54, 0
3, 220560, Note_on_c, 0, 50, 43
3, 220800, Note_on_c, 0, 50, 0
3, 220800, Note_on_c, 0, 64, 47
3, 221040, Note_on_c, 0, 64, 0
3, 222000, Note_on_c, 0, 37, 43
3, 222240, Note_on_c, 0, 37, 0
3, 222240, Note_on_c, 0, 52, 52
3, 222480, Note_on_c, 0, 52, 0
3, 223440, Note_on_c, 0, 49, 46
3, 223680, Note_on_c, 0, 49, 0
3, 223680, Note_on_c, 0, 63, 51
3, 223920, Note_on_c, 0, 63, 0
3, 224880, Note_on_c, 0, 36, 46
3, 225120, Note_on_c, 0, 36, 0
3, 225120, Note_on_c, 0, 51, 56
3, 225360, Note_on_c, 0, 51, 0
3, 226320, Note_on_c, 0, 47, 49
3, 226560, Note_on_c, 0, 47, 0
3, 226560, Note_on_c, 0, 61, 54
3, 226800, Note_on_c, 0, 61, 0
3, 227760, Note_on_c, 0, 57, 50
3, 228000, Note_on_c, 0, 57, 0
3, 228000, Note_on_c, 0, 61, 60
3, 228240, Note_on_c, 0, 61, 0
3, 228480, Note_on_c, 0, 56, 59
3, 228960, Note_on_c, 0, 56, 0
3, 229200, Note_on_c, 0, 54, 52
3, 229440, Note_on_c, 0, 54, 0
3, 229440, Note_on_c, 0, 61, 57
3, 229680, Note_on_c, 0, 61, 0
3, 229920, Note_on_c, 0, 53, 61
3, 230400, Note_on_c, 0, 53, 0
3, 230640, Note_on_c, 0, 57, 53
3, 230880, Note_on_c, 0, 57, 0
3, 230880, Note_on_c, 0, 61, 63
3, 231120, Note_on_c, 0, 61, 0
3, 231360, Note_on_c, 0, 56, 63
3, 231840, Note_on_c, 0, 56, 0
3, 232080, Note_on_c, 0, 54, 56
3, 232320, Note_on_c, 0, 54, 0
3, 232320, Note_on_c, 0, 61, 61
3, 232560, Note_on_c, 0, 61, 0
3, 232800, Note_on_c, 0, 53, 64
3, 233280, Note_on_c, 0, 53, 0
3, 233520, Note_on_c, 0, 50, 56
3, 233760, Note_on_c, 0, 50, 0
3, 233760, Note_on_c, 0, 54, 67
3, 234000, Note_on_c, 0, 54, 0
3, 234240, Note_on_c, 0, 49, 65
3, 234240, Note_on_c, 0, 55, 65
3, 234720, Note_on_c, 0, 55, 0
3, 234720, Note_on_c, 0, 49, 0
3, 234960, Note_on_c, 0, 50, 57
3, 235200, Note_on_c, 0, 50, 0
3, 235200, Note_on_c, 0, 54, 62
3, 235440, Note_on_c, 0, 54, 0
3, 235680, Note_on_c, 0, 49, 65
3, 235680, Note_on_c, 0, 55, 65
3, 236160, Note_on_c, 0, 55, 0
3, 236160, Note_on_c, 0, 49, 0
3, 236160, Note_on_c, 0, 54, 56
3, 236160, Note_on_c, 0, 50, 56
3, 236400, Note_on_c, 0, 50, 0
3, 236400, Note_on_c, 0, 54, 0
3, 236640, Note_on_c, 0, 49, 66
3, 236640, Note_on_c, 0, 55, 66
3, 237120, Note_on_c, 0, 55, 0
3, 237120, Note_on_c, 0, 49, 0
3, 237120, Note_on_c, 0, 50, 58
3, 237120, Note_on_c, 0, 54, 58
3, 237360, Note_on_c, 0, 54, 0
3, 237360, Note_on_c, 0, 50, 0
3, 237600, Note_on_c, 0, 49, 69
3, 237600, Note_on_c, 0, 55, 69
3, 238080, Note_on_c, 0, 55, 0
3, 238080, Note_on_c, 0, 49, 0
3, 238080, Note_on_c, 0, 50, 61
3, 238080, Note_on_c, 0, 54, 61
3, 238320, Note_on_c, 0, 54, 0
3, 238320, Note_on_c, 0, 50, 0
3, 238560, Note_on_c, 0, 49, 72
3, 238560, Note_on_c, 0, 55, 72
3, 239040, Note_on_c, 0, 55, 0
3, 239040, Note_on_c, 0, 49, 0
3, 239040, Note_on_c, 0, 50, 74
3, 239040, Note_on_c, 0, 54, 74
3, 240480, Note_on_c, 0, 50, 0
3, 240480, Note_on_c, 0, 49, 74
3, 240480, Note_on_c, 0, 57, 74
3, 240960, Note_on_c, 0, 57, 0
3, 240960, Note_on_c, 0, 49, 0
3, 240960, Note_on_c, 0, 54, 0
3, 241920, Note_on_c, 0, 50, 74
3, 241920, Note_on_c, 0, 54, 74
3, 243360, Note_on_c, 0, 50, 0
3, 243360, Note_on_c, 0, 49, 74
3, 243360, Note_on_c, 0, 57, 74
3, 243840, Note_on_c, 0, 57, 0
3, 243840, Note_on_c, 0, 49, 0
3, 243840, Note_on_c, 0, 54, 0
3, 244800, Note_on_c, 0, 62, 74
3, 247680, Note_on_c, 0, 62, 0
3, 247680, Note_on_c, 0, 55, 40
3, 249120, Note_on_c, 0, 55, 0
3, 249120, Note_on_c, 0, 52, 38
3, 250560, Note_on_c, 0, 52, 0
3, 250560, Note_on_c, 0, 45, 37
3, 252000, Note_on_c, 0, 45, 0
3, 252000, Note_on_c, 0, 42, 35
3, 253440, Note_on_c, 0, 42, 0
3, 253440, Note_on_c, 0, 35, 34
3, 254880, Note_on_c, 0, 35, 0
3, 254880, Note_on_c, 0, 37, 34
3, 256320, Note_on_c, 0, 37, 0
3, 256320, Note_on_c, 0, 39, 34
3, 257760, Note_on_c, 0, 39, 0
3, 257760, Note_on_c, 0, 41, 34
3, 259200, Note_on_c, 0, 41, 0
3, 259200, Note_on_c, 0, 42, 34
3, 260640, Note_on_c, 0, 42, 0
3, 260640, Note_on_c, 0, 36, 34
3, 262080, Note_on_c, 0, 36, 0
3, 262080, Note_on_c, 0, 37, 63
3, 263520, Note_on_c, 0, 37, 0
3, 263520, Note_on_c, 0, 41, 60
3, 264000, Note_on_c, 0, 41, 0
3, 264000, Note_on_c, 0, 44, 56
3, 264480, Note_on_c, 0, 44, 0
3, 264480, Note_on_c, 0, 47, 51
3, 264890, Note_on_c, 0, 47, 0
3, 264900, Note_on_c, 0, 47, 56
3, 264960, Note_on_c, 0, 47, 0
3, 264960, Note_on_c, 0, 37, 69
3, 264960, Note_on_c, 0, 45, 69
3, 265440, Note_on_c, 0, 45, 0
3, 265440, Note_on_c, 0, 44, 64
3, 265920, Note_on_c, 0, 44, 0
3, 265920, Note_on_c, 0, 42, 54
3, 266400, Note_on_c, 0, 42, 0
3, 266400, Note_on_c, 0, 37, 0
3, 266400, Note_on_c, 0, 45, 64
3, 266880, Note_on_c, 0, 45, 0
3, 266880, Note_on_c, 0, 44, 59
3, 267360, Note_on_c, 0, 44, 0
3, 267360, Note_on_c, 0, 42, 59
3, 267840, Note_on_c, 0, 42, 0
3, 267840, Note_on_c, 0, 37, 59
3, 267840, Note_on_c, 0, 49, 63
3, 268800, Note_on_c, 0, 37, 0
3, 269280, Note_on_c, 0, 49, 0
3, 269280, Note_on_c, 0, 50, 60
3, 269760, Note_on_c, 0, 50, 0
3, 269760, Note_on_c, 0, 49, 56
3, 270240, Note_on_c, 0, 49, 0
3, 270240, Note_on_c, 0, 47, 51
3, 270650, Note_on_c, 0, 47, 0
3, 270660, Note_on_c, 0, 47, 56
3, 270720, Note_on_c, 0, 47, 0
3, 270720, Note_on_c, 0, 45, 69
3, 271200, Note_on_c, 0, 45, 0
3, 271200, Note_on_c, 0, 44, 64
3, 271680, Note_on_c, 0, 44, 0
3, 271680, Note_on_c, 0, 42, 54
3, 272160, Note_on_c, 0, 42, 0
3, 272160, Note_on_c, 0, 45, 64
3, 272640, Note_on_c, 0, 45, 0
3, 272640, Note_on_c, 0, 44, 59
3, 273120, Note_on_c, 0, 44, 0
3, 273120, Note_on_c, 0, 42, 59
3, 273600, Note_on_c, 0, 42, 0
3, 273600, Note_on_c, 0, 37, 59
3, 273600, Note_on_c, 0, 44, 63
3, 275520, Note_on_c, 0, 44, 0
3, 275520, Note_on_c, 0, 37, 0
3, 276000, Note_on_c, 0, 49, 59
3, 276480, Note_on_c, 0, 49, 0
3, 276480, Note_on_c, 0, 54, 64
3, 276480, Note_on_c, 0, 46, 64
3, 277440, Note_on_c, 0, 46, 0
3, 277920, Note_on_c, 0, 51, 58
3, 278400, Note_on_c, 0, 54, 0
3, 278400, Note_on_c, 0, 53, 62
3, 278880, Note_on_c, 0, 53, 0
3, 278880, Note_on_c, 0, 51, 0
3, 278880, Note_on_c, 0, 54, 70
3, 279360, Note_on_c, 0, 54, 0
3, 279360, Note_on_c, 0, 56, 72
3, 279360, Note_on_c, 0, 49, 72
3, 280320, Note_on_c, 0, 49, 0
3, 280800, Note_on_c, 0, 56, 0
3, 280800, Note_on_c, 0, 54, 54
3, 280800, Note_on_c, 0, 58, 54
3, 281760, Note_on_c, 0, 54, 0
3, 282240, Note_on_c, 0, 58, 0
3, 282240, Note_on_c, 0, 47, 73
3, 282240, Note_on_c, 0, 61, 73
3, 282720, Note_on_c, 0, 61, 0
3, 282720, Note_on_c, 0, 59, 62
3, 283200, Note_on_c, 0, 59, 0
3, 283200, Note_on_c, 0, 47, 0
3, 283200, Note_on_c, 0, 58, 54
3, 283680, Note_on_c, 0, 58, 0
3, 283680, Note_on_c, 0, 49, 66
3, 283680, Note_on_c, 0, 56, 66
3, 284160, Note_on_c, 0, 56, 0
3, 284160, Note_on_c, 0, 58, 49
3, 284640, Note_on_c, 0, 58, 0
3, 284640, Note_on_c, 0, 49, 0
3, 284640, Note_on_c, 0, 56, 41
3, 285120, Note_on_c, 0, 56, 0
3, 285120, Note_on_c, 0, 54, 50
3, 287040, Note_on_c, 0, 54, 34
3, 287280, Note_on_c, 0, 54, 0
3, 287280, Note_on_c, 0, 49, 31
3, 287520, Note_on_c, 0, 49, 0
3, 287520, Note_on_c, 0, 54, 0
3, 287520, Note_on_c, 0, 46, 31
3, 287760, Note_on_c, 0, 46, 0
3, 287760, Note_on_c, 0, 42, 26
3, 288000, Note_on_c, 0, 42, 0
3, 288000, Note_on_c, 0, 39, 42
3, 288240, Note_on_c, 0, 39, 0
3, 288240, Note_on_c, 0, 51, 31
3, 288480, Note_on_c, 0, 51, 0
3, 288480, Note_on_c, 0, 54, 37
3, 288720, Note_on_c, 0, 54, 0
3, 288720, Note_on_c, 0, 58, 31
3, 288960, Note_on_c, 0, 58, 0
3, 288960, Note_on_c, 0, 54, 37
3, 289200, Note_on_c, 0, 54, 0
3, 289200, Note_on_c, 0, 51, 31
3, 289440, Note_on_c, 0, 51, 0
3, 289440, Note_on_c, 0, 39, 40
3, 289680, Note_on_c, 0, 39, 0
3, 289680, Note_on_c, 0, 51, 31
3, 289920, Note_on_c, 0, 51, 0
3, 289920, Note_on_c, 0, 54, 49
3, 290160, Note_on_c, 0, 54, 0
3, 290160, Note_on_c, 0, 56, 39
3, 290400, Note_on_c, 0, 56, 0
3, 290400, Note_on_c, 0, 54, 50
3, 290640, Note_on_c, 0, 54, 0
3, 290640, Note_on_c, 0, 51, 47
3, 290880, Note_on_c, 0, 51, 0
3, 290880, Note_on_c, 0, 37, 61
3, 291120, Note_on_c, 0, 37, 0
3, 291120, Note_on_c, 0, 51, 45
3, 291360, Note_on_c, 0, 51, 0
3, 291360, Note_on_c, 0, 49, 44
3, 291600, Note_on_c, 0, 49, 0
3, 291600, Note_on_c, 0, 47, 38
3, 291840, Note_on_c, 0, 47, 0
3, 291840, Note_on_c, 0, 46, 50
3, 292080, Note_on_c, 0, 46, 0
3, 292080, Note_on_c, 0, 44, 31
3, 292320, Note_on_c, 0, 44, 0
3, 292320, Note_on_c, 0, 42, 49
3, 292560, Note_on_c, 0, 42, 0
3, 292560, Note_on_c, 0, 49, 31
3, 292800, Note_on_c, 0, 49, 0
3, 292800, Note_on_c, 0, 52, 39
3, 293040, Note_on_c, 0, 52, 0
3, 293040, Note_on_c, 0, 54, 31
3, 293280, Note_on_c, 0, 54, 0
3, 293280, Note_on_c, 0, 52, 38
3, 293520, Note_on_c, 0, 52, 0
3, 293520, Note_on_c, 0, 49, 31
3, 293760, Note_on_c, 0, 49, 0
3, 293760, Note_on_c, 0, 47, 52
3, 294000, Note_on_c, 0, 47, 0
3, 294000, Note_on_c, 0, 51, 31
3, 294240, Note_on_c, 0, 51, 0
3, 294240, Note_on_c, 0, 56, 45
3, 294480, Note_on_c, 0, 56, 0
3, 294480, Note_on_c, 0, 51, 31
3, 294720, Note_on_c, 0, 51, 0
3, 294720, Note_on_c, 0, 58, 46
3, 294960, Note_on_c, 0, 58, 0
3, 294960, Note_on_c, 0, 51, 33
3, 295200, Note_on_c, 0, 51, 0
3, 295200, Note_on_c, 0, 59, 55
3, 295440, Note_on_c, 0, 59, 0
3, 295440, Note_on_c, 0, 49, 48
3, 295680, Note_on_c, 0, 49, 0
3, 295680, Note_on_c, 0, 61, 43
3, 295920, Note_on_c, 0, 61, 0
3, 295920, Note_on_c, 0, 49, 37
3, 296160, Note_on_c, 0, 49, 0
3, 296160, Note_on_c, 0, 59, 45
3, 296400, Note_on_c, 0, 59, 0
3, 296400, Note_on_c, 0, 49, 40
3, 296640, Note_on_c, 0, 49, 0
3, 296640, Note_on_c, 0, 42, 46
3, 296880, Note_on_c, 0, 42, 0
3, 296880, Note_on_c, 0, 54, 39
3, 297120, Note_on_c, 0, 54, 0
3, 297120, Note_on_c, 0, 58, 43
3, 297360, Note_on_c, 0, 58, 0
3, 297360, Note_on_c, 0, 54, 37
3, 297600, Note_on_c, 0, 54, 0
3, 297600, Note_on_c, 0, 58, 48
3, 297840, Note_on_c, 0, 58, 0
3, 297840, Note_on_c, 0, 54, 40
3, 298080, Note_on_c, 0, 54, 0
3, 298080, Note_on_c, 0, 59, 56
3, 298320, Note_on_c, 0, 59, 0
3, 298320, Note_on_c, 0, 54, 46
3, 298560, Note_on_c, 0, 54, 0
3, 298560, Note_on_c, 0, 59, 58
3, 298800, Note_on_c, 0, 59, 0
3, 298800, Note_on_c, 0, 54, 48
3, 299040, Note_on_c, 0, 54, 0
3, 299040, Note_on_c, 0, 61, 67
3, 299280, Note_on_c, 0, 61, 0
3, 299280, Note_on_c, 0, 54, 56
3, 299520, Note_on_c, 0, 54, 0
3, 299520, Note_on_c, 0, 47, 65
3, 299520, Note_on_c, 0, 55, 72
3, 299760, Note_on_c, 0, 55, 0
3, 299760, Note_on_c, 0, 51, 51
3, 300000, Note_on_c, 0, 51, 0
3, 300000, Note_on_c, 0, 56, 58
3, 300240, Note_on_c, 0, 56, 0
3, 300240, Note_on_c, 0, 51, 48
3, 300480, Note_on_c, 0, 51, 0
3, 300480, Note_on_c, 0, 58, 55
3, 300720, Note_on_c, 0, 58, 0
3, 300720, Note_on_c, 0, 51, 47
3, 300960, Note_on_c, 0, 51, 0
3, 300960, Note_on_c, 0, 47, 0
3, 300960, Note_on_c, 0, 59, 64
3, 301200, Note_on_c, 0, 59, 0
3, 301200, Note_on_c, 0, 49, 49
3, 301440, Note_on_c, 0, 49, 0
3, 301440, Note_on_c, 0, 61, 55
3, 301680, Note_on_c, 0, 61, 0
3, 301680, Note_on_c, 0, 49, 48
3, 301920, Note_on_c, 0, 49, 0
3, 301920, Note_on_c, 0, 59, 54
3, 302160, Note_on_c, 0, 59, 0
3, 302160, Note_on_c, 0, 49, 41
3, 302400, Note_on_c, 0, 49, 0
3, 302640, Note_on_c, 0, 54, 54
3, 302880, Note_on_c, 0, 54, 0
3, 302880, Note_on_c, 0, 53, 54
3, 303120, Note_on_c, 0, 53, 0
3, 303120, Note_on_c, 0, 54, 54
3, 303360, Note_on_c, 0, 54, 0
3, 303360, Note_on_c, 0, 58, 54
3, 303600, Note_on_c, 0, 58, 0
3, 303600, Note_on_c, 0, 54, 51
3, 303840, Note_on_c, 0, 54, 0
3, 303840, Note_on_c, 0, 53, 55
3, 304080, Note_on_c, 0, 53, 0
3, 304080, Note_on_c, 0, 54, 55
3, 304320, Note_on_c, 0, 54, 0
3, 304320, Note_on_c, 0, 53, 57
3, 304560, Note_on_c, 0, 53, 0
3, 304560, Note_on_c, 0, 54, 60
3, 304800, Note_on_c, 0, 54, 0
3, 304800, Note_on_c, 0, 52, 61
3, 305040, Note_on_c, 0, 52, 0
3, 305040, Note_on_c, 0, 54, 65
3, 305280, Note_on_c, 0, 54, 0
3, 305280, Note_on_c, 0, 51, 75
3, 305520, Note_on_c, 0, 51, 0
3, 305520, Note_on_c, 0, 54, 53
3, 305760, Note_on_c, 0, 54, 0
3, 305760, Note_on_c, 0, 59, 60
3, 306000, Note_on_c, 0, 59, 0
3, 306000, Note_on_c, 0, 54, 50
3, 306240, Note_on_c, 0, 54, 0
3, 306240, Note_on_c, 0, 49, 57
3, 306480, Note_on_c, 0, 49, 0
3, 306480, Note_on_c, 0, 54, 49
3, 306720, Note_on_c, 0, 54, 0
3, 306720, Note_on_c, 0, 48, 63
3, 306960, Note_on_c, 0, 48, 0
3, 306960, Note_on_c, 0, 54, 47
3, 307200, Note_on_c, 0, 54, 0
3, 307200, Note_on_c, 0, 56, 52
3, 307440, Note_on_c, 0, 56, 0
3, 307440, Note_on_c, 0, 54, 45
3, 307680, Note_on_c, 0, 54, 0
3, 307680, Note_on_c, 0, 48, 49
3, 307920, Note_on_c, 0, 48, 0
3, 307920, Note_on_c, 0, 54, 37
3, 308160, Note_on_c, 0, 54, 0
3, 308160, Note_on_c, 0, 49, 63
3, 308400, Note_on_c, 0, 49, 0
3, 308400, Note_on_c, 0, 56, 44
3, 308640, Note_on_c, 0, 56, 0
3, 308640, Note_on_c, 0, 59, 49
3, 308880, Note_on_c, 0, 59, 0
3, 308880, Note_on_c, 0, 56, 40
3, 309120, Note_on_c, 0, 56, 0
3, 309120, Note_on_c, 0, 51, 45
3, 309120, Note_on_c, 0, 59, 45
3, 309360, Note_on_c, 0, 59, 0
3, 309360, Note_on_c, 0, 51, 0
3, 309360, Note_on_c, 0, 56, 37
3, 309600, Note_on_c, 0, 56, 0
3, 309600, Note_on_c, 0, 53, 42
3, 309600, Note_on_c, 0, 59, 50
3, 309840, Note_on_c, 0, 59, 0
3, 309840, Note_on_c, 0, 53, 0
3, 309840, Note_on_c, 0, 56, 38
3, 310080, Note_on_c, 0, 56, 0
3, 310080, Note_on_c, 0, 51, 42
3, 310080, Note_on_c, 0, 59, 42
3, 310320, Note_on_c, 0, 59, 0
3, 310320, Note_on_c, 0, 51, 0
3, 310320, Note_on_c, 0, 56, 37
3, 310560, Note_on_c, 0, 56, 0
3, 310560, Note_on_c, 0, 53, 42
3, 310560, Note_on_c, 0, 59, 42
3, 310800, Note_on_c, 0, 59, 0
3, 310800, Note_on_c, 0, 53, 0
3, 310800, Note_on_c, 0, 56, 32
3, 311040, Note_on_c, 0, 56, 0
3, 311040, Note_on_c, 0, 58, 50
3, 311280, Note_on_c, 0, 58, 0
3, 311280, Note_on_c, 0, 54, 38
3, 311520, Note_on_c, 0, 54, 0
3, 311520, Note_on_c, 0, 59, 42
3, 311760, Note_on_c, 0, 59, 0
3, 311760, Note_on_c, 0, 54, 37
3, 312000, Note_on_c, 0, 54, 0
3, 312000, Note_on_c, 0, 61, 42
3, 312240, Note_on_c, 0, 61, 0
3, 312240, Note_on_c, 0, 54, 32
3, 312480, Note_on_c, 0, 54, 0
3, 312480, Note_on_c, 0, 47, 45
3, 312720, Note_on_c, 0, 47, 0
3, 312720, Note_on_c, 0, 51, 33
3, 312960, Note_on_c, 0, 51, 0
3, 312960, Note_on_c, 0, 56, 43
3, 313200, Note_on_c, 0, 56, 0
3, 313200, Note_on_c, 0, 59, 32
3, 313440, Note_on_c, 0, 59, 0
3, 313440, Note_on_c, 0, 56, 41
3, 313680, Note_on_c, 0, 56, 0
3, 313680, Note_on_c, 0, 51, 32
3, 313920, Note_on_c, 0, 51, 0
3, 313920, Note_on_c, 0, 49, 50
3, 313920, Note_on_c, 0, 58, 50
3, 314160, Note_on_c, 0, 58, 0
3, 315360, Note_on_c, 0, 49, 0
3, 315360, Note_on_c, 0, 59, 41
3, 315600, Note_on_c, 0, 59, 0
3, 315600, Note_on_c, 0, 56, 35
3, 315840, Note_on_c, 0, 56, 0
3, 315840, Note_on_c, 0, 53, 41
3, 316080, Note_on_c, 0, 53, 0
3, 316080, Note_on_c, 0, 49, 38
3, 316320, Note_on_c, 0, 49, 0
3, 316320, Note_on_c, 0, 47, 41
3, 316560, Note_on_c, 0, 47, 0
3, 316560, Note_on_c, 0, 44, 37
3, 316800, Note_on_c, 0, 44, 0
3, 316800, Note_on_c, 0, 42, 53
3, 317040, Note_on_c, 0, 42, 0
3, 317040, Note_on_c, 0, 41, 40
3, 317280, Note_on_c, 0, 41, 0
3, 317280, Note_on_c, 0, 42, 42
3, 317520, Note_on_c, 0, 42, 0
3, 317520, Note_on_c, 0, 44, 39
3, 317760, Note_on_c, 0, 44, 0
3, 317760, Note_on_c, 0, 46, 39
3, 318000, Note_on_c, 0, 46, 0
3, 318000, Note_on_c, 0, 47, 38
3, 318240, Note_on_c, 0, 47, 0
3, 318240, Note_on_c, 0, 49, 38
3, 318480, Note_on_c, 0, 49, 0
3, 318480, Note_on_c, 0, 48, 34
3, 318720, Note_on_c, 0, 48, 0
3, 318720, Note_on_c, 0, 49, 36
3, 318960, Note_on_c, 0, 49, 0
3, 318960, Note_on_c, 0, 51, 34
3, 319200, Note_on_c, 0, 51, 0
3, 319200, Note_on_c, 0, 52, 35
3, 319440, Note_on_c, 0, 52, 0
3, 319440, Note_on_c, 0, 53, 31
3, 319680, Note_on_c, 0, 53, 0
3, 319680, Note_on_c, 0, 54, 35
3, 320160, Note_on_c, 0, 63, 38
3, 320340, Note_on_c, 0, 63, 0
3, 320640, Note_on_c, 0, 61, 32
3, 320820, Note_on_c, 0, 61, 0
3, 321120, Note_on_c, 0, 54, 0
3, 321120, Note_on_c, 0, 49, 35
3, 321120, Note_on_c, 0, 60, 38
3, 321300, Note_on_c, 0, 60, 0
3, 322080, Note_on_c, 0, 59, 38
3, 322320, Note_on_c, 0, 59, 0
3, 322560, Note_on_c, 0, 49, 0
3, 322560, Note_on_c, 0, 54, 51
3, 322560, Note_on_c, 0, 58, 51
3, 322800, Note_on_c, 0, 58, 0
3, 322800, Note_on_c, 0, 54, 0
3, 322800, Note_on_c, 0, 53, 43
3, 323040, Note_on_c, 0, 53, 0
3, 323040, Note_on_c, 0, 54, 45
3, 323280, Note_on_c, 0, 54, 0
3, 323280, Note_on_c, 0, 56, 41
3, 323520, Note_on_c, 0, 56, 0
3, 323520, Note_on_c, 0, 58, 42
3, 323760, Note_on_c, 0, 58, 0
3, 323760, Note_on_c, 0, 59, 40
3, 324000, Note_on_c, 0, 59, 0
3, 324000, Note_on_c, 0, 61, 40
3, 324240, Note_on_c, 0, 61, 0
3, 324240, Note_on_c, 0, 60, 36
3, 324480, Note_on_c, 0, 60, 0
3, 324480, Note_on_c, 0, 61, 38
3, 324720, Note_on_c, 0, 61, 0
3, 324720, Note_on_c, 0, 63, 36
3, 324960, Note_on_c, 0, 63, 0
3, 324960, Note_on_c, 0, 64, 37
3, 325200, Note_on_c, 0, 64, 0
3, 325200, Note_on_c, 0, 65, 33
3, 325440, Note_on_c, 0, 65, 0
3, 325440, Note_on_c, 0, 66, 44
3, 325920, Note_on_c, 0, 66, 0
3, 325920, Note_on_c, 0, 61, 43
3, 325920, Note_on_c, 0, 65, 51
3, 326400, Note_on_c, 0, 65, 0
3, 326400, Note_on_c, 0, 61, 0
3, 326400, Note_on_c, 0, 59, 40
3, 326400, Note_on_c, 0, 63, 48
3, 326880, Note_on_c, 0, 63, 0
3, 326880, Note_on_c, 0, 59, 0
3, 326880, Note_on_c, 0, 58, 38
3, 326880, Note_on_c, 0, 61, 45
3, 327360, Note_on_c, 0, 61, 0
3, 327360, Note_on_c, 0, 58, 0
3, 327360, Note_on_c, 0, 57, 37
3, 327360, Note_on_c, 0, 60, 44
3, 327840, Note_on_c, 0, 60, 0
3, 327840, Note_on_c, 0, 57, 0
3, 327840, Note_on_c, 0, 56, 37
3, 327840, Note_on_c, 0, 59, 44
3, 328320, Note_on_c, 0, 59, 0
3, 328320, Note_on_c, 0, 56, 0
3, 328320, Note_on_c, 0, 54, 37
3, 328320, Note_on_c, 0, 58, 44
3, 328800, Note_on_c, 0, 58, 0
3, 328800, Note_on_c, 0, 54, 0
3, 328800, Note_on_c, 0, 49, 37
3, 328800, Note_on_c, 0, 53, 44
3, 329280, Note_on_c, 0, 53, 0
3, 329280, Note_on_c, 0, 49, 0
3, 329280, Note_on_c, 0, 47, 33
3, 329280, Note_on_c, 0, 51, 39
3, 329760, Note_on_c, 0, 51, 0
3, 329760, Note_on_c, 0, 47, 0
3, 329760, Note_on_c, 0, 46, 29
3, 329760, Note_on_c, 0, 49, 35
3, 330240, Note_on_c, 0, 49, 0
3, 330240, Note_on_c, 0, 46, 0
3, 330240, Note_on_c, 0, 45, 27
3, 330240, Note_on_c, 0, 48, 32
3, 330720, Note_on_c, 0, 48, 0
3, 330720, Note_on_c, 0, 45, 0
3, 330720, Note_on_c, 0, 44, 25
3, 330720, Note_on_c, 0, 47, 30
3, 331200, Note_on_c, 0, 47, 0
3, 331200, Note_on_c, 0, 44, 0
3, 331200, Note_on_c, 0, 42, 26
3, 331200, Note_on_c, 0, 46, 28
3, 334080, Note_on_c, 0, 49, 26
3, 337440, Note_on_c, 0, 49, 0
3, 337440, Note_on_c, 0, 46, 0
3, 337440, Note_on_c, 0, 42, 0
3, 337920, Note_on_c, 0, 58, 33
3, 338160, Note_on_c, 0, 58, 0
3, 338160, Note_on_c, 0, 54, 29
3, 338400, Note_on_c, 0, 54, 0
3, 338400, Note_on_c, 0, 49, 33
3, 338640, Note_on_c, 0, 49, 0
3, 341280, Note_on_c, 0, 42, 21
3, 341280, Note_on_c, 0, 49, 25
3, 341760, Note_on_c, 0, 49, 0
3, 341760, Note_on_c, 0, 42, 0
3, 342720, Note_on_c, 0, 54, 21
3, 342720, Note_on_c, 0, 61, 25
3, 343200, Note_on_c, 0, 61, 0
3, 343200, Note_on_c, 0, 54, 0
3, 343200, End_track
4, 0, Start_track
4, 0, Title_t, "Pedale"
4, 0, Program_c, 0, 0
4, 0, Control_c, 0, 64, 0
4, 2995, Control_c, 0, 64, 127
4, 5760, Control_c, 0, 64, 0
4, 6000, Control_c, 0, 64, 127
4, 6734, Control_c, 0, 64, 0
4, 6890, Control_c, 0, 64, 127
4, 7209, Control_c, 0, 64, 0
4, 7341, Control_c, 0, 64, 127
4, 8170, Control_c, 0, 64, 0
4, 8330, Control_c, 0, 64, 127
4, 8647, Control_c, 0, 64, 0
4, 8707, Control_c, 0, 64, 127
4, 9614, Control_c, 0, 64, 0
4, 9671, Control_c, 0, 64, 127
4, 10092, Control_c, 0, 64, 0
4, 11532, Control_c, 0, 64, 127
4, 12010, Control_c, 0, 64, 0
4, 12137, Control_c, 0, 64, 127
4, 12495, Control_c, 0, 64, 0
4, 12640, Control_c, 0, 64, 127
4, 12979, Control_c, 0, 64, 0
4, 13132, Control_c, 0, 64, 127
4, 13452, Control_c, 0, 64, 0
4, 13600, Control_c, 0, 64, 127
4, 13930, Control_c, 0, 64, 0
4, 14515, Control_c, 0, 64, 127
4, 17280, Control_c, 0, 64, 0
4, 17520, Control_c, 0, 64, 127
4, 18254, Control_c, 0, 64, 0
4, 18410, Control_c, 0, 64, 127
4, 18729, Control_c, 0, 64, 0
4, 18861, Control_c, 0, 64, 127
4, 19690, Control_c, 0, 64, 0
4, 19850, Control_c, 0, 64, 127
4, 20167, Control_c, 0, 64, 0
4, 20259, Control_c, 0, 64, 127
4, 21134, Control_c, 0, 64, 0
4, 21215, Control_c, 0, 64, 127
4, 21607, Control_c, 0, 64, 0
4, 21694, Control_c, 0, 64, 127
4, 22574, Control_c, 0, 64, 0
4, 22657, Control_c, 0, 64, 127
4, 23047, Control_c, 0, 64, 0
4, 23139, Control_c, 0, 64, 127
4, 23529, Control_c, 0, 64, 0
4, 23646, Control_c, 0, 64, 127
4, 24014, Control_c, 0, 64, 0
4, 24097, Control_c, 0, 64, 127
4, 24487, Control_c, 0, 64, 0
4, 24574, Control_c, 0, 64, 127
4, 24972, Control_c, 0, 64, 0
4, 25086, Control_c, 0, 64, 127
4, 25454, Control_c, 0, 64, 0
4, 25534, Control_c, 0, 64, 127
4, 25927, Control_c, 0, 64, 0
4, 26002, Control_c, 0, 64, 127
4, 26894, Control_c, 0, 64, 0
4, 26975, Control_c, 0, 64, 127
4, 27367, Control_c, 0, 64, 0
4, 27456, Control_c, 0, 64, 127
4, 28334, Control_c, 0, 64, 0
4, 28408, Control_c, 0, 64, 127
4, 28807, Control_c, 0, 64, 0
4, 28895, Control_c, 0, 64, 127
4, 29289, Control_c, 0, 64, 0
4, 29406, Control_c, 0, 64, 127
4, 29774, Control_c, 0, 64, 0
4, 29850, Control_c, 0, 64, 127
4, 30247, Control_c, 0, 64, 0
4, 30325, Control_c, 0, 64, 127
4, 30732, Control_c, 0, 64, 0
4, 30846, Control_c, 0, 64, 127
4, 31214, Control_c, 0, 64, 0
4, 31289, Control_c, 0, 64, 127
4, 31687, Control_c, 0, 64, 0
4, 31762, Control_c, 0, 64, 127
4, 32654, Control_c, 0, 64, 0
4, 32735, Control_c, 0, 64, 127
4, 33134, Control_c, 0, 64, 0
4, 33139, Control_c, 0, 64, 0
4, 33215, Control_c, 0, 64, 127
4, 33614, Control_c, 0, 64, 0
4, 33619, Control_c, 0, 64, 0
4, 33695, Control_c, 0, 64, 127
4, 34094, Control_c, 0, 64, 0
4, 34099, Control_c, 0, 64, 0
4, 34175, Control_c, 0, 64, 127
4, 34574, Control_c, 0, 64, 0
4, 34579, Control_c, 0, 64, 0
4, 34655, Control_c, 0, 64, 127
4, 35054, Control_c, 0, 64, 0
4, 35059, Control_c, 0, 64, 0
4, 35135, Control_c, 0, 64, 127
4, 35534, Control_c, 0, 64, 0
4, 35539, Control_c, 0, 64, 0
4, 35615, Control_c, 0, 64, 127
4, 36014, Control_c, 0, 64, 0
4, 36019, Control_c, 0, 64, 0
4, 36095, Control_c, 0, 64, 127
4, 36974, Control_c, 0, 64, 0
4, 36979, Control_c, 0, 64, 0
4, 37055, Control_c, 0, 64, 127
4, 37454, Control_c, 0, 64, 0
4, 37459, Control_c, 0, 64, 0
4, 37535, Control_c, 0, 64, 127
4, 37934, Control_c, 0, 64, 0
4, 37939, Control_c, 0, 64, 0
4, 38015, Control_c, 0, 64, 127
4, 38414, Control_c, 0, 64, 0
4, 38419, Control_c, 0, 64, 0
4, 38495, Control_c, 0, 64, 127
4, 38894, Control_c, 0, 64, 0
4, 38899, Control_c, 0, 64, 0
4, 38975, Control_c, 0, 64, 127
4, 39374, Control_c, 0, 64, 0
4, 39379, Control_c, 0, 64, 0
4, 39455, Control_c, 0, 64, 127
4, 39854, Control_c, 0, 64, 0
4, 39859, Control_c, 0, 64, 0
4, 39935, Control_c, 0, 64, 127
4, 40334, Control_c, 0, 64, 0
4, 40339, Control_c, 0, 64, 0
4, 40415, Control_c, 0, 64, 127
4, 40814, Control_c, 0, 64, 0
4, 40819, Control_c, 0, 64, 0
4, 40895, Control_c, 0, 64, 127
4, 41294, Control_c, 0, 64, 0
4, 41299, Control_c, 0, 64, 0
4, 41375, Control_c, 0, 64, 127
4, 41774, Control_c, 0, 64, 0
4, 41779, Control_c, 0, 64, 0
4, 41855, Control_c, 0, 64, 127
4, 42254, Control_c, 0, 64, 0
4, 42259, Control_c, 0, 64, 0
4, 42335, Control_c, 0, 64, 127
4, 42734, Control_c, 0, 64, 0
4, 42739, Control_c, 0, 64, 0
4, 42815, Control_c, 0, 64, 127
4, 43214, Control_c, 0, 64, 0
4, 43219, Control_c, 0, 64, 0
4, 43295, Control_c, 0, 64, 127
4, 43694, Control_c, 0, 64, 0
4, 43699, Control_c, 0, 64, 0
4, 43775, Control_c, 0, 64, 127
4, 44174, Control_c, 0, 64, 0
4, 44179, Control_c, 0, 64, 0
4, 44255, Control_c, 0, 64, 127
4, 44654, Control_c, 0, 64, 0
4, 44659, Control_c, 0, 64, 0
4, 44735, Control_c, 0, 64, 127
4, 45134, Control_c, 0, 64, 0
4, 45139, Control_c, 0, 64, 0
4, 45215, Control_c, 0, 64, 127
4, 45614, Control_c, 0, 64, 0
4, 45619, Control_c, 0, 64, 0
4, 45695, Control_c, 0, 64, 127
4, 46094, Control_c, 0, 64, 0
4, 46099, Control_c, 0, 64, 0
4, 46175, Control_c, 0, 64, 127
4, 46574, Control_c, 0, 64, 0
4, 46579, Control_c, 0, 64, 0
4, 46655, Control_c, 0, 64, 127
4, 47054, Control_c, 0, 64, 0
4, 47059, Control_c, 0, 64, 0
4, 47135, Control_c, 0, 64, 127
4, 47534, Control_c, 0, 64, 0
4, 47539, Control_c, 0, 64, 0
4, 47615, Control_c, 0, 64, 127
4, 48014, Control_c, 0, 64, 0
4, 48019, Control_c, 0, 64, 0
4, 48095, Control_c, 0, 64, 127
4, 48494, Control_c, 0, 64, 0
4, 48499, Control_c, 0, 64, 0
4, 48575, Control_c, 0, 64, 127
4, 48974, Control_c, 0, 64, 0
4, 48979, Control_c, 0, 64, 0
4, 49055, Control_c, 0, 64, 127
4, 49454, Control_c, 0, 64, 0
4, 51155, Control_c, 0, 64, 127
4, 51840, Control_c, 0, 64, 0
4, 51943, Control_c, 0, 64, 127
4, 52812, Control_c, 0, 64, 0
4, 53429, Control_c, 0, 64, 127
4, 54267, Control_c, 0, 64, 0
4, 54355, Control_c, 0, 64, 127
4, 54720, Control_c, 0, 64, 0
4, 54869, Control_c, 0, 64, 127
4, 56217, Control_c, 0, 64, 0
4, 56332, Control_c, 0, 64, 127
4, 56655, Control_c, 0, 64, 0
4, 56720, Control_c, 0, 64, 127
4, 57136, Control_c, 0, 64, 0
4, 57200, Control_c, 0, 64, 127
4, 57609, Control_c, 0, 64, 0
4, 57726, Control_c, 0, 64, 127
4, 58583, Control_c, 0, 64, 0
4, 58697, Control_c, 0, 64, 127
4, 59056, Control_c, 0, 64, 0
4, 59177, Control_c, 0, 64, 127
4, 60016, Control_c, 0, 64, 0
4, 60492, Control_c, 0, 64, 127
4, 60971, Control_c, 0, 64, 0
4, 61120, Control_c, 0, 64, 127
4, 61456, Control_c, 0, 64, 0
4, 61543, Control_c, 0, 64, 127
4, 61938, Control_c, 0, 64, 0
4, 62126, Control_c, 0, 64, 127
4, 62416, Control_c, 0, 64, 0
4, 62515, Control_c, 0, 64, 127
4, 62899, Control_c, 0, 64, 0
4, 63006, Control_c, 0, 64, 127
4, 63367, Control_c, 0, 64, 0
4, 63544, Control_c, 0, 64, 127
4, 64857, Control_c, 0, 64, 0
4, 64984, Control_c, 0, 64, 127
4, 66240, Control_c, 0, 64, 0
4, 66389, Control_c, 0, 64, 127
4, 67737, Control_c, 0, 64, 0
4, 67852, Control_c, 0, 64, 127
4, 68175, Control_c, 0, 64, 0
4, 68240, Control_c, 0, 64, 127
4, 68656, Control_c, 0, 64, 0
4, 68720, Control_c, 0, 64, 127
4, 69129, Control_c, 0, 64, 0
4, 69246, Control_c, 0, 64, 127
4, 70103, Control_c, 0, 64, 0
4, 70217, Control_c, 0, 64, 127
4, 70576, Control_c, 0, 64, 0
4, 70697, Control_c, 0, 64, 127
4, 71536, Control_c, 0, 64, 0
4, 71602, Control_c, 0, 64, 127
4, 72002, Control_c, 0, 64, 0
4, 72088, Control_c, 0, 64, 127
4, 72491, Control_c, 0, 64, 0
4, 72640, Control_c, 0, 64, 127
4, 72976, Control_c, 0, 64, 0
4, 73063, Control_c, 0, 64, 127
4, 73458, Control_c, 0, 64, 0
4, 73646, Control_c, 0, 64, 127
4, 73936, Control_c, 0, 64, 0
4, 74035, Control_c, 0, 64, 127
4, 74419, Control_c, 0, 64, 0
4, 74526, Control_c, 0, 64, 127
4, 74887, Control_c, 0, 64, 0
4, 75064, Control_c, 0, 64, 127
4, 76377, Control_c, 0, 64, 0
4, 76504, Control_c, 0, 64, 127
4, 77299, Control_c, 0, 64, 0
4, 77395, Control_c, 0, 64, 127
4, 77762, Control_c, 0, 64, 0
4, 77848, Control_c, 0, 64, 127
4, 78251, Control_c, 0, 64, 0
4, 78400, Control_c, 0, 64, 127
4, 78736, Control_c, 0, 64, 0
4, 78823, Control_c, 0, 64, 127
4, 79218, Control_c, 0, 64, 0
4, 79406, Control_c, 0, 64, 127
4, 79696, Control_c, 0, 64, 0
4, 79795, Control_c, 0, 64, 127
4, 80179, Control_c, 0, 64, 0
4, 80286, Control_c, 0, 64, 127
4, 80647, Control_c, 0, 64, 0
4, 80824, Control_c, 0, 64, 127
4, 81619, Control_c, 0, 64, 0
4, 81756, Control_c, 0, 64, 127
4, 82093, Control_c, 0, 64, 0
4, 82210, Control_c, 0, 64, 127
4, 82579, Control_c, 0, 64, 0
4, 82716, Control_c, 0, 64, 127
4, 83053, Control_c, 0, 64, 0
4, 83183, Control_c, 0, 64, 127
4, 83523, Control_c, 0, 64, 0
4, 86407, Control_c, 0, 64, 0
4, 86584, Control_c, 0, 64, 127
4, 87379, Control_c, 0, 64, 0
4, 87516, Control_c, 0, 64, 127
4, 87853, Control_c, 0, 64, 0
4, 87970, Control_c, 0, 64, 127
4, 88339, Control_c, 0, 64, 0
4, 88476, Control_c, 0, 64, 127
4, 88813, Control_c, 0, 64, 0
4, 88943, Control_c, 0, 64, 127
4, 89293, Control_c, 0, 64, 0
4, 89410, Control_c, 0, 64, 127
4, 89783, Control_c, 0, 64, 0
4, 89890, Control_c, 0, 64, 127
4, 90259, Control_c, 0, 64, 0
4, 90383, Control_c, 0, 64, 127
4, 90733, Control_c, 0, 64, 0
4, 90863, Control_c, 0, 64, 127
4, 91220, Control_c, 0, 64, 0
4, 91356, Control_c, 0, 64, 127
4, 91689, Control_c, 0, 64, 0
4, 91810, Control_c, 0, 64, 127
4, 92173, Control_c, 0, 64, 0
4, 92290, Control_c, 0, 64, 127
4, 92663, Control_c, 0, 64, 0
4, 92770, Control_c, 0, 64, 127
4, 93139, Control_c, 0, 64, 0
4, 93263, Control_c, 0, 64, 127
4, 93613, Control_c, 0, 64, 0
4, 93743, Control_c, 0, 64, 127
4, 94100, Control_c, 0, 64, 0
4, 94236, Control_c, 0, 64, 127
4, 94569, Control_c, 0, 64, 0
4, 94690, Control_c, 0, 64, 127
4, 95094, Control_c, 0, 64, 0
4, 95280, Control_c, 0, 64, 127
4, 97446, Control_c, 0, 64, 0
4, 98035, Control_c, 0, 64, 127
4, 100800, Control_c, 0, 64, 0
4, 101040, Control_c, 0, 64, 127
4, 101774, Control_c, 0, 64, 0
4, 101930, Control_c, 0, 64, 127
4, 102249, Control_c, 0, 64, 0
4, 102381, Control_c, 0, 64, 127
4, 103210, Control_c, 0, 64, 0
4, 103370, Control_c, 0, 64, 127
4, 103687, Control_c, 0, 64, 0
4, 103747, Control_c, 0, 64, 127
4, 104654, Control_c, 0, 64, 0
4, 104711, Control_c, 0, 64, 127
4, 105132, Control_c, 0, 64, 0
4, 106572, Control_c, 0, 64, 127
4, 107050, Control_c, 0, 64, 0
4, 107177, Control_c, 0, 64, 127
4, 107535, Control_c, 0, 64, 0
4, 107680, Control_c, 0, 64, 127
4, 108019, Control_c, 0, 64, 0
4, 108172, Control_c, 0, 64, 127
4, 108492, Control_c, 0, 64, 0
4, 108640, Control_c, 0, 64, 127
4, 108970, Control_c, 0, 64, 0
4, 109555, Control_c, 0, 64, 127
4, 112320, Control_c, 0, 64, 0
4, 112560, Control_c, 0, 64, 127
4, 113294, Control_c, 0, 64, 0
4, 113450, Control_c, 0, 64, 127
4, 113769, Control_c, 0, 64, 0
4, 113901, Control_c, 0, 64, 127
4, 114730, Control_c, 0, 64, 0
4, 114890, Control_c, 0, 64, 127
4, 115207, Control_c, 0, 64, 0
4, 115299, Control_c, 0, 64, 127
4, 116174, Control_c, 0, 64, 0
4, 116255, Control_c, 0, 64, 127
4, 116647, Control_c, 0, 64, 0
4, 116734, Control_c, 0, 64, 127
4, 117614, Control_c, 0, 64, 0
4, 117697, Control_c, 0, 64, 127
4, 118087, Control_c, 0, 64, 0
4, 118179, Control_c, 0, 64, 127
4, 118569, Control_c, 0, 64, 0
4, 118686, Control_c, 0, 64, 127
4, 119054, Control_c, 0, 64, 0
4, 119137, Control_c, 0, 64, 127
4, 119527, Control_c, 0, 64, 0
4, 119614, Control_c, 0, 64, 127
4, 120012, Control_c, 0, 64, 0
4, 120126, Control_c, 0, 64, 127
4, 120494, Control_c, 0, 64, 0
4, 120574, Control_c, 0, 64, 127
4, 120967, Control_c, 0, 64, 0
4, 121042, Control_c, 0, 64, 127
4, 121934, Control_c, 0, 64, 0
4, 122015, Control_c, 0, 64, 127
4, 122407, Control_c, 0, 64, 0
4, 122496, Control_c, 0, 64, 127
4, 123374, Control_c, 0, 64, 0
4, 123448, Control_c, 0, 64, 127
4, 123847, Control_c, 0, 64, 0
4, 123935, Control_c, 0, 64, 127
4, 124329, Control_c, 0, 64, 0
4, 124446, Control_c, 0, 64, 127
4, 124814, Control_c, 0, 64, 0
4, 124890, Control_c, 0, 64, 127
4, 125287, Control_c, 0, 64, 0
4, 125365, Control_c, 0, 64, 127
4, 125772, Control_c, 0, 64, 0
4, 125886, Control_c, 0, 64, 127
4, 126254, Control_c, 0, 64, 0
4, 126329, Control_c, 0, 64, 127
4, 126727, Control_c, 0, 64, 0
4, 126802, Control_c, 0, 64, 127
4, 127694, Control_c, 0, 64, 0
4, 127775, Control_c, 0, 64, 127
4, 128174, Control_c, 0, 64, 0
4, 128179, Control_c, 0, 64, 0
4, 128255, Control_c, 0, 64, 127
4, 128654, Control_c, 0, 64, 0
4, 128659, Control_c, 0, 64, 0
4, 128735, Control_c, 0, 64, 127
4, 129134, Control_c, 0, 64, 0
4, 129139, Control_c, 0, 64, 0
4, 129215, Control_c, 0, 64, 127
4, 129614, Control_c, 0, 64, 0
4, 129619, Control_c, 0, 64, 0
4, 129695, Control_c, 0, 64, 127
4, 130094, Control_c, 0, 64, 0
4, 130099, Control_c, 0, 64, 0
4, 130175, Control_c, 0, 64, 127
4, 130574, Control_c, 0, 64, 0
4, 130579, Control_c, 0, 64, 0
4, 130655, Control_c, 0, 64, 127
4, 131054, Control_c, 0, 64, 0
4, 131059, Control_c, 0, 64, 0
4, 131135, Control_c, 0, 64, 127
4, 132014, Control_c, 0, 64, 0
4, 132019, Control_c, 0, 64, 0
4, 132095, Control_c, 0, 64, 127
4, 132494, Control_c, 0, 64, 0
4, 132499, Control_c, 0, 64, 0
4, 132575, Control_c, 0, 64, 127
4, 132974, Control_c, 0, 64, 0
4, 132979, Control_c, 0, 64, 0
4, 133055, Control_c, 0, 64, 127
4, 133454, Control_c, 0, 64, 0
4, 133459, Control_c, 0, 64, 0
4, 133535, Control_c, 0, 64, 127
4, 133934, Control_c, 0, 64, 0
4, 133939, Control_c, 0, 64, 0
4, 134015, Control_c, 0, 64, 127
4, 134414, Control_c, 0, 64, 0
4, 134419, Control_c, 0, 64, 0
4, 134495, Control_c, 0, 64, 127
4, 134894, Control_c, 0, 64, 0
4, 134899, Control_c, 0, 64, 0
4, 134975, Control_c, 0, 64, 127
4, 135374, Control_c, 0, 64, 0
4, 135379, Control_c, 0, 64, 0
4, 135455, Control_c, 0, 64, 127
4, 135854, Control_c, 0, 64, 0
4, 135859, Control_c, 0, 64, 0
4, 135935, Control_c, 0, 64, 127
4, 136334, Control_c, 0, 64, 0
4, 136339, Control_c, 0, 64, 0
4, 136415, Control_c, 0, 64, 127
4, 136814, Control_c, 0, 64, 0
4, 136819, Control_c, 0, 64, 0
4, 136895, Control_c, 0, 64, 127
4, 137294, Control_c, 0, 64, 0
4, 137299, Control_c, 0, 64, 0
4, 137375, Control_c, 0, 64, 127
4, 137774, Control_c, 0, 64, 0
4, 137779, Control_c, 0, 64, 0
4, 137855, Control_c, 0, 64, 127
4, 138254, Control_c, 0, 64, 0
4, 138259, Control_c, 0, 64, 0
4, 138335, Control_c, 0, 64, 127
4, 138734, Control_c, 0, 64, 0
4, 138739, Control_c, 0, 64, 0
4, 138815, Control_c, 0, 64, 127
4, 139214, Control_c, 0, 64, 0
4, 139219, Control_c, 0, 64, 0
4, 139295, Control_c, 0, 64, 127
4, 139694, Control_c, 0, 64, 0
4, 139699, Control_c, 0, 64, 0
4, 139775, Control_c, 0, 64, 127
4, 140174, Control_c, 0, 64, 0
4, 140179, Control_c, 0, 64, 0
4, 140255, Control_c, 0, 64, 127
4, 140654, Control_c, 0, 64, 0
4, 140659, Control_c, 0, 64, 0
4, 140735, Control_c, 0, 64, 127
4, 141134, Control_c, 0, 64, 0
4, 141139, Control_c, 0, 64, 0
4, 141215, Control_c, 0, 64, 127
4, 141614, Control_c, 0, 64, 0
4, 141619, Control_c, 0, 64, 0
4, 141695, Control_c, 0, 64, 127
4, 142094, Control_c, 0, 64, 0
4, 142099, Control_c, 0, 64, 0
4, 142175, Control_c, 0, 64, 127
4, 142574, Control_c, 0, 64, 0
4, 142579, Control_c, 0, 64, 0
4, 142655, Control_c, 0, 64, 127
4, 143054, Control_c, 0, 64, 0
4, 143059, Control_c, 0, 64, 0
4, 143135, Control_c, 0, 64, 127
4, 143534, Control_c, 0, 64, 0
4, 143539, Control_c, 0, 64, 0
4, 143615, Control_c, 0, 64, 127
4, 144014, Control_c, 0, 64, 0
4, 144019, Control_c, 0, 64, 0
4, 144095, Control_c, 0, 64, 127
4, 144494, Control_c, 0, 64, 0
4, 146195, Control_c, 0, 64, 127
4, 146880, Control_c, 0, 64, 0
4, 146983, Control_c, 0, 64, 127
4, 147852, Control_c, 0, 64, 0
4, 148469, Control_c, 0, 64, 127
4, 149307, Control_c, 0, 64, 0
4, 149395, Control_c, 0, 64, 127
4, 149760, Control_c, 0, 64, 0
4, 149909, Control_c, 0, 64, 127
4, 151257, Control_c, 0, 64, 0
4, 151372, Control_c, 0, 64, 127
4, 151695, Control_c, 0, 64, 0
4, 151760, Control_c, 0, 64, 127
4, 152176, Control_c, 0, 64, 0
4, 152240, Control_c, 0, 64, 127
4, 152649, Control_c, 0, 64, 0
4, 152766, Control_c, 0, 64, 127
4, 153623, Control_c, 0, 64, 0
4, 153737, Control_c, 0, 64, 127
4, 154096, Control_c, 0, 64, 0
4, 154217, Control_c, 0, 64, 127
4, 155056, Control_c, 0, 64, 0
4, 155532, Control_c, 0, 64, 127
4, 156011, Control_c, 0, 64, 0
4, 156160, Control_c, 0, 64, 127
4, 156496, Control_c, 0, 64, 0
4, 156583, Control_c, 0, 64, 127
4, 156978, Control_c, 0, 64, 0
4, 157166, Control_c, 0, 64, 127
4, 157456, Control_c, 0, 64, 0
4, 157555, Control_c, 0, 64, 127
4, 157939, Control_c, 0, 64, 0
4, 158046, Control_c, 0, 64, 127
4, 158407, Control_c, 0, 64, 0
4, 158584, Control_c, 0, 64, 127
4, 159897, Control_c, 0, 64, 0
4, 160024, Control_c, 0, 64, 127
4, 161280, Control_c, 0, 64, 0
4, 161429, Control_c, 0, 64, 127
4, 162777, Control_c, 0, 64, 0
4, 162892, Control_c, 0, 64, 127
4, 163215, Control_c, 0, 64, 0
4, 163280, Control_c, 0, 64, 127
4, 163696, Control_c, 0, 64, 0
4, 163760, Control_c, 0, 64, 127
4, 164169, Control_c, 0, 64, 0
4, 164286, Control_c, 0, 64, 127
4, 165143, Control_c, 0, 64, 0
4, 165257, Control_c, 0, 64, 127
4, 165616, Control_c, 0, 64, 0
4, 165737, Control_c, 0, 64, 127
4, 166576, Control_c, 0, 64, 0
4, 166642, Control_c, 0, 64, 127
4, 167042, Control_c, 0, 64, 0
4, 167128, Control_c, 0, 64, 127
4, 167531, Control_c, 0, 64, 0
4, 167680, Control_c, 0, 64, 127
4, 168016, Control_c, 0, 64, 0
4, 168103, Control_c, 0, 64, 127
4, 168498, Control_c, 0, 64, 0
4, 168686, Control_c, 0, 64, 127
4, 168976, Control_c, 0, 64, 0
4, 169075, Control_c, 0, 64, 127
4, 169459, Control_c, 0, 64, 0
4, 169566, Control_c, 0, 64, 127
4, 169927, Control_c, 0, 64, 0
4, 170104, Control_c, 0, 64, 127
4, 171417, Control_c, 0, 64, 0
4, 171544, Control_c, 0, 64, 127
4, 172339, Control_c, 0, 64, 0
4, 172435, Control_c, 0, 64, 127
4, 172802, Control_c, 0, 64, 0
4, 172888, Control_c, 0, 64, 127
4, 173291, Control_c, 0, 64, 0
4, 173440, Control_c, 0, 64, 127
4, 173776, Control_c, 0, 64, 0
4, 173863, Control_c, 0, 64, 127
4, 174258, Control_c, 0, 64, 0
4, 174446, Control_c, 0, 64, 127
4, 174736, Control_c, 0, 64, 0
4, 174835, Control_c, 0, 64, 127
4, 175219, Control_c, 0, 64, 0
4, 175326, Control_c, 0, 64, 127
4, 175687, Control_c, 0, 64, 0
4, 175864, Control_c, 0, 64, 127
4, 176659, Control_c, 0, 64, 0
4, 176796, Control_c, 0, 64, 127
4, 177133, Control_c, 0, 64, 0
4, 177250, Control_c, 0, 64, 127
4, 177619, Control_c, 0, 64, 0
4, 177756, Control_c, 0, 64, 127
4, 178093, Control_c, 0, 64, 0
4, 178223, Control_c, 0, 64, 127
4, 178563, Control_c, 0, 64, 0
4, 181447, Control_c, 0, 64, 0
4, 181624, Control_c, 0, 64, 127
4, 182419, Control_c, 0, 64, 0
4, 182556, Control_c, 0, 64, 127
4, 182893, Control_c, 0, 64, 0
4, 183010, Control_c, 0, 64, 127
4, 183379, Control_c, 0, 64, 0
4, 183516, Control_c, 0, 64, 127
4, 183853, Control_c, 0, 64, 0
4, 183983, Control_c, 0, 64, 127
4, 184333, Control_c, 0, 64, 0
4, 184450, Control_c, 0, 64, 127
4, 184823, Control_c, 0, 64, 0
4, 184930, Control_c, 0, 64, 127
4, 185299, Control_c, 0, 64, 0
4, 185423, Control_c, 0, 64, 127
4, 185773, Control_c, 0, 64, 0
4, 185903, Control_c, 0, 64, 127
4, 186260, Control_c, 0, 64, 0
4, 186396, Control_c, 0, 64, 127
4, 186729, Control_c, 0, 64, 0
4, 186850, Control_c, 0, 64, 127
4, 187213, Control_c, 0, 64, 0
4, 187330, Control_c, 0, 64, 127
4, 187703, Control_c, 0, 64, 0
4, 187810, Control_c, 0, 64, 127
4, 188179, Control_c, 0, 64, 0
4, 188303, Control_c, 0, 64, 127
4, 188653, Control_c, 0, 64, 0
4, 188783, Control_c, 0, 64, 127
4, 189140, Control_c, 0, 64, 0
4, 189276, Control_c, 0, 64, 127
4, 189609, Control_c, 0, 64, 0
4, 189730, Control_c, 0, 64, 127
4, 190134, Control_c, 0, 64, 0
4, 190320, Control_c, 0, 64, 127
4, 192960, Control_c, 0, 64, 0
4, 193075, Control_c, 0, 64, 127
4, 195840, Control_c, 0, 64, 0
4, 196080, Control_c, 0, 64, 127
4, 196814, Control_c, 0, 64, 0
4, 196970, Control_c, 0, 64, 127
4, 197289, Control_c, 0, 64, 0
4, 197421, Control_c, 0, 64, 127
4, 198250, Control_c, 0, 64, 0
4, 198410, Control_c, 0, 64, 127
4, 198744, Control_c, 0, 64, 0
4, 198869, Control_c, 0, 64, 127
4, 200184, Control_c, 0, 64, 0
4, 200332, Control_c, 0, 64, 127
4, 201608, Control_c, 0, 64, 0
4, 201726, Control_c, 0, 64, 127
4, 204480, Control_c, 0, 64, 0
4, 204488, Control_c, 0, 64, 0
4, 204595, Control_c, 0, 64, 127
4, 207360, Control_c, 0, 64, 0
4, 207600, Control_c, 0, 64, 127
4, 208334, Control_c, 0, 64, 0
4, 208490, Control_c, 0, 64, 127
4, 208809, Control_c, 0, 64, 0
4, 208941, Control_c, 0, 64, 127
4, 209770, Control_c, 0, 64, 0
4, 209930, Control_c, 0, 64, 127
4, 210264, Control_c, 0, 64, 0
4, 210389, Control_c, 0, 64, 127
4, 211704, Control_c, 0, 64, 0
4, 211852, Control_c, 0, 64, 127
4, 213128, Control_c, 0, 64, 0
4, 213246, Control_c, 0, 64, 127
4, 216020, Control_c, 0, 64, 0
4, 216024, Control_c, 0, 64, 0
4, 216149, Control_c, 0, 64, 127
4, 217464, Control_c, 0, 64, 0
4, 217612, Control_c, 0, 64, 127
4, 218900, Control_c, 0, 64, 0
4, 218904, Control_c, 0, 64, 0
4, 219029, Control_c, 0, 64, 127
4, 220344, Control_c, 0, 64, 0
4, 220492, Control_c, 0, 64, 127
4, 221780, Control_c, 0, 64, 0
4, 221784, Control_c, 0, 64, 0
4, 221909, Control_c, 0, 64, 127
4, 223224, Control_c, 0, 64, 0
4, 223372, Control_c, 0, 64, 127
4, 224660, Control_c, 0, 64, 0
4, 224664, Control_c, 0, 64, 0
4, 224789, Control_c, 0, 64, 127
4, 226104, Control_c, 0, 64, 0
4, 226252, Control_c, 0, 64, 127
4, 227540, Control_c, 0, 64, 0
4, 227544, Control_c, 0, 64, 0
4, 227669, Control_c, 0, 64, 127
4, 228984, Control_c, 0, 64, 0
4, 229087, Control_c, 0, 64, 127
4, 230420, Control_c, 0, 64, 0
4, 230424, Control_c, 0, 64, 0
4, 230549, Control_c, 0, 64, 127
4, 231864, Control_c, 0, 64, 0
4, 231962, Control_c, 0, 64, 127
4, 233300, Control_c, 0, 64, 0
4, 233304, Control_c, 0, 64, 0
4, 233429, Control_c, 0, 64, 127
4, 234246, Control_c, 0, 64, 0
4, 234423, Control_c, 0, 64, 127
4, 234737, Control_c, 0, 64, 0
4, 234892, Control_c, 0, 64, 127
4, 235696, Control_c, 0, 64, 0
4, 235829, Control_c, 0, 64, 127
4, 236180, Control_c, 0, 64, 0
4, 236184, Control_c, 0, 64, 0
4, 236309, Control_c, 0, 64, 127
4, 236663, Control_c, 0, 64, 0
4, 236789, Control_c, 0, 64, 127
4, 237132, Control_c, 0, 64, 0
4, 237246, Control_c, 0, 64, 127
4, 237623, Control_c, 0, 64, 0
4, 237783, Control_c, 0, 64, 127
4, 238097, Control_c, 0, 64, 0
4, 238252, Control_c, 0, 64, 127
4, 238576, Control_c, 0, 64, 0
4, 238743, Control_c, 0, 64, 127
4, 239057, Control_c, 0, 64, 0
4, 239155, Control_c, 0, 64, 127
4, 240499, Control_c, 0, 64, 0
4, 240617, Control_c, 0, 64, 127
4, 241937, Control_c, 0, 64, 0
4, 242035, Control_c, 0, 64, 127
4, 243379, Control_c, 0, 64, 0
4, 243497, Control_c, 0, 64, 127
4, 244817, Control_c, 0, 64, 0
4, 244915, Control_c, 0, 64, 127
4, 246259, Control_c, 0, 64, 0
4, 246377, Control_c, 0, 64, 127
4, 247699, Control_c, 0, 64, 0
4, 247875, Control_c, 0, 64, 127
4, 249139, Control_c, 0, 64, 0
4, 249315, Control_c, 0, 64, 127
4, 250579, Control_c, 0, 64, 0
4, 250755, Control_c, 0, 64, 127
4, 252019, Control_c, 0, 64, 0
4, 252195, Control_c, 0, 64, 127
4, 253459, Control_c, 0, 64, 0
4, 253635, Control_c, 0, 64, 127
4, 254899, Control_c, 0, 64, 0
4, 255075, Control_c, 0, 64, 127
4, 256339, Control_c, 0, 64, 0
4, 256515, Control_c, 0, 64, 127
4, 257779, Control_c, 0, 64, 0
4, 257955, Control_c, 0, 64, 127
4, 259219, Control_c, 0, 64, 0
4, 259395, Control_c, 0, 64, 127
4, 260659, Control_c, 0, 64, 0
4, 260835, Control_c, 0, 64, 127
4, 262080, Control_c, 0, 64, 0
4, 262240, Control_c, 0, 64, 127
4, 264960, Control_c, 0, 64, 0
4, 265120, Control_c, 0, 64, 127
4, 266414, Control_c, 0, 64, 0
4, 266606, Control_c, 0, 64, 127
4, 267840, Control_c, 0, 64, 0
4, 268000, Control_c, 0, 64, 127
4, 270720, Control_c, 0, 64, 0
4, 270880, Control_c, 0, 64, 127
4, 272174, Control_c, 0, 64, 0
4, 272366, Control_c, 0, 64, 127
4, 273600, Control_c, 0, 64, 0
4, 273760, Control_c, 0, 64, 127
4, 276480, Control_c, 0, 64, 0
4, 276629, Control_c, 0, 64, 127
4, 277977, Control_c, 0, 64, 0
4, 278092, Control_c, 0, 64, 127
4, 278415, Control_c, 0, 64, 0
4, 278480, Control_c, 0, 64, 127
4, 278896, Control_c, 0, 64, 0
4, 278960, Control_c, 0, 64, 127
4, 279369, Control_c, 0, 64, 0
4, 279486, Control_c, 0, 64, 127
4, 280343, Control_c, 0, 64, 0
4, 280457, Control_c, 0, 64, 127
4, 280816, Control_c, 0, 64, 0
4, 280937, Control_c, 0, 64, 127
4, 282240, Control_c, 0, 64, 0
4, 282326, Control_c, 0, 64, 127
4, 282731, Control_c, 0, 64, 0
4, 282880, Control_c, 0, 64, 127
4, 283216, Control_c, 0, 64, 0
4, 283303, Control_c, 0, 64, 127
4, 283698, Control_c, 0, 64, 0
4, 283886, Control_c, 0, 64, 127
4, 284176, Control_c, 0, 64, 0
4, 284275, Control_c, 0, 64, 127
4, 284659, Control_c, 0, 64, 0
4, 284766, Control_c, 0, 64, 127
4, 285127, Control_c, 0, 64, 0
4, 285304, Control_c, 0, 64, 127
4, 286617, Control_c, 0, 64, 0
4, 286800, Control_c, 0, 64, 127
4, 288000, Control_c, 0, 64, 0
4, 288149, Control_c, 0, 64, 127
4, 289497, Control_c, 0, 64, 0
4, 289612, Control_c, 0, 64, 127
4, 289935, Control_c, 0, 64, 0
4, 290000, Control_c, 0, 64, 127
4, 290416, Control_c, 0, 64, 0
4, 290480, Control_c, 0, 64, 127
4, 290889, Control_c, 0, 64, 0
4, 291006, Control_c, 0, 64, 127
4, 292336, Control_c, 0, 64, 0
4, 292457, Control_c, 0, 64, 127
4, 293760, Control_c, 0, 64, 0
4, 293846, Control_c, 0, 64, 127
4, 294251, Control_c, 0, 64, 0
4, 294400, Control_c, 0, 64, 127
4, 294736, Control_c, 0, 64, 0
4, 294823, Control_c, 0, 64, 127
4, 295218, Control_c, 0, 64, 0
4, 295406, Control_c, 0, 64, 127
4, 295696, Control_c, 0, 64, 0
4, 295795, Control_c, 0, 64, 127
4, 296179, Control_c, 0, 64, 0
4, 296286, Control_c, 0, 64, 127
4, 296647, Control_c, 0, 64, 0
4, 296824, Control_c, 0, 64, 127
4, 298137, Control_c, 0, 64, 0
4, 298264, Control_c, 0, 64, 127
4, 299522, Control_c, 0, 64, 0
4, 299608, Control_c, 0, 64, 127
4, 300011, Control_c, 0, 64, 0
4, 300160, Control_c, 0, 64, 127
4, 300496, Control_c, 0, 64, 0
4, 300583, Control_c, 0, 64, 127
4, 300978, Control_c, 0, 64, 0
4, 301166, Control_c, 0, 64, 127
4, 301456, Control_c, 0, 64, 0
4, 301555, Control_c, 0, 64, 127
4, 301939, Control_c, 0, 64, 0
4, 302046, Control_c, 0, 64, 127
4, 302407, Control_c, 0, 64, 0
4, 302584, Control_c, 0, 64, 127
4, 303897, Control_c, 0, 64, 0
4, 304024, Control_c, 0, 64, 127
4, 304819, Control_c, 0, 64, 0
4, 304915, Control_c, 0, 64, 127
4, 305282, Control_c, 0, 64, 0
4, 305368, Control_c, 0, 64, 127
4, 305771, Control_c, 0, 64, 0
4, 305920, Control_c, 0, 64, 127
4, 306256, Control_c, 0, 64, 0
4, 306343, Control_c, 0, 64, 127
4, 306738, Control_c, 0, 64, 0
4, 306926, Control_c, 0, 64, 127
4, 307216, Control_c, 0, 64, 0
4, 307315, Control_c, 0, 64, 127
4, 307699, Control_c, 0, 64, 0
4, 307806, Control_c, 0, 64, 127
4, 308162, Control_c, 0, 64, 0
4, 308248, Control_c, 0, 64, 127
4, 308651, Control_c, 0, 64, 0
4, 308800, Control_c, 0, 64, 127
4, 309136, Control_c, 0, 64, 0
4, 309223, Control_c, 0, 64, 127
4, 309618, Control_c, 0, 64, 0
4, 309724, Control_c, 0, 64, 127
4, 310093, Control_c, 0, 64, 0
4, 310147, Control_c, 0, 64, 127
4, 310576, Control_c, 0, 64, 0
4, 310620, Control_c, 0, 64, 127
4, 311058, Control_c, 0, 64, 0
4, 311164, Control_c, 0, 64, 127
4, 311531, Control_c, 0, 64, 0
4, 311661, Control_c, 0, 64, 127
4, 312020, Control_c, 0, 64, 0
4, 312156, Control_c, 0, 64, 127
4, 312498, Control_c, 0, 64, 0
4, 312604, Control_c, 0, 64, 127
4, 312971, Control_c, 0, 64, 0
4, 313101, Control_c, 0, 64, 127
4, 313460, Control_c, 0, 64, 0
4, 313596, Control_c, 0, 64, 127
4, 313937, Control_c, 0, 64, 0
4, 315463, Control_c, 0, 64, 127
4, 316800, Control_c, 0, 64, 0
4, 316807, Control_c, 0, 64, 0
4, 316984, Control_c, 0, 64, 127
4, 317779, Control_c, 0, 64, 0
4, 317916, Control_c, 0, 64, 127
4, 318253, Control_c, 0, 64, 0
4, 318370, Control_c, 0, 64, 127
4, 318739, Control_c, 0, 64, 0
4, 318876, Control_c, 0, 64, 127
4, 319213, Control_c, 0, 64, 0
4, 319343, Control_c, 0, 64, 127
4, 319683, Control_c, 0, 64, 0
4, 322567, Control_c, 0, 64, 0
4, 322744, Control_c, 0, 64, 127
4, 323539, Control_c, 0, 64, 0
4, 323676, Control_c, 0, 64, 127
4, 324013, Control_c, 0, 64, 0
4, 324130, Control_c, 0, 64, 127
4, 324499, Control_c, 0, 64, 0
4, 324636, Control_c, 0, 64, 127
4, 324973, Control_c, 0, 64, 0
4, 325103, Control_c, 0, 64, 127
4, 325453, Control_c, 0, 64, 0
4, 325570, Control_c, 0, 64, 127
4, 325943, Control_c, 0, 64, 0
4, 326050, Control_c, 0, 64, 127
4, 326419, Control_c, 0, 64, 0
4, 326543, Control_c, 0, 64, 127
4, 326893, Control_c, 0, 64, 0
4, 327023, Control_c, 0, 64, 127
4, 327380, Control_c, 0, 64, 0
4, 327516, Control_c, 0, 64, 127
4, 327849, Control_c, 0, 64, 0
4, 327970, Control_c, 0, 64, 127
4, 328333, Control_c, 0, 64, 0
4, 328450, Control_c, 0, 64, 127
4, 328823, Control_c, 0, 64, 0
4, 328930, Control_c, 0, 64, 127
4, 329299, Control_c, 0, 64, 0
4, 329423, Control_c, 0, 64, 127
4, 329773, Control_c, 0, 64, 0
4, 329903, Control_c, 0, 64, 127
4, 330260, Control_c, 0, 64, 0
4, 330396, Control_c, 0, 64, 127
4, 330729, Control_c, 0, 64, 0
4, 330850, Control_c, 0, 64, 127
4, 331254, Control_c, 0, 64, 0
4, 331440, Control_c, 0, 64, 127
4, 334200, Control_c, 0, 64, 0
4, 337080, Control_c, 0, 64, 127
4, 340200, Control_c, 0, 64, 0
4, 341534, Control_c, 0, 64, 127
4, 342438, Control_c, 0, 64, 0
4, 342934, Control_c, 0, 64, 127
4, 344400, Control_c, 0, 64, 0
4, 344400, End_track
5, 0, Start_track
5, 0, Title_t, "Mendelssohn: Songs without words Opus 19 No. 5"
5, 0, End_track
6, 0, Start_track
6, 0, Title_t, "Copyright © 2010 by Bernd Krueger"
6, 0, End_track
7, 0, Start_track
7, 0, Title_t, "http://www.piano-midi.de/"
7, 0, End_track
8, 0, Start_track
8, 0, Title_t, "Edition: 2014-11-30"
8, 0, End_track
9, 0, Start_track
9, 0, Title_t, "Spur 8"
9, 0, End_track
10, 0, Start_track
10, 0, Title_t, "Spur 9"
10, 0, End_track
11, 0, Start_track
11, 0, Title_t, "Spur 10"
11, 0, End_track
12, 0, Start_track
12, 0, Title_t, "Spur 11"
12, 0, End_track
13, 0, Start_track
13, 0, Title_t, "Spur 12"
13, 0, End_track
14, 0, Start_track
14, 0, Title_t, "Spur 13"
14, 0, End_track
15, 0, Start_track
15, 0, Title_t, "Spur 14"
15, 0, End_track
16, 0, Start_track
16, 0, Title_t, "Spur 15"
16, 0, End_track
17, 0, Start_track
17, 0, Title_t, "Spur 16"
17, 0, End_track
0, 0, End_of_file
