0, 0, Header, 1, 17, 480
1, 0, Start_track
1, 0, Title_t, "Mendelssohn: Lieder ohne Worte Opus 19 Nr. 4"
1, 0, Copyright_t, "Copyright © 2014 by Bernd Krueger"
1, 0, Text_t, "Bernd Krueger"
1, 0, Text_t, "Moderato"
1, 0, Text_t, "Erstellt: 10.11.2014\012"
1, 0, Text_t, "Dauer: 1:46 Minuten\012"
1, 0, Time_signature, 4, 2, 24, 8
1, 0, Key_signature, 3, "major"
1, 0, Tempo, 886656
1, 1920, Tempo, 886656
1, 2400, Tempo, 873744
1, 2640, Tempo, 920669
1, 2760, Tempo, 1014027
1, 2880, Tempo, 893256
1, 3360, Tempo, 886656
1, 4680, Tempo, 927787
1, 4800, Tempo, 886656
1, 5040, Tempo, 867428
1, 5520, Tempo, 913659
1, 5760, Tempo, 880153
1, 6480, Tempo, 855066
1, 6720, Tempo, 893256
1, 9120, Tempo, 920669
1, 9600, Tempo, 893256
1, 11040, Tempo, 855066
1, 11520, Tempo, 886656
1, 12960, Tempo, 913659
1, 13440, Tempo, 873744
1, 14400, Tempo, 906755
1, 14880, Tempo, 949818
1, 15120, Tempo, 1068186
1, 15360, Tempo, 913659
1, 16080, Tempo, 893256
1, 16800, Tempo, 920669
1, 17280, Tempo, 893256
1, 18720, Tempo, 855066
1, 19200, Tempo, 886656
1, 20640, Tempo, 913659
1, 21120, Tempo, 873744
1, 22080, Tempo, 906755
1, 22560, Tempo, 949818
1, 22800, Tempo, 1068186
1, 23040, Tempo, 886656
1, 23760, Tempo, 935016
1, 24000, Tempo, 886656
1, 24480, Tempo, 861203
1, 24720, Tempo, 927787
1, 24960, Tempo, 886656
1, 25680, Tempo, 935016
1, 25920, Tempo, 899955
1, 26400, Tempo, 893256
1, 26640, Tempo, 980873
1, 26880, Tempo, 927787
1, 27840, Tempo, 893256
1, 28080, Tempo, 880153
1, 28560, Tempo, 935016
1, 28800, Tempo, 893256
1, 29520, Tempo, 942359
1, 29760, Tempo, 893256
1, 30240, Tempo, 949818
1, 30480, Tempo, 1014027
1, 30720, Tempo, 1068186
1, 31200, Tempo, 1113379
1, 31680, Tempo, 886656
1, 32160, Tempo, 855066
1, 32400, Tempo, 873744
1, 32640, Tempo, 899955
1, 33360, Tempo, 935016
1, 33480, Tempo, 1036448
1, 33600, Tempo, 903751
1, 34080, Tempo, 917571
1, 34320, Tempo, 931822
1, 34560, Tempo, 939114
1, 35280, Tempo, 935016
1, 35520, Tempo, 886656
1, 36000, Tempo, 861203
1, 36240, Tempo, 927787
1, 36480, Tempo, 886656
1, 37200, Tempo, 935016
1, 37440, Tempo, 899955
1, 37920, Tempo, 893256
1, 38160, Tempo, 980873
1, 38400, Tempo, 927787
1, 38880, Tempo, 961693
1, 39120, Tempo, 893256
1, 39360, Tempo, 864678
1, 39600, Tempo, 903751
1, 39840, Tempo, 877321
1, 40080, Tempo, 931822
1, 40320, Tempo, 893256
1, 40560, Tempo, 864678
1, 40800, Tempo, 903751
1, 41040, Tempo, 864678
1, 41760, Tempo, 855066
1, 42240, Tempo, 886656
1, 42720, Tempo, 924642
1, 42960, Tempo, 1001837
1, 43200, Tempo, 917571
1, 43920, Tempo, 1018849
1, 44160, Tempo, 877321
1, 44400, Tempo, 903751
1, 44640, Tempo, 903751
1, 45120, Tempo, 883783
1, 45360, Tempo, 903751
1, 45600, Tempo, 954047
1, 45840, Tempo, 1018849
1, 46080, Tempo, 954047
1, 47040, Tempo, 977358
1, 47520, Tempo, 1045478
1, 47760, Tempo, 1123806
1, 48000, Tempo, 954047
1, 48309, Tempo, 931822
1, 48329, Tempo, 939114
1, 48480, Tempo, 910609
1, 48962, Tempo, 896995
1, 49058, Tempo, 890340
1, 49135, Tempo, 883783
1, 49231, Tempo, 877321
1, 49308, Tempo, 870954
1, 49440, Tempo, 864678
1, 49920, Tempo, 858492
1, 50400, Tempo, 873744
1, 50640, Tempo, 939114
1, 50760, Tempo, 1103144
1, 50880, Tempo, 917571
1, 51120, Tempo, 883783
1, 51360, Tempo, 886656
1, 52680, Tempo, 927787
1, 52800, Tempo, 886656
1, 53040, Tempo, 867428
1, 53520, Tempo, 913659
1, 53760, Tempo, 896995
1, 54480, Tempo, 883783
1, 54720, Tempo, 985383
1, 54720, End_track
2, 0, Start_track
2, 0, Title_t, "Piano right"
2, 0, Program_c, 0, 0
2, 0, Note_on_c, 0, 61, 42
2, 0, Note_on_c, 0, 69, 50
2, 120, Note_on_c, 0, 69, 0
2, 120, Note_on_c, 0, 61, 0
2, 120, Note_on_c, 0, 64, 36
2, 240, Note_on_c, 0, 64, 0
2, 240, Note_on_c, 0, 61, 36
2, 360, Note_on_c, 0, 61, 0
2, 360, Note_on_c, 0, 64, 36
2, 480, Note_on_c, 0, 64, 0
2, 480, Note_on_c, 0, 69, 50
2, 600, Note_on_c, 0, 69, 0
2, 600, Note_on_c, 0, 64, 34
2, 720, Note_on_c, 0, 64, 0
2, 720, Note_on_c, 0, 71, 45
2, 720, Note_on_c, 0, 68, 38
2, 840, Note_on_c, 0, 68, 0
2, 840, Note_on_c, 0, 71, 0
2, 840, Note_on_c, 0, 64, 33
2, 960, Note_on_c, 0, 64, 0
2, 960, Note_on_c, 0, 69, 42
2, 960, Note_on_c, 0, 73, 50
2, 1080, Note_on_c, 0, 73, 0
2, 1080, Note_on_c, 0, 69, 0
2, 1080, Note_on_c, 0, 64, 36
2, 1200, Note_on_c, 0, 64, 0
2, 1200, Note_on_c, 0, 61, 36
2, 1320, Note_on_c, 0, 61, 0
2, 1320, Note_on_c, 0, 64, 36
2, 1440, Note_on_c, 0, 64, 0
2, 1440, Note_on_c, 0, 73, 50
2, 1560, Note_on_c, 0, 73, 0
2, 1560, Note_on_c, 0, 69, 33
2, 1680, Note_on_c, 0, 69, 0
2, 1680, Note_on_c, 0, 71, 42
2, 1680, Note_on_c, 0, 74, 50
2, 1800, Note_on_c, 0, 74, 0
2, 1800, Note_on_c, 0, 71, 0
2, 1800, Note_on_c, 0, 69, 33
2, 1920, Note_on_c, 0, 69, 0
2, 1920, Note_on_c, 0, 73, 43
2, 1920, Note_on_c, 0, 76, 51
2, 2040, Note_on_c, 0, 76, 0
2, 2040, Note_on_c, 0, 73, 0
2, 2040, Note_on_c, 0, 69, 40
2, 2160, Note_on_c, 0, 69, 0
2, 2160, Note_on_c, 0, 73, 49
2, 2160, Note_on_c, 0, 76, 58
2, 2280, Note_on_c, 0, 76, 0
2, 2280, Note_on_c, 0, 73, 0
2, 2280, Note_on_c, 0, 69, 43
2, 2400, Note_on_c, 0, 69, 0
2, 2400, Note_on_c, 0, 74, 53
2, 2400, Note_on_c, 0, 78, 63
2, 2520, Note_on_c, 0, 78, 0
2, 2520, Note_on_c, 0, 74, 0
2, 2520, Note_on_c, 0, 69, 41
2, 2640, Note_on_c, 0, 69, 0
2, 2640, Note_on_c, 0, 76, 56
2, 2640, Note_on_c, 0, 80, 67
2, 2760, Note_on_c, 0, 80, 0
2, 2760, Note_on_c, 0, 76, 0
2, 2760, Note_on_c, 0, 69, 48
2, 2880, Note_on_c, 0, 69, 0
2, 2880, Note_on_c, 0, 80, 47
2, 2880, Note_on_c, 0, 83, 56
2, 3000, Note_on_c, 0, 80, 0
2, 3000, Note_on_c, 0, 69, 33
2, 3120, Note_on_c, 0, 69, 0
2, 3120, Note_on_c, 0, 83, 0
2, 3120, Note_on_c, 0, 81, 52
2, 3120, Note_on_c, 0, 78, 44
2, 3240, Note_on_c, 0, 78, 0
2, 3240, Note_on_c, 0, 69, 29
2, 3360, Note_on_c, 0, 69, 0
2, 3360, Note_on_c, 0, 81, 0
2, 3360, Note_on_c, 0, 80, 48
2, 3360, Note_on_c, 0, 76, 40
2, 3480, Note_on_c, 0, 76, 0
2, 3480, Note_on_c, 0, 69, 29
2, 3600, Note_on_c, 0, 69, 0
2, 3600, Note_on_c, 0, 80, 0
2, 3600, Note_on_c, 0, 78, 49
2, 3600, Note_on_c, 0, 74, 41
2, 3720, Note_on_c, 0, 74, 0
2, 3720, Note_on_c, 0, 69, 36
2, 3840, Note_on_c, 0, 69, 0
2, 3840, Note_on_c, 0, 78, 0
2, 3840, Note_on_c, 0, 76, 49
2, 3840, Note_on_c, 0, 73, 41
2, 3960, Note_on_c, 0, 73, 0
2, 3960, Note_on_c, 0, 66, 29
2, 4080, Note_on_c, 0, 66, 0
2, 4080, Note_on_c, 0, 76, 0
2, 4080, Note_on_c, 0, 74, 48
2, 4080, Note_on_c, 0, 71, 40
2, 4200, Note_on_c, 0, 71, 0
2, 4200, Note_on_c, 0, 66, 24
2, 4320, Note_on_c, 0, 66, 0
2, 4320, Note_on_c, 0, 74, 0
2, 4320, Note_on_c, 0, 73, 47
2, 4320, Note_on_c, 0, 64, 39
2, 4440, Note_on_c, 0, 64, 0
2, 4440, Note_on_c, 0, 66, 34
2, 4560, Note_on_c, 0, 66, 0
2, 4560, Note_on_c, 0, 73, 0
2, 4560, Note_on_c, 0, 71, 45
2, 4560, Note_on_c, 0, 62, 38
2, 4680, Note_on_c, 0, 62, 0
2, 4680, Note_on_c, 0, 66, 33
2, 4800, Note_on_c, 0, 66, 0
2, 4800, Note_on_c, 0, 71, 0
2, 4800, Note_on_c, 0, 69, 45
2, 4800, Note_on_c, 0, 61, 38
2, 4920, Note_on_c, 0, 61, 0
2, 4920, Note_on_c, 0, 64, 33
2, 5040, Note_on_c, 0, 64, 0
2, 5040, Note_on_c, 0, 69, 0
2, 5040, Note_on_c, 0, 73, 47
2, 5160, Note_on_c, 0, 64, 33
2, 5280, Note_on_c, 0, 64, 0
2, 5280, Note_on_c, 0, 73, 0
2, 5280, Note_on_c, 0, 62, 35
2, 5280, Note_on_c, 0, 71, 42
2, 5400, Note_on_c, 0, 62, 0
2, 5400, Note_on_c, 0, 64, 32
2, 5520, Note_on_c, 0, 64, 0
2, 5520, Note_on_c, 0, 71, 0
2, 5520, Note_on_c, 0, 68, 42
2, 5640, Note_on_c, 0, 64, 29
2, 5760, Note_on_c, 0, 64, 0
2, 5760, Note_on_c, 0, 68, 0
2, 5760, Note_on_c, 0, 61, 37
2, 5760, Note_on_c, 0, 69, 45
2, 5880, Note_on_c, 0, 69, 0
2, 5880, Note_on_c, 0, 61, 0
2, 5880, Note_on_c, 0, 64, 32
2, 6000, Note_on_c, 0, 64, 0
2, 6000, Note_on_c, 0, 61, 31
2, 6120, Note_on_c, 0, 61, 0
2, 6120, Note_on_c, 0, 64, 30
2, 6240, Note_on_c, 0, 64, 0
2, 6240, Note_on_c, 0, 69, 39
2, 6360, Note_on_c, 0, 69, 0
2, 6360, Note_on_c, 0, 73, 32
2, 6480, Note_on_c, 0, 73, 0
2, 6480, Note_on_c, 0, 76, 37
2, 6600, Note_on_c, 0, 76, 0
2, 6600, Note_on_c, 0, 73, 33
2, 6720, Note_on_c, 0, 73, 0
2, 6720, Note_on_c, 0, 61, 31
2, 6720, Note_on_c, 0, 69, 37
2, 6960, Note_on_c, 0, 69, 0
2, 6960, Note_on_c, 0, 61, 0
2, 7200, Note_on_c, 0, 69, 34
2, 7200, Note_on_c, 0, 61, 29
2, 7440, Note_on_c, 0, 61, 0
2, 7440, Note_on_c, 0, 69, 0
2, 7680, Note_on_c, 0, 61, 37
2, 7680, Note_on_c, 0, 69, 37
2, 7920, Note_on_c, 0, 69, 0
2, 7920, Note_on_c, 0, 61, 0
2, 8400, Note_on_c, 0, 64, 52
2, 8640, Note_on_c, 0, 64, 0
2, 8640, Note_on_c, 0, 69, 60
2, 8640, Note_on_c, 0, 64, 51
2, 9096, Note_on_c, 0, 64, 0
2, 9096, Note_on_c, 0, 69, 0
2, 9120, Note_on_c, 0, 71, 69
2, 9120, Note_on_c, 0, 68, 58
2, 9120, Note_on_c, 0, 64, 58
2, 9576, Note_on_c, 0, 64, 0
2, 9576, Note_on_c, 0, 68, 0
2, 9576, Note_on_c, 0, 71, 0
2, 9600, Note_on_c, 0, 73, 73
2, 9600, Note_on_c, 0, 69, 60
2, 9600, Note_on_c, 0, 64, 60
2, 10313, Note_on_c, 0, 64, 0
2, 10313, Note_on_c, 0, 69, 0
2, 10313, Note_on_c, 0, 73, 0
2, 10320, Note_on_c, 0, 73, 59
2, 10554, Note_on_c, 0, 73, 0
2, 10560, Note_on_c, 0, 73, 68
2, 10560, Note_on_c, 0, 69, 57
2, 10560, Note_on_c, 0, 66, 57
2, 10794, Note_on_c, 0, 73, 0
2, 10800, Note_on_c, 0, 66, 0
2, 10800, Note_on_c, 0, 69, 0
2, 10800, Note_on_c, 0, 73, 59
2, 11040, Note_on_c, 0, 73, 0
2, 11040, Note_on_c, 0, 76, 72
2, 11400, Note_on_c, 0, 76, 0
2, 11400, Note_on_c, 0, 74, 59
2, 11520, Note_on_c, 0, 74, 0
2, 11520, Note_on_c, 0, 73, 69
2, 11520, Note_on_c, 0, 66, 58
2, 12000, Note_on_c, 0, 66, 0
2, 12000, Note_on_c, 0, 73, 0
2, 12000, Note_on_c, 0, 71, 52
2, 12228, Note_on_c, 0, 71, 0
2, 12240, Note_on_c, 0, 71, 47
2, 12468, Note_on_c, 0, 71, 0
2, 12480, Note_on_c, 0, 74, 57
2, 12480, Note_on_c, 0, 66, 48
2, 12936, Note_on_c, 0, 66, 0
2, 12936, Note_on_c, 0, 74, 0
2, 12960, Note_on_c, 0, 73, 53
2, 12960, Note_on_c, 0, 65, 45
2, 13440, Note_on_c, 0, 65, 0
2, 13440, Note_on_c, 0, 73, 0
2, 13440, Note_on_c, 0, 61, 42
2, 13440, Note_on_c, 0, 66, 42
2, 13440, Note_on_c, 0, 69, 50
2, 14158, Note_on_c, 0, 69, 0
2, 14160, Note_on_c, 0, 66, 0
2, 14160, Note_on_c, 0, 61, 0
2, 14160, Note_on_c, 0, 69, 37
2, 14400, Note_on_c, 0, 69, 0
2, 14400, Note_on_c, 0, 71, 42
2, 14400, Note_on_c, 0, 69, 42
2, 14400, Note_on_c, 0, 62, 42
2, 14880, Note_on_c, 0, 69, 0
2, 14880, Note_on_c, 0, 68, 38
2, 15120, Note_on_c, 0, 71, 0
2, 15120, Note_on_c, 0, 73, 34
2, 15360, Note_on_c, 0, 73, 0
2, 15360, Note_on_c, 0, 68, 0
2, 15360, Note_on_c, 0, 62, 0
2, 15360, Note_on_c, 0, 61, 32
2, 15360, Note_on_c, 0, 69, 38
2, 15840, Note_on_c, 0, 69, 0
2, 15840, Note_on_c, 0, 61, 0
2, 16080, Note_on_c, 0, 64, 68
2, 16320, Note_on_c, 0, 64, 0
2, 16320, Note_on_c, 0, 69, 69
2, 16320, Note_on_c, 0, 64, 58
2, 16776, Note_on_c, 0, 64, 0
2, 16776, Note_on_c, 0, 69, 0
2, 16800, Note_on_c, 0, 71, 78
2, 16800, Note_on_c, 0, 68, 67
2, 16800, Note_on_c, 0, 64, 67
2, 17256, Note_on_c, 0, 64, 0
2, 17256, Note_on_c, 0, 68, 0
2, 17256, Note_on_c, 0, 71, 0
2, 17280, Note_on_c, 0, 73, 84
2, 17280, Note_on_c, 0, 69, 69
2, 17280, Note_on_c, 0, 64, 69
2, 17993, Note_on_c, 0, 64, 0
2, 17993, Note_on_c, 0, 69, 0
2, 17993, Note_on_c, 0, 73, 0
2, 18000, Note_on_c, 0, 73, 68
2, 18228, Note_on_c, 0, 73, 0
2, 18240, Note_on_c, 0, 73, 77
2, 18240, Note_on_c, 0, 69, 66
2, 18240, Note_on_c, 0, 66, 66
2, 18468, Note_on_c, 0, 73, 0
2, 18480, Note_on_c, 0, 73, 68
2, 18650, Note_on_c, 0, 73, 0
2, 18660, Note_on_c, 0, 73, 65
2, 18720, Note_on_c, 0, 73, 0
2, 18720, Note_on_c, 0, 76, 82
2, 19080, Note_on_c, 0, 76, 0
2, 19080, Note_on_c, 0, 74, 68
2, 19200, Note_on_c, 0, 74, 0
2, 19200, Note_on_c, 0, 66, 0
2, 19200, Note_on_c, 0, 69, 0
2, 19200, Note_on_c, 0, 73, 78
2, 19200, Note_on_c, 0, 66, 67
2, 19680, Note_on_c, 0, 66, 0
2, 19680, Note_on_c, 0, 73, 0
2, 19680, Note_on_c, 0, 71, 55
2, 19908, Note_on_c, 0, 71, 0
2, 19920, Note_on_c, 0, 71, 48
2, 20148, Note_on_c, 0, 71, 0
2, 20160, Note_on_c, 0, 74, 57
2, 20160, Note_on_c, 0, 66, 48
2, 20640, Note_on_c, 0, 66, 0
2, 20640, Note_on_c, 0, 74, 0
2, 20640, Note_on_c, 0, 73, 53
2, 20640, Note_on_c, 0, 65, 45
2, 21120, Note_on_c, 0, 65, 0
2, 21120, Note_on_c, 0, 73, 0
2, 21120, Note_on_c, 0, 61, 42
2, 21120, Note_on_c, 0, 66, 42
2, 21120, Note_on_c, 0, 69, 50
2, 21838, Note_on_c, 0, 69, 0
2, 21840, Note_on_c, 0, 66, 0
2, 21840, Note_on_c, 0, 61, 0
2, 21840, Note_on_c, 0, 69, 37
2, 22080, Note_on_c, 0, 69, 0
2, 22080, Note_on_c, 0, 71, 42
2, 22080, Note_on_c, 0, 69, 42
2, 22080, Note_on_c, 0, 62, 42
2, 22560, Note_on_c, 0, 69, 0
2, 22560, Note_on_c, 0, 68, 38
2, 22800, Note_on_c, 0, 71, 0
2, 22800, Note_on_c, 0, 73, 34
2, 23040, Note_on_c, 0, 73, 0
2, 23040, Note_on_c, 0, 68, 0
2, 23040, Note_on_c, 0, 62, 0
2, 23040, Note_on_c, 0, 61, 32
2, 23040, Note_on_c, 0, 69, 38
2, 23520, Note_on_c, 0, 69, 0
2, 23520, Note_on_c, 0, 61, 0
2, 24000, Note_on_c, 0, 64, 58
2, 24000, Note_on_c, 0, 69, 58
2, 24000, Note_on_c, 0, 76, 69
2, 24480, Note_on_c, 0, 76, 0
2, 24480, Note_on_c, 0, 69, 0
2, 24480, Note_on_c, 0, 64, 0
2, 24480, Note_on_c, 0, 71, 53
2, 24480, Note_on_c, 0, 74, 65
2, 24720, Note_on_c, 0, 74, 0
2, 24720, Note_on_c, 0, 71, 0
2, 24720, Note_on_c, 0, 73, 53
2, 24720, Note_on_c, 0, 69, 45
2, 24936, Note_on_c, 0, 69, 0
2, 24936, Note_on_c, 0, 73, 0
2, 24960, Note_on_c, 0, 64, 58
2, 24960, Note_on_c, 0, 68, 58
2, 24960, Note_on_c, 0, 73, 69
2, 25440, Note_on_c, 0, 73, 0
2, 25440, Note_on_c, 0, 68, 0
2, 25440, Note_on_c, 0, 64, 0
2, 25440, Note_on_c, 0, 71, 63
2, 25680, Note_on_c, 0, 71, 0
2, 25920, Note_on_c, 0, 64, 45
2, 25920, Note_on_c, 0, 69, 53
2, 26136, Note_on_c, 0, 69, 0
2, 26136, Note_on_c, 0, 64, 0
2, 26160, Note_on_c, 0, 64, 39
2, 26160, Note_on_c, 0, 69, 46
2, 26376, Note_on_c, 0, 69, 0
2, 26376, Note_on_c, 0, 64, 0
2, 26400, Note_on_c, 0, 62, 45
2, 26400, Note_on_c, 0, 68, 54
2, 26616, Note_on_c, 0, 68, 0
2, 26616, Note_on_c, 0, 62, 0
2, 26640, Note_on_c, 0, 61, 39
2, 26640, Note_on_c, 0, 66, 46
2, 26856, Note_on_c, 0, 66, 0
2, 26856, Note_on_c, 0, 61, 0
2, 26880, Note_on_c, 0, 59, 46
2, 26880, Note_on_c, 0, 62, 46
2, 26880, Note_on_c, 0, 66, 55
2, 27360, Note_on_c, 0, 66, 0
2, 27360, Note_on_c, 0, 64, 52
2, 27840, Note_on_c, 0, 62, 0
2, 27840, Note_on_c, 0, 59, 0
2, 27840, Note_on_c, 0, 61, 44
2, 28080, Note_on_c, 0, 61, 0
2, 28080, Note_on_c, 0, 64, 0
2, 28080, Note_on_c, 0, 63, 45
2, 28080, Note_on_c, 0, 66, 53
2, 28320, Note_on_c, 0, 66, 0
2, 28320, Note_on_c, 0, 63, 0
2, 28320, Note_on_c, 0, 64, 45
2, 28320, Note_on_c, 0, 68, 54
2, 28560, Note_on_c, 0, 68, 0
2, 28560, Note_on_c, 0, 64, 0
2, 28560, Note_on_c, 0, 66, 46
2, 28560, Note_on_c, 0, 69, 55
2, 28800, Note_on_c, 0, 69, 0
2, 28800, Note_on_c, 0, 66, 0
2, 28800, Note_on_c, 0, 71, 65
2, 28800, Note_on_c, 0, 64, 55
2, 29040, Note_on_c, 0, 71, 0
2, 29040, Note_on_c, 0, 76, 66
2, 29280, Note_on_c, 0, 76, 0
2, 29280, Note_on_c, 0, 71, 58
2, 29640, Note_on_c, 0, 71, 0
2, 29640, Note_on_c, 0, 68, 56
2, 29760, Note_on_c, 0, 68, 0
2, 29760, Note_on_c, 0, 71, 66
2, 30240, Note_on_c, 0, 71, 0
2, 30240, Note_on_c, 0, 64, 0
2, 30240, Note_on_c, 0, 69, 56
2, 30240, Note_on_c, 0, 63, 47
2, 30480, Note_on_c, 0, 69, 0
2, 30480, Note_on_c, 0, 66, 43
2, 30710, Note_on_c, 0, 66, 0
2, 30715, Note_on_c, 0, 63, 0
2, 30720, Note_on_c, 0, 59, 32
2, 30720, Note_on_c, 0, 57, 32
2, 30720, Note_on_c, 0, 63, 32
2, 30720, Note_on_c, 0, 66, 38
2, 31200, Note_on_c, 0, 66, 0
2, 31200, Note_on_c, 0, 59, 0
2, 31200, Note_on_c, 0, 57, 0
2, 31200, Note_on_c, 0, 63, 0
2, 31200, Note_on_c, 0, 56, 32
2, 31200, Note_on_c, 0, 64, 38
2, 31440, Note_on_c, 0, 64, 0
2, 31440, Note_on_c, 0, 56, 0
2, 31680, Note_on_c, 0, 61, 41
2, 31680, Note_on_c, 0, 64, 41
2, 31680, Note_on_c, 0, 73, 49
2, 32160, Note_on_c, 0, 73, 0
2, 32160, Note_on_c, 0, 64, 0
2, 32160, Note_on_c, 0, 61, 0
2, 32160, Note_on_c, 0, 64, 43
2, 32160, Note_on_c, 0, 73, 48
2, 32400, Note_on_c, 0, 73, 0
2, 32400, Note_on_c, 0, 64, 0
2, 32400, Note_on_c, 0, 69, 43
2, 32640, Note_on_c, 0, 69, 0
2, 32640, Note_on_c, 0, 62, 42
2, 32640, Note_on_c, 0, 68, 50
2, 33120, Note_on_c, 0, 68, 0
2, 33120, Note_on_c, 0, 62, 0
2, 33120, Note_on_c, 0, 66, 45
2, 33360, Note_on_c, 0, 66, 0
2, 33600, Note_on_c, 0, 61, 28
2, 33600, Note_on_c, 0, 64, 28
2, 33600, Note_on_c, 0, 73, 35
2, 34080, Note_on_c, 0, 73, 0
2, 34080, Note_on_c, 0, 64, 0
2, 34080, Note_on_c, 0, 61, 0
2, 34080, Note_on_c, 0, 64, 30
2, 34080, Note_on_c, 0, 73, 34
2, 34320, Note_on_c, 0, 73, 0
2, 34320, Note_on_c, 0, 64, 0
2, 34320, Note_on_c, 0, 69, 30
2, 34560, Note_on_c, 0, 69, 0
2, 34560, Note_on_c, 0, 62, 26
2, 34560, Note_on_c, 0, 68, 32
2, 35040, Note_on_c, 0, 68, 0
2, 35040, Note_on_c, 0, 62, 0
2, 35040, Note_on_c, 0, 66, 28
2, 35280, Note_on_c, 0, 66, 0
2, 35520, Note_on_c, 0, 66, 64
2, 35520, Note_on_c, 0, 78, 73
2, 36000, Note_on_c, 0, 78, 0
2, 36000, Note_on_c, 0, 73, 69
2, 36720, Note_on_c, 0, 73, 0
2, 36720, Note_on_c, 0, 66, 0
2, 36720, Note_on_c, 0, 66, 22
2, 36720, Note_on_c, 0, 71, 45
2, 36900, Note_on_c, 0, 71, 0
2, 36900, Note_on_c, 0, 66, 0
2, 36960, Note_on_c, 0, 66, 22
2, 36960, Note_on_c, 0, 73, 45
2, 37140, Note_on_c, 0, 73, 0
2, 37140, Note_on_c, 0, 66, 0
2, 37200, Note_on_c, 0, 66, 22
2, 37200, Note_on_c, 0, 74, 45
2, 37380, Note_on_c, 0, 74, 0
2, 37380, Note_on_c, 0, 66, 0
2, 37440, Note_on_c, 0, 64, 33
2, 37440, Note_on_c, 0, 73, 39
2, 37920, Note_on_c, 0, 73, 0
2, 37920, Note_on_c, 0, 71, 40
2, 38136, Note_on_c, 0, 71, 0
2, 38160, Note_on_c, 0, 76, 34
2, 38376, Note_on_c, 0, 76, 0
2, 38400, Note_on_c, 0, 64, 0
2, 38400, Note_on_c, 0, 64, 34
2, 38400, Note_on_c, 0, 68, 34
2, 38400, Note_on_c, 0, 74, 41
2, 38880, Note_on_c, 0, 74, 0
2, 38880, Note_on_c, 0, 68, 0
2, 38880, Note_on_c, 0, 64, 0
2, 38880, Note_on_c, 0, 69, 35
2, 38880, Note_on_c, 0, 73, 39
2, 39120, Note_on_c, 0, 73, 0
2, 39120, Note_on_c, 0, 69, 0
2, 39120, Note_on_c, 0, 64, 68
2, 39360, Note_on_c, 0, 64, 0
2, 39360, Note_on_c, 0, 69, 69
2, 39600, Note_on_c, 0, 64, 46
2, 39816, Note_on_c, 0, 69, 0
2, 39840, Note_on_c, 0, 64, 0
2, 39840, Note_on_c, 0, 71, 78
2, 40080, Note_on_c, 0, 64, 53
2, 40080, Note_on_c, 0, 68, 53
2, 40296, Note_on_c, 0, 71, 0
2, 40320, Note_on_c, 0, 68, 0
2, 40320, Note_on_c, 0, 64, 0
2, 40320, Note_on_c, 0, 73, 84
2, 40560, Note_on_c, 0, 64, 46
2, 40560, Note_on_c, 0, 69, 46
2, 40776, Note_on_c, 0, 69, 0
2, 40776, Note_on_c, 0, 64, 0
2, 40800, Note_on_c, 0, 64, 46
2, 40800, Note_on_c, 0, 69, 46
2, 41016, Note_on_c, 0, 69, 0
2, 41016, Note_on_c, 0, 64, 0
2, 41033, Note_on_c, 0, 73, 0
2, 41040, Note_on_c, 0, 64, 46
2, 41040, Note_on_c, 0, 69, 46
2, 41040, Note_on_c, 0, 73, 74
2, 41256, Note_on_c, 0, 69, 0
2, 41256, Note_on_c, 0, 64, 0
2, 41268, Note_on_c, 0, 73, 0
2, 41280, Note_on_c, 0, 73, 85
2, 41508, Note_on_c, 0, 73, 0
2, 41520, Note_on_c, 0, 73, 74
2, 41520, Note_on_c, 0, 69, 46
2, 41520, Note_on_c, 0, 64, 46
2, 41690, Note_on_c, 0, 73, 0
2, 41700, Note_on_c, 0, 73, 71
2, 41736, Note_on_c, 0, 64, 0
2, 41736, Note_on_c, 0, 69, 0
2, 41760, Note_on_c, 0, 73, 0
2, 41760, Note_on_c, 0, 76, 90
2, 41760, Note_on_c, 0, 69, 46
2, 41760, Note_on_c, 0, 64, 46
2, 41976, Note_on_c, 0, 64, 0
2, 41976, Note_on_c, 0, 69, 0
2, 42000, Note_on_c, 0, 69, 46
2, 42000, Note_on_c, 0, 64, 46
2, 42120, Note_on_c, 0, 76, 0
2, 42120, Note_on_c, 0, 74, 74
2, 42216, Note_on_c, 0, 64, 0
2, 42216, Note_on_c, 0, 69, 0
2, 42240, Note_on_c, 0, 74, 0
2, 42240, Note_on_c, 0, 73, 82
2, 42480, Note_on_c, 0, 69, 58
2, 42720, Note_on_c, 0, 69, 0
2, 42720, Note_on_c, 0, 73, 0
2, 42720, Note_on_c, 0, 69, 72
2, 42720, Note_on_c, 0, 71, 72
2, 42948, Note_on_c, 0, 71, 0
2, 42948, Note_on_c, 0, 69, 0
2, 42960, Note_on_c, 0, 69, 67
2, 42960, Note_on_c, 0, 71, 67
2, 43188, Note_on_c, 0, 71, 0
2, 43188, Note_on_c, 0, 69, 0
2, 43200, Note_on_c, 0, 81, 92
2, 43680, Note_on_c, 0, 81, 0
2, 43680, Note_on_c, 0, 81, 85
2, 44160, Note_on_c, 0, 81, 0
2, 44160, Note_on_c, 0, 81, 75
2, 44400, Note_on_c, 0, 81, 0
2, 44400, Note_on_c, 0, 76, 63
2, 44640, Note_on_c, 0, 76, 0
2, 44640, Note_on_c, 0, 73, 68
2, 44880, Note_on_c, 0, 73, 0
2, 44880, Note_on_c, 0, 78, 63
2, 45120, Note_on_c, 0, 78, 0
2, 45120, Note_on_c, 0, 76, 68
2, 45360, Note_on_c, 0, 76, 0
2, 45360, Note_on_c, 0, 73, 58
2, 45600, Note_on_c, 0, 73, 0
2, 45600, Note_on_c, 0, 69, 57
2, 45840, Note_on_c, 0, 69, 0
2, 45840, Note_on_c, 0, 66, 56
2, 46080, Note_on_c, 0, 66, 0
2, 46080, Note_on_c, 0, 64, 63
2, 46560, Note_on_c, 0, 57, 31
2, 46560, Note_on_c, 0, 61, 40
2, 47040, Note_on_c, 0, 61, 0
2, 47040, Note_on_c, 0, 57, 0
2, 47040, Note_on_c, 0, 56, 31
2, 47040, Note_on_c, 0, 59, 35
2, 47280, Note_on_c, 0, 64, 0
2, 47280, Note_on_c, 0, 63, 45
2, 47520, Note_on_c, 0, 63, 0
2, 47520, Note_on_c, 0, 62, 42
2, 47870, Note_on_c, 0, 59, 0
2, 47880, Note_on_c, 0, 62, 0
2, 47880, Note_on_c, 0, 59, 31
2, 48000, Note_on_c, 0, 59, 0
2, 48000, Note_on_c, 0, 56, 0
2, 48000, Note_on_c, 0, 57, 38
2, 48120, Note_on_c, 0, 57, 0
2, 48120, Note_on_c, 0, 64, 30
2, 48240, Note_on_c, 0, 64, 0
2, 48240, Note_on_c, 0, 61, 30
2, 48360, Note_on_c, 0, 61, 0
2, 48360, Note_on_c, 0, 64, 30
2, 48480, Note_on_c, 0, 64, 0
2, 48480, Note_on_c, 0, 69, 42
2, 48600, Note_on_c, 0, 69, 0
2, 48600, Note_on_c, 0, 64, 28
2, 48720, Note_on_c, 0, 64, 0
2, 48720, Note_on_c, 0, 71, 38
2, 48720, Note_on_c, 0, 68, 32
2, 48840, Note_on_c, 0, 68, 0
2, 48840, Note_on_c, 0, 71, 0
2, 48840, Note_on_c, 0, 64, 28
2, 48960, Note_on_c, 0, 64, 0
2, 48960, Note_on_c, 0, 69, 35
2, 48960, Note_on_c, 0, 73, 42
2, 49080, Note_on_c, 0, 73, 0
2, 49080, Note_on_c, 0, 69, 0
2, 49080, Note_on_c, 0, 64, 30
2, 49200, Note_on_c, 0, 64, 0
2, 49200, Note_on_c, 0, 61, 30
2, 49320, Note_on_c, 0, 61, 0
2, 49320, Note_on_c, 0, 64, 30
2, 49440, Note_on_c, 0, 64, 0
2, 49440, Note_on_c, 0, 73, 42
2, 49560, Note_on_c, 0, 73, 0
2, 49560, Note_on_c, 0, 69, 28
2, 49680, Note_on_c, 0, 69, 0
2, 49680, Note_on_c, 0, 71, 35
2, 49680, Note_on_c, 0, 74, 42
2, 49800, Note_on_c, 0, 74, 0
2, 49800, Note_on_c, 0, 71, 0
2, 49800, Note_on_c, 0, 69, 28
2, 49920, Note_on_c, 0, 69, 0
2, 49920, Note_on_c, 0, 73, 36
2, 49920, Note_on_c, 0, 76, 43
2, 50040, Note_on_c, 0, 76, 0
2, 50040, Note_on_c, 0, 73, 0
2, 50040, Note_on_c, 0, 69, 34
2, 50160, Note_on_c, 0, 69, 0
2, 50160, Note_on_c, 0, 73, 41
2, 50160, Note_on_c, 0, 76, 49
2, 50280, Note_on_c, 0, 76, 0
2, 50280, Note_on_c, 0, 73, 0
2, 50280, Note_on_c, 0, 69, 36
2, 50400, Note_on_c, 0, 69, 0
2, 50400, Note_on_c, 0, 74, 45
2, 50400, Note_on_c, 0, 78, 53
2, 50520, Note_on_c, 0, 78, 0
2, 50520, Note_on_c, 0, 74, 0
2, 50520, Note_on_c, 0, 69, 34
2, 50640, Note_on_c, 0, 69, 0
2, 50640, Note_on_c, 0, 76, 47
2, 50640, Note_on_c, 0, 80, 56
2, 50760, Note_on_c, 0, 80, 0
2, 50760, Note_on_c, 0, 76, 0
2, 50760, Note_on_c, 0, 69, 40
2, 50880, Note_on_c, 0, 69, 0
2, 50880, Note_on_c, 0, 80, 39
2, 50880, Note_on_c, 0, 83, 47
2, 51000, Note_on_c, 0, 80, 0
2, 51000, Note_on_c, 0, 69, 28
2, 51120, Note_on_c, 0, 69, 0
2, 51120, Note_on_c, 0, 83, 0
2, 51120, Note_on_c, 0, 81, 44
2, 51120, Note_on_c, 0, 78, 37
2, 51240, Note_on_c, 0, 78, 0
2, 51240, Note_on_c, 0, 69, 24
2, 51360, Note_on_c, 0, 69, 0
2, 51360, Note_on_c, 0, 81, 0
2, 51360, Note_on_c, 0, 80, 40
2, 51360, Note_on_c, 0, 76, 34
2, 51480, Note_on_c, 0, 76, 0
2, 51480, Note_on_c, 0, 69, 24
2, 51600, Note_on_c, 0, 69, 0
2, 51600, Note_on_c, 0, 80, 0
2, 51600, Note_on_c, 0, 78, 41
2, 51600, Note_on_c, 0, 74, 34
2, 51720, Note_on_c, 0, 74, 0
2, 51720, Note_on_c, 0, 69, 30
2, 51840, Note_on_c, 0, 69, 0
2, 51840, Note_on_c, 0, 78, 0
2, 51840, Note_on_c, 0, 76, 41
2, 51840, Note_on_c, 0, 73, 34
2, 51960, Note_on_c, 0, 73, 0
2, 51960, Note_on_c, 0, 66, 24
2, 52080, Note_on_c, 0, 66, 0
2, 52080, Note_on_c, 0, 76, 0
2, 52080, Note_on_c, 0, 74, 40
2, 52080, Note_on_c, 0, 71, 34
2, 52200, Note_on_c, 0, 71, 0
2, 52200, Note_on_c, 0, 66, 20
2, 52320, Note_on_c, 0, 66, 0
2, 52320, Note_on_c, 0, 74, 0
2, 52320, Note_on_c, 0, 73, 39
2, 52320, Note_on_c, 0, 64, 33
2, 52440, Note_on_c, 0, 64, 0
2, 52440, Note_on_c, 0, 66, 28
2, 52560, Note_on_c, 0, 66, 0
2, 52560, Note_on_c, 0, 73, 0
2, 52560, Note_on_c, 0, 71, 38
2, 52560, Note_on_c, 0, 62, 32
2, 52680, Note_on_c, 0, 62, 0
2, 52680, Note_on_c, 0, 66, 28
2, 52800, Note_on_c, 0, 66, 0
2, 52800, Note_on_c, 0, 71, 0
2, 52800, Note_on_c, 0, 69, 38
2, 52800, Note_on_c, 0, 61, 32
2, 52920, Note_on_c, 0, 61, 0
2, 52920, Note_on_c, 0, 64, 28
2, 53040, Note_on_c, 0, 64, 0
2, 53040, Note_on_c, 0, 69, 0
2, 53040, Note_on_c, 0, 73, 39
2, 53160, Note_on_c, 0, 64, 28
2, 53280, Note_on_c, 0, 64, 0
2, 53280, Note_on_c, 0, 73, 0
2, 53280, Note_on_c, 0, 62, 29
2, 53280, Note_on_c, 0, 71, 35
2, 53400, Note_on_c, 0, 62, 0
2, 53400, Note_on_c, 0, 64, 27
2, 53520, Note_on_c, 0, 64, 0
2, 53520, Note_on_c, 0, 71, 0
2, 53520, Note_on_c, 0, 68, 35
2, 53640, Note_on_c, 0, 64, 24
2, 53760, Note_on_c, 0, 64, 0
2, 53760, Note_on_c, 0, 68, 0
2, 53760, Note_on_c, 0, 61, 31
2, 53760, Note_on_c, 0, 69, 38
2, 53880, Note_on_c, 0, 69, 0
2, 53880, Note_on_c, 0, 61, 0
2, 53880, Note_on_c, 0, 64, 27
2, 54000, Note_on_c, 0, 64, 0
2, 54000, Note_on_c, 0, 61, 26
2, 54120, Note_on_c, 0, 61, 0
2, 54120, Note_on_c, 0, 64, 25
2, 54240, Note_on_c, 0, 64, 0
2, 54240, Note_on_c, 0, 69, 33
2, 54360, Note_on_c, 0, 69, 0
2, 54360, Note_on_c, 0, 73, 27
2, 54480, Note_on_c, 0, 73, 0
2, 54480, Note_on_c, 0, 76, 31
2, 54600, Note_on_c, 0, 76, 0
2, 54600, Note_on_c, 0, 73, 28
2, 54720, Note_on_c, 0, 73, 0
2, 54720, Note_on_c, 0, 76, 26
2, 54720, Note_on_c, 0, 69, 26
2, 54720, Note_on_c, 0, 81, 31
2, 54960, Note_on_c, 0, 81, 0
2, 54960, Note_on_c, 0, 69, 0
2, 54960, Note_on_c, 0, 76, 0
2, 55200, Note_on_c, 0, 76, 24
2, 55200, Note_on_c, 0, 81, 28
2, 55200, Note_on_c, 0, 69, 24
2, 55440, Note_on_c, 0, 69, 0
2, 55440, Note_on_c, 0, 81, 0
2, 55440, Note_on_c, 0, 76, 0
2, 55680, Note_on_c, 0, 76, 31
2, 55680, Note_on_c, 0, 69, 31
2, 55680, Note_on_c, 0, 81, 31
2, 55920, Note_on_c, 0, 81, 0
2, 55920, Note_on_c, 0, 69, 0
2, 55920, Note_on_c, 0, 76, 0
2, 55920, End_track
3, 0, Start_track
3, 0, Title_t, "Piano left"
3, 0, Program_c, 0, 0
3, 0, Note_on_c, 0, 45, 34
3, 0, Note_on_c, 0, 57, 40
3, 1920, Note_on_c, 0, 57, 0
3, 1920, Note_on_c, 0, 45, 0
3, 1920, Note_on_c, 0, 33, 34
3, 1920, Note_on_c, 0, 45, 40
3, 2640, Note_on_c, 0, 45, 0
3, 2640, Note_on_c, 0, 33, 0
3, 2640, Note_on_c, 0, 32, 34
3, 2640, Note_on_c, 0, 44, 40
3, 2880, Note_on_c, 0, 44, 0
3, 2880, Note_on_c, 0, 32, 0
3, 2880, Note_on_c, 0, 42, 45
3, 2880, Note_on_c, 0, 30, 38
3, 4320, Note_on_c, 0, 30, 0
3, 4320, Note_on_c, 0, 42, 0
3, 4320, Note_on_c, 0, 50, 46
3, 4320, Note_on_c, 0, 38, 39
3, 4800, Note_on_c, 0, 38, 0
3, 4800, Note_on_c, 0, 50, 0
3, 4800, Note_on_c, 0, 52, 43
3, 4800, Note_on_c, 0, 40, 36
3, 5760, Note_on_c, 0, 40, 0
3, 5760, Note_on_c, 0, 52, 0
3, 5760, Note_on_c, 0, 52, 43
3, 5760, Note_on_c, 0, 45, 36
3, 6240, Note_on_c, 0, 45, 0
3, 6240, Note_on_c, 0, 52, 0
3, 6720, Note_on_c, 0, 45, 25
3, 6720, Note_on_c, 0, 52, 30
3, 6960, Note_on_c, 0, 52, 0
3, 6960, Note_on_c, 0, 45, 0
3, 7200, Note_on_c, 0, 52, 27
3, 7200, Note_on_c, 0, 45, 23
3, 7440, Note_on_c, 0, 45, 0
3, 7440, Note_on_c, 0, 52, 0
3, 7680, Note_on_c, 0, 45, 30
3, 7680, Note_on_c, 0, 52, 30
3, 7920, Note_on_c, 0, 52, 0
3, 7920, Note_on_c, 0, 45, 0
3, 8400, Note_on_c, 0, 52, 42
3, 8640, Note_on_c, 0, 52, 0
3, 8640, Note_on_c, 0, 57, 53
3, 8640, Note_on_c, 0, 49, 45
3, 9096, Note_on_c, 0, 49, 0
3, 9096, Note_on_c, 0, 57, 0
3, 9120, Note_on_c, 0, 59, 54
3, 9120, Note_on_c, 0, 52, 46
3, 9576, Note_on_c, 0, 52, 0
3, 9576, Note_on_c, 0, 59, 0
3, 9600, Note_on_c, 0, 57, 49
3, 9600, Note_on_c, 0, 61, 58
3, 10551, Note_on_c, 0, 61, 0
3, 10551, Note_on_c, 0, 57, 0
3, 10560, Note_on_c, 0, 61, 56
3, 10560, Note_on_c, 0, 57, 46
3, 10560, Note_on_c, 0, 54, 46
3, 11511, Note_on_c, 0, 54, 0
3, 11511, Note_on_c, 0, 57, 0
3, 11511, Note_on_c, 0, 61, 0
3, 11520, Note_on_c, 0, 54, 57
3, 11520, Note_on_c, 0, 50, 48
3, 12480, Note_on_c, 0, 50, 0
3, 12480, Note_on_c, 0, 54, 0
3, 12480, Note_on_c, 0, 56, 45
3, 12480, Note_on_c, 0, 47, 38
3, 12936, Note_on_c, 0, 47, 0
3, 12936, Note_on_c, 0, 56, 0
3, 12960, Note_on_c, 0, 49, 34
3, 12960, Note_on_c, 0, 56, 40
3, 13440, Note_on_c, 0, 56, 0
3, 13440, Note_on_c, 0, 49, 0
3, 13440, Note_on_c, 0, 54, 34
3, 13440, Note_on_c, 0, 57, 40
3, 14400, Note_on_c, 0, 57, 0
3, 14400, Note_on_c, 0, 54, 0
3, 14400, Note_on_c, 0, 52, 31
3, 14400, Note_on_c, 0, 40, 26
3, 15360, Note_on_c, 0, 40, 0
3, 15360, Note_on_c, 0, 52, 0
3, 15360, Note_on_c, 0, 52, 32
3, 15360, Note_on_c, 0, 45, 27
3, 15840, Note_on_c, 0, 45, 0
3, 15840, Note_on_c, 0, 52, 0
3, 16080, Note_on_c, 0, 52, 54
3, 16320, Note_on_c, 0, 52, 0
3, 16320, Note_on_c, 0, 57, 60
3, 16320, Note_on_c, 0, 49, 51
3, 16776, Note_on_c, 0, 49, 0
3, 16776, Note_on_c, 0, 57, 0
3, 16800, Note_on_c, 0, 59, 61
3, 16800, Note_on_c, 0, 52, 52
3, 17256, Note_on_c, 0, 52, 0
3, 17256, Note_on_c, 0, 59, 0
3, 17280, Note_on_c, 0, 57, 56
3, 17280, Note_on_c, 0, 61, 67
3, 17993, Note_on_c, 0, 61, 0
3, 18000, Note_on_c, 0, 61, 56
3, 18228, Note_on_c, 0, 61, 0
3, 18240, Note_on_c, 0, 57, 0
3, 18240, Note_on_c, 0, 61, 65
3, 18240, Note_on_c, 0, 57, 52
3, 18240, Note_on_c, 0, 54, 52
3, 18468, Note_on_c, 0, 61, 0
3, 18480, Note_on_c, 0, 61, 58
3, 18708, Note_on_c, 0, 61, 0
3, 18720, Note_on_c, 0, 64, 65
3, 19080, Note_on_c, 0, 64, 0
3, 19080, Note_on_c, 0, 62, 57
3, 19200, Note_on_c, 0, 62, 0
3, 19200, Note_on_c, 0, 54, 0
3, 19200, Note_on_c, 0, 57, 0
3, 19200, Note_on_c, 0, 50, 66
3, 19200, Note_on_c, 0, 61, 54
3, 19680, Note_on_c, 0, 61, 0
3, 19680, Note_on_c, 0, 50, 0
3, 19680, Note_on_c, 0, 59, 40
3, 19920, Note_on_c, 0, 59, 0
3, 20160, Note_on_c, 0, 47, 45
3, 20640, Note_on_c, 0, 47, 0
3, 20640, Note_on_c, 0, 49, 34
3, 20640, Note_on_c, 0, 56, 40
3, 21120, Note_on_c, 0, 56, 0
3, 21120, Note_on_c, 0, 49, 0
3, 21120, Note_on_c, 0, 54, 34
3, 21120, Note_on_c, 0, 57, 40
3, 22080, Note_on_c, 0, 57, 0
3, 22080, Note_on_c, 0, 54, 0
3, 22080, Note_on_c, 0, 52, 31
3, 22080, Note_on_c, 0, 40, 26
3, 23040, Note_on_c, 0, 40, 0
3, 23040, Note_on_c, 0, 52, 0
3, 23040, Note_on_c, 0, 45, 27
3, 23280, Note_on_c, 0, 52, 38
3, 23496, Note_on_c, 0, 52, 0
3, 23520, Note_on_c, 0, 52, 41
3, 23736, Note_on_c, 0, 52, 0
3, 23760, Note_on_c, 0, 52, 47
3, 23976, Note_on_c, 0, 52, 0
3, 24000, Note_on_c, 0, 45, 0
3, 24000, Note_on_c, 0, 49, 34
3, 24000, Note_on_c, 0, 52, 40
3, 24216, Note_on_c, 0, 52, 0
3, 24240, Note_on_c, 0, 52, 30
3, 24456, Note_on_c, 0, 52, 0
3, 24480, Note_on_c, 0, 52, 33
3, 24696, Note_on_c, 0, 52, 0
3, 24720, Note_on_c, 0, 52, 33
3, 24936, Note_on_c, 0, 52, 0
3, 24960, Note_on_c, 0, 49, 0
3, 24960, Note_on_c, 0, 50, 34
3, 25200, Note_on_c, 0, 52, 31
3, 25416, Note_on_c, 0, 52, 0
3, 25440, Note_on_c, 0, 52, 33
3, 25656, Note_on_c, 0, 52, 0
3, 25680, Note_on_c, 0, 52, 32
3, 25896, Note_on_c, 0, 52, 0
3, 25920, Note_on_c, 0, 50, 0
3, 25920, Note_on_c, 0, 49, 32
3, 25920, Note_on_c, 0, 52, 38
3, 26136, Note_on_c, 0, 52, 0
3, 26136, Note_on_c, 0, 49, 0
3, 26160, Note_on_c, 0, 49, 26
3, 26160, Note_on_c, 0, 52, 31
3, 26376, Note_on_c, 0, 52, 0
3, 26376, Note_on_c, 0, 49, 0
3, 26400, Note_on_c, 0, 47, 27
3, 26400, Note_on_c, 0, 52, 32
3, 26616, Note_on_c, 0, 52, 0
3, 26616, Note_on_c, 0, 47, 0
3, 26640, Note_on_c, 0, 45, 25
3, 26640, Note_on_c, 0, 52, 30
3, 26856, Note_on_c, 0, 52, 0
3, 26856, Note_on_c, 0, 45, 0
3, 26880, Note_on_c, 0, 44, 33
3, 27120, Note_on_c, 0, 52, 29
3, 27336, Note_on_c, 0, 52, 0
3, 27360, Note_on_c, 0, 52, 32
3, 27576, Note_on_c, 0, 52, 0
3, 27600, Note_on_c, 0, 52, 27
3, 27816, Note_on_c, 0, 52, 0
3, 27840, Note_on_c, 0, 44, 0
3, 27840, Note_on_c, 0, 52, 32
3, 28080, Note_on_c, 0, 52, 0
3, 28080, Note_on_c, 0, 45, 30
3, 28320, Note_on_c, 0, 45, 0
3, 28320, Note_on_c, 0, 44, 32
3, 28320, Note_on_c, 0, 59, 45
3, 28560, Note_on_c, 0, 59, 0
3, 28560, Note_on_c, 0, 44, 0
3, 28560, Note_on_c, 0, 42, 32
3, 28560, Note_on_c, 0, 57, 46
3, 28800, Note_on_c, 0, 57, 0
3, 28800, Note_on_c, 0, 42, 0
3, 28800, Note_on_c, 0, 47, 33
3, 28800, Note_on_c, 0, 56, 33
3, 29760, Note_on_c, 0, 56, 0
3, 29760, Note_on_c, 0, 54, 33
3, 30480, Note_on_c, 0, 54, 0
3, 30480, Note_on_c, 0, 57, 33
3, 30710, Note_on_c, 0, 57, 0
3, 30720, Note_on_c, 0, 47, 0
3, 30720, Note_on_c, 0, 40, 33
3, 31680, Note_on_c, 0, 40, 0
3, 31680, Note_on_c, 0, 45, 28
3, 31680, Note_on_c, 0, 57, 33
3, 31896, Note_on_c, 0, 57, 0
3, 31920, Note_on_c, 0, 57, 24
3, 32136, Note_on_c, 0, 57, 0
3, 32160, Note_on_c, 0, 45, 0
3, 32160, Note_on_c, 0, 49, 28
3, 32160, Note_on_c, 0, 57, 27
3, 32376, Note_on_c, 0, 57, 0
3, 32400, Note_on_c, 0, 57, 27
3, 32616, Note_on_c, 0, 57, 0
3, 32640, Note_on_c, 0, 49, 0
3, 32640, Note_on_c, 0, 57, 33
3, 32640, Note_on_c, 0, 50, 28
3, 32856, Note_on_c, 0, 57, 0
3, 32880, Note_on_c, 0, 57, 25
3, 33096, Note_on_c, 0, 57, 0
3, 33120, Note_on_c, 0, 57, 27
3, 33336, Note_on_c, 0, 57, 0
3, 33360, Note_on_c, 0, 57, 27
3, 33576, Note_on_c, 0, 57, 0
3, 33600, Note_on_c, 0, 50, 0
3, 33600, Note_on_c, 0, 45, 20
3, 33600, Note_on_c, 0, 57, 23
3, 33816, Note_on_c, 0, 57, 0
3, 33840, Note_on_c, 0, 57, 16
3, 34056, Note_on_c, 0, 57, 0
3, 34080, Note_on_c, 0, 45, 0
3, 34080, Note_on_c, 0, 49, 20
3, 34080, Note_on_c, 0, 57, 19
3, 34296, Note_on_c, 0, 57, 0
3, 34320, Note_on_c, 0, 57, 19
3, 34536, Note_on_c, 0, 57, 0
3, 34560, Note_on_c, 0, 49, 0
3, 34560, Note_on_c, 0, 57, 20
3, 34560, Note_on_c, 0, 50, 17
3, 34776, Note_on_c, 0, 57, 0
3, 34800, Note_on_c, 0, 57, 15
3, 35016, Note_on_c, 0, 57, 0
3, 35040, Note_on_c, 0, 57, 16
3, 35256, Note_on_c, 0, 57, 0
3, 35280, Note_on_c, 0, 57, 19
3, 35496, Note_on_c, 0, 57, 0
3, 35520, Note_on_c, 0, 50, 0
3, 35520, Note_on_c, 0, 57, 54
3, 35520, Note_on_c, 0, 49, 48
3, 35736, Note_on_c, 0, 57, 0
3, 35760, Note_on_c, 0, 57, 42
3, 35976, Note_on_c, 0, 57, 0
3, 36000, Note_on_c, 0, 57, 44
3, 36216, Note_on_c, 0, 57, 0
3, 36240, Note_on_c, 0, 57, 44
3, 36456, Note_on_c, 0, 57, 0
3, 36480, Note_on_c, 0, 57, 40
3, 36696, Note_on_c, 0, 57, 0
3, 36720, Note_on_c, 0, 49, 0
3, 36720, Note_on_c, 0, 50, 22
3, 36720, Note_on_c, 0, 57, 22
3, 36900, Note_on_c, 0, 57, 0
3, 36900, Note_on_c, 0, 50, 0
3, 36960, Note_on_c, 0, 49, 22
3, 36960, Note_on_c, 0, 57, 24
3, 37140, Note_on_c, 0, 57, 0
3, 37140, Note_on_c, 0, 49, 0
3, 37200, Note_on_c, 0, 47, 22
3, 37200, Note_on_c, 0, 57, 24
3, 37380, Note_on_c, 0, 57, 0
3, 37380, Note_on_c, 0, 47, 0
3, 37440, Note_on_c, 0, 52, 24
3, 37440, Note_on_c, 0, 57, 28
3, 37920, Note_on_c, 0, 57, 0
3, 37920, Note_on_c, 0, 56, 24
3, 38400, Note_on_c, 0, 56, 0
3, 38400, Note_on_c, 0, 52, 0
3, 38400, Note_on_c, 0, 45, 24
3, 39120, Note_on_c, 0, 52, 54
3, 39360, Note_on_c, 0, 52, 0
3, 39360, Note_on_c, 0, 45, 0
3, 39600, Note_on_c, 0, 52, 40
3, 39600, Note_on_c, 0, 49, 40
3, 39600, Note_on_c, 0, 57, 48
3, 39840, Note_on_c, 0, 57, 0
3, 39840, Note_on_c, 0, 49, 0
3, 39840, Note_on_c, 0, 52, 0
3, 40080, Note_on_c, 0, 56, 42
3, 40080, Note_on_c, 0, 52, 42
3, 40080, Note_on_c, 0, 59, 49
3, 40320, Note_on_c, 0, 59, 0
3, 40320, Note_on_c, 0, 52, 0
3, 40320, Note_on_c, 0, 56, 0
3, 40560, Note_on_c, 0, 57, 37
3, 40560, Note_on_c, 0, 61, 45
3, 40776, Note_on_c, 0, 61, 0
3, 40776, Note_on_c, 0, 57, 0
3, 40800, Note_on_c, 0, 57, 37
3, 40800, Note_on_c, 0, 61, 45
3, 41016, Note_on_c, 0, 61, 0
3, 41016, Note_on_c, 0, 57, 0
3, 41040, Note_on_c, 0, 57, 31
3, 41040, Note_on_c, 0, 61, 37
3, 41256, Note_on_c, 0, 61, 0
3, 41256, Note_on_c, 0, 57, 0
3, 41520, Note_on_c, 0, 49, 37
3, 41520, Note_on_c, 0, 52, 37
3, 41520, Note_on_c, 0, 61, 45
3, 41520, Note_on_c, 0, 57, 37
3, 41736, Note_on_c, 0, 57, 0
3, 41736, Note_on_c, 0, 49, 0
3, 41736, Note_on_c, 0, 52, 0
3, 41736, Note_on_c, 0, 61, 0
3, 41760, Note_on_c, 0, 49, 37
3, 41760, Note_on_c, 0, 52, 37
3, 41760, Note_on_c, 0, 57, 37
3, 41760, Note_on_c, 0, 61, 45
3, 41976, Note_on_c, 0, 61, 0
3, 41976, Note_on_c, 0, 49, 0
3, 41976, Note_on_c, 0, 52, 0
3, 41976, Note_on_c, 0, 57, 0
3, 42000, Note_on_c, 0, 49, 31
3, 42000, Note_on_c, 0, 52, 31
3, 42000, Note_on_c, 0, 57, 31
3, 42000, Note_on_c, 0, 61, 37
3, 42216, Note_on_c, 0, 61, 0
3, 42216, Note_on_c, 0, 49, 0
3, 42216, Note_on_c, 0, 52, 0
3, 42216, Note_on_c, 0, 57, 0
3, 42480, Note_on_c, 0, 54, 47
3, 42480, Note_on_c, 0, 63, 56
3, 42480, Note_on_c, 0, 57, 47
3, 42696, Note_on_c, 0, 57, 0
3, 42696, Note_on_c, 0, 63, 0
3, 42696, Note_on_c, 0, 54, 0
3, 42720, Note_on_c, 0, 54, 47
3, 42720, Note_on_c, 0, 57, 47
3, 42720, Note_on_c, 0, 63, 56
3, 42936, Note_on_c, 0, 63, 0
3, 42936, Note_on_c, 0, 57, 0
3, 42936, Note_on_c, 0, 54, 0
3, 42960, Note_on_c, 0, 54, 39
3, 42960, Note_on_c, 0, 57, 39
3, 42960, Note_on_c, 0, 63, 47
3, 43176, Note_on_c, 0, 63, 0
3, 43176, Note_on_c, 0, 57, 0
3, 43176, Note_on_c, 0, 54, 0
3, 43200, Note_on_c, 0, 53, 51
3, 43200, Note_on_c, 0, 57, 51
3, 43200, Note_on_c, 0, 62, 61
3, 43416, Note_on_c, 0, 62, 0
3, 43416, Note_on_c, 0, 57, 0
3, 43416, Note_on_c, 0, 53, 0
3, 43440, Note_on_c, 0, 53, 43
3, 43440, Note_on_c, 0, 57, 43
3, 43440, Note_on_c, 0, 62, 51
3, 43656, Note_on_c, 0, 62, 0
3, 43656, Note_on_c, 0, 57, 0
3, 43656, Note_on_c, 0, 53, 0
3, 43680, Note_on_c, 0, 59, 51
3, 43680, Note_on_c, 0, 53, 51
3, 43680, Note_on_c, 0, 57, 51
3, 43680, Note_on_c, 0, 62, 61
3, 43896, Note_on_c, 0, 62, 0
3, 43896, Note_on_c, 0, 59, 0
3, 43896, Note_on_c, 0, 53, 0
3, 43896, Note_on_c, 0, 57, 0
3, 43920, Note_on_c, 0, 59, 43
3, 43920, Note_on_c, 0, 53, 43
3, 43920, Note_on_c, 0, 57, 43
3, 43920, Note_on_c, 0, 62, 51
3, 44136, Note_on_c, 0, 62, 0
3, 44136, Note_on_c, 0, 59, 0
3, 44136, Note_on_c, 0, 53, 0
3, 44136, Note_on_c, 0, 57, 0
3, 44160, Note_on_c, 0, 52, 50
3, 44160, Note_on_c, 0, 57, 50
3, 44160, Note_on_c, 0, 61, 59
3, 44640, Note_on_c, 0, 61, 0
3, 44640, Note_on_c, 0, 57, 0
3, 44640, Note_on_c, 0, 52, 0
3, 46560, Note_on_c, 0, 52, 31
3, 47040, Note_on_c, 0, 52, 0
3, 47040, Note_on_c, 0, 40, 26
3, 47040, Note_on_c, 0, 50, 31
3, 48000, Note_on_c, 0, 50, 0
3, 48000, Note_on_c, 0, 40, 0
3, 48000, Note_on_c, 0, 45, 28
3, 48000, Note_on_c, 0, 49, 34
3, 48480, Note_on_c, 0, 49, 0
3, 49920, Note_on_c, 0, 45, 0
3, 49920, Note_on_c, 0, 33, 28
3, 49920, Note_on_c, 0, 45, 34
3, 50640, Note_on_c, 0, 45, 0
3, 50640, Note_on_c, 0, 33, 0
3, 50640, Note_on_c, 0, 32, 28
3, 50640, Note_on_c, 0, 44, 34
3, 50880, Note_on_c, 0, 44, 0
3, 50880, Note_on_c, 0, 32, 0
3, 50880, Note_on_c, 0, 42, 38
3, 50880, Note_on_c, 0, 30, 32
3, 52320, Note_on_c, 0, 30, 0
3, 52320, Note_on_c, 0, 42, 0
3, 52320, Note_on_c, 0, 50, 39
3, 52320, Note_on_c, 0, 38, 33
3, 52800, Note_on_c, 0, 38, 0
3, 52800, Note_on_c, 0, 50, 0
3, 52800, Note_on_c, 0, 52, 36
3, 52800, Note_on_c, 0, 40, 30
3, 53760, Note_on_c, 0, 40, 0
3, 53760, Note_on_c, 0, 52, 0
3, 53760, Note_on_c, 0, 52, 36
3, 53760, Note_on_c, 0, 45, 30
3, 54240, Note_on_c, 0, 45, 0
3, 54240, Note_on_c, 0, 52, 0
3, 54720, Note_on_c, 0, 61, 21
3, 54720, Note_on_c, 0, 57, 21
3, 54720, Note_on_c, 0, 64, 25
3, 54960, Note_on_c, 0, 64, 0
3, 54960, Note_on_c, 0, 57, 0
3, 54960, Note_on_c, 0, 61, 0
3, 55200, Note_on_c, 0, 61, 19
3, 55200, Note_on_c, 0, 64, 22
3, 55200, Note_on_c, 0, 57, 19
3, 55440, Note_on_c, 0, 57, 0
3, 55440, Note_on_c, 0, 64, 0
3, 55440, Note_on_c, 0, 61, 0
3, 55680, Note_on_c, 0, 61, 25
3, 55680, Note_on_c, 0, 57, 25
3, 55680, Note_on_c, 0, 64, 25
3, 55920, Note_on_c, 0, 64, 0
3, 55920, Note_on_c, 0, 57, 0
3, 55920, Note_on_c, 0, 61, 0
3, 55920, End_track
4, 0, Start_track
4, 0, Title_t, "Pedale"
4, 0, Program_c, 0, 0
4, 85, Control_c, 0, 64, 127
4, 966, Control_c, 0, 64, 0
4, 1066, Control_c, 0, 64, 127
4, 1929, Control_c, 0, 64, 0
4, 1991, Control_c, 0, 64, 127
4, 2409, Control_c, 0, 64, 0
4, 2471, Control_c, 0, 64, 127
4, 2654, Control_c, 0, 64, 0
4, 2739, Control_c, 0, 64, 127
4, 2894, Control_c, 0, 64, 0
4, 2944, Control_c, 0, 64, 127
4, 3137, Control_c, 0, 64, 0
4, 3198, Control_c, 0, 64, 127
4, 3370, Control_c, 0, 64, 0
4, 3452, Control_c, 0, 64, 127
4, 3610, Control_c, 0, 64, 0
4, 3671, Control_c, 0, 64, 127
4, 3890, Control_c, 0, 64, 0
4, 3939, Control_c, 0, 64, 127
4, 4094, Control_c, 0, 64, 0
4, 4186, Control_c, 0, 64, 127
4, 4349, Control_c, 0, 64, 0
4, 4419, Control_c, 0, 64, 127
4, 4568, Control_c, 0, 64, 0
4, 4617, Control_c, 0, 64, 127
4, 4817, Control_c, 0, 64, 0
4, 4913, Control_c, 0, 64, 127
4, 5298, Control_c, 0, 64, 0
4, 5400, Control_c, 0, 64, 127
4, 5773, Control_c, 0, 64, 0
4, 5866, Control_c, 0, 64, 127
4, 8259, Control_c, 0, 64, 0
4, 8725, Control_c, 0, 64, 127
4, 9136, Control_c, 0, 64, 0
4, 9233, Control_c, 0, 64, 127
4, 9614, Control_c, 0, 64, 0
4, 9734, Control_c, 0, 64, 127
4, 10583, Control_c, 0, 64, 0
4, 11563, Control_c, 0, 64, 127
4, 12503, Control_c, 0, 64, 0
4, 12621, Control_c, 0, 64, 127
4, 12977, Control_c, 0, 64, 0
4, 13101, Control_c, 0, 64, 127
4, 13451, Control_c, 0, 64, 0
4, 13610, Control_c, 0, 64, 127
4, 14417, Control_c, 0, 64, 0
4, 14612, Control_c, 0, 64, 127
4, 15385, Control_c, 0, 64, 0
4, 15574, Control_c, 0, 64, 127
4, 15896, Control_c, 0, 64, 0
4, 16405, Control_c, 0, 64, 127
4, 16816, Control_c, 0, 64, 0
4, 16913, Control_c, 0, 64, 127
4, 17294, Control_c, 0, 64, 0
4, 17414, Control_c, 0, 64, 127
4, 18263, Control_c, 0, 64, 0
4, 19243, Control_c, 0, 64, 127
4, 20183, Control_c, 0, 64, 0
4, 20301, Control_c, 0, 64, 127
4, 20657, Control_c, 0, 64, 0
4, 20781, Control_c, 0, 64, 127
4, 21131, Control_c, 0, 64, 0
4, 21290, Control_c, 0, 64, 127
4, 22097, Control_c, 0, 64, 0
4, 22292, Control_c, 0, 64, 127
4, 23065, Control_c, 0, 64, 0
4, 23254, Control_c, 0, 64, 127
4, 24014, Control_c, 0, 64, 0
4, 24156, Control_c, 0, 64, 127
4, 24495, Control_c, 0, 64, 0
4, 24960, Control_c, 0, 64, 127
4, 25447, Control_c, 0, 64, 0
4, 26880, Control_c, 0, 64, 127
4, 27372, Control_c, 0, 64, 0
4, 27486, Control_c, 0, 64, 127
4, 28090, Control_c, 0, 64, 0
4, 28864, Control_c, 0, 64, 127
4, 29774, Control_c, 0, 64, 0
4, 29845, Control_c, 0, 64, 127
4, 30730, Control_c, 0, 64, 0
4, 30861, Control_c, 0, 64, 127
4, 31219, Control_c, 0, 64, 0
4, 31694, Control_c, 0, 64, 0
4, 31836, Control_c, 0, 64, 127
4, 32647, Control_c, 0, 64, 0
4, 32725, Control_c, 0, 64, 127
4, 33127, Control_c, 0, 64, 0
4, 33614, Control_c, 0, 64, 0
4, 33756, Control_c, 0, 64, 127
4, 34568, Control_c, 0, 64, 0
4, 34673, Control_c, 0, 64, 127
4, 35047, Control_c, 0, 64, 0
4, 35534, Control_c, 0, 64, 0
4, 35676, Control_c, 0, 64, 127
4, 36483, Control_c, 0, 64, 0
4, 36530, Control_c, 0, 64, 127
4, 36729, Control_c, 0, 64, 0
4, 38400, Control_c, 0, 64, 127
4, 38892, Control_c, 0, 64, 0
4, 39445, Control_c, 0, 64, 127
4, 39856, Control_c, 0, 64, 0
4, 39953, Control_c, 0, 64, 127
4, 40334, Control_c, 0, 64, 0
4, 40454, Control_c, 0, 64, 127
4, 41303, Control_c, 0, 64, 0
4, 41351, Control_c, 0, 64, 127
4, 42240, Control_c, 0, 64, 0
4, 42377, Control_c, 0, 64, 127
4, 43225, Control_c, 0, 64, 0
4, 43383, Control_c, 0, 64, 127
4, 44164, Control_c, 0, 64, 0
4, 44344, Control_c, 0, 64, 127
4, 44895, Control_c, 0, 64, 0
4, 45247, Control_c, 0, 64, 127
4, 46087, Control_c, 0, 64, 0
4, 46186, Control_c, 0, 64, 127
4, 47047, Control_c, 0, 64, 0
4, 47139, Control_c, 0, 64, 127
4, 47293, Control_c, 0, 64, 0
4, 48085, Control_c, 0, 64, 127
4, 48966, Control_c, 0, 64, 0
4, 49066, Control_c, 0, 64, 127
4, 49929, Control_c, 0, 64, 0
4, 49991, Control_c, 0, 64, 127
4, 50409, Control_c, 0, 64, 0
4, 50471, Control_c, 0, 64, 127
4, 50654, Control_c, 0, 64, 0
4, 50739, Control_c, 0, 64, 127
4, 50894, Control_c, 0, 64, 0
4, 50944, Control_c, 0, 64, 127
4, 51137, Control_c, 0, 64, 0
4, 51198, Control_c, 0, 64, 127
4, 51370, Control_c, 0, 64, 0
4, 51452, Control_c, 0, 64, 127
4, 51610, Control_c, 0, 64, 0
4, 51671, Control_c, 0, 64, 127
4, 51890, Control_c, 0, 64, 0
4, 51939, Control_c, 0, 64, 127
4, 52094, Control_c, 0, 64, 0
4, 52186, Control_c, 0, 64, 127
4, 52349, Control_c, 0, 64, 0
4, 52419, Control_c, 0, 64, 127
4, 52568, Control_c, 0, 64, 0
4, 52617, Control_c, 0, 64, 127
4, 52817, Control_c, 0, 64, 0
4, 52913, Control_c, 0, 64, 127
4, 53298, Control_c, 0, 64, 0
4, 53400, Control_c, 0, 64, 127
4, 53773, Control_c, 0, 64, 0
4, 53866, Control_c, 0, 64, 127
4, 56033, Control_c, 0, 64, 0
4, 56033, End_track
5, 0, Start_track
5, 0, Title_t, "Mendelssohn: Songs without words Opus 19 No. 4"
5, 0, End_track
6, 0, Start_track
6, 0, Title_t, "Copyright © 2010 by Bernd Krueger"
6, 0, End_track
7, 0, Start_track
7, 0, Title_t, "http://www.piano-midi.de/"
7, 0, End_track
8, 0, Start_track
8, 0, Title_t, "Edition: 2014-11-10"
8, 0, End_track
9, 0, Start_track
9, 0, Title_t, "Spur 8"
9, 0, End_track
10, 0, Start_track
10, 0, Title_t, "Spur 9"
10, 0, End_track
11, 0, Start_track
11, 0, Title_t, "Spur 10"
11, 0, End_track
12, 0, Start_track
12, 0, Title_t, "Spur 11"
12, 0, End_track
13, 0, Start_track
13, 0, Title_t, "Spur 12"
13, 0, End_track
14, 0, Start_track
14, 0, Title_t, "Spur 13"
14, 0, End_track
15, 0, Start_track
15, 0, Title_t, "Spur 14"
15, 0, End_track
16, 0, Start_track
16, 0, Title_t, "Spur 15"
16, 0, End_track
17, 0, Start_track
17, 0, Title_t, "Spur 16"
17, 0, End_track
0, 0, End_of_file
