0, 0, Header, 1, 18, 480
1, 0, Start_track
1, 0, Title_t, "Mendelssohn: Lieder ohne Worte Opus 19 Nr. 1"
1, 0, Copyright_t, "Copyright © 2014 by Bernd Krueger"
1, 0, Text_t, "Bernd Krueger"
1, 0, Text_t, "Andante con moto"
1, 0, Text_t, "Erstellt: 27.9.2014\012"
1, 0, Text_t, "Dauer: 2:46 Minuten\012"
1, 0, Time_signature, 4, 2, 24, 8
1, 0, Key_signature, 4, "major"
1, 0, Tempo, 635324
1, 0, Marker_t, "Andante con moto"
1, 19, Tempo, 641711
1, 115, Tempo, 638298
1, 192, Tempo, 634921
1, 269, Tempo, 631579
1, 346, Tempo, 628272
1, 423, Tempo, 625000
1, 499, Tempo, 621762
1, 615, Tempo, 625000
1, 711, Tempo, 628272
1, 807, Tempo, 631579
1, 903, Tempo, 634921
1, 999, Tempo, 638298
1, 1095, Tempo, 634921
1, 1191, Tempo, 631579
1, 1287, Tempo, 628272
1, 1383, Tempo, 625000
1, 1479, Tempo, 621762
1, 1575, Tempo, 625000
1, 1671, Tempo, 628272
1, 1767, Tempo, 631579
1, 1863, Tempo, 634921
1, 1901, Tempo, 628272
1, 2055, Tempo, 625000
1, 2208, Tempo, 621762
1, 2362, Tempo, 618557
1, 2458, Tempo, 621762
1, 2554, Tempo, 625000
1, 2631, Tempo, 628272
1, 2727, Tempo, 631579
1, 2803, Tempo, 634921
1, 2880, Tempo, 648298
1, 3360, Tempo, 632111
1, 3840, Tempo, 619835
1, 3840, Marker_t, "Teil 1"
1, 4320, Tempo, 635324
1, 4800, Tempo, 644953
1, 5160, Tempo, 717875
1, 5280, Tempo, 619835
1, 5722, Tempo, 628272
1, 5837, Tempo, 625000
1, 5952, Tempo, 621762
1, 6067, Tempo, 618557
1, 6183, Tempo, 615385
1, 6240, Tempo, 632111
1, 6761, Tempo, 628272
1, 6818, Tempo, 631579
1, 6876, Tempo, 634921
1, 6914, Tempo, 638298
1, 6972, Tempo, 641711
1, 7029, Tempo, 645161
1, 7068, Tempo, 648649
1, 7080, Tempo, 690528
1, 7200, Tempo, 632111
1, 8640, Tempo, 613811
1, 8880, Tempo, 634921
1, 9060, Tempo, 670391
1, 9120, Tempo, 638298
1, 9360, Tempo, 652174
1, 10080, Tempo, 658328
1, 10440, Tempo, 747384
1, 10560, Tempo, 665262
1, 11040, Tempo, 632111
1, 11042, Tempo, 641711
1, 11138, Tempo, 638298
1, 11215, Tempo, 634921
1, 11292, Tempo, 631579
1, 11369, Tempo, 628272
1, 11445, Tempo, 625000
1, 11522, Tempo, 621762
1, 12000, Tempo, 635324
1, 12480, Tempo, 644953
1, 12840, Tempo, 717875
1, 12960, Tempo, 619835
1, 13440, Tempo, 619835
1, 13920, Tempo, 632111
1, 14760, Tempo, 672269
1, 15360, Tempo, 654950
1, 15840, Tempo, 672269
1, 16320, Tempo, 675828
1, 16800, Tempo, 690528
1, 17280, Tempo, 702001
1, 17760, Tempo, 722892
1, 18120, Tempo, 760842
1, 18240, Tempo, 698162
1, 18720, Tempo, 632111
1, 18722, Tempo, 666667
1, 18780, Tempo, 662983
1, 18818, Tempo, 659341
1, 18876, Tempo, 655738
1, 18914, Tempo, 652174
1, 18972, Tempo, 648649
1, 19010, Tempo, 645161
1, 19068, Tempo, 641711
1, 19106, Tempo, 638298
1, 19164, Tempo, 634921
1, 19202, Tempo, 631579
1, 20160, Tempo, 619835
1, 20400, Tempo, 635324
1, 20460, Tempo, 641711
1, 20580, Tempo, 751880
1, 20640, Tempo, 654950
1, 21000, Tempo, 717875
1, 21120, Tempo, 658328
1, 21600, Tempo, 658328
1, 21960, Tempo, 747384
1, 22080, Tempo, 665262
1, 23040, Tempo, 658328
1, 23520, Tempo, 658328
1, 23880, Tempo, 747384
1, 24000, Tempo, 665262
1, 24480, Tempo, 632111
1, 25920, Tempo, 622859
1, 26160, Tempo, 635324
1, 26220, Tempo, 641711
1, 26340, Tempo, 751880
1, 26400, Tempo, 654950
1, 26760, Tempo, 717875
1, 26880, Tempo, 658328
1, 27360, Tempo, 658328
1, 27720, Tempo, 747384
1, 27840, Tempo, 665262
1, 28320, Tempo, 632111
1, 28800, Tempo, 619835
1, 28800, Marker_t, "Teil 1 Wiederholung"
1, 29280, Tempo, 635324
1, 29760, Tempo, 644953
1, 30120, Tempo, 688152
1, 30240, Tempo, 630318
1, 30682, Tempo, 628272
1, 30797, Tempo, 625000
1, 30912, Tempo, 621762
1, 31027, Tempo, 618557
1, 31143, Tempo, 615385
1, 31200, Tempo, 632111
1, 31721, Tempo, 628272
1, 31778, Tempo, 631579
1, 31836, Tempo, 634921
1, 31874, Tempo, 638298
1, 31932, Tempo, 641711
1, 31989, Tempo, 645161
1, 32028, Tempo, 648649
1, 32040, Tempo, 690528
1, 32160, Tempo, 632111
1, 33600, Tempo, 613811
1, 33840, Tempo, 634921
1, 34020, Tempo, 670391
1, 34080, Tempo, 638298
1, 34320, Tempo, 652174
1, 34560, Tempo, 657967
1, 35040, Tempo, 658328
1, 35400, Tempo, 747384
1, 35520, Tempo, 665262
1, 36000, Tempo, 632111
1, 36002, Tempo, 641711
1, 36098, Tempo, 638298
1, 36175, Tempo, 634921
1, 36252, Tempo, 631579
1, 36329, Tempo, 628272
1, 36405, Tempo, 625000
1, 36482, Tempo, 621762
1, 36960, Tempo, 635324
1, 37440, Tempo, 644953
1, 37800, Tempo, 717875
1, 37920, Tempo, 643846
1, 38400, Tempo, 614188
1, 38880, Tempo, 632111
1, 39720, Tempo, 672269
1, 40320, Tempo, 654950
1, 40800, Tempo, 672269
1, 41280, Tempo, 675828
1, 41760, Tempo, 690528
1, 42240, Tempo, 702001
1, 42720, Tempo, 722892
1, 43080, Tempo, 760842
1, 43200, Tempo, 698162
1, 43680, Tempo, 632111
1, 43682, Tempo, 666667
1, 43740, Tempo, 662983
1, 43778, Tempo, 659341
1, 43836, Tempo, 655738
1, 43874, Tempo, 652174
1, 43932, Tempo, 648649
1, 43970, Tempo, 645161
1, 44028, Tempo, 641711
1, 44066, Tempo, 638298
1, 44124, Tempo, 634921
1, 44162, Tempo, 631579
1, 45120, Tempo, 619835
1, 45360, Tempo, 635324
1, 45420, Tempo, 641711
1, 45540, Tempo, 751880
1, 45600, Tempo, 654950
1, 45960, Tempo, 717875
1, 46080, Tempo, 658328
1, 46560, Tempo, 658328
1, 46920, Tempo, 747384
1, 47040, Tempo, 665262
1, 48000, Tempo, 658328
1, 48480, Tempo, 658328
1, 48840, Tempo, 747384
1, 48960, Tempo, 665262
1, 49440, Tempo, 632111
1, 50880, Tempo, 622859
1, 51120, Tempo, 635324
1, 51180, Tempo, 641711
1, 51300, Tempo, 751880
1, 51360, Tempo, 654950
1, 51720, Tempo, 717875
1, 51840, Tempo, 658328
1, 52320, Tempo, 658328
1, 52680, Tempo, 747384
1, 52800, Tempo, 665262
1, 53280, Tempo, 595888
1, 53520, Tempo, 627025
1, 53760, Tempo, 619835
1, 53760, Marker_t, "Teil 2"
1, 54240, Tempo, 635324
1, 54720, Tempo, 644953
1, 55080, Tempo, 717875
1, 55200, Tempo, 592944
1, 55440, Tempo, 617347
1, 55642, Tempo, 628272
1, 55680, Tempo, 619835
1, 56160, Tempo, 635324
1, 56640, Tempo, 644953
1, 57000, Tempo, 717875
1, 57120, Tempo, 607964
1, 57360, Tempo, 614188
1, 57480, Tempo, 650830
1, 57562, Tempo, 628272
1, 57600, Tempo, 619835
1, 58080, Tempo, 635324
1, 58440, Tempo, 696136
1, 58560, Tempo, 644953
1, 58920, Tempo, 717875
1, 59040, Tempo, 619835
1, 59482, Tempo, 628272
1, 59520, Tempo, 644953
1, 59880, Tempo, 657967
1, 60000, Tempo, 619835
1, 60442, Tempo, 628272
1, 61440, Tempo, 633647
1, 62402, Tempo, 643846
1, 62863, Tempo, 661594
1, 62882, Tempo, 680349
1, 62921, Tempo, 684229
1, 62940, Tempo, 688152
1, 62978, Tempo, 692121
1, 62997, Tempo, 696136
1, 63036, Tempo, 700198
1, 63055, Tempo, 704308
1, 63120, Tempo, 782371
1, 63240, Tempo, 913381
1, 63324, Tempo, 743587
1, 63343, Tempo, 748223
1, 63360, Tempo, 619835
1, 63840, Tempo, 635324
1, 64320, Tempo, 644953
1, 64680, Tempo, 717875
1, 64800, Tempo, 619835
1, 65242, Tempo, 628272
1, 65357, Tempo, 625000
1, 65472, Tempo, 621762
1, 65587, Tempo, 618557
1, 65703, Tempo, 615385
1, 65760, Tempo, 632111
1, 66281, Tempo, 628272
1, 66338, Tempo, 631579
1, 66396, Tempo, 634921
1, 66434, Tempo, 638298
1, 66492, Tempo, 641711
1, 66549, Tempo, 645161
1, 66588, Tempo, 648649
1, 66600, Tempo, 690528
1, 66720, Tempo, 632111
1, 67200, Tempo, 595888
1, 67392, Tempo, 621762
1, 67507, Tempo, 618557
1, 67623, Tempo, 615385
1, 67680, Tempo, 632111
1, 68201, Tempo, 628272
1, 68258, Tempo, 631579
1, 68316, Tempo, 634921
1, 68354, Tempo, 638298
1, 68412, Tempo, 641711
1, 68469, Tempo, 645161
1, 68508, Tempo, 648649
1, 68520, Tempo, 690528
1, 68640, Tempo, 650830
1, 69000, Tempo, 725602
1, 69120, Tempo, 633647
1, 69197, Tempo, 625000
1, 69312, Tempo, 621762
1, 69427, Tempo, 618557
1, 69543, Tempo, 615385
1, 69600, Tempo, 632111
1, 70121, Tempo, 628272
1, 70178, Tempo, 631579
1, 70236, Tempo, 634921
1, 70274, Tempo, 638298
1, 70332, Tempo, 641711
1, 70389, Tempo, 645161
1, 70428, Tempo, 648649
1, 70440, Tempo, 690528
1, 70560, Tempo, 632111
1, 70800, Tempo, 657967
1, 71040, Tempo, 643846
1, 71280, Tempo, 657967
1, 71520, Tempo, 684229
1, 72041, Tempo, 628272
1, 72098, Tempo, 631579
1, 72156, Tempo, 634921
1, 72194, Tempo, 638298
1, 72252, Tempo, 641711
1, 72309, Tempo, 645161
1, 72348, Tempo, 648649
1, 72360, Tempo, 782371
1, 72480, Tempo, 730016
1, 72840, Tempo, 797978
1, 72960, Tempo, 688152
1, 72981, Tempo, 688152
1, 73020, Tempo, 684229
1, 73058, Tempo, 680349
1, 73097, Tempo, 676514
1, 73135, Tempo, 672721
1, 73173, Tempo, 668971
1, 73193, Tempo, 665262
1, 73440, Tempo, 692121
1, 73980, Tempo, 688152
1, 74037, Tempo, 684229
1, 74095, Tempo, 680349
1, 74153, Tempo, 676514
1, 74210, Tempo, 672721
1, 74268, Tempo, 668971
1, 74325, Tempo, 665262
1, 74364, Tempo, 661594
1, 74400, Tempo, 652955
1, 74880, Tempo, 639046
1, 75360, Tempo, 632111
1, 75881, Tempo, 628272
1, 75938, Tempo, 631579
1, 75996, Tempo, 634921
1, 76034, Tempo, 638298
1, 76092, Tempo, 641711
1, 76149, Tempo, 645161
1, 76188, Tempo, 648649
1, 76200, Tempo, 690528
1, 76320, Tempo, 643846
1, 76800, Tempo, 643846
1, 77280, Tempo, 632111
1, 77801, Tempo, 628272
1, 77858, Tempo, 631579
1, 77916, Tempo, 634921
1, 77954, Tempo, 638298
1, 78012, Tempo, 641711
1, 78069, Tempo, 645161
1, 78108, Tempo, 648649
1, 78120, Tempo, 690528
1, 78240, Tempo, 632111
1, 78720, Tempo, 619835
1, 79200, Tempo, 635324
1, 79680, Tempo, 644953
1, 80040, Tempo, 717875
1, 80160, Tempo, 619835
1, 80602, Tempo, 628272
1, 80717, Tempo, 625000
1, 80832, Tempo, 621762
1, 80947, Tempo, 618557
1, 81063, Tempo, 615385
1, 81120, Tempo, 632111
1, 81641, Tempo, 628272
1, 81698, Tempo, 631579
1, 81756, Tempo, 634921
1, 81794, Tempo, 638298
1, 81852, Tempo, 641711
1, 81909, Tempo, 645161
1, 81948, Tempo, 648649
1, 81960, Tempo, 690528
1, 82080, Tempo, 632111
1, 83520, Tempo, 613811
1, 83760, Tempo, 634921
1, 83940, Tempo, 670391
1, 84000, Tempo, 638298
1, 84240, Tempo, 652174
1, 84960, Tempo, 658328
1, 85320, Tempo, 747384
1, 85440, Tempo, 665262
1, 85920, Tempo, 632111
1, 86160, Tempo, 649421
1, 86400, Tempo, 619835
1, 86880, Tempo, 635324
1, 87360, Tempo, 644953
1, 87720, Tempo, 717875
1, 87840, Tempo, 619835
1, 88282, Tempo, 628272
1, 88397, Tempo, 625000
1, 88512, Tempo, 621762
1, 88627, Tempo, 618557
1, 88743, Tempo, 615385
1, 88800, Tempo, 632111
1, 89321, Tempo, 628272
1, 89378, Tempo, 631579
1, 89436, Tempo, 634921
1, 89474, Tempo, 638298
1, 89532, Tempo, 641711
1, 89589, Tempo, 645161
1, 89628, Tempo, 648649
1, 89640, Tempo, 690528
1, 89760, Tempo, 619835
1, 90202, Tempo, 628272
1, 90317, Tempo, 625000
1, 90432, Tempo, 621762
1, 90547, Tempo, 618557
1, 90663, Tempo, 615385
1, 90720, Tempo, 632111
1, 91241, Tempo, 628272
1, 91298, Tempo, 631579
1, 91356, Tempo, 634921
1, 91394, Tempo, 638298
1, 91440, Tempo, 634921
1, 91620, Tempo, 670391
1, 91680, Tempo, 638298
1, 91920, Tempo, 652174
1, 92640, Tempo, 658328
1, 93000, Tempo, 747384
1, 93120, Tempo, 665262
1, 93360, Tempo, 640410
1, 93600, Tempo, 617347
1, 93840, Tempo, 661594
1, 94080, Tempo, 619835
1, 94560, Tempo, 635324
1, 95004, Tempo, 642467
1, 95080, Tempo, 645925
1, 95138, Tempo, 649421
1, 95196, Tempo, 652955
1, 95272, Tempo, 656527
1, 95330, Tempo, 660139
1, 95388, Tempo, 663790
1, 95400, Tempo, 717875
1, 95520, Tempo, 619835
1, 95962, Tempo, 628272
1, 96077, Tempo, 625000
1, 96192, Tempo, 621762
1, 96307, Tempo, 618557
1, 96423, Tempo, 615385
1, 96480, Tempo, 632111
1, 97001, Tempo, 628272
1, 97058, Tempo, 631579
1, 97116, Tempo, 634921
1, 97154, Tempo, 638298
1, 97212, Tempo, 641711
1, 97269, Tempo, 645161
1, 97308, Tempo, 648649
1, 97320, Tempo, 690528
1, 97440, Tempo, 619835
1, 97882, Tempo, 628272
1, 97997, Tempo, 625000
1, 98112, Tempo, 621762
1, 98227, Tempo, 618557
1, 98343, Tempo, 615385
1, 98400, Tempo, 632111
1, 98921, Tempo, 628272
1, 98978, Tempo, 631579
1, 99036, Tempo, 634921
1, 99074, Tempo, 638298
1, 99120, Tempo, 634921
1, 99300, Tempo, 670391
1, 99360, Tempo, 638298
1, 99600, Tempo, 652174
1, 100320, Tempo, 658328
1, 100680, Tempo, 747384
1, 100800, Tempo, 665262
1, 102720, Tempo, 665262
1, 102777, Tempo, 665262
1, 102911, Tempo, 661594
1, 103026, Tempo, 657967
1, 103141, Tempo, 654379
1, 103257, Tempo, 650830
1, 103372, Tempo, 654379
1, 103487, Tempo, 657967
1, 103602, Tempo, 661594
1, 103717, Tempo, 665262
1, 104160, Tempo, 658328
1, 104520, Tempo, 747384
1, 104640, Tempo, 665262
1, 105120, Tempo, 632111
1, 106560, Tempo, 622859
1, 106800, Tempo, 635324
1, 106860, Tempo, 641711
1, 106980, Tempo, 751880
1, 107040, Tempo, 654950
1, 107400, Tempo, 717875
1, 107520, Tempo, 658328
1, 108000, Tempo, 658328
1, 108360, Tempo, 747384
1, 108480, Tempo, 665262
1, 108960, Tempo, 652955
1, 109440, Tempo, 639046
1, 109920, Tempo, 632111
1, 110441, Tempo, 628272
1, 110498, Tempo, 631579
1, 110556, Tempo, 634921
1, 110594, Tempo, 638298
1, 110652, Tempo, 641711
1, 110709, Tempo, 645161
1, 110748, Tempo, 648649
1, 110760, Tempo, 690528
1, 110880, Tempo, 652955
1, 111360, Tempo, 639046
1, 111840, Tempo, 632111
1, 112361, Tempo, 628272
1, 112418, Tempo, 631579
1, 112476, Tempo, 634921
1, 112514, Tempo, 638298
1, 112572, Tempo, 641711
1, 112629, Tempo, 645161
1, 112668, Tempo, 648649
1, 112680, Tempo, 690528
1, 112800, Tempo, 672721
1, 113280, Tempo, 650830
1, 113760, Tempo, 637010
1, 114281, Tempo, 628272
1, 114338, Tempo, 631579
1, 114396, Tempo, 634921
1, 114434, Tempo, 638298
1, 114492, Tempo, 641711
1, 114549, Tempo, 645161
1, 114600, Tempo, 721241
1, 114720, Tempo, 684229
1, 115200, Tempo, 672721
1, 116141, Tempo, 670466
1, 116180, Tempo, 674233
1, 116199, Tempo, 678043
1, 116237, Tempo, 681896
1, 116257, Tempo, 685793
1, 116295, Tempo, 689734
1, 116314, Tempo, 693722
1, 116353, Tempo, 697756
1, 116372, Tempo, 701836
1, 116410, Tempo, 705965
1, 116429, Tempo, 710143
1, 116449, Tempo, 714371
1, 116487, Tempo, 718649
1, 116506, Tempo, 722979
1, 116545, Tempo, 727361
1, 116564, Tempo, 731797
1, 116602, Tempo, 736287
1, 116621, Tempo, 740832
1, 116660, Tempo, 745434
1, 116679, Tempo, 750094
1, 116717, Tempo, 754812
1, 116756, Tempo, 764429
1, 116760, Tempo, 816438
1, 116880, Tempo, 882483
1, 117000, Tempo, 1212366
1, 117000, End_track
2, 0, Start_track
2, 0, Title_t, "Piano right"
2, 0, Program_c, 0, 0
2, 3360, Note_on_c, 0, 69, 51
2, 3840, Note_on_c, 0, 69, 0
2, 3840, Note_on_c, 0, 68, 57
2, 4320, Note_on_c, 0, 68, 0
2, 4320, Note_on_c, 0, 66, 48
2, 4800, Note_on_c, 0, 66, 0
2, 4800, Note_on_c, 0, 64, 48
2, 5250, Note_on_c, 0, 64, 0
2, 5280, Note_on_c, 0, 76, 69
2, 5760, Note_on_c, 0, 76, 0
2, 5760, Note_on_c, 0, 75, 68
2, 6240, Note_on_c, 0, 75, 0
2, 6240, Note_on_c, 0, 73, 56
2, 6720, Note_on_c, 0, 73, 0
2, 6720, Note_on_c, 0, 71, 52
2, 7170, Note_on_c, 0, 71, 0
2, 7200, Note_on_c, 0, 73, 61
2, 7680, Note_on_c, 0, 73, 0
2, 7680, Note_on_c, 0, 69, 62
2, 8160, Note_on_c, 0, 69, 0
2, 8160, Note_on_c, 0, 71, 52
2, 8400, Note_on_c, 0, 71, 0
2, 8400, Note_on_c, 0, 66, 47
2, 8640, Note_on_c, 0, 66, 0
2, 8640, Note_on_c, 0, 68, 52
2, 8880, Note_on_c, 0, 68, 0
2, 8880, Note_on_c, 0, 69, 50
2, 8940, Note_on_c, 0, 69, 0
2, 8940, Note_on_c, 0, 68, 39
2, 9000, Note_on_c, 0, 68, 0
2, 9000, Note_on_c, 0, 66, 42
2, 9060, Note_on_c, 0, 66, 0
2, 9060, Note_on_c, 0, 68, 34
2, 9120, Note_on_c, 0, 68, 0
2, 9120, Note_on_c, 0, 71, 52
2, 9360, Note_on_c, 0, 71, 0
2, 9360, Note_on_c, 0, 69, 52
2, 9600, Note_on_c, 0, 69, 0
2, 9600, Note_on_c, 0, 68, 52
2, 10560, Note_on_c, 0, 68, 0
2, 10560, Note_on_c, 0, 66, 48
2, 10800, Note_on_c, 0, 66, 0
2, 11040, Note_on_c, 0, 69, 51
2, 11520, Note_on_c, 0, 69, 0
2, 11520, Note_on_c, 0, 68, 57
2, 12000, Note_on_c, 0, 68, 0
2, 12000, Note_on_c, 0, 66, 48
2, 12480, Note_on_c, 0, 66, 0
2, 12480, Note_on_c, 0, 64, 48
2, 12930, Note_on_c, 0, 64, 0
2, 12960, Note_on_c, 0, 76, 70
2, 13440, Note_on_c, 0, 76, 0
2, 13440, Note_on_c, 0, 75, 71
2, 13920, Note_on_c, 0, 75, 0
2, 13920, Note_on_c, 0, 73, 54
2, 14400, Note_on_c, 0, 73, 0
2, 14400, Note_on_c, 0, 71, 64
2, 14850, Note_on_c, 0, 71, 0
2, 14880, Note_on_c, 0, 80, 78
2, 15360, Note_on_c, 0, 80, 0
2, 15360, Note_on_c, 0, 73, 67
2, 16790, Note_on_c, 0, 73, 0
2, 16800, Note_on_c, 0, 80, 54
2, 17280, Note_on_c, 0, 80, 0
2, 17280, Note_on_c, 0, 73, 47
2, 18710, Note_on_c, 0, 73, 0
2, 18720, Note_on_c, 0, 73, 61
2, 19190, Note_on_c, 0, 73, 0
2, 19200, Note_on_c, 0, 73, 62
2, 19680, Note_on_c, 0, 73, 0
2, 19680, Note_on_c, 0, 76, 57
2, 20160, Note_on_c, 0, 76, 0
2, 20160, Note_on_c, 0, 75, 50
2, 20640, Note_on_c, 0, 75, 0
2, 20640, Note_on_c, 0, 73, 50
2, 20880, Note_on_c, 0, 73, 0
2, 20880, Note_on_c, 0, 68, 43
2, 21120, Note_on_c, 0, 68, 0
2, 21120, Note_on_c, 0, 71, 49
2, 22080, Note_on_c, 0, 71, 0
2, 22080, Note_on_c, 0, 70, 44
2, 23040, Note_on_c, 0, 70, 0
2, 23040, Note_on_c, 0, 69, 43
2, 24000, Note_on_c, 0, 69, 0
2, 24000, Note_on_c, 0, 68, 36
2, 24240, Note_on_c, 0, 68, 0
2, 24480, Note_on_c, 0, 68, 63
2, 24960, Note_on_c, 0, 68, 0
2, 24960, Note_on_c, 0, 70, 70
2, 25440, Note_on_c, 0, 70, 0
2, 25440, Note_on_c, 0, 71, 81
2, 25920, Note_on_c, 0, 71, 0
2, 25920, Note_on_c, 0, 75, 89
2, 26400, Note_on_c, 0, 75, 0
2, 26400, Note_on_c, 0, 73, 75
2, 26760, Note_on_c, 0, 73, 0
2, 26760, Note_on_c, 0, 71, 67
2, 26870, Note_on_c, 0, 71, 0
2, 26880, Note_on_c, 0, 71, 80
2, 27840, Note_on_c, 0, 71, 0
2, 28320, Note_on_c, 0, 69, 51
2, 28800, Note_on_c, 0, 69, 0
2, 28800, Note_on_c, 0, 68, 57
2, 29280, Note_on_c, 0, 68, 0
2, 29280, Note_on_c, 0, 66, 48
2, 29760, Note_on_c, 0, 66, 0
2, 29760, Note_on_c, 0, 64, 48
2, 30210, Note_on_c, 0, 64, 0
2, 30240, Note_on_c, 0, 76, 66
2, 30720, Note_on_c, 0, 76, 0
2, 30720, Note_on_c, 0, 75, 62
2, 31200, Note_on_c, 0, 75, 0
2, 31200, Note_on_c, 0, 73, 52
2, 31680, Note_on_c, 0, 73, 0
2, 31680, Note_on_c, 0, 71, 52
2, 32130, Note_on_c, 0, 71, 0
2, 32160, Note_on_c, 0, 73, 61
2, 32640, Note_on_c, 0, 73, 0
2, 32640, Note_on_c, 0, 69, 62
2, 33120, Note_on_c, 0, 69, 0
2, 33120, Note_on_c, 0, 71, 52
2, 33360, Note_on_c, 0, 71, 0
2, 33360, Note_on_c, 0, 66, 47
2, 33600, Note_on_c, 0, 66, 0
2, 33600, Note_on_c, 0, 68, 52
2, 33840, Note_on_c, 0, 68, 0
2, 33840, Note_on_c, 0, 69, 50
2, 33900, Note_on_c, 0, 69, 0
2, 33900, Note_on_c, 0, 68, 39
2, 33960, Note_on_c, 0, 68, 0
2, 33960, Note_on_c, 0, 66, 42
2, 34020, Note_on_c, 0, 66, 0
2, 34020, Note_on_c, 0, 68, 34
2, 34080, Note_on_c, 0, 68, 0
2, 34080, Note_on_c, 0, 71, 52
2, 34320, Note_on_c, 0, 71, 0
2, 34320, Note_on_c, 0, 69, 52
2, 34560, Note_on_c, 0, 69, 0
2, 34560, Note_on_c, 0, 68, 52
2, 35520, Note_on_c, 0, 68, 0
2, 35520, Note_on_c, 0, 66, 48
2, 35760, Note_on_c, 0, 66, 0
2, 36000, Note_on_c, 0, 69, 51
2, 36480, Note_on_c, 0, 69, 0
2, 36480, Note_on_c, 0, 68, 57
2, 36960, Note_on_c, 0, 68, 0
2, 36960, Note_on_c, 0, 66, 48
2, 37440, Note_on_c, 0, 66, 0
2, 37440, Note_on_c, 0, 64, 48
2, 37890, Note_on_c, 0, 64, 0
2, 37920, Note_on_c, 0, 76, 70
2, 38400, Note_on_c, 0, 76, 0
2, 38400, Note_on_c, 0, 75, 71
2, 38880, Note_on_c, 0, 75, 0
2, 38880, Note_on_c, 0, 73, 54
2, 39360, Note_on_c, 0, 73, 0
2, 39360, Note_on_c, 0, 71, 64
2, 39810, Note_on_c, 0, 71, 0
2, 39840, Note_on_c, 0, 80, 78
2, 40320, Note_on_c, 0, 80, 0
2, 40320, Note_on_c, 0, 73, 67
2, 41730, Note_on_c, 0, 73, 0
2, 41760, Note_on_c, 0, 80, 54
2, 42240, Note_on_c, 0, 80, 0
2, 42240, Note_on_c, 0, 73, 47
2, 43650, Note_on_c, 0, 73, 0
2, 43680, Note_on_c, 0, 73, 56
2, 44150, Note_on_c, 0, 73, 0
2, 44160, Note_on_c, 0, 73, 62
2, 44640, Note_on_c, 0, 73, 0
2, 44640, Note_on_c, 0, 76, 57
2, 45120, Note_on_c, 0, 76, 0
2, 45120, Note_on_c, 0, 75, 51
2, 45600, Note_on_c, 0, 75, 0
2, 45600, Note_on_c, 0, 73, 50
2, 45840, Note_on_c, 0, 73, 0
2, 45840, Note_on_c, 0, 68, 44
2, 46080, Note_on_c, 0, 68, 0
2, 46080, Note_on_c, 0, 71, 50
2, 47040, Note_on_c, 0, 71, 0
2, 47040, Note_on_c, 0, 70, 44
2, 48000, Note_on_c, 0, 70, 0
2, 48000, Note_on_c, 0, 69, 43
2, 48960, Note_on_c, 0, 69, 0
2, 48960, Note_on_c, 0, 68, 36
2, 49200, Note_on_c, 0, 68, 0
2, 49440, Note_on_c, 0, 68, 63
2, 49920, Note_on_c, 0, 68, 0
2, 49920, Note_on_c, 0, 70, 70
2, 50400, Note_on_c, 0, 70, 0
2, 50400, Note_on_c, 0, 71, 81
2, 50880, Note_on_c, 0, 71, 0
2, 50880, Note_on_c, 0, 75, 89
2, 51360, Note_on_c, 0, 75, 0
2, 51360, Note_on_c, 0, 73, 75
2, 51720, Note_on_c, 0, 73, 0
2, 51720, Note_on_c, 0, 71, 67
2, 51830, Note_on_c, 0, 71, 0
2, 51840, Note_on_c, 0, 71, 80
2, 52800, Note_on_c, 0, 71, 0
2, 53280, Note_on_c, 0, 66, 51
2, 53460, Note_on_c, 0, 66, 0
2, 53520, Note_on_c, 0, 66, 51
2, 53700, Note_on_c, 0, 66, 0
2, 53760, Note_on_c, 0, 67, 57
2, 54240, Note_on_c, 0, 67, 0
2, 54240, Note_on_c, 0, 66, 50
2, 54480, Note_on_c, 0, 66, 0
2, 54480, Note_on_c, 0, 64, 51
2, 54720, Note_on_c, 0, 64, 0
2, 54720, Note_on_c, 0, 69, 53
2, 55170, Note_on_c, 0, 69, 0
2, 55200, Note_on_c, 0, 69, 65
2, 55380, Note_on_c, 0, 69, 0
2, 55440, Note_on_c, 0, 69, 64
2, 55620, Note_on_c, 0, 69, 0
2, 55680, Note_on_c, 0, 71, 75
2, 56160, Note_on_c, 0, 71, 0
2, 56160, Note_on_c, 0, 69, 61
2, 56400, Note_on_c, 0, 69, 0
2, 56400, Note_on_c, 0, 67, 63
2, 56640, Note_on_c, 0, 67, 0
2, 56640, Note_on_c, 0, 72, 69
2, 57090, Note_on_c, 0, 72, 0
2, 57120, Note_on_c, 0, 72, 78
2, 57300, Note_on_c, 0, 72, 0
2, 57360, Note_on_c, 0, 72, 72
2, 57540, Note_on_c, 0, 72, 0
2, 57600, Note_on_c, 0, 74, 86
2, 58080, Note_on_c, 0, 74, 0
2, 58080, Note_on_c, 0, 72, 72
2, 58320, Note_on_c, 0, 72, 0
2, 58320, Note_on_c, 0, 71, 74
2, 58560, Note_on_c, 0, 71, 0
2, 58560, Note_on_c, 0, 79, 86
2, 59010, Note_on_c, 0, 79, 0
2, 59040, Note_on_c, 0, 78, 85
2, 59280, Note_on_c, 0, 78, 0
2, 59280, Note_on_c, 0, 76, 70
2, 59520, Note_on_c, 0, 76, 0
2, 59520, Note_on_c, 0, 74, 81
2, 59970, Note_on_c, 0, 74, 0
2, 60000, Note_on_c, 0, 74, 74
2, 60480, Note_on_c, 0, 74, 0
2, 60480, Note_on_c, 0, 74, 68
2, 60600, Note_on_c, 0, 74, 0
2, 60600, Note_on_c, 0, 78, 64
2, 60720, Note_on_c, 0, 78, 0
2, 60720, Note_on_c, 0, 81, 69
2, 60840, Note_on_c, 0, 81, 0
2, 60840, Note_on_c, 0, 84, 69
2, 60960, Note_on_c, 0, 84, 0
2, 60960, Note_on_c, 0, 83, 74
2, 61080, Note_on_c, 0, 83, 0
2, 61080, Note_on_c, 0, 81, 66
2, 61200, Note_on_c, 0, 81, 0
2, 61200, Note_on_c, 0, 79, 70
2, 61320, Note_on_c, 0, 79, 0
2, 61320, Note_on_c, 0, 78, 65
2, 61440, Note_on_c, 0, 78, 0
2, 61440, Note_on_c, 0, 76, 70
2, 61560, Note_on_c, 0, 76, 0
2, 61560, Note_on_c, 0, 75, 64
2, 61680, Note_on_c, 0, 75, 0
2, 61680, Note_on_c, 0, 78, 70
2, 62040, Note_on_c, 0, 78, 0
2, 62040, Note_on_c, 0, 76, 66
2, 62160, Note_on_c, 0, 76, 0
2, 62160, Note_on_c, 0, 74, 64
2, 62280, Note_on_c, 0, 74, 0
2, 62280, Note_on_c, 0, 72, 58
2, 62400, Note_on_c, 0, 72, 0
2, 62400, Note_on_c, 0, 71, 64
2, 62520, Note_on_c, 0, 71, 0
2, 62520, Note_on_c, 0, 69, 57
2, 62640, Note_on_c, 0, 69, 0
2, 62640, Note_on_c, 0, 68, 61
2, 62760, Note_on_c, 0, 68, 0
2, 62760, Note_on_c, 0, 69, 50
2, 62880, Note_on_c, 0, 69, 0
2, 62880, Note_on_c, 0, 68, 46
2, 63000, Note_on_c, 0, 68, 0
2, 63000, Note_on_c, 0, 69, 46
2, 63060, Note_on_c, 0, 69, 0
2, 63120, Note_on_c, 0, 71, 46
2, 63180, Note_on_c, 0, 71, 0
2, 63240, Note_on_c, 0, 72, 41
2, 63300, Note_on_c, 0, 72, 0
2, 63360, Note_on_c, 0, 74, 50
2, 63840, Note_on_c, 0, 74, 0
2, 63840, Note_on_c, 0, 71, 46
2, 64320, Note_on_c, 0, 71, 0
2, 64320, Note_on_c, 0, 69, 46
2, 64770, Note_on_c, 0, 69, 0
2, 64800, Note_on_c, 0, 76, 56
2, 65280, Note_on_c, 0, 76, 0
2, 65280, Note_on_c, 0, 74, 57
2, 65760, Note_on_c, 0, 74, 0
2, 65760, Note_on_c, 0, 71, 48
2, 66240, Note_on_c, 0, 71, 0
2, 66240, Note_on_c, 0, 69, 48
2, 66690, Note_on_c, 0, 69, 0
2, 66720, Note_on_c, 0, 71, 56
2, 66960, Note_on_c, 0, 71, 0
2, 66960, Note_on_c, 0, 72, 49
2, 67200, Note_on_c, 0, 72, 0
2, 67200, Note_on_c, 0, 71, 57
2, 67320, Note_on_c, 0, 71, 0
2, 67440, Note_on_c, 0, 71, 47
2, 67680, Note_on_c, 0, 71, 0
2, 67680, Note_on_c, 0, 74, 54
2, 67920, Note_on_c, 0, 74, 0
2, 67920, Note_on_c, 0, 71, 48
2, 68130, Note_on_c, 0, 71, 0
2, 68160, Note_on_c, 0, 71, 53
2, 68400, Note_on_c, 0, 71, 0
2, 68400, Note_on_c, 0, 69, 48
2, 68640, Note_on_c, 0, 69, 0
2, 68640, Note_on_c, 0, 67, 40
2, 68880, Note_on_c, 0, 67, 0
2, 68880, Note_on_c, 0, 69, 40
2, 69120, Note_on_c, 0, 69, 0
2, 69120, Note_on_c, 0, 71, 47
2, 71280, Note_on_c, 0, 71, 0
2, 71280, Note_on_c, 0, 71, 35
2, 71520, Note_on_c, 0, 71, 0
2, 71520, Note_on_c, 0, 74, 40
2, 71760, Note_on_c, 0, 74, 0
2, 71760, Note_on_c, 0, 71, 36
2, 71970, Note_on_c, 0, 71, 0
2, 72000, Note_on_c, 0, 71, 39
2, 72240, Note_on_c, 0, 71, 0
2, 72240, Note_on_c, 0, 69, 36
2, 72480, Note_on_c, 0, 69, 0
2, 72480, Note_on_c, 0, 67, 30
2, 72720, Note_on_c, 0, 67, 0
2, 72720, Note_on_c, 0, 69, 30
2, 72960, Note_on_c, 0, 69, 0
2, 72960, Note_on_c, 0, 71, 35
2, 74400, Note_on_c, 0, 71, 0
2, 74400, Note_on_c, 0, 70, 49
2, 74880, Note_on_c, 0, 70, 0
2, 74880, Note_on_c, 0, 71, 57
2, 75840, Note_on_c, 0, 71, 0
2, 76320, Note_on_c, 0, 72, 54
2, 76800, Note_on_c, 0, 72, 0
2, 76800, Note_on_c, 0, 71, 57
2, 77760, Note_on_c, 0, 71, 0
2, 78240, Note_on_c, 0, 69, 71
2, 78720, Note_on_c, 0, 69, 0
2, 78720, Note_on_c, 0, 68, 79
2, 79200, Note_on_c, 0, 68, 0
2, 79200, Note_on_c, 0, 66, 67
2, 79680, Note_on_c, 0, 66, 0
2, 79680, Note_on_c, 0, 64, 67
2, 80130, Note_on_c, 0, 64, 0
2, 80160, Note_on_c, 0, 76, 78
2, 80640, Note_on_c, 0, 76, 0
2, 80640, Note_on_c, 0, 75, 79
2, 81120, Note_on_c, 0, 75, 0
2, 81120, Note_on_c, 0, 73, 67
2, 81600, Note_on_c, 0, 73, 0
2, 81600, Note_on_c, 0, 71, 67
2, 82050, Note_on_c, 0, 71, 0
2, 82080, Note_on_c, 0, 73, 78
2, 82560, Note_on_c, 0, 73, 0
2, 82560, Note_on_c, 0, 69, 79
2, 82800, Note_on_c, 0, 69, 0
2, 82800, Note_on_c, 0, 73, 75
2, 83040, Note_on_c, 0, 73, 0
2, 83040, Note_on_c, 0, 71, 67
2, 83280, Note_on_c, 0, 71, 0
2, 83280, Note_on_c, 0, 66, 60
2, 83520, Note_on_c, 0, 66, 0
2, 83520, Note_on_c, 0, 68, 67
2, 83730, Note_on_c, 0, 68, 0
2, 83760, Note_on_c, 0, 68, 57
2, 84000, Note_on_c, 0, 68, 0
2, 84000, Note_on_c, 0, 71, 67
2, 84240, Note_on_c, 0, 71, 0
2, 84240, Note_on_c, 0, 69, 57
2, 84480, Note_on_c, 0, 69, 0
2, 84480, Note_on_c, 0, 68, 67
2, 85440, Note_on_c, 0, 68, 0
2, 85440, Note_on_c, 0, 66, 61
2, 85680, Note_on_c, 0, 66, 0
2, 85920, Note_on_c, 0, 68, 51
2, 86160, Note_on_c, 0, 68, 0
2, 86160, Note_on_c, 0, 69, 45
2, 86400, Note_on_c, 0, 69, 0
2, 86400, Note_on_c, 0, 71, 57
2, 86880, Note_on_c, 0, 71, 0
2, 86880, Note_on_c, 0, 68, 48
2, 87360, Note_on_c, 0, 68, 0
2, 87360, Note_on_c, 0, 66, 48
2, 87810, Note_on_c, 0, 66, 0
2, 87840, Note_on_c, 0, 73, 56
2, 88320, Note_on_c, 0, 73, 0
2, 88320, Note_on_c, 0, 71, 57
2, 88800, Note_on_c, 0, 71, 0
2, 88800, Note_on_c, 0, 68, 48
2, 89280, Note_on_c, 0, 68, 0
2, 89280, Note_on_c, 0, 66, 49
2, 89730, Note_on_c, 0, 66, 0
2, 89760, Note_on_c, 0, 76, 64
2, 90240, Note_on_c, 0, 76, 0
2, 90240, Note_on_c, 0, 76, 60
2, 90720, Note_on_c, 0, 76, 0
2, 90720, Note_on_c, 0, 71, 52
2, 91430, Note_on_c, 0, 71, 0
2, 91440, Note_on_c, 0, 71, 56
2, 91680, Note_on_c, 0, 71, 0
2, 91680, Note_on_c, 0, 73, 62
2, 91920, Note_on_c, 0, 73, 0
2, 91920, Note_on_c, 0, 71, 61
2, 92160, Note_on_c, 0, 71, 0
2, 92160, Note_on_c, 0, 69, 55
2, 93120, Note_on_c, 0, 69, 0
2, 93120, Note_on_c, 0, 68, 53
2, 93360, Note_on_c, 0, 68, 0
2, 93360, Note_on_c, 0, 66, 60
2, 93600, Note_on_c, 0, 66, 0
2, 93600, Note_on_c, 0, 68, 61
2, 93840, Note_on_c, 0, 68, 0
2, 93840, Note_on_c, 0, 69, 61
2, 94080, Note_on_c, 0, 69, 0
2, 94080, Note_on_c, 0, 71, 68
2, 94560, Note_on_c, 0, 71, 0
2, 94560, Note_on_c, 0, 68, 59
2, 95040, Note_on_c, 0, 68, 0
2, 95040, Note_on_c, 0, 66, 60
2, 95490, Note_on_c, 0, 66, 0
2, 95520, Note_on_c, 0, 73, 71
2, 96000, Note_on_c, 0, 73, 0
2, 96000, Note_on_c, 0, 71, 73
2, 96480, Note_on_c, 0, 71, 0
2, 96480, Note_on_c, 0, 68, 62
2, 96960, Note_on_c, 0, 68, 0
2, 96960, Note_on_c, 0, 66, 63
2, 97410, Note_on_c, 0, 66, 0
2, 97440, Note_on_c, 0, 76, 75
2, 97920, Note_on_c, 0, 76, 0
2, 97920, Note_on_c, 0, 75, 77
2, 98400, Note_on_c, 0, 75, 0
2, 98400, Note_on_c, 0, 73, 66
2, 98880, Note_on_c, 0, 73, 0
2, 98880, Note_on_c, 0, 71, 69
2, 99120, Note_on_c, 0, 71, 0
2, 99120, Note_on_c, 0, 75, 70
2, 99360, Note_on_c, 0, 75, 0
2, 99360, Note_on_c, 0, 78, 75
2, 99600, Note_on_c, 0, 78, 0
2, 99600, Note_on_c, 0, 81, 77
2, 99840, Note_on_c, 0, 81, 0
2, 99840, Note_on_c, 0, 80, 75
2, 100080, Note_on_c, 0, 80, 0
2, 100080, Note_on_c, 0, 75, 63
2, 100320, Note_on_c, 0, 75, 0
2, 100320, Note_on_c, 0, 78, 71
2, 100560, Note_on_c, 0, 78, 0
2, 100560, Note_on_c, 0, 76, 64
2, 100800, Note_on_c, 0, 76, 0
2, 100800, Note_on_c, 0, 75, 63
2, 101040, Note_on_c, 0, 75, 0
2, 101040, Note_on_c, 0, 73, 54
2, 101280, Note_on_c, 0, 73, 0
2, 101280, Note_on_c, 0, 69, 59
2, 101520, Note_on_c, 0, 69, 0
2, 101520, Note_on_c, 0, 66, 51
2, 101760, Note_on_c, 0, 66, 0
2, 101760, Note_on_c, 0, 64, 63
2, 102720, Note_on_c, 0, 64, 0
2, 102720, Note_on_c, 0, 63, 44
2, 103680, Note_on_c, 0, 63, 0
2, 103680, Note_on_c, 0, 62, 43
2, 104640, Note_on_c, 0, 62, 0
2, 104640, Note_on_c, 0, 61, 36
2, 104880, Note_on_c, 0, 61, 0
2, 105120, Note_on_c, 0, 61, 56
2, 105600, Note_on_c, 0, 61, 0
2, 105600, Note_on_c, 0, 63, 58
2, 106080, Note_on_c, 0, 63, 0
2, 106080, Note_on_c, 0, 64, 65
2, 106560, Note_on_c, 0, 64, 0
2, 106560, Note_on_c, 0, 68, 70
2, 107040, Note_on_c, 0, 68, 0
2, 107040, Note_on_c, 0, 66, 63
2, 107400, Note_on_c, 0, 66, 0
2, 107400, Note_on_c, 0, 64, 53
2, 107510, Note_on_c, 0, 64, 0
2, 107520, Note_on_c, 0, 64, 66
2, 108480, Note_on_c, 0, 64, 0
2, 108960, Note_on_c, 0, 62, 49
2, 109440, Note_on_c, 0, 62, 0
2, 109440, Note_on_c, 0, 61, 55
2, 110400, Note_on_c, 0, 61, 0
2, 110880, Note_on_c, 0, 60, 42
2, 111360, Note_on_c, 0, 60, 0
2, 111360, Note_on_c, 0, 59, 47
2, 112320, Note_on_c, 0, 59, 0
2, 112800, Note_on_c, 0, 68, 36
2, 113040, Note_on_c, 0, 68, 0
2, 113040, Note_on_c, 0, 66, 35
2, 113280, Note_on_c, 0, 66, 0
2, 113280, Note_on_c, 0, 64, 39
2, 114240, Note_on_c, 0, 64, 0
2, 114720, Note_on_c, 0, 68, 34
2, 115200, Note_on_c, 0, 68, 0
2, 115200, Note_on_c, 0, 64, 38
2, 116150, Note_on_c, 0, 64, 0
2, 116160, Note_on_c, 0, 64, 38
2, 117110, Note_on_c, 0, 64, 0
2, 117120, Note_on_c, 0, 56, 19
2, 117120, Note_on_c, 0, 64, 26
2, 119040, Note_on_c, 0, 64, 0
2, 119040, Note_on_c, 0, 56, 0
2, 119040, End_track
3, 0, Start_track
3, 0, Title_t, "Piano middle"
3, 0, Program_c, 0, 0
3, 0, Note_on_c, 0, 47, 28
3, 120, Note_on_c, 0, 47, 0
3, 120, Note_on_c, 0, 52, 20
3, 240, Note_on_c, 0, 52, 0
3, 240, Note_on_c, 0, 56, 21
3, 360, Note_on_c, 0, 56, 0
3, 360, Note_on_c, 0, 59, 20
3, 480, Note_on_c, 0, 59, 0
3, 480, Note_on_c, 0, 47, 26
3, 600, Note_on_c, 0, 47, 0
3, 600, Note_on_c, 0, 52, 20
3, 720, Note_on_c, 0, 52, 0
3, 720, Note_on_c, 0, 56, 21
3, 840, Note_on_c, 0, 56, 0
3, 840, Note_on_c, 0, 59, 19
3, 960, Note_on_c, 0, 59, 0
3, 960, Note_on_c, 0, 47, 28
3, 1080, Note_on_c, 0, 47, 0
3, 1080, Note_on_c, 0, 52, 21
3, 1200, Note_on_c, 0, 52, 0
3, 1200, Note_on_c, 0, 56, 21
3, 1320, Note_on_c, 0, 56, 0
3, 1320, Note_on_c, 0, 59, 20
3, 1440, Note_on_c, 0, 59, 0
3, 1440, Note_on_c, 0, 47, 27
3, 1560, Note_on_c, 0, 47, 0
3, 1560, Note_on_c, 0, 52, 23
3, 1680, Note_on_c, 0, 52, 0
3, 1680, Note_on_c, 0, 56, 22
3, 1800, Note_on_c, 0, 56, 0
3, 1800, Note_on_c, 0, 59, 20
3, 1920, Note_on_c, 0, 59, 0
3, 1920, Note_on_c, 0, 47, 31
3, 2040, Note_on_c, 0, 47, 0
3, 2040, Note_on_c, 0, 51, 23
3, 2160, Note_on_c, 0, 51, 0
3, 2160, Note_on_c, 0, 57, 23
3, 2280, Note_on_c, 0, 57, 0
3, 2280, Note_on_c, 0, 59, 23
3, 2400, Note_on_c, 0, 59, 0
3, 2400, Note_on_c, 0, 47, 30
3, 2520, Note_on_c, 0, 47, 0
3, 2520, Note_on_c, 0, 51, 23
3, 2640, Note_on_c, 0, 51, 0
3, 2640, Note_on_c, 0, 57, 23
3, 2760, Note_on_c, 0, 57, 0
3, 2760, Note_on_c, 0, 59, 22
3, 2880, Note_on_c, 0, 59, 0
3, 2880, Note_on_c, 0, 47, 32
3, 3000, Note_on_c, 0, 47, 0
3, 3000, Note_on_c, 0, 51, 25
3, 3120, Note_on_c, 0, 51, 0
3, 3120, Note_on_c, 0, 54, 26
3, 3240, Note_on_c, 0, 54, 0
3, 3240, Note_on_c, 0, 59, 29
3, 3360, Note_on_c, 0, 59, 0
3, 3360, Note_on_c, 0, 47, 31
3, 3480, Note_on_c, 0, 47, 0
3, 3480, Note_on_c, 0, 51, 26
3, 3600, Note_on_c, 0, 51, 0
3, 3600, Note_on_c, 0, 54, 32
3, 3720, Note_on_c, 0, 54, 0
3, 3720, Note_on_c, 0, 59, 34
3, 3840, Note_on_c, 0, 59, 0
3, 3840, Note_on_c, 0, 47, 40
3, 3960, Note_on_c, 0, 47, 0
3, 3960, Note_on_c, 0, 52, 26
3, 4080, Note_on_c, 0, 52, 0
3, 4080, Note_on_c, 0, 56, 26
3, 4200, Note_on_c, 0, 56, 0
3, 4200, Note_on_c, 0, 59, 25
3, 4320, Note_on_c, 0, 59, 0
3, 4320, Note_on_c, 0, 47, 32
3, 4440, Note_on_c, 0, 47, 0
3, 4440, Note_on_c, 0, 51, 25
3, 4560, Note_on_c, 0, 51, 0
3, 4560, Note_on_c, 0, 57, 25
3, 4680, Note_on_c, 0, 57, 0
3, 4680, Note_on_c, 0, 59, 23
3, 4800, Note_on_c, 0, 59, 0
3, 4800, Note_on_c, 0, 47, 33
3, 4920, Note_on_c, 0, 47, 0
3, 4920, Note_on_c, 0, 52, 27
3, 5040, Note_on_c, 0, 52, 0
3, 5040, Note_on_c, 0, 56, 34
3, 5160, Note_on_c, 0, 56, 0
3, 5160, Note_on_c, 0, 59, 44
3, 5280, Note_on_c, 0, 59, 0
3, 5280, Note_on_c, 0, 54, 53
3, 5400, Note_on_c, 0, 54, 0
3, 5400, Note_on_c, 0, 61, 31
3, 5520, Note_on_c, 0, 61, 0
3, 5520, Note_on_c, 0, 64, 39
3, 5640, Note_on_c, 0, 64, 0
3, 5640, Note_on_c, 0, 66, 23
3, 5760, Note_on_c, 0, 66, 0
3, 5760, Note_on_c, 0, 54, 35
3, 5880, Note_on_c, 0, 54, 0
3, 5880, Note_on_c, 0, 59, 26
3, 6000, Note_on_c, 0, 59, 0
3, 6000, Note_on_c, 0, 63, 26
3, 6120, Note_on_c, 0, 63, 0
3, 6120, Note_on_c, 0, 66, 25
3, 6240, Note_on_c, 0, 66, 0
3, 6240, Note_on_c, 0, 54, 32
3, 6360, Note_on_c, 0, 54, 0
3, 6360, Note_on_c, 0, 58, 25
3, 6480, Note_on_c, 0, 58, 0
3, 6480, Note_on_c, 0, 64, 25
3, 6600, Note_on_c, 0, 64, 0
3, 6600, Note_on_c, 0, 66, 23
3, 6720, Note_on_c, 0, 66, 0
3, 6720, Note_on_c, 0, 54, 33
3, 6840, Note_on_c, 0, 54, 0
3, 6840, Note_on_c, 0, 59, 27
3, 6960, Note_on_c, 0, 59, 0
3, 6960, Note_on_c, 0, 63, 33
3, 7080, Note_on_c, 0, 63, 0
3, 7080, Note_on_c, 0, 66, 40
3, 7200, Note_on_c, 0, 66, 0
3, 7200, Note_on_c, 0, 56, 46
3, 7320, Note_on_c, 0, 56, 0
3, 7320, Note_on_c, 0, 59, 26
3, 7440, Note_on_c, 0, 59, 0
3, 7440, Note_on_c, 0, 61, 25
3, 7560, Note_on_c, 0, 61, 0
3, 7560, Note_on_c, 0, 68, 23
3, 7680, Note_on_c, 0, 68, 0
3, 7800, Note_on_c, 0, 57, 26
3, 7920, Note_on_c, 0, 57, 0
3, 7920, Note_on_c, 0, 61, 26
3, 8040, Note_on_c, 0, 61, 0
3, 8040, Note_on_c, 0, 64, 25
3, 8160, Note_on_c, 0, 64, 0
3, 8160, Note_on_c, 0, 54, 32
3, 8280, Note_on_c, 0, 54, 0
3, 8280, Note_on_c, 0, 57, 25
3, 8400, Note_on_c, 0, 57, 0
3, 8400, Note_on_c, 0, 59, 25
3, 8520, Note_on_c, 0, 59, 0
3, 8520, Note_on_c, 0, 63, 23
3, 8640, Note_on_c, 0, 63, 0
3, 8760, Note_on_c, 0, 56, 25
3, 8880, Note_on_c, 0, 56, 0
3, 8880, Note_on_c, 0, 59, 25
3, 9000, Note_on_c, 0, 59, 0
3, 9000, Note_on_c, 0, 64, 24
3, 9120, Note_on_c, 0, 64, 0
3, 9120, Note_on_c, 0, 52, 31
3, 9240, Note_on_c, 0, 52, 0
3, 9240, Note_on_c, 0, 54, 26
3, 9360, Note_on_c, 0, 54, 0
3, 9360, Note_on_c, 0, 61, 25
3, 9480, Note_on_c, 0, 61, 0
3, 9480, Note_on_c, 0, 64, 23
3, 9600, Note_on_c, 0, 64, 0
3, 9600, Note_on_c, 0, 52, 35
3, 9720, Note_on_c, 0, 52, 0
3, 9720, Note_on_c, 0, 56, 26
3, 9840, Note_on_c, 0, 56, 0
3, 9840, Note_on_c, 0, 59, 26
3, 9960, Note_on_c, 0, 59, 0
3, 9960, Note_on_c, 0, 64, 25
3, 10080, Note_on_c, 0, 64, 0
3, 10080, Note_on_c, 0, 52, 32
3, 10200, Note_on_c, 0, 52, 0
3, 10200, Note_on_c, 0, 56, 25
3, 10320, Note_on_c, 0, 56, 0
3, 10320, Note_on_c, 0, 59, 25
3, 10440, Note_on_c, 0, 59, 0
3, 10440, Note_on_c, 0, 64, 23
3, 10560, Note_on_c, 0, 64, 0
3, 10560, Note_on_c, 0, 51, 29
3, 10680, Note_on_c, 0, 51, 0
3, 10680, Note_on_c, 0, 54, 25
3, 10800, Note_on_c, 0, 54, 0
3, 10800, Note_on_c, 0, 59, 25
3, 10920, Note_on_c, 0, 59, 0
3, 10920, Note_on_c, 0, 63, 24
3, 11040, Note_on_c, 0, 63, 0
3, 11040, Note_on_c, 0, 47, 31
3, 11160, Note_on_c, 0, 47, 0
3, 11160, Note_on_c, 0, 54, 27
3, 11280, Note_on_c, 0, 54, 0
3, 11280, Note_on_c, 0, 57, 29
3, 11400, Note_on_c, 0, 57, 0
3, 11400, Note_on_c, 0, 59, 32
3, 11520, Note_on_c, 0, 59, 0
3, 11520, Note_on_c, 0, 47, 40
3, 11640, Note_on_c, 0, 47, 0
3, 11640, Note_on_c, 0, 52, 26
3, 11760, Note_on_c, 0, 52, 0
3, 11760, Note_on_c, 0, 56, 29
3, 11880, Note_on_c, 0, 56, 0
3, 11880, Note_on_c, 0, 59, 31
3, 12000, Note_on_c, 0, 59, 0
3, 12000, Note_on_c, 0, 47, 38
3, 12120, Note_on_c, 0, 47, 0
3, 12120, Note_on_c, 0, 51, 25
3, 12240, Note_on_c, 0, 51, 0
3, 12240, Note_on_c, 0, 57, 30
3, 12360, Note_on_c, 0, 57, 0
3, 12360, Note_on_c, 0, 59, 26
3, 12480, Note_on_c, 0, 59, 0
3, 12480, Note_on_c, 0, 47, 33
3, 12600, Note_on_c, 0, 47, 0
3, 12600, Note_on_c, 0, 52, 29
3, 12720, Note_on_c, 0, 52, 0
3, 12720, Note_on_c, 0, 56, 31
3, 12840, Note_on_c, 0, 56, 0
3, 12840, Note_on_c, 0, 59, 36
3, 12960, Note_on_c, 0, 59, 0
3, 12960, Note_on_c, 0, 54, 42
3, 13080, Note_on_c, 0, 54, 0
3, 13080, Note_on_c, 0, 61, 30
3, 13200, Note_on_c, 0, 61, 0
3, 13200, Note_on_c, 0, 64, 32
3, 13320, Note_on_c, 0, 64, 0
3, 13320, Note_on_c, 0, 66, 29
3, 13440, Note_on_c, 0, 66, 0
3, 13440, Note_on_c, 0, 54, 35
3, 13560, Note_on_c, 0, 54, 0
3, 13560, Note_on_c, 0, 59, 26
3, 13680, Note_on_c, 0, 59, 0
3, 13680, Note_on_c, 0, 63, 26
3, 13800, Note_on_c, 0, 63, 0
3, 13800, Note_on_c, 0, 66, 25
3, 13920, Note_on_c, 0, 66, 0
3, 13920, Note_on_c, 0, 54, 32
3, 14040, Note_on_c, 0, 54, 0
3, 14040, Note_on_c, 0, 58, 25
3, 14160, Note_on_c, 0, 58, 0
3, 14160, Note_on_c, 0, 64, 25
3, 14280, Note_on_c, 0, 64, 0
3, 14280, Note_on_c, 0, 66, 23
3, 14400, Note_on_c, 0, 66, 0
3, 14400, Note_on_c, 0, 54, 33
3, 14520, Note_on_c, 0, 54, 0
3, 14520, Note_on_c, 0, 59, 38
3, 14640, Note_on_c, 0, 59, 0
3, 14640, Note_on_c, 0, 63, 39
3, 14760, Note_on_c, 0, 63, 0
3, 14760, Note_on_c, 0, 66, 48
3, 14880, Note_on_c, 0, 66, 0
3, 14880, Note_on_c, 0, 59, 54
3, 15000, Note_on_c, 0, 59, 0
3, 15000, Note_on_c, 0, 61, 35
3, 15120, Note_on_c, 0, 61, 0
3, 15120, Note_on_c, 0, 68, 40
3, 15240, Note_on_c, 0, 68, 0
3, 15240, Note_on_c, 0, 71, 33
3, 15360, Note_on_c, 0, 71, 0
3, 15360, Note_on_c, 0, 59, 42
3, 15480, Note_on_c, 0, 59, 0
3, 15480, Note_on_c, 0, 61, 29
3, 15600, Note_on_c, 0, 61, 0
3, 15600, Note_on_c, 0, 68, 29
3, 15720, Note_on_c, 0, 68, 0
3, 15720, Note_on_c, 0, 71, 29
3, 15840, Note_on_c, 0, 71, 0
3, 15840, Note_on_c, 0, 59, 38
3, 15960, Note_on_c, 0, 59, 0
3, 15960, Note_on_c, 0, 61, 26
3, 16080, Note_on_c, 0, 61, 0
3, 16080, Note_on_c, 0, 68, 26
3, 16200, Note_on_c, 0, 68, 0
3, 16200, Note_on_c, 0, 71, 26
3, 16320, Note_on_c, 0, 71, 0
3, 16320, Note_on_c, 0, 59, 35
3, 16440, Note_on_c, 0, 59, 0
3, 16440, Note_on_c, 0, 61, 27
3, 16560, Note_on_c, 0, 61, 0
3, 16560, Note_on_c, 0, 68, 27
3, 16680, Note_on_c, 0, 68, 0
3, 16680, Note_on_c, 0, 71, 27
3, 16800, Note_on_c, 0, 71, 0
3, 16800, Note_on_c, 0, 59, 35
3, 16920, Note_on_c, 0, 59, 0
3, 16920, Note_on_c, 0, 61, 18
3, 17040, Note_on_c, 0, 61, 0
3, 17040, Note_on_c, 0, 68, 19
3, 17160, Note_on_c, 0, 68, 0
3, 17160, Note_on_c, 0, 71, 20
3, 17280, Note_on_c, 0, 71, 0
3, 17280, Note_on_c, 0, 59, 29
3, 17400, Note_on_c, 0, 59, 0
3, 17400, Note_on_c, 0, 61, 20
3, 17520, Note_on_c, 0, 61, 0
3, 17520, Note_on_c, 0, 68, 20
3, 17640, Note_on_c, 0, 68, 0
3, 17640, Note_on_c, 0, 71, 20
3, 17760, Note_on_c, 0, 71, 0
3, 17760, Note_on_c, 0, 59, 26
3, 17880, Note_on_c, 0, 59, 0
3, 17880, Note_on_c, 0, 61, 18
3, 18000, Note_on_c, 0, 61, 0
3, 18000, Note_on_c, 0, 68, 18
3, 18120, Note_on_c, 0, 68, 0
3, 18120, Note_on_c, 0, 71, 18
3, 18240, Note_on_c, 0, 71, 0
3, 18240, Note_on_c, 0, 59, 24
3, 18360, Note_on_c, 0, 59, 0
3, 18360, Note_on_c, 0, 61, 18
3, 18480, Note_on_c, 0, 61, 0
3, 18480, Note_on_c, 0, 68, 18
3, 18600, Note_on_c, 0, 68, 0
3, 18600, Note_on_c, 0, 71, 18
3, 18720, Note_on_c, 0, 71, 0
3, 18720, Note_on_c, 0, 59, 31
3, 18840, Note_on_c, 0, 59, 0
3, 18840, Note_on_c, 0, 61, 26
3, 18960, Note_on_c, 0, 61, 0
3, 18960, Note_on_c, 0, 68, 25
3, 19080, Note_on_c, 0, 68, 0
3, 19080, Note_on_c, 0, 71, 23
3, 19200, Note_on_c, 0, 71, 0
3, 19200, Note_on_c, 0, 58, 29
3, 19320, Note_on_c, 0, 58, 0
3, 19320, Note_on_c, 0, 61, 25
3, 19440, Note_on_c, 0, 61, 0
3, 19440, Note_on_c, 0, 66, 29
3, 19560, Note_on_c, 0, 66, 0
3, 19560, Note_on_c, 0, 70, 25
3, 19680, Note_on_c, 0, 70, 0
3, 19680, Note_on_c, 0, 54, 32
3, 19800, Note_on_c, 0, 54, 0
3, 19800, Note_on_c, 0, 61, 25
3, 19920, Note_on_c, 0, 61, 0
3, 19920, Note_on_c, 0, 64, 25
3, 20040, Note_on_c, 0, 64, 0
3, 20040, Note_on_c, 0, 66, 23
3, 20160, Note_on_c, 0, 66, 0
3, 20160, Note_on_c, 0, 54, 29
3, 20280, Note_on_c, 0, 54, 0
3, 20280, Note_on_c, 0, 59, 25
3, 20400, Note_on_c, 0, 59, 0
3, 20400, Note_on_c, 0, 63, 25
3, 20520, Note_on_c, 0, 63, 0
3, 20520, Note_on_c, 0, 66, 24
3, 20640, Note_on_c, 0, 66, 0
3, 20760, Note_on_c, 0, 56, 26
3, 20880, Note_on_c, 0, 56, 0
3, 20880, Note_on_c, 0, 61, 25
3, 21000, Note_on_c, 0, 61, 0
3, 21000, Note_on_c, 0, 64, 23
3, 21120, Note_on_c, 0, 64, 0
3, 21240, Note_on_c, 0, 59, 26
3, 21360, Note_on_c, 0, 59, 0
3, 21360, Note_on_c, 0, 63, 26
3, 21480, Note_on_c, 0, 63, 0
3, 21480, Note_on_c, 0, 66, 25
3, 21600, Note_on_c, 0, 66, 0
3, 21600, Note_on_c, 0, 54, 32
3, 21720, Note_on_c, 0, 54, 0
3, 21720, Note_on_c, 0, 59, 25
3, 21840, Note_on_c, 0, 59, 0
3, 21840, Note_on_c, 0, 63, 25
3, 21960, Note_on_c, 0, 63, 0
3, 21960, Note_on_c, 0, 66, 23
3, 22080, Note_on_c, 0, 66, 0
3, 22080, Note_on_c, 0, 54, 29
3, 22200, Note_on_c, 0, 54, 0
3, 22200, Note_on_c, 0, 61, 31
3, 22320, Note_on_c, 0, 61, 0
3, 22320, Note_on_c, 0, 64, 38
3, 22440, Note_on_c, 0, 64, 0
3, 22440, Note_on_c, 0, 66, 44
3, 22560, Note_on_c, 0, 66, 0
3, 22560, Note_on_c, 0, 54, 49
3, 22680, Note_on_c, 0, 54, 0
3, 22680, Note_on_c, 0, 61, 33
3, 22800, Note_on_c, 0, 61, 0
3, 22800, Note_on_c, 0, 64, 41
3, 22920, Note_on_c, 0, 64, 0
3, 22920, Note_on_c, 0, 66, 31
3, 23040, Note_on_c, 0, 66, 0
3, 23040, Note_on_c, 0, 54, 32
3, 23160, Note_on_c, 0, 54, 0
3, 23160, Note_on_c, 0, 60, 26
3, 23280, Note_on_c, 0, 60, 0
3, 23280, Note_on_c, 0, 63, 30
3, 23400, Note_on_c, 0, 63, 0
3, 23400, Note_on_c, 0, 66, 38
3, 23520, Note_on_c, 0, 66, 0
3, 23520, Note_on_c, 0, 54, 41
3, 23640, Note_on_c, 0, 54, 0
3, 23640, Note_on_c, 0, 60, 25
3, 23760, Note_on_c, 0, 60, 0
3, 23760, Note_on_c, 0, 63, 25
3, 23880, Note_on_c, 0, 63, 0
3, 23880, Note_on_c, 0, 66, 23
3, 24000, Note_on_c, 0, 66, 0
3, 24000, Note_on_c, 0, 52, 29
3, 24120, Note_on_c, 0, 52, 0
3, 24120, Note_on_c, 0, 56, 25
3, 24240, Note_on_c, 0, 56, 0
3, 24240, Note_on_c, 0, 61, 25
3, 24360, Note_on_c, 0, 61, 0
3, 24360, Note_on_c, 0, 64, 24
3, 24470, Note_on_c, 0, 64, 0
3, 24480, Note_on_c, 0, 52, 31
3, 24600, Note_on_c, 0, 52, 0
3, 24600, Note_on_c, 0, 56, 30
3, 24720, Note_on_c, 0, 56, 0
3, 24720, Note_on_c, 0, 61, 33
3, 24840, Note_on_c, 0, 61, 0
3, 24840, Note_on_c, 0, 64, 38
3, 24960, Note_on_c, 0, 64, 0
3, 24960, Note_on_c, 0, 52, 45
3, 25080, Note_on_c, 0, 52, 0
3, 25080, Note_on_c, 0, 58, 30
3, 25200, Note_on_c, 0, 58, 0
3, 25200, Note_on_c, 0, 64, 32
3, 25320, Note_on_c, 0, 64, 0
3, 25320, Note_on_c, 0, 66, 41
3, 25440, Note_on_c, 0, 66, 0
3, 25440, Note_on_c, 0, 52, 46
3, 25560, Note_on_c, 0, 52, 0
3, 25560, Note_on_c, 0, 59, 33
3, 25680, Note_on_c, 0, 59, 0
3, 25680, Note_on_c, 0, 64, 43
3, 25800, Note_on_c, 0, 64, 0
3, 25800, Note_on_c, 0, 66, 53
3, 25920, Note_on_c, 0, 66, 0
3, 25920, Note_on_c, 0, 54, 58
3, 26040, Note_on_c, 0, 54, 0
3, 26040, Note_on_c, 0, 61, 40
3, 26160, Note_on_c, 0, 61, 0
3, 26160, Note_on_c, 0, 64, 46
3, 26280, Note_on_c, 0, 64, 0
3, 26280, Note_on_c, 0, 66, 38
3, 26400, Note_on_c, 0, 66, 0
3, 26400, Note_on_c, 0, 54, 40
3, 26520, Note_on_c, 0, 54, 0
3, 26520, Note_on_c, 0, 58, 32
3, 26640, Note_on_c, 0, 58, 0
3, 26640, Note_on_c, 0, 64, 31
3, 26760, Note_on_c, 0, 64, 0
3, 26760, Note_on_c, 0, 66, 28
3, 26880, Note_on_c, 0, 66, 0
3, 26880, Note_on_c, 0, 54, 36
3, 27000, Note_on_c, 0, 54, 0
3, 27000, Note_on_c, 0, 59, 32
3, 27120, Note_on_c, 0, 59, 0
3, 27120, Note_on_c, 0, 63, 32
3, 27240, Note_on_c, 0, 63, 0
3, 27240, Note_on_c, 0, 66, 31
3, 27360, Note_on_c, 0, 66, 0
3, 27360, Note_on_c, 0, 54, 40
3, 27480, Note_on_c, 0, 54, 0
3, 27480, Note_on_c, 0, 59, 31
3, 27600, Note_on_c, 0, 59, 0
3, 27600, Note_on_c, 0, 63, 31
3, 27720, Note_on_c, 0, 63, 0
3, 27720, Note_on_c, 0, 66, 28
3, 27840, Note_on_c, 0, 66, 0
3, 27840, Note_on_c, 0, 51, 36
3, 27960, Note_on_c, 0, 51, 0
3, 27960, Note_on_c, 0, 54, 31
3, 28080, Note_on_c, 0, 54, 0
3, 28080, Note_on_c, 0, 59, 31
3, 28200, Note_on_c, 0, 59, 0
3, 28200, Note_on_c, 0, 63, 30
3, 28320, Note_on_c, 0, 63, 0
3, 28320, Note_on_c, 0, 47, 31
3, 28440, Note_on_c, 0, 47, 0
3, 28440, Note_on_c, 0, 51, 26
3, 28560, Note_on_c, 0, 51, 0
3, 28560, Note_on_c, 0, 54, 32
3, 28680, Note_on_c, 0, 54, 0
3, 28680, Note_on_c, 0, 59, 34
3, 28800, Note_on_c, 0, 59, 0
3, 28800, Note_on_c, 0, 47, 40
3, 28920, Note_on_c, 0, 47, 0
3, 28920, Note_on_c, 0, 52, 26
3, 29040, Note_on_c, 0, 52, 0
3, 29040, Note_on_c, 0, 56, 26
3, 29160, Note_on_c, 0, 56, 0
3, 29160, Note_on_c, 0, 59, 25
3, 29280, Note_on_c, 0, 59, 0
3, 29280, Note_on_c, 0, 47, 32
3, 29400, Note_on_c, 0, 47, 0
3, 29400, Note_on_c, 0, 51, 25
3, 29520, Note_on_c, 0, 51, 0
3, 29520, Note_on_c, 0, 57, 25
3, 29640, Note_on_c, 0, 57, 0
3, 29640, Note_on_c, 0, 59, 23
3, 29760, Note_on_c, 0, 59, 0
3, 29760, Note_on_c, 0, 47, 33
3, 29880, Note_on_c, 0, 47, 0
3, 29880, Note_on_c, 0, 52, 27
3, 30000, Note_on_c, 0, 52, 0
3, 30000, Note_on_c, 0, 56, 34
3, 30120, Note_on_c, 0, 56, 0
3, 30120, Note_on_c, 0, 59, 44
3, 30240, Note_on_c, 0, 59, 0
3, 30240, Note_on_c, 0, 54, 53
3, 30360, Note_on_c, 0, 54, 0
3, 30360, Note_on_c, 0, 61, 31
3, 30480, Note_on_c, 0, 61, 0
3, 30480, Note_on_c, 0, 64, 39
3, 30600, Note_on_c, 0, 64, 0
3, 30600, Note_on_c, 0, 66, 23
3, 30720, Note_on_c, 0, 66, 0
3, 30720, Note_on_c, 0, 54, 35
3, 30840, Note_on_c, 0, 54, 0
3, 30840, Note_on_c, 0, 59, 26
3, 30960, Note_on_c, 0, 59, 0
3, 30960, Note_on_c, 0, 63, 26
3, 31080, Note_on_c, 0, 63, 0
3, 31080, Note_on_c, 0, 66, 25
3, 31200, Note_on_c, 0, 66, 0
3, 31200, Note_on_c, 0, 54, 32
3, 31320, Note_on_c, 0, 54, 0
3, 31320, Note_on_c, 0, 58, 25
3, 31440, Note_on_c, 0, 58, 0
3, 31440, Note_on_c, 0, 64, 25
3, 31560, Note_on_c, 0, 64, 0
3, 31560, Note_on_c, 0, 66, 23
3, 31680, Note_on_c, 0, 66, 0
3, 31680, Note_on_c, 0, 54, 33
3, 31800, Note_on_c, 0, 54, 0
3, 31800, Note_on_c, 0, 59, 27
3, 31920, Note_on_c, 0, 59, 0
3, 31920, Note_on_c, 0, 63, 33
3, 32040, Note_on_c, 0, 63, 0
3, 32040, Note_on_c, 0, 66, 40
3, 32160, Note_on_c, 0, 66, 0
3, 32160, Note_on_c, 0, 56, 46
3, 32280, Note_on_c, 0, 56, 0
3, 32280, Note_on_c, 0, 59, 26
3, 32400, Note_on_c, 0, 59, 0
3, 32400, Note_on_c, 0, 61, 25
3, 32520, Note_on_c, 0, 61, 0
3, 32520, Note_on_c, 0, 68, 23
3, 32640, Note_on_c, 0, 68, 0
3, 32760, Note_on_c, 0, 57, 26
3, 32880, Note_on_c, 0, 57, 0
3, 32880, Note_on_c, 0, 61, 26
3, 33000, Note_on_c, 0, 61, 0
3, 33000, Note_on_c, 0, 64, 25
3, 33120, Note_on_c, 0, 64, 0
3, 33120, Note_on_c, 0, 54, 32
3, 33240, Note_on_c, 0, 54, 0
3, 33240, Note_on_c, 0, 57, 25
3, 33360, Note_on_c, 0, 57, 0
3, 33360, Note_on_c, 0, 59, 25
3, 33480, Note_on_c, 0, 59, 0
3, 33480, Note_on_c, 0, 63, 23
3, 33600, Note_on_c, 0, 63, 0
3, 33720, Note_on_c, 0, 56, 25
3, 33840, Note_on_c, 0, 56, 0
3, 33840, Note_on_c, 0, 59, 25
3, 33960, Note_on_c, 0, 59, 0
3, 33960, Note_on_c, 0, 64, 24
3, 34080, Note_on_c, 0, 64, 0
3, 34080, Note_on_c, 0, 52, 31
3, 34200, Note_on_c, 0, 52, 0
3, 34200, Note_on_c, 0, 54, 26
3, 34320, Note_on_c, 0, 54, 0
3, 34320, Note_on_c, 0, 61, 25
3, 34440, Note_on_c, 0, 61, 0
3, 34440, Note_on_c, 0, 64, 23
3, 34560, Note_on_c, 0, 64, 0
3, 34560, Note_on_c, 0, 52, 35
3, 34680, Note_on_c, 0, 52, 0
3, 34680, Note_on_c, 0, 56, 26
3, 34800, Note_on_c, 0, 56, 0
3, 34800, Note_on_c, 0, 59, 26
3, 34920, Note_on_c, 0, 59, 0
3, 34920, Note_on_c, 0, 64, 25
3, 35040, Note_on_c, 0, 64, 0
3, 35040, Note_on_c, 0, 52, 32
3, 35160, Note_on_c, 0, 52, 0
3, 35160, Note_on_c, 0, 56, 25
3, 35280, Note_on_c, 0, 56, 0
3, 35280, Note_on_c, 0, 59, 25
3, 35400, Note_on_c, 0, 59, 0
3, 35400, Note_on_c, 0, 64, 23
3, 35520, Note_on_c, 0, 64, 0
3, 35520, Note_on_c, 0, 51, 29
3, 35640, Note_on_c, 0, 51, 0
3, 35640, Note_on_c, 0, 54, 25
3, 35760, Note_on_c, 0, 54, 0
3, 35760, Note_on_c, 0, 59, 25
3, 35880, Note_on_c, 0, 59, 0
3, 35880, Note_on_c, 0, 63, 24
3, 36000, Note_on_c, 0, 63, 0
3, 36000, Note_on_c, 0, 47, 31
3, 36120, Note_on_c, 0, 47, 0
3, 36120, Note_on_c, 0, 54, 27
3, 36240, Note_on_c, 0, 54, 0
3, 36240, Note_on_c, 0, 57, 29
3, 36360, Note_on_c, 0, 57, 0
3, 36360, Note_on_c, 0, 59, 32
3, 36480, Note_on_c, 0, 59, 0
3, 36480, Note_on_c, 0, 47, 40
3, 36600, Note_on_c, 0, 47, 0
3, 36600, Note_on_c, 0, 52, 26
3, 36720, Note_on_c, 0, 52, 0
3, 36720, Note_on_c, 0, 56, 29
3, 36840, Note_on_c, 0, 56, 0
3, 36840, Note_on_c, 0, 59, 31
3, 36960, Note_on_c, 0, 59, 0
3, 36960, Note_on_c, 0, 47, 38
3, 37080, Note_on_c, 0, 47, 0
3, 37080, Note_on_c, 0, 51, 25
3, 37200, Note_on_c, 0, 51, 0
3, 37200, Note_on_c, 0, 57, 30
3, 37320, Note_on_c, 0, 57, 0
3, 37320, Note_on_c, 0, 59, 26
3, 37440, Note_on_c, 0, 59, 0
3, 37440, Note_on_c, 0, 47, 33
3, 37560, Note_on_c, 0, 47, 0
3, 37560, Note_on_c, 0, 52, 29
3, 37680, Note_on_c, 0, 52, 0
3, 37680, Note_on_c, 0, 56, 31
3, 37800, Note_on_c, 0, 56, 0
3, 37800, Note_on_c, 0, 59, 36
3, 37920, Note_on_c, 0, 59, 0
3, 37920, Note_on_c, 0, 54, 42
3, 38040, Note_on_c, 0, 54, 0
3, 38040, Note_on_c, 0, 61, 30
3, 38160, Note_on_c, 0, 61, 0
3, 38160, Note_on_c, 0, 64, 32
3, 38280, Note_on_c, 0, 64, 0
3, 38280, Note_on_c, 0, 66, 29
3, 38400, Note_on_c, 0, 66, 0
3, 38400, Note_on_c, 0, 54, 35
3, 38520, Note_on_c, 0, 54, 0
3, 38520, Note_on_c, 0, 59, 26
3, 38640, Note_on_c, 0, 59, 0
3, 38640, Note_on_c, 0, 63, 26
3, 38760, Note_on_c, 0, 63, 0
3, 38760, Note_on_c, 0, 66, 25
3, 38880, Note_on_c, 0, 66, 0
3, 38880, Note_on_c, 0, 54, 32
3, 39000, Note_on_c, 0, 54, 0
3, 39000, Note_on_c, 0, 58, 25
3, 39120, Note_on_c, 0, 58, 0
3, 39120, Note_on_c, 0, 64, 25
3, 39240, Note_on_c, 0, 64, 0
3, 39240, Note_on_c, 0, 66, 23
3, 39360, Note_on_c, 0, 66, 0
3, 39360, Note_on_c, 0, 54, 33
3, 39480, Note_on_c, 0, 54, 0
3, 39480, Note_on_c, 0, 59, 38
3, 39600, Note_on_c, 0, 59, 0
3, 39600, Note_on_c, 0, 63, 39
3, 39720, Note_on_c, 0, 63, 0
3, 39720, Note_on_c, 0, 66, 48
3, 39840, Note_on_c, 0, 66, 0
3, 39840, Note_on_c, 0, 59, 54
3, 39960, Note_on_c, 0, 59, 0
3, 39960, Note_on_c, 0, 61, 35
3, 40080, Note_on_c, 0, 61, 0
3, 40080, Note_on_c, 0, 68, 40
3, 40200, Note_on_c, 0, 68, 0
3, 40200, Note_on_c, 0, 71, 33
3, 40320, Note_on_c, 0, 71, 0
3, 40320, Note_on_c, 0, 59, 42
3, 40440, Note_on_c, 0, 59, 0
3, 40440, Note_on_c, 0, 61, 29
3, 40560, Note_on_c, 0, 61, 0
3, 40560, Note_on_c, 0, 68, 29
3, 40680, Note_on_c, 0, 68, 0
3, 40680, Note_on_c, 0, 71, 29
3, 40800, Note_on_c, 0, 71, 0
3, 40800, Note_on_c, 0, 59, 38
3, 40920, Note_on_c, 0, 59, 0
3, 40920, Note_on_c, 0, 61, 26
3, 41040, Note_on_c, 0, 61, 0
3, 41040, Note_on_c, 0, 68, 26
3, 41160, Note_on_c, 0, 68, 0
3, 41160, Note_on_c, 0, 71, 26
3, 41280, Note_on_c, 0, 71, 0
3, 41280, Note_on_c, 0, 59, 35
3, 41400, Note_on_c, 0, 59, 0
3, 41400, Note_on_c, 0, 61, 27
3, 41520, Note_on_c, 0, 61, 0
3, 41520, Note_on_c, 0, 68, 27
3, 41640, Note_on_c, 0, 68, 0
3, 41640, Note_on_c, 0, 71, 27
3, 41760, Note_on_c, 0, 71, 0
3, 41760, Note_on_c, 0, 59, 35
3, 41880, Note_on_c, 0, 59, 0
3, 41880, Note_on_c, 0, 61, 18
3, 42000, Note_on_c, 0, 61, 0
3, 42000, Note_on_c, 0, 68, 19
3, 42120, Note_on_c, 0, 68, 0
3, 42120, Note_on_c, 0, 71, 20
3, 42240, Note_on_c, 0, 71, 0
3, 42240, Note_on_c, 0, 59, 29
3, 42360, Note_on_c, 0, 59, 0
3, 42360, Note_on_c, 0, 61, 20
3, 42480, Note_on_c, 0, 61, 0
3, 42480, Note_on_c, 0, 68, 20
3, 42600, Note_on_c, 0, 68, 0
3, 42600, Note_on_c, 0, 71, 20
3, 42720, Note_on_c, 0, 71, 0
3, 42720, Note_on_c, 0, 59, 26
3, 42840, Note_on_c, 0, 59, 0
3, 42840, Note_on_c, 0, 61, 18
3, 42960, Note_on_c, 0, 61, 0
3, 42960, Note_on_c, 0, 68, 18
3, 43080, Note_on_c, 0, 68, 0
3, 43080, Note_on_c, 0, 71, 18
3, 43200, Note_on_c, 0, 71, 0
3, 43200, Note_on_c, 0, 59, 24
3, 43320, Note_on_c, 0, 59, 0
3, 43320, Note_on_c, 0, 61, 18
3, 43440, Note_on_c, 0, 61, 0
3, 43440, Note_on_c, 0, 68, 18
3, 43560, Note_on_c, 0, 68, 0
3, 43560, Note_on_c, 0, 71, 18
3, 43680, Note_on_c, 0, 71, 0
3, 43680, Note_on_c, 0, 59, 31
3, 43800, Note_on_c, 0, 59, 0
3, 43800, Note_on_c, 0, 61, 26
3, 43920, Note_on_c, 0, 61, 0
3, 43920, Note_on_c, 0, 68, 25
3, 44040, Note_on_c, 0, 68, 0
3, 44040, Note_on_c, 0, 71, 23
3, 44160, Note_on_c, 0, 71, 0
3, 44160, Note_on_c, 0, 58, 29
3, 44280, Note_on_c, 0, 58, 0
3, 44280, Note_on_c, 0, 61, 25
3, 44400, Note_on_c, 0, 61, 0
3, 44400, Note_on_c, 0, 66, 29
3, 44520, Note_on_c, 0, 66, 0
3, 44520, Note_on_c, 0, 70, 25
3, 44640, Note_on_c, 0, 70, 0
3, 44640, Note_on_c, 0, 54, 32
3, 44760, Note_on_c, 0, 54, 0
3, 44760, Note_on_c, 0, 61, 25
3, 44880, Note_on_c, 0, 61, 0
3, 44880, Note_on_c, 0, 64, 25
3, 45000, Note_on_c, 0, 64, 0
3, 45000, Note_on_c, 0, 66, 23
3, 45120, Note_on_c, 0, 66, 0
3, 45120, Note_on_c, 0, 54, 29
3, 45240, Note_on_c, 0, 54, 0
3, 45240, Note_on_c, 0, 59, 25
3, 45360, Note_on_c, 0, 59, 0
3, 45360, Note_on_c, 0, 63, 25
3, 45480, Note_on_c, 0, 63, 0
3, 45480, Note_on_c, 0, 66, 24
3, 45600, Note_on_c, 0, 66, 0
3, 45720, Note_on_c, 0, 56, 26
3, 45840, Note_on_c, 0, 56, 0
3, 45840, Note_on_c, 0, 61, 25
3, 45960, Note_on_c, 0, 61, 0
3, 45960, Note_on_c, 0, 64, 23
3, 46080, Note_on_c, 0, 64, 0
3, 46200, Note_on_c, 0, 59, 26
3, 46320, Note_on_c, 0, 59, 0
3, 46320, Note_on_c, 0, 63, 26
3, 46440, Note_on_c, 0, 63, 0
3, 46440, Note_on_c, 0, 66, 25
3, 46560, Note_on_c, 0, 66, 0
3, 46560, Note_on_c, 0, 54, 32
3, 46680, Note_on_c, 0, 54, 0
3, 46680, Note_on_c, 0, 59, 25
3, 46800, Note_on_c, 0, 59, 0
3, 46800, Note_on_c, 0, 63, 25
3, 46920, Note_on_c, 0, 63, 0
3, 46920, Note_on_c, 0, 66, 23
3, 47040, Note_on_c, 0, 66, 0
3, 47040, Note_on_c, 0, 54, 29
3, 47160, Note_on_c, 0, 54, 0
3, 47160, Note_on_c, 0, 61, 31
3, 47280, Note_on_c, 0, 61, 0
3, 47280, Note_on_c, 0, 64, 38
3, 47400, Note_on_c, 0, 64, 0
3, 47400, Note_on_c, 0, 66, 44
3, 47520, Note_on_c, 0, 66, 0
3, 47520, Note_on_c, 0, 54, 49
3, 47640, Note_on_c, 0, 54, 0
3, 47640, Note_on_c, 0, 61, 33
3, 47760, Note_on_c, 0, 61, 0
3, 47760, Note_on_c, 0, 64, 41
3, 47880, Note_on_c, 0, 64, 0
3, 47880, Note_on_c, 0, 66, 31
3, 48000, Note_on_c, 0, 66, 0
3, 48000, Note_on_c, 0, 54, 32
3, 48120, Note_on_c, 0, 54, 0
3, 48120, Note_on_c, 0, 60, 26
3, 48240, Note_on_c, 0, 60, 0
3, 48240, Note_on_c, 0, 63, 30
3, 48360, Note_on_c, 0, 63, 0
3, 48360, Note_on_c, 0, 66, 38
3, 48480, Note_on_c, 0, 66, 0
3, 48480, Note_on_c, 0, 54, 41
3, 48600, Note_on_c, 0, 54, 0
3, 48600, Note_on_c, 0, 60, 25
3, 48720, Note_on_c, 0, 60, 0
3, 48720, Note_on_c, 0, 63, 25
3, 48840, Note_on_c, 0, 63, 0
3, 48840, Note_on_c, 0, 66, 23
3, 48960, Note_on_c, 0, 66, 0
3, 48960, Note_on_c, 0, 52, 29
3, 49080, Note_on_c, 0, 52, 0
3, 49080, Note_on_c, 0, 56, 25
3, 49200, Note_on_c, 0, 56, 0
3, 49200, Note_on_c, 0, 61, 25
3, 49320, Note_on_c, 0, 61, 0
3, 49320, Note_on_c, 0, 64, 24
3, 49430, Note_on_c, 0, 64, 0
3, 49440, Note_on_c, 0, 52, 31
3, 49560, Note_on_c, 0, 52, 0
3, 49560, Note_on_c, 0, 56, 30
3, 49680, Note_on_c, 0, 56, 0
3, 49680, Note_on_c, 0, 61, 33
3, 49800, Note_on_c, 0, 61, 0
3, 49800, Note_on_c, 0, 64, 38
3, 49920, Note_on_c, 0, 64, 0
3, 49920, Note_on_c, 0, 52, 45
3, 50040, Note_on_c, 0, 52, 0
3, 50040, Note_on_c, 0, 58, 30
3, 50160, Note_on_c, 0, 58, 0
3, 50160, Note_on_c, 0, 64, 32
3, 50280, Note_on_c, 0, 64, 0
3, 50280, Note_on_c, 0, 66, 41
3, 50400, Note_on_c, 0, 66, 0
3, 50400, Note_on_c, 0, 52, 46
3, 50520, Note_on_c, 0, 52, 0
3, 50520, Note_on_c, 0, 59, 33
3, 50640, Note_on_c, 0, 59, 0
3, 50640, Note_on_c, 0, 64, 43
3, 50760, Note_on_c, 0, 64, 0
3, 50760, Note_on_c, 0, 66, 53
3, 50880, Note_on_c, 0, 66, 0
3, 50880, Note_on_c, 0, 54, 58
3, 51000, Note_on_c, 0, 54, 0
3, 51000, Note_on_c, 0, 61, 40
3, 51120, Note_on_c, 0, 61, 0
3, 51120, Note_on_c, 0, 64, 46
3, 51240, Note_on_c, 0, 64, 0
3, 51240, Note_on_c, 0, 66, 38
3, 51360, Note_on_c, 0, 66, 0
3, 51360, Note_on_c, 0, 54, 40
3, 51480, Note_on_c, 0, 54, 0
3, 51480, Note_on_c, 0, 58, 32
3, 51600, Note_on_c, 0, 58, 0
3, 51600, Note_on_c, 0, 64, 31
3, 51720, Note_on_c, 0, 64, 0
3, 51720, Note_on_c, 0, 66, 28
3, 51840, Note_on_c, 0, 66, 0
3, 51840, Note_on_c, 0, 54, 36
3, 51960, Note_on_c, 0, 54, 0
3, 51960, Note_on_c, 0, 59, 32
3, 52080, Note_on_c, 0, 59, 0
3, 52080, Note_on_c, 0, 63, 32
3, 52200, Note_on_c, 0, 63, 0
3, 52200, Note_on_c, 0, 66, 31
3, 52320, Note_on_c, 0, 66, 0
3, 52320, Note_on_c, 0, 54, 40
3, 52440, Note_on_c, 0, 54, 0
3, 52440, Note_on_c, 0, 59, 31
3, 52560, Note_on_c, 0, 59, 0
3, 52560, Note_on_c, 0, 63, 31
3, 52680, Note_on_c, 0, 63, 0
3, 52680, Note_on_c, 0, 66, 28
3, 52800, Note_on_c, 0, 66, 0
3, 52800, Note_on_c, 0, 51, 36
3, 52920, Note_on_c, 0, 51, 0
3, 52920, Note_on_c, 0, 54, 31
3, 53040, Note_on_c, 0, 54, 0
3, 53040, Note_on_c, 0, 59, 31
3, 53160, Note_on_c, 0, 59, 0
3, 53160, Note_on_c, 0, 63, 30
3, 53280, Note_on_c, 0, 63, 0
3, 53280, Note_on_c, 0, 51, 31
3, 53400, Note_on_c, 0, 51, 0
3, 53400, Note_on_c, 0, 54, 26
3, 53520, Note_on_c, 0, 54, 0
3, 53520, Note_on_c, 0, 59, 32
3, 53640, Note_on_c, 0, 59, 0
3, 53640, Note_on_c, 0, 63, 34
3, 53760, Note_on_c, 0, 63, 0
3, 53760, Note_on_c, 0, 47, 40
3, 53880, Note_on_c, 0, 47, 0
3, 53880, Note_on_c, 0, 52, 26
3, 54000, Note_on_c, 0, 52, 0
3, 54000, Note_on_c, 0, 55, 26
3, 54120, Note_on_c, 0, 55, 0
3, 54120, Note_on_c, 0, 59, 26
3, 54240, Note_on_c, 0, 59, 0
3, 54240, Note_on_c, 0, 47, 33
3, 54360, Note_on_c, 0, 47, 0
3, 54360, Note_on_c, 0, 52, 26
3, 54480, Note_on_c, 0, 52, 0
3, 54480, Note_on_c, 0, 55, 27
3, 54600, Note_on_c, 0, 55, 0
3, 54600, Note_on_c, 0, 59, 25
3, 54720, Note_on_c, 0, 59, 0
3, 54720, Note_on_c, 0, 48, 36
3, 54840, Note_on_c, 0, 48, 0
3, 54840, Note_on_c, 0, 50, 30
3, 54960, Note_on_c, 0, 50, 0
3, 54960, Note_on_c, 0, 57, 38
3, 55080, Note_on_c, 0, 57, 0
3, 55080, Note_on_c, 0, 60, 51
3, 55200, Note_on_c, 0, 60, 0
3, 55320, Note_on_c, 0, 54, 36
3, 55440, Note_on_c, 0, 54, 0
3, 55440, Note_on_c, 0, 60, 46
3, 55560, Note_on_c, 0, 60, 0
3, 55560, Note_on_c, 0, 62, 27
3, 55680, Note_on_c, 0, 62, 0
3, 55680, Note_on_c, 0, 50, 49
3, 55800, Note_on_c, 0, 50, 0
3, 55800, Note_on_c, 0, 55, 32
3, 55920, Note_on_c, 0, 55, 0
3, 55920, Note_on_c, 0, 59, 32
3, 56040, Note_on_c, 0, 59, 0
3, 56040, Note_on_c, 0, 62, 31
3, 56160, Note_on_c, 0, 62, 0
3, 56160, Note_on_c, 0, 52, 41
3, 56280, Note_on_c, 0, 52, 0
3, 56280, Note_on_c, 0, 55, 32
3, 56400, Note_on_c, 0, 55, 0
3, 56400, Note_on_c, 0, 59, 33
3, 56520, Note_on_c, 0, 59, 0
3, 56520, Note_on_c, 0, 64, 30
3, 56640, Note_on_c, 0, 64, 0
3, 56640, Note_on_c, 0, 52, 44
3, 56760, Note_on_c, 0, 52, 0
3, 56760, Note_on_c, 0, 57, 36
3, 56880, Note_on_c, 0, 57, 0
3, 56880, Note_on_c, 0, 60, 46
3, 57000, Note_on_c, 0, 60, 0
3, 57000, Note_on_c, 0, 64, 42
3, 57120, Note_on_c, 0, 64, 0
3, 57120, Note_on_c, 0, 51, 46
3, 57240, Note_on_c, 0, 51, 0
3, 57240, Note_on_c, 0, 57, 44
3, 57360, Note_on_c, 0, 57, 0
3, 57360, Note_on_c, 0, 60, 55
3, 57480, Note_on_c, 0, 60, 0
3, 57480, Note_on_c, 0, 66, 33
3, 57600, Note_on_c, 0, 66, 0
3, 57600, Note_on_c, 0, 50, 58
3, 57720, Note_on_c, 0, 50, 0
3, 57720, Note_on_c, 0, 55, 38
3, 57840, Note_on_c, 0, 55, 0
3, 57840, Note_on_c, 0, 62, 38
3, 57960, Note_on_c, 0, 62, 0
3, 57960, Note_on_c, 0, 67, 37
3, 58080, Note_on_c, 0, 67, 0
3, 58080, Note_on_c, 0, 55, 48
3, 58200, Note_on_c, 0, 55, 0
3, 58200, Note_on_c, 0, 59, 38
3, 58320, Note_on_c, 0, 59, 0
3, 58320, Note_on_c, 0, 62, 38
3, 58440, Note_on_c, 0, 62, 0
3, 58440, Note_on_c, 0, 67, 35
3, 58560, Note_on_c, 0, 67, 0
3, 58560, Note_on_c, 0, 55, 52
3, 58680, Note_on_c, 0, 55, 0
3, 58680, Note_on_c, 0, 64, 45
3, 58800, Note_on_c, 0, 64, 0
3, 58800, Note_on_c, 0, 67, 54
3, 58920, Note_on_c, 0, 67, 0
3, 58920, Note_on_c, 0, 72, 63
3, 59040, Note_on_c, 0, 72, 0
3, 59040, Note_on_c, 0, 55, 56
3, 59160, Note_on_c, 0, 55, 0
3, 59160, Note_on_c, 0, 64, 52
3, 59280, Note_on_c, 0, 64, 0
3, 59280, Note_on_c, 0, 67, 56
3, 59400, Note_on_c, 0, 67, 0
3, 59400, Note_on_c, 0, 72, 39
3, 59520, Note_on_c, 0, 72, 0
3, 59520, Note_on_c, 0, 54, 52
3, 59640, Note_on_c, 0, 54, 0
3, 59640, Note_on_c, 0, 60, 45
3, 59760, Note_on_c, 0, 60, 0
3, 59760, Note_on_c, 0, 62, 54
3, 59880, Note_on_c, 0, 62, 0
3, 59880, Note_on_c, 0, 69, 50
3, 60000, Note_on_c, 0, 69, 0
3, 60000, Note_on_c, 0, 55, 56
3, 60120, Note_on_c, 0, 55, 0
3, 60120, Note_on_c, 0, 60, 52
3, 60240, Note_on_c, 0, 60, 0
3, 60240, Note_on_c, 0, 62, 56
3, 60360, Note_on_c, 0, 62, 0
3, 60360, Note_on_c, 0, 67, 39
3, 60480, Note_on_c, 0, 67, 0
3, 60480, Note_on_c, 0, 62, 62
3, 60480, Note_on_c, 0, 60, 52
3, 60480, Note_on_c, 0, 57, 52
3, 60480, Note_on_c, 0, 54, 52
3, 60960, Note_on_c, 0, 54, 0
3, 60960, Note_on_c, 0, 62, 0
3, 60960, Note_on_c, 0, 60, 0
3, 60960, Note_on_c, 0, 57, 0
3, 63480, Note_on_c, 0, 59, 26
3, 63600, Note_on_c, 0, 59, 0
3, 63600, Note_on_c, 0, 62, 26
3, 63720, Note_on_c, 0, 62, 0
3, 63720, Note_on_c, 0, 67, 25
3, 63840, Note_on_c, 0, 67, 0
3, 63840, Note_on_c, 0, 55, 32
3, 63960, Note_on_c, 0, 55, 0
3, 63960, Note_on_c, 0, 59, 25
3, 64080, Note_on_c, 0, 59, 0
3, 64080, Note_on_c, 0, 62, 25
3, 64200, Note_on_c, 0, 62, 0
3, 64200, Note_on_c, 0, 67, 23
3, 64320, Note_on_c, 0, 67, 0
3, 64320, Note_on_c, 0, 55, 33
3, 64440, Note_on_c, 0, 55, 0
3, 64440, Note_on_c, 0, 57, 27
3, 64560, Note_on_c, 0, 57, 0
3, 64560, Note_on_c, 0, 64, 34
3, 64680, Note_on_c, 0, 64, 0
3, 64680, Note_on_c, 0, 67, 44
3, 64800, Note_on_c, 0, 67, 0
3, 64800, Note_on_c, 0, 55, 53
3, 64920, Note_on_c, 0, 55, 0
3, 64920, Note_on_c, 0, 57, 31
3, 65040, Note_on_c, 0, 57, 0
3, 65040, Note_on_c, 0, 64, 39
3, 65160, Note_on_c, 0, 64, 0
3, 65160, Note_on_c, 0, 67, 23
3, 65280, Note_on_c, 0, 67, 0
3, 65280, Note_on_c, 0, 55, 35
3, 65400, Note_on_c, 0, 55, 0
3, 65400, Note_on_c, 0, 59, 26
3, 65520, Note_on_c, 0, 59, 0
3, 65520, Note_on_c, 0, 62, 26
3, 65640, Note_on_c, 0, 62, 0
3, 65640, Note_on_c, 0, 67, 25
3, 65760, Note_on_c, 0, 67, 0
3, 65760, Note_on_c, 0, 55, 32
3, 65880, Note_on_c, 0, 55, 0
3, 65880, Note_on_c, 0, 59, 25
3, 66000, Note_on_c, 0, 59, 0
3, 66000, Note_on_c, 0, 62, 25
3, 66120, Note_on_c, 0, 62, 0
3, 66120, Note_on_c, 0, 67, 23
3, 66240, Note_on_c, 0, 67, 0
3, 66240, Note_on_c, 0, 55, 33
3, 66360, Note_on_c, 0, 55, 0
3, 66360, Note_on_c, 0, 57, 27
3, 66480, Note_on_c, 0, 57, 0
3, 66480, Note_on_c, 0, 61, 33
3, 66600, Note_on_c, 0, 61, 0
3, 66600, Note_on_c, 0, 67, 40
3, 66720, Note_on_c, 0, 67, 0
3, 66720, Note_on_c, 0, 57, 46
3, 66840, Note_on_c, 0, 57, 0
3, 66840, Note_on_c, 0, 60, 26
3, 66960, Note_on_c, 0, 60, 0
3, 66960, Note_on_c, 0, 62, 25
3, 67080, Note_on_c, 0, 62, 0
3, 67080, Note_on_c, 0, 69, 23
3, 67200, Note_on_c, 0, 69, 0
3, 67320, Note_on_c, 0, 59, 26
3, 67440, Note_on_c, 0, 59, 0
3, 67440, Note_on_c, 0, 62, 26
3, 67560, Note_on_c, 0, 62, 0
3, 67560, Note_on_c, 0, 67, 25
3, 67680, Note_on_c, 0, 67, 0
3, 67680, Note_on_c, 0, 55, 32
3, 67800, Note_on_c, 0, 55, 0
3, 67800, Note_on_c, 0, 59, 25
3, 67920, Note_on_c, 0, 59, 0
3, 67920, Note_on_c, 0, 62, 25
3, 68040, Note_on_c, 0, 62, 0
3, 68040, Note_on_c, 0, 67, 23
3, 68160, Note_on_c, 0, 67, 0
3, 68160, Note_on_c, 0, 52, 33
3, 68280, Note_on_c, 0, 52, 0
3, 68280, Note_on_c, 0, 57, 27
3, 68400, Note_on_c, 0, 57, 0
3, 68400, Note_on_c, 0, 60, 33
3, 68520, Note_on_c, 0, 60, 0
3, 68520, Note_on_c, 0, 64, 31
3, 68640, Note_on_c, 0, 64, 0
3, 68640, Note_on_c, 0, 52, 37
3, 68760, Note_on_c, 0, 52, 0
3, 68760, Note_on_c, 0, 57, 26
3, 68880, Note_on_c, 0, 57, 0
3, 68880, Note_on_c, 0, 60, 25
3, 69000, Note_on_c, 0, 60, 0
3, 69000, Note_on_c, 0, 64, 23
3, 69120, Note_on_c, 0, 64, 0
3, 69120, Note_on_c, 0, 51, 32
3, 69240, Note_on_c, 0, 51, 0
3, 69240, Note_on_c, 0, 54, 26
3, 69360, Note_on_c, 0, 54, 0
3, 69360, Note_on_c, 0, 59, 26
3, 69480, Note_on_c, 0, 59, 0
3, 69480, Note_on_c, 0, 63, 25
3, 69600, Note_on_c, 0, 63, 0
3, 69600, Note_on_c, 0, 51, 32
3, 69720, Note_on_c, 0, 51, 0
3, 69720, Note_on_c, 0, 54, 25
3, 69840, Note_on_c, 0, 54, 0
3, 69840, Note_on_c, 0, 59, 25
3, 69960, Note_on_c, 0, 59, 0
3, 69960, Note_on_c, 0, 63, 23
3, 70080, Note_on_c, 0, 63, 0
3, 70080, Note_on_c, 0, 51, 33
3, 70200, Note_on_c, 0, 51, 0
3, 70200, Note_on_c, 0, 54, 27
3, 70320, Note_on_c, 0, 54, 0
3, 70320, Note_on_c, 0, 59, 26
3, 70440, Note_on_c, 0, 59, 0
3, 70440, Note_on_c, 0, 63, 26
3, 70560, Note_on_c, 0, 63, 0
3, 70560, Note_on_c, 0, 51, 30
3, 70680, Note_on_c, 0, 51, 0
3, 70680, Note_on_c, 0, 54, 26
3, 70800, Note_on_c, 0, 54, 0
3, 70800, Note_on_c, 0, 59, 25
3, 70920, Note_on_c, 0, 59, 0
3, 70920, Note_on_c, 0, 63, 22
3, 71040, Note_on_c, 0, 63, 0
3, 71040, Note_on_c, 0, 50, 32
3, 71160, Note_on_c, 0, 50, 0
3, 71160, Note_on_c, 0, 55, 19
3, 71280, Note_on_c, 0, 55, 0
3, 71280, Note_on_c, 0, 59, 19
3, 71400, Note_on_c, 0, 59, 0
3, 71400, Note_on_c, 0, 67, 18
3, 71520, Note_on_c, 0, 67, 0
3, 71520, Note_on_c, 0, 50, 24
3, 71640, Note_on_c, 0, 50, 0
3, 71640, Note_on_c, 0, 55, 18
3, 71760, Note_on_c, 0, 55, 0
3, 71760, Note_on_c, 0, 59, 18
3, 71880, Note_on_c, 0, 59, 0
3, 71880, Note_on_c, 0, 67, 17
3, 72000, Note_on_c, 0, 67, 0
3, 72000, Note_on_c, 0, 52, 24
3, 72120, Note_on_c, 0, 52, 0
3, 72120, Note_on_c, 0, 57, 20
3, 72240, Note_on_c, 0, 57, 0
3, 72240, Note_on_c, 0, 60, 24
3, 72360, Note_on_c, 0, 60, 0
3, 72360, Note_on_c, 0, 64, 23
3, 72480, Note_on_c, 0, 64, 0
3, 72480, Note_on_c, 0, 52, 27
3, 72600, Note_on_c, 0, 52, 0
3, 72600, Note_on_c, 0, 57, 19
3, 72720, Note_on_c, 0, 57, 0
3, 72720, Note_on_c, 0, 60, 18
3, 72840, Note_on_c, 0, 60, 0
3, 72840, Note_on_c, 0, 64, 17
3, 72960, Note_on_c, 0, 64, 0
3, 72960, Note_on_c, 0, 51, 24
3, 73080, Note_on_c, 0, 51, 0
3, 73080, Note_on_c, 0, 54, 19
3, 73200, Note_on_c, 0, 54, 0
3, 73200, Note_on_c, 0, 59, 19
3, 73320, Note_on_c, 0, 59, 0
3, 73320, Note_on_c, 0, 63, 18
3, 73440, Note_on_c, 0, 63, 0
3, 73440, Note_on_c, 0, 54, 25
3, 73560, Note_on_c, 0, 54, 0
3, 73560, Note_on_c, 0, 57, 19
3, 73680, Note_on_c, 0, 57, 0
3, 73680, Note_on_c, 0, 59, 19
3, 73800, Note_on_c, 0, 59, 0
3, 73800, Note_on_c, 0, 63, 27
3, 73920, Note_on_c, 0, 63, 0
3, 73920, Note_on_c, 0, 52, 31
3, 74040, Note_on_c, 0, 52, 0
3, 74040, Note_on_c, 0, 55, 27
3, 74160, Note_on_c, 0, 55, 0
3, 74160, Note_on_c, 0, 59, 30
3, 74280, Note_on_c, 0, 59, 0
3, 74280, Note_on_c, 0, 64, 32
3, 74400, Note_on_c, 0, 64, 0
3, 74400, Note_on_c, 0, 52, 34
3, 74520, Note_on_c, 0, 52, 0
3, 74520, Note_on_c, 0, 55, 30
3, 74640, Note_on_c, 0, 55, 0
3, 74640, Note_on_c, 0, 59, 32
3, 74760, Note_on_c, 0, 59, 0
3, 74760, Note_on_c, 0, 64, 34
3, 74880, Note_on_c, 0, 64, 0
3, 74880, Note_on_c, 0, 51, 35
3, 75000, Note_on_c, 0, 51, 0
3, 75000, Note_on_c, 0, 54, 26
3, 75120, Note_on_c, 0, 54, 0
3, 75120, Note_on_c, 0, 59, 26
3, 75240, Note_on_c, 0, 59, 0
3, 75240, Note_on_c, 0, 63, 25
3, 75360, Note_on_c, 0, 63, 0
3, 75360, Note_on_c, 0, 54, 32
3, 75480, Note_on_c, 0, 54, 0
3, 75480, Note_on_c, 0, 57, 25
3, 75600, Note_on_c, 0, 57, 0
3, 75600, Note_on_c, 0, 59, 25
3, 75720, Note_on_c, 0, 59, 0
3, 75720, Note_on_c, 0, 63, 23
3, 75840, Note_on_c, 0, 63, 0
3, 75840, Note_on_c, 0, 52, 33
3, 75960, Note_on_c, 0, 52, 0
3, 75960, Note_on_c, 0, 55, 27
3, 76080, Note_on_c, 0, 55, 0
3, 76080, Note_on_c, 0, 59, 33
3, 76200, Note_on_c, 0, 59, 0
3, 76200, Note_on_c, 0, 64, 40
3, 76320, Note_on_c, 0, 64, 0
3, 76320, Note_on_c, 0, 52, 34
3, 76440, Note_on_c, 0, 52, 0
3, 76440, Note_on_c, 0, 55, 30
3, 76560, Note_on_c, 0, 55, 0
3, 76560, Note_on_c, 0, 59, 32
3, 76680, Note_on_c, 0, 59, 0
3, 76680, Note_on_c, 0, 64, 34
3, 76800, Note_on_c, 0, 64, 0
3, 76800, Note_on_c, 0, 51, 35
3, 76920, Note_on_c, 0, 51, 0
3, 76920, Note_on_c, 0, 54, 26
3, 77040, Note_on_c, 0, 54, 0
3, 77040, Note_on_c, 0, 59, 26
3, 77160, Note_on_c, 0, 59, 0
3, 77160, Note_on_c, 0, 63, 25
3, 77280, Note_on_c, 0, 63, 0
3, 77280, Note_on_c, 0, 51, 32
3, 77400, Note_on_c, 0, 51, 0
3, 77400, Note_on_c, 0, 54, 25
3, 77520, Note_on_c, 0, 54, 0
3, 77520, Note_on_c, 0, 59, 25
3, 77640, Note_on_c, 0, 59, 0
3, 77640, Note_on_c, 0, 63, 23
3, 77760, Note_on_c, 0, 63, 0
3, 77760, Note_on_c, 0, 54, 33
3, 77880, Note_on_c, 0, 54, 0
3, 77880, Note_on_c, 0, 57, 27
3, 78000, Note_on_c, 0, 57, 0
3, 78000, Note_on_c, 0, 59, 33
3, 78120, Note_on_c, 0, 59, 0
3, 78120, Note_on_c, 0, 63, 40
3, 78240, Note_on_c, 0, 63, 0
3, 78240, Note_on_c, 0, 51, 43
3, 78360, Note_on_c, 0, 51, 0
3, 78360, Note_on_c, 0, 54, 36
3, 78480, Note_on_c, 0, 54, 0
3, 78480, Note_on_c, 0, 59, 44
3, 78600, Note_on_c, 0, 59, 0
3, 78600, Note_on_c, 0, 63, 47
3, 78720, Note_on_c, 0, 63, 0
3, 78720, Note_on_c, 0, 47, 56
3, 78840, Note_on_c, 0, 47, 0
3, 78840, Note_on_c, 0, 52, 37
3, 78960, Note_on_c, 0, 52, 0
3, 78960, Note_on_c, 0, 56, 38
3, 79080, Note_on_c, 0, 56, 0
3, 79080, Note_on_c, 0, 59, 38
3, 79200, Note_on_c, 0, 59, 0
3, 79200, Note_on_c, 0, 47, 50
3, 79320, Note_on_c, 0, 47, 0
3, 79320, Note_on_c, 0, 51, 43
3, 79440, Note_on_c, 0, 51, 0
3, 79440, Note_on_c, 0, 57, 46
3, 79560, Note_on_c, 0, 57, 0
3, 79560, Note_on_c, 0, 59, 48
3, 79680, Note_on_c, 0, 59, 0
3, 79680, Note_on_c, 0, 47, 59
3, 79800, Note_on_c, 0, 47, 0
3, 79800, Note_on_c, 0, 52, 48
3, 79920, Note_on_c, 0, 52, 0
3, 79920, Note_on_c, 0, 56, 63
3, 80040, Note_on_c, 0, 56, 0
3, 80040, Note_on_c, 0, 59, 61
3, 80160, Note_on_c, 0, 59, 0
3, 80160, Note_on_c, 0, 54, 74
3, 80280, Note_on_c, 0, 54, 0
3, 80280, Note_on_c, 0, 61, 43
3, 80400, Note_on_c, 0, 61, 0
3, 80400, Note_on_c, 0, 64, 54
3, 80520, Note_on_c, 0, 64, 0
3, 80520, Note_on_c, 0, 66, 32
3, 80640, Note_on_c, 0, 66, 0
3, 80640, Note_on_c, 0, 54, 49
3, 80760, Note_on_c, 0, 54, 0
3, 80760, Note_on_c, 0, 59, 36
3, 80880, Note_on_c, 0, 59, 0
3, 80880, Note_on_c, 0, 63, 36
3, 81000, Note_on_c, 0, 63, 0
3, 81000, Note_on_c, 0, 66, 35
3, 81120, Note_on_c, 0, 66, 0
3, 81120, Note_on_c, 0, 54, 44
3, 81240, Note_on_c, 0, 54, 0
3, 81240, Note_on_c, 0, 58, 35
3, 81360, Note_on_c, 0, 58, 0
3, 81360, Note_on_c, 0, 64, 35
3, 81480, Note_on_c, 0, 64, 0
3, 81480, Note_on_c, 0, 66, 32
3, 81600, Note_on_c, 0, 66, 0
3, 81600, Note_on_c, 0, 54, 46
3, 81720, Note_on_c, 0, 54, 0
3, 81720, Note_on_c, 0, 59, 37
3, 81840, Note_on_c, 0, 59, 0
3, 81840, Note_on_c, 0, 63, 46
3, 81960, Note_on_c, 0, 63, 0
3, 81960, Note_on_c, 0, 66, 56
3, 82080, Note_on_c, 0, 66, 0
3, 82080, Note_on_c, 0, 56, 64
3, 82200, Note_on_c, 0, 56, 0
3, 82200, Note_on_c, 0, 59, 48
3, 82320, Note_on_c, 0, 59, 0
3, 82320, Note_on_c, 0, 61, 51
3, 82440, Note_on_c, 0, 61, 0
3, 82440, Note_on_c, 0, 68, 38
3, 82560, Note_on_c, 0, 68, 0
3, 82560, Note_on_c, 0, 57, 49
3, 82680, Note_on_c, 0, 57, 0
3, 82680, Note_on_c, 0, 61, 46
3, 82800, Note_on_c, 0, 61, 0
3, 82800, Note_on_c, 0, 64, 49
3, 82920, Note_on_c, 0, 64, 0
3, 82920, Note_on_c, 0, 66, 45
3, 83040, Note_on_c, 0, 66, 0
3, 83040, Note_on_c, 0, 54, 57
3, 83160, Note_on_c, 0, 54, 0
3, 83160, Note_on_c, 0, 57, 45
3, 83280, Note_on_c, 0, 57, 0
3, 83280, Note_on_c, 0, 59, 45
3, 83400, Note_on_c, 0, 59, 0
3, 83400, Note_on_c, 0, 63, 41
3, 83520, Note_on_c, 0, 63, 0
3, 83640, Note_on_c, 0, 56, 45
3, 83760, Note_on_c, 0, 56, 0
3, 83760, Note_on_c, 0, 59, 45
3, 83880, Note_on_c, 0, 59, 0
3, 83880, Note_on_c, 0, 64, 42
3, 84000, Note_on_c, 0, 64, 0
3, 84120, Note_on_c, 0, 52, 46
3, 84240, Note_on_c, 0, 52, 0
3, 84240, Note_on_c, 0, 57, 45
3, 84360, Note_on_c, 0, 57, 0
3, 84360, Note_on_c, 0, 64, 41
3, 84480, Note_on_c, 0, 64, 0
3, 84480, Note_on_c, 0, 52, 63
3, 84600, Note_on_c, 0, 52, 0
3, 84600, Note_on_c, 0, 56, 46
3, 84720, Note_on_c, 0, 56, 0
3, 84720, Note_on_c, 0, 59, 46
3, 84840, Note_on_c, 0, 59, 0
3, 84840, Note_on_c, 0, 64, 45
3, 84960, Note_on_c, 0, 64, 0
3, 84960, Note_on_c, 0, 52, 57
3, 85080, Note_on_c, 0, 52, 0
3, 85080, Note_on_c, 0, 56, 45
3, 85200, Note_on_c, 0, 56, 0
3, 85200, Note_on_c, 0, 59, 45
3, 85320, Note_on_c, 0, 59, 0
3, 85320, Note_on_c, 0, 64, 41
3, 85440, Note_on_c, 0, 64, 0
3, 85440, Note_on_c, 0, 51, 52
3, 85560, Note_on_c, 0, 51, 0
3, 85560, Note_on_c, 0, 54, 46
3, 85680, Note_on_c, 0, 54, 0
3, 85680, Note_on_c, 0, 59, 40
3, 85800, Note_on_c, 0, 59, 0
3, 85800, Note_on_c, 0, 63, 35
3, 85920, Note_on_c, 0, 63, 0
3, 85920, Note_on_c, 0, 51, 30
3, 86040, Note_on_c, 0, 51, 0
3, 86040, Note_on_c, 0, 54, 26
3, 86160, Note_on_c, 0, 54, 0
3, 86160, Note_on_c, 0, 59, 32
3, 86280, Note_on_c, 0, 59, 0
3, 86280, Note_on_c, 0, 63, 34
3, 86400, Note_on_c, 0, 63, 0
3, 86400, Note_on_c, 0, 52, 40
3, 86520, Note_on_c, 0, 52, 0
3, 86520, Note_on_c, 0, 56, 26
3, 86640, Note_on_c, 0, 56, 0
3, 86640, Note_on_c, 0, 59, 26
3, 86760, Note_on_c, 0, 59, 0
3, 86760, Note_on_c, 0, 64, 25
3, 86880, Note_on_c, 0, 64, 0
3, 86880, Note_on_c, 0, 52, 32
3, 87000, Note_on_c, 0, 52, 0
3, 87000, Note_on_c, 0, 56, 25
3, 87120, Note_on_c, 0, 56, 0
3, 87120, Note_on_c, 0, 59, 25
3, 87240, Note_on_c, 0, 59, 0
3, 87240, Note_on_c, 0, 64, 23
3, 87360, Note_on_c, 0, 64, 0
3, 87360, Note_on_c, 0, 52, 33
3, 87480, Note_on_c, 0, 52, 0
3, 87480, Note_on_c, 0, 54, 27
3, 87600, Note_on_c, 0, 54, 0
3, 87600, Note_on_c, 0, 61, 34
3, 87720, Note_on_c, 0, 61, 0
3, 87720, Note_on_c, 0, 64, 44
3, 87840, Note_on_c, 0, 64, 0
3, 87840, Note_on_c, 0, 52, 53
3, 87960, Note_on_c, 0, 52, 0
3, 87960, Note_on_c, 0, 54, 31
3, 88080, Note_on_c, 0, 54, 0
3, 88080, Note_on_c, 0, 61, 39
3, 88200, Note_on_c, 0, 61, 0
3, 88200, Note_on_c, 0, 64, 23
3, 88320, Note_on_c, 0, 64, 0
3, 88320, Note_on_c, 0, 52, 35
3, 88440, Note_on_c, 0, 52, 0
3, 88440, Note_on_c, 0, 56, 26
3, 88560, Note_on_c, 0, 56, 0
3, 88560, Note_on_c, 0, 59, 26
3, 88680, Note_on_c, 0, 59, 0
3, 88680, Note_on_c, 0, 64, 25
3, 88800, Note_on_c, 0, 64, 0
3, 88800, Note_on_c, 0, 52, 32
3, 88920, Note_on_c, 0, 52, 0
3, 88920, Note_on_c, 0, 56, 25
3, 89040, Note_on_c, 0, 56, 0
3, 89040, Note_on_c, 0, 59, 25
3, 89160, Note_on_c, 0, 59, 0
3, 89160, Note_on_c, 0, 64, 23
3, 89280, Note_on_c, 0, 64, 0
3, 89280, Note_on_c, 0, 52, 33
3, 89400, Note_on_c, 0, 52, 0
3, 89400, Note_on_c, 0, 54, 28
3, 89520, Note_on_c, 0, 54, 0
3, 89520, Note_on_c, 0, 58, 34
3, 89640, Note_on_c, 0, 58, 0
3, 89640, Note_on_c, 0, 64, 42
3, 89760, Note_on_c, 0, 64, 0
3, 89760, Note_on_c, 0, 54, 55
3, 89880, Note_on_c, 0, 54, 0
3, 89880, Note_on_c, 0, 58, 32
3, 90000, Note_on_c, 0, 58, 0
3, 90000, Note_on_c, 0, 64, 41
3, 90120, Note_on_c, 0, 64, 0
3, 90120, Note_on_c, 0, 66, 24
3, 90240, Note_on_c, 0, 66, 0
3, 90240, Note_on_c, 0, 56, 37
3, 90360, Note_on_c, 0, 56, 0
3, 90360, Note_on_c, 0, 59, 27
3, 90480, Note_on_c, 0, 59, 0
3, 90480, Note_on_c, 0, 64, 28
3, 90600, Note_on_c, 0, 64, 0
3, 90600, Note_on_c, 0, 68, 27
3, 90720, Note_on_c, 0, 68, 0
3, 90720, Note_on_c, 0, 56, 34
3, 90840, Note_on_c, 0, 56, 0
3, 90840, Note_on_c, 0, 59, 27
3, 90960, Note_on_c, 0, 59, 0
3, 90960, Note_on_c, 0, 64, 27
3, 91080, Note_on_c, 0, 64, 0
3, 91080, Note_on_c, 0, 68, 25
3, 91200, Note_on_c, 0, 68, 0
3, 91200, Note_on_c, 0, 57, 36
3, 91320, Note_on_c, 0, 57, 0
3, 91320, Note_on_c, 0, 59, 29
3, 91440, Note_on_c, 0, 59, 0
3, 91440, Note_on_c, 0, 64, 36
3, 91560, Note_on_c, 0, 64, 0
3, 91560, Note_on_c, 0, 66, 44
3, 91680, Note_on_c, 0, 66, 0
3, 91680, Note_on_c, 0, 57, 36
3, 91800, Note_on_c, 0, 57, 0
3, 91800, Note_on_c, 0, 59, 37
3, 91920, Note_on_c, 0, 59, 0
3, 91920, Note_on_c, 0, 63, 42
3, 92040, Note_on_c, 0, 63, 0
3, 92040, Note_on_c, 0, 66, 37
3, 92160, Note_on_c, 0, 66, 0
3, 92160, Note_on_c, 0, 54, 49
3, 92280, Note_on_c, 0, 54, 0
3, 92280, Note_on_c, 0, 57, 37
3, 92400, Note_on_c, 0, 57, 0
3, 92400, Note_on_c, 0, 59, 43
3, 92520, Note_on_c, 0, 59, 0
3, 92520, Note_on_c, 0, 63, 36
3, 92640, Note_on_c, 0, 63, 0
3, 92640, Note_on_c, 0, 54, 35
3, 92760, Note_on_c, 0, 54, 0
3, 92760, Note_on_c, 0, 57, 44
3, 92880, Note_on_c, 0, 57, 0
3, 92880, Note_on_c, 0, 59, 44
3, 93000, Note_on_c, 0, 59, 0
3, 93000, Note_on_c, 0, 63, 39
3, 93120, Note_on_c, 0, 63, 0
3, 93240, Note_on_c, 0, 56, 46
3, 93360, Note_on_c, 0, 56, 0
3, 93360, Note_on_c, 0, 59, 40
3, 93480, Note_on_c, 0, 59, 0
3, 93480, Note_on_c, 0, 64, 34
3, 93600, Note_on_c, 0, 64, 0
3, 93600, Note_on_c, 0, 52, 36
3, 93720, Note_on_c, 0, 52, 0
3, 93720, Note_on_c, 0, 56, 31
3, 93840, Note_on_c, 0, 56, 0
3, 93840, Note_on_c, 0, 59, 38
3, 93960, Note_on_c, 0, 59, 0
3, 93960, Note_on_c, 0, 64, 41
3, 94080, Note_on_c, 0, 64, 0
3, 94080, Note_on_c, 0, 52, 48
3, 94200, Note_on_c, 0, 52, 0
3, 94200, Note_on_c, 0, 56, 31
3, 94320, Note_on_c, 0, 56, 0
3, 94320, Note_on_c, 0, 59, 31
3, 94440, Note_on_c, 0, 59, 0
3, 94440, Note_on_c, 0, 64, 30
3, 94560, Note_on_c, 0, 64, 0
3, 94560, Note_on_c, 0, 52, 39
3, 94680, Note_on_c, 0, 52, 0
3, 94680, Note_on_c, 0, 56, 31
3, 94800, Note_on_c, 0, 56, 0
3, 94800, Note_on_c, 0, 59, 31
3, 94920, Note_on_c, 0, 59, 0
3, 94920, Note_on_c, 0, 64, 28
3, 95040, Note_on_c, 0, 64, 0
3, 95040, Note_on_c, 0, 52, 41
3, 95160, Note_on_c, 0, 52, 0
3, 95160, Note_on_c, 0, 54, 34
3, 95280, Note_on_c, 0, 54, 0
3, 95280, Note_on_c, 0, 61, 42
3, 95400, Note_on_c, 0, 61, 0
3, 95400, Note_on_c, 0, 64, 55
3, 95520, Note_on_c, 0, 64, 0
3, 95520, Note_on_c, 0, 51, 67
3, 95640, Note_on_c, 0, 51, 0
3, 95640, Note_on_c, 0, 54, 39
3, 95760, Note_on_c, 0, 54, 0
3, 95760, Note_on_c, 0, 63, 49
3, 95880, Note_on_c, 0, 63, 0
3, 95880, Note_on_c, 0, 66, 29
3, 96000, Note_on_c, 0, 66, 0
3, 96000, Note_on_c, 0, 52, 45
3, 96120, Note_on_c, 0, 52, 0
3, 96120, Note_on_c, 0, 56, 33
3, 96240, Note_on_c, 0, 56, 0
3, 96240, Note_on_c, 0, 59, 33
3, 96360, Note_on_c, 0, 59, 0
3, 96360, Note_on_c, 0, 64, 32
3, 96480, Note_on_c, 0, 64, 0
3, 96480, Note_on_c, 0, 52, 41
3, 96600, Note_on_c, 0, 52, 0
3, 96600, Note_on_c, 0, 56, 32
3, 96720, Note_on_c, 0, 56, 0
3, 96720, Note_on_c, 0, 59, 32
3, 96840, Note_on_c, 0, 59, 0
3, 96840, Note_on_c, 0, 64, 30
3, 96960, Note_on_c, 0, 64, 0
3, 96960, Note_on_c, 0, 52, 43
3, 97080, Note_on_c, 0, 52, 0
3, 97080, Note_on_c, 0, 54, 35
3, 97200, Note_on_c, 0, 54, 0
3, 97200, Note_on_c, 0, 61, 43
3, 97320, Note_on_c, 0, 61, 0
3, 97320, Note_on_c, 0, 64, 53
3, 97440, Note_on_c, 0, 64, 0
3, 97440, Note_on_c, 0, 54, 71
3, 97560, Note_on_c, 0, 54, 0
3, 97560, Note_on_c, 0, 58, 41
3, 97680, Note_on_c, 0, 58, 0
3, 97680, Note_on_c, 0, 64, 52
3, 97800, Note_on_c, 0, 64, 0
3, 97800, Note_on_c, 0, 66, 31
3, 97920, Note_on_c, 0, 66, 0
3, 97920, Note_on_c, 0, 54, 47
3, 98040, Note_on_c, 0, 54, 0
3, 98040, Note_on_c, 0, 59, 35
3, 98160, Note_on_c, 0, 59, 0
3, 98160, Note_on_c, 0, 63, 35
3, 98280, Note_on_c, 0, 63, 0
3, 98280, Note_on_c, 0, 66, 34
3, 98400, Note_on_c, 0, 66, 0
3, 98400, Note_on_c, 0, 58, 44
3, 98520, Note_on_c, 0, 58, 0
3, 98520, Note_on_c, 0, 61, 34
3, 98640, Note_on_c, 0, 61, 0
3, 98640, Note_on_c, 0, 64, 34
3, 98760, Note_on_c, 0, 64, 0
3, 98760, Note_on_c, 0, 67, 31
3, 98880, Note_on_c, 0, 67, 0
3, 98880, Note_on_c, 0, 59, 46
3, 99000, Note_on_c, 0, 59, 0
3, 99000, Note_on_c, 0, 63, 37
3, 99120, Note_on_c, 0, 63, 0
3, 99120, Note_on_c, 0, 66, 46
3, 99240, Note_on_c, 0, 66, 0
3, 99240, Note_on_c, 0, 69, 56
3, 99360, Note_on_c, 0, 69, 0
3, 99360, Note_on_c, 0, 63, 46
3, 99480, Note_on_c, 0, 63, 0
3, 99480, Note_on_c, 0, 66, 46
3, 99600, Note_on_c, 0, 66, 0
3, 99600, Note_on_c, 0, 69, 53
3, 99720, Note_on_c, 0, 69, 0
3, 99720, Note_on_c, 0, 71, 46
3, 99840, Note_on_c, 0, 71, 0
3, 99840, Note_on_c, 0, 59, 60
3, 99960, Note_on_c, 0, 59, 0
3, 99960, Note_on_c, 0, 64, 46
3, 100080, Note_on_c, 0, 64, 0
3, 100080, Note_on_c, 0, 68, 53
3, 100200, Note_on_c, 0, 68, 0
3, 100200, Note_on_c, 0, 71, 44
3, 100320, Note_on_c, 0, 71, 0
3, 100320, Note_on_c, 0, 60, 43
3, 100440, Note_on_c, 0, 60, 0
3, 100440, Note_on_c, 0, 64, 46
3, 100560, Note_on_c, 0, 64, 0
3, 100560, Note_on_c, 0, 68, 53
3, 100680, Note_on_c, 0, 68, 0
3, 100680, Note_on_c, 0, 72, 47
3, 100800, Note_on_c, 0, 72, 0
3, 100920, Note_on_c, 0, 61, 54
3, 101040, Note_on_c, 0, 61, 0
3, 101040, Note_on_c, 0, 64, 47
3, 101160, Note_on_c, 0, 64, 0
3, 101160, Note_on_c, 0, 66, 40
3, 101280, Note_on_c, 0, 66, 0
3, 101280, Note_on_c, 0, 52, 43
3, 101400, Note_on_c, 0, 52, 0
3, 101400, Note_on_c, 0, 54, 53
3, 101520, Note_on_c, 0, 54, 0
3, 101520, Note_on_c, 0, 57, 53
3, 101640, Note_on_c, 0, 57, 0
3, 101640, Note_on_c, 0, 60, 47
3, 101760, Note_on_c, 0, 60, 0
3, 101880, Note_on_c, 0, 52, 43
3, 102000, Note_on_c, 0, 52, 0
3, 102000, Note_on_c, 0, 56, 40
3, 102120, Note_on_c, 0, 56, 0
3, 102120, Note_on_c, 0, 59, 34
3, 102240, Note_on_c, 0, 59, 0
3, 102240, Note_on_c, 0, 47, 42
3, 102360, Note_on_c, 0, 47, 0
3, 102360, Note_on_c, 0, 52, 34
3, 102480, Note_on_c, 0, 52, 0
3, 102480, Note_on_c, 0, 56, 40
3, 102600, Note_on_c, 0, 56, 0
3, 102600, Note_on_c, 0, 59, 36
3, 102720, Note_on_c, 0, 59, 0
3, 102720, Note_on_c, 0, 47, 29
3, 102840, Note_on_c, 0, 47, 0
3, 102840, Note_on_c, 0, 54, 31
3, 102960, Note_on_c, 0, 54, 0
3, 102960, Note_on_c, 0, 57, 38
3, 103080, Note_on_c, 0, 57, 0
3, 103080, Note_on_c, 0, 59, 44
3, 103200, Note_on_c, 0, 59, 0
3, 103200, Note_on_c, 0, 47, 49
3, 103320, Note_on_c, 0, 47, 0
3, 103320, Note_on_c, 0, 54, 33
3, 103440, Note_on_c, 0, 54, 0
3, 103440, Note_on_c, 0, 57, 41
3, 103560, Note_on_c, 0, 57, 0
3, 103560, Note_on_c, 0, 59, 31
3, 103680, Note_on_c, 0, 59, 0
3, 103680, Note_on_c, 0, 47, 32
3, 103800, Note_on_c, 0, 47, 0
3, 103800, Note_on_c, 0, 53, 26
3, 103920, Note_on_c, 0, 53, 0
3, 103920, Note_on_c, 0, 56, 30
3, 104040, Note_on_c, 0, 56, 0
3, 104040, Note_on_c, 0, 59, 38
3, 104160, Note_on_c, 0, 59, 0
3, 104160, Note_on_c, 0, 47, 41
3, 104280, Note_on_c, 0, 47, 0
3, 104280, Note_on_c, 0, 53, 25
3, 104400, Note_on_c, 0, 53, 0
3, 104400, Note_on_c, 0, 56, 25
3, 104520, Note_on_c, 0, 56, 0
3, 104520, Note_on_c, 0, 59, 23
3, 104640, Note_on_c, 0, 59, 0
3, 104640, Note_on_c, 0, 45, 29
3, 104760, Note_on_c, 0, 45, 0
3, 104760, Note_on_c, 0, 49, 25
3, 104880, Note_on_c, 0, 49, 0
3, 104880, Note_on_c, 0, 54, 25
3, 105000, Note_on_c, 0, 54, 0
3, 105000, Note_on_c, 0, 57, 24
3, 105110, Note_on_c, 0, 57, 0
3, 105120, Note_on_c, 0, 45, 31
3, 105240, Note_on_c, 0, 45, 0
3, 105240, Note_on_c, 0, 49, 30
3, 105360, Note_on_c, 0, 49, 0
3, 105360, Note_on_c, 0, 54, 33
3, 105480, Note_on_c, 0, 54, 0
3, 105480, Note_on_c, 0, 57, 38
3, 105600, Note_on_c, 0, 57, 0
3, 105600, Note_on_c, 0, 45, 45
3, 105720, Note_on_c, 0, 45, 0
3, 105720, Note_on_c, 0, 51, 30
3, 105840, Note_on_c, 0, 51, 0
3, 105840, Note_on_c, 0, 57, 32
3, 105960, Note_on_c, 0, 57, 0
3, 105960, Note_on_c, 0, 59, 37
3, 106080, Note_on_c, 0, 59, 0
3, 106080, Note_on_c, 0, 45, 41
3, 106200, Note_on_c, 0, 45, 0
3, 106200, Note_on_c, 0, 52, 33
3, 106320, Note_on_c, 0, 52, 0
3, 106320, Note_on_c, 0, 57, 37
3, 106440, Note_on_c, 0, 57, 0
3, 106440, Note_on_c, 0, 59, 41
3, 106560, Note_on_c, 0, 59, 0
3, 106560, Note_on_c, 0, 47, 45
3, 106680, Note_on_c, 0, 47, 0
3, 106680, Note_on_c, 0, 54, 35
3, 106800, Note_on_c, 0, 54, 0
3, 106800, Note_on_c, 0, 57, 46
3, 106920, Note_on_c, 0, 57, 0
3, 106920, Note_on_c, 0, 59, 38
3, 107040, Note_on_c, 0, 59, 0
3, 107040, Note_on_c, 0, 47, 40
3, 107160, Note_on_c, 0, 47, 0
3, 107160, Note_on_c, 0, 51, 32
3, 107280, Note_on_c, 0, 51, 0
3, 107280, Note_on_c, 0, 57, 31
3, 107400, Note_on_c, 0, 57, 0
3, 107400, Note_on_c, 0, 59, 28
3, 107520, Note_on_c, 0, 59, 0
3, 107520, Note_on_c, 0, 47, 36
3, 107640, Note_on_c, 0, 47, 0
3, 107640, Note_on_c, 0, 52, 32
3, 107760, Note_on_c, 0, 52, 0
3, 107760, Note_on_c, 0, 56, 32
3, 107880, Note_on_c, 0, 56, 0
3, 107880, Note_on_c, 0, 59, 31
3, 108000, Note_on_c, 0, 59, 0
3, 108000, Note_on_c, 0, 47, 40
3, 108120, Note_on_c, 0, 47, 0
3, 108120, Note_on_c, 0, 52, 31
3, 108240, Note_on_c, 0, 52, 0
3, 108240, Note_on_c, 0, 56, 31
3, 108360, Note_on_c, 0, 56, 0
3, 108360, Note_on_c, 0, 59, 28
3, 108480, Note_on_c, 0, 59, 0
3, 108480, Note_on_c, 0, 47, 36
3, 108600, Note_on_c, 0, 47, 0
3, 108600, Note_on_c, 0, 52, 31
3, 108720, Note_on_c, 0, 52, 0
3, 108720, Note_on_c, 0, 56, 31
3, 108840, Note_on_c, 0, 56, 0
3, 108840, Note_on_c, 0, 59, 30
3, 108960, Note_on_c, 0, 59, 0
3, 108960, Note_on_c, 0, 47, 34
3, 109080, Note_on_c, 0, 47, 0
3, 109080, Note_on_c, 0, 52, 30
3, 109200, Note_on_c, 0, 52, 0
3, 109200, Note_on_c, 0, 56, 31
3, 109320, Note_on_c, 0, 56, 0
3, 109320, Note_on_c, 0, 59, 33
3, 109440, Note_on_c, 0, 59, 0
3, 109440, Note_on_c, 0, 45, 33
3, 109560, Note_on_c, 0, 45, 0
3, 109560, Note_on_c, 0, 49, 24
3, 109680, Note_on_c, 0, 49, 0
3, 109680, Note_on_c, 0, 52, 24
3, 109800, Note_on_c, 0, 52, 0
3, 109800, Note_on_c, 0, 57, 23
3, 109920, Note_on_c, 0, 57, 0
3, 109920, Note_on_c, 0, 45, 30
3, 110040, Note_on_c, 0, 45, 0
3, 110040, Note_on_c, 0, 49, 23
3, 110160, Note_on_c, 0, 49, 0
3, 110160, Note_on_c, 0, 52, 23
3, 110280, Note_on_c, 0, 52, 0
3, 110280, Note_on_c, 0, 57, 20
3, 110400, Note_on_c, 0, 57, 0
3, 110400, Note_on_c, 0, 45, 29
3, 110520, Note_on_c, 0, 45, 0
3, 110520, Note_on_c, 0, 49, 24
3, 110640, Note_on_c, 0, 49, 0
3, 110640, Note_on_c, 0, 52, 29
3, 110760, Note_on_c, 0, 52, 0
3, 110760, Note_on_c, 0, 57, 35
3, 110880, Note_on_c, 0, 57, 0
3, 110880, Note_on_c, 0, 45, 29
3, 111000, Note_on_c, 0, 45, 0
3, 111000, Note_on_c, 0, 48, 25
3, 111120, Note_on_c, 0, 48, 0
3, 111120, Note_on_c, 0, 52, 27
3, 111240, Note_on_c, 0, 52, 0
3, 111240, Note_on_c, 0, 57, 28
3, 111360, Note_on_c, 0, 57, 0
3, 111360, Note_on_c, 0, 42, 29
3, 111480, Note_on_c, 0, 42, 0
3, 111480, Note_on_c, 0, 47, 21
3, 111600, Note_on_c, 0, 47, 0
3, 111600, Note_on_c, 0, 51, 21
3, 111720, Note_on_c, 0, 51, 0
3, 111720, Note_on_c, 0, 57, 20
3, 111840, Note_on_c, 0, 57, 0
3, 111840, Note_on_c, 0, 42, 25
3, 111960, Note_on_c, 0, 42, 0
3, 111960, Note_on_c, 0, 47, 20
3, 112080, Note_on_c, 0, 47, 0
3, 112080, Note_on_c, 0, 51, 19
3, 112200, Note_on_c, 0, 51, 0
3, 112200, Note_on_c, 0, 57, 17
3, 112320, Note_on_c, 0, 57, 0
3, 112320, Note_on_c, 0, 42, 25
3, 112440, Note_on_c, 0, 42, 0
3, 112440, Note_on_c, 0, 47, 20
3, 112560, Note_on_c, 0, 47, 0
3, 112560, Note_on_c, 0, 51, 24
3, 112680, Note_on_c, 0, 51, 0
3, 112680, Note_on_c, 0, 57, 30
3, 112800, Note_on_c, 0, 57, 0
3, 112800, Note_on_c, 0, 47, 25
3, 112920, Note_on_c, 0, 47, 0
3, 112920, Note_on_c, 0, 51, 21
3, 113040, Note_on_c, 0, 51, 0
3, 113040, Note_on_c, 0, 57, 23
3, 113160, Note_on_c, 0, 57, 0
3, 113160, Note_on_c, 0, 59, 24
3, 113280, Note_on_c, 0, 59, 0
3, 113280, Note_on_c, 0, 47, 24
3, 113400, Note_on_c, 0, 47, 0
3, 113400, Note_on_c, 0, 52, 18
3, 113520, Note_on_c, 0, 52, 0
3, 113520, Note_on_c, 0, 56, 18
3, 113640, Note_on_c, 0, 56, 0
3, 113640, Note_on_c, 0, 59, 17
3, 113760, Note_on_c, 0, 59, 0
3, 113760, Note_on_c, 0, 47, 22
3, 113880, Note_on_c, 0, 47, 0
3, 113880, Note_on_c, 0, 52, 17
3, 114000, Note_on_c, 0, 52, 0
3, 114000, Note_on_c, 0, 56, 17
3, 114120, Note_on_c, 0, 56, 0
3, 114120, Note_on_c, 0, 59, 16
3, 114240, Note_on_c, 0, 59, 0
3, 114240, Note_on_c, 0, 47, 23
3, 114360, Note_on_c, 0, 47, 0
3, 114360, Note_on_c, 0, 52, 15
3, 114480, Note_on_c, 0, 52, 0
3, 114480, Note_on_c, 0, 56, 19
3, 114600, Note_on_c, 0, 56, 0
3, 114600, Note_on_c, 0, 59, 22
3, 114720, Note_on_c, 0, 59, 0
3, 114720, Note_on_c, 0, 47, 24
3, 114840, Note_on_c, 0, 47, 0
3, 114840, Note_on_c, 0, 52, 18
3, 114960, Note_on_c, 0, 52, 0
3, 114960, Note_on_c, 0, 56, 20
3, 115080, Note_on_c, 0, 56, 0
3, 115080, Note_on_c, 0, 59, 20
3, 115200, Note_on_c, 0, 59, 0
3, 115200, Note_on_c, 0, 47, 24
3, 115320, Note_on_c, 0, 47, 0
3, 115320, Note_on_c, 0, 52, 17
3, 115440, Note_on_c, 0, 52, 0
3, 115440, Note_on_c, 0, 56, 17
3, 115560, Note_on_c, 0, 56, 0
3, 115560, Note_on_c, 0, 59, 17
3, 115680, Note_on_c, 0, 59, 0
3, 115680, Note_on_c, 0, 47, 21
3, 115800, Note_on_c, 0, 47, 0
3, 115800, Note_on_c, 0, 52, 17
3, 115920, Note_on_c, 0, 52, 0
3, 115920, Note_on_c, 0, 56, 16
3, 116040, Note_on_c, 0, 56, 0
3, 116040, Note_on_c, 0, 59, 14
3, 116160, Note_on_c, 0, 59, 0
3, 116160, Note_on_c, 0, 47, 24
3, 116280, Note_on_c, 0, 47, 0
3, 116280, Note_on_c, 0, 52, 17
3, 116400, Note_on_c, 0, 52, 0
3, 116400, Note_on_c, 0, 56, 17
3, 116520, Note_on_c, 0, 56, 0
3, 116520, Note_on_c, 0, 59, 17
3, 116640, Note_on_c, 0, 59, 0
3, 116640, Note_on_c, 0, 47, 21
3, 116760, Note_on_c, 0, 47, 0
3, 116760, Note_on_c, 0, 52, 17
3, 116880, Note_on_c, 0, 52, 0
3, 116880, Note_on_c, 0, 56, 16
3, 117000, Note_on_c, 0, 56, 0
3, 117000, Note_on_c, 0, 59, 14
3, 117120, Note_on_c, 0, 59, 0
3, 117120, End_track
4, 0, Start_track
4, 0, Title_t, "Piano left"
4, 0, Note_on_c, 0, 40, 40
4, 960, Note_on_c, 0, 40, 0
4, 960, Note_on_c, 0, 44, 42
4, 1920, Note_on_c, 0, 44, 0
4, 1920, Note_on_c, 0, 42, 45
4, 2880, Note_on_c, 0, 42, 0
4, 2880, Note_on_c, 0, 35, 41
4, 3360, Note_on_c, 0, 35, 0
4, 3840, Note_on_c, 0, 40, 46
4, 4320, Note_on_c, 0, 40, 0
4, 4320, Note_on_c, 0, 42, 42
4, 4800, Note_on_c, 0, 42, 0
4, 4800, Note_on_c, 0, 44, 42
4, 5280, Note_on_c, 0, 44, 0
4, 5280, Note_on_c, 0, 46, 42
4, 5760, Note_on_c, 0, 46, 0
4, 5760, Note_on_c, 0, 47, 46
4, 6240, Note_on_c, 0, 47, 0
4, 6240, Note_on_c, 0, 49, 42
4, 6720, Note_on_c, 0, 49, 0
4, 6720, Note_on_c, 0, 51, 37
4, 7200, Note_on_c, 0, 51, 0
4, 7200, Note_on_c, 0, 53, 42
4, 7680, Note_on_c, 0, 53, 0
4, 7680, Note_on_c, 0, 54, 46
4, 8160, Note_on_c, 0, 54, 0
4, 8160, Note_on_c, 0, 47, 42
4, 8640, Note_on_c, 0, 47, 0
4, 8640, Note_on_c, 0, 52, 42
4, 9120, Note_on_c, 0, 52, 0
4, 9120, Note_on_c, 0, 45, 42
4, 9600, Note_on_c, 0, 45, 0
4, 9600, Note_on_c, 0, 47, 46
4, 10560, Note_on_c, 0, 47, 0
4, 10560, Note_on_c, 0, 47, 38
4, 10800, Note_on_c, 0, 47, 0
4, 11040, Note_on_c, 0, 39, 42
4, 11520, Note_on_c, 0, 39, 0
4, 11520, Note_on_c, 0, 40, 46
4, 12000, Note_on_c, 0, 40, 0
4, 12000, Note_on_c, 0, 42, 42
4, 12480, Note_on_c, 0, 42, 0
4, 12480, Note_on_c, 0, 44, 42
4, 12960, Note_on_c, 0, 44, 0
4, 12960, Note_on_c, 0, 46, 42
4, 13440, Note_on_c, 0, 46, 0
4, 13440, Note_on_c, 0, 47, 46
4, 13920, Note_on_c, 0, 47, 0
4, 13920, Note_on_c, 0, 49, 42
4, 14400, Note_on_c, 0, 49, 0
4, 14400, Note_on_c, 0, 51, 37
4, 14880, Note_on_c, 0, 51, 0
4, 14880, Note_on_c, 0, 52, 42
4, 15360, Note_on_c, 0, 52, 0
4, 15360, Note_on_c, 0, 49, 48
4, 15840, Note_on_c, 0, 49, 0
4, 15840, Note_on_c, 0, 56, 54
4, 16320, Note_on_c, 0, 56, 0
4, 16320, Note_on_c, 0, 52, 49
4, 17760, Note_on_c, 0, 52, 0
4, 17760, Note_on_c, 0, 56, 37
4, 18240, Note_on_c, 0, 56, 0
4, 18240, Note_on_c, 0, 53, 34
4, 19200, Note_on_c, 0, 53, 0
4, 19200, Note_on_c, 0, 54, 46
4, 19680, Note_on_c, 0, 54, 0
4, 19680, Note_on_c, 0, 46, 42
4, 20160, Note_on_c, 0, 46, 0
4, 20160, Note_on_c, 0, 47, 42
4, 20640, Note_on_c, 0, 47, 0
4, 20640, Note_on_c, 0, 52, 42
4, 21120, Note_on_c, 0, 52, 0
4, 21120, Note_on_c, 0, 54, 46
4, 21600, Note_on_c, 0, 54, 0
4, 22560, Note_on_c, 0, 42, 38
4, 23520, Note_on_c, 0, 42, 0
4, 23520, Note_on_c, 0, 42, 40
4, 24000, Note_on_c, 0, 42, 0
4, 24000, Note_on_c, 0, 40, 34
4, 24480, Note_on_c, 0, 40, 0
4, 24480, Note_on_c, 0, 39, 39
4, 24960, Note_on_c, 0, 39, 0
4, 24960, Note_on_c, 0, 37, 48
4, 25440, Note_on_c, 0, 37, 0
4, 25440, Note_on_c, 0, 47, 53
4, 25920, Note_on_c, 0, 47, 0
4, 25920, Note_on_c, 0, 46, 57
4, 26400, Note_on_c, 0, 46, 0
4, 26400, Note_on_c, 0, 42, 62
4, 26880, Note_on_c, 0, 42, 0
4, 26880, Note_on_c, 0, 47, 55
4, 28320, Note_on_c, 0, 47, 0
4, 28800, Note_on_c, 0, 40, 46
4, 29280, Note_on_c, 0, 40, 0
4, 29280, Note_on_c, 0, 42, 42
4, 29760, Note_on_c, 0, 42, 0
4, 29760, Note_on_c, 0, 44, 42
4, 30240, Note_on_c, 0, 44, 0
4, 30240, Note_on_c, 0, 46, 42
4, 30720, Note_on_c, 0, 46, 0
4, 30720, Note_on_c, 0, 47, 46
4, 31200, Note_on_c, 0, 47, 0
4, 31200, Note_on_c, 0, 49, 42
4, 31680, Note_on_c, 0, 49, 0
4, 31680, Note_on_c, 0, 51, 37
4, 32160, Note_on_c, 0, 51, 0
4, 32160, Note_on_c, 0, 53, 42
4, 32640, Note_on_c, 0, 53, 0
4, 32640, Note_on_c, 0, 54, 46
4, 33120, Note_on_c, 0, 54, 0
4, 33120, Note_on_c, 0, 47, 42
4, 33600, Note_on_c, 0, 47, 0
4, 33600, Note_on_c, 0, 52, 42
4, 34080, Note_on_c, 0, 52, 0
4, 34080, Note_on_c, 0, 45, 42
4, 34560, Note_on_c, 0, 45, 0
4, 34560, Note_on_c, 0, 47, 46
4, 35520, Note_on_c, 0, 47, 0
4, 35520, Note_on_c, 0, 47, 38
4, 35760, Note_on_c, 0, 47, 0
4, 36000, Note_on_c, 0, 39, 42
4, 36480, Note_on_c, 0, 39, 0
4, 36480, Note_on_c, 0, 40, 46
4, 36960, Note_on_c, 0, 40, 0
4, 36960, Note_on_c, 0, 42, 42
4, 37440, Note_on_c, 0, 42, 0
4, 37440, Note_on_c, 0, 44, 42
4, 37920, Note_on_c, 0, 44, 0
4, 37920, Note_on_c, 0, 46, 42
4, 38400, Note_on_c, 0, 46, 0
4, 38400, Note_on_c, 0, 47, 46
4, 38880, Note_on_c, 0, 47, 0
4, 38880, Note_on_c, 0, 49, 42
4, 39360, Note_on_c, 0, 49, 0
4, 39360, Note_on_c, 0, 51, 37
4, 39840, Note_on_c, 0, 51, 0
4, 39840, Note_on_c, 0, 52, 42
4, 40320, Note_on_c, 0, 52, 0
4, 40320, Note_on_c, 0, 49, 48
4, 40800, Note_on_c, 0, 49, 0
4, 40800, Note_on_c, 0, 56, 54
4, 41280, Note_on_c, 0, 56, 0
4, 41280, Note_on_c, 0, 52, 49
4, 42720, Note_on_c, 0, 52, 0
4, 42720, Note_on_c, 0, 56, 37
4, 43200, Note_on_c, 0, 56, 0
4, 43200, Note_on_c, 0, 53, 34
4, 44160, Note_on_c, 0, 53, 0
4, 44160, Note_on_c, 0, 54, 46
4, 44640, Note_on_c, 0, 54, 0
4, 44640, Note_on_c, 0, 46, 42
4, 45120, Note_on_c, 0, 46, 0
4, 45120, Note_on_c, 0, 47, 42
4, 45600, Note_on_c, 0, 47, 0
4, 45600, Note_on_c, 0, 52, 42
4, 46080, Note_on_c, 0, 52, 0
4, 46080, Note_on_c, 0, 54, 46
4, 46560, Note_on_c, 0, 54, 0
4, 47520, Note_on_c, 0, 42, 38
4, 48480, Note_on_c, 0, 42, 0
4, 48480, Note_on_c, 0, 42, 40
4, 48960, Note_on_c, 0, 42, 0
4, 48960, Note_on_c, 0, 40, 34
4, 49440, Note_on_c, 0, 40, 0
4, 49440, Note_on_c, 0, 39, 39
4, 49920, Note_on_c, 0, 39, 0
4, 49920, Note_on_c, 0, 37, 48
4, 50400, Note_on_c, 0, 37, 0
4, 50400, Note_on_c, 0, 47, 53
4, 50880, Note_on_c, 0, 47, 0
4, 50880, Note_on_c, 0, 46, 57
4, 51360, Note_on_c, 0, 46, 0
4, 51360, Note_on_c, 0, 42, 62
4, 51840, Note_on_c, 0, 42, 0
4, 51840, Note_on_c, 0, 47, 55
4, 53280, Note_on_c, 0, 47, 0
4, 53760, Note_on_c, 0, 40, 46
4, 54720, Note_on_c, 0, 40, 0
4, 54720, Note_on_c, 0, 42, 46
4, 55200, Note_on_c, 0, 42, 0
4, 55200, Note_on_c, 0, 50, 49
4, 55680, Note_on_c, 0, 50, 0
4, 55680, Note_on_c, 0, 43, 56
4, 56640, Note_on_c, 0, 43, 0
4, 56640, Note_on_c, 0, 45, 56
4, 57600, Note_on_c, 0, 45, 0
4, 57600, Note_on_c, 0, 47, 67
4, 58560, Note_on_c, 0, 47, 0
4, 58560, Note_on_c, 0, 48, 66
4, 59520, Note_on_c, 0, 48, 0
4, 59520, Note_on_c, 0, 50, 66
4, 60000, Note_on_c, 0, 50, 0
4, 60000, Note_on_c, 0, 52, 62
4, 60480, Note_on_c, 0, 52, 0
4, 63840, Note_on_c, 0, 47, 42
4, 64320, Note_on_c, 0, 47, 0
4, 64320, Note_on_c, 0, 48, 42
4, 65280, Note_on_c, 0, 48, 0
4, 65280, Note_on_c, 0, 50, 46
4, 66240, Note_on_c, 0, 50, 0
4, 66240, Note_on_c, 0, 52, 37
4, 66720, Note_on_c, 0, 52, 0
4, 66720, Note_on_c, 0, 54, 42
4, 67200, Note_on_c, 0, 54, 0
4, 67200, Note_on_c, 0, 55, 46
4, 67680, Note_on_c, 0, 55, 0
4, 68160, Note_on_c, 0, 48, 37
4, 69120, Note_on_c, 0, 48, 0
4, 69120, Note_on_c, 0, 47, 40
4, 71040, Note_on_c, 0, 47, 0
4, 71040, Note_on_c, 0, 43, 34
4, 72000, Note_on_c, 0, 43, 0
4, 72000, Note_on_c, 0, 48, 27
4, 72960, Note_on_c, 0, 48, 0
4, 72960, Note_on_c, 0, 47, 30
4, 74880, Note_on_c, 0, 47, 0
4, 74880, Note_on_c, 0, 47, 46
4, 76800, Note_on_c, 0, 47, 0
4, 76800, Note_on_c, 0, 47, 46
4, 78240, Note_on_c, 0, 47, 0
4, 78720, Note_on_c, 0, 40, 64
4, 79200, Note_on_c, 0, 40, 0
4, 79200, Note_on_c, 0, 42, 58
4, 79680, Note_on_c, 0, 42, 0
4, 79680, Note_on_c, 0, 44, 58
4, 80160, Note_on_c, 0, 44, 0
4, 80160, Note_on_c, 0, 46, 58
4, 80640, Note_on_c, 0, 46, 0
4, 80640, Note_on_c, 0, 47, 64
4, 81120, Note_on_c, 0, 47, 0
4, 81120, Note_on_c, 0, 49, 58
4, 81600, Note_on_c, 0, 49, 0
4, 81600, Note_on_c, 0, 51, 51
4, 82080, Note_on_c, 0, 51, 0
4, 82080, Note_on_c, 0, 53, 58
4, 82560, Note_on_c, 0, 53, 0
4, 82560, Note_on_c, 0, 54, 64
4, 83040, Note_on_c, 0, 54, 0
4, 83040, Note_on_c, 0, 47, 58
4, 83520, Note_on_c, 0, 47, 0
4, 83520, Note_on_c, 0, 52, 58
4, 84000, Note_on_c, 0, 52, 0
4, 84000, Note_on_c, 0, 49, 58
4, 84480, Note_on_c, 0, 49, 0
4, 84480, Note_on_c, 0, 47, 64
4, 85920, Note_on_c, 0, 47, 0
4, 85920, Note_on_c, 0, 45, 37
4, 86400, Note_on_c, 0, 45, 0
4, 86400, Note_on_c, 0, 44, 46
4, 87360, Note_on_c, 0, 44, 0
4, 87360, Note_on_c, 0, 45, 42
4, 88320, Note_on_c, 0, 45, 0
4, 88320, Note_on_c, 0, 47, 46
4, 89280, Note_on_c, 0, 47, 0
4, 89280, Note_on_c, 0, 49, 38
4, 90240, Note_on_c, 0, 49, 0
4, 90240, Note_on_c, 0, 47, 49
4, 91200, Note_on_c, 0, 47, 0
4, 91200, Note_on_c, 0, 47, 40
4, 92160, Note_on_c, 0, 47, 0
4, 92160, Note_on_c, 0, 52, 55
4, 92640, Note_on_c, 0, 52, 0
4, 92640, Note_on_c, 0, 47, 46
4, 93120, Note_on_c, 0, 47, 0
4, 93120, Note_on_c, 0, 52, 53
4, 93600, Note_on_c, 0, 52, 0
4, 94560, Note_on_c, 0, 47, 47
4, 95040, Note_on_c, 0, 47, 0
4, 95040, Note_on_c, 0, 46, 52
4, 95520, Note_on_c, 0, 46, 0
4, 95520, Note_on_c, 0, 45, 47
4, 96000, Note_on_c, 0, 45, 0
4, 96000, Note_on_c, 0, 44, 59
4, 96480, Note_on_c, 0, 44, 0
4, 96480, Note_on_c, 0, 47, 53
4, 96960, Note_on_c, 0, 47, 0
4, 96960, Note_on_c, 0, 46, 60
4, 97440, Note_on_c, 0, 46, 0
4, 97440, Note_on_c, 0, 49, 61
4, 97920, Note_on_c, 0, 49, 0
4, 97920, Note_on_c, 0, 47, 62
4, 98400, Note_on_c, 0, 47, 0
4, 98400, Note_on_c, 0, 52, 58
4, 98880, Note_on_c, 0, 52, 0
4, 98880, Note_on_c, 0, 51, 64
4, 99360, Note_on_c, 0, 51, 0
4, 99360, Note_on_c, 0, 59, 61
4, 99840, Note_on_c, 0, 59, 0
4, 99840, Note_on_c, 0, 52, 68
4, 100320, Note_on_c, 0, 52, 0
4, 100320, Note_on_c, 0, 56, 58
4, 100800, Note_on_c, 0, 56, 0
4, 100800, Note_on_c, 0, 57, 63
4, 101280, Note_on_c, 0, 57, 0
4, 101280, Note_on_c, 0, 45, 57
4, 101760, Note_on_c, 0, 45, 0
4, 101760, Note_on_c, 0, 47, 63
4, 102240, Note_on_c, 0, 47, 0
4, 103200, Note_on_c, 0, 35, 38
4, 104160, Note_on_c, 0, 35, 0
4, 104160, Note_on_c, 0, 35, 40
4, 104640, Note_on_c, 0, 35, 0
4, 104640, Note_on_c, 0, 33, 34
4, 105120, Note_on_c, 0, 33, 0
4, 105120, Note_on_c, 0, 32, 39
4, 105600, Note_on_c, 0, 32, 0
4, 105600, Note_on_c, 0, 30, 48
4, 106080, Note_on_c, 0, 30, 0
4, 106080, Note_on_c, 0, 40, 53
4, 106560, Note_on_c, 0, 40, 0
4, 106560, Note_on_c, 0, 39, 57
4, 107040, Note_on_c, 0, 39, 0
4, 107040, Note_on_c, 0, 35, 49
4, 107520, Note_on_c, 0, 35, 0
4, 107520, Note_on_c, 0, 40, 55
4, 108470, Note_on_c, 0, 40, 0
4, 108480, Note_on_c, 0, 40, 47
4, 110390, Note_on_c, 0, 40, 0
4, 110400, Note_on_c, 0, 40, 42
4, 112310, Note_on_c, 0, 40, 0
4, 112320, Note_on_c, 0, 40, 36
4, 114230, Note_on_c, 0, 40, 0
4, 114240, Note_on_c, 0, 40, 32
4, 115670, Note_on_c, 0, 40, 0
4, 115680, Note_on_c, 0, 40, 24
4, 116150, Note_on_c, 0, 40, 0
4, 116160, Note_on_c, 0, 40, 24
4, 116630, Note_on_c, 0, 40, 0
4, 116640, Note_on_c, 0, 40, 23
4, 117110, Note_on_c, 0, 40, 0
4, 117120, Note_on_c, 0, 40, 15
4, 117120, Note_on_c, 0, 47, 15
4, 119040, Note_on_c, 0, 47, 0
4, 119040, Note_on_c, 0, 40, 0
4, 119040, End_track
5, 0, Start_track
5, 0, Title_t, "Pedale"
5, 0, Program_c, 0, 0
5, 21, Control_c, 0, 64, 127
5, 991, Control_c, 0, 64, 0
5, 1052, Control_c, 0, 64, 127
5, 1927, Control_c, 0, 64, 0
5, 2012, Control_c, 0, 64, 127
5, 3380, Control_c, 0, 64, 0
5, 3452, Control_c, 0, 64, 127
5, 3848, Control_c, 0, 64, 0
5, 3939, Control_c, 0, 64, 127
5, 4338, Control_c, 0, 64, 0
5, 4419, Control_c, 0, 64, 127
5, 4817, Control_c, 0, 64, 0
5, 4899, Control_c, 0, 64, 127
5, 5298, Control_c, 0, 64, 0
5, 5358, Control_c, 0, 64, 127
5, 5778, Control_c, 0, 64, 0
5, 5812, Control_c, 0, 64, 127
5, 6257, Control_c, 0, 64, 0
5, 6320, Control_c, 0, 64, 127
5, 6737, Control_c, 0, 64, 0
5, 6812, Control_c, 0, 64, 127
5, 7217, Control_c, 0, 64, 0
5, 7303, Control_c, 0, 64, 127
5, 7689, Control_c, 0, 64, 0
5, 7737, Control_c, 0, 64, 127
5, 8171, Control_c, 0, 64, 0
5, 8203, Control_c, 0, 64, 127
5, 8654, Control_c, 0, 64, 0
5, 8697, Control_c, 0, 64, 127
5, 8884, Control_c, 0, 64, 0
5, 8919, Control_c, 0, 64, 127
5, 9128, Control_c, 0, 64, 0
5, 9177, Control_c, 0, 64, 127
5, 9608, Control_c, 0, 64, 0
5, 9706, Control_c, 0, 64, 127
5, 10571, Control_c, 0, 64, 0
5, 10645, Control_c, 0, 64, 127
5, 11060, Control_c, 0, 64, 0
5, 11132, Control_c, 0, 64, 127
5, 11528, Control_c, 0, 64, 0
5, 11619, Control_c, 0, 64, 127
5, 12018, Control_c, 0, 64, 0
5, 12099, Control_c, 0, 64, 127
5, 12497, Control_c, 0, 64, 0
5, 12579, Control_c, 0, 64, 127
5, 12978, Control_c, 0, 64, 0
5, 13038, Control_c, 0, 64, 127
5, 13458, Control_c, 0, 64, 0
5, 13492, Control_c, 0, 64, 127
5, 13937, Control_c, 0, 64, 0
5, 14000, Control_c, 0, 64, 127
5, 14417, Control_c, 0, 64, 0
5, 14492, Control_c, 0, 64, 127
5, 14904, Control_c, 0, 64, 0
5, 14960, Control_c, 0, 64, 127
5, 15360, Control_c, 0, 64, 0
5, 15466, Control_c, 0, 64, 127
5, 16338, Control_c, 0, 64, 0
5, 16454, Control_c, 0, 64, 127
5, 16824, Control_c, 0, 64, 0
5, 16880, Control_c, 0, 64, 127
5, 17280, Control_c, 0, 64, 0
5, 17386, Control_c, 0, 64, 127
5, 18258, Control_c, 0, 64, 0
5, 18374, Control_c, 0, 64, 127
5, 18737, Control_c, 0, 64, 0
5, 18823, Control_c, 0, 64, 127
5, 19209, Control_c, 0, 64, 0
5, 19257, Control_c, 0, 64, 127
5, 19691, Control_c, 0, 64, 0
5, 19723, Control_c, 0, 64, 127
5, 20174, Control_c, 0, 64, 0
5, 20217, Control_c, 0, 64, 127
5, 20662, Control_c, 0, 64, 0
5, 20697, Control_c, 0, 64, 127
5, 21128, Control_c, 0, 64, 0
5, 21226, Control_c, 0, 64, 127
5, 22091, Control_c, 0, 64, 0
5, 22165, Control_c, 0, 64, 127
5, 23048, Control_c, 0, 64, 0
5, 23146, Control_c, 0, 64, 127
5, 24011, Control_c, 0, 64, 0
5, 24085, Control_c, 0, 64, 127
5, 24497, Control_c, 0, 64, 0
5, 24583, Control_c, 0, 64, 127
5, 24969, Control_c, 0, 64, 0
5, 25017, Control_c, 0, 64, 127
5, 25451, Control_c, 0, 64, 0
5, 25483, Control_c, 0, 64, 127
5, 25934, Control_c, 0, 64, 0
5, 25977, Control_c, 0, 64, 127
5, 26422, Control_c, 0, 64, 0
5, 26457, Control_c, 0, 64, 127
5, 26888, Control_c, 0, 64, 0
5, 26986, Control_c, 0, 64, 127
5, 28323, Control_c, 0, 64, 0
5, 28340, Control_c, 0, 64, 0
5, 28412, Control_c, 0, 64, 127
5, 28808, Control_c, 0, 64, 0
5, 28899, Control_c, 0, 64, 127
5, 29298, Control_c, 0, 64, 0
5, 29379, Control_c, 0, 64, 127
5, 29777, Control_c, 0, 64, 0
5, 29859, Control_c, 0, 64, 127
5, 30258, Control_c, 0, 64, 0
5, 30318, Control_c, 0, 64, 127
5, 30738, Control_c, 0, 64, 0
5, 30772, Control_c, 0, 64, 127
5, 31217, Control_c, 0, 64, 0
5, 31280, Control_c, 0, 64, 127
5, 31697, Control_c, 0, 64, 0
5, 31772, Control_c, 0, 64, 127
5, 32177, Control_c, 0, 64, 0
5, 32263, Control_c, 0, 64, 127
5, 32649, Control_c, 0, 64, 0
5, 32697, Control_c, 0, 64, 127
5, 33131, Control_c, 0, 64, 0
5, 33163, Control_c, 0, 64, 127
5, 33614, Control_c, 0, 64, 0
5, 33657, Control_c, 0, 64, 127
5, 33844, Control_c, 0, 64, 0
5, 33879, Control_c, 0, 64, 127
5, 34088, Control_c, 0, 64, 0
5, 34137, Control_c, 0, 64, 127
5, 34568, Control_c, 0, 64, 0
5, 34666, Control_c, 0, 64, 127
5, 35531, Control_c, 0, 64, 0
5, 35605, Control_c, 0, 64, 127
5, 36020, Control_c, 0, 64, 0
5, 36092, Control_c, 0, 64, 127
5, 36488, Control_c, 0, 64, 0
5, 36579, Control_c, 0, 64, 127
5, 36978, Control_c, 0, 64, 0
5, 37059, Control_c, 0, 64, 127
5, 37457, Control_c, 0, 64, 0
5, 37539, Control_c, 0, 64, 127
5, 37938, Control_c, 0, 64, 0
5, 37998, Control_c, 0, 64, 127
5, 38418, Control_c, 0, 64, 0
5, 38452, Control_c, 0, 64, 127
5, 38897, Control_c, 0, 64, 0
5, 38960, Control_c, 0, 64, 127
5, 39377, Control_c, 0, 64, 0
5, 39452, Control_c, 0, 64, 127
5, 39864, Control_c, 0, 64, 0
5, 39920, Control_c, 0, 64, 127
5, 40320, Control_c, 0, 64, 0
5, 40426, Control_c, 0, 64, 127
5, 41298, Control_c, 0, 64, 0
5, 41414, Control_c, 0, 64, 127
5, 41784, Control_c, 0, 64, 0
5, 41840, Control_c, 0, 64, 127
5, 42240, Control_c, 0, 64, 0
5, 42346, Control_c, 0, 64, 127
5, 43218, Control_c, 0, 64, 0
5, 43334, Control_c, 0, 64, 127
5, 43697, Control_c, 0, 64, 0
5, 43783, Control_c, 0, 64, 127
5, 44169, Control_c, 0, 64, 0
5, 44217, Control_c, 0, 64, 127
5, 44651, Control_c, 0, 64, 0
5, 44683, Control_c, 0, 64, 127
5, 45134, Control_c, 0, 64, 0
5, 45177, Control_c, 0, 64, 127
5, 45622, Control_c, 0, 64, 0
5, 45657, Control_c, 0, 64, 127
5, 46088, Control_c, 0, 64, 0
5, 46186, Control_c, 0, 64, 127
5, 47051, Control_c, 0, 64, 0
5, 47125, Control_c, 0, 64, 127
5, 48008, Control_c, 0, 64, 0
5, 48106, Control_c, 0, 64, 127
5, 48971, Control_c, 0, 64, 0
5, 49045, Control_c, 0, 64, 127
5, 49457, Control_c, 0, 64, 0
5, 49543, Control_c, 0, 64, 127
5, 49929, Control_c, 0, 64, 0
5, 49977, Control_c, 0, 64, 127
5, 50411, Control_c, 0, 64, 0
5, 50443, Control_c, 0, 64, 127
5, 50894, Control_c, 0, 64, 0
5, 50937, Control_c, 0, 64, 127
5, 51382, Control_c, 0, 64, 0
5, 51417, Control_c, 0, 64, 127
5, 51848, Control_c, 0, 64, 0
5, 51946, Control_c, 0, 64, 127
5, 53283, Control_c, 0, 64, 0
5, 53300, Control_c, 0, 64, 0
5, 53372, Control_c, 0, 64, 127
5, 53768, Control_c, 0, 64, 0
5, 53859, Control_c, 0, 64, 127
5, 54258, Control_c, 0, 64, 0
5, 54339, Control_c, 0, 64, 127
5, 54737, Control_c, 0, 64, 0
5, 54819, Control_c, 0, 64, 127
5, 55218, Control_c, 0, 64, 0
5, 55278, Control_c, 0, 64, 127
5, 55688, Control_c, 0, 64, 0
5, 55779, Control_c, 0, 64, 127
5, 56178, Control_c, 0, 64, 0
5, 56259, Control_c, 0, 64, 127
5, 56657, Control_c, 0, 64, 0
5, 56739, Control_c, 0, 64, 127
5, 57138, Control_c, 0, 64, 0
5, 57198, Control_c, 0, 64, 127
5, 57608, Control_c, 0, 64, 0
5, 57699, Control_c, 0, 64, 127
5, 58098, Control_c, 0, 64, 0
5, 58179, Control_c, 0, 64, 127
5, 58577, Control_c, 0, 64, 0
5, 58659, Control_c, 0, 64, 127
5, 59058, Control_c, 0, 64, 0
5, 59118, Control_c, 0, 64, 127
5, 59537, Control_c, 0, 64, 0
5, 59619, Control_c, 0, 64, 127
5, 60018, Control_c, 0, 64, 0
5, 60078, Control_c, 0, 64, 127
5, 60486, Control_c, 0, 64, 0
5, 60560, Control_c, 0, 64, 127
5, 60949, Control_c, 0, 64, 0
5, 63368, Control_c, 0, 64, 0
5, 63459, Control_c, 0, 64, 127
5, 63858, Control_c, 0, 64, 0
5, 63939, Control_c, 0, 64, 127
5, 64337, Control_c, 0, 64, 0
5, 64419, Control_c, 0, 64, 127
5, 64818, Control_c, 0, 64, 0
5, 64878, Control_c, 0, 64, 127
5, 65298, Control_c, 0, 64, 0
5, 65344, Control_c, 0, 64, 127
5, 65777, Control_c, 0, 64, 0
5, 65840, Control_c, 0, 64, 127
5, 66257, Control_c, 0, 64, 0
5, 66332, Control_c, 0, 64, 127
5, 66737, Control_c, 0, 64, 0
5, 66823, Control_c, 0, 64, 127
5, 67218, Control_c, 0, 64, 0
5, 67262, Control_c, 0, 64, 127
5, 67697, Control_c, 0, 64, 0
5, 67760, Control_c, 0, 64, 127
5, 68177, Control_c, 0, 64, 0
5, 68252, Control_c, 0, 64, 127
5, 68657, Control_c, 0, 64, 0
5, 68743, Control_c, 0, 64, 127
5, 69138, Control_c, 0, 64, 0
5, 69198, Control_c, 0, 64, 127
5, 71058, Control_c, 0, 64, 0
5, 71102, Control_c, 0, 64, 127
5, 71537, Control_c, 0, 64, 0
5, 71600, Control_c, 0, 64, 127
5, 72017, Control_c, 0, 64, 0
5, 72092, Control_c, 0, 64, 127
5, 72497, Control_c, 0, 64, 0
5, 72583, Control_c, 0, 64, 127
5, 72978, Control_c, 0, 64, 0
5, 73045, Control_c, 0, 64, 127
5, 73920, Control_c, 0, 64, 0
5, 74006, Control_c, 0, 64, 127
5, 74402, Control_c, 0, 64, 0
5, 74476, Control_c, 0, 64, 127
5, 74898, Control_c, 0, 64, 0
5, 74944, Control_c, 0, 64, 127
5, 75857, Control_c, 0, 64, 0
5, 75932, Control_c, 0, 64, 127
5, 76340, Control_c, 0, 64, 0
5, 76393, Control_c, 0, 64, 127
5, 76818, Control_c, 0, 64, 0
5, 76864, Control_c, 0, 64, 127
5, 77774, Control_c, 0, 64, 0
5, 77859, Control_c, 0, 64, 127
5, 78260, Control_c, 0, 64, 0
5, 78332, Control_c, 0, 64, 127
5, 78728, Control_c, 0, 64, 0
5, 78819, Control_c, 0, 64, 127
5, 79218, Control_c, 0, 64, 0
5, 79299, Control_c, 0, 64, 127
5, 79697, Control_c, 0, 64, 0
5, 79779, Control_c, 0, 64, 127
5, 80178, Control_c, 0, 64, 0
5, 80238, Control_c, 0, 64, 127
5, 80658, Control_c, 0, 64, 0
5, 80692, Control_c, 0, 64, 127
5, 81137, Control_c, 0, 64, 0
5, 81200, Control_c, 0, 64, 127
5, 81617, Control_c, 0, 64, 0
5, 81692, Control_c, 0, 64, 127
5, 82097, Control_c, 0, 64, 0
5, 82183, Control_c, 0, 64, 127
5, 82569, Control_c, 0, 64, 0
5, 82617, Control_c, 0, 64, 127
5, 83051, Control_c, 0, 64, 0
5, 83101, Control_c, 0, 64, 127
5, 83534, Control_c, 0, 64, 0
5, 83590, Control_c, 0, 64, 127
5, 83764, Control_c, 0, 64, 0
5, 83811, Control_c, 0, 64, 127
5, 84008, Control_c, 0, 64, 0
5, 84078, Control_c, 0, 64, 127
5, 84488, Control_c, 0, 64, 0
5, 84586, Control_c, 0, 64, 127
5, 85451, Control_c, 0, 64, 0
5, 85525, Control_c, 0, 64, 127
5, 85940, Control_c, 0, 64, 0
5, 86012, Control_c, 0, 64, 127
5, 86408, Control_c, 0, 64, 0
5, 86499, Control_c, 0, 64, 127
5, 86898, Control_c, 0, 64, 0
5, 86979, Control_c, 0, 64, 127
5, 87377, Control_c, 0, 64, 0
5, 87459, Control_c, 0, 64, 127
5, 87858, Control_c, 0, 64, 0
5, 87918, Control_c, 0, 64, 127
5, 88338, Control_c, 0, 64, 0
5, 88372, Control_c, 0, 64, 127
5, 89297, Control_c, 0, 64, 0
5, 89372, Control_c, 0, 64, 127
5, 89778, Control_c, 0, 64, 0
5, 89838, Control_c, 0, 64, 127
5, 90258, Control_c, 0, 64, 0
5, 90292, Control_c, 0, 64, 127
5, 91217, Control_c, 0, 64, 0
5, 91292, Control_c, 0, 64, 127
5, 91444, Control_c, 0, 64, 0
5, 91479, Control_c, 0, 64, 127
5, 91688, Control_c, 0, 64, 0
5, 91737, Control_c, 0, 64, 127
5, 92168, Control_c, 0, 64, 0
5, 92266, Control_c, 0, 64, 127
5, 93131, Control_c, 0, 64, 0
5, 93205, Control_c, 0, 64, 127
5, 93620, Control_c, 0, 64, 0
5, 93692, Control_c, 0, 64, 127
5, 94088, Control_c, 0, 64, 0
5, 94179, Control_c, 0, 64, 127
5, 95057, Control_c, 0, 64, 0
5, 95139, Control_c, 0, 64, 127
5, 95538, Control_c, 0, 64, 0
5, 95598, Control_c, 0, 64, 127
5, 96018, Control_c, 0, 64, 0
5, 96052, Control_c, 0, 64, 127
5, 96977, Control_c, 0, 64, 0
5, 97052, Control_c, 0, 64, 127
5, 97458, Control_c, 0, 64, 0
5, 97518, Control_c, 0, 64, 127
5, 97938, Control_c, 0, 64, 0
5, 97972, Control_c, 0, 64, 127
5, 98417, Control_c, 0, 64, 0
5, 98520, Control_c, 0, 64, 127
5, 98892, Control_c, 0, 64, 0
5, 98983, Control_c, 0, 64, 127
5, 99848, Control_c, 0, 64, 0
5, 99946, Control_c, 0, 64, 127
5, 100334, Control_c, 0, 64, 0
5, 100417, Control_c, 0, 64, 127
5, 100811, Control_c, 0, 64, 0
5, 100885, Control_c, 0, 64, 127
5, 101774, Control_c, 0, 64, 0
5, 101937, Control_c, 0, 64, 127
5, 102731, Control_c, 0, 64, 0
5, 102805, Control_c, 0, 64, 127
5, 103688, Control_c, 0, 64, 0
5, 103786, Control_c, 0, 64, 127
5, 104651, Control_c, 0, 64, 0
5, 104725, Control_c, 0, 64, 127
5, 105137, Control_c, 0, 64, 0
5, 105223, Control_c, 0, 64, 127
5, 105609, Control_c, 0, 64, 0
5, 105657, Control_c, 0, 64, 127
5, 106091, Control_c, 0, 64, 0
5, 106158, Control_c, 0, 64, 127
5, 106574, Control_c, 0, 64, 0
5, 106617, Control_c, 0, 64, 127
5, 107062, Control_c, 0, 64, 0
5, 107124, Control_c, 0, 64, 127
5, 107528, Control_c, 0, 64, 0
5, 107626, Control_c, 0, 64, 127
5, 108962, Control_c, 0, 64, 0
5, 109036, Control_c, 0, 64, 127
5, 109458, Control_c, 0, 64, 0
5, 109504, Control_c, 0, 64, 127
5, 110882, Control_c, 0, 64, 0
5, 110956, Control_c, 0, 64, 127
5, 111378, Control_c, 0, 64, 0
5, 111424, Control_c, 0, 64, 127
5, 112802, Control_c, 0, 64, 0
5, 112876, Control_c, 0, 64, 127
5, 113298, Control_c, 0, 64, 0
5, 113344, Control_c, 0, 64, 127
5, 114251, Control_c, 0, 64, 0
5, 114374, Control_c, 0, 64, 127
5, 120480, Control_c, 0, 64, 0
5, 120480, End_track
6, 0, Start_track
6, 0, Title_t, "Mendelssohn: Song without words Opus 19 No. 1"
6, 0, End_track
7, 0, Start_track
7, 0, Title_t, "Copyright © 2010 by Bernd Krueger"
7, 0, End_track
8, 0, Start_track
8, 0, Title_t, "http://www.piano-midi.de/"
8, 0, End_track
9, 0, Start_track
9, 0, Title_t, "Edition: 2014-09-27"
9, 0, End_track
10, 0, Start_track
10, 0, Title_t, "Spur 9"
10, 0, End_track
11, 0, Start_track
11, 0, Title_t, "Spur 10"
11, 0, End_track
12, 0, Start_track
12, 0, Title_t, "Spur 11"
12, 0, End_track
13, 0, Start_track
13, 0, Title_t, "Spur 12"
13, 0, End_track
14, 0, Start_track
14, 0, Title_t, "Spur 13"
14, 0, End_track
15, 0, Start_track
15, 0, Title_t, "Spur 14"
15, 0, End_track
16, 0, Start_track
16, 0, Title_t, "Spur 15"
16, 0, End_track
17, 0, Start_track
17, 0, Title_t, "Spur 16"
17, 0, End_track
18, 0, Start_track
18, 0, Title_t, "Spur 17"
18, 0, End_track
0, 0, End_of_file
