0, 0, Header, 1, 17, 480
1, 0, Start_track
1, 0, Title_t, "Mendelssohn: Lieder ohne Worte Opus 19 Nr. 3"
1, 0, Title_t, "Jägerlied"
1, 0, Copyright_t, "Copyright © 2014 by Bernd Krueger"
1, 0, Text_t, "Bernd Krueger"
1, 0, Text_t, "Molto Allegro e vivace"
1, 0, Text_t, "Erstellt: 29.10.2014\012"
1, 0, Text_t, "Dauer: 2:18 Minuten\012"
1, 0, Time_signature, 6, 3, 12, 8
1, 0, Key_signature, 3, "major"
1, 0, Tempo, 377572
1, 0, Marker_t, "Molto Allegro Vivace"
1, 192, Tempo, 372555
1, 269, Tempo, 371264
1, 346, Tempo, 369982
1, 423, Tempo, 368686
1, 480, Tempo, 384665
1, 720, Tempo, 376506
1, 1594, Tempo, 373878
1, 1671, Tempo, 372555
1, 1728, Tempo, 371264
1, 1805, Tempo, 369982
1, 1863, Tempo, 368686
1, 1920, Tempo, 386051
1, 2170, Tempo, 376506
1, 2995, Tempo, 373878
1, 3053, Tempo, 372555
1, 3111, Tempo, 371264
1, 3168, Tempo, 369982
1, 3226, Tempo, 368686
1, 3283, Tempo, 367422
1, 3341, Tempo, 366166
1, 3360, Tempo, 386051
1, 3610, Tempo, 376506
1, 3840, Tempo, 373878
1, 4080, Tempo, 381898
1, 4320, Tempo, 368686
1, 4560, Tempo, 376506
1, 4800, Tempo, 397588
1, 5040, Tempo, 366166
1, 5280, Tempo, 381898
1, 5520, Tempo, 445534
1, 5760, Tempo, 414737
1, 6480, Tempo, 436681
1, 6480, Marker_t, "Part I"
1, 6720, Tempo, 364897
1, 7200, Tempo, 368686
1, 7680, Tempo, 386051
1, 7920, Tempo, 368686
1, 9120, Tempo, 380542
1, 9360, Tempo, 368686
1, 9840, Tempo, 416175
1, 10080, Tempo, 362428
1, 10560, Tempo, 381898
1, 10800, Tempo, 396904
1, 11280, Tempo, 483209
1, 11520, Tempo, 399547
1, 12240, Tempo, 469962
1, 12600, Tempo, 364897
1, 12960, Tempo, 368686
1, 13440, Tempo, 386051
1, 13680, Tempo, 368686
1, 14880, Tempo, 380542
1, 15120, Tempo, 402226
1, 15360, Tempo, 368845
1, 15600, Tempo, 386051
1, 15840, Tempo, 362428
1, 16320, Tempo, 381898
1, 17280, Tempo, 367422
1, 17520, Tempo, 381898
1, 18000, Tempo, 404940
1, 18240, Tempo, 363262
1, 18480, Tempo, 381898
1, 18720, Tempo, 362428
1, 19200, Tempo, 381898
1, 20160, Tempo, 367422
1, 20400, Tempo, 381898
1, 20640, Tempo, 402226
1, 20880, Tempo, 362428
1, 21120, Tempo, 364897
1, 21600, Tempo, 368686
1, 22080, Tempo, 386051
1, 22320, Tempo, 368686
1, 23040, Tempo, 357569
1, 23280, Tempo, 367422
1, 23760, Tempo, 368686
1, 24000, Tempo, 433119
1, 24120, Tempo, 364897
1, 24480, Tempo, 368686
1, 24960, Tempo, 386051
1, 25680, Tempo, 364897
1, 25920, Tempo, 368686
1, 26400, Tempo, 386051
1, 27360, Tempo, 368686
1, 27840, Tempo, 386051
1, 28560, Tempo, 364897
1, 28800, Tempo, 368686
1, 29280, Tempo, 386051
1, 30240, Tempo, 368686
1, 30720, Tempo, 386051
1, 31440, Tempo, 364897
1, 31680, Tempo, 368686
1, 32160, Tempo, 386051
1, 32640, Tempo, 364897
1, 33120, Tempo, 356358
1, 34320, Tempo, 376506
1, 34560, Tempo, 356358
1, 35280, Tempo, 367422
1, 35520, Tempo, 356358
1, 36000, Tempo, 349365
1, 36240, Tempo, 356358
1, 38640, Tempo, 376506
1, 38880, Tempo, 349365
1, 39120, Tempo, 354003
1, 39840, Tempo, 367422
1, 40080, Tempo, 386051
1, 40320, Tempo, 368686
1, 40800, Tempo, 368686
1, 41040, Tempo, 436681
1, 41040, Marker_t, "Part I repitition"
1, 41280, Tempo, 364897
1, 41760, Tempo, 368686
1, 42240, Tempo, 386051
1, 42480, Tempo, 368686
1, 43680, Tempo, 380542
1, 43920, Tempo, 368686
1, 44400, Tempo, 402226
1, 44640, Tempo, 362428
1, 45120, Tempo, 381898
1, 45360, Tempo, 368686
1, 45600, Tempo, 400882
1, 45840, Tempo, 499293
1, 46080, Tempo, 385431
1, 46800, Tempo, 457422
1, 47160, Tempo, 364897
1, 47520, Tempo, 368686
1, 48000, Tempo, 386051
1, 48240, Tempo, 368686
1, 49440, Tempo, 380542
1, 49680, Tempo, 368686
1, 50160, Tempo, 386051
1, 50400, Tempo, 362428
1, 50880, Tempo, 381898
1, 51840, Tempo, 367422
1, 52080, Tempo, 381898
1, 52560, Tempo, 362428
1, 53040, Tempo, 381898
1, 53280, Tempo, 362428
1, 53760, Tempo, 381898
1, 54720, Tempo, 367422
1, 54960, Tempo, 381898
1, 55440, Tempo, 373436
1, 55680, Tempo, 364897
1, 56160, Tempo, 368686
1, 56640, Tempo, 386051
1, 56880, Tempo, 368686
1, 57600, Tempo, 357569
1, 57840, Tempo, 367422
1, 58320, Tempo, 368686
1, 58560, Tempo, 433119
1, 58680, Tempo, 364897
1, 59040, Tempo, 368686
1, 59520, Tempo, 386051
1, 60240, Tempo, 364897
1, 60480, Tempo, 368686
1, 60960, Tempo, 386051
1, 61920, Tempo, 368686
1, 62400, Tempo, 386051
1, 63120, Tempo, 364897
1, 63360, Tempo, 368686
1, 63840, Tempo, 386051
1, 64800, Tempo, 368686
1, 65280, Tempo, 386051
1, 66000, Tempo, 364897
1, 66240, Tempo, 368686
1, 66720, Tempo, 386051
1, 67200, Tempo, 364897
1, 67680, Tempo, 356358
1, 68880, Tempo, 376506
1, 69120, Tempo, 356358
1, 69840, Tempo, 367422
1, 70080, Tempo, 356358
1, 70560, Tempo, 349365
1, 70800, Tempo, 356358
1, 73200, Tempo, 376506
1, 73440, Tempo, 349365
1, 73680, Tempo, 354003
1, 74400, Tempo, 367422
1, 74640, Tempo, 386051
1, 74880, Tempo, 394296
1, 75600, Tempo, 368845
1, 75600, Marker_t, "Part II"
1, 75840, Tempo, 364897
1, 76320, Tempo, 368686
1, 76800, Tempo, 386051
1, 77040, Tempo, 368686
1, 77760, Tempo, 368686
1, 78240, Tempo, 386051
1, 78480, Tempo, 364210
1, 78720, Tempo, 364897
1, 78960, Tempo, 376790
1, 79200, Tempo, 368686
1, 79680, Tempo, 386051
1, 79920, Tempo, 368686
1, 80640, Tempo, 368686
1, 81360, Tempo, 368686
1, 81600, Tempo, 364897
1, 82080, Tempo, 368686
1, 82560, Tempo, 386051
1, 82800, Tempo, 368686
1, 83520, Tempo, 368686
1, 84000, Tempo, 386051
1, 84240, Tempo, 364210
1, 84480, Tempo, 364897
1, 84720, Tempo, 376790
1, 84960, Tempo, 368686
1, 85440, Tempo, 386051
1, 85680, Tempo, 368686
1, 86400, Tempo, 368686
1, 87120, Tempo, 364365
1, 87600, Tempo, 375775
1, 87840, Tempo, 368845
1, 88560, Tempo, 363262
1, 89040, Tempo, 374602
1, 89280, Tempo, 368845
1, 90000, Tempo, 364365
1, 90480, Tempo, 373436
1, 90720, Tempo, 367715
1, 91200, Tempo, 377977
1, 91440, Tempo, 368686
1, 91920, Tempo, 376790
1, 92160, Tempo, 369822
1, 92640, Tempo, 379171
1, 92880, Tempo, 369822
1, 93600, Tempo, 366435
1, 93840, Tempo, 370966
1, 94080, Tempo, 374438
1, 94320, Tempo, 368686
1, 94560, Tempo, 369822
1, 94800, Tempo, 374438
1, 95040, Tempo, 366435
1, 95280, Tempo, 367557
1, 95520, Tempo, 374438
1, 95760, Tempo, 364210
1, 96000, Tempo, 367557
1, 96240, Tempo, 373274
1, 96480, Tempo, 367557
1, 96960, Tempo, 374438
1, 97200, Tempo, 367557
1, 97680, Tempo, 373274
1, 97920, Tempo, 367557
1, 98400, Tempo, 375610
1, 98640, Tempo, 367557
1, 99360, Tempo, 367557
1, 99840, Tempo, 381582
1, 100080, Tempo, 366435
1, 100560, Tempo, 377977
1, 100800, Tempo, 366435
1, 101760, Tempo, 358766
1, 102000, Tempo, 373274
1, 102240, Tempo, 366435
1, 103200, Tempo, 385431
1, 103440, Tempo, 445534
1, 103680, Tempo, 366435
1, 104640, Tempo, 358766
1, 104880, Tempo, 373274
1, 105120, Tempo, 366435
1, 105840, Tempo, 387923
1, 106080, Tempo, 360924
1, 106320, Tempo, 384025
1, 106560, Tempo, 368686
1, 107040, Tempo, 386051
1, 107280, Tempo, 368686
1, 108480, Tempo, 380542
1, 108720, Tempo, 368686
1, 109200, Tempo, 386051
1, 109440, Tempo, 362428
1, 109920, Tempo, 381898
1, 110160, Tempo, 406311
1, 110640, Tempo, 483209
1, 110880, Tempo, 385431
1, 111600, Tempo, 433119
1, 111960, Tempo, 364897
1, 112320, Tempo, 368686
1, 112800, Tempo, 386051
1, 113040, Tempo, 368686
1, 114240, Tempo, 380542
1, 114480, Tempo, 368686
1, 115200, Tempo, 362428
1, 115680, Tempo, 381898
1, 116160, Tempo, 369253
1, 116640, Tempo, 368121
1, 117120, Tempo, 376199
1, 117360, Tempo, 368121
1, 117840, Tempo, 378573
1, 118080, Tempo, 362428
1, 118560, Tempo, 381898
1, 119040, Tempo, 369253
1, 119520, Tempo, 368121
1, 120000, Tempo, 376199
1, 120240, Tempo, 368121
1, 120720, Tempo, 398221
1, 120960, Tempo, 368686
1, 121440, Tempo, 376199
1, 121920, Tempo, 364897
1, 122160, Tempo, 385877
1, 122400, Tempo, 368686
1, 122880, Tempo, 376199
1, 123360, Tempo, 390447
1, 123600, Tempo, 432682
1, 123840, Tempo, 356358
1, 124560, Tempo, 367422
1, 124800, Tempo, 356358
1, 125280, Tempo, 349365
1, 125520, Tempo, 356358
1, 127920, Tempo, 376506
1, 128160, Tempo, 349365
1, 128400, Tempo, 354003
1, 129120, Tempo, 367422
1, 129360, Tempo, 386051
1, 129600, Tempo, 368686
1, 130800, Tempo, 375023
1, 131040, Tempo, 368121
1, 132240, Tempo, 377382
1, 132480, Tempo, 368121
1, 132960, Tempo, 373855
1, 133200, Tempo, 368121
1, 134400, Tempo, 371540
1, 134640, Tempo, 368121
1, 135593, Tempo, 364764
1, 135689, Tempo, 363658
1, 135785, Tempo, 362560
1, 135881, Tempo, 361468
1, 135977, Tempo, 360382
1, 136053, Tempo, 359303
1, 136080, Tempo, 368121
1, 136994, Tempo, 364764
1, 137071, Tempo, 363658
1, 137129, Tempo, 362560
1, 137205, Tempo, 361468
1, 137263, Tempo, 360382
1, 137340, Tempo, 359303
1, 137397, Tempo, 358230
1, 137455, Tempo, 357164
1, 137493, Tempo, 366995
1, 138434, Tempo, 364764
1, 138511, Tempo, 363658
1, 138588, Tempo, 362560
1, 138665, Tempo, 361468
1, 138741, Tempo, 360382
1, 138818, Tempo, 359303
1, 138876, Tempo, 358230
1, 138953, Tempo, 366995
1, 139951, Tempo, 364764
1, 140047, Tempo, 363658
1, 140143, Tempo, 362560
1, 140239, Tempo, 361468
1, 140335, Tempo, 360382
1, 140412, Tempo, 359303
1, 140431, Tempo, 365876
1, 141314, Tempo, 363658
1, 141449, Tempo, 362560
1, 141564, Tempo, 361468
1, 141698, Tempo, 360382
1, 141813, Tempo, 359303
1, 141833, Tempo, 363658
1, 141852, Tempo, 364764
1, 142200, Tempo, 360924
1, 142320, Tempo, 384025
1, 142560, Tempo, 368686
1, 143040, Tempo, 386051
1, 143280, Tempo, 368686
1, 144480, Tempo, 380542
1, 144720, Tempo, 368686
1, 145200, Tempo, 380542
1, 145440, Tempo, 368686
1, 145920, Tempo, 380542
1, 146160, Tempo, 368686
1, 146640, Tempo, 380542
1, 146880, Tempo, 368686
1, 147360, Tempo, 380542
1, 147600, Tempo, 368686
1, 147840, Tempo, 440626
1, 147960, Tempo, 360924
1, 148080, Tempo, 384025
1, 148320, Tempo, 368686
1, 148800, Tempo, 386051
1, 149040, Tempo, 368686
1, 150240, Tempo, 380542
1, 150480, Tempo, 368686
1, 150960, Tempo, 380542
1, 151200, Tempo, 368686
1, 151680, Tempo, 380542
1, 151920, Tempo, 368686
1, 152400, Tempo, 380542
1, 152640, Tempo, 368686
1, 153120, Tempo, 380542
1, 153360, Tempo, 368686
1, 153600, Tempo, 414737
1, 153720, Tempo, 360924
1, 153840, Tempo, 384025
1, 154080, Tempo, 368686
1, 154560, Tempo, 386051
1, 154800, Tempo, 368686
1, 156000, Tempo, 372278
1, 156480, Tempo, 399547
1, 156720, Tempo, 443885
1, 156840, Tempo, 514271
1, 156960, Tempo, 366591
1, 159600, Tempo, 376955
1, 159720, Tempo, 413309
1, 159840, Tempo, 366591
1, 161040, Tempo, 376955
1, 161160, Tempo, 416175
1, 161280, Tempo, 366591
1, 163200, Tempo, 371126
1, 163440, Tempo, 352589
1, 163680, Tempo, 366591
1, 164640, Tempo, 371126
1, 164880, Tempo, 353628
1, 165120, Tempo, 366591
1, 166080, Tempo, 369982
1, 166320, Tempo, 353628
1, 166560, Tempo, 365475
1, 167520, Tempo, 369982
1, 167760, Tempo, 353628
1, 168000, Tempo, 365475
1, 169440, Tempo, 356782
1, 169800, Tempo, 375775
1, 169920, Tempo, 365475
1, 170880, Tempo, 354673
1, 171240, Tempo, 374602
1, 171360, Tempo, 365475
1, 172320, Tempo, 361076
1, 172560, Tempo, 364365
1, 172680, Tempo, 374602
1, 172800, Tempo, 365475
1, 173520, Tempo, 371126
1, 173530, Tempo, 368845
1, 173607, Tempo, 367715
1, 173665, Tempo, 366591
1, 173722, Tempo, 365475
1, 173780, Tempo, 364365
1, 173837, Tempo, 363262
1, 173895, Tempo, 362166
1, 173972, Tempo, 361076
1, 174029, Tempo, 359993
1, 174087, Tempo, 358916
1, 174145, Tempo, 357846
1, 174202, Tempo, 356782
1, 174240, Tempo, 387923
1, 174240, End_track
2, 0, Start_track
2, 0, Title_t, "Piano right"
2, 0, Program_c, 0, 0
2, 720, Note_on_c, 0, 64, 70
2, 1680, Note_on_c, 0, 64, 0
2, 1680, Note_on_c, 0, 61, 69
2, 1800, Note_on_c, 0, 61, 0
2, 1800, Note_on_c, 0, 64, 72
2, 1920, Note_on_c, 0, 64, 0
2, 1920, Note_on_c, 0, 69, 75
2, 2040, Note_on_c, 0, 69, 0
2, 2040, Note_on_c, 0, 73, 77
2, 2160, Note_on_c, 0, 73, 0
2, 2160, Note_on_c, 0, 76, 85
2, 3120, Note_on_c, 0, 76, 0
2, 3120, Note_on_c, 0, 73, 73
2, 3240, Note_on_c, 0, 73, 0
2, 3240, Note_on_c, 0, 76, 77
2, 3360, Note_on_c, 0, 76, 0
2, 3360, Note_on_c, 0, 81, 80
2, 3480, Note_on_c, 0, 81, 0
2, 3480, Note_on_c, 0, 85, 81
2, 3600, Note_on_c, 0, 85, 0
2, 3600, Note_on_c, 0, 88, 87
2, 3840, Note_on_c, 0, 83, 79
2, 3840, Note_on_c, 0, 76, 67
2, 3900, Note_on_c, 0, 76, 0
2, 3900, Note_on_c, 0, 83, 0
2, 4080, Note_on_c, 0, 83, 70
2, 4080, Note_on_c, 0, 76, 59
2, 4140, Note_on_c, 0, 76, 0
2, 4140, Note_on_c, 0, 83, 0
2, 4320, Note_on_c, 0, 88, 0
2, 4320, Note_on_c, 0, 88, 81
2, 4320, Note_on_c, 0, 85, 81
2, 4320, Note_on_c, 0, 81, 68
2, 4560, Note_on_c, 0, 81, 0
2, 4560, Note_on_c, 0, 85, 0
2, 4560, Note_on_c, 0, 76, 59
2, 4560, Note_on_c, 0, 83, 70
2, 4620, Note_on_c, 0, 83, 0
2, 4620, Note_on_c, 0, 76, 0
2, 4800, Note_on_c, 0, 76, 59
2, 4800, Note_on_c, 0, 83, 70
2, 4860, Note_on_c, 0, 83, 0
2, 4860, Note_on_c, 0, 76, 0
2, 5040, Note_on_c, 0, 88, 0
2, 5040, Note_on_c, 0, 88, 76
2, 5040, Note_on_c, 0, 85, 76
2, 5040, Note_on_c, 0, 81, 64
2, 5280, Note_on_c, 0, 81, 0
2, 5280, Note_on_c, 0, 85, 0
2, 5280, Note_on_c, 0, 76, 59
2, 5280, Note_on_c, 0, 83, 70
2, 5340, Note_on_c, 0, 83, 0
2, 5340, Note_on_c, 0, 76, 0
2, 5520, Note_on_c, 0, 76, 59
2, 5520, Note_on_c, 0, 83, 70
2, 5580, Note_on_c, 0, 83, 0
2, 5580, Note_on_c, 0, 76, 0
2, 5760, Note_on_c, 0, 88, 0
2, 5760, Note_on_c, 0, 88, 83
2, 5760, Note_on_c, 0, 81, 71
2, 6240, Note_on_c, 0, 81, 0
2, 6240, Note_on_c, 0, 88, 0
2, 6840, Note_on_c, 0, 64, 59
2, 6840, Note_on_c, 0, 69, 70
2, 6948, Note_on_c, 0, 69, 0
2, 6948, Note_on_c, 0, 64, 0
2, 6960, Note_on_c, 0, 69, 68
2, 6960, Note_on_c, 0, 64, 57
2, 7140, Note_on_c, 0, 64, 0
2, 7140, Note_on_c, 0, 69, 0
2, 7200, Note_on_c, 0, 64, 59
2, 7200, Note_on_c, 0, 69, 70
2, 7440, Note_on_c, 0, 69, 0
2, 7440, Note_on_c, 0, 64, 0
2, 7440, Note_on_c, 0, 71, 69
2, 7440, Note_on_c, 0, 68, 58
2, 7680, Note_on_c, 0, 68, 0
2, 7680, Note_on_c, 0, 71, 0
2, 7680, Note_on_c, 0, 73, 69
2, 7680, Note_on_c, 0, 69, 69
2, 7680, Note_on_c, 0, 64, 58
2, 7800, Note_on_c, 0, 64, 0
2, 7800, Note_on_c, 0, 69, 0
2, 7800, Note_on_c, 0, 73, 0
2, 7920, Note_on_c, 0, 73, 73
2, 7920, Note_on_c, 0, 69, 73
2, 7920, Note_on_c, 0, 64, 62
2, 8400, Note_on_c, 0, 64, 0
2, 8400, Note_on_c, 0, 69, 0
2, 8400, Note_on_c, 0, 73, 0
2, 8400, Note_on_c, 0, 73, 65
2, 8400, Note_on_c, 0, 69, 55
2, 8580, Note_on_c, 0, 69, 0
2, 8580, Note_on_c, 0, 73, 0
2, 8640, Note_on_c, 0, 69, 59
2, 8640, Note_on_c, 0, 73, 70
2, 8880, Note_on_c, 0, 73, 0
2, 8880, Note_on_c, 0, 69, 0
2, 8880, Note_on_c, 0, 74, 66
2, 8880, Note_on_c, 0, 71, 56
2, 9120, Note_on_c, 0, 71, 0
2, 9120, Note_on_c, 0, 74, 0
2, 9120, Note_on_c, 0, 76, 64
2, 9120, Note_on_c, 0, 73, 54
2, 9120, Note_on_c, 0, 69, 54
2, 9240, Note_on_c, 0, 69, 0
2, 9240, Note_on_c, 0, 73, 0
2, 9240, Note_on_c, 0, 76, 0
2, 9360, Note_on_c, 0, 76, 78
2, 9360, Note_on_c, 0, 73, 66
2, 9360, Note_on_c, 0, 69, 66
2, 9720, Note_on_c, 0, 69, 0
2, 9720, Note_on_c, 0, 73, 0
2, 9720, Note_on_c, 0, 76, 0
2, 9720, Note_on_c, 0, 74, 59
2, 9720, Note_on_c, 0, 78, 70
2, 9828, Note_on_c, 0, 78, 0
2, 9828, Note_on_c, 0, 74, 0
2, 9840, Note_on_c, 0, 74, 62
2, 9840, Note_on_c, 0, 78, 73
2, 10020, Note_on_c, 0, 78, 0
2, 10020, Note_on_c, 0, 74, 0
2, 10080, Note_on_c, 0, 81, 80
2, 10080, Note_on_c, 0, 78, 68
2, 10080, Note_on_c, 0, 69, 68
2, 10440, Note_on_c, 0, 69, 0
2, 10440, Note_on_c, 0, 78, 0
2, 10440, Note_on_c, 0, 81, 0
2, 10440, Note_on_c, 0, 78, 61
2, 10440, Note_on_c, 0, 81, 72
2, 10548, Note_on_c, 0, 81, 0
2, 10548, Note_on_c, 0, 78, 0
2, 10560, Note_on_c, 0, 81, 72
2, 10560, Note_on_c, 0, 78, 61
2, 10740, Note_on_c, 0, 78, 0
2, 10740, Note_on_c, 0, 81, 0
2, 10800, Note_on_c, 0, 69, 66
2, 10800, Note_on_c, 0, 78, 66
2, 10800, Note_on_c, 0, 81, 78
2, 11040, Note_on_c, 0, 81, 0
2, 11040, Note_on_c, 0, 78, 0
2, 11040, Note_on_c, 0, 69, 0
2, 11040, Note_on_c, 0, 80, 66
2, 11040, Note_on_c, 0, 76, 56
2, 11280, Note_on_c, 0, 76, 0
2, 11280, Note_on_c, 0, 80, 0
2, 11280, Note_on_c, 0, 78, 66
2, 11280, Note_on_c, 0, 74, 56
2, 11400, Note_on_c, 0, 74, 0
2, 11400, Note_on_c, 0, 78, 0
2, 11520, Note_on_c, 0, 78, 76
2, 11520, Note_on_c, 0, 74, 64
2, 11520, Note_on_c, 0, 69, 64
2, 12240, Note_on_c, 0, 69, 0
2, 12240, Note_on_c, 0, 74, 0
2, 12240, Note_on_c, 0, 78, 0
2, 12240, Note_on_c, 0, 76, 66
2, 12240, Note_on_c, 0, 73, 56
2, 12480, Note_on_c, 0, 73, 0
2, 12480, Note_on_c, 0, 76, 0
2, 12600, Note_on_c, 0, 64, 59
2, 12600, Note_on_c, 0, 69, 70
2, 12708, Note_on_c, 0, 69, 0
2, 12708, Note_on_c, 0, 64, 0
2, 12720, Note_on_c, 0, 69, 68
2, 12720, Note_on_c, 0, 64, 57
2, 12900, Note_on_c, 0, 64, 0
2, 12900, Note_on_c, 0, 69, 0
2, 12960, Note_on_c, 0, 64, 59
2, 12960, Note_on_c, 0, 69, 70
2, 13200, Note_on_c, 0, 69, 0
2, 13200, Note_on_c, 0, 64, 0
2, 13200, Note_on_c, 0, 71, 69
2, 13200, Note_on_c, 0, 68, 58
2, 13440, Note_on_c, 0, 68, 0
2, 13440, Note_on_c, 0, 71, 0
2, 13440, Note_on_c, 0, 73, 69
2, 13440, Note_on_c, 0, 69, 69
2, 13440, Note_on_c, 0, 64, 58
2, 13560, Note_on_c, 0, 64, 0
2, 13560, Note_on_c, 0, 69, 0
2, 13560, Note_on_c, 0, 73, 0
2, 13680, Note_on_c, 0, 73, 73
2, 13680, Note_on_c, 0, 69, 73
2, 13680, Note_on_c, 0, 64, 62
2, 14160, Note_on_c, 0, 64, 0
2, 14160, Note_on_c, 0, 69, 0
2, 14160, Note_on_c, 0, 73, 0
2, 14160, Note_on_c, 0, 73, 65
2, 14160, Note_on_c, 0, 69, 55
2, 14340, Note_on_c, 0, 69, 0
2, 14340, Note_on_c, 0, 73, 0
2, 14400, Note_on_c, 0, 69, 59
2, 14400, Note_on_c, 0, 73, 70
2, 14640, Note_on_c, 0, 73, 0
2, 14640, Note_on_c, 0, 69, 0
2, 14640, Note_on_c, 0, 74, 66
2, 14640, Note_on_c, 0, 71, 56
2, 14880, Note_on_c, 0, 71, 0
2, 14880, Note_on_c, 0, 74, 0
2, 14880, Note_on_c, 0, 76, 64
2, 14880, Note_on_c, 0, 73, 54
2, 14880, Note_on_c, 0, 69, 54
2, 15000, Note_on_c, 0, 69, 0
2, 15000, Note_on_c, 0, 73, 0
2, 15000, Note_on_c, 0, 76, 0
2, 15120, Note_on_c, 0, 76, 78
2, 15120, Note_on_c, 0, 73, 66
2, 15120, Note_on_c, 0, 69, 66
2, 15480, Note_on_c, 0, 69, 0
2, 15480, Note_on_c, 0, 73, 0
2, 15480, Note_on_c, 0, 76, 0
2, 15480, Note_on_c, 0, 73, 44
2, 15480, Note_on_c, 0, 78, 52
2, 15588, Note_on_c, 0, 78, 0
2, 15588, Note_on_c, 0, 73, 0
2, 15600, Note_on_c, 0, 73, 46
2, 15600, Note_on_c, 0, 78, 54
2, 15780, Note_on_c, 0, 78, 0
2, 15780, Note_on_c, 0, 73, 0
2, 15840, Note_on_c, 0, 81, 60
2, 15840, Note_on_c, 0, 73, 51
2, 16200, Note_on_c, 0, 73, 0
2, 16200, Note_on_c, 0, 81, 0
2, 16200, Note_on_c, 0, 73, 45
2, 16200, Note_on_c, 0, 81, 54
2, 16308, Note_on_c, 0, 81, 0
2, 16308, Note_on_c, 0, 73, 0
2, 16320, Note_on_c, 0, 81, 54
2, 16320, Note_on_c, 0, 73, 45
2, 16500, Note_on_c, 0, 73, 0
2, 16500, Note_on_c, 0, 81, 0
2, 16560, Note_on_c, 0, 73, 51
2, 16560, Note_on_c, 0, 81, 60
2, 16800, Note_on_c, 0, 81, 0
2, 16800, Note_on_c, 0, 80, 60
2, 17040, Note_on_c, 0, 80, 0
2, 17040, Note_on_c, 0, 78, 60
2, 17280, Note_on_c, 0, 78, 0
2, 17280, Note_on_c, 0, 85, 60
2, 17520, Note_on_c, 0, 85, 0
2, 17520, Note_on_c, 0, 81, 60
2, 17760, Note_on_c, 0, 81, 0
2, 17760, Note_on_c, 0, 80, 55
2, 18000, Note_on_c, 0, 80, 0
2, 18000, Note_on_c, 0, 78, 55
2, 18360, Note_on_c, 0, 78, 0
2, 18360, Note_on_c, 0, 73, 0
2, 18360, Note_on_c, 0, 73, 45
2, 18360, Note_on_c, 0, 78, 54
2, 18468, Note_on_c, 0, 78, 0
2, 18468, Note_on_c, 0, 73, 0
2, 18480, Note_on_c, 0, 78, 54
2, 18480, Note_on_c, 0, 73, 45
2, 18660, Note_on_c, 0, 73, 0
2, 18660, Note_on_c, 0, 78, 0
2, 18720, Note_on_c, 0, 73, 51
2, 18720, Note_on_c, 0, 81, 60
2, 19080, Note_on_c, 0, 81, 0
2, 19080, Note_on_c, 0, 81, 54
2, 19188, Note_on_c, 0, 81, 0
2, 19200, Note_on_c, 0, 81, 54
2, 19380, Note_on_c, 0, 81, 0
2, 19440, Note_on_c, 0, 81, 60
2, 19680, Note_on_c, 0, 81, 0
2, 19680, Note_on_c, 0, 80, 60
2, 19920, Note_on_c, 0, 80, 0
2, 19920, Note_on_c, 0, 78, 60
2, 20160, Note_on_c, 0, 78, 0
2, 20160, Note_on_c, 0, 85, 60
2, 20400, Note_on_c, 0, 85, 0
2, 20400, Note_on_c, 0, 81, 60
2, 20640, Note_on_c, 0, 81, 0
2, 20640, Note_on_c, 0, 80, 55
2, 20880, Note_on_c, 0, 80, 0
2, 20880, Note_on_c, 0, 78, 55
2, 21120, Note_on_c, 0, 78, 0
2, 21120, Note_on_c, 0, 73, 0
2, 21120, Note_on_c, 0, 83, 83
2, 21120, Note_on_c, 0, 71, 70
2, 21240, Note_on_c, 0, 71, 0
2, 21240, Note_on_c, 0, 83, 0
2, 21360, Note_on_c, 0, 71, 66
2, 21360, Note_on_c, 0, 83, 78
2, 21480, Note_on_c, 0, 83, 0
2, 21480, Note_on_c, 0, 71, 0
2, 21600, Note_on_c, 0, 71, 74
2, 21600, Note_on_c, 0, 83, 88
2, 22320, Note_on_c, 0, 83, 0
2, 22320, Note_on_c, 0, 71, 0
2, 22320, Note_on_c, 0, 71, 71
2, 22320, Note_on_c, 0, 83, 84
2, 23040, Note_on_c, 0, 83, 0
2, 23040, Note_on_c, 0, 71, 0
2, 23040, Note_on_c, 0, 71, 86
2, 23040, Note_on_c, 0, 83, 86
2, 23400, Note_on_c, 0, 71, 0
2, 23400, Note_on_c, 0, 71, 71
2, 23508, Note_on_c, 0, 71, 0
2, 23520, Note_on_c, 0, 71, 71
2, 23640, Note_on_c, 0, 71, 0
2, 23760, Note_on_c, 0, 71, 85
2, 24000, Note_on_c, 0, 71, 0
2, 24000, Note_on_c, 0, 83, 0
2, 24000, Note_on_c, 0, 76, 58
2, 24000, Note_on_c, 0, 71, 49
2, 24120, Note_on_c, 0, 71, 0
2, 24120, Note_on_c, 0, 76, 0
2, 24240, Note_on_c, 0, 71, 45
2, 24240, Note_on_c, 0, 76, 53
2, 24360, Note_on_c, 0, 76, 0
2, 24360, Note_on_c, 0, 71, 0
2, 24480, Note_on_c, 0, 76, 62
2, 24480, Note_on_c, 0, 71, 52
2, 24720, Note_on_c, 0, 71, 0
2, 24720, Note_on_c, 0, 76, 0
2, 24720, Note_on_c, 0, 75, 45
2, 24720, Note_on_c, 0, 78, 53
2, 24960, Note_on_c, 0, 78, 0
2, 24960, Note_on_c, 0, 75, 0
2, 24960, Note_on_c, 0, 80, 49
2, 24960, Note_on_c, 0, 76, 41
2, 25080, Note_on_c, 0, 76, 0
2, 25080, Note_on_c, 0, 80, 0
2, 25200, Note_on_c, 0, 80, 53
2, 25200, Note_on_c, 0, 76, 45
2, 25680, Note_on_c, 0, 76, 0
2, 25680, Note_on_c, 0, 80, 0
2, 25680, Note_on_c, 0, 80, 55
2, 25680, Note_on_c, 0, 76, 46
2, 25800, Note_on_c, 0, 76, 0
2, 25800, Note_on_c, 0, 80, 0
2, 25920, Note_on_c, 0, 80, 78
2, 25920, Note_on_c, 0, 76, 66
2, 26160, Note_on_c, 0, 76, 0
2, 26160, Note_on_c, 0, 80, 0
2, 26160, Note_on_c, 0, 85, 68
2, 26400, Note_on_c, 0, 85, 0
2, 26400, Note_on_c, 0, 88, 71
2, 26520, Note_on_c, 0, 88, 0
2, 26640, Note_on_c, 0, 88, 79
2, 27000, Note_on_c, 0, 88, 0
2, 27000, Note_on_c, 0, 76, 72
2, 27000, Note_on_c, 0, 73, 61
2, 27108, Note_on_c, 0, 73, 0
2, 27108, Note_on_c, 0, 76, 0
2, 27120, Note_on_c, 0, 76, 75
2, 27120, Note_on_c, 0, 73, 63
2, 27240, Note_on_c, 0, 73, 0
2, 27240, Note_on_c, 0, 76, 0
2, 27360, Note_on_c, 0, 76, 81
2, 27360, Note_on_c, 0, 71, 69
2, 27600, Note_on_c, 0, 71, 0
2, 27600, Note_on_c, 0, 76, 0
2, 27600, Note_on_c, 0, 75, 59
2, 27600, Note_on_c, 0, 78, 70
2, 27840, Note_on_c, 0, 78, 0
2, 27840, Note_on_c, 0, 75, 0
2, 27840, Note_on_c, 0, 80, 66
2, 27840, Note_on_c, 0, 76, 55
2, 27960, Note_on_c, 0, 76, 0
2, 27960, Note_on_c, 0, 80, 0
2, 28080, Note_on_c, 0, 80, 72
2, 28080, Note_on_c, 0, 76, 61
2, 28560, Note_on_c, 0, 76, 0
2, 28560, Note_on_c, 0, 80, 0
2, 28560, Note_on_c, 0, 80, 77
2, 28560, Note_on_c, 0, 76, 63
2, 28680, Note_on_c, 0, 76, 0
2, 28680, Note_on_c, 0, 80, 0
2, 28800, Note_on_c, 0, 80, 96
2, 28800, Note_on_c, 0, 76, 82
2, 29040, Note_on_c, 0, 76, 0
2, 29040, Note_on_c, 0, 80, 0
2, 29040, Note_on_c, 0, 85, 85
2, 29280, Note_on_c, 0, 85, 0
2, 29280, Note_on_c, 0, 88, 91
2, 29400, Note_on_c, 0, 88, 0
2, 29520, Note_on_c, 0, 88, 102
2, 29880, Note_on_c, 0, 88, 0
2, 29880, Note_on_c, 0, 76, 83
2, 29880, Note_on_c, 0, 73, 70
2, 29988, Note_on_c, 0, 73, 0
2, 29988, Note_on_c, 0, 76, 0
2, 30000, Note_on_c, 0, 76, 86
2, 30000, Note_on_c, 0, 73, 73
2, 30120, Note_on_c, 0, 73, 0
2, 30120, Note_on_c, 0, 76, 0
2, 30240, Note_on_c, 0, 76, 83
2, 30240, Note_on_c, 0, 71, 70
2, 30600, Note_on_c, 0, 71, 0
2, 30600, Note_on_c, 0, 76, 0
2, 30600, Note_on_c, 0, 78, 88
2, 30720, Note_on_c, 0, 78, 0
2, 30720, Note_on_c, 0, 80, 81
2, 30840, Note_on_c, 0, 80, 0
2, 30960, Note_on_c, 0, 80, 97
2, 30960, Note_on_c, 0, 76, 82
2, 31200, Note_on_c, 0, 76, 0
2, 31200, Note_on_c, 0, 80, 0
2, 31200, Note_on_c, 0, 83, 85
2, 31440, Note_on_c, 0, 83, 0
2, 31440, Note_on_c, 0, 88, 90
2, 31560, Note_on_c, 0, 88, 0
2, 31680, Note_on_c, 0, 81, 95
2, 31680, Note_on_c, 0, 76, 95
2, 31680, Note_on_c, 0, 88, 112
2, 32640, Note_on_c, 0, 88, 0
2, 32640, Note_on_c, 0, 76, 0
2, 32640, Note_on_c, 0, 81, 0
2, 32640, Note_on_c, 0, 87, 78
2, 32760, Note_on_c, 0, 87, 0
2, 32880, Note_on_c, 0, 85, 72
2, 33000, Note_on_c, 0, 85, 0
2, 33120, Note_on_c, 0, 83, 80
2, 33240, Note_on_c, 0, 83, 0
2, 33360, Note_on_c, 0, 81, 68
2, 33480, Note_on_c, 0, 81, 0
2, 33600, Note_on_c, 0, 80, 61
2, 33720, Note_on_c, 0, 80, 0
2, 33840, Note_on_c, 0, 81, 72
2, 33960, Note_on_c, 0, 81, 0
2, 34080, Note_on_c, 0, 78, 62
2, 34200, Note_on_c, 0, 78, 0
2, 34320, Note_on_c, 0, 75, 62
2, 34440, Note_on_c, 0, 75, 0
2, 34560, Note_on_c, 0, 95, 81
2, 34560, Note_on_c, 0, 83, 68
2, 35520, Note_on_c, 0, 83, 0
2, 35520, Note_on_c, 0, 95, 0
2, 35520, Note_on_c, 0, 81, 59
2, 35520, Note_on_c, 0, 93, 70
2, 35640, Note_on_c, 0, 93, 0
2, 35640, Note_on_c, 0, 81, 0
2, 35760, Note_on_c, 0, 80, 59
2, 35760, Note_on_c, 0, 92, 70
2, 35880, Note_on_c, 0, 92, 0
2, 35880, Note_on_c, 0, 80, 0
2, 36000, Note_on_c, 0, 90, 79
2, 36000, Note_on_c, 0, 78, 67
2, 36120, Note_on_c, 0, 78, 0
2, 36120, Note_on_c, 0, 90, 0
2, 36240, Note_on_c, 0, 76, 59
2, 36240, Note_on_c, 0, 88, 70
2, 36360, Note_on_c, 0, 88, 0
2, 36360, Note_on_c, 0, 76, 0
2, 36480, Note_on_c, 0, 75, 59
2, 36480, Note_on_c, 0, 87, 70
2, 36600, Note_on_c, 0, 87, 0
2, 36600, Note_on_c, 0, 75, 0
2, 36720, Note_on_c, 0, 85, 76
2, 36720, Note_on_c, 0, 73, 64
2, 36840, Note_on_c, 0, 73, 0
2, 36840, Note_on_c, 0, 85, 0
2, 36960, Note_on_c, 0, 71, 59
2, 36960, Note_on_c, 0, 83, 70
2, 37080, Note_on_c, 0, 83, 0
2, 37080, Note_on_c, 0, 71, 0
2, 37200, Note_on_c, 0, 70, 59
2, 37200, Note_on_c, 0, 82, 70
2, 37320, Note_on_c, 0, 82, 0
2, 37320, Note_on_c, 0, 70, 0
2, 37440, Note_on_c, 0, 80, 78
2, 37440, Note_on_c, 0, 68, 66
2, 37560, Note_on_c, 0, 68, 0
2, 37560, Note_on_c, 0, 80, 0
2, 37680, Note_on_c, 0, 78, 64
2, 37680, Note_on_c, 0, 66, 54
2, 37800, Note_on_c, 0, 66, 0
2, 37800, Note_on_c, 0, 78, 0
2, 37920, Note_on_c, 0, 76, 64
2, 37920, Note_on_c, 0, 64, 54
2, 38040, Note_on_c, 0, 64, 0
2, 38040, Note_on_c, 0, 76, 0
2, 38160, Note_on_c, 0, 75, 70
2, 38160, Note_on_c, 0, 63, 59
2, 38280, Note_on_c, 0, 63, 0
2, 38280, Note_on_c, 0, 75, 0
2, 38400, Note_on_c, 0, 76, 61
2, 38400, Note_on_c, 0, 64, 51
2, 38520, Note_on_c, 0, 64, 0
2, 38520, Note_on_c, 0, 76, 0
2, 38640, Note_on_c, 0, 73, 61
2, 38640, Note_on_c, 0, 61, 51
2, 38760, Note_on_c, 0, 61, 0
2, 38760, Note_on_c, 0, 73, 0
2, 38880, Note_on_c, 0, 71, 69
2, 38880, Note_on_c, 0, 59, 58
2, 39000, Note_on_c, 0, 59, 0
2, 39000, Note_on_c, 0, 71, 0
2, 39120, Note_on_c, 0, 76, 53
2, 39120, Note_on_c, 0, 64, 45
2, 39240, Note_on_c, 0, 64, 0
2, 39240, Note_on_c, 0, 76, 0
2, 39360, Note_on_c, 0, 68, 53
2, 39360, Note_on_c, 0, 64, 45
2, 39480, Note_on_c, 0, 64, 0
2, 39480, Note_on_c, 0, 68, 0
2, 39600, Note_on_c, 0, 71, 62
2, 39600, Note_on_c, 0, 63, 52
2, 39720, Note_on_c, 0, 63, 0
2, 39720, Note_on_c, 0, 71, 0
2, 39840, Note_on_c, 0, 69, 45
2, 39840, Note_on_c, 0, 63, 38
2, 39960, Note_on_c, 0, 63, 0
2, 39960, Note_on_c, 0, 69, 0
2, 40080, Note_on_c, 0, 66, 45
2, 40080, Note_on_c, 0, 63, 38
2, 40200, Note_on_c, 0, 63, 0
2, 40200, Note_on_c, 0, 66, 0
2, 40320, Note_on_c, 0, 64, 57
2, 40560, Note_on_c, 0, 64, 0
2, 41400, Note_on_c, 0, 64, 59
2, 41400, Note_on_c, 0, 69, 70
2, 41508, Note_on_c, 0, 69, 0
2, 41508, Note_on_c, 0, 64, 0
2, 41520, Note_on_c, 0, 69, 68
2, 41520, Note_on_c, 0, 64, 57
2, 41700, Note_on_c, 0, 64, 0
2, 41700, Note_on_c, 0, 69, 0
2, 41760, Note_on_c, 0, 64, 59
2, 41760, Note_on_c, 0, 69, 70
2, 42000, Note_on_c, 0, 69, 0
2, 42000, Note_on_c, 0, 64, 0
2, 42000, Note_on_c, 0, 71, 69
2, 42000, Note_on_c, 0, 68, 58
2, 42240, Note_on_c, 0, 68, 0
2, 42240, Note_on_c, 0, 71, 0
2, 42240, Note_on_c, 0, 73, 69
2, 42240, Note_on_c, 0, 69, 69
2, 42240, Note_on_c, 0, 64, 58
2, 42360, Note_on_c, 0, 64, 0
2, 42360, Note_on_c, 0, 69, 0
2, 42360, Note_on_c, 0, 73, 0
2, 42480, Note_on_c, 0, 73, 73
2, 42480, Note_on_c, 0, 69, 73
2, 42480, Note_on_c, 0, 64, 62
2, 42960, Note_on_c, 0, 64, 0
2, 42960, Note_on_c, 0, 69, 0
2, 42960, Note_on_c, 0, 73, 0
2, 42960, Note_on_c, 0, 73, 65
2, 42960, Note_on_c, 0, 69, 55
2, 43140, Note_on_c, 0, 69, 0
2, 43140, Note_on_c, 0, 73, 0
2, 43200, Note_on_c, 0, 69, 59
2, 43200, Note_on_c, 0, 73, 70
2, 43440, Note_on_c, 0, 73, 0
2, 43440, Note_on_c, 0, 69, 0
2, 43440, Note_on_c, 0, 74, 66
2, 43440, Note_on_c, 0, 71, 56
2, 43680, Note_on_c, 0, 71, 0
2, 43680, Note_on_c, 0, 74, 0
2, 43680, Note_on_c, 0, 76, 64
2, 43680, Note_on_c, 0, 73, 54
2, 43680, Note_on_c, 0, 69, 54
2, 43800, Note_on_c, 0, 69, 0
2, 43800, Note_on_c, 0, 73, 0
2, 43800, Note_on_c, 0, 76, 0
2, 43920, Note_on_c, 0, 76, 78
2, 43920, Note_on_c, 0, 73, 66
2, 43920, Note_on_c, 0, 69, 66
2, 44280, Note_on_c, 0, 69, 0
2, 44280, Note_on_c, 0, 73, 0
2, 44280, Note_on_c, 0, 76, 0
2, 44280, Note_on_c, 0, 74, 59
2, 44280, Note_on_c, 0, 78, 70
2, 44388, Note_on_c, 0, 78, 0
2, 44388, Note_on_c, 0, 74, 0
2, 44400, Note_on_c, 0, 74, 62
2, 44400, Note_on_c, 0, 78, 73
2, 44580, Note_on_c, 0, 78, 0
2, 44580, Note_on_c, 0, 74, 0
2, 44640, Note_on_c, 0, 81, 80
2, 44640, Note_on_c, 0, 78, 68
2, 44640, Note_on_c, 0, 69, 68
2, 45000, Note_on_c, 0, 69, 0
2, 45000, Note_on_c, 0, 78, 0
2, 45000, Note_on_c, 0, 81, 0
2, 45000, Note_on_c, 0, 78, 61
2, 45000, Note_on_c, 0, 81, 72
2, 45108, Note_on_c, 0, 81, 0
2, 45108, Note_on_c, 0, 78, 0
2, 45120, Note_on_c, 0, 81, 72
2, 45120, Note_on_c, 0, 78, 61
2, 45300, Note_on_c, 0, 78, 0
2, 45300, Note_on_c, 0, 81, 0
2, 45360, Note_on_c, 0, 69, 66
2, 45360, Note_on_c, 0, 78, 66
2, 45360, Note_on_c, 0, 81, 78
2, 45600, Note_on_c, 0, 81, 0
2, 45600, Note_on_c, 0, 78, 0
2, 45600, Note_on_c, 0, 69, 0
2, 45600, Note_on_c, 0, 80, 66
2, 45600, Note_on_c, 0, 76, 56
2, 45840, Note_on_c, 0, 76, 0
2, 45840, Note_on_c, 0, 80, 0
2, 45840, Note_on_c, 0, 78, 66
2, 45840, Note_on_c, 0, 74, 56
2, 45960, Note_on_c, 0, 74, 0
2, 45960, Note_on_c, 0, 78, 0
2, 46080, Note_on_c, 0, 78, 76
2, 46080, Note_on_c, 0, 74, 64
2, 46080, Note_on_c, 0, 69, 64
2, 46800, Note_on_c, 0, 69, 0
2, 46800, Note_on_c, 0, 74, 0
2, 46800, Note_on_c, 0, 78, 0
2, 46800, Note_on_c, 0, 76, 66
2, 46800, Note_on_c, 0, 73, 56
2, 47040, Note_on_c, 0, 73, 0
2, 47040, Note_on_c, 0, 76, 0
2, 47160, Note_on_c, 0, 64, 59
2, 47160, Note_on_c, 0, 69, 70
2, 47268, Note_on_c, 0, 69, 0
2, 47268, Note_on_c, 0, 64, 0
2, 47280, Note_on_c, 0, 69, 68
2, 47280, Note_on_c, 0, 64, 57
2, 47460, Note_on_c, 0, 64, 0
2, 47460, Note_on_c, 0, 69, 0
2, 47520, Note_on_c, 0, 64, 59
2, 47520, Note_on_c, 0, 69, 70
2, 47760, Note_on_c, 0, 69, 0
2, 47760, Note_on_c, 0, 64, 0
2, 47760, Note_on_c, 0, 71, 69
2, 47760, Note_on_c, 0, 68, 58
2, 48000, Note_on_c, 0, 68, 0
2, 48000, Note_on_c, 0, 71, 0
2, 48000, Note_on_c, 0, 73, 69
2, 48000, Note_on_c, 0, 69, 69
2, 48000, Note_on_c, 0, 64, 58
2, 48120, Note_on_c, 0, 64, 0
2, 48120, Note_on_c, 0, 69, 0
2, 48120, Note_on_c, 0, 73, 0
2, 48240, Note_on_c, 0, 73, 73
2, 48240, Note_on_c, 0, 69, 73
2, 48240, Note_on_c, 0, 64, 62
2, 48720, Note_on_c, 0, 64, 0
2, 48720, Note_on_c, 0, 69, 0
2, 48720, Note_on_c, 0, 73, 0
2, 48720, Note_on_c, 0, 73, 65
2, 48720, Note_on_c, 0, 69, 55
2, 48900, Note_on_c, 0, 69, 0
2, 48900, Note_on_c, 0, 73, 0
2, 48960, Note_on_c, 0, 69, 59
2, 48960, Note_on_c, 0, 73, 70
2, 49200, Note_on_c, 0, 73, 0
2, 49200, Note_on_c, 0, 69, 0
2, 49200, Note_on_c, 0, 74, 66
2, 49200, Note_on_c, 0, 71, 56
2, 49440, Note_on_c, 0, 71, 0
2, 49440, Note_on_c, 0, 74, 0
2, 49440, Note_on_c, 0, 76, 64
2, 49440, Note_on_c, 0, 73, 54
2, 49440, Note_on_c, 0, 69, 54
2, 49560, Note_on_c, 0, 69, 0
2, 49560, Note_on_c, 0, 73, 0
2, 49560, Note_on_c, 0, 76, 0
2, 49680, Note_on_c, 0, 76, 78
2, 49680, Note_on_c, 0, 73, 66
2, 49680, Note_on_c, 0, 69, 66
2, 50040, Note_on_c, 0, 69, 0
2, 50040, Note_on_c, 0, 73, 0
2, 50040, Note_on_c, 0, 76, 0
2, 50040, Note_on_c, 0, 73, 44
2, 50040, Note_on_c, 0, 78, 52
2, 50148, Note_on_c, 0, 78, 0
2, 50148, Note_on_c, 0, 73, 0
2, 50160, Note_on_c, 0, 73, 46
2, 50160, Note_on_c, 0, 78, 54
2, 50340, Note_on_c, 0, 78, 0
2, 50340, Note_on_c, 0, 73, 0
2, 50400, Note_on_c, 0, 81, 60
2, 50400, Note_on_c, 0, 73, 51
2, 50760, Note_on_c, 0, 73, 0
2, 50760, Note_on_c, 0, 81, 0
2, 50760, Note_on_c, 0, 73, 45
2, 50760, Note_on_c, 0, 81, 54
2, 50868, Note_on_c, 0, 81, 0
2, 50868, Note_on_c, 0, 73, 0
2, 50880, Note_on_c, 0, 81, 54
2, 50880, Note_on_c, 0, 73, 45
2, 51060, Note_on_c, 0, 73, 0
2, 51060, Note_on_c, 0, 81, 0
2, 51120, Note_on_c, 0, 73, 51
2, 51120, Note_on_c, 0, 81, 60
2, 51360, Note_on_c, 0, 81, 0
2, 51360, Note_on_c, 0, 80, 60
2, 51600, Note_on_c, 0, 80, 0
2, 51600, Note_on_c, 0, 78, 60
2, 51840, Note_on_c, 0, 78, 0
2, 51840, Note_on_c, 0, 85, 60
2, 52080, Note_on_c, 0, 85, 0
2, 52080, Note_on_c, 0, 81, 60
2, 52320, Note_on_c, 0, 81, 0
2, 52320, Note_on_c, 0, 80, 55
2, 52560, Note_on_c, 0, 80, 0
2, 52560, Note_on_c, 0, 78, 55
2, 52920, Note_on_c, 0, 78, 0
2, 52920, Note_on_c, 0, 73, 0
2, 52920, Note_on_c, 0, 73, 45
2, 52920, Note_on_c, 0, 78, 54
2, 53028, Note_on_c, 0, 78, 0
2, 53028, Note_on_c, 0, 73, 0
2, 53040, Note_on_c, 0, 78, 54
2, 53040, Note_on_c, 0, 73, 45
2, 53220, Note_on_c, 0, 73, 0
2, 53220, Note_on_c, 0, 78, 0
2, 53280, Note_on_c, 0, 73, 51
2, 53280, Note_on_c, 0, 81, 60
2, 53640, Note_on_c, 0, 81, 0
2, 53640, Note_on_c, 0, 81, 54
2, 53748, Note_on_c, 0, 81, 0
2, 53760, Note_on_c, 0, 81, 54
2, 53940, Note_on_c, 0, 81, 0
2, 54000, Note_on_c, 0, 81, 60
2, 54240, Note_on_c, 0, 81, 0
2, 54240, Note_on_c, 0, 80, 60
2, 54480, Note_on_c, 0, 80, 0
2, 54480, Note_on_c, 0, 78, 60
2, 54720, Note_on_c, 0, 78, 0
2, 54720, Note_on_c, 0, 85, 60
2, 54960, Note_on_c, 0, 85, 0
2, 54960, Note_on_c, 0, 81, 60
2, 55200, Note_on_c, 0, 81, 0
2, 55200, Note_on_c, 0, 80, 55
2, 55440, Note_on_c, 0, 80, 0
2, 55440, Note_on_c, 0, 78, 55
2, 55680, Note_on_c, 0, 78, 0
2, 55680, Note_on_c, 0, 73, 0
2, 55680, Note_on_c, 0, 83, 83
2, 55680, Note_on_c, 0, 71, 70
2, 55800, Note_on_c, 0, 71, 0
2, 55800, Note_on_c, 0, 83, 0
2, 55920, Note_on_c, 0, 71, 66
2, 55920, Note_on_c, 0, 83, 78
2, 56040, Note_on_c, 0, 83, 0
2, 56040, Note_on_c, 0, 71, 0
2, 56160, Note_on_c, 0, 71, 74
2, 56160, Note_on_c, 0, 83, 88
2, 56880, Note_on_c, 0, 83, 0
2, 56880, Note_on_c, 0, 71, 0
2, 56880, Note_on_c, 0, 71, 71
2, 56880, Note_on_c, 0, 83, 84
2, 57600, Note_on_c, 0, 83, 0
2, 57600, Note_on_c, 0, 71, 0
2, 57600, Note_on_c, 0, 71, 86
2, 57600, Note_on_c, 0, 83, 86
2, 57960, Note_on_c, 0, 71, 0
2, 57960, Note_on_c, 0, 71, 71
2, 58068, Note_on_c, 0, 71, 0
2, 58080, Note_on_c, 0, 71, 71
2, 58200, Note_on_c, 0, 71, 0
2, 58320, Note_on_c, 0, 71, 85
2, 58560, Note_on_c, 0, 71, 0
2, 58560, Note_on_c, 0, 83, 0
2, 58560, Note_on_c, 0, 76, 58
2, 58560, Note_on_c, 0, 71, 49
2, 58680, Note_on_c, 0, 71, 0
2, 58680, Note_on_c, 0, 76, 0
2, 58800, Note_on_c, 0, 71, 45
2, 58800, Note_on_c, 0, 76, 53
2, 58920, Note_on_c, 0, 76, 0
2, 58920, Note_on_c, 0, 71, 0
2, 59040, Note_on_c, 0, 76, 62
2, 59040, Note_on_c, 0, 71, 52
2, 59280, Note_on_c, 0, 71, 0
2, 59280, Note_on_c, 0, 76, 0
2, 59280, Note_on_c, 0, 75, 45
2, 59280, Note_on_c, 0, 78, 53
2, 59520, Note_on_c, 0, 78, 0
2, 59520, Note_on_c, 0, 75, 0
2, 59520, Note_on_c, 0, 80, 49
2, 59520, Note_on_c, 0, 76, 41
2, 59640, Note_on_c, 0, 76, 0
2, 59640, Note_on_c, 0, 80, 0
2, 59760, Note_on_c, 0, 80, 53
2, 59760, Note_on_c, 0, 76, 45
2, 60240, Note_on_c, 0, 76, 0
2, 60240, Note_on_c, 0, 80, 0
2, 60240, Note_on_c, 0, 80, 55
2, 60240, Note_on_c, 0, 76, 46
2, 60360, Note_on_c, 0, 76, 0
2, 60360, Note_on_c, 0, 80, 0
2, 60480, Note_on_c, 0, 80, 78
2, 60480, Note_on_c, 0, 76, 66
2, 60720, Note_on_c, 0, 76, 0
2, 60720, Note_on_c, 0, 80, 0
2, 60720, Note_on_c, 0, 85, 68
2, 60960, Note_on_c, 0, 85, 0
2, 60960, Note_on_c, 0, 88, 71
2, 61080, Note_on_c, 0, 88, 0
2, 61200, Note_on_c, 0, 88, 79
2, 61560, Note_on_c, 0, 88, 0
2, 61560, Note_on_c, 0, 76, 72
2, 61560, Note_on_c, 0, 73, 61
2, 61668, Note_on_c, 0, 73, 0
2, 61668, Note_on_c, 0, 76, 0
2, 61680, Note_on_c, 0, 76, 75
2, 61680, Note_on_c, 0, 73, 63
2, 61800, Note_on_c, 0, 73, 0
2, 61800, Note_on_c, 0, 76, 0
2, 61920, Note_on_c, 0, 76, 81
2, 61920, Note_on_c, 0, 71, 69
2, 62160, Note_on_c, 0, 71, 0
2, 62160, Note_on_c, 0, 76, 0
2, 62160, Note_on_c, 0, 75, 59
2, 62160, Note_on_c, 0, 78, 70
2, 62400, Note_on_c, 0, 78, 0
2, 62400, Note_on_c, 0, 75, 0
2, 62400, Note_on_c, 0, 80, 66
2, 62400, Note_on_c, 0, 76, 55
2, 62520, Note_on_c, 0, 76, 0
2, 62520, Note_on_c, 0, 80, 0
2, 62640, Note_on_c, 0, 80, 72
2, 62640, Note_on_c, 0, 76, 61
2, 63120, Note_on_c, 0, 76, 0
2, 63120, Note_on_c, 0, 80, 0
2, 63120, Note_on_c, 0, 80, 77
2, 63120, Note_on_c, 0, 76, 63
2, 63240, Note_on_c, 0, 76, 0
2, 63240, Note_on_c, 0, 80, 0
2, 63360, Note_on_c, 0, 80, 96
2, 63360, Note_on_c, 0, 76, 82
2, 63600, Note_on_c, 0, 76, 0
2, 63600, Note_on_c, 0, 80, 0
2, 63600, Note_on_c, 0, 85, 85
2, 63840, Note_on_c, 0, 85, 0
2, 63840, Note_on_c, 0, 88, 91
2, 63960, Note_on_c, 0, 88, 0
2, 64080, Note_on_c, 0, 88, 102
2, 64440, Note_on_c, 0, 88, 0
2, 64440, Note_on_c, 0, 76, 83
2, 64440, Note_on_c, 0, 73, 70
2, 64548, Note_on_c, 0, 73, 0
2, 64548, Note_on_c, 0, 76, 0
2, 64560, Note_on_c, 0, 76, 86
2, 64560, Note_on_c, 0, 73, 73
2, 64680, Note_on_c, 0, 73, 0
2, 64680, Note_on_c, 0, 76, 0
2, 64800, Note_on_c, 0, 76, 83
2, 64800, Note_on_c, 0, 71, 70
2, 65160, Note_on_c, 0, 71, 0
2, 65160, Note_on_c, 0, 76, 0
2, 65160, Note_on_c, 0, 78, 88
2, 65280, Note_on_c, 0, 78, 0
2, 65280, Note_on_c, 0, 80, 81
2, 65400, Note_on_c, 0, 80, 0
2, 65520, Note_on_c, 0, 80, 97
2, 65520, Note_on_c, 0, 76, 82
2, 65760, Note_on_c, 0, 76, 0
2, 65760, Note_on_c, 0, 80, 0
2, 65760, Note_on_c, 0, 83, 85
2, 66000, Note_on_c, 0, 83, 0
2, 66000, Note_on_c, 0, 88, 90
2, 66120, Note_on_c, 0, 88, 0
2, 66240, Note_on_c, 0, 81, 95
2, 66240, Note_on_c, 0, 76, 95
2, 66240, Note_on_c, 0, 88, 112
2, 67200, Note_on_c, 0, 88, 0
2, 67200, Note_on_c, 0, 76, 0
2, 67200, Note_on_c, 0, 81, 0
2, 67200, Note_on_c, 0, 87, 78
2, 67320, Note_on_c, 0, 87, 0
2, 67440, Note_on_c, 0, 85, 72
2, 67560, Note_on_c, 0, 85, 0
2, 67680, Note_on_c, 0, 83, 80
2, 67800, Note_on_c, 0, 83, 0
2, 67920, Note_on_c, 0, 81, 68
2, 68040, Note_on_c, 0, 81, 0
2, 68160, Note_on_c, 0, 80, 61
2, 68280, Note_on_c, 0, 80, 0
2, 68400, Note_on_c, 0, 81, 72
2, 68520, Note_on_c, 0, 81, 0
2, 68640, Note_on_c, 0, 78, 62
2, 68760, Note_on_c, 0, 78, 0
2, 68880, Note_on_c, 0, 75, 62
2, 69000, Note_on_c, 0, 75, 0
2, 69120, Note_on_c, 0, 95, 81
2, 69120, Note_on_c, 0, 83, 68
2, 70080, Note_on_c, 0, 83, 0
2, 70080, Note_on_c, 0, 95, 0
2, 70080, Note_on_c, 0, 81, 59
2, 70080, Note_on_c, 0, 93, 70
2, 70200, Note_on_c, 0, 93, 0
2, 70200, Note_on_c, 0, 81, 0
2, 70320, Note_on_c, 0, 80, 59
2, 70320, Note_on_c, 0, 92, 70
2, 70440, Note_on_c, 0, 92, 0
2, 70440, Note_on_c, 0, 80, 0
2, 70560, Note_on_c, 0, 90, 79
2, 70560, Note_on_c, 0, 78, 67
2, 70680, Note_on_c, 0, 78, 0
2, 70680, Note_on_c, 0, 90, 0
2, 70800, Note_on_c, 0, 76, 59
2, 70800, Note_on_c, 0, 88, 70
2, 70920, Note_on_c, 0, 88, 0
2, 70920, Note_on_c, 0, 76, 0
2, 71040, Note_on_c, 0, 75, 59
2, 71040, Note_on_c, 0, 87, 70
2, 71160, Note_on_c, 0, 87, 0
2, 71160, Note_on_c, 0, 75, 0
2, 71280, Note_on_c, 0, 85, 76
2, 71280, Note_on_c, 0, 73, 64
2, 71400, Note_on_c, 0, 73, 0
2, 71400, Note_on_c, 0, 85, 0
2, 71520, Note_on_c, 0, 71, 59
2, 71520, Note_on_c, 0, 83, 70
2, 71640, Note_on_c, 0, 83, 0
2, 71640, Note_on_c, 0, 71, 0
2, 71760, Note_on_c, 0, 70, 59
2, 71760, Note_on_c, 0, 82, 70
2, 71880, Note_on_c, 0, 82, 0
2, 71880, Note_on_c, 0, 70, 0
2, 72000, Note_on_c, 0, 80, 78
2, 72000, Note_on_c, 0, 68, 66
2, 72120, Note_on_c, 0, 68, 0
2, 72120, Note_on_c, 0, 80, 0
2, 72240, Note_on_c, 0, 78, 64
2, 72240, Note_on_c, 0, 66, 54
2, 72360, Note_on_c, 0, 66, 0
2, 72360, Note_on_c, 0, 78, 0
2, 72480, Note_on_c, 0, 76, 64
2, 72480, Note_on_c, 0, 64, 54
2, 72600, Note_on_c, 0, 64, 0
2, 72600, Note_on_c, 0, 76, 0
2, 72720, Note_on_c, 0, 75, 70
2, 72720, Note_on_c, 0, 63, 59
2, 72840, Note_on_c, 0, 63, 0
2, 72840, Note_on_c, 0, 75, 0
2, 72960, Note_on_c, 0, 76, 61
2, 72960, Note_on_c, 0, 64, 51
2, 73080, Note_on_c, 0, 64, 0
2, 73080, Note_on_c, 0, 76, 0
2, 73200, Note_on_c, 0, 73, 61
2, 73200, Note_on_c, 0, 61, 51
2, 73320, Note_on_c, 0, 61, 0
2, 73320, Note_on_c, 0, 73, 0
2, 73440, Note_on_c, 0, 71, 69
2, 73440, Note_on_c, 0, 59, 58
2, 73560, Note_on_c, 0, 59, 0
2, 73560, Note_on_c, 0, 71, 0
2, 73680, Note_on_c, 0, 76, 53
2, 73680, Note_on_c, 0, 64, 45
2, 73800, Note_on_c, 0, 64, 0
2, 73800, Note_on_c, 0, 76, 0
2, 73920, Note_on_c, 0, 68, 53
2, 73920, Note_on_c, 0, 64, 45
2, 74040, Note_on_c, 0, 64, 0
2, 74040, Note_on_c, 0, 68, 0
2, 74160, Note_on_c, 0, 71, 62
2, 74160, Note_on_c, 0, 63, 52
2, 74280, Note_on_c, 0, 63, 0
2, 74280, Note_on_c, 0, 71, 0
2, 74400, Note_on_c, 0, 69, 45
2, 74400, Note_on_c, 0, 63, 38
2, 74520, Note_on_c, 0, 63, 0
2, 74520, Note_on_c, 0, 69, 0
2, 74640, Note_on_c, 0, 66, 45
2, 74640, Note_on_c, 0, 63, 38
2, 74760, Note_on_c, 0, 63, 0
2, 74760, Note_on_c, 0, 66, 0
2, 74880, Note_on_c, 0, 64, 57
2, 75120, Note_on_c, 0, 64, 0
2, 75600, Note_on_c, 0, 68, 70
2, 75600, Note_on_c, 0, 80, 83
2, 76313, Note_on_c, 0, 80, 0
2, 76313, Note_on_c, 0, 68, 0
2, 76320, Note_on_c, 0, 68, 74
2, 76320, Note_on_c, 0, 80, 88
2, 77033, Note_on_c, 0, 80, 0
2, 77033, Note_on_c, 0, 68, 0
2, 77040, Note_on_c, 0, 68, 71
2, 77040, Note_on_c, 0, 80, 84
2, 77270, Note_on_c, 0, 68, 0
2, 77753, Note_on_c, 0, 80, 0
2, 77760, Note_on_c, 0, 80, 78
2, 77760, Note_on_c, 0, 68, 66
2, 78000, Note_on_c, 0, 68, 0
2, 78000, Note_on_c, 0, 80, 0
2, 78000, Note_on_c, 0, 69, 63
2, 78000, Note_on_c, 0, 81, 75
2, 78240, Note_on_c, 0, 81, 0
2, 78240, Note_on_c, 0, 69, 0
2, 78240, Note_on_c, 0, 68, 61
2, 78240, Note_on_c, 0, 80, 72
2, 78360, Note_on_c, 0, 80, 0
2, 78360, Note_on_c, 0, 68, 0
2, 78480, Note_on_c, 0, 68, 66
2, 78480, Note_on_c, 0, 80, 78
2, 78600, Note_on_c, 0, 80, 0
2, 78600, Note_on_c, 0, 68, 0
2, 78720, Note_on_c, 0, 68, 59
2, 78720, Note_on_c, 0, 80, 70
2, 78840, Note_on_c, 0, 80, 0
2, 78840, Note_on_c, 0, 68, 0
2, 78960, Note_on_c, 0, 68, 59
2, 78960, Note_on_c, 0, 80, 70
2, 79080, Note_on_c, 0, 80, 0
2, 79080, Note_on_c, 0, 68, 0
2, 79200, Note_on_c, 0, 68, 74
2, 79200, Note_on_c, 0, 80, 88
2, 79913, Note_on_c, 0, 80, 0
2, 79913, Note_on_c, 0, 68, 0
2, 79920, Note_on_c, 0, 68, 71
2, 79920, Note_on_c, 0, 80, 84
2, 80150, Note_on_c, 0, 68, 0
2, 80633, Note_on_c, 0, 80, 0
2, 80640, Note_on_c, 0, 68, 74
2, 80640, Note_on_c, 0, 80, 88
2, 81353, Note_on_c, 0, 80, 0
2, 81353, Note_on_c, 0, 68, 0
2, 81600, Note_on_c, 0, 80, 85
2, 81600, Note_on_c, 0, 73, 72
2, 81720, Note_on_c, 0, 73, 0
2, 81720, Note_on_c, 0, 80, 0
2, 81840, Note_on_c, 0, 73, 64
2, 81840, Note_on_c, 0, 80, 77
2, 81960, Note_on_c, 0, 80, 0
2, 81960, Note_on_c, 0, 73, 0
2, 82080, Note_on_c, 0, 80, 85
2, 82080, Note_on_c, 0, 73, 72
2, 82320, Note_on_c, 0, 73, 0
2, 82320, Note_on_c, 0, 80, 0
2, 82320, Note_on_c, 0, 69, 69
2, 82320, Note_on_c, 0, 78, 82
2, 82560, Note_on_c, 0, 78, 0
2, 82560, Note_on_c, 0, 69, 0
2, 82560, Note_on_c, 0, 73, 67
2, 82560, Note_on_c, 0, 80, 79
2, 82680, Note_on_c, 0, 80, 0
2, 82680, Note_on_c, 0, 73, 0
2, 82800, Note_on_c, 0, 81, 85
2, 82800, Note_on_c, 0, 78, 72
2, 83040, Note_on_c, 0, 78, 0
2, 83040, Note_on_c, 0, 81, 0
2, 83040, Note_on_c, 0, 85, 81
2, 83280, Note_on_c, 0, 85, 0
2, 83280, Note_on_c, 0, 73, 68
2, 83280, Note_on_c, 0, 80, 81
2, 83400, Note_on_c, 0, 80, 0
2, 83400, Note_on_c, 0, 73, 0
2, 83520, Note_on_c, 0, 73, 72
2, 83520, Note_on_c, 0, 80, 85
2, 84000, Note_on_c, 0, 80, 0
2, 84000, Note_on_c, 0, 73, 0
2, 84480, Note_on_c, 0, 80, 85
2, 84480, Note_on_c, 0, 73, 72
2, 84600, Note_on_c, 0, 73, 0
2, 84600, Note_on_c, 0, 80, 0
2, 84720, Note_on_c, 0, 73, 64
2, 84720, Note_on_c, 0, 80, 77
2, 84840, Note_on_c, 0, 80, 0
2, 84840, Note_on_c, 0, 73, 0
2, 84960, Note_on_c, 0, 80, 85
2, 84960, Note_on_c, 0, 73, 72
2, 85200, Note_on_c, 0, 73, 0
2, 85200, Note_on_c, 0, 80, 0
2, 85200, Note_on_c, 0, 69, 69
2, 85200, Note_on_c, 0, 78, 82
2, 85440, Note_on_c, 0, 78, 0
2, 85440, Note_on_c, 0, 69, 0
2, 85440, Note_on_c, 0, 73, 67
2, 85440, Note_on_c, 0, 80, 79
2, 85560, Note_on_c, 0, 80, 0
2, 85560, Note_on_c, 0, 73, 0
2, 85680, Note_on_c, 0, 81, 85
2, 85680, Note_on_c, 0, 78, 72
2, 85920, Note_on_c, 0, 78, 0
2, 85920, Note_on_c, 0, 81, 0
2, 85920, Note_on_c, 0, 85, 81
2, 86160, Note_on_c, 0, 85, 0
2, 86160, Note_on_c, 0, 73, 68
2, 86160, Note_on_c, 0, 80, 81
2, 86280, Note_on_c, 0, 80, 0
2, 86280, Note_on_c, 0, 73, 0
2, 86400, Note_on_c, 0, 80, 85
2, 86400, Note_on_c, 0, 73, 72
2, 87113, Note_on_c, 0, 73, 0
2, 87113, Note_on_c, 0, 80, 0
2, 87120, Note_on_c, 0, 69, 72
2, 87120, Note_on_c, 0, 81, 85
2, 87833, Note_on_c, 0, 81, 0
2, 87833, Note_on_c, 0, 69, 0
2, 87840, Note_on_c, 0, 69, 72
2, 87840, Note_on_c, 0, 81, 85
2, 88553, Note_on_c, 0, 81, 0
2, 88553, Note_on_c, 0, 69, 0
2, 88560, Note_on_c, 0, 68, 72
2, 88560, Note_on_c, 0, 80, 85
2, 89273, Note_on_c, 0, 80, 0
2, 89273, Note_on_c, 0, 68, 0
2, 89280, Note_on_c, 0, 66, 72
2, 89280, Note_on_c, 0, 78, 85
2, 89993, Note_on_c, 0, 78, 0
2, 89993, Note_on_c, 0, 66, 0
2, 90000, Note_on_c, 0, 64, 72
2, 90000, Note_on_c, 0, 76, 85
2, 90713, Note_on_c, 0, 76, 0
2, 90713, Note_on_c, 0, 64, 0
2, 90720, Note_on_c, 0, 57, 72
2, 90720, Note_on_c, 0, 69, 85
2, 91433, Note_on_c, 0, 69, 0
2, 91433, Note_on_c, 0, 57, 0
2, 91440, Note_on_c, 0, 56, 72
2, 91440, Note_on_c, 0, 68, 85
2, 92153, Note_on_c, 0, 68, 0
2, 92153, Note_on_c, 0, 56, 0
2, 92160, Note_on_c, 0, 54, 72
2, 92160, Note_on_c, 0, 66, 85
2, 92873, Note_on_c, 0, 66, 0
2, 92873, Note_on_c, 0, 54, 0
2, 92880, Note_on_c, 0, 64, 90
2, 93120, Note_on_c, 0, 64, 0
2, 93120, Note_on_c, 0, 73, 80
2, 93120, Note_on_c, 0, 61, 68
2, 93240, Note_on_c, 0, 61, 0
2, 93240, Note_on_c, 0, 73, 0
2, 93360, Note_on_c, 0, 73, 80
2, 93360, Note_on_c, 0, 61, 68
2, 93480, Note_on_c, 0, 61, 0
2, 93480, Note_on_c, 0, 73, 0
2, 93600, Note_on_c, 0, 63, 72
2, 93600, Note_on_c, 0, 75, 85
2, 93720, Note_on_c, 0, 75, 0
2, 93720, Note_on_c, 0, 63, 0
2, 93840, Note_on_c, 0, 76, 80
2, 93840, Note_on_c, 0, 64, 68
2, 93960, Note_on_c, 0, 64, 0
2, 93960, Note_on_c, 0, 76, 0
2, 94080, Note_on_c, 0, 78, 80
2, 94080, Note_on_c, 0, 66, 68
2, 94200, Note_on_c, 0, 66, 0
2, 94200, Note_on_c, 0, 78, 0
2, 94320, Note_on_c, 0, 63, 72
2, 94320, Note_on_c, 0, 75, 85
2, 94440, Note_on_c, 0, 75, 0
2, 94440, Note_on_c, 0, 63, 0
2, 94560, Note_on_c, 0, 76, 81
2, 94560, Note_on_c, 0, 64, 68
2, 94680, Note_on_c, 0, 64, 0
2, 94680, Note_on_c, 0, 76, 0
2, 94800, Note_on_c, 0, 78, 81
2, 94800, Note_on_c, 0, 66, 68
2, 94920, Note_on_c, 0, 66, 0
2, 94920, Note_on_c, 0, 78, 0
2, 95040, Note_on_c, 0, 68, 72
2, 95040, Note_on_c, 0, 80, 85
2, 95160, Note_on_c, 0, 80, 0
2, 95160, Note_on_c, 0, 68, 0
2, 95280, Note_on_c, 0, 81, 79
2, 95280, Note_on_c, 0, 69, 66
2, 95400, Note_on_c, 0, 69, 0
2, 95400, Note_on_c, 0, 81, 0
2, 95520, Note_on_c, 0, 83, 76
2, 95520, Note_on_c, 0, 71, 64
2, 95640, Note_on_c, 0, 71, 0
2, 95640, Note_on_c, 0, 83, 0
2, 95760, Note_on_c, 0, 69, 66
2, 95760, Note_on_c, 0, 81, 79
2, 95880, Note_on_c, 0, 81, 0
2, 95880, Note_on_c, 0, 69, 0
2, 96000, Note_on_c, 0, 83, 72
2, 96000, Note_on_c, 0, 71, 61
2, 96120, Note_on_c, 0, 71, 0
2, 96120, Note_on_c, 0, 83, 0
2, 96240, Note_on_c, 0, 85, 70
2, 96240, Note_on_c, 0, 73, 59
2, 96360, Note_on_c, 0, 73, 0
2, 96360, Note_on_c, 0, 85, 0
2, 96480, Note_on_c, 0, 76, 72
2, 96480, Note_on_c, 0, 80, 72
2, 96720, Note_on_c, 0, 76, 0
2, 96720, Note_on_c, 0, 75, 67
2, 96960, Note_on_c, 0, 75, 0
2, 96960, Note_on_c, 0, 73, 67
2, 97200, Note_on_c, 0, 73, 0
2, 97200, Note_on_c, 0, 80, 0
2, 97200, Note_on_c, 0, 75, 72
2, 97200, Note_on_c, 0, 80, 72
2, 97440, Note_on_c, 0, 75, 0
2, 97440, Note_on_c, 0, 72, 68
2, 97680, Note_on_c, 0, 72, 0
2, 97680, Note_on_c, 0, 68, 68
2, 97920, Note_on_c, 0, 68, 0
2, 97920, Note_on_c, 0, 80, 0
2, 97920, Note_on_c, 0, 73, 80
2, 98040, Note_on_c, 0, 73, 0
2, 98160, Note_on_c, 0, 80, 80
2, 98160, Note_on_c, 0, 77, 68
2, 98160, Note_on_c, 0, 73, 68
2, 98280, Note_on_c, 0, 73, 0
2, 98280, Note_on_c, 0, 77, 0
2, 98280, Note_on_c, 0, 80, 0
2, 98400, Note_on_c, 0, 80, 88
2, 98400, Note_on_c, 0, 77, 74
2, 98400, Note_on_c, 0, 73, 74
2, 98520, Note_on_c, 0, 73, 0
2, 98520, Note_on_c, 0, 77, 0
2, 98520, Note_on_c, 0, 80, 0
2, 98640, Note_on_c, 0, 81, 95
2, 98640, Note_on_c, 0, 78, 80
2, 99360, Note_on_c, 0, 78, 0
2, 99360, Note_on_c, 0, 81, 0
2, 99360, Note_on_c, 0, 73, 80
2, 99480, Note_on_c, 0, 73, 0
2, 99600, Note_on_c, 0, 80, 80
2, 99600, Note_on_c, 0, 77, 68
2, 99600, Note_on_c, 0, 73, 68
2, 99720, Note_on_c, 0, 73, 0
2, 99720, Note_on_c, 0, 77, 0
2, 99720, Note_on_c, 0, 80, 0
2, 99840, Note_on_c, 0, 80, 88
2, 99840, Note_on_c, 0, 77, 74
2, 99840, Note_on_c, 0, 73, 74
2, 99960, Note_on_c, 0, 73, 0
2, 99960, Note_on_c, 0, 77, 0
2, 99960, Note_on_c, 0, 80, 0
2, 100080, Note_on_c, 0, 81, 95
2, 100080, Note_on_c, 0, 78, 80
2, 100800, Note_on_c, 0, 78, 0
2, 100800, Note_on_c, 0, 81, 0
2, 100800, Note_on_c, 0, 85, 105
2, 100800, Note_on_c, 0, 80, 89
2, 100800, Note_on_c, 0, 77, 89
2, 100800, Note_on_c, 0, 73, 89
2, 101280, Note_on_c, 0, 73, 0
2, 101280, Note_on_c, 0, 85, 0
2, 101280, Note_on_c, 0, 80, 0
2, 101280, Note_on_c, 0, 77, 0
2, 101280, Note_on_c, 0, 73, 76
2, 101280, Note_on_c, 0, 85, 90
2, 101460, Note_on_c, 0, 85, 0
2, 101460, Note_on_c, 0, 73, 0
2, 101520, Note_on_c, 0, 73, 80
2, 101520, Note_on_c, 0, 85, 95
2, 101700, Note_on_c, 0, 85, 0
2, 101700, Note_on_c, 0, 73, 0
2, 101760, Note_on_c, 0, 85, 88
2, 101760, Note_on_c, 0, 73, 74
2, 101940, Note_on_c, 0, 73, 0
2, 101940, Note_on_c, 0, 85, 0
2, 102000, Note_on_c, 0, 85, 89
2, 102000, Note_on_c, 0, 73, 75
2, 102180, Note_on_c, 0, 73, 0
2, 102180, Note_on_c, 0, 85, 0
2, 102240, Note_on_c, 0, 85, 105
2, 102240, Note_on_c, 0, 73, 89
2, 102720, Note_on_c, 0, 73, 0
2, 102720, Note_on_c, 0, 85, 0
2, 102720, Note_on_c, 0, 73, 76
2, 102720, Note_on_c, 0, 85, 90
2, 102900, Note_on_c, 0, 85, 0
2, 102900, Note_on_c, 0, 73, 0
2, 102960, Note_on_c, 0, 73, 80
2, 102960, Note_on_c, 0, 85, 95
2, 103140, Note_on_c, 0, 85, 0
2, 103140, Note_on_c, 0, 73, 0
2, 103200, Note_on_c, 0, 85, 88
2, 103200, Note_on_c, 0, 73, 74
2, 103380, Note_on_c, 0, 73, 0
2, 103380, Note_on_c, 0, 85, 0
2, 103440, Note_on_c, 0, 85, 89
2, 103440, Note_on_c, 0, 73, 75
2, 103620, Note_on_c, 0, 73, 0
2, 103620, Note_on_c, 0, 85, 0
2, 103680, Note_on_c, 0, 88, 105
2, 103680, Note_on_c, 0, 85, 89
2, 103680, Note_on_c, 0, 80, 89
2, 103680, Note_on_c, 0, 76, 89
2, 104160, Note_on_c, 0, 76, 0
2, 104160, Note_on_c, 0, 88, 0
2, 104160, Note_on_c, 0, 85, 0
2, 104160, Note_on_c, 0, 80, 0
2, 104160, Note_on_c, 0, 76, 76
2, 104160, Note_on_c, 0, 88, 90
2, 104340, Note_on_c, 0, 88, 0
2, 104340, Note_on_c, 0, 76, 0
2, 104400, Note_on_c, 0, 76, 80
2, 104400, Note_on_c, 0, 88, 95
2, 104580, Note_on_c, 0, 88, 0
2, 104580, Note_on_c, 0, 76, 0
2, 104640, Note_on_c, 0, 88, 88
2, 104640, Note_on_c, 0, 76, 74
2, 104820, Note_on_c, 0, 76, 0
2, 104820, Note_on_c, 0, 88, 0
2, 104880, Note_on_c, 0, 88, 89
2, 104880, Note_on_c, 0, 76, 75
2, 105060, Note_on_c, 0, 76, 0
2, 105060, Note_on_c, 0, 88, 0
2, 105120, Note_on_c, 0, 88, 105
2, 105120, Note_on_c, 0, 76, 89
2, 105600, Note_on_c, 0, 76, 0
2, 105600, Note_on_c, 0, 88, 0
2, 105600, Note_on_c, 0, 76, 72
2, 105600, Note_on_c, 0, 88, 85
2, 105780, Note_on_c, 0, 88, 0
2, 105780, Note_on_c, 0, 76, 0
2, 105840, Note_on_c, 0, 76, 76
2, 105840, Note_on_c, 0, 88, 90
2, 106020, Note_on_c, 0, 88, 0
2, 106020, Note_on_c, 0, 76, 0
2, 106080, Note_on_c, 0, 88, 70
2, 106080, Note_on_c, 0, 76, 59
2, 106260, Note_on_c, 0, 76, 0
2, 106260, Note_on_c, 0, 88, 0
2, 106320, Note_on_c, 0, 88, 71
2, 106320, Note_on_c, 0, 76, 60
2, 106500, Note_on_c, 0, 76, 0
2, 106500, Note_on_c, 0, 88, 0
2, 106560, Note_on_c, 0, 88, 76
2, 106560, Note_on_c, 0, 76, 64
2, 106740, Note_on_c, 0, 76, 0
2, 106740, Note_on_c, 0, 88, 0
2, 106800, Note_on_c, 0, 88, 70
2, 106800, Note_on_c, 0, 76, 59
2, 106980, Note_on_c, 0, 76, 0
2, 106980, Note_on_c, 0, 88, 0
2, 107040, Note_on_c, 0, 76, 60
2, 107040, Note_on_c, 0, 88, 71
2, 107220, Note_on_c, 0, 88, 0
2, 107220, Note_on_c, 0, 76, 0
2, 107280, Note_on_c, 0, 88, 76
2, 107280, Note_on_c, 0, 76, 64
2, 107460, Note_on_c, 0, 76, 0
2, 107460, Note_on_c, 0, 88, 0
2, 107520, Note_on_c, 0, 88, 70
2, 107520, Note_on_c, 0, 76, 59
2, 107700, Note_on_c, 0, 76, 0
2, 107700, Note_on_c, 0, 88, 0
2, 107760, Note_on_c, 0, 88, 71
2, 107760, Note_on_c, 0, 76, 60
2, 107940, Note_on_c, 0, 76, 0
2, 107940, Note_on_c, 0, 88, 0
2, 108000, Note_on_c, 0, 88, 76
2, 108000, Note_on_c, 0, 76, 64
2, 108180, Note_on_c, 0, 76, 0
2, 108180, Note_on_c, 0, 88, 0
2, 108240, Note_on_c, 0, 88, 70
2, 108240, Note_on_c, 0, 76, 59
2, 108420, Note_on_c, 0, 76, 0
2, 108420, Note_on_c, 0, 88, 0
2, 108480, Note_on_c, 0, 76, 60
2, 108480, Note_on_c, 0, 88, 71
2, 108660, Note_on_c, 0, 88, 0
2, 108660, Note_on_c, 0, 76, 0
2, 108720, Note_on_c, 0, 88, 76
2, 108720, Note_on_c, 0, 76, 64
2, 108900, Note_on_c, 0, 76, 0
2, 108900, Note_on_c, 0, 88, 0
2, 108960, Note_on_c, 0, 90, 66
2, 108960, Note_on_c, 0, 78, 56
2, 109140, Note_on_c, 0, 78, 0
2, 109140, Note_on_c, 0, 90, 0
2, 109200, Note_on_c, 0, 90, 64
2, 109200, Note_on_c, 0, 78, 53
2, 109380, Note_on_c, 0, 78, 0
2, 109380, Note_on_c, 0, 90, 0
2, 109440, Note_on_c, 0, 93, 68
2, 109440, Note_on_c, 0, 81, 57
2, 109620, Note_on_c, 0, 81, 0
2, 109620, Note_on_c, 0, 93, 0
2, 109680, Note_on_c, 0, 81, 52
2, 109680, Note_on_c, 0, 93, 62
2, 109860, Note_on_c, 0, 93, 0
2, 109860, Note_on_c, 0, 81, 0
2, 109920, Note_on_c, 0, 81, 53
2, 109920, Note_on_c, 0, 93, 63
2, 110100, Note_on_c, 0, 93, 0
2, 110100, Note_on_c, 0, 81, 0
2, 110160, Note_on_c, 0, 93, 67
2, 110160, Note_on_c, 0, 81, 47
2, 110340, Note_on_c, 0, 81, 0
2, 110340, Note_on_c, 0, 93, 0
2, 110400, Note_on_c, 0, 93, 63
2, 110400, Note_on_c, 0, 81, 54
2, 110580, Note_on_c, 0, 81, 0
2, 110580, Note_on_c, 0, 93, 0
2, 110640, Note_on_c, 0, 81, 52
2, 110640, Note_on_c, 0, 93, 62
2, 110820, Note_on_c, 0, 93, 0
2, 110820, Note_on_c, 0, 81, 0
2, 110880, Note_on_c, 0, 93, 61
2, 110880, Note_on_c, 0, 81, 51
2, 111120, Note_on_c, 0, 81, 0
2, 111120, Note_on_c, 0, 93, 0
2, 111960, Note_on_c, 0, 64, 59
2, 111960, Note_on_c, 0, 69, 70
2, 112068, Note_on_c, 0, 69, 0
2, 112068, Note_on_c, 0, 64, 0
2, 112080, Note_on_c, 0, 69, 68
2, 112080, Note_on_c, 0, 64, 57
2, 112260, Note_on_c, 0, 64, 0
2, 112260, Note_on_c, 0, 69, 0
2, 112320, Note_on_c, 0, 64, 59
2, 112320, Note_on_c, 0, 69, 70
2, 112560, Note_on_c, 0, 69, 0
2, 112560, Note_on_c, 0, 64, 0
2, 112560, Note_on_c, 0, 71, 69
2, 112560, Note_on_c, 0, 68, 58
2, 112800, Note_on_c, 0, 68, 0
2, 112800, Note_on_c, 0, 71, 0
2, 112800, Note_on_c, 0, 73, 69
2, 112800, Note_on_c, 0, 69, 69
2, 112800, Note_on_c, 0, 64, 58
2, 112920, Note_on_c, 0, 64, 0
2, 112920, Note_on_c, 0, 69, 0
2, 112920, Note_on_c, 0, 73, 0
2, 113040, Note_on_c, 0, 73, 73
2, 113040, Note_on_c, 0, 69, 73
2, 113040, Note_on_c, 0, 64, 62
2, 113520, Note_on_c, 0, 64, 0
2, 113520, Note_on_c, 0, 69, 0
2, 113520, Note_on_c, 0, 73, 0
2, 113520, Note_on_c, 0, 73, 65
2, 113520, Note_on_c, 0, 69, 55
2, 113700, Note_on_c, 0, 69, 0
2, 113700, Note_on_c, 0, 73, 0
2, 113760, Note_on_c, 0, 69, 59
2, 113760, Note_on_c, 0, 73, 70
2, 114000, Note_on_c, 0, 73, 0
2, 114000, Note_on_c, 0, 69, 0
2, 114000, Note_on_c, 0, 74, 66
2, 114000, Note_on_c, 0, 71, 56
2, 114240, Note_on_c, 0, 71, 0
2, 114240, Note_on_c, 0, 74, 0
2, 114240, Note_on_c, 0, 76, 64
2, 114240, Note_on_c, 0, 73, 54
2, 114360, Note_on_c, 0, 73, 0
2, 114360, Note_on_c, 0, 76, 0
2, 114480, Note_on_c, 0, 76, 54
2, 114480, Note_on_c, 0, 73, 54
2, 114720, Note_on_c, 0, 73, 0
2, 114720, Note_on_c, 0, 76, 0
2, 114720, Note_on_c, 0, 74, 50
2, 114960, Note_on_c, 0, 74, 0
2, 114960, Note_on_c, 0, 73, 43
2, 115200, Note_on_c, 0, 73, 0
2, 115200, Note_on_c, 0, 69, 49
2, 115200, Note_on_c, 0, 71, 55
2, 115560, Note_on_c, 0, 71, 0
2, 115560, Note_on_c, 0, 69, 0
2, 115560, Note_on_c, 0, 71, 45
2, 115560, Note_on_c, 0, 69, 45
2, 115668, Note_on_c, 0, 69, 0
2, 115668, Note_on_c, 0, 71, 0
2, 115680, Note_on_c, 0, 71, 45
2, 115680, Note_on_c, 0, 69, 45
2, 115860, Note_on_c, 0, 69, 0
2, 115860, Note_on_c, 0, 71, 0
2, 115920, Note_on_c, 0, 69, 49
2, 115920, Note_on_c, 0, 74, 54
2, 116160, Note_on_c, 0, 74, 0
2, 116160, Note_on_c, 0, 73, 50
2, 116400, Note_on_c, 0, 73, 0
2, 116400, Note_on_c, 0, 71, 43
2, 116640, Note_on_c, 0, 71, 0
2, 116640, Note_on_c, 0, 78, 54
2, 116880, Note_on_c, 0, 78, 0
2, 116880, Note_on_c, 0, 74, 50
2, 117120, Note_on_c, 0, 74, 0
2, 117120, Note_on_c, 0, 73, 50
2, 117360, Note_on_c, 0, 73, 0
2, 117360, Note_on_c, 0, 71, 55
2, 117720, Note_on_c, 0, 71, 0
2, 117720, Note_on_c, 0, 69, 0
2, 117720, Note_on_c, 0, 71, 45
2, 117720, Note_on_c, 0, 69, 45
2, 117828, Note_on_c, 0, 69, 0
2, 117828, Note_on_c, 0, 71, 0
2, 117840, Note_on_c, 0, 71, 45
2, 117840, Note_on_c, 0, 69, 45
2, 118020, Note_on_c, 0, 69, 0
2, 118020, Note_on_c, 0, 71, 0
2, 118080, Note_on_c, 0, 69, 49
2, 118080, Note_on_c, 0, 71, 55
2, 118440, Note_on_c, 0, 71, 0
2, 118440, Note_on_c, 0, 71, 45
2, 118548, Note_on_c, 0, 71, 0
2, 118560, Note_on_c, 0, 71, 45
2, 118740, Note_on_c, 0, 71, 0
2, 118800, Note_on_c, 0, 74, 54
2, 119040, Note_on_c, 0, 74, 0
2, 119040, Note_on_c, 0, 73, 50
2, 119280, Note_on_c, 0, 73, 0
2, 119280, Note_on_c, 0, 71, 43
2, 119520, Note_on_c, 0, 71, 0
2, 119520, Note_on_c, 0, 78, 54
2, 119760, Note_on_c, 0, 78, 0
2, 119760, Note_on_c, 0, 74, 50
2, 120000, Note_on_c, 0, 74, 0
2, 120000, Note_on_c, 0, 73, 50
2, 120240, Note_on_c, 0, 73, 0
2, 120240, Note_on_c, 0, 71, 55
2, 120473, Note_on_c, 0, 71, 0
2, 120480, Note_on_c, 0, 69, 0
2, 120480, Note_on_c, 0, 71, 45
2, 120480, Note_on_c, 0, 69, 45
2, 120700, Note_on_c, 0, 71, 0
2, 120708, Note_on_c, 0, 69, 0
2, 120720, Note_on_c, 0, 71, 45
2, 120720, Note_on_c, 0, 69, 45
2, 120900, Note_on_c, 0, 69, 0
2, 120900, Note_on_c, 0, 71, 0
2, 120960, Note_on_c, 0, 78, 90
2, 121920, Note_on_c, 0, 78, 0
2, 121920, Note_on_c, 0, 75, 78
2, 122040, Note_on_c, 0, 75, 0
2, 122160, Note_on_c, 0, 73, 72
2, 122280, Note_on_c, 0, 73, 0
2, 122400, Note_on_c, 0, 71, 78
2, 122400, Note_on_c, 0, 83, 90
2, 123360, Note_on_c, 0, 83, 0
2, 123360, Note_on_c, 0, 71, 0
2, 123360, Note_on_c, 0, 80, 97
2, 123480, Note_on_c, 0, 80, 0
2, 123600, Note_on_c, 0, 78, 90
2, 123720, Note_on_c, 0, 78, 0
2, 123840, Note_on_c, 0, 88, 101
2, 123840, Note_on_c, 0, 76, 85
2, 124800, Note_on_c, 0, 76, 0
2, 124800, Note_on_c, 0, 88, 0
2, 124800, Note_on_c, 0, 74, 70
2, 124800, Note_on_c, 0, 86, 84
2, 124920, Note_on_c, 0, 86, 0
2, 124920, Note_on_c, 0, 74, 0
2, 125040, Note_on_c, 0, 73, 70
2, 125040, Note_on_c, 0, 85, 83
2, 125160, Note_on_c, 0, 85, 0
2, 125160, Note_on_c, 0, 73, 0
2, 125280, Note_on_c, 0, 83, 94
2, 125280, Note_on_c, 0, 71, 79
2, 125400, Note_on_c, 0, 71, 0
2, 125400, Note_on_c, 0, 83, 0
2, 125520, Note_on_c, 0, 69, 69
2, 125520, Note_on_c, 0, 81, 82
2, 125640, Note_on_c, 0, 81, 0
2, 125640, Note_on_c, 0, 69, 0
2, 125760, Note_on_c, 0, 68, 69
2, 125760, Note_on_c, 0, 80, 81
2, 125880, Note_on_c, 0, 80, 0
2, 125880, Note_on_c, 0, 68, 0
2, 126000, Note_on_c, 0, 78, 88
2, 126000, Note_on_c, 0, 66, 74
2, 126120, Note_on_c, 0, 66, 0
2, 126120, Note_on_c, 0, 78, 0
2, 126240, Note_on_c, 0, 64, 67
2, 126240, Note_on_c, 0, 76, 80
2, 126360, Note_on_c, 0, 76, 0
2, 126360, Note_on_c, 0, 64, 0
2, 126480, Note_on_c, 0, 62, 67
2, 126480, Note_on_c, 0, 74, 79
2, 126600, Note_on_c, 0, 74, 0
2, 126600, Note_on_c, 0, 62, 0
2, 126720, Note_on_c, 0, 73, 88
2, 126720, Note_on_c, 0, 61, 74
2, 126840, Note_on_c, 0, 61, 0
2, 126840, Note_on_c, 0, 73, 0
2, 126960, Note_on_c, 0, 71, 71
2, 126960, Note_on_c, 0, 59, 60
2, 127080, Note_on_c, 0, 59, 0
2, 127080, Note_on_c, 0, 71, 0
2, 127200, Note_on_c, 0, 69, 71
2, 127200, Note_on_c, 0, 57, 59
2, 127320, Note_on_c, 0, 57, 0
2, 127320, Note_on_c, 0, 69, 0
2, 127440, Note_on_c, 0, 68, 77
2, 127440, Note_on_c, 0, 56, 65
2, 127560, Note_on_c, 0, 56, 0
2, 127560, Note_on_c, 0, 68, 0
2, 127680, Note_on_c, 0, 69, 67
2, 127680, Note_on_c, 0, 57, 56
2, 127800, Note_on_c, 0, 57, 0
2, 127800, Note_on_c, 0, 69, 0
2, 127920, Note_on_c, 0, 66, 66
2, 127920, Note_on_c, 0, 54, 55
2, 128040, Note_on_c, 0, 54, 0
2, 128040, Note_on_c, 0, 66, 0
2, 128160, Note_on_c, 0, 64, 74
2, 128160, Note_on_c, 0, 52, 62
2, 128280, Note_on_c, 0, 52, 0
2, 128280, Note_on_c, 0, 64, 0
2, 128400, Note_on_c, 0, 69, 56
2, 128400, Note_on_c, 0, 57, 48
2, 128520, Note_on_c, 0, 57, 0
2, 128520, Note_on_c, 0, 69, 0
2, 128640, Note_on_c, 0, 61, 56
2, 128640, Note_on_c, 0, 57, 47
2, 128760, Note_on_c, 0, 57, 0
2, 128760, Note_on_c, 0, 61, 0
2, 128880, Note_on_c, 0, 64, 65
2, 128880, Note_on_c, 0, 56, 54
2, 129000, Note_on_c, 0, 56, 0
2, 129000, Note_on_c, 0, 64, 0
2, 129120, Note_on_c, 0, 62, 46
2, 129120, Note_on_c, 0, 56, 39
2, 129240, Note_on_c, 0, 56, 0
2, 129240, Note_on_c, 0, 62, 0
2, 129360, Note_on_c, 0, 59, 46
2, 129360, Note_on_c, 0, 56, 39
2, 129480, Note_on_c, 0, 56, 0
2, 129480, Note_on_c, 0, 59, 0
2, 129600, Note_on_c, 0, 57, 49
2, 129780, Note_on_c, 0, 57, 0
2, 129840, Note_on_c, 0, 57, 45
2, 129960, Note_on_c, 0, 57, 0
2, 130080, Note_on_c, 0, 57, 43
2, 130200, Note_on_c, 0, 57, 0
2, 130320, Note_on_c, 0, 57, 49
2, 130560, Note_on_c, 0, 52, 40
2, 130680, Note_on_c, 0, 52, 0
2, 130800, Note_on_c, 0, 52, 46
2, 130920, Note_on_c, 0, 52, 0
2, 131040, Note_on_c, 0, 54, 53
2, 131040, Note_on_c, 0, 50, 53
2, 131270, Note_on_c, 0, 57, 0
2, 131280, Note_on_c, 0, 57, 45
2, 131400, Note_on_c, 0, 57, 0
2, 131520, Note_on_c, 0, 50, 0
2, 131520, Note_on_c, 0, 54, 0
2, 131520, Note_on_c, 0, 57, 43
2, 131640, Note_on_c, 0, 57, 0
2, 131760, Note_on_c, 0, 57, 49
2, 132000, Note_on_c, 0, 52, 40
2, 132120, Note_on_c, 0, 52, 0
2, 132240, Note_on_c, 0, 52, 46
2, 132360, Note_on_c, 0, 52, 0
2, 132480, Note_on_c, 0, 54, 63
2, 132480, Note_on_c, 0, 50, 63
2, 132710, Note_on_c, 0, 57, 0
2, 132720, Note_on_c, 0, 57, 53
2, 132840, Note_on_c, 0, 57, 0
2, 132960, Note_on_c, 0, 50, 0
2, 132960, Note_on_c, 0, 54, 0
2, 132960, Note_on_c, 0, 57, 61
2, 133080, Note_on_c, 0, 57, 0
2, 133200, Note_on_c, 0, 61, 67
2, 134150, Note_on_c, 0, 61, 0
2, 134160, Note_on_c, 0, 61, 59
2, 134280, Note_on_c, 0, 61, 0
2, 134400, Note_on_c, 0, 61, 68
2, 134520, Note_on_c, 0, 61, 0
2, 134640, Note_on_c, 0, 64, 75
2, 135600, Note_on_c, 0, 64, 0
2, 135600, Note_on_c, 0, 61, 70
2, 135720, Note_on_c, 0, 61, 0
2, 135720, Note_on_c, 0, 64, 73
2, 135840, Note_on_c, 0, 64, 0
2, 135840, Note_on_c, 0, 69, 76
2, 135960, Note_on_c, 0, 69, 0
2, 135960, Note_on_c, 0, 73, 84
2, 136080, Note_on_c, 0, 73, 0
2, 136080, Note_on_c, 0, 76, 88
2, 137040, Note_on_c, 0, 76, 0
2, 137040, Note_on_c, 0, 61, 74
2, 137160, Note_on_c, 0, 61, 0
2, 137160, Note_on_c, 0, 64, 77
2, 137280, Note_on_c, 0, 64, 0
2, 137280, Note_on_c, 0, 67, 81
2, 137400, Note_on_c, 0, 67, 0
2, 137400, Note_on_c, 0, 73, 88
2, 137520, Note_on_c, 0, 73, 0
2, 137520, Note_on_c, 0, 76, 93
2, 138480, Note_on_c, 0, 76, 0
2, 138480, Note_on_c, 0, 66, 78
2, 138600, Note_on_c, 0, 66, 0
2, 138600, Note_on_c, 0, 69, 82
2, 138720, Note_on_c, 0, 69, 0
2, 138720, Note_on_c, 0, 74, 85
2, 138840, Note_on_c, 0, 74, 0
2, 138840, Note_on_c, 0, 78, 93
2, 138960, Note_on_c, 0, 78, 0
2, 138960, Note_on_c, 0, 81, 98
2, 139920, Note_on_c, 0, 81, 0
2, 139920, Note_on_c, 0, 66, 82
2, 140040, Note_on_c, 0, 66, 0
2, 140040, Note_on_c, 0, 69, 86
2, 140160, Note_on_c, 0, 69, 0
2, 140160, Note_on_c, 0, 75, 90
2, 140280, Note_on_c, 0, 75, 0
2, 140280, Note_on_c, 0, 78, 98
2, 140400, Note_on_c, 0, 78, 0
2, 140400, Note_on_c, 0, 81, 103
2, 141360, Note_on_c, 0, 81, 0
2, 141360, Note_on_c, 0, 73, 86
2, 141480, Note_on_c, 0, 73, 0
2, 141480, Note_on_c, 0, 76, 90
2, 141600, Note_on_c, 0, 76, 0
2, 141600, Note_on_c, 0, 81, 94
2, 141720, Note_on_c, 0, 81, 0
2, 141720, Note_on_c, 0, 85, 98
2, 141840, Note_on_c, 0, 85, 0
2, 141840, Note_on_c, 0, 88, 101
2, 141960, Note_on_c, 0, 88, 0
2, 141960, Note_on_c, 0, 85, 94
2, 142080, Note_on_c, 0, 85, 0
2, 142080, Note_on_c, 0, 81, 77
2, 142200, Note_on_c, 0, 81, 0
2, 142200, Note_on_c, 0, 76, 63
2, 142320, Note_on_c, 0, 76, 0
2, 142320, Note_on_c, 0, 81, 69
2, 142440, Note_on_c, 0, 81, 0
2, 142440, Note_on_c, 0, 76, 67
2, 142560, Note_on_c, 0, 76, 0
2, 142560, Note_on_c, 0, 88, 76
2, 142680, Note_on_c, 0, 88, 0
2, 142680, Note_on_c, 0, 85, 67
2, 142800, Note_on_c, 0, 85, 0
2, 142800, Note_on_c, 0, 81, 70
2, 142920, Note_on_c, 0, 81, 0
2, 142920, Note_on_c, 0, 76, 63
2, 143040, Note_on_c, 0, 76, 0
2, 143040, Note_on_c, 0, 81, 69
2, 143160, Note_on_c, 0, 81, 0
2, 143160, Note_on_c, 0, 76, 67
2, 143280, Note_on_c, 0, 76, 0
2, 143280, Note_on_c, 0, 88, 76
2, 143400, Note_on_c, 0, 88, 0
2, 143400, Note_on_c, 0, 85, 67
2, 143520, Note_on_c, 0, 85, 0
2, 143520, Note_on_c, 0, 81, 70
2, 143640, Note_on_c, 0, 81, 0
2, 143640, Note_on_c, 0, 76, 63
2, 143760, Note_on_c, 0, 76, 0
2, 143760, Note_on_c, 0, 81, 69
2, 143880, Note_on_c, 0, 81, 0
2, 143880, Note_on_c, 0, 76, 67
2, 144000, Note_on_c, 0, 76, 0
2, 144000, Note_on_c, 0, 88, 76
2, 144120, Note_on_c, 0, 88, 0
2, 144120, Note_on_c, 0, 85, 67
2, 144240, Note_on_c, 0, 85, 0
2, 144240, Note_on_c, 0, 81, 70
2, 144360, Note_on_c, 0, 81, 0
2, 144360, Note_on_c, 0, 76, 63
2, 144480, Note_on_c, 0, 76, 0
2, 144480, Note_on_c, 0, 81, 69
2, 144600, Note_on_c, 0, 81, 0
2, 144600, Note_on_c, 0, 76, 67
2, 144720, Note_on_c, 0, 76, 0
2, 144720, Note_on_c, 0, 88, 76
2, 144840, Note_on_c, 0, 88, 0
2, 144840, Note_on_c, 0, 85, 67
2, 144960, Note_on_c, 0, 85, 0
2, 144960, Note_on_c, 0, 81, 70
2, 145080, Note_on_c, 0, 81, 0
2, 145080, Note_on_c, 0, 76, 63
2, 145200, Note_on_c, 0, 76, 0
2, 145200, Note_on_c, 0, 81, 69
2, 145320, Note_on_c, 0, 81, 0
2, 145320, Note_on_c, 0, 76, 67
2, 145440, Note_on_c, 0, 76, 0
2, 145440, Note_on_c, 0, 88, 76
2, 145560, Note_on_c, 0, 88, 0
2, 145560, Note_on_c, 0, 86, 67
2, 145680, Note_on_c, 0, 86, 0
2, 145680, Note_on_c, 0, 83, 70
2, 145800, Note_on_c, 0, 83, 0
2, 145800, Note_on_c, 0, 76, 63
2, 145920, Note_on_c, 0, 76, 0
2, 145920, Note_on_c, 0, 83, 69
2, 146040, Note_on_c, 0, 83, 0
2, 146040, Note_on_c, 0, 76, 67
2, 146160, Note_on_c, 0, 76, 0
2, 146160, Note_on_c, 0, 88, 76
2, 146280, Note_on_c, 0, 88, 0
2, 146280, Note_on_c, 0, 86, 67
2, 146400, Note_on_c, 0, 86, 0
2, 146400, Note_on_c, 0, 83, 70
2, 146520, Note_on_c, 0, 83, 0
2, 146520, Note_on_c, 0, 76, 63
2, 146640, Note_on_c, 0, 76, 0
2, 146640, Note_on_c, 0, 83, 69
2, 146760, Note_on_c, 0, 83, 0
2, 146760, Note_on_c, 0, 76, 67
2, 146880, Note_on_c, 0, 76, 0
2, 146880, Note_on_c, 0, 88, 76
2, 147000, Note_on_c, 0, 88, 0
2, 147000, Note_on_c, 0, 86, 67
2, 147120, Note_on_c, 0, 86, 0
2, 147120, Note_on_c, 0, 83, 70
2, 147240, Note_on_c, 0, 83, 0
2, 147240, Note_on_c, 0, 76, 63
2, 147360, Note_on_c, 0, 76, 0
2, 147360, Note_on_c, 0, 83, 69
2, 147480, Note_on_c, 0, 83, 0
2, 147480, Note_on_c, 0, 76, 67
2, 147600, Note_on_c, 0, 76, 0
2, 147600, Note_on_c, 0, 88, 76
2, 147720, Note_on_c, 0, 88, 0
2, 147720, Note_on_c, 0, 85, 67
2, 147840, Note_on_c, 0, 85, 0
2, 147840, Note_on_c, 0, 81, 70
2, 147960, Note_on_c, 0, 81, 0
2, 147960, Note_on_c, 0, 76, 63
2, 148080, Note_on_c, 0, 76, 0
2, 148080, Note_on_c, 0, 81, 69
2, 148200, Note_on_c, 0, 81, 0
2, 148200, Note_on_c, 0, 76, 67
2, 148320, Note_on_c, 0, 76, 0
2, 148320, Note_on_c, 0, 88, 76
2, 148440, Note_on_c, 0, 88, 0
2, 148440, Note_on_c, 0, 85, 67
2, 148560, Note_on_c, 0, 85, 0
2, 148560, Note_on_c, 0, 81, 70
2, 148680, Note_on_c, 0, 81, 0
2, 148680, Note_on_c, 0, 76, 63
2, 148800, Note_on_c, 0, 76, 0
2, 148800, Note_on_c, 0, 81, 69
2, 148920, Note_on_c, 0, 81, 0
2, 148920, Note_on_c, 0, 76, 67
2, 149040, Note_on_c, 0, 76, 0
2, 149040, Note_on_c, 0, 88, 76
2, 149160, Note_on_c, 0, 88, 0
2, 149160, Note_on_c, 0, 85, 67
2, 149280, Note_on_c, 0, 85, 0
2, 149280, Note_on_c, 0, 81, 70
2, 149400, Note_on_c, 0, 81, 0
2, 149400, Note_on_c, 0, 76, 63
2, 149520, Note_on_c, 0, 76, 0
2, 149520, Note_on_c, 0, 81, 69
2, 149640, Note_on_c, 0, 81, 0
2, 149640, Note_on_c, 0, 76, 67
2, 149760, Note_on_c, 0, 76, 0
2, 149760, Note_on_c, 0, 88, 76
2, 149880, Note_on_c, 0, 88, 0
2, 149880, Note_on_c, 0, 85, 67
2, 150000, Note_on_c, 0, 85, 0
2, 150000, Note_on_c, 0, 81, 70
2, 150120, Note_on_c, 0, 81, 0
2, 150120, Note_on_c, 0, 76, 63
2, 150240, Note_on_c, 0, 76, 0
2, 150240, Note_on_c, 0, 81, 69
2, 150360, Note_on_c, 0, 81, 0
2, 150360, Note_on_c, 0, 76, 67
2, 150480, Note_on_c, 0, 76, 0
2, 150480, Note_on_c, 0, 88, 76
2, 150600, Note_on_c, 0, 88, 0
2, 150600, Note_on_c, 0, 85, 67
2, 150720, Note_on_c, 0, 85, 0
2, 150720, Note_on_c, 0, 81, 70
2, 150840, Note_on_c, 0, 81, 0
2, 150840, Note_on_c, 0, 76, 63
2, 150960, Note_on_c, 0, 76, 0
2, 150960, Note_on_c, 0, 81, 69
2, 151080, Note_on_c, 0, 81, 0
2, 151080, Note_on_c, 0, 76, 67
2, 151200, Note_on_c, 0, 76, 0
2, 151200, Note_on_c, 0, 88, 76
2, 151320, Note_on_c, 0, 88, 0
2, 151320, Note_on_c, 0, 86, 67
2, 151440, Note_on_c, 0, 86, 0
2, 151440, Note_on_c, 0, 83, 70
2, 151560, Note_on_c, 0, 83, 0
2, 151560, Note_on_c, 0, 76, 63
2, 151680, Note_on_c, 0, 76, 0
2, 151680, Note_on_c, 0, 83, 69
2, 151800, Note_on_c, 0, 83, 0
2, 151800, Note_on_c, 0, 76, 67
2, 151920, Note_on_c, 0, 76, 0
2, 151920, Note_on_c, 0, 88, 76
2, 152040, Note_on_c, 0, 88, 0
2, 152040, Note_on_c, 0, 86, 67
2, 152160, Note_on_c, 0, 86, 0
2, 152160, Note_on_c, 0, 83, 70
2, 152280, Note_on_c, 0, 83, 0
2, 152280, Note_on_c, 0, 76, 63
2, 152400, Note_on_c, 0, 76, 0
2, 152400, Note_on_c, 0, 83, 69
2, 152520, Note_on_c, 0, 83, 0
2, 152520, Note_on_c, 0, 76, 67
2, 152640, Note_on_c, 0, 76, 0
2, 152640, Note_on_c, 0, 88, 76
2, 152760, Note_on_c, 0, 88, 0
2, 152760, Note_on_c, 0, 86, 67
2, 152880, Note_on_c, 0, 86, 0
2, 152880, Note_on_c, 0, 83, 70
2, 153000, Note_on_c, 0, 83, 0
2, 153000, Note_on_c, 0, 76, 63
2, 153120, Note_on_c, 0, 76, 0
2, 153120, Note_on_c, 0, 83, 69
2, 153240, Note_on_c, 0, 83, 0
2, 153240, Note_on_c, 0, 76, 67
2, 153360, Note_on_c, 0, 76, 0
2, 153360, Note_on_c, 0, 88, 76
2, 153480, Note_on_c, 0, 88, 0
2, 153480, Note_on_c, 0, 85, 67
2, 153600, Note_on_c, 0, 85, 0
2, 153600, Note_on_c, 0, 83, 70
2, 153720, Note_on_c, 0, 83, 0
2, 153720, Note_on_c, 0, 81, 63
2, 153840, Note_on_c, 0, 81, 0
2, 153840, Note_on_c, 0, 83, 69
2, 153960, Note_on_c, 0, 83, 0
2, 153960, Note_on_c, 0, 81, 67
2, 154080, Note_on_c, 0, 81, 0
2, 154080, Note_on_c, 0, 88, 76
2, 154200, Note_on_c, 0, 88, 0
2, 154200, Note_on_c, 0, 85, 67
2, 154320, Note_on_c, 0, 85, 0
2, 154320, Note_on_c, 0, 83, 70
2, 154440, Note_on_c, 0, 83, 0
2, 154440, Note_on_c, 0, 81, 63
2, 154560, Note_on_c, 0, 81, 0
2, 154560, Note_on_c, 0, 83, 69
2, 154680, Note_on_c, 0, 83, 0
2, 154680, Note_on_c, 0, 81, 67
2, 154800, Note_on_c, 0, 81, 0
2, 154800, Note_on_c, 0, 88, 76
2, 154920, Note_on_c, 0, 88, 0
2, 154920, Note_on_c, 0, 85, 67
2, 155040, Note_on_c, 0, 85, 0
2, 155040, Note_on_c, 0, 83, 70
2, 155160, Note_on_c, 0, 83, 0
2, 155160, Note_on_c, 0, 81, 63
2, 155280, Note_on_c, 0, 81, 0
2, 155280, Note_on_c, 0, 83, 69
2, 155400, Note_on_c, 0, 83, 0
2, 155400, Note_on_c, 0, 81, 67
2, 155520, Note_on_c, 0, 81, 0
2, 155520, Note_on_c, 0, 88, 76
2, 155640, Note_on_c, 0, 88, 0
2, 155640, Note_on_c, 0, 85, 67
2, 155760, Note_on_c, 0, 85, 0
2, 155760, Note_on_c, 0, 83, 70
2, 155880, Note_on_c, 0, 83, 0
2, 155880, Note_on_c, 0, 81, 63
2, 156000, Note_on_c, 0, 81, 0
2, 156000, Note_on_c, 0, 83, 69
2, 156120, Note_on_c, 0, 83, 0
2, 156120, Note_on_c, 0, 81, 67
2, 156240, Note_on_c, 0, 81, 0
2, 156240, Note_on_c, 0, 88, 76
2, 156360, Note_on_c, 0, 88, 0
2, 156360, Note_on_c, 0, 85, 67
2, 156480, Note_on_c, 0, 85, 0
2, 156480, Note_on_c, 0, 83, 56
2, 156600, Note_on_c, 0, 83, 0
2, 156600, Note_on_c, 0, 81, 53
2, 156720, Note_on_c, 0, 81, 0
2, 156720, Note_on_c, 0, 83, 58
2, 156840, Note_on_c, 0, 83, 0
2, 156840, Note_on_c, 0, 81, 56
2, 156960, Note_on_c, 0, 81, 0
2, 156960, Note_on_c, 0, 93, 71
2, 157080, Note_on_c, 0, 93, 0
2, 157080, Note_on_c, 0, 90, 56
2, 157200, Note_on_c, 0, 90, 0
2, 157200, Note_on_c, 0, 83, 59
2, 157320, Note_on_c, 0, 83, 0
2, 157320, Note_on_c, 0, 81, 53
2, 157440, Note_on_c, 0, 81, 0
2, 157440, Note_on_c, 0, 83, 58
2, 157560, Note_on_c, 0, 83, 0
2, 157560, Note_on_c, 0, 81, 56
2, 157680, Note_on_c, 0, 81, 0
2, 157680, Note_on_c, 0, 93, 64
2, 157800, Note_on_c, 0, 93, 0
2, 157800, Note_on_c, 0, 90, 56
2, 157920, Note_on_c, 0, 90, 0
2, 157920, Note_on_c, 0, 83, 59
2, 158040, Note_on_c, 0, 83, 0
2, 158040, Note_on_c, 0, 81, 53
2, 158160, Note_on_c, 0, 81, 0
2, 158160, Note_on_c, 0, 83, 58
2, 158280, Note_on_c, 0, 83, 0
2, 158280, Note_on_c, 0, 81, 56
2, 158400, Note_on_c, 0, 81, 0
2, 158400, Note_on_c, 0, 93, 71
2, 158520, Note_on_c, 0, 93, 0
2, 158520, Note_on_c, 0, 90, 56
2, 158640, Note_on_c, 0, 90, 0
2, 158640, Note_on_c, 0, 83, 59
2, 158760, Note_on_c, 0, 83, 0
2, 158760, Note_on_c, 0, 81, 53
2, 158880, Note_on_c, 0, 81, 0
2, 158880, Note_on_c, 0, 83, 58
2, 159000, Note_on_c, 0, 83, 0
2, 159000, Note_on_c, 0, 81, 56
2, 159120, Note_on_c, 0, 81, 0
2, 159120, Note_on_c, 0, 93, 64
2, 159240, Note_on_c, 0, 93, 0
2, 159240, Note_on_c, 0, 90, 56
2, 159360, Note_on_c, 0, 90, 0
2, 159360, Note_on_c, 0, 83, 59
2, 159480, Note_on_c, 0, 83, 0
2, 159480, Note_on_c, 0, 81, 53
2, 159600, Note_on_c, 0, 81, 0
2, 159600, Note_on_c, 0, 83, 58
2, 159720, Note_on_c, 0, 83, 0
2, 159720, Note_on_c, 0, 81, 56
2, 159840, Note_on_c, 0, 81, 0
2, 159840, Note_on_c, 0, 93, 71
2, 159960, Note_on_c, 0, 93, 0
2, 159960, Note_on_c, 0, 90, 56
2, 160080, Note_on_c, 0, 90, 0
2, 160080, Note_on_c, 0, 86, 58
2, 160200, Note_on_c, 0, 86, 0
2, 160200, Note_on_c, 0, 81, 51
2, 160320, Note_on_c, 0, 81, 0
2, 160320, Note_on_c, 0, 86, 56
2, 160440, Note_on_c, 0, 86, 0
2, 160440, Note_on_c, 0, 81, 53
2, 160560, Note_on_c, 0, 81, 0
2, 160560, Note_on_c, 0, 93, 60
2, 160680, Note_on_c, 0, 93, 0
2, 160680, Note_on_c, 0, 90, 53
2, 160800, Note_on_c, 0, 90, 0
2, 160800, Note_on_c, 0, 86, 55
2, 160920, Note_on_c, 0, 86, 0
2, 160920, Note_on_c, 0, 81, 49
2, 161040, Note_on_c, 0, 81, 0
2, 161040, Note_on_c, 0, 86, 53
2, 161160, Note_on_c, 0, 86, 0
2, 161160, Note_on_c, 0, 81, 50
2, 161280, Note_on_c, 0, 81, 0
2, 161280, Note_on_c, 0, 93, 63
2, 161400, Note_on_c, 0, 93, 0
2, 161400, Note_on_c, 0, 90, 50
2, 161520, Note_on_c, 0, 90, 0
2, 161520, Note_on_c, 0, 86, 52
2, 161640, Note_on_c, 0, 86, 0
2, 161640, Note_on_c, 0, 81, 46
2, 161760, Note_on_c, 0, 81, 0
2, 161760, Note_on_c, 0, 86, 50
2, 161880, Note_on_c, 0, 86, 0
2, 161880, Note_on_c, 0, 81, 48
2, 162000, Note_on_c, 0, 81, 0
2, 162000, Note_on_c, 0, 93, 54
2, 162120, Note_on_c, 0, 93, 0
2, 162120, Note_on_c, 0, 90, 47
2, 162240, Note_on_c, 0, 90, 0
2, 162240, Note_on_c, 0, 86, 49
2, 162360, Note_on_c, 0, 86, 0
2, 162360, Note_on_c, 0, 81, 43
2, 162480, Note_on_c, 0, 81, 0
2, 162480, Note_on_c, 0, 86, 47
2, 162600, Note_on_c, 0, 86, 0
2, 162600, Note_on_c, 0, 81, 45
2, 162720, Note_on_c, 0, 81, 0
2, 162720, Note_on_c, 0, 93, 56
2, 162840, Note_on_c, 0, 93, 0
2, 162840, Note_on_c, 0, 88, 44
2, 162960, Note_on_c, 0, 88, 0
2, 162960, Note_on_c, 0, 85, 47
2, 163080, Note_on_c, 0, 85, 0
2, 163080, Note_on_c, 0, 81, 42
2, 163200, Note_on_c, 0, 81, 0
2, 163200, Note_on_c, 0, 85, 46
2, 163320, Note_on_c, 0, 85, 0
2, 163320, Note_on_c, 0, 81, 44
2, 163440, Note_on_c, 0, 81, 0
2, 163440, Note_on_c, 0, 90, 56
2, 163560, Note_on_c, 0, 90, 0
2, 163560, Note_on_c, 0, 88, 44
2, 163680, Note_on_c, 0, 88, 0
2, 163680, Note_on_c, 0, 90, 47
2, 163800, Note_on_c, 0, 90, 0
2, 163800, Note_on_c, 0, 88, 42
2, 163920, Note_on_c, 0, 88, 0
2, 163920, Note_on_c, 0, 90, 46
2, 164040, Note_on_c, 0, 90, 0
2, 164040, Note_on_c, 0, 88, 44
2, 164160, Note_on_c, 0, 88, 0
2, 164160, Note_on_c, 0, 93, 56
2, 164280, Note_on_c, 0, 93, 0
2, 164280, Note_on_c, 0, 88, 44
2, 164400, Note_on_c, 0, 88, 0
2, 164400, Note_on_c, 0, 85, 47
2, 164520, Note_on_c, 0, 85, 0
2, 164520, Note_on_c, 0, 81, 42
2, 164640, Note_on_c, 0, 81, 0
2, 164640, Note_on_c, 0, 85, 46
2, 164760, Note_on_c, 0, 85, 0
2, 164760, Note_on_c, 0, 81, 44
2, 164880, Note_on_c, 0, 81, 0
2, 164880, Note_on_c, 0, 90, 56
2, 165000, Note_on_c, 0, 90, 0
2, 165000, Note_on_c, 0, 88, 44
2, 165120, Note_on_c, 0, 88, 0
2, 165120, Note_on_c, 0, 90, 47
2, 165240, Note_on_c, 0, 90, 0
2, 165240, Note_on_c, 0, 88, 42
2, 165360, Note_on_c, 0, 88, 0
2, 165360, Note_on_c, 0, 90, 46
2, 165480, Note_on_c, 0, 90, 0
2, 165480, Note_on_c, 0, 88, 44
2, 165600, Note_on_c, 0, 88, 0
2, 165600, Note_on_c, 0, 93, 56
2, 165720, Note_on_c, 0, 93, 0
2, 165720, Note_on_c, 0, 88, 44
2, 165840, Note_on_c, 0, 88, 0
2, 165840, Note_on_c, 0, 85, 47
2, 165960, Note_on_c, 0, 85, 0
2, 165960, Note_on_c, 0, 81, 42
2, 166080, Note_on_c, 0, 81, 0
2, 166080, Note_on_c, 0, 85, 45
2, 166200, Note_on_c, 0, 85, 0
2, 166200, Note_on_c, 0, 81, 43
2, 166320, Note_on_c, 0, 81, 0
2, 166320, Note_on_c, 0, 90, 55
2, 166440, Note_on_c, 0, 90, 0
2, 166440, Note_on_c, 0, 88, 43
2, 166560, Note_on_c, 0, 88, 0
2, 166560, Note_on_c, 0, 90, 46
2, 166680, Note_on_c, 0, 90, 0
2, 166680, Note_on_c, 0, 88, 41
2, 166800, Note_on_c, 0, 88, 0
2, 166800, Note_on_c, 0, 90, 45
2, 166920, Note_on_c, 0, 90, 0
2, 166920, Note_on_c, 0, 88, 42
2, 167040, Note_on_c, 0, 88, 0
2, 167040, Note_on_c, 0, 93, 54
2, 167160, Note_on_c, 0, 93, 0
2, 167160, Note_on_c, 0, 88, 42
2, 167280, Note_on_c, 0, 88, 0
2, 167280, Note_on_c, 0, 85, 45
2, 167400, Note_on_c, 0, 85, 0
2, 167400, Note_on_c, 0, 81, 40
2, 167520, Note_on_c, 0, 81, 0
2, 167520, Note_on_c, 0, 85, 44
2, 167640, Note_on_c, 0, 85, 0
2, 167640, Note_on_c, 0, 81, 42
2, 167760, Note_on_c, 0, 81, 0
2, 167760, Note_on_c, 0, 90, 53
2, 167880, Note_on_c, 0, 90, 0
2, 167880, Note_on_c, 0, 88, 41
2, 168000, Note_on_c, 0, 88, 0
2, 168000, Note_on_c, 0, 90, 44
2, 168120, Note_on_c, 0, 90, 0
2, 168120, Note_on_c, 0, 88, 39
2, 168240, Note_on_c, 0, 88, 0
2, 168240, Note_on_c, 0, 90, 43
2, 168360, Note_on_c, 0, 90, 0
2, 168360, Note_on_c, 0, 88, 41
2, 168480, Note_on_c, 0, 88, 0
2, 168480, Note_on_c, 0, 93, 52
2, 168600, Note_on_c, 0, 93, 0
2, 168600, Note_on_c, 0, 88, 41
2, 168720, Note_on_c, 0, 88, 0
2, 168720, Note_on_c, 0, 85, 43
2, 168840, Note_on_c, 0, 85, 0
2, 168840, Note_on_c, 0, 81, 39
2, 168960, Note_on_c, 0, 81, 0
2, 168960, Note_on_c, 0, 85, 42
2, 169080, Note_on_c, 0, 85, 0
2, 169080, Note_on_c, 0, 81, 40
2, 169200, Note_on_c, 0, 81, 0
2, 169200, Note_on_c, 0, 88, 51
2, 169320, Note_on_c, 0, 88, 0
2, 169320, Note_on_c, 0, 85, 40
2, 169440, Note_on_c, 0, 85, 0
2, 169440, Note_on_c, 0, 83, 43
2, 169560, Note_on_c, 0, 83, 0
2, 169560, Note_on_c, 0, 81, 38
2, 169680, Note_on_c, 0, 81, 0
2, 169680, Note_on_c, 0, 83, 41
2, 169800, Note_on_c, 0, 83, 0
2, 169800, Note_on_c, 0, 81, 40
2, 169920, Note_on_c, 0, 81, 0
2, 169920, Note_on_c, 0, 88, 50
2, 170040, Note_on_c, 0, 88, 0
2, 170040, Note_on_c, 0, 85, 39
2, 170160, Note_on_c, 0, 85, 0
2, 170160, Note_on_c, 0, 83, 42
2, 170280, Note_on_c, 0, 83, 0
2, 170280, Note_on_c, 0, 81, 37
2, 170400, Note_on_c, 0, 81, 0
2, 170400, Note_on_c, 0, 83, 40
2, 170520, Note_on_c, 0, 83, 0
2, 170520, Note_on_c, 0, 81, 39
2, 170640, Note_on_c, 0, 81, 0
2, 170640, Note_on_c, 0, 88, 49
2, 170760, Note_on_c, 0, 88, 0
2, 170760, Note_on_c, 0, 85, 39
2, 170880, Note_on_c, 0, 85, 0
2, 170880, Note_on_c, 0, 83, 41
2, 171000, Note_on_c, 0, 83, 0
2, 171000, Note_on_c, 0, 81, 36
2, 171120, Note_on_c, 0, 81, 0
2, 171120, Note_on_c, 0, 83, 40
2, 171240, Note_on_c, 0, 83, 0
2, 171240, Note_on_c, 0, 81, 38
2, 171360, Note_on_c, 0, 81, 0
2, 171360, Note_on_c, 0, 88, 48
2, 171480, Note_on_c, 0, 88, 0
2, 171480, Note_on_c, 0, 85, 38
2, 171600, Note_on_c, 0, 85, 0
2, 171600, Note_on_c, 0, 83, 40
2, 171720, Note_on_c, 0, 83, 0
2, 171720, Note_on_c, 0, 81, 36
2, 171840, Note_on_c, 0, 81, 0
2, 171840, Note_on_c, 0, 83, 39
2, 171960, Note_on_c, 0, 83, 0
2, 171960, Note_on_c, 0, 81, 37
2, 172080, Note_on_c, 0, 81, 0
2, 172080, Note_on_c, 0, 88, 47
2, 172200, Note_on_c, 0, 88, 0
2, 172200, Note_on_c, 0, 85, 37
2, 172320, Note_on_c, 0, 85, 0
2, 172320, Note_on_c, 0, 83, 39
2, 172440, Note_on_c, 0, 83, 0
2, 172440, Note_on_c, 0, 81, 35
2, 172560, Note_on_c, 0, 81, 0
2, 172560, Note_on_c, 0, 83, 39
2, 172680, Note_on_c, 0, 83, 0
2, 172680, Note_on_c, 0, 81, 45
2, 172800, Note_on_c, 0, 81, 0
2, 172800, Note_on_c, 0, 88, 49
2, 172920, Note_on_c, 0, 88, 0
2, 172920, Note_on_c, 0, 85, 46
2, 173040, Note_on_c, 0, 85, 0
2, 173040, Note_on_c, 0, 83, 49
2, 173160, Note_on_c, 0, 83, 0
2, 173160, Note_on_c, 0, 81, 53
2, 173280, Note_on_c, 0, 81, 0
2, 173280, Note_on_c, 0, 83, 55
2, 173400, Note_on_c, 0, 83, 0
2, 173400, Note_on_c, 0, 85, 57
2, 173520, Note_on_c, 0, 85, 0
2, 173520, Note_on_c, 0, 86, 61
2, 173640, Note_on_c, 0, 86, 0
2, 173640, Note_on_c, 0, 88, 65
2, 173760, Note_on_c, 0, 88, 0
2, 173760, Note_on_c, 0, 90, 68
2, 173880, Note_on_c, 0, 90, 0
2, 173880, Note_on_c, 0, 92, 70
2, 174000, Note_on_c, 0, 92, 0
2, 174000, Note_on_c, 0, 93, 73
2, 174120, Note_on_c, 0, 93, 0
2, 174120, Note_on_c, 0, 95, 77
2, 174240, Note_on_c, 0, 95, 0
2, 174240, Note_on_c, 0, 97, 78
2, 174480, Note_on_c, 0, 97, 0
2, 175560, Note_on_c, 0, 76, 41
2, 175620, Note_on_c, 0, 81, 41
2, 175680, Note_on_c, 0, 88, 49
2, 175920, Note_on_c, 0, 88, 0
2, 175920, Note_on_c, 0, 81, 0
2, 175920, Note_on_c, 0, 76, 0
2, 177120, Note_on_c, 0, 57, 34
2, 177240, Note_on_c, 0, 57, 0
2, 177240, End_track
3, 0, Start_track
3, 0, Title_t, "Piano left"
3, 0, Program_c, 0, 0
3, 0, Note_on_c, 0, 33, 59
3, 0, Note_on_c, 0, 45, 70
3, 240, Note_on_c, 0, 49, 61
3, 360, Note_on_c, 0, 49, 0
3, 360, Note_on_c, 0, 52, 63
3, 480, Note_on_c, 0, 52, 0
3, 480, Note_on_c, 0, 45, 0
3, 480, Note_on_c, 0, 33, 0
3, 480, Note_on_c, 0, 57, 67
3, 600, Note_on_c, 0, 57, 0
3, 600, Note_on_c, 0, 61, 70
3, 720, Note_on_c, 0, 61, 0
3, 960, Note_on_c, 0, 59, 63
3, 960, Note_on_c, 0, 52, 53
3, 1020, Note_on_c, 0, 52, 0
3, 1020, Note_on_c, 0, 59, 0
3, 1200, Note_on_c, 0, 59, 63
3, 1200, Note_on_c, 0, 52, 53
3, 1260, Note_on_c, 0, 52, 0
3, 1260, Note_on_c, 0, 59, 0
3, 1440, Note_on_c, 0, 61, 70
3, 1440, Note_on_c, 0, 57, 70
3, 1920, Note_on_c, 0, 57, 0
3, 1920, Note_on_c, 0, 61, 0
3, 2400, Note_on_c, 0, 71, 66
3, 2400, Note_on_c, 0, 64, 56
3, 2460, Note_on_c, 0, 64, 0
3, 2460, Note_on_c, 0, 71, 0
3, 2640, Note_on_c, 0, 71, 62
3, 2640, Note_on_c, 0, 64, 52
3, 2700, Note_on_c, 0, 64, 0
3, 2700, Note_on_c, 0, 71, 0
3, 2880, Note_on_c, 0, 69, 59
3, 2880, Note_on_c, 0, 73, 70
3, 3360, Note_on_c, 0, 73, 0
3, 3360, Note_on_c, 0, 69, 0
3, 3840, Note_on_c, 0, 71, 66
3, 3840, Note_on_c, 0, 64, 56
3, 3900, Note_on_c, 0, 64, 0
3, 3900, Note_on_c, 0, 71, 0
3, 4080, Note_on_c, 0, 71, 66
3, 4080, Note_on_c, 0, 64, 56
3, 4140, Note_on_c, 0, 64, 0
3, 4140, Note_on_c, 0, 71, 0
3, 4320, Note_on_c, 0, 69, 59
3, 4320, Note_on_c, 0, 73, 70
3, 4560, Note_on_c, 0, 73, 0
3, 4560, Note_on_c, 0, 69, 0
3, 4560, Note_on_c, 0, 71, 64
3, 4560, Note_on_c, 0, 64, 54
3, 4620, Note_on_c, 0, 64, 0
3, 4620, Note_on_c, 0, 71, 0
3, 4800, Note_on_c, 0, 71, 64
3, 4800, Note_on_c, 0, 64, 54
3, 4860, Note_on_c, 0, 64, 0
3, 4860, Note_on_c, 0, 71, 0
3, 5040, Note_on_c, 0, 69, 59
3, 5040, Note_on_c, 0, 73, 70
3, 5280, Note_on_c, 0, 73, 0
3, 5280, Note_on_c, 0, 69, 0
3, 5280, Note_on_c, 0, 71, 64
3, 5280, Note_on_c, 0, 64, 54
3, 5340, Note_on_c, 0, 64, 0
3, 5340, Note_on_c, 0, 71, 0
3, 5520, Note_on_c, 0, 71, 64
3, 5520, Note_on_c, 0, 64, 54
3, 5580, Note_on_c, 0, 64, 0
3, 5580, Note_on_c, 0, 71, 0
3, 5760, Note_on_c, 0, 69, 59
3, 5760, Note_on_c, 0, 73, 70
3, 6240, Note_on_c, 0, 73, 0
3, 6240, Note_on_c, 0, 69, 0
3, 6480, Note_on_c, 0, 45, 79
3, 6480, Note_on_c, 0, 33, 67
3, 6840, Note_on_c, 0, 33, 0
3, 6840, Note_on_c, 0, 45, 0
3, 6840, Note_on_c, 0, 49, 50
3, 6840, Note_on_c, 0, 57, 59
3, 6948, Note_on_c, 0, 57, 0
3, 6948, Note_on_c, 0, 49, 0
3, 6960, Note_on_c, 0, 57, 54
3, 6960, Note_on_c, 0, 49, 45
3, 7140, Note_on_c, 0, 49, 0
3, 7140, Note_on_c, 0, 57, 0
3, 7200, Note_on_c, 0, 49, 50
3, 7200, Note_on_c, 0, 57, 59
3, 7440, Note_on_c, 0, 57, 0
3, 7440, Note_on_c, 0, 49, 0
3, 7440, Note_on_c, 0, 59, 55
3, 7440, Note_on_c, 0, 52, 46
3, 7680, Note_on_c, 0, 52, 0
3, 7680, Note_on_c, 0, 59, 0
3, 7680, Note_on_c, 0, 57, 46
3, 7680, Note_on_c, 0, 61, 55
3, 7800, Note_on_c, 0, 61, 0
3, 7800, Note_on_c, 0, 57, 0
3, 7920, Note_on_c, 0, 57, 51
3, 7920, Note_on_c, 0, 61, 60
3, 8400, Note_on_c, 0, 61, 0
3, 8400, Note_on_c, 0, 57, 0
3, 8400, Note_on_c, 0, 57, 50
3, 8400, Note_on_c, 0, 61, 59
3, 8580, Note_on_c, 0, 61, 0
3, 8580, Note_on_c, 0, 57, 0
3, 8640, Note_on_c, 0, 57, 53
3, 8640, Note_on_c, 0, 61, 63
3, 8880, Note_on_c, 0, 61, 0
3, 8880, Note_on_c, 0, 57, 0
3, 8880, Note_on_c, 0, 62, 59
3, 8880, Note_on_c, 0, 59, 50
3, 9120, Note_on_c, 0, 59, 0
3, 9120, Note_on_c, 0, 62, 0
3, 9120, Note_on_c, 0, 61, 50
3, 9120, Note_on_c, 0, 64, 59
3, 9240, Note_on_c, 0, 64, 0
3, 9240, Note_on_c, 0, 61, 0
3, 9360, Note_on_c, 0, 64, 66
3, 9360, Note_on_c, 0, 61, 56
3, 9720, Note_on_c, 0, 61, 0
3, 9720, Note_on_c, 0, 64, 0
3, 9720, Note_on_c, 0, 62, 50
3, 9720, Note_on_c, 0, 66, 59
3, 9828, Note_on_c, 0, 66, 0
3, 9828, Note_on_c, 0, 62, 0
3, 9840, Note_on_c, 0, 66, 62
3, 9840, Note_on_c, 0, 62, 52
3, 10020, Note_on_c, 0, 62, 0
3, 10020, Note_on_c, 0, 66, 0
3, 10080, Note_on_c, 0, 66, 70
3, 10080, Note_on_c, 0, 62, 59
3, 10080, Note_on_c, 0, 57, 59
3, 10440, Note_on_c, 0, 57, 0
3, 10440, Note_on_c, 0, 62, 0
3, 10440, Note_on_c, 0, 66, 0
3, 10440, Note_on_c, 0, 62, 50
3, 10440, Note_on_c, 0, 66, 59
3, 10548, Note_on_c, 0, 66, 0
3, 10548, Note_on_c, 0, 62, 0
3, 10560, Note_on_c, 0, 62, 50
3, 10560, Note_on_c, 0, 66, 59
3, 10740, Note_on_c, 0, 66, 0
3, 10740, Note_on_c, 0, 62, 0
3, 10800, Note_on_c, 0, 66, 67
3, 10800, Note_on_c, 0, 62, 56
3, 11040, Note_on_c, 0, 62, 0
3, 11040, Note_on_c, 0, 66, 0
3, 11040, Note_on_c, 0, 64, 50
3, 11040, Note_on_c, 0, 68, 59
3, 11280, Note_on_c, 0, 68, 0
3, 11280, Note_on_c, 0, 64, 0
3, 11280, Note_on_c, 0, 62, 50
3, 11280, Note_on_c, 0, 66, 59
3, 11400, Note_on_c, 0, 66, 0
3, 11400, Note_on_c, 0, 62, 0
3, 11520, Note_on_c, 0, 66, 67
3, 11520, Note_on_c, 0, 62, 56
3, 11520, Note_on_c, 0, 57, 56
3, 12240, Note_on_c, 0, 57, 0
3, 12240, Note_on_c, 0, 62, 0
3, 12240, Note_on_c, 0, 66, 0
3, 12240, Note_on_c, 0, 64, 58
3, 12240, Note_on_c, 0, 61, 49
3, 12480, Note_on_c, 0, 61, 0
3, 12480, Note_on_c, 0, 64, 0
3, 12600, Note_on_c, 0, 49, 50
3, 12600, Note_on_c, 0, 57, 59
3, 12708, Note_on_c, 0, 57, 0
3, 12708, Note_on_c, 0, 49, 0
3, 12720, Note_on_c, 0, 57, 54
3, 12720, Note_on_c, 0, 49, 45
3, 12900, Note_on_c, 0, 49, 0
3, 12900, Note_on_c, 0, 57, 0
3, 12960, Note_on_c, 0, 49, 50
3, 12960, Note_on_c, 0, 57, 59
3, 13200, Note_on_c, 0, 57, 0
3, 13200, Note_on_c, 0, 49, 0
3, 13200, Note_on_c, 0, 59, 55
3, 13200, Note_on_c, 0, 52, 46
3, 13440, Note_on_c, 0, 52, 0
3, 13440, Note_on_c, 0, 59, 0
3, 13440, Note_on_c, 0, 57, 46
3, 13440, Note_on_c, 0, 61, 55
3, 13560, Note_on_c, 0, 61, 0
3, 13560, Note_on_c, 0, 57, 0
3, 13680, Note_on_c, 0, 57, 51
3, 13680, Note_on_c, 0, 61, 60
3, 14160, Note_on_c, 0, 61, 0
3, 14160, Note_on_c, 0, 57, 0
3, 14160, Note_on_c, 0, 57, 50
3, 14160, Note_on_c, 0, 61, 59
3, 14340, Note_on_c, 0, 61, 0
3, 14340, Note_on_c, 0, 57, 0
3, 14400, Note_on_c, 0, 57, 53
3, 14400, Note_on_c, 0, 61, 63
3, 14640, Note_on_c, 0, 61, 0
3, 14640, Note_on_c, 0, 57, 0
3, 14640, Note_on_c, 0, 62, 59
3, 14640, Note_on_c, 0, 59, 50
3, 14880, Note_on_c, 0, 59, 0
3, 14880, Note_on_c, 0, 62, 0
3, 14880, Note_on_c, 0, 61, 50
3, 14880, Note_on_c, 0, 64, 59
3, 15000, Note_on_c, 0, 64, 0
3, 15000, Note_on_c, 0, 61, 0
3, 15120, Note_on_c, 0, 64, 66
3, 15120, Note_on_c, 0, 61, 56
3, 15600, Note_on_c, 0, 61, 0
3, 15600, Note_on_c, 0, 64, 0
3, 15840, Note_on_c, 0, 45, 52
3, 15840, Note_on_c, 0, 33, 44
3, 16080, Note_on_c, 0, 33, 0
3, 16080, Note_on_c, 0, 45, 0
3, 16080, Note_on_c, 0, 54, 37
3, 16080, Note_on_c, 0, 61, 37
3, 16080, Note_on_c, 0, 64, 44
3, 16310, Note_on_c, 0, 64, 0
3, 16310, Note_on_c, 0, 61, 0
3, 16310, Note_on_c, 0, 54, 0
3, 16320, Note_on_c, 0, 54, 37
3, 16320, Note_on_c, 0, 61, 37
3, 16320, Note_on_c, 0, 64, 44
3, 16500, Note_on_c, 0, 64, 0
3, 16500, Note_on_c, 0, 61, 0
3, 16500, Note_on_c, 0, 54, 0
3, 16560, Note_on_c, 0, 54, 29
3, 16560, Note_on_c, 0, 61, 29
3, 16560, Note_on_c, 0, 64, 35
3, 16800, Note_on_c, 0, 64, 0
3, 16800, Note_on_c, 0, 61, 0
3, 16800, Note_on_c, 0, 54, 0
3, 16800, Note_on_c, 0, 54, 29
3, 16800, Note_on_c, 0, 61, 29
3, 16800, Note_on_c, 0, 64, 35
3, 17040, Note_on_c, 0, 64, 0
3, 17040, Note_on_c, 0, 61, 0
3, 17040, Note_on_c, 0, 54, 0
3, 17040, Note_on_c, 0, 54, 29
3, 17040, Note_on_c, 0, 61, 29
3, 17040, Note_on_c, 0, 64, 35
3, 17280, Note_on_c, 0, 64, 0
3, 17280, Note_on_c, 0, 61, 0
3, 17280, Note_on_c, 0, 54, 0
3, 17280, Note_on_c, 0, 54, 37
3, 17280, Note_on_c, 0, 61, 37
3, 17280, Note_on_c, 0, 64, 37
3, 18720, Note_on_c, 0, 64, 0
3, 18720, Note_on_c, 0, 61, 0
3, 18720, Note_on_c, 0, 54, 0
3, 18720, Note_on_c, 0, 45, 52
3, 18720, Note_on_c, 0, 33, 44
3, 18960, Note_on_c, 0, 33, 0
3, 18960, Note_on_c, 0, 45, 0
3, 18960, Note_on_c, 0, 54, 37
3, 18960, Note_on_c, 0, 61, 37
3, 18960, Note_on_c, 0, 64, 44
3, 19190, Note_on_c, 0, 64, 0
3, 19190, Note_on_c, 0, 61, 0
3, 19190, Note_on_c, 0, 54, 0
3, 19200, Note_on_c, 0, 54, 37
3, 19200, Note_on_c, 0, 61, 37
3, 19200, Note_on_c, 0, 64, 44
3, 19380, Note_on_c, 0, 64, 0
3, 19380, Note_on_c, 0, 61, 0
3, 19380, Note_on_c, 0, 54, 0
3, 19440, Note_on_c, 0, 54, 29
3, 19440, Note_on_c, 0, 61, 29
3, 19440, Note_on_c, 0, 64, 35
3, 19680, Note_on_c, 0, 64, 0
3, 19680, Note_on_c, 0, 61, 0
3, 19680, Note_on_c, 0, 54, 0
3, 19680, Note_on_c, 0, 54, 29
3, 19680, Note_on_c, 0, 61, 29
3, 19680, Note_on_c, 0, 64, 35
3, 19920, Note_on_c, 0, 64, 0
3, 19920, Note_on_c, 0, 61, 0
3, 19920, Note_on_c, 0, 54, 0
3, 19920, Note_on_c, 0, 54, 29
3, 19920, Note_on_c, 0, 61, 29
3, 19920, Note_on_c, 0, 64, 35
3, 20160, Note_on_c, 0, 64, 0
3, 20160, Note_on_c, 0, 61, 0
3, 20160, Note_on_c, 0, 54, 0
3, 20160, Note_on_c, 0, 54, 37
3, 20160, Note_on_c, 0, 61, 37
3, 20160, Note_on_c, 0, 64, 37
3, 21120, Note_on_c, 0, 64, 0
3, 21120, Note_on_c, 0, 61, 0
3, 21120, Note_on_c, 0, 54, 0
3, 21120, Note_on_c, 0, 66, 78
3, 21120, Note_on_c, 0, 59, 66
3, 21240, Note_on_c, 0, 59, 0
3, 21240, Note_on_c, 0, 66, 0
3, 21360, Note_on_c, 0, 59, 59
3, 21360, Note_on_c, 0, 66, 70
3, 21480, Note_on_c, 0, 66, 0
3, 21480, Note_on_c, 0, 59, 0
3, 21600, Note_on_c, 0, 66, 78
3, 21600, Note_on_c, 0, 59, 66
3, 21840, Note_on_c, 0, 59, 0
3, 21840, Note_on_c, 0, 66, 0
3, 21840, Note_on_c, 0, 56, 63
3, 21840, Note_on_c, 0, 64, 75
3, 22080, Note_on_c, 0, 64, 0
3, 22080, Note_on_c, 0, 56, 0
3, 22080, Note_on_c, 0, 59, 61
3, 22080, Note_on_c, 0, 66, 72
3, 22200, Note_on_c, 0, 66, 0
3, 22200, Note_on_c, 0, 59, 0
3, 22320, Note_on_c, 0, 68, 78
3, 22320, Note_on_c, 0, 64, 66
3, 22560, Note_on_c, 0, 64, 0
3, 22560, Note_on_c, 0, 68, 0
3, 22560, Note_on_c, 0, 71, 74
3, 22560, Note_on_c, 0, 68, 62
3, 22800, Note_on_c, 0, 68, 0
3, 22800, Note_on_c, 0, 71, 0
3, 22800, Note_on_c, 0, 59, 62
3, 22800, Note_on_c, 0, 66, 74
3, 22920, Note_on_c, 0, 66, 0
3, 22920, Note_on_c, 0, 59, 0
3, 23040, Note_on_c, 0, 66, 84
3, 23040, Note_on_c, 0, 59, 71
3, 24000, Note_on_c, 0, 59, 0
3, 24000, Note_on_c, 0, 66, 0
3, 24480, Note_on_c, 0, 32, 41
3, 24480, Note_on_c, 0, 44, 49
3, 24720, Note_on_c, 0, 44, 0
3, 24720, Note_on_c, 0, 32, 0
3, 24720, Note_on_c, 0, 52, 30
3, 24720, Note_on_c, 0, 56, 30
3, 24720, Note_on_c, 0, 64, 37
3, 24720, Note_on_c, 0, 59, 30
3, 24840, Note_on_c, 0, 59, 0
3, 24840, Note_on_c, 0, 52, 0
3, 24840, Note_on_c, 0, 56, 0
3, 24840, Note_on_c, 0, 64, 0
3, 24960, Note_on_c, 0, 52, 30
3, 24960, Note_on_c, 0, 56, 30
3, 24960, Note_on_c, 0, 59, 30
3, 24960, Note_on_c, 0, 64, 37
3, 25080, Note_on_c, 0, 64, 0
3, 25080, Note_on_c, 0, 52, 0
3, 25080, Note_on_c, 0, 56, 0
3, 25080, Note_on_c, 0, 59, 0
3, 25200, Note_on_c, 0, 52, 30
3, 25200, Note_on_c, 0, 56, 30
3, 25200, Note_on_c, 0, 59, 30
3, 25200, Note_on_c, 0, 64, 37
3, 25680, Note_on_c, 0, 64, 0
3, 25680, Note_on_c, 0, 52, 0
3, 25680, Note_on_c, 0, 56, 0
3, 25680, Note_on_c, 0, 59, 0
3, 25920, Note_on_c, 0, 33, 41
3, 25920, Note_on_c, 0, 45, 49
3, 26160, Note_on_c, 0, 45, 0
3, 26160, Note_on_c, 0, 33, 0
3, 26160, Note_on_c, 0, 52, 37
3, 26160, Note_on_c, 0, 56, 37
3, 26160, Note_on_c, 0, 64, 45
3, 26160, Note_on_c, 0, 61, 37
3, 26280, Note_on_c, 0, 61, 0
3, 26280, Note_on_c, 0, 52, 0
3, 26280, Note_on_c, 0, 56, 0
3, 26280, Note_on_c, 0, 64, 0
3, 26400, Note_on_c, 0, 52, 37
3, 26400, Note_on_c, 0, 56, 37
3, 26400, Note_on_c, 0, 61, 37
3, 26400, Note_on_c, 0, 64, 45
3, 26520, Note_on_c, 0, 64, 0
3, 26520, Note_on_c, 0, 52, 0
3, 26520, Note_on_c, 0, 56, 0
3, 26520, Note_on_c, 0, 61, 0
3, 26640, Note_on_c, 0, 52, 37
3, 26640, Note_on_c, 0, 56, 37
3, 26640, Note_on_c, 0, 61, 37
3, 26640, Note_on_c, 0, 64, 45
3, 27120, Note_on_c, 0, 64, 0
3, 27120, Note_on_c, 0, 52, 0
3, 27120, Note_on_c, 0, 56, 0
3, 27120, Note_on_c, 0, 61, 0
3, 27360, Note_on_c, 0, 35, 53
3, 27360, Note_on_c, 0, 47, 63
3, 27600, Note_on_c, 0, 47, 0
3, 27600, Note_on_c, 0, 35, 0
3, 27600, Note_on_c, 0, 52, 39
3, 27600, Note_on_c, 0, 56, 39
3, 27600, Note_on_c, 0, 64, 48
3, 27600, Note_on_c, 0, 59, 39
3, 27720, Note_on_c, 0, 59, 0
3, 27720, Note_on_c, 0, 52, 0
3, 27720, Note_on_c, 0, 56, 0
3, 27720, Note_on_c, 0, 64, 0
3, 27840, Note_on_c, 0, 52, 40
3, 27840, Note_on_c, 0, 56, 40
3, 27840, Note_on_c, 0, 59, 40
3, 27840, Note_on_c, 0, 64, 50
3, 27960, Note_on_c, 0, 64, 0
3, 27960, Note_on_c, 0, 52, 0
3, 27960, Note_on_c, 0, 56, 0
3, 27960, Note_on_c, 0, 59, 0
3, 28080, Note_on_c, 0, 52, 40
3, 28080, Note_on_c, 0, 56, 40
3, 28080, Note_on_c, 0, 59, 40
3, 28080, Note_on_c, 0, 64, 50
3, 28560, Note_on_c, 0, 64, 0
3, 28560, Note_on_c, 0, 52, 0
3, 28560, Note_on_c, 0, 56, 0
3, 28560, Note_on_c, 0, 59, 0
3, 28800, Note_on_c, 0, 37, 51
3, 28800, Note_on_c, 0, 49, 61
3, 29040, Note_on_c, 0, 49, 0
3, 29040, Note_on_c, 0, 37, 0
3, 29040, Note_on_c, 0, 52, 46
3, 29040, Note_on_c, 0, 56, 46
3, 29040, Note_on_c, 0, 64, 56
3, 29040, Note_on_c, 0, 61, 46
3, 29160, Note_on_c, 0, 61, 0
3, 29160, Note_on_c, 0, 52, 0
3, 29160, Note_on_c, 0, 56, 0
3, 29160, Note_on_c, 0, 64, 0
3, 29280, Note_on_c, 0, 52, 47
3, 29280, Note_on_c, 0, 56, 47
3, 29280, Note_on_c, 0, 61, 47
3, 29280, Note_on_c, 0, 64, 57
3, 29400, Note_on_c, 0, 64, 0
3, 29400, Note_on_c, 0, 52, 0
3, 29400, Note_on_c, 0, 56, 0
3, 29400, Note_on_c, 0, 61, 0
3, 29520, Note_on_c, 0, 52, 48
3, 29520, Note_on_c, 0, 56, 48
3, 29520, Note_on_c, 0, 61, 48
3, 29520, Note_on_c, 0, 64, 58
3, 30000, Note_on_c, 0, 64, 0
3, 30000, Note_on_c, 0, 52, 0
3, 30000, Note_on_c, 0, 56, 0
3, 30000, Note_on_c, 0, 61, 0
3, 30240, Note_on_c, 0, 38, 56
3, 30240, Note_on_c, 0, 50, 66
3, 30480, Note_on_c, 0, 50, 0
3, 30480, Note_on_c, 0, 38, 0
3, 30480, Note_on_c, 0, 52, 41
3, 30480, Note_on_c, 0, 56, 41
3, 30480, Note_on_c, 0, 64, 50
3, 30480, Note_on_c, 0, 59, 41
3, 30600, Note_on_c, 0, 59, 0
3, 30600, Note_on_c, 0, 52, 0
3, 30600, Note_on_c, 0, 56, 0
3, 30600, Note_on_c, 0, 64, 0
3, 30720, Note_on_c, 0, 52, 41
3, 30720, Note_on_c, 0, 56, 41
3, 30720, Note_on_c, 0, 59, 41
3, 30720, Note_on_c, 0, 64, 50
3, 30840, Note_on_c, 0, 64, 0
3, 30840, Note_on_c, 0, 52, 0
3, 30840, Note_on_c, 0, 56, 0
3, 30840, Note_on_c, 0, 59, 0
3, 30960, Note_on_c, 0, 52, 42
3, 30960, Note_on_c, 0, 56, 42
3, 30960, Note_on_c, 0, 59, 42
3, 30960, Note_on_c, 0, 64, 51
3, 31440, Note_on_c, 0, 64, 0
3, 31440, Note_on_c, 0, 52, 0
3, 31440, Note_on_c, 0, 56, 0
3, 31440, Note_on_c, 0, 59, 0
3, 31680, Note_on_c, 0, 37, 60
3, 31680, Note_on_c, 0, 49, 71
3, 31920, Note_on_c, 0, 49, 0
3, 31920, Note_on_c, 0, 37, 0
3, 31920, Note_on_c, 0, 52, 53
3, 31920, Note_on_c, 0, 57, 53
3, 31920, Note_on_c, 0, 64, 64
3, 31920, Note_on_c, 0, 61, 53
3, 32040, Note_on_c, 0, 61, 0
3, 32040, Note_on_c, 0, 52, 0
3, 32040, Note_on_c, 0, 57, 0
3, 32040, Note_on_c, 0, 64, 0
3, 32160, Note_on_c, 0, 52, 53
3, 32160, Note_on_c, 0, 57, 53
3, 32160, Note_on_c, 0, 61, 53
3, 32160, Note_on_c, 0, 64, 64
3, 32280, Note_on_c, 0, 64, 0
3, 32280, Note_on_c, 0, 52, 0
3, 32280, Note_on_c, 0, 57, 0
3, 32280, Note_on_c, 0, 61, 0
3, 32400, Note_on_c, 0, 52, 53
3, 32400, Note_on_c, 0, 57, 53
3, 32400, Note_on_c, 0, 61, 53
3, 32400, Note_on_c, 0, 64, 64
3, 32880, Note_on_c, 0, 64, 0
3, 32880, Note_on_c, 0, 52, 0
3, 32880, Note_on_c, 0, 57, 0
3, 32880, Note_on_c, 0, 61, 0
3, 33120, Note_on_c, 0, 39, 46
3, 33120, Note_on_c, 0, 51, 55
3, 33240, Note_on_c, 0, 51, 0
3, 33240, Note_on_c, 0, 39, 0
3, 33360, Note_on_c, 0, 51, 41
3, 33360, Note_on_c, 0, 54, 41
3, 33360, Note_on_c, 0, 59, 50
3, 33360, Note_on_c, 0, 57, 41
3, 33480, Note_on_c, 0, 57, 0
3, 33480, Note_on_c, 0, 51, 0
3, 33480, Note_on_c, 0, 54, 0
3, 33480, Note_on_c, 0, 59, 0
3, 33600, Note_on_c, 0, 51, 41
3, 33600, Note_on_c, 0, 54, 41
3, 33600, Note_on_c, 0, 57, 41
3, 33600, Note_on_c, 0, 59, 50
3, 33720, Note_on_c, 0, 59, 0
3, 33720, Note_on_c, 0, 51, 0
3, 33720, Note_on_c, 0, 54, 0
3, 33720, Note_on_c, 0, 57, 0
3, 33840, Note_on_c, 0, 51, 41
3, 33840, Note_on_c, 0, 54, 41
3, 33840, Note_on_c, 0, 57, 41
3, 33840, Note_on_c, 0, 59, 50
3, 34080, Note_on_c, 0, 59, 0
3, 34080, Note_on_c, 0, 51, 0
3, 34080, Note_on_c, 0, 54, 0
3, 34080, Note_on_c, 0, 57, 0
3, 34560, Note_on_c, 0, 52, 46
3, 34560, Note_on_c, 0, 47, 46
3, 34560, Note_on_c, 0, 44, 46
3, 34560, Note_on_c, 0, 56, 55
3, 34680, Note_on_c, 0, 56, 0
3, 34680, Note_on_c, 0, 52, 0
3, 34680, Note_on_c, 0, 47, 0
3, 34680, Note_on_c, 0, 44, 0
3, 34800, Note_on_c, 0, 44, 41
3, 34800, Note_on_c, 0, 47, 41
3, 34800, Note_on_c, 0, 56, 50
3, 34800, Note_on_c, 0, 52, 41
3, 34920, Note_on_c, 0, 52, 0
3, 34920, Note_on_c, 0, 44, 0
3, 34920, Note_on_c, 0, 47, 0
3, 34920, Note_on_c, 0, 56, 0
3, 35040, Note_on_c, 0, 44, 41
3, 35040, Note_on_c, 0, 47, 41
3, 35040, Note_on_c, 0, 52, 41
3, 35040, Note_on_c, 0, 56, 50
3, 35160, Note_on_c, 0, 56, 0
3, 35160, Note_on_c, 0, 44, 0
3, 35160, Note_on_c, 0, 47, 0
3, 35160, Note_on_c, 0, 52, 0
3, 35280, Note_on_c, 0, 44, 41
3, 35280, Note_on_c, 0, 47, 41
3, 35280, Note_on_c, 0, 52, 41
3, 35280, Note_on_c, 0, 56, 50
3, 35520, Note_on_c, 0, 56, 0
3, 35520, Note_on_c, 0, 44, 0
3, 35520, Note_on_c, 0, 47, 0
3, 35520, Note_on_c, 0, 52, 0
3, 36000, Note_on_c, 0, 52, 39
3, 36000, Note_on_c, 0, 46, 39
3, 36000, Note_on_c, 0, 54, 46
3, 36120, Note_on_c, 0, 54, 0
3, 36120, Note_on_c, 0, 46, 0
3, 36120, Note_on_c, 0, 52, 0
3, 36240, Note_on_c, 0, 46, 34
3, 36240, Note_on_c, 0, 54, 42
3, 36240, Note_on_c, 0, 52, 34
3, 36360, Note_on_c, 0, 52, 0
3, 36360, Note_on_c, 0, 54, 0
3, 36360, Note_on_c, 0, 46, 0
3, 36480, Note_on_c, 0, 46, 34
3, 36480, Note_on_c, 0, 52, 34
3, 36480, Note_on_c, 0, 54, 42
3, 36600, Note_on_c, 0, 54, 0
3, 36600, Note_on_c, 0, 52, 0
3, 36600, Note_on_c, 0, 46, 0
3, 36720, Note_on_c, 0, 52, 39
3, 36720, Note_on_c, 0, 46, 39
3, 36720, Note_on_c, 0, 54, 46
3, 36840, Note_on_c, 0, 54, 0
3, 36840, Note_on_c, 0, 46, 0
3, 36840, Note_on_c, 0, 52, 0
3, 36960, Note_on_c, 0, 46, 34
3, 36960, Note_on_c, 0, 54, 42
3, 36960, Note_on_c, 0, 52, 34
3, 37080, Note_on_c, 0, 52, 0
3, 37080, Note_on_c, 0, 54, 0
3, 37080, Note_on_c, 0, 46, 0
3, 37200, Note_on_c, 0, 46, 34
3, 37200, Note_on_c, 0, 52, 34
3, 37200, Note_on_c, 0, 54, 42
3, 37320, Note_on_c, 0, 54, 0
3, 37320, Note_on_c, 0, 52, 0
3, 37320, Note_on_c, 0, 46, 0
3, 37440, Note_on_c, 0, 52, 39
3, 37440, Note_on_c, 0, 46, 39
3, 37440, Note_on_c, 0, 54, 46
3, 37560, Note_on_c, 0, 54, 0
3, 37560, Note_on_c, 0, 46, 0
3, 37560, Note_on_c, 0, 52, 0
3, 37680, Note_on_c, 0, 46, 33
3, 37680, Note_on_c, 0, 54, 41
3, 37680, Note_on_c, 0, 52, 33
3, 37800, Note_on_c, 0, 52, 0
3, 37800, Note_on_c, 0, 54, 0
3, 37800, Note_on_c, 0, 46, 0
3, 37920, Note_on_c, 0, 46, 32
3, 37920, Note_on_c, 0, 52, 32
3, 37920, Note_on_c, 0, 54, 40
3, 38040, Note_on_c, 0, 54, 0
3, 38040, Note_on_c, 0, 52, 0
3, 38040, Note_on_c, 0, 46, 0
3, 38160, Note_on_c, 0, 52, 37
3, 38160, Note_on_c, 0, 46, 37
3, 38160, Note_on_c, 0, 54, 43
3, 38280, Note_on_c, 0, 54, 0
3, 38280, Note_on_c, 0, 46, 0
3, 38280, Note_on_c, 0, 52, 0
3, 38400, Note_on_c, 0, 46, 31
3, 38400, Note_on_c, 0, 54, 39
3, 38400, Note_on_c, 0, 52, 31
3, 38520, Note_on_c, 0, 52, 0
3, 38520, Note_on_c, 0, 54, 0
3, 38520, Note_on_c, 0, 46, 0
3, 38640, Note_on_c, 0, 46, 31
3, 38640, Note_on_c, 0, 52, 31
3, 38640, Note_on_c, 0, 54, 38
3, 38760, Note_on_c, 0, 54, 0
3, 38760, Note_on_c, 0, 52, 0
3, 38760, Note_on_c, 0, 46, 0
3, 38880, Note_on_c, 0, 47, 35
3, 38880, Note_on_c, 0, 56, 41
3, 38886, Note_on_c, 0, 52, 35
3, 39000, Note_on_c, 0, 56, 0
3, 39000, Note_on_c, 0, 47, 0
3, 39006, Note_on_c, 0, 52, 0
3, 39120, Note_on_c, 0, 47, 29
3, 39120, Note_on_c, 0, 56, 36
3, 39126, Note_on_c, 0, 52, 29
3, 39240, Note_on_c, 0, 56, 0
3, 39240, Note_on_c, 0, 47, 0
3, 39246, Note_on_c, 0, 52, 0
3, 39360, Note_on_c, 0, 47, 29
3, 39360, Note_on_c, 0, 56, 36
3, 39366, Note_on_c, 0, 52, 29
3, 39480, Note_on_c, 0, 56, 0
3, 39480, Note_on_c, 0, 47, 0
3, 39486, Note_on_c, 0, 52, 0
3, 39600, Note_on_c, 0, 47, 33
3, 39600, Note_on_c, 0, 54, 33
3, 39600, Note_on_c, 0, 57, 39
3, 39720, Note_on_c, 0, 57, 0
3, 39720, Note_on_c, 0, 54, 0
3, 39720, Note_on_c, 0, 47, 0
3, 39840, Note_on_c, 0, 47, 28
3, 39840, Note_on_c, 0, 54, 28
3, 39840, Note_on_c, 0, 57, 34
3, 39960, Note_on_c, 0, 57, 0
3, 39960, Note_on_c, 0, 54, 0
3, 39960, Note_on_c, 0, 47, 0
3, 40080, Note_on_c, 0, 47, 27
3, 40080, Note_on_c, 0, 54, 27
3, 40080, Note_on_c, 0, 57, 34
3, 40200, Note_on_c, 0, 57, 0
3, 40200, Note_on_c, 0, 54, 0
3, 40200, Note_on_c, 0, 47, 0
3, 40320, Note_on_c, 0, 52, 33
3, 40320, Note_on_c, 0, 56, 33
3, 40560, Note_on_c, 0, 56, 0
3, 40560, Note_on_c, 0, 52, 0
3, 41040, Note_on_c, 0, 45, 79
3, 41040, Note_on_c, 0, 33, 67
3, 41400, Note_on_c, 0, 33, 0
3, 41400, Note_on_c, 0, 45, 0
3, 41400, Note_on_c, 0, 49, 50
3, 41400, Note_on_c, 0, 57, 59
3, 41508, Note_on_c, 0, 57, 0
3, 41508, Note_on_c, 0, 49, 0
3, 41520, Note_on_c, 0, 57, 54
3, 41520, Note_on_c, 0, 49, 45
3, 41700, Note_on_c, 0, 49, 0
3, 41700, Note_on_c, 0, 57, 0
3, 41760, Note_on_c, 0, 49, 50
3, 41760, Note_on_c, 0, 57, 59
3, 42000, Note_on_c, 0, 57, 0
3, 42000, Note_on_c, 0, 49, 0
3, 42000, Note_on_c, 0, 59, 55
3, 42000, Note_on_c, 0, 52, 46
3, 42240, Note_on_c, 0, 52, 0
3, 42240, Note_on_c, 0, 59, 0
3, 42240, Note_on_c, 0, 57, 46
3, 42240, Note_on_c, 0, 61, 55
3, 42360, Note_on_c, 0, 61, 0
3, 42360, Note_on_c, 0, 57, 0
3, 42480, Note_on_c, 0, 57, 51
3, 42480, Note_on_c, 0, 61, 60
3, 42960, Note_on_c, 0, 61, 0
3, 42960, Note_on_c, 0, 57, 0
3, 42960, Note_on_c, 0, 57, 50
3, 42960, Note_on_c, 0, 61, 59
3, 43140, Note_on_c, 0, 61, 0
3, 43140, Note_on_c, 0, 57, 0
3, 43200, Note_on_c, 0, 57, 53
3, 43200, Note_on_c, 0, 61, 63
3, 43440, Note_on_c, 0, 61, 0
3, 43440, Note_on_c, 0, 57, 0
3, 43440, Note_on_c, 0, 62, 59
3, 43440, Note_on_c, 0, 59, 50
3, 43680, Note_on_c, 0, 59, 0
3, 43680, Note_on_c, 0, 62, 0
3, 43680, Note_on_c, 0, 61, 50
3, 43680, Note_on_c, 0, 64, 59
3, 43800, Note_on_c, 0, 64, 0
3, 43800, Note_on_c, 0, 61, 0
3, 43920, Note_on_c, 0, 64, 66
3, 43920, Note_on_c, 0, 61, 56
3, 44280, Note_on_c, 0, 61, 0
3, 44280, Note_on_c, 0, 64, 0
3, 44280, Note_on_c, 0, 62, 50
3, 44280, Note_on_c, 0, 66, 59
3, 44388, Note_on_c, 0, 66, 0
3, 44388, Note_on_c, 0, 62, 0
3, 44400, Note_on_c, 0, 66, 62
3, 44400, Note_on_c, 0, 62, 52
3, 44580, Note_on_c, 0, 62, 0
3, 44580, Note_on_c, 0, 66, 0
3, 44640, Note_on_c, 0, 66, 70
3, 44640, Note_on_c, 0, 62, 59
3, 44640, Note_on_c, 0, 57, 59
3, 45000, Note_on_c, 0, 57, 0
3, 45000, Note_on_c, 0, 62, 0
3, 45000, Note_on_c, 0, 66, 0
3, 45000, Note_on_c, 0, 62, 50
3, 45000, Note_on_c, 0, 66, 59
3, 45108, Note_on_c, 0, 66, 0
3, 45108, Note_on_c, 0, 62, 0
3, 45120, Note_on_c, 0, 62, 50
3, 45120, Note_on_c, 0, 66, 59
3, 45300, Note_on_c, 0, 66, 0
3, 45300, Note_on_c, 0, 62, 0
3, 45360, Note_on_c, 0, 66, 67
3, 45360, Note_on_c, 0, 62, 56
3, 45600, Note_on_c, 0, 62, 0
3, 45600, Note_on_c, 0, 66, 0
3, 45600, Note_on_c, 0, 64, 50
3, 45600, Note_on_c, 0, 68, 59
3, 45840, Note_on_c, 0, 68, 0
3, 45840, Note_on_c, 0, 64, 0
3, 45840, Note_on_c, 0, 62, 50
3, 45840, Note_on_c, 0, 66, 59
3, 45960, Note_on_c, 0, 66, 0
3, 45960, Note_on_c, 0, 62, 0
3, 46080, Note_on_c, 0, 66, 67
3, 46080, Note_on_c, 0, 62, 56
3, 46080, Note_on_c, 0, 57, 56
3, 46800, Note_on_c, 0, 57, 0
3, 46800, Note_on_c, 0, 62, 0
3, 46800, Note_on_c, 0, 66, 0
3, 46800, Note_on_c, 0, 64, 58
3, 46800, Note_on_c, 0, 61, 49
3, 47040, Note_on_c, 0, 61, 0
3, 47040, Note_on_c, 0, 64, 0
3, 47160, Note_on_c, 0, 49, 50
3, 47160, Note_on_c, 0, 57, 59
3, 47268, Note_on_c, 0, 57, 0
3, 47268, Note_on_c, 0, 49, 0
3, 47280, Note_on_c, 0, 57, 54
3, 47280, Note_on_c, 0, 49, 45
3, 47460, Note_on_c, 0, 49, 0
3, 47460, Note_on_c, 0, 57, 0
3, 47520, Note_on_c, 0, 49, 50
3, 47520, Note_on_c, 0, 57, 59
3, 47760, Note_on_c, 0, 57, 0
3, 47760, Note_on_c, 0, 49, 0
3, 47760, Note_on_c, 0, 59, 55
3, 47760, Note_on_c, 0, 52, 46
3, 48000, Note_on_c, 0, 52, 0
3, 48000, Note_on_c, 0, 59, 0
3, 48000, Note_on_c, 0, 57, 46
3, 48000, Note_on_c, 0, 61, 55
3, 48120, Note_on_c, 0, 61, 0
3, 48120, Note_on_c, 0, 57, 0
3, 48240, Note_on_c, 0, 57, 51
3, 48240, Note_on_c, 0, 61, 60
3, 48720, Note_on_c, 0, 61, 0
3, 48720, Note_on_c, 0, 57, 0
3, 48720, Note_on_c, 0, 57, 50
3, 48720, Note_on_c, 0, 61, 59
3, 48900, Note_on_c, 0, 61, 0
3, 48900, Note_on_c, 0, 57, 0
3, 48960, Note_on_c, 0, 57, 53
3, 48960, Note_on_c, 0, 61, 63
3, 49200, Note_on_c, 0, 61, 0
3, 49200, Note_on_c, 0, 57, 0
3, 49200, Note_on_c, 0, 62, 59
3, 49200, Note_on_c, 0, 59, 50
3, 49440, Note_on_c, 0, 59, 0
3, 49440, Note_on_c, 0, 62, 0
3, 49440, Note_on_c, 0, 61, 50
3, 49440, Note_on_c, 0, 64, 59
3, 49560, Note_on_c, 0, 64, 0
3, 49560, Note_on_c, 0, 61, 0
3, 49680, Note_on_c, 0, 64, 66
3, 49680, Note_on_c, 0, 61, 56
3, 50160, Note_on_c, 0, 61, 0
3, 50160, Note_on_c, 0, 64, 0
3, 50400, Note_on_c, 0, 45, 52
3, 50400, Note_on_c, 0, 33, 44
3, 50640, Note_on_c, 0, 33, 0
3, 50640, Note_on_c, 0, 45, 0
3, 50640, Note_on_c, 0, 54, 37
3, 50640, Note_on_c, 0, 61, 37
3, 50640, Note_on_c, 0, 64, 44
3, 50870, Note_on_c, 0, 64, 0
3, 50870, Note_on_c, 0, 61, 0
3, 50870, Note_on_c, 0, 54, 0
3, 50880, Note_on_c, 0, 54, 37
3, 50880, Note_on_c, 0, 61, 37
3, 50880, Note_on_c, 0, 64, 44
3, 51060, Note_on_c, 0, 64, 0
3, 51060, Note_on_c, 0, 61, 0
3, 51060, Note_on_c, 0, 54, 0
3, 51120, Note_on_c, 0, 54, 29
3, 51120, Note_on_c, 0, 61, 29
3, 51120, Note_on_c, 0, 64, 35
3, 51360, Note_on_c, 0, 64, 0
3, 51360, Note_on_c, 0, 61, 0
3, 51360, Note_on_c, 0, 54, 0
3, 51360, Note_on_c, 0, 54, 29
3, 51360, Note_on_c, 0, 61, 29
3, 51360, Note_on_c, 0, 64, 35
3, 51600, Note_on_c, 0, 64, 0
3, 51600, Note_on_c, 0, 61, 0
3, 51600, Note_on_c, 0, 54, 0
3, 51600, Note_on_c, 0, 54, 29
3, 51600, Note_on_c, 0, 61, 29
3, 51600, Note_on_c, 0, 64, 35
3, 51840, Note_on_c, 0, 64, 0
3, 51840, Note_on_c, 0, 61, 0
3, 51840, Note_on_c, 0, 54, 0
3, 51840, Note_on_c, 0, 54, 37
3, 51840, Note_on_c, 0, 61, 37
3, 51840, Note_on_c, 0, 64, 37
3, 53280, Note_on_c, 0, 64, 0
3, 53280, Note_on_c, 0, 61, 0
3, 53280, Note_on_c, 0, 54, 0
3, 53280, Note_on_c, 0, 45, 52
3, 53280, Note_on_c, 0, 33, 44
3, 53520, Note_on_c, 0, 33, 0
3, 53520, Note_on_c, 0, 45, 0
3, 53520, Note_on_c, 0, 54, 37
3, 53520, Note_on_c, 0, 61, 37
3, 53520, Note_on_c, 0, 64, 44
3, 53750, Note_on_c, 0, 64, 0
3, 53750, Note_on_c, 0, 61, 0
3, 53750, Note_on_c, 0, 54, 0
3, 53760, Note_on_c, 0, 54, 37
3, 53760, Note_on_c, 0, 61, 37
3, 53760, Note_on_c, 0, 64, 44
3, 53940, Note_on_c, 0, 64, 0
3, 53940, Note_on_c, 0, 61, 0
3, 53940, Note_on_c, 0, 54, 0
3, 54000, Note_on_c, 0, 54, 29
3, 54000, Note_on_c, 0, 61, 29
3, 54000, Note_on_c, 0, 64, 35
3, 54240, Note_on_c, 0, 64, 0
3, 54240, Note_on_c, 0, 61, 0
3, 54240, Note_on_c, 0, 54, 0
3, 54240, Note_on_c, 0, 54, 29
3, 54240, Note_on_c, 0, 61, 29
3, 54240, Note_on_c, 0, 64, 35
3, 54480, Note_on_c, 0, 64, 0
3, 54480, Note_on_c, 0, 61, 0
3, 54480, Note_on_c, 0, 54, 0
3, 54480, Note_on_c, 0, 54, 29
3, 54480, Note_on_c, 0, 61, 29
3, 54480, Note_on_c, 0, 64, 35
3, 54720, Note_on_c, 0, 64, 0
3, 54720, Note_on_c, 0, 61, 0
3, 54720, Note_on_c, 0, 54, 0
3, 54720, Note_on_c, 0, 54, 37
3, 54720, Note_on_c, 0, 61, 37
3, 54720, Note_on_c, 0, 64, 37
3, 55680, Note_on_c, 0, 64, 0
3, 55680, Note_on_c, 0, 61, 0
3, 55680, Note_on_c, 0, 54, 0
3, 55680, Note_on_c, 0, 66, 78
3, 55680, Note_on_c, 0, 59, 66
3, 55800, Note_on_c, 0, 59, 0
3, 55800, Note_on_c, 0, 66, 0
3, 55920, Note_on_c, 0, 59, 59
3, 55920, Note_on_c, 0, 66, 70
3, 56040, Note_on_c, 0, 66, 0
3, 56040, Note_on_c, 0, 59, 0
3, 56160, Note_on_c, 0, 66, 78
3, 56160, Note_on_c, 0, 59, 66
3, 56400, Note_on_c, 0, 59, 0
3, 56400, Note_on_c, 0, 66, 0
3, 56400, Note_on_c, 0, 56, 63
3, 56400, Note_on_c, 0, 64, 75
3, 56640, Note_on_c, 0, 64, 0
3, 56640, Note_on_c, 0, 56, 0
3, 56640, Note_on_c, 0, 59, 61
3, 56640, Note_on_c, 0, 66, 72
3, 56760, Note_on_c, 0, 66, 0
3, 56760, Note_on_c, 0, 59, 0
3, 56880, Note_on_c, 0, 68, 78
3, 56880, Note_on_c, 0, 64, 66
3, 57120, Note_on_c, 0, 64, 0
3, 57120, Note_on_c, 0, 68, 0
3, 57120, Note_on_c, 0, 71, 74
3, 57120, Note_on_c, 0, 68, 62
3, 57360, Note_on_c, 0, 68, 0
3, 57360, Note_on_c, 0, 71, 0
3, 57360, Note_on_c, 0, 59, 62
3, 57360, Note_on_c, 0, 66, 74
3, 57480, Note_on_c, 0, 66, 0
3, 57480, Note_on_c, 0, 59, 0
3, 57600, Note_on_c, 0, 66, 84
3, 57600, Note_on_c, 0, 59, 71
3, 58560, Note_on_c, 0, 59, 0
3, 58560, Note_on_c, 0, 66, 0
3, 59040, Note_on_c, 0, 32, 41
3, 59040, Note_on_c, 0, 44, 49
3, 59280, Note_on_c, 0, 44, 0
3, 59280, Note_on_c, 0, 32, 0
3, 59280, Note_on_c, 0, 52, 30
3, 59280, Note_on_c, 0, 56, 30
3, 59280, Note_on_c, 0, 64, 37
3, 59280, Note_on_c, 0, 59, 30
3, 59400, Note_on_c, 0, 59, 0
3, 59400, Note_on_c, 0, 52, 0
3, 59400, Note_on_c, 0, 56, 0
3, 59400, Note_on_c, 0, 64, 0
3, 59520, Note_on_c, 0, 52, 30
3, 59520, Note_on_c, 0, 56, 30
3, 59520, Note_on_c, 0, 59, 30
3, 59520, Note_on_c, 0, 64, 37
3, 59640, Note_on_c, 0, 64, 0
3, 59640, Note_on_c, 0, 52, 0
3, 59640, Note_on_c, 0, 56, 0
3, 59640, Note_on_c, 0, 59, 0
3, 59760, Note_on_c, 0, 52, 30
3, 59760, Note_on_c, 0, 56, 30
3, 59760, Note_on_c, 0, 59, 30
3, 59760, Note_on_c, 0, 64, 37
3, 60240, Note_on_c, 0, 64, 0
3, 60240, Note_on_c, 0, 52, 0
3, 60240, Note_on_c, 0, 56, 0
3, 60240, Note_on_c, 0, 59, 0
3, 60480, Note_on_c, 0, 33, 41
3, 60480, Note_on_c, 0, 45, 49
3, 60720, Note_on_c, 0, 45, 0
3, 60720, Note_on_c, 0, 33, 0
3, 60720, Note_on_c, 0, 52, 37
3, 60720, Note_on_c, 0, 56, 37
3, 60720, Note_on_c, 0, 64, 45
3, 60720, Note_on_c, 0, 61, 37
3, 60840, Note_on_c, 0, 61, 0
3, 60840, Note_on_c, 0, 52, 0
3, 60840, Note_on_c, 0, 56, 0
3, 60840, Note_on_c, 0, 64, 0
3, 60960, Note_on_c, 0, 52, 37
3, 60960, Note_on_c, 0, 56, 37
3, 60960, Note_on_c, 0, 61, 37
3, 60960, Note_on_c, 0, 64, 45
3, 61080, Note_on_c, 0, 64, 0
3, 61080, Note_on_c, 0, 52, 0
3, 61080, Note_on_c, 0, 56, 0
3, 61080, Note_on_c, 0, 61, 0
3, 61200, Note_on_c, 0, 52, 37
3, 61200, Note_on_c, 0, 56, 37
3, 61200, Note_on_c, 0, 61, 37
3, 61200, Note_on_c, 0, 64, 45
3, 61680, Note_on_c, 0, 64, 0
3, 61680, Note_on_c, 0, 52, 0
3, 61680, Note_on_c, 0, 56, 0
3, 61680, Note_on_c, 0, 61, 0
3, 61920, Note_on_c, 0, 35, 53
3, 61920, Note_on_c, 0, 47, 63
3, 62160, Note_on_c, 0, 47, 0
3, 62160, Note_on_c, 0, 35, 0
3, 62160, Note_on_c, 0, 52, 39
3, 62160, Note_on_c, 0, 56, 39
3, 62160, Note_on_c, 0, 64, 48
3, 62160, Note_on_c, 0, 59, 39
3, 62280, Note_on_c, 0, 59, 0
3, 62280, Note_on_c, 0, 52, 0
3, 62280, Note_on_c, 0, 56, 0
3, 62280, Note_on_c, 0, 64, 0
3, 62400, Note_on_c, 0, 52, 40
3, 62400, Note_on_c, 0, 56, 40
3, 62400, Note_on_c, 0, 59, 40
3, 62400, Note_on_c, 0, 64, 50
3, 62520, Note_on_c, 0, 64, 0
3, 62520, Note_on_c, 0, 52, 0
3, 62520, Note_on_c, 0, 56, 0
3, 62520, Note_on_c, 0, 59, 0
3, 62640, Note_on_c, 0, 52, 40
3, 62640, Note_on_c, 0, 56, 40
3, 62640, Note_on_c, 0, 59, 40
3, 62640, Note_on_c, 0, 64, 50
3, 63120, Note_on_c, 0, 64, 0
3, 63120, Note_on_c, 0, 52, 0
3, 63120, Note_on_c, 0, 56, 0
3, 63120, Note_on_c, 0, 59, 0
3, 63360, Note_on_c, 0, 37, 51
3, 63360, Note_on_c, 0, 49, 61
3, 63600, Note_on_c, 0, 49, 0
3, 63600, Note_on_c, 0, 37, 0
3, 63600, Note_on_c, 0, 52, 46
3, 63600, Note_on_c, 0, 56, 46
3, 63600, Note_on_c, 0, 64, 56
3, 63600, Note_on_c, 0, 61, 46
3, 63720, Note_on_c, 0, 61, 0
3, 63720, Note_on_c, 0, 52, 0
3, 63720, Note_on_c, 0, 56, 0
3, 63720, Note_on_c, 0, 64, 0
3, 63840, Note_on_c, 0, 52, 47
3, 63840, Note_on_c, 0, 56, 47
3, 63840, Note_on_c, 0, 61, 47
3, 63840, Note_on_c, 0, 64, 57
3, 63960, Note_on_c, 0, 64, 0
3, 63960, Note_on_c, 0, 52, 0
3, 63960, Note_on_c, 0, 56, 0
3, 63960, Note_on_c, 0, 61, 0
3, 64080, Note_on_c, 0, 52, 48
3, 64080, Note_on_c, 0, 56, 48
3, 64080, Note_on_c, 0, 61, 48
3, 64080, Note_on_c, 0, 64, 58
3, 64560, Note_on_c, 0, 64, 0
3, 64560, Note_on_c, 0, 52, 0
3, 64560, Note_on_c, 0, 56, 0
3, 64560, Note_on_c, 0, 61, 0
3, 64800, Note_on_c, 0, 38, 56
3, 64800, Note_on_c, 0, 50, 66
3, 65040, Note_on_c, 0, 50, 0
3, 65040, Note_on_c, 0, 38, 0
3, 65040, Note_on_c, 0, 52, 41
3, 65040, Note_on_c, 0, 56, 41
3, 65040, Note_on_c, 0, 64, 50
3, 65040, Note_on_c, 0, 59, 41
3, 65160, Note_on_c, 0, 59, 0
3, 65160, Note_on_c, 0, 52, 0
3, 65160, Note_on_c, 0, 56, 0
3, 65160, Note_on_c, 0, 64, 0
3, 65280, Note_on_c, 0, 52, 41
3, 65280, Note_on_c, 0, 56, 41
3, 65280, Note_on_c, 0, 59, 41
3, 65280, Note_on_c, 0, 64, 50
3, 65400, Note_on_c, 0, 64, 0
3, 65400, Note_on_c, 0, 52, 0
3, 65400, Note_on_c, 0, 56, 0
3, 65400, Note_on_c, 0, 59, 0
3, 65520, Note_on_c, 0, 52, 42
3, 65520, Note_on_c, 0, 56, 42
3, 65520, Note_on_c, 0, 59, 42
3, 65520, Note_on_c, 0, 64, 51
3, 66000, Note_on_c, 0, 64, 0
3, 66000, Note_on_c, 0, 52, 0
3, 66000, Note_on_c, 0, 56, 0
3, 66000, Note_on_c, 0, 59, 0
3, 66240, Note_on_c, 0, 37, 60
3, 66240, Note_on_c, 0, 49, 71
3, 66480, Note_on_c, 0, 49, 0
3, 66480, Note_on_c, 0, 37, 0
3, 66480, Note_on_c, 0, 52, 53
3, 66480, Note_on_c, 0, 57, 53
3, 66480, Note_on_c, 0, 64, 64
3, 66480, Note_on_c, 0, 61, 53
3, 66600, Note_on_c, 0, 61, 0
3, 66600, Note_on_c, 0, 52, 0
3, 66600, Note_on_c, 0, 57, 0
3, 66600, Note_on_c, 0, 64, 0
3, 66720, Note_on_c, 0, 52, 53
3, 66720, Note_on_c, 0, 57, 53
3, 66720, Note_on_c, 0, 61, 53
3, 66720, Note_on_c, 0, 64, 64
3, 66840, Note_on_c, 0, 64, 0
3, 66840, Note_on_c, 0, 52, 0
3, 66840, Note_on_c, 0, 57, 0
3, 66840, Note_on_c, 0, 61, 0
3, 66960, Note_on_c, 0, 52, 53
3, 66960, Note_on_c, 0, 57, 53
3, 66960, Note_on_c, 0, 61, 53
3, 66960, Note_on_c, 0, 64, 64
3, 67440, Note_on_c, 0, 64, 0
3, 67440, Note_on_c, 0, 52, 0
3, 67440, Note_on_c, 0, 57, 0
3, 67440, Note_on_c, 0, 61, 0
3, 67680, Note_on_c, 0, 39, 46
3, 67680, Note_on_c, 0, 51, 55
3, 67800, Note_on_c, 0, 51, 0
3, 67800, Note_on_c, 0, 39, 0
3, 67920, Note_on_c, 0, 51, 41
3, 67920, Note_on_c, 0, 54, 41
3, 67920, Note_on_c, 0, 59, 50
3, 67920, Note_on_c, 0, 57, 41
3, 68040, Note_on_c, 0, 57, 0
3, 68040, Note_on_c, 0, 51, 0
3, 68040, Note_on_c, 0, 54, 0
3, 68040, Note_on_c, 0, 59, 0
3, 68160, Note_on_c, 0, 51, 41
3, 68160, Note_on_c, 0, 54, 41
3, 68160, Note_on_c, 0, 57, 41
3, 68160, Note_on_c, 0, 59, 50
3, 68280, Note_on_c, 0, 59, 0
3, 68280, Note_on_c, 0, 51, 0
3, 68280, Note_on_c, 0, 54, 0
3, 68280, Note_on_c, 0, 57, 0
3, 68400, Note_on_c, 0, 51, 41
3, 68400, Note_on_c, 0, 54, 41
3, 68400, Note_on_c, 0, 57, 41
3, 68400, Note_on_c, 0, 59, 50
3, 68640, Note_on_c, 0, 59, 0
3, 68640, Note_on_c, 0, 51, 0
3, 68640, Note_on_c, 0, 54, 0
3, 68640, Note_on_c, 0, 57, 0
3, 69120, Note_on_c, 0, 52, 46
3, 69120, Note_on_c, 0, 47, 46
3, 69120, Note_on_c, 0, 44, 46
3, 69120, Note_on_c, 0, 56, 55
3, 69240, Note_on_c, 0, 56, 0
3, 69240, Note_on_c, 0, 52, 0
3, 69240, Note_on_c, 0, 47, 0
3, 69240, Note_on_c, 0, 44, 0
3, 69360, Note_on_c, 0, 44, 41
3, 69360, Note_on_c, 0, 47, 41
3, 69360, Note_on_c, 0, 56, 50
3, 69360, Note_on_c, 0, 52, 41
3, 69480, Note_on_c, 0, 52, 0
3, 69480, Note_on_c, 0, 44, 0
3, 69480, Note_on_c, 0, 47, 0
3, 69480, Note_on_c, 0, 56, 0
3, 69600, Note_on_c, 0, 44, 41
3, 69600, Note_on_c, 0, 47, 41
3, 69600, Note_on_c, 0, 52, 41
3, 69600, Note_on_c, 0, 56, 50
3, 69720, Note_on_c, 0, 56, 0
3, 69720, Note_on_c, 0, 44, 0
3, 69720, Note_on_c, 0, 47, 0
3, 69720, Note_on_c, 0, 52, 0
3, 69840, Note_on_c, 0, 44, 41
3, 69840, Note_on_c, 0, 47, 41
3, 69840, Note_on_c, 0, 52, 41
3, 69840, Note_on_c, 0, 56, 50
3, 70080, Note_on_c, 0, 56, 0
3, 70080, Note_on_c, 0, 44, 0
3, 70080, Note_on_c, 0, 47, 0
3, 70080, Note_on_c, 0, 52, 0
3, 70560, Note_on_c, 0, 52, 39
3, 70560, Note_on_c, 0, 46, 39
3, 70560, Note_on_c, 0, 54, 46
3, 70680, Note_on_c, 0, 54, 0
3, 70680, Note_on_c, 0, 46, 0
3, 70680, Note_on_c, 0, 52, 0
3, 70800, Note_on_c, 0, 46, 34
3, 70800, Note_on_c, 0, 54, 42
3, 70800, Note_on_c, 0, 52, 34
3, 70920, Note_on_c, 0, 52, 0
3, 70920, Note_on_c, 0, 54, 0
3, 70920, Note_on_c, 0, 46, 0
3, 71040, Note_on_c, 0, 46, 34
3, 71040, Note_on_c, 0, 52, 34
3, 71040, Note_on_c, 0, 54, 42
3, 71160, Note_on_c, 0, 54, 0
3, 71160, Note_on_c, 0, 52, 0
3, 71160, Note_on_c, 0, 46, 0
3, 71280, Note_on_c, 0, 52, 39
3, 71280, Note_on_c, 0, 46, 39
3, 71280, Note_on_c, 0, 54, 46
3, 71400, Note_on_c, 0, 54, 0
3, 71400, Note_on_c, 0, 46, 0
3, 71400, Note_on_c, 0, 52, 0
3, 71520, Note_on_c, 0, 46, 34
3, 71520, Note_on_c, 0, 54, 42
3, 71520, Note_on_c, 0, 52, 34
3, 71640, Note_on_c, 0, 52, 0
3, 71640, Note_on_c, 0, 54, 0
3, 71640, Note_on_c, 0, 46, 0
3, 71760, Note_on_c, 0, 46, 34
3, 71760, Note_on_c, 0, 52, 34
3, 71760, Note_on_c, 0, 54, 42
3, 71880, Note_on_c, 0, 54, 0
3, 71880, Note_on_c, 0, 52, 0
3, 71880, Note_on_c, 0, 46, 0
3, 72000, Note_on_c, 0, 52, 39
3, 72000, Note_on_c, 0, 46, 39
3, 72000, Note_on_c, 0, 54, 46
3, 72120, Note_on_c, 0, 54, 0
3, 72120, Note_on_c, 0, 46, 0
3, 72120, Note_on_c, 0, 52, 0
3, 72240, Note_on_c, 0, 46, 33
3, 72240, Note_on_c, 0, 54, 41
3, 72240, Note_on_c, 0, 52, 33
3, 72360, Note_on_c, 0, 52, 0
3, 72360, Note_on_c, 0, 54, 0
3, 72360, Note_on_c, 0, 46, 0
3, 72480, Note_on_c, 0, 46, 32
3, 72480, Note_on_c, 0, 52, 32
3, 72480, Note_on_c, 0, 54, 40
3, 72600, Note_on_c, 0, 54, 0
3, 72600, Note_on_c, 0, 52, 0
3, 72600, Note_on_c, 0, 46, 0
3, 72720, Note_on_c, 0, 52, 37
3, 72720, Note_on_c, 0, 46, 37
3, 72720, Note_on_c, 0, 54, 43
3, 72840, Note_on_c, 0, 54, 0
3, 72840, Note_on_c, 0, 46, 0
3, 72840, Note_on_c, 0, 52, 0
3, 72960, Note_on_c, 0, 46, 31
3, 72960, Note_on_c, 0, 54, 39
3, 72960, Note_on_c, 0, 52, 31
3, 73080, Note_on_c, 0, 52, 0
3, 73080, Note_on_c, 0, 54, 0
3, 73080, Note_on_c, 0, 46, 0
3, 73200, Note_on_c, 0, 46, 31
3, 73200, Note_on_c, 0, 52, 31
3, 73200, Note_on_c, 0, 54, 38
3, 73320, Note_on_c, 0, 54, 0
3, 73320, Note_on_c, 0, 52, 0
3, 73320, Note_on_c, 0, 46, 0
3, 73440, Note_on_c, 0, 47, 35
3, 73440, Note_on_c, 0, 56, 41
3, 73446, Note_on_c, 0, 52, 35
3, 73560, Note_on_c, 0, 56, 0
3, 73560, Note_on_c, 0, 47, 0
3, 73566, Note_on_c, 0, 52, 0
3, 73680, Note_on_c, 0, 47, 29
3, 73680, Note_on_c, 0, 56, 36
3, 73686, Note_on_c, 0, 52, 29
3, 73800, Note_on_c, 0, 56, 0
3, 73800, Note_on_c, 0, 47, 0
3, 73806, Note_on_c, 0, 52, 0
3, 73920, Note_on_c, 0, 47, 29
3, 73920, Note_on_c, 0, 56, 36
3, 73926, Note_on_c, 0, 52, 29
3, 74040, Note_on_c, 0, 56, 0
3, 74040, Note_on_c, 0, 47, 0
3, 74046, Note_on_c, 0, 52, 0
3, 74160, Note_on_c, 0, 47, 33
3, 74160, Note_on_c, 0, 54, 33
3, 74160, Note_on_c, 0, 57, 39
3, 74280, Note_on_c, 0, 57, 0
3, 74280, Note_on_c, 0, 54, 0
3, 74280, Note_on_c, 0, 47, 0
3, 74400, Note_on_c, 0, 47, 28
3, 74400, Note_on_c, 0, 54, 28
3, 74400, Note_on_c, 0, 57, 34
3, 74520, Note_on_c, 0, 57, 0
3, 74520, Note_on_c, 0, 54, 0
3, 74520, Note_on_c, 0, 47, 0
3, 74640, Note_on_c, 0, 47, 27
3, 74640, Note_on_c, 0, 54, 27
3, 74640, Note_on_c, 0, 57, 34
3, 74760, Note_on_c, 0, 57, 0
3, 74760, Note_on_c, 0, 54, 0
3, 74760, Note_on_c, 0, 47, 0
3, 74880, Note_on_c, 0, 52, 33
3, 74880, Note_on_c, 0, 56, 33
3, 75120, Note_on_c, 0, 56, 0
3, 75120, Note_on_c, 0, 52, 0
3, 75840, Note_on_c, 0, 63, 78
3, 75840, Note_on_c, 0, 56, 66
3, 75960, Note_on_c, 0, 56, 0
3, 75960, Note_on_c, 0, 63, 0
3, 76080, Note_on_c, 0, 56, 59
3, 76080, Note_on_c, 0, 63, 70
3, 76200, Note_on_c, 0, 63, 0
3, 76200, Note_on_c, 0, 56, 0
3, 76320, Note_on_c, 0, 63, 78
3, 76320, Note_on_c, 0, 56, 66
3, 76560, Note_on_c, 0, 56, 0
3, 76560, Note_on_c, 0, 63, 0
3, 76560, Note_on_c, 0, 52, 63
3, 76560, Note_on_c, 0, 61, 75
3, 76800, Note_on_c, 0, 61, 0
3, 76800, Note_on_c, 0, 52, 0
3, 76800, Note_on_c, 0, 56, 61
3, 76800, Note_on_c, 0, 63, 72
3, 76920, Note_on_c, 0, 63, 0
3, 76920, Note_on_c, 0, 56, 0
3, 77040, Note_on_c, 0, 64, 78
3, 77040, Note_on_c, 0, 61, 66
3, 77280, Note_on_c, 0, 61, 0
3, 77280, Note_on_c, 0, 64, 0
3, 77280, Note_on_c, 0, 68, 74
3, 77520, Note_on_c, 0, 56, 62
3, 77520, Note_on_c, 0, 63, 74
3, 77640, Note_on_c, 0, 63, 0
3, 77640, Note_on_c, 0, 56, 0
3, 77750, Note_on_c, 0, 68, 0
3, 77760, Note_on_c, 0, 56, 66
3, 77760, Note_on_c, 0, 63, 78
3, 78240, Note_on_c, 0, 63, 0
3, 78240, Note_on_c, 0, 56, 0
3, 78720, Note_on_c, 0, 63, 78
3, 78720, Note_on_c, 0, 56, 66
3, 78840, Note_on_c, 0, 56, 0
3, 78840, Note_on_c, 0, 63, 0
3, 78960, Note_on_c, 0, 56, 59
3, 78960, Note_on_c, 0, 63, 70
3, 79080, Note_on_c, 0, 63, 0
3, 79080, Note_on_c, 0, 56, 0
3, 79200, Note_on_c, 0, 63, 78
3, 79200, Note_on_c, 0, 56, 66
3, 79440, Note_on_c, 0, 56, 0
3, 79440, Note_on_c, 0, 63, 0
3, 79440, Note_on_c, 0, 52, 63
3, 79440, Note_on_c, 0, 61, 75
3, 79680, Note_on_c, 0, 61, 0
3, 79680, Note_on_c, 0, 52, 0
3, 79680, Note_on_c, 0, 56, 61
3, 79680, Note_on_c, 0, 63, 72
3, 79800, Note_on_c, 0, 63, 0
3, 79800, Note_on_c, 0, 56, 0
3, 79920, Note_on_c, 0, 64, 78
3, 79920, Note_on_c, 0, 61, 66
3, 80160, Note_on_c, 0, 61, 0
3, 80160, Note_on_c, 0, 64, 0
3, 80160, Note_on_c, 0, 68, 74
3, 80400, Note_on_c, 0, 56, 62
3, 80400, Note_on_c, 0, 63, 74
3, 80520, Note_on_c, 0, 63, 0
3, 80520, Note_on_c, 0, 56, 0
3, 80630, Note_on_c, 0, 68, 0
3, 80640, Note_on_c, 0, 63, 78
3, 80640, Note_on_c, 0, 56, 66
3, 81360, Note_on_c, 0, 56, 0
3, 81360, Note_on_c, 0, 63, 0
3, 81360, Note_on_c, 0, 49, 63
3, 81360, Note_on_c, 0, 61, 74
3, 82073, Note_on_c, 0, 61, 0
3, 82073, Note_on_c, 0, 49, 0
3, 82080, Note_on_c, 0, 49, 66
3, 82080, Note_on_c, 0, 61, 79
3, 82793, Note_on_c, 0, 61, 0
3, 82793, Note_on_c, 0, 49, 0
3, 82800, Note_on_c, 0, 49, 63
3, 82800, Note_on_c, 0, 61, 75
3, 83513, Note_on_c, 0, 61, 0
3, 83513, Note_on_c, 0, 49, 0
3, 83520, Note_on_c, 0, 61, 70
3, 83520, Note_on_c, 0, 49, 59
3, 83760, Note_on_c, 0, 49, 0
3, 83760, Note_on_c, 0, 61, 0
3, 83760, Note_on_c, 0, 50, 56
3, 83760, Note_on_c, 0, 62, 67
3, 84000, Note_on_c, 0, 62, 0
3, 84000, Note_on_c, 0, 50, 0
3, 84000, Note_on_c, 0, 49, 54
3, 84000, Note_on_c, 0, 61, 64
3, 84120, Note_on_c, 0, 61, 0
3, 84120, Note_on_c, 0, 49, 0
3, 84240, Note_on_c, 0, 49, 59
3, 84240, Note_on_c, 0, 61, 70
3, 84360, Note_on_c, 0, 61, 0
3, 84360, Note_on_c, 0, 49, 0
3, 84480, Note_on_c, 0, 49, 53
3, 84480, Note_on_c, 0, 61, 63
3, 84600, Note_on_c, 0, 61, 0
3, 84600, Note_on_c, 0, 49, 0
3, 84720, Note_on_c, 0, 49, 53
3, 84720, Note_on_c, 0, 61, 63
3, 84840, Note_on_c, 0, 61, 0
3, 84840, Note_on_c, 0, 49, 0
3, 84960, Note_on_c, 0, 49, 66
3, 84960, Note_on_c, 0, 61, 79
3, 85673, Note_on_c, 0, 61, 0
3, 85673, Note_on_c, 0, 49, 0
3, 85680, Note_on_c, 0, 49, 63
3, 85680, Note_on_c, 0, 61, 75
3, 86393, Note_on_c, 0, 61, 0
3, 86393, Note_on_c, 0, 49, 0
3, 86400, Note_on_c, 0, 49, 66
3, 86400, Note_on_c, 0, 61, 79
3, 87113, Note_on_c, 0, 61, 0
3, 87113, Note_on_c, 0, 49, 0
3, 87360, Note_on_c, 0, 66, 66
3, 87480, Note_on_c, 0, 66, 0
3, 87600, Note_on_c, 0, 66, 66
3, 87720, Note_on_c, 0, 66, 0
3, 87840, Note_on_c, 0, 66, 70
3, 87960, Note_on_c, 0, 66, 0
3, 88080, Note_on_c, 0, 64, 66
3, 88200, Note_on_c, 0, 64, 0
3, 88320, Note_on_c, 0, 63, 66
3, 88440, Note_on_c, 0, 63, 0
3, 88560, Note_on_c, 0, 64, 70
3, 88680, Note_on_c, 0, 64, 0
3, 88800, Note_on_c, 0, 63, 66
3, 88920, Note_on_c, 0, 63, 0
3, 89040, Note_on_c, 0, 61, 65
3, 89160, Note_on_c, 0, 61, 0
3, 89280, Note_on_c, 0, 63, 70
3, 89400, Note_on_c, 0, 63, 0
3, 89520, Note_on_c, 0, 60, 65
3, 89640, Note_on_c, 0, 60, 0
3, 89760, Note_on_c, 0, 56, 65
3, 89880, Note_on_c, 0, 56, 0
3, 90000, Note_on_c, 0, 61, 70
3, 90180, Note_on_c, 0, 61, 0
3, 90240, Note_on_c, 0, 54, 64
3, 90240, Note_on_c, 0, 42, 64
3, 90360, Note_on_c, 0, 42, 0
3, 90360, Note_on_c, 0, 54, 0
3, 90480, Note_on_c, 0, 54, 64
3, 90480, Note_on_c, 0, 42, 64
3, 90600, Note_on_c, 0, 42, 0
3, 90600, Note_on_c, 0, 54, 0
3, 90720, Note_on_c, 0, 42, 70
3, 90720, Note_on_c, 0, 54, 70
3, 90900, Note_on_c, 0, 54, 0
3, 90900, Note_on_c, 0, 42, 0
3, 90960, Note_on_c, 0, 52, 66
3, 90960, Note_on_c, 0, 40, 66
3, 91140, Note_on_c, 0, 40, 0
3, 91140, Note_on_c, 0, 52, 0
3, 91200, Note_on_c, 0, 51, 66
3, 91200, Note_on_c, 0, 39, 66
3, 91380, Note_on_c, 0, 39, 0
3, 91380, Note_on_c, 0, 51, 0
3, 91440, Note_on_c, 0, 40, 70
3, 91440, Note_on_c, 0, 52, 70
3, 91620, Note_on_c, 0, 52, 0
3, 91620, Note_on_c, 0, 40, 0
3, 91680, Note_on_c, 0, 51, 65
3, 91680, Note_on_c, 0, 39, 65
3, 91860, Note_on_c, 0, 39, 0
3, 91860, Note_on_c, 0, 51, 0
3, 91920, Note_on_c, 0, 49, 65
3, 91920, Note_on_c, 0, 37, 65
3, 92100, Note_on_c, 0, 37, 0
3, 92100, Note_on_c, 0, 49, 0
3, 92160, Note_on_c, 0, 39, 70
3, 92160, Note_on_c, 0, 51, 70
3, 92340, Note_on_c, 0, 51, 0
3, 92340, Note_on_c, 0, 39, 0
3, 92400, Note_on_c, 0, 48, 66
3, 92400, Note_on_c, 0, 36, 66
3, 92580, Note_on_c, 0, 36, 0
3, 92580, Note_on_c, 0, 48, 0
3, 92640, Note_on_c, 0, 44, 66
3, 92640, Note_on_c, 0, 32, 66
3, 92820, Note_on_c, 0, 32, 0
3, 92820, Note_on_c, 0, 44, 0
3, 92880, Note_on_c, 0, 37, 58
3, 92880, Note_on_c, 0, 49, 76
3, 93120, Note_on_c, 0, 49, 0
3, 93120, Note_on_c, 0, 37, 0
3, 93120, Note_on_c, 0, 51, 68
3, 93120, Note_on_c, 0, 39, 57
3, 93240, Note_on_c, 0, 39, 0
3, 93240, Note_on_c, 0, 51, 0
3, 93360, Note_on_c, 0, 52, 68
3, 93360, Note_on_c, 0, 40, 57
3, 93480, Note_on_c, 0, 40, 0
3, 93480, Note_on_c, 0, 52, 0
3, 93600, Note_on_c, 0, 42, 61
3, 93600, Note_on_c, 0, 54, 72
3, 93720, Note_on_c, 0, 54, 0
3, 93720, Note_on_c, 0, 42, 0
3, 93840, Note_on_c, 0, 54, 57
3, 93840, Note_on_c, 0, 61, 68
3, 93840, Note_on_c, 0, 57, 57
3, 93960, Note_on_c, 0, 57, 0
3, 93960, Note_on_c, 0, 61, 0
3, 93960, Note_on_c, 0, 54, 0
3, 94080, Note_on_c, 0, 54, 57
3, 94080, Note_on_c, 0, 61, 68
3, 94080, Note_on_c, 0, 57, 57
3, 94200, Note_on_c, 0, 57, 0
3, 94200, Note_on_c, 0, 61, 0
3, 94200, Note_on_c, 0, 54, 0
3, 94320, Note_on_c, 0, 54, 61
3, 94320, Note_on_c, 0, 57, 61
3, 94320, Note_on_c, 0, 60, 72
3, 94440, Note_on_c, 0, 60, 0
3, 94440, Note_on_c, 0, 57, 0
3, 94440, Note_on_c, 0, 54, 0
3, 94560, Note_on_c, 0, 54, 57
3, 94560, Note_on_c, 0, 60, 68
3, 94560, Note_on_c, 0, 57, 57
3, 94680, Note_on_c, 0, 57, 0
3, 94680, Note_on_c, 0, 60, 0
3, 94680, Note_on_c, 0, 54, 0
3, 94800, Note_on_c, 0, 54, 57
3, 94800, Note_on_c, 0, 60, 68
3, 94800, Note_on_c, 0, 57, 57
3, 94920, Note_on_c, 0, 57, 0
3, 94920, Note_on_c, 0, 60, 0
3, 94920, Note_on_c, 0, 54, 0
3, 95040, Note_on_c, 0, 52, 61
3, 95040, Note_on_c, 0, 61, 72
3, 95160, Note_on_c, 0, 61, 0
3, 95160, Note_on_c, 0, 52, 0
3, 95280, Note_on_c, 0, 61, 66
3, 95280, Note_on_c, 0, 54, 55
3, 95400, Note_on_c, 0, 54, 0
3, 95400, Note_on_c, 0, 61, 0
3, 95520, Note_on_c, 0, 61, 64
3, 95520, Note_on_c, 0, 56, 54
3, 95640, Note_on_c, 0, 56, 0
3, 95640, Note_on_c, 0, 61, 0
3, 95760, Note_on_c, 0, 54, 56
3, 95760, Note_on_c, 0, 61, 66
3, 95880, Note_on_c, 0, 61, 0
3, 95880, Note_on_c, 0, 54, 0
3, 96000, Note_on_c, 0, 61, 61
3, 96000, Note_on_c, 0, 56, 51
3, 96120, Note_on_c, 0, 56, 0
3, 96120, Note_on_c, 0, 61, 0
3, 96240, Note_on_c, 0, 61, 59
3, 96240, Note_on_c, 0, 57, 50
3, 96360, Note_on_c, 0, 57, 0
3, 96360, Note_on_c, 0, 61, 0
3, 96480, Note_on_c, 0, 56, 58
3, 96480, Note_on_c, 0, 64, 61
3, 96720, Note_on_c, 0, 64, 0
3, 96720, Note_on_c, 0, 63, 57
3, 96960, Note_on_c, 0, 63, 0
3, 96960, Note_on_c, 0, 61, 57
3, 97197, Note_on_c, 0, 56, 0
3, 97200, Note_on_c, 0, 61, 0
3, 97200, Note_on_c, 0, 56, 58
3, 97200, Note_on_c, 0, 63, 61
3, 97440, Note_on_c, 0, 63, 0
3, 97440, Note_on_c, 0, 60, 57
3, 97670, Note_on_c, 0, 56, 0
3, 97680, Note_on_c, 0, 60, 0
3, 97680, Note_on_c, 0, 56, 57
3, 97920, Note_on_c, 0, 56, 0
3, 97920, Note_on_c, 0, 49, 60
3, 97920, Note_on_c, 0, 61, 71
3, 98400, Note_on_c, 0, 61, 0
3, 98400, Note_on_c, 0, 49, 0
3, 98880, Note_on_c, 0, 49, 65
3, 98880, Note_on_c, 0, 37, 55
3, 99000, Note_on_c, 0, 37, 0
3, 99000, Note_on_c, 0, 49, 0
3, 99120, Note_on_c, 0, 37, 52
3, 99120, Note_on_c, 0, 49, 62
3, 99240, Note_on_c, 0, 49, 0
3, 99240, Note_on_c, 0, 37, 0
3, 99360, Note_on_c, 0, 49, 60
3, 99360, Note_on_c, 0, 61, 71
3, 99840, Note_on_c, 0, 61, 0
3, 99840, Note_on_c, 0, 49, 0
3, 100320, Note_on_c, 0, 49, 65
3, 100320, Note_on_c, 0, 37, 55
3, 100440, Note_on_c, 0, 37, 0
3, 100440, Note_on_c, 0, 49, 0
3, 100560, Note_on_c, 0, 37, 52
3, 100560, Note_on_c, 0, 49, 62
3, 100680, Note_on_c, 0, 49, 0
3, 100680, Note_on_c, 0, 37, 0
3, 100800, Note_on_c, 0, 61, 79
3, 100800, Note_on_c, 0, 49, 67
3, 101280, Note_on_c, 0, 49, 0
3, 101280, Note_on_c, 0, 61, 0
3, 101280, Note_on_c, 0, 61, 68
3, 101280, Note_on_c, 0, 49, 57
3, 101460, Note_on_c, 0, 49, 0
3, 101460, Note_on_c, 0, 61, 0
3, 101520, Note_on_c, 0, 49, 60
3, 101520, Note_on_c, 0, 61, 71
3, 101700, Note_on_c, 0, 61, 0
3, 101700, Note_on_c, 0, 49, 0
3, 101760, Note_on_c, 0, 61, 70
3, 101760, Note_on_c, 0, 49, 59
3, 101940, Note_on_c, 0, 49, 0
3, 101940, Note_on_c, 0, 61, 0
3, 102000, Note_on_c, 0, 61, 70
3, 102000, Note_on_c, 0, 49, 59
3, 102180, Note_on_c, 0, 49, 0
3, 102180, Note_on_c, 0, 61, 0
3, 102240, Note_on_c, 0, 61, 79
3, 102240, Note_on_c, 0, 49, 67
3, 102720, Note_on_c, 0, 49, 0
3, 102720, Note_on_c, 0, 61, 0
3, 102720, Note_on_c, 0, 61, 68
3, 102720, Note_on_c, 0, 49, 57
3, 102900, Note_on_c, 0, 49, 0
3, 102900, Note_on_c, 0, 61, 0
3, 102960, Note_on_c, 0, 49, 60
3, 102960, Note_on_c, 0, 61, 71
3, 103140, Note_on_c, 0, 61, 0
3, 103140, Note_on_c, 0, 49, 0
3, 103200, Note_on_c, 0, 61, 70
3, 103200, Note_on_c, 0, 49, 59
3, 103380, Note_on_c, 0, 49, 0
3, 103380, Note_on_c, 0, 61, 0
3, 103440, Note_on_c, 0, 61, 70
3, 103440, Note_on_c, 0, 49, 59
3, 103620, Note_on_c, 0, 49, 0
3, 103620, Note_on_c, 0, 61, 0
3, 103680, Note_on_c, 0, 61, 67
3, 103680, Note_on_c, 0, 56, 67
3, 103680, Note_on_c, 0, 64, 79
3, 103680, Note_on_c, 0, 52, 67
3, 104160, Note_on_c, 0, 52, 0
3, 104160, Note_on_c, 0, 61, 0
3, 104160, Note_on_c, 0, 56, 0
3, 104160, Note_on_c, 0, 64, 0
3, 104160, Note_on_c, 0, 64, 68
3, 104160, Note_on_c, 0, 52, 57
3, 104340, Note_on_c, 0, 52, 0
3, 104340, Note_on_c, 0, 64, 0
3, 104400, Note_on_c, 0, 52, 60
3, 104400, Note_on_c, 0, 64, 71
3, 104580, Note_on_c, 0, 64, 0
3, 104580, Note_on_c, 0, 52, 0
3, 104640, Note_on_c, 0, 64, 70
3, 104640, Note_on_c, 0, 52, 59
3, 104820, Note_on_c, 0, 52, 0
3, 104820, Note_on_c, 0, 64, 0
3, 104880, Note_on_c, 0, 64, 70
3, 104880, Note_on_c, 0, 52, 59
3, 105060, Note_on_c, 0, 52, 0
3, 105060, Note_on_c, 0, 64, 0
3, 105120, Note_on_c, 0, 64, 79
3, 105120, Note_on_c, 0, 52, 67
3, 105600, Note_on_c, 0, 52, 0
3, 105600, Note_on_c, 0, 64, 0
3, 105840, Note_on_c, 0, 33, 60
3, 105840, Note_on_c, 0, 45, 71
3, 106020, Note_on_c, 0, 45, 0
3, 106020, Note_on_c, 0, 33, 0
3, 106200, Note_on_c, 0, 49, 61
3, 106200, Note_on_c, 0, 57, 73
3, 106290, Note_on_c, 0, 57, 0
3, 106290, Note_on_c, 0, 49, 0
3, 106320, Note_on_c, 0, 57, 73
3, 106320, Note_on_c, 0, 49, 61
3, 106500, Note_on_c, 0, 49, 0
3, 106500, Note_on_c, 0, 57, 0
3, 106560, Note_on_c, 0, 49, 63
3, 106560, Note_on_c, 0, 57, 73
3, 106800, Note_on_c, 0, 57, 0
3, 106800, Note_on_c, 0, 49, 0
3, 106800, Note_on_c, 0, 59, 69
3, 106800, Note_on_c, 0, 52, 57
3, 107040, Note_on_c, 0, 52, 0
3, 107040, Note_on_c, 0, 59, 0
3, 107040, Note_on_c, 0, 57, 57
3, 107040, Note_on_c, 0, 61, 69
3, 107160, Note_on_c, 0, 61, 0
3, 107160, Note_on_c, 0, 57, 0
3, 107280, Note_on_c, 0, 57, 64
3, 107280, Note_on_c, 0, 61, 75
3, 107760, Note_on_c, 0, 61, 0
3, 107760, Note_on_c, 0, 57, 0
3, 107760, Note_on_c, 0, 57, 63
3, 107760, Note_on_c, 0, 61, 73
3, 107940, Note_on_c, 0, 61, 0
3, 107940, Note_on_c, 0, 57, 0
3, 108000, Note_on_c, 0, 57, 66
3, 108000, Note_on_c, 0, 61, 78
3, 108240, Note_on_c, 0, 61, 0
3, 108240, Note_on_c, 0, 57, 0
3, 108240, Note_on_c, 0, 62, 73
3, 108240, Note_on_c, 0, 59, 63
3, 108480, Note_on_c, 0, 59, 0
3, 108480, Note_on_c, 0, 62, 0
3, 108480, Note_on_c, 0, 61, 63
3, 108480, Note_on_c, 0, 64, 73
3, 108600, Note_on_c, 0, 64, 0
3, 108600, Note_on_c, 0, 61, 0
3, 108720, Note_on_c, 0, 64, 82
3, 108720, Note_on_c, 0, 61, 70
3, 109080, Note_on_c, 0, 61, 0
3, 109080, Note_on_c, 0, 64, 0
3, 109080, Note_on_c, 0, 62, 55
3, 109080, Note_on_c, 0, 66, 65
3, 109188, Note_on_c, 0, 66, 0
3, 109188, Note_on_c, 0, 62, 0
3, 109200, Note_on_c, 0, 66, 66
3, 109200, Note_on_c, 0, 62, 55
3, 109380, Note_on_c, 0, 62, 0
3, 109380, Note_on_c, 0, 66, 0
3, 109440, Note_on_c, 0, 57, 59
3, 109440, Note_on_c, 0, 69, 71
3, 109440, Note_on_c, 0, 66, 59
3, 109800, Note_on_c, 0, 66, 0
3, 109800, Note_on_c, 0, 69, 0
3, 109800, Note_on_c, 0, 57, 0
3, 109800, Note_on_c, 0, 69, 59
3, 109800, Note_on_c, 0, 66, 51
3, 109908, Note_on_c, 0, 66, 0
3, 109908, Note_on_c, 0, 69, 0
3, 109920, Note_on_c, 0, 69, 59
3, 109920, Note_on_c, 0, 66, 51
3, 110100, Note_on_c, 0, 66, 0
3, 110100, Note_on_c, 0, 69, 0
3, 110160, Note_on_c, 0, 69, 67
3, 110160, Note_on_c, 0, 66, 47
3, 110400, Note_on_c, 0, 66, 0
3, 110400, Note_on_c, 0, 69, 0
3, 110400, Note_on_c, 0, 68, 63
3, 110400, Note_on_c, 0, 64, 53
3, 110640, Note_on_c, 0, 64, 0
3, 110640, Note_on_c, 0, 68, 0
3, 110640, Note_on_c, 0, 62, 42
3, 110640, Note_on_c, 0, 66, 50
3, 110760, Note_on_c, 0, 66, 0
3, 110760, Note_on_c, 0, 62, 0
3, 110880, Note_on_c, 0, 57, 46
3, 110880, Note_on_c, 0, 62, 46
3, 110880, Note_on_c, 0, 66, 55
3, 111600, Note_on_c, 0, 66, 0
3, 111600, Note_on_c, 0, 62, 0
3, 111600, Note_on_c, 0, 57, 0
3, 111600, Note_on_c, 0, 61, 45
3, 111600, Note_on_c, 0, 64, 54
3, 111840, Note_on_c, 0, 64, 0
3, 111840, Note_on_c, 0, 61, 0
3, 111960, Note_on_c, 0, 49, 50
3, 111960, Note_on_c, 0, 57, 59
3, 112068, Note_on_c, 0, 57, 0
3, 112068, Note_on_c, 0, 49, 0
3, 112080, Note_on_c, 0, 57, 54
3, 112080, Note_on_c, 0, 49, 45
3, 112260, Note_on_c, 0, 49, 0
3, 112260, Note_on_c, 0, 57, 0
3, 112320, Note_on_c, 0, 49, 50
3, 112320, Note_on_c, 0, 57, 59
3, 112560, Note_on_c, 0, 57, 0
3, 112560, Note_on_c, 0, 49, 0
3, 112560, Note_on_c, 0, 59, 55
3, 112560, Note_on_c, 0, 52, 46
3, 112800, Note_on_c, 0, 52, 0
3, 112800, Note_on_c, 0, 59, 0
3, 112800, Note_on_c, 0, 57, 46
3, 112800, Note_on_c, 0, 61, 55
3, 112920, Note_on_c, 0, 61, 0
3, 112920, Note_on_c, 0, 57, 0
3, 113040, Note_on_c, 0, 57, 51
3, 113040, Note_on_c, 0, 61, 60
3, 113520, Note_on_c, 0, 61, 0
3, 113520, Note_on_c, 0, 57, 0
3, 113520, Note_on_c, 0, 57, 50
3, 113520, Note_on_c, 0, 61, 59
3, 113700, Note_on_c, 0, 61, 0
3, 113700, Note_on_c, 0, 57, 0
3, 113760, Note_on_c, 0, 57, 53
3, 113760, Note_on_c, 0, 61, 63
3, 114000, Note_on_c, 0, 61, 0
3, 114000, Note_on_c, 0, 57, 0
3, 114000, Note_on_c, 0, 62, 59
3, 114000, Note_on_c, 0, 59, 50
3, 114240, Note_on_c, 0, 59, 0
3, 114240, Note_on_c, 0, 62, 0
3, 114240, Note_on_c, 0, 61, 50
3, 114240, Note_on_c, 0, 64, 59
3, 114360, Note_on_c, 0, 64, 0
3, 114360, Note_on_c, 0, 61, 0
3, 114480, Note_on_c, 0, 64, 66
3, 114480, Note_on_c, 0, 61, 56
3, 114720, Note_on_c, 0, 61, 0
3, 114720, Note_on_c, 0, 64, 0
3, 115200, Note_on_c, 0, 38, 45
3, 115200, Note_on_c, 0, 50, 45
3, 115440, Note_on_c, 0, 50, 0
3, 115440, Note_on_c, 0, 38, 0
3, 115440, Note_on_c, 0, 59, 34
3, 115440, Note_on_c, 0, 57, 27
3, 115440, Note_on_c, 0, 54, 27
3, 115440, Note_on_c, 0, 50, 27
3, 115668, Note_on_c, 0, 50, 0
3, 115668, Note_on_c, 0, 59, 0
3, 115668, Note_on_c, 0, 57, 0
3, 115668, Note_on_c, 0, 54, 0
3, 115680, Note_on_c, 0, 59, 34
3, 115680, Note_on_c, 0, 57, 27
3, 115680, Note_on_c, 0, 54, 27
3, 115680, Note_on_c, 0, 50, 27
3, 115908, Note_on_c, 0, 50, 0
3, 115908, Note_on_c, 0, 59, 0
3, 115908, Note_on_c, 0, 57, 0
3, 115908, Note_on_c, 0, 54, 0
3, 115920, Note_on_c, 0, 59, 40
3, 115920, Note_on_c, 0, 57, 32
3, 115920, Note_on_c, 0, 54, 32
3, 115920, Note_on_c, 0, 50, 32
3, 116148, Note_on_c, 0, 50, 0
3, 116148, Note_on_c, 0, 59, 0
3, 116148, Note_on_c, 0, 57, 0
3, 116148, Note_on_c, 0, 54, 0
3, 116160, Note_on_c, 0, 59, 34
3, 116160, Note_on_c, 0, 57, 27
3, 116160, Note_on_c, 0, 54, 27
3, 116160, Note_on_c, 0, 50, 27
3, 116388, Note_on_c, 0, 50, 0
3, 116388, Note_on_c, 0, 59, 0
3, 116388, Note_on_c, 0, 57, 0
3, 116388, Note_on_c, 0, 54, 0
3, 116400, Note_on_c, 0, 59, 34
3, 116400, Note_on_c, 0, 57, 27
3, 116400, Note_on_c, 0, 54, 27
3, 116400, Note_on_c, 0, 50, 27
3, 116628, Note_on_c, 0, 50, 0
3, 116628, Note_on_c, 0, 59, 0
3, 116628, Note_on_c, 0, 57, 0
3, 116628, Note_on_c, 0, 54, 0
3, 116640, Note_on_c, 0, 59, 40
3, 116640, Note_on_c, 0, 57, 32
3, 116640, Note_on_c, 0, 54, 32
3, 116640, Note_on_c, 0, 50, 32
3, 118080, Note_on_c, 0, 50, 0
3, 118080, Note_on_c, 0, 59, 0
3, 118080, Note_on_c, 0, 57, 0
3, 118080, Note_on_c, 0, 54, 0
3, 118080, Note_on_c, 0, 38, 45
3, 118080, Note_on_c, 0, 50, 45
3, 118320, Note_on_c, 0, 50, 0
3, 118320, Note_on_c, 0, 38, 0
3, 118320, Note_on_c, 0, 59, 34
3, 118320, Note_on_c, 0, 57, 27
3, 118320, Note_on_c, 0, 54, 27
3, 118320, Note_on_c, 0, 50, 27
3, 118548, Note_on_c, 0, 50, 0
3, 118548, Note_on_c, 0, 59, 0
3, 118548, Note_on_c, 0, 57, 0
3, 118548, Note_on_c, 0, 54, 0
3, 118560, Note_on_c, 0, 59, 34
3, 118560, Note_on_c, 0, 57, 27
3, 118560, Note_on_c, 0, 54, 27
3, 118560, Note_on_c, 0, 50, 27
3, 118788, Note_on_c, 0, 50, 0
3, 118788, Note_on_c, 0, 59, 0
3, 118788, Note_on_c, 0, 57, 0
3, 118788, Note_on_c, 0, 54, 0
3, 118800, Note_on_c, 0, 59, 40
3, 118800, Note_on_c, 0, 57, 32
3, 118800, Note_on_c, 0, 54, 32
3, 118800, Note_on_c, 0, 50, 32
3, 119028, Note_on_c, 0, 50, 0
3, 119028, Note_on_c, 0, 59, 0
3, 119028, Note_on_c, 0, 57, 0
3, 119028, Note_on_c, 0, 54, 0
3, 119040, Note_on_c, 0, 59, 34
3, 119040, Note_on_c, 0, 57, 27
3, 119040, Note_on_c, 0, 54, 27
3, 119040, Note_on_c, 0, 50, 27
3, 119268, Note_on_c, 0, 50, 0
3, 119268, Note_on_c, 0, 59, 0
3, 119268, Note_on_c, 0, 57, 0
3, 119268, Note_on_c, 0, 54, 0
3, 119280, Note_on_c, 0, 59, 34
3, 119280, Note_on_c, 0, 57, 27
3, 119280, Note_on_c, 0, 54, 27
3, 119280, Note_on_c, 0, 50, 27
3, 119508, Note_on_c, 0, 50, 0
3, 119508, Note_on_c, 0, 59, 0
3, 119508, Note_on_c, 0, 57, 0
3, 119508, Note_on_c, 0, 54, 0
3, 119520, Note_on_c, 0, 59, 40
3, 119520, Note_on_c, 0, 57, 32
3, 119520, Note_on_c, 0, 54, 32
3, 119520, Note_on_c, 0, 50, 32
3, 120960, Note_on_c, 0, 50, 0
3, 120960, Note_on_c, 0, 59, 0
3, 120960, Note_on_c, 0, 57, 0
3, 120960, Note_on_c, 0, 54, 0
3, 120960, Note_on_c, 0, 39, 60
3, 120960, Note_on_c, 0, 51, 71
3, 121416, Note_on_c, 0, 51, 0
3, 121416, Note_on_c, 0, 39, 0
3, 121440, Note_on_c, 0, 57, 46
3, 121440, Note_on_c, 0, 59, 55
3, 121440, Note_on_c, 0, 54, 46
3, 121440, Note_on_c, 0, 51, 46
3, 121620, Note_on_c, 0, 51, 0
3, 121620, Note_on_c, 0, 57, 0
3, 121620, Note_on_c, 0, 59, 0
3, 121620, Note_on_c, 0, 54, 0
3, 121680, Note_on_c, 0, 51, 45
3, 121680, Note_on_c, 0, 57, 45
3, 121680, Note_on_c, 0, 54, 45
3, 121680, Note_on_c, 0, 59, 64
3, 122136, Note_on_c, 0, 59, 0
3, 122136, Note_on_c, 0, 51, 0
3, 122136, Note_on_c, 0, 57, 0
3, 122136, Note_on_c, 0, 54, 0
3, 122160, Note_on_c, 0, 59, 56
3, 122160, Note_on_c, 0, 57, 47
3, 122160, Note_on_c, 0, 54, 47
3, 122160, Note_on_c, 0, 51, 47
3, 122280, Note_on_c, 0, 51, 0
3, 122280, Note_on_c, 0, 59, 0
3, 122280, Note_on_c, 0, 57, 0
3, 122280, Note_on_c, 0, 54, 0
3, 122400, Note_on_c, 0, 56, 60
3, 122400, Note_on_c, 0, 52, 60
3, 122400, Note_on_c, 0, 50, 60
3, 122400, Note_on_c, 0, 59, 71
3, 122856, Note_on_c, 0, 59, 0
3, 122856, Note_on_c, 0, 50, 0
3, 122880, Note_on_c, 0, 52, 0
3, 122880, Note_on_c, 0, 56, 0
3, 122880, Note_on_c, 0, 56, 46
3, 122880, Note_on_c, 0, 59, 55
3, 122880, Note_on_c, 0, 52, 46
3, 122880, Note_on_c, 0, 50, 46
3, 123060, Note_on_c, 0, 50, 0
3, 123060, Note_on_c, 0, 56, 0
3, 123060, Note_on_c, 0, 59, 0
3, 123060, Note_on_c, 0, 52, 0
3, 123120, Note_on_c, 0, 50, 45
3, 123120, Note_on_c, 0, 56, 45
3, 123120, Note_on_c, 0, 52, 45
3, 123120, Note_on_c, 0, 59, 64
3, 123576, Note_on_c, 0, 59, 0
3, 123576, Note_on_c, 0, 50, 0
3, 123576, Note_on_c, 0, 56, 0
3, 123576, Note_on_c, 0, 52, 0
3, 123600, Note_on_c, 0, 59, 70
3, 123600, Note_on_c, 0, 56, 58
3, 123600, Note_on_c, 0, 52, 58
3, 123600, Note_on_c, 0, 50, 58
3, 123720, Note_on_c, 0, 50, 0
3, 123720, Note_on_c, 0, 59, 0
3, 123720, Note_on_c, 0, 56, 0
3, 123720, Note_on_c, 0, 52, 0
3, 123840, Note_on_c, 0, 57, 57
3, 123840, Note_on_c, 0, 52, 57
3, 123840, Note_on_c, 0, 49, 57
3, 123840, Note_on_c, 0, 61, 68
3, 124296, Note_on_c, 0, 61, 0
3, 124296, Note_on_c, 0, 57, 0
3, 124296, Note_on_c, 0, 52, 0
3, 124296, Note_on_c, 0, 49, 0
3, 124320, Note_on_c, 0, 49, 51
3, 124320, Note_on_c, 0, 52, 51
3, 124320, Note_on_c, 0, 57, 51
3, 124320, Note_on_c, 0, 61, 62
3, 124440, Note_on_c, 0, 61, 0
3, 124440, Note_on_c, 0, 49, 0
3, 124440, Note_on_c, 0, 52, 0
3, 124440, Note_on_c, 0, 57, 0
3, 124560, Note_on_c, 0, 49, 51
3, 124560, Note_on_c, 0, 52, 51
3, 124560, Note_on_c, 0, 57, 51
3, 124560, Note_on_c, 0, 61, 62
3, 125040, Note_on_c, 0, 61, 0
3, 125040, Note_on_c, 0, 49, 0
3, 125040, Note_on_c, 0, 52, 0
3, 125040, Note_on_c, 0, 57, 0
3, 125280, Note_on_c, 0, 45, 46
3, 125280, Note_on_c, 0, 38, 46
3, 125280, Note_on_c, 0, 47, 54
3, 125400, Note_on_c, 0, 47, 0
3, 125400, Note_on_c, 0, 38, 0
3, 125400, Note_on_c, 0, 45, 0
3, 125520, Note_on_c, 0, 38, 40
3, 125520, Note_on_c, 0, 47, 49
3, 125520, Note_on_c, 0, 45, 40
3, 125640, Note_on_c, 0, 45, 0
3, 125640, Note_on_c, 0, 47, 0
3, 125640, Note_on_c, 0, 38, 0
3, 125760, Note_on_c, 0, 38, 39
3, 125760, Note_on_c, 0, 45, 39
3, 125760, Note_on_c, 0, 47, 49
3, 125880, Note_on_c, 0, 47, 0
3, 125880, Note_on_c, 0, 45, 0
3, 125880, Note_on_c, 0, 38, 0
3, 126000, Note_on_c, 0, 45, 45
3, 126000, Note_on_c, 0, 38, 45
3, 126000, Note_on_c, 0, 47, 53
3, 126120, Note_on_c, 0, 47, 0
3, 126120, Note_on_c, 0, 38, 0
3, 126120, Note_on_c, 0, 45, 0
3, 126240, Note_on_c, 0, 38, 39
3, 126240, Note_on_c, 0, 47, 48
3, 126240, Note_on_c, 0, 45, 39
3, 126360, Note_on_c, 0, 45, 0
3, 126360, Note_on_c, 0, 47, 0
3, 126360, Note_on_c, 0, 38, 0
3, 126480, Note_on_c, 0, 38, 38
3, 126480, Note_on_c, 0, 45, 38
3, 126480, Note_on_c, 0, 47, 47
3, 126600, Note_on_c, 0, 47, 0
3, 126600, Note_on_c, 0, 45, 0
3, 126600, Note_on_c, 0, 38, 0
3, 126720, Note_on_c, 0, 45, 44
3, 126720, Note_on_c, 0, 38, 44
3, 126720, Note_on_c, 0, 47, 51
3, 126840, Note_on_c, 0, 47, 0
3, 126840, Note_on_c, 0, 38, 0
3, 126840, Note_on_c, 0, 45, 0
3, 126960, Note_on_c, 0, 38, 36
3, 126960, Note_on_c, 0, 47, 45
3, 126960, Note_on_c, 0, 45, 36
3, 127080, Note_on_c, 0, 45, 0
3, 127080, Note_on_c, 0, 47, 0
3, 127080, Note_on_c, 0, 38, 0
3, 127200, Note_on_c, 0, 38, 35
3, 127200, Note_on_c, 0, 45, 35
3, 127200, Note_on_c, 0, 47, 44
3, 127320, Note_on_c, 0, 47, 0
3, 127320, Note_on_c, 0, 45, 0
3, 127320, Note_on_c, 0, 38, 0
3, 127440, Note_on_c, 0, 45, 41
3, 127440, Note_on_c, 0, 38, 41
3, 127440, Note_on_c, 0, 47, 47
3, 127560, Note_on_c, 0, 47, 0
3, 127560, Note_on_c, 0, 38, 0
3, 127560, Note_on_c, 0, 45, 0
3, 127680, Note_on_c, 0, 38, 34
3, 127680, Note_on_c, 0, 47, 42
3, 127680, Note_on_c, 0, 45, 34
3, 127800, Note_on_c, 0, 45, 0
3, 127800, Note_on_c, 0, 47, 0
3, 127800, Note_on_c, 0, 38, 0
3, 127920, Note_on_c, 0, 38, 33
3, 127920, Note_on_c, 0, 45, 33
3, 127920, Note_on_c, 0, 47, 41
3, 128040, Note_on_c, 0, 47, 0
3, 128040, Note_on_c, 0, 45, 0
3, 128040, Note_on_c, 0, 38, 0
3, 128160, Note_on_c, 0, 45, 37
3, 128160, Note_on_c, 0, 40, 37
3, 128160, Note_on_c, 0, 49, 44
3, 128280, Note_on_c, 0, 49, 0
3, 128280, Note_on_c, 0, 40, 0
3, 128280, Note_on_c, 0, 45, 0
3, 128400, Note_on_c, 0, 45, 31
3, 128400, Note_on_c, 0, 40, 31
3, 128400, Note_on_c, 0, 49, 38
3, 128520, Note_on_c, 0, 49, 0
3, 128520, Note_on_c, 0, 40, 0
3, 128520, Note_on_c, 0, 45, 0
3, 128640, Note_on_c, 0, 45, 30
3, 128640, Note_on_c, 0, 40, 30
3, 128640, Note_on_c, 0, 49, 38
3, 128760, Note_on_c, 0, 49, 0
3, 128760, Note_on_c, 0, 40, 0
3, 128760, Note_on_c, 0, 45, 0
3, 128880, Note_on_c, 0, 40, 34
3, 128880, Note_on_c, 0, 47, 40
3, 129000, Note_on_c, 0, 47, 0
3, 129000, Note_on_c, 0, 40, 0
3, 129120, Note_on_c, 0, 40, 29
3, 129120, Note_on_c, 0, 47, 35
3, 129240, Note_on_c, 0, 47, 0
3, 129240, Note_on_c, 0, 40, 0
3, 129360, Note_on_c, 0, 38, 28
3, 129360, Note_on_c, 0, 40, 35
3, 129480, Note_on_c, 0, 40, 0
3, 129480, Note_on_c, 0, 38, 0
3, 129600, Note_on_c, 0, 37, 28
3, 129600, Note_on_c, 0, 40, 28
3, 129600, Note_on_c, 0, 45, 28
3, 130080, Note_on_c, 0, 45, 0
3, 130080, Note_on_c, 0, 40, 0
3, 130080, Note_on_c, 0, 37, 0
3, 130560, Note_on_c, 0, 45, 31
3, 130560, Note_on_c, 0, 33, 26
3, 130680, Note_on_c, 0, 33, 0
3, 130680, Note_on_c, 0, 45, 0
3, 130800, Note_on_c, 0, 45, 27
3, 130800, Note_on_c, 0, 33, 22
3, 130920, Note_on_c, 0, 33, 0
3, 130920, Note_on_c, 0, 45, 0
3, 131040, Note_on_c, 0, 45, 34
3, 131040, Note_on_c, 0, 38, 28
3, 131520, Note_on_c, 0, 38, 0
3, 131520, Note_on_c, 0, 45, 0
3, 132000, Note_on_c, 0, 45, 34
3, 132000, Note_on_c, 0, 33, 28
3, 132120, Note_on_c, 0, 33, 0
3, 132120, Note_on_c, 0, 45, 0
3, 132240, Note_on_c, 0, 45, 32
3, 132240, Note_on_c, 0, 33, 27
3, 132360, Note_on_c, 0, 33, 0
3, 132360, Note_on_c, 0, 45, 0
3, 132480, Note_on_c, 0, 45, 45
3, 132480, Note_on_c, 0, 38, 38
3, 132960, Note_on_c, 0, 38, 0
3, 132960, Note_on_c, 0, 45, 0
3, 133440, Note_on_c, 0, 56, 45
3, 133440, Note_on_c, 0, 49, 38
3, 133560, Note_on_c, 0, 49, 0
3, 133560, Note_on_c, 0, 56, 0
3, 133680, Note_on_c, 0, 49, 39
3, 133680, Note_on_c, 0, 56, 47
3, 133800, Note_on_c, 0, 56, 0
3, 133800, Note_on_c, 0, 49, 0
3, 133920, Note_on_c, 0, 54, 49
3, 133920, Note_on_c, 0, 57, 59
3, 134400, Note_on_c, 0, 57, 0
3, 134400, Note_on_c, 0, 54, 0
3, 134880, Note_on_c, 0, 59, 50
3, 134880, Note_on_c, 0, 52, 42
3, 135000, Note_on_c, 0, 52, 0
3, 135000, Note_on_c, 0, 59, 0
3, 135120, Note_on_c, 0, 52, 44
3, 135120, Note_on_c, 0, 59, 52
3, 135240, Note_on_c, 0, 59, 0
3, 135240, Note_on_c, 0, 52, 0
3, 135360, Note_on_c, 0, 57, 55
3, 135360, Note_on_c, 0, 61, 66
3, 135840, Note_on_c, 0, 61, 0
3, 135840, Note_on_c, 0, 57, 0
3, 136320, Note_on_c, 0, 49, 45
3, 136320, Note_on_c, 0, 57, 52
3, 136320, Note_on_c, 0, 52, 45
3, 136440, Note_on_c, 0, 52, 0
3, 136440, Note_on_c, 0, 57, 0
3, 136440, Note_on_c, 0, 49, 0
3, 136560, Note_on_c, 0, 49, 46
3, 136560, Note_on_c, 0, 52, 46
3, 136560, Note_on_c, 0, 57, 55
3, 136680, Note_on_c, 0, 57, 0
3, 136680, Note_on_c, 0, 52, 0
3, 136680, Note_on_c, 0, 49, 0
3, 136800, Note_on_c, 0, 49, 58
3, 136800, Note_on_c, 0, 52, 58
3, 136800, Note_on_c, 0, 58, 70
3, 137280, Note_on_c, 0, 58, 0
3, 137280, Note_on_c, 0, 52, 0
3, 137280, Note_on_c, 0, 49, 0
3, 137760, Note_on_c, 0, 49, 47
3, 137760, Note_on_c, 0, 58, 56
3, 137760, Note_on_c, 0, 52, 47
3, 137880, Note_on_c, 0, 52, 0
3, 137880, Note_on_c, 0, 58, 0
3, 137880, Note_on_c, 0, 49, 0
3, 138000, Note_on_c, 0, 49, 49
3, 138000, Note_on_c, 0, 52, 49
3, 138000, Note_on_c, 0, 58, 58
3, 138120, Note_on_c, 0, 58, 0
3, 138120, Note_on_c, 0, 52, 0
3, 138120, Note_on_c, 0, 49, 0
3, 138240, Note_on_c, 0, 50, 60
3, 138240, Note_on_c, 0, 54, 60
3, 138240, Note_on_c, 0, 59, 73
3, 138720, Note_on_c, 0, 59, 0
3, 138720, Note_on_c, 0, 54, 0
3, 138720, Note_on_c, 0, 50, 0
3, 139200, Note_on_c, 0, 57, 50
3, 139200, Note_on_c, 0, 50, 50
3, 139200, Note_on_c, 0, 59, 58
3, 139200, Note_on_c, 0, 54, 50
3, 139320, Note_on_c, 0, 54, 0
3, 139320, Note_on_c, 0, 57, 0
3, 139320, Note_on_c, 0, 50, 0
3, 139320, Note_on_c, 0, 59, 0
3, 139440, Note_on_c, 0, 57, 51
3, 139440, Note_on_c, 0, 50, 51
3, 139440, Note_on_c, 0, 54, 51
3, 139440, Note_on_c, 0, 59, 61
3, 139560, Note_on_c, 0, 59, 0
3, 139560, Note_on_c, 0, 57, 0
3, 139560, Note_on_c, 0, 50, 0
3, 139560, Note_on_c, 0, 54, 0
3, 139680, Note_on_c, 0, 57, 64
3, 139680, Note_on_c, 0, 51, 64
3, 139680, Note_on_c, 0, 54, 64
3, 139680, Note_on_c, 0, 60, 77
3, 140160, Note_on_c, 0, 60, 0
3, 140160, Note_on_c, 0, 57, 0
3, 140160, Note_on_c, 0, 51, 0
3, 140160, Note_on_c, 0, 54, 0
3, 140640, Note_on_c, 0, 57, 52
3, 140640, Note_on_c, 0, 51, 52
3, 140640, Note_on_c, 0, 60, 62
3, 140640, Note_on_c, 0, 54, 52
3, 140760, Note_on_c, 0, 54, 0
3, 140760, Note_on_c, 0, 57, 0
3, 140760, Note_on_c, 0, 51, 0
3, 140760, Note_on_c, 0, 60, 0
3, 140880, Note_on_c, 0, 57, 54
3, 140880, Note_on_c, 0, 51, 54
3, 140880, Note_on_c, 0, 54, 54
3, 140880, Note_on_c, 0, 60, 64
3, 141000, Note_on_c, 0, 60, 0
3, 141000, Note_on_c, 0, 57, 0
3, 141000, Note_on_c, 0, 51, 0
3, 141000, Note_on_c, 0, 54, 0
3, 141120, Note_on_c, 0, 57, 67
3, 141120, Note_on_c, 0, 52, 67
3, 141120, Note_on_c, 0, 61, 81
3, 141600, Note_on_c, 0, 61, 0
3, 141600, Note_on_c, 0, 52, 0
3, 141600, Note_on_c, 0, 57, 0
3, 142200, Note_on_c, 0, 49, 61
3, 142200, Note_on_c, 0, 57, 73
3, 142290, Note_on_c, 0, 57, 0
3, 142290, Note_on_c, 0, 49, 0
3, 142320, Note_on_c, 0, 57, 73
3, 142320, Note_on_c, 0, 49, 61
3, 142500, Note_on_c, 0, 49, 0
3, 142500, Note_on_c, 0, 57, 0
3, 142560, Note_on_c, 0, 49, 63
3, 142560, Note_on_c, 0, 57, 73
3, 142800, Note_on_c, 0, 57, 0
3, 142800, Note_on_c, 0, 49, 0
3, 142800, Note_on_c, 0, 59, 69
3, 142800, Note_on_c, 0, 52, 57
3, 143040, Note_on_c, 0, 52, 0
3, 143040, Note_on_c, 0, 59, 0
3, 143040, Note_on_c, 0, 57, 57
3, 143040, Note_on_c, 0, 61, 69
3, 143160, Note_on_c, 0, 61, 0
3, 143160, Note_on_c, 0, 57, 0
3, 143280, Note_on_c, 0, 57, 64
3, 143280, Note_on_c, 0, 61, 75
3, 143760, Note_on_c, 0, 61, 0
3, 143760, Note_on_c, 0, 57, 0
3, 143760, Note_on_c, 0, 57, 63
3, 143760, Note_on_c, 0, 61, 73
3, 143940, Note_on_c, 0, 61, 0
3, 143940, Note_on_c, 0, 57, 0
3, 144000, Note_on_c, 0, 57, 66
3, 144000, Note_on_c, 0, 61, 78
3, 144240, Note_on_c, 0, 61, 0
3, 144240, Note_on_c, 0, 57, 0
3, 144240, Note_on_c, 0, 62, 73
3, 144240, Note_on_c, 0, 59, 63
3, 144480, Note_on_c, 0, 59, 0
3, 144480, Note_on_c, 0, 62, 0
3, 144480, Note_on_c, 0, 61, 63
3, 144480, Note_on_c, 0, 64, 73
3, 144600, Note_on_c, 0, 64, 0
3, 144600, Note_on_c, 0, 61, 0
3, 144720, Note_on_c, 0, 61, 66
3, 144720, Note_on_c, 0, 64, 78
3, 144960, Note_on_c, 0, 64, 0
3, 144960, Note_on_c, 0, 61, 0
3, 144960, Note_on_c, 0, 62, 73
3, 144960, Note_on_c, 0, 59, 63
3, 145200, Note_on_c, 0, 59, 0
3, 145200, Note_on_c, 0, 62, 0
3, 145200, Note_on_c, 0, 57, 63
3, 145200, Note_on_c, 0, 61, 73
3, 145320, Note_on_c, 0, 61, 0
3, 145320, Note_on_c, 0, 57, 0
3, 145440, Note_on_c, 0, 52, 66
3, 145440, Note_on_c, 0, 56, 66
3, 145440, Note_on_c, 0, 59, 78
3, 146400, Note_on_c, 0, 59, 0
3, 146400, Note_on_c, 0, 56, 0
3, 146400, Note_on_c, 0, 52, 0
3, 146400, Note_on_c, 0, 52, 63
3, 146400, Note_on_c, 0, 59, 73
3, 146400, Note_on_c, 0, 56, 63
3, 146520, Note_on_c, 0, 56, 0
3, 146520, Note_on_c, 0, 59, 0
3, 146520, Note_on_c, 0, 52, 0
3, 146640, Note_on_c, 0, 52, 63
3, 146640, Note_on_c, 0, 56, 63
3, 146640, Note_on_c, 0, 59, 73
3, 146760, Note_on_c, 0, 59, 0
3, 146760, Note_on_c, 0, 56, 0
3, 146760, Note_on_c, 0, 52, 0
3, 146880, Note_on_c, 0, 52, 66
3, 146880, Note_on_c, 0, 56, 66
3, 146880, Note_on_c, 0, 59, 78
3, 147360, Note_on_c, 0, 59, 0
3, 147360, Note_on_c, 0, 56, 0
3, 147360, Note_on_c, 0, 52, 0
3, 147600, Note_on_c, 0, 28, 75
3, 147600, Note_on_c, 0, 40, 78
3, 147840, Note_on_c, 0, 40, 0
3, 147840, Note_on_c, 0, 28, 0
3, 147960, Note_on_c, 0, 49, 61
3, 147960, Note_on_c, 0, 57, 73
3, 148050, Note_on_c, 0, 57, 0
3, 148050, Note_on_c, 0, 49, 0
3, 148080, Note_on_c, 0, 57, 73
3, 148080, Note_on_c, 0, 49, 61
3, 148260, Note_on_c, 0, 49, 0
3, 148260, Note_on_c, 0, 57, 0
3, 148320, Note_on_c, 0, 49, 63
3, 148320, Note_on_c, 0, 57, 73
3, 148560, Note_on_c, 0, 57, 0
3, 148560, Note_on_c, 0, 49, 0
3, 148560, Note_on_c, 0, 59, 69
3, 148560, Note_on_c, 0, 52, 57
3, 148800, Note_on_c, 0, 52, 0
3, 148800, Note_on_c, 0, 59, 0
3, 148800, Note_on_c, 0, 57, 57
3, 148800, Note_on_c, 0, 61, 69
3, 148920, Note_on_c, 0, 61, 0
3, 148920, Note_on_c, 0, 57, 0
3, 149040, Note_on_c, 0, 57, 64
3, 149040, Note_on_c, 0, 61, 75
3, 149520, Note_on_c, 0, 61, 0
3, 149520, Note_on_c, 0, 57, 0
3, 149520, Note_on_c, 0, 57, 63
3, 149520, Note_on_c, 0, 61, 73
3, 149700, Note_on_c, 0, 61, 0
3, 149700, Note_on_c, 0, 57, 0
3, 149760, Note_on_c, 0, 57, 66
3, 149760, Note_on_c, 0, 61, 78
3, 150000, Note_on_c, 0, 61, 0
3, 150000, Note_on_c, 0, 57, 0
3, 150000, Note_on_c, 0, 62, 73
3, 150000, Note_on_c, 0, 59, 63
3, 150240, Note_on_c, 0, 59, 0
3, 150240, Note_on_c, 0, 62, 0
3, 150240, Note_on_c, 0, 61, 63
3, 150240, Note_on_c, 0, 64, 73
3, 150360, Note_on_c, 0, 64, 0
3, 150360, Note_on_c, 0, 61, 0
3, 150480, Note_on_c, 0, 61, 66
3, 150480, Note_on_c, 0, 64, 78
3, 150720, Note_on_c, 0, 64, 0
3, 150720, Note_on_c, 0, 61, 0
3, 150720, Note_on_c, 0, 62, 73
3, 150720, Note_on_c, 0, 59, 63
3, 150960, Note_on_c, 0, 59, 0
3, 150960, Note_on_c, 0, 62, 0
3, 150960, Note_on_c, 0, 57, 63
3, 150960, Note_on_c, 0, 61, 73
3, 151080, Note_on_c, 0, 61, 0
3, 151080, Note_on_c, 0, 57, 0
3, 151200, Note_on_c, 0, 52, 66
3, 151200, Note_on_c, 0, 56, 66
3, 151200, Note_on_c, 0, 59, 78
3, 152160, Note_on_c, 0, 59, 0
3, 152160, Note_on_c, 0, 56, 0
3, 152160, Note_on_c, 0, 52, 0
3, 152160, Note_on_c, 0, 52, 63
3, 152160, Note_on_c, 0, 59, 73
3, 152160, Note_on_c, 0, 56, 63
3, 152280, Note_on_c, 0, 56, 0
3, 152280, Note_on_c, 0, 59, 0
3, 152280, Note_on_c, 0, 52, 0
3, 152400, Note_on_c, 0, 52, 63
3, 152400, Note_on_c, 0, 56, 63
3, 152400, Note_on_c, 0, 59, 73
3, 152520, Note_on_c, 0, 59, 0
3, 152520, Note_on_c, 0, 56, 0
3, 152520, Note_on_c, 0, 52, 0
3, 152640, Note_on_c, 0, 52, 66
3, 152640, Note_on_c, 0, 56, 66
3, 152640, Note_on_c, 0, 59, 78
3, 153120, Note_on_c, 0, 59, 0
3, 153120, Note_on_c, 0, 56, 0
3, 153120, Note_on_c, 0, 52, 0
3, 153360, Note_on_c, 0, 33, 75
3, 153360, Note_on_c, 0, 45, 78
3, 153600, Note_on_c, 0, 45, 0
3, 153600, Note_on_c, 0, 33, 0
3, 153720, Note_on_c, 0, 49, 61
3, 153720, Note_on_c, 0, 57, 73
3, 153810, Note_on_c, 0, 57, 0
3, 153810, Note_on_c, 0, 49, 0
3, 153840, Note_on_c, 0, 57, 73
3, 153840, Note_on_c, 0, 49, 61
3, 154020, Note_on_c, 0, 49, 0
3, 154020, Note_on_c, 0, 57, 0
3, 154080, Note_on_c, 0, 49, 63
3, 154080, Note_on_c, 0, 57, 73
3, 154320, Note_on_c, 0, 57, 0
3, 154320, Note_on_c, 0, 49, 0
3, 154320, Note_on_c, 0, 59, 69
3, 154320, Note_on_c, 0, 52, 57
3, 154560, Note_on_c, 0, 52, 0
3, 154560, Note_on_c, 0, 59, 0
3, 154560, Note_on_c, 0, 57, 57
3, 154560, Note_on_c, 0, 61, 69
3, 154680, Note_on_c, 0, 61, 0
3, 154680, Note_on_c, 0, 57, 0
3, 154800, Note_on_c, 0, 57, 64
3, 154800, Note_on_c, 0, 61, 75
3, 155280, Note_on_c, 0, 61, 0
3, 155280, Note_on_c, 0, 57, 0
3, 155280, Note_on_c, 0, 57, 63
3, 155280, Note_on_c, 0, 61, 73
3, 155460, Note_on_c, 0, 61, 0
3, 155460, Note_on_c, 0, 57, 0
3, 155520, Note_on_c, 0, 57, 66
3, 155520, Note_on_c, 0, 61, 78
3, 155760, Note_on_c, 0, 61, 0
3, 155760, Note_on_c, 0, 57, 0
3, 155760, Note_on_c, 0, 62, 73
3, 155760, Note_on_c, 0, 59, 63
3, 156000, Note_on_c, 0, 59, 0
3, 156000, Note_on_c, 0, 62, 0
3, 156000, Note_on_c, 0, 61, 63
3, 156000, Note_on_c, 0, 64, 73
3, 156120, Note_on_c, 0, 64, 0
3, 156120, Note_on_c, 0, 61, 0
3, 156240, Note_on_c, 0, 61, 78
3, 156240, Note_on_c, 0, 64, 78
3, 156600, Note_on_c, 0, 64, 0
3, 156600, Note_on_c, 0, 61, 0
3, 156600, Note_on_c, 0, 62, 68
3, 156600, Note_on_c, 0, 66, 68
3, 156720, Note_on_c, 0, 66, 0
3, 156720, Note_on_c, 0, 62, 0
3, 156720, Note_on_c, 0, 62, 64
3, 156720, Note_on_c, 0, 66, 64
3, 156960, Note_on_c, 0, 66, 0
3, 156960, Note_on_c, 0, 62, 0
3, 156960, Note_on_c, 0, 69, 61
3, 156960, Note_on_c, 0, 66, 51
3, 156960, Note_on_c, 0, 57, 51
3, 158400, Note_on_c, 0, 57, 0
3, 158400, Note_on_c, 0, 66, 0
3, 158400, Note_on_c, 0, 69, 0
3, 158400, Note_on_c, 0, 66, 56
3, 158400, Note_on_c, 0, 62, 47
3, 158400, Note_on_c, 0, 57, 47
3, 158880, Note_on_c, 0, 57, 0
3, 158880, Note_on_c, 0, 62, 0
3, 158880, Note_on_c, 0, 66, 0
3, 159360, Note_on_c, 0, 66, 49
3, 159360, Note_on_c, 0, 62, 41
3, 159588, Note_on_c, 0, 62, 0
3, 159588, Note_on_c, 0, 66, 0
3, 159600, Note_on_c, 0, 66, 49
3, 159600, Note_on_c, 0, 62, 41
3, 159828, Note_on_c, 0, 62, 0
3, 159828, Note_on_c, 0, 66, 0
3, 159840, Note_on_c, 0, 57, 51
3, 159840, Note_on_c, 0, 66, 51
3, 159840, Note_on_c, 0, 69, 61
3, 161040, Note_on_c, 0, 69, 0
3, 161040, Note_on_c, 0, 66, 0
3, 161040, Note_on_c, 0, 57, 0
3, 161040, Note_on_c, 0, 66, 46
3, 161040, Note_on_c, 0, 62, 39
3, 161280, Note_on_c, 0, 62, 0
3, 161280, Note_on_c, 0, 66, 0
3, 161280, Note_on_c, 0, 57, 45
3, 161280, Note_on_c, 0, 66, 45
3, 161280, Note_on_c, 0, 69, 54
3, 162000, Note_on_c, 0, 57, 0
3, 162240, Note_on_c, 0, 69, 0
3, 162240, Note_on_c, 0, 66, 0
3, 162240, Note_on_c, 0, 64, 39
3, 162240, Note_on_c, 0, 68, 42
3, 162480, Note_on_c, 0, 68, 0
3, 162480, Note_on_c, 0, 64, 0
3, 162480, Note_on_c, 0, 66, 41
3, 162480, Note_on_c, 0, 62, 35
3, 162720, Note_on_c, 0, 62, 0
3, 162720, Note_on_c, 0, 66, 0
3, 162720, Note_on_c, 0, 57, 31
3, 162720, Note_on_c, 0, 61, 31
3, 162720, Note_on_c, 0, 64, 37
3, 163200, Note_on_c, 0, 64, 0
3, 163200, Note_on_c, 0, 61, 0
3, 163200, Note_on_c, 0, 57, 0
3, 163440, Note_on_c, 0, 68, 29
3, 163440, Note_on_c, 0, 74, 40
3, 164160, Note_on_c, 0, 74, 0
3, 164160, Note_on_c, 0, 68, 0
3, 164160, Note_on_c, 0, 69, 31
3, 164160, Note_on_c, 0, 73, 37
3, 164640, Note_on_c, 0, 73, 0
3, 164640, Note_on_c, 0, 69, 0
3, 164880, Note_on_c, 0, 68, 31
3, 164880, Note_on_c, 0, 62, 31
3, 164880, Note_on_c, 0, 71, 44
3, 165600, Note_on_c, 0, 71, 0
3, 165600, Note_on_c, 0, 62, 0
3, 165600, Note_on_c, 0, 68, 0
3, 165600, Note_on_c, 0, 61, 31
3, 165600, Note_on_c, 0, 64, 31
3, 165600, Note_on_c, 0, 69, 37
3, 166320, Note_on_c, 0, 69, 0
3, 166320, Note_on_c, 0, 64, 0
3, 166320, Note_on_c, 0, 61, 0
3, 166320, Note_on_c, 0, 56, 30
3, 166320, Note_on_c, 0, 62, 42
3, 167040, Note_on_c, 0, 62, 0
3, 167040, Note_on_c, 0, 56, 0
3, 167040, Note_on_c, 0, 57, 30
3, 167040, Note_on_c, 0, 61, 35
3, 167760, Note_on_c, 0, 61, 0
3, 167760, Note_on_c, 0, 57, 0
3, 167760, Note_on_c, 0, 52, 27
3, 167760, Note_on_c, 0, 62, 38
3, 167767, Note_on_c, 0, 56, 27
3, 168000, Note_on_c, 0, 62, 0
3, 168000, Note_on_c, 0, 52, 0
3, 168007, Note_on_c, 0, 56, 0
3, 168360, Note_on_c, 0, 45, 29
3, 168420, Note_on_c, 0, 52, 29
3, 168480, Note_on_c, 0, 61, 34
3, 168720, Note_on_c, 0, 61, 0
3, 168720, Note_on_c, 0, 52, 0
3, 168720, Note_on_c, 0, 45, 0
3, 169440, Note_on_c, 0, 69, 26
3, 169440, Note_on_c, 0, 73, 36
3, 169620, Note_on_c, 0, 73, 0
3, 169620, Note_on_c, 0, 69, 0
3, 169680, Note_on_c, 0, 69, 26
3, 169680, Note_on_c, 0, 73, 26
3, 169860, Note_on_c, 0, 73, 0
3, 169860, Note_on_c, 0, 69, 0
3, 169920, Note_on_c, 0, 69, 27
3, 169920, Note_on_c, 0, 73, 33
3, 170400, Note_on_c, 0, 73, 0
3, 170400, Note_on_c, 0, 69, 0
3, 170880, Note_on_c, 0, 61, 25
3, 170880, Note_on_c, 0, 69, 35
3, 171060, Note_on_c, 0, 69, 0
3, 171060, Note_on_c, 0, 61, 0
3, 171120, Note_on_c, 0, 61, 25
3, 171120, Note_on_c, 0, 69, 25
3, 171300, Note_on_c, 0, 69, 0
3, 171300, Note_on_c, 0, 61, 0
3, 171360, Note_on_c, 0, 61, 26
3, 171360, Note_on_c, 0, 69, 32
3, 171840, Note_on_c, 0, 69, 0
3, 171840, Note_on_c, 0, 61, 0
3, 172320, Note_on_c, 0, 57, 24
3, 172320, Note_on_c, 0, 61, 34
3, 172500, Note_on_c, 0, 61, 0
3, 172500, Note_on_c, 0, 57, 0
3, 172560, Note_on_c, 0, 57, 24
3, 172560, Note_on_c, 0, 61, 24
3, 172740, Note_on_c, 0, 61, 0
3, 172740, Note_on_c, 0, 57, 0
3, 172800, Note_on_c, 0, 57, 26
3, 172800, Note_on_c, 0, 61, 31
3, 173280, Note_on_c, 0, 61, 0
3, 173280, Note_on_c, 0, 57, 0
3, 173520, Note_on_c, 0, 52, 41
3, 173520, Note_on_c, 0, 59, 48
3, 174000, Note_on_c, 0, 59, 0
3, 174000, Note_on_c, 0, 52, 0
3, 174240, Note_on_c, 0, 57, 56
3, 174240, Note_on_c, 0, 49, 51
3, 174480, Note_on_c, 0, 49, 0
3, 174480, Note_on_c, 0, 57, 0
3, 175500, Note_on_c, 0, 61, 25
3, 175560, Note_on_c, 0, 64, 25
3, 175560, Note_on_c, 0, 69, 25
3, 175680, Note_on_c, 0, 73, 39
3, 175860, Note_on_c, 0, 69, 0
3, 175920, Note_on_c, 0, 61, 0
3, 175920, Note_on_c, 0, 64, 0
3, 175920, Note_on_c, 0, 73, 0
3, 177120, Note_on_c, 0, 45, 33
3, 177120, Note_on_c, 0, 33, 28
3, 177240, Note_on_c, 0, 33, 0
3, 177240, Note_on_c, 0, 45, 0
3, 177240, End_track
4, 0, Start_track
4, 0, Title_t, "Pedale"
4, 0, Program_c, 0, 0
4, 28, Control_c, 0, 64, 127
4, 978, Control_c, 0, 64, 0
4, 1479, Control_c, 0, 64, 127
4, 2436, Control_c, 0, 64, 0
4, 2930, Control_c, 0, 64, 127
4, 3860, Control_c, 0, 64, 0
4, 4359, Control_c, 0, 64, 127
4, 4574, Control_c, 0, 64, 0
4, 5093, Control_c, 0, 64, 127
4, 5296, Control_c, 0, 64, 0
4, 6530, Control_c, 0, 64, 127
4, 7447, Control_c, 0, 64, 0
4, 7966, Control_c, 0, 64, 127
4, 8883, Control_c, 0, 64, 0
4, 9413, Control_c, 0, 64, 127
4, 9710, Control_c, 0, 64, 0
4, 10144, Control_c, 0, 64, 127
4, 10574, Control_c, 0, 64, 0
4, 10860, Control_c, 0, 64, 127
4, 11065, Control_c, 0, 64, 0
4, 11574, Control_c, 0, 64, 127
4, 12258, Control_c, 0, 64, 0
4, 13207, Control_c, 0, 64, 0
4, 13726, Control_c, 0, 64, 127
4, 14643, Control_c, 0, 64, 0
4, 15173, Control_c, 0, 64, 127
4, 15470, Control_c, 0, 64, 0
4, 15904, Control_c, 0, 64, 127
4, 17280, Control_c, 0, 64, 0
4, 17372, Control_c, 0, 64, 127
4, 18009, Control_c, 0, 64, 0
4, 18060, Control_c, 0, 64, 127
4, 18724, Control_c, 0, 64, 0
4, 18784, Control_c, 0, 64, 127
4, 20167, Control_c, 0, 64, 0
4, 20259, Control_c, 0, 64, 127
4, 21120, Control_c, 0, 64, 0
4, 21678, Control_c, 0, 64, 127
4, 22158, Control_c, 0, 64, 0
4, 22391, Control_c, 0, 64, 127
4, 22913, Control_c, 0, 64, 0
4, 23146, Control_c, 0, 64, 127
4, 24021, Control_c, 0, 64, 0
4, 24600, Control_c, 0, 64, 127
4, 25727, Control_c, 0, 64, 0
4, 26040, Control_c, 0, 64, 127
4, 27130, Control_c, 0, 64, 0
4, 27480, Control_c, 0, 64, 127
4, 28607, Control_c, 0, 64, 0
4, 28920, Control_c, 0, 64, 127
4, 30010, Control_c, 0, 64, 0
4, 30360, Control_c, 0, 64, 127
4, 31487, Control_c, 0, 64, 0
4, 31800, Control_c, 0, 64, 127
4, 32605, Control_c, 0, 64, 0
4, 34652, Control_c, 0, 64, 127
4, 35545, Control_c, 0, 64, 0
4, 41090, Control_c, 0, 64, 127
4, 42007, Control_c, 0, 64, 0
4, 42526, Control_c, 0, 64, 127
4, 43443, Control_c, 0, 64, 0
4, 43973, Control_c, 0, 64, 127
4, 44270, Control_c, 0, 64, 0
4, 44704, Control_c, 0, 64, 127
4, 45134, Control_c, 0, 64, 0
4, 45420, Control_c, 0, 64, 127
4, 45625, Control_c, 0, 64, 0
4, 46134, Control_c, 0, 64, 127
4, 46818, Control_c, 0, 64, 0
4, 47767, Control_c, 0, 64, 0
4, 48286, Control_c, 0, 64, 127
4, 49203, Control_c, 0, 64, 0
4, 49733, Control_c, 0, 64, 127
4, 50030, Control_c, 0, 64, 0
4, 50464, Control_c, 0, 64, 127
4, 51840, Control_c, 0, 64, 0
4, 51932, Control_c, 0, 64, 127
4, 52569, Control_c, 0, 64, 0
4, 52620, Control_c, 0, 64, 127
4, 53284, Control_c, 0, 64, 0
4, 53344, Control_c, 0, 64, 127
4, 54727, Control_c, 0, 64, 0
4, 54819, Control_c, 0, 64, 127
4, 55680, Control_c, 0, 64, 0
4, 56238, Control_c, 0, 64, 127
4, 56718, Control_c, 0, 64, 0
4, 56951, Control_c, 0, 64, 127
4, 57473, Control_c, 0, 64, 0
4, 57706, Control_c, 0, 64, 127
4, 58581, Control_c, 0, 64, 0
4, 59160, Control_c, 0, 64, 127
4, 60287, Control_c, 0, 64, 0
4, 60600, Control_c, 0, 64, 127
4, 61690, Control_c, 0, 64, 0
4, 62040, Control_c, 0, 64, 127
4, 63167, Control_c, 0, 64, 0
4, 63480, Control_c, 0, 64, 127
4, 64570, Control_c, 0, 64, 0
4, 64920, Control_c, 0, 64, 127
4, 66047, Control_c, 0, 64, 0
4, 66360, Control_c, 0, 64, 127
4, 67165, Control_c, 0, 64, 0
4, 69212, Control_c, 0, 64, 127
4, 70105, Control_c, 0, 64, 0
4, 75840, Control_c, 0, 64, 0
4, 76398, Control_c, 0, 64, 127
4, 76580, Control_c, 0, 64, 0
4, 77111, Control_c, 0, 64, 127
4, 77540, Control_c, 0, 64, 0
4, 77803, Control_c, 0, 64, 127
4, 78012, Control_c, 0, 64, 0
4, 78586, Control_c, 0, 64, 127
4, 79200, Control_c, 0, 64, 0
4, 79278, Control_c, 0, 64, 127
4, 79460, Control_c, 0, 64, 0
4, 79991, Control_c, 0, 64, 127
4, 80420, Control_c, 0, 64, 0
4, 80640, Control_c, 0, 64, 0
4, 80718, Control_c, 0, 64, 127
4, 81363, Control_c, 0, 64, 0
4, 82158, Control_c, 0, 64, 127
4, 82341, Control_c, 0, 64, 0
4, 82871, Control_c, 0, 64, 127
4, 83301, Control_c, 0, 64, 0
4, 83563, Control_c, 0, 64, 127
4, 83773, Control_c, 0, 64, 0
4, 84347, Control_c, 0, 64, 127
4, 84961, Control_c, 0, 64, 0
4, 85038, Control_c, 0, 64, 127
4, 85221, Control_c, 0, 64, 0
4, 85751, Control_c, 0, 64, 127
4, 86181, Control_c, 0, 64, 0
4, 86401, Control_c, 0, 64, 0
4, 86478, Control_c, 0, 64, 127
4, 87124, Control_c, 0, 64, 0
4, 90071, Control_c, 0, 64, 127
4, 90740, Control_c, 0, 64, 0
4, 90819, Control_c, 0, 64, 127
4, 91218, Control_c, 0, 64, 0
4, 91507, Control_c, 0, 64, 127
4, 91947, Control_c, 0, 64, 0
4, 92238, Control_c, 0, 64, 127
4, 92926, Control_c, 0, 64, 0
4, 96537, Control_c, 0, 64, 127
4, 97209, Control_c, 0, 64, 0
4, 97372, Control_c, 0, 64, 127
4, 97927, Control_c, 0, 64, 0
4, 98017, Control_c, 0, 64, 127
4, 98660, Control_c, 0, 64, 0
4, 98732, Control_c, 0, 64, 127
4, 99367, Control_c, 0, 64, 0
4, 99457, Control_c, 0, 64, 127
4, 100100, Control_c, 0, 64, 0
4, 100172, Control_c, 0, 64, 127
4, 100800, Control_c, 0, 64, 0
4, 100867, Control_c, 0, 64, 127
4, 103680, Control_c, 0, 64, 0
4, 103747, Control_c, 0, 64, 127
4, 105862, Control_c, 0, 64, 0
4, 105925, Control_c, 0, 64, 127
4, 106807, Control_c, 0, 64, 0
4, 107326, Control_c, 0, 64, 127
4, 108246, Control_c, 0, 64, 0
4, 108773, Control_c, 0, 64, 127
4, 109070, Control_c, 0, 64, 0
4, 109112, Control_c, 0, 64, 127
4, 109934, Control_c, 0, 64, 0
4, 110220, Control_c, 0, 64, 127
4, 110425, Control_c, 0, 64, 0
4, 110934, Control_c, 0, 64, 127
4, 111618, Control_c, 0, 64, 0
4, 112567, Control_c, 0, 64, 0
4, 113086, Control_c, 0, 64, 127
4, 114003, Control_c, 0, 64, 0
4, 115209, Control_c, 0, 64, 0
4, 115260, Control_c, 0, 64, 127
4, 115917, Control_c, 0, 64, 0
4, 116040, Control_c, 0, 64, 127
4, 118089, Control_c, 0, 64, 0
4, 118140, Control_c, 0, 64, 127
4, 118797, Control_c, 0, 64, 0
4, 118920, Control_c, 0, 64, 127
4, 120960, Control_c, 0, 64, 0
4, 121080, Control_c, 0, 64, 127
4, 122173, Control_c, 0, 64, 0
4, 122400, Control_c, 0, 64, 0
4, 122520, Control_c, 0, 64, 127
4, 123613, Control_c, 0, 64, 0
4, 123932, Control_c, 0, 64, 127
4, 124825, Control_c, 0, 64, 0
4, 131083, Control_c, 0, 64, 127
4, 131816, Control_c, 0, 64, 0
4, 132508, Control_c, 0, 64, 127
4, 133219, Control_c, 0, 64, 0
4, 133984, Control_c, 0, 64, 127
4, 134675, Control_c, 0, 64, 0
4, 135508, Control_c, 0, 64, 127
4, 136327, Control_c, 0, 64, 0
4, 136875, Control_c, 0, 64, 127
4, 137795, Control_c, 0, 64, 0
4, 138335, Control_c, 0, 64, 127
4, 139244, Control_c, 0, 64, 0
4, 139772, Control_c, 0, 64, 127
4, 140646, Control_c, 0, 64, 0
4, 141184, Control_c, 0, 64, 127
4, 141867, Control_c, 0, 64, 0
4, 141925, Control_c, 0, 64, 127
4, 142599, Control_c, 0, 64, 0
4, 142648, Control_c, 0, 64, 127
4, 143286, Control_c, 0, 64, 0
4, 143354, Control_c, 0, 64, 127
4, 144003, Control_c, 0, 64, 0
4, 144120, Control_c, 0, 64, 127
4, 144727, Control_c, 0, 64, 0
4, 144812, Control_c, 0, 64, 127
4, 145443, Control_c, 0, 64, 0
4, 145560, Control_c, 0, 64, 127
4, 147607, Control_c, 0, 64, 0
4, 147692, Control_c, 0, 64, 127
4, 148359, Control_c, 0, 64, 0
4, 148408, Control_c, 0, 64, 127
4, 149046, Control_c, 0, 64, 0
4, 149114, Control_c, 0, 64, 127
4, 149763, Control_c, 0, 64, 0
4, 149880, Control_c, 0, 64, 127
4, 150487, Control_c, 0, 64, 0
4, 150572, Control_c, 0, 64, 127
4, 151203, Control_c, 0, 64, 0
4, 151320, Control_c, 0, 64, 127
4, 153367, Control_c, 0, 64, 0
4, 153452, Control_c, 0, 64, 127
4, 154119, Control_c, 0, 64, 0
4, 154168, Control_c, 0, 64, 127
4, 154806, Control_c, 0, 64, 0
4, 154874, Control_c, 0, 64, 127
4, 155523, Control_c, 0, 64, 0
4, 155640, Control_c, 0, 64, 127
4, 156621, Control_c, 0, 64, 0
4, 156699, Control_c, 0, 64, 127
4, 162246, Control_c, 0, 64, 0
4, 162791, Control_c, 0, 64, 127
4, 163469, Control_c, 0, 64, 0
4, 163567, Control_c, 0, 64, 127
4, 164178, Control_c, 0, 64, 0
4, 164231, Control_c, 0, 64, 127
4, 164909, Control_c, 0, 64, 0
4, 165007, Control_c, 0, 64, 127
4, 165610, Control_c, 0, 64, 0
4, 165671, Control_c, 0, 64, 127
4, 166349, Control_c, 0, 64, 0
4, 166447, Control_c, 0, 64, 127
4, 167058, Control_c, 0, 64, 0
4, 167111, Control_c, 0, 64, 127
4, 167789, Control_c, 0, 64, 0
4, 167887, Control_c, 0, 64, 127
4, 168490, Control_c, 0, 64, 0
4, 168551, Control_c, 0, 64, 127
4, 172810, Control_c, 0, 64, 0
4, 172871, Control_c, 0, 64, 127
4, 174480, Control_c, 0, 64, 0
4, 175507, Control_c, 0, 64, 127
4, 177387, Control_c, 0, 64, 0
4, 177387, End_track
5, 0, Start_track
5, 0, Title_t, "Mendelssohn: Songs without words Opus 19 No. 3"
5, 0, End_track
6, 0, Start_track
6, 0, Title_t, "Copyright © 2010 by Bernd Krueger"
6, 0, End_track
7, 0, Start_track
7, 0, Title_t, "http://www.piano-midi.de/"
7, 0, End_track
8, 0, Start_track
8, 0, Title_t, "Edition: 2014-10-29"
8, 0, End_track
9, 0, Start_track
9, 0, Title_t, "Spur 8"
9, 0, End_track
10, 0, Start_track
10, 0, Title_t, "Spur 9"
10, 0, End_track
11, 0, Start_track
11, 0, Title_t, "Spur 10"
11, 0, End_track
12, 0, Start_track
12, 0, Title_t, "Spur 11"
12, 0, End_track
13, 0, Start_track
13, 0, Title_t, "Spur 12"
13, 0, End_track
14, 0, Start_track
14, 0, Title_t, "Spur 13"
14, 0, End_track
15, 0, Start_track
15, 0, Title_t, "Spur 14"
15, 0, End_track
16, 0, Start_track
16, 0, Title_t, "Spur 15"
16, 0, End_track
17, 0, Start_track
17, 0, Title_t, "Spur 16"
17, 0, End_track
0, 0, End_of_file
