0, 0, Header, 1, 17, 480
1, 0, Start_track
1, 0, Title_t, "Mendelssohn: Lieder ohne Worte Opus 19 Nr. 6"
1, 0, Title_t, "Venetianisches Gondellied"
1, 0, Copyright_t, "Copyright © 2014 by Bernd Krueger"
1, 0, Text_t, "Bernd Krueger"
1, 0, Text_t, "Andante sostenuto"
1, 0, Text_t, "Erstellt: 9.12.2014\012"
1, 0, Text_t, "Dauer:  2:41 Minuten\012"
1, 0, Time_signature, 6, 3, 12, 8
1, 0, Key_signature, -2, "major"
1, 0, Tempo, 1188354
1, 240, Tempo, 1154068
1, 480, Tempo, 1188354
1, 720, Tempo, 1176701
1, 960, Tempo, 1132289
1, 1200, Tempo, 1165275
1, 1440, Tempo, 1176701
1, 1680, Tempo, 1132289
1, 1920, Tempo, 1176701
1, 2400, Tempo, 1081276
1, 2640, Tempo, 1333630
1, 2880, Tempo, 1176701
1, 3120, Tempo, 1111317
1, 3360, Tempo, 1200240
1, 3600, Tempo, 1176701
1, 3840, Tempo, 1121705
1, 4080, Tempo, 1188354
1, 4320, Tempo, 1176701
1, 4560, Tempo, 1132289
1, 4800, Tempo, 1212366
1, 5040, Tempo, 1154068
1, 5280, Tempo, 1200240
1, 5520, Tempo, 1263424
1, 5760, Tempo, 1237369
1, 6000, Tempo, 1132289
1, 6240, Tempo, 1176701
1, 6720, Tempo, 1121705
1, 6960, Tempo, 1263424
1, 7200, Tempo, 1176701
1, 7440, Tempo, 1121705
1, 7680, Tempo, 1237369
1, 7920, Tempo, 1200240
1, 8160, Tempo, 1154068
1, 8400, Tempo, 1250260
1, 8640, Tempo, 1165275
1, 8880, Tempo, 1101119
1, 9120, Tempo, 1176701
1, 9360, Tempo, 1176701
1, 9600, Tempo, 1176701
1, 9840, Tempo, 1111317
1, 10080, Tempo, 1176701
1, 10320, Tempo, 1121705
1, 10560, Tempo, 1200240
1, 10800, Tempo, 1176701
1, 11040, Tempo, 1154068
1, 11520, Tempo, 1176701
1, 11760, Tempo, 1143075
1, 12000, Tempo, 1212366
1, 12240, Tempo, 1176701
1, 12720, Tempo, 1154068
1, 12960, Tempo, 1176701
1, 13200, Tempo, 1132289
1, 13440, Tempo, 1188354
1, 13680, Tempo, 1143075
1, 13920, Tempo, 1111317
1, 14160, Tempo, 1395673
1, 14400, Tempo, 1165275
1, 14640, Tempo, 1111317
1, 14880, Tempo, 1176701
1, 15120, Tempo, 1176701
1, 15360, Tempo, 1143075
1, 15600, Tempo, 1101119
1, 15840, Tempo, 1188354
1, 16080, Tempo, 1101119
1, 16320, Tempo, 1154068
1, 16560, Tempo, 1188354
1, 16800, Tempo, 1111317
1, 17040, Tempo, 1176701
1, 17280, Tempo, 1165275
1, 17520, Tempo, 1121705
1, 17760, Tempo, 1165275
1, 18000, Tempo, 1165275
1, 18240, Tempo, 1091107
1, 18720, Tempo, 1111317
1, 18960, Tempo, 1143075
1, 19200, Tempo, 1224740
1, 19440, Tempo, 1143075
1, 19920, Tempo, 1250260
1, 20160, Tempo, 1165275
1, 20400, Tempo, 1091107
1, 20640, Tempo, 1143075
1, 20880, Tempo, 1176701
1, 21360, Tempo, 1091107
1, 21600, Tempo, 1111317
1, 21840, Tempo, 1143075
1, 22080, Tempo, 1224740
1, 22320, Tempo, 1143075
1, 22800, Tempo, 1250260
1, 23040, Tempo, 1165275
1, 23280, Tempo, 1091107
1, 23520, Tempo, 1143075
1, 24000, Tempo, 1091107
1, 24240, Tempo, 1176701
1, 24480, Tempo, 1237369
1, 24720, Tempo, 1091107
1, 24960, Tempo, 1165275
1, 25200, Tempo, 1132289
1, 25440, Tempo, 1101119
1, 25680, Tempo, 1165275
1, 25920, Tempo, 1200240
1, 26160, Tempo, 1121705
1, 26400, Tempo, 1154068
1, 26640, Tempo, 1132289
1, 26880, Tempo, 1062135
1, 27120, Tempo, 1176701
1, 27360, Tempo, 1224740
1, 27600, Tempo, 1091107
1, 27840, Tempo, 1165275
1, 28080, Tempo, 1132289
1, 28320, Tempo, 1091107
1, 28560, Tempo, 1188354
1, 28800, Tempo, 1132289
1, 29040, Tempo, 1091107
1, 29280, Tempo, 1165275
1, 29520, Tempo, 1132289
1, 29760, Tempo, 1101119
1, 30000, Tempo, 1176701
1, 30240, Tempo, 1237369
1, 30480, Tempo, 1091107
1, 30720, Tempo, 1165275
1, 30960, Tempo, 1132289
1, 31200, Tempo, 1101119
1, 31440, Tempo, 1165275
1, 31680, Tempo, 1200240
1, 31920, Tempo, 1121705
1, 32160, Tempo, 1154068
1, 32400, Tempo, 1132289
1, 32640, Tempo, 1062135
1, 32880, Tempo, 1176701
1, 33120, Tempo, 1224740
1, 33360, Tempo, 1091107
1, 33600, Tempo, 1165275
1, 33840, Tempo, 1132289
1, 34080, Tempo, 1165275
1, 34320, Tempo, 1276867
1, 34560, Tempo, 1176701
1, 34705, Tempo, 1176701
1, 34855, Tempo, 1165275
1, 35005, Tempo, 1154068
1, 35125, Tempo, 1143075
1, 35185, Tempo, 1154068
1, 35245, Tempo, 1165275
1, 35305, Tempo, 1176701
1, 35365, Tempo, 1188354
1, 35425, Tempo, 1200240
1, 35485, Tempo, 1212366
1, 35545, Tempo, 1224740
1, 35605, Tempo, 1237369
1, 35665, Tempo, 1250260
1, 35725, Tempo, 1263424
1, 35755, Tempo, 1276867
1, 36000, Tempo, 1111317
1, 36240, Tempo, 1154068
1, 36480, Tempo, 1200240
1, 36720, Tempo, 1132289
1, 36960, Tempo, 1165275
1, 37200, Tempo, 1212366
1, 37440, Tempo, 1132289
1, 37680, Tempo, 1165275
1, 37920, Tempo, 1212366
1, 38160, Tempo, 1176701
1, 38400, Tempo, 1143075
1, 38640, Tempo, 1237369
1, 38880, Tempo, 1121705
1, 39360, Tempo, 1188354
1, 39600, Tempo, 1176701
1, 39840, Tempo, 1143075
1, 40080, Tempo, 1237369
1, 40320, Tempo, 1176701
1, 40560, Tempo, 1154068
1, 40800, Tempo, 1188354
1, 41040, Tempo, 1176701
1, 41280, Tempo, 1132289
1, 41520, Tempo, 1224740
1, 41760, Tempo, 1132289
1, 42000, Tempo, 1154068
1, 42240, Tempo, 1188354
1, 42480, Tempo, 1188354
1, 42720, Tempo, 1154068
1, 42960, Tempo, 1237369
1, 43200, Tempo, 1154068
1, 43440, Tempo, 1176701
1, 43680, Tempo, 1237369
1, 43920, Tempo, 1200240
1, 44160, Tempo, 1176701
1, 44400, Tempo, 1276867
1, 44640, Tempo, 1200240
1, 44880, Tempo, 1154068
1, 46080, Tempo, 1154068
1, 46560, Tempo, 1212366
1, 46800, Tempo, 1154068
1, 47280, Tempo, 1276867
1, 47520, Tempo, 1165275
1, 47760, Tempo, 1101119
1, 48000, Tempo, 1176701
1, 48240, Tempo, 1176701
1, 48480, Tempo, 1176701
1, 48720, Tempo, 1111317
1, 48960, Tempo, 1176701
1, 49200, Tempo, 1121705
1, 49440, Tempo, 1200240
1, 49680, Tempo, 1176701
1, 49920, Tempo, 1154068
1, 50160, Tempo, 1111317
1, 50400, Tempo, 1176701
1, 50640, Tempo, 1121705
1, 50880, Tempo, 1200240
1, 51120, Tempo, 1176701
1, 51360, Tempo, 1154068
1, 51600, Tempo, 1111317
1, 51840, Tempo, 1176701
1, 52080, Tempo, 1121705
1, 52320, Tempo, 1200240
1, 52560, Tempo, 1176701
1, 52800, Tempo, 1154068
1, 53040, Tempo, 1111317
1, 53280, Tempo, 1176701
1, 53520, Tempo, 1121705
1, 53760, Tempo, 1200240
1, 54000, Tempo, 1176701
1, 54240, Tempo, 1154068
1, 54480, Tempo, 1111317
1, 54720, Tempo, 1176701
1, 54960, Tempo, 1121705
1, 55200, Tempo, 1200240
1, 55440, Tempo, 1176701
1, 55680, Tempo, 1154068
1, 55920, Tempo, 1200240
1, 56160, Tempo, 1176701
1, 56400, Tempo, 1154068
1, 56880, Tempo, 1176701
1, 57120, Tempo, 1154068
1, 57600, Tempo, 1176701
1, 57840, Tempo, 1154068
1, 58320, Tempo, 1176701
1, 58560, Tempo, 1154068
1, 58800, Tempo, 1276867
1, 59040, Tempo, 1176701
1, 59280, Tempo, 1154068
1, 60480, Tempo, 1176701
1, 60720, Tempo, 1154068
1, 61200, Tempo, 1176701
1, 61440, Tempo, 1154068
1, 61680, Tempo, 1276867
1, 61920, Tempo, 1176701
1, 62160, Tempo, 1121705
1, 62400, Tempo, 1276867
1, 62640, Tempo, 1154068
1, 63360, Tempo, 1176701
1, 63600, Tempo, 1121705
1, 63840, Tempo, 1276867
1, 64080, Tempo, 1154068
1, 64560, Tempo, 1318971
1, 64560, End_track
2, 0, Start_track
2, 0, Title_t, "Piano right"
2, 0, Program_c, 0, 0
2, 2880, Note_on_c, 0, 62, 50
2, 3600, Note_on_c, 0, 62, 0
2, 3600, Note_on_c, 0, 65, 61
2, 5040, Note_on_c, 0, 65, 0
2, 5040, Note_on_c, 0, 63, 57
2, 5760, Note_on_c, 0, 63, 0
2, 5760, Note_on_c, 0, 62, 50
2, 6960, Note_on_c, 0, 62, 0
2, 9840, Note_on_c, 0, 74, 53
2, 9840, Note_on_c, 0, 70, 45
2, 10080, Note_on_c, 0, 70, 0
2, 10080, Note_on_c, 0, 74, 0
2, 10080, Note_on_c, 0, 72, 61
2, 10080, Note_on_c, 0, 69, 51
2, 10560, Note_on_c, 0, 69, 0
2, 10560, Note_on_c, 0, 72, 0
2, 10560, Note_on_c, 0, 67, 42
2, 10560, Note_on_c, 0, 70, 50
2, 10800, Note_on_c, 0, 70, 0
2, 10800, Note_on_c, 0, 67, 0
2, 10800, Note_on_c, 0, 69, 55
2, 10800, Note_on_c, 0, 66, 46
2, 11275, Note_on_c, 0, 66, 0
2, 11275, Note_on_c, 0, 69, 0
2, 11280, Note_on_c, 0, 69, 42
2, 11280, Note_on_c, 0, 72, 50
2, 11520, Note_on_c, 0, 72, 0
2, 11520, Note_on_c, 0, 69, 0
2, 11520, Note_on_c, 0, 70, 56
2, 11520, Note_on_c, 0, 62, 47
2, 12000, Note_on_c, 0, 62, 0
2, 12000, Note_on_c, 0, 70, 0
2, 12000, Note_on_c, 0, 60, 42
2, 12000, Note_on_c, 0, 69, 50
2, 12240, Note_on_c, 0, 69, 0
2, 12240, Note_on_c, 0, 60, 0
2, 12240, Note_on_c, 0, 67, 55
2, 12240, Note_on_c, 0, 58, 46
2, 12720, Note_on_c, 0, 58, 0
2, 12720, Note_on_c, 0, 67, 0
2, 12720, Note_on_c, 0, 62, 50
2, 12960, Note_on_c, 0, 62, 0
2, 12960, Note_on_c, 0, 63, 55
2, 12960, Note_on_c, 0, 60, 46
2, 13430, Note_on_c, 0, 60, 0
2, 13430, Note_on_c, 0, 63, 0
2, 13440, Note_on_c, 0, 60, 42
2, 13440, Note_on_c, 0, 63, 50
2, 13670, Note_on_c, 0, 63, 0
2, 13670, Note_on_c, 0, 60, 0
2, 13680, Note_on_c, 0, 63, 48
2, 13680, Note_on_c, 0, 60, 40
2, 13800, Note_on_c, 0, 60, 0
2, 13800, Note_on_c, 0, 63, 0
2, 13800, Note_on_c, 0, 65, 53
2, 13800, Note_on_c, 0, 62, 45
2, 13920, Note_on_c, 0, 62, 0
2, 13920, Note_on_c, 0, 65, 0
2, 13920, Note_on_c, 0, 67, 54
2, 13920, Note_on_c, 0, 63, 45
2, 14040, Note_on_c, 0, 63, 0
2, 14040, Note_on_c, 0, 67, 0
2, 14160, Note_on_c, 0, 60, 42
2, 14160, Note_on_c, 0, 63, 50
2, 14280, Note_on_c, 0, 63, 0
2, 14280, Note_on_c, 0, 60, 0
2, 14400, Note_on_c, 0, 62, 46
2, 15600, Note_on_c, 0, 74, 53
2, 15600, Note_on_c, 0, 70, 45
2, 15840, Note_on_c, 0, 70, 0
2, 15840, Note_on_c, 0, 74, 0
2, 15840, Note_on_c, 0, 72, 61
2, 15840, Note_on_c, 0, 69, 51
2, 16320, Note_on_c, 0, 69, 0
2, 16320, Note_on_c, 0, 72, 0
2, 16320, Note_on_c, 0, 67, 42
2, 16320, Note_on_c, 0, 70, 50
2, 16560, Note_on_c, 0, 70, 0
2, 16560, Note_on_c, 0, 67, 0
2, 16560, Note_on_c, 0, 69, 55
2, 16560, Note_on_c, 0, 66, 46
2, 17030, Note_on_c, 0, 66, 0
2, 17030, Note_on_c, 0, 69, 0
2, 17040, Note_on_c, 0, 69, 42
2, 17040, Note_on_c, 0, 72, 50
2, 17280, Note_on_c, 0, 72, 0
2, 17280, Note_on_c, 0, 69, 0
2, 17280, Note_on_c, 0, 62, 0
2, 17280, Note_on_c, 0, 70, 56
2, 17280, Note_on_c, 0, 62, 47
2, 17760, Note_on_c, 0, 62, 0
2, 17760, Note_on_c, 0, 70, 0
2, 17760, Note_on_c, 0, 60, 42
2, 17760, Note_on_c, 0, 69, 50
2, 18000, Note_on_c, 0, 69, 0
2, 18000, Note_on_c, 0, 60, 0
2, 18000, Note_on_c, 0, 67, 55
2, 18000, Note_on_c, 0, 58, 46
2, 18210, Note_on_c, 0, 58, 0
2, 18210, Note_on_c, 0, 67, 0
2, 18240, Note_on_c, 0, 67, 62
2, 18480, Note_on_c, 0, 67, 0
2, 18480, Note_on_c, 0, 69, 63
2, 18720, Note_on_c, 0, 69, 0
2, 18720, Note_on_c, 0, 70, 69
2, 18960, Note_on_c, 0, 70, 0
2, 18960, Note_on_c, 0, 73, 62
2, 19200, Note_on_c, 0, 73, 0
2, 19200, Note_on_c, 0, 74, 67
2, 19440, Note_on_c, 0, 74, 0
2, 19440, Note_on_c, 0, 73, 66
2, 19440, Note_on_c, 0, 77, 78
2, 19680, Note_on_c, 0, 77, 0
2, 19680, Note_on_c, 0, 73, 0
2, 19680, Note_on_c, 0, 76, 66
2, 19920, Note_on_c, 0, 76, 0
2, 19920, Note_on_c, 0, 74, 72
2, 20160, Note_on_c, 0, 74, 0
2, 20160, Note_on_c, 0, 81, 78
2, 20160, Note_on_c, 0, 74, 56
2, 20640, Note_on_c, 0, 74, 0
2, 20640, Note_on_c, 0, 81, 0
2, 20640, Note_on_c, 0, 77, 68
2, 20880, Note_on_c, 0, 77, 0
2, 20880, Note_on_c, 0, 74, 63
2, 21360, Note_on_c, 0, 74, 0
2, 21360, Note_on_c, 0, 69, 55
2, 21600, Note_on_c, 0, 69, 0
2, 21600, Note_on_c, 0, 70, 57
2, 21840, Note_on_c, 0, 70, 0
2, 21840, Note_on_c, 0, 64, 48
2, 21840, Note_on_c, 0, 73, 57
2, 22080, Note_on_c, 0, 73, 0
2, 22080, Note_on_c, 0, 64, 0
2, 22080, Note_on_c, 0, 65, 48
2, 22080, Note_on_c, 0, 74, 57
2, 22320, Note_on_c, 0, 74, 0
2, 22320, Note_on_c, 0, 65, 0
2, 22320, Note_on_c, 0, 69, 53
2, 22320, Note_on_c, 0, 77, 63
2, 22560, Note_on_c, 0, 77, 0
2, 22560, Note_on_c, 0, 69, 0
2, 22560, Note_on_c, 0, 76, 57
2, 22560, Note_on_c, 0, 67, 48
2, 22800, Note_on_c, 0, 67, 0
2, 22800, Note_on_c, 0, 76, 0
2, 22800, Note_on_c, 0, 74, 54
2, 22800, Note_on_c, 0, 65, 45
2, 23028, Note_on_c, 0, 65, 0
2, 23028, Note_on_c, 0, 74, 0
2, 23040, Note_on_c, 0, 74, 65
2, 23040, Note_on_c, 0, 65, 55
2, 24210, Note_on_c, 0, 65, 0
2, 24210, Note_on_c, 0, 74, 0
2, 24240, Note_on_c, 0, 74, 59
2, 24480, Note_on_c, 0, 74, 0
2, 24480, Note_on_c, 0, 77, 70
2, 24720, Note_on_c, 0, 65, 39
2, 24960, Note_on_c, 0, 65, 0
2, 24960, Note_on_c, 0, 77, 0
2, 24960, Note_on_c, 0, 67, 34
2, 24960, Note_on_c, 0, 74, 61
2, 25200, Note_on_c, 0, 74, 0
2, 25200, Note_on_c, 0, 67, 0
2, 25200, Note_on_c, 0, 72, 65
2, 25440, Note_on_c, 0, 65, 39
2, 25680, Note_on_c, 0, 65, 0
2, 25680, Note_on_c, 0, 72, 0
2, 25680, Note_on_c, 0, 67, 34
2, 25680, Note_on_c, 0, 71, 61
2, 25920, Note_on_c, 0, 71, 0
2, 25920, Note_on_c, 0, 67, 0
2, 25920, Note_on_c, 0, 72, 70
2, 26160, Note_on_c, 0, 60, 39
2, 26160, Note_on_c, 0, 63, 39
2, 26400, Note_on_c, 0, 63, 0
2, 26400, Note_on_c, 0, 60, 0
2, 26400, Note_on_c, 0, 72, 0
2, 26400, Note_on_c, 0, 67, 58
2, 26640, Note_on_c, 0, 67, 0
2, 26640, Note_on_c, 0, 68, 65
2, 26880, Note_on_c, 0, 62, 39
2, 26880, Note_on_c, 0, 65, 39
2, 27120, Note_on_c, 0, 65, 0
2, 27120, Note_on_c, 0, 62, 0
2, 27120, Note_on_c, 0, 68, 0
2, 27120, Note_on_c, 0, 71, 65
2, 27360, Note_on_c, 0, 71, 0
2, 27360, Note_on_c, 0, 72, 69
2, 27600, Note_on_c, 0, 60, 39
2, 27600, Note_on_c, 0, 63, 39
2, 27840, Note_on_c, 0, 63, 0
2, 27840, Note_on_c, 0, 60, 0
2, 27840, Note_on_c, 0, 72, 0
2, 27840, Note_on_c, 0, 67, 56
2, 28080, Note_on_c, 0, 67, 0
2, 28080, Note_on_c, 0, 68, 62
2, 28320, Note_on_c, 0, 62, 39
2, 28320, Note_on_c, 0, 65, 39
2, 28560, Note_on_c, 0, 65, 0
2, 28560, Note_on_c, 0, 62, 0
2, 28560, Note_on_c, 0, 68, 0
2, 28560, Note_on_c, 0, 71, 56
2, 28800, Note_on_c, 0, 71, 0
2, 28800, Note_on_c, 0, 72, 64
2, 29040, Note_on_c, 0, 63, 39
2, 29280, Note_on_c, 0, 63, 0
2, 29280, Note_on_c, 0, 67, 34
2, 29520, Note_on_c, 0, 67, 0
2, 29760, Note_on_c, 0, 72, 0
2, 29760, Note_on_c, 0, 63, 39
2, 30000, Note_on_c, 0, 63, 0
2, 30000, Note_on_c, 0, 67, 27
2, 30000, Note_on_c, 0, 72, 47
2, 30240, Note_on_c, 0, 72, 0
2, 30240, Note_on_c, 0, 67, 0
2, 30240, Note_on_c, 0, 75, 58
2, 30480, Note_on_c, 0, 63, 31
2, 30720, Note_on_c, 0, 63, 0
2, 30720, Note_on_c, 0, 75, 0
2, 30720, Note_on_c, 0, 66, 27
2, 30720, Note_on_c, 0, 69, 48
2, 30960, Note_on_c, 0, 69, 0
2, 30960, Note_on_c, 0, 66, 0
2, 30960, Note_on_c, 0, 75, 52
2, 31200, Note_on_c, 0, 63, 31
2, 31440, Note_on_c, 0, 63, 0
2, 31440, Note_on_c, 0, 75, 0
2, 31440, Note_on_c, 0, 66, 27
2, 31440, Note_on_c, 0, 69, 48
2, 31680, Note_on_c, 0, 69, 0
2, 31680, Note_on_c, 0, 66, 0
2, 31680, Note_on_c, 0, 75, 58
2, 31920, Note_on_c, 0, 63, 31
2, 32160, Note_on_c, 0, 63, 0
2, 32160, Note_on_c, 0, 66, 46
2, 32160, Note_on_c, 0, 69, 46
2, 32400, Note_on_c, 0, 69, 0
2, 32400, Note_on_c, 0, 66, 0
2, 32640, Note_on_c, 0, 63, 31
2, 32880, Note_on_c, 0, 63, 0
2, 32880, Note_on_c, 0, 75, 0
2, 32880, Note_on_c, 0, 69, 31
2, 32880, Note_on_c, 0, 74, 52
2, 33120, Note_on_c, 0, 74, 0
2, 33120, Note_on_c, 0, 69, 0
2, 33120, Note_on_c, 0, 72, 55
2, 33360, Note_on_c, 0, 62, 31
2, 33600, Note_on_c, 0, 62, 0
2, 33600, Note_on_c, 0, 72, 0
2, 33600, Note_on_c, 0, 67, 31
2, 33600, Note_on_c, 0, 70, 44
2, 33837, Note_on_c, 0, 69, 31
2, 33840, Note_on_c, 0, 70, 0
2, 33840, Note_on_c, 0, 67, 0
2, 34077, Note_on_c, 0, 69, 0
2, 34080, Note_on_c, 0, 61, 31
2, 34080, Note_on_c, 0, 70, 31
2, 34320, Note_on_c, 0, 70, 0
2, 34320, Note_on_c, 0, 61, 0
2, 34320, Note_on_c, 0, 67, 44
2, 34560, Note_on_c, 0, 67, 0
2, 34560, Note_on_c, 0, 62, 44
2, 34560, Note_on_c, 0, 66, 44
2, 34560, Note_on_c, 0, 69, 44
2, 34560, Note_on_c, 0, 74, 55
2, 34800, Note_on_c, 0, 74, 0
2, 34800, Note_on_c, 0, 62, 0
2, 34800, Note_on_c, 0, 66, 0
2, 34800, Note_on_c, 0, 69, 0
2, 34800, Note_on_c, 0, 74, 55
2, 34980, Note_on_c, 0, 74, 0
2, 35040, Note_on_c, 0, 74, 61
2, 35220, Note_on_c, 0, 74, 0
2, 35280, Note_on_c, 0, 74, 71
2, 35460, Note_on_c, 0, 74, 0
2, 35520, Note_on_c, 0, 74, 68
2, 35700, Note_on_c, 0, 74, 0
2, 35760, Note_on_c, 0, 74, 63
2, 35940, Note_on_c, 0, 74, 0
2, 36000, Note_on_c, 0, 74, 63
2, 36216, Note_on_c, 0, 74, 0
2, 36240, Note_on_c, 0, 62, 38
2, 36240, Note_on_c, 0, 67, 38
2, 36240, Note_on_c, 0, 70, 55
2, 36456, Note_on_c, 0, 70, 0
2, 36456, Note_on_c, 0, 67, 0
2, 36456, Note_on_c, 0, 62, 0
2, 36480, Note_on_c, 0, 66, 42
2, 36480, Note_on_c, 0, 72, 42
2, 36480, Note_on_c, 0, 75, 60
2, 36696, Note_on_c, 0, 75, 0
2, 36696, Note_on_c, 0, 72, 0
2, 36696, Note_on_c, 0, 66, 0
2, 36720, Note_on_c, 0, 74, 63
2, 36960, Note_on_c, 0, 67, 42
2, 36960, Note_on_c, 0, 70, 42
2, 37176, Note_on_c, 0, 70, 0
2, 37176, Note_on_c, 0, 67, 0
2, 37200, Note_on_c, 0, 74, 0
2, 37200, Note_on_c, 0, 70, 42
2, 37200, Note_on_c, 0, 74, 42
2, 37200, Note_on_c, 0, 79, 61
2, 37416, Note_on_c, 0, 79, 0
2, 37416, Note_on_c, 0, 74, 0
2, 37416, Note_on_c, 0, 70, 0
2, 37440, Note_on_c, 0, 74, 64
2, 37656, Note_on_c, 0, 74, 0
2, 37680, Note_on_c, 0, 62, 38
2, 37680, Note_on_c, 0, 67, 38
2, 37680, Note_on_c, 0, 70, 55
2, 37896, Note_on_c, 0, 70, 0
2, 37896, Note_on_c, 0, 67, 0
2, 37896, Note_on_c, 0, 62, 0
2, 37920, Note_on_c, 0, 66, 43
2, 37920, Note_on_c, 0, 72, 43
2, 37920, Note_on_c, 0, 75, 62
2, 38136, Note_on_c, 0, 75, 0
2, 38136, Note_on_c, 0, 72, 0
2, 38136, Note_on_c, 0, 66, 0
2, 38160, Note_on_c, 0, 74, 65
2, 38400, Note_on_c, 0, 67, 42
2, 38400, Note_on_c, 0, 70, 42
2, 38616, Note_on_c, 0, 70, 0
2, 38616, Note_on_c, 0, 67, 0
2, 38640, Note_on_c, 0, 74, 0
2, 38640, Note_on_c, 0, 70, 42
2, 38640, Note_on_c, 0, 74, 42
2, 38640, Note_on_c, 0, 79, 59
2, 38856, Note_on_c, 0, 79, 0
2, 38856, Note_on_c, 0, 74, 0
2, 38856, Note_on_c, 0, 70, 0
2, 38880, Note_on_c, 0, 74, 65
2, 39096, Note_on_c, 0, 74, 0
2, 39120, Note_on_c, 0, 62, 38
2, 39120, Note_on_c, 0, 67, 38
2, 39120, Note_on_c, 0, 72, 55
2, 39336, Note_on_c, 0, 72, 0
2, 39336, Note_on_c, 0, 67, 0
2, 39336, Note_on_c, 0, 62, 0
2, 39360, Note_on_c, 0, 62, 38
2, 39360, Note_on_c, 0, 67, 38
2, 39360, Note_on_c, 0, 70, 55
2, 39576, Note_on_c, 0, 70, 0
2, 39576, Note_on_c, 0, 67, 0
2, 39576, Note_on_c, 0, 62, 0
2, 39600, Note_on_c, 0, 69, 61
2, 39840, Note_on_c, 0, 63, 42
2, 39840, Note_on_c, 0, 67, 42
2, 40056, Note_on_c, 0, 67, 0
2, 40056, Note_on_c, 0, 63, 0
2, 40080, Note_on_c, 0, 69, 0
2, 40080, Note_on_c, 0, 63, 42
2, 40080, Note_on_c, 0, 67, 42
2, 40080, Note_on_c, 0, 69, 55
2, 40296, Note_on_c, 0, 69, 0
2, 40296, Note_on_c, 0, 67, 0
2, 40296, Note_on_c, 0, 63, 0
2, 40320, Note_on_c, 0, 74, 63
2, 40560, Note_on_c, 0, 62, 42
2, 40560, Note_on_c, 0, 66, 42
2, 40776, Note_on_c, 0, 66, 0
2, 40776, Note_on_c, 0, 62, 0
2, 40800, Note_on_c, 0, 74, 0
2, 40800, Note_on_c, 0, 62, 42
2, 40800, Note_on_c, 0, 66, 42
2, 40800, Note_on_c, 0, 69, 55
2, 41016, Note_on_c, 0, 69, 0
2, 41016, Note_on_c, 0, 66, 0
2, 41016, Note_on_c, 0, 62, 0
2, 41040, Note_on_c, 0, 72, 63
2, 41280, Note_on_c, 0, 62, 42
2, 41280, Note_on_c, 0, 69, 42
2, 41496, Note_on_c, 0, 69, 0
2, 41496, Note_on_c, 0, 62, 0
2, 41520, Note_on_c, 0, 72, 0
2, 41520, Note_on_c, 0, 62, 42
2, 41520, Note_on_c, 0, 67, 42
2, 41520, Note_on_c, 0, 70, 55
2, 41736, Note_on_c, 0, 70, 0
2, 41736, Note_on_c, 0, 67, 0
2, 41736, Note_on_c, 0, 62, 0
2, 41760, Note_on_c, 0, 74, 63
2, 41976, Note_on_c, 0, 74, 0
2, 42000, Note_on_c, 0, 62, 38
2, 42000, Note_on_c, 0, 67, 38
2, 42000, Note_on_c, 0, 70, 55
2, 42216, Note_on_c, 0, 70, 0
2, 42216, Note_on_c, 0, 67, 0
2, 42216, Note_on_c, 0, 62, 0
2, 42240, Note_on_c, 0, 66, 42
2, 42240, Note_on_c, 0, 72, 42
2, 42240, Note_on_c, 0, 75, 60
2, 42456, Note_on_c, 0, 75, 0
2, 42456, Note_on_c, 0, 72, 0
2, 42456, Note_on_c, 0, 66, 0
2, 42480, Note_on_c, 0, 74, 64
2, 42720, Note_on_c, 0, 67, 42
2, 42720, Note_on_c, 0, 70, 42
2, 42936, Note_on_c, 0, 70, 0
2, 42936, Note_on_c, 0, 67, 0
2, 42960, Note_on_c, 0, 74, 0
2, 42960, Note_on_c, 0, 70, 42
2, 42960, Note_on_c, 0, 74, 42
2, 42960, Note_on_c, 0, 79, 58
2, 43176, Note_on_c, 0, 79, 0
2, 43176, Note_on_c, 0, 74, 0
2, 43176, Note_on_c, 0, 70, 0
2, 43200, Note_on_c, 0, 74, 65
2, 43416, Note_on_c, 0, 74, 0
2, 43440, Note_on_c, 0, 62, 40
2, 43440, Note_on_c, 0, 67, 40
2, 43440, Note_on_c, 0, 70, 40
2, 43656, Note_on_c, 0, 70, 0
2, 43656, Note_on_c, 0, 67, 0
2, 43656, Note_on_c, 0, 62, 0
2, 43680, Note_on_c, 0, 66, 43
2, 43680, Note_on_c, 0, 72, 43
2, 43680, Note_on_c, 0, 75, 62
2, 43896, Note_on_c, 0, 75, 0
2, 43896, Note_on_c, 0, 72, 0
2, 43896, Note_on_c, 0, 66, 0
2, 43920, Note_on_c, 0, 74, 65
2, 44160, Note_on_c, 0, 67, 40
2, 44160, Note_on_c, 0, 71, 40
2, 44376, Note_on_c, 0, 71, 0
2, 44376, Note_on_c, 0, 67, 0
2, 44376, Note_on_c, 0, 74, 0
2, 44400, Note_on_c, 0, 71, 57
2, 44400, Note_on_c, 0, 74, 57
2, 44400, Note_on_c, 0, 77, 57
2, 44400, Note_on_c, 0, 79, 82
2, 44640, Note_on_c, 0, 77, 0
2, 44640, Note_on_c, 0, 71, 0
2, 44640, Note_on_c, 0, 74, 0
2, 44640, Note_on_c, 0, 72, 57
2, 44640, Note_on_c, 0, 75, 57
2, 44880, Note_on_c, 0, 75, 0
2, 44880, Note_on_c, 0, 72, 0
2, 44880, Note_on_c, 0, 79, 0
2, 44880, Note_on_c, 0, 79, 72
2, 45096, Note_on_c, 0, 79, 0
2, 45120, Note_on_c, 0, 75, 71
2, 45336, Note_on_c, 0, 75, 0
2, 45360, Note_on_c, 0, 74, 69
2, 45576, Note_on_c, 0, 74, 0
2, 45600, Note_on_c, 0, 75, 66
2, 45816, Note_on_c, 0, 75, 0
2, 45840, Note_on_c, 0, 72, 59
2, 46056, Note_on_c, 0, 72, 0
2, 46080, Note_on_c, 0, 70, 64
2, 46296, Note_on_c, 0, 70, 0
2, 46320, Note_on_c, 0, 67, 45
2, 46320, Note_on_c, 0, 72, 54
2, 46536, Note_on_c, 0, 72, 0
2, 46536, Note_on_c, 0, 67, 0
2, 46560, Note_on_c, 0, 63, 47
2, 46560, Note_on_c, 0, 69, 56
2, 46776, Note_on_c, 0, 69, 0
2, 46776, Note_on_c, 0, 63, 0
2, 46800, Note_on_c, 0, 67, 54
2, 47016, Note_on_c, 0, 67, 0
2, 47040, Note_on_c, 0, 69, 49
2, 47256, Note_on_c, 0, 69, 0
2, 47280, Note_on_c, 0, 60, 41
2, 47280, Note_on_c, 0, 62, 41
2, 47280, Note_on_c, 0, 66, 49
2, 47496, Note_on_c, 0, 66, 0
2, 47496, Note_on_c, 0, 62, 0
2, 47496, Note_on_c, 0, 60, 0
2, 47520, Note_on_c, 0, 58, 49
2, 47520, Note_on_c, 0, 62, 49
2, 47520, Note_on_c, 0, 67, 58
2, 47760, Note_on_c, 0, 67, 0
2, 47760, Note_on_c, 0, 62, 0
2, 47760, Note_on_c, 0, 58, 0
2, 48720, Note_on_c, 0, 74, 53
2, 48720, Note_on_c, 0, 70, 45
2, 48960, Note_on_c, 0, 70, 0
2, 48960, Note_on_c, 0, 74, 0
2, 48960, Note_on_c, 0, 72, 61
2, 48960, Note_on_c, 0, 69, 51
2, 49440, Note_on_c, 0, 69, 0
2, 49440, Note_on_c, 0, 72, 0
2, 49440, Note_on_c, 0, 67, 42
2, 49440, Note_on_c, 0, 70, 50
2, 49680, Note_on_c, 0, 70, 0
2, 49680, Note_on_c, 0, 67, 0
2, 49680, Note_on_c, 0, 69, 55
2, 49680, Note_on_c, 0, 66, 46
2, 50160, Note_on_c, 0, 66, 0
2, 50160, Note_on_c, 0, 69, 0
2, 50160, Note_on_c, 0, 72, 53
2, 50160, Note_on_c, 0, 63, 45
2, 50400, Note_on_c, 0, 63, 0
2, 50400, Note_on_c, 0, 72, 0
2, 50400, Note_on_c, 0, 70, 61
2, 50400, Note_on_c, 0, 62, 51
2, 50880, Note_on_c, 0, 62, 0
2, 50880, Note_on_c, 0, 70, 0
2, 50880, Note_on_c, 0, 74, 42
2, 50880, Note_on_c, 0, 86, 50
2, 51096, Note_on_c, 0, 86, 0
2, 51096, Note_on_c, 0, 74, 0
2, 51120, Note_on_c, 0, 86, 55
2, 51120, Note_on_c, 0, 74, 46
2, 51600, Note_on_c, 0, 74, 0
2, 51600, Note_on_c, 0, 86, 0
2, 51600, Note_on_c, 0, 70, 47
2, 51600, Note_on_c, 0, 62, 40
2, 51840, Note_on_c, 0, 62, 0
2, 51840, Note_on_c, 0, 70, 0
2, 51840, Note_on_c, 0, 69, 53
2, 51840, Note_on_c, 0, 60, 44
2, 52320, Note_on_c, 0, 60, 0
2, 52320, Note_on_c, 0, 69, 0
2, 52320, Note_on_c, 0, 58, 35
2, 52320, Note_on_c, 0, 67, 42
2, 52560, Note_on_c, 0, 67, 0
2, 52560, Note_on_c, 0, 58, 0
2, 52560, Note_on_c, 0, 66, 45
2, 52560, Note_on_c, 0, 57, 37
2, 53040, Note_on_c, 0, 57, 0
2, 53040, Note_on_c, 0, 66, 0
2, 53040, Note_on_c, 0, 69, 41
2, 53040, Note_on_c, 0, 66, 35
2, 53280, Note_on_c, 0, 66, 0
2, 53280, Note_on_c, 0, 69, 0
2, 53280, Note_on_c, 0, 67, 42
2, 53280, Note_on_c, 0, 62, 35
2, 53760, Note_on_c, 0, 62, 0
2, 53760, Note_on_c, 0, 67, 0
2, 53760, Note_on_c, 0, 74, 29
2, 53760, Note_on_c, 0, 86, 35
2, 53976, Note_on_c, 0, 86, 0
2, 53976, Note_on_c, 0, 74, 0
2, 54000, Note_on_c, 0, 86, 38
2, 54000, Note_on_c, 0, 74, 32
2, 54480, Note_on_c, 0, 74, 0
2, 54480, Note_on_c, 0, 86, 0
2, 54480, Note_on_c, 0, 70, 37
2, 54480, Note_on_c, 0, 62, 31
2, 54720, Note_on_c, 0, 62, 0
2, 54720, Note_on_c, 0, 70, 0
2, 54720, Note_on_c, 0, 67, 42
2, 55200, Note_on_c, 0, 67, 0
2, 55200, Note_on_c, 0, 74, 29
2, 55200, Note_on_c, 0, 86, 35
2, 55416, Note_on_c, 0, 86, 0
2, 55416, Note_on_c, 0, 74, 0
2, 55440, Note_on_c, 0, 86, 38
2, 55440, Note_on_c, 0, 74, 32
2, 55920, Note_on_c, 0, 74, 0
2, 55920, Note_on_c, 0, 86, 0
2, 56880, Note_on_c, 0, 65, 37
2, 58320, Note_on_c, 0, 65, 0
2, 58320, Note_on_c, 0, 63, 37
2, 59040, Note_on_c, 0, 63, 0
2, 59040, Note_on_c, 0, 62, 37
2, 60240, Note_on_c, 0, 62, 0
2, 62640, Note_on_c, 0, 62, 37
2, 63600, Note_on_c, 0, 62, 0
2, 64080, Note_on_c, 0, 62, 37
2, 65040, Note_on_c, 0, 62, 0
2, 65040, End_track
3, 0, Start_track
3, 0, Title_t, "Piano left"
3, 0, Program_c, 0, 0
3, 0, Note_on_c, 0, 43, 36
3, 240, Note_on_c, 0, 58, 28
3, 240, Note_on_c, 0, 55, 24
3, 480, Note_on_c, 0, 55, 0
3, 480, Note_on_c, 0, 58, 0
3, 480, Note_on_c, 0, 43, 0
3, 480, Note_on_c, 0, 50, 28
3, 720, Note_on_c, 0, 50, 0
3, 720, Note_on_c, 0, 43, 36
3, 960, Note_on_c, 0, 58, 30
3, 960, Note_on_c, 0, 55, 25
3, 1200, Note_on_c, 0, 55, 0
3, 1200, Note_on_c, 0, 58, 0
3, 1200, Note_on_c, 0, 43, 0
3, 1200, Note_on_c, 0, 50, 30
3, 1440, Note_on_c, 0, 50, 0
3, 1440, Note_on_c, 0, 43, 36
3, 1680, Note_on_c, 0, 58, 28
3, 1680, Note_on_c, 0, 55, 24
3, 1920, Note_on_c, 0, 55, 0
3, 1920, Note_on_c, 0, 58, 0
3, 1920, Note_on_c, 0, 43, 0
3, 1920, Note_on_c, 0, 50, 28
3, 2160, Note_on_c, 0, 50, 0
3, 2160, Note_on_c, 0, 43, 36
3, 2400, Note_on_c, 0, 57, 25
3, 2400, Note_on_c, 0, 60, 30
3, 2400, Note_on_c, 0, 55, 25
3, 2640, Note_on_c, 0, 55, 0
3, 2640, Note_on_c, 0, 43, 0
3, 2640, Note_on_c, 0, 57, 0
3, 2640, Note_on_c, 0, 60, 0
3, 2640, Note_on_c, 0, 51, 30
3, 2880, Note_on_c, 0, 51, 0
3, 2880, Note_on_c, 0, 31, 30
3, 2880, Note_on_c, 0, 43, 36
3, 3120, Note_on_c, 0, 55, 26
3, 3120, Note_on_c, 0, 58, 31
3, 3360, Note_on_c, 0, 58, 0
3, 3360, Note_on_c, 0, 31, 0
3, 3360, Note_on_c, 0, 43, 0
3, 3360, Note_on_c, 0, 55, 0
3, 3360, Note_on_c, 0, 50, 36
3, 3600, Note_on_c, 0, 50, 0
3, 3600, Note_on_c, 0, 41, 44
3, 3600, Note_on_c, 0, 29, 36
3, 3840, Note_on_c, 0, 57, 29
3, 3840, Note_on_c, 0, 60, 35
3, 4080, Note_on_c, 0, 60, 0
3, 4080, Note_on_c, 0, 41, 0
3, 4080, Note_on_c, 0, 29, 0
3, 4080, Note_on_c, 0, 57, 0
3, 4080, Note_on_c, 0, 53, 30
3, 4320, Note_on_c, 0, 53, 0
3, 4320, Note_on_c, 0, 31, 30
3, 4320, Note_on_c, 0, 43, 36
3, 4560, Note_on_c, 0, 62, 28
3, 4560, Note_on_c, 0, 58, 24
3, 4800, Note_on_c, 0, 58, 0
3, 4800, Note_on_c, 0, 31, 0
3, 4800, Note_on_c, 0, 43, 0
3, 4800, Note_on_c, 0, 62, 0
3, 4800, Note_on_c, 0, 53, 28
3, 5040, Note_on_c, 0, 53, 0
3, 5040, Note_on_c, 0, 36, 30
3, 5040, Note_on_c, 0, 48, 36
3, 5280, Note_on_c, 0, 60, 30
3, 5280, Note_on_c, 0, 55, 25
3, 5520, Note_on_c, 0, 55, 0
3, 5520, Note_on_c, 0, 36, 0
3, 5520, Note_on_c, 0, 48, 0
3, 5520, Note_on_c, 0, 60, 0
3, 5520, Note_on_c, 0, 51, 30
3, 5760, Note_on_c, 0, 51, 0
3, 5760, Note_on_c, 0, 38, 36
3, 6000, Note_on_c, 0, 58, 28
3, 6000, Note_on_c, 0, 55, 24
3, 6240, Note_on_c, 0, 55, 0
3, 6240, Note_on_c, 0, 58, 0
3, 6240, Note_on_c, 0, 38, 0
3, 6240, Note_on_c, 0, 50, 28
3, 6480, Note_on_c, 0, 50, 0
3, 6480, Note_on_c, 0, 38, 36
3, 6720, Note_on_c, 0, 58, 30
3, 6720, Note_on_c, 0, 55, 30
3, 6960, Note_on_c, 0, 55, 0
3, 6960, Note_on_c, 0, 58, 0
3, 6960, Note_on_c, 0, 38, 0
3, 6960, Note_on_c, 0, 50, 30
3, 7200, Note_on_c, 0, 50, 0
3, 7200, Note_on_c, 0, 38, 36
3, 7440, Note_on_c, 0, 60, 28
3, 7440, Note_on_c, 0, 57, 24
3, 7680, Note_on_c, 0, 57, 0
3, 7680, Note_on_c, 0, 60, 0
3, 7680, Note_on_c, 0, 38, 0
3, 7680, Note_on_c, 0, 50, 28
3, 7920, Note_on_c, 0, 50, 0
3, 7920, Note_on_c, 0, 38, 36
3, 8160, Note_on_c, 0, 57, 30
3, 8160, Note_on_c, 0, 54, 25
3, 8400, Note_on_c, 0, 54, 0
3, 8400, Note_on_c, 0, 57, 0
3, 8400, Note_on_c, 0, 38, 0
3, 8400, Note_on_c, 0, 50, 30
3, 8640, Note_on_c, 0, 50, 0
3, 8640, Note_on_c, 0, 43, 36
3, 8820, Note_on_c, 0, 43, 0
3, 8880, Note_on_c, 0, 58, 28
3, 8880, Note_on_c, 0, 55, 24
3, 9120, Note_on_c, 0, 55, 0
3, 9120, Note_on_c, 0, 58, 0
3, 9120, Note_on_c, 0, 50, 28
3, 9360, Note_on_c, 0, 50, 0
3, 9360, Note_on_c, 0, 43, 36
3, 9540, Note_on_c, 0, 43, 0
3, 9600, Note_on_c, 0, 58, 30
3, 9600, Note_on_c, 0, 55, 25
3, 9840, Note_on_c, 0, 55, 0
3, 9840, Note_on_c, 0, 58, 0
3, 9840, Note_on_c, 0, 50, 30
3, 10080, Note_on_c, 0, 50, 0
3, 10080, Note_on_c, 0, 43, 36
3, 10260, Note_on_c, 0, 43, 0
3, 10320, Note_on_c, 0, 60, 28
3, 10320, Note_on_c, 0, 57, 24
3, 10560, Note_on_c, 0, 57, 0
3, 10560, Note_on_c, 0, 60, 0
3, 10560, Note_on_c, 0, 50, 28
3, 10800, Note_on_c, 0, 50, 0
3, 10800, Note_on_c, 0, 43, 36
3, 10980, Note_on_c, 0, 43, 0
3, 11040, Note_on_c, 0, 60, 30
3, 11040, Note_on_c, 0, 57, 25
3, 11280, Note_on_c, 0, 57, 0
3, 11280, Note_on_c, 0, 60, 0
3, 11280, Note_on_c, 0, 50, 30
3, 11520, Note_on_c, 0, 50, 0
3, 11520, Note_on_c, 0, 43, 36
3, 11700, Note_on_c, 0, 43, 0
3, 11760, Note_on_c, 0, 58, 28
3, 11760, Note_on_c, 0, 55, 24
3, 12000, Note_on_c, 0, 55, 0
3, 12000, Note_on_c, 0, 58, 0
3, 12000, Note_on_c, 0, 50, 28
3, 12240, Note_on_c, 0, 50, 0
3, 12240, Note_on_c, 0, 43, 36
3, 12420, Note_on_c, 0, 43, 0
3, 12480, Note_on_c, 0, 55, 30
3, 12720, Note_on_c, 0, 55, 0
3, 12720, Note_on_c, 0, 50, 30
3, 12960, Note_on_c, 0, 50, 0
3, 12960, Note_on_c, 0, 43, 36
3, 13140, Note_on_c, 0, 43, 0
3, 13200, Note_on_c, 0, 55, 28
3, 13440, Note_on_c, 0, 55, 0
3, 13440, Note_on_c, 0, 51, 28
3, 13680, Note_on_c, 0, 51, 0
3, 13680, Note_on_c, 0, 43, 36
3, 13860, Note_on_c, 0, 43, 0
3, 13920, Note_on_c, 0, 60, 30
3, 13920, Note_on_c, 0, 55, 25
3, 14160, Note_on_c, 0, 55, 0
3, 14160, Note_on_c, 0, 60, 0
3, 14160, Note_on_c, 0, 51, 30
3, 14400, Note_on_c, 0, 51, 0
3, 14400, Note_on_c, 0, 43, 36
3, 14580, Note_on_c, 0, 43, 0
3, 14640, Note_on_c, 0, 58, 28
3, 14640, Note_on_c, 0, 55, 24
3, 14880, Note_on_c, 0, 55, 0
3, 14880, Note_on_c, 0, 58, 0
3, 14880, Note_on_c, 0, 50, 28
3, 15120, Note_on_c, 0, 50, 0
3, 15120, Note_on_c, 0, 43, 36
3, 15300, Note_on_c, 0, 43, 0
3, 15360, Note_on_c, 0, 58, 30
3, 15360, Note_on_c, 0, 55, 25
3, 15600, Note_on_c, 0, 55, 0
3, 15600, Note_on_c, 0, 58, 0
3, 15600, Note_on_c, 0, 50, 30
3, 15840, Note_on_c, 0, 50, 0
3, 15840, Note_on_c, 0, 43, 36
3, 16020, Note_on_c, 0, 43, 0
3, 16080, Note_on_c, 0, 60, 28
3, 16080, Note_on_c, 0, 57, 24
3, 16320, Note_on_c, 0, 57, 0
3, 16320, Note_on_c, 0, 60, 0
3, 16320, Note_on_c, 0, 50, 28
3, 16560, Note_on_c, 0, 50, 0
3, 16560, Note_on_c, 0, 43, 36
3, 16740, Note_on_c, 0, 43, 0
3, 16800, Note_on_c, 0, 60, 30
3, 16800, Note_on_c, 0, 57, 25
3, 17040, Note_on_c, 0, 57, 0
3, 17040, Note_on_c, 0, 60, 0
3, 17040, Note_on_c, 0, 50, 30
3, 17280, Note_on_c, 0, 50, 0
3, 17280, Note_on_c, 0, 43, 36
3, 17460, Note_on_c, 0, 43, 0
3, 17520, Note_on_c, 0, 58, 28
3, 17520, Note_on_c, 0, 55, 24
3, 17760, Note_on_c, 0, 55, 0
3, 17760, Note_on_c, 0, 58, 0
3, 17760, Note_on_c, 0, 50, 28
3, 18000, Note_on_c, 0, 50, 0
3, 18000, Note_on_c, 0, 43, 36
3, 18180, Note_on_c, 0, 43, 0
3, 18240, Note_on_c, 0, 55, 33
3, 18480, Note_on_c, 0, 55, 0
3, 18480, Note_on_c, 0, 50, 35
3, 18720, Note_on_c, 0, 50, 0
3, 18720, Note_on_c, 0, 43, 50
3, 18900, Note_on_c, 0, 43, 0
3, 18960, Note_on_c, 0, 62, 40
3, 18960, Note_on_c, 0, 58, 40
3, 19200, Note_on_c, 0, 58, 0
3, 19200, Note_on_c, 0, 62, 0
3, 19200, Note_on_c, 0, 55, 47
3, 19440, Note_on_c, 0, 55, 0
3, 19440, Note_on_c, 0, 43, 49
3, 19620, Note_on_c, 0, 43, 0
3, 19680, Note_on_c, 0, 61, 45
3, 19680, Note_on_c, 0, 58, 45
3, 19920, Note_on_c, 0, 58, 0
3, 19920, Note_on_c, 0, 61, 0
3, 19920, Note_on_c, 0, 55, 47
3, 20160, Note_on_c, 0, 55, 0
3, 20160, Note_on_c, 0, 41, 55
3, 20340, Note_on_c, 0, 41, 0
3, 20400, Note_on_c, 0, 57, 34
3, 20400, Note_on_c, 0, 62, 41
3, 20640, Note_on_c, 0, 62, 0
3, 20640, Note_on_c, 0, 57, 0
3, 20640, Note_on_c, 0, 53, 34
3, 20880, Note_on_c, 0, 53, 0
3, 20880, Note_on_c, 0, 41, 40
3, 21060, Note_on_c, 0, 41, 0
3, 21120, Note_on_c, 0, 57, 33
3, 21120, Note_on_c, 0, 62, 39
3, 21360, Note_on_c, 0, 62, 0
3, 21360, Note_on_c, 0, 57, 0
3, 21360, Note_on_c, 0, 53, 34
3, 21600, Note_on_c, 0, 53, 0
3, 21600, Note_on_c, 0, 43, 45
3, 21780, Note_on_c, 0, 43, 0
3, 21840, Note_on_c, 0, 58, 26
3, 21840, Note_on_c, 0, 62, 31
3, 22080, Note_on_c, 0, 62, 0
3, 22080, Note_on_c, 0, 58, 0
3, 22080, Note_on_c, 0, 55, 34
3, 22320, Note_on_c, 0, 55, 0
3, 22320, Note_on_c, 0, 43, 37
3, 22500, Note_on_c, 0, 43, 0
3, 22560, Note_on_c, 0, 61, 34
3, 22800, Note_on_c, 0, 61, 0
3, 22800, Note_on_c, 0, 57, 34
3, 23040, Note_on_c, 0, 57, 0
3, 23040, Note_on_c, 0, 53, 41
3, 23220, Note_on_c, 0, 53, 0
3, 23280, Note_on_c, 0, 62, 35
3, 23280, Note_on_c, 0, 57, 29
3, 23520, Note_on_c, 0, 57, 0
3, 23520, Note_on_c, 0, 62, 0
3, 23520, Note_on_c, 0, 53, 30
3, 23760, Note_on_c, 0, 53, 0
3, 23760, Note_on_c, 0, 53, 41
3, 23940, Note_on_c, 0, 53, 0
3, 24000, Note_on_c, 0, 62, 35
3, 24000, Note_on_c, 0, 57, 29
3, 24240, Note_on_c, 0, 57, 0
3, 24240, Note_on_c, 0, 62, 0
3, 24240, Note_on_c, 0, 53, 30
3, 24480, Note_on_c, 0, 53, 0
3, 24480, Note_on_c, 0, 43, 41
3, 24660, Note_on_c, 0, 43, 0
3, 24720, Note_on_c, 0, 59, 35
3, 24720, Note_on_c, 0, 55, 29
3, 24960, Note_on_c, 0, 55, 0
3, 24960, Note_on_c, 0, 59, 0
3, 24960, Note_on_c, 0, 50, 30
3, 25200, Note_on_c, 0, 50, 0
3, 25200, Note_on_c, 0, 43, 41
3, 25380, Note_on_c, 0, 43, 0
3, 25440, Note_on_c, 0, 59, 35
3, 25440, Note_on_c, 0, 55, 29
3, 25680, Note_on_c, 0, 55, 0
3, 25680, Note_on_c, 0, 59, 0
3, 25680, Note_on_c, 0, 50, 30
3, 25920, Note_on_c, 0, 50, 0
3, 25920, Note_on_c, 0, 36, 51
3, 26100, Note_on_c, 0, 36, 0
3, 26160, Note_on_c, 0, 55, 32
3, 26400, Note_on_c, 0, 55, 0
3, 26400, Note_on_c, 0, 51, 30
3, 26640, Note_on_c, 0, 51, 0
3, 26640, Note_on_c, 0, 48, 41
3, 26820, Note_on_c, 0, 48, 0
3, 26880, Note_on_c, 0, 56, 35
3, 26880, Note_on_c, 0, 53, 29
3, 27120, Note_on_c, 0, 53, 0
3, 27120, Note_on_c, 0, 56, 0
3, 27120, Note_on_c, 0, 50, 30
3, 27360, Note_on_c, 0, 50, 0
3, 27360, Note_on_c, 0, 36, 43
3, 27540, Note_on_c, 0, 36, 0
3, 27600, Note_on_c, 0, 55, 29
3, 27840, Note_on_c, 0, 55, 0
3, 27840, Note_on_c, 0, 51, 30
3, 28080, Note_on_c, 0, 51, 0
3, 28080, Note_on_c, 0, 48, 41
3, 28260, Note_on_c, 0, 48, 0
3, 28320, Note_on_c, 0, 56, 32
3, 28320, Note_on_c, 0, 53, 27
3, 28560, Note_on_c, 0, 53, 0
3, 28560, Note_on_c, 0, 56, 0
3, 28560, Note_on_c, 0, 50, 30
3, 28800, Note_on_c, 0, 50, 0
3, 28800, Note_on_c, 0, 36, 41
3, 28980, Note_on_c, 0, 36, 0
3, 29040, Note_on_c, 0, 55, 35
3, 29040, Note_on_c, 0, 51, 29
3, 29280, Note_on_c, 0, 51, 0
3, 29280, Note_on_c, 0, 55, 0
3, 29280, Note_on_c, 0, 48, 30
3, 29520, Note_on_c, 0, 48, 0
3, 29520, Note_on_c, 0, 36, 37
3, 29700, Note_on_c, 0, 36, 0
3, 29760, Note_on_c, 0, 51, 22
3, 29760, Note_on_c, 0, 55, 27
3, 30000, Note_on_c, 0, 55, 0
3, 30000, Note_on_c, 0, 51, 0
3, 30000, Note_on_c, 0, 48, 20
3, 30240, Note_on_c, 0, 48, 0
3, 30240, Note_on_c, 0, 42, 32
3, 30420, Note_on_c, 0, 42, 0
3, 30480, Note_on_c, 0, 57, 27
3, 30480, Note_on_c, 0, 51, 23
3, 30720, Note_on_c, 0, 51, 0
3, 30720, Note_on_c, 0, 57, 0
3, 30720, Note_on_c, 0, 48, 24
3, 30960, Note_on_c, 0, 48, 0
3, 30960, Note_on_c, 0, 42, 32
3, 31140, Note_on_c, 0, 42, 0
3, 31200, Note_on_c, 0, 57, 27
3, 31200, Note_on_c, 0, 51, 23
3, 31440, Note_on_c, 0, 51, 0
3, 31440, Note_on_c, 0, 57, 0
3, 31440, Note_on_c, 0, 48, 24
3, 31680, Note_on_c, 0, 48, 0
3, 31680, Note_on_c, 0, 42, 40
3, 31860, Note_on_c, 0, 42, 0
3, 31920, Note_on_c, 0, 51, 22
3, 31920, Note_on_c, 0, 57, 25
3, 32160, Note_on_c, 0, 57, 0
3, 32160, Note_on_c, 0, 51, 0
3, 32160, Note_on_c, 0, 48, 24
3, 32400, Note_on_c, 0, 48, 0
3, 32400, Note_on_c, 0, 42, 32
3, 32580, Note_on_c, 0, 42, 0
3, 32640, Note_on_c, 0, 57, 27
3, 32640, Note_on_c, 0, 51, 23
3, 32880, Note_on_c, 0, 51, 0
3, 32880, Note_on_c, 0, 57, 0
3, 32880, Note_on_c, 0, 48, 24
3, 33120, Note_on_c, 0, 48, 0
3, 33120, Note_on_c, 0, 43, 34
3, 33300, Note_on_c, 0, 43, 0
3, 33360, Note_on_c, 0, 50, 23
3, 33360, Note_on_c, 0, 55, 23
3, 33600, Note_on_c, 0, 55, 0
3, 33600, Note_on_c, 0, 50, 0
3, 33600, Note_on_c, 0, 46, 24
3, 33840, Note_on_c, 0, 46, 0
3, 33840, Note_on_c, 0, 39, 32
3, 34020, Note_on_c, 0, 39, 0
3, 34080, Note_on_c, 0, 58, 25
3, 34080, Note_on_c, 0, 55, 21
3, 34320, Note_on_c, 0, 55, 0
3, 34320, Note_on_c, 0, 58, 0
3, 34320, Note_on_c, 0, 51, 24
3, 34560, Note_on_c, 0, 51, 0
3, 34560, Note_on_c, 0, 38, 34
3, 35040, Note_on_c, 0, 38, 0
3, 36000, Note_on_c, 0, 31, 37
3, 36000, Note_on_c, 0, 43, 44
3, 36240, Note_on_c, 0, 43, 0
3, 36240, Note_on_c, 0, 31, 0
3, 37440, Note_on_c, 0, 31, 37
3, 37440, Note_on_c, 0, 43, 44
3, 37680, Note_on_c, 0, 43, 0
3, 37680, Note_on_c, 0, 31, 0
3, 38880, Note_on_c, 0, 34, 37
3, 38880, Note_on_c, 0, 46, 44
3, 39120, Note_on_c, 0, 46, 0
3, 39120, Note_on_c, 0, 34, 0
3, 39600, Note_on_c, 0, 36, 37
3, 39600, Note_on_c, 0, 48, 44
3, 39840, Note_on_c, 0, 48, 0
3, 39840, Note_on_c, 0, 36, 0
3, 40320, Note_on_c, 0, 38, 37
3, 40320, Note_on_c, 0, 50, 44
3, 40560, Note_on_c, 0, 50, 0
3, 40560, Note_on_c, 0, 38, 0
3, 41040, Note_on_c, 0, 43, 37
3, 41040, Note_on_c, 0, 55, 44
3, 41280, Note_on_c, 0, 55, 0
3, 41280, Note_on_c, 0, 43, 0
3, 41760, Note_on_c, 0, 31, 37
3, 41760, Note_on_c, 0, 43, 44
3, 42000, Note_on_c, 0, 43, 0
3, 42000, Note_on_c, 0, 31, 0
3, 43200, Note_on_c, 0, 43, 37
3, 43200, Note_on_c, 0, 55, 44
3, 43440, Note_on_c, 0, 55, 0
3, 43440, Note_on_c, 0, 43, 0
3, 44640, Note_on_c, 0, 36, 74
3, 44640, Note_on_c, 0, 48, 74
3, 44880, Note_on_c, 0, 48, 0
3, 44880, Note_on_c, 0, 36, 0
3, 45600, Note_on_c, 0, 67, 49
3, 45816, Note_on_c, 0, 67, 0
3, 45840, Note_on_c, 0, 63, 44
3, 46056, Note_on_c, 0, 63, 0
3, 46080, Note_on_c, 0, 62, 48
3, 46296, Note_on_c, 0, 62, 0
3, 46320, Note_on_c, 0, 63, 40
3, 46536, Note_on_c, 0, 63, 0
3, 46560, Note_on_c, 0, 60, 42
3, 46776, Note_on_c, 0, 60, 0
3, 46800, Note_on_c, 0, 62, 40
3, 47016, Note_on_c, 0, 62, 0
3, 47280, Note_on_c, 0, 50, 41
3, 47496, Note_on_c, 0, 50, 0
3, 47520, Note_on_c, 0, 43, 40
3, 47700, Note_on_c, 0, 43, 0
3, 47760, Note_on_c, 0, 58, 28
3, 47760, Note_on_c, 0, 55, 24
3, 48000, Note_on_c, 0, 55, 0
3, 48000, Note_on_c, 0, 58, 0
3, 48000, Note_on_c, 0, 50, 28
3, 48240, Note_on_c, 0, 50, 0
3, 48240, Note_on_c, 0, 43, 36
3, 48420, Note_on_c, 0, 43, 0
3, 48480, Note_on_c, 0, 58, 30
3, 48480, Note_on_c, 0, 55, 25
3, 48720, Note_on_c, 0, 55, 0
3, 48720, Note_on_c, 0, 58, 0
3, 48720, Note_on_c, 0, 50, 30
3, 48960, Note_on_c, 0, 50, 0
3, 48960, Note_on_c, 0, 43, 36
3, 49140, Note_on_c, 0, 43, 0
3, 49200, Note_on_c, 0, 60, 28
3, 49200, Note_on_c, 0, 57, 24
3, 49440, Note_on_c, 0, 57, 0
3, 49440, Note_on_c, 0, 60, 0
3, 49440, Note_on_c, 0, 50, 28
3, 49680, Note_on_c, 0, 50, 0
3, 49680, Note_on_c, 0, 43, 36
3, 49860, Note_on_c, 0, 43, 0
3, 49920, Note_on_c, 0, 60, 30
3, 49920, Note_on_c, 0, 57, 25
3, 50160, Note_on_c, 0, 57, 0
3, 50160, Note_on_c, 0, 60, 0
3, 50160, Note_on_c, 0, 50, 30
3, 50400, Note_on_c, 0, 50, 0
3, 50400, Note_on_c, 0, 43, 36
3, 50580, Note_on_c, 0, 43, 0
3, 50640, Note_on_c, 0, 58, 28
3, 50640, Note_on_c, 0, 55, 24
3, 50880, Note_on_c, 0, 55, 0
3, 50880, Note_on_c, 0, 58, 0
3, 50880, Note_on_c, 0, 50, 28
3, 51120, Note_on_c, 0, 50, 0
3, 51120, Note_on_c, 0, 43, 36
3, 51300, Note_on_c, 0, 43, 0
3, 51360, Note_on_c, 0, 58, 30
3, 51360, Note_on_c, 0, 55, 25
3, 51600, Note_on_c, 0, 55, 0
3, 51600, Note_on_c, 0, 58, 0
3, 51600, Note_on_c, 0, 50, 27
3, 51840, Note_on_c, 0, 50, 0
3, 51840, Note_on_c, 0, 43, 31
3, 52020, Note_on_c, 0, 43, 0
3, 52080, Note_on_c, 0, 55, 24
3, 52320, Note_on_c, 0, 55, 0
3, 52320, Note_on_c, 0, 50, 23
3, 52560, Note_on_c, 0, 50, 0
3, 52560, Note_on_c, 0, 43, 28
3, 52740, Note_on_c, 0, 43, 0
3, 52800, Note_on_c, 0, 62, 24
3, 52800, Note_on_c, 0, 60, 19
3, 53040, Note_on_c, 0, 60, 0
3, 53040, Note_on_c, 0, 62, 0
3, 53040, Note_on_c, 0, 50, 23
3, 53280, Note_on_c, 0, 50, 0
3, 53280, Note_on_c, 0, 43, 25
3, 53460, Note_on_c, 0, 43, 0
3, 53520, Note_on_c, 0, 58, 19
3, 53520, Note_on_c, 0, 55, 16
3, 53760, Note_on_c, 0, 55, 0
3, 53760, Note_on_c, 0, 58, 0
3, 53760, Note_on_c, 0, 50, 19
3, 54000, Note_on_c, 0, 50, 0
3, 54000, Note_on_c, 0, 43, 25
3, 54180, Note_on_c, 0, 43, 0
3, 54240, Note_on_c, 0, 58, 20
3, 54240, Note_on_c, 0, 55, 17
3, 54480, Note_on_c, 0, 55, 0
3, 54480, Note_on_c, 0, 58, 0
3, 54480, Note_on_c, 0, 50, 20
3, 54720, Note_on_c, 0, 50, 0
3, 54720, Note_on_c, 0, 43, 25
3, 54900, Note_on_c, 0, 43, 0
3, 54960, Note_on_c, 0, 58, 19
3, 54960, Note_on_c, 0, 55, 16
3, 55200, Note_on_c, 0, 55, 0
3, 55200, Note_on_c, 0, 58, 0
3, 55200, Note_on_c, 0, 50, 19
3, 55440, Note_on_c, 0, 50, 0
3, 55440, Note_on_c, 0, 43, 25
3, 55620, Note_on_c, 0, 43, 0
3, 55680, Note_on_c, 0, 58, 20
3, 55680, Note_on_c, 0, 55, 17
3, 55920, Note_on_c, 0, 55, 0
3, 55920, Note_on_c, 0, 58, 0
3, 55920, Note_on_c, 0, 50, 19
3, 56160, Note_on_c, 0, 50, 0
3, 56160, Note_on_c, 0, 43, 25
3, 56340, Note_on_c, 0, 43, 0
3, 56400, Note_on_c, 0, 58, 20
3, 56400, Note_on_c, 0, 55, 17
3, 56640, Note_on_c, 0, 55, 0
3, 56640, Note_on_c, 0, 58, 0
3, 56640, Note_on_c, 0, 50, 19
3, 56880, Note_on_c, 0, 50, 0
3, 56880, Note_on_c, 0, 29, 21
3, 56880, Note_on_c, 0, 41, 25
3, 57120, Note_on_c, 0, 60, 20
3, 57120, Note_on_c, 0, 57, 17
3, 57360, Note_on_c, 0, 57, 0
3, 57360, Note_on_c, 0, 29, 0
3, 57360, Note_on_c, 0, 41, 0
3, 57360, Note_on_c, 0, 60, 0
3, 57360, Note_on_c, 0, 53, 19
3, 57600, Note_on_c, 0, 53, 0
3, 57600, Note_on_c, 0, 34, 21
3, 57600, Note_on_c, 0, 46, 25
3, 57840, Note_on_c, 0, 62, 20
3, 57840, Note_on_c, 0, 58, 17
3, 58080, Note_on_c, 0, 58, 0
3, 58080, Note_on_c, 0, 34, 0
3, 58080, Note_on_c, 0, 46, 0
3, 58080, Note_on_c, 0, 62, 0
3, 58080, Note_on_c, 0, 53, 19
3, 58320, Note_on_c, 0, 53, 0
3, 58320, Note_on_c, 0, 36, 21
3, 58320, Note_on_c, 0, 48, 25
3, 58560, Note_on_c, 0, 60, 20
3, 58560, Note_on_c, 0, 55, 17
3, 58800, Note_on_c, 0, 55, 0
3, 58800, Note_on_c, 0, 36, 0
3, 58800, Note_on_c, 0, 48, 0
3, 58800, Note_on_c, 0, 60, 0
3, 58800, Note_on_c, 0, 51, 19
3, 59040, Note_on_c, 0, 51, 0
3, 59040, Note_on_c, 0, 38, 25
3, 59280, Note_on_c, 0, 58, 20
3, 59280, Note_on_c, 0, 55, 17
3, 59520, Note_on_c, 0, 55, 0
3, 59520, Note_on_c, 0, 58, 0
3, 59520, Note_on_c, 0, 38, 0
3, 59520, Note_on_c, 0, 50, 19
3, 59760, Note_on_c, 0, 50, 0
3, 59760, Note_on_c, 0, 38, 25
3, 60000, Note_on_c, 0, 55, 17
3, 60000, Note_on_c, 0, 58, 20
3, 60240, Note_on_c, 0, 58, 0
3, 60240, Note_on_c, 0, 55, 0
3, 60240, Note_on_c, 0, 38, 0
3, 60240, Note_on_c, 0, 50, 19
3, 60480, Note_on_c, 0, 50, 0
3, 60480, Note_on_c, 0, 38, 25
3, 60720, Note_on_c, 0, 60, 20
3, 60720, Note_on_c, 0, 57, 17
3, 60960, Note_on_c, 0, 57, 0
3, 60960, Note_on_c, 0, 60, 0
3, 60960, Note_on_c, 0, 38, 0
3, 60960, Note_on_c, 0, 50, 19
3, 61200, Note_on_c, 0, 50, 0
3, 61200, Note_on_c, 0, 38, 25
3, 61440, Note_on_c, 0, 57, 20
3, 61440, Note_on_c, 0, 54, 17
3, 61680, Note_on_c, 0, 54, 0
3, 61680, Note_on_c, 0, 57, 0
3, 61680, Note_on_c, 0, 38, 0
3, 61680, Note_on_c, 0, 50, 19
3, 61920, Note_on_c, 0, 50, 0
3, 61920, Note_on_c, 0, 31, 25
3, 62160, Note_on_c, 0, 58, 20
3, 62160, Note_on_c, 0, 55, 17
3, 62400, Note_on_c, 0, 55, 0
3, 62400, Note_on_c, 0, 58, 0
3, 62400, Note_on_c, 0, 31, 0
3, 62400, Note_on_c, 0, 50, 19
3, 62640, Note_on_c, 0, 50, 0
3, 63360, Note_on_c, 0, 31, 25
3, 63600, Note_on_c, 0, 58, 20
3, 63600, Note_on_c, 0, 55, 17
3, 63840, Note_on_c, 0, 55, 0
3, 63840, Note_on_c, 0, 58, 0
3, 63840, Note_on_c, 0, 31, 0
3, 63840, Note_on_c, 0, 50, 19
3, 64080, Note_on_c, 0, 50, 0
3, 64800, Note_on_c, 0, 31, 21
3, 66240, Note_on_c, 0, 31, 0
3, 66240, End_track
4, 0, Start_track
4, 0, Title_t, "Pedale"
4, 0, Program_c, 0, 0
4, 120, Control_c, 0, 64, 127
4, 2161, Control_c, 0, 64, 0
4, 2287, Control_c, 0, 64, 127
4, 2894, Control_c, 0, 64, 0
4, 3014, Control_c, 0, 64, 127
4, 3621, Control_c, 0, 64, 0
4, 3774, Control_c, 0, 64, 127
4, 4334, Control_c, 0, 64, 0
4, 4454, Control_c, 0, 64, 127
4, 5051, Control_c, 0, 64, 0
4, 5200, Control_c, 0, 64, 127
4, 5772, Control_c, 0, 64, 0
4, 5934, Control_c, 0, 64, 127
4, 7218, Control_c, 0, 64, 0
4, 7315, Control_c, 0, 64, 127
4, 8654, Control_c, 0, 64, 0
4, 8693, Control_c, 0, 64, 127
4, 10091, Control_c, 0, 64, 0
4, 10126, Control_c, 0, 64, 127
4, 10818, Control_c, 0, 64, 0
4, 10860, Control_c, 0, 64, 127
4, 11528, Control_c, 0, 64, 0
4, 11563, Control_c, 0, 64, 127
4, 12250, Control_c, 0, 64, 0
4, 12325, Control_c, 0, 64, 127
4, 12978, Control_c, 0, 64, 0
4, 13010, Control_c, 0, 64, 127
4, 13701, Control_c, 0, 64, 0
4, 13751, Control_c, 0, 64, 127
4, 13934, Control_c, 0, 64, 0
4, 13988, Control_c, 0, 64, 127
4, 14414, Control_c, 0, 64, 0
4, 14446, Control_c, 0, 64, 127
4, 15848, Control_c, 0, 64, 0
4, 15890, Control_c, 0, 64, 127
4, 16564, Control_c, 0, 64, 0
4, 16592, Control_c, 0, 64, 127
4, 17289, Control_c, 0, 64, 0
4, 17340, Control_c, 0, 64, 127
4, 18014, Control_c, 0, 64, 0
4, 18064, Control_c, 0, 64, 127
4, 18720, Control_c, 0, 64, 0
4, 18759, Control_c, 0, 64, 127
4, 18982, Control_c, 0, 64, 0
4, 19031, Control_c, 0, 64, 127
4, 19218, Control_c, 0, 64, 0
4, 19260, Control_c, 0, 64, 127
4, 19467, Control_c, 0, 64, 0
4, 19532, Control_c, 0, 64, 127
4, 19708, Control_c, 0, 64, 0
4, 19758, Control_c, 0, 64, 127
4, 19930, Control_c, 0, 64, 0
4, 19970, Control_c, 0, 64, 127
4, 20167, Control_c, 0, 64, 0
4, 20227, Control_c, 0, 64, 127
4, 21366, Control_c, 0, 64, 0
4, 21600, Control_c, 0, 64, 0
4, 21639, Control_c, 0, 64, 127
4, 21862, Control_c, 0, 64, 0
4, 21911, Control_c, 0, 64, 127
4, 22098, Control_c, 0, 64, 0
4, 22140, Control_c, 0, 64, 127
4, 22347, Control_c, 0, 64, 0
4, 22412, Control_c, 0, 64, 127
4, 22588, Control_c, 0, 64, 0
4, 22638, Control_c, 0, 64, 127
4, 22810, Control_c, 0, 64, 0
4, 22850, Control_c, 0, 64, 127
4, 23047, Control_c, 0, 64, 0
4, 23107, Control_c, 0, 64, 127
4, 24254, Control_c, 0, 64, 0
4, 24300, Control_c, 0, 64, 127
4, 24488, Control_c, 0, 64, 0
4, 24554, Control_c, 0, 64, 127
4, 25211, Control_c, 0, 64, 0
4, 25253, Control_c, 0, 64, 127
4, 25928, Control_c, 0, 64, 0
4, 25977, Control_c, 0, 64, 127
4, 26656, Control_c, 0, 64, 0
4, 26704, Control_c, 0, 64, 127
4, 27368, Control_c, 0, 64, 0
4, 27410, Control_c, 0, 64, 127
4, 28090, Control_c, 0, 64, 0
4, 28137, Control_c, 0, 64, 127
4, 28818, Control_c, 0, 64, 0
4, 28857, Control_c, 0, 64, 127
4, 30014, Control_c, 0, 64, 0
4, 30060, Control_c, 0, 64, 127
4, 30248, Control_c, 0, 64, 0
4, 30314, Control_c, 0, 64, 127
4, 30971, Control_c, 0, 64, 0
4, 31013, Control_c, 0, 64, 127
4, 31688, Control_c, 0, 64, 0
4, 31737, Control_c, 0, 64, 127
4, 32416, Control_c, 0, 64, 0
4, 32464, Control_c, 0, 64, 127
4, 33128, Control_c, 0, 64, 0
4, 33170, Control_c, 0, 64, 127
4, 33850, Control_c, 0, 64, 0
4, 33897, Control_c, 0, 64, 127
4, 34587, Control_c, 0, 64, 0
4, 36000, Control_c, 0, 64, 127
4, 36489, Control_c, 0, 64, 0
4, 36800, Control_c, 0, 64, 127
4, 37233, Control_c, 0, 64, 0
4, 37520, Control_c, 0, 64, 127
4, 37942, Control_c, 0, 64, 0
4, 38377, Control_c, 0, 64, 127
4, 38663, Control_c, 0, 64, 0
4, 40457, Control_c, 0, 64, 127
4, 41066, Control_c, 0, 64, 0
4, 41200, Control_c, 0, 64, 127
4, 41534, Control_c, 0, 64, 0
4, 41875, Control_c, 0, 64, 127
4, 42265, Control_c, 0, 64, 0
4, 42640, Control_c, 0, 64, 127
4, 42993, Control_c, 0, 64, 0
4, 43303, Control_c, 0, 64, 127
4, 43693, Control_c, 0, 64, 0
4, 44217, Control_c, 0, 64, 127
4, 44654, Control_c, 0, 64, 0
4, 47534, Control_c, 0, 64, 0
4, 47573, Control_c, 0, 64, 127
4, 48971, Control_c, 0, 64, 0
4, 49006, Control_c, 0, 64, 127
4, 49698, Control_c, 0, 64, 0
4, 49740, Control_c, 0, 64, 127
4, 50411, Control_c, 0, 64, 0
4, 50446, Control_c, 0, 64, 127
4, 51138, Control_c, 0, 64, 0
4, 51180, Control_c, 0, 64, 127
4, 51851, Control_c, 0, 64, 0
4, 51886, Control_c, 0, 64, 127
4, 52578, Control_c, 0, 64, 0
4, 52620, Control_c, 0, 64, 127
4, 53291, Control_c, 0, 64, 0
4, 53326, Control_c, 0, 64, 127
4, 54018, Control_c, 0, 64, 0
4, 54060, Control_c, 0, 64, 127
4, 54731, Control_c, 0, 64, 0
4, 54766, Control_c, 0, 64, 127
4, 55458, Control_c, 0, 64, 0
4, 55500, Control_c, 0, 64, 127
4, 56178, Control_c, 0, 64, 0
4, 56220, Control_c, 0, 64, 127
4, 56898, Control_c, 0, 64, 0
4, 56940, Control_c, 0, 64, 127
4, 57618, Control_c, 0, 64, 0
4, 57685, Control_c, 0, 64, 127
4, 58338, Control_c, 0, 64, 0
4, 58415, Control_c, 0, 64, 127
4, 59058, Control_c, 0, 64, 0
4, 59135, Control_c, 0, 64, 127
4, 60498, Control_c, 0, 64, 0
4, 60565, Control_c, 0, 64, 127
4, 61938, Control_c, 0, 64, 0
4, 62015, Control_c, 0, 64, 127
4, 66240, Control_c, 0, 64, 0
4, 66240, End_track
5, 0, Start_track
5, 0, Title_t, "Mendelssohn: Songs without words Opus 19 No. 6"
5, 0, End_track
6, 0, Start_track
6, 0, Title_t, "Copyright © 2010 by Bernd Krueger"
6, 0, End_track
7, 0, Start_track
7, 0, Title_t, "http://www.piano-midi.de/"
7, 0, End_track
8, 0, Start_track
8, 0, Title_t, "Edition: 2014-12-09"
8, 0, End_track
9, 0, Start_track
9, 0, Title_t, "Spur 8"
9, 0, End_track
10, 0, Start_track
10, 0, Title_t, "Spur 9"
10, 0, End_track
11, 0, Start_track
11, 0, Title_t, "Spur 10"
11, 0, End_track
12, 0, Start_track
12, 0, Title_t, "Spur 11"
12, 0, End_track
13, 0, Start_track
13, 0, Title_t, "Spur 12"
13, 0, End_track
14, 0, Start_track
14, 0, Title_t, "Spur 13"
14, 0, End_track
15, 0, Start_track
15, 0, Title_t, "Spur 14"
15, 0, End_track
16, 0, Start_track
16, 0, Title_t, "Spur 15"
16, 0, End_track
17, 0, Start_track
17, 0, Title_t, "Spur 16"
17, 0, End_track
0, 0, End_of_file
