0, 0, Header, 1, 17, 480
1, 0, Start_track
1, 0, Title_t, "Mendelssohn: Lieder ohne Worte Opus 30 Nr. 3"
1, 0, Copyright_t, "Copyright © 2015 by Bernd Krueger"
1, 0, Text_t, "Bernd Krueger"
1, 0, Text_t, "Adagio non troppo"
1, 0, Text_t, "Erstellt: 23.2.2015\012"
1, 0, Text_t, "Dauer:  1:44 Minuten\012"
1, 0, Time_signature, 4, 2, 24, 8
1, 0, Key_signature, 4, "major"
1, 0, Tempo, 971660
1, 2580, Tempo, 956938
1, 2610, Tempo, 964320
1, 2640, Tempo, 971660
1, 2670, Tempo, 979272
1, 2700, Tempo, 987004
1, 2730, Tempo, 994860
1, 2760, Tempo, 1002841
1, 2790, Tempo, 1010952
1, 2820, Tempo, 1019195
1, 2850, Tempo, 1035912
1, 3360, Tempo, 1090116
1, 3840, Tempo, 956938
1, 5520, Tempo, 1080692
1, 5760, Tempo, 964320
1, 7200, Tempo, 1002841
1, 7440, Tempo, 1099707
1, 7680, Tempo, 994860
1, 8640, Tempo, 971660
1, 9120, Tempo, 987004
1, 9360, Tempo, 1062323
1, 9600, Tempo, 971660
1, 10560, Tempo, 994860
1, 11040, Tempo, 1019195
1, 11280, Tempo, 1150086
1, 11520, Tempo, 971660
1, 12480, Tempo, 956938
1, 13200, Tempo, 1080692
1, 13440, Tempo, 964320
1, 14640, Tempo, 942507
1, 14880, Tempo, 964320
1, 15120, Tempo, 1053371
1, 15360, Tempo, 994860
1, 16320, Tempo, 971660
1, 16800, Tempo, 987004
1, 17040, Tempo, 1062323
1, 17280, Tempo, 971660
1, 18240, Tempo, 994860
1, 18720, Tempo, 1019195
1, 18960, Tempo, 1150086
1, 19200, Tempo, 971660
1, 20160, Tempo, 971660
1, 20640, Tempo, 987004
1, 20880, Tempo, 1062323
1, 21120, Tempo, 971660
1, 22080, Tempo, 994860
1, 22560, Tempo, 1019195
1, 22800, Tempo, 1150086
1, 23040, Tempo, 971660
1, 24000, Tempo, 971660
1, 24480, Tempo, 987004
1, 24720, Tempo, 1062323
1, 24960, Tempo, 971660
1, 25920, Tempo, 994860
1, 26400, Tempo, 1019195
1, 26640, Tempo, 1071429
1, 26880, Tempo, 971660
1, 27120, Tempo, 921659
1, 27360, Tempo, 964320
1, 27600, Tempo, 921659
1, 27720, Tempo, 942507
1, 27840, Tempo, 964320
1, 28080, Tempo, 971660
1, 28320, Tempo, 971660
1, 28560, Tempo, 1090116
1, 28800, Tempo, 979272
1, 29040, Tempo, 921659
1, 29280, Tempo, 964320
1, 29520, Tempo, 921659
1, 29640, Tempo, 942507
1, 29760, Tempo, 964320
1, 30000, Tempo, 971660
1, 30240, Tempo, 971660
1, 30480, Tempo, 1090116
1, 30720, Tempo, 979272
1, 31080, Tempo, 1071429
1, 31320, Tempo, 1129305
1, 31560, Tempo, 1457726
1, 31680, Tempo, 956938
1, 32400, Tempo, 1080692
1, 32640, Tempo, 964320
1, 34080, Tempo, 1002841
1, 34320, Tempo, 1099707
1, 34560, Tempo, 994860
1, 35520, Tempo, 971660
1, 36000, Tempo, 987004
1, 36240, Tempo, 1062323
1, 36480, Tempo, 971660
1, 37440, Tempo, 994860
1, 37920, Tempo, 1019195
1, 38160, Tempo, 1150086
1, 38400, Tempo, 971660
1, 39360, Tempo, 971660
1, 39840, Tempo, 1002841
1, 40080, Tempo, 1062323
1, 40320, Tempo, 971660
1, 41280, Tempo, 971660
1, 41760, Tempo, 1002841
1, 42000, Tempo, 1062323
1, 42240, Tempo, 971660
1, 43200, Tempo, 987004
1, 43680, Tempo, 1035912
1, 43920, Tempo, 1119194
1, 44160, Tempo, 1002841
1, 45120, Tempo, 1027573
1, 45600, Tempo, 1090116
1, 45840, Tempo, 1150086
1, 46080, Tempo, 971660
1, 48660, Tempo, 956938
1, 48690, Tempo, 964320
1, 48720, Tempo, 971660
1, 48750, Tempo, 979272
1, 48780, Tempo, 987004
1, 48810, Tempo, 994860
1, 48840, Tempo, 1002841
1, 48870, Tempo, 1010952
1, 48900, Tempo, 1019195
1, 48930, Tempo, 1035912
1, 49440, Tempo, 1090116
1, 49920, Tempo, 956938
1, 50160, Tempo, 956938
1, 50160, End_track
2, 0, Start_track
2, 0, Title_t, "Piano right"
2, 0, Program_c, 0, 0
2, 480, Note_on_c, 0, 59, 47
2, 600, Note_on_c, 0, 59, 0
2, 600, Note_on_c, 0, 64, 40
2, 720, Note_on_c, 0, 64, 0
2, 720, Note_on_c, 0, 68, 40
2, 840, Note_on_c, 0, 68, 0
2, 840, Note_on_c, 0, 71, 40
2, 960, Note_on_c, 0, 71, 0
2, 1440, Note_on_c, 0, 71, 46
2, 1560, Note_on_c, 0, 71, 0
2, 1560, Note_on_c, 0, 76, 40
2, 1680, Note_on_c, 0, 76, 0
2, 1680, Note_on_c, 0, 80, 40
2, 1800, Note_on_c, 0, 80, 0
2, 1800, Note_on_c, 0, 83, 40
2, 1920, Note_on_c, 0, 83, 0
2, 1920, Note_on_c, 0, 59, 45
2, 2040, Note_on_c, 0, 59, 0
2, 2040, Note_on_c, 0, 68, 40
2, 2160, Note_on_c, 0, 68, 0
2, 2160, Note_on_c, 0, 71, 40
2, 2280, Note_on_c, 0, 71, 0
2, 2280, Note_on_c, 0, 76, 40
2, 2400, Note_on_c, 0, 76, 0
2, 2400, Note_on_c, 0, 80, 47
2, 2520, Note_on_c, 0, 80, 0
2, 2520, Note_on_c, 0, 83, 41
2, 2640, Note_on_c, 0, 83, 0
2, 2640, Note_on_c, 0, 88, 42
2, 2760, Note_on_c, 0, 88, 0
2, 2760, Note_on_c, 0, 92, 45
2, 2880, Note_on_c, 0, 92, 0
2, 2880, Note_on_c, 0, 95, 47
2, 3120, Note_on_c, 0, 95, 0
2, 3360, Note_on_c, 0, 63, 38
2, 3360, Note_on_c, 0, 59, 32
2, 3360, Note_on_c, 0, 57, 32
2, 3600, Note_on_c, 0, 57, 0
2, 3600, Note_on_c, 0, 59, 0
2, 3600, Note_on_c, 0, 63, 0
2, 3840, Note_on_c, 0, 56, 34
2, 3840, Note_on_c, 0, 59, 34
2, 3840, Note_on_c, 0, 64, 40
2, 4080, Note_on_c, 0, 64, 0
2, 4080, Note_on_c, 0, 59, 0
2, 4080, Note_on_c, 0, 56, 0
2, 4800, Note_on_c, 0, 68, 51
2, 4800, Note_on_c, 0, 59, 43
2, 4800, Note_on_c, 0, 64, 43
2, 5280, Note_on_c, 0, 64, 0
2, 5280, Note_on_c, 0, 59, 0
2, 5280, Note_on_c, 0, 68, 0
2, 5280, Note_on_c, 0, 66, 47
2, 5640, Note_on_c, 0, 66, 0
2, 5640, Note_on_c, 0, 64, 42
2, 5750, Note_on_c, 0, 64, 0
2, 5760, Note_on_c, 0, 64, 42
2, 5760, Note_on_c, 0, 71, 50
2, 6000, Note_on_c, 0, 71, 0
2, 6000, Note_on_c, 0, 69, 40
2, 6480, Note_on_c, 0, 69, 0
2, 6480, Note_on_c, 0, 68, 40
2, 6696, Note_on_c, 0, 68, 0
2, 6720, Note_on_c, 0, 64, 0
2, 6720, Note_on_c, 0, 66, 43
2, 6720, Note_on_c, 0, 58, 36
2, 6936, Note_on_c, 0, 66, 0
2, 6960, Note_on_c, 0, 64, 40
2, 7176, Note_on_c, 0, 64, 0
2, 7200, Note_on_c, 0, 63, 40
2, 7416, Note_on_c, 0, 63, 0
2, 7440, Note_on_c, 0, 64, 40
2, 7656, Note_on_c, 0, 64, 0
2, 7680, Note_on_c, 0, 58, 0
2, 7680, Note_on_c, 0, 68, 45
2, 7680, Note_on_c, 0, 59, 38
2, 8160, Note_on_c, 0, 68, 0
2, 8160, Note_on_c, 0, 66, 38
2, 8400, Note_on_c, 0, 66, 0
2, 8400, Note_on_c, 0, 59, 0
2, 8640, Note_on_c, 0, 66, 60
2, 8640, Note_on_c, 0, 62, 50
2, 8640, Note_on_c, 0, 59, 50
2, 9120, Note_on_c, 0, 59, 0
2, 9120, Note_on_c, 0, 62, 0
2, 9120, Note_on_c, 0, 66, 0
2, 9120, Note_on_c, 0, 66, 71
2, 9120, Note_on_c, 0, 61, 56
2, 9480, Note_on_c, 0, 61, 0
2, 9480, Note_on_c, 0, 66, 0
2, 9480, Note_on_c, 0, 59, 56
2, 9480, Note_on_c, 0, 65, 56
2, 9480, Note_on_c, 0, 68, 67
2, 9600, Note_on_c, 0, 68, 0
2, 9600, Note_on_c, 0, 65, 0
2, 9600, Note_on_c, 0, 59, 0
2, 9600, Note_on_c, 0, 57, 57
2, 9600, Note_on_c, 0, 66, 57
2, 9600, Note_on_c, 0, 69, 68
2, 10320, Note_on_c, 0, 69, 0
2, 10320, Note_on_c, 0, 66, 0
2, 10320, Note_on_c, 0, 57, 0
2, 10320, Note_on_c, 0, 66, 42
2, 10560, Note_on_c, 0, 66, 0
2, 10560, Note_on_c, 0, 61, 45
2, 10560, Note_on_c, 0, 57, 38
2, 10800, Note_on_c, 0, 61, 0
2, 10800, Note_on_c, 0, 63, 37
2, 11040, Note_on_c, 0, 63, 0
2, 11040, Note_on_c, 0, 68, 45
2, 11400, Note_on_c, 0, 68, 0
2, 11400, Note_on_c, 0, 66, 41
2, 11520, Note_on_c, 0, 66, 0
2, 11520, Note_on_c, 0, 57, 0
2, 11520, Note_on_c, 0, 64, 41
2, 11520, Note_on_c, 0, 56, 34
2, 12000, Note_on_c, 0, 56, 0
2, 12000, Note_on_c, 0, 64, 0
2, 12480, Note_on_c, 0, 68, 51
2, 12480, Note_on_c, 0, 59, 43
2, 12480, Note_on_c, 0, 64, 43
2, 12960, Note_on_c, 0, 64, 0
2, 12960, Note_on_c, 0, 59, 0
2, 12960, Note_on_c, 0, 68, 0
2, 12960, Note_on_c, 0, 66, 47
2, 13320, Note_on_c, 0, 66, 0
2, 13320, Note_on_c, 0, 64, 42
2, 13430, Note_on_c, 0, 64, 0
2, 13440, Note_on_c, 0, 64, 50
2, 13440, Note_on_c, 0, 76, 67
2, 14160, Note_on_c, 0, 76, 0
2, 14160, Note_on_c, 0, 75, 55
2, 14376, Note_on_c, 0, 75, 0
2, 14400, Note_on_c, 0, 73, 58
2, 14616, Note_on_c, 0, 73, 0
2, 14640, Note_on_c, 0, 71, 55
2, 14856, Note_on_c, 0, 71, 0
2, 14880, Note_on_c, 0, 64, 0
2, 14880, Note_on_c, 0, 65, 49
2, 14880, Note_on_c, 0, 69, 55
2, 15096, Note_on_c, 0, 69, 0
2, 15120, Note_on_c, 0, 68, 55
2, 15336, Note_on_c, 0, 68, 0
2, 15360, Note_on_c, 0, 73, 62
2, 15840, Note_on_c, 0, 73, 0
2, 15840, Note_on_c, 0, 65, 0
2, 15840, Note_on_c, 0, 66, 38
2, 16080, Note_on_c, 0, 66, 0
2, 16320, Note_on_c, 0, 66, 48
2, 16320, Note_on_c, 0, 62, 40
2, 16320, Note_on_c, 0, 59, 40
2, 16800, Note_on_c, 0, 59, 0
2, 16800, Note_on_c, 0, 62, 0
2, 16800, Note_on_c, 0, 66, 0
2, 16800, Note_on_c, 0, 66, 56
2, 16800, Note_on_c, 0, 61, 44
2, 17160, Note_on_c, 0, 61, 0
2, 17160, Note_on_c, 0, 66, 0
2, 17160, Note_on_c, 0, 59, 44
2, 17160, Note_on_c, 0, 65, 44
2, 17160, Note_on_c, 0, 68, 53
2, 17280, Note_on_c, 0, 68, 0
2, 17280, Note_on_c, 0, 65, 0
2, 17280, Note_on_c, 0, 59, 0
2, 17280, Note_on_c, 0, 57, 45
2, 17280, Note_on_c, 0, 66, 45
2, 17280, Note_on_c, 0, 69, 54
2, 18000, Note_on_c, 0, 69, 0
2, 18000, Note_on_c, 0, 66, 0
2, 18000, Note_on_c, 0, 57, 0
2, 18000, Note_on_c, 0, 66, 42
2, 18240, Note_on_c, 0, 66, 0
2, 18240, Note_on_c, 0, 61, 45
2, 18240, Note_on_c, 0, 57, 38
2, 18480, Note_on_c, 0, 61, 0
2, 18480, Note_on_c, 0, 63, 37
2, 18720, Note_on_c, 0, 63, 0
2, 18720, Note_on_c, 0, 68, 45
2, 19080, Note_on_c, 0, 68, 0
2, 19080, Note_on_c, 0, 66, 41
2, 19200, Note_on_c, 0, 66, 0
2, 19200, Note_on_c, 0, 57, 0
2, 19200, Note_on_c, 0, 64, 41
2, 19200, Note_on_c, 0, 56, 34
2, 19920, Note_on_c, 0, 56, 0
2, 19920, Note_on_c, 0, 64, 0
2, 20160, Note_on_c, 0, 59, 60
2, 20160, Note_on_c, 0, 56, 50
2, 20640, Note_on_c, 0, 56, 0
2, 20640, Note_on_c, 0, 59, 0
2, 20640, Note_on_c, 0, 54, 56
2, 20640, Note_on_c, 0, 61, 71
2, 20640, Note_on_c, 0, 58, 56
2, 21000, Note_on_c, 0, 58, 0
2, 21000, Note_on_c, 0, 61, 0
2, 21000, Note_on_c, 0, 54, 0
2, 21000, Note_on_c, 0, 60, 56
2, 21000, Note_on_c, 0, 63, 67
2, 21120, Note_on_c, 0, 63, 0
2, 21120, Note_on_c, 0, 60, 0
2, 21120, Note_on_c, 0, 64, 73
2, 21120, Note_on_c, 0, 61, 62
2, 21120, Note_on_c, 0, 56, 62
2, 21840, Note_on_c, 0, 56, 0
2, 21840, Note_on_c, 0, 61, 0
2, 21840, Note_on_c, 0, 64, 0
2, 21840, Note_on_c, 0, 68, 62
2, 21840, Note_on_c, 0, 64, 52
2, 21840, Note_on_c, 0, 61, 52
2, 22056, Note_on_c, 0, 61, 0
2, 22056, Note_on_c, 0, 64, 0
2, 22056, Note_on_c, 0, 68, 0
2, 22080, Note_on_c, 0, 66, 59
2, 22080, Note_on_c, 0, 64, 59
2, 22080, Note_on_c, 0, 61, 59
2, 22296, Note_on_c, 0, 61, 0
2, 22296, Note_on_c, 0, 64, 0
2, 22296, Note_on_c, 0, 66, 0
2, 22320, Note_on_c, 0, 70, 64
2, 22320, Note_on_c, 0, 64, 54
2, 22320, Note_on_c, 0, 61, 54
2, 22536, Note_on_c, 0, 61, 0
2, 22536, Note_on_c, 0, 64, 0
2, 22536, Note_on_c, 0, 70, 0
2, 22560, Note_on_c, 0, 73, 73
2, 22560, Note_on_c, 0, 64, 62
2, 22560, Note_on_c, 0, 61, 62
2, 22902, Note_on_c, 0, 61, 0
2, 22902, Note_on_c, 0, 64, 0
2, 22902, Note_on_c, 0, 73, 0
2, 22920, Note_on_c, 0, 61, 55
2, 22920, Note_on_c, 0, 64, 55
2, 22920, Note_on_c, 0, 71, 65
2, 23028, Note_on_c, 0, 71, 0
2, 23028, Note_on_c, 0, 64, 0
2, 23028, Note_on_c, 0, 61, 0
2, 23040, Note_on_c, 0, 61, 60
2, 23040, Note_on_c, 0, 71, 75
2, 23040, Note_on_c, 0, 64, 60
2, 23520, Note_on_c, 0, 64, 0
2, 23520, Note_on_c, 0, 71, 0
2, 23520, Note_on_c, 0, 61, 0
2, 23520, Note_on_c, 0, 70, 68
2, 23760, Note_on_c, 0, 70, 0
2, 24000, Note_on_c, 0, 71, 79
2, 24000, Note_on_c, 0, 76, 79
2, 24000, Note_on_c, 0, 68, 67
2, 24480, Note_on_c, 0, 68, 0
2, 24480, Note_on_c, 0, 76, 0
2, 24480, Note_on_c, 0, 71, 0
2, 24480, Note_on_c, 0, 70, 65
2, 24480, Note_on_c, 0, 75, 77
2, 24480, Note_on_c, 0, 66, 65
2, 24840, Note_on_c, 0, 66, 0
2, 24840, Note_on_c, 0, 75, 0
2, 24840, Note_on_c, 0, 70, 0
2, 24840, Note_on_c, 0, 73, 63
2, 24840, Note_on_c, 0, 64, 53
2, 24960, Note_on_c, 0, 64, 0
2, 24960, Note_on_c, 0, 73, 0
2, 24960, Note_on_c, 0, 63, 65
2, 24960, Note_on_c, 0, 66, 65
2, 24960, Note_on_c, 0, 71, 77
2, 25440, Note_on_c, 0, 71, 0
2, 25440, Note_on_c, 0, 66, 0
2, 25440, Note_on_c, 0, 63, 0
2, 25440, Note_on_c, 0, 61, 52
2, 25440, Note_on_c, 0, 70, 62
2, 25440, Note_on_c, 0, 64, 52
2, 25800, Note_on_c, 0, 64, 0
2, 25800, Note_on_c, 0, 70, 0
2, 25800, Note_on_c, 0, 61, 0
2, 25800, Note_on_c, 0, 59, 44
2, 25800, Note_on_c, 0, 63, 44
2, 25800, Note_on_c, 0, 68, 52
2, 25920, Note_on_c, 0, 68, 0
2, 25920, Note_on_c, 0, 63, 0
2, 25920, Note_on_c, 0, 59, 0
2, 25920, Note_on_c, 0, 58, 58
2, 25920, Note_on_c, 0, 64, 58
2, 25920, Note_on_c, 0, 66, 69
2, 26160, Note_on_c, 0, 66, 0
2, 26160, Note_on_c, 0, 64, 0
2, 26160, Note_on_c, 0, 58, 0
2, 26160, Note_on_c, 0, 61, 48
2, 26160, Note_on_c, 0, 64, 57
2, 26400, Note_on_c, 0, 64, 0
2, 26400, Note_on_c, 0, 61, 0
2, 26400, Note_on_c, 0, 58, 56
2, 26400, Note_on_c, 0, 64, 56
2, 26400, Note_on_c, 0, 68, 66
2, 26640, Note_on_c, 0, 68, 0
2, 26640, Note_on_c, 0, 64, 0
2, 26640, Note_on_c, 0, 58, 0
2, 26640, Note_on_c, 0, 64, 56
2, 26640, Note_on_c, 0, 61, 47
2, 26880, Note_on_c, 0, 61, 0
2, 26880, Note_on_c, 0, 64, 0
2, 26880, Note_on_c, 0, 59, 54
2, 26880, Note_on_c, 0, 63, 64
2, 27096, Note_on_c, 0, 63, 0
2, 27096, Note_on_c, 0, 59, 0
2, 27120, Note_on_c, 0, 63, 39
2, 27120, Note_on_c, 0, 59, 39
2, 27120, Note_on_c, 0, 66, 47
2, 27360, Note_on_c, 0, 59, 0
2, 27360, Note_on_c, 0, 63, 0
2, 27360, Note_on_c, 0, 61, 39
2, 27360, Note_on_c, 0, 58, 39
2, 27600, Note_on_c, 0, 58, 0
2, 27600, Note_on_c, 0, 61, 0
2, 27600, Note_on_c, 0, 66, 0
2, 27600, Note_on_c, 0, 59, 39
2, 27600, Note_on_c, 0, 56, 39
2, 27600, Note_on_c, 0, 64, 47
2, 27816, Note_on_c, 0, 64, 0
2, 27816, Note_on_c, 0, 56, 0
2, 27816, Note_on_c, 0, 59, 0
2, 27840, Note_on_c, 0, 54, 39
2, 27840, Note_on_c, 0, 59, 39
2, 27840, Note_on_c, 0, 63, 51
2, 28056, Note_on_c, 0, 63, 0
2, 28080, Note_on_c, 0, 64, 47
2, 28296, Note_on_c, 0, 64, 0
2, 28320, Note_on_c, 0, 59, 0
2, 28320, Note_on_c, 0, 54, 0
2, 28320, Note_on_c, 0, 54, 39
2, 28320, Note_on_c, 0, 58, 39
2, 28320, Note_on_c, 0, 63, 52
2, 28680, Note_on_c, 0, 63, 0
2, 28680, Note_on_c, 0, 61, 42
2, 28800, Note_on_c, 0, 61, 0
2, 28800, Note_on_c, 0, 58, 0
2, 28800, Note_on_c, 0, 54, 0
2, 28800, Note_on_c, 0, 54, 43
2, 28800, Note_on_c, 0, 59, 49
2, 29016, Note_on_c, 0, 59, 0
2, 29016, Note_on_c, 0, 54, 0
2, 29040, Note_on_c, 0, 63, 39
2, 29040, Note_on_c, 0, 59, 39
2, 29040, Note_on_c, 0, 66, 47
2, 29280, Note_on_c, 0, 59, 0
2, 29280, Note_on_c, 0, 63, 0
2, 29280, Note_on_c, 0, 61, 39
2, 29280, Note_on_c, 0, 58, 39
2, 29520, Note_on_c, 0, 58, 0
2, 29520, Note_on_c, 0, 61, 0
2, 29520, Note_on_c, 0, 66, 0
2, 29520, Note_on_c, 0, 59, 39
2, 29520, Note_on_c, 0, 56, 39
2, 29520, Note_on_c, 0, 64, 47
2, 29736, Note_on_c, 0, 64, 0
2, 29736, Note_on_c, 0, 56, 0
2, 29736, Note_on_c, 0, 59, 0
2, 29760, Note_on_c, 0, 54, 39
2, 29760, Note_on_c, 0, 59, 39
2, 29760, Note_on_c, 0, 63, 51
2, 29976, Note_on_c, 0, 63, 0
2, 30000, Note_on_c, 0, 64, 47
2, 30216, Note_on_c, 0, 64, 0
2, 30240, Note_on_c, 0, 59, 0
2, 30240, Note_on_c, 0, 54, 0
2, 30240, Note_on_c, 0, 54, 39
2, 30240, Note_on_c, 0, 58, 39
2, 30240, Note_on_c, 0, 63, 52
2, 30600, Note_on_c, 0, 63, 0
2, 30600, Note_on_c, 0, 61, 42
2, 30720, Note_on_c, 0, 61, 0
2, 30720, Note_on_c, 0, 58, 0
2, 30720, Note_on_c, 0, 54, 0
2, 30720, Note_on_c, 0, 59, 49
2, 30936, Note_on_c, 0, 59, 0
2, 30960, Note_on_c, 0, 71, 55
2, 30960, Note_on_c, 0, 63, 46
2, 30960, Note_on_c, 0, 66, 46
2, 31200, Note_on_c, 0, 66, 0
2, 31200, Note_on_c, 0, 63, 0
2, 31200, Note_on_c, 0, 64, 62
2, 31440, Note_on_c, 0, 64, 0
2, 31440, Note_on_c, 0, 71, 0
2, 31440, Note_on_c, 0, 69, 61
2, 31440, Note_on_c, 0, 66, 51
2, 31656, Note_on_c, 0, 66, 0
2, 31656, Note_on_c, 0, 69, 0
2, 31680, Note_on_c, 0, 68, 51
2, 31680, Note_on_c, 0, 59, 43
2, 31680, Note_on_c, 0, 64, 43
2, 32160, Note_on_c, 0, 64, 0
2, 32160, Note_on_c, 0, 59, 0
2, 32160, Note_on_c, 0, 68, 0
2, 32160, Note_on_c, 0, 66, 50
2, 32520, Note_on_c, 0, 66, 0
2, 32520, Note_on_c, 0, 64, 42
2, 32630, Note_on_c, 0, 64, 0
2, 32640, Note_on_c, 0, 64, 42
2, 32640, Note_on_c, 0, 71, 50
2, 32880, Note_on_c, 0, 71, 0
2, 32880, Note_on_c, 0, 69, 40
2, 33360, Note_on_c, 0, 69, 0
2, 33360, Note_on_c, 0, 68, 40
2, 33576, Note_on_c, 0, 68, 0
2, 33600, Note_on_c, 0, 64, 0
2, 33600, Note_on_c, 0, 66, 43
2, 33600, Note_on_c, 0, 58, 36
2, 33816, Note_on_c, 0, 66, 0
2, 33840, Note_on_c, 0, 64, 40
2, 34056, Note_on_c, 0, 64, 0
2, 34080, Note_on_c, 0, 63, 40
2, 34296, Note_on_c, 0, 63, 0
2, 34320, Note_on_c, 0, 64, 40
2, 34536, Note_on_c, 0, 64, 0
2, 34560, Note_on_c, 0, 58, 0
2, 34560, Note_on_c, 0, 68, 45
2, 34560, Note_on_c, 0, 59, 38
2, 35040, Note_on_c, 0, 68, 0
2, 35040, Note_on_c, 0, 66, 38
2, 35280, Note_on_c, 0, 66, 0
2, 35280, Note_on_c, 0, 59, 0
2, 35520, Note_on_c, 0, 66, 60
2, 35520, Note_on_c, 0, 62, 50
2, 35520, Note_on_c, 0, 59, 50
2, 36000, Note_on_c, 0, 59, 0
2, 36000, Note_on_c, 0, 62, 0
2, 36000, Note_on_c, 0, 66, 0
2, 36000, Note_on_c, 0, 66, 71
2, 36000, Note_on_c, 0, 61, 56
2, 36360, Note_on_c, 0, 61, 0
2, 36360, Note_on_c, 0, 66, 0
2, 36360, Note_on_c, 0, 59, 56
2, 36360, Note_on_c, 0, 65, 56
2, 36360, Note_on_c, 0, 68, 67
2, 36480, Note_on_c, 0, 68, 0
2, 36480, Note_on_c, 0, 65, 0
2, 36480, Note_on_c, 0, 59, 0
2, 36480, Note_on_c, 0, 57, 57
2, 36480, Note_on_c, 0, 66, 57
2, 36480, Note_on_c, 0, 69, 68
2, 37196, Note_on_c, 0, 66, 0
2, 37200, Note_on_c, 0, 69, 0
2, 37200, Note_on_c, 0, 57, 0
2, 37200, Note_on_c, 0, 66, 42
2, 37440, Note_on_c, 0, 66, 0
2, 37440, Note_on_c, 0, 61, 45
2, 37440, Note_on_c, 0, 57, 38
2, 37680, Note_on_c, 0, 61, 0
2, 37680, Note_on_c, 0, 63, 37
2, 37920, Note_on_c, 0, 63, 0
2, 37920, Note_on_c, 0, 68, 45
2, 38280, Note_on_c, 0, 68, 0
2, 38280, Note_on_c, 0, 66, 41
2, 38400, Note_on_c, 0, 66, 0
2, 38400, Note_on_c, 0, 57, 0
2, 38400, Note_on_c, 0, 64, 41
2, 38400, Note_on_c, 0, 56, 34
2, 38880, Note_on_c, 0, 56, 0
2, 38880, Note_on_c, 0, 64, 0
2, 39360, Note_on_c, 0, 68, 69
2, 39360, Note_on_c, 0, 71, 69
2, 39360, Note_on_c, 0, 64, 58
2, 39840, Note_on_c, 0, 64, 0
2, 39840, Note_on_c, 0, 71, 0
2, 39840, Note_on_c, 0, 68, 0
2, 39840, Note_on_c, 0, 66, 70
2, 39840, Note_on_c, 0, 71, 83
2, 40200, Note_on_c, 0, 71, 0
2, 40200, Note_on_c, 0, 66, 0
2, 40200, Note_on_c, 0, 73, 74
2, 40200, Note_on_c, 0, 70, 62
2, 40200, Note_on_c, 0, 67, 62
2, 40200, Note_on_c, 0, 64, 62
2, 40320, Note_on_c, 0, 64, 0
2, 40320, Note_on_c, 0, 73, 0
2, 40320, Note_on_c, 0, 70, 0
2, 40320, Note_on_c, 0, 67, 0
2, 40320, Note_on_c, 0, 63, 73
2, 40320, Note_on_c, 0, 75, 86
2, 40320, Note_on_c, 0, 71, 73
2, 40320, Note_on_c, 0, 66, 73
2, 41280, Note_on_c, 0, 66, 0
2, 41280, Note_on_c, 0, 63, 0
2, 41280, Note_on_c, 0, 75, 0
2, 41280, Note_on_c, 0, 71, 0
2, 41280, Note_on_c, 0, 68, 69
2, 41280, Note_on_c, 0, 71, 69
2, 41280, Note_on_c, 0, 64, 58
2, 41760, Note_on_c, 0, 64, 0
2, 41760, Note_on_c, 0, 71, 0
2, 41760, Note_on_c, 0, 68, 0
2, 41760, Note_on_c, 0, 66, 70
2, 41760, Note_on_c, 0, 71, 83
2, 42120, Note_on_c, 0, 71, 0
2, 42120, Note_on_c, 0, 66, 0
2, 42120, Note_on_c, 0, 73, 74
2, 42120, Note_on_c, 0, 70, 62
2, 42120, Note_on_c, 0, 67, 62
2, 42120, Note_on_c, 0, 64, 62
2, 42240, Note_on_c, 0, 64, 0
2, 42240, Note_on_c, 0, 73, 0
2, 42240, Note_on_c, 0, 70, 0
2, 42240, Note_on_c, 0, 67, 0
2, 42240, Note_on_c, 0, 63, 73
2, 42240, Note_on_c, 0, 75, 86
2, 42240, Note_on_c, 0, 71, 73
2, 42240, Note_on_c, 0, 66, 73
2, 43152, Note_on_c, 0, 66, 0
2, 43152, Note_on_c, 0, 63, 0
2, 43152, Note_on_c, 0, 75, 0
2, 43152, Note_on_c, 0, 71, 0
2, 43200, Note_on_c, 0, 66, 54
2, 43200, Note_on_c, 0, 62, 45
2, 43200, Note_on_c, 0, 59, 45
2, 43680, Note_on_c, 0, 59, 0
2, 43680, Note_on_c, 0, 62, 0
2, 43680, Note_on_c, 0, 66, 0
2, 43680, Note_on_c, 0, 66, 63
2, 43680, Note_on_c, 0, 61, 50
2, 44040, Note_on_c, 0, 61, 0
2, 44040, Note_on_c, 0, 66, 0
2, 44040, Note_on_c, 0, 59, 50
2, 44040, Note_on_c, 0, 65, 50
2, 44040, Note_on_c, 0, 68, 60
2, 44160, Note_on_c, 0, 68, 0
2, 44160, Note_on_c, 0, 65, 0
2, 44160, Note_on_c, 0, 59, 0
2, 44160, Note_on_c, 0, 57, 51
2, 44160, Note_on_c, 0, 66, 51
2, 44160, Note_on_c, 0, 69, 61
2, 44880, Note_on_c, 0, 69, 0
2, 44880, Note_on_c, 0, 66, 0
2, 44880, Note_on_c, 0, 57, 0
2, 44880, Note_on_c, 0, 66, 37
2, 45120, Note_on_c, 0, 66, 0
2, 45120, Note_on_c, 0, 61, 40
2, 45120, Note_on_c, 0, 57, 34
2, 45360, Note_on_c, 0, 61, 0
2, 45360, Note_on_c, 0, 63, 33
2, 45600, Note_on_c, 0, 63, 0
2, 45600, Note_on_c, 0, 68, 40
2, 45960, Note_on_c, 0, 68, 0
2, 45960, Note_on_c, 0, 66, 36
2, 46080, Note_on_c, 0, 66, 0
2, 46080, Note_on_c, 0, 57, 0
2, 46080, Note_on_c, 0, 64, 36
2, 46560, Note_on_c, 0, 64, 0
2, 46560, Note_on_c, 0, 59, 39
2, 46680, Note_on_c, 0, 59, 0
2, 46680, Note_on_c, 0, 64, 34
2, 46800, Note_on_c, 0, 64, 0
2, 46800, Note_on_c, 0, 68, 34
2, 46920, Note_on_c, 0, 68, 0
2, 46920, Note_on_c, 0, 71, 34
2, 47040, Note_on_c, 0, 71, 0
2, 47520, Note_on_c, 0, 71, 39
2, 47640, Note_on_c, 0, 71, 0
2, 47640, Note_on_c, 0, 76, 34
2, 47760, Note_on_c, 0, 76, 0
2, 47760, Note_on_c, 0, 80, 34
2, 47880, Note_on_c, 0, 80, 0
2, 47880, Note_on_c, 0, 83, 34
2, 48000, Note_on_c, 0, 83, 0
2, 48000, Note_on_c, 0, 59, 38
2, 48120, Note_on_c, 0, 59, 0
2, 48120, Note_on_c, 0, 68, 34
2, 48240, Note_on_c, 0, 68, 0
2, 48240, Note_on_c, 0, 71, 34
2, 48360, Note_on_c, 0, 71, 0
2, 48360, Note_on_c, 0, 76, 34
2, 48480, Note_on_c, 0, 76, 0
2, 48480, Note_on_c, 0, 80, 39
2, 48600, Note_on_c, 0, 80, 0
2, 48600, Note_on_c, 0, 83, 34
2, 48720, Note_on_c, 0, 83, 0
2, 48720, Note_on_c, 0, 88, 35
2, 48840, Note_on_c, 0, 88, 0
2, 48840, Note_on_c, 0, 92, 38
2, 48960, Note_on_c, 0, 92, 0
2, 48960, Note_on_c, 0, 95, 39
2, 49200, Note_on_c, 0, 95, 0
2, 49440, Note_on_c, 0, 63, 32
2, 49440, Note_on_c, 0, 59, 27
2, 49440, Note_on_c, 0, 57, 27
2, 49680, Note_on_c, 0, 57, 0
2, 49680, Note_on_c, 0, 59, 0
2, 49680, Note_on_c, 0, 63, 0
2, 49920, Note_on_c, 0, 56, 28
2, 49920, Note_on_c, 0, 59, 28
2, 49920, Note_on_c, 0, 64, 34
2, 50160, Note_on_c, 0, 64, 0
2, 50160, Note_on_c, 0, 59, 0
2, 50160, Note_on_c, 0, 56, 0
2, 50160, End_track
3, 0, Start_track
3, 0, Title_t, "Piano left"
3, 0, Program_c, 0, 0
3, 0, Note_on_c, 0, 40, 49
3, 120, Note_on_c, 0, 40, 0
3, 120, Note_on_c, 0, 47, 40
3, 240, Note_on_c, 0, 47, 0
3, 240, Note_on_c, 0, 52, 40
3, 360, Note_on_c, 0, 52, 0
3, 360, Note_on_c, 0, 56, 40
3, 480, Note_on_c, 0, 56, 0
3, 960, Note_on_c, 0, 56, 45
3, 1080, Note_on_c, 0, 56, 0
3, 1080, Note_on_c, 0, 59, 40
3, 1200, Note_on_c, 0, 59, 0
3, 1200, Note_on_c, 0, 64, 40
3, 1320, Note_on_c, 0, 64, 0
3, 1320, Note_on_c, 0, 68, 40
3, 1440, Note_on_c, 0, 68, 0
3, 3360, Note_on_c, 0, 47, 29
3, 3600, Note_on_c, 0, 47, 0
3, 3840, Note_on_c, 0, 40, 37
3, 4080, Note_on_c, 0, 40, 0
3, 4800, Note_on_c, 0, 56, 32
3, 4800, Note_on_c, 0, 52, 27
3, 5760, Note_on_c, 0, 52, 0
3, 5760, Note_on_c, 0, 56, 0
3, 5760, Note_on_c, 0, 57, 32
3, 5760, Note_on_c, 0, 52, 27
3, 5760, Note_on_c, 0, 49, 27
3, 6720, Note_on_c, 0, 49, 0
3, 6720, Note_on_c, 0, 52, 0
3, 6720, Note_on_c, 0, 57, 0
3, 6720, Note_on_c, 0, 52, 32
3, 6720, Note_on_c, 0, 49, 27
3, 7680, Note_on_c, 0, 49, 0
3, 7680, Note_on_c, 0, 52, 0
3, 7680, Note_on_c, 0, 52, 31
3, 7680, Note_on_c, 0, 47, 26
3, 8160, Note_on_c, 0, 52, 0
3, 8160, Note_on_c, 0, 51, 26
3, 8400, Note_on_c, 0, 51, 0
3, 8400, Note_on_c, 0, 47, 0
3, 8640, Note_on_c, 0, 54, 45
3, 8640, Note_on_c, 0, 47, 38
3, 9120, Note_on_c, 0, 47, 0
3, 9120, Note_on_c, 0, 54, 0
3, 9120, Note_on_c, 0, 54, 45
3, 9120, Note_on_c, 0, 45, 38
3, 9480, Note_on_c, 0, 45, 0
3, 9480, Note_on_c, 0, 54, 0
3, 9480, Note_on_c, 0, 44, 44
3, 9480, Note_on_c, 0, 54, 52
3, 9600, Note_on_c, 0, 54, 0
3, 9600, Note_on_c, 0, 44, 0
3, 9600, Note_on_c, 0, 54, 51
3, 9600, Note_on_c, 0, 42, 43
3, 10560, Note_on_c, 0, 42, 0
3, 10560, Note_on_c, 0, 54, 0
3, 10560, Note_on_c, 0, 54, 30
3, 10560, Note_on_c, 0, 47, 25
3, 11520, Note_on_c, 0, 47, 0
3, 11520, Note_on_c, 0, 54, 0
3, 11520, Note_on_c, 0, 40, 31
3, 12000, Note_on_c, 0, 40, 0
3, 12480, Note_on_c, 0, 56, 32
3, 12480, Note_on_c, 0, 52, 27
3, 13440, Note_on_c, 0, 52, 0
3, 13440, Note_on_c, 0, 56, 0
3, 13440, Note_on_c, 0, 61, 38
3, 13440, Note_on_c, 0, 56, 32
3, 13440, Note_on_c, 0, 49, 32
3, 14400, Note_on_c, 0, 49, 0
3, 14400, Note_on_c, 0, 56, 0
3, 14400, Note_on_c, 0, 61, 0
3, 14400, Note_on_c, 0, 61, 43
3, 14880, Note_on_c, 0, 59, 36
3, 15360, Note_on_c, 0, 59, 0
3, 15360, Note_on_c, 0, 61, 0
3, 15360, Note_on_c, 0, 61, 42
3, 15360, Note_on_c, 0, 57, 35
3, 16080, Note_on_c, 0, 57, 0
3, 16080, Note_on_c, 0, 61, 0
3, 16320, Note_on_c, 0, 54, 36
3, 16320, Note_on_c, 0, 47, 30
3, 16800, Note_on_c, 0, 47, 0
3, 16800, Note_on_c, 0, 54, 0
3, 16800, Note_on_c, 0, 54, 36
3, 16800, Note_on_c, 0, 45, 30
3, 17160, Note_on_c, 0, 45, 0
3, 17160, Note_on_c, 0, 54, 0
3, 17160, Note_on_c, 0, 44, 35
3, 17160, Note_on_c, 0, 54, 41
3, 17280, Note_on_c, 0, 54, 0
3, 17280, Note_on_c, 0, 44, 0
3, 17280, Note_on_c, 0, 54, 40
3, 17280, Note_on_c, 0, 42, 34
3, 18240, Note_on_c, 0, 42, 0
3, 18240, Note_on_c, 0, 54, 0
3, 18240, Note_on_c, 0, 47, 30
3, 18240, Note_on_c, 0, 35, 25
3, 19200, Note_on_c, 0, 35, 0
3, 19200, Note_on_c, 0, 47, 0
3, 19200, Note_on_c, 0, 40, 31
3, 19920, Note_on_c, 0, 40, 0
3, 20160, Note_on_c, 0, 40, 39
3, 20160, Note_on_c, 0, 52, 46
3, 20640, Note_on_c, 0, 52, 0
3, 20640, Note_on_c, 0, 40, 0
3, 20640, Note_on_c, 0, 39, 43
3, 20640, Note_on_c, 0, 51, 51
3, 21120, Note_on_c, 0, 51, 0
3, 21120, Note_on_c, 0, 39, 0
3, 21120, Note_on_c, 0, 37, 51
3, 21120, Note_on_c, 0, 49, 60
3, 21600, Note_on_c, 0, 49, 0
3, 21600, Note_on_c, 0, 37, 0
3, 21600, Note_on_c, 0, 47, 63
3, 21600, Note_on_c, 0, 35, 53
3, 22080, Note_on_c, 0, 35, 0
3, 22080, Note_on_c, 0, 47, 0
3, 22080, Note_on_c, 0, 34, 56
3, 22080, Note_on_c, 0, 46, 66
3, 22560, Note_on_c, 0, 46, 0
3, 22560, Note_on_c, 0, 34, 0
3, 22560, Note_on_c, 0, 44, 71
3, 22560, Note_on_c, 0, 32, 60
3, 23040, Note_on_c, 0, 32, 0
3, 23040, Note_on_c, 0, 44, 0
3, 23040, Note_on_c, 0, 30, 62
3, 23040, Note_on_c, 0, 42, 74
3, 24000, Note_on_c, 0, 42, 0
3, 24000, Note_on_c, 0, 30, 0
3, 24000, Note_on_c, 0, 42, 70
3, 24000, Note_on_c, 0, 30, 59
3, 24960, Note_on_c, 0, 30, 0
3, 24960, Note_on_c, 0, 42, 0
3, 24960, Note_on_c, 0, 42, 71
3, 24960, Note_on_c, 0, 30, 60
3, 25920, Note_on_c, 0, 30, 0
3, 25920, Note_on_c, 0, 42, 0
3, 25920, Note_on_c, 0, 42, 63
3, 25920, Note_on_c, 0, 30, 53
3, 26880, Note_on_c, 0, 30, 0
3, 26880, Note_on_c, 0, 42, 0
3, 26880, Note_on_c, 0, 35, 41
3, 26880, Note_on_c, 0, 47, 49
3, 28320, Note_on_c, 0, 47, 0
3, 28320, Note_on_c, 0, 35, 0
3, 28320, Note_on_c, 0, 52, 38
3, 28320, Note_on_c, 0, 42, 32
3, 28800, Note_on_c, 0, 42, 0
3, 28800, Note_on_c, 0, 52, 0
3, 28800, Note_on_c, 0, 47, 37
3, 28800, Note_on_c, 0, 51, 44
3, 29280, Note_on_c, 0, 51, 0
3, 29280, Note_on_c, 0, 47, 0
3, 30240, Note_on_c, 0, 52, 38
3, 30240, Note_on_c, 0, 42, 32
3, 30720, Note_on_c, 0, 42, 0
3, 30720, Note_on_c, 0, 52, 0
3, 30720, Note_on_c, 0, 47, 37
3, 30720, Note_on_c, 0, 51, 44
3, 30936, Note_on_c, 0, 51, 0
3, 30936, Note_on_c, 0, 47, 0
3, 30960, Note_on_c, 0, 47, 42
3, 30960, Note_on_c, 0, 59, 50
3, 31200, Note_on_c, 0, 59, 0
3, 31200, Note_on_c, 0, 47, 0
3, 31200, Note_on_c, 0, 59, 59
3, 31200, Note_on_c, 0, 49, 50
3, 31440, Note_on_c, 0, 49, 0
3, 31440, Note_on_c, 0, 59, 0
3, 31440, Note_on_c, 0, 59, 53
3, 31440, Note_on_c, 0, 51, 45
3, 31656, Note_on_c, 0, 51, 0
3, 31656, Note_on_c, 0, 59, 0
3, 31680, Note_on_c, 0, 56, 32
3, 31680, Note_on_c, 0, 52, 27
3, 32160, Note_on_c, 0, 51, 27
3, 32640, Note_on_c, 0, 51, 0
3, 32640, Note_on_c, 0, 52, 0
3, 32640, Note_on_c, 0, 56, 0
3, 32640, Note_on_c, 0, 57, 32
3, 32640, Note_on_c, 0, 52, 27
3, 32640, Note_on_c, 0, 49, 27
3, 33600, Note_on_c, 0, 49, 0
3, 33600, Note_on_c, 0, 52, 0
3, 33600, Note_on_c, 0, 57, 0
3, 33600, Note_on_c, 0, 52, 32
3, 33600, Note_on_c, 0, 49, 27
3, 34560, Note_on_c, 0, 49, 0
3, 34560, Note_on_c, 0, 52, 0
3, 34560, Note_on_c, 0, 52, 31
3, 34560, Note_on_c, 0, 47, 26
3, 35040, Note_on_c, 0, 52, 0
3, 35040, Note_on_c, 0, 51, 26
3, 35280, Note_on_c, 0, 51, 0
3, 35280, Note_on_c, 0, 47, 0
3, 35520, Note_on_c, 0, 54, 45
3, 35520, Note_on_c, 0, 47, 38
3, 36000, Note_on_c, 0, 47, 0
3, 36000, Note_on_c, 0, 54, 0
3, 36000, Note_on_c, 0, 54, 45
3, 36000, Note_on_c, 0, 45, 38
3, 36360, Note_on_c, 0, 45, 0
3, 36360, Note_on_c, 0, 54, 0
3, 36360, Note_on_c, 0, 44, 44
3, 36360, Note_on_c, 0, 54, 52
3, 36480, Note_on_c, 0, 54, 0
3, 36480, Note_on_c, 0, 44, 0
3, 36480, Note_on_c, 0, 54, 51
3, 36480, Note_on_c, 0, 42, 43
3, 37440, Note_on_c, 0, 42, 0
3, 37440, Note_on_c, 0, 54, 0
3, 37440, Note_on_c, 0, 54, 30
3, 37440, Note_on_c, 0, 47, 25
3, 38400, Note_on_c, 0, 47, 0
3, 38400, Note_on_c, 0, 54, 0
3, 38400, Note_on_c, 0, 40, 31
3, 38880, Note_on_c, 0, 40, 0
3, 39360, Note_on_c, 0, 59, 53
3, 39360, Note_on_c, 0, 52, 45
3, 39840, Note_on_c, 0, 52, 0
3, 39840, Note_on_c, 0, 59, 0
3, 39840, Note_on_c, 0, 59, 60
3, 39840, Note_on_c, 0, 51, 50
3, 40200, Note_on_c, 0, 51, 0
3, 40200, Note_on_c, 0, 59, 0
3, 40200, Note_on_c, 0, 59, 51
3, 40200, Note_on_c, 0, 49, 43
3, 40310, Note_on_c, 0, 59, 0
3, 40320, Note_on_c, 0, 49, 0
3, 40320, Note_on_c, 0, 59, 61
3, 40320, Note_on_c, 0, 47, 51
3, 41280, Note_on_c, 0, 47, 0
3, 41280, Note_on_c, 0, 59, 0
3, 41280, Note_on_c, 0, 59, 53
3, 41280, Note_on_c, 0, 52, 45
3, 41760, Note_on_c, 0, 52, 0
3, 41760, Note_on_c, 0, 59, 0
3, 41760, Note_on_c, 0, 59, 60
3, 41760, Note_on_c, 0, 51, 50
3, 42120, Note_on_c, 0, 51, 0
3, 42120, Note_on_c, 0, 59, 0
3, 42120, Note_on_c, 0, 59, 51
3, 42120, Note_on_c, 0, 49, 43
3, 42240, Note_on_c, 0, 49, 0
3, 42240, Note_on_c, 0, 59, 0
3, 42240, Note_on_c, 0, 59, 61
3, 42240, Note_on_c, 0, 47, 51
3, 43152, Note_on_c, 0, 47, 0
3, 43152, Note_on_c, 0, 59, 0
3, 43200, Note_on_c, 0, 54, 40
3, 43200, Note_on_c, 0, 47, 34
3, 43680, Note_on_c, 0, 47, 0
3, 43680, Note_on_c, 0, 54, 0
3, 43680, Note_on_c, 0, 54, 40
3, 43680, Note_on_c, 0, 45, 34
3, 44040, Note_on_c, 0, 45, 0
3, 44040, Note_on_c, 0, 54, 0
3, 44040, Note_on_c, 0, 44, 39
3, 44040, Note_on_c, 0, 54, 46
3, 44160, Note_on_c, 0, 54, 0
3, 44160, Note_on_c, 0, 44, 0
3, 44160, Note_on_c, 0, 54, 45
3, 44160, Note_on_c, 0, 42, 38
3, 45120, Note_on_c, 0, 42, 0
3, 45120, Note_on_c, 0, 54, 0
3, 45120, Note_on_c, 0, 47, 27
3, 45120, Note_on_c, 0, 35, 22
3, 46080, Note_on_c, 0, 35, 0
3, 46080, Note_on_c, 0, 47, 0
3, 46080, Note_on_c, 0, 40, 41
3, 46200, Note_on_c, 0, 40, 0
3, 46200, Note_on_c, 0, 47, 34
3, 46320, Note_on_c, 0, 47, 0
3, 46320, Note_on_c, 0, 52, 34
3, 46440, Note_on_c, 0, 52, 0
3, 46440, Note_on_c, 0, 56, 34
3, 46560, Note_on_c, 0, 56, 0
3, 47040, Note_on_c, 0, 56, 38
3, 47160, Note_on_c, 0, 56, 0
3, 47160, Note_on_c, 0, 59, 34
3, 47280, Note_on_c, 0, 59, 0
3, 47280, Note_on_c, 0, 64, 34
3, 47400, Note_on_c, 0, 64, 0
3, 47400, Note_on_c, 0, 68, 34
3, 47520, Note_on_c, 0, 68, 0
3, 49440, Note_on_c, 0, 35, 20
3, 49440, Note_on_c, 0, 47, 24
3, 49680, Note_on_c, 0, 47, 0
3, 49680, Note_on_c, 0, 35, 0
3, 49920, Note_on_c, 0, 28, 26
3, 49920, Note_on_c, 0, 40, 31
3, 50160, Note_on_c, 0, 40, 0
3, 50160, Note_on_c, 0, 28, 0
3, 50160, End_track
4, 0, Start_track
4, 0, Title_t, "Pedale"
4, 0, Program_c, 0, 0
4, 64, Control_c, 0, 64, 127
4, 3156, Control_c, 0, 64, 0
4, 4920, Control_c, 0, 64, 127
4, 5301, Control_c, 0, 64, 0
4, 5372, Control_c, 0, 64, 127
4, 5764, Control_c, 0, 64, 0
4, 7770, Control_c, 0, 64, 127
4, 8189, Control_c, 0, 64, 0
4, 8726, Control_c, 0, 64, 127
4, 9147, Control_c, 0, 64, 0
4, 9217, Control_c, 0, 64, 127
4, 9600, Control_c, 0, 64, 0
4, 9699, Control_c, 0, 64, 127
4, 10335, Control_c, 0, 64, 0
4, 10659, Control_c, 0, 64, 127
4, 11524, Control_c, 0, 64, 0
4, 11814, Control_c, 0, 64, 127
4, 12347, Control_c, 0, 64, 0
4, 12600, Control_c, 0, 64, 127
4, 12981, Control_c, 0, 64, 0
4, 13052, Control_c, 0, 64, 127
4, 13444, Control_c, 0, 64, 0
4, 15434, Control_c, 0, 64, 127
4, 15869, Control_c, 0, 64, 0
4, 16406, Control_c, 0, 64, 127
4, 16827, Control_c, 0, 64, 0
4, 16897, Control_c, 0, 64, 127
4, 17280, Control_c, 0, 64, 0
4, 17379, Control_c, 0, 64, 127
4, 18015, Control_c, 0, 64, 0
4, 18339, Control_c, 0, 64, 127
4, 19204, Control_c, 0, 64, 0
4, 19494, Control_c, 0, 64, 127
4, 20132, Control_c, 0, 64, 0
4, 20246, Control_c, 0, 64, 127
4, 20667, Control_c, 0, 64, 0
4, 20737, Control_c, 0, 64, 127
4, 21120, Control_c, 0, 64, 0
4, 21219, Control_c, 0, 64, 127
4, 21855, Control_c, 0, 64, 0
4, 22179, Control_c, 0, 64, 127
4, 22581, Control_c, 0, 64, 0
4, 22673, Control_c, 0, 64, 127
4, 23044, Control_c, 0, 64, 0
4, 23334, Control_c, 0, 64, 127
4, 23478, Control_c, 0, 64, 0
4, 24086, Control_c, 0, 64, 127
4, 24507, Control_c, 0, 64, 0
4, 24577, Control_c, 0, 64, 127
4, 24960, Control_c, 0, 64, 0
4, 25059, Control_c, 0, 64, 127
4, 25695, Control_c, 0, 64, 0
4, 26019, Control_c, 0, 64, 127
4, 26884, Control_c, 0, 64, 0
4, 26965, Control_c, 0, 64, 127
4, 27139, Control_c, 0, 64, 0
4, 27890, Control_c, 0, 64, 127
4, 28339, Control_c, 0, 64, 0
4, 28426, Control_c, 0, 64, 127
4, 28809, Control_c, 0, 64, 0
4, 29059, Control_c, 0, 64, 0
4, 29810, Control_c, 0, 64, 127
4, 30259, Control_c, 0, 64, 0
4, 30346, Control_c, 0, 64, 127
4, 30729, Control_c, 0, 64, 0
4, 30979, Control_c, 0, 64, 0
4, 31800, Control_c, 0, 64, 127
4, 32181, Control_c, 0, 64, 0
4, 32252, Control_c, 0, 64, 127
4, 32644, Control_c, 0, 64, 0
4, 34650, Control_c, 0, 64, 127
4, 35069, Control_c, 0, 64, 0
4, 35606, Control_c, 0, 64, 127
4, 36027, Control_c, 0, 64, 0
4, 36097, Control_c, 0, 64, 127
4, 36480, Control_c, 0, 64, 0
4, 36579, Control_c, 0, 64, 127
4, 37215, Control_c, 0, 64, 0
4, 37539, Control_c, 0, 64, 127
4, 38404, Control_c, 0, 64, 0
4, 38533, Control_c, 0, 64, 127
4, 38979, Control_c, 0, 64, 0
4, 39446, Control_c, 0, 64, 127
4, 39867, Control_c, 0, 64, 0
4, 39937, Control_c, 0, 64, 127
4, 40208, Control_c, 0, 64, 0
4, 40252, Control_c, 0, 64, 127
4, 40323, Control_c, 0, 64, 0
4, 40560, Control_c, 0, 64, 127
4, 41300, Control_c, 0, 64, 0
4, 41366, Control_c, 0, 64, 127
4, 41787, Control_c, 0, 64, 0
4, 41857, Control_c, 0, 64, 127
4, 42128, Control_c, 0, 64, 0
4, 42172, Control_c, 0, 64, 127
4, 42243, Control_c, 0, 64, 0
4, 42480, Control_c, 0, 64, 127
4, 43189, Control_c, 0, 64, 0
4, 43286, Control_c, 0, 64, 127
4, 43707, Control_c, 0, 64, 0
4, 43777, Control_c, 0, 64, 127
4, 44160, Control_c, 0, 64, 0
4, 44259, Control_c, 0, 64, 127
4, 44895, Control_c, 0, 64, 0
4, 45219, Control_c, 0, 64, 127
4, 46084, Control_c, 0, 64, 0
4, 46144, Control_c, 0, 64, 127
4, 49236, Control_c, 0, 64, 0
4, 49236, End_track
5, 0, Start_track
5, 0, Title_t, "Mendelssohn: Songs without words Opus 30 No. 3"
5, 0, End_track
6, 0, Start_track
6, 0, Title_t, "Copyright © 2010 by Bernd Krueger"
6, 0, End_track
7, 0, Start_track
7, 0, Title_t, "http://www.piano-midi.de/"
7, 0, End_track
8, 0, Start_track
8, 0, Title_t, "Edition: 2015-02-23"
8, 0, End_track
9, 0, Start_track
9, 0, Title_t, "Spur 8"
9, 0, End_track
10, 0, Start_track
10, 0, Title_t, "Spur 9"
10, 0, End_track
11, 0, Start_track
11, 0, Title_t, "Spur 10"
11, 0, End_track
12, 0, Start_track
12, 0, Title_t, "Spur 11"
12, 0, End_track
13, 0, Start_track
13, 0, Title_t, "Spur 12"
13, 0, End_track
14, 0, Start_track
14, 0, Title_t, "Spur 13"
14, 0, End_track
15, 0, Start_track
15, 0, Title_t, "Spur 14"
15, 0, End_track
16, 0, Start_track
16, 0, Title_t, "Spur 15"
16, 0, End_track
17, 0, Start_track
17, 0, Title_t, "Spur 16"
17, 0, End_track
0, 0, End_of_file
