0, 0, Header, 1, 9, 480
1, 0, Start_track
1, 0, Title_t, "Lieder ohne Worte Op. 30 No. 1"
1, 0, Copyright_t, "Copyright © 2004 by Bernd Krueger"
1, 0, Text_t, "Mendelslsohn"
1, 0, Text_t, "Andante espressivo"
1, 0, Text_t, "Fertiggestellt am 3.1.2004\012"
1, 0, Text_t, "Update am 3.4.2014\012"
1, 0, Text_t, "Dauer: 4:19 Minuten\012"
1, 0, SMPTE_offset, 96, 0, 3, 0, 0
1, 0, Time_signature, 4, 2, 24, 8
1, 0, Key_signature, -3, "major"
1, 0, Tempo, 926641
1, 160, Tempo, 891663
1, 320, Tempo, 912270
1, 480, Tempo, 891663
1, 640, Tempo, 919540
1, 800, Tempo, 956480
1, 960, Tempo, 926641
1, 1120, Tempo, 891663
1, 1280, Tempo, 919540
1, 1440, Tempo, 891663
1, 1600, Tempo, 919540
1, 1760, Tempo, 1031282
1, 1920, Tempo, 926641
1, 2080, Tempo, 875912
1, 2240, Tempo, 912270
1, 2400, Tempo, 891663
1, 2560, Tempo, 919540
1, 2720, Tempo, 956480
1, 2880, Tempo, 926641
1, 3040, Tempo, 891663
1, 3200, Tempo, 919540
1, 3360, Tempo, 891663
1, 3520, Tempo, 919540
1, 3680, Tempo, 956480
1, 3840, Tempo, 926641
1, 4000, Tempo, 891663
1, 4160, Tempo, 912270
1, 4320, Tempo, 891663
1, 4480, Tempo, 919540
1, 4640, Tempo, 956480
1, 4800, Tempo, 926641
1, 4960, Tempo, 891663
1, 5120, Tempo, 937500
1, 5280, Tempo, 909091
1, 5440, Tempo, 952381
1, 5600, Tempo, 1008403
1, 5760, Tempo, 926641
1, 5920, Tempo, 891663
1, 6080, Tempo, 912270
1, 6240, Tempo, 891663
1, 6400, Tempo, 919540
1, 6560, Tempo, 956480
1, 6720, Tempo, 926641
1, 6880, Tempo, 891663
1, 7040, Tempo, 919540
1, 7200, Tempo, 891663
1, 7360, Tempo, 919540
1, 7520, Tempo, 956480
1, 7840, Tempo, 919540
1, 8000, Tempo, 941324
1, 8480, Tempo, 905387
1, 8640, Tempo, 964320
1, 8720, Tempo, 972132
1, 8760, Tempo, 980232
1, 8840, Tempo, 988305
1, 8880, Tempo, 996678
1, 8920, Tempo, 1005025
1, 9000, Tempo, 1013685
1, 9040, Tempo, 1022495
1, 9080, Tempo, 1031282
1, 9120, Tempo, 1059135
1, 9440, Tempo, 1151410
1, 9600, Tempo, 926641
1, 9760, Tempo, 869565
1, 9920, Tempo, 912270
1, 10080, Tempo, 891663
1, 10240, Tempo, 919540
1, 10400, Tempo, 956480
1, 10560, Tempo, 926641
1, 10720, Tempo, 891663
1, 10880, Tempo, 919540
1, 11040, Tempo, 869565
1, 11200, Tempo, 919540
1, 11360, Tempo, 956480
1, 11520, Tempo, 926641
1, 11680, Tempo, 891663
1, 11840, Tempo, 912270
1, 12000, Tempo, 891663
1, 12160, Tempo, 919540
1, 12320, Tempo, 956480
1, 12480, Tempo, 926641
1, 12640, Tempo, 891663
1, 12800, Tempo, 919540
1, 12960, Tempo, 891663
1, 13120, Tempo, 919540
1, 13280, Tempo, 956480
1, 13440, Tempo, 926641
1, 13600, Tempo, 891663
1, 13760, Tempo, 912270
1, 13920, Tempo, 891663
1, 14080, Tempo, 919540
1, 14240, Tempo, 956480
1, 14400, Tempo, 926641
1, 14560, Tempo, 891663
1, 14720, Tempo, 919540
1, 14880, Tempo, 891663
1, 15040, Tempo, 919540
1, 15200, Tempo, 956480
1, 15520, Tempo, 919540
1, 15680, Tempo, 941324
1, 16160, Tempo, 905387
1, 16340, Tempo, 948917
1, 16400, Tempo, 948917
1, 16440, Tempo, 956480
1, 16480, Tempo, 964320
1, 16520, Tempo, 972132
1, 16560, Tempo, 980232
1, 16600, Tempo, 988305
1, 16640, Tempo, 996678
1, 16680, Tempo, 1005025
1, 16720, Tempo, 1013685
1, 16760, Tempo, 1022495
1, 16800, Tempo, 1040402
1, 17120, Tempo, 1108443
1, 17280, Tempo, 926641
1, 17440, Tempo, 891663
1, 17600, Tempo, 912270
1, 17760, Tempo, 891663
1, 17920, Tempo, 919540
1, 18080, Tempo, 956480
1, 18240, Tempo, 926641
1, 18400, Tempo, 891663
1, 18560, Tempo, 878477
1, 18720, Tempo, 891663
1, 18880, Tempo, 919540
1, 19040, Tempo, 1013685
1, 19200, Tempo, 988305
1, 19360, Tempo, 919540
1, 19520, Tempo, 948917
1, 19680, Tempo, 891663
1, 19840, Tempo, 919540
1, 20000, Tempo, 933998
1, 20160, Tempo, 926641
1, 20320, Tempo, 891663
1, 20480, Tempo, 878477
1, 20640, Tempo, 891663
1, 20800, Tempo, 919540
1, 20960, Tempo, 956480
1, 21120, Tempo, 933998
1, 21280, Tempo, 898473
1, 21440, Tempo, 926641
1, 21760, Tempo, 912270
1, 21920, Tempo, 948917
1, 22240, Tempo, 926641
1, 22400, Tempo, 933998
1, 22500, Tempo, 941324
1, 22560, Tempo, 941324
1, 22600, Tempo, 948917
1, 22640, Tempo, 964320
1, 22680, Tempo, 980232
1, 22720, Tempo, 996678
1, 22760, Tempo, 1013685
1, 22800, Tempo, 1031282
1, 22840, Tempo, 1049501
1, 22860, Tempo, 1121495
1, 23000, Tempo, 980232
1, 23040, Tempo, 941324
1, 23200, Tempo, 912270
1, 23360, Tempo, 933998
1, 23520, Tempo, 891663
1, 23680, Tempo, 919540
1, 23840, Tempo, 956480
1, 24000, Tempo, 926641
1, 24160, Tempo, 869565
1, 24320, Tempo, 919540
1, 24480, Tempo, 891663
1, 24640, Tempo, 919540
1, 24800, Tempo, 956480
1, 24960, Tempo, 926641
1, 25120, Tempo, 869565
1, 25280, Tempo, 912270
1, 25440, Tempo, 891663
1, 25600, Tempo, 919540
1, 25760, Tempo, 996678
1, 25920, Tempo, 926641
1, 26080, Tempo, 863309
1, 26240, Tempo, 919540
1, 26400, Tempo, 891663
1, 26560, Tempo, 919540
1, 26720, Tempo, 956480
1, 26880, Tempo, 926641
1, 27040, Tempo, 891663
1, 27200, Tempo, 912270
1, 27360, Tempo, 891663
1, 27520, Tempo, 919540
1, 27680, Tempo, 956480
1, 27840, Tempo, 926641
1, 28000, Tempo, 891663
1, 28160, Tempo, 919540
1, 28320, Tempo, 891663
1, 28480, Tempo, 919540
1, 28640, Tempo, 956480
1, 28960, Tempo, 919540
1, 29120, Tempo, 941324
1, 29600, Tempo, 905387
1, 29760, Tempo, 948917
1, 29840, Tempo, 956480
1, 29880, Tempo, 964320
1, 29920, Tempo, 972132
1, 29960, Tempo, 980232
1, 30000, Tempo, 988305
1, 30040, Tempo, 996678
1, 30080, Tempo, 1005025
1, 30120, Tempo, 1013685
1, 30160, Tempo, 1022495
1, 30200, Tempo, 1031282
1, 30240, Tempo, 1040402
1, 30560, Tempo, 1224490
1, 30720, Tempo, 926641
1, 30880, Tempo, 891663
1, 31040, Tempo, 912270
1, 31200, Tempo, 891663
1, 31360, Tempo, 919540
1, 31520, Tempo, 956480
1, 31680, Tempo, 926641
1, 31840, Tempo, 875912
1, 32000, Tempo, 919540
1, 32160, Tempo, 891663
1, 32320, Tempo, 919540
1, 32480, Tempo, 956480
1, 32640, Tempo, 926641
1, 32800, Tempo, 891663
1, 32960, Tempo, 912270
1, 33120, Tempo, 891663
1, 33280, Tempo, 919540
1, 33440, Tempo, 956480
1, 33600, Tempo, 926641
1, 33760, Tempo, 891663
1, 33920, Tempo, 919540
1, 34080, Tempo, 916031
1, 34240, Tempo, 952381
1, 34400, Tempo, 956480
1, 34560, Tempo, 926641
1, 34720, Tempo, 891663
1, 34880, Tempo, 912270
1, 35040, Tempo, 891663
1, 35200, Tempo, 919540
1, 35360, Tempo, 956480
1, 35520, Tempo, 926641
1, 35680, Tempo, 891663
1, 35840, Tempo, 919540
1, 36000, Tempo, 923077
1, 36160, Tempo, 952381
1, 36320, Tempo, 991736
1, 36480, Tempo, 952381
1, 36640, Tempo, 919540
1, 36800, Tempo, 941324
1, 37280, Tempo, 905387
1, 37440, Tempo, 956480
1, 37520, Tempo, 964320
1, 37560, Tempo, 972132
1, 37600, Tempo, 980232
1, 37640, Tempo, 988305
1, 37680, Tempo, 996678
1, 37720, Tempo, 1005025
1, 37760, Tempo, 1013685
1, 37800, Tempo, 1022495
1, 37840, Tempo, 1031282
1, 37880, Tempo, 1040402
1, 37920, Tempo, 1049501
1, 38240, Tempo, 1140468
1, 38400, Tempo, 926641
1, 38560, Tempo, 891663
1, 38720, Tempo, 912270
1, 38880, Tempo, 891663
1, 39040, Tempo, 919540
1, 39200, Tempo, 956480
1, 39360, Tempo, 926641
1, 39520, Tempo, 891663
1, 39680, Tempo, 878477
1, 39840, Tempo, 891663
1, 40000, Tempo, 919540
1, 40160, Tempo, 1043478
1, 40320, Tempo, 964320
1, 40480, Tempo, 891663
1, 40640, Tempo, 912270
1, 40800, Tempo, 891663
1, 40960, Tempo, 919540
1, 41120, Tempo, 933998
1, 41280, Tempo, 926641
1, 41440, Tempo, 891663
1, 41600, Tempo, 878477
1, 41760, Tempo, 891663
1, 41920, Tempo, 919540
1, 42080, Tempo, 956480
1, 42240, Tempo, 933998
1, 42400, Tempo, 898473
1, 42560, Tempo, 926641
1, 42880, Tempo, 912270
1, 43040, Tempo, 948917
1, 43200, Tempo, 980232
1, 43360, Tempo, 937500
1, 43400, Tempo, 944882
1, 43420, Tempo, 952381
1, 43460, Tempo, 960000
1, 43480, Tempo, 967742
1, 43500, Tempo, 975610
1, 43540, Tempo, 983607
1, 43560, Tempo, 991736
1, 43580, Tempo, 1000000
1, 43620, Tempo, 1008403
1, 43640, Tempo, 1016949
1, 43660, Tempo, 1025641
1, 43680, Tempo, 1081081
1, 43840, Tempo, 933998
1, 44000, Tempo, 964320
1, 44120, Tempo, 980232
1, 44160, Tempo, 941324
1, 44320, Tempo, 919540
1, 44480, Tempo, 941324
1, 44640, Tempo, 905387
1, 44800, Tempo, 919540
1, 44980, Tempo, 948917
1, 45120, Tempo, 919540
1, 45440, Tempo, 898473
1, 45760, Tempo, 919540
1, 46080, Tempo, 941324
1, 46240, Tempo, 919540
1, 46400, Tempo, 996678
1, 46560, Tempo, 905387
1, 46720, Tempo, 919540
1, 46900, Tempo, 948917
1, 47040, Tempo, 919540
1, 47360, Tempo, 898473
1, 47680, Tempo, 919540
1, 48000, Tempo, 941324
1, 48160, Tempo, 919540
1, 48320, Tempo, 941324
1, 48480, Tempo, 905387
1, 48640, Tempo, 919540
1, 48820, Tempo, 948917
1, 48960, Tempo, 919540
1, 49280, Tempo, 898473
1, 49600, Tempo, 919540
1, 49920, Tempo, 941324
1, 50080, Tempo, 919540
1, 50240, Tempo, 996678
1, 50400, Tempo, 905387
1, 50560, Tempo, 919540
1, 50740, Tempo, 948917
1, 50880, Tempo, 919540
1, 51200, Tempo, 898473
1, 51520, Tempo, 919540
1, 51840, Tempo, 898473
1, 52160, Tempo, 933998
1, 52320, Tempo, 898473
1, 52480, Tempo, 926641
1, 52800, Tempo, 905387
1, 53120, Tempo, 933998
1, 53760, Tempo, 898473
1, 54080, Tempo, 933998
1, 54240, Tempo, 898473
1, 54400, Tempo, 944882
1, 54560, Tempo, 956480
1, 54720, Tempo, 912270
1, 55040, Tempo, 972132
1, 55200, Tempo, 885086
1, 55360, Tempo, 941324
1, 55520, Tempo, 1022495
1, 55680, Tempo, 898473
1, 56000, Tempo, 933998
1, 56160, Tempo, 898473
1, 56320, Tempo, 926641
1, 56640, Tempo, 905387
1, 56960, Tempo, 933998
1, 57280, Tempo, 905387
1, 57440, Tempo, 919540
1, 57600, Tempo, 898473
1, 57920, Tempo, 933998
1, 58080, Tempo, 898473
1, 58240, Tempo, 926641
1, 58560, Tempo, 905387
1, 58880, Tempo, 933998
1, 59200, Tempo, 905387
1, 59360, Tempo, 919540
1, 59520, Tempo, 905387
1, 59840, Tempo, 933998
1, 60160, Tempo, 905387
1, 60320, Tempo, 919540
1, 60480, Tempo, 905387
1, 60800, Tempo, 933998
1, 60960, Tempo, 912270
1, 61120, Tempo, 905387
1, 61280, Tempo, 919540
1, 61440, Tempo, 905387
1, 61600, Tempo, 905387
1, 61760, Tempo, 919540
1, 62400, Tempo, 948917
1, 62880, Tempo, 952381
1, 62900, Tempo, 960000
1, 62920, Tempo, 967742
1, 62940, Tempo, 975610
1, 62960, Tempo, 983607
1, 62980, Tempo, 991736
1, 63000, Tempo, 1000000
1, 63020, Tempo, 1008403
1, 63040, Tempo, 1016949
1, 63060, Tempo, 1025641
1, 63080, Tempo, 1034483
1, 63100, Tempo, 1043478
1, 63120, Tempo, 1052632
1, 63140, Tempo, 1061947
1, 63160, Tempo, 1071429
1, 63180, Tempo, 1081081
1, 63200, Tempo, 1090909
1, 63360, Tempo, 926641
1, 63520, Tempo, 891663
1, 63680, Tempo, 912270
1, 63840, Tempo, 891663
1, 64000, Tempo, 919540
1, 64160, Tempo, 956480
1, 64320, Tempo, 926641
1, 64480, Tempo, 891663
1, 64640, Tempo, 919540
1, 64800, Tempo, 891663
1, 64960, Tempo, 919540
1, 65120, Tempo, 956480
1, 65280, Tempo, 926641
1, 65440, Tempo, 869565
1, 65600, Tempo, 912270
1, 65760, Tempo, 891663
1, 65920, Tempo, 919540
1, 66080, Tempo, 956480
1, 66240, Tempo, 926641
1, 66400, Tempo, 891663
1, 66560, Tempo, 919540
1, 66720, Tempo, 891663
1, 66880, Tempo, 919540
1, 67040, Tempo, 956480
1, 67200, Tempo, 926641
1, 67360, Tempo, 891663
1, 67520, Tempo, 912270
1, 67680, Tempo, 891663
1, 67840, Tempo, 919540
1, 68000, Tempo, 956480
1, 68160, Tempo, 960000
1, 68320, Tempo, 923077
1, 68480, Tempo, 960000
1, 68640, Tempo, 916031
1, 68800, Tempo, 960000
1, 68960, Tempo, 1008403
1, 69120, Tempo, 960000
1, 69280, Tempo, 919540
1, 69440, Tempo, 941324
1, 69920, Tempo, 905387
1, 70080, Tempo, 956480
1, 70160, Tempo, 964320
1, 70200, Tempo, 972132
1, 70240, Tempo, 980232
1, 70280, Tempo, 988305
1, 70320, Tempo, 996678
1, 70360, Tempo, 1005025
1, 70400, Tempo, 1013685
1, 70440, Tempo, 1022495
1, 70480, Tempo, 1031282
1, 70520, Tempo, 1040402
1, 70560, Tempo, 1049501
1, 70880, Tempo, 1118985
1, 71040, Tempo, 956480
1, 71200, Tempo, 898473
1, 71360, Tempo, 933998
1, 71520, Tempo, 863309
1, 71680, Tempo, 926641
1, 72000, Tempo, 875912
1, 72320, Tempo, 933998
1, 72480, Tempo, 909091
1, 72800, Tempo, 944882
1, 72960, Tempo, 898473
1, 73280, Tempo, 933998
1, 73440, Tempo, 869565
1, 73600, Tempo, 926641
1, 73920, Tempo, 905387
1, 74240, Tempo, 933998
1, 74720, Tempo, 1005025
1, 74880, Tempo, 898473
1, 75200, Tempo, 933998
1, 75360, Tempo, 898473
1, 75520, Tempo, 926641
1, 75720, Tempo, 948917
1, 75840, Tempo, 905387
1, 76340, Tempo, 898473
1, 76380, Tempo, 905387
1, 76400, Tempo, 912270
1, 76420, Tempo, 919540
1, 76460, Tempo, 926641
1, 76480, Tempo, 933998
1, 76500, Tempo, 941324
1, 76520, Tempo, 948917
1, 76800, Tempo, 919540
1, 77120, Tempo, 972132
1, 77280, Tempo, 898473
1, 77300, Tempo, 919540
1, 77440, Tempo, 964320
1, 78240, Tempo, 1081081
1, 78400, Tempo, 933998
1, 78560, Tempo, 964320
1, 78680, Tempo, 980232
1, 78720, Tempo, 941324
1, 78880, Tempo, 919540
1, 79040, Tempo, 941324
1, 79200, Tempo, 905387
1, 79360, Tempo, 919540
1, 79540, Tempo, 948917
1, 79680, Tempo, 919540
1, 80000, Tempo, 898473
1, 80320, Tempo, 919540
1, 80640, Tempo, 941324
1, 80800, Tempo, 919540
1, 80960, Tempo, 941324
1, 81120, Tempo, 905387
1, 81280, Tempo, 919540
1, 81460, Tempo, 948917
1, 81600, Tempo, 919540
1, 81920, Tempo, 898473
1, 82240, Tempo, 919540
1, 82560, Tempo, 941324
1, 82720, Tempo, 919540
1, 82880, Tempo, 941324
1, 83040, Tempo, 905387
1, 83200, Tempo, 919540
1, 83380, Tempo, 948917
1, 83520, Tempo, 919540
1, 83840, Tempo, 898473
1, 84160, Tempo, 919540
1, 84480, Tempo, 941324
1, 84640, Tempo, 919540
1, 84800, Tempo, 941324
1, 84960, Tempo, 905387
1, 85120, Tempo, 919540
1, 85300, Tempo, 948917
1, 85440, Tempo, 919540
1, 85760, Tempo, 898473
1, 86080, Tempo, 919540
1, 86400, Tempo, 898473
1, 86720, Tempo, 933998
1, 86880, Tempo, 898473
1, 87040, Tempo, 926641
1, 87360, Tempo, 905387
1, 87680, Tempo, 933998
1, 88320, Tempo, 898473
1, 88640, Tempo, 933998
1, 88800, Tempo, 898473
1, 88960, Tempo, 926641
1, 89120, Tempo, 964320
1, 89280, Tempo, 919540
1, 89600, Tempo, 933998
1, 89760, Tempo, 898473
1, 89920, Tempo, 919540
1, 90080, Tempo, 1013685
1, 90240, Tempo, 898473
1, 90560, Tempo, 933998
1, 90720, Tempo, 898473
1, 90880, Tempo, 926641
1, 91200, Tempo, 905387
1, 91520, Tempo, 933998
1, 91840, Tempo, 905387
1, 92000, Tempo, 919540
1, 92160, Tempo, 898473
1, 92480, Tempo, 933998
1, 92640, Tempo, 898473
1, 92800, Tempo, 926641
1, 93120, Tempo, 905387
1, 93440, Tempo, 933998
1, 93760, Tempo, 905387
1, 93920, Tempo, 919540
1, 94080, Tempo, 905387
1, 94400, Tempo, 933998
1, 94720, Tempo, 905387
1, 94880, Tempo, 919540
1, 95040, Tempo, 905387
1, 95360, Tempo, 933998
1, 95520, Tempo, 912270
1, 95680, Tempo, 905387
1, 95840, Tempo, 919540
1, 96000, Tempo, 905387
1, 96160, Tempo, 905387
1, 96320, Tempo, 919540
1, 96960, Tempo, 941324
1, 97440, Tempo, 930233
1, 97480, Tempo, 937500
1, 97500, Tempo, 944882
1, 97540, Tempo, 952381
1, 97560, Tempo, 960000
1, 97600, Tempo, 967742
1, 97620, Tempo, 975610
1, 97660, Tempo, 983607
1, 97680, Tempo, 991736
1, 97720, Tempo, 1000000
1, 97740, Tempo, 1008403
1, 97760, Tempo, 1052632
1, 97920, Tempo, 926641
1, 98080, Tempo, 863309
1, 98240, Tempo, 912270
1, 98400, Tempo, 891663
1, 98560, Tempo, 919540
1, 98720, Tempo, 956480
1, 98880, Tempo, 926641
1, 99040, Tempo, 891663
1, 99200, Tempo, 919540
1, 99360, Tempo, 891663
1, 99520, Tempo, 919540
1, 99680, Tempo, 956480
1, 99840, Tempo, 926641
1, 100000, Tempo, 891663
1, 100160, Tempo, 912270
1, 100320, Tempo, 891663
1, 100480, Tempo, 919540
1, 100640, Tempo, 956480
1, 100800, Tempo, 926641
1, 100960, Tempo, 891663
1, 101120, Tempo, 952381
1, 101280, Tempo, 909091
1, 101440, Tempo, 944882
1, 101600, Tempo, 1008403
1, 101760, Tempo, 926641
1, 101920, Tempo, 891663
1, 102080, Tempo, 912270
1, 102240, Tempo, 891663
1, 102400, Tempo, 919540
1, 102560, Tempo, 956480
1, 102720, Tempo, 926641
1, 102880, Tempo, 891663
1, 103040, Tempo, 919540
1, 103200, Tempo, 891663
1, 103360, Tempo, 919540
1, 103520, Tempo, 956480
1, 103840, Tempo, 919540
1, 104000, Tempo, 941324
1, 104480, Tempo, 905387
1, 104660, Tempo, 948917
1, 104740, Tempo, 956480
1, 104820, Tempo, 964320
1, 104900, Tempo, 972132
1, 104920, Tempo, 975610
1, 104940, Tempo, 983607
1, 104960, Tempo, 1000000
1, 104980, Tempo, 1008403
1, 105000, Tempo, 1025641
1, 105020, Tempo, 1034483
1, 105040, Tempo, 1052632
1, 105060, Tempo, 1061947
1, 105080, Tempo, 1081081
1, 105120, Tempo, 991736
1, 105280, Tempo, 1071429
1, 105440, Tempo, 1142857
1, 105600, Tempo, 898473
1, 105760, Tempo, 857143
1, 105920, Tempo, 933998
1, 106080, Tempo, 875912
1, 106240, Tempo, 926641
1, 106560, Tempo, 882353
1, 106880, Tempo, 933998
1, 107040, Tempo, 909091
1, 107360, Tempo, 967742
1, 107520, Tempo, 898473
1, 107840, Tempo, 933998
1, 108000, Tempo, 898473
1, 108160, Tempo, 926641
1, 108480, Tempo, 905387
1, 108800, Tempo, 933998
1, 109440, Tempo, 898473
1, 109760, Tempo, 933998
1, 109920, Tempo, 898473
1, 110080, Tempo, 926641
1, 110280, Tempo, 948917
1, 110400, Tempo, 905387
1, 110900, Tempo, 898473
1, 110940, Tempo, 905387
1, 110960, Tempo, 912270
1, 110980, Tempo, 919540
1, 111020, Tempo, 926641
1, 111040, Tempo, 933998
1, 111060, Tempo, 941324
1, 111080, Tempo, 948917
1, 111360, Tempo, 926641
1, 111520, Tempo, 891663
1, 111680, Tempo, 912270
1, 111840, Tempo, 891663
1, 112000, Tempo, 919540
1, 112160, Tempo, 933998
1, 112320, Tempo, 926641
1, 112480, Tempo, 891663
1, 112640, Tempo, 878477
1, 112800, Tempo, 891663
1, 112960, Tempo, 919540
1, 113120, Tempo, 956480
1, 113280, Tempo, 926641
1, 113440, Tempo, 891663
1, 113600, Tempo, 912270
1, 113760, Tempo, 891663
1, 113920, Tempo, 919540
1, 114080, Tempo, 933998
1, 114240, Tempo, 926641
1, 114400, Tempo, 891663
1, 114560, Tempo, 878477
1, 114720, Tempo, 891663
1, 114880, Tempo, 919540
1, 115040, Tempo, 956480
1, 115200, Tempo, 926641
1, 115360, Tempo, 891663
1, 115520, Tempo, 912270
1, 115680, Tempo, 891663
1, 115840, Tempo, 919540
1, 116000, Tempo, 933998
1, 116160, Tempo, 926641
1, 116320, Tempo, 891663
1, 116480, Tempo, 878477
1, 116640, Tempo, 891663
1, 116800, Tempo, 912270
1, 116960, Tempo, 926641
1, 117120, Tempo, 926641
1, 117280, Tempo, 891663
1, 117440, Tempo, 912270
1, 117600, Tempo, 891663
1, 117760, Tempo, 919540
1, 117920, Tempo, 933998
1, 118080, Tempo, 919540
1, 118240, Tempo, 926641
1, 118400, Tempo, 1043478
1, 118560, Tempo, 975610
1, 118880, Tempo, 1052632
1, 119040, Tempo, 960000
1, 119200, Tempo, 891663
1, 119360, Tempo, 912270
1, 119520, Tempo, 869565
1, 119680, Tempo, 919540
1, 119840, Tempo, 956480
1, 120000, Tempo, 926641
1, 120160, Tempo, 891663
1, 120320, Tempo, 919540
1, 120480, Tempo, 891663
1, 120640, Tempo, 919540
1, 120800, Tempo, 956480
1, 120960, Tempo, 944882
1, 121120, Tempo, 875912
1, 121280, Tempo, 888889
1, 121440, Tempo, 875912
1, 121920, Tempo, 888889
1, 122080, Tempo, 937500
1, 122100, Tempo, 944882
1, 122120, Tempo, 952381
1, 122140, Tempo, 960000
1, 122160, Tempo, 975610
1, 122180, Tempo, 983607
1, 122200, Tempo, 991736
1, 122220, Tempo, 1000000
1, 122240, Tempo, 1016949
1, 122260, Tempo, 1025641
1, 122280, Tempo, 1034483
1, 122300, Tempo, 1043478
1, 122320, Tempo, 1061947
1, 122340, Tempo, 1071429
1, 122360, Tempo, 1081081
1, 122380, Tempo, 1090909
1, 122400, Tempo, 1111111
1, 122640, Tempo, 1363636
1, 122880, Tempo, 1140468
1, 123360, Tempo, 975610
1, 123600, Tempo, 1071429
1, 123840, Tempo, 1000000
1, 124080, Tempo, 1090909
1, 124320, Tempo, 1016949
1, 124560, Tempo, 1071429
1, 124800, Tempo, 975610
1, 124960, Tempo, 905387
1, 125120, Tempo, 926641
1, 125280, Tempo, 926641
1, 125440, Tempo, 905387
1, 125600, Tempo, 926641
1, 125760, Tempo, 905387
1, 125920, Tempo, 905387
1, 126080, Tempo, 926641
1, 126720, Tempo, 948917
1, 127040, Tempo, 964320
1, 127520, Tempo, 956480
1, 127680, Tempo, 1071429
1, 127900, Tempo, 1061947
1, 127940, Tempo, 1071429
1, 127960, Tempo, 1081081
1, 127980, Tempo, 1090909
1, 128020, Tempo, 1100917
1, 128040, Tempo, 1111111
1, 128060, Tempo, 1121495
1, 128100, Tempo, 1132075
1, 128120, Tempo, 1142857
1, 128140, Tempo, 1153846
1, 128160, Tempo, 1165049
1, 128180, Tempo, 1176471
1, 128200, Tempo, 1188119
1, 128220, Tempo, 1200000
1, 128240, Tempo, 1224490
1, 128260, Tempo, 1237113
1, 128280, Tempo, 1250000
1, 128300, Tempo, 1263158
1, 128320, Tempo, 1290323
1, 128340, Tempo, 1304348
1, 128360, Tempo, 1318681
1, 128380, Tempo, 1333333
1, 128400, Tempo, 1363636
1, 128420, Tempo, 1379310
1, 128440, Tempo, 1395349
1, 128460, Tempo, 1428571
1, 128480, Tempo, 2181818
1, 128640, Tempo, 1162791
1, 130560, Tempo, 926641
1, 131389, Tempo, 937500
1, 132480, Tempo, 1000000
1, 132480, End_track
2, 0, Start_track
2, 0, Title_t, "Theme"
2, 0, Program_c, 0, 0
2, 0, Control_c, 0, 7, 127
2, 0, Control_c, 0, 10, 64
2, 0, Text_t, "bdca426d104a26ac9dcb070447587523"
2, 0, Control_c, 0, 91, 127
2, 1440, Note_on_c, 0, 63, 51
2, 1920, Note_on_c, 0, 63, 0
2, 1920, Note_on_c, 0, 67, 56
2, 2640, Note_on_c, 0, 67, 0
2, 2640, Note_on_c, 0, 68, 50
2, 2880, Note_on_c, 0, 68, 0
2, 2880, Note_on_c, 0, 70, 62
2, 3360, Note_on_c, 0, 70, 0
2, 3360, Note_on_c, 0, 63, 52
2, 3840, Note_on_c, 0, 63, 0
2, 3840, Note_on_c, 0, 68, 56
2, 4320, Note_on_c, 0, 68, 0
2, 4320, Note_on_c, 0, 62, 40
2, 4800, Note_on_c, 0, 62, 0
2, 4800, Note_on_c, 0, 63, 62
2, 5520, Note_on_c, 0, 63, 0
2, 5520, Note_on_c, 0, 62, 58
2, 5760, Note_on_c, 0, 62, 0
2, 5760, Note_on_c, 0, 60, 64
2, 6480, Note_on_c, 0, 60, 0
2, 6480, Note_on_c, 0, 65, 59
2, 6720, Note_on_c, 0, 65, 0
2, 6720, Note_on_c, 0, 68, 63
2, 7440, Note_on_c, 0, 68, 0
2, 7440, Note_on_c, 0, 65, 66
2, 7680, Note_on_c, 0, 65, 0
2, 7680, Note_on_c, 0, 75, 76
2, 8160, Note_on_c, 0, 75, 0
2, 8160, Note_on_c, 0, 74, 70
2, 8880, Note_on_c, 0, 74, 0
2, 8880, Note_on_c, 0, 72, 53
2, 9120, Note_on_c, 0, 72, 0
2, 9120, Note_on_c, 0, 70, 51
2, 9360, Note_on_c, 0, 70, 0
2, 9360, Note_on_c, 0, 68, 46
2, 9600, Note_on_c, 0, 68, 0
2, 9600, Note_on_c, 0, 67, 52
2, 10320, Note_on_c, 0, 67, 0
2, 10320, Note_on_c, 0, 68, 51
2, 10560, Note_on_c, 0, 68, 0
2, 10560, Note_on_c, 0, 70, 56
2, 11040, Note_on_c, 0, 70, 0
2, 11040, Note_on_c, 0, 63, 52
2, 11520, Note_on_c, 0, 63, 0
2, 11520, Note_on_c, 0, 68, 56
2, 12000, Note_on_c, 0, 68, 0
2, 12000, Note_on_c, 0, 62, 42
2, 12480, Note_on_c, 0, 62, 0
2, 12480, Note_on_c, 0, 63, 62
2, 13200, Note_on_c, 0, 63, 0
2, 13200, Note_on_c, 0, 63, 58
2, 13440, Note_on_c, 0, 63, 0
2, 13440, Note_on_c, 0, 65, 64
2, 14080, Note_on_c, 0, 65, 0
2, 14080, Note_on_c, 0, 63, 60
2, 14240, Note_on_c, 0, 63, 0
2, 14240, Note_on_c, 0, 62, 58
2, 14400, Note_on_c, 0, 62, 0
2, 14400, Note_on_c, 0, 60, 63
2, 14640, Note_on_c, 0, 60, 0
2, 14640, Note_on_c, 0, 63, 60
2, 14880, Note_on_c, 0, 63, 0
2, 14880, Note_on_c, 0, 67, 66
2, 15120, Note_on_c, 0, 67, 0
2, 15120, Note_on_c, 0, 72, 71
2, 15360, Note_on_c, 0, 72, 0
2, 15360, Note_on_c, 0, 77, 76
2, 16000, Note_on_c, 0, 77, 0
2, 16000, Note_on_c, 0, 75, 65
2, 16160, Note_on_c, 0, 75, 0
2, 16160, Note_on_c, 0, 74, 62
2, 16320, Note_on_c, 0, 74, 0
2, 16320, Note_on_c, 0, 72, 63
2, 16560, Note_on_c, 0, 72, 0
2, 16560, Note_on_c, 0, 67, 54
2, 16800, Note_on_c, 0, 67, 0
2, 16800, Note_on_c, 0, 69, 57
2, 17040, Note_on_c, 0, 69, 0
2, 17040, Note_on_c, 0, 70, 54
2, 17280, Note_on_c, 0, 70, 0
2, 17280, Note_on_c, 0, 70, 56
2, 17760, Note_on_c, 0, 70, 0
2, 17760, Note_on_c, 0, 65, 49
2, 18240, Note_on_c, 0, 65, 0
2, 18240, Note_on_c, 0, 65, 56
2, 18720, Note_on_c, 0, 65, 0
2, 18720, Note_on_c, 0, 65, 54
2, 19200, Note_on_c, 0, 65, 0
2, 19200, Note_on_c, 0, 72, 59
2, 20160, Note_on_c, 0, 72, 0
2, 20160, Note_on_c, 0, 70, 56
2, 21120, Note_on_c, 0, 70, 0
2, 22560, Note_on_c, 0, 58, 36
2, 23040, Note_on_c, 0, 58, 0
2, 23040, Note_on_c, 0, 67, 56
2, 23760, Note_on_c, 0, 67, 0
2, 23760, Note_on_c, 0, 68, 50
2, 24000, Note_on_c, 0, 68, 0
2, 24000, Note_on_c, 0, 70, 62
2, 24480, Note_on_c, 0, 70, 0
2, 24480, Note_on_c, 0, 63, 52
2, 24960, Note_on_c, 0, 63, 0
2, 24960, Note_on_c, 0, 68, 56
2, 25440, Note_on_c, 0, 68, 0
2, 25440, Note_on_c, 0, 62, 40
2, 25920, Note_on_c, 0, 62, 0
2, 25920, Note_on_c, 0, 63, 62
2, 26640, Note_on_c, 0, 63, 0
2, 26640, Note_on_c, 0, 62, 58
2, 26880, Note_on_c, 0, 62, 0
2, 26880, Note_on_c, 0, 60, 64
2, 27600, Note_on_c, 0, 60, 0
2, 27600, Note_on_c, 0, 65, 59
2, 27840, Note_on_c, 0, 65, 0
2, 27840, Note_on_c, 0, 68, 63
2, 28560, Note_on_c, 0, 68, 0
2, 28560, Note_on_c, 0, 65, 66
2, 28800, Note_on_c, 0, 65, 0
2, 28800, Note_on_c, 0, 75, 77
2, 29280, Note_on_c, 0, 75, 0
2, 29280, Note_on_c, 0, 74, 70
2, 30000, Note_on_c, 0, 74, 0
2, 30000, Note_on_c, 0, 72, 53
2, 30240, Note_on_c, 0, 72, 0
2, 30240, Note_on_c, 0, 70, 51
2, 30480, Note_on_c, 0, 70, 0
2, 30480, Note_on_c, 0, 68, 49
2, 30720, Note_on_c, 0, 68, 0
2, 30720, Note_on_c, 0, 67, 52
2, 31440, Note_on_c, 0, 67, 0
2, 31440, Note_on_c, 0, 68, 51
2, 31680, Note_on_c, 0, 68, 0
2, 31680, Note_on_c, 0, 70, 62
2, 32160, Note_on_c, 0, 70, 0
2, 32160, Note_on_c, 0, 63, 52
2, 32640, Note_on_c, 0, 63, 0
2, 32640, Note_on_c, 0, 68, 56
2, 33120, Note_on_c, 0, 68, 0
2, 33120, Note_on_c, 0, 62, 42
2, 33600, Note_on_c, 0, 62, 0
2, 33600, Note_on_c, 0, 63, 62
2, 34320, Note_on_c, 0, 63, 0
2, 34320, Note_on_c, 0, 63, 58
2, 34560, Note_on_c, 0, 63, 0
2, 34560, Note_on_c, 0, 65, 64
2, 35200, Note_on_c, 0, 65, 0
2, 35200, Note_on_c, 0, 63, 60
2, 35360, Note_on_c, 0, 63, 0
2, 35360, Note_on_c, 0, 62, 58
2, 35520, Note_on_c, 0, 62, 0
2, 35520, Note_on_c, 0, 60, 63
2, 35760, Note_on_c, 0, 60, 0
2, 35760, Note_on_c, 0, 63, 60
2, 36000, Note_on_c, 0, 63, 0
2, 36000, Note_on_c, 0, 67, 66
2, 36240, Note_on_c, 0, 67, 0
2, 36240, Note_on_c, 0, 72, 72
2, 36480, Note_on_c, 0, 72, 0
2, 36480, Note_on_c, 0, 77, 77
2, 37120, Note_on_c, 0, 77, 0
2, 37120, Note_on_c, 0, 75, 65
2, 37280, Note_on_c, 0, 75, 0
2, 37280, Note_on_c, 0, 74, 62
2, 37440, Note_on_c, 0, 74, 0
2, 37440, Note_on_c, 0, 72, 63
2, 37680, Note_on_c, 0, 72, 0
2, 37680, Note_on_c, 0, 67, 53
2, 37920, Note_on_c, 0, 67, 0
2, 37920, Note_on_c, 0, 69, 58
2, 38160, Note_on_c, 0, 69, 0
2, 38160, Note_on_c, 0, 70, 52
2, 38400, Note_on_c, 0, 70, 0
2, 38400, Note_on_c, 0, 70, 56
2, 38880, Note_on_c, 0, 70, 0
2, 38880, Note_on_c, 0, 65, 49
2, 39360, Note_on_c, 0, 65, 0
2, 39360, Note_on_c, 0, 65, 56
2, 39840, Note_on_c, 0, 65, 0
2, 39840, Note_on_c, 0, 65, 54
2, 40320, Note_on_c, 0, 65, 0
2, 40320, Note_on_c, 0, 72, 59
2, 41280, Note_on_c, 0, 72, 0
2, 41280, Note_on_c, 0, 70, 56
2, 42240, Note_on_c, 0, 70, 0
2, 43840, Note_on_c, 0, 66, 46
2, 44000, Note_on_c, 0, 66, 0
2, 44000, Note_on_c, 0, 68, 50
2, 44160, Note_on_c, 0, 68, 0
2, 44160, Note_on_c, 0, 70, 57
2, 44640, Note_on_c, 0, 70, 0
2, 44640, Note_on_c, 0, 71, 69
2, 45000, Note_on_c, 0, 71, 0
2, 45000, Note_on_c, 0, 68, 54
2, 45120, Note_on_c, 0, 68, 0
2, 45120, Note_on_c, 0, 65, 52
2, 45760, Note_on_c, 0, 65, 0
2, 45760, Note_on_c, 0, 66, 54
2, 45880, Note_on_c, 0, 66, 0
2, 45920, Note_on_c, 0, 68, 59
2, 46040, Note_on_c, 0, 68, 0
2, 46080, Note_on_c, 0, 70, 70
2, 46560, Note_on_c, 0, 70, 0
2, 46560, Note_on_c, 0, 75, 77
2, 46920, Note_on_c, 0, 75, 0
2, 46920, Note_on_c, 0, 71, 59
2, 47040, Note_on_c, 0, 71, 0
2, 47040, Note_on_c, 0, 68, 57
2, 47680, Note_on_c, 0, 68, 0
2, 47680, Note_on_c, 0, 66, 49
2, 47800, Note_on_c, 0, 66, 0
2, 47840, Note_on_c, 0, 68, 50
2, 47960, Note_on_c, 0, 68, 0
2, 48000, Note_on_c, 0, 70, 57
2, 48480, Note_on_c, 0, 70, 0
2, 48480, Note_on_c, 0, 71, 69
2, 48840, Note_on_c, 0, 71, 0
2, 48840, Note_on_c, 0, 68, 54
2, 48960, Note_on_c, 0, 68, 0
2, 48960, Note_on_c, 0, 65, 52
2, 49600, Note_on_c, 0, 65, 0
2, 49600, Note_on_c, 0, 66, 59
2, 49720, Note_on_c, 0, 66, 0
2, 49760, Note_on_c, 0, 68, 65
2, 49880, Note_on_c, 0, 68, 0
2, 49920, Note_on_c, 0, 70, 74
2, 50400, Note_on_c, 0, 70, 0
2, 50400, Note_on_c, 0, 75, 82
2, 50760, Note_on_c, 0, 75, 0
2, 50760, Note_on_c, 0, 71, 59
2, 50880, Note_on_c, 0, 71, 0
2, 50880, Note_on_c, 0, 68, 70
2, 51520, Note_on_c, 0, 68, 0
2, 51520, Note_on_c, 0, 66, 70
2, 51520, Note_on_c, 0, 70, 78
2, 51640, Note_on_c, 0, 70, 0
2, 51640, Note_on_c, 0, 66, 0
2, 51680, Note_on_c, 0, 68, 72
2, 51680, Note_on_c, 0, 71, 81
2, 51800, Note_on_c, 0, 71, 0
2, 51800, Note_on_c, 0, 68, 0
2, 51840, Note_on_c, 0, 70, 77
2, 51840, Note_on_c, 0, 73, 86
2, 52320, Note_on_c, 0, 73, 0
2, 52320, Note_on_c, 0, 70, 0
2, 52320, Note_on_c, 0, 66, 75
2, 52320, Note_on_c, 0, 70, 82
2, 52680, Note_on_c, 0, 70, 0
2, 52680, Note_on_c, 0, 66, 0
2, 52680, Note_on_c, 0, 78, 82
2, 52800, Note_on_c, 0, 78, 0
2, 52800, Note_on_c, 0, 71, 71
2, 52800, Note_on_c, 0, 66, 71
2, 52800, Note_on_c, 0, 78, 82
2, 53280, Note_on_c, 0, 78, 0
2, 53280, Note_on_c, 0, 66, 0
2, 53280, Note_on_c, 0, 65, 70
2, 53280, Note_on_c, 0, 77, 80
2, 53760, Note_on_c, 0, 77, 0
2, 53760, Note_on_c, 0, 65, 0
2, 53760, Note_on_c, 0, 71, 0
2, 53760, Note_on_c, 0, 70, 77
2, 53760, Note_on_c, 0, 73, 86
2, 54240, Note_on_c, 0, 73, 0
2, 54240, Note_on_c, 0, 70, 0
2, 54240, Note_on_c, 0, 66, 75
2, 54240, Note_on_c, 0, 70, 82
2, 54600, Note_on_c, 0, 70, 0
2, 54600, Note_on_c, 0, 66, 0
2, 54600, Note_on_c, 0, 78, 62
2, 54720, Note_on_c, 0, 78, 0
2, 54720, Note_on_c, 0, 71, 55
2, 54720, Note_on_c, 0, 66, 55
2, 54720, Note_on_c, 0, 78, 63
2, 55200, Note_on_c, 0, 78, 0
2, 55200, Note_on_c, 0, 66, 0
2, 55200, Note_on_c, 0, 65, 49
2, 55200, Note_on_c, 0, 77, 55
2, 55680, Note_on_c, 0, 77, 0
2, 55680, Note_on_c, 0, 65, 0
2, 55680, Note_on_c, 0, 71, 0
2, 55680, Note_on_c, 0, 66, 53
2, 55680, Note_on_c, 0, 70, 59
2, 56160, Note_on_c, 0, 70, 0
2, 56160, Note_on_c, 0, 66, 0
2, 56160, Note_on_c, 0, 63, 55
2, 56160, Note_on_c, 0, 66, 55
2, 56520, Note_on_c, 0, 66, 0
2, 56520, Note_on_c, 0, 63, 0
2, 56520, Note_on_c, 0, 71, 63
2, 56520, Note_on_c, 0, 75, 63
2, 56634, Note_on_c, 0, 75, 0
2, 56634, Note_on_c, 0, 71, 0
2, 56640, Note_on_c, 0, 71, 70
2, 56640, Note_on_c, 0, 68, 62
2, 56640, Note_on_c, 0, 63, 62
2, 56640, Note_on_c, 0, 75, 70
2, 57120, Note_on_c, 0, 63, 0
2, 57120, Note_on_c, 0, 68, 0
2, 57280, Note_on_c, 0, 71, 0
2, 57280, Note_on_c, 0, 75, 0
2, 57280, Note_on_c, 0, 70, 55
2, 57280, Note_on_c, 0, 73, 55
2, 57440, Note_on_c, 0, 73, 0
2, 57440, Note_on_c, 0, 70, 0
2, 57440, Note_on_c, 0, 68, 55
2, 57440, Note_on_c, 0, 71, 55
2, 57600, Note_on_c, 0, 71, 0
2, 57600, Note_on_c, 0, 68, 0
2, 57600, Note_on_c, 0, 66, 53
2, 57600, Note_on_c, 0, 70, 59
2, 58080, Note_on_c, 0, 70, 0
2, 58080, Note_on_c, 0, 66, 0
2, 58080, Note_on_c, 0, 63, 55
2, 58080, Note_on_c, 0, 66, 55
2, 58440, Note_on_c, 0, 66, 0
2, 58440, Note_on_c, 0, 63, 0
2, 58440, Note_on_c, 0, 71, 63
2, 58440, Note_on_c, 0, 75, 63
2, 58554, Note_on_c, 0, 75, 0
2, 58554, Note_on_c, 0, 71, 0
2, 58560, Note_on_c, 0, 71, 68
2, 58560, Note_on_c, 0, 68, 68
2, 58560, Note_on_c, 0, 63, 68
2, 58560, Note_on_c, 0, 75, 76
2, 59040, Note_on_c, 0, 63, 0
2, 59040, Note_on_c, 0, 68, 0
2, 59200, Note_on_c, 0, 71, 0
2, 59200, Note_on_c, 0, 75, 0
2, 59200, Note_on_c, 0, 70, 73
2, 59200, Note_on_c, 0, 73, 73
2, 59360, Note_on_c, 0, 73, 0
2, 59360, Note_on_c, 0, 70, 0
2, 59360, Note_on_c, 0, 68, 71
2, 59360, Note_on_c, 0, 71, 71
2, 59512, Note_on_c, 0, 71, 0
2, 59512, Note_on_c, 0, 68, 0
2, 59520, Note_on_c, 0, 71, 74
2, 59520, Note_on_c, 0, 68, 68
2, 59520, Note_on_c, 0, 63, 68
2, 59520, Note_on_c, 0, 75, 77
2, 60000, Note_on_c, 0, 63, 0
2, 60000, Note_on_c, 0, 68, 0
2, 60160, Note_on_c, 0, 71, 0
2, 60160, Note_on_c, 0, 75, 0
2, 60160, Note_on_c, 0, 70, 73
2, 60160, Note_on_c, 0, 73, 73
2, 60320, Note_on_c, 0, 73, 0
2, 60320, Note_on_c, 0, 70, 0
2, 60320, Note_on_c, 0, 68, 71
2, 60320, Note_on_c, 0, 71, 71
2, 60472, Note_on_c, 0, 71, 0
2, 60472, Note_on_c, 0, 68, 0
2, 60480, Note_on_c, 0, 71, 74
2, 60480, Note_on_c, 0, 68, 74
2, 60480, Note_on_c, 0, 63, 74
2, 60480, Note_on_c, 0, 75, 77
2, 62160, Note_on_c, 0, 75, 0
2, 62160, Note_on_c, 0, 71, 0
2, 62160, Note_on_c, 0, 68, 0
2, 62160, Note_on_c, 0, 63, 0
2, 62160, Note_on_c, 0, 74, 52
2, 62400, Note_on_c, 0, 74, 0
2, 62400, Note_on_c, 0, 77, 57
2, 62640, Note_on_c, 0, 77, 0
2, 62640, Note_on_c, 0, 75, 52
2, 62880, Note_on_c, 0, 75, 0
2, 62880, Note_on_c, 0, 71, 44
2, 63120, Note_on_c, 0, 71, 0
2, 63120, Note_on_c, 0, 68, 42
2, 63360, Note_on_c, 0, 68, 0
2, 63360, Note_on_c, 0, 67, 46
2, 64080, Note_on_c, 0, 67, 0
2, 64080, Note_on_c, 0, 68, 50
2, 64320, Note_on_c, 0, 68, 0
2, 64320, Note_on_c, 0, 70, 62
2, 64800, Note_on_c, 0, 70, 0
2, 64800, Note_on_c, 0, 63, 52
2, 65280, Note_on_c, 0, 63, 0
2, 65280, Note_on_c, 0, 68, 56
2, 65760, Note_on_c, 0, 68, 0
2, 65760, Note_on_c, 0, 62, 40
2, 66240, Note_on_c, 0, 62, 0
2, 66240, Note_on_c, 0, 63, 62
2, 66960, Note_on_c, 0, 63, 0
2, 66960, Note_on_c, 0, 62, 58
2, 67200, Note_on_c, 0, 62, 0
2, 67200, Note_on_c, 0, 60, 67
2, 67920, Note_on_c, 0, 60, 0
2, 67920, Note_on_c, 0, 65, 64
2, 68160, Note_on_c, 0, 65, 0
2, 68160, Note_on_c, 0, 68, 75
2, 68389, Note_on_c, 0, 72, 73
2, 68400, Note_on_c, 0, 68, 0
2, 68629, Note_on_c, 0, 72, 0
2, 68640, Note_on_c, 0, 79, 78
2, 69000, Note_on_c, 0, 79, 0
2, 69000, Note_on_c, 0, 77, 73
2, 69120, Note_on_c, 0, 77, 0
2, 69120, Note_on_c, 0, 75, 77
2, 69600, Note_on_c, 0, 75, 0
2, 69600, Note_on_c, 0, 74, 70
2, 70560, Note_on_c, 0, 74, 0
2, 70560, Note_on_c, 0, 74, 55
2, 70720, Note_on_c, 0, 74, 0
2, 70720, Note_on_c, 0, 72, 51
2, 70880, Note_on_c, 0, 72, 0
2, 70880, Note_on_c, 0, 70, 48
2, 71040, Note_on_c, 0, 70, 0
2, 71040, Note_on_c, 0, 67, 44
2, 71040, Note_on_c, 0, 70, 51
2, 71520, Note_on_c, 0, 70, 0
2, 71520, Note_on_c, 0, 67, 0
2, 71520, Note_on_c, 0, 63, 48
2, 71520, Note_on_c, 0, 67, 67
2, 71880, Note_on_c, 0, 67, 0
2, 71880, Note_on_c, 0, 63, 0
2, 71880, Note_on_c, 0, 75, 72
2, 71994, Note_on_c, 0, 75, 0
2, 72000, Note_on_c, 0, 68, 64
2, 72000, Note_on_c, 0, 63, 64
2, 72000, Note_on_c, 0, 75, 72
2, 72480, Note_on_c, 0, 75, 0
2, 72480, Note_on_c, 0, 63, 0
2, 72480, Note_on_c, 0, 62, 55
2, 72480, Note_on_c, 0, 74, 60
2, 72960, Note_on_c, 0, 74, 0
2, 72960, Note_on_c, 0, 62, 0
2, 72960, Note_on_c, 0, 68, 0
2, 72960, Note_on_c, 0, 67, 58
2, 72960, Note_on_c, 0, 70, 66
2, 73440, Note_on_c, 0, 70, 0
2, 73440, Note_on_c, 0, 67, 0
2, 73440, Note_on_c, 0, 63, 57
2, 73440, Note_on_c, 0, 67, 64
2, 73800, Note_on_c, 0, 67, 0
2, 73800, Note_on_c, 0, 63, 0
2, 73800, Note_on_c, 0, 75, 64
2, 73914, Note_on_c, 0, 75, 0
2, 73920, Note_on_c, 0, 68, 56
2, 73920, Note_on_c, 0, 63, 56
2, 73920, Note_on_c, 0, 75, 63
2, 74400, Note_on_c, 0, 75, 0
2, 74400, Note_on_c, 0, 63, 0
2, 74400, Note_on_c, 0, 62, 44
2, 74400, Note_on_c, 0, 74, 49
2, 74880, Note_on_c, 0, 74, 0
2, 74880, Note_on_c, 0, 62, 0
2, 74880, Note_on_c, 0, 68, 0
2, 74880, Note_on_c, 0, 63, 52
2, 74880, Note_on_c, 0, 67, 52
2, 75360, Note_on_c, 0, 67, 0
2, 75360, Note_on_c, 0, 63, 0
2, 75360, Note_on_c, 0, 60, 51
2, 75360, Note_on_c, 0, 63, 51
2, 75720, Note_on_c, 0, 63, 0
2, 75720, Note_on_c, 0, 60, 0
2, 75720, Note_on_c, 0, 67, 52
2, 75720, Note_on_c, 0, 70, 52
2, 75834, Note_on_c, 0, 70, 0
2, 75834, Note_on_c, 0, 67, 0
2, 75840, Note_on_c, 0, 60, 46
2, 75840, Note_on_c, 0, 67, 52
2, 75840, Note_on_c, 0, 70, 52
2, 76080, Note_on_c, 0, 70, 0
2, 76080, Note_on_c, 0, 67, 0
2, 76080, Note_on_c, 0, 65, 46
2, 76080, Note_on_c, 0, 68, 46
2, 76320, Note_on_c, 0, 68, 0
2, 76320, Note_on_c, 0, 65, 0
2, 76320, Note_on_c, 0, 60, 0
2, 76320, Note_on_c, 0, 63, 49
2, 76320, Note_on_c, 0, 67, 49
2, 76560, Note_on_c, 0, 67, 0
2, 76560, Note_on_c, 0, 63, 0
2, 76560, Note_on_c, 0, 62, 43
2, 76560, Note_on_c, 0, 65, 43
2, 76800, Note_on_c, 0, 65, 0
2, 76800, Note_on_c, 0, 62, 0
2, 76800, Note_on_c, 0, 56, 38
2, 76800, Note_on_c, 0, 58, 38
2, 76800, Note_on_c, 0, 65, 43
2, 77760, Note_on_c, 0, 65, 0
2, 77760, Note_on_c, 0, 58, 0
2, 77760, Note_on_c, 0, 56, 0
2, 77760, Note_on_c, 0, 55, 33
2, 77760, Note_on_c, 0, 58, 33
2, 77760, Note_on_c, 0, 63, 38
2, 78240, Note_on_c, 0, 63, 0
2, 78240, Note_on_c, 0, 58, 0
2, 78240, Note_on_c, 0, 55, 0
2, 78400, Note_on_c, 0, 66, 46
2, 78400, Note_on_c, 0, 63, 46
2, 78560, Note_on_c, 0, 63, 0
2, 78560, Note_on_c, 0, 66, 0
2, 78560, Note_on_c, 0, 68, 50
2, 78560, Note_on_c, 0, 65, 50
2, 78720, Note_on_c, 0, 65, 0
2, 78720, Note_on_c, 0, 68, 0
2, 78720, Note_on_c, 0, 70, 57
2, 79200, Note_on_c, 0, 70, 0
2, 79200, Note_on_c, 0, 71, 69
2, 79560, Note_on_c, 0, 71, 0
2, 79560, Note_on_c, 0, 68, 54
2, 79680, Note_on_c, 0, 68, 0
2, 79680, Note_on_c, 0, 65, 52
2, 80320, Note_on_c, 0, 65, 0
2, 80320, Note_on_c, 0, 66, 54
2, 80440, Note_on_c, 0, 66, 0
2, 80480, Note_on_c, 0, 68, 59
2, 80600, Note_on_c, 0, 68, 0
2, 80640, Note_on_c, 0, 70, 68
2, 81120, Note_on_c, 0, 70, 0
2, 81120, Note_on_c, 0, 75, 82
2, 81480, Note_on_c, 0, 75, 0
2, 81480, Note_on_c, 0, 71, 59
2, 81600, Note_on_c, 0, 71, 0
2, 81600, Note_on_c, 0, 68, 57
2, 82240, Note_on_c, 0, 68, 0
2, 82240, Note_on_c, 0, 66, 49
2, 82360, Note_on_c, 0, 66, 0
2, 82400, Note_on_c, 0, 68, 50
2, 82520, Note_on_c, 0, 68, 0
2, 82560, Note_on_c, 0, 70, 57
2, 83040, Note_on_c, 0, 70, 0
2, 83040, Note_on_c, 0, 71, 69
2, 83400, Note_on_c, 0, 71, 0
2, 83400, Note_on_c, 0, 68, 54
2, 83520, Note_on_c, 0, 68, 0
2, 83520, Note_on_c, 0, 65, 52
2, 84160, Note_on_c, 0, 65, 0
2, 84160, Note_on_c, 0, 66, 59
2, 84280, Note_on_c, 0, 66, 0
2, 84320, Note_on_c, 0, 68, 65
2, 84440, Note_on_c, 0, 68, 0
2, 84480, Note_on_c, 0, 70, 74
2, 84960, Note_on_c, 0, 70, 0
2, 84960, Note_on_c, 0, 75, 82
2, 85320, Note_on_c, 0, 75, 0
2, 85320, Note_on_c, 0, 71, 59
2, 85440, Note_on_c, 0, 71, 0
2, 85440, Note_on_c, 0, 68, 70
2, 86080, Note_on_c, 0, 68, 0
2, 86080, Note_on_c, 0, 66, 70
2, 86080, Note_on_c, 0, 70, 78
2, 86200, Note_on_c, 0, 70, 0
2, 86200, Note_on_c, 0, 66, 0
2, 86240, Note_on_c, 0, 68, 72
2, 86240, Note_on_c, 0, 71, 81
2, 86360, Note_on_c, 0, 71, 0
2, 86360, Note_on_c, 0, 68, 0
2, 86400, Note_on_c, 0, 70, 77
2, 86400, Note_on_c, 0, 73, 86
2, 86880, Note_on_c, 0, 73, 0
2, 86880, Note_on_c, 0, 70, 0
2, 86880, Note_on_c, 0, 66, 75
2, 86880, Note_on_c, 0, 70, 82
2, 87240, Note_on_c, 0, 70, 0
2, 87240, Note_on_c, 0, 66, 0
2, 87240, Note_on_c, 0, 78, 82
2, 87354, Note_on_c, 0, 78, 0
2, 87360, Note_on_c, 0, 71, 71
2, 87360, Note_on_c, 0, 66, 70
2, 87360, Note_on_c, 0, 78, 82
2, 87840, Note_on_c, 0, 78, 0
2, 87840, Note_on_c, 0, 66, 0
2, 87840, Note_on_c, 0, 65, 70
2, 87840, Note_on_c, 0, 77, 80
2, 88320, Note_on_c, 0, 77, 0
2, 88320, Note_on_c, 0, 65, 0
2, 88320, Note_on_c, 0, 71, 0
2, 88320, Note_on_c, 0, 70, 77
2, 88320, Note_on_c, 0, 73, 86
2, 88800, Note_on_c, 0, 73, 0
2, 88800, Note_on_c, 0, 70, 0
2, 88800, Note_on_c, 0, 66, 75
2, 88800, Note_on_c, 0, 70, 82
2, 89160, Note_on_c, 0, 70, 0
2, 89160, Note_on_c, 0, 66, 0
2, 89160, Note_on_c, 0, 78, 62
2, 89274, Note_on_c, 0, 78, 0
2, 89280, Note_on_c, 0, 71, 55
2, 89280, Note_on_c, 0, 66, 55
2, 89280, Note_on_c, 0, 78, 63
2, 89760, Note_on_c, 0, 78, 0
2, 89760, Note_on_c, 0, 66, 0
2, 89760, Note_on_c, 0, 65, 49
2, 89760, Note_on_c, 0, 77, 55
2, 90240, Note_on_c, 0, 77, 0
2, 90240, Note_on_c, 0, 65, 0
2, 90240, Note_on_c, 0, 71, 0
2, 90240, Note_on_c, 0, 66, 53
2, 90240, Note_on_c, 0, 70, 59
2, 90720, Note_on_c, 0, 70, 0
2, 90720, Note_on_c, 0, 66, 0
2, 90720, Note_on_c, 0, 63, 55
2, 90720, Note_on_c, 0, 66, 55
2, 91080, Note_on_c, 0, 66, 0
2, 91080, Note_on_c, 0, 63, 0
2, 91080, Note_on_c, 0, 71, 63
2, 91080, Note_on_c, 0, 75, 63
2, 91194, Note_on_c, 0, 75, 0
2, 91194, Note_on_c, 0, 71, 0
2, 91200, Note_on_c, 0, 71, 70
2, 91200, Note_on_c, 0, 68, 62
2, 91200, Note_on_c, 0, 63, 62
2, 91200, Note_on_c, 0, 75, 70
2, 91680, Note_on_c, 0, 63, 0
2, 91680, Note_on_c, 0, 68, 0
2, 91840, Note_on_c, 0, 71, 0
2, 91840, Note_on_c, 0, 75, 0
2, 91840, Note_on_c, 0, 70, 55
2, 91840, Note_on_c, 0, 73, 55
2, 92000, Note_on_c, 0, 73, 0
2, 92000, Note_on_c, 0, 70, 0
2, 92000, Note_on_c, 0, 68, 55
2, 92000, Note_on_c, 0, 71, 55
2, 92160, Note_on_c, 0, 71, 0
2, 92160, Note_on_c, 0, 68, 0
2, 92160, Note_on_c, 0, 66, 53
2, 92160, Note_on_c, 0, 70, 59
2, 92640, Note_on_c, 0, 70, 0
2, 92640, Note_on_c, 0, 66, 0
2, 92640, Note_on_c, 0, 63, 55
2, 92640, Note_on_c, 0, 66, 55
2, 93000, Note_on_c, 0, 66, 0
2, 93000, Note_on_c, 0, 63, 0
2, 93000, Note_on_c, 0, 71, 63
2, 93000, Note_on_c, 0, 75, 63
2, 93114, Note_on_c, 0, 75, 0
2, 93114, Note_on_c, 0, 71, 0
2, 93120, Note_on_c, 0, 71, 68
2, 93120, Note_on_c, 0, 68, 68
2, 93120, Note_on_c, 0, 63, 68
2, 93120, Note_on_c, 0, 75, 76
2, 93600, Note_on_c, 0, 63, 0
2, 93600, Note_on_c, 0, 68, 0
2, 93760, Note_on_c, 0, 71, 0
2, 93760, Note_on_c, 0, 75, 0
2, 93760, Note_on_c, 0, 70, 73
2, 93760, Note_on_c, 0, 73, 73
2, 93920, Note_on_c, 0, 73, 0
2, 93920, Note_on_c, 0, 70, 0
2, 93920, Note_on_c, 0, 68, 71
2, 93920, Note_on_c, 0, 71, 71
2, 94080, Note_on_c, 0, 71, 0
2, 94080, Note_on_c, 0, 68, 0
2, 94080, Note_on_c, 0, 71, 74
2, 94080, Note_on_c, 0, 68, 68
2, 94080, Note_on_c, 0, 63, 68
2, 94080, Note_on_c, 0, 75, 76
2, 94560, Note_on_c, 0, 63, 0
2, 94560, Note_on_c, 0, 68, 0
2, 94720, Note_on_c, 0, 71, 0
2, 94720, Note_on_c, 0, 75, 0
2, 94720, Note_on_c, 0, 70, 73
2, 94720, Note_on_c, 0, 73, 73
2, 94880, Note_on_c, 0, 73, 0
2, 94880, Note_on_c, 0, 70, 0
2, 94880, Note_on_c, 0, 68, 71
2, 94880, Note_on_c, 0, 71, 71
2, 95032, Note_on_c, 0, 71, 0
2, 95032, Note_on_c, 0, 68, 0
2, 95040, Note_on_c, 0, 71, 74
2, 95040, Note_on_c, 0, 68, 74
2, 95040, Note_on_c, 0, 63, 74
2, 95040, Note_on_c, 0, 75, 76
2, 96720, Note_on_c, 0, 75, 0
2, 96720, Note_on_c, 0, 71, 0
2, 96720, Note_on_c, 0, 68, 0
2, 96720, Note_on_c, 0, 63, 0
2, 96720, Note_on_c, 0, 74, 55
2, 96960, Note_on_c, 0, 74, 0
2, 96960, Note_on_c, 0, 77, 58
2, 97200, Note_on_c, 0, 77, 0
2, 97200, Note_on_c, 0, 75, 54
2, 97440, Note_on_c, 0, 75, 0
2, 97440, Note_on_c, 0, 71, 44
2, 97680, Note_on_c, 0, 71, 0
2, 97680, Note_on_c, 0, 68, 42
2, 97920, Note_on_c, 0, 68, 0
2, 97920, Note_on_c, 0, 67, 50
2, 98640, Note_on_c, 0, 67, 0
2, 98640, Note_on_c, 0, 68, 50
2, 98880, Note_on_c, 0, 68, 0
2, 98880, Note_on_c, 0, 70, 62
2, 99360, Note_on_c, 0, 70, 0
2, 99360, Note_on_c, 0, 63, 52
2, 99840, Note_on_c, 0, 63, 0
2, 99840, Note_on_c, 0, 68, 56
2, 100320, Note_on_c, 0, 68, 0
2, 100320, Note_on_c, 0, 62, 40
2, 100800, Note_on_c, 0, 62, 0
2, 100800, Note_on_c, 0, 63, 62
2, 101520, Note_on_c, 0, 63, 0
2, 101520, Note_on_c, 0, 62, 58
2, 101760, Note_on_c, 0, 62, 0
2, 101760, Note_on_c, 0, 60, 67
2, 102480, Note_on_c, 0, 60, 0
2, 102480, Note_on_c, 0, 65, 64
2, 102720, Note_on_c, 0, 65, 0
2, 102720, Note_on_c, 0, 68, 75
2, 102949, Note_on_c, 0, 72, 71
2, 102960, Note_on_c, 0, 68, 0
2, 103189, Note_on_c, 0, 72, 0
2, 103200, Note_on_c, 0, 79, 77
2, 103560, Note_on_c, 0, 79, 0
2, 103560, Note_on_c, 0, 77, 73
2, 103680, Note_on_c, 0, 77, 0
2, 103680, Note_on_c, 0, 75, 77
2, 104160, Note_on_c, 0, 75, 0
2, 104160, Note_on_c, 0, 74, 70
2, 105120, Note_on_c, 0, 74, 0
2, 105120, Note_on_c, 0, 74, 55
2, 105280, Note_on_c, 0, 74, 0
2, 105280, Note_on_c, 0, 72, 51
2, 105440, Note_on_c, 0, 72, 0
2, 105440, Note_on_c, 0, 70, 48
2, 105600, Note_on_c, 0, 70, 0
2, 105600, Note_on_c, 0, 67, 46
2, 105600, Note_on_c, 0, 70, 50
2, 106080, Note_on_c, 0, 70, 0
2, 106080, Note_on_c, 0, 67, 0
2, 106080, Note_on_c, 0, 63, 54
2, 106080, Note_on_c, 0, 67, 58
2, 106440, Note_on_c, 0, 67, 0
2, 106440, Note_on_c, 0, 63, 0
2, 106440, Note_on_c, 0, 75, 72
2, 106554, Note_on_c, 0, 75, 0
2, 106560, Note_on_c, 0, 68, 64
2, 106560, Note_on_c, 0, 63, 64
2, 106560, Note_on_c, 0, 75, 72
2, 107040, Note_on_c, 0, 75, 0
2, 107040, Note_on_c, 0, 63, 0
2, 107040, Note_on_c, 0, 62, 55
2, 107040, Note_on_c, 0, 74, 60
2, 107520, Note_on_c, 0, 74, 0
2, 107520, Note_on_c, 0, 62, 0
2, 107520, Note_on_c, 0, 68, 0
2, 107520, Note_on_c, 0, 67, 58
2, 107520, Note_on_c, 0, 70, 66
2, 108000, Note_on_c, 0, 70, 0
2, 108000, Note_on_c, 0, 67, 0
2, 108000, Note_on_c, 0, 63, 57
2, 108000, Note_on_c, 0, 67, 64
2, 108360, Note_on_c, 0, 67, 0
2, 108360, Note_on_c, 0, 63, 0
2, 108360, Note_on_c, 0, 75, 64
2, 108474, Note_on_c, 0, 75, 0
2, 108480, Note_on_c, 0, 68, 56
2, 108480, Note_on_c, 0, 63, 56
2, 108480, Note_on_c, 0, 75, 63
2, 108960, Note_on_c, 0, 75, 0
2, 108960, Note_on_c, 0, 63, 0
2, 108960, Note_on_c, 0, 62, 44
2, 108960, Note_on_c, 0, 74, 49
2, 109440, Note_on_c, 0, 74, 0
2, 109440, Note_on_c, 0, 62, 0
2, 109440, Note_on_c, 0, 68, 0
2, 109440, Note_on_c, 0, 63, 52
2, 109440, Note_on_c, 0, 67, 52
2, 109920, Note_on_c, 0, 67, 0
2, 109920, Note_on_c, 0, 63, 0
2, 109920, Note_on_c, 0, 60, 51
2, 109920, Note_on_c, 0, 63, 51
2, 110280, Note_on_c, 0, 63, 0
2, 110280, Note_on_c, 0, 60, 0
2, 110280, Note_on_c, 0, 67, 52
2, 110280, Note_on_c, 0, 70, 52
2, 110400, Note_on_c, 0, 70, 0
2, 110400, Note_on_c, 0, 67, 0
2, 110400, Note_on_c, 0, 60, 46
2, 110400, Note_on_c, 0, 67, 52
2, 110400, Note_on_c, 0, 70, 52
2, 110640, Note_on_c, 0, 70, 0
2, 110640, Note_on_c, 0, 67, 0
2, 110640, Note_on_c, 0, 65, 46
2, 110640, Note_on_c, 0, 68, 46
2, 110880, Note_on_c, 0, 68, 0
2, 110880, Note_on_c, 0, 65, 0
2, 110880, Note_on_c, 0, 60, 0
2, 110880, Note_on_c, 0, 63, 49
2, 110880, Note_on_c, 0, 67, 49
2, 111120, Note_on_c, 0, 67, 0
2, 111120, Note_on_c, 0, 63, 0
2, 111120, Note_on_c, 0, 62, 43
2, 111120, Note_on_c, 0, 65, 43
2, 111360, Note_on_c, 0, 65, 0
2, 111360, Note_on_c, 0, 62, 0
2, 111360, Note_on_c, 0, 65, 54
2, 112320, Note_on_c, 0, 65, 0
2, 112320, Note_on_c, 0, 63, 52
2, 113280, Note_on_c, 0, 63, 0
2, 113760, Note_on_c, 0, 75, 66
2, 114720, Note_on_c, 0, 75, 0
2, 114720, Note_on_c, 0, 67, 58
2, 115200, Note_on_c, 0, 67, 0
2, 115200, Note_on_c, 0, 70, 66
2, 115680, Note_on_c, 0, 70, 0
2, 115680, Note_on_c, 0, 68, 62
2, 116160, Note_on_c, 0, 68, 0
2, 116400, Note_on_c, 0, 68, 58
2, 116640, Note_on_c, 0, 68, 0
2, 116640, Note_on_c, 0, 68, 60
2, 116880, Note_on_c, 0, 68, 0
2, 116880, Note_on_c, 0, 65, 57
2, 117120, Note_on_c, 0, 65, 0
2, 117120, Note_on_c, 0, 63, 69
2, 118080, Note_on_c, 0, 63, 0
2, 118080, Note_on_c, 0, 62, 66
2, 118320, Note_on_c, 0, 62, 0
2, 118560, Note_on_c, 0, 58, 71
2, 119040, Note_on_c, 0, 58, 0
2, 119040, Note_on_c, 0, 67, 76
2, 119760, Note_on_c, 0, 67, 0
2, 119760, Note_on_c, 0, 68, 69
2, 120000, Note_on_c, 0, 68, 0
2, 120000, Note_on_c, 0, 70, 76
2, 120480, Note_on_c, 0, 70, 0
2, 120480, Note_on_c, 0, 63, 72
2, 120960, Note_on_c, 0, 63, 0
2, 120960, Note_on_c, 0, 68, 79
2, 122880, Note_on_c, 0, 68, 0
2, 123360, Note_on_c, 0, 68, 48
2, 123600, Note_on_c, 0, 68, 0
2, 123600, Note_on_c, 0, 67, 43
2, 123840, Note_on_c, 0, 67, 0
2, 123840, Note_on_c, 0, 67, 46
2, 124080, Note_on_c, 0, 67, 0
2, 124080, Note_on_c, 0, 65, 44
2, 124320, Note_on_c, 0, 65, 0
2, 124320, Note_on_c, 0, 63, 41
2, 124540, Note_on_c, 0, 63, 0
2, 124560, Note_on_c, 0, 62, 39
2, 124780, Note_on_c, 0, 62, 0
2, 124800, Note_on_c, 0, 65, 48
2, 126240, Note_on_c, 0, 65, 0
2, 126240, Note_on_c, 0, 63, 48
2, 126720, Note_on_c, 0, 63, 0
2, 126720, Note_on_c, 0, 63, 48
2, 130560, Note_on_c, 0, 63, 0
2, 130560, End_track
3, 0, Start_track
3, 0, Title_t, "Piano right"
3, 0, Program_c, 0, 0
3, 0, Control_c, 0, 7, 127
3, 0, Control_c, 0, 10, 64
3, 160, Note_on_c, 0, 55, 32
3, 320, Note_on_c, 0, 55, 0
3, 320, Note_on_c, 0, 58, 31
3, 480, Note_on_c, 0, 58, 0
3, 480, Note_on_c, 0, 63, 33
3, 640, Note_on_c, 0, 63, 0
3, 640, Note_on_c, 0, 58, 31
3, 800, Note_on_c, 0, 58, 0
3, 800, Note_on_c, 0, 55, 31
3, 960, Note_on_c, 0, 55, 0
3, 1120, Note_on_c, 0, 55, 31
3, 1280, Note_on_c, 0, 55, 0
3, 1280, Note_on_c, 0, 58, 31
3, 1440, Note_on_c, 0, 58, 0
3, 1600, Note_on_c, 0, 58, 30
3, 1760, Note_on_c, 0, 58, 0
3, 1760, Note_on_c, 0, 55, 30
3, 1920, Note_on_c, 0, 55, 0
3, 2080, Note_on_c, 0, 55, 32
3, 2240, Note_on_c, 0, 55, 0
3, 2240, Note_on_c, 0, 58, 31
3, 2400, Note_on_c, 0, 58, 0
3, 2400, Note_on_c, 0, 63, 37
3, 2560, Note_on_c, 0, 63, 0
3, 2560, Note_on_c, 0, 58, 31
3, 2720, Note_on_c, 0, 58, 0
3, 2720, Note_on_c, 0, 55, 31
3, 2880, Note_on_c, 0, 55, 0
3, 3040, Note_on_c, 0, 55, 31
3, 3200, Note_on_c, 0, 55, 0
3, 3200, Note_on_c, 0, 58, 31
3, 3360, Note_on_c, 0, 58, 0
3, 3520, Note_on_c, 0, 58, 30
3, 3680, Note_on_c, 0, 58, 0
3, 3680, Note_on_c, 0, 55, 30
3, 3840, Note_on_c, 0, 55, 0
3, 4000, Note_on_c, 0, 56, 32
3, 4160, Note_on_c, 0, 56, 0
3, 4160, Note_on_c, 0, 58, 31
3, 4320, Note_on_c, 0, 58, 0
3, 4480, Note_on_c, 0, 58, 31
3, 4640, Note_on_c, 0, 58, 0
3, 4640, Note_on_c, 0, 56, 31
3, 4800, Note_on_c, 0, 56, 0
3, 8160, Note_on_c, 0, 68, 36
3, 8320, Note_on_c, 0, 68, 0
3, 8320, Note_on_c, 0, 65, 36
3, 8480, Note_on_c, 0, 65, 0
3, 8480, Note_on_c, 0, 62, 31
3, 8640, Note_on_c, 0, 62, 0
3, 8640, Note_on_c, 0, 68, 33
3, 8800, Note_on_c, 0, 68, 0
3, 8800, Note_on_c, 0, 65, 29
3, 8960, Note_on_c, 0, 65, 0
3, 8960, Note_on_c, 0, 62, 29
3, 9120, Note_on_c, 0, 62, 0
3, 9120, Note_on_c, 0, 68, 27
3, 9280, Note_on_c, 0, 68, 0
3, 9280, Note_on_c, 0, 65, 27
3, 9440, Note_on_c, 0, 65, 0
3, 9440, Note_on_c, 0, 62, 23
3, 9600, Note_on_c, 0, 62, 0
3, 9760, Note_on_c, 0, 55, 30
3, 9920, Note_on_c, 0, 55, 0
3, 9920, Note_on_c, 0, 58, 30
3, 10080, Note_on_c, 0, 58, 0
3, 10080, Note_on_c, 0, 63, 38
3, 10240, Note_on_c, 0, 63, 0
3, 10240, Note_on_c, 0, 58, 31
3, 10400, Note_on_c, 0, 58, 0
3, 10400, Note_on_c, 0, 55, 31
3, 10560, Note_on_c, 0, 55, 0
3, 10720, Note_on_c, 0, 55, 31
3, 10880, Note_on_c, 0, 55, 0
3, 10880, Note_on_c, 0, 58, 31
3, 11040, Note_on_c, 0, 58, 0
3, 11200, Note_on_c, 0, 58, 30
3, 11360, Note_on_c, 0, 58, 0
3, 11360, Note_on_c, 0, 55, 30
3, 11520, Note_on_c, 0, 55, 0
3, 11680, Note_on_c, 0, 56, 32
3, 11840, Note_on_c, 0, 56, 0
3, 11840, Note_on_c, 0, 58, 31
3, 12000, Note_on_c, 0, 58, 0
3, 12160, Note_on_c, 0, 58, 31
3, 12320, Note_on_c, 0, 58, 0
3, 12320, Note_on_c, 0, 56, 31
3, 12480, Note_on_c, 0, 56, 0
3, 15520, Note_on_c, 0, 65, 45
3, 15680, Note_on_c, 0, 65, 0
3, 15680, Note_on_c, 0, 67, 45
3, 15840, Note_on_c, 0, 67, 0
3, 15840, Note_on_c, 0, 71, 36
3, 16000, Note_on_c, 0, 71, 0
3, 16000, Note_on_c, 0, 67, 45
3, 16160, Note_on_c, 0, 67, 0
3, 16160, Note_on_c, 0, 65, 44
3, 16320, Note_on_c, 0, 65, 0
3, 17440, Note_on_c, 0, 58, 32
3, 17600, Note_on_c, 0, 58, 0
3, 17600, Note_on_c, 0, 62, 31
3, 17760, Note_on_c, 0, 62, 0
3, 17920, Note_on_c, 0, 62, 31
3, 18080, Note_on_c, 0, 62, 0
3, 18080, Note_on_c, 0, 58, 31
3, 18240, Note_on_c, 0, 58, 0
3, 18400, Note_on_c, 0, 57, 32
3, 18560, Note_on_c, 0, 57, 0
3, 18560, Note_on_c, 0, 60, 31
3, 18720, Note_on_c, 0, 60, 0
3, 18880, Note_on_c, 0, 60, 32
3, 19040, Note_on_c, 0, 60, 0
3, 19040, Note_on_c, 0, 57, 31
3, 19200, Note_on_c, 0, 57, 0
3, 19360, Note_on_c, 0, 62, 32
3, 19520, Note_on_c, 0, 62, 0
3, 19520, Note_on_c, 0, 63, 31
3, 19680, Note_on_c, 0, 63, 0
3, 19680, Note_on_c, 0, 65, 33
3, 19840, Note_on_c, 0, 65, 0
3, 19840, Note_on_c, 0, 62, 31
3, 20000, Note_on_c, 0, 62, 0
3, 20000, Note_on_c, 0, 63, 31
3, 20160, Note_on_c, 0, 63, 0
3, 20160, Note_on_c, 0, 65, 37
3, 20320, Note_on_c, 0, 65, 0
3, 20320, Note_on_c, 0, 62, 32
3, 20480, Note_on_c, 0, 62, 0
3, 20480, Note_on_c, 0, 63, 31
3, 20640, Note_on_c, 0, 63, 0
3, 20640, Note_on_c, 0, 65, 36
3, 20800, Note_on_c, 0, 65, 0
3, 20800, Note_on_c, 0, 68, 37
3, 20960, Note_on_c, 0, 68, 0
3, 20960, Note_on_c, 0, 67, 31
3, 21120, Note_on_c, 0, 67, 0
3, 21120, Note_on_c, 0, 65, 36
3, 21280, Note_on_c, 0, 65, 0
3, 21280, Note_on_c, 0, 68, 35
3, 21440, Note_on_c, 0, 68, 0
3, 21440, Note_on_c, 0, 67, 35
3, 21600, Note_on_c, 0, 67, 0
3, 21600, Note_on_c, 0, 65, 36
3, 21760, Note_on_c, 0, 65, 0
3, 21760, Note_on_c, 0, 63, 33
3, 21920, Note_on_c, 0, 63, 0
3, 21920, Note_on_c, 0, 62, 33
3, 22080, Note_on_c, 0, 62, 0
3, 22080, Note_on_c, 0, 60, 36
3, 22240, Note_on_c, 0, 60, 0
3, 22240, Note_on_c, 0, 58, 35
3, 22400, Note_on_c, 0, 58, 0
3, 22400, Note_on_c, 0, 57, 33
3, 22560, Note_on_c, 0, 57, 0
3, 22560, Note_on_c, 0, 56, 38
3, 22720, Note_on_c, 0, 56, 0
3, 22720, Note_on_c, 0, 55, 31
3, 22880, Note_on_c, 0, 55, 0
3, 22880, Note_on_c, 0, 56, 30
3, 23040, Note_on_c, 0, 56, 0
3, 23200, Note_on_c, 0, 55, 32
3, 23360, Note_on_c, 0, 55, 0
3, 23360, Note_on_c, 0, 58, 31
3, 23520, Note_on_c, 0, 58, 0
3, 23520, Note_on_c, 0, 63, 38
3, 23680, Note_on_c, 0, 63, 0
3, 23680, Note_on_c, 0, 58, 31
3, 23840, Note_on_c, 0, 58, 0
3, 23840, Note_on_c, 0, 55, 31
3, 24000, Note_on_c, 0, 55, 0
3, 24160, Note_on_c, 0, 55, 31
3, 24320, Note_on_c, 0, 55, 0
3, 24320, Note_on_c, 0, 58, 31
3, 24480, Note_on_c, 0, 58, 0
3, 24640, Note_on_c, 0, 58, 30
3, 24800, Note_on_c, 0, 58, 0
3, 24800, Note_on_c, 0, 55, 30
3, 24960, Note_on_c, 0, 55, 0
3, 25120, Note_on_c, 0, 56, 32
3, 25280, Note_on_c, 0, 56, 0
3, 25280, Note_on_c, 0, 58, 31
3, 25440, Note_on_c, 0, 58, 0
3, 25600, Note_on_c, 0, 58, 31
3, 25760, Note_on_c, 0, 58, 0
3, 25760, Note_on_c, 0, 56, 31
3, 25920, Note_on_c, 0, 56, 0
3, 29280, Note_on_c, 0, 68, 36
3, 29440, Note_on_c, 0, 68, 0
3, 29440, Note_on_c, 0, 65, 36
3, 29600, Note_on_c, 0, 65, 0
3, 29600, Note_on_c, 0, 62, 31
3, 29760, Note_on_c, 0, 62, 0
3, 29760, Note_on_c, 0, 68, 33
3, 29920, Note_on_c, 0, 68, 0
3, 29920, Note_on_c, 0, 65, 29
3, 30080, Note_on_c, 0, 65, 0
3, 30080, Note_on_c, 0, 62, 29
3, 30240, Note_on_c, 0, 62, 0
3, 30240, Note_on_c, 0, 68, 27
3, 30400, Note_on_c, 0, 68, 0
3, 30400, Note_on_c, 0, 65, 27
3, 30560, Note_on_c, 0, 65, 0
3, 30560, Note_on_c, 0, 62, 23
3, 30720, Note_on_c, 0, 62, 0
3, 30880, Note_on_c, 0, 55, 32
3, 31040, Note_on_c, 0, 55, 0
3, 31040, Note_on_c, 0, 58, 31
3, 31200, Note_on_c, 0, 58, 0
3, 31200, Note_on_c, 0, 63, 38
3, 31360, Note_on_c, 0, 63, 0
3, 31360, Note_on_c, 0, 58, 31
3, 31520, Note_on_c, 0, 58, 0
3, 31520, Note_on_c, 0, 55, 31
3, 31680, Note_on_c, 0, 55, 0
3, 31840, Note_on_c, 0, 55, 31
3, 32000, Note_on_c, 0, 55, 0
3, 32000, Note_on_c, 0, 58, 31
3, 32160, Note_on_c, 0, 58, 0
3, 32320, Note_on_c, 0, 58, 30
3, 32480, Note_on_c, 0, 58, 0
3, 32480, Note_on_c, 0, 55, 30
3, 32640, Note_on_c, 0, 55, 0
3, 32800, Note_on_c, 0, 56, 32
3, 32960, Note_on_c, 0, 56, 0
3, 32960, Note_on_c, 0, 58, 31
3, 33120, Note_on_c, 0, 58, 0
3, 33280, Note_on_c, 0, 58, 31
3, 33440, Note_on_c, 0, 58, 0
3, 33440, Note_on_c, 0, 56, 31
3, 33600, Note_on_c, 0, 56, 0
3, 36640, Note_on_c, 0, 65, 45
3, 36800, Note_on_c, 0, 65, 0
3, 36800, Note_on_c, 0, 67, 45
3, 36960, Note_on_c, 0, 67, 0
3, 36960, Note_on_c, 0, 71, 36
3, 37120, Note_on_c, 0, 71, 0
3, 37120, Note_on_c, 0, 67, 45
3, 37280, Note_on_c, 0, 67, 0
3, 37280, Note_on_c, 0, 65, 44
3, 37440, Note_on_c, 0, 65, 0
3, 38560, Note_on_c, 0, 58, 32
3, 38720, Note_on_c, 0, 58, 0
3, 38720, Note_on_c, 0, 62, 31
3, 38880, Note_on_c, 0, 62, 0
3, 39040, Note_on_c, 0, 62, 31
3, 39200, Note_on_c, 0, 62, 0
3, 39200, Note_on_c, 0, 58, 31
3, 39360, Note_on_c, 0, 58, 0
3, 39520, Note_on_c, 0, 57, 32
3, 39680, Note_on_c, 0, 57, 0
3, 39680, Note_on_c, 0, 60, 31
3, 39840, Note_on_c, 0, 60, 0
3, 40000, Note_on_c, 0, 60, 32
3, 40160, Note_on_c, 0, 60, 0
3, 40160, Note_on_c, 0, 57, 31
3, 40320, Note_on_c, 0, 57, 0
3, 40480, Note_on_c, 0, 62, 32
3, 40640, Note_on_c, 0, 62, 0
3, 40640, Note_on_c, 0, 63, 31
3, 40800, Note_on_c, 0, 63, 0
3, 40800, Note_on_c, 0, 65, 33
3, 40960, Note_on_c, 0, 65, 0
3, 40960, Note_on_c, 0, 62, 31
3, 41120, Note_on_c, 0, 62, 0
3, 41120, Note_on_c, 0, 63, 31
3, 41280, Note_on_c, 0, 63, 0
3, 41280, Note_on_c, 0, 65, 37
3, 41440, Note_on_c, 0, 65, 0
3, 41440, Note_on_c, 0, 62, 32
3, 41600, Note_on_c, 0, 62, 0
3, 41600, Note_on_c, 0, 63, 31
3, 41760, Note_on_c, 0, 63, 0
3, 41760, Note_on_c, 0, 65, 36
3, 41920, Note_on_c, 0, 65, 0
3, 41920, Note_on_c, 0, 68, 37
3, 42080, Note_on_c, 0, 68, 0
3, 42080, Note_on_c, 0, 67, 31
3, 42240, Note_on_c, 0, 67, 0
3, 42240, Note_on_c, 0, 65, 36
3, 42400, Note_on_c, 0, 65, 0
3, 42400, Note_on_c, 0, 68, 35
3, 42560, Note_on_c, 0, 68, 0
3, 42560, Note_on_c, 0, 67, 35
3, 42720, Note_on_c, 0, 67, 0
3, 42720, Note_on_c, 0, 65, 36
3, 42880, Note_on_c, 0, 65, 0
3, 42880, Note_on_c, 0, 63, 33
3, 43040, Note_on_c, 0, 63, 0
3, 43040, Note_on_c, 0, 62, 33
3, 43200, Note_on_c, 0, 62, 0
3, 43200, Note_on_c, 0, 60, 36
3, 43360, Note_on_c, 0, 60, 0
3, 43360, Note_on_c, 0, 58, 35
3, 43520, Note_on_c, 0, 58, 0
3, 43520, Note_on_c, 0, 57, 33
3, 43680, Note_on_c, 0, 57, 0
3, 43680, Note_on_c, 0, 58, 38
3, 43840, Note_on_c, 0, 58, 0
3, 43840, Note_on_c, 0, 63, 41
3, 44000, Note_on_c, 0, 63, 0
3, 44000, Note_on_c, 0, 65, 45
3, 44160, Note_on_c, 0, 65, 0
3, 44160, Note_on_c, 0, 66, 51
3, 44320, Note_on_c, 0, 66, 0
3, 44320, Note_on_c, 0, 58, 37
3, 44480, Note_on_c, 0, 58, 0
3, 44480, Note_on_c, 0, 63, 37
3, 44640, Note_on_c, 0, 63, 0
3, 44800, Note_on_c, 0, 63, 36
3, 44960, Note_on_c, 0, 63, 0
3, 44960, Note_on_c, 0, 59, 35
3, 45120, Note_on_c, 0, 59, 0
3, 45120, Note_on_c, 0, 62, 46
3, 45280, Note_on_c, 0, 62, 0
3, 45280, Note_on_c, 0, 53, 37
3, 45440, Note_on_c, 0, 53, 0
3, 45440, Note_on_c, 0, 58, 36
3, 45600, Note_on_c, 0, 58, 0
3, 45600, Note_on_c, 0, 62, 41
3, 45760, Note_on_c, 0, 62, 0
3, 45760, Note_on_c, 0, 63, 48
3, 45880, Note_on_c, 0, 63, 0
3, 45920, Note_on_c, 0, 65, 53
3, 46040, Note_on_c, 0, 65, 0
3, 46080, Note_on_c, 0, 66, 62
3, 46240, Note_on_c, 0, 66, 0
3, 46240, Note_on_c, 0, 63, 49
3, 46400, Note_on_c, 0, 63, 0
3, 46400, Note_on_c, 0, 66, 54
3, 46560, Note_on_c, 0, 66, 0
3, 46560, Note_on_c, 0, 71, 66
3, 46720, Note_on_c, 0, 71, 0
3, 46720, Note_on_c, 0, 68, 45
3, 46880, Note_on_c, 0, 68, 0
3, 46880, Note_on_c, 0, 63, 38
3, 47040, Note_on_c, 0, 63, 0
3, 47040, Note_on_c, 0, 65, 51
3, 47200, Note_on_c, 0, 65, 0
3, 47200, Note_on_c, 0, 59, 41
3, 47360, Note_on_c, 0, 59, 0
3, 47360, Note_on_c, 0, 61, 39
3, 47520, Note_on_c, 0, 61, 0
3, 47520, Note_on_c, 0, 65, 45
3, 47680, Note_on_c, 0, 65, 0
3, 47680, Note_on_c, 0, 63, 44
3, 47800, Note_on_c, 0, 63, 0
3, 47840, Note_on_c, 0, 65, 45
3, 47960, Note_on_c, 0, 65, 0
3, 48000, Note_on_c, 0, 66, 51
3, 48160, Note_on_c, 0, 66, 0
3, 48160, Note_on_c, 0, 58, 37
3, 48320, Note_on_c, 0, 58, 0
3, 48320, Note_on_c, 0, 61, 37
3, 48480, Note_on_c, 0, 61, 0
3, 48640, Note_on_c, 0, 65, 36
3, 48800, Note_on_c, 0, 65, 0
3, 48800, Note_on_c, 0, 59, 35
3, 48960, Note_on_c, 0, 59, 0
3, 48960, Note_on_c, 0, 62, 46
3, 49120, Note_on_c, 0, 62, 0
3, 49120, Note_on_c, 0, 53, 37
3, 49280, Note_on_c, 0, 53, 0
3, 49280, Note_on_c, 0, 58, 36
3, 49440, Note_on_c, 0, 58, 0
3, 49440, Note_on_c, 0, 62, 41
3, 49600, Note_on_c, 0, 62, 0
3, 49600, Note_on_c, 0, 63, 53
3, 49720, Note_on_c, 0, 63, 0
3, 49760, Note_on_c, 0, 65, 58
3, 49880, Note_on_c, 0, 65, 0
3, 49920, Note_on_c, 0, 66, 60
3, 50080, Note_on_c, 0, 66, 0
3, 50080, Note_on_c, 0, 63, 52
3, 50240, Note_on_c, 0, 63, 0
3, 50240, Note_on_c, 0, 66, 62
3, 50400, Note_on_c, 0, 66, 0
3, 50400, Note_on_c, 0, 71, 66
3, 50560, Note_on_c, 0, 71, 0
3, 50560, Note_on_c, 0, 68, 45
3, 50720, Note_on_c, 0, 68, 0
3, 50720, Note_on_c, 0, 63, 38
3, 50880, Note_on_c, 0, 63, 0
3, 50880, Note_on_c, 0, 65, 56
3, 51040, Note_on_c, 0, 65, 0
3, 51040, Note_on_c, 0, 59, 52
3, 51200, Note_on_c, 0, 59, 0
3, 51200, Note_on_c, 0, 61, 52
3, 51360, Note_on_c, 0, 61, 0
3, 51360, Note_on_c, 0, 65, 59
3, 51520, Note_on_c, 0, 65, 0
3, 51520, Note_on_c, 0, 61, 63
3, 51640, Note_on_c, 0, 61, 0
3, 51680, Note_on_c, 0, 59, 64
3, 51800, Note_on_c, 0, 59, 0
3, 63520, Note_on_c, 0, 55, 32
3, 63680, Note_on_c, 0, 55, 0
3, 63680, Note_on_c, 0, 58, 31
3, 63840, Note_on_c, 0, 58, 0
3, 63840, Note_on_c, 0, 63, 41
3, 64000, Note_on_c, 0, 63, 0
3, 64000, Note_on_c, 0, 58, 31
3, 64160, Note_on_c, 0, 58, 0
3, 64160, Note_on_c, 0, 55, 31
3, 64320, Note_on_c, 0, 55, 0
3, 64480, Note_on_c, 0, 55, 31
3, 64640, Note_on_c, 0, 55, 0
3, 64640, Note_on_c, 0, 58, 31
3, 64800, Note_on_c, 0, 58, 0
3, 64960, Note_on_c, 0, 58, 30
3, 65120, Note_on_c, 0, 58, 0
3, 65120, Note_on_c, 0, 55, 30
3, 65280, Note_on_c, 0, 55, 0
3, 65440, Note_on_c, 0, 56, 32
3, 65600, Note_on_c, 0, 56, 0
3, 65600, Note_on_c, 0, 58, 31
3, 65760, Note_on_c, 0, 58, 0
3, 65920, Note_on_c, 0, 58, 31
3, 66080, Note_on_c, 0, 58, 0
3, 66080, Note_on_c, 0, 56, 31
3, 66240, Note_on_c, 0, 56, 0
3, 69600, Note_on_c, 0, 68, 36
3, 69760, Note_on_c, 0, 68, 0
3, 69760, Note_on_c, 0, 65, 36
3, 69920, Note_on_c, 0, 65, 0
3, 69920, Note_on_c, 0, 62, 31
3, 70080, Note_on_c, 0, 62, 0
3, 70080, Note_on_c, 0, 68, 33
3, 70240, Note_on_c, 0, 68, 0
3, 70240, Note_on_c, 0, 65, 29
3, 70400, Note_on_c, 0, 65, 0
3, 70400, Note_on_c, 0, 62, 29
3, 70560, Note_on_c, 0, 62, 0
3, 70560, Note_on_c, 0, 68, 45
3, 71040, Note_on_c, 0, 68, 0
3, 78720, Note_on_c, 0, 66, 51
3, 78880, Note_on_c, 0, 66, 0
3, 78880, Note_on_c, 0, 58, 37
3, 79040, Note_on_c, 0, 58, 0
3, 79040, Note_on_c, 0, 63, 37
3, 79200, Note_on_c, 0, 63, 0
3, 79360, Note_on_c, 0, 63, 36
3, 79520, Note_on_c, 0, 63, 0
3, 79520, Note_on_c, 0, 59, 35
3, 79680, Note_on_c, 0, 59, 0
3, 79680, Note_on_c, 0, 62, 46
3, 79840, Note_on_c, 0, 62, 0
3, 79840, Note_on_c, 0, 53, 37
3, 80000, Note_on_c, 0, 53, 0
3, 80000, Note_on_c, 0, 58, 36
3, 80160, Note_on_c, 0, 58, 0
3, 80160, Note_on_c, 0, 62, 41
3, 80320, Note_on_c, 0, 62, 0
3, 80320, Note_on_c, 0, 63, 48
3, 80440, Note_on_c, 0, 63, 0
3, 80480, Note_on_c, 0, 65, 53
3, 80600, Note_on_c, 0, 65, 0
3, 80640, Note_on_c, 0, 66, 62
3, 80800, Note_on_c, 0, 66, 0
3, 80800, Note_on_c, 0, 63, 49
3, 80960, Note_on_c, 0, 63, 0
3, 80960, Note_on_c, 0, 66, 54
3, 81120, Note_on_c, 0, 66, 0
3, 81120, Note_on_c, 0, 71, 66
3, 81280, Note_on_c, 0, 71, 0
3, 81280, Note_on_c, 0, 68, 45
3, 81440, Note_on_c, 0, 68, 0
3, 81440, Note_on_c, 0, 63, 38
3, 81600, Note_on_c, 0, 63, 0
3, 81600, Note_on_c, 0, 65, 51
3, 81760, Note_on_c, 0, 65, 0
3, 81760, Note_on_c, 0, 59, 41
3, 81920, Note_on_c, 0, 59, 0
3, 81920, Note_on_c, 0, 61, 39
3, 82080, Note_on_c, 0, 61, 0
3, 82080, Note_on_c, 0, 65, 45
3, 82240, Note_on_c, 0, 65, 0
3, 82240, Note_on_c, 0, 63, 44
3, 82360, Note_on_c, 0, 63, 0
3, 82400, Note_on_c, 0, 65, 45
3, 82520, Note_on_c, 0, 65, 0
3, 82560, Note_on_c, 0, 66, 51
3, 82720, Note_on_c, 0, 66, 0
3, 82720, Note_on_c, 0, 58, 37
3, 82880, Note_on_c, 0, 58, 0
3, 82880, Note_on_c, 0, 61, 37
3, 83040, Note_on_c, 0, 61, 0
3, 83200, Note_on_c, 0, 65, 36
3, 83360, Note_on_c, 0, 65, 0
3, 83360, Note_on_c, 0, 59, 35
3, 83520, Note_on_c, 0, 59, 0
3, 83520, Note_on_c, 0, 62, 46
3, 83680, Note_on_c, 0, 62, 0
3, 83680, Note_on_c, 0, 53, 37
3, 83840, Note_on_c, 0, 53, 0
3, 83840, Note_on_c, 0, 58, 36
3, 84000, Note_on_c, 0, 58, 0
3, 84000, Note_on_c, 0, 62, 41
3, 84160, Note_on_c, 0, 62, 0
3, 84160, Note_on_c, 0, 63, 53
3, 84280, Note_on_c, 0, 63, 0
3, 84320, Note_on_c, 0, 65, 58
3, 84440, Note_on_c, 0, 65, 0
3, 84480, Note_on_c, 0, 66, 60
3, 84640, Note_on_c, 0, 66, 0
3, 84640, Note_on_c, 0, 63, 52
3, 84800, Note_on_c, 0, 63, 0
3, 84800, Note_on_c, 0, 66, 62
3, 84960, Note_on_c, 0, 66, 0
3, 84960, Note_on_c, 0, 71, 66
3, 85120, Note_on_c, 0, 71, 0
3, 85120, Note_on_c, 0, 68, 45
3, 85280, Note_on_c, 0, 68, 0
3, 85280, Note_on_c, 0, 63, 38
3, 85440, Note_on_c, 0, 63, 0
3, 85440, Note_on_c, 0, 65, 56
3, 85600, Note_on_c, 0, 65, 0
3, 85600, Note_on_c, 0, 59, 52
3, 85760, Note_on_c, 0, 59, 0
3, 85760, Note_on_c, 0, 61, 52
3, 85920, Note_on_c, 0, 61, 0
3, 85920, Note_on_c, 0, 65, 59
3, 86080, Note_on_c, 0, 65, 0
3, 86080, Note_on_c, 0, 61, 63
3, 86200, Note_on_c, 0, 61, 0
3, 86240, Note_on_c, 0, 59, 64
3, 86360, Note_on_c, 0, 59, 0
3, 98080, Note_on_c, 0, 55, 32
3, 98240, Note_on_c, 0, 55, 0
3, 98240, Note_on_c, 0, 58, 31
3, 98400, Note_on_c, 0, 58, 0
3, 98400, Note_on_c, 0, 63, 41
3, 98560, Note_on_c, 0, 63, 0
3, 98560, Note_on_c, 0, 58, 31
3, 98720, Note_on_c, 0, 58, 0
3, 98720, Note_on_c, 0, 55, 31
3, 98880, Note_on_c, 0, 55, 0
3, 99040, Note_on_c, 0, 55, 31
3, 99200, Note_on_c, 0, 55, 0
3, 99200, Note_on_c, 0, 58, 31
3, 99360, Note_on_c, 0, 58, 0
3, 99520, Note_on_c, 0, 58, 30
3, 99680, Note_on_c, 0, 58, 0
3, 99680, Note_on_c, 0, 55, 30
3, 99840, Note_on_c, 0, 55, 0
3, 100000, Note_on_c, 0, 56, 32
3, 100160, Note_on_c, 0, 56, 0
3, 100160, Note_on_c, 0, 58, 31
3, 100320, Note_on_c, 0, 58, 0
3, 100480, Note_on_c, 0, 58, 31
3, 100640, Note_on_c, 0, 58, 0
3, 100640, Note_on_c, 0, 56, 31
3, 100800, Note_on_c, 0, 56, 0
3, 104160, Note_on_c, 0, 68, 36
3, 104320, Note_on_c, 0, 68, 0
3, 104320, Note_on_c, 0, 65, 36
3, 104480, Note_on_c, 0, 65, 0
3, 104480, Note_on_c, 0, 62, 31
3, 104640, Note_on_c, 0, 62, 0
3, 104640, Note_on_c, 0, 68, 33
3, 104800, Note_on_c, 0, 68, 0
3, 104800, Note_on_c, 0, 65, 29
3, 104960, Note_on_c, 0, 65, 0
3, 104960, Note_on_c, 0, 62, 29
3, 105120, Note_on_c, 0, 62, 0
3, 105120, Note_on_c, 0, 68, 45
3, 105600, Note_on_c, 0, 68, 0
3, 108960, Note_on_c, 0, 62, 39
3, 108960, Note_on_c, 0, 74, 44
3, 109440, Note_on_c, 0, 74, 0
3, 109440, Note_on_c, 0, 62, 0
3, 111520, Note_on_c, 0, 67, 36
3, 111680, Note_on_c, 0, 67, 0
3, 111680, Note_on_c, 0, 68, 36
3, 111840, Note_on_c, 0, 68, 0
3, 111840, Note_on_c, 0, 70, 41
3, 112000, Note_on_c, 0, 70, 0
3, 112000, Note_on_c, 0, 67, 36
3, 112160, Note_on_c, 0, 67, 0
3, 112160, Note_on_c, 0, 68, 37
3, 112320, Note_on_c, 0, 68, 0
3, 112320, Note_on_c, 0, 70, 35
3, 112480, Note_on_c, 0, 70, 0
3, 112480, Note_on_c, 0, 67, 36
3, 112640, Note_on_c, 0, 67, 0
3, 112640, Note_on_c, 0, 68, 36
3, 112800, Note_on_c, 0, 68, 0
3, 112800, Note_on_c, 0, 70, 37
3, 112960, Note_on_c, 0, 70, 0
3, 112960, Note_on_c, 0, 73, 41
3, 113120, Note_on_c, 0, 73, 0
3, 113120, Note_on_c, 0, 72, 37
3, 113280, Note_on_c, 0, 72, 0
3, 113280, Note_on_c, 0, 70, 37
3, 113440, Note_on_c, 0, 70, 0
3, 113440, Note_on_c, 0, 73, 42
3, 113600, Note_on_c, 0, 73, 0
3, 113600, Note_on_c, 0, 72, 37
3, 113760, Note_on_c, 0, 72, 0
3, 113760, Note_on_c, 0, 70, 47
3, 113920, Note_on_c, 0, 70, 0
3, 113920, Note_on_c, 0, 67, 36
3, 114080, Note_on_c, 0, 67, 0
3, 114080, Note_on_c, 0, 68, 37
3, 114240, Note_on_c, 0, 68, 0
3, 114240, Note_on_c, 0, 70, 41
3, 114400, Note_on_c, 0, 70, 0
3, 114400, Note_on_c, 0, 68, 36
3, 114560, Note_on_c, 0, 68, 0
3, 114560, Note_on_c, 0, 67, 36
3, 114718, Note_on_c, 0, 67, 0
3, 114720, Note_on_c, 0, 65, 47
3, 114880, Note_on_c, 0, 65, 0
3, 114880, Note_on_c, 0, 63, 36
3, 115040, Note_on_c, 0, 63, 0
3, 115040, Note_on_c, 0, 61, 36
3, 115200, Note_on_c, 0, 61, 0
3, 115360, Note_on_c, 0, 60, 42
3, 115520, Note_on_c, 0, 60, 0
3, 115520, Note_on_c, 0, 61, 37
3, 115680, Note_on_c, 0, 61, 0
3, 115680, Note_on_c, 0, 63, 50
3, 115840, Note_on_c, 0, 63, 0
3, 115840, Note_on_c, 0, 60, 36
3, 116000, Note_on_c, 0, 60, 0
3, 116000, Note_on_c, 0, 61, 37
3, 116160, Note_on_c, 0, 61, 0
3, 116160, Note_on_c, 0, 63, 41
3, 116320, Note_on_c, 0, 63, 0
3, 116320, Note_on_c, 0, 60, 36
3, 116480, Note_on_c, 0, 60, 0
3, 116480, Note_on_c, 0, 61, 36
3, 116640, Note_on_c, 0, 61, 0
3, 116640, Note_on_c, 0, 63, 48
3, 116800, Note_on_c, 0, 63, 0
3, 116800, Note_on_c, 0, 61, 36
3, 116960, Note_on_c, 0, 61, 0
3, 116960, Note_on_c, 0, 60, 36
3, 117120, Note_on_c, 0, 60, 0
3, 117280, Note_on_c, 0, 56, 42
3, 117440, Note_on_c, 0, 56, 0
3, 117440, Note_on_c, 0, 58, 37
3, 117600, Note_on_c, 0, 58, 0
3, 117600, Note_on_c, 0, 59, 42
3, 117760, Note_on_c, 0, 59, 0
3, 117760, Note_on_c, 0, 56, 37
3, 117920, Note_on_c, 0, 56, 0
3, 117920, Note_on_c, 0, 58, 43
3, 118080, Note_on_c, 0, 58, 0
3, 118080, Note_on_c, 0, 59, 46
3, 118400, Note_on_c, 0, 59, 0
3, 118400, Note_on_c, 0, 58, 48
3, 118558, Note_on_c, 0, 58, 0
3, 118560, Note_on_c, 0, 56, 54
3, 118720, Note_on_c, 0, 56, 0
3, 118720, Note_on_c, 0, 55, 52
3, 118880, Note_on_c, 0, 55, 0
3, 118880, Note_on_c, 0, 56, 52
3, 119040, Note_on_c, 0, 56, 0
3, 119200, Note_on_c, 0, 55, 51
3, 119360, Note_on_c, 0, 55, 0
3, 119360, Note_on_c, 0, 58, 53
3, 119520, Note_on_c, 0, 58, 0
3, 119520, Note_on_c, 0, 63, 55
3, 119680, Note_on_c, 0, 63, 0
3, 119680, Note_on_c, 0, 58, 48
3, 119840, Note_on_c, 0, 58, 0
3, 119840, Note_on_c, 0, 55, 48
3, 120000, Note_on_c, 0, 55, 0
3, 120160, Note_on_c, 0, 55, 48
3, 120320, Note_on_c, 0, 55, 0
3, 120320, Note_on_c, 0, 58, 49
3, 120480, Note_on_c, 0, 58, 0
3, 120640, Note_on_c, 0, 58, 48
3, 120800, Note_on_c, 0, 58, 0
3, 120800, Note_on_c, 0, 55, 48
3, 120960, Note_on_c, 0, 55, 0
3, 121120, Note_on_c, 0, 56, 60
3, 121280, Note_on_c, 0, 56, 0
3, 121280, Note_on_c, 0, 58, 62
3, 121440, Note_on_c, 0, 58, 0
3, 121440, Note_on_c, 0, 62, 66
3, 121600, Note_on_c, 0, 62, 0
3, 121600, Note_on_c, 0, 65, 62
3, 121760, Note_on_c, 0, 65, 0
3, 121760, Note_on_c, 0, 70, 62
3, 121920, Note_on_c, 0, 70, 0
3, 121920, Note_on_c, 0, 74, 65
3, 122080, Note_on_c, 0, 74, 0
3, 122080, Note_on_c, 0, 77, 58
3, 122240, Note_on_c, 0, 77, 0
3, 122240, Note_on_c, 0, 80, 55
3, 122400, Note_on_c, 0, 80, 0
3, 122400, Note_on_c, 0, 82, 50
3, 122640, Note_on_c, 0, 82, 0
3, 122640, Note_on_c, 0, 86, 41
3, 122760, Note_on_c, 0, 86, 0
3, 122880, Note_on_c, 0, 89, 42
3, 123000, Note_on_c, 0, 89, 0
3, 124960, Note_on_c, 0, 55, 36
3, 125120, Note_on_c, 0, 55, 0
3, 125120, Note_on_c, 0, 58, 33
3, 125280, Note_on_c, 0, 58, 0
3, 125280, Note_on_c, 0, 67, 41
3, 125440, Note_on_c, 0, 67, 0
3, 125440, Note_on_c, 0, 58, 30
3, 125600, Note_on_c, 0, 58, 0
3, 125600, Note_on_c, 0, 55, 30
3, 125760, Note_on_c, 0, 55, 0
3, 125920, Note_on_c, 0, 55, 32
3, 126080, Note_on_c, 0, 55, 0
3, 126080, Note_on_c, 0, 58, 31
3, 126240, Note_on_c, 0, 58, 0
3, 126240, Note_on_c, 0, 67, 32
3, 126400, Note_on_c, 0, 67, 0
3, 126400, Note_on_c, 0, 58, 31
3, 126560, Note_on_c, 0, 58, 0
3, 126560, Note_on_c, 0, 55, 31
3, 126720, Note_on_c, 0, 55, 0
3, 126880, Note_on_c, 0, 55, 35
3, 127040, Note_on_c, 0, 55, 0
3, 127040, Note_on_c, 0, 58, 31
3, 127200, Note_on_c, 0, 58, 0
3, 127200, Note_on_c, 0, 67, 39
3, 127360, Note_on_c, 0, 67, 0
3, 127360, Note_on_c, 0, 58, 27
3, 127520, Note_on_c, 0, 58, 0
3, 127520, Note_on_c, 0, 55, 27
3, 127680, Note_on_c, 0, 55, 0
3, 127840, Note_on_c, 0, 55, 27
3, 128000, Note_on_c, 0, 55, 0
3, 128000, Note_on_c, 0, 58, 26
3, 128160, Note_on_c, 0, 58, 0
3, 128160, Note_on_c, 0, 67, 28
3, 128320, Note_on_c, 0, 67, 0
3, 128320, Note_on_c, 0, 58, 24
3, 128480, Note_on_c, 0, 55, 24
3, 130560, Note_on_c, 0, 55, 0
3, 130560, Note_on_c, 0, 58, 0
3, 130560, End_track
4, 0, Start_track
4, 0, Title_t, "Piano left"
4, 0, Program_c, 0, 0
4, 0, Control_c, 0, 7, 127
4, 0, Control_c, 0, 10, 64
4, 0, Control_c, 0, 64, 127
4, 0, Note_on_c, 0, 39, 27
4, 160, Note_on_c, 0, 46, 24
4, 320, Note_on_c, 0, 46, 0
4, 320, Note_on_c, 0, 51, 25
4, 480, Note_on_c, 0, 51, 0
4, 480, Note_on_c, 0, 39, 0
4, 480, Note_on_c, 0, 55, 27
4, 640, Note_on_c, 0, 55, 0
4, 640, Note_on_c, 0, 51, 24
4, 800, Note_on_c, 0, 51, 0
4, 800, Note_on_c, 0, 46, 24
4, 960, Note_on_c, 0, 46, 0
4, 960, Note_on_c, 0, 39, 27
4, 1120, Note_on_c, 0, 46, 25
4, 1280, Note_on_c, 0, 46, 0
4, 1280, Note_on_c, 0, 51, 25
4, 1440, Note_on_c, 0, 51, 0
4, 1440, Note_on_c, 0, 39, 0
4, 1440, Note_on_c, 0, 55, 27
4, 1600, Note_on_c, 0, 55, 0
4, 1600, Note_on_c, 0, 51, 24
4, 1760, Note_on_c, 0, 51, 0
4, 1760, Note_on_c, 0, 46, 24
4, 1920, Note_on_c, 0, 46, 0
4, 1920, Note_on_c, 0, 39, 27
4, 2080, Note_on_c, 0, 46, 24
4, 2240, Note_on_c, 0, 46, 0
4, 2240, Note_on_c, 0, 51, 25
4, 2400, Note_on_c, 0, 51, 0
4, 2400, Note_on_c, 0, 39, 0
4, 2400, Note_on_c, 0, 55, 27
4, 2560, Note_on_c, 0, 55, 0
4, 2560, Note_on_c, 0, 51, 24
4, 2720, Note_on_c, 0, 51, 0
4, 2720, Note_on_c, 0, 46, 24
4, 2880, Note_on_c, 0, 46, 0
4, 2880, Note_on_c, 0, 39, 27
4, 2889, Control_c, 0, 64, 0
4, 2959, Control_c, 0, 64, 127
4, 3040, Note_on_c, 0, 46, 25
4, 3200, Note_on_c, 0, 46, 0
4, 3200, Note_on_c, 0, 51, 25
4, 3360, Note_on_c, 0, 51, 0
4, 3360, Note_on_c, 0, 39, 0
4, 3360, Note_on_c, 0, 55, 27
4, 3520, Note_on_c, 0, 55, 0
4, 3520, Note_on_c, 0, 51, 24
4, 3680, Note_on_c, 0, 51, 0
4, 3680, Note_on_c, 0, 46, 24
4, 3840, Note_on_c, 0, 46, 0
4, 3840, Note_on_c, 0, 34, 27
4, 3845, Control_c, 0, 64, 0
4, 3908, Control_c, 0, 64, 127
4, 4000, Note_on_c, 0, 46, 24
4, 4160, Note_on_c, 0, 46, 0
4, 4160, Note_on_c, 0, 50, 25
4, 4320, Note_on_c, 0, 50, 0
4, 4320, Note_on_c, 0, 34, 0
4, 4320, Note_on_c, 0, 53, 27
4, 4480, Note_on_c, 0, 53, 0
4, 4480, Note_on_c, 0, 50, 24
4, 4640, Note_on_c, 0, 50, 0
4, 4640, Note_on_c, 0, 46, 24
4, 4800, Note_on_c, 0, 46, 0
4, 4800, Note_on_c, 0, 36, 27
4, 4810, Control_c, 0, 64, 0
4, 4873, Control_c, 0, 64, 127
4, 4960, Note_on_c, 0, 51, 32
4, 4960, Note_on_c, 0, 43, 32
4, 5120, Note_on_c, 0, 43, 0
4, 5120, Note_on_c, 0, 51, 0
4, 5120, Note_on_c, 0, 55, 32
4, 5120, Note_on_c, 0, 48, 32
4, 5280, Note_on_c, 0, 48, 0
4, 5280, Note_on_c, 0, 55, 0
4, 5280, Note_on_c, 0, 36, 0
4, 5280, Note_on_c, 0, 60, 35
4, 5280, Note_on_c, 0, 51, 35
4, 5440, Note_on_c, 0, 51, 0
4, 5440, Note_on_c, 0, 60, 0
4, 5440, Note_on_c, 0, 55, 29
4, 5440, Note_on_c, 0, 48, 29
4, 5600, Note_on_c, 0, 48, 0
4, 5600, Note_on_c, 0, 55, 0
4, 5600, Note_on_c, 0, 51, 30
4, 5600, Note_on_c, 0, 43, 30
4, 5760, Note_on_c, 0, 43, 0
4, 5760, Note_on_c, 0, 51, 0
4, 5760, Note_on_c, 0, 34, 32
4, 5769, Control_c, 0, 64, 0
4, 5822, Control_c, 0, 64, 127
4, 5920, Note_on_c, 0, 44, 28
4, 6080, Note_on_c, 0, 44, 0
4, 6080, Note_on_c, 0, 48, 28
4, 6240, Note_on_c, 0, 48, 0
4, 6240, Note_on_c, 0, 34, 0
4, 6240, Note_on_c, 0, 53, 35
4, 6400, Note_on_c, 0, 53, 0
4, 6400, Note_on_c, 0, 48, 27
4, 6560, Note_on_c, 0, 48, 0
4, 6560, Note_on_c, 0, 44, 27
4, 6720, Note_on_c, 0, 32, 31
4, 6880, Note_on_c, 0, 48, 31
4, 7040, Note_on_c, 0, 48, 0
4, 7040, Note_on_c, 0, 53, 32
4, 7200, Note_on_c, 0, 53, 0
4, 7200, Note_on_c, 0, 32, 0
4, 7200, Note_on_c, 0, 44, 0
4, 7200, Note_on_c, 0, 56, 36
4, 7360, Note_on_c, 0, 56, 0
4, 7360, Note_on_c, 0, 53, 32
4, 7520, Note_on_c, 0, 53, 0
4, 7520, Note_on_c, 0, 48, 32
4, 7680, Note_on_c, 0, 48, 0
4, 7680, Note_on_c, 0, 34, 29
4, 7680, Note_on_c, 0, 46, 29
4, 7688, Control_c, 0, 64, 0
4, 7729, Control_c, 0, 64, 127
4, 7840, Note_on_c, 0, 53, 31
4, 8000, Note_on_c, 0, 53, 0
4, 8000, Note_on_c, 0, 56, 28
4, 8160, Note_on_c, 0, 56, 0
4, 8160, Note_on_c, 0, 46, 0
4, 8160, Note_on_c, 0, 34, 0
4, 8160, Note_on_c, 0, 58, 32
4, 8320, Note_on_c, 0, 58, 0
4, 8320, Note_on_c, 0, 56, 28
4, 8480, Note_on_c, 0, 56, 0
4, 8480, Note_on_c, 0, 53, 27
4, 8640, Note_on_c, 0, 53, 0
4, 8640, Note_on_c, 0, 58, 27
4, 8800, Note_on_c, 0, 58, 0
4, 8800, Note_on_c, 0, 56, 23
4, 8960, Note_on_c, 0, 56, 0
4, 8960, Note_on_c, 0, 53, 23
4, 9120, Note_on_c, 0, 53, 0
4, 9120, Note_on_c, 0, 58, 23
4, 9280, Note_on_c, 0, 58, 0
4, 9280, Note_on_c, 0, 56, 18
4, 9440, Note_on_c, 0, 56, 0
4, 9440, Note_on_c, 0, 53, 18
4, 9600, Note_on_c, 0, 53, 0
4, 9600, Note_on_c, 0, 39, 27
4, 9610, Control_c, 0, 64, 0
4, 9680, Control_c, 0, 64, 127
4, 9760, Note_on_c, 0, 46, 24
4, 9920, Note_on_c, 0, 46, 0
4, 9920, Note_on_c, 0, 51, 25
4, 10080, Note_on_c, 0, 51, 0
4, 10080, Note_on_c, 0, 39, 0
4, 10080, Note_on_c, 0, 55, 27
4, 10240, Note_on_c, 0, 55, 0
4, 10240, Note_on_c, 0, 51, 24
4, 10400, Note_on_c, 0, 51, 0
4, 10400, Note_on_c, 0, 46, 24
4, 10560, Note_on_c, 0, 46, 0
4, 10560, Note_on_c, 0, 39, 27
4, 10570, Control_c, 0, 64, 0
4, 10613, Control_c, 0, 64, 127
4, 10720, Note_on_c, 0, 46, 25
4, 10880, Note_on_c, 0, 46, 0
4, 10880, Note_on_c, 0, 51, 25
4, 11040, Note_on_c, 0, 51, 0
4, 11040, Note_on_c, 0, 39, 0
4, 11040, Note_on_c, 0, 55, 27
4, 11200, Note_on_c, 0, 55, 0
4, 11200, Note_on_c, 0, 51, 24
4, 11360, Note_on_c, 0, 51, 0
4, 11360, Note_on_c, 0, 46, 24
4, 11520, Note_on_c, 0, 46, 0
4, 11520, Note_on_c, 0, 34, 27
4, 11528, Control_c, 0, 64, 0
4, 11584, Control_c, 0, 64, 127
4, 11680, Note_on_c, 0, 46, 24
4, 11840, Note_on_c, 0, 46, 0
4, 11840, Note_on_c, 0, 50, 25
4, 12000, Note_on_c, 0, 50, 0
4, 12000, Note_on_c, 0, 34, 0
4, 12000, Note_on_c, 0, 53, 27
4, 12160, Note_on_c, 0, 53, 0
4, 12160, Note_on_c, 0, 50, 24
4, 12320, Note_on_c, 0, 50, 0
4, 12320, Note_on_c, 0, 46, 24
4, 12480, Note_on_c, 0, 46, 0
4, 12480, Note_on_c, 0, 36, 27
4, 12487, Control_c, 0, 64, 0
4, 12533, Control_c, 0, 64, 127
4, 12640, Note_on_c, 0, 51, 32
4, 12640, Note_on_c, 0, 43, 32
4, 12800, Note_on_c, 0, 43, 0
4, 12800, Note_on_c, 0, 51, 0
4, 12800, Note_on_c, 0, 55, 32
4, 12800, Note_on_c, 0, 48, 32
4, 12960, Note_on_c, 0, 48, 0
4, 12960, Note_on_c, 0, 55, 0
4, 12960, Note_on_c, 0, 36, 0
4, 12960, Note_on_c, 0, 60, 35
4, 12960, Note_on_c, 0, 51, 35
4, 13120, Note_on_c, 0, 51, 0
4, 13120, Note_on_c, 0, 60, 0
4, 13120, Note_on_c, 0, 55, 29
4, 13120, Note_on_c, 0, 48, 29
4, 13280, Note_on_c, 0, 48, 0
4, 13280, Note_on_c, 0, 55, 0
4, 13280, Note_on_c, 0, 51, 30
4, 13280, Note_on_c, 0, 43, 30
4, 13440, Note_on_c, 0, 43, 0
4, 13440, Note_on_c, 0, 51, 0
4, 13440, Note_on_c, 0, 36, 29
4, 13449, Control_c, 0, 64, 0
4, 13514, Control_c, 0, 64, 127
4, 13600, Note_on_c, 0, 43, 26
4, 13600, Note_on_c, 0, 53, 26
4, 13760, Note_on_c, 0, 53, 0
4, 13760, Note_on_c, 0, 43, 0
4, 13760, Note_on_c, 0, 50, 26
4, 13760, Note_on_c, 0, 55, 26
4, 13920, Note_on_c, 0, 55, 0
4, 13920, Note_on_c, 0, 50, 0
4, 13920, Note_on_c, 0, 36, 0
4, 13920, Note_on_c, 0, 53, 29
4, 13920, Note_on_c, 0, 59, 29
4, 14080, Note_on_c, 0, 59, 0
4, 14080, Note_on_c, 0, 53, 0
4, 14080, Note_on_c, 0, 50, 26
4, 14080, Note_on_c, 0, 55, 26
4, 14240, Note_on_c, 0, 55, 0
4, 14240, Note_on_c, 0, 50, 0
4, 14240, Note_on_c, 0, 53, 29
4, 14240, Note_on_c, 0, 43, 26
4, 14400, Note_on_c, 0, 43, 0
4, 14400, Note_on_c, 0, 53, 0
4, 14400, Note_on_c, 0, 36, 27
4, 14410, Control_c, 0, 64, 0
4, 14453, Control_c, 0, 64, 127
4, 14560, Note_on_c, 0, 43, 31
4, 14720, Note_on_c, 0, 43, 0
4, 14720, Note_on_c, 0, 48, 32
4, 14880, Note_on_c, 0, 48, 0
4, 14880, Note_on_c, 0, 36, 0
4, 14880, Note_on_c, 0, 51, 37
4, 15040, Note_on_c, 0, 51, 0
4, 15040, Note_on_c, 0, 48, 35
4, 15200, Note_on_c, 0, 48, 0
4, 15200, Note_on_c, 0, 43, 35
4, 15360, Note_on_c, 0, 43, 0
4, 15360, Note_on_c, 0, 36, 37
4, 15370, Control_c, 0, 64, 0
4, 15440, Control_c, 0, 64, 127
4, 15520, Note_on_c, 0, 50, 31
4, 15680, Note_on_c, 0, 50, 0
4, 15680, Note_on_c, 0, 55, 28
4, 15840, Note_on_c, 0, 55, 0
4, 15840, Note_on_c, 0, 36, 0
4, 15840, Note_on_c, 0, 62, 32
4, 16000, Note_on_c, 0, 62, 0
4, 16000, Note_on_c, 0, 55, 28
4, 16160, Note_on_c, 0, 55, 0
4, 16160, Note_on_c, 0, 50, 27
4, 16320, Note_on_c, 0, 50, 0
4, 16320, Note_on_c, 0, 36, 29
4, 16330, Control_c, 0, 64, 0
4, 16406, Control_c, 0, 64, 127
4, 16480, Note_on_c, 0, 51, 24
4, 16640, Note_on_c, 0, 51, 0
4, 16640, Note_on_c, 0, 55, 24
4, 16800, Note_on_c, 0, 55, 0
4, 16800, Note_on_c, 0, 36, 0
4, 16800, Note_on_c, 0, 60, 25
4, 16960, Note_on_c, 0, 60, 0
4, 16960, Note_on_c, 0, 55, 21
4, 17120, Note_on_c, 0, 55, 0
4, 17120, Note_on_c, 0, 51, 21
4, 17280, Note_on_c, 0, 51, 0
4, 17280, Note_on_c, 0, 41, 27
4, 17287, Control_c, 0, 64, 0
4, 17344, Control_c, 0, 64, 127
4, 17440, Note_on_c, 0, 50, 24
4, 17600, Note_on_c, 0, 50, 0
4, 17600, Note_on_c, 0, 53, 25
4, 17760, Note_on_c, 0, 53, 0
4, 17760, Note_on_c, 0, 41, 0
4, 17760, Note_on_c, 0, 58, 27
4, 17920, Note_on_c, 0, 58, 0
4, 17920, Note_on_c, 0, 53, 24
4, 18080, Note_on_c, 0, 53, 0
4, 18080, Note_on_c, 0, 50, 24
4, 18240, Note_on_c, 0, 50, 0
4, 18240, Note_on_c, 0, 41, 27
4, 18248, Control_c, 0, 64, 0
4, 18293, Control_c, 0, 64, 127
4, 18400, Note_on_c, 0, 51, 26
4, 18560, Note_on_c, 0, 51, 0
4, 18560, Note_on_c, 0, 53, 26
4, 18720, Note_on_c, 0, 53, 0
4, 18720, Note_on_c, 0, 41, 0
4, 18720, Note_on_c, 0, 57, 30
4, 18880, Note_on_c, 0, 57, 0
4, 18880, Note_on_c, 0, 53, 26
4, 19040, Note_on_c, 0, 53, 0
4, 19040, Note_on_c, 0, 51, 26
4, 19200, Note_on_c, 0, 51, 0
4, 19200, Note_on_c, 0, 46, 27
4, 19203, Control_c, 0, 64, 0
4, 19285, Control_c, 0, 64, 127
4, 19360, Note_on_c, 0, 53, 24
4, 19520, Note_on_c, 0, 53, 0
4, 19520, Note_on_c, 0, 55, 25
4, 19680, Note_on_c, 0, 55, 0
4, 19680, Note_on_c, 0, 56, 27
4, 19690, Control_c, 0, 64, 0
4, 19744, Control_c, 0, 64, 127
4, 19840, Note_on_c, 0, 56, 0
4, 19840, Note_on_c, 0, 53, 24
4, 20000, Note_on_c, 0, 53, 0
4, 20000, Note_on_c, 0, 55, 24
4, 20160, Note_on_c, 0, 55, 0
4, 20160, Note_on_c, 0, 56, 27
4, 20170, Control_c, 0, 64, 0
4, 20231, Control_c, 0, 64, 127
4, 20320, Note_on_c, 0, 56, 0
4, 20320, Note_on_c, 0, 53, 26
4, 20480, Note_on_c, 0, 53, 0
4, 20480, Note_on_c, 0, 55, 26
4, 20640, Note_on_c, 0, 55, 0
4, 20640, Note_on_c, 0, 56, 30
4, 20650, Control_c, 0, 64, 0
4, 20696, Control_c, 0, 64, 127
4, 20800, Note_on_c, 0, 56, 0
4, 20800, Note_on_c, 0, 53, 26
4, 20960, Note_on_c, 0, 53, 0
4, 20960, Note_on_c, 0, 51, 26
4, 21120, Note_on_c, 0, 51, 0
4, 21120, Note_on_c, 0, 50, 31
4, 21125, Control_c, 0, 64, 0
4, 21171, Control_c, 0, 64, 127
4, 21280, Note_on_c, 0, 50, 0
4, 21280, Note_on_c, 0, 53, 28
4, 21440, Note_on_c, 0, 53, 0
4, 21440, Note_on_c, 0, 58, 28
4, 21600, Note_on_c, 0, 58, 0
4, 21600, Note_on_c, 0, 46, 0
4, 21600, Note_on_c, 0, 56, 32
4, 21609, Control_c, 0, 64, 0
4, 21657, Control_c, 0, 64, 127
4, 21760, Note_on_c, 0, 56, 0
4, 21760, Note_on_c, 0, 55, 28
4, 21920, Note_on_c, 0, 55, 0
4, 21920, Note_on_c, 0, 53, 28
4, 22080, Note_on_c, 0, 53, 0
4, 22080, Note_on_c, 0, 51, 28
4, 22083, Control_c, 0, 64, 0
4, 22240, Note_on_c, 0, 51, 0
4, 22240, Note_on_c, 0, 50, 24
4, 22400, Note_on_c, 0, 50, 0
4, 22400, Note_on_c, 0, 51, 24
4, 22560, Note_on_c, 0, 51, 0
4, 22560, Note_on_c, 0, 53, 27
4, 22720, Note_on_c, 0, 53, 0
4, 22720, Note_on_c, 0, 51, 24
4, 22880, Note_on_c, 0, 51, 0
4, 22880, Note_on_c, 0, 50, 24
4, 23040, Note_on_c, 0, 50, 0
4, 23040, Note_on_c, 0, 39, 27
4, 23160, Control_c, 0, 64, 127
4, 23200, Note_on_c, 0, 46, 24
4, 23360, Note_on_c, 0, 46, 0
4, 23360, Note_on_c, 0, 51, 25
4, 23520, Note_on_c, 0, 51, 0
4, 23520, Note_on_c, 0, 39, 0
4, 23520, Note_on_c, 0, 55, 27
4, 23680, Note_on_c, 0, 55, 0
4, 23680, Note_on_c, 0, 51, 24
4, 23840, Note_on_c, 0, 51, 0
4, 23840, Note_on_c, 0, 46, 24
4, 24000, Note_on_c, 0, 46, 0
4, 24000, Note_on_c, 0, 39, 27
4, 24010, Control_c, 0, 64, 0
4, 24053, Control_c, 0, 64, 127
4, 24160, Note_on_c, 0, 46, 25
4, 24320, Note_on_c, 0, 46, 0
4, 24320, Note_on_c, 0, 51, 25
4, 24480, Note_on_c, 0, 51, 0
4, 24480, Note_on_c, 0, 39, 0
4, 24480, Note_on_c, 0, 55, 27
4, 24640, Note_on_c, 0, 55, 0
4, 24640, Note_on_c, 0, 51, 24
4, 24800, Note_on_c, 0, 51, 0
4, 24800, Note_on_c, 0, 46, 24
4, 24960, Note_on_c, 0, 46, 0
4, 24960, Note_on_c, 0, 34, 27
4, 24965, Control_c, 0, 64, 0
4, 25016, Control_c, 0, 64, 127
4, 25120, Note_on_c, 0, 46, 24
4, 25280, Note_on_c, 0, 46, 0
4, 25280, Note_on_c, 0, 50, 25
4, 25440, Note_on_c, 0, 50, 0
4, 25440, Note_on_c, 0, 34, 0
4, 25440, Note_on_c, 0, 53, 27
4, 25600, Note_on_c, 0, 53, 0
4, 25600, Note_on_c, 0, 50, 24
4, 25760, Note_on_c, 0, 50, 0
4, 25760, Note_on_c, 0, 46, 24
4, 25920, Note_on_c, 0, 46, 0
4, 25920, Note_on_c, 0, 36, 27
4, 25928, Control_c, 0, 64, 0
4, 26026, Control_c, 0, 64, 127
4, 26080, Note_on_c, 0, 51, 32
4, 26080, Note_on_c, 0, 43, 32
4, 26240, Note_on_c, 0, 43, 0
4, 26240, Note_on_c, 0, 51, 0
4, 26240, Note_on_c, 0, 55, 32
4, 26240, Note_on_c, 0, 48, 32
4, 26400, Note_on_c, 0, 48, 0
4, 26400, Note_on_c, 0, 55, 0
4, 26400, Note_on_c, 0, 36, 0
4, 26400, Note_on_c, 0, 60, 35
4, 26400, Note_on_c, 0, 51, 35
4, 26560, Note_on_c, 0, 51, 0
4, 26560, Note_on_c, 0, 60, 0
4, 26560, Note_on_c, 0, 55, 29
4, 26560, Note_on_c, 0, 48, 29
4, 26720, Note_on_c, 0, 48, 0
4, 26720, Note_on_c, 0, 55, 0
4, 26720, Note_on_c, 0, 51, 30
4, 26720, Note_on_c, 0, 43, 30
4, 26880, Note_on_c, 0, 43, 0
4, 26880, Note_on_c, 0, 51, 0
4, 26880, Note_on_c, 0, 34, 32
4, 26889, Control_c, 0, 64, 0
4, 26965, Control_c, 0, 64, 127
4, 27040, Note_on_c, 0, 44, 28
4, 27200, Note_on_c, 0, 44, 0
4, 27200, Note_on_c, 0, 48, 28
4, 27360, Note_on_c, 0, 48, 0
4, 27360, Note_on_c, 0, 34, 0
4, 27360, Note_on_c, 0, 53, 35
4, 27520, Note_on_c, 0, 53, 0
4, 27520, Note_on_c, 0, 48, 27
4, 27680, Note_on_c, 0, 48, 0
4, 27680, Note_on_c, 0, 44, 27
4, 27840, Note_on_c, 0, 32, 31
4, 28000, Note_on_c, 0, 48, 31
4, 28160, Note_on_c, 0, 48, 0
4, 28160, Note_on_c, 0, 53, 32
4, 28320, Note_on_c, 0, 53, 0
4, 28320, Note_on_c, 0, 32, 0
4, 28320, Note_on_c, 0, 44, 0
4, 28320, Note_on_c, 0, 56, 36
4, 28480, Note_on_c, 0, 56, 0
4, 28480, Note_on_c, 0, 53, 32
4, 28640, Note_on_c, 0, 53, 0
4, 28640, Note_on_c, 0, 48, 32
4, 28800, Note_on_c, 0, 48, 0
4, 28800, Note_on_c, 0, 34, 29
4, 28800, Note_on_c, 0, 46, 29
4, 28809, Control_c, 0, 64, 0
4, 28885, Control_c, 0, 64, 127
4, 28960, Note_on_c, 0, 53, 31
4, 29120, Note_on_c, 0, 53, 0
4, 29120, Note_on_c, 0, 56, 28
4, 29280, Note_on_c, 0, 56, 0
4, 29280, Note_on_c, 0, 46, 0
4, 29280, Note_on_c, 0, 34, 0
4, 29280, Note_on_c, 0, 58, 32
4, 29440, Note_on_c, 0, 58, 0
4, 29440, Note_on_c, 0, 56, 28
4, 29600, Note_on_c, 0, 56, 0
4, 29600, Note_on_c, 0, 53, 27
4, 29760, Note_on_c, 0, 53, 0
4, 29760, Note_on_c, 0, 58, 27
4, 29920, Note_on_c, 0, 58, 0
4, 29920, Note_on_c, 0, 56, 23
4, 30080, Note_on_c, 0, 56, 0
4, 30080, Note_on_c, 0, 53, 23
4, 30240, Note_on_c, 0, 53, 0
4, 30240, Note_on_c, 0, 58, 23
4, 30400, Note_on_c, 0, 58, 0
4, 30400, Note_on_c, 0, 56, 18
4, 30560, Note_on_c, 0, 56, 0
4, 30560, Note_on_c, 0, 53, 18
4, 30720, Note_on_c, 0, 53, 0
4, 30720, Note_on_c, 0, 39, 27
4, 30728, Control_c, 0, 64, 0
4, 30800, Control_c, 0, 64, 127
4, 30880, Note_on_c, 0, 46, 24
4, 31040, Note_on_c, 0, 46, 0
4, 31040, Note_on_c, 0, 51, 25
4, 31200, Note_on_c, 0, 51, 0
4, 31200, Note_on_c, 0, 39, 0
4, 31200, Note_on_c, 0, 55, 27
4, 31360, Note_on_c, 0, 55, 0
4, 31360, Note_on_c, 0, 51, 24
4, 31520, Note_on_c, 0, 51, 0
4, 31520, Note_on_c, 0, 46, 24
4, 31680, Note_on_c, 0, 46, 0
4, 31680, Note_on_c, 0, 39, 27
4, 31689, Control_c, 0, 64, 0
4, 31733, Control_c, 0, 64, 127
4, 31840, Note_on_c, 0, 46, 25
4, 32000, Note_on_c, 0, 46, 0
4, 32000, Note_on_c, 0, 51, 25
4, 32160, Note_on_c, 0, 51, 0
4, 32160, Note_on_c, 0, 39, 0
4, 32160, Note_on_c, 0, 55, 27
4, 32320, Note_on_c, 0, 55, 0
4, 32320, Note_on_c, 0, 51, 24
4, 32480, Note_on_c, 0, 51, 0
4, 32480, Note_on_c, 0, 46, 24
4, 32640, Note_on_c, 0, 46, 0
4, 32640, Note_on_c, 0, 34, 27
4, 32650, Control_c, 0, 64, 0
4, 32704, Control_c, 0, 64, 127
4, 32800, Note_on_c, 0, 46, 24
4, 32960, Note_on_c, 0, 46, 0
4, 32960, Note_on_c, 0, 50, 25
4, 33120, Note_on_c, 0, 50, 0
4, 33120, Note_on_c, 0, 34, 0
4, 33120, Note_on_c, 0, 53, 27
4, 33280, Note_on_c, 0, 53, 0
4, 33280, Note_on_c, 0, 50, 24
4, 33440, Note_on_c, 0, 50, 0
4, 33440, Note_on_c, 0, 46, 24
4, 33600, Note_on_c, 0, 46, 0
4, 33600, Note_on_c, 0, 36, 27
4, 33610, Control_c, 0, 64, 0
4, 33653, Control_c, 0, 64, 127
4, 33760, Note_on_c, 0, 51, 32
4, 33760, Note_on_c, 0, 43, 32
4, 33920, Note_on_c, 0, 43, 0
4, 33920, Note_on_c, 0, 51, 0
4, 33920, Note_on_c, 0, 55, 32
4, 33920, Note_on_c, 0, 48, 32
4, 34080, Note_on_c, 0, 48, 0
4, 34080, Note_on_c, 0, 55, 0
4, 34080, Note_on_c, 0, 36, 0
4, 34080, Note_on_c, 0, 60, 35
4, 34080, Note_on_c, 0, 51, 35
4, 34240, Note_on_c, 0, 51, 0
4, 34240, Note_on_c, 0, 60, 0
4, 34240, Note_on_c, 0, 55, 29
4, 34240, Note_on_c, 0, 48, 29
4, 34400, Note_on_c, 0, 48, 0
4, 34400, Note_on_c, 0, 55, 0
4, 34400, Note_on_c, 0, 51, 30
4, 34400, Note_on_c, 0, 43, 30
4, 34560, Note_on_c, 0, 43, 0
4, 34560, Note_on_c, 0, 51, 0
4, 34560, Note_on_c, 0, 36, 29
4, 34569, Control_c, 0, 64, 0
4, 34634, Control_c, 0, 64, 127
4, 34720, Note_on_c, 0, 43, 26
4, 34720, Note_on_c, 0, 53, 26
4, 34880, Note_on_c, 0, 53, 0
4, 34880, Note_on_c, 0, 43, 0
4, 34880, Note_on_c, 0, 50, 26
4, 34880, Note_on_c, 0, 55, 26
4, 35040, Note_on_c, 0, 55, 0
4, 35040, Note_on_c, 0, 50, 0
4, 35040, Note_on_c, 0, 36, 0
4, 35040, Note_on_c, 0, 53, 29
4, 35040, Note_on_c, 0, 59, 29
4, 35200, Note_on_c, 0, 59, 0
4, 35200, Note_on_c, 0, 53, 0
4, 35200, Note_on_c, 0, 50, 26
4, 35200, Note_on_c, 0, 55, 26
4, 35360, Note_on_c, 0, 55, 0
4, 35360, Note_on_c, 0, 50, 0
4, 35360, Note_on_c, 0, 53, 29
4, 35360, Note_on_c, 0, 43, 26
4, 35520, Note_on_c, 0, 43, 0
4, 35520, Note_on_c, 0, 53, 0
4, 35520, Note_on_c, 0, 36, 27
4, 35529, Control_c, 0, 64, 0
4, 35573, Control_c, 0, 64, 127
4, 35680, Note_on_c, 0, 43, 31
4, 35840, Note_on_c, 0, 43, 0
4, 35840, Note_on_c, 0, 48, 32
4, 36000, Note_on_c, 0, 48, 0
4, 36000, Note_on_c, 0, 36, 0
4, 36000, Note_on_c, 0, 51, 37
4, 36160, Note_on_c, 0, 51, 0
4, 36160, Note_on_c, 0, 48, 35
4, 36320, Note_on_c, 0, 48, 0
4, 36320, Note_on_c, 0, 43, 35
4, 36480, Note_on_c, 0, 43, 0
4, 36480, Note_on_c, 0, 36, 37
4, 36489, Control_c, 0, 64, 0
4, 36529, Control_c, 0, 64, 127
4, 36640, Note_on_c, 0, 50, 31
4, 36800, Note_on_c, 0, 50, 0
4, 36800, Note_on_c, 0, 55, 28
4, 36960, Note_on_c, 0, 55, 0
4, 36960, Note_on_c, 0, 36, 0
4, 36960, Note_on_c, 0, 62, 32
4, 37120, Note_on_c, 0, 62, 0
4, 37120, Note_on_c, 0, 55, 28
4, 37280, Note_on_c, 0, 55, 0
4, 37280, Note_on_c, 0, 50, 27
4, 37440, Note_on_c, 0, 50, 0
4, 37440, Note_on_c, 0, 36, 29
4, 37448, Control_c, 0, 64, 0
4, 37525, Control_c, 0, 64, 127
4, 37600, Note_on_c, 0, 51, 24
4, 37760, Note_on_c, 0, 51, 0
4, 37760, Note_on_c, 0, 55, 24
4, 37920, Note_on_c, 0, 55, 0
4, 37920, Note_on_c, 0, 36, 0
4, 37920, Note_on_c, 0, 60, 25
4, 38080, Note_on_c, 0, 60, 0
4, 38080, Note_on_c, 0, 55, 21
4, 38240, Note_on_c, 0, 55, 0
4, 38240, Note_on_c, 0, 51, 21
4, 38400, Note_on_c, 0, 51, 0
4, 38400, Note_on_c, 0, 41, 27
4, 38407, Control_c, 0, 64, 0
4, 38464, Control_c, 0, 64, 127
4, 38560, Note_on_c, 0, 50, 24
4, 38720, Note_on_c, 0, 50, 0
4, 38720, Note_on_c, 0, 53, 25
4, 38880, Note_on_c, 0, 53, 0
4, 38880, Note_on_c, 0, 41, 0
4, 38880, Note_on_c, 0, 58, 27
4, 39040, Note_on_c, 0, 58, 0
4, 39040, Note_on_c, 0, 53, 24
4, 39200, Note_on_c, 0, 53, 0
4, 39200, Note_on_c, 0, 50, 24
4, 39360, Note_on_c, 0, 50, 0
4, 39360, Note_on_c, 0, 41, 27
4, 39366, Control_c, 0, 64, 0
4, 39392, Control_c, 0, 64, 127
4, 39520, Note_on_c, 0, 51, 26
4, 39680, Note_on_c, 0, 51, 0
4, 39680, Note_on_c, 0, 53, 26
4, 39840, Note_on_c, 0, 53, 0
4, 39840, Note_on_c, 0, 41, 0
4, 39840, Note_on_c, 0, 57, 30
4, 40000, Note_on_c, 0, 57, 0
4, 40000, Note_on_c, 0, 53, 26
4, 40160, Note_on_c, 0, 53, 0
4, 40160, Note_on_c, 0, 51, 26
4, 40320, Note_on_c, 0, 51, 0
4, 40320, Note_on_c, 0, 46, 27
4, 40330, Control_c, 0, 64, 0
4, 40391, Control_c, 0, 64, 127
4, 40480, Note_on_c, 0, 53, 24
4, 40640, Note_on_c, 0, 53, 0
4, 40640, Note_on_c, 0, 55, 25
4, 40800, Note_on_c, 0, 55, 0
4, 40800, Note_on_c, 0, 56, 27
4, 40809, Control_c, 0, 64, 0
4, 40871, Control_c, 0, 64, 127
4, 40960, Note_on_c, 0, 56, 0
4, 40960, Note_on_c, 0, 53, 24
4, 41120, Note_on_c, 0, 53, 0
4, 41120, Note_on_c, 0, 55, 24
4, 41280, Note_on_c, 0, 55, 0
4, 41280, Note_on_c, 0, 56, 27
4, 41290, Control_c, 0, 64, 0
4, 41347, Control_c, 0, 64, 127
4, 41440, Note_on_c, 0, 56, 0
4, 41440, Note_on_c, 0, 53, 26
4, 41600, Note_on_c, 0, 53, 0
4, 41600, Note_on_c, 0, 55, 26
4, 41760, Note_on_c, 0, 55, 0
4, 41760, Note_on_c, 0, 56, 30
4, 41770, Control_c, 0, 64, 0
4, 41828, Control_c, 0, 64, 127
4, 41920, Note_on_c, 0, 56, 0
4, 41920, Note_on_c, 0, 53, 26
4, 42080, Note_on_c, 0, 53, 0
4, 42080, Note_on_c, 0, 51, 26
4, 42240, Note_on_c, 0, 51, 0
4, 42240, Note_on_c, 0, 50, 31
4, 42244, Control_c, 0, 64, 0
4, 42286, Control_c, 0, 64, 127
4, 42400, Note_on_c, 0, 50, 0
4, 42400, Note_on_c, 0, 53, 28
4, 42560, Note_on_c, 0, 53, 0
4, 42560, Note_on_c, 0, 58, 28
4, 42720, Note_on_c, 0, 58, 0
4, 42720, Note_on_c, 0, 46, 0
4, 42720, Note_on_c, 0, 56, 32
4, 42730, Control_c, 0, 64, 0
4, 42784, Control_c, 0, 64, 127
4, 42880, Note_on_c, 0, 56, 0
4, 42880, Note_on_c, 0, 55, 28
4, 43040, Note_on_c, 0, 55, 0
4, 43040, Note_on_c, 0, 53, 28
4, 43200, Note_on_c, 0, 53, 0
4, 43200, Note_on_c, 0, 51, 28
4, 43206, Control_c, 0, 64, 0
4, 43360, Note_on_c, 0, 51, 0
4, 43360, Note_on_c, 0, 50, 24
4, 43520, Note_on_c, 0, 50, 0
4, 43520, Note_on_c, 0, 51, 24
4, 43680, Note_on_c, 0, 51, 0
4, 43680, Note_on_c, 0, 50, 27
4, 43840, Note_on_c, 0, 50, 0
4, 43840, Note_on_c, 0, 46, 25
4, 43909, Control_c, 0, 64, 127
4, 44000, Note_on_c, 0, 46, 0
4, 44000, Note_on_c, 0, 44, 25
4, 44160, Note_on_c, 0, 44, 0
4, 44160, Note_on_c, 0, 30, 32
4, 44160, Note_on_c, 0, 42, 32
4, 44170, Control_c, 0, 64, 0
4, 44234, Control_c, 0, 64, 127
4, 44640, Note_on_c, 0, 42, 0
4, 44640, Note_on_c, 0, 30, 0
4, 44640, Note_on_c, 0, 32, 32
4, 44640, Note_on_c, 0, 44, 32
4, 44643, Control_c, 0, 64, 0
4, 44711, Control_c, 0, 64, 127
4, 45120, Note_on_c, 0, 44, 0
4, 45120, Note_on_c, 0, 32, 0
4, 45120, Note_on_c, 0, 34, 32
4, 45120, Note_on_c, 0, 46, 32
4, 45130, Control_c, 0, 64, 0
4, 45186, Control_c, 0, 64, 127
4, 45734, Control_c, 0, 64, 0
4, 46080, Note_on_c, 0, 46, 0
4, 46080, Note_on_c, 0, 34, 0
4, 46080, Note_on_c, 0, 34, 46
4, 46080, Note_on_c, 0, 46, 53
4, 46129, Control_c, 0, 64, 127
4, 46560, Note_on_c, 0, 46, 0
4, 46560, Note_on_c, 0, 34, 0
4, 46560, Note_on_c, 0, 35, 45
4, 46560, Note_on_c, 0, 47, 50
4, 46567, Control_c, 0, 64, 0
4, 46631, Control_c, 0, 64, 127
4, 47040, Note_on_c, 0, 47, 0
4, 47040, Note_on_c, 0, 35, 0
4, 47040, Note_on_c, 0, 37, 42
4, 47040, Note_on_c, 0, 49, 46
4, 47049, Control_c, 0, 64, 0
4, 47106, Control_c, 0, 64, 127
4, 47654, Control_c, 0, 64, 0
4, 48000, Note_on_c, 0, 49, 0
4, 48000, Note_on_c, 0, 37, 0
4, 48000, Note_on_c, 0, 30, 32
4, 48000, Note_on_c, 0, 42, 32
4, 48032, Control_c, 0, 64, 127
4, 48480, Note_on_c, 0, 42, 0
4, 48480, Note_on_c, 0, 30, 0
4, 48480, Note_on_c, 0, 32, 32
4, 48480, Note_on_c, 0, 44, 32
4, 48484, Control_c, 0, 64, 0
4, 48551, Control_c, 0, 64, 127
4, 48960, Note_on_c, 0, 44, 0
4, 48960, Note_on_c, 0, 32, 0
4, 48960, Note_on_c, 0, 34, 32
4, 48960, Note_on_c, 0, 46, 32
4, 48970, Control_c, 0, 64, 0
4, 49026, Control_c, 0, 64, 127
4, 49574, Control_c, 0, 64, 0
4, 49920, Note_on_c, 0, 46, 0
4, 49920, Note_on_c, 0, 34, 0
4, 49920, Note_on_c, 0, 34, 50
4, 49920, Note_on_c, 0, 46, 56
4, 49959, Control_c, 0, 64, 127
4, 50400, Note_on_c, 0, 46, 0
4, 50400, Note_on_c, 0, 34, 0
4, 50400, Note_on_c, 0, 35, 50
4, 50400, Note_on_c, 0, 47, 56
4, 50404, Control_c, 0, 64, 0
4, 50471, Control_c, 0, 64, 127
4, 50880, Note_on_c, 0, 47, 0
4, 50880, Note_on_c, 0, 35, 0
4, 50880, Note_on_c, 0, 37, 46
4, 50880, Note_on_c, 0, 49, 53
4, 50890, Control_c, 0, 64, 0
4, 50946, Control_c, 0, 64, 127
4, 51494, Control_c, 0, 64, 0
4, 51840, Note_on_c, 0, 49, 0
4, 51840, Note_on_c, 0, 37, 0
4, 51840, Note_on_c, 0, 37, 55
4, 51840, Note_on_c, 0, 49, 62
4, 51854, Control_c, 0, 64, 127
4, 52000, Note_on_c, 0, 54, 51
4, 52160, Note_on_c, 0, 54, 0
4, 52160, Note_on_c, 0, 58, 51
4, 52320, Note_on_c, 0, 58, 0
4, 52320, Note_on_c, 0, 49, 0
4, 52320, Note_on_c, 0, 37, 0
4, 52320, Note_on_c, 0, 61, 57
4, 52480, Note_on_c, 0, 61, 0
4, 52480, Note_on_c, 0, 58, 52
4, 52640, Note_on_c, 0, 58, 0
4, 52640, Note_on_c, 0, 54, 52
4, 52800, Note_on_c, 0, 54, 0
4, 52800, Note_on_c, 0, 37, 53
4, 52800, Note_on_c, 0, 49, 59
4, 52809, Control_c, 0, 64, 0
4, 52889, Control_c, 0, 64, 127
4, 52960, Note_on_c, 0, 56, 52
4, 53120, Note_on_c, 0, 56, 0
4, 53120, Note_on_c, 0, 59, 52
4, 53280, Note_on_c, 0, 59, 0
4, 53280, Note_on_c, 0, 49, 0
4, 53280, Note_on_c, 0, 37, 0
4, 53280, Note_on_c, 0, 61, 57
4, 53440, Note_on_c, 0, 61, 0
4, 53440, Note_on_c, 0, 59, 52
4, 53600, Note_on_c, 0, 59, 0
4, 53600, Note_on_c, 0, 56, 52
4, 53760, Note_on_c, 0, 56, 0
4, 53760, Note_on_c, 0, 37, 55
4, 53760, Note_on_c, 0, 49, 62
4, 53770, Control_c, 0, 64, 0
4, 53811, Control_c, 0, 64, 127
4, 53920, Note_on_c, 0, 54, 51
4, 54080, Note_on_c, 0, 54, 0
4, 54080, Note_on_c, 0, 58, 51
4, 54240, Note_on_c, 0, 58, 0
4, 54240, Note_on_c, 0, 49, 0
4, 54240, Note_on_c, 0, 37, 0
4, 54240, Note_on_c, 0, 61, 57
4, 54400, Note_on_c, 0, 61, 0
4, 54400, Note_on_c, 0, 58, 52
4, 54560, Note_on_c, 0, 58, 0
4, 54560, Note_on_c, 0, 54, 46
4, 54720, Note_on_c, 0, 54, 0
4, 54720, Note_on_c, 0, 38, 35
4, 54720, Note_on_c, 0, 50, 40
4, 54730, Control_c, 0, 64, 0
4, 54823, Control_c, 0, 64, 127
4, 54880, Note_on_c, 0, 56, 32
4, 55040, Note_on_c, 0, 56, 0
4, 55040, Note_on_c, 0, 59, 33
4, 55200, Note_on_c, 0, 59, 0
4, 55200, Note_on_c, 0, 50, 0
4, 55200, Note_on_c, 0, 38, 0
4, 55200, Note_on_c, 0, 62, 36
4, 55360, Note_on_c, 0, 62, 0
4, 55360, Note_on_c, 0, 59, 31
4, 55520, Note_on_c, 0, 59, 0
4, 55520, Note_on_c, 0, 56, 29
4, 55680, Note_on_c, 0, 56, 0
4, 55680, Note_on_c, 0, 39, 40
4, 55684, Control_c, 0, 64, 0
4, 55829, Control_c, 0, 64, 127
4, 55840, Note_on_c, 0, 51, 33
4, 56000, Note_on_c, 0, 51, 0
4, 56000, Note_on_c, 0, 54, 33
4, 56160, Note_on_c, 0, 54, 0
4, 56160, Note_on_c, 0, 39, 0
4, 56160, Note_on_c, 0, 58, 36
4, 56320, Note_on_c, 0, 58, 0
4, 56320, Note_on_c, 0, 54, 34
4, 56480, Note_on_c, 0, 54, 0
4, 56480, Note_on_c, 0, 51, 34
4, 56640, Note_on_c, 0, 51, 0
4, 56640, Note_on_c, 0, 44, 38
4, 56650, Control_c, 0, 64, 0
4, 56737, Control_c, 0, 64, 127
4, 56800, Note_on_c, 0, 51, 34
4, 56960, Note_on_c, 0, 51, 0
4, 56960, Note_on_c, 0, 56, 34
4, 57120, Note_on_c, 0, 56, 0
4, 57120, Note_on_c, 0, 44, 0
4, 57120, Note_on_c, 0, 59, 36
4, 57600, Note_on_c, 0, 59, 0
4, 57600, Note_on_c, 0, 39, 40
4, 57610, Control_c, 0, 64, 0
4, 57669, Control_c, 0, 64, 127
4, 57760, Note_on_c, 0, 51, 33
4, 57920, Note_on_c, 0, 51, 0
4, 57920, Note_on_c, 0, 54, 33
4, 58080, Note_on_c, 0, 54, 0
4, 58080, Note_on_c, 0, 39, 0
4, 58080, Note_on_c, 0, 58, 36
4, 58240, Note_on_c, 0, 58, 0
4, 58240, Note_on_c, 0, 54, 34
4, 58400, Note_on_c, 0, 54, 0
4, 58400, Note_on_c, 0, 51, 34
4, 58560, Note_on_c, 0, 51, 0
4, 58560, Note_on_c, 0, 44, 38
4, 58570, Control_c, 0, 64, 0
4, 58686, Control_c, 0, 64, 127
4, 58720, Note_on_c, 0, 51, 36
4, 58880, Note_on_c, 0, 51, 0
4, 58880, Note_on_c, 0, 56, 38
4, 59040, Note_on_c, 0, 56, 0
4, 59040, Note_on_c, 0, 44, 0
4, 59040, Note_on_c, 0, 59, 45
4, 59520, Note_on_c, 0, 59, 0
4, 59520, Note_on_c, 0, 44, 52
4, 59530, Control_c, 0, 64, 0
4, 59587, Control_c, 0, 64, 127
4, 59680, Note_on_c, 0, 51, 37
4, 59840, Note_on_c, 0, 51, 0
4, 59840, Note_on_c, 0, 56, 40
4, 60000, Note_on_c, 0, 56, 0
4, 60000, Note_on_c, 0, 44, 0
4, 60000, Note_on_c, 0, 59, 47
4, 60480, Note_on_c, 0, 59, 0
4, 60480, Note_on_c, 0, 44, 60
4, 60490, Control_c, 0, 64, 0
4, 60544, Control_c, 0, 64, 127
4, 60640, Note_on_c, 0, 51, 51
4, 60800, Note_on_c, 0, 51, 0
4, 60800, Note_on_c, 0, 56, 51
4, 60960, Note_on_c, 0, 56, 0
4, 60960, Note_on_c, 0, 44, 0
4, 60960, Note_on_c, 0, 59, 57
4, 61120, Note_on_c, 0, 59, 0
4, 61120, Note_on_c, 0, 56, 55
4, 61280, Note_on_c, 0, 56, 0
4, 61280, Note_on_c, 0, 51, 54
4, 61440, Note_on_c, 0, 51, 0
4, 61440, Note_on_c, 0, 59, 55
4, 61600, Note_on_c, 0, 59, 0
4, 61600, Note_on_c, 0, 56, 43
4, 61760, Note_on_c, 0, 56, 0
4, 61760, Note_on_c, 0, 51, 38
4, 61920, Note_on_c, 0, 51, 0
4, 61920, Note_on_c, 0, 59, 34
4, 62400, Note_on_c, 0, 59, 0
4, 62404, Control_c, 0, 64, 0
4, 63360, Note_on_c, 0, 34, 27
4, 63420, Control_c, 0, 64, 127
4, 63520, Note_on_c, 0, 46, 24
4, 63680, Note_on_c, 0, 46, 0
4, 63680, Note_on_c, 0, 51, 25
4, 63840, Note_on_c, 0, 51, 0
4, 63840, Note_on_c, 0, 34, 0
4, 63840, Note_on_c, 0, 55, 27
4, 64000, Note_on_c, 0, 55, 0
4, 64000, Note_on_c, 0, 51, 24
4, 64160, Note_on_c, 0, 51, 0
4, 64160, Note_on_c, 0, 46, 24
4, 64320, Note_on_c, 0, 46, 0
4, 64320, Note_on_c, 0, 34, 27
4, 64330, Control_c, 0, 64, 0
4, 64373, Control_c, 0, 64, 127
4, 64480, Note_on_c, 0, 46, 25
4, 64640, Note_on_c, 0, 46, 0
4, 64640, Note_on_c, 0, 51, 25
4, 64800, Note_on_c, 0, 51, 0
4, 64800, Note_on_c, 0, 34, 0
4, 64800, Note_on_c, 0, 55, 27
4, 64960, Note_on_c, 0, 55, 0
4, 64960, Note_on_c, 0, 51, 24
4, 65120, Note_on_c, 0, 51, 0
4, 65120, Note_on_c, 0, 46, 24
4, 65280, Note_on_c, 0, 46, 0
4, 65280, Note_on_c, 0, 34, 27
4, 65290, Control_c, 0, 64, 0
4, 65336, Control_c, 0, 64, 127
4, 65440, Note_on_c, 0, 46, 24
4, 65600, Note_on_c, 0, 46, 0
4, 65600, Note_on_c, 0, 50, 25
4, 65760, Note_on_c, 0, 50, 0
4, 65760, Note_on_c, 0, 34, 0
4, 65760, Note_on_c, 0, 53, 27
4, 65920, Note_on_c, 0, 53, 0
4, 65920, Note_on_c, 0, 50, 24
4, 66080, Note_on_c, 0, 50, 0
4, 66080, Note_on_c, 0, 46, 24
4, 66240, Note_on_c, 0, 46, 0
4, 66240, Note_on_c, 0, 36, 27
4, 66250, Control_c, 0, 64, 0
4, 66306, Control_c, 0, 64, 127
4, 66400, Note_on_c, 0, 51, 32
4, 66400, Note_on_c, 0, 43, 32
4, 66560, Note_on_c, 0, 43, 0
4, 66560, Note_on_c, 0, 51, 0
4, 66560, Note_on_c, 0, 55, 32
4, 66560, Note_on_c, 0, 48, 32
4, 66720, Note_on_c, 0, 48, 0
4, 66720, Note_on_c, 0, 55, 0
4, 66720, Note_on_c, 0, 36, 0
4, 66720, Note_on_c, 0, 60, 35
4, 66720, Note_on_c, 0, 51, 35
4, 66880, Note_on_c, 0, 51, 0
4, 66880, Note_on_c, 0, 60, 0
4, 66880, Note_on_c, 0, 55, 29
4, 66880, Note_on_c, 0, 48, 29
4, 67040, Note_on_c, 0, 48, 0
4, 67040, Note_on_c, 0, 55, 0
4, 67040, Note_on_c, 0, 51, 30
4, 67040, Note_on_c, 0, 43, 30
4, 67200, Note_on_c, 0, 43, 0
4, 67200, Note_on_c, 0, 51, 0
4, 67200, Note_on_c, 0, 44, 39
4, 67200, Note_on_c, 0, 32, 36
4, 67210, Control_c, 0, 64, 0
4, 67260, Control_c, 0, 64, 127
4, 67350, Note_on_c, 0, 44, 0
4, 67360, Note_on_c, 0, 44, 35
4, 67520, Note_on_c, 0, 44, 0
4, 67520, Note_on_c, 0, 48, 33
4, 67680, Note_on_c, 0, 48, 0
4, 67680, Note_on_c, 0, 32, 0
4, 67680, Note_on_c, 0, 53, 45
4, 67840, Note_on_c, 0, 53, 0
4, 67840, Note_on_c, 0, 48, 37
4, 68000, Note_on_c, 0, 48, 0
4, 68000, Note_on_c, 0, 44, 37
4, 68160, Note_on_c, 0, 44, 0
4, 68160, Note_on_c, 0, 41, 48
4, 68160, Note_on_c, 0, 29, 43
4, 68320, Note_on_c, 0, 48, 38
4, 68480, Note_on_c, 0, 48, 0
4, 68480, Note_on_c, 0, 53, 45
4, 68640, Note_on_c, 0, 53, 0
4, 68640, Note_on_c, 0, 29, 0
4, 68640, Note_on_c, 0, 41, 0
4, 68640, Note_on_c, 0, 56, 49
4, 68800, Note_on_c, 0, 56, 0
4, 68800, Note_on_c, 0, 53, 45
4, 68960, Note_on_c, 0, 53, 0
4, 68960, Note_on_c, 0, 48, 42
4, 69120, Note_on_c, 0, 48, 0
4, 69120, Note_on_c, 0, 34, 29
4, 69120, Note_on_c, 0, 46, 33
4, 69130, Control_c, 0, 64, 0
4, 69184, Control_c, 0, 64, 127
4, 69280, Note_on_c, 0, 53, 36
4, 69440, Note_on_c, 0, 53, 0
4, 69440, Note_on_c, 0, 56, 30
4, 69600, Note_on_c, 0, 56, 0
4, 69600, Note_on_c, 0, 46, 0
4, 69600, Note_on_c, 0, 34, 0
4, 69600, Note_on_c, 0, 58, 36
4, 69760, Note_on_c, 0, 58, 0
4, 69760, Note_on_c, 0, 56, 32
4, 69920, Note_on_c, 0, 56, 0
4, 69920, Note_on_c, 0, 53, 28
4, 70080, Note_on_c, 0, 53, 0
4, 70080, Note_on_c, 0, 58, 27
4, 70240, Note_on_c, 0, 58, 0
4, 70240, Note_on_c, 0, 56, 23
4, 70400, Note_on_c, 0, 56, 0
4, 70400, Note_on_c, 0, 53, 23
4, 70560, Note_on_c, 0, 53, 0
4, 70560, Note_on_c, 0, 50, 21
4, 70560, Note_on_c, 0, 58, 23
4, 70720, Note_on_c, 0, 58, 0
4, 70720, Note_on_c, 0, 56, 18
4, 70880, Note_on_c, 0, 56, 0
4, 70880, Note_on_c, 0, 53, 18
4, 71040, Note_on_c, 0, 53, 0
4, 71040, Note_on_c, 0, 50, 0
4, 71040, Note_on_c, 0, 39, 45
4, 71050, Control_c, 0, 64, 0
4, 71107, Control_c, 0, 64, 127
4, 71200, Note_on_c, 0, 51, 36
4, 71360, Note_on_c, 0, 51, 0
4, 71360, Note_on_c, 0, 55, 36
4, 71520, Note_on_c, 0, 55, 0
4, 71520, Note_on_c, 0, 39, 0
4, 71520, Note_on_c, 0, 58, 41
4, 71680, Note_on_c, 0, 58, 0
4, 71680, Note_on_c, 0, 55, 37
4, 71840, Note_on_c, 0, 55, 0
4, 71840, Note_on_c, 0, 51, 37
4, 72000, Note_on_c, 0, 51, 0
4, 72000, Note_on_c, 0, 34, 51
4, 72000, Note_on_c, 0, 46, 51
4, 72010, Control_c, 0, 64, 0
4, 72074, Control_c, 0, 64, 127
4, 72160, Note_on_c, 0, 53, 37
4, 72320, Note_on_c, 0, 53, 0
4, 72320, Note_on_c, 0, 56, 37
4, 72480, Note_on_c, 0, 56, 0
4, 72480, Note_on_c, 0, 46, 0
4, 72480, Note_on_c, 0, 34, 0
4, 72480, Note_on_c, 0, 58, 41
4, 72640, Note_on_c, 0, 58, 0
4, 72640, Note_on_c, 0, 56, 37
4, 72800, Note_on_c, 0, 56, 0
4, 72800, Note_on_c, 0, 53, 37
4, 72960, Note_on_c, 0, 53, 0
4, 72960, Note_on_c, 0, 39, 45
4, 72968, Control_c, 0, 64, 0
4, 73038, Control_c, 0, 64, 127
4, 73120, Note_on_c, 0, 51, 36
4, 73280, Note_on_c, 0, 51, 0
4, 73280, Note_on_c, 0, 55, 36
4, 73440, Note_on_c, 0, 55, 0
4, 73440, Note_on_c, 0, 39, 0
4, 73440, Note_on_c, 0, 58, 41
4, 73600, Note_on_c, 0, 58, 0
4, 73600, Note_on_c, 0, 55, 37
4, 73760, Note_on_c, 0, 55, 0
4, 73760, Note_on_c, 0, 51, 33
4, 73920, Note_on_c, 0, 51, 0
4, 73920, Note_on_c, 0, 35, 35
4, 73920, Note_on_c, 0, 47, 41
4, 73929, Control_c, 0, 64, 0
4, 74005, Control_c, 0, 64, 127
4, 74080, Note_on_c, 0, 53, 31
4, 74240, Note_on_c, 0, 53, 0
4, 74240, Note_on_c, 0, 56, 31
4, 74400, Note_on_c, 0, 56, 0
4, 74400, Note_on_c, 0, 47, 0
4, 74400, Note_on_c, 0, 35, 0
4, 74400, Note_on_c, 0, 59, 32
4, 74560, Note_on_c, 0, 59, 0
4, 74560, Note_on_c, 0, 56, 29
4, 74720, Note_on_c, 0, 56, 0
4, 74720, Note_on_c, 0, 53, 28
4, 74880, Note_on_c, 0, 53, 0
4, 74880, Note_on_c, 0, 36, 34
4, 74885, Control_c, 0, 64, 0
4, 75000, Control_c, 0, 64, 127
4, 75040, Note_on_c, 0, 48, 26
4, 75200, Note_on_c, 0, 48, 0
4, 75200, Note_on_c, 0, 51, 26
4, 75360, Note_on_c, 0, 51, 0
4, 75360, Note_on_c, 0, 36, 0
4, 75360, Note_on_c, 0, 55, 30
4, 75520, Note_on_c, 0, 55, 0
4, 75520, Note_on_c, 0, 51, 27
4, 75680, Note_on_c, 0, 51, 0
4, 75680, Note_on_c, 0, 48, 24
4, 75840, Note_on_c, 0, 48, 0
4, 75840, Note_on_c, 0, 44, 34
4, 75850, Control_c, 0, 64, 0
4, 76320, Note_on_c, 0, 44, 0
4, 76320, Note_on_c, 0, 46, 27
4, 76320, Note_on_c, 0, 56, 30
4, 76798, Note_on_c, 0, 56, 0
4, 76800, Note_on_c, 0, 46, 0
4, 76800, Note_on_c, 0, 39, 34
4, 76920, Control_c, 0, 64, 127
4, 76960, Note_on_c, 0, 46, 26
4, 77120, Note_on_c, 0, 46, 0
4, 77120, Note_on_c, 0, 50, 26
4, 77280, Note_on_c, 0, 50, 0
4, 77280, Note_on_c, 0, 39, 0
4, 77280, Note_on_c, 0, 53, 30
4, 77440, Note_on_c, 0, 53, 0
4, 77440, Note_on_c, 0, 50, 27
4, 77600, Note_on_c, 0, 50, 0
4, 77600, Note_on_c, 0, 46, 24
4, 77760, Note_on_c, 0, 46, 0
4, 77760, Note_on_c, 0, 39, 31
4, 77767, Control_c, 0, 64, 0
4, 77820, Control_c, 0, 64, 127
4, 77920, Note_on_c, 0, 46, 26
4, 78080, Note_on_c, 0, 46, 0
4, 78080, Note_on_c, 0, 51, 24
4, 78240, Note_on_c, 0, 51, 0
4, 78240, Note_on_c, 0, 39, 0
4, 78240, Note_on_c, 0, 39, 23
4, 78250, Control_c, 0, 64, 0
4, 78457, Control_c, 0, 64, 127
4, 78480, Note_on_c, 0, 39, 0
4, 78720, Note_on_c, 0, 30, 32
4, 78720, Note_on_c, 0, 42, 32
4, 78730, Control_c, 0, 64, 0
4, 78776, Control_c, 0, 64, 127
4, 79200, Note_on_c, 0, 42, 0
4, 79200, Note_on_c, 0, 30, 0
4, 79200, Note_on_c, 0, 32, 32
4, 79200, Note_on_c, 0, 44, 32
4, 79206, Control_c, 0, 64, 0
4, 79271, Control_c, 0, 64, 127
4, 79680, Note_on_c, 0, 44, 0
4, 79680, Note_on_c, 0, 32, 0
4, 79680, Note_on_c, 0, 34, 32
4, 79680, Note_on_c, 0, 46, 32
4, 79690, Control_c, 0, 64, 0
4, 79746, Control_c, 0, 64, 127
4, 80294, Control_c, 0, 64, 0
4, 80640, Note_on_c, 0, 46, 0
4, 80640, Note_on_c, 0, 34, 0
4, 80640, Note_on_c, 0, 34, 46
4, 80640, Note_on_c, 0, 46, 53
4, 80689, Control_c, 0, 64, 127
4, 81120, Note_on_c, 0, 46, 0
4, 81120, Note_on_c, 0, 34, 0
4, 81120, Note_on_c, 0, 35, 45
4, 81120, Note_on_c, 0, 47, 50
4, 81123, Control_c, 0, 64, 0
4, 81191, Control_c, 0, 64, 127
4, 81600, Note_on_c, 0, 47, 0
4, 81600, Note_on_c, 0, 35, 0
4, 81600, Note_on_c, 0, 37, 42
4, 81600, Note_on_c, 0, 49, 46
4, 81609, Control_c, 0, 64, 0
4, 81666, Control_c, 0, 64, 127
4, 82214, Control_c, 0, 64, 0
4, 82560, Note_on_c, 0, 49, 0
4, 82560, Note_on_c, 0, 37, 0
4, 82560, Note_on_c, 0, 30, 32
4, 82560, Note_on_c, 0, 42, 32
4, 82606, Control_c, 0, 64, 127
4, 83040, Note_on_c, 0, 42, 0
4, 83040, Note_on_c, 0, 30, 0
4, 83040, Note_on_c, 0, 32, 32
4, 83040, Note_on_c, 0, 44, 32
4, 83046, Control_c, 0, 64, 0
4, 83111, Control_c, 0, 64, 127
4, 83520, Note_on_c, 0, 44, 0
4, 83520, Note_on_c, 0, 32, 0
4, 83520, Note_on_c, 0, 34, 32
4, 83520, Note_on_c, 0, 46, 32
4, 83530, Control_c, 0, 64, 0
4, 83586, Control_c, 0, 64, 127
4, 84134, Control_c, 0, 64, 0
4, 84480, Note_on_c, 0, 46, 0
4, 84480, Note_on_c, 0, 34, 0
4, 84480, Note_on_c, 0, 34, 50
4, 84480, Note_on_c, 0, 46, 56
4, 84515, Control_c, 0, 64, 127
4, 84960, Note_on_c, 0, 46, 0
4, 84960, Note_on_c, 0, 34, 0
4, 84960, Note_on_c, 0, 35, 50
4, 84960, Note_on_c, 0, 47, 56
4, 84965, Control_c, 0, 64, 0
4, 85031, Control_c, 0, 64, 127
4, 85440, Note_on_c, 0, 47, 0
4, 85440, Note_on_c, 0, 35, 0
4, 85440, Note_on_c, 0, 37, 46
4, 85440, Note_on_c, 0, 49, 53
4, 85450, Control_c, 0, 64, 0
4, 85506, Control_c, 0, 64, 127
4, 86054, Control_c, 0, 64, 0
4, 86400, Note_on_c, 0, 49, 0
4, 86400, Note_on_c, 0, 37, 0
4, 86400, Note_on_c, 0, 37, 55
4, 86400, Note_on_c, 0, 49, 62
4, 86431, Control_c, 0, 64, 127
4, 86560, Note_on_c, 0, 54, 51
4, 86720, Note_on_c, 0, 54, 0
4, 86720, Note_on_c, 0, 58, 51
4, 86880, Note_on_c, 0, 58, 0
4, 86880, Note_on_c, 0, 49, 0
4, 86880, Note_on_c, 0, 37, 0
4, 86880, Note_on_c, 0, 61, 57
4, 87040, Note_on_c, 0, 61, 0
4, 87040, Note_on_c, 0, 58, 52
4, 87200, Note_on_c, 0, 58, 0
4, 87200, Note_on_c, 0, 54, 52
4, 87360, Note_on_c, 0, 54, 0
4, 87360, Note_on_c, 0, 37, 53
4, 87360, Note_on_c, 0, 49, 59
4, 87369, Control_c, 0, 64, 0
4, 87443, Control_c, 0, 64, 127
4, 87520, Note_on_c, 0, 56, 52
4, 87680, Note_on_c, 0, 56, 0
4, 87680, Note_on_c, 0, 59, 52
4, 87840, Note_on_c, 0, 59, 0
4, 87840, Note_on_c, 0, 49, 0
4, 87840, Note_on_c, 0, 37, 0
4, 87840, Note_on_c, 0, 61, 57
4, 88000, Note_on_c, 0, 61, 0
4, 88000, Note_on_c, 0, 59, 52
4, 88160, Note_on_c, 0, 59, 0
4, 88160, Note_on_c, 0, 56, 52
4, 88320, Note_on_c, 0, 56, 0
4, 88320, Note_on_c, 0, 37, 55
4, 88320, Note_on_c, 0, 49, 62
4, 88324, Control_c, 0, 64, 0
4, 88374, Control_c, 0, 64, 127
4, 88480, Note_on_c, 0, 54, 51
4, 88640, Note_on_c, 0, 54, 0
4, 88640, Note_on_c, 0, 58, 51
4, 88800, Note_on_c, 0, 58, 0
4, 88800, Note_on_c, 0, 49, 0
4, 88800, Note_on_c, 0, 37, 0
4, 88800, Note_on_c, 0, 61, 57
4, 88960, Note_on_c, 0, 61, 0
4, 88960, Note_on_c, 0, 58, 52
4, 89120, Note_on_c, 0, 58, 0
4, 89120, Note_on_c, 0, 54, 45
4, 89280, Note_on_c, 0, 54, 0
4, 89280, Note_on_c, 0, 38, 40
4, 89280, Note_on_c, 0, 50, 40
4, 89289, Control_c, 0, 64, 0
4, 89351, Control_c, 0, 64, 127
4, 89440, Note_on_c, 0, 56, 34
4, 89600, Note_on_c, 0, 56, 0
4, 89600, Note_on_c, 0, 59, 35
4, 89760, Note_on_c, 0, 59, 0
4, 89760, Note_on_c, 0, 50, 0
4, 89760, Note_on_c, 0, 38, 0
4, 89760, Note_on_c, 0, 62, 36
4, 89920, Note_on_c, 0, 62, 0
4, 89920, Note_on_c, 0, 59, 31
4, 90080, Note_on_c, 0, 59, 0
4, 90080, Note_on_c, 0, 56, 29
4, 90240, Note_on_c, 0, 56, 0
4, 90240, Note_on_c, 0, 39, 40
4, 90244, Control_c, 0, 64, 0
4, 90389, Control_c, 0, 64, 127
4, 90400, Note_on_c, 0, 51, 33
4, 90560, Note_on_c, 0, 51, 0
4, 90560, Note_on_c, 0, 54, 33
4, 90720, Note_on_c, 0, 54, 0
4, 90720, Note_on_c, 0, 39, 0
4, 90720, Note_on_c, 0, 58, 36
4, 90880, Note_on_c, 0, 58, 0
4, 90880, Note_on_c, 0, 54, 34
4, 91040, Note_on_c, 0, 54, 0
4, 91040, Note_on_c, 0, 51, 34
4, 91200, Note_on_c, 0, 51, 0
4, 91200, Note_on_c, 0, 44, 38
4, 91210, Control_c, 0, 64, 0
4, 91297, Control_c, 0, 64, 127
4, 91360, Note_on_c, 0, 51, 34
4, 91520, Note_on_c, 0, 51, 0
4, 91520, Note_on_c, 0, 56, 34
4, 91680, Note_on_c, 0, 56, 0
4, 91680, Note_on_c, 0, 44, 0
4, 91680, Note_on_c, 0, 59, 36
4, 92160, Note_on_c, 0, 59, 0
4, 92160, Note_on_c, 0, 39, 40
4, 92170, Control_c, 0, 64, 0
4, 92309, Control_c, 0, 64, 127
4, 92320, Note_on_c, 0, 51, 33
4, 92480, Note_on_c, 0, 51, 0
4, 92480, Note_on_c, 0, 54, 33
4, 92640, Note_on_c, 0, 54, 0
4, 92640, Note_on_c, 0, 39, 0
4, 92640, Note_on_c, 0, 58, 36
4, 92800, Note_on_c, 0, 58, 0
4, 92800, Note_on_c, 0, 54, 34
4, 92960, Note_on_c, 0, 54, 0
4, 92960, Note_on_c, 0, 51, 34
4, 93120, Note_on_c, 0, 51, 0
4, 93120, Note_on_c, 0, 44, 38
4, 93129, Control_c, 0, 64, 0
4, 93240, Control_c, 0, 64, 127
4, 93280, Note_on_c, 0, 51, 36
4, 93440, Note_on_c, 0, 51, 0
4, 93440, Note_on_c, 0, 56, 38
4, 93600, Note_on_c, 0, 56, 0
4, 93600, Note_on_c, 0, 44, 0
4, 93600, Note_on_c, 0, 59, 45
4, 94080, Note_on_c, 0, 59, 0
4, 94080, Note_on_c, 0, 44, 52
4, 94090, Control_c, 0, 64, 0
4, 94144, Control_c, 0, 64, 127
4, 94240, Note_on_c, 0, 51, 37
4, 94400, Note_on_c, 0, 51, 0
4, 94400, Note_on_c, 0, 56, 40
4, 94560, Note_on_c, 0, 56, 0
4, 94560, Note_on_c, 0, 44, 0
4, 94560, Note_on_c, 0, 59, 47
4, 95040, Note_on_c, 0, 59, 0
4, 95040, Note_on_c, 0, 44, 60
4, 95050, Control_c, 0, 64, 0
4, 95100, Control_c, 0, 64, 127
4, 95200, Note_on_c, 0, 51, 51
4, 95360, Note_on_c, 0, 51, 0
4, 95360, Note_on_c, 0, 56, 51
4, 95520, Note_on_c, 0, 56, 0
4, 95520, Note_on_c, 0, 44, 0
4, 95520, Note_on_c, 0, 59, 57
4, 95680, Note_on_c, 0, 59, 0
4, 95680, Note_on_c, 0, 56, 55
4, 95840, Note_on_c, 0, 56, 0
4, 95840, Note_on_c, 0, 51, 54
4, 96000, Note_on_c, 0, 51, 0
4, 96000, Note_on_c, 0, 59, 55
4, 96160, Note_on_c, 0, 59, 0
4, 96160, Note_on_c, 0, 56, 43
4, 96320, Note_on_c, 0, 56, 0
4, 96320, Note_on_c, 0, 51, 38
4, 96480, Note_on_c, 0, 51, 0
4, 96480, Note_on_c, 0, 59, 34
4, 96680, Control_c, 0, 64, 0
4, 96960, Note_on_c, 0, 59, 0
4, 97920, Note_on_c, 0, 34, 27
4, 97980, Control_c, 0, 64, 127
4, 98080, Note_on_c, 0, 46, 24
4, 98240, Note_on_c, 0, 46, 0
4, 98240, Note_on_c, 0, 51, 25
4, 98400, Note_on_c, 0, 51, 0
4, 98400, Note_on_c, 0, 34, 0
4, 98400, Note_on_c, 0, 55, 27
4, 98560, Note_on_c, 0, 55, 0
4, 98560, Note_on_c, 0, 51, 24
4, 98720, Note_on_c, 0, 51, 0
4, 98720, Note_on_c, 0, 46, 24
4, 98880, Note_on_c, 0, 46, 0
4, 98880, Note_on_c, 0, 34, 27
4, 98889, Control_c, 0, 64, 0
4, 98933, Control_c, 0, 64, 127
4, 99040, Note_on_c, 0, 46, 25
4, 99200, Note_on_c, 0, 46, 0
4, 99200, Note_on_c, 0, 51, 25
4, 99360, Note_on_c, 0, 51, 0
4, 99360, Note_on_c, 0, 34, 0
4, 99360, Note_on_c, 0, 55, 27
4, 99520, Note_on_c, 0, 55, 0
4, 99520, Note_on_c, 0, 51, 24
4, 99680, Note_on_c, 0, 51, 0
4, 99680, Note_on_c, 0, 46, 24
4, 99840, Note_on_c, 0, 46, 0
4, 99840, Note_on_c, 0, 34, 27
4, 99845, Control_c, 0, 64, 0
4, 99896, Control_c, 0, 64, 127
4, 100000, Note_on_c, 0, 46, 24
4, 100160, Note_on_c, 0, 46, 0
4, 100160, Note_on_c, 0, 50, 25
4, 100320, Note_on_c, 0, 50, 0
4, 100320, Note_on_c, 0, 34, 0
4, 100320, Note_on_c, 0, 53, 27
4, 100480, Note_on_c, 0, 53, 0
4, 100480, Note_on_c, 0, 50, 24
4, 100640, Note_on_c, 0, 50, 0
4, 100640, Note_on_c, 0, 46, 24
4, 100800, Note_on_c, 0, 46, 0
4, 100800, Note_on_c, 0, 36, 27
4, 100808, Control_c, 0, 64, 0
4, 100853, Control_c, 0, 64, 127
4, 100960, Note_on_c, 0, 51, 32
4, 100960, Note_on_c, 0, 43, 32
4, 101120, Note_on_c, 0, 43, 0
4, 101120, Note_on_c, 0, 51, 0
4, 101120, Note_on_c, 0, 55, 32
4, 101120, Note_on_c, 0, 48, 32
4, 101280, Note_on_c, 0, 48, 0
4, 101280, Note_on_c, 0, 55, 0
4, 101280, Note_on_c, 0, 36, 0
4, 101280, Note_on_c, 0, 60, 35
4, 101280, Note_on_c, 0, 51, 35
4, 101440, Note_on_c, 0, 51, 0
4, 101440, Note_on_c, 0, 60, 0
4, 101440, Note_on_c, 0, 55, 29
4, 101440, Note_on_c, 0, 48, 29
4, 101600, Note_on_c, 0, 48, 0
4, 101600, Note_on_c, 0, 55, 0
4, 101600, Note_on_c, 0, 51, 30
4, 101600, Note_on_c, 0, 43, 30
4, 101760, Note_on_c, 0, 43, 0
4, 101760, Note_on_c, 0, 51, 0
4, 101760, Note_on_c, 0, 44, 39
4, 101760, Note_on_c, 0, 32, 36
4, 101767, Control_c, 0, 64, 0
4, 101813, Control_c, 0, 64, 127
4, 101910, Note_on_c, 0, 44, 0
4, 101920, Note_on_c, 0, 44, 35
4, 102080, Note_on_c, 0, 44, 0
4, 102080, Note_on_c, 0, 48, 33
4, 102240, Note_on_c, 0, 48, 0
4, 102240, Note_on_c, 0, 32, 0
4, 102240, Note_on_c, 0, 53, 45
4, 102400, Note_on_c, 0, 53, 0
4, 102400, Note_on_c, 0, 48, 37
4, 102560, Note_on_c, 0, 48, 0
4, 102560, Note_on_c, 0, 44, 37
4, 102720, Note_on_c, 0, 44, 0
4, 102720, Note_on_c, 0, 41, 48
4, 102720, Note_on_c, 0, 29, 43
4, 102730, Control_c, 0, 64, 0
4, 102773, Control_c, 0, 64, 127
4, 102880, Note_on_c, 0, 48, 38
4, 103040, Note_on_c, 0, 48, 0
4, 103040, Note_on_c, 0, 53, 45
4, 103200, Note_on_c, 0, 53, 0
4, 103200, Note_on_c, 0, 29, 0
4, 103200, Note_on_c, 0, 41, 0
4, 103200, Note_on_c, 0, 56, 49
4, 103360, Note_on_c, 0, 56, 0
4, 103360, Note_on_c, 0, 53, 45
4, 103520, Note_on_c, 0, 53, 0
4, 103520, Note_on_c, 0, 48, 42
4, 103680, Note_on_c, 0, 48, 0
4, 103680, Note_on_c, 0, 34, 29
4, 103680, Note_on_c, 0, 46, 33
4, 103690, Control_c, 0, 64, 0
4, 103779, Control_c, 0, 64, 127
4, 103840, Note_on_c, 0, 53, 36
4, 104000, Note_on_c, 0, 53, 0
4, 104000, Note_on_c, 0, 56, 30
4, 104160, Note_on_c, 0, 56, 0
4, 104160, Note_on_c, 0, 46, 0
4, 104160, Note_on_c, 0, 34, 0
4, 104160, Note_on_c, 0, 58, 36
4, 104320, Note_on_c, 0, 58, 0
4, 104320, Note_on_c, 0, 56, 32
4, 104480, Note_on_c, 0, 56, 0
4, 104480, Note_on_c, 0, 53, 28
4, 104640, Note_on_c, 0, 53, 0
4, 104640, Note_on_c, 0, 58, 27
4, 104800, Note_on_c, 0, 58, 0
4, 104800, Note_on_c, 0, 56, 23
4, 104960, Note_on_c, 0, 56, 0
4, 104960, Note_on_c, 0, 53, 23
4, 105120, Note_on_c, 0, 53, 0
4, 105120, Note_on_c, 0, 50, 21
4, 105120, Note_on_c, 0, 58, 23
4, 105280, Note_on_c, 0, 58, 0
4, 105280, Note_on_c, 0, 56, 18
4, 105440, Note_on_c, 0, 56, 0
4, 105440, Note_on_c, 0, 53, 18
4, 105600, Note_on_c, 0, 53, 0
4, 105600, Note_on_c, 0, 50, 0
4, 105600, Note_on_c, 0, 39, 45
4, 105610, Control_c, 0, 64, 0
4, 105649, Control_c, 0, 64, 127
4, 105760, Note_on_c, 0, 51, 36
4, 105920, Note_on_c, 0, 51, 0
4, 105920, Note_on_c, 0, 55, 36
4, 106080, Note_on_c, 0, 55, 0
4, 106080, Note_on_c, 0, 39, 0
4, 106080, Note_on_c, 0, 58, 41
4, 106240, Note_on_c, 0, 58, 0
4, 106240, Note_on_c, 0, 55, 37
4, 106400, Note_on_c, 0, 55, 0
4, 106400, Note_on_c, 0, 51, 37
4, 106560, Note_on_c, 0, 51, 0
4, 106560, Note_on_c, 0, 34, 51
4, 106560, Note_on_c, 0, 46, 51
4, 106569, Control_c, 0, 64, 0
4, 106613, Control_c, 0, 64, 127
4, 106720, Note_on_c, 0, 53, 37
4, 106880, Note_on_c, 0, 53, 0
4, 106880, Note_on_c, 0, 56, 37
4, 107040, Note_on_c, 0, 56, 0
4, 107040, Note_on_c, 0, 46, 0
4, 107040, Note_on_c, 0, 34, 0
4, 107040, Note_on_c, 0, 58, 41
4, 107200, Note_on_c, 0, 58, 0
4, 107200, Note_on_c, 0, 56, 37
4, 107360, Note_on_c, 0, 56, 0
4, 107360, Note_on_c, 0, 53, 37
4, 107520, Note_on_c, 0, 53, 0
4, 107520, Note_on_c, 0, 39, 45
4, 107525, Control_c, 0, 64, 0
4, 107612, Control_c, 0, 64, 127
4, 107680, Note_on_c, 0, 51, 36
4, 107840, Note_on_c, 0, 51, 0
4, 107840, Note_on_c, 0, 55, 36
4, 108000, Note_on_c, 0, 55, 0
4, 108000, Note_on_c, 0, 39, 0
4, 108000, Note_on_c, 0, 58, 41
4, 108160, Note_on_c, 0, 58, 0
4, 108160, Note_on_c, 0, 55, 37
4, 108320, Note_on_c, 0, 55, 0
4, 108320, Note_on_c, 0, 51, 33
4, 108480, Note_on_c, 0, 51, 0
4, 108480, Note_on_c, 0, 35, 35
4, 108480, Note_on_c, 0, 47, 40
4, 108490, Control_c, 0, 64, 0
4, 108540, Control_c, 0, 64, 127
4, 108640, Note_on_c, 0, 53, 31
4, 108800, Note_on_c, 0, 53, 0
4, 108800, Note_on_c, 0, 56, 31
4, 108960, Note_on_c, 0, 56, 0
4, 108960, Note_on_c, 0, 47, 0
4, 108960, Note_on_c, 0, 35, 0
4, 108960, Note_on_c, 0, 59, 32
4, 109120, Note_on_c, 0, 59, 0
4, 109120, Note_on_c, 0, 56, 29
4, 109280, Note_on_c, 0, 56, 0
4, 109280, Note_on_c, 0, 53, 28
4, 109440, Note_on_c, 0, 53, 0
4, 109440, Note_on_c, 0, 36, 34
4, 109448, Control_c, 0, 64, 0
4, 109560, Control_c, 0, 64, 127
4, 109600, Note_on_c, 0, 48, 26
4, 109760, Note_on_c, 0, 48, 0
4, 109760, Note_on_c, 0, 51, 26
4, 109920, Note_on_c, 0, 51, 0
4, 109920, Note_on_c, 0, 36, 0
4, 109920, Note_on_c, 0, 55, 30
4, 110080, Note_on_c, 0, 55, 0
4, 110080, Note_on_c, 0, 51, 27
4, 110240, Note_on_c, 0, 51, 0
4, 110240, Note_on_c, 0, 48, 24
4, 110400, Note_on_c, 0, 48, 0
4, 110400, Note_on_c, 0, 44, 34
4, 110407, Control_c, 0, 64, 0
4, 110880, Note_on_c, 0, 44, 0
4, 110880, Note_on_c, 0, 46, 27
4, 110880, Note_on_c, 0, 56, 30
4, 111360, Note_on_c, 0, 56, 0
4, 111360, Note_on_c, 0, 46, 0
4, 111360, Note_on_c, 0, 51, 36
4, 111520, Note_on_c, 0, 58, 28
4, 111680, Note_on_c, 0, 58, 0
4, 111680, Note_on_c, 0, 60, 28
4, 111840, Note_on_c, 0, 60, 0
4, 111840, Note_on_c, 0, 61, 32
4, 112000, Note_on_c, 0, 61, 0
4, 112000, Note_on_c, 0, 58, 29
4, 112160, Note_on_c, 0, 58, 0
4, 112160, Note_on_c, 0, 60, 26
4, 112320, Note_on_c, 0, 60, 0
4, 112320, Note_on_c, 0, 61, 31
4, 112480, Note_on_c, 0, 61, 0
4, 112480, Note_on_c, 0, 58, 28
4, 112640, Note_on_c, 0, 58, 0
4, 112640, Note_on_c, 0, 60, 28
4, 112800, Note_on_c, 0, 60, 0
4, 112800, Note_on_c, 0, 61, 32
4, 112960, Note_on_c, 0, 61, 0
4, 112960, Note_on_c, 0, 58, 29
4, 113120, Note_on_c, 0, 58, 0
4, 113120, Note_on_c, 0, 56, 29
4, 113280, Note_on_c, 0, 56, 0
4, 113280, Note_on_c, 0, 51, 0
4, 113280, Note_on_c, 0, 55, 28
4, 113280, Note_on_c, 0, 51, 36
4, 113440, Note_on_c, 0, 55, 0
4, 113440, Note_on_c, 0, 58, 28
4, 113600, Note_on_c, 0, 58, 0
4, 113600, Note_on_c, 0, 56, 28
4, 113760, Note_on_c, 0, 56, 0
4, 113760, Note_on_c, 0, 55, 32
4, 113920, Note_on_c, 0, 55, 0
4, 113920, Note_on_c, 0, 58, 29
4, 114080, Note_on_c, 0, 58, 0
4, 114080, Note_on_c, 0, 60, 26
4, 114240, Note_on_c, 0, 60, 0
4, 114240, Note_on_c, 0, 61, 31
4, 114400, Note_on_c, 0, 61, 0
4, 114400, Note_on_c, 0, 65, 28
4, 114560, Note_on_c, 0, 65, 0
4, 114560, Note_on_c, 0, 63, 28
4, 114720, Note_on_c, 0, 63, 0
4, 114720, Note_on_c, 0, 61, 32
4, 114879, Note_on_c, 0, 60, 29
4, 114880, Note_on_c, 0, 61, 0
4, 115039, Note_on_c, 0, 60, 0
4, 115041, Note_on_c, 0, 58, 29
4, 115200, Note_on_c, 0, 51, 0
4, 115200, Note_on_c, 0, 51, 36
4, 115201, Note_on_c, 0, 58, 0
4, 115360, Note_on_c, 0, 56, 28
4, 115520, Note_on_c, 0, 56, 0
4, 115520, Note_on_c, 0, 58, 28
4, 115680, Note_on_c, 0, 58, 0
4, 115680, Note_on_c, 0, 60, 32
4, 115838, Note_on_c, 0, 60, 0
4, 115840, Note_on_c, 0, 56, 29
4, 116000, Note_on_c, 0, 56, 0
4, 116000, Note_on_c, 0, 58, 26
4, 116160, Note_on_c, 0, 58, 0
4, 116160, Note_on_c, 0, 60, 31
4, 116318, Note_on_c, 0, 60, 0
4, 116320, Note_on_c, 0, 56, 28
4, 116480, Note_on_c, 0, 56, 0
4, 116480, Note_on_c, 0, 58, 28
4, 116640, Note_on_c, 0, 58, 0
4, 116640, Note_on_c, 0, 60, 32
4, 116800, Note_on_c, 0, 60, 0
4, 116800, Note_on_c, 0, 58, 29
4, 116960, Note_on_c, 0, 58, 0
4, 116960, Note_on_c, 0, 56, 29
4, 117120, Note_on_c, 0, 56, 0
4, 117120, Note_on_c, 0, 51, 0
4, 117120, Note_on_c, 0, 51, 36
4, 117152, Control_c, 0, 64, 127
4, 117280, Note_on_c, 0, 53, 28
4, 117440, Note_on_c, 0, 53, 0
4, 117440, Note_on_c, 0, 55, 28
4, 117600, Note_on_c, 0, 55, 0
4, 117600, Note_on_c, 0, 56, 33
4, 117607, Control_c, 0, 64, 0
4, 117672, Control_c, 0, 64, 127
4, 117758, Note_on_c, 0, 56, 0
4, 117760, Note_on_c, 0, 53, 31
4, 117920, Note_on_c, 0, 53, 0
4, 117920, Note_on_c, 0, 55, 27
4, 118080, Note_on_c, 0, 55, 0
4, 118080, Note_on_c, 0, 56, 36
4, 118087, Control_c, 0, 64, 0
4, 118143, Control_c, 0, 64, 127
4, 118400, Note_on_c, 0, 56, 0
4, 118400, Note_on_c, 0, 55, 33
4, 118560, Note_on_c, 0, 55, 0
4, 118560, Note_on_c, 0, 53, 42
4, 118568, Control_c, 0, 64, 0
4, 118720, Note_on_c, 0, 53, 0
4, 118720, Note_on_c, 0, 51, 0
4, 118720, Note_on_c, 0, 51, 36
4, 118736, Control_c, 0, 64, 127
4, 118880, Note_on_c, 0, 51, 0
4, 118880, Note_on_c, 0, 50, 37
4, 119040, Note_on_c, 0, 50, 0
4, 119040, Note_on_c, 0, 39, 43
4, 119045, Control_c, 0, 64, 0
4, 119108, Control_c, 0, 64, 127
4, 119200, Note_on_c, 0, 46, 37
4, 119360, Note_on_c, 0, 46, 0
4, 119360, Note_on_c, 0, 51, 39
4, 119520, Note_on_c, 0, 51, 0
4, 119520, Note_on_c, 0, 39, 0
4, 119520, Note_on_c, 0, 55, 43
4, 119680, Note_on_c, 0, 55, 0
4, 119680, Note_on_c, 0, 51, 37
4, 119840, Note_on_c, 0, 51, 0
4, 119840, Note_on_c, 0, 46, 39
4, 120000, Note_on_c, 0, 46, 0
4, 120000, Note_on_c, 0, 39, 45
4, 120010, Control_c, 0, 64, 0
4, 120076, Control_c, 0, 64, 127
4, 120160, Note_on_c, 0, 46, 42
4, 120320, Note_on_c, 0, 46, 0
4, 120320, Note_on_c, 0, 51, 42
4, 120480, Note_on_c, 0, 51, 0
4, 120480, Note_on_c, 0, 39, 0
4, 120480, Note_on_c, 0, 55, 46
4, 120640, Note_on_c, 0, 55, 0
4, 120640, Note_on_c, 0, 51, 42
4, 120800, Note_on_c, 0, 51, 0
4, 120800, Note_on_c, 0, 46, 42
4, 120960, Note_on_c, 0, 46, 0
4, 120960, Note_on_c, 0, 39, 55
4, 120970, Control_c, 0, 64, 0
4, 121031, Control_c, 0, 64, 127
4, 121120, Note_on_c, 0, 50, 39
4, 121280, Note_on_c, 0, 50, 0
4, 121280, Note_on_c, 0, 53, 39
4, 121440, Note_on_c, 0, 53, 0
4, 121440, Note_on_c, 0, 39, 0
4, 121440, Note_on_c, 0, 56, 48
4, 121600, Note_on_c, 0, 56, 0
4, 121600, Note_on_c, 0, 58, 41
4, 121760, Note_on_c, 0, 58, 0
4, 121760, Note_on_c, 0, 62, 41
4, 121920, Note_on_c, 0, 62, 0
4, 121920, Note_on_c, 0, 65, 47
4, 122080, Note_on_c, 0, 65, 0
4, 122080, Note_on_c, 0, 70, 36
4, 122240, Note_on_c, 0, 70, 0
4, 122240, Note_on_c, 0, 74, 34
4, 122400, Note_on_c, 0, 74, 0
4, 122400, Note_on_c, 0, 77, 30
4, 122640, Note_on_c, 0, 77, 0
4, 122640, Note_on_c, 0, 82, 26
4, 122760, Note_on_c, 0, 82, 0
4, 122880, Note_on_c, 0, 86, 28
4, 123000, Note_on_c, 0, 86, 0
4, 123120, Control_c, 0, 64, 0
4, 124800, Note_on_c, 0, 39, 31
4, 124839, Control_c, 0, 64, 127
4, 124960, Note_on_c, 0, 46, 25
4, 125120, Note_on_c, 0, 46, 0
4, 125120, Note_on_c, 0, 51, 26
4, 125280, Note_on_c, 0, 51, 0
4, 125280, Note_on_c, 0, 39, 0
4, 125280, Note_on_c, 0, 55, 31
4, 125440, Note_on_c, 0, 55, 0
4, 125440, Note_on_c, 0, 51, 28
4, 125600, Note_on_c, 0, 51, 0
4, 125600, Note_on_c, 0, 46, 28
4, 125760, Note_on_c, 0, 46, 0
4, 125760, Note_on_c, 0, 39, 32
4, 125920, Note_on_c, 0, 46, 28
4, 126080, Note_on_c, 0, 46, 0
4, 126080, Note_on_c, 0, 51, 28
4, 126240, Note_on_c, 0, 51, 0
4, 126240, Note_on_c, 0, 39, 0
4, 126240, Note_on_c, 0, 55, 28
4, 126250, Control_c, 0, 64, 0
4, 126293, Control_c, 0, 64, 127
4, 126400, Note_on_c, 0, 55, 0
4, 126400, Note_on_c, 0, 51, 26
4, 126560, Note_on_c, 0, 51, 0
4, 126560, Note_on_c, 0, 46, 26
4, 126720, Note_on_c, 0, 46, 0
4, 126720, Note_on_c, 0, 39, 31
4, 127200, Note_on_c, 0, 39, 0
4, 127680, Note_on_c, 0, 39, 28
4, 128160, Note_on_c, 0, 39, 0
4, 128640, Note_on_c, 0, 39, 18
4, 130560, Note_on_c, 0, 39, 0
4, 131387, Control_c, 0, 64, 0
4, 131387, End_track
5, 0, Start_track
5, 0, Title_t, "Mendelssohn: Songs without Words, Op. 30 No. 1"
5, 0, End_track
6, 0, Start_track
6, 0, Title_t, "Copyright © 2000 by Bernd Krüger"
6, 0, End_track
7, 0, Start_track
7, 0, Title_t, "http://www.piano-midi.de"
7, 0, End_track
8, 0, Start_track
8, 0, Title_t, "Edition: 2014-04-03"
8, 0, End_track
9, 0, Start_track
9, 0, Title_t, "Spur 8"
9, 0, End_track
0, 0, End_of_file
