0, 0, Header, 1, 17, 480
1, 0, Start_track
1, 0, Title_t, "Mendelssohn: Lieder ohne Worte Opus 30 Nr. 2"
1, 0, Copyright_t, "Copyright © 2014 by Bernd Krueger"
1, 0, Text_t, "Bernd Krueger"
1, 0, Text_t, "Allegro di molto"
1, 0, Text_t, "Erstellt: 29.12.2014\012"
1, 0, Text_t, "Dauer:  2:04 Minuten\012"
1, 0, Time_signature, 6, 4, 6, 8
1, 0, Key_signature, -5, "major"
1, 0, Tempo, 607964
1, 600, Tempo, 672721
1, 720, Tempo, 643846
1, 720, Marker_t, "Teil 1"
1, 960, Tempo, 688152
1, 1080, Tempo, 643846
1, 1320, Tempo, 680349
1, 1440, Tempo, 640410
1, 1680, Tempo, 684229
1, 1800, Tempo, 657967
1, 2040, Tempo, 704308
1, 2160, Tempo, 665262
1, 2760, Tempo, 672721
1, 2880, Tempo, 665262
1, 3600, Tempo, 647319
1, 4560, Tempo, 668971
1, 4680, Tempo, 650830
1, 4920, Tempo, 692121
1, 5040, Tempo, 654379
1, 5640, Tempo, 696136
1, 5760, Tempo, 650830
1, 6240, Tempo, 730016
1, 6360, Tempo, 672721
1, 6480, Tempo, 637010
1, 6720, Tempo, 676514
1, 6840, Tempo, 627025
1, 7080, Tempo, 668971
1, 7200, Tempo, 617347
1, 7440, Tempo, 668971
1, 7560, Tempo, 643846
1, 7800, Tempo, 721241
1, 7920, Tempo, 657967
1, 8400, Tempo, 640410
1, 8520, Tempo, 688152
1, 8640, Tempo, 654379
1, 9240, Tempo, 688152
1, 9360, Tempo, 657967
1, 9720, Tempo, 643846
1, 9960, Tempo, 708466
1, 10080, Tempo, 650830
1, 10320, Tempo, 676514
1, 10440, Tempo, 657967
1, 10560, Tempo, 661594
1, 10680, Tempo, 730016
1, 10800, Tempo, 657967
1, 11040, Tempo, 684229
1, 11160, Tempo, 668971
1, 11520, Tempo, 661594
1, 11760, Tempo, 688152
1, 11880, Tempo, 665262
1, 12000, Tempo, 739007
1, 12120, Tempo, 808734
1, 12240, Tempo, 665262
1, 12960, Tempo, 654379
1, 13320, Tempo, 665262
1, 13440, Tempo, 712674
1, 13560, Tempo, 672721
1, 13680, Tempo, 643846
1, 13680, Marker_t, "Teil 1 Wiederholung"
1, 13920, Tempo, 688152
1, 14040, Tempo, 640410
1, 14280, Tempo, 680349
1, 14400, Tempo, 627025
1, 14640, Tempo, 684229
1, 14760, Tempo, 657967
1, 15000, Tempo, 743587
1, 15120, Tempo, 665262
1, 15720, Tempo, 672721
1, 15840, Tempo, 665262
1, 16560, Tempo, 647319
1, 17520, Tempo, 668971
1, 17640, Tempo, 650830
1, 17880, Tempo, 692121
1, 18000, Tempo, 654379
1, 18600, Tempo, 696136
1, 18720, Tempo, 650830
1, 19200, Tempo, 730016
1, 19320, Tempo, 650830
1, 19440, Tempo, 623765
1, 19680, Tempo, 676514
1, 19800, Tempo, 627025
1, 20040, Tempo, 668971
1, 20160, Tempo, 620540
1, 20400, Tempo, 668971
1, 20520, Tempo, 643846
1, 20760, Tempo, 767362
1, 20880, Tempo, 657967
1, 21360, Tempo, 640410
1, 21480, Tempo, 688152
1, 21600, Tempo, 654379
1, 22200, Tempo, 688152
1, 22320, Tempo, 657967
1, 22680, Tempo, 643846
1, 22920, Tempo, 708466
1, 23040, Tempo, 650830
1, 23280, Tempo, 676514
1, 23400, Tempo, 657967
1, 23520, Tempo, 661594
1, 23640, Tempo, 730016
1, 23760, Tempo, 657967
1, 24000, Tempo, 684229
1, 24120, Tempo, 668971
1, 24480, Tempo, 661594
1, 24720, Tempo, 688152
1, 24840, Tempo, 665262
1, 24960, Tempo, 767362
1, 25080, Tempo, 808734
1, 25200, Tempo, 665262
1, 25920, Tempo, 654379
1, 26280, Tempo, 665262
1, 26400, Tempo, 696136
1, 26520, Tempo, 672721
1, 26640, Tempo, 643846
1, 26640, Marker_t, "Teil 2"
1, 26880, Tempo, 688152
1, 27000, Tempo, 643846
1, 27240, Tempo, 680349
1, 27360, Tempo, 647319
1, 27600, Tempo, 680349
1, 27720, Tempo, 650830
1, 27960, Tempo, 672721
1, 28080, Tempo, 643846
1, 28320, Tempo, 688152
1, 28440, Tempo, 643846
1, 28680, Tempo, 680349
1, 28800, Tempo, 647319
1, 29040, Tempo, 680349
1, 29160, Tempo, 650830
1, 29400, Tempo, 672721
1, 29520, Tempo, 637010
1, 29760, Tempo, 688152
1, 29880, Tempo, 633647
1, 30120, Tempo, 712674
1, 30240, Tempo, 647319
1, 30480, Tempo, 680349
1, 30600, Tempo, 650830
1, 30840, Tempo, 672721
1, 30960, Tempo, 640410
1, 31200, Tempo, 688152
1, 31320, Tempo, 637010
1, 31560, Tempo, 734484
1, 31680, Tempo, 647319
1, 31920, Tempo, 680349
1, 32040, Tempo, 650830
1, 32280, Tempo, 757671
1, 32400, Tempo, 647319
1, 32640, Tempo, 680349
1, 32760, Tempo, 650830
1, 33120, Tempo, 647319
1, 33360, Tempo, 680349
1, 33480, Tempo, 650830
1, 33720, Tempo, 739007
1, 33840, Tempo, 647319
1, 34080, Tempo, 680349
1, 34200, Tempo, 650830
1, 34560, Tempo, 647319
1, 34800, Tempo, 680349
1, 34920, Tempo, 650830
1, 35160, Tempo, 739007
1, 35280, Tempo, 647319
1, 35520, Tempo, 680349
1, 35640, Tempo, 650830
1, 36000, Tempo, 647319
1, 36240, Tempo, 680349
1, 36360, Tempo, 650830
1, 36600, Tempo, 739007
1, 36720, Tempo, 647319
1, 36960, Tempo, 680349
1, 37080, Tempo, 676514
1, 37200, Tempo, 716932
1, 37320, Tempo, 831140
1, 37440, Tempo, 730016
1, 38160, Tempo, 654379
1, 38520, Tempo, 665262
1, 38640, Tempo, 696136
1, 38760, Tempo, 672721
1, 38880, Tempo, 650830
1, 39120, Tempo, 688152
1, 39240, Tempo, 633647
1, 39480, Tempo, 680349
1, 39600, Tempo, 627025
1, 39840, Tempo, 684229
1, 39960, Tempo, 657967
1, 40200, Tempo, 704308
1, 40320, Tempo, 665262
1, 40920, Tempo, 672721
1, 41040, Tempo, 665262
1, 41760, Tempo, 647319
1, 42720, Tempo, 668971
1, 42840, Tempo, 650830
1, 43080, Tempo, 692121
1, 43200, Tempo, 654379
1, 43800, Tempo, 696136
1, 43920, Tempo, 650830
1, 44400, Tempo, 730016
1, 44520, Tempo, 650830
1, 44640, Tempo, 623765
1, 44880, Tempo, 676514
1, 45000, Tempo, 623765
1, 45240, Tempo, 668971
1, 45360, Tempo, 620540
1, 45600, Tempo, 668971
1, 45720, Tempo, 643846
1, 45960, Tempo, 743587
1, 46080, Tempo, 657967
1, 46560, Tempo, 640410
1, 46680, Tempo, 688152
1, 46800, Tempo, 654379
1, 47400, Tempo, 721241
1, 47520, Tempo, 657967
1, 47880, Tempo, 643846
1, 48120, Tempo, 708466
1, 48240, Tempo, 650830
1, 48480, Tempo, 676514
1, 48600, Tempo, 657967
1, 48720, Tempo, 661594
1, 48840, Tempo, 730016
1, 48960, Tempo, 657967
1, 49200, Tempo, 684229
1, 49320, Tempo, 668971
1, 49680, Tempo, 661594
1, 49920, Tempo, 777303
1, 50040, Tempo, 692121
1, 50160, Tempo, 767362
1, 50280, Tempo, 886394
1, 50400, Tempo, 665262
1, 51120, Tempo, 654379
1, 51480, Tempo, 665262
1, 51600, Tempo, 696136
1, 51720, Tempo, 672721
1, 51840, Tempo, 643846
1, 52080, Tempo, 688152
1, 52200, Tempo, 643846
1, 52440, Tempo, 680349
1, 52560, Tempo, 647319
1, 52800, Tempo, 680349
1, 52920, Tempo, 650830
1, 53160, Tempo, 672721
1, 53280, Tempo, 643846
1, 53520, Tempo, 688152
1, 53640, Tempo, 643846
1, 53880, Tempo, 680349
1, 54000, Tempo, 647319
1, 54240, Tempo, 680349
1, 54360, Tempo, 650830
1, 54600, Tempo, 672721
1, 54720, Tempo, 637010
1, 54960, Tempo, 688152
1, 55080, Tempo, 637010
1, 55320, Tempo, 704308
1, 55440, Tempo, 647319
1, 55680, Tempo, 680349
1, 55800, Tempo, 650830
1, 56040, Tempo, 672721
1, 56160, Tempo, 640410
1, 56400, Tempo, 688152
1, 56520, Tempo, 640410
1, 56760, Tempo, 734484
1, 56880, Tempo, 647319
1, 57120, Tempo, 680349
1, 57240, Tempo, 650830
1, 57480, Tempo, 757671
1, 57600, Tempo, 647319
1, 57840, Tempo, 680349
1, 57960, Tempo, 650830
1, 58320, Tempo, 647319
1, 58560, Tempo, 680349
1, 58680, Tempo, 650830
1, 58920, Tempo, 739007
1, 59040, Tempo, 647319
1, 59280, Tempo, 680349
1, 59400, Tempo, 650830
1, 59760, Tempo, 647319
1, 60000, Tempo, 680349
1, 60120, Tempo, 650830
1, 60360, Tempo, 739007
1, 60480, Tempo, 647319
1, 60720, Tempo, 680349
1, 60840, Tempo, 650830
1, 61200, Tempo, 647319
1, 61440, Tempo, 680349
1, 61560, Tempo, 650830
1, 61800, Tempo, 739007
1, 61920, Tempo, 647319
1, 62160, Tempo, 680349
1, 62280, Tempo, 696136
1, 62400, Tempo, 752918
1, 62520, Tempo, 831140
1, 62640, Tempo, 730016
1, 63360, Tempo, 654379
1, 63720, Tempo, 665262
1, 63840, Tempo, 696136
1, 63960, Tempo, 672721
1, 64080, Tempo, 637010
1, 64320, Tempo, 688152
1, 64440, Tempo, 633647
1, 64680, Tempo, 680349
1, 64800, Tempo, 637010
1, 65040, Tempo, 684229
1, 65160, Tempo, 657967
1, 65400, Tempo, 721241
1, 65520, Tempo, 665262
1, 66120, Tempo, 672721
1, 66240, Tempo, 665262
1, 66960, Tempo, 647319
1, 67920, Tempo, 668971
1, 68040, Tempo, 650830
1, 68280, Tempo, 692121
1, 68400, Tempo, 654379
1, 69000, Tempo, 696136
1, 69120, Tempo, 650830
1, 69600, Tempo, 730016
1, 69720, Tempo, 650830
1, 69840, Tempo, 654379
1, 70440, Tempo, 696136
1, 70560, Tempo, 654379
1, 71160, Tempo, 696136
1, 71280, Tempo, 654379
1, 71880, Tempo, 696136
1, 72000, Tempo, 665262
1, 72600, Tempo, 803320
1, 72720, Key_signature, -2, "major"
1, 72720, Tempo, 743587
1, 72840, Tempo, 762486
1, 72960, Tempo, 777303
1, 73080, Tempo, 792707
1, 73200, Tempo, 814222
1, 73320, Tempo, 873490
1, 73440, Tempo, 676514
1, 73920, Tempo, 696136
1, 74040, Tempo, 730016
1, 74160, Tempo, 665262
1, 74640, Tempo, 680349
1, 74760, Tempo, 712674
1, 74880, Tempo, 692121
1, 75000, Tempo, 654379
1, 75480, Tempo, 708466
1, 75600, Tempo, 684229
1, 75720, Tempo, 650830
1, 76200, Tempo, 696136
1, 76320, Tempo, 680349
1, 76440, Tempo, 650830
1, 76920, Tempo, 708466
1, 77040, Tempo, 657967
1, 77280, Tempo, 647319
1, 77640, Tempo, 692121
1, 77760, Tempo, 654379
1, 78240, Tempo, 696136
1, 78360, Tempo, 730016
1, 78480, Tempo, 654379
1, 78960, Tempo, 680349
1, 79080, Tempo, 712674
1, 79200, Tempo, 654379
1, 79800, Tempo, 672721
1, 79920, Tempo, 620540
1, 80160, Tempo, 665262
1, 80280, Tempo, 620540
1, 80520, Tempo, 657967
1, 80640, Tempo, 620540
1, 80880, Tempo, 661594
1, 81000, Tempo, 620540
1, 81240, Tempo, 657967
1, 81360, Tempo, 604900
1, 81600, Tempo, 657967
1, 81720, Tempo, 604900
1, 81960, Tempo, 654379
1, 82080, Tempo, 595888
1, 82320, Tempo, 640410
1, 82440, Tempo, 601866
1, 82680, Tempo, 680349
1, 82800, Tempo, 620540
1, 83400, Tempo, 657967
1, 83520, Tempo, 617347
1, 84120, Tempo, 661594
1, 84240, Tempo, 617347
1, 84840, Tempo, 730016
1, 84960, Tempo, 623765
1, 85080, Tempo, 607964
1, 85560, Tempo, 643846
1, 85680, Tempo, 607964
1, 86280, Tempo, 643846
1, 86400, Tempo, 607964
1, 86760, Tempo, 601866
1, 87000, Tempo, 704308
1, 87120, Tempo, 584283
1, 88560, Tempo, 573121
1, 89280, Tempo, 627025
1, 89280, End_track
2, 0, Start_track
2, 0, Title_t, "Piano right"
2, 0, Program_c, 0, 0
2, 600, Note_on_c, 0, 73, 43
2, 600, Note_on_c, 0, 77, 43
2, 660, Note_on_c, 0, 77, 0
2, 660, Note_on_c, 0, 73, 0
2, 720, Note_on_c, 0, 65, 40
2, 720, Note_on_c, 0, 73, 50
2, 720, Note_on_c, 0, 77, 50
2, 840, Note_on_c, 0, 77, 0
2, 840, Note_on_c, 0, 73, 0
2, 840, Note_on_c, 0, 73, 45
2, 840, Note_on_c, 0, 70, 45
2, 960, Note_on_c, 0, 70, 0
2, 960, Note_on_c, 0, 73, 0
2, 960, Note_on_c, 0, 65, 0
2, 960, Note_on_c, 0, 77, 45
2, 960, Note_on_c, 0, 73, 45
2, 1020, Note_on_c, 0, 73, 0
2, 1020, Note_on_c, 0, 77, 0
2, 1080, Note_on_c, 0, 65, 40
2, 1080, Note_on_c, 0, 73, 50
2, 1080, Note_on_c, 0, 77, 50
2, 1200, Note_on_c, 0, 77, 0
2, 1200, Note_on_c, 0, 73, 0
2, 1200, Note_on_c, 0, 73, 46
2, 1200, Note_on_c, 0, 70, 46
2, 1320, Note_on_c, 0, 70, 0
2, 1320, Note_on_c, 0, 73, 0
2, 1320, Note_on_c, 0, 65, 0
2, 1320, Note_on_c, 0, 77, 46
2, 1320, Note_on_c, 0, 73, 46
2, 1380, Note_on_c, 0, 73, 0
2, 1380, Note_on_c, 0, 77, 0
2, 1440, Note_on_c, 0, 65, 40
2, 1440, Note_on_c, 0, 73, 50
2, 1440, Note_on_c, 0, 77, 50
2, 1560, Note_on_c, 0, 77, 0
2, 1560, Note_on_c, 0, 73, 0
2, 1560, Note_on_c, 0, 73, 45
2, 1560, Note_on_c, 0, 70, 45
2, 1680, Note_on_c, 0, 70, 0
2, 1680, Note_on_c, 0, 73, 0
2, 1680, Note_on_c, 0, 65, 0
2, 1680, Note_on_c, 0, 77, 45
2, 1680, Note_on_c, 0, 73, 45
2, 1740, Note_on_c, 0, 73, 0
2, 1740, Note_on_c, 0, 77, 0
2, 1800, Note_on_c, 0, 65, 40
2, 1800, Note_on_c, 0, 73, 50
2, 1800, Note_on_c, 0, 77, 50
2, 1920, Note_on_c, 0, 77, 0
2, 1920, Note_on_c, 0, 73, 0
2, 1920, Note_on_c, 0, 73, 46
2, 1920, Note_on_c, 0, 70, 46
2, 2040, Note_on_c, 0, 70, 0
2, 2040, Note_on_c, 0, 73, 0
2, 2040, Note_on_c, 0, 65, 0
2, 2040, Note_on_c, 0, 77, 46
2, 2040, Note_on_c, 0, 73, 46
2, 2100, Note_on_c, 0, 73, 0
2, 2100, Note_on_c, 0, 77, 0
2, 2160, Note_on_c, 0, 66, 71
2, 2160, Note_on_c, 0, 73, 50
2, 2280, Note_on_c, 0, 73, 0
2, 2280, Note_on_c, 0, 70, 45
2, 2400, Note_on_c, 0, 70, 0
2, 2400, Note_on_c, 0, 73, 45
2, 2460, Note_on_c, 0, 73, 0
2, 2520, Note_on_c, 0, 73, 50
2, 2640, Note_on_c, 0, 73, 0
2, 2640, Note_on_c, 0, 70, 46
2, 2760, Note_on_c, 0, 70, 0
2, 2760, Note_on_c, 0, 66, 0
2, 2760, Note_on_c, 0, 65, 60
2, 2760, Note_on_c, 0, 73, 46
2, 2820, Note_on_c, 0, 73, 0
2, 2880, Note_on_c, 0, 65, 0
2, 2880, Note_on_c, 0, 64, 72
2, 2880, Note_on_c, 0, 73, 50
2, 3000, Note_on_c, 0, 73, 0
2, 3000, Note_on_c, 0, 70, 45
2, 3120, Note_on_c, 0, 70, 0
2, 3120, Note_on_c, 0, 73, 45
2, 3180, Note_on_c, 0, 73, 0
2, 3240, Note_on_c, 0, 73, 50
2, 3360, Note_on_c, 0, 73, 0
2, 3360, Note_on_c, 0, 70, 46
2, 3420, Note_on_c, 0, 64, 0
2, 3480, Note_on_c, 0, 70, 0
2, 3480, Note_on_c, 0, 73, 61
2, 3480, Note_on_c, 0, 64, 60
2, 3540, Note_on_c, 0, 73, 0
2, 3600, Note_on_c, 0, 64, 0
2, 3600, Note_on_c, 0, 65, 75
2, 3720, Note_on_c, 0, 60, 54
2, 3720, Note_on_c, 0, 63, 54
2, 3780, Note_on_c, 0, 63, 0
2, 3780, Note_on_c, 0, 60, 0
2, 3840, Note_on_c, 0, 60, 54
2, 3840, Note_on_c, 0, 63, 54
2, 3900, Note_on_c, 0, 63, 0
2, 3900, Note_on_c, 0, 60, 0
2, 3960, Note_on_c, 0, 60, 54
2, 3960, Note_on_c, 0, 63, 54
2, 4020, Note_on_c, 0, 63, 0
2, 4020, Note_on_c, 0, 60, 0
2, 4080, Note_on_c, 0, 65, 0
2, 4080, Note_on_c, 0, 58, 54
2, 4080, Note_on_c, 0, 67, 56
2, 4140, Note_on_c, 0, 67, 0
2, 4140, Note_on_c, 0, 58, 0
2, 4200, Note_on_c, 0, 60, 54
2, 4200, Note_on_c, 0, 69, 61
2, 4260, Note_on_c, 0, 69, 0
2, 4260, Note_on_c, 0, 60, 0
2, 4260, Note_on_c, 0, 72, 64
2, 4320, Note_on_c, 0, 72, 0
2, 4320, Note_on_c, 0, 61, 61
2, 4320, Note_on_c, 0, 70, 73
2, 4380, Note_on_c, 0, 70, 0
2, 4380, Note_on_c, 0, 61, 0
2, 4440, Note_on_c, 0, 60, 54
2, 4440, Note_on_c, 0, 69, 63
2, 4500, Note_on_c, 0, 69, 0
2, 4500, Note_on_c, 0, 60, 0
2, 4560, Note_on_c, 0, 61, 53
2, 4560, Note_on_c, 0, 70, 63
2, 4620, Note_on_c, 0, 70, 0
2, 4620, Note_on_c, 0, 61, 0
2, 4680, Note_on_c, 0, 65, 60
2, 4680, Note_on_c, 0, 73, 71
2, 4740, Note_on_c, 0, 73, 0
2, 4740, Note_on_c, 0, 65, 0
2, 4800, Note_on_c, 0, 63, 53
2, 4800, Note_on_c, 0, 72, 63
2, 4860, Note_on_c, 0, 72, 0
2, 4860, Note_on_c, 0, 63, 0
2, 4920, Note_on_c, 0, 61, 58
2, 4920, Note_on_c, 0, 70, 70
2, 4980, Note_on_c, 0, 70, 0
2, 4980, Note_on_c, 0, 61, 0
2, 5040, Note_on_c, 0, 61, 70
2, 5040, Note_on_c, 0, 70, 82
2, 5400, Note_on_c, 0, 64, 66
2, 5760, Note_on_c, 0, 64, 0
2, 5760, Note_on_c, 0, 70, 0
2, 5760, Note_on_c, 0, 61, 0
2, 5760, Note_on_c, 0, 60, 67
2, 5760, Note_on_c, 0, 65, 67
2, 5760, Note_on_c, 0, 69, 80
2, 6120, Note_on_c, 0, 69, 0
2, 6120, Note_on_c, 0, 65, 0
2, 6120, Note_on_c, 0, 60, 0
2, 6360, Note_on_c, 0, 73, 43
2, 6360, Note_on_c, 0, 77, 43
2, 6420, Note_on_c, 0, 77, 0
2, 6420, Note_on_c, 0, 73, 0
2, 6480, Note_on_c, 0, 65, 40
2, 6480, Note_on_c, 0, 73, 50
2, 6480, Note_on_c, 0, 77, 50
2, 6600, Note_on_c, 0, 77, 0
2, 6600, Note_on_c, 0, 73, 0
2, 6600, Note_on_c, 0, 73, 45
2, 6600, Note_on_c, 0, 70, 45
2, 6720, Note_on_c, 0, 70, 0
2, 6720, Note_on_c, 0, 73, 0
2, 6720, Note_on_c, 0, 65, 0
2, 6720, Note_on_c, 0, 77, 45
2, 6720, Note_on_c, 0, 73, 45
2, 6780, Note_on_c, 0, 73, 0
2, 6780, Note_on_c, 0, 77, 0
2, 6840, Note_on_c, 0, 65, 41
2, 6840, Note_on_c, 0, 73, 51
2, 6840, Note_on_c, 0, 77, 51
2, 6960, Note_on_c, 0, 77, 0
2, 6960, Note_on_c, 0, 73, 0
2, 6960, Note_on_c, 0, 73, 48
2, 6960, Note_on_c, 0, 70, 48
2, 7080, Note_on_c, 0, 70, 0
2, 7080, Note_on_c, 0, 73, 0
2, 7080, Note_on_c, 0, 65, 0
2, 7080, Note_on_c, 0, 77, 48
2, 7080, Note_on_c, 0, 73, 48
2, 7140, Note_on_c, 0, 73, 0
2, 7140, Note_on_c, 0, 77, 0
2, 7200, Note_on_c, 0, 65, 42
2, 7200, Note_on_c, 0, 73, 53
2, 7200, Note_on_c, 0, 77, 53
2, 7320, Note_on_c, 0, 77, 0
2, 7320, Note_on_c, 0, 73, 0
2, 7320, Note_on_c, 0, 73, 50
2, 7320, Note_on_c, 0, 70, 50
2, 7440, Note_on_c, 0, 70, 0
2, 7440, Note_on_c, 0, 73, 0
2, 7440, Note_on_c, 0, 65, 0
2, 7440, Note_on_c, 0, 77, 55
2, 7440, Note_on_c, 0, 73, 55
2, 7500, Note_on_c, 0, 73, 0
2, 7500, Note_on_c, 0, 77, 0
2, 7560, Note_on_c, 0, 65, 53
2, 7560, Note_on_c, 0, 73, 66
2, 7560, Note_on_c, 0, 77, 66
2, 7680, Note_on_c, 0, 77, 0
2, 7680, Note_on_c, 0, 73, 0
2, 7680, Note_on_c, 0, 73, 63
2, 7680, Note_on_c, 0, 70, 63
2, 7800, Note_on_c, 0, 70, 0
2, 7800, Note_on_c, 0, 73, 0
2, 7800, Note_on_c, 0, 65, 0
2, 7800, Note_on_c, 0, 77, 68
2, 7800, Note_on_c, 0, 73, 68
2, 7860, Note_on_c, 0, 73, 0
2, 7860, Note_on_c, 0, 77, 0
2, 7920, Note_on_c, 0, 68, 58
2, 7920, Note_on_c, 0, 77, 66
2, 7920, Note_on_c, 0, 80, 82
2, 8280, Note_on_c, 0, 80, 0
2, 8280, Note_on_c, 0, 77, 0
2, 8280, Note_on_c, 0, 68, 0
2, 8280, Note_on_c, 0, 66, 56
2, 8280, Note_on_c, 0, 75, 56
2, 8280, Note_on_c, 0, 78, 66
2, 8520, Note_on_c, 0, 78, 0
2, 8520, Note_on_c, 0, 75, 0
2, 8520, Note_on_c, 0, 66, 0
2, 8520, Note_on_c, 0, 65, 56
2, 8520, Note_on_c, 0, 73, 56
2, 8520, Note_on_c, 0, 77, 66
2, 8580, Note_on_c, 0, 77, 0
2, 8580, Note_on_c, 0, 73, 0
2, 8580, Note_on_c, 0, 65, 0
2, 8640, Note_on_c, 0, 65, 58
2, 8640, Note_on_c, 0, 73, 67
2, 8640, Note_on_c, 0, 77, 82
2, 9000, Note_on_c, 0, 77, 0
2, 9000, Note_on_c, 0, 73, 0
2, 9000, Note_on_c, 0, 65, 0
2, 9000, Note_on_c, 0, 63, 56
2, 9000, Note_on_c, 0, 72, 56
2, 9000, Note_on_c, 0, 75, 66
2, 9240, Note_on_c, 0, 75, 0
2, 9240, Note_on_c, 0, 72, 0
2, 9240, Note_on_c, 0, 63, 0
2, 9360, Note_on_c, 0, 65, 58
2, 9360, Note_on_c, 0, 68, 66
2, 9360, Note_on_c, 0, 77, 82
2, 9720, Note_on_c, 0, 77, 0
2, 9720, Note_on_c, 0, 65, 0
2, 9720, Note_on_c, 0, 73, 69
2, 9960, Note_on_c, 0, 73, 0
2, 9960, Note_on_c, 0, 72, 65
2, 10050, Note_on_c, 0, 72, 0
2, 10080, Note_on_c, 0, 68, 0
2, 10080, Note_on_c, 0, 68, 69
2, 10080, Note_on_c, 0, 72, 69
2, 10320, Note_on_c, 0, 72, 0
2, 10320, Note_on_c, 0, 68, 0
2, 10320, Note_on_c, 0, 66, 65
2, 10320, Note_on_c, 0, 70, 65
2, 10410, Note_on_c, 0, 70, 0
2, 10410, Note_on_c, 0, 66, 0
2, 10440, Note_on_c, 0, 73, 69
2, 10680, Note_on_c, 0, 73, 0
2, 10680, Note_on_c, 0, 66, 65
2, 10680, Note_on_c, 0, 70, 65
2, 10770, Note_on_c, 0, 70, 0
2, 10770, Note_on_c, 0, 66, 0
2, 10800, Note_on_c, 0, 66, 69
2, 10800, Note_on_c, 0, 70, 69
2, 11040, Note_on_c, 0, 70, 0
2, 11040, Note_on_c, 0, 66, 0
2, 11040, Note_on_c, 0, 65, 65
2, 11040, Note_on_c, 0, 68, 65
2, 11130, Note_on_c, 0, 68, 0
2, 11130, Note_on_c, 0, 65, 0
2, 11160, Note_on_c, 0, 73, 69
2, 11400, Note_on_c, 0, 73, 0
2, 11400, Note_on_c, 0, 65, 65
2, 11400, Note_on_c, 0, 68, 65
2, 11490, Note_on_c, 0, 68, 0
2, 11490, Note_on_c, 0, 65, 0
2, 11520, Note_on_c, 0, 65, 69
2, 11520, Note_on_c, 0, 68, 69
2, 11760, Note_on_c, 0, 68, 0
2, 11760, Note_on_c, 0, 65, 0
2, 11760, Note_on_c, 0, 69, 61
2, 11880, Note_on_c, 0, 69, 0
2, 11880, Note_on_c, 0, 60, 49
2, 11880, Note_on_c, 0, 66, 49
2, 11880, Note_on_c, 0, 70, 62
2, 12120, Note_on_c, 0, 70, 0
2, 12120, Note_on_c, 0, 66, 0
2, 12120, Note_on_c, 0, 60, 0
2, 12120, Note_on_c, 0, 63, 54
2, 12120, Note_on_c, 0, 66, 54
2, 12210, Note_on_c, 0, 66, 0
2, 12210, Note_on_c, 0, 63, 0
2, 12240, Note_on_c, 0, 66, 58
2, 12240, Note_on_c, 0, 63, 49
2, 12240, Note_on_c, 0, 60, 49
2, 12600, Note_on_c, 0, 60, 0
2, 12600, Note_on_c, 0, 63, 0
2, 12600, Note_on_c, 0, 66, 0
2, 12600, Note_on_c, 0, 61, 41
2, 12600, Note_on_c, 0, 65, 49
2, 12960, Note_on_c, 0, 65, 0
2, 12960, Note_on_c, 0, 61, 0
2, 13560, Note_on_c, 0, 73, 43
2, 13560, Note_on_c, 0, 77, 43
2, 13620, Note_on_c, 0, 77, 0
2, 13620, Note_on_c, 0, 73, 0
2, 13680, Note_on_c, 0, 65, 40
2, 13680, Note_on_c, 0, 73, 50
2, 13680, Note_on_c, 0, 77, 50
2, 13800, Note_on_c, 0, 77, 0
2, 13800, Note_on_c, 0, 73, 0
2, 13800, Note_on_c, 0, 73, 45
2, 13800, Note_on_c, 0, 70, 45
2, 13920, Note_on_c, 0, 70, 0
2, 13920, Note_on_c, 0, 73, 0
2, 13920, Note_on_c, 0, 65, 0
2, 13920, Note_on_c, 0, 77, 45
2, 13920, Note_on_c, 0, 73, 45
2, 13980, Note_on_c, 0, 73, 0
2, 13980, Note_on_c, 0, 77, 0
2, 14040, Note_on_c, 0, 65, 40
2, 14040, Note_on_c, 0, 73, 50
2, 14040, Note_on_c, 0, 77, 50
2, 14160, Note_on_c, 0, 77, 0
2, 14160, Note_on_c, 0, 73, 0
2, 14160, Note_on_c, 0, 73, 46
2, 14160, Note_on_c, 0, 70, 46
2, 14280, Note_on_c, 0, 70, 0
2, 14280, Note_on_c, 0, 73, 0
2, 14280, Note_on_c, 0, 65, 0
2, 14280, Note_on_c, 0, 77, 46
2, 14280, Note_on_c, 0, 73, 46
2, 14340, Note_on_c, 0, 73, 0
2, 14340, Note_on_c, 0, 77, 0
2, 14400, Note_on_c, 0, 65, 40
2, 14400, Note_on_c, 0, 73, 50
2, 14400, Note_on_c, 0, 77, 50
2, 14520, Note_on_c, 0, 77, 0
2, 14520, Note_on_c, 0, 73, 0
2, 14520, Note_on_c, 0, 73, 45
2, 14520, Note_on_c, 0, 70, 45
2, 14640, Note_on_c, 0, 70, 0
2, 14640, Note_on_c, 0, 73, 0
2, 14640, Note_on_c, 0, 65, 0
2, 14640, Note_on_c, 0, 77, 45
2, 14640, Note_on_c, 0, 73, 45
2, 14700, Note_on_c, 0, 73, 0
2, 14700, Note_on_c, 0, 77, 0
2, 14760, Note_on_c, 0, 65, 40
2, 14760, Note_on_c, 0, 73, 50
2, 14760, Note_on_c, 0, 77, 50
2, 14880, Note_on_c, 0, 77, 0
2, 14880, Note_on_c, 0, 73, 0
2, 14880, Note_on_c, 0, 73, 46
2, 14880, Note_on_c, 0, 70, 46
2, 15000, Note_on_c, 0, 70, 0
2, 15000, Note_on_c, 0, 73, 0
2, 15000, Note_on_c, 0, 65, 0
2, 15000, Note_on_c, 0, 77, 46
2, 15000, Note_on_c, 0, 73, 46
2, 15060, Note_on_c, 0, 73, 0
2, 15060, Note_on_c, 0, 77, 0
2, 15120, Note_on_c, 0, 66, 71
2, 15120, Note_on_c, 0, 73, 50
2, 15240, Note_on_c, 0, 73, 0
2, 15240, Note_on_c, 0, 70, 45
2, 15360, Note_on_c, 0, 70, 0
2, 15360, Note_on_c, 0, 73, 45
2, 15420, Note_on_c, 0, 73, 0
2, 15480, Note_on_c, 0, 73, 50
2, 15600, Note_on_c, 0, 73, 0
2, 15600, Note_on_c, 0, 70, 46
2, 15720, Note_on_c, 0, 70, 0
2, 15720, Note_on_c, 0, 66, 0
2, 15720, Note_on_c, 0, 65, 60
2, 15720, Note_on_c, 0, 73, 46
2, 15780, Note_on_c, 0, 73, 0
2, 15840, Note_on_c, 0, 65, 0
2, 15840, Note_on_c, 0, 64, 72
2, 15840, Note_on_c, 0, 73, 50
2, 15960, Note_on_c, 0, 73, 0
2, 15960, Note_on_c, 0, 70, 45
2, 16080, Note_on_c, 0, 70, 0
2, 16080, Note_on_c, 0, 73, 45
2, 16140, Note_on_c, 0, 73, 0
2, 16200, Note_on_c, 0, 73, 50
2, 16320, Note_on_c, 0, 73, 0
2, 16320, Note_on_c, 0, 70, 46
2, 16380, Note_on_c, 0, 64, 0
2, 16440, Note_on_c, 0, 70, 0
2, 16440, Note_on_c, 0, 73, 61
2, 16440, Note_on_c, 0, 64, 60
2, 16500, Note_on_c, 0, 73, 0
2, 16560, Note_on_c, 0, 64, 0
2, 16560, Note_on_c, 0, 65, 75
2, 16680, Note_on_c, 0, 60, 54
2, 16680, Note_on_c, 0, 63, 54
2, 16740, Note_on_c, 0, 63, 0
2, 16740, Note_on_c, 0, 60, 0
2, 16800, Note_on_c, 0, 60, 54
2, 16800, Note_on_c, 0, 63, 54
2, 16860, Note_on_c, 0, 63, 0
2, 16860, Note_on_c, 0, 60, 0
2, 16920, Note_on_c, 0, 60, 54
2, 16920, Note_on_c, 0, 63, 54
2, 16980, Note_on_c, 0, 63, 0
2, 16980, Note_on_c, 0, 60, 0
2, 17040, Note_on_c, 0, 65, 0
2, 17040, Note_on_c, 0, 58, 54
2, 17040, Note_on_c, 0, 67, 56
2, 17100, Note_on_c, 0, 67, 0
2, 17100, Note_on_c, 0, 58, 0
2, 17160, Note_on_c, 0, 60, 54
2, 17160, Note_on_c, 0, 69, 61
2, 17220, Note_on_c, 0, 69, 0
2, 17220, Note_on_c, 0, 60, 0
2, 17220, Note_on_c, 0, 72, 64
2, 17280, Note_on_c, 0, 72, 0
2, 17280, Note_on_c, 0, 61, 61
2, 17280, Note_on_c, 0, 70, 73
2, 17340, Note_on_c, 0, 70, 0
2, 17340, Note_on_c, 0, 61, 0
2, 17400, Note_on_c, 0, 60, 54
2, 17400, Note_on_c, 0, 69, 63
2, 17460, Note_on_c, 0, 69, 0
2, 17460, Note_on_c, 0, 60, 0
2, 17520, Note_on_c, 0, 61, 53
2, 17520, Note_on_c, 0, 70, 63
2, 17580, Note_on_c, 0, 70, 0
2, 17580, Note_on_c, 0, 61, 0
2, 17640, Note_on_c, 0, 65, 60
2, 17640, Note_on_c, 0, 73, 71
2, 17700, Note_on_c, 0, 73, 0
2, 17700, Note_on_c, 0, 65, 0
2, 17760, Note_on_c, 0, 63, 53
2, 17760, Note_on_c, 0, 72, 63
2, 17820, Note_on_c, 0, 72, 0
2, 17820, Note_on_c, 0, 63, 0
2, 17880, Note_on_c, 0, 61, 58
2, 17880, Note_on_c, 0, 70, 70
2, 17940, Note_on_c, 0, 70, 0
2, 17940, Note_on_c, 0, 61, 0
2, 18000, Note_on_c, 0, 61, 70
2, 18000, Note_on_c, 0, 70, 82
2, 18360, Note_on_c, 0, 64, 66
2, 18720, Note_on_c, 0, 64, 0
2, 18720, Note_on_c, 0, 70, 0
2, 18720, Note_on_c, 0, 61, 0
2, 18720, Note_on_c, 0, 60, 67
2, 18720, Note_on_c, 0, 65, 67
2, 18720, Note_on_c, 0, 69, 80
2, 19080, Note_on_c, 0, 69, 0
2, 19080, Note_on_c, 0, 65, 0
2, 19080, Note_on_c, 0, 60, 0
2, 19320, Note_on_c, 0, 73, 43
2, 19320, Note_on_c, 0, 77, 43
2, 19380, Note_on_c, 0, 77, 0
2, 19380, Note_on_c, 0, 73, 0
2, 19440, Note_on_c, 0, 65, 40
2, 19440, Note_on_c, 0, 73, 50
2, 19440, Note_on_c, 0, 77, 50
2, 19560, Note_on_c, 0, 77, 0
2, 19560, Note_on_c, 0, 73, 0
2, 19560, Note_on_c, 0, 73, 45
2, 19560, Note_on_c, 0, 70, 45
2, 19680, Note_on_c, 0, 70, 0
2, 19680, Note_on_c, 0, 73, 0
2, 19680, Note_on_c, 0, 65, 0
2, 19680, Note_on_c, 0, 77, 45
2, 19680, Note_on_c, 0, 73, 45
2, 19740, Note_on_c, 0, 73, 0
2, 19740, Note_on_c, 0, 77, 0
2, 19800, Note_on_c, 0, 65, 41
2, 19800, Note_on_c, 0, 73, 51
2, 19800, Note_on_c, 0, 77, 51
2, 19920, Note_on_c, 0, 77, 0
2, 19920, Note_on_c, 0, 73, 0
2, 19920, Note_on_c, 0, 73, 48
2, 19920, Note_on_c, 0, 70, 48
2, 20040, Note_on_c, 0, 70, 0
2, 20040, Note_on_c, 0, 73, 0
2, 20040, Note_on_c, 0, 65, 0
2, 20040, Note_on_c, 0, 77, 48
2, 20040, Note_on_c, 0, 73, 48
2, 20100, Note_on_c, 0, 73, 0
2, 20100, Note_on_c, 0, 77, 0
2, 20160, Note_on_c, 0, 65, 42
2, 20160, Note_on_c, 0, 73, 53
2, 20160, Note_on_c, 0, 77, 53
2, 20280, Note_on_c, 0, 77, 0
2, 20280, Note_on_c, 0, 73, 0
2, 20280, Note_on_c, 0, 73, 50
2, 20280, Note_on_c, 0, 70, 50
2, 20400, Note_on_c, 0, 70, 0
2, 20400, Note_on_c, 0, 73, 0
2, 20400, Note_on_c, 0, 65, 0
2, 20400, Note_on_c, 0, 77, 55
2, 20400, Note_on_c, 0, 73, 55
2, 20460, Note_on_c, 0, 73, 0
2, 20460, Note_on_c, 0, 77, 0
2, 20520, Note_on_c, 0, 65, 53
2, 20520, Note_on_c, 0, 73, 66
2, 20520, Note_on_c, 0, 77, 66
2, 20640, Note_on_c, 0, 77, 0
2, 20640, Note_on_c, 0, 73, 0
2, 20640, Note_on_c, 0, 73, 63
2, 20640, Note_on_c, 0, 70, 63
2, 20760, Note_on_c, 0, 70, 0
2, 20760, Note_on_c, 0, 73, 0
2, 20760, Note_on_c, 0, 65, 0
2, 20760, Note_on_c, 0, 77, 68
2, 20760, Note_on_c, 0, 73, 68
2, 20820, Note_on_c, 0, 73, 0
2, 20820, Note_on_c, 0, 77, 0
2, 20880, Note_on_c, 0, 68, 58
2, 20880, Note_on_c, 0, 77, 66
2, 20880, Note_on_c, 0, 80, 82
2, 21240, Note_on_c, 0, 80, 0
2, 21240, Note_on_c, 0, 77, 0
2, 21240, Note_on_c, 0, 68, 0
2, 21240, Note_on_c, 0, 66, 56
2, 21240, Note_on_c, 0, 75, 56
2, 21240, Note_on_c, 0, 78, 66
2, 21480, Note_on_c, 0, 78, 0
2, 21480, Note_on_c, 0, 75, 0
2, 21480, Note_on_c, 0, 66, 0
2, 21480, Note_on_c, 0, 65, 56
2, 21480, Note_on_c, 0, 73, 56
2, 21480, Note_on_c, 0, 77, 66
2, 21540, Note_on_c, 0, 77, 0
2, 21540, Note_on_c, 0, 73, 0
2, 21540, Note_on_c, 0, 65, 0
2, 21600, Note_on_c, 0, 65, 58
2, 21600, Note_on_c, 0, 73, 67
2, 21600, Note_on_c, 0, 77, 82
2, 21960, Note_on_c, 0, 77, 0
2, 21960, Note_on_c, 0, 73, 0
2, 21960, Note_on_c, 0, 65, 0
2, 21960, Note_on_c, 0, 63, 56
2, 21960, Note_on_c, 0, 72, 56
2, 21960, Note_on_c, 0, 75, 66
2, 22200, Note_on_c, 0, 75, 0
2, 22200, Note_on_c, 0, 72, 0
2, 22200, Note_on_c, 0, 63, 0
2, 22320, Note_on_c, 0, 65, 58
2, 22320, Note_on_c, 0, 68, 66
2, 22320, Note_on_c, 0, 77, 82
2, 22680, Note_on_c, 0, 77, 0
2, 22680, Note_on_c, 0, 65, 0
2, 22680, Note_on_c, 0, 73, 69
2, 22920, Note_on_c, 0, 73, 0
2, 22920, Note_on_c, 0, 72, 65
2, 23010, Note_on_c, 0, 72, 0
2, 23040, Note_on_c, 0, 68, 0
2, 23040, Note_on_c, 0, 68, 69
2, 23040, Note_on_c, 0, 72, 69
2, 23280, Note_on_c, 0, 72, 0
2, 23280, Note_on_c, 0, 68, 0
2, 23280, Note_on_c, 0, 66, 65
2, 23280, Note_on_c, 0, 70, 65
2, 23370, Note_on_c, 0, 70, 0
2, 23370, Note_on_c, 0, 66, 0
2, 23400, Note_on_c, 0, 73, 69
2, 23640, Note_on_c, 0, 73, 0
2, 23640, Note_on_c, 0, 66, 65
2, 23640, Note_on_c, 0, 70, 65
2, 23730, Note_on_c, 0, 70, 0
2, 23730, Note_on_c, 0, 66, 0
2, 23760, Note_on_c, 0, 66, 69
2, 23760, Note_on_c, 0, 70, 69
2, 24000, Note_on_c, 0, 70, 0
2, 24000, Note_on_c, 0, 66, 0
2, 24000, Note_on_c, 0, 65, 65
2, 24000, Note_on_c, 0, 68, 65
2, 24090, Note_on_c, 0, 68, 0
2, 24090, Note_on_c, 0, 65, 0
2, 24120, Note_on_c, 0, 73, 69
2, 24360, Note_on_c, 0, 73, 0
2, 24360, Note_on_c, 0, 65, 65
2, 24360, Note_on_c, 0, 68, 65
2, 24450, Note_on_c, 0, 68, 0
2, 24450, Note_on_c, 0, 65, 0
2, 24480, Note_on_c, 0, 65, 69
2, 24480, Note_on_c, 0, 68, 69
2, 24720, Note_on_c, 0, 68, 0
2, 24720, Note_on_c, 0, 65, 0
2, 24720, Note_on_c, 0, 69, 61
2, 24840, Note_on_c, 0, 69, 0
2, 24840, Note_on_c, 0, 60, 49
2, 24840, Note_on_c, 0, 66, 49
2, 24840, Note_on_c, 0, 70, 62
2, 25080, Note_on_c, 0, 70, 0
2, 25080, Note_on_c, 0, 66, 0
2, 25080, Note_on_c, 0, 60, 0
2, 25080, Note_on_c, 0, 63, 54
2, 25080, Note_on_c, 0, 66, 54
2, 25170, Note_on_c, 0, 66, 0
2, 25170, Note_on_c, 0, 63, 0
2, 25200, Note_on_c, 0, 66, 58
2, 25200, Note_on_c, 0, 63, 49
2, 25200, Note_on_c, 0, 60, 49
2, 25560, Note_on_c, 0, 60, 0
2, 25560, Note_on_c, 0, 63, 0
2, 25560, Note_on_c, 0, 66, 0
2, 25560, Note_on_c, 0, 61, 41
2, 25560, Note_on_c, 0, 65, 49
2, 25920, Note_on_c, 0, 65, 0
2, 25920, Note_on_c, 0, 61, 0
2, 26520, Note_on_c, 0, 63, 43
2, 26520, Note_on_c, 0, 65, 43
2, 26580, Note_on_c, 0, 65, 0
2, 26580, Note_on_c, 0, 63, 0
2, 26640, Note_on_c, 0, 62, 50
2, 26640, Note_on_c, 0, 65, 50
2, 26760, Note_on_c, 0, 65, 0
2, 26760, Note_on_c, 0, 62, 0
2, 26760, Note_on_c, 0, 70, 45
2, 26760, Note_on_c, 0, 58, 45
2, 26880, Note_on_c, 0, 58, 0
2, 26880, Note_on_c, 0, 70, 0
2, 26880, Note_on_c, 0, 65, 45
2, 26880, Note_on_c, 0, 62, 45
2, 26940, Note_on_c, 0, 62, 0
2, 26940, Note_on_c, 0, 65, 0
2, 27000, Note_on_c, 0, 62, 50
2, 27000, Note_on_c, 0, 65, 50
2, 27120, Note_on_c, 0, 65, 0
2, 27120, Note_on_c, 0, 62, 0
2, 27120, Note_on_c, 0, 70, 46
2, 27120, Note_on_c, 0, 58, 46
2, 27240, Note_on_c, 0, 58, 0
2, 27240, Note_on_c, 0, 70, 0
2, 27240, Note_on_c, 0, 65, 46
2, 27240, Note_on_c, 0, 62, 46
2, 27300, Note_on_c, 0, 62, 0
2, 27300, Note_on_c, 0, 65, 0
2, 27360, Note_on_c, 0, 58, 46
2, 27360, Note_on_c, 0, 65, 46
2, 27360, Note_on_c, 0, 68, 46
2, 27720, Note_on_c, 0, 68, 0
2, 27720, Note_on_c, 0, 65, 0
2, 27720, Note_on_c, 0, 58, 0
2, 27720, Note_on_c, 0, 63, 46
2, 27720, Note_on_c, 0, 66, 46
2, 27840, Note_on_c, 0, 66, 0
2, 27840, Note_on_c, 0, 63, 0
2, 27960, Note_on_c, 0, 63, 43
2, 27960, Note_on_c, 0, 66, 43
2, 28020, Note_on_c, 0, 66, 0
2, 28020, Note_on_c, 0, 63, 0
2, 28080, Note_on_c, 0, 62, 50
2, 28080, Note_on_c, 0, 65, 50
2, 28200, Note_on_c, 0, 65, 0
2, 28200, Note_on_c, 0, 62, 0
2, 28200, Note_on_c, 0, 70, 45
2, 28200, Note_on_c, 0, 58, 45
2, 28320, Note_on_c, 0, 58, 0
2, 28320, Note_on_c, 0, 70, 0
2, 28320, Note_on_c, 0, 65, 45
2, 28320, Note_on_c, 0, 62, 45
2, 28380, Note_on_c, 0, 62, 0
2, 28380, Note_on_c, 0, 65, 0
2, 28440, Note_on_c, 0, 62, 50
2, 28440, Note_on_c, 0, 65, 50
2, 28560, Note_on_c, 0, 65, 0
2, 28560, Note_on_c, 0, 62, 0
2, 28560, Note_on_c, 0, 70, 46
2, 28560, Note_on_c, 0, 58, 46
2, 28680, Note_on_c, 0, 58, 0
2, 28680, Note_on_c, 0, 70, 0
2, 28680, Note_on_c, 0, 65, 46
2, 28680, Note_on_c, 0, 62, 46
2, 28740, Note_on_c, 0, 62, 0
2, 28740, Note_on_c, 0, 65, 0
2, 28800, Note_on_c, 0, 58, 46
2, 28800, Note_on_c, 0, 65, 46
2, 28800, Note_on_c, 0, 68, 46
2, 29160, Note_on_c, 0, 68, 0
2, 29160, Note_on_c, 0, 65, 0
2, 29160, Note_on_c, 0, 58, 0
2, 29160, Note_on_c, 0, 63, 46
2, 29160, Note_on_c, 0, 66, 46
2, 29280, Note_on_c, 0, 66, 0
2, 29280, Note_on_c, 0, 63, 0
2, 29400, Note_on_c, 0, 66, 49
2, 29400, Note_on_c, 0, 63, 49
2, 29400, Note_on_c, 0, 70, 49
2, 29460, Note_on_c, 0, 70, 0
2, 29460, Note_on_c, 0, 63, 0
2, 29460, Note_on_c, 0, 66, 0
2, 29520, Note_on_c, 0, 65, 57
2, 29520, Note_on_c, 0, 68, 57
2, 29640, Note_on_c, 0, 68, 0
2, 29640, Note_on_c, 0, 65, 0
2, 29640, Note_on_c, 0, 73, 51
2, 29640, Note_on_c, 0, 61, 51
2, 29760, Note_on_c, 0, 61, 0
2, 29760, Note_on_c, 0, 73, 0
2, 29760, Note_on_c, 0, 68, 51
2, 29760, Note_on_c, 0, 65, 51
2, 29820, Note_on_c, 0, 65, 0
2, 29820, Note_on_c, 0, 68, 0
2, 29880, Note_on_c, 0, 65, 58
2, 29880, Note_on_c, 0, 68, 58
2, 30000, Note_on_c, 0, 68, 0
2, 30000, Note_on_c, 0, 65, 0
2, 30000, Note_on_c, 0, 73, 53
2, 30000, Note_on_c, 0, 61, 53
2, 30120, Note_on_c, 0, 61, 0
2, 30120, Note_on_c, 0, 73, 0
2, 30120, Note_on_c, 0, 68, 53
2, 30120, Note_on_c, 0, 65, 53
2, 30180, Note_on_c, 0, 65, 0
2, 30180, Note_on_c, 0, 68, 0
2, 30240, Note_on_c, 0, 65, 54
2, 30240, Note_on_c, 0, 61, 54
2, 30240, Note_on_c, 0, 68, 54
2, 30240, Note_on_c, 0, 71, 54
2, 30600, Note_on_c, 0, 71, 0
2, 30600, Note_on_c, 0, 65, 0
2, 30600, Note_on_c, 0, 61, 0
2, 30600, Note_on_c, 0, 68, 0
2, 30600, Note_on_c, 0, 66, 54
2, 30600, Note_on_c, 0, 70, 54
2, 30720, Note_on_c, 0, 70, 0
2, 30720, Note_on_c, 0, 66, 0
2, 30840, Note_on_c, 0, 66, 59
2, 30840, Note_on_c, 0, 70, 59
2, 30900, Note_on_c, 0, 70, 0
2, 30900, Note_on_c, 0, 66, 0
2, 30960, Note_on_c, 0, 65, 69
2, 30960, Note_on_c, 0, 68, 69
2, 31080, Note_on_c, 0, 68, 0
2, 31080, Note_on_c, 0, 65, 0
2, 31080, Note_on_c, 0, 73, 62
2, 31080, Note_on_c, 0, 61, 62
2, 31200, Note_on_c, 0, 61, 0
2, 31200, Note_on_c, 0, 73, 0
2, 31200, Note_on_c, 0, 68, 63
2, 31200, Note_on_c, 0, 65, 63
2, 31260, Note_on_c, 0, 65, 0
2, 31260, Note_on_c, 0, 68, 0
2, 31320, Note_on_c, 0, 65, 74
2, 31320, Note_on_c, 0, 68, 74
2, 31440, Note_on_c, 0, 68, 0
2, 31440, Note_on_c, 0, 65, 0
2, 31440, Note_on_c, 0, 73, 68
2, 31440, Note_on_c, 0, 61, 68
2, 31560, Note_on_c, 0, 61, 0
2, 31560, Note_on_c, 0, 73, 0
2, 31560, Note_on_c, 0, 68, 69
2, 31560, Note_on_c, 0, 65, 69
2, 31620, Note_on_c, 0, 65, 0
2, 31620, Note_on_c, 0, 68, 0
2, 31680, Note_on_c, 0, 65, 71
2, 31680, Note_on_c, 0, 62, 71
2, 31680, Note_on_c, 0, 68, 71
2, 31680, Note_on_c, 0, 71, 71
2, 32040, Note_on_c, 0, 71, 0
2, 32040, Note_on_c, 0, 65, 0
2, 32040, Note_on_c, 0, 62, 0
2, 32040, Note_on_c, 0, 68, 0
2, 32040, Note_on_c, 0, 63, 75
2, 32040, Note_on_c, 0, 66, 75
2, 32040, Note_on_c, 0, 70, 75
2, 32160, Note_on_c, 0, 70, 0
2, 32160, Note_on_c, 0, 66, 0
2, 32160, Note_on_c, 0, 63, 0
2, 32400, Note_on_c, 0, 65, 78
2, 32400, Note_on_c, 0, 72, 78
2, 32400, Note_on_c, 0, 77, 92
2, 32757, Note_on_c, 0, 77, 0
2, 32757, Note_on_c, 0, 72, 0
2, 32757, Note_on_c, 0, 65, 0
2, 32760, Note_on_c, 0, 72, 81
2, 32760, Note_on_c, 0, 69, 69
2, 33000, Note_on_c, 0, 69, 0
2, 33000, Note_on_c, 0, 72, 0
2, 33000, Note_on_c, 0, 72, 77
2, 33000, Note_on_c, 0, 69, 64
2, 33000, Note_on_c, 0, 65, 64
2, 33060, Note_on_c, 0, 65, 0
2, 33060, Note_on_c, 0, 69, 0
2, 33060, Note_on_c, 0, 72, 0
2, 33120, Note_on_c, 0, 66, 78
2, 33120, Note_on_c, 0, 72, 78
2, 33120, Note_on_c, 0, 75, 92
2, 33360, Note_on_c, 0, 75, 0
2, 33360, Note_on_c, 0, 72, 0
2, 33360, Note_on_c, 0, 66, 0
2, 33360, Note_on_c, 0, 73, 80
2, 33360, Note_on_c, 0, 70, 67
2, 33360, Note_on_c, 0, 64, 67
2, 33480, Note_on_c, 0, 64, 0
2, 33480, Note_on_c, 0, 70, 0
2, 33480, Note_on_c, 0, 73, 0
2, 33480, Note_on_c, 0, 72, 79
2, 33480, Note_on_c, 0, 69, 66
2, 33480, Note_on_c, 0, 65, 66
2, 33840, Note_on_c, 0, 65, 0
2, 33840, Note_on_c, 0, 69, 0
2, 33840, Note_on_c, 0, 72, 0
2, 33840, Note_on_c, 0, 65, 78
2, 33840, Note_on_c, 0, 72, 78
2, 33840, Note_on_c, 0, 77, 92
2, 34197, Note_on_c, 0, 77, 0
2, 34197, Note_on_c, 0, 72, 0
2, 34197, Note_on_c, 0, 65, 0
2, 34200, Note_on_c, 0, 72, 81
2, 34200, Note_on_c, 0, 69, 69
2, 34440, Note_on_c, 0, 69, 0
2, 34440, Note_on_c, 0, 72, 0
2, 34440, Note_on_c, 0, 72, 77
2, 34440, Note_on_c, 0, 69, 64
2, 34440, Note_on_c, 0, 65, 64
2, 34500, Note_on_c, 0, 65, 0
2, 34500, Note_on_c, 0, 69, 0
2, 34500, Note_on_c, 0, 72, 0
2, 34560, Note_on_c, 0, 66, 78
2, 34560, Note_on_c, 0, 72, 78
2, 34560, Note_on_c, 0, 75, 92
2, 34800, Note_on_c, 0, 75, 0
2, 34800, Note_on_c, 0, 72, 0
2, 34800, Note_on_c, 0, 66, 0
2, 34800, Note_on_c, 0, 73, 80
2, 34800, Note_on_c, 0, 70, 67
2, 34800, Note_on_c, 0, 64, 67
2, 34920, Note_on_c, 0, 64, 0
2, 34920, Note_on_c, 0, 70, 0
2, 34920, Note_on_c, 0, 73, 0
2, 34920, Note_on_c, 0, 72, 79
2, 34920, Note_on_c, 0, 69, 66
2, 34920, Note_on_c, 0, 65, 66
2, 35280, Note_on_c, 0, 65, 0
2, 35280, Note_on_c, 0, 69, 0
2, 35280, Note_on_c, 0, 72, 0
2, 35280, Note_on_c, 0, 65, 78
2, 35280, Note_on_c, 0, 72, 78
2, 35280, Note_on_c, 0, 77, 92
2, 35637, Note_on_c, 0, 77, 0
2, 35637, Note_on_c, 0, 72, 0
2, 35637, Note_on_c, 0, 65, 0
2, 35640, Note_on_c, 0, 72, 76
2, 35640, Note_on_c, 0, 69, 64
2, 35880, Note_on_c, 0, 69, 0
2, 35880, Note_on_c, 0, 72, 0
2, 35880, Note_on_c, 0, 72, 69
2, 35880, Note_on_c, 0, 69, 57
2, 35880, Note_on_c, 0, 65, 57
2, 35940, Note_on_c, 0, 65, 0
2, 35940, Note_on_c, 0, 69, 0
2, 35940, Note_on_c, 0, 72, 0
2, 36000, Note_on_c, 0, 66, 68
2, 36000, Note_on_c, 0, 75, 80
2, 36240, Note_on_c, 0, 75, 0
2, 36240, Note_on_c, 0, 66, 0
2, 36240, Note_on_c, 0, 73, 63
2, 36240, Note_on_c, 0, 65, 53
2, 36360, Note_on_c, 0, 65, 0
2, 36360, Note_on_c, 0, 73, 0
2, 36360, Note_on_c, 0, 66, 51
2, 36360, Note_on_c, 0, 72, 60
2, 36360, Note_on_c, 0, 63, 51
2, 36600, Note_on_c, 0, 63, 0
2, 36600, Note_on_c, 0, 72, 0
2, 36600, Note_on_c, 0, 66, 0
2, 36600, Note_on_c, 0, 61, 49
2, 36600, Note_on_c, 0, 65, 49
2, 36600, Note_on_c, 0, 70, 58
2, 36720, Note_on_c, 0, 70, 0
2, 36720, Note_on_c, 0, 65, 0
2, 36720, Note_on_c, 0, 61, 0
2, 36720, Note_on_c, 0, 63, 55
2, 36720, Note_on_c, 0, 60, 55
2, 36720, Note_on_c, 0, 68, 65
2, 36960, Note_on_c, 0, 68, 0
2, 36960, Note_on_c, 0, 60, 0
2, 36960, Note_on_c, 0, 63, 0
2, 36960, Note_on_c, 0, 58, 46
2, 36960, Note_on_c, 0, 66, 54
2, 36960, Note_on_c, 0, 61, 46
2, 37080, Note_on_c, 0, 61, 0
2, 37080, Note_on_c, 0, 66, 0
2, 37080, Note_on_c, 0, 58, 0
2, 37080, Note_on_c, 0, 60, 44
2, 37080, Note_on_c, 0, 65, 52
2, 37080, Note_on_c, 0, 57, 44
2, 37320, Note_on_c, 0, 57, 0
2, 37320, Note_on_c, 0, 65, 0
2, 37320, Note_on_c, 0, 60, 0
2, 37320, Note_on_c, 0, 58, 42
2, 37320, Note_on_c, 0, 55, 42
2, 37320, Note_on_c, 0, 64, 50
2, 37410, Note_on_c, 0, 64, 0
2, 37410, Note_on_c, 0, 55, 0
2, 37410, Note_on_c, 0, 58, 0
2, 37440, Note_on_c, 0, 55, 37
2, 37440, Note_on_c, 0, 58, 37
2, 37440, Note_on_c, 0, 64, 45
2, 37800, Note_on_c, 0, 64, 0
2, 37800, Note_on_c, 0, 58, 0
2, 37800, Note_on_c, 0, 55, 0
2, 37800, Note_on_c, 0, 57, 37
2, 37800, Note_on_c, 0, 65, 45
2, 38160, Note_on_c, 0, 65, 0
2, 38160, Note_on_c, 0, 57, 0
2, 38760, Note_on_c, 0, 73, 43
2, 38760, Note_on_c, 0, 77, 43
2, 38820, Note_on_c, 0, 77, 0
2, 38820, Note_on_c, 0, 73, 0
2, 38880, Note_on_c, 0, 65, 40
2, 38880, Note_on_c, 0, 73, 50
2, 38880, Note_on_c, 0, 77, 50
2, 39000, Note_on_c, 0, 77, 0
2, 39000, Note_on_c, 0, 73, 0
2, 39000, Note_on_c, 0, 73, 45
2, 39000, Note_on_c, 0, 70, 45
2, 39120, Note_on_c, 0, 70, 0
2, 39120, Note_on_c, 0, 73, 0
2, 39120, Note_on_c, 0, 65, 0
2, 39120, Note_on_c, 0, 77, 45
2, 39120, Note_on_c, 0, 73, 45
2, 39180, Note_on_c, 0, 73, 0
2, 39180, Note_on_c, 0, 77, 0
2, 39240, Note_on_c, 0, 65, 40
2, 39240, Note_on_c, 0, 73, 50
2, 39240, Note_on_c, 0, 77, 50
2, 39360, Note_on_c, 0, 77, 0
2, 39360, Note_on_c, 0, 73, 0
2, 39360, Note_on_c, 0, 73, 46
2, 39360, Note_on_c, 0, 70, 46
2, 39480, Note_on_c, 0, 70, 0
2, 39480, Note_on_c, 0, 73, 0
2, 39480, Note_on_c, 0, 65, 0
2, 39480, Note_on_c, 0, 77, 46
2, 39480, Note_on_c, 0, 73, 46
2, 39540, Note_on_c, 0, 73, 0
2, 39540, Note_on_c, 0, 77, 0
2, 39600, Note_on_c, 0, 65, 40
2, 39600, Note_on_c, 0, 73, 50
2, 39600, Note_on_c, 0, 77, 50
2, 39720, Note_on_c, 0, 77, 0
2, 39720, Note_on_c, 0, 73, 0
2, 39720, Note_on_c, 0, 73, 45
2, 39720, Note_on_c, 0, 70, 45
2, 39840, Note_on_c, 0, 70, 0
2, 39840, Note_on_c, 0, 73, 0
2, 39840, Note_on_c, 0, 65, 0
2, 39840, Note_on_c, 0, 77, 45
2, 39840, Note_on_c, 0, 73, 45
2, 39900, Note_on_c, 0, 73, 0
2, 39900, Note_on_c, 0, 77, 0
2, 39960, Note_on_c, 0, 65, 40
2, 39960, Note_on_c, 0, 73, 50
2, 39960, Note_on_c, 0, 77, 50
2, 40080, Note_on_c, 0, 77, 0
2, 40080, Note_on_c, 0, 73, 0
2, 40080, Note_on_c, 0, 73, 46
2, 40080, Note_on_c, 0, 70, 46
2, 40200, Note_on_c, 0, 70, 0
2, 40200, Note_on_c, 0, 73, 0
2, 40200, Note_on_c, 0, 65, 0
2, 40200, Note_on_c, 0, 77, 46
2, 40200, Note_on_c, 0, 73, 46
2, 40260, Note_on_c, 0, 73, 0
2, 40260, Note_on_c, 0, 77, 0
2, 40320, Note_on_c, 0, 66, 71
2, 40320, Note_on_c, 0, 73, 50
2, 40440, Note_on_c, 0, 73, 0
2, 40440, Note_on_c, 0, 70, 45
2, 40560, Note_on_c, 0, 70, 0
2, 40560, Note_on_c, 0, 73, 45
2, 40620, Note_on_c, 0, 73, 0
2, 40680, Note_on_c, 0, 73, 50
2, 40800, Note_on_c, 0, 73, 0
2, 40800, Note_on_c, 0, 70, 46
2, 40920, Note_on_c, 0, 70, 0
2, 40920, Note_on_c, 0, 66, 0
2, 40920, Note_on_c, 0, 65, 60
2, 40920, Note_on_c, 0, 73, 46
2, 40980, Note_on_c, 0, 73, 0
2, 41040, Note_on_c, 0, 65, 0
2, 41040, Note_on_c, 0, 64, 72
2, 41040, Note_on_c, 0, 73, 50
2, 41160, Note_on_c, 0, 73, 0
2, 41160, Note_on_c, 0, 70, 45
2, 41280, Note_on_c, 0, 70, 0
2, 41280, Note_on_c, 0, 73, 45
2, 41340, Note_on_c, 0, 73, 0
2, 41400, Note_on_c, 0, 73, 50
2, 41520, Note_on_c, 0, 73, 0
2, 41520, Note_on_c, 0, 70, 46
2, 41580, Note_on_c, 0, 64, 0
2, 41640, Note_on_c, 0, 70, 0
2, 41640, Note_on_c, 0, 73, 61
2, 41640, Note_on_c, 0, 64, 60
2, 41700, Note_on_c, 0, 73, 0
2, 41760, Note_on_c, 0, 64, 0
2, 41760, Note_on_c, 0, 65, 75
2, 41880, Note_on_c, 0, 60, 54
2, 41880, Note_on_c, 0, 63, 54
2, 41940, Note_on_c, 0, 63, 0
2, 41940, Note_on_c, 0, 60, 0
2, 42000, Note_on_c, 0, 60, 54
2, 42000, Note_on_c, 0, 63, 54
2, 42060, Note_on_c, 0, 63, 0
2, 42060, Note_on_c, 0, 60, 0
2, 42120, Note_on_c, 0, 60, 54
2, 42120, Note_on_c, 0, 63, 54
2, 42180, Note_on_c, 0, 63, 0
2, 42180, Note_on_c, 0, 60, 0
2, 42240, Note_on_c, 0, 65, 0
2, 42240, Note_on_c, 0, 58, 54
2, 42240, Note_on_c, 0, 67, 56
2, 42300, Note_on_c, 0, 67, 0
2, 42300, Note_on_c, 0, 58, 0
2, 42360, Note_on_c, 0, 60, 54
2, 42360, Note_on_c, 0, 69, 61
2, 42420, Note_on_c, 0, 69, 0
2, 42420, Note_on_c, 0, 60, 0
2, 42420, Note_on_c, 0, 72, 64
2, 42480, Note_on_c, 0, 72, 0
2, 42480, Note_on_c, 0, 61, 61
2, 42480, Note_on_c, 0, 70, 73
2, 42540, Note_on_c, 0, 70, 0
2, 42540, Note_on_c, 0, 61, 0
2, 42600, Note_on_c, 0, 60, 54
2, 42600, Note_on_c, 0, 69, 63
2, 42660, Note_on_c, 0, 69, 0
2, 42660, Note_on_c, 0, 60, 0
2, 42720, Note_on_c, 0, 61, 53
2, 42720, Note_on_c, 0, 70, 63
2, 42780, Note_on_c, 0, 70, 0
2, 42780, Note_on_c, 0, 61, 0
2, 42840, Note_on_c, 0, 65, 60
2, 42840, Note_on_c, 0, 73, 71
2, 42900, Note_on_c, 0, 73, 0
2, 42900, Note_on_c, 0, 65, 0
2, 42960, Note_on_c, 0, 63, 53
2, 42960, Note_on_c, 0, 72, 63
2, 43020, Note_on_c, 0, 72, 0
2, 43020, Note_on_c, 0, 63, 0
2, 43080, Note_on_c, 0, 61, 58
2, 43080, Note_on_c, 0, 70, 70
2, 43140, Note_on_c, 0, 70, 0
2, 43140, Note_on_c, 0, 61, 0
2, 43200, Note_on_c, 0, 61, 70
2, 43200, Note_on_c, 0, 70, 82
2, 43560, Note_on_c, 0, 64, 66
2, 43920, Note_on_c, 0, 64, 0
2, 43920, Note_on_c, 0, 70, 0
2, 43920, Note_on_c, 0, 61, 0
2, 43920, Note_on_c, 0, 60, 67
2, 43920, Note_on_c, 0, 65, 67
2, 43920, Note_on_c, 0, 69, 80
2, 44280, Note_on_c, 0, 69, 0
2, 44280, Note_on_c, 0, 65, 0
2, 44280, Note_on_c, 0, 60, 0
2, 44520, Note_on_c, 0, 73, 43
2, 44520, Note_on_c, 0, 77, 43
2, 44580, Note_on_c, 0, 77, 0
2, 44580, Note_on_c, 0, 73, 0
2, 44640, Note_on_c, 0, 65, 40
2, 44640, Note_on_c, 0, 73, 50
2, 44640, Note_on_c, 0, 77, 50
2, 44760, Note_on_c, 0, 77, 0
2, 44760, Note_on_c, 0, 73, 0
2, 44760, Note_on_c, 0, 73, 45
2, 44760, Note_on_c, 0, 70, 45
2, 44880, Note_on_c, 0, 70, 0
2, 44880, Note_on_c, 0, 73, 0
2, 44880, Note_on_c, 0, 65, 0
2, 44880, Note_on_c, 0, 77, 45
2, 44880, Note_on_c, 0, 73, 45
2, 44940, Note_on_c, 0, 73, 0
2, 44940, Note_on_c, 0, 77, 0
2, 45000, Note_on_c, 0, 65, 41
2, 45000, Note_on_c, 0, 73, 51
2, 45000, Note_on_c, 0, 77, 51
2, 45120, Note_on_c, 0, 77, 0
2, 45120, Note_on_c, 0, 73, 0
2, 45120, Note_on_c, 0, 73, 48
2, 45120, Note_on_c, 0, 70, 48
2, 45240, Note_on_c, 0, 70, 0
2, 45240, Note_on_c, 0, 73, 0
2, 45240, Note_on_c, 0, 65, 0
2, 45240, Note_on_c, 0, 77, 48
2, 45240, Note_on_c, 0, 73, 48
2, 45300, Note_on_c, 0, 73, 0
2, 45300, Note_on_c, 0, 77, 0
2, 45360, Note_on_c, 0, 65, 42
2, 45360, Note_on_c, 0, 73, 53
2, 45360, Note_on_c, 0, 77, 53
2, 45480, Note_on_c, 0, 77, 0
2, 45480, Note_on_c, 0, 73, 0
2, 45480, Note_on_c, 0, 73, 50
2, 45480, Note_on_c, 0, 70, 50
2, 45600, Note_on_c, 0, 70, 0
2, 45600, Note_on_c, 0, 73, 0
2, 45600, Note_on_c, 0, 65, 0
2, 45600, Note_on_c, 0, 77, 55
2, 45600, Note_on_c, 0, 73, 55
2, 45660, Note_on_c, 0, 73, 0
2, 45660, Note_on_c, 0, 77, 0
2, 45720, Note_on_c, 0, 65, 53
2, 45720, Note_on_c, 0, 73, 66
2, 45720, Note_on_c, 0, 77, 66
2, 45840, Note_on_c, 0, 77, 0
2, 45840, Note_on_c, 0, 73, 0
2, 45840, Note_on_c, 0, 73, 63
2, 45840, Note_on_c, 0, 70, 63
2, 45960, Note_on_c, 0, 70, 0
2, 45960, Note_on_c, 0, 73, 0
2, 45960, Note_on_c, 0, 65, 0
2, 45960, Note_on_c, 0, 77, 68
2, 45960, Note_on_c, 0, 73, 68
2, 46020, Note_on_c, 0, 73, 0
2, 46020, Note_on_c, 0, 77, 0
2, 46080, Note_on_c, 0, 68, 58
2, 46080, Note_on_c, 0, 77, 66
2, 46080, Note_on_c, 0, 80, 82
2, 46440, Note_on_c, 0, 80, 0
2, 46440, Note_on_c, 0, 77, 0
2, 46440, Note_on_c, 0, 68, 0
2, 46440, Note_on_c, 0, 66, 56
2, 46440, Note_on_c, 0, 75, 56
2, 46440, Note_on_c, 0, 78, 66
2, 46680, Note_on_c, 0, 78, 0
2, 46680, Note_on_c, 0, 75, 0
2, 46680, Note_on_c, 0, 66, 0
2, 46680, Note_on_c, 0, 65, 56
2, 46680, Note_on_c, 0, 73, 56
2, 46680, Note_on_c, 0, 77, 66
2, 46740, Note_on_c, 0, 77, 0
2, 46740, Note_on_c, 0, 73, 0
2, 46740, Note_on_c, 0, 65, 0
2, 46800, Note_on_c, 0, 65, 58
2, 46800, Note_on_c, 0, 68, 67
2, 46800, Note_on_c, 0, 77, 82
2, 47160, Note_on_c, 0, 77, 0
2, 47160, Note_on_c, 0, 68, 0
2, 47160, Note_on_c, 0, 65, 0
2, 47160, Note_on_c, 0, 63, 56
2, 47160, Note_on_c, 0, 75, 66
2, 47400, Note_on_c, 0, 75, 0
2, 47400, Note_on_c, 0, 63, 0
2, 47520, Note_on_c, 0, 66, 58
2, 47520, Note_on_c, 0, 70, 66
2, 47520, Note_on_c, 0, 78, 82
2, 47880, Note_on_c, 0, 78, 0
2, 47880, Note_on_c, 0, 66, 0
2, 47880, Note_on_c, 0, 75, 69
2, 48120, Note_on_c, 0, 75, 0
2, 48120, Note_on_c, 0, 73, 65
2, 48210, Note_on_c, 0, 73, 0
2, 48240, Note_on_c, 0, 70, 0
2, 48240, Note_on_c, 0, 70, 69
2, 48240, Note_on_c, 0, 73, 69
2, 48480, Note_on_c, 0, 73, 0
2, 48480, Note_on_c, 0, 70, 0
2, 48480, Note_on_c, 0, 72, 65
2, 48570, Note_on_c, 0, 72, 0
2, 48600, Note_on_c, 0, 75, 69
2, 48840, Note_on_c, 0, 75, 0
2, 48840, Note_on_c, 0, 72, 65
2, 48930, Note_on_c, 0, 72, 0
2, 48960, Note_on_c, 0, 65, 69
2, 48960, Note_on_c, 0, 72, 69
2, 49200, Note_on_c, 0, 72, 0
2, 49200, Note_on_c, 0, 70, 65
2, 49290, Note_on_c, 0, 70, 0
2, 49320, Note_on_c, 0, 73, 69
2, 49560, Note_on_c, 0, 73, 0
2, 49560, Note_on_c, 0, 70, 65
2, 49650, Note_on_c, 0, 70, 0
2, 49680, Note_on_c, 0, 65, 0
2, 49680, Note_on_c, 0, 65, 69
2, 49680, Note_on_c, 0, 70, 69
2, 49920, Note_on_c, 0, 70, 0
2, 49920, Note_on_c, 0, 65, 0
2, 49920, Note_on_c, 0, 69, 61
2, 50030, Note_on_c, 0, 69, 0
2, 50040, Note_on_c, 0, 69, 69
2, 50040, Note_on_c, 0, 65, 49
2, 50040, Note_on_c, 0, 73, 62
2, 50280, Note_on_c, 0, 73, 0
2, 50280, Note_on_c, 0, 65, 0
2, 50280, Note_on_c, 0, 63, 54
2, 50280, Note_on_c, 0, 72, 54
2, 50370, Note_on_c, 0, 72, 0
2, 50370, Note_on_c, 0, 63, 0
2, 50400, Note_on_c, 0, 69, 0
2, 50400, Note_on_c, 0, 72, 58
2, 50400, Note_on_c, 0, 69, 49
2, 50400, Note_on_c, 0, 63, 49
2, 50760, Note_on_c, 0, 63, 0
2, 50760, Note_on_c, 0, 69, 0
2, 50760, Note_on_c, 0, 72, 0
2, 50760, Note_on_c, 0, 61, 41
2, 50760, Note_on_c, 0, 70, 49
2, 51120, Note_on_c, 0, 70, 0
2, 51120, Note_on_c, 0, 61, 0
2, 51720, Note_on_c, 0, 63, 43
2, 51720, Note_on_c, 0, 65, 43
2, 51780, Note_on_c, 0, 65, 0
2, 51780, Note_on_c, 0, 63, 0
2, 51840, Note_on_c, 0, 62, 50
2, 51840, Note_on_c, 0, 65, 50
2, 51960, Note_on_c, 0, 65, 0
2, 51960, Note_on_c, 0, 62, 0
2, 51960, Note_on_c, 0, 70, 45
2, 51960, Note_on_c, 0, 58, 45
2, 52080, Note_on_c, 0, 58, 0
2, 52080, Note_on_c, 0, 70, 0
2, 52080, Note_on_c, 0, 65, 45
2, 52080, Note_on_c, 0, 62, 45
2, 52140, Note_on_c, 0, 62, 0
2, 52140, Note_on_c, 0, 65, 0
2, 52200, Note_on_c, 0, 62, 50
2, 52200, Note_on_c, 0, 65, 50
2, 52320, Note_on_c, 0, 65, 0
2, 52320, Note_on_c, 0, 62, 0
2, 52320, Note_on_c, 0, 70, 46
2, 52320, Note_on_c, 0, 58, 46
2, 52440, Note_on_c, 0, 58, 0
2, 52440, Note_on_c, 0, 70, 0
2, 52440, Note_on_c, 0, 65, 46
2, 52440, Note_on_c, 0, 62, 46
2, 52500, Note_on_c, 0, 62, 0
2, 52500, Note_on_c, 0, 65, 0
2, 52560, Note_on_c, 0, 58, 46
2, 52560, Note_on_c, 0, 65, 46
2, 52560, Note_on_c, 0, 68, 46
2, 52920, Note_on_c, 0, 68, 0
2, 52920, Note_on_c, 0, 65, 0
2, 52920, Note_on_c, 0, 58, 0
2, 52920, Note_on_c, 0, 63, 46
2, 52920, Note_on_c, 0, 66, 46
2, 53040, Note_on_c, 0, 66, 0
2, 53040, Note_on_c, 0, 63, 0
2, 53160, Note_on_c, 0, 63, 43
2, 53160, Note_on_c, 0, 66, 43
2, 53220, Note_on_c, 0, 66, 0
2, 53220, Note_on_c, 0, 63, 0
2, 53280, Note_on_c, 0, 62, 50
2, 53280, Note_on_c, 0, 65, 50
2, 53400, Note_on_c, 0, 65, 0
2, 53400, Note_on_c, 0, 62, 0
2, 53400, Note_on_c, 0, 70, 45
2, 53400, Note_on_c, 0, 58, 45
2, 53520, Note_on_c, 0, 58, 0
2, 53520, Note_on_c, 0, 70, 0
2, 53520, Note_on_c, 0, 65, 45
2, 53520, Note_on_c, 0, 62, 45
2, 53580, Note_on_c, 0, 62, 0
2, 53580, Note_on_c, 0, 65, 0
2, 53640, Note_on_c, 0, 62, 50
2, 53640, Note_on_c, 0, 65, 50
2, 53760, Note_on_c, 0, 65, 0
2, 53760, Note_on_c, 0, 62, 0
2, 53760, Note_on_c, 0, 70, 46
2, 53760, Note_on_c, 0, 58, 46
2, 53880, Note_on_c, 0, 58, 0
2, 53880, Note_on_c, 0, 70, 0
2, 53880, Note_on_c, 0, 65, 46
2, 53880, Note_on_c, 0, 62, 46
2, 53940, Note_on_c, 0, 62, 0
2, 53940, Note_on_c, 0, 65, 0
2, 54000, Note_on_c, 0, 58, 46
2, 54000, Note_on_c, 0, 65, 46
2, 54000, Note_on_c, 0, 68, 46
2, 54360, Note_on_c, 0, 68, 0
2, 54360, Note_on_c, 0, 65, 0
2, 54360, Note_on_c, 0, 58, 0
2, 54360, Note_on_c, 0, 63, 46
2, 54360, Note_on_c, 0, 66, 46
2, 54480, Note_on_c, 0, 66, 0
2, 54480, Note_on_c, 0, 63, 0
2, 54600, Note_on_c, 0, 66, 49
2, 54600, Note_on_c, 0, 63, 49
2, 54600, Note_on_c, 0, 70, 49
2, 54660, Note_on_c, 0, 70, 0
2, 54660, Note_on_c, 0, 63, 0
2, 54660, Note_on_c, 0, 66, 0
2, 54720, Note_on_c, 0, 65, 57
2, 54720, Note_on_c, 0, 68, 57
2, 54840, Note_on_c, 0, 68, 0
2, 54840, Note_on_c, 0, 65, 0
2, 54840, Note_on_c, 0, 73, 51
2, 54840, Note_on_c, 0, 61, 51
2, 54960, Note_on_c, 0, 61, 0
2, 54960, Note_on_c, 0, 73, 0
2, 54960, Note_on_c, 0, 68, 51
2, 54960, Note_on_c, 0, 65, 51
2, 55020, Note_on_c, 0, 65, 0
2, 55020, Note_on_c, 0, 68, 0
2, 55080, Note_on_c, 0, 65, 58
2, 55080, Note_on_c, 0, 68, 58
2, 55200, Note_on_c, 0, 68, 0
2, 55200, Note_on_c, 0, 65, 0
2, 55200, Note_on_c, 0, 73, 53
2, 55200, Note_on_c, 0, 61, 53
2, 55320, Note_on_c, 0, 61, 0
2, 55320, Note_on_c, 0, 73, 0
2, 55320, Note_on_c, 0, 68, 53
2, 55320, Note_on_c, 0, 65, 53
2, 55380, Note_on_c, 0, 65, 0
2, 55380, Note_on_c, 0, 68, 0
2, 55440, Note_on_c, 0, 65, 54
2, 55440, Note_on_c, 0, 61, 54
2, 55440, Note_on_c, 0, 68, 54
2, 55440, Note_on_c, 0, 71, 54
2, 55800, Note_on_c, 0, 71, 0
2, 55800, Note_on_c, 0, 65, 0
2, 55800, Note_on_c, 0, 61, 0
2, 55800, Note_on_c, 0, 68, 0
2, 55800, Note_on_c, 0, 66, 55
2, 55800, Note_on_c, 0, 70, 55
2, 55920, Note_on_c, 0, 70, 0
2, 55920, Note_on_c, 0, 66, 0
2, 56040, Note_on_c, 0, 66, 59
2, 56040, Note_on_c, 0, 70, 59
2, 56100, Note_on_c, 0, 70, 0
2, 56100, Note_on_c, 0, 66, 0
2, 56160, Note_on_c, 0, 65, 69
2, 56160, Note_on_c, 0, 68, 69
2, 56280, Note_on_c, 0, 68, 0
2, 56280, Note_on_c, 0, 65, 0
2, 56280, Note_on_c, 0, 73, 62
2, 56280, Note_on_c, 0, 61, 62
2, 56400, Note_on_c, 0, 61, 0
2, 56400, Note_on_c, 0, 73, 0
2, 56400, Note_on_c, 0, 68, 64
2, 56400, Note_on_c, 0, 65, 64
2, 56460, Note_on_c, 0, 65, 0
2, 56460, Note_on_c, 0, 68, 0
2, 56520, Note_on_c, 0, 65, 74
2, 56520, Note_on_c, 0, 68, 74
2, 56640, Note_on_c, 0, 68, 0
2, 56640, Note_on_c, 0, 65, 0
2, 56640, Note_on_c, 0, 73, 68
2, 56640, Note_on_c, 0, 61, 68
2, 56760, Note_on_c, 0, 61, 0
2, 56760, Note_on_c, 0, 73, 0
2, 56760, Note_on_c, 0, 68, 69
2, 56760, Note_on_c, 0, 65, 69
2, 56820, Note_on_c, 0, 65, 0
2, 56820, Note_on_c, 0, 68, 0
2, 56880, Note_on_c, 0, 65, 71
2, 56880, Note_on_c, 0, 62, 71
2, 56880, Note_on_c, 0, 68, 71
2, 56880, Note_on_c, 0, 71, 71
2, 57240, Note_on_c, 0, 71, 0
2, 57240, Note_on_c, 0, 65, 0
2, 57240, Note_on_c, 0, 62, 0
2, 57240, Note_on_c, 0, 68, 0
2, 57240, Note_on_c, 0, 66, 75
2, 57240, Note_on_c, 0, 70, 75
2, 57360, Note_on_c, 0, 70, 0
2, 57360, Note_on_c, 0, 66, 0
2, 57600, Note_on_c, 0, 65, 78
2, 57600, Note_on_c, 0, 72, 78
2, 57600, Note_on_c, 0, 77, 92
2, 57957, Note_on_c, 0, 77, 0
2, 57957, Note_on_c, 0, 72, 0
2, 57957, Note_on_c, 0, 65, 0
2, 57960, Note_on_c, 0, 72, 81
2, 57960, Note_on_c, 0, 69, 69
2, 58200, Note_on_c, 0, 69, 0
2, 58200, Note_on_c, 0, 72, 0
2, 58200, Note_on_c, 0, 72, 77
2, 58200, Note_on_c, 0, 69, 64
2, 58200, Note_on_c, 0, 65, 64
2, 58260, Note_on_c, 0, 65, 0
2, 58260, Note_on_c, 0, 69, 0
2, 58260, Note_on_c, 0, 72, 0
2, 58320, Note_on_c, 0, 66, 78
2, 58320, Note_on_c, 0, 72, 78
2, 58320, Note_on_c, 0, 75, 92
2, 58560, Note_on_c, 0, 75, 0
2, 58560, Note_on_c, 0, 72, 0
2, 58560, Note_on_c, 0, 66, 0
2, 58560, Note_on_c, 0, 73, 80
2, 58560, Note_on_c, 0, 70, 67
2, 58560, Note_on_c, 0, 64, 67
2, 58680, Note_on_c, 0, 64, 0
2, 58680, Note_on_c, 0, 70, 0
2, 58680, Note_on_c, 0, 73, 0
2, 58680, Note_on_c, 0, 72, 79
2, 58680, Note_on_c, 0, 69, 66
2, 58680, Note_on_c, 0, 65, 66
2, 59040, Note_on_c, 0, 65, 0
2, 59040, Note_on_c, 0, 69, 0
2, 59040, Note_on_c, 0, 72, 0
2, 59040, Note_on_c, 0, 65, 78
2, 59040, Note_on_c, 0, 72, 78
2, 59040, Note_on_c, 0, 77, 92
2, 59397, Note_on_c, 0, 72, 0
2, 59397, Note_on_c, 0, 65, 0
2, 59397, Note_on_c, 0, 77, 0
2, 59400, Note_on_c, 0, 72, 81
2, 59400, Note_on_c, 0, 69, 69
2, 59640, Note_on_c, 0, 69, 0
2, 59640, Note_on_c, 0, 72, 0
2, 59640, Note_on_c, 0, 72, 77
2, 59640, Note_on_c, 0, 69, 64
2, 59640, Note_on_c, 0, 65, 64
2, 59700, Note_on_c, 0, 65, 0
2, 59700, Note_on_c, 0, 69, 0
2, 59700, Note_on_c, 0, 72, 0
2, 59760, Note_on_c, 0, 66, 78
2, 59760, Note_on_c, 0, 72, 78
2, 59760, Note_on_c, 0, 75, 92
2, 60000, Note_on_c, 0, 75, 0
2, 60000, Note_on_c, 0, 72, 0
2, 60000, Note_on_c, 0, 66, 0
2, 60000, Note_on_c, 0, 73, 80
2, 60000, Note_on_c, 0, 70, 67
2, 60000, Note_on_c, 0, 64, 67
2, 60120, Note_on_c, 0, 64, 0
2, 60120, Note_on_c, 0, 70, 0
2, 60120, Note_on_c, 0, 73, 0
2, 60120, Note_on_c, 0, 72, 79
2, 60120, Note_on_c, 0, 69, 66
2, 60120, Note_on_c, 0, 65, 66
2, 60480, Note_on_c, 0, 65, 0
2, 60480, Note_on_c, 0, 69, 0
2, 60480, Note_on_c, 0, 72, 0
2, 60480, Note_on_c, 0, 65, 78
2, 60480, Note_on_c, 0, 72, 78
2, 60480, Note_on_c, 0, 77, 92
2, 60837, Note_on_c, 0, 77, 0
2, 60837, Note_on_c, 0, 72, 0
2, 60837, Note_on_c, 0, 65, 0
2, 60840, Note_on_c, 0, 72, 76
2, 60840, Note_on_c, 0, 69, 64
2, 61080, Note_on_c, 0, 69, 0
2, 61080, Note_on_c, 0, 72, 0
2, 61080, Note_on_c, 0, 72, 69
2, 61080, Note_on_c, 0, 69, 57
2, 61080, Note_on_c, 0, 65, 57
2, 61140, Note_on_c, 0, 65, 0
2, 61140, Note_on_c, 0, 69, 0
2, 61140, Note_on_c, 0, 72, 0
2, 61200, Note_on_c, 0, 66, 68
2, 61200, Note_on_c, 0, 75, 80
2, 61440, Note_on_c, 0, 75, 0
2, 61440, Note_on_c, 0, 66, 0
2, 61440, Note_on_c, 0, 73, 63
2, 61440, Note_on_c, 0, 65, 53
2, 61560, Note_on_c, 0, 65, 0
2, 61560, Note_on_c, 0, 73, 0
2, 61560, Note_on_c, 0, 66, 51
2, 61560, Note_on_c, 0, 72, 60
2, 61560, Note_on_c, 0, 63, 51
2, 61800, Note_on_c, 0, 63, 0
2, 61800, Note_on_c, 0, 72, 0
2, 61800, Note_on_c, 0, 66, 0
2, 61800, Note_on_c, 0, 61, 49
2, 61800, Note_on_c, 0, 65, 49
2, 61800, Note_on_c, 0, 70, 58
2, 61920, Note_on_c, 0, 70, 0
2, 61920, Note_on_c, 0, 65, 0
2, 61920, Note_on_c, 0, 61, 0
2, 61920, Note_on_c, 0, 63, 55
2, 61920, Note_on_c, 0, 60, 55
2, 61920, Note_on_c, 0, 68, 65
2, 62160, Note_on_c, 0, 68, 0
2, 62160, Note_on_c, 0, 60, 0
2, 62160, Note_on_c, 0, 63, 0
2, 62160, Note_on_c, 0, 58, 46
2, 62160, Note_on_c, 0, 66, 54
2, 62160, Note_on_c, 0, 61, 46
2, 62280, Note_on_c, 0, 61, 0
2, 62280, Note_on_c, 0, 66, 0
2, 62280, Note_on_c, 0, 58, 0
2, 62280, Note_on_c, 0, 60, 44
2, 62280, Note_on_c, 0, 65, 52
2, 62280, Note_on_c, 0, 57, 44
2, 62520, Note_on_c, 0, 57, 0
2, 62520, Note_on_c, 0, 65, 0
2, 62520, Note_on_c, 0, 60, 0
2, 62520, Note_on_c, 0, 58, 42
2, 62520, Note_on_c, 0, 55, 42
2, 62520, Note_on_c, 0, 64, 50
2, 62610, Note_on_c, 0, 64, 0
2, 62610, Note_on_c, 0, 55, 0
2, 62610, Note_on_c, 0, 58, 0
2, 62640, Note_on_c, 0, 55, 37
2, 62640, Note_on_c, 0, 58, 37
2, 62640, Note_on_c, 0, 64, 45
2, 63000, Note_on_c, 0, 64, 0
2, 63000, Note_on_c, 0, 58, 0
2, 63000, Note_on_c, 0, 55, 0
2, 63000, Note_on_c, 0, 57, 37
2, 63000, Note_on_c, 0, 65, 45
2, 63360, Note_on_c, 0, 65, 0
2, 63360, Note_on_c, 0, 57, 0
2, 63960, Note_on_c, 0, 73, 43
2, 63960, Note_on_c, 0, 77, 43
2, 64020, Note_on_c, 0, 77, 0
2, 64020, Note_on_c, 0, 73, 0
2, 64080, Note_on_c, 0, 65, 40
2, 64080, Note_on_c, 0, 73, 50
2, 64080, Note_on_c, 0, 77, 50
2, 64200, Note_on_c, 0, 77, 0
2, 64200, Note_on_c, 0, 73, 0
2, 64200, Note_on_c, 0, 73, 45
2, 64200, Note_on_c, 0, 70, 45
2, 64320, Note_on_c, 0, 70, 0
2, 64320, Note_on_c, 0, 73, 0
2, 64320, Note_on_c, 0, 65, 0
2, 64320, Note_on_c, 0, 77, 45
2, 64320, Note_on_c, 0, 73, 45
2, 64380, Note_on_c, 0, 73, 0
2, 64380, Note_on_c, 0, 77, 0
2, 64440, Note_on_c, 0, 65, 40
2, 64440, Note_on_c, 0, 73, 50
2, 64440, Note_on_c, 0, 77, 50
2, 64560, Note_on_c, 0, 77, 0
2, 64560, Note_on_c, 0, 73, 0
2, 64560, Note_on_c, 0, 73, 46
2, 64560, Note_on_c, 0, 70, 46
2, 64680, Note_on_c, 0, 70, 0
2, 64680, Note_on_c, 0, 73, 0
2, 64680, Note_on_c, 0, 65, 0
2, 64680, Note_on_c, 0, 77, 46
2, 64680, Note_on_c, 0, 73, 46
2, 64740, Note_on_c, 0, 73, 0
2, 64740, Note_on_c, 0, 77, 0
2, 64800, Note_on_c, 0, 65, 40
2, 64800, Note_on_c, 0, 73, 50
2, 64800, Note_on_c, 0, 77, 50
2, 64920, Note_on_c, 0, 77, 0
2, 64920, Note_on_c, 0, 73, 0
2, 64920, Note_on_c, 0, 73, 45
2, 64920, Note_on_c, 0, 70, 45
2, 65040, Note_on_c, 0, 70, 0
2, 65040, Note_on_c, 0, 73, 0
2, 65040, Note_on_c, 0, 65, 0
2, 65040, Note_on_c, 0, 77, 45
2, 65040, Note_on_c, 0, 73, 45
2, 65100, Note_on_c, 0, 73, 0
2, 65100, Note_on_c, 0, 77, 0
2, 65160, Note_on_c, 0, 65, 40
2, 65160, Note_on_c, 0, 73, 50
2, 65160, Note_on_c, 0, 77, 50
2, 65280, Note_on_c, 0, 77, 0
2, 65280, Note_on_c, 0, 73, 0
2, 65280, Note_on_c, 0, 73, 46
2, 65280, Note_on_c, 0, 70, 46
2, 65400, Note_on_c, 0, 70, 0
2, 65400, Note_on_c, 0, 73, 0
2, 65400, Note_on_c, 0, 65, 0
2, 65400, Note_on_c, 0, 77, 46
2, 65400, Note_on_c, 0, 73, 46
2, 65460, Note_on_c, 0, 73, 0
2, 65460, Note_on_c, 0, 77, 0
2, 65520, Note_on_c, 0, 66, 71
2, 65520, Note_on_c, 0, 73, 50
2, 65640, Note_on_c, 0, 73, 0
2, 65640, Note_on_c, 0, 70, 45
2, 65760, Note_on_c, 0, 70, 0
2, 65760, Note_on_c, 0, 73, 45
2, 65820, Note_on_c, 0, 73, 0
2, 65880, Note_on_c, 0, 73, 50
2, 66000, Note_on_c, 0, 73, 0
2, 66000, Note_on_c, 0, 70, 46
2, 66120, Note_on_c, 0, 70, 0
2, 66120, Note_on_c, 0, 66, 0
2, 66120, Note_on_c, 0, 65, 60
2, 66120, Note_on_c, 0, 73, 46
2, 66180, Note_on_c, 0, 73, 0
2, 66240, Note_on_c, 0, 65, 0
2, 66240, Note_on_c, 0, 64, 72
2, 66240, Note_on_c, 0, 73, 50
2, 66360, Note_on_c, 0, 73, 0
2, 66360, Note_on_c, 0, 70, 45
2, 66480, Note_on_c, 0, 70, 0
2, 66480, Note_on_c, 0, 73, 45
2, 66540, Note_on_c, 0, 73, 0
2, 66600, Note_on_c, 0, 73, 50
2, 66720, Note_on_c, 0, 73, 0
2, 66720, Note_on_c, 0, 70, 46
2, 66780, Note_on_c, 0, 64, 0
2, 66840, Note_on_c, 0, 70, 0
2, 66840, Note_on_c, 0, 73, 61
2, 66840, Note_on_c, 0, 64, 60
2, 66900, Note_on_c, 0, 73, 0
2, 66960, Note_on_c, 0, 64, 0
2, 66960, Note_on_c, 0, 65, 75
2, 67080, Note_on_c, 0, 60, 54
2, 67080, Note_on_c, 0, 63, 54
2, 67140, Note_on_c, 0, 63, 0
2, 67140, Note_on_c, 0, 60, 0
2, 67200, Note_on_c, 0, 60, 54
2, 67200, Note_on_c, 0, 63, 54
2, 67260, Note_on_c, 0, 63, 0
2, 67260, Note_on_c, 0, 60, 0
2, 67320, Note_on_c, 0, 60, 54
2, 67320, Note_on_c, 0, 63, 54
2, 67380, Note_on_c, 0, 63, 0
2, 67380, Note_on_c, 0, 60, 0
2, 67440, Note_on_c, 0, 65, 0
2, 67440, Note_on_c, 0, 58, 54
2, 67440, Note_on_c, 0, 67, 56
2, 67500, Note_on_c, 0, 67, 0
2, 67500, Note_on_c, 0, 58, 0
2, 67560, Note_on_c, 0, 60, 54
2, 67560, Note_on_c, 0, 69, 61
2, 67620, Note_on_c, 0, 69, 0
2, 67620, Note_on_c, 0, 60, 0
2, 67620, Note_on_c, 0, 72, 64
2, 67680, Note_on_c, 0, 72, 0
2, 67680, Note_on_c, 0, 61, 61
2, 67680, Note_on_c, 0, 70, 73
2, 67740, Note_on_c, 0, 70, 0
2, 67740, Note_on_c, 0, 61, 0
2, 67800, Note_on_c, 0, 60, 54
2, 67800, Note_on_c, 0, 69, 63
2, 67860, Note_on_c, 0, 69, 0
2, 67860, Note_on_c, 0, 60, 0
2, 67920, Note_on_c, 0, 61, 53
2, 67920, Note_on_c, 0, 70, 63
2, 67980, Note_on_c, 0, 70, 0
2, 67980, Note_on_c, 0, 61, 0
2, 68040, Note_on_c, 0, 65, 60
2, 68040, Note_on_c, 0, 73, 71
2, 68100, Note_on_c, 0, 73, 0
2, 68100, Note_on_c, 0, 65, 0
2, 68160, Note_on_c, 0, 63, 53
2, 68160, Note_on_c, 0, 72, 63
2, 68220, Note_on_c, 0, 72, 0
2, 68220, Note_on_c, 0, 63, 0
2, 68280, Note_on_c, 0, 61, 58
2, 68280, Note_on_c, 0, 70, 70
2, 68340, Note_on_c, 0, 70, 0
2, 68340, Note_on_c, 0, 61, 0
2, 68400, Note_on_c, 0, 61, 70
2, 68400, Note_on_c, 0, 70, 82
2, 68760, Note_on_c, 0, 64, 66
2, 69120, Note_on_c, 0, 64, 0
2, 69120, Note_on_c, 0, 70, 0
2, 69120, Note_on_c, 0, 61, 0
2, 69120, Note_on_c, 0, 60, 67
2, 69120, Note_on_c, 0, 65, 67
2, 69120, Note_on_c, 0, 69, 80
2, 69480, Note_on_c, 0, 69, 0
2, 69480, Note_on_c, 0, 65, 0
2, 69480, Note_on_c, 0, 60, 0
2, 69840, Note_on_c, 0, 70, 62
2, 69840, Note_on_c, 0, 65, 52
2, 70200, Note_on_c, 0, 70, 0
2, 70200, Note_on_c, 0, 68, 55
2, 70430, Note_on_c, 0, 68, 0
2, 70440, Note_on_c, 0, 68, 55
2, 70560, Note_on_c, 0, 68, 0
2, 70560, Note_on_c, 0, 65, 0
2, 70560, Note_on_c, 0, 66, 62
2, 70560, Note_on_c, 0, 63, 52
2, 70920, Note_on_c, 0, 66, 0
2, 70920, Note_on_c, 0, 67, 55
2, 71280, Note_on_c, 0, 67, 0
2, 71280, Note_on_c, 0, 63, 0
2, 71280, Note_on_c, 0, 70, 68
2, 71280, Note_on_c, 0, 82, 80
2, 71280, Note_on_c, 0, 77, 68
2, 71640, Note_on_c, 0, 82, 0
2, 71640, Note_on_c, 0, 70, 0
2, 71640, Note_on_c, 0, 68, 60
2, 71640, Note_on_c, 0, 80, 71
2, 71870, Note_on_c, 0, 80, 0
2, 71870, Note_on_c, 0, 68, 0
2, 71880, Note_on_c, 0, 68, 60
2, 71880, Note_on_c, 0, 80, 71
2, 72000, Note_on_c, 0, 80, 0
2, 72000, Note_on_c, 0, 68, 0
2, 72000, Note_on_c, 0, 77, 0
2, 72000, Note_on_c, 0, 67, 68
2, 72000, Note_on_c, 0, 79, 80
2, 72000, Note_on_c, 0, 75, 68
2, 72360, Note_on_c, 0, 79, 0
2, 72360, Note_on_c, 0, 67, 0
2, 72360, Note_on_c, 0, 66, 60
2, 72360, Note_on_c, 0, 78, 71
2, 72600, Note_on_c, 0, 78, 0
2, 72600, Note_on_c, 0, 66, 0
2, 72600, Note_on_c, 0, 67, 60
2, 72600, Note_on_c, 0, 79, 71
2, 72690, Note_on_c, 0, 79, 0
2, 72690, Note_on_c, 0, 67, 0
2, 72720, Note_on_c, 0, 75, 0
2, 72720, Note_on_c, 0, 67, 72
2, 72720, Note_on_c, 0, 70, 72
2, 72720, Note_on_c, 0, 79, 85
2, 72780, Note_on_c, 0, 79, 0
2, 72780, Note_on_c, 0, 70, 0
2, 72780, Note_on_c, 0, 67, 0
2, 72840, Note_on_c, 0, 67, 61
2, 72840, Note_on_c, 0, 70, 61
2, 72840, Note_on_c, 0, 77, 72
2, 72900, Note_on_c, 0, 77, 0
2, 72900, Note_on_c, 0, 70, 0
2, 72900, Note_on_c, 0, 67, 0
2, 72960, Note_on_c, 0, 76, 69
2, 72960, Note_on_c, 0, 70, 58
2, 72960, Note_on_c, 0, 67, 58
2, 73020, Note_on_c, 0, 67, 0
2, 73020, Note_on_c, 0, 70, 0
2, 73020, Note_on_c, 0, 76, 0
2, 73080, Note_on_c, 0, 76, 78
2, 73080, Note_on_c, 0, 70, 66
2, 73080, Note_on_c, 0, 67, 66
2, 73140, Note_on_c, 0, 67, 0
2, 73140, Note_on_c, 0, 70, 0
2, 73140, Note_on_c, 0, 76, 0
2, 73200, Note_on_c, 0, 67, 60
2, 73200, Note_on_c, 0, 70, 60
2, 73200, Note_on_c, 0, 74, 71
2, 73260, Note_on_c, 0, 74, 0
2, 73260, Note_on_c, 0, 70, 0
2, 73260, Note_on_c, 0, 67, 0
2, 73320, Note_on_c, 0, 67, 60
2, 73320, Note_on_c, 0, 70, 60
2, 73320, Note_on_c, 0, 72, 71
2, 73380, Note_on_c, 0, 72, 0
2, 73380, Note_on_c, 0, 70, 0
2, 73380, Note_on_c, 0, 67, 0
2, 73440, Note_on_c, 0, 72, 79
2, 73440, Note_on_c, 0, 69, 67
2, 73440, Note_on_c, 0, 65, 67
2, 73798, Note_on_c, 0, 65, 0
2, 73800, Note_on_c, 0, 69, 0
2, 73800, Note_on_c, 0, 72, 0
2, 73800, Note_on_c, 0, 74, 67
2, 73800, Note_on_c, 0, 70, 56
2, 73800, Note_on_c, 0, 65, 56
2, 74038, Note_on_c, 0, 65, 0
2, 74038, Note_on_c, 0, 70, 0
2, 74038, Note_on_c, 0, 74, 0
2, 74040, Note_on_c, 0, 65, 52
2, 74040, Note_on_c, 0, 70, 52
2, 74040, Note_on_c, 0, 74, 62
2, 74160, Note_on_c, 0, 74, 0
2, 74160, Note_on_c, 0, 70, 0
2, 74160, Note_on_c, 0, 65, 0
2, 74160, Note_on_c, 0, 75, 79
2, 74160, Note_on_c, 0, 70, 67
2, 74160, Note_on_c, 0, 67, 67
2, 74520, Note_on_c, 0, 67, 0
2, 74520, Note_on_c, 0, 70, 0
2, 74520, Note_on_c, 0, 75, 0
2, 74520, Note_on_c, 0, 72, 67
2, 74520, Note_on_c, 0, 69, 56
2, 74758, Note_on_c, 0, 69, 0
2, 74758, Note_on_c, 0, 72, 0
2, 74760, Note_on_c, 0, 65, 52
2, 74760, Note_on_c, 0, 69, 52
2, 74760, Note_on_c, 0, 72, 62
2, 74880, Note_on_c, 0, 72, 0
2, 74880, Note_on_c, 0, 69, 0
2, 74880, Note_on_c, 0, 65, 0
2, 74880, Note_on_c, 0, 77, 82
2, 75000, Note_on_c, 0, 65, 55
2, 75000, Note_on_c, 0, 70, 55
2, 75060, Note_on_c, 0, 70, 0
2, 75060, Note_on_c, 0, 65, 0
2, 75120, Note_on_c, 0, 65, 56
2, 75120, Note_on_c, 0, 70, 56
2, 75180, Note_on_c, 0, 70, 0
2, 75180, Note_on_c, 0, 65, 0
2, 75240, Note_on_c, 0, 70, 64
2, 75240, Note_on_c, 0, 65, 64
2, 75300, Note_on_c, 0, 65, 0
2, 75300, Note_on_c, 0, 70, 0
2, 75360, Note_on_c, 0, 65, 57
2, 75360, Note_on_c, 0, 70, 57
2, 75420, Note_on_c, 0, 70, 0
2, 75420, Note_on_c, 0, 65, 0
2, 75480, Note_on_c, 0, 65, 58
2, 75480, Note_on_c, 0, 70, 58
2, 75540, Note_on_c, 0, 70, 0
2, 75540, Note_on_c, 0, 65, 0
2, 75600, Note_on_c, 0, 77, 0
2, 75600, Note_on_c, 0, 68, 60
2, 75600, Note_on_c, 0, 70, 60
2, 75600, Note_on_c, 0, 78, 90
2, 75660, Note_on_c, 0, 70, 0
2, 75660, Note_on_c, 0, 68, 0
2, 75720, Note_on_c, 0, 68, 60
2, 75720, Note_on_c, 0, 70, 60
2, 75780, Note_on_c, 0, 70, 0
2, 75780, Note_on_c, 0, 68, 0
2, 75840, Note_on_c, 0, 68, 61
2, 75840, Note_on_c, 0, 70, 61
2, 75900, Note_on_c, 0, 70, 0
2, 75900, Note_on_c, 0, 68, 0
2, 75960, Note_on_c, 0, 70, 70
2, 75960, Note_on_c, 0, 68, 70
2, 76020, Note_on_c, 0, 68, 0
2, 76020, Note_on_c, 0, 70, 0
2, 76080, Note_on_c, 0, 68, 62
2, 76080, Note_on_c, 0, 70, 62
2, 76140, Note_on_c, 0, 70, 0
2, 76140, Note_on_c, 0, 68, 0
2, 76200, Note_on_c, 0, 68, 63
2, 76200, Note_on_c, 0, 70, 63
2, 76260, Note_on_c, 0, 70, 0
2, 76260, Note_on_c, 0, 68, 0
2, 76320, Note_on_c, 0, 78, 0
2, 76320, Note_on_c, 0, 67, 65
2, 76320, Note_on_c, 0, 70, 65
2, 76320, Note_on_c, 0, 79, 98
2, 76380, Note_on_c, 0, 70, 0
2, 76380, Note_on_c, 0, 67, 0
2, 76440, Note_on_c, 0, 67, 65
2, 76440, Note_on_c, 0, 70, 65
2, 76500, Note_on_c, 0, 70, 0
2, 76500, Note_on_c, 0, 67, 0
2, 76560, Note_on_c, 0, 67, 65
2, 76560, Note_on_c, 0, 70, 65
2, 76620, Note_on_c, 0, 70, 0
2, 76620, Note_on_c, 0, 67, 0
2, 76680, Note_on_c, 0, 70, 73
2, 76680, Note_on_c, 0, 67, 73
2, 76740, Note_on_c, 0, 67, 0
2, 76740, Note_on_c, 0, 70, 0
2, 76800, Note_on_c, 0, 67, 65
2, 76800, Note_on_c, 0, 70, 65
2, 76860, Note_on_c, 0, 70, 0
2, 76860, Note_on_c, 0, 67, 0
2, 76920, Note_on_c, 0, 67, 65
2, 76920, Note_on_c, 0, 70, 65
2, 76980, Note_on_c, 0, 70, 0
2, 76980, Note_on_c, 0, 67, 0
2, 77040, Note_on_c, 0, 79, 0
2, 77040, Note_on_c, 0, 67, 72
2, 77040, Note_on_c, 0, 70, 72
2, 77040, Note_on_c, 0, 79, 85
2, 77100, Note_on_c, 0, 79, 0
2, 77100, Note_on_c, 0, 70, 0
2, 77100, Note_on_c, 0, 67, 0
2, 77160, Note_on_c, 0, 67, 61
2, 77160, Note_on_c, 0, 70, 61
2, 77160, Note_on_c, 0, 77, 72
2, 77220, Note_on_c, 0, 77, 0
2, 77220, Note_on_c, 0, 70, 0
2, 77220, Note_on_c, 0, 67, 0
2, 77280, Note_on_c, 0, 76, 69
2, 77280, Note_on_c, 0, 70, 58
2, 77280, Note_on_c, 0, 67, 58
2, 77340, Note_on_c, 0, 67, 0
2, 77340, Note_on_c, 0, 70, 0
2, 77340, Note_on_c, 0, 76, 0
2, 77400, Note_on_c, 0, 76, 78
2, 77400, Note_on_c, 0, 70, 66
2, 77400, Note_on_c, 0, 67, 66
2, 77460, Note_on_c, 0, 67, 0
2, 77460, Note_on_c, 0, 70, 0
2, 77460, Note_on_c, 0, 76, 0
2, 77520, Note_on_c, 0, 67, 60
2, 77520, Note_on_c, 0, 70, 60
2, 77520, Note_on_c, 0, 74, 71
2, 77580, Note_on_c, 0, 74, 0
2, 77580, Note_on_c, 0, 70, 0
2, 77580, Note_on_c, 0, 67, 0
2, 77640, Note_on_c, 0, 67, 60
2, 77640, Note_on_c, 0, 70, 60
2, 77640, Note_on_c, 0, 72, 71
2, 77700, Note_on_c, 0, 72, 0
2, 77700, Note_on_c, 0, 70, 0
2, 77700, Note_on_c, 0, 67, 0
2, 77760, Note_on_c, 0, 72, 79
2, 77880, Note_on_c, 0, 65, 56
2, 77880, Note_on_c, 0, 69, 56
2, 77940, Note_on_c, 0, 69, 0
2, 77940, Note_on_c, 0, 65, 0
2, 78000, Note_on_c, 0, 65, 56
2, 78000, Note_on_c, 0, 69, 56
2, 78060, Note_on_c, 0, 69, 0
2, 78060, Note_on_c, 0, 65, 0
2, 78120, Note_on_c, 0, 72, 0
2, 78120, Note_on_c, 0, 74, 67
2, 78240, Note_on_c, 0, 65, 47
2, 78240, Note_on_c, 0, 70, 47
2, 78300, Note_on_c, 0, 70, 0
2, 78300, Note_on_c, 0, 65, 0
2, 78360, Note_on_c, 0, 74, 0
2, 78360, Note_on_c, 0, 65, 52
2, 78360, Note_on_c, 0, 70, 52
2, 78360, Note_on_c, 0, 74, 62
2, 78480, Note_on_c, 0, 74, 0
2, 78480, Note_on_c, 0, 70, 0
2, 78480, Note_on_c, 0, 65, 0
2, 78480, Note_on_c, 0, 77, 79
2, 78600, Note_on_c, 0, 67, 56
2, 78600, Note_on_c, 0, 70, 56
2, 78660, Note_on_c, 0, 70, 0
2, 78660, Note_on_c, 0, 67, 0
2, 78720, Note_on_c, 0, 67, 56
2, 78720, Note_on_c, 0, 70, 56
2, 78780, Note_on_c, 0, 70, 0
2, 78780, Note_on_c, 0, 67, 0
2, 78840, Note_on_c, 0, 77, 0
2, 78840, Note_on_c, 0, 75, 67
2, 78960, Note_on_c, 0, 65, 47
2, 78960, Note_on_c, 0, 69, 47
2, 79020, Note_on_c, 0, 69, 0
2, 79020, Note_on_c, 0, 65, 0
2, 79080, Note_on_c, 0, 75, 0
2, 79080, Note_on_c, 0, 72, 49
2, 79080, Note_on_c, 0, 69, 41
2, 79080, Note_on_c, 0, 65, 41
2, 79200, Note_on_c, 0, 65, 0
2, 79200, Note_on_c, 0, 69, 0
2, 79200, Note_on_c, 0, 72, 0
2, 79200, Note_on_c, 0, 70, 61
2, 79320, Note_on_c, 0, 65, 49
2, 79380, Note_on_c, 0, 65, 0
2, 79440, Note_on_c, 0, 65, 49
2, 79500, Note_on_c, 0, 65, 0
2, 79560, Note_on_c, 0, 70, 0
2, 79800, Note_on_c, 0, 65, 47
2, 79860, Note_on_c, 0, 65, 0
2, 79920, Note_on_c, 0, 60, 55
2, 79920, Note_on_c, 0, 65, 55
2, 80040, Note_on_c, 0, 65, 0
2, 80040, Note_on_c, 0, 60, 0
2, 80040, Note_on_c, 0, 63, 50
2, 80040, Note_on_c, 0, 53, 50
2, 80160, Note_on_c, 0, 53, 0
2, 80160, Note_on_c, 0, 63, 0
2, 80160, Note_on_c, 0, 65, 50
2, 80160, Note_on_c, 0, 60, 50
2, 80220, Note_on_c, 0, 60, 0
2, 80220, Note_on_c, 0, 65, 0
2, 80280, Note_on_c, 0, 60, 57
2, 80280, Note_on_c, 0, 65, 57
2, 80400, Note_on_c, 0, 65, 0
2, 80400, Note_on_c, 0, 60, 0
2, 80400, Note_on_c, 0, 63, 54
2, 80400, Note_on_c, 0, 53, 54
2, 80520, Note_on_c, 0, 53, 0
2, 80520, Note_on_c, 0, 63, 0
2, 80520, Note_on_c, 0, 65, 54
2, 80520, Note_on_c, 0, 60, 54
2, 80580, Note_on_c, 0, 60, 0
2, 80580, Note_on_c, 0, 65, 0
2, 80640, Note_on_c, 0, 58, 60
2, 80640, Note_on_c, 0, 65, 60
2, 80760, Note_on_c, 0, 65, 0
2, 80760, Note_on_c, 0, 58, 0
2, 80760, Note_on_c, 0, 62, 55
2, 80760, Note_on_c, 0, 53, 55
2, 80880, Note_on_c, 0, 53, 0
2, 80880, Note_on_c, 0, 62, 0
2, 80880, Note_on_c, 0, 65, 56
2, 80880, Note_on_c, 0, 58, 56
2, 80940, Note_on_c, 0, 58, 0
2, 80940, Note_on_c, 0, 65, 0
2, 81000, Note_on_c, 0, 58, 64
2, 81000, Note_on_c, 0, 65, 64
2, 81120, Note_on_c, 0, 65, 0
2, 81120, Note_on_c, 0, 58, 0
2, 81120, Note_on_c, 0, 62, 59
2, 81120, Note_on_c, 0, 53, 59
2, 81240, Note_on_c, 0, 53, 0
2, 81240, Note_on_c, 0, 62, 0
2, 81240, Note_on_c, 0, 65, 60
2, 81240, Note_on_c, 0, 58, 60
2, 81300, Note_on_c, 0, 58, 0
2, 81300, Note_on_c, 0, 65, 0
2, 81360, Note_on_c, 0, 60, 66
2, 81360, Note_on_c, 0, 65, 66
2, 81480, Note_on_c, 0, 65, 0
2, 81480, Note_on_c, 0, 60, 0
2, 81480, Note_on_c, 0, 63, 61
2, 81480, Note_on_c, 0, 53, 61
2, 81600, Note_on_c, 0, 53, 0
2, 81600, Note_on_c, 0, 63, 0
2, 81600, Note_on_c, 0, 65, 61
2, 81600, Note_on_c, 0, 60, 61
2, 81660, Note_on_c, 0, 60, 0
2, 81660, Note_on_c, 0, 65, 0
2, 81720, Note_on_c, 0, 60, 69
2, 81720, Note_on_c, 0, 65, 69
2, 81840, Note_on_c, 0, 65, 0
2, 81840, Note_on_c, 0, 60, 0
2, 81840, Note_on_c, 0, 63, 64
2, 81840, Note_on_c, 0, 53, 64
2, 81960, Note_on_c, 0, 53, 0
2, 81960, Note_on_c, 0, 63, 0
2, 81960, Note_on_c, 0, 65, 66
2, 81960, Note_on_c, 0, 60, 66
2, 82020, Note_on_c, 0, 60, 0
2, 82020, Note_on_c, 0, 65, 0
2, 82080, Note_on_c, 0, 58, 73
2, 82080, Note_on_c, 0, 65, 73
2, 82200, Note_on_c, 0, 65, 0
2, 82200, Note_on_c, 0, 58, 0
2, 82200, Note_on_c, 0, 62, 66
2, 82200, Note_on_c, 0, 53, 66
2, 82320, Note_on_c, 0, 53, 0
2, 82320, Note_on_c, 0, 62, 0
2, 82320, Note_on_c, 0, 65, 67
2, 82320, Note_on_c, 0, 58, 67
2, 82380, Note_on_c, 0, 58, 0
2, 82380, Note_on_c, 0, 65, 0
2, 82440, Note_on_c, 0, 58, 76
2, 82440, Note_on_c, 0, 65, 76
2, 82560, Note_on_c, 0, 65, 0
2, 82560, Note_on_c, 0, 58, 0
2, 82560, Note_on_c, 0, 62, 71
2, 82560, Note_on_c, 0, 53, 71
2, 82680, Note_on_c, 0, 53, 0
2, 82680, Note_on_c, 0, 62, 0
2, 82680, Note_on_c, 0, 65, 71
2, 82680, Note_on_c, 0, 58, 71
2, 82740, Note_on_c, 0, 58, 0
2, 82740, Note_on_c, 0, 65, 0
2, 82800, Note_on_c, 0, 65, 88
2, 82800, Note_on_c, 0, 60, 74
2, 83160, Note_on_c, 0, 60, 0
2, 83160, Note_on_c, 0, 65, 0
2, 83160, Note_on_c, 0, 70, 91
2, 83160, Note_on_c, 0, 58, 77
2, 83520, Note_on_c, 0, 58, 0
2, 83520, Note_on_c, 0, 70, 0
2, 83520, Note_on_c, 0, 69, 94
2, 83520, Note_on_c, 0, 57, 79
2, 83880, Note_on_c, 0, 57, 0
2, 83880, Note_on_c, 0, 69, 0
2, 83880, Note_on_c, 0, 74, 97
2, 83880, Note_on_c, 0, 62, 82
2, 84240, Note_on_c, 0, 62, 0
2, 84240, Note_on_c, 0, 74, 0
2, 84240, Note_on_c, 0, 72, 100
2, 84240, Note_on_c, 0, 60, 85
2, 84600, Note_on_c, 0, 60, 0
2, 84600, Note_on_c, 0, 72, 0
2, 84600, Note_on_c, 0, 75, 103
2, 84600, Note_on_c, 0, 63, 87
2, 85080, Note_on_c, 0, 63, 0
2, 85080, Note_on_c, 0, 75, 0
2, 85080, Note_on_c, 0, 74, 86
2, 85080, Note_on_c, 0, 63, 73
2, 85170, Note_on_c, 0, 63, 0
2, 85170, Note_on_c, 0, 74, 0
2, 85200, Note_on_c, 0, 72, 86
2, 85200, Note_on_c, 0, 63, 73
2, 85290, Note_on_c, 0, 63, 0
2, 85290, Note_on_c, 0, 72, 0
2, 85320, Note_on_c, 0, 63, 79
2, 85320, Note_on_c, 0, 72, 93
2, 85410, Note_on_c, 0, 72, 0
2, 85410, Note_on_c, 0, 63, 0
2, 85440, Note_on_c, 0, 70, 88
2, 85440, Note_on_c, 0, 63, 74
2, 85530, Note_on_c, 0, 63, 0
2, 85530, Note_on_c, 0, 70, 0
2, 85560, Note_on_c, 0, 69, 88
2, 85560, Note_on_c, 0, 63, 74
2, 85650, Note_on_c, 0, 63, 0
2, 85650, Note_on_c, 0, 69, 0
2, 85680, Note_on_c, 0, 63, 79
2, 85680, Note_on_c, 0, 69, 93
2, 85770, Note_on_c, 0, 69, 0
2, 85770, Note_on_c, 0, 63, 0
2, 85800, Note_on_c, 0, 67, 86
2, 85800, Note_on_c, 0, 63, 73
2, 85890, Note_on_c, 0, 63, 0
2, 85890, Note_on_c, 0, 67, 0
2, 85920, Note_on_c, 0, 65, 86
2, 85920, Note_on_c, 0, 63, 73
2, 86010, Note_on_c, 0, 63, 0
2, 86010, Note_on_c, 0, 65, 0
2, 86040, Note_on_c, 0, 60, 79
2, 86040, Note_on_c, 0, 65, 93
2, 86130, Note_on_c, 0, 65, 0
2, 86130, Note_on_c, 0, 60, 0
2, 86160, Note_on_c, 0, 64, 86
2, 86160, Note_on_c, 0, 60, 73
2, 86250, Note_on_c, 0, 60, 0
2, 86250, Note_on_c, 0, 64, 0
2, 86280, Note_on_c, 0, 63, 86
2, 86280, Note_on_c, 0, 60, 73
2, 86370, Note_on_c, 0, 60, 0
2, 86370, Note_on_c, 0, 63, 0
2, 86400, Note_on_c, 0, 57, 79
2, 86400, Note_on_c, 0, 63, 93
2, 86490, Note_on_c, 0, 63, 0
2, 86490, Note_on_c, 0, 57, 0
2, 86520, Note_on_c, 0, 62, 88
2, 86520, Note_on_c, 0, 57, 74
2, 86610, Note_on_c, 0, 57, 0
2, 86610, Note_on_c, 0, 62, 0
2, 86640, Note_on_c, 0, 60, 86
2, 86640, Note_on_c, 0, 57, 73
2, 86730, Note_on_c, 0, 57, 0
2, 86730, Note_on_c, 0, 60, 0
2, 86760, Note_on_c, 0, 57, 79
2, 86760, Note_on_c, 0, 60, 93
2, 86850, Note_on_c, 0, 60, 0
2, 86850, Note_on_c, 0, 57, 0
2, 86880, Note_on_c, 0, 58, 85
2, 86970, Note_on_c, 0, 58, 0
2, 87000, Note_on_c, 0, 57, 85
2, 87090, Note_on_c, 0, 57, 0
2, 87120, Note_on_c, 0, 58, 93
2, 87300, Note_on_c, 0, 58, 0
2, 87480, Note_on_c, 0, 53, 79
2, 87480, Note_on_c, 0, 58, 79
2, 87480, Note_on_c, 0, 62, 93
2, 87660, Note_on_c, 0, 62, 0
2, 87660, Note_on_c, 0, 58, 0
2, 87660, Note_on_c, 0, 53, 0
2, 87840, Note_on_c, 0, 58, 79
2, 87840, Note_on_c, 0, 62, 79
2, 87840, Note_on_c, 0, 65, 93
2, 88020, Note_on_c, 0, 65, 0
2, 88020, Note_on_c, 0, 62, 0
2, 88020, Note_on_c, 0, 58, 0
2, 88200, Note_on_c, 0, 62, 79
2, 88200, Note_on_c, 0, 65, 79
2, 88200, Note_on_c, 0, 70, 93
2, 88380, Note_on_c, 0, 70, 0
2, 88380, Note_on_c, 0, 65, 0
2, 88380, Note_on_c, 0, 62, 0
2, 88560, Note_on_c, 0, 62, 79
2, 88560, Note_on_c, 0, 65, 79
2, 88560, Note_on_c, 0, 70, 79
2, 88560, Note_on_c, 0, 74, 93
2, 88800, Note_on_c, 0, 74, 0
2, 88800, Note_on_c, 0, 62, 0
2, 88800, Note_on_c, 0, 65, 0
2, 88800, Note_on_c, 0, 70, 0
2, 89280, Note_on_c, 0, 65, 79
2, 89280, Note_on_c, 0, 70, 79
2, 89280, Note_on_c, 0, 77, 93
2, 89520, Note_on_c, 0, 77, 0
2, 89520, Note_on_c, 0, 70, 0
2, 89520, Note_on_c, 0, 65, 0
2, 90000, Note_on_c, 0, 74, 99
2, 90000, Note_on_c, 0, 82, 116
2, 90240, Note_on_c, 0, 82, 0
2, 90240, Note_on_c, 0, 74, 0
2, 90240, End_track
3, 0, Start_track
3, 0, Title_t, "Piano left"
3, 0, Program_c, 0, 0
3, 660, Note_on_c, 0, 46, 35
3, 720, Note_on_c, 0, 61, 40
3, 960, Note_on_c, 0, 61, 0
3, 960, Note_on_c, 0, 46, 0
3, 1020, Note_on_c, 0, 46, 35
3, 1080, Note_on_c, 0, 61, 40
3, 1320, Note_on_c, 0, 61, 0
3, 1320, Note_on_c, 0, 46, 0
3, 1380, Note_on_c, 0, 46, 35
3, 1440, Note_on_c, 0, 61, 40
3, 1680, Note_on_c, 0, 61, 0
3, 1680, Note_on_c, 0, 46, 0
3, 1740, Note_on_c, 0, 46, 35
3, 1800, Note_on_c, 0, 61, 40
3, 2040, Note_on_c, 0, 61, 0
3, 2040, Note_on_c, 0, 46, 0
3, 2100, Note_on_c, 0, 46, 35
3, 2160, Note_on_c, 0, 61, 40
3, 2400, Note_on_c, 0, 61, 0
3, 2400, Note_on_c, 0, 46, 0
3, 2460, Note_on_c, 0, 46, 35
3, 2520, Note_on_c, 0, 61, 40
3, 2760, Note_on_c, 0, 61, 0
3, 2760, Note_on_c, 0, 46, 0
3, 2820, Note_on_c, 0, 46, 35
3, 2880, Note_on_c, 0, 61, 40
3, 3120, Note_on_c, 0, 61, 0
3, 3120, Note_on_c, 0, 46, 0
3, 3180, Note_on_c, 0, 46, 35
3, 3240, Note_on_c, 0, 61, 40
3, 3480, Note_on_c, 0, 61, 0
3, 3480, Note_on_c, 0, 46, 0
3, 3600, Note_on_c, 0, 45, 49
3, 3720, Note_on_c, 0, 45, 0
3, 3720, Note_on_c, 0, 53, 40
3, 3780, Note_on_c, 0, 53, 0
3, 3840, Note_on_c, 0, 53, 42
3, 3900, Note_on_c, 0, 53, 0
3, 3960, Note_on_c, 0, 41, 42
3, 4080, Note_on_c, 0, 41, 0
3, 4080, Note_on_c, 0, 53, 47
3, 4140, Note_on_c, 0, 53, 0
3, 4200, Note_on_c, 0, 53, 50
3, 4260, Note_on_c, 0, 53, 0
3, 4320, Note_on_c, 0, 46, 54
3, 4440, Note_on_c, 0, 46, 0
3, 4440, Note_on_c, 0, 53, 43
3, 4500, Note_on_c, 0, 53, 0
3, 4560, Note_on_c, 0, 53, 46
3, 4620, Note_on_c, 0, 53, 0
3, 4680, Note_on_c, 0, 39, 58
3, 4800, Note_on_c, 0, 39, 0
3, 4800, Note_on_c, 0, 54, 48
3, 4860, Note_on_c, 0, 54, 0
3, 4920, Note_on_c, 0, 54, 48
3, 4980, Note_on_c, 0, 54, 0
3, 5040, Note_on_c, 0, 41, 60
3, 5160, Note_on_c, 0, 41, 0
3, 5160, Note_on_c, 0, 53, 49
3, 5220, Note_on_c, 0, 53, 0
3, 5280, Note_on_c, 0, 53, 46
3, 5340, Note_on_c, 0, 53, 0
3, 5400, Note_on_c, 0, 53, 55
3, 5460, Note_on_c, 0, 53, 0
3, 5520, Note_on_c, 0, 53, 46
3, 5580, Note_on_c, 0, 53, 0
3, 5640, Note_on_c, 0, 53, 46
3, 5700, Note_on_c, 0, 53, 0
3, 5760, Note_on_c, 0, 53, 56
3, 5880, Note_on_c, 0, 53, 0
3, 5880, Note_on_c, 0, 54, 46
3, 6000, Note_on_c, 0, 54, 0
3, 6000, Note_on_c, 0, 53, 48
3, 6060, Note_on_c, 0, 53, 0
3, 6120, Note_on_c, 0, 53, 52
3, 6180, Note_on_c, 0, 53, 0
3, 6240, Note_on_c, 0, 53, 46
3, 6300, Note_on_c, 0, 53, 0
3, 6360, Note_on_c, 0, 53, 40
3, 6420, Note_on_c, 0, 53, 0
3, 6420, Note_on_c, 0, 46, 35
3, 6480, Note_on_c, 0, 61, 40
3, 6720, Note_on_c, 0, 61, 0
3, 6720, Note_on_c, 0, 46, 0
3, 6780, Note_on_c, 0, 46, 36
3, 6840, Note_on_c, 0, 61, 41
3, 7080, Note_on_c, 0, 61, 0
3, 7080, Note_on_c, 0, 46, 0
3, 7140, Note_on_c, 0, 46, 37
3, 7200, Note_on_c, 0, 61, 42
3, 7440, Note_on_c, 0, 61, 0
3, 7440, Note_on_c, 0, 46, 0
3, 7500, Note_on_c, 0, 46, 44
3, 7560, Note_on_c, 0, 61, 53
3, 7800, Note_on_c, 0, 61, 0
3, 7800, Note_on_c, 0, 46, 0
3, 7920, Note_on_c, 0, 51, 69
3, 8040, Note_on_c, 0, 58, 49
3, 8100, Note_on_c, 0, 58, 0
3, 8160, Note_on_c, 0, 58, 46
3, 8220, Note_on_c, 0, 58, 0
3, 8280, Note_on_c, 0, 51, 0
3, 8280, Note_on_c, 0, 53, 60
3, 8280, Note_on_c, 0, 58, 55
3, 8340, Note_on_c, 0, 58, 0
3, 8400, Note_on_c, 0, 58, 46
3, 8460, Note_on_c, 0, 58, 0
3, 8520, Note_on_c, 0, 53, 0
3, 8520, Note_on_c, 0, 54, 60
3, 8520, Note_on_c, 0, 58, 46
3, 8580, Note_on_c, 0, 58, 0
3, 8640, Note_on_c, 0, 54, 0
3, 8640, Note_on_c, 0, 56, 60
3, 8760, Note_on_c, 0, 56, 49
3, 8820, Note_on_c, 0, 56, 0
3, 8870, Note_on_c, 0, 56, 0
3, 8880, Note_on_c, 0, 56, 46
3, 8940, Note_on_c, 0, 56, 0
3, 9000, Note_on_c, 0, 54, 60
3, 9000, Note_on_c, 0, 56, 55
3, 9060, Note_on_c, 0, 56, 0
3, 9120, Note_on_c, 0, 56, 46
3, 9180, Note_on_c, 0, 56, 0
3, 9240, Note_on_c, 0, 56, 46
3, 9260, Note_on_c, 0, 54, 0
3, 9300, Note_on_c, 0, 56, 0
3, 9360, Note_on_c, 0, 53, 49
3, 9360, Note_on_c, 0, 56, 56
3, 9720, Note_on_c, 0, 61, 55
3, 9960, Note_on_c, 0, 61, 0
3, 9960, Note_on_c, 0, 60, 52
3, 10050, Note_on_c, 0, 60, 0
3, 10080, Note_on_c, 0, 56, 0
3, 10080, Note_on_c, 0, 53, 0
3, 10080, Note_on_c, 0, 54, 49
3, 10080, Note_on_c, 0, 60, 55
3, 10320, Note_on_c, 0, 60, 0
3, 10320, Note_on_c, 0, 58, 52
3, 10410, Note_on_c, 0, 58, 0
3, 10440, Note_on_c, 0, 61, 55
3, 10680, Note_on_c, 0, 61, 0
3, 10680, Note_on_c, 0, 58, 52
3, 10770, Note_on_c, 0, 58, 0
3, 10800, Note_on_c, 0, 54, 0
3, 10800, Note_on_c, 0, 49, 49
3, 10800, Note_on_c, 0, 58, 55
3, 11040, Note_on_c, 0, 58, 0
3, 11040, Note_on_c, 0, 56, 52
3, 11130, Note_on_c, 0, 56, 0
3, 11160, Note_on_c, 0, 61, 55
3, 11400, Note_on_c, 0, 61, 0
3, 11400, Note_on_c, 0, 56, 52
3, 11490, Note_on_c, 0, 56, 0
3, 11520, Note_on_c, 0, 49, 0
3, 11520, Note_on_c, 0, 44, 41
3, 11520, Note_on_c, 0, 56, 49
3, 12240, Note_on_c, 0, 56, 0
3, 12240, Note_on_c, 0, 44, 0
3, 12240, Note_on_c, 0, 37, 41
3, 12960, Note_on_c, 0, 37, 0
3, 12960, Note_on_c, 0, 53, 43
3, 13080, Note_on_c, 0, 53, 0
3, 13080, Note_on_c, 0, 54, 41
3, 13200, Note_on_c, 0, 54, 0
3, 13200, Note_on_c, 0, 53, 38
3, 13320, Note_on_c, 0, 53, 0
3, 13320, Note_on_c, 0, 51, 41
3, 13440, Note_on_c, 0, 51, 0
3, 13440, Note_on_c, 0, 49, 38
3, 13560, Note_on_c, 0, 49, 0
3, 13560, Note_on_c, 0, 48, 38
3, 13620, Note_on_c, 0, 48, 0
3, 13620, Note_on_c, 0, 46, 35
3, 13680, Note_on_c, 0, 61, 40
3, 13920, Note_on_c, 0, 61, 0
3, 13920, Note_on_c, 0, 46, 0
3, 13980, Note_on_c, 0, 46, 35
3, 14040, Note_on_c, 0, 61, 40
3, 14280, Note_on_c, 0, 61, 0
3, 14280, Note_on_c, 0, 46, 0
3, 14340, Note_on_c, 0, 46, 35
3, 14400, Note_on_c, 0, 61, 40
3, 14640, Note_on_c, 0, 61, 0
3, 14640, Note_on_c, 0, 46, 0
3, 14700, Note_on_c, 0, 46, 35
3, 14760, Note_on_c, 0, 61, 40
3, 15000, Note_on_c, 0, 61, 0
3, 15000, Note_on_c, 0, 46, 0
3, 15060, Note_on_c, 0, 46, 35
3, 15120, Note_on_c, 0, 61, 40
3, 15360, Note_on_c, 0, 61, 0
3, 15360, Note_on_c, 0, 46, 0
3, 15420, Note_on_c, 0, 46, 35
3, 15480, Note_on_c, 0, 61, 40
3, 15720, Note_on_c, 0, 61, 0
3, 15720, Note_on_c, 0, 46, 0
3, 15780, Note_on_c, 0, 46, 35
3, 15840, Note_on_c, 0, 61, 40
3, 16080, Note_on_c, 0, 61, 0
3, 16080, Note_on_c, 0, 46, 0
3, 16140, Note_on_c, 0, 46, 35
3, 16200, Note_on_c, 0, 61, 40
3, 16440, Note_on_c, 0, 61, 0
3, 16440, Note_on_c, 0, 46, 0
3, 16560, Note_on_c, 0, 45, 49
3, 16680, Note_on_c, 0, 45, 0
3, 16680, Note_on_c, 0, 53, 40
3, 16740, Note_on_c, 0, 53, 0
3, 16800, Note_on_c, 0, 53, 42
3, 16860, Note_on_c, 0, 53, 0
3, 16920, Note_on_c, 0, 41, 42
3, 17040, Note_on_c, 0, 41, 0
3, 17040, Note_on_c, 0, 53, 47
3, 17100, Note_on_c, 0, 53, 0
3, 17160, Note_on_c, 0, 53, 50
3, 17220, Note_on_c, 0, 53, 0
3, 17280, Note_on_c, 0, 46, 54
3, 17400, Note_on_c, 0, 46, 0
3, 17400, Note_on_c, 0, 53, 43
3, 17460, Note_on_c, 0, 53, 0
3, 17520, Note_on_c, 0, 53, 46
3, 17580, Note_on_c, 0, 53, 0
3, 17640, Note_on_c, 0, 39, 58
3, 17760, Note_on_c, 0, 39, 0
3, 17760, Note_on_c, 0, 54, 48
3, 17820, Note_on_c, 0, 54, 0
3, 17880, Note_on_c, 0, 54, 48
3, 17940, Note_on_c, 0, 54, 0
3, 18000, Note_on_c, 0, 41, 60
3, 18120, Note_on_c, 0, 41, 0
3, 18120, Note_on_c, 0, 53, 49
3, 18180, Note_on_c, 0, 53, 0
3, 18240, Note_on_c, 0, 53, 46
3, 18300, Note_on_c, 0, 53, 0
3, 18360, Note_on_c, 0, 53, 55
3, 18420, Note_on_c, 0, 53, 0
3, 18480, Note_on_c, 0, 53, 46
3, 18540, Note_on_c, 0, 53, 0
3, 18600, Note_on_c, 0, 53, 46
3, 18660, Note_on_c, 0, 53, 0
3, 18720, Note_on_c, 0, 53, 56
3, 18840, Note_on_c, 0, 53, 0
3, 18840, Note_on_c, 0, 54, 46
3, 18960, Note_on_c, 0, 54, 0
3, 18960, Note_on_c, 0, 53, 48
3, 19020, Note_on_c, 0, 53, 0
3, 19080, Note_on_c, 0, 53, 52
3, 19140, Note_on_c, 0, 53, 0
3, 19200, Note_on_c, 0, 53, 46
3, 19260, Note_on_c, 0, 53, 0
3, 19320, Note_on_c, 0, 53, 40
3, 19380, Note_on_c, 0, 53, 0
3, 19380, Note_on_c, 0, 46, 35
3, 19440, Note_on_c, 0, 61, 40
3, 19680, Note_on_c, 0, 61, 0
3, 19680, Note_on_c, 0, 46, 0
3, 19740, Note_on_c, 0, 46, 36
3, 19800, Note_on_c, 0, 61, 41
3, 20040, Note_on_c, 0, 61, 0
3, 20040, Note_on_c, 0, 46, 0
3, 20100, Note_on_c, 0, 46, 37
3, 20160, Note_on_c, 0, 61, 42
3, 20400, Note_on_c, 0, 61, 0
3, 20400, Note_on_c, 0, 46, 0
3, 20460, Note_on_c, 0, 46, 44
3, 20520, Note_on_c, 0, 61, 53
3, 20760, Note_on_c, 0, 61, 0
3, 20760, Note_on_c, 0, 46, 0
3, 20880, Note_on_c, 0, 51, 69
3, 21000, Note_on_c, 0, 58, 49
3, 21060, Note_on_c, 0, 58, 0
3, 21120, Note_on_c, 0, 58, 46
3, 21180, Note_on_c, 0, 58, 0
3, 21240, Note_on_c, 0, 51, 0
3, 21240, Note_on_c, 0, 53, 60
3, 21240, Note_on_c, 0, 58, 55
3, 21300, Note_on_c, 0, 58, 0
3, 21360, Note_on_c, 0, 58, 46
3, 21420, Note_on_c, 0, 58, 0
3, 21480, Note_on_c, 0, 53, 0
3, 21480, Note_on_c, 0, 54, 60
3, 21480, Note_on_c, 0, 58, 46
3, 21540, Note_on_c, 0, 58, 0
3, 21600, Note_on_c, 0, 54, 0
3, 21600, Note_on_c, 0, 56, 60
3, 21720, Note_on_c, 0, 56, 49
3, 21780, Note_on_c, 0, 56, 0
3, 21830, Note_on_c, 0, 56, 0
3, 21840, Note_on_c, 0, 56, 46
3, 21900, Note_on_c, 0, 56, 0
3, 21960, Note_on_c, 0, 54, 60
3, 21960, Note_on_c, 0, 56, 55
3, 22020, Note_on_c, 0, 56, 0
3, 22080, Note_on_c, 0, 56, 46
3, 22140, Note_on_c, 0, 56, 0
3, 22200, Note_on_c, 0, 56, 46
3, 22220, Note_on_c, 0, 54, 0
3, 22260, Note_on_c, 0, 56, 0
3, 22320, Note_on_c, 0, 53, 49
3, 22320, Note_on_c, 0, 56, 56
3, 22680, Note_on_c, 0, 61, 55
3, 22920, Note_on_c, 0, 61, 0
3, 22920, Note_on_c, 0, 60, 52
3, 23010, Note_on_c, 0, 60, 0
3, 23040, Note_on_c, 0, 56, 0
3, 23040, Note_on_c, 0, 53, 0
3, 23040, Note_on_c, 0, 54, 49
3, 23040, Note_on_c, 0, 60, 55
3, 23280, Note_on_c, 0, 60, 0
3, 23280, Note_on_c, 0, 58, 52
3, 23370, Note_on_c, 0, 58, 0
3, 23400, Note_on_c, 0, 61, 55
3, 23640, Note_on_c, 0, 61, 0
3, 23640, Note_on_c, 0, 58, 52
3, 23730, Note_on_c, 0, 58, 0
3, 23760, Note_on_c, 0, 54, 0
3, 23760, Note_on_c, 0, 49, 49
3, 23760, Note_on_c, 0, 58, 55
3, 24000, Note_on_c, 0, 58, 0
3, 24000, Note_on_c, 0, 56, 52
3, 24090, Note_on_c, 0, 56, 0
3, 24120, Note_on_c, 0, 61, 55
3, 24360, Note_on_c, 0, 61, 0
3, 24360, Note_on_c, 0, 56, 52
3, 24450, Note_on_c, 0, 56, 0
3, 24480, Note_on_c, 0, 49, 0
3, 24480, Note_on_c, 0, 44, 41
3, 24480, Note_on_c, 0, 56, 49
3, 25200, Note_on_c, 0, 56, 0
3, 25200, Note_on_c, 0, 44, 0
3, 25200, Note_on_c, 0, 37, 41
3, 25920, Note_on_c, 0, 37, 0
3, 25920, Note_on_c, 0, 53, 43
3, 26040, Note_on_c, 0, 53, 0
3, 26040, Note_on_c, 0, 54, 41
3, 26160, Note_on_c, 0, 54, 0
3, 26160, Note_on_c, 0, 53, 38
3, 26280, Note_on_c, 0, 53, 0
3, 26280, Note_on_c, 0, 51, 41
3, 26400, Note_on_c, 0, 51, 0
3, 26400, Note_on_c, 0, 49, 38
3, 26520, Note_on_c, 0, 49, 0
3, 26520, Note_on_c, 0, 47, 38
3, 26640, Note_on_c, 0, 47, 0
3, 26640, Note_on_c, 0, 46, 40
3, 26880, Note_on_c, 0, 46, 0
3, 27000, Note_on_c, 0, 46, 40
3, 27240, Note_on_c, 0, 46, 0
3, 27360, Note_on_c, 0, 39, 49
3, 27480, Note_on_c, 0, 46, 39
3, 27540, Note_on_c, 0, 46, 0
3, 27600, Note_on_c, 0, 39, 0
3, 27600, Note_on_c, 0, 46, 38
3, 27660, Note_on_c, 0, 46, 0
3, 27720, Note_on_c, 0, 42, 45
3, 27720, Note_on_c, 0, 46, 45
3, 27780, Note_on_c, 0, 46, 0
3, 27840, Note_on_c, 0, 46, 42
3, 27900, Note_on_c, 0, 46, 0
3, 27960, Note_on_c, 0, 42, 0
3, 27960, Note_on_c, 0, 46, 42
3, 28020, Note_on_c, 0, 46, 0
3, 28080, Note_on_c, 0, 46, 40
3, 28320, Note_on_c, 0, 46, 0
3, 28440, Note_on_c, 0, 46, 40
3, 28680, Note_on_c, 0, 46, 0
3, 28800, Note_on_c, 0, 39, 49
3, 28920, Note_on_c, 0, 46, 39
3, 28980, Note_on_c, 0, 46, 0
3, 29040, Note_on_c, 0, 39, 0
3, 29040, Note_on_c, 0, 46, 38
3, 29100, Note_on_c, 0, 46, 0
3, 29160, Note_on_c, 0, 48, 45
3, 29220, Note_on_c, 0, 48, 0
3, 29280, Note_on_c, 0, 48, 42
3, 29340, Note_on_c, 0, 48, 0
3, 29400, Note_on_c, 0, 48, 48
3, 29460, Note_on_c, 0, 48, 0
3, 29520, Note_on_c, 0, 41, 39
3, 29520, Note_on_c, 0, 49, 46
3, 29760, Note_on_c, 0, 49, 0
3, 29760, Note_on_c, 0, 41, 0
3, 29880, Note_on_c, 0, 37, 39
3, 29880, Note_on_c, 0, 49, 46
3, 30120, Note_on_c, 0, 49, 0
3, 30120, Note_on_c, 0, 37, 0
3, 30240, Note_on_c, 0, 42, 58
3, 30360, Note_on_c, 0, 49, 45
3, 30420, Note_on_c, 0, 49, 0
3, 30480, Note_on_c, 0, 42, 0
3, 30480, Note_on_c, 0, 49, 45
3, 30540, Note_on_c, 0, 49, 0
3, 30600, Note_on_c, 0, 46, 58
3, 30600, Note_on_c, 0, 49, 53
3, 30660, Note_on_c, 0, 49, 0
3, 30720, Note_on_c, 0, 49, 50
3, 30780, Note_on_c, 0, 49, 0
3, 30840, Note_on_c, 0, 46, 0
3, 30840, Note_on_c, 0, 49, 58
3, 30900, Note_on_c, 0, 49, 0
3, 30960, Note_on_c, 0, 41, 47
3, 30960, Note_on_c, 0, 49, 55
3, 31200, Note_on_c, 0, 49, 0
3, 31200, Note_on_c, 0, 41, 0
3, 31320, Note_on_c, 0, 37, 50
3, 31320, Note_on_c, 0, 49, 58
3, 31560, Note_on_c, 0, 49, 0
3, 31560, Note_on_c, 0, 37, 0
3, 31680, Note_on_c, 0, 42, 77
3, 31800, Note_on_c, 0, 50, 61
3, 31860, Note_on_c, 0, 50, 0
3, 31920, Note_on_c, 0, 42, 0
3, 31920, Note_on_c, 0, 50, 61
3, 31980, Note_on_c, 0, 50, 0
3, 32040, Note_on_c, 0, 51, 74
3, 32100, Note_on_c, 0, 51, 0
3, 32160, Note_on_c, 0, 51, 71
3, 32220, Note_on_c, 0, 51, 0
3, 32280, Note_on_c, 0, 51, 71
3, 32340, Note_on_c, 0, 51, 0
3, 32400, Note_on_c, 0, 45, 89
3, 32520, Note_on_c, 0, 45, 0
3, 32520, Note_on_c, 0, 53, 70
3, 32580, Note_on_c, 0, 53, 0
3, 32640, Note_on_c, 0, 53, 67
3, 32700, Note_on_c, 0, 53, 0
3, 32760, Note_on_c, 0, 41, 80
3, 32880, Note_on_c, 0, 41, 0
3, 32880, Note_on_c, 0, 53, 70
3, 32940, Note_on_c, 0, 53, 0
3, 33000, Note_on_c, 0, 53, 71
3, 33060, Note_on_c, 0, 53, 0
3, 33120, Note_on_c, 0, 46, 88
3, 33240, Note_on_c, 0, 46, 0
3, 33240, Note_on_c, 0, 53, 73
3, 33300, Note_on_c, 0, 53, 0
3, 33360, Note_on_c, 0, 53, 72
3, 33420, Note_on_c, 0, 53, 0
3, 33480, Note_on_c, 0, 41, 82
3, 33600, Note_on_c, 0, 41, 0
3, 33600, Note_on_c, 0, 53, 71
3, 33660, Note_on_c, 0, 53, 0
3, 33720, Note_on_c, 0, 53, 71
3, 33780, Note_on_c, 0, 53, 0
3, 33840, Note_on_c, 0, 45, 89
3, 33960, Note_on_c, 0, 45, 0
3, 33960, Note_on_c, 0, 53, 70
3, 34020, Note_on_c, 0, 53, 0
3, 34080, Note_on_c, 0, 53, 67
3, 34140, Note_on_c, 0, 53, 0
3, 34200, Note_on_c, 0, 41, 80
3, 34320, Note_on_c, 0, 41, 0
3, 34320, Note_on_c, 0, 53, 70
3, 34380, Note_on_c, 0, 53, 0
3, 34440, Note_on_c, 0, 53, 71
3, 34500, Note_on_c, 0, 53, 0
3, 34560, Note_on_c, 0, 46, 88
3, 34680, Note_on_c, 0, 46, 0
3, 34680, Note_on_c, 0, 53, 73
3, 34740, Note_on_c, 0, 53, 0
3, 34800, Note_on_c, 0, 53, 72
3, 34860, Note_on_c, 0, 53, 0
3, 34920, Note_on_c, 0, 41, 82
3, 35040, Note_on_c, 0, 41, 0
3, 35040, Note_on_c, 0, 53, 71
3, 35100, Note_on_c, 0, 53, 0
3, 35160, Note_on_c, 0, 53, 71
3, 35220, Note_on_c, 0, 53, 0
3, 35280, Note_on_c, 0, 45, 89
3, 35400, Note_on_c, 0, 45, 0
3, 35400, Note_on_c, 0, 53, 68
3, 35460, Note_on_c, 0, 53, 0
3, 35520, Note_on_c, 0, 53, 64
3, 35580, Note_on_c, 0, 53, 0
3, 35640, Note_on_c, 0, 41, 75
3, 35760, Note_on_c, 0, 41, 0
3, 35760, Note_on_c, 0, 53, 64
3, 35820, Note_on_c, 0, 53, 0
3, 35880, Note_on_c, 0, 53, 63
3, 35940, Note_on_c, 0, 53, 0
3, 36000, Note_on_c, 0, 46, 77
3, 37080, Note_on_c, 0, 46, 0
3, 37080, Note_on_c, 0, 48, 58
3, 37440, Note_on_c, 0, 48, 0
3, 37440, Note_on_c, 0, 41, 52
3, 38160, Note_on_c, 0, 41, 0
3, 38160, Note_on_c, 0, 53, 43
3, 38280, Note_on_c, 0, 53, 0
3, 38280, Note_on_c, 0, 54, 41
3, 38400, Note_on_c, 0, 54, 0
3, 38400, Note_on_c, 0, 53, 38
3, 38520, Note_on_c, 0, 53, 0
3, 38520, Note_on_c, 0, 51, 41
3, 38640, Note_on_c, 0, 51, 0
3, 38640, Note_on_c, 0, 49, 38
3, 38760, Note_on_c, 0, 49, 0
3, 38760, Note_on_c, 0, 48, 38
3, 38880, Note_on_c, 0, 48, 0
3, 38880, Note_on_c, 0, 61, 40
3, 39120, Note_on_c, 0, 61, 0
3, 39180, Note_on_c, 0, 46, 35
3, 39240, Note_on_c, 0, 61, 40
3, 39480, Note_on_c, 0, 61, 0
3, 39480, Note_on_c, 0, 46, 0
3, 39540, Note_on_c, 0, 46, 35
3, 39600, Note_on_c, 0, 61, 40
3, 39840, Note_on_c, 0, 61, 0
3, 39840, Note_on_c, 0, 46, 0
3, 39900, Note_on_c, 0, 46, 35
3, 39960, Note_on_c, 0, 61, 40
3, 40200, Note_on_c, 0, 61, 0
3, 40200, Note_on_c, 0, 46, 0
3, 40260, Note_on_c, 0, 46, 35
3, 40320, Note_on_c, 0, 61, 40
3, 40560, Note_on_c, 0, 61, 0
3, 40560, Note_on_c, 0, 46, 0
3, 40620, Note_on_c, 0, 46, 35
3, 40680, Note_on_c, 0, 61, 40
3, 40920, Note_on_c, 0, 61, 0
3, 40920, Note_on_c, 0, 46, 0
3, 40980, Note_on_c, 0, 46, 35
3, 41040, Note_on_c, 0, 61, 40
3, 41280, Note_on_c, 0, 61, 0
3, 41280, Note_on_c, 0, 46, 0
3, 41340, Note_on_c, 0, 46, 35
3, 41400, Note_on_c, 0, 61, 40
3, 41640, Note_on_c, 0, 61, 0
3, 41640, Note_on_c, 0, 46, 0
3, 41760, Note_on_c, 0, 45, 49
3, 41880, Note_on_c, 0, 45, 0
3, 41880, Note_on_c, 0, 53, 40
3, 41940, Note_on_c, 0, 53, 0
3, 42000, Note_on_c, 0, 53, 42
3, 42060, Note_on_c, 0, 53, 0
3, 42120, Note_on_c, 0, 41, 42
3, 42240, Note_on_c, 0, 41, 0
3, 42240, Note_on_c, 0, 53, 47
3, 42300, Note_on_c, 0, 53, 0
3, 42360, Note_on_c, 0, 53, 50
3, 42420, Note_on_c, 0, 53, 0
3, 42480, Note_on_c, 0, 46, 54
3, 42600, Note_on_c, 0, 46, 0
3, 42600, Note_on_c, 0, 53, 43
3, 42660, Note_on_c, 0, 53, 0
3, 42720, Note_on_c, 0, 53, 46
3, 42780, Note_on_c, 0, 53, 0
3, 42840, Note_on_c, 0, 39, 58
3, 42960, Note_on_c, 0, 39, 0
3, 42960, Note_on_c, 0, 54, 48
3, 43020, Note_on_c, 0, 54, 0
3, 43080, Note_on_c, 0, 54, 48
3, 43140, Note_on_c, 0, 54, 0
3, 43200, Note_on_c, 0, 41, 60
3, 43320, Note_on_c, 0, 41, 0
3, 43320, Note_on_c, 0, 53, 49
3, 43380, Note_on_c, 0, 53, 0
3, 43440, Note_on_c, 0, 53, 46
3, 43500, Note_on_c, 0, 53, 0
3, 43560, Note_on_c, 0, 53, 55
3, 43620, Note_on_c, 0, 53, 0
3, 43680, Note_on_c, 0, 53, 46
3, 43740, Note_on_c, 0, 53, 0
3, 43800, Note_on_c, 0, 53, 46
3, 43860, Note_on_c, 0, 53, 0
3, 43920, Note_on_c, 0, 53, 56
3, 44040, Note_on_c, 0, 53, 0
3, 44040, Note_on_c, 0, 54, 46
3, 44160, Note_on_c, 0, 54, 0
3, 44160, Note_on_c, 0, 53, 48
3, 44220, Note_on_c, 0, 53, 0
3, 44280, Note_on_c, 0, 53, 52
3, 44340, Note_on_c, 0, 53, 0
3, 44400, Note_on_c, 0, 53, 46
3, 44460, Note_on_c, 0, 53, 0
3, 44520, Note_on_c, 0, 53, 40
3, 44580, Note_on_c, 0, 53, 0
3, 44580, Note_on_c, 0, 46, 35
3, 44640, Note_on_c, 0, 61, 40
3, 44880, Note_on_c, 0, 61, 0
3, 44880, Note_on_c, 0, 46, 0
3, 44940, Note_on_c, 0, 46, 36
3, 45000, Note_on_c, 0, 61, 41
3, 45240, Note_on_c, 0, 61, 0
3, 45240, Note_on_c, 0, 46, 0
3, 45300, Note_on_c, 0, 46, 37
3, 45360, Note_on_c, 0, 61, 42
3, 45600, Note_on_c, 0, 61, 0
3, 45600, Note_on_c, 0, 46, 0
3, 45660, Note_on_c, 0, 46, 44
3, 45720, Note_on_c, 0, 61, 53
3, 45960, Note_on_c, 0, 61, 0
3, 45960, Note_on_c, 0, 46, 0
3, 46080, Note_on_c, 0, 62, 69
3, 46080, Note_on_c, 0, 51, 69
3, 46200, Note_on_c, 0, 59, 49
3, 46260, Note_on_c, 0, 59, 0
3, 46320, Note_on_c, 0, 59, 46
3, 46380, Note_on_c, 0, 59, 0
3, 46440, Note_on_c, 0, 62, 0
3, 46440, Note_on_c, 0, 59, 55
3, 46500, Note_on_c, 0, 59, 0
3, 46560, Note_on_c, 0, 59, 46
3, 46620, Note_on_c, 0, 59, 0
3, 46680, Note_on_c, 0, 59, 46
3, 46740, Note_on_c, 0, 59, 0
3, 46800, Note_on_c, 0, 62, 60
3, 46920, Note_on_c, 0, 58, 49
3, 46980, Note_on_c, 0, 58, 0
3, 47040, Note_on_c, 0, 58, 46
3, 47100, Note_on_c, 0, 58, 0
3, 47160, Note_on_c, 0, 62, 0
3, 47160, Note_on_c, 0, 63, 60
3, 47160, Note_on_c, 0, 58, 55
3, 47220, Note_on_c, 0, 58, 0
3, 47280, Note_on_c, 0, 58, 46
3, 47340, Note_on_c, 0, 58, 0
3, 47400, Note_on_c, 0, 58, 46
3, 47460, Note_on_c, 0, 58, 0
3, 47520, Note_on_c, 0, 63, 0
3, 47520, Note_on_c, 0, 51, 0
3, 47520, Note_on_c, 0, 54, 49
3, 47520, Note_on_c, 0, 58, 56
3, 47880, Note_on_c, 0, 63, 55
3, 48120, Note_on_c, 0, 63, 0
3, 48120, Note_on_c, 0, 61, 52
3, 48210, Note_on_c, 0, 61, 0
3, 48240, Note_on_c, 0, 58, 0
3, 48240, Note_on_c, 0, 61, 55
3, 48480, Note_on_c, 0, 61, 0
3, 48480, Note_on_c, 0, 60, 52
3, 48570, Note_on_c, 0, 60, 0
3, 48600, Note_on_c, 0, 63, 55
3, 48840, Note_on_c, 0, 63, 0
3, 48840, Note_on_c, 0, 60, 52
3, 48930, Note_on_c, 0, 60, 0
3, 48960, Note_on_c, 0, 54, 0
3, 48960, Note_on_c, 0, 53, 49
3, 48960, Note_on_c, 0, 60, 55
3, 49200, Note_on_c, 0, 60, 0
3, 49200, Note_on_c, 0, 58, 52
3, 49290, Note_on_c, 0, 58, 0
3, 49320, Note_on_c, 0, 61, 55
3, 49680, Note_on_c, 0, 53, 0
3, 49680, Note_on_c, 0, 41, 41
3, 49920, Note_on_c, 0, 61, 0
3, 49920, Note_on_c, 0, 60, 52
3, 49980, Note_on_c, 0, 60, 0
3, 50400, Note_on_c, 0, 41, 0
3, 50400, Note_on_c, 0, 46, 41
3, 51120, Note_on_c, 0, 46, 0
3, 51120, Note_on_c, 0, 53, 43
3, 51240, Note_on_c, 0, 53, 0
3, 51240, Note_on_c, 0, 54, 41
3, 51360, Note_on_c, 0, 54, 0
3, 51360, Note_on_c, 0, 53, 38
3, 51480, Note_on_c, 0, 53, 0
3, 51480, Note_on_c, 0, 51, 41
3, 51600, Note_on_c, 0, 51, 0
3, 51600, Note_on_c, 0, 49, 38
3, 51720, Note_on_c, 0, 49, 0
3, 51720, Note_on_c, 0, 48, 38
3, 51840, Note_on_c, 0, 48, 0
3, 51840, Note_on_c, 0, 46, 40
3, 52080, Note_on_c, 0, 46, 0
3, 52200, Note_on_c, 0, 46, 40
3, 52440, Note_on_c, 0, 46, 0
3, 52560, Note_on_c, 0, 39, 49
3, 52680, Note_on_c, 0, 46, 39
3, 52740, Note_on_c, 0, 46, 0
3, 52800, Note_on_c, 0, 39, 0
3, 52800, Note_on_c, 0, 46, 38
3, 52860, Note_on_c, 0, 46, 0
3, 52920, Note_on_c, 0, 42, 45
3, 52920, Note_on_c, 0, 46, 45
3, 52980, Note_on_c, 0, 46, 0
3, 53040, Note_on_c, 0, 46, 42
3, 53100, Note_on_c, 0, 46, 0
3, 53160, Note_on_c, 0, 42, 0
3, 53160, Note_on_c, 0, 46, 42
3, 53220, Note_on_c, 0, 46, 0
3, 53280, Note_on_c, 0, 46, 40
3, 53520, Note_on_c, 0, 46, 0
3, 53640, Note_on_c, 0, 46, 40
3, 53880, Note_on_c, 0, 46, 0
3, 54000, Note_on_c, 0, 39, 49
3, 54120, Note_on_c, 0, 46, 39
3, 54180, Note_on_c, 0, 46, 0
3, 54240, Note_on_c, 0, 39, 0
3, 54240, Note_on_c, 0, 46, 38
3, 54300, Note_on_c, 0, 46, 0
3, 54360, Note_on_c, 0, 48, 45
3, 54420, Note_on_c, 0, 48, 0
3, 54480, Note_on_c, 0, 48, 42
3, 54540, Note_on_c, 0, 48, 0
3, 54600, Note_on_c, 0, 48, 48
3, 54660, Note_on_c, 0, 48, 0
3, 54720, Note_on_c, 0, 41, 39
3, 54720, Note_on_c, 0, 49, 46
3, 54960, Note_on_c, 0, 49, 0
3, 54960, Note_on_c, 0, 41, 0
3, 55080, Note_on_c, 0, 37, 39
3, 55080, Note_on_c, 0, 49, 46
3, 55320, Note_on_c, 0, 49, 0
3, 55320, Note_on_c, 0, 37, 0
3, 55440, Note_on_c, 0, 42, 58
3, 55560, Note_on_c, 0, 49, 45
3, 55620, Note_on_c, 0, 49, 0
3, 55680, Note_on_c, 0, 42, 0
3, 55680, Note_on_c, 0, 49, 45
3, 55740, Note_on_c, 0, 49, 0
3, 55800, Note_on_c, 0, 46, 59
3, 55800, Note_on_c, 0, 49, 54
3, 55860, Note_on_c, 0, 49, 0
3, 55920, Note_on_c, 0, 49, 50
3, 55980, Note_on_c, 0, 49, 0
3, 56040, Note_on_c, 0, 46, 0
3, 56040, Note_on_c, 0, 49, 58
3, 56100, Note_on_c, 0, 49, 0
3, 56160, Note_on_c, 0, 41, 47
3, 56160, Note_on_c, 0, 49, 55
3, 56400, Note_on_c, 0, 49, 0
3, 56400, Note_on_c, 0, 41, 0
3, 56520, Note_on_c, 0, 37, 50
3, 56520, Note_on_c, 0, 49, 58
3, 56760, Note_on_c, 0, 49, 0
3, 56760, Note_on_c, 0, 37, 0
3, 56880, Note_on_c, 0, 42, 77
3, 57000, Note_on_c, 0, 50, 61
3, 57060, Note_on_c, 0, 50, 0
3, 57120, Note_on_c, 0, 42, 0
3, 57120, Note_on_c, 0, 50, 61
3, 57180, Note_on_c, 0, 50, 0
3, 57240, Note_on_c, 0, 51, 74
3, 57300, Note_on_c, 0, 51, 0
3, 57360, Note_on_c, 0, 51, 71
3, 57420, Note_on_c, 0, 51, 0
3, 57480, Note_on_c, 0, 51, 71
3, 57540, Note_on_c, 0, 51, 0
3, 57600, Note_on_c, 0, 45, 89
3, 57720, Note_on_c, 0, 45, 0
3, 57720, Note_on_c, 0, 53, 70
3, 57780, Note_on_c, 0, 53, 0
3, 57840, Note_on_c, 0, 53, 67
3, 57900, Note_on_c, 0, 53, 0
3, 57960, Note_on_c, 0, 41, 80
3, 58080, Note_on_c, 0, 41, 0
3, 58080, Note_on_c, 0, 53, 70
3, 58140, Note_on_c, 0, 53, 0
3, 58200, Note_on_c, 0, 53, 71
3, 58260, Note_on_c, 0, 53, 0
3, 58320, Note_on_c, 0, 46, 88
3, 58440, Note_on_c, 0, 46, 0
3, 58440, Note_on_c, 0, 53, 73
3, 58500, Note_on_c, 0, 53, 0
3, 58560, Note_on_c, 0, 53, 72
3, 58620, Note_on_c, 0, 53, 0
3, 58680, Note_on_c, 0, 41, 82
3, 58800, Note_on_c, 0, 41, 0
3, 58800, Note_on_c, 0, 53, 71
3, 58860, Note_on_c, 0, 53, 0
3, 58920, Note_on_c, 0, 53, 71
3, 58980, Note_on_c, 0, 53, 0
3, 59040, Note_on_c, 0, 45, 89
3, 59160, Note_on_c, 0, 45, 0
3, 59160, Note_on_c, 0, 53, 70
3, 59220, Note_on_c, 0, 53, 0
3, 59280, Note_on_c, 0, 53, 67
3, 59340, Note_on_c, 0, 53, 0
3, 59400, Note_on_c, 0, 41, 80
3, 59520, Note_on_c, 0, 41, 0
3, 59520, Note_on_c, 0, 53, 70
3, 59580, Note_on_c, 0, 53, 0
3, 59640, Note_on_c, 0, 53, 71
3, 59700, Note_on_c, 0, 53, 0
3, 59760, Note_on_c, 0, 46, 88
3, 59880, Note_on_c, 0, 46, 0
3, 59880, Note_on_c, 0, 53, 73
3, 59940, Note_on_c, 0, 53, 0
3, 60000, Note_on_c, 0, 53, 72
3, 60060, Note_on_c, 0, 53, 0
3, 60120, Note_on_c, 0, 41, 82
3, 60240, Note_on_c, 0, 41, 0
3, 60240, Note_on_c, 0, 53, 71
3, 60300, Note_on_c, 0, 53, 0
3, 60360, Note_on_c, 0, 53, 71
3, 60420, Note_on_c, 0, 53, 0
3, 60480, Note_on_c, 0, 45, 89
3, 60600, Note_on_c, 0, 45, 0
3, 60600, Note_on_c, 0, 53, 68
3, 60660, Note_on_c, 0, 53, 0
3, 60720, Note_on_c, 0, 53, 64
3, 60780, Note_on_c, 0, 53, 0
3, 60840, Note_on_c, 0, 41, 75
3, 60960, Note_on_c, 0, 41, 0
3, 60960, Note_on_c, 0, 53, 64
3, 61020, Note_on_c, 0, 53, 0
3, 61080, Note_on_c, 0, 53, 63
3, 61140, Note_on_c, 0, 53, 0
3, 61200, Note_on_c, 0, 46, 77
3, 62280, Note_on_c, 0, 46, 0
3, 62280, Note_on_c, 0, 48, 58
3, 62640, Note_on_c, 0, 48, 0
3, 62640, Note_on_c, 0, 41, 52
3, 63360, Note_on_c, 0, 41, 0
3, 63360, Note_on_c, 0, 53, 43
3, 63480, Note_on_c, 0, 53, 0
3, 63480, Note_on_c, 0, 54, 41
3, 63600, Note_on_c, 0, 54, 0
3, 63600, Note_on_c, 0, 53, 38
3, 63720, Note_on_c, 0, 53, 0
3, 63720, Note_on_c, 0, 51, 41
3, 63840, Note_on_c, 0, 51, 0
3, 63840, Note_on_c, 0, 49, 38
3, 63960, Note_on_c, 0, 49, 0
3, 63960, Note_on_c, 0, 48, 38
3, 64020, Note_on_c, 0, 48, 0
3, 64020, Note_on_c, 0, 46, 35
3, 64080, Note_on_c, 0, 61, 40
3, 64320, Note_on_c, 0, 61, 0
3, 64320, Note_on_c, 0, 46, 0
3, 64380, Note_on_c, 0, 46, 35
3, 64440, Note_on_c, 0, 61, 40
3, 64680, Note_on_c, 0, 61, 0
3, 64680, Note_on_c, 0, 46, 0
3, 64740, Note_on_c, 0, 46, 35
3, 64800, Note_on_c, 0, 61, 40
3, 65040, Note_on_c, 0, 61, 0
3, 65040, Note_on_c, 0, 46, 0
3, 65100, Note_on_c, 0, 46, 35
3, 65160, Note_on_c, 0, 61, 40
3, 65400, Note_on_c, 0, 61, 0
3, 65400, Note_on_c, 0, 46, 0
3, 65460, Note_on_c, 0, 46, 35
3, 65520, Note_on_c, 0, 61, 40
3, 65760, Note_on_c, 0, 61, 0
3, 65760, Note_on_c, 0, 46, 0
3, 65820, Note_on_c, 0, 46, 35
3, 65880, Note_on_c, 0, 61, 40
3, 66120, Note_on_c, 0, 61, 0
3, 66120, Note_on_c, 0, 46, 0
3, 66180, Note_on_c, 0, 46, 35
3, 66240, Note_on_c, 0, 61, 40
3, 66480, Note_on_c, 0, 61, 0
3, 66480, Note_on_c, 0, 46, 0
3, 66540, Note_on_c, 0, 46, 35
3, 66600, Note_on_c, 0, 61, 40
3, 66840, Note_on_c, 0, 61, 0
3, 66840, Note_on_c, 0, 46, 0
3, 66960, Note_on_c, 0, 45, 49
3, 67080, Note_on_c, 0, 45, 0
3, 67080, Note_on_c, 0, 53, 40
3, 67140, Note_on_c, 0, 53, 0
3, 67200, Note_on_c, 0, 53, 42
3, 67260, Note_on_c, 0, 53, 0
3, 67320, Note_on_c, 0, 41, 42
3, 67440, Note_on_c, 0, 41, 0
3, 67440, Note_on_c, 0, 53, 47
3, 67500, Note_on_c, 0, 53, 0
3, 67560, Note_on_c, 0, 53, 50
3, 67620, Note_on_c, 0, 53, 0
3, 67680, Note_on_c, 0, 46, 54
3, 67800, Note_on_c, 0, 46, 0
3, 67800, Note_on_c, 0, 53, 43
3, 67860, Note_on_c, 0, 53, 0
3, 67920, Note_on_c, 0, 53, 46
3, 67980, Note_on_c, 0, 53, 0
3, 68040, Note_on_c, 0, 39, 58
3, 68160, Note_on_c, 0, 39, 0
3, 68160, Note_on_c, 0, 54, 48
3, 68220, Note_on_c, 0, 54, 0
3, 68280, Note_on_c, 0, 54, 48
3, 68340, Note_on_c, 0, 54, 0
3, 68400, Note_on_c, 0, 41, 60
3, 68520, Note_on_c, 0, 41, 0
3, 68520, Note_on_c, 0, 53, 49
3, 68580, Note_on_c, 0, 53, 0
3, 68640, Note_on_c, 0, 53, 46
3, 68700, Note_on_c, 0, 53, 0
3, 68760, Note_on_c, 0, 53, 55
3, 68820, Note_on_c, 0, 53, 0
3, 68880, Note_on_c, 0, 53, 46
3, 68940, Note_on_c, 0, 53, 0
3, 69000, Note_on_c, 0, 53, 46
3, 69060, Note_on_c, 0, 53, 0
3, 69120, Note_on_c, 0, 53, 56
3, 69240, Note_on_c, 0, 53, 0
3, 69240, Note_on_c, 0, 54, 46
3, 69360, Note_on_c, 0, 54, 0
3, 69360, Note_on_c, 0, 53, 48
3, 69420, Note_on_c, 0, 53, 0
3, 69480, Note_on_c, 0, 53, 52
3, 69540, Note_on_c, 0, 53, 0
3, 69600, Note_on_c, 0, 53, 46
3, 69660, Note_on_c, 0, 53, 0
3, 69720, Note_on_c, 0, 53, 40
3, 69780, Note_on_c, 0, 53, 0
3, 69840, Note_on_c, 0, 50, 49
3, 69960, Note_on_c, 0, 50, 0
3, 69960, Note_on_c, 0, 58, 39
3, 70020, Note_on_c, 0, 58, 0
3, 70080, Note_on_c, 0, 58, 39
3, 70140, Note_on_c, 0, 58, 0
3, 70200, Note_on_c, 0, 46, 48
3, 70260, Note_on_c, 0, 46, 0
3, 70320, Note_on_c, 0, 58, 40
3, 70380, Note_on_c, 0, 58, 0
3, 70440, Note_on_c, 0, 58, 40
3, 70500, Note_on_c, 0, 58, 0
3, 70560, Note_on_c, 0, 51, 49
3, 70680, Note_on_c, 0, 51, 0
3, 70680, Note_on_c, 0, 58, 39
3, 70740, Note_on_c, 0, 58, 0
3, 70800, Note_on_c, 0, 58, 39
3, 70860, Note_on_c, 0, 58, 0
3, 70920, Note_on_c, 0, 46, 48
3, 70980, Note_on_c, 0, 46, 0
3, 71040, Note_on_c, 0, 58, 40
3, 71100, Note_on_c, 0, 58, 0
3, 71160, Note_on_c, 0, 58, 40
3, 71220, Note_on_c, 0, 58, 0
3, 71280, Note_on_c, 0, 50, 63
3, 71400, Note_on_c, 0, 50, 0
3, 71400, Note_on_c, 0, 58, 50
3, 71460, Note_on_c, 0, 58, 0
3, 71520, Note_on_c, 0, 58, 50
3, 71580, Note_on_c, 0, 58, 0
3, 71640, Note_on_c, 0, 46, 62
3, 71700, Note_on_c, 0, 46, 0
3, 71760, Note_on_c, 0, 58, 52
3, 71820, Note_on_c, 0, 58, 0
3, 71880, Note_on_c, 0, 58, 52
3, 71940, Note_on_c, 0, 58, 0
3, 72000, Note_on_c, 0, 51, 63
3, 72120, Note_on_c, 0, 51, 0
3, 72120, Note_on_c, 0, 58, 50
3, 72180, Note_on_c, 0, 58, 0
3, 72240, Note_on_c, 0, 58, 50
3, 72300, Note_on_c, 0, 58, 0
3, 72360, Note_on_c, 0, 58, 62
3, 72420, Note_on_c, 0, 58, 0
3, 72480, Note_on_c, 0, 58, 52
3, 72540, Note_on_c, 0, 58, 0
3, 72600, Note_on_c, 0, 58, 52
3, 72660, Note_on_c, 0, 58, 0
3, 72720, Note_on_c, 0, 60, 65
3, 72720, Note_on_c, 0, 58, 55
3, 72720, Note_on_c, 0, 52, 55
3, 72780, Note_on_c, 0, 52, 0
3, 72780, Note_on_c, 0, 58, 0
3, 72780, Note_on_c, 0, 60, 0
3, 72840, Note_on_c, 0, 52, 44
3, 72840, Note_on_c, 0, 58, 44
3, 72840, Note_on_c, 0, 60, 52
3, 72900, Note_on_c, 0, 60, 0
3, 72900, Note_on_c, 0, 58, 0
3, 72900, Note_on_c, 0, 52, 0
3, 72960, Note_on_c, 0, 52, 44
3, 72960, Note_on_c, 0, 58, 44
3, 72960, Note_on_c, 0, 60, 52
3, 73020, Note_on_c, 0, 60, 0
3, 73020, Note_on_c, 0, 58, 0
3, 73020, Note_on_c, 0, 52, 0
3, 73080, Note_on_c, 0, 60, 59
3, 73080, Note_on_c, 0, 58, 50
3, 73080, Note_on_c, 0, 52, 50
3, 73140, Note_on_c, 0, 52, 0
3, 73140, Note_on_c, 0, 58, 0
3, 73140, Note_on_c, 0, 60, 0
3, 73200, Note_on_c, 0, 52, 44
3, 73200, Note_on_c, 0, 58, 44
3, 73200, Note_on_c, 0, 60, 52
3, 73260, Note_on_c, 0, 60, 0
3, 73260, Note_on_c, 0, 58, 0
3, 73260, Note_on_c, 0, 52, 0
3, 73320, Note_on_c, 0, 52, 44
3, 73320, Note_on_c, 0, 58, 44
3, 73320, Note_on_c, 0, 60, 52
3, 73380, Note_on_c, 0, 60, 0
3, 73380, Note_on_c, 0, 58, 0
3, 73380, Note_on_c, 0, 52, 0
3, 73440, Note_on_c, 0, 51, 65
3, 73560, Note_on_c, 0, 51, 0
3, 73560, Note_on_c, 0, 53, 37
3, 73560, Note_on_c, 0, 57, 37
3, 73560, Note_on_c, 0, 60, 52
3, 73620, Note_on_c, 0, 60, 0
3, 73620, Note_on_c, 0, 57, 0
3, 73620, Note_on_c, 0, 53, 0
3, 73680, Note_on_c, 0, 53, 37
3, 73680, Note_on_c, 0, 57, 37
3, 73680, Note_on_c, 0, 60, 52
3, 73740, Note_on_c, 0, 60, 0
3, 73740, Note_on_c, 0, 57, 0
3, 73740, Note_on_c, 0, 53, 0
3, 73800, Note_on_c, 0, 50, 59
3, 73920, Note_on_c, 0, 50, 0
3, 73920, Note_on_c, 0, 53, 37
3, 73920, Note_on_c, 0, 58, 52
3, 73980, Note_on_c, 0, 58, 0
3, 73980, Note_on_c, 0, 53, 0
3, 74040, Note_on_c, 0, 53, 37
3, 74040, Note_on_c, 0, 58, 52
3, 74100, Note_on_c, 0, 58, 0
3, 74100, Note_on_c, 0, 53, 0
3, 74160, Note_on_c, 0, 48, 65
3, 74280, Note_on_c, 0, 48, 0
3, 74280, Note_on_c, 0, 55, 37
3, 74280, Note_on_c, 0, 58, 37
3, 74280, Note_on_c, 0, 60, 52
3, 74340, Note_on_c, 0, 60, 0
3, 74340, Note_on_c, 0, 58, 0
3, 74340, Note_on_c, 0, 55, 0
3, 74400, Note_on_c, 0, 55, 37
3, 74400, Note_on_c, 0, 58, 37
3, 74400, Note_on_c, 0, 60, 52
3, 74460, Note_on_c, 0, 60, 0
3, 74460, Note_on_c, 0, 58, 0
3, 74460, Note_on_c, 0, 55, 0
3, 74520, Note_on_c, 0, 51, 59
3, 74640, Note_on_c, 0, 51, 0
3, 74640, Note_on_c, 0, 57, 37
3, 74640, Note_on_c, 0, 53, 37
3, 74640, Note_on_c, 0, 60, 52
3, 74700, Note_on_c, 0, 60, 0
3, 74700, Note_on_c, 0, 53, 0
3, 74700, Note_on_c, 0, 57, 0
3, 74760, Note_on_c, 0, 57, 37
3, 74760, Note_on_c, 0, 53, 37
3, 74760, Note_on_c, 0, 60, 52
3, 74820, Note_on_c, 0, 60, 0
3, 74820, Note_on_c, 0, 53, 0
3, 74820, Note_on_c, 0, 57, 0
3, 74880, Note_on_c, 0, 50, 61
3, 75000, Note_on_c, 0, 50, 0
3, 75000, Note_on_c, 0, 58, 53
3, 75000, Note_on_c, 0, 62, 53
3, 75060, Note_on_c, 0, 62, 0
3, 75060, Note_on_c, 0, 58, 0
3, 75120, Note_on_c, 0, 62, 52
3, 75120, Note_on_c, 0, 58, 52
3, 75180, Note_on_c, 0, 58, 0
3, 75180, Note_on_c, 0, 62, 0
3, 75240, Note_on_c, 0, 58, 60
3, 75240, Note_on_c, 0, 62, 60
3, 75300, Note_on_c, 0, 62, 0
3, 75300, Note_on_c, 0, 58, 0
3, 75360, Note_on_c, 0, 62, 55
3, 75360, Note_on_c, 0, 58, 55
3, 75420, Note_on_c, 0, 58, 0
3, 75420, Note_on_c, 0, 62, 0
3, 75480, Note_on_c, 0, 62, 56
3, 75480, Note_on_c, 0, 58, 56
3, 75540, Note_on_c, 0, 58, 0
3, 75540, Note_on_c, 0, 62, 0
3, 75600, Note_on_c, 0, 62, 67
3, 75600, Note_on_c, 0, 58, 64
3, 75720, Note_on_c, 0, 58, 0
3, 75720, Note_on_c, 0, 62, 0
3, 75720, Note_on_c, 0, 58, 58
3, 75720, Note_on_c, 0, 62, 58
3, 75780, Note_on_c, 0, 62, 0
3, 75780, Note_on_c, 0, 58, 0
3, 75840, Note_on_c, 0, 62, 57
3, 75840, Note_on_c, 0, 58, 57
3, 75900, Note_on_c, 0, 58, 0
3, 75900, Note_on_c, 0, 62, 0
3, 75960, Note_on_c, 0, 58, 66
3, 75960, Note_on_c, 0, 62, 66
3, 76020, Note_on_c, 0, 62, 0
3, 76020, Note_on_c, 0, 58, 0
3, 76080, Note_on_c, 0, 62, 60
3, 76080, Note_on_c, 0, 58, 60
3, 76140, Note_on_c, 0, 58, 0
3, 76140, Note_on_c, 0, 62, 0
3, 76200, Note_on_c, 0, 62, 61
3, 76200, Note_on_c, 0, 58, 61
3, 76260, Note_on_c, 0, 58, 0
3, 76260, Note_on_c, 0, 62, 0
3, 76320, Note_on_c, 0, 51, 70
3, 76320, Note_on_c, 0, 61, 73
3, 76320, Note_on_c, 0, 58, 70
3, 76440, Note_on_c, 0, 58, 0
3, 76440, Note_on_c, 0, 61, 0
3, 76440, Note_on_c, 0, 51, 0
3, 76440, Note_on_c, 0, 51, 62
3, 76440, Note_on_c, 0, 58, 62
3, 76440, Note_on_c, 0, 61, 62
3, 76500, Note_on_c, 0, 61, 0
3, 76500, Note_on_c, 0, 58, 0
3, 76500, Note_on_c, 0, 51, 0
3, 76560, Note_on_c, 0, 51, 61
3, 76560, Note_on_c, 0, 61, 61
3, 76560, Note_on_c, 0, 58, 61
3, 76620, Note_on_c, 0, 58, 0
3, 76620, Note_on_c, 0, 61, 0
3, 76620, Note_on_c, 0, 51, 0
3, 76680, Note_on_c, 0, 51, 68
3, 76680, Note_on_c, 0, 58, 68
3, 76680, Note_on_c, 0, 61, 68
3, 76740, Note_on_c, 0, 61, 0
3, 76740, Note_on_c, 0, 58, 0
3, 76740, Note_on_c, 0, 51, 0
3, 76800, Note_on_c, 0, 51, 62
3, 76800, Note_on_c, 0, 61, 62
3, 76800, Note_on_c, 0, 58, 62
3, 76860, Note_on_c, 0, 58, 0
3, 76860, Note_on_c, 0, 61, 0
3, 76860, Note_on_c, 0, 51, 0
3, 76920, Note_on_c, 0, 51, 62
3, 76920, Note_on_c, 0, 61, 62
3, 76920, Note_on_c, 0, 58, 62
3, 76980, Note_on_c, 0, 58, 0
3, 76980, Note_on_c, 0, 61, 0
3, 76980, Note_on_c, 0, 51, 0
3, 77040, Note_on_c, 0, 60, 65
3, 77040, Note_on_c, 0, 58, 55
3, 77040, Note_on_c, 0, 52, 55
3, 77100, Note_on_c, 0, 52, 0
3, 77100, Note_on_c, 0, 58, 0
3, 77100, Note_on_c, 0, 60, 0
3, 77160, Note_on_c, 0, 52, 44
3, 77160, Note_on_c, 0, 58, 44
3, 77160, Note_on_c, 0, 60, 52
3, 77220, Note_on_c, 0, 60, 0
3, 77220, Note_on_c, 0, 58, 0
3, 77220, Note_on_c, 0, 52, 0
3, 77280, Note_on_c, 0, 52, 44
3, 77280, Note_on_c, 0, 58, 44
3, 77280, Note_on_c, 0, 60, 52
3, 77340, Note_on_c, 0, 60, 0
3, 77340, Note_on_c, 0, 58, 0
3, 77340, Note_on_c, 0, 52, 0
3, 77400, Note_on_c, 0, 60, 59
3, 77400, Note_on_c, 0, 58, 50
3, 77400, Note_on_c, 0, 52, 50
3, 77460, Note_on_c, 0, 52, 0
3, 77460, Note_on_c, 0, 58, 0
3, 77460, Note_on_c, 0, 60, 0
3, 77520, Note_on_c, 0, 52, 44
3, 77520, Note_on_c, 0, 58, 44
3, 77520, Note_on_c, 0, 60, 52
3, 77580, Note_on_c, 0, 60, 0
3, 77580, Note_on_c, 0, 58, 0
3, 77580, Note_on_c, 0, 52, 0
3, 77640, Note_on_c, 0, 52, 44
3, 77640, Note_on_c, 0, 58, 44
3, 77640, Note_on_c, 0, 60, 52
3, 77700, Note_on_c, 0, 60, 0
3, 77700, Note_on_c, 0, 58, 0
3, 77700, Note_on_c, 0, 52, 0
3, 77760, Note_on_c, 0, 51, 65
3, 77880, Note_on_c, 0, 51, 0
3, 77880, Note_on_c, 0, 53, 31
3, 77880, Note_on_c, 0, 57, 31
3, 77880, Note_on_c, 0, 60, 44
3, 77940, Note_on_c, 0, 60, 0
3, 77940, Note_on_c, 0, 57, 0
3, 77940, Note_on_c, 0, 53, 0
3, 78000, Note_on_c, 0, 53, 31
3, 78000, Note_on_c, 0, 57, 31
3, 78000, Note_on_c, 0, 60, 44
3, 78060, Note_on_c, 0, 60, 0
3, 78060, Note_on_c, 0, 57, 0
3, 78060, Note_on_c, 0, 53, 0
3, 78120, Note_on_c, 0, 50, 59
3, 78240, Note_on_c, 0, 50, 0
3, 78240, Note_on_c, 0, 53, 37
3, 78240, Note_on_c, 0, 58, 52
3, 78300, Note_on_c, 0, 58, 0
3, 78300, Note_on_c, 0, 53, 0
3, 78360, Note_on_c, 0, 53, 37
3, 78360, Note_on_c, 0, 58, 52
3, 78420, Note_on_c, 0, 58, 0
3, 78420, Note_on_c, 0, 53, 0
3, 78480, Note_on_c, 0, 48, 65
3, 78600, Note_on_c, 0, 48, 0
3, 78600, Note_on_c, 0, 55, 31
3, 78600, Note_on_c, 0, 58, 31
3, 78600, Note_on_c, 0, 60, 44
3, 78660, Note_on_c, 0, 60, 0
3, 78660, Note_on_c, 0, 58, 0
3, 78660, Note_on_c, 0, 55, 0
3, 78720, Note_on_c, 0, 55, 31
3, 78720, Note_on_c, 0, 58, 31
3, 78720, Note_on_c, 0, 60, 44
3, 78780, Note_on_c, 0, 60, 0
3, 78780, Note_on_c, 0, 58, 0
3, 78780, Note_on_c, 0, 55, 0
3, 78840, Note_on_c, 0, 53, 59
3, 78960, Note_on_c, 0, 53, 0
3, 78960, Note_on_c, 0, 60, 31
3, 78960, Note_on_c, 0, 57, 31
3, 78960, Note_on_c, 0, 63, 44
3, 79020, Note_on_c, 0, 63, 0
3, 79020, Note_on_c, 0, 57, 0
3, 79020, Note_on_c, 0, 60, 0
3, 79080, Note_on_c, 0, 63, 42
3, 79080, Note_on_c, 0, 57, 35
3, 79080, Note_on_c, 0, 60, 35
3, 79140, Note_on_c, 0, 60, 0
3, 79140, Note_on_c, 0, 57, 0
3, 79140, Note_on_c, 0, 63, 0
3, 79200, Note_on_c, 0, 58, 53
3, 79320, Note_on_c, 0, 58, 0
3, 79320, Note_on_c, 0, 62, 45
3, 79380, Note_on_c, 0, 62, 0
3, 79440, Note_on_c, 0, 62, 45
3, 79500, Note_on_c, 0, 62, 0
3, 79560, Note_on_c, 0, 50, 53
3, 79680, Note_on_c, 0, 50, 0
3, 79680, Note_on_c, 0, 53, 45
3, 79740, Note_on_c, 0, 53, 0
3, 79800, Note_on_c, 0, 53, 49
3, 79860, Note_on_c, 0, 53, 0
3, 79920, Note_on_c, 0, 45, 55
3, 80160, Note_on_c, 0, 45, 0
3, 80280, Note_on_c, 0, 29, 45
3, 80280, Note_on_c, 0, 41, 45
3, 80520, Note_on_c, 0, 41, 0
3, 80520, Note_on_c, 0, 29, 0
3, 80640, Note_on_c, 0, 34, 59
3, 80640, Note_on_c, 0, 46, 59
3, 80880, Note_on_c, 0, 46, 0
3, 80880, Note_on_c, 0, 34, 0
3, 81000, Note_on_c, 0, 38, 50
3, 81000, Note_on_c, 0, 50, 50
3, 81240, Note_on_c, 0, 50, 0
3, 81240, Note_on_c, 0, 38, 0
3, 81360, Note_on_c, 0, 33, 66
3, 81360, Note_on_c, 0, 45, 66
3, 81600, Note_on_c, 0, 45, 0
3, 81600, Note_on_c, 0, 33, 0
3, 81720, Note_on_c, 0, 29, 55
3, 81720, Note_on_c, 0, 41, 55
3, 81960, Note_on_c, 0, 41, 0
3, 81960, Note_on_c, 0, 29, 0
3, 82080, Note_on_c, 0, 34, 73
3, 82080, Note_on_c, 0, 46, 73
3, 82320, Note_on_c, 0, 46, 0
3, 82320, Note_on_c, 0, 34, 0
3, 82440, Note_on_c, 0, 38, 61
3, 82440, Note_on_c, 0, 50, 61
3, 82680, Note_on_c, 0, 50, 0
3, 82680, Note_on_c, 0, 38, 0
3, 82800, Note_on_c, 0, 45, 70
3, 82920, Note_on_c, 0, 45, 0
3, 82920, Note_on_c, 0, 51, 60
3, 82920, Note_on_c, 0, 53, 60
3, 82980, Note_on_c, 0, 53, 0
3, 82980, Note_on_c, 0, 51, 0
3, 83040, Note_on_c, 0, 53, 59
3, 83040, Note_on_c, 0, 51, 59
3, 83100, Note_on_c, 0, 51, 0
3, 83100, Note_on_c, 0, 53, 0
3, 83160, Note_on_c, 0, 50, 75
3, 83280, Note_on_c, 0, 50, 0
3, 83280, Note_on_c, 0, 53, 63
3, 83280, Note_on_c, 0, 51, 63
3, 83340, Note_on_c, 0, 51, 0
3, 83340, Note_on_c, 0, 53, 0
3, 83400, Note_on_c, 0, 53, 67
3, 83400, Note_on_c, 0, 51, 67
3, 83460, Note_on_c, 0, 51, 0
3, 83460, Note_on_c, 0, 53, 0
3, 83520, Note_on_c, 0, 48, 75
3, 83640, Note_on_c, 0, 48, 0
3, 83640, Note_on_c, 0, 51, 64
3, 83640, Note_on_c, 0, 53, 64
3, 83700, Note_on_c, 0, 53, 0
3, 83700, Note_on_c, 0, 51, 0
3, 83760, Note_on_c, 0, 53, 64
3, 83760, Note_on_c, 0, 51, 64
3, 83820, Note_on_c, 0, 51, 0
3, 83820, Note_on_c, 0, 53, 0
3, 83880, Note_on_c, 0, 50, 81
3, 84000, Note_on_c, 0, 50, 0
3, 84000, Note_on_c, 0, 53, 68
3, 84000, Note_on_c, 0, 51, 68
3, 84060, Note_on_c, 0, 51, 0
3, 84060, Note_on_c, 0, 53, 0
3, 84120, Note_on_c, 0, 53, 72
3, 84120, Note_on_c, 0, 51, 72
3, 84180, Note_on_c, 0, 51, 0
3, 84180, Note_on_c, 0, 53, 0
3, 84240, Note_on_c, 0, 45, 81
3, 84360, Note_on_c, 0, 45, 0
3, 84360, Note_on_c, 0, 51, 69
3, 84360, Note_on_c, 0, 53, 69
3, 84420, Note_on_c, 0, 53, 0
3, 84420, Note_on_c, 0, 51, 0
3, 84480, Note_on_c, 0, 53, 69
3, 84480, Note_on_c, 0, 51, 69
3, 84540, Note_on_c, 0, 51, 0
3, 84540, Note_on_c, 0, 53, 0
3, 84600, Note_on_c, 0, 43, 86
3, 84720, Note_on_c, 0, 43, 0
3, 84720, Note_on_c, 0, 55, 72
3, 84720, Note_on_c, 0, 51, 72
3, 84780, Note_on_c, 0, 51, 0
3, 84780, Note_on_c, 0, 55, 0
3, 84840, Note_on_c, 0, 55, 74
3, 84840, Note_on_c, 0, 51, 74
3, 84900, Note_on_c, 0, 51, 0
3, 84900, Note_on_c, 0, 55, 0
3, 84960, Note_on_c, 0, 41, 79
3, 85080, Note_on_c, 0, 41, 0
3, 85080, Note_on_c, 0, 57, 78
3, 85080, Note_on_c, 0, 51, 66
3, 85080, Note_on_c, 0, 48, 66
3, 85170, Note_on_c, 0, 48, 0
3, 85170, Note_on_c, 0, 51, 0
3, 85170, Note_on_c, 0, 57, 0
3, 85200, Note_on_c, 0, 57, 78
3, 85200, Note_on_c, 0, 51, 66
3, 85200, Note_on_c, 0, 48, 66
3, 85290, Note_on_c, 0, 48, 0
3, 85290, Note_on_c, 0, 51, 0
3, 85290, Note_on_c, 0, 57, 0
3, 85320, Note_on_c, 0, 48, 73
3, 85320, Note_on_c, 0, 51, 73
3, 85320, Note_on_c, 0, 57, 86
3, 85410, Note_on_c, 0, 57, 0
3, 85410, Note_on_c, 0, 51, 0
3, 85410, Note_on_c, 0, 48, 0
3, 85440, Note_on_c, 0, 57, 79
3, 85440, Note_on_c, 0, 51, 67
3, 85440, Note_on_c, 0, 48, 67
3, 85530, Note_on_c, 0, 48, 0
3, 85530, Note_on_c, 0, 51, 0
3, 85530, Note_on_c, 0, 57, 0
3, 85560, Note_on_c, 0, 57, 79
3, 85560, Note_on_c, 0, 51, 67
3, 85560, Note_on_c, 0, 48, 67
3, 85650, Note_on_c, 0, 48, 0
3, 85650, Note_on_c, 0, 51, 0
3, 85650, Note_on_c, 0, 57, 0
3, 85680, Note_on_c, 0, 48, 73
3, 85680, Note_on_c, 0, 51, 73
3, 85680, Note_on_c, 0, 57, 86
3, 85770, Note_on_c, 0, 57, 0
3, 85770, Note_on_c, 0, 51, 0
3, 85770, Note_on_c, 0, 48, 0
3, 85800, Note_on_c, 0, 57, 80
3, 85800, Note_on_c, 0, 51, 68
3, 85800, Note_on_c, 0, 48, 68
3, 85890, Note_on_c, 0, 48, 0
3, 85890, Note_on_c, 0, 51, 0
3, 85890, Note_on_c, 0, 57, 0
3, 85920, Note_on_c, 0, 57, 80
3, 85920, Note_on_c, 0, 51, 68
3, 85920, Note_on_c, 0, 48, 68
3, 86010, Note_on_c, 0, 48, 0
3, 86010, Note_on_c, 0, 51, 0
3, 86010, Note_on_c, 0, 57, 0
3, 86040, Note_on_c, 0, 48, 73
3, 86040, Note_on_c, 0, 51, 73
3, 86040, Note_on_c, 0, 57, 86
3, 86130, Note_on_c, 0, 57, 0
3, 86130, Note_on_c, 0, 51, 0
3, 86130, Note_on_c, 0, 48, 0
3, 86160, Note_on_c, 0, 57, 81
3, 86160, Note_on_c, 0, 51, 68
3, 86160, Note_on_c, 0, 48, 68
3, 86250, Note_on_c, 0, 48, 0
3, 86250, Note_on_c, 0, 51, 0
3, 86250, Note_on_c, 0, 57, 0
3, 86280, Note_on_c, 0, 57, 81
3, 86280, Note_on_c, 0, 51, 68
3, 86280, Note_on_c, 0, 48, 68
3, 86370, Note_on_c, 0, 48, 0
3, 86370, Note_on_c, 0, 51, 0
3, 86370, Note_on_c, 0, 57, 0
3, 86400, Note_on_c, 0, 41, 73
3, 86400, Note_on_c, 0, 51, 86
3, 86490, Note_on_c, 0, 51, 0
3, 86490, Note_on_c, 0, 41, 0
3, 86520, Note_on_c, 0, 51, 81
3, 86520, Note_on_c, 0, 41, 68
3, 86610, Note_on_c, 0, 41, 0
3, 86610, Note_on_c, 0, 51, 0
3, 86640, Note_on_c, 0, 51, 82
3, 86640, Note_on_c, 0, 41, 69
3, 86730, Note_on_c, 0, 41, 0
3, 86730, Note_on_c, 0, 51, 0
3, 86760, Note_on_c, 0, 41, 73
3, 86760, Note_on_c, 0, 51, 86
3, 86850, Note_on_c, 0, 51, 0
3, 86850, Note_on_c, 0, 41, 0
3, 86880, Note_on_c, 0, 51, 81
3, 86880, Note_on_c, 0, 41, 68
3, 86970, Note_on_c, 0, 41, 0
3, 86970, Note_on_c, 0, 51, 0
3, 87000, Note_on_c, 0, 51, 81
3, 87000, Note_on_c, 0, 41, 68
3, 87090, Note_on_c, 0, 41, 0
3, 87090, Note_on_c, 0, 51, 0
3, 87120, Note_on_c, 0, 46, 73
3, 87120, Note_on_c, 0, 50, 86
3, 87300, Note_on_c, 0, 50, 0
3, 87300, Note_on_c, 0, 46, 0
3, 87480, Note_on_c, 0, 46, 73
3, 87480, Note_on_c, 0, 50, 86
3, 87660, Note_on_c, 0, 50, 0
3, 87660, Note_on_c, 0, 46, 0
3, 87840, Note_on_c, 0, 46, 73
3, 87840, Note_on_c, 0, 50, 86
3, 88020, Note_on_c, 0, 50, 0
3, 88020, Note_on_c, 0, 46, 0
3, 88200, Note_on_c, 0, 46, 73
3, 88200, Note_on_c, 0, 53, 73
3, 88200, Note_on_c, 0, 58, 86
3, 88380, Note_on_c, 0, 58, 0
3, 88380, Note_on_c, 0, 53, 0
3, 88380, Note_on_c, 0, 46, 0
3, 88560, Note_on_c, 0, 46, 73
3, 88560, Note_on_c, 0, 53, 73
3, 88560, Note_on_c, 0, 58, 86
3, 88800, Note_on_c, 0, 58, 0
3, 88800, Note_on_c, 0, 53, 0
3, 88800, Note_on_c, 0, 46, 0
3, 89280, Note_on_c, 0, 53, 73
3, 89280, Note_on_c, 0, 58, 73
3, 89280, Note_on_c, 0, 62, 86
3, 89520, Note_on_c, 0, 62, 0
3, 89520, Note_on_c, 0, 58, 0
3, 89520, Note_on_c, 0, 53, 0
3, 90000, Note_on_c, 0, 34, 107
3, 90240, Note_on_c, 0, 34, 0
3, 90240, End_track
4, 0, Start_track
4, 0, Title_t, "Pedale"
4, 0, Program_c, 0, 0
4, 784, Control_c, 0, 64, 127
4, 974, Control_c, 0, 64, 0
4, 1140, Control_c, 0, 64, 127
4, 1334, Control_c, 0, 64, 0
4, 1486, Control_c, 0, 64, 127
4, 1699, Control_c, 0, 64, 0
4, 1860, Control_c, 0, 64, 127
4, 2061, Control_c, 0, 64, 0
4, 2196, Control_c, 0, 64, 127
4, 2425, Control_c, 0, 64, 0
4, 2598, Control_c, 0, 64, 127
4, 2774, Control_c, 0, 64, 0
4, 2930, Control_c, 0, 64, 127
4, 3131, Control_c, 0, 64, 0
4, 3635, Control_c, 0, 64, 127
4, 3989, Control_c, 0, 64, 0
4, 4032, Control_c, 0, 64, 127
4, 4208, Control_c, 0, 64, 0
4, 4355, Control_c, 0, 64, 127
4, 4449, Control_c, 0, 64, 0
4, 4735, Control_c, 0, 64, 127
4, 4826, Control_c, 0, 64, 0
4, 5065, Control_c, 0, 64, 127
4, 5418, Control_c, 0, 64, 0
4, 5457, Control_c, 0, 64, 127
4, 5760, Control_c, 0, 64, 0
4, 5820, Control_c, 0, 64, 127
4, 6152, Control_c, 0, 64, 0
4, 6498, Control_c, 0, 64, 127
4, 6738, Control_c, 0, 64, 0
4, 6886, Control_c, 0, 64, 127
4, 7094, Control_c, 0, 64, 0
4, 7246, Control_c, 0, 64, 127
4, 7469, Control_c, 0, 64, 0
4, 7588, Control_c, 0, 64, 127
4, 7819, Control_c, 0, 64, 0
4, 7991, Control_c, 0, 64, 127
4, 8298, Control_c, 0, 64, 0
4, 8351, Control_c, 0, 64, 127
4, 8528, Control_c, 0, 64, 0
4, 8679, Control_c, 0, 64, 127
4, 9024, Control_c, 0, 64, 0
4, 9064, Control_c, 0, 64, 127
4, 9369, Control_c, 0, 64, 0
4, 9454, Control_c, 0, 64, 127
4, 9745, Control_c, 0, 64, 0
4, 9847, Control_c, 0, 64, 127
4, 10094, Control_c, 0, 64, 0
4, 10160, Control_c, 0, 64, 127
4, 10461, Control_c, 0, 64, 0
4, 10527, Control_c, 0, 64, 127
4, 10819, Control_c, 0, 64, 0
4, 10894, Control_c, 0, 64, 127
4, 11176, Control_c, 0, 64, 0
4, 11247, Control_c, 0, 64, 127
4, 11537, Control_c, 0, 64, 0
4, 11583, Control_c, 0, 64, 127
4, 11899, Control_c, 0, 64, 0
4, 11955, Control_c, 0, 64, 127
4, 12253, Control_c, 0, 64, 0
4, 12347, Control_c, 0, 64, 127
4, 12617, Control_c, 0, 64, 0
4, 12687, Control_c, 0, 64, 127
4, 12966, Control_c, 0, 64, 0
4, 13744, Control_c, 0, 64, 127
4, 13934, Control_c, 0, 64, 0
4, 14100, Control_c, 0, 64, 127
4, 14294, Control_c, 0, 64, 0
4, 14446, Control_c, 0, 64, 127
4, 14659, Control_c, 0, 64, 0
4, 14820, Control_c, 0, 64, 127
4, 15021, Control_c, 0, 64, 0
4, 15156, Control_c, 0, 64, 127
4, 15385, Control_c, 0, 64, 0
4, 15558, Control_c, 0, 64, 127
4, 15734, Control_c, 0, 64, 0
4, 15890, Control_c, 0, 64, 127
4, 16091, Control_c, 0, 64, 0
4, 16595, Control_c, 0, 64, 127
4, 16949, Control_c, 0, 64, 0
4, 16992, Control_c, 0, 64, 127
4, 17168, Control_c, 0, 64, 0
4, 17315, Control_c, 0, 64, 127
4, 17409, Control_c, 0, 64, 0
4, 17695, Control_c, 0, 64, 127
4, 17786, Control_c, 0, 64, 0
4, 18025, Control_c, 0, 64, 127
4, 18378, Control_c, 0, 64, 0
4, 18417, Control_c, 0, 64, 127
4, 18720, Control_c, 0, 64, 0
4, 18780, Control_c, 0, 64, 127
4, 19112, Control_c, 0, 64, 0
4, 19458, Control_c, 0, 64, 127
4, 19698, Control_c, 0, 64, 0
4, 19846, Control_c, 0, 64, 127
4, 20054, Control_c, 0, 64, 0
4, 20206, Control_c, 0, 64, 127
4, 20429, Control_c, 0, 64, 0
4, 20548, Control_c, 0, 64, 127
4, 20779, Control_c, 0, 64, 0
4, 20951, Control_c, 0, 64, 127
4, 21258, Control_c, 0, 64, 0
4, 21311, Control_c, 0, 64, 127
4, 21488, Control_c, 0, 64, 0
4, 21639, Control_c, 0, 64, 127
4, 21984, Control_c, 0, 64, 0
4, 22024, Control_c, 0, 64, 127
4, 22329, Control_c, 0, 64, 0
4, 22414, Control_c, 0, 64, 127
4, 22705, Control_c, 0, 64, 0
4, 22807, Control_c, 0, 64, 127
4, 23054, Control_c, 0, 64, 0
4, 23120, Control_c, 0, 64, 127
4, 23421, Control_c, 0, 64, 0
4, 23487, Control_c, 0, 64, 127
4, 23779, Control_c, 0, 64, 0
4, 23854, Control_c, 0, 64, 127
4, 24136, Control_c, 0, 64, 0
4, 24207, Control_c, 0, 64, 127
4, 24497, Control_c, 0, 64, 0
4, 24543, Control_c, 0, 64, 127
4, 24859, Control_c, 0, 64, 0
4, 24915, Control_c, 0, 64, 127
4, 25213, Control_c, 0, 64, 0
4, 25307, Control_c, 0, 64, 127
4, 25577, Control_c, 0, 64, 0
4, 25647, Control_c, 0, 64, 127
4, 25926, Control_c, 0, 64, 0
4, 26704, Control_c, 0, 64, 127
4, 26785, Control_c, 0, 64, 0
4, 27060, Control_c, 0, 64, 127
4, 27152, Control_c, 0, 64, 0
4, 27399, Control_c, 0, 64, 127
4, 27519, Control_c, 0, 64, 0
4, 27780, Control_c, 0, 64, 127
4, 27876, Control_c, 0, 64, 0
4, 28144, Control_c, 0, 64, 127
4, 28225, Control_c, 0, 64, 0
4, 28500, Control_c, 0, 64, 127
4, 28592, Control_c, 0, 64, 0
4, 28839, Control_c, 0, 64, 127
4, 28959, Control_c, 0, 64, 0
4, 29220, Control_c, 0, 64, 127
4, 29316, Control_c, 0, 64, 0
4, 29584, Control_c, 0, 64, 127
4, 29665, Control_c, 0, 64, 0
4, 29940, Control_c, 0, 64, 127
4, 30032, Control_c, 0, 64, 0
4, 30279, Control_c, 0, 64, 127
4, 30399, Control_c, 0, 64, 0
4, 30660, Control_c, 0, 64, 127
4, 30756, Control_c, 0, 64, 0
4, 31024, Control_c, 0, 64, 127
4, 31105, Control_c, 0, 64, 0
4, 31380, Control_c, 0, 64, 127
4, 31472, Control_c, 0, 64, 0
4, 31719, Control_c, 0, 64, 127
4, 31839, Control_c, 0, 64, 0
4, 32100, Control_c, 0, 64, 127
4, 32196, Control_c, 0, 64, 0
4, 32439, Control_c, 0, 64, 127
4, 32559, Control_c, 0, 64, 0
4, 32820, Control_c, 0, 64, 127
4, 32916, Control_c, 0, 64, 0
4, 33159, Control_c, 0, 64, 127
4, 33279, Control_c, 0, 64, 0
4, 33540, Control_c, 0, 64, 127
4, 33636, Control_c, 0, 64, 0
4, 33879, Control_c, 0, 64, 127
4, 33999, Control_c, 0, 64, 0
4, 34260, Control_c, 0, 64, 127
4, 34356, Control_c, 0, 64, 0
4, 34599, Control_c, 0, 64, 127
4, 34719, Control_c, 0, 64, 0
4, 34980, Control_c, 0, 64, 127
4, 35076, Control_c, 0, 64, 0
4, 35319, Control_c, 0, 64, 127
4, 35439, Control_c, 0, 64, 0
4, 35700, Control_c, 0, 64, 127
4, 35796, Control_c, 0, 64, 0
4, 36039, Control_c, 0, 64, 127
4, 36159, Control_c, 0, 64, 0
4, 36420, Control_c, 0, 64, 127
4, 36608, Control_c, 0, 64, 0
4, 36806, Control_c, 0, 64, 127
4, 36970, Control_c, 0, 64, 0
4, 37140, Control_c, 0, 64, 127
4, 37328, Control_c, 0, 64, 0
4, 37529, Control_c, 0, 64, 127
4, 37830, Control_c, 0, 64, 0
4, 37940, Control_c, 0, 64, 127
4, 38166, Control_c, 0, 64, 0
4, 38168, Control_c, 0, 64, 0
4, 38944, Control_c, 0, 64, 127
4, 39134, Control_c, 0, 64, 0
4, 39300, Control_c, 0, 64, 127
4, 39494, Control_c, 0, 64, 0
4, 39646, Control_c, 0, 64, 127
4, 39859, Control_c, 0, 64, 0
4, 40020, Control_c, 0, 64, 127
4, 40221, Control_c, 0, 64, 0
4, 40356, Control_c, 0, 64, 127
4, 40585, Control_c, 0, 64, 0
4, 40758, Control_c, 0, 64, 127
4, 40934, Control_c, 0, 64, 0
4, 41090, Control_c, 0, 64, 127
4, 41291, Control_c, 0, 64, 0
4, 41795, Control_c, 0, 64, 127
4, 42149, Control_c, 0, 64, 0
4, 42192, Control_c, 0, 64, 127
4, 42368, Control_c, 0, 64, 0
4, 42515, Control_c, 0, 64, 127
4, 42609, Control_c, 0, 64, 0
4, 42895, Control_c, 0, 64, 127
4, 42986, Control_c, 0, 64, 0
4, 43225, Control_c, 0, 64, 127
4, 43578, Control_c, 0, 64, 0
4, 43617, Control_c, 0, 64, 127
4, 43920, Control_c, 0, 64, 0
4, 43980, Control_c, 0, 64, 127
4, 44312, Control_c, 0, 64, 0
4, 44658, Control_c, 0, 64, 127
4, 44898, Control_c, 0, 64, 0
4, 45046, Control_c, 0, 64, 127
4, 45254, Control_c, 0, 64, 0
4, 45406, Control_c, 0, 64, 127
4, 45629, Control_c, 0, 64, 0
4, 45748, Control_c, 0, 64, 127
4, 45979, Control_c, 0, 64, 0
4, 46151, Control_c, 0, 64, 127
4, 46458, Control_c, 0, 64, 0
4, 46511, Control_c, 0, 64, 127
4, 46688, Control_c, 0, 64, 0
4, 46839, Control_c, 0, 64, 127
4, 47184, Control_c, 0, 64, 0
4, 47224, Control_c, 0, 64, 127
4, 47529, Control_c, 0, 64, 0
4, 47614, Control_c, 0, 64, 127
4, 47905, Control_c, 0, 64, 0
4, 48007, Control_c, 0, 64, 127
4, 48254, Control_c, 0, 64, 0
4, 48320, Control_c, 0, 64, 127
4, 48621, Control_c, 0, 64, 0
4, 48687, Control_c, 0, 64, 127
4, 48979, Control_c, 0, 64, 0
4, 49054, Control_c, 0, 64, 127
4, 49336, Control_c, 0, 64, 0
4, 49407, Control_c, 0, 64, 127
4, 49697, Control_c, 0, 64, 0
4, 49743, Control_c, 0, 64, 127
4, 50059, Control_c, 0, 64, 0
4, 50115, Control_c, 0, 64, 127
4, 50413, Control_c, 0, 64, 0
4, 50507, Control_c, 0, 64, 127
4, 50777, Control_c, 0, 64, 0
4, 50847, Control_c, 0, 64, 127
4, 51126, Control_c, 0, 64, 0
4, 51904, Control_c, 0, 64, 127
4, 51985, Control_c, 0, 64, 0
4, 52260, Control_c, 0, 64, 127
4, 52352, Control_c, 0, 64, 0
4, 52599, Control_c, 0, 64, 127
4, 52719, Control_c, 0, 64, 0
4, 52980, Control_c, 0, 64, 127
4, 53076, Control_c, 0, 64, 0
4, 53344, Control_c, 0, 64, 127
4, 53425, Control_c, 0, 64, 0
4, 53700, Control_c, 0, 64, 127
4, 53792, Control_c, 0, 64, 0
4, 54039, Control_c, 0, 64, 127
4, 54159, Control_c, 0, 64, 0
4, 54420, Control_c, 0, 64, 127
4, 54516, Control_c, 0, 64, 0
4, 54784, Control_c, 0, 64, 127
4, 54865, Control_c, 0, 64, 0
4, 55140, Control_c, 0, 64, 127
4, 55232, Control_c, 0, 64, 0
4, 55479, Control_c, 0, 64, 127
4, 55599, Control_c, 0, 64, 0
4, 55860, Control_c, 0, 64, 127
4, 55956, Control_c, 0, 64, 0
4, 56224, Control_c, 0, 64, 127
4, 56305, Control_c, 0, 64, 0
4, 56580, Control_c, 0, 64, 127
4, 56672, Control_c, 0, 64, 0
4, 56919, Control_c, 0, 64, 127
4, 57039, Control_c, 0, 64, 0
4, 57300, Control_c, 0, 64, 127
4, 57396, Control_c, 0, 64, 0
4, 57639, Control_c, 0, 64, 127
4, 57759, Control_c, 0, 64, 0
4, 58020, Control_c, 0, 64, 127
4, 58116, Control_c, 0, 64, 0
4, 58359, Control_c, 0, 64, 127
4, 58479, Control_c, 0, 64, 0
4, 58740, Control_c, 0, 64, 127
4, 58836, Control_c, 0, 64, 0
4, 59079, Control_c, 0, 64, 127
4, 59199, Control_c, 0, 64, 0
4, 59460, Control_c, 0, 64, 127
4, 59556, Control_c, 0, 64, 0
4, 59799, Control_c, 0, 64, 127
4, 59919, Control_c, 0, 64, 0
4, 60180, Control_c, 0, 64, 127
4, 60276, Control_c, 0, 64, 0
4, 60519, Control_c, 0, 64, 127
4, 60639, Control_c, 0, 64, 0
4, 60900, Control_c, 0, 64, 127
4, 60996, Control_c, 0, 64, 0
4, 61239, Control_c, 0, 64, 127
4, 61359, Control_c, 0, 64, 0
4, 61620, Control_c, 0, 64, 127
4, 61808, Control_c, 0, 64, 0
4, 62006, Control_c, 0, 64, 127
4, 62170, Control_c, 0, 64, 0
4, 62340, Control_c, 0, 64, 127
4, 62528, Control_c, 0, 64, 0
4, 62729, Control_c, 0, 64, 127
4, 63030, Control_c, 0, 64, 0
4, 63140, Control_c, 0, 64, 127
4, 63366, Control_c, 0, 64, 0
4, 63368, Control_c, 0, 64, 0
4, 64144, Control_c, 0, 64, 127
4, 64334, Control_c, 0, 64, 0
4, 64500, Control_c, 0, 64, 127
4, 64694, Control_c, 0, 64, 0
4, 64846, Control_c, 0, 64, 127
4, 65059, Control_c, 0, 64, 0
4, 65220, Control_c, 0, 64, 127
4, 65421, Control_c, 0, 64, 0
4, 65556, Control_c, 0, 64, 127
4, 65785, Control_c, 0, 64, 0
4, 65958, Control_c, 0, 64, 127
4, 66134, Control_c, 0, 64, 0
4, 66290, Control_c, 0, 64, 127
4, 66491, Control_c, 0, 64, 0
4, 66995, Control_c, 0, 64, 127
4, 67349, Control_c, 0, 64, 0
4, 67392, Control_c, 0, 64, 127
4, 67568, Control_c, 0, 64, 0
4, 67715, Control_c, 0, 64, 127
4, 67809, Control_c, 0, 64, 0
4, 68095, Control_c, 0, 64, 127
4, 68186, Control_c, 0, 64, 0
4, 68425, Control_c, 0, 64, 127
4, 68778, Control_c, 0, 64, 0
4, 68817, Control_c, 0, 64, 127
4, 69120, Control_c, 0, 64, 0
4, 69180, Control_c, 0, 64, 127
4, 69512, Control_c, 0, 64, 0
4, 69865, Control_c, 0, 64, 127
4, 70218, Control_c, 0, 64, 0
4, 70257, Control_c, 0, 64, 127
4, 70568, Control_c, 0, 64, 0
4, 70620, Control_c, 0, 64, 127
4, 70938, Control_c, 0, 64, 0
4, 70977, Control_c, 0, 64, 127
4, 71305, Control_c, 0, 64, 127
4, 71658, Control_c, 0, 64, 0
4, 71697, Control_c, 0, 64, 127
4, 72008, Control_c, 0, 64, 0
4, 72060, Control_c, 0, 64, 127
4, 72378, Control_c, 0, 64, 0
4, 72417, Control_c, 0, 64, 127
4, 72720, Control_c, 0, 64, 0
4, 73483, Control_c, 0, 64, 127
4, 73819, Control_c, 0, 64, 0
4, 73864, Control_c, 0, 64, 127
4, 74177, Control_c, 0, 64, 0
4, 74227, Control_c, 0, 64, 127
4, 74539, Control_c, 0, 64, 0
4, 74584, Control_c, 0, 64, 127
4, 74880, Control_c, 0, 64, 0
4, 74936, Control_c, 0, 64, 127
4, 75600, Control_c, 0, 64, 0
4, 75656, Control_c, 0, 64, 127
4, 76320, Control_c, 0, 64, 0
4, 76376, Control_c, 0, 64, 127
4, 77040, Control_c, 0, 64, 0
4, 77060, Control_c, 0, 64, 0
4, 77803, Control_c, 0, 64, 127
4, 78139, Control_c, 0, 64, 0
4, 78184, Control_c, 0, 64, 127
4, 78497, Control_c, 0, 64, 0
4, 78547, Control_c, 0, 64, 127
4, 78859, Control_c, 0, 64, 0
4, 78904, Control_c, 0, 64, 127
4, 79217, Control_c, 0, 64, 0
4, 79267, Control_c, 0, 64, 127
4, 79550, Control_c, 0, 64, 0
4, 79984, Control_c, 0, 64, 127
4, 80174, Control_c, 0, 64, 0
4, 80340, Control_c, 0, 64, 127
4, 80534, Control_c, 0, 64, 0
4, 80704, Control_c, 0, 64, 127
4, 80894, Control_c, 0, 64, 0
4, 81060, Control_c, 0, 64, 127
4, 81254, Control_c, 0, 64, 0
4, 81424, Control_c, 0, 64, 127
4, 81614, Control_c, 0, 64, 0
4, 81780, Control_c, 0, 64, 127
4, 81974, Control_c, 0, 64, 0
4, 82144, Control_c, 0, 64, 127
4, 82334, Control_c, 0, 64, 0
4, 82500, Control_c, 0, 64, 127
4, 82694, Control_c, 0, 64, 0
4, 82832, Control_c, 0, 64, 127
4, 83163, Control_c, 0, 64, 0
4, 83225, Control_c, 0, 64, 127
4, 83543, Control_c, 0, 64, 0
4, 83594, Control_c, 0, 64, 127
4, 83883, Control_c, 0, 64, 0
4, 83949, Control_c, 0, 64, 127
4, 84263, Control_c, 0, 64, 0
4, 84314, Control_c, 0, 64, 127
4, 84603, Control_c, 0, 64, 0
4, 84669, Control_c, 0, 64, 127
4, 84960, Control_c, 0, 64, 0
4, 88600, Control_c, 0, 64, 127
4, 90434, Control_c, 0, 64, 0
4, 90434, End_track
5, 0, Start_track
5, 0, Title_t, "Mendelssohn: Songs without words Opus 19 No. 6"
5, 0, End_track
6, 0, Start_track
6, 0, Title_t, "Copyright © 2010 by Bernd Krueger"
6, 0, End_track
7, 0, Start_track
7, 0, Title_t, "http://www.piano-midi.de/"
7, 0, End_track
8, 0, Start_track
8, 0, Title_t, "Edition: 2014-12-29"
8, 0, End_track
9, 0, Start_track
9, 0, Title_t, "Spur 8"
9, 0, End_track
10, 0, Start_track
10, 0, Title_t, "Spur 9"
10, 0, End_track
11, 0, Start_track
11, 0, Title_t, "Spur 10"
11, 0, End_track
12, 0, Start_track
12, 0, Title_t, "Spur 11"
12, 0, End_track
13, 0, Start_track
13, 0, Title_t, "Spur 12"
13, 0, End_track
14, 0, Start_track
14, 0, Title_t, "Spur 13"
14, 0, End_track
15, 0, Start_track
15, 0, Title_t, "Spur 14"
15, 0, End_track
16, 0, Start_track
16, 0, Title_t, "Spur 15"
16, 0, End_track
17, 0, Start_track
17, 0, Title_t, "Spur 16"
17, 0, End_track
0, 0, End_of_file
