0, 0, Header, 1, 17, 480
1, 0, Start_track
1, 0, Title_t, "Mendelssohn: Lieder ohne Worte Opus 19 Nr. 2"
1, 0, Copyright_t, "Copyright © 2010 by Bernd Krueger"
1, 0, Text_t, "Bernd Krueger"
1, 0, Text_t, "Andante expressivo"
1, 0, Text_t, "Erstellt: 9.10.2014\012"
1, 0, Text_t, "Dauer: 2:48 Minuten\012"
1, 0, Time_signature, 3, 3, 12, 8
1, 0, Key_signature, 0, "major"
1, 0, Tempo, 687128
1, 480, Tempo, 1224740
1, 2040, Tempo, 1330377
1, 2160, Tempo, 1209677
1, 2760, Tempo, 1273885
1, 2880, Tempo, 1209677
1, 3480, Tempo, 1360544
1, 3600, Tempo, 1197605
1, 4920, Tempo, 1287554
1, 5040, Tempo, 1197605
1, 5520, Tempo, 1234568
1, 5760, Tempo, 1315789
1, 5880, Tempo, 1247401
1, 6240, Tempo, 1224740
1, 6360, Tempo, 1360544
1, 6480, Tempo, 1221996
1, 7800, Tempo, 1345291
1, 7920, Tempo, 1221996
1, 8520, Tempo, 1287554
1, 8640, Tempo, 1234568
1, 9240, Tempo, 1345291
1, 9360, Tempo, 1234568
1, 9960, Tempo, 1197605
1, 10080, Tempo, 1197605
1, 10200, Tempo, 1247401
1, 10320, Tempo, 1234568
1, 11400, Tempo, 1185771
1, 11520, Tempo, 1209677
1, 11640, Tempo, 1301518
1, 11760, Tempo, 1247401
1, 12240, Tempo, 1247401
1, 12960, Tempo, 1287554
1, 13440, Tempo, 1301518
1, 13680, Tempo, 1234568
1, 14400, Tempo, 1247401
1, 14880, Tempo, 1315789
1, 15120, Tempo, 1234568
1, 15840, Tempo, 1287554
1, 16080, Tempo, 1234568
1, 16440, Tempo, 1345291
1, 16560, Tempo, 1234568
1, 17520, Tempo, 1273885
1, 17880, Tempo, 1360544
1, 18000, Tempo, 1209677
1, 18240, Tempo, 1234568
1, 19320, Tempo, 1301518
1, 19440, Tempo, 1234568
1, 20040, Tempo, 1301518
1, 20160, Tempo, 1234568
1, 20400, Tempo, 1287554
1, 20640, Tempo, 1330377
1, 20880, Tempo, 1234568
1, 21480, Tempo, 1330377
1, 21600, Tempo, 1234568
1, 22320, Tempo, 1234568
1, 22920, Tempo, 1301518
1, 23040, Tempo, 1209677
1, 23640, Tempo, 1287554
1, 23760, Tempo, 1174168
1, 24000, Tempo, 1197605
1, 24480, Tempo, 1209677
1, 25200, Tempo, 1197605
1, 25800, Tempo, 1234568
1, 25920, Tempo, 1209677
1, 26520, Tempo, 1287554
1, 26640, Tempo, 1162791
1, 26880, Tempo, 1185771
1, 27240, Tempo, 1209677
1, 27360, Tempo, 1185771
1, 27960, Tempo, 1287554
1, 28080, Tempo, 1174168
1, 28800, Tempo, 1315789
1, 28920, Tempo, 1247401
1, 29280, Tempo, 1224740
1, 30840, Tempo, 1330377
1, 30960, Tempo, 1209677
1, 31560, Tempo, 1273885
1, 31680, Tempo, 1209677
1, 32280, Tempo, 1360544
1, 32400, Tempo, 1197605
1, 33720, Tempo, 1287554
1, 33840, Tempo, 1197605
1, 34320, Tempo, 1234568
1, 34560, Tempo, 1315789
1, 34680, Tempo, 1247401
1, 35160, Tempo, 1315789
1, 35280, Tempo, 1221996
1, 35880, Tempo, 1273885
1, 36000, Tempo, 1221996
1, 36360, Tempo, 1315789
1, 36480, Tempo, 1234568
1, 36960, Tempo, 1185771
1, 37200, Tempo, 1209677
1, 37320, Tempo, 1273885
1, 37440, Tempo, 1209677
1, 38040, Tempo, 1260504
1, 38160, Tempo, 1197605
1, 38760, Tempo, 1273885
1, 38880, Tempo, 1197605
1, 39360, Tempo, 1260504
1, 39600, Tempo, 1234568
1, 40080, Tempo, 1273885
1, 40200, Tempo, 1330377
1, 40320, Tempo, 1221996
1, 40440, Tempo, 1273885
1, 40560, Tempo, 1209677
1, 40800, Tempo, 1247401
1, 40920, Tempo, 1260504
1, 41040, Tempo, 1221996
1, 41640, Tempo, 1273885
1, 41760, Tempo, 1221996
1, 42120, Tempo, 1315789
1, 42240, Tempo, 1247401
1, 42360, Tempo, 1260504
1, 42480, Tempo, 1221996
1, 43080, Tempo, 1273885
1, 43200, Tempo, 1221996
1, 43560, Tempo, 1234568
1, 43800, Tempo, 1273885
1, 43920, Tempo, 1221996
1, 44520, Tempo, 1330377
1, 44640, Tempo, 1234568
1, 45120, Tempo, 1260504
1, 45360, Tempo, 1247401
1, 45840, Tempo, 1273885
1, 45960, Tempo, 1315789
1, 46080, Tempo, 1209677
1, 46200, Tempo, 1174168
1, 46320, Tempo, 1234568
1, 46800, Tempo, 1234568
1, 46920, Tempo, 1174168
1, 47040, Tempo, 1234568
1, 47280, Tempo, 1185771
1, 47400, Tempo, 1260504
1, 47520, Tempo, 1234568
1, 48120, Tempo, 1301518
1, 48240, Tempo, 1247401
1, 48960, Tempo, 1260504
1, 49680, Tempo, 1247401
1, 50160, Tempo, 1260504
1, 50400, Tempo, 1234568
1, 50880, Tempo, 1260504
1, 51120, Tempo, 1247401
1, 51600, Tempo, 1301518
1, 51840, Tempo, 1247401
1, 52080, Tempo, 1185771
1, 52320, Tempo, 1221996
1, 52560, Tempo, 1247401
1, 52800, Tempo, 1197605
1, 53040, Tempo, 1247401
1, 53520, Tempo, 1234568
1, 53760, Tempo, 1260504
1, 54000, Tempo, 1197605
1, 54480, Tempo, 1301518
1, 54720, Tempo, 1260504
1, 54960, Tempo, 1209677
1, 55920, Tempo, 1260504
1, 56160, Tempo, 1221996
1, 56640, Tempo, 1330377
1, 56880, Tempo, 1209677
1, 57360, Tempo, 1273885
1, 57600, Tempo, 1247401
1, 58080, Tempo, 1273885
1, 58200, Tempo, 1376147
1, 58320, Tempo, 1260504
1, 59040, Tempo, 1197605
1, 59520, Tempo, 1247401
1, 59760, Tempo, 1197605
1, 60000, Tempo, 1247401
1, 60480, Tempo, 1273885
1, 60720, Tempo, 1287554
1, 60960, Tempo, 1360544
1, 61200, Tempo, 1209677
1, 61800, Tempo, 1315789
1, 61920, Tempo, 1247401
1, 62160, Tempo, 1197605
1, 62520, Tempo, 1315789
1, 62640, Tempo, 1234568
1, 63360, Tempo, 1260504
1, 64080, Tempo, 1260504
1, 64080, End_track
2, 0, Start_track
2, 0, Title_t, "Piano right"
2, 0, Program_c, 0, 0
2, 480, Note_on_c, 0, 76, 65
2, 720, Note_on_c, 0, 76, 0
2, 720, Note_on_c, 0, 74, 72
2, 960, Note_on_c, 0, 74, 0
2, 960, Note_on_c, 0, 72, 60
2, 1200, Note_on_c, 0, 72, 0
2, 1200, Note_on_c, 0, 71, 60
2, 1310, Note_on_c, 0, 71, 0
2, 1320, Note_on_c, 0, 71, 54
2, 1360, Note_on_c, 0, 71, 0
2, 1360, Note_on_c, 0, 72, 49
2, 1400, Note_on_c, 0, 72, 0
2, 1400, Note_on_c, 0, 74, 51
2, 1440, Note_on_c, 0, 74, 0
2, 1440, Note_on_c, 0, 72, 68
2, 1680, Note_on_c, 0, 72, 0
2, 1680, Note_on_c, 0, 71, 60
2, 1920, Note_on_c, 0, 71, 0
2, 1920, Note_on_c, 0, 69, 66
2, 2160, Note_on_c, 0, 77, 77
2, 2400, Note_on_c, 0, 77, 0
2, 2400, Note_on_c, 0, 69, 0
2, 2400, Note_on_c, 0, 77, 63
2, 2400, Note_on_c, 0, 69, 63
2, 2520, Note_on_c, 0, 69, 0
2, 2520, Note_on_c, 0, 77, 0
2, 2640, Note_on_c, 0, 77, 58
2, 2640, Note_on_c, 0, 71, 49
2, 2760, Note_on_c, 0, 71, 0
2, 2760, Note_on_c, 0, 77, 0
2, 2880, Note_on_c, 0, 71, 51
2, 2880, Note_on_c, 0, 77, 61
2, 3360, Note_on_c, 0, 77, 0
2, 3360, Note_on_c, 0, 71, 0
2, 3360, Note_on_c, 0, 72, 39
2, 3360, Note_on_c, 0, 76, 46
2, 3570, Note_on_c, 0, 76, 0
2, 3570, Note_on_c, 0, 72, 0
2, 3600, Note_on_c, 0, 76, 47
2, 3600, Note_on_c, 0, 81, 56
2, 4080, Note_on_c, 0, 81, 0
2, 4080, Note_on_c, 0, 76, 0
2, 4080, Note_on_c, 0, 80, 46
2, 4080, Note_on_c, 0, 74, 39
2, 4290, Note_on_c, 0, 74, 0
2, 4290, Note_on_c, 0, 80, 0
2, 4320, Note_on_c, 0, 72, 47
2, 4320, Note_on_c, 0, 77, 56
2, 4800, Note_on_c, 0, 77, 0
2, 4800, Note_on_c, 0, 72, 0
2, 4800, Note_on_c, 0, 71, 38
2, 4800, Note_on_c, 0, 76, 45
2, 5010, Note_on_c, 0, 76, 0
2, 5010, Note_on_c, 0, 71, 0
2, 5040, Note_on_c, 0, 71, 50
2, 5040, Note_on_c, 0, 68, 42
2, 5280, Note_on_c, 0, 68, 0
2, 5280, Note_on_c, 0, 71, 0
2, 5280, Note_on_c, 0, 74, 50
2, 5280, Note_on_c, 0, 71, 42
2, 5520, Note_on_c, 0, 71, 0
2, 5520, Note_on_c, 0, 74, 0
2, 5520, Note_on_c, 0, 72, 43
2, 5520, Note_on_c, 0, 69, 36
2, 5760, Note_on_c, 0, 69, 0
2, 5760, Note_on_c, 0, 72, 0
2, 5760, Note_on_c, 0, 71, 46
2, 5760, Note_on_c, 0, 68, 39
2, 6240, Note_on_c, 0, 68, 0
2, 6240, Note_on_c, 0, 71, 0
2, 6240, Note_on_c, 0, 76, 65
2, 6480, Note_on_c, 0, 76, 0
2, 6480, Note_on_c, 0, 74, 72
2, 6720, Note_on_c, 0, 74, 0
2, 6720, Note_on_c, 0, 72, 60
2, 6960, Note_on_c, 0, 72, 0
2, 6960, Note_on_c, 0, 71, 60
2, 7070, Note_on_c, 0, 71, 0
2, 7080, Note_on_c, 0, 71, 54
2, 7120, Note_on_c, 0, 71, 0
2, 7120, Note_on_c, 0, 72, 49
2, 7160, Note_on_c, 0, 72, 0
2, 7160, Note_on_c, 0, 74, 51
2, 7200, Note_on_c, 0, 74, 0
2, 7200, Note_on_c, 0, 72, 68
2, 7440, Note_on_c, 0, 72, 0
2, 7440, Note_on_c, 0, 71, 60
2, 7680, Note_on_c, 0, 71, 0
2, 7680, Note_on_c, 0, 69, 66
2, 7920, Note_on_c, 0, 69, 0
2, 7920, Note_on_c, 0, 77, 77
2, 8160, Note_on_c, 0, 77, 0
2, 8160, Note_on_c, 0, 77, 63
2, 8160, Note_on_c, 0, 72, 53
2, 8280, Note_on_c, 0, 72, 0
2, 8280, Note_on_c, 0, 77, 0
2, 8400, Note_on_c, 0, 77, 58
2, 8400, Note_on_c, 0, 71, 49
2, 8520, Note_on_c, 0, 71, 0
2, 8520, Note_on_c, 0, 77, 0
2, 8640, Note_on_c, 0, 71, 51
2, 8640, Note_on_c, 0, 77, 61
2, 9120, Note_on_c, 0, 77, 0
2, 9120, Note_on_c, 0, 71, 0
2, 9120, Note_on_c, 0, 72, 39
2, 9120, Note_on_c, 0, 76, 46
2, 9330, Note_on_c, 0, 76, 0
2, 9330, Note_on_c, 0, 72, 0
2, 9360, Note_on_c, 0, 69, 47
2, 9360, Note_on_c, 0, 76, 61
2, 9590, Note_on_c, 0, 76, 0
2, 9600, Note_on_c, 0, 76, 61
2, 9830, Note_on_c, 0, 76, 0
2, 9840, Note_on_c, 0, 69, 0
2, 9840, Note_on_c, 0, 71, 48
2, 9840, Note_on_c, 0, 76, 60
2, 10080, Note_on_c, 0, 76, 0
2, 10080, Note_on_c, 0, 71, 0
2, 10080, Note_on_c, 0, 72, 48
2, 10080, Note_on_c, 0, 79, 70
2, 10200, Note_on_c, 0, 79, 0
2, 10200, Note_on_c, 0, 78, 54
2, 10320, Note_on_c, 0, 78, 0
2, 10320, Note_on_c, 0, 76, 56
2, 10560, Note_on_c, 0, 72, 0
2, 10560, Note_on_c, 0, 71, 46
2, 10800, Note_on_c, 0, 71, 0
2, 10800, Note_on_c, 0, 76, 0
2, 10800, Note_on_c, 0, 69, 47
2, 10800, Note_on_c, 0, 76, 61
2, 11030, Note_on_c, 0, 76, 0
2, 11040, Note_on_c, 0, 76, 61
2, 11270, Note_on_c, 0, 76, 0
2, 11280, Note_on_c, 0, 69, 0
2, 11280, Note_on_c, 0, 71, 48
2, 11280, Note_on_c, 0, 76, 60
2, 11520, Note_on_c, 0, 76, 0
2, 11520, Note_on_c, 0, 71, 0
2, 11520, Note_on_c, 0, 72, 48
2, 11520, Note_on_c, 0, 79, 70
2, 11640, Note_on_c, 0, 79, 0
2, 11640, Note_on_c, 0, 78, 55
2, 11760, Note_on_c, 0, 78, 0
2, 11760, Note_on_c, 0, 76, 56
2, 12000, Note_on_c, 0, 72, 0
2, 12000, Note_on_c, 0, 71, 46
2, 12240, Note_on_c, 0, 71, 0
2, 12240, Note_on_c, 0, 76, 0
2, 12240, Note_on_c, 0, 69, 42
2, 12240, Note_on_c, 0, 76, 61
2, 12360, Note_on_c, 0, 69, 0
2, 12360, Note_on_c, 0, 64, 33
2, 12470, Note_on_c, 0, 76, 0
2, 12480, Note_on_c, 0, 64, 0
2, 12480, Note_on_c, 0, 72, 39
2, 12480, Note_on_c, 0, 76, 61
2, 12600, Note_on_c, 0, 72, 0
2, 12600, Note_on_c, 0, 64, 33
2, 12710, Note_on_c, 0, 76, 0
2, 12720, Note_on_c, 0, 64, 0
2, 12720, Note_on_c, 0, 71, 38
2, 12720, Note_on_c, 0, 74, 60
2, 12840, Note_on_c, 0, 71, 0
2, 12840, Note_on_c, 0, 64, 42
2, 12960, Note_on_c, 0, 64, 0
2, 12960, Note_on_c, 0, 74, 0
2, 12960, Note_on_c, 0, 69, 42
2, 12960, Note_on_c, 0, 72, 61
2, 13080, Note_on_c, 0, 69, 0
2, 13080, Note_on_c, 0, 64, 33
2, 13190, Note_on_c, 0, 72, 0
2, 13200, Note_on_c, 0, 64, 0
2, 13200, Note_on_c, 0, 68, 39
2, 13200, Note_on_c, 0, 71, 61
2, 13320, Note_on_c, 0, 68, 0
2, 13320, Note_on_c, 0, 64, 33
2, 13430, Note_on_c, 0, 71, 0
2, 13440, Note_on_c, 0, 64, 0
2, 13440, Note_on_c, 0, 67, 38
2, 13440, Note_on_c, 0, 70, 60
2, 13560, Note_on_c, 0, 67, 0
2, 13560, Note_on_c, 0, 64, 42
2, 13680, Note_on_c, 0, 64, 0
2, 13680, Note_on_c, 0, 70, 0
2, 13680, Note_on_c, 0, 78, 70
2, 13680, Note_on_c, 0, 69, 70
2, 13920, Note_on_c, 0, 78, 0
2, 13920, Note_on_c, 0, 72, 62
2, 14640, Note_on_c, 0, 72, 0
2, 14640, Note_on_c, 0, 69, 0
2, 14640, Note_on_c, 0, 71, 62
2, 14880, Note_on_c, 0, 71, 0
2, 14880, Note_on_c, 0, 66, 54
2, 14880, Note_on_c, 0, 69, 62
2, 15120, Note_on_c, 0, 69, 0
2, 15120, Note_on_c, 0, 66, 0
2, 15120, Note_on_c, 0, 67, 62
2, 15240, Note_on_c, 0, 59, 41
2, 15360, Note_on_c, 0, 59, 0
2, 15360, Note_on_c, 0, 64, 45
2, 15480, Note_on_c, 0, 64, 0
2, 15480, Note_on_c, 0, 59, 41
2, 15600, Note_on_c, 0, 59, 0
2, 15600, Note_on_c, 0, 67, 0
2, 15600, Note_on_c, 0, 66, 45
2, 15600, Note_on_c, 0, 69, 62
2, 15720, Note_on_c, 0, 66, 0
2, 15720, Note_on_c, 0, 59, 41
2, 15840, Note_on_c, 0, 59, 0
2, 15840, Note_on_c, 0, 69, 0
2, 15840, Note_on_c, 0, 67, 62
2, 15840, Note_on_c, 0, 71, 62
2, 16080, Note_on_c, 0, 71, 0
2, 16080, Note_on_c, 0, 67, 0
2, 16080, Note_on_c, 0, 79, 55
2, 16320, Note_on_c, 0, 79, 0
2, 16320, Note_on_c, 0, 78, 42
2, 16320, Note_on_c, 0, 69, 35
2, 16560, Note_on_c, 0, 69, 0
2, 16560, Note_on_c, 0, 78, 0
2, 16560, Note_on_c, 0, 76, 54
2, 17760, Note_on_c, 0, 76, 0
2, 17760, Note_on_c, 0, 74, 48
2, 17990, Note_on_c, 0, 74, 0
2, 18000, Note_on_c, 0, 67, 37
2, 18000, Note_on_c, 0, 74, 54
2, 18120, Note_on_c, 0, 67, 0
2, 18120, Note_on_c, 0, 64, 29
2, 18230, Note_on_c, 0, 74, 0
2, 18240, Note_on_c, 0, 64, 0
2, 18240, Note_on_c, 0, 67, 35
2, 18240, Note_on_c, 0, 72, 54
2, 18360, Note_on_c, 0, 67, 0
2, 18360, Note_on_c, 0, 64, 29
2, 18470, Note_on_c, 0, 72, 0
2, 18480, Note_on_c, 0, 64, 0
2, 18480, Note_on_c, 0, 67, 34
2, 18480, Note_on_c, 0, 71, 54
2, 18600, Note_on_c, 0, 67, 0
2, 18600, Note_on_c, 0, 64, 37
2, 18720, Note_on_c, 0, 64, 0
2, 18720, Note_on_c, 0, 71, 0
2, 18720, Note_on_c, 0, 66, 37
2, 18720, Note_on_c, 0, 69, 54
2, 18840, Note_on_c, 0, 66, 0
2, 18840, Note_on_c, 0, 64, 29
2, 18950, Note_on_c, 0, 69, 0
2, 18960, Note_on_c, 0, 64, 0
2, 18960, Note_on_c, 0, 67, 35
2, 18960, Note_on_c, 0, 71, 54
2, 19080, Note_on_c, 0, 67, 0
2, 19080, Note_on_c, 0, 62, 29
2, 19190, Note_on_c, 0, 71, 0
2, 19200, Note_on_c, 0, 62, 0
2, 19200, Note_on_c, 0, 69, 34
2, 19200, Note_on_c, 0, 72, 54
2, 19320, Note_on_c, 0, 69, 0
2, 19320, Note_on_c, 0, 60, 37
2, 19440, Note_on_c, 0, 60, 0
2, 19440, Note_on_c, 0, 72, 0
2, 19440, Note_on_c, 0, 64, 55
2, 19800, Note_on_c, 0, 64, 0
2, 19800, Note_on_c, 0, 66, 49
2, 19860, Note_on_c, 0, 66, 0
2, 19860, Note_on_c, 0, 64, 46
2, 19920, Note_on_c, 0, 64, 0
2, 19920, Note_on_c, 0, 63, 55
2, 20040, Note_on_c, 0, 63, 0
2, 20040, Note_on_c, 0, 64, 62
2, 20160, Note_on_c, 0, 64, 0
2, 20160, Note_on_c, 0, 67, 68
2, 20640, Note_on_c, 0, 67, 0
2, 20640, Note_on_c, 0, 66, 55
2, 20880, Note_on_c, 0, 66, 0
2, 20880, Note_on_c, 0, 64, 55
2, 21585, Note_on_c, 0, 64, 0
2, 21600, Note_on_c, 0, 64, 52
2, 22075, Note_on_c, 0, 64, 0
2, 22080, Note_on_c, 0, 64, 46
2, 22315, Note_on_c, 0, 64, 0
2, 22320, Note_on_c, 0, 65, 52
2, 22785, Note_on_c, 0, 65, 0
2, 22800, Note_on_c, 0, 65, 48
2, 23025, Note_on_c, 0, 65, 0
2, 23040, Note_on_c, 0, 65, 55
2, 23505, Note_on_c, 0, 65, 0
2, 23520, Note_on_c, 0, 65, 51
2, 23745, Note_on_c, 0, 65, 0
2, 23760, Note_on_c, 0, 69, 59
2, 24000, Note_on_c, 0, 69, 0
2, 24000, Note_on_c, 0, 68, 52
2, 24240, Note_on_c, 0, 68, 0
2, 24480, Note_on_c, 0, 68, 62
2, 24955, Note_on_c, 0, 68, 0
2, 24960, Note_on_c, 0, 68, 56
2, 25195, Note_on_c, 0, 68, 0
2, 25200, Note_on_c, 0, 69, 65
2, 25665, Note_on_c, 0, 69, 0
2, 25680, Note_on_c, 0, 69, 58
2, 25905, Note_on_c, 0, 69, 0
2, 25920, Note_on_c, 0, 69, 67
2, 26385, Note_on_c, 0, 69, 0
2, 26400, Note_on_c, 0, 69, 61
2, 26625, Note_on_c, 0, 69, 0
2, 26640, Note_on_c, 0, 72, 70
2, 26880, Note_on_c, 0, 72, 0
2, 26880, Note_on_c, 0, 71, 62
2, 27120, Note_on_c, 0, 71, 0
2, 27360, Note_on_c, 0, 74, 71
2, 27825, Note_on_c, 0, 74, 0
2, 27840, Note_on_c, 0, 72, 64
2, 27930, Note_on_c, 0, 72, 0
2, 27960, Note_on_c, 0, 71, 61
2, 28050, Note_on_c, 0, 71, 0
2, 28080, Note_on_c, 0, 69, 70
2, 28320, Note_on_c, 0, 69, 0
2, 28320, Note_on_c, 0, 68, 62
2, 28560, Note_on_c, 0, 68, 0
2, 29280, Note_on_c, 0, 76, 65
2, 29520, Note_on_c, 0, 76, 0
2, 29520, Note_on_c, 0, 74, 72
2, 29760, Note_on_c, 0, 74, 0
2, 29760, Note_on_c, 0, 72, 60
2, 30000, Note_on_c, 0, 72, 0
2, 30000, Note_on_c, 0, 71, 60
2, 30110, Note_on_c, 0, 71, 0
2, 30120, Note_on_c, 0, 71, 54
2, 30160, Note_on_c, 0, 71, 0
2, 30160, Note_on_c, 0, 72, 49
2, 30200, Note_on_c, 0, 72, 0
2, 30200, Note_on_c, 0, 74, 51
2, 30240, Note_on_c, 0, 74, 0
2, 30240, Note_on_c, 0, 72, 68
2, 30480, Note_on_c, 0, 72, 0
2, 30480, Note_on_c, 0, 71, 60
2, 30720, Note_on_c, 0, 71, 0
2, 30720, Note_on_c, 0, 69, 66
2, 30960, Note_on_c, 0, 77, 77
2, 31200, Note_on_c, 0, 77, 0
2, 31200, Note_on_c, 0, 69, 0
2, 31200, Note_on_c, 0, 72, 50
2, 31200, Note_on_c, 0, 77, 63
2, 31200, Note_on_c, 0, 69, 50
2, 31320, Note_on_c, 0, 69, 0
2, 31320, Note_on_c, 0, 77, 0
2, 31320, Note_on_c, 0, 72, 0
2, 31440, Note_on_c, 0, 77, 58
2, 31440, Note_on_c, 0, 71, 49
2, 31560, Note_on_c, 0, 71, 0
2, 31560, Note_on_c, 0, 77, 0
2, 31680, Note_on_c, 0, 71, 51
2, 31680, Note_on_c, 0, 77, 61
2, 32160, Note_on_c, 0, 77, 0
2, 32160, Note_on_c, 0, 71, 0
2, 32160, Note_on_c, 0, 72, 39
2, 32160, Note_on_c, 0, 76, 46
2, 32370, Note_on_c, 0, 76, 0
2, 32370, Note_on_c, 0, 72, 0
2, 32400, Note_on_c, 0, 76, 47
2, 32400, Note_on_c, 0, 81, 56
2, 32880, Note_on_c, 0, 81, 0
2, 32880, Note_on_c, 0, 76, 0
2, 32880, Note_on_c, 0, 80, 46
2, 32880, Note_on_c, 0, 74, 39
2, 33090, Note_on_c, 0, 74, 0
2, 33090, Note_on_c, 0, 80, 0
2, 33120, Note_on_c, 0, 72, 47
2, 33120, Note_on_c, 0, 77, 56
2, 33600, Note_on_c, 0, 77, 0
2, 33600, Note_on_c, 0, 72, 0
2, 33600, Note_on_c, 0, 71, 38
2, 33600, Note_on_c, 0, 76, 45
2, 33810, Note_on_c, 0, 76, 0
2, 33810, Note_on_c, 0, 71, 0
2, 33840, Note_on_c, 0, 71, 50
2, 33840, Note_on_c, 0, 68, 42
2, 34080, Note_on_c, 0, 68, 0
2, 34080, Note_on_c, 0, 71, 0
2, 34080, Note_on_c, 0, 74, 50
2, 34080, Note_on_c, 0, 71, 42
2, 34320, Note_on_c, 0, 71, 0
2, 34320, Note_on_c, 0, 74, 0
2, 34320, Note_on_c, 0, 72, 43
2, 34320, Note_on_c, 0, 69, 36
2, 34560, Note_on_c, 0, 69, 0
2, 34560, Note_on_c, 0, 72, 0
2, 34560, Note_on_c, 0, 71, 46
2, 34560, Note_on_c, 0, 68, 39
2, 35040, Note_on_c, 0, 68, 0
2, 35040, Note_on_c, 0, 71, 0
2, 35040, Note_on_c, 0, 71, 40
2, 35280, Note_on_c, 0, 71, 0
2, 35280, Note_on_c, 0, 76, 46
2, 35520, Note_on_c, 0, 76, 0
2, 35520, Note_on_c, 0, 72, 42
2, 35760, Note_on_c, 0, 72, 0
2, 35760, Note_on_c, 0, 69, 42
2, 36000, Note_on_c, 0, 69, 0
2, 36000, Note_on_c, 0, 72, 50
2, 36240, Note_on_c, 0, 72, 0
2, 36240, Note_on_c, 0, 70, 46
2, 36450, Note_on_c, 0, 70, 0
2, 36480, Note_on_c, 0, 70, 51
2, 36720, Note_on_c, 0, 70, 0
2, 36720, Note_on_c, 0, 79, 65
2, 36960, Note_on_c, 0, 79, 0
2, 36960, Note_on_c, 0, 77, 57
2, 37080, Note_on_c, 0, 77, 0
2, 37080, Note_on_c, 0, 76, 50
2, 37200, Note_on_c, 0, 76, 0
2, 37200, Note_on_c, 0, 74, 56
2, 37320, Note_on_c, 0, 74, 0
2, 37320, Note_on_c, 0, 72, 49
2, 37440, Note_on_c, 0, 72, 0
2, 37440, Note_on_c, 0, 70, 54
2, 37680, Note_on_c, 0, 70, 0
2, 37680, Note_on_c, 0, 69, 47
2, 37920, Note_on_c, 0, 69, 0
2, 37920, Note_on_c, 0, 68, 40
2, 38160, Note_on_c, 0, 68, 0
2, 38160, Note_on_c, 0, 69, 46
2, 38400, Note_on_c, 0, 69, 0
2, 38400, Note_on_c, 0, 72, 42
2, 38640, Note_on_c, 0, 72, 0
2, 38640, Note_on_c, 0, 74, 42
2, 38880, Note_on_c, 0, 74, 0
2, 38880, Note_on_c, 0, 69, 39
2, 38880, Note_on_c, 0, 76, 46
2, 39360, Note_on_c, 0, 76, 0
2, 39360, Note_on_c, 0, 74, 40
2, 39480, Note_on_c, 0, 74, 0
2, 39480, Note_on_c, 0, 72, 40
2, 39600, Note_on_c, 0, 72, 0
2, 39600, Note_on_c, 0, 69, 0
2, 39600, Note_on_c, 0, 74, 45
2, 39600, Note_on_c, 0, 68, 38
2, 40080, Note_on_c, 0, 74, 0
2, 40080, Note_on_c, 0, 72, 40
2, 40200, Note_on_c, 0, 72, 0
2, 40200, Note_on_c, 0, 71, 40
2, 40320, Note_on_c, 0, 71, 0
2, 40320, Note_on_c, 0, 68, 0
2, 40320, Note_on_c, 0, 69, 46
2, 40800, Note_on_c, 0, 69, 0
2, 40800, Note_on_c, 0, 81, 47
2, 41040, Note_on_c, 0, 81, 0
2, 41040, Note_on_c, 0, 79, 54
2, 41280, Note_on_c, 0, 79, 0
2, 41280, Note_on_c, 0, 77, 46
2, 41520, Note_on_c, 0, 77, 0
2, 41520, Note_on_c, 0, 76, 43
2, 41520, Note_on_c, 0, 67, 43
2, 41760, Note_on_c, 0, 67, 0
2, 41760, Note_on_c, 0, 76, 0
2, 41760, Note_on_c, 0, 76, 54
2, 41760, Note_on_c, 0, 66, 45
2, 42000, Note_on_c, 0, 76, 0
2, 42000, Note_on_c, 0, 74, 49
2, 42210, Note_on_c, 0, 74, 0
2, 42240, Note_on_c, 0, 66, 0
2, 42240, Note_on_c, 0, 67, 47
2, 42240, Note_on_c, 0, 79, 47
2, 42480, Note_on_c, 0, 79, 0
2, 42480, Note_on_c, 0, 67, 0
2, 42480, Note_on_c, 0, 67, 51
2, 42480, Note_on_c, 0, 77, 51
2, 42720, Note_on_c, 0, 77, 0
2, 42720, Note_on_c, 0, 76, 46
2, 42960, Note_on_c, 0, 76, 0
2, 42960, Note_on_c, 0, 74, 43
2, 43170, Note_on_c, 0, 74, 0
2, 43200, Note_on_c, 0, 74, 58
2, 43440, Note_on_c, 0, 74, 0
2, 43440, Note_on_c, 0, 67, 0
2, 43440, Note_on_c, 0, 72, 49
2, 43560, Note_on_c, 0, 72, 0
2, 43560, Note_on_c, 0, 71, 41
2, 43680, Note_on_c, 0, 71, 0
2, 43680, Note_on_c, 0, 69, 49
2, 43800, Note_on_c, 0, 69, 0
2, 43800, Note_on_c, 0, 68, 45
2, 43920, Note_on_c, 0, 68, 0
2, 43920, Note_on_c, 0, 69, 49
2, 44040, Note_on_c, 0, 69, 0
2, 44040, Note_on_c, 0, 71, 49
2, 44160, Note_on_c, 0, 71, 0
2, 44160, Note_on_c, 0, 72, 46
2, 44400, Note_on_c, 0, 72, 0
2, 44400, Note_on_c, 0, 74, 42
2, 44640, Note_on_c, 0, 74, 0
2, 44640, Note_on_c, 0, 69, 35
2, 44640, Note_on_c, 0, 76, 42
2, 45120, Note_on_c, 0, 76, 0
2, 45120, Note_on_c, 0, 74, 37
2, 45240, Note_on_c, 0, 74, 0
2, 45240, Note_on_c, 0, 72, 37
2, 45360, Note_on_c, 0, 72, 0
2, 45360, Note_on_c, 0, 69, 0
2, 45360, Note_on_c, 0, 68, 35
2, 45360, Note_on_c, 0, 74, 42
2, 45840, Note_on_c, 0, 74, 0
2, 45840, Note_on_c, 0, 72, 37
2, 45960, Note_on_c, 0, 72, 0
2, 45960, Note_on_c, 0, 71, 37
2, 46080, Note_on_c, 0, 71, 0
2, 46080, Note_on_c, 0, 68, 0
2, 46080, Note_on_c, 0, 72, 42
2, 46320, Note_on_c, 0, 64, 35
2, 46560, Note_on_c, 0, 72, 0
2, 46560, Note_on_c, 0, 71, 37
2, 46680, Note_on_c, 0, 71, 0
2, 46680, Note_on_c, 0, 69, 37
2, 46800, Note_on_c, 0, 69, 0
2, 46800, Note_on_c, 0, 71, 42
2, 47030, Note_on_c, 0, 64, 0
2, 47040, Note_on_c, 0, 64, 35
2, 47280, Note_on_c, 0, 71, 0
2, 47280, Note_on_c, 0, 69, 37
2, 47400, Note_on_c, 0, 69, 0
2, 47400, Note_on_c, 0, 68, 37
2, 47520, Note_on_c, 0, 68, 0
2, 47520, Note_on_c, 0, 69, 42
2, 48240, Note_on_c, 0, 64, 0
2, 48240, Note_on_c, 0, 58, 35
2, 48720, Note_on_c, 0, 69, 0
2, 48720, Note_on_c, 0, 67, 35
2, 48960, Note_on_c, 0, 58, 0
2, 48960, Note_on_c, 0, 57, 34
2, 49200, Note_on_c, 0, 67, 0
2, 49200, Note_on_c, 0, 65, 33
2, 49440, Note_on_c, 0, 65, 0
2, 49440, Note_on_c, 0, 64, 33
2, 49680, Note_on_c, 0, 64, 0
2, 49680, Note_on_c, 0, 57, 0
2, 49680, Note_on_c, 0, 62, 32
2, 49920, Note_on_c, 0, 62, 0
2, 49920, Note_on_c, 0, 64, 31
2, 49920, Note_on_c, 0, 60, 31
2, 50160, Note_on_c, 0, 60, 0
2, 50160, Note_on_c, 0, 64, 0
2, 50160, Note_on_c, 0, 62, 29
2, 50160, Note_on_c, 0, 65, 29
2, 50400, Note_on_c, 0, 65, 0
2, 50400, Note_on_c, 0, 62, 0
2, 50400, Note_on_c, 0, 57, 30
2, 50760, Note_on_c, 0, 57, 0
2, 50760, Note_on_c, 0, 59, 27
2, 50820, Note_on_c, 0, 59, 0
2, 50820, Note_on_c, 0, 57, 27
2, 50880, Note_on_c, 0, 57, 0
2, 50880, Note_on_c, 0, 56, 29
2, 51000, Note_on_c, 0, 56, 0
2, 51000, Note_on_c, 0, 57, 26
2, 51120, Note_on_c, 0, 57, 0
2, 51120, Note_on_c, 0, 60, 28
2, 51600, Note_on_c, 0, 60, 0
2, 51600, Note_on_c, 0, 56, 26
2, 51600, Note_on_c, 0, 59, 26
2, 51840, Note_on_c, 0, 59, 0
2, 51840, Note_on_c, 0, 56, 0
2, 51840, Note_on_c, 0, 57, 30
2, 52080, Note_on_c, 0, 57, 0
2, 52080, Note_on_c, 0, 57, 22
2, 52200, Note_on_c, 0, 57, 0
2, 52200, Note_on_c, 0, 56, 20
2, 52320, Note_on_c, 0, 56, 0
2, 52320, Note_on_c, 0, 57, 22
2, 52440, Note_on_c, 0, 57, 0
2, 52440, Note_on_c, 0, 52, 20
2, 52560, Note_on_c, 0, 52, 0
2, 52560, Note_on_c, 0, 53, 26
2, 52680, Note_on_c, 0, 53, 0
2, 52680, Note_on_c, 0, 50, 20
2, 52800, Note_on_c, 0, 50, 0
2, 52800, Note_on_c, 0, 57, 22
2, 52920, Note_on_c, 0, 57, 0
2, 52920, Note_on_c, 0, 56, 20
2, 53040, Note_on_c, 0, 56, 0
2, 53040, Note_on_c, 0, 57, 22
2, 53160, Note_on_c, 0, 57, 0
2, 53160, Note_on_c, 0, 53, 20
2, 53280, Note_on_c, 0, 53, 0
2, 53280, Note_on_c, 0, 52, 26
2, 53400, Note_on_c, 0, 52, 0
2, 53400, Note_on_c, 0, 48, 20
2, 53520, Note_on_c, 0, 48, 0
2, 53520, Note_on_c, 0, 57, 22
2, 53640, Note_on_c, 0, 57, 0
2, 53640, Note_on_c, 0, 56, 20
2, 53760, Note_on_c, 0, 56, 0
2, 53760, Note_on_c, 0, 57, 22
2, 53880, Note_on_c, 0, 57, 0
2, 53880, Note_on_c, 0, 52, 20
2, 54000, Note_on_c, 0, 52, 0
2, 54000, Note_on_c, 0, 47, 20
2, 54000, Note_on_c, 0, 53, 20
2, 54000, Note_on_c, 0, 56, 26
2, 54120, Note_on_c, 0, 56, 0
2, 54120, Note_on_c, 0, 53, 0
2, 54120, Note_on_c, 0, 47, 0
2, 54120, Note_on_c, 0, 50, 20
2, 54240, Note_on_c, 0, 50, 0
2, 54240, Note_on_c, 0, 47, 17
2, 54240, Note_on_c, 0, 53, 17
2, 54240, Note_on_c, 0, 56, 22
2, 54360, Note_on_c, 0, 56, 0
2, 54360, Note_on_c, 0, 53, 0
2, 54360, Note_on_c, 0, 47, 0
2, 54360, Note_on_c, 0, 50, 20
2, 54480, Note_on_c, 0, 50, 0
2, 54480, Note_on_c, 0, 47, 17
2, 54480, Note_on_c, 0, 53, 17
2, 54480, Note_on_c, 0, 56, 22
2, 54600, Note_on_c, 0, 56, 0
2, 54600, Note_on_c, 0, 53, 0
2, 54600, Note_on_c, 0, 47, 0
2, 54600, Note_on_c, 0, 50, 20
2, 54720, Note_on_c, 0, 50, 0
2, 54720, Note_on_c, 0, 48, 24
2, 54720, Note_on_c, 0, 57, 28
2, 55200, Note_on_c, 0, 57, 0
2, 55200, Note_on_c, 0, 48, 0
2, 55920, Note_on_c, 0, 81, 51
2, 56160, Note_on_c, 0, 81, 0
2, 56160, Note_on_c, 0, 79, 57
2, 56400, Note_on_c, 0, 79, 0
2, 56400, Note_on_c, 0, 77, 49
2, 56640, Note_on_c, 0, 77, 0
2, 56640, Note_on_c, 0, 76, 45
2, 56760, Note_on_c, 0, 76, 0
2, 56760, Note_on_c, 0, 76, 37
2, 56800, Note_on_c, 0, 76, 0
2, 56800, Note_on_c, 0, 77, 37
2, 56840, Note_on_c, 0, 77, 0
2, 56840, Note_on_c, 0, 79, 37
2, 56880, Note_on_c, 0, 79, 0
2, 56880, Note_on_c, 0, 77, 54
2, 57120, Note_on_c, 0, 77, 0
2, 57120, Note_on_c, 0, 76, 64
2, 57360, Note_on_c, 0, 76, 0
2, 57360, Note_on_c, 0, 74, 72
2, 57600, Note_on_c, 0, 74, 0
2, 57600, Note_on_c, 0, 82, 79
2, 57840, Note_on_c, 0, 82, 0
2, 57840, Note_on_c, 0, 82, 70
2, 58020, Note_on_c, 0, 82, 0
2, 58080, Note_on_c, 0, 82, 70
2, 58260, Note_on_c, 0, 82, 0
2, 58320, Note_on_c, 0, 82, 65
2, 58800, Note_on_c, 0, 82, 0
2, 58800, Note_on_c, 0, 81, 52
2, 58800, Note_on_c, 0, 76, 40
2, 59040, Note_on_c, 0, 76, 0
2, 59040, Note_on_c, 0, 74, 46
2, 59280, Note_on_c, 0, 74, 0
2, 59280, Note_on_c, 0, 72, 40
2, 59520, Note_on_c, 0, 72, 0
2, 59520, Note_on_c, 0, 71, 37
2, 59640, Note_on_c, 0, 71, 0
2, 59640, Note_on_c, 0, 71, 37
2, 59680, Note_on_c, 0, 71, 0
2, 59680, Note_on_c, 0, 72, 37
2, 59720, Note_on_c, 0, 72, 0
2, 59720, Note_on_c, 0, 74, 37
2, 59760, Note_on_c, 0, 74, 0
2, 59760, Note_on_c, 0, 72, 49
2, 60000, Note_on_c, 0, 72, 0
2, 60000, Note_on_c, 0, 71, 53
2, 60240, Note_on_c, 0, 71, 0
2, 60240, Note_on_c, 0, 69, 56
2, 60480, Note_on_c, 0, 69, 0
2, 60480, Note_on_c, 0, 81, 0
2, 60480, Note_on_c, 0, 77, 65
2, 60720, Note_on_c, 0, 77, 0
2, 60720, Note_on_c, 0, 68, 48
2, 60720, Note_on_c, 0, 74, 48
2, 60720, Note_on_c, 0, 77, 61
2, 60900, Note_on_c, 0, 77, 0
2, 60900, Note_on_c, 0, 74, 0
2, 60900, Note_on_c, 0, 68, 0
2, 60960, Note_on_c, 0, 68, 48
2, 60960, Note_on_c, 0, 74, 48
2, 60960, Note_on_c, 0, 77, 61
2, 61140, Note_on_c, 0, 77, 0
2, 61140, Note_on_c, 0, 74, 0
2, 61140, Note_on_c, 0, 68, 0
2, 61200, Note_on_c, 0, 68, 52
2, 61200, Note_on_c, 0, 74, 52
2, 61200, Note_on_c, 0, 77, 65
2, 64080, Note_on_c, 0, 77, 0
2, 64080, Note_on_c, 0, 74, 0
2, 64080, Note_on_c, 0, 68, 0
2, 64080, Note_on_c, 0, 72, 27
2, 64080, Note_on_c, 0, 76, 34
2, 64084, Note_on_c, 0, 69, 27
2, 64320, Note_on_c, 0, 76, 0
2, 64320, Note_on_c, 0, 72, 0
2, 64324, Note_on_c, 0, 69, 0
2, 64560, Note_on_c, 0, 57, 29
2, 64620, Note_on_c, 0, 57, 0
2, 64800, Note_on_c, 0, 57, 34
2, 64860, Note_on_c, 0, 57, 0
2, 65280, Note_on_c, 0, 57, 31
2, 65340, Note_on_c, 0, 57, 0
2, 65520, Note_on_c, 0, 57, 34
2, 65580, Note_on_c, 0, 57, 0
2, 65580, End_track
3, 0, Start_track
3, 0, Title_t, "Piano left"
3, 0, Program_c, 0, 0
3, 480, Note_on_c, 0, 60, 40
3, 600, Note_on_c, 0, 60, 0
3, 600, Note_on_c, 0, 64, 32
3, 720, Note_on_c, 0, 64, 0
3, 720, Note_on_c, 0, 59, 40
3, 840, Note_on_c, 0, 59, 0
3, 840, Note_on_c, 0, 64, 29
3, 960, Note_on_c, 0, 64, 0
3, 960, Note_on_c, 0, 57, 32
3, 1080, Note_on_c, 0, 57, 0
3, 1080, Note_on_c, 0, 64, 31
3, 1200, Note_on_c, 0, 64, 0
3, 1200, Note_on_c, 0, 56, 38
3, 1320, Note_on_c, 0, 56, 0
3, 1320, Note_on_c, 0, 64, 32
3, 1440, Note_on_c, 0, 64, 0
3, 1440, Note_on_c, 0, 57, 40
3, 1560, Note_on_c, 0, 57, 0
3, 1560, Note_on_c, 0, 64, 33
3, 1680, Note_on_c, 0, 64, 0
3, 1680, Note_on_c, 0, 59, 38
3, 1800, Note_on_c, 0, 59, 0
3, 1800, Note_on_c, 0, 64, 31
3, 1920, Note_on_c, 0, 64, 0
3, 1920, Note_on_c, 0, 60, 39
3, 2040, Note_on_c, 0, 60, 0
3, 2040, Note_on_c, 0, 64, 42
3, 2160, Note_on_c, 0, 64, 0
3, 2160, Note_on_c, 0, 50, 47
3, 2280, Note_on_c, 0, 50, 0
3, 2280, Note_on_c, 0, 62, 46
3, 2400, Note_on_c, 0, 62, 0
3, 2400, Note_on_c, 0, 53, 47
3, 2520, Note_on_c, 0, 53, 0
3, 2520, Note_on_c, 0, 62, 40
3, 2640, Note_on_c, 0, 62, 0
3, 2640, Note_on_c, 0, 56, 31
3, 2760, Note_on_c, 0, 56, 0
3, 2760, Note_on_c, 0, 62, 26
3, 2880, Note_on_c, 0, 62, 0
3, 2880, Note_on_c, 0, 48, 33
3, 3000, Note_on_c, 0, 48, 0
3, 3000, Note_on_c, 0, 62, 24
3, 3120, Note_on_c, 0, 62, 0
3, 3120, Note_on_c, 0, 56, 28
3, 3240, Note_on_c, 0, 56, 0
3, 3240, Note_on_c, 0, 62, 23
3, 3360, Note_on_c, 0, 62, 0
3, 3360, Note_on_c, 0, 57, 27
3, 3480, Note_on_c, 0, 57, 0
3, 3480, Note_on_c, 0, 59, 26
3, 3600, Note_on_c, 0, 59, 0
3, 3600, Note_on_c, 0, 60, 25
3, 3720, Note_on_c, 0, 60, 0
3, 3720, Note_on_c, 0, 64, 20
3, 3840, Note_on_c, 0, 64, 0
3, 3840, Note_on_c, 0, 60, 24
3, 3960, Note_on_c, 0, 60, 0
3, 3960, Note_on_c, 0, 64, 21
3, 4080, Note_on_c, 0, 64, 0
3, 4080, Note_on_c, 0, 59, 22
3, 4200, Note_on_c, 0, 59, 0
3, 4200, Note_on_c, 0, 64, 21
3, 4320, Note_on_c, 0, 64, 0
3, 4320, Note_on_c, 0, 57, 24
3, 4440, Note_on_c, 0, 57, 0
3, 4440, Note_on_c, 0, 64, 21
3, 4560, Note_on_c, 0, 64, 0
3, 4560, Note_on_c, 0, 57, 23
3, 4680, Note_on_c, 0, 57, 0
3, 4680, Note_on_c, 0, 64, 22
3, 4800, Note_on_c, 0, 64, 0
3, 4800, Note_on_c, 0, 56, 24
3, 4920, Note_on_c, 0, 56, 0
3, 4920, Note_on_c, 0, 64, 22
3, 5040, Note_on_c, 0, 64, 0
3, 5040, Note_on_c, 0, 52, 40
3, 5160, Note_on_c, 0, 52, 0
3, 5160, Note_on_c, 0, 64, 32
3, 5280, Note_on_c, 0, 64, 0
3, 5280, Note_on_c, 0, 57, 37
3, 5400, Note_on_c, 0, 57, 0
3, 5400, Note_on_c, 0, 64, 31
3, 5520, Note_on_c, 0, 64, 0
3, 5520, Note_on_c, 0, 51, 37
3, 5640, Note_on_c, 0, 51, 0
3, 5640, Note_on_c, 0, 66, 31
3, 5760, Note_on_c, 0, 66, 0
3, 5760, Note_on_c, 0, 52, 40
3, 5880, Note_on_c, 0, 52, 0
3, 5880, Note_on_c, 0, 65, 42
3, 6000, Note_on_c, 0, 65, 0
3, 6000, Note_on_c, 0, 64, 39
3, 6120, Note_on_c, 0, 64, 0
3, 6120, Note_on_c, 0, 62, 37
3, 6240, Note_on_c, 0, 62, 0
3, 6240, Note_on_c, 0, 60, 40
3, 6360, Note_on_c, 0, 60, 0
3, 6360, Note_on_c, 0, 64, 32
3, 6480, Note_on_c, 0, 64, 0
3, 6480, Note_on_c, 0, 59, 40
3, 6600, Note_on_c, 0, 59, 0
3, 6600, Note_on_c, 0, 64, 29
3, 6720, Note_on_c, 0, 64, 0
3, 6720, Note_on_c, 0, 57, 32
3, 6840, Note_on_c, 0, 57, 0
3, 6840, Note_on_c, 0, 64, 31
3, 6960, Note_on_c, 0, 64, 0
3, 6960, Note_on_c, 0, 56, 38
3, 7080, Note_on_c, 0, 56, 0
3, 7080, Note_on_c, 0, 64, 32
3, 7200, Note_on_c, 0, 64, 0
3, 7200, Note_on_c, 0, 57, 40
3, 7320, Note_on_c, 0, 57, 0
3, 7320, Note_on_c, 0, 64, 33
3, 7440, Note_on_c, 0, 64, 0
3, 7440, Note_on_c, 0, 59, 38
3, 7560, Note_on_c, 0, 59, 0
3, 7560, Note_on_c, 0, 64, 31
3, 7680, Note_on_c, 0, 64, 0
3, 7680, Note_on_c, 0, 60, 39
3, 7800, Note_on_c, 0, 60, 0
3, 7800, Note_on_c, 0, 64, 42
3, 7920, Note_on_c, 0, 64, 0
3, 7920, Note_on_c, 0, 50, 47
3, 8040, Note_on_c, 0, 50, 0
3, 8040, Note_on_c, 0, 62, 46
3, 8160, Note_on_c, 0, 62, 0
3, 8160, Note_on_c, 0, 53, 47
3, 8280, Note_on_c, 0, 53, 0
3, 8280, Note_on_c, 0, 62, 40
3, 8400, Note_on_c, 0, 62, 0
3, 8400, Note_on_c, 0, 56, 31
3, 8520, Note_on_c, 0, 56, 0
3, 8520, Note_on_c, 0, 62, 26
3, 8640, Note_on_c, 0, 62, 0
3, 8640, Note_on_c, 0, 48, 33
3, 8760, Note_on_c, 0, 48, 0
3, 8760, Note_on_c, 0, 62, 24
3, 8880, Note_on_c, 0, 62, 0
3, 8880, Note_on_c, 0, 56, 28
3, 9000, Note_on_c, 0, 56, 0
3, 9000, Note_on_c, 0, 62, 23
3, 9120, Note_on_c, 0, 62, 0
3, 9120, Note_on_c, 0, 57, 27
3, 9240, Note_on_c, 0, 57, 0
3, 9240, Note_on_c, 0, 59, 26
3, 9360, Note_on_c, 0, 59, 0
3, 9360, Note_on_c, 0, 60, 42
3, 9480, Note_on_c, 0, 60, 0
3, 9480, Note_on_c, 0, 64, 33
3, 9600, Note_on_c, 0, 64, 0
3, 9600, Note_on_c, 0, 60, 39
3, 9720, Note_on_c, 0, 60, 0
3, 9720, Note_on_c, 0, 64, 33
3, 9840, Note_on_c, 0, 64, 0
3, 9840, Note_on_c, 0, 59, 38
3, 9960, Note_on_c, 0, 59, 0
3, 9960, Note_on_c, 0, 64, 42
3, 10080, Note_on_c, 0, 64, 0
3, 10080, Note_on_c, 0, 57, 53
3, 10200, Note_on_c, 0, 57, 0
3, 10200, Note_on_c, 0, 64, 41
3, 10320, Note_on_c, 0, 64, 0
3, 10320, Note_on_c, 0, 57, 30
3, 10440, Note_on_c, 0, 57, 0
3, 10440, Note_on_c, 0, 64, 24
3, 10560, Note_on_c, 0, 64, 0
3, 10560, Note_on_c, 0, 59, 28
3, 10680, Note_on_c, 0, 59, 0
3, 10680, Note_on_c, 0, 64, 26
3, 10800, Note_on_c, 0, 64, 0
3, 10800, Note_on_c, 0, 60, 42
3, 10920, Note_on_c, 0, 60, 0
3, 10920, Note_on_c, 0, 64, 33
3, 11040, Note_on_c, 0, 64, 0
3, 11040, Note_on_c, 0, 60, 39
3, 11160, Note_on_c, 0, 60, 0
3, 11160, Note_on_c, 0, 64, 33
3, 11280, Note_on_c, 0, 64, 0
3, 11280, Note_on_c, 0, 59, 38
3, 11400, Note_on_c, 0, 59, 0
3, 11400, Note_on_c, 0, 64, 42
3, 11520, Note_on_c, 0, 64, 0
3, 11520, Note_on_c, 0, 57, 53
3, 11640, Note_on_c, 0, 57, 0
3, 11640, Note_on_c, 0, 64, 33
3, 11760, Note_on_c, 0, 64, 0
3, 11760, Note_on_c, 0, 57, 31
3, 11880, Note_on_c, 0, 57, 0
3, 11880, Note_on_c, 0, 64, 28
3, 12000, Note_on_c, 0, 64, 0
3, 12000, Note_on_c, 0, 59, 33
3, 12120, Note_on_c, 0, 59, 0
3, 12120, Note_on_c, 0, 64, 26
3, 12240, Note_on_c, 0, 64, 0
3, 12240, Note_on_c, 0, 60, 56
3, 12720, Note_on_c, 0, 60, 0
3, 12720, Note_on_c, 0, 56, 50
3, 12960, Note_on_c, 0, 56, 0
3, 12960, Note_on_c, 0, 57, 56
3, 13200, Note_on_c, 0, 57, 0
3, 13200, Note_on_c, 0, 59, 49
3, 13440, Note_on_c, 0, 59, 0
3, 13440, Note_on_c, 0, 61, 55
3, 13680, Note_on_c, 0, 61, 0
3, 13680, Note_on_c, 0, 51, 62
3, 13800, Note_on_c, 0, 51, 0
3, 13800, Note_on_c, 0, 60, 45
3, 13920, Note_on_c, 0, 60, 0
3, 13920, Note_on_c, 0, 66, 54
3, 14040, Note_on_c, 0, 66, 0
3, 14040, Note_on_c, 0, 60, 42
3, 14160, Note_on_c, 0, 60, 0
3, 14160, Note_on_c, 0, 51, 54
3, 14280, Note_on_c, 0, 51, 0
3, 14280, Note_on_c, 0, 60, 41
3, 14400, Note_on_c, 0, 60, 0
3, 14400, Note_on_c, 0, 51, 62
3, 14520, Note_on_c, 0, 51, 0
3, 14520, Note_on_c, 0, 60, 45
3, 14640, Note_on_c, 0, 60, 0
3, 14640, Note_on_c, 0, 66, 54
3, 14760, Note_on_c, 0, 66, 0
3, 14760, Note_on_c, 0, 60, 42
3, 14880, Note_on_c, 0, 60, 0
3, 14880, Note_on_c, 0, 51, 54
3, 15000, Note_on_c, 0, 51, 0
3, 15000, Note_on_c, 0, 60, 41
3, 15120, Note_on_c, 0, 60, 0
3, 15120, Note_on_c, 0, 52, 56
3, 15360, Note_on_c, 0, 52, 0
3, 15360, Note_on_c, 0, 47, 56
3, 15600, Note_on_c, 0, 47, 0
3, 15600, Note_on_c, 0, 45, 61
3, 15840, Note_on_c, 0, 45, 0
3, 15840, Note_on_c, 0, 43, 69
3, 15960, Note_on_c, 0, 43, 0
3, 15960, Note_on_c, 0, 59, 45
3, 16080, Note_on_c, 0, 59, 0
3, 16080, Note_on_c, 0, 55, 33
3, 16200, Note_on_c, 0, 55, 0
3, 16200, Note_on_c, 0, 59, 30
3, 16320, Note_on_c, 0, 59, 0
3, 16320, Note_on_c, 0, 57, 37
3, 16440, Note_on_c, 0, 57, 0
3, 16440, Note_on_c, 0, 60, 29
3, 16560, Note_on_c, 0, 60, 0
3, 16560, Note_on_c, 0, 59, 46
3, 16680, Note_on_c, 0, 59, 0
3, 16680, Note_on_c, 0, 64, 30
3, 16800, Note_on_c, 0, 64, 0
3, 16800, Note_on_c, 0, 67, 35
3, 16920, Note_on_c, 0, 67, 0
3, 16920, Note_on_c, 0, 71, 31
3, 17040, Note_on_c, 0, 71, 0
3, 17040, Note_on_c, 0, 67, 34
3, 17160, Note_on_c, 0, 67, 0
3, 17160, Note_on_c, 0, 64, 34
3, 17280, Note_on_c, 0, 64, 0
3, 17280, Note_on_c, 0, 59, 45
3, 17400, Note_on_c, 0, 64, 27
3, 17520, Note_on_c, 0, 64, 0
3, 17520, Note_on_c, 0, 67, 34
3, 17640, Note_on_c, 0, 67, 0
3, 17640, Note_on_c, 0, 65, 27
3, 17760, Note_on_c, 0, 65, 0
3, 17760, Note_on_c, 0, 67, 34
3, 17880, Note_on_c, 0, 67, 0
3, 17880, Note_on_c, 0, 65, 28
3, 18000, Note_on_c, 0, 65, 0
3, 18000, Note_on_c, 0, 59, 0
3, 18000, Note_on_c, 0, 60, 50
3, 18720, Note_on_c, 0, 60, 0
3, 18720, Note_on_c, 0, 48, 50
3, 18960, Note_on_c, 0, 48, 0
3, 18960, Note_on_c, 0, 47, 44
3, 19200, Note_on_c, 0, 47, 0
3, 19200, Note_on_c, 0, 45, 49
3, 19440, Note_on_c, 0, 45, 0
3, 19440, Note_on_c, 0, 47, 50
3, 19560, Note_on_c, 0, 59, 29
3, 19680, Note_on_c, 0, 59, 0
3, 19680, Note_on_c, 0, 55, 35
3, 19800, Note_on_c, 0, 55, 0
3, 19800, Note_on_c, 0, 59, 29
3, 19920, Note_on_c, 0, 59, 0
3, 19920, Note_on_c, 0, 55, 35
3, 20040, Note_on_c, 0, 55, 0
3, 20040, Note_on_c, 0, 59, 40
3, 20160, Note_on_c, 0, 59, 0
3, 20160, Note_on_c, 0, 55, 47
3, 20280, Note_on_c, 0, 55, 0
3, 20280, Note_on_c, 0, 59, 34
3, 20400, Note_on_c, 0, 59, 0
3, 20400, Note_on_c, 0, 64, 37
3, 20520, Note_on_c, 0, 64, 0
3, 20520, Note_on_c, 0, 59, 29
3, 20640, Note_on_c, 0, 59, 0
3, 20640, Note_on_c, 0, 51, 35
3, 20760, Note_on_c, 0, 59, 29
3, 20880, Note_on_c, 0, 59, 0
3, 20880, Note_on_c, 0, 51, 0
3, 20880, Note_on_c, 0, 47, 0
3, 20880, Note_on_c, 0, 40, 45
3, 20880, Note_on_c, 0, 56, 35
3, 21000, Note_on_c, 0, 56, 0
3, 21000, Note_on_c, 0, 59, 29
3, 21120, Note_on_c, 0, 59, 0
3, 21120, Note_on_c, 0, 56, 32
3, 21240, Note_on_c, 0, 56, 0
3, 21240, Note_on_c, 0, 52, 29
3, 21360, Note_on_c, 0, 52, 0
3, 21360, Note_on_c, 0, 51, 34
3, 21480, Note_on_c, 0, 51, 0
3, 21480, Note_on_c, 0, 52, 29
3, 21600, Note_on_c, 0, 52, 0
3, 21600, Note_on_c, 0, 40, 0
3, 21600, Note_on_c, 0, 47, 45
3, 21600, Note_on_c, 0, 56, 35
3, 21720, Note_on_c, 0, 56, 0
3, 21720, Note_on_c, 0, 59, 29
3, 21840, Note_on_c, 0, 59, 0
3, 21840, Note_on_c, 0, 56, 32
3, 21960, Note_on_c, 0, 56, 0
3, 21960, Note_on_c, 0, 52, 29
3, 22080, Note_on_c, 0, 52, 0
3, 22080, Note_on_c, 0, 51, 34
3, 22200, Note_on_c, 0, 51, 0
3, 22200, Note_on_c, 0, 52, 29
3, 22320, Note_on_c, 0, 52, 0
3, 22320, Note_on_c, 0, 47, 0
3, 22320, Note_on_c, 0, 45, 45
3, 22320, Note_on_c, 0, 57, 35
3, 22440, Note_on_c, 0, 57, 0
3, 22440, Note_on_c, 0, 60, 29
3, 22560, Note_on_c, 0, 60, 0
3, 22560, Note_on_c, 0, 57, 32
3, 22680, Note_on_c, 0, 57, 0
3, 22680, Note_on_c, 0, 52, 29
3, 22800, Note_on_c, 0, 52, 0
3, 22800, Note_on_c, 0, 51, 35
3, 22920, Note_on_c, 0, 51, 0
3, 22920, Note_on_c, 0, 52, 30
3, 23040, Note_on_c, 0, 52, 0
3, 23040, Note_on_c, 0, 45, 0
3, 23040, Note_on_c, 0, 45, 48
3, 23040, Note_on_c, 0, 57, 37
3, 23160, Note_on_c, 0, 57, 0
3, 23160, Note_on_c, 0, 60, 31
3, 23280, Note_on_c, 0, 60, 0
3, 23280, Note_on_c, 0, 57, 35
3, 23400, Note_on_c, 0, 57, 0
3, 23400, Note_on_c, 0, 52, 32
3, 23520, Note_on_c, 0, 52, 0
3, 23520, Note_on_c, 0, 51, 38
3, 23640, Note_on_c, 0, 51, 0
3, 23640, Note_on_c, 0, 52, 32
3, 23760, Note_on_c, 0, 52, 0
3, 23760, Note_on_c, 0, 45, 0
3, 23760, Note_on_c, 0, 40, 51
3, 23760, Note_on_c, 0, 59, 40
3, 23880, Note_on_c, 0, 59, 0
3, 23880, Note_on_c, 0, 62, 33
3, 24000, Note_on_c, 0, 62, 0
3, 24000, Note_on_c, 0, 59, 36
3, 24120, Note_on_c, 0, 59, 0
3, 24120, Note_on_c, 0, 52, 33
3, 24240, Note_on_c, 0, 52, 0
3, 24240, Note_on_c, 0, 51, 39
3, 24360, Note_on_c, 0, 51, 0
3, 24360, Note_on_c, 0, 52, 33
3, 24480, Note_on_c, 0, 52, 0
3, 24480, Note_on_c, 0, 40, 0
3, 24480, Note_on_c, 0, 47, 54
3, 24480, Note_on_c, 0, 59, 42
3, 24600, Note_on_c, 0, 59, 0
3, 24600, Note_on_c, 0, 62, 34
3, 24720, Note_on_c, 0, 62, 0
3, 24720, Note_on_c, 0, 59, 38
3, 24840, Note_on_c, 0, 59, 0
3, 24840, Note_on_c, 0, 52, 35
3, 24960, Note_on_c, 0, 52, 0
3, 24960, Note_on_c, 0, 51, 41
3, 25080, Note_on_c, 0, 51, 0
3, 25080, Note_on_c, 0, 52, 35
3, 25200, Note_on_c, 0, 52, 0
3, 25200, Note_on_c, 0, 47, 0
3, 25200, Note_on_c, 0, 40, 56
3, 25200, Note_on_c, 0, 60, 43
3, 25320, Note_on_c, 0, 60, 0
3, 25320, Note_on_c, 0, 64, 36
3, 25440, Note_on_c, 0, 64, 0
3, 25440, Note_on_c, 0, 60, 40
3, 25560, Note_on_c, 0, 60, 0
3, 25560, Note_on_c, 0, 52, 36
3, 25680, Note_on_c, 0, 52, 0
3, 25680, Note_on_c, 0, 51, 43
3, 25800, Note_on_c, 0, 51, 0
3, 25800, Note_on_c, 0, 52, 37
3, 25920, Note_on_c, 0, 52, 0
3, 25920, Note_on_c, 0, 40, 0
3, 25920, Note_on_c, 0, 48, 58
3, 25920, Note_on_c, 0, 60, 45
3, 26040, Note_on_c, 0, 60, 0
3, 26040, Note_on_c, 0, 64, 37
3, 26160, Note_on_c, 0, 64, 0
3, 26160, Note_on_c, 0, 60, 41
3, 26280, Note_on_c, 0, 60, 0
3, 26280, Note_on_c, 0, 52, 38
3, 26400, Note_on_c, 0, 52, 0
3, 26400, Note_on_c, 0, 51, 45
3, 26520, Note_on_c, 0, 51, 0
3, 26520, Note_on_c, 0, 52, 38
3, 26640, Note_on_c, 0, 52, 0
3, 26640, Note_on_c, 0, 48, 0
3, 26640, Note_on_c, 0, 40, 60
3, 26640, Note_on_c, 0, 62, 47
3, 26760, Note_on_c, 0, 62, 0
3, 26760, Note_on_c, 0, 68, 39
3, 26880, Note_on_c, 0, 68, 0
3, 26880, Note_on_c, 0, 62, 43
3, 27000, Note_on_c, 0, 62, 0
3, 27000, Note_on_c, 0, 52, 39
3, 27120, Note_on_c, 0, 52, 0
3, 27120, Note_on_c, 0, 51, 45
3, 27240, Note_on_c, 0, 51, 0
3, 27240, Note_on_c, 0, 52, 39
3, 27360, Note_on_c, 0, 52, 0
3, 27360, Note_on_c, 0, 40, 0
3, 27360, Note_on_c, 0, 47, 58
3, 27360, Note_on_c, 0, 62, 45
3, 27480, Note_on_c, 0, 62, 0
3, 27480, Note_on_c, 0, 65, 37
3, 27600, Note_on_c, 0, 65, 0
3, 27600, Note_on_c, 0, 62, 41
3, 27720, Note_on_c, 0, 62, 0
3, 27720, Note_on_c, 0, 53, 38
3, 27840, Note_on_c, 0, 53, 0
3, 27840, Note_on_c, 0, 52, 45
3, 27960, Note_on_c, 0, 52, 0
3, 27960, Note_on_c, 0, 53, 38
3, 28080, Note_on_c, 0, 53, 0
3, 28080, Note_on_c, 0, 47, 0
3, 28080, Note_on_c, 0, 40, 60
3, 28080, Note_on_c, 0, 62, 47
3, 28200, Note_on_c, 0, 62, 0
3, 28200, Note_on_c, 0, 65, 39
3, 28320, Note_on_c, 0, 65, 0
3, 28320, Note_on_c, 0, 62, 43
3, 28440, Note_on_c, 0, 62, 0
3, 28440, Note_on_c, 0, 52, 39
3, 28560, Note_on_c, 0, 52, 0
3, 28560, Note_on_c, 0, 51, 45
3, 28680, Note_on_c, 0, 51, 0
3, 28680, Note_on_c, 0, 52, 39
3, 28800, Note_on_c, 0, 52, 0
3, 28800, Note_on_c, 0, 40, 0
3, 28800, Note_on_c, 0, 59, 40
3, 28920, Note_on_c, 0, 59, 0
3, 28920, Note_on_c, 0, 65, 42
3, 29040, Note_on_c, 0, 65, 0
3, 29040, Note_on_c, 0, 64, 39
3, 29160, Note_on_c, 0, 64, 0
3, 29160, Note_on_c, 0, 62, 37
3, 29280, Note_on_c, 0, 62, 0
3, 29280, Note_on_c, 0, 60, 40
3, 29400, Note_on_c, 0, 60, 0
3, 29400, Note_on_c, 0, 64, 32
3, 29520, Note_on_c, 0, 64, 0
3, 29520, Note_on_c, 0, 59, 40
3, 29640, Note_on_c, 0, 59, 0
3, 29640, Note_on_c, 0, 64, 29
3, 29760, Note_on_c, 0, 64, 0
3, 29760, Note_on_c, 0, 57, 32
3, 29880, Note_on_c, 0, 57, 0
3, 29880, Note_on_c, 0, 64, 31
3, 30000, Note_on_c, 0, 64, 0
3, 30000, Note_on_c, 0, 56, 38
3, 30120, Note_on_c, 0, 56, 0
3, 30120, Note_on_c, 0, 64, 32
3, 30240, Note_on_c, 0, 64, 0
3, 30240, Note_on_c, 0, 57, 40
3, 30360, Note_on_c, 0, 57, 0
3, 30360, Note_on_c, 0, 64, 33
3, 30480, Note_on_c, 0, 64, 0
3, 30480, Note_on_c, 0, 59, 38
3, 30600, Note_on_c, 0, 59, 0
3, 30600, Note_on_c, 0, 64, 31
3, 30720, Note_on_c, 0, 64, 0
3, 30720, Note_on_c, 0, 60, 39
3, 30840, Note_on_c, 0, 60, 0
3, 30840, Note_on_c, 0, 64, 42
3, 30960, Note_on_c, 0, 64, 0
3, 30960, Note_on_c, 0, 50, 47
3, 31080, Note_on_c, 0, 50, 0
3, 31080, Note_on_c, 0, 62, 46
3, 31200, Note_on_c, 0, 62, 0
3, 31200, Note_on_c, 0, 53, 47
3, 31320, Note_on_c, 0, 53, 0
3, 31320, Note_on_c, 0, 62, 40
3, 31440, Note_on_c, 0, 62, 0
3, 31440, Note_on_c, 0, 56, 31
3, 31560, Note_on_c, 0, 56, 0
3, 31560, Note_on_c, 0, 62, 26
3, 31680, Note_on_c, 0, 62, 0
3, 31680, Note_on_c, 0, 48, 33
3, 31800, Note_on_c, 0, 48, 0
3, 31800, Note_on_c, 0, 62, 24
3, 31920, Note_on_c, 0, 62, 0
3, 31920, Note_on_c, 0, 56, 28
3, 32040, Note_on_c, 0, 56, 0
3, 32040, Note_on_c, 0, 62, 23
3, 32160, Note_on_c, 0, 62, 0
3, 32160, Note_on_c, 0, 57, 27
3, 32280, Note_on_c, 0, 57, 0
3, 32280, Note_on_c, 0, 59, 26
3, 32400, Note_on_c, 0, 59, 0
3, 32400, Note_on_c, 0, 60, 25
3, 32520, Note_on_c, 0, 60, 0
3, 32520, Note_on_c, 0, 64, 20
3, 32640, Note_on_c, 0, 64, 0
3, 32640, Note_on_c, 0, 62, 24
3, 32760, Note_on_c, 0, 62, 0
3, 32760, Note_on_c, 0, 60, 21
3, 32880, Note_on_c, 0, 60, 0
3, 32880, Note_on_c, 0, 59, 22
3, 33000, Note_on_c, 0, 59, 0
3, 33000, Note_on_c, 0, 64, 21
3, 33120, Note_on_c, 0, 64, 0
3, 33120, Note_on_c, 0, 57, 24
3, 33240, Note_on_c, 0, 57, 0
3, 33240, Note_on_c, 0, 64, 21
3, 33360, Note_on_c, 0, 64, 0
3, 33360, Note_on_c, 0, 57, 23
3, 33480, Note_on_c, 0, 57, 0
3, 33480, Note_on_c, 0, 64, 22
3, 33600, Note_on_c, 0, 64, 0
3, 33600, Note_on_c, 0, 56, 24
3, 33720, Note_on_c, 0, 56, 0
3, 33720, Note_on_c, 0, 64, 22
3, 33840, Note_on_c, 0, 64, 0
3, 33840, Note_on_c, 0, 52, 40
3, 33960, Note_on_c, 0, 52, 0
3, 33960, Note_on_c, 0, 64, 32
3, 34080, Note_on_c, 0, 64, 0
3, 34080, Note_on_c, 0, 57, 37
3, 34200, Note_on_c, 0, 57, 0
3, 34200, Note_on_c, 0, 53, 31
3, 34320, Note_on_c, 0, 53, 0
3, 34320, Note_on_c, 0, 52, 37
3, 34440, Note_on_c, 0, 52, 0
3, 34440, Note_on_c, 0, 51, 31
3, 34560, Note_on_c, 0, 51, 0
3, 34560, Note_on_c, 0, 52, 40
3, 34680, Note_on_c, 0, 52, 0
3, 34680, Note_on_c, 0, 62, 42
3, 34800, Note_on_c, 0, 62, 0
3, 34800, Note_on_c, 0, 59, 39
3, 34920, Note_on_c, 0, 59, 0
3, 34920, Note_on_c, 0, 56, 37
3, 35040, Note_on_c, 0, 56, 0
3, 35040, Note_on_c, 0, 52, 37
3, 35160, Note_on_c, 0, 52, 0
3, 35160, Note_on_c, 0, 50, 37
3, 35280, Note_on_c, 0, 50, 0
3, 35280, Note_on_c, 0, 48, 34
3, 35400, Note_on_c, 0, 48, 0
3, 35400, Note_on_c, 0, 57, 26
3, 35520, Note_on_c, 0, 57, 0
3, 35520, Note_on_c, 0, 64, 34
3, 35640, Note_on_c, 0, 64, 0
3, 35640, Note_on_c, 0, 57, 30
3, 35760, Note_on_c, 0, 57, 0
3, 35760, Note_on_c, 0, 48, 34
3, 35880, Note_on_c, 0, 48, 0
3, 35880, Note_on_c, 0, 57, 30
3, 36000, Note_on_c, 0, 57, 0
3, 36000, Note_on_c, 0, 50, 34
3, 36120, Note_on_c, 0, 50, 0
3, 36120, Note_on_c, 0, 57, 30
3, 36240, Note_on_c, 0, 57, 0
3, 36240, Note_on_c, 0, 65, 38
3, 36360, Note_on_c, 0, 65, 0
3, 36360, Note_on_c, 0, 57, 31
3, 36480, Note_on_c, 0, 57, 0
3, 36480, Note_on_c, 0, 50, 37
3, 36600, Note_on_c, 0, 50, 0
3, 36600, Note_on_c, 0, 57, 44
3, 36720, Note_on_c, 0, 57, 0
3, 36720, Note_on_c, 0, 52, 48
3, 36840, Note_on_c, 0, 52, 0
3, 36840, Note_on_c, 0, 55, 37
3, 36960, Note_on_c, 0, 55, 0
3, 36960, Note_on_c, 0, 67, 43
3, 37080, Note_on_c, 0, 67, 0
3, 37080, Note_on_c, 0, 55, 31
3, 37200, Note_on_c, 0, 55, 0
3, 37200, Note_on_c, 0, 52, 38
3, 37320, Note_on_c, 0, 52, 0
3, 37320, Note_on_c, 0, 55, 32
3, 37440, Note_on_c, 0, 55, 0
3, 37440, Note_on_c, 0, 53, 37
3, 37560, Note_on_c, 0, 53, 0
3, 37560, Note_on_c, 0, 60, 31
3, 37680, Note_on_c, 0, 60, 0
3, 37680, Note_on_c, 0, 65, 37
3, 37800, Note_on_c, 0, 65, 0
3, 37800, Note_on_c, 0, 60, 29
3, 37920, Note_on_c, 0, 60, 0
3, 37920, Note_on_c, 0, 59, 33
3, 38040, Note_on_c, 0, 59, 0
3, 38040, Note_on_c, 0, 53, 29
3, 38160, Note_on_c, 0, 53, 0
3, 38160, Note_on_c, 0, 60, 34
3, 38280, Note_on_c, 0, 60, 0
3, 38280, Note_on_c, 0, 53, 26
3, 38400, Note_on_c, 0, 53, 0
3, 38400, Note_on_c, 0, 57, 34
3, 38520, Note_on_c, 0, 57, 0
3, 38520, Note_on_c, 0, 53, 30
3, 38640, Note_on_c, 0, 53, 0
3, 38640, Note_on_c, 0, 59, 34
3, 38760, Note_on_c, 0, 59, 0
3, 38760, Note_on_c, 0, 53, 30
3, 38880, Note_on_c, 0, 53, 0
3, 38880, Note_on_c, 0, 60, 34
3, 38880, Note_on_c, 0, 52, 34
3, 39000, Note_on_c, 0, 60, 0
3, 39000, Note_on_c, 0, 64, 30
3, 39120, Note_on_c, 0, 64, 0
3, 39120, Note_on_c, 0, 60, 31
3, 39240, Note_on_c, 0, 60, 0
3, 39240, Note_on_c, 0, 64, 27
3, 39360, Note_on_c, 0, 64, 0
3, 39360, Note_on_c, 0, 57, 31
3, 39480, Note_on_c, 0, 57, 0
3, 39480, Note_on_c, 0, 64, 29
3, 39600, Note_on_c, 0, 64, 0
3, 39600, Note_on_c, 0, 52, 0
3, 39600, Note_on_c, 0, 59, 34
3, 39600, Note_on_c, 0, 52, 34
3, 39720, Note_on_c, 0, 59, 0
3, 39720, Note_on_c, 0, 64, 27
3, 39840, Note_on_c, 0, 64, 0
3, 39840, Note_on_c, 0, 59, 34
3, 39960, Note_on_c, 0, 59, 0
3, 39960, Note_on_c, 0, 64, 31
3, 40080, Note_on_c, 0, 64, 0
3, 40080, Note_on_c, 0, 62, 34
3, 40200, Note_on_c, 0, 62, 0
3, 40200, Note_on_c, 0, 64, 27
3, 40320, Note_on_c, 0, 64, 0
3, 40320, Note_on_c, 0, 52, 0
3, 40320, Note_on_c, 0, 60, 34
3, 40440, Note_on_c, 0, 60, 0
3, 40440, Note_on_c, 0, 64, 29
3, 40560, Note_on_c, 0, 64, 0
3, 40560, Note_on_c, 0, 69, 34
3, 40680, Note_on_c, 0, 69, 0
3, 40680, Note_on_c, 0, 67, 30
3, 40800, Note_on_c, 0, 67, 0
3, 40800, Note_on_c, 0, 65, 37
3, 40920, Note_on_c, 0, 65, 0
3, 40920, Note_on_c, 0, 57, 37
3, 41040, Note_on_c, 0, 57, 0
3, 41040, Note_on_c, 0, 64, 45
3, 41160, Note_on_c, 0, 64, 0
3, 41160, Note_on_c, 0, 57, 31
3, 41280, Note_on_c, 0, 57, 0
3, 41280, Note_on_c, 0, 62, 34
3, 41400, Note_on_c, 0, 62, 0
3, 41400, Note_on_c, 0, 57, 30
3, 41520, Note_on_c, 0, 57, 0
3, 41520, Note_on_c, 0, 61, 34
3, 41640, Note_on_c, 0, 61, 0
3, 41640, Note_on_c, 0, 57, 30
3, 41760, Note_on_c, 0, 57, 0
3, 41760, Note_on_c, 0, 60, 43
3, 41760, Note_on_c, 0, 50, 43
3, 41880, Note_on_c, 0, 50, 0
3, 41880, Note_on_c, 0, 60, 0
3, 41880, Note_on_c, 0, 57, 30
3, 42000, Note_on_c, 0, 57, 0
3, 42000, Note_on_c, 0, 62, 38
3, 42120, Note_on_c, 0, 62, 0
3, 42120, Note_on_c, 0, 60, 31
3, 42240, Note_on_c, 0, 60, 0
3, 42240, Note_on_c, 0, 59, 37
3, 42360, Note_on_c, 0, 59, 0
3, 42360, Note_on_c, 0, 55, 37
3, 42480, Note_on_c, 0, 55, 0
3, 42480, Note_on_c, 0, 59, 45
3, 42600, Note_on_c, 0, 59, 0
3, 42600, Note_on_c, 0, 55, 31
3, 42720, Note_on_c, 0, 55, 0
3, 42720, Note_on_c, 0, 60, 34
3, 42840, Note_on_c, 0, 60, 0
3, 42840, Note_on_c, 0, 55, 30
3, 42960, Note_on_c, 0, 55, 0
3, 42960, Note_on_c, 0, 59, 34
3, 43080, Note_on_c, 0, 59, 0
3, 43080, Note_on_c, 0, 53, 30
3, 43200, Note_on_c, 0, 53, 0
3, 43200, Note_on_c, 0, 52, 43
3, 43320, Note_on_c, 0, 52, 0
3, 43320, Note_on_c, 0, 55, 30
3, 43440, Note_on_c, 0, 55, 0
3, 43440, Note_on_c, 0, 60, 38
3, 43560, Note_on_c, 0, 60, 0
3, 43560, Note_on_c, 0, 64, 31
3, 43680, Note_on_c, 0, 64, 0
3, 43680, Note_on_c, 0, 60, 31
3, 43800, Note_on_c, 0, 60, 0
3, 43800, Note_on_c, 0, 59, 29
3, 43920, Note_on_c, 0, 59, 0
3, 43920, Note_on_c, 0, 57, 35
3, 44040, Note_on_c, 0, 57, 0
3, 44040, Note_on_c, 0, 56, 31
3, 44160, Note_on_c, 0, 56, 0
3, 44160, Note_on_c, 0, 57, 31
3, 44280, Note_on_c, 0, 57, 0
3, 44280, Note_on_c, 0, 53, 26
3, 44400, Note_on_c, 0, 53, 0
3, 44400, Note_on_c, 0, 59, 31
3, 44520, Note_on_c, 0, 59, 0
3, 44520, Note_on_c, 0, 53, 27
3, 44640, Note_on_c, 0, 53, 0
3, 44640, Note_on_c, 0, 52, 28
3, 44640, Note_on_c, 0, 60, 33
3, 44760, Note_on_c, 0, 60, 0
3, 44760, Note_on_c, 0, 64, 26
3, 44880, Note_on_c, 0, 64, 0
3, 44880, Note_on_c, 0, 60, 29
3, 45000, Note_on_c, 0, 60, 0
3, 45000, Note_on_c, 0, 64, 26
3, 45120, Note_on_c, 0, 64, 0
3, 45120, Note_on_c, 0, 57, 29
3, 45240, Note_on_c, 0, 57, 0
3, 45240, Note_on_c, 0, 64, 27
3, 45360, Note_on_c, 0, 64, 0
3, 45360, Note_on_c, 0, 52, 0
3, 45360, Note_on_c, 0, 52, 28
3, 45360, Note_on_c, 0, 59, 33
3, 45480, Note_on_c, 0, 59, 0
3, 45480, Note_on_c, 0, 64, 26
3, 45600, Note_on_c, 0, 64, 0
3, 45600, Note_on_c, 0, 59, 29
3, 45720, Note_on_c, 0, 59, 0
3, 45720, Note_on_c, 0, 64, 26
3, 45840, Note_on_c, 0, 64, 0
3, 45840, Note_on_c, 0, 62, 29
3, 45960, Note_on_c, 0, 62, 0
3, 45960, Note_on_c, 0, 64, 27
3, 46080, Note_on_c, 0, 64, 0
3, 46080, Note_on_c, 0, 52, 0
3, 46080, Note_on_c, 0, 60, 33
3, 46200, Note_on_c, 0, 60, 0
3, 46200, Note_on_c, 0, 52, 26
3, 46320, Note_on_c, 0, 52, 0
3, 46320, Note_on_c, 0, 60, 29
3, 46440, Note_on_c, 0, 60, 0
3, 46440, Note_on_c, 0, 52, 26
3, 46560, Note_on_c, 0, 52, 0
3, 46560, Note_on_c, 0, 62, 29
3, 46680, Note_on_c, 0, 62, 0
3, 46680, Note_on_c, 0, 60, 27
3, 46800, Note_on_c, 0, 60, 0
3, 46800, Note_on_c, 0, 62, 33
3, 46920, Note_on_c, 0, 62, 0
3, 46920, Note_on_c, 0, 52, 26
3, 47040, Note_on_c, 0, 52, 0
3, 47040, Note_on_c, 0, 62, 29
3, 47160, Note_on_c, 0, 62, 0
3, 47160, Note_on_c, 0, 52, 26
3, 47280, Note_on_c, 0, 52, 0
3, 47280, Note_on_c, 0, 60, 29
3, 47400, Note_on_c, 0, 60, 0
3, 47400, Note_on_c, 0, 59, 27
3, 47520, Note_on_c, 0, 59, 0
3, 47520, Note_on_c, 0, 60, 33
3, 47640, Note_on_c, 0, 60, 0
3, 47640, Note_on_c, 0, 52, 26
3, 47760, Note_on_c, 0, 52, 0
3, 47760, Note_on_c, 0, 60, 29
3, 47880, Note_on_c, 0, 60, 0
3, 47880, Note_on_c, 0, 52, 26
3, 48000, Note_on_c, 0, 52, 0
3, 48000, Note_on_c, 0, 60, 29
3, 48120, Note_on_c, 0, 60, 0
3, 48120, Note_on_c, 0, 52, 27
3, 48240, Note_on_c, 0, 52, 0
3, 48240, Note_on_c, 0, 60, 33
3, 48360, Note_on_c, 0, 60, 0
3, 48360, Note_on_c, 0, 52, 26
3, 48480, Note_on_c, 0, 52, 0
3, 48480, Note_on_c, 0, 60, 29
3, 48600, Note_on_c, 0, 60, 0
3, 48600, Note_on_c, 0, 52, 26
3, 48720, Note_on_c, 0, 52, 0
3, 48720, Note_on_c, 0, 60, 29
3, 48840, Note_on_c, 0, 60, 0
3, 48840, Note_on_c, 0, 52, 27
3, 48960, Note_on_c, 0, 52, 0
3, 48960, Note_on_c, 0, 60, 32
3, 49080, Note_on_c, 0, 60, 0
3, 49080, Note_on_c, 0, 53, 25
3, 49200, Note_on_c, 0, 53, 0
3, 49200, Note_on_c, 0, 60, 28
3, 49320, Note_on_c, 0, 60, 0
3, 49320, Note_on_c, 0, 53, 24
3, 49440, Note_on_c, 0, 53, 0
3, 49440, Note_on_c, 0, 60, 27
3, 49560, Note_on_c, 0, 60, 0
3, 49560, Note_on_c, 0, 53, 25
3, 49680, Note_on_c, 0, 53, 0
3, 49680, Note_on_c, 0, 59, 30
3, 49800, Note_on_c, 0, 59, 0
3, 49800, Note_on_c, 0, 53, 23
3, 49920, Note_on_c, 0, 53, 0
3, 49920, Note_on_c, 0, 52, 26
3, 50040, Note_on_c, 0, 52, 0
3, 50040, Note_on_c, 0, 57, 23
3, 50160, Note_on_c, 0, 57, 0
3, 50160, Note_on_c, 0, 50, 25
3, 50280, Note_on_c, 0, 50, 0
3, 50280, Note_on_c, 0, 53, 23
3, 50400, Note_on_c, 0, 53, 0
3, 50400, Note_on_c, 0, 40, 27
3, 50520, Note_on_c, 0, 52, 22
3, 50640, Note_on_c, 0, 52, 0
3, 50640, Note_on_c, 0, 48, 24
3, 50760, Note_on_c, 0, 48, 0
3, 50760, Note_on_c, 0, 52, 21
3, 50880, Note_on_c, 0, 52, 0
3, 50880, Note_on_c, 0, 48, 24
3, 51000, Note_on_c, 0, 48, 0
3, 51000, Note_on_c, 0, 52, 22
3, 51120, Note_on_c, 0, 52, 0
3, 51120, Note_on_c, 0, 48, 26
3, 51240, Note_on_c, 0, 48, 0
3, 51240, Note_on_c, 0, 52, 20
3, 51360, Note_on_c, 0, 52, 0
3, 51360, Note_on_c, 0, 57, 22
3, 51480, Note_on_c, 0, 57, 0
3, 51480, Note_on_c, 0, 52, 20
3, 51600, Note_on_c, 0, 52, 0
3, 51600, Note_on_c, 0, 50, 22
3, 51720, Note_on_c, 0, 50, 0
3, 51720, Note_on_c, 0, 52, 20
3, 51840, Note_on_c, 0, 52, 0
3, 51840, Note_on_c, 0, 40, 0
3, 51840, Note_on_c, 0, 45, 25
3, 51840, Note_on_c, 0, 48, 26
3, 51960, Note_on_c, 0, 48, 0
3, 51960, Note_on_c, 0, 52, 20
3, 52080, Note_on_c, 0, 52, 0
3, 52320, Note_on_c, 0, 45, 0
3, 52560, Note_on_c, 0, 33, 25
3, 52560, Note_on_c, 0, 45, 25
3, 53040, Note_on_c, 0, 45, 0
3, 53040, Note_on_c, 0, 33, 0
3, 53280, Note_on_c, 0, 33, 25
3, 53280, Note_on_c, 0, 45, 25
3, 53760, Note_on_c, 0, 45, 0
3, 53760, Note_on_c, 0, 33, 0
3, 54000, Note_on_c, 0, 33, 20
3, 54000, Note_on_c, 0, 45, 25
3, 54180, Note_on_c, 0, 45, 0
3, 54180, Note_on_c, 0, 33, 0
3, 54240, Note_on_c, 0, 33, 20
3, 54240, Note_on_c, 0, 45, 25
3, 54420, Note_on_c, 0, 45, 0
3, 54420, Note_on_c, 0, 33, 0
3, 54480, Note_on_c, 0, 33, 20
3, 54480, Note_on_c, 0, 45, 25
3, 54660, Note_on_c, 0, 45, 0
3, 54660, Note_on_c, 0, 33, 0
3, 54720, Note_on_c, 0, 33, 26
3, 54840, Note_on_c, 0, 33, 0
3, 54840, Note_on_c, 0, 40, 20
3, 54960, Note_on_c, 0, 40, 0
3, 54960, Note_on_c, 0, 45, 22
3, 55080, Note_on_c, 0, 45, 0
3, 55080, Note_on_c, 0, 44, 20
3, 55200, Note_on_c, 0, 44, 0
3, 55200, Note_on_c, 0, 45, 22
3, 55320, Note_on_c, 0, 45, 0
3, 55320, Note_on_c, 0, 40, 20
3, 55440, Note_on_c, 0, 40, 0
3, 55440, Note_on_c, 0, 41, 26
3, 55560, Note_on_c, 0, 41, 0
3, 55560, Note_on_c, 0, 38, 20
3, 55680, Note_on_c, 0, 38, 0
3, 55680, Note_on_c, 0, 45, 22
3, 55800, Note_on_c, 0, 45, 0
3, 55800, Note_on_c, 0, 44, 20
3, 55920, Note_on_c, 0, 44, 0
3, 55920, Note_on_c, 0, 45, 22
3, 56040, Note_on_c, 0, 45, 0
3, 56040, Note_on_c, 0, 41, 20
3, 56160, Note_on_c, 0, 41, 0
3, 56160, Note_on_c, 0, 40, 26
3, 56280, Note_on_c, 0, 40, 0
3, 56280, Note_on_c, 0, 37, 20
3, 56400, Note_on_c, 0, 37, 0
3, 56400, Note_on_c, 0, 45, 22
3, 56513, Note_on_c, 0, 44, 20
3, 56520, Note_on_c, 0, 45, 0
3, 56633, Note_on_c, 0, 44, 0
3, 56640, Note_on_c, 0, 45, 22
3, 56760, Note_on_c, 0, 45, 0
3, 56760, Note_on_c, 0, 40, 20
3, 56880, Note_on_c, 0, 40, 0
3, 56880, Note_on_c, 0, 38, 28
3, 57000, Note_on_c, 0, 38, 0
3, 57000, Note_on_c, 0, 45, 23
3, 57120, Note_on_c, 0, 45, 0
3, 57120, Note_on_c, 0, 40, 26
3, 57240, Note_on_c, 0, 40, 0
3, 57240, Note_on_c, 0, 45, 25
3, 57360, Note_on_c, 0, 45, 0
3, 57360, Note_on_c, 0, 41, 33
3, 57480, Note_on_c, 0, 41, 0
3, 57480, Note_on_c, 0, 45, 42
3, 57600, Note_on_c, 0, 45, 0
3, 57600, Note_on_c, 0, 43, 47
3, 57720, Note_on_c, 0, 43, 0
3, 57720, Note_on_c, 0, 33, 41
3, 57840, Note_on_c, 0, 33, 0
3, 57840, Note_on_c, 0, 43, 43
3, 57960, Note_on_c, 0, 43, 0
3, 57960, Note_on_c, 0, 33, 38
3, 58080, Note_on_c, 0, 33, 0
3, 58080, Note_on_c, 0, 43, 43
3, 58200, Note_on_c, 0, 43, 0
3, 58200, Note_on_c, 0, 33, 38
3, 58320, Note_on_c, 0, 33, 0
3, 58320, Note_on_c, 0, 43, 48
3, 58440, Note_on_c, 0, 43, 0
3, 58440, Note_on_c, 0, 33, 30
3, 58560, Note_on_c, 0, 33, 0
3, 58560, Note_on_c, 0, 43, 38
3, 58680, Note_on_c, 0, 43, 0
3, 58680, Note_on_c, 0, 33, 26
3, 58800, Note_on_c, 0, 33, 0
3, 58800, Note_on_c, 0, 43, 33
3, 58920, Note_on_c, 0, 43, 0
3, 58920, Note_on_c, 0, 33, 26
3, 59040, Note_on_c, 0, 33, 0
3, 59040, Note_on_c, 0, 41, 26
3, 59160, Note_on_c, 0, 41, 0
3, 59160, Note_on_c, 0, 33, 20
3, 59280, Note_on_c, 0, 33, 0
3, 59280, Note_on_c, 0, 40, 22
3, 59400, Note_on_c, 0, 40, 0
3, 59400, Note_on_c, 0, 33, 20
3, 59520, Note_on_c, 0, 33, 0
3, 59520, Note_on_c, 0, 38, 22
3, 59640, Note_on_c, 0, 38, 0
3, 59640, Note_on_c, 0, 33, 20
3, 59760, Note_on_c, 0, 33, 0
3, 59760, Note_on_c, 0, 40, 28
3, 59880, Note_on_c, 0, 40, 0
3, 59880, Note_on_c, 0, 33, 23
3, 60000, Note_on_c, 0, 33, 0
3, 60000, Note_on_c, 0, 38, 26
3, 60120, Note_on_c, 0, 38, 0
3, 60120, Note_on_c, 0, 33, 25
3, 60240, Note_on_c, 0, 33, 0
3, 60240, Note_on_c, 0, 36, 33
3, 60360, Note_on_c, 0, 36, 0
3, 60360, Note_on_c, 0, 33, 42
3, 60480, Note_on_c, 0, 33, 0
3, 60480, Note_on_c, 0, 35, 47
3, 60600, Note_on_c, 0, 35, 0
3, 60600, Note_on_c, 0, 33, 41
3, 60720, Note_on_c, 0, 33, 0
3, 60720, Note_on_c, 0, 35, 43
3, 60840, Note_on_c, 0, 35, 0
3, 60840, Note_on_c, 0, 33, 38
3, 60960, Note_on_c, 0, 33, 0
3, 60960, Note_on_c, 0, 35, 43
3, 61080, Note_on_c, 0, 35, 0
3, 61080, Note_on_c, 0, 33, 38
3, 61200, Note_on_c, 0, 33, 0
3, 61200, Note_on_c, 0, 35, 48
3, 61320, Note_on_c, 0, 35, 0
3, 61320, Note_on_c, 0, 33, 30
3, 61440, Note_on_c, 0, 33, 0
3, 61440, Note_on_c, 0, 35, 38
3, 61560, Note_on_c, 0, 35, 0
3, 61560, Note_on_c, 0, 38, 41
3, 61680, Note_on_c, 0, 38, 0
3, 61680, Note_on_c, 0, 41, 47
3, 61800, Note_on_c, 0, 41, 0
3, 61800, Note_on_c, 0, 38, 26
3, 61920, Note_on_c, 0, 38, 0
3, 61920, Note_on_c, 0, 35, 48
3, 62040, Note_on_c, 0, 35, 0
3, 62040, Note_on_c, 0, 33, 30
3, 62160, Note_on_c, 0, 33, 0
3, 62160, Note_on_c, 0, 35, 38
3, 62280, Note_on_c, 0, 35, 0
3, 62280, Note_on_c, 0, 38, 43
3, 62400, Note_on_c, 0, 38, 0
3, 62400, Note_on_c, 0, 41, 50
3, 62520, Note_on_c, 0, 41, 0
3, 62520, Note_on_c, 0, 38, 26
3, 62640, Note_on_c, 0, 38, 0
3, 62640, Note_on_c, 0, 33, 30
3, 62820, Note_on_c, 0, 33, 0
3, 62880, Note_on_c, 0, 33, 21
3, 63060, Note_on_c, 0, 33, 0
3, 63120, Note_on_c, 0, 33, 21
3, 63300, Note_on_c, 0, 33, 0
3, 63360, Note_on_c, 0, 33, 27
3, 63540, Note_on_c, 0, 33, 0
3, 63600, Note_on_c, 0, 33, 21
3, 63780, Note_on_c, 0, 33, 0
3, 63840, Note_on_c, 0, 33, 20
3, 64020, Note_on_c, 0, 33, 0
3, 64080, Note_on_c, 0, 33, 21
3, 64320, Note_on_c, 0, 33, 0
3, 64560, Note_on_c, 0, 45, 18
3, 64560, Note_on_c, 0, 33, 18
3, 64620, Note_on_c, 0, 33, 0
3, 64620, Note_on_c, 0, 45, 0
3, 64800, Note_on_c, 0, 33, 21
3, 64800, Note_on_c, 0, 45, 21
3, 64860, Note_on_c, 0, 45, 0
3, 64860, Note_on_c, 0, 33, 0
3, 65280, Note_on_c, 0, 45, 17
3, 65280, Note_on_c, 0, 33, 17
3, 65340, Note_on_c, 0, 33, 0
3, 65340, Note_on_c, 0, 45, 0
3, 65520, Note_on_c, 0, 33, 21
3, 65520, Note_on_c, 0, 45, 21
3, 65580, Note_on_c, 0, 45, 0
3, 65580, Note_on_c, 0, 33, 0
3, 65580, End_track
4, 0, Start_track
4, 0, Title_t, "Pedale"
4, 0, Program_c, 0, 0
4, 494, Control_c, 0, 64, 127
4, 734, Control_c, 0, 64, 0
4, 777, Control_c, 0, 64, 127
4, 979, Control_c, 0, 64, 0
4, 1029, Control_c, 0, 64, 127
4, 1209, Control_c, 0, 64, 0
4, 1269, Control_c, 0, 64, 127
4, 1452, Control_c, 0, 64, 0
4, 1497, Control_c, 0, 64, 127
4, 1698, Control_c, 0, 64, 0
4, 1786, Control_c, 0, 64, 127
4, 1931, Control_c, 0, 64, 0
4, 1998, Control_c, 0, 64, 127
4, 2171, Control_c, 0, 64, 0
4, 2217, Control_c, 0, 64, 127
4, 2656, Control_c, 0, 64, 0
4, 2726, Control_c, 0, 64, 127
4, 2890, Control_c, 0, 64, 0
4, 2943, Control_c, 0, 64, 127
4, 3376, Control_c, 0, 64, 0
4, 3446, Control_c, 0, 64, 127
4, 3614, Control_c, 0, 64, 0
4, 3664, Control_c, 0, 64, 127
4, 4092, Control_c, 0, 64, 0
4, 4179, Control_c, 0, 64, 127
4, 4329, Control_c, 0, 64, 0
4, 4395, Control_c, 0, 64, 127
4, 4815, Control_c, 0, 64, 0
4, 4886, Control_c, 0, 64, 127
4, 5049, Control_c, 0, 64, 0
4, 5103, Control_c, 0, 64, 127
4, 5296, Control_c, 0, 64, 0
4, 5343, Control_c, 0, 64, 127
4, 5530, Control_c, 0, 64, 0
4, 5577, Control_c, 0, 64, 127
4, 5770, Control_c, 0, 64, 0
4, 6254, Control_c, 0, 64, 127
4, 6494, Control_c, 0, 64, 0
4, 6537, Control_c, 0, 64, 127
4, 6739, Control_c, 0, 64, 0
4, 6789, Control_c, 0, 64, 127
4, 6969, Control_c, 0, 64, 0
4, 7029, Control_c, 0, 64, 127
4, 7212, Control_c, 0, 64, 0
4, 7257, Control_c, 0, 64, 127
4, 7458, Control_c, 0, 64, 0
4, 7546, Control_c, 0, 64, 127
4, 7691, Control_c, 0, 64, 0
4, 7758, Control_c, 0, 64, 127
4, 7931, Control_c, 0, 64, 0
4, 7977, Control_c, 0, 64, 127
4, 8416, Control_c, 0, 64, 0
4, 8486, Control_c, 0, 64, 127
4, 8650, Control_c, 0, 64, 0
4, 8703, Control_c, 0, 64, 127
4, 9136, Control_c, 0, 64, 0
4, 9206, Control_c, 0, 64, 127
4, 9360, Control_c, 0, 64, 0
4, 9431, Control_c, 0, 64, 127
4, 9859, Control_c, 0, 64, 0
4, 9932, Control_c, 0, 64, 127
4, 10083, Control_c, 0, 64, 0
4, 10377, Control_c, 0, 64, 127
4, 10572, Control_c, 0, 64, 0
4, 10635, Control_c, 0, 64, 127
4, 10800, Control_c, 0, 64, 0
4, 10871, Control_c, 0, 64, 127
4, 11299, Control_c, 0, 64, 0
4, 11372, Control_c, 0, 64, 127
4, 11523, Control_c, 0, 64, 0
4, 11817, Control_c, 0, 64, 127
4, 12012, Control_c, 0, 64, 0
4, 12075, Control_c, 0, 64, 127
4, 12240, Control_c, 0, 64, 0
4, 12311, Control_c, 0, 64, 127
4, 12739, Control_c, 0, 64, 0
4, 12812, Control_c, 0, 64, 127
4, 12960, Control_c, 0, 64, 0
4, 13031, Control_c, 0, 64, 127
4, 13211, Control_c, 0, 64, 0
4, 13269, Control_c, 0, 64, 127
4, 13459, Control_c, 0, 64, 0
4, 13532, Control_c, 0, 64, 127
4, 13690, Control_c, 0, 64, 0
4, 13743, Control_c, 0, 64, 127
4, 14645, Control_c, 0, 64, 0
4, 14703, Control_c, 0, 64, 127
4, 14891, Control_c, 0, 64, 0
4, 14937, Control_c, 0, 64, 127
4, 15130, Control_c, 0, 64, 0
4, 15189, Control_c, 0, 64, 127
4, 15610, Control_c, 0, 64, 0
4, 15657, Control_c, 0, 64, 127
4, 15848, Control_c, 0, 64, 0
4, 15897, Control_c, 0, 64, 127
4, 16341, Control_c, 0, 64, 0
4, 16391, Control_c, 0, 64, 127
4, 16570, Control_c, 0, 64, 0
4, 16638, Control_c, 0, 64, 127
4, 17541, Control_c, 0, 64, 0
4, 18000, Control_c, 0, 64, 0
4, 18071, Control_c, 0, 64, 127
4, 18499, Control_c, 0, 64, 0
4, 18572, Control_c, 0, 64, 127
4, 18720, Control_c, 0, 64, 0
4, 18791, Control_c, 0, 64, 127
4, 18971, Control_c, 0, 64, 0
4, 19029, Control_c, 0, 64, 127
4, 19219, Control_c, 0, 64, 0
4, 19292, Control_c, 0, 64, 127
4, 19440, Control_c, 0, 64, 0
4, 19509, Control_c, 0, 64, 127
4, 19932, Control_c, 0, 64, 0
4, 20229, Control_c, 0, 64, 127
4, 20657, Control_c, 0, 64, 0
4, 20709, Control_c, 0, 64, 127
4, 20889, Control_c, 0, 64, 0
4, 20937, Control_c, 0, 64, 127
4, 21372, Control_c, 0, 64, 0
4, 21440, Control_c, 0, 64, 127
4, 21609, Control_c, 0, 64, 0
4, 21657, Control_c, 0, 64, 127
4, 22097, Control_c, 0, 64, 0
4, 22149, Control_c, 0, 64, 127
4, 22329, Control_c, 0, 64, 0
4, 22377, Control_c, 0, 64, 127
4, 22809, Control_c, 0, 64, 0
4, 22846, Control_c, 0, 64, 127
4, 23049, Control_c, 0, 64, 0
4, 23097, Control_c, 0, 64, 127
4, 23532, Control_c, 0, 64, 0
4, 23595, Control_c, 0, 64, 127
4, 23769, Control_c, 0, 64, 0
4, 23817, Control_c, 0, 64, 127
4, 24489, Control_c, 0, 64, 0
4, 24537, Control_c, 0, 64, 127
4, 24977, Control_c, 0, 64, 0
4, 25029, Control_c, 0, 64, 127
4, 25209, Control_c, 0, 64, 0
4, 25257, Control_c, 0, 64, 127
4, 25689, Control_c, 0, 64, 0
4, 25726, Control_c, 0, 64, 127
4, 25929, Control_c, 0, 64, 0
4, 25977, Control_c, 0, 64, 127
4, 26412, Control_c, 0, 64, 0
4, 26475, Control_c, 0, 64, 127
4, 26649, Control_c, 0, 64, 0
4, 26697, Control_c, 0, 64, 127
4, 27369, Control_c, 0, 64, 0
4, 27417, Control_c, 0, 64, 127
4, 27852, Control_c, 0, 64, 0
4, 27915, Control_c, 0, 64, 127
4, 28089, Control_c, 0, 64, 0
4, 28137, Control_c, 0, 64, 127
4, 28810, Control_c, 0, 64, 0
4, 29294, Control_c, 0, 64, 127
4, 29534, Control_c, 0, 64, 0
4, 29577, Control_c, 0, 64, 127
4, 29779, Control_c, 0, 64, 0
4, 29829, Control_c, 0, 64, 127
4, 30009, Control_c, 0, 64, 0
4, 30069, Control_c, 0, 64, 127
4, 30252, Control_c, 0, 64, 0
4, 30297, Control_c, 0, 64, 127
4, 30498, Control_c, 0, 64, 0
4, 30586, Control_c, 0, 64, 127
4, 30731, Control_c, 0, 64, 0
4, 30798, Control_c, 0, 64, 127
4, 30971, Control_c, 0, 64, 0
4, 31017, Control_c, 0, 64, 127
4, 31456, Control_c, 0, 64, 0
4, 31526, Control_c, 0, 64, 127
4, 31690, Control_c, 0, 64, 0
4, 31743, Control_c, 0, 64, 127
4, 32176, Control_c, 0, 64, 0
4, 32246, Control_c, 0, 64, 127
4, 32414, Control_c, 0, 64, 0
4, 32464, Control_c, 0, 64, 127
4, 32892, Control_c, 0, 64, 0
4, 32979, Control_c, 0, 64, 127
4, 33129, Control_c, 0, 64, 0
4, 33195, Control_c, 0, 64, 127
4, 33615, Control_c, 0, 64, 0
4, 33686, Control_c, 0, 64, 127
4, 33849, Control_c, 0, 64, 0
4, 33903, Control_c, 0, 64, 127
4, 34096, Control_c, 0, 64, 0
4, 34143, Control_c, 0, 64, 127
4, 34330, Control_c, 0, 64, 0
4, 34377, Control_c, 0, 64, 127
4, 34570, Control_c, 0, 64, 0
4, 34635, Control_c, 0, 64, 127
4, 35051, Control_c, 0, 64, 0
4, 35115, Control_c, 0, 64, 127
4, 35289, Control_c, 0, 64, 0
4, 35351, Control_c, 0, 64, 127
4, 36010, Control_c, 0, 64, 0
4, 36092, Control_c, 0, 64, 127
4, 36256, Control_c, 0, 64, 0
4, 36318, Control_c, 0, 64, 127
4, 36723, Control_c, 0, 64, 0
4, 36798, Control_c, 0, 64, 127
4, 36970, Control_c, 0, 64, 0
4, 37033, Control_c, 0, 64, 127
4, 37452, Control_c, 0, 64, 0
4, 37518, Control_c, 0, 64, 127
4, 37692, Control_c, 0, 64, 0
4, 37758, Control_c, 0, 64, 127
4, 37932, Control_c, 0, 64, 0
4, 38012, Control_c, 0, 64, 127
4, 38174, Control_c, 0, 64, 0
4, 38217, Control_c, 0, 64, 127
4, 38654, Control_c, 0, 64, 0
4, 38704, Control_c, 0, 64, 127
4, 38889, Control_c, 0, 64, 0
4, 38965, Control_c, 0, 64, 127
4, 39374, Control_c, 0, 64, 0
4, 39431, Control_c, 0, 64, 127
4, 39611, Control_c, 0, 64, 0
4, 39692, Control_c, 0, 64, 127
4, 40094, Control_c, 0, 64, 0
4, 40158, Control_c, 0, 64, 127
4, 40329, Control_c, 0, 64, 0
4, 40811, Control_c, 0, 64, 0
4, 40875, Control_c, 0, 64, 127
4, 41049, Control_c, 0, 64, 0
4, 41111, Control_c, 0, 64, 127
4, 41294, Control_c, 0, 64, 0
4, 41355, Control_c, 0, 64, 127
4, 41532, Control_c, 0, 64, 0
4, 41595, Control_c, 0, 64, 127
4, 41770, Control_c, 0, 64, 0
4, 41852, Control_c, 0, 64, 127
4, 42016, Control_c, 0, 64, 0
4, 42078, Control_c, 0, 64, 127
4, 42251, Control_c, 0, 64, 0
4, 42315, Control_c, 0, 64, 127
4, 42489, Control_c, 0, 64, 0
4, 42551, Control_c, 0, 64, 127
4, 42734, Control_c, 0, 64, 0
4, 42795, Control_c, 0, 64, 127
4, 42972, Control_c, 0, 64, 0
4, 43035, Control_c, 0, 64, 127
4, 43210, Control_c, 0, 64, 0
4, 43292, Control_c, 0, 64, 127
4, 43456, Control_c, 0, 64, 0
4, 43518, Control_c, 0, 64, 127
4, 43707, Control_c, 0, 64, 0
4, 44198, Control_c, 0, 64, 127
4, 44410, Control_c, 0, 64, 0
4, 44475, Control_c, 0, 64, 127
4, 44657, Control_c, 0, 64, 0
4, 44746, Control_c, 0, 64, 127
4, 45372, Control_c, 0, 64, 0
4, 45374, Control_c, 0, 64, 0
4, 45466, Control_c, 0, 64, 127
4, 46092, Control_c, 0, 64, 0
4, 46094, Control_c, 0, 64, 0
4, 46186, Control_c, 0, 64, 127
4, 46812, Control_c, 0, 64, 0
4, 46814, Control_c, 0, 64, 0
4, 46906, Control_c, 0, 64, 127
4, 47532, Control_c, 0, 64, 0
4, 47534, Control_c, 0, 64, 0
4, 47626, Control_c, 0, 64, 127
4, 48240, Control_c, 0, 64, 0
4, 48339, Control_c, 0, 64, 127
4, 48960, Control_c, 0, 64, 0
4, 49024, Control_c, 0, 64, 127
4, 49215, Control_c, 0, 64, 0
4, 49264, Control_c, 0, 64, 127
4, 49454, Control_c, 0, 64, 0
4, 49511, Control_c, 0, 64, 127
4, 49690, Control_c, 0, 64, 0
4, 49758, Control_c, 0, 64, 127
4, 49931, Control_c, 0, 64, 0
4, 50005, Control_c, 0, 64, 127
4, 50170, Control_c, 0, 64, 0
4, 50238, Control_c, 0, 64, 127
4, 50408, Control_c, 0, 64, 0
4, 50443, Control_c, 0, 64, 127
4, 50898, Control_c, 0, 64, 0
4, 51148, Control_c, 0, 64, 127
4, 51614, Control_c, 0, 64, 0
4, 51671, Control_c, 0, 64, 127
4, 51846, Control_c, 0, 64, 0
4, 51903, Control_c, 0, 64, 127
4, 52092, Control_c, 0, 64, 0
4, 52583, Control_c, 0, 64, 127
4, 52829, Control_c, 0, 64, 0
4, 53309, Control_c, 0, 64, 127
4, 53534, Control_c, 0, 64, 0
4, 54011, Control_c, 0, 64, 127
4, 54735, Control_c, 0, 64, 0
4, 54795, Control_c, 0, 64, 127
4, 54973, Control_c, 0, 64, 0
4, 55257, Control_c, 0, 64, 127
4, 55452, Control_c, 0, 64, 0
4, 55515, Control_c, 0, 64, 127
4, 55692, Control_c, 0, 64, 0
4, 55983, Control_c, 0, 64, 127
4, 56170, Control_c, 0, 64, 0
4, 56192, Control_c, 0, 64, 127
4, 56416, Control_c, 0, 64, 0
4, 56444, Control_c, 0, 64, 127
4, 56653, Control_c, 0, 64, 0
4, 56691, Control_c, 0, 64, 127
4, 56883, Control_c, 0, 64, 0
4, 56965, Control_c, 0, 64, 127
4, 57144, Control_c, 0, 64, 0
4, 57219, Control_c, 0, 64, 127
4, 57381, Control_c, 0, 64, 0
4, 57438, Control_c, 0, 64, 127
4, 57604, Control_c, 0, 64, 0
4, 57685, Control_c, 0, 64, 127
4, 58821, Control_c, 0, 64, 0
4, 58863, Control_c, 0, 64, 127
4, 59050, Control_c, 0, 64, 0
4, 59072, Control_c, 0, 64, 127
4, 59296, Control_c, 0, 64, 0
4, 59324, Control_c, 0, 64, 127
4, 59533, Control_c, 0, 64, 0
4, 59571, Control_c, 0, 64, 127
4, 59763, Control_c, 0, 64, 0
4, 59845, Control_c, 0, 64, 127
4, 60024, Control_c, 0, 64, 0
4, 60099, Control_c, 0, 64, 127
4, 60261, Control_c, 0, 64, 0
4, 60318, Control_c, 0, 64, 127
4, 60484, Control_c, 0, 64, 0
4, 60565, Control_c, 0, 64, 127
4, 61204, Control_c, 0, 64, 0
4, 61250, Control_c, 0, 64, 127
4, 61451, Control_c, 0, 64, 0
4, 61518, Control_c, 0, 64, 127
4, 61937, Control_c, 0, 64, 0
4, 61991, Control_c, 0, 64, 127
4, 62181, Control_c, 0, 64, 0
4, 62273, Control_c, 0, 64, 127
4, 62640, Control_c, 0, 64, 0
4, 62697, Control_c, 0, 64, 127
4, 64080, Control_c, 0, 64, 0
4, 64080, End_track
5, 0, Start_track
5, 0, Title_t, "Mendelssohn: Songs without words Opus 19 No. 2"
5, 0, End_track
6, 0, Start_track
6, 0, Title_t, "Copyright © 2010 by Bernd Krueger"
6, 0, End_track
7, 0, Start_track
7, 0, Title_t, "http://www.piano-midi.de/"
7, 0, End_track
8, 0, Start_track
8, 0, Title_t, "Edition:"
8, 0, End_track
9, 0, Start_track
9, 0, Title_t, "Spur 8"
9, 0, End_track
10, 0, Start_track
10, 0, Title_t, "Spur 9"
10, 0, End_track
11, 0, Start_track
11, 0, Title_t, "Spur 10"
11, 0, End_track
12, 0, Start_track
12, 0, Title_t, "Spur 11"
12, 0, End_track
13, 0, Start_track
13, 0, Title_t, "Spur 12"
13, 0, End_track
14, 0, Start_track
14, 0, Title_t, "Spur 13"
14, 0, End_track
15, 0, Start_track
15, 0, Title_t, "Spur 14"
15, 0, End_track
16, 0, Start_track
16, 0, Title_t, "Spur 15"
16, 0, End_track
17, 0, Start_track
17, 0, Title_t, "Spur 16"
17, 0, End_track
0, 0, End_of_file
