0, 0, Header, 1, 17, 480
1, 0, Start_track
1, 0, Title_t, "Mendelssohn: Lieder ohne Worte Opus 30 Nr. 4"
1, 0, Copyright_t, "Copyright © 2015 by Bernd Krueger"
1, 0, Text_t, "Bernd Krueger"
1, 0, Text_t, "Agitato con fuoco"
1, 0, Text_t, "Erstellt: 8.2.2015\012"
1, 0, Text_t, "Dauer: 2:40 Minuten\012"
1, 0, Time_signature, 3, 3, 12, 8
1, 0, Key_signature, 2, "major"
1, 0, Tempo, 585995
1, 0, Marker_t, "Agitato e con fuoco"
1, 150, Tempo, 583034
1, 225, Tempo, 580102
1, 300, Tempo, 577201
1, 375, Tempo, 574328
1, 435, Tempo, 571483
1, 495, Tempo, 574328
1, 540, Tempo, 577201
1, 585, Tempo, 580102
1, 630, Tempo, 583034
1, 675, Tempo, 585995
1, 720, Tempo, 585995
1, 750, Tempo, 585995
1, 840, Tempo, 583034
1, 915, Tempo, 580102
1, 990, Tempo, 577201
1, 1065, Tempo, 574328
1, 1140, Tempo, 571483
1, 1200, Tempo, 610749
1, 1320, Tempo, 667111
1, 1440, Tempo, 588986
1, 1440, Marker_t, "Part 1"
1, 1665, Tempo, 568720
1, 1695, Tempo, 547196
1, 1740, Tempo, 544613
1, 1785, Tempo, 542054
1, 1830, Tempo, 539520
1, 1875, Tempo, 537009
1, 1920, Tempo, 534521
1, 1965, Tempo, 532056
1, 2010, Tempo, 529614
1, 2040, Tempo, 634182
1, 2160, Tempo, 588986
1, 2400, Tempo, 565931
1, 2880, Tempo, 583034
1, 3480, Tempo, 641231
1, 3600, Tempo, 585995
1, 3645, Tempo, 583034
1, 3705, Tempo, 580102
1, 3765, Tempo, 577201
1, 3810, Tempo, 574328
1, 3870, Tempo, 571483
1, 3915, Tempo, 568720
1, 4080, Tempo, 613999
1, 4200, Tempo, 670991
1, 4320, Tempo, 585995
1, 4410, Tempo, 577201
1, 4470, Tempo, 574328
1, 4530, Tempo, 571483
1, 4590, Tempo, 568720
1, 4650, Tempo, 565931
1, 4680, Tempo, 527751
1, 4800, Tempo, 559754
1, 4920, Tempo, 659486
1, 5040, Tempo, 588986
1, 5145, Tempo, 577201
1, 5265, Tempo, 574328
1, 5385, Tempo, 571483
1, 5490, Tempo, 568720
1, 5520, Tempo, 604351
1, 5640, Tempo, 630716
1, 5760, Tempo, 588986
1, 6240, Tempo, 610749
1, 6360, Tempo, 655738
1, 6480, Tempo, 607533
1, 6720, Tempo, 592008
1, 7200, Tempo, 588986
1, 7425, Tempo, 568720
1, 7455, Tempo, 547196
1, 7500, Tempo, 544613
1, 7545, Tempo, 542054
1, 7590, Tempo, 539520
1, 7635, Tempo, 537009
1, 7680, Tempo, 534521
1, 7725, Tempo, 532056
1, 7770, Tempo, 529614
1, 7800, Tempo, 634182
1, 7920, Tempo, 588986
1, 8160, Tempo, 565931
1, 8640, Tempo, 583034
1, 9240, Tempo, 641231
1, 9360, Tempo, 585995
1, 9405, Tempo, 583034
1, 9465, Tempo, 580102
1, 9525, Tempo, 577201
1, 9570, Tempo, 574328
1, 9630, Tempo, 571483
1, 9675, Tempo, 568720
1, 9735, Tempo, 565931
1, 9780, Tempo, 563169
1, 9840, Tempo, 613999
1, 9960, Tempo, 670991
1, 10080, Tempo, 585995
1, 10170, Tempo, 577201
1, 10230, Tempo, 574328
1, 10290, Tempo, 571483
1, 10350, Tempo, 568720
1, 10440, Tempo, 542054
1, 10560, Tempo, 567698
1, 10680, Tempo, 641231
1, 10800, Tempo, 585995
1, 10845, Tempo, 583034
1, 10905, Tempo, 580102
1, 10965, Tempo, 577201
1, 11010, Tempo, 574328
1, 11070, Tempo, 571483
1, 11115, Tempo, 568720
1, 11175, Tempo, 565931
1, 11220, Tempo, 563169
1, 11280, Tempo, 613999
1, 11400, Tempo, 670991
1, 11520, Tempo, 585995
1, 11610, Tempo, 577201
1, 11670, Tempo, 574328
1, 11730, Tempo, 571483
1, 11790, Tempo, 568720
1, 11850, Tempo, 565931
1, 11880, Tempo, 534807
1, 11955, Tempo, 560433
1, 12000, Tempo, 570396
1, 12120, Tempo, 659486
1, 12240, Tempo, 617284
1, 12600, Tempo, 592008
1, 12840, Tempo, 641231
1, 12960, Tempo, 588986
1, 13320, Tempo, 607533
1, 13560, Tempo, 641231
1, 13680, Tempo, 592008
1, 14040, Tempo, 607533
1, 14280, Tempo, 634182
1, 14400, Tempo, 592008
1, 14760, Tempo, 610749
1, 15000, Tempo, 637687
1, 15120, Tempo, 592008
1, 15480, Tempo, 604351
1, 15720, Tempo, 641231
1, 15840, Tempo, 592008
1, 16200, Tempo, 623895
1, 16320, Tempo, 663277
1, 16440, Tempo, 744417
1, 16560, Tempo, 637687
1, 16680, Tempo, 607533
1, 16800, Tempo, 583034
1, 17040, Tempo, 601202
1, 17160, Tempo, 623895
1, 17280, Tempo, 614188
1, 17520, Tempo, 637687
1, 17760, Tempo, 682827
1, 17880, Tempo, 754148
1, 18000, Tempo, 630716
1, 18240, Tempo, 598086
1, 18480, Tempo, 592008
1, 18600, Tempo, 641231
1, 18720, Tempo, 598086
1, 19320, Tempo, 630716
1, 19440, Tempo, 595061
1, 19560, Tempo, 583034
1, 19800, Tempo, 604351
1, 19920, Tempo, 634182
1, 20040, Tempo, 674916
1, 20160, Tempo, 580102
1, 20400, Tempo, 585995
1, 20640, Tempo, 607533
1, 20760, Tempo, 655738
1, 20880, Tempo, 577201
1, 21120, Tempo, 598086
1, 21360, Tempo, 592008
1, 21480, Tempo, 641231
1, 21600, Tempo, 598086
1, 21720, Tempo, 585995
1, 22080, Tempo, 595061
1, 22320, Tempo, 598086
1, 22560, Tempo, 585995
1, 22800, Tempo, 604351
1, 23040, Tempo, 598086
1, 23160, Tempo, 585995
1, 23520, Tempo, 604351
1, 23760, Tempo, 595061
1, 23880, Tempo, 585995
1, 24240, Tempo, 595061
1, 24360, Tempo, 607533
1, 24480, Tempo, 601202
1, 24557, Tempo, 592008
1, 24662, Tempo, 588986
1, 24752, Tempo, 585995
1, 24842, Tempo, 583034
1, 24960, Tempo, 637687
1, 25080, Tempo, 686892
1, 25200, Tempo, 588986
1, 25200, Marker_t, "Part 1 repeat"
1, 25425, Tempo, 568720
1, 25455, Tempo, 547196
1, 25500, Tempo, 544613
1, 25545, Tempo, 542054
1, 25590, Tempo, 539520
1, 25635, Tempo, 537009
1, 25680, Tempo, 534521
1, 25725, Tempo, 532056
1, 25770, Tempo, 529614
1, 25800, Tempo, 634182
1, 25920, Tempo, 588986
1, 26160, Tempo, 565931
1, 26640, Tempo, 557724
1, 26880, Tempo, 583034
1, 27240, Tempo, 641231
1, 27360, Tempo, 585995
1, 27405, Tempo, 583034
1, 27465, Tempo, 580102
1, 27525, Tempo, 577201
1, 27570, Tempo, 574328
1, 27630, Tempo, 571483
1, 27675, Tempo, 568720
1, 27735, Tempo, 565931
1, 27780, Tempo, 563169
1, 27840, Tempo, 613999
1, 27960, Tempo, 670991
1, 28080, Tempo, 585995
1, 28170, Tempo, 577201
1, 28230, Tempo, 574328
1, 28290, Tempo, 571483
1, 28350, Tempo, 568720
1, 28410, Tempo, 565931
1, 28470, Tempo, 563169
1, 28515, Tempo, 560433
1, 28560, Tempo, 544514
1, 28680, Tempo, 659486
1, 28800, Tempo, 588986
1, 28905, Tempo, 577201
1, 29025, Tempo, 574328
1, 29145, Tempo, 571483
1, 29250, Tempo, 568720
1, 29280, Tempo, 604351
1, 29400, Tempo, 630716
1, 29520, Tempo, 588986
1, 30000, Tempo, 610749
1, 30120, Tempo, 655738
1, 30240, Tempo, 607533
1, 30480, Tempo, 592008
1, 30960, Tempo, 588986
1, 31185, Tempo, 568720
1, 31215, Tempo, 547196
1, 31260, Tempo, 544613
1, 31305, Tempo, 542054
1, 31350, Tempo, 539520
1, 31395, Tempo, 537009
1, 31440, Tempo, 534521
1, 31485, Tempo, 532056
1, 31530, Tempo, 529614
1, 31560, Tempo, 634182
1, 31680, Tempo, 588986
1, 31920, Tempo, 565931
1, 32400, Tempo, 544613
1, 32520, Tempo, 585995
1, 33000, Tempo, 641231
1, 33120, Tempo, 585995
1, 33165, Tempo, 583034
1, 33225, Tempo, 580102
1, 33285, Tempo, 577201
1, 33330, Tempo, 574328
1, 33390, Tempo, 571483
1, 33435, Tempo, 568720
1, 33495, Tempo, 565931
1, 33540, Tempo, 563169
1, 33600, Tempo, 613999
1, 33720, Tempo, 670991
1, 33840, Tempo, 585995
1, 33930, Tempo, 577201
1, 33990, Tempo, 574328
1, 34050, Tempo, 571483
1, 34110, Tempo, 568720
1, 34170, Tempo, 565931
1, 34230, Tempo, 563169
1, 34275, Tempo, 560433
1, 34320, Tempo, 546996
1, 34440, Tempo, 659486
1, 34560, Tempo, 585995
1, 34605, Tempo, 583034
1, 34665, Tempo, 580102
1, 34725, Tempo, 577201
1, 34770, Tempo, 574328
1, 34830, Tempo, 571483
1, 34875, Tempo, 568720
1, 34935, Tempo, 565931
1, 34980, Tempo, 563169
1, 35040, Tempo, 613999
1, 35160, Tempo, 670991
1, 35280, Tempo, 585995
1, 35370, Tempo, 577201
1, 35430, Tempo, 574328
1, 35490, Tempo, 571483
1, 35550, Tempo, 568720
1, 35610, Tempo, 565931
1, 35670, Tempo, 563169
1, 35715, Tempo, 560433
1, 35760, Tempo, 554580
1, 35880, Tempo, 659486
1, 36000, Tempo, 617284
1, 36360, Tempo, 592008
1, 36600, Tempo, 641231
1, 36720, Tempo, 588986
1, 37080, Tempo, 607533
1, 37320, Tempo, 641231
1, 37440, Tempo, 592008
1, 37800, Tempo, 607533
1, 38040, Tempo, 634182
1, 38160, Tempo, 592008
1, 38520, Tempo, 610749
1, 38760, Tempo, 637687
1, 38880, Tempo, 592008
1, 39240, Tempo, 604351
1, 39480, Tempo, 641231
1, 39600, Tempo, 592008
1, 39960, Tempo, 623895
1, 40080, Tempo, 663277
1, 40200, Tempo, 744417
1, 40320, Tempo, 637687
1, 40440, Tempo, 607533
1, 40560, Tempo, 583034
1, 40800, Tempo, 601202
1, 40920, Tempo, 623895
1, 41040, Tempo, 647319
1, 41280, Tempo, 637687
1, 41520, Tempo, 682827
1, 41640, Tempo, 754148
1, 41760, Tempo, 630716
1, 42000, Tempo, 598086
1, 42240, Tempo, 592008
1, 42360, Tempo, 641231
1, 42480, Tempo, 598086
1, 43080, Tempo, 630716
1, 43200, Tempo, 595061
1, 43320, Tempo, 583034
1, 43560, Tempo, 604351
1, 43680, Tempo, 634182
1, 43800, Tempo, 674916
1, 43920, Tempo, 565931
1, 44160, Tempo, 585995
1, 44400, Tempo, 607533
1, 44520, Tempo, 655738
1, 44640, Tempo, 577201
1, 44880, Tempo, 598086
1, 45120, Tempo, 592008
1, 45240, Tempo, 641231
1, 45360, Tempo, 598086
1, 45480, Tempo, 583034
1, 45840, Tempo, 613999
1, 46080, Tempo, 598086
1, 46200, Tempo, 583034
1, 46560, Tempo, 598086
1, 46800, Tempo, 598086
1, 46920, Tempo, 583034
1, 47280, Tempo, 601202
1, 47520, Tempo, 598086
1, 47520, Marker_t, "Part 2"
1, 47640, Tempo, 585995
1, 48000, Tempo, 607533
1, 48120, Tempo, 641231
1, 48240, Tempo, 595061
1, 48360, Tempo, 583034
1, 48720, Tempo, 601202
1, 48960, Tempo, 598086
1, 49080, Tempo, 588986
1, 49440, Tempo, 601202
1, 49560, Tempo, 620604
1, 49680, Tempo, 595061
1, 49800, Tempo, 585995
1, 50280, Tempo, 623895
1, 50400, Tempo, 598086
1, 50520, Tempo, 588986
1, 51000, Tempo, 617284
1, 51120, Tempo, 598086
1, 51240, Tempo, 585995
1, 51720, Tempo, 617284
1, 51840, Tempo, 595061
1, 51960, Tempo, 580102
1, 52440, Tempo, 617284
1, 52560, Tempo, 583034
1, 52680, Tempo, 585995
1, 53040, Tempo, 592008
1, 53160, Tempo, 620604
1, 53280, Tempo, 595061
1, 53400, Tempo, 585995
1, 53880, Tempo, 617284
1, 54000, Tempo, 595061
1, 54120, Tempo, 585995
1, 54212, Tempo, 577201
1, 54347, Tempo, 574328
1, 54467, Tempo, 571483
1, 54600, Tempo, 617284
1, 54720, Tempo, 568720
1, 54917, Tempo, 568720
1, 54992, Tempo, 565931
1, 55067, Tempo, 563169
1, 55142, Tempo, 560433
1, 55217, Tempo, 557724
1, 55292, Tempo, 555042
1, 55337, Tempo, 617284
1, 55440, Tempo, 592008
1, 56160, Tempo, 592008
1, 56520, Tempo, 585995
1, 56760, Tempo, 617284
1, 56880, Tempo, 595061
1, 57000, Tempo, 585995
1, 57092, Tempo, 577201
1, 57227, Tempo, 574328
1, 57347, Tempo, 571483
1, 57480, Tempo, 617284
1, 57600, Tempo, 568720
1, 57797, Tempo, 568720
1, 57872, Tempo, 565931
1, 57947, Tempo, 563169
1, 58022, Tempo, 560433
1, 58097, Tempo, 557724
1, 58172, Tempo, 555042
1, 58217, Tempo, 617284
1, 58320, Tempo, 592008
1, 59040, Tempo, 592008
1, 59520, Tempo, 571483
1, 59640, Tempo, 617284
1, 59760, Tempo, 568720
1, 59957, Tempo, 568720
1, 60032, Tempo, 565931
1, 60107, Tempo, 563169
1, 60182, Tempo, 560433
1, 60257, Tempo, 557724
1, 60332, Tempo, 555042
1, 60377, Tempo, 617284
1, 60480, Tempo, 592008
1, 60960, Tempo, 577201
1, 61080, Tempo, 607533
1, 61200, Tempo, 592008
1, 61680, Tempo, 577201
1, 61800, Tempo, 607533
1, 61920, Tempo, 592008
1, 62400, Tempo, 577201
1, 62520, Tempo, 607533
1, 62640, Tempo, 592008
1, 63120, Tempo, 577201
1, 63240, Tempo, 607533
1, 63360, Tempo, 592008
1, 63840, Tempo, 577201
1, 63960, Tempo, 607533
1, 64080, Tempo, 592008
1, 64560, Tempo, 577201
1, 64680, Tempo, 607533
1, 64800, Tempo, 592008
1, 65280, Tempo, 577201
1, 65400, Tempo, 607533
1, 65520, Tempo, 592008
1, 66000, Tempo, 577201
1, 66120, Tempo, 607533
1, 66387, Tempo, 588986
1, 66462, Tempo, 585995
1, 66522, Tempo, 583034
1, 66582, Tempo, 580102
1, 66642, Tempo, 577201
1, 66702, Tempo, 574328
1, 66720, Tempo, 583034
1, 66840, Tempo, 637687
1, 66960, Tempo, 607533
1, 67080, Tempo, 588986
1, 67200, Tempo, 580102
1, 67560, Tempo, 617284
1, 67680, Tempo, 601202
1, 67797, Tempo, 588986
1, 67887, Tempo, 585995
1, 67962, Tempo, 583034
1, 68037, Tempo, 580102
1, 68112, Tempo, 577201
1, 68160, Tempo, 595061
1, 68280, Tempo, 652032
1, 68400, Tempo, 607533
1, 68520, Tempo, 598086
1, 68640, Tempo, 592008
1, 69000, Tempo, 627287
1, 69120, Tempo, 607533
1, 69840, Tempo, 617284
1, 69960, Tempo, 601202
1, 70002, Tempo, 595061
1, 70137, Tempo, 592008
1, 70257, Tempo, 588986
1, 70377, Tempo, 585995
1, 70560, Tempo, 607533
1, 70680, Tempo, 601202
1, 70827, Tempo, 588986
1, 71280, Tempo, 617284
1, 71400, Tempo, 601202
1, 71487, Tempo, 595061
1, 71652, Tempo, 592008
1, 71817, Tempo, 588986
1, 71880, Tempo, 604351
1, 72000, Tempo, 601202
1, 72177, Tempo, 585995
1, 72282, Tempo, 588986
1, 72372, Tempo, 592008
1, 72477, Tempo, 595061
1, 72567, Tempo, 598086
1, 72600, Tempo, 607533
1, 72720, Tempo, 598086
1, 72882, Tempo, 583034
1, 72972, Tempo, 585995
1, 73062, Tempo, 588986
1, 73137, Tempo, 592008
1, 73227, Tempo, 595061
1, 73302, Tempo, 598086
1, 73320, Tempo, 610749
1, 73440, Tempo, 598086
1, 73572, Tempo, 583034
1, 73707, Tempo, 585995
1, 73842, Tempo, 588986
1, 73977, Tempo, 592008
1, 74040, Tempo, 610749
1, 74160, Tempo, 598086
1, 74640, Tempo, 610749
1, 74760, Tempo, 667111
1, 74880, Tempo, 588986
1, 75105, Tempo, 568720
1, 75106, Tempo, 571483
1, 75226, Tempo, 568720
1, 75346, Tempo, 565931
1, 75466, Tempo, 563169
1, 75480, Tempo, 634182
1, 75600, Tempo, 588986
1, 75840, Tempo, 565931
1, 76320, Tempo, 583034
1, 76920, Tempo, 641231
1, 77040, Tempo, 585995
1, 77085, Tempo, 583034
1, 77145, Tempo, 580102
1, 77205, Tempo, 577201
1, 77250, Tempo, 574328
1, 77310, Tempo, 571483
1, 77355, Tempo, 568720
1, 77415, Tempo, 565931
1, 77460, Tempo, 563169
1, 77520, Tempo, 610749
1, 77640, Tempo, 667111
1, 77760, Tempo, 588986
1, 77985, Tempo, 568720
1, 78015, Tempo, 547196
1, 78016, Tempo, 563169
1, 78076, Tempo, 560433
1, 78136, Tempo, 557724
1, 78181, Tempo, 555042
1, 78241, Tempo, 552384
1, 78301, Tempo, 549753
1, 78346, Tempo, 547196
1, 78360, Tempo, 634182
1, 78480, Tempo, 588986
1, 78720, Tempo, 565931
1, 79200, Tempo, 583034
1, 79800, Tempo, 641231
1, 79920, Tempo, 585995
1, 79965, Tempo, 583034
1, 80025, Tempo, 580102
1, 80085, Tempo, 577201
1, 80130, Tempo, 574328
1, 80190, Tempo, 571483
1, 80235, Tempo, 568720
1, 80295, Tempo, 565931
1, 80340, Tempo, 563169
1, 80400, Tempo, 610749
1, 80520, Tempo, 667111
1, 80640, Tempo, 588986
1, 80865, Tempo, 568720
1, 80895, Tempo, 547196
1, 80940, Tempo, 544613
1, 80985, Tempo, 542054
1, 81030, Tempo, 539520
1, 81075, Tempo, 537009
1, 81120, Tempo, 534521
1, 81165, Tempo, 532056
1, 81210, Tempo, 529614
1, 81240, Tempo, 634182
1, 81360, Tempo, 565931
1, 81600, Tempo, 592008
1, 81840, Tempo, 568720
1, 82080, Tempo, 588986
1, 82320, Tempo, 574328
1, 82560, Tempo, 592008
1, 82800, Tempo, 595061
1, 83040, Tempo, 574328
1, 83280, Tempo, 568720
1, 83520, Tempo, 595061
1, 83760, Tempo, 568720
1, 84000, Tempo, 588986
1, 84240, Tempo, 568720
1, 84480, Tempo, 580102
1, 84600, Tempo, 583034
1, 84720, Tempo, 568720
1, 84960, Tempo, 601202
1, 85200, Tempo, 565931
1, 85440, Tempo, 583034
1, 85680, Tempo, 588986
1, 85920, Tempo, 568720
1, 86160, Tempo, 592008
1, 86400, Tempo, 588986
1, 86522, Tempo, 588986
1, 86672, Tempo, 585995
1, 86822, Tempo, 583034
1, 86972, Tempo, 580102
1, 87122, Tempo, 577201
1, 87840, Tempo, 588986
1, 87842, Tempo, 574328
1, 88080, Tempo, 585995
1, 88320, Tempo, 610749
1, 88440, Tempo, 655738
1, 88560, Tempo, 637687
1, 88680, Tempo, 607533
1, 88800, Tempo, 583034
1, 89040, Tempo, 601202
1, 89160, Tempo, 623895
1, 89280, Tempo, 668971
1, 89520, Tempo, 650830
1, 89760, Tempo, 682827
1, 89880, Tempo, 792707
1, 90000, Tempo, 630716
1, 90240, Tempo, 598086
1, 90480, Tempo, 592008
1, 90600, Tempo, 641231
1, 90720, Tempo, 598086
1, 91320, Tempo, 630716
1, 91440, Tempo, 595061
1, 91560, Tempo, 583034
1, 91800, Tempo, 604351
1, 91920, Tempo, 634182
1, 92040, Tempo, 674916
1, 92160, Tempo, 580102
1, 92400, Tempo, 585995
1, 92640, Tempo, 607533
1, 92760, Tempo, 655738
1, 92880, Tempo, 577201
1, 93120, Tempo, 598086
1, 93360, Tempo, 592008
1, 93480, Tempo, 641231
1, 93600, Tempo, 598086
1, 93720, Tempo, 585995
1, 94080, Tempo, 595061
1, 94320, Tempo, 598086
1, 94560, Tempo, 585995
1, 94800, Tempo, 604351
1, 95040, Tempo, 598086
1, 95160, Tempo, 585995
1, 95520, Tempo, 604351
1, 95760, Tempo, 595061
1, 95880, Tempo, 585995
1, 96240, Tempo, 595061
1, 96360, Tempo, 607533
1, 96480, Tempo, 601202
1, 96557, Tempo, 592008
1, 96662, Tempo, 588986
1, 96752, Tempo, 585995
1, 96842, Tempo, 583034
1, 96960, Tempo, 604351
1, 97320, Tempo, 585995
1, 97680, Tempo, 607533
1, 97800, Tempo, 641231
1, 97920, Tempo, 595061
1, 98040, Tempo, 583034
1, 98400, Tempo, 601202
1, 98640, Tempo, 598086
1, 98760, Tempo, 588986
1, 99120, Tempo, 601202
1, 99240, Tempo, 620604
1, 99360, Tempo, 595061
1, 99480, Tempo, 585995
1, 99960, Tempo, 623895
1, 100080, Tempo, 604351
1, 100200, Tempo, 585995
1, 100560, Tempo, 607533
1, 100680, Tempo, 641231
1, 100800, Tempo, 595061
1, 100920, Tempo, 583034
1, 101280, Tempo, 601202
1, 101520, Tempo, 598086
1, 101640, Tempo, 588986
1, 102000, Tempo, 601202
1, 102120, Tempo, 620604
1, 102240, Tempo, 595061
1, 102360, Tempo, 585995
1, 102840, Tempo, 623895
1, 103080, Tempo, 604351
1, 103200, Tempo, 592008
1, 103440, Tempo, 601202
1, 103560, Tempo, 670991
1, 103680, Tempo, 634182
1, 104400, Tempo, 623895
1, 104520, Tempo, 604351
1, 104640, Tempo, 592008
1, 104880, Tempo, 601202
1, 105000, Tempo, 670991
1, 105120, Tempo, 634182
1, 105600, Tempo, 634182
1, 105840, Tempo, 623895
1, 105960, Tempo, 604351
1, 106080, Tempo, 578648
1, 106320, Tempo, 601202
1, 106440, Tempo, 670991
1, 106560, Tempo, 623895
1, 106680, Tempo, 604351
1, 106800, Tempo, 592008
1, 107040, Tempo, 601202
1, 107160, Tempo, 670991
1, 107280, Tempo, 610749
1, 107327, Tempo, 607533
1, 107372, Tempo, 604351
1, 107402, Tempo, 601202
1, 107432, Tempo, 598086
1, 107462, Tempo, 595061
1, 107492, Tempo, 592008
1, 107522, Tempo, 588986
1, 107597, Tempo, 592008
1, 107672, Tempo, 595061
1, 107747, Tempo, 598086
1, 107762, Tempo, 595061
1, 108120, Tempo, 604351
1, 108240, Tempo, 588986
1, 108360, Tempo, 604351
1, 108527, Tempo, 588986
1, 108542, Tempo, 592008
1, 108557, Tempo, 595061
1, 108572, Tempo, 598086
1, 108587, Tempo, 601202
1, 108602, Tempo, 604351
1, 108617, Tempo, 607533
1, 108632, Tempo, 613999
1, 108647, Tempo, 617284
1, 108662, Tempo, 620604
1, 108677, Tempo, 623895
1, 108692, Tempo, 627287
1, 108707, Tempo, 630716
1, 108720, Tempo, 623895
1, 108840, Tempo, 604351
1, 108960, Tempo, 584283
1, 109200, Tempo, 601202
1, 109320, Tempo, 670991
1, 109440, Tempo, 623895
1, 109560, Tempo, 604351
1, 109680, Tempo, 592008
1, 109920, Tempo, 601202
1, 110040, Tempo, 670991
1, 110160, Tempo, 610749
1, 110207, Tempo, 607533
1, 110252, Tempo, 604351
1, 110282, Tempo, 601202
1, 110312, Tempo, 598086
1, 110342, Tempo, 595061
1, 110372, Tempo, 592008
1, 110402, Tempo, 588986
1, 110477, Tempo, 592008
1, 110552, Tempo, 595061
1, 110627, Tempo, 598086
1, 110642, Tempo, 595061
1, 111000, Tempo, 604351
1, 111120, Tempo, 588986
1, 111240, Tempo, 604351
1, 111407, Tempo, 588986
1, 111422, Tempo, 592008
1, 111437, Tempo, 595061
1, 111452, Tempo, 598086
1, 111467, Tempo, 601202
1, 111482, Tempo, 604351
1, 111497, Tempo, 607533
1, 111512, Tempo, 613999
1, 111527, Tempo, 617284
1, 111542, Tempo, 620604
1, 111557, Tempo, 623895
1, 111572, Tempo, 627287
1, 111587, Tempo, 630716
1, 111600, Tempo, 623895
1, 111720, Tempo, 604351
1, 111840, Tempo, 592008
1, 112080, Tempo, 601202
1, 112200, Tempo, 670991
1, 112320, Tempo, 623895
1, 112440, Tempo, 604351
1, 112560, Tempo, 592008
1, 112800, Tempo, 601202
1, 112920, Tempo, 670991
1, 113040, Tempo, 610749
1, 113087, Tempo, 607533
1, 113132, Tempo, 604351
1, 113160, Tempo, 604351
1, 113280, Tempo, 592008
1, 113520, Tempo, 601202
1, 113640, Tempo, 670991
1, 113760, Tempo, 623895
1, 113880, Tempo, 604351
1, 114000, Tempo, 592008
1, 114240, Tempo, 601202
1, 114360, Tempo, 670991
1, 114480, Tempo, 610749
1, 114521, Tempo, 607533
1, 114566, Tempo, 604351
1, 114594, Tempo, 604351
1, 114714, Tempo, 592008
1, 114720, Tempo, 640410
1, 114840, Tempo, 654379
1, 114954, Tempo, 601202
1, 114960, Tempo, 678887
1, 115074, Tempo, 670991
1, 115080, Tempo, 725602
1, 115194, Tempo, 623895
1, 115200, Tempo, 659486
1, 115314, Tempo, 604351
1, 115320, Tempo, 620604
1, 115794, Tempo, 670991
1, 115800, Tempo, 707965
1, 115920, Tempo, 620604
1, 116040, Tempo, 607533
1, 116520, Tempo, 641231
1, 116640, Tempo, 620604
1, 116760, Tempo, 607533
1, 117120, Tempo, 634182
1, 117360, Tempo, 620604
1, 117600, Tempo, 637687
1, 117840, Tempo, 620604
1, 117960, Tempo, 659486
1, 118080, Tempo, 627287
1, 118560, Tempo, 614188
1, 118680, Tempo, 611060
1, 118800, Tempo, 630716
1, 119040, Tempo, 620604
1, 119280, Tempo, 610749
1, 119520, Tempo, 637687
1, 119640, Tempo, 655738
1, 119760, Tempo, 614188
1, 120120, Tempo, 648438
1, 120240, Tempo, 617284
1, 120360, Tempo, 637687
1, 120480, Tempo, 623895
1, 120600, Tempo, 637687
1, 120720, Tempo, 613999
1, 120840, Tempo, 620604
1, 120960, Tempo, 623895
1, 121080, Tempo, 634182
1, 121200, Tempo, 617284
1, 121560, Tempo, 644815
1, 121680, Tempo, 623895
1, 122160, Tempo, 617284
1, 122400, Tempo, 627287
1, 122520, Tempo, 641231
1, 122640, Tempo, 623895
1, 122880, Tempo, 610749
1, 123000, Tempo, 667111
1, 123120, Tempo, 588986
1, 123345, Tempo, 568720
1, 123375, Tempo, 547196
1, 123420, Tempo, 544613
1, 123465, Tempo, 542054
1, 123510, Tempo, 539520
1, 123555, Tempo, 537009
1, 123600, Tempo, 534521
1, 123645, Tempo, 532056
1, 123690, Tempo, 529614
1, 123720, Tempo, 634182
1, 123840, Tempo, 588986
1, 124080, Tempo, 580102
1, 124200, Tempo, 598086
1, 124440, Tempo, 607533
1, 124560, Tempo, 585995
1, 124800, Tempo, 580102
1, 124920, Tempo, 601202
1, 125040, Tempo, 583034
1, 125160, Tempo, 604351
1, 125280, Tempo, 588986
1, 125760, Tempo, 617284
1, 126720, Tempo, 634182
1, 127200, Tempo, 652032
1, 128160, Tempo, 652032
1, 128160, End_track
2, 0, Start_track
2, 0, Title_t, "Piano right"
2, 0, Program_c, 0, 0
2, 1200, Note_on_c, 0, 66, 50
2, 1320, Note_on_c, 0, 66, 0
2, 1440, Note_on_c, 0, 66, 56
2, 1680, Note_on_c, 0, 66, 0
2, 1680, Note_on_c, 0, 68, 58
2, 1740, Note_on_c, 0, 68, 0
2, 1800, Note_on_c, 0, 70, 59
2, 1860, Note_on_c, 0, 70, 0
2, 1920, Note_on_c, 0, 71, 63
2, 1980, Note_on_c, 0, 71, 0
2, 2040, Note_on_c, 0, 73, 66
2, 2100, Note_on_c, 0, 73, 0
2, 2160, Note_on_c, 0, 74, 74
2, 2400, Note_on_c, 0, 74, 0
2, 2400, Note_on_c, 0, 70, 63
2, 2640, Note_on_c, 0, 70, 0
2, 2640, Note_on_c, 0, 71, 64
2, 2880, Note_on_c, 0, 71, 0
2, 2880, Note_on_c, 0, 76, 76
2, 3120, Note_on_c, 0, 76, 0
2, 3120, Note_on_c, 0, 70, 66
2, 3360, Note_on_c, 0, 70, 0
2, 3360, Note_on_c, 0, 71, 71
2, 3600, Note_on_c, 0, 71, 0
2, 3600, Note_on_c, 0, 73, 81
2, 4080, Note_on_c, 0, 73, 0
2, 4080, Note_on_c, 0, 79, 85
2, 4320, Note_on_c, 0, 79, 0
2, 4320, Note_on_c, 0, 78, 93
2, 4680, Note_on_c, 0, 78, 0
2, 4680, Note_on_c, 0, 76, 81
2, 4740, Note_on_c, 0, 76, 0
2, 4800, Note_on_c, 0, 74, 86
2, 4860, Note_on_c, 0, 74, 0
2, 4920, Note_on_c, 0, 73, 86
2, 4980, Note_on_c, 0, 73, 0
2, 5040, Note_on_c, 0, 76, 92
2, 5400, Note_on_c, 0, 76, 0
2, 5400, Note_on_c, 0, 74, 75
2, 5460, Note_on_c, 0, 74, 0
2, 5520, Note_on_c, 0, 73, 75
2, 5580, Note_on_c, 0, 73, 0
2, 5640, Note_on_c, 0, 71, 84
2, 5700, Note_on_c, 0, 71, 0
2, 5760, Note_on_c, 0, 69, 90
2, 6120, Note_on_c, 0, 69, 0
2, 6120, Note_on_c, 0, 68, 68
2, 6180, Note_on_c, 0, 68, 0
2, 6240, Note_on_c, 0, 66, 66
2, 6300, Note_on_c, 0, 66, 0
2, 6360, Note_on_c, 0, 65, 72
2, 6420, Note_on_c, 0, 65, 0
2, 6480, Note_on_c, 0, 65, 78
2, 6720, Note_on_c, 0, 65, 0
2, 6720, Note_on_c, 0, 66, 64
2, 6930, Note_on_c, 0, 66, 0
2, 6960, Note_on_c, 0, 66, 61
2, 7080, Note_on_c, 0, 66, 0
2, 7200, Note_on_c, 0, 66, 56
2, 7440, Note_on_c, 0, 66, 0
2, 7440, Note_on_c, 0, 68, 58
2, 7500, Note_on_c, 0, 68, 0
2, 7560, Note_on_c, 0, 70, 59
2, 7620, Note_on_c, 0, 70, 0
2, 7680, Note_on_c, 0, 71, 63
2, 7740, Note_on_c, 0, 71, 0
2, 7800, Note_on_c, 0, 73, 66
2, 7860, Note_on_c, 0, 73, 0
2, 7920, Note_on_c, 0, 74, 74
2, 8160, Note_on_c, 0, 74, 0
2, 8160, Note_on_c, 0, 70, 63
2, 8400, Note_on_c, 0, 70, 0
2, 8400, Note_on_c, 0, 71, 65
2, 8640, Note_on_c, 0, 71, 0
2, 8640, Note_on_c, 0, 77, 78
2, 8880, Note_on_c, 0, 77, 0
2, 8880, Note_on_c, 0, 72, 67
2, 9120, Note_on_c, 0, 72, 0
2, 9120, Note_on_c, 0, 73, 73
2, 9360, Note_on_c, 0, 73, 0
2, 9360, Note_on_c, 0, 78, 86
2, 9840, Note_on_c, 0, 78, 0
2, 9840, Note_on_c, 0, 78, 85
2, 10080, Note_on_c, 0, 78, 0
2, 10080, Note_on_c, 0, 76, 93
2, 10440, Note_on_c, 0, 76, 0
2, 10440, Note_on_c, 0, 74, 81
2, 10500, Note_on_c, 0, 74, 0
2, 10560, Note_on_c, 0, 73, 86
2, 10620, Note_on_c, 0, 73, 0
2, 10680, Note_on_c, 0, 74, 86
2, 10740, Note_on_c, 0, 74, 0
2, 10800, Note_on_c, 0, 73, 81
2, 11280, Note_on_c, 0, 73, 0
2, 11280, Note_on_c, 0, 78, 85
2, 11520, Note_on_c, 0, 78, 0
2, 11520, Note_on_c, 0, 76, 93
2, 11880, Note_on_c, 0, 76, 0
2, 11880, Note_on_c, 0, 74, 81
2, 11940, Note_on_c, 0, 74, 0
2, 12000, Note_on_c, 0, 73, 86
2, 12060, Note_on_c, 0, 73, 0
2, 12120, Note_on_c, 0, 74, 86
2, 12180, Note_on_c, 0, 74, 0
2, 12240, Note_on_c, 0, 73, 93
2, 12600, Note_on_c, 0, 73, 0
2, 12600, Note_on_c, 0, 66, 51
2, 12660, Note_on_c, 0, 66, 0
2, 12720, Note_on_c, 0, 65, 53
2, 12780, Note_on_c, 0, 65, 0
2, 12840, Note_on_c, 0, 66, 56
2, 12900, Note_on_c, 0, 66, 0
2, 12960, Note_on_c, 0, 68, 58
2, 12960, Note_on_c, 0, 66, 49
2, 12960, Note_on_c, 0, 62, 49
2, 13320, Note_on_c, 0, 62, 0
2, 13320, Note_on_c, 0, 66, 0
2, 13320, Note_on_c, 0, 68, 0
2, 13320, Note_on_c, 0, 68, 56
2, 13380, Note_on_c, 0, 68, 0
2, 13440, Note_on_c, 0, 66, 59
2, 13500, Note_on_c, 0, 66, 0
2, 13560, Note_on_c, 0, 68, 62
2, 13620, Note_on_c, 0, 68, 0
2, 13680, Note_on_c, 0, 66, 56
2, 13680, Note_on_c, 0, 69, 66
2, 13980, Note_on_c, 0, 69, 0
2, 13980, Note_on_c, 0, 66, 0
2, 14020, Note_on_c, 0, 71, 61
2, 14040, Note_on_c, 0, 71, 0
2, 14040, Note_on_c, 0, 69, 61
2, 14100, Note_on_c, 0, 69, 0
2, 14160, Note_on_c, 0, 68, 62
2, 14220, Note_on_c, 0, 68, 0
2, 14280, Note_on_c, 0, 69, 66
2, 14340, Note_on_c, 0, 69, 0
2, 14400, Note_on_c, 0, 71, 72
2, 14400, Note_on_c, 0, 66, 61
2, 14760, Note_on_c, 0, 66, 0
2, 14760, Note_on_c, 0, 71, 0
2, 14760, Note_on_c, 0, 71, 63
2, 14820, Note_on_c, 0, 71, 0
2, 14880, Note_on_c, 0, 69, 67
2, 14940, Note_on_c, 0, 69, 0
2, 15000, Note_on_c, 0, 71, 68
2, 15060, Note_on_c, 0, 71, 0
2, 15120, Note_on_c, 0, 73, 73
2, 15120, Note_on_c, 0, 69, 62
2, 15120, Note_on_c, 0, 66, 62
2, 15420, Note_on_c, 0, 66, 0
2, 15420, Note_on_c, 0, 69, 0
2, 15420, Note_on_c, 0, 73, 0
2, 15460, Note_on_c, 0, 74, 68
2, 15480, Note_on_c, 0, 74, 0
2, 15480, Note_on_c, 0, 73, 68
2, 15540, Note_on_c, 0, 73, 0
2, 15600, Note_on_c, 0, 72, 70
2, 15660, Note_on_c, 0, 72, 0
2, 15720, Note_on_c, 0, 73, 73
2, 15780, Note_on_c, 0, 73, 0
2, 15840, Note_on_c, 0, 68, 69
2, 15840, Note_on_c, 0, 73, 69
2, 15840, Note_on_c, 0, 77, 82
2, 16200, Note_on_c, 0, 77, 0
2, 16200, Note_on_c, 0, 73, 0
2, 16200, Note_on_c, 0, 68, 0
2, 16200, Note_on_c, 0, 77, 73
2, 16260, Note_on_c, 0, 77, 0
2, 16320, Note_on_c, 0, 75, 78
2, 16380, Note_on_c, 0, 75, 0
2, 16440, Note_on_c, 0, 77, 83
2, 16500, Note_on_c, 0, 77, 0
2, 16560, Note_on_c, 0, 78, 93
2, 17520, Note_on_c, 0, 78, 0
2, 17520, Note_on_c, 0, 76, 87
2, 17760, Note_on_c, 0, 76, 0
2, 17760, Note_on_c, 0, 74, 90
2, 17970, Note_on_c, 0, 74, 0
2, 18000, Note_on_c, 0, 74, 98
2, 18240, Note_on_c, 0, 74, 0
2, 18240, Note_on_c, 0, 71, 87
2, 18480, Note_on_c, 0, 71, 0
2, 18480, Note_on_c, 0, 67, 77
2, 18720, Note_on_c, 0, 67, 0
2, 18720, Note_on_c, 0, 64, 78
2, 19200, Note_on_c, 0, 64, 0
2, 19200, Note_on_c, 0, 69, 78
2, 19440, Note_on_c, 0, 69, 0
2, 19440, Note_on_c, 0, 66, 78
2, 19800, Note_on_c, 0, 66, 0
2, 19800, Note_on_c, 0, 66, 82
2, 19860, Note_on_c, 0, 66, 0
2, 19920, Note_on_c, 0, 69, 85
2, 19980, Note_on_c, 0, 69, 0
2, 20040, Note_on_c, 0, 74, 91
2, 20100, Note_on_c, 0, 74, 0
2, 20160, Note_on_c, 0, 78, 93
2, 20400, Note_on_c, 0, 78, 0
2, 20400, Note_on_c, 0, 76, 87
2, 20640, Note_on_c, 0, 76, 0
2, 20640, Note_on_c, 0, 74, 90
2, 20850, Note_on_c, 0, 74, 0
2, 20880, Note_on_c, 0, 74, 98
2, 21120, Note_on_c, 0, 74, 0
2, 21120, Note_on_c, 0, 71, 81
2, 21360, Note_on_c, 0, 71, 0
2, 21360, Note_on_c, 0, 67, 66
2, 21600, Note_on_c, 0, 67, 0
2, 21600, Note_on_c, 0, 64, 62
2, 22080, Note_on_c, 0, 64, 0
2, 22080, Note_on_c, 0, 67, 62
2, 22320, Note_on_c, 0, 67, 0
2, 22320, Note_on_c, 0, 62, 62
2, 22800, Note_on_c, 0, 62, 0
2, 22800, Note_on_c, 0, 67, 52
2, 23040, Note_on_c, 0, 67, 0
2, 23040, Note_on_c, 0, 64, 52
2, 23520, Note_on_c, 0, 64, 0
2, 23520, Note_on_c, 0, 67, 52
2, 23760, Note_on_c, 0, 67, 0
2, 23760, Note_on_c, 0, 62, 52
2, 24240, Note_on_c, 0, 62, 0
2, 24960, Note_on_c, 0, 66, 50
2, 25080, Note_on_c, 0, 66, 0
2, 25200, Note_on_c, 0, 66, 56
2, 25440, Note_on_c, 0, 66, 0
2, 25440, Note_on_c, 0, 68, 58
2, 25500, Note_on_c, 0, 68, 0
2, 25560, Note_on_c, 0, 70, 59
2, 25620, Note_on_c, 0, 70, 0
2, 25680, Note_on_c, 0, 71, 63
2, 25740, Note_on_c, 0, 71, 0
2, 25800, Note_on_c, 0, 73, 66
2, 25860, Note_on_c, 0, 73, 0
2, 25920, Note_on_c, 0, 74, 74
2, 26160, Note_on_c, 0, 74, 0
2, 26160, Note_on_c, 0, 70, 63
2, 26400, Note_on_c, 0, 70, 0
2, 26400, Note_on_c, 0, 71, 64
2, 26640, Note_on_c, 0, 71, 0
2, 26640, Note_on_c, 0, 76, 76
2, 26880, Note_on_c, 0, 76, 0
2, 26880, Note_on_c, 0, 70, 66
2, 27120, Note_on_c, 0, 70, 0
2, 27120, Note_on_c, 0, 71, 71
2, 27360, Note_on_c, 0, 71, 0
2, 27360, Note_on_c, 0, 73, 81
2, 27840, Note_on_c, 0, 73, 0
2, 27840, Note_on_c, 0, 79, 85
2, 28080, Note_on_c, 0, 79, 0
2, 28080, Note_on_c, 0, 78, 93
2, 28440, Note_on_c, 0, 78, 0
2, 28440, Note_on_c, 0, 76, 81
2, 28500, Note_on_c, 0, 76, 0
2, 28560, Note_on_c, 0, 74, 86
2, 28620, Note_on_c, 0, 74, 0
2, 28680, Note_on_c, 0, 73, 86
2, 28740, Note_on_c, 0, 73, 0
2, 28800, Note_on_c, 0, 76, 92
2, 29160, Note_on_c, 0, 76, 0
2, 29160, Note_on_c, 0, 74, 75
2, 29220, Note_on_c, 0, 74, 0
2, 29280, Note_on_c, 0, 73, 75
2, 29340, Note_on_c, 0, 73, 0
2, 29400, Note_on_c, 0, 71, 84
2, 29460, Note_on_c, 0, 71, 0
2, 29520, Note_on_c, 0, 69, 90
2, 29880, Note_on_c, 0, 69, 0
2, 29880, Note_on_c, 0, 68, 68
2, 29940, Note_on_c, 0, 68, 0
2, 30000, Note_on_c, 0, 66, 66
2, 30060, Note_on_c, 0, 66, 0
2, 30120, Note_on_c, 0, 65, 72
2, 30180, Note_on_c, 0, 65, 0
2, 30240, Note_on_c, 0, 65, 78
2, 30480, Note_on_c, 0, 65, 0
2, 30480, Note_on_c, 0, 66, 64
2, 30690, Note_on_c, 0, 66, 0
2, 30720, Note_on_c, 0, 66, 61
2, 30840, Note_on_c, 0, 66, 0
2, 30960, Note_on_c, 0, 66, 56
2, 31200, Note_on_c, 0, 66, 0
2, 31200, Note_on_c, 0, 68, 58
2, 31260, Note_on_c, 0, 68, 0
2, 31320, Note_on_c, 0, 70, 59
2, 31380, Note_on_c, 0, 70, 0
2, 31440, Note_on_c, 0, 71, 63
2, 31500, Note_on_c, 0, 71, 0
2, 31560, Note_on_c, 0, 73, 66
2, 31620, Note_on_c, 0, 73, 0
2, 31680, Note_on_c, 0, 74, 74
2, 31920, Note_on_c, 0, 74, 0
2, 31920, Note_on_c, 0, 70, 63
2, 32160, Note_on_c, 0, 70, 0
2, 32160, Note_on_c, 0, 71, 65
2, 32400, Note_on_c, 0, 71, 0
2, 32400, Note_on_c, 0, 77, 78
2, 32640, Note_on_c, 0, 77, 0
2, 32640, Note_on_c, 0, 72, 67
2, 32880, Note_on_c, 0, 72, 0
2, 32880, Note_on_c, 0, 73, 73
2, 33120, Note_on_c, 0, 73, 0
2, 33120, Note_on_c, 0, 78, 86
2, 33600, Note_on_c, 0, 78, 0
2, 33600, Note_on_c, 0, 78, 85
2, 33840, Note_on_c, 0, 78, 0
2, 33840, Note_on_c, 0, 76, 93
2, 34200, Note_on_c, 0, 76, 0
2, 34200, Note_on_c, 0, 74, 81
2, 34260, Note_on_c, 0, 74, 0
2, 34320, Note_on_c, 0, 73, 86
2, 34380, Note_on_c, 0, 73, 0
2, 34440, Note_on_c, 0, 74, 86
2, 34500, Note_on_c, 0, 74, 0
2, 34560, Note_on_c, 0, 73, 81
2, 35040, Note_on_c, 0, 73, 0
2, 35040, Note_on_c, 0, 78, 85
2, 35280, Note_on_c, 0, 78, 0
2, 35280, Note_on_c, 0, 76, 93
2, 35640, Note_on_c, 0, 76, 0
2, 35640, Note_on_c, 0, 74, 81
2, 35700, Note_on_c, 0, 74, 0
2, 35760, Note_on_c, 0, 73, 86
2, 35820, Note_on_c, 0, 73, 0
2, 35880, Note_on_c, 0, 74, 86
2, 35940, Note_on_c, 0, 74, 0
2, 36000, Note_on_c, 0, 73, 93
2, 36360, Note_on_c, 0, 73, 0
2, 36360, Note_on_c, 0, 66, 51
2, 36420, Note_on_c, 0, 66, 0
2, 36480, Note_on_c, 0, 65, 53
2, 36540, Note_on_c, 0, 65, 0
2, 36600, Note_on_c, 0, 66, 56
2, 36660, Note_on_c, 0, 66, 0
2, 36720, Note_on_c, 0, 68, 58
2, 36720, Note_on_c, 0, 66, 49
2, 36720, Note_on_c, 0, 62, 49
2, 37080, Note_on_c, 0, 62, 0
2, 37080, Note_on_c, 0, 66, 0
2, 37080, Note_on_c, 0, 68, 0
2, 37080, Note_on_c, 0, 68, 56
2, 37140, Note_on_c, 0, 68, 0
2, 37200, Note_on_c, 0, 66, 59
2, 37260, Note_on_c, 0, 66, 0
2, 37320, Note_on_c, 0, 68, 62
2, 37380, Note_on_c, 0, 68, 0
2, 37440, Note_on_c, 0, 66, 56
2, 37440, Note_on_c, 0, 69, 66
2, 37740, Note_on_c, 0, 69, 0
2, 37740, Note_on_c, 0, 66, 0
2, 37780, Note_on_c, 0, 71, 61
2, 37800, Note_on_c, 0, 71, 0
2, 37800, Note_on_c, 0, 69, 61
2, 37860, Note_on_c, 0, 69, 0
2, 37920, Note_on_c, 0, 68, 62
2, 37980, Note_on_c, 0, 68, 0
2, 38040, Note_on_c, 0, 69, 66
2, 38100, Note_on_c, 0, 69, 0
2, 38160, Note_on_c, 0, 71, 72
2, 38160, Note_on_c, 0, 66, 61
2, 38520, Note_on_c, 0, 66, 0
2, 38520, Note_on_c, 0, 71, 0
2, 38520, Note_on_c, 0, 71, 63
2, 38580, Note_on_c, 0, 71, 0
2, 38640, Note_on_c, 0, 69, 67
2, 38700, Note_on_c, 0, 69, 0
2, 38760, Note_on_c, 0, 71, 68
2, 38820, Note_on_c, 0, 71, 0
2, 38880, Note_on_c, 0, 73, 73
2, 38880, Note_on_c, 0, 69, 62
2, 38880, Note_on_c, 0, 66, 62
2, 39180, Note_on_c, 0, 66, 0
2, 39180, Note_on_c, 0, 69, 0
2, 39180, Note_on_c, 0, 73, 0
2, 39220, Note_on_c, 0, 74, 68
2, 39240, Note_on_c, 0, 74, 0
2, 39240, Note_on_c, 0, 73, 68
2, 39300, Note_on_c, 0, 73, 0
2, 39360, Note_on_c, 0, 72, 70
2, 39420, Note_on_c, 0, 72, 0
2, 39480, Note_on_c, 0, 73, 73
2, 39540, Note_on_c, 0, 73, 0
2, 39600, Note_on_c, 0, 68, 69
2, 39600, Note_on_c, 0, 73, 69
2, 39600, Note_on_c, 0, 77, 82
2, 39960, Note_on_c, 0, 77, 0
2, 39960, Note_on_c, 0, 73, 0
2, 39960, Note_on_c, 0, 68, 0
2, 39960, Note_on_c, 0, 77, 73
2, 40020, Note_on_c, 0, 77, 0
2, 40080, Note_on_c, 0, 75, 78
2, 40140, Note_on_c, 0, 75, 0
2, 40200, Note_on_c, 0, 77, 83
2, 40260, Note_on_c, 0, 77, 0
2, 40320, Note_on_c, 0, 78, 93
2, 41280, Note_on_c, 0, 78, 0
2, 41280, Note_on_c, 0, 76, 87
2, 41520, Note_on_c, 0, 76, 0
2, 41520, Note_on_c, 0, 74, 90
2, 41730, Note_on_c, 0, 74, 0
2, 41760, Note_on_c, 0, 74, 98
2, 42000, Note_on_c, 0, 74, 0
2, 42000, Note_on_c, 0, 71, 87
2, 42240, Note_on_c, 0, 71, 0
2, 42240, Note_on_c, 0, 67, 77
2, 42480, Note_on_c, 0, 67, 0
2, 42480, Note_on_c, 0, 64, 78
2, 42960, Note_on_c, 0, 64, 0
2, 42960, Note_on_c, 0, 69, 78
2, 43200, Note_on_c, 0, 69, 0
2, 43200, Note_on_c, 0, 66, 78
2, 43560, Note_on_c, 0, 66, 0
2, 43560, Note_on_c, 0, 66, 82
2, 43620, Note_on_c, 0, 66, 0
2, 43680, Note_on_c, 0, 69, 85
2, 43740, Note_on_c, 0, 69, 0
2, 43800, Note_on_c, 0, 74, 91
2, 43860, Note_on_c, 0, 74, 0
2, 43920, Note_on_c, 0, 78, 93
2, 44160, Note_on_c, 0, 78, 0
2, 44160, Note_on_c, 0, 76, 87
2, 44400, Note_on_c, 0, 76, 0
2, 44400, Note_on_c, 0, 74, 90
2, 44610, Note_on_c, 0, 74, 0
2, 44640, Note_on_c, 0, 74, 98
2, 44880, Note_on_c, 0, 74, 0
2, 44880, Note_on_c, 0, 71, 81
2, 45120, Note_on_c, 0, 71, 0
2, 45120, Note_on_c, 0, 67, 66
2, 45360, Note_on_c, 0, 67, 0
2, 45360, Note_on_c, 0, 64, 62
2, 45840, Note_on_c, 0, 64, 0
2, 45840, Note_on_c, 0, 67, 62
2, 46080, Note_on_c, 0, 67, 0
2, 46080, Note_on_c, 0, 62, 62
2, 46560, Note_on_c, 0, 62, 0
2, 46560, Note_on_c, 0, 67, 52
2, 46800, Note_on_c, 0, 67, 0
2, 46800, Note_on_c, 0, 64, 52
2, 47280, Note_on_c, 0, 64, 0
2, 47280, Note_on_c, 0, 67, 52
2, 47520, Note_on_c, 0, 67, 0
2, 47520, Note_on_c, 0, 62, 52
2, 48000, Note_on_c, 0, 62, 0
2, 48000, Note_on_c, 0, 67, 52
2, 48240, Note_on_c, 0, 67, 0
2, 48240, Note_on_c, 0, 63, 52
2, 48720, Note_on_c, 0, 63, 0
2, 48720, Note_on_c, 0, 67, 52
2, 48960, Note_on_c, 0, 67, 0
2, 48960, Note_on_c, 0, 64, 57
2, 49440, Note_on_c, 0, 64, 0
2, 49440, Note_on_c, 0, 68, 64
2, 49680, Note_on_c, 0, 68, 0
2, 49680, Note_on_c, 0, 71, 77
2, 49920, Note_on_c, 0, 71, 0
2, 49920, Note_on_c, 0, 68, 72
2, 50160, Note_on_c, 0, 68, 0
2, 50160, Note_on_c, 0, 64, 74
2, 50400, Note_on_c, 0, 64, 0
2, 50400, Note_on_c, 0, 64, 72
2, 50880, Note_on_c, 0, 64, 0
2, 50880, Note_on_c, 0, 69, 52
2, 51120, Note_on_c, 0, 69, 0
2, 51120, Note_on_c, 0, 65, 62
2, 51600, Note_on_c, 0, 65, 0
2, 51600, Note_on_c, 0, 69, 65
2, 51840, Note_on_c, 0, 69, 0
2, 51840, Note_on_c, 0, 66, 73
2, 52320, Note_on_c, 0, 66, 0
2, 52320, Note_on_c, 0, 70, 72
2, 52560, Note_on_c, 0, 70, 0
2, 52560, Note_on_c, 0, 73, 83
2, 52800, Note_on_c, 0, 73, 0
2, 52800, Note_on_c, 0, 70, 75
2, 53040, Note_on_c, 0, 70, 0
2, 53040, Note_on_c, 0, 66, 74
2, 53270, Note_on_c, 0, 66, 0
2, 53280, Note_on_c, 0, 66, 70
2, 53760, Note_on_c, 0, 66, 0
2, 53760, Note_on_c, 0, 71, 70
2, 53990, Note_on_c, 0, 71, 0
2, 54000, Note_on_c, 0, 71, 70
2, 54470, Note_on_c, 0, 71, 0
2, 54480, Note_on_c, 0, 71, 70
2, 54710, Note_on_c, 0, 71, 0
2, 54720, Note_on_c, 0, 71, 79
2, 54960, Note_on_c, 0, 71, 0
2, 54960, Note_on_c, 0, 73, 76
2, 55020, Note_on_c, 0, 73, 0
2, 55080, Note_on_c, 0, 75, 77
2, 55140, Note_on_c, 0, 75, 0
2, 55200, Note_on_c, 0, 76, 79
2, 55260, Note_on_c, 0, 76, 0
2, 55320, Note_on_c, 0, 78, 83
2, 55380, Note_on_c, 0, 78, 0
2, 55440, Note_on_c, 0, 79, 85
2, 55440, Note_on_c, 0, 67, 85
2, 56160, Note_on_c, 0, 79, 0
2, 56160, Note_on_c, 0, 76, 85
2, 56400, Note_on_c, 0, 76, 0
2, 56400, Note_on_c, 0, 67, 0
2, 56640, Note_on_c, 0, 67, 70
2, 56870, Note_on_c, 0, 67, 0
2, 56880, Note_on_c, 0, 67, 70
2, 57350, Note_on_c, 0, 67, 0
2, 57360, Note_on_c, 0, 67, 70
2, 57590, Note_on_c, 0, 67, 0
2, 57600, Note_on_c, 0, 67, 79
2, 57840, Note_on_c, 0, 67, 0
2, 57840, Note_on_c, 0, 69, 76
2, 57900, Note_on_c, 0, 69, 0
2, 57960, Note_on_c, 0, 71, 77
2, 58020, Note_on_c, 0, 71, 0
2, 58080, Note_on_c, 0, 72, 79
2, 58140, Note_on_c, 0, 72, 0
2, 58200, Note_on_c, 0, 74, 83
2, 58260, Note_on_c, 0, 74, 0
2, 58320, Note_on_c, 0, 76, 85
2, 58320, Note_on_c, 0, 64, 85
2, 59040, Note_on_c, 0, 76, 0
2, 59040, Note_on_c, 0, 72, 85
2, 59280, Note_on_c, 0, 72, 0
2, 59280, Note_on_c, 0, 64, 0
2, 59520, Note_on_c, 0, 72, 70
2, 59750, Note_on_c, 0, 72, 0
2, 59760, Note_on_c, 0, 71, 79
2, 60000, Note_on_c, 0, 71, 0
2, 60000, Note_on_c, 0, 73, 78
2, 60060, Note_on_c, 0, 73, 0
2, 60120, Note_on_c, 0, 75, 84
2, 60180, Note_on_c, 0, 75, 0
2, 60240, Note_on_c, 0, 76, 85
2, 60300, Note_on_c, 0, 76, 0
2, 60360, Note_on_c, 0, 78, 87
2, 60420, Note_on_c, 0, 78, 0
2, 60480, Note_on_c, 0, 79, 94
2, 60720, Note_on_c, 0, 79, 0
2, 60720, Note_on_c, 0, 76, 87
2, 60960, Note_on_c, 0, 76, 0
2, 60960, Note_on_c, 0, 72, 87
2, 61200, Note_on_c, 0, 72, 0
2, 61200, Note_on_c, 0, 79, 94
2, 61440, Note_on_c, 0, 79, 0
2, 61440, Note_on_c, 0, 76, 86
2, 61680, Note_on_c, 0, 76, 0
2, 61680, Note_on_c, 0, 71, 84
2, 61920, Note_on_c, 0, 71, 0
2, 61920, Note_on_c, 0, 79, 89
2, 62160, Note_on_c, 0, 79, 0
2, 62160, Note_on_c, 0, 76, 81
2, 62400, Note_on_c, 0, 76, 0
2, 62400, Note_on_c, 0, 70, 80
2, 62640, Note_on_c, 0, 70, 0
2, 62640, Note_on_c, 0, 78, 84
2, 62880, Note_on_c, 0, 78, 0
2, 62880, Note_on_c, 0, 74, 77
2, 63120, Note_on_c, 0, 74, 0
2, 63120, Note_on_c, 0, 71, 75
2, 63360, Note_on_c, 0, 71, 0
2, 63360, Note_on_c, 0, 74, 79
2, 63600, Note_on_c, 0, 74, 0
2, 63600, Note_on_c, 0, 71, 73
2, 63840, Note_on_c, 0, 71, 0
2, 63840, Note_on_c, 0, 67, 71
2, 64080, Note_on_c, 0, 67, 0
2, 64080, Note_on_c, 0, 71, 70
2, 64320, Note_on_c, 0, 71, 0
2, 64320, Note_on_c, 0, 67, 59
2, 64560, Note_on_c, 0, 67, 0
2, 64560, Note_on_c, 0, 62, 54
2, 64800, Note_on_c, 0, 62, 0
2, 64800, Note_on_c, 0, 67, 52
2, 65040, Note_on_c, 0, 67, 0
2, 65040, Note_on_c, 0, 62, 48
2, 65280, Note_on_c, 0, 62, 0
2, 65280, Note_on_c, 0, 59, 48
2, 65520, Note_on_c, 0, 59, 0
2, 65520, Note_on_c, 0, 62, 52
2, 65760, Note_on_c, 0, 62, 0
2, 65760, Note_on_c, 0, 59, 48
2, 66000, Note_on_c, 0, 59, 0
2, 66000, Note_on_c, 0, 53, 48
2, 66240, Note_on_c, 0, 53, 0
2, 66240, Note_on_c, 0, 54, 52
2, 66420, Note_on_c, 0, 54, 0
2, 66480, Note_on_c, 0, 70, 62
2, 66480, Note_on_c, 0, 58, 52
2, 66540, Note_on_c, 0, 58, 0
2, 66540, Note_on_c, 0, 70, 0
2, 66600, Note_on_c, 0, 71, 65
2, 66600, Note_on_c, 0, 59, 55
2, 66660, Note_on_c, 0, 59, 0
2, 66660, Note_on_c, 0, 71, 0
2, 66720, Note_on_c, 0, 73, 67
2, 66720, Note_on_c, 0, 61, 56
2, 66780, Note_on_c, 0, 61, 0
2, 66780, Note_on_c, 0, 73, 0
2, 66840, Note_on_c, 0, 74, 70
2, 66840, Note_on_c, 0, 62, 59
2, 66900, Note_on_c, 0, 62, 0
2, 66900, Note_on_c, 0, 74, 0
2, 66960, Note_on_c, 0, 64, 66
2, 66960, Note_on_c, 0, 76, 78
2, 67680, Note_on_c, 0, 76, 0
2, 67680, Note_on_c, 0, 64, 0
2, 67800, Note_on_c, 0, 66, 59
2, 67800, Note_on_c, 0, 78, 71
2, 67860, Note_on_c, 0, 78, 0
2, 67860, Note_on_c, 0, 66, 0
2, 67920, Note_on_c, 0, 82, 71
2, 67920, Note_on_c, 0, 70, 59
2, 67980, Note_on_c, 0, 70, 0
2, 67980, Note_on_c, 0, 82, 0
2, 68040, Note_on_c, 0, 83, 74
2, 68040, Note_on_c, 0, 71, 63
2, 68100, Note_on_c, 0, 71, 0
2, 68100, Note_on_c, 0, 83, 0
2, 68160, Note_on_c, 0, 85, 77
2, 68160, Note_on_c, 0, 73, 64
2, 68220, Note_on_c, 0, 73, 0
2, 68220, Note_on_c, 0, 85, 0
2, 68280, Note_on_c, 0, 86, 80
2, 68280, Note_on_c, 0, 74, 67
2, 68340, Note_on_c, 0, 74, 0
2, 68340, Note_on_c, 0, 86, 0
2, 68400, Note_on_c, 0, 76, 75
2, 68400, Note_on_c, 0, 88, 89
2, 69210, Note_on_c, 0, 88, 0
2, 69210, Note_on_c, 0, 76, 0
2, 69240, Note_on_c, 0, 66, 53
2, 69360, Note_on_c, 0, 66, 0
2, 69360, Note_on_c, 0, 70, 53
2, 69480, Note_on_c, 0, 70, 0
2, 69480, Note_on_c, 0, 71, 53
2, 69600, Note_on_c, 0, 71, 0
2, 69600, Note_on_c, 0, 73, 55
2, 69720, Note_on_c, 0, 73, 0
2, 69720, Note_on_c, 0, 74, 56
2, 69840, Note_on_c, 0, 74, 0
2, 69840, Note_on_c, 0, 76, 57
2, 69950, Note_on_c, 0, 76, 0
2, 69960, Note_on_c, 0, 66, 51
2, 70080, Note_on_c, 0, 66, 0
2, 70080, Note_on_c, 0, 70, 51
2, 70200, Note_on_c, 0, 70, 0
2, 70200, Note_on_c, 0, 71, 53
2, 70320, Note_on_c, 0, 71, 0
2, 70320, Note_on_c, 0, 73, 54
2, 70440, Note_on_c, 0, 73, 0
2, 70440, Note_on_c, 0, 74, 55
2, 70560, Note_on_c, 0, 74, 0
2, 70560, Note_on_c, 0, 76, 58
2, 70670, Note_on_c, 0, 76, 0
2, 70680, Note_on_c, 0, 70, 56
2, 70800, Note_on_c, 0, 70, 0
2, 70800, Note_on_c, 0, 73, 56
2, 70920, Note_on_c, 0, 73, 0
2, 70920, Note_on_c, 0, 74, 57
2, 71040, Note_on_c, 0, 74, 0
2, 71040, Note_on_c, 0, 76, 63
2, 71160, Note_on_c, 0, 76, 0
2, 71160, Note_on_c, 0, 78, 67
2, 71280, Note_on_c, 0, 78, 0
2, 71280, Note_on_c, 0, 79, 68
2, 71390, Note_on_c, 0, 79, 0
2, 71400, Note_on_c, 0, 70, 62
2, 71520, Note_on_c, 0, 70, 0
2, 71520, Note_on_c, 0, 73, 63
2, 71640, Note_on_c, 0, 73, 0
2, 71640, Note_on_c, 0, 74, 67
2, 71760, Note_on_c, 0, 74, 0
2, 71760, Note_on_c, 0, 76, 68
2, 71880, Note_on_c, 0, 76, 0
2, 71880, Note_on_c, 0, 78, 71
2, 72000, Note_on_c, 0, 78, 0
2, 72000, Note_on_c, 0, 79, 70
2, 72120, Note_on_c, 0, 79, 0
2, 72120, Note_on_c, 0, 78, 64
2, 72240, Note_on_c, 0, 78, 0
2, 72240, Note_on_c, 0, 76, 70
2, 72360, Note_on_c, 0, 76, 0
2, 72360, Note_on_c, 0, 74, 66
2, 72480, Note_on_c, 0, 74, 0
2, 72480, Note_on_c, 0, 73, 70
2, 72600, Note_on_c, 0, 73, 0
2, 72600, Note_on_c, 0, 74, 69
2, 72720, Note_on_c, 0, 74, 0
2, 72720, Note_on_c, 0, 76, 76
2, 72840, Note_on_c, 0, 76, 0
2, 72840, Note_on_c, 0, 74, 63
2, 72960, Note_on_c, 0, 74, 0
2, 72960, Note_on_c, 0, 73, 66
2, 73080, Note_on_c, 0, 73, 0
2, 73080, Note_on_c, 0, 71, 59
2, 73200, Note_on_c, 0, 71, 0
2, 73200, Note_on_c, 0, 70, 63
2, 73320, Note_on_c, 0, 70, 0
2, 73320, Note_on_c, 0, 71, 59
2, 73440, Note_on_c, 0, 71, 0
2, 73440, Note_on_c, 0, 73, 62
2, 73560, Note_on_c, 0, 73, 0
2, 73560, Note_on_c, 0, 70, 50
2, 73680, Note_on_c, 0, 70, 0
2, 73680, Note_on_c, 0, 67, 59
2, 73800, Note_on_c, 0, 67, 0
2, 73800, Note_on_c, 0, 66, 51
2, 73920, Note_on_c, 0, 66, 0
2, 73920, Note_on_c, 0, 64, 58
2, 74040, Note_on_c, 0, 64, 0
2, 74040, Note_on_c, 0, 66, 51
2, 74160, Note_on_c, 0, 66, 0
2, 74160, Note_on_c, 0, 67, 55
2, 74280, Note_on_c, 0, 67, 0
2, 74280, Note_on_c, 0, 64, 48
2, 74400, Note_on_c, 0, 64, 0
2, 74400, Note_on_c, 0, 61, 51
2, 74520, Note_on_c, 0, 61, 0
2, 74520, Note_on_c, 0, 59, 48
2, 74640, Note_on_c, 0, 59, 0
2, 74640, Note_on_c, 0, 58, 48
2, 74640, Note_on_c, 0, 66, 50
2, 74760, Note_on_c, 0, 58, 0
2, 74760, Note_on_c, 0, 59, 48
2, 74820, Note_on_c, 0, 66, 0
2, 74880, Note_on_c, 0, 59, 0
2, 74880, Note_on_c, 0, 66, 56
2, 75120, Note_on_c, 0, 66, 0
2, 75120, Note_on_c, 0, 68, 58
2, 75180, Note_on_c, 0, 68, 0
2, 75240, Note_on_c, 0, 70, 59
2, 75300, Note_on_c, 0, 70, 0
2, 75360, Note_on_c, 0, 71, 63
2, 75420, Note_on_c, 0, 71, 0
2, 75480, Note_on_c, 0, 73, 66
2, 75540, Note_on_c, 0, 73, 0
2, 75600, Note_on_c, 0, 74, 74
2, 75840, Note_on_c, 0, 74, 0
2, 75840, Note_on_c, 0, 70, 63
2, 76080, Note_on_c, 0, 70, 0
2, 76080, Note_on_c, 0, 71, 64
2, 76320, Note_on_c, 0, 71, 0
2, 76320, Note_on_c, 0, 76, 68
2, 76560, Note_on_c, 0, 76, 0
2, 76560, Note_on_c, 0, 70, 59
2, 76800, Note_on_c, 0, 70, 0
2, 76800, Note_on_c, 0, 71, 63
2, 77040, Note_on_c, 0, 71, 0
2, 77040, Note_on_c, 0, 73, 72
2, 77520, Note_on_c, 0, 73, 0
2, 77520, Note_on_c, 0, 66, 61
2, 77700, Note_on_c, 0, 66, 0
2, 77760, Note_on_c, 0, 66, 64
2, 78000, Note_on_c, 0, 66, 0
2, 78000, Note_on_c, 0, 68, 66
2, 78060, Note_on_c, 0, 68, 0
2, 78120, Note_on_c, 0, 70, 67
2, 78180, Note_on_c, 0, 70, 0
2, 78240, Note_on_c, 0, 71, 72
2, 78300, Note_on_c, 0, 71, 0
2, 78360, Note_on_c, 0, 73, 75
2, 78420, Note_on_c, 0, 73, 0
2, 78480, Note_on_c, 0, 74, 85
2, 78720, Note_on_c, 0, 74, 0
2, 78720, Note_on_c, 0, 70, 72
2, 78960, Note_on_c, 0, 70, 0
2, 78960, Note_on_c, 0, 71, 73
2, 79200, Note_on_c, 0, 71, 0
2, 79200, Note_on_c, 0, 76, 87
2, 79440, Note_on_c, 0, 76, 0
2, 79440, Note_on_c, 0, 70, 75
2, 79680, Note_on_c, 0, 70, 0
2, 79680, Note_on_c, 0, 71, 81
2, 79920, Note_on_c, 0, 71, 0
2, 79920, Note_on_c, 0, 73, 93
2, 80400, Note_on_c, 0, 73, 0
2, 80400, Note_on_c, 0, 66, 81
2, 80580, Note_on_c, 0, 66, 0
2, 80640, Note_on_c, 0, 66, 89
2, 80875, Note_on_c, 0, 66, 0
2, 80880, Note_on_c, 0, 68, 84
2, 80940, Note_on_c, 0, 68, 0
2, 81000, Note_on_c, 0, 70, 85
2, 81060, Note_on_c, 0, 70, 0
2, 81120, Note_on_c, 0, 71, 89
2, 81180, Note_on_c, 0, 71, 0
2, 81240, Note_on_c, 0, 73, 93
2, 81300, Note_on_c, 0, 73, 0
2, 81360, Note_on_c, 0, 66, 82
2, 81360, Note_on_c, 0, 74, 97
2, 81600, Note_on_c, 0, 74, 0
2, 81600, Note_on_c, 0, 66, 0
2, 81600, Note_on_c, 0, 64, 65
2, 81600, Note_on_c, 0, 70, 77
2, 81840, Note_on_c, 0, 70, 0
2, 81840, Note_on_c, 0, 64, 0
2, 81840, Note_on_c, 0, 62, 72
2, 81840, Note_on_c, 0, 71, 85
2, 82080, Note_on_c, 0, 71, 0
2, 82080, Note_on_c, 0, 62, 0
2, 82080, Note_on_c, 0, 60, 73
2, 82080, Note_on_c, 0, 66, 87
2, 82320, Note_on_c, 0, 66, 0
2, 82320, Note_on_c, 0, 60, 0
2, 82320, Note_on_c, 0, 59, 65
2, 82320, Note_on_c, 0, 67, 77
2, 82560, Note_on_c, 0, 67, 0
2, 82560, Note_on_c, 0, 59, 0
2, 82560, Note_on_c, 0, 60, 72
2, 82560, Note_on_c, 0, 66, 85
2, 82800, Note_on_c, 0, 66, 0
2, 82800, Note_on_c, 0, 60, 0
2, 82800, Note_on_c, 0, 59, 73
2, 82800, Note_on_c, 0, 67, 87
2, 83040, Note_on_c, 0, 67, 0
2, 83040, Note_on_c, 0, 59, 0
2, 83040, Note_on_c, 0, 65, 74
2, 83040, Note_on_c, 0, 71, 88
2, 83280, Note_on_c, 0, 71, 0
2, 83280, Note_on_c, 0, 65, 0
2, 83280, Note_on_c, 0, 64, 72
2, 83280, Note_on_c, 0, 73, 85
2, 83520, Note_on_c, 0, 73, 0
2, 83520, Note_on_c, 0, 64, 0
2, 83520, Note_on_c, 0, 62, 73
2, 83520, Note_on_c, 0, 68, 87
2, 83760, Note_on_c, 0, 68, 0
2, 83760, Note_on_c, 0, 62, 0
2, 83760, Note_on_c, 0, 61, 65
2, 83760, Note_on_c, 0, 69, 77
2, 84000, Note_on_c, 0, 69, 0
2, 84000, Note_on_c, 0, 61, 0
2, 84000, Note_on_c, 0, 62, 72
2, 84000, Note_on_c, 0, 68, 85
2, 84240, Note_on_c, 0, 68, 0
2, 84240, Note_on_c, 0, 62, 0
2, 84240, Note_on_c, 0, 61, 73
2, 84240, Note_on_c, 0, 69, 87
2, 84480, Note_on_c, 0, 69, 0
2, 84480, Note_on_c, 0, 61, 0
2, 84480, Note_on_c, 0, 71, 74
2, 84480, Note_on_c, 0, 77, 88
2, 84720, Note_on_c, 0, 77, 0
2, 84720, Note_on_c, 0, 71, 0
2, 84720, Note_on_c, 0, 69, 72
2, 84720, Note_on_c, 0, 78, 85
2, 84960, Note_on_c, 0, 78, 0
2, 84960, Note_on_c, 0, 69, 0
2, 84960, Note_on_c, 0, 67, 73
2, 84960, Note_on_c, 0, 73, 87
2, 85200, Note_on_c, 0, 73, 0
2, 85200, Note_on_c, 0, 67, 0
2, 85200, Note_on_c, 0, 66, 65
2, 85200, Note_on_c, 0, 74, 77
2, 85440, Note_on_c, 0, 74, 0
2, 85440, Note_on_c, 0, 66, 0
2, 85440, Note_on_c, 0, 67, 72
2, 85440, Note_on_c, 0, 73, 85
2, 85680, Note_on_c, 0, 73, 0
2, 85680, Note_on_c, 0, 67, 0
2, 85680, Note_on_c, 0, 66, 73
2, 85680, Note_on_c, 0, 74, 87
2, 85920, Note_on_c, 0, 74, 0
2, 85920, Note_on_c, 0, 66, 0
2, 85920, Note_on_c, 0, 58, 74
2, 85920, Note_on_c, 0, 70, 88
2, 86160, Note_on_c, 0, 70, 0
2, 86160, Note_on_c, 0, 58, 0
2, 86160, Note_on_c, 0, 59, 72
2, 86160, Note_on_c, 0, 71, 85
2, 86400, Note_on_c, 0, 71, 0
2, 86400, Note_on_c, 0, 59, 0
2, 86400, Note_on_c, 0, 61, 73
2, 86400, Note_on_c, 0, 73, 87
2, 86640, Note_on_c, 0, 73, 0
2, 86640, Note_on_c, 0, 61, 0
2, 86640, Note_on_c, 0, 62, 74
2, 86640, Note_on_c, 0, 74, 88
2, 86880, Note_on_c, 0, 74, 0
2, 86880, Note_on_c, 0, 62, 0
2, 86880, Note_on_c, 0, 64, 73
2, 86880, Note_on_c, 0, 76, 86
2, 87120, Note_on_c, 0, 76, 0
2, 87120, Note_on_c, 0, 64, 0
2, 87120, Note_on_c, 0, 66, 75
2, 87120, Note_on_c, 0, 78, 89
2, 87360, Note_on_c, 0, 78, 0
2, 87360, Note_on_c, 0, 66, 0
2, 87360, Note_on_c, 0, 65, 77
2, 87360, Note_on_c, 0, 77, 92
2, 87600, Note_on_c, 0, 77, 0
2, 87600, Note_on_c, 0, 65, 0
2, 87600, Note_on_c, 0, 66, 76
2, 87600, Note_on_c, 0, 78, 90
2, 87840, Note_on_c, 0, 78, 0
2, 87840, Note_on_c, 0, 66, 0
2, 87840, Note_on_c, 0, 67, 79
2, 87840, Note_on_c, 0, 79, 94
2, 88080, Note_on_c, 0, 79, 0
2, 88080, Note_on_c, 0, 67, 0
2, 88080, Note_on_c, 0, 68, 81
2, 88080, Note_on_c, 0, 80, 96
2, 88320, Note_on_c, 0, 80, 0
2, 88320, Note_on_c, 0, 68, 0
2, 88320, Note_on_c, 0, 70, 80
2, 88320, Note_on_c, 0, 82, 94
2, 88560, Note_on_c, 0, 82, 0
2, 88560, Note_on_c, 0, 70, 0
2, 88560, Note_on_c, 0, 83, 102
2, 89520, Note_on_c, 0, 83, 0
2, 89520, Note_on_c, 0, 81, 95
2, 89760, Note_on_c, 0, 81, 0
2, 89760, Note_on_c, 0, 79, 99
2, 89970, Note_on_c, 0, 79, 0
2, 90000, Note_on_c, 0, 79, 107
2, 90240, Note_on_c, 0, 79, 0
2, 90240, Note_on_c, 0, 76, 95
2, 90480, Note_on_c, 0, 76, 0
2, 90480, Note_on_c, 0, 72, 84
2, 90720, Note_on_c, 0, 72, 0
2, 90720, Note_on_c, 0, 69, 85
2, 91200, Note_on_c, 0, 69, 0
2, 91200, Note_on_c, 0, 74, 85
2, 91440, Note_on_c, 0, 74, 0
2, 91440, Note_on_c, 0, 71, 85
2, 91800, Note_on_c, 0, 71, 0
2, 91800, Note_on_c, 0, 71, 90
2, 91860, Note_on_c, 0, 71, 0
2, 91920, Note_on_c, 0, 74, 93
2, 91980, Note_on_c, 0, 74, 0
2, 92040, Note_on_c, 0, 79, 100
2, 92100, Note_on_c, 0, 79, 0
2, 92160, Note_on_c, 0, 83, 102
2, 92400, Note_on_c, 0, 83, 0
2, 92400, Note_on_c, 0, 81, 95
2, 92640, Note_on_c, 0, 81, 0
2, 92640, Note_on_c, 0, 79, 99
2, 92850, Note_on_c, 0, 79, 0
2, 92880, Note_on_c, 0, 79, 107
2, 93120, Note_on_c, 0, 79, 0
2, 93120, Note_on_c, 0, 76, 86
2, 93360, Note_on_c, 0, 76, 0
2, 93360, Note_on_c, 0, 72, 68
2, 93600, Note_on_c, 0, 72, 0
2, 93600, Note_on_c, 0, 69, 62
2, 94080, Note_on_c, 0, 69, 0
2, 94080, Note_on_c, 0, 72, 62
2, 94320, Note_on_c, 0, 72, 0
2, 94320, Note_on_c, 0, 67, 62
2, 94800, Note_on_c, 0, 67, 0
2, 94800, Note_on_c, 0, 72, 52
2, 95040, Note_on_c, 0, 72, 0
2, 95040, Note_on_c, 0, 69, 52
2, 95520, Note_on_c, 0, 69, 0
2, 95520, Note_on_c, 0, 72, 52
2, 95760, Note_on_c, 0, 72, 0
2, 95760, Note_on_c, 0, 67, 52
2, 96240, Note_on_c, 0, 67, 0
2, 96960, Note_on_c, 0, 72, 57
2, 97200, Note_on_c, 0, 72, 0
2, 97200, Note_on_c, 0, 71, 63
2, 97680, Note_on_c, 0, 71, 0
2, 97680, Note_on_c, 0, 69, 57
2, 97920, Note_on_c, 0, 69, 0
2, 97920, Note_on_c, 0, 68, 62
2, 98400, Note_on_c, 0, 68, 0
2, 98400, Note_on_c, 0, 67, 57
2, 98640, Note_on_c, 0, 67, 0
2, 98640, Note_on_c, 0, 66, 62
2, 98880, Note_on_c, 0, 66, 0
2, 98880, Note_on_c, 0, 70, 67
2, 99120, Note_on_c, 0, 70, 0
2, 99120, Note_on_c, 0, 73, 70
2, 99360, Note_on_c, 0, 73, 0
2, 99360, Note_on_c, 0, 76, 84
2, 99600, Note_on_c, 0, 76, 0
2, 99600, Note_on_c, 0, 75, 77
2, 99840, Note_on_c, 0, 75, 0
2, 99840, Note_on_c, 0, 72, 70
2, 100080, Note_on_c, 0, 72, 0
2, 100080, Note_on_c, 0, 71, 73
2, 100560, Note_on_c, 0, 71, 0
2, 100560, Note_on_c, 0, 69, 66
2, 100800, Note_on_c, 0, 69, 0
2, 100800, Note_on_c, 0, 68, 61
2, 101280, Note_on_c, 0, 68, 0
2, 101280, Note_on_c, 0, 67, 61
2, 101520, Note_on_c, 0, 67, 0
2, 101520, Note_on_c, 0, 66, 62
2, 101760, Note_on_c, 0, 66, 0
2, 101760, Note_on_c, 0, 70, 67
2, 102000, Note_on_c, 0, 70, 0
2, 102000, Note_on_c, 0, 73, 70
2, 102240, Note_on_c, 0, 73, 0
2, 102240, Note_on_c, 0, 76, 85
2, 102480, Note_on_c, 0, 76, 0
2, 102480, Note_on_c, 0, 75, 77
2, 102720, Note_on_c, 0, 75, 0
2, 102720, Note_on_c, 0, 72, 73
2, 102960, Note_on_c, 0, 72, 0
2, 102960, Note_on_c, 0, 71, 85
2, 103920, Note_on_c, 0, 71, 0
2, 104160, Note_on_c, 0, 74, 73
2, 104400, Note_on_c, 0, 74, 0
2, 104400, Note_on_c, 0, 73, 85
2, 105360, Note_on_c, 0, 73, 0
2, 105600, Note_on_c, 0, 76, 73
2, 105840, Note_on_c, 0, 76, 0
2, 105840, Note_on_c, 0, 74, 85
2, 106080, Note_on_c, 0, 74, 0
2, 106080, Note_on_c, 0, 76, 84
2, 106080, Note_on_c, 0, 66, 71
2, 106140, Note_on_c, 0, 66, 0
2, 106140, Note_on_c, 0, 76, 0
2, 106200, Note_on_c, 0, 66, 62
2, 106200, Note_on_c, 0, 74, 74
2, 106260, Note_on_c, 0, 74, 0
2, 106260, Note_on_c, 0, 66, 0
2, 106320, Note_on_c, 0, 73, 82
2, 106320, Note_on_c, 0, 66, 69
2, 106380, Note_on_c, 0, 66, 0
2, 106380, Note_on_c, 0, 73, 0
2, 106440, Note_on_c, 0, 71, 79
2, 106440, Note_on_c, 0, 66, 67
2, 106500, Note_on_c, 0, 66, 0
2, 106500, Note_on_c, 0, 71, 0
2, 106560, Note_on_c, 0, 79, 85
2, 106680, Note_on_c, 0, 79, 0
2, 106800, Note_on_c, 0, 70, 84
2, 106800, Note_on_c, 0, 67, 71
2, 107160, Note_on_c, 0, 67, 0
2, 107160, Note_on_c, 0, 70, 0
2, 107160, Note_on_c, 0, 71, 79
2, 107160, Note_on_c, 0, 66, 67
2, 107270, Note_on_c, 0, 66, 0
2, 107270, Note_on_c, 0, 71, 0
2, 107280, Note_on_c, 0, 66, 67
2, 107280, Note_on_c, 0, 71, 79
2, 107400, Note_on_c, 0, 71, 0
2, 107400, Note_on_c, 0, 66, 0
2, 107400, Note_on_c, 0, 63, 55
2, 107400, Note_on_c, 0, 72, 55
2, 107400, Note_on_c, 0, 69, 55
2, 107400, Note_on_c, 0, 66, 55
2, 107460, Note_on_c, 0, 66, 0
2, 107460, Note_on_c, 0, 63, 0
2, 107460, Note_on_c, 0, 72, 0
2, 107460, Note_on_c, 0, 69, 0
2, 107520, Note_on_c, 0, 63, 48
2, 107520, Note_on_c, 0, 66, 48
2, 107520, Note_on_c, 0, 69, 48
2, 107520, Note_on_c, 0, 72, 48
2, 107580, Note_on_c, 0, 72, 0
2, 107580, Note_on_c, 0, 63, 0
2, 107580, Note_on_c, 0, 66, 0
2, 107580, Note_on_c, 0, 69, 0
2, 107640, Note_on_c, 0, 63, 59
2, 107640, Note_on_c, 0, 72, 59
2, 107640, Note_on_c, 0, 69, 59
2, 107640, Note_on_c, 0, 66, 59
2, 107700, Note_on_c, 0, 66, 0
2, 107700, Note_on_c, 0, 63, 0
2, 107700, Note_on_c, 0, 72, 0
2, 107700, Note_on_c, 0, 69, 0
2, 107760, Note_on_c, 0, 63, 54
2, 107760, Note_on_c, 0, 66, 54
2, 107760, Note_on_c, 0, 69, 54
2, 107760, Note_on_c, 0, 72, 54
2, 107820, Note_on_c, 0, 72, 0
2, 107820, Note_on_c, 0, 63, 0
2, 107820, Note_on_c, 0, 66, 0
2, 107820, Note_on_c, 0, 69, 0
2, 107880, Note_on_c, 0, 63, 66
2, 107880, Note_on_c, 0, 72, 66
2, 107880, Note_on_c, 0, 69, 66
2, 107880, Note_on_c, 0, 66, 66
2, 107940, Note_on_c, 0, 66, 0
2, 107940, Note_on_c, 0, 63, 0
2, 107940, Note_on_c, 0, 72, 0
2, 107940, Note_on_c, 0, 69, 0
2, 108000, Note_on_c, 0, 63, 59
2, 108000, Note_on_c, 0, 66, 59
2, 108000, Note_on_c, 0, 69, 59
2, 108000, Note_on_c, 0, 72, 59
2, 108060, Note_on_c, 0, 72, 0
2, 108060, Note_on_c, 0, 63, 0
2, 108060, Note_on_c, 0, 66, 0
2, 108060, Note_on_c, 0, 69, 0
2, 108120, Note_on_c, 0, 63, 70
2, 108120, Note_on_c, 0, 72, 70
2, 108120, Note_on_c, 0, 69, 70
2, 108120, Note_on_c, 0, 66, 70
2, 108180, Note_on_c, 0, 66, 0
2, 108180, Note_on_c, 0, 63, 0
2, 108180, Note_on_c, 0, 72, 0
2, 108180, Note_on_c, 0, 69, 0
2, 108240, Note_on_c, 0, 63, 61
2, 108240, Note_on_c, 0, 66, 61
2, 108240, Note_on_c, 0, 69, 61
2, 108240, Note_on_c, 0, 72, 61
2, 108300, Note_on_c, 0, 72, 0
2, 108300, Note_on_c, 0, 63, 0
2, 108300, Note_on_c, 0, 66, 0
2, 108300, Note_on_c, 0, 69, 0
2, 108360, Note_on_c, 0, 63, 72
2, 108360, Note_on_c, 0, 72, 72
2, 108360, Note_on_c, 0, 69, 72
2, 108360, Note_on_c, 0, 66, 72
2, 108420, Note_on_c, 0, 66, 0
2, 108420, Note_on_c, 0, 63, 0
2, 108420, Note_on_c, 0, 72, 0
2, 108420, Note_on_c, 0, 69, 0
2, 108480, Note_on_c, 0, 63, 62
2, 108480, Note_on_c, 0, 66, 62
2, 108480, Note_on_c, 0, 69, 62
2, 108480, Note_on_c, 0, 72, 62
2, 108540, Note_on_c, 0, 72, 0
2, 108540, Note_on_c, 0, 63, 0
2, 108540, Note_on_c, 0, 66, 0
2, 108540, Note_on_c, 0, 69, 0
2, 108600, Note_on_c, 0, 63, 74
2, 108600, Note_on_c, 0, 72, 74
2, 108600, Note_on_c, 0, 69, 74
2, 108600, Note_on_c, 0, 66, 74
2, 108660, Note_on_c, 0, 66, 0
2, 108660, Note_on_c, 0, 63, 0
2, 108660, Note_on_c, 0, 72, 0
2, 108660, Note_on_c, 0, 69, 0
2, 108720, Note_on_c, 0, 64, 82
2, 108720, Note_on_c, 0, 68, 82
2, 108720, Note_on_c, 0, 71, 97
2, 108960, Note_on_c, 0, 71, 0
2, 108960, Note_on_c, 0, 68, 0
2, 108960, Note_on_c, 0, 64, 0
2, 108960, Note_on_c, 0, 67, 81
2, 108960, Note_on_c, 0, 73, 96
2, 108960, Note_on_c, 0, 70, 81
2, 109020, Note_on_c, 0, 70, 0
2, 109020, Note_on_c, 0, 73, 0
2, 109020, Note_on_c, 0, 67, 0
2, 109080, Note_on_c, 0, 67, 71
2, 109080, Note_on_c, 0, 70, 71
2, 109080, Note_on_c, 0, 74, 85
2, 109140, Note_on_c, 0, 74, 0
2, 109140, Note_on_c, 0, 70, 0
2, 109140, Note_on_c, 0, 67, 0
2, 109200, Note_on_c, 0, 67, 79
2, 109200, Note_on_c, 0, 76, 94
2, 109200, Note_on_c, 0, 70, 79
2, 109260, Note_on_c, 0, 70, 0
2, 109260, Note_on_c, 0, 76, 0
2, 109260, Note_on_c, 0, 67, 0
2, 109320, Note_on_c, 0, 67, 77
2, 109320, Note_on_c, 0, 78, 90
2, 109320, Note_on_c, 0, 69, 77
2, 109380, Note_on_c, 0, 69, 0
2, 109380, Note_on_c, 0, 78, 0
2, 109380, Note_on_c, 0, 67, 0
2, 109440, Note_on_c, 0, 67, 82
2, 109440, Note_on_c, 0, 70, 82
2, 109440, Note_on_c, 0, 79, 97
2, 109560, Note_on_c, 0, 79, 0
2, 109560, Note_on_c, 0, 70, 0
2, 109560, Note_on_c, 0, 67, 0
2, 109680, Note_on_c, 0, 64, 71
2, 109680, Note_on_c, 0, 70, 84
2, 109680, Note_on_c, 0, 66, 71
2, 110037, Note_on_c, 0, 66, 0
2, 110040, Note_on_c, 0, 70, 0
2, 110040, Note_on_c, 0, 64, 0
2, 110040, Note_on_c, 0, 62, 67
2, 110040, Note_on_c, 0, 71, 79
2, 110040, Note_on_c, 0, 66, 67
2, 110150, Note_on_c, 0, 66, 0
2, 110150, Note_on_c, 0, 71, 0
2, 110150, Note_on_c, 0, 62, 0
2, 110160, Note_on_c, 0, 62, 67
2, 110160, Note_on_c, 0, 66, 67
2, 110160, Note_on_c, 0, 71, 79
2, 110280, Note_on_c, 0, 71, 0
2, 110280, Note_on_c, 0, 66, 0
2, 110280, Note_on_c, 0, 62, 0
2, 110280, Note_on_c, 0, 63, 55
2, 110280, Note_on_c, 0, 72, 55
2, 110280, Note_on_c, 0, 69, 55
2, 110280, Note_on_c, 0, 66, 55
2, 110340, Note_on_c, 0, 66, 0
2, 110340, Note_on_c, 0, 63, 0
2, 110340, Note_on_c, 0, 72, 0
2, 110340, Note_on_c, 0, 69, 0
2, 110400, Note_on_c, 0, 63, 48
2, 110400, Note_on_c, 0, 66, 48
2, 110400, Note_on_c, 0, 69, 48
2, 110400, Note_on_c, 0, 72, 48
2, 110460, Note_on_c, 0, 72, 0
2, 110460, Note_on_c, 0, 63, 0
2, 110460, Note_on_c, 0, 66, 0
2, 110460, Note_on_c, 0, 69, 0
2, 110520, Note_on_c, 0, 63, 59
2, 110520, Note_on_c, 0, 72, 59
2, 110520, Note_on_c, 0, 69, 59
2, 110520, Note_on_c, 0, 66, 59
2, 110580, Note_on_c, 0, 66, 0
2, 110580, Note_on_c, 0, 63, 0
2, 110580, Note_on_c, 0, 72, 0
2, 110580, Note_on_c, 0, 69, 0
2, 110640, Note_on_c, 0, 63, 54
2, 110640, Note_on_c, 0, 66, 54
2, 110640, Note_on_c, 0, 69, 54
2, 110640, Note_on_c, 0, 72, 54
2, 110700, Note_on_c, 0, 72, 0
2, 110700, Note_on_c, 0, 63, 0
2, 110700, Note_on_c, 0, 66, 0
2, 110700, Note_on_c, 0, 69, 0
2, 110760, Note_on_c, 0, 63, 66
2, 110760, Note_on_c, 0, 72, 66
2, 110760, Note_on_c, 0, 69, 66
2, 110760, Note_on_c, 0, 66, 66
2, 110820, Note_on_c, 0, 66, 0
2, 110820, Note_on_c, 0, 63, 0
2, 110820, Note_on_c, 0, 72, 0
2, 110820, Note_on_c, 0, 69, 0
2, 110880, Note_on_c, 0, 63, 59
2, 110880, Note_on_c, 0, 66, 59
2, 110880, Note_on_c, 0, 69, 59
2, 110880, Note_on_c, 0, 72, 59
2, 110940, Note_on_c, 0, 72, 0
2, 110940, Note_on_c, 0, 63, 0
2, 110940, Note_on_c, 0, 66, 0
2, 110940, Note_on_c, 0, 69, 0
2, 111000, Note_on_c, 0, 63, 70
2, 111000, Note_on_c, 0, 72, 70
2, 111000, Note_on_c, 0, 69, 70
2, 111000, Note_on_c, 0, 66, 70
2, 111060, Note_on_c, 0, 66, 0
2, 111060, Note_on_c, 0, 63, 0
2, 111060, Note_on_c, 0, 72, 0
2, 111060, Note_on_c, 0, 69, 0
2, 111120, Note_on_c, 0, 63, 61
2, 111120, Note_on_c, 0, 66, 61
2, 111120, Note_on_c, 0, 69, 61
2, 111120, Note_on_c, 0, 72, 61
2, 111180, Note_on_c, 0, 72, 0
2, 111180, Note_on_c, 0, 63, 0
2, 111180, Note_on_c, 0, 66, 0
2, 111180, Note_on_c, 0, 69, 0
2, 111240, Note_on_c, 0, 63, 73
2, 111240, Note_on_c, 0, 72, 73
2, 111240, Note_on_c, 0, 69, 73
2, 111240, Note_on_c, 0, 66, 73
2, 111300, Note_on_c, 0, 66, 0
2, 111300, Note_on_c, 0, 63, 0
2, 111300, Note_on_c, 0, 72, 0
2, 111300, Note_on_c, 0, 69, 0
2, 111360, Note_on_c, 0, 63, 62
2, 111360, Note_on_c, 0, 66, 62
2, 111360, Note_on_c, 0, 69, 62
2, 111360, Note_on_c, 0, 72, 62
2, 111420, Note_on_c, 0, 72, 0
2, 111420, Note_on_c, 0, 63, 0
2, 111420, Note_on_c, 0, 66, 0
2, 111420, Note_on_c, 0, 69, 0
2, 111480, Note_on_c, 0, 63, 75
2, 111480, Note_on_c, 0, 72, 75
2, 111480, Note_on_c, 0, 69, 75
2, 111480, Note_on_c, 0, 66, 75
2, 111540, Note_on_c, 0, 66, 0
2, 111540, Note_on_c, 0, 63, 0
2, 111540, Note_on_c, 0, 72, 0
2, 111540, Note_on_c, 0, 69, 0
2, 111600, Note_on_c, 0, 64, 82
2, 111600, Note_on_c, 0, 68, 82
2, 111600, Note_on_c, 0, 71, 97
2, 111840, Note_on_c, 0, 71, 0
2, 111840, Note_on_c, 0, 68, 0
2, 111840, Note_on_c, 0, 64, 0
2, 111840, Note_on_c, 0, 67, 81
2, 111840, Note_on_c, 0, 73, 96
2, 111840, Note_on_c, 0, 70, 81
2, 111900, Note_on_c, 0, 70, 0
2, 111900, Note_on_c, 0, 73, 0
2, 111900, Note_on_c, 0, 67, 0
2, 111960, Note_on_c, 0, 67, 71
2, 111960, Note_on_c, 0, 70, 71
2, 111960, Note_on_c, 0, 74, 85
2, 112020, Note_on_c, 0, 74, 0
2, 112020, Note_on_c, 0, 70, 0
2, 112020, Note_on_c, 0, 67, 0
2, 112080, Note_on_c, 0, 67, 79
2, 112080, Note_on_c, 0, 76, 94
2, 112080, Note_on_c, 0, 70, 79
2, 112140, Note_on_c, 0, 70, 0
2, 112140, Note_on_c, 0, 76, 0
2, 112140, Note_on_c, 0, 67, 0
2, 112200, Note_on_c, 0, 67, 77
2, 112200, Note_on_c, 0, 78, 90
2, 112200, Note_on_c, 0, 70, 77
2, 112260, Note_on_c, 0, 70, 0
2, 112260, Note_on_c, 0, 78, 0
2, 112260, Note_on_c, 0, 67, 0
2, 112320, Note_on_c, 0, 67, 82
2, 112320, Note_on_c, 0, 70, 82
2, 112320, Note_on_c, 0, 79, 97
2, 112440, Note_on_c, 0, 79, 0
2, 112440, Note_on_c, 0, 70, 0
2, 112440, Note_on_c, 0, 67, 0
2, 112560, Note_on_c, 0, 64, 71
2, 112560, Note_on_c, 0, 70, 84
2, 112560, Note_on_c, 0, 66, 71
2, 113037, Note_on_c, 0, 66, 0
2, 113040, Note_on_c, 0, 70, 0
2, 113040, Note_on_c, 0, 64, 0
2, 113040, Note_on_c, 0, 62, 80
2, 113040, Note_on_c, 0, 66, 80
2, 113040, Note_on_c, 0, 71, 94
2, 113160, Note_on_c, 0, 71, 0
2, 113160, Note_on_c, 0, 66, 0
2, 113160, Note_on_c, 0, 62, 0
2, 113280, Note_on_c, 0, 67, 81
2, 113280, Note_on_c, 0, 73, 96
2, 113280, Note_on_c, 0, 70, 81
2, 113340, Note_on_c, 0, 70, 0
2, 113340, Note_on_c, 0, 73, 0
2, 113340, Note_on_c, 0, 67, 0
2, 113400, Note_on_c, 0, 67, 71
2, 113400, Note_on_c, 0, 70, 71
2, 113400, Note_on_c, 0, 74, 85
2, 113460, Note_on_c, 0, 74, 0
2, 113460, Note_on_c, 0, 70, 0
2, 113460, Note_on_c, 0, 67, 0
2, 113520, Note_on_c, 0, 67, 79
2, 113520, Note_on_c, 0, 76, 94
2, 113520, Note_on_c, 0, 70, 79
2, 113580, Note_on_c, 0, 70, 0
2, 113580, Note_on_c, 0, 76, 0
2, 113580, Note_on_c, 0, 67, 0
2, 113640, Note_on_c, 0, 67, 77
2, 113640, Note_on_c, 0, 78, 90
2, 113640, Note_on_c, 0, 70, 77
2, 113700, Note_on_c, 0, 70, 0
2, 113700, Note_on_c, 0, 78, 0
2, 113700, Note_on_c, 0, 67, 0
2, 113760, Note_on_c, 0, 67, 82
2, 113760, Note_on_c, 0, 70, 82
2, 113760, Note_on_c, 0, 79, 97
2, 113880, Note_on_c, 0, 79, 0
2, 113880, Note_on_c, 0, 70, 0
2, 113880, Note_on_c, 0, 67, 0
2, 114000, Note_on_c, 0, 64, 81
2, 114000, Note_on_c, 0, 70, 96
2, 114000, Note_on_c, 0, 66, 81
2, 114477, Note_on_c, 0, 66, 0
2, 114480, Note_on_c, 0, 70, 0
2, 114480, Note_on_c, 0, 64, 0
2, 114480, Note_on_c, 0, 62, 92
2, 114480, Note_on_c, 0, 66, 92
2, 114480, Note_on_c, 0, 71, 108
2, 114600, Note_on_c, 0, 71, 0
2, 114600, Note_on_c, 0, 66, 0
2, 114600, Note_on_c, 0, 62, 0
2, 114720, Note_on_c, 0, 67, 89
2, 114720, Note_on_c, 0, 73, 105
2, 114720, Note_on_c, 0, 70, 89
2, 114780, Note_on_c, 0, 70, 0
2, 114780, Note_on_c, 0, 73, 0
2, 114780, Note_on_c, 0, 67, 0
2, 114840, Note_on_c, 0, 67, 78
2, 114840, Note_on_c, 0, 70, 78
2, 114840, Note_on_c, 0, 74, 93
2, 114900, Note_on_c, 0, 74, 0
2, 114900, Note_on_c, 0, 70, 0
2, 114900, Note_on_c, 0, 67, 0
2, 114960, Note_on_c, 0, 67, 86
2, 114960, Note_on_c, 0, 76, 103
2, 114960, Note_on_c, 0, 70, 86
2, 115020, Note_on_c, 0, 70, 0
2, 115020, Note_on_c, 0, 76, 0
2, 115020, Note_on_c, 0, 67, 0
2, 115080, Note_on_c, 0, 67, 83
2, 115080, Note_on_c, 0, 78, 98
2, 115080, Note_on_c, 0, 70, 83
2, 115140, Note_on_c, 0, 70, 0
2, 115140, Note_on_c, 0, 78, 0
2, 115140, Note_on_c, 0, 67, 0
2, 115200, Note_on_c, 0, 73, 90
2, 115200, Note_on_c, 0, 76, 90
2, 115200, Note_on_c, 0, 67, 90
2, 115200, Note_on_c, 0, 70, 90
2, 115200, Note_on_c, 0, 79, 106
2, 115650, Note_on_c, 0, 79, 0
2, 115650, Note_on_c, 0, 67, 0
2, 115650, Note_on_c, 0, 73, 0
2, 115650, Note_on_c, 0, 76, 0
2, 115650, Note_on_c, 0, 70, 0
2, 115680, Note_on_c, 0, 61, 81
2, 115680, Note_on_c, 0, 64, 81
2, 115680, Note_on_c, 0, 66, 81
2, 115680, Note_on_c, 0, 70, 96
2, 115800, Note_on_c, 0, 70, 0
2, 115800, Note_on_c, 0, 61, 0
2, 115800, Note_on_c, 0, 64, 0
2, 115800, Note_on_c, 0, 66, 0
2, 115920, Note_on_c, 0, 59, 92
2, 115920, Note_on_c, 0, 62, 92
2, 115920, Note_on_c, 0, 66, 92
2, 115920, Note_on_c, 0, 71, 108
2, 116040, Note_on_c, 0, 71, 0
2, 116040, Note_on_c, 0, 59, 0
2, 116040, Note_on_c, 0, 62, 0
2, 116040, Note_on_c, 0, 66, 0
2, 118560, Note_on_c, 0, 64, 46
2, 118560, Note_on_c, 0, 67, 55
2, 118620, Note_on_c, 0, 67, 0
2, 118620, Note_on_c, 0, 64, 0
2, 118680, Note_on_c, 0, 64, 39
2, 118680, Note_on_c, 0, 67, 47
2, 118740, Note_on_c, 0, 67, 0
2, 118740, Note_on_c, 0, 64, 0
2, 118800, Note_on_c, 0, 66, 49
2, 118800, Note_on_c, 0, 62, 49
2, 118860, Note_on_c, 0, 62, 0
2, 118860, Note_on_c, 0, 66, 0
2, 118920, Note_on_c, 0, 62, 45
2, 118920, Note_on_c, 0, 66, 45
2, 118980, Note_on_c, 0, 66, 0
2, 118980, Note_on_c, 0, 62, 0
2, 119040, Note_on_c, 0, 70, 62
2, 119040, Note_on_c, 0, 64, 52
2, 119100, Note_on_c, 0, 64, 0
2, 119100, Note_on_c, 0, 70, 0
2, 119160, Note_on_c, 0, 64, 49
2, 119160, Note_on_c, 0, 70, 58
2, 119220, Note_on_c, 0, 70, 0
2, 119220, Note_on_c, 0, 64, 0
2, 119280, Note_on_c, 0, 71, 63
2, 119280, Note_on_c, 0, 66, 53
2, 119340, Note_on_c, 0, 66, 0
2, 119340, Note_on_c, 0, 71, 0
2, 119400, Note_on_c, 0, 71, 61
2, 119400, Note_on_c, 0, 66, 51
2, 119460, Note_on_c, 0, 66, 0
2, 119460, Note_on_c, 0, 71, 0
2, 119520, Note_on_c, 0, 67, 64
2, 119520, Note_on_c, 0, 73, 76
2, 119580, Note_on_c, 0, 73, 0
2, 119580, Note_on_c, 0, 67, 0
2, 119640, Note_on_c, 0, 67, 62
2, 119640, Note_on_c, 0, 73, 73
2, 119700, Note_on_c, 0, 73, 0
2, 119700, Note_on_c, 0, 67, 0
2, 119760, Note_on_c, 0, 74, 79
2, 119760, Note_on_c, 0, 71, 67
2, 119820, Note_on_c, 0, 71, 0
2, 119820, Note_on_c, 0, 74, 0
2, 119880, Note_on_c, 0, 74, 72
2, 119880, Note_on_c, 0, 71, 61
2, 119940, Note_on_c, 0, 71, 0
2, 119940, Note_on_c, 0, 74, 0
2, 120000, Note_on_c, 0, 73, 80
2, 120000, Note_on_c, 0, 67, 68
2, 120060, Note_on_c, 0, 67, 0
2, 120060, Note_on_c, 0, 73, 0
2, 120120, Note_on_c, 0, 67, 58
2, 120120, Note_on_c, 0, 73, 69
2, 120180, Note_on_c, 0, 73, 0
2, 120180, Note_on_c, 0, 67, 0
2, 120240, Note_on_c, 0, 71, 79
2, 120240, Note_on_c, 0, 66, 67
2, 120300, Note_on_c, 0, 66, 0
2, 120300, Note_on_c, 0, 71, 0
2, 120360, Note_on_c, 0, 66, 59
2, 120360, Note_on_c, 0, 71, 70
2, 120420, Note_on_c, 0, 71, 0
2, 120420, Note_on_c, 0, 66, 0
2, 120480, Note_on_c, 0, 69, 73
2, 120480, Note_on_c, 0, 66, 62
2, 120480, Note_on_c, 0, 63, 62
2, 120540, Note_on_c, 0, 63, 0
2, 120540, Note_on_c, 0, 66, 0
2, 120540, Note_on_c, 0, 69, 0
2, 120600, Note_on_c, 0, 69, 61
2, 120600, Note_on_c, 0, 66, 51
2, 120600, Note_on_c, 0, 63, 51
2, 120660, Note_on_c, 0, 63, 0
2, 120660, Note_on_c, 0, 66, 0
2, 120660, Note_on_c, 0, 69, 0
2, 120720, Note_on_c, 0, 68, 71
2, 120720, Note_on_c, 0, 64, 60
2, 120780, Note_on_c, 0, 64, 0
2, 120780, Note_on_c, 0, 68, 0
2, 120840, Note_on_c, 0, 68, 61
2, 120840, Note_on_c, 0, 64, 51
2, 120900, Note_on_c, 0, 64, 0
2, 120900, Note_on_c, 0, 68, 0
2, 120960, Note_on_c, 0, 64, 53
2, 120960, Note_on_c, 0, 67, 63
2, 121020, Note_on_c, 0, 67, 0
2, 121020, Note_on_c, 0, 64, 0
2, 121080, Note_on_c, 0, 67, 58
2, 121080, Note_on_c, 0, 64, 49
2, 121140, Note_on_c, 0, 64, 0
2, 121140, Note_on_c, 0, 67, 0
2, 121200, Note_on_c, 0, 65, 62
2, 121200, Note_on_c, 0, 61, 52
2, 121260, Note_on_c, 0, 61, 0
2, 121260, Note_on_c, 0, 65, 0
2, 121320, Note_on_c, 0, 65, 56
2, 121320, Note_on_c, 0, 61, 47
2, 121380, Note_on_c, 0, 61, 0
2, 121380, Note_on_c, 0, 65, 0
2, 121440, Note_on_c, 0, 66, 62
2, 121440, Note_on_c, 0, 62, 52
2, 121500, Note_on_c, 0, 62, 0
2, 121500, Note_on_c, 0, 66, 0
2, 121560, Note_on_c, 0, 66, 58
2, 121560, Note_on_c, 0, 62, 49
2, 121620, Note_on_c, 0, 62, 0
2, 121620, Note_on_c, 0, 66, 0
2, 121680, Note_on_c, 0, 61, 61
2, 121680, Note_on_c, 0, 58, 51
2, 121740, Note_on_c, 0, 58, 0
2, 121740, Note_on_c, 0, 61, 0
2, 121800, Note_on_c, 0, 61, 50
2, 121800, Note_on_c, 0, 58, 42
2, 121860, Note_on_c, 0, 58, 0
2, 121860, Note_on_c, 0, 61, 0
2, 121920, Note_on_c, 0, 62, 57
2, 121920, Note_on_c, 0, 59, 48
2, 121980, Note_on_c, 0, 59, 0
2, 121980, Note_on_c, 0, 62, 0
2, 122040, Note_on_c, 0, 62, 45
2, 122040, Note_on_c, 0, 59, 38
2, 122100, Note_on_c, 0, 59, 0
2, 122100, Note_on_c, 0, 62, 0
2, 122160, Note_on_c, 0, 59, 43
2, 122160, Note_on_c, 0, 62, 51
2, 122220, Note_on_c, 0, 62, 0
2, 122220, Note_on_c, 0, 59, 0
2, 122280, Note_on_c, 0, 62, 40
2, 122280, Note_on_c, 0, 59, 34
2, 122340, Note_on_c, 0, 59, 0
2, 122340, Note_on_c, 0, 62, 0
2, 122400, Note_on_c, 0, 59, 50
2, 122400, Note_on_c, 0, 54, 42
2, 122460, Note_on_c, 0, 54, 0
2, 122460, Note_on_c, 0, 59, 0
2, 122520, Note_on_c, 0, 54, 36
2, 122520, Note_on_c, 0, 59, 43
2, 122580, Note_on_c, 0, 59, 0
2, 122580, Note_on_c, 0, 54, 0
2, 122640, Note_on_c, 0, 59, 50
2, 122640, Note_on_c, 0, 54, 42
2, 122700, Note_on_c, 0, 54, 0
2, 122700, Note_on_c, 0, 59, 0
2, 122760, Note_on_c, 0, 54, 35
2, 122760, Note_on_c, 0, 59, 42
2, 122820, Note_on_c, 0, 59, 0
2, 122820, Note_on_c, 0, 54, 0
2, 122880, Note_on_c, 0, 66, 50
2, 123000, Note_on_c, 0, 66, 0
2, 123120, Note_on_c, 0, 66, 56
2, 123360, Note_on_c, 0, 66, 0
2, 123360, Note_on_c, 0, 68, 63
2, 123420, Note_on_c, 0, 68, 0
2, 123480, Note_on_c, 0, 70, 69
2, 123540, Note_on_c, 0, 70, 0
2, 123600, Note_on_c, 0, 71, 80
2, 123660, Note_on_c, 0, 71, 0
2, 123720, Note_on_c, 0, 73, 91
2, 123780, Note_on_c, 0, 73, 0
2, 123840, Note_on_c, 0, 74, 101
2, 128160, Note_on_c, 0, 74, 0
2, 128160, End_track
3, 0, Start_track
3, 0, Title_t, "Piano left"
3, 0, Program_c, 0, 0
3, 0, Note_on_c, 0, 54, 43
3, 60, Note_on_c, 0, 54, 0
3, 120, Note_on_c, 0, 54, 39
3, 180, Note_on_c, 0, 54, 0
3, 240, Note_on_c, 0, 54, 40
3, 300, Note_on_c, 0, 54, 0
3, 360, Note_on_c, 0, 54, 37
3, 420, Note_on_c, 0, 54, 0
3, 480, Note_on_c, 0, 54, 40
3, 540, Note_on_c, 0, 54, 0
3, 600, Note_on_c, 0, 54, 37
3, 660, Note_on_c, 0, 54, 0
3, 720, Note_on_c, 0, 54, 36
3, 720, Note_on_c, 0, 64, 40
3, 720, Note_on_c, 0, 61, 32
3, 780, Note_on_c, 0, 61, 0
3, 780, Note_on_c, 0, 64, 0
3, 780, Note_on_c, 0, 54, 0
3, 840, Note_on_c, 0, 54, 29
3, 840, Note_on_c, 0, 61, 29
3, 840, Note_on_c, 0, 64, 37
3, 900, Note_on_c, 0, 64, 0
3, 900, Note_on_c, 0, 61, 0
3, 900, Note_on_c, 0, 54, 0
3, 960, Note_on_c, 0, 64, 40
3, 960, Note_on_c, 0, 61, 32
3, 960, Note_on_c, 0, 54, 32
3, 1020, Note_on_c, 0, 54, 0
3, 1020, Note_on_c, 0, 61, 0
3, 1020, Note_on_c, 0, 64, 0
3, 1080, Note_on_c, 0, 54, 29
3, 1080, Note_on_c, 0, 61, 29
3, 1080, Note_on_c, 0, 64, 37
3, 1140, Note_on_c, 0, 64, 0
3, 1140, Note_on_c, 0, 61, 0
3, 1140, Note_on_c, 0, 54, 0
3, 1200, Note_on_c, 0, 64, 40
3, 1200, Note_on_c, 0, 61, 32
3, 1200, Note_on_c, 0, 54, 32
3, 1260, Note_on_c, 0, 54, 0
3, 1260, Note_on_c, 0, 61, 0
3, 1260, Note_on_c, 0, 64, 0
3, 1320, Note_on_c, 0, 54, 30
3, 1320, Note_on_c, 0, 61, 30
3, 1320, Note_on_c, 0, 64, 38
3, 1380, Note_on_c, 0, 64, 0
3, 1380, Note_on_c, 0, 61, 0
3, 1380, Note_on_c, 0, 54, 0
3, 1440, Note_on_c, 0, 46, 40
3, 1500, Note_on_c, 0, 46, 0
3, 1560, Note_on_c, 0, 54, 33
3, 1560, Note_on_c, 0, 61, 33
3, 1560, Note_on_c, 0, 64, 43
3, 1620, Note_on_c, 0, 64, 0
3, 1620, Note_on_c, 0, 61, 0
3, 1620, Note_on_c, 0, 54, 0
3, 1680, Note_on_c, 0, 54, 37
3, 1680, Note_on_c, 0, 61, 37
3, 1680, Note_on_c, 0, 64, 47
3, 1740, Note_on_c, 0, 64, 0
3, 1740, Note_on_c, 0, 61, 0
3, 1740, Note_on_c, 0, 54, 0
3, 1800, Note_on_c, 0, 54, 39
3, 1800, Note_on_c, 0, 61, 39
3, 1800, Note_on_c, 0, 64, 50
3, 1860, Note_on_c, 0, 64, 0
3, 1860, Note_on_c, 0, 61, 0
3, 1860, Note_on_c, 0, 54, 0
3, 1920, Note_on_c, 0, 54, 42
3, 1920, Note_on_c, 0, 61, 42
3, 1920, Note_on_c, 0, 64, 53
3, 1980, Note_on_c, 0, 64, 0
3, 1980, Note_on_c, 0, 61, 0
3, 1980, Note_on_c, 0, 54, 0
3, 2040, Note_on_c, 0, 54, 46
3, 2040, Note_on_c, 0, 61, 46
3, 2040, Note_on_c, 0, 64, 57
3, 2100, Note_on_c, 0, 64, 0
3, 2100, Note_on_c, 0, 61, 0
3, 2100, Note_on_c, 0, 54, 0
3, 2160, Note_on_c, 0, 47, 60
3, 2220, Note_on_c, 0, 47, 0
3, 2280, Note_on_c, 0, 62, 43
3, 2280, Note_on_c, 0, 59, 34
3, 2280, Note_on_c, 0, 54, 34
3, 2340, Note_on_c, 0, 54, 0
3, 2340, Note_on_c, 0, 59, 0
3, 2340, Note_on_c, 0, 62, 0
3, 2400, Note_on_c, 0, 54, 41
3, 2400, Note_on_c, 0, 59, 41
3, 2400, Note_on_c, 0, 62, 52
3, 2460, Note_on_c, 0, 62, 0
3, 2460, Note_on_c, 0, 59, 0
3, 2460, Note_on_c, 0, 54, 0
3, 2520, Note_on_c, 0, 54, 39
3, 2520, Note_on_c, 0, 59, 39
3, 2520, Note_on_c, 0, 62, 49
3, 2580, Note_on_c, 0, 62, 0
3, 2580, Note_on_c, 0, 59, 0
3, 2580, Note_on_c, 0, 54, 0
3, 2640, Note_on_c, 0, 62, 56
3, 2640, Note_on_c, 0, 59, 44
3, 2640, Note_on_c, 0, 54, 44
3, 2700, Note_on_c, 0, 54, 0
3, 2700, Note_on_c, 0, 59, 0
3, 2700, Note_on_c, 0, 62, 0
3, 2760, Note_on_c, 0, 54, 42
3, 2760, Note_on_c, 0, 59, 42
3, 2760, Note_on_c, 0, 62, 54
3, 2820, Note_on_c, 0, 62, 0
3, 2820, Note_on_c, 0, 59, 0
3, 2820, Note_on_c, 0, 54, 0
3, 2880, Note_on_c, 0, 43, 67
3, 2940, Note_on_c, 0, 43, 0
3, 3000, Note_on_c, 0, 64, 49
3, 3000, Note_on_c, 0, 59, 39
3, 3000, Note_on_c, 0, 55, 39
3, 3060, Note_on_c, 0, 55, 0
3, 3060, Note_on_c, 0, 59, 0
3, 3060, Note_on_c, 0, 64, 0
3, 3120, Note_on_c, 0, 55, 44
3, 3120, Note_on_c, 0, 59, 44
3, 3120, Note_on_c, 0, 64, 55
3, 3180, Note_on_c, 0, 64, 0
3, 3180, Note_on_c, 0, 59, 0
3, 3180, Note_on_c, 0, 55, 0
3, 3240, Note_on_c, 0, 55, 42
3, 3240, Note_on_c, 0, 59, 42
3, 3240, Note_on_c, 0, 64, 52
3, 3300, Note_on_c, 0, 64, 0
3, 3300, Note_on_c, 0, 59, 0
3, 3300, Note_on_c, 0, 55, 0
3, 3360, Note_on_c, 0, 55, 46
3, 3360, Note_on_c, 0, 59, 46
3, 3360, Note_on_c, 0, 64, 57
3, 3420, Note_on_c, 0, 64, 0
3, 3420, Note_on_c, 0, 59, 0
3, 3420, Note_on_c, 0, 55, 0
3, 3480, Note_on_c, 0, 55, 52
3, 3480, Note_on_c, 0, 59, 52
3, 3480, Note_on_c, 0, 64, 66
3, 3540, Note_on_c, 0, 64, 0
3, 3540, Note_on_c, 0, 59, 0
3, 3540, Note_on_c, 0, 55, 0
3, 3600, Note_on_c, 0, 42, 73
3, 3660, Note_on_c, 0, 42, 0
3, 3720, Note_on_c, 0, 64, 61
3, 3720, Note_on_c, 0, 58, 48
3, 3720, Note_on_c, 0, 54, 48
3, 3780, Note_on_c, 0, 54, 0
3, 3780, Note_on_c, 0, 58, 0
3, 3780, Note_on_c, 0, 64, 0
3, 3840, Note_on_c, 0, 64, 66
3, 3840, Note_on_c, 0, 58, 52
3, 3840, Note_on_c, 0, 54, 52
3, 3900, Note_on_c, 0, 54, 0
3, 3900, Note_on_c, 0, 58, 0
3, 3900, Note_on_c, 0, 64, 0
3, 3960, Note_on_c, 0, 64, 70
3, 3960, Note_on_c, 0, 58, 56
3, 3960, Note_on_c, 0, 54, 56
3, 4020, Note_on_c, 0, 54, 0
3, 4020, Note_on_c, 0, 58, 0
3, 4020, Note_on_c, 0, 64, 0
3, 4080, Note_on_c, 0, 64, 72
3, 4080, Note_on_c, 0, 58, 57
3, 4080, Note_on_c, 0, 54, 57
3, 4140, Note_on_c, 0, 54, 0
3, 4140, Note_on_c, 0, 58, 0
3, 4140, Note_on_c, 0, 64, 0
3, 4200, Note_on_c, 0, 54, 48
3, 4200, Note_on_c, 0, 58, 48
3, 4200, Note_on_c, 0, 64, 60
3, 4260, Note_on_c, 0, 64, 0
3, 4260, Note_on_c, 0, 58, 0
3, 4260, Note_on_c, 0, 54, 0
3, 4320, Note_on_c, 0, 46, 78
3, 4380, Note_on_c, 0, 46, 0
3, 4440, Note_on_c, 0, 66, 61
3, 4440, Note_on_c, 0, 54, 48
3, 4440, Note_on_c, 0, 61, 48
3, 4440, Note_on_c, 0, 64, 51
3, 4500, Note_on_c, 0, 64, 0
3, 4500, Note_on_c, 0, 66, 0
3, 4500, Note_on_c, 0, 54, 0
3, 4500, Note_on_c, 0, 61, 0
3, 4560, Note_on_c, 0, 66, 57
3, 4560, Note_on_c, 0, 64, 48
3, 4560, Note_on_c, 0, 61, 45
3, 4560, Note_on_c, 0, 54, 45
3, 4620, Note_on_c, 0, 54, 0
3, 4620, Note_on_c, 0, 66, 0
3, 4620, Note_on_c, 0, 64, 0
3, 4620, Note_on_c, 0, 61, 0
3, 4680, Note_on_c, 0, 66, 63
3, 4680, Note_on_c, 0, 54, 50
3, 4680, Note_on_c, 0, 61, 50
3, 4680, Note_on_c, 0, 64, 53
3, 4740, Note_on_c, 0, 64, 0
3, 4740, Note_on_c, 0, 66, 0
3, 4740, Note_on_c, 0, 54, 0
3, 4740, Note_on_c, 0, 61, 0
3, 4800, Note_on_c, 0, 66, 64
3, 4800, Note_on_c, 0, 54, 51
3, 4800, Note_on_c, 0, 61, 51
3, 4800, Note_on_c, 0, 64, 54
3, 4860, Note_on_c, 0, 64, 0
3, 4860, Note_on_c, 0, 66, 0
3, 4860, Note_on_c, 0, 54, 0
3, 4860, Note_on_c, 0, 61, 0
3, 4920, Note_on_c, 0, 66, 68
3, 4920, Note_on_c, 0, 54, 54
3, 4920, Note_on_c, 0, 61, 54
3, 4920, Note_on_c, 0, 64, 57
3, 4980, Note_on_c, 0, 64, 0
3, 4980, Note_on_c, 0, 66, 0
3, 4980, Note_on_c, 0, 54, 0
3, 4980, Note_on_c, 0, 61, 0
3, 5040, Note_on_c, 0, 47, 75
3, 5100, Note_on_c, 0, 47, 0
3, 5160, Note_on_c, 0, 66, 60
3, 5160, Note_on_c, 0, 62, 51
3, 5160, Note_on_c, 0, 59, 48
3, 5160, Note_on_c, 0, 54, 48
3, 5220, Note_on_c, 0, 54, 0
3, 5220, Note_on_c, 0, 66, 0
3, 5220, Note_on_c, 0, 62, 0
3, 5220, Note_on_c, 0, 59, 0
3, 5280, Note_on_c, 0, 66, 60
3, 5280, Note_on_c, 0, 62, 51
3, 5280, Note_on_c, 0, 59, 48
3, 5280, Note_on_c, 0, 54, 48
3, 5340, Note_on_c, 0, 54, 0
3, 5340, Note_on_c, 0, 66, 0
3, 5340, Note_on_c, 0, 62, 0
3, 5340, Note_on_c, 0, 59, 0
3, 5400, Note_on_c, 0, 66, 56
3, 5400, Note_on_c, 0, 62, 47
3, 5400, Note_on_c, 0, 59, 44
3, 5400, Note_on_c, 0, 54, 44
3, 5460, Note_on_c, 0, 54, 0
3, 5460, Note_on_c, 0, 66, 0
3, 5460, Note_on_c, 0, 62, 0
3, 5460, Note_on_c, 0, 59, 0
3, 5520, Note_on_c, 0, 66, 63
3, 5520, Note_on_c, 0, 62, 53
3, 5520, Note_on_c, 0, 59, 50
3, 5520, Note_on_c, 0, 54, 50
3, 5580, Note_on_c, 0, 54, 0
3, 5580, Note_on_c, 0, 66, 0
3, 5580, Note_on_c, 0, 62, 0
3, 5580, Note_on_c, 0, 59, 0
3, 5640, Note_on_c, 0, 66, 58
3, 5640, Note_on_c, 0, 62, 49
3, 5640, Note_on_c, 0, 59, 46
3, 5640, Note_on_c, 0, 54, 46
3, 5700, Note_on_c, 0, 54, 0
3, 5700, Note_on_c, 0, 66, 0
3, 5700, Note_on_c, 0, 62, 0
3, 5700, Note_on_c, 0, 59, 0
3, 5760, Note_on_c, 0, 49, 75
3, 5880, Note_on_c, 0, 49, 0
3, 5880, Note_on_c, 0, 53, 43
3, 5880, Note_on_c, 0, 59, 43
3, 5880, Note_on_c, 0, 61, 55
3, 5940, Note_on_c, 0, 61, 0
3, 5940, Note_on_c, 0, 59, 0
3, 5940, Note_on_c, 0, 53, 0
3, 6000, Note_on_c, 0, 53, 48
3, 6000, Note_on_c, 0, 59, 48
3, 6000, Note_on_c, 0, 61, 61
3, 6060, Note_on_c, 0, 61, 0
3, 6060, Note_on_c, 0, 59, 0
3, 6060, Note_on_c, 0, 53, 0
3, 6120, Note_on_c, 0, 61, 53
3, 6120, Note_on_c, 0, 59, 42
3, 6120, Note_on_c, 0, 53, 42
3, 6180, Note_on_c, 0, 53, 0
3, 6180, Note_on_c, 0, 59, 0
3, 6180, Note_on_c, 0, 61, 0
3, 6240, Note_on_c, 0, 61, 62
3, 6240, Note_on_c, 0, 59, 49
3, 6240, Note_on_c, 0, 54, 49
3, 6300, Note_on_c, 0, 54, 0
3, 6300, Note_on_c, 0, 59, 0
3, 6300, Note_on_c, 0, 61, 0
3, 6360, Note_on_c, 0, 61, 56
3, 6360, Note_on_c, 0, 59, 45
3, 6360, Note_on_c, 0, 56, 56
3, 6420, Note_on_c, 0, 56, 0
3, 6420, Note_on_c, 0, 59, 0
3, 6420, Note_on_c, 0, 61, 0
3, 6480, Note_on_c, 0, 54, 52
3, 6480, Note_on_c, 0, 58, 52
3, 6480, Note_on_c, 0, 61, 67
3, 6540, Note_on_c, 0, 61, 0
3, 6540, Note_on_c, 0, 58, 0
3, 6540, Note_on_c, 0, 54, 0
3, 6600, Note_on_c, 0, 54, 38
3, 6600, Note_on_c, 0, 58, 38
3, 6600, Note_on_c, 0, 61, 49
3, 6660, Note_on_c, 0, 61, 0
3, 6660, Note_on_c, 0, 58, 0
3, 6660, Note_on_c, 0, 54, 0
3, 6720, Note_on_c, 0, 54, 42
3, 6720, Note_on_c, 0, 58, 42
3, 6720, Note_on_c, 0, 61, 52
3, 6780, Note_on_c, 0, 61, 0
3, 6780, Note_on_c, 0, 58, 0
3, 6780, Note_on_c, 0, 54, 0
3, 6840, Note_on_c, 0, 61, 41
3, 6840, Note_on_c, 0, 58, 32
3, 6840, Note_on_c, 0, 54, 32
3, 6900, Note_on_c, 0, 54, 0
3, 6900, Note_on_c, 0, 58, 0
3, 6900, Note_on_c, 0, 61, 0
3, 6960, Note_on_c, 0, 54, 36
3, 6960, Note_on_c, 0, 58, 36
3, 6960, Note_on_c, 0, 61, 46
3, 7020, Note_on_c, 0, 61, 0
3, 7020, Note_on_c, 0, 58, 0
3, 7020, Note_on_c, 0, 54, 0
3, 7080, Note_on_c, 0, 61, 40
3, 7080, Note_on_c, 0, 58, 32
3, 7080, Note_on_c, 0, 54, 32
3, 7140, Note_on_c, 0, 54, 0
3, 7140, Note_on_c, 0, 58, 0
3, 7140, Note_on_c, 0, 61, 0
3, 7200, Note_on_c, 0, 46, 40
3, 7260, Note_on_c, 0, 46, 0
3, 7320, Note_on_c, 0, 54, 33
3, 7320, Note_on_c, 0, 61, 33
3, 7320, Note_on_c, 0, 64, 43
3, 7380, Note_on_c, 0, 64, 0
3, 7380, Note_on_c, 0, 61, 0
3, 7380, Note_on_c, 0, 54, 0
3, 7440, Note_on_c, 0, 54, 37
3, 7440, Note_on_c, 0, 61, 37
3, 7440, Note_on_c, 0, 64, 47
3, 7500, Note_on_c, 0, 64, 0
3, 7500, Note_on_c, 0, 61, 0
3, 7500, Note_on_c, 0, 54, 0
3, 7560, Note_on_c, 0, 54, 39
3, 7560, Note_on_c, 0, 61, 39
3, 7560, Note_on_c, 0, 64, 50
3, 7620, Note_on_c, 0, 64, 0
3, 7620, Note_on_c, 0, 61, 0
3, 7620, Note_on_c, 0, 54, 0
3, 7680, Note_on_c, 0, 54, 42
3, 7680, Note_on_c, 0, 61, 42
3, 7680, Note_on_c, 0, 64, 53
3, 7740, Note_on_c, 0, 64, 0
3, 7740, Note_on_c, 0, 61, 0
3, 7740, Note_on_c, 0, 54, 0
3, 7800, Note_on_c, 0, 54, 46
3, 7800, Note_on_c, 0, 61, 46
3, 7800, Note_on_c, 0, 64, 57
3, 7860, Note_on_c, 0, 64, 0
3, 7860, Note_on_c, 0, 61, 0
3, 7860, Note_on_c, 0, 54, 0
3, 7920, Note_on_c, 0, 47, 60
3, 7980, Note_on_c, 0, 47, 0
3, 8040, Note_on_c, 0, 62, 43
3, 8040, Note_on_c, 0, 59, 34
3, 8040, Note_on_c, 0, 54, 34
3, 8100, Note_on_c, 0, 54, 0
3, 8100, Note_on_c, 0, 59, 0
3, 8100, Note_on_c, 0, 62, 0
3, 8160, Note_on_c, 0, 54, 41
3, 8160, Note_on_c, 0, 59, 41
3, 8160, Note_on_c, 0, 62, 52
3, 8220, Note_on_c, 0, 62, 0
3, 8220, Note_on_c, 0, 59, 0
3, 8220, Note_on_c, 0, 54, 0
3, 8280, Note_on_c, 0, 54, 39
3, 8280, Note_on_c, 0, 59, 39
3, 8280, Note_on_c, 0, 62, 49
3, 8340, Note_on_c, 0, 62, 0
3, 8340, Note_on_c, 0, 59, 0
3, 8340, Note_on_c, 0, 54, 0
3, 8400, Note_on_c, 0, 62, 57
3, 8400, Note_on_c, 0, 59, 44
3, 8400, Note_on_c, 0, 54, 44
3, 8460, Note_on_c, 0, 54, 0
3, 8460, Note_on_c, 0, 59, 0
3, 8460, Note_on_c, 0, 62, 0
3, 8520, Note_on_c, 0, 54, 42
3, 8520, Note_on_c, 0, 59, 42
3, 8520, Note_on_c, 0, 62, 55
3, 8580, Note_on_c, 0, 62, 0
3, 8580, Note_on_c, 0, 59, 0
3, 8580, Note_on_c, 0, 54, 0
3, 8640, Note_on_c, 0, 47, 69
3, 8700, Note_on_c, 0, 47, 0
3, 8760, Note_on_c, 0, 65, 50
3, 8760, Note_on_c, 0, 61, 40
3, 8760, Note_on_c, 0, 56, 40
3, 8820, Note_on_c, 0, 56, 0
3, 8820, Note_on_c, 0, 61, 0
3, 8820, Note_on_c, 0, 65, 0
3, 8880, Note_on_c, 0, 56, 45
3, 8880, Note_on_c, 0, 61, 45
3, 8880, Note_on_c, 0, 65, 56
3, 8940, Note_on_c, 0, 65, 0
3, 8940, Note_on_c, 0, 61, 0
3, 8940, Note_on_c, 0, 56, 0
3, 9000, Note_on_c, 0, 56, 43
3, 9000, Note_on_c, 0, 61, 43
3, 9000, Note_on_c, 0, 65, 54
3, 9060, Note_on_c, 0, 65, 0
3, 9060, Note_on_c, 0, 61, 0
3, 9060, Note_on_c, 0, 56, 0
3, 9120, Note_on_c, 0, 56, 47
3, 9120, Note_on_c, 0, 61, 47
3, 9120, Note_on_c, 0, 65, 59
3, 9180, Note_on_c, 0, 65, 0
3, 9180, Note_on_c, 0, 61, 0
3, 9180, Note_on_c, 0, 56, 0
3, 9240, Note_on_c, 0, 56, 54
3, 9240, Note_on_c, 0, 61, 54
3, 9240, Note_on_c, 0, 65, 68
3, 9300, Note_on_c, 0, 65, 0
3, 9300, Note_on_c, 0, 61, 0
3, 9300, Note_on_c, 0, 56, 0
3, 9360, Note_on_c, 0, 45, 73
3, 9420, Note_on_c, 0, 45, 0
3, 9480, Note_on_c, 0, 66, 61
3, 9480, Note_on_c, 0, 61, 51
3, 9480, Note_on_c, 0, 57, 48
3, 9480, Note_on_c, 0, 54, 48
3, 9540, Note_on_c, 0, 54, 0
3, 9540, Note_on_c, 0, 66, 0
3, 9540, Note_on_c, 0, 61, 0
3, 9540, Note_on_c, 0, 57, 0
3, 9600, Note_on_c, 0, 66, 66
3, 9600, Note_on_c, 0, 61, 56
3, 9600, Note_on_c, 0, 57, 52
3, 9600, Note_on_c, 0, 54, 52
3, 9660, Note_on_c, 0, 54, 0
3, 9660, Note_on_c, 0, 66, 0
3, 9660, Note_on_c, 0, 61, 0
3, 9660, Note_on_c, 0, 57, 0
3, 9720, Note_on_c, 0, 66, 70
3, 9720, Note_on_c, 0, 61, 59
3, 9720, Note_on_c, 0, 57, 56
3, 9720, Note_on_c, 0, 54, 56
3, 9780, Note_on_c, 0, 54, 0
3, 9780, Note_on_c, 0, 66, 0
3, 9780, Note_on_c, 0, 61, 0
3, 9780, Note_on_c, 0, 57, 0
3, 9840, Note_on_c, 0, 66, 72
3, 9840, Note_on_c, 0, 61, 61
3, 9840, Note_on_c, 0, 57, 57
3, 9840, Note_on_c, 0, 54, 57
3, 9900, Note_on_c, 0, 54, 0
3, 9900, Note_on_c, 0, 66, 0
3, 9900, Note_on_c, 0, 61, 0
3, 9900, Note_on_c, 0, 57, 0
3, 9960, Note_on_c, 0, 66, 60
3, 9960, Note_on_c, 0, 54, 48
3, 9960, Note_on_c, 0, 57, 48
3, 9960, Note_on_c, 0, 61, 51
3, 10020, Note_on_c, 0, 61, 0
3, 10020, Note_on_c, 0, 66, 0
3, 10020, Note_on_c, 0, 54, 0
3, 10020, Note_on_c, 0, 57, 0
3, 10080, Note_on_c, 0, 47, 78
3, 10140, Note_on_c, 0, 47, 0
3, 10200, Note_on_c, 0, 54, 48
3, 10200, Note_on_c, 0, 56, 48
3, 10200, Note_on_c, 0, 62, 61
3, 10260, Note_on_c, 0, 62, 0
3, 10260, Note_on_c, 0, 56, 0
3, 10260, Note_on_c, 0, 54, 0
3, 10320, Note_on_c, 0, 62, 57
3, 10320, Note_on_c, 0, 56, 45
3, 10320, Note_on_c, 0, 54, 45
3, 10380, Note_on_c, 0, 54, 0
3, 10380, Note_on_c, 0, 56, 0
3, 10380, Note_on_c, 0, 62, 0
3, 10440, Note_on_c, 0, 54, 50
3, 10440, Note_on_c, 0, 56, 50
3, 10440, Note_on_c, 0, 62, 63
3, 10500, Note_on_c, 0, 62, 0
3, 10500, Note_on_c, 0, 56, 0
3, 10500, Note_on_c, 0, 54, 0
3, 10560, Note_on_c, 0, 54, 51
3, 10560, Note_on_c, 0, 56, 51
3, 10560, Note_on_c, 0, 62, 64
3, 10620, Note_on_c, 0, 62, 0
3, 10620, Note_on_c, 0, 56, 0
3, 10620, Note_on_c, 0, 54, 0
3, 10680, Note_on_c, 0, 54, 54
3, 10680, Note_on_c, 0, 56, 54
3, 10680, Note_on_c, 0, 62, 68
3, 10740, Note_on_c, 0, 62, 0
3, 10740, Note_on_c, 0, 56, 0
3, 10740, Note_on_c, 0, 54, 0
3, 10800, Note_on_c, 0, 49, 73
3, 10860, Note_on_c, 0, 49, 0
3, 10920, Note_on_c, 0, 66, 61
3, 10920, Note_on_c, 0, 61, 51
3, 10920, Note_on_c, 0, 57, 48
3, 10920, Note_on_c, 0, 54, 48
3, 10980, Note_on_c, 0, 54, 0
3, 10980, Note_on_c, 0, 66, 0
3, 10980, Note_on_c, 0, 61, 0
3, 10980, Note_on_c, 0, 57, 0
3, 11040, Note_on_c, 0, 66, 66
3, 11040, Note_on_c, 0, 61, 56
3, 11040, Note_on_c, 0, 57, 52
3, 11040, Note_on_c, 0, 54, 52
3, 11100, Note_on_c, 0, 54, 0
3, 11100, Note_on_c, 0, 66, 0
3, 11100, Note_on_c, 0, 61, 0
3, 11100, Note_on_c, 0, 57, 0
3, 11160, Note_on_c, 0, 66, 70
3, 11160, Note_on_c, 0, 61, 59
3, 11160, Note_on_c, 0, 57, 56
3, 11160, Note_on_c, 0, 54, 56
3, 11220, Note_on_c, 0, 54, 0
3, 11220, Note_on_c, 0, 66, 0
3, 11220, Note_on_c, 0, 61, 0
3, 11220, Note_on_c, 0, 57, 0
3, 11280, Note_on_c, 0, 66, 72
3, 11280, Note_on_c, 0, 61, 61
3, 11280, Note_on_c, 0, 57, 57
3, 11280, Note_on_c, 0, 54, 57
3, 11340, Note_on_c, 0, 54, 0
3, 11340, Note_on_c, 0, 66, 0
3, 11340, Note_on_c, 0, 61, 0
3, 11340, Note_on_c, 0, 57, 0
3, 11400, Note_on_c, 0, 66, 60
3, 11400, Note_on_c, 0, 54, 48
3, 11400, Note_on_c, 0, 57, 48
3, 11400, Note_on_c, 0, 61, 51
3, 11460, Note_on_c, 0, 61, 0
3, 11460, Note_on_c, 0, 66, 0
3, 11460, Note_on_c, 0, 54, 0
3, 11460, Note_on_c, 0, 57, 0
3, 11520, Note_on_c, 0, 47, 78
3, 11580, Note_on_c, 0, 47, 0
3, 11640, Note_on_c, 0, 54, 48
3, 11640, Note_on_c, 0, 56, 48
3, 11640, Note_on_c, 0, 62, 61
3, 11700, Note_on_c, 0, 62, 0
3, 11700, Note_on_c, 0, 56, 0
3, 11700, Note_on_c, 0, 54, 0
3, 11760, Note_on_c, 0, 62, 57
3, 11760, Note_on_c, 0, 56, 45
3, 11760, Note_on_c, 0, 54, 45
3, 11820, Note_on_c, 0, 54, 0
3, 11820, Note_on_c, 0, 56, 0
3, 11820, Note_on_c, 0, 62, 0
3, 11880, Note_on_c, 0, 54, 50
3, 11880, Note_on_c, 0, 56, 50
3, 11880, Note_on_c, 0, 62, 63
3, 11940, Note_on_c, 0, 62, 0
3, 11940, Note_on_c, 0, 56, 0
3, 11940, Note_on_c, 0, 54, 0
3, 12000, Note_on_c, 0, 54, 51
3, 12000, Note_on_c, 0, 56, 51
3, 12000, Note_on_c, 0, 62, 64
3, 12060, Note_on_c, 0, 62, 0
3, 12060, Note_on_c, 0, 56, 0
3, 12060, Note_on_c, 0, 54, 0
3, 12120, Note_on_c, 0, 54, 54
3, 12120, Note_on_c, 0, 56, 54
3, 12120, Note_on_c, 0, 62, 68
3, 12180, Note_on_c, 0, 62, 0
3, 12180, Note_on_c, 0, 56, 0
3, 12180, Note_on_c, 0, 54, 0
3, 12240, Note_on_c, 0, 49, 48
3, 12240, Note_on_c, 0, 54, 48
3, 12240, Note_on_c, 0, 57, 61
3, 12300, Note_on_c, 0, 57, 0
3, 12300, Note_on_c, 0, 54, 0
3, 12300, Note_on_c, 0, 49, 0
3, 12360, Note_on_c, 0, 57, 57
3, 12360, Note_on_c, 0, 54, 45
3, 12360, Note_on_c, 0, 49, 45
3, 12420, Note_on_c, 0, 49, 0
3, 12420, Note_on_c, 0, 54, 0
3, 12420, Note_on_c, 0, 57, 0
3, 12480, Note_on_c, 0, 49, 50
3, 12480, Note_on_c, 0, 54, 50
3, 12480, Note_on_c, 0, 57, 63
3, 12540, Note_on_c, 0, 57, 0
3, 12540, Note_on_c, 0, 54, 0
3, 12540, Note_on_c, 0, 49, 0
3, 12960, Note_on_c, 0, 59, 63
3, 12960, Note_on_c, 0, 49, 55
3, 13020, Note_on_c, 0, 49, 0
3, 13020, Note_on_c, 0, 59, 0
3, 13080, Note_on_c, 0, 49, 49
3, 13080, Note_on_c, 0, 59, 56
3, 13140, Note_on_c, 0, 59, 0
3, 13140, Note_on_c, 0, 49, 0
3, 13200, Note_on_c, 0, 49, 49
3, 13200, Note_on_c, 0, 59, 56
3, 13440, Note_on_c, 0, 59, 0
3, 13440, Note_on_c, 0, 49, 0
3, 13680, Note_on_c, 0, 61, 66
3, 13680, Note_on_c, 0, 49, 58
3, 13740, Note_on_c, 0, 49, 0
3, 13740, Note_on_c, 0, 61, 0
3, 13800, Note_on_c, 0, 49, 49
3, 13800, Note_on_c, 0, 61, 56
3, 13860, Note_on_c, 0, 61, 0
3, 13860, Note_on_c, 0, 49, 0
3, 13920, Note_on_c, 0, 61, 60
3, 13920, Note_on_c, 0, 49, 53
3, 14160, Note_on_c, 0, 49, 0
3, 14160, Note_on_c, 0, 61, 0
3, 14400, Note_on_c, 0, 62, 67
3, 14400, Note_on_c, 0, 49, 59
3, 14460, Note_on_c, 0, 49, 0
3, 14460, Note_on_c, 0, 62, 0
3, 14520, Note_on_c, 0, 49, 49
3, 14520, Note_on_c, 0, 62, 56
3, 14580, Note_on_c, 0, 62, 0
3, 14580, Note_on_c, 0, 49, 0
3, 14640, Note_on_c, 0, 62, 58
3, 14640, Note_on_c, 0, 49, 51
3, 14880, Note_on_c, 0, 49, 0
3, 14880, Note_on_c, 0, 62, 0
3, 15120, Note_on_c, 0, 61, 70
3, 15120, Note_on_c, 0, 49, 61
3, 15180, Note_on_c, 0, 49, 0
3, 15180, Note_on_c, 0, 61, 0
3, 15240, Note_on_c, 0, 49, 50
3, 15240, Note_on_c, 0, 61, 57
3, 15300, Note_on_c, 0, 61, 0
3, 15300, Note_on_c, 0, 49, 0
3, 15360, Note_on_c, 0, 61, 62
3, 15360, Note_on_c, 0, 49, 54
3, 15600, Note_on_c, 0, 49, 0
3, 15600, Note_on_c, 0, 61, 0
3, 15840, Note_on_c, 0, 59, 73
3, 15840, Note_on_c, 0, 49, 64
3, 15900, Note_on_c, 0, 49, 0
3, 15900, Note_on_c, 0, 59, 0
3, 15960, Note_on_c, 0, 59, 63
3, 15960, Note_on_c, 0, 49, 55
3, 16020, Note_on_c, 0, 49, 0
3, 16020, Note_on_c, 0, 59, 0
3, 16080, Note_on_c, 0, 49, 49
3, 16080, Note_on_c, 0, 59, 56
3, 16320, Note_on_c, 0, 59, 0
3, 16320, Note_on_c, 0, 49, 0
3, 16560, Note_on_c, 0, 38, 87
3, 16620, Note_on_c, 0, 38, 0
3, 16680, Note_on_c, 0, 69, 65
3, 16680, Note_on_c, 0, 66, 52
3, 16680, Note_on_c, 0, 62, 52
3, 16680, Note_on_c, 0, 57, 51
3, 16680, Note_on_c, 0, 50, 51
3, 16740, Note_on_c, 0, 50, 0
3, 16740, Note_on_c, 0, 62, 0
3, 16740, Note_on_c, 0, 69, 0
3, 16740, Note_on_c, 0, 66, 0
3, 16740, Note_on_c, 0, 57, 0
3, 16800, Note_on_c, 0, 69, 71
3, 16800, Note_on_c, 0, 66, 56
3, 16800, Note_on_c, 0, 62, 56
3, 16800, Note_on_c, 0, 57, 55
3, 16800, Note_on_c, 0, 50, 55
3, 16860, Note_on_c, 0, 50, 0
3, 16860, Note_on_c, 0, 62, 0
3, 16860, Note_on_c, 0, 69, 0
3, 16860, Note_on_c, 0, 66, 0
3, 16860, Note_on_c, 0, 57, 0
3, 16920, Note_on_c, 0, 69, 75
3, 16920, Note_on_c, 0, 66, 60
3, 16920, Note_on_c, 0, 62, 60
3, 16920, Note_on_c, 0, 57, 60
3, 16920, Note_on_c, 0, 50, 60
3, 16980, Note_on_c, 0, 50, 0
3, 16980, Note_on_c, 0, 62, 0
3, 16980, Note_on_c, 0, 69, 0
3, 16980, Note_on_c, 0, 66, 0
3, 16980, Note_on_c, 0, 57, 0
3, 17040, Note_on_c, 0, 69, 77
3, 17040, Note_on_c, 0, 66, 61
3, 17040, Note_on_c, 0, 62, 61
3, 17040, Note_on_c, 0, 57, 61
3, 17040, Note_on_c, 0, 50, 61
3, 17100, Note_on_c, 0, 50, 0
3, 17100, Note_on_c, 0, 62, 0
3, 17100, Note_on_c, 0, 69, 0
3, 17100, Note_on_c, 0, 66, 0
3, 17100, Note_on_c, 0, 57, 0
3, 17160, Note_on_c, 0, 69, 64
3, 17160, Note_on_c, 0, 66, 51
3, 17160, Note_on_c, 0, 50, 51
3, 17160, Note_on_c, 0, 57, 51
3, 17160, Note_on_c, 0, 62, 51
3, 17220, Note_on_c, 0, 62, 0
3, 17220, Note_on_c, 0, 50, 0
3, 17220, Note_on_c, 0, 69, 0
3, 17220, Note_on_c, 0, 66, 0
3, 17220, Note_on_c, 0, 57, 0
3, 17280, Note_on_c, 0, 62, 62
3, 17280, Note_on_c, 0, 60, 62
3, 17280, Note_on_c, 0, 66, 62
3, 17280, Note_on_c, 0, 69, 79
3, 17280, Note_on_c, 0, 57, 62
3, 17280, Note_on_c, 0, 50, 62
3, 17340, Note_on_c, 0, 50, 0
3, 17340, Note_on_c, 0, 60, 0
3, 17340, Note_on_c, 0, 66, 0
3, 17340, Note_on_c, 0, 62, 0
3, 17340, Note_on_c, 0, 57, 0
3, 17340, Note_on_c, 0, 69, 0
3, 17400, Note_on_c, 0, 62, 57
3, 17400, Note_on_c, 0, 60, 57
3, 17400, Note_on_c, 0, 66, 57
3, 17400, Note_on_c, 0, 69, 73
3, 17400, Note_on_c, 0, 57, 57
3, 17400, Note_on_c, 0, 50, 57
3, 17460, Note_on_c, 0, 50, 0
3, 17460, Note_on_c, 0, 60, 0
3, 17460, Note_on_c, 0, 66, 0
3, 17460, Note_on_c, 0, 62, 0
3, 17460, Note_on_c, 0, 57, 0
3, 17460, Note_on_c, 0, 69, 0
3, 17520, Note_on_c, 0, 60, 68
3, 17520, Note_on_c, 0, 57, 62
3, 17520, Note_on_c, 0, 62, 79
3, 17520, Note_on_c, 0, 50, 62
3, 17580, Note_on_c, 0, 50, 0
3, 17580, Note_on_c, 0, 60, 0
3, 17580, Note_on_c, 0, 57, 0
3, 17580, Note_on_c, 0, 62, 0
3, 17640, Note_on_c, 0, 60, 67
3, 17640, Note_on_c, 0, 62, 67
3, 17640, Note_on_c, 0, 66, 67
3, 17640, Note_on_c, 0, 69, 80
3, 17640, Note_on_c, 0, 50, 67
3, 17640, Note_on_c, 0, 57, 67
3, 17700, Note_on_c, 0, 57, 0
3, 17700, Note_on_c, 0, 62, 0
3, 17700, Note_on_c, 0, 66, 0
3, 17700, Note_on_c, 0, 60, 0
3, 17700, Note_on_c, 0, 50, 0
3, 17700, Note_on_c, 0, 69, 0
3, 17760, Note_on_c, 0, 60, 68
3, 17760, Note_on_c, 0, 62, 86
3, 17760, Note_on_c, 0, 57, 68
3, 17760, Note_on_c, 0, 50, 68
3, 17820, Note_on_c, 0, 50, 0
3, 17820, Note_on_c, 0, 60, 0
3, 17820, Note_on_c, 0, 62, 0
3, 17820, Note_on_c, 0, 57, 0
3, 17880, Note_on_c, 0, 66, 57
3, 17880, Note_on_c, 0, 60, 57
3, 17880, Note_on_c, 0, 62, 57
3, 17880, Note_on_c, 0, 57, 57
3, 17880, Note_on_c, 0, 69, 72
3, 17880, Note_on_c, 0, 50, 57
3, 17940, Note_on_c, 0, 50, 0
3, 17940, Note_on_c, 0, 60, 0
3, 17940, Note_on_c, 0, 62, 0
3, 17940, Note_on_c, 0, 66, 0
3, 17940, Note_on_c, 0, 69, 0
3, 17940, Note_on_c, 0, 57, 0
3, 18000, Note_on_c, 0, 43, 87
3, 18060, Note_on_c, 0, 43, 0
3, 18120, Note_on_c, 0, 62, 55
3, 18120, Note_on_c, 0, 67, 70
3, 18120, Note_on_c, 0, 59, 55
3, 18120, Note_on_c, 0, 55, 55
3, 18180, Note_on_c, 0, 55, 0
3, 18180, Note_on_c, 0, 62, 0
3, 18180, Note_on_c, 0, 67, 0
3, 18180, Note_on_c, 0, 59, 0
3, 18240, Note_on_c, 0, 59, 74
3, 18240, Note_on_c, 0, 55, 58
3, 18300, Note_on_c, 0, 55, 0
3, 18300, Note_on_c, 0, 59, 0
3, 18360, Note_on_c, 0, 59, 75
3, 18360, Note_on_c, 0, 55, 60
3, 18420, Note_on_c, 0, 55, 0
3, 18420, Note_on_c, 0, 59, 0
3, 18480, Note_on_c, 0, 58, 74
3, 18480, Note_on_c, 0, 55, 59
3, 18540, Note_on_c, 0, 55, 0
3, 18540, Note_on_c, 0, 58, 0
3, 18600, Note_on_c, 0, 55, 47
3, 18600, Note_on_c, 0, 58, 60
3, 18660, Note_on_c, 0, 58, 0
3, 18660, Note_on_c, 0, 55, 0
3, 18720, Note_on_c, 0, 45, 69
3, 18780, Note_on_c, 0, 45, 0
3, 18840, Note_on_c, 0, 57, 45
3, 18840, Note_on_c, 0, 62, 58
3, 18840, Note_on_c, 0, 55, 45
3, 18840, Note_on_c, 0, 52, 45
3, 18900, Note_on_c, 0, 52, 0
3, 18900, Note_on_c, 0, 57, 0
3, 18900, Note_on_c, 0, 62, 0
3, 18900, Note_on_c, 0, 55, 0
3, 18960, Note_on_c, 0, 52, 49
3, 18960, Note_on_c, 0, 57, 49
3, 18960, Note_on_c, 0, 62, 63
3, 18960, Note_on_c, 0, 55, 49
3, 19020, Note_on_c, 0, 55, 0
3, 19020, Note_on_c, 0, 52, 0
3, 19020, Note_on_c, 0, 57, 0
3, 19020, Note_on_c, 0, 62, 0
3, 19080, Note_on_c, 0, 52, 53
3, 19080, Note_on_c, 0, 57, 53
3, 19080, Note_on_c, 0, 62, 67
3, 19080, Note_on_c, 0, 55, 53
3, 19140, Note_on_c, 0, 55, 0
3, 19140, Note_on_c, 0, 52, 0
3, 19140, Note_on_c, 0, 57, 0
3, 19140, Note_on_c, 0, 62, 0
3, 19200, Note_on_c, 0, 55, 54
3, 19200, Note_on_c, 0, 57, 68
3, 19200, Note_on_c, 0, 52, 54
3, 19260, Note_on_c, 0, 52, 0
3, 19260, Note_on_c, 0, 57, 0
3, 19260, Note_on_c, 0, 55, 0
3, 19320, Note_on_c, 0, 57, 45
3, 19320, Note_on_c, 0, 55, 45
3, 19320, Note_on_c, 0, 61, 45
3, 19320, Note_on_c, 0, 52, 45
3, 19320, Note_on_c, 0, 64, 57
3, 19380, Note_on_c, 0, 64, 0
3, 19380, Note_on_c, 0, 61, 0
3, 19380, Note_on_c, 0, 57, 0
3, 19380, Note_on_c, 0, 55, 0
3, 19380, Note_on_c, 0, 52, 0
3, 19440, Note_on_c, 0, 50, 69
3, 19500, Note_on_c, 0, 50, 0
3, 19560, Note_on_c, 0, 57, 45
3, 19560, Note_on_c, 0, 62, 58
3, 19560, Note_on_c, 0, 54, 45
3, 19620, Note_on_c, 0, 54, 0
3, 19620, Note_on_c, 0, 62, 0
3, 19620, Note_on_c, 0, 57, 0
3, 19680, Note_on_c, 0, 54, 49
3, 19680, Note_on_c, 0, 57, 49
3, 19680, Note_on_c, 0, 62, 63
3, 19740, Note_on_c, 0, 62, 0
3, 19740, Note_on_c, 0, 57, 0
3, 19740, Note_on_c, 0, 54, 0
3, 19800, Note_on_c, 0, 54, 53
3, 19800, Note_on_c, 0, 57, 53
3, 19800, Note_on_c, 0, 62, 67
3, 19860, Note_on_c, 0, 62, 0
3, 19860, Note_on_c, 0, 57, 0
3, 19860, Note_on_c, 0, 54, 0
3, 19920, Note_on_c, 0, 57, 54
3, 19920, Note_on_c, 0, 62, 68
3, 19920, Note_on_c, 0, 54, 54
3, 19980, Note_on_c, 0, 54, 0
3, 19980, Note_on_c, 0, 62, 0
3, 19980, Note_on_c, 0, 57, 0
3, 20040, Note_on_c, 0, 57, 45
3, 20040, Note_on_c, 0, 54, 45
3, 20040, Note_on_c, 0, 62, 57
3, 20100, Note_on_c, 0, 62, 0
3, 20100, Note_on_c, 0, 54, 0
3, 20100, Note_on_c, 0, 57, 0
3, 20160, Note_on_c, 0, 50, 69
3, 20220, Note_on_c, 0, 50, 0
3, 20280, Note_on_c, 0, 62, 57
3, 20280, Note_on_c, 0, 60, 57
3, 20280, Note_on_c, 0, 66, 57
3, 20280, Note_on_c, 0, 69, 73
3, 20280, Note_on_c, 0, 57, 57
3, 20340, Note_on_c, 0, 57, 0
3, 20340, Note_on_c, 0, 66, 0
3, 20340, Note_on_c, 0, 62, 0
3, 20340, Note_on_c, 0, 60, 0
3, 20340, Note_on_c, 0, 69, 0
3, 20400, Note_on_c, 0, 60, 68
3, 20400, Note_on_c, 0, 57, 62
3, 20400, Note_on_c, 0, 62, 79
3, 20460, Note_on_c, 0, 62, 0
3, 20460, Note_on_c, 0, 57, 0
3, 20460, Note_on_c, 0, 60, 0
3, 20520, Note_on_c, 0, 60, 67
3, 20520, Note_on_c, 0, 62, 67
3, 20520, Note_on_c, 0, 66, 67
3, 20520, Note_on_c, 0, 69, 79
3, 20520, Note_on_c, 0, 57, 67
3, 20580, Note_on_c, 0, 57, 0
3, 20580, Note_on_c, 0, 66, 0
3, 20580, Note_on_c, 0, 60, 0
3, 20580, Note_on_c, 0, 62, 0
3, 20580, Note_on_c, 0, 69, 0
3, 20640, Note_on_c, 0, 60, 68
3, 20640, Note_on_c, 0, 62, 86
3, 20640, Note_on_c, 0, 57, 68
3, 20700, Note_on_c, 0, 57, 0
3, 20700, Note_on_c, 0, 62, 0
3, 20700, Note_on_c, 0, 60, 0
3, 20760, Note_on_c, 0, 66, 57
3, 20760, Note_on_c, 0, 60, 57
3, 20760, Note_on_c, 0, 62, 57
3, 20760, Note_on_c, 0, 57, 57
3, 20760, Note_on_c, 0, 69, 72
3, 20820, Note_on_c, 0, 69, 0
3, 20820, Note_on_c, 0, 62, 0
3, 20820, Note_on_c, 0, 66, 0
3, 20820, Note_on_c, 0, 60, 0
3, 20820, Note_on_c, 0, 57, 0
3, 20880, Note_on_c, 0, 55, 87
3, 20940, Note_on_c, 0, 55, 0
3, 21000, Note_on_c, 0, 59, 53
3, 21000, Note_on_c, 0, 62, 53
3, 21060, Note_on_c, 0, 62, 0
3, 21060, Note_on_c, 0, 59, 0
3, 21120, Note_on_c, 0, 59, 69
3, 21120, Note_on_c, 0, 62, 54
3, 21180, Note_on_c, 0, 62, 0
3, 21180, Note_on_c, 0, 59, 0
3, 21240, Note_on_c, 0, 59, 67
3, 21240, Note_on_c, 0, 62, 54
3, 21300, Note_on_c, 0, 62, 0
3, 21300, Note_on_c, 0, 59, 0
3, 21360, Note_on_c, 0, 59, 64
3, 21360, Note_on_c, 0, 62, 51
3, 21420, Note_on_c, 0, 62, 0
3, 21420, Note_on_c, 0, 59, 0
3, 21480, Note_on_c, 0, 62, 39
3, 21480, Note_on_c, 0, 59, 50
3, 21540, Note_on_c, 0, 59, 0
3, 21540, Note_on_c, 0, 62, 0
3, 21600, Note_on_c, 0, 43, 55
3, 21720, Note_on_c, 0, 55, 44
3, 21720, Note_on_c, 0, 60, 44
3, 21780, Note_on_c, 0, 60, 0
3, 21780, Note_on_c, 0, 55, 0
3, 21840, Note_on_c, 0, 55, 44
3, 21840, Note_on_c, 0, 60, 59
3, 21840, Note_on_c, 0, 52, 50
3, 21900, Note_on_c, 0, 60, 0
3, 21900, Note_on_c, 0, 55, 0
3, 21960, Note_on_c, 0, 55, 44
3, 21960, Note_on_c, 0, 60, 44
3, 22020, Note_on_c, 0, 60, 0
3, 22020, Note_on_c, 0, 55, 0
3, 22080, Note_on_c, 0, 52, 0
3, 22080, Note_on_c, 0, 51, 54
3, 22200, Note_on_c, 0, 55, 44
3, 22200, Note_on_c, 0, 60, 44
3, 22260, Note_on_c, 0, 60, 0
3, 22260, Note_on_c, 0, 55, 0
3, 22320, Note_on_c, 0, 51, 0
3, 22440, Note_on_c, 0, 55, 44
3, 22440, Note_on_c, 0, 59, 44
3, 22500, Note_on_c, 0, 59, 0
3, 22500, Note_on_c, 0, 55, 0
3, 22560, Note_on_c, 0, 55, 44
3, 22560, Note_on_c, 0, 59, 59
3, 22620, Note_on_c, 0, 59, 0
3, 22620, Note_on_c, 0, 55, 0
3, 22680, Note_on_c, 0, 55, 44
3, 22680, Note_on_c, 0, 59, 44
3, 22740, Note_on_c, 0, 59, 0
3, 22740, Note_on_c, 0, 55, 0
3, 22800, Note_on_c, 0, 43, 0
3, 22920, Note_on_c, 0, 55, 37
3, 22920, Note_on_c, 0, 59, 37
3, 22980, Note_on_c, 0, 59, 0
3, 22980, Note_on_c, 0, 55, 0
3, 23040, Note_on_c, 0, 43, 46
3, 23160, Note_on_c, 0, 55, 37
3, 23160, Note_on_c, 0, 60, 37
3, 23220, Note_on_c, 0, 60, 0
3, 23220, Note_on_c, 0, 55, 0
3, 23280, Note_on_c, 0, 55, 37
3, 23280, Note_on_c, 0, 60, 50
3, 23280, Note_on_c, 0, 52, 42
3, 23340, Note_on_c, 0, 60, 0
3, 23340, Note_on_c, 0, 55, 0
3, 23400, Note_on_c, 0, 55, 37
3, 23400, Note_on_c, 0, 60, 37
3, 23460, Note_on_c, 0, 60, 0
3, 23460, Note_on_c, 0, 55, 0
3, 23520, Note_on_c, 0, 52, 0
3, 23520, Note_on_c, 0, 51, 45
3, 23640, Note_on_c, 0, 55, 37
3, 23640, Note_on_c, 0, 60, 37
3, 23700, Note_on_c, 0, 60, 0
3, 23700, Note_on_c, 0, 55, 0
3, 23760, Note_on_c, 0, 51, 0
3, 23760, Note_on_c, 0, 50, 45
3, 23880, Note_on_c, 0, 55, 31
3, 23880, Note_on_c, 0, 59, 37
3, 23940, Note_on_c, 0, 59, 0
3, 23940, Note_on_c, 0, 55, 0
3, 24000, Note_on_c, 0, 55, 32
3, 24000, Note_on_c, 0, 59, 51
3, 24060, Note_on_c, 0, 59, 0
3, 24060, Note_on_c, 0, 55, 0
3, 24120, Note_on_c, 0, 55, 33
3, 24120, Note_on_c, 0, 59, 39
3, 24180, Note_on_c, 0, 59, 0
3, 24180, Note_on_c, 0, 55, 0
3, 24240, Note_on_c, 0, 50, 0
3, 24240, Note_on_c, 0, 43, 0
3, 24240, Note_on_c, 0, 55, 46
3, 24240, Note_on_c, 0, 59, 55
3, 24300, Note_on_c, 0, 59, 0
3, 24300, Note_on_c, 0, 55, 0
3, 24360, Note_on_c, 0, 55, 34
3, 24360, Note_on_c, 0, 59, 41
3, 24420, Note_on_c, 0, 59, 0
3, 24420, Note_on_c, 0, 55, 0
3, 24480, Note_on_c, 0, 59, 43
3, 24480, Note_on_c, 0, 55, 35
3, 24540, Note_on_c, 0, 55, 0
3, 24540, Note_on_c, 0, 59, 0
3, 24600, Note_on_c, 0, 55, 37
3, 24600, Note_on_c, 0, 59, 44
3, 24660, Note_on_c, 0, 59, 0
3, 24660, Note_on_c, 0, 55, 0
3, 24720, Note_on_c, 0, 55, 38
3, 24720, Note_on_c, 0, 59, 45
3, 24780, Note_on_c, 0, 59, 0
3, 24780, Note_on_c, 0, 55, 0
3, 24840, Note_on_c, 0, 55, 39
3, 24840, Note_on_c, 0, 59, 46
3, 24900, Note_on_c, 0, 59, 0
3, 24900, Note_on_c, 0, 55, 0
3, 24960, Note_on_c, 0, 54, 32
3, 25080, Note_on_c, 0, 59, 30
3, 25080, Note_on_c, 0, 62, 38
3, 25140, Note_on_c, 0, 62, 0
3, 25140, Note_on_c, 0, 59, 0
3, 25200, Note_on_c, 0, 54, 0
3, 25200, Note_on_c, 0, 46, 40
3, 25260, Note_on_c, 0, 46, 0
3, 25320, Note_on_c, 0, 54, 33
3, 25320, Note_on_c, 0, 61, 33
3, 25320, Note_on_c, 0, 64, 43
3, 25380, Note_on_c, 0, 64, 0
3, 25380, Note_on_c, 0, 61, 0
3, 25380, Note_on_c, 0, 54, 0
3, 25440, Note_on_c, 0, 54, 37
3, 25440, Note_on_c, 0, 61, 37
3, 25440, Note_on_c, 0, 64, 47
3, 25500, Note_on_c, 0, 64, 0
3, 25500, Note_on_c, 0, 61, 0
3, 25500, Note_on_c, 0, 54, 0
3, 25560, Note_on_c, 0, 54, 39
3, 25560, Note_on_c, 0, 61, 39
3, 25560, Note_on_c, 0, 64, 50
3, 25620, Note_on_c, 0, 64, 0
3, 25620, Note_on_c, 0, 61, 0
3, 25620, Note_on_c, 0, 54, 0
3, 25680, Note_on_c, 0, 54, 42
3, 25680, Note_on_c, 0, 61, 42
3, 25680, Note_on_c, 0, 64, 53
3, 25740, Note_on_c, 0, 64, 0
3, 25740, Note_on_c, 0, 61, 0
3, 25740, Note_on_c, 0, 54, 0
3, 25800, Note_on_c, 0, 54, 46
3, 25800, Note_on_c, 0, 61, 46
3, 25800, Note_on_c, 0, 64, 57
3, 25860, Note_on_c, 0, 64, 0
3, 25860, Note_on_c, 0, 61, 0
3, 25860, Note_on_c, 0, 54, 0
3, 25920, Note_on_c, 0, 47, 60
3, 25980, Note_on_c, 0, 47, 0
3, 26040, Note_on_c, 0, 62, 43
3, 26040, Note_on_c, 0, 59, 34
3, 26040, Note_on_c, 0, 54, 34
3, 26100, Note_on_c, 0, 54, 0
3, 26100, Note_on_c, 0, 59, 0
3, 26100, Note_on_c, 0, 62, 0
3, 26160, Note_on_c, 0, 54, 41
3, 26160, Note_on_c, 0, 59, 41
3, 26160, Note_on_c, 0, 62, 52
3, 26220, Note_on_c, 0, 62, 0
3, 26220, Note_on_c, 0, 59, 0
3, 26220, Note_on_c, 0, 54, 0
3, 26280, Note_on_c, 0, 54, 39
3, 26280, Note_on_c, 0, 59, 39
3, 26280, Note_on_c, 0, 62, 49
3, 26340, Note_on_c, 0, 62, 0
3, 26340, Note_on_c, 0, 59, 0
3, 26340, Note_on_c, 0, 54, 0
3, 26400, Note_on_c, 0, 62, 56
3, 26400, Note_on_c, 0, 59, 44
3, 26400, Note_on_c, 0, 54, 44
3, 26460, Note_on_c, 0, 54, 0
3, 26460, Note_on_c, 0, 59, 0
3, 26460, Note_on_c, 0, 62, 0
3, 26520, Note_on_c, 0, 54, 42
3, 26520, Note_on_c, 0, 59, 42
3, 26520, Note_on_c, 0, 62, 54
3, 26580, Note_on_c, 0, 62, 0
3, 26580, Note_on_c, 0, 59, 0
3, 26580, Note_on_c, 0, 54, 0
3, 26640, Note_on_c, 0, 43, 67
3, 26700, Note_on_c, 0, 43, 0
3, 26760, Note_on_c, 0, 64, 49
3, 26760, Note_on_c, 0, 59, 39
3, 26760, Note_on_c, 0, 55, 39
3, 26820, Note_on_c, 0, 55, 0
3, 26820, Note_on_c, 0, 59, 0
3, 26820, Note_on_c, 0, 64, 0
3, 26880, Note_on_c, 0, 55, 44
3, 26880, Note_on_c, 0, 59, 44
3, 26880, Note_on_c, 0, 64, 55
3, 26940, Note_on_c, 0, 64, 0
3, 26940, Note_on_c, 0, 59, 0
3, 26940, Note_on_c, 0, 55, 0
3, 27000, Note_on_c, 0, 55, 42
3, 27000, Note_on_c, 0, 59, 42
3, 27000, Note_on_c, 0, 64, 52
3, 27060, Note_on_c, 0, 64, 0
3, 27060, Note_on_c, 0, 59, 0
3, 27060, Note_on_c, 0, 55, 0
3, 27120, Note_on_c, 0, 55, 46
3, 27120, Note_on_c, 0, 59, 46
3, 27120, Note_on_c, 0, 64, 57
3, 27180, Note_on_c, 0, 64, 0
3, 27180, Note_on_c, 0, 59, 0
3, 27180, Note_on_c, 0, 55, 0
3, 27240, Note_on_c, 0, 55, 52
3, 27240, Note_on_c, 0, 59, 52
3, 27240, Note_on_c, 0, 64, 66
3, 27300, Note_on_c, 0, 64, 0
3, 27300, Note_on_c, 0, 59, 0
3, 27300, Note_on_c, 0, 55, 0
3, 27360, Note_on_c, 0, 42, 73
3, 27420, Note_on_c, 0, 42, 0
3, 27480, Note_on_c, 0, 64, 61
3, 27480, Note_on_c, 0, 58, 48
3, 27480, Note_on_c, 0, 54, 48
3, 27540, Note_on_c, 0, 54, 0
3, 27540, Note_on_c, 0, 58, 0
3, 27540, Note_on_c, 0, 64, 0
3, 27600, Note_on_c, 0, 64, 66
3, 27600, Note_on_c, 0, 58, 52
3, 27600, Note_on_c, 0, 54, 52
3, 27660, Note_on_c, 0, 54, 0
3, 27660, Note_on_c, 0, 58, 0
3, 27660, Note_on_c, 0, 64, 0
3, 27720, Note_on_c, 0, 64, 70
3, 27720, Note_on_c, 0, 58, 56
3, 27720, Note_on_c, 0, 54, 56
3, 27780, Note_on_c, 0, 54, 0
3, 27780, Note_on_c, 0, 58, 0
3, 27780, Note_on_c, 0, 64, 0
3, 27840, Note_on_c, 0, 64, 72
3, 27840, Note_on_c, 0, 58, 57
3, 27840, Note_on_c, 0, 54, 57
3, 27900, Note_on_c, 0, 54, 0
3, 27900, Note_on_c, 0, 58, 0
3, 27900, Note_on_c, 0, 64, 0
3, 27960, Note_on_c, 0, 54, 48
3, 27960, Note_on_c, 0, 58, 48
3, 27960, Note_on_c, 0, 64, 60
3, 28020, Note_on_c, 0, 64, 0
3, 28020, Note_on_c, 0, 58, 0
3, 28020, Note_on_c, 0, 54, 0
3, 28080, Note_on_c, 0, 46, 78
3, 28140, Note_on_c, 0, 46, 0
3, 28200, Note_on_c, 0, 66, 61
3, 28200, Note_on_c, 0, 54, 48
3, 28200, Note_on_c, 0, 61, 48
3, 28200, Note_on_c, 0, 64, 51
3, 28260, Note_on_c, 0, 64, 0
3, 28260, Note_on_c, 0, 66, 0
3, 28260, Note_on_c, 0, 54, 0
3, 28260, Note_on_c, 0, 61, 0
3, 28320, Note_on_c, 0, 66, 57
3, 28320, Note_on_c, 0, 64, 48
3, 28320, Note_on_c, 0, 61, 45
3, 28320, Note_on_c, 0, 54, 45
3, 28380, Note_on_c, 0, 54, 0
3, 28380, Note_on_c, 0, 66, 0
3, 28380, Note_on_c, 0, 64, 0
3, 28380, Note_on_c, 0, 61, 0
3, 28440, Note_on_c, 0, 66, 63
3, 28440, Note_on_c, 0, 54, 50
3, 28440, Note_on_c, 0, 61, 50
3, 28440, Note_on_c, 0, 64, 53
3, 28500, Note_on_c, 0, 64, 0
3, 28500, Note_on_c, 0, 66, 0
3, 28500, Note_on_c, 0, 54, 0
3, 28500, Note_on_c, 0, 61, 0
3, 28560, Note_on_c, 0, 66, 64
3, 28560, Note_on_c, 0, 54, 51
3, 28560, Note_on_c, 0, 61, 51
3, 28560, Note_on_c, 0, 64, 54
3, 28620, Note_on_c, 0, 64, 0
3, 28620, Note_on_c, 0, 66, 0
3, 28620, Note_on_c, 0, 54, 0
3, 28620, Note_on_c, 0, 61, 0
3, 28680, Note_on_c, 0, 66, 68
3, 28680, Note_on_c, 0, 54, 54
3, 28680, Note_on_c, 0, 61, 54
3, 28680, Note_on_c, 0, 64, 57
3, 28740, Note_on_c, 0, 64, 0
3, 28740, Note_on_c, 0, 66, 0
3, 28740, Note_on_c, 0, 54, 0
3, 28740, Note_on_c, 0, 61, 0
3, 28800, Note_on_c, 0, 47, 75
3, 28860, Note_on_c, 0, 47, 0
3, 28920, Note_on_c, 0, 66, 60
3, 28920, Note_on_c, 0, 62, 51
3, 28920, Note_on_c, 0, 59, 48
3, 28920, Note_on_c, 0, 54, 48
3, 28980, Note_on_c, 0, 54, 0
3, 28980, Note_on_c, 0, 66, 0
3, 28980, Note_on_c, 0, 62, 0
3, 28980, Note_on_c, 0, 59, 0
3, 29040, Note_on_c, 0, 66, 60
3, 29040, Note_on_c, 0, 62, 51
3, 29040, Note_on_c, 0, 59, 48
3, 29040, Note_on_c, 0, 54, 48
3, 29100, Note_on_c, 0, 54, 0
3, 29100, Note_on_c, 0, 66, 0
3, 29100, Note_on_c, 0, 62, 0
3, 29100, Note_on_c, 0, 59, 0
3, 29160, Note_on_c, 0, 66, 56
3, 29160, Note_on_c, 0, 62, 47
3, 29160, Note_on_c, 0, 59, 44
3, 29160, Note_on_c, 0, 54, 44
3, 29220, Note_on_c, 0, 54, 0
3, 29220, Note_on_c, 0, 66, 0
3, 29220, Note_on_c, 0, 62, 0
3, 29220, Note_on_c, 0, 59, 0
3, 29280, Note_on_c, 0, 66, 63
3, 29280, Note_on_c, 0, 62, 53
3, 29280, Note_on_c, 0, 59, 50
3, 29280, Note_on_c, 0, 54, 50
3, 29340, Note_on_c, 0, 54, 0
3, 29340, Note_on_c, 0, 66, 0
3, 29340, Note_on_c, 0, 62, 0
3, 29340, Note_on_c, 0, 59, 0
3, 29400, Note_on_c, 0, 66, 58
3, 29400, Note_on_c, 0, 62, 49
3, 29400, Note_on_c, 0, 59, 46
3, 29400, Note_on_c, 0, 54, 46
3, 29460, Note_on_c, 0, 54, 0
3, 29460, Note_on_c, 0, 66, 0
3, 29460, Note_on_c, 0, 62, 0
3, 29460, Note_on_c, 0, 59, 0
3, 29520, Note_on_c, 0, 49, 75
3, 29640, Note_on_c, 0, 49, 0
3, 29640, Note_on_c, 0, 53, 43
3, 29640, Note_on_c, 0, 59, 43
3, 29640, Note_on_c, 0, 61, 55
3, 29700, Note_on_c, 0, 61, 0
3, 29700, Note_on_c, 0, 59, 0
3, 29700, Note_on_c, 0, 53, 0
3, 29760, Note_on_c, 0, 53, 48
3, 29760, Note_on_c, 0, 59, 48
3, 29760, Note_on_c, 0, 61, 61
3, 29820, Note_on_c, 0, 61, 0
3, 29820, Note_on_c, 0, 59, 0
3, 29820, Note_on_c, 0, 53, 0
3, 29880, Note_on_c, 0, 61, 53
3, 29880, Note_on_c, 0, 59, 42
3, 29880, Note_on_c, 0, 53, 42
3, 29940, Note_on_c, 0, 53, 0
3, 29940, Note_on_c, 0, 59, 0
3, 29940, Note_on_c, 0, 61, 0
3, 30000, Note_on_c, 0, 61, 62
3, 30000, Note_on_c, 0, 59, 49
3, 30000, Note_on_c, 0, 54, 49
3, 30060, Note_on_c, 0, 54, 0
3, 30060, Note_on_c, 0, 59, 0
3, 30060, Note_on_c, 0, 61, 0
3, 30120, Note_on_c, 0, 61, 56
3, 30120, Note_on_c, 0, 59, 45
3, 30120, Note_on_c, 0, 56, 56
3, 30180, Note_on_c, 0, 56, 0
3, 30180, Note_on_c, 0, 59, 0
3, 30180, Note_on_c, 0, 61, 0
3, 30240, Note_on_c, 0, 54, 52
3, 30240, Note_on_c, 0, 58, 52
3, 30240, Note_on_c, 0, 61, 67
3, 30300, Note_on_c, 0, 61, 0
3, 30300, Note_on_c, 0, 58, 0
3, 30300, Note_on_c, 0, 54, 0
3, 30360, Note_on_c, 0, 54, 38
3, 30360, Note_on_c, 0, 58, 38
3, 30360, Note_on_c, 0, 61, 49
3, 30420, Note_on_c, 0, 61, 0
3, 30420, Note_on_c, 0, 58, 0
3, 30420, Note_on_c, 0, 54, 0
3, 30480, Note_on_c, 0, 54, 42
3, 30480, Note_on_c, 0, 58, 42
3, 30480, Note_on_c, 0, 61, 52
3, 30540, Note_on_c, 0, 61, 0
3, 30540, Note_on_c, 0, 58, 0
3, 30540, Note_on_c, 0, 54, 0
3, 30600, Note_on_c, 0, 61, 41
3, 30600, Note_on_c, 0, 58, 32
3, 30600, Note_on_c, 0, 54, 32
3, 30660, Note_on_c, 0, 54, 0
3, 30660, Note_on_c, 0, 58, 0
3, 30660, Note_on_c, 0, 61, 0
3, 30720, Note_on_c, 0, 54, 36
3, 30720, Note_on_c, 0, 58, 36
3, 30720, Note_on_c, 0, 61, 46
3, 30780, Note_on_c, 0, 61, 0
3, 30780, Note_on_c, 0, 58, 0
3, 30780, Note_on_c, 0, 54, 0
3, 30840, Note_on_c, 0, 61, 40
3, 30840, Note_on_c, 0, 58, 32
3, 30840, Note_on_c, 0, 54, 32
3, 30900, Note_on_c, 0, 54, 0
3, 30900, Note_on_c, 0, 58, 0
3, 30900, Note_on_c, 0, 61, 0
3, 30960, Note_on_c, 0, 46, 40
3, 31020, Note_on_c, 0, 46, 0
3, 31080, Note_on_c, 0, 54, 33
3, 31080, Note_on_c, 0, 61, 33
3, 31080, Note_on_c, 0, 64, 43
3, 31140, Note_on_c, 0, 64, 0
3, 31140, Note_on_c, 0, 61, 0
3, 31140, Note_on_c, 0, 54, 0
3, 31200, Note_on_c, 0, 54, 37
3, 31200, Note_on_c, 0, 61, 37
3, 31200, Note_on_c, 0, 64, 47
3, 31260, Note_on_c, 0, 64, 0
3, 31260, Note_on_c, 0, 61, 0
3, 31260, Note_on_c, 0, 54, 0
3, 31320, Note_on_c, 0, 54, 39
3, 31320, Note_on_c, 0, 61, 39
3, 31320, Note_on_c, 0, 64, 50
3, 31380, Note_on_c, 0, 64, 0
3, 31380, Note_on_c, 0, 61, 0
3, 31380, Note_on_c, 0, 54, 0
3, 31440, Note_on_c, 0, 54, 42
3, 31440, Note_on_c, 0, 61, 42
3, 31440, Note_on_c, 0, 64, 53
3, 31500, Note_on_c, 0, 64, 0
3, 31500, Note_on_c, 0, 61, 0
3, 31500, Note_on_c, 0, 54, 0
3, 31560, Note_on_c, 0, 54, 46
3, 31560, Note_on_c, 0, 61, 46
3, 31560, Note_on_c, 0, 64, 57
3, 31620, Note_on_c, 0, 64, 0
3, 31620, Note_on_c, 0, 61, 0
3, 31620, Note_on_c, 0, 54, 0
3, 31680, Note_on_c, 0, 47, 60
3, 31740, Note_on_c, 0, 47, 0
3, 31800, Note_on_c, 0, 62, 43
3, 31800, Note_on_c, 0, 59, 34
3, 31800, Note_on_c, 0, 54, 34
3, 31860, Note_on_c, 0, 54, 0
3, 31860, Note_on_c, 0, 59, 0
3, 31860, Note_on_c, 0, 62, 0
3, 31920, Note_on_c, 0, 54, 41
3, 31920, Note_on_c, 0, 59, 41
3, 31920, Note_on_c, 0, 62, 52
3, 31980, Note_on_c, 0, 62, 0
3, 31980, Note_on_c, 0, 59, 0
3, 31980, Note_on_c, 0, 54, 0
3, 32040, Note_on_c, 0, 54, 39
3, 32040, Note_on_c, 0, 59, 39
3, 32040, Note_on_c, 0, 62, 49
3, 32100, Note_on_c, 0, 62, 0
3, 32100, Note_on_c, 0, 59, 0
3, 32100, Note_on_c, 0, 54, 0
3, 32160, Note_on_c, 0, 62, 57
3, 32160, Note_on_c, 0, 59, 44
3, 32160, Note_on_c, 0, 54, 44
3, 32220, Note_on_c, 0, 54, 0
3, 32220, Note_on_c, 0, 59, 0
3, 32220, Note_on_c, 0, 62, 0
3, 32280, Note_on_c, 0, 54, 42
3, 32280, Note_on_c, 0, 59, 42
3, 32280, Note_on_c, 0, 62, 55
3, 32340, Note_on_c, 0, 62, 0
3, 32340, Note_on_c, 0, 59, 0
3, 32340, Note_on_c, 0, 54, 0
3, 32400, Note_on_c, 0, 47, 69
3, 32460, Note_on_c, 0, 47, 0
3, 32520, Note_on_c, 0, 65, 50
3, 32520, Note_on_c, 0, 61, 40
3, 32520, Note_on_c, 0, 56, 40
3, 32580, Note_on_c, 0, 56, 0
3, 32580, Note_on_c, 0, 61, 0
3, 32580, Note_on_c, 0, 65, 0
3, 32640, Note_on_c, 0, 56, 45
3, 32640, Note_on_c, 0, 61, 45
3, 32640, Note_on_c, 0, 65, 56
3, 32700, Note_on_c, 0, 65, 0
3, 32700, Note_on_c, 0, 61, 0
3, 32700, Note_on_c, 0, 56, 0
3, 32760, Note_on_c, 0, 56, 43
3, 32760, Note_on_c, 0, 61, 43
3, 32760, Note_on_c, 0, 65, 54
3, 32820, Note_on_c, 0, 65, 0
3, 32820, Note_on_c, 0, 61, 0
3, 32820, Note_on_c, 0, 56, 0
3, 32880, Note_on_c, 0, 56, 47
3, 32880, Note_on_c, 0, 61, 47
3, 32880, Note_on_c, 0, 65, 59
3, 32940, Note_on_c, 0, 65, 0
3, 32940, Note_on_c, 0, 61, 0
3, 32940, Note_on_c, 0, 56, 0
3, 33000, Note_on_c, 0, 56, 54
3, 33000, Note_on_c, 0, 61, 54
3, 33000, Note_on_c, 0, 65, 68
3, 33060, Note_on_c, 0, 65, 0
3, 33060, Note_on_c, 0, 61, 0
3, 33060, Note_on_c, 0, 56, 0
3, 33120, Note_on_c, 0, 45, 73
3, 33180, Note_on_c, 0, 45, 0
3, 33240, Note_on_c, 0, 66, 61
3, 33240, Note_on_c, 0, 61, 51
3, 33240, Note_on_c, 0, 57, 48
3, 33240, Note_on_c, 0, 54, 48
3, 33300, Note_on_c, 0, 54, 0
3, 33300, Note_on_c, 0, 66, 0
3, 33300, Note_on_c, 0, 61, 0
3, 33300, Note_on_c, 0, 57, 0
3, 33360, Note_on_c, 0, 66, 66
3, 33360, Note_on_c, 0, 61, 56
3, 33360, Note_on_c, 0, 57, 52
3, 33360, Note_on_c, 0, 54, 52
3, 33420, Note_on_c, 0, 54, 0
3, 33420, Note_on_c, 0, 66, 0
3, 33420, Note_on_c, 0, 61, 0
3, 33420, Note_on_c, 0, 57, 0
3, 33480, Note_on_c, 0, 66, 70
3, 33480, Note_on_c, 0, 61, 59
3, 33480, Note_on_c, 0, 57, 56
3, 33480, Note_on_c, 0, 54, 56
3, 33540, Note_on_c, 0, 54, 0
3, 33540, Note_on_c, 0, 66, 0
3, 33540, Note_on_c, 0, 61, 0
3, 33540, Note_on_c, 0, 57, 0
3, 33600, Note_on_c, 0, 66, 72
3, 33600, Note_on_c, 0, 61, 61
3, 33600, Note_on_c, 0, 57, 57
3, 33600, Note_on_c, 0, 54, 57
3, 33660, Note_on_c, 0, 54, 0
3, 33660, Note_on_c, 0, 66, 0
3, 33660, Note_on_c, 0, 61, 0
3, 33660, Note_on_c, 0, 57, 0
3, 33720, Note_on_c, 0, 66, 60
3, 33720, Note_on_c, 0, 54, 48
3, 33720, Note_on_c, 0, 57, 48
3, 33720, Note_on_c, 0, 61, 51
3, 33780, Note_on_c, 0, 61, 0
3, 33780, Note_on_c, 0, 66, 0
3, 33780, Note_on_c, 0, 54, 0
3, 33780, Note_on_c, 0, 57, 0
3, 33840, Note_on_c, 0, 47, 78
3, 33900, Note_on_c, 0, 47, 0
3, 33960, Note_on_c, 0, 54, 48
3, 33960, Note_on_c, 0, 56, 48
3, 33960, Note_on_c, 0, 62, 61
3, 34020, Note_on_c, 0, 62, 0
3, 34020, Note_on_c, 0, 56, 0
3, 34020, Note_on_c, 0, 54, 0
3, 34080, Note_on_c, 0, 62, 57
3, 34080, Note_on_c, 0, 56, 45
3, 34080, Note_on_c, 0, 54, 45
3, 34140, Note_on_c, 0, 54, 0
3, 34140, Note_on_c, 0, 56, 0
3, 34140, Note_on_c, 0, 62, 0
3, 34200, Note_on_c, 0, 54, 50
3, 34200, Note_on_c, 0, 56, 50
3, 34200, Note_on_c, 0, 62, 63
3, 34260, Note_on_c, 0, 62, 0
3, 34260, Note_on_c, 0, 56, 0
3, 34260, Note_on_c, 0, 54, 0
3, 34320, Note_on_c, 0, 54, 51
3, 34320, Note_on_c, 0, 56, 51
3, 34320, Note_on_c, 0, 62, 64
3, 34380, Note_on_c, 0, 62, 0
3, 34380, Note_on_c, 0, 56, 0
3, 34380, Note_on_c, 0, 54, 0
3, 34440, Note_on_c, 0, 54, 54
3, 34440, Note_on_c, 0, 56, 54
3, 34440, Note_on_c, 0, 62, 68
3, 34500, Note_on_c, 0, 62, 0
3, 34500, Note_on_c, 0, 56, 0
3, 34500, Note_on_c, 0, 54, 0
3, 34560, Note_on_c, 0, 49, 73
3, 34620, Note_on_c, 0, 49, 0
3, 34680, Note_on_c, 0, 66, 61
3, 34680, Note_on_c, 0, 61, 51
3, 34680, Note_on_c, 0, 57, 48
3, 34680, Note_on_c, 0, 54, 48
3, 34740, Note_on_c, 0, 54, 0
3, 34740, Note_on_c, 0, 66, 0
3, 34740, Note_on_c, 0, 61, 0
3, 34740, Note_on_c, 0, 57, 0
3, 34800, Note_on_c, 0, 66, 66
3, 34800, Note_on_c, 0, 61, 56
3, 34800, Note_on_c, 0, 57, 52
3, 34800, Note_on_c, 0, 54, 52
3, 34860, Note_on_c, 0, 54, 0
3, 34860, Note_on_c, 0, 66, 0
3, 34860, Note_on_c, 0, 61, 0
3, 34860, Note_on_c, 0, 57, 0
3, 34920, Note_on_c, 0, 66, 70
3, 34920, Note_on_c, 0, 61, 59
3, 34920, Note_on_c, 0, 57, 56
3, 34920, Note_on_c, 0, 54, 56
3, 34980, Note_on_c, 0, 54, 0
3, 34980, Note_on_c, 0, 66, 0
3, 34980, Note_on_c, 0, 61, 0
3, 34980, Note_on_c, 0, 57, 0
3, 35040, Note_on_c, 0, 66, 72
3, 35040, Note_on_c, 0, 61, 61
3, 35040, Note_on_c, 0, 57, 57
3, 35040, Note_on_c, 0, 54, 57
3, 35100, Note_on_c, 0, 54, 0
3, 35100, Note_on_c, 0, 66, 0
3, 35100, Note_on_c, 0, 61, 0
3, 35100, Note_on_c, 0, 57, 0
3, 35160, Note_on_c, 0, 66, 60
3, 35160, Note_on_c, 0, 54, 48
3, 35160, Note_on_c, 0, 57, 48
3, 35160, Note_on_c, 0, 61, 51
3, 35220, Note_on_c, 0, 61, 0
3, 35220, Note_on_c, 0, 66, 0
3, 35220, Note_on_c, 0, 54, 0
3, 35220, Note_on_c, 0, 57, 0
3, 35280, Note_on_c, 0, 47, 78
3, 35340, Note_on_c, 0, 47, 0
3, 35400, Note_on_c, 0, 54, 48
3, 35400, Note_on_c, 0, 56, 48
3, 35400, Note_on_c, 0, 62, 61
3, 35460, Note_on_c, 0, 62, 0
3, 35460, Note_on_c, 0, 56, 0
3, 35460, Note_on_c, 0, 54, 0
3, 35520, Note_on_c, 0, 62, 57
3, 35520, Note_on_c, 0, 56, 45
3, 35520, Note_on_c, 0, 54, 45
3, 35580, Note_on_c, 0, 54, 0
3, 35580, Note_on_c, 0, 56, 0
3, 35580, Note_on_c, 0, 62, 0
3, 35640, Note_on_c, 0, 54, 50
3, 35640, Note_on_c, 0, 56, 50
3, 35640, Note_on_c, 0, 62, 63
3, 35700, Note_on_c, 0, 62, 0
3, 35700, Note_on_c, 0, 56, 0
3, 35700, Note_on_c, 0, 54, 0
3, 35760, Note_on_c, 0, 54, 51
3, 35760, Note_on_c, 0, 56, 51
3, 35760, Note_on_c, 0, 62, 64
3, 35820, Note_on_c, 0, 62, 0
3, 35820, Note_on_c, 0, 56, 0
3, 35820, Note_on_c, 0, 54, 0
3, 35880, Note_on_c, 0, 54, 54
3, 35880, Note_on_c, 0, 56, 54
3, 35880, Note_on_c, 0, 62, 68
3, 35940, Note_on_c, 0, 62, 0
3, 35940, Note_on_c, 0, 56, 0
3, 35940, Note_on_c, 0, 54, 0
3, 36000, Note_on_c, 0, 49, 48
3, 36000, Note_on_c, 0, 54, 48
3, 36000, Note_on_c, 0, 57, 61
3, 36060, Note_on_c, 0, 57, 0
3, 36060, Note_on_c, 0, 54, 0
3, 36060, Note_on_c, 0, 49, 0
3, 36120, Note_on_c, 0, 57, 57
3, 36120, Note_on_c, 0, 54, 45
3, 36120, Note_on_c, 0, 49, 45
3, 36180, Note_on_c, 0, 49, 0
3, 36180, Note_on_c, 0, 54, 0
3, 36180, Note_on_c, 0, 57, 0
3, 36240, Note_on_c, 0, 49, 50
3, 36240, Note_on_c, 0, 54, 50
3, 36240, Note_on_c, 0, 57, 63
3, 36300, Note_on_c, 0, 57, 0
3, 36300, Note_on_c, 0, 54, 0
3, 36300, Note_on_c, 0, 49, 0
3, 36720, Note_on_c, 0, 59, 63
3, 36720, Note_on_c, 0, 49, 55
3, 36780, Note_on_c, 0, 49, 0
3, 36780, Note_on_c, 0, 59, 0
3, 36840, Note_on_c, 0, 49, 49
3, 36840, Note_on_c, 0, 59, 56
3, 36900, Note_on_c, 0, 59, 0
3, 36900, Note_on_c, 0, 49, 0
3, 36960, Note_on_c, 0, 49, 49
3, 36960, Note_on_c, 0, 59, 56
3, 37200, Note_on_c, 0, 59, 0
3, 37200, Note_on_c, 0, 49, 0
3, 37440, Note_on_c, 0, 61, 66
3, 37440, Note_on_c, 0, 49, 58
3, 37500, Note_on_c, 0, 49, 0
3, 37500, Note_on_c, 0, 61, 0
3, 37560, Note_on_c, 0, 49, 49
3, 37560, Note_on_c, 0, 61, 56
3, 37620, Note_on_c, 0, 61, 0
3, 37620, Note_on_c, 0, 49, 0
3, 37680, Note_on_c, 0, 61, 60
3, 37680, Note_on_c, 0, 49, 53
3, 37920, Note_on_c, 0, 49, 0
3, 37920, Note_on_c, 0, 61, 0
3, 38160, Note_on_c, 0, 62, 67
3, 38160, Note_on_c, 0, 49, 59
3, 38220, Note_on_c, 0, 49, 0
3, 38220, Note_on_c, 0, 62, 0
3, 38280, Note_on_c, 0, 49, 49
3, 38280, Note_on_c, 0, 62, 56
3, 38340, Note_on_c, 0, 62, 0
3, 38340, Note_on_c, 0, 49, 0
3, 38400, Note_on_c, 0, 62, 58
3, 38400, Note_on_c, 0, 49, 51
3, 38640, Note_on_c, 0, 49, 0
3, 38640, Note_on_c, 0, 62, 0
3, 38880, Note_on_c, 0, 61, 70
3, 38880, Note_on_c, 0, 49, 61
3, 38940, Note_on_c, 0, 49, 0
3, 38940, Note_on_c, 0, 61, 0
3, 39000, Note_on_c, 0, 49, 50
3, 39000, Note_on_c, 0, 61, 57
3, 39060, Note_on_c, 0, 61, 0
3, 39060, Note_on_c, 0, 49, 0
3, 39120, Note_on_c, 0, 61, 62
3, 39120, Note_on_c, 0, 49, 54
3, 39360, Note_on_c, 0, 49, 0
3, 39360, Note_on_c, 0, 61, 0
3, 39600, Note_on_c, 0, 59, 73
3, 39600, Note_on_c, 0, 49, 64
3, 39660, Note_on_c, 0, 49, 0
3, 39660, Note_on_c, 0, 59, 0
3, 39720, Note_on_c, 0, 59, 63
3, 39720, Note_on_c, 0, 49, 55
3, 39780, Note_on_c, 0, 49, 0
3, 39780, Note_on_c, 0, 59, 0
3, 39840, Note_on_c, 0, 49, 49
3, 39840, Note_on_c, 0, 59, 56
3, 40080, Note_on_c, 0, 59, 0
3, 40080, Note_on_c, 0, 49, 0
3, 40320, Note_on_c, 0, 38, 87
3, 40380, Note_on_c, 0, 38, 0
3, 40440, Note_on_c, 0, 69, 65
3, 40440, Note_on_c, 0, 66, 52
3, 40440, Note_on_c, 0, 62, 52
3, 40440, Note_on_c, 0, 57, 51
3, 40440, Note_on_c, 0, 50, 51
3, 40500, Note_on_c, 0, 50, 0
3, 40500, Note_on_c, 0, 62, 0
3, 40500, Note_on_c, 0, 69, 0
3, 40500, Note_on_c, 0, 66, 0
3, 40500, Note_on_c, 0, 57, 0
3, 40560, Note_on_c, 0, 69, 71
3, 40560, Note_on_c, 0, 66, 56
3, 40560, Note_on_c, 0, 62, 56
3, 40560, Note_on_c, 0, 57, 55
3, 40560, Note_on_c, 0, 50, 55
3, 40620, Note_on_c, 0, 50, 0
3, 40620, Note_on_c, 0, 62, 0
3, 40620, Note_on_c, 0, 69, 0
3, 40620, Note_on_c, 0, 66, 0
3, 40620, Note_on_c, 0, 57, 0
3, 40680, Note_on_c, 0, 69, 75
3, 40680, Note_on_c, 0, 66, 60
3, 40680, Note_on_c, 0, 62, 60
3, 40680, Note_on_c, 0, 57, 60
3, 40680, Note_on_c, 0, 50, 60
3, 40740, Note_on_c, 0, 50, 0
3, 40740, Note_on_c, 0, 62, 0
3, 40740, Note_on_c, 0, 69, 0
3, 40740, Note_on_c, 0, 66, 0
3, 40740, Note_on_c, 0, 57, 0
3, 40800, Note_on_c, 0, 69, 77
3, 40800, Note_on_c, 0, 66, 61
3, 40800, Note_on_c, 0, 62, 61
3, 40800, Note_on_c, 0, 57, 61
3, 40800, Note_on_c, 0, 50, 61
3, 40860, Note_on_c, 0, 50, 0
3, 40860, Note_on_c, 0, 62, 0
3, 40860, Note_on_c, 0, 69, 0
3, 40860, Note_on_c, 0, 66, 0
3, 40860, Note_on_c, 0, 57, 0
3, 40920, Note_on_c, 0, 69, 64
3, 40920, Note_on_c, 0, 66, 51
3, 40920, Note_on_c, 0, 50, 51
3, 40920, Note_on_c, 0, 57, 51
3, 40920, Note_on_c, 0, 62, 51
3, 40980, Note_on_c, 0, 62, 0
3, 40980, Note_on_c, 0, 50, 0
3, 40980, Note_on_c, 0, 69, 0
3, 40980, Note_on_c, 0, 66, 0
3, 40980, Note_on_c, 0, 57, 0
3, 41040, Note_on_c, 0, 62, 62
3, 41040, Note_on_c, 0, 60, 62
3, 41040, Note_on_c, 0, 66, 62
3, 41040, Note_on_c, 0, 69, 79
3, 41040, Note_on_c, 0, 57, 62
3, 41040, Note_on_c, 0, 50, 62
3, 41100, Note_on_c, 0, 50, 0
3, 41100, Note_on_c, 0, 60, 0
3, 41100, Note_on_c, 0, 66, 0
3, 41100, Note_on_c, 0, 62, 0
3, 41100, Note_on_c, 0, 57, 0
3, 41100, Note_on_c, 0, 69, 0
3, 41160, Note_on_c, 0, 62, 57
3, 41160, Note_on_c, 0, 60, 57
3, 41160, Note_on_c, 0, 66, 57
3, 41160, Note_on_c, 0, 69, 73
3, 41160, Note_on_c, 0, 57, 57
3, 41160, Note_on_c, 0, 50, 57
3, 41220, Note_on_c, 0, 50, 0
3, 41220, Note_on_c, 0, 60, 0
3, 41220, Note_on_c, 0, 66, 0
3, 41220, Note_on_c, 0, 62, 0
3, 41220, Note_on_c, 0, 57, 0
3, 41220, Note_on_c, 0, 69, 0
3, 41280, Note_on_c, 0, 60, 68
3, 41280, Note_on_c, 0, 57, 62
3, 41280, Note_on_c, 0, 62, 79
3, 41280, Note_on_c, 0, 50, 62
3, 41340, Note_on_c, 0, 50, 0
3, 41340, Note_on_c, 0, 60, 0
3, 41340, Note_on_c, 0, 57, 0
3, 41340, Note_on_c, 0, 62, 0
3, 41400, Note_on_c, 0, 60, 67
3, 41400, Note_on_c, 0, 62, 67
3, 41400, Note_on_c, 0, 66, 67
3, 41400, Note_on_c, 0, 69, 77
3, 41400, Note_on_c, 0, 50, 67
3, 41400, Note_on_c, 0, 57, 67
3, 41460, Note_on_c, 0, 57, 0
3, 41460, Note_on_c, 0, 62, 0
3, 41460, Note_on_c, 0, 66, 0
3, 41460, Note_on_c, 0, 60, 0
3, 41460, Note_on_c, 0, 50, 0
3, 41460, Note_on_c, 0, 69, 0
3, 41520, Note_on_c, 0, 60, 68
3, 41520, Note_on_c, 0, 62, 86
3, 41520, Note_on_c, 0, 57, 68
3, 41520, Note_on_c, 0, 50, 68
3, 41580, Note_on_c, 0, 50, 0
3, 41580, Note_on_c, 0, 60, 0
3, 41580, Note_on_c, 0, 62, 0
3, 41580, Note_on_c, 0, 57, 0
3, 41640, Note_on_c, 0, 66, 57
3, 41640, Note_on_c, 0, 60, 57
3, 41640, Note_on_c, 0, 62, 57
3, 41640, Note_on_c, 0, 57, 57
3, 41640, Note_on_c, 0, 69, 72
3, 41640, Note_on_c, 0, 50, 57
3, 41700, Note_on_c, 0, 50, 0
3, 41700, Note_on_c, 0, 60, 0
3, 41700, Note_on_c, 0, 62, 0
3, 41700, Note_on_c, 0, 66, 0
3, 41700, Note_on_c, 0, 69, 0
3, 41700, Note_on_c, 0, 57, 0
3, 41760, Note_on_c, 0, 43, 87
3, 41820, Note_on_c, 0, 43, 0
3, 41880, Note_on_c, 0, 62, 55
3, 41880, Note_on_c, 0, 67, 70
3, 41880, Note_on_c, 0, 59, 55
3, 41880, Note_on_c, 0, 55, 55
3, 41940, Note_on_c, 0, 55, 0
3, 41940, Note_on_c, 0, 62, 0
3, 41940, Note_on_c, 0, 67, 0
3, 41940, Note_on_c, 0, 59, 0
3, 42000, Note_on_c, 0, 59, 74
3, 42000, Note_on_c, 0, 55, 58
3, 42060, Note_on_c, 0, 55, 0
3, 42060, Note_on_c, 0, 59, 0
3, 42120, Note_on_c, 0, 59, 75
3, 42120, Note_on_c, 0, 55, 60
3, 42180, Note_on_c, 0, 55, 0
3, 42180, Note_on_c, 0, 59, 0
3, 42240, Note_on_c, 0, 58, 74
3, 42240, Note_on_c, 0, 55, 59
3, 42300, Note_on_c, 0, 55, 0
3, 42300, Note_on_c, 0, 58, 0
3, 42360, Note_on_c, 0, 55, 47
3, 42360, Note_on_c, 0, 58, 60
3, 42420, Note_on_c, 0, 58, 0
3, 42420, Note_on_c, 0, 55, 0
3, 42480, Note_on_c, 0, 45, 69
3, 42540, Note_on_c, 0, 45, 0
3, 42600, Note_on_c, 0, 57, 45
3, 42600, Note_on_c, 0, 62, 58
3, 42600, Note_on_c, 0, 55, 45
3, 42600, Note_on_c, 0, 52, 45
3, 42660, Note_on_c, 0, 52, 0
3, 42660, Note_on_c, 0, 57, 0
3, 42660, Note_on_c, 0, 62, 0
3, 42660, Note_on_c, 0, 55, 0
3, 42720, Note_on_c, 0, 52, 49
3, 42720, Note_on_c, 0, 57, 49
3, 42720, Note_on_c, 0, 62, 63
3, 42720, Note_on_c, 0, 55, 49
3, 42780, Note_on_c, 0, 55, 0
3, 42780, Note_on_c, 0, 52, 0
3, 42780, Note_on_c, 0, 57, 0
3, 42780, Note_on_c, 0, 62, 0
3, 42840, Note_on_c, 0, 52, 53
3, 42840, Note_on_c, 0, 57, 53
3, 42840, Note_on_c, 0, 62, 67
3, 42840, Note_on_c, 0, 55, 53
3, 42900, Note_on_c, 0, 55, 0
3, 42900, Note_on_c, 0, 52, 0
3, 42900, Note_on_c, 0, 57, 0
3, 42900, Note_on_c, 0, 62, 0
3, 42960, Note_on_c, 0, 55, 54
3, 42960, Note_on_c, 0, 57, 68
3, 42960, Note_on_c, 0, 52, 54
3, 43020, Note_on_c, 0, 52, 0
3, 43020, Note_on_c, 0, 57, 0
3, 43020, Note_on_c, 0, 55, 0
3, 43080, Note_on_c, 0, 57, 45
3, 43080, Note_on_c, 0, 55, 45
3, 43080, Note_on_c, 0, 61, 45
3, 43080, Note_on_c, 0, 52, 45
3, 43080, Note_on_c, 0, 64, 57
3, 43140, Note_on_c, 0, 64, 0
3, 43140, Note_on_c, 0, 61, 0
3, 43140, Note_on_c, 0, 57, 0
3, 43140, Note_on_c, 0, 55, 0
3, 43140, Note_on_c, 0, 52, 0
3, 43200, Note_on_c, 0, 50, 69
3, 43260, Note_on_c, 0, 50, 0
3, 43320, Note_on_c, 0, 57, 45
3, 43320, Note_on_c, 0, 62, 58
3, 43320, Note_on_c, 0, 54, 45
3, 43380, Note_on_c, 0, 54, 0
3, 43380, Note_on_c, 0, 62, 0
3, 43380, Note_on_c, 0, 57, 0
3, 43440, Note_on_c, 0, 54, 49
3, 43440, Note_on_c, 0, 57, 49
3, 43440, Note_on_c, 0, 62, 63
3, 43500, Note_on_c, 0, 62, 0
3, 43500, Note_on_c, 0, 57, 0
3, 43500, Note_on_c, 0, 54, 0
3, 43560, Note_on_c, 0, 54, 53
3, 43560, Note_on_c, 0, 57, 53
3, 43560, Note_on_c, 0, 62, 67
3, 43620, Note_on_c, 0, 62, 0
3, 43620, Note_on_c, 0, 57, 0
3, 43620, Note_on_c, 0, 54, 0
3, 43680, Note_on_c, 0, 57, 54
3, 43680, Note_on_c, 0, 62, 68
3, 43680, Note_on_c, 0, 54, 54
3, 43740, Note_on_c, 0, 54, 0
3, 43740, Note_on_c, 0, 62, 0
3, 43740, Note_on_c, 0, 57, 0
3, 43800, Note_on_c, 0, 57, 45
3, 43800, Note_on_c, 0, 54, 45
3, 43800, Note_on_c, 0, 62, 57
3, 43860, Note_on_c, 0, 62, 0
3, 43860, Note_on_c, 0, 54, 0
3, 43860, Note_on_c, 0, 57, 0
3, 43920, Note_on_c, 0, 50, 69
3, 43980, Note_on_c, 0, 50, 0
3, 44040, Note_on_c, 0, 62, 57
3, 44040, Note_on_c, 0, 60, 57
3, 44040, Note_on_c, 0, 66, 57
3, 44040, Note_on_c, 0, 69, 73
3, 44040, Note_on_c, 0, 57, 57
3, 44100, Note_on_c, 0, 57, 0
3, 44100, Note_on_c, 0, 66, 0
3, 44100, Note_on_c, 0, 62, 0
3, 44100, Note_on_c, 0, 60, 0
3, 44100, Note_on_c, 0, 69, 0
3, 44160, Note_on_c, 0, 60, 68
3, 44160, Note_on_c, 0, 57, 62
3, 44160, Note_on_c, 0, 62, 79
3, 44220, Note_on_c, 0, 62, 0
3, 44220, Note_on_c, 0, 57, 0
3, 44220, Note_on_c, 0, 60, 0
3, 44280, Note_on_c, 0, 60, 67
3, 44280, Note_on_c, 0, 62, 67
3, 44280, Note_on_c, 0, 66, 67
3, 44280, Note_on_c, 0, 69, 76
3, 44280, Note_on_c, 0, 57, 67
3, 44340, Note_on_c, 0, 57, 0
3, 44340, Note_on_c, 0, 66, 0
3, 44340, Note_on_c, 0, 60, 0
3, 44340, Note_on_c, 0, 62, 0
3, 44340, Note_on_c, 0, 69, 0
3, 44400, Note_on_c, 0, 60, 68
3, 44400, Note_on_c, 0, 62, 86
3, 44400, Note_on_c, 0, 57, 68
3, 44460, Note_on_c, 0, 57, 0
3, 44460, Note_on_c, 0, 62, 0
3, 44460, Note_on_c, 0, 60, 0
3, 44520, Note_on_c, 0, 66, 57
3, 44520, Note_on_c, 0, 60, 57
3, 44520, Note_on_c, 0, 62, 57
3, 44520, Note_on_c, 0, 57, 57
3, 44520, Note_on_c, 0, 69, 72
3, 44580, Note_on_c, 0, 69, 0
3, 44580, Note_on_c, 0, 62, 0
3, 44580, Note_on_c, 0, 66, 0
3, 44580, Note_on_c, 0, 60, 0
3, 44580, Note_on_c, 0, 57, 0
3, 44640, Note_on_c, 0, 55, 87
3, 44700, Note_on_c, 0, 55, 0
3, 44760, Note_on_c, 0, 59, 53
3, 44760, Note_on_c, 0, 62, 53
3, 44820, Note_on_c, 0, 62, 0
3, 44820, Note_on_c, 0, 59, 0
3, 44880, Note_on_c, 0, 59, 69
3, 44880, Note_on_c, 0, 62, 54
3, 44940, Note_on_c, 0, 62, 0
3, 44940, Note_on_c, 0, 59, 0
3, 45000, Note_on_c, 0, 59, 67
3, 45000, Note_on_c, 0, 62, 54
3, 45060, Note_on_c, 0, 62, 0
3, 45060, Note_on_c, 0, 59, 0
3, 45120, Note_on_c, 0, 59, 64
3, 45120, Note_on_c, 0, 62, 51
3, 45180, Note_on_c, 0, 62, 0
3, 45180, Note_on_c, 0, 59, 0
3, 45240, Note_on_c, 0, 62, 39
3, 45240, Note_on_c, 0, 59, 50
3, 45300, Note_on_c, 0, 59, 0
3, 45300, Note_on_c, 0, 62, 0
3, 45360, Note_on_c, 0, 43, 55
3, 45480, Note_on_c, 0, 55, 44
3, 45480, Note_on_c, 0, 60, 44
3, 45540, Note_on_c, 0, 60, 0
3, 45540, Note_on_c, 0, 55, 0
3, 45600, Note_on_c, 0, 55, 44
3, 45600, Note_on_c, 0, 60, 59
3, 45600, Note_on_c, 0, 52, 50
3, 45660, Note_on_c, 0, 60, 0
3, 45660, Note_on_c, 0, 55, 0
3, 45720, Note_on_c, 0, 55, 44
3, 45720, Note_on_c, 0, 60, 44
3, 45780, Note_on_c, 0, 60, 0
3, 45780, Note_on_c, 0, 55, 0
3, 45840, Note_on_c, 0, 52, 0
3, 45840, Note_on_c, 0, 51, 54
3, 45960, Note_on_c, 0, 55, 44
3, 45960, Note_on_c, 0, 60, 44
3, 46020, Note_on_c, 0, 60, 0
3, 46020, Note_on_c, 0, 55, 0
3, 46080, Note_on_c, 0, 51, 0
3, 46200, Note_on_c, 0, 55, 44
3, 46200, Note_on_c, 0, 59, 44
3, 46260, Note_on_c, 0, 59, 0
3, 46260, Note_on_c, 0, 55, 0
3, 46320, Note_on_c, 0, 55, 44
3, 46320, Note_on_c, 0, 59, 59
3, 46380, Note_on_c, 0, 59, 0
3, 46380, Note_on_c, 0, 55, 0
3, 46440, Note_on_c, 0, 55, 44
3, 46440, Note_on_c, 0, 59, 44
3, 46500, Note_on_c, 0, 59, 0
3, 46500, Note_on_c, 0, 55, 0
3, 46560, Note_on_c, 0, 43, 0
3, 46680, Note_on_c, 0, 55, 37
3, 46680, Note_on_c, 0, 59, 37
3, 46740, Note_on_c, 0, 59, 0
3, 46740, Note_on_c, 0, 55, 0
3, 46800, Note_on_c, 0, 43, 46
3, 46920, Note_on_c, 0, 55, 37
3, 46920, Note_on_c, 0, 60, 37
3, 46980, Note_on_c, 0, 60, 0
3, 46980, Note_on_c, 0, 55, 0
3, 47040, Note_on_c, 0, 55, 37
3, 47040, Note_on_c, 0, 60, 50
3, 47040, Note_on_c, 0, 52, 42
3, 47100, Note_on_c, 0, 60, 0
3, 47100, Note_on_c, 0, 55, 0
3, 47160, Note_on_c, 0, 55, 37
3, 47160, Note_on_c, 0, 60, 37
3, 47220, Note_on_c, 0, 60, 0
3, 47220, Note_on_c, 0, 55, 0
3, 47280, Note_on_c, 0, 52, 0
3, 47280, Note_on_c, 0, 51, 45
3, 47400, Note_on_c, 0, 55, 37
3, 47400, Note_on_c, 0, 60, 37
3, 47460, Note_on_c, 0, 60, 0
3, 47460, Note_on_c, 0, 55, 0
3, 47520, Note_on_c, 0, 51, 0
3, 47520, Note_on_c, 0, 50, 45
3, 47640, Note_on_c, 0, 55, 31
3, 47640, Note_on_c, 0, 59, 37
3, 47700, Note_on_c, 0, 59, 0
3, 47700, Note_on_c, 0, 55, 0
3, 47760, Note_on_c, 0, 55, 32
3, 47760, Note_on_c, 0, 59, 51
3, 47820, Note_on_c, 0, 59, 0
3, 47820, Note_on_c, 0, 55, 0
3, 47880, Note_on_c, 0, 55, 33
3, 47880, Note_on_c, 0, 59, 39
3, 47940, Note_on_c, 0, 59, 0
3, 47940, Note_on_c, 0, 55, 0
3, 48000, Note_on_c, 0, 50, 0
3, 48000, Note_on_c, 0, 43, 0
3, 48120, Note_on_c, 0, 55, 34
3, 48120, Note_on_c, 0, 59, 41
3, 48180, Note_on_c, 0, 59, 0
3, 48180, Note_on_c, 0, 55, 0
3, 48360, Note_on_c, 0, 55, 31
3, 48360, Note_on_c, 0, 59, 37
3, 48420, Note_on_c, 0, 59, 0
3, 48420, Note_on_c, 0, 55, 0
3, 48480, Note_on_c, 0, 31, 43
3, 48480, Note_on_c, 0, 43, 46
3, 48480, Note_on_c, 0, 55, 32
3, 48480, Note_on_c, 0, 59, 51
3, 48540, Note_on_c, 0, 59, 0
3, 48540, Note_on_c, 0, 55, 0
3, 48600, Note_on_c, 0, 55, 33
3, 48600, Note_on_c, 0, 59, 39
3, 48660, Note_on_c, 0, 59, 0
3, 48660, Note_on_c, 0, 55, 0
3, 48720, Note_on_c, 0, 43, 0
3, 48720, Note_on_c, 0, 31, 0
3, 48840, Note_on_c, 0, 55, 34
3, 48840, Note_on_c, 0, 59, 41
3, 48900, Note_on_c, 0, 59, 0
3, 48900, Note_on_c, 0, 55, 0
3, 49080, Note_on_c, 0, 59, 34
3, 49080, Note_on_c, 0, 62, 41
3, 49140, Note_on_c, 0, 62, 0
3, 49140, Note_on_c, 0, 59, 0
3, 49200, Note_on_c, 0, 32, 49
3, 49200, Note_on_c, 0, 44, 52
3, 49200, Note_on_c, 0, 59, 36
3, 49200, Note_on_c, 0, 62, 58
3, 49260, Note_on_c, 0, 62, 0
3, 49260, Note_on_c, 0, 59, 0
3, 49320, Note_on_c, 0, 59, 38
3, 49320, Note_on_c, 0, 62, 45
3, 49380, Note_on_c, 0, 62, 0
3, 49380, Note_on_c, 0, 59, 0
3, 49440, Note_on_c, 0, 44, 0
3, 49440, Note_on_c, 0, 32, 0
3, 49560, Note_on_c, 0, 59, 41
3, 49560, Note_on_c, 0, 62, 50
3, 49620, Note_on_c, 0, 62, 0
3, 49620, Note_on_c, 0, 59, 0
3, 49800, Note_on_c, 0, 59, 39
3, 49800, Note_on_c, 0, 62, 46
3, 49860, Note_on_c, 0, 62, 0
3, 49860, Note_on_c, 0, 59, 0
3, 49920, Note_on_c, 0, 52, 59
3, 49920, Note_on_c, 0, 40, 55
3, 50040, Note_on_c, 0, 59, 43
3, 50040, Note_on_c, 0, 62, 51
3, 50100, Note_on_c, 0, 62, 0
3, 50100, Note_on_c, 0, 59, 0
3, 50160, Note_on_c, 0, 40, 0
3, 50160, Note_on_c, 0, 52, 0
3, 50280, Note_on_c, 0, 59, 46
3, 50280, Note_on_c, 0, 62, 56
3, 50340, Note_on_c, 0, 62, 0
3, 50340, Note_on_c, 0, 59, 0
3, 50520, Note_on_c, 0, 57, 43
3, 50520, Note_on_c, 0, 61, 51
3, 50580, Note_on_c, 0, 61, 0
3, 50580, Note_on_c, 0, 57, 0
3, 50640, Note_on_c, 0, 33, 60
3, 50640, Note_on_c, 0, 45, 64
3, 50640, Note_on_c, 0, 57, 44
3, 50640, Note_on_c, 0, 61, 71
3, 50700, Note_on_c, 0, 61, 0
3, 50700, Note_on_c, 0, 57, 0
3, 50760, Note_on_c, 0, 57, 46
3, 50760, Note_on_c, 0, 61, 54
3, 50820, Note_on_c, 0, 61, 0
3, 50820, Note_on_c, 0, 57, 0
3, 50880, Note_on_c, 0, 45, 0
3, 50880, Note_on_c, 0, 33, 0
3, 51000, Note_on_c, 0, 57, 34
3, 51000, Note_on_c, 0, 61, 41
3, 51060, Note_on_c, 0, 61, 0
3, 51060, Note_on_c, 0, 57, 0
3, 51240, Note_on_c, 0, 57, 33
3, 51240, Note_on_c, 0, 61, 39
3, 51300, Note_on_c, 0, 61, 0
3, 51300, Note_on_c, 0, 57, 0
3, 51360, Note_on_c, 0, 33, 47
3, 51360, Note_on_c, 0, 45, 51
3, 51360, Note_on_c, 0, 57, 35
3, 51360, Note_on_c, 0, 61, 56
3, 51420, Note_on_c, 0, 61, 0
3, 51420, Note_on_c, 0, 57, 0
3, 51480, Note_on_c, 0, 57, 37
3, 51480, Note_on_c, 0, 61, 44
3, 51540, Note_on_c, 0, 61, 0
3, 51540, Note_on_c, 0, 57, 0
3, 51600, Note_on_c, 0, 45, 0
3, 51600, Note_on_c, 0, 33, 0
3, 51720, Note_on_c, 0, 57, 40
3, 51720, Note_on_c, 0, 61, 49
3, 51780, Note_on_c, 0, 61, 0
3, 51780, Note_on_c, 0, 57, 0
3, 51960, Note_on_c, 0, 61, 38
3, 51960, Note_on_c, 0, 64, 46
3, 52020, Note_on_c, 0, 64, 0
3, 52020, Note_on_c, 0, 61, 0
3, 52080, Note_on_c, 0, 34, 55
3, 52080, Note_on_c, 0, 46, 58
3, 52080, Note_on_c, 0, 61, 40
3, 52080, Note_on_c, 0, 64, 65
3, 52140, Note_on_c, 0, 64, 0
3, 52140, Note_on_c, 0, 61, 0
3, 52200, Note_on_c, 0, 61, 43
3, 52200, Note_on_c, 0, 64, 51
3, 52260, Note_on_c, 0, 64, 0
3, 52260, Note_on_c, 0, 61, 0
3, 52320, Note_on_c, 0, 46, 0
3, 52320, Note_on_c, 0, 34, 0
3, 52440, Note_on_c, 0, 61, 46
3, 52440, Note_on_c, 0, 64, 56
3, 52500, Note_on_c, 0, 64, 0
3, 52500, Note_on_c, 0, 61, 0
3, 52680, Note_on_c, 0, 61, 41
3, 52680, Note_on_c, 0, 64, 49
3, 52740, Note_on_c, 0, 64, 0
3, 52740, Note_on_c, 0, 61, 0
3, 52800, Note_on_c, 0, 54, 62
3, 52800, Note_on_c, 0, 42, 58
3, 52920, Note_on_c, 0, 61, 44
3, 52920, Note_on_c, 0, 64, 52
3, 52980, Note_on_c, 0, 64, 0
3, 52980, Note_on_c, 0, 61, 0
3, 53040, Note_on_c, 0, 42, 0
3, 53040, Note_on_c, 0, 54, 0
3, 53160, Note_on_c, 0, 61, 45
3, 53160, Note_on_c, 0, 64, 55
3, 53220, Note_on_c, 0, 64, 0
3, 53220, Note_on_c, 0, 61, 0
3, 53400, Note_on_c, 0, 59, 41
3, 53400, Note_on_c, 0, 63, 49
3, 53460, Note_on_c, 0, 63, 0
3, 53460, Note_on_c, 0, 59, 0
3, 53520, Note_on_c, 0, 35, 58
3, 53520, Note_on_c, 0, 47, 62
3, 53520, Note_on_c, 0, 59, 43
3, 53520, Note_on_c, 0, 63, 68
3, 53580, Note_on_c, 0, 63, 0
3, 53580, Note_on_c, 0, 59, 0
3, 53640, Note_on_c, 0, 59, 44
3, 53640, Note_on_c, 0, 63, 52
3, 53700, Note_on_c, 0, 63, 0
3, 53700, Note_on_c, 0, 59, 0
3, 53760, Note_on_c, 0, 47, 0
3, 53760, Note_on_c, 0, 35, 0
3, 53760, Note_on_c, 0, 47, 58
3, 53880, Note_on_c, 0, 59, 45
3, 53880, Note_on_c, 0, 63, 45
3, 53880, Note_on_c, 0, 66, 55
3, 53940, Note_on_c, 0, 66, 0
3, 53940, Note_on_c, 0, 63, 0
3, 53940, Note_on_c, 0, 59, 0
3, 54000, Note_on_c, 0, 47, 0
3, 54000, Note_on_c, 0, 47, 62
3, 54120, Note_on_c, 0, 66, 43
3, 54120, Note_on_c, 0, 69, 68
3, 54180, Note_on_c, 0, 69, 0
3, 54180, Note_on_c, 0, 66, 0
3, 54240, Note_on_c, 0, 47, 0
3, 54240, Note_on_c, 0, 49, 68
3, 54240, Note_on_c, 0, 66, 34
3, 54240, Note_on_c, 0, 69, 54
3, 54300, Note_on_c, 0, 69, 0
3, 54300, Note_on_c, 0, 66, 0
3, 54300, Note_on_c, 0, 49, 0
3, 54360, Note_on_c, 0, 51, 73
3, 54360, Note_on_c, 0, 66, 35
3, 54360, Note_on_c, 0, 69, 41
3, 54420, Note_on_c, 0, 69, 0
3, 54420, Note_on_c, 0, 66, 0
3, 54420, Note_on_c, 0, 51, 0
3, 54480, Note_on_c, 0, 52, 72
3, 54540, Note_on_c, 0, 52, 0
3, 54600, Note_on_c, 0, 54, 76
3, 54600, Note_on_c, 0, 66, 76
3, 54600, Note_on_c, 0, 69, 76
3, 54660, Note_on_c, 0, 69, 0
3, 54660, Note_on_c, 0, 66, 0
3, 54660, Note_on_c, 0, 54, 0
3, 54720, Note_on_c, 0, 55, 84
3, 54840, Note_on_c, 0, 59, 59
3, 54840, Note_on_c, 0, 67, 70
3, 54840, Note_on_c, 0, 64, 59
3, 54900, Note_on_c, 0, 64, 0
3, 54900, Note_on_c, 0, 67, 0
3, 54900, Note_on_c, 0, 59, 0
3, 54960, Note_on_c, 0, 64, 56
3, 54960, Note_on_c, 0, 67, 66
3, 54960, Note_on_c, 0, 59, 56
3, 55020, Note_on_c, 0, 59, 0
3, 55020, Note_on_c, 0, 67, 0
3, 55020, Note_on_c, 0, 64, 0
3, 55080, Note_on_c, 0, 64, 57
3, 55080, Note_on_c, 0, 67, 68
3, 55080, Note_on_c, 0, 59, 57
3, 55140, Note_on_c, 0, 59, 0
3, 55140, Note_on_c, 0, 67, 0
3, 55140, Note_on_c, 0, 64, 0
3, 55200, Note_on_c, 0, 64, 59
3, 55200, Note_on_c, 0, 67, 70
3, 55200, Note_on_c, 0, 59, 59
3, 55260, Note_on_c, 0, 59, 0
3, 55260, Note_on_c, 0, 67, 0
3, 55260, Note_on_c, 0, 64, 0
3, 55320, Note_on_c, 0, 64, 61
3, 55320, Note_on_c, 0, 67, 72
3, 55320, Note_on_c, 0, 59, 61
3, 55380, Note_on_c, 0, 59, 0
3, 55380, Note_on_c, 0, 67, 0
3, 55380, Note_on_c, 0, 64, 0
3, 55440, Note_on_c, 0, 55, 0
3, 55440, Note_on_c, 0, 47, 72
3, 55560, Note_on_c, 0, 47, 0
3, 55560, Note_on_c, 0, 55, 59
3, 55560, Note_on_c, 0, 62, 59
3, 55560, Note_on_c, 0, 65, 70
3, 55650, Note_on_c, 0, 65, 0
3, 55650, Note_on_c, 0, 62, 0
3, 55650, Note_on_c, 0, 55, 0
3, 55680, Note_on_c, 0, 65, 70
3, 55680, Note_on_c, 0, 62, 59
3, 55680, Note_on_c, 0, 55, 59
3, 55770, Note_on_c, 0, 55, 0
3, 55770, Note_on_c, 0, 62, 0
3, 55770, Note_on_c, 0, 65, 0
3, 55800, Note_on_c, 0, 55, 59
3, 55800, Note_on_c, 0, 62, 59
3, 55800, Note_on_c, 0, 65, 70
3, 55890, Note_on_c, 0, 65, 0
3, 55890, Note_on_c, 0, 62, 0
3, 55890, Note_on_c, 0, 55, 0
3, 55920, Note_on_c, 0, 55, 59
3, 55920, Note_on_c, 0, 62, 59
3, 55920, Note_on_c, 0, 65, 70
3, 56010, Note_on_c, 0, 65, 0
3, 56010, Note_on_c, 0, 62, 0
3, 56010, Note_on_c, 0, 55, 0
3, 56040, Note_on_c, 0, 55, 59
3, 56040, Note_on_c, 0, 62, 59
3, 56040, Note_on_c, 0, 65, 70
3, 56130, Note_on_c, 0, 65, 0
3, 56130, Note_on_c, 0, 62, 0
3, 56130, Note_on_c, 0, 55, 0
3, 56160, Note_on_c, 0, 48, 72
3, 56280, Note_on_c, 0, 48, 0
3, 56280, Note_on_c, 0, 55, 59
3, 56280, Note_on_c, 0, 60, 59
3, 56280, Note_on_c, 0, 64, 70
3, 56370, Note_on_c, 0, 64, 0
3, 56370, Note_on_c, 0, 60, 0
3, 56370, Note_on_c, 0, 55, 0
3, 56400, Note_on_c, 0, 64, 70
3, 56400, Note_on_c, 0, 60, 59
3, 56400, Note_on_c, 0, 55, 59
3, 56490, Note_on_c, 0, 55, 0
3, 56490, Note_on_c, 0, 60, 0
3, 56490, Note_on_c, 0, 64, 0
3, 56520, Note_on_c, 0, 60, 44
3, 56520, Note_on_c, 0, 64, 52
3, 56580, Note_on_c, 0, 64, 0
3, 56580, Note_on_c, 0, 60, 0
3, 56640, Note_on_c, 0, 60, 59
3, 56640, Note_on_c, 0, 64, 70
3, 56640, Note_on_c, 0, 43, 58
3, 56700, Note_on_c, 0, 64, 0
3, 56700, Note_on_c, 0, 60, 0
3, 56760, Note_on_c, 0, 60, 45
3, 56760, Note_on_c, 0, 64, 55
3, 56820, Note_on_c, 0, 64, 0
3, 56820, Note_on_c, 0, 60, 0
3, 56880, Note_on_c, 0, 43, 0
3, 56880, Note_on_c, 0, 43, 62
3, 57000, Note_on_c, 0, 62, 43
3, 57000, Note_on_c, 0, 65, 68
3, 57060, Note_on_c, 0, 65, 0
3, 57060, Note_on_c, 0, 62, 0
3, 57120, Note_on_c, 0, 43, 0
3, 57120, Note_on_c, 0, 45, 68
3, 57120, Note_on_c, 0, 62, 34
3, 57120, Note_on_c, 0, 65, 54
3, 57180, Note_on_c, 0, 65, 0
3, 57180, Note_on_c, 0, 62, 0
3, 57180, Note_on_c, 0, 45, 0
3, 57240, Note_on_c, 0, 47, 73
3, 57240, Note_on_c, 0, 62, 35
3, 57240, Note_on_c, 0, 65, 41
3, 57300, Note_on_c, 0, 65, 0
3, 57300, Note_on_c, 0, 62, 0
3, 57300, Note_on_c, 0, 47, 0
3, 57360, Note_on_c, 0, 48, 76
3, 57420, Note_on_c, 0, 48, 0
3, 57480, Note_on_c, 0, 50, 78
3, 57480, Note_on_c, 0, 62, 78
3, 57480, Note_on_c, 0, 65, 78
3, 57540, Note_on_c, 0, 65, 0
3, 57540, Note_on_c, 0, 62, 0
3, 57540, Note_on_c, 0, 50, 0
3, 57600, Note_on_c, 0, 52, 84
3, 57720, Note_on_c, 0, 55, 59
3, 57720, Note_on_c, 0, 64, 70
3, 57720, Note_on_c, 0, 60, 59
3, 57780, Note_on_c, 0, 60, 0
3, 57780, Note_on_c, 0, 64, 0
3, 57780, Note_on_c, 0, 55, 0
3, 57840, Note_on_c, 0, 60, 56
3, 57840, Note_on_c, 0, 64, 66
3, 57840, Note_on_c, 0, 55, 56
3, 57900, Note_on_c, 0, 55, 0
3, 57900, Note_on_c, 0, 64, 0
3, 57900, Note_on_c, 0, 60, 0
3, 57960, Note_on_c, 0, 60, 57
3, 57960, Note_on_c, 0, 64, 68
3, 57960, Note_on_c, 0, 55, 57
3, 58020, Note_on_c, 0, 55, 0
3, 58020, Note_on_c, 0, 64, 0
3, 58020, Note_on_c, 0, 60, 0
3, 58080, Note_on_c, 0, 60, 59
3, 58080, Note_on_c, 0, 64, 70
3, 58080, Note_on_c, 0, 55, 59
3, 58140, Note_on_c, 0, 55, 0
3, 58140, Note_on_c, 0, 64, 0
3, 58140, Note_on_c, 0, 60, 0
3, 58200, Note_on_c, 0, 60, 61
3, 58200, Note_on_c, 0, 64, 72
3, 58200, Note_on_c, 0, 55, 61
3, 58260, Note_on_c, 0, 55, 0
3, 58260, Note_on_c, 0, 64, 0
3, 58260, Note_on_c, 0, 60, 0
3, 58320, Note_on_c, 0, 52, 0
3, 58320, Note_on_c, 0, 44, 72
3, 58440, Note_on_c, 0, 44, 0
3, 58440, Note_on_c, 0, 52, 53
3, 58440, Note_on_c, 0, 59, 53
3, 58440, Note_on_c, 0, 62, 63
3, 58530, Note_on_c, 0, 62, 0
3, 58530, Note_on_c, 0, 59, 0
3, 58530, Note_on_c, 0, 52, 0
3, 58560, Note_on_c, 0, 62, 70
3, 58560, Note_on_c, 0, 59, 59
3, 58560, Note_on_c, 0, 52, 59
3, 58650, Note_on_c, 0, 52, 0
3, 58650, Note_on_c, 0, 59, 0
3, 58650, Note_on_c, 0, 62, 0
3, 58680, Note_on_c, 0, 52, 53
3, 58680, Note_on_c, 0, 59, 53
3, 58680, Note_on_c, 0, 62, 63
3, 58770, Note_on_c, 0, 62, 0
3, 58770, Note_on_c, 0, 59, 0
3, 58770, Note_on_c, 0, 52, 0
3, 58800, Note_on_c, 0, 52, 59
3, 58800, Note_on_c, 0, 59, 59
3, 58800, Note_on_c, 0, 62, 70
3, 58890, Note_on_c, 0, 62, 0
3, 58890, Note_on_c, 0, 59, 0
3, 58890, Note_on_c, 0, 52, 0
3, 58920, Note_on_c, 0, 52, 53
3, 58920, Note_on_c, 0, 59, 53
3, 58920, Note_on_c, 0, 62, 63
3, 59010, Note_on_c, 0, 62, 0
3, 59010, Note_on_c, 0, 59, 0
3, 59010, Note_on_c, 0, 52, 0
3, 59040, Note_on_c, 0, 45, 72
3, 59160, Note_on_c, 0, 45, 0
3, 59160, Note_on_c, 0, 57, 59
3, 59160, Note_on_c, 0, 60, 70
3, 59250, Note_on_c, 0, 60, 0
3, 59250, Note_on_c, 0, 57, 0
3, 59280, Note_on_c, 0, 60, 70
3, 59280, Note_on_c, 0, 57, 59
3, 59370, Note_on_c, 0, 57, 0
3, 59370, Note_on_c, 0, 60, 0
3, 59400, Note_on_c, 0, 55, 59
3, 59400, Note_on_c, 0, 57, 59
3, 59400, Note_on_c, 0, 60, 70
3, 59490, Note_on_c, 0, 60, 0
3, 59490, Note_on_c, 0, 57, 0
3, 59490, Note_on_c, 0, 55, 0
3, 59520, Note_on_c, 0, 55, 59
3, 59520, Note_on_c, 0, 57, 59
3, 59520, Note_on_c, 0, 60, 70
3, 59610, Note_on_c, 0, 60, 0
3, 59610, Note_on_c, 0, 57, 0
3, 59610, Note_on_c, 0, 55, 0
3, 59640, Note_on_c, 0, 54, 59
3, 59640, Note_on_c, 0, 57, 59
3, 59640, Note_on_c, 0, 60, 70
3, 59730, Note_on_c, 0, 60, 0
3, 59730, Note_on_c, 0, 57, 0
3, 59730, Note_on_c, 0, 54, 0
3, 59760, Note_on_c, 0, 51, 70
3, 59760, Note_on_c, 0, 54, 70
3, 59760, Note_on_c, 0, 57, 70
3, 59760, Note_on_c, 0, 59, 70
3, 59820, Note_on_c, 0, 59, 0
3, 59820, Note_on_c, 0, 51, 0
3, 59820, Note_on_c, 0, 54, 0
3, 59820, Note_on_c, 0, 57, 0
3, 59880, Note_on_c, 0, 54, 45
3, 59880, Note_on_c, 0, 51, 45
3, 59880, Note_on_c, 0, 57, 45
3, 59880, Note_on_c, 0, 59, 53
3, 59940, Note_on_c, 0, 54, 0
3, 59941, Note_on_c, 0, 51, 0
3, 59941, Note_on_c, 0, 57, 0
3, 59941, Note_on_c, 0, 59, 0
3, 60000, Note_on_c, 0, 54, 51
3, 60000, Note_on_c, 0, 59, 60
3, 60000, Note_on_c, 0, 57, 51
3, 60000, Note_on_c, 0, 51, 51
3, 60060, Note_on_c, 0, 54, 0
3, 60061, Note_on_c, 0, 59, 0
3, 60061, Note_on_c, 0, 57, 0
3, 60061, Note_on_c, 0, 51, 0
3, 60120, Note_on_c, 0, 54, 52
3, 60120, Note_on_c, 0, 51, 52
3, 60120, Note_on_c, 0, 57, 52
3, 60120, Note_on_c, 0, 59, 62
3, 60180, Note_on_c, 0, 54, 0
3, 60181, Note_on_c, 0, 51, 0
3, 60181, Note_on_c, 0, 57, 0
3, 60181, Note_on_c, 0, 59, 0
3, 60240, Note_on_c, 0, 54, 53
3, 60240, Note_on_c, 0, 51, 53
3, 60240, Note_on_c, 0, 57, 53
3, 60240, Note_on_c, 0, 59, 63
3, 60300, Note_on_c, 0, 54, 0
3, 60301, Note_on_c, 0, 51, 0
3, 60301, Note_on_c, 0, 57, 0
3, 60301, Note_on_c, 0, 59, 0
3, 60360, Note_on_c, 0, 54, 54
3, 60360, Note_on_c, 0, 51, 54
3, 60360, Note_on_c, 0, 57, 54
3, 60360, Note_on_c, 0, 59, 65
3, 60420, Note_on_c, 0, 54, 0
3, 60421, Note_on_c, 0, 51, 0
3, 60421, Note_on_c, 0, 57, 0
3, 60421, Note_on_c, 0, 59, 0
3, 60480, Note_on_c, 0, 52, 56
3, 60480, Note_on_c, 0, 55, 56
3, 60480, Note_on_c, 0, 59, 66
3, 60720, Note_on_c, 0, 59, 0
3, 60720, Note_on_c, 0, 55, 0
3, 60720, Note_on_c, 0, 52, 0
3, 60840, Note_on_c, 0, 64, 54
3, 60840, Note_on_c, 0, 67, 64
3, 60900, Note_on_c, 0, 67, 0
3, 60900, Note_on_c, 0, 64, 0
3, 60960, Note_on_c, 0, 64, 56
3, 60960, Note_on_c, 0, 67, 66
3, 61020, Note_on_c, 0, 67, 0
3, 61020, Note_on_c, 0, 64, 0
3, 61080, Note_on_c, 0, 67, 64
3, 61080, Note_on_c, 0, 64, 54
3, 61140, Note_on_c, 0, 64, 0
3, 61140, Note_on_c, 0, 67, 0
3, 61560, Note_on_c, 0, 62, 52
3, 61560, Note_on_c, 0, 66, 52
3, 61560, Note_on_c, 0, 67, 62
3, 61620, Note_on_c, 0, 67, 0
3, 61620, Note_on_c, 0, 66, 0
3, 61620, Note_on_c, 0, 62, 0
3, 61680, Note_on_c, 0, 62, 54
3, 61680, Note_on_c, 0, 66, 54
3, 61680, Note_on_c, 0, 67, 64
3, 61740, Note_on_c, 0, 67, 0
3, 61740, Note_on_c, 0, 66, 0
3, 61740, Note_on_c, 0, 62, 0
3, 61800, Note_on_c, 0, 62, 51
3, 61800, Note_on_c, 0, 67, 61
3, 61800, Note_on_c, 0, 66, 51
3, 61860, Note_on_c, 0, 66, 0
3, 61860, Note_on_c, 0, 67, 0
3, 61860, Note_on_c, 0, 62, 0
3, 62280, Note_on_c, 0, 61, 50
3, 62280, Note_on_c, 0, 64, 50
3, 62280, Note_on_c, 0, 67, 59
3, 62340, Note_on_c, 0, 67, 0
3, 62340, Note_on_c, 0, 64, 0
3, 62340, Note_on_c, 0, 61, 0
3, 62400, Note_on_c, 0, 61, 51
3, 62400, Note_on_c, 0, 64, 51
3, 62400, Note_on_c, 0, 67, 60
3, 62460, Note_on_c, 0, 67, 0
3, 62460, Note_on_c, 0, 64, 0
3, 62460, Note_on_c, 0, 61, 0
3, 62520, Note_on_c, 0, 61, 49
3, 62520, Note_on_c, 0, 67, 58
3, 62520, Note_on_c, 0, 64, 49
3, 62580, Note_on_c, 0, 64, 0
3, 62580, Note_on_c, 0, 67, 0
3, 62580, Note_on_c, 0, 61, 0
3, 63000, Note_on_c, 0, 62, 47
3, 63000, Note_on_c, 0, 66, 56
3, 63060, Note_on_c, 0, 66, 0
3, 63060, Note_on_c, 0, 62, 0
3, 63120, Note_on_c, 0, 62, 48
3, 63120, Note_on_c, 0, 66, 57
3, 63180, Note_on_c, 0, 66, 0
3, 63180, Note_on_c, 0, 62, 0
3, 63240, Note_on_c, 0, 62, 46
3, 63240, Note_on_c, 0, 66, 55
3, 63300, Note_on_c, 0, 66, 0
3, 63300, Note_on_c, 0, 62, 0
3, 63720, Note_on_c, 0, 59, 44
3, 63720, Note_on_c, 0, 62, 53
3, 63780, Note_on_c, 0, 62, 0
3, 63780, Note_on_c, 0, 59, 0
3, 63840, Note_on_c, 0, 59, 45
3, 63840, Note_on_c, 0, 62, 54
3, 63900, Note_on_c, 0, 62, 0
3, 63900, Note_on_c, 0, 59, 0
3, 63960, Note_on_c, 0, 59, 43
3, 63960, Note_on_c, 0, 62, 51
3, 64020, Note_on_c, 0, 62, 0
3, 64020, Note_on_c, 0, 59, 0
3, 64440, Note_on_c, 0, 55, 35
3, 64440, Note_on_c, 0, 59, 42
3, 64500, Note_on_c, 0, 59, 0
3, 64500, Note_on_c, 0, 55, 0
3, 64560, Note_on_c, 0, 55, 35
3, 64560, Note_on_c, 0, 59, 41
3, 64620, Note_on_c, 0, 59, 0
3, 64620, Note_on_c, 0, 55, 0
3, 64680, Note_on_c, 0, 55, 32
3, 64680, Note_on_c, 0, 59, 38
3, 64740, Note_on_c, 0, 59, 0
3, 64740, Note_on_c, 0, 55, 0
3, 65160, Note_on_c, 0, 50, 30
3, 65160, Note_on_c, 0, 55, 36
3, 65220, Note_on_c, 0, 55, 0
3, 65220, Note_on_c, 0, 50, 0
3, 65280, Note_on_c, 0, 50, 31
3, 65280, Note_on_c, 0, 55, 36
3, 65340, Note_on_c, 0, 55, 0
3, 65340, Note_on_c, 0, 50, 0
3, 65400, Note_on_c, 0, 50, 30
3, 65400, Note_on_c, 0, 55, 36
3, 65460, Note_on_c, 0, 55, 0
3, 65460, Note_on_c, 0, 50, 0
3, 65880, Note_on_c, 0, 43, 30
3, 65880, Note_on_c, 0, 47, 36
3, 65940, Note_on_c, 0, 47, 0
3, 65940, Note_on_c, 0, 43, 0
3, 66000, Note_on_c, 0, 43, 31
3, 66000, Note_on_c, 0, 47, 36
3, 66060, Note_on_c, 0, 47, 0
3, 66060, Note_on_c, 0, 43, 0
3, 66120, Note_on_c, 0, 43, 30
3, 66120, Note_on_c, 0, 47, 36
3, 66180, Note_on_c, 0, 47, 0
3, 66180, Note_on_c, 0, 43, 0
3, 66240, Note_on_c, 0, 42, 36
3, 66240, Note_on_c, 0, 46, 36
3, 66420, Note_on_c, 0, 46, 0
3, 66420, Note_on_c, 0, 42, 0
3, 67080, Note_on_c, 0, 55, 46
3, 67080, Note_on_c, 0, 52, 36
3, 67080, Note_on_c, 0, 49, 36
3, 67080, Note_on_c, 0, 47, 36
3, 67140, Note_on_c, 0, 47, 0
3, 67140, Note_on_c, 0, 55, 0
3, 67140, Note_on_c, 0, 52, 0
3, 67140, Note_on_c, 0, 49, 0
3, 67200, Note_on_c, 0, 47, 39
3, 67200, Note_on_c, 0, 49, 39
3, 67200, Note_on_c, 0, 52, 39
3, 67200, Note_on_c, 0, 55, 50
3, 67260, Note_on_c, 0, 55, 0
3, 67260, Note_on_c, 0, 47, 0
3, 67260, Note_on_c, 0, 49, 0
3, 67260, Note_on_c, 0, 52, 0
3, 67320, Note_on_c, 0, 55, 46
3, 67320, Note_on_c, 0, 52, 36
3, 67320, Note_on_c, 0, 49, 36
3, 67320, Note_on_c, 0, 47, 36
3, 67380, Note_on_c, 0, 47, 0
3, 67380, Note_on_c, 0, 55, 0
3, 67380, Note_on_c, 0, 52, 0
3, 67380, Note_on_c, 0, 49, 0
3, 67440, Note_on_c, 0, 47, 41
3, 67440, Note_on_c, 0, 49, 41
3, 67440, Note_on_c, 0, 52, 41
3, 67440, Note_on_c, 0, 55, 52
3, 67500, Note_on_c, 0, 55, 0
3, 67500, Note_on_c, 0, 47, 0
3, 67500, Note_on_c, 0, 49, 0
3, 67500, Note_on_c, 0, 52, 0
3, 67560, Note_on_c, 0, 55, 46
3, 67560, Note_on_c, 0, 52, 36
3, 67560, Note_on_c, 0, 49, 36
3, 67560, Note_on_c, 0, 47, 36
3, 67620, Note_on_c, 0, 47, 0
3, 67620, Note_on_c, 0, 55, 0
3, 67620, Note_on_c, 0, 52, 0
3, 67620, Note_on_c, 0, 49, 0
3, 67680, Note_on_c, 0, 46, 50
3, 67680, Note_on_c, 0, 49, 50
3, 67680, Note_on_c, 0, 54, 57
3, 67920, Note_on_c, 0, 54, 0
3, 67920, Note_on_c, 0, 49, 0
3, 67920, Note_on_c, 0, 46, 0
3, 68520, Note_on_c, 0, 55, 46
3, 68520, Note_on_c, 0, 52, 36
3, 68520, Note_on_c, 0, 49, 36
3, 68520, Note_on_c, 0, 47, 36
3, 68580, Note_on_c, 0, 47, 0
3, 68580, Note_on_c, 0, 55, 0
3, 68580, Note_on_c, 0, 52, 0
3, 68580, Note_on_c, 0, 49, 0
3, 68640, Note_on_c, 0, 47, 39
3, 68640, Note_on_c, 0, 49, 39
3, 68640, Note_on_c, 0, 52, 39
3, 68640, Note_on_c, 0, 55, 50
3, 68700, Note_on_c, 0, 55, 0
3, 68700, Note_on_c, 0, 47, 0
3, 68700, Note_on_c, 0, 49, 0
3, 68700, Note_on_c, 0, 52, 0
3, 68760, Note_on_c, 0, 55, 46
3, 68760, Note_on_c, 0, 52, 36
3, 68760, Note_on_c, 0, 49, 36
3, 68760, Note_on_c, 0, 47, 36
3, 68820, Note_on_c, 0, 47, 0
3, 68820, Note_on_c, 0, 55, 0
3, 68820, Note_on_c, 0, 52, 0
3, 68820, Note_on_c, 0, 49, 0
3, 68880, Note_on_c, 0, 47, 41
3, 68880, Note_on_c, 0, 49, 41
3, 68880, Note_on_c, 0, 52, 41
3, 68880, Note_on_c, 0, 55, 52
3, 68940, Note_on_c, 0, 55, 0
3, 68940, Note_on_c, 0, 47, 0
3, 68940, Note_on_c, 0, 49, 0
3, 68940, Note_on_c, 0, 52, 0
3, 69000, Note_on_c, 0, 55, 46
3, 69000, Note_on_c, 0, 52, 36
3, 69000, Note_on_c, 0, 49, 36
3, 69000, Note_on_c, 0, 47, 36
3, 69060, Note_on_c, 0, 47, 0
3, 69060, Note_on_c, 0, 55, 0
3, 69060, Note_on_c, 0, 52, 0
3, 69060, Note_on_c, 0, 49, 0
3, 69120, Note_on_c, 0, 46, 50
3, 69120, Note_on_c, 0, 49, 50
3, 69120, Note_on_c, 0, 54, 57
3, 69360, Note_on_c, 0, 54, 0
3, 69360, Note_on_c, 0, 49, 0
3, 69360, Note_on_c, 0, 46, 0
3, 69720, Note_on_c, 0, 54, 47
3, 69840, Note_on_c, 0, 54, 0
3, 69840, Note_on_c, 0, 57, 48
3, 69960, Note_on_c, 0, 57, 0
3, 69960, Note_on_c, 0, 59, 43
3, 70080, Note_on_c, 0, 59, 0
3, 70080, Note_on_c, 0, 61, 43
3, 70200, Note_on_c, 0, 61, 0
3, 70200, Note_on_c, 0, 62, 45
3, 70320, Note_on_c, 0, 62, 0
3, 70320, Note_on_c, 0, 64, 50
3, 70430, Note_on_c, 0, 64, 0
3, 70440, Note_on_c, 0, 57, 46
3, 70560, Note_on_c, 0, 57, 0
3, 70560, Note_on_c, 0, 61, 47
3, 70680, Note_on_c, 0, 61, 0
3, 70680, Note_on_c, 0, 62, 47
3, 70800, Note_on_c, 0, 62, 0
3, 70800, Note_on_c, 0, 64, 47
3, 70920, Note_on_c, 0, 64, 0
3, 70920, Note_on_c, 0, 66, 48
3, 71040, Note_on_c, 0, 66, 0
3, 71040, Note_on_c, 0, 67, 53
3, 71150, Note_on_c, 0, 67, 0
3, 71160, Note_on_c, 0, 58, 50
3, 71280, Note_on_c, 0, 58, 0
3, 71280, Note_on_c, 0, 61, 50
3, 71390, Note_on_c, 0, 61, 0
3, 71400, Note_on_c, 0, 62, 52
3, 71520, Note_on_c, 0, 62, 0
3, 71520, Note_on_c, 0, 64, 53
3, 71640, Note_on_c, 0, 64, 0
3, 71640, Note_on_c, 0, 66, 56
3, 71760, Note_on_c, 0, 66, 0
3, 71760, Note_on_c, 0, 67, 57
3, 71870, Note_on_c, 0, 67, 0
3, 71880, Note_on_c, 0, 66, 56
3, 72000, Note_on_c, 0, 66, 0
3, 72000, Note_on_c, 0, 64, 55
3, 72120, Note_on_c, 0, 64, 0
3, 72120, Note_on_c, 0, 66, 54
3, 72240, Note_on_c, 0, 66, 0
3, 72240, Note_on_c, 0, 67, 59
3, 72360, Note_on_c, 0, 67, 0
3, 72360, Note_on_c, 0, 66, 56
3, 72480, Note_on_c, 0, 66, 0
3, 72480, Note_on_c, 0, 64, 55
3, 72600, Note_on_c, 0, 64, 0
3, 72600, Note_on_c, 0, 62, 53
3, 72720, Note_on_c, 0, 62, 0
3, 72720, Note_on_c, 0, 61, 57
3, 72840, Note_on_c, 0, 61, 0
3, 72840, Note_on_c, 0, 62, 53
3, 72960, Note_on_c, 0, 62, 0
3, 72960, Note_on_c, 0, 64, 56
3, 73080, Note_on_c, 0, 64, 0
3, 73080, Note_on_c, 0, 62, 50
3, 73200, Note_on_c, 0, 62, 0
3, 73200, Note_on_c, 0, 61, 53
3, 73320, Note_on_c, 0, 61, 0
3, 73320, Note_on_c, 0, 59, 50
3, 73440, Note_on_c, 0, 59, 0
3, 73440, Note_on_c, 0, 58, 48
3, 73560, Note_on_c, 0, 58, 0
3, 73560, Note_on_c, 0, 59, 42
3, 73680, Note_on_c, 0, 59, 0
3, 73680, Note_on_c, 0, 61, 50
3, 73800, Note_on_c, 0, 61, 0
3, 73800, Note_on_c, 0, 58, 43
3, 73920, Note_on_c, 0, 58, 0
3, 73920, Note_on_c, 0, 55, 49
3, 74040, Note_on_c, 0, 55, 0
3, 74040, Note_on_c, 0, 54, 43
3, 74160, Note_on_c, 0, 54, 0
3, 74160, Note_on_c, 0, 52, 46
3, 74280, Note_on_c, 0, 52, 0
3, 74280, Note_on_c, 0, 54, 40
3, 74400, Note_on_c, 0, 54, 0
3, 74400, Note_on_c, 0, 55, 43
3, 74520, Note_on_c, 0, 55, 0
3, 74520, Note_on_c, 0, 52, 40
3, 74640, Note_on_c, 0, 52, 0
3, 74640, Note_on_c, 0, 50, 40
3, 74760, Note_on_c, 0, 50, 0
3, 74760, Note_on_c, 0, 49, 40
3, 74880, Note_on_c, 0, 49, 0
3, 74880, Note_on_c, 0, 61, 47
3, 74880, Note_on_c, 0, 46, 40
3, 74940, Note_on_c, 0, 46, 0
3, 74940, Note_on_c, 0, 61, 0
3, 75000, Note_on_c, 0, 54, 33
3, 75000, Note_on_c, 0, 61, 33
3, 75000, Note_on_c, 0, 64, 43
3, 75060, Note_on_c, 0, 64, 0
3, 75060, Note_on_c, 0, 61, 0
3, 75060, Note_on_c, 0, 54, 0
3, 75120, Note_on_c, 0, 54, 37
3, 75120, Note_on_c, 0, 61, 37
3, 75120, Note_on_c, 0, 64, 47
3, 75180, Note_on_c, 0, 64, 0
3, 75180, Note_on_c, 0, 61, 0
3, 75180, Note_on_c, 0, 54, 0
3, 75240, Note_on_c, 0, 54, 39
3, 75240, Note_on_c, 0, 61, 39
3, 75240, Note_on_c, 0, 64, 50
3, 75300, Note_on_c, 0, 64, 0
3, 75300, Note_on_c, 0, 61, 0
3, 75300, Note_on_c, 0, 54, 0
3, 75360, Note_on_c, 0, 54, 42
3, 75360, Note_on_c, 0, 61, 42
3, 75360, Note_on_c, 0, 64, 53
3, 75420, Note_on_c, 0, 64, 0
3, 75420, Note_on_c, 0, 61, 0
3, 75420, Note_on_c, 0, 54, 0
3, 75480, Note_on_c, 0, 54, 46
3, 75480, Note_on_c, 0, 61, 46
3, 75480, Note_on_c, 0, 64, 57
3, 75540, Note_on_c, 0, 64, 0
3, 75540, Note_on_c, 0, 61, 0
3, 75540, Note_on_c, 0, 54, 0
3, 75600, Note_on_c, 0, 47, 60
3, 75660, Note_on_c, 0, 47, 0
3, 75720, Note_on_c, 0, 62, 43
3, 75720, Note_on_c, 0, 59, 34
3, 75720, Note_on_c, 0, 54, 34
3, 75780, Note_on_c, 0, 54, 0
3, 75780, Note_on_c, 0, 59, 0
3, 75780, Note_on_c, 0, 62, 0
3, 75840, Note_on_c, 0, 54, 41
3, 75840, Note_on_c, 0, 59, 41
3, 75840, Note_on_c, 0, 62, 52
3, 75900, Note_on_c, 0, 62, 0
3, 75900, Note_on_c, 0, 59, 0
3, 75900, Note_on_c, 0, 54, 0
3, 75960, Note_on_c, 0, 54, 39
3, 75960, Note_on_c, 0, 59, 39
3, 75960, Note_on_c, 0, 62, 49
3, 76020, Note_on_c, 0, 62, 0
3, 76020, Note_on_c, 0, 59, 0
3, 76020, Note_on_c, 0, 54, 0
3, 76080, Note_on_c, 0, 62, 56
3, 76080, Note_on_c, 0, 59, 44
3, 76080, Note_on_c, 0, 54, 44
3, 76140, Note_on_c, 0, 54, 0
3, 76140, Note_on_c, 0, 59, 0
3, 76140, Note_on_c, 0, 62, 0
3, 76200, Note_on_c, 0, 54, 42
3, 76200, Note_on_c, 0, 59, 42
3, 76200, Note_on_c, 0, 62, 54
3, 76260, Note_on_c, 0, 62, 0
3, 76260, Note_on_c, 0, 59, 0
3, 76260, Note_on_c, 0, 54, 0
3, 76320, Note_on_c, 0, 43, 60
3, 76380, Note_on_c, 0, 43, 0
3, 76440, Note_on_c, 0, 64, 44
3, 76440, Note_on_c, 0, 59, 35
3, 76440, Note_on_c, 0, 55, 35
3, 76500, Note_on_c, 0, 55, 0
3, 76500, Note_on_c, 0, 59, 0
3, 76500, Note_on_c, 0, 64, 0
3, 76560, Note_on_c, 0, 55, 39
3, 76560, Note_on_c, 0, 59, 39
3, 76560, Note_on_c, 0, 64, 49
3, 76620, Note_on_c, 0, 64, 0
3, 76620, Note_on_c, 0, 59, 0
3, 76620, Note_on_c, 0, 55, 0
3, 76680, Note_on_c, 0, 55, 37
3, 76680, Note_on_c, 0, 59, 37
3, 76680, Note_on_c, 0, 64, 46
3, 76740, Note_on_c, 0, 64, 0
3, 76740, Note_on_c, 0, 59, 0
3, 76740, Note_on_c, 0, 55, 0
3, 76800, Note_on_c, 0, 55, 41
3, 76800, Note_on_c, 0, 59, 41
3, 76800, Note_on_c, 0, 64, 51
3, 76860, Note_on_c, 0, 64, 0
3, 76860, Note_on_c, 0, 59, 0
3, 76860, Note_on_c, 0, 55, 0
3, 76920, Note_on_c, 0, 55, 46
3, 76920, Note_on_c, 0, 59, 46
3, 76920, Note_on_c, 0, 64, 59
3, 76980, Note_on_c, 0, 64, 0
3, 76980, Note_on_c, 0, 59, 0
3, 76980, Note_on_c, 0, 55, 0
3, 77040, Note_on_c, 0, 42, 65
3, 77100, Note_on_c, 0, 42, 0
3, 77160, Note_on_c, 0, 64, 54
3, 77160, Note_on_c, 0, 58, 43
3, 77160, Note_on_c, 0, 54, 43
3, 77220, Note_on_c, 0, 54, 0
3, 77220, Note_on_c, 0, 58, 0
3, 77220, Note_on_c, 0, 64, 0
3, 77280, Note_on_c, 0, 64, 59
3, 77280, Note_on_c, 0, 58, 46
3, 77280, Note_on_c, 0, 54, 46
3, 77340, Note_on_c, 0, 54, 0
3, 77340, Note_on_c, 0, 58, 0
3, 77340, Note_on_c, 0, 64, 0
3, 77400, Note_on_c, 0, 64, 63
3, 77400, Note_on_c, 0, 58, 50
3, 77400, Note_on_c, 0, 54, 50
3, 77460, Note_on_c, 0, 54, 0
3, 77460, Note_on_c, 0, 58, 0
3, 77460, Note_on_c, 0, 64, 0
3, 77520, Note_on_c, 0, 64, 46
3, 77520, Note_on_c, 0, 61, 36
3, 77520, Note_on_c, 0, 54, 36
3, 77580, Note_on_c, 0, 54, 0
3, 77580, Note_on_c, 0, 61, 0
3, 77580, Note_on_c, 0, 64, 0
3, 77640, Note_on_c, 0, 54, 34
3, 77640, Note_on_c, 0, 61, 34
3, 77640, Note_on_c, 0, 64, 43
3, 77700, Note_on_c, 0, 64, 0
3, 77700, Note_on_c, 0, 61, 0
3, 77700, Note_on_c, 0, 54, 0
3, 77760, Note_on_c, 0, 46, 46
3, 77820, Note_on_c, 0, 46, 0
3, 77880, Note_on_c, 0, 54, 37
3, 77880, Note_on_c, 0, 61, 37
3, 77880, Note_on_c, 0, 64, 49
3, 77940, Note_on_c, 0, 64, 0
3, 77940, Note_on_c, 0, 61, 0
3, 77940, Note_on_c, 0, 54, 0
3, 78000, Note_on_c, 0, 54, 42
3, 78000, Note_on_c, 0, 61, 42
3, 78000, Note_on_c, 0, 64, 54
3, 78060, Note_on_c, 0, 64, 0
3, 78060, Note_on_c, 0, 61, 0
3, 78060, Note_on_c, 0, 54, 0
3, 78120, Note_on_c, 0, 54, 44
3, 78120, Note_on_c, 0, 61, 44
3, 78120, Note_on_c, 0, 64, 57
3, 78180, Note_on_c, 0, 64, 0
3, 78180, Note_on_c, 0, 61, 0
3, 78180, Note_on_c, 0, 54, 0
3, 78240, Note_on_c, 0, 54, 48
3, 78240, Note_on_c, 0, 61, 48
3, 78240, Note_on_c, 0, 64, 60
3, 78300, Note_on_c, 0, 64, 0
3, 78300, Note_on_c, 0, 61, 0
3, 78300, Note_on_c, 0, 54, 0
3, 78360, Note_on_c, 0, 54, 52
3, 78360, Note_on_c, 0, 61, 52
3, 78360, Note_on_c, 0, 64, 65
3, 78420, Note_on_c, 0, 64, 0
3, 78420, Note_on_c, 0, 61, 0
3, 78420, Note_on_c, 0, 54, 0
3, 78480, Note_on_c, 0, 47, 69
3, 78540, Note_on_c, 0, 47, 0
3, 78600, Note_on_c, 0, 62, 49
3, 78600, Note_on_c, 0, 59, 39
3, 78600, Note_on_c, 0, 54, 39
3, 78660, Note_on_c, 0, 54, 0
3, 78660, Note_on_c, 0, 59, 0
3, 78660, Note_on_c, 0, 62, 0
3, 78720, Note_on_c, 0, 54, 47
3, 78720, Note_on_c, 0, 59, 47
3, 78720, Note_on_c, 0, 62, 59
3, 78780, Note_on_c, 0, 62, 0
3, 78780, Note_on_c, 0, 59, 0
3, 78780, Note_on_c, 0, 54, 0
3, 78840, Note_on_c, 0, 54, 44
3, 78840, Note_on_c, 0, 59, 44
3, 78840, Note_on_c, 0, 62, 56
3, 78900, Note_on_c, 0, 62, 0
3, 78900, Note_on_c, 0, 59, 0
3, 78900, Note_on_c, 0, 54, 0
3, 78960, Note_on_c, 0, 62, 64
3, 78960, Note_on_c, 0, 59, 50
3, 78960, Note_on_c, 0, 54, 50
3, 79020, Note_on_c, 0, 54, 0
3, 79020, Note_on_c, 0, 59, 0
3, 79020, Note_on_c, 0, 62, 0
3, 79080, Note_on_c, 0, 54, 48
3, 79080, Note_on_c, 0, 59, 48
3, 79080, Note_on_c, 0, 62, 62
3, 79140, Note_on_c, 0, 62, 0
3, 79140, Note_on_c, 0, 59, 0
3, 79140, Note_on_c, 0, 54, 0
3, 79200, Note_on_c, 0, 43, 77
3, 79260, Note_on_c, 0, 43, 0
3, 79320, Note_on_c, 0, 64, 56
3, 79320, Note_on_c, 0, 59, 44
3, 79320, Note_on_c, 0, 55, 44
3, 79380, Note_on_c, 0, 55, 0
3, 79380, Note_on_c, 0, 59, 0
3, 79380, Note_on_c, 0, 64, 0
3, 79440, Note_on_c, 0, 55, 50
3, 79440, Note_on_c, 0, 59, 50
3, 79440, Note_on_c, 0, 64, 63
3, 79500, Note_on_c, 0, 64, 0
3, 79500, Note_on_c, 0, 59, 0
3, 79500, Note_on_c, 0, 55, 0
3, 79560, Note_on_c, 0, 55, 48
3, 79560, Note_on_c, 0, 59, 48
3, 79560, Note_on_c, 0, 64, 59
3, 79620, Note_on_c, 0, 64, 0
3, 79620, Note_on_c, 0, 59, 0
3, 79620, Note_on_c, 0, 55, 0
3, 79680, Note_on_c, 0, 55, 52
3, 79680, Note_on_c, 0, 59, 52
3, 79680, Note_on_c, 0, 64, 65
3, 79740, Note_on_c, 0, 64, 0
3, 79740, Note_on_c, 0, 59, 0
3, 79740, Note_on_c, 0, 55, 0
3, 79800, Note_on_c, 0, 55, 59
3, 79800, Note_on_c, 0, 59, 59
3, 79800, Note_on_c, 0, 64, 75
3, 79860, Note_on_c, 0, 64, 0
3, 79860, Note_on_c, 0, 59, 0
3, 79860, Note_on_c, 0, 55, 0
3, 79920, Note_on_c, 0, 42, 83
3, 79980, Note_on_c, 0, 42, 0
3, 80040, Note_on_c, 0, 54, 55
3, 80040, Note_on_c, 0, 58, 55
3, 80040, Note_on_c, 0, 64, 65
3, 80100, Note_on_c, 0, 64, 0
3, 80100, Note_on_c, 0, 58, 0
3, 80100, Note_on_c, 0, 54, 0
3, 80160, Note_on_c, 0, 54, 61
3, 80160, Note_on_c, 0, 58, 61
3, 80160, Note_on_c, 0, 64, 72
3, 80220, Note_on_c, 0, 64, 0
3, 80220, Note_on_c, 0, 58, 0
3, 80220, Note_on_c, 0, 54, 0
3, 80280, Note_on_c, 0, 54, 53
3, 80280, Note_on_c, 0, 58, 53
3, 80280, Note_on_c, 0, 64, 63
3, 80340, Note_on_c, 0, 64, 0
3, 80340, Note_on_c, 0, 58, 0
3, 80340, Note_on_c, 0, 54, 0
3, 80400, Note_on_c, 0, 54, 58
3, 80400, Note_on_c, 0, 58, 69
3, 80400, Note_on_c, 0, 64, 69
3, 80460, Note_on_c, 0, 64, 0
3, 80460, Note_on_c, 0, 58, 0
3, 80460, Note_on_c, 0, 54, 0
3, 80520, Note_on_c, 0, 54, 51
3, 80520, Note_on_c, 0, 58, 61
3, 80520, Note_on_c, 0, 64, 61
3, 80580, Note_on_c, 0, 64, 0
3, 80580, Note_on_c, 0, 58, 0
3, 80580, Note_on_c, 0, 54, 0
3, 80640, Note_on_c, 0, 64, 64
3, 80640, Note_on_c, 0, 58, 54
3, 80640, Note_on_c, 0, 54, 54
3, 80700, Note_on_c, 0, 54, 0
3, 80700, Note_on_c, 0, 58, 0
3, 80700, Note_on_c, 0, 64, 0
3, 80760, Note_on_c, 0, 64, 58
3, 80760, Note_on_c, 0, 58, 49
3, 80760, Note_on_c, 0, 54, 49
3, 80820, Note_on_c, 0, 54, 0
3, 80820, Note_on_c, 0, 58, 0
3, 80820, Note_on_c, 0, 64, 0
3, 80880, Note_on_c, 0, 66, 62
3, 80880, Note_on_c, 0, 64, 52
3, 80880, Note_on_c, 0, 58, 52
3, 80880, Note_on_c, 0, 54, 52
3, 80940, Note_on_c, 0, 54, 0
3, 80940, Note_on_c, 0, 66, 0
3, 80940, Note_on_c, 0, 64, 0
3, 80940, Note_on_c, 0, 58, 0
3, 81000, Note_on_c, 0, 66, 65
3, 81000, Note_on_c, 0, 64, 55
3, 81000, Note_on_c, 0, 58, 55
3, 81000, Note_on_c, 0, 54, 55
3, 81060, Note_on_c, 0, 54, 0
3, 81060, Note_on_c, 0, 66, 0
3, 81060, Note_on_c, 0, 64, 0
3, 81060, Note_on_c, 0, 58, 0
3, 81120, Note_on_c, 0, 66, 68
3, 81120, Note_on_c, 0, 64, 57
3, 81120, Note_on_c, 0, 58, 57
3, 81120, Note_on_c, 0, 54, 57
3, 81180, Note_on_c, 0, 54, 0
3, 81180, Note_on_c, 0, 66, 0
3, 81180, Note_on_c, 0, 64, 0
3, 81180, Note_on_c, 0, 58, 0
3, 81240, Note_on_c, 0, 66, 72
3, 81240, Note_on_c, 0, 64, 61
3, 81240, Note_on_c, 0, 58, 61
3, 81240, Note_on_c, 0, 54, 61
3, 81300, Note_on_c, 0, 54, 0
3, 81300, Note_on_c, 0, 66, 0
3, 81300, Note_on_c, 0, 64, 0
3, 81300, Note_on_c, 0, 58, 0
3, 81480, Note_on_c, 0, 62, 64
3, 81480, Note_on_c, 0, 59, 54
3, 81540, Note_on_c, 0, 59, 0
3, 81540, Note_on_c, 0, 62, 0
3, 81720, Note_on_c, 0, 61, 58
3, 81720, Note_on_c, 0, 54, 49
3, 81780, Note_on_c, 0, 54, 0
3, 81780, Note_on_c, 0, 61, 0
3, 81960, Note_on_c, 0, 55, 51
3, 81960, Note_on_c, 0, 59, 60
3, 82020, Note_on_c, 0, 59, 0
3, 82020, Note_on_c, 0, 55, 0
3, 82200, Note_on_c, 0, 57, 64
3, 82200, Note_on_c, 0, 51, 54
3, 82260, Note_on_c, 0, 51, 0
3, 82260, Note_on_c, 0, 57, 0
3, 82440, Note_on_c, 0, 55, 58
3, 82440, Note_on_c, 0, 52, 49
3, 82500, Note_on_c, 0, 52, 0
3, 82500, Note_on_c, 0, 55, 0
3, 82680, Note_on_c, 0, 51, 51
3, 82680, Note_on_c, 0, 57, 60
3, 82740, Note_on_c, 0, 57, 0
3, 82740, Note_on_c, 0, 51, 0
3, 82920, Note_on_c, 0, 55, 64
3, 82920, Note_on_c, 0, 52, 54
3, 82980, Note_on_c, 0, 52, 0
3, 82980, Note_on_c, 0, 55, 0
3, 83160, Note_on_c, 0, 62, 58
3, 83160, Note_on_c, 0, 56, 49
3, 83220, Note_on_c, 0, 56, 0
3, 83220, Note_on_c, 0, 62, 0
3, 83400, Note_on_c, 0, 57, 51
3, 83400, Note_on_c, 0, 61, 60
3, 83460, Note_on_c, 0, 61, 0
3, 83460, Note_on_c, 0, 57, 0
3, 83640, Note_on_c, 0, 59, 64
3, 83640, Note_on_c, 0, 53, 54
3, 83700, Note_on_c, 0, 53, 0
3, 83700, Note_on_c, 0, 59, 0
3, 83880, Note_on_c, 0, 57, 58
3, 83880, Note_on_c, 0, 54, 49
3, 83940, Note_on_c, 0, 54, 0
3, 83940, Note_on_c, 0, 57, 0
3, 84120, Note_on_c, 0, 53, 51
3, 84120, Note_on_c, 0, 59, 60
3, 84180, Note_on_c, 0, 59, 0
3, 84180, Note_on_c, 0, 53, 0
3, 84360, Note_on_c, 0, 57, 64
3, 84360, Note_on_c, 0, 54, 54
3, 84420, Note_on_c, 0, 54, 0
3, 84420, Note_on_c, 0, 57, 0
3, 84600, Note_on_c, 0, 68, 58
3, 84600, Note_on_c, 0, 61, 49
3, 84660, Note_on_c, 0, 61, 0
3, 84660, Note_on_c, 0, 68, 0
3, 84840, Note_on_c, 0, 62, 51
3, 84840, Note_on_c, 0, 66, 60
3, 84900, Note_on_c, 0, 66, 0
3, 84900, Note_on_c, 0, 62, 0
3, 85080, Note_on_c, 0, 64, 64
3, 85080, Note_on_c, 0, 58, 54
3, 85140, Note_on_c, 0, 58, 0
3, 85140, Note_on_c, 0, 64, 0
3, 85320, Note_on_c, 0, 62, 58
3, 85320, Note_on_c, 0, 59, 49
3, 85380, Note_on_c, 0, 59, 0
3, 85380, Note_on_c, 0, 62, 0
3, 85560, Note_on_c, 0, 58, 51
3, 85560, Note_on_c, 0, 64, 60
3, 85620, Note_on_c, 0, 64, 0
3, 85620, Note_on_c, 0, 58, 0
3, 85800, Note_on_c, 0, 62, 64
3, 85800, Note_on_c, 0, 59, 54
3, 85860, Note_on_c, 0, 59, 0
3, 85860, Note_on_c, 0, 62, 0
3, 86040, Note_on_c, 0, 54, 58
3, 86040, Note_on_c, 0, 50, 49
3, 86100, Note_on_c, 0, 50, 0
3, 86100, Note_on_c, 0, 54, 0
3, 86280, Note_on_c, 0, 51, 51
3, 86280, Note_on_c, 0, 54, 60
3, 86340, Note_on_c, 0, 54, 0
3, 86340, Note_on_c, 0, 51, 0
3, 86520, Note_on_c, 0, 52, 54
3, 86520, Note_on_c, 0, 59, 64
3, 86520, Note_on_c, 0, 55, 54
3, 86580, Note_on_c, 0, 55, 0
3, 86580, Note_on_c, 0, 59, 0
3, 86580, Note_on_c, 0, 52, 0
3, 86760, Note_on_c, 0, 59, 58
3, 86760, Note_on_c, 0, 54, 49
3, 86820, Note_on_c, 0, 54, 0
3, 86820, Note_on_c, 0, 59, 0
3, 87000, Note_on_c, 0, 55, 52
3, 87000, Note_on_c, 0, 59, 61
3, 87060, Note_on_c, 0, 59, 0
3, 87060, Note_on_c, 0, 55, 0
3, 87240, Note_on_c, 0, 54, 55
3, 87240, Note_on_c, 0, 62, 65
3, 87240, Note_on_c, 0, 59, 55
3, 87300, Note_on_c, 0, 59, 0
3, 87300, Note_on_c, 0, 62, 0
3, 87300, Note_on_c, 0, 54, 0
3, 87480, Note_on_c, 0, 59, 52
3, 87480, Note_on_c, 0, 62, 61
3, 87480, Note_on_c, 0, 54, 52
3, 87540, Note_on_c, 0, 54, 0
3, 87540, Note_on_c, 0, 62, 0
3, 87540, Note_on_c, 0, 59, 0
3, 87720, Note_on_c, 0, 59, 55
3, 87720, Note_on_c, 0, 54, 55
3, 87720, Note_on_c, 0, 62, 64
3, 87780, Note_on_c, 0, 62, 0
3, 87780, Note_on_c, 0, 54, 0
3, 87780, Note_on_c, 0, 59, 0
3, 87960, Note_on_c, 0, 54, 58
3, 87960, Note_on_c, 0, 64, 70
3, 87960, Note_on_c, 0, 58, 58
3, 88020, Note_on_c, 0, 58, 0
3, 88020, Note_on_c, 0, 64, 0
3, 88020, Note_on_c, 0, 54, 0
3, 88200, Note_on_c, 0, 59, 54
3, 88200, Note_on_c, 0, 64, 64
3, 88200, Note_on_c, 0, 54, 54
3, 88260, Note_on_c, 0, 54, 0
3, 88260, Note_on_c, 0, 64, 0
3, 88260, Note_on_c, 0, 59, 0
3, 88440, Note_on_c, 0, 61, 57
3, 88440, Note_on_c, 0, 54, 57
3, 88440, Note_on_c, 0, 64, 67
3, 88500, Note_on_c, 0, 64, 0
3, 88500, Note_on_c, 0, 54, 0
3, 88500, Note_on_c, 0, 61, 0
3, 88560, Note_on_c, 0, 43, 95
3, 88620, Note_on_c, 0, 43, 0
3, 88680, Note_on_c, 0, 74, 72
3, 88680, Note_on_c, 0, 71, 72
3, 88680, Note_on_c, 0, 67, 72
3, 88680, Note_on_c, 0, 62, 55
3, 88680, Note_on_c, 0, 55, 55
3, 88740, Note_on_c, 0, 55, 0
3, 88740, Note_on_c, 0, 67, 0
3, 88740, Note_on_c, 0, 74, 0
3, 88740, Note_on_c, 0, 71, 0
3, 88740, Note_on_c, 0, 62, 0
3, 88800, Note_on_c, 0, 74, 77
3, 88800, Note_on_c, 0, 71, 77
3, 88800, Note_on_c, 0, 67, 77
3, 88800, Note_on_c, 0, 62, 61
3, 88800, Note_on_c, 0, 55, 61
3, 88860, Note_on_c, 0, 55, 0
3, 88860, Note_on_c, 0, 67, 0
3, 88860, Note_on_c, 0, 74, 0
3, 88860, Note_on_c, 0, 71, 0
3, 88860, Note_on_c, 0, 62, 0
3, 88920, Note_on_c, 0, 74, 73
3, 88920, Note_on_c, 0, 71, 73
3, 88920, Note_on_c, 0, 67, 73
3, 88920, Note_on_c, 0, 62, 65
3, 88920, Note_on_c, 0, 55, 65
3, 88980, Note_on_c, 0, 55, 0
3, 88980, Note_on_c, 0, 67, 0
3, 88980, Note_on_c, 0, 74, 0
3, 88980, Note_on_c, 0, 71, 0
3, 88980, Note_on_c, 0, 62, 0
3, 89040, Note_on_c, 0, 74, 75
3, 89040, Note_on_c, 0, 71, 75
3, 89040, Note_on_c, 0, 67, 84
3, 89040, Note_on_c, 0, 62, 66
3, 89040, Note_on_c, 0, 55, 66
3, 89100, Note_on_c, 0, 55, 0
3, 89100, Note_on_c, 0, 67, 0
3, 89100, Note_on_c, 0, 74, 0
3, 89100, Note_on_c, 0, 71, 0
3, 89100, Note_on_c, 0, 62, 0
3, 89160, Note_on_c, 0, 74, 71
3, 89160, Note_on_c, 0, 71, 71
3, 89160, Note_on_c, 0, 55, 55
3, 89160, Note_on_c, 0, 62, 55
3, 89160, Note_on_c, 0, 67, 71
3, 89220, Note_on_c, 0, 67, 0
3, 89220, Note_on_c, 0, 55, 0
3, 89220, Note_on_c, 0, 74, 0
3, 89220, Note_on_c, 0, 71, 0
3, 89220, Note_on_c, 0, 62, 0
3, 89280, Note_on_c, 0, 67, 68
3, 89280, Note_on_c, 0, 65, 68
3, 89280, Note_on_c, 0, 71, 68
3, 89280, Note_on_c, 0, 74, 86
3, 89280, Note_on_c, 0, 62, 68
3, 89280, Note_on_c, 0, 55, 68
3, 89340, Note_on_c, 0, 55, 0
3, 89340, Note_on_c, 0, 65, 0
3, 89340, Note_on_c, 0, 71, 0
3, 89340, Note_on_c, 0, 67, 0
3, 89340, Note_on_c, 0, 62, 0
3, 89340, Note_on_c, 0, 74, 0
3, 89400, Note_on_c, 0, 67, 62
3, 89400, Note_on_c, 0, 65, 62
3, 89400, Note_on_c, 0, 71, 62
3, 89400, Note_on_c, 0, 74, 80
3, 89400, Note_on_c, 0, 62, 62
3, 89400, Note_on_c, 0, 55, 62
3, 89460, Note_on_c, 0, 55, 0
3, 89460, Note_on_c, 0, 65, 0
3, 89460, Note_on_c, 0, 71, 0
3, 89460, Note_on_c, 0, 67, 0
3, 89460, Note_on_c, 0, 62, 0
3, 89460, Note_on_c, 0, 74, 0
3, 89520, Note_on_c, 0, 65, 74
3, 89520, Note_on_c, 0, 62, 68
3, 89520, Note_on_c, 0, 67, 86
3, 89520, Note_on_c, 0, 55, 68
3, 89580, Note_on_c, 0, 55, 0
3, 89580, Note_on_c, 0, 65, 0
3, 89580, Note_on_c, 0, 62, 0
3, 89580, Note_on_c, 0, 67, 0
3, 89640, Note_on_c, 0, 65, 69
3, 89640, Note_on_c, 0, 67, 69
3, 89640, Note_on_c, 0, 71, 69
3, 89640, Note_on_c, 0, 74, 79
3, 89640, Note_on_c, 0, 55, 69
3, 89640, Note_on_c, 0, 62, 69
3, 89700, Note_on_c, 0, 62, 0
3, 89700, Note_on_c, 0, 67, 0
3, 89700, Note_on_c, 0, 71, 0
3, 89700, Note_on_c, 0, 65, 0
3, 89700, Note_on_c, 0, 55, 0
3, 89700, Note_on_c, 0, 74, 0
3, 89760, Note_on_c, 0, 65, 74
3, 89760, Note_on_c, 0, 67, 94
3, 89760, Note_on_c, 0, 62, 74
3, 89760, Note_on_c, 0, 55, 74
3, 89820, Note_on_c, 0, 55, 0
3, 89820, Note_on_c, 0, 65, 0
3, 89820, Note_on_c, 0, 67, 0
3, 89820, Note_on_c, 0, 62, 0
3, 89880, Note_on_c, 0, 65, 62
3, 89880, Note_on_c, 0, 67, 62
3, 89880, Note_on_c, 0, 62, 62
3, 89880, Note_on_c, 0, 74, 79
3, 89880, Note_on_c, 0, 55, 62
3, 89940, Note_on_c, 0, 55, 0
3, 89940, Note_on_c, 0, 62, 0
3, 89940, Note_on_c, 0, 65, 0
3, 89940, Note_on_c, 0, 67, 0
3, 89940, Note_on_c, 0, 74, 0
3, 90000, Note_on_c, 0, 48, 95
3, 90060, Note_on_c, 0, 48, 0
3, 90120, Note_on_c, 0, 55, 60
3, 90120, Note_on_c, 0, 67, 60
3, 90120, Note_on_c, 0, 72, 77
3, 90120, Note_on_c, 0, 64, 60
3, 90120, Note_on_c, 0, 60, 60
3, 90180, Note_on_c, 0, 60, 0
3, 90180, Note_on_c, 0, 72, 0
3, 90180, Note_on_c, 0, 55, 0
3, 90180, Note_on_c, 0, 67, 0
3, 90180, Note_on_c, 0, 64, 0
3, 90240, Note_on_c, 0, 55, 63
3, 90240, Note_on_c, 0, 64, 81
3, 90240, Note_on_c, 0, 60, 63
3, 90300, Note_on_c, 0, 60, 0
3, 90300, Note_on_c, 0, 64, 0
3, 90300, Note_on_c, 0, 55, 0
3, 90360, Note_on_c, 0, 55, 66
3, 90360, Note_on_c, 0, 64, 82
3, 90360, Note_on_c, 0, 60, 66
3, 90420, Note_on_c, 0, 60, 0
3, 90420, Note_on_c, 0, 64, 0
3, 90420, Note_on_c, 0, 55, 0
3, 90480, Note_on_c, 0, 55, 64
3, 90480, Note_on_c, 0, 63, 81
3, 90480, Note_on_c, 0, 60, 64
3, 90540, Note_on_c, 0, 60, 0
3, 90540, Note_on_c, 0, 63, 0
3, 90540, Note_on_c, 0, 55, 0
3, 90600, Note_on_c, 0, 55, 51
3, 90600, Note_on_c, 0, 60, 51
3, 90600, Note_on_c, 0, 63, 66
3, 90660, Note_on_c, 0, 63, 0
3, 90660, Note_on_c, 0, 60, 0
3, 90660, Note_on_c, 0, 55, 0
3, 90720, Note_on_c, 0, 50, 75
3, 90780, Note_on_c, 0, 50, 0
3, 90840, Note_on_c, 0, 62, 49
3, 90840, Note_on_c, 0, 67, 63
3, 90840, Note_on_c, 0, 60, 49
3, 90840, Note_on_c, 0, 57, 49
3, 90900, Note_on_c, 0, 57, 0
3, 90900, Note_on_c, 0, 62, 0
3, 90900, Note_on_c, 0, 67, 0
3, 90900, Note_on_c, 0, 60, 0
3, 90960, Note_on_c, 0, 57, 53
3, 90960, Note_on_c, 0, 62, 53
3, 90960, Note_on_c, 0, 67, 69
3, 90960, Note_on_c, 0, 60, 53
3, 91020, Note_on_c, 0, 60, 0
3, 91020, Note_on_c, 0, 57, 0
3, 91020, Note_on_c, 0, 62, 0
3, 91020, Note_on_c, 0, 67, 0
3, 91080, Note_on_c, 0, 57, 58
3, 91080, Note_on_c, 0, 62, 58
3, 91080, Note_on_c, 0, 67, 73
3, 91080, Note_on_c, 0, 60, 58
3, 91140, Note_on_c, 0, 60, 0
3, 91140, Note_on_c, 0, 57, 0
3, 91140, Note_on_c, 0, 62, 0
3, 91140, Note_on_c, 0, 67, 0
3, 91200, Note_on_c, 0, 60, 59
3, 91200, Note_on_c, 0, 62, 74
3, 91200, Note_on_c, 0, 57, 59
3, 91260, Note_on_c, 0, 57, 0
3, 91260, Note_on_c, 0, 62, 0
3, 91260, Note_on_c, 0, 60, 0
3, 91320, Note_on_c, 0, 62, 49
3, 91320, Note_on_c, 0, 60, 49
3, 91320, Note_on_c, 0, 66, 49
3, 91320, Note_on_c, 0, 57, 49
3, 91320, Note_on_c, 0, 69, 62
3, 91380, Note_on_c, 0, 69, 0
3, 91380, Note_on_c, 0, 66, 0
3, 91380, Note_on_c, 0, 62, 0
3, 91380, Note_on_c, 0, 60, 0
3, 91380, Note_on_c, 0, 57, 0
3, 91440, Note_on_c, 0, 55, 75
3, 91500, Note_on_c, 0, 55, 0
3, 91560, Note_on_c, 0, 62, 49
3, 91560, Note_on_c, 0, 67, 63
3, 91560, Note_on_c, 0, 59, 49
3, 91620, Note_on_c, 0, 59, 0
3, 91620, Note_on_c, 0, 67, 0
3, 91620, Note_on_c, 0, 62, 0
3, 91680, Note_on_c, 0, 59, 53
3, 91680, Note_on_c, 0, 62, 53
3, 91680, Note_on_c, 0, 67, 69
3, 91740, Note_on_c, 0, 67, 0
3, 91740, Note_on_c, 0, 62, 0
3, 91740, Note_on_c, 0, 59, 0
3, 91800, Note_on_c, 0, 59, 58
3, 91800, Note_on_c, 0, 62, 58
3, 91800, Note_on_c, 0, 67, 73
3, 91860, Note_on_c, 0, 67, 0
3, 91860, Note_on_c, 0, 62, 0
3, 91860, Note_on_c, 0, 59, 0
3, 91920, Note_on_c, 0, 62, 59
3, 91920, Note_on_c, 0, 67, 74
3, 91920, Note_on_c, 0, 59, 59
3, 91980, Note_on_c, 0, 59, 0
3, 91980, Note_on_c, 0, 67, 0
3, 91980, Note_on_c, 0, 62, 0
3, 92040, Note_on_c, 0, 62, 49
3, 92040, Note_on_c, 0, 59, 49
3, 92040, Note_on_c, 0, 67, 62
3, 92100, Note_on_c, 0, 67, 0
3, 92100, Note_on_c, 0, 59, 0
3, 92100, Note_on_c, 0, 62, 0
3, 92160, Note_on_c, 0, 43, 75
3, 92220, Note_on_c, 0, 43, 0
3, 92280, Note_on_c, 0, 65, 58
3, 92280, Note_on_c, 0, 55, 58
3, 92280, Note_on_c, 0, 67, 58
3, 92280, Note_on_c, 0, 71, 58
3, 92280, Note_on_c, 0, 74, 76
3, 92280, Note_on_c, 0, 62, 58
3, 92340, Note_on_c, 0, 62, 0
3, 92340, Note_on_c, 0, 55, 0
3, 92340, Note_on_c, 0, 67, 0
3, 92340, Note_on_c, 0, 65, 0
3, 92340, Note_on_c, 0, 74, 0
3, 92340, Note_on_c, 0, 71, 0
3, 92400, Note_on_c, 0, 65, 77
3, 92400, Note_on_c, 0, 55, 61
3, 92400, Note_on_c, 0, 62, 61
3, 92400, Note_on_c, 0, 67, 77
3, 92460, Note_on_c, 0, 67, 0
3, 92460, Note_on_c, 0, 65, 0
3, 92460, Note_on_c, 0, 55, 0
3, 92460, Note_on_c, 0, 62, 0
3, 92520, Note_on_c, 0, 65, 69
3, 92520, Note_on_c, 0, 55, 69
3, 92520, Note_on_c, 0, 67, 69
3, 92520, Note_on_c, 0, 71, 69
3, 92520, Note_on_c, 0, 74, 78
3, 92520, Note_on_c, 0, 62, 69
3, 92580, Note_on_c, 0, 62, 0
3, 92580, Note_on_c, 0, 55, 0
3, 92580, Note_on_c, 0, 67, 0
3, 92580, Note_on_c, 0, 65, 0
3, 92580, Note_on_c, 0, 74, 0
3, 92580, Note_on_c, 0, 71, 0
3, 92640, Note_on_c, 0, 65, 83
3, 92640, Note_on_c, 0, 55, 66
3, 92640, Note_on_c, 0, 67, 84
3, 92640, Note_on_c, 0, 62, 66
3, 92700, Note_on_c, 0, 62, 0
3, 92700, Note_on_c, 0, 65, 0
3, 92700, Note_on_c, 0, 55, 0
3, 92700, Note_on_c, 0, 67, 0
3, 92760, Note_on_c, 0, 65, 62
3, 92760, Note_on_c, 0, 71, 62
3, 92760, Note_on_c, 0, 55, 62
3, 92760, Note_on_c, 0, 67, 62
3, 92760, Note_on_c, 0, 62, 62
3, 92760, Note_on_c, 0, 74, 79
3, 92820, Note_on_c, 0, 74, 0
3, 92820, Note_on_c, 0, 71, 0
3, 92820, Note_on_c, 0, 55, 0
3, 92820, Note_on_c, 0, 65, 0
3, 92820, Note_on_c, 0, 62, 0
3, 92820, Note_on_c, 0, 67, 0
3, 92880, Note_on_c, 0, 48, 95
3, 92940, Note_on_c, 0, 48, 0
3, 93000, Note_on_c, 0, 67, 57
3, 93000, Note_on_c, 0, 72, 57
3, 93000, Note_on_c, 0, 55, 57
3, 93000, Note_on_c, 0, 64, 57
3, 93000, Note_on_c, 0, 60, 57
3, 93060, Note_on_c, 0, 60, 0
3, 93060, Note_on_c, 0, 55, 0
3, 93060, Note_on_c, 0, 67, 0
3, 93060, Note_on_c, 0, 72, 0
3, 93060, Note_on_c, 0, 64, 0
3, 93120, Note_on_c, 0, 55, 57
3, 93120, Note_on_c, 0, 64, 73
3, 93120, Note_on_c, 0, 60, 57
3, 93180, Note_on_c, 0, 60, 0
3, 93180, Note_on_c, 0, 64, 0
3, 93180, Note_on_c, 0, 55, 0
3, 93240, Note_on_c, 0, 55, 56
3, 93240, Note_on_c, 0, 64, 70
3, 93240, Note_on_c, 0, 60, 56
3, 93300, Note_on_c, 0, 60, 0
3, 93300, Note_on_c, 0, 64, 0
3, 93300, Note_on_c, 0, 55, 0
3, 93360, Note_on_c, 0, 55, 53
3, 93360, Note_on_c, 0, 64, 66
3, 93360, Note_on_c, 0, 60, 53
3, 93420, Note_on_c, 0, 60, 0
3, 93420, Note_on_c, 0, 64, 0
3, 93420, Note_on_c, 0, 55, 0
3, 93480, Note_on_c, 0, 55, 39
3, 93480, Note_on_c, 0, 60, 39
3, 93480, Note_on_c, 0, 64, 51
3, 93540, Note_on_c, 0, 64, 0
3, 93540, Note_on_c, 0, 60, 0
3, 93540, Note_on_c, 0, 55, 0
3, 93600, Note_on_c, 0, 48, 55
3, 93720, Note_on_c, 0, 60, 44
3, 93720, Note_on_c, 0, 65, 44
3, 93780, Note_on_c, 0, 65, 0
3, 93780, Note_on_c, 0, 60, 0
3, 93840, Note_on_c, 0, 60, 44
3, 93840, Note_on_c, 0, 65, 59
3, 93840, Note_on_c, 0, 57, 50
3, 93900, Note_on_c, 0, 65, 0
3, 93900, Note_on_c, 0, 60, 0
3, 93960, Note_on_c, 0, 60, 44
3, 93960, Note_on_c, 0, 65, 44
3, 94020, Note_on_c, 0, 65, 0
3, 94020, Note_on_c, 0, 60, 0
3, 94080, Note_on_c, 0, 57, 0
3, 94080, Note_on_c, 0, 56, 54
3, 94200, Note_on_c, 0, 60, 44
3, 94200, Note_on_c, 0, 65, 44
3, 94260, Note_on_c, 0, 65, 0
3, 94260, Note_on_c, 0, 60, 0
3, 94320, Note_on_c, 0, 56, 0
3, 94320, Note_on_c, 0, 55, 54
3, 94440, Note_on_c, 0, 60, 44
3, 94440, Note_on_c, 0, 64, 44
3, 94500, Note_on_c, 0, 64, 0
3, 94500, Note_on_c, 0, 60, 0
3, 94560, Note_on_c, 0, 60, 44
3, 94560, Note_on_c, 0, 64, 59
3, 94620, Note_on_c, 0, 64, 0
3, 94620, Note_on_c, 0, 60, 0
3, 94680, Note_on_c, 0, 60, 44
3, 94680, Note_on_c, 0, 64, 44
3, 94740, Note_on_c, 0, 64, 0
3, 94740, Note_on_c, 0, 60, 0
3, 94800, Note_on_c, 0, 55, 0
3, 94800, Note_on_c, 0, 48, 0
3, 94920, Note_on_c, 0, 60, 37
3, 94920, Note_on_c, 0, 64, 37
3, 94980, Note_on_c, 0, 64, 0
3, 94980, Note_on_c, 0, 60, 0
3, 95040, Note_on_c, 0, 53, 46
3, 95040, Note_on_c, 0, 48, 46
3, 95160, Note_on_c, 0, 60, 37
3, 95160, Note_on_c, 0, 65, 37
3, 95220, Note_on_c, 0, 65, 0
3, 95220, Note_on_c, 0, 60, 0
3, 95280, Note_on_c, 0, 60, 37
3, 95280, Note_on_c, 0, 65, 50
3, 95280, Note_on_c, 0, 57, 42
3, 95340, Note_on_c, 0, 65, 0
3, 95340, Note_on_c, 0, 60, 0
3, 95400, Note_on_c, 0, 60, 37
3, 95400, Note_on_c, 0, 65, 37
3, 95460, Note_on_c, 0, 65, 0
3, 95460, Note_on_c, 0, 60, 0
3, 95520, Note_on_c, 0, 57, 0
3, 95520, Note_on_c, 0, 56, 45
3, 95640, Note_on_c, 0, 60, 37
3, 95640, Note_on_c, 0, 65, 37
3, 95700, Note_on_c, 0, 65, 0
3, 95700, Note_on_c, 0, 60, 0
3, 95760, Note_on_c, 0, 56, 0
3, 95760, Note_on_c, 0, 53, 0
3, 95760, Note_on_c, 0, 52, 46
3, 95760, Note_on_c, 0, 55, 46
3, 95880, Note_on_c, 0, 60, 31
3, 95880, Note_on_c, 0, 64, 37
3, 95940, Note_on_c, 0, 64, 0
3, 95940, Note_on_c, 0, 60, 0
3, 96000, Note_on_c, 0, 60, 32
3, 96000, Note_on_c, 0, 64, 51
3, 96060, Note_on_c, 0, 64, 0
3, 96060, Note_on_c, 0, 60, 0
3, 96120, Note_on_c, 0, 60, 33
3, 96120, Note_on_c, 0, 64, 39
3, 96180, Note_on_c, 0, 64, 0
3, 96180, Note_on_c, 0, 60, 0
3, 96240, Note_on_c, 0, 60, 46
3, 96240, Note_on_c, 0, 64, 55
3, 96300, Note_on_c, 0, 64, 0
3, 96300, Note_on_c, 0, 60, 0
3, 96360, Note_on_c, 0, 60, 34
3, 96360, Note_on_c, 0, 64, 41
3, 96420, Note_on_c, 0, 64, 0
3, 96420, Note_on_c, 0, 60, 0
3, 96480, Note_on_c, 0, 48, 0
3, 96480, Note_on_c, 0, 52, 0
3, 96480, Note_on_c, 0, 55, 0
3, 96480, Note_on_c, 0, 64, 43
3, 96480, Note_on_c, 0, 60, 35
3, 96540, Note_on_c, 0, 60, 0
3, 96540, Note_on_c, 0, 64, 0
3, 96600, Note_on_c, 0, 60, 37
3, 96600, Note_on_c, 0, 64, 44
3, 96660, Note_on_c, 0, 64, 0
3, 96660, Note_on_c, 0, 60, 0
3, 96720, Note_on_c, 0, 60, 38
3, 96720, Note_on_c, 0, 64, 45
3, 96780, Note_on_c, 0, 64, 0
3, 96780, Note_on_c, 0, 60, 0
3, 96840, Note_on_c, 0, 60, 39
3, 96840, Note_on_c, 0, 64, 46
3, 96900, Note_on_c, 0, 64, 0
3, 96900, Note_on_c, 0, 60, 0
3, 97080, Note_on_c, 0, 64, 40
3, 97080, Note_on_c, 0, 67, 40
3, 97140, Note_on_c, 0, 67, 0
3, 97140, Note_on_c, 0, 64, 0
3, 97320, Note_on_c, 0, 63, 34
3, 97320, Note_on_c, 0, 66, 40
3, 97380, Note_on_c, 0, 66, 0
3, 97380, Note_on_c, 0, 63, 0
3, 97440, Note_on_c, 0, 39, 54
3, 97440, Note_on_c, 0, 51, 57
3, 97440, Note_on_c, 0, 63, 35
3, 97440, Note_on_c, 0, 66, 56
3, 97500, Note_on_c, 0, 66, 0
3, 97500, Note_on_c, 0, 63, 0
3, 97560, Note_on_c, 0, 63, 36
3, 97560, Note_on_c, 0, 66, 42
3, 97620, Note_on_c, 0, 66, 0
3, 97620, Note_on_c, 0, 63, 0
3, 97680, Note_on_c, 0, 51, 0
3, 97680, Note_on_c, 0, 39, 0
3, 97800, Note_on_c, 0, 60, 37
3, 97800, Note_on_c, 0, 66, 45
3, 97860, Note_on_c, 0, 66, 0
3, 97860, Note_on_c, 0, 60, 0
3, 98040, Note_on_c, 0, 59, 34
3, 98040, Note_on_c, 0, 64, 40
3, 98100, Note_on_c, 0, 64, 0
3, 98100, Note_on_c, 0, 59, 0
3, 98160, Note_on_c, 0, 59, 35
3, 98160, Note_on_c, 0, 64, 56
3, 98160, Note_on_c, 0, 40, 54
3, 98160, Note_on_c, 0, 52, 57
3, 98220, Note_on_c, 0, 64, 0
3, 98220, Note_on_c, 0, 59, 0
3, 98280, Note_on_c, 0, 59, 36
3, 98280, Note_on_c, 0, 64, 42
3, 98340, Note_on_c, 0, 64, 0
3, 98340, Note_on_c, 0, 59, 0
3, 98400, Note_on_c, 0, 40, 0
3, 98400, Note_on_c, 0, 52, 0
3, 98520, Note_on_c, 0, 59, 37
3, 98520, Note_on_c, 0, 64, 45
3, 98580, Note_on_c, 0, 64, 0
3, 98580, Note_on_c, 0, 59, 0
3, 98760, Note_on_c, 0, 58, 37
3, 98760, Note_on_c, 0, 61, 45
3, 98820, Note_on_c, 0, 61, 0
3, 98820, Note_on_c, 0, 58, 0
3, 98880, Note_on_c, 0, 42, 60
3, 98880, Note_on_c, 0, 54, 65
3, 99000, Note_on_c, 0, 64, 49
3, 99000, Note_on_c, 0, 61, 41
3, 99060, Note_on_c, 0, 61, 0
3, 99060, Note_on_c, 0, 64, 0
3, 99120, Note_on_c, 0, 54, 0
3, 99120, Note_on_c, 0, 42, 0
3, 99240, Note_on_c, 0, 64, 45
3, 99240, Note_on_c, 0, 67, 55
3, 99300, Note_on_c, 0, 67, 0
3, 99300, Note_on_c, 0, 64, 0
3, 99480, Note_on_c, 0, 67, 42
3, 99480, Note_on_c, 0, 70, 50
3, 99540, Note_on_c, 0, 70, 0
3, 99540, Note_on_c, 0, 67, 0
3, 99600, Note_on_c, 0, 47, 73
3, 99600, Note_on_c, 0, 35, 69
3, 99720, Note_on_c, 0, 66, 47
3, 99720, Note_on_c, 0, 71, 56
3, 99780, Note_on_c, 0, 71, 0
3, 99780, Note_on_c, 0, 66, 0
3, 99840, Note_on_c, 0, 35, 0
3, 99840, Note_on_c, 0, 47, 0
3, 99960, Note_on_c, 0, 64, 50
3, 99960, Note_on_c, 0, 67, 61
3, 100020, Note_on_c, 0, 67, 0
3, 100020, Note_on_c, 0, 64, 0
3, 100200, Note_on_c, 0, 63, 34
3, 100200, Note_on_c, 0, 66, 40
3, 100260, Note_on_c, 0, 66, 0
3, 100260, Note_on_c, 0, 63, 0
3, 100320, Note_on_c, 0, 39, 54
3, 100320, Note_on_c, 0, 51, 57
3, 100320, Note_on_c, 0, 63, 35
3, 100320, Note_on_c, 0, 66, 56
3, 100380, Note_on_c, 0, 66, 0
3, 100380, Note_on_c, 0, 63, 0
3, 100440, Note_on_c, 0, 63, 36
3, 100440, Note_on_c, 0, 66, 42
3, 100500, Note_on_c, 0, 66, 0
3, 100500, Note_on_c, 0, 63, 0
3, 100560, Note_on_c, 0, 51, 0
3, 100560, Note_on_c, 0, 39, 0
3, 100680, Note_on_c, 0, 60, 37
3, 100680, Note_on_c, 0, 66, 45
3, 100740, Note_on_c, 0, 66, 0
3, 100740, Note_on_c, 0, 60, 0
3, 100920, Note_on_c, 0, 59, 34
3, 100920, Note_on_c, 0, 64, 40
3, 100980, Note_on_c, 0, 64, 0
3, 100980, Note_on_c, 0, 59, 0
3, 101040, Note_on_c, 0, 59, 35
3, 101040, Note_on_c, 0, 64, 56
3, 101040, Note_on_c, 0, 40, 54
3, 101040, Note_on_c, 0, 52, 57
3, 101100, Note_on_c, 0, 64, 0
3, 101100, Note_on_c, 0, 59, 0
3, 101160, Note_on_c, 0, 59, 36
3, 101160, Note_on_c, 0, 64, 42
3, 101220, Note_on_c, 0, 64, 0
3, 101220, Note_on_c, 0, 59, 0
3, 101280, Note_on_c, 0, 40, 0
3, 101280, Note_on_c, 0, 52, 0
3, 101400, Note_on_c, 0, 59, 37
3, 101400, Note_on_c, 0, 64, 45
3, 101460, Note_on_c, 0, 64, 0
3, 101460, Note_on_c, 0, 59, 0
3, 101640, Note_on_c, 0, 58, 37
3, 101640, Note_on_c, 0, 61, 45
3, 101700, Note_on_c, 0, 61, 0
3, 101700, Note_on_c, 0, 58, 0
3, 101760, Note_on_c, 0, 42, 60
3, 101760, Note_on_c, 0, 54, 65
3, 101880, Note_on_c, 0, 64, 49
3, 101880, Note_on_c, 0, 61, 41
3, 101940, Note_on_c, 0, 61, 0
3, 101940, Note_on_c, 0, 64, 0
3, 102000, Note_on_c, 0, 54, 0
3, 102000, Note_on_c, 0, 42, 0
3, 102120, Note_on_c, 0, 64, 45
3, 102120, Note_on_c, 0, 67, 55
3, 102180, Note_on_c, 0, 67, 0
3, 102180, Note_on_c, 0, 64, 0
3, 102360, Note_on_c, 0, 67, 42
3, 102360, Note_on_c, 0, 70, 50
3, 102420, Note_on_c, 0, 70, 0
3, 102420, Note_on_c, 0, 67, 0
3, 102480, Note_on_c, 0, 47, 73
3, 102480, Note_on_c, 0, 35, 69
3, 102600, Note_on_c, 0, 66, 47
3, 102600, Note_on_c, 0, 71, 56
3, 102660, Note_on_c, 0, 71, 0
3, 102660, Note_on_c, 0, 66, 0
3, 102720, Note_on_c, 0, 35, 0
3, 102720, Note_on_c, 0, 47, 0
3, 102840, Note_on_c, 0, 64, 50
3, 102840, Note_on_c, 0, 67, 61
3, 102900, Note_on_c, 0, 67, 0
3, 102900, Note_on_c, 0, 64, 0
3, 103080, Note_on_c, 0, 66, 61
3, 103080, Note_on_c, 0, 59, 48
3, 103080, Note_on_c, 0, 57, 48
3, 103080, Note_on_c, 0, 54, 48
3, 103080, Note_on_c, 0, 51, 48
3, 103080, Note_on_c, 0, 69, 61
3, 103140, Note_on_c, 0, 69, 0
3, 103140, Note_on_c, 0, 59, 0
3, 103140, Note_on_c, 0, 57, 0
3, 103140, Note_on_c, 0, 66, 0
3, 103140, Note_on_c, 0, 51, 0
3, 103140, Note_on_c, 0, 54, 0
3, 103200, Note_on_c, 0, 51, 42
3, 103200, Note_on_c, 0, 54, 42
3, 103200, Note_on_c, 0, 57, 42
3, 103200, Note_on_c, 0, 59, 42
3, 103200, Note_on_c, 0, 66, 69
3, 103200, Note_on_c, 0, 69, 69
3, 103260, Note_on_c, 0, 69, 0
3, 103260, Note_on_c, 0, 54, 0
3, 103260, Note_on_c, 0, 57, 0
3, 103260, Note_on_c, 0, 51, 0
3, 103260, Note_on_c, 0, 66, 0
3, 103260, Note_on_c, 0, 59, 0
3, 103320, Note_on_c, 0, 69, 65
3, 103320, Note_on_c, 0, 66, 65
3, 103320, Note_on_c, 0, 59, 51
3, 103320, Note_on_c, 0, 57, 51
3, 103320, Note_on_c, 0, 54, 51
3, 103320, Note_on_c, 0, 51, 51
3, 103380, Note_on_c, 0, 51, 0
3, 103380, Note_on_c, 0, 66, 0
3, 103380, Note_on_c, 0, 59, 0
3, 103380, Note_on_c, 0, 69, 0
3, 103380, Note_on_c, 0, 54, 0
3, 103380, Note_on_c, 0, 57, 0
3, 103440, Note_on_c, 0, 51, 46
3, 103440, Note_on_c, 0, 54, 46
3, 103440, Note_on_c, 0, 57, 46
3, 103440, Note_on_c, 0, 59, 46
3, 103440, Note_on_c, 0, 66, 75
3, 103440, Note_on_c, 0, 69, 75
3, 103500, Note_on_c, 0, 69, 0
3, 103500, Note_on_c, 0, 54, 0
3, 103500, Note_on_c, 0, 57, 0
3, 103500, Note_on_c, 0, 51, 0
3, 103500, Note_on_c, 0, 66, 0
3, 103500, Note_on_c, 0, 59, 0
3, 103560, Note_on_c, 0, 69, 70
3, 103560, Note_on_c, 0, 66, 70
3, 103560, Note_on_c, 0, 59, 56
3, 103560, Note_on_c, 0, 57, 56
3, 103560, Note_on_c, 0, 54, 56
3, 103560, Note_on_c, 0, 51, 56
3, 103620, Note_on_c, 0, 51, 0
3, 103620, Note_on_c, 0, 66, 0
3, 103620, Note_on_c, 0, 59, 0
3, 103620, Note_on_c, 0, 69, 0
3, 103620, Note_on_c, 0, 54, 0
3, 103620, Note_on_c, 0, 57, 0
3, 103680, Note_on_c, 0, 51, 49
3, 103680, Note_on_c, 0, 54, 49
3, 103680, Note_on_c, 0, 57, 49
3, 103680, Note_on_c, 0, 59, 49
3, 103680, Note_on_c, 0, 66, 80
3, 103680, Note_on_c, 0, 69, 80
3, 103920, Note_on_c, 0, 69, 0
3, 103920, Note_on_c, 0, 54, 0
3, 103920, Note_on_c, 0, 51, 0
3, 103920, Note_on_c, 0, 57, 0
3, 103920, Note_on_c, 0, 66, 0
3, 103920, Note_on_c, 0, 68, 61
3, 103920, Note_on_c, 0, 64, 61
3, 103920, Note_on_c, 0, 56, 48
3, 103920, Note_on_c, 0, 52, 48
3, 104160, Note_on_c, 0, 52, 0
3, 104160, Note_on_c, 0, 64, 0
3, 104160, Note_on_c, 0, 59, 0
3, 104160, Note_on_c, 0, 68, 0
3, 104160, Note_on_c, 0, 56, 0
3, 104520, Note_on_c, 0, 68, 61
3, 104520, Note_on_c, 0, 61, 48
3, 104520, Note_on_c, 0, 59, 48
3, 104520, Note_on_c, 0, 56, 48
3, 104520, Note_on_c, 0, 53, 48
3, 104520, Note_on_c, 0, 71, 61
3, 104580, Note_on_c, 0, 71, 0
3, 104580, Note_on_c, 0, 61, 0
3, 104580, Note_on_c, 0, 59, 0
3, 104580, Note_on_c, 0, 68, 0
3, 104580, Note_on_c, 0, 53, 0
3, 104580, Note_on_c, 0, 56, 0
3, 104640, Note_on_c, 0, 53, 42
3, 104640, Note_on_c, 0, 56, 42
3, 104640, Note_on_c, 0, 59, 42
3, 104640, Note_on_c, 0, 61, 42
3, 104640, Note_on_c, 0, 68, 69
3, 104640, Note_on_c, 0, 71, 69
3, 104700, Note_on_c, 0, 71, 0
3, 104700, Note_on_c, 0, 56, 0
3, 104700, Note_on_c, 0, 59, 0
3, 104700, Note_on_c, 0, 53, 0
3, 104700, Note_on_c, 0, 68, 0
3, 104700, Note_on_c, 0, 61, 0
3, 104760, Note_on_c, 0, 71, 65
3, 104760, Note_on_c, 0, 68, 65
3, 104760, Note_on_c, 0, 61, 51
3, 104760, Note_on_c, 0, 59, 51
3, 104760, Note_on_c, 0, 56, 51
3, 104760, Note_on_c, 0, 53, 51
3, 104820, Note_on_c, 0, 53, 0
3, 104820, Note_on_c, 0, 68, 0
3, 104820, Note_on_c, 0, 61, 0
3, 104820, Note_on_c, 0, 71, 0
3, 104820, Note_on_c, 0, 56, 0
3, 104820, Note_on_c, 0, 59, 0
3, 104880, Note_on_c, 0, 53, 46
3, 104880, Note_on_c, 0, 56, 46
3, 104880, Note_on_c, 0, 59, 46
3, 104880, Note_on_c, 0, 61, 46
3, 104880, Note_on_c, 0, 68, 75
3, 104880, Note_on_c, 0, 71, 75
3, 104940, Note_on_c, 0, 71, 0
3, 104940, Note_on_c, 0, 56, 0
3, 104940, Note_on_c, 0, 59, 0
3, 104940, Note_on_c, 0, 53, 0
3, 104940, Note_on_c, 0, 68, 0
3, 104940, Note_on_c, 0, 61, 0
3, 105000, Note_on_c, 0, 71, 70
3, 105000, Note_on_c, 0, 68, 70
3, 105000, Note_on_c, 0, 61, 56
3, 105000, Note_on_c, 0, 59, 56
3, 105000, Note_on_c, 0, 56, 56
3, 105000, Note_on_c, 0, 53, 56
3, 105060, Note_on_c, 0, 53, 0
3, 105060, Note_on_c, 0, 68, 0
3, 105060, Note_on_c, 0, 61, 0
3, 105060, Note_on_c, 0, 71, 0
3, 105060, Note_on_c, 0, 56, 0
3, 105060, Note_on_c, 0, 59, 0
3, 105120, Note_on_c, 0, 54, 49
3, 105120, Note_on_c, 0, 59, 49
3, 105120, Note_on_c, 0, 61, 49
3, 105120, Note_on_c, 0, 66, 80
3, 105120, Note_on_c, 0, 71, 80
3, 105360, Note_on_c, 0, 71, 0
3, 105360, Note_on_c, 0, 61, 0
3, 105360, Note_on_c, 0, 54, 0
3, 105360, Note_on_c, 0, 59, 0
3, 105360, Note_on_c, 0, 66, 0
3, 105360, Note_on_c, 0, 64, 61
3, 105360, Note_on_c, 0, 55, 48
3, 105600, Note_on_c, 0, 55, 0
3, 105600, Note_on_c, 0, 64, 0
3, 105960, Note_on_c, 0, 62, 55
3, 105960, Note_on_c, 0, 59, 55
3, 105960, Note_on_c, 0, 54, 55
3, 106020, Note_on_c, 0, 54, 0
3, 106020, Note_on_c, 0, 59, 0
3, 106020, Note_on_c, 0, 62, 0
3, 106080, Note_on_c, 0, 54, 47
3, 106080, Note_on_c, 0, 59, 47
3, 106080, Note_on_c, 0, 62, 47
3, 106140, Note_on_c, 0, 62, 0
3, 106140, Note_on_c, 0, 59, 0
3, 106140, Note_on_c, 0, 54, 0
3, 106200, Note_on_c, 0, 62, 55
3, 106200, Note_on_c, 0, 59, 55
3, 106200, Note_on_c, 0, 54, 55
3, 106260, Note_on_c, 0, 54, 0
3, 106260, Note_on_c, 0, 59, 0
3, 106260, Note_on_c, 0, 62, 0
3, 106320, Note_on_c, 0, 54, 47
3, 106320, Note_on_c, 0, 59, 47
3, 106320, Note_on_c, 0, 62, 47
3, 106380, Note_on_c, 0, 62, 0
3, 106380, Note_on_c, 0, 59, 0
3, 106380, Note_on_c, 0, 54, 0
3, 106440, Note_on_c, 0, 62, 55
3, 106440, Note_on_c, 0, 59, 55
3, 106440, Note_on_c, 0, 54, 55
3, 106500, Note_on_c, 0, 54, 0
3, 106500, Note_on_c, 0, 59, 0
3, 106500, Note_on_c, 0, 62, 0
3, 106680, Note_on_c, 0, 64, 55
3, 106680, Note_on_c, 0, 61, 55
3, 106680, Note_on_c, 0, 54, 55
3, 106740, Note_on_c, 0, 54, 0
3, 106740, Note_on_c, 0, 61, 0
3, 106740, Note_on_c, 0, 64, 0
3, 106800, Note_on_c, 0, 54, 47
3, 106800, Note_on_c, 0, 61, 47
3, 106800, Note_on_c, 0, 64, 47
3, 106860, Note_on_c, 0, 64, 0
3, 106860, Note_on_c, 0, 61, 0
3, 106860, Note_on_c, 0, 54, 0
3, 106920, Note_on_c, 0, 64, 55
3, 106920, Note_on_c, 0, 61, 55
3, 106920, Note_on_c, 0, 54, 55
3, 106980, Note_on_c, 0, 54, 0
3, 106980, Note_on_c, 0, 61, 0
3, 106980, Note_on_c, 0, 64, 0
3, 107040, Note_on_c, 0, 54, 47
3, 107040, Note_on_c, 0, 61, 47
3, 107040, Note_on_c, 0, 64, 47
3, 107100, Note_on_c, 0, 64, 0
3, 107100, Note_on_c, 0, 61, 0
3, 107100, Note_on_c, 0, 54, 0
3, 107160, Note_on_c, 0, 64, 55
3, 107160, Note_on_c, 0, 61, 55
3, 107160, Note_on_c, 0, 54, 55
3, 107220, Note_on_c, 0, 54, 0
3, 107220, Note_on_c, 0, 61, 0
3, 107220, Note_on_c, 0, 64, 0
3, 107280, Note_on_c, 0, 59, 70
3, 107280, Note_on_c, 0, 62, 70
3, 107520, Note_on_c, 0, 62, 0
3, 107520, Note_on_c, 0, 59, 0
3, 108840, Note_on_c, 0, 54, 64
3, 108840, Note_on_c, 0, 42, 64
3, 108900, Note_on_c, 0, 42, 0
3, 108900, Note_on_c, 0, 54, 0
3, 108960, Note_on_c, 0, 42, 55
3, 108960, Note_on_c, 0, 54, 55
3, 109020, Note_on_c, 0, 54, 0
3, 109020, Note_on_c, 0, 42, 0
3, 109080, Note_on_c, 0, 54, 64
3, 109080, Note_on_c, 0, 42, 64
3, 109140, Note_on_c, 0, 42, 0
3, 109140, Note_on_c, 0, 54, 0
3, 109200, Note_on_c, 0, 42, 55
3, 109200, Note_on_c, 0, 54, 55
3, 109260, Note_on_c, 0, 54, 0
3, 109260, Note_on_c, 0, 42, 0
3, 109320, Note_on_c, 0, 54, 64
3, 109320, Note_on_c, 0, 42, 64
3, 109380, Note_on_c, 0, 42, 0
3, 109380, Note_on_c, 0, 54, 0
3, 109440, Note_on_c, 0, 42, 66
3, 109440, Note_on_c, 0, 54, 66
3, 109500, Note_on_c, 0, 54, 0
3, 109500, Note_on_c, 0, 42, 0
3, 109560, Note_on_c, 0, 54, 64
3, 109560, Note_on_c, 0, 42, 64
3, 109620, Note_on_c, 0, 42, 0
3, 109620, Note_on_c, 0, 54, 0
3, 109680, Note_on_c, 0, 42, 55
3, 109680, Note_on_c, 0, 54, 55
3, 109740, Note_on_c, 0, 54, 0
3, 109740, Note_on_c, 0, 42, 0
3, 109800, Note_on_c, 0, 54, 64
3, 109800, Note_on_c, 0, 42, 64
3, 109860, Note_on_c, 0, 42, 0
3, 109860, Note_on_c, 0, 54, 0
3, 109920, Note_on_c, 0, 42, 55
3, 109920, Note_on_c, 0, 54, 55
3, 109980, Note_on_c, 0, 54, 0
3, 109980, Note_on_c, 0, 42, 0
3, 110040, Note_on_c, 0, 54, 64
3, 110040, Note_on_c, 0, 42, 64
3, 110100, Note_on_c, 0, 42, 0
3, 110100, Note_on_c, 0, 54, 0
3, 110160, Note_on_c, 0, 35, 82
3, 110160, Note_on_c, 0, 47, 82
3, 110400, Note_on_c, 0, 47, 0
3, 110400, Note_on_c, 0, 35, 0
3, 111720, Note_on_c, 0, 42, 74
3, 111720, Note_on_c, 0, 30, 74
3, 111780, Note_on_c, 0, 30, 0
3, 111780, Note_on_c, 0, 42, 0
3, 111840, Note_on_c, 0, 30, 63
3, 111840, Note_on_c, 0, 42, 63
3, 111900, Note_on_c, 0, 42, 0
3, 111900, Note_on_c, 0, 30, 0
3, 111960, Note_on_c, 0, 42, 74
3, 111960, Note_on_c, 0, 30, 74
3, 112020, Note_on_c, 0, 30, 0
3, 112020, Note_on_c, 0, 42, 0
3, 112080, Note_on_c, 0, 30, 63
3, 112080, Note_on_c, 0, 42, 63
3, 112140, Note_on_c, 0, 42, 0
3, 112140, Note_on_c, 0, 30, 0
3, 112200, Note_on_c, 0, 42, 74
3, 112200, Note_on_c, 0, 30, 74
3, 112260, Note_on_c, 0, 30, 0
3, 112260, Note_on_c, 0, 42, 0
3, 112320, Note_on_c, 0, 30, 55
3, 112320, Note_on_c, 0, 42, 55
3, 112380, Note_on_c, 0, 42, 0
3, 112380, Note_on_c, 0, 30, 0
3, 112440, Note_on_c, 0, 42, 64
3, 112440, Note_on_c, 0, 30, 64
3, 112500, Note_on_c, 0, 30, 0
3, 112500, Note_on_c, 0, 42, 0
3, 112560, Note_on_c, 0, 30, 55
3, 112560, Note_on_c, 0, 42, 55
3, 112620, Note_on_c, 0, 42, 0
3, 112620, Note_on_c, 0, 30, 0
3, 112680, Note_on_c, 0, 42, 64
3, 112680, Note_on_c, 0, 30, 64
3, 112740, Note_on_c, 0, 30, 0
3, 112740, Note_on_c, 0, 42, 0
3, 112800, Note_on_c, 0, 30, 55
3, 112800, Note_on_c, 0, 42, 55
3, 112860, Note_on_c, 0, 42, 0
3, 112860, Note_on_c, 0, 30, 0
3, 112920, Note_on_c, 0, 42, 64
3, 112920, Note_on_c, 0, 30, 64
3, 112980, Note_on_c, 0, 30, 0
3, 112980, Note_on_c, 0, 42, 0
3, 113160, Note_on_c, 0, 42, 74
3, 113160, Note_on_c, 0, 30, 74
3, 113220, Note_on_c, 0, 30, 0
3, 113220, Note_on_c, 0, 42, 0
3, 113280, Note_on_c, 0, 30, 63
3, 113280, Note_on_c, 0, 42, 63
3, 113340, Note_on_c, 0, 42, 0
3, 113340, Note_on_c, 0, 30, 0
3, 113400, Note_on_c, 0, 42, 74
3, 113400, Note_on_c, 0, 30, 74
3, 113460, Note_on_c, 0, 30, 0
3, 113460, Note_on_c, 0, 42, 0
3, 113520, Note_on_c, 0, 30, 63
3, 113520, Note_on_c, 0, 42, 63
3, 113580, Note_on_c, 0, 42, 0
3, 113580, Note_on_c, 0, 30, 0
3, 113640, Note_on_c, 0, 42, 74
3, 113640, Note_on_c, 0, 30, 74
3, 113700, Note_on_c, 0, 30, 0
3, 113700, Note_on_c, 0, 42, 0
3, 113760, Note_on_c, 0, 30, 55
3, 113760, Note_on_c, 0, 42, 55
3, 113820, Note_on_c, 0, 42, 0
3, 113820, Note_on_c, 0, 30, 0
3, 113880, Note_on_c, 0, 42, 64
3, 113880, Note_on_c, 0, 30, 64
3, 113940, Note_on_c, 0, 30, 0
3, 113940, Note_on_c, 0, 42, 0
3, 114000, Note_on_c, 0, 30, 55
3, 114000, Note_on_c, 0, 42, 55
3, 114060, Note_on_c, 0, 42, 0
3, 114060, Note_on_c, 0, 30, 0
3, 114120, Note_on_c, 0, 42, 64
3, 114120, Note_on_c, 0, 30, 64
3, 114180, Note_on_c, 0, 30, 0
3, 114180, Note_on_c, 0, 42, 0
3, 114240, Note_on_c, 0, 30, 55
3, 114240, Note_on_c, 0, 42, 55
3, 114300, Note_on_c, 0, 42, 0
3, 114300, Note_on_c, 0, 30, 0
3, 114360, Note_on_c, 0, 42, 64
3, 114360, Note_on_c, 0, 30, 64
3, 114420, Note_on_c, 0, 30, 0
3, 114420, Note_on_c, 0, 42, 0
3, 114600, Note_on_c, 0, 54, 74
3, 114600, Note_on_c, 0, 42, 74
3, 114660, Note_on_c, 0, 42, 0
3, 114660, Note_on_c, 0, 54, 0
3, 114720, Note_on_c, 0, 42, 68
3, 114720, Note_on_c, 0, 54, 68
3, 114780, Note_on_c, 0, 54, 0
3, 114780, Note_on_c, 0, 42, 0
3, 114840, Note_on_c, 0, 54, 81
3, 114840, Note_on_c, 0, 42, 81
3, 114900, Note_on_c, 0, 42, 0
3, 114900, Note_on_c, 0, 54, 0
3, 114960, Note_on_c, 0, 42, 68
3, 114960, Note_on_c, 0, 54, 68
3, 115020, Note_on_c, 0, 54, 0
3, 115020, Note_on_c, 0, 42, 0
3, 115080, Note_on_c, 0, 54, 81
3, 115080, Note_on_c, 0, 42, 81
3, 115140, Note_on_c, 0, 42, 0
3, 115140, Note_on_c, 0, 54, 0
3, 115200, Note_on_c, 0, 42, 60
3, 115200, Note_on_c, 0, 54, 60
3, 115260, Note_on_c, 0, 54, 0
3, 115320, Note_on_c, 0, 54, 70
3, 115380, Note_on_c, 0, 54, 0
3, 115440, Note_on_c, 0, 42, 0
3, 115440, Note_on_c, 0, 54, 60
3, 115500, Note_on_c, 0, 54, 0
3, 115560, Note_on_c, 0, 54, 70
3, 115620, Note_on_c, 0, 54, 0
3, 115680, Note_on_c, 0, 42, 55
3, 115680, Note_on_c, 0, 54, 55
3, 115740, Note_on_c, 0, 54, 0
3, 115800, Note_on_c, 0, 54, 64
3, 115860, Note_on_c, 0, 54, 0
3, 115920, Note_on_c, 0, 42, 0
3, 115920, Note_on_c, 0, 47, 75
3, 115980, Note_on_c, 0, 47, 0
3, 116040, Note_on_c, 0, 54, 51
3, 116100, Note_on_c, 0, 54, 0
3, 116160, Note_on_c, 0, 54, 56
3, 116220, Note_on_c, 0, 54, 0
3, 116280, Note_on_c, 0, 54, 51
3, 116340, Note_on_c, 0, 54, 0
3, 116400, Note_on_c, 0, 54, 56
3, 116460, Note_on_c, 0, 54, 0
3, 116520, Note_on_c, 0, 54, 39
3, 116580, Note_on_c, 0, 54, 0
3, 116640, Note_on_c, 0, 54, 51
3, 116700, Note_on_c, 0, 54, 0
3, 116760, Note_on_c, 0, 54, 46
3, 116820, Note_on_c, 0, 54, 0
3, 116880, Note_on_c, 0, 54, 51
3, 116940, Note_on_c, 0, 54, 0
3, 117000, Note_on_c, 0, 54, 45
3, 117060, Note_on_c, 0, 54, 0
3, 117120, Note_on_c, 0, 53, 51
3, 117180, Note_on_c, 0, 53, 0
3, 117240, Note_on_c, 0, 53, 46
3, 117300, Note_on_c, 0, 53, 0
3, 117360, Note_on_c, 0, 54, 56
3, 117420, Note_on_c, 0, 54, 0
3, 117480, Note_on_c, 0, 54, 51
3, 117540, Note_on_c, 0, 54, 0
3, 117600, Note_on_c, 0, 55, 62
3, 117660, Note_on_c, 0, 55, 0
3, 117720, Note_on_c, 0, 55, 56
3, 117780, Note_on_c, 0, 55, 0
3, 117840, Note_on_c, 0, 54, 57
3, 117900, Note_on_c, 0, 54, 0
3, 117960, Note_on_c, 0, 54, 48
3, 118020, Note_on_c, 0, 54, 0
3, 118080, Note_on_c, 0, 55, 69
3, 118140, Note_on_c, 0, 55, 0
3, 118200, Note_on_c, 0, 55, 62
3, 118260, Note_on_c, 0, 55, 0
3, 118320, Note_on_c, 0, 54, 62
3, 118380, Note_on_c, 0, 54, 0
3, 118440, Note_on_c, 0, 54, 53
3, 118500, Note_on_c, 0, 54, 0
3, 118560, Note_on_c, 0, 58, 46
3, 118620, Note_on_c, 0, 58, 0
3, 118680, Note_on_c, 0, 58, 39
3, 118740, Note_on_c, 0, 58, 0
3, 118800, Note_on_c, 0, 59, 49
3, 118860, Note_on_c, 0, 59, 0
3, 118920, Note_on_c, 0, 59, 45
3, 118980, Note_on_c, 0, 59, 0
3, 119040, Note_on_c, 0, 61, 52
3, 119100, Note_on_c, 0, 61, 0
3, 119160, Note_on_c, 0, 61, 49
3, 119220, Note_on_c, 0, 61, 0
3, 119280, Note_on_c, 0, 62, 53
3, 119340, Note_on_c, 0, 62, 0
3, 119400, Note_on_c, 0, 62, 51
3, 119460, Note_on_c, 0, 62, 0
3, 119520, Note_on_c, 0, 64, 64
3, 119580, Note_on_c, 0, 64, 0
3, 119640, Note_on_c, 0, 64, 62
3, 119700, Note_on_c, 0, 64, 0
3, 119760, Note_on_c, 0, 66, 67
3, 119820, Note_on_c, 0, 66, 0
3, 119880, Note_on_c, 0, 66, 61
3, 119940, Note_on_c, 0, 66, 0
3, 120000, Note_on_c, 0, 64, 68
3, 120060, Note_on_c, 0, 64, 0
3, 120120, Note_on_c, 0, 64, 58
3, 120180, Note_on_c, 0, 64, 0
3, 120240, Note_on_c, 0, 62, 67
3, 120300, Note_on_c, 0, 62, 0
3, 120360, Note_on_c, 0, 62, 59
3, 120420, Note_on_c, 0, 62, 0
3, 120480, Note_on_c, 0, 60, 62
3, 120540, Note_on_c, 0, 60, 0
3, 120600, Note_on_c, 0, 60, 51
3, 120660, Note_on_c, 0, 60, 0
3, 120720, Note_on_c, 0, 59, 60
3, 120780, Note_on_c, 0, 59, 0
3, 120840, Note_on_c, 0, 59, 51
3, 120900, Note_on_c, 0, 59, 0
3, 120960, Note_on_c, 0, 58, 53
3, 121020, Note_on_c, 0, 58, 0
3, 121080, Note_on_c, 0, 58, 49
3, 121140, Note_on_c, 0, 58, 0
3, 121200, Note_on_c, 0, 59, 52
3, 121260, Note_on_c, 0, 59, 0
3, 121320, Note_on_c, 0, 59, 47
3, 121380, Note_on_c, 0, 59, 0
3, 121440, Note_on_c, 0, 54, 52
3, 121500, Note_on_c, 0, 54, 0
3, 121560, Note_on_c, 0, 54, 49
3, 121620, Note_on_c, 0, 54, 0
3, 121680, Note_on_c, 0, 55, 51
3, 121740, Note_on_c, 0, 55, 0
3, 121800, Note_on_c, 0, 55, 42
3, 121860, Note_on_c, 0, 55, 0
3, 121920, Note_on_c, 0, 53, 57
3, 121980, Note_on_c, 0, 53, 0
3, 122040, Note_on_c, 0, 53, 38
3, 122100, Note_on_c, 0, 53, 0
3, 122160, Note_on_c, 0, 54, 43
3, 122220, Note_on_c, 0, 54, 0
3, 122280, Note_on_c, 0, 54, 34
3, 122340, Note_on_c, 0, 54, 0
3, 122400, Note_on_c, 0, 49, 42
3, 122460, Note_on_c, 0, 49, 0
3, 122520, Note_on_c, 0, 49, 36
3, 122580, Note_on_c, 0, 49, 0
3, 122640, Note_on_c, 0, 50, 42
3, 122700, Note_on_c, 0, 50, 0
3, 122760, Note_on_c, 0, 50, 35
3, 122820, Note_on_c, 0, 50, 0
3, 122880, Note_on_c, 0, 59, 40
3, 122880, Note_on_c, 0, 54, 32
3, 122880, Note_on_c, 0, 42, 32
3, 122940, Note_on_c, 0, 42, 0
3, 122940, Note_on_c, 0, 54, 0
3, 122940, Note_on_c, 0, 59, 0
3, 123000, Note_on_c, 0, 42, 30
3, 123000, Note_on_c, 0, 54, 30
3, 123000, Note_on_c, 0, 59, 38
3, 123060, Note_on_c, 0, 59, 0
3, 123060, Note_on_c, 0, 54, 0
3, 123060, Note_on_c, 0, 42, 0
3, 123120, Note_on_c, 0, 59, 33
3, 123120, Note_on_c, 0, 54, 33
3, 123120, Note_on_c, 0, 47, 40
3, 123180, Note_on_c, 0, 47, 0
3, 123180, Note_on_c, 0, 54, 0
3, 123180, Note_on_c, 0, 59, 0
3, 123240, Note_on_c, 0, 59, 34
3, 123240, Note_on_c, 0, 54, 34
3, 123240, Note_on_c, 0, 47, 34
3, 123240, Note_on_c, 0, 62, 45
3, 123300, Note_on_c, 0, 62, 0
3, 123300, Note_on_c, 0, 59, 0
3, 123300, Note_on_c, 0, 54, 0
3, 123300, Note_on_c, 0, 47, 0
3, 123360, Note_on_c, 0, 59, 40
3, 123360, Note_on_c, 0, 54, 40
3, 123360, Note_on_c, 0, 47, 40
3, 123360, Note_on_c, 0, 62, 40
3, 123360, Note_on_c, 0, 66, 51
3, 123420, Note_on_c, 0, 66, 0
3, 123420, Note_on_c, 0, 47, 0
3, 123420, Note_on_c, 0, 59, 0
3, 123420, Note_on_c, 0, 54, 0
3, 123420, Note_on_c, 0, 62, 0
3, 123480, Note_on_c, 0, 59, 45
3, 123480, Note_on_c, 0, 54, 45
3, 123480, Note_on_c, 0, 47, 45
3, 123480, Note_on_c, 0, 62, 45
3, 123480, Note_on_c, 0, 66, 58
3, 123540, Note_on_c, 0, 66, 0
3, 123540, Note_on_c, 0, 47, 0
3, 123540, Note_on_c, 0, 59, 0
3, 123540, Note_on_c, 0, 54, 0
3, 123540, Note_on_c, 0, 62, 0
3, 123600, Note_on_c, 0, 59, 53
3, 123600, Note_on_c, 0, 54, 53
3, 123600, Note_on_c, 0, 47, 53
3, 123600, Note_on_c, 0, 62, 53
3, 123600, Note_on_c, 0, 66, 67
3, 123660, Note_on_c, 0, 66, 0
3, 123660, Note_on_c, 0, 47, 0
3, 123660, Note_on_c, 0, 59, 0
3, 123660, Note_on_c, 0, 54, 0
3, 123660, Note_on_c, 0, 62, 0
3, 123720, Note_on_c, 0, 59, 63
3, 123720, Note_on_c, 0, 54, 63
3, 123720, Note_on_c, 0, 47, 63
3, 123720, Note_on_c, 0, 62, 63
3, 123720, Note_on_c, 0, 66, 78
3, 123780, Note_on_c, 0, 66, 0
3, 123780, Note_on_c, 0, 47, 0
3, 123780, Note_on_c, 0, 59, 0
3, 123780, Note_on_c, 0, 54, 0
3, 123780, Note_on_c, 0, 62, 0
3, 123840, Note_on_c, 0, 62, 62
3, 123840, Note_on_c, 0, 66, 74
3, 123840, Note_on_c, 0, 59, 62
3, 123840, Note_on_c, 0, 54, 52
3, 123840, Note_on_c, 0, 47, 52
3, 123900, Note_on_c, 0, 47, 0
3, 123900, Note_on_c, 0, 59, 0
3, 123900, Note_on_c, 0, 62, 0
3, 123900, Note_on_c, 0, 66, 0
3, 123900, Note_on_c, 0, 54, 0
3, 123960, Note_on_c, 0, 66, 62
3, 123960, Note_on_c, 0, 59, 52
3, 123960, Note_on_c, 0, 54, 44
3, 123960, Note_on_c, 0, 47, 44
3, 123960, Note_on_c, 0, 62, 52
3, 124020, Note_on_c, 0, 62, 0
3, 124020, Note_on_c, 0, 54, 0
3, 124020, Note_on_c, 0, 66, 0
3, 124020, Note_on_c, 0, 59, 0
3, 124020, Note_on_c, 0, 47, 0
3, 124080, Note_on_c, 0, 59, 58
3, 124080, Note_on_c, 0, 54, 49
3, 124080, Note_on_c, 0, 47, 49
3, 124080, Note_on_c, 0, 62, 58
3, 124080, Note_on_c, 0, 66, 69
3, 124140, Note_on_c, 0, 66, 0
3, 124140, Note_on_c, 0, 47, 0
3, 124140, Note_on_c, 0, 59, 0
3, 124140, Note_on_c, 0, 54, 0
3, 124140, Note_on_c, 0, 62, 0
3, 124200, Note_on_c, 0, 59, 54
3, 124200, Note_on_c, 0, 54, 45
3, 124200, Note_on_c, 0, 47, 45
3, 124200, Note_on_c, 0, 62, 54
3, 124200, Note_on_c, 0, 66, 63
3, 124260, Note_on_c, 0, 66, 0
3, 124260, Note_on_c, 0, 47, 0
3, 124260, Note_on_c, 0, 59, 0
3, 124260, Note_on_c, 0, 54, 0
3, 124260, Note_on_c, 0, 62, 0
3, 124320, Note_on_c, 0, 59, 59
3, 124320, Note_on_c, 0, 54, 50
3, 124320, Note_on_c, 0, 47, 50
3, 124320, Note_on_c, 0, 62, 59
3, 124320, Note_on_c, 0, 66, 70
3, 124380, Note_on_c, 0, 66, 0
3, 124380, Note_on_c, 0, 47, 0
3, 124380, Note_on_c, 0, 59, 0
3, 124380, Note_on_c, 0, 54, 0
3, 124380, Note_on_c, 0, 62, 0
3, 124440, Note_on_c, 0, 66, 62
3, 124440, Note_on_c, 0, 62, 53
3, 124440, Note_on_c, 0, 47, 44
3, 124440, Note_on_c, 0, 54, 44
3, 124440, Note_on_c, 0, 59, 53
3, 124500, Note_on_c, 0, 59, 0
3, 124500, Note_on_c, 0, 47, 0
3, 124500, Note_on_c, 0, 66, 0
3, 124500, Note_on_c, 0, 62, 0
3, 124500, Note_on_c, 0, 54, 0
3, 124560, Note_on_c, 0, 62, 57
3, 124560, Note_on_c, 0, 66, 68
3, 124560, Note_on_c, 0, 59, 57
3, 124560, Note_on_c, 0, 54, 48
3, 124560, Note_on_c, 0, 47, 48
3, 124620, Note_on_c, 0, 47, 0
3, 124620, Note_on_c, 0, 59, 0
3, 124620, Note_on_c, 0, 62, 0
3, 124620, Note_on_c, 0, 66, 0
3, 124620, Note_on_c, 0, 54, 0
3, 124680, Note_on_c, 0, 66, 58
3, 124680, Note_on_c, 0, 59, 49
3, 124680, Note_on_c, 0, 54, 40
3, 124680, Note_on_c, 0, 47, 40
3, 124680, Note_on_c, 0, 62, 49
3, 124740, Note_on_c, 0, 62, 0
3, 124740, Note_on_c, 0, 54, 0
3, 124740, Note_on_c, 0, 66, 0
3, 124740, Note_on_c, 0, 59, 0
3, 124740, Note_on_c, 0, 47, 0
3, 124800, Note_on_c, 0, 59, 55
3, 124800, Note_on_c, 0, 54, 46
3, 124800, Note_on_c, 0, 47, 46
3, 124800, Note_on_c, 0, 62, 55
3, 124800, Note_on_c, 0, 66, 65
3, 124860, Note_on_c, 0, 66, 0
3, 124860, Note_on_c, 0, 47, 0
3, 124860, Note_on_c, 0, 59, 0
3, 124860, Note_on_c, 0, 54, 0
3, 124860, Note_on_c, 0, 62, 0
3, 124920, Note_on_c, 0, 59, 49
3, 124920, Note_on_c, 0, 54, 41
3, 124920, Note_on_c, 0, 47, 41
3, 124920, Note_on_c, 0, 62, 49
3, 124920, Note_on_c, 0, 66, 58
3, 124980, Note_on_c, 0, 66, 0
3, 124980, Note_on_c, 0, 47, 0
3, 124980, Note_on_c, 0, 59, 0
3, 124980, Note_on_c, 0, 54, 0
3, 124980, Note_on_c, 0, 62, 0
3, 125040, Note_on_c, 0, 59, 53
3, 125040, Note_on_c, 0, 54, 44
3, 125040, Note_on_c, 0, 47, 44
3, 125040, Note_on_c, 0, 62, 53
3, 125040, Note_on_c, 0, 66, 63
3, 125100, Note_on_c, 0, 66, 0
3, 125100, Note_on_c, 0, 47, 0
3, 125100, Note_on_c, 0, 59, 0
3, 125100, Note_on_c, 0, 54, 0
3, 125100, Note_on_c, 0, 62, 0
3, 125160, Note_on_c, 0, 66, 59
3, 125160, Note_on_c, 0, 62, 50
3, 125160, Note_on_c, 0, 47, 42
3, 125160, Note_on_c, 0, 54, 42
3, 125160, Note_on_c, 0, 59, 50
3, 125220, Note_on_c, 0, 59, 0
3, 125220, Note_on_c, 0, 47, 0
3, 125220, Note_on_c, 0, 66, 0
3, 125220, Note_on_c, 0, 62, 0
3, 125220, Note_on_c, 0, 54, 0
3, 125280, Note_on_c, 0, 66, 65
3, 125280, Note_on_c, 0, 62, 55
3, 125280, Note_on_c, 0, 59, 55
3, 125280, Note_on_c, 0, 54, 46
3, 125280, Note_on_c, 0, 47, 46
3, 125460, Note_on_c, 0, 47, 0
3, 125460, Note_on_c, 0, 59, 0
3, 125460, Note_on_c, 0, 66, 0
3, 125460, Note_on_c, 0, 62, 0
3, 125460, Note_on_c, 0, 54, 0
3, 125520, Note_on_c, 0, 66, 55
3, 125520, Note_on_c, 0, 62, 46
3, 125520, Note_on_c, 0, 59, 46
3, 125520, Note_on_c, 0, 54, 39
3, 125520, Note_on_c, 0, 47, 39
3, 125700, Note_on_c, 0, 47, 0
3, 125700, Note_on_c, 0, 59, 0
3, 125700, Note_on_c, 0, 66, 0
3, 125700, Note_on_c, 0, 62, 0
3, 125700, Note_on_c, 0, 54, 0
3, 125760, Note_on_c, 0, 66, 53
3, 125760, Note_on_c, 0, 62, 45
3, 125760, Note_on_c, 0, 59, 45
3, 125760, Note_on_c, 0, 54, 38
3, 125760, Note_on_c, 0, 47, 38
3, 125940, Note_on_c, 0, 47, 0
3, 125940, Note_on_c, 0, 59, 0
3, 125940, Note_on_c, 0, 66, 0
3, 125940, Note_on_c, 0, 62, 0
3, 125940, Note_on_c, 0, 54, 0
3, 126000, Note_on_c, 0, 62, 36
3, 126000, Note_on_c, 0, 66, 44
3, 126000, Note_on_c, 0, 59, 36
3, 126000, Note_on_c, 0, 54, 30
3, 126000, Note_on_c, 0, 47, 30
3, 126240, Note_on_c, 0, 47, 0
3, 126240, Note_on_c, 0, 59, 0
3, 126240, Note_on_c, 0, 62, 0
3, 126240, Note_on_c, 0, 66, 0
3, 126240, Note_on_c, 0, 54, 0
3, 126720, Note_on_c, 0, 47, 27
3, 126720, Note_on_c, 0, 54, 27
3, 126720, Note_on_c, 0, 59, 33
3, 126720, Note_on_c, 0, 62, 33
3, 126720, Note_on_c, 0, 66, 40
3, 126960, Note_on_c, 0, 66, 0
3, 126960, Note_on_c, 0, 59, 0
3, 126960, Note_on_c, 0, 47, 0
3, 126960, Note_on_c, 0, 54, 0
3, 126960, Note_on_c, 0, 62, 0
3, 127440, Note_on_c, 0, 47, 24
3, 127440, Note_on_c, 0, 54, 24
3, 127440, Note_on_c, 0, 59, 29
3, 127440, Note_on_c, 0, 62, 29
3, 127440, Note_on_c, 0, 66, 35
3, 127680, Note_on_c, 0, 66, 0
3, 127680, Note_on_c, 0, 59, 0
3, 127680, Note_on_c, 0, 47, 0
3, 127680, Note_on_c, 0, 54, 0
3, 127680, Note_on_c, 0, 62, 0
3, 127680, End_track
4, 0, Start_track
4, 0, Title_t, "Pedale"
4, 0, Program_c, 0, 0
4, 1477, Control_c, 0, 64, 127
4, 1689, Control_c, 0, 64, 0
4, 2199, Control_c, 0, 64, 127
4, 2403, Control_c, 0, 64, 0
4, 2919, Control_c, 0, 64, 127
4, 3138, Control_c, 0, 64, 0
4, 3643, Control_c, 0, 64, 127
4, 4097, Control_c, 0, 64, 0
4, 4137, Control_c, 0, 64, 127
4, 4320, Control_c, 0, 64, 0
4, 4372, Control_c, 0, 64, 127
4, 4695, Control_c, 0, 64, 0
4, 5068, Control_c, 0, 64, 127
4, 5418, Control_c, 0, 64, 0
4, 5783, Control_c, 0, 64, 127
4, 6124, Control_c, 0, 64, 0
4, 6532, Control_c, 0, 64, 127
4, 6743, Control_c, 0, 64, 0
4, 6772, Control_c, 0, 64, 127
4, 6977, Control_c, 0, 64, 0
4, 7229, Control_c, 0, 64, 127
4, 7446, Control_c, 0, 64, 0
4, 7952, Control_c, 0, 64, 127
4, 8174, Control_c, 0, 64, 0
4, 8231, Control_c, 0, 64, 127
4, 8410, Control_c, 0, 64, 0
4, 8443, Control_c, 0, 64, 127
4, 8646, Control_c, 0, 64, 0
4, 8710, Control_c, 0, 64, 127
4, 8895, Control_c, 0, 64, 0
4, 8942, Control_c, 0, 64, 127
4, 9132, Control_c, 0, 64, 0
4, 9160, Control_c, 0, 64, 127
4, 9366, Control_c, 0, 64, 0
4, 9430, Control_c, 0, 64, 127
4, 9861, Control_c, 0, 64, 0
4, 9914, Control_c, 0, 64, 127
4, 10086, Control_c, 0, 64, 0
4, 10133, Control_c, 0, 64, 127
4, 10449, Control_c, 0, 64, 0
4, 10839, Control_c, 0, 64, 127
4, 11298, Control_c, 0, 64, 0
4, 11337, Control_c, 0, 64, 127
4, 11529, Control_c, 0, 64, 0
4, 11555, Control_c, 0, 64, 127
4, 11889, Control_c, 0, 64, 0
4, 12257, Control_c, 0, 64, 127
4, 12626, Control_c, 0, 64, 0
4, 12981, Control_c, 0, 64, 127
4, 13348, Control_c, 0, 64, 0
4, 13703, Control_c, 0, 64, 127
4, 14160, Control_c, 0, 64, 0
4, 14439, Control_c, 0, 64, 127
4, 14923, Control_c, 0, 64, 0
4, 15129, Control_c, 0, 64, 127
4, 15629, Control_c, 0, 64, 0
4, 15852, Control_c, 0, 64, 127
4, 16226, Control_c, 0, 64, 0
4, 16603, Control_c, 0, 64, 127
4, 17294, Control_c, 0, 64, 0
4, 17336, Control_c, 0, 64, 127
4, 17533, Control_c, 0, 64, 0
4, 17556, Control_c, 0, 64, 127
4, 17770, Control_c, 0, 64, 0
4, 17799, Control_c, 0, 64, 127
4, 18018, Control_c, 0, 64, 0
4, 18043, Control_c, 0, 64, 127
4, 18490, Control_c, 0, 64, 0
4, 18526, Control_c, 0, 64, 127
4, 18741, Control_c, 0, 64, 0
4, 18768, Control_c, 0, 64, 127
4, 19211, Control_c, 0, 64, 0
4, 19251, Control_c, 0, 64, 127
4, 19448, Control_c, 0, 64, 0
4, 19511, Control_c, 0, 64, 127
4, 20168, Control_c, 0, 64, 0
4, 20191, Control_c, 0, 64, 127
4, 20650, Control_c, 0, 64, 0
4, 20674, Control_c, 0, 64, 127
4, 20884, Control_c, 0, 64, 0
4, 20936, Control_c, 0, 64, 127
4, 21621, Control_c, 0, 64, 0
4, 21657, Control_c, 0, 64, 127
4, 22093, Control_c, 0, 64, 0
4, 22126, Control_c, 0, 64, 127
4, 22342, Control_c, 0, 64, 0
4, 22377, Control_c, 0, 64, 127
4, 23050, Control_c, 0, 64, 0
4, 23083, Control_c, 0, 64, 127
4, 23531, Control_c, 0, 64, 0
4, 23566, Control_c, 0, 64, 127
4, 23782, Control_c, 0, 64, 0
4, 23796, Control_c, 0, 64, 127
4, 24971, Control_c, 0, 64, 0
4, 25237, Control_c, 0, 64, 127
4, 25449, Control_c, 0, 64, 0
4, 25959, Control_c, 0, 64, 127
4, 26163, Control_c, 0, 64, 0
4, 26679, Control_c, 0, 64, 127
4, 26898, Control_c, 0, 64, 0
4, 27403, Control_c, 0, 64, 127
4, 27857, Control_c, 0, 64, 0
4, 27897, Control_c, 0, 64, 127
4, 28080, Control_c, 0, 64, 0
4, 28132, Control_c, 0, 64, 127
4, 28455, Control_c, 0, 64, 0
4, 28828, Control_c, 0, 64, 127
4, 29178, Control_c, 0, 64, 0
4, 29543, Control_c, 0, 64, 127
4, 29884, Control_c, 0, 64, 0
4, 30292, Control_c, 0, 64, 127
4, 30503, Control_c, 0, 64, 0
4, 30532, Control_c, 0, 64, 127
4, 30737, Control_c, 0, 64, 0
4, 30989, Control_c, 0, 64, 127
4, 31206, Control_c, 0, 64, 0
4, 31712, Control_c, 0, 64, 127
4, 31934, Control_c, 0, 64, 0
4, 31991, Control_c, 0, 64, 127
4, 32170, Control_c, 0, 64, 0
4, 32203, Control_c, 0, 64, 127
4, 32406, Control_c, 0, 64, 0
4, 32470, Control_c, 0, 64, 127
4, 32655, Control_c, 0, 64, 0
4, 32702, Control_c, 0, 64, 127
4, 32892, Control_c, 0, 64, 0
4, 32920, Control_c, 0, 64, 127
4, 33126, Control_c, 0, 64, 0
4, 33190, Control_c, 0, 64, 127
4, 33621, Control_c, 0, 64, 0
4, 33674, Control_c, 0, 64, 127
4, 33846, Control_c, 0, 64, 0
4, 33893, Control_c, 0, 64, 127
4, 34209, Control_c, 0, 64, 0
4, 34599, Control_c, 0, 64, 127
4, 35058, Control_c, 0, 64, 0
4, 35097, Control_c, 0, 64, 127
4, 35289, Control_c, 0, 64, 0
4, 35315, Control_c, 0, 64, 127
4, 35649, Control_c, 0, 64, 0
4, 36017, Control_c, 0, 64, 127
4, 36386, Control_c, 0, 64, 0
4, 36741, Control_c, 0, 64, 127
4, 37108, Control_c, 0, 64, 0
4, 37463, Control_c, 0, 64, 127
4, 37920, Control_c, 0, 64, 0
4, 38199, Control_c, 0, 64, 127
4, 38683, Control_c, 0, 64, 0
4, 38889, Control_c, 0, 64, 127
4, 39389, Control_c, 0, 64, 0
4, 39612, Control_c, 0, 64, 127
4, 39986, Control_c, 0, 64, 0
4, 40363, Control_c, 0, 64, 127
4, 41054, Control_c, 0, 64, 0
4, 41096, Control_c, 0, 64, 127
4, 41293, Control_c, 0, 64, 0
4, 41316, Control_c, 0, 64, 127
4, 41530, Control_c, 0, 64, 0
4, 41559, Control_c, 0, 64, 127
4, 41778, Control_c, 0, 64, 0
4, 41803, Control_c, 0, 64, 127
4, 42250, Control_c, 0, 64, 0
4, 42286, Control_c, 0, 64, 127
4, 42501, Control_c, 0, 64, 0
4, 42528, Control_c, 0, 64, 127
4, 42971, Control_c, 0, 64, 0
4, 43011, Control_c, 0, 64, 127
4, 43208, Control_c, 0, 64, 0
4, 43271, Control_c, 0, 64, 127
4, 43928, Control_c, 0, 64, 0
4, 43951, Control_c, 0, 64, 127
4, 44410, Control_c, 0, 64, 0
4, 44434, Control_c, 0, 64, 127
4, 44644, Control_c, 0, 64, 0
4, 44696, Control_c, 0, 64, 127
4, 45381, Control_c, 0, 64, 0
4, 45417, Control_c, 0, 64, 127
4, 45853, Control_c, 0, 64, 0
4, 45886, Control_c, 0, 64, 127
4, 46102, Control_c, 0, 64, 0
4, 46137, Control_c, 0, 64, 127
4, 46810, Control_c, 0, 64, 0
4, 46843, Control_c, 0, 64, 127
4, 47291, Control_c, 0, 64, 0
4, 47326, Control_c, 0, 64, 127
4, 47542, Control_c, 0, 64, 0
4, 47556, Control_c, 0, 64, 127
4, 48262, Control_c, 0, 64, 0
4, 48326, Control_c, 0, 64, 127
4, 48982, Control_c, 0, 64, 0
4, 49045, Control_c, 0, 64, 127
4, 49680, Control_c, 0, 64, 0
4, 49755, Control_c, 0, 64, 127
4, 50422, Control_c, 0, 64, 0
4, 50486, Control_c, 0, 64, 127
4, 51142, Control_c, 0, 64, 0
4, 51205, Control_c, 0, 64, 127
4, 51862, Control_c, 0, 64, 0
4, 51925, Control_c, 0, 64, 127
4, 52560, Control_c, 0, 64, 0
4, 52635, Control_c, 0, 64, 127
4, 53302, Control_c, 0, 64, 0
4, 53366, Control_c, 0, 64, 127
4, 54022, Control_c, 0, 64, 0
4, 54086, Control_c, 0, 64, 127
4, 54249, Control_c, 0, 64, 0
4, 54720, Control_c, 0, 64, 127
4, 54853, Control_c, 0, 64, 0
4, 55446, Control_c, 0, 64, 127
4, 56164, Control_c, 0, 64, 0
4, 56223, Control_c, 0, 64, 127
4, 56880, Control_c, 0, 64, 0
4, 56902, Control_c, 0, 64, 0
4, 56966, Control_c, 0, 64, 127
4, 57129, Control_c, 0, 64, 0
4, 57600, Control_c, 0, 64, 127
4, 57733, Control_c, 0, 64, 0
4, 58326, Control_c, 0, 64, 127
4, 59044, Control_c, 0, 64, 0
4, 59103, Control_c, 0, 64, 127
4, 59520, Control_c, 0, 64, 0
4, 59762, Control_c, 0, 64, 127
4, 60011, Control_c, 0, 64, 0
4, 60540, Control_c, 0, 64, 127
4, 60840, Control_c, 0, 64, 0
4, 61260, Control_c, 0, 64, 127
4, 61620, Control_c, 0, 64, 0
4, 61980, Control_c, 0, 64, 127
4, 62340, Control_c, 0, 64, 0
4, 62700, Control_c, 0, 64, 127
4, 63060, Control_c, 0, 64, 0
4, 63420, Control_c, 0, 64, 127
4, 63780, Control_c, 0, 64, 0
4, 64140, Control_c, 0, 64, 127
4, 64500, Control_c, 0, 64, 0
4, 64860, Control_c, 0, 64, 127
4, 65220, Control_c, 0, 64, 0
4, 65580, Control_c, 0, 64, 127
4, 65940, Control_c, 0, 64, 0
4, 66520, Control_c, 0, 64, 127
4, 66967, Control_c, 0, 64, 0
4, 67027, Control_c, 0, 64, 127
4, 67680, Control_c, 0, 64, 0
4, 67943, Control_c, 0, 64, 127
4, 68407, Control_c, 0, 64, 0
4, 68558, Control_c, 0, 64, 127
4, 69129, Control_c, 0, 64, 0
4, 74917, Control_c, 0, 64, 127
4, 75129, Control_c, 0, 64, 0
4, 75639, Control_c, 0, 64, 127
4, 75843, Control_c, 0, 64, 0
4, 76359, Control_c, 0, 64, 127
4, 76578, Control_c, 0, 64, 0
4, 77083, Control_c, 0, 64, 127
4, 77797, Control_c, 0, 64, 127
4, 78009, Control_c, 0, 64, 0
4, 78519, Control_c, 0, 64, 127
4, 78723, Control_c, 0, 64, 0
4, 79239, Control_c, 0, 64, 127
4, 79458, Control_c, 0, 64, 0
4, 79963, Control_c, 0, 64, 127
4, 80677, Control_c, 0, 64, 127
4, 80889, Control_c, 0, 64, 0
4, 81410, Control_c, 0, 64, 127
4, 81610, Control_c, 0, 64, 0
4, 81664, Control_c, 0, 64, 127
4, 81847, Control_c, 0, 64, 0
4, 81879, Control_c, 0, 64, 127
4, 82089, Control_c, 0, 64, 0
4, 82129, Control_c, 0, 64, 127
4, 82337, Control_c, 0, 64, 0
4, 82383, Control_c, 0, 64, 127
4, 82572, Control_c, 0, 64, 0
4, 82612, Control_c, 0, 64, 127
4, 82806, Control_c, 0, 64, 0
4, 82852, Control_c, 0, 64, 127
4, 83051, Control_c, 0, 64, 0
4, 83089, Control_c, 0, 64, 127
4, 83295, Control_c, 0, 64, 0
4, 83329, Control_c, 0, 64, 127
4, 83531, Control_c, 0, 64, 0
4, 83557, Control_c, 0, 64, 127
4, 83775, Control_c, 0, 64, 0
4, 83809, Control_c, 0, 64, 127
4, 84012, Control_c, 0, 64, 0
4, 84046, Control_c, 0, 64, 127
4, 84248, Control_c, 0, 64, 0
4, 84292, Control_c, 0, 64, 127
4, 84492, Control_c, 0, 64, 0
4, 84532, Control_c, 0, 64, 127
4, 84744, Control_c, 0, 64, 0
4, 84772, Control_c, 0, 64, 127
4, 84972, Control_c, 0, 64, 0
4, 85003, Control_c, 0, 64, 127
4, 85220, Control_c, 0, 64, 0
4, 85269, Control_c, 0, 64, 127
4, 85449, Control_c, 0, 64, 0
4, 85480, Control_c, 0, 64, 127
4, 85690, Control_c, 0, 64, 0
4, 85726, Control_c, 0, 64, 127
4, 85932, Control_c, 0, 64, 0
4, 85960, Control_c, 0, 64, 127
4, 86180, Control_c, 0, 64, 0
4, 86217, Control_c, 0, 64, 127
4, 86411, Control_c, 0, 64, 0
4, 86450, Control_c, 0, 64, 127
4, 86651, Control_c, 0, 64, 0
4, 86697, Control_c, 0, 64, 127
4, 86894, Control_c, 0, 64, 0
4, 86930, Control_c, 0, 64, 127
4, 87128, Control_c, 0, 64, 0
4, 87170, Control_c, 0, 64, 127
4, 87375, Control_c, 0, 64, 0
4, 87413, Control_c, 0, 64, 127
4, 87610, Control_c, 0, 64, 0
4, 87650, Control_c, 0, 64, 127
4, 87855, Control_c, 0, 64, 0
4, 87886, Control_c, 0, 64, 127
4, 88088, Control_c, 0, 64, 0
4, 88143, Control_c, 0, 64, 127
4, 88331, Control_c, 0, 64, 0
4, 88377, Control_c, 0, 64, 127
4, 88576, Control_c, 0, 64, 0
4, 88645, Control_c, 0, 64, 127
4, 89294, Control_c, 0, 64, 0
4, 89327, Control_c, 0, 64, 127
4, 89533, Control_c, 0, 64, 0
4, 89556, Control_c, 0, 64, 127
4, 89770, Control_c, 0, 64, 0
4, 89799, Control_c, 0, 64, 127
4, 90018, Control_c, 0, 64, 0
4, 90043, Control_c, 0, 64, 127
4, 90490, Control_c, 0, 64, 0
4, 90526, Control_c, 0, 64, 127
4, 90741, Control_c, 0, 64, 0
4, 90768, Control_c, 0, 64, 127
4, 91211, Control_c, 0, 64, 0
4, 91251, Control_c, 0, 64, 127
4, 91448, Control_c, 0, 64, 0
4, 91511, Control_c, 0, 64, 127
4, 92168, Control_c, 0, 64, 0
4, 92191, Control_c, 0, 64, 127
4, 92650, Control_c, 0, 64, 0
4, 92674, Control_c, 0, 64, 127
4, 92884, Control_c, 0, 64, 0
4, 92936, Control_c, 0, 64, 127
4, 93621, Control_c, 0, 64, 0
4, 93657, Control_c, 0, 64, 127
4, 94093, Control_c, 0, 64, 0
4, 94126, Control_c, 0, 64, 127
4, 94342, Control_c, 0, 64, 0
4, 94377, Control_c, 0, 64, 127
4, 95050, Control_c, 0, 64, 0
4, 95083, Control_c, 0, 64, 127
4, 95531, Control_c, 0, 64, 0
4, 95566, Control_c, 0, 64, 127
4, 95782, Control_c, 0, 64, 0
4, 95850, Control_c, 0, 64, 127
4, 96971, Control_c, 0, 64, 0
4, 97006, Control_c, 0, 64, 127
4, 97222, Control_c, 0, 64, 0
4, 97288, Control_c, 0, 64, 127
4, 97942, Control_c, 0, 64, 0
4, 98006, Control_c, 0, 64, 127
4, 98662, Control_c, 0, 64, 0
4, 98725, Control_c, 0, 64, 127
4, 99360, Control_c, 0, 64, 0
4, 99435, Control_c, 0, 64, 127
4, 99610, Control_c, 0, 64, 0
4, 99648, Control_c, 0, 64, 127
4, 99857, Control_c, 0, 64, 0
4, 99906, Control_c, 0, 64, 127
4, 100102, Control_c, 0, 64, 0
4, 100168, Control_c, 0, 64, 127
4, 100822, Control_c, 0, 64, 0
4, 100886, Control_c, 0, 64, 127
4, 101542, Control_c, 0, 64, 0
4, 101605, Control_c, 0, 64, 127
4, 102240, Control_c, 0, 64, 0
4, 102315, Control_c, 0, 64, 127
4, 102490, Control_c, 0, 64, 0
4, 102528, Control_c, 0, 64, 127
4, 102737, Control_c, 0, 64, 0
4, 102786, Control_c, 0, 64, 127
4, 102960, Control_c, 0, 64, 0
4, 103022, Control_c, 0, 64, 127
4, 103680, Control_c, 0, 64, 0
4, 103772, Control_c, 0, 64, 127
4, 103925, Control_c, 0, 64, 0
4, 104023, Control_c, 0, 64, 127
4, 104163, Control_c, 0, 64, 0
4, 104400, Control_c, 0, 64, 0
4, 104462, Control_c, 0, 64, 127
4, 105120, Control_c, 0, 64, 0
4, 105212, Control_c, 0, 64, 127
4, 105365, Control_c, 0, 64, 0
4, 105463, Control_c, 0, 64, 127
4, 105603, Control_c, 0, 64, 0
4, 105840, Control_c, 0, 64, 0
4, 105902, Control_c, 0, 64, 127
4, 106089, Control_c, 0, 64, 0
4, 106560, Control_c, 0, 64, 0
4, 106622, Control_c, 0, 64, 127
4, 106809, Control_c, 0, 64, 0
4, 106874, Control_c, 0, 64, 127
4, 107286, Control_c, 0, 64, 0
4, 107312, Control_c, 0, 64, 127
4, 107414, Control_c, 0, 64, 0
4, 107457, Control_c, 0, 64, 127
4, 108720, Control_c, 0, 64, 0
4, 108720, Control_c, 0, 64, 0
4, 108782, Control_c, 0, 64, 127
4, 108969, Control_c, 0, 64, 0
4, 109440, Control_c, 0, 64, 0
4, 109502, Control_c, 0, 64, 127
4, 109689, Control_c, 0, 64, 0
4, 109754, Control_c, 0, 64, 127
4, 110166, Control_c, 0, 64, 0
4, 110192, Control_c, 0, 64, 127
4, 110294, Control_c, 0, 64, 0
4, 110337, Control_c, 0, 64, 127
4, 111600, Control_c, 0, 64, 0
4, 111600, Control_c, 0, 64, 0
4, 111662, Control_c, 0, 64, 127
4, 111849, Control_c, 0, 64, 0
4, 112320, Control_c, 0, 64, 0
4, 112382, Control_c, 0, 64, 127
4, 112569, Control_c, 0, 64, 0
4, 112634, Control_c, 0, 64, 127
4, 113049, Control_c, 0, 64, 0
4, 113100, Control_c, 0, 64, 127
4, 113156, Control_c, 0, 64, 0
4, 113803, Control_c, 0, 64, 127
4, 114032, Control_c, 0, 64, 0
4, 114096, Control_c, 0, 64, 127
4, 114483, Control_c, 0, 64, 0
4, 114534, Control_c, 0, 64, 127
4, 114590, Control_c, 0, 64, 0
4, 115243, Control_c, 0, 64, 127
4, 115690, Control_c, 0, 64, 0
4, 115744, Control_c, 0, 64, 127
4, 115927, Control_c, 0, 64, 0
4, 116640, Control_c, 0, 64, 0
4, 117360, Control_c, 0, 64, 0
4, 118080, Control_c, 0, 64, 0
4, 118800, Control_c, 0, 64, 0
4, 119520, Control_c, 0, 64, 0
4, 120240, Control_c, 0, 64, 0
4, 120960, Control_c, 0, 64, 0
4, 121680, Control_c, 0, 64, 0
4, 122400, Control_c, 0, 64, 0
4, 123157, Control_c, 0, 64, 127
4, 123369, Control_c, 0, 64, 0
4, 123879, Control_c, 0, 64, 127
4, 126400, Control_c, 0, 64, 0
4, 126400, End_track
5, 0, Start_track
5, 0, Title_t, "Mendelssohn: Songs without words Opus 30 No. 4"
5, 0, End_track
6, 0, Start_track
6, 0, Title_t, "Copyright © 2010 by Bernd Krueger"
6, 0, End_track
7, 0, Start_track
7, 0, Title_t, "http://www.piano-midi.de/"
7, 0, End_track
8, 0, Start_track
8, 0, Title_t, "Edition: 2015-02-08"
8, 0, End_track
9, 0, Start_track
9, 0, Title_t, "Spur 8"
9, 0, End_track
10, 0, Start_track
10, 0, Title_t, "Spur 9"
10, 0, End_track
11, 0, Start_track
11, 0, Title_t, "Spur 10"
11, 0, End_track
12, 0, Start_track
12, 0, Title_t, "Spur 11"
12, 0, End_track
13, 0, Start_track
13, 0, Title_t, "Spur 12"
13, 0, End_track
14, 0, Start_track
14, 0, Title_t, "Spur 13"
14, 0, End_track
15, 0, Start_track
15, 0, Title_t, "Spur 14"
15, 0, End_track
16, 0, Start_track
16, 0, Title_t, "Spur 15"
16, 0, End_track
17, 0, Start_track
17, 0, Title_t, "Spur 16"
17, 0, End_track
0, 0, End_of_file
