0, 0, Header, 1, 17, 480
1, 0, Start_track
1, 0, Title_t, "Mendelssohn: Lieder ohne Worte Opus 30 Nr. 5"
1, 0, Copyright_t, "Copyright © 2015 by Bernd Krueger"
1, 0, Text_t, "Bernd Krueger"
1, 0, Text_t, "Andante grazioso"
1, 0, Text_t, "Erstellt: 20.3.15\012"
1, 0, Text_t, "Dauer:  1:53 Minuten \012"
1, 0, Time_signature, 2, 2, 24, 8
1, 0, Key_signature, 2, "major"
1, 0, Tempo, 971660
1, 0, Marker_t, "Andante grazioso"
1, 360, Tempo, 1126761
1, 480, Tempo, 963855
1, 480, Marker_t, "Part 1"
1, 960, Tempo, 979592
1, 1080, Tempo, 956175
1, 1680, Tempo, 995851
1, 1800, Tempo, 1066667
1, 1920, Tempo, 971660
1, 2400, Tempo, 971660
1, 2760, Tempo, 971660
1, 3120, Tempo, 963855
1, 3600, Tempo, 971660
1, 3720, Tempo, 1095890
1, 3840, Tempo, 971660
1, 4320, Tempo, 941176
1, 4680, Tempo, 1066667
1, 4800, Tempo, 971660
1, 5280, Tempo, 933852
1, 5640, Tempo, 1038961
1, 5760, Tempo, 971660
1, 6240, Tempo, 1030043
1, 6480, Tempo, 971660
1, 6720, Tempo, 963855
1, 7320, Tempo, 1105991
1, 7440, Tempo, 987654
1, 7680, Tempo, 963855
1, 8160, Tempo, 956175
1, 8400, Tempo, 995851
1, 8520, Tempo, 1105991
1, 8640, Tempo, 948617
1, 8880, Tempo, 1021277
1, 9000, Tempo, 1126761
1, 9120, Tempo, 1021277
1, 9240, Tempo, 1004184
1, 9600, Tempo, 995851
1, 10440, Tempo, 1021277
1, 10560, Tempo, 995851
1, 10920, Tempo, 1126761
1, 11040, Tempo, 963855
1, 11040, Marker_t, "Part 1 repeat"
1, 11520, Tempo, 979592
1, 11640, Tempo, 956175
1, 12240, Tempo, 995851
1, 12360, Tempo, 1066667
1, 12480, Tempo, 971660
1, 12960, Tempo, 971660
1, 13320, Tempo, 971660
1, 13680, Tempo, 963855
1, 14160, Tempo, 971660
1, 14280, Tempo, 1095890
1, 14400, Tempo, 971660
1, 14880, Tempo, 941176
1, 15240, Tempo, 1066667
1, 15360, Tempo, 971660
1, 15840, Tempo, 933852
1, 16200, Tempo, 1038961
1, 16320, Tempo, 971660
1, 16800, Tempo, 1030043
1, 17040, Tempo, 971660
1, 17280, Tempo, 963855
1, 17880, Tempo, 1105991
1, 18000, Tempo, 987654
1, 18240, Tempo, 963855
1, 18720, Tempo, 956175
1, 18960, Tempo, 995851
1, 19080, Tempo, 1105991
1, 19200, Tempo, 948617
1, 19440, Tempo, 1021277
1, 19560, Tempo, 1126761
1, 19680, Tempo, 1021277
1, 19800, Tempo, 1004184
1, 20160, Tempo, 995851
1, 21000, Tempo, 1021277
1, 21120, Tempo, 995851
1, 21480, Tempo, 1126761
1, 21600, Tempo, 1004184
1, 21600, Marker_t, "Part 2"
1, 21720, Tempo, 1012658
1, 21960, Tempo, 1137441
1, 22056, Tempo, 1004184
1, 22104, Tempo, 995851
1, 22152, Tempo, 987654
1, 22176, Tempo, 979592
1, 22224, Tempo, 971660
1, 22248, Tempo, 963855
1, 22296, Tempo, 971660
1, 22344, Tempo, 979592
1, 22392, Tempo, 987654
1, 22440, Tempo, 1137441
1, 22560, Tempo, 1004184
1, 22920, Tempo, 1116279
1, 23040, Tempo, 1012658
1, 23112, Tempo, 1004184
1, 23184, Tempo, 995851
1, 23256, Tempo, 987654
1, 23328, Tempo, 995851
1, 23400, Tempo, 1137441
1, 23520, Tempo, 1021277
1, 23880, Tempo, 1148325
1, 24000, Tempo, 1030043
1, 24024, Tempo, 1030043
1, 24120, Tempo, 1021277
1, 24192, Tempo, 1012658
1, 24264, Tempo, 1004184
1, 24312, Tempo, 1012658
1, 24360, Tempo, 1021277
1, 24480, Tempo, 1148325
1, 24552, Tempo, 1057269
1, 24600, Tempo, 1048035
1, 24840, Tempo, 1148325
1, 24960, Tempo, 1048035
1, 25008, Tempo, 1057269
1, 25056, Tempo, 1048035
1, 25080, Tempo, 1038961
1, 25104, Tempo, 1030043
1, 25128, Tempo, 1021277
1, 25152, Tempo, 1012658
1, 25176, Tempo, 1004184
1, 25200, Tempo, 995851
1, 25248, Tempo, 1004184
1, 25296, Tempo, 1012658
1, 25320, Tempo, 1021277
1, 25368, Tempo, 1030043
1, 25392, Tempo, 1038961
1, 25440, Tempo, 1048035
1, 25464, Tempo, 1057269
1, 25560, Tempo, 1021277
1, 25800, Tempo, 1159420
1, 25920, Tempo, 1021277
1, 26280, Tempo, 1148325
1, 26400, Tempo, 1030043
1, 26880, Tempo, 1021277
1, 27120, Tempo, 1038961
1, 27240, Tempo, 1137441
1, 27360, Tempo, 1048035
1, 27384, Tempo, 1057269
1, 27480, Tempo, 1021277
1, 27720, Tempo, 1159420
1, 27840, Tempo, 1021277
1, 28200, Tempo, 1148325
1, 28320, Tempo, 1030043
1, 28800, Tempo, 1021277
1, 29040, Tempo, 1038961
1, 29160, Tempo, 1137441
1, 29280, Tempo, 1148325
1, 29352, Tempo, 1057269
1, 29400, Tempo, 1048035
1, 29640, Tempo, 1148325
1, 29760, Tempo, 1048035
1, 29808, Tempo, 1057269
1, 29856, Tempo, 1048035
1, 29880, Tempo, 1038961
1, 29904, Tempo, 1030043
1, 29928, Tempo, 1021277
1, 29952, Tempo, 1012658
1, 29976, Tempo, 1004184
1, 30000, Tempo, 995851
1, 30048, Tempo, 1004184
1, 30096, Tempo, 1012658
1, 30120, Tempo, 1021277
1, 30168, Tempo, 1030043
1, 30192, Tempo, 1038961
1, 30240, Tempo, 1148325
1, 30312, Tempo, 1057269
1, 30360, Tempo, 1048035
1, 30600, Tempo, 1148325
1, 30720, Tempo, 1048035
1, 30768, Tempo, 1057269
1, 30816, Tempo, 1048035
1, 30840, Tempo, 1038961
1, 30864, Tempo, 1030043
1, 30888, Tempo, 1021277
1, 30912, Tempo, 1012658
1, 30936, Tempo, 1004184
1, 30960, Tempo, 995851
1, 31008, Tempo, 1004184
1, 31056, Tempo, 1012658
1, 31080, Tempo, 1021277
1, 31128, Tempo, 1030043
1, 31152, Tempo, 1038961
1, 31200, Tempo, 1148325
1, 31272, Tempo, 1057269
1, 31320, Tempo, 1105991
1, 31560, Tempo, 1311475
1, 31576, Tempo, 1126761
1, 31588, Tempo, 1148325
1, 31600, Tempo, 1170732
1, 31612, Tempo, 1194030
1, 31620, Tempo, 1610738
1, 31680, Tempo, 1076233
1, 31740, Tempo, 1066667
1, 31800, Tempo, 1057269
1, 31824, Tempo, 1030043
1, 31848, Tempo, 1021277
1, 31872, Tempo, 1012658
1, 31896, Tempo, 1004184
1, 31920, Tempo, 995851
1, 31968, Tempo, 1004184
1, 32016, Tempo, 1012658
1, 32040, Tempo, 1021277
1, 32088, Tempo, 1030043
1, 32112, Tempo, 1038961
1, 32160, Tempo, 1148325
1, 32188, Tempo, 1076233
1, 32212, Tempo, 1030043
1, 32284, Tempo, 1021277
1, 32344, Tempo, 1012658
1, 32416, Tempo, 1004184
1, 32476, Tempo, 995851
1, 32512, Tempo, 1004184
1, 32536, Tempo, 1012658
1, 32560, Tempo, 1021277
1, 32584, Tempo, 1030043
1, 32608, Tempo, 1038961
1, 32632, Tempo, 1048035
1, 32656, Tempo, 1076233
1, 32680, Tempo, 1066667
1, 32704, Tempo, 1057269
1, 32728, Tempo, 1048035
1, 32752, Tempo, 1038961
1, 32776, Tempo, 1030043
1, 32800, Tempo, 1021277
1, 32812, Tempo, 1012658
1, 32848, Tempo, 987654
1, 32872, Tempo, 995851
1, 32884, Tempo, 1004184
1, 32896, Tempo, 1012658
1, 32908, Tempo, 1021277
1, 32920, Tempo, 1030043
1, 32932, Tempo, 1038961
1, 32944, Tempo, 1048035
1, 32956, Tempo, 1057269
1, 32968, Tempo, 1066667
1, 32980, Tempo, 1076233
1, 32992, Tempo, 1085973
1, 33004, Tempo, 1095890
1, 33016, Tempo, 1105991
1, 33028, Tempo, 1116279
1, 33040, Tempo, 1126761
1, 33052, Tempo, 1137441
1, 33064, Tempo, 1148325
1, 33076, Tempo, 1159420
1, 33120, Tempo, 963855
1, 33600, Tempo, 979592
1, 33720, Tempo, 956175
1, 34320, Tempo, 995851
1, 34440, Tempo, 1066667
1, 34560, Tempo, 971660
1, 34980, Tempo, 1105991
1, 35040, Tempo, 963855
1, 35400, Tempo, 971660
1, 35580, Tempo, 948617
1, 35760, Tempo, 963855
1, 36240, Tempo, 971660
1, 36360, Tempo, 1095890
1, 36480, Tempo, 987654
1, 36960, Tempo, 971660
1, 37440, Tempo, 941176
1, 37800, Tempo, 1066667
1, 37920, Tempo, 971660
1, 38400, Tempo, 941176
1, 38760, Tempo, 1066667
1, 38880, Tempo, 971660
1, 39360, Tempo, 1030043
1, 39600, Tempo, 971660
1, 39840, Tempo, 963855
1, 40440, Tempo, 979592
1, 40560, Tempo, 987654
1, 40800, Tempo, 963855
1, 41280, Tempo, 956175
1, 41520, Tempo, 971660
1, 41640, Tempo, 971660
1, 41700, Tempo, 1057269
1, 41760, Tempo, 948617
1, 42000, Tempo, 1021277
1, 42120, Tempo, 1126761
1, 42240, Tempo, 963855
1, 42360, Tempo, 971660
1, 42480, Tempo, 987654
1, 42720, Tempo, 963855
1, 43200, Tempo, 956175
1, 43440, Tempo, 971660
1, 43560, Tempo, 971660
1, 43620, Tempo, 1057269
1, 43680, Tempo, 948617
1, 43920, Tempo, 1021277
1, 44040, Tempo, 1126761
1, 44160, Tempo, 995851
1, 44280, Tempo, 1021277
1, 44340, Tempo, 1170732
1, 44400, Tempo, 995851
1, 44520, Tempo, 1021277
1, 45000, Tempo, 1021277
1, 45060, Tempo, 1182266
1, 45120, Tempo, 1012658
1, 45540, Tempo, 1148325
1, 45600, Tempo, 1012658
1, 45960, Tempo, 1030043
1, 46020, Tempo, 1126761
1, 46080, Tempo, 1012658
1, 46320, Tempo, 1038961
1, 46500, Tempo, 1148325
1, 46560, Tempo, 979592
1, 46800, Tempo, 1012658
1, 46980, Tempo, 1148325
1, 47040, Tempo, 1012658
1, 47520, Tempo, 979592
1, 47760, Tempo, 1012658
1, 47940, Tempo, 1148325
1, 48000, Tempo, 1012658
1, 48480, Tempo, 979592
1, 48720, Tempo, 1012658
1, 48900, Tempo, 1148325
1, 48960, Tempo, 995851
1, 49200, Tempo, 1021277
1, 49440, Tempo, 995851
1, 49680, Tempo, 1012658
1, 49800, Tempo, 1030043
1, 49860, Tempo, 1269841
1, 49920, Tempo, 1012658
1, 50160, Tempo, 1038961
1, 50340, Tempo, 1148325
1, 50400, Tempo, 979592
1, 50640, Tempo, 1012658
1, 50820, Tempo, 1148325
1, 50880, Tempo, 987654
1, 51120, Tempo, 1012658
1, 51300, Tempo, 1012658
1, 51780, Tempo, 1126761
1, 51840, Tempo, 1012658
1, 52260, Tempo, 1148325
1, 52320, Tempo, 1012658
1, 52740, Tempo, 1116279
1, 52800, Tempo, 1012658
1, 53220, Tempo, 1116279
1, 53280, Tempo, 1021277
1, 53460, Tempo, 1076233
1, 53580, Tempo, 1126761
1, 53640, Tempo, 1230769
1, 53700, Tempo, 1420118
1, 53760, Tempo, 1030043
1, 53760, End_track
2, 0, Start_track
2, 0, Title_t, "Piano right"
2, 0, Program_c, 0, 0
2, 480, Note_on_c, 0, 66, 46
2, 720, Note_on_c, 0, 66, 0
2, 720, Note_on_c, 0, 55, 35
2, 720, Note_on_c, 0, 67, 42
2, 960, Note_on_c, 0, 67, 0
2, 960, Note_on_c, 0, 55, 0
2, 960, Note_on_c, 0, 69, 51
2, 960, Note_on_c, 0, 57, 43
2, 1200, Note_on_c, 0, 57, 0
2, 1200, Note_on_c, 0, 69, 0
2, 1200, Note_on_c, 0, 59, 45
2, 1200, Note_on_c, 0, 71, 54
2, 1440, Note_on_c, 0, 71, 0
2, 1440, Note_on_c, 0, 59, 0
2, 1440, Note_on_c, 0, 69, 48
2, 1440, Note_on_c, 0, 57, 40
2, 1680, Note_on_c, 0, 57, 0
2, 1680, Note_on_c, 0, 69, 0
2, 1680, Note_on_c, 0, 55, 35
2, 1680, Note_on_c, 0, 67, 42
2, 1920, Note_on_c, 0, 67, 0
2, 1920, Note_on_c, 0, 55, 0
2, 1920, Note_on_c, 0, 66, 47
2, 1920, Note_on_c, 0, 54, 39
2, 2400, Note_on_c, 0, 54, 0
2, 2400, Note_on_c, 0, 66, 0
2, 2400, Note_on_c, 0, 69, 53
2, 2400, Note_on_c, 0, 57, 45
2, 2640, Note_on_c, 0, 57, 0
2, 2640, Note_on_c, 0, 69, 0
2, 2640, Note_on_c, 0, 71, 55
2, 2640, Note_on_c, 0, 59, 46
2, 2880, Note_on_c, 0, 59, 0
2, 2880, Note_on_c, 0, 71, 0
2, 2880, Note_on_c, 0, 73, 62
2, 2880, Note_on_c, 0, 61, 52
2, 3120, Note_on_c, 0, 61, 0
2, 3120, Note_on_c, 0, 73, 0
2, 3120, Note_on_c, 0, 62, 55
2, 3120, Note_on_c, 0, 74, 65
2, 3360, Note_on_c, 0, 74, 0
2, 3360, Note_on_c, 0, 62, 0
2, 3360, Note_on_c, 0, 73, 58
2, 3360, Note_on_c, 0, 61, 49
2, 3600, Note_on_c, 0, 61, 0
2, 3600, Note_on_c, 0, 73, 0
2, 3600, Note_on_c, 0, 71, 56
2, 3600, Note_on_c, 0, 59, 47
2, 3840, Note_on_c, 0, 59, 0
2, 3840, Note_on_c, 0, 71, 0
2, 3840, Note_on_c, 0, 76, 63
2, 3840, Note_on_c, 0, 64, 53
2, 4080, Note_on_c, 0, 64, 0
2, 4080, Note_on_c, 0, 76, 0
2, 4080, Note_on_c, 0, 78, 66
2, 4080, Note_on_c, 0, 66, 56
2, 4320, Note_on_c, 0, 66, 0
2, 4320, Note_on_c, 0, 78, 0
2, 4320, Note_on_c, 0, 64, 55
2, 4320, Note_on_c, 0, 76, 65
2, 4440, Note_on_c, 0, 76, 0
2, 4440, Note_on_c, 0, 64, 0
2, 4440, Note_on_c, 0, 75, 53
2, 4440, Note_on_c, 0, 63, 45
2, 4560, Note_on_c, 0, 63, 0
2, 4560, Note_on_c, 0, 75, 0
2, 4560, Note_on_c, 0, 73, 55
2, 4560, Note_on_c, 0, 61, 46
2, 4620, Note_on_c, 0, 61, 0
2, 4620, Note_on_c, 0, 73, 0
2, 4680, Note_on_c, 0, 59, 42
2, 4680, Note_on_c, 0, 71, 50
2, 4740, Note_on_c, 0, 71, 0
2, 4740, Note_on_c, 0, 59, 0
2, 4800, Note_on_c, 0, 74, 57
2, 4800, Note_on_c, 0, 62, 48
2, 5040, Note_on_c, 0, 62, 0
2, 5040, Note_on_c, 0, 74, 0
2, 5040, Note_on_c, 0, 76, 58
2, 5040, Note_on_c, 0, 64, 49
2, 5280, Note_on_c, 0, 64, 0
2, 5280, Note_on_c, 0, 76, 0
2, 5280, Note_on_c, 0, 62, 52
2, 5280, Note_on_c, 0, 74, 62
2, 5400, Note_on_c, 0, 74, 0
2, 5400, Note_on_c, 0, 62, 0
2, 5400, Note_on_c, 0, 73, 57
2, 5400, Note_on_c, 0, 61, 48
2, 5520, Note_on_c, 0, 61, 0
2, 5520, Note_on_c, 0, 73, 0
2, 5520, Note_on_c, 0, 59, 42
2, 5520, Note_on_c, 0, 71, 50
2, 5580, Note_on_c, 0, 71, 0
2, 5580, Note_on_c, 0, 59, 0
2, 5640, Note_on_c, 0, 61, 42
2, 5640, Note_on_c, 0, 73, 50
2, 5700, Note_on_c, 0, 73, 0
2, 5700, Note_on_c, 0, 61, 0
2, 5760, Note_on_c, 0, 62, 42
2, 5760, Note_on_c, 0, 74, 50
2, 6000, Note_on_c, 0, 74, 0
2, 6000, Note_on_c, 0, 62, 0
2, 6000, Note_on_c, 0, 73, 47
2, 6000, Note_on_c, 0, 61, 39
2, 6240, Note_on_c, 0, 61, 0
2, 6240, Note_on_c, 0, 73, 0
2, 6240, Note_on_c, 0, 59, 42
2, 6240, Note_on_c, 0, 71, 50
2, 6480, Note_on_c, 0, 71, 0
2, 6480, Note_on_c, 0, 59, 0
2, 6480, Note_on_c, 0, 76, 46
2, 6480, Note_on_c, 0, 64, 39
2, 6720, Note_on_c, 0, 64, 0
2, 6720, Note_on_c, 0, 76, 0
2, 6720, Note_on_c, 0, 74, 55
2, 6720, Note_on_c, 0, 62, 46
2, 6960, Note_on_c, 0, 62, 0
2, 6960, Note_on_c, 0, 74, 0
2, 6960, Note_on_c, 0, 61, 42
2, 6960, Note_on_c, 0, 73, 50
2, 7200, Note_on_c, 0, 73, 0
2, 7200, Note_on_c, 0, 61, 0
2, 7200, Note_on_c, 0, 71, 54
2, 7200, Note_on_c, 0, 59, 45
2, 7560, Note_on_c, 0, 59, 0
2, 7560, Note_on_c, 0, 71, 0
2, 7560, Note_on_c, 0, 71, 50
2, 7680, Note_on_c, 0, 71, 0
2, 7680, Note_on_c, 0, 70, 58
2, 7800, Note_on_c, 0, 70, 0
2, 7800, Note_on_c, 0, 68, 52
2, 7800, Note_on_c, 0, 71, 62
2, 7920, Note_on_c, 0, 71, 0
2, 7920, Note_on_c, 0, 68, 0
2, 7920, Note_on_c, 0, 69, 54
2, 7920, Note_on_c, 0, 73, 64
2, 8040, Note_on_c, 0, 73, 0
2, 8040, Note_on_c, 0, 69, 0
2, 8040, Note_on_c, 0, 71, 58
2, 8040, Note_on_c, 0, 74, 69
2, 8160, Note_on_c, 0, 74, 0
2, 8160, Note_on_c, 0, 71, 0
2, 8160, Note_on_c, 0, 78, 71
2, 8160, Note_on_c, 0, 74, 60
2, 8280, Note_on_c, 0, 74, 0
2, 8280, Note_on_c, 0, 78, 0
2, 8280, Note_on_c, 0, 73, 60
2, 8280, Note_on_c, 0, 76, 72
2, 8400, Note_on_c, 0, 76, 0
2, 8400, Note_on_c, 0, 73, 0
2, 8400, Note_on_c, 0, 74, 66
2, 8400, Note_on_c, 0, 71, 56
2, 8520, Note_on_c, 0, 71, 0
2, 8520, Note_on_c, 0, 74, 0
2, 8520, Note_on_c, 0, 73, 64
2, 8520, Note_on_c, 0, 69, 54
2, 8640, Note_on_c, 0, 69, 0
2, 8640, Note_on_c, 0, 73, 0
2, 8640, Note_on_c, 0, 76, 64
2, 8640, Note_on_c, 0, 73, 54
2, 8760, Note_on_c, 0, 73, 0
2, 8760, Note_on_c, 0, 76, 0
2, 8760, Note_on_c, 0, 74, 52
2, 8880, Note_on_c, 0, 74, 0
2, 8880, Note_on_c, 0, 66, 57
2, 9000, Note_on_c, 0, 66, 0
2, 9000, Note_on_c, 0, 68, 60
2, 9120, Note_on_c, 0, 71, 70
2, 9360, Note_on_c, 0, 71, 0
2, 9360, Note_on_c, 0, 68, 0
2, 9360, Note_on_c, 0, 69, 58
2, 10080, Note_on_c, 0, 69, 0
2, 11040, Note_on_c, 0, 66, 46
2, 11280, Note_on_c, 0, 66, 0
2, 11280, Note_on_c, 0, 55, 35
2, 11280, Note_on_c, 0, 67, 42
2, 11520, Note_on_c, 0, 67, 0
2, 11520, Note_on_c, 0, 55, 0
2, 11520, Note_on_c, 0, 69, 51
2, 11520, Note_on_c, 0, 57, 43
2, 11760, Note_on_c, 0, 57, 0
2, 11760, Note_on_c, 0, 69, 0
2, 11760, Note_on_c, 0, 59, 45
2, 11760, Note_on_c, 0, 71, 54
2, 12000, Note_on_c, 0, 71, 0
2, 12000, Note_on_c, 0, 59, 0
2, 12000, Note_on_c, 0, 69, 48
2, 12000, Note_on_c, 0, 57, 40
2, 12240, Note_on_c, 0, 57, 0
2, 12240, Note_on_c, 0, 69, 0
2, 12240, Note_on_c, 0, 55, 35
2, 12240, Note_on_c, 0, 67, 42
2, 12480, Note_on_c, 0, 67, 0
2, 12480, Note_on_c, 0, 55, 0
2, 12480, Note_on_c, 0, 66, 47
2, 12480, Note_on_c, 0, 54, 39
2, 12960, Note_on_c, 0, 54, 0
2, 12960, Note_on_c, 0, 66, 0
2, 12960, Note_on_c, 0, 69, 53
2, 12960, Note_on_c, 0, 57, 45
2, 13200, Note_on_c, 0, 57, 0
2, 13200, Note_on_c, 0, 69, 0
2, 13200, Note_on_c, 0, 71, 55
2, 13200, Note_on_c, 0, 59, 46
2, 13440, Note_on_c, 0, 59, 0
2, 13440, Note_on_c, 0, 71, 0
2, 13440, Note_on_c, 0, 73, 62
2, 13440, Note_on_c, 0, 61, 52
2, 13680, Note_on_c, 0, 61, 0
2, 13680, Note_on_c, 0, 73, 0
2, 13680, Note_on_c, 0, 62, 55
2, 13680, Note_on_c, 0, 74, 65
2, 13920, Note_on_c, 0, 74, 0
2, 13920, Note_on_c, 0, 62, 0
2, 13920, Note_on_c, 0, 73, 58
2, 13920, Note_on_c, 0, 61, 49
2, 14160, Note_on_c, 0, 61, 0
2, 14160, Note_on_c, 0, 73, 0
2, 14160, Note_on_c, 0, 71, 56
2, 14160, Note_on_c, 0, 59, 47
2, 14400, Note_on_c, 0, 59, 0
2, 14400, Note_on_c, 0, 71, 0
2, 14400, Note_on_c, 0, 76, 63
2, 14400, Note_on_c, 0, 64, 53
2, 14640, Note_on_c, 0, 64, 0
2, 14640, Note_on_c, 0, 76, 0
2, 14640, Note_on_c, 0, 78, 66
2, 14640, Note_on_c, 0, 66, 56
2, 14880, Note_on_c, 0, 66, 0
2, 14880, Note_on_c, 0, 78, 0
2, 14880, Note_on_c, 0, 64, 55
2, 14880, Note_on_c, 0, 76, 65
2, 15000, Note_on_c, 0, 76, 0
2, 15000, Note_on_c, 0, 64, 0
2, 15000, Note_on_c, 0, 75, 53
2, 15000, Note_on_c, 0, 63, 45
2, 15120, Note_on_c, 0, 63, 0
2, 15120, Note_on_c, 0, 75, 0
2, 15120, Note_on_c, 0, 73, 55
2, 15120, Note_on_c, 0, 61, 46
2, 15180, Note_on_c, 0, 61, 0
2, 15180, Note_on_c, 0, 73, 0
2, 15240, Note_on_c, 0, 59, 42
2, 15240, Note_on_c, 0, 71, 50
2, 15300, Note_on_c, 0, 71, 0
2, 15300, Note_on_c, 0, 59, 0
2, 15360, Note_on_c, 0, 74, 57
2, 15360, Note_on_c, 0, 62, 48
2, 15600, Note_on_c, 0, 62, 0
2, 15600, Note_on_c, 0, 74, 0
2, 15600, Note_on_c, 0, 76, 58
2, 15600, Note_on_c, 0, 64, 49
2, 15840, Note_on_c, 0, 64, 0
2, 15840, Note_on_c, 0, 76, 0
2, 15840, Note_on_c, 0, 62, 52
2, 15840, Note_on_c, 0, 74, 62
2, 15960, Note_on_c, 0, 74, 0
2, 15960, Note_on_c, 0, 62, 0
2, 15960, Note_on_c, 0, 73, 57
2, 15960, Note_on_c, 0, 61, 48
2, 16080, Note_on_c, 0, 61, 0
2, 16080, Note_on_c, 0, 73, 0
2, 16080, Note_on_c, 0, 59, 42
2, 16080, Note_on_c, 0, 71, 50
2, 16140, Note_on_c, 0, 71, 0
2, 16140, Note_on_c, 0, 59, 0
2, 16200, Note_on_c, 0, 61, 42
2, 16200, Note_on_c, 0, 73, 50
2, 16260, Note_on_c, 0, 73, 0
2, 16260, Note_on_c, 0, 61, 0
2, 16320, Note_on_c, 0, 62, 42
2, 16320, Note_on_c, 0, 74, 50
2, 16560, Note_on_c, 0, 74, 0
2, 16560, Note_on_c, 0, 62, 0
2, 16560, Note_on_c, 0, 73, 47
2, 16560, Note_on_c, 0, 61, 39
2, 16800, Note_on_c, 0, 61, 0
2, 16800, Note_on_c, 0, 73, 0
2, 16800, Note_on_c, 0, 59, 42
2, 16800, Note_on_c, 0, 71, 50
2, 17040, Note_on_c, 0, 71, 0
2, 17040, Note_on_c, 0, 59, 0
2, 17040, Note_on_c, 0, 76, 46
2, 17040, Note_on_c, 0, 64, 39
2, 17280, Note_on_c, 0, 64, 0
2, 17280, Note_on_c, 0, 76, 0
2, 17280, Note_on_c, 0, 74, 55
2, 17280, Note_on_c, 0, 62, 46
2, 17520, Note_on_c, 0, 62, 0
2, 17520, Note_on_c, 0, 74, 0
2, 17520, Note_on_c, 0, 61, 42
2, 17520, Note_on_c, 0, 73, 50
2, 17760, Note_on_c, 0, 73, 0
2, 17760, Note_on_c, 0, 61, 0
2, 17760, Note_on_c, 0, 71, 54
2, 17760, Note_on_c, 0, 59, 45
2, 18120, Note_on_c, 0, 59, 0
2, 18120, Note_on_c, 0, 71, 0
2, 18120, Note_on_c, 0, 71, 50
2, 18240, Note_on_c, 0, 71, 0
2, 18240, Note_on_c, 0, 70, 58
2, 18360, Note_on_c, 0, 70, 0
2, 18360, Note_on_c, 0, 68, 52
2, 18360, Note_on_c, 0, 71, 62
2, 18480, Note_on_c, 0, 71, 0
2, 18480, Note_on_c, 0, 68, 0
2, 18480, Note_on_c, 0, 69, 54
2, 18480, Note_on_c, 0, 73, 64
2, 18600, Note_on_c, 0, 73, 0
2, 18600, Note_on_c, 0, 69, 0
2, 18600, Note_on_c, 0, 71, 58
2, 18600, Note_on_c, 0, 74, 69
2, 18720, Note_on_c, 0, 74, 0
2, 18720, Note_on_c, 0, 71, 0
2, 18720, Note_on_c, 0, 78, 71
2, 18720, Note_on_c, 0, 74, 60
2, 18840, Note_on_c, 0, 74, 0
2, 18840, Note_on_c, 0, 78, 0
2, 18840, Note_on_c, 0, 73, 60
2, 18840, Note_on_c, 0, 76, 72
2, 18960, Note_on_c, 0, 76, 0
2, 18960, Note_on_c, 0, 73, 0
2, 18960, Note_on_c, 0, 74, 66
2, 18960, Note_on_c, 0, 71, 56
2, 19080, Note_on_c, 0, 71, 0
2, 19080, Note_on_c, 0, 74, 0
2, 19080, Note_on_c, 0, 73, 64
2, 19080, Note_on_c, 0, 69, 54
2, 19200, Note_on_c, 0, 69, 0
2, 19200, Note_on_c, 0, 73, 0
2, 19200, Note_on_c, 0, 76, 64
2, 19200, Note_on_c, 0, 73, 54
2, 19320, Note_on_c, 0, 73, 0
2, 19320, Note_on_c, 0, 76, 0
2, 19320, Note_on_c, 0, 74, 52
2, 19440, Note_on_c, 0, 74, 0
2, 19440, Note_on_c, 0, 66, 57
2, 19560, Note_on_c, 0, 66, 0
2, 19560, Note_on_c, 0, 68, 60
2, 19680, Note_on_c, 0, 71, 70
2, 19920, Note_on_c, 0, 71, 0
2, 19920, Note_on_c, 0, 68, 0
2, 19920, Note_on_c, 0, 69, 58
2, 20640, Note_on_c, 0, 69, 0
2, 21600, Note_on_c, 0, 72, 65
2, 21600, Note_on_c, 0, 69, 55
2, 21600, Note_on_c, 0, 66, 55
2, 21600, Note_on_c, 0, 60, 55
2, 21828, Note_on_c, 0, 60, 0
2, 21828, Note_on_c, 0, 72, 0
2, 21828, Note_on_c, 0, 69, 0
2, 21828, Note_on_c, 0, 66, 0
2, 21840, Note_on_c, 0, 72, 63
2, 21840, Note_on_c, 0, 69, 53
2, 21840, Note_on_c, 0, 66, 53
2, 21840, Note_on_c, 0, 60, 53
2, 22080, Note_on_c, 0, 60, 0
2, 22080, Note_on_c, 0, 72, 0
2, 22080, Note_on_c, 0, 69, 0
2, 22080, Note_on_c, 0, 66, 0
2, 22080, Note_on_c, 0, 59, 59
2, 22080, Note_on_c, 0, 66, 59
2, 22080, Note_on_c, 0, 69, 59
2, 22080, Note_on_c, 0, 71, 70
2, 22560, Note_on_c, 0, 71, 0
2, 22560, Note_on_c, 0, 59, 0
2, 22560, Note_on_c, 0, 66, 0
2, 22560, Note_on_c, 0, 69, 0
2, 22560, Note_on_c, 0, 72, 71
2, 22560, Note_on_c, 0, 69, 60
2, 22560, Note_on_c, 0, 66, 60
2, 22560, Note_on_c, 0, 60, 60
2, 22788, Note_on_c, 0, 60, 0
2, 22788, Note_on_c, 0, 72, 0
2, 22788, Note_on_c, 0, 69, 0
2, 22788, Note_on_c, 0, 66, 0
2, 22800, Note_on_c, 0, 72, 69
2, 22800, Note_on_c, 0, 69, 58
2, 22800, Note_on_c, 0, 66, 58
2, 22800, Note_on_c, 0, 60, 58
2, 23040, Note_on_c, 0, 60, 0
2, 23040, Note_on_c, 0, 72, 0
2, 23040, Note_on_c, 0, 69, 0
2, 23040, Note_on_c, 0, 66, 0
2, 23040, Note_on_c, 0, 59, 64
2, 23040, Note_on_c, 0, 66, 64
2, 23040, Note_on_c, 0, 69, 64
2, 23040, Note_on_c, 0, 71, 77
2, 23520, Note_on_c, 0, 71, 0
2, 23520, Note_on_c, 0, 59, 0
2, 23520, Note_on_c, 0, 66, 0
2, 23520, Note_on_c, 0, 69, 0
2, 23520, Note_on_c, 0, 74, 78
2, 23520, Note_on_c, 0, 71, 66
2, 23520, Note_on_c, 0, 68, 66
2, 23520, Note_on_c, 0, 62, 66
2, 23748, Note_on_c, 0, 62, 0
2, 23748, Note_on_c, 0, 74, 0
2, 23748, Note_on_c, 0, 71, 0
2, 23748, Note_on_c, 0, 68, 0
2, 23760, Note_on_c, 0, 74, 75
2, 23760, Note_on_c, 0, 71, 63
2, 23760, Note_on_c, 0, 68, 63
2, 23760, Note_on_c, 0, 62, 63
2, 24000, Note_on_c, 0, 62, 0
2, 24000, Note_on_c, 0, 74, 0
2, 24000, Note_on_c, 0, 71, 0
2, 24000, Note_on_c, 0, 68, 0
2, 24000, Note_on_c, 0, 61, 70
2, 24000, Note_on_c, 0, 68, 70
2, 24000, Note_on_c, 0, 71, 70
2, 24000, Note_on_c, 0, 73, 84
2, 24480, Note_on_c, 0, 73, 0
2, 24480, Note_on_c, 0, 61, 0
2, 24480, Note_on_c, 0, 68, 0
2, 24480, Note_on_c, 0, 71, 0
2, 24480, Note_on_c, 0, 74, 85
2, 24480, Note_on_c, 0, 71, 72
2, 24480, Note_on_c, 0, 68, 72
2, 24480, Note_on_c, 0, 62, 72
2, 24708, Note_on_c, 0, 62, 0
2, 24708, Note_on_c, 0, 74, 0
2, 24708, Note_on_c, 0, 71, 0
2, 24708, Note_on_c, 0, 68, 0
2, 24720, Note_on_c, 0, 74, 82
2, 24720, Note_on_c, 0, 71, 69
2, 24720, Note_on_c, 0, 68, 69
2, 24720, Note_on_c, 0, 62, 69
2, 24960, Note_on_c, 0, 62, 0
2, 24960, Note_on_c, 0, 74, 0
2, 24960, Note_on_c, 0, 71, 0
2, 24960, Note_on_c, 0, 68, 0
2, 24960, Note_on_c, 0, 61, 77
2, 24960, Note_on_c, 0, 68, 77
2, 24960, Note_on_c, 0, 71, 77
2, 24960, Note_on_c, 0, 73, 92
2, 25440, Note_on_c, 0, 73, 0
2, 25440, Note_on_c, 0, 61, 0
2, 25440, Note_on_c, 0, 68, 0
2, 25440, Note_on_c, 0, 71, 0
2, 25440, Note_on_c, 0, 78, 89
2, 25668, Note_on_c, 0, 78, 0
2, 25680, Note_on_c, 0, 78, 81
2, 25680, Note_on_c, 0, 66, 68
2, 25920, Note_on_c, 0, 66, 0
2, 25920, Note_on_c, 0, 78, 0
2, 25920, Note_on_c, 0, 67, 78
2, 25920, Note_on_c, 0, 78, 94
2, 26160, Note_on_c, 0, 78, 0
2, 26160, Note_on_c, 0, 67, 0
2, 26160, Note_on_c, 0, 76, 74
2, 26160, Note_on_c, 0, 68, 62
2, 26388, Note_on_c, 0, 68, 0
2, 26388, Note_on_c, 0, 76, 0
2, 26400, Note_on_c, 0, 76, 85
2, 26400, Note_on_c, 0, 69, 72
2, 26640, Note_on_c, 0, 69, 0
2, 26640, Note_on_c, 0, 76, 0
2, 26640, Note_on_c, 0, 74, 77
2, 26640, Note_on_c, 0, 70, 65
2, 26760, Note_on_c, 0, 74, 0
2, 26760, Note_on_c, 0, 73, 71
2, 26880, Note_on_c, 0, 73, 0
2, 26880, Note_on_c, 0, 70, 0
2, 26880, Note_on_c, 0, 71, 78
2, 27000, Note_on_c, 0, 71, 0
2, 27000, Note_on_c, 0, 73, 78
2, 27000, Note_on_c, 0, 69, 66
2, 27120, Note_on_c, 0, 69, 0
2, 27120, Note_on_c, 0, 73, 0
2, 27120, Note_on_c, 0, 68, 69
2, 27120, Note_on_c, 0, 74, 82
2, 27240, Note_on_c, 0, 68, 0
2, 27240, Note_on_c, 0, 66, 62
2, 27360, Note_on_c, 0, 66, 0
2, 27360, Note_on_c, 0, 74, 0
2, 27360, Note_on_c, 0, 65, 68
2, 27360, Note_on_c, 0, 73, 89
2, 27588, Note_on_c, 0, 73, 0
2, 27600, Note_on_c, 0, 65, 0
2, 27600, Note_on_c, 0, 73, 81
2, 27600, Note_on_c, 0, 61, 68
2, 27840, Note_on_c, 0, 61, 0
2, 27840, Note_on_c, 0, 73, 0
2, 27840, Note_on_c, 0, 62, 78
2, 27840, Note_on_c, 0, 73, 94
2, 28080, Note_on_c, 0, 73, 0
2, 28080, Note_on_c, 0, 62, 0
2, 28080, Note_on_c, 0, 71, 74
2, 28080, Note_on_c, 0, 63, 62
2, 28308, Note_on_c, 0, 63, 0
2, 28308, Note_on_c, 0, 71, 0
2, 28320, Note_on_c, 0, 71, 85
2, 28320, Note_on_c, 0, 64, 72
2, 28560, Note_on_c, 0, 64, 0
2, 28560, Note_on_c, 0, 71, 0
2, 28560, Note_on_c, 0, 69, 77
2, 28560, Note_on_c, 0, 65, 65
2, 28680, Note_on_c, 0, 69, 0
2, 28680, Note_on_c, 0, 68, 71
2, 28800, Note_on_c, 0, 68, 0
2, 28800, Note_on_c, 0, 65, 0
2, 28800, Note_on_c, 0, 66, 78
2, 28920, Note_on_c, 0, 66, 0
2, 28920, Note_on_c, 0, 68, 78
2, 28920, Note_on_c, 0, 64, 66
2, 29040, Note_on_c, 0, 64, 0
2, 29040, Note_on_c, 0, 68, 0
2, 29040, Note_on_c, 0, 62, 69
2, 29040, Note_on_c, 0, 69, 82
2, 29160, Note_on_c, 0, 62, 0
2, 29160, Note_on_c, 0, 61, 62
2, 29280, Note_on_c, 0, 61, 0
2, 29280, Note_on_c, 0, 69, 0
2, 29280, Note_on_c, 0, 69, 85
2, 29280, Note_on_c, 0, 66, 72
2, 29280, Note_on_c, 0, 62, 72
2, 29508, Note_on_c, 0, 62, 0
2, 29508, Note_on_c, 0, 66, 0
2, 29508, Note_on_c, 0, 69, 0
2, 29520, Note_on_c, 0, 71, 82
2, 29520, Note_on_c, 0, 66, 69
2, 29520, Note_on_c, 0, 62, 69
2, 29520, Note_on_c, 0, 59, 69
2, 29760, Note_on_c, 0, 59, 0
2, 29760, Note_on_c, 0, 71, 0
2, 29760, Note_on_c, 0, 66, 0
2, 29760, Note_on_c, 0, 62, 0
2, 29760, Note_on_c, 0, 61, 77
2, 29760, Note_on_c, 0, 66, 77
2, 29760, Note_on_c, 0, 69, 77
2, 29760, Note_on_c, 0, 73, 92
2, 30240, Note_on_c, 0, 73, 0
2, 30240, Note_on_c, 0, 61, 0
2, 30240, Note_on_c, 0, 66, 0
2, 30240, Note_on_c, 0, 69, 0
2, 30240, Note_on_c, 0, 69, 86
2, 30240, Note_on_c, 0, 66, 73
2, 30240, Note_on_c, 0, 62, 73
2, 30468, Note_on_c, 0, 62, 0
2, 30468, Note_on_c, 0, 66, 0
2, 30468, Note_on_c, 0, 69, 0
2, 30480, Note_on_c, 0, 71, 83
2, 30480, Note_on_c, 0, 66, 70
2, 30480, Note_on_c, 0, 62, 70
2, 30480, Note_on_c, 0, 59, 70
2, 30720, Note_on_c, 0, 59, 0
2, 30720, Note_on_c, 0, 71, 0
2, 30720, Note_on_c, 0, 66, 0
2, 30720, Note_on_c, 0, 62, 0
2, 30720, Note_on_c, 0, 61, 78
2, 30720, Note_on_c, 0, 66, 78
2, 30720, Note_on_c, 0, 69, 78
2, 30720, Note_on_c, 0, 73, 93
2, 31200, Note_on_c, 0, 73, 0
2, 31200, Note_on_c, 0, 61, 0
2, 31200, Note_on_c, 0, 66, 0
2, 31200, Note_on_c, 0, 69, 0
2, 31200, Note_on_c, 0, 69, 86
2, 31200, Note_on_c, 0, 66, 73
2, 31200, Note_on_c, 0, 62, 73
2, 31428, Note_on_c, 0, 62, 0
2, 31428, Note_on_c, 0, 66, 0
2, 31428, Note_on_c, 0, 69, 0
2, 31440, Note_on_c, 0, 71, 88
2, 31440, Note_on_c, 0, 66, 74
2, 31440, Note_on_c, 0, 62, 74
2, 31440, Note_on_c, 0, 59, 74
2, 31680, Note_on_c, 0, 59, 0
2, 31680, Note_on_c, 0, 71, 0
2, 31680, Note_on_c, 0, 66, 0
2, 31680, Note_on_c, 0, 62, 0
2, 31680, Note_on_c, 0, 61, 89
2, 31680, Note_on_c, 0, 66, 89
2, 31680, Note_on_c, 0, 69, 89
2, 31680, Note_on_c, 0, 73, 106
2, 33120, Note_on_c, 0, 73, 0
2, 33120, Note_on_c, 0, 61, 0
2, 33120, Note_on_c, 0, 66, 0
2, 33120, Note_on_c, 0, 69, 0
2, 33120, Note_on_c, 0, 66, 46
2, 33360, Note_on_c, 0, 66, 0
2, 33360, Note_on_c, 0, 55, 35
2, 33360, Note_on_c, 0, 67, 42
2, 33600, Note_on_c, 0, 67, 0
2, 33600, Note_on_c, 0, 55, 0
2, 33600, Note_on_c, 0, 69, 51
2, 33600, Note_on_c, 0, 57, 43
2, 33840, Note_on_c, 0, 57, 0
2, 33840, Note_on_c, 0, 69, 0
2, 33840, Note_on_c, 0, 59, 45
2, 33840, Note_on_c, 0, 71, 54
2, 34080, Note_on_c, 0, 71, 0
2, 34080, Note_on_c, 0, 59, 0
2, 34080, Note_on_c, 0, 69, 48
2, 34080, Note_on_c, 0, 57, 40
2, 34320, Note_on_c, 0, 57, 0
2, 34320, Note_on_c, 0, 69, 0
2, 34320, Note_on_c, 0, 55, 35
2, 34320, Note_on_c, 0, 67, 42
2, 34560, Note_on_c, 0, 67, 0
2, 34560, Note_on_c, 0, 55, 0
2, 34560, Note_on_c, 0, 66, 47
2, 34560, Note_on_c, 0, 54, 39
2, 35040, Note_on_c, 0, 54, 0
2, 35040, Note_on_c, 0, 66, 0
2, 35040, Note_on_c, 0, 66, 53
2, 35040, Note_on_c, 0, 54, 45
2, 35280, Note_on_c, 0, 54, 0
2, 35280, Note_on_c, 0, 66, 0
2, 35280, Note_on_c, 0, 67, 55
2, 35280, Note_on_c, 0, 55, 46
2, 35520, Note_on_c, 0, 55, 0
2, 35520, Note_on_c, 0, 67, 0
2, 35520, Note_on_c, 0, 69, 62
2, 35520, Note_on_c, 0, 57, 52
2, 35760, Note_on_c, 0, 57, 0
2, 35760, Note_on_c, 0, 69, 0
2, 35760, Note_on_c, 0, 59, 55
2, 35760, Note_on_c, 0, 71, 65
2, 36000, Note_on_c, 0, 71, 0
2, 36000, Note_on_c, 0, 59, 0
2, 36000, Note_on_c, 0, 72, 77
2, 36000, Note_on_c, 0, 60, 65
2, 36240, Note_on_c, 0, 60, 0
2, 36240, Note_on_c, 0, 72, 0
2, 36240, Note_on_c, 0, 74, 73
2, 36240, Note_on_c, 0, 62, 62
2, 36480, Note_on_c, 0, 62, 0
2, 36480, Note_on_c, 0, 74, 0
2, 36480, Note_on_c, 0, 71, 82
2, 36480, Note_on_c, 0, 59, 65
2, 36960, Note_on_c, 0, 71, 0
2, 36960, Note_on_c, 0, 69, 72
2, 37200, Note_on_c, 0, 69, 0
2, 37200, Note_on_c, 0, 71, 75
2, 37440, Note_on_c, 0, 71, 0
2, 37440, Note_on_c, 0, 69, 74
2, 37560, Note_on_c, 0, 69, 0
2, 37560, Note_on_c, 0, 68, 60
2, 37680, Note_on_c, 0, 68, 0
2, 37680, Note_on_c, 0, 66, 63
2, 37740, Note_on_c, 0, 66, 0
2, 37800, Note_on_c, 0, 64, 57
2, 37860, Note_on_c, 0, 64, 0
2, 37920, Note_on_c, 0, 59, 0
2, 37920, Note_on_c, 0, 57, 63
2, 37920, Note_on_c, 0, 67, 72
2, 38160, Note_on_c, 0, 67, 0
2, 38160, Note_on_c, 0, 69, 75
2, 38400, Note_on_c, 0, 69, 0
2, 38400, Note_on_c, 0, 67, 74
2, 38520, Note_on_c, 0, 67, 0
2, 38520, Note_on_c, 0, 66, 60
2, 38640, Note_on_c, 0, 66, 0
2, 38640, Note_on_c, 0, 64, 63
2, 38700, Note_on_c, 0, 64, 0
2, 38760, Note_on_c, 0, 66, 57
2, 38820, Note_on_c, 0, 66, 0
2, 38880, Note_on_c, 0, 57, 0
2, 38880, Note_on_c, 0, 62, 42
2, 38880, Note_on_c, 0, 67, 50
2, 39120, Note_on_c, 0, 67, 0
2, 39120, Note_on_c, 0, 62, 0
2, 39120, Note_on_c, 0, 66, 47
2, 39120, Note_on_c, 0, 57, 39
2, 39360, Note_on_c, 0, 57, 0
2, 39360, Note_on_c, 0, 66, 0
2, 39360, Note_on_c, 0, 59, 42
2, 39360, Note_on_c, 0, 64, 50
2, 39480, Note_on_c, 0, 59, 0
2, 39480, Note_on_c, 0, 61, 42
2, 39600, Note_on_c, 0, 61, 0
2, 39600, Note_on_c, 0, 64, 0
2, 39600, Note_on_c, 0, 69, 46
2, 39600, Note_on_c, 0, 62, 39
2, 39840, Note_on_c, 0, 62, 0
2, 39840, Note_on_c, 0, 69, 0
2, 39840, Note_on_c, 0, 67, 55
2, 39840, Note_on_c, 0, 62, 46
2, 40080, Note_on_c, 0, 62, 0
2, 40080, Note_on_c, 0, 67, 0
2, 40080, Note_on_c, 0, 57, 42
2, 40080, Note_on_c, 0, 66, 50
2, 40320, Note_on_c, 0, 66, 0
2, 40320, Note_on_c, 0, 57, 0
2, 40320, Note_on_c, 0, 64, 54
2, 40320, Note_on_c, 0, 59, 45
2, 40677, Note_on_c, 0, 64, 0
2, 40680, Note_on_c, 0, 59, 0
2, 40680, Note_on_c, 0, 64, 50
2, 40800, Note_on_c, 0, 64, 0
2, 40800, Note_on_c, 0, 63, 58
2, 40920, Note_on_c, 0, 63, 0
2, 40920, Note_on_c, 0, 61, 52
2, 40920, Note_on_c, 0, 64, 62
2, 41040, Note_on_c, 0, 64, 0
2, 41040, Note_on_c, 0, 61, 0
2, 41040, Note_on_c, 0, 62, 54
2, 41040, Note_on_c, 0, 66, 64
2, 41160, Note_on_c, 0, 66, 0
2, 41160, Note_on_c, 0, 62, 0
2, 41160, Note_on_c, 0, 64, 58
2, 41160, Note_on_c, 0, 67, 69
2, 41280, Note_on_c, 0, 67, 0
2, 41280, Note_on_c, 0, 64, 0
2, 41280, Note_on_c, 0, 71, 71
2, 41280, Note_on_c, 0, 67, 60
2, 41400, Note_on_c, 0, 67, 0
2, 41400, Note_on_c, 0, 71, 0
2, 41400, Note_on_c, 0, 66, 60
2, 41400, Note_on_c, 0, 69, 72
2, 41520, Note_on_c, 0, 69, 0
2, 41520, Note_on_c, 0, 66, 0
2, 41520, Note_on_c, 0, 67, 66
2, 41520, Note_on_c, 0, 64, 56
2, 41640, Note_on_c, 0, 64, 0
2, 41640, Note_on_c, 0, 67, 0
2, 41640, Note_on_c, 0, 66, 64
2, 41760, Note_on_c, 0, 66, 0
2, 41760, Note_on_c, 0, 69, 64
2, 41760, Note_on_c, 0, 66, 54
2, 41880, Note_on_c, 0, 66, 0
2, 41880, Note_on_c, 0, 69, 0
2, 41880, Note_on_c, 0, 67, 52
2, 42000, Note_on_c, 0, 67, 0
2, 42000, Note_on_c, 0, 64, 57
2, 42120, Note_on_c, 0, 64, 0
2, 42120, Note_on_c, 0, 61, 60
2, 42240, Note_on_c, 0, 61, 0
2, 42240, Note_on_c, 0, 69, 63
2, 42600, Note_on_c, 0, 69, 0
2, 42600, Note_on_c, 0, 78, 55
2, 42720, Note_on_c, 0, 78, 0
2, 42720, Note_on_c, 0, 75, 63
2, 42840, Note_on_c, 0, 75, 0
2, 42840, Note_on_c, 0, 73, 57
2, 42840, Note_on_c, 0, 76, 68
2, 42960, Note_on_c, 0, 76, 0
2, 42960, Note_on_c, 0, 73, 0
2, 42960, Note_on_c, 0, 74, 59
2, 42960, Note_on_c, 0, 78, 70
2, 43080, Note_on_c, 0, 78, 0
2, 43080, Note_on_c, 0, 74, 0
2, 43080, Note_on_c, 0, 76, 63
2, 43080, Note_on_c, 0, 79, 75
2, 43200, Note_on_c, 0, 79, 0
2, 43200, Note_on_c, 0, 76, 0
2, 43200, Note_on_c, 0, 83, 78
2, 43200, Note_on_c, 0, 79, 66
2, 43320, Note_on_c, 0, 79, 0
2, 43320, Note_on_c, 0, 83, 0
2, 43320, Note_on_c, 0, 78, 66
2, 43320, Note_on_c, 0, 81, 79
2, 43440, Note_on_c, 0, 81, 0
2, 43440, Note_on_c, 0, 78, 0
2, 43440, Note_on_c, 0, 79, 72
2, 43440, Note_on_c, 0, 76, 61
2, 43560, Note_on_c, 0, 76, 0
2, 43560, Note_on_c, 0, 79, 0
2, 43560, Note_on_c, 0, 74, 67
2, 43560, Note_on_c, 0, 78, 70
2, 43680, Note_on_c, 0, 78, 0
2, 43680, Note_on_c, 0, 74, 0
2, 43680, Note_on_c, 0, 76, 70
2, 43680, Note_on_c, 0, 73, 59
2, 43800, Note_on_c, 0, 73, 0
2, 43800, Note_on_c, 0, 76, 0
2, 43800, Note_on_c, 0, 71, 48
2, 43800, Note_on_c, 0, 74, 57
2, 43920, Note_on_c, 0, 74, 0
2, 43920, Note_on_c, 0, 71, 0
2, 43920, Note_on_c, 0, 69, 52
2, 43920, Note_on_c, 0, 73, 62
2, 44040, Note_on_c, 0, 73, 0
2, 44040, Note_on_c, 0, 69, 0
2, 44040, Note_on_c, 0, 67, 56
2, 44040, Note_on_c, 0, 71, 66
2, 44160, Note_on_c, 0, 71, 0
2, 44160, Note_on_c, 0, 67, 0
2, 44160, Note_on_c, 0, 69, 59
2, 44392, Note_on_c, 0, 69, 0
2, 44400, Note_on_c, 0, 74, 69
2, 44400, Note_on_c, 0, 66, 69
2, 44640, Note_on_c, 0, 66, 0
2, 44640, Note_on_c, 0, 74, 0
2, 44640, Note_on_c, 0, 66, 63
2, 44880, Note_on_c, 0, 66, 0
2, 44880, Note_on_c, 0, 67, 70
2, 45120, Note_on_c, 0, 67, 0
2, 45120, Note_on_c, 0, 69, 74
2, 45360, Note_on_c, 0, 69, 0
2, 45360, Note_on_c, 0, 71, 70
2, 45600, Note_on_c, 0, 71, 0
2, 45600, Note_on_c, 0, 64, 66
2, 45960, Note_on_c, 0, 64, 0
2, 45960, Note_on_c, 0, 66, 54
2, 46080, Note_on_c, 0, 66, 0
2, 46080, Note_on_c, 0, 62, 59
2, 46320, Note_on_c, 0, 62, 0
2, 46560, Note_on_c, 0, 74, 64
2, 46800, Note_on_c, 0, 74, 0
2, 46800, Note_on_c, 0, 71, 54
2, 47040, Note_on_c, 0, 71, 0
2, 47040, Note_on_c, 0, 69, 59
2, 47280, Note_on_c, 0, 69, 0
2, 47520, Note_on_c, 0, 74, 64
2, 47760, Note_on_c, 0, 74, 0
2, 47760, Note_on_c, 0, 71, 54
2, 48000, Note_on_c, 0, 71, 0
2, 48000, Note_on_c, 0, 69, 59
2, 48240, Note_on_c, 0, 69, 0
2, 48480, Note_on_c, 0, 74, 64
2, 48720, Note_on_c, 0, 74, 0
2, 48720, Note_on_c, 0, 71, 54
2, 48960, Note_on_c, 0, 71, 0
2, 48960, Note_on_c, 0, 69, 59
2, 49200, Note_on_c, 0, 69, 0
2, 49200, Note_on_c, 0, 66, 59
2, 49320, Note_on_c, 0, 66, 0
2, 49440, Note_on_c, 0, 67, 59
2, 49560, Note_on_c, 0, 67, 0
2, 49680, Note_on_c, 0, 64, 59
2, 49800, Note_on_c, 0, 64, 0
2, 49920, Note_on_c, 0, 62, 59
2, 50160, Note_on_c, 0, 62, 0
2, 50400, Note_on_c, 0, 86, 64
2, 50400, Note_on_c, 0, 74, 54
2, 50640, Note_on_c, 0, 74, 0
2, 50640, Note_on_c, 0, 86, 0
2, 50640, Note_on_c, 0, 83, 54
2, 50640, Note_on_c, 0, 71, 45
2, 50880, Note_on_c, 0, 71, 0
2, 50880, Note_on_c, 0, 83, 0
2, 50880, Note_on_c, 0, 81, 59
2, 50880, Note_on_c, 0, 69, 50
2, 51120, Note_on_c, 0, 69, 0
2, 51120, Note_on_c, 0, 81, 0
2, 51120, Note_on_c, 0, 78, 59
2, 51120, Note_on_c, 0, 66, 50
2, 51240, Note_on_c, 0, 66, 0
2, 51240, Note_on_c, 0, 78, 0
2, 51360, Note_on_c, 0, 79, 59
2, 51360, Note_on_c, 0, 67, 50
2, 51480, Note_on_c, 0, 67, 0
2, 51480, Note_on_c, 0, 79, 0
2, 51600, Note_on_c, 0, 76, 59
2, 51600, Note_on_c, 0, 64, 50
2, 51720, Note_on_c, 0, 64, 0
2, 51720, Note_on_c, 0, 76, 0
2, 51840, Note_on_c, 0, 74, 59
2, 51840, Note_on_c, 0, 62, 50
2, 52020, Note_on_c, 0, 62, 0
2, 52020, Note_on_c, 0, 74, 0
2, 52320, Note_on_c, 0, 62, 42
2, 52380, Note_on_c, 0, 62, 0
2, 52380, Note_on_c, 0, 66, 38
2, 52440, Note_on_c, 0, 66, 0
2, 52440, Note_on_c, 0, 69, 37
2, 52500, Note_on_c, 0, 69, 0
2, 52500, Note_on_c, 0, 67, 30
2, 52560, Note_on_c, 0, 67, 0
2, 52560, Note_on_c, 0, 66, 45
2, 52620, Note_on_c, 0, 66, 0
2, 52620, Note_on_c, 0, 69, 33
2, 52680, Note_on_c, 0, 69, 0
2, 52680, Note_on_c, 0, 66, 38
2, 52740, Note_on_c, 0, 66, 0
2, 52740, Note_on_c, 0, 67, 34
2, 52800, Note_on_c, 0, 67, 0
2, 52800, Note_on_c, 0, 69, 43
2, 52860, Note_on_c, 0, 69, 0
2, 52860, Note_on_c, 0, 74, 34
2, 52920, Note_on_c, 0, 74, 0
2, 52920, Note_on_c, 0, 78, 38
2, 52980, Note_on_c, 0, 78, 0
2, 52980, Note_on_c, 0, 76, 34
2, 53040, Note_on_c, 0, 76, 0
2, 53040, Note_on_c, 0, 74, 46
2, 53100, Note_on_c, 0, 74, 0
2, 53100, Note_on_c, 0, 78, 34
2, 53160, Note_on_c, 0, 78, 0
2, 53160, Note_on_c, 0, 81, 38
2, 53220, Note_on_c, 0, 81, 0
2, 53220, Note_on_c, 0, 79, 33
2, 53280, Note_on_c, 0, 79, 0
2, 53280, Note_on_c, 0, 78, 45
2, 53340, Note_on_c, 0, 78, 0
2, 53340, Note_on_c, 0, 81, 32
2, 53400, Note_on_c, 0, 81, 0
2, 53400, Note_on_c, 0, 78, 38
2, 53460, Note_on_c, 0, 78, 0
2, 53460, Note_on_c, 0, 79, 34
2, 53520, Note_on_c, 0, 79, 0
2, 53520, Note_on_c, 0, 81, 45
2, 53580, Note_on_c, 0, 81, 0
2, 53580, Note_on_c, 0, 86, 33
2, 53640, Note_on_c, 0, 86, 0
2, 53640, Note_on_c, 0, 90, 38
2, 53700, Note_on_c, 0, 90, 0
2, 53700, Note_on_c, 0, 88, 34
2, 53760, Note_on_c, 0, 88, 0
2, 53760, Note_on_c, 0, 86, 43
2, 53760, Note_on_c, 0, 81, 43
2, 53880, Note_on_c, 0, 81, 0
2, 53880, Note_on_c, 0, 86, 0
2, 53880, End_track
3, 0, Start_track
3, 0, Title_t, "Piano left"
3, 0, Program_c, 0, 0
3, 60, Note_on_c, 0, 50, 25
3, 120, Note_on_c, 0, 49, 32
3, 135, Note_on_c, 0, 50, 0
3, 180, Note_on_c, 0, 50, 28
3, 195, Note_on_c, 0, 49, 0
3, 240, Note_on_c, 0, 49, 32
3, 255, Note_on_c, 0, 50, 0
3, 300, Note_on_c, 0, 50, 28
3, 315, Note_on_c, 0, 49, 0
3, 360, Note_on_c, 0, 49, 35
3, 375, Note_on_c, 0, 50, 0
3, 420, Note_on_c, 0, 50, 28
3, 435, Note_on_c, 0, 49, 0
3, 480, Note_on_c, 0, 50, 0
3, 480, Note_on_c, 0, 54, 36
3, 540, Note_on_c, 0, 54, 0
3, 540, Note_on_c, 0, 50, 29
3, 600, Note_on_c, 0, 50, 0
3, 600, Note_on_c, 0, 49, 35
3, 660, Note_on_c, 0, 50, 28
3, 675, Note_on_c, 0, 49, 0
3, 720, Note_on_c, 0, 50, 0
3, 720, Note_on_c, 0, 40, 34
3, 780, Note_on_c, 0, 40, 0
3, 780, Note_on_c, 0, 50, 28
3, 840, Note_on_c, 0, 50, 0
3, 840, Note_on_c, 0, 49, 36
3, 900, Note_on_c, 0, 50, 33
3, 915, Note_on_c, 0, 49, 0
3, 960, Note_on_c, 0, 50, 0
3, 960, Note_on_c, 0, 42, 40
3, 1020, Note_on_c, 0, 42, 0
3, 1020, Note_on_c, 0, 50, 29
3, 1080, Note_on_c, 0, 50, 0
3, 1080, Note_on_c, 0, 49, 34
3, 1140, Note_on_c, 0, 50, 43
3, 1155, Note_on_c, 0, 49, 0
3, 1200, Note_on_c, 0, 50, 0
3, 1200, Note_on_c, 0, 43, 50
3, 1260, Note_on_c, 0, 43, 0
3, 1260, Note_on_c, 0, 50, 39
3, 1320, Note_on_c, 0, 50, 0
3, 1320, Note_on_c, 0, 49, 40
3, 1380, Note_on_c, 0, 50, 39
3, 1395, Note_on_c, 0, 49, 0
3, 1440, Note_on_c, 0, 50, 0
3, 1440, Note_on_c, 0, 42, 43
3, 1500, Note_on_c, 0, 42, 0
3, 1500, Note_on_c, 0, 50, 34
3, 1560, Note_on_c, 0, 50, 0
3, 1560, Note_on_c, 0, 49, 39
3, 1620, Note_on_c, 0, 50, 34
3, 1635, Note_on_c, 0, 49, 0
3, 1680, Note_on_c, 0, 50, 0
3, 1680, Note_on_c, 0, 40, 45
3, 1740, Note_on_c, 0, 40, 0
3, 1740, Note_on_c, 0, 50, 34
3, 1800, Note_on_c, 0, 50, 0
3, 1800, Note_on_c, 0, 49, 38
3, 1860, Note_on_c, 0, 50, 34
3, 1875, Note_on_c, 0, 49, 0
3, 1920, Note_on_c, 0, 50, 0
3, 1920, Note_on_c, 0, 38, 47
3, 1980, Note_on_c, 0, 38, 0
3, 1980, Note_on_c, 0, 50, 31
3, 2040, Note_on_c, 0, 50, 0
3, 2040, Note_on_c, 0, 49, 34
3, 2100, Note_on_c, 0, 50, 30
3, 2115, Note_on_c, 0, 49, 0
3, 2160, Note_on_c, 0, 49, 39
3, 2175, Note_on_c, 0, 50, 0
3, 2220, Note_on_c, 0, 50, 29
3, 2235, Note_on_c, 0, 49, 0
3, 2280, Note_on_c, 0, 49, 34
3, 2295, Note_on_c, 0, 50, 0
3, 2340, Note_on_c, 0, 50, 31
3, 2355, Note_on_c, 0, 49, 0
3, 2400, Note_on_c, 0, 50, 0
3, 2400, Note_on_c, 0, 54, 48
3, 2460, Note_on_c, 0, 52, 37
3, 2475, Note_on_c, 0, 54, 0
3, 2520, Note_on_c, 0, 54, 40
3, 2535, Note_on_c, 0, 52, 0
3, 2580, Note_on_c, 0, 52, 40
3, 2595, Note_on_c, 0, 54, 0
3, 2640, Note_on_c, 0, 56, 50
3, 2655, Note_on_c, 0, 52, 0
3, 2700, Note_on_c, 0, 54, 36
3, 2715, Note_on_c, 0, 56, 0
3, 2760, Note_on_c, 0, 56, 46
3, 2775, Note_on_c, 0, 54, 0
3, 2820, Note_on_c, 0, 52, 49
3, 2835, Note_on_c, 0, 56, 0
3, 2880, Note_on_c, 0, 52, 0
3, 2880, Note_on_c, 0, 57, 55
3, 2940, Note_on_c, 0, 56, 46
3, 2955, Note_on_c, 0, 57, 0
3, 3000, Note_on_c, 0, 57, 47
3, 3015, Note_on_c, 0, 56, 0
3, 3060, Note_on_c, 0, 52, 53
3, 3075, Note_on_c, 0, 57, 0
3, 3120, Note_on_c, 0, 52, 0
3, 3120, Note_on_c, 0, 59, 62
3, 3180, Note_on_c, 0, 57, 40
3, 3195, Note_on_c, 0, 59, 0
3, 3240, Note_on_c, 0, 59, 48
3, 3255, Note_on_c, 0, 57, 0
3, 3300, Note_on_c, 0, 52, 40
3, 3315, Note_on_c, 0, 59, 0
3, 3360, Note_on_c, 0, 52, 0
3, 3360, Note_on_c, 0, 57, 53
3, 3420, Note_on_c, 0, 56, 40
3, 3435, Note_on_c, 0, 57, 0
3, 3480, Note_on_c, 0, 57, 46
3, 3495, Note_on_c, 0, 56, 0
3, 3540, Note_on_c, 0, 52, 40
3, 3555, Note_on_c, 0, 57, 0
3, 3600, Note_on_c, 0, 52, 0
3, 3600, Note_on_c, 0, 56, 47
3, 3660, Note_on_c, 0, 54, 37
3, 3675, Note_on_c, 0, 56, 0
3, 3720, Note_on_c, 0, 56, 40
3, 3735, Note_on_c, 0, 54, 0
3, 3780, Note_on_c, 0, 52, 38
3, 3795, Note_on_c, 0, 56, 0
3, 3840, Note_on_c, 0, 52, 0
3, 3840, Note_on_c, 0, 49, 54
3, 3900, Note_on_c, 0, 49, 0
3, 3900, Note_on_c, 0, 52, 46
3, 3960, Note_on_c, 0, 52, 0
3, 3960, Note_on_c, 0, 58, 46
3, 4020, Note_on_c, 0, 58, 0
3, 4020, Note_on_c, 0, 61, 49
3, 4080, Note_on_c, 0, 61, 0
3, 4080, Note_on_c, 0, 59, 54
3, 4140, Note_on_c, 0, 58, 40
3, 4155, Note_on_c, 0, 59, 0
3, 4200, Note_on_c, 0, 56, 49
3, 4215, Note_on_c, 0, 58, 0
3, 4260, Note_on_c, 0, 54, 40
3, 4275, Note_on_c, 0, 56, 0
3, 4320, Note_on_c, 0, 54, 0
3, 4320, Note_on_c, 0, 59, 56
3, 4380, Note_on_c, 0, 59, 0
3, 4380, Note_on_c, 0, 61, 40
3, 4440, Note_on_c, 0, 61, 0
3, 4440, Note_on_c, 0, 59, 48
3, 4500, Note_on_c, 0, 58, 40
3, 4515, Note_on_c, 0, 59, 0
3, 4560, Note_on_c, 0, 59, 50
3, 4575, Note_on_c, 0, 58, 0
3, 4620, Note_on_c, 0, 57, 37
3, 4635, Note_on_c, 0, 59, 0
3, 4680, Note_on_c, 0, 56, 40
3, 4695, Note_on_c, 0, 57, 0
3, 4740, Note_on_c, 0, 54, 37
3, 4755, Note_on_c, 0, 56, 0
3, 4800, Note_on_c, 0, 54, 0
3, 4800, Note_on_c, 0, 56, 49
3, 4860, Note_on_c, 0, 57, 40
3, 4875, Note_on_c, 0, 56, 0
3, 4920, Note_on_c, 0, 59, 42
3, 4935, Note_on_c, 0, 57, 0
3, 4980, Note_on_c, 0, 57, 47
3, 4995, Note_on_c, 0, 59, 0
3, 5040, Note_on_c, 0, 57, 0
3, 5040, Note_on_c, 0, 56, 51
3, 5100, Note_on_c, 0, 56, 0
3, 5100, Note_on_c, 0, 52, 40
3, 5160, Note_on_c, 0, 52, 0
3, 5160, Note_on_c, 0, 54, 46
3, 5220, Note_on_c, 0, 56, 40
3, 5235, Note_on_c, 0, 54, 0
3, 5280, Note_on_c, 0, 57, 53
3, 5295, Note_on_c, 0, 56, 0
3, 5340, Note_on_c, 0, 59, 40
3, 5355, Note_on_c, 0, 57, 0
3, 5400, Note_on_c, 0, 57, 46
3, 5415, Note_on_c, 0, 59, 0
3, 5460, Note_on_c, 0, 56, 40
3, 5475, Note_on_c, 0, 57, 0
3, 5520, Note_on_c, 0, 57, 48
3, 5535, Note_on_c, 0, 56, 0
3, 5580, Note_on_c, 0, 56, 40
3, 5595, Note_on_c, 0, 57, 0
3, 5640, Note_on_c, 0, 54, 40
3, 5655, Note_on_c, 0, 56, 0
3, 5700, Note_on_c, 0, 53, 38
3, 5715, Note_on_c, 0, 54, 0
3, 5760, Note_on_c, 0, 53, 0
3, 5760, Note_on_c, 0, 54, 47
3, 5820, Note_on_c, 0, 54, 0
3, 5820, Note_on_c, 0, 57, 35
3, 5880, Note_on_c, 0, 57, 0
3, 5880, Note_on_c, 0, 56, 40
3, 5940, Note_on_c, 0, 57, 36
3, 5955, Note_on_c, 0, 56, 0
3, 6000, Note_on_c, 0, 57, 0
3, 6000, Note_on_c, 0, 52, 47
3, 6060, Note_on_c, 0, 52, 0
3, 6060, Note_on_c, 0, 57, 35
3, 6120, Note_on_c, 0, 57, 0
3, 6120, Note_on_c, 0, 56, 40
3, 6180, Note_on_c, 0, 57, 40
3, 6195, Note_on_c, 0, 56, 0
3, 6240, Note_on_c, 0, 57, 0
3, 6240, Note_on_c, 0, 50, 48
3, 6300, Note_on_c, 0, 50, 0
3, 6300, Note_on_c, 0, 57, 37
3, 6360, Note_on_c, 0, 57, 0
3, 6360, Note_on_c, 0, 56, 40
3, 6420, Note_on_c, 0, 57, 37
3, 6435, Note_on_c, 0, 56, 0
3, 6480, Note_on_c, 0, 57, 0
3, 6480, Note_on_c, 0, 49, 47
3, 6540, Note_on_c, 0, 49, 0
3, 6540, Note_on_c, 0, 57, 38
3, 6600, Note_on_c, 0, 57, 0
3, 6600, Note_on_c, 0, 56, 40
3, 6660, Note_on_c, 0, 55, 37
3, 6675, Note_on_c, 0, 56, 0
3, 6720, Note_on_c, 0, 55, 0
3, 6720, Note_on_c, 0, 54, 46
3, 6780, Note_on_c, 0, 54, 0
3, 6780, Note_on_c, 0, 57, 37
3, 6840, Note_on_c, 0, 57, 0
3, 6840, Note_on_c, 0, 56, 40
3, 6900, Note_on_c, 0, 57, 37
3, 6915, Note_on_c, 0, 56, 0
3, 6960, Note_on_c, 0, 57, 0
3, 6960, Note_on_c, 0, 52, 47
3, 7020, Note_on_c, 0, 52, 0
3, 7020, Note_on_c, 0, 57, 39
3, 7080, Note_on_c, 0, 57, 0
3, 7080, Note_on_c, 0, 56, 40
3, 7140, Note_on_c, 0, 57, 39
3, 7155, Note_on_c, 0, 56, 0
3, 7200, Note_on_c, 0, 57, 0
3, 7200, Note_on_c, 0, 51, 49
3, 7260, Note_on_c, 0, 51, 0
3, 7260, Note_on_c, 0, 57, 38
3, 7320, Note_on_c, 0, 57, 0
3, 7320, Note_on_c, 0, 56, 40
3, 7380, Note_on_c, 0, 57, 38
3, 7395, Note_on_c, 0, 56, 0
3, 7440, Note_on_c, 0, 54, 47
3, 7455, Note_on_c, 0, 57, 0
3, 7500, Note_on_c, 0, 54, 0
3, 7500, Note_on_c, 0, 63, 37
3, 7560, Note_on_c, 0, 63, 0
3, 7560, Note_on_c, 0, 57, 40
3, 7620, Note_on_c, 0, 57, 0
3, 7620, Note_on_c, 0, 54, 35
3, 7680, Note_on_c, 0, 54, 0
3, 7680, Note_on_c, 0, 56, 48
3, 7740, Note_on_c, 0, 56, 0
3, 7740, Note_on_c, 0, 52, 40
3, 7800, Note_on_c, 0, 52, 0
3, 7800, Note_on_c, 0, 50, 41
3, 7860, Note_on_c, 0, 50, 0
3, 7860, Note_on_c, 0, 52, 45
3, 7920, Note_on_c, 0, 52, 0
3, 7920, Note_on_c, 0, 49, 54
3, 7980, Note_on_c, 0, 49, 0
3, 7980, Note_on_c, 0, 52, 45
3, 8040, Note_on_c, 0, 52, 0
3, 8040, Note_on_c, 0, 47, 52
3, 8100, Note_on_c, 0, 47, 0
3, 8100, Note_on_c, 0, 52, 55
3, 8160, Note_on_c, 0, 52, 0
3, 8160, Note_on_c, 0, 44, 59
3, 8220, Note_on_c, 0, 44, 0
3, 8220, Note_on_c, 0, 52, 45
3, 8280, Note_on_c, 0, 52, 0
3, 8280, Note_on_c, 0, 45, 52
3, 8340, Note_on_c, 0, 45, 0
3, 8340, Note_on_c, 0, 54, 46
3, 8400, Note_on_c, 0, 54, 0
3, 8400, Note_on_c, 0, 47, 53
3, 8460, Note_on_c, 0, 47, 0
3, 8460, Note_on_c, 0, 56, 40
3, 8520, Note_on_c, 0, 56, 0
3, 8520, Note_on_c, 0, 49, 46
3, 8580, Note_on_c, 0, 49, 0
3, 8580, Note_on_c, 0, 57, 40
3, 8640, Note_on_c, 0, 57, 0
3, 8640, Note_on_c, 0, 50, 47
3, 8700, Note_on_c, 0, 50, 0
3, 8700, Note_on_c, 0, 54, 40
3, 8760, Note_on_c, 0, 54, 0
3, 8760, Note_on_c, 0, 58, 40
3, 8820, Note_on_c, 0, 59, 46
3, 8835, Note_on_c, 0, 58, 0
3, 8880, Note_on_c, 0, 52, 51
3, 8895, Note_on_c, 0, 59, 0
3, 8940, Note_on_c, 0, 59, 40
3, 8955, Note_on_c, 0, 52, 0
3, 9000, Note_on_c, 0, 59, 0
3, 9000, Note_on_c, 0, 62, 43
3, 9060, Note_on_c, 0, 62, 0
3, 9060, Note_on_c, 0, 64, 40
3, 9120, Note_on_c, 0, 64, 0
3, 9120, Note_on_c, 0, 57, 57
3, 9180, Note_on_c, 0, 57, 0
3, 9180, Note_on_c, 0, 62, 40
3, 9240, Note_on_c, 0, 62, 0
3, 9240, Note_on_c, 0, 64, 45
3, 9300, Note_on_c, 0, 64, 0
3, 9300, Note_on_c, 0, 62, 40
3, 9360, Note_on_c, 0, 62, 0
3, 9360, Note_on_c, 0, 61, 52
3, 9420, Note_on_c, 0, 61, 0
3, 9420, Note_on_c, 0, 59, 34
3, 9480, Note_on_c, 0, 57, 40
3, 9495, Note_on_c, 0, 59, 0
3, 9540, Note_on_c, 0, 59, 34
3, 9555, Note_on_c, 0, 57, 0
3, 9600, Note_on_c, 0, 61, 46
3, 9615, Note_on_c, 0, 59, 0
3, 9660, Note_on_c, 0, 62, 34
3, 9675, Note_on_c, 0, 61, 0
3, 9720, Note_on_c, 0, 64, 36
3, 9735, Note_on_c, 0, 62, 0
3, 9780, Note_on_c, 0, 66, 34
3, 9795, Note_on_c, 0, 64, 0
3, 9840, Note_on_c, 0, 67, 40
3, 9855, Note_on_c, 0, 66, 0
3, 9900, Note_on_c, 0, 66, 30
3, 9915, Note_on_c, 0, 67, 0
3, 9960, Note_on_c, 0, 67, 33
3, 9975, Note_on_c, 0, 66, 0
3, 10020, Note_on_c, 0, 65, 30
3, 10035, Note_on_c, 0, 67, 0
3, 10080, Note_on_c, 0, 66, 40
3, 10095, Note_on_c, 0, 65, 0
3, 10140, Note_on_c, 0, 65, 31
3, 10155, Note_on_c, 0, 66, 0
3, 10200, Note_on_c, 0, 66, 35
3, 10215, Note_on_c, 0, 65, 0
3, 10260, Note_on_c, 0, 62, 30
3, 10275, Note_on_c, 0, 66, 0
3, 10320, Note_on_c, 0, 65, 40
3, 10335, Note_on_c, 0, 62, 0
3, 10380, Note_on_c, 0, 64, 31
3, 10395, Note_on_c, 0, 65, 0
3, 10440, Note_on_c, 0, 65, 34
3, 10455, Note_on_c, 0, 64, 0
3, 10500, Note_on_c, 0, 62, 31
3, 10515, Note_on_c, 0, 65, 0
3, 10560, Note_on_c, 0, 62, 0
3, 10560, Note_on_c, 0, 61, 40
3, 10620, Note_on_c, 0, 60, 32
3, 10635, Note_on_c, 0, 61, 0
3, 10680, Note_on_c, 0, 61, 35
3, 10695, Note_on_c, 0, 60, 0
3, 10740, Note_on_c, 0, 57, 30
3, 10755, Note_on_c, 0, 61, 0
3, 10800, Note_on_c, 0, 55, 40
3, 10815, Note_on_c, 0, 57, 0
3, 10860, Note_on_c, 0, 54, 30
3, 10875, Note_on_c, 0, 55, 0
3, 10920, Note_on_c, 0, 55, 34
3, 10935, Note_on_c, 0, 54, 0
3, 10980, Note_on_c, 0, 52, 30
3, 10995, Note_on_c, 0, 55, 0
3, 11040, Note_on_c, 0, 52, 0
3, 11040, Note_on_c, 0, 54, 36
3, 11100, Note_on_c, 0, 54, 0
3, 11100, Note_on_c, 0, 50, 29
3, 11160, Note_on_c, 0, 50, 0
3, 11160, Note_on_c, 0, 49, 35
3, 11220, Note_on_c, 0, 50, 28
3, 11235, Note_on_c, 0, 49, 0
3, 11280, Note_on_c, 0, 50, 0
3, 11280, Note_on_c, 0, 40, 34
3, 11340, Note_on_c, 0, 40, 0
3, 11340, Note_on_c, 0, 50, 28
3, 11400, Note_on_c, 0, 50, 0
3, 11400, Note_on_c, 0, 49, 36
3, 11460, Note_on_c, 0, 50, 33
3, 11475, Note_on_c, 0, 49, 0
3, 11520, Note_on_c, 0, 50, 0
3, 11520, Note_on_c, 0, 42, 40
3, 11580, Note_on_c, 0, 42, 0
3, 11580, Note_on_c, 0, 50, 29
3, 11640, Note_on_c, 0, 50, 0
3, 11640, Note_on_c, 0, 49, 34
3, 11700, Note_on_c, 0, 50, 43
3, 11715, Note_on_c, 0, 49, 0
3, 11760, Note_on_c, 0, 50, 0
3, 11760, Note_on_c, 0, 43, 50
3, 11820, Note_on_c, 0, 43, 0
3, 11820, Note_on_c, 0, 50, 39
3, 11880, Note_on_c, 0, 50, 0
3, 11880, Note_on_c, 0, 49, 40
3, 11940, Note_on_c, 0, 50, 39
3, 11955, Note_on_c, 0, 49, 0
3, 12000, Note_on_c, 0, 50, 0
3, 12000, Note_on_c, 0, 42, 43
3, 12060, Note_on_c, 0, 42, 0
3, 12060, Note_on_c, 0, 50, 34
3, 12120, Note_on_c, 0, 50, 0
3, 12120, Note_on_c, 0, 49, 39
3, 12180, Note_on_c, 0, 50, 34
3, 12195, Note_on_c, 0, 49, 0
3, 12240, Note_on_c, 0, 50, 0
3, 12240, Note_on_c, 0, 40, 45
3, 12300, Note_on_c, 0, 40, 0
3, 12300, Note_on_c, 0, 50, 34
3, 12360, Note_on_c, 0, 50, 0
3, 12360, Note_on_c, 0, 49, 38
3, 12420, Note_on_c, 0, 50, 34
3, 12435, Note_on_c, 0, 49, 0
3, 12480, Note_on_c, 0, 50, 0
3, 12480, Note_on_c, 0, 38, 47
3, 12540, Note_on_c, 0, 38, 0
3, 12540, Note_on_c, 0, 50, 31
3, 12600, Note_on_c, 0, 50, 0
3, 12600, Note_on_c, 0, 49, 34
3, 12660, Note_on_c, 0, 50, 30
3, 12675, Note_on_c, 0, 49, 0
3, 12720, Note_on_c, 0, 49, 39
3, 12735, Note_on_c, 0, 50, 0
3, 12780, Note_on_c, 0, 50, 29
3, 12795, Note_on_c, 0, 49, 0
3, 12840, Note_on_c, 0, 49, 34
3, 12855, Note_on_c, 0, 50, 0
3, 12900, Note_on_c, 0, 50, 31
3, 12915, Note_on_c, 0, 49, 0
3, 12960, Note_on_c, 0, 50, 0
3, 12960, Note_on_c, 0, 54, 48
3, 13020, Note_on_c, 0, 52, 37
3, 13035, Note_on_c, 0, 54, 0
3, 13080, Note_on_c, 0, 54, 40
3, 13095, Note_on_c, 0, 52, 0
3, 13140, Note_on_c, 0, 52, 40
3, 13155, Note_on_c, 0, 54, 0
3, 13200, Note_on_c, 0, 56, 50
3, 13215, Note_on_c, 0, 52, 0
3, 13260, Note_on_c, 0, 54, 36
3, 13275, Note_on_c, 0, 56, 0
3, 13320, Note_on_c, 0, 56, 46
3, 13335, Note_on_c, 0, 54, 0
3, 13380, Note_on_c, 0, 52, 49
3, 13395, Note_on_c, 0, 56, 0
3, 13440, Note_on_c, 0, 52, 0
3, 13440, Note_on_c, 0, 57, 55
3, 13500, Note_on_c, 0, 56, 46
3, 13515, Note_on_c, 0, 57, 0
3, 13560, Note_on_c, 0, 57, 47
3, 13575, Note_on_c, 0, 56, 0
3, 13620, Note_on_c, 0, 52, 53
3, 13635, Note_on_c, 0, 57, 0
3, 13680, Note_on_c, 0, 52, 0
3, 13680, Note_on_c, 0, 59, 62
3, 13740, Note_on_c, 0, 57, 40
3, 13755, Note_on_c, 0, 59, 0
3, 13800, Note_on_c, 0, 59, 48
3, 13815, Note_on_c, 0, 57, 0
3, 13860, Note_on_c, 0, 52, 40
3, 13875, Note_on_c, 0, 59, 0
3, 13920, Note_on_c, 0, 52, 0
3, 13920, Note_on_c, 0, 57, 53
3, 13980, Note_on_c, 0, 56, 40
3, 13995, Note_on_c, 0, 57, 0
3, 14040, Note_on_c, 0, 57, 46
3, 14055, Note_on_c, 0, 56, 0
3, 14100, Note_on_c, 0, 52, 40
3, 14115, Note_on_c, 0, 57, 0
3, 14160, Note_on_c, 0, 52, 0
3, 14160, Note_on_c, 0, 56, 47
3, 14220, Note_on_c, 0, 54, 37
3, 14235, Note_on_c, 0, 56, 0
3, 14280, Note_on_c, 0, 56, 40
3, 14295, Note_on_c, 0, 54, 0
3, 14340, Note_on_c, 0, 52, 38
3, 14355, Note_on_c, 0, 56, 0
3, 14400, Note_on_c, 0, 52, 0
3, 14400, Note_on_c, 0, 49, 54
3, 14460, Note_on_c, 0, 49, 0
3, 14460, Note_on_c, 0, 52, 46
3, 14520, Note_on_c, 0, 52, 0
3, 14520, Note_on_c, 0, 58, 46
3, 14580, Note_on_c, 0, 58, 0
3, 14580, Note_on_c, 0, 61, 49
3, 14640, Note_on_c, 0, 61, 0
3, 14640, Note_on_c, 0, 59, 54
3, 14700, Note_on_c, 0, 58, 40
3, 14715, Note_on_c, 0, 59, 0
3, 14760, Note_on_c, 0, 56, 49
3, 14775, Note_on_c, 0, 58, 0
3, 14820, Note_on_c, 0, 54, 40
3, 14835, Note_on_c, 0, 56, 0
3, 14880, Note_on_c, 0, 54, 0
3, 14880, Note_on_c, 0, 59, 56
3, 14940, Note_on_c, 0, 59, 0
3, 14940, Note_on_c, 0, 61, 40
3, 15000, Note_on_c, 0, 61, 0
3, 15000, Note_on_c, 0, 59, 48
3, 15060, Note_on_c, 0, 58, 40
3, 15075, Note_on_c, 0, 59, 0
3, 15120, Note_on_c, 0, 59, 50
3, 15135, Note_on_c, 0, 58, 0
3, 15180, Note_on_c, 0, 57, 37
3, 15195, Note_on_c, 0, 59, 0
3, 15240, Note_on_c, 0, 56, 40
3, 15255, Note_on_c, 0, 57, 0
3, 15300, Note_on_c, 0, 54, 37
3, 15315, Note_on_c, 0, 56, 0
3, 15360, Note_on_c, 0, 54, 0
3, 15360, Note_on_c, 0, 56, 49
3, 15420, Note_on_c, 0, 57, 40
3, 15435, Note_on_c, 0, 56, 0
3, 15480, Note_on_c, 0, 59, 42
3, 15495, Note_on_c, 0, 57, 0
3, 15540, Note_on_c, 0, 57, 47
3, 15555, Note_on_c, 0, 59, 0
3, 15600, Note_on_c, 0, 57, 0
3, 15600, Note_on_c, 0, 56, 51
3, 15660, Note_on_c, 0, 56, 0
3, 15660, Note_on_c, 0, 52, 40
3, 15720, Note_on_c, 0, 52, 0
3, 15720, Note_on_c, 0, 54, 46
3, 15780, Note_on_c, 0, 56, 40
3, 15795, Note_on_c, 0, 54, 0
3, 15840, Note_on_c, 0, 57, 53
3, 15855, Note_on_c, 0, 56, 0
3, 15900, Note_on_c, 0, 59, 40
3, 15915, Note_on_c, 0, 57, 0
3, 15960, Note_on_c, 0, 57, 46
3, 15975, Note_on_c, 0, 59, 0
3, 16020, Note_on_c, 0, 56, 40
3, 16035, Note_on_c, 0, 57, 0
3, 16080, Note_on_c, 0, 57, 48
3, 16095, Note_on_c, 0, 56, 0
3, 16140, Note_on_c, 0, 56, 40
3, 16155, Note_on_c, 0, 57, 0
3, 16200, Note_on_c, 0, 54, 40
3, 16215, Note_on_c, 0, 56, 0
3, 16260, Note_on_c, 0, 53, 38
3, 16275, Note_on_c, 0, 54, 0
3, 16320, Note_on_c, 0, 53, 0
3, 16320, Note_on_c, 0, 54, 47
3, 16380, Note_on_c, 0, 54, 0
3, 16380, Note_on_c, 0, 57, 35
3, 16440, Note_on_c, 0, 57, 0
3, 16440, Note_on_c, 0, 56, 40
3, 16500, Note_on_c, 0, 57, 36
3, 16515, Note_on_c, 0, 56, 0
3, 16560, Note_on_c, 0, 57, 0
3, 16560, Note_on_c, 0, 52, 47
3, 16620, Note_on_c, 0, 52, 0
3, 16620, Note_on_c, 0, 57, 35
3, 16680, Note_on_c, 0, 57, 0
3, 16680, Note_on_c, 0, 56, 40
3, 16740, Note_on_c, 0, 57, 40
3, 16755, Note_on_c, 0, 56, 0
3, 16800, Note_on_c, 0, 57, 0
3, 16800, Note_on_c, 0, 50, 48
3, 16860, Note_on_c, 0, 50, 0
3, 16860, Note_on_c, 0, 57, 37
3, 16920, Note_on_c, 0, 57, 0
3, 16920, Note_on_c, 0, 56, 40
3, 16980, Note_on_c, 0, 57, 37
3, 16995, Note_on_c, 0, 56, 0
3, 17040, Note_on_c, 0, 57, 0
3, 17040, Note_on_c, 0, 49, 47
3, 17100, Note_on_c, 0, 49, 0
3, 17100, Note_on_c, 0, 57, 38
3, 17160, Note_on_c, 0, 57, 0
3, 17160, Note_on_c, 0, 56, 40
3, 17220, Note_on_c, 0, 55, 37
3, 17235, Note_on_c, 0, 56, 0
3, 17280, Note_on_c, 0, 55, 0
3, 17280, Note_on_c, 0, 54, 46
3, 17340, Note_on_c, 0, 54, 0
3, 17340, Note_on_c, 0, 57, 37
3, 17400, Note_on_c, 0, 57, 0
3, 17400, Note_on_c, 0, 56, 40
3, 17460, Note_on_c, 0, 57, 37
3, 17475, Note_on_c, 0, 56, 0
3, 17520, Note_on_c, 0, 57, 0
3, 17520, Note_on_c, 0, 52, 47
3, 17580, Note_on_c, 0, 52, 0
3, 17580, Note_on_c, 0, 57, 39
3, 17640, Note_on_c, 0, 57, 0
3, 17640, Note_on_c, 0, 56, 40
3, 17700, Note_on_c, 0, 57, 39
3, 17715, Note_on_c, 0, 56, 0
3, 17760, Note_on_c, 0, 57, 0
3, 17760, Note_on_c, 0, 51, 49
3, 17820, Note_on_c, 0, 51, 0
3, 17820, Note_on_c, 0, 57, 38
3, 17880, Note_on_c, 0, 57, 0
3, 17880, Note_on_c, 0, 56, 40
3, 17940, Note_on_c, 0, 57, 38
3, 17955, Note_on_c, 0, 56, 0
3, 18000, Note_on_c, 0, 54, 47
3, 18015, Note_on_c, 0, 57, 0
3, 18060, Note_on_c, 0, 54, 0
3, 18060, Note_on_c, 0, 63, 37
3, 18120, Note_on_c, 0, 63, 0
3, 18120, Note_on_c, 0, 57, 40
3, 18180, Note_on_c, 0, 57, 0
3, 18180, Note_on_c, 0, 54, 35
3, 18240, Note_on_c, 0, 54, 0
3, 18240, Note_on_c, 0, 56, 48
3, 18300, Note_on_c, 0, 56, 0
3, 18300, Note_on_c, 0, 52, 40
3, 18360, Note_on_c, 0, 52, 0
3, 18360, Note_on_c, 0, 50, 41
3, 18420, Note_on_c, 0, 50, 0
3, 18420, Note_on_c, 0, 52, 45
3, 18480, Note_on_c, 0, 52, 0
3, 18480, Note_on_c, 0, 49, 54
3, 18540, Note_on_c, 0, 49, 0
3, 18540, Note_on_c, 0, 52, 45
3, 18600, Note_on_c, 0, 52, 0
3, 18600, Note_on_c, 0, 47, 52
3, 18660, Note_on_c, 0, 47, 0
3, 18660, Note_on_c, 0, 52, 55
3, 18720, Note_on_c, 0, 52, 0
3, 18720, Note_on_c, 0, 44, 59
3, 18780, Note_on_c, 0, 44, 0
3, 18780, Note_on_c, 0, 52, 45
3, 18840, Note_on_c, 0, 52, 0
3, 18840, Note_on_c, 0, 45, 52
3, 18900, Note_on_c, 0, 45, 0
3, 18900, Note_on_c, 0, 54, 46
3, 18960, Note_on_c, 0, 54, 0
3, 18960, Note_on_c, 0, 47, 53
3, 19020, Note_on_c, 0, 47, 0
3, 19020, Note_on_c, 0, 56, 40
3, 19080, Note_on_c, 0, 56, 0
3, 19080, Note_on_c, 0, 49, 46
3, 19140, Note_on_c, 0, 49, 0
3, 19140, Note_on_c, 0, 57, 40
3, 19200, Note_on_c, 0, 57, 0
3, 19200, Note_on_c, 0, 50, 47
3, 19260, Note_on_c, 0, 50, 0
3, 19260, Note_on_c, 0, 54, 40
3, 19320, Note_on_c, 0, 54, 0
3, 19320, Note_on_c, 0, 58, 40
3, 19380, Note_on_c, 0, 59, 46
3, 19395, Note_on_c, 0, 58, 0
3, 19440, Note_on_c, 0, 52, 51
3, 19455, Note_on_c, 0, 59, 0
3, 19500, Note_on_c, 0, 59, 40
3, 19515, Note_on_c, 0, 52, 0
3, 19560, Note_on_c, 0, 59, 0
3, 19560, Note_on_c, 0, 62, 43
3, 19620, Note_on_c, 0, 62, 0
3, 19620, Note_on_c, 0, 64, 40
3, 19680, Note_on_c, 0, 64, 0
3, 19680, Note_on_c, 0, 57, 57
3, 19740, Note_on_c, 0, 57, 0
3, 19740, Note_on_c, 0, 62, 40
3, 19800, Note_on_c, 0, 62, 0
3, 19800, Note_on_c, 0, 64, 45
3, 19860, Note_on_c, 0, 64, 0
3, 19860, Note_on_c, 0, 62, 40
3, 19920, Note_on_c, 0, 62, 0
3, 19920, Note_on_c, 0, 61, 52
3, 19980, Note_on_c, 0, 61, 0
3, 19980, Note_on_c, 0, 59, 34
3, 20040, Note_on_c, 0, 57, 40
3, 20055, Note_on_c, 0, 59, 0
3, 20100, Note_on_c, 0, 59, 34
3, 20115, Note_on_c, 0, 57, 0
3, 20160, Note_on_c, 0, 61, 46
3, 20175, Note_on_c, 0, 59, 0
3, 20220, Note_on_c, 0, 62, 34
3, 20235, Note_on_c, 0, 61, 0
3, 20280, Note_on_c, 0, 64, 36
3, 20295, Note_on_c, 0, 62, 0
3, 20340, Note_on_c, 0, 66, 34
3, 20355, Note_on_c, 0, 64, 0
3, 20400, Note_on_c, 0, 67, 40
3, 20415, Note_on_c, 0, 66, 0
3, 20460, Note_on_c, 0, 66, 30
3, 20475, Note_on_c, 0, 67, 0
3, 20520, Note_on_c, 0, 67, 33
3, 20535, Note_on_c, 0, 66, 0
3, 20580, Note_on_c, 0, 65, 30
3, 20595, Note_on_c, 0, 67, 0
3, 20640, Note_on_c, 0, 66, 40
3, 20655, Note_on_c, 0, 65, 0
3, 20700, Note_on_c, 0, 65, 31
3, 20715, Note_on_c, 0, 66, 0
3, 20760, Note_on_c, 0, 66, 35
3, 20775, Note_on_c, 0, 65, 0
3, 20820, Note_on_c, 0, 62, 30
3, 20835, Note_on_c, 0, 66, 0
3, 20880, Note_on_c, 0, 65, 40
3, 20895, Note_on_c, 0, 62, 0
3, 20940, Note_on_c, 0, 64, 31
3, 20955, Note_on_c, 0, 65, 0
3, 21000, Note_on_c, 0, 65, 34
3, 21015, Note_on_c, 0, 64, 0
3, 21060, Note_on_c, 0, 62, 31
3, 21075, Note_on_c, 0, 65, 0
3, 21120, Note_on_c, 0, 62, 0
3, 21120, Note_on_c, 0, 61, 40
3, 21180, Note_on_c, 0, 60, 32
3, 21195, Note_on_c, 0, 61, 0
3, 21240, Note_on_c, 0, 61, 35
3, 21255, Note_on_c, 0, 60, 0
3, 21300, Note_on_c, 0, 57, 30
3, 21315, Note_on_c, 0, 61, 0
3, 21360, Note_on_c, 0, 55, 40
3, 21375, Note_on_c, 0, 57, 0
3, 21420, Note_on_c, 0, 54, 30
3, 21435, Note_on_c, 0, 55, 0
3, 21480, Note_on_c, 0, 55, 34
3, 21495, Note_on_c, 0, 54, 0
3, 21540, Note_on_c, 0, 52, 30
3, 21555, Note_on_c, 0, 55, 0
3, 21600, Note_on_c, 0, 52, 0
3, 21600, Note_on_c, 0, 50, 42
3, 21660, Note_on_c, 0, 54, 37
3, 21675, Note_on_c, 0, 50, 0
3, 21720, Note_on_c, 0, 57, 43
3, 21735, Note_on_c, 0, 54, 0
3, 21780, Note_on_c, 0, 55, 40
3, 21795, Note_on_c, 0, 57, 0
3, 21840, Note_on_c, 0, 54, 46
3, 21855, Note_on_c, 0, 55, 0
3, 21900, Note_on_c, 0, 55, 41
3, 21915, Note_on_c, 0, 54, 0
3, 21960, Note_on_c, 0, 54, 46
3, 21975, Note_on_c, 0, 55, 0
3, 22020, Note_on_c, 0, 52, 41
3, 22035, Note_on_c, 0, 54, 0
3, 22080, Note_on_c, 0, 52, 0
3, 22080, Note_on_c, 0, 51, 50
3, 22140, Note_on_c, 0, 54, 39
3, 22155, Note_on_c, 0, 51, 0
3, 22200, Note_on_c, 0, 57, 46
3, 22215, Note_on_c, 0, 54, 0
3, 22260, Note_on_c, 0, 55, 42
3, 22275, Note_on_c, 0, 57, 0
3, 22320, Note_on_c, 0, 54, 46
3, 22335, Note_on_c, 0, 55, 0
3, 22380, Note_on_c, 0, 55, 42
3, 22395, Note_on_c, 0, 54, 0
3, 22440, Note_on_c, 0, 54, 46
3, 22455, Note_on_c, 0, 55, 0
3, 22500, Note_on_c, 0, 52, 43
3, 22515, Note_on_c, 0, 54, 0
3, 22560, Note_on_c, 0, 52, 0
3, 22560, Note_on_c, 0, 51, 46
3, 22620, Note_on_c, 0, 54, 40
3, 22635, Note_on_c, 0, 51, 0
3, 22680, Note_on_c, 0, 57, 47
3, 22695, Note_on_c, 0, 54, 0
3, 22740, Note_on_c, 0, 55, 44
3, 22755, Note_on_c, 0, 57, 0
3, 22800, Note_on_c, 0, 54, 50
3, 22815, Note_on_c, 0, 55, 0
3, 22860, Note_on_c, 0, 55, 45
3, 22875, Note_on_c, 0, 54, 0
3, 22920, Note_on_c, 0, 54, 50
3, 22935, Note_on_c, 0, 55, 0
3, 22980, Note_on_c, 0, 52, 45
3, 22995, Note_on_c, 0, 54, 0
3, 23040, Note_on_c, 0, 52, 0
3, 23040, Note_on_c, 0, 51, 55
3, 23100, Note_on_c, 0, 54, 42
3, 23115, Note_on_c, 0, 51, 0
3, 23160, Note_on_c, 0, 57, 50
3, 23175, Note_on_c, 0, 54, 0
3, 23220, Note_on_c, 0, 55, 46
3, 23235, Note_on_c, 0, 57, 0
3, 23280, Note_on_c, 0, 54, 50
3, 23295, Note_on_c, 0, 55, 0
3, 23340, Note_on_c, 0, 55, 46
3, 23355, Note_on_c, 0, 54, 0
3, 23400, Note_on_c, 0, 54, 50
3, 23415, Note_on_c, 0, 55, 0
3, 23460, Note_on_c, 0, 53, 47
3, 23475, Note_on_c, 0, 54, 0
3, 23520, Note_on_c, 0, 53, 0
3, 23520, Note_on_c, 0, 52, 50
3, 23580, Note_on_c, 0, 56, 44
3, 23595, Note_on_c, 0, 52, 0
3, 23640, Note_on_c, 0, 59, 51
3, 23655, Note_on_c, 0, 56, 0
3, 23700, Note_on_c, 0, 57, 48
3, 23715, Note_on_c, 0, 59, 0
3, 23760, Note_on_c, 0, 56, 55
3, 23775, Note_on_c, 0, 57, 0
3, 23820, Note_on_c, 0, 57, 49
3, 23835, Note_on_c, 0, 56, 0
3, 23880, Note_on_c, 0, 56, 55
3, 23895, Note_on_c, 0, 57, 0
3, 23940, Note_on_c, 0, 54, 49
3, 23955, Note_on_c, 0, 56, 0
3, 24000, Note_on_c, 0, 54, 0
3, 24000, Note_on_c, 0, 53, 60
3, 24060, Note_on_c, 0, 56, 46
3, 24075, Note_on_c, 0, 53, 0
3, 24120, Note_on_c, 0, 59, 55
3, 24135, Note_on_c, 0, 56, 0
3, 24180, Note_on_c, 0, 57, 50
3, 24195, Note_on_c, 0, 59, 0
3, 24240, Note_on_c, 0, 56, 55
3, 24255, Note_on_c, 0, 57, 0
3, 24300, Note_on_c, 0, 57, 50
3, 24315, Note_on_c, 0, 56, 0
3, 24360, Note_on_c, 0, 56, 55
3, 24375, Note_on_c, 0, 57, 0
3, 24420, Note_on_c, 0, 54, 51
3, 24435, Note_on_c, 0, 56, 0
3, 24480, Note_on_c, 0, 54, 0
3, 24480, Note_on_c, 0, 53, 55
3, 24540, Note_on_c, 0, 56, 48
3, 24555, Note_on_c, 0, 53, 0
3, 24600, Note_on_c, 0, 59, 56
3, 24615, Note_on_c, 0, 56, 0
3, 24660, Note_on_c, 0, 57, 52
3, 24675, Note_on_c, 0, 59, 0
3, 24720, Note_on_c, 0, 56, 60
3, 24735, Note_on_c, 0, 57, 0
3, 24780, Note_on_c, 0, 57, 53
3, 24795, Note_on_c, 0, 56, 0
3, 24840, Note_on_c, 0, 56, 60
3, 24855, Note_on_c, 0, 57, 0
3, 24900, Note_on_c, 0, 54, 53
3, 24915, Note_on_c, 0, 56, 0
3, 24960, Note_on_c, 0, 54, 0
3, 24960, Note_on_c, 0, 53, 66
3, 25020, Note_on_c, 0, 56, 50
3, 25035, Note_on_c, 0, 53, 0
3, 25080, Note_on_c, 0, 65, 60
3, 25095, Note_on_c, 0, 56, 0
3, 25140, Note_on_c, 0, 62, 55
3, 25155, Note_on_c, 0, 65, 0
3, 25200, Note_on_c, 0, 61, 60
3, 25215, Note_on_c, 0, 62, 0
3, 25260, Note_on_c, 0, 62, 55
3, 25275, Note_on_c, 0, 61, 0
3, 25320, Note_on_c, 0, 61, 60
3, 25335, Note_on_c, 0, 62, 0
3, 25380, Note_on_c, 0, 59, 56
3, 25395, Note_on_c, 0, 61, 0
3, 25440, Note_on_c, 0, 59, 0
3, 25440, Note_on_c, 0, 58, 66
3, 25500, Note_on_c, 0, 61, 50
3, 25515, Note_on_c, 0, 58, 0
3, 25560, Note_on_c, 0, 66, 60
3, 25575, Note_on_c, 0, 61, 0
3, 25620, Note_on_c, 0, 64, 55
3, 25635, Note_on_c, 0, 66, 0
3, 25680, Note_on_c, 0, 62, 60
3, 25695, Note_on_c, 0, 64, 0
3, 25740, Note_on_c, 0, 64, 55
3, 25755, Note_on_c, 0, 62, 0
3, 25800, Note_on_c, 0, 62, 60
3, 25815, Note_on_c, 0, 64, 0
3, 25860, Note_on_c, 0, 61, 56
3, 25875, Note_on_c, 0, 62, 0
3, 25920, Note_on_c, 0, 61, 0
3, 25920, Note_on_c, 0, 59, 60
3, 25980, Note_on_c, 0, 61, 55
3, 25995, Note_on_c, 0, 59, 0
3, 26040, Note_on_c, 0, 59, 60
3, 26055, Note_on_c, 0, 61, 0
3, 26100, Note_on_c, 0, 61, 55
3, 26115, Note_on_c, 0, 59, 0
3, 26160, Note_on_c, 0, 62, 60
3, 26175, Note_on_c, 0, 61, 0
3, 26220, Note_on_c, 0, 59, 52
3, 26235, Note_on_c, 0, 62, 0
3, 26280, Note_on_c, 0, 59, 0
3, 26280, Note_on_c, 0, 64, 63
3, 26340, Note_on_c, 0, 62, 56
3, 26355, Note_on_c, 0, 64, 0
3, 26400, Note_on_c, 0, 61, 58
3, 26415, Note_on_c, 0, 62, 0
3, 26460, Note_on_c, 0, 59, 57
3, 26475, Note_on_c, 0, 61, 0
3, 26520, Note_on_c, 0, 57, 54
3, 26535, Note_on_c, 0, 59, 0
3, 26580, Note_on_c, 0, 55, 49
3, 26595, Note_on_c, 0, 57, 0
3, 26640, Note_on_c, 0, 54, 62
3, 26655, Note_on_c, 0, 55, 0
3, 26700, Note_on_c, 0, 52, 51
3, 26715, Note_on_c, 0, 54, 0
3, 26760, Note_on_c, 0, 54, 61
3, 26775, Note_on_c, 0, 52, 0
3, 26820, Note_on_c, 0, 52, 54
3, 26835, Note_on_c, 0, 54, 0
3, 26880, Note_on_c, 0, 52, 0
3, 26880, Note_on_c, 0, 50, 60
3, 26940, Note_on_c, 0, 49, 50
3, 26955, Note_on_c, 0, 50, 0
3, 27000, Note_on_c, 0, 50, 60
3, 27015, Note_on_c, 0, 49, 0
3, 27060, Note_on_c, 0, 49, 51
3, 27075, Note_on_c, 0, 50, 0
3, 27120, Note_on_c, 0, 47, 60
3, 27135, Note_on_c, 0, 49, 0
3, 27180, Note_on_c, 0, 45, 55
3, 27195, Note_on_c, 0, 47, 0
3, 27240, Note_on_c, 0, 47, 60
3, 27255, Note_on_c, 0, 45, 0
3, 27300, Note_on_c, 0, 44, 51
3, 27315, Note_on_c, 0, 47, 0
3, 27360, Note_on_c, 0, 44, 0
3, 27360, Note_on_c, 0, 49, 66
3, 27420, Note_on_c, 0, 56, 50
3, 27435, Note_on_c, 0, 49, 0
3, 27480, Note_on_c, 0, 61, 60
3, 27495, Note_on_c, 0, 56, 0
3, 27540, Note_on_c, 0, 59, 55
3, 27574, Note_on_c, 0, 61, 0
3, 27600, Note_on_c, 0, 57, 60
3, 27634, Note_on_c, 0, 59, 0
3, 27660, Note_on_c, 0, 56, 55
3, 27694, Note_on_c, 0, 57, 0
3, 27720, Note_on_c, 0, 57, 60
3, 27754, Note_on_c, 0, 56, 0
3, 27780, Note_on_c, 0, 56, 56
3, 27814, Note_on_c, 0, 57, 0
3, 27840, Note_on_c, 0, 56, 0
3, 27840, Note_on_c, 0, 54, 60
3, 27900, Note_on_c, 0, 56, 55
3, 27915, Note_on_c, 0, 54, 0
3, 27960, Note_on_c, 0, 54, 60
3, 27975, Note_on_c, 0, 56, 0
3, 28020, Note_on_c, 0, 56, 55
3, 28035, Note_on_c, 0, 54, 0
3, 28080, Note_on_c, 0, 57, 60
3, 28095, Note_on_c, 0, 56, 0
3, 28140, Note_on_c, 0, 54, 52
3, 28155, Note_on_c, 0, 57, 0
3, 28200, Note_on_c, 0, 54, 0
3, 28200, Note_on_c, 0, 59, 63
3, 28260, Note_on_c, 0, 57, 56
3, 28275, Note_on_c, 0, 59, 0
3, 28320, Note_on_c, 0, 56, 58
3, 28335, Note_on_c, 0, 57, 0
3, 28380, Note_on_c, 0, 54, 57
3, 28395, Note_on_c, 0, 56, 0
3, 28440, Note_on_c, 0, 52, 54
3, 28455, Note_on_c, 0, 54, 0
3, 28500, Note_on_c, 0, 50, 49
3, 28515, Note_on_c, 0, 52, 0
3, 28560, Note_on_c, 0, 49, 62
3, 28575, Note_on_c, 0, 50, 0
3, 28620, Note_on_c, 0, 47, 51
3, 28635, Note_on_c, 0, 49, 0
3, 28680, Note_on_c, 0, 49, 61
3, 28695, Note_on_c, 0, 47, 0
3, 28740, Note_on_c, 0, 47, 54
3, 28755, Note_on_c, 0, 49, 0
3, 28800, Note_on_c, 0, 47, 0
3, 28800, Note_on_c, 0, 45, 60
3, 28860, Note_on_c, 0, 45, 0
3, 28860, Note_on_c, 0, 49, 50
3, 28920, Note_on_c, 0, 49, 0
3, 28920, Note_on_c, 0, 57, 60
3, 28980, Note_on_c, 0, 56, 51
3, 28995, Note_on_c, 0, 57, 0
3, 29040, Note_on_c, 0, 54, 60
3, 29055, Note_on_c, 0, 56, 0
3, 29100, Note_on_c, 0, 52, 55
3, 29115, Note_on_c, 0, 54, 0
3, 29160, Note_on_c, 0, 54, 60
3, 29175, Note_on_c, 0, 52, 0
3, 29220, Note_on_c, 0, 52, 51
3, 29235, Note_on_c, 0, 54, 0
3, 29280, Note_on_c, 0, 52, 0
3, 29280, Note_on_c, 0, 50, 55
3, 29340, Note_on_c, 0, 50, 0
3, 29340, Note_on_c, 0, 54, 48
3, 29400, Note_on_c, 0, 54, 0
3, 29400, Note_on_c, 0, 57, 56
3, 29460, Note_on_c, 0, 57, 0
3, 29460, Note_on_c, 0, 56, 52
3, 29520, Note_on_c, 0, 56, 0
3, 29520, Note_on_c, 0, 54, 60
3, 29580, Note_on_c, 0, 54, 0
3, 29580, Note_on_c, 0, 53, 53
3, 29640, Note_on_c, 0, 53, 0
3, 29640, Note_on_c, 0, 54, 60
3, 29700, Note_on_c, 0, 54, 0
3, 29700, Note_on_c, 0, 50, 53
3, 29760, Note_on_c, 0, 50, 0
3, 29760, Note_on_c, 0, 49, 66
3, 29820, Note_on_c, 0, 49, 0
3, 29820, Note_on_c, 0, 54, 50
3, 29880, Note_on_c, 0, 54, 0
3, 29880, Note_on_c, 0, 57, 60
3, 29940, Note_on_c, 0, 57, 0
3, 29940, Note_on_c, 0, 56, 55
3, 30000, Note_on_c, 0, 56, 0
3, 30000, Note_on_c, 0, 54, 60
3, 30060, Note_on_c, 0, 53, 55
3, 30075, Note_on_c, 0, 54, 0
3, 30120, Note_on_c, 0, 54, 60
3, 30135, Note_on_c, 0, 53, 0
3, 30180, Note_on_c, 0, 49, 56
3, 30195, Note_on_c, 0, 54, 0
3, 30240, Note_on_c, 0, 49, 0
3, 30240, Note_on_c, 0, 50, 56
3, 30300, Note_on_c, 0, 50, 0
3, 30300, Note_on_c, 0, 54, 48
3, 30360, Note_on_c, 0, 54, 0
3, 30360, Note_on_c, 0, 57, 57
3, 30420, Note_on_c, 0, 57, 0
3, 30420, Note_on_c, 0, 56, 53
3, 30480, Note_on_c, 0, 56, 0
3, 30480, Note_on_c, 0, 54, 61
3, 30540, Note_on_c, 0, 54, 0
3, 30540, Note_on_c, 0, 53, 54
3, 30600, Note_on_c, 0, 53, 0
3, 30600, Note_on_c, 0, 54, 61
3, 30660, Note_on_c, 0, 54, 0
3, 30660, Note_on_c, 0, 50, 54
3, 30720, Note_on_c, 0, 50, 0
3, 30720, Note_on_c, 0, 49, 67
3, 30780, Note_on_c, 0, 49, 0
3, 30780, Note_on_c, 0, 54, 51
3, 30840, Note_on_c, 0, 54, 0
3, 30840, Note_on_c, 0, 57, 61
3, 30900, Note_on_c, 0, 57, 0
3, 30900, Note_on_c, 0, 56, 56
3, 30960, Note_on_c, 0, 56, 0
3, 30960, Note_on_c, 0, 54, 61
3, 31020, Note_on_c, 0, 53, 56
3, 31035, Note_on_c, 0, 54, 0
3, 31080, Note_on_c, 0, 54, 61
3, 31095, Note_on_c, 0, 53, 0
3, 31140, Note_on_c, 0, 49, 57
3, 31155, Note_on_c, 0, 54, 0
3, 31200, Note_on_c, 0, 49, 0
3, 31200, Note_on_c, 0, 50, 56
3, 31260, Note_on_c, 0, 50, 0
3, 31260, Note_on_c, 0, 54, 48
3, 31320, Note_on_c, 0, 54, 0
3, 31320, Note_on_c, 0, 57, 58
3, 31380, Note_on_c, 0, 57, 0
3, 31380, Note_on_c, 0, 56, 55
3, 31440, Note_on_c, 0, 56, 0
3, 31440, Note_on_c, 0, 54, 65
3, 31500, Note_on_c, 0, 54, 0
3, 31500, Note_on_c, 0, 53, 58
3, 31560, Note_on_c, 0, 53, 0
3, 31560, Note_on_c, 0, 54, 67
3, 31620, Note_on_c, 0, 54, 0
3, 31620, Note_on_c, 0, 50, 61
3, 31680, Note_on_c, 0, 50, 0
3, 31680, Note_on_c, 0, 49, 77
3, 31740, Note_on_c, 0, 49, 0
3, 31740, Note_on_c, 0, 54, 58
3, 31800, Note_on_c, 0, 54, 0
3, 31800, Note_on_c, 0, 57, 68
3, 31860, Note_on_c, 0, 57, 0
3, 31860, Note_on_c, 0, 56, 61
3, 31920, Note_on_c, 0, 56, 0
3, 31920, Note_on_c, 0, 54, 65
3, 31980, Note_on_c, 0, 53, 59
3, 31995, Note_on_c, 0, 54, 0
3, 32040, Note_on_c, 0, 54, 63
3, 32055, Note_on_c, 0, 53, 0
3, 32100, Note_on_c, 0, 50, 58
3, 32115, Note_on_c, 0, 54, 0
3, 32160, Note_on_c, 0, 50, 0
3, 32160, Note_on_c, 0, 49, 56
3, 32220, Note_on_c, 0, 49, 0
3, 32220, Note_on_c, 0, 54, 47
3, 32280, Note_on_c, 0, 54, 0
3, 32280, Note_on_c, 0, 57, 55
3, 32340, Note_on_c, 0, 57, 0
3, 32340, Note_on_c, 0, 56, 50
3, 32400, Note_on_c, 0, 56, 0
3, 32400, Note_on_c, 0, 54, 56
3, 32460, Note_on_c, 0, 54, 0
3, 32460, Note_on_c, 0, 53, 49
3, 32520, Note_on_c, 0, 53, 0
3, 32520, Note_on_c, 0, 54, 54
3, 32580, Note_on_c, 0, 54, 0
3, 32580, Note_on_c, 0, 50, 46
3, 32640, Note_on_c, 0, 50, 0
3, 32640, Note_on_c, 0, 49, 53
3, 32700, Note_on_c, 0, 49, 0
3, 32700, Note_on_c, 0, 54, 37
3, 32760, Note_on_c, 0, 54, 0
3, 32760, Note_on_c, 0, 57, 45
3, 32820, Note_on_c, 0, 57, 0
3, 32820, Note_on_c, 0, 56, 34
3, 32880, Note_on_c, 0, 56, 0
3, 32880, Note_on_c, 0, 54, 40
3, 32940, Note_on_c, 0, 53, 34
3, 32955, Note_on_c, 0, 54, 0
3, 33000, Note_on_c, 0, 54, 37
3, 33015, Note_on_c, 0, 53, 0
3, 33060, Note_on_c, 0, 50, 35
3, 33075, Note_on_c, 0, 54, 0
3, 33120, Note_on_c, 0, 50, 0
3, 33120, Note_on_c, 0, 54, 36
3, 33180, Note_on_c, 0, 54, 0
3, 33180, Note_on_c, 0, 50, 29
3, 33240, Note_on_c, 0, 50, 0
3, 33240, Note_on_c, 0, 49, 35
3, 33300, Note_on_c, 0, 50, 28
3, 33315, Note_on_c, 0, 49, 0
3, 33360, Note_on_c, 0, 50, 0
3, 33360, Note_on_c, 0, 52, 34
3, 33420, Note_on_c, 0, 52, 0
3, 33420, Note_on_c, 0, 50, 28
3, 33480, Note_on_c, 0, 50, 0
3, 33480, Note_on_c, 0, 49, 36
3, 33540, Note_on_c, 0, 50, 33
3, 33555, Note_on_c, 0, 49, 0
3, 33600, Note_on_c, 0, 50, 0
3, 33600, Note_on_c, 0, 54, 40
3, 33660, Note_on_c, 0, 54, 0
3, 33660, Note_on_c, 0, 50, 29
3, 33720, Note_on_c, 0, 50, 0
3, 33720, Note_on_c, 0, 49, 34
3, 33780, Note_on_c, 0, 50, 43
3, 33795, Note_on_c, 0, 49, 0
3, 33840, Note_on_c, 0, 50, 0
3, 33840, Note_on_c, 0, 43, 50
3, 33900, Note_on_c, 0, 43, 0
3, 33900, Note_on_c, 0, 50, 39
3, 33960, Note_on_c, 0, 50, 0
3, 33960, Note_on_c, 0, 49, 40
3, 34020, Note_on_c, 0, 50, 39
3, 34035, Note_on_c, 0, 49, 0
3, 34080, Note_on_c, 0, 50, 0
3, 34080, Note_on_c, 0, 42, 43
3, 34140, Note_on_c, 0, 42, 0
3, 34140, Note_on_c, 0, 50, 34
3, 34200, Note_on_c, 0, 50, 0
3, 34200, Note_on_c, 0, 49, 39
3, 34260, Note_on_c, 0, 50, 34
3, 34275, Note_on_c, 0, 49, 0
3, 34320, Note_on_c, 0, 50, 0
3, 34320, Note_on_c, 0, 40, 45
3, 34380, Note_on_c, 0, 40, 0
3, 34380, Note_on_c, 0, 50, 34
3, 34440, Note_on_c, 0, 50, 0
3, 34440, Note_on_c, 0, 49, 38
3, 34500, Note_on_c, 0, 50, 34
3, 34515, Note_on_c, 0, 49, 0
3, 34560, Note_on_c, 0, 50, 0
3, 34560, Note_on_c, 0, 38, 47
3, 34620, Note_on_c, 0, 38, 0
3, 34620, Note_on_c, 0, 50, 31
3, 34680, Note_on_c, 0, 50, 0
3, 34680, Note_on_c, 0, 49, 34
3, 34740, Note_on_c, 0, 50, 30
3, 34755, Note_on_c, 0, 49, 0
3, 34800, Note_on_c, 0, 49, 39
3, 34815, Note_on_c, 0, 50, 0
3, 34860, Note_on_c, 0, 50, 29
3, 34875, Note_on_c, 0, 49, 0
3, 34920, Note_on_c, 0, 49, 34
3, 34935, Note_on_c, 0, 50, 0
3, 34980, Note_on_c, 0, 50, 31
3, 34995, Note_on_c, 0, 49, 0
3, 35040, Note_on_c, 0, 50, 0
3, 35040, Note_on_c, 0, 38, 48
3, 35100, Note_on_c, 0, 48, 37
3, 35115, Note_on_c, 0, 38, 0
3, 35160, Note_on_c, 0, 47, 40
3, 35175, Note_on_c, 0, 48, 0
3, 35220, Note_on_c, 0, 48, 40
3, 35235, Note_on_c, 0, 47, 0
3, 35280, Note_on_c, 0, 40, 50
3, 35295, Note_on_c, 0, 48, 0
3, 35340, Note_on_c, 0, 48, 36
3, 35355, Note_on_c, 0, 40, 0
3, 35400, Note_on_c, 0, 47, 46
3, 35415, Note_on_c, 0, 48, 0
3, 35460, Note_on_c, 0, 48, 49
3, 35475, Note_on_c, 0, 47, 0
3, 35520, Note_on_c, 0, 48, 0
3, 35520, Note_on_c, 0, 42, 55
3, 35580, Note_on_c, 0, 48, 46
3, 35595, Note_on_c, 0, 42, 0
3, 35640, Note_on_c, 0, 47, 47
3, 35655, Note_on_c, 0, 48, 0
3, 35700, Note_on_c, 0, 48, 53
3, 35715, Note_on_c, 0, 47, 0
3, 35760, Note_on_c, 0, 48, 0
3, 35760, Note_on_c, 0, 43, 62
3, 35820, Note_on_c, 0, 47, 50
3, 35835, Note_on_c, 0, 43, 0
3, 35880, Note_on_c, 0, 45, 55
3, 35895, Note_on_c, 0, 47, 0
3, 35940, Note_on_c, 0, 47, 50
3, 35955, Note_on_c, 0, 45, 0
3, 36000, Note_on_c, 0, 47, 0
3, 36000, Note_on_c, 0, 43, 60
3, 36060, Note_on_c, 0, 45, 51
3, 36075, Note_on_c, 0, 43, 0
3, 36120, Note_on_c, 0, 43, 57
3, 36135, Note_on_c, 0, 45, 0
3, 36180, Note_on_c, 0, 45, 53
3, 36195, Note_on_c, 0, 43, 0
3, 36240, Note_on_c, 0, 45, 0
3, 36240, Note_on_c, 0, 42, 62
3, 36300, Note_on_c, 0, 43, 51
3, 36315, Note_on_c, 0, 42, 0
3, 36360, Note_on_c, 0, 40, 54
3, 36375, Note_on_c, 0, 43, 0
3, 36420, Note_on_c, 0, 42, 50
3, 36435, Note_on_c, 0, 40, 0
3, 36480, Note_on_c, 0, 42, 0
3, 36480, Note_on_c, 0, 39, 64
3, 36540, Note_on_c, 0, 39, 0
3, 36540, Note_on_c, 0, 42, 53
3, 36600, Note_on_c, 0, 42, 0
3, 36600, Note_on_c, 0, 47, 55
3, 36660, Note_on_c, 0, 47, 0
3, 36660, Note_on_c, 0, 49, 54
3, 36720, Note_on_c, 0, 49, 0
3, 36720, Note_on_c, 0, 51, 61
3, 36780, Note_on_c, 0, 52, 47
3, 36792, Note_on_c, 0, 51, 0
3, 36840, Note_on_c, 0, 54, 57
3, 36852, Note_on_c, 0, 52, 0
3, 36900, Note_on_c, 0, 52, 47
3, 36912, Note_on_c, 0, 54, 0
3, 36960, Note_on_c, 0, 51, 61
3, 36972, Note_on_c, 0, 52, 0
3, 37020, Note_on_c, 0, 52, 50
3, 37032, Note_on_c, 0, 51, 0
3, 37080, Note_on_c, 0, 51, 54
3, 37092, Note_on_c, 0, 52, 0
3, 37140, Note_on_c, 0, 49, 51
3, 37152, Note_on_c, 0, 51, 0
3, 37200, Note_on_c, 0, 51, 61
3, 37212, Note_on_c, 0, 49, 0
3, 37260, Note_on_c, 0, 47, 52
3, 37272, Note_on_c, 0, 51, 0
3, 37320, Note_on_c, 0, 49, 54
3, 37332, Note_on_c, 0, 47, 0
3, 37380, Note_on_c, 0, 51, 53
3, 37392, Note_on_c, 0, 49, 0
3, 37440, Note_on_c, 0, 51, 0
3, 37440, Note_on_c, 0, 52, 62
3, 37500, Note_on_c, 0, 54, 48
3, 37512, Note_on_c, 0, 52, 0
3, 37560, Note_on_c, 0, 52, 54
3, 37572, Note_on_c, 0, 54, 0
3, 37620, Note_on_c, 0, 51, 49
3, 37632, Note_on_c, 0, 52, 0
3, 37680, Note_on_c, 0, 51, 0
3, 37680, Note_on_c, 0, 52, 54
3, 37740, Note_on_c, 0, 50, 50
3, 37752, Note_on_c, 0, 52, 0
3, 37800, Note_on_c, 0, 49, 54
3, 37812, Note_on_c, 0, 50, 0
3, 37860, Note_on_c, 0, 47, 52
3, 37872, Note_on_c, 0, 49, 0
3, 37920, Note_on_c, 0, 47, 0
3, 37920, Note_on_c, 0, 49, 61
3, 37980, Note_on_c, 0, 50, 50
3, 37992, Note_on_c, 0, 49, 0
3, 38040, Note_on_c, 0, 52, 54
3, 38052, Note_on_c, 0, 50, 0
3, 38100, Note_on_c, 0, 50, 51
3, 38112, Note_on_c, 0, 52, 0
3, 38160, Note_on_c, 0, 49, 61
3, 38172, Note_on_c, 0, 50, 0
3, 38220, Note_on_c, 0, 45, 52
3, 38232, Note_on_c, 0, 49, 0
3, 38280, Note_on_c, 0, 47, 54
3, 38292, Note_on_c, 0, 45, 0
3, 38340, Note_on_c, 0, 49, 53
3, 38352, Note_on_c, 0, 47, 0
3, 38400, Note_on_c, 0, 49, 0
3, 38400, Note_on_c, 0, 52, 62
3, 38460, Note_on_c, 0, 50, 48
3, 38472, Note_on_c, 0, 52, 0
3, 38520, Note_on_c, 0, 49, 54
3, 38532, Note_on_c, 0, 50, 0
3, 38580, Note_on_c, 0, 50, 49
3, 38592, Note_on_c, 0, 49, 0
3, 38640, Note_on_c, 0, 50, 0
3, 38640, Note_on_c, 0, 49, 54
3, 38700, Note_on_c, 0, 50, 50
3, 38712, Note_on_c, 0, 49, 0
3, 38760, Note_on_c, 0, 48, 54
3, 38772, Note_on_c, 0, 50, 0
3, 38820, Note_on_c, 0, 50, 52
3, 38832, Note_on_c, 0, 48, 0
3, 38880, Note_on_c, 0, 50, 0
3, 38880, Note_on_c, 0, 47, 47
3, 38940, Note_on_c, 0, 47, 0
3, 38940, Note_on_c, 0, 50, 35
3, 39000, Note_on_c, 0, 50, 0
3, 39000, Note_on_c, 0, 46, 40
3, 39060, Note_on_c, 0, 50, 36
3, 39075, Note_on_c, 0, 46, 0
3, 39120, Note_on_c, 0, 50, 0
3, 39120, Note_on_c, 0, 45, 47
3, 39180, Note_on_c, 0, 45, 0
3, 39180, Note_on_c, 0, 50, 35
3, 39240, Note_on_c, 0, 50, 0
3, 39240, Note_on_c, 0, 38, 40
3, 39300, Note_on_c, 0, 50, 40
3, 39315, Note_on_c, 0, 38, 0
3, 39360, Note_on_c, 0, 50, 0
3, 39360, Note_on_c, 0, 44, 48
3, 39420, Note_on_c, 0, 44, 0
3, 39420, Note_on_c, 0, 50, 37
3, 39480, Note_on_c, 0, 50, 0
3, 39480, Note_on_c, 0, 43, 40
3, 39540, Note_on_c, 0, 50, 37
3, 39555, Note_on_c, 0, 43, 0
3, 39600, Note_on_c, 0, 50, 0
3, 39600, Note_on_c, 0, 42, 47
3, 39660, Note_on_c, 0, 42, 0
3, 39660, Note_on_c, 0, 50, 38
3, 39720, Note_on_c, 0, 50, 0
3, 39720, Note_on_c, 0, 38, 40
3, 39780, Note_on_c, 0, 50, 37
3, 39795, Note_on_c, 0, 38, 0
3, 39840, Note_on_c, 0, 50, 0
3, 39840, Note_on_c, 0, 47, 46
3, 39900, Note_on_c, 0, 47, 0
3, 39900, Note_on_c, 0, 50, 37
3, 39960, Note_on_c, 0, 50, 0
3, 39960, Note_on_c, 0, 46, 40
3, 40020, Note_on_c, 0, 50, 37
3, 40035, Note_on_c, 0, 46, 0
3, 40080, Note_on_c, 0, 50, 0
3, 40080, Note_on_c, 0, 45, 47
3, 40140, Note_on_c, 0, 45, 0
3, 40140, Note_on_c, 0, 50, 39
3, 40200, Note_on_c, 0, 50, 0
3, 40200, Note_on_c, 0, 38, 40
3, 40260, Note_on_c, 0, 50, 39
3, 40275, Note_on_c, 0, 38, 0
3, 40320, Note_on_c, 0, 50, 0
3, 40320, Note_on_c, 0, 44, 49
3, 40380, Note_on_c, 0, 44, 0
3, 40380, Note_on_c, 0, 47, 38
3, 40440, Note_on_c, 0, 47, 0
3, 40440, Note_on_c, 0, 50, 40
3, 40500, Note_on_c, 0, 49, 38
3, 40515, Note_on_c, 0, 50, 0
3, 40560, Note_on_c, 0, 47, 47
3, 40575, Note_on_c, 0, 49, 0
3, 40620, Note_on_c, 0, 47, 0
3, 40620, Note_on_c, 0, 56, 37
3, 40680, Note_on_c, 0, 56, 0
3, 40680, Note_on_c, 0, 50, 40
3, 40740, Note_on_c, 0, 50, 0
3, 40740, Note_on_c, 0, 47, 35
3, 40800, Note_on_c, 0, 47, 0
3, 40800, Note_on_c, 0, 49, 48
3, 40860, Note_on_c, 0, 49, 0
3, 40860, Note_on_c, 0, 52, 40
3, 40920, Note_on_c, 0, 52, 0
3, 40920, Note_on_c, 0, 55, 41
3, 40980, Note_on_c, 0, 55, 0
3, 40980, Note_on_c, 0, 57, 45
3, 41040, Note_on_c, 0, 57, 0
3, 41040, Note_on_c, 0, 54, 54
3, 41100, Note_on_c, 0, 54, 0
3, 41100, Note_on_c, 0, 57, 45
3, 41160, Note_on_c, 0, 57, 0
3, 41160, Note_on_c, 0, 52, 52
3, 41220, Note_on_c, 0, 52, 0
3, 41220, Note_on_c, 0, 57, 55
3, 41280, Note_on_c, 0, 57, 0
3, 41280, Note_on_c, 0, 49, 59
3, 41340, Note_on_c, 0, 49, 0
3, 41340, Note_on_c, 0, 57, 45
3, 41400, Note_on_c, 0, 57, 0
3, 41400, Note_on_c, 0, 50, 52
3, 41460, Note_on_c, 0, 50, 0
3, 41460, Note_on_c, 0, 59, 46
3, 41520, Note_on_c, 0, 59, 0
3, 41520, Note_on_c, 0, 52, 53
3, 41580, Note_on_c, 0, 52, 0
3, 41580, Note_on_c, 0, 61, 40
3, 41640, Note_on_c, 0, 61, 0
3, 41640, Note_on_c, 0, 54, 46
3, 41700, Note_on_c, 0, 54, 0
3, 41700, Note_on_c, 0, 62, 40
3, 41760, Note_on_c, 0, 62, 0
3, 41760, Note_on_c, 0, 55, 47
3, 41820, Note_on_c, 0, 55, 0
3, 41820, Note_on_c, 0, 59, 40
3, 41880, Note_on_c, 0, 59, 0
3, 41880, Note_on_c, 0, 64, 40
3, 41940, Note_on_c, 0, 64, 0
3, 41940, Note_on_c, 0, 59, 46
3, 42000, Note_on_c, 0, 55, 51
3, 42015, Note_on_c, 0, 59, 0
3, 42060, Note_on_c, 0, 55, 0
3, 42060, Note_on_c, 0, 57, 40
3, 42120, Note_on_c, 0, 57, 0
3, 42120, Note_on_c, 0, 55, 43
3, 42180, Note_on_c, 0, 55, 0
3, 42180, Note_on_c, 0, 57, 40
3, 42240, Note_on_c, 0, 57, 0
3, 42240, Note_on_c, 0, 54, 53
3, 42300, Note_on_c, 0, 54, 0
3, 42300, Note_on_c, 0, 57, 41
3, 42360, Note_on_c, 0, 57, 0
3, 42360, Note_on_c, 0, 61, 44
3, 42420, Note_on_c, 0, 62, 41
3, 42435, Note_on_c, 0, 61, 0
3, 42480, Note_on_c, 0, 66, 51
3, 42495, Note_on_c, 0, 62, 0
3, 42540, Note_on_c, 0, 66, 0
3, 42540, Note_on_c, 0, 62, 40
3, 42600, Note_on_c, 0, 62, 0
3, 42600, Note_on_c, 0, 59, 44
3, 42660, Note_on_c, 0, 59, 0
3, 42660, Note_on_c, 0, 57, 38
3, 42720, Note_on_c, 0, 57, 0
3, 42720, Note_on_c, 0, 55, 52
3, 42780, Note_on_c, 0, 55, 0
3, 42780, Note_on_c, 0, 57, 44
3, 42840, Note_on_c, 0, 57, 0
3, 42840, Note_on_c, 0, 55, 45
3, 42900, Note_on_c, 0, 55, 0
3, 42900, Note_on_c, 0, 57, 49
3, 42960, Note_on_c, 0, 57, 0
3, 42960, Note_on_c, 0, 54, 59
3, 43020, Note_on_c, 0, 54, 0
3, 43020, Note_on_c, 0, 57, 49
3, 43080, Note_on_c, 0, 57, 0
3, 43080, Note_on_c, 0, 52, 57
3, 43140, Note_on_c, 0, 52, 0
3, 43140, Note_on_c, 0, 57, 60
3, 43200, Note_on_c, 0, 57, 0
3, 43200, Note_on_c, 0, 49, 64
3, 43260, Note_on_c, 0, 49, 0
3, 43260, Note_on_c, 0, 57, 49
3, 43320, Note_on_c, 0, 57, 0
3, 43320, Note_on_c, 0, 50, 57
3, 43380, Note_on_c, 0, 50, 0
3, 43380, Note_on_c, 0, 59, 50
3, 43440, Note_on_c, 0, 59, 0
3, 43440, Note_on_c, 0, 52, 58
3, 43500, Note_on_c, 0, 52, 0
3, 43500, Note_on_c, 0, 61, 44
3, 43560, Note_on_c, 0, 61, 0
3, 43560, Note_on_c, 0, 54, 50
3, 43620, Note_on_c, 0, 54, 0
3, 43620, Note_on_c, 0, 62, 44
3, 43680, Note_on_c, 0, 62, 0
3, 43680, Note_on_c, 0, 55, 51
3, 43740, Note_on_c, 0, 55, 0
3, 43740, Note_on_c, 0, 59, 44
3, 43800, Note_on_c, 0, 59, 0
3, 43800, Note_on_c, 0, 57, 44
3, 43860, Note_on_c, 0, 57, 0
3, 43860, Note_on_c, 0, 61, 50
3, 43920, Note_on_c, 0, 59, 56
3, 43935, Note_on_c, 0, 61, 0
3, 43980, Note_on_c, 0, 59, 0
3, 43980, Note_on_c, 0, 62, 44
3, 44040, Note_on_c, 0, 62, 0
3, 44040, Note_on_c, 0, 61, 47
3, 44100, Note_on_c, 0, 61, 0
3, 44100, Note_on_c, 0, 64, 44
3, 44160, Note_on_c, 0, 64, 0
3, 44160, Note_on_c, 0, 66, 56
3, 44220, Note_on_c, 0, 66, 0
3, 44220, Note_on_c, 0, 62, 42
3, 44280, Note_on_c, 0, 62, 0
3, 44280, Note_on_c, 0, 61, 47
3, 44340, Note_on_c, 0, 61, 0
3, 44340, Note_on_c, 0, 62, 42
3, 44400, Note_on_c, 0, 62, 0
3, 44400, Note_on_c, 0, 59, 62
3, 44460, Note_on_c, 0, 59, 0
3, 44460, Note_on_c, 0, 62, 42
3, 44520, Note_on_c, 0, 62, 0
3, 44520, Note_on_c, 0, 61, 49
3, 44580, Note_on_c, 0, 61, 0
3, 44580, Note_on_c, 0, 62, 42
3, 44640, Note_on_c, 0, 62, 0
3, 44640, Note_on_c, 0, 61, 56
3, 44640, Note_on_c, 0, 57, 56
3, 44700, Note_on_c, 0, 57, 0
3, 44700, Note_on_c, 0, 61, 0
3, 44700, Note_on_c, 0, 62, 45
3, 44760, Note_on_c, 0, 62, 0
3, 44760, Note_on_c, 0, 61, 49
3, 44820, Note_on_c, 0, 61, 0
3, 44820, Note_on_c, 0, 62, 49
3, 44880, Note_on_c, 0, 62, 0
3, 44880, Note_on_c, 0, 55, 56
3, 44880, Note_on_c, 0, 59, 56
3, 44940, Note_on_c, 0, 59, 0
3, 44940, Note_on_c, 0, 55, 0
3, 44940, Note_on_c, 0, 62, 46
3, 45000, Note_on_c, 0, 62, 0
3, 45000, Note_on_c, 0, 61, 49
3, 45060, Note_on_c, 0, 61, 0
3, 45060, Note_on_c, 0, 62, 43
3, 45120, Note_on_c, 0, 62, 0
3, 45120, Note_on_c, 0, 54, 56
3, 45120, Note_on_c, 0, 57, 56
3, 45180, Note_on_c, 0, 57, 0
3, 45180, Note_on_c, 0, 54, 0
3, 45180, Note_on_c, 0, 62, 43
3, 45240, Note_on_c, 0, 62, 0
3, 45240, Note_on_c, 0, 61, 47
3, 45300, Note_on_c, 0, 61, 0
3, 45300, Note_on_c, 0, 62, 42
3, 45360, Note_on_c, 0, 62, 0
3, 45360, Note_on_c, 0, 55, 56
3, 45420, Note_on_c, 0, 55, 0
3, 45420, Note_on_c, 0, 62, 41
3, 45480, Note_on_c, 0, 62, 0
3, 45480, Note_on_c, 0, 61, 48
3, 45540, Note_on_c, 0, 61, 0
3, 45540, Note_on_c, 0, 62, 43
3, 45600, Note_on_c, 0, 62, 0
3, 45600, Note_on_c, 0, 57, 56
3, 45660, Note_on_c, 0, 57, 0
3, 45660, Note_on_c, 0, 62, 42
3, 45720, Note_on_c, 0, 62, 0
3, 45720, Note_on_c, 0, 61, 47
3, 45780, Note_on_c, 0, 61, 0
3, 45780, Note_on_c, 0, 62, 42
3, 45840, Note_on_c, 0, 62, 0
3, 45840, Note_on_c, 0, 45, 56
3, 45840, Note_on_c, 0, 55, 56
3, 45900, Note_on_c, 0, 55, 0
3, 45900, Note_on_c, 0, 62, 41
3, 45960, Note_on_c, 0, 62, 0
3, 45960, Note_on_c, 0, 45, 0
3, 45960, Note_on_c, 0, 61, 47
3, 46020, Note_on_c, 0, 61, 0
3, 46020, Note_on_c, 0, 62, 47
3, 46080, Note_on_c, 0, 62, 0
3, 46080, Note_on_c, 0, 38, 39
3, 46080, Note_on_c, 0, 54, 39
3, 46140, Note_on_c, 0, 54, 0
3, 46140, Note_on_c, 0, 55, 45
3, 46200, Note_on_c, 0, 55, 0
3, 46200, Note_on_c, 0, 38, 0
3, 46200, Note_on_c, 0, 57, 53
3, 46260, Note_on_c, 0, 57, 0
3, 46260, Note_on_c, 0, 59, 46
3, 46320, Note_on_c, 0, 59, 0
3, 46320, Note_on_c, 0, 60, 38
3, 46380, Note_on_c, 0, 60, 0
3, 46380, Note_on_c, 0, 59, 36
3, 46440, Note_on_c, 0, 59, 0
3, 46440, Note_on_c, 0, 60, 40
3, 46500, Note_on_c, 0, 60, 0
3, 46500, Note_on_c, 0, 57, 37
3, 46560, Note_on_c, 0, 57, 0
3, 46560, Note_on_c, 0, 59, 43
3, 46620, Note_on_c, 0, 59, 0
3, 46620, Note_on_c, 0, 62, 33
3, 46680, Note_on_c, 0, 62, 0
3, 46680, Note_on_c, 0, 61, 38
3, 46740, Note_on_c, 0, 62, 34
3, 46755, Note_on_c, 0, 61, 0
3, 46800, Note_on_c, 0, 62, 0
3, 46800, Note_on_c, 0, 55, 46
3, 46860, Note_on_c, 0, 55, 0
3, 46860, Note_on_c, 0, 62, 35
3, 46920, Note_on_c, 0, 62, 0
3, 46920, Note_on_c, 0, 61, 38
3, 46980, Note_on_c, 0, 62, 34
3, 46995, Note_on_c, 0, 61, 0
3, 47040, Note_on_c, 0, 62, 0
3, 47040, Note_on_c, 0, 54, 47
3, 47040, Note_on_c, 0, 50, 47
3, 47100, Note_on_c, 0, 54, 0
3, 47100, Note_on_c, 0, 57, 34
3, 47160, Note_on_c, 0, 57, 0
3, 47160, Note_on_c, 0, 50, 0
3, 47160, Note_on_c, 0, 62, 38
3, 47220, Note_on_c, 0, 62, 0
3, 47220, Note_on_c, 0, 61, 34
3, 47280, Note_on_c, 0, 61, 0
3, 47280, Note_on_c, 0, 38, 58
3, 47280, Note_on_c, 0, 60, 43
3, 47340, Note_on_c, 0, 60, 0
3, 47340, Note_on_c, 0, 59, 34
3, 47400, Note_on_c, 0, 59, 0
3, 47400, Note_on_c, 0, 38, 0
3, 47400, Note_on_c, 0, 60, 38
3, 47460, Note_on_c, 0, 60, 0
3, 47460, Note_on_c, 0, 57, 34
3, 47520, Note_on_c, 0, 57, 0
3, 47520, Note_on_c, 0, 50, 39
3, 47520, Note_on_c, 0, 59, 43
3, 47580, Note_on_c, 0, 59, 0
3, 47580, Note_on_c, 0, 62, 33
3, 47640, Note_on_c, 0, 62, 0
3, 47640, Note_on_c, 0, 50, 0
3, 47640, Note_on_c, 0, 61, 38
3, 47700, Note_on_c, 0, 62, 34
3, 47715, Note_on_c, 0, 61, 0
3, 47760, Note_on_c, 0, 62, 0
3, 47760, Note_on_c, 0, 55, 46
3, 47820, Note_on_c, 0, 55, 0
3, 47820, Note_on_c, 0, 62, 35
3, 47880, Note_on_c, 0, 62, 0
3, 47880, Note_on_c, 0, 61, 38
3, 47940, Note_on_c, 0, 62, 34
3, 47955, Note_on_c, 0, 61, 0
3, 48000, Note_on_c, 0, 62, 0
3, 48000, Note_on_c, 0, 54, 47
3, 48000, Note_on_c, 0, 50, 47
3, 48060, Note_on_c, 0, 54, 0
3, 48060, Note_on_c, 0, 57, 34
3, 48120, Note_on_c, 0, 57, 0
3, 48120, Note_on_c, 0, 50, 0
3, 48120, Note_on_c, 0, 62, 38
3, 48180, Note_on_c, 0, 62, 0
3, 48180, Note_on_c, 0, 61, 34
3, 48240, Note_on_c, 0, 61, 0
3, 48240, Note_on_c, 0, 38, 57
3, 48240, Note_on_c, 0, 60, 43
3, 48300, Note_on_c, 0, 60, 0
3, 48300, Note_on_c, 0, 59, 34
3, 48360, Note_on_c, 0, 59, 0
3, 48360, Note_on_c, 0, 38, 0
3, 48360, Note_on_c, 0, 60, 38
3, 48420, Note_on_c, 0, 60, 0
3, 48420, Note_on_c, 0, 57, 34
3, 48480, Note_on_c, 0, 57, 0
3, 48480, Note_on_c, 0, 50, 39
3, 48480, Note_on_c, 0, 59, 43
3, 48540, Note_on_c, 0, 59, 0
3, 48540, Note_on_c, 0, 62, 33
3, 48600, Note_on_c, 0, 62, 0
3, 48600, Note_on_c, 0, 50, 0
3, 48600, Note_on_c, 0, 61, 38
3, 48660, Note_on_c, 0, 62, 34
3, 48675, Note_on_c, 0, 61, 0
3, 48720, Note_on_c, 0, 62, 0
3, 48720, Note_on_c, 0, 55, 46
3, 48780, Note_on_c, 0, 55, 0
3, 48780, Note_on_c, 0, 62, 35
3, 48840, Note_on_c, 0, 62, 0
3, 48840, Note_on_c, 0, 61, 38
3, 48900, Note_on_c, 0, 62, 34
3, 48915, Note_on_c, 0, 61, 0
3, 48960, Note_on_c, 0, 62, 0
3, 48960, Note_on_c, 0, 54, 47
3, 49020, Note_on_c, 0, 54, 0
3, 49020, Note_on_c, 0, 57, 34
3, 49080, Note_on_c, 0, 57, 0
3, 49080, Note_on_c, 0, 54, 38
3, 49140, Note_on_c, 0, 54, 0
3, 49140, Note_on_c, 0, 55, 34
3, 49200, Note_on_c, 0, 55, 0
3, 49200, Note_on_c, 0, 50, 47
3, 49200, Note_on_c, 0, 57, 43
3, 49260, Note_on_c, 0, 57, 0
3, 49260, Note_on_c, 0, 60, 34
3, 49320, Note_on_c, 0, 60, 0
3, 49320, Note_on_c, 0, 50, 0
3, 49320, Note_on_c, 0, 62, 38
3, 49380, Note_on_c, 0, 62, 0
3, 49380, Note_on_c, 0, 60, 34
3, 49440, Note_on_c, 0, 60, 0
3, 49440, Note_on_c, 0, 43, 47
3, 49440, Note_on_c, 0, 58, 43
3, 49500, Note_on_c, 0, 58, 0
3, 49500, Note_on_c, 0, 62, 43
3, 49560, Note_on_c, 0, 62, 0
3, 49560, Note_on_c, 0, 43, 0
3, 49560, Note_on_c, 0, 58, 43
3, 49620, Note_on_c, 0, 58, 0
3, 49620, Note_on_c, 0, 62, 43
3, 49680, Note_on_c, 0, 62, 0
3, 49680, Note_on_c, 0, 45, 47
3, 49680, Note_on_c, 0, 61, 43
3, 49740, Note_on_c, 0, 58, 43
3, 49755, Note_on_c, 0, 61, 0
3, 49800, Note_on_c, 0, 45, 0
3, 49800, Note_on_c, 0, 57, 43
3, 49815, Note_on_c, 0, 58, 0
3, 49860, Note_on_c, 0, 55, 43
3, 49875, Note_on_c, 0, 57, 0
3, 49920, Note_on_c, 0, 55, 0
3, 49920, Note_on_c, 0, 38, 39
3, 49920, Note_on_c, 0, 54, 39
3, 49980, Note_on_c, 0, 55, 45
3, 49995, Note_on_c, 0, 54, 0
3, 50040, Note_on_c, 0, 38, 0
3, 50040, Note_on_c, 0, 57, 53
3, 50055, Note_on_c, 0, 55, 0
3, 50100, Note_on_c, 0, 59, 46
3, 50115, Note_on_c, 0, 57, 0
3, 50160, Note_on_c, 0, 59, 0
3, 50160, Note_on_c, 0, 60, 38
3, 50220, Note_on_c, 0, 60, 0
3, 50220, Note_on_c, 0, 59, 36
3, 50280, Note_on_c, 0, 59, 0
3, 50280, Note_on_c, 0, 60, 40
3, 50340, Note_on_c, 0, 60, 0
3, 50340, Note_on_c, 0, 57, 37
3, 50400, Note_on_c, 0, 57, 0
3, 50400, Note_on_c, 0, 50, 39
3, 50400, Note_on_c, 0, 59, 43
3, 50460, Note_on_c, 0, 59, 0
3, 50460, Note_on_c, 0, 62, 33
3, 50520, Note_on_c, 0, 62, 0
3, 50520, Note_on_c, 0, 50, 0
3, 50520, Note_on_c, 0, 61, 38
3, 50580, Note_on_c, 0, 62, 34
3, 50595, Note_on_c, 0, 61, 0
3, 50640, Note_on_c, 0, 62, 0
3, 50640, Note_on_c, 0, 55, 46
3, 50700, Note_on_c, 0, 55, 0
3, 50700, Note_on_c, 0, 62, 35
3, 50760, Note_on_c, 0, 62, 0
3, 50760, Note_on_c, 0, 61, 38
3, 50820, Note_on_c, 0, 62, 34
3, 50835, Note_on_c, 0, 61, 0
3, 50880, Note_on_c, 0, 62, 0
3, 50880, Note_on_c, 0, 54, 47
3, 50940, Note_on_c, 0, 54, 0
3, 50940, Note_on_c, 0, 57, 34
3, 51000, Note_on_c, 0, 57, 0
3, 51000, Note_on_c, 0, 54, 38
3, 51060, Note_on_c, 0, 54, 0
3, 51060, Note_on_c, 0, 55, 34
3, 51120, Note_on_c, 0, 55, 0
3, 51120, Note_on_c, 0, 50, 47
3, 51120, Note_on_c, 0, 57, 43
3, 51180, Note_on_c, 0, 57, 0
3, 51180, Note_on_c, 0, 60, 34
3, 51240, Note_on_c, 0, 60, 0
3, 51240, Note_on_c, 0, 50, 0
3, 51240, Note_on_c, 0, 62, 38
3, 51300, Note_on_c, 0, 62, 0
3, 51300, Note_on_c, 0, 60, 34
3, 51360, Note_on_c, 0, 60, 0
3, 51360, Note_on_c, 0, 55, 47
3, 51360, Note_on_c, 0, 58, 43
3, 51420, Note_on_c, 0, 58, 0
3, 51420, Note_on_c, 0, 62, 43
3, 51480, Note_on_c, 0, 62, 0
3, 51480, Note_on_c, 0, 55, 0
3, 51480, Note_on_c, 0, 58, 43
3, 51540, Note_on_c, 0, 58, 0
3, 51540, Note_on_c, 0, 62, 43
3, 51600, Note_on_c, 0, 62, 0
3, 51600, Note_on_c, 0, 57, 47
3, 51600, Note_on_c, 0, 61, 43
3, 51660, Note_on_c, 0, 58, 43
3, 51675, Note_on_c, 0, 61, 0
3, 51720, Note_on_c, 0, 57, 0
3, 51720, Note_on_c, 0, 57, 43
3, 51735, Note_on_c, 0, 58, 0
3, 51780, Note_on_c, 0, 55, 43
3, 51795, Note_on_c, 0, 57, 0
3, 51840, Note_on_c, 0, 55, 0
3, 51840, Note_on_c, 0, 50, 30
3, 51840, Note_on_c, 0, 54, 39
3, 51900, Note_on_c, 0, 57, 45
3, 51915, Note_on_c, 0, 54, 0
3, 51960, Note_on_c, 0, 54, 53
3, 51975, Note_on_c, 0, 57, 0
3, 52020, Note_on_c, 0, 55, 46
3, 52035, Note_on_c, 0, 54, 0
3, 52080, Note_on_c, 0, 55, 0
3, 52080, Note_on_c, 0, 57, 38
3, 52140, Note_on_c, 0, 57, 0
3, 52140, Note_on_c, 0, 62, 36
3, 52200, Note_on_c, 0, 62, 0
3, 52200, Note_on_c, 0, 66, 40
3, 52260, Note_on_c, 0, 66, 0
3, 52260, Note_on_c, 0, 64, 37
3, 52320, Note_on_c, 0, 64, 0
3, 52560, Note_on_c, 0, 50, 0
3, 53760, Note_on_c, 0, 74, 38
3, 53760, Note_on_c, 0, 78, 38
3, 53880, Note_on_c, 0, 78, 0
3, 53880, Note_on_c, 0, 74, 0
3, 53880, End_track
4, 0, Start_track
4, 0, Title_t, "Pedale"
4, 0, Program_c, 0, 0
4, 508, Control_c, 0, 64, 127
4, 618, Control_c, 0, 64, 0
4, 756, Control_c, 0, 64, 127
4, 837, Control_c, 0, 64, 0
4, 996, Control_c, 0, 64, 127
4, 1098, Control_c, 0, 64, 0
4, 1250, Control_c, 0, 64, 127
4, 1327, Control_c, 0, 64, 0
4, 1472, Control_c, 0, 64, 127
4, 1560, Control_c, 0, 64, 0
4, 1719, Control_c, 0, 64, 127
4, 1804, Control_c, 0, 64, 0
4, 1957, Control_c, 0, 64, 127
4, 2059, Control_c, 0, 64, 0
4, 3872, Control_c, 0, 64, 127
4, 4089, Control_c, 0, 64, 0
4, 5057, Control_c, 0, 64, 127
4, 5163, Control_c, 0, 64, 0
4, 5772, Control_c, 0, 64, 127
4, 5890, Control_c, 0, 64, 0
4, 6035, Control_c, 0, 64, 127
4, 6129, Control_c, 0, 64, 0
4, 6283, Control_c, 0, 64, 127
4, 6367, Control_c, 0, 64, 0
4, 6509, Control_c, 0, 64, 127
4, 6610, Control_c, 0, 64, 0
4, 6740, Control_c, 0, 64, 127
4, 6843, Control_c, 0, 64, 0
4, 6980, Control_c, 0, 64, 127
4, 7086, Control_c, 0, 64, 0
4, 7235, Control_c, 0, 64, 127
4, 7332, Control_c, 0, 64, 0
4, 7472, Control_c, 0, 64, 127
4, 7680, Control_c, 0, 64, 0
4, 7715, Control_c, 0, 64, 127
4, 7809, Control_c, 0, 64, 0
4, 7837, Control_c, 0, 64, 127
4, 7926, Control_c, 0, 64, 0
4, 7957, Control_c, 0, 64, 127
4, 8052, Control_c, 0, 64, 0
4, 8077, Control_c, 0, 64, 127
4, 8166, Control_c, 0, 64, 0
4, 8195, Control_c, 0, 64, 127
4, 8287, Control_c, 0, 64, 0
4, 8315, Control_c, 0, 64, 127
4, 8409, Control_c, 0, 64, 0
4, 8437, Control_c, 0, 64, 127
4, 8523, Control_c, 0, 64, 0
4, 8552, Control_c, 0, 64, 127
4, 8651, Control_c, 0, 64, 0
4, 8686, Control_c, 0, 64, 127
4, 8769, Control_c, 0, 64, 0
4, 11068, Control_c, 0, 64, 127
4, 11178, Control_c, 0, 64, 0
4, 11316, Control_c, 0, 64, 127
4, 11397, Control_c, 0, 64, 0
4, 11556, Control_c, 0, 64, 127
4, 11658, Control_c, 0, 64, 0
4, 11810, Control_c, 0, 64, 127
4, 11887, Control_c, 0, 64, 0
4, 12032, Control_c, 0, 64, 127
4, 12120, Control_c, 0, 64, 0
4, 12279, Control_c, 0, 64, 127
4, 12364, Control_c, 0, 64, 0
4, 12517, Control_c, 0, 64, 127
4, 12619, Control_c, 0, 64, 0
4, 14432, Control_c, 0, 64, 127
4, 14649, Control_c, 0, 64, 0
4, 15617, Control_c, 0, 64, 127
4, 15723, Control_c, 0, 64, 0
4, 16332, Control_c, 0, 64, 127
4, 16450, Control_c, 0, 64, 0
4, 16595, Control_c, 0, 64, 127
4, 16689, Control_c, 0, 64, 0
4, 16843, Control_c, 0, 64, 127
4, 16927, Control_c, 0, 64, 0
4, 17069, Control_c, 0, 64, 127
4, 17170, Control_c, 0, 64, 0
4, 17300, Control_c, 0, 64, 127
4, 17403, Control_c, 0, 64, 0
4, 17540, Control_c, 0, 64, 127
4, 17646, Control_c, 0, 64, 0
4, 17795, Control_c, 0, 64, 127
4, 17892, Control_c, 0, 64, 0
4, 18032, Control_c, 0, 64, 127
4, 18240, Control_c, 0, 64, 0
4, 18275, Control_c, 0, 64, 127
4, 18369, Control_c, 0, 64, 0
4, 18397, Control_c, 0, 64, 127
4, 18486, Control_c, 0, 64, 0
4, 18517, Control_c, 0, 64, 127
4, 18612, Control_c, 0, 64, 0
4, 18637, Control_c, 0, 64, 127
4, 18726, Control_c, 0, 64, 0
4, 18755, Control_c, 0, 64, 127
4, 18847, Control_c, 0, 64, 0
4, 18875, Control_c, 0, 64, 127
4, 18969, Control_c, 0, 64, 0
4, 18997, Control_c, 0, 64, 127
4, 19083, Control_c, 0, 64, 0
4, 19112, Control_c, 0, 64, 127
4, 19211, Control_c, 0, 64, 0
4, 19246, Control_c, 0, 64, 127
4, 19329, Control_c, 0, 64, 0
4, 29309, Control_c, 0, 64, 127
4, 29520, Control_c, 0, 64, 0
4, 29555, Control_c, 0, 64, 127
4, 29760, Control_c, 0, 64, 0
4, 29795, Control_c, 0, 64, 127
4, 30006, Control_c, 0, 64, 0
4, 30269, Control_c, 0, 64, 127
4, 30480, Control_c, 0, 64, 0
4, 30515, Control_c, 0, 64, 127
4, 30720, Control_c, 0, 64, 0
4, 30755, Control_c, 0, 64, 127
4, 30966, Control_c, 0, 64, 0
4, 31229, Control_c, 0, 64, 127
4, 31440, Control_c, 0, 64, 0
4, 31475, Control_c, 0, 64, 127
4, 31680, Control_c, 0, 64, 0
4, 31715, Control_c, 0, 64, 127
4, 31926, Control_c, 0, 64, 0
4, 31952, Control_c, 0, 64, 127
4, 32172, Control_c, 0, 64, 0
4, 32215, Control_c, 0, 64, 127
4, 32400, Control_c, 0, 64, 0
4, 32429, Control_c, 0, 64, 127
4, 32640, Control_c, 0, 64, 0
4, 32697, Control_c, 0, 64, 127
4, 32886, Control_c, 0, 64, 0
4, 32923, Control_c, 0, 64, 127
4, 33127, Control_c, 0, 64, 0
4, 33148, Control_c, 0, 64, 127
4, 33258, Control_c, 0, 64, 0
4, 33396, Control_c, 0, 64, 127
4, 33477, Control_c, 0, 64, 0
4, 33636, Control_c, 0, 64, 127
4, 33738, Control_c, 0, 64, 0
4, 33890, Control_c, 0, 64, 127
4, 33967, Control_c, 0, 64, 0
4, 34112, Control_c, 0, 64, 127
4, 34200, Control_c, 0, 64, 0
4, 34359, Control_c, 0, 64, 127
4, 34444, Control_c, 0, 64, 0
4, 34597, Control_c, 0, 64, 127
4, 34699, Control_c, 0, 64, 0
4, 36480, Control_c, 0, 64, 127
4, 36609, Control_c, 0, 64, 0
4, 38892, Control_c, 0, 64, 127
4, 39010, Control_c, 0, 64, 0
4, 39155, Control_c, 0, 64, 127
4, 39249, Control_c, 0, 64, 0
4, 39403, Control_c, 0, 64, 127
4, 39487, Control_c, 0, 64, 0
4, 39629, Control_c, 0, 64, 127
4, 39730, Control_c, 0, 64, 0
4, 39860, Control_c, 0, 64, 127
4, 39963, Control_c, 0, 64, 0
4, 40100, Control_c, 0, 64, 127
4, 40206, Control_c, 0, 64, 0
4, 40355, Control_c, 0, 64, 127
4, 40452, Control_c, 0, 64, 0
4, 40592, Control_c, 0, 64, 127
4, 40800, Control_c, 0, 64, 0
4, 40835, Control_c, 0, 64, 127
4, 40929, Control_c, 0, 64, 0
4, 40957, Control_c, 0, 64, 127
4, 41046, Control_c, 0, 64, 0
4, 41077, Control_c, 0, 64, 127
4, 41172, Control_c, 0, 64, 0
4, 41197, Control_c, 0, 64, 127
4, 41286, Control_c, 0, 64, 0
4, 41315, Control_c, 0, 64, 127
4, 41407, Control_c, 0, 64, 0
4, 41435, Control_c, 0, 64, 127
4, 41529, Control_c, 0, 64, 0
4, 41557, Control_c, 0, 64, 127
4, 41643, Control_c, 0, 64, 0
4, 41672, Control_c, 0, 64, 127
4, 41771, Control_c, 0, 64, 0
4, 41806, Control_c, 0, 64, 127
4, 41889, Control_c, 0, 64, 0
4, 41923, Control_c, 0, 64, 127
4, 42007, Control_c, 0, 64, 0
4, 42050, Control_c, 0, 64, 127
4, 42247, Control_c, 0, 64, 0
4, 42275, Control_c, 0, 64, 127
4, 42470, Control_c, 0, 64, 0
4, 42512, Control_c, 0, 64, 127
4, 42720, Control_c, 0, 64, 0
4, 42755, Control_c, 0, 64, 127
4, 42849, Control_c, 0, 64, 0
4, 42877, Control_c, 0, 64, 127
4, 42966, Control_c, 0, 64, 0
4, 42997, Control_c, 0, 64, 127
4, 43092, Control_c, 0, 64, 0
4, 43117, Control_c, 0, 64, 127
4, 43206, Control_c, 0, 64, 0
4, 43235, Control_c, 0, 64, 127
4, 43327, Control_c, 0, 64, 0
4, 43355, Control_c, 0, 64, 127
4, 43449, Control_c, 0, 64, 0
4, 43477, Control_c, 0, 64, 127
4, 43563, Control_c, 0, 64, 0
4, 43592, Control_c, 0, 64, 127
4, 43691, Control_c, 0, 64, 0
4, 43726, Control_c, 0, 64, 127
4, 43809, Control_c, 0, 64, 0
4, 43843, Control_c, 0, 64, 127
4, 43927, Control_c, 0, 64, 0
4, 43970, Control_c, 0, 64, 127
4, 44054, Control_c, 0, 64, 0
4, 44093, Control_c, 0, 64, 127
4, 44160, Control_c, 0, 64, 0
4, 44192, Control_c, 0, 64, 127
4, 44333, Control_c, 0, 64, 0
4, 44446, Control_c, 0, 64, 127
4, 44653, Control_c, 0, 64, 0
4, 44693, Control_c, 0, 64, 127
4, 44894, Control_c, 0, 64, 0
4, 44923, Control_c, 0, 64, 127
4, 45126, Control_c, 0, 64, 0
4, 45163, Control_c, 0, 64, 127
4, 45378, Control_c, 0, 64, 0
4, 45417, Control_c, 0, 64, 127
4, 45612, Control_c, 0, 64, 0
4, 45674, Control_c, 0, 64, 127
4, 45858, Control_c, 0, 64, 0
4, 45897, Control_c, 0, 64, 127
4, 46089, Control_c, 0, 64, 0
4, 46355, Control_c, 0, 64, 127
4, 46567, Control_c, 0, 64, 0
4, 46600, Control_c, 0, 64, 127
4, 46686, Control_c, 0, 64, 0
4, 46820, Control_c, 0, 64, 127
4, 46926, Control_c, 0, 64, 0
4, 47072, Control_c, 0, 64, 127
4, 47283, Control_c, 0, 64, 0
4, 47527, Control_c, 0, 64, 0
4, 47560, Control_c, 0, 64, 127
4, 47646, Control_c, 0, 64, 0
4, 47780, Control_c, 0, 64, 127
4, 47886, Control_c, 0, 64, 0
4, 48032, Control_c, 0, 64, 127
4, 48243, Control_c, 0, 64, 0
4, 48487, Control_c, 0, 64, 0
4, 48520, Control_c, 0, 64, 127
4, 48606, Control_c, 0, 64, 0
4, 48740, Control_c, 0, 64, 127
4, 48846, Control_c, 0, 64, 0
4, 48992, Control_c, 0, 64, 127
4, 49203, Control_c, 0, 64, 0
4, 49237, Control_c, 0, 64, 127
4, 49320, Control_c, 0, 64, 0
4, 49483, Control_c, 0, 64, 127
4, 49560, Control_c, 0, 64, 0
4, 49929, Control_c, 0, 64, 0
4, 50195, Control_c, 0, 64, 127
4, 50407, Control_c, 0, 64, 0
4, 50440, Control_c, 0, 64, 127
4, 50526, Control_c, 0, 64, 0
4, 50660, Control_c, 0, 64, 127
4, 50766, Control_c, 0, 64, 0
4, 50912, Control_c, 0, 64, 127
4, 51123, Control_c, 0, 64, 0
4, 51157, Control_c, 0, 64, 127
4, 51246, Control_c, 0, 64, 0
4, 51403, Control_c, 0, 64, 127
4, 51500, Control_c, 0, 64, 0
4, 51723, Control_c, 0, 64, 0
4, 51723, End_track
5, 0, Start_track
5, 0, Title_t, "Mendelssohn: Songs without words Opus 30 No. 5"
5, 0, End_track
6, 0, Start_track
6, 0, Title_t, "Copyright © 2010 by Bernd Krueger"
6, 0, End_track
7, 0, Start_track
7, 0, Title_t, "http://www.piano-midi.de/"
7, 0, End_track
8, 0, Start_track
8, 0, Title_t, "Edition: 2015-03-20"
8, 0, End_track
9, 0, Start_track
9, 0, Title_t, "Spur 8"
9, 0, End_track
10, 0, Start_track
10, 0, Title_t, "Spur 9"
10, 0, End_track
11, 0, Start_track
11, 0, Title_t, "Spur 10"
11, 0, End_track
12, 0, Start_track
12, 0, Title_t, "Spur 11"
12, 0, End_track
13, 0, Start_track
13, 0, Title_t, "Spur 12"
13, 0, End_track
14, 0, Start_track
14, 0, Title_t, "Spur 13"
14, 0, End_track
15, 0, Start_track
15, 0, Title_t, "Spur 14"
15, 0, End_track
16, 0, Start_track
16, 0, Title_t, "Spur 15"
16, 0, End_track
17, 0, Start_track
17, 0, Title_t, "Spur 16"
17, 0, End_track
0, 0, End_of_file
