0, 0, Header, 1, 9, 480
1, 0, Start_track
1, 0, Title_t, "Bilder einer Ausstellung"
1, 0, Title_t, "Promenade - Die Tuilerien (3)"
1, 0, Copyright_t, "Copyright © 2000 by Bernd Krueger"
1, 0, Text_t, "Modest Mussorgski"
1, 0, Text_t, "Fertiggestellt am 16.1.99\012"
1, 0, Text_t, "Update am 1.7.00\012"
1, 0, Text_t, "Normierung: 23.12.2002\012"
1, 0, Text_t, "Update am 20.8.2008\012"
1, 0, Text_t, "Update am 15.11.2013\012"
1, 0, Text_t, "Dauer: 1:29 Minuten\012"
1, 0, SMPTE_offset, 96, 0, 3, 0, 0
1, 0, Time_signature, 5, 2, 24, 8
1, 0, Key_signature, 0, "major"
1, 0, Tempo, 643225
1, 0, Marker_t, "Promenade"
1, 960, Tempo, 630583
1, 1440, Tempo, 618429
1, 1680, Tempo, 624480
1, 1920, Tempo, 630583
1, 2400, Time_signature, 6, 2, 24, 8
1, 2400, Tempo, 624480
1, 2640, Tempo, 630583
1, 2880, Tempo, 643225
1, 3360, Tempo, 633714
1, 3840, Tempo, 643225
1, 4800, Tempo, 677048
1, 5280, Time_signature, 5, 2, 24, 8
1, 5280, Tempo, 653026
1, 5760, Tempo, 633714
1, 6240, Tempo, 621440
1, 6720, Tempo, 621762
1, 6960, Tempo, 628272
1, 7200, Tempo, 624480
1, 7680, Time_signature, 6, 2, 24, 8
1, 7680, Tempo, 624480
1, 7920, Tempo, 630583
1, 8160, Tempo, 612557
1, 8640, Tempo, 627484
1, 9120, Tempo, 636807
1, 9600, Tempo, 643225
1, 10080, Tempo, 677048
1, 10560, Time_signature, 5, 2, 24, 8
1, 10560, Tempo, 643225
1, 11040, Tempo, 636807
1, 11520, Tempo, 633714
1, 12000, Tempo, 624480
1, 12240, Tempo, 627484
1, 12480, Tempo, 633714
1, 12960, Time_signature, 6, 2, 24, 8
1, 12960, Tempo, 612557
1, 13200, Tempo, 633714
1, 13440, Tempo, 633714
1, 13920, Tempo, 643225
1, 14400, Tempo, 643225
1, 14880, Tempo, 633714
1, 15360, Tempo, 677048
1, 15840, Time_signature, 5, 2, 24, 8
1, 15840, Tempo, 643225
1, 16320, Tempo, 636807
1, 16800, Tempo, 670017
1, 17280, Tempo, 653026
1, 17520, Tempo, 677048
1, 17760, Tempo, 663057
1, 18240, Time_signature, 4, 2, 24, 8
1, 19200, Tempo, 680658
1, 19440, Tempo, 714626
1, 19920, Tempo, 2222222
1, 20160, Key_signature, 5, "major"
1, 20160, Tempo, 521376
1, 20160, Marker_t, "Die Tuilerien"
1, 20640, Tempo, 497925
1, 21120, Tempo, 508475
1, 21600, Tempo, 497925
1, 22080, Tempo, 517063
1, 22320, Tempo, 468019
1, 23480, Tempo, 480000
1, 23560, Tempo, 481928
1, 23600, Tempo, 483871
1, 23680, Tempo, 485830
1, 23720, Tempo, 487805
1, 23800, Tempo, 489796
1, 23840, Tempo, 491803
1, 23880, Tempo, 668896
1, 24000, Tempo, 508475
1, 24480, Tempo, 497925
1, 24960, Tempo, 500000
1, 25440, Tempo, 489796
1, 25920, Tempo, 519211
1, 26160, Tempo, 471328
1, 27320, Tempo, 459770
1, 27360, Tempo, 474308
1, 27440, Tempo, 476190
1, 27480, Tempo, 478088
1, 27520, Tempo, 480000
1, 27600, Tempo, 481928
1, 27640, Tempo, 483871
1, 27680, Tempo, 485830
1, 27720, Tempo, 761421
1, 27840, Tempo, 491803
1, 28320, Tempo, 487805
1, 28800, Tempo, 491803
1, 29280, Tempo, 483871
1, 29760, Tempo, 498546
1, 30000, Tempo, 461538
1, 30720, Tempo, 459770
1, 30840, Tempo, 461538
1, 30960, Tempo, 463320
1, 31080, Tempo, 465116
1, 31160, Tempo, 466926
1, 31280, Tempo, 468750
1, 31400, Tempo, 470588
1, 31480, Tempo, 472441
1, 31560, Tempo, 643087
1, 31680, Tempo, 487805
1, 32160, Tempo, 481928
1, 32640, Tempo, 487805
1, 33120, Tempo, 480000
1, 33600, Tempo, 489796
1, 34080, Tempo, 476190
1, 34560, Tempo, 487805
1, 34800, Tempo, 456274
1, 34920, Tempo, 458015
1, 35040, Tempo, 459770
1, 35160, Tempo, 461538
1, 35280, Tempo, 463320
1, 35360, Tempo, 465116
1, 35400, Tempo, 576646
1, 35520, Tempo, 480000
1, 36000, Tempo, 476190
1, 36480, Tempo, 491803
1, 36720, Tempo, 470441
1, 36900, Tempo, 472181
1, 37060, Tempo, 474009
1, 37240, Tempo, 475775
1, 37400, Tempo, 477593
1, 37440, Tempo, 470441
1, 37560, Tempo, 472181
1, 37640, Tempo, 474009
1, 37760, Tempo, 475775
1, 37840, Tempo, 477593
1, 37960, Tempo, 479425
1, 38040, Tempo, 481232
1, 38160, Tempo, 483131
1, 38240, Tempo, 484966
1, 38280, Tempo, 541712
1, 38400, Tempo, 497925
1, 38640, Tempo, 487805
1, 38840, Tempo, 521376
1, 38880, Tempo, 500000
1, 38920, Tempo, 508475
1, 38960, Tempo, 519481
1, 39000, Tempo, 530973
1, 39040, Tempo, 540541
1, 39080, Tempo, 552995
1, 39120, Tempo, 566038
1, 39160, Tempo, 576923
1, 39200, Tempo, 591133
1, 39240, Tempo, 791557
1, 39360, Tempo, 512821
1, 39840, Tempo, 497925
1, 40320, Tempo, 508475
1, 40800, Tempo, 500000
1, 41280, Tempo, 498546
1, 41520, Tempo, 474308
1, 41720, Tempo, 472441
1, 41920, Tempo, 474308
1, 42080, Tempo, 476190
1, 42240, Tempo, 478088
1, 42400, Tempo, 480000
1, 42560, Tempo, 481928
1, 42720, Tempo, 483871
1, 42880, Tempo, 485830
1, 43040, Tempo, 487805
1, 43080, Tempo, 573998
1, 43200, Tempo, 492611
1, 43280, Tempo, 494601
1, 43320, Tempo, 496524
1, 43400, Tempo, 498546
1, 43440, Tempo, 500501
1, 43520, Tempo, 502555
1, 43560, Tempo, 504541
1, 43600, Tempo, 506586
1, 43680, Tempo, 508647
1, 43720, Tempo, 506329
1, 43880, Tempo, 508475
1, 44000, Tempo, 510638
1, 44120, Tempo, 512821
1, 44240, Tempo, 515021
1, 44360, Tempo, 517241
1, 44480, Tempo, 519481
1, 44600, Tempo, 521739
1, 44640, Tempo, 541614
1, 45120, Tempo, 530176
1, 45840, Tempo, 517063
1, 46560, Tempo, 525762
1, 47040, Tempo, 512821
1, 48240, Tempo, 474308
1, 48960, Tempo, 527983
1, 49680, Tempo, 517063
1, 49920, Tempo, 504202
1, 50160, Tempo, 512821
1, 50400, Tempo, 525762
1, 50880, Tempo, 517063
1, 51360, Tempo, 504202
1, 51600, Tempo, 508475
1, 51840, Tempo, 514933
1, 52320, Tempo, 504202
1, 52560, Tempo, 579318
1, 52800, Tempo, 530176
1, 53520, Tempo, 514933
1, 54240, Tempo, 525762
1, 54720, Tempo, 514933
1, 56160, Tempo, 476190
1, 56640, Tempo, 521376
1, 57240, Tempo, 480000
1, 57600, Tempo, 491803
1, 58080, Tempo, 504202
1, 58440, Tempo, 584738
1, 58560, Tempo, 519211
1, 59160, Tempo, 481928
1, 59480, Tempo, 478088
1, 59600, Tempo, 480000
1, 59720, Tempo, 481928
1, 59800, Tempo, 483871
1, 59920, Tempo, 485830
1, 60000, Tempo, 487805
1, 60240, Tempo, 496237
1, 60260, Tempo, 500334
1, 60280, Tempo, 506543
1, 60300, Tempo, 510769
1, 60320, Tempo, 517286
1, 60340, Tempo, 523972
1, 60360, Tempo, 528495
1, 60380, Tempo, 535427
1, 60400, Tempo, 542545
1, 60420, Tempo, 547445
1, 60440, Tempo, 554836
1, 60460, Tempo, 562588
1, 60480, Tempo, 514933
1, 60960, Tempo, 483871
1, 61080, Tempo, 485830
1, 61200, Tempo, 487805
1, 61320, Tempo, 489796
1, 61400, Tempo, 491803
1, 61440, Tempo, 504202
1, 61920, Tempo, 485830
1, 62040, Tempo, 487805
1, 62160, Tempo, 489796
1, 62280, Tempo, 491803
1, 62360, Tempo, 493827
1, 62400, Tempo, 493827
1, 62880, Tempo, 510638
1, 63120, Tempo, 474308
1, 63280, Tempo, 476190
1, 63440, Tempo, 478088
1, 63560, Tempo, 481928
1, 63760, Tempo, 483871
1, 63960, Tempo, 485830
1, 64160, Tempo, 487805
1, 64200, Tempo, 521739
1, 64320, Tempo, 491803
1, 64800, Tempo, 506329
1, 65040, Tempo, 474308
1, 65240, Tempo, 476190
1, 65440, Tempo, 478088
1, 65640, Tempo, 480000
1, 65800, Tempo, 481928
1, 65840, Tempo, 478088
1, 65880, Tempo, 480000
1, 65920, Tempo, 483871
1, 65960, Tempo, 485830
1, 66000, Tempo, 489796
1, 66040, Tempo, 491803
1, 66080, Tempo, 495868
1, 66120, Tempo, 672721
1, 66240, Tempo, 510638
1, 66720, Tempo, 497925
1, 67200, Tempo, 508475
1, 67680, Tempo, 497925
1, 68160, Tempo, 506586
1, 68880, Tempo, 510725
1, 69120, Tempo, 506329
1, 69160, Tempo, 506329
1, 69240, Tempo, 508475
1, 69280, Tempo, 510638
1, 69320, Tempo, 512821
1, 69360, Tempo, 515021
1, 69400, Tempo, 517241
1, 69480, Tempo, 519481
1, 69520, Tempo, 521739
1, 69560, Tempo, 524017
1, 69600, Tempo, 526316
1, 69640, Tempo, 528634
1, 69720, Tempo, 530973
1, 69760, Tempo, 533333
1, 69800, Tempo, 535714
1, 69840, Tempo, 538117
1, 69880, Tempo, 540541
1, 69920, Tempo, 542986
1, 69960, Tempo, 931677
1, 70080, Tempo, 521376
1, 70560, Tempo, 514933
1, 71040, Tempo, 521376
1, 71520, Tempo, 514933
1, 72000, Tempo, 498546
1, 72240, Tempo, 470588
1, 72480, Tempo, 472441
1, 72680, Tempo, 474308
1, 72920, Tempo, 476190
1, 73120, Tempo, 478088
1, 73360, Tempo, 480000
1, 73560, Tempo, 481928
1, 73760, Tempo, 483871
1, 73800, Tempo, 573998
1, 73920, Tempo, 495868
1, 74080, Tempo, 497925
1, 74200, Tempo, 500000
1, 74320, Tempo, 502092
1, 74440, Tempo, 504202
1, 74560, Tempo, 506329
1, 74720, Tempo, 508475
1, 74840, Tempo, 510638
1, 74960, Tempo, 512821
1, 75080, Tempo, 515021
1, 75200, Tempo, 517241
1, 75320, Tempo, 519481
1, 75360, Tempo, 541712
1, 75400, Tempo, 544020
1, 75440, Tempo, 548797
1, 75480, Tempo, 551268
1, 75520, Tempo, 556122
1, 75560, Tempo, 558607
1, 75600, Tempo, 563645
1, 75640, Tempo, 566198
1, 75680, Tempo, 571374
1, 75720, Tempo, 727273
1, 75840, Tempo, 810811
1, 75940, Marker_t, "Fine"
1, 77760, Tempo, 857143
1, 77760, End_track
2, 0, Start_track
2, 0, Title_t, "Piano right"
2, 0, Program_c, 0, 0
2, 0, Control_c, 0, 7, 100
2, 0, Control_c, 0, 10, 64
2, 0, Text_t, "bdca426d104a26ac9dcb070447587523"
2, 0, Control_c, 0, 91, 127
2, 1, Note_on_c, 0, 56, 65
2, 1, Note_on_c, 0, 68, 77
2, 480, Note_on_c, 0, 54, 64
2, 480, Note_on_c, 0, 66, 76
2, 481, Note_on_c, 0, 68, 0
2, 481, Note_on_c, 0, 56, 0
2, 960, Note_on_c, 0, 54, 0
2, 960, Note_on_c, 0, 66, 0
2, 960, Note_on_c, 0, 59, 65
2, 960, Note_on_c, 0, 71, 77
2, 1440, Note_on_c, 0, 71, 0
2, 1440, Note_on_c, 0, 59, 0
2, 1440, Note_on_c, 0, 61, 66
2, 1440, Note_on_c, 0, 73, 78
2, 1680, Note_on_c, 0, 73, 0
2, 1680, Note_on_c, 0, 61, 0
2, 1680, Note_on_c, 0, 66, 56
2, 1680, Note_on_c, 0, 78, 67
2, 1920, Note_on_c, 0, 78, 0
2, 1920, Note_on_c, 0, 66, 0
2, 1920, Note_on_c, 0, 63, 63
2, 1920, Note_on_c, 0, 75, 75
2, 2400, Note_on_c, 0, 75, 0
2, 2400, Note_on_c, 0, 63, 0
2, 2400, Note_on_c, 0, 61, 66
2, 2400, Note_on_c, 0, 73, 78
2, 2640, Note_on_c, 0, 73, 0
2, 2640, Note_on_c, 0, 61, 0
2, 2640, Note_on_c, 0, 66, 68
2, 2640, Note_on_c, 0, 78, 68
2, 2880, Note_on_c, 0, 78, 0
2, 2880, Note_on_c, 0, 66, 0
2, 2880, Note_on_c, 0, 63, 64
2, 2880, Note_on_c, 0, 75, 76
2, 3360, Note_on_c, 0, 75, 0
2, 3360, Note_on_c, 0, 63, 0
2, 3360, Note_on_c, 0, 59, 64
2, 3360, Note_on_c, 0, 71, 76
2, 3840, Note_on_c, 0, 71, 0
2, 3840, Note_on_c, 0, 59, 0
2, 3840, Note_on_c, 0, 61, 77
2, 3840, Note_on_c, 0, 73, 77
2, 4320, Note_on_c, 0, 73, 0
2, 4320, Note_on_c, 0, 61, 0
2, 4320, Note_on_c, 0, 56, 59
2, 4320, Note_on_c, 0, 68, 70
2, 4800, Note_on_c, 0, 68, 0
2, 4800, Note_on_c, 0, 56, 0
2, 4800, Note_on_c, 0, 54, 59
2, 4800, Note_on_c, 0, 66, 70
2, 5250, Note_on_c, 0, 66, 0
2, 5250, Note_on_c, 0, 54, 0
2, 6240, Note_on_c, 0, 75, 59
2, 6240, Note_on_c, 0, 78, 70
2, 6240, Note_on_c, 0, 66, 59
2, 6240, Note_on_c, 0, 71, 59
2, 6720, Note_on_c, 0, 71, 0
2, 6720, Note_on_c, 0, 75, 0
2, 6720, Note_on_c, 0, 78, 0
2, 6720, Note_on_c, 0, 66, 0
2, 6720, Note_on_c, 0, 70, 54
2, 6720, Note_on_c, 0, 73, 64
2, 6720, Note_on_c, 0, 61, 54
2, 6720, Note_on_c, 0, 66, 54
2, 7200, Note_on_c, 0, 66, 0
2, 7200, Note_on_c, 0, 70, 0
2, 7200, Note_on_c, 0, 73, 0
2, 7200, Note_on_c, 0, 61, 0
2, 7200, Note_on_c, 0, 75, 56
2, 7200, Note_on_c, 0, 78, 67
2, 7200, Note_on_c, 0, 66, 56
2, 7200, Note_on_c, 0, 71, 56
2, 7680, Note_on_c, 0, 71, 0
2, 7680, Note_on_c, 0, 75, 0
2, 7680, Note_on_c, 0, 78, 0
2, 7680, Note_on_c, 0, 66, 0
2, 7680, Note_on_c, 0, 78, 59
2, 7680, Note_on_c, 0, 82, 70
2, 7680, Note_on_c, 0, 70, 59
2, 7680, Note_on_c, 0, 73, 59
2, 8160, Note_on_c, 0, 73, 0
2, 8160, Note_on_c, 0, 78, 0
2, 8160, Note_on_c, 0, 82, 0
2, 8160, Note_on_c, 0, 70, 0
2, 8160, Note_on_c, 0, 78, 58
2, 8160, Note_on_c, 0, 83, 69
2, 8160, Note_on_c, 0, 71, 58
2, 8160, Note_on_c, 0, 75, 58
2, 8640, Note_on_c, 0, 75, 0
2, 8640, Note_on_c, 0, 78, 0
2, 8640, Note_on_c, 0, 83, 0
2, 8640, Note_on_c, 0, 71, 0
2, 8640, Note_on_c, 0, 83, 59
2, 8640, Note_on_c, 0, 87, 70
2, 8640, Note_on_c, 0, 75, 59
2, 8640, Note_on_c, 0, 78, 59
2, 9120, Note_on_c, 0, 78, 0
2, 9120, Note_on_c, 0, 83, 0
2, 9120, Note_on_c, 0, 87, 0
2, 9120, Note_on_c, 0, 75, 0
2, 9120, Note_on_c, 0, 77, 59
2, 9120, Note_on_c, 0, 73, 59
2, 9120, Note_on_c, 0, 85, 70
2, 9120, Note_on_c, 0, 80, 59
2, 9600, Note_on_c, 0, 80, 0
2, 9600, Note_on_c, 0, 77, 0
2, 9600, Note_on_c, 0, 73, 0
2, 9600, Note_on_c, 0, 85, 0
2, 9600, Note_on_c, 0, 80, 59
2, 9600, Note_on_c, 0, 77, 59
2, 9600, Note_on_c, 0, 89, 70
2, 9600, Note_on_c, 0, 85, 70
2, 10080, Note_on_c, 0, 85, 0
2, 10080, Note_on_c, 0, 80, 0
2, 10080, Note_on_c, 0, 77, 0
2, 10080, Note_on_c, 0, 89, 0
2, 10080, Note_on_c, 0, 82, 56
2, 10080, Note_on_c, 0, 78, 56
2, 10080, Note_on_c, 0, 90, 67
2, 10080, Note_on_c, 0, 85, 56
2, 10530, Note_on_c, 0, 85, 0
2, 10530, Note_on_c, 0, 82, 0
2, 10530, Note_on_c, 0, 78, 0
2, 10530, Note_on_c, 0, 90, 0
2, 10560, Note_on_c, 0, 66, 59
2, 10560, Note_on_c, 0, 78, 70
2, 11040, Note_on_c, 0, 78, 0
2, 11040, Note_on_c, 0, 66, 0
2, 11040, Note_on_c, 0, 68, 57
2, 11040, Note_on_c, 0, 80, 68
2, 11520, Note_on_c, 0, 80, 0
2, 11520, Note_on_c, 0, 68, 0
2, 11520, Note_on_c, 0, 61, 59
2, 11520, Note_on_c, 0, 73, 70
2, 12000, Note_on_c, 0, 73, 0
2, 12000, Note_on_c, 0, 61, 0
2, 12000, Note_on_c, 0, 66, 58
2, 12000, Note_on_c, 0, 78, 69
2, 12240, Note_on_c, 0, 78, 0
2, 12240, Note_on_c, 0, 66, 0
2, 12240, Note_on_c, 0, 68, 55
2, 12240, Note_on_c, 0, 80, 65
2, 12480, Note_on_c, 0, 80, 0
2, 12480, Note_on_c, 0, 68, 0
2, 12480, Note_on_c, 0, 61, 58
2, 12480, Note_on_c, 0, 73, 69
2, 12960, Note_on_c, 0, 73, 0
2, 12960, Note_on_c, 0, 61, 0
2, 12960, Note_on_c, 0, 68, 59
2, 12960, Note_on_c, 0, 80, 70
2, 13200, Note_on_c, 0, 80, 0
2, 13200, Note_on_c, 0, 68, 0
2, 13200, Note_on_c, 0, 70, 55
2, 13200, Note_on_c, 0, 82, 65
2, 13440, Note_on_c, 0, 82, 0
2, 13440, Note_on_c, 0, 70, 0
2, 13440, Note_on_c, 0, 66, 59
2, 13440, Note_on_c, 0, 78, 70
2, 13890, Note_on_c, 0, 78, 0
2, 13890, Note_on_c, 0, 66, 0
2, 13920, Note_on_c, 0, 90, 73
2, 13920, Note_on_c, 0, 78, 62
2, 14400, Note_on_c, 0, 78, 0
2, 14400, Note_on_c, 0, 90, 0
2, 14400, Note_on_c, 0, 87, 71
2, 14400, Note_on_c, 0, 75, 60
2, 14880, Note_on_c, 0, 75, 0
2, 14880, Note_on_c, 0, 87, 0
2, 14880, Note_on_c, 0, 73, 57
2, 14880, Note_on_c, 0, 85, 68
2, 15120, Note_on_c, 0, 85, 0
2, 15120, Note_on_c, 0, 73, 0
2, 15120, Note_on_c, 0, 83, 65
2, 15120, Note_on_c, 0, 71, 55
2, 15360, Note_on_c, 0, 71, 0
2, 15360, Note_on_c, 0, 83, 0
2, 15360, Note_on_c, 0, 66, 55
2, 15360, Note_on_c, 0, 78, 65
2, 15810, Note_on_c, 0, 78, 0
2, 15810, Note_on_c, 0, 66, 0
2, 15840, Note_on_c, 0, 66, 59
2, 16320, Note_on_c, 0, 66, 0
2, 16320, Note_on_c, 0, 68, 57
2, 16800, Note_on_c, 0, 68, 0
2, 16800, Note_on_c, 0, 61, 54
2, 17280, Note_on_c, 0, 61, 0
2, 17280, Note_on_c, 0, 66, 47
2, 17520, Note_on_c, 0, 66, 0
2, 17520, Note_on_c, 0, 68, 43
2, 17760, Note_on_c, 0, 68, 0
2, 17760, Note_on_c, 0, 61, 47
2, 18240, Note_on_c, 0, 61, 0
2, 19200, Note_on_c, 0, 66, 39
2, 19440, Note_on_c, 0, 66, 0
2, 19440, Note_on_c, 0, 68, 36
2, 19680, Note_on_c, 0, 68, 0
2, 19680, Note_on_c, 0, 61, 39
2, 19920, Note_on_c, 0, 61, 0
2, 20160, Note_on_c, 0, 78, 50
2, 20160, Note_on_c, 0, 71, 45
2, 20160, Note_on_c, 0, 66, 45
2, 20640, Note_on_c, 0, 66, 0
2, 20640, Note_on_c, 0, 71, 0
2, 20640, Note_on_c, 0, 78, 0
2, 20640, Note_on_c, 0, 75, 39
2, 20640, Note_on_c, 0, 71, 35
2, 20640, Note_on_c, 0, 65, 35
2, 20760, Note_on_c, 0, 65, 0
2, 20760, Note_on_c, 0, 71, 0
2, 20760, Note_on_c, 0, 75, 0
2, 21120, Note_on_c, 0, 66, 45
2, 21120, Note_on_c, 0, 71, 45
2, 21120, Note_on_c, 0, 78, 50
2, 21600, Note_on_c, 0, 78, 0
2, 21600, Note_on_c, 0, 71, 0
2, 21600, Note_on_c, 0, 66, 0
2, 21600, Note_on_c, 0, 65, 34
2, 21600, Note_on_c, 0, 71, 34
2, 21600, Note_on_c, 0, 75, 38
2, 21720, Note_on_c, 0, 75, 0
2, 21720, Note_on_c, 0, 71, 0
2, 21720, Note_on_c, 0, 65, 0
2, 22080, Note_on_c, 0, 78, 50
2, 22080, Note_on_c, 0, 66, 37
2, 22080, Note_on_c, 0, 71, 37
2, 22320, Note_on_c, 0, 78, 0
2, 22320, Note_on_c, 0, 80, 56
2, 22440, Note_on_c, 0, 80, 0
2, 22440, Note_on_c, 0, 78, 54
2, 22560, Note_on_c, 0, 78, 0
2, 22560, Note_on_c, 0, 71, 0
2, 22560, Note_on_c, 0, 66, 0
2, 22560, Note_on_c, 0, 65, 27
2, 22560, Note_on_c, 0, 71, 27
2, 22560, Note_on_c, 0, 77, 54
2, 22620, Note_on_c, 0, 77, 0
2, 22680, Note_on_c, 0, 75, 53
2, 22740, Note_on_c, 0, 75, 0
2, 22800, Note_on_c, 0, 71, 0
2, 22800, Note_on_c, 0, 65, 0
2, 22800, Note_on_c, 0, 74, 52
2, 22860, Note_on_c, 0, 74, 0
2, 22920, Note_on_c, 0, 75, 52
2, 22980, Note_on_c, 0, 75, 0
2, 23040, Note_on_c, 0, 77, 51
2, 23040, Note_on_c, 0, 71, 37
2, 23040, Note_on_c, 0, 66, 37
2, 23100, Note_on_c, 0, 77, 0
2, 23160, Note_on_c, 0, 75, 50
2, 23220, Note_on_c, 0, 75, 0
2, 23280, Note_on_c, 0, 78, 52
2, 23340, Note_on_c, 0, 78, 0
2, 23400, Note_on_c, 0, 77, 50
2, 23460, Note_on_c, 0, 77, 0
2, 23520, Note_on_c, 0, 66, 0
2, 23520, Note_on_c, 0, 71, 0
2, 23520, Note_on_c, 0, 80, 54
2, 23520, Note_on_c, 0, 71, 27
2, 23520, Note_on_c, 0, 65, 27
2, 23580, Note_on_c, 0, 80, 0
2, 23640, Note_on_c, 0, 78, 50
2, 23700, Note_on_c, 0, 78, 0
2, 23760, Note_on_c, 0, 65, 0
2, 23760, Note_on_c, 0, 71, 0
2, 23760, Note_on_c, 0, 77, 52
2, 23820, Note_on_c, 0, 77, 0
2, 23880, Note_on_c, 0, 75, 50
2, 23940, Note_on_c, 0, 75, 0
2, 24000, Note_on_c, 0, 66, 45
2, 24000, Note_on_c, 0, 71, 45
2, 24000, Note_on_c, 0, 78, 50
2, 24480, Note_on_c, 0, 78, 0
2, 24480, Note_on_c, 0, 71, 0
2, 24480, Note_on_c, 0, 66, 0
2, 24480, Note_on_c, 0, 65, 35
2, 24480, Note_on_c, 0, 71, 35
2, 24480, Note_on_c, 0, 75, 39
2, 24600, Note_on_c, 0, 75, 0
2, 24600, Note_on_c, 0, 71, 0
2, 24600, Note_on_c, 0, 65, 0
2, 24960, Note_on_c, 0, 78, 50
2, 24960, Note_on_c, 0, 71, 45
2, 24960, Note_on_c, 0, 66, 45
2, 25440, Note_on_c, 0, 66, 0
2, 25440, Note_on_c, 0, 71, 0
2, 25440, Note_on_c, 0, 78, 0
2, 25440, Note_on_c, 0, 75, 38
2, 25440, Note_on_c, 0, 71, 34
2, 25440, Note_on_c, 0, 65, 34
2, 25560, Note_on_c, 0, 65, 0
2, 25560, Note_on_c, 0, 71, 0
2, 25560, Note_on_c, 0, 75, 0
2, 25920, Note_on_c, 0, 66, 37
2, 25920, Note_on_c, 0, 71, 37
2, 25920, Note_on_c, 0, 78, 50
2, 26160, Note_on_c, 0, 78, 0
2, 26160, Note_on_c, 0, 80, 56
2, 26280, Note_on_c, 0, 80, 0
2, 26280, Note_on_c, 0, 78, 54
2, 26400, Note_on_c, 0, 78, 0
2, 26400, Note_on_c, 0, 71, 0
2, 26400, Note_on_c, 0, 66, 0
2, 26400, Note_on_c, 0, 77, 54
2, 26400, Note_on_c, 0, 71, 27
2, 26400, Note_on_c, 0, 65, 27
2, 26460, Note_on_c, 0, 77, 0
2, 26520, Note_on_c, 0, 75, 53
2, 26580, Note_on_c, 0, 75, 0
2, 26640, Note_on_c, 0, 65, 0
2, 26640, Note_on_c, 0, 71, 0
2, 26640, Note_on_c, 0, 74, 52
2, 26700, Note_on_c, 0, 74, 0
2, 26760, Note_on_c, 0, 75, 52
2, 26820, Note_on_c, 0, 75, 0
2, 26880, Note_on_c, 0, 66, 37
2, 26880, Note_on_c, 0, 71, 37
2, 26880, Note_on_c, 0, 77, 51
2, 26940, Note_on_c, 0, 77, 0
2, 27000, Note_on_c, 0, 75, 50
2, 27060, Note_on_c, 0, 75, 0
2, 27120, Note_on_c, 0, 78, 52
2, 27180, Note_on_c, 0, 78, 0
2, 27240, Note_on_c, 0, 77, 50
2, 27300, Note_on_c, 0, 77, 0
2, 27360, Note_on_c, 0, 71, 0
2, 27360, Note_on_c, 0, 66, 0
2, 27360, Note_on_c, 0, 80, 54
2, 27360, Note_on_c, 0, 71, 27
2, 27360, Note_on_c, 0, 65, 27
2, 27420, Note_on_c, 0, 80, 0
2, 27480, Note_on_c, 0, 78, 50
2, 27540, Note_on_c, 0, 78, 0
2, 27600, Note_on_c, 0, 65, 0
2, 27600, Note_on_c, 0, 71, 0
2, 27600, Note_on_c, 0, 77, 52
2, 27660, Note_on_c, 0, 77, 0
2, 27720, Note_on_c, 0, 75, 50
2, 27780, Note_on_c, 0, 75, 0
2, 27840, Note_on_c, 0, 68, 45
2, 27840, Note_on_c, 0, 71, 45
2, 27840, Note_on_c, 0, 80, 50
2, 28320, Note_on_c, 0, 80, 0
2, 28320, Note_on_c, 0, 71, 0
2, 28320, Note_on_c, 0, 68, 0
2, 28320, Note_on_c, 0, 75, 39
2, 28320, Note_on_c, 0, 71, 35
2, 28320, Note_on_c, 0, 66, 35
2, 28440, Note_on_c, 0, 66, 0
2, 28440, Note_on_c, 0, 71, 0
2, 28440, Note_on_c, 0, 75, 0
2, 28800, Note_on_c, 0, 80, 50
2, 28800, Note_on_c, 0, 71, 45
2, 28800, Note_on_c, 0, 68, 45
2, 29280, Note_on_c, 0, 68, 0
2, 29280, Note_on_c, 0, 71, 0
2, 29280, Note_on_c, 0, 80, 0
2, 29280, Note_on_c, 0, 66, 34
2, 29280, Note_on_c, 0, 71, 34
2, 29280, Note_on_c, 0, 75, 38
2, 29400, Note_on_c, 0, 75, 0
2, 29400, Note_on_c, 0, 71, 0
2, 29400, Note_on_c, 0, 66, 0
2, 29760, Note_on_c, 0, 68, 42
2, 29760, Note_on_c, 0, 71, 42
2, 29760, Note_on_c, 0, 80, 50
2, 30000, Note_on_c, 0, 80, 0
2, 30000, Note_on_c, 0, 83, 56
2, 30120, Note_on_c, 0, 83, 0
2, 30120, Note_on_c, 0, 82, 54
2, 30240, Note_on_c, 0, 82, 0
2, 30240, Note_on_c, 0, 80, 54
2, 30300, Note_on_c, 0, 80, 0
2, 30360, Note_on_c, 0, 78, 53
2, 30420, Note_on_c, 0, 78, 0
2, 30480, Note_on_c, 0, 71, 0
2, 30480, Note_on_c, 0, 68, 0
2, 30480, Note_on_c, 0, 77, 52
2, 30540, Note_on_c, 0, 77, 0
2, 30600, Note_on_c, 0, 75, 52
2, 30660, Note_on_c, 0, 75, 0
2, 30720, Note_on_c, 0, 71, 42
2, 30720, Note_on_c, 0, 68, 42
2, 30720, Note_on_c, 0, 74, 51
2, 30780, Note_on_c, 0, 74, 0
2, 30840, Note_on_c, 0, 75, 50
2, 30900, Note_on_c, 0, 75, 0
2, 30960, Note_on_c, 0, 77, 52
2, 31020, Note_on_c, 0, 77, 0
2, 31080, Note_on_c, 0, 75, 50
2, 31140, Note_on_c, 0, 75, 0
2, 31200, Note_on_c, 0, 80, 54
2, 31260, Note_on_c, 0, 80, 0
2, 31320, Note_on_c, 0, 78, 50
2, 31380, Note_on_c, 0, 78, 0
2, 31440, Note_on_c, 0, 68, 0
2, 31440, Note_on_c, 0, 71, 0
2, 31440, Note_on_c, 0, 77, 52
2, 31500, Note_on_c, 0, 77, 0
2, 31560, Note_on_c, 0, 75, 50
2, 31620, Note_on_c, 0, 75, 0
2, 31680, Note_on_c, 0, 80, 50
2, 31680, Note_on_c, 0, 71, 45
2, 31680, Note_on_c, 0, 68, 45
2, 32160, Note_on_c, 0, 68, 0
2, 32160, Note_on_c, 0, 71, 0
2, 32160, Note_on_c, 0, 80, 0
2, 32160, Note_on_c, 0, 75, 39
2, 32160, Note_on_c, 0, 71, 35
2, 32160, Note_on_c, 0, 66, 35
2, 32280, Note_on_c, 0, 66, 0
2, 32280, Note_on_c, 0, 71, 0
2, 32280, Note_on_c, 0, 75, 0
2, 32640, Note_on_c, 0, 68, 45
2, 32640, Note_on_c, 0, 71, 45
2, 32640, Note_on_c, 0, 80, 50
2, 33120, Note_on_c, 0, 80, 0
2, 33120, Note_on_c, 0, 71, 0
2, 33120, Note_on_c, 0, 68, 0
2, 33120, Note_on_c, 0, 66, 34
2, 33120, Note_on_c, 0, 71, 34
2, 33120, Note_on_c, 0, 75, 38
2, 33240, Note_on_c, 0, 75, 0
2, 33240, Note_on_c, 0, 71, 0
2, 33240, Note_on_c, 0, 66, 0
2, 33600, Note_on_c, 0, 81, 58
2, 33600, Note_on_c, 0, 73, 52
2, 33600, Note_on_c, 0, 67, 52
2, 34080, Note_on_c, 0, 67, 0
2, 34080, Note_on_c, 0, 73, 0
2, 34080, Note_on_c, 0, 81, 0
2, 34080, Note_on_c, 0, 75, 54
2, 34080, Note_on_c, 0, 73, 48
2, 34080, Note_on_c, 0, 66, 48
2, 34200, Note_on_c, 0, 66, 0
2, 34200, Note_on_c, 0, 73, 0
2, 34200, Note_on_c, 0, 75, 0
2, 34560, Note_on_c, 0, 67, 41
2, 34560, Note_on_c, 0, 73, 41
2, 34560, Note_on_c, 0, 81, 55
2, 34800, Note_on_c, 0, 81, 0
2, 34800, Note_on_c, 0, 85, 61
2, 34920, Note_on_c, 0, 85, 0
2, 34920, Note_on_c, 0, 83, 55
2, 35040, Note_on_c, 0, 83, 0
2, 35040, Note_on_c, 0, 73, 0
2, 35040, Note_on_c, 0, 67, 0
2, 35040, Note_on_c, 0, 66, 34
2, 35040, Note_on_c, 0, 81, 59
2, 35040, Note_on_c, 0, 75, 34
2, 35040, Note_on_c, 0, 73, 34
2, 35100, Note_on_c, 0, 81, 0
2, 35160, Note_on_c, 0, 79, 55
2, 35220, Note_on_c, 0, 79, 0
2, 35280, Note_on_c, 0, 73, 0
2, 35280, Note_on_c, 0, 75, 0
2, 35280, Note_on_c, 0, 66, 0
2, 35280, Note_on_c, 0, 78, 57
2, 35340, Note_on_c, 0, 78, 0
2, 35400, Note_on_c, 0, 76, 53
2, 35460, Note_on_c, 0, 76, 0
2, 35520, Note_on_c, 0, 67, 52
2, 35520, Note_on_c, 0, 73, 52
2, 35520, Note_on_c, 0, 81, 58
2, 36000, Note_on_c, 0, 81, 0
2, 36000, Note_on_c, 0, 73, 0
2, 36000, Note_on_c, 0, 67, 0
2, 36000, Note_on_c, 0, 66, 48
2, 36000, Note_on_c, 0, 73, 48
2, 36000, Note_on_c, 0, 75, 54
2, 36120, Note_on_c, 0, 75, 0
2, 36120, Note_on_c, 0, 73, 0
2, 36120, Note_on_c, 0, 66, 0
2, 36480, Note_on_c, 0, 81, 55
2, 36480, Note_on_c, 0, 73, 41
2, 36480, Note_on_c, 0, 67, 41
2, 36720, Note_on_c, 0, 81, 0
2, 36720, Note_on_c, 0, 85, 61
2, 36840, Note_on_c, 0, 85, 0
2, 36840, Note_on_c, 0, 83, 55
2, 36960, Note_on_c, 0, 83, 0
2, 36960, Note_on_c, 0, 67, 0
2, 36960, Note_on_c, 0, 73, 0
2, 36960, Note_on_c, 0, 75, 34
2, 36960, Note_on_c, 0, 73, 34
2, 36960, Note_on_c, 0, 66, 34
2, 36960, Note_on_c, 0, 81, 59
2, 37020, Note_on_c, 0, 81, 0
2, 37080, Note_on_c, 0, 79, 55
2, 37140, Note_on_c, 0, 79, 0
2, 37200, Note_on_c, 0, 66, 0
2, 37200, Note_on_c, 0, 73, 0
2, 37200, Note_on_c, 0, 75, 0
2, 37200, Note_on_c, 0, 78, 57
2, 37260, Note_on_c, 0, 78, 0
2, 37320, Note_on_c, 0, 76, 53
2, 37380, Note_on_c, 0, 76, 0
2, 37440, Note_on_c, 0, 88, 58
2, 37500, Note_on_c, 0, 88, 0
2, 37560, Note_on_c, 0, 87, 58
2, 37620, Note_on_c, 0, 87, 0
2, 37680, Note_on_c, 0, 85, 57
2, 37740, Note_on_c, 0, 85, 0
2, 37800, Note_on_c, 0, 83, 57
2, 37860, Note_on_c, 0, 83, 0
2, 37920, Note_on_c, 0, 81, 56
2, 37980, Note_on_c, 0, 81, 0
2, 38040, Note_on_c, 0, 80, 56
2, 38100, Note_on_c, 0, 80, 0
2, 38160, Note_on_c, 0, 78, 55
2, 38220, Note_on_c, 0, 78, 0
2, 38280, Note_on_c, 0, 76, 54
2, 38340, Note_on_c, 0, 76, 0
2, 38400, Note_on_c, 0, 77, 61
2, 38640, Note_on_c, 0, 77, 0
2, 38640, Note_on_c, 0, 78, 59
2, 38880, Note_on_c, 0, 78, 0
2, 38880, Note_on_c, 0, 80, 64
2, 39120, Note_on_c, 0, 80, 0
2, 39120, Note_on_c, 0, 73, 59
2, 39360, Note_on_c, 0, 73, 0
2, 39360, Note_on_c, 0, 78, 50
2, 39360, Note_on_c, 0, 71, 45
2, 39360, Note_on_c, 0, 66, 45
2, 39840, Note_on_c, 0, 66, 0
2, 39840, Note_on_c, 0, 71, 0
2, 39840, Note_on_c, 0, 78, 0
2, 39840, Note_on_c, 0, 65, 35
2, 39840, Note_on_c, 0, 71, 35
2, 39840, Note_on_c, 0, 75, 39
2, 39960, Note_on_c, 0, 75, 0
2, 39960, Note_on_c, 0, 71, 0
2, 39960, Note_on_c, 0, 65, 0
2, 40320, Note_on_c, 0, 66, 45
2, 40320, Note_on_c, 0, 71, 45
2, 40320, Note_on_c, 0, 78, 50
2, 40800, Note_on_c, 0, 78, 0
2, 40800, Note_on_c, 0, 71, 0
2, 40800, Note_on_c, 0, 66, 0
2, 40800, Note_on_c, 0, 75, 38
2, 40800, Note_on_c, 0, 71, 34
2, 40800, Note_on_c, 0, 65, 34
2, 40920, Note_on_c, 0, 65, 0
2, 40920, Note_on_c, 0, 71, 0
2, 40920, Note_on_c, 0, 75, 0
2, 41280, Note_on_c, 0, 78, 50
2, 41280, Note_on_c, 0, 71, 37
2, 41280, Note_on_c, 0, 66, 37
2, 41520, Note_on_c, 0, 78, 0
2, 41520, Note_on_c, 0, 80, 56
2, 41640, Note_on_c, 0, 80, 0
2, 41640, Note_on_c, 0, 78, 54
2, 41760, Note_on_c, 0, 78, 0
2, 41760, Note_on_c, 0, 66, 0
2, 41760, Note_on_c, 0, 71, 0
2, 41760, Note_on_c, 0, 77, 54
2, 41760, Note_on_c, 0, 71, 27
2, 41760, Note_on_c, 0, 65, 27
2, 41820, Note_on_c, 0, 77, 0
2, 41880, Note_on_c, 0, 75, 53
2, 41940, Note_on_c, 0, 75, 0
2, 42000, Note_on_c, 0, 65, 0
2, 42000, Note_on_c, 0, 71, 0
2, 42000, Note_on_c, 0, 74, 52
2, 42060, Note_on_c, 0, 74, 0
2, 42120, Note_on_c, 0, 75, 52
2, 42180, Note_on_c, 0, 75, 0
2, 42240, Note_on_c, 0, 66, 37
2, 42240, Note_on_c, 0, 71, 37
2, 42240, Note_on_c, 0, 77, 51
2, 42300, Note_on_c, 0, 77, 0
2, 42360, Note_on_c, 0, 75, 50
2, 42420, Note_on_c, 0, 75, 0
2, 42480, Note_on_c, 0, 78, 52
2, 42540, Note_on_c, 0, 78, 0
2, 42600, Note_on_c, 0, 77, 50
2, 42660, Note_on_c, 0, 77, 0
2, 42720, Note_on_c, 0, 71, 0
2, 42720, Note_on_c, 0, 66, 0
2, 42720, Note_on_c, 0, 80, 54
2, 42720, Note_on_c, 0, 71, 27
2, 42720, Note_on_c, 0, 65, 27
2, 42780, Note_on_c, 0, 80, 0
2, 42840, Note_on_c, 0, 78, 50
2, 42900, Note_on_c, 0, 78, 0
2, 42960, Note_on_c, 0, 65, 0
2, 42960, Note_on_c, 0, 71, 0
2, 42960, Note_on_c, 0, 77, 52
2, 43020, Note_on_c, 0, 77, 0
2, 43080, Note_on_c, 0, 75, 50
2, 43140, Note_on_c, 0, 75, 0
2, 43200, Note_on_c, 0, 82, 50
2, 43200, Note_on_c, 0, 90, 50
2, 43200, Note_on_c, 0, 75, 50
2, 43680, Note_on_c, 0, 75, 0
2, 43680, Note_on_c, 0, 90, 0
2, 43680, Note_on_c, 0, 82, 0
2, 43680, Note_on_c, 0, 87, 50
2, 43680, Note_on_c, 0, 83, 50
2, 43680, Note_on_c, 0, 78, 50
2, 43920, Note_on_c, 0, 78, 0
2, 43920, Note_on_c, 0, 83, 0
2, 43920, Note_on_c, 0, 87, 0
2, 45120, Note_on_c, 0, 70, 52
2, 45840, Note_on_c, 0, 70, 0
2, 45840, Note_on_c, 0, 71, 54
2, 46080, Note_on_c, 0, 71, 0
2, 46080, Note_on_c, 0, 72, 52
2, 46320, Note_on_c, 0, 72, 0
2, 46320, Note_on_c, 0, 78, 56
2, 46560, Note_on_c, 0, 78, 0
2, 46560, Note_on_c, 0, 72, 52
2, 46800, Note_on_c, 0, 72, 0
2, 46800, Note_on_c, 0, 71, 52
2, 47040, Note_on_c, 0, 71, 0
2, 47040, Note_on_c, 0, 70, 54
2, 47760, Note_on_c, 0, 70, 0
2, 47760, Note_on_c, 0, 71, 52
2, 47880, Note_on_c, 0, 71, 0
2, 47880, Note_on_c, 0, 73, 52
2, 48000, Note_on_c, 0, 73, 0
2, 48000, Note_on_c, 0, 71, 51
2, 48240, Note_on_c, 0, 71, 0
2, 48240, Note_on_c, 0, 83, 51
2, 48300, Note_on_c, 0, 83, 0
2, 48360, Note_on_c, 0, 80, 47
2, 48420, Note_on_c, 0, 80, 0
2, 48480, Note_on_c, 0, 78, 49
2, 48540, Note_on_c, 0, 78, 0
2, 48600, Note_on_c, 0, 74, 44
2, 48660, Note_on_c, 0, 74, 0
2, 48720, Note_on_c, 0, 71, 47
2, 48780, Note_on_c, 0, 71, 0
2, 48840, Note_on_c, 0, 66, 42
2, 48900, Note_on_c, 0, 66, 0
2, 48960, Note_on_c, 0, 70, 52
2, 49680, Note_on_c, 0, 70, 0
2, 49680, Note_on_c, 0, 71, 54
2, 49920, Note_on_c, 0, 71, 0
2, 49920, Note_on_c, 0, 72, 52
2, 50160, Note_on_c, 0, 72, 0
2, 50160, Note_on_c, 0, 77, 56
2, 50400, Note_on_c, 0, 77, 0
2, 50400, Note_on_c, 0, 75, 52
2, 50640, Note_on_c, 0, 75, 0
2, 50640, Note_on_c, 0, 77, 52
2, 50880, Note_on_c, 0, 77, 0
2, 50880, Note_on_c, 0, 70, 50
2, 50880, Note_on_c, 0, 68, 37
2, 51360, Note_on_c, 0, 68, 0
2, 51360, Note_on_c, 0, 70, 0
2, 51360, Note_on_c, 0, 72, 46
2, 51360, Note_on_c, 0, 68, 38
2, 51600, Note_on_c, 0, 72, 0
2, 51600, Note_on_c, 0, 77, 46
2, 51840, Note_on_c, 0, 77, 0
2, 51840, Note_on_c, 0, 68, 0
2, 51840, Note_on_c, 0, 70, 51
2, 51840, Note_on_c, 0, 68, 38
2, 52320, Note_on_c, 0, 68, 0
2, 52320, Note_on_c, 0, 70, 0
2, 52320, Note_on_c, 0, 72, 47
2, 52320, Note_on_c, 0, 68, 37
2, 52560, Note_on_c, 0, 72, 0
2, 52560, Note_on_c, 0, 77, 46
2, 52800, Note_on_c, 0, 77, 0
2, 52800, Note_on_c, 0, 68, 0
2, 52800, Note_on_c, 0, 70, 52
2, 53520, Note_on_c, 0, 70, 0
2, 53520, Note_on_c, 0, 71, 54
2, 53760, Note_on_c, 0, 71, 0
2, 53760, Note_on_c, 0, 72, 52
2, 54000, Note_on_c, 0, 72, 0
2, 54000, Note_on_c, 0, 78, 56
2, 54240, Note_on_c, 0, 78, 0
2, 54240, Note_on_c, 0, 72, 52
2, 54480, Note_on_c, 0, 72, 0
2, 54480, Note_on_c, 0, 71, 52
2, 54720, Note_on_c, 0, 71, 0
2, 54720, Note_on_c, 0, 70, 54
2, 55440, Note_on_c, 0, 70, 0
2, 55440, Note_on_c, 0, 71, 52
2, 55560, Note_on_c, 0, 71, 0
2, 55560, Note_on_c, 0, 73, 48
2, 55680, Note_on_c, 0, 73, 0
2, 55680, Note_on_c, 0, 71, 51
2, 56160, Note_on_c, 0, 71, 0
2, 56160, Note_on_c, 0, 70, 54
2, 56280, Note_on_c, 0, 70, 0
2, 56280, Note_on_c, 0, 71, 57
2, 56400, Note_on_c, 0, 71, 0
2, 56400, Note_on_c, 0, 73, 60
2, 56520, Note_on_c, 0, 73, 0
2, 56520, Note_on_c, 0, 74, 63
2, 56640, Note_on_c, 0, 74, 0
2, 56640, Note_on_c, 0, 79, 66
2, 56640, Note_on_c, 0, 67, 56
2, 56640, Note_on_c, 0, 71, 56
2, 57240, Note_on_c, 0, 79, 0
2, 57240, Note_on_c, 0, 78, 70
2, 57360, Note_on_c, 0, 78, 0
2, 57360, Note_on_c, 0, 81, 66
2, 57480, Note_on_c, 0, 81, 0
2, 57480, Note_on_c, 0, 79, 66
2, 57600, Note_on_c, 0, 79, 0
2, 57600, Note_on_c, 0, 71, 0
2, 57600, Note_on_c, 0, 67, 0
2, 57600, Note_on_c, 0, 73, 70
2, 57600, Note_on_c, 0, 71, 50
2, 57600, Note_on_c, 0, 67, 50
2, 57720, Note_on_c, 0, 73, 0
2, 57720, Note_on_c, 0, 74, 67
2, 57840, Note_on_c, 0, 74, 0
2, 57840, Note_on_c, 0, 75, 67
2, 57960, Note_on_c, 0, 75, 0
2, 57960, Note_on_c, 0, 76, 67
2, 58080, Note_on_c, 0, 76, 0
2, 58080, Note_on_c, 0, 67, 0
2, 58080, Note_on_c, 0, 71, 0
2, 58080, Note_on_c, 0, 70, 50
2, 58080, Note_on_c, 0, 67, 50
2, 58080, Note_on_c, 0, 78, 69
2, 58200, Note_on_c, 0, 78, 0
2, 58200, Note_on_c, 0, 76, 66
2, 58320, Note_on_c, 0, 76, 0
2, 58320, Note_on_c, 0, 81, 68
2, 58440, Note_on_c, 0, 81, 0
2, 58440, Note_on_c, 0, 79, 65
2, 58560, Note_on_c, 0, 79, 0
2, 58560, Note_on_c, 0, 67, 0
2, 58560, Note_on_c, 0, 70, 0
2, 58560, Note_on_c, 0, 71, 56
2, 58560, Note_on_c, 0, 67, 56
2, 58560, Note_on_c, 0, 79, 66
2, 59160, Note_on_c, 0, 79, 0
2, 59160, Note_on_c, 0, 78, 70
2, 59280, Note_on_c, 0, 78, 0
2, 59280, Note_on_c, 0, 81, 66
2, 59400, Note_on_c, 0, 81, 0
2, 59400, Note_on_c, 0, 79, 66
2, 59520, Note_on_c, 0, 79, 0
2, 59520, Note_on_c, 0, 67, 0
2, 59520, Note_on_c, 0, 71, 0
2, 59520, Note_on_c, 0, 67, 45
2, 59520, Note_on_c, 0, 71, 45
2, 59520, Note_on_c, 0, 73, 65
2, 59640, Note_on_c, 0, 73, 0
2, 59640, Note_on_c, 0, 74, 60
2, 59760, Note_on_c, 0, 74, 0
2, 59760, Note_on_c, 0, 75, 61
2, 59880, Note_on_c, 0, 75, 0
2, 59880, Note_on_c, 0, 76, 57
2, 60000, Note_on_c, 0, 76, 0
2, 60000, Note_on_c, 0, 71, 0
2, 60000, Note_on_c, 0, 67, 0
2, 60000, Note_on_c, 0, 78, 59
2, 60000, Note_on_c, 0, 70, 40
2, 60000, Note_on_c, 0, 67, 40
2, 60120, Note_on_c, 0, 78, 0
2, 60120, Note_on_c, 0, 76, 56
2, 60240, Note_on_c, 0, 76, 0
2, 60240, Note_on_c, 0, 78, 54
2, 60360, Note_on_c, 0, 78, 0
2, 60360, Note_on_c, 0, 79, 52
2, 60480, Note_on_c, 0, 79, 0
2, 60480, Note_on_c, 0, 67, 0
2, 60480, Note_on_c, 0, 70, 0
2, 60480, Note_on_c, 0, 66, 52
2, 60480, Note_on_c, 0, 78, 52
2, 60480, Note_on_c, 0, 72, 52
2, 60960, Note_on_c, 0, 72, 0
2, 60960, Note_on_c, 0, 78, 0
2, 60960, Note_on_c, 0, 66, 0
2, 60960, Note_on_c, 0, 71, 52
2, 60960, Note_on_c, 0, 64, 30
2, 60960, Note_on_c, 0, 68, 30
2, 61080, Note_on_c, 0, 71, 0
2, 61080, Note_on_c, 0, 72, 52
2, 61200, Note_on_c, 0, 72, 0
2, 61200, Note_on_c, 0, 68, 0
2, 61200, Note_on_c, 0, 64, 0
2, 61200, Note_on_c, 0, 73, 52
2, 61320, Note_on_c, 0, 73, 0
2, 61320, Note_on_c, 0, 74, 52
2, 61440, Note_on_c, 0, 74, 0
2, 61440, Note_on_c, 0, 66, 52
2, 61440, Note_on_c, 0, 72, 52
2, 61440, Note_on_c, 0, 78, 52
2, 61920, Note_on_c, 0, 78, 0
2, 61920, Note_on_c, 0, 72, 0
2, 61920, Note_on_c, 0, 66, 0
2, 61920, Note_on_c, 0, 64, 30
2, 61920, Note_on_c, 0, 68, 30
2, 61920, Note_on_c, 0, 71, 52
2, 62040, Note_on_c, 0, 71, 0
2, 62040, Note_on_c, 0, 72, 52
2, 62160, Note_on_c, 0, 72, 0
2, 62160, Note_on_c, 0, 68, 0
2, 62160, Note_on_c, 0, 64, 0
2, 62160, Note_on_c, 0, 73, 52
2, 62280, Note_on_c, 0, 73, 0
2, 62280, Note_on_c, 0, 74, 52
2, 62400, Note_on_c, 0, 74, 0
2, 62400, Note_on_c, 0, 81, 63
2, 62400, Note_on_c, 0, 73, 63
2, 62400, Note_on_c, 0, 67, 63
2, 62880, Note_on_c, 0, 67, 0
2, 62880, Note_on_c, 0, 73, 0
2, 62880, Note_on_c, 0, 81, 0
2, 62880, Note_on_c, 0, 66, 56
2, 62880, Note_on_c, 0, 73, 56
2, 62880, Note_on_c, 0, 75, 56
2, 63060, Note_on_c, 0, 75, 0
2, 63060, Note_on_c, 0, 73, 0
2, 63060, Note_on_c, 0, 66, 0
2, 63120, Note_on_c, 0, 85, 64
2, 63240, Note_on_c, 0, 85, 0
2, 63240, Note_on_c, 0, 83, 63
2, 63360, Note_on_c, 0, 83, 0
2, 63360, Note_on_c, 0, 81, 62
2, 63360, Note_on_c, 0, 73, 52
2, 63360, Note_on_c, 0, 67, 52
2, 63420, Note_on_c, 0, 81, 0
2, 63480, Note_on_c, 0, 79, 60
2, 63540, Note_on_c, 0, 79, 0
2, 63600, Note_on_c, 0, 78, 59
2, 63660, Note_on_c, 0, 78, 0
2, 63720, Note_on_c, 0, 76, 58
2, 63780, Note_on_c, 0, 76, 0
2, 63840, Note_on_c, 0, 67, 0
2, 63840, Note_on_c, 0, 73, 0
2, 63840, Note_on_c, 0, 66, 48
2, 63840, Note_on_c, 0, 75, 57
2, 63900, Note_on_c, 0, 75, 0
2, 63960, Note_on_c, 0, 73, 55
2, 64020, Note_on_c, 0, 73, 0
2, 64080, Note_on_c, 0, 66, 0
2, 64080, Note_on_c, 0, 71, 54
2, 64140, Note_on_c, 0, 71, 0
2, 64200, Note_on_c, 0, 69, 53
2, 64260, Note_on_c, 0, 69, 0
2, 64320, Note_on_c, 0, 67, 63
2, 64320, Note_on_c, 0, 73, 63
2, 64320, Note_on_c, 0, 81, 63
2, 64800, Note_on_c, 0, 81, 0
2, 64800, Note_on_c, 0, 73, 0
2, 64800, Note_on_c, 0, 67, 0
2, 64800, Note_on_c, 0, 66, 56
2, 64800, Note_on_c, 0, 73, 56
2, 64800, Note_on_c, 0, 75, 56
2, 64980, Note_on_c, 0, 75, 0
2, 64980, Note_on_c, 0, 73, 0
2, 64980, Note_on_c, 0, 66, 0
2, 65040, Note_on_c, 0, 88, 62
2, 65160, Note_on_c, 0, 88, 0
2, 65160, Note_on_c, 0, 87, 58
2, 65280, Note_on_c, 0, 87, 0
2, 65280, Note_on_c, 0, 67, 48
2, 65280, Note_on_c, 0, 73, 48
2, 65280, Note_on_c, 0, 85, 57
2, 65340, Note_on_c, 0, 85, 0
2, 65400, Note_on_c, 0, 83, 55
2, 65460, Note_on_c, 0, 83, 0
2, 65520, Note_on_c, 0, 81, 58
2, 65580, Note_on_c, 0, 81, 0
2, 65640, Note_on_c, 0, 79, 54
2, 65700, Note_on_c, 0, 79, 0
2, 65760, Note_on_c, 0, 73, 0
2, 65760, Note_on_c, 0, 67, 0
2, 65760, Note_on_c, 0, 78, 57
2, 65820, Note_on_c, 0, 78, 0
2, 65880, Note_on_c, 0, 76, 52
2, 65940, Note_on_c, 0, 76, 0
2, 66000, Note_on_c, 0, 75, 55
2, 66060, Note_on_c, 0, 75, 0
2, 66120, Note_on_c, 0, 73, 50
2, 66180, Note_on_c, 0, 73, 0
2, 66240, Note_on_c, 0, 80, 50
2, 66240, Note_on_c, 0, 71, 45
2, 66240, Note_on_c, 0, 68, 45
2, 66720, Note_on_c, 0, 68, 0
2, 66720, Note_on_c, 0, 71, 0
2, 66720, Note_on_c, 0, 80, 0
2, 66720, Note_on_c, 0, 75, 39
2, 66720, Note_on_c, 0, 71, 35
2, 66720, Note_on_c, 0, 66, 35
2, 66840, Note_on_c, 0, 66, 0
2, 66840, Note_on_c, 0, 71, 0
2, 66840, Note_on_c, 0, 75, 0
2, 67200, Note_on_c, 0, 68, 45
2, 67200, Note_on_c, 0, 71, 45
2, 67200, Note_on_c, 0, 80, 50
2, 67680, Note_on_c, 0, 80, 0
2, 67680, Note_on_c, 0, 71, 0
2, 67680, Note_on_c, 0, 68, 0
2, 67680, Note_on_c, 0, 66, 34
2, 67680, Note_on_c, 0, 71, 34
2, 67680, Note_on_c, 0, 75, 38
2, 67800, Note_on_c, 0, 75, 0
2, 67800, Note_on_c, 0, 71, 0
2, 67800, Note_on_c, 0, 66, 0
2, 68160, Note_on_c, 0, 88, 63
2, 68160, Note_on_c, 0, 76, 63
2, 68640, Note_on_c, 0, 76, 0
2, 68640, Note_on_c, 0, 88, 0
2, 68640, Note_on_c, 0, 75, 62
2, 68640, Note_on_c, 0, 87, 62
2, 68880, Note_on_c, 0, 87, 0
2, 68880, Note_on_c, 0, 75, 0
2, 68880, Note_on_c, 0, 73, 55
2, 68880, Note_on_c, 0, 85, 55
2, 69120, Note_on_c, 0, 85, 0
2, 69120, Note_on_c, 0, 73, 0
2, 69120, Note_on_c, 0, 67, 60
2, 69120, Note_on_c, 0, 79, 60
2, 69360, Note_on_c, 0, 79, 0
2, 69360, Note_on_c, 0, 67, 0
2, 69360, Note_on_c, 0, 68, 52
2, 69360, Note_on_c, 0, 80, 52
2, 69600, Note_on_c, 0, 80, 0
2, 69600, Note_on_c, 0, 68, 0
2, 69600, Note_on_c, 0, 73, 58
2, 69600, Note_on_c, 0, 85, 58
2, 69840, Note_on_c, 0, 85, 0
2, 69840, Note_on_c, 0, 73, 0
2, 69840, Note_on_c, 0, 75, 50
2, 69840, Note_on_c, 0, 87, 50
2, 70080, Note_on_c, 0, 87, 0
2, 70080, Note_on_c, 0, 75, 0
2, 70080, Note_on_c, 0, 66, 40
2, 70080, Note_on_c, 0, 71, 40
2, 70080, Note_on_c, 0, 78, 45
2, 70560, Note_on_c, 0, 78, 0
2, 70560, Note_on_c, 0, 71, 0
2, 70560, Note_on_c, 0, 66, 0
2, 70560, Note_on_c, 0, 65, 31
2, 70560, Note_on_c, 0, 71, 31
2, 70560, Note_on_c, 0, 75, 35
2, 70680, Note_on_c, 0, 75, 0
2, 70680, Note_on_c, 0, 71, 0
2, 70680, Note_on_c, 0, 65, 0
2, 71040, Note_on_c, 0, 78, 45
2, 71040, Note_on_c, 0, 71, 45
2, 71040, Note_on_c, 0, 66, 40
2, 71520, Note_on_c, 0, 66, 0
2, 71520, Note_on_c, 0, 71, 0
2, 71520, Note_on_c, 0, 78, 0
2, 71520, Note_on_c, 0, 75, 34
2, 71520, Note_on_c, 0, 71, 30
2, 71520, Note_on_c, 0, 65, 30
2, 71640, Note_on_c, 0, 65, 0
2, 71640, Note_on_c, 0, 71, 0
2, 71640, Note_on_c, 0, 75, 0
2, 72000, Note_on_c, 0, 66, 33
2, 72000, Note_on_c, 0, 71, 33
2, 72000, Note_on_c, 0, 78, 45
2, 72240, Note_on_c, 0, 78, 0
2, 72240, Note_on_c, 0, 80, 50
2, 72360, Note_on_c, 0, 80, 0
2, 72360, Note_on_c, 0, 78, 48
2, 72480, Note_on_c, 0, 78, 0
2, 72480, Note_on_c, 0, 71, 0
2, 72480, Note_on_c, 0, 66, 0
2, 72480, Note_on_c, 0, 77, 48
2, 72480, Note_on_c, 0, 71, 27
2, 72480, Note_on_c, 0, 65, 27
2, 72540, Note_on_c, 0, 77, 0
2, 72600, Note_on_c, 0, 75, 47
2, 72660, Note_on_c, 0, 75, 0
2, 72720, Note_on_c, 0, 65, 0
2, 72720, Note_on_c, 0, 71, 0
2, 72720, Note_on_c, 0, 74, 46
2, 72780, Note_on_c, 0, 74, 0
2, 72840, Note_on_c, 0, 75, 46
2, 72900, Note_on_c, 0, 75, 0
2, 72960, Note_on_c, 0, 66, 37
2, 72960, Note_on_c, 0, 71, 37
2, 72960, Note_on_c, 0, 77, 45
2, 73020, Note_on_c, 0, 77, 0
2, 73080, Note_on_c, 0, 75, 45
2, 73140, Note_on_c, 0, 75, 0
2, 73200, Note_on_c, 0, 78, 46
2, 73260, Note_on_c, 0, 78, 0
2, 73320, Note_on_c, 0, 77, 45
2, 73380, Note_on_c, 0, 77, 0
2, 73440, Note_on_c, 0, 71, 0
2, 73440, Note_on_c, 0, 66, 0
2, 73440, Note_on_c, 0, 80, 48
2, 73440, Note_on_c, 0, 71, 27
2, 73440, Note_on_c, 0, 65, 27
2, 73500, Note_on_c, 0, 80, 0
2, 73560, Note_on_c, 0, 78, 45
2, 73620, Note_on_c, 0, 78, 0
2, 73680, Note_on_c, 0, 65, 0
2, 73680, Note_on_c, 0, 71, 0
2, 73680, Note_on_c, 0, 77, 46
2, 73740, Note_on_c, 0, 77, 0
2, 73800, Note_on_c, 0, 75, 45
2, 73860, Note_on_c, 0, 75, 0
2, 73920, Note_on_c, 0, 70, 45
2, 73920, Note_on_c, 0, 78, 45
2, 73920, Note_on_c, 0, 66, 45
2, 74400, Note_on_c, 0, 78, 0
2, 74400, Note_on_c, 0, 70, 0
2, 74400, Note_on_c, 0, 75, 45
2, 74400, Note_on_c, 0, 71, 45
2, 74640, Note_on_c, 0, 71, 0
2, 74640, Note_on_c, 0, 75, 0
2, 74640, Note_on_c, 0, 66, 0
2, 75120, Note_on_c, 0, 74, 36
2, 75240, Note_on_c, 0, 74, 0
2, 75240, Note_on_c, 0, 75, 36
2, 75360, Note_on_c, 0, 75, 0
2, 75360, Note_on_c, 0, 77, 35
2, 75480, Note_on_c, 0, 77, 0
2, 75480, Note_on_c, 0, 78, 35
2, 75600, Note_on_c, 0, 78, 0
2, 75600, Note_on_c, 0, 82, 34
2, 75720, Note_on_c, 0, 82, 0
2, 75720, Note_on_c, 0, 83, 33
2, 75840, Note_on_c, 0, 83, 0
2, 75840, Note_on_c, 0, 78, 30
2, 75840, Note_on_c, 0, 83, 30
2, 75840, Note_on_c, 0, 90, 30
2, 75960, Note_on_c, 0, 90, 0
2, 75960, Note_on_c, 0, 83, 0
2, 75960, Note_on_c, 0, 78, 0
2, 75960, End_track
3, 0, Start_track
3, 0, Title_t, "Piano left"
3, 0, Program_c, 0, 0
3, 0, Control_c, 0, 7, 100
3, 0, Control_c, 0, 10, 64
3, 0, Control_c, 0, 91, 127
3, 960, Note_on_c, 0, 39, 67
3, 960, Note_on_c, 0, 27, 56
3, 1440, Note_on_c, 0, 27, 0
3, 1440, Note_on_c, 0, 39, 0
3, 1440, Note_on_c, 0, 46, 65
3, 1440, Note_on_c, 0, 34, 55
3, 1920, Note_on_c, 0, 34, 0
3, 1920, Note_on_c, 0, 46, 0
3, 1920, Note_on_c, 0, 47, 62
3, 1920, Note_on_c, 0, 35, 52
3, 2400, Note_on_c, 0, 35, 0
3, 2400, Note_on_c, 0, 47, 0
3, 2400, Note_on_c, 0, 34, 56
3, 2400, Note_on_c, 0, 46, 67
3, 2880, Note_on_c, 0, 46, 0
3, 2880, Note_on_c, 0, 34, 0
3, 2880, Note_on_c, 0, 47, 64
3, 2880, Note_on_c, 0, 35, 54
3, 3360, Note_on_c, 0, 35, 0
3, 3360, Note_on_c, 0, 47, 0
3, 3360, Note_on_c, 0, 39, 61
3, 3360, Note_on_c, 0, 27, 51
3, 3840, Note_on_c, 0, 27, 0
3, 3840, Note_on_c, 0, 39, 0
3, 3840, Note_on_c, 0, 40, 62
3, 3840, Note_on_c, 0, 28, 52
3, 4320, Note_on_c, 0, 28, 0
3, 4320, Note_on_c, 0, 40, 0
3, 4320, Note_on_c, 0, 29, 46
3, 4320, Note_on_c, 0, 41, 55
3, 4800, Note_on_c, 0, 41, 0
3, 4800, Note_on_c, 0, 29, 0
3, 4800, Note_on_c, 0, 30, 45
3, 4800, Note_on_c, 0, 42, 54
3, 5250, Note_on_c, 0, 42, 0
3, 5250, Note_on_c, 0, 30, 0
3, 5280, Control_c, 0, 91, 127
3, 5281, Note_on_c, 0, 44, 76
3, 5281, Note_on_c, 0, 32, 64
3, 5760, Note_on_c, 0, 42, 75
3, 5760, Note_on_c, 0, 30, 63
3, 5761, Note_on_c, 0, 32, 0
3, 5761, Note_on_c, 0, 44, 0
3, 6240, Note_on_c, 0, 42, 0
3, 6240, Note_on_c, 0, 30, 0
3, 6240, Note_on_c, 0, 47, 76
3, 6240, Note_on_c, 0, 35, 64
3, 6720, Note_on_c, 0, 35, 0
3, 6720, Note_on_c, 0, 47, 0
3, 6720, Note_on_c, 0, 37, 65
3, 6720, Note_on_c, 0, 49, 77
3, 6960, Note_on_c, 0, 49, 0
3, 6960, Note_on_c, 0, 37, 0
3, 6960, Note_on_c, 0, 54, 66
3, 6960, Note_on_c, 0, 42, 66
3, 7200, Note_on_c, 0, 42, 0
3, 7200, Note_on_c, 0, 54, 0
3, 7200, Note_on_c, 0, 51, 74
3, 7200, Note_on_c, 0, 39, 62
3, 7680, Note_on_c, 0, 39, 0
3, 7680, Note_on_c, 0, 51, 0
3, 7680, Note_on_c, 0, 49, 77
3, 7680, Note_on_c, 0, 37, 65
3, 7920, Note_on_c, 0, 37, 0
3, 7920, Note_on_c, 0, 49, 0
3, 7920, Note_on_c, 0, 42, 56
3, 7920, Note_on_c, 0, 54, 67
3, 8160, Note_on_c, 0, 54, 0
3, 8160, Note_on_c, 0, 42, 0
3, 8160, Note_on_c, 0, 39, 63
3, 8160, Note_on_c, 0, 51, 75
3, 8640, Note_on_c, 0, 51, 0
3, 8640, Note_on_c, 0, 39, 0
3, 8640, Note_on_c, 0, 47, 75
3, 8640, Note_on_c, 0, 35, 63
3, 9120, Note_on_c, 0, 35, 0
3, 9120, Note_on_c, 0, 47, 0
3, 9120, Note_on_c, 0, 49, 76
3, 9120, Note_on_c, 0, 37, 64
3, 9600, Note_on_c, 0, 37, 0
3, 9600, Note_on_c, 0, 49, 0
3, 9600, Note_on_c, 0, 44, 69
3, 9600, Note_on_c, 0, 32, 58
3, 10080, Note_on_c, 0, 32, 0
3, 10080, Note_on_c, 0, 44, 0
3, 10080, Note_on_c, 0, 42, 69
3, 10080, Note_on_c, 0, 30, 58
3, 10530, Note_on_c, 0, 30, 0
3, 10530, Note_on_c, 0, 42, 0
3, 11520, Note_on_c, 0, 41, 60
3, 11520, Note_on_c, 0, 53, 71
3, 12480, Note_on_c, 0, 53, 0
3, 12480, Note_on_c, 0, 41, 0
3, 12480, Note_on_c, 0, 52, 70
3, 12480, Note_on_c, 0, 40, 59
3, 13440, Note_on_c, 0, 40, 0
3, 13440, Note_on_c, 0, 52, 0
3, 13440, Note_on_c, 0, 51, 68
3, 13440, Note_on_c, 0, 39, 57
3, 14880, Note_on_c, 0, 39, 0
3, 14880, Note_on_c, 0, 51, 0
3, 14880, Note_on_c, 0, 41, 47
3, 14880, Note_on_c, 0, 53, 56
3, 15360, Note_on_c, 0, 53, 0
3, 15360, Note_on_c, 0, 41, 0
3, 15360, Note_on_c, 0, 42, 45
3, 15360, Note_on_c, 0, 54, 53
3, 15810, Note_on_c, 0, 54, 0
3, 15810, Note_on_c, 0, 42, 0
3, 15840, Note_on_c, 0, 54, 53
3, 16320, Note_on_c, 0, 54, 0
3, 16320, Note_on_c, 0, 56, 52
3, 16800, Note_on_c, 0, 56, 0
3, 16800, Note_on_c, 0, 49, 51
3, 17280, Note_on_c, 0, 49, 0
3, 17280, Note_on_c, 0, 54, 41
3, 17520, Note_on_c, 0, 54, 0
3, 17520, Note_on_c, 0, 56, 36
3, 17760, Note_on_c, 0, 56, 0
3, 17760, Note_on_c, 0, 49, 41
3, 18240, Note_on_c, 0, 49, 0
3, 20160, Note_on_c, 0, 63, 37
3, 20160, Note_on_c, 0, 59, 37
3, 20640, Note_on_c, 0, 59, 0
3, 20640, Note_on_c, 0, 63, 0
3, 20640, Note_on_c, 0, 56, 28
3, 20640, Note_on_c, 0, 63, 28
3, 20760, Note_on_c, 0, 63, 0
3, 20760, Note_on_c, 0, 56, 0
3, 21120, Note_on_c, 0, 63, 37
3, 21120, Note_on_c, 0, 59, 37
3, 21600, Note_on_c, 0, 59, 0
3, 21600, Note_on_c, 0, 63, 0
3, 21600, Note_on_c, 0, 63, 27
3, 21600, Note_on_c, 0, 56, 27
3, 21720, Note_on_c, 0, 56, 0
3, 21720, Note_on_c, 0, 63, 0
3, 22080, Note_on_c, 0, 59, 37
3, 22080, Note_on_c, 0, 63, 37
3, 22560, Note_on_c, 0, 63, 0
3, 22560, Note_on_c, 0, 59, 0
3, 22560, Note_on_c, 0, 56, 27
3, 22560, Note_on_c, 0, 63, 27
3, 22800, Note_on_c, 0, 63, 0
3, 22800, Note_on_c, 0, 56, 0
3, 23040, Note_on_c, 0, 63, 37
3, 23040, Note_on_c, 0, 59, 37
3, 23520, Note_on_c, 0, 59, 0
3, 23520, Note_on_c, 0, 63, 0
3, 23520, Note_on_c, 0, 63, 27
3, 23520, Note_on_c, 0, 56, 27
3, 23760, Note_on_c, 0, 56, 0
3, 23760, Note_on_c, 0, 63, 0
3, 24000, Note_on_c, 0, 63, 37
3, 24000, Note_on_c, 0, 59, 37
3, 24480, Note_on_c, 0, 59, 0
3, 24480, Note_on_c, 0, 63, 0
3, 24480, Note_on_c, 0, 56, 28
3, 24480, Note_on_c, 0, 63, 28
3, 24600, Note_on_c, 0, 63, 0
3, 24600, Note_on_c, 0, 56, 0
3, 24960, Note_on_c, 0, 59, 37
3, 24960, Note_on_c, 0, 63, 37
3, 25440, Note_on_c, 0, 63, 0
3, 25440, Note_on_c, 0, 59, 0
3, 25440, Note_on_c, 0, 63, 27
3, 25440, Note_on_c, 0, 56, 27
3, 25560, Note_on_c, 0, 56, 0
3, 25560, Note_on_c, 0, 63, 0
3, 25920, Note_on_c, 0, 59, 37
3, 25920, Note_on_c, 0, 63, 37
3, 26400, Note_on_c, 0, 63, 0
3, 26400, Note_on_c, 0, 59, 0
3, 26400, Note_on_c, 0, 63, 27
3, 26400, Note_on_c, 0, 56, 27
3, 26640, Note_on_c, 0, 56, 0
3, 26640, Note_on_c, 0, 63, 0
3, 26880, Note_on_c, 0, 63, 37
3, 26880, Note_on_c, 0, 59, 37
3, 27360, Note_on_c, 0, 59, 0
3, 27360, Note_on_c, 0, 63, 0
3, 27360, Note_on_c, 0, 56, 27
3, 27360, Note_on_c, 0, 63, 27
3, 27600, Note_on_c, 0, 63, 0
3, 27600, Note_on_c, 0, 56, 0
3, 27840, Note_on_c, 0, 49, 37
3, 27840, Note_on_c, 0, 65, 37
3, 28320, Note_on_c, 0, 65, 0
3, 28320, Note_on_c, 0, 49, 0
3, 28320, Note_on_c, 0, 63, 28
3, 28320, Note_on_c, 0, 56, 28
3, 28440, Note_on_c, 0, 56, 0
3, 28440, Note_on_c, 0, 63, 0
3, 28800, Note_on_c, 0, 49, 37
3, 28800, Note_on_c, 0, 65, 37
3, 29280, Note_on_c, 0, 65, 0
3, 29280, Note_on_c, 0, 49, 0
3, 29280, Note_on_c, 0, 56, 27
3, 29280, Note_on_c, 0, 63, 27
3, 29400, Note_on_c, 0, 63, 0
3, 29400, Note_on_c, 0, 56, 0
3, 29760, Note_on_c, 0, 65, 37
3, 29760, Note_on_c, 0, 49, 37
3, 30240, Note_on_c, 0, 49, 0
3, 30240, Note_on_c, 0, 65, 0
3, 30240, Note_on_c, 0, 63, 27
3, 30240, Note_on_c, 0, 56, 27
3, 30480, Note_on_c, 0, 56, 0
3, 30480, Note_on_c, 0, 63, 0
3, 30720, Note_on_c, 0, 49, 37
3, 30720, Note_on_c, 0, 65, 37
3, 31200, Note_on_c, 0, 65, 0
3, 31200, Note_on_c, 0, 49, 0
3, 31200, Note_on_c, 0, 63, 27
3, 31200, Note_on_c, 0, 56, 27
3, 31440, Note_on_c, 0, 56, 0
3, 31440, Note_on_c, 0, 63, 0
3, 31680, Note_on_c, 0, 65, 37
3, 31680, Note_on_c, 0, 49, 37
3, 32160, Note_on_c, 0, 49, 0
3, 32160, Note_on_c, 0, 65, 0
3, 32160, Note_on_c, 0, 63, 28
3, 32160, Note_on_c, 0, 56, 28
3, 32280, Note_on_c, 0, 56, 0
3, 32280, Note_on_c, 0, 63, 0
3, 32640, Note_on_c, 0, 49, 37
3, 32640, Note_on_c, 0, 65, 37
3, 33120, Note_on_c, 0, 65, 0
3, 33120, Note_on_c, 0, 49, 0
3, 33120, Note_on_c, 0, 63, 27
3, 33120, Note_on_c, 0, 56, 27
3, 33240, Note_on_c, 0, 56, 0
3, 33240, Note_on_c, 0, 63, 0
3, 33600, Note_on_c, 0, 49, 41
3, 33600, Note_on_c, 0, 64, 41
3, 33600, Note_on_c, 0, 57, 41
3, 34080, Note_on_c, 0, 64, 0
3, 34080, Note_on_c, 0, 63, 33
3, 34200, Note_on_c, 0, 63, 0
3, 34200, Note_on_c, 0, 57, 0
3, 34200, Note_on_c, 0, 49, 0
3, 34560, Note_on_c, 0, 49, 46
3, 34560, Note_on_c, 0, 57, 46
3, 34560, Note_on_c, 0, 64, 46
3, 35040, Note_on_c, 0, 64, 0
3, 35040, Note_on_c, 0, 63, 31
3, 35280, Note_on_c, 0, 63, 0
3, 35280, Note_on_c, 0, 57, 0
3, 35280, Note_on_c, 0, 49, 0
3, 35520, Note_on_c, 0, 57, 46
3, 35520, Note_on_c, 0, 64, 46
3, 35520, Note_on_c, 0, 49, 46
3, 36000, Note_on_c, 0, 64, 0
3, 36000, Note_on_c, 0, 63, 37
3, 36120, Note_on_c, 0, 63, 0
3, 36120, Note_on_c, 0, 49, 0
3, 36120, Note_on_c, 0, 57, 0
3, 36480, Note_on_c, 0, 49, 46
3, 36480, Note_on_c, 0, 64, 46
3, 36480, Note_on_c, 0, 57, 46
3, 36960, Note_on_c, 0, 64, 0
3, 36960, Note_on_c, 0, 63, 31
3, 37200, Note_on_c, 0, 63, 0
3, 37200, Note_on_c, 0, 57, 0
3, 37200, Note_on_c, 0, 49, 0
3, 38400, Note_on_c, 0, 56, 51
3, 38520, Note_on_c, 0, 56, 0
3, 38520, Note_on_c, 0, 57, 51
3, 38640, Note_on_c, 0, 57, 0
3, 38640, Note_on_c, 0, 58, 50
3, 38760, Note_on_c, 0, 58, 0
3, 38760, Note_on_c, 0, 59, 49
3, 38880, Note_on_c, 0, 59, 0
3, 38880, Note_on_c, 0, 60, 48
3, 39000, Note_on_c, 0, 60, 0
3, 39000, Note_on_c, 0, 61, 47
3, 39120, Note_on_c, 0, 61, 0
3, 39120, Note_on_c, 0, 64, 47
3, 39240, Note_on_c, 0, 64, 0
3, 39240, Note_on_c, 0, 65, 46
3, 39360, Note_on_c, 0, 65, 0
3, 39360, Note_on_c, 0, 59, 37
3, 39360, Note_on_c, 0, 63, 37
3, 39840, Note_on_c, 0, 63, 0
3, 39840, Note_on_c, 0, 59, 0
3, 39840, Note_on_c, 0, 63, 28
3, 39840, Note_on_c, 0, 56, 28
3, 39960, Note_on_c, 0, 56, 0
3, 39960, Note_on_c, 0, 63, 0
3, 40320, Note_on_c, 0, 59, 37
3, 40320, Note_on_c, 0, 63, 37
3, 40800, Note_on_c, 0, 63, 0
3, 40800, Note_on_c, 0, 59, 0
3, 40800, Note_on_c, 0, 63, 27
3, 40800, Note_on_c, 0, 56, 27
3, 40920, Note_on_c, 0, 56, 0
3, 40920, Note_on_c, 0, 63, 0
3, 41280, Note_on_c, 0, 63, 37
3, 41280, Note_on_c, 0, 59, 37
3, 41334, Control_c, 0, 64, 127
3, 41760, Note_on_c, 0, 59, 0
3, 41760, Note_on_c, 0, 63, 0
3, 41760, Note_on_c, 0, 63, 27
3, 41760, Note_on_c, 0, 56, 27
3, 41768, Control_c, 0, 64, 0
3, 42000, Note_on_c, 0, 56, 0
3, 42000, Note_on_c, 0, 63, 0
3, 42240, Note_on_c, 0, 59, 37
3, 42240, Note_on_c, 0, 63, 37
3, 42720, Note_on_c, 0, 63, 0
3, 42720, Note_on_c, 0, 59, 0
3, 42720, Note_on_c, 0, 56, 27
3, 42720, Note_on_c, 0, 63, 27
3, 42960, Note_on_c, 0, 63, 0
3, 42960, Note_on_c, 0, 56, 0
3, 43200, Note_on_c, 0, 58, 50
3, 43320, Note_on_c, 0, 58, 0
3, 43320, Note_on_c, 0, 59, 50
3, 43440, Note_on_c, 0, 59, 0
3, 43440, Note_on_c, 0, 62, 50
3, 43560, Note_on_c, 0, 62, 0
3, 43560, Note_on_c, 0, 63, 50
3, 43680, Note_on_c, 0, 63, 0
3, 43680, Note_on_c, 0, 65, 43
3, 43800, Note_on_c, 0, 65, 0
3, 43800, Note_on_c, 0, 66, 42
3, 43920, Note_on_c, 0, 66, 0
3, 43920, Note_on_c, 0, 70, 40
3, 44040, Note_on_c, 0, 70, 0
3, 44040, Note_on_c, 0, 71, 39
3, 44160, Note_on_c, 0, 71, 0
3, 44160, Note_on_c, 0, 74, 37
3, 44280, Note_on_c, 0, 74, 0
3, 44280, Note_on_c, 0, 75, 35
3, 44400, Note_on_c, 0, 75, 0
3, 44400, Note_on_c, 0, 77, 34
3, 44520, Note_on_c, 0, 77, 0
3, 44520, Note_on_c, 0, 78, 32
3, 44640, Note_on_c, 0, 78, 0
3, 45120, Note_on_c, 0, 66, 47
3, 45120, Note_on_c, 0, 63, 47
3, 45840, Note_on_c, 0, 63, 0
3, 45840, Note_on_c, 0, 66, 0
3, 45840, Note_on_c, 0, 63, 44
3, 45840, Note_on_c, 0, 66, 44
3, 46080, Note_on_c, 0, 66, 0
3, 46080, Note_on_c, 0, 63, 0
3, 46080, Note_on_c, 0, 66, 48
3, 46080, Note_on_c, 0, 62, 48
3, 46560, Note_on_c, 0, 62, 0
3, 46560, Note_on_c, 0, 66, 0
3, 46560, Note_on_c, 0, 62, 44
3, 46560, Note_on_c, 0, 66, 44
3, 46800, Note_on_c, 0, 66, 0
3, 46800, Note_on_c, 0, 62, 0
3, 46800, Note_on_c, 0, 66, 44
3, 46800, Note_on_c, 0, 62, 44
3, 47040, Note_on_c, 0, 62, 0
3, 47040, Note_on_c, 0, 66, 0
3, 47040, Note_on_c, 0, 63, 48
3, 47040, Note_on_c, 0, 66, 48
3, 48000, Note_on_c, 0, 66, 0
3, 48000, Note_on_c, 0, 63, 0
3, 48000, Note_on_c, 0, 66, 44
3, 48000, Note_on_c, 0, 62, 44
3, 48720, Note_on_c, 0, 62, 0
3, 48720, Note_on_c, 0, 66, 0
3, 48960, Note_on_c, 0, 66, 47
3, 48960, Note_on_c, 0, 63, 47
3, 49920, Note_on_c, 0, 63, 0
3, 49920, Note_on_c, 0, 66, 0
3, 49920, Note_on_c, 0, 66, 47
3, 49920, Note_on_c, 0, 56, 47
3, 50880, Note_on_c, 0, 56, 0
3, 50880, Note_on_c, 0, 66, 0
3, 50880, Note_on_c, 0, 65, 36
3, 50880, Note_on_c, 0, 61, 36
3, 51360, Note_on_c, 0, 61, 0
3, 51360, Note_on_c, 0, 65, 0
3, 51360, Note_on_c, 0, 66, 33
3, 51360, Note_on_c, 0, 56, 33
3, 51600, Note_on_c, 0, 56, 0
3, 51600, Note_on_c, 0, 66, 0
3, 51840, Note_on_c, 0, 65, 37
3, 51840, Note_on_c, 0, 61, 37
3, 52320, Note_on_c, 0, 61, 0
3, 52320, Note_on_c, 0, 65, 0
3, 52320, Note_on_c, 0, 66, 34
3, 52320, Note_on_c, 0, 56, 34
3, 52560, Note_on_c, 0, 56, 0
3, 52560, Note_on_c, 0, 66, 0
3, 52800, Note_on_c, 0, 63, 47
3, 52800, Note_on_c, 0, 66, 47
3, 53520, Note_on_c, 0, 66, 0
3, 53520, Note_on_c, 0, 63, 0
3, 53520, Note_on_c, 0, 66, 44
3, 53520, Note_on_c, 0, 63, 44
3, 53760, Note_on_c, 0, 63, 0
3, 53760, Note_on_c, 0, 66, 0
3, 53760, Note_on_c, 0, 66, 48
3, 53760, Note_on_c, 0, 62, 48
3, 54240, Note_on_c, 0, 62, 0
3, 54240, Note_on_c, 0, 66, 0
3, 54240, Note_on_c, 0, 66, 44
3, 54240, Note_on_c, 0, 62, 44
3, 54480, Note_on_c, 0, 62, 0
3, 54480, Note_on_c, 0, 66, 0
3, 54480, Note_on_c, 0, 62, 44
3, 54480, Note_on_c, 0, 66, 44
3, 54720, Note_on_c, 0, 66, 0
3, 54720, Note_on_c, 0, 62, 0
3, 54720, Note_on_c, 0, 66, 48
3, 54720, Note_on_c, 0, 63, 48
3, 55680, Note_on_c, 0, 63, 0
3, 55680, Note_on_c, 0, 66, 0
3, 55680, Note_on_c, 0, 66, 44
3, 55680, Note_on_c, 0, 62, 44
3, 56400, Note_on_c, 0, 62, 0
3, 56400, Note_on_c, 0, 66, 0
3, 56640, Note_on_c, 0, 50, 50
3, 56640, Note_on_c, 0, 62, 50
3, 57120, Note_on_c, 0, 62, 0
3, 57120, Note_on_c, 0, 59, 45
3, 57600, Note_on_c, 0, 59, 0
3, 57600, Note_on_c, 0, 50, 0
3, 57600, Note_on_c, 0, 50, 45
3, 57600, Note_on_c, 0, 64, 45
3, 58080, Note_on_c, 0, 64, 0
3, 58080, Note_on_c, 0, 61, 42
3, 58560, Note_on_c, 0, 61, 0
3, 58560, Note_on_c, 0, 50, 0
3, 58560, Note_on_c, 0, 50, 50
3, 58560, Note_on_c, 0, 62, 50
3, 59040, Note_on_c, 0, 62, 0
3, 59040, Note_on_c, 0, 59, 45
3, 59520, Note_on_c, 0, 59, 0
3, 59520, Note_on_c, 0, 50, 0
3, 59520, Note_on_c, 0, 64, 48
3, 59520, Note_on_c, 0, 50, 48
3, 60000, Note_on_c, 0, 64, 0
3, 60000, Note_on_c, 0, 61, 42
3, 60240, Note_on_c, 0, 61, 0
3, 60240, Note_on_c, 0, 50, 0
3, 60480, Note_on_c, 0, 51, 39
3, 60480, Note_on_c, 0, 60, 39
3, 60960, Note_on_c, 0, 60, 0
3, 60960, Note_on_c, 0, 51, 0
3, 60960, Note_on_c, 0, 62, 27
3, 60960, Note_on_c, 0, 56, 27
3, 61200, Note_on_c, 0, 56, 0
3, 61200, Note_on_c, 0, 62, 0
3, 61440, Note_on_c, 0, 51, 38
3, 61440, Note_on_c, 0, 60, 38
3, 61920, Note_on_c, 0, 60, 0
3, 61920, Note_on_c, 0, 51, 0
3, 61920, Note_on_c, 0, 56, 27
3, 61920, Note_on_c, 0, 62, 27
3, 62160, Note_on_c, 0, 62, 0
3, 62160, Note_on_c, 0, 56, 0
3, 62400, Note_on_c, 0, 49, 45
3, 62400, Note_on_c, 0, 64, 45
3, 62400, Note_on_c, 0, 57, 45
3, 62880, Note_on_c, 0, 64, 0
3, 62880, Note_on_c, 0, 63, 34
3, 63000, Note_on_c, 0, 57, 0
3, 63000, Note_on_c, 0, 49, 0
3, 63060, Note_on_c, 0, 63, 0
3, 63360, Note_on_c, 0, 49, 43
3, 63360, Note_on_c, 0, 64, 43
3, 63360, Note_on_c, 0, 57, 43
3, 63840, Note_on_c, 0, 64, 0
3, 63840, Note_on_c, 0, 63, 28
3, 64080, Note_on_c, 0, 63, 0
3, 64080, Note_on_c, 0, 57, 0
3, 64080, Note_on_c, 0, 49, 0
3, 64320, Note_on_c, 0, 57, 45
3, 64320, Note_on_c, 0, 64, 45
3, 64320, Note_on_c, 0, 49, 45
3, 64800, Note_on_c, 0, 64, 0
3, 64800, Note_on_c, 0, 63, 34
3, 64920, Note_on_c, 0, 49, 0
3, 64920, Note_on_c, 0, 57, 0
3, 64980, Note_on_c, 0, 63, 0
3, 65280, Note_on_c, 0, 49, 43
3, 65280, Note_on_c, 0, 57, 43
3, 65280, Note_on_c, 0, 64, 43
3, 65760, Note_on_c, 0, 64, 0
3, 65760, Note_on_c, 0, 63, 28
3, 66000, Note_on_c, 0, 63, 0
3, 66000, Note_on_c, 0, 57, 0
3, 66000, Note_on_c, 0, 49, 0
3, 66240, Note_on_c, 0, 65, 37
3, 66240, Note_on_c, 0, 49, 37
3, 66720, Note_on_c, 0, 49, 0
3, 66720, Note_on_c, 0, 65, 0
3, 66720, Note_on_c, 0, 56, 28
3, 66720, Note_on_c, 0, 63, 28
3, 66840, Note_on_c, 0, 63, 0
3, 66840, Note_on_c, 0, 56, 0
3, 67200, Note_on_c, 0, 49, 37
3, 67200, Note_on_c, 0, 65, 37
3, 67680, Note_on_c, 0, 65, 0
3, 67680, Note_on_c, 0, 49, 0
3, 67680, Note_on_c, 0, 63, 27
3, 67680, Note_on_c, 0, 56, 27
3, 67800, Note_on_c, 0, 56, 0
3, 67800, Note_on_c, 0, 63, 0
3, 68160, Note_on_c, 0, 54, 57
3, 68280, Note_on_c, 0, 54, 0
3, 68280, Note_on_c, 0, 55, 56
3, 68400, Note_on_c, 0, 55, 0
3, 68400, Note_on_c, 0, 56, 55
3, 68520, Note_on_c, 0, 56, 0
3, 68520, Note_on_c, 0, 57, 53
3, 68640, Note_on_c, 0, 57, 0
3, 68640, Note_on_c, 0, 58, 52
3, 68760, Note_on_c, 0, 58, 0
3, 68760, Note_on_c, 0, 59, 50
3, 68880, Note_on_c, 0, 59, 0
3, 68880, Note_on_c, 0, 61, 48
3, 69000, Note_on_c, 0, 61, 0
3, 69000, Note_on_c, 0, 63, 46
3, 69120, Note_on_c, 0, 63, 0
3, 69120, Note_on_c, 0, 64, 46
3, 69240, Note_on_c, 0, 64, 0
3, 69240, Note_on_c, 0, 59, 45
3, 69360, Note_on_c, 0, 59, 0
3, 69360, Note_on_c, 0, 60, 44
3, 69480, Note_on_c, 0, 60, 0
3, 69480, Note_on_c, 0, 61, 42
3, 69600, Note_on_c, 0, 61, 0
3, 69600, Note_on_c, 0, 64, 41
3, 69720, Note_on_c, 0, 64, 0
3, 69720, Note_on_c, 0, 65, 40
3, 69840, Note_on_c, 0, 65, 0
3, 69840, Note_on_c, 0, 66, 38
3, 69960, Note_on_c, 0, 66, 0
3, 69960, Note_on_c, 0, 67, 37
3, 70080, Note_on_c, 0, 67, 0
3, 70080, Note_on_c, 0, 59, 33
3, 70080, Note_on_c, 0, 63, 33
3, 70560, Note_on_c, 0, 63, 0
3, 70560, Note_on_c, 0, 59, 0
3, 70560, Note_on_c, 0, 63, 25
3, 70560, Note_on_c, 0, 56, 25
3, 70680, Note_on_c, 0, 56, 0
3, 70680, Note_on_c, 0, 63, 0
3, 71040, Note_on_c, 0, 59, 33
3, 71040, Note_on_c, 0, 63, 33
3, 71520, Note_on_c, 0, 63, 0
3, 71520, Note_on_c, 0, 59, 0
3, 71520, Note_on_c, 0, 56, 24
3, 71520, Note_on_c, 0, 63, 24
3, 71640, Note_on_c, 0, 63, 0
3, 71640, Note_on_c, 0, 56, 0
3, 72000, Note_on_c, 0, 63, 33
3, 72000, Note_on_c, 0, 59, 33
3, 72480, Note_on_c, 0, 59, 0
3, 72480, Note_on_c, 0, 63, 0
3, 72480, Note_on_c, 0, 63, 24
3, 72480, Note_on_c, 0, 56, 24
3, 72720, Note_on_c, 0, 56, 0
3, 72720, Note_on_c, 0, 63, 0
3, 72960, Note_on_c, 0, 59, 33
3, 72960, Note_on_c, 0, 63, 33
3, 73440, Note_on_c, 0, 63, 0
3, 73440, Note_on_c, 0, 59, 0
3, 73440, Note_on_c, 0, 56, 24
3, 73440, Note_on_c, 0, 63, 24
3, 73680, Note_on_c, 0, 63, 0
3, 73680, Note_on_c, 0, 56, 0
3, 73920, Note_on_c, 0, 58, 45
3, 74040, Note_on_c, 0, 58, 0
3, 74040, Note_on_c, 0, 59, 45
3, 74160, Note_on_c, 0, 59, 0
3, 74160, Note_on_c, 0, 62, 45
3, 74280, Note_on_c, 0, 62, 0
3, 74280, Note_on_c, 0, 63, 45
3, 74400, Note_on_c, 0, 63, 0
3, 74400, Note_on_c, 0, 65, 41
3, 74520, Note_on_c, 0, 65, 0
3, 74520, Note_on_c, 0, 66, 40
3, 74640, Note_on_c, 0, 66, 0
3, 74640, Note_on_c, 0, 70, 39
3, 74760, Note_on_c, 0, 70, 0
3, 74760, Note_on_c, 0, 71, 38
3, 74880, Note_on_c, 0, 71, 0
3, 74880, Note_on_c, 0, 74, 37
3, 75000, Note_on_c, 0, 74, 0
3, 75000, Note_on_c, 0, 75, 36
3, 75120, Note_on_c, 0, 75, 0
3, 75120, Note_on_c, 0, 71, 32
3, 75240, Note_on_c, 0, 71, 0
3, 75360, Note_on_c, 0, 66, 32
3, 75480, Note_on_c, 0, 66, 0
3, 75600, Note_on_c, 0, 63, 31
3, 75720, Note_on_c, 0, 63, 0
3, 75840, Note_on_c, 0, 66, 25
3, 75840, Note_on_c, 0, 75, 25
3, 75840, Note_on_c, 0, 71, 25
3, 75960, Note_on_c, 0, 71, 0
3, 75960, Note_on_c, 0, 75, 0
3, 75960, Note_on_c, 0, 66, 0
3, 75960, End_track
4, 0, Start_track
4, 0, Title_t, "Pedal"
4, 80, Control_c, 0, 64, 127
4, 493, Control_c, 0, 64, 0
4, 617, Control_c, 0, 64, 127
4, 966, Control_c, 0, 64, 0
4, 1132, Control_c, 0, 64, 127
4, 1453, Control_c, 0, 64, 0
4, 1635, Control_c, 0, 64, 127
4, 1934, Control_c, 0, 64, 0
4, 2080, Control_c, 0, 64, 127
4, 2400, Control_c, 0, 64, 0
4, 2537, Control_c, 0, 64, 127
4, 2893, Control_c, 0, 64, 0
4, 3040, Control_c, 0, 64, 127
4, 3371, Control_c, 0, 64, 0
4, 3555, Control_c, 0, 64, 127
4, 3853, Control_c, 0, 64, 0
4, 3989, Control_c, 0, 64, 127
4, 4331, Control_c, 0, 64, 0
4, 4503, Control_c, 0, 64, 127
4, 4813, Control_c, 0, 64, 0
4, 4972, Control_c, 0, 64, 127
4, 5189, Control_c, 0, 64, 0
4, 5417, Control_c, 0, 64, 127
4, 5773, Control_c, 0, 64, 0
4, 5875, Control_c, 0, 64, 127
4, 6254, Control_c, 0, 64, 0
4, 6435, Control_c, 0, 64, 127
4, 6734, Control_c, 0, 64, 0
4, 6869, Control_c, 0, 64, 127
4, 7213, Control_c, 0, 64, 0
4, 7372, Control_c, 0, 64, 127
4, 7684, Control_c, 0, 64, 0
4, 7783, Control_c, 0, 64, 127
4, 8174, Control_c, 0, 64, 0
4, 8320, Control_c, 0, 64, 127
4, 8655, Control_c, 0, 64, 0
4, 8812, Control_c, 0, 64, 127
4, 9134, Control_c, 0, 64, 0
4, 9292, Control_c, 0, 64, 127
4, 9609, Control_c, 0, 64, 0
4, 9737, Control_c, 0, 64, 127
4, 10093, Control_c, 0, 64, 0
4, 10252, Control_c, 0, 64, 127
4, 10435, Control_c, 0, 64, 0
4, 10687, Control_c, 0, 64, 127
4, 11049, Control_c, 0, 64, 0
4, 11181, Control_c, 0, 64, 127
4, 11530, Control_c, 0, 64, 0
4, 11661, Control_c, 0, 64, 127
4, 12012, Control_c, 0, 64, 0
4, 12198, Control_c, 0, 64, 127
4, 12494, Control_c, 0, 64, 0
4, 12748, Control_c, 0, 64, 127
4, 12968, Control_c, 0, 64, 0
4, 13086, Control_c, 0, 64, 127
4, 13454, Control_c, 0, 64, 0
4, 13589, Control_c, 0, 64, 127
4, 13852, Control_c, 0, 64, 0
4, 14012, Control_c, 0, 64, 127
4, 14892, Control_c, 0, 64, 0
4, 15029, Control_c, 0, 64, 127
4, 15374, Control_c, 0, 64, 0
4, 15555, Control_c, 0, 64, 127
4, 15715, Control_c, 0, 64, 0
4, 20263, Control_c, 0, 64, 127
4, 20675, Control_c, 0, 64, 0
4, 21200, Control_c, 0, 64, 127
4, 21692, Control_c, 0, 64, 0
4, 22155, Control_c, 0, 64, 127
4, 22572, Control_c, 0, 64, 0
4, 23560, Control_c, 0, 64, 127
4, 23783, Control_c, 0, 64, 0
4, 23820, Control_c, 0, 64, 127
4, 24017, Control_c, 0, 64, 0
4, 24126, Control_c, 0, 64, 127
4, 24635, Control_c, 0, 64, 0
4, 25029, Control_c, 0, 64, 127
4, 25555, Control_c, 0, 64, 0
4, 25955, Control_c, 0, 64, 127
4, 26409, Control_c, 0, 64, 0
4, 26900, Control_c, 0, 64, 127
4, 27123, Control_c, 0, 64, 0
4, 27166, Control_c, 0, 64, 127
4, 27366, Control_c, 0, 64, 0
4, 27409, Control_c, 0, 64, 127
4, 27610, Control_c, 0, 64, 0
4, 27660, Control_c, 0, 64, 127
4, 27868, Control_c, 0, 64, 0
4, 27904, Control_c, 0, 64, 127
4, 28461, Control_c, 0, 64, 0
4, 28871, Control_c, 0, 64, 127
4, 29400, Control_c, 0, 64, 0
4, 29792, Control_c, 0, 64, 127
4, 30243, Control_c, 0, 64, 0
4, 31252, Control_c, 0, 64, 127
4, 31457, Control_c, 0, 64, 0
4, 31486, Control_c, 0, 64, 127
4, 31680, Control_c, 0, 64, 0
4, 31850, Control_c, 0, 64, 127
4, 32337, Control_c, 0, 64, 0
4, 32718, Control_c, 0, 64, 127
4, 33261, Control_c, 0, 64, 0
4, 33643, Control_c, 0, 64, 127
4, 34195, Control_c, 0, 64, 0
4, 34606, Control_c, 0, 64, 127
4, 35052, Control_c, 0, 64, 0
4, 35572, Control_c, 0, 64, 127
4, 36120, Control_c, 0, 64, 0
4, 36529, Control_c, 0, 64, 127
4, 36968, Control_c, 0, 64, 0
4, 37469, Control_c, 0, 64, 127
4, 38419, Control_c, 0, 64, 0
4, 38455, Control_c, 0, 64, 127
4, 38653, Control_c, 0, 64, 0
4, 38695, Control_c, 0, 64, 127
4, 38892, Control_c, 0, 64, 0
4, 38937, Control_c, 0, 64, 127
4, 39132, Control_c, 0, 64, 0
4, 39166, Control_c, 0, 64, 127
4, 39368, Control_c, 0, 64, 0
4, 39509, Control_c, 0, 64, 127
4, 39966, Control_c, 0, 64, 0
4, 40372, Control_c, 0, 64, 127
4, 40932, Control_c, 0, 64, 0
4, 41335, Control_c, 0, 64, 127
4, 41765, Control_c, 0, 64, 0
4, 42757, Control_c, 0, 64, 127
4, 42968, Control_c, 0, 64, 0
4, 43006, Control_c, 0, 64, 127
4, 43200, Control_c, 0, 64, 0
4, 43269, Control_c, 0, 64, 127
4, 43697, Control_c, 0, 64, 0
4, 43749, Control_c, 0, 64, 127
4, 44171, Control_c, 0, 64, 0
4, 44229, Control_c, 0, 64, 127
4, 44600, Control_c, 0, 64, 0
4, 45200, Control_c, 0, 64, 127
4, 46088, Control_c, 0, 64, 0
4, 46229, Control_c, 0, 64, 127
4, 46578, Control_c, 0, 64, 0
4, 46697, Control_c, 0, 64, 127
4, 47052, Control_c, 0, 64, 0
4, 47143, Control_c, 0, 64, 127
4, 48009, Control_c, 0, 64, 0
4, 48083, Control_c, 0, 64, 127
4, 48975, Control_c, 0, 64, 0
4, 49177, Control_c, 0, 64, 127
4, 49929, Control_c, 0, 64, 0
4, 50115, Control_c, 0, 64, 127
4, 50414, Control_c, 0, 64, 0
4, 50617, Control_c, 0, 64, 127
4, 50883, Control_c, 0, 64, 0
4, 51052, Control_c, 0, 64, 127
4, 51373, Control_c, 0, 64, 0
4, 51486, Control_c, 0, 64, 127
4, 51844, Control_c, 0, 64, 0
4, 52012, Control_c, 0, 64, 127
4, 52325, Control_c, 0, 64, 0
4, 52457, Control_c, 0, 64, 127
4, 52802, Control_c, 0, 64, 0
4, 53006, Control_c, 0, 64, 127
4, 53765, Control_c, 0, 64, 0
4, 53932, Control_c, 0, 64, 127
4, 54254, Control_c, 0, 64, 0
4, 54435, Control_c, 0, 64, 127
4, 54720, Control_c, 0, 64, 0
4, 54875, Control_c, 0, 64, 127
4, 55691, Control_c, 0, 64, 0
4, 55829, Control_c, 0, 64, 127
4, 56644, Control_c, 0, 64, 0
4, 56755, Control_c, 0, 64, 127
4, 57609, Control_c, 0, 64, 0
4, 57698, Control_c, 0, 64, 127
4, 58090, Control_c, 0, 64, 0
4, 58195, Control_c, 0, 64, 127
4, 58561, Control_c, 0, 64, 0
4, 58664, Control_c, 0, 64, 127
4, 59526, Control_c, 0, 64, 0
4, 59635, Control_c, 0, 64, 127
4, 60012, Control_c, 0, 64, 0
4, 60109, Control_c, 0, 64, 127
4, 60481, Control_c, 0, 64, 0
4, 60595, Control_c, 0, 64, 127
4, 60972, Control_c, 0, 64, 0
4, 61081, Control_c, 0, 64, 127
4, 61447, Control_c, 0, 64, 0
4, 61544, Control_c, 0, 64, 127
4, 61926, Control_c, 0, 64, 0
4, 62035, Control_c, 0, 64, 127
4, 62407, Control_c, 0, 64, 0
4, 62489, Control_c, 0, 64, 127
4, 63001, Control_c, 0, 64, 0
4, 63149, Control_c, 0, 64, 127
4, 63368, Control_c, 0, 64, 0
4, 63397, Control_c, 0, 64, 127
4, 64337, Control_c, 0, 64, 0
4, 64426, Control_c, 0, 64, 127
4, 64906, Control_c, 0, 64, 0
4, 65063, Control_c, 0, 64, 127
4, 65291, Control_c, 0, 64, 0
4, 65335, Control_c, 0, 64, 127
4, 66255, Control_c, 0, 64, 0
4, 66388, Control_c, 0, 64, 127
4, 66861, Control_c, 0, 64, 0
4, 67292, Control_c, 0, 64, 127
4, 67807, Control_c, 0, 64, 0
4, 68172, Control_c, 0, 64, 127
4, 68654, Control_c, 0, 64, 0
4, 68703, Control_c, 0, 64, 127
4, 69137, Control_c, 0, 64, 0
4, 69177, Control_c, 0, 64, 127
4, 69617, Control_c, 0, 64, 0
4, 69680, Control_c, 0, 64, 127
4, 70089, Control_c, 0, 64, 0
4, 70166, Control_c, 0, 64, 127
4, 70692, Control_c, 0, 64, 0
4, 71097, Control_c, 0, 64, 127
4, 71623, Control_c, 0, 64, 0
4, 72029, Control_c, 0, 64, 127
4, 72490, Control_c, 0, 64, 0
4, 72543, Control_c, 0, 64, 127
4, 72723, Control_c, 0, 64, 0
4, 72752, Control_c, 0, 64, 127
4, 72969, Control_c, 0, 64, 0
4, 73003, Control_c, 0, 64, 127
4, 73219, Control_c, 0, 64, 0
4, 73255, Control_c, 0, 64, 127
4, 73452, Control_c, 0, 64, 0
4, 73489, Control_c, 0, 64, 127
4, 73694, Control_c, 0, 64, 0
4, 73715, Control_c, 0, 64, 127
4, 73920, Control_c, 0, 64, 0
4, 73989, Control_c, 0, 64, 127
4, 74406, Control_c, 0, 64, 0
4, 74475, Control_c, 0, 64, 127
4, 74891, Control_c, 0, 64, 0
4, 74960, Control_c, 0, 64, 127
4, 75297, Control_c, 0, 64, 0
4, 75297, End_track
5, 0, Start_track
5, 0, Title_t, "Modest Mussorgski: Bilder einer Ausstellung (3)"
5, 0, End_track
6, 0, Start_track
6, 0, Title_t, "Copyright © 2000 by Bernd Krüger"
6, 0, End_track
7, 0, Start_track
7, 0, Title_t, "http://www.piano-midi.de"
7, 0, End_track
8, 0, Start_track
8, 0, Title_t, "Edition: 2013-11-15"
8, 0, End_track
9, 0, Start_track
9, 0, Title_t, "Spur 8"
9, 0, End_track
0, 0, End_of_file
