0, 0, Header, 1, 17, 480
1, 0, Start_track
1, 0, Title_t, "Prelude Opus 32 No. 13"
1, 0, Copyright_t, "Copyright © 2008 by Bernd Krueger"
1, 0, Text_t, "Serge Rachmaninoff"
1, 0, Text_t, "Erstellt: 9.1.2008\012"
1, 0, Text_t, "Update: 23.12.2012\012"
1, 0, Text_t, "Dauer: 4:18 Minuten\012"
1, 0, Time_signature, 4, 2, 24, 8
1, 0, Key_signature, -5, "major"
1, 0, Tempo, 1448576
1, 0, Marker_t, "Grave"
1, 480, Tempo, 1448576
1, 720, Tempo, 1278772
1, 960, Tempo, 1431298
1, 1800, Tempo, 1278772
1, 1920, Tempo, 1414427
1, 2640, Tempo, 1306620
1, 2880, Tempo, 1414427
1, 3720, Tempo, 1252087
1, 3840, Tempo, 1414427
1, 4200, Tempo, 1822600
1, 4320, Tempo, 1397950
1, 4560, Tempo, 1239157
1, 4800, Tempo, 1381852
1, 5640, Tempo, 1265289
1, 5760, Tempo, 1431298
1, 6120, Tempo, 1226492
1, 6240, Tempo, 1397950
1, 6480, Tempo, 1321004
1, 6720, Tempo, 1381852
1, 7520, Tempo, 1603421
1, 7680, Tempo, 1448576
1, 8000, Tempo, 1366120
1, 8160, Tempo, 1431298
1, 8480, Tempo, 1541624
1, 8640, Tempo, 1350743
1, 8960, Tempo, 1448576
1, 9120, Tempo, 1414427
1, 9178, Tempo, 1431298
1, 9216, Tempo, 1448576
1, 9274, Tempo, 1466276
1, 9312, Tempo, 1484414
1, 9370, Tempo, 1503006
1, 9408, Tempo, 1522070
1, 9466, Tempo, 1541624
1, 9504, Tempo, 1561687
1, 9562, Tempo, 1582278
1, 9600, Tempo, 1448576
1, 10080, Tempo, 1448576
1, 10320, Tempo, 1278772
1, 10560, Tempo, 1431298
1, 11400, Tempo, 1278772
1, 11520, Tempo, 1414427
1, 12240, Tempo, 1306620
1, 12480, Tempo, 1414427
1, 13320, Tempo, 1252087
1, 13440, Tempo, 1414427
1, 13800, Tempo, 1670379
1, 13920, Tempo, 1397950
1, 14160, Tempo, 1239157
1, 14400, Tempo, 1381852
1, 15240, Tempo, 1265289
1, 15360, Tempo, 1103144
1, 15840, Tempo, 1414427
1, 16200, Tempo, 1582278
1, 16320, Tempo, 1397950
1, 16560, Tempo, 1239157
1, 16800, Tempo, 1381852
1, 17120, Tempo, 1582278
1, 17280, Tempo, 1381852
1, 17600, Tempo, 1381852
1, 17760, Tempo, 1431298
1, 18080, Tempo, 1541624
1, 19104, Tempo, 1561687
1, 19162, Tempo, 1582278
1, 19200, Tempo, 1001335
1, 19680, Tempo, 1001335
1, 19920, Tempo, 938673
1, 20040, Tempo, 1054111
1, 20160, Tempo, 1009761
1, 20400, Tempo, 938673
1, 20520, Tempo, 1044932
1, 20640, Tempo, 1009761
1, 20880, Tempo, 946074
1, 21000, Tempo, 1072961
1, 21120, Tempo, 1018330
1, 21360, Tempo, 946074
1, 21480, Tempo, 1082642
1, 21600, Tempo, 1009761
1, 22320, Tempo, 946074
1, 22440, Tempo, 1063453
1, 22560, Tempo, 1018330
1, 22800, Tempo, 946074
1, 22920, Tempo, 1082642
1, 23040, Tempo, 968992
1, 23280, Tempo, 910194
1, 23400, Tempo, 1044932
1, 23520, Tempo, 976880
1, 23760, Tempo, 910194
1, 23880, Tempo, 1018330
1, 24000, Tempo, 961230
1, 24240, Tempo, 883392
1, 24360, Tempo, 984898
1, 24480, Tempo, 938673
1, 24720, Tempo, 883392
1, 24840, Tempo, 993049
1, 24960, Tempo, 946074
1, 25200, Tempo, 896593
1, 25320, Tempo, 1001335
1, 25440, Tempo, 931388
1, 25680, Tempo, 883392
1, 25800, Tempo, 1018330
1, 25920, Tempo, 953592
1, 26160, Tempo, 910194
1, 26280, Tempo, 1009761
1, 26400, Tempo, 961230
1, 26640, Tempo, 883392
1, 26760, Tempo, 1009761
1, 26880, Tempo, 961230
1, 27120, Tempo, 883392
1, 27240, Tempo, 1027046
1, 27360, Tempo, 946074
1, 27600, Tempo, 876937
1, 27720, Tempo, 1001335
1, 27840, Tempo, 953592
1, 28080, Tempo, 883392
1, 28200, Tempo, 993049
1, 28320, Tempo, 946074
1, 28560, Tempo, 896593
1, 28680, Tempo, 1044932
1, 28800, Tempo, 1092498
1, 29520, Tempo, 984898
1, 29640, Tempo, 1155624
1, 30720, Time_signature, 2, 2, 24, 8
1, 31040, Tempo, 1035912
1, 31080, Tempo, 1144601
1, 31200, Tempo, 1112760
1, 31440, Tempo, 1054111
1, 31560, Tempo, 1190004
1, 31680, Time_signature, 4, 2, 24, 8
1, 31680, Tempo, 1448576
1, 32160, Tempo, 1448576
1, 32400, Tempo, 1278772
1, 32640, Tempo, 1431298
1, 33480, Tempo, 1278772
1, 33600, Tempo, 1414427
1, 34320, Tempo, 1306620
1, 34560, Tempo, 1414427
1, 35400, Tempo, 1252087
1, 35520, Tempo, 1414427
1, 35880, Tempo, 1822600
1, 36000, Tempo, 1397950
1, 36240, Tempo, 1306620
1, 36480, Tempo, 1503006
1, 36491, Tempo, 1522070
1, 36548, Tempo, 1541624
1, 36587, Tempo, 1561687
1, 36644, Tempo, 1582278
1, 36683, Tempo, 1603421
1, 36721, Tempo, 1625135
1, 36779, Tempo, 1647446
1, 36817, Tempo, 1670379
1, 36875, Tempo, 1693958
1, 36913, Tempo, 1718213
1, 36952, Tempo, 1743173
1, 37421, Tempo, 1001335
1, 37440, Key_signature, 3, "major"
1, 37440, Marker_t, "Meno mosso"
1, 37555, Tempo, 993049
1, 37690, Tempo, 984898
1, 37824, Tempo, 976880
1, 37959, Tempo, 968992
1, 38093, Tempo, 961230
1, 38227, Tempo, 953592
1, 38280, Tempo, 1112760
1, 38381, Tempo, 993049
1, 38477, Tempo, 984898
1, 38573, Tempo, 976880
1, 38650, Tempo, 968992
1, 38746, Tempo, 961230
1, 38823, Tempo, 953592
1, 38861, Tempo, 961230
1, 39015, Tempo, 968992
1, 39168, Tempo, 976880
1, 39303, Tempo, 984898
1, 40320, Tempo, 993049
1, 40359, Tempo, 984898
1, 40397, Tempo, 976880
1, 40416, Tempo, 968992
1, 40455, Tempo, 961230
1, 40474, Tempo, 953592
1, 40512, Tempo, 946074
1, 40531, Tempo, 931388
1, 40570, Tempo, 938673
1, 40608, Tempo, 946074
1, 40647, Tempo, 953592
1, 40685, Tempo, 961230
1, 40723, Tempo, 968992
1, 40781, Tempo, 1018330
1, 41280, Tempo, 1001335
1, 41520, Tempo, 1054111
1, 41760, Tempo, 1001335
1, 41779, Tempo, 993049
1, 41818, Tempo, 984898
1, 41856, Tempo, 976880
1, 41895, Tempo, 968992
1, 41914, Tempo, 961230
1, 42029, Tempo, 953592
1, 42048, Tempo, 961230
1, 42067, Tempo, 976880
1, 42087, Tempo, 993049
1, 42106, Tempo, 1009761
1, 42125, Tempo, 1027046
1, 42144, Tempo, 1044932
1, 42163, Tempo, 1063453
1, 42240, Tempo, 993049
1, 42259, Tempo, 1001335
1, 42336, Tempo, 993049
1, 42394, Tempo, 984898
1, 42451, Tempo, 976880
1, 42509, Tempo, 968992
1, 42567, Tempo, 961230
1, 42624, Tempo, 953592
1, 42720, Tempo, 984898
1, 42739, Tempo, 946074
1, 42816, Tempo, 953592
1, 42874, Tempo, 961230
1, 42951, Tempo, 968992
1, 43008, Tempo, 976880
1, 43085, Tempo, 984898
1, 43143, Tempo, 993049
1, 43162, Tempo, 984898
1, 43219, Tempo, 976880
1, 43277, Tempo, 968992
1, 43335, Tempo, 961230
1, 43392, Tempo, 953592
1, 43431, Tempo, 946074
1, 43560, Tempo, 1035912
1, 43680, Tempo, 993049
1, 44160, Tempo, 984898
1, 44280, Tempo, 1044932
1, 44520, Tempo, 924214
1, 44621, Tempo, 976880
1, 44775, Tempo, 968992
1, 44928, Tempo, 961230
1, 45063, Tempo, 946074
1, 45139, Tempo, 953592
1, 45216, Tempo, 961230
1, 45293, Tempo, 968992
1, 45351, Tempo, 976880
1, 45427, Tempo, 984898
1, 45504, Tempo, 993049
1, 45562, Tempo, 1001335
1, 45600, Tempo, 968992
1, 46080, Tempo, 953592
1, 46733, Tempo, 931388
1, 46771, Tempo, 938673
1, 46791, Tempo, 946074
1, 46810, Tempo, 953592
1, 46829, Tempo, 961230
1, 46848, Tempo, 968992
1, 46867, Tempo, 976880
1, 46887, Tempo, 984898
1, 46906, Tempo, 993049
1, 46925, Tempo, 1001335
1, 46944, Tempo, 1009761
1, 46963, Tempo, 1018330
1, 47040, Tempo, 968992
1, 47520, Tempo, 961230
1, 48000, Tempo, 946074
1, 48440, Tempo, 953592
1, 48482, Tempo, 1190004
1, 48489, Tempo, 1178319
1, 48495, Tempo, 1166861
1, 48501, Tempo, 1155624
1, 48507, Tempo, 1144601
1, 48513, Tempo, 1123175
1, 48519, Tempo, 1112760
1, 48525, Tempo, 1102536
1, 48531, Tempo, 1092498
1, 48537, Tempo, 1082642
1, 48543, Tempo, 1063453
1, 48549, Tempo, 1054111
1, 48555, Tempo, 1044932
1, 48561, Tempo, 1035912
1, 48567, Tempo, 1027046
1, 48574, Tempo, 1009761
1, 48580, Tempo, 1001335
1, 48586, Tempo, 993049
1, 48592, Tempo, 961230
1, 48604, Tempo, 953592
1, 48610, Tempo, 946074
1, 48622, Tempo, 938673
1, 48628, Tempo, 931388
1, 48777, Tempo, 931388
1, 48796, Tempo, 938673
1, 48815, Tempo, 953592
1, 48835, Tempo, 961230
1, 48854, Tempo, 976880
1, 48873, Tempo, 984898
1, 48892, Tempo, 1001335
1, 48911, Tempo, 1009761
1, 48931, Tempo, 1027046
1, 48960, Key_signature, -5, "major"
1, 49200, Tempo, 931388
1, 49440, Tempo, 902256
1, 50640, Tempo, 765111
1, 50760, Tempo, 946074
1, 50880, Tempo, 968992
1, 51120, Tempo, 869565
1, 51360, Tempo, 851064
1, 51840, Tempo, 833333
1, 52320, Tempo, 816327
1, 52560, Tempo, 755477
1, 52680, Tempo, 858124
1, 52800, Tempo, 805369
1, 53760, Tempo, 876937
1, 54000, Tempo, 794702
1, 54720, Tempo, 845070
1, 54960, Tempo, 779221
1, 55680, Tempo, 851064
1, 55920, Tempo, 779221
1, 56400, Tempo, 852031
1, 56520, Tempo, 984898
1, 56640, Tempo, 723589
1, 56640, Marker_t, "piu vivo"
1, 56760, Tempo, 1350743
1, 56877, Tempo, 662983
1, 56922, Tempo, 659341
1, 56952, Tempo, 655738
1, 56982, Tempo, 652174
1, 57012, Tempo, 648649
1, 57042, Tempo, 645161
1, 57072, Tempo, 641711
1, 57102, Tempo, 638298
1, 57147, Tempo, 641711
1, 57177, Tempo, 645161
1, 57222, Tempo, 648649
1, 57252, Tempo, 652174
1, 57297, Tempo, 655738
1, 57327, Tempo, 659341
1, 57357, Tempo, 662983
1, 57360, Tempo, 662983
1, 57807, Tempo, 655738
1, 57867, Tempo, 652174
1, 57927, Tempo, 648649
1, 57987, Tempo, 645161
1, 58047, Tempo, 641711
1, 58092, Tempo, 634921
1, 58137, Tempo, 638298
1, 58167, Tempo, 641711
1, 58212, Tempo, 645161
1, 58242, Tempo, 648649
1, 58272, Tempo, 652174
1, 58317, Tempo, 655738
1, 58347, Tempo, 659341
1, 58377, Tempo, 662983
1, 58797, Tempo, 659341
1, 58842, Tempo, 655738
1, 58887, Tempo, 652174
1, 58932, Tempo, 648649
1, 58977, Tempo, 645161
1, 59022, Tempo, 641711
1, 59037, Tempo, 634921
1, 59082, Tempo, 638298
1, 59127, Tempo, 641711
1, 59172, Tempo, 645161
1, 59217, Tempo, 648649
1, 59262, Tempo, 652174
1, 59307, Tempo, 655738
1, 59337, Tempo, 659341
1, 59682, Tempo, 655738
1, 59727, Tempo, 652174
1, 59772, Tempo, 648649
1, 59802, Tempo, 645161
1, 59847, Tempo, 641711
1, 59892, Tempo, 638298
1, 59922, Tempo, 634921
1, 59967, Tempo, 631579
1, 59982, Tempo, 621762
1, 60042, Tempo, 625000
1, 60102, Tempo, 628272
1, 60162, Tempo, 631579
1, 60222, Tempo, 634921
1, 60282, Tempo, 638298
1, 60312, Tempo, 641711
1, 60462, Tempo, 648649
1, 60480, Time_signature, 6, 2, 24, 8
1, 60717, Tempo, 634921
1, 60807, Tempo, 631579
1, 60882, Tempo, 628272
1, 60942, Tempo, 621762
1, 60972, Tempo, 618557
1, 61017, Tempo, 621762
1, 61047, Tempo, 625000
1, 61092, Tempo, 628272
1, 61122, Tempo, 631579
1, 61152, Tempo, 634921
1, 61197, Tempo, 638298
1, 61227, Tempo, 641711
1, 61257, Tempo, 645161
1, 61272, Tempo, 645161
1, 61440, Tempo, 674157
1, 61671, Tempo, 638298
1, 61709, Tempo, 634921
1, 61748, Tempo, 631579
1, 61786, Tempo, 628272
1, 61825, Tempo, 625000
1, 61844, Tempo, 621762
1, 61882, Tempo, 618557
1, 61921, Tempo, 615385
1, 61959, Tempo, 612245
1, 61978, Tempo, 609137
1, 62022, Tempo, 621762
1, 62036, Tempo, 612245
1, 62093, Tempo, 615385
1, 62132, Tempo, 618557
1, 62170, Tempo, 621762
1, 62209, Tempo, 625000
1, 62247, Tempo, 628272
1, 62285, Tempo, 631579
1, 62324, Tempo, 634921
1, 62622, Tempo, 634921
1, 62631, Tempo, 628272
1, 62669, Tempo, 625000
1, 62689, Tempo, 621762
1, 62708, Tempo, 618557
1, 62746, Tempo, 615385
1, 62765, Tempo, 612245
1, 62785, Tempo, 609137
1, 62823, Tempo, 606061
1, 62842, Tempo, 603015
1, 62861, Tempo, 591133
1, 62900, Tempo, 594059
1, 62938, Tempo, 597015
1, 62957, Tempo, 600000
1, 62996, Tempo, 603015
1, 63015, Tempo, 606061
1, 63053, Tempo, 609137
1, 63073, Tempo, 612245
1, 63111, Tempo, 615385
1, 63130, Tempo, 618557
1, 63341, Tempo, 615385
1, 63360, Time_signature, 4, 2, 24, 8
1, 63380, Tempo, 612245
1, 63418, Tempo, 609137
1, 63437, Tempo, 606061
1, 63476, Tempo, 603015
1, 63514, Tempo, 600000
1, 63533, Tempo, 597015
1, 63572, Tempo, 594059
1, 63610, Tempo, 591133
1, 63629, Tempo, 588235
1, 63668, Tempo, 585366
1, 63706, Tempo, 576923
1, 63764, Tempo, 579710
1, 63802, Tempo, 582524
1, 63841, Tempo, 585366
1, 63898, Tempo, 588235
1, 63937, Tempo, 591133
1, 63975, Tempo, 594059
1, 64033, Tempo, 597015
1, 64071, Tempo, 600000
1, 64109, Tempo, 603015
1, 64148, Tempo, 606061
1, 64513, Tempo, 603015
1, 64570, Tempo, 600000
1, 64609, Tempo, 597015
1, 64666, Tempo, 594059
1, 64705, Tempo, 591133
1, 64762, Tempo, 588235
1, 64801, Tempo, 585366
1, 64858, Tempo, 582524
1, 64897, Tempo, 579710
1, 64954, Tempo, 576923
1, 64993, Tempo, 574163
1, 65022, Tempo, 582524
1, 65052, Tempo, 585366
1, 65082, Tempo, 588235
1, 65112, Tempo, 591133
1, 65142, Tempo, 594059
1, 65172, Tempo, 597015
1, 65202, Tempo, 600000
1, 65232, Tempo, 603015
1, 65262, Tempo, 606061
1, 65502, Tempo, 600000
1, 65532, Tempo, 597015
1, 65562, Tempo, 594059
1, 65592, Tempo, 591133
1, 65607, Tempo, 588235
1, 65637, Tempo, 585366
1, 65667, Tempo, 582524
1, 65682, Tempo, 579710
1, 65712, Tempo, 576923
1, 65742, Tempo, 574163
1, 65757, Tempo, 571429
1, 65787, Tempo, 574163
1, 65817, Tempo, 576923
1, 65847, Tempo, 579710
1, 65862, Tempo, 582524
1, 65892, Tempo, 585366
1, 65922, Tempo, 588235
1, 65952, Tempo, 591133
1, 65967, Tempo, 594059
1, 66012, Tempo, 588235
1, 66042, Tempo, 591133
1, 66447, Tempo, 591133
1, 66477, Tempo, 588235
1, 66507, Tempo, 585366
1, 66522, Tempo, 582524
1, 66552, Tempo, 579710
1, 66582, Tempo, 576923
1, 66597, Tempo, 574163
1, 66627, Tempo, 571429
1, 66657, Tempo, 568720
1, 66672, Tempo, 566038
1, 66702, Tempo, 563380
1, 66717, Tempo, 555556
1, 66747, Tempo, 558140
1, 66777, Tempo, 560748
1, 66807, Tempo, 563380
1, 66837, Tempo, 566038
1, 66852, Tempo, 568720
1, 66882, Tempo, 571429
1, 66912, Tempo, 574163
1, 66942, Tempo, 576923
1, 66957, Tempo, 579710
1, 67002, Tempo, 576923
1, 67200, Time_signature, 6, 2, 24, 8
1, 67377, Tempo, 576923
1, 67437, Tempo, 574163
1, 67482, Tempo, 571429
1, 67527, Tempo, 568720
1, 67587, Tempo, 566038
1, 67632, Tempo, 563380
1, 67677, Tempo, 558140
1, 67722, Tempo, 560748
1, 67752, Tempo, 563380
1, 67797, Tempo, 566038
1, 67827, Tempo, 568720
1, 67872, Tempo, 571429
1, 67902, Tempo, 574163
1, 67932, Tempo, 576923
1, 68367, Tempo, 560748
1, 68382, Tempo, 574163
1, 68427, Tempo, 571429
1, 68472, Tempo, 568720
1, 68517, Tempo, 566038
1, 68562, Tempo, 563380
1, 68607, Tempo, 560748
1, 68637, Tempo, 552995
1, 68667, Tempo, 555556
1, 68697, Tempo, 558140
1, 68727, Tempo, 560748
1, 68757, Tempo, 563380
1, 68787, Tempo, 566038
1, 68817, Tempo, 568720
1, 68847, Tempo, 571429
1, 68877, Tempo, 574163
1, 69312, Tempo, 571429
1, 69372, Tempo, 568720
1, 69417, Tempo, 566038
1, 69462, Tempo, 563380
1, 69522, Tempo, 560748
1, 69567, Tempo, 558140
1, 69582, Tempo, 555556
1, 69612, Tempo, 558140
1, 69627, Tempo, 560748
1, 69657, Tempo, 563380
1, 69672, Tempo, 566038
1, 69687, Tempo, 568720
1, 69717, Tempo, 571429
1, 69732, Tempo, 574163
1, 69747, Tempo, 576923
1, 69777, Tempo, 579710
1, 69792, Tempo, 582524
1, 69807, Tempo, 585366
1, 69837, Tempo, 535714
1, 69852, Tempo, 538117
1, 69882, Tempo, 540541
1, 69912, Tempo, 542986
1, 69942, Tempo, 545455
1, 69957, Tempo, 547945
1, 69987, Tempo, 550459
1, 70017, Tempo, 552995
1, 70047, Tempo, 555556
1, 70062, Tempo, 558140
1, 70080, Time_signature, 4, 2, 24, 8
1, 70080, Key_signature, 4, "major"
1, 70440, Tempo, 618557
1, 70560, Tempo, 555556
1, 70920, Tempo, 594059
1, 71040, Tempo, 552995
1, 71400, Tempo, 588235
1, 71520, Tempo, 555556
1, 71880, Tempo, 606061
1, 72000, Tempo, 552995
1, 72360, Tempo, 597015
1, 72480, Tempo, 558140
1, 72840, Tempo, 600000
1, 72960, Tempo, 547945
1, 73320, Tempo, 603015
1, 73440, Tempo, 545455
1, 73800, Tempo, 591133
1, 73920, Tempo, 545455
1, 74280, Tempo, 585366
1, 74400, Tempo, 542986
1, 74760, Tempo, 585366
1, 74880, Tempo, 545455
1, 75240, Tempo, 582524
1, 75360, Tempo, 542986
1, 75720, Tempo, 585366
1, 75840, Tempo, 597015
1, 76800, Tempo, 600060
1, 77760, Tempo, 628338
1, 78240, Tempo, 655738
1, 78690, Tempo, 641780
1, 78696, Tempo, 674157
1, 78734, Tempo, 677966
1, 78773, Tempo, 681818
1, 78811, Tempo, 685714
1, 78849, Tempo, 689655
1, 78869, Tempo, 693642
1, 78907, Tempo, 697674
1, 78945, Tempo, 701754
1, 78984, Tempo, 705882
1, 79003, Tempo, 710059
1, 79041, Tempo, 714286
1, 79080, Tempo, 718563
1, 79118, Tempo, 722892
1, 79137, Tempo, 727273
1, 79176, Tempo, 731707
1, 79214, Tempo, 736196
1, 79253, Tempo, 740741
1, 79272, Tempo, 745342
1, 79310, Tempo, 750000
1, 79349, Tempo, 754717
1, 79387, Tempo, 759494
1, 79406, Tempo, 764331
1, 79445, Tempo, 769231
1, 79483, Tempo, 774194
1, 79521, Tempo, 779221
1, 79541, Tempo, 784314
1, 79579, Tempo, 789474
1, 79617, Tempo, 794702
1, 79656, Tempo, 800000
1, 79675, Tempo, 805369
1, 79680, Key_signature, -5, "major"
1, 79680, Tempo, 1224740
1, 79680, Marker_t, "Grave"
1, 80040, Tempo, 1062135
1, 80160, Tempo, 1200240
1, 80400, Tempo, 1071620
1, 80640, Tempo, 1143075
1, 81000, Tempo, 1154068
1, 81120, Tempo, 1121705
1, 81480, Tempo, 1318971
1, 81600, Tempo, 1200240
1, 81960, Tempo, 1091107
1, 82080, Tempo, 1188354
1, 82320, Tempo, 1091107
1, 82560, Tempo, 1143075
1, 83040, Tempo, 1143075
1, 83400, Tempo, 1318971
1, 83520, Tempo, 1200240
1, 83880, Tempo, 1091107
1, 84000, Tempo, 1188354
1, 84240, Tempo, 1091107
1, 84480, Tempo, 1132289
1, 84960, Tempo, 1121705
1, 85320, Tempo, 1276867
1, 85440, Tempo, 1200240
1, 85800, Tempo, 1091107
1, 85920, Tempo, 1188354
1, 86160, Tempo, 1091107
1, 86400, Tempo, 1132289
1, 86880, Tempo, 1121705
1, 87240, Tempo, 1276867
1, 87360, Tempo, 1200240
1, 87720, Tempo, 1091107
1, 87840, Tempo, 1188354
1, 88080, Tempo, 1091107
1, 88320, Tempo, 1132289
1, 88800, Tempo, 1121705
1, 89160, Tempo, 1276867
1, 89280, Tempo, 1200240
1, 89640, Tempo, 1091107
1, 89760, Tempo, 1188354
1, 90000, Tempo, 1091107
1, 90240, Tempo, 1132289
1, 90720, Tempo, 1121705
1, 91080, Tempo, 1276867
1, 91200, Tempo, 1200240
1, 91560, Tempo, 1091107
1, 91680, Tempo, 1188354
1, 91920, Tempo, 1091107
1, 92160, Tempo, 1132289
1, 92640, Tempo, 1121705
1, 93000, Tempo, 1276867
1, 93120, Tempo, 1200240
1, 93480, Tempo, 1091107
1, 93600, Tempo, 1188354
1, 93840, Tempo, 1091107
1, 94080, Tempo, 1132289
1, 94560, Tempo, 1121705
1, 94920, Tempo, 1276867
1, 95040, Tempo, 1200240
1, 95280, Tempo, 1072961
1, 95520, Tempo, 1054111
1, 95760, Tempo, 1035912
1, 95880, Tempo, 1214083
1, 96000, Tempo, 1112760
1, 96240, Tempo, 1072961
1, 96480, Tempo, 1054111
1, 96600, Tempo, 1018330
1, 96840, Tempo, 1112760
1, 96960, Tempo, 1082642
1, 97200, Tempo, 1054111
1, 97440, Tempo, 1054111
1, 97680, Tempo, 1035912
1, 97800, Tempo, 1252087
1, 97920, Tempo, 1112760
1, 98160, Tempo, 1072961
1, 98400, Tempo, 1054111
1, 98520, Tempo, 1018330
1, 98760, Tempo, 1112760
1, 99120, Tempo, 1001335
1, 99720, Tempo, 1121495
1, 99840, Tempo, 1000000
1, 100200, Tempo, 1100917
1, 100320, Tempo, 1008403
1, 100680, Tempo, 1142857
1, 100800, Tempo, 1000000
1, 101160, Tempo, 1071429
1, 101280, Tempo, 1000000
1, 101640, Tempo, 1071429
1, 101760, Tempo, 1000000
1, 102120, Tempo, 1100917
1, 102240, Tempo, 991736
1, 102600, Tempo, 1100917
1, 102720, Tempo, 1000000
1, 103080, Tempo, 1111111
1, 103200, Tempo, 991736
1, 103560, Tempo, 1090909
1, 103680, Tempo, 991736
1, 104040, Tempo, 1111111
1, 104160, Tempo, 991736
1, 104520, Tempo, 1100917
1, 104640, Tempo, 991736
1, 105000, Tempo, 1081081
1, 105120, Tempo, 991736
1, 105480, Tempo, 1111111
1, 105600, Tempo, 991736
1, 105960, Tempo, 1100917
1, 106080, Tempo, 991736
1, 106440, Tempo, 1176471
1, 106560, Tempo, 991736
1, 106920, Tempo, 1100917
1, 107040, Tempo, 991736
1, 107400, Tempo, 1100917
1, 107505, Tempo, 1121495
1, 107520, Tempo, 1100917
1, 107580, Tempo, 1052632
1, 107670, Tempo, 1043478
1, 107760, Tempo, 1034483
1, 107850, Tempo, 1025641
1, 107940, Tempo, 1016949
1, 108030, Tempo, 1008403
1, 108120, Tempo, 1000000
1, 108210, Tempo, 991736
1, 108300, Tempo, 983607
1, 108390, Tempo, 975610
1, 108400, Tempo, 1348315
1, 108480, Tempo, 1121495
1, 108555, Tempo, 1034483
1, 108645, Tempo, 1025641
1, 108720, Tempo, 1016949
1, 108795, Tempo, 1008403
1, 108870, Tempo, 1000000
1, 108960, Tempo, 991736
1, 109035, Tempo, 983607
1, 109110, Tempo, 975610
1, 109185, Tempo, 967742
1, 109260, Tempo, 960000
1, 109280, Tempo, 960000
1, 109360, Tempo, 1304348
1, 109440, Tempo, 1100917
1, 109530, Tempo, 983607
1, 109905, Tempo, 983607
1, 109950, Tempo, 991736
1, 109980, Tempo, 1000000
1, 110010, Tempo, 1008403
1, 110055, Tempo, 1016949
1, 110085, Tempo, 1025641
1, 110115, Tempo, 1034483
1, 110145, Tempo, 1043478
1, 110190, Tempo, 1052632
1, 110220, Tempo, 1061947
1, 110250, Tempo, 1071429
1, 110280, Tempo, 1081081
1, 110295, Tempo, 1081081
1, 110320, Tempo, 1250000
1, 110400, Tempo, 1027573
1, 110560, Tempo, 903751
1, 110800, Tempo, 910609
1, 110880, Tempo, 877321
1, 111040, Tempo, 931822
1, 111120, Tempo, 877321
1, 111360, Tempo, 870954
1, 111600, Tempo, 852394
1, 111760, Tempo, 917571
1, 111840, Tempo, 846382
1, 112240, Tempo, 903751
1, 112320, Time_signature, 2, 2, 24, 8
1, 112320, Tempo, 877321
1, 112560, Tempo, 896995
1, 112800, Tempo, 924642
1, 113040, Tempo, 946522
1, 113052, Tempo, 954047
1, 113067, Tempo, 961693
1, 113082, Tempo, 969462
1, 113097, Tempo, 985383
1, 113112, Tempo, 993542
1, 113127, Tempo, 1010271
1, 113142, Tempo, 1018849
1, 113157, Tempo, 1036448
1, 113172, Tempo, 1045478
1, 113187, Tempo, 1054667
1, 113202, Tempo, 1073537
1, 113217, Tempo, 1083228
1, 113232, Tempo, 1103144
1, 113247, Tempo, 1113379
1, 113262, Tempo, 1134430
1, 113280, Time_signature, 4, 2, 24, 8
1, 113280, Tempo, 1001837
1, 113520, Tempo, 917571
1, 114000, Tempo, 1001837
1, 114480, Tempo, 931822
1, 114960, Tempo, 1010271
1, 115440, Tempo, 946522
1, 115680, Tempo, 1036448
1, 116880, Tempo, 1123806
1, 117120, Tempo, 1695394
1, 117360, Tempo, 1001837
1, 117405, Tempo, 1010271
1, 117435, Tempo, 1018849
1, 117465, Tempo, 1027573
1, 117495, Tempo, 1036448
1, 117525, Tempo, 1045478
1, 117555, Tempo, 1054667
1, 117585, Tempo, 1064018
1, 117630, Tempo, 1073537
1, 117660, Tempo, 1083228
1, 117690, Tempo, 1093095
1, 117720, Tempo, 1103144
1, 117750, Tempo, 1113379
1, 117780, Tempo, 1123806
1, 117810, Tempo, 1134430
1, 117960, Tempo, 1351656
1, 118080, Tempo, 1351656
1, 118080, End_track
2, 0, Start_track
2, 0, Title_t, "Piano right"
2, 0, Program_c, 0, 0
2, 0, Note_on_c, 0, 53, 40
2, 0, Note_on_c, 0, 56, 40
2, 0, Note_on_c, 0, 65, 59
2, 357, Note_on_c, 0, 65, 0
2, 357, Note_on_c, 0, 56, 0
2, 357, Note_on_c, 0, 53, 0
2, 360, Note_on_c, 0, 56, 35
2, 360, Note_on_c, 0, 61, 35
2, 360, Note_on_c, 0, 68, 53
2, 474, Note_on_c, 0, 68, 0
2, 474, Note_on_c, 0, 61, 0
2, 474, Note_on_c, 0, 56, 0
2, 480, Note_on_c, 0, 61, 43
2, 480, Note_on_c, 0, 65, 43
2, 480, Note_on_c, 0, 73, 64
2, 1680, Note_on_c, 0, 73, 0
2, 1680, Note_on_c, 0, 65, 0
2, 1680, Note_on_c, 0, 61, 0
2, 1680, Note_on_c, 0, 56, 36
2, 1680, Note_on_c, 0, 60, 36
2, 1680, Note_on_c, 0, 68, 55
2, 1908, Note_on_c, 0, 68, 0
2, 1908, Note_on_c, 0, 60, 0
2, 1908, Note_on_c, 0, 56, 0
2, 1920, Note_on_c, 0, 56, 40
2, 1920, Note_on_c, 0, 61, 59
2, 2277, Note_on_c, 0, 61, 0
2, 2277, Note_on_c, 0, 56, 0
2, 2280, Note_on_c, 0, 60, 35
2, 2280, Note_on_c, 0, 56, 35
2, 2280, Note_on_c, 0, 63, 35
2, 2280, Note_on_c, 0, 68, 53
2, 2400, Note_on_c, 0, 68, 0
2, 2400, Note_on_c, 0, 60, 0
2, 2400, Note_on_c, 0, 56, 0
2, 2400, Note_on_c, 0, 63, 0
2, 2400, Note_on_c, 0, 68, 43
2, 2400, Note_on_c, 0, 61, 43
2, 2400, Note_on_c, 0, 65, 43
2, 2400, Note_on_c, 0, 73, 64
2, 3600, Note_on_c, 0, 73, 0
2, 3600, Note_on_c, 0, 68, 0
2, 3600, Note_on_c, 0, 61, 0
2, 3600, Note_on_c, 0, 65, 0
2, 3600, Note_on_c, 0, 56, 31
2, 3600, Note_on_c, 0, 63, 31
2, 3600, Note_on_c, 0, 68, 46
2, 3840, Note_on_c, 0, 68, 0
2, 3840, Note_on_c, 0, 63, 0
2, 3840, Note_on_c, 0, 56, 0
2, 3840, Note_on_c, 0, 53, 33
2, 3840, Note_on_c, 0, 58, 33
2, 3840, Note_on_c, 0, 61, 51
2, 4200, Note_on_c, 0, 61, 0
2, 4200, Note_on_c, 0, 58, 0
2, 4200, Note_on_c, 0, 53, 0
2, 4200, Note_on_c, 0, 60, 32
2, 4200, Note_on_c, 0, 53, 32
2, 4200, Note_on_c, 0, 65, 49
2, 4260, Note_on_c, 0, 53, 0
2, 4260, Note_on_c, 0, 60, 0
2, 4260, Note_on_c, 0, 53, 37
2, 4260, Note_on_c, 0, 61, 37
2, 4320, Note_on_c, 0, 65, 0
2, 4320, Note_on_c, 0, 70, 56
2, 5520, Note_on_c, 0, 70, 0
2, 5520, Note_on_c, 0, 61, 0
2, 5520, Note_on_c, 0, 53, 0
2, 5520, Note_on_c, 0, 60, 31
2, 5520, Note_on_c, 0, 56, 31
2, 5520, Note_on_c, 0, 63, 31
2, 5520, Note_on_c, 0, 68, 46
2, 5758, Note_on_c, 0, 68, 0
2, 5758, Note_on_c, 0, 60, 0
2, 5758, Note_on_c, 0, 56, 0
2, 5758, Note_on_c, 0, 63, 0
2, 5760, Note_on_c, 0, 53, 34
2, 5760, Note_on_c, 0, 48, 34
2, 5760, Note_on_c, 0, 56, 52
2, 6120, Note_on_c, 0, 56, 0
2, 6120, Note_on_c, 0, 48, 0
2, 6120, Note_on_c, 0, 53, 0
2, 6120, Note_on_c, 0, 58, 34
2, 6120, Note_on_c, 0, 54, 34
2, 6120, Note_on_c, 0, 61, 51
2, 6240, Note_on_c, 0, 61, 0
2, 6240, Note_on_c, 0, 54, 0
2, 6240, Note_on_c, 0, 58, 0
2, 6240, Note_on_c, 0, 56, 40
2, 6240, Note_on_c, 0, 63, 40
2, 6240, Note_on_c, 0, 66, 59
2, 7520, Note_on_c, 0, 66, 0
2, 7520, Note_on_c, 0, 63, 0
2, 7520, Note_on_c, 0, 56, 0
2, 7520, Note_on_c, 0, 56, 32
2, 7520, Note_on_c, 0, 58, 32
2, 7520, Note_on_c, 0, 65, 49
2, 7680, Note_on_c, 0, 56, 0
2, 7680, Note_on_c, 0, 55, 36
2, 8000, Note_on_c, 0, 55, 0
2, 8000, Note_on_c, 0, 65, 0
2, 8000, Note_on_c, 0, 58, 0
2, 8000, Note_on_c, 0, 63, 40
2, 8000, Note_on_c, 0, 58, 27
2, 8000, Note_on_c, 0, 54, 27
2, 8480, Note_on_c, 0, 54, 0
2, 8480, Note_on_c, 0, 58, 0
2, 8480, Note_on_c, 0, 63, 0
2, 8480, Note_on_c, 0, 53, 27
2, 8480, Note_on_c, 0, 58, 27
2, 8480, Note_on_c, 0, 61, 40
2, 8640, Note_on_c, 0, 61, 0
2, 8640, Note_on_c, 0, 58, 0
2, 8640, Note_on_c, 0, 53, 0
2, 8640, Note_on_c, 0, 51, 24
2, 8640, Note_on_c, 0, 56, 24
2, 8640, Note_on_c, 0, 60, 36
2, 9600, Note_on_c, 0, 60, 0
2, 9600, Note_on_c, 0, 56, 0
2, 9600, Note_on_c, 0, 51, 0
2, 9600, Note_on_c, 0, 54, 33
2, 9600, Note_on_c, 0, 61, 50
2, 9957, Note_on_c, 0, 61, 0
2, 9957, Note_on_c, 0, 54, 0
2, 9960, Note_on_c, 0, 61, 29
2, 9960, Note_on_c, 0, 65, 29
2, 9960, Note_on_c, 0, 68, 45
2, 10080, Note_on_c, 0, 68, 0
2, 10080, Note_on_c, 0, 65, 0
2, 10080, Note_on_c, 0, 61, 0
2, 10080, Note_on_c, 0, 63, 38
2, 10080, Note_on_c, 0, 66, 38
2, 10080, Note_on_c, 0, 73, 57
2, 11280, Note_on_c, 0, 73, 0
2, 11280, Note_on_c, 0, 66, 0
2, 11280, Note_on_c, 0, 63, 0
2, 11280, Note_on_c, 0, 60, 32
2, 11280, Note_on_c, 0, 68, 49
2, 11520, Note_on_c, 0, 68, 0
2, 11520, Note_on_c, 0, 60, 0
2, 11520, Note_on_c, 0, 61, 56
2, 11877, Note_on_c, 0, 61, 0
2, 11880, Note_on_c, 0, 61, 33
2, 11880, Note_on_c, 0, 65, 33
2, 11880, Note_on_c, 0, 68, 40
2, 12000, Note_on_c, 0, 68, 0
2, 12000, Note_on_c, 0, 65, 0
2, 12000, Note_on_c, 0, 61, 0
2, 12000, Note_on_c, 0, 66, 38
2, 12000, Note_on_c, 0, 63, 38
2, 12000, Note_on_c, 0, 73, 57
2, 13200, Note_on_c, 0, 73, 0
2, 13200, Note_on_c, 0, 63, 0
2, 13200, Note_on_c, 0, 66, 0
2, 13200, Note_on_c, 0, 60, 31
2, 13200, Note_on_c, 0, 68, 46
2, 13440, Note_on_c, 0, 68, 0
2, 13440, Note_on_c, 0, 60, 0
2, 13440, Note_on_c, 0, 56, 32
2, 13440, Note_on_c, 0, 61, 48
2, 13800, Note_on_c, 0, 61, 0
2, 13800, Note_on_c, 0, 56, 0
2, 13800, Note_on_c, 0, 57, 32
2, 13800, Note_on_c, 0, 65, 49
2, 13920, Note_on_c, 0, 65, 0
2, 13920, Note_on_c, 0, 57, 0
2, 13920, Note_on_c, 0, 58, 37
2, 13920, Note_on_c, 0, 64, 37
2, 13920, Note_on_c, 0, 70, 56
2, 15120, Note_on_c, 0, 70, 0
2, 15120, Note_on_c, 0, 64, 0
2, 15120, Note_on_c, 0, 58, 0
2, 15120, Note_on_c, 0, 59, 28
2, 15120, Note_on_c, 0, 56, 28
2, 15120, Note_on_c, 0, 65, 28
2, 15120, Note_on_c, 0, 68, 41
2, 15840, Note_on_c, 0, 68, 0
2, 15840, Note_on_c, 0, 59, 0
2, 15840, Note_on_c, 0, 56, 0
2, 15840, Note_on_c, 0, 65, 0
2, 15840, Note_on_c, 0, 54, 27
2, 15840, Note_on_c, 0, 58, 41
2, 16160, Note_on_c, 0, 58, 0
2, 16160, Note_on_c, 0, 54, 0
2, 16160, Note_on_c, 0, 56, 36
2, 16160, Note_on_c, 0, 61, 45
2, 16320, Note_on_c, 0, 61, 0
2, 16320, Note_on_c, 0, 56, 0
2, 16320, Note_on_c, 0, 58, 36
2, 16320, Note_on_c, 0, 66, 53
2, 17120, Note_on_c, 0, 66, 0
2, 17120, Note_on_c, 0, 58, 0
2, 17120, Note_on_c, 0, 58, 27
2, 17120, Note_on_c, 0, 61, 41
2, 17280, Note_on_c, 0, 61, 0
2, 17280, Note_on_c, 0, 58, 0
2, 17280, Note_on_c, 0, 58, 41
2, 17280, Note_on_c, 0, 60, 49
2, 17760, Note_on_c, 0, 58, 0
2, 17760, Note_on_c, 0, 56, 41
2, 18720, Note_on_c, 0, 56, 0
2, 18720, Note_on_c, 0, 54, 33
2, 19200, Note_on_c, 0, 54, 0
2, 19200, Note_on_c, 0, 60, 0
2, 19200, Note_on_c, 0, 53, 32
2, 19200, Note_on_c, 0, 58, 32
2, 19200, Note_on_c, 0, 61, 41
2, 19440, Note_on_c, 0, 65, 32
2, 19520, Note_on_c, 0, 65, 0
2, 19520, Note_on_c, 0, 73, 38
2, 19600, Note_on_c, 0, 73, 0
2, 19680, Note_on_c, 0, 73, 40
2, 19920, Note_on_c, 0, 73, 0
2, 19920, Note_on_c, 0, 68, 34
2, 20000, Note_on_c, 0, 68, 0
2, 20000, Note_on_c, 0, 73, 37
2, 20080, Note_on_c, 0, 73, 0
2, 20160, Note_on_c, 0, 73, 40
2, 20400, Note_on_c, 0, 73, 0
2, 20400, Note_on_c, 0, 68, 32
2, 20480, Note_on_c, 0, 68, 0
2, 20480, Note_on_c, 0, 73, 38
2, 20560, Note_on_c, 0, 73, 0
2, 20640, Note_on_c, 0, 61, 0
2, 20640, Note_on_c, 0, 58, 0
2, 20640, Note_on_c, 0, 53, 0
2, 20640, Note_on_c, 0, 73, 40
2, 20880, Note_on_c, 0, 73, 0
2, 20880, Note_on_c, 0, 68, 34
2, 20960, Note_on_c, 0, 68, 0
2, 20960, Note_on_c, 0, 65, 27
2, 20960, Note_on_c, 0, 70, 27
2, 20960, Note_on_c, 0, 73, 40
2, 21040, Note_on_c, 0, 73, 0
2, 21040, Note_on_c, 0, 70, 0
2, 21040, Note_on_c, 0, 65, 0
2, 21120, Note_on_c, 0, 65, 22
2, 21120, Note_on_c, 0, 70, 22
2, 21120, Note_on_c, 0, 73, 40
2, 21360, Note_on_c, 0, 73, 0
2, 21360, Note_on_c, 0, 75, 31
2, 21440, Note_on_c, 0, 75, 0
2, 21440, Note_on_c, 0, 70, 0
2, 21440, Note_on_c, 0, 65, 0
2, 21440, Note_on_c, 0, 65, 21
2, 21440, Note_on_c, 0, 70, 21
2, 21440, Note_on_c, 0, 73, 38
2, 21520, Note_on_c, 0, 73, 0
2, 21520, Note_on_c, 0, 70, 0
2, 21520, Note_on_c, 0, 65, 0
2, 21600, Note_on_c, 0, 65, 22
2, 21600, Note_on_c, 0, 70, 22
2, 21600, Note_on_c, 0, 73, 40
2, 22320, Note_on_c, 0, 73, 0
2, 22320, Note_on_c, 0, 75, 31
2, 22400, Note_on_c, 0, 75, 0
2, 22400, Note_on_c, 0, 70, 0
2, 22400, Note_on_c, 0, 65, 0
2, 22400, Note_on_c, 0, 65, 21
2, 22400, Note_on_c, 0, 70, 21
2, 22400, Note_on_c, 0, 73, 38
2, 22480, Note_on_c, 0, 73, 0
2, 22480, Note_on_c, 0, 70, 0
2, 22480, Note_on_c, 0, 65, 0
2, 22560, Note_on_c, 0, 65, 22
2, 22560, Note_on_c, 0, 70, 22
2, 22560, Note_on_c, 0, 73, 40
2, 22800, Note_on_c, 0, 73, 0
2, 22800, Note_on_c, 0, 75, 31
2, 22880, Note_on_c, 0, 75, 0
2, 22880, Note_on_c, 0, 70, 0
2, 22880, Note_on_c, 0, 65, 0
2, 22880, Note_on_c, 0, 66, 21
2, 22880, Note_on_c, 0, 70, 21
2, 22880, Note_on_c, 0, 72, 38
2, 22960, Note_on_c, 0, 72, 0
2, 22960, Note_on_c, 0, 70, 0
2, 22960, Note_on_c, 0, 66, 0
2, 23040, Note_on_c, 0, 66, 22
2, 23040, Note_on_c, 0, 70, 22
2, 23040, Note_on_c, 0, 72, 40
2, 23280, Note_on_c, 0, 72, 0
2, 23280, Note_on_c, 0, 82, 43
2, 23360, Note_on_c, 0, 82, 0
2, 23360, Note_on_c, 0, 70, 0
2, 23360, Note_on_c, 0, 66, 0
2, 23360, Note_on_c, 0, 70, 38
2, 23440, Note_on_c, 0, 70, 0
2, 23520, Note_on_c, 0, 70, 22
2, 23520, Note_on_c, 0, 72, 40
2, 23760, Note_on_c, 0, 72, 0
2, 23760, Note_on_c, 0, 75, 43
2, 23840, Note_on_c, 0, 75, 0
2, 23840, Note_on_c, 0, 70, 0
2, 23840, Note_on_c, 0, 70, 21
2, 23840, Note_on_c, 0, 73, 38
2, 23920, Note_on_c, 0, 73, 0
2, 23920, Note_on_c, 0, 70, 0
2, 24000, Note_on_c, 0, 70, 22
2, 24000, Note_on_c, 0, 72, 40
2, 24240, Note_on_c, 0, 72, 0
2, 24240, Note_on_c, 0, 82, 43
2, 24320, Note_on_c, 0, 82, 0
2, 24320, Note_on_c, 0, 70, 0
2, 24320, Note_on_c, 0, 70, 30
2, 24400, Note_on_c, 0, 70, 0
2, 24480, Note_on_c, 0, 70, 22
2, 24480, Note_on_c, 0, 72, 40
2, 24720, Note_on_c, 0, 72, 0
2, 24720, Note_on_c, 0, 73, 43
2, 24800, Note_on_c, 0, 73, 0
2, 24800, Note_on_c, 0, 70, 0
2, 24800, Note_on_c, 0, 68, 21
2, 24800, Note_on_c, 0, 72, 38
2, 24880, Note_on_c, 0, 72, 0
2, 24880, Note_on_c, 0, 68, 0
2, 24960, Note_on_c, 0, 68, 17
2, 24960, Note_on_c, 0, 70, 40
2, 25200, Note_on_c, 0, 70, 0
2, 25200, Note_on_c, 0, 80, 43
2, 25280, Note_on_c, 0, 80, 0
2, 25280, Note_on_c, 0, 68, 0
2, 25280, Note_on_c, 0, 68, 38
2, 25360, Note_on_c, 0, 68, 0
2, 25440, Note_on_c, 0, 66, 17
2, 25440, Note_on_c, 0, 70, 40
2, 25680, Note_on_c, 0, 70, 0
2, 25680, Note_on_c, 0, 72, 43
2, 25760, Note_on_c, 0, 72, 0
2, 25760, Note_on_c, 0, 66, 0
2, 25760, Note_on_c, 0, 66, 16
2, 25760, Note_on_c, 0, 70, 38
2, 25840, Note_on_c, 0, 70, 0
2, 25840, Note_on_c, 0, 66, 0
2, 25920, Note_on_c, 0, 66, 17
2, 25920, Note_on_c, 0, 68, 40
2, 26160, Note_on_c, 0, 68, 0
2, 26160, Note_on_c, 0, 78, 43
2, 26240, Note_on_c, 0, 78, 0
2, 26240, Note_on_c, 0, 66, 0
2, 26240, Note_on_c, 0, 66, 38
2, 26320, Note_on_c, 0, 66, 0
2, 26400, Note_on_c, 0, 66, 17
2, 26400, Note_on_c, 0, 68, 40
2, 26640, Note_on_c, 0, 68, 0
2, 26640, Note_on_c, 0, 77, 43
2, 26720, Note_on_c, 0, 77, 0
2, 26720, Note_on_c, 0, 66, 0
2, 26720, Note_on_c, 0, 65, 16
2, 26720, Note_on_c, 0, 67, 38
2, 26800, Note_on_c, 0, 67, 0
2, 26800, Note_on_c, 0, 65, 0
2, 26880, Note_on_c, 0, 62, 22
2, 26880, Note_on_c, 0, 65, 22
2, 26880, Note_on_c, 0, 67, 34
2, 27200, Note_on_c, 0, 67, 0
2, 27200, Note_on_c, 0, 65, 0
2, 27200, Note_on_c, 0, 62, 0
2, 27200, Note_on_c, 0, 54, 25
2, 27200, Note_on_c, 0, 63, 25
2, 27200, Note_on_c, 0, 66, 32
2, 27280, Note_on_c, 0, 66, 0
2, 27280, Note_on_c, 0, 63, 0
2, 27280, Note_on_c, 0, 54, 0
2, 27360, Note_on_c, 0, 54, 22
2, 27360, Note_on_c, 0, 63, 28
2, 27360, Note_on_c, 0, 66, 34
2, 27600, Note_on_c, 0, 66, 0
2, 27600, Note_on_c, 0, 63, 0
2, 27600, Note_on_c, 0, 54, 0
2, 27600, Note_on_c, 0, 75, 43
2, 27680, Note_on_c, 0, 75, 0
2, 27680, Note_on_c, 0, 63, 21
2, 27680, Note_on_c, 0, 65, 38
2, 27760, Note_on_c, 0, 65, 0
2, 27760, Note_on_c, 0, 63, 0
2, 27840, Note_on_c, 0, 60, 22
2, 27840, Note_on_c, 0, 63, 22
2, 27840, Note_on_c, 0, 65, 34
2, 28160, Note_on_c, 0, 65, 0
2, 28160, Note_on_c, 0, 63, 0
2, 28160, Note_on_c, 0, 60, 0
2, 28160, Note_on_c, 0, 52, 25
2, 28160, Note_on_c, 0, 61, 32
2, 28160, Note_on_c, 0, 64, 32
2, 28240, Note_on_c, 0, 64, 0
2, 28240, Note_on_c, 0, 61, 0
2, 28240, Note_on_c, 0, 52, 0
2, 28320, Note_on_c, 0, 52, 22
2, 28320, Note_on_c, 0, 61, 28
2, 28320, Note_on_c, 0, 64, 34
2, 28560, Note_on_c, 0, 64, 0
2, 28560, Note_on_c, 0, 61, 0
2, 28560, Note_on_c, 0, 52, 0
2, 28560, Note_on_c, 0, 73, 43
2, 28640, Note_on_c, 0, 73, 0
2, 28640, Note_on_c, 0, 61, 21
2, 28640, Note_on_c, 0, 63, 38
2, 28720, Note_on_c, 0, 63, 0
2, 28720, Note_on_c, 0, 61, 0
2, 28800, Note_on_c, 0, 58, 22
2, 28800, Note_on_c, 0, 61, 22
2, 28800, Note_on_c, 0, 63, 34
2, 29520, Note_on_c, 0, 63, 0
2, 29520, Note_on_c, 0, 61, 0
2, 29520, Note_on_c, 0, 58, 0
2, 29520, Note_on_c, 0, 70, 32
2, 29600, Note_on_c, 0, 70, 0
2, 29600, Note_on_c, 0, 58, 27
2, 29600, Note_on_c, 0, 62, 27
2, 29680, Note_on_c, 0, 62, 0
2, 29680, Note_on_c, 0, 58, 0
2, 29760, Note_on_c, 0, 58, 24
2, 29760, Note_on_c, 0, 62, 34
2, 31040, Note_on_c, 0, 62, 0
2, 31040, Note_on_c, 0, 58, 0
2, 31040, Note_on_c, 0, 58, 27
2, 31040, Note_on_c, 0, 61, 34
2, 31120, Note_on_c, 0, 61, 0
2, 31120, Note_on_c, 0, 58, 0
2, 31200, Note_on_c, 0, 58, 22
2, 31200, Note_on_c, 0, 61, 34
2, 31440, Note_on_c, 0, 61, 0
2, 31440, Note_on_c, 0, 60, 30
2, 31520, Note_on_c, 0, 60, 0
2, 31520, Note_on_c, 0, 58, 0
2, 31520, Note_on_c, 0, 58, 21
2, 31520, Note_on_c, 0, 61, 34
2, 31600, Note_on_c, 0, 61, 0
2, 31600, Note_on_c, 0, 58, 0
2, 31680, Note_on_c, 0, 56, 33
2, 31680, Note_on_c, 0, 65, 50
2, 32040, Note_on_c, 0, 65, 0
2, 32040, Note_on_c, 0, 56, 0
2, 32040, Note_on_c, 0, 63, 29
2, 32040, Note_on_c, 0, 60, 29
2, 32040, Note_on_c, 0, 68, 45
2, 32160, Note_on_c, 0, 68, 0
2, 32160, Note_on_c, 0, 60, 0
2, 32160, Note_on_c, 0, 63, 0
2, 32160, Note_on_c, 0, 68, 36
2, 32160, Note_on_c, 0, 61, 36
2, 32160, Note_on_c, 0, 73, 54
2, 33360, Note_on_c, 0, 73, 0
2, 33360, Note_on_c, 0, 61, 0
2, 33360, Note_on_c, 0, 68, 0
2, 33360, Note_on_c, 0, 56, 31
2, 33360, Note_on_c, 0, 60, 31
2, 33360, Note_on_c, 0, 68, 46
2, 33598, Note_on_c, 0, 68, 0
2, 33598, Note_on_c, 0, 60, 0
2, 33598, Note_on_c, 0, 56, 0
2, 33600, Note_on_c, 0, 58, 33
2, 33600, Note_on_c, 0, 56, 33
2, 33600, Note_on_c, 0, 61, 40
2, 33957, Note_on_c, 0, 61, 0
2, 33957, Note_on_c, 0, 56, 0
2, 33957, Note_on_c, 0, 58, 0
2, 33960, Note_on_c, 0, 60, 29
2, 33960, Note_on_c, 0, 56, 29
2, 33960, Note_on_c, 0, 63, 29
2, 33960, Note_on_c, 0, 68, 45
2, 34080, Note_on_c, 0, 68, 0
2, 34080, Note_on_c, 0, 60, 0
2, 34080, Note_on_c, 0, 56, 0
2, 34080, Note_on_c, 0, 63, 0
2, 34080, Note_on_c, 0, 68, 36
2, 34080, Note_on_c, 0, 61, 36
2, 34080, Note_on_c, 0, 65, 36
2, 34080, Note_on_c, 0, 73, 54
2, 35280, Note_on_c, 0, 73, 0
2, 35280, Note_on_c, 0, 68, 0
2, 35280, Note_on_c, 0, 61, 0
2, 35280, Note_on_c, 0, 65, 0
2, 35280, Note_on_c, 0, 56, 31
2, 35280, Note_on_c, 0, 63, 31
2, 35280, Note_on_c, 0, 68, 46
2, 35520, Note_on_c, 0, 68, 0
2, 35520, Note_on_c, 0, 63, 0
2, 35520, Note_on_c, 0, 56, 0
2, 35520, Note_on_c, 0, 53, 33
2, 35520, Note_on_c, 0, 58, 33
2, 35520, Note_on_c, 0, 61, 51
2, 35880, Note_on_c, 0, 61, 0
2, 35880, Note_on_c, 0, 58, 0
2, 35880, Note_on_c, 0, 53, 0
2, 35880, Note_on_c, 0, 60, 41
2, 35880, Note_on_c, 0, 53, 32
2, 35880, Note_on_c, 0, 65, 49
2, 35940, Note_on_c, 0, 53, 0
2, 35940, Note_on_c, 0, 60, 0
2, 35940, Note_on_c, 0, 58, 37
2, 35940, Note_on_c, 0, 52, 37
2, 35940, Note_on_c, 0, 61, 37
2, 36000, Note_on_c, 0, 65, 0
2, 36000, Note_on_c, 0, 70, 56
2, 36480, Note_on_c, 0, 58, 0
2, 36480, Note_on_c, 0, 61, 0
2, 36480, Note_on_c, 0, 52, 0
2, 36480, Note_on_c, 0, 53, 24
2, 36480, Note_on_c, 0, 58, 24
2, 36480, Note_on_c, 0, 62, 28
2, 36720, Note_on_c, 0, 62, 0
2, 36720, Note_on_c, 0, 53, 0
2, 36720, Note_on_c, 0, 54, 23
2, 36720, Note_on_c, 0, 63, 34
2, 36960, Note_on_c, 0, 54, 0
2, 36960, Note_on_c, 0, 58, 0
2, 36960, Note_on_c, 0, 68, 33
2, 36960, Note_on_c, 0, 54, 26
2, 36960, Note_on_c, 0, 61, 26
2, 37200, Note_on_c, 0, 61, 0
2, 37200, Note_on_c, 0, 70, 0
2, 37200, Note_on_c, 0, 60, 25
2, 37440, Note_on_c, 0, 60, 0
2, 37440, Note_on_c, 0, 54, 0
2, 37440, Note_on_c, 0, 68, 0
2, 37440, Note_on_c, 0, 63, 0
2, 37920, Note_on_c, 0, 61, 40
2, 38400, Note_on_c, 0, 61, 0
2, 38400, Note_on_c, 0, 76, 47
2, 39680, Note_on_c, 0, 76, 0
2, 39680, Note_on_c, 0, 75, 43
2, 40000, Note_on_c, 0, 75, 0
2, 40000, Note_on_c, 0, 74, 41
2, 40320, Note_on_c, 0, 74, 0
2, 40320, Note_on_c, 0, 73, 39
2, 40640, Note_on_c, 0, 73, 0
2, 40640, Note_on_c, 0, 64, 40
2, 40960, Note_on_c, 0, 64, 0
2, 40960, Note_on_c, 0, 63, 35
2, 41120, Note_on_c, 0, 63, 0
2, 41120, Note_on_c, 0, 62, 35
2, 41280, Note_on_c, 0, 62, 0
2, 41280, Note_on_c, 0, 61, 40
2, 41600, Note_on_c, 0, 61, 0
2, 41600, Note_on_c, 0, 49, 46
2, 41678, Note_on_c, 0, 49, 0
2, 41760, Note_on_c, 0, 80, 58
2, 42080, Note_on_c, 0, 56, 44
2, 42240, Note_on_c, 0, 56, 0
2, 42240, Note_on_c, 0, 61, 54
2, 42560, Note_on_c, 0, 80, 0
2, 42560, Note_on_c, 0, 76, 45
2, 42880, Note_on_c, 0, 76, 0
2, 42880, Note_on_c, 0, 75, 40
2, 43040, Note_on_c, 0, 75, 0
2, 43040, Note_on_c, 0, 74, 40
2, 43200, Note_on_c, 0, 74, 0
2, 43200, Note_on_c, 0, 73, 52
2, 43520, Note_on_c, 0, 73, 0
2, 43520, Note_on_c, 0, 61, 0
2, 43520, Note_on_c, 0, 64, 54
2, 43680, Note_on_c, 0, 49, 45
2, 43758, Note_on_c, 0, 49, 0
2, 43840, Note_on_c, 0, 64, 0
2, 43840, Note_on_c, 0, 63, 48
2, 44000, Note_on_c, 0, 63, 0
2, 44000, Note_on_c, 0, 62, 48
2, 44160, Note_on_c, 0, 62, 0
2, 44160, Note_on_c, 0, 61, 52
2, 44315, Note_on_c, 0, 61, 0
2, 44320, Note_on_c, 0, 55, 47
2, 44480, Note_on_c, 0, 55, 0
2, 44480, Note_on_c, 0, 61, 49
2, 44640, Note_on_c, 0, 61, 0
2, 44640, Note_on_c, 0, 67, 52
2, 44800, Note_on_c, 0, 85, 65
2, 45280, Note_on_c, 0, 85, 0
2, 45280, Note_on_c, 0, 81, 61
2, 45440, Note_on_c, 0, 81, 0
2, 45440, Note_on_c, 0, 80, 65
2, 45600, Note_on_c, 0, 80, 0
2, 45600, Note_on_c, 0, 79, 69
2, 45760, Note_on_c, 0, 67, 0
2, 45760, Note_on_c, 0, 61, 52
2, 45920, Note_on_c, 0, 61, 0
2, 45920, Note_on_c, 0, 79, 0
2, 45920, Note_on_c, 0, 67, 62
2, 45920, Note_on_c, 0, 73, 62
2, 46080, Note_on_c, 0, 73, 0
2, 46080, Note_on_c, 0, 67, 0
2, 46080, Note_on_c, 0, 88, 68
2, 46080, Note_on_c, 0, 73, 68
2, 46240, Note_on_c, 0, 73, 0
2, 46240, Note_on_c, 0, 67, 56
2, 46400, Note_on_c, 0, 67, 0
2, 46400, Note_on_c, 0, 73, 60
2, 46560, Note_on_c, 0, 73, 0
2, 46560, Note_on_c, 0, 79, 59
2, 46680, Note_on_c, 0, 88, 0
2, 46680, Note_on_c, 0, 87, 63
2, 46800, Note_on_c, 0, 87, 0
2, 46800, Note_on_c, 0, 86, 67
2, 46920, Note_on_c, 0, 86, 0
2, 46920, Note_on_c, 0, 85, 68
2, 47040, Note_on_c, 0, 85, 0
2, 47040, Note_on_c, 0, 91, 77
2, 47200, Note_on_c, 0, 79, 0
2, 47200, Note_on_c, 0, 73, 64
2, 47360, Note_on_c, 0, 73, 0
2, 47360, Note_on_c, 0, 91, 0
2, 47360, Note_on_c, 0, 91, 70
2, 47360, Note_on_c, 0, 79, 70
2, 47520, Note_on_c, 0, 79, 0
2, 47520, Note_on_c, 0, 85, 64
2, 47840, Note_on_c, 0, 91, 0
2, 47840, Note_on_c, 0, 91, 66
2, 48000, Note_on_c, 0, 85, 0
2, 48000, Note_on_c, 0, 73, 64
2, 48160, Note_on_c, 0, 91, 0
2, 48160, Note_on_c, 0, 91, 64
2, 48320, Note_on_c, 0, 73, 0
2, 48320, Note_on_c, 0, 79, 64
2, 48480, Note_on_c, 0, 79, 0
2, 48480, Note_on_c, 0, 91, 0
2, 48480, Note_on_c, 0, 92, 68
2, 48480, Note_on_c, 0, 85, 68
2, 48520, Note_on_c, 0, 92, 0
2, 48520, Note_on_c, 0, 91, 59
2, 48560, Note_on_c, 0, 91, 0
2, 48561, Note_on_c, 0, 92, 61
2, 48601, Note_on_c, 0, 92, 0
2, 48601, Note_on_c, 0, 91, 63
2, 48641, Note_on_c, 0, 91, 0
2, 48641, Note_on_c, 0, 92, 65
2, 48681, Note_on_c, 0, 92, 0
2, 48681, Note_on_c, 0, 91, 68
2, 48721, Note_on_c, 0, 91, 0
2, 48721, Note_on_c, 0, 92, 70
2, 48761, Note_on_c, 0, 92, 0
2, 48762, Note_on_c, 0, 91, 75
2, 48802, Note_on_c, 0, 91, 0
2, 48802, Note_on_c, 0, 92, 70
2, 48842, Note_on_c, 0, 92, 0
2, 48842, Note_on_c, 0, 91, 75
2, 48882, Note_on_c, 0, 91, 0
2, 48882, Note_on_c, 0, 90, 70
2, 48922, Note_on_c, 0, 90, 0
2, 48922, Note_on_c, 0, 91, 75
2, 48960, Note_on_c, 0, 85, 0
2, 48960, Note_on_c, 0, 92, 94
2, 48962, Note_on_c, 0, 91, 0
2, 49200, Note_on_c, 0, 92, 0
2, 49200, Note_on_c, 0, 56, 74
2, 49680, Note_on_c, 0, 56, 0
2, 49680, Note_on_c, 0, 62, 58
2, 49760, Note_on_c, 0, 56, 59
2, 49760, Note_on_c, 0, 68, 65
2, 50160, Note_on_c, 0, 68, 0
2, 50160, Note_on_c, 0, 56, 0
2, 50160, Note_on_c, 0, 62, 0
2, 50160, Note_on_c, 0, 56, 55
2, 50160, Note_on_c, 0, 63, 65
2, 50160, Note_on_c, 0, 68, 65
2, 50520, Note_on_c, 0, 63, 0
2, 50520, Note_on_c, 0, 64, 64
2, 50640, Note_on_c, 0, 68, 0
2, 50640, Note_on_c, 0, 56, 0
2, 50640, Note_on_c, 0, 66, 62
2, 50640, Note_on_c, 0, 75, 62
2, 50640, Note_on_c, 0, 78, 73
2, 50760, Note_on_c, 0, 78, 0
2, 50760, Note_on_c, 0, 75, 0
2, 50760, Note_on_c, 0, 66, 0
2, 50760, Note_on_c, 0, 67, 68
2, 50760, Note_on_c, 0, 76, 68
2, 50760, Note_on_c, 0, 79, 80
2, 50880, Note_on_c, 0, 79, 0
2, 50880, Note_on_c, 0, 64, 0
2, 50880, Note_on_c, 0, 67, 0
2, 50880, Note_on_c, 0, 76, 0
2, 50880, Note_on_c, 0, 68, 71
2, 50880, Note_on_c, 0, 77, 71
2, 50880, Note_on_c, 0, 80, 84
2, 51060, Note_on_c, 0, 65, 63
2, 51120, Note_on_c, 0, 65, 0
2, 51120, Note_on_c, 0, 68, 0
2, 51120, Note_on_c, 0, 77, 0
2, 51120, Note_on_c, 0, 80, 0
2, 51120, Note_on_c, 0, 56, 78
2, 51600, Note_on_c, 0, 56, 0
2, 51600, Note_on_c, 0, 59, 59
2, 51680, Note_on_c, 0, 56, 67
2, 51680, Note_on_c, 0, 68, 70
2, 52080, Note_on_c, 0, 68, 0
2, 52080, Note_on_c, 0, 56, 0
2, 52080, Note_on_c, 0, 59, 0
2, 52080, Note_on_c, 0, 56, 55
2, 52080, Note_on_c, 0, 60, 65
2, 52080, Note_on_c, 0, 68, 65
2, 52440, Note_on_c, 0, 60, 0
2, 52440, Note_on_c, 0, 61, 64
2, 52560, Note_on_c, 0, 68, 0
2, 52560, Note_on_c, 0, 56, 0
2, 52560, Note_on_c, 0, 66, 62
2, 52560, Note_on_c, 0, 75, 62
2, 52560, Note_on_c, 0, 78, 73
2, 52680, Note_on_c, 0, 78, 0
2, 52680, Note_on_c, 0, 75, 0
2, 52680, Note_on_c, 0, 66, 0
2, 52680, Note_on_c, 0, 67, 68
2, 52680, Note_on_c, 0, 76, 68
2, 52680, Note_on_c, 0, 79, 80
2, 52800, Note_on_c, 0, 79, 0
2, 52800, Note_on_c, 0, 61, 0
2, 52800, Note_on_c, 0, 67, 0
2, 52800, Note_on_c, 0, 76, 0
2, 52800, Note_on_c, 0, 68, 84
2, 52800, Note_on_c, 0, 77, 84
2, 52800, Note_on_c, 0, 80, 84
2, 52960, Note_on_c, 0, 80, 0
2, 52960, Note_on_c, 0, 77, 0
2, 52960, Note_on_c, 0, 68, 0
2, 52960, Note_on_c, 0, 66, 65
2, 52960, Note_on_c, 0, 73, 77
2, 53040, Note_on_c, 0, 73, 0
2, 53040, Note_on_c, 0, 66, 0
2, 53040, Note_on_c, 0, 67, 64
2, 53040, Note_on_c, 0, 77, 67
2, 53040, Note_on_c, 0, 79, 81
2, 53360, Note_on_c, 0, 79, 0
2, 53360, Note_on_c, 0, 77, 0
2, 53360, Note_on_c, 0, 67, 0
2, 53360, Note_on_c, 0, 72, 71
2, 53440, Note_on_c, 0, 72, 0
2, 53440, Note_on_c, 0, 73, 72
2, 53520, Note_on_c, 0, 73, 0
2, 53520, Note_on_c, 0, 79, 81
2, 53520, Note_on_c, 0, 77, 72
2, 53600, Note_on_c, 0, 77, 0
2, 53600, Note_on_c, 0, 79, 0
2, 53600, Note_on_c, 0, 68, 71
2, 53680, Note_on_c, 0, 68, 0
2, 53680, Note_on_c, 0, 80, 71
2, 53680, Note_on_c, 0, 73, 71
2, 53920, Note_on_c, 0, 73, 0
2, 53920, Note_on_c, 0, 80, 0
2, 53920, Note_on_c, 0, 66, 80
2, 53920, Note_on_c, 0, 73, 80
2, 53998, Note_on_c, 0, 73, 0
2, 54000, Note_on_c, 0, 66, 0
2, 54000, Note_on_c, 0, 68, 67
2, 54000, Note_on_c, 0, 78, 71
2, 54000, Note_on_c, 0, 80, 85
2, 54158, Note_on_c, 0, 68, 0
2, 54320, Note_on_c, 0, 80, 0
2, 54320, Note_on_c, 0, 78, 0
2, 54320, Note_on_c, 0, 72, 70
2, 54400, Note_on_c, 0, 72, 0
2, 54400, Note_on_c, 0, 73, 75
2, 54480, Note_on_c, 0, 73, 0
2, 54480, Note_on_c, 0, 80, 85
2, 54480, Note_on_c, 0, 78, 75
2, 54560, Note_on_c, 0, 78, 0
2, 54560, Note_on_c, 0, 80, 0
2, 54560, Note_on_c, 0, 69, 75
2, 54640, Note_on_c, 0, 69, 0
2, 54640, Note_on_c, 0, 81, 75
2, 54640, Note_on_c, 0, 73, 75
2, 54880, Note_on_c, 0, 73, 0
2, 54880, Note_on_c, 0, 81, 0
2, 54880, Note_on_c, 0, 68, 84
2, 54880, Note_on_c, 0, 73, 84
2, 54958, Note_on_c, 0, 73, 0
2, 54960, Note_on_c, 0, 68, 0
2, 54960, Note_on_c, 0, 69, 71
2, 54960, Note_on_c, 0, 77, 74
2, 54960, Note_on_c, 0, 81, 89
2, 55118, Note_on_c, 0, 69, 0
2, 55280, Note_on_c, 0, 81, 0
2, 55280, Note_on_c, 0, 77, 0
2, 55280, Note_on_c, 0, 72, 69
2, 55360, Note_on_c, 0, 72, 0
2, 55360, Note_on_c, 0, 73, 79
2, 55440, Note_on_c, 0, 73, 0
2, 55440, Note_on_c, 0, 81, 89
2, 55440, Note_on_c, 0, 77, 79
2, 55520, Note_on_c, 0, 77, 0
2, 55520, Note_on_c, 0, 81, 0
2, 55520, Note_on_c, 0, 70, 78
2, 55600, Note_on_c, 0, 70, 0
2, 55600, Note_on_c, 0, 82, 78
2, 55600, Note_on_c, 0, 73, 78
2, 55840, Note_on_c, 0, 73, 0
2, 55840, Note_on_c, 0, 82, 0
2, 55840, Note_on_c, 0, 68, 88
2, 55840, Note_on_c, 0, 73, 88
2, 55918, Note_on_c, 0, 73, 0
2, 55920, Note_on_c, 0, 68, 0
2, 55920, Note_on_c, 0, 69, 74
2, 55920, Note_on_c, 0, 77, 77
2, 55920, Note_on_c, 0, 81, 93
2, 56078, Note_on_c, 0, 69, 0
2, 56240, Note_on_c, 0, 81, 0
2, 56240, Note_on_c, 0, 77, 0
2, 56240, Note_on_c, 0, 72, 76
2, 56320, Note_on_c, 0, 72, 0
2, 56320, Note_on_c, 0, 73, 80
2, 56400, Note_on_c, 0, 73, 0
2, 56400, Note_on_c, 0, 81, 93
2, 56400, Note_on_c, 0, 77, 82
2, 56480, Note_on_c, 0, 77, 0
2, 56480, Note_on_c, 0, 81, 0
2, 56480, Note_on_c, 0, 70, 82
2, 56560, Note_on_c, 0, 70, 0
2, 56560, Note_on_c, 0, 82, 82
2, 56560, Note_on_c, 0, 73, 82
2, 56640, Note_on_c, 0, 73, 0
2, 56640, Note_on_c, 0, 82, 0
2, 56760, Note_on_c, 0, 62, 78
2, 56760, Note_on_c, 0, 68, 78
2, 56760, Note_on_c, 0, 74, 92
2, 56880, Note_on_c, 0, 74, 0
2, 56880, Note_on_c, 0, 68, 0
2, 56880, Note_on_c, 0, 62, 0
2, 56880, Note_on_c, 0, 82, 60
2, 56960, Note_on_c, 0, 75, 40
2, 57040, Note_on_c, 0, 75, 0
2, 57040, Note_on_c, 0, 74, 40
2, 57100, Note_on_c, 0, 74, 0
2, 57360, Note_on_c, 0, 82, 0
2, 57360, Note_on_c, 0, 81, 55
2, 57440, Note_on_c, 0, 77, 37
2, 57520, Note_on_c, 0, 77, 0
2, 57520, Note_on_c, 0, 75, 37
2, 57600, Note_on_c, 0, 75, 0
2, 57600, Note_on_c, 0, 81, 0
2, 57680, Note_on_c, 0, 68, 36
2, 57760, Note_on_c, 0, 68, 0
2, 57760, Note_on_c, 0, 74, 37
2, 57840, Note_on_c, 0, 74, 0
2, 57840, Note_on_c, 0, 81, 60
2, 57920, Note_on_c, 0, 75, 36
2, 58000, Note_on_c, 0, 75, 0
2, 58000, Note_on_c, 0, 74, 36
2, 58080, Note_on_c, 0, 74, 0
2, 58320, Note_on_c, 0, 81, 0
2, 58320, Note_on_c, 0, 82, 55
2, 58400, Note_on_c, 0, 77, 37
2, 58480, Note_on_c, 0, 77, 0
2, 58480, Note_on_c, 0, 75, 37
2, 58560, Note_on_c, 0, 75, 0
2, 58560, Note_on_c, 0, 82, 0
2, 58640, Note_on_c, 0, 68, 36
2, 58720, Note_on_c, 0, 68, 0
2, 58720, Note_on_c, 0, 74, 37
2, 58800, Note_on_c, 0, 74, 0
2, 58800, Note_on_c, 0, 82, 60
2, 58880, Note_on_c, 0, 75, 36
2, 58960, Note_on_c, 0, 75, 0
2, 58960, Note_on_c, 0, 74, 36
2, 59040, Note_on_c, 0, 74, 0
2, 59280, Note_on_c, 0, 82, 0
2, 59280, Note_on_c, 0, 83, 55
2, 59360, Note_on_c, 0, 77, 37
2, 59440, Note_on_c, 0, 77, 0
2, 59440, Note_on_c, 0, 75, 37
2, 59520, Note_on_c, 0, 75, 0
2, 59520, Note_on_c, 0, 83, 0
2, 59600, Note_on_c, 0, 68, 36
2, 59680, Note_on_c, 0, 68, 0
2, 59680, Note_on_c, 0, 74, 37
2, 59760, Note_on_c, 0, 74, 0
2, 59760, Note_on_c, 0, 83, 60
2, 59840, Note_on_c, 0, 75, 36
2, 59920, Note_on_c, 0, 75, 0
2, 59920, Note_on_c, 0, 74, 36
2, 60000, Note_on_c, 0, 74, 0
2, 60240, Note_on_c, 0, 83, 0
2, 60240, Note_on_c, 0, 84, 55
2, 60320, Note_on_c, 0, 77, 37
2, 60400, Note_on_c, 0, 77, 0
2, 60400, Note_on_c, 0, 75, 37
2, 60480, Note_on_c, 0, 75, 0
2, 60480, Note_on_c, 0, 84, 0
2, 60560, Note_on_c, 0, 72, 36
2, 60640, Note_on_c, 0, 72, 0
2, 60640, Note_on_c, 0, 75, 37
2, 60720, Note_on_c, 0, 75, 0
2, 60720, Note_on_c, 0, 84, 64
2, 60800, Note_on_c, 0, 80, 36
2, 60880, Note_on_c, 0, 80, 0
2, 60880, Note_on_c, 0, 78, 36
2, 60960, Note_on_c, 0, 78, 0
2, 61040, Note_on_c, 0, 73, 36
2, 61120, Note_on_c, 0, 73, 0
2, 61120, Note_on_c, 0, 78, 36
2, 61200, Note_on_c, 0, 78, 0
2, 61200, Note_on_c, 0, 84, 0
2, 61200, Note_on_c, 0, 85, 59
2, 61280, Note_on_c, 0, 83, 37
2, 61360, Note_on_c, 0, 83, 0
2, 61360, Note_on_c, 0, 82, 37
2, 61440, Note_on_c, 0, 82, 0
2, 61440, Note_on_c, 0, 85, 0
2, 61520, Note_on_c, 0, 73, 36
2, 61600, Note_on_c, 0, 73, 0
2, 61600, Note_on_c, 0, 78, 37
2, 61680, Note_on_c, 0, 78, 0
2, 61680, Note_on_c, 0, 85, 63
2, 61760, Note_on_c, 0, 80, 43
2, 61840, Note_on_c, 0, 80, 0
2, 61840, Note_on_c, 0, 78, 37
2, 61920, Note_on_c, 0, 78, 0
2, 62000, Note_on_c, 0, 74, 37
2, 62080, Note_on_c, 0, 74, 0
2, 62080, Note_on_c, 0, 78, 39
2, 62160, Note_on_c, 0, 78, 0
2, 62160, Note_on_c, 0, 85, 0
2, 62160, Note_on_c, 0, 86, 63
2, 62240, Note_on_c, 0, 83, 40
2, 62320, Note_on_c, 0, 83, 0
2, 62320, Note_on_c, 0, 82, 40
2, 62400, Note_on_c, 0, 82, 0
2, 62400, Note_on_c, 0, 86, 0
2, 62480, Note_on_c, 0, 74, 37
2, 62560, Note_on_c, 0, 74, 0
2, 62560, Note_on_c, 0, 78, 38
2, 62640, Note_on_c, 0, 78, 0
2, 62640, Note_on_c, 0, 86, 65
2, 62720, Note_on_c, 0, 80, 37
2, 62800, Note_on_c, 0, 80, 0
2, 62800, Note_on_c, 0, 78, 37
2, 62880, Note_on_c, 0, 78, 0
2, 62960, Note_on_c, 0, 75, 38
2, 63040, Note_on_c, 0, 75, 0
2, 63040, Note_on_c, 0, 78, 38
2, 63120, Note_on_c, 0, 78, 0
2, 63120, Note_on_c, 0, 86, 0
2, 63120, Note_on_c, 0, 87, 64
2, 63200, Note_on_c, 0, 83, 39
2, 63280, Note_on_c, 0, 83, 0
2, 63280, Note_on_c, 0, 82, 39
2, 63360, Note_on_c, 0, 82, 0
2, 63360, Note_on_c, 0, 87, 0
2, 63440, Note_on_c, 0, 75, 38
2, 63520, Note_on_c, 0, 75, 0
2, 63520, Note_on_c, 0, 79, 39
2, 63600, Note_on_c, 0, 79, 0
2, 63600, Note_on_c, 0, 87, 71
2, 63680, Note_on_c, 0, 80, 38
2, 63760, Note_on_c, 0, 80, 0
2, 63760, Note_on_c, 0, 79, 38
2, 63840, Note_on_c, 0, 79, 0
2, 63920, Note_on_c, 0, 74, 38
2, 64000, Note_on_c, 0, 74, 0
2, 64000, Note_on_c, 0, 76, 38
2, 64080, Note_on_c, 0, 76, 0
2, 64080, Note_on_c, 0, 87, 0
2, 64080, Note_on_c, 0, 86, 70
2, 64160, Note_on_c, 0, 83, 40
2, 64240, Note_on_c, 0, 83, 0
2, 64240, Note_on_c, 0, 82, 40
2, 64320, Note_on_c, 0, 82, 0
2, 64320, Note_on_c, 0, 86, 0
2, 64400, Note_on_c, 0, 73, 39
2, 64480, Note_on_c, 0, 73, 0
2, 64480, Note_on_c, 0, 79, 40
2, 64560, Note_on_c, 0, 79, 0
2, 64560, Note_on_c, 0, 86, 75
2, 64640, Note_on_c, 0, 80, 39
2, 64720, Note_on_c, 0, 80, 0
2, 64720, Note_on_c, 0, 79, 39
2, 64800, Note_on_c, 0, 79, 0
2, 64880, Note_on_c, 0, 75, 39
2, 64960, Note_on_c, 0, 75, 0
2, 64960, Note_on_c, 0, 76, 39
2, 65040, Note_on_c, 0, 76, 0
2, 65040, Note_on_c, 0, 86, 0
2, 65040, Note_on_c, 0, 87, 72
2, 65120, Note_on_c, 0, 83, 41
2, 65200, Note_on_c, 0, 83, 0
2, 65200, Note_on_c, 0, 82, 41
2, 65280, Note_on_c, 0, 82, 0
2, 65280, Note_on_c, 0, 87, 0
2, 65360, Note_on_c, 0, 75, 40
2, 65440, Note_on_c, 0, 75, 0
2, 65440, Note_on_c, 0, 79, 41
2, 65520, Note_on_c, 0, 79, 0
2, 65520, Note_on_c, 0, 87, 80
2, 65600, Note_on_c, 0, 80, 40
2, 65680, Note_on_c, 0, 80, 0
2, 65680, Note_on_c, 0, 79, 40
2, 65760, Note_on_c, 0, 79, 0
2, 65840, Note_on_c, 0, 76, 40
2, 65920, Note_on_c, 0, 76, 0
2, 65920, Note_on_c, 0, 80, 40
2, 66000, Note_on_c, 0, 80, 0
2, 66000, Note_on_c, 0, 87, 0
2, 66000, Note_on_c, 0, 88, 77
2, 66080, Note_on_c, 0, 83, 41
2, 66160, Note_on_c, 0, 83, 0
2, 66160, Note_on_c, 0, 82, 42
2, 66240, Note_on_c, 0, 82, 0
2, 66240, Note_on_c, 0, 88, 0
2, 66320, Note_on_c, 0, 76, 41
2, 66400, Note_on_c, 0, 76, 0
2, 66400, Note_on_c, 0, 79, 42
2, 66480, Note_on_c, 0, 79, 0
2, 66480, Note_on_c, 0, 88, 81
2, 66560, Note_on_c, 0, 80, 41
2, 66640, Note_on_c, 0, 80, 0
2, 66640, Note_on_c, 0, 79, 41
2, 66720, Note_on_c, 0, 79, 0
2, 66800, Note_on_c, 0, 77, 41
2, 66880, Note_on_c, 0, 77, 0
2, 66880, Note_on_c, 0, 80, 41
2, 66960, Note_on_c, 0, 80, 0
2, 66960, Note_on_c, 0, 88, 0
2, 66960, Note_on_c, 0, 89, 80
2, 67040, Note_on_c, 0, 83, 42
2, 67120, Note_on_c, 0, 83, 0
2, 67120, Note_on_c, 0, 82, 42
2, 67200, Note_on_c, 0, 82, 0
2, 67200, Note_on_c, 0, 89, 0
2, 67280, Note_on_c, 0, 77, 41
2, 67360, Note_on_c, 0, 77, 0
2, 67360, Note_on_c, 0, 80, 43
2, 67440, Note_on_c, 0, 80, 0
2, 67440, Note_on_c, 0, 89, 86
2, 67520, Note_on_c, 0, 82, 42
2, 67600, Note_on_c, 0, 82, 0
2, 67600, Note_on_c, 0, 80, 42
2, 67680, Note_on_c, 0, 80, 0
2, 67760, Note_on_c, 0, 78, 42
2, 67840, Note_on_c, 0, 78, 0
2, 67840, Note_on_c, 0, 82, 42
2, 67920, Note_on_c, 0, 82, 0
2, 67920, Note_on_c, 0, 89, 0
2, 67920, Note_on_c, 0, 90, 80
2, 68000, Note_on_c, 0, 83, 43
2, 68080, Note_on_c, 0, 83, 0
2, 68080, Note_on_c, 0, 82, 43
2, 68160, Note_on_c, 0, 82, 0
2, 68160, Note_on_c, 0, 90, 0
2, 68240, Note_on_c, 0, 78, 42
2, 68320, Note_on_c, 0, 78, 0
2, 68320, Note_on_c, 0, 83, 44
2, 68400, Note_on_c, 0, 83, 0
2, 68400, Note_on_c, 0, 90, 86
2, 68480, Note_on_c, 0, 85, 42
2, 68560, Note_on_c, 0, 85, 0
2, 68560, Note_on_c, 0, 83, 43
2, 68640, Note_on_c, 0, 83, 0
2, 68720, Note_on_c, 0, 80, 43
2, 68800, Note_on_c, 0, 80, 0
2, 68800, Note_on_c, 0, 85, 43
2, 68880, Note_on_c, 0, 85, 0
2, 68880, Note_on_c, 0, 90, 0
2, 68880, Note_on_c, 0, 92, 83
2, 68960, Note_on_c, 0, 87, 44
2, 69040, Note_on_c, 0, 87, 0
2, 69040, Note_on_c, 0, 85, 44
2, 69120, Note_on_c, 0, 85, 0
2, 69120, Note_on_c, 0, 92, 0
2, 69200, Note_on_c, 0, 80, 43
2, 69280, Note_on_c, 0, 80, 0
2, 69280, Note_on_c, 0, 83, 44
2, 69360, Note_on_c, 0, 83, 0
2, 69360, Note_on_c, 0, 92, 83
2, 69440, Note_on_c, 0, 89, 43
2, 69520, Note_on_c, 0, 89, 0
2, 69520, Note_on_c, 0, 87, 43
2, 69600, Note_on_c, 0, 87, 0
2, 69680, Note_on_c, 0, 81, 43
2, 69760, Note_on_c, 0, 81, 0
2, 69760, Note_on_c, 0, 87, 44
2, 69840, Note_on_c, 0, 87, 0
2, 69840, Note_on_c, 0, 92, 0
2, 69840, Note_on_c, 0, 93, 79
2, 69920, Note_on_c, 0, 89, 45
2, 70000, Note_on_c, 0, 89, 0
2, 70000, Note_on_c, 0, 87, 45
2, 70080, Note_on_c, 0, 87, 0
2, 70080, Note_on_c, 0, 93, 0
2, 70160, Note_on_c, 0, 85, 74
2, 70240, Note_on_c, 0, 85, 0
2, 70240, Note_on_c, 0, 86, 71
2, 70320, Note_on_c, 0, 86, 0
2, 70320, Note_on_c, 0, 89, 76
2, 70400, Note_on_c, 0, 89, 0
2, 70400, Note_on_c, 0, 94, 81
2, 70480, Note_on_c, 0, 94, 0
2, 70480, Note_on_c, 0, 101, 86
2, 70560, Note_on_c, 0, 101, 0
2, 70640, Note_on_c, 0, 84, 56
2, 70720, Note_on_c, 0, 84, 0
2, 70720, Note_on_c, 0, 85, 56
2, 70800, Note_on_c, 0, 85, 0
2, 70800, Note_on_c, 0, 93, 75
2, 70800, Note_on_c, 0, 88, 65
2, 70880, Note_on_c, 0, 88, 0
2, 70880, Note_on_c, 0, 93, 0
2, 70880, Note_on_c, 0, 81, 56
2, 70960, Note_on_c, 0, 81, 0
2, 70960, Note_on_c, 0, 85, 57
2, 71040, Note_on_c, 0, 85, 0
2, 71120, Note_on_c, 0, 83, 56
2, 71200, Note_on_c, 0, 83, 0
2, 71200, Note_on_c, 0, 84, 56
2, 71280, Note_on_c, 0, 84, 0
2, 71280, Note_on_c, 0, 92, 75
2, 71280, Note_on_c, 0, 87, 65
2, 71360, Note_on_c, 0, 87, 0
2, 71360, Note_on_c, 0, 92, 0
2, 71360, Note_on_c, 0, 80, 56
2, 71440, Note_on_c, 0, 80, 0
2, 71440, Note_on_c, 0, 84, 56
2, 71520, Note_on_c, 0, 84, 0
2, 71600, Note_on_c, 0, 71, 54
2, 71680, Note_on_c, 0, 71, 0
2, 71680, Note_on_c, 0, 77, 56
2, 71760, Note_on_c, 0, 77, 0
2, 71760, Note_on_c, 0, 85, 75
2, 71840, Note_on_c, 0, 85, 0
2, 71840, Note_on_c, 0, 78, 55
2, 71920, Note_on_c, 0, 78, 0
2, 71920, Note_on_c, 0, 77, 55
2, 72000, Note_on_c, 0, 77, 0
2, 72080, Note_on_c, 0, 71, 55
2, 72160, Note_on_c, 0, 71, 0
2, 72160, Note_on_c, 0, 72, 56
2, 72240, Note_on_c, 0, 72, 0
2, 72240, Note_on_c, 0, 76, 65
2, 72240, Note_on_c, 0, 82, 75
2, 72320, Note_on_c, 0, 82, 0
2, 72320, Note_on_c, 0, 76, 0
2, 72320, Note_on_c, 0, 69, 56
2, 72400, Note_on_c, 0, 69, 0
2, 72400, Note_on_c, 0, 76, 56
2, 72480, Note_on_c, 0, 76, 0
2, 72560, Note_on_c, 0, 70, 56
2, 72640, Note_on_c, 0, 70, 0
2, 72640, Note_on_c, 0, 71, 57
2, 72720, Note_on_c, 0, 71, 0
2, 72720, Note_on_c, 0, 75, 65
2, 72720, Note_on_c, 0, 80, 75
2, 72800, Note_on_c, 0, 80, 0
2, 72800, Note_on_c, 0, 75, 0
2, 72800, Note_on_c, 0, 68, 55
2, 72880, Note_on_c, 0, 68, 0
2, 72880, Note_on_c, 0, 75, 65
2, 72960, Note_on_c, 0, 75, 0
2, 73040, Note_on_c, 0, 73, 62
2, 73040, Note_on_c, 0, 69, 62
2, 73120, Note_on_c, 0, 69, 0
2, 73120, Note_on_c, 0, 73, 0
2, 73120, Note_on_c, 0, 68, 54
2, 73200, Note_on_c, 0, 68, 0
2, 73200, Note_on_c, 0, 66, 54
2, 73280, Note_on_c, 0, 66, 0
2, 73280, Note_on_c, 0, 64, 54
2, 73360, Note_on_c, 0, 64, 0
2, 73360, Note_on_c, 0, 62, 53
2, 73440, Note_on_c, 0, 62, 0
2, 73520, Note_on_c, 0, 60, 52
2, 73600, Note_on_c, 0, 60, 0
2, 73600, Note_on_c, 0, 61, 52
2, 73680, Note_on_c, 0, 61, 0
2, 73680, Note_on_c, 0, 65, 53
2, 73680, Note_on_c, 0, 69, 63
2, 73760, Note_on_c, 0, 69, 0
2, 73760, Note_on_c, 0, 65, 0
2, 73760, Note_on_c, 0, 57, 49
2, 73840, Note_on_c, 0, 57, 0
2, 73840, Note_on_c, 0, 61, 50
2, 73920, Note_on_c, 0, 61, 0
2, 74000, Note_on_c, 0, 62, 51
2, 74080, Note_on_c, 0, 62, 0
2, 74080, Note_on_c, 0, 63, 51
2, 74160, Note_on_c, 0, 63, 0
2, 74160, Note_on_c, 0, 64, 53
2, 74160, Note_on_c, 0, 68, 63
2, 74240, Note_on_c, 0, 68, 0
2, 74240, Note_on_c, 0, 64, 0
2, 74240, Note_on_c, 0, 63, 49
2, 74320, Note_on_c, 0, 63, 0
2, 74320, Note_on_c, 0, 62, 50
2, 74400, Note_on_c, 0, 62, 0
2, 74480, Note_on_c, 0, 54, 51
2, 74560, Note_on_c, 0, 54, 0
2, 74560, Note_on_c, 0, 55, 51
2, 74640, Note_on_c, 0, 55, 0
2, 74640, Note_on_c, 0, 61, 63
2, 74720, Note_on_c, 0, 61, 0
2, 74720, Note_on_c, 0, 55, 50
2, 74800, Note_on_c, 0, 55, 0
2, 74800, Note_on_c, 0, 54, 50
2, 74880, Note_on_c, 0, 54, 0
2, 74960, Note_on_c, 0, 53, 50
2, 75040, Note_on_c, 0, 53, 0
2, 75040, Note_on_c, 0, 54, 50
2, 75120, Note_on_c, 0, 54, 0
2, 75120, Note_on_c, 0, 61, 63
2, 75200, Note_on_c, 0, 61, 0
2, 75200, Note_on_c, 0, 56, 48
2, 75280, Note_on_c, 0, 56, 0
2, 75280, Note_on_c, 0, 54, 48
2, 75360, Note_on_c, 0, 54, 0
2, 75440, Note_on_c, 0, 51, 50
2, 75520, Note_on_c, 0, 51, 0
2, 75520, Note_on_c, 0, 52, 50
2, 75600, Note_on_c, 0, 52, 0
2, 75600, Note_on_c, 0, 59, 63
2, 75680, Note_on_c, 0, 59, 0
2, 75680, Note_on_c, 0, 54, 47
2, 75760, Note_on_c, 0, 54, 0
2, 75760, Note_on_c, 0, 52, 47
2, 75840, Note_on_c, 0, 52, 0
2, 76160, Note_on_c, 0, 54, 55
2, 76160, Note_on_c, 0, 61, 65
2, 76304, Note_on_c, 0, 61, 0
2, 76304, Note_on_c, 0, 54, 0
2, 76320, Note_on_c, 0, 54, 62
2, 76320, Note_on_c, 0, 61, 74
2, 76464, Note_on_c, 0, 61, 0
2, 76464, Note_on_c, 0, 54, 0
2, 76480, Note_on_c, 0, 61, 56
2, 76480, Note_on_c, 0, 63, 67
2, 76624, Note_on_c, 0, 63, 0
2, 76624, Note_on_c, 0, 61, 0
2, 76640, Note_on_c, 0, 61, 56
2, 76640, Note_on_c, 0, 63, 67
2, 76784, Note_on_c, 0, 63, 0
2, 76784, Note_on_c, 0, 61, 0
2, 76800, Note_on_c, 0, 61, 62
2, 76800, Note_on_c, 0, 63, 74
2, 76944, Note_on_c, 0, 63, 0
2, 76944, Note_on_c, 0, 61, 0
2, 76960, Note_on_c, 0, 63, 56
2, 76960, Note_on_c, 0, 66, 66
2, 77104, Note_on_c, 0, 66, 0
2, 77104, Note_on_c, 0, 63, 0
2, 77120, Note_on_c, 0, 63, 56
2, 77120, Note_on_c, 0, 66, 66
2, 77264, Note_on_c, 0, 66, 0
2, 77264, Note_on_c, 0, 63, 0
2, 77280, Note_on_c, 0, 61, 62
2, 77280, Note_on_c, 0, 66, 74
2, 77424, Note_on_c, 0, 66, 0
2, 77424, Note_on_c, 0, 61, 0
2, 77440, Note_on_c, 0, 66, 56
2, 77440, Note_on_c, 0, 73, 67
2, 77584, Note_on_c, 0, 73, 0
2, 77584, Note_on_c, 0, 66, 0
2, 77600, Note_on_c, 0, 66, 56
2, 77600, Note_on_c, 0, 73, 67
2, 77744, Note_on_c, 0, 73, 0
2, 77744, Note_on_c, 0, 66, 0
2, 77760, Note_on_c, 0, 73, 76
2, 77760, Note_on_c, 0, 61, 62
2, 77760, Note_on_c, 0, 63, 62
2, 77760, Note_on_c, 0, 66, 74
2, 77904, Note_on_c, 0, 66, 0
2, 77904, Note_on_c, 0, 63, 0
2, 77904, Note_on_c, 0, 61, 0
2, 77920, Note_on_c, 0, 63, 56
2, 77920, Note_on_c, 0, 66, 66
2, 78064, Note_on_c, 0, 66, 0
2, 78064, Note_on_c, 0, 63, 0
2, 78080, Note_on_c, 0, 73, 0
2, 78080, Note_on_c, 0, 75, 77
2, 78080, Note_on_c, 0, 66, 56
2, 78080, Note_on_c, 0, 73, 66
2, 78224, Note_on_c, 0, 66, 0
2, 78240, Note_on_c, 0, 73, 0
2, 78240, Note_on_c, 0, 75, 0
2, 78240, Note_on_c, 0, 80, 82
2, 78240, Note_on_c, 0, 73, 62
2, 78240, Note_on_c, 0, 66, 62
2, 78240, Note_on_c, 0, 75, 67
2, 78384, Note_on_c, 0, 75, 0
2, 78384, Note_on_c, 0, 66, 0
2, 78384, Note_on_c, 0, 73, 0
2, 78400, Note_on_c, 0, 73, 62
2, 78400, Note_on_c, 0, 66, 56
2, 78400, Note_on_c, 0, 75, 67
2, 78544, Note_on_c, 0, 75, 0
2, 78544, Note_on_c, 0, 66, 0
2, 78544, Note_on_c, 0, 73, 0
2, 78560, Note_on_c, 0, 73, 62
2, 78560, Note_on_c, 0, 66, 56
2, 78560, Note_on_c, 0, 75, 67
2, 78704, Note_on_c, 0, 75, 0
2, 78704, Note_on_c, 0, 66, 0
2, 78704, Note_on_c, 0, 73, 0
2, 78720, Note_on_c, 0, 66, 62
2, 78720, Note_on_c, 0, 72, 62
2, 78720, Note_on_c, 0, 75, 74
2, 78864, Note_on_c, 0, 75, 0
2, 78864, Note_on_c, 0, 72, 0
2, 78864, Note_on_c, 0, 66, 0
2, 78880, Note_on_c, 0, 66, 55
2, 78880, Note_on_c, 0, 72, 56
2, 78880, Note_on_c, 0, 75, 66
2, 79024, Note_on_c, 0, 75, 0
2, 79024, Note_on_c, 0, 72, 0
2, 79024, Note_on_c, 0, 66, 0
2, 79040, Note_on_c, 0, 66, 54
2, 79040, Note_on_c, 0, 72, 56
2, 79040, Note_on_c, 0, 75, 66
2, 79200, Note_on_c, 0, 66, 0
2, 79360, Note_on_c, 0, 75, 0
2, 79360, Note_on_c, 0, 72, 0
2, 79360, Note_on_c, 0, 66, 54
2, 79360, Note_on_c, 0, 72, 56
2, 79360, Note_on_c, 0, 75, 67
2, 79504, Note_on_c, 0, 75, 0
2, 79504, Note_on_c, 0, 72, 0
2, 79504, Note_on_c, 0, 66, 0
2, 79520, Note_on_c, 0, 66, 54
2, 79520, Note_on_c, 0, 72, 56
2, 79520, Note_on_c, 0, 75, 67
2, 79664, Note_on_c, 0, 75, 0
2, 79664, Note_on_c, 0, 72, 0
2, 79664, Note_on_c, 0, 66, 0
2, 79680, Note_on_c, 0, 80, 0
2, 79680, Note_on_c, 0, 53, 67
2, 79680, Note_on_c, 0, 61, 79
2, 79840, Note_on_c, 0, 53, 0
2, 79840, Note_on_c, 0, 53, 48
2, 79920, Note_on_c, 0, 53, 0
2, 79920, Note_on_c, 0, 65, 48
2, 80000, Note_on_c, 0, 65, 0
2, 80000, Note_on_c, 0, 63, 48
2, 80040, Note_on_c, 0, 61, 0
2, 80040, Note_on_c, 0, 68, 80
2, 80080, Note_on_c, 0, 63, 0
2, 80080, Note_on_c, 0, 65, 48
2, 80160, Note_on_c, 0, 65, 0
2, 80160, Note_on_c, 0, 68, 0
2, 80160, Note_on_c, 0, 68, 67
2, 80160, Note_on_c, 0, 65, 67
2, 80160, Note_on_c, 0, 73, 81
2, 80520, Note_on_c, 0, 65, 0
2, 80520, Note_on_c, 0, 68, 0
2, 80520, Note_on_c, 0, 56, 52
2, 80520, Note_on_c, 0, 61, 52
2, 80520, Note_on_c, 0, 65, 62
2, 80639, Note_on_c, 0, 65, 0
2, 80639, Note_on_c, 0, 61, 0
2, 80639, Note_on_c, 0, 56, 0
2, 80640, Note_on_c, 0, 60, 59
2, 80640, Note_on_c, 0, 61, 59
2, 80640, Note_on_c, 0, 68, 77
2, 80878, Note_on_c, 0, 68, 0
2, 80878, Note_on_c, 0, 61, 0
2, 80878, Note_on_c, 0, 60, 0
2, 80880, Note_on_c, 0, 59, 52
2, 80880, Note_on_c, 0, 61, 52
2, 80880, Note_on_c, 0, 67, 68
2, 81118, Note_on_c, 0, 67, 0
2, 81118, Note_on_c, 0, 61, 0
2, 81118, Note_on_c, 0, 59, 0
2, 81120, Note_on_c, 0, 73, 0
2, 81120, Note_on_c, 0, 58, 56
2, 81120, Note_on_c, 0, 61, 56
2, 81120, Note_on_c, 0, 66, 72
2, 81120, Note_on_c, 0, 68, 66
2, 81358, Note_on_c, 0, 66, 0
2, 81358, Note_on_c, 0, 58, 0
2, 81358, Note_on_c, 0, 61, 0
2, 81360, Note_on_c, 0, 57, 49
2, 81360, Note_on_c, 0, 61, 49
2, 81360, Note_on_c, 0, 65, 64
2, 81598, Note_on_c, 0, 65, 0
2, 81598, Note_on_c, 0, 61, 0
2, 81598, Note_on_c, 0, 57, 0
2, 81600, Note_on_c, 0, 68, 0
2, 81600, Note_on_c, 0, 53, 67
2, 81600, Note_on_c, 0, 61, 79
2, 81760, Note_on_c, 0, 53, 0
2, 81760, Note_on_c, 0, 53, 48
2, 81840, Note_on_c, 0, 53, 0
2, 81840, Note_on_c, 0, 65, 48
2, 81920, Note_on_c, 0, 65, 0
2, 81920, Note_on_c, 0, 63, 48
2, 81960, Note_on_c, 0, 61, 0
2, 81960, Note_on_c, 0, 68, 80
2, 82000, Note_on_c, 0, 63, 0
2, 82000, Note_on_c, 0, 65, 48
2, 82080, Note_on_c, 0, 65, 0
2, 82080, Note_on_c, 0, 68, 0
2, 82080, Note_on_c, 0, 68, 67
2, 82080, Note_on_c, 0, 65, 67
2, 82080, Note_on_c, 0, 73, 81
2, 82440, Note_on_c, 0, 65, 0
2, 82440, Note_on_c, 0, 68, 0
2, 82440, Note_on_c, 0, 56, 52
2, 82440, Note_on_c, 0, 61, 52
2, 82440, Note_on_c, 0, 65, 62
2, 82559, Note_on_c, 0, 65, 0
2, 82559, Note_on_c, 0, 61, 0
2, 82559, Note_on_c, 0, 56, 0
2, 82560, Note_on_c, 0, 60, 59
2, 82560, Note_on_c, 0, 61, 59
2, 82560, Note_on_c, 0, 68, 77
2, 82798, Note_on_c, 0, 68, 0
2, 82798, Note_on_c, 0, 61, 0
2, 82798, Note_on_c, 0, 60, 0
2, 82800, Note_on_c, 0, 59, 52
2, 82800, Note_on_c, 0, 61, 52
2, 82800, Note_on_c, 0, 67, 68
2, 83038, Note_on_c, 0, 67, 0
2, 83038, Note_on_c, 0, 61, 0
2, 83038, Note_on_c, 0, 59, 0
2, 83040, Note_on_c, 0, 73, 0
2, 83040, Note_on_c, 0, 58, 56
2, 83040, Note_on_c, 0, 61, 56
2, 83040, Note_on_c, 0, 66, 72
2, 83040, Note_on_c, 0, 68, 66
2, 83278, Note_on_c, 0, 66, 0
2, 83278, Note_on_c, 0, 58, 0
2, 83278, Note_on_c, 0, 61, 0
2, 83280, Note_on_c, 0, 57, 49
2, 83280, Note_on_c, 0, 61, 49
2, 83280, Note_on_c, 0, 65, 64
2, 83518, Note_on_c, 0, 65, 0
2, 83518, Note_on_c, 0, 61, 0
2, 83518, Note_on_c, 0, 57, 0
2, 83520, Note_on_c, 0, 68, 0
2, 83520, Note_on_c, 0, 53, 67
2, 83520, Note_on_c, 0, 61, 79
2, 83680, Note_on_c, 0, 53, 0
2, 83680, Note_on_c, 0, 53, 48
2, 83760, Note_on_c, 0, 53, 0
2, 83760, Note_on_c, 0, 65, 48
2, 83840, Note_on_c, 0, 65, 0
2, 83840, Note_on_c, 0, 63, 48
2, 83880, Note_on_c, 0, 61, 0
2, 83880, Note_on_c, 0, 68, 80
2, 83920, Note_on_c, 0, 63, 0
2, 83920, Note_on_c, 0, 65, 48
2, 84000, Note_on_c, 0, 65, 0
2, 84000, Note_on_c, 0, 68, 0
2, 84000, Note_on_c, 0, 68, 67
2, 84000, Note_on_c, 0, 65, 67
2, 84000, Note_on_c, 0, 77, 81
2, 84360, Note_on_c, 0, 65, 0
2, 84360, Note_on_c, 0, 68, 0
2, 84360, Note_on_c, 0, 56, 52
2, 84360, Note_on_c, 0, 65, 52
2, 84360, Note_on_c, 0, 68, 62
2, 84479, Note_on_c, 0, 68, 0
2, 84479, Note_on_c, 0, 65, 0
2, 84479, Note_on_c, 0, 56, 0
2, 84480, Note_on_c, 0, 61, 59
2, 84480, Note_on_c, 0, 65, 59
2, 84480, Note_on_c, 0, 73, 77
2, 84718, Note_on_c, 0, 73, 0
2, 84718, Note_on_c, 0, 65, 0
2, 84718, Note_on_c, 0, 61, 0
2, 84720, Note_on_c, 0, 64, 52
2, 84720, Note_on_c, 0, 65, 52
2, 84720, Note_on_c, 0, 72, 68
2, 84958, Note_on_c, 0, 72, 0
2, 84958, Note_on_c, 0, 65, 0
2, 84958, Note_on_c, 0, 64, 0
2, 84960, Note_on_c, 0, 77, 0
2, 84960, Note_on_c, 0, 63, 56
2, 84960, Note_on_c, 0, 65, 56
2, 84960, Note_on_c, 0, 71, 72
2, 84960, Note_on_c, 0, 73, 66
2, 85198, Note_on_c, 0, 71, 0
2, 85198, Note_on_c, 0, 63, 0
2, 85198, Note_on_c, 0, 65, 0
2, 85200, Note_on_c, 0, 62, 49
2, 85200, Note_on_c, 0, 65, 49
2, 85200, Note_on_c, 0, 70, 64
2, 85438, Note_on_c, 0, 70, 0
2, 85438, Note_on_c, 0, 65, 0
2, 85438, Note_on_c, 0, 62, 0
2, 85440, Note_on_c, 0, 73, 0
2, 85440, Note_on_c, 0, 54, 67
2, 85440, Note_on_c, 0, 58, 67
2, 85440, Note_on_c, 0, 66, 79
2, 85600, Note_on_c, 0, 58, 0
2, 85600, Note_on_c, 0, 61, 48
2, 85600, Note_on_c, 0, 66, 48
2, 85620, Note_on_c, 0, 54, 0
2, 85660, Note_on_c, 0, 61, 0
2, 85680, Note_on_c, 0, 66, 0
2, 85680, Note_on_c, 0, 73, 48
2, 85760, Note_on_c, 0, 73, 0
2, 85760, Note_on_c, 0, 68, 48
2, 85800, Note_on_c, 0, 66, 0
2, 85800, Note_on_c, 0, 73, 85
2, 85840, Note_on_c, 0, 68, 0
2, 85840, Note_on_c, 0, 70, 48
2, 85920, Note_on_c, 0, 70, 0
2, 85920, Note_on_c, 0, 73, 0
2, 85920, Note_on_c, 0, 73, 67
2, 85920, Note_on_c, 0, 70, 67
2, 85920, Note_on_c, 0, 82, 81
2, 86280, Note_on_c, 0, 70, 0
2, 86280, Note_on_c, 0, 73, 0
2, 86280, Note_on_c, 0, 61, 52
2, 86280, Note_on_c, 0, 70, 52
2, 86280, Note_on_c, 0, 73, 62
2, 86399, Note_on_c, 0, 73, 0
2, 86399, Note_on_c, 0, 70, 0
2, 86399, Note_on_c, 0, 61, 0
2, 86400, Note_on_c, 0, 68, 59
2, 86400, Note_on_c, 0, 65, 59
2, 86400, Note_on_c, 0, 70, 59
2, 86400, Note_on_c, 0, 77, 77
2, 86638, Note_on_c, 0, 77, 0
2, 86638, Note_on_c, 0, 65, 0
2, 86638, Note_on_c, 0, 70, 0
2, 86638, Note_on_c, 0, 68, 0
2, 86640, Note_on_c, 0, 67, 52
2, 86640, Note_on_c, 0, 70, 52
2, 86640, Note_on_c, 0, 76, 68
2, 86878, Note_on_c, 0, 76, 0
2, 86878, Note_on_c, 0, 70, 0
2, 86878, Note_on_c, 0, 67, 0
2, 86880, Note_on_c, 0, 82, 0
2, 86880, Note_on_c, 0, 66, 56
2, 86880, Note_on_c, 0, 70, 56
2, 86880, Note_on_c, 0, 75, 72
2, 86880, Note_on_c, 0, 80, 64
2, 87118, Note_on_c, 0, 75, 0
2, 87118, Note_on_c, 0, 66, 0
2, 87118, Note_on_c, 0, 70, 0
2, 87120, Note_on_c, 0, 66, 49
2, 87120, Note_on_c, 0, 68, 49
2, 87120, Note_on_c, 0, 74, 64
2, 87358, Note_on_c, 0, 74, 0
2, 87358, Note_on_c, 0, 68, 0
2, 87358, Note_on_c, 0, 66, 0
2, 87360, Note_on_c, 0, 80, 0
2, 87360, Note_on_c, 0, 61, 67
2, 87360, Note_on_c, 0, 65, 67
2, 87360, Note_on_c, 0, 73, 79
2, 87520, Note_on_c, 0, 65, 0
2, 87520, Note_on_c, 0, 61, 0
2, 87520, Note_on_c, 0, 61, 48
2, 87520, Note_on_c, 0, 65, 48
2, 87580, Note_on_c, 0, 61, 0
2, 87600, Note_on_c, 0, 65, 0
2, 87600, Note_on_c, 0, 73, 48
2, 87680, Note_on_c, 0, 73, 0
2, 87680, Note_on_c, 0, 75, 48
2, 87720, Note_on_c, 0, 73, 0
2, 87720, Note_on_c, 0, 68, 74
2, 87720, Note_on_c, 0, 80, 85
2, 87760, Note_on_c, 0, 75, 0
2, 87760, Note_on_c, 0, 77, 48
2, 87840, Note_on_c, 0, 77, 0
2, 87840, Note_on_c, 0, 80, 0
2, 87840, Note_on_c, 0, 68, 0
2, 87840, Note_on_c, 0, 77, 67
2, 87840, Note_on_c, 0, 73, 67
2, 87840, Note_on_c, 0, 85, 81
2, 88200, Note_on_c, 0, 73, 0
2, 88200, Note_on_c, 0, 77, 0
2, 88200, Note_on_c, 0, 65, 52
2, 88200, Note_on_c, 0, 68, 52
2, 88200, Note_on_c, 0, 73, 52
2, 88200, Note_on_c, 0, 77, 62
2, 88318, Note_on_c, 0, 77, 0
2, 88318, Note_on_c, 0, 68, 0
2, 88318, Note_on_c, 0, 73, 0
2, 88318, Note_on_c, 0, 65, 0
2, 88320, Note_on_c, 0, 72, 59
2, 88320, Note_on_c, 0, 68, 59
2, 88320, Note_on_c, 0, 73, 59
2, 88320, Note_on_c, 0, 80, 77
2, 88558, Note_on_c, 0, 80, 0
2, 88558, Note_on_c, 0, 68, 0
2, 88558, Note_on_c, 0, 73, 0
2, 88558, Note_on_c, 0, 72, 0
2, 88560, Note_on_c, 0, 67, 52
2, 88560, Note_on_c, 0, 71, 52
2, 88560, Note_on_c, 0, 73, 52
2, 88560, Note_on_c, 0, 79, 68
2, 88798, Note_on_c, 0, 79, 0
2, 88798, Note_on_c, 0, 71, 0
2, 88798, Note_on_c, 0, 73, 0
2, 88798, Note_on_c, 0, 67, 0
2, 88800, Note_on_c, 0, 85, 0
2, 88800, Note_on_c, 0, 70, 56
2, 88800, Note_on_c, 0, 66, 56
2, 88800, Note_on_c, 0, 73, 56
2, 88800, Note_on_c, 0, 78, 72
2, 88800, Note_on_c, 0, 80, 64
2, 89038, Note_on_c, 0, 78, 0
2, 89038, Note_on_c, 0, 73, 0
2, 89038, Note_on_c, 0, 70, 0
2, 89038, Note_on_c, 0, 66, 0
2, 89040, Note_on_c, 0, 69, 49
2, 89040, Note_on_c, 0, 65, 49
2, 89040, Note_on_c, 0, 73, 49
2, 89040, Note_on_c, 0, 77, 64
2, 89278, Note_on_c, 0, 77, 0
2, 89278, Note_on_c, 0, 65, 0
2, 89278, Note_on_c, 0, 73, 0
2, 89278, Note_on_c, 0, 69, 0
2, 89280, Note_on_c, 0, 80, 0
2, 89280, Note_on_c, 0, 61, 67
2, 89280, Note_on_c, 0, 65, 67
2, 89280, Note_on_c, 0, 73, 79
2, 89440, Note_on_c, 0, 65, 0
2, 89440, Note_on_c, 0, 65, 48
2, 89440, Note_on_c, 0, 68, 48
2, 89460, Note_on_c, 0, 61, 0
2, 89500, Note_on_c, 0, 65, 0
2, 89520, Note_on_c, 0, 68, 0
2, 89520, Note_on_c, 0, 77, 48
2, 89600, Note_on_c, 0, 77, 0
2, 89600, Note_on_c, 0, 75, 48
2, 89640, Note_on_c, 0, 73, 0
2, 89640, Note_on_c, 0, 68, 76
2, 89640, Note_on_c, 0, 80, 85
2, 89680, Note_on_c, 0, 75, 0
2, 89680, Note_on_c, 0, 77, 48
2, 89760, Note_on_c, 0, 77, 0
2, 89760, Note_on_c, 0, 80, 0
2, 89760, Note_on_c, 0, 68, 0
2, 89760, Note_on_c, 0, 77, 67
2, 89760, Note_on_c, 0, 73, 67
2, 89760, Note_on_c, 0, 85, 81
2, 90120, Note_on_c, 0, 73, 0
2, 90120, Note_on_c, 0, 77, 0
2, 90120, Note_on_c, 0, 65, 52
2, 90120, Note_on_c, 0, 68, 52
2, 90120, Note_on_c, 0, 73, 52
2, 90120, Note_on_c, 0, 77, 62
2, 90238, Note_on_c, 0, 77, 0
2, 90238, Note_on_c, 0, 68, 0
2, 90238, Note_on_c, 0, 73, 0
2, 90238, Note_on_c, 0, 65, 0
2, 90240, Note_on_c, 0, 75, 59
2, 90240, Note_on_c, 0, 71, 59
2, 90240, Note_on_c, 0, 77, 59
2, 90240, Note_on_c, 0, 83, 77
2, 90478, Note_on_c, 0, 83, 0
2, 90478, Note_on_c, 0, 71, 0
2, 90478, Note_on_c, 0, 77, 0
2, 90478, Note_on_c, 0, 75, 0
2, 90480, Note_on_c, 0, 70, 52
2, 90480, Note_on_c, 0, 74, 52
2, 90480, Note_on_c, 0, 77, 52
2, 90480, Note_on_c, 0, 82, 68
2, 90718, Note_on_c, 0, 82, 0
2, 90718, Note_on_c, 0, 74, 0
2, 90718, Note_on_c, 0, 77, 0
2, 90718, Note_on_c, 0, 70, 0
2, 90720, Note_on_c, 0, 85, 0
2, 90720, Note_on_c, 0, 73, 56
2, 90720, Note_on_c, 0, 69, 56
2, 90720, Note_on_c, 0, 77, 56
2, 90720, Note_on_c, 0, 81, 72
2, 90720, Note_on_c, 0, 85, 64
2, 90958, Note_on_c, 0, 81, 0
2, 90958, Note_on_c, 0, 77, 0
2, 90958, Note_on_c, 0, 73, 0
2, 90958, Note_on_c, 0, 69, 0
2, 90960, Note_on_c, 0, 73, 49
2, 90960, Note_on_c, 0, 68, 49
2, 90960, Note_on_c, 0, 77, 49
2, 90960, Note_on_c, 0, 80, 64
2, 91198, Note_on_c, 0, 80, 0
2, 91198, Note_on_c, 0, 68, 0
2, 91198, Note_on_c, 0, 77, 0
2, 91198, Note_on_c, 0, 73, 0
2, 91200, Note_on_c, 0, 85, 0
2, 91200, Note_on_c, 0, 66, 67
2, 91200, Note_on_c, 0, 70, 67
2, 91200, Note_on_c, 0, 73, 67
2, 91200, Note_on_c, 0, 78, 79
2, 91360, Note_on_c, 0, 73, 0
2, 91360, Note_on_c, 0, 66, 0
2, 91360, Note_on_c, 0, 70, 0
2, 91360, Note_on_c, 0, 66, 48
2, 91360, Note_on_c, 0, 73, 48
2, 91420, Note_on_c, 0, 66, 0
2, 91440, Note_on_c, 0, 73, 0
2, 91440, Note_on_c, 0, 78, 48
2, 91520, Note_on_c, 0, 78, 0
2, 91520, Note_on_c, 0, 80, 48
2, 91560, Note_on_c, 0, 78, 0
2, 91560, Note_on_c, 0, 73, 76
2, 91560, Note_on_c, 0, 85, 85
2, 91600, Note_on_c, 0, 80, 0
2, 91600, Note_on_c, 0, 82, 48
2, 91680, Note_on_c, 0, 82, 0
2, 91680, Note_on_c, 0, 85, 0
2, 91680, Note_on_c, 0, 73, 0
2, 91680, Note_on_c, 0, 78, 67
2, 91680, Note_on_c, 0, 85, 67
2, 91680, Note_on_c, 0, 82, 67
2, 91680, Note_on_c, 0, 90, 81
2, 92040, Note_on_c, 0, 82, 0
2, 92040, Note_on_c, 0, 78, 0
2, 92040, Note_on_c, 0, 85, 0
2, 92040, Note_on_c, 0, 70, 52
2, 92040, Note_on_c, 0, 73, 52
2, 92040, Note_on_c, 0, 78, 52
2, 92040, Note_on_c, 0, 82, 62
2, 92159, Note_on_c, 0, 82, 0
2, 92159, Note_on_c, 0, 73, 0
2, 92159, Note_on_c, 0, 78, 0
2, 92159, Note_on_c, 0, 70, 0
2, 92160, Note_on_c, 0, 77, 59
2, 92160, Note_on_c, 0, 73, 59
2, 92160, Note_on_c, 0, 78, 59
2, 92160, Note_on_c, 0, 85, 77
2, 92398, Note_on_c, 0, 85, 0
2, 92398, Note_on_c, 0, 73, 0
2, 92398, Note_on_c, 0, 78, 0
2, 92398, Note_on_c, 0, 77, 0
2, 92400, Note_on_c, 0, 72, 52
2, 92400, Note_on_c, 0, 76, 52
2, 92400, Note_on_c, 0, 78, 52
2, 92400, Note_on_c, 0, 84, 68
2, 92638, Note_on_c, 0, 84, 0
2, 92638, Note_on_c, 0, 76, 0
2, 92638, Note_on_c, 0, 78, 0
2, 92638, Note_on_c, 0, 72, 0
2, 92640, Note_on_c, 0, 90, 0
2, 92640, Note_on_c, 0, 75, 56
2, 92640, Note_on_c, 0, 71, 56
2, 92640, Note_on_c, 0, 78, 56
2, 92640, Note_on_c, 0, 83, 72
2, 92640, Note_on_c, 0, 85, 64
2, 92878, Note_on_c, 0, 83, 0
2, 92878, Note_on_c, 0, 78, 0
2, 92878, Note_on_c, 0, 75, 0
2, 92878, Note_on_c, 0, 71, 0
2, 92880, Note_on_c, 0, 74, 49
2, 92880, Note_on_c, 0, 70, 49
2, 92880, Note_on_c, 0, 78, 49
2, 92880, Note_on_c, 0, 82, 64
2, 93118, Note_on_c, 0, 82, 0
2, 93118, Note_on_c, 0, 70, 0
2, 93118, Note_on_c, 0, 78, 0
2, 93118, Note_on_c, 0, 74, 0
2, 93120, Note_on_c, 0, 85, 0
2, 93120, Note_on_c, 0, 69, 73
2, 93120, Note_on_c, 0, 73, 73
2, 93120, Note_on_c, 0, 76, 73
2, 93120, Note_on_c, 0, 81, 86
2, 93280, Note_on_c, 0, 76, 0
2, 93280, Note_on_c, 0, 69, 0
2, 93280, Note_on_c, 0, 73, 0
2, 93280, Note_on_c, 0, 69, 48
2, 93280, Note_on_c, 0, 73, 48
2, 93340, Note_on_c, 0, 69, 0
2, 93360, Note_on_c, 0, 73, 0
2, 93360, Note_on_c, 0, 81, 48
2, 93440, Note_on_c, 0, 81, 0
2, 93440, Note_on_c, 0, 83, 48
2, 93480, Note_on_c, 0, 81, 0
2, 93480, Note_on_c, 0, 76, 76
2, 93480, Note_on_c, 0, 88, 85
2, 93520, Note_on_c, 0, 83, 0
2, 93520, Note_on_c, 0, 85, 48
2, 93600, Note_on_c, 0, 85, 0
2, 93600, Note_on_c, 0, 88, 0
2, 93600, Note_on_c, 0, 76, 0
2, 93600, Note_on_c, 0, 81, 67
2, 93600, Note_on_c, 0, 88, 67
2, 93600, Note_on_c, 0, 85, 67
2, 93600, Note_on_c, 0, 93, 81
2, 93960, Note_on_c, 0, 85, 0
2, 93960, Note_on_c, 0, 81, 0
2, 93960, Note_on_c, 0, 88, 0
2, 93960, Note_on_c, 0, 73, 52
2, 93960, Note_on_c, 0, 81, 52
2, 93960, Note_on_c, 0, 85, 62
2, 94079, Note_on_c, 0, 85, 0
2, 94079, Note_on_c, 0, 81, 0
2, 94079, Note_on_c, 0, 73, 0
2, 94080, Note_on_c, 0, 76, 59
2, 94080, Note_on_c, 0, 81, 59
2, 94080, Note_on_c, 0, 88, 77
2, 94318, Note_on_c, 0, 88, 0
2, 94318, Note_on_c, 0, 81, 0
2, 94318, Note_on_c, 0, 76, 0
2, 94320, Note_on_c, 0, 75, 52
2, 94320, Note_on_c, 0, 81, 52
2, 94320, Note_on_c, 0, 87, 68
2, 94558, Note_on_c, 0, 87, 0
2, 94558, Note_on_c, 0, 81, 0
2, 94558, Note_on_c, 0, 75, 0
2, 94560, Note_on_c, 0, 93, 0
2, 94560, Note_on_c, 0, 74, 56
2, 94560, Note_on_c, 0, 80, 56
2, 94560, Note_on_c, 0, 86, 72
2, 94560, Note_on_c, 0, 92, 71
2, 94798, Note_on_c, 0, 86, 0
2, 94798, Note_on_c, 0, 74, 0
2, 94798, Note_on_c, 0, 80, 0
2, 94800, Note_on_c, 0, 78, 49
2, 94800, Note_on_c, 0, 73, 49
2, 94800, Note_on_c, 0, 80, 49
2, 94800, Note_on_c, 0, 85, 64
2, 94919, Note_on_c, 0, 85, 0
2, 94919, Note_on_c, 0, 73, 0
2, 94919, Note_on_c, 0, 80, 0
2, 94919, Note_on_c, 0, 78, 0
2, 94920, Note_on_c, 0, 84, 62
2, 94920, Note_on_c, 0, 80, 47
2, 94920, Note_on_c, 0, 78, 47
2, 94920, Note_on_c, 0, 72, 47
2, 95039, Note_on_c, 0, 72, 0
2, 95039, Note_on_c, 0, 80, 0
2, 95039, Note_on_c, 0, 78, 0
2, 95039, Note_on_c, 0, 84, 0
2, 95040, Note_on_c, 0, 92, 0
2, 95360, Note_on_c, 0, 73, 48
2, 95360, Note_on_c, 0, 77, 48
2, 95360, Note_on_c, 0, 85, 48
2, 95360, Note_on_c, 0, 80, 48
2, 95432, Note_on_c, 0, 80, 0
2, 95432, Note_on_c, 0, 73, 0
2, 95432, Note_on_c, 0, 77, 0
2, 95432, Note_on_c, 0, 85, 0
2, 95440, Note_on_c, 0, 80, 48
2, 95440, Note_on_c, 0, 73, 48
2, 95440, Note_on_c, 0, 77, 48
2, 95440, Note_on_c, 0, 85, 48
2, 95512, Note_on_c, 0, 85, 0
2, 95512, Note_on_c, 0, 80, 0
2, 95512, Note_on_c, 0, 73, 0
2, 95512, Note_on_c, 0, 77, 0
2, 95600, Note_on_c, 0, 77, 48
2, 95600, Note_on_c, 0, 72, 48
2, 95600, Note_on_c, 0, 75, 48
2, 95600, Note_on_c, 0, 84, 48
2, 95672, Note_on_c, 0, 84, 0
2, 95672, Note_on_c, 0, 77, 0
2, 95672, Note_on_c, 0, 72, 0
2, 95672, Note_on_c, 0, 75, 0
2, 95680, Note_on_c, 0, 77, 48
2, 95680, Note_on_c, 0, 75, 48
2, 95680, Note_on_c, 0, 84, 48
2, 95680, Note_on_c, 0, 72, 48
2, 95752, Note_on_c, 0, 72, 0
2, 95752, Note_on_c, 0, 77, 0
2, 95752, Note_on_c, 0, 75, 0
2, 95752, Note_on_c, 0, 84, 0
2, 95840, Note_on_c, 0, 71, 48
2, 95840, Note_on_c, 0, 74, 48
2, 95840, Note_on_c, 0, 83, 48
2, 95840, Note_on_c, 0, 77, 48
2, 95912, Note_on_c, 0, 77, 0
2, 95912, Note_on_c, 0, 71, 0
2, 95912, Note_on_c, 0, 74, 0
2, 95912, Note_on_c, 0, 83, 0
2, 95920, Note_on_c, 0, 77, 48
2, 95920, Note_on_c, 0, 83, 48
2, 95920, Note_on_c, 0, 71, 48
2, 95920, Note_on_c, 0, 74, 48
2, 95992, Note_on_c, 0, 74, 0
2, 95992, Note_on_c, 0, 77, 0
2, 95992, Note_on_c, 0, 83, 0
2, 95992, Note_on_c, 0, 71, 0
2, 96000, Note_on_c, 0, 94, 79
2, 96000, Note_on_c, 0, 89, 67
2, 96000, Note_on_c, 0, 85, 67
2, 96000, Note_on_c, 0, 82, 67
2, 96079, Note_on_c, 0, 82, 0
2, 96080, Note_on_c, 0, 70, 48
2, 96080, Note_on_c, 0, 73, 48
2, 96080, Note_on_c, 0, 82, 48
2, 96080, Note_on_c, 0, 77, 48
2, 96152, Note_on_c, 0, 77, 0
2, 96152, Note_on_c, 0, 73, 0
2, 96152, Note_on_c, 0, 70, 0
2, 96152, Note_on_c, 0, 82, 0
2, 96160, Note_on_c, 0, 77, 48
2, 96160, Note_on_c, 0, 70, 48
2, 96160, Note_on_c, 0, 73, 48
2, 96160, Note_on_c, 0, 82, 48
2, 96232, Note_on_c, 0, 82, 0
2, 96232, Note_on_c, 0, 70, 0
2, 96232, Note_on_c, 0, 77, 0
2, 96232, Note_on_c, 0, 73, 0
2, 96320, Note_on_c, 0, 68, 48
2, 96320, Note_on_c, 0, 73, 48
2, 96320, Note_on_c, 0, 80, 48
2, 96320, Note_on_c, 0, 77, 48
2, 96392, Note_on_c, 0, 77, 0
2, 96392, Note_on_c, 0, 73, 0
2, 96392, Note_on_c, 0, 68, 0
2, 96392, Note_on_c, 0, 80, 0
2, 96400, Note_on_c, 0, 77, 48
2, 96400, Note_on_c, 0, 68, 48
2, 96400, Note_on_c, 0, 73, 48
2, 96400, Note_on_c, 0, 80, 48
2, 96472, Note_on_c, 0, 80, 0
2, 96472, Note_on_c, 0, 68, 0
2, 96472, Note_on_c, 0, 77, 0
2, 96472, Note_on_c, 0, 73, 0
2, 96560, Note_on_c, 0, 67, 48
2, 96560, Note_on_c, 0, 73, 48
2, 96560, Note_on_c, 0, 79, 48
2, 96560, Note_on_c, 0, 77, 48
2, 96632, Note_on_c, 0, 77, 0
2, 96632, Note_on_c, 0, 73, 0
2, 96632, Note_on_c, 0, 67, 0
2, 96632, Note_on_c, 0, 79, 0
2, 96640, Note_on_c, 0, 77, 48
2, 96640, Note_on_c, 0, 67, 48
2, 96640, Note_on_c, 0, 73, 48
2, 96640, Note_on_c, 0, 79, 48
2, 96712, Note_on_c, 0, 79, 0
2, 96712, Note_on_c, 0, 67, 0
2, 96712, Note_on_c, 0, 77, 0
2, 96712, Note_on_c, 0, 73, 0
2, 96720, Note_on_c, 0, 94, 0
2, 96720, Note_on_c, 0, 89, 0
2, 96720, Note_on_c, 0, 85, 0
2, 96720, Note_on_c, 0, 92, 79
2, 96720, Note_on_c, 0, 87, 67
2, 96720, Note_on_c, 0, 84, 67
2, 96720, Note_on_c, 0, 80, 67
2, 96800, Note_on_c, 0, 66, 48
2, 96800, Note_on_c, 0, 72, 48
2, 96800, Note_on_c, 0, 78, 48
2, 96800, Note_on_c, 0, 75, 48
2, 96872, Note_on_c, 0, 75, 0
2, 96872, Note_on_c, 0, 78, 0
2, 96872, Note_on_c, 0, 66, 0
2, 96872, Note_on_c, 0, 72, 0
2, 96880, Note_on_c, 0, 75, 48
2, 96880, Note_on_c, 0, 66, 48
2, 96880, Note_on_c, 0, 72, 48
2, 96880, Note_on_c, 0, 78, 48
2, 96952, Note_on_c, 0, 78, 0
2, 96952, Note_on_c, 0, 72, 0
2, 96952, Note_on_c, 0, 75, 0
2, 96952, Note_on_c, 0, 66, 0
2, 96960, Note_on_c, 0, 92, 0
2, 96960, Note_on_c, 0, 84, 0
2, 96960, Note_on_c, 0, 87, 0
2, 96960, Note_on_c, 0, 80, 0
2, 96960, Note_on_c, 0, 73, 67
2, 96960, Note_on_c, 0, 77, 67
2, 96960, Note_on_c, 0, 80, 67
2, 96960, Note_on_c, 0, 85, 79
2, 97038, Note_on_c, 0, 77, 0
2, 97038, Note_on_c, 0, 73, 0
2, 97040, Note_on_c, 0, 68, 40
2, 97040, Note_on_c, 0, 77, 48
2, 97040, Note_on_c, 0, 73, 40
2, 97040, Note_on_c, 0, 65, 40
2, 97112, Note_on_c, 0, 65, 0
2, 97112, Note_on_c, 0, 77, 0
2, 97112, Note_on_c, 0, 68, 0
2, 97112, Note_on_c, 0, 73, 0
2, 97120, Note_on_c, 0, 73, 40
2, 97120, Note_on_c, 0, 68, 40
2, 97120, Note_on_c, 0, 77, 48
2, 97120, Note_on_c, 0, 65, 40
2, 97192, Note_on_c, 0, 65, 0
2, 97192, Note_on_c, 0, 68, 0
2, 97192, Note_on_c, 0, 73, 0
2, 97192, Note_on_c, 0, 77, 0
2, 97280, Note_on_c, 0, 85, 48
2, 97280, Note_on_c, 0, 73, 40
2, 97280, Note_on_c, 0, 77, 40
2, 97280, Note_on_c, 0, 80, 40
2, 97352, Note_on_c, 0, 80, 0
2, 97352, Note_on_c, 0, 73, 0
2, 97352, Note_on_c, 0, 85, 0
2, 97352, Note_on_c, 0, 77, 0
2, 97360, Note_on_c, 0, 85, 48
2, 97360, Note_on_c, 0, 80, 40
2, 97360, Note_on_c, 0, 73, 40
2, 97360, Note_on_c, 0, 77, 40
2, 97432, Note_on_c, 0, 77, 0
2, 97432, Note_on_c, 0, 80, 0
2, 97432, Note_on_c, 0, 85, 0
2, 97432, Note_on_c, 0, 73, 0
2, 97440, Note_on_c, 0, 80, 0
2, 97440, Note_on_c, 0, 85, 0
2, 97520, Note_on_c, 0, 77, 40
2, 97520, Note_on_c, 0, 72, 40
2, 97520, Note_on_c, 0, 75, 40
2, 97520, Note_on_c, 0, 84, 48
2, 97592, Note_on_c, 0, 84, 0
2, 97592, Note_on_c, 0, 77, 0
2, 97592, Note_on_c, 0, 72, 0
2, 97592, Note_on_c, 0, 75, 0
2, 97600, Note_on_c, 0, 77, 40
2, 97600, Note_on_c, 0, 75, 40
2, 97600, Note_on_c, 0, 84, 48
2, 97600, Note_on_c, 0, 72, 40
2, 97672, Note_on_c, 0, 72, 0
2, 97672, Note_on_c, 0, 77, 0
2, 97672, Note_on_c, 0, 75, 0
2, 97672, Note_on_c, 0, 84, 0
2, 97760, Note_on_c, 0, 71, 40
2, 97760, Note_on_c, 0, 74, 40
2, 97760, Note_on_c, 0, 83, 48
2, 97760, Note_on_c, 0, 77, 40
2, 97832, Note_on_c, 0, 77, 0
2, 97832, Note_on_c, 0, 71, 0
2, 97832, Note_on_c, 0, 74, 0
2, 97832, Note_on_c, 0, 83, 0
2, 97840, Note_on_c, 0, 77, 40
2, 97840, Note_on_c, 0, 83, 48
2, 97840, Note_on_c, 0, 71, 40
2, 97840, Note_on_c, 0, 74, 40
2, 97912, Note_on_c, 0, 74, 0
2, 97912, Note_on_c, 0, 77, 0
2, 97912, Note_on_c, 0, 83, 0
2, 97912, Note_on_c, 0, 71, 0
2, 97920, Note_on_c, 0, 94, 79
2, 97920, Note_on_c, 0, 89, 67
2, 97920, Note_on_c, 0, 85, 67
2, 97920, Note_on_c, 0, 82, 67
2, 97991, Note_on_c, 0, 82, 0
2, 98000, Note_on_c, 0, 70, 40
2, 98000, Note_on_c, 0, 73, 40
2, 98000, Note_on_c, 0, 82, 48
2, 98000, Note_on_c, 0, 77, 40
2, 98072, Note_on_c, 0, 77, 0
2, 98072, Note_on_c, 0, 73, 0
2, 98072, Note_on_c, 0, 70, 0
2, 98072, Note_on_c, 0, 82, 0
2, 98080, Note_on_c, 0, 77, 40
2, 98080, Note_on_c, 0, 70, 40
2, 98080, Note_on_c, 0, 73, 40
2, 98080, Note_on_c, 0, 82, 48
2, 98152, Note_on_c, 0, 82, 0
2, 98152, Note_on_c, 0, 70, 0
2, 98152, Note_on_c, 0, 77, 0
2, 98152, Note_on_c, 0, 73, 0
2, 98240, Note_on_c, 0, 68, 40
2, 98240, Note_on_c, 0, 73, 40
2, 98240, Note_on_c, 0, 80, 48
2, 98240, Note_on_c, 0, 77, 40
2, 98312, Note_on_c, 0, 77, 0
2, 98312, Note_on_c, 0, 73, 0
2, 98312, Note_on_c, 0, 68, 0
2, 98312, Note_on_c, 0, 80, 0
2, 98320, Note_on_c, 0, 77, 40
2, 98320, Note_on_c, 0, 68, 40
2, 98320, Note_on_c, 0, 73, 40
2, 98320, Note_on_c, 0, 80, 48
2, 98392, Note_on_c, 0, 80, 0
2, 98392, Note_on_c, 0, 68, 0
2, 98392, Note_on_c, 0, 77, 0
2, 98392, Note_on_c, 0, 73, 0
2, 98480, Note_on_c, 0, 67, 40
2, 98480, Note_on_c, 0, 73, 40
2, 98480, Note_on_c, 0, 79, 48
2, 98480, Note_on_c, 0, 77, 48
2, 98552, Note_on_c, 0, 77, 0
2, 98552, Note_on_c, 0, 73, 0
2, 98552, Note_on_c, 0, 67, 0
2, 98552, Note_on_c, 0, 79, 0
2, 98560, Note_on_c, 0, 77, 48
2, 98560, Note_on_c, 0, 67, 40
2, 98560, Note_on_c, 0, 73, 40
2, 98560, Note_on_c, 0, 79, 48
2, 98632, Note_on_c, 0, 79, 0
2, 98632, Note_on_c, 0, 67, 0
2, 98632, Note_on_c, 0, 77, 0
2, 98632, Note_on_c, 0, 73, 0
2, 98640, Note_on_c, 0, 94, 0
2, 98640, Note_on_c, 0, 89, 0
2, 98640, Note_on_c, 0, 85, 0
2, 98640, Note_on_c, 0, 92, 79
2, 98640, Note_on_c, 0, 87, 67
2, 98640, Note_on_c, 0, 84, 67
2, 98640, Note_on_c, 0, 80, 67
2, 98720, Note_on_c, 0, 66, 48
2, 98720, Note_on_c, 0, 72, 48
2, 98720, Note_on_c, 0, 78, 48
2, 98720, Note_on_c, 0, 75, 48
2, 98792, Note_on_c, 0, 75, 0
2, 98792, Note_on_c, 0, 78, 0
2, 98792, Note_on_c, 0, 66, 0
2, 98792, Note_on_c, 0, 72, 0
2, 98800, Note_on_c, 0, 75, 48
2, 98800, Note_on_c, 0, 66, 48
2, 98800, Note_on_c, 0, 72, 48
2, 98800, Note_on_c, 0, 78, 48
2, 98872, Note_on_c, 0, 78, 0
2, 98872, Note_on_c, 0, 72, 0
2, 98872, Note_on_c, 0, 75, 0
2, 98872, Note_on_c, 0, 66, 0
2, 98880, Note_on_c, 0, 92, 0
2, 98880, Note_on_c, 0, 84, 0
2, 98880, Note_on_c, 0, 87, 0
2, 98880, Note_on_c, 0, 80, 0
2, 98880, Note_on_c, 0, 85, 89
2, 98880, Note_on_c, 0, 80, 75
2, 98880, Note_on_c, 0, 77, 75
2, 98880, Note_on_c, 0, 73, 89
2, 98960, Note_on_c, 0, 77, 0
2, 98960, Note_on_c, 0, 85, 0
2, 98960, Note_on_c, 0, 80, 0
2, 98960, Note_on_c, 0, 77, 62
2, 98960, Note_on_c, 0, 85, 62
2, 99040, Note_on_c, 0, 85, 0
2, 99040, Note_on_c, 0, 77, 0
2, 99040, Note_on_c, 0, 80, 62
2, 99040, Note_on_c, 0, 89, 62
2, 99120, Note_on_c, 0, 89, 0
2, 99120, Note_on_c, 0, 80, 0
2, 99120, Note_on_c, 0, 73, 0
2, 99120, Note_on_c, 0, 89, 62
2, 99120, Note_on_c, 0, 84, 76
2, 99120, Note_on_c, 0, 96, 76
2, 99200, Note_on_c, 0, 89, 0
2, 99200, Note_on_c, 0, 87, 62
2, 99280, Note_on_c, 0, 87, 0
2, 99280, Note_on_c, 0, 89, 62
2, 99360, Note_on_c, 0, 89, 0
2, 99360, Note_on_c, 0, 96, 0
2, 99360, Note_on_c, 0, 84, 0
2, 99360, Note_on_c, 0, 85, 62
2, 99360, Note_on_c, 0, 89, 62
2, 99360, Note_on_c, 0, 101, 92
2, 99440, Note_on_c, 0, 89, 0
2, 99440, Note_on_c, 0, 85, 0
2, 99440, Note_on_c, 0, 80, 62
2, 99520, Note_on_c, 0, 80, 0
2, 99520, Note_on_c, 0, 89, 62
2, 99600, Note_on_c, 0, 89, 0
2, 99600, Note_on_c, 0, 101, 0
2, 99600, Note_on_c, 0, 85, 62
2, 99600, Note_on_c, 0, 92, 70
2, 99680, Note_on_c, 0, 85, 0
2, 99680, Note_on_c, 0, 77, 62
2, 99760, Note_on_c, 0, 77, 0
2, 99760, Note_on_c, 0, 80, 62
2, 99840, Note_on_c, 0, 80, 0
2, 99840, Note_on_c, 0, 92, 0
2, 99840, Note_on_c, 0, 84, 62
2, 99840, Note_on_c, 0, 88, 62
2, 99840, Note_on_c, 0, 96, 91
2, 99920, Note_on_c, 0, 88, 0
2, 99920, Note_on_c, 0, 84, 0
2, 99920, Note_on_c, 0, 84, 62
2, 100000, Note_on_c, 0, 84, 0
2, 100000, Note_on_c, 0, 88, 62
2, 100080, Note_on_c, 0, 88, 0
2, 100080, Note_on_c, 0, 96, 0
2, 100080, Note_on_c, 0, 84, 62
2, 100080, Note_on_c, 0, 91, 78
2, 100160, Note_on_c, 0, 84, 0
2, 100160, Note_on_c, 0, 76, 62
2, 100240, Note_on_c, 0, 76, 0
2, 100240, Note_on_c, 0, 79, 62
2, 100320, Note_on_c, 0, 79, 0
2, 100320, Note_on_c, 0, 91, 0
2, 100320, Note_on_c, 0, 82, 62
2, 100320, Note_on_c, 0, 87, 62
2, 100320, Note_on_c, 0, 94, 93
2, 100400, Note_on_c, 0, 87, 0
2, 100400, Note_on_c, 0, 82, 0
2, 100400, Note_on_c, 0, 82, 62
2, 100480, Note_on_c, 0, 82, 0
2, 100480, Note_on_c, 0, 87, 62
2, 100560, Note_on_c, 0, 87, 0
2, 100560, Note_on_c, 0, 94, 0
2, 100560, Note_on_c, 0, 82, 62
2, 100560, Note_on_c, 0, 90, 77
2, 100640, Note_on_c, 0, 82, 0
2, 100640, Note_on_c, 0, 75, 62
2, 100720, Note_on_c, 0, 75, 0
2, 100720, Note_on_c, 0, 78, 62
2, 100800, Note_on_c, 0, 78, 0
2, 100800, Note_on_c, 0, 90, 0
2, 100800, Note_on_c, 0, 82, 62
2, 100800, Note_on_c, 0, 86, 62
2, 100800, Note_on_c, 0, 94, 91
2, 100880, Note_on_c, 0, 86, 0
2, 100880, Note_on_c, 0, 82, 0
2, 100880, Note_on_c, 0, 82, 62
2, 100960, Note_on_c, 0, 82, 0
2, 100960, Note_on_c, 0, 86, 62
2, 101040, Note_on_c, 0, 86, 0
2, 101040, Note_on_c, 0, 94, 0
2, 101040, Note_on_c, 0, 82, 62
2, 101040, Note_on_c, 0, 89, 78
2, 101120, Note_on_c, 0, 82, 0
2, 101120, Note_on_c, 0, 74, 62
2, 101200, Note_on_c, 0, 74, 0
2, 101200, Note_on_c, 0, 82, 62
2, 101280, Note_on_c, 0, 82, 0
2, 101280, Note_on_c, 0, 89, 0
2, 101280, Note_on_c, 0, 80, 62
2, 101280, Note_on_c, 0, 85, 62
2, 101280, Note_on_c, 0, 92, 93
2, 101360, Note_on_c, 0, 85, 0
2, 101360, Note_on_c, 0, 80, 0
2, 101360, Note_on_c, 0, 80, 62
2, 101440, Note_on_c, 0, 80, 0
2, 101440, Note_on_c, 0, 82, 62
2, 101520, Note_on_c, 0, 82, 0
2, 101520, Note_on_c, 0, 92, 0
2, 101520, Note_on_c, 0, 80, 62
2, 101520, Note_on_c, 0, 85, 77
2, 101600, Note_on_c, 0, 80, 0
2, 101600, Note_on_c, 0, 73, 62
2, 101680, Note_on_c, 0, 73, 0
2, 101680, Note_on_c, 0, 80, 62
2, 101760, Note_on_c, 0, 80, 0
2, 101760, Note_on_c, 0, 85, 0
2, 101760, Note_on_c, 0, 77, 62
2, 101760, Note_on_c, 0, 82, 62
2, 101760, Note_on_c, 0, 89, 91
2, 101840, Note_on_c, 0, 82, 0
2, 101840, Note_on_c, 0, 77, 0
2, 101840, Note_on_c, 0, 77, 62
2, 101920, Note_on_c, 0, 77, 0
2, 101920, Note_on_c, 0, 79, 62
2, 102000, Note_on_c, 0, 79, 0
2, 102000, Note_on_c, 0, 89, 0
2, 102000, Note_on_c, 0, 77, 62
2, 102000, Note_on_c, 0, 82, 78
2, 102080, Note_on_c, 0, 77, 0
2, 102080, Note_on_c, 0, 70, 62
2, 102160, Note_on_c, 0, 70, 0
2, 102160, Note_on_c, 0, 77, 62
2, 102240, Note_on_c, 0, 77, 0
2, 102240, Note_on_c, 0, 82, 0
2, 102240, Note_on_c, 0, 77, 62
2, 102240, Note_on_c, 0, 84, 62
2, 102240, Note_on_c, 0, 89, 93
2, 102320, Note_on_c, 0, 84, 0
2, 102320, Note_on_c, 0, 77, 0
2, 102320, Note_on_c, 0, 77, 62
2, 102400, Note_on_c, 0, 77, 0
2, 102400, Note_on_c, 0, 78, 62
2, 102480, Note_on_c, 0, 78, 0
2, 102480, Note_on_c, 0, 89, 0
2, 102480, Note_on_c, 0, 77, 62
2, 102480, Note_on_c, 0, 84, 77
2, 102560, Note_on_c, 0, 77, 0
2, 102560, Note_on_c, 0, 72, 62
2, 102640, Note_on_c, 0, 72, 0
2, 102640, Note_on_c, 0, 77, 62
2, 102720, Note_on_c, 0, 77, 0
2, 102720, Note_on_c, 0, 84, 0
2, 102720, Note_on_c, 0, 75, 62
2, 102720, Note_on_c, 0, 80, 62
2, 102720, Note_on_c, 0, 87, 91
2, 102800, Note_on_c, 0, 80, 0
2, 102800, Note_on_c, 0, 75, 0
2, 102800, Note_on_c, 0, 75, 62
2, 102880, Note_on_c, 0, 75, 0
2, 102880, Note_on_c, 0, 77, 61
2, 102960, Note_on_c, 0, 77, 0
2, 102960, Note_on_c, 0, 87, 0
2, 102960, Note_on_c, 0, 75, 61
2, 102960, Note_on_c, 0, 80, 77
2, 103040, Note_on_c, 0, 75, 0
2, 103040, Note_on_c, 0, 68, 60
2, 103120, Note_on_c, 0, 68, 0
2, 103120, Note_on_c, 0, 75, 60
2, 103200, Note_on_c, 0, 75, 0
2, 103200, Note_on_c, 0, 80, 0
2, 103200, Note_on_c, 0, 73, 60
2, 103200, Note_on_c, 0, 77, 60
2, 103200, Note_on_c, 0, 85, 90
2, 103280, Note_on_c, 0, 77, 0
2, 103280, Note_on_c, 0, 76, 60
2, 103360, Note_on_c, 0, 76, 0
2, 103360, Note_on_c, 0, 77, 59
2, 103440, Note_on_c, 0, 77, 0
2, 103440, Note_on_c, 0, 85, 0
2, 103440, Note_on_c, 0, 73, 0
2, 103440, Note_on_c, 0, 73, 59
2, 103440, Note_on_c, 0, 80, 73
2, 103520, Note_on_c, 0, 73, 0
2, 103520, Note_on_c, 0, 68, 58
2, 103600, Note_on_c, 0, 68, 0
2, 103600, Note_on_c, 0, 73, 58
2, 103680, Note_on_c, 0, 73, 0
2, 103680, Note_on_c, 0, 80, 0
2, 103680, Note_on_c, 0, 72, 58
2, 103680, Note_on_c, 0, 75, 58
2, 103680, Note_on_c, 0, 84, 85
2, 103760, Note_on_c, 0, 75, 0
2, 103760, Note_on_c, 0, 75, 58
2, 103840, Note_on_c, 0, 75, 0
2, 103840, Note_on_c, 0, 76, 57
2, 103920, Note_on_c, 0, 76, 0
2, 103920, Note_on_c, 0, 84, 0
2, 103920, Note_on_c, 0, 72, 0
2, 103920, Note_on_c, 0, 72, 57
2, 103920, Note_on_c, 0, 79, 72
2, 104000, Note_on_c, 0, 72, 0
2, 104000, Note_on_c, 0, 67, 57
2, 104080, Note_on_c, 0, 67, 0
2, 104080, Note_on_c, 0, 72, 57
2, 104160, Note_on_c, 0, 72, 0
2, 104160, Note_on_c, 0, 79, 0
2, 104160, Note_on_c, 0, 71, 56
2, 104160, Note_on_c, 0, 75, 56
2, 104160, Note_on_c, 0, 83, 84
2, 104240, Note_on_c, 0, 75, 0
2, 104240, Note_on_c, 0, 74, 56
2, 104320, Note_on_c, 0, 74, 0
2, 104320, Note_on_c, 0, 75, 55
2, 104400, Note_on_c, 0, 75, 0
2, 104400, Note_on_c, 0, 83, 0
2, 104400, Note_on_c, 0, 71, 0
2, 104400, Note_on_c, 0, 71, 55
2, 104400, Note_on_c, 0, 78, 69
2, 104480, Note_on_c, 0, 71, 0
2, 104480, Note_on_c, 0, 66, 55
2, 104560, Note_on_c, 0, 66, 0
2, 104560, Note_on_c, 0, 71, 55
2, 104640, Note_on_c, 0, 71, 0
2, 104640, Note_on_c, 0, 78, 0
2, 104640, Note_on_c, 0, 71, 54
2, 104640, Note_on_c, 0, 74, 54
2, 104640, Note_on_c, 0, 83, 80
2, 104720, Note_on_c, 0, 74, 0
2, 104720, Note_on_c, 0, 73, 53
2, 104800, Note_on_c, 0, 73, 0
2, 104800, Note_on_c, 0, 74, 53
2, 104880, Note_on_c, 0, 74, 0
2, 104880, Note_on_c, 0, 83, 0
2, 104880, Note_on_c, 0, 71, 0
2, 104880, Note_on_c, 0, 71, 53
2, 104880, Note_on_c, 0, 77, 67
2, 104960, Note_on_c, 0, 71, 0
2, 104960, Note_on_c, 0, 65, 53
2, 105040, Note_on_c, 0, 65, 0
2, 105040, Note_on_c, 0, 71, 52
2, 105120, Note_on_c, 0, 71, 0
2, 105120, Note_on_c, 0, 77, 0
2, 105120, Note_on_c, 0, 70, 52
2, 105120, Note_on_c, 0, 73, 52
2, 105120, Note_on_c, 0, 82, 79
2, 105200, Note_on_c, 0, 73, 0
2, 105200, Note_on_c, 0, 70, 0
2, 105200, Note_on_c, 0, 72, 52
2, 105280, Note_on_c, 0, 72, 0
2, 105280, Note_on_c, 0, 71, 52
2, 105360, Note_on_c, 0, 71, 0
2, 105360, Note_on_c, 0, 82, 0
2, 105360, Note_on_c, 0, 70, 51
2, 105360, Note_on_c, 0, 73, 63
2, 105440, Note_on_c, 0, 70, 0
2, 105440, Note_on_c, 0, 61, 51
2, 105520, Note_on_c, 0, 61, 0
2, 105520, Note_on_c, 0, 70, 50
2, 105600, Note_on_c, 0, 70, 0
2, 105600, Note_on_c, 0, 73, 0
2, 105600, Note_on_c, 0, 68, 50
2, 105600, Note_on_c, 0, 73, 50
2, 105600, Note_on_c, 0, 80, 74
2, 105680, Note_on_c, 0, 73, 0
2, 105680, Note_on_c, 0, 68, 0
2, 105680, Note_on_c, 0, 68, 50
2, 105760, Note_on_c, 0, 68, 0
2, 105760, Note_on_c, 0, 70, 50
2, 105840, Note_on_c, 0, 70, 0
2, 105840, Note_on_c, 0, 80, 0
2, 105840, Note_on_c, 0, 68, 49
2, 105840, Note_on_c, 0, 73, 62
2, 105920, Note_on_c, 0, 68, 0
2, 105920, Note_on_c, 0, 61, 49
2, 106000, Note_on_c, 0, 61, 0
2, 106000, Note_on_c, 0, 70, 48
2, 106080, Note_on_c, 0, 70, 0
2, 106080, Note_on_c, 0, 73, 0
2, 106080, Note_on_c, 0, 65, 48
2, 106080, Note_on_c, 0, 68, 48
2, 106080, Note_on_c, 0, 77, 73
2, 106160, Note_on_c, 0, 68, 0
2, 106160, Note_on_c, 0, 65, 0
2, 106160, Note_on_c, 0, 67, 48
2, 106240, Note_on_c, 0, 67, 0
2, 106240, Note_on_c, 0, 66, 48
2, 106320, Note_on_c, 0, 77, 0
2, 106320, Note_on_c, 0, 68, 59
2, 106400, Note_on_c, 0, 66, 0
2, 106400, Note_on_c, 0, 54, 47
2, 106480, Note_on_c, 0, 54, 0
2, 106480, Note_on_c, 0, 60, 47
2, 106560, Note_on_c, 0, 60, 0
2, 106560, Note_on_c, 0, 68, 0
2, 106560, Note_on_c, 0, 65, 62
2, 106560, Note_on_c, 0, 61, 62
2, 106560, Note_on_c, 0, 73, 73
2, 106720, Note_on_c, 0, 53, 58
2, 106800, Note_on_c, 0, 53, 0
2, 106800, Note_on_c, 0, 56, 58
2, 106880, Note_on_c, 0, 56, 0
2, 106880, Note_on_c, 0, 51, 59
2, 106920, Note_on_c, 0, 73, 0
2, 106920, Note_on_c, 0, 65, 0
2, 106920, Note_on_c, 0, 61, 0
2, 106920, Note_on_c, 0, 56, 69
2, 106960, Note_on_c, 0, 51, 0
2, 106960, Note_on_c, 0, 53, 58
2, 107040, Note_on_c, 0, 53, 0
2, 107040, Note_on_c, 0, 56, 0
2, 107040, Note_on_c, 0, 56, 62
2, 107040, Note_on_c, 0, 53, 62
2, 107040, Note_on_c, 0, 61, 73
2, 107200, Note_on_c, 0, 53, 0
2, 107200, Note_on_c, 0, 56, 0
2, 107200, Note_on_c, 0, 53, 55
2, 107280, Note_on_c, 0, 53, 0
2, 107280, Note_on_c, 0, 65, 64
2, 107360, Note_on_c, 0, 65, 0
2, 107360, Note_on_c, 0, 63, 64
2, 107400, Note_on_c, 0, 61, 0
2, 107400, Note_on_c, 0, 68, 79
2, 107440, Note_on_c, 0, 63, 0
2, 107440, Note_on_c, 0, 65, 68
2, 107520, Note_on_c, 0, 65, 0
2, 107520, Note_on_c, 0, 68, 0
2, 107520, Note_on_c, 0, 61, 72
2, 107520, Note_on_c, 0, 69, 72
2, 107520, Note_on_c, 0, 73, 85
2, 107680, Note_on_c, 0, 64, 55
2, 107680, Note_on_c, 0, 69, 55
2, 107680, Note_on_c, 0, 76, 64
2, 107740, Note_on_c, 0, 76, 0
2, 107760, Note_on_c, 0, 64, 0
2, 107760, Note_on_c, 0, 69, 0
2, 107760, Note_on_c, 0, 64, 56
2, 107760, Note_on_c, 0, 69, 56
2, 107760, Note_on_c, 0, 76, 66
2, 107824, Note_on_c, 0, 76, 0
2, 107824, Note_on_c, 0, 64, 0
2, 107824, Note_on_c, 0, 69, 0
2, 107840, Note_on_c, 0, 63, 60
2, 107840, Note_on_c, 0, 69, 60
2, 107840, Note_on_c, 0, 75, 71
2, 107904, Note_on_c, 0, 75, 0
2, 107904, Note_on_c, 0, 63, 0
2, 107904, Note_on_c, 0, 69, 0
2, 107920, Note_on_c, 0, 63, 56
2, 107920, Note_on_c, 0, 69, 56
2, 107920, Note_on_c, 0, 75, 66
2, 107984, Note_on_c, 0, 75, 0
2, 107984, Note_on_c, 0, 63, 0
2, 107984, Note_on_c, 0, 69, 0
2, 108000, Note_on_c, 0, 63, 56
2, 108000, Note_on_c, 0, 69, 56
2, 108000, Note_on_c, 0, 75, 66
2, 108064, Note_on_c, 0, 75, 0
2, 108064, Note_on_c, 0, 63, 0
2, 108064, Note_on_c, 0, 69, 0
2, 108080, Note_on_c, 0, 62, 61
2, 108080, Note_on_c, 0, 69, 61
2, 108080, Note_on_c, 0, 74, 72
2, 108144, Note_on_c, 0, 74, 0
2, 108144, Note_on_c, 0, 62, 0
2, 108144, Note_on_c, 0, 69, 0
2, 108160, Note_on_c, 0, 62, 56
2, 108160, Note_on_c, 0, 69, 56
2, 108160, Note_on_c, 0, 74, 66
2, 108224, Note_on_c, 0, 74, 0
2, 108224, Note_on_c, 0, 62, 0
2, 108224, Note_on_c, 0, 69, 0
2, 108240, Note_on_c, 0, 62, 56
2, 108240, Note_on_c, 0, 69, 56
2, 108240, Note_on_c, 0, 74, 66
2, 108304, Note_on_c, 0, 74, 0
2, 108304, Note_on_c, 0, 62, 0
2, 108304, Note_on_c, 0, 69, 0
2, 108320, Note_on_c, 0, 61, 61
2, 108320, Note_on_c, 0, 69, 61
2, 108320, Note_on_c, 0, 73, 72
2, 108384, Note_on_c, 0, 73, 0
2, 108384, Note_on_c, 0, 61, 0
2, 108384, Note_on_c, 0, 69, 0
2, 108400, Note_on_c, 0, 61, 56
2, 108400, Note_on_c, 0, 69, 56
2, 108400, Note_on_c, 0, 73, 66
2, 108464, Note_on_c, 0, 73, 0
2, 108464, Note_on_c, 0, 61, 0
2, 108464, Note_on_c, 0, 69, 0
2, 108480, Note_on_c, 0, 61, 0
2, 108480, Note_on_c, 0, 73, 0
2, 108480, Note_on_c, 0, 69, 0
2, 108480, Note_on_c, 0, 64, 79
2, 108480, Note_on_c, 0, 61, 79
2, 108480, Note_on_c, 0, 68, 79
2, 108480, Note_on_c, 0, 73, 93
2, 108640, Note_on_c, 0, 73, 60
2, 108640, Note_on_c, 0, 76, 60
2, 108640, Note_on_c, 0, 80, 60
2, 108640, Note_on_c, 0, 85, 70
2, 108700, Note_on_c, 0, 85, 0
2, 108720, Note_on_c, 0, 80, 0
2, 108720, Note_on_c, 0, 73, 0
2, 108720, Note_on_c, 0, 76, 0
2, 108720, Note_on_c, 0, 73, 61
2, 108720, Note_on_c, 0, 76, 61
2, 108720, Note_on_c, 0, 80, 61
2, 108720, Note_on_c, 0, 85, 72
2, 108780, Note_on_c, 0, 85, 0
2, 108780, Note_on_c, 0, 80, 0
2, 108780, Note_on_c, 0, 73, 0
2, 108780, Note_on_c, 0, 76, 0
2, 108800, Note_on_c, 0, 72, 61
2, 108800, Note_on_c, 0, 76, 66
2, 108800, Note_on_c, 0, 80, 66
2, 108800, Note_on_c, 0, 84, 78
2, 108860, Note_on_c, 0, 84, 0
2, 108860, Note_on_c, 0, 80, 0
2, 108860, Note_on_c, 0, 72, 0
2, 108860, Note_on_c, 0, 76, 0
2, 108880, Note_on_c, 0, 72, 61
2, 108880, Note_on_c, 0, 76, 61
2, 108880, Note_on_c, 0, 80, 61
2, 108880, Note_on_c, 0, 84, 72
2, 108940, Note_on_c, 0, 84, 0
2, 108940, Note_on_c, 0, 80, 0
2, 108940, Note_on_c, 0, 72, 0
2, 108940, Note_on_c, 0, 76, 0
2, 108960, Note_on_c, 0, 72, 61
2, 108960, Note_on_c, 0, 76, 61
2, 108960, Note_on_c, 0, 80, 61
2, 108960, Note_on_c, 0, 84, 72
2, 109020, Note_on_c, 0, 84, 0
2, 109020, Note_on_c, 0, 80, 0
2, 109020, Note_on_c, 0, 72, 0
2, 109020, Note_on_c, 0, 76, 0
2, 109040, Note_on_c, 0, 71, 61
2, 109040, Note_on_c, 0, 76, 67
2, 109040, Note_on_c, 0, 80, 67
2, 109040, Note_on_c, 0, 83, 79
2, 109100, Note_on_c, 0, 83, 0
2, 109100, Note_on_c, 0, 80, 0
2, 109100, Note_on_c, 0, 71, 0
2, 109100, Note_on_c, 0, 76, 0
2, 109120, Note_on_c, 0, 71, 61
2, 109120, Note_on_c, 0, 76, 61
2, 109120, Note_on_c, 0, 80, 61
2, 109120, Note_on_c, 0, 83, 72
2, 109180, Note_on_c, 0, 83, 0
2, 109180, Note_on_c, 0, 80, 0
2, 109180, Note_on_c, 0, 71, 0
2, 109180, Note_on_c, 0, 76, 0
2, 109200, Note_on_c, 0, 71, 61
2, 109200, Note_on_c, 0, 76, 61
2, 109200, Note_on_c, 0, 80, 61
2, 109200, Note_on_c, 0, 83, 72
2, 109260, Note_on_c, 0, 83, 0
2, 109260, Note_on_c, 0, 80, 0
2, 109260, Note_on_c, 0, 71, 0
2, 109260, Note_on_c, 0, 76, 0
2, 109280, Note_on_c, 0, 70, 61
2, 109280, Note_on_c, 0, 76, 67
2, 109280, Note_on_c, 0, 80, 67
2, 109280, Note_on_c, 0, 82, 79
2, 109340, Note_on_c, 0, 82, 0
2, 109340, Note_on_c, 0, 80, 0
2, 109340, Note_on_c, 0, 70, 0
2, 109340, Note_on_c, 0, 76, 0
2, 109360, Note_on_c, 0, 70, 61
2, 109360, Note_on_c, 0, 76, 61
2, 109360, Note_on_c, 0, 80, 61
2, 109360, Note_on_c, 0, 82, 72
2, 109420, Note_on_c, 0, 82, 0
2, 109420, Note_on_c, 0, 80, 0
2, 109420, Note_on_c, 0, 70, 0
2, 109420, Note_on_c, 0, 76, 0
2, 109440, Note_on_c, 0, 68, 0
2, 109440, Note_on_c, 0, 73, 0
2, 109440, Note_on_c, 0, 61, 0
2, 109440, Note_on_c, 0, 64, 0
2, 109440, Note_on_c, 0, 63, 86
2, 109440, Note_on_c, 0, 61, 86
2, 109440, Note_on_c, 0, 66, 86
2, 109440, Note_on_c, 0, 73, 102
2, 109600, Note_on_c, 0, 81, 62
2, 109600, Note_on_c, 0, 85, 62
2, 109600, Note_on_c, 0, 87, 62
2, 109600, Note_on_c, 0, 93, 73
2, 109645, Note_on_c, 0, 93, 0
2, 109660, Note_on_c, 0, 87, 0
2, 109660, Note_on_c, 0, 81, 0
2, 109660, Note_on_c, 0, 85, 0
2, 109680, Note_on_c, 0, 81, 64
2, 109680, Note_on_c, 0, 85, 64
2, 109680, Note_on_c, 0, 87, 64
2, 109680, Note_on_c, 0, 93, 75
2, 109740, Note_on_c, 0, 93, 0
2, 109740, Note_on_c, 0, 87, 0
2, 109740, Note_on_c, 0, 81, 0
2, 109740, Note_on_c, 0, 85, 0
2, 109760, Note_on_c, 0, 80, 65
2, 109760, Note_on_c, 0, 85, 70
2, 109760, Note_on_c, 0, 87, 70
2, 109760, Note_on_c, 0, 92, 83
2, 109820, Note_on_c, 0, 92, 0
2, 109820, Note_on_c, 0, 87, 0
2, 109820, Note_on_c, 0, 80, 0
2, 109820, Note_on_c, 0, 85, 0
2, 109840, Note_on_c, 0, 80, 65
2, 109840, Note_on_c, 0, 85, 65
2, 109840, Note_on_c, 0, 87, 65
2, 109840, Note_on_c, 0, 92, 77
2, 109900, Note_on_c, 0, 92, 0
2, 109900, Note_on_c, 0, 87, 0
2, 109900, Note_on_c, 0, 80, 0
2, 109900, Note_on_c, 0, 85, 0
2, 109920, Note_on_c, 0, 80, 66
2, 109920, Note_on_c, 0, 85, 66
2, 109920, Note_on_c, 0, 87, 66
2, 109920, Note_on_c, 0, 92, 78
2, 109980, Note_on_c, 0, 92, 0
2, 109980, Note_on_c, 0, 87, 0
2, 109980, Note_on_c, 0, 80, 0
2, 109980, Note_on_c, 0, 85, 0
2, 110000, Note_on_c, 0, 79, 67
2, 110000, Note_on_c, 0, 85, 73
2, 110000, Note_on_c, 0, 87, 73
2, 110000, Note_on_c, 0, 91, 87
2, 110060, Note_on_c, 0, 91, 0
2, 110060, Note_on_c, 0, 87, 0
2, 110060, Note_on_c, 0, 79, 0
2, 110060, Note_on_c, 0, 85, 0
2, 110080, Note_on_c, 0, 79, 68
2, 110080, Note_on_c, 0, 85, 68
2, 110080, Note_on_c, 0, 87, 68
2, 110080, Note_on_c, 0, 91, 80
2, 110140, Note_on_c, 0, 91, 0
2, 110140, Note_on_c, 0, 87, 0
2, 110140, Note_on_c, 0, 79, 0
2, 110140, Note_on_c, 0, 85, 0
2, 110160, Note_on_c, 0, 79, 68
2, 110160, Note_on_c, 0, 85, 68
2, 110160, Note_on_c, 0, 87, 68
2, 110160, Note_on_c, 0, 91, 81
2, 110220, Note_on_c, 0, 91, 0
2, 110220, Note_on_c, 0, 87, 0
2, 110220, Note_on_c, 0, 79, 0
2, 110220, Note_on_c, 0, 85, 0
2, 110240, Note_on_c, 0, 78, 69
2, 110240, Note_on_c, 0, 85, 76
2, 110240, Note_on_c, 0, 87, 76
2, 110240, Note_on_c, 0, 90, 90
2, 110300, Note_on_c, 0, 90, 0
2, 110300, Note_on_c, 0, 87, 0
2, 110300, Note_on_c, 0, 78, 0
2, 110300, Note_on_c, 0, 85, 0
2, 110320, Note_on_c, 0, 78, 70
2, 110320, Note_on_c, 0, 85, 70
2, 110320, Note_on_c, 0, 87, 70
2, 110320, Note_on_c, 0, 90, 82
2, 110380, Note_on_c, 0, 90, 0
2, 110380, Note_on_c, 0, 87, 0
2, 110380, Note_on_c, 0, 78, 0
2, 110380, Note_on_c, 0, 85, 0
2, 110400, Note_on_c, 0, 66, 0
2, 110400, Note_on_c, 0, 73, 0
2, 110400, Note_on_c, 0, 61, 0
2, 110400, Note_on_c, 0, 63, 0
2, 110400, Note_on_c, 0, 61, 86
2, 110400, Note_on_c, 0, 65, 86
2, 110400, Note_on_c, 0, 68, 86
2, 110400, Note_on_c, 0, 73, 102
2, 110560, Note_on_c, 0, 97, 73
2, 110560, Note_on_c, 0, 85, 62
2, 110620, Note_on_c, 0, 85, 0
2, 110620, Note_on_c, 0, 97, 0
2, 110640, Note_on_c, 0, 85, 68
2, 110640, Note_on_c, 0, 97, 81
2, 110640, Note_on_c, 0, 89, 68
2, 110700, Note_on_c, 0, 89, 0
2, 110700, Note_on_c, 0, 85, 0
2, 110700, Note_on_c, 0, 97, 0
2, 110720, Note_on_c, 0, 92, 76
2, 110720, Note_on_c, 0, 80, 64
2, 110780, Note_on_c, 0, 80, 0
2, 110780, Note_on_c, 0, 92, 0
2, 110800, Note_on_c, 0, 92, 76
2, 110800, Note_on_c, 0, 80, 64
2, 110860, Note_on_c, 0, 80, 0
2, 110860, Note_on_c, 0, 92, 0
2, 110880, Note_on_c, 0, 80, 68
2, 110880, Note_on_c, 0, 89, 68
2, 110880, Note_on_c, 0, 92, 81
2, 110940, Note_on_c, 0, 92, 0
2, 110940, Note_on_c, 0, 80, 0
2, 110940, Note_on_c, 0, 89, 0
2, 110960, Note_on_c, 0, 94, 73
2, 110960, Note_on_c, 0, 82, 62
2, 111020, Note_on_c, 0, 82, 0
2, 111020, Note_on_c, 0, 94, 0
2, 111040, Note_on_c, 0, 82, 62
2, 111040, Note_on_c, 0, 94, 73
2, 111100, Note_on_c, 0, 94, 0
2, 111100, Note_on_c, 0, 82, 0
2, 111120, Note_on_c, 0, 82, 68
2, 111120, Note_on_c, 0, 89, 68
2, 111120, Note_on_c, 0, 94, 81
2, 111180, Note_on_c, 0, 94, 0
2, 111180, Note_on_c, 0, 82, 0
2, 111180, Note_on_c, 0, 89, 0
2, 111200, Note_on_c, 0, 77, 63
2, 111200, Note_on_c, 0, 89, 75
2, 111260, Note_on_c, 0, 89, 0
2, 111260, Note_on_c, 0, 77, 0
2, 111280, Note_on_c, 0, 77, 63
2, 111280, Note_on_c, 0, 89, 75
2, 111340, Note_on_c, 0, 89, 0
2, 111340, Note_on_c, 0, 77, 0
2, 111360, Note_on_c, 0, 73, 0
2, 111360, Note_on_c, 0, 61, 0
2, 111360, Note_on_c, 0, 65, 0
2, 111360, Note_on_c, 0, 68, 0
2, 111360, Note_on_c, 0, 89, 81
2, 111360, Note_on_c, 0, 85, 68
2, 111360, Note_on_c, 0, 77, 68
2, 111420, Note_on_c, 0, 77, 0
2, 111420, Note_on_c, 0, 85, 0
2, 111420, Note_on_c, 0, 89, 0
2, 111440, Note_on_c, 0, 92, 74
2, 111440, Note_on_c, 0, 80, 62
2, 111500, Note_on_c, 0, 80, 0
2, 111500, Note_on_c, 0, 92, 0
2, 111520, Note_on_c, 0, 85, 74
2, 111520, Note_on_c, 0, 73, 62
2, 111580, Note_on_c, 0, 73, 0
2, 111580, Note_on_c, 0, 85, 0
2, 111600, Note_on_c, 0, 85, 81
2, 111600, Note_on_c, 0, 80, 68
2, 111600, Note_on_c, 0, 73, 68
2, 111660, Note_on_c, 0, 73, 0
2, 111660, Note_on_c, 0, 80, 0
2, 111660, Note_on_c, 0, 85, 0
2, 111680, Note_on_c, 0, 92, 75
2, 111680, Note_on_c, 0, 80, 63
2, 111740, Note_on_c, 0, 80, 0
2, 111740, Note_on_c, 0, 92, 0
2, 111760, Note_on_c, 0, 82, 75
2, 111760, Note_on_c, 0, 70, 63
2, 111820, Note_on_c, 0, 70, 0
2, 111820, Note_on_c, 0, 82, 0
2, 111840, Note_on_c, 0, 82, 81
2, 111840, Note_on_c, 0, 77, 68
2, 111840, Note_on_c, 0, 70, 68
2, 111900, Note_on_c, 0, 70, 0
2, 111900, Note_on_c, 0, 77, 0
2, 111900, Note_on_c, 0, 82, 0
2, 111920, Note_on_c, 0, 85, 74
2, 111920, Note_on_c, 0, 73, 62
2, 111980, Note_on_c, 0, 73, 0
2, 111980, Note_on_c, 0, 85, 0
2, 112000, Note_on_c, 0, 80, 74
2, 112000, Note_on_c, 0, 68, 62
2, 112060, Note_on_c, 0, 68, 0
2, 112060, Note_on_c, 0, 80, 0
2, 112080, Note_on_c, 0, 80, 81
2, 112080, Note_on_c, 0, 77, 68
2, 112080, Note_on_c, 0, 68, 68
2, 112140, Note_on_c, 0, 68, 0
2, 112140, Note_on_c, 0, 77, 0
2, 112140, Note_on_c, 0, 80, 0
2, 112160, Note_on_c, 0, 82, 73
2, 112160, Note_on_c, 0, 70, 62
2, 112220, Note_on_c, 0, 70, 0
2, 112220, Note_on_c, 0, 82, 0
2, 112240, Note_on_c, 0, 77, 73
2, 112240, Note_on_c, 0, 65, 62
2, 112300, Note_on_c, 0, 65, 0
2, 112300, Note_on_c, 0, 77, 0
2, 112320, Note_on_c, 0, 77, 81
2, 112320, Note_on_c, 0, 73, 68
2, 112320, Note_on_c, 0, 65, 68
2, 112380, Note_on_c, 0, 65, 0
2, 112380, Note_on_c, 0, 73, 0
2, 112380, Note_on_c, 0, 77, 0
2, 112400, Note_on_c, 0, 80, 74
2, 112400, Note_on_c, 0, 68, 62
2, 112460, Note_on_c, 0, 68, 0
2, 112460, Note_on_c, 0, 80, 0
2, 112480, Note_on_c, 0, 73, 74
2, 112480, Note_on_c, 0, 61, 62
2, 112540, Note_on_c, 0, 61, 0
2, 112540, Note_on_c, 0, 73, 0
2, 112560, Note_on_c, 0, 73, 81
2, 112560, Note_on_c, 0, 68, 68
2, 112560, Note_on_c, 0, 61, 68
2, 112620, Note_on_c, 0, 61, 0
2, 112620, Note_on_c, 0, 68, 0
2, 112620, Note_on_c, 0, 73, 0
2, 112640, Note_on_c, 0, 77, 73
2, 112640, Note_on_c, 0, 65, 62
2, 112700, Note_on_c, 0, 65, 0
2, 112700, Note_on_c, 0, 77, 0
2, 112720, Note_on_c, 0, 70, 73
2, 112720, Note_on_c, 0, 58, 62
2, 112780, Note_on_c, 0, 58, 0
2, 112780, Note_on_c, 0, 70, 0
2, 112800, Note_on_c, 0, 70, 81
2, 112800, Note_on_c, 0, 65, 68
2, 112800, Note_on_c, 0, 58, 68
2, 112860, Note_on_c, 0, 58, 0
2, 112860, Note_on_c, 0, 65, 0
2, 112860, Note_on_c, 0, 70, 0
2, 112880, Note_on_c, 0, 73, 74
2, 112880, Note_on_c, 0, 61, 62
2, 112940, Note_on_c, 0, 61, 0
2, 112940, Note_on_c, 0, 73, 0
2, 112960, Note_on_c, 0, 68, 74
2, 112960, Note_on_c, 0, 56, 62
2, 113020, Note_on_c, 0, 56, 0
2, 113020, Note_on_c, 0, 68, 0
2, 113040, Note_on_c, 0, 70, 81
2, 113040, Note_on_c, 0, 58, 68
2, 113100, Note_on_c, 0, 58, 0
2, 113100, Note_on_c, 0, 70, 0
2, 113120, Note_on_c, 0, 65, 73
2, 113120, Note_on_c, 0, 53, 62
2, 113180, Note_on_c, 0, 53, 0
2, 113180, Note_on_c, 0, 65, 0
2, 113200, Note_on_c, 0, 68, 73
2, 113200, Note_on_c, 0, 56, 62
2, 113260, Note_on_c, 0, 56, 0
2, 113260, Note_on_c, 0, 68, 0
2, 113280, Note_on_c, 0, 49, 78
2, 113280, Note_on_c, 0, 61, 92
2, 113440, Note_on_c, 0, 61, 0
2, 113440, Note_on_c, 0, 49, 0
2, 113440, Note_on_c, 0, 65, 66
2, 113440, Note_on_c, 0, 68, 66
2, 113440, Note_on_c, 0, 73, 66
2, 113440, Note_on_c, 0, 80, 83
2, 113442, Note_on_c, 0, 77, 66
2, 113512, Note_on_c, 0, 80, 0
2, 113512, Note_on_c, 0, 73, 0
2, 113512, Note_on_c, 0, 65, 0
2, 113512, Note_on_c, 0, 68, 0
2, 113514, Note_on_c, 0, 77, 0
2, 113520, Note_on_c, 0, 73, 70
2, 113520, Note_on_c, 0, 77, 70
2, 113520, Note_on_c, 0, 80, 70
2, 113520, Note_on_c, 0, 85, 88
2, 114000, Note_on_c, 0, 85, 0
2, 114000, Note_on_c, 0, 73, 0
2, 114000, Note_on_c, 0, 77, 0
2, 114000, Note_on_c, 0, 80, 0
2, 114000, Note_on_c, 0, 65, 70
2, 114000, Note_on_c, 0, 68, 70
2, 114000, Note_on_c, 0, 73, 70
2, 114000, Note_on_c, 0, 77, 70
2, 114000, Note_on_c, 0, 80, 89
2, 114160, Note_on_c, 0, 80, 0
2, 114160, Note_on_c, 0, 73, 0
2, 114160, Note_on_c, 0, 65, 0
2, 114160, Note_on_c, 0, 68, 0
2, 114160, Note_on_c, 0, 77, 0
2, 114160, Note_on_c, 0, 56, 90
2, 114240, Note_on_c, 0, 56, 0
2, 114240, Note_on_c, 0, 49, 78
2, 114240, Note_on_c, 0, 61, 92
2, 114400, Note_on_c, 0, 61, 0
2, 114400, Note_on_c, 0, 49, 0
2, 114400, Note_on_c, 0, 65, 66
2, 114400, Note_on_c, 0, 68, 66
2, 114400, Note_on_c, 0, 73, 66
2, 114400, Note_on_c, 0, 80, 83
2, 114402, Note_on_c, 0, 77, 66
2, 114472, Note_on_c, 0, 80, 0
2, 114472, Note_on_c, 0, 73, 0
2, 114472, Note_on_c, 0, 65, 0
2, 114472, Note_on_c, 0, 68, 0
2, 114474, Note_on_c, 0, 77, 0
2, 114480, Note_on_c, 0, 73, 70
2, 114480, Note_on_c, 0, 77, 70
2, 114480, Note_on_c, 0, 80, 70
2, 114480, Note_on_c, 0, 85, 88
2, 114960, Note_on_c, 0, 85, 0
2, 114960, Note_on_c, 0, 73, 0
2, 114960, Note_on_c, 0, 77, 0
2, 114960, Note_on_c, 0, 80, 0
2, 114960, Note_on_c, 0, 65, 70
2, 114960, Note_on_c, 0, 68, 70
2, 114960, Note_on_c, 0, 73, 70
2, 114960, Note_on_c, 0, 77, 70
2, 114960, Note_on_c, 0, 80, 89
2, 115120, Note_on_c, 0, 80, 0
2, 115120, Note_on_c, 0, 73, 0
2, 115120, Note_on_c, 0, 65, 0
2, 115120, Note_on_c, 0, 68, 0
2, 115120, Note_on_c, 0, 77, 0
2, 115120, Note_on_c, 0, 56, 90
2, 115200, Note_on_c, 0, 56, 0
2, 115200, Note_on_c, 0, 49, 78
2, 115200, Note_on_c, 0, 61, 92
2, 115360, Note_on_c, 0, 61, 0
2, 115360, Note_on_c, 0, 49, 0
2, 115360, Note_on_c, 0, 65, 66
2, 115360, Note_on_c, 0, 68, 66
2, 115360, Note_on_c, 0, 73, 66
2, 115360, Note_on_c, 0, 80, 83
2, 115362, Note_on_c, 0, 77, 66
2, 115432, Note_on_c, 0, 80, 0
2, 115432, Note_on_c, 0, 73, 0
2, 115432, Note_on_c, 0, 65, 0
2, 115432, Note_on_c, 0, 68, 0
2, 115434, Note_on_c, 0, 77, 0
2, 115440, Note_on_c, 0, 73, 70
2, 115440, Note_on_c, 0, 77, 70
2, 115440, Note_on_c, 0, 80, 70
2, 115440, Note_on_c, 0, 85, 88
2, 116160, Note_on_c, 0, 85, 0
2, 116160, Note_on_c, 0, 73, 0
2, 116160, Note_on_c, 0, 77, 0
2, 116160, Note_on_c, 0, 80, 0
2, 116160, Note_on_c, 0, 73, 77
2, 116160, Note_on_c, 0, 77, 77
2, 116160, Note_on_c, 0, 80, 77
2, 116160, Note_on_c, 0, 85, 96
2, 117120, Note_on_c, 0, 85, 0
2, 117120, Note_on_c, 0, 73, 0
2, 117120, Note_on_c, 0, 77, 0
2, 117120, Note_on_c, 0, 80, 0
2, 117120, Note_on_c, 0, 73, 77
2, 117120, Note_on_c, 0, 77, 77
2, 117120, Note_on_c, 0, 80, 77
2, 117120, Note_on_c, 0, 85, 96
2, 117840, Note_on_c, 0, 85, 0
2, 117840, Note_on_c, 0, 73, 0
2, 117840, Note_on_c, 0, 77, 0
2, 117840, Note_on_c, 0, 80, 0
2, 118080, Note_on_c, 0, 65, 59
2, 118080, Note_on_c, 0, 68, 59
2, 118080, Note_on_c, 0, 73, 70
2, 118080, Note_on_c, 0, 77, 70
2, 118080, Note_on_c, 0, 80, 88
2, 119040, Note_on_c, 0, 80, 0
2, 119040, Note_on_c, 0, 73, 0
2, 119040, Note_on_c, 0, 65, 0
2, 119040, Note_on_c, 0, 68, 0
2, 119040, Note_on_c, 0, 77, 0
2, 119040, End_track
3, 0, Start_track
3, 0, Title_t, "Piano left"
3, 0, Program_c, 0, 0
3, 0, Note_on_c, 0, 37, 31
3, 0, Note_on_c, 0, 44, 31
3, 0, Note_on_c, 0, 49, 37
3, 357, Note_on_c, 0, 49, 0
3, 357, Note_on_c, 0, 44, 0
3, 357, Note_on_c, 0, 37, 0
3, 360, Note_on_c, 0, 41, 28
3, 360, Note_on_c, 0, 49, 28
3, 360, Note_on_c, 0, 53, 28
3, 474, Note_on_c, 0, 53, 0
3, 474, Note_on_c, 0, 49, 0
3, 474, Note_on_c, 0, 41, 0
3, 480, Note_on_c, 0, 44, 34
3, 480, Note_on_c, 0, 49, 34
3, 480, Note_on_c, 0, 53, 34
3, 480, Note_on_c, 0, 56, 40
3, 960, Note_on_c, 0, 46, 42
3, 960, Note_on_c, 0, 58, 63
3, 1440, Note_on_c, 0, 58, 0
3, 1440, Note_on_c, 0, 46, 0
3, 1678, Note_on_c, 0, 56, 0
3, 1680, Note_on_c, 0, 44, 0
3, 1680, Note_on_c, 0, 49, 0
3, 1680, Note_on_c, 0, 53, 0
3, 1680, Note_on_c, 0, 42, 29
3, 1680, Note_on_c, 0, 44, 29
3, 1680, Note_on_c, 0, 51, 29
3, 1680, Note_on_c, 0, 54, 35
3, 1908, Note_on_c, 0, 54, 0
3, 1908, Note_on_c, 0, 42, 0
3, 1908, Note_on_c, 0, 44, 0
3, 1908, Note_on_c, 0, 51, 0
3, 1920, Note_on_c, 0, 49, 31
3, 1920, Note_on_c, 0, 41, 31
3, 1920, Note_on_c, 0, 44, 31
3, 1920, Note_on_c, 0, 53, 37
3, 2277, Note_on_c, 0, 53, 0
3, 2277, Note_on_c, 0, 49, 0
3, 2277, Note_on_c, 0, 41, 0
3, 2277, Note_on_c, 0, 44, 0
3, 2280, Note_on_c, 0, 39, 28
3, 2280, Note_on_c, 0, 44, 28
3, 2280, Note_on_c, 0, 54, 28
3, 2400, Note_on_c, 0, 54, 0
3, 2400, Note_on_c, 0, 44, 0
3, 2400, Note_on_c, 0, 39, 0
3, 2400, Note_on_c, 0, 37, 34
3, 2400, Note_on_c, 0, 44, 34
3, 2400, Note_on_c, 0, 53, 40
3, 2880, Note_on_c, 0, 46, 42
3, 2880, Note_on_c, 0, 58, 63
3, 3360, Note_on_c, 0, 58, 0
3, 3360, Note_on_c, 0, 46, 0
3, 3600, Note_on_c, 0, 37, 0
3, 3600, Note_on_c, 0, 44, 0
3, 3600, Note_on_c, 0, 53, 0
3, 3600, Note_on_c, 0, 36, 24
3, 3600, Note_on_c, 0, 44, 24
3, 3600, Note_on_c, 0, 51, 29
3, 3840, Note_on_c, 0, 51, 0
3, 3840, Note_on_c, 0, 44, 0
3, 3840, Note_on_c, 0, 36, 0
3, 3840, Note_on_c, 0, 34, 27
3, 3840, Note_on_c, 0, 41, 27
3, 3840, Note_on_c, 0, 49, 32
3, 4200, Note_on_c, 0, 49, 0
3, 4200, Note_on_c, 0, 41, 0
3, 4200, Note_on_c, 0, 34, 0
3, 4200, Note_on_c, 0, 32, 25
3, 4200, Note_on_c, 0, 44, 25
3, 4320, Note_on_c, 0, 44, 0
3, 4320, Note_on_c, 0, 32, 0
3, 4320, Note_on_c, 0, 31, 29
3, 4320, Note_on_c, 0, 43, 35
3, 4800, Note_on_c, 0, 46, 37
3, 4800, Note_on_c, 0, 58, 56
3, 5280, Note_on_c, 0, 58, 0
3, 5280, Note_on_c, 0, 46, 0
3, 5520, Note_on_c, 0, 43, 0
3, 5520, Note_on_c, 0, 31, 0
3, 5520, Note_on_c, 0, 30, 24
3, 5520, Note_on_c, 0, 42, 29
3, 5758, Note_on_c, 0, 42, 0
3, 5758, Note_on_c, 0, 30, 0
3, 5760, Note_on_c, 0, 29, 27
3, 5760, Note_on_c, 0, 41, 32
3, 6120, Note_on_c, 0, 41, 0
3, 6120, Note_on_c, 0, 29, 0
3, 6120, Note_on_c, 0, 27, 27
3, 6120, Note_on_c, 0, 39, 27
3, 6240, Note_on_c, 0, 39, 0
3, 6240, Note_on_c, 0, 27, 0
3, 6240, Note_on_c, 0, 24, 31
3, 6240, Note_on_c, 0, 36, 37
3, 6720, Note_on_c, 0, 46, 35
3, 6720, Note_on_c, 0, 58, 52
3, 7200, Note_on_c, 0, 58, 0
3, 7200, Note_on_c, 0, 46, 0
3, 7520, Note_on_c, 0, 36, 0
3, 7520, Note_on_c, 0, 24, 0
3, 7520, Note_on_c, 0, 26, 20
3, 7520, Note_on_c, 0, 38, 24
3, 7680, Note_on_c, 0, 38, 0
3, 7680, Note_on_c, 0, 26, 0
3, 7680, Note_on_c, 0, 27, 28
3, 7680, Note_on_c, 0, 39, 32
3, 8000, Note_on_c, 0, 39, 0
3, 8000, Note_on_c, 0, 27, 0
3, 8000, Note_on_c, 0, 29, 20
3, 8000, Note_on_c, 0, 41, 24
3, 8160, Note_on_c, 0, 41, 0
3, 8160, Note_on_c, 0, 29, 0
3, 8160, Note_on_c, 0, 30, 23
3, 8160, Note_on_c, 0, 42, 28
3, 8480, Note_on_c, 0, 42, 0
3, 8480, Note_on_c, 0, 30, 0
3, 8480, Note_on_c, 0, 31, 20
3, 8480, Note_on_c, 0, 43, 24
3, 8640, Note_on_c, 0, 43, 0
3, 8640, Note_on_c, 0, 31, 0
3, 8640, Note_on_c, 0, 32, 22
3, 8640, Note_on_c, 0, 44, 27
3, 8960, Note_on_c, 0, 44, 0
3, 8960, Note_on_c, 0, 32, 0
3, 8960, Note_on_c, 0, 46, 33
3, 9120, Note_on_c, 0, 46, 0
3, 9120, Note_on_c, 0, 48, 39
3, 9280, Note_on_c, 0, 48, 0
3, 9280, Note_on_c, 0, 46, 40
3, 9440, Note_on_c, 0, 46, 0
3, 9440, Note_on_c, 0, 44, 43
3, 9600, Note_on_c, 0, 44, 0
3, 9600, Note_on_c, 0, 46, 26
3, 9600, Note_on_c, 0, 49, 32
3, 9957, Note_on_c, 0, 49, 0
3, 9957, Note_on_c, 0, 46, 0
3, 9960, Note_on_c, 0, 44, 23
3, 9960, Note_on_c, 0, 53, 23
3, 9960, Note_on_c, 0, 56, 23
3, 10080, Note_on_c, 0, 56, 0
3, 10080, Note_on_c, 0, 53, 0
3, 10080, Note_on_c, 0, 44, 0
3, 10080, Note_on_c, 0, 42, 30
3, 10080, Note_on_c, 0, 51, 30
3, 10080, Note_on_c, 0, 58, 36
3, 10560, Note_on_c, 0, 49, 37
3, 10560, Note_on_c, 0, 61, 56
3, 11040, Note_on_c, 0, 61, 0
3, 11040, Note_on_c, 0, 49, 0
3, 11278, Note_on_c, 0, 58, 0
3, 11280, Note_on_c, 0, 51, 0
3, 11280, Note_on_c, 0, 42, 0
3, 11280, Note_on_c, 0, 44, 26
3, 11280, Note_on_c, 0, 53, 26
3, 11280, Note_on_c, 0, 56, 31
3, 11520, Note_on_c, 0, 56, 0
3, 11520, Note_on_c, 0, 53, 0
3, 11520, Note_on_c, 0, 44, 0
3, 11520, Note_on_c, 0, 51, 29
3, 11520, Note_on_c, 0, 46, 29
3, 11520, Note_on_c, 0, 54, 36
3, 11877, Note_on_c, 0, 54, 0
3, 11877, Note_on_c, 0, 46, 0
3, 11877, Note_on_c, 0, 51, 0
3, 11880, Note_on_c, 0, 56, 26
3, 11880, Note_on_c, 0, 44, 26
3, 11880, Note_on_c, 0, 53, 26
3, 12000, Note_on_c, 0, 53, 0
3, 12000, Note_on_c, 0, 44, 0
3, 12000, Note_on_c, 0, 56, 0
3, 12000, Note_on_c, 0, 42, 30
3, 12000, Note_on_c, 0, 49, 30
3, 12000, Note_on_c, 0, 58, 36
3, 12480, Note_on_c, 0, 49, 37
3, 12480, Note_on_c, 0, 61, 56
3, 12960, Note_on_c, 0, 61, 0
3, 12960, Note_on_c, 0, 49, 0
3, 13200, Note_on_c, 0, 42, 0
3, 13200, Note_on_c, 0, 49, 0
3, 13200, Note_on_c, 0, 58, 0
3, 13200, Note_on_c, 0, 39, 24
3, 13200, Note_on_c, 0, 44, 24
3, 13200, Note_on_c, 0, 54, 29
3, 13440, Note_on_c, 0, 54, 0
3, 13440, Note_on_c, 0, 44, 0
3, 13440, Note_on_c, 0, 39, 0
3, 13440, Note_on_c, 0, 41, 25
3, 13440, Note_on_c, 0, 49, 30
3, 13800, Note_on_c, 0, 49, 0
3, 13800, Note_on_c, 0, 41, 0
3, 13800, Note_on_c, 0, 42, 25
3, 13800, Note_on_c, 0, 49, 25
3, 13920, Note_on_c, 0, 49, 0
3, 13920, Note_on_c, 0, 42, 0
3, 13920, Note_on_c, 0, 36, 29
3, 13920, Note_on_c, 0, 43, 29
3, 13920, Note_on_c, 0, 52, 35
3, 14400, Note_on_c, 0, 49, 29
3, 14400, Note_on_c, 0, 61, 44
3, 14880, Note_on_c, 0, 61, 0
3, 14880, Note_on_c, 0, 49, 0
3, 15120, Note_on_c, 0, 36, 0
3, 15120, Note_on_c, 0, 43, 0
3, 15120, Note_on_c, 0, 52, 0
3, 15120, Note_on_c, 0, 47, 21
3, 15120, Note_on_c, 0, 38, 21
3, 15120, Note_on_c, 0, 53, 26
3, 15840, Note_on_c, 0, 53, 0
3, 15840, Note_on_c, 0, 38, 0
3, 15840, Note_on_c, 0, 47, 0
3, 15840, Note_on_c, 0, 39, 26
3, 15840, Note_on_c, 0, 46, 31
3, 16160, Note_on_c, 0, 46, 0
3, 16160, Note_on_c, 0, 39, 0
3, 16160, Note_on_c, 0, 46, 23
3, 16160, Note_on_c, 0, 41, 23
3, 16160, Note_on_c, 0, 49, 28
3, 16320, Note_on_c, 0, 49, 0
3, 16320, Note_on_c, 0, 41, 0
3, 16320, Note_on_c, 0, 42, 28
3, 16320, Note_on_c, 0, 51, 33
3, 17120, Note_on_c, 0, 51, 0
3, 17120, Note_on_c, 0, 42, 0
3, 17120, Note_on_c, 0, 46, 0
3, 17120, Note_on_c, 0, 51, 28
3, 17120, Note_on_c, 0, 43, 18
3, 17280, Note_on_c, 0, 43, 0
3, 17280, Note_on_c, 0, 51, 0
3, 17280, Note_on_c, 0, 43, 31
3, 17280, Note_on_c, 0, 51, 37
3, 17760, Note_on_c, 0, 43, 0
3, 17760, Note_on_c, 0, 44, 34
3, 19200, Note_on_c, 0, 44, 0
3, 19200, Note_on_c, 0, 51, 0
3, 19200, Note_on_c, 0, 34, 27
3, 20640, Note_on_c, 0, 34, 0
3, 20960, Note_on_c, 0, 61, 25
3, 20960, Note_on_c, 0, 58, 25
3, 21040, Note_on_c, 0, 58, 0
3, 21040, Note_on_c, 0, 61, 0
3, 21120, Note_on_c, 0, 58, 25
3, 21120, Note_on_c, 0, 61, 21
3, 21360, Note_on_c, 0, 58, 0
3, 21360, Note_on_c, 0, 56, 21
3, 21440, Note_on_c, 0, 56, 0
3, 21440, Note_on_c, 0, 61, 0
3, 21440, Note_on_c, 0, 58, 25
3, 21440, Note_on_c, 0, 61, 21
3, 21520, Note_on_c, 0, 61, 0
3, 21520, Note_on_c, 0, 58, 0
3, 21600, Note_on_c, 0, 58, 27
3, 21600, Note_on_c, 0, 61, 21
3, 22320, Note_on_c, 0, 58, 0
3, 22320, Note_on_c, 0, 54, 21
3, 22400, Note_on_c, 0, 54, 0
3, 22400, Note_on_c, 0, 61, 0
3, 22400, Note_on_c, 0, 58, 21
3, 22400, Note_on_c, 0, 56, 25
3, 22400, Note_on_c, 0, 61, 21
3, 22480, Note_on_c, 0, 61, 0
3, 22480, Note_on_c, 0, 56, 0
3, 22480, Note_on_c, 0, 58, 0
3, 22560, Note_on_c, 0, 58, 21
3, 22560, Note_on_c, 0, 56, 25
3, 22560, Note_on_c, 0, 61, 21
3, 22800, Note_on_c, 0, 56, 0
3, 22800, Note_on_c, 0, 53, 21
3, 22880, Note_on_c, 0, 53, 0
3, 22880, Note_on_c, 0, 61, 0
3, 22880, Note_on_c, 0, 58, 0
3, 22880, Note_on_c, 0, 58, 21
3, 22880, Note_on_c, 0, 54, 25
3, 22880, Note_on_c, 0, 63, 21
3, 22960, Note_on_c, 0, 63, 0
3, 22960, Note_on_c, 0, 54, 0
3, 22960, Note_on_c, 0, 58, 0
3, 23040, Note_on_c, 0, 54, 25
3, 23040, Note_on_c, 0, 58, 21
3, 23040, Note_on_c, 0, 63, 21
3, 23280, Note_on_c, 0, 63, 0
3, 23280, Note_on_c, 0, 58, 0
3, 23280, Note_on_c, 0, 54, 0
3, 23280, Note_on_c, 0, 49, 21
3, 23360, Note_on_c, 0, 53, 25
3, 23360, Note_on_c, 0, 58, 21
3, 23360, Note_on_c, 0, 65, 21
3, 23440, Note_on_c, 0, 65, 0
3, 23440, Note_on_c, 0, 49, 0
3, 23440, Note_on_c, 0, 53, 0
3, 23440, Note_on_c, 0, 58, 0
3, 23520, Note_on_c, 0, 54, 25
3, 23520, Note_on_c, 0, 58, 21
3, 23520, Note_on_c, 0, 63, 21
3, 23760, Note_on_c, 0, 63, 0
3, 23760, Note_on_c, 0, 58, 0
3, 23760, Note_on_c, 0, 54, 0
3, 23760, Note_on_c, 0, 56, 21
3, 23840, Note_on_c, 0, 58, 25
3, 23840, Note_on_c, 0, 61, 21
3, 23840, Note_on_c, 0, 65, 21
3, 23920, Note_on_c, 0, 65, 0
3, 23920, Note_on_c, 0, 56, 0
3, 23920, Note_on_c, 0, 58, 0
3, 23920, Note_on_c, 0, 61, 0
3, 24000, Note_on_c, 0, 54, 25
3, 24000, Note_on_c, 0, 58, 21
3, 24000, Note_on_c, 0, 63, 21
3, 24240, Note_on_c, 0, 63, 0
3, 24240, Note_on_c, 0, 58, 0
3, 24240, Note_on_c, 0, 54, 0
3, 24240, Note_on_c, 0, 49, 21
3, 24320, Note_on_c, 0, 53, 25
3, 24320, Note_on_c, 0, 58, 21
3, 24320, Note_on_c, 0, 65, 21
3, 24400, Note_on_c, 0, 65, 0
3, 24400, Note_on_c, 0, 49, 0
3, 24400, Note_on_c, 0, 53, 0
3, 24400, Note_on_c, 0, 58, 0
3, 24480, Note_on_c, 0, 54, 25
3, 24480, Note_on_c, 0, 58, 21
3, 24480, Note_on_c, 0, 63, 21
3, 24720, Note_on_c, 0, 63, 0
3, 24720, Note_on_c, 0, 58, 0
3, 24720, Note_on_c, 0, 54, 0
3, 24720, Note_on_c, 0, 55, 21
3, 24800, Note_on_c, 0, 56, 25
3, 24800, Note_on_c, 0, 60, 21
3, 24800, Note_on_c, 0, 63, 21
3, 24880, Note_on_c, 0, 63, 0
3, 24880, Note_on_c, 0, 60, 0
3, 24880, Note_on_c, 0, 56, 0
3, 24960, Note_on_c, 0, 55, 0
3, 24960, Note_on_c, 0, 53, 20
3, 24960, Note_on_c, 0, 56, 16
3, 24960, Note_on_c, 0, 61, 16
3, 25200, Note_on_c, 0, 61, 0
3, 25200, Note_on_c, 0, 56, 0
3, 25200, Note_on_c, 0, 53, 0
3, 25200, Note_on_c, 0, 48, 16
3, 25280, Note_on_c, 0, 51, 20
3, 25280, Note_on_c, 0, 56, 16
3, 25280, Note_on_c, 0, 63, 16
3, 25360, Note_on_c, 0, 63, 0
3, 25360, Note_on_c, 0, 48, 0
3, 25360, Note_on_c, 0, 51, 0
3, 25360, Note_on_c, 0, 56, 0
3, 25440, Note_on_c, 0, 51, 20
3, 25440, Note_on_c, 0, 54, 16
3, 25440, Note_on_c, 0, 61, 16
3, 25680, Note_on_c, 0, 61, 0
3, 25680, Note_on_c, 0, 54, 0
3, 25680, Note_on_c, 0, 51, 0
3, 25680, Note_on_c, 0, 53, 16
3, 25760, Note_on_c, 0, 54, 16
3, 25760, Note_on_c, 0, 61, 16
3, 25840, Note_on_c, 0, 61, 0
3, 25840, Note_on_c, 0, 54, 0
3, 25840, Note_on_c, 0, 53, 0
3, 25920, Note_on_c, 0, 51, 20
3, 25920, Note_on_c, 0, 54, 16
3, 25920, Note_on_c, 0, 60, 16
3, 26160, Note_on_c, 0, 60, 0
3, 26160, Note_on_c, 0, 54, 0
3, 26160, Note_on_c, 0, 51, 0
3, 26160, Note_on_c, 0, 46, 16
3, 26240, Note_on_c, 0, 49, 20
3, 26240, Note_on_c, 0, 54, 16
3, 26240, Note_on_c, 0, 61, 16
3, 26320, Note_on_c, 0, 61, 0
3, 26320, Note_on_c, 0, 46, 0
3, 26320, Note_on_c, 0, 49, 0
3, 26320, Note_on_c, 0, 54, 0
3, 26400, Note_on_c, 0, 51, 20
3, 26400, Note_on_c, 0, 54, 16
3, 26400, Note_on_c, 0, 60, 16
3, 26640, Note_on_c, 0, 60, 0
3, 26640, Note_on_c, 0, 54, 0
3, 26640, Note_on_c, 0, 51, 0
3, 26640, Note_on_c, 0, 47, 16
3, 26720, Note_on_c, 0, 53, 20
3, 26720, Note_on_c, 0, 55, 16
3, 26720, Note_on_c, 0, 62, 16
3, 26800, Note_on_c, 0, 62, 0
3, 26800, Note_on_c, 0, 55, 0
3, 26800, Note_on_c, 0, 53, 0
3, 26880, Note_on_c, 0, 55, 21
3, 27040, Note_on_c, 0, 47, 0
3, 27120, Note_on_c, 0, 46, 21
3, 27200, Note_on_c, 0, 55, 0
3, 27200, Note_on_c, 0, 39, 21
3, 27280, Note_on_c, 0, 39, 0
3, 27280, Note_on_c, 0, 46, 0
3, 27360, Note_on_c, 0, 39, 25
3, 27600, Note_on_c, 0, 39, 0
3, 27600, Note_on_c, 0, 45, 21
3, 27680, Note_on_c, 0, 53, 23
3, 27680, Note_on_c, 0, 51, 25
3, 27680, Note_on_c, 0, 60, 21
3, 27760, Note_on_c, 0, 60, 0
3, 27760, Note_on_c, 0, 51, 0
3, 27760, Note_on_c, 0, 53, 0
3, 27840, Note_on_c, 0, 53, 21
3, 28000, Note_on_c, 0, 45, 0
3, 28080, Note_on_c, 0, 44, 21
3, 28160, Note_on_c, 0, 53, 0
3, 28160, Note_on_c, 0, 37, 21
3, 28240, Note_on_c, 0, 37, 0
3, 28320, Note_on_c, 0, 37, 25
3, 28480, Note_on_c, 0, 44, 0
3, 28560, Note_on_c, 0, 37, 0
3, 28560, Note_on_c, 0, 43, 21
3, 28640, Note_on_c, 0, 51, 24
3, 28640, Note_on_c, 0, 49, 25
3, 28640, Note_on_c, 0, 58, 21
3, 28720, Note_on_c, 0, 58, 0
3, 28720, Note_on_c, 0, 49, 0
3, 28720, Note_on_c, 0, 51, 0
3, 28800, Note_on_c, 0, 43, 0
3, 28800, Note_on_c, 0, 43, 20
3, 28800, Note_on_c, 0, 51, 21
3, 29520, Note_on_c, 0, 51, 0
3, 29520, Note_on_c, 0, 43, 0
3, 29520, Note_on_c, 0, 49, 21
3, 29600, Note_on_c, 0, 49, 0
3, 29600, Note_on_c, 0, 43, 21
3, 29600, Note_on_c, 0, 50, 21
3, 29680, Note_on_c, 0, 50, 0
3, 29680, Note_on_c, 0, 43, 0
3, 29760, Note_on_c, 0, 43, 18
3, 29760, Note_on_c, 0, 50, 21
3, 31040, Note_on_c, 0, 50, 0
3, 31040, Note_on_c, 0, 43, 0
3, 31040, Note_on_c, 0, 43, 21
3, 31040, Note_on_c, 0, 51, 32
3, 31040, Note_on_c, 0, 46, 25
3, 31120, Note_on_c, 0, 46, 0
3, 31120, Note_on_c, 0, 51, 0
3, 31120, Note_on_c, 0, 43, 0
3, 31200, Note_on_c, 0, 51, 21
3, 31200, Note_on_c, 0, 43, 25
3, 31200, Note_on_c, 0, 46, 21
3, 31440, Note_on_c, 0, 43, 0
3, 31440, Note_on_c, 0, 42, 21
3, 31520, Note_on_c, 0, 42, 0
3, 31520, Note_on_c, 0, 46, 0
3, 31520, Note_on_c, 0, 51, 0
3, 31520, Note_on_c, 0, 52, 21
3, 31520, Note_on_c, 0, 43, 21
3, 31520, Note_on_c, 0, 46, 21
3, 31600, Note_on_c, 0, 46, 0
3, 31600, Note_on_c, 0, 43, 0
3, 31600, Note_on_c, 0, 52, 0
3, 31680, Note_on_c, 0, 44, 26
3, 31680, Note_on_c, 0, 53, 31
3, 32040, Note_on_c, 0, 53, 0
3, 32040, Note_on_c, 0, 44, 0
3, 32040, Note_on_c, 0, 42, 19
3, 32040, Note_on_c, 0, 51, 19
3, 32040, Note_on_c, 0, 56, 23
3, 32160, Note_on_c, 0, 56, 0
3, 32160, Note_on_c, 0, 51, 0
3, 32160, Note_on_c, 0, 42, 0
3, 32160, Note_on_c, 0, 41, 28
3, 32160, Note_on_c, 0, 49, 28
3, 32160, Note_on_c, 0, 56, 34
3, 32640, Note_on_c, 0, 46, 36
3, 32640, Note_on_c, 0, 58, 53
3, 33120, Note_on_c, 0, 58, 0
3, 33120, Note_on_c, 0, 46, 0
3, 33358, Note_on_c, 0, 56, 0
3, 33360, Note_on_c, 0, 49, 0
3, 33360, Note_on_c, 0, 41, 0
3, 33360, Note_on_c, 0, 42, 24
3, 33360, Note_on_c, 0, 44, 24
3, 33360, Note_on_c, 0, 51, 24
3, 33360, Note_on_c, 0, 54, 29
3, 33598, Note_on_c, 0, 54, 0
3, 33598, Note_on_c, 0, 42, 0
3, 33598, Note_on_c, 0, 44, 0
3, 33598, Note_on_c, 0, 51, 0
3, 33600, Note_on_c, 0, 49, 26
3, 33600, Note_on_c, 0, 41, 26
3, 33600, Note_on_c, 0, 44, 26
3, 33600, Note_on_c, 0, 53, 31
3, 33957, Note_on_c, 0, 53, 0
3, 33957, Note_on_c, 0, 49, 0
3, 33957, Note_on_c, 0, 41, 0
3, 33957, Note_on_c, 0, 44, 0
3, 33960, Note_on_c, 0, 39, 23
3, 33960, Note_on_c, 0, 44, 23
3, 33960, Note_on_c, 0, 54, 23
3, 34080, Note_on_c, 0, 54, 0
3, 34080, Note_on_c, 0, 44, 0
3, 34080, Note_on_c, 0, 39, 0
3, 34080, Note_on_c, 0, 37, 28
3, 34080, Note_on_c, 0, 44, 28
3, 34080, Note_on_c, 0, 53, 34
3, 34560, Note_on_c, 0, 46, 36
3, 34560, Note_on_c, 0, 58, 53
3, 35040, Note_on_c, 0, 58, 0
3, 35040, Note_on_c, 0, 46, 0
3, 35280, Note_on_c, 0, 37, 0
3, 35280, Note_on_c, 0, 44, 0
3, 35280, Note_on_c, 0, 53, 0
3, 35280, Note_on_c, 0, 36, 24
3, 35280, Note_on_c, 0, 41, 24
3, 35280, Note_on_c, 0, 51, 29
3, 35520, Note_on_c, 0, 51, 0
3, 35520, Note_on_c, 0, 41, 0
3, 35520, Note_on_c, 0, 36, 0
3, 35520, Note_on_c, 0, 34, 27
3, 35520, Note_on_c, 0, 49, 32
3, 35880, Note_on_c, 0, 49, 0
3, 35880, Note_on_c, 0, 34, 0
3, 35880, Note_on_c, 0, 32, 25
3, 35880, Note_on_c, 0, 44, 25
3, 36000, Note_on_c, 0, 44, 0
3, 36000, Note_on_c, 0, 32, 0
3, 36000, Note_on_c, 0, 31, 29
3, 36000, Note_on_c, 0, 43, 35
3, 36480, Note_on_c, 0, 43, 0
3, 36480, Note_on_c, 0, 31, 0
3, 36480, Note_on_c, 0, 30, 20
3, 36480, Note_on_c, 0, 42, 24
3, 36640, Note_on_c, 0, 42, 0
3, 36640, Note_on_c, 0, 30, 0
3, 36640, Note_on_c, 0, 29, 19
3, 36640, Note_on_c, 0, 41, 24
3, 36800, Note_on_c, 0, 41, 0
3, 36800, Note_on_c, 0, 29, 0
3, 36800, Note_on_c, 0, 27, 19
3, 36800, Note_on_c, 0, 39, 23
3, 36960, Note_on_c, 0, 39, 0
3, 36960, Note_on_c, 0, 27, 0
3, 36960, Note_on_c, 0, 32, 16
3, 36960, Note_on_c, 0, 44, 20
3, 37440, Note_on_c, 0, 44, 0
3, 37440, Note_on_c, 0, 32, 0
3, 37440, Note_on_c, 0, 40, 24
3, 37520, Note_on_c, 0, 49, 20
3, 37600, Note_on_c, 0, 49, 0
3, 37600, Note_on_c, 0, 33, 20
3, 37680, Note_on_c, 0, 33, 0
3, 37680, Note_on_c, 0, 49, 18
3, 37760, Note_on_c, 0, 49, 0
3, 37760, Note_on_c, 0, 33, 20
3, 37840, Note_on_c, 0, 33, 0
3, 37840, Note_on_c, 0, 49, 18
3, 37920, Note_on_c, 0, 49, 0
3, 37920, Note_on_c, 0, 40, 0
3, 37920, Note_on_c, 0, 40, 24
3, 38000, Note_on_c, 0, 49, 20
3, 38080, Note_on_c, 0, 49, 0
3, 38080, Note_on_c, 0, 33, 20
3, 38160, Note_on_c, 0, 33, 0
3, 38160, Note_on_c, 0, 49, 18
3, 38240, Note_on_c, 0, 49, 0
3, 38240, Note_on_c, 0, 33, 20
3, 38320, Note_on_c, 0, 33, 0
3, 38320, Note_on_c, 0, 49, 18
3, 38400, Note_on_c, 0, 49, 0
3, 38400, Note_on_c, 0, 40, 0
3, 38400, Note_on_c, 0, 40, 24
3, 38480, Note_on_c, 0, 49, 21
3, 38560, Note_on_c, 0, 49, 0
3, 38560, Note_on_c, 0, 33, 21
3, 38640, Note_on_c, 0, 33, 0
3, 38640, Note_on_c, 0, 49, 22
3, 38720, Note_on_c, 0, 49, 0
3, 38720, Note_on_c, 0, 33, 23
3, 38800, Note_on_c, 0, 33, 0
3, 38800, Note_on_c, 0, 49, 24
3, 38880, Note_on_c, 0, 49, 0
3, 38880, Note_on_c, 0, 40, 0
3, 38880, Note_on_c, 0, 40, 29
3, 38960, Note_on_c, 0, 49, 25
3, 39040, Note_on_c, 0, 49, 0
3, 39040, Note_on_c, 0, 33, 24
3, 39120, Note_on_c, 0, 33, 0
3, 39120, Note_on_c, 0, 49, 24
3, 39200, Note_on_c, 0, 49, 0
3, 39200, Note_on_c, 0, 33, 23
3, 39280, Note_on_c, 0, 33, 0
3, 39280, Note_on_c, 0, 49, 22
3, 39360, Note_on_c, 0, 49, 0
3, 39360, Note_on_c, 0, 40, 0
3, 39360, Note_on_c, 0, 40, 28
3, 39440, Note_on_c, 0, 49, 20
3, 39520, Note_on_c, 0, 49, 0
3, 39520, Note_on_c, 0, 33, 20
3, 39600, Note_on_c, 0, 33, 0
3, 39600, Note_on_c, 0, 49, 18
3, 39680, Note_on_c, 0, 49, 0
3, 39680, Note_on_c, 0, 33, 20
3, 39760, Note_on_c, 0, 33, 0
3, 39760, Note_on_c, 0, 49, 18
3, 39840, Note_on_c, 0, 49, 0
3, 39840, Note_on_c, 0, 40, 0
3, 39840, Note_on_c, 0, 40, 24
3, 39920, Note_on_c, 0, 49, 20
3, 40000, Note_on_c, 0, 49, 0
3, 40000, Note_on_c, 0, 33, 20
3, 40080, Note_on_c, 0, 33, 0
3, 40080, Note_on_c, 0, 49, 18
3, 40160, Note_on_c, 0, 49, 0
3, 40160, Note_on_c, 0, 33, 20
3, 40240, Note_on_c, 0, 33, 0
3, 40240, Note_on_c, 0, 49, 18
3, 40320, Note_on_c, 0, 49, 0
3, 40320, Note_on_c, 0, 40, 0
3, 40320, Note_on_c, 0, 40, 27
3, 40400, Note_on_c, 0, 49, 22
3, 40480, Note_on_c, 0, 49, 0
3, 40480, Note_on_c, 0, 33, 23
3, 40560, Note_on_c, 0, 33, 0
3, 40560, Note_on_c, 0, 49, 24
3, 40640, Note_on_c, 0, 49, 0
3, 40640, Note_on_c, 0, 33, 25
3, 40720, Note_on_c, 0, 33, 0
3, 40720, Note_on_c, 0, 49, 26
3, 40800, Note_on_c, 0, 49, 0
3, 40800, Note_on_c, 0, 40, 0
3, 40800, Note_on_c, 0, 41, 39
3, 40880, Note_on_c, 0, 49, 24
3, 40960, Note_on_c, 0, 49, 0
3, 40960, Note_on_c, 0, 33, 24
3, 41040, Note_on_c, 0, 33, 0
3, 41040, Note_on_c, 0, 49, 24
3, 41120, Note_on_c, 0, 49, 0
3, 41120, Note_on_c, 0, 33, 24
3, 41200, Note_on_c, 0, 33, 0
3, 41200, Note_on_c, 0, 49, 21
3, 41280, Note_on_c, 0, 49, 0
3, 41280, Note_on_c, 0, 41, 0
3, 41280, Note_on_c, 0, 40, 24
3, 41360, Note_on_c, 0, 49, 20
3, 41440, Note_on_c, 0, 49, 0
3, 41440, Note_on_c, 0, 33, 20
3, 41520, Note_on_c, 0, 33, 0
3, 41520, Note_on_c, 0, 49, 18
3, 41598, Note_on_c, 0, 49, 0
3, 41600, Note_on_c, 0, 33, 20
3, 41680, Note_on_c, 0, 33, 0
3, 41680, Note_on_c, 0, 49, 18
3, 41760, Note_on_c, 0, 49, 0
3, 41760, Note_on_c, 0, 40, 0
3, 41760, Note_on_c, 0, 39, 28
3, 41840, Note_on_c, 0, 49, 23
3, 41920, Note_on_c, 0, 49, 0
3, 41920, Note_on_c, 0, 33, 23
3, 42000, Note_on_c, 0, 33, 0
3, 42000, Note_on_c, 0, 49, 23
3, 42080, Note_on_c, 0, 49, 0
3, 42080, Note_on_c, 0, 33, 23
3, 42160, Note_on_c, 0, 33, 0
3, 42160, Note_on_c, 0, 49, 20
3, 42240, Note_on_c, 0, 49, 0
3, 42240, Note_on_c, 0, 39, 0
3, 42240, Note_on_c, 0, 40, 28
3, 42320, Note_on_c, 0, 49, 23
3, 42400, Note_on_c, 0, 49, 0
3, 42400, Note_on_c, 0, 33, 24
3, 42480, Note_on_c, 0, 33, 0
3, 42480, Note_on_c, 0, 49, 25
3, 42560, Note_on_c, 0, 49, 0
3, 42560, Note_on_c, 0, 33, 27
3, 42640, Note_on_c, 0, 33, 0
3, 42640, Note_on_c, 0, 49, 28
3, 42720, Note_on_c, 0, 49, 0
3, 42720, Note_on_c, 0, 40, 0
3, 42720, Note_on_c, 0, 41, 33
3, 42800, Note_on_c, 0, 49, 25
3, 42880, Note_on_c, 0, 49, 0
3, 42880, Note_on_c, 0, 33, 25
3, 42960, Note_on_c, 0, 33, 0
3, 42960, Note_on_c, 0, 49, 25
3, 43040, Note_on_c, 0, 49, 0
3, 43040, Note_on_c, 0, 33, 25
3, 43120, Note_on_c, 0, 33, 0
3, 43120, Note_on_c, 0, 49, 22
3, 43200, Note_on_c, 0, 49, 0
3, 43200, Note_on_c, 0, 41, 0
3, 43200, Note_on_c, 0, 40, 27
3, 43280, Note_on_c, 0, 49, 20
3, 43360, Note_on_c, 0, 49, 0
3, 43360, Note_on_c, 0, 33, 20
3, 43440, Note_on_c, 0, 33, 0
3, 43440, Note_on_c, 0, 49, 18
3, 43520, Note_on_c, 0, 49, 0
3, 43520, Note_on_c, 0, 33, 20
3, 43600, Note_on_c, 0, 33, 0
3, 43600, Note_on_c, 0, 49, 18
3, 43678, Note_on_c, 0, 49, 0
3, 43680, Note_on_c, 0, 40, 0
3, 43680, Note_on_c, 0, 39, 24
3, 43760, Note_on_c, 0, 49, 20
3, 43840, Note_on_c, 0, 49, 0
3, 43840, Note_on_c, 0, 33, 20
3, 43920, Note_on_c, 0, 33, 0
3, 43920, Note_on_c, 0, 49, 18
3, 44000, Note_on_c, 0, 49, 0
3, 44000, Note_on_c, 0, 33, 20
3, 44080, Note_on_c, 0, 33, 0
3, 44080, Note_on_c, 0, 49, 18
3, 44160, Note_on_c, 0, 49, 0
3, 44160, Note_on_c, 0, 39, 0
3, 44160, Note_on_c, 0, 40, 27
3, 44240, Note_on_c, 0, 49, 23
3, 44320, Note_on_c, 0, 49, 0
3, 44320, Note_on_c, 0, 33, 23
3, 44400, Note_on_c, 0, 33, 0
3, 44400, Note_on_c, 0, 49, 23
3, 44480, Note_on_c, 0, 49, 0
3, 44480, Note_on_c, 0, 33, 23
3, 44560, Note_on_c, 0, 33, 0
3, 44560, Note_on_c, 0, 49, 21
3, 44640, Note_on_c, 0, 49, 0
3, 44640, Note_on_c, 0, 40, 0
3, 44640, Note_on_c, 0, 39, 27
3, 44720, Note_on_c, 0, 49, 21
3, 44800, Note_on_c, 0, 49, 0
3, 44800, Note_on_c, 0, 33, 21
3, 44880, Note_on_c, 0, 33, 0
3, 44880, Note_on_c, 0, 49, 21
3, 44960, Note_on_c, 0, 49, 0
3, 44960, Note_on_c, 0, 33, 21
3, 45040, Note_on_c, 0, 33, 0
3, 45040, Note_on_c, 0, 49, 18
3, 45120, Note_on_c, 0, 49, 0
3, 45120, Note_on_c, 0, 39, 0
3, 45120, Note_on_c, 0, 40, 31
3, 45200, Note_on_c, 0, 49, 21
3, 45280, Note_on_c, 0, 49, 0
3, 45280, Note_on_c, 0, 33, 21
3, 45360, Note_on_c, 0, 33, 0
3, 45360, Note_on_c, 0, 49, 21
3, 45440, Note_on_c, 0, 49, 0
3, 45440, Note_on_c, 0, 33, 21
3, 45520, Note_on_c, 0, 33, 0
3, 45520, Note_on_c, 0, 49, 18
3, 45598, Note_on_c, 0, 49, 0
3, 45600, Note_on_c, 0, 40, 0
3, 45600, Note_on_c, 0, 41, 28
3, 45680, Note_on_c, 0, 49, 20
3, 45760, Note_on_c, 0, 49, 0
3, 45760, Note_on_c, 0, 33, 20
3, 45840, Note_on_c, 0, 33, 0
3, 45840, Note_on_c, 0, 49, 20
3, 45920, Note_on_c, 0, 49, 0
3, 45920, Note_on_c, 0, 33, 20
3, 46000, Note_on_c, 0, 33, 0
3, 46000, Note_on_c, 0, 49, 20
3, 46080, Note_on_c, 0, 49, 0
3, 46080, Note_on_c, 0, 41, 0
3, 46080, Note_on_c, 0, 40, 28
3, 46160, Note_on_c, 0, 49, 22
3, 46240, Note_on_c, 0, 49, 0
3, 46240, Note_on_c, 0, 33, 22
3, 46320, Note_on_c, 0, 33, 0
3, 46320, Note_on_c, 0, 49, 22
3, 46400, Note_on_c, 0, 49, 0
3, 46400, Note_on_c, 0, 33, 22
3, 46480, Note_on_c, 0, 33, 0
3, 46480, Note_on_c, 0, 49, 22
3, 46560, Note_on_c, 0, 49, 0
3, 46560, Note_on_c, 0, 40, 0
3, 46560, Note_on_c, 0, 39, 30
3, 46640, Note_on_c, 0, 49, 22
3, 46720, Note_on_c, 0, 49, 0
3, 46720, Note_on_c, 0, 33, 22
3, 46800, Note_on_c, 0, 33, 0
3, 46800, Note_on_c, 0, 49, 22
3, 46880, Note_on_c, 0, 49, 0
3, 46880, Note_on_c, 0, 33, 22
3, 46960, Note_on_c, 0, 33, 0
3, 46960, Note_on_c, 0, 49, 22
3, 47040, Note_on_c, 0, 49, 0
3, 47040, Note_on_c, 0, 39, 0
3, 47040, Note_on_c, 0, 40, 32
3, 47120, Note_on_c, 0, 49, 23
3, 47200, Note_on_c, 0, 49, 0
3, 47200, Note_on_c, 0, 33, 23
3, 47280, Note_on_c, 0, 33, 0
3, 47280, Note_on_c, 0, 49, 23
3, 47360, Note_on_c, 0, 49, 0
3, 47360, Note_on_c, 0, 33, 23
3, 47440, Note_on_c, 0, 33, 0
3, 47440, Note_on_c, 0, 49, 24
3, 47518, Note_on_c, 0, 49, 0
3, 47520, Note_on_c, 0, 40, 0
3, 47520, Note_on_c, 0, 41, 31
3, 47600, Note_on_c, 0, 49, 20
3, 47680, Note_on_c, 0, 49, 0
3, 47680, Note_on_c, 0, 33, 22
3, 47760, Note_on_c, 0, 33, 0
3, 47760, Note_on_c, 0, 49, 22
3, 47840, Note_on_c, 0, 49, 0
3, 47840, Note_on_c, 0, 33, 22
3, 47920, Note_on_c, 0, 33, 0
3, 47920, Note_on_c, 0, 49, 22
3, 48000, Note_on_c, 0, 49, 0
3, 48000, Note_on_c, 0, 41, 0
3, 48000, Note_on_c, 0, 40, 28
3, 48080, Note_on_c, 0, 49, 24
3, 48160, Note_on_c, 0, 49, 0
3, 48160, Note_on_c, 0, 33, 24
3, 48240, Note_on_c, 0, 33, 0
3, 48240, Note_on_c, 0, 49, 24
3, 48320, Note_on_c, 0, 49, 0
3, 48320, Note_on_c, 0, 33, 24
3, 48400, Note_on_c, 0, 33, 0
3, 48400, Note_on_c, 0, 49, 24
3, 48480, Note_on_c, 0, 49, 0
3, 48480, Note_on_c, 0, 40, 0
3, 48480, Note_on_c, 0, 39, 32
3, 48560, Note_on_c, 0, 49, 24
3, 48640, Note_on_c, 0, 49, 0
3, 48640, Note_on_c, 0, 33, 24
3, 48720, Note_on_c, 0, 33, 0
3, 48720, Note_on_c, 0, 49, 24
3, 48800, Note_on_c, 0, 49, 0
3, 48800, Note_on_c, 0, 33, 24
3, 48880, Note_on_c, 0, 33, 0
3, 48880, Note_on_c, 0, 49, 24
3, 48960, Note_on_c, 0, 49, 0
3, 48960, Note_on_c, 0, 39, 0
3, 48960, Note_on_c, 0, 40, 40
3, 49040, Note_on_c, 0, 49, 29
3, 49120, Note_on_c, 0, 49, 0
3, 49120, Note_on_c, 0, 34, 29
3, 49200, Note_on_c, 0, 34, 0
3, 49200, Note_on_c, 0, 49, 29
3, 49280, Note_on_c, 0, 49, 0
3, 49280, Note_on_c, 0, 34, 29
3, 49360, Note_on_c, 0, 34, 0
3, 49360, Note_on_c, 0, 49, 30
3, 49438, Note_on_c, 0, 49, 0
3, 49440, Note_on_c, 0, 40, 0
3, 49440, Note_on_c, 0, 41, 39
3, 49520, Note_on_c, 0, 50, 25
3, 49600, Note_on_c, 0, 50, 0
3, 49600, Note_on_c, 0, 35, 28
3, 49660, Note_on_c, 0, 35, 0
3, 49680, Note_on_c, 0, 50, 28
3, 49760, Note_on_c, 0, 50, 0
3, 49760, Note_on_c, 0, 35, 28
3, 49840, Note_on_c, 0, 35, 0
3, 49840, Note_on_c, 0, 50, 28
3, 49920, Note_on_c, 0, 50, 0
3, 49920, Note_on_c, 0, 41, 0
3, 49920, Note_on_c, 0, 42, 36
3, 50000, Note_on_c, 0, 51, 30
3, 50080, Note_on_c, 0, 51, 0
3, 50080, Note_on_c, 0, 36, 30
3, 50160, Note_on_c, 0, 36, 0
3, 50160, Note_on_c, 0, 51, 30
3, 50240, Note_on_c, 0, 51, 0
3, 50240, Note_on_c, 0, 36, 30
3, 50320, Note_on_c, 0, 36, 0
3, 50320, Note_on_c, 0, 51, 30
3, 50400, Note_on_c, 0, 51, 0
3, 50400, Note_on_c, 0, 42, 0
3, 50400, Note_on_c, 0, 44, 40
3, 50480, Note_on_c, 0, 52, 30
3, 50560, Note_on_c, 0, 52, 0
3, 50560, Note_on_c, 0, 37, 30
3, 50640, Note_on_c, 0, 37, 0
3, 50640, Note_on_c, 0, 52, 30
3, 50720, Note_on_c, 0, 52, 0
3, 50720, Note_on_c, 0, 37, 30
3, 50800, Note_on_c, 0, 37, 0
3, 50800, Note_on_c, 0, 52, 30
3, 50880, Note_on_c, 0, 52, 0
3, 50880, Note_on_c, 0, 44, 0
3, 50880, Note_on_c, 0, 46, 44
3, 50960, Note_on_c, 0, 53, 32
3, 51040, Note_on_c, 0, 53, 0
3, 51040, Note_on_c, 0, 38, 32
3, 51100, Note_on_c, 0, 38, 0
3, 51120, Note_on_c, 0, 53, 32
3, 51200, Note_on_c, 0, 53, 0
3, 51200, Note_on_c, 0, 38, 32
3, 51280, Note_on_c, 0, 38, 0
3, 51280, Note_on_c, 0, 53, 34
3, 51358, Note_on_c, 0, 53, 0
3, 51360, Note_on_c, 0, 46, 0
3, 51360, Note_on_c, 0, 47, 44
3, 51440, Note_on_c, 0, 54, 29
3, 51520, Note_on_c, 0, 54, 0
3, 51520, Note_on_c, 0, 39, 32
3, 51600, Note_on_c, 0, 39, 0
3, 51600, Note_on_c, 0, 54, 32
3, 51680, Note_on_c, 0, 54, 0
3, 51680, Note_on_c, 0, 39, 33
3, 51760, Note_on_c, 0, 39, 0
3, 51760, Note_on_c, 0, 54, 33
3, 51840, Note_on_c, 0, 54, 0
3, 51840, Note_on_c, 0, 47, 0
3, 51840, Note_on_c, 0, 48, 43
3, 51920, Note_on_c, 0, 55, 36
3, 52000, Note_on_c, 0, 55, 0
3, 52000, Note_on_c, 0, 40, 36
3, 52080, Note_on_c, 0, 40, 0
3, 52080, Note_on_c, 0, 55, 36
3, 52160, Note_on_c, 0, 55, 0
3, 52160, Note_on_c, 0, 40, 36
3, 52240, Note_on_c, 0, 40, 0
3, 52240, Note_on_c, 0, 55, 37
3, 52320, Note_on_c, 0, 55, 0
3, 52320, Note_on_c, 0, 48, 0
3, 52320, Note_on_c, 0, 49, 50
3, 52400, Note_on_c, 0, 56, 37
3, 52480, Note_on_c, 0, 56, 0
3, 52480, Note_on_c, 0, 41, 37
3, 52560, Note_on_c, 0, 41, 0
3, 52560, Note_on_c, 0, 56, 38
3, 52640, Note_on_c, 0, 56, 0
3, 52640, Note_on_c, 0, 41, 38
3, 52720, Note_on_c, 0, 41, 0
3, 52720, Note_on_c, 0, 56, 38
3, 52800, Note_on_c, 0, 56, 0
3, 52800, Note_on_c, 0, 49, 0
3, 52800, Note_on_c, 0, 49, 48
3, 52800, Note_on_c, 0, 61, 54
3, 52960, Note_on_c, 0, 61, 0
3, 52960, Note_on_c, 0, 49, 0
3, 52960, Note_on_c, 0, 56, 51
3, 53040, Note_on_c, 0, 56, 0
3, 53040, Note_on_c, 0, 61, 43
3, 53120, Note_on_c, 0, 61, 0
3, 53120, Note_on_c, 0, 68, 43
3, 53192, Note_on_c, 0, 68, 0
3, 53200, Note_on_c, 0, 68, 43
3, 53272, Note_on_c, 0, 68, 0
3, 53280, Note_on_c, 0, 73, 68
3, 53440, Note_on_c, 0, 73, 0
3, 53440, Note_on_c, 0, 49, 41
3, 53520, Note_on_c, 0, 49, 0
3, 53520, Note_on_c, 0, 56, 44
3, 53600, Note_on_c, 0, 56, 0
3, 53600, Note_on_c, 0, 49, 40
3, 53680, Note_on_c, 0, 49, 0
3, 53680, Note_on_c, 0, 56, 48
3, 53760, Note_on_c, 0, 56, 0
3, 53760, Note_on_c, 0, 61, 59
3, 53920, Note_on_c, 0, 61, 0
3, 53920, Note_on_c, 0, 57, 53
3, 54000, Note_on_c, 0, 57, 0
3, 54000, Note_on_c, 0, 49, 45
3, 54080, Note_on_c, 0, 49, 0
3, 54080, Note_on_c, 0, 57, 45
3, 54160, Note_on_c, 0, 57, 0
3, 54160, Note_on_c, 0, 68, 58
3, 54160, Note_on_c, 0, 49, 46
3, 54240, Note_on_c, 0, 49, 0
3, 54240, Note_on_c, 0, 68, 0
3, 54240, Note_on_c, 0, 42, 57
3, 54240, Note_on_c, 0, 73, 68
3, 54400, Note_on_c, 0, 73, 0
3, 54400, Note_on_c, 0, 42, 0
3, 54400, Note_on_c, 0, 49, 43
3, 54480, Note_on_c, 0, 49, 0
3, 54480, Note_on_c, 0, 57, 46
3, 54560, Note_on_c, 0, 57, 0
3, 54560, Note_on_c, 0, 49, 42
3, 54640, Note_on_c, 0, 49, 0
3, 54640, Note_on_c, 0, 57, 54
3, 54720, Note_on_c, 0, 57, 0
3, 54720, Note_on_c, 0, 61, 62
3, 54880, Note_on_c, 0, 61, 0
3, 54880, Note_on_c, 0, 53, 56
3, 54960, Note_on_c, 0, 53, 0
3, 54960, Note_on_c, 0, 49, 47
3, 55040, Note_on_c, 0, 49, 0
3, 55040, Note_on_c, 0, 53, 47
3, 55120, Note_on_c, 0, 53, 0
3, 55120, Note_on_c, 0, 65, 59
3, 55120, Note_on_c, 0, 49, 48
3, 55200, Note_on_c, 0, 49, 0
3, 55200, Note_on_c, 0, 65, 0
3, 55200, Note_on_c, 0, 44, 60
3, 55200, Note_on_c, 0, 73, 69
3, 55360, Note_on_c, 0, 73, 0
3, 55360, Note_on_c, 0, 44, 0
3, 55360, Note_on_c, 0, 53, 45
3, 55440, Note_on_c, 0, 53, 0
3, 55440, Note_on_c, 0, 61, 48
3, 55520, Note_on_c, 0, 61, 0
3, 55520, Note_on_c, 0, 53, 44
3, 55600, Note_on_c, 0, 53, 0
3, 55600, Note_on_c, 0, 61, 61
3, 55680, Note_on_c, 0, 61, 0
3, 55680, Note_on_c, 0, 65, 70
3, 55840, Note_on_c, 0, 65, 0
3, 55840, Note_on_c, 0, 61, 58
3, 55920, Note_on_c, 0, 61, 0
3, 55920, Note_on_c, 0, 53, 49
3, 56000, Note_on_c, 0, 53, 0
3, 56000, Note_on_c, 0, 61, 49
3, 56080, Note_on_c, 0, 61, 0
3, 56080, Note_on_c, 0, 65, 66
3, 56080, Note_on_c, 0, 49, 50
3, 56160, Note_on_c, 0, 49, 0
3, 56160, Note_on_c, 0, 65, 0
3, 56160, Note_on_c, 0, 45, 63
3, 56160, Note_on_c, 0, 73, 77
3, 56320, Note_on_c, 0, 73, 0
3, 56320, Note_on_c, 0, 45, 0
3, 56320, Note_on_c, 0, 53, 47
3, 56400, Note_on_c, 0, 53, 0
3, 56400, Note_on_c, 0, 61, 50
3, 56480, Note_on_c, 0, 61, 0
3, 56480, Note_on_c, 0, 53, 46
3, 56560, Note_on_c, 0, 53, 0
3, 56560, Note_on_c, 0, 61, 46
3, 56640, Note_on_c, 0, 61, 0
3, 56640, Note_on_c, 0, 34, 56
3, 56640, Note_on_c, 0, 46, 66
3, 56760, Note_on_c, 0, 46, 0
3, 56760, Note_on_c, 0, 34, 0
3, 56760, Note_on_c, 0, 56, 78
3, 56760, Note_on_c, 0, 53, 65
3, 56880, Note_on_c, 0, 53, 0
3, 56880, Note_on_c, 0, 56, 0
3, 57120, Note_on_c, 0, 66, 48
3, 57200, Note_on_c, 0, 69, 37
3, 57280, Note_on_c, 0, 69, 0
3, 57280, Note_on_c, 0, 75, 37
3, 57360, Note_on_c, 0, 75, 0
3, 57480, Note_on_c, 0, 66, 0
3, 57480, Note_on_c, 0, 65, 36
3, 57600, Note_on_c, 0, 65, 0
3, 57600, Note_on_c, 0, 58, 44
3, 57720, Note_on_c, 0, 65, 37
3, 58080, Note_on_c, 0, 65, 0
3, 58080, Note_on_c, 0, 58, 0
3, 58080, Note_on_c, 0, 66, 48
3, 58160, Note_on_c, 0, 69, 37
3, 58240, Note_on_c, 0, 69, 0
3, 58240, Note_on_c, 0, 75, 37
3, 58320, Note_on_c, 0, 75, 0
3, 58440, Note_on_c, 0, 66, 0
3, 58440, Note_on_c, 0, 65, 36
3, 58560, Note_on_c, 0, 65, 0
3, 58560, Note_on_c, 0, 58, 35
3, 58680, Note_on_c, 0, 65, 29
3, 59040, Note_on_c, 0, 65, 0
3, 59040, Note_on_c, 0, 58, 0
3, 59040, Note_on_c, 0, 66, 38
3, 59120, Note_on_c, 0, 69, 29
3, 59200, Note_on_c, 0, 69, 0
3, 59200, Note_on_c, 0, 75, 29
3, 59280, Note_on_c, 0, 75, 0
3, 59400, Note_on_c, 0, 66, 0
3, 59400, Note_on_c, 0, 65, 28
3, 59520, Note_on_c, 0, 65, 0
3, 59520, Note_on_c, 0, 58, 35
3, 59640, Note_on_c, 0, 65, 29
3, 60000, Note_on_c, 0, 65, 0
3, 60000, Note_on_c, 0, 58, 0
3, 60000, Note_on_c, 0, 66, 38
3, 60080, Note_on_c, 0, 69, 29
3, 60160, Note_on_c, 0, 69, 0
3, 60160, Note_on_c, 0, 75, 29
3, 60240, Note_on_c, 0, 75, 0
3, 60360, Note_on_c, 0, 66, 0
3, 60360, Note_on_c, 0, 65, 28
3, 60480, Note_on_c, 0, 65, 0
3, 60480, Note_on_c, 0, 58, 35
3, 60600, Note_on_c, 0, 66, 29
3, 60960, Note_on_c, 0, 66, 0
3, 60960, Note_on_c, 0, 58, 0
3, 60960, Note_on_c, 0, 68, 38
3, 61080, Note_on_c, 0, 70, 29
3, 61320, Note_on_c, 0, 68, 0
3, 61320, Note_on_c, 0, 66, 28
3, 61440, Note_on_c, 0, 66, 0
3, 61440, Note_on_c, 0, 70, 0
3, 61440, Note_on_c, 0, 58, 35
3, 61560, Note_on_c, 0, 66, 29
3, 61920, Note_on_c, 0, 66, 0
3, 61920, Note_on_c, 0, 58, 0
3, 61920, Note_on_c, 0, 68, 39
3, 62040, Note_on_c, 0, 71, 30
3, 62280, Note_on_c, 0, 68, 0
3, 62280, Note_on_c, 0, 66, 29
3, 62400, Note_on_c, 0, 66, 0
3, 62400, Note_on_c, 0, 71, 0
3, 62400, Note_on_c, 0, 58, 36
3, 62520, Note_on_c, 0, 66, 30
3, 62880, Note_on_c, 0, 66, 0
3, 62880, Note_on_c, 0, 58, 0
3, 62880, Note_on_c, 0, 68, 40
3, 63000, Note_on_c, 0, 71, 31
3, 63240, Note_on_c, 0, 68, 0
3, 63240, Note_on_c, 0, 66, 30
3, 63360, Note_on_c, 0, 66, 0
3, 63360, Note_on_c, 0, 71, 0
3, 63360, Note_on_c, 0, 63, 31
3, 63360, Note_on_c, 0, 58, 37
3, 63480, Note_on_c, 0, 63, 0
3, 63480, Note_on_c, 0, 67, 31
3, 63600, Note_on_c, 0, 67, 0
3, 63600, Note_on_c, 0, 73, 31
3, 63840, Note_on_c, 0, 73, 0
3, 63840, Note_on_c, 0, 58, 0
3, 63840, Note_on_c, 0, 68, 40
3, 63960, Note_on_c, 0, 71, 31
3, 64200, Note_on_c, 0, 68, 0
3, 64200, Note_on_c, 0, 66, 31
3, 64320, Note_on_c, 0, 66, 0
3, 64320, Note_on_c, 0, 71, 0
3, 64320, Note_on_c, 0, 63, 32
3, 64320, Note_on_c, 0, 58, 37
3, 64440, Note_on_c, 0, 63, 0
3, 64440, Note_on_c, 0, 67, 32
3, 64560, Note_on_c, 0, 67, 0
3, 64560, Note_on_c, 0, 73, 32
3, 64800, Note_on_c, 0, 73, 0
3, 64800, Note_on_c, 0, 58, 0
3, 64800, Note_on_c, 0, 68, 41
3, 64920, Note_on_c, 0, 71, 32
3, 65160, Note_on_c, 0, 68, 0
3, 65160, Note_on_c, 0, 66, 31
3, 65280, Note_on_c, 0, 66, 0
3, 65280, Note_on_c, 0, 71, 0
3, 65280, Note_on_c, 0, 63, 32
3, 65280, Note_on_c, 0, 58, 38
3, 65400, Note_on_c, 0, 63, 0
3, 65400, Note_on_c, 0, 67, 32
3, 65520, Note_on_c, 0, 67, 0
3, 65520, Note_on_c, 0, 73, 32
3, 65760, Note_on_c, 0, 73, 0
3, 65760, Note_on_c, 0, 58, 0
3, 65760, Note_on_c, 0, 68, 43
3, 65880, Note_on_c, 0, 71, 32
3, 66000, Note_on_c, 0, 71, 0
3, 66000, Note_on_c, 0, 74, 32
3, 66120, Note_on_c, 0, 68, 0
3, 66120, Note_on_c, 0, 66, 32
3, 66240, Note_on_c, 0, 66, 0
3, 66240, Note_on_c, 0, 74, 0
3, 66240, Note_on_c, 0, 63, 33
3, 66240, Note_on_c, 0, 58, 40
3, 66360, Note_on_c, 0, 63, 0
3, 66360, Note_on_c, 0, 67, 33
3, 66480, Note_on_c, 0, 67, 0
3, 66480, Note_on_c, 0, 73, 33
3, 66720, Note_on_c, 0, 73, 0
3, 66720, Note_on_c, 0, 58, 0
3, 66720, Note_on_c, 0, 68, 44
3, 66840, Note_on_c, 0, 71, 33
3, 66960, Note_on_c, 0, 71, 0
3, 66960, Note_on_c, 0, 74, 33
3, 67080, Note_on_c, 0, 68, 0
3, 67080, Note_on_c, 0, 66, 32
3, 67200, Note_on_c, 0, 66, 0
3, 67200, Note_on_c, 0, 74, 0
3, 67200, Note_on_c, 0, 61, 40
3, 67200, Note_on_c, 0, 66, 33
3, 67200, Note_on_c, 0, 58, 40
3, 67320, Note_on_c, 0, 66, 0
3, 67320, Note_on_c, 0, 73, 34
3, 67680, Note_on_c, 0, 73, 0
3, 67680, Note_on_c, 0, 58, 0
3, 67680, Note_on_c, 0, 61, 0
3, 67680, Note_on_c, 0, 75, 46
3, 67680, Note_on_c, 0, 66, 46
3, 67800, Note_on_c, 0, 70, 36
3, 68040, Note_on_c, 0, 66, 0
3, 68040, Note_on_c, 0, 75, 0
3, 68040, Note_on_c, 0, 73, 35
3, 68160, Note_on_c, 0, 73, 0
3, 68160, Note_on_c, 0, 70, 0
3, 68160, Note_on_c, 0, 63, 44
3, 68160, Note_on_c, 0, 66, 37
3, 68160, Note_on_c, 0, 58, 44
3, 68280, Note_on_c, 0, 66, 0
3, 68280, Note_on_c, 0, 75, 38
3, 68640, Note_on_c, 0, 75, 0
3, 68640, Note_on_c, 0, 58, 0
3, 68640, Note_on_c, 0, 63, 0
3, 68640, Note_on_c, 0, 77, 51
3, 68640, Note_on_c, 0, 68, 51
3, 68760, Note_on_c, 0, 71, 39
3, 69000, Note_on_c, 0, 68, 0
3, 69000, Note_on_c, 0, 77, 0
3, 69000, Note_on_c, 0, 75, 39
3, 69120, Note_on_c, 0, 75, 0
3, 69120, Note_on_c, 0, 71, 0
3, 69120, Note_on_c, 0, 65, 49
3, 69120, Note_on_c, 0, 68, 40
3, 69120, Note_on_c, 0, 58, 49
3, 69240, Note_on_c, 0, 68, 0
3, 69240, Note_on_c, 0, 77, 41
3, 69600, Note_on_c, 0, 77, 0
3, 69600, Note_on_c, 0, 58, 0
3, 69600, Note_on_c, 0, 65, 0
3, 69600, Note_on_c, 0, 78, 55
3, 69600, Note_on_c, 0, 69, 55
3, 69720, Note_on_c, 0, 72, 43
3, 69960, Note_on_c, 0, 69, 0
3, 69960, Note_on_c, 0, 78, 0
3, 69960, Note_on_c, 0, 77, 43
3, 70080, Note_on_c, 0, 77, 0
3, 70080, Note_on_c, 0, 72, 0
3, 70080, Note_on_c, 0, 70, 79
3, 70200, Note_on_c, 0, 76, 56
3, 70320, Note_on_c, 0, 76, 0
3, 70320, Note_on_c, 0, 82, 56
3, 70440, Note_on_c, 0, 82, 0
3, 70440, Note_on_c, 0, 77, 56
3, 70560, Note_on_c, 0, 77, 0
3, 70560, Note_on_c, 0, 70, 0
3, 70560, Note_on_c, 0, 67, 74
3, 70680, Note_on_c, 0, 75, 48
3, 70800, Note_on_c, 0, 75, 0
3, 70800, Note_on_c, 0, 76, 48
3, 70920, Note_on_c, 0, 76, 0
3, 70920, Note_on_c, 0, 75, 48
3, 71040, Note_on_c, 0, 75, 0
3, 71040, Note_on_c, 0, 67, 0
3, 71040, Note_on_c, 0, 66, 74
3, 71160, Note_on_c, 0, 74, 52
3, 71280, Note_on_c, 0, 74, 0
3, 71280, Note_on_c, 0, 75, 52
3, 71400, Note_on_c, 0, 75, 0
3, 71400, Note_on_c, 0, 72, 53
3, 71520, Note_on_c, 0, 72, 0
3, 71520, Note_on_c, 0, 66, 0
3, 71520, Note_on_c, 0, 56, 69
3, 71520, Note_on_c, 0, 65, 74
3, 71640, Note_on_c, 0, 69, 52
3, 71760, Note_on_c, 0, 69, 0
3, 71760, Note_on_c, 0, 74, 52
3, 71880, Note_on_c, 0, 74, 0
3, 71880, Note_on_c, 0, 68, 53
3, 72000, Note_on_c, 0, 68, 0
3, 72000, Note_on_c, 0, 65, 0
3, 72000, Note_on_c, 0, 56, 0
3, 72000, Note_on_c, 0, 64, 74
3, 72120, Note_on_c, 0, 67, 49
3, 72240, Note_on_c, 0, 67, 0
3, 72240, Note_on_c, 0, 73, 49
3, 72480, Note_on_c, 0, 73, 0
3, 72480, Note_on_c, 0, 64, 0
3, 72480, Note_on_c, 0, 56, 69
3, 72480, Note_on_c, 0, 63, 74
3, 72600, Note_on_c, 0, 66, 52
3, 72720, Note_on_c, 0, 66, 0
3, 72720, Note_on_c, 0, 72, 52
3, 72960, Note_on_c, 0, 72, 0
3, 72960, Note_on_c, 0, 63, 0
3, 72960, Note_on_c, 0, 56, 0
3, 72960, Note_on_c, 0, 54, 69
3, 72960, Note_on_c, 0, 57, 69
3, 72960, Note_on_c, 0, 62, 74
3, 73200, Note_on_c, 0, 54, 0
3, 73200, Note_on_c, 0, 44, 49
3, 73440, Note_on_c, 0, 44, 0
3, 73440, Note_on_c, 0, 62, 0
3, 73440, Note_on_c, 0, 57, 0
3, 73440, Note_on_c, 0, 53, 69
3, 73440, Note_on_c, 0, 61, 74
3, 73680, Note_on_c, 0, 44, 51
3, 73920, Note_on_c, 0, 44, 0
3, 73920, Note_on_c, 0, 61, 0
3, 73920, Note_on_c, 0, 53, 0
3, 73920, Note_on_c, 0, 52, 65
3, 73920, Note_on_c, 0, 59, 74
3, 74160, Note_on_c, 0, 44, 52
3, 74400, Note_on_c, 0, 44, 0
3, 74400, Note_on_c, 0, 59, 0
3, 74400, Note_on_c, 0, 52, 0
3, 74400, Note_on_c, 0, 51, 69
3, 74400, Note_on_c, 0, 58, 73
3, 74640, Note_on_c, 0, 32, 52
3, 74880, Note_on_c, 0, 32, 0
3, 74880, Note_on_c, 0, 58, 0
3, 74880, Note_on_c, 0, 51, 0
3, 74880, Note_on_c, 0, 45, 69
3, 74880, Note_on_c, 0, 49, 66
3, 74880, Note_on_c, 0, 57, 77
3, 75120, Note_on_c, 0, 45, 0
3, 75120, Note_on_c, 0, 32, 51
3, 75360, Note_on_c, 0, 32, 0
3, 75360, Note_on_c, 0, 57, 0
3, 75360, Note_on_c, 0, 49, 0
3, 75360, Note_on_c, 0, 44, 69
3, 75360, Note_on_c, 0, 49, 65
3, 75360, Note_on_c, 0, 56, 79
3, 75600, Note_on_c, 0, 44, 0
3, 75600, Note_on_c, 0, 32, 51
3, 75840, Note_on_c, 0, 32, 0
3, 75840, Note_on_c, 0, 56, 0
3, 75840, Note_on_c, 0, 49, 0
3, 75840, Note_on_c, 0, 33, 74
3, 75840, Note_on_c, 0, 45, 83
3, 75840, Note_on_c, 0, 49, 74
3, 76160, Note_on_c, 0, 49, 0
3, 76160, Note_on_c, 0, 42, 37
3, 76160, Note_on_c, 0, 49, 37
3, 76160, Note_on_c, 0, 51, 44
3, 76304, Note_on_c, 0, 51, 0
3, 76304, Note_on_c, 0, 42, 0
3, 76304, Note_on_c, 0, 49, 0
3, 76320, Note_on_c, 0, 42, 45
3, 76320, Note_on_c, 0, 49, 45
3, 76320, Note_on_c, 0, 51, 53
3, 76464, Note_on_c, 0, 51, 0
3, 76464, Note_on_c, 0, 42, 0
3, 76464, Note_on_c, 0, 49, 0
3, 76480, Note_on_c, 0, 45, 35
3, 76480, Note_on_c, 0, 49, 35
3, 76480, Note_on_c, 0, 54, 42
3, 76624, Note_on_c, 0, 54, 0
3, 76624, Note_on_c, 0, 45, 0
3, 76624, Note_on_c, 0, 49, 0
3, 76640, Note_on_c, 0, 45, 35
3, 76640, Note_on_c, 0, 49, 35
3, 76640, Note_on_c, 0, 54, 42
3, 76784, Note_on_c, 0, 54, 0
3, 76784, Note_on_c, 0, 45, 0
3, 76784, Note_on_c, 0, 49, 0
3, 76800, Note_on_c, 0, 45, 45
3, 76800, Note_on_c, 0, 49, 45
3, 76800, Note_on_c, 0, 54, 53
3, 76944, Note_on_c, 0, 54, 0
3, 76944, Note_on_c, 0, 45, 0
3, 76960, Note_on_c, 0, 51, 39
3, 76960, Note_on_c, 0, 54, 39
3, 76960, Note_on_c, 0, 61, 46
3, 77104, Note_on_c, 0, 61, 0
3, 77104, Note_on_c, 0, 51, 0
3, 77104, Note_on_c, 0, 54, 0
3, 77120, Note_on_c, 0, 51, 39
3, 77120, Note_on_c, 0, 54, 39
3, 77120, Note_on_c, 0, 61, 46
3, 77264, Note_on_c, 0, 61, 0
3, 77264, Note_on_c, 0, 51, 0
3, 77264, Note_on_c, 0, 54, 0
3, 77280, Note_on_c, 0, 51, 45
3, 77280, Note_on_c, 0, 54, 45
3, 77280, Note_on_c, 0, 61, 53
3, 77424, Note_on_c, 0, 61, 0
3, 77424, Note_on_c, 0, 51, 0
3, 77424, Note_on_c, 0, 54, 0
3, 77440, Note_on_c, 0, 54, 39
3, 77440, Note_on_c, 0, 61, 39
3, 77440, Note_on_c, 0, 63, 46
3, 77584, Note_on_c, 0, 63, 0
3, 77584, Note_on_c, 0, 54, 0
3, 77584, Note_on_c, 0, 61, 0
3, 77600, Note_on_c, 0, 54, 39
3, 77600, Note_on_c, 0, 61, 39
3, 77600, Note_on_c, 0, 63, 46
3, 77664, Note_on_c, 0, 49, 0
3, 77744, Note_on_c, 0, 61, 0
3, 77744, Note_on_c, 0, 54, 0
3, 77744, Note_on_c, 0, 63, 0
3, 77760, Note_on_c, 0, 33, 0
3, 77760, Note_on_c, 0, 45, 0
3, 77760, Note_on_c, 0, 32, 65
3, 77760, Note_on_c, 0, 44, 75
3, 77920, Note_on_c, 0, 51, 39
3, 77920, Note_on_c, 0, 54, 39
3, 77920, Note_on_c, 0, 61, 46
3, 78064, Note_on_c, 0, 61, 0
3, 78064, Note_on_c, 0, 51, 0
3, 78064, Note_on_c, 0, 54, 0
3, 78080, Note_on_c, 0, 54, 39
3, 78080, Note_on_c, 0, 61, 39
3, 78080, Note_on_c, 0, 63, 46
3, 78224, Note_on_c, 0, 63, 0
3, 78224, Note_on_c, 0, 54, 0
3, 78224, Note_on_c, 0, 61, 0
3, 78240, Note_on_c, 0, 58, 42
3, 78240, Note_on_c, 0, 61, 45
3, 78240, Note_on_c, 0, 70, 62
3, 78384, Note_on_c, 0, 61, 0
3, 78400, Note_on_c, 0, 54, 39
3, 78400, Note_on_c, 0, 61, 39
3, 78400, Note_on_c, 0, 63, 46
3, 78544, Note_on_c, 0, 63, 0
3, 78544, Note_on_c, 0, 54, 0
3, 78544, Note_on_c, 0, 61, 0
3, 78560, Note_on_c, 0, 54, 39
3, 78560, Note_on_c, 0, 61, 39
3, 78560, Note_on_c, 0, 63, 46
3, 78704, Note_on_c, 0, 63, 0
3, 78704, Note_on_c, 0, 54, 0
3, 78704, Note_on_c, 0, 61, 0
3, 78720, Note_on_c, 0, 44, 0
3, 78720, Note_on_c, 0, 32, 0
3, 78720, Note_on_c, 0, 32, 67
3, 78720, Note_on_c, 0, 44, 75
3, 78864, Note_on_c, 0, 44, 0
3, 78880, Note_on_c, 0, 44, 39
3, 78880, Note_on_c, 0, 54, 39
3, 78880, Note_on_c, 0, 60, 46
3, 79024, Note_on_c, 0, 60, 0
3, 79024, Note_on_c, 0, 54, 0
3, 79040, Note_on_c, 0, 54, 39
3, 79040, Note_on_c, 0, 60, 39
3, 79040, Note_on_c, 0, 63, 46
3, 79184, Note_on_c, 0, 63, 0
3, 79184, Note_on_c, 0, 54, 0
3, 79184, Note_on_c, 0, 60, 0
3, 79200, Note_on_c, 0, 70, 0
3, 79200, Note_on_c, 0, 58, 0
3, 79200, Note_on_c, 0, 56, 56
3, 79200, Note_on_c, 0, 68, 77
3, 79360, Note_on_c, 0, 54, 39
3, 79360, Note_on_c, 0, 60, 39
3, 79360, Note_on_c, 0, 63, 46
3, 79504, Note_on_c, 0, 63, 0
3, 79504, Note_on_c, 0, 54, 0
3, 79504, Note_on_c, 0, 60, 0
3, 79520, Note_on_c, 0, 54, 39
3, 79520, Note_on_c, 0, 60, 39
3, 79520, Note_on_c, 0, 63, 46
3, 79664, Note_on_c, 0, 63, 0
3, 79664, Note_on_c, 0, 54, 0
3, 79664, Note_on_c, 0, 60, 0
3, 79680, Note_on_c, 0, 68, 0
3, 79680, Note_on_c, 0, 44, 0
3, 79680, Note_on_c, 0, 32, 0
3, 79680, Note_on_c, 0, 56, 0
3, 79680, Note_on_c, 0, 25, 47
3, 79680, Note_on_c, 0, 37, 59
3, 79840, Note_on_c, 0, 37, 0
3, 79840, Note_on_c, 0, 25, 0
3, 79840, Note_on_c, 0, 44, 31
3, 79840, Note_on_c, 0, 49, 38
3, 79920, Note_on_c, 0, 49, 0
3, 79920, Note_on_c, 0, 44, 0
3, 79920, Note_on_c, 0, 56, 44
3, 80000, Note_on_c, 0, 56, 0
3, 80000, Note_on_c, 0, 51, 31
3, 80000, Note_on_c, 0, 56, 38
3, 80080, Note_on_c, 0, 56, 0
3, 80080, Note_on_c, 0, 51, 0
3, 80080, Note_on_c, 0, 53, 51
3, 80160, Note_on_c, 0, 53, 0
3, 80160, Note_on_c, 0, 53, 57
3, 80160, Note_on_c, 0, 56, 57
3, 80160, Note_on_c, 0, 61, 68
3, 80320, Note_on_c, 0, 61, 0
3, 80320, Note_on_c, 0, 56, 0
3, 80320, Note_on_c, 0, 53, 0
3, 80320, Note_on_c, 0, 25, 47
3, 80320, Note_on_c, 0, 37, 56
3, 80392, Note_on_c, 0, 37, 0
3, 80392, Note_on_c, 0, 25, 0
3, 80400, Note_on_c, 0, 25, 50
3, 80400, Note_on_c, 0, 37, 60
3, 80480, Note_on_c, 0, 37, 0
3, 80480, Note_on_c, 0, 25, 0
3, 80480, Note_on_c, 0, 32, 53
3, 80480, Note_on_c, 0, 44, 63
3, 80560, Note_on_c, 0, 44, 0
3, 80560, Note_on_c, 0, 32, 0
3, 80560, Note_on_c, 0, 37, 56
3, 80560, Note_on_c, 0, 49, 66
3, 80640, Note_on_c, 0, 49, 0
3, 80640, Note_on_c, 0, 37, 0
3, 80640, Note_on_c, 0, 37, 79
3, 80640, Note_on_c, 0, 49, 79
3, 80720, Note_on_c, 0, 49, 0
3, 80720, Note_on_c, 0, 41, 58
3, 80800, Note_on_c, 0, 41, 0
3, 80800, Note_on_c, 0, 42, 58
3, 80880, Note_on_c, 0, 42, 0
3, 80880, Note_on_c, 0, 43, 59
3, 80960, Note_on_c, 0, 43, 0
3, 80960, Note_on_c, 0, 44, 60
3, 81040, Note_on_c, 0, 44, 0
3, 81040, Note_on_c, 0, 45, 60
3, 81120, Note_on_c, 0, 45, 0
3, 81120, Note_on_c, 0, 46, 61
3, 81200, Note_on_c, 0, 46, 0
3, 81200, Note_on_c, 0, 47, 61
3, 81280, Note_on_c, 0, 47, 0
3, 81280, Note_on_c, 0, 48, 62
3, 81360, Note_on_c, 0, 48, 0
3, 81360, Note_on_c, 0, 45, 53
3, 81360, Note_on_c, 0, 49, 63
3, 81440, Note_on_c, 0, 49, 0
3, 81440, Note_on_c, 0, 45, 0
3, 81440, Note_on_c, 0, 53, 63
3, 81520, Note_on_c, 0, 53, 0
3, 81520, Note_on_c, 0, 32, 59
3, 81600, Note_on_c, 0, 32, 0
3, 81600, Note_on_c, 0, 37, 0
3, 81600, Note_on_c, 0, 25, 47
3, 81600, Note_on_c, 0, 37, 59
3, 81760, Note_on_c, 0, 37, 0
3, 81760, Note_on_c, 0, 25, 0
3, 81760, Note_on_c, 0, 44, 31
3, 81760, Note_on_c, 0, 49, 38
3, 81840, Note_on_c, 0, 49, 0
3, 81840, Note_on_c, 0, 44, 0
3, 81840, Note_on_c, 0, 56, 44
3, 81920, Note_on_c, 0, 56, 0
3, 81920, Note_on_c, 0, 51, 31
3, 81920, Note_on_c, 0, 56, 38
3, 82000, Note_on_c, 0, 56, 0
3, 82000, Note_on_c, 0, 51, 0
3, 82000, Note_on_c, 0, 53, 51
3, 82080, Note_on_c, 0, 53, 0
3, 82080, Note_on_c, 0, 53, 57
3, 82080, Note_on_c, 0, 56, 57
3, 82080, Note_on_c, 0, 61, 68
3, 82240, Note_on_c, 0, 61, 0
3, 82240, Note_on_c, 0, 56, 0
3, 82240, Note_on_c, 0, 53, 0
3, 82240, Note_on_c, 0, 25, 47
3, 82240, Note_on_c, 0, 37, 56
3, 82312, Note_on_c, 0, 37, 0
3, 82312, Note_on_c, 0, 25, 0
3, 82320, Note_on_c, 0, 25, 50
3, 82320, Note_on_c, 0, 37, 60
3, 82400, Note_on_c, 0, 37, 0
3, 82400, Note_on_c, 0, 25, 0
3, 82400, Note_on_c, 0, 32, 53
3, 82400, Note_on_c, 0, 44, 63
3, 82480, Note_on_c, 0, 44, 0
3, 82480, Note_on_c, 0, 32, 0
3, 82480, Note_on_c, 0, 37, 56
3, 82480, Note_on_c, 0, 49, 66
3, 82560, Note_on_c, 0, 49, 0
3, 82560, Note_on_c, 0, 37, 0
3, 82560, Note_on_c, 0, 37, 79
3, 82560, Note_on_c, 0, 49, 79
3, 82640, Note_on_c, 0, 49, 0
3, 82640, Note_on_c, 0, 41, 58
3, 82720, Note_on_c, 0, 41, 0
3, 82720, Note_on_c, 0, 42, 58
3, 82800, Note_on_c, 0, 42, 0
3, 82800, Note_on_c, 0, 43, 59
3, 82880, Note_on_c, 0, 43, 0
3, 82880, Note_on_c, 0, 44, 60
3, 82960, Note_on_c, 0, 44, 0
3, 82960, Note_on_c, 0, 45, 60
3, 83040, Note_on_c, 0, 45, 0
3, 83040, Note_on_c, 0, 46, 61
3, 83120, Note_on_c, 0, 46, 0
3, 83120, Note_on_c, 0, 47, 61
3, 83200, Note_on_c, 0, 47, 0
3, 83200, Note_on_c, 0, 48, 62
3, 83280, Note_on_c, 0, 48, 0
3, 83280, Note_on_c, 0, 45, 53
3, 83280, Note_on_c, 0, 49, 63
3, 83360, Note_on_c, 0, 49, 0
3, 83360, Note_on_c, 0, 45, 0
3, 83360, Note_on_c, 0, 53, 63
3, 83440, Note_on_c, 0, 53, 0
3, 83440, Note_on_c, 0, 32, 59
3, 83520, Note_on_c, 0, 32, 0
3, 83520, Note_on_c, 0, 37, 0
3, 83520, Note_on_c, 0, 25, 47
3, 83520, Note_on_c, 0, 37, 59
3, 83680, Note_on_c, 0, 37, 0
3, 83680, Note_on_c, 0, 25, 0
3, 83680, Note_on_c, 0, 44, 31
3, 83680, Note_on_c, 0, 49, 38
3, 83760, Note_on_c, 0, 49, 0
3, 83760, Note_on_c, 0, 44, 0
3, 83760, Note_on_c, 0, 56, 44
3, 83840, Note_on_c, 0, 56, 0
3, 83840, Note_on_c, 0, 51, 31
3, 83840, Note_on_c, 0, 56, 38
3, 83920, Note_on_c, 0, 56, 0
3, 83920, Note_on_c, 0, 51, 0
3, 83920, Note_on_c, 0, 53, 51
3, 84000, Note_on_c, 0, 53, 0
3, 84000, Note_on_c, 0, 53, 57
3, 84000, Note_on_c, 0, 61, 68
3, 84160, Note_on_c, 0, 61, 0
3, 84160, Note_on_c, 0, 53, 0
3, 84160, Note_on_c, 0, 32, 47
3, 84160, Note_on_c, 0, 44, 56
3, 84232, Note_on_c, 0, 44, 0
3, 84232, Note_on_c, 0, 32, 0
3, 84240, Note_on_c, 0, 32, 50
3, 84240, Note_on_c, 0, 44, 60
3, 84320, Note_on_c, 0, 44, 0
3, 84320, Note_on_c, 0, 32, 0
3, 84320, Note_on_c, 0, 49, 63
3, 84320, Note_on_c, 0, 37, 53
3, 84400, Note_on_c, 0, 37, 0
3, 84400, Note_on_c, 0, 49, 0
3, 84400, Note_on_c, 0, 44, 56
3, 84400, Note_on_c, 0, 56, 66
3, 84480, Note_on_c, 0, 56, 0
3, 84480, Note_on_c, 0, 44, 0
3, 84480, Note_on_c, 0, 44, 79
3, 84480, Note_on_c, 0, 56, 79
3, 84640, Note_on_c, 0, 56, 0
3, 84640, Note_on_c, 0, 52, 58
3, 84720, Note_on_c, 0, 52, 0
3, 84720, Note_on_c, 0, 53, 59
3, 84800, Note_on_c, 0, 53, 0
3, 84800, Note_on_c, 0, 54, 60
3, 84880, Note_on_c, 0, 54, 0
3, 84880, Note_on_c, 0, 55, 60
3, 84960, Note_on_c, 0, 55, 0
3, 84960, Note_on_c, 0, 44, 0
3, 84960, Note_on_c, 0, 47, 72
3, 84960, Note_on_c, 0, 56, 61
3, 85040, Note_on_c, 0, 56, 0
3, 85040, Note_on_c, 0, 57, 61
3, 85120, Note_on_c, 0, 57, 0
3, 85120, Note_on_c, 0, 58, 62
3, 85200, Note_on_c, 0, 58, 0
3, 85200, Note_on_c, 0, 47, 0
3, 85200, Note_on_c, 0, 53, 72
3, 85200, Note_on_c, 0, 59, 63
3, 85280, Note_on_c, 0, 59, 0
3, 85280, Note_on_c, 0, 60, 63
3, 85360, Note_on_c, 0, 60, 0
3, 85360, Note_on_c, 0, 61, 59
3, 85440, Note_on_c, 0, 61, 0
3, 85440, Note_on_c, 0, 53, 0
3, 85440, Note_on_c, 0, 25, 47
3, 85440, Note_on_c, 0, 37, 59
3, 85600, Note_on_c, 0, 37, 0
3, 85600, Note_on_c, 0, 25, 0
3, 85600, Note_on_c, 0, 46, 31
3, 85600, Note_on_c, 0, 54, 38
3, 85680, Note_on_c, 0, 54, 0
3, 85680, Note_on_c, 0, 46, 0
3, 85680, Note_on_c, 0, 61, 44
3, 85760, Note_on_c, 0, 61, 0
3, 85760, Note_on_c, 0, 61, 38
3, 85760, Note_on_c, 0, 56, 31
3, 85840, Note_on_c, 0, 56, 0
3, 85840, Note_on_c, 0, 61, 0
3, 85840, Note_on_c, 0, 58, 51
3, 85920, Note_on_c, 0, 58, 0
3, 85920, Note_on_c, 0, 61, 57
3, 85920, Note_on_c, 0, 58, 57
3, 85920, Note_on_c, 0, 66, 68
3, 86080, Note_on_c, 0, 66, 0
3, 86080, Note_on_c, 0, 58, 0
3, 86080, Note_on_c, 0, 61, 0
3, 86080, Note_on_c, 0, 37, 47
3, 86080, Note_on_c, 0, 49, 56
3, 86152, Note_on_c, 0, 49, 0
3, 86152, Note_on_c, 0, 37, 0
3, 86160, Note_on_c, 0, 37, 50
3, 86160, Note_on_c, 0, 49, 60
3, 86240, Note_on_c, 0, 49, 0
3, 86240, Note_on_c, 0, 37, 0
3, 86240, Note_on_c, 0, 42, 53
3, 86240, Note_on_c, 0, 54, 63
3, 86320, Note_on_c, 0, 54, 0
3, 86320, Note_on_c, 0, 42, 0
3, 86320, Note_on_c, 0, 49, 56
3, 86320, Note_on_c, 0, 61, 66
3, 86400, Note_on_c, 0, 61, 0
3, 86400, Note_on_c, 0, 49, 0
3, 86400, Note_on_c, 0, 49, 79
3, 86400, Note_on_c, 0, 61, 79
3, 86560, Note_on_c, 0, 61, 0
3, 86560, Note_on_c, 0, 49, 0
3, 86560, Note_on_c, 0, 44, 58
3, 86640, Note_on_c, 0, 44, 0
3, 86640, Note_on_c, 0, 37, 72
3, 86640, Note_on_c, 0, 46, 59
3, 86720, Note_on_c, 0, 46, 0
3, 86720, Note_on_c, 0, 48, 60
3, 86800, Note_on_c, 0, 48, 0
3, 86800, Note_on_c, 0, 49, 60
3, 86880, Note_on_c, 0, 49, 0
3, 86880, Note_on_c, 0, 37, 0
3, 86880, Note_on_c, 0, 46, 72
3, 86880, Note_on_c, 0, 51, 61
3, 86960, Note_on_c, 0, 51, 0
3, 86960, Note_on_c, 0, 53, 61
3, 87040, Note_on_c, 0, 53, 0
3, 87040, Note_on_c, 0, 54, 62
3, 87120, Note_on_c, 0, 54, 0
3, 87120, Note_on_c, 0, 46, 0
3, 87120, Note_on_c, 0, 47, 72
3, 87120, Note_on_c, 0, 50, 72
3, 87120, Note_on_c, 0, 56, 63
3, 87200, Note_on_c, 0, 56, 0
3, 87200, Note_on_c, 0, 57, 63
3, 87280, Note_on_c, 0, 57, 0
3, 87280, Note_on_c, 0, 59, 59
3, 87360, Note_on_c, 0, 59, 0
3, 87360, Note_on_c, 0, 50, 0
3, 87360, Note_on_c, 0, 47, 0
3, 87360, Note_on_c, 0, 25, 47
3, 87360, Note_on_c, 0, 37, 59
3, 87520, Note_on_c, 0, 37, 0
3, 87520, Note_on_c, 0, 25, 0
3, 87520, Note_on_c, 0, 44, 31
3, 87520, Note_on_c, 0, 49, 31
3, 87520, Note_on_c, 0, 56, 38
3, 87592, Note_on_c, 0, 56, 0
3, 87592, Note_on_c, 0, 49, 0
3, 87592, Note_on_c, 0, 44, 0
3, 87600, Note_on_c, 0, 44, 44
3, 87600, Note_on_c, 0, 49, 44
3, 87600, Note_on_c, 0, 56, 44
3, 87680, Note_on_c, 0, 56, 0
3, 87680, Note_on_c, 0, 49, 0
3, 87680, Note_on_c, 0, 44, 0
3, 87680, Note_on_c, 0, 51, 44
3, 87680, Note_on_c, 0, 63, 38
3, 87680, Note_on_c, 0, 56, 31
3, 87760, Note_on_c, 0, 56, 0
3, 87760, Note_on_c, 0, 63, 0
3, 87760, Note_on_c, 0, 51, 0
3, 87760, Note_on_c, 0, 53, 44
3, 87760, Note_on_c, 0, 65, 51
3, 87840, Note_on_c, 0, 65, 0
3, 87840, Note_on_c, 0, 53, 0
3, 87840, Note_on_c, 0, 56, 57
3, 87840, Note_on_c, 0, 53, 57
3, 87840, Note_on_c, 0, 65, 68
3, 88000, Note_on_c, 0, 65, 0
3, 88000, Note_on_c, 0, 53, 0
3, 88000, Note_on_c, 0, 56, 0
3, 88000, Note_on_c, 0, 37, 56
3, 88080, Note_on_c, 0, 37, 0
3, 88080, Note_on_c, 0, 44, 60
3, 88160, Note_on_c, 0, 44, 0
3, 88160, Note_on_c, 0, 53, 63
3, 88240, Note_on_c, 0, 53, 0
3, 88240, Note_on_c, 0, 56, 66
3, 88319, Note_on_c, 0, 56, 0
3, 88320, Note_on_c, 0, 53, 67
3, 88320, Note_on_c, 0, 56, 68
3, 88320, Note_on_c, 0, 60, 79
3, 88480, Note_on_c, 0, 60, 0
3, 88480, Note_on_c, 0, 56, 0
3, 88480, Note_on_c, 0, 53, 0
3, 88480, Note_on_c, 0, 44, 70
3, 88560, Note_on_c, 0, 44, 0
3, 88560, Note_on_c, 0, 45, 53
3, 88560, Note_on_c, 0, 49, 53
3, 88560, Note_on_c, 0, 53, 54
3, 88560, Note_on_c, 0, 59, 63
3, 88720, Note_on_c, 0, 59, 0
3, 88720, Note_on_c, 0, 45, 0
3, 88720, Note_on_c, 0, 49, 0
3, 88720, Note_on_c, 0, 53, 0
3, 88720, Note_on_c, 0, 37, 70
3, 88800, Note_on_c, 0, 37, 0
3, 88800, Note_on_c, 0, 46, 53
3, 88800, Note_on_c, 0, 49, 53
3, 88800, Note_on_c, 0, 54, 54
3, 88800, Note_on_c, 0, 58, 63
3, 88960, Note_on_c, 0, 58, 0
3, 88960, Note_on_c, 0, 46, 0
3, 88960, Note_on_c, 0, 49, 0
3, 88960, Note_on_c, 0, 54, 0
3, 88960, Note_on_c, 0, 37, 70
3, 89040, Note_on_c, 0, 37, 0
3, 89040, Note_on_c, 0, 48, 53
3, 89040, Note_on_c, 0, 53, 54
3, 89040, Note_on_c, 0, 57, 63
3, 89200, Note_on_c, 0, 57, 0
3, 89200, Note_on_c, 0, 53, 0
3, 89200, Note_on_c, 0, 48, 0
3, 89200, Note_on_c, 0, 37, 70
3, 89280, Note_on_c, 0, 37, 0
3, 89280, Note_on_c, 0, 25, 47
3, 89280, Note_on_c, 0, 37, 59
3, 89440, Note_on_c, 0, 37, 0
3, 89440, Note_on_c, 0, 25, 0
3, 89440, Note_on_c, 0, 44, 31
3, 89440, Note_on_c, 0, 49, 31
3, 89440, Note_on_c, 0, 56, 38
3, 89512, Note_on_c, 0, 56, 0
3, 89512, Note_on_c, 0, 49, 0
3, 89512, Note_on_c, 0, 44, 0
3, 89520, Note_on_c, 0, 44, 44
3, 89520, Note_on_c, 0, 49, 44
3, 89520, Note_on_c, 0, 56, 44
3, 89600, Note_on_c, 0, 56, 0
3, 89600, Note_on_c, 0, 49, 0
3, 89600, Note_on_c, 0, 44, 0
3, 89600, Note_on_c, 0, 51, 44
3, 89600, Note_on_c, 0, 63, 38
3, 89600, Note_on_c, 0, 56, 31
3, 89680, Note_on_c, 0, 56, 0
3, 89680, Note_on_c, 0, 63, 0
3, 89680, Note_on_c, 0, 51, 0
3, 89680, Note_on_c, 0, 53, 44
3, 89680, Note_on_c, 0, 65, 51
3, 89760, Note_on_c, 0, 65, 0
3, 89760, Note_on_c, 0, 53, 0
3, 89760, Note_on_c, 0, 56, 57
3, 89760, Note_on_c, 0, 53, 57
3, 89760, Note_on_c, 0, 65, 68
3, 89920, Note_on_c, 0, 65, 0
3, 89920, Note_on_c, 0, 53, 0
3, 89920, Note_on_c, 0, 56, 0
3, 89920, Note_on_c, 0, 37, 56
3, 90000, Note_on_c, 0, 37, 0
3, 90000, Note_on_c, 0, 44, 60
3, 90080, Note_on_c, 0, 44, 0
3, 90080, Note_on_c, 0, 53, 63
3, 90160, Note_on_c, 0, 53, 0
3, 90160, Note_on_c, 0, 56, 66
3, 90239, Note_on_c, 0, 56, 0
3, 90240, Note_on_c, 0, 53, 67
3, 90240, Note_on_c, 0, 56, 68
3, 90240, Note_on_c, 0, 63, 79
3, 90400, Note_on_c, 0, 63, 0
3, 90400, Note_on_c, 0, 56, 0
3, 90400, Note_on_c, 0, 53, 0
3, 90400, Note_on_c, 0, 44, 70
3, 90480, Note_on_c, 0, 44, 0
3, 90480, Note_on_c, 0, 53, 54
3, 90480, Note_on_c, 0, 62, 63
3, 90640, Note_on_c, 0, 62, 0
3, 90640, Note_on_c, 0, 53, 0
3, 90640, Note_on_c, 0, 37, 70
3, 90720, Note_on_c, 0, 37, 0
3, 90720, Note_on_c, 0, 53, 54
3, 90720, Note_on_c, 0, 61, 63
3, 90880, Note_on_c, 0, 61, 0
3, 90880, Note_on_c, 0, 53, 0
3, 90880, Note_on_c, 0, 44, 70
3, 90960, Note_on_c, 0, 44, 0
3, 90960, Note_on_c, 0, 53, 53
3, 90960, Note_on_c, 0, 59, 54
3, 90960, Note_on_c, 0, 61, 63
3, 91120, Note_on_c, 0, 61, 0
3, 91120, Note_on_c, 0, 59, 0
3, 91120, Note_on_c, 0, 53, 0
3, 91120, Note_on_c, 0, 49, 70
3, 91200, Note_on_c, 0, 49, 0
3, 91200, Note_on_c, 0, 25, 47
3, 91200, Note_on_c, 0, 37, 59
3, 91360, Note_on_c, 0, 37, 0
3, 91360, Note_on_c, 0, 25, 0
3, 91360, Note_on_c, 0, 42, 31
3, 91360, Note_on_c, 0, 54, 38
3, 91440, Note_on_c, 0, 54, 0
3, 91440, Note_on_c, 0, 42, 0
3, 91440, Note_on_c, 0, 61, 44
3, 91520, Note_on_c, 0, 61, 0
3, 91520, Note_on_c, 0, 56, 44
3, 91520, Note_on_c, 0, 68, 38
3, 91520, Note_on_c, 0, 61, 31
3, 91600, Note_on_c, 0, 61, 0
3, 91600, Note_on_c, 0, 68, 0
3, 91600, Note_on_c, 0, 56, 0
3, 91600, Note_on_c, 0, 58, 44
3, 91600, Note_on_c, 0, 70, 51
3, 91672, Note_on_c, 0, 70, 0
3, 91672, Note_on_c, 0, 58, 0
3, 91680, Note_on_c, 0, 58, 57
3, 91680, Note_on_c, 0, 66, 57
3, 91680, Note_on_c, 0, 61, 57
3, 91680, Note_on_c, 0, 70, 68
3, 91840, Note_on_c, 0, 70, 0
3, 91840, Note_on_c, 0, 61, 0
3, 91840, Note_on_c, 0, 66, 0
3, 91840, Note_on_c, 0, 46, 56
3, 91860, Note_on_c, 0, 58, 0
3, 91920, Note_on_c, 0, 46, 0
3, 91920, Note_on_c, 0, 54, 60
3, 92000, Note_on_c, 0, 54, 0
3, 92000, Note_on_c, 0, 61, 63
3, 92072, Note_on_c, 0, 61, 0
3, 92080, Note_on_c, 0, 61, 66
3, 92160, Note_on_c, 0, 54, 67
3, 92160, Note_on_c, 0, 58, 67
3, 92160, Note_on_c, 0, 65, 79
3, 92320, Note_on_c, 0, 65, 0
3, 92320, Note_on_c, 0, 61, 0
3, 92320, Note_on_c, 0, 54, 0
3, 92320, Note_on_c, 0, 58, 0
3, 92320, Note_on_c, 0, 49, 70
3, 92400, Note_on_c, 0, 49, 0
3, 92400, Note_on_c, 0, 54, 54
3, 92400, Note_on_c, 0, 58, 54
3, 92400, Note_on_c, 0, 64, 63
3, 92560, Note_on_c, 0, 64, 0
3, 92560, Note_on_c, 0, 58, 0
3, 92560, Note_on_c, 0, 54, 0
3, 92560, Note_on_c, 0, 46, 70
3, 92640, Note_on_c, 0, 46, 0
3, 92640, Note_on_c, 0, 54, 54
3, 92640, Note_on_c, 0, 58, 54
3, 92640, Note_on_c, 0, 63, 63
3, 92800, Note_on_c, 0, 63, 0
3, 92800, Note_on_c, 0, 58, 0
3, 92800, Note_on_c, 0, 54, 0
3, 92800, Note_on_c, 0, 42, 70
3, 92880, Note_on_c, 0, 42, 0
3, 92880, Note_on_c, 0, 54, 53
3, 92880, Note_on_c, 0, 58, 54
3, 92880, Note_on_c, 0, 62, 63
3, 93040, Note_on_c, 0, 62, 0
3, 93040, Note_on_c, 0, 58, 0
3, 93040, Note_on_c, 0, 54, 0
3, 93040, Note_on_c, 0, 37, 81
3, 93120, Note_on_c, 0, 25, 47
3, 93280, Note_on_c, 0, 25, 0
3, 93280, Note_on_c, 0, 37, 0
3, 93280, Note_on_c, 0, 52, 31
3, 93280, Note_on_c, 0, 45, 31
3, 93280, Note_on_c, 0, 57, 38
3, 93352, Note_on_c, 0, 57, 0
3, 93352, Note_on_c, 0, 45, 0
3, 93352, Note_on_c, 0, 52, 0
3, 93360, Note_on_c, 0, 45, 39
3, 93360, Note_on_c, 0, 52, 40
3, 93360, Note_on_c, 0, 57, 44
3, 93440, Note_on_c, 0, 57, 0
3, 93440, Note_on_c, 0, 52, 0
3, 93440, Note_on_c, 0, 45, 0
3, 93440, Note_on_c, 0, 56, 44
3, 93440, Note_on_c, 0, 68, 38
3, 93440, Note_on_c, 0, 61, 31
3, 93520, Note_on_c, 0, 61, 0
3, 93520, Note_on_c, 0, 68, 0
3, 93520, Note_on_c, 0, 56, 0
3, 93520, Note_on_c, 0, 57, 44
3, 93520, Note_on_c, 0, 69, 51
3, 93600, Note_on_c, 0, 69, 0
3, 93600, Note_on_c, 0, 57, 0
3, 93600, Note_on_c, 0, 57, 57
3, 93600, Note_on_c, 0, 64, 57
3, 93600, Note_on_c, 0, 61, 57
3, 93600, Note_on_c, 0, 69, 68
3, 93760, Note_on_c, 0, 69, 0
3, 93760, Note_on_c, 0, 61, 0
3, 93760, Note_on_c, 0, 64, 0
3, 93760, Note_on_c, 0, 37, 52
3, 93760, Note_on_c, 0, 45, 56
3, 93780, Note_on_c, 0, 57, 0
3, 93840, Note_on_c, 0, 45, 0
3, 93840, Note_on_c, 0, 37, 0
3, 93840, Note_on_c, 0, 52, 60
3, 93920, Note_on_c, 0, 52, 0
3, 93920, Note_on_c, 0, 57, 63
3, 94000, Note_on_c, 0, 57, 0
3, 94000, Note_on_c, 0, 61, 66
3, 94080, Note_on_c, 0, 56, 50
3, 94080, Note_on_c, 0, 57, 67
3, 94080, Note_on_c, 0, 68, 79
3, 94240, Note_on_c, 0, 68, 0
3, 94240, Note_on_c, 0, 61, 0
3, 94240, Note_on_c, 0, 56, 0
3, 94240, Note_on_c, 0, 57, 0
3, 94240, Note_on_c, 0, 52, 70
3, 94320, Note_on_c, 0, 52, 0
3, 94320, Note_on_c, 0, 61, 54
3, 94320, Note_on_c, 0, 55, 54
3, 94320, Note_on_c, 0, 57, 54
3, 94320, Note_on_c, 0, 67, 63
3, 94480, Note_on_c, 0, 67, 0
3, 94480, Note_on_c, 0, 61, 0
3, 94480, Note_on_c, 0, 55, 0
3, 94480, Note_on_c, 0, 57, 0
3, 94480, Note_on_c, 0, 49, 70
3, 94560, Note_on_c, 0, 49, 0
3, 94560, Note_on_c, 0, 56, 54
3, 94560, Note_on_c, 0, 54, 54
3, 94560, Note_on_c, 0, 59, 54
3, 94560, Note_on_c, 0, 66, 63
3, 94720, Note_on_c, 0, 66, 0
3, 94720, Note_on_c, 0, 56, 0
3, 94720, Note_on_c, 0, 54, 0
3, 94720, Note_on_c, 0, 59, 0
3, 94720, Note_on_c, 0, 44, 70
3, 94800, Note_on_c, 0, 44, 0
3, 94800, Note_on_c, 0, 56, 53
3, 94800, Note_on_c, 0, 54, 53
3, 94800, Note_on_c, 0, 59, 54
3, 94800, Note_on_c, 0, 66, 63
3, 94919, Note_on_c, 0, 66, 0
3, 94919, Note_on_c, 0, 56, 0
3, 94919, Note_on_c, 0, 54, 0
3, 94919, Note_on_c, 0, 59, 0
3, 94920, Note_on_c, 0, 54, 51
3, 94920, Note_on_c, 0, 56, 51
3, 94920, Note_on_c, 0, 60, 52
3, 94920, Note_on_c, 0, 66, 61
3, 95039, Note_on_c, 0, 66, 0
3, 95039, Note_on_c, 0, 54, 0
3, 95039, Note_on_c, 0, 56, 0
3, 95039, Note_on_c, 0, 60, 0
3, 95040, Note_on_c, 0, 25, 72
3, 95040, Note_on_c, 0, 37, 85
3, 95200, Note_on_c, 0, 37, 0
3, 95200, Note_on_c, 0, 25, 0
3, 95200, Note_on_c, 0, 44, 47
3, 95200, Note_on_c, 0, 53, 56
3, 95280, Note_on_c, 0, 53, 0
3, 95280, Note_on_c, 0, 44, 0
3, 95280, Note_on_c, 0, 53, 60
3, 95280, Note_on_c, 0, 56, 60
3, 95280, Note_on_c, 0, 65, 71
3, 95440, Note_on_c, 0, 65, 0
3, 95440, Note_on_c, 0, 56, 0
3, 95440, Note_on_c, 0, 53, 0
3, 95440, Note_on_c, 0, 53, 63
3, 95520, Note_on_c, 0, 53, 0
3, 95520, Note_on_c, 0, 56, 63
3, 95520, Note_on_c, 0, 63, 63
3, 95520, Note_on_c, 0, 65, 75
3, 95680, Note_on_c, 0, 65, 0
3, 95680, Note_on_c, 0, 63, 0
3, 95680, Note_on_c, 0, 56, 0
3, 95680, Note_on_c, 0, 53, 64
3, 95760, Note_on_c, 0, 53, 0
3, 95760, Note_on_c, 0, 56, 62
3, 95760, Note_on_c, 0, 62, 62
3, 95760, Note_on_c, 0, 65, 73
3, 95920, Note_on_c, 0, 65, 0
3, 95920, Note_on_c, 0, 62, 0
3, 95920, Note_on_c, 0, 56, 0
3, 95920, Note_on_c, 0, 44, 56
3, 95920, Note_on_c, 0, 55, 67
3, 96000, Note_on_c, 0, 55, 0
3, 96000, Note_on_c, 0, 44, 0
3, 96000, Note_on_c, 0, 65, 56
3, 96000, Note_on_c, 0, 58, 56
3, 96000, Note_on_c, 0, 61, 56
3, 96000, Note_on_c, 0, 70, 67
3, 96160, Note_on_c, 0, 70, 0
3, 96160, Note_on_c, 0, 65, 0
3, 96160, Note_on_c, 0, 58, 0
3, 96160, Note_on_c, 0, 61, 0
3, 96160, Note_on_c, 0, 56, 61
3, 96240, Note_on_c, 0, 56, 0
3, 96240, Note_on_c, 0, 61, 59
3, 96240, Note_on_c, 0, 65, 70
3, 96400, Note_on_c, 0, 65, 0
3, 96400, Note_on_c, 0, 61, 0
3, 96400, Note_on_c, 0, 58, 59
3, 96480, Note_on_c, 0, 58, 0
3, 96480, Note_on_c, 0, 61, 60
3, 96480, Note_on_c, 0, 65, 71
3, 96640, Note_on_c, 0, 65, 0
3, 96640, Note_on_c, 0, 61, 0
3, 96640, Note_on_c, 0, 44, 49
3, 96640, Note_on_c, 0, 54, 60
3, 96720, Note_on_c, 0, 54, 0
3, 96720, Note_on_c, 0, 44, 0
3, 96720, Note_on_c, 0, 56, 45
3, 96720, Note_on_c, 0, 60, 45
3, 96720, Note_on_c, 0, 63, 45
3, 96720, Note_on_c, 0, 68, 53
3, 96880, Note_on_c, 0, 68, 0
3, 96880, Note_on_c, 0, 56, 0
3, 96880, Note_on_c, 0, 60, 0
3, 96880, Note_on_c, 0, 63, 0
3, 96880, Note_on_c, 0, 25, 63
3, 96880, Note_on_c, 0, 37, 70
3, 96940, Note_on_c, 0, 25, 0
3, 96960, Note_on_c, 0, 37, 0
3, 96960, Note_on_c, 0, 44, 66
3, 96960, Note_on_c, 0, 53, 66
3, 96960, Note_on_c, 0, 61, 78
3, 97120, Note_on_c, 0, 61, 0
3, 97120, Note_on_c, 0, 53, 0
3, 97120, Note_on_c, 0, 44, 0
3, 97120, Note_on_c, 0, 53, 56
3, 97200, Note_on_c, 0, 53, 0
3, 97200, Note_on_c, 0, 56, 60
3, 97200, Note_on_c, 0, 65, 71
3, 97360, Note_on_c, 0, 65, 0
3, 97360, Note_on_c, 0, 56, 0
3, 97360, Note_on_c, 0, 53, 63
3, 97440, Note_on_c, 0, 53, 0
3, 97440, Note_on_c, 0, 56, 63
3, 97440, Note_on_c, 0, 63, 75
3, 97440, Note_on_c, 0, 65, 75
3, 97600, Note_on_c, 0, 65, 0
3, 97600, Note_on_c, 0, 63, 0
3, 97600, Note_on_c, 0, 56, 0
3, 97600, Note_on_c, 0, 53, 64
3, 97680, Note_on_c, 0, 53, 0
3, 97680, Note_on_c, 0, 56, 62
3, 97680, Note_on_c, 0, 62, 73
3, 97680, Note_on_c, 0, 65, 73
3, 97840, Note_on_c, 0, 65, 0
3, 97840, Note_on_c, 0, 62, 0
3, 97840, Note_on_c, 0, 56, 0
3, 97840, Note_on_c, 0, 44, 67
3, 97840, Note_on_c, 0, 55, 67
3, 97920, Note_on_c, 0, 55, 0
3, 97920, Note_on_c, 0, 44, 0
3, 97920, Note_on_c, 0, 65, 56
3, 97920, Note_on_c, 0, 58, 56
3, 97920, Note_on_c, 0, 61, 56
3, 97920, Note_on_c, 0, 70, 67
3, 98080, Note_on_c, 0, 70, 0
3, 98080, Note_on_c, 0, 65, 0
3, 98080, Note_on_c, 0, 58, 0
3, 98080, Note_on_c, 0, 61, 0
3, 98080, Note_on_c, 0, 56, 61
3, 98160, Note_on_c, 0, 56, 0
3, 98160, Note_on_c, 0, 61, 70
3, 98160, Note_on_c, 0, 65, 70
3, 98320, Note_on_c, 0, 65, 0
3, 98320, Note_on_c, 0, 61, 0
3, 98320, Note_on_c, 0, 58, 59
3, 98400, Note_on_c, 0, 58, 0
3, 98400, Note_on_c, 0, 58, 71
3, 98400, Note_on_c, 0, 61, 71
3, 98560, Note_on_c, 0, 61, 0
3, 98560, Note_on_c, 0, 58, 0
3, 98560, Note_on_c, 0, 44, 55
3, 98560, Note_on_c, 0, 54, 65
3, 98640, Note_on_c, 0, 54, 0
3, 98640, Note_on_c, 0, 44, 0
3, 98640, Note_on_c, 0, 56, 45
3, 98640, Note_on_c, 0, 60, 45
3, 98640, Note_on_c, 0, 63, 45
3, 98640, Note_on_c, 0, 68, 53
3, 98800, Note_on_c, 0, 68, 0
3, 98800, Note_on_c, 0, 56, 0
3, 98800, Note_on_c, 0, 60, 0
3, 98800, Note_on_c, 0, 63, 0
3, 98800, Note_on_c, 0, 25, 63
3, 98800, Note_on_c, 0, 37, 70
3, 98880, Note_on_c, 0, 37, 0
3, 98880, Note_on_c, 0, 25, 0
3, 98880, Note_on_c, 0, 44, 57
3, 98880, Note_on_c, 0, 53, 57
3, 98880, Note_on_c, 0, 61, 68
3, 99240, Note_on_c, 0, 61, 0
3, 99240, Note_on_c, 0, 53, 0
3, 99240, Note_on_c, 0, 44, 0
3, 99240, Note_on_c, 0, 65, 59
3, 99360, Note_on_c, 0, 73, 71
3, 99480, Note_on_c, 0, 56, 57
3, 99720, Note_on_c, 0, 73, 0
3, 99720, Note_on_c, 0, 72, 59
3, 99840, Note_on_c, 0, 72, 0
3, 99840, Note_on_c, 0, 56, 0
3, 99840, Note_on_c, 0, 65, 0
3, 99840, Note_on_c, 0, 56, 56
3, 99840, Note_on_c, 0, 60, 56
3, 99840, Note_on_c, 0, 64, 67
3, 99960, Note_on_c, 0, 37, 54
3, 99960, Note_on_c, 0, 44, 54
3, 100080, Note_on_c, 0, 44, 0
3, 100080, Note_on_c, 0, 37, 0
3, 100080, Note_on_c, 0, 52, 58
3, 100200, Note_on_c, 0, 52, 0
3, 100200, Note_on_c, 0, 55, 61
3, 100320, Note_on_c, 0, 55, 0
3, 100320, Note_on_c, 0, 56, 0
3, 100320, Note_on_c, 0, 60, 0
3, 100320, Note_on_c, 0, 64, 0
3, 100320, Note_on_c, 0, 60, 59
3, 100320, Note_on_c, 0, 63, 59
3, 100320, Note_on_c, 0, 72, 67
3, 100440, Note_on_c, 0, 54, 59
3, 100680, Note_on_c, 0, 72, 0
3, 100680, Note_on_c, 0, 63, 0
3, 100680, Note_on_c, 0, 70, 61
3, 100800, Note_on_c, 0, 70, 0
3, 100800, Note_on_c, 0, 60, 0
3, 100800, Note_on_c, 0, 54, 0
3, 100800, Note_on_c, 0, 53, 56
3, 100800, Note_on_c, 0, 59, 56
3, 100800, Note_on_c, 0, 62, 67
3, 100920, Note_on_c, 0, 37, 54
3, 100920, Note_on_c, 0, 44, 54
3, 101040, Note_on_c, 0, 44, 0
3, 101040, Note_on_c, 0, 37, 0
3, 101040, Note_on_c, 0, 53, 58
3, 101160, Note_on_c, 0, 53, 0
3, 101160, Note_on_c, 0, 59, 61
3, 101280, Note_on_c, 0, 62, 0
3, 101280, Note_on_c, 0, 53, 0
3, 101280, Note_on_c, 0, 59, 0
3, 101280, Note_on_c, 0, 61, 59
3, 101280, Note_on_c, 0, 65, 59
3, 101280, Note_on_c, 0, 70, 67
3, 101400, Note_on_c, 0, 59, 0
3, 101400, Note_on_c, 0, 49, 59
3, 101640, Note_on_c, 0, 70, 0
3, 101640, Note_on_c, 0, 65, 0
3, 101640, Note_on_c, 0, 68, 61
3, 101760, Note_on_c, 0, 68, 0
3, 101760, Note_on_c, 0, 61, 0
3, 101760, Note_on_c, 0, 49, 0
3, 101760, Note_on_c, 0, 55, 56
3, 101760, Note_on_c, 0, 58, 67
3, 101880, Note_on_c, 0, 37, 54
3, 102000, Note_on_c, 0, 37, 0
3, 102000, Note_on_c, 0, 46, 58
3, 102120, Note_on_c, 0, 46, 0
3, 102120, Note_on_c, 0, 54, 61
3, 102240, Note_on_c, 0, 54, 0
3, 102240, Note_on_c, 0, 58, 0
3, 102240, Note_on_c, 0, 55, 0
3, 102240, Note_on_c, 0, 54, 61
3, 102240, Note_on_c, 0, 56, 59
3, 102240, Note_on_c, 0, 60, 59
3, 102240, Note_on_c, 0, 68, 67
3, 102360, Note_on_c, 0, 54, 0
3, 102360, Note_on_c, 0, 44, 59
3, 102600, Note_on_c, 0, 68, 0
3, 102600, Note_on_c, 0, 60, 0
3, 102600, Note_on_c, 0, 66, 61
3, 102720, Note_on_c, 0, 66, 0
3, 102720, Note_on_c, 0, 56, 0
3, 102720, Note_on_c, 0, 44, 0
3, 102720, Note_on_c, 0, 53, 56
3, 102720, Note_on_c, 0, 56, 67
3, 102840, Note_on_c, 0, 44, 54
3, 102840, Note_on_c, 0, 37, 54
3, 102960, Note_on_c, 0, 37, 0
3, 102960, Note_on_c, 0, 44, 0
3, 102960, Note_on_c, 0, 53, 57
3, 103080, Note_on_c, 0, 53, 0
3, 103080, Note_on_c, 0, 56, 59
3, 103200, Note_on_c, 0, 56, 0
3, 103200, Note_on_c, 0, 53, 0
3, 103200, Note_on_c, 0, 61, 57
3, 103200, Note_on_c, 0, 65, 64
3, 103320, Note_on_c, 0, 56, 0
3, 103320, Note_on_c, 0, 44, 57
3, 103560, Note_on_c, 0, 65, 0
3, 103560, Note_on_c, 0, 61, 0
3, 103560, Note_on_c, 0, 64, 57
3, 103680, Note_on_c, 0, 44, 0
3, 103680, Note_on_c, 0, 55, 52
3, 103800, Note_on_c, 0, 37, 50
3, 103920, Note_on_c, 0, 37, 0
3, 103920, Note_on_c, 0, 44, 53
3, 104040, Note_on_c, 0, 44, 0
3, 104040, Note_on_c, 0, 55, 56
3, 104160, Note_on_c, 0, 55, 0
3, 104160, Note_on_c, 0, 64, 0
3, 104160, Note_on_c, 0, 59, 53
3, 104160, Note_on_c, 0, 63, 60
3, 104280, Note_on_c, 0, 55, 0
3, 104280, Note_on_c, 0, 54, 49
3, 104400, Note_on_c, 0, 54, 0
3, 104400, Note_on_c, 0, 44, 53
3, 104520, Note_on_c, 0, 63, 0
3, 104520, Note_on_c, 0, 59, 0
3, 104520, Note_on_c, 0, 62, 54
3, 104640, Note_on_c, 0, 44, 0
3, 104640, Note_on_c, 0, 53, 49
3, 104760, Note_on_c, 0, 37, 46
3, 104880, Note_on_c, 0, 37, 0
3, 104880, Note_on_c, 0, 44, 49
3, 105000, Note_on_c, 0, 44, 0
3, 105000, Note_on_c, 0, 53, 52
3, 105120, Note_on_c, 0, 53, 0
3, 105120, Note_on_c, 0, 62, 0
3, 105120, Note_on_c, 0, 61, 56
3, 105240, Note_on_c, 0, 49, 46
3, 105360, Note_on_c, 0, 53, 0
3, 105480, Note_on_c, 0, 49, 0
3, 105480, Note_on_c, 0, 61, 0
3, 105480, Note_on_c, 0, 59, 50
3, 105600, Note_on_c, 0, 59, 0
3, 105600, Note_on_c, 0, 42, 45
3, 105600, Note_on_c, 0, 49, 50
3, 105720, Note_on_c, 0, 30, 43
3, 105840, Note_on_c, 0, 30, 0
3, 105840, Note_on_c, 0, 49, 46
3, 105960, Note_on_c, 0, 49, 0
3, 105960, Note_on_c, 0, 58, 48
3, 106080, Note_on_c, 0, 58, 0
3, 106080, Note_on_c, 0, 49, 0
3, 106080, Note_on_c, 0, 42, 0
3, 106080, Note_on_c, 0, 56, 52
3, 106080, Note_on_c, 0, 54, 52
3, 106200, Note_on_c, 0, 32, 42
3, 106440, Note_on_c, 0, 54, 0
3, 106440, Note_on_c, 0, 56, 0
3, 106440, Note_on_c, 0, 56, 46
3, 106560, Note_on_c, 0, 56, 0
3, 106560, Note_on_c, 0, 32, 0
3, 106560, Note_on_c, 0, 37, 39
3, 106560, Note_on_c, 0, 44, 46
3, 106720, Note_on_c, 0, 44, 0
3, 106720, Note_on_c, 0, 37, 0
3, 106720, Note_on_c, 0, 44, 39
3, 106800, Note_on_c, 0, 44, 0
3, 106800, Note_on_c, 0, 49, 41
3, 106880, Note_on_c, 0, 49, 0
3, 106880, Note_on_c, 0, 37, 33
3, 106880, Note_on_c, 0, 44, 39
3, 106960, Note_on_c, 0, 44, 0
3, 106960, Note_on_c, 0, 37, 0
3, 106960, Note_on_c, 0, 49, 39
3, 107040, Note_on_c, 0, 49, 0
3, 107040, Note_on_c, 0, 37, 37
3, 107040, Note_on_c, 0, 44, 44
3, 107200, Note_on_c, 0, 44, 0
3, 107200, Note_on_c, 0, 37, 0
3, 107200, Note_on_c, 0, 44, 38
3, 107200, Note_on_c, 0, 49, 38
3, 107280, Note_on_c, 0, 49, 0
3, 107280, Note_on_c, 0, 44, 0
3, 107280, Note_on_c, 0, 56, 38
3, 107360, Note_on_c, 0, 56, 0
3, 107360, Note_on_c, 0, 51, 29
3, 107360, Note_on_c, 0, 56, 35
3, 107440, Note_on_c, 0, 56, 0
3, 107440, Note_on_c, 0, 51, 0
3, 107440, Note_on_c, 0, 53, 35
3, 107480, Note_on_c, 0, 25, 65
3, 107480, Note_on_c, 0, 37, 65
3, 107520, Note_on_c, 0, 53, 0
3, 107520, Note_on_c, 0, 45, 44
3, 107520, Note_on_c, 0, 52, 44
3, 107520, Note_on_c, 0, 57, 52
3, 107680, Note_on_c, 0, 42, 37
3, 107680, Note_on_c, 0, 49, 37
3, 107680, Note_on_c, 0, 54, 44
3, 107720, Note_on_c, 0, 37, 0
3, 107720, Note_on_c, 0, 25, 0
3, 107760, Note_on_c, 0, 42, 0
3, 107760, Note_on_c, 0, 54, 0
3, 107760, Note_on_c, 0, 49, 0
3, 107760, Note_on_c, 0, 42, 37
3, 107760, Note_on_c, 0, 49, 37
3, 107760, Note_on_c, 0, 54, 44
3, 107824, Note_on_c, 0, 54, 0
3, 107824, Note_on_c, 0, 42, 0
3, 107824, Note_on_c, 0, 49, 0
3, 107840, Note_on_c, 0, 43, 41
3, 107840, Note_on_c, 0, 49, 41
3, 107840, Note_on_c, 0, 55, 49
3, 107904, Note_on_c, 0, 55, 0
3, 107904, Note_on_c, 0, 43, 0
3, 107904, Note_on_c, 0, 49, 0
3, 107920, Note_on_c, 0, 43, 37
3, 107920, Note_on_c, 0, 49, 37
3, 107920, Note_on_c, 0, 55, 44
3, 107984, Note_on_c, 0, 55, 0
3, 107984, Note_on_c, 0, 43, 0
3, 107984, Note_on_c, 0, 49, 0
3, 108000, Note_on_c, 0, 43, 37
3, 108000, Note_on_c, 0, 49, 37
3, 108000, Note_on_c, 0, 55, 44
3, 108064, Note_on_c, 0, 55, 0
3, 108064, Note_on_c, 0, 43, 0
3, 108064, Note_on_c, 0, 49, 0
3, 108080, Note_on_c, 0, 44, 41
3, 108080, Note_on_c, 0, 49, 41
3, 108080, Note_on_c, 0, 56, 49
3, 108144, Note_on_c, 0, 56, 0
3, 108144, Note_on_c, 0, 44, 0
3, 108144, Note_on_c, 0, 49, 0
3, 108160, Note_on_c, 0, 44, 36
3, 108160, Note_on_c, 0, 49, 36
3, 108160, Note_on_c, 0, 56, 42
3, 108224, Note_on_c, 0, 56, 0
3, 108224, Note_on_c, 0, 44, 0
3, 108224, Note_on_c, 0, 49, 0
3, 108240, Note_on_c, 0, 44, 36
3, 108240, Note_on_c, 0, 49, 36
3, 108240, Note_on_c, 0, 56, 42
3, 108304, Note_on_c, 0, 56, 0
3, 108304, Note_on_c, 0, 44, 0
3, 108304, Note_on_c, 0, 49, 0
3, 108320, Note_on_c, 0, 45, 41
3, 108320, Note_on_c, 0, 49, 41
3, 108320, Note_on_c, 0, 57, 49
3, 108384, Note_on_c, 0, 57, 0
3, 108384, Note_on_c, 0, 45, 0
3, 108384, Note_on_c, 0, 49, 0
3, 108400, Note_on_c, 0, 45, 37
3, 108400, Note_on_c, 0, 49, 37
3, 108400, Note_on_c, 0, 57, 44
3, 108440, Note_on_c, 0, 25, 71
3, 108440, Note_on_c, 0, 37, 71
3, 108464, Note_on_c, 0, 57, 0
3, 108464, Note_on_c, 0, 45, 0
3, 108464, Note_on_c, 0, 49, 0
3, 108480, Note_on_c, 0, 45, 0
3, 108480, Note_on_c, 0, 57, 0
3, 108480, Note_on_c, 0, 52, 0
3, 108480, Note_on_c, 0, 46, 48
3, 108480, Note_on_c, 0, 52, 48
3, 108480, Note_on_c, 0, 58, 57
3, 108640, Note_on_c, 0, 49, 40
3, 108640, Note_on_c, 0, 56, 40
3, 108640, Note_on_c, 0, 61, 48
3, 108680, Note_on_c, 0, 37, 0
3, 108680, Note_on_c, 0, 25, 0
3, 108720, Note_on_c, 0, 49, 0
3, 108720, Note_on_c, 0, 61, 0
3, 108720, Note_on_c, 0, 56, 0
3, 108720, Note_on_c, 0, 49, 40
3, 108720, Note_on_c, 0, 56, 40
3, 108720, Note_on_c, 0, 61, 48
3, 108780, Note_on_c, 0, 61, 0
3, 108780, Note_on_c, 0, 49, 0
3, 108780, Note_on_c, 0, 56, 0
3, 108800, Note_on_c, 0, 50, 45
3, 108800, Note_on_c, 0, 56, 45
3, 108800, Note_on_c, 0, 62, 53
3, 108860, Note_on_c, 0, 62, 0
3, 108860, Note_on_c, 0, 50, 0
3, 108860, Note_on_c, 0, 56, 0
3, 108880, Note_on_c, 0, 50, 40
3, 108880, Note_on_c, 0, 56, 40
3, 108880, Note_on_c, 0, 62, 48
3, 108940, Note_on_c, 0, 62, 0
3, 108940, Note_on_c, 0, 50, 0
3, 108940, Note_on_c, 0, 56, 0
3, 108960, Note_on_c, 0, 50, 40
3, 108960, Note_on_c, 0, 56, 40
3, 108960, Note_on_c, 0, 62, 48
3, 109020, Note_on_c, 0, 62, 0
3, 109020, Note_on_c, 0, 50, 0
3, 109020, Note_on_c, 0, 56, 0
3, 109040, Note_on_c, 0, 51, 45
3, 109040, Note_on_c, 0, 56, 45
3, 109040, Note_on_c, 0, 63, 53
3, 109100, Note_on_c, 0, 63, 0
3, 109100, Note_on_c, 0, 51, 0
3, 109100, Note_on_c, 0, 56, 0
3, 109120, Note_on_c, 0, 51, 39
3, 109120, Note_on_c, 0, 56, 39
3, 109120, Note_on_c, 0, 63, 46
3, 109180, Note_on_c, 0, 63, 0
3, 109180, Note_on_c, 0, 51, 0
3, 109180, Note_on_c, 0, 56, 0
3, 109200, Note_on_c, 0, 51, 39
3, 109200, Note_on_c, 0, 56, 39
3, 109200, Note_on_c, 0, 63, 46
3, 109260, Note_on_c, 0, 63, 0
3, 109260, Note_on_c, 0, 51, 0
3, 109260, Note_on_c, 0, 56, 0
3, 109280, Note_on_c, 0, 52, 45
3, 109280, Note_on_c, 0, 56, 45
3, 109280, Note_on_c, 0, 64, 53
3, 109340, Note_on_c, 0, 64, 0
3, 109340, Note_on_c, 0, 52, 0
3, 109340, Note_on_c, 0, 56, 0
3, 109360, Note_on_c, 0, 52, 40
3, 109360, Note_on_c, 0, 56, 40
3, 109360, Note_on_c, 0, 64, 48
3, 109400, Note_on_c, 0, 25, 78
3, 109400, Note_on_c, 0, 37, 78
3, 109420, Note_on_c, 0, 64, 0
3, 109420, Note_on_c, 0, 52, 0
3, 109420, Note_on_c, 0, 56, 0
3, 109440, Note_on_c, 0, 52, 0
3, 109440, Note_on_c, 0, 58, 0
3, 109440, Note_on_c, 0, 46, 0
3, 109440, Note_on_c, 0, 54, 52
3, 109440, Note_on_c, 0, 49, 52
3, 109440, Note_on_c, 0, 45, 52
3, 109440, Note_on_c, 0, 51, 52
3, 109440, Note_on_c, 0, 57, 62
3, 109600, Note_on_c, 0, 54, 42
3, 109600, Note_on_c, 0, 61, 42
3, 109600, Note_on_c, 0, 63, 42
3, 109600, Note_on_c, 0, 66, 50
3, 109650, Note_on_c, 0, 37, 0
3, 109650, Note_on_c, 0, 25, 0
3, 109660, Note_on_c, 0, 63, 0
3, 109660, Note_on_c, 0, 61, 0
3, 109660, Note_on_c, 0, 54, 0
3, 109660, Note_on_c, 0, 66, 0
3, 109680, Note_on_c, 0, 54, 42
3, 109680, Note_on_c, 0, 61, 42
3, 109680, Note_on_c, 0, 63, 42
3, 109680, Note_on_c, 0, 66, 50
3, 109740, Note_on_c, 0, 66, 0
3, 109740, Note_on_c, 0, 63, 0
3, 109740, Note_on_c, 0, 61, 0
3, 109740, Note_on_c, 0, 54, 0
3, 109760, Note_on_c, 0, 55, 43
3, 109760, Note_on_c, 0, 61, 48
3, 109760, Note_on_c, 0, 63, 48
3, 109760, Note_on_c, 0, 67, 57
3, 109820, Note_on_c, 0, 67, 0
3, 109820, Note_on_c, 0, 63, 0
3, 109820, Note_on_c, 0, 61, 0
3, 109820, Note_on_c, 0, 55, 0
3, 109840, Note_on_c, 0, 55, 43
3, 109840, Note_on_c, 0, 61, 43
3, 109840, Note_on_c, 0, 63, 43
3, 109840, Note_on_c, 0, 67, 51
3, 109900, Note_on_c, 0, 67, 0
3, 109900, Note_on_c, 0, 63, 0
3, 109900, Note_on_c, 0, 61, 0
3, 109900, Note_on_c, 0, 55, 0
3, 109920, Note_on_c, 0, 55, 44
3, 109920, Note_on_c, 0, 61, 44
3, 109920, Note_on_c, 0, 63, 44
3, 109920, Note_on_c, 0, 67, 52
3, 109980, Note_on_c, 0, 67, 0
3, 109980, Note_on_c, 0, 63, 0
3, 109980, Note_on_c, 0, 61, 0
3, 109980, Note_on_c, 0, 55, 0
3, 110000, Note_on_c, 0, 56, 44
3, 110000, Note_on_c, 0, 61, 50
3, 110000, Note_on_c, 0, 63, 50
3, 110000, Note_on_c, 0, 68, 59
3, 110060, Note_on_c, 0, 68, 0
3, 110060, Note_on_c, 0, 63, 0
3, 110060, Note_on_c, 0, 61, 0
3, 110060, Note_on_c, 0, 56, 0
3, 110080, Note_on_c, 0, 56, 45
3, 110080, Note_on_c, 0, 61, 44
3, 110080, Note_on_c, 0, 63, 44
3, 110080, Note_on_c, 0, 68, 52
3, 110140, Note_on_c, 0, 68, 0
3, 110140, Note_on_c, 0, 63, 0
3, 110140, Note_on_c, 0, 61, 0
3, 110140, Note_on_c, 0, 56, 0
3, 110160, Note_on_c, 0, 56, 45
3, 110160, Note_on_c, 0, 61, 44
3, 110160, Note_on_c, 0, 63, 44
3, 110160, Note_on_c, 0, 68, 52
3, 110220, Note_on_c, 0, 68, 0
3, 110220, Note_on_c, 0, 63, 0
3, 110220, Note_on_c, 0, 61, 0
3, 110220, Note_on_c, 0, 56, 0
3, 110240, Note_on_c, 0, 57, 46
3, 110240, Note_on_c, 0, 61, 52
3, 110240, Note_on_c, 0, 63, 52
3, 110240, Note_on_c, 0, 69, 61
3, 110300, Note_on_c, 0, 69, 0
3, 110300, Note_on_c, 0, 63, 0
3, 110300, Note_on_c, 0, 61, 0
3, 110300, Note_on_c, 0, 57, 0
3, 110320, Note_on_c, 0, 57, 46
3, 110320, Note_on_c, 0, 61, 46
3, 110320, Note_on_c, 0, 63, 46
3, 110320, Note_on_c, 0, 69, 55
3, 110360, Note_on_c, 0, 37, 78
3, 110360, Note_on_c, 0, 25, 78
3, 110380, Note_on_c, 0, 69, 0
3, 110380, Note_on_c, 0, 63, 0
3, 110380, Note_on_c, 0, 61, 0
3, 110380, Note_on_c, 0, 57, 0
3, 110400, Note_on_c, 0, 45, 0
3, 110400, Note_on_c, 0, 54, 0
3, 110400, Note_on_c, 0, 51, 0
3, 110400, Note_on_c, 0, 49, 0
3, 110400, Note_on_c, 0, 57, 0
3, 110400, Note_on_c, 0, 44, 52
3, 110400, Note_on_c, 0, 49, 52
3, 110400, Note_on_c, 0, 53, 52
3, 110400, Note_on_c, 0, 56, 62
3, 110560, Note_on_c, 0, 73, 51
3, 110560, Note_on_c, 0, 61, 43
3, 110600, Note_on_c, 0, 25, 0
3, 110600, Note_on_c, 0, 37, 0
3, 110620, Note_on_c, 0, 61, 0
3, 110620, Note_on_c, 0, 73, 0
3, 110640, Note_on_c, 0, 61, 47
3, 110640, Note_on_c, 0, 73, 56
3, 110640, Note_on_c, 0, 65, 47
3, 110700, Note_on_c, 0, 65, 0
3, 110700, Note_on_c, 0, 61, 0
3, 110700, Note_on_c, 0, 73, 0
3, 110720, Note_on_c, 0, 68, 53
3, 110720, Note_on_c, 0, 56, 44
3, 110780, Note_on_c, 0, 56, 0
3, 110780, Note_on_c, 0, 68, 0
3, 110800, Note_on_c, 0, 68, 53
3, 110800, Note_on_c, 0, 56, 44
3, 110860, Note_on_c, 0, 56, 0
3, 110860, Note_on_c, 0, 68, 0
3, 110880, Note_on_c, 0, 61, 47
3, 110880, Note_on_c, 0, 56, 47
3, 110880, Note_on_c, 0, 65, 47
3, 110880, Note_on_c, 0, 68, 56
3, 110940, Note_on_c, 0, 68, 0
3, 110940, Note_on_c, 0, 65, 0
3, 110940, Note_on_c, 0, 61, 0
3, 110940, Note_on_c, 0, 56, 0
3, 110960, Note_on_c, 0, 70, 51
3, 110960, Note_on_c, 0, 58, 43
3, 111020, Note_on_c, 0, 58, 0
3, 111020, Note_on_c, 0, 70, 0
3, 111040, Note_on_c, 0, 58, 43
3, 111040, Note_on_c, 0, 70, 51
3, 111100, Note_on_c, 0, 70, 0
3, 111100, Note_on_c, 0, 58, 0
3, 111120, Note_on_c, 0, 61, 47
3, 111120, Note_on_c, 0, 58, 47
3, 111120, Note_on_c, 0, 65, 47
3, 111120, Note_on_c, 0, 70, 56
3, 111180, Note_on_c, 0, 70, 0
3, 111180, Note_on_c, 0, 65, 0
3, 111180, Note_on_c, 0, 61, 0
3, 111180, Note_on_c, 0, 58, 0
3, 111200, Note_on_c, 0, 53, 44
3, 111200, Note_on_c, 0, 65, 52
3, 111260, Note_on_c, 0, 65, 0
3, 111260, Note_on_c, 0, 53, 0
3, 111280, Note_on_c, 0, 53, 44
3, 111280, Note_on_c, 0, 65, 52
3, 111340, Note_on_c, 0, 65, 0
3, 111340, Note_on_c, 0, 53, 0
3, 111360, Note_on_c, 0, 49, 0
3, 111360, Note_on_c, 0, 53, 0
3, 111360, Note_on_c, 0, 44, 0
3, 111360, Note_on_c, 0, 56, 0
3, 111360, Note_on_c, 0, 58, 47
3, 111360, Note_on_c, 0, 65, 56
3, 111360, Note_on_c, 0, 61, 47
3, 111360, Note_on_c, 0, 53, 47
3, 111420, Note_on_c, 0, 53, 0
3, 111420, Note_on_c, 0, 58, 0
3, 111420, Note_on_c, 0, 65, 0
3, 111420, Note_on_c, 0, 61, 0
3, 111440, Note_on_c, 0, 68, 51
3, 111440, Note_on_c, 0, 56, 43
3, 111500, Note_on_c, 0, 56, 0
3, 111500, Note_on_c, 0, 68, 0
3, 111520, Note_on_c, 0, 61, 51
3, 111520, Note_on_c, 0, 49, 43
3, 111580, Note_on_c, 0, 49, 0
3, 111580, Note_on_c, 0, 61, 0
3, 111600, Note_on_c, 0, 61, 56
3, 111600, Note_on_c, 0, 56, 47
3, 111600, Note_on_c, 0, 49, 47
3, 111660, Note_on_c, 0, 49, 0
3, 111660, Note_on_c, 0, 56, 0
3, 111660, Note_on_c, 0, 61, 0
3, 111680, Note_on_c, 0, 68, 52
3, 111680, Note_on_c, 0, 56, 44
3, 111740, Note_on_c, 0, 56, 0
3, 111740, Note_on_c, 0, 68, 0
3, 111760, Note_on_c, 0, 58, 52
3, 111760, Note_on_c, 0, 46, 44
3, 111820, Note_on_c, 0, 46, 0
3, 111820, Note_on_c, 0, 58, 0
3, 111840, Note_on_c, 0, 58, 56
3, 111840, Note_on_c, 0, 53, 47
3, 111840, Note_on_c, 0, 46, 47
3, 111900, Note_on_c, 0, 46, 0
3, 111900, Note_on_c, 0, 53, 0
3, 111900, Note_on_c, 0, 58, 0
3, 111920, Note_on_c, 0, 61, 51
3, 111920, Note_on_c, 0, 49, 43
3, 111980, Note_on_c, 0, 49, 0
3, 111980, Note_on_c, 0, 61, 0
3, 112000, Note_on_c, 0, 56, 51
3, 112000, Note_on_c, 0, 44, 43
3, 112060, Note_on_c, 0, 44, 0
3, 112060, Note_on_c, 0, 56, 0
3, 112080, Note_on_c, 0, 56, 56
3, 112080, Note_on_c, 0, 53, 47
3, 112080, Note_on_c, 0, 44, 47
3, 112140, Note_on_c, 0, 44, 0
3, 112140, Note_on_c, 0, 53, 0
3, 112140, Note_on_c, 0, 56, 0
3, 112160, Note_on_c, 0, 58, 51
3, 112160, Note_on_c, 0, 46, 43
3, 112220, Note_on_c, 0, 46, 0
3, 112220, Note_on_c, 0, 58, 0
3, 112240, Note_on_c, 0, 53, 51
3, 112240, Note_on_c, 0, 41, 43
3, 112300, Note_on_c, 0, 41, 0
3, 112300, Note_on_c, 0, 53, 0
3, 112320, Note_on_c, 0, 46, 47
3, 112320, Note_on_c, 0, 53, 56
3, 112320, Note_on_c, 0, 49, 47
3, 112320, Note_on_c, 0, 41, 47
3, 112380, Note_on_c, 0, 41, 0
3, 112380, Note_on_c, 0, 46, 0
3, 112380, Note_on_c, 0, 53, 0
3, 112380, Note_on_c, 0, 49, 0
3, 112400, Note_on_c, 0, 56, 51
3, 112400, Note_on_c, 0, 44, 43
3, 112460, Note_on_c, 0, 44, 0
3, 112460, Note_on_c, 0, 56, 0
3, 112480, Note_on_c, 0, 49, 51
3, 112480, Note_on_c, 0, 37, 43
3, 112540, Note_on_c, 0, 37, 0
3, 112540, Note_on_c, 0, 49, 0
3, 112560, Note_on_c, 0, 49, 56
3, 112560, Note_on_c, 0, 44, 47
3, 112560, Note_on_c, 0, 37, 47
3, 112620, Note_on_c, 0, 37, 0
3, 112620, Note_on_c, 0, 44, 0
3, 112620, Note_on_c, 0, 49, 0
3, 112640, Note_on_c, 0, 53, 51
3, 112640, Note_on_c, 0, 41, 43
3, 112700, Note_on_c, 0, 41, 0
3, 112700, Note_on_c, 0, 53, 0
3, 112720, Note_on_c, 0, 46, 51
3, 112720, Note_on_c, 0, 34, 43
3, 112780, Note_on_c, 0, 34, 0
3, 112780, Note_on_c, 0, 46, 0
3, 112800, Note_on_c, 0, 41, 47
3, 112800, Note_on_c, 0, 46, 56
3, 112800, Note_on_c, 0, 34, 47
3, 112860, Note_on_c, 0, 34, 0
3, 112860, Note_on_c, 0, 46, 0
3, 112860, Note_on_c, 0, 41, 0
3, 112880, Note_on_c, 0, 49, 51
3, 112880, Note_on_c, 0, 37, 43
3, 112940, Note_on_c, 0, 37, 0
3, 112940, Note_on_c, 0, 49, 0
3, 112960, Note_on_c, 0, 44, 51
3, 112960, Note_on_c, 0, 32, 43
3, 113020, Note_on_c, 0, 32, 0
3, 113020, Note_on_c, 0, 44, 0
3, 113040, Note_on_c, 0, 46, 56
3, 113040, Note_on_c, 0, 34, 47
3, 113100, Note_on_c, 0, 34, 0
3, 113100, Note_on_c, 0, 46, 0
3, 113120, Note_on_c, 0, 41, 51
3, 113120, Note_on_c, 0, 29, 43
3, 113180, Note_on_c, 0, 29, 0
3, 113180, Note_on_c, 0, 41, 0
3, 113200, Note_on_c, 0, 44, 51
3, 113200, Note_on_c, 0, 32, 43
3, 113260, Note_on_c, 0, 32, 0
3, 113260, Note_on_c, 0, 44, 0
3, 113280, Note_on_c, 0, 25, 58
3, 113280, Note_on_c, 0, 37, 69
3, 113440, Note_on_c, 0, 37, 0
3, 113440, Note_on_c, 0, 25, 0
3, 113440, Note_on_c, 0, 44, 49
3, 113440, Note_on_c, 0, 49, 49
3, 113440, Note_on_c, 0, 56, 62
3, 113442, Note_on_c, 0, 53, 49
3, 113512, Note_on_c, 0, 56, 0
3, 113512, Note_on_c, 0, 44, 0
3, 113512, Note_on_c, 0, 49, 0
3, 113514, Note_on_c, 0, 53, 0
3, 113520, Note_on_c, 0, 56, 52
3, 113520, Note_on_c, 0, 49, 52
3, 113520, Note_on_c, 0, 53, 52
3, 113520, Note_on_c, 0, 61, 52
3, 113520, Note_on_c, 0, 65, 66
3, 114000, Note_on_c, 0, 65, 0
3, 114000, Note_on_c, 0, 53, 0
3, 114000, Note_on_c, 0, 56, 0
3, 114000, Note_on_c, 0, 49, 0
3, 114000, Note_on_c, 0, 61, 0
3, 114000, Note_on_c, 0, 44, 52
3, 114000, Note_on_c, 0, 49, 52
3, 114000, Note_on_c, 0, 53, 52
3, 114000, Note_on_c, 0, 56, 66
3, 114160, Note_on_c, 0, 56, 0
3, 114160, Note_on_c, 0, 44, 0
3, 114160, Note_on_c, 0, 49, 0
3, 114160, Note_on_c, 0, 53, 0
3, 114160, Note_on_c, 0, 32, 67
3, 114240, Note_on_c, 0, 32, 0
3, 114240, Note_on_c, 0, 25, 58
3, 114240, Note_on_c, 0, 37, 69
3, 114400, Note_on_c, 0, 37, 0
3, 114400, Note_on_c, 0, 25, 0
3, 114400, Note_on_c, 0, 44, 49
3, 114400, Note_on_c, 0, 49, 49
3, 114400, Note_on_c, 0, 56, 62
3, 114402, Note_on_c, 0, 53, 49
3, 114472, Note_on_c, 0, 56, 0
3, 114472, Note_on_c, 0, 44, 0
3, 114472, Note_on_c, 0, 49, 0
3, 114474, Note_on_c, 0, 53, 0
3, 114480, Note_on_c, 0, 56, 52
3, 114480, Note_on_c, 0, 49, 52
3, 114480, Note_on_c, 0, 53, 52
3, 114480, Note_on_c, 0, 61, 52
3, 114480, Note_on_c, 0, 65, 66
3, 114960, Note_on_c, 0, 65, 0
3, 114960, Note_on_c, 0, 53, 0
3, 114960, Note_on_c, 0, 56, 0
3, 114960, Note_on_c, 0, 49, 0
3, 114960, Note_on_c, 0, 61, 0
3, 114960, Note_on_c, 0, 44, 52
3, 114960, Note_on_c, 0, 49, 52
3, 114960, Note_on_c, 0, 53, 52
3, 114960, Note_on_c, 0, 56, 66
3, 115120, Note_on_c, 0, 56, 0
3, 115120, Note_on_c, 0, 44, 0
3, 115120, Note_on_c, 0, 49, 0
3, 115120, Note_on_c, 0, 53, 0
3, 115120, Note_on_c, 0, 32, 67
3, 115200, Note_on_c, 0, 32, 0
3, 115200, Note_on_c, 0, 25, 58
3, 115200, Note_on_c, 0, 37, 69
3, 115360, Note_on_c, 0, 37, 0
3, 115360, Note_on_c, 0, 25, 0
3, 115360, Note_on_c, 0, 44, 49
3, 115360, Note_on_c, 0, 49, 49
3, 115360, Note_on_c, 0, 56, 62
3, 115362, Note_on_c, 0, 53, 49
3, 115432, Note_on_c, 0, 56, 0
3, 115432, Note_on_c, 0, 44, 0
3, 115432, Note_on_c, 0, 49, 0
3, 115434, Note_on_c, 0, 53, 0
3, 115440, Note_on_c, 0, 56, 52
3, 115440, Note_on_c, 0, 49, 52
3, 115440, Note_on_c, 0, 53, 52
3, 115440, Note_on_c, 0, 61, 52
3, 115440, Note_on_c, 0, 65, 66
3, 115920, Note_on_c, 0, 65, 0
3, 115920, Note_on_c, 0, 53, 0
3, 115920, Note_on_c, 0, 56, 0
3, 115920, Note_on_c, 0, 49, 0
3, 115920, Note_on_c, 0, 61, 0
3, 115920, Note_on_c, 0, 25, 72
3, 115920, Note_on_c, 0, 37, 82
3, 116160, Note_on_c, 0, 37, 0
3, 116160, Note_on_c, 0, 25, 0
3, 116160, Note_on_c, 0, 56, 57
3, 116160, Note_on_c, 0, 44, 57
3, 116160, Note_on_c, 0, 53, 57
3, 116160, Note_on_c, 0, 61, 72
3, 116880, Note_on_c, 0, 61, 0
3, 116880, Note_on_c, 0, 56, 0
3, 116880, Note_on_c, 0, 44, 0
3, 116880, Note_on_c, 0, 53, 0
3, 116880, Note_on_c, 0, 25, 79
3, 116880, Note_on_c, 0, 37, 90
3, 117120, Note_on_c, 0, 37, 0
3, 117120, Note_on_c, 0, 25, 0
3, 117120, Note_on_c, 0, 44, 57
3, 117120, Note_on_c, 0, 53, 57
3, 117120, Note_on_c, 0, 56, 57
3, 117120, Note_on_c, 0, 61, 72
3, 117360, Note_on_c, 0, 49, 58
3, 117414, Note_on_c, 0, 49, 0
3, 117414, Note_on_c, 0, 53, 60
3, 117467, Note_on_c, 0, 53, 0
3, 117467, Note_on_c, 0, 56, 62
3, 117520, Note_on_c, 0, 61, 64
3, 117521, Note_on_c, 0, 56, 0
3, 117574, Note_on_c, 0, 61, 0
3, 117574, Note_on_c, 0, 65, 66
3, 117627, Note_on_c, 0, 65, 0
3, 117627, Note_on_c, 0, 68, 68
3, 117681, Note_on_c, 0, 68, 0
3, 117681, Note_on_c, 0, 73, 70
3, 117734, Note_on_c, 0, 73, 0
3, 117734, Note_on_c, 0, 77, 72
3, 117787, Note_on_c, 0, 80, 74
3, 117788, Note_on_c, 0, 77, 0
3, 117840, Note_on_c, 0, 61, 0
3, 117840, Note_on_c, 0, 56, 0
3, 117840, Note_on_c, 0, 44, 0
3, 117840, Note_on_c, 0, 53, 0
3, 117840, Note_on_c, 0, 92, 87
3, 117840, Note_on_c, 0, 85, 73
3, 117841, Note_on_c, 0, 80, 0
3, 118080, Note_on_c, 0, 85, 0
3, 118080, Note_on_c, 0, 92, 0
3, 118080, Note_on_c, 0, 92, 86
3, 118080, Note_on_c, 0, 85, 73
3, 119040, Note_on_c, 0, 85, 0
3, 119040, Note_on_c, 0, 92, 0
3, 119040, End_track
4, 0, Start_track
4, 0, Title_t, "Pedale"
4, 0, Program_c, 0, 0
4, 43, Control_c, 0, 64, 127
4, 972, Control_c, 0, 64, 0
4, 1080, Control_c, 0, 64, 127
4, 1920, Control_c, 0, 64, 0
4, 2061, Control_c, 0, 64, 127
4, 2409, Control_c, 0, 64, 0
4, 2513, Control_c, 0, 64, 127
4, 2892, Control_c, 0, 64, 0
4, 3014, Control_c, 0, 64, 127
4, 3840, Control_c, 0, 64, 0
4, 3900, Control_c, 0, 64, 127
4, 4278, Control_c, 0, 64, 0
4, 4313, Control_c, 0, 64, 127
4, 4809, Control_c, 0, 64, 0
4, 4874, Control_c, 0, 64, 127
4, 5760, Control_c, 0, 64, 0
4, 5806, Control_c, 0, 64, 127
4, 6249, Control_c, 0, 64, 0
4, 6318, Control_c, 0, 64, 127
4, 6731, Control_c, 0, 64, 0
4, 6780, Control_c, 0, 64, 127
4, 7680, Control_c, 0, 64, 0
4, 7733, Control_c, 0, 64, 127
4, 8177, Control_c, 0, 64, 0
4, 8234, Control_c, 0, 64, 127
4, 8654, Control_c, 0, 64, 0
4, 8718, Control_c, 0, 64, 127
4, 9133, Control_c, 0, 64, 0
4, 9643, Control_c, 0, 64, 127
4, 10090, Control_c, 0, 64, 0
4, 10172, Control_c, 0, 64, 127
4, 10572, Control_c, 0, 64, 0
4, 10680, Control_c, 0, 64, 127
4, 11520, Control_c, 0, 64, 0
4, 11661, Control_c, 0, 64, 127
4, 12009, Control_c, 0, 64, 0
4, 12113, Control_c, 0, 64, 127
4, 12492, Control_c, 0, 64, 0
4, 12614, Control_c, 0, 64, 127
4, 13440, Control_c, 0, 64, 0
4, 13500, Control_c, 0, 64, 127
4, 13878, Control_c, 0, 64, 0
4, 13913, Control_c, 0, 64, 127
4, 14409, Control_c, 0, 64, 0
4, 14474, Control_c, 0, 64, 127
4, 15849, Control_c, 0, 64, 0
4, 15918, Control_c, 0, 64, 127
4, 16331, Control_c, 0, 64, 0
4, 16380, Control_c, 0, 64, 127
4, 17280, Control_c, 0, 64, 0
4, 17333, Control_c, 0, 64, 127
4, 17777, Control_c, 0, 64, 0
4, 17834, Control_c, 0, 64, 127
4, 19200, Control_c, 0, 64, 0
4, 19274, Control_c, 0, 64, 127
4, 21127, Control_c, 0, 64, 0
4, 21198, Control_c, 0, 64, 127
4, 22090, Control_c, 0, 64, 0
4, 22154, Control_c, 0, 64, 127
4, 22567, Control_c, 0, 64, 0
4, 22624, Control_c, 0, 64, 127
4, 23047, Control_c, 0, 64, 0
4, 23118, Control_c, 0, 64, 127
4, 23527, Control_c, 0, 64, 0
4, 23598, Control_c, 0, 64, 127
4, 24007, Control_c, 0, 64, 0
4, 24078, Control_c, 0, 64, 127
4, 24487, Control_c, 0, 64, 0
4, 24558, Control_c, 0, 64, 127
4, 24967, Control_c, 0, 64, 0
4, 25038, Control_c, 0, 64, 127
4, 25447, Control_c, 0, 64, 0
4, 25518, Control_c, 0, 64, 127
4, 25927, Control_c, 0, 64, 0
4, 25998, Control_c, 0, 64, 127
4, 26407, Control_c, 0, 64, 0
4, 26478, Control_c, 0, 64, 127
4, 26887, Control_c, 0, 64, 0
4, 26958, Control_c, 0, 64, 127
4, 27367, Control_c, 0, 64, 0
4, 27438, Control_c, 0, 64, 127
4, 27847, Control_c, 0, 64, 0
4, 27918, Control_c, 0, 64, 127
4, 28327, Control_c, 0, 64, 0
4, 28398, Control_c, 0, 64, 127
4, 28849, Control_c, 0, 64, 0
4, 28932, Control_c, 0, 64, 127
4, 29610, Control_c, 0, 64, 0
4, 29652, Control_c, 0, 64, 127
4, 31207, Control_c, 0, 64, 0
4, 31278, Control_c, 0, 64, 127
4, 31690, Control_c, 0, 64, 0
4, 31843, Control_c, 0, 64, 127
4, 32173, Control_c, 0, 64, 0
4, 32273, Control_c, 0, 64, 127
4, 32652, Control_c, 0, 64, 0
4, 32760, Control_c, 0, 64, 127
4, 33600, Control_c, 0, 64, 0
4, 33741, Control_c, 0, 64, 127
4, 34089, Control_c, 0, 64, 0
4, 34193, Control_c, 0, 64, 127
4, 34572, Control_c, 0, 64, 0
4, 34694, Control_c, 0, 64, 127
4, 35520, Control_c, 0, 64, 0
4, 35580, Control_c, 0, 64, 127
4, 35958, Control_c, 0, 64, 0
4, 35993, Control_c, 0, 64, 127
4, 36489, Control_c, 0, 64, 0
4, 36554, Control_c, 0, 64, 127
4, 36974, Control_c, 0, 64, 0
4, 37049, Control_c, 0, 64, 127
4, 37440, Control_c, 0, 64, 0
4, 37504, Control_c, 0, 64, 127
4, 39374, Control_c, 0, 64, 0
4, 39413, Control_c, 0, 64, 127
4, 40331, Control_c, 0, 64, 0
4, 40384, Control_c, 0, 64, 127
4, 40807, Control_c, 0, 64, 0
4, 40867, Control_c, 0, 64, 127
4, 41280, Control_c, 0, 64, 0
4, 41337, Control_c, 0, 64, 127
4, 42276, Control_c, 0, 64, 0
4, 42328, Control_c, 0, 64, 127
4, 43225, Control_c, 0, 64, 0
4, 43260, Control_c, 0, 64, 127
4, 43699, Control_c, 0, 64, 0
4, 43776, Control_c, 0, 64, 127
4, 45134, Control_c, 0, 64, 0
4, 45184, Control_c, 0, 64, 127
4, 46096, Control_c, 0, 64, 0
4, 46158, Control_c, 0, 64, 127
4, 47052, Control_c, 0, 64, 0
4, 47106, Control_c, 0, 64, 127
4, 48011, Control_c, 0, 64, 0
4, 48057, Control_c, 0, 64, 127
4, 48960, Control_c, 0, 64, 0
4, 49020, Control_c, 0, 64, 127
4, 49449, Control_c, 0, 64, 0
4, 49509, Control_c, 0, 64, 127
4, 49929, Control_c, 0, 64, 0
4, 49983, Control_c, 0, 64, 127
4, 50400, Control_c, 0, 64, 0
4, 50440, Control_c, 0, 64, 127
4, 50866, Control_c, 0, 64, 0
4, 50926, Control_c, 0, 64, 127
4, 51371, Control_c, 0, 64, 0
4, 51400, Control_c, 0, 64, 127
4, 51846, Control_c, 0, 64, 0
4, 51903, Control_c, 0, 64, 127
4, 52329, Control_c, 0, 64, 0
4, 52409, Control_c, 0, 64, 127
4, 52819, Control_c, 0, 64, 0
4, 52850, Control_c, 0, 64, 127
4, 53286, Control_c, 0, 64, 0
4, 53320, Control_c, 0, 64, 127
4, 53777, Control_c, 0, 64, 0
4, 53812, Control_c, 0, 64, 127
4, 54246, Control_c, 0, 64, 0
4, 54277, Control_c, 0, 64, 127
4, 54725, Control_c, 0, 64, 0
4, 54775, Control_c, 0, 64, 127
4, 55208, Control_c, 0, 64, 0
4, 55263, Control_c, 0, 64, 127
4, 55691, Control_c, 0, 64, 0
4, 55755, Control_c, 0, 64, 127
4, 56172, Control_c, 0, 64, 0
4, 56235, Control_c, 0, 64, 127
4, 56640, Control_c, 0, 64, 0
4, 56703, Control_c, 0, 64, 127
4, 56949, Control_c, 0, 64, 0
4, 57014, Control_c, 0, 64, 127
4, 57370, Control_c, 0, 64, 0
4, 57424, Control_c, 0, 64, 127
4, 57854, Control_c, 0, 64, 0
4, 57921, Control_c, 0, 64, 127
4, 58330, Control_c, 0, 64, 0
4, 58384, Control_c, 0, 64, 127
4, 58814, Control_c, 0, 64, 0
4, 58881, Control_c, 0, 64, 127
4, 59294, Control_c, 0, 64, 0
4, 59352, Control_c, 0, 64, 127
4, 59774, Control_c, 0, 64, 0
4, 59841, Control_c, 0, 64, 127
4, 60254, Control_c, 0, 64, 0
4, 60312, Control_c, 0, 64, 127
4, 60734, Control_c, 0, 64, 0
4, 60801, Control_c, 0, 64, 127
4, 61214, Control_c, 0, 64, 0
4, 61272, Control_c, 0, 64, 127
4, 61694, Control_c, 0, 64, 0
4, 61761, Control_c, 0, 64, 127
4, 62174, Control_c, 0, 64, 0
4, 62232, Control_c, 0, 64, 127
4, 62654, Control_c, 0, 64, 0
4, 62721, Control_c, 0, 64, 127
4, 63134, Control_c, 0, 64, 0
4, 63192, Control_c, 0, 64, 127
4, 63614, Control_c, 0, 64, 0
4, 63681, Control_c, 0, 64, 127
4, 64094, Control_c, 0, 64, 0
4, 64152, Control_c, 0, 64, 127
4, 64574, Control_c, 0, 64, 0
4, 64641, Control_c, 0, 64, 127
4, 65054, Control_c, 0, 64, 0
4, 65112, Control_c, 0, 64, 127
4, 65534, Control_c, 0, 64, 0
4, 65601, Control_c, 0, 64, 127
4, 66014, Control_c, 0, 64, 0
4, 66072, Control_c, 0, 64, 127
4, 66494, Control_c, 0, 64, 0
4, 66561, Control_c, 0, 64, 127
4, 66974, Control_c, 0, 64, 0
4, 67032, Control_c, 0, 64, 127
4, 67454, Control_c, 0, 64, 0
4, 67521, Control_c, 0, 64, 127
4, 67934, Control_c, 0, 64, 0
4, 67992, Control_c, 0, 64, 127
4, 68414, Control_c, 0, 64, 0
4, 68481, Control_c, 0, 64, 127
4, 68894, Control_c, 0, 64, 0
4, 68952, Control_c, 0, 64, 127
4, 69374, Control_c, 0, 64, 0
4, 69441, Control_c, 0, 64, 127
4, 69854, Control_c, 0, 64, 0
4, 69912, Control_c, 0, 64, 127
4, 70091, Control_c, 0, 64, 0
4, 70120, Control_c, 0, 64, 127
4, 70560, Control_c, 0, 64, 0
4, 70609, Control_c, 0, 64, 127
4, 71050, Control_c, 0, 64, 0
4, 71095, Control_c, 0, 64, 127
4, 71530, Control_c, 0, 64, 0
4, 71580, Control_c, 0, 64, 127
4, 72007, Control_c, 0, 64, 0
4, 72037, Control_c, 0, 64, 127
4, 72487, Control_c, 0, 64, 0
4, 72520, Control_c, 0, 64, 127
4, 72969, Control_c, 0, 64, 0
4, 73026, Control_c, 0, 64, 127
4, 73452, Control_c, 0, 64, 0
4, 73506, Control_c, 0, 64, 127
4, 73925, Control_c, 0, 64, 0
4, 73966, Control_c, 0, 64, 127
4, 74412, Control_c, 0, 64, 0
4, 74440, Control_c, 0, 64, 127
4, 74893, Control_c, 0, 64, 0
4, 74955, Control_c, 0, 64, 127
4, 75365, Control_c, 0, 64, 0
4, 75420, Control_c, 0, 64, 127
4, 75840, Control_c, 0, 64, 0
4, 75943, Control_c, 0, 64, 127
4, 76812, Control_c, 0, 64, 0
4, 76903, Control_c, 0, 64, 127
4, 77760, Control_c, 0, 64, 0
4, 77831, Control_c, 0, 64, 127
4, 78733, Control_c, 0, 64, 0
4, 78844, Control_c, 0, 64, 127
4, 79680, Control_c, 0, 64, 0
4, 79723, Control_c, 0, 64, 127
4, 80652, Control_c, 0, 64, 0
4, 80760, Control_c, 0, 64, 127
4, 81132, Control_c, 0, 64, 0
4, 81163, Control_c, 0, 64, 127
4, 81600, Control_c, 0, 64, 0
4, 81643, Control_c, 0, 64, 127
4, 82572, Control_c, 0, 64, 0
4, 82680, Control_c, 0, 64, 127
4, 83051, Control_c, 0, 64, 0
4, 83088, Control_c, 0, 64, 127
4, 83520, Control_c, 0, 64, 0
4, 83563, Control_c, 0, 64, 127
4, 84492, Control_c, 0, 64, 0
4, 84600, Control_c, 0, 64, 127
4, 84971, Control_c, 0, 64, 0
4, 85008, Control_c, 0, 64, 127
4, 85440, Control_c, 0, 64, 0
4, 85483, Control_c, 0, 64, 127
4, 86412, Control_c, 0, 64, 0
4, 86520, Control_c, 0, 64, 127
4, 86891, Control_c, 0, 64, 0
4, 86928, Control_c, 0, 64, 127
4, 87360, Control_c, 0, 64, 0
4, 87403, Control_c, 0, 64, 127
4, 88332, Control_c, 0, 64, 0
4, 88384, Control_c, 0, 64, 127
4, 88571, Control_c, 0, 64, 0
4, 88648, Control_c, 0, 64, 127
4, 88811, Control_c, 0, 64, 0
4, 88848, Control_c, 0, 64, 127
4, 89050, Control_c, 0, 64, 0
4, 89100, Control_c, 0, 64, 127
4, 89280, Control_c, 0, 64, 0
4, 89323, Control_c, 0, 64, 127
4, 90252, Control_c, 0, 64, 0
4, 90304, Control_c, 0, 64, 127
4, 90491, Control_c, 0, 64, 0
4, 90568, Control_c, 0, 64, 127
4, 90731, Control_c, 0, 64, 0
4, 90768, Control_c, 0, 64, 127
4, 90970, Control_c, 0, 64, 0
4, 91020, Control_c, 0, 64, 127
4, 91200, Control_c, 0, 64, 0
4, 91243, Control_c, 0, 64, 127
4, 92172, Control_c, 0, 64, 0
4, 92224, Control_c, 0, 64, 127
4, 92411, Control_c, 0, 64, 0
4, 92488, Control_c, 0, 64, 127
4, 92651, Control_c, 0, 64, 0
4, 92688, Control_c, 0, 64, 127
4, 92890, Control_c, 0, 64, 0
4, 92940, Control_c, 0, 64, 127
4, 93120, Control_c, 0, 64, 0
4, 93163, Control_c, 0, 64, 127
4, 94092, Control_c, 0, 64, 0
4, 94144, Control_c, 0, 64, 127
4, 94331, Control_c, 0, 64, 0
4, 94408, Control_c, 0, 64, 127
4, 94571, Control_c, 0, 64, 0
4, 94608, Control_c, 0, 64, 127
4, 94810, Control_c, 0, 64, 0
4, 94860, Control_c, 0, 64, 127
4, 95040, Control_c, 0, 64, 0
4, 95083, Control_c, 0, 64, 127
4, 96012, Control_c, 0, 64, 0
4, 96064, Control_c, 0, 64, 127
4, 96491, Control_c, 0, 64, 0
4, 96528, Control_c, 0, 64, 127
4, 96730, Control_c, 0, 64, 0
4, 96780, Control_c, 0, 64, 127
4, 96960, Control_c, 0, 64, 0
4, 97003, Control_c, 0, 64, 127
4, 97932, Control_c, 0, 64, 0
4, 97984, Control_c, 0, 64, 127
4, 98411, Control_c, 0, 64, 0
4, 98448, Control_c, 0, 64, 127
4, 98650, Control_c, 0, 64, 0
4, 98700, Control_c, 0, 64, 127
4, 98880, Control_c, 0, 64, 0
4, 98920, Control_c, 0, 64, 127
4, 99375, Control_c, 0, 64, 0
4, 99412, Control_c, 0, 64, 127
4, 99855, Control_c, 0, 64, 0
4, 99903, Control_c, 0, 64, 127
4, 100331, Control_c, 0, 64, 0
4, 100366, Control_c, 0, 64, 127
4, 100815, Control_c, 0, 64, 0
4, 100863, Control_c, 0, 64, 127
4, 101291, Control_c, 0, 64, 0
4, 101331, Control_c, 0, 64, 127
4, 101775, Control_c, 0, 64, 0
4, 101823, Control_c, 0, 64, 127
4, 102252, Control_c, 0, 64, 0
4, 102293, Control_c, 0, 64, 127
4, 102735, Control_c, 0, 64, 0
4, 102783, Control_c, 0, 64, 127
4, 103207, Control_c, 0, 64, 0
4, 103252, Control_c, 0, 64, 127
4, 103695, Control_c, 0, 64, 0
4, 103743, Control_c, 0, 64, 127
4, 104169, Control_c, 0, 64, 0
4, 104215, Control_c, 0, 64, 127
4, 104655, Control_c, 0, 64, 0
4, 104703, Control_c, 0, 64, 127
4, 105129, Control_c, 0, 64, 0
4, 105156, Control_c, 0, 64, 127
4, 105615, Control_c, 0, 64, 0
4, 105663, Control_c, 0, 64, 127
4, 106100, Control_c, 0, 64, 0
4, 106143, Control_c, 0, 64, 127
4, 106560, Control_c, 0, 64, 0
4, 106610, Control_c, 0, 64, 127
4, 107053, Control_c, 0, 64, 0
4, 107107, Control_c, 0, 64, 127
4, 107533, Control_c, 0, 64, 0
4, 107597, Control_c, 0, 64, 127
4, 107845, Control_c, 0, 64, 0
4, 107895, Control_c, 0, 64, 127
4, 108084, Control_c, 0, 64, 0
4, 108129, Control_c, 0, 64, 127
4, 108332, Control_c, 0, 64, 0
4, 108375, Control_c, 0, 64, 127
4, 108491, Control_c, 0, 64, 0
4, 108528, Control_c, 0, 64, 127
4, 108810, Control_c, 0, 64, 0
4, 108855, Control_c, 0, 64, 127
4, 109045, Control_c, 0, 64, 0
4, 109082, Control_c, 0, 64, 127
4, 109289, Control_c, 0, 64, 0
4, 109322, Control_c, 0, 64, 127
4, 109403, Control_c, 0, 64, 0
4, 109438, Control_c, 0, 64, 127
4, 109769, Control_c, 0, 64, 0
4, 109809, Control_c, 0, 64, 127
4, 110009, Control_c, 0, 64, 0
4, 110042, Control_c, 0, 64, 127
4, 110249, Control_c, 0, 64, 0
4, 110280, Control_c, 0, 64, 127
4, 110400, Control_c, 0, 64, 0
4, 110464, Control_c, 0, 64, 127
4, 113280, Control_c, 0, 64, 0
4, 113340, Control_c, 0, 64, 127
4, 120000, Control_c, 0, 64, 0
4, 120000, End_track
5, 0, Start_track
5, 0, Title_t, "Rychmaninoff: Prelude Op. 32 No. 13"
5, 0, End_track
6, 0, Start_track
6, 0, Title_t, "Copyright © 2008 by Bernd Krueger"
6, 0, End_track
7, 0, Start_track
7, 0, Title_t, "http://www.piano-midi.de/"
7, 0, End_track
8, 0, Start_track
8, 0, Title_t, "Edition: 2012-12-23"
8, 0, End_track
9, 0, Start_track
9, 0, Title_t, "Spur 8"
9, 0, End_track
10, 0, Start_track
10, 0, Title_t, "Spur 9"
10, 0, End_track
11, 0, Start_track
11, 0, Title_t, "Spur 10"
11, 0, End_track
12, 0, Start_track
12, 0, Title_t, "Spur 11"
12, 0, End_track
13, 0, Start_track
13, 0, Title_t, "Spur 12"
13, 0, End_track
14, 0, Start_track
14, 0, Title_t, "Spur 13"
14, 0, End_track
15, 0, Start_track
15, 0, Title_t, "Spur 14"
15, 0, End_track
16, 0, Start_track
16, 0, Title_t, "Spur 15"
16, 0, End_track
17, 0, Start_track
17, 0, Title_t, "Spur 16"
17, 0, End_track
0, 0, End_of_file
