0, 0, Header, 1, 17, 480
1, 0, Start_track
1, 0, Title_t, "Rachmaninoff: Etudes-Tableux Opus 33, Nr. 6"
1, 0, Title_t, "Allegro con fuoco"
1, 0, Copyright_t, "Copyright © 2013 by Bernd Krueger"
1, 0, Text_t, "Bernd Krueger"
1, 0, Text_t, "Erstellt: 27.2.2013\012"
1, 0, Text_t, "Dauer: 1:48 Minuten\012"
1, 0, Time_signature, 2, 1, 48, 8
1, 0, Key_signature, -3, "major"
1, 0, Tempo, 550105
1, 3360, Tempo, 439625
1, 3600, Tempo, 547895
1, 3840, Tempo, 442870
1, 4080, Tempo, 465152
1, 4320, Tempo, 526270
1, 4560, Tempo, 574108
1, 4800, Tempo, 538068
1, 5040, Tempo, 495950
1, 5280, Tempo, 579654
1, 5520, Tempo, 666593
1, 5760, Tempo, 774094
1, 6000, Tempo, 498297
1, 6480, Tempo, 460087
1, 6600, Tempo, 543429
1, 6720, Tempo, 486184
1, 7440, Tempo, 461858
1, 7560, Tempo, 519886
1, 7680, Tempo, 486184
1, 8400, Tempo, 465441
1, 8520, Tempo, 524430
1, 8640, Tempo, 482276
1, 9360, Tempo, 461858
1, 9480, Tempo, 536145
1, 9600, Tempo, 469080
1, 9645, Tempo, 467253
1, 9825, Tempo, 465441
1, 10005, Tempo, 463643
1, 10185, Tempo, 461858
1, 10365, Tempo, 460087
1, 10545, Tempo, 458330
1, 10725, Tempo, 456586
1, 10905, Tempo, 454856
1, 11085, Tempo, 453138
1, 11265, Tempo, 451433
1, 11430, Tempo, 449741
1, 11520, Tempo, 444741
1, 11760, Tempo, 443099
1, 12000, Tempo, 441469
1, 12240, Tempo, 439850
1, 12480, Tempo, 438244
1, 12662, Tempo, 434814
1, 12722, Tempo, 433244
1, 12767, Tempo, 431686
1, 12827, Tempo, 430138
1, 12872, Tempo, 428602
1, 12917, Tempo, 427077
1, 12977, Tempo, 425562
1, 13022, Tempo, 424058
1, 13082, Tempo, 422565
1, 13127, Tempo, 421082
1, 13172, Tempo, 419610
1, 13232, Tempo, 418148
1, 13277, Tempo, 416696
1, 13337, Tempo, 415254
1, 13382, Tempo, 413822
1, 13427, Tempo, 412399
1, 13440, Tempo, 406807
1, 13575, Tempo, 419551
1, 13605, Tempo, 409528
1, 13740, Tempo, 408136
1, 13860, Tempo, 406752
1, 13980, Tempo, 405378
1, 14100, Tempo, 404013
1, 14190, Tempo, 406752
1, 14220, Tempo, 399973
1, 14415, Tempo, 401311
1, 14610, Tempo, 402658
1, 14670, Tempo, 404013
1, 14715, Tempo, 405378
1, 14745, Tempo, 406752
1, 14775, Tempo, 408136
1, 14820, Tempo, 409528
1, 14850, Tempo, 410931
1, 14880, Tempo, 412343
1, 14910, Tempo, 413765
1, 14955, Tempo, 415196
1, 14985, Tempo, 416638
1, 15015, Tempo, 418089
1, 15045, Tempo, 419551
1, 15060, Tempo, 422505
1, 15075, Tempo, 425502
1, 15090, Tempo, 428541
1, 15105, Tempo, 431624
1, 15120, Tempo, 434751
1, 15135, Tempo, 437924
1, 15150, Tempo, 442772
1, 15165, Tempo, 443099
1, 15180, Tempo, 444741
1, 15195, Tempo, 446395
1, 15210, Tempo, 448062
1, 15225, Tempo, 449741
1, 15240, Tempo, 451433
1, 15255, Tempo, 453138
1, 15270, Tempo, 454856
1, 15285, Tempo, 456586
1, 15300, Tempo, 458330
1, 15315, Tempo, 460087
1, 15330, Tempo, 461858
1, 15360, Tempo, 512908
1, 15600, Tempo, 474383
1, 15840, Tempo, 470921
1, 16320, Tempo, 517643
1, 16800, Tempo, 621697
1, 17280, Tempo, 472515
1, 19200, Tempo, 550105
1, 22560, Tempo, 439625
1, 22800, Tempo, 547895
1, 23040, Tempo, 442870
1, 23280, Tempo, 466962
1, 23520, Tempo, 526362
1, 23760, Tempo, 574108
1, 24000, Tempo, 538068
1, 24240, Tempo, 495950
1, 24480, Tempo, 615511
1, 24720, Tempo, 750188
1, 24960, Time_signature, 3, 1, 48, 8
1, 24960, Tempo, 515110
1, 25560, Tempo, 466999
1, 26400, Tempo, 436427
1, 26640, Tempo, 452899
1, 26760, Tempo, 452899
1, 26880, Tempo, 466999
1, 27000, Tempo, 472515
1, 27120, Tempo, 482005
1, 27480, Tempo, 498008
1, 27840, Time_signature, 2, 1, 48, 8
1, 28080, Tempo, 498297
1, 28560, Tempo, 460087
1, 28680, Tempo, 543429
1, 28800, Tempo, 486184
1, 29520, Tempo, 461858
1, 29640, Tempo, 519886
1, 29760, Tempo, 486184
1, 30480, Tempo, 465441
1, 30600, Tempo, 524430
1, 30720, Tempo, 482276
1, 31440, Tempo, 461858
1, 31560, Tempo, 536145
1, 31680, Tempo, 469080
1, 31725, Tempo, 467253
1, 31905, Tempo, 465441
1, 32085, Tempo, 463643
1, 32265, Tempo, 461858
1, 32445, Tempo, 460087
1, 32625, Tempo, 458330
1, 32805, Tempo, 456586
1, 32985, Tempo, 454856
1, 33165, Tempo, 453138
1, 33345, Tempo, 451433
1, 33510, Tempo, 449741
1, 33600, Tempo, 444741
1, 33840, Tempo, 443099
1, 34080, Tempo, 441469
1, 34320, Tempo, 439850
1, 34560, Tempo, 438244
1, 34742, Tempo, 434814
1, 34802, Tempo, 433244
1, 34847, Tempo, 431686
1, 34907, Tempo, 430138
1, 34952, Tempo, 428602
1, 34997, Tempo, 427077
1, 35057, Tempo, 425562
1, 35102, Tempo, 424058
1, 35162, Tempo, 422565
1, 35207, Tempo, 421082
1, 35252, Tempo, 419610
1, 35312, Tempo, 418148
1, 35357, Tempo, 416696
1, 35417, Tempo, 415254
1, 35462, Tempo, 413822
1, 35507, Tempo, 412399
1, 35520, Tempo, 406807
1, 35655, Tempo, 419551
1, 35685, Tempo, 409528
1, 35820, Tempo, 408136
1, 35940, Tempo, 406752
1, 36060, Tempo, 405378
1, 36180, Tempo, 404013
1, 36270, Tempo, 406752
1, 36300, Tempo, 399973
1, 36495, Tempo, 401311
1, 36690, Tempo, 402658
1, 36750, Tempo, 404013
1, 36795, Tempo, 405378
1, 36825, Tempo, 406752
1, 36855, Tempo, 408136
1, 36900, Tempo, 409528
1, 36930, Tempo, 410931
1, 36960, Tempo, 412343
1, 36990, Tempo, 413765
1, 37035, Tempo, 415196
1, 37065, Tempo, 416638
1, 37095, Tempo, 418089
1, 37125, Tempo, 419551
1, 37140, Tempo, 422505
1, 37155, Tempo, 425502
1, 37170, Tempo, 428541
1, 37185, Tempo, 431624
1, 37200, Tempo, 434751
1, 37215, Tempo, 437924
1, 37230, Tempo, 442772
1, 37245, Tempo, 443099
1, 37260, Tempo, 444741
1, 37275, Tempo, 446395
1, 37290, Tempo, 448062
1, 37305, Tempo, 449741
1, 37320, Tempo, 451433
1, 37335, Tempo, 453138
1, 37350, Tempo, 454856
1, 37365, Tempo, 456586
1, 37380, Tempo, 458330
1, 37395, Tempo, 460087
1, 37410, Tempo, 461858
1, 37440, Tempo, 512908
1, 37680, Tempo, 474383
1, 37920, Tempo, 470921
1, 38400, Tempo, 517643
1, 38880, Tempo, 621697
1, 39360, Tempo, 472515
1, 40680, Tempo, 409612
1, 40706, Tempo, 405433
1, 40746, Tempo, 404068
1, 40766, Tempo, 402712
1, 40786, Tempo, 401365
1, 40826, Tempo, 400027
1, 40846, Tempo, 398698
1, 40866, Tempo, 397377
1, 40906, Tempo, 396066
1, 40926, Tempo, 394763
1, 40946, Tempo, 393468
1, 40986, Tempo, 392182
1, 41006, Tempo, 390905
1, 41026, Tempo, 389636
1, 41066, Tempo, 388375
1, 41086, Tempo, 387122
1, 41106, Tempo, 385877
1, 41146, Tempo, 384640
1, 41166, Tempo, 383411
1, 41186, Tempo, 382190
1, 41226, Tempo, 380977
1, 41246, Tempo, 379771
1, 41266, Tempo, 378573
1, 41280, Time_signature, 3, 1, 48, 8
1, 41280, Tempo, 500083
1, 41880, Tempo, 577034
1, 42240, Tempo, 472515
1, 42720, Tempo, 408219
1, 42746, Tempo, 398698
1, 42786, Tempo, 397377
1, 42826, Tempo, 396066
1, 42846, Tempo, 394763
1, 42886, Tempo, 393468
1, 42906, Tempo, 392182
1, 42946, Tempo, 390905
1, 42966, Tempo, 389636
1, 43006, Tempo, 388375
1, 43046, Tempo, 387122
1, 43066, Tempo, 385877
1, 43106, Tempo, 384640
1, 43126, Tempo, 383411
1, 43166, Tempo, 382190
1, 43186, Tempo, 380977
1, 43200, Tempo, 498008
1, 43680, Tempo, 577034
1, 44160, Time_signature, 2, 1, 48, 8
1, 44160, Tempo, 510725
1, 44640, Tempo, 454614
1, 44880, Tempo, 485909
1, 45120, Tempo, 468823
1, 45600, Tempo, 431717
1, 46080, Tempo, 470662
1, 46560, Tempo, 480077
1, 47040, Tempo, 495950
1, 47640, Tempo, 533428
1, 50640, Tempo, 463392
1, 50880, Tempo, 506415
1, 51480, Tempo, 504286
1, 51600, Tempo, 459841
1, 51840, Tempo, 506372
1, 52080, Tempo, 485909
1, 52560, Tempo, 579822
1, 52800, Tempo, 495950
1, 53520, Tempo, 465188
1, 53760, Tempo, 493868
1, 54000, Tempo, 483949
1, 54120, Tempo, 480077
1, 54480, Tempo, 531020
1, 54720, Tempo, 495950
1, 55680, Tempo, 485909
1, 55920, Tempo, 451196
1, 56160, Tempo, 489876
1, 56280, Tempo, 526408
1, 56520, Tempo, 489876
1, 56640, Tempo, 485909
1, 56880, Tempo, 449506
1, 57120, Tempo, 482005
1, 57600, Tempo, 512908
1, 57960, Tempo, 487884
1, 58019, Tempo, 485909
1, 58211, Tempo, 483949
1, 58371, Tempo, 482005
1, 58531, Tempo, 480077
1, 58691, Tempo, 478164
1, 58883, Tempo, 476266
1, 59043, Tempo, 474383
1, 59400, Tempo, 540638
1, 59491, Tempo, 472515
1, 59520, Tempo, 500083
1, 60000, Tempo, 482005
1, 60480, Tempo, 472515
1, 60960, Tempo, 512908
1, 61440, Tempo, 476266
1, 62160, Tempo, 463392
1, 62400, Tempo, 506415
1, 63000, Tempo, 504286
1, 63120, Tempo, 459841
1, 63360, Tempo, 487845
1, 63600, Tempo, 474383
1, 63720, Tempo, 476266
1, 64080, Tempo, 577034
1, 64320, Tempo, 495950
1, 65040, Tempo, 465188
1, 65280, Tempo, 495909
1, 65520, Tempo, 480077
1, 65640, Tempo, 482005
1, 66000, Tempo, 540638
1, 66240, Tempo, 495950
1, 67200, Tempo, 485909
1, 67440, Tempo, 451196
1, 67680, Tempo, 489876
1, 67800, Tempo, 526408
1, 68040, Tempo, 489876
1, 68160, Tempo, 485909
1, 68400, Tempo, 449506
1, 68640, Tempo, 482005
1, 69120, Tempo, 512908
1, 69300, Tempo, 508561
1, 69320, Tempo, 504286
1, 69340, Tempo, 498008
1, 69360, Tempo, 491884
1, 69380, Tempo, 485909
1, 69400, Tempo, 480077
1, 69420, Tempo, 476266
1, 69440, Tempo, 470662
1, 69460, Tempo, 465188
1, 69480, Tempo, 459841
1, 69500, Tempo, 454614
1, 69520, Tempo, 449506
1, 69540, Tempo, 452899
1, 69560, Tempo, 449506
1, 69580, Tempo, 447828
1, 69600, Tempo, 444510
1, 69620, Tempo, 442870
1, 69640, Tempo, 439625
1, 69680, Tempo, 439625
1, 70060, Tempo, 456343
1, 70080, Tempo, 472515
1, 70320, Tempo, 441241
1, 70440, Tempo, 441241
1, 70560, Tempo, 465188
1, 70800, Tempo, 480077
1, 71040, Tempo, 470662
1, 71280, Tempo, 451196
1, 71400, Tempo, 452899
1, 72000, Tempo, 463392
1, 72960, Tempo, 465188
1, 73920, Tempo, 478164
1, 74160, Tempo, 493908
1, 74400, Tempo, 521830
1, 74760, Tempo, 735474
1, 74880, Tempo, 465188
1, 75120, Tempo, 457736
1, 75360, Tempo, 455996
1, 75840, Tempo, 468457
1, 76080, Tempo, 459488
1, 76320, Tempo, 457736
1, 76800, Tempo, 468457
1, 77040, Tempo, 459488
1, 77280, Tempo, 457736
1, 77760, Tempo, 468457
1, 78000, Tempo, 459488
1, 78240, Tempo, 457736
1, 78993, Tempo, 441241
1, 79113, Tempo, 439625
1, 79233, Tempo, 438020
1, 79353, Tempo, 436427
1, 79473, Tempo, 434846
1, 79593, Tempo, 433276
1, 79713, Tempo, 431717
1, 79813, Tempo, 430169
1, 79933, Tempo, 428633
1, 80053, Tempo, 427107
1, 80173, Tempo, 425592
1, 80293, Tempo, 424088
1, 80413, Tempo, 422595
1, 80533, Tempo, 421112
1, 80640, Tempo, 451196
1, 80880, Tempo, 418177
1, 81293, Tempo, 413850
1, 81993, Tempo, 411015
1, 82033, Tempo, 412428
1, 82053, Tempo, 413850
1, 82073, Tempo, 415282
1, 82093, Tempo, 416725
1, 82113, Tempo, 418177
1, 82133, Tempo, 419639
1, 82153, Tempo, 421112
1, 82173, Tempo, 422595
1, 82193, Tempo, 424088
1, 82213, Tempo, 425592
1, 82233, Tempo, 427107
1, 82273, Tempo, 427107
1, 82293, Tempo, 428633
1, 82313, Tempo, 431717
1, 82333, Tempo, 433276
1, 82353, Tempo, 436427
1, 82373, Tempo, 438020
1, 82393, Tempo, 441241
1, 82413, Tempo, 444510
1, 82440, Tempo, 506415
1, 82560, Tempo, 427107
1, 83520, Tempo, 538213
1, 83760, Tempo, 454614
1, 84480, Tempo, 542937
1, 84720, Tempo, 519436
1, 84960, Tempo, 481966
1, 85200, Tempo, 452899
1, 86040, Tempo, 472515
1, 86400, Tempo, 454614
1, 86640, Tempo, 436427
1, 87120, Tempo, 472515
1, 87360, Tempo, 449506
1, 88320, Time_signature, 2, 2, 24, 8
1, 88320, Tempo, 458085
1, 88560, Tempo, 441241
1, 89040, Tempo, 472515
1, 89280, Time_signature, 2, 1, 48, 8
1, 89280, Tempo, 470662
1, 89520, Tempo, 555504
1, 89640, Tempo, 545405
1, 89880, Tempo, 491844
1, 90240, Tempo, 431686
1, 90480, Tempo, 480077
1, 91200, Tempo, 466999
1, 91560, Tempo, 446163
1, 91699, Tempo, 446163
1, 91839, Tempo, 447828
1, 91959, Tempo, 449506
1, 92099, Tempo, 451196
1, 92219, Tempo, 452899
1, 92359, Tempo, 454614
1, 92479, Tempo, 456343
1, 92599, Tempo, 458085
1, 92640, Tempo, 474383
1, 93120, Tempo, 449506
1, 93480, Tempo, 441241
1, 93840, Tempo, 431686
1, 94080, Tempo, 442837
1, 94560, Tempo, 447828
1, 95040, Tempo, 466999
1, 95400, Tempo, 449506
1, 96000, Tempo, 465188
1, 96480, Tempo, 478164
1, 97440, Tempo, 459841
1, 98520, Tempo, 472515
1, 98880, Tempo, 459841
1, 99600, Tempo, 472515
1, 99840, Tempo, 459841
1, 100320, Tempo, 533286
1, 100560, Tempo, 568666
1, 100800, Tempo, 641643
1, 101056, Tempo, 588178
1, 101072, Tempo, 585309
1, 101080, Tempo, 576868
1, 101088, Tempo, 574108
1, 101096, Tempo, 568666
1, 101104, Tempo, 565984
1, 101112, Tempo, 560695
1, 101120, Tempo, 558088
1, 101128, Tempo, 552944
1, 101136, Tempo, 550408
1, 101144, Tempo, 545405
1, 101152, Tempo, 542937
1, 101160, Tempo, 538068
1, 101168, Tempo, 535666
1, 101176, Tempo, 530926
1, 101184, Tempo, 526270
1, 101190, Tempo, 526362
1, 101210, Tempo, 519526
1, 101230, Tempo, 515066
1, 101250, Tempo, 510682
1, 101270, Tempo, 506372
1, 101290, Tempo, 500042
1, 101310, Tempo, 495909
1, 101330, Tempo, 491844
1, 101350, Tempo, 485869
1, 101362, Tempo, 485909
1, 101402, Tempo, 483949
1, 101462, Tempo, 482005
1, 101522, Tempo, 480077
1, 101582, Tempo, 478164
1, 101622, Tempo, 476266
1, 101682, Tempo, 474383
1, 101742, Tempo, 472515
1, 101802, Tempo, 466999
1, 101822, Tempo, 465188
1, 101842, Tempo, 463392
1, 101862, Tempo, 461609
1, 101882, Tempo, 458085
1, 101982, Tempo, 456343
1, 102062, Tempo, 454614
1, 102142, Tempo, 452899
1, 102242, Tempo, 451196
1, 102322, Tempo, 449506
1, 102402, Tempo, 447828
1, 102502, Tempo, 446163
1, 102582, Tempo, 444510
1, 103080, Tempo, 461609
1, 103200, Tempo, 512908
1, 103320, Tempo, 456343
1, 103680, Tempo, 447828
1, 104280, Tempo, 519570
1, 104400, Tempo, 456343
1, 104640, Tempo, 483949
1, 105600, Tempo, 530645
1, 106080, Tempo, 573778
1, 106560, Tempo, 535810
1, 106800, Tempo, 497967
1, 106920, Tempo, 588351
1, 106920, End_track
2, 0, Start_track
2, 0, Title_t, "Piano right"
2, 0, Program_c, 0, 0
2, 0, Note_on_c, 0, 75, 68
2, 0, Note_on_c, 0, 79, 80
2, 960, Note_on_c, 0, 79, 0
2, 960, Note_on_c, 0, 75, 0
2, 960, Note_on_c, 0, 75, 68
2, 960, Note_on_c, 0, 79, 80
2, 1680, Note_on_c, 0, 79, 0
2, 1680, Note_on_c, 0, 75, 0
2, 1680, Note_on_c, 0, 72, 72
2, 1920, Note_on_c, 0, 72, 0
2, 1920, Note_on_c, 0, 75, 68
2, 1920, Note_on_c, 0, 79, 80
2, 2640, Note_on_c, 0, 79, 0
2, 2640, Note_on_c, 0, 75, 0
2, 2640, Note_on_c, 0, 70, 72
2, 2880, Note_on_c, 0, 70, 0
2, 2880, Note_on_c, 0, 75, 74
2, 2880, Note_on_c, 0, 79, 88
2, 3360, Note_on_c, 0, 79, 0
2, 3360, Note_on_c, 0, 75, 0
2, 3360, Note_on_c, 0, 67, 76
2, 3480, Note_on_c, 0, 67, 0
2, 3480, Note_on_c, 0, 70, 68
2, 3600, Note_on_c, 0, 70, 0
2, 3600, Note_on_c, 0, 74, 81
2, 3720, Note_on_c, 0, 74, 0
2, 3840, Note_on_c, 0, 79, 88
2, 3840, Note_on_c, 0, 75, 74
2, 4080, Note_on_c, 0, 75, 0
2, 4080, Note_on_c, 0, 79, 0
2, 4080, Note_on_c, 0, 63, 74
2, 4200, Note_on_c, 0, 63, 0
2, 4200, Note_on_c, 0, 67, 76
2, 4320, Note_on_c, 0, 67, 0
2, 4320, Note_on_c, 0, 70, 88
2, 4440, Note_on_c, 0, 70, 0
2, 4560, Note_on_c, 0, 72, 81
2, 4680, Note_on_c, 0, 72, 0
2, 4800, Note_on_c, 0, 75, 78
2, 4800, Note_on_c, 0, 79, 92
2, 5040, Note_on_c, 0, 79, 0
2, 5040, Note_on_c, 0, 75, 0
2, 5040, Note_on_c, 0, 60, 87
2, 5160, Note_on_c, 0, 60, 0
2, 5160, Note_on_c, 0, 63, 88
2, 5280, Note_on_c, 0, 63, 0
2, 5280, Note_on_c, 0, 67, 96
2, 5400, Note_on_c, 0, 67, 0
2, 5520, Note_on_c, 0, 70, 103
2, 5520, Note_on_c, 0, 58, 87
2, 5640, Note_on_c, 0, 58, 0
2, 5640, Note_on_c, 0, 70, 0
2, 5760, Note_on_c, 0, 79, 112
2, 5760, Note_on_c, 0, 75, 94
2, 5760, Note_on_c, 0, 70, 94
2, 5760, Note_on_c, 0, 67, 94
2, 6000, Note_on_c, 0, 55, 39
2, 6000, Note_on_c, 0, 51, 33
2, 6120, Note_on_c, 0, 51, 0
2, 6120, Note_on_c, 0, 55, 0
2, 6120, Note_on_c, 0, 58, 30
2, 6240, Note_on_c, 0, 58, 0
2, 6240, Note_on_c, 0, 55, 41
2, 6240, Note_on_c, 0, 51, 34
2, 6360, Note_on_c, 0, 51, 0
2, 6360, Note_on_c, 0, 55, 0
2, 6360, Note_on_c, 0, 58, 30
2, 6480, Note_on_c, 0, 58, 0
2, 6480, Note_on_c, 0, 67, 0
2, 6480, Note_on_c, 0, 79, 0
2, 6480, Note_on_c, 0, 75, 0
2, 6480, Note_on_c, 0, 70, 0
2, 6480, Note_on_c, 0, 56, 48
2, 6480, Note_on_c, 0, 53, 40
2, 6600, Note_on_c, 0, 53, 0
2, 6600, Note_on_c, 0, 56, 0
2, 6600, Note_on_c, 0, 58, 30
2, 6720, Note_on_c, 0, 58, 0
2, 6720, Note_on_c, 0, 55, 41
2, 6720, Note_on_c, 0, 51, 34
2, 6840, Note_on_c, 0, 51, 0
2, 6840, Note_on_c, 0, 55, 0
2, 6840, Note_on_c, 0, 58, 30
2, 6960, Note_on_c, 0, 58, 0
2, 6960, Note_on_c, 0, 51, 33
2, 6960, Note_on_c, 0, 55, 39
2, 7080, Note_on_c, 0, 55, 0
2, 7080, Note_on_c, 0, 51, 0
2, 7080, Note_on_c, 0, 58, 30
2, 7200, Note_on_c, 0, 58, 0
2, 7200, Note_on_c, 0, 55, 40
2, 7200, Note_on_c, 0, 51, 34
2, 7320, Note_on_c, 0, 51, 0
2, 7320, Note_on_c, 0, 55, 0
2, 7320, Note_on_c, 0, 58, 30
2, 7440, Note_on_c, 0, 58, 0
2, 7440, Note_on_c, 0, 53, 39
2, 7440, Note_on_c, 0, 56, 47
2, 7560, Note_on_c, 0, 56, 0
2, 7560, Note_on_c, 0, 53, 0
2, 7560, Note_on_c, 0, 58, 30
2, 7680, Note_on_c, 0, 58, 0
2, 7680, Note_on_c, 0, 55, 41
2, 7680, Note_on_c, 0, 51, 34
2, 7800, Note_on_c, 0, 51, 0
2, 7800, Note_on_c, 0, 55, 0
2, 7800, Note_on_c, 0, 58, 30
2, 7920, Note_on_c, 0, 58, 0
2, 7920, Note_on_c, 0, 51, 33
2, 7920, Note_on_c, 0, 55, 39
2, 8040, Note_on_c, 0, 55, 0
2, 8040, Note_on_c, 0, 51, 0
2, 8040, Note_on_c, 0, 58, 30
2, 8160, Note_on_c, 0, 58, 0
2, 8160, Note_on_c, 0, 55, 40
2, 8160, Note_on_c, 0, 51, 34
2, 8280, Note_on_c, 0, 51, 0
2, 8280, Note_on_c, 0, 55, 0
2, 8280, Note_on_c, 0, 58, 30
2, 8400, Note_on_c, 0, 58, 0
2, 8400, Note_on_c, 0, 53, 39
2, 8400, Note_on_c, 0, 56, 47
2, 8520, Note_on_c, 0, 56, 0
2, 8520, Note_on_c, 0, 53, 0
2, 8520, Note_on_c, 0, 58, 30
2, 8640, Note_on_c, 0, 58, 0
2, 8640, Note_on_c, 0, 55, 41
2, 8640, Note_on_c, 0, 51, 34
2, 8760, Note_on_c, 0, 51, 0
2, 8760, Note_on_c, 0, 55, 0
2, 8760, Note_on_c, 0, 58, 30
2, 8880, Note_on_c, 0, 58, 0
2, 8880, Note_on_c, 0, 51, 33
2, 8880, Note_on_c, 0, 55, 39
2, 9000, Note_on_c, 0, 55, 0
2, 9000, Note_on_c, 0, 51, 0
2, 9000, Note_on_c, 0, 58, 30
2, 9120, Note_on_c, 0, 58, 0
2, 9120, Note_on_c, 0, 55, 40
2, 9120, Note_on_c, 0, 51, 34
2, 9240, Note_on_c, 0, 51, 0
2, 9240, Note_on_c, 0, 55, 0
2, 9240, Note_on_c, 0, 58, 30
2, 9360, Note_on_c, 0, 58, 0
2, 9360, Note_on_c, 0, 53, 39
2, 9360, Note_on_c, 0, 56, 47
2, 9480, Note_on_c, 0, 56, 0
2, 9480, Note_on_c, 0, 53, 0
2, 9480, Note_on_c, 0, 58, 30
2, 9600, Note_on_c, 0, 58, 0
2, 9600, Note_on_c, 0, 51, 34
2, 9600, Note_on_c, 0, 55, 41
2, 9720, Note_on_c, 0, 55, 0
2, 9720, Note_on_c, 0, 51, 0
2, 9720, Note_on_c, 0, 58, 33
2, 9840, Note_on_c, 0, 58, 0
2, 9840, Note_on_c, 0, 55, 44
2, 9840, Note_on_c, 0, 51, 37
2, 9960, Note_on_c, 0, 51, 0
2, 9960, Note_on_c, 0, 55, 0
2, 9960, Note_on_c, 0, 63, 39
2, 10080, Note_on_c, 0, 63, 0
2, 10080, Note_on_c, 0, 56, 45
2, 10080, Note_on_c, 0, 53, 38
2, 10200, Note_on_c, 0, 53, 0
2, 10200, Note_on_c, 0, 56, 0
2, 10200, Note_on_c, 0, 63, 41
2, 10320, Note_on_c, 0, 63, 0
2, 10320, Note_on_c, 0, 55, 38
2, 10320, Note_on_c, 0, 58, 45
2, 10440, Note_on_c, 0, 58, 0
2, 10440, Note_on_c, 0, 55, 0
2, 10440, Note_on_c, 0, 63, 40
2, 10560, Note_on_c, 0, 63, 0
2, 10560, Note_on_c, 0, 56, 39
2, 10560, Note_on_c, 0, 60, 46
2, 10680, Note_on_c, 0, 60, 0
2, 10680, Note_on_c, 0, 56, 0
2, 10680, Note_on_c, 0, 63, 42
2, 10800, Note_on_c, 0, 63, 0
2, 10800, Note_on_c, 0, 58, 40
2, 10800, Note_on_c, 0, 62, 49
2, 10920, Note_on_c, 0, 62, 0
2, 10920, Note_on_c, 0, 58, 0
2, 10920, Note_on_c, 0, 70, 43
2, 11040, Note_on_c, 0, 70, 0
2, 11040, Note_on_c, 0, 63, 52
2, 11040, Note_on_c, 0, 60, 44
2, 11160, Note_on_c, 0, 60, 0
2, 11160, Note_on_c, 0, 63, 0
2, 11160, Note_on_c, 0, 70, 44
2, 11280, Note_on_c, 0, 70, 0
2, 11280, Note_on_c, 0, 65, 54
2, 11280, Note_on_c, 0, 62, 45
2, 11400, Note_on_c, 0, 62, 0
2, 11400, Note_on_c, 0, 65, 0
2, 11400, Note_on_c, 0, 70, 50
2, 11520, Note_on_c, 0, 70, 0
2, 11520, Note_on_c, 0, 67, 57
2, 11520, Note_on_c, 0, 63, 47
2, 11640, Note_on_c, 0, 63, 0
2, 11640, Note_on_c, 0, 67, 0
2, 11640, Note_on_c, 0, 70, 50
2, 11760, Note_on_c, 0, 70, 0
2, 11760, Note_on_c, 0, 67, 61
2, 11760, Note_on_c, 0, 63, 51
2, 11880, Note_on_c, 0, 63, 0
2, 11880, Note_on_c, 0, 67, 0
2, 11880, Note_on_c, 0, 75, 53
2, 12000, Note_on_c, 0, 75, 0
2, 12000, Note_on_c, 0, 68, 62
2, 12000, Note_on_c, 0, 65, 52
2, 12120, Note_on_c, 0, 65, 0
2, 12120, Note_on_c, 0, 68, 0
2, 12120, Note_on_c, 0, 75, 57
2, 12240, Note_on_c, 0, 75, 0
2, 12240, Note_on_c, 0, 67, 53
2, 12240, Note_on_c, 0, 70, 63
2, 12360, Note_on_c, 0, 70, 0
2, 12360, Note_on_c, 0, 67, 0
2, 12360, Note_on_c, 0, 75, 57
2, 12480, Note_on_c, 0, 75, 0
2, 12480, Note_on_c, 0, 72, 64
2, 12480, Note_on_c, 0, 68, 53
2, 12600, Note_on_c, 0, 68, 0
2, 12600, Note_on_c, 0, 72, 0
2, 12600, Note_on_c, 0, 75, 59
2, 12720, Note_on_c, 0, 75, 0
2, 12720, Note_on_c, 0, 70, 57
2, 12720, Note_on_c, 0, 74, 67
2, 12840, Note_on_c, 0, 74, 0
2, 12840, Note_on_c, 0, 70, 0
2, 12840, Note_on_c, 0, 82, 64
2, 12960, Note_on_c, 0, 82, 0
2, 12960, Note_on_c, 0, 75, 73
2, 12960, Note_on_c, 0, 72, 61
2, 13080, Note_on_c, 0, 72, 0
2, 13080, Note_on_c, 0, 75, 0
2, 13080, Note_on_c, 0, 82, 67
2, 13200, Note_on_c, 0, 82, 0
2, 13200, Note_on_c, 0, 77, 74
2, 13200, Note_on_c, 0, 74, 62
2, 13320, Note_on_c, 0, 74, 0
2, 13320, Note_on_c, 0, 77, 0
2, 13320, Note_on_c, 0, 82, 68
2, 13440, Note_on_c, 0, 82, 0
2, 13440, Note_on_c, 0, 79, 82
2, 13440, Note_on_c, 0, 75, 69
2, 13560, Note_on_c, 0, 75, 0
2, 13560, Note_on_c, 0, 79, 0
2, 13560, Note_on_c, 0, 82, 59
2, 13680, Note_on_c, 0, 82, 0
2, 13680, Note_on_c, 0, 77, 53
2, 13680, Note_on_c, 0, 74, 34
2, 13680, Note_on_c, 0, 70, 34
2, 13800, Note_on_c, 0, 70, 0
2, 13800, Note_on_c, 0, 74, 0
2, 13800, Note_on_c, 0, 77, 0
2, 13800, Note_on_c, 0, 78, 43
2, 13800, Note_on_c, 0, 84, 51
2, 13920, Note_on_c, 0, 84, 0
2, 13920, Note_on_c, 0, 78, 0
2, 13920, Note_on_c, 0, 75, 56
2, 13920, Note_on_c, 0, 79, 66
2, 14040, Note_on_c, 0, 79, 0
2, 14040, Note_on_c, 0, 75, 0
2, 14040, Note_on_c, 0, 80, 49
2, 14040, Note_on_c, 0, 82, 58
2, 14160, Note_on_c, 0, 82, 0
2, 14160, Note_on_c, 0, 80, 0
2, 14160, Note_on_c, 0, 77, 51
2, 14160, Note_on_c, 0, 74, 31
2, 14160, Note_on_c, 0, 70, 31
2, 14280, Note_on_c, 0, 70, 0
2, 14280, Note_on_c, 0, 74, 0
2, 14280, Note_on_c, 0, 77, 0
2, 14280, Note_on_c, 0, 78, 40
2, 14280, Note_on_c, 0, 84, 48
2, 14400, Note_on_c, 0, 84, 0
2, 14400, Note_on_c, 0, 78, 0
2, 14400, Note_on_c, 0, 79, 70
2, 14400, Note_on_c, 0, 75, 50
2, 14520, Note_on_c, 0, 75, 0
2, 14520, Note_on_c, 0, 79, 0
2, 14520, Note_on_c, 0, 82, 64
2, 14520, Note_on_c, 0, 80, 54
2, 14640, Note_on_c, 0, 80, 0
2, 14640, Note_on_c, 0, 82, 0
2, 14640, Note_on_c, 0, 77, 57
2, 14640, Note_on_c, 0, 74, 48
2, 14640, Note_on_c, 0, 70, 48
2, 14760, Note_on_c, 0, 70, 0
2, 14760, Note_on_c, 0, 74, 0
2, 14760, Note_on_c, 0, 77, 0
2, 14760, Note_on_c, 0, 78, 45
2, 14760, Note_on_c, 0, 84, 55
2, 14880, Note_on_c, 0, 84, 0
2, 14880, Note_on_c, 0, 78, 0
2, 14880, Note_on_c, 0, 75, 53
2, 14880, Note_on_c, 0, 79, 73
2, 15000, Note_on_c, 0, 79, 0
2, 15000, Note_on_c, 0, 75, 0
2, 15000, Note_on_c, 0, 80, 52
2, 15000, Note_on_c, 0, 82, 61
2, 15120, Note_on_c, 0, 82, 0
2, 15120, Note_on_c, 0, 80, 0
2, 15120, Note_on_c, 0, 77, 60
2, 15120, Note_on_c, 0, 74, 51
2, 15120, Note_on_c, 0, 70, 51
2, 15240, Note_on_c, 0, 70, 0
2, 15240, Note_on_c, 0, 74, 0
2, 15240, Note_on_c, 0, 77, 0
2, 15240, Note_on_c, 0, 78, 51
2, 15240, Note_on_c, 0, 84, 61
2, 15360, Note_on_c, 0, 84, 0
2, 15360, Note_on_c, 0, 78, 0
2, 15360, Note_on_c, 0, 75, 58
2, 15360, Note_on_c, 0, 79, 91
2, 15600, Note_on_c, 0, 79, 0
2, 15600, Note_on_c, 0, 75, 0
2, 15600, Note_on_c, 0, 82, 80
2, 15600, Note_on_c, 0, 79, 68
2, 15600, Note_on_c, 0, 75, 68
2, 15600, Note_on_c, 0, 70, 68
2, 15720, Note_on_c, 0, 70, 0
2, 15720, Note_on_c, 0, 82, 0
2, 15720, Note_on_c, 0, 79, 0
2, 15720, Note_on_c, 0, 75, 0
2, 15840, Note_on_c, 0, 82, 80
2, 15840, Note_on_c, 0, 79, 68
2, 15840, Note_on_c, 0, 75, 68
2, 15840, Note_on_c, 0, 70, 68
2, 15960, Note_on_c, 0, 70, 0
2, 15960, Note_on_c, 0, 82, 0
2, 15960, Note_on_c, 0, 79, 0
2, 15960, Note_on_c, 0, 75, 0
2, 16080, Note_on_c, 0, 82, 80
2, 16080, Note_on_c, 0, 79, 68
2, 16080, Note_on_c, 0, 75, 68
2, 16080, Note_on_c, 0, 70, 68
2, 16200, Note_on_c, 0, 70, 0
2, 16200, Note_on_c, 0, 82, 0
2, 16200, Note_on_c, 0, 79, 0
2, 16200, Note_on_c, 0, 75, 0
2, 16320, Note_on_c, 0, 75, 77
2, 16320, Note_on_c, 0, 79, 77
2, 16320, Note_on_c, 0, 82, 91
2, 16560, Note_on_c, 0, 82, 0
2, 16560, Note_on_c, 0, 79, 0
2, 16560, Note_on_c, 0, 75, 0
2, 16800, Note_on_c, 0, 79, 77
2, 16800, Note_on_c, 0, 82, 91
2, 17040, Note_on_c, 0, 82, 0
2, 17040, Note_on_c, 0, 79, 0
2, 17280, Note_on_c, 0, 82, 91
2, 19200, Note_on_c, 0, 82, 0
2, 19200, Note_on_c, 0, 79, 68
2, 19200, Note_on_c, 0, 82, 80
2, 20160, Note_on_c, 0, 82, 0
2, 20160, Note_on_c, 0, 79, 0
2, 20160, Note_on_c, 0, 79, 68
2, 20160, Note_on_c, 0, 82, 80
2, 20880, Note_on_c, 0, 82, 0
2, 20880, Note_on_c, 0, 79, 0
2, 20880, Note_on_c, 0, 75, 72
2, 21120, Note_on_c, 0, 75, 0
2, 21120, Note_on_c, 0, 79, 68
2, 21120, Note_on_c, 0, 82, 80
2, 21840, Note_on_c, 0, 82, 0
2, 21840, Note_on_c, 0, 79, 0
2, 21840, Note_on_c, 0, 74, 72
2, 22080, Note_on_c, 0, 74, 0
2, 22080, Note_on_c, 0, 79, 74
2, 22080, Note_on_c, 0, 82, 88
2, 22560, Note_on_c, 0, 82, 0
2, 22560, Note_on_c, 0, 79, 0
2, 22560, Note_on_c, 0, 70, 76
2, 22680, Note_on_c, 0, 70, 0
2, 22680, Note_on_c, 0, 74, 68
2, 22800, Note_on_c, 0, 74, 0
2, 22800, Note_on_c, 0, 77, 81
2, 22920, Note_on_c, 0, 77, 0
2, 23040, Note_on_c, 0, 82, 88
2, 23040, Note_on_c, 0, 79, 74
2, 23280, Note_on_c, 0, 79, 0
2, 23280, Note_on_c, 0, 82, 0
2, 23280, Note_on_c, 0, 67, 74
2, 23400, Note_on_c, 0, 67, 0
2, 23400, Note_on_c, 0, 70, 76
2, 23520, Note_on_c, 0, 70, 0
2, 23520, Note_on_c, 0, 74, 88
2, 23640, Note_on_c, 0, 74, 0
2, 23760, Note_on_c, 0, 75, 81
2, 23880, Note_on_c, 0, 75, 0
2, 24000, Note_on_c, 0, 79, 78
2, 24000, Note_on_c, 0, 82, 92
2, 24240, Note_on_c, 0, 82, 0
2, 24240, Note_on_c, 0, 79, 0
2, 24240, Note_on_c, 0, 63, 87
2, 24360, Note_on_c, 0, 63, 0
2, 24360, Note_on_c, 0, 67, 88
2, 24480, Note_on_c, 0, 67, 0
2, 24480, Note_on_c, 0, 70, 96
2, 24600, Note_on_c, 0, 70, 0
2, 24720, Note_on_c, 0, 74, 103
2, 24720, Note_on_c, 0, 62, 87
2, 24840, Note_on_c, 0, 62, 0
2, 24840, Note_on_c, 0, 74, 0
2, 24960, Note_on_c, 0, 83, 112
2, 24960, Note_on_c, 0, 79, 94
2, 24960, Note_on_c, 0, 74, 94
2, 24960, Note_on_c, 0, 71, 94
2, 25440, Note_on_c, 0, 71, 0
2, 25440, Note_on_c, 0, 83, 0
2, 25440, Note_on_c, 0, 79, 0
2, 25440, Note_on_c, 0, 74, 0
2, 26160, Note_on_c, 0, 67, 52
2, 26160, Note_on_c, 0, 59, 44
2, 26280, Note_on_c, 0, 59, 0
2, 26280, Note_on_c, 0, 67, 0
2, 26400, Note_on_c, 0, 59, 46
2, 26400, Note_on_c, 0, 67, 55
2, 26520, Note_on_c, 0, 67, 0
2, 26520, Note_on_c, 0, 59, 0
2, 26640, Note_on_c, 0, 69, 46
2, 26640, Note_on_c, 0, 67, 39
2, 26640, Note_on_c, 0, 64, 39
2, 26760, Note_on_c, 0, 64, 0
2, 26760, Note_on_c, 0, 67, 0
2, 26760, Note_on_c, 0, 69, 0
2, 26880, Note_on_c, 0, 71, 51
2, 26880, Note_on_c, 0, 67, 43
2, 26880, Note_on_c, 0, 62, 43
2, 27000, Note_on_c, 0, 62, 0
2, 27000, Note_on_c, 0, 67, 0
2, 27000, Note_on_c, 0, 71, 0
2, 27120, Note_on_c, 0, 64, 36
2, 27120, Note_on_c, 0, 62, 30
2, 27120, Note_on_c, 0, 55, 30
2, 27240, Note_on_c, 0, 55, 0
2, 27240, Note_on_c, 0, 62, 0
2, 27240, Note_on_c, 0, 64, 0
2, 27360, Note_on_c, 0, 64, 36
2, 27360, Note_on_c, 0, 62, 30
2, 27360, Note_on_c, 0, 55, 30
2, 27480, Note_on_c, 0, 55, 0
2, 27480, Note_on_c, 0, 62, 0
2, 27480, Note_on_c, 0, 64, 0
2, 27600, Note_on_c, 0, 66, 35
2, 27600, Note_on_c, 0, 62, 29
2, 27600, Note_on_c, 0, 60, 29
2, 27720, Note_on_c, 0, 60, 0
2, 27720, Note_on_c, 0, 62, 0
2, 27720, Note_on_c, 0, 66, 0
2, 27840, Note_on_c, 0, 59, 31
2, 27840, Note_on_c, 0, 62, 31
2, 27840, Note_on_c, 0, 67, 37
2, 28080, Note_on_c, 0, 67, 0
2, 28080, Note_on_c, 0, 62, 0
2, 28080, Note_on_c, 0, 59, 0
2, 28080, Note_on_c, 0, 59, 39
2, 28080, Note_on_c, 0, 55, 33
2, 28200, Note_on_c, 0, 55, 0
2, 28200, Note_on_c, 0, 59, 0
2, 28200, Note_on_c, 0, 62, 30
2, 28320, Note_on_c, 0, 62, 0
2, 28320, Note_on_c, 0, 59, 41
2, 28320, Note_on_c, 0, 55, 34
2, 28440, Note_on_c, 0, 55, 0
2, 28440, Note_on_c, 0, 59, 0
2, 28440, Note_on_c, 0, 62, 30
2, 28560, Note_on_c, 0, 62, 0
2, 28560, Note_on_c, 0, 60, 48
2, 28560, Note_on_c, 0, 57, 40
2, 28680, Note_on_c, 0, 57, 0
2, 28680, Note_on_c, 0, 60, 0
2, 28680, Note_on_c, 0, 62, 30
2, 28800, Note_on_c, 0, 62, 0
2, 28800, Note_on_c, 0, 59, 41
2, 28800, Note_on_c, 0, 55, 34
2, 28920, Note_on_c, 0, 55, 0
2, 28920, Note_on_c, 0, 59, 0
2, 28920, Note_on_c, 0, 62, 30
2, 29040, Note_on_c, 0, 62, 0
2, 29040, Note_on_c, 0, 55, 33
2, 29040, Note_on_c, 0, 59, 39
2, 29160, Note_on_c, 0, 59, 0
2, 29160, Note_on_c, 0, 55, 0
2, 29160, Note_on_c, 0, 62, 30
2, 29280, Note_on_c, 0, 62, 0
2, 29280, Note_on_c, 0, 59, 40
2, 29280, Note_on_c, 0, 55, 34
2, 29400, Note_on_c, 0, 55, 0
2, 29400, Note_on_c, 0, 59, 0
2, 29400, Note_on_c, 0, 62, 30
2, 29520, Note_on_c, 0, 62, 0
2, 29520, Note_on_c, 0, 57, 39
2, 29520, Note_on_c, 0, 60, 47
2, 29640, Note_on_c, 0, 60, 0
2, 29640, Note_on_c, 0, 57, 0
2, 29640, Note_on_c, 0, 62, 30
2, 29760, Note_on_c, 0, 62, 0
2, 29760, Note_on_c, 0, 59, 41
2, 29760, Note_on_c, 0, 55, 34
2, 29880, Note_on_c, 0, 55, 0
2, 29880, Note_on_c, 0, 59, 0
2, 29880, Note_on_c, 0, 62, 30
2, 30000, Note_on_c, 0, 62, 0
2, 30000, Note_on_c, 0, 55, 33
2, 30000, Note_on_c, 0, 59, 39
2, 30120, Note_on_c, 0, 59, 0
2, 30120, Note_on_c, 0, 55, 0
2, 30120, Note_on_c, 0, 62, 30
2, 30240, Note_on_c, 0, 62, 0
2, 30240, Note_on_c, 0, 59, 40
2, 30240, Note_on_c, 0, 55, 34
2, 30360, Note_on_c, 0, 55, 0
2, 30360, Note_on_c, 0, 59, 0
2, 30360, Note_on_c, 0, 62, 30
2, 30480, Note_on_c, 0, 62, 0
2, 30480, Note_on_c, 0, 57, 39
2, 30480, Note_on_c, 0, 60, 47
2, 30600, Note_on_c, 0, 60, 0
2, 30600, Note_on_c, 0, 57, 0
2, 30600, Note_on_c, 0, 62, 30
2, 30720, Note_on_c, 0, 62, 0
2, 30720, Note_on_c, 0, 59, 41
2, 30720, Note_on_c, 0, 55, 34
2, 30840, Note_on_c, 0, 55, 0
2, 30840, Note_on_c, 0, 59, 0
2, 30840, Note_on_c, 0, 62, 30
2, 30960, Note_on_c, 0, 62, 0
2, 30960, Note_on_c, 0, 55, 33
2, 30960, Note_on_c, 0, 59, 39
2, 31080, Note_on_c, 0, 59, 0
2, 31080, Note_on_c, 0, 55, 0
2, 31080, Note_on_c, 0, 62, 30
2, 31200, Note_on_c, 0, 62, 0
2, 31200, Note_on_c, 0, 59, 40
2, 31200, Note_on_c, 0, 55, 34
2, 31320, Note_on_c, 0, 55, 0
2, 31320, Note_on_c, 0, 59, 0
2, 31320, Note_on_c, 0, 62, 30
2, 31440, Note_on_c, 0, 62, 0
2, 31440, Note_on_c, 0, 57, 39
2, 31440, Note_on_c, 0, 60, 47
2, 31560, Note_on_c, 0, 60, 0
2, 31560, Note_on_c, 0, 57, 0
2, 31560, Note_on_c, 0, 62, 30
2, 31680, Note_on_c, 0, 62, 0
2, 31680, Note_on_c, 0, 55, 34
2, 31680, Note_on_c, 0, 59, 41
2, 31800, Note_on_c, 0, 59, 0
2, 31800, Note_on_c, 0, 55, 0
2, 31800, Note_on_c, 0, 62, 33
2, 31920, Note_on_c, 0, 62, 0
2, 31920, Note_on_c, 0, 59, 44
2, 31920, Note_on_c, 0, 55, 37
2, 32040, Note_on_c, 0, 55, 0
2, 32040, Note_on_c, 0, 59, 0
2, 32040, Note_on_c, 0, 67, 39
2, 32160, Note_on_c, 0, 67, 0
2, 32160, Note_on_c, 0, 60, 45
2, 32160, Note_on_c, 0, 57, 38
2, 32280, Note_on_c, 0, 57, 0
2, 32280, Note_on_c, 0, 60, 0
2, 32280, Note_on_c, 0, 67, 41
2, 32400, Note_on_c, 0, 67, 0
2, 32400, Note_on_c, 0, 59, 38
2, 32400, Note_on_c, 0, 62, 45
2, 32520, Note_on_c, 0, 62, 0
2, 32520, Note_on_c, 0, 59, 0
2, 32520, Note_on_c, 0, 67, 40
2, 32640, Note_on_c, 0, 67, 0
2, 32640, Note_on_c, 0, 60, 39
2, 32640, Note_on_c, 0, 64, 46
2, 32760, Note_on_c, 0, 64, 0
2, 32760, Note_on_c, 0, 60, 0
2, 32760, Note_on_c, 0, 67, 42
2, 32880, Note_on_c, 0, 67, 0
2, 32880, Note_on_c, 0, 62, 40
2, 32880, Note_on_c, 0, 66, 49
2, 33000, Note_on_c, 0, 66, 0
2, 33000, Note_on_c, 0, 62, 0
2, 33000, Note_on_c, 0, 74, 43
2, 33120, Note_on_c, 0, 74, 0
2, 33120, Note_on_c, 0, 67, 52
2, 33120, Note_on_c, 0, 64, 44
2, 33240, Note_on_c, 0, 64, 0
2, 33240, Note_on_c, 0, 67, 0
2, 33240, Note_on_c, 0, 74, 44
2, 33360, Note_on_c, 0, 74, 0
2, 33360, Note_on_c, 0, 69, 54
2, 33360, Note_on_c, 0, 66, 45
2, 33480, Note_on_c, 0, 66, 0
2, 33480, Note_on_c, 0, 69, 0
2, 33480, Note_on_c, 0, 74, 50
2, 33600, Note_on_c, 0, 74, 0
2, 33600, Note_on_c, 0, 71, 57
2, 33600, Note_on_c, 0, 67, 47
2, 33720, Note_on_c, 0, 67, 0
2, 33720, Note_on_c, 0, 71, 0
2, 33720, Note_on_c, 0, 74, 50
2, 33840, Note_on_c, 0, 74, 0
2, 33840, Note_on_c, 0, 71, 61
2, 33840, Note_on_c, 0, 67, 51
2, 33960, Note_on_c, 0, 67, 0
2, 33960, Note_on_c, 0, 71, 0
2, 33960, Note_on_c, 0, 79, 53
2, 34080, Note_on_c, 0, 79, 0
2, 34080, Note_on_c, 0, 72, 62
2, 34080, Note_on_c, 0, 69, 52
2, 34200, Note_on_c, 0, 69, 0
2, 34200, Note_on_c, 0, 72, 0
2, 34200, Note_on_c, 0, 79, 57
2, 34320, Note_on_c, 0, 79, 0
2, 34320, Note_on_c, 0, 71, 53
2, 34320, Note_on_c, 0, 74, 63
2, 34440, Note_on_c, 0, 74, 0
2, 34440, Note_on_c, 0, 71, 0
2, 34440, Note_on_c, 0, 79, 57
2, 34560, Note_on_c, 0, 79, 0
2, 34560, Note_on_c, 0, 76, 64
2, 34560, Note_on_c, 0, 72, 53
2, 34680, Note_on_c, 0, 72, 0
2, 34680, Note_on_c, 0, 76, 0
2, 34680, Note_on_c, 0, 79, 59
2, 34800, Note_on_c, 0, 79, 0
2, 34800, Note_on_c, 0, 74, 57
2, 34800, Note_on_c, 0, 78, 67
2, 34920, Note_on_c, 0, 78, 0
2, 34920, Note_on_c, 0, 74, 0
2, 34920, Note_on_c, 0, 86, 64
2, 35040, Note_on_c, 0, 86, 0
2, 35040, Note_on_c, 0, 79, 73
2, 35040, Note_on_c, 0, 76, 61
2, 35160, Note_on_c, 0, 76, 0
2, 35160, Note_on_c, 0, 79, 0
2, 35160, Note_on_c, 0, 86, 67
2, 35280, Note_on_c, 0, 86, 0
2, 35280, Note_on_c, 0, 81, 74
2, 35280, Note_on_c, 0, 78, 62
2, 35400, Note_on_c, 0, 78, 0
2, 35400, Note_on_c, 0, 81, 0
2, 35400, Note_on_c, 0, 86, 68
2, 35520, Note_on_c, 0, 86, 0
2, 35520, Note_on_c, 0, 83, 82
2, 35520, Note_on_c, 0, 79, 69
2, 35640, Note_on_c, 0, 79, 0
2, 35640, Note_on_c, 0, 83, 0
2, 35640, Note_on_c, 0, 86, 59
2, 35760, Note_on_c, 0, 86, 0
2, 35760, Note_on_c, 0, 81, 53
2, 35760, Note_on_c, 0, 78, 34
2, 35760, Note_on_c, 0, 74, 34
2, 35880, Note_on_c, 0, 74, 0
2, 35880, Note_on_c, 0, 78, 0
2, 35880, Note_on_c, 0, 81, 0
2, 35880, Note_on_c, 0, 82, 43
2, 35880, Note_on_c, 0, 88, 51
2, 36000, Note_on_c, 0, 88, 0
2, 36000, Note_on_c, 0, 82, 0
2, 36000, Note_on_c, 0, 79, 56
2, 36000, Note_on_c, 0, 83, 66
2, 36120, Note_on_c, 0, 83, 0
2, 36120, Note_on_c, 0, 79, 0
2, 36120, Note_on_c, 0, 84, 49
2, 36120, Note_on_c, 0, 86, 58
2, 36240, Note_on_c, 0, 86, 0
2, 36240, Note_on_c, 0, 84, 0
2, 36240, Note_on_c, 0, 81, 51
2, 36240, Note_on_c, 0, 78, 31
2, 36240, Note_on_c, 0, 74, 31
2, 36360, Note_on_c, 0, 74, 0
2, 36360, Note_on_c, 0, 78, 0
2, 36360, Note_on_c, 0, 81, 0
2, 36360, Note_on_c, 0, 82, 40
2, 36360, Note_on_c, 0, 88, 48
2, 36480, Note_on_c, 0, 88, 0
2, 36480, Note_on_c, 0, 82, 0
2, 36480, Note_on_c, 0, 83, 70
2, 36480, Note_on_c, 0, 79, 50
2, 36600, Note_on_c, 0, 79, 0
2, 36600, Note_on_c, 0, 83, 0
2, 36600, Note_on_c, 0, 86, 64
2, 36600, Note_on_c, 0, 84, 54
2, 36720, Note_on_c, 0, 84, 0
2, 36720, Note_on_c, 0, 86, 0
2, 36720, Note_on_c, 0, 81, 57
2, 36720, Note_on_c, 0, 78, 48
2, 36720, Note_on_c, 0, 74, 48
2, 36840, Note_on_c, 0, 74, 0
2, 36840, Note_on_c, 0, 78, 0
2, 36840, Note_on_c, 0, 81, 0
2, 36840, Note_on_c, 0, 82, 45
2, 36840, Note_on_c, 0, 88, 55
2, 36960, Note_on_c, 0, 88, 0
2, 36960, Note_on_c, 0, 82, 0
2, 36960, Note_on_c, 0, 79, 53
2, 36960, Note_on_c, 0, 83, 73
2, 37080, Note_on_c, 0, 83, 0
2, 37080, Note_on_c, 0, 79, 0
2, 37080, Note_on_c, 0, 84, 52
2, 37080, Note_on_c, 0, 86, 61
2, 37200, Note_on_c, 0, 86, 0
2, 37200, Note_on_c, 0, 84, 0
2, 37200, Note_on_c, 0, 81, 60
2, 37200, Note_on_c, 0, 78, 51
2, 37200, Note_on_c, 0, 74, 51
2, 37320, Note_on_c, 0, 74, 0
2, 37320, Note_on_c, 0, 78, 0
2, 37320, Note_on_c, 0, 81, 0
2, 37320, Note_on_c, 0, 82, 51
2, 37320, Note_on_c, 0, 88, 61
2, 37440, Note_on_c, 0, 88, 0
2, 37440, Note_on_c, 0, 82, 0
2, 37440, Note_on_c, 0, 79, 58
2, 37440, Note_on_c, 0, 83, 91
2, 37680, Note_on_c, 0, 83, 0
2, 37680, Note_on_c, 0, 79, 0
2, 37680, Note_on_c, 0, 86, 80
2, 37680, Note_on_c, 0, 83, 68
2, 37680, Note_on_c, 0, 79, 68
2, 37680, Note_on_c, 0, 74, 68
2, 37800, Note_on_c, 0, 74, 0
2, 37800, Note_on_c, 0, 86, 0
2, 37800, Note_on_c, 0, 83, 0
2, 37800, Note_on_c, 0, 79, 0
2, 37920, Note_on_c, 0, 86, 80
2, 37920, Note_on_c, 0, 83, 68
2, 37920, Note_on_c, 0, 79, 68
2, 37920, Note_on_c, 0, 74, 68
2, 38040, Note_on_c, 0, 74, 0
2, 38040, Note_on_c, 0, 86, 0
2, 38040, Note_on_c, 0, 83, 0
2, 38040, Note_on_c, 0, 79, 0
2, 38160, Note_on_c, 0, 86, 80
2, 38160, Note_on_c, 0, 83, 68
2, 38160, Note_on_c, 0, 79, 68
2, 38160, Note_on_c, 0, 74, 68
2, 38280, Note_on_c, 0, 74, 0
2, 38280, Note_on_c, 0, 86, 0
2, 38280, Note_on_c, 0, 83, 0
2, 38280, Note_on_c, 0, 79, 0
2, 38400, Note_on_c, 0, 79, 77
2, 38400, Note_on_c, 0, 83, 77
2, 38400, Note_on_c, 0, 86, 91
2, 38640, Note_on_c, 0, 86, 0
2, 38640, Note_on_c, 0, 83, 0
2, 38640, Note_on_c, 0, 79, 0
2, 38880, Note_on_c, 0, 83, 77
2, 38880, Note_on_c, 0, 86, 91
2, 39120, Note_on_c, 0, 86, 0
2, 39120, Note_on_c, 0, 83, 0
2, 39360, Note_on_c, 0, 86, 91
2, 40800, Note_on_c, 0, 86, 0
2, 40800, Note_on_c, 0, 79, 45
2, 40800, Note_on_c, 0, 83, 54
2, 40920, Note_on_c, 0, 83, 0
2, 40920, Note_on_c, 0, 79, 0
2, 40920, Note_on_c, 0, 81, 47
2, 40920, Note_on_c, 0, 84, 56
2, 41040, Note_on_c, 0, 84, 0
2, 41040, Note_on_c, 0, 81, 0
2, 41040, Note_on_c, 0, 82, 51
2, 41040, Note_on_c, 0, 85, 60
2, 41160, Note_on_c, 0, 85, 0
2, 41160, Note_on_c, 0, 82, 0
2, 41160, Note_on_c, 0, 83, 52
2, 41160, Note_on_c, 0, 86, 62
2, 41280, Note_on_c, 0, 86, 0
2, 41280, Note_on_c, 0, 83, 0
2, 41280, Note_on_c, 0, 84, 54
2, 41280, Note_on_c, 0, 87, 54
2, 41280, Note_on_c, 0, 91, 64
2, 41400, Note_on_c, 0, 91, 0
2, 41400, Note_on_c, 0, 87, 0
2, 41400, Note_on_c, 0, 84, 0
2, 41760, Note_on_c, 0, 74, 36
2, 41760, Note_on_c, 0, 79, 36
2, 41760, Note_on_c, 0, 83, 43
2, 41880, Note_on_c, 0, 83, 0
2, 41880, Note_on_c, 0, 79, 0
2, 41880, Note_on_c, 0, 74, 0
2, 42240, Note_on_c, 0, 75, 41
2, 42240, Note_on_c, 0, 80, 41
2, 42240, Note_on_c, 0, 84, 49
2, 42720, Note_on_c, 0, 75, 0
2, 42720, Note_on_c, 0, 74, 44
2, 42840, Note_on_c, 0, 74, 0
2, 42840, Note_on_c, 0, 75, 48
2, 42960, Note_on_c, 0, 75, 0
2, 42960, Note_on_c, 0, 77, 52
2, 43080, Note_on_c, 0, 77, 0
2, 43080, Note_on_c, 0, 78, 54
2, 43200, Note_on_c, 0, 78, 0
2, 43200, Note_on_c, 0, 84, 0
2, 43200, Note_on_c, 0, 80, 0
2, 43200, Note_on_c, 0, 79, 47
2, 43200, Note_on_c, 0, 74, 47
2, 43200, Note_on_c, 0, 82, 56
2, 43320, Note_on_c, 0, 82, 0
2, 43320, Note_on_c, 0, 74, 0
2, 43320, Note_on_c, 0, 79, 0
2, 43680, Note_on_c, 0, 70, 42
2, 43680, Note_on_c, 0, 75, 42
2, 43680, Note_on_c, 0, 79, 50
2, 43800, Note_on_c, 0, 79, 0
2, 43800, Note_on_c, 0, 75, 0
2, 43800, Note_on_c, 0, 70, 0
2, 44160, Note_on_c, 0, 67, 42
2, 44160, Note_on_c, 0, 72, 42
2, 44160, Note_on_c, 0, 75, 50
2, 44400, Note_on_c, 0, 75, 0
2, 44400, Note_on_c, 0, 72, 0
2, 44400, Note_on_c, 0, 67, 0
2, 44640, Note_on_c, 0, 65, 42
2, 44640, Note_on_c, 0, 68, 50
2, 44640, Note_on_c, 0, 60, 42
2, 44760, Note_on_c, 0, 60, 0
2, 44760, Note_on_c, 0, 68, 0
2, 44760, Note_on_c, 0, 65, 0
2, 44880, Note_on_c, 0, 70, 56
2, 44880, Note_on_c, 0, 67, 47
2, 44880, Note_on_c, 0, 62, 47
2, 45000, Note_on_c, 0, 62, 0
2, 45000, Note_on_c, 0, 67, 0
2, 45000, Note_on_c, 0, 70, 0
2, 45120, Note_on_c, 0, 72, 63
2, 45120, Note_on_c, 0, 68, 53
2, 45120, Note_on_c, 0, 63, 53
2, 45600, Note_on_c, 0, 62, 46
2, 45720, Note_on_c, 0, 62, 0
2, 45720, Note_on_c, 0, 63, 47
2, 45840, Note_on_c, 0, 63, 0
2, 45840, Note_on_c, 0, 64, 48
2, 45960, Note_on_c, 0, 64, 0
2, 45960, Note_on_c, 0, 65, 52
2, 46080, Note_on_c, 0, 65, 0
2, 46080, Note_on_c, 0, 63, 0
2, 46080, Note_on_c, 0, 68, 0
2, 46080, Note_on_c, 0, 72, 0
2, 46080, Note_on_c, 0, 66, 55
2, 46560, Note_on_c, 0, 66, 0
2, 46560, Note_on_c, 0, 62, 42
2, 46560, Note_on_c, 0, 67, 42
2, 46560, Note_on_c, 0, 70, 50
2, 47520, Note_on_c, 0, 70, 0
2, 47520, Note_on_c, 0, 67, 0
2, 47520, Note_on_c, 0, 62, 0
2, 47520, Note_on_c, 0, 67, 33
2, 47520, Note_on_c, 0, 61, 28
2, 47520, Note_on_c, 0, 58, 28
2, 47640, Note_on_c, 0, 58, 0
2, 47640, Note_on_c, 0, 61, 0
2, 47640, Note_on_c, 0, 67, 0
2, 48000, Note_on_c, 0, 72, 43
2, 48000, Note_on_c, 0, 68, 36
2, 48000, Note_on_c, 0, 63, 36
2, 48000, Note_on_c, 0, 60, 36
2, 48960, Note_on_c, 0, 60, 0
2, 48960, Note_on_c, 0, 72, 0
2, 48960, Note_on_c, 0, 68, 0
2, 48960, Note_on_c, 0, 63, 0
2, 48960, Note_on_c, 0, 67, 33
2, 48960, Note_on_c, 0, 60, 28
2, 48960, Note_on_c, 0, 55, 28
2, 49920, Note_on_c, 0, 55, 0
2, 49920, Note_on_c, 0, 60, 0
2, 49920, Note_on_c, 0, 67, 0
2, 49920, Note_on_c, 0, 72, 40
2, 49920, Note_on_c, 0, 68, 34
2, 49920, Note_on_c, 0, 63, 34
2, 49920, Note_on_c, 0, 60, 34
2, 50640, Note_on_c, 0, 60, 0
2, 50640, Note_on_c, 0, 72, 0
2, 50640, Note_on_c, 0, 68, 0
2, 50640, Note_on_c, 0, 63, 0
2, 51600, Note_on_c, 0, 51, 34
2, 51600, Note_on_c, 0, 63, 41
2, 51600, Note_on_c, 0, 56, 41
2, 51720, Note_on_c, 0, 56, 0
2, 51720, Note_on_c, 0, 58, 48
2, 51840, Note_on_c, 0, 58, 0
2, 51840, Note_on_c, 0, 63, 0
2, 51840, Note_on_c, 0, 51, 0
2, 51840, Note_on_c, 0, 63, 49
2, 51840, Note_on_c, 0, 60, 41
2, 51840, Note_on_c, 0, 51, 41
2, 51960, Note_on_c, 0, 51, 0
2, 51960, Note_on_c, 0, 60, 0
2, 51960, Note_on_c, 0, 63, 0
2, 52080, Note_on_c, 0, 56, 34
2, 52080, Note_on_c, 0, 68, 41
2, 52080, Note_on_c, 0, 65, 34
2, 52200, Note_on_c, 0, 65, 0
2, 52200, Note_on_c, 0, 68, 0
2, 52200, Note_on_c, 0, 56, 0
2, 52320, Note_on_c, 0, 68, 45
2, 52320, Note_on_c, 0, 63, 38
2, 52320, Note_on_c, 0, 56, 38
2, 52440, Note_on_c, 0, 56, 0
2, 52440, Note_on_c, 0, 63, 0
2, 52440, Note_on_c, 0, 68, 0
2, 52560, Note_on_c, 0, 60, 34
2, 52560, Note_on_c, 0, 68, 34
2, 52560, Note_on_c, 0, 72, 41
2, 52680, Note_on_c, 0, 72, 0
2, 52680, Note_on_c, 0, 68, 0
2, 52680, Note_on_c, 0, 60, 0
2, 52800, Note_on_c, 0, 60, 42
2, 52800, Note_on_c, 0, 68, 42
2, 52800, Note_on_c, 0, 72, 50
2, 53040, Note_on_c, 0, 60, 0
2, 53040, Note_on_c, 0, 60, 24
2, 53040, Note_on_c, 0, 62, 29
2, 53160, Note_on_c, 0, 62, 0
2, 53160, Note_on_c, 0, 60, 0
2, 53280, Note_on_c, 0, 60, 24
2, 53280, Note_on_c, 0, 62, 29
2, 53400, Note_on_c, 0, 62, 0
2, 53400, Note_on_c, 0, 60, 0
2, 53520, Note_on_c, 0, 72, 0
2, 53520, Note_on_c, 0, 68, 0
2, 53520, Note_on_c, 0, 51, 37
2, 53520, Note_on_c, 0, 63, 45
2, 53520, Note_on_c, 0, 56, 45
2, 53640, Note_on_c, 0, 56, 0
2, 53640, Note_on_c, 0, 58, 52
2, 53760, Note_on_c, 0, 58, 0
2, 53760, Note_on_c, 0, 63, 0
2, 53760, Note_on_c, 0, 51, 0
2, 53760, Note_on_c, 0, 63, 53
2, 53760, Note_on_c, 0, 60, 45
2, 53760, Note_on_c, 0, 51, 45
2, 53880, Note_on_c, 0, 51, 0
2, 53880, Note_on_c, 0, 60, 0
2, 53880, Note_on_c, 0, 63, 0
2, 54000, Note_on_c, 0, 56, 37
2, 54000, Note_on_c, 0, 68, 45
2, 54000, Note_on_c, 0, 65, 37
2, 54120, Note_on_c, 0, 65, 0
2, 54120, Note_on_c, 0, 68, 0
2, 54120, Note_on_c, 0, 56, 0
2, 54240, Note_on_c, 0, 68, 49
2, 54240, Note_on_c, 0, 63, 41
2, 54240, Note_on_c, 0, 56, 41
2, 54360, Note_on_c, 0, 56, 0
2, 54360, Note_on_c, 0, 63, 0
2, 54360, Note_on_c, 0, 68, 0
2, 54480, Note_on_c, 0, 60, 37
2, 54480, Note_on_c, 0, 68, 37
2, 54480, Note_on_c, 0, 72, 45
2, 54600, Note_on_c, 0, 72, 0
2, 54600, Note_on_c, 0, 68, 0
2, 54600, Note_on_c, 0, 60, 0
2, 54720, Note_on_c, 0, 60, 46
2, 54720, Note_on_c, 0, 68, 46
2, 54720, Note_on_c, 0, 72, 55
2, 54960, Note_on_c, 0, 60, 0
2, 54960, Note_on_c, 0, 60, 26
2, 54960, Note_on_c, 0, 62, 31
2, 55080, Note_on_c, 0, 62, 0
2, 55080, Note_on_c, 0, 60, 0
2, 55200, Note_on_c, 0, 60, 26
2, 55200, Note_on_c, 0, 62, 31
2, 55320, Note_on_c, 0, 62, 0
2, 55320, Note_on_c, 0, 60, 0
2, 55440, Note_on_c, 0, 72, 0
2, 55440, Note_on_c, 0, 68, 0
2, 55440, Note_on_c, 0, 68, 56
2, 55440, Note_on_c, 0, 74, 56
2, 55560, Note_on_c, 0, 74, 0
2, 55560, Note_on_c, 0, 68, 0
2, 55560, Note_on_c, 0, 70, 59
2, 55680, Note_on_c, 0, 70, 0
2, 55680, Note_on_c, 0, 75, 62
2, 55680, Note_on_c, 0, 72, 62
2, 55920, Note_on_c, 0, 84, 67
2, 56040, Note_on_c, 0, 84, 0
2, 56040, Note_on_c, 0, 79, 63
2, 56160, Note_on_c, 0, 79, 0
2, 56160, Note_on_c, 0, 77, 70
2, 56400, Note_on_c, 0, 77, 0
2, 56400, Note_on_c, 0, 72, 0
2, 56400, Note_on_c, 0, 75, 0
2, 56400, Note_on_c, 0, 68, 56
2, 56400, Note_on_c, 0, 74, 56
2, 56520, Note_on_c, 0, 68, 0
2, 56520, Note_on_c, 0, 70, 59
2, 56640, Note_on_c, 0, 70, 0
2, 56640, Note_on_c, 0, 74, 0
2, 56640, Note_on_c, 0, 75, 62
2, 56640, Note_on_c, 0, 72, 62
2, 56880, Note_on_c, 0, 84, 67
2, 57000, Note_on_c, 0, 84, 0
2, 57000, Note_on_c, 0, 79, 63
2, 57120, Note_on_c, 0, 79, 0
2, 57120, Note_on_c, 0, 77, 70
2, 57360, Note_on_c, 0, 77, 0
2, 57360, Note_on_c, 0, 72, 0
2, 57360, Note_on_c, 0, 75, 0
2, 57360, Note_on_c, 0, 68, 56
2, 57360, Note_on_c, 0, 74, 56
2, 57480, Note_on_c, 0, 68, 0
2, 57480, Note_on_c, 0, 70, 59
2, 57600, Note_on_c, 0, 70, 0
2, 57600, Note_on_c, 0, 74, 0
2, 57600, Note_on_c, 0, 75, 62
2, 57600, Note_on_c, 0, 72, 62
2, 57840, Note_on_c, 0, 72, 0
2, 57840, Note_on_c, 0, 80, 62
2, 57840, Note_on_c, 0, 84, 62
2, 57840, Note_on_c, 0, 72, 62
2, 58080, Note_on_c, 0, 72, 0
2, 58080, Note_on_c, 0, 84, 0
2, 58080, Note_on_c, 0, 80, 0
2, 58080, Note_on_c, 0, 72, 65
2, 58080, Note_on_c, 0, 80, 65
2, 58080, Note_on_c, 0, 84, 65
2, 58320, Note_on_c, 0, 84, 0
2, 58320, Note_on_c, 0, 75, 0
2, 58320, Note_on_c, 0, 72, 0
2, 58320, Note_on_c, 0, 80, 0
2, 58320, Note_on_c, 0, 85, 66
2, 58320, Note_on_c, 0, 84, 66
2, 58320, Note_on_c, 0, 80, 66
2, 58320, Note_on_c, 0, 73, 66
2, 58560, Note_on_c, 0, 73, 0
2, 58560, Note_on_c, 0, 85, 0
2, 58560, Note_on_c, 0, 84, 0
2, 58560, Note_on_c, 0, 80, 0
2, 58560, Note_on_c, 0, 85, 70
2, 58560, Note_on_c, 0, 84, 70
2, 58560, Note_on_c, 0, 80, 70
2, 58560, Note_on_c, 0, 73, 70
2, 58800, Note_on_c, 0, 73, 0
2, 58800, Note_on_c, 0, 85, 0
2, 58800, Note_on_c, 0, 84, 0
2, 58800, Note_on_c, 0, 80, 0
2, 58800, Note_on_c, 0, 86, 72
2, 58800, Note_on_c, 0, 84, 72
2, 58800, Note_on_c, 0, 80, 72
2, 58800, Note_on_c, 0, 74, 72
2, 59040, Note_on_c, 0, 74, 0
2, 59040, Note_on_c, 0, 86, 0
2, 59040, Note_on_c, 0, 84, 0
2, 59040, Note_on_c, 0, 80, 0
2, 59040, Note_on_c, 0, 86, 77
2, 59040, Note_on_c, 0, 84, 77
2, 59040, Note_on_c, 0, 80, 77
2, 59280, Note_on_c, 0, 80, 0
2, 59280, Note_on_c, 0, 84, 0
2, 59280, Note_on_c, 0, 86, 0
2, 59280, Note_on_c, 0, 87, 79
2, 59280, Note_on_c, 0, 84, 79
2, 59520, Note_on_c, 0, 84, 0
2, 59520, Note_on_c, 0, 87, 0
2, 59520, Note_on_c, 0, 87, 97
2, 59760, Note_on_c, 0, 87, 0
2, 60000, Note_on_c, 0, 63, 77
2, 60000, Note_on_c, 0, 72, 77
2, 60000, Note_on_c, 0, 67, 77
2, 60000, Note_on_c, 0, 75, 90
2, 60360, Note_on_c, 0, 75, 0
2, 60360, Note_on_c, 0, 63, 0
2, 60360, Note_on_c, 0, 72, 0
2, 60360, Note_on_c, 0, 67, 0
2, 60480, Note_on_c, 0, 63, 97
2, 60960, Note_on_c, 0, 63, 0
2, 60960, Note_on_c, 0, 59, 71
2, 60960, Note_on_c, 0, 63, 71
2, 60960, Note_on_c, 0, 67, 71
2, 60960, Note_on_c, 0, 71, 85
2, 61440, Note_on_c, 0, 71, 0
2, 61440, Note_on_c, 0, 59, 0
2, 61440, Note_on_c, 0, 63, 0
2, 61440, Note_on_c, 0, 67, 0
2, 61920, Note_on_c, 0, 75, 76
2, 61920, Note_on_c, 0, 72, 64
2, 61920, Note_on_c, 0, 67, 64
2, 61920, Note_on_c, 0, 63, 64
2, 62400, Note_on_c, 0, 63, 0
2, 62400, Note_on_c, 0, 75, 0
2, 62400, Note_on_c, 0, 72, 0
2, 62400, Note_on_c, 0, 67, 0
2, 63120, Note_on_c, 0, 55, 34
2, 63120, Note_on_c, 0, 67, 41
2, 63120, Note_on_c, 0, 60, 41
2, 63240, Note_on_c, 0, 60, 0
2, 63240, Note_on_c, 0, 62, 48
2, 63360, Note_on_c, 0, 62, 0
2, 63360, Note_on_c, 0, 67, 0
2, 63360, Note_on_c, 0, 55, 0
2, 63360, Note_on_c, 0, 67, 49
2, 63360, Note_on_c, 0, 63, 41
2, 63360, Note_on_c, 0, 55, 41
2, 63480, Note_on_c, 0, 55, 0
2, 63480, Note_on_c, 0, 63, 0
2, 63480, Note_on_c, 0, 67, 0
2, 63600, Note_on_c, 0, 60, 34
2, 63600, Note_on_c, 0, 72, 41
2, 63600, Note_on_c, 0, 66, 34
2, 63720, Note_on_c, 0, 66, 0
2, 63720, Note_on_c, 0, 72, 0
2, 63720, Note_on_c, 0, 60, 0
2, 63840, Note_on_c, 0, 72, 45
2, 63840, Note_on_c, 0, 67, 38
2, 63840, Note_on_c, 0, 60, 38
2, 63960, Note_on_c, 0, 60, 0
2, 63960, Note_on_c, 0, 67, 0
2, 63960, Note_on_c, 0, 72, 0
2, 64080, Note_on_c, 0, 63, 34
2, 64080, Note_on_c, 0, 72, 34
2, 64080, Note_on_c, 0, 75, 41
2, 64200, Note_on_c, 0, 75, 0
2, 64200, Note_on_c, 0, 72, 0
2, 64200, Note_on_c, 0, 63, 0
2, 64320, Note_on_c, 0, 63, 42
2, 64320, Note_on_c, 0, 72, 42
2, 64320, Note_on_c, 0, 75, 50
2, 64560, Note_on_c, 0, 63, 0
2, 64560, Note_on_c, 0, 63, 24
2, 64560, Note_on_c, 0, 65, 29
2, 64680, Note_on_c, 0, 65, 0
2, 64680, Note_on_c, 0, 63, 0
2, 64800, Note_on_c, 0, 63, 24
2, 64800, Note_on_c, 0, 65, 29
2, 64920, Note_on_c, 0, 65, 0
2, 64920, Note_on_c, 0, 63, 0
2, 65040, Note_on_c, 0, 75, 0
2, 65040, Note_on_c, 0, 72, 0
2, 65040, Note_on_c, 0, 54, 40
2, 65040, Note_on_c, 0, 66, 49
2, 65040, Note_on_c, 0, 59, 49
2, 65160, Note_on_c, 0, 59, 0
2, 65160, Note_on_c, 0, 61, 57
2, 65280, Note_on_c, 0, 61, 0
2, 65280, Note_on_c, 0, 66, 0
2, 65280, Note_on_c, 0, 54, 0
2, 65280, Note_on_c, 0, 66, 59
2, 65280, Note_on_c, 0, 63, 50
2, 65280, Note_on_c, 0, 54, 50
2, 65400, Note_on_c, 0, 54, 0
2, 65400, Note_on_c, 0, 63, 0
2, 65400, Note_on_c, 0, 66, 0
2, 65520, Note_on_c, 0, 59, 42
2, 65520, Note_on_c, 0, 71, 51
2, 65520, Note_on_c, 0, 64, 42
2, 65640, Note_on_c, 0, 64, 0
2, 65640, Note_on_c, 0, 71, 0
2, 65640, Note_on_c, 0, 59, 0
2, 65760, Note_on_c, 0, 71, 57
2, 65760, Note_on_c, 0, 66, 48
2, 65760, Note_on_c, 0, 59, 48
2, 65880, Note_on_c, 0, 59, 0
2, 65880, Note_on_c, 0, 66, 0
2, 65880, Note_on_c, 0, 71, 0
2, 66000, Note_on_c, 0, 63, 44
2, 66000, Note_on_c, 0, 71, 44
2, 66000, Note_on_c, 0, 75, 54
2, 66120, Note_on_c, 0, 75, 0
2, 66120, Note_on_c, 0, 71, 0
2, 66120, Note_on_c, 0, 63, 0
2, 66240, Note_on_c, 0, 63, 56
2, 66240, Note_on_c, 0, 72, 56
2, 66240, Note_on_c, 0, 75, 67
2, 66480, Note_on_c, 0, 63, 0
2, 66480, Note_on_c, 0, 63, 32
2, 66480, Note_on_c, 0, 65, 39
2, 66600, Note_on_c, 0, 65, 0
2, 66600, Note_on_c, 0, 63, 0
2, 66720, Note_on_c, 0, 63, 33
2, 66720, Note_on_c, 0, 65, 39
2, 66840, Note_on_c, 0, 65, 0
2, 66840, Note_on_c, 0, 63, 0
2, 66960, Note_on_c, 0, 75, 0
2, 66960, Note_on_c, 0, 72, 0
2, 66960, Note_on_c, 0, 71, 56
2, 66960, Note_on_c, 0, 77, 66
2, 67080, Note_on_c, 0, 77, 0
2, 67080, Note_on_c, 0, 71, 0
2, 67080, Note_on_c, 0, 73, 69
2, 67200, Note_on_c, 0, 73, 0
2, 67200, Note_on_c, 0, 71, 62
2, 67200, Note_on_c, 0, 78, 73
2, 67200, Note_on_c, 0, 75, 62
2, 67440, Note_on_c, 0, 87, 78
2, 67560, Note_on_c, 0, 87, 0
2, 67560, Note_on_c, 0, 82, 74
2, 67680, Note_on_c, 0, 82, 0
2, 67680, Note_on_c, 0, 87, 78
2, 67680, Note_on_c, 0, 80, 71
2, 67800, Note_on_c, 0, 87, 0
2, 67920, Note_on_c, 0, 75, 0
2, 67920, Note_on_c, 0, 71, 0
2, 67920, Note_on_c, 0, 78, 0
2, 67920, Note_on_c, 0, 80, 0
2, 67920, Note_on_c, 0, 71, 59
2, 67920, Note_on_c, 0, 77, 70
2, 68040, Note_on_c, 0, 71, 0
2, 68040, Note_on_c, 0, 73, 73
2, 68160, Note_on_c, 0, 73, 0
2, 68160, Note_on_c, 0, 77, 0
2, 68160, Note_on_c, 0, 71, 65
2, 68160, Note_on_c, 0, 78, 77
2, 68160, Note_on_c, 0, 75, 65
2, 68400, Note_on_c, 0, 87, 83
2, 68520, Note_on_c, 0, 87, 0
2, 68520, Note_on_c, 0, 82, 78
2, 68640, Note_on_c, 0, 82, 0
2, 68640, Note_on_c, 0, 87, 83
2, 68640, Note_on_c, 0, 80, 72
2, 68760, Note_on_c, 0, 87, 0
2, 68880, Note_on_c, 0, 75, 0
2, 68880, Note_on_c, 0, 71, 0
2, 68880, Note_on_c, 0, 78, 0
2, 68880, Note_on_c, 0, 80, 0
2, 68880, Note_on_c, 0, 71, 70
2, 68880, Note_on_c, 0, 77, 70
2, 69000, Note_on_c, 0, 71, 0
2, 69000, Note_on_c, 0, 73, 73
2, 69120, Note_on_c, 0, 73, 0
2, 69120, Note_on_c, 0, 77, 0
2, 69120, Note_on_c, 0, 71, 65
2, 69120, Note_on_c, 0, 78, 77
2, 69120, Note_on_c, 0, 75, 65
2, 69360, Note_on_c, 0, 62, 55
2, 69360, Note_on_c, 0, 74, 66
2, 69480, Note_on_c, 0, 74, 0
2, 69480, Note_on_c, 0, 62, 0
2, 69480, Note_on_c, 0, 63, 58
2, 69480, Note_on_c, 0, 75, 69
2, 69600, Note_on_c, 0, 75, 0
2, 69600, Note_on_c, 0, 71, 0
2, 69600, Note_on_c, 0, 75, 0
2, 69600, Note_on_c, 0, 78, 0
2, 69600, Note_on_c, 0, 63, 0
2, 69600, Note_on_c, 0, 66, 61
2, 69600, Note_on_c, 0, 78, 72
2, 69720, Note_on_c, 0, 78, 0
2, 69720, Note_on_c, 0, 66, 0
2, 69720, Note_on_c, 0, 68, 61
2, 69720, Note_on_c, 0, 80, 73
2, 69840, Note_on_c, 0, 80, 0
2, 69840, Note_on_c, 0, 68, 0
2, 69840, Note_on_c, 0, 71, 63
2, 69840, Note_on_c, 0, 83, 75
2, 69960, Note_on_c, 0, 83, 0
2, 69960, Note_on_c, 0, 71, 0
2, 69960, Note_on_c, 0, 75, 66
2, 69960, Note_on_c, 0, 87, 78
2, 70080, Note_on_c, 0, 87, 0
2, 70080, Note_on_c, 0, 75, 0
2, 70080, Note_on_c, 0, 78, 80
2, 70080, Note_on_c, 0, 90, 94
2, 70200, Note_on_c, 0, 90, 0
2, 70200, Note_on_c, 0, 78, 0
2, 70320, Note_on_c, 0, 56, 73
2, 70440, Note_on_c, 0, 56, 0
2, 70440, Note_on_c, 0, 59, 64
2, 70560, Note_on_c, 0, 59, 0
2, 70560, Note_on_c, 0, 63, 77
2, 70680, Note_on_c, 0, 63, 0
2, 70800, Note_on_c, 0, 66, 73
2, 70920, Note_on_c, 0, 66, 0
2, 71040, Note_on_c, 0, 71, 72
2, 71280, Note_on_c, 0, 71, 0
2, 71280, Note_on_c, 0, 75, 85
2, 71280, Note_on_c, 0, 63, 71
2, 71400, Note_on_c, 0, 63, 0
2, 71400, Note_on_c, 0, 75, 0
2, 71520, Note_on_c, 0, 79, 80
2, 71520, Note_on_c, 0, 75, 67
2, 71520, Note_on_c, 0, 67, 67
2, 71520, Note_on_c, 0, 71, 67
2, 72000, Note_on_c, 0, 71, 0
2, 72000, Note_on_c, 0, 72, 80
2, 72240, Note_on_c, 0, 79, 0
2, 72240, Note_on_c, 0, 67, 0
2, 72240, Note_on_c, 0, 75, 0
2, 72240, Note_on_c, 0, 67, 63
2, 72240, Note_on_c, 0, 79, 76
2, 72360, Note_on_c, 0, 79, 0
2, 72360, Note_on_c, 0, 67, 0
2, 72480, Note_on_c, 0, 72, 0
2, 72480, Note_on_c, 0, 71, 68
2, 72480, Note_on_c, 0, 75, 68
2, 72480, Note_on_c, 0, 79, 68
2, 72480, Note_on_c, 0, 83, 81
2, 73200, Note_on_c, 0, 83, 0
2, 73200, Note_on_c, 0, 71, 0
2, 73200, Note_on_c, 0, 75, 0
2, 73200, Note_on_c, 0, 79, 0
2, 73200, Note_on_c, 0, 83, 77
2, 73200, Note_on_c, 0, 71, 65
2, 73320, Note_on_c, 0, 71, 0
2, 73320, Note_on_c, 0, 83, 0
2, 73440, Note_on_c, 0, 87, 91
2, 73440, Note_on_c, 0, 83, 77
2, 73440, Note_on_c, 0, 75, 77
2, 73440, Note_on_c, 0, 79, 77
2, 73920, Note_on_c, 0, 83, 0
2, 73920, Note_on_c, 0, 84, 87
2, 74160, Note_on_c, 0, 84, 0
2, 74160, Note_on_c, 0, 79, 0
2, 74160, Note_on_c, 0, 75, 0
2, 74160, Note_on_c, 0, 87, 0
2, 74160, Note_on_c, 0, 87, 77
2, 74160, Note_on_c, 0, 75, 65
2, 74280, Note_on_c, 0, 75, 0
2, 74280, Note_on_c, 0, 87, 0
2, 74400, Note_on_c, 0, 91, 98
2, 74400, Note_on_c, 0, 87, 98
2, 74400, Note_on_c, 0, 83, 83
2, 74400, Note_on_c, 0, 79, 83
2, 74760, Note_on_c, 0, 79, 0
2, 74760, Note_on_c, 0, 91, 0
2, 74760, Note_on_c, 0, 87, 0
2, 74760, Note_on_c, 0, 83, 0
2, 74880, Note_on_c, 0, 75, 73
2, 74880, Note_on_c, 0, 70, 73
2, 74880, Note_on_c, 0, 79, 73
2, 74880, Note_on_c, 0, 82, 86
2, 75120, Note_on_c, 0, 82, 0
2, 75120, Note_on_c, 0, 75, 0
2, 75120, Note_on_c, 0, 70, 0
2, 75120, Note_on_c, 0, 79, 0
2, 75120, Note_on_c, 0, 80, 65
2, 75120, Note_on_c, 0, 75, 65
2, 75120, Note_on_c, 0, 72, 65
2, 75240, Note_on_c, 0, 72, 0
2, 75240, Note_on_c, 0, 75, 0
2, 75240, Note_on_c, 0, 80, 0
2, 75240, Note_on_c, 0, 82, 61
2, 75360, Note_on_c, 0, 82, 0
2, 75360, Note_on_c, 0, 79, 69
2, 75360, Note_on_c, 0, 75, 69
2, 75360, Note_on_c, 0, 70, 69
2, 75480, Note_on_c, 0, 70, 0
2, 75480, Note_on_c, 0, 75, 0
2, 75480, Note_on_c, 0, 79, 0
2, 75480, Note_on_c, 0, 82, 60
2, 75600, Note_on_c, 0, 82, 0
2, 75600, Note_on_c, 0, 75, 64
2, 75600, Note_on_c, 0, 77, 64
2, 75600, Note_on_c, 0, 68, 64
2, 75720, Note_on_c, 0, 68, 0
2, 75720, Note_on_c, 0, 77, 0
2, 75720, Note_on_c, 0, 75, 0
2, 75720, Note_on_c, 0, 82, 57
2, 75840, Note_on_c, 0, 82, 0
2, 75840, Note_on_c, 0, 70, 70
2, 75840, Note_on_c, 0, 75, 70
2, 75840, Note_on_c, 0, 79, 70
2, 75960, Note_on_c, 0, 79, 0
2, 75960, Note_on_c, 0, 75, 0
2, 75960, Note_on_c, 0, 70, 0
2, 75960, Note_on_c, 0, 82, 57
2, 76080, Note_on_c, 0, 82, 0
2, 76080, Note_on_c, 0, 80, 64
2, 76080, Note_on_c, 0, 75, 64
2, 76080, Note_on_c, 0, 72, 64
2, 76200, Note_on_c, 0, 72, 0
2, 76200, Note_on_c, 0, 75, 0
2, 76200, Note_on_c, 0, 80, 0
2, 76200, Note_on_c, 0, 82, 57
2, 76320, Note_on_c, 0, 82, 0
2, 76320, Note_on_c, 0, 79, 62
2, 76320, Note_on_c, 0, 75, 62
2, 76320, Note_on_c, 0, 70, 62
2, 76440, Note_on_c, 0, 70, 0
2, 76440, Note_on_c, 0, 75, 0
2, 76440, Note_on_c, 0, 79, 0
2, 76440, Note_on_c, 0, 82, 54
2, 76560, Note_on_c, 0, 82, 0
2, 76560, Note_on_c, 0, 75, 63
2, 76560, Note_on_c, 0, 77, 63
2, 76560, Note_on_c, 0, 68, 63
2, 76680, Note_on_c, 0, 68, 0
2, 76680, Note_on_c, 0, 77, 0
2, 76680, Note_on_c, 0, 75, 0
2, 76680, Note_on_c, 0, 82, 55
2, 76800, Note_on_c, 0, 82, 0
2, 76800, Note_on_c, 0, 70, 70
2, 76800, Note_on_c, 0, 75, 70
2, 76800, Note_on_c, 0, 79, 70
2, 76920, Note_on_c, 0, 79, 0
2, 76920, Note_on_c, 0, 75, 0
2, 76920, Note_on_c, 0, 70, 0
2, 76920, Note_on_c, 0, 82, 57
2, 77040, Note_on_c, 0, 82, 0
2, 77040, Note_on_c, 0, 80, 64
2, 77040, Note_on_c, 0, 75, 64
2, 77040, Note_on_c, 0, 72, 64
2, 77160, Note_on_c, 0, 72, 0
2, 77160, Note_on_c, 0, 75, 0
2, 77160, Note_on_c, 0, 80, 0
2, 77160, Note_on_c, 0, 82, 57
2, 77280, Note_on_c, 0, 82, 0
2, 77280, Note_on_c, 0, 79, 62
2, 77280, Note_on_c, 0, 75, 62
2, 77280, Note_on_c, 0, 70, 62
2, 77400, Note_on_c, 0, 70, 0
2, 77400, Note_on_c, 0, 75, 0
2, 77400, Note_on_c, 0, 79, 0
2, 77400, Note_on_c, 0, 82, 54
2, 77520, Note_on_c, 0, 82, 0
2, 77520, Note_on_c, 0, 75, 63
2, 77520, Note_on_c, 0, 77, 63
2, 77520, Note_on_c, 0, 68, 63
2, 77640, Note_on_c, 0, 68, 0
2, 77640, Note_on_c, 0, 77, 0
2, 77640, Note_on_c, 0, 75, 0
2, 77640, Note_on_c, 0, 82, 55
2, 77760, Note_on_c, 0, 82, 0
2, 77760, Note_on_c, 0, 70, 70
2, 77760, Note_on_c, 0, 75, 70
2, 77760, Note_on_c, 0, 79, 70
2, 77880, Note_on_c, 0, 79, 0
2, 77880, Note_on_c, 0, 75, 0
2, 77880, Note_on_c, 0, 70, 0
2, 77880, Note_on_c, 0, 82, 57
2, 78000, Note_on_c, 0, 82, 0
2, 78000, Note_on_c, 0, 80, 64
2, 78000, Note_on_c, 0, 75, 64
2, 78000, Note_on_c, 0, 72, 64
2, 78120, Note_on_c, 0, 72, 0
2, 78120, Note_on_c, 0, 75, 0
2, 78120, Note_on_c, 0, 80, 0
2, 78120, Note_on_c, 0, 82, 57
2, 78240, Note_on_c, 0, 82, 0
2, 78240, Note_on_c, 0, 79, 62
2, 78240, Note_on_c, 0, 75, 62
2, 78240, Note_on_c, 0, 70, 62
2, 78360, Note_on_c, 0, 70, 0
2, 78360, Note_on_c, 0, 75, 0
2, 78360, Note_on_c, 0, 79, 0
2, 78360, Note_on_c, 0, 82, 54
2, 78480, Note_on_c, 0, 82, 0
2, 78480, Note_on_c, 0, 75, 63
2, 78480, Note_on_c, 0, 77, 63
2, 78480, Note_on_c, 0, 68, 63
2, 78600, Note_on_c, 0, 68, 0
2, 78600, Note_on_c, 0, 77, 0
2, 78600, Note_on_c, 0, 75, 0
2, 78600, Note_on_c, 0, 82, 55
2, 78720, Note_on_c, 0, 82, 0
2, 78720, Note_on_c, 0, 70, 70
2, 78720, Note_on_c, 0, 75, 70
2, 78720, Note_on_c, 0, 79, 70
2, 78960, Note_on_c, 0, 79, 0
2, 78960, Note_on_c, 0, 75, 0
2, 78960, Note_on_c, 0, 70, 0
2, 78960, Note_on_c, 0, 62, 70
2, 78960, Note_on_c, 0, 67, 70
2, 79080, Note_on_c, 0, 67, 0
2, 79080, Note_on_c, 0, 62, 0
2, 79080, Note_on_c, 0, 63, 70
2, 79200, Note_on_c, 0, 63, 0
2, 79200, Note_on_c, 0, 66, 70
2, 79200, Note_on_c, 0, 70, 70
2, 79320, Note_on_c, 0, 70, 0
2, 79320, Note_on_c, 0, 66, 0
2, 79320, Note_on_c, 0, 67, 70
2, 79440, Note_on_c, 0, 67, 0
2, 79440, Note_on_c, 0, 72, 70
2, 79440, Note_on_c, 0, 75, 70
2, 79560, Note_on_c, 0, 75, 0
2, 79560, Note_on_c, 0, 72, 0
2, 79560, Note_on_c, 0, 70, 70
2, 79680, Note_on_c, 0, 70, 0
2, 79680, Note_on_c, 0, 79, 70
2, 79680, Note_on_c, 0, 75, 70
2, 79800, Note_on_c, 0, 75, 0
2, 79800, Note_on_c, 0, 79, 0
2, 79800, Note_on_c, 0, 69, 70
2, 79920, Note_on_c, 0, 69, 0
2, 79920, Note_on_c, 0, 66, 70
2, 79920, Note_on_c, 0, 70, 70
2, 80040, Note_on_c, 0, 70, 0
2, 80040, Note_on_c, 0, 66, 0
2, 80040, Note_on_c, 0, 67, 70
2, 80160, Note_on_c, 0, 67, 0
2, 80160, Note_on_c, 0, 72, 70
2, 80160, Note_on_c, 0, 75, 70
2, 80280, Note_on_c, 0, 75, 0
2, 80280, Note_on_c, 0, 72, 0
2, 80280, Note_on_c, 0, 70, 70
2, 80400, Note_on_c, 0, 70, 0
2, 80400, Note_on_c, 0, 75, 70
2, 80400, Note_on_c, 0, 79, 70
2, 80520, Note_on_c, 0, 79, 0
2, 80520, Note_on_c, 0, 75, 0
2, 80520, Note_on_c, 0, 74, 70
2, 80640, Note_on_c, 0, 74, 0
2, 80640, Note_on_c, 0, 82, 70
2, 80640, Note_on_c, 0, 79, 70
2, 80640, Note_on_c, 0, 75, 70
2, 80880, Note_on_c, 0, 75, 0
2, 80880, Note_on_c, 0, 79, 0
2, 80880, Note_on_c, 0, 82, 0
2, 80880, Note_on_c, 0, 74, 68
2, 80880, Note_on_c, 0, 79, 68
2, 81000, Note_on_c, 0, 79, 0
2, 81000, Note_on_c, 0, 74, 0
2, 81000, Note_on_c, 0, 75, 61
2, 81120, Note_on_c, 0, 75, 0
2, 81120, Note_on_c, 0, 78, 68
2, 81120, Note_on_c, 0, 82, 68
2, 81240, Note_on_c, 0, 82, 0
2, 81240, Note_on_c, 0, 78, 0
2, 81240, Note_on_c, 0, 79, 60
2, 81360, Note_on_c, 0, 79, 0
2, 81360, Note_on_c, 0, 87, 68
2, 81360, Note_on_c, 0, 84, 68
2, 81480, Note_on_c, 0, 84, 0
2, 81480, Note_on_c, 0, 87, 0
2, 81480, Note_on_c, 0, 82, 62
2, 81600, Note_on_c, 0, 82, 0
2, 81600, Note_on_c, 0, 91, 68
2, 81600, Note_on_c, 0, 87, 68
2, 81720, Note_on_c, 0, 87, 0
2, 81720, Note_on_c, 0, 91, 0
2, 81720, Note_on_c, 0, 81, 61
2, 81840, Note_on_c, 0, 81, 0
2, 81840, Note_on_c, 0, 78, 68
2, 81840, Note_on_c, 0, 82, 68
2, 81960, Note_on_c, 0, 82, 0
2, 81960, Note_on_c, 0, 78, 0
2, 81960, Note_on_c, 0, 79, 62
2, 82080, Note_on_c, 0, 79, 0
2, 82080, Note_on_c, 0, 87, 68
2, 82080, Note_on_c, 0, 84, 68
2, 82200, Note_on_c, 0, 84, 0
2, 82200, Note_on_c, 0, 87, 0
2, 82200, Note_on_c, 0, 82, 58
2, 82320, Note_on_c, 0, 82, 0
2, 82320, Note_on_c, 0, 87, 75
2, 82320, Note_on_c, 0, 91, 75
2, 82440, Note_on_c, 0, 91, 0
2, 82440, Note_on_c, 0, 87, 0
2, 82440, Note_on_c, 0, 86, 65
2, 82560, Note_on_c, 0, 86, 0
2, 82560, Note_on_c, 0, 94, 87
2, 82560, Note_on_c, 0, 91, 73
2, 82560, Note_on_c, 0, 87, 73
2, 82800, Note_on_c, 0, 87, 0
2, 82800, Note_on_c, 0, 91, 0
2, 82800, Note_on_c, 0, 94, 0
2, 83520, Note_on_c, 0, 68, 83
2, 83520, Note_on_c, 0, 70, 83
2, 83520, Note_on_c, 0, 74, 83
2, 83520, Note_on_c, 0, 77, 100
2, 83520, Note_on_c, 0, 82, 100
2, 84000, Note_on_c, 0, 82, 0
2, 84000, Note_on_c, 0, 74, 0
2, 84000, Note_on_c, 0, 68, 0
2, 84000, Note_on_c, 0, 70, 0
2, 84000, Note_on_c, 0, 77, 0
2, 84720, Note_on_c, 0, 87, 70
2, 84720, Note_on_c, 0, 82, 59
2, 84720, Note_on_c, 0, 79, 59
2, 84840, Note_on_c, 0, 79, 0
2, 84840, Note_on_c, 0, 82, 0
2, 84840, Note_on_c, 0, 87, 0
2, 84840, Note_on_c, 0, 91, 63
2, 84960, Note_on_c, 0, 91, 0
2, 84960, Note_on_c, 0, 87, 70
2, 84960, Note_on_c, 0, 82, 59
2, 84960, Note_on_c, 0, 79, 59
2, 85080, Note_on_c, 0, 79, 0
2, 85080, Note_on_c, 0, 82, 0
2, 85080, Note_on_c, 0, 87, 0
2, 85080, Note_on_c, 0, 91, 65
2, 85200, Note_on_c, 0, 91, 0
2, 85200, Note_on_c, 0, 89, 70
2, 85200, Note_on_c, 0, 87, 59
2, 85200, Note_on_c, 0, 80, 59
2, 85320, Note_on_c, 0, 80, 0
2, 85320, Note_on_c, 0, 87, 0
2, 85320, Note_on_c, 0, 89, 0
2, 85320, Note_on_c, 0, 92, 63
2, 85440, Note_on_c, 0, 92, 0
2, 85440, Note_on_c, 0, 91, 70
2, 85440, Note_on_c, 0, 87, 59
2, 85440, Note_on_c, 0, 82, 59
2, 85560, Note_on_c, 0, 82, 0
2, 85560, Note_on_c, 0, 87, 0
2, 85560, Note_on_c, 0, 91, 0
2, 85560, Note_on_c, 0, 94, 64
2, 85680, Note_on_c, 0, 94, 0
2, 85680, Note_on_c, 0, 87, 70
2, 85680, Note_on_c, 0, 82, 59
2, 85680, Note_on_c, 0, 79, 59
2, 85800, Note_on_c, 0, 79, 0
2, 85800, Note_on_c, 0, 82, 0
2, 85800, Note_on_c, 0, 87, 0
2, 85800, Note_on_c, 0, 91, 63
2, 85920, Note_on_c, 0, 91, 0
2, 85920, Note_on_c, 0, 87, 70
2, 85920, Note_on_c, 0, 82, 59
2, 85920, Note_on_c, 0, 79, 59
2, 86040, Note_on_c, 0, 79, 0
2, 86040, Note_on_c, 0, 82, 0
2, 86040, Note_on_c, 0, 87, 0
2, 86040, Note_on_c, 0, 91, 65
2, 86160, Note_on_c, 0, 91, 0
2, 86160, Note_on_c, 0, 89, 70
2, 86160, Note_on_c, 0, 87, 59
2, 86160, Note_on_c, 0, 80, 59
2, 86280, Note_on_c, 0, 80, 0
2, 86280, Note_on_c, 0, 87, 0
2, 86280, Note_on_c, 0, 89, 0
2, 86280, Note_on_c, 0, 92, 63
2, 86400, Note_on_c, 0, 92, 0
2, 86400, Note_on_c, 0, 91, 70
2, 86400, Note_on_c, 0, 87, 59
2, 86400, Note_on_c, 0, 82, 59
2, 86520, Note_on_c, 0, 82, 0
2, 86520, Note_on_c, 0, 87, 0
2, 86520, Note_on_c, 0, 91, 0
2, 86520, Note_on_c, 0, 94, 64
2, 86640, Note_on_c, 0, 94, 0
2, 86640, Note_on_c, 0, 87, 70
2, 86640, Note_on_c, 0, 82, 59
2, 86640, Note_on_c, 0, 79, 59
2, 86760, Note_on_c, 0, 79, 0
2, 86760, Note_on_c, 0, 82, 0
2, 86760, Note_on_c, 0, 87, 0
2, 86760, Note_on_c, 0, 91, 63
2, 86880, Note_on_c, 0, 91, 0
2, 86880, Note_on_c, 0, 87, 70
2, 86880, Note_on_c, 0, 82, 59
2, 86880, Note_on_c, 0, 79, 59
2, 87000, Note_on_c, 0, 79, 0
2, 87000, Note_on_c, 0, 82, 0
2, 87000, Note_on_c, 0, 87, 0
2, 87000, Note_on_c, 0, 91, 65
2, 87120, Note_on_c, 0, 91, 0
2, 87120, Note_on_c, 0, 89, 70
2, 87120, Note_on_c, 0, 87, 59
2, 87120, Note_on_c, 0, 80, 59
2, 87240, Note_on_c, 0, 80, 0
2, 87240, Note_on_c, 0, 87, 0
2, 87240, Note_on_c, 0, 89, 0
2, 87240, Note_on_c, 0, 92, 63
2, 87360, Note_on_c, 0, 92, 0
2, 87360, Note_on_c, 0, 91, 70
2, 87360, Note_on_c, 0, 87, 59
2, 87360, Note_on_c, 0, 82, 59
2, 87480, Note_on_c, 0, 82, 0
2, 87480, Note_on_c, 0, 87, 0
2, 87480, Note_on_c, 0, 91, 0
2, 87480, Note_on_c, 0, 94, 64
2, 87600, Note_on_c, 0, 94, 0
2, 87600, Note_on_c, 0, 87, 70
2, 87600, Note_on_c, 0, 82, 59
2, 87600, Note_on_c, 0, 79, 59
2, 87720, Note_on_c, 0, 79, 0
2, 87720, Note_on_c, 0, 82, 0
2, 87720, Note_on_c, 0, 87, 0
2, 87720, Note_on_c, 0, 91, 63
2, 87840, Note_on_c, 0, 91, 0
2, 87840, Note_on_c, 0, 87, 70
2, 87840, Note_on_c, 0, 82, 59
2, 87840, Note_on_c, 0, 79, 59
2, 87960, Note_on_c, 0, 79, 0
2, 87960, Note_on_c, 0, 82, 0
2, 87960, Note_on_c, 0, 87, 0
2, 87960, Note_on_c, 0, 91, 65
2, 88080, Note_on_c, 0, 91, 0
2, 88080, Note_on_c, 0, 89, 70
2, 88080, Note_on_c, 0, 87, 59
2, 88080, Note_on_c, 0, 80, 59
2, 88200, Note_on_c, 0, 80, 0
2, 88200, Note_on_c, 0, 87, 0
2, 88200, Note_on_c, 0, 89, 0
2, 88200, Note_on_c, 0, 92, 63
2, 88320, Note_on_c, 0, 92, 0
2, 88320, Note_on_c, 0, 91, 70
2, 88320, Note_on_c, 0, 87, 59
2, 88320, Note_on_c, 0, 82, 59
2, 88440, Note_on_c, 0, 82, 0
2, 88440, Note_on_c, 0, 87, 0
2, 88440, Note_on_c, 0, 91, 0
2, 88440, Note_on_c, 0, 94, 64
2, 88560, Note_on_c, 0, 94, 0
2, 88560, Note_on_c, 0, 87, 70
2, 88560, Note_on_c, 0, 82, 59
2, 88560, Note_on_c, 0, 79, 59
2, 88680, Note_on_c, 0, 79, 0
2, 88680, Note_on_c, 0, 82, 0
2, 88680, Note_on_c, 0, 87, 0
2, 88680, Note_on_c, 0, 91, 63
2, 88800, Note_on_c, 0, 91, 0
2, 88800, Note_on_c, 0, 87, 70
2, 88800, Note_on_c, 0, 82, 59
2, 88800, Note_on_c, 0, 79, 59
2, 88920, Note_on_c, 0, 79, 0
2, 88920, Note_on_c, 0, 82, 0
2, 88920, Note_on_c, 0, 87, 0
2, 88920, Note_on_c, 0, 91, 65
2, 89040, Note_on_c, 0, 91, 0
2, 89040, Note_on_c, 0, 89, 70
2, 89040, Note_on_c, 0, 87, 59
2, 89040, Note_on_c, 0, 80, 59
2, 89160, Note_on_c, 0, 80, 0
2, 89160, Note_on_c, 0, 87, 0
2, 89160, Note_on_c, 0, 89, 0
2, 89160, Note_on_c, 0, 92, 63
2, 89280, Note_on_c, 0, 92, 0
2, 89280, Note_on_c, 0, 91, 70
2, 89280, Note_on_c, 0, 87, 59
2, 89280, Note_on_c, 0, 82, 59
2, 89400, Note_on_c, 0, 82, 0
2, 89400, Note_on_c, 0, 87, 0
2, 89400, Note_on_c, 0, 91, 0
2, 89400, Note_on_c, 0, 94, 64
2, 89520, Note_on_c, 0, 94, 0
2, 89520, Note_on_c, 0, 75, 70
2, 89520, Note_on_c, 0, 82, 70
2, 89640, Note_on_c, 0, 82, 0
2, 89640, Note_on_c, 0, 75, 0
2, 89640, Note_on_c, 0, 87, 61
2, 89760, Note_on_c, 0, 87, 0
2, 89760, Note_on_c, 0, 82, 70
2, 89760, Note_on_c, 0, 75, 70
2, 89880, Note_on_c, 0, 75, 0
2, 89880, Note_on_c, 0, 82, 0
2, 89880, Note_on_c, 0, 87, 63
2, 90000, Note_on_c, 0, 87, 0
2, 90000, Note_on_c, 0, 74, 70
2, 90000, Note_on_c, 0, 75, 70
2, 90000, Note_on_c, 0, 82, 70
2, 90120, Note_on_c, 0, 82, 0
2, 90120, Note_on_c, 0, 75, 0
2, 90120, Note_on_c, 0, 74, 0
2, 90120, Note_on_c, 0, 86, 60
2, 90240, Note_on_c, 0, 86, 0
2, 90240, Note_on_c, 0, 82, 65
2, 90240, Note_on_c, 0, 75, 65
2, 90240, Note_on_c, 0, 74, 65
2, 90360, Note_on_c, 0, 74, 0
2, 90360, Note_on_c, 0, 75, 0
2, 90360, Note_on_c, 0, 82, 0
2, 90360, Note_on_c, 0, 86, 59
2, 90480, Note_on_c, 0, 86, 0
2, 90480, Note_on_c, 0, 80, 63
2, 90480, Note_on_c, 0, 75, 63
2, 90480, Note_on_c, 0, 72, 63
2, 90600, Note_on_c, 0, 72, 0
2, 90600, Note_on_c, 0, 75, 0
2, 90600, Note_on_c, 0, 80, 0
2, 90600, Note_on_c, 0, 84, 57
2, 90720, Note_on_c, 0, 84, 0
2, 90720, Note_on_c, 0, 80, 65
2, 90720, Note_on_c, 0, 75, 65
2, 90720, Note_on_c, 0, 72, 65
2, 90840, Note_on_c, 0, 72, 0
2, 90840, Note_on_c, 0, 75, 0
2, 90840, Note_on_c, 0, 80, 0
2, 90840, Note_on_c, 0, 84, 57
2, 90960, Note_on_c, 0, 84, 0
2, 90960, Note_on_c, 0, 79, 64
2, 90960, Note_on_c, 0, 75, 64
2, 90960, Note_on_c, 0, 70, 64
2, 91080, Note_on_c, 0, 70, 0
2, 91080, Note_on_c, 0, 75, 0
2, 91080, Note_on_c, 0, 79, 0
2, 91080, Note_on_c, 0, 82, 56
2, 91200, Note_on_c, 0, 82, 0
2, 91200, Note_on_c, 0, 79, 65
2, 91200, Note_on_c, 0, 75, 65
2, 91200, Note_on_c, 0, 70, 65
2, 91320, Note_on_c, 0, 70, 0
2, 91320, Note_on_c, 0, 75, 0
2, 91320, Note_on_c, 0, 79, 0
2, 91320, Note_on_c, 0, 82, 57
2, 91440, Note_on_c, 0, 82, 0
2, 91440, Note_on_c, 0, 68, 62
2, 91440, Note_on_c, 0, 75, 62
2, 91560, Note_on_c, 0, 75, 0
2, 91560, Note_on_c, 0, 68, 0
2, 91560, Note_on_c, 0, 80, 57
2, 91680, Note_on_c, 0, 80, 0
2, 91680, Note_on_c, 0, 68, 66
2, 91680, Note_on_c, 0, 75, 66
2, 91800, Note_on_c, 0, 75, 0
2, 91800, Note_on_c, 0, 68, 0
2, 91800, Note_on_c, 0, 80, 57
2, 91920, Note_on_c, 0, 80, 0
2, 91920, Note_on_c, 0, 75, 63
2, 91920, Note_on_c, 0, 67, 63
2, 92040, Note_on_c, 0, 67, 0
2, 92040, Note_on_c, 0, 75, 0
2, 92040, Note_on_c, 0, 79, 54
2, 92160, Note_on_c, 0, 79, 0
2, 92160, Note_on_c, 0, 70, 63
2, 92280, Note_on_c, 0, 70, 0
2, 92280, Note_on_c, 0, 65, 55
2, 92400, Note_on_c, 0, 65, 0
2, 92400, Note_on_c, 0, 72, 63
2, 92400, Note_on_c, 0, 70, 63
2, 92520, Note_on_c, 0, 70, 0
2, 92520, Note_on_c, 0, 72, 0
2, 92520, Note_on_c, 0, 60, 55
2, 92640, Note_on_c, 0, 60, 0
2, 92640, Note_on_c, 0, 72, 59
2, 92640, Note_on_c, 0, 70, 59
2, 92760, Note_on_c, 0, 70, 0
2, 92760, Note_on_c, 0, 72, 0
2, 92760, Note_on_c, 0, 60, 50
2, 92880, Note_on_c, 0, 60, 0
2, 92880, Note_on_c, 0, 74, 58
2, 92880, Note_on_c, 0, 68, 58
2, 93000, Note_on_c, 0, 68, 0
2, 93000, Note_on_c, 0, 74, 0
2, 93000, Note_on_c, 0, 62, 53
2, 93120, Note_on_c, 0, 62, 0
2, 93120, Note_on_c, 0, 75, 57
2, 93120, Note_on_c, 0, 67, 57
2, 93240, Note_on_c, 0, 67, 0
2, 93240, Note_on_c, 0, 75, 0
2, 93240, Note_on_c, 0, 63, 50
2, 93360, Note_on_c, 0, 63, 0
2, 93360, Note_on_c, 0, 75, 57
2, 93360, Note_on_c, 0, 70, 57
2, 93480, Note_on_c, 0, 70, 0
2, 93480, Note_on_c, 0, 75, 0
2, 93480, Note_on_c, 0, 63, 50
2, 93600, Note_on_c, 0, 63, 0
2, 93600, Note_on_c, 0, 75, 55
2, 93600, Note_on_c, 0, 70, 55
2, 93720, Note_on_c, 0, 70, 0
2, 93720, Note_on_c, 0, 75, 0
2, 93720, Note_on_c, 0, 63, 48
2, 93840, Note_on_c, 0, 63, 0
2, 93840, Note_on_c, 0, 77, 56
2, 93840, Note_on_c, 0, 70, 56
2, 93960, Note_on_c, 0, 70, 0
2, 93960, Note_on_c, 0, 77, 0
2, 93960, Note_on_c, 0, 65, 51
2, 94080, Note_on_c, 0, 65, 0
2, 94080, Note_on_c, 0, 79, 57
2, 94080, Note_on_c, 0, 67, 57
2, 94190, Note_on_c, 0, 67, 0
2, 94190, Note_on_c, 0, 79, 0
2, 94200, Note_on_c, 0, 67, 49
2, 94310, Note_on_c, 0, 67, 0
2, 94320, Note_on_c, 0, 67, 56
2, 94320, Note_on_c, 0, 63, 56
2, 94440, Note_on_c, 0, 63, 0
2, 94440, Note_on_c, 0, 67, 0
2, 94440, Note_on_c, 0, 58, 48
2, 94560, Note_on_c, 0, 58, 0
2, 94560, Note_on_c, 0, 67, 55
2, 94560, Note_on_c, 0, 63, 55
2, 94680, Note_on_c, 0, 63, 0
2, 94680, Note_on_c, 0, 67, 0
2, 94680, Note_on_c, 0, 58, 49
2, 94800, Note_on_c, 0, 58, 0
2, 94800, Note_on_c, 0, 65, 57
2, 94800, Note_on_c, 0, 68, 57
2, 94920, Note_on_c, 0, 68, 0
2, 94920, Note_on_c, 0, 65, 0
2, 94920, Note_on_c, 0, 60, 49
2, 95040, Note_on_c, 0, 60, 0
2, 95040, Note_on_c, 0, 70, 59
2, 95040, Note_on_c, 0, 67, 59
2, 95160, Note_on_c, 0, 67, 0
2, 95160, Note_on_c, 0, 70, 0
2, 95160, Note_on_c, 0, 62, 50
2, 95280, Note_on_c, 0, 62, 0
2, 95280, Note_on_c, 0, 63, 58
2, 95280, Note_on_c, 0, 60, 58
2, 95400, Note_on_c, 0, 60, 0
2, 95400, Note_on_c, 0, 63, 0
2, 95400, Note_on_c, 0, 55, 51
2, 95520, Note_on_c, 0, 55, 0
2, 95520, Note_on_c, 0, 63, 57
2, 95520, Note_on_c, 0, 60, 57
2, 95640, Note_on_c, 0, 60, 0
2, 95640, Note_on_c, 0, 63, 0
2, 95640, Note_on_c, 0, 53, 48
2, 95760, Note_on_c, 0, 53, 0
2, 95760, Note_on_c, 0, 63, 56
2, 95760, Note_on_c, 0, 65, 56
2, 95880, Note_on_c, 0, 65, 0
2, 95880, Note_on_c, 0, 63, 0
2, 95880, Note_on_c, 0, 60, 48
2, 96000, Note_on_c, 0, 60, 0
2, 96000, Note_on_c, 0, 67, 53
2, 96000, Note_on_c, 0, 63, 53
2, 96120, Note_on_c, 0, 63, 0
2, 96120, Note_on_c, 0, 67, 0
2, 96120, Note_on_c, 0, 58, 46
2, 96240, Note_on_c, 0, 58, 0
2, 96240, Note_on_c, 0, 60, 52
2, 96360, Note_on_c, 0, 60, 0
2, 96360, Note_on_c, 0, 57, 45
2, 96480, Note_on_c, 0, 57, 0
2, 96480, Note_on_c, 0, 60, 49
2, 96600, Note_on_c, 0, 60, 0
2, 96600, Note_on_c, 0, 56, 42
2, 96720, Note_on_c, 0, 56, 0
2, 96720, Note_on_c, 0, 62, 46
2, 96840, Note_on_c, 0, 62, 0
2, 96840, Note_on_c, 0, 58, 40
2, 96960, Note_on_c, 0, 58, 0
2, 96960, Note_on_c, 0, 55, 45
2, 96960, Note_on_c, 0, 63, 54
2, 97200, Note_on_c, 0, 63, 0
2, 97200, Note_on_c, 0, 55, 0
2, 97200, Note_on_c, 0, 51, 31
2, 97200, Note_on_c, 0, 55, 37
2, 97320, Note_on_c, 0, 55, 0
2, 97320, Note_on_c, 0, 51, 0
2, 97320, Note_on_c, 0, 58, 31
2, 97440, Note_on_c, 0, 58, 0
2, 97440, Note_on_c, 0, 51, 31
2, 97440, Note_on_c, 0, 55, 37
2, 97560, Note_on_c, 0, 55, 0
2, 97560, Note_on_c, 0, 51, 0
2, 97560, Note_on_c, 0, 58, 31
2, 97680, Note_on_c, 0, 58, 0
2, 97680, Note_on_c, 0, 56, 41
2, 97680, Note_on_c, 0, 53, 34
2, 97800, Note_on_c, 0, 53, 0
2, 97800, Note_on_c, 0, 56, 0
2, 97800, Note_on_c, 0, 58, 32
2, 97920, Note_on_c, 0, 58, 0
2, 97920, Note_on_c, 0, 51, 31
2, 97920, Note_on_c, 0, 55, 37
2, 98040, Note_on_c, 0, 55, 0
2, 98040, Note_on_c, 0, 51, 0
2, 98040, Note_on_c, 0, 58, 32
2, 98160, Note_on_c, 0, 58, 0
2, 98160, Note_on_c, 0, 51, 31
2, 98160, Note_on_c, 0, 55, 37
2, 98280, Note_on_c, 0, 55, 0
2, 98280, Note_on_c, 0, 51, 0
2, 98280, Note_on_c, 0, 58, 32
2, 98400, Note_on_c, 0, 58, 0
2, 98400, Note_on_c, 0, 51, 31
2, 98400, Note_on_c, 0, 55, 37
2, 98520, Note_on_c, 0, 55, 0
2, 98520, Note_on_c, 0, 51, 0
2, 98520, Note_on_c, 0, 58, 30
2, 98640, Note_on_c, 0, 58, 0
2, 98640, Note_on_c, 0, 56, 40
2, 98640, Note_on_c, 0, 53, 34
2, 98760, Note_on_c, 0, 53, 0
2, 98760, Note_on_c, 0, 56, 0
2, 98760, Note_on_c, 0, 58, 33
2, 98880, Note_on_c, 0, 58, 0
2, 98880, Note_on_c, 0, 51, 31
2, 98880, Note_on_c, 0, 55, 37
2, 99000, Note_on_c, 0, 55, 0
2, 99000, Note_on_c, 0, 51, 0
2, 99000, Note_on_c, 0, 58, 30
2, 99120, Note_on_c, 0, 58, 0
2, 99120, Note_on_c, 0, 51, 31
2, 99120, Note_on_c, 0, 55, 37
2, 99240, Note_on_c, 0, 55, 0
2, 99240, Note_on_c, 0, 51, 0
2, 99240, Note_on_c, 0, 58, 32
2, 99360, Note_on_c, 0, 58, 0
2, 99360, Note_on_c, 0, 51, 31
2, 99360, Note_on_c, 0, 55, 37
2, 99480, Note_on_c, 0, 55, 0
2, 99480, Note_on_c, 0, 51, 0
2, 99480, Note_on_c, 0, 58, 33
2, 99600, Note_on_c, 0, 58, 0
2, 99600, Note_on_c, 0, 56, 41
2, 99600, Note_on_c, 0, 50, 34
2, 99720, Note_on_c, 0, 50, 0
2, 99720, Note_on_c, 0, 56, 0
2, 99720, Note_on_c, 0, 58, 32
2, 99840, Note_on_c, 0, 58, 0
2, 99840, Note_on_c, 0, 51, 31
2, 99840, Note_on_c, 0, 55, 37
2, 99960, Note_on_c, 0, 55, 0
2, 99960, Note_on_c, 0, 51, 0
2, 99960, Note_on_c, 0, 58, 30
2, 100080, Note_on_c, 0, 58, 0
2, 100080, Note_on_c, 0, 51, 31
2, 100080, Note_on_c, 0, 55, 37
2, 100200, Note_on_c, 0, 55, 0
2, 100200, Note_on_c, 0, 51, 0
2, 100200, Note_on_c, 0, 58, 32
2, 100320, Note_on_c, 0, 58, 0
2, 100320, Note_on_c, 0, 51, 31
2, 100320, Note_on_c, 0, 55, 37
2, 100440, Note_on_c, 0, 55, 0
2, 100440, Note_on_c, 0, 51, 0
2, 100440, Note_on_c, 0, 58, 32
2, 100560, Note_on_c, 0, 58, 0
2, 100560, Note_on_c, 0, 56, 42
2, 100560, Note_on_c, 0, 53, 35
2, 100680, Note_on_c, 0, 53, 0
2, 100680, Note_on_c, 0, 56, 0
2, 100680, Note_on_c, 0, 58, 35
2, 100800, Note_on_c, 0, 58, 0
2, 100800, Note_on_c, 0, 51, 37
2, 100800, Note_on_c, 0, 55, 37
2, 101040, Note_on_c, 0, 55, 0
2, 101040, Note_on_c, 0, 51, 0
2, 101040, Note_on_c, 0, 80, 32
2, 101040, Note_on_c, 0, 89, 38
2, 101160, Note_on_c, 0, 89, 0
2, 101160, Note_on_c, 0, 80, 0
2, 101160, Note_on_c, 0, 91, 34
2, 101280, Note_on_c, 0, 91, 0
2, 101280, Note_on_c, 0, 79, 34
2, 101280, Note_on_c, 0, 87, 41
2, 101400, Note_on_c, 0, 87, 0
2, 101400, Note_on_c, 0, 79, 0
2, 101400, Note_on_c, 0, 91, 42
2, 101520, Note_on_c, 0, 91, 0
2, 101520, Note_on_c, 0, 80, 40
2, 101520, Note_on_c, 0, 89, 48
2, 101640, Note_on_c, 0, 89, 0
2, 101640, Note_on_c, 0, 80, 0
2, 101640, Note_on_c, 0, 91, 45
2, 101760, Note_on_c, 0, 91, 0
2, 101760, Note_on_c, 0, 79, 43
2, 101760, Note_on_c, 0, 87, 51
2, 101880, Note_on_c, 0, 87, 0
2, 101880, Note_on_c, 0, 79, 0
2, 101880, Note_on_c, 0, 91, 46
2, 102000, Note_on_c, 0, 91, 0
2, 102000, Note_on_c, 0, 80, 48
2, 102000, Note_on_c, 0, 89, 57
2, 102120, Note_on_c, 0, 89, 0
2, 102120, Note_on_c, 0, 80, 0
2, 102120, Note_on_c, 0, 91, 54
2, 102240, Note_on_c, 0, 91, 0
2, 102240, Note_on_c, 0, 79, 54
2, 102240, Note_on_c, 0, 87, 64
2, 102360, Note_on_c, 0, 87, 0
2, 102360, Note_on_c, 0, 79, 0
2, 102360, Note_on_c, 0, 91, 58
2, 102480, Note_on_c, 0, 91, 0
2, 102480, Note_on_c, 0, 89, 68
2, 102480, Note_on_c, 0, 80, 58
2, 102600, Note_on_c, 0, 80, 0
2, 102600, Note_on_c, 0, 89, 0
2, 102600, Note_on_c, 0, 91, 61
2, 102720, Note_on_c, 0, 91, 0
2, 102720, Note_on_c, 0, 87, 76
2, 102720, Note_on_c, 0, 79, 64
2, 102840, Note_on_c, 0, 79, 0
2, 102840, Note_on_c, 0, 87, 0
2, 102840, Note_on_c, 0, 91, 69
2, 102960, Note_on_c, 0, 91, 0
2, 102960, Note_on_c, 0, 80, 67
2, 102960, Note_on_c, 0, 89, 79
2, 103080, Note_on_c, 0, 89, 0
2, 103080, Note_on_c, 0, 80, 0
2, 103080, Note_on_c, 0, 91, 70
2, 103200, Note_on_c, 0, 91, 0
2, 103200, Note_on_c, 0, 79, 66
2, 103200, Note_on_c, 0, 87, 78
2, 103440, Note_on_c, 0, 87, 0
2, 103440, Note_on_c, 0, 79, 0
2, 103440, Note_on_c, 0, 77, 78
2, 103440, Note_on_c, 0, 68, 66
2, 103560, Note_on_c, 0, 68, 0
2, 103560, Note_on_c, 0, 77, 0
2, 103560, Note_on_c, 0, 79, 69
2, 103680, Note_on_c, 0, 79, 0
2, 103680, Note_on_c, 0, 75, 78
2, 103680, Note_on_c, 0, 67, 66
2, 103800, Note_on_c, 0, 67, 0
2, 103800, Note_on_c, 0, 75, 0
2, 103800, Note_on_c, 0, 79, 69
2, 103920, Note_on_c, 0, 79, 0
2, 103920, Note_on_c, 0, 77, 69
2, 103920, Note_on_c, 0, 68, 58
2, 104040, Note_on_c, 0, 68, 0
2, 104040, Note_on_c, 0, 77, 0
2, 104040, Note_on_c, 0, 79, 61
2, 104160, Note_on_c, 0, 79, 0
2, 104160, Note_on_c, 0, 67, 68
2, 104160, Note_on_c, 0, 75, 81
2, 104400, Note_on_c, 0, 75, 0
2, 104400, Note_on_c, 0, 67, 0
2, 104400, Note_on_c, 0, 65, 73
2, 104400, Note_on_c, 0, 56, 62
2, 104520, Note_on_c, 0, 56, 0
2, 104520, Note_on_c, 0, 65, 0
2, 104520, Note_on_c, 0, 67, 64
2, 104640, Note_on_c, 0, 67, 0
2, 104640, Note_on_c, 0, 55, 74
2, 104640, Note_on_c, 0, 63, 89
2, 105120, Note_on_c, 0, 63, 0
2, 105120, Note_on_c, 0, 55, 0
2, 105120, Note_on_c, 0, 63, 78
2, 105120, Note_on_c, 0, 67, 78
2, 105120, Note_on_c, 0, 72, 78
2, 105120, Note_on_c, 0, 75, 92
2, 105600, Note_on_c, 0, 75, 0
2, 105600, Note_on_c, 0, 63, 0
2, 105600, Note_on_c, 0, 67, 0
2, 105600, Note_on_c, 0, 72, 0
2, 105600, Note_on_c, 0, 70, 92
2, 105600, Note_on_c, 0, 67, 78
2, 105600, Note_on_c, 0, 62, 78
2, 105600, Note_on_c, 0, 58, 78
2, 105960, Note_on_c, 0, 58, 0
2, 105960, Note_on_c, 0, 70, 0
2, 105960, Note_on_c, 0, 67, 0
2, 105960, Note_on_c, 0, 62, 0
2, 106080, Note_on_c, 0, 82, 93
2, 106080, Note_on_c, 0, 77, 79
2, 106080, Note_on_c, 0, 74, 79
2, 106080, Note_on_c, 0, 70, 79
2, 106080, Note_on_c, 0, 68, 79
2, 106560, Note_on_c, 0, 68, 0
2, 106560, Note_on_c, 0, 74, 0
2, 106560, Note_on_c, 0, 82, 0
2, 106560, Note_on_c, 0, 77, 0
2, 106560, Note_on_c, 0, 70, 0
2, 106560, Note_on_c, 0, 63, 80
2, 106560, Note_on_c, 0, 67, 80
2, 106560, Note_on_c, 0, 70, 80
2, 106560, Note_on_c, 0, 75, 95
2, 106776, Note_on_c, 0, 75, 0
2, 106776, Note_on_c, 0, 63, 0
2, 106776, Note_on_c, 0, 67, 0
2, 106776, Note_on_c, 0, 70, 0
2, 106800, Note_on_c, 0, 75, 80
2, 106800, Note_on_c, 0, 70, 66
2, 106800, Note_on_c, 0, 67, 66
2, 106800, Note_on_c, 0, 63, 66
2, 106860, Note_on_c, 0, 63, 0
2, 106860, Note_on_c, 0, 75, 0
2, 106860, Note_on_c, 0, 70, 0
2, 106860, Note_on_c, 0, 67, 0
2, 106920, Note_on_c, 0, 75, 80
2, 106920, Note_on_c, 0, 70, 66
2, 106920, Note_on_c, 0, 67, 66
2, 106920, Note_on_c, 0, 63, 66
2, 106980, Note_on_c, 0, 63, 0
2, 106980, Note_on_c, 0, 75, 0
2, 106980, Note_on_c, 0, 70, 0
2, 106980, Note_on_c, 0, 67, 0
2, 107040, Note_on_c, 0, 75, 86
2, 107040, Note_on_c, 0, 70, 72
2, 107040, Note_on_c, 0, 67, 72
2, 107040, Note_on_c, 0, 63, 72
2, 107520, Note_on_c, 0, 63, 0
2, 107520, Note_on_c, 0, 75, 0
2, 107520, Note_on_c, 0, 70, 0
2, 107520, Note_on_c, 0, 67, 0
2, 107520, End_track
3, 0, Start_track
3, 0, Title_t, "Piano left"
3, 0, Program_c, 0, 0
3, 0, Note_on_c, 0, 63, 51
3, 0, Note_on_c, 0, 67, 60
3, 960, Note_on_c, 0, 67, 0
3, 960, Note_on_c, 0, 63, 0
3, 960, Note_on_c, 0, 63, 51
3, 960, Note_on_c, 0, 67, 60
3, 1680, Note_on_c, 0, 67, 0
3, 1680, Note_on_c, 0, 63, 0
3, 1680, Note_on_c, 0, 60, 54
3, 1920, Note_on_c, 0, 60, 0
3, 1920, Note_on_c, 0, 63, 51
3, 1920, Note_on_c, 0, 67, 60
3, 2640, Note_on_c, 0, 67, 0
3, 2640, Note_on_c, 0, 63, 0
3, 2640, Note_on_c, 0, 58, 54
3, 2880, Note_on_c, 0, 58, 0
3, 2880, Note_on_c, 0, 63, 56
3, 2880, Note_on_c, 0, 67, 66
3, 3360, Note_on_c, 0, 67, 0
3, 3360, Note_on_c, 0, 63, 0
3, 3360, Note_on_c, 0, 55, 57
3, 3480, Note_on_c, 0, 55, 0
3, 3480, Note_on_c, 0, 58, 51
3, 3600, Note_on_c, 0, 58, 0
3, 3600, Note_on_c, 0, 62, 61
3, 3720, Note_on_c, 0, 62, 0
3, 3840, Note_on_c, 0, 67, 66
3, 3840, Note_on_c, 0, 63, 55
3, 4080, Note_on_c, 0, 63, 0
3, 4080, Note_on_c, 0, 67, 0
3, 4080, Note_on_c, 0, 51, 55
3, 4200, Note_on_c, 0, 51, 0
3, 4200, Note_on_c, 0, 55, 56
3, 4320, Note_on_c, 0, 55, 0
3, 4320, Note_on_c, 0, 58, 66
3, 4440, Note_on_c, 0, 58, 0
3, 4560, Note_on_c, 0, 60, 61
3, 4680, Note_on_c, 0, 60, 0
3, 4800, Note_on_c, 0, 63, 58
3, 4800, Note_on_c, 0, 67, 69
3, 5040, Note_on_c, 0, 67, 0
3, 5040, Note_on_c, 0, 63, 0
3, 5040, Note_on_c, 0, 48, 64
3, 5160, Note_on_c, 0, 48, 0
3, 5160, Note_on_c, 0, 51, 65
3, 5280, Note_on_c, 0, 51, 0
3, 5280, Note_on_c, 0, 55, 72
3, 5400, Note_on_c, 0, 55, 0
3, 5520, Note_on_c, 0, 39, 77
3, 5520, Note_on_c, 0, 27, 65
3, 5640, Note_on_c, 0, 27, 0
3, 5640, Note_on_c, 0, 39, 0
3, 5760, Note_on_c, 0, 58, 83
3, 5760, Note_on_c, 0, 55, 70
3, 5760, Note_on_c, 0, 51, 70
3, 5760, Note_on_c, 0, 46, 70
3, 6480, Note_on_c, 0, 46, 0
3, 6480, Note_on_c, 0, 58, 0
3, 6480, Note_on_c, 0, 55, 0
3, 6480, Note_on_c, 0, 51, 0
3, 6480, Note_on_c, 0, 34, 30
3, 6600, Note_on_c, 0, 34, 0
3, 6720, Note_on_c, 0, 39, 41
3, 6720, Note_on_c, 0, 46, 41
3, 7440, Note_on_c, 0, 39, 0
3, 7440, Note_on_c, 0, 34, 30
3, 7560, Note_on_c, 0, 34, 0
3, 7680, Note_on_c, 0, 46, 0
3, 7680, Note_on_c, 0, 39, 41
3, 7680, Note_on_c, 0, 46, 41
3, 8160, Note_on_c, 0, 39, 0
3, 8160, Note_on_c, 0, 34, 30
3, 8280, Note_on_c, 0, 34, 0
3, 8400, Note_on_c, 0, 38, 30
3, 8520, Note_on_c, 0, 38, 0
3, 8640, Note_on_c, 0, 46, 0
3, 8640, Note_on_c, 0, 39, 41
3, 8640, Note_on_c, 0, 46, 41
3, 9360, Note_on_c, 0, 39, 0
3, 9360, Note_on_c, 0, 34, 30
3, 9480, Note_on_c, 0, 34, 0
3, 9600, Note_on_c, 0, 46, 0
3, 9600, Note_on_c, 0, 27, 41
3, 9600, Note_on_c, 0, 39, 41
3, 9840, Note_on_c, 0, 46, 51
3, 9960, Note_on_c, 0, 46, 0
3, 10077, Note_on_c, 0, 39, 0
3, 10080, Note_on_c, 0, 51, 68
3, 10080, Note_on_c, 0, 39, 56
3, 10800, Note_on_c, 0, 39, 0
3, 10800, Note_on_c, 0, 51, 0
3, 10800, Note_on_c, 0, 51, 53
3, 10920, Note_on_c, 0, 51, 0
3, 10920, Note_on_c, 0, 55, 52
3, 11040, Note_on_c, 0, 55, 0
3, 11040, Note_on_c, 0, 58, 79
3, 11040, Note_on_c, 0, 46, 68
3, 11520, Note_on_c, 0, 46, 0
3, 11520, Note_on_c, 0, 58, 0
3, 11520, Note_on_c, 0, 27, 0
3, 11520, Note_on_c, 0, 27, 47
3, 11520, Note_on_c, 0, 39, 47
3, 11760, Note_on_c, 0, 58, 59
3, 11880, Note_on_c, 0, 58, 0
3, 12000, Note_on_c, 0, 63, 78
3, 12000, Note_on_c, 0, 51, 63
3, 12480, Note_on_c, 0, 39, 0
3, 12480, Note_on_c, 0, 27, 0
3, 12720, Note_on_c, 0, 63, 0
3, 12720, Note_on_c, 0, 51, 0
3, 12720, Note_on_c, 0, 63, 60
3, 12840, Note_on_c, 0, 63, 0
3, 12840, Note_on_c, 0, 67, 60
3, 12960, Note_on_c, 0, 67, 0
3, 12960, Note_on_c, 0, 70, 90
3, 12960, Note_on_c, 0, 58, 78
3, 15360, Note_on_c, 0, 58, 0
3, 15360, Note_on_c, 0, 70, 0
3, 15600, Note_on_c, 0, 67, 64
3, 15600, Note_on_c, 0, 58, 54
3, 15720, Note_on_c, 0, 58, 0
3, 15720, Note_on_c, 0, 67, 0
3, 15840, Note_on_c, 0, 67, 64
3, 15840, Note_on_c, 0, 63, 54
3, 15960, Note_on_c, 0, 63, 0
3, 15960, Note_on_c, 0, 67, 0
3, 16080, Note_on_c, 0, 67, 64
3, 16200, Note_on_c, 0, 67, 0
3, 16320, Note_on_c, 0, 70, 70
3, 16560, Note_on_c, 0, 70, 0
3, 16800, Note_on_c, 0, 75, 70
3, 17040, Note_on_c, 0, 75, 0
3, 17280, Note_on_c, 0, 79, 76
3, 19200, Note_on_c, 0, 79, 0
3, 19200, Note_on_c, 0, 67, 51
3, 19200, Note_on_c, 0, 70, 60
3, 20160, Note_on_c, 0, 70, 0
3, 20160, Note_on_c, 0, 67, 0
3, 20160, Note_on_c, 0, 67, 51
3, 20160, Note_on_c, 0, 70, 60
3, 20880, Note_on_c, 0, 70, 0
3, 20880, Note_on_c, 0, 67, 0
3, 20880, Note_on_c, 0, 63, 54
3, 21120, Note_on_c, 0, 63, 0
3, 21120, Note_on_c, 0, 67, 51
3, 21120, Note_on_c, 0, 70, 60
3, 21840, Note_on_c, 0, 70, 0
3, 21840, Note_on_c, 0, 67, 0
3, 21840, Note_on_c, 0, 62, 54
3, 22080, Note_on_c, 0, 62, 0
3, 22080, Note_on_c, 0, 67, 56
3, 22080, Note_on_c, 0, 70, 66
3, 22560, Note_on_c, 0, 70, 0
3, 22560, Note_on_c, 0, 67, 0
3, 22560, Note_on_c, 0, 58, 57
3, 22680, Note_on_c, 0, 58, 0
3, 22680, Note_on_c, 0, 62, 51
3, 22800, Note_on_c, 0, 62, 0
3, 22800, Note_on_c, 0, 65, 61
3, 22920, Note_on_c, 0, 65, 0
3, 23040, Note_on_c, 0, 70, 66
3, 23040, Note_on_c, 0, 67, 55
3, 23280, Note_on_c, 0, 67, 0
3, 23280, Note_on_c, 0, 70, 0
3, 23280, Note_on_c, 0, 55, 55
3, 23400, Note_on_c, 0, 55, 0
3, 23400, Note_on_c, 0, 58, 56
3, 23520, Note_on_c, 0, 58, 0
3, 23520, Note_on_c, 0, 62, 66
3, 23640, Note_on_c, 0, 62, 0
3, 23760, Note_on_c, 0, 63, 61
3, 23880, Note_on_c, 0, 63, 0
3, 24000, Note_on_c, 0, 67, 58
3, 24000, Note_on_c, 0, 70, 69
3, 24240, Note_on_c, 0, 70, 0
3, 24240, Note_on_c, 0, 67, 0
3, 24240, Note_on_c, 0, 51, 64
3, 24360, Note_on_c, 0, 51, 0
3, 24360, Note_on_c, 0, 55, 65
3, 24480, Note_on_c, 0, 55, 0
3, 24480, Note_on_c, 0, 58, 72
3, 24600, Note_on_c, 0, 58, 0
3, 24720, Note_on_c, 0, 43, 77
3, 24720, Note_on_c, 0, 31, 65
3, 24840, Note_on_c, 0, 31, 0
3, 24840, Note_on_c, 0, 43, 0
3, 24960, Note_on_c, 0, 62, 83
3, 24960, Note_on_c, 0, 59, 70
3, 24960, Note_on_c, 0, 55, 70
3, 24960, Note_on_c, 0, 50, 70
3, 25440, Note_on_c, 0, 50, 0
3, 25440, Note_on_c, 0, 62, 0
3, 25440, Note_on_c, 0, 59, 0
3, 25440, Note_on_c, 0, 55, 0
3, 25440, Note_on_c, 0, 50, 63
3, 25440, Note_on_c, 0, 38, 53
3, 25920, Note_on_c, 0, 38, 0
3, 25920, Note_on_c, 0, 50, 0
3, 25920, Note_on_c, 0, 52, 70
3, 25920, Note_on_c, 0, 40, 59
3, 26400, Note_on_c, 0, 40, 0
3, 26400, Note_on_c, 0, 52, 0
3, 26400, Note_on_c, 0, 50, 63
3, 26400, Note_on_c, 0, 38, 53
3, 26520, Note_on_c, 0, 38, 0
3, 26520, Note_on_c, 0, 50, 0
3, 26640, Note_on_c, 0, 48, 59
3, 26640, Note_on_c, 0, 36, 50
3, 26760, Note_on_c, 0, 36, 0
3, 26760, Note_on_c, 0, 48, 0
3, 26880, Note_on_c, 0, 47, 63
3, 26880, Note_on_c, 0, 35, 53
3, 27120, Note_on_c, 0, 35, 0
3, 27120, Note_on_c, 0, 47, 0
3, 27360, Note_on_c, 0, 45, 55
3, 27360, Note_on_c, 0, 33, 46
3, 27600, Note_on_c, 0, 33, 0
3, 27600, Note_on_c, 0, 45, 0
3, 27840, Note_on_c, 0, 43, 59
3, 27840, Note_on_c, 0, 31, 50
3, 28560, Note_on_c, 0, 31, 0
3, 28560, Note_on_c, 0, 43, 0
3, 28560, Note_on_c, 0, 38, 30
3, 28680, Note_on_c, 0, 38, 0
3, 28800, Note_on_c, 0, 43, 41
3, 28800, Note_on_c, 0, 50, 41
3, 29280, Note_on_c, 0, 43, 0
3, 29280, Note_on_c, 0, 38, 30
3, 29400, Note_on_c, 0, 38, 0
3, 29520, Note_on_c, 0, 42, 30
3, 29640, Note_on_c, 0, 42, 0
3, 29760, Note_on_c, 0, 50, 0
3, 29760, Note_on_c, 0, 43, 41
3, 29760, Note_on_c, 0, 50, 41
3, 30480, Note_on_c, 0, 43, 0
3, 30480, Note_on_c, 0, 38, 30
3, 30600, Note_on_c, 0, 38, 0
3, 30720, Note_on_c, 0, 50, 0
3, 30720, Note_on_c, 0, 43, 41
3, 30720, Note_on_c, 0, 50, 41
3, 31200, Note_on_c, 0, 43, 0
3, 31200, Note_on_c, 0, 35, 47
3, 31320, Note_on_c, 0, 35, 0
3, 31320, Note_on_c, 0, 38, 38
3, 31440, Note_on_c, 0, 38, 0
3, 31440, Note_on_c, 0, 42, 48
3, 31560, Note_on_c, 0, 42, 0
3, 31680, Note_on_c, 0, 50, 0
3, 31680, Note_on_c, 0, 31, 41
3, 31680, Note_on_c, 0, 43, 41
3, 31920, Note_on_c, 0, 50, 51
3, 32040, Note_on_c, 0, 50, 0
3, 32157, Note_on_c, 0, 43, 0
3, 32160, Note_on_c, 0, 55, 68
3, 32160, Note_on_c, 0, 43, 56
3, 32880, Note_on_c, 0, 43, 0
3, 32880, Note_on_c, 0, 55, 0
3, 32880, Note_on_c, 0, 55, 53
3, 33000, Note_on_c, 0, 55, 0
3, 33000, Note_on_c, 0, 59, 52
3, 33120, Note_on_c, 0, 59, 0
3, 33120, Note_on_c, 0, 62, 79
3, 33120, Note_on_c, 0, 50, 68
3, 33600, Note_on_c, 0, 50, 0
3, 33600, Note_on_c, 0, 62, 0
3, 33600, Note_on_c, 0, 31, 0
3, 33600, Note_on_c, 0, 31, 47
3, 33600, Note_on_c, 0, 43, 47
3, 33840, Note_on_c, 0, 50, 51
3, 33840, Note_on_c, 0, 62, 59
3, 33960, Note_on_c, 0, 62, 0
3, 33960, Note_on_c, 0, 50, 0
3, 34080, Note_on_c, 0, 67, 78
3, 34080, Note_on_c, 0, 55, 63
3, 34560, Note_on_c, 0, 43, 0
3, 34560, Note_on_c, 0, 31, 0
3, 34800, Note_on_c, 0, 67, 0
3, 34800, Note_on_c, 0, 55, 0
3, 34800, Note_on_c, 0, 67, 60
3, 34920, Note_on_c, 0, 67, 0
3, 34920, Note_on_c, 0, 71, 60
3, 35040, Note_on_c, 0, 71, 0
3, 35040, Note_on_c, 0, 74, 90
3, 35040, Note_on_c, 0, 62, 78
3, 37440, Note_on_c, 0, 62, 0
3, 37440, Note_on_c, 0, 74, 0
3, 37680, Note_on_c, 0, 71, 64
3, 37680, Note_on_c, 0, 62, 54
3, 37800, Note_on_c, 0, 62, 0
3, 37800, Note_on_c, 0, 71, 0
3, 37920, Note_on_c, 0, 71, 64
3, 37920, Note_on_c, 0, 67, 54
3, 38040, Note_on_c, 0, 67, 0
3, 38040, Note_on_c, 0, 71, 0
3, 38160, Note_on_c, 0, 71, 64
3, 38280, Note_on_c, 0, 71, 0
3, 38400, Note_on_c, 0, 74, 70
3, 38640, Note_on_c, 0, 74, 0
3, 38880, Note_on_c, 0, 79, 70
3, 39120, Note_on_c, 0, 79, 0
3, 39360, Note_on_c, 0, 83, 76
3, 40800, Note_on_c, 0, 83, 0
3, 41760, Note_on_c, 0, 71, 39
3, 41760, Note_on_c, 0, 67, 33
3, 41880, Note_on_c, 0, 67, 0
3, 41880, Note_on_c, 0, 71, 0
3, 42240, Note_on_c, 0, 72, 47
3, 42240, Note_on_c, 0, 68, 39
3, 42240, Note_on_c, 0, 65, 39
3, 42720, Note_on_c, 0, 65, 0
3, 42720, Note_on_c, 0, 62, 39
3, 42840, Note_on_c, 0, 62, 0
3, 42840, Note_on_c, 0, 63, 40
3, 42960, Note_on_c, 0, 63, 0
3, 42960, Note_on_c, 0, 65, 41
3, 43080, Note_on_c, 0, 65, 0
3, 43080, Note_on_c, 0, 66, 42
3, 43200, Note_on_c, 0, 66, 0
3, 43200, Note_on_c, 0, 68, 0
3, 43200, Note_on_c, 0, 72, 0
3, 43200, Note_on_c, 0, 67, 37
3, 43200, Note_on_c, 0, 70, 44
3, 43320, Note_on_c, 0, 70, 0
3, 43320, Note_on_c, 0, 67, 0
3, 43680, Note_on_c, 0, 67, 41
3, 43680, Note_on_c, 0, 63, 34
3, 43680, Note_on_c, 0, 58, 34
3, 43800, Note_on_c, 0, 58, 0
3, 43800, Note_on_c, 0, 63, 0
3, 43800, Note_on_c, 0, 67, 0
3, 44160, Note_on_c, 0, 60, 34
3, 44160, Note_on_c, 0, 63, 41
3, 44400, Note_on_c, 0, 63, 0
3, 44400, Note_on_c, 0, 60, 0
3, 44640, Note_on_c, 0, 56, 42
3, 44760, Note_on_c, 0, 56, 0
3, 44880, Note_on_c, 0, 55, 40
3, 44880, Note_on_c, 0, 58, 48
3, 45000, Note_on_c, 0, 58, 0
3, 45000, Note_on_c, 0, 55, 0
3, 45120, Note_on_c, 0, 53, 45
3, 45120, Note_on_c, 0, 56, 45
3, 45120, Note_on_c, 0, 60, 54
3, 45600, Note_on_c, 0, 50, 33
3, 45720, Note_on_c, 0, 50, 0
3, 45720, Note_on_c, 0, 51, 37
3, 45840, Note_on_c, 0, 51, 0
3, 45840, Note_on_c, 0, 52, 39
3, 45960, Note_on_c, 0, 52, 0
3, 45960, Note_on_c, 0, 53, 44
3, 46080, Note_on_c, 0, 53, 0
3, 46080, Note_on_c, 0, 60, 0
3, 46080, Note_on_c, 0, 56, 0
3, 46080, Note_on_c, 0, 53, 0
3, 46080, Note_on_c, 0, 54, 46
3, 46560, Note_on_c, 0, 54, 0
3, 46560, Note_on_c, 0, 58, 41
3, 46560, Note_on_c, 0, 55, 34
3, 46680, Note_on_c, 0, 55, 0
3, 47040, Note_on_c, 0, 50, 33
3, 47160, Note_on_c, 0, 50, 0
3, 47520, Note_on_c, 0, 58, 0
3, 47520, Note_on_c, 0, 55, 31
3, 47520, Note_on_c, 0, 51, 26
3, 47640, Note_on_c, 0, 51, 0
3, 47640, Note_on_c, 0, 55, 0
3, 48000, Note_on_c, 0, 56, 41
3, 48000, Note_on_c, 0, 51, 34
3, 48000, Note_on_c, 0, 44, 34
3, 48960, Note_on_c, 0, 44, 0
3, 48960, Note_on_c, 0, 51, 0
3, 48960, Note_on_c, 0, 56, 0
3, 48960, Note_on_c, 0, 52, 32
3, 48960, Note_on_c, 0, 48, 27
3, 48960, Note_on_c, 0, 40, 27
3, 49920, Note_on_c, 0, 40, 0
3, 49920, Note_on_c, 0, 48, 0
3, 49920, Note_on_c, 0, 52, 0
3, 49920, Note_on_c, 0, 56, 37
3, 49920, Note_on_c, 0, 51, 31
3, 49920, Note_on_c, 0, 44, 31
3, 50640, Note_on_c, 0, 44, 0
3, 50640, Note_on_c, 0, 51, 0
3, 50640, Note_on_c, 0, 56, 0
3, 50640, Note_on_c, 0, 39, 34
3, 50640, Note_on_c, 0, 51, 40
3, 50760, Note_on_c, 0, 51, 0
3, 50760, Note_on_c, 0, 39, 0
3, 50760, Note_on_c, 0, 36, 41
3, 50760, Note_on_c, 0, 48, 49
3, 50880, Note_on_c, 0, 48, 0
3, 50880, Note_on_c, 0, 36, 0
3, 50880, Note_on_c, 0, 32, 34
3, 50880, Note_on_c, 0, 44, 40
3, 51000, Note_on_c, 0, 44, 0
3, 51000, Note_on_c, 0, 32, 0
3, 51120, Note_on_c, 0, 44, 42
3, 51120, Note_on_c, 0, 32, 35
3, 51240, Note_on_c, 0, 32, 0
3, 51240, Note_on_c, 0, 44, 0
3, 51360, Note_on_c, 0, 32, 34
3, 51360, Note_on_c, 0, 44, 41
3, 51480, Note_on_c, 0, 44, 0
3, 51480, Note_on_c, 0, 32, 0
3, 51600, Note_on_c, 0, 41, 41
3, 51720, Note_on_c, 0, 41, 0
3, 51720, Note_on_c, 0, 43, 33
3, 51840, Note_on_c, 0, 43, 0
3, 51840, Note_on_c, 0, 36, 34
3, 51840, Note_on_c, 0, 44, 41
3, 51960, Note_on_c, 0, 44, 0
3, 51960, Note_on_c, 0, 36, 0
3, 52080, Note_on_c, 0, 46, 34
3, 52080, Note_on_c, 0, 38, 28
3, 52200, Note_on_c, 0, 38, 0
3, 52200, Note_on_c, 0, 46, 0
3, 52320, Note_on_c, 0, 39, 34
3, 52320, Note_on_c, 0, 48, 41
3, 52440, Note_on_c, 0, 48, 0
3, 52440, Note_on_c, 0, 39, 0
3, 52560, Note_on_c, 0, 50, 34
3, 52560, Note_on_c, 0, 41, 28
3, 52680, Note_on_c, 0, 41, 0
3, 52680, Note_on_c, 0, 50, 0
3, 52800, Note_on_c, 0, 44, 34
3, 52800, Note_on_c, 0, 51, 41
3, 53040, Note_on_c, 0, 51, 0
3, 53040, Note_on_c, 0, 44, 0
3, 53040, Note_on_c, 0, 53, 34
3, 53040, Note_on_c, 0, 48, 28
3, 53160, Note_on_c, 0, 48, 0
3, 53160, Note_on_c, 0, 53, 0
3, 53160, Note_on_c, 0, 55, 29
3, 53280, Note_on_c, 0, 55, 0
3, 53280, Note_on_c, 0, 56, 38
3, 53280, Note_on_c, 0, 53, 32
3, 53400, Note_on_c, 0, 53, 0
3, 53400, Note_on_c, 0, 56, 0
3, 53520, Note_on_c, 0, 41, 45
3, 53640, Note_on_c, 0, 41, 0
3, 53640, Note_on_c, 0, 43, 36
3, 53760, Note_on_c, 0, 43, 0
3, 53760, Note_on_c, 0, 36, 37
3, 53760, Note_on_c, 0, 44, 45
3, 53880, Note_on_c, 0, 44, 0
3, 53880, Note_on_c, 0, 36, 0
3, 54000, Note_on_c, 0, 46, 37
3, 54000, Note_on_c, 0, 38, 30
3, 54120, Note_on_c, 0, 38, 0
3, 54120, Note_on_c, 0, 46, 0
3, 54240, Note_on_c, 0, 39, 37
3, 54240, Note_on_c, 0, 48, 45
3, 54360, Note_on_c, 0, 48, 0
3, 54360, Note_on_c, 0, 39, 0
3, 54480, Note_on_c, 0, 50, 37
3, 54480, Note_on_c, 0, 41, 30
3, 54600, Note_on_c, 0, 41, 0
3, 54600, Note_on_c, 0, 50, 0
3, 54720, Note_on_c, 0, 44, 37
3, 54720, Note_on_c, 0, 51, 45
3, 54960, Note_on_c, 0, 51, 0
3, 54960, Note_on_c, 0, 44, 0
3, 54960, Note_on_c, 0, 53, 37
3, 54960, Note_on_c, 0, 48, 30
3, 55080, Note_on_c, 0, 48, 0
3, 55080, Note_on_c, 0, 53, 0
3, 55080, Note_on_c, 0, 55, 31
3, 55200, Note_on_c, 0, 55, 0
3, 55200, Note_on_c, 0, 56, 41
3, 55200, Note_on_c, 0, 53, 35
3, 55320, Note_on_c, 0, 53, 0
3, 55320, Note_on_c, 0, 56, 0
3, 55440, Note_on_c, 0, 62, 54
3, 55440, Note_on_c, 0, 53, 54
3, 55560, Note_on_c, 0, 53, 0
3, 55560, Note_on_c, 0, 62, 0
3, 55560, Note_on_c, 0, 56, 48
3, 55680, Note_on_c, 0, 56, 0
3, 55680, Note_on_c, 0, 63, 57
3, 55680, Note_on_c, 0, 60, 57
3, 55920, Note_on_c, 0, 72, 57
3, 56040, Note_on_c, 0, 72, 0
3, 56040, Note_on_c, 0, 67, 51
3, 56160, Note_on_c, 0, 67, 0
3, 56160, Note_on_c, 0, 65, 57
3, 56280, Note_on_c, 0, 65, 0
3, 56400, Note_on_c, 0, 60, 0
3, 56400, Note_on_c, 0, 63, 0
3, 56400, Note_on_c, 0, 62, 52
3, 56400, Note_on_c, 0, 53, 54
3, 56520, Note_on_c, 0, 53, 0
3, 56520, Note_on_c, 0, 56, 48
3, 56640, Note_on_c, 0, 56, 0
3, 56640, Note_on_c, 0, 62, 0
3, 56640, Note_on_c, 0, 63, 57
3, 56640, Note_on_c, 0, 60, 57
3, 56880, Note_on_c, 0, 72, 57
3, 57000, Note_on_c, 0, 72, 0
3, 57000, Note_on_c, 0, 67, 51
3, 57120, Note_on_c, 0, 67, 0
3, 57120, Note_on_c, 0, 65, 57
3, 57240, Note_on_c, 0, 65, 0
3, 57360, Note_on_c, 0, 60, 0
3, 57360, Note_on_c, 0, 63, 0
3, 57360, Note_on_c, 0, 62, 54
3, 57360, Note_on_c, 0, 53, 54
3, 57480, Note_on_c, 0, 53, 0
3, 57480, Note_on_c, 0, 56, 48
3, 57600, Note_on_c, 0, 56, 0
3, 57600, Note_on_c, 0, 62, 0
3, 57600, Note_on_c, 0, 63, 57
3, 57600, Note_on_c, 0, 60, 57
3, 57840, Note_on_c, 0, 60, 0
3, 57840, Note_on_c, 0, 63, 0
3, 57840, Note_on_c, 0, 51, 40
3, 57960, Note_on_c, 0, 51, 0
3, 57960, Note_on_c, 0, 56, 42
3, 58080, Note_on_c, 0, 56, 0
3, 58080, Note_on_c, 0, 60, 42
3, 58200, Note_on_c, 0, 60, 0
3, 58200, Note_on_c, 0, 63, 42
3, 58320, Note_on_c, 0, 63, 0
3, 58320, Note_on_c, 0, 65, 46
3, 58440, Note_on_c, 0, 65, 0
3, 58440, Note_on_c, 0, 67, 47
3, 58560, Note_on_c, 0, 67, 0
3, 58560, Note_on_c, 0, 68, 51
3, 58680, Note_on_c, 0, 68, 0
3, 58680, Note_on_c, 0, 70, 51
3, 58800, Note_on_c, 0, 70, 0
3, 58800, Note_on_c, 0, 72, 54
3, 58920, Note_on_c, 0, 72, 0
3, 58920, Note_on_c, 0, 75, 55
3, 59040, Note_on_c, 0, 75, 0
3, 59040, Note_on_c, 0, 77, 55
3, 59160, Note_on_c, 0, 77, 0
3, 59160, Note_on_c, 0, 79, 55
3, 59280, Note_on_c, 0, 79, 0
3, 59280, Note_on_c, 0, 80, 57
3, 59400, Note_on_c, 0, 80, 0
3, 59400, Note_on_c, 0, 82, 62
3, 59520, Note_on_c, 0, 82, 0
3, 59520, Note_on_c, 0, 84, 66
3, 59760, Note_on_c, 0, 84, 0
3, 60000, Note_on_c, 0, 60, 63
3, 60000, Note_on_c, 0, 55, 52
3, 60000, Note_on_c, 0, 51, 52
3, 60000, Note_on_c, 0, 48, 52
3, 60360, Note_on_c, 0, 48, 0
3, 60360, Note_on_c, 0, 60, 0
3, 60360, Note_on_c, 0, 55, 0
3, 60360, Note_on_c, 0, 51, 0
3, 60480, Note_on_c, 0, 51, 74
3, 60960, Note_on_c, 0, 51, 0
3, 60960, Note_on_c, 0, 43, 54
3, 60960, Note_on_c, 0, 47, 54
3, 60960, Note_on_c, 0, 51, 54
3, 60960, Note_on_c, 0, 55, 64
3, 61440, Note_on_c, 0, 55, 0
3, 61440, Note_on_c, 0, 43, 0
3, 61440, Note_on_c, 0, 47, 0
3, 61440, Note_on_c, 0, 51, 0
3, 61440, Note_on_c, 0, 51, 83
3, 61440, Note_on_c, 0, 39, 71
3, 61920, Note_on_c, 0, 51, 0
3, 61920, Note_on_c, 0, 60, 76
3, 61920, Note_on_c, 0, 55, 64
3, 61920, Note_on_c, 0, 51, 64
3, 61920, Note_on_c, 0, 48, 64
3, 62160, Note_on_c, 0, 39, 0
3, 62160, Note_on_c, 0, 43, 44
3, 62160, Note_on_c, 0, 55, 52
3, 62280, Note_on_c, 0, 55, 0
3, 62280, Note_on_c, 0, 43, 0
3, 62280, Note_on_c, 0, 39, 53
3, 62280, Note_on_c, 0, 51, 63
3, 62400, Note_on_c, 0, 51, 0
3, 62400, Note_on_c, 0, 55, 0
3, 62400, Note_on_c, 0, 51, 0
3, 62400, Note_on_c, 0, 60, 0
3, 62400, Note_on_c, 0, 39, 0
3, 62400, Note_on_c, 0, 48, 0
3, 62400, Note_on_c, 0, 36, 44
3, 62400, Note_on_c, 0, 48, 52
3, 62520, Note_on_c, 0, 48, 0
3, 62520, Note_on_c, 0, 36, 0
3, 62640, Note_on_c, 0, 48, 54
3, 62640, Note_on_c, 0, 36, 45
3, 62760, Note_on_c, 0, 36, 0
3, 62760, Note_on_c, 0, 48, 0
3, 62880, Note_on_c, 0, 36, 44
3, 62880, Note_on_c, 0, 48, 53
3, 63000, Note_on_c, 0, 48, 0
3, 63000, Note_on_c, 0, 36, 0
3, 63120, Note_on_c, 0, 45, 41
3, 63240, Note_on_c, 0, 45, 0
3, 63240, Note_on_c, 0, 47, 33
3, 63360, Note_on_c, 0, 47, 0
3, 63360, Note_on_c, 0, 39, 34
3, 63360, Note_on_c, 0, 48, 41
3, 63480, Note_on_c, 0, 48, 0
3, 63480, Note_on_c, 0, 39, 0
3, 63600, Note_on_c, 0, 50, 34
3, 63600, Note_on_c, 0, 41, 28
3, 63720, Note_on_c, 0, 41, 0
3, 63720, Note_on_c, 0, 50, 0
3, 63840, Note_on_c, 0, 43, 34
3, 63840, Note_on_c, 0, 51, 41
3, 63960, Note_on_c, 0, 51, 0
3, 63960, Note_on_c, 0, 43, 0
3, 64080, Note_on_c, 0, 54, 34
3, 64080, Note_on_c, 0, 48, 28
3, 64200, Note_on_c, 0, 48, 0
3, 64200, Note_on_c, 0, 54, 0
3, 64320, Note_on_c, 0, 48, 34
3, 64320, Note_on_c, 0, 55, 41
3, 64560, Note_on_c, 0, 55, 0
3, 64560, Note_on_c, 0, 48, 0
3, 64560, Note_on_c, 0, 59, 34
3, 64560, Note_on_c, 0, 51, 28
3, 64680, Note_on_c, 0, 51, 0
3, 64680, Note_on_c, 0, 59, 0
3, 64680, Note_on_c, 0, 55, 29
3, 64800, Note_on_c, 0, 55, 0
3, 64800, Note_on_c, 0, 59, 38
3, 64800, Note_on_c, 0, 56, 32
3, 64920, Note_on_c, 0, 56, 0
3, 64920, Note_on_c, 0, 59, 0
3, 65040, Note_on_c, 0, 39, 45
3, 65040, Note_on_c, 0, 44, 49
3, 65160, Note_on_c, 0, 44, 0
3, 65160, Note_on_c, 0, 46, 39
3, 65280, Note_on_c, 0, 46, 0
3, 65280, Note_on_c, 0, 39, 0
3, 65280, Note_on_c, 0, 39, 41
3, 65280, Note_on_c, 0, 47, 50
3, 65400, Note_on_c, 0, 47, 0
3, 65400, Note_on_c, 0, 39, 0
3, 65520, Note_on_c, 0, 49, 42
3, 65520, Note_on_c, 0, 42, 34
3, 65640, Note_on_c, 0, 42, 0
3, 65640, Note_on_c, 0, 49, 0
3, 65760, Note_on_c, 0, 42, 43
3, 65760, Note_on_c, 0, 51, 53
3, 65880, Note_on_c, 0, 51, 0
3, 65880, Note_on_c, 0, 42, 0
3, 66000, Note_on_c, 0, 53, 44
3, 66000, Note_on_c, 0, 47, 36
3, 66120, Note_on_c, 0, 47, 0
3, 66120, Note_on_c, 0, 53, 0
3, 66240, Note_on_c, 0, 47, 45
3, 66240, Note_on_c, 0, 54, 55
3, 66480, Note_on_c, 0, 54, 0
3, 66480, Note_on_c, 0, 47, 0
3, 66480, Note_on_c, 0, 51, 46
3, 66480, Note_on_c, 0, 59, 37
3, 66600, Note_on_c, 0, 59, 0
3, 66600, Note_on_c, 0, 51, 0
3, 66600, Note_on_c, 0, 55, 39
3, 66720, Note_on_c, 0, 55, 0
3, 66720, Note_on_c, 0, 59, 52
3, 66720, Note_on_c, 0, 56, 44
3, 66840, Note_on_c, 0, 56, 0
3, 66840, Note_on_c, 0, 59, 0
3, 66960, Note_on_c, 0, 65, 63
3, 66960, Note_on_c, 0, 59, 53
3, 67080, Note_on_c, 0, 59, 0
3, 67080, Note_on_c, 0, 65, 0
3, 67080, Note_on_c, 0, 61, 57
3, 67200, Note_on_c, 0, 61, 0
3, 67200, Note_on_c, 0, 59, 56
3, 67200, Note_on_c, 0, 66, 67
3, 67200, Note_on_c, 0, 63, 56
3, 67440, Note_on_c, 0, 75, 67
3, 67560, Note_on_c, 0, 75, 0
3, 67560, Note_on_c, 0, 70, 59
3, 67680, Note_on_c, 0, 70, 0
3, 67680, Note_on_c, 0, 75, 67
3, 67680, Note_on_c, 0, 68, 67
3, 67800, Note_on_c, 0, 68, 0
3, 67800, Note_on_c, 0, 75, 0
3, 67920, Note_on_c, 0, 59, 0
3, 67920, Note_on_c, 0, 66, 0
3, 67920, Note_on_c, 0, 63, 0
3, 67920, Note_on_c, 0, 59, 56
3, 67920, Note_on_c, 0, 65, 67
3, 68040, Note_on_c, 0, 59, 0
3, 68040, Note_on_c, 0, 61, 60
3, 68160, Note_on_c, 0, 61, 0
3, 68160, Note_on_c, 0, 65, 0
3, 68160, Note_on_c, 0, 59, 60
3, 68160, Note_on_c, 0, 66, 71
3, 68160, Note_on_c, 0, 63, 60
3, 68400, Note_on_c, 0, 75, 71
3, 68520, Note_on_c, 0, 75, 0
3, 68520, Note_on_c, 0, 70, 63
3, 68640, Note_on_c, 0, 70, 0
3, 68640, Note_on_c, 0, 75, 71
3, 68640, Note_on_c, 0, 68, 71
3, 68760, Note_on_c, 0, 68, 0
3, 68760, Note_on_c, 0, 75, 0
3, 68880, Note_on_c, 0, 59, 0
3, 68880, Note_on_c, 0, 66, 0
3, 68880, Note_on_c, 0, 63, 0
3, 68880, Note_on_c, 0, 59, 67
3, 68880, Note_on_c, 0, 65, 67
3, 69000, Note_on_c, 0, 59, 0
3, 69000, Note_on_c, 0, 61, 60
3, 69120, Note_on_c, 0, 61, 0
3, 69120, Note_on_c, 0, 65, 0
3, 69120, Note_on_c, 0, 59, 60
3, 69120, Note_on_c, 0, 66, 71
3, 69120, Note_on_c, 0, 63, 60
3, 69600, Note_on_c, 0, 63, 0
3, 69600, Note_on_c, 0, 66, 0
3, 69600, Note_on_c, 0, 59, 0
3, 70320, Note_on_c, 0, 44, 61
3, 70440, Note_on_c, 0, 44, 0
3, 70440, Note_on_c, 0, 47, 51
3, 70560, Note_on_c, 0, 47, 0
3, 70560, Note_on_c, 0, 51, 64
3, 70680, Note_on_c, 0, 51, 0
3, 70800, Note_on_c, 0, 54, 58
3, 70920, Note_on_c, 0, 54, 0
3, 71040, Note_on_c, 0, 59, 61
3, 71280, Note_on_c, 0, 59, 0
3, 71280, Note_on_c, 0, 55, 71
3, 71280, Note_on_c, 0, 43, 60
3, 71400, Note_on_c, 0, 43, 0
3, 71400, Note_on_c, 0, 55, 0
3, 71520, Note_on_c, 0, 63, 67
3, 71520, Note_on_c, 0, 59, 56
3, 71520, Note_on_c, 0, 53, 56
3, 71520, Note_on_c, 0, 55, 56
3, 72000, Note_on_c, 0, 55, 0
3, 72000, Note_on_c, 0, 63, 0
3, 72000, Note_on_c, 0, 59, 0
3, 72000, Note_on_c, 0, 53, 0
3, 72000, Note_on_c, 0, 48, 53
3, 72000, Note_on_c, 0, 51, 53
3, 72000, Note_on_c, 0, 55, 53
3, 72000, Note_on_c, 0, 60, 59
3, 72240, Note_on_c, 0, 60, 0
3, 72240, Note_on_c, 0, 48, 0
3, 72240, Note_on_c, 0, 51, 0
3, 72240, Note_on_c, 0, 55, 0
3, 72240, Note_on_c, 0, 39, 57
3, 72240, Note_on_c, 0, 51, 63
3, 72360, Note_on_c, 0, 51, 0
3, 72360, Note_on_c, 0, 39, 0
3, 72480, Note_on_c, 0, 55, 57
3, 72480, Note_on_c, 0, 61, 57
3, 72480, Note_on_c, 0, 67, 57
3, 72480, Note_on_c, 0, 63, 68
3, 72960, Note_on_c, 0, 63, 0
3, 72960, Note_on_c, 0, 55, 0
3, 72960, Note_on_c, 0, 61, 0
3, 72960, Note_on_c, 0, 67, 0
3, 72960, Note_on_c, 0, 44, 56
3, 72960, Note_on_c, 0, 51, 56
3, 72960, Note_on_c, 0, 56, 56
3, 72960, Note_on_c, 0, 59, 61
3, 73200, Note_on_c, 0, 59, 0
3, 73200, Note_on_c, 0, 44, 0
3, 73200, Note_on_c, 0, 51, 0
3, 73200, Note_on_c, 0, 56, 0
3, 73200, Note_on_c, 0, 47, 65
3, 73200, Note_on_c, 0, 35, 55
3, 73320, Note_on_c, 0, 35, 0
3, 73320, Note_on_c, 0, 47, 0
3, 73440, Note_on_c, 0, 67, 77
3, 73440, Note_on_c, 0, 63, 65
3, 73440, Note_on_c, 0, 57, 65
3, 73440, Note_on_c, 0, 59, 65
3, 73920, Note_on_c, 0, 59, 0
3, 73920, Note_on_c, 0, 67, 0
3, 73920, Note_on_c, 0, 63, 0
3, 73920, Note_on_c, 0, 57, 0
3, 73920, Note_on_c, 0, 39, 61
3, 73920, Note_on_c, 0, 48, 61
3, 73920, Note_on_c, 0, 55, 67
3, 74160, Note_on_c, 0, 55, 0
3, 74160, Note_on_c, 0, 48, 0
3, 74160, Note_on_c, 0, 39, 0
3, 74160, Note_on_c, 0, 43, 65
3, 74160, Note_on_c, 0, 31, 55
3, 74280, Note_on_c, 0, 31, 0
3, 74280, Note_on_c, 0, 43, 0
3, 74400, Note_on_c, 0, 67, 83
3, 74400, Note_on_c, 0, 63, 83
3, 74400, Note_on_c, 0, 59, 70
3, 74400, Note_on_c, 0, 53, 70
3, 74760, Note_on_c, 0, 53, 0
3, 74760, Note_on_c, 0, 67, 0
3, 74760, Note_on_c, 0, 63, 0
3, 74760, Note_on_c, 0, 59, 0
3, 74760, Note_on_c, 0, 34, 71
3, 74760, Note_on_c, 0, 46, 84
3, 74880, Note_on_c, 0, 46, 0
3, 74880, Note_on_c, 0, 34, 0
3, 74880, Note_on_c, 0, 55, 68
3, 74880, Note_on_c, 0, 63, 68
3, 74880, Note_on_c, 0, 58, 68
3, 74880, Note_on_c, 0, 67, 80
3, 75600, Note_on_c, 0, 67, 0
3, 75600, Note_on_c, 0, 55, 0
3, 75600, Note_on_c, 0, 63, 0
3, 75600, Note_on_c, 0, 58, 0
3, 75600, Note_on_c, 0, 65, 63
3, 75600, Note_on_c, 0, 63, 53
3, 75600, Note_on_c, 0, 60, 53
3, 75720, Note_on_c, 0, 60, 0
3, 75720, Note_on_c, 0, 63, 0
3, 75720, Note_on_c, 0, 65, 0
3, 75840, Note_on_c, 0, 58, 56
3, 75840, Note_on_c, 0, 63, 56
3, 75840, Note_on_c, 0, 67, 85
3, 76080, Note_on_c, 0, 46, 72
3, 76080, Note_on_c, 0, 34, 72
3, 76560, Note_on_c, 0, 67, 0
3, 76560, Note_on_c, 0, 58, 0
3, 76560, Note_on_c, 0, 63, 0
3, 76560, Note_on_c, 0, 63, 56
3, 76560, Note_on_c, 0, 60, 47
3, 76560, Note_on_c, 0, 56, 47
3, 76680, Note_on_c, 0, 56, 0
3, 76680, Note_on_c, 0, 63, 0
3, 76680, Note_on_c, 0, 60, 0
3, 76800, Note_on_c, 0, 46, 0
3, 76800, Note_on_c, 0, 34, 0
3, 76800, Note_on_c, 0, 58, 56
3, 76800, Note_on_c, 0, 63, 56
3, 76800, Note_on_c, 0, 67, 85
3, 77040, Note_on_c, 0, 46, 72
3, 77040, Note_on_c, 0, 34, 72
3, 77520, Note_on_c, 0, 67, 0
3, 77520, Note_on_c, 0, 58, 0
3, 77520, Note_on_c, 0, 63, 0
3, 77520, Note_on_c, 0, 60, 56
3, 77520, Note_on_c, 0, 56, 47
3, 77520, Note_on_c, 0, 53, 47
3, 77640, Note_on_c, 0, 53, 0
3, 77640, Note_on_c, 0, 60, 0
3, 77640, Note_on_c, 0, 56, 0
3, 77760, Note_on_c, 0, 46, 0
3, 77760, Note_on_c, 0, 34, 0
3, 77760, Note_on_c, 0, 58, 56
3, 77760, Note_on_c, 0, 63, 56
3, 77760, Note_on_c, 0, 67, 85
3, 78000, Note_on_c, 0, 67, 0
3, 78000, Note_on_c, 0, 63, 0
3, 78000, Note_on_c, 0, 58, 0
3, 78000, Note_on_c, 0, 51, 65
3, 78120, Note_on_c, 0, 51, 0
3, 78120, Note_on_c, 0, 55, 71
3, 78240, Note_on_c, 0, 55, 0
3, 78240, Note_on_c, 0, 58, 80
3, 78360, Note_on_c, 0, 58, 0
3, 78480, Note_on_c, 0, 60, 56
3, 78480, Note_on_c, 0, 56, 47
3, 78480, Note_on_c, 0, 53, 47
3, 78600, Note_on_c, 0, 53, 0
3, 78600, Note_on_c, 0, 56, 0
3, 78600, Note_on_c, 0, 60, 0
3, 78720, Note_on_c, 0, 58, 66
3, 78720, Note_on_c, 0, 63, 66
3, 78720, Note_on_c, 0, 67, 74
3, 78960, Note_on_c, 0, 67, 0
3, 78960, Note_on_c, 0, 63, 0
3, 78960, Note_on_c, 0, 58, 0
3, 78960, Note_on_c, 0, 46, 56
3, 78960, Note_on_c, 0, 34, 47
3, 79200, Note_on_c, 0, 34, 0
3, 79200, Note_on_c, 0, 46, 0
3, 79200, Note_on_c, 0, 55, 70
3, 79200, Note_on_c, 0, 51, 59
3, 79200, Note_on_c, 0, 46, 59
3, 79920, Note_on_c, 0, 46, 0
3, 79920, Note_on_c, 0, 51, 0
3, 79920, Note_on_c, 0, 55, 0
3, 79920, Note_on_c, 0, 58, 48
3, 79920, Note_on_c, 0, 55, 48
3, 79920, Note_on_c, 0, 51, 48
3, 80160, Note_on_c, 0, 51, 0
3, 80160, Note_on_c, 0, 55, 0
3, 80160, Note_on_c, 0, 58, 0
3, 80160, Note_on_c, 0, 55, 63
3, 80160, Note_on_c, 0, 58, 63
3, 80160, Note_on_c, 0, 63, 75
3, 80880, Note_on_c, 0, 63, 0
3, 80880, Note_on_c, 0, 58, 0
3, 80880, Note_on_c, 0, 55, 0
3, 80880, Note_on_c, 0, 67, 57
3, 80880, Note_on_c, 0, 63, 48
3, 80880, Note_on_c, 0, 58, 48
3, 81120, Note_on_c, 0, 58, 0
3, 81120, Note_on_c, 0, 63, 0
3, 81120, Note_on_c, 0, 67, 0
3, 81120, Note_on_c, 0, 67, 58
3, 81120, Note_on_c, 0, 63, 49
3, 81120, Note_on_c, 0, 58, 49
3, 81360, Note_on_c, 0, 58, 0
3, 81360, Note_on_c, 0, 63, 0
3, 81360, Note_on_c, 0, 67, 0
3, 81360, Note_on_c, 0, 70, 58
3, 81360, Note_on_c, 0, 67, 49
3, 81360, Note_on_c, 0, 63, 49
3, 81600, Note_on_c, 0, 63, 0
3, 81600, Note_on_c, 0, 67, 0
3, 81600, Note_on_c, 0, 70, 0
3, 81600, Note_on_c, 0, 63, 52
3, 81600, Note_on_c, 0, 67, 52
3, 81600, Note_on_c, 0, 70, 62
3, 81840, Note_on_c, 0, 70, 0
3, 81840, Note_on_c, 0, 67, 0
3, 81840, Note_on_c, 0, 63, 0
3, 81840, Note_on_c, 0, 75, 58
3, 81840, Note_on_c, 0, 70, 49
3, 81840, Note_on_c, 0, 67, 49
3, 82080, Note_on_c, 0, 67, 0
3, 82080, Note_on_c, 0, 70, 0
3, 82080, Note_on_c, 0, 75, 0
3, 82080, Note_on_c, 0, 75, 58
3, 82080, Note_on_c, 0, 70, 49
3, 82080, Note_on_c, 0, 67, 49
3, 82320, Note_on_c, 0, 67, 0
3, 82320, Note_on_c, 0, 70, 0
3, 82320, Note_on_c, 0, 75, 0
3, 82320, Note_on_c, 0, 70, 55
3, 82320, Note_on_c, 0, 75, 55
3, 82320, Note_on_c, 0, 79, 65
3, 82560, Note_on_c, 0, 79, 0
3, 82560, Note_on_c, 0, 75, 0
3, 82560, Note_on_c, 0, 70, 0
3, 82560, Note_on_c, 0, 82, 84
3, 82560, Note_on_c, 0, 79, 71
3, 82560, Note_on_c, 0, 75, 71
3, 82560, Note_on_c, 0, 70, 71
3, 82800, Note_on_c, 0, 70, 0
3, 82800, Note_on_c, 0, 82, 0
3, 82800, Note_on_c, 0, 79, 0
3, 82800, Note_on_c, 0, 75, 0
3, 83520, Note_on_c, 0, 62, 78
3, 83520, Note_on_c, 0, 58, 65
3, 83520, Note_on_c, 0, 56, 65
3, 83520, Note_on_c, 0, 53, 65
3, 83640, Note_on_c, 0, 53, 0
3, 83640, Note_on_c, 0, 62, 0
3, 83640, Note_on_c, 0, 58, 0
3, 83640, Note_on_c, 0, 56, 0
3, 83640, Note_on_c, 0, 46, 117
3, 83640, Note_on_c, 0, 34, 98
3, 84000, Note_on_c, 0, 34, 0
3, 84000, Note_on_c, 0, 46, 0
3, 84480, Note_on_c, 0, 27, 85
3, 84480, Note_on_c, 0, 39, 95
3, 84480, Note_on_c, 0, 51, 95
3, 84480, Note_on_c, 0, 63, 104
3, 84960, Note_on_c, 0, 63, 0
3, 84960, Note_on_c, 0, 51, 0
3, 84960, Note_on_c, 0, 58, 88
3, 84960, Note_on_c, 0, 46, 88
3, 85440, Note_on_c, 0, 46, 0
3, 85440, Note_on_c, 0, 58, 0
3, 85440, Note_on_c, 0, 63, 88
3, 85440, Note_on_c, 0, 58, 88
3, 85440, Note_on_c, 0, 51, 88
3, 85920, Note_on_c, 0, 39, 0
3, 85920, Note_on_c, 0, 27, 0
3, 85920, Note_on_c, 0, 27, 76
3, 85920, Note_on_c, 0, 34, 76
3, 85920, Note_on_c, 0, 39, 76
3, 86160, Note_on_c, 0, 58, 0
3, 86160, Note_on_c, 0, 51, 0
3, 86160, Note_on_c, 0, 63, 0
3, 86160, Note_on_c, 0, 48, 77
3, 86280, Note_on_c, 0, 48, 0
3, 86280, Note_on_c, 0, 51, 84
3, 86400, Note_on_c, 0, 51, 0
3, 86400, Note_on_c, 0, 27, 0
3, 86400, Note_on_c, 0, 34, 0
3, 86400, Note_on_c, 0, 39, 0
3, 86400, Note_on_c, 0, 43, 88
3, 86400, Note_on_c, 0, 55, 88
3, 86640, Note_on_c, 0, 55, 0
3, 86640, Note_on_c, 0, 43, 0
3, 86640, Note_on_c, 0, 58, 77
3, 86640, Note_on_c, 0, 46, 77
3, 86760, Note_on_c, 0, 46, 0
3, 86760, Note_on_c, 0, 58, 0
3, 86880, Note_on_c, 0, 46, 81
3, 86880, Note_on_c, 0, 58, 81
3, 87000, Note_on_c, 0, 58, 0
3, 87000, Note_on_c, 0, 46, 0
3, 87120, Note_on_c, 0, 51, 77
3, 87120, Note_on_c, 0, 58, 77
3, 87120, Note_on_c, 0, 63, 77
3, 87240, Note_on_c, 0, 63, 0
3, 87240, Note_on_c, 0, 58, 0
3, 87240, Note_on_c, 0, 51, 0
3, 87360, Note_on_c, 0, 51, 88
3, 87360, Note_on_c, 0, 58, 88
3, 87360, Note_on_c, 0, 63, 88
3, 87840, Note_on_c, 0, 27, 76
3, 87840, Note_on_c, 0, 34, 76
3, 87840, Note_on_c, 0, 39, 76
3, 88080, Note_on_c, 0, 63, 0
3, 88080, Note_on_c, 0, 51, 0
3, 88080, Note_on_c, 0, 58, 0
3, 88080, Note_on_c, 0, 48, 69
3, 88200, Note_on_c, 0, 48, 0
3, 88200, Note_on_c, 0, 51, 71
3, 88320, Note_on_c, 0, 51, 0
3, 88320, Note_on_c, 0, 27, 0
3, 88320, Note_on_c, 0, 34, 0
3, 88320, Note_on_c, 0, 39, 0
3, 88320, Note_on_c, 0, 43, 77
3, 88320, Note_on_c, 0, 55, 77
3, 88440, Note_on_c, 0, 55, 0
3, 88440, Note_on_c, 0, 43, 0
3, 88560, Note_on_c, 0, 46, 69
3, 88560, Note_on_c, 0, 58, 69
3, 88680, Note_on_c, 0, 58, 0
3, 88680, Note_on_c, 0, 46, 0
3, 88800, Note_on_c, 0, 58, 70
3, 88800, Note_on_c, 0, 46, 70
3, 88920, Note_on_c, 0, 46, 0
3, 88920, Note_on_c, 0, 58, 0
3, 89040, Note_on_c, 0, 51, 66
3, 89040, Note_on_c, 0, 63, 66
3, 89040, Note_on_c, 0, 58, 66
3, 89160, Note_on_c, 0, 58, 0
3, 89160, Note_on_c, 0, 63, 0
3, 89160, Note_on_c, 0, 51, 0
3, 89280, Note_on_c, 0, 51, 77
3, 89280, Note_on_c, 0, 63, 77
3, 89280, Note_on_c, 0, 58, 77
3, 89760, Note_on_c, 0, 58, 0
3, 89760, Note_on_c, 0, 63, 0
3, 89760, Note_on_c, 0, 51, 0
3, 89760, Note_on_c, 0, 67, 77
3, 89760, Note_on_c, 0, 55, 77
3, 90000, Note_on_c, 0, 39, 69
3, 90000, Note_on_c, 0, 27, 69
3, 90240, Note_on_c, 0, 27, 0
3, 90240, Note_on_c, 0, 67, 0
3, 90240, Note_on_c, 0, 55, 0
3, 90240, Note_on_c, 0, 39, 0
3, 90240, Note_on_c, 0, 48, 77
3, 90240, Note_on_c, 0, 60, 77
3, 90720, Note_on_c, 0, 60, 0
3, 90720, Note_on_c, 0, 48, 0
3, 90720, Note_on_c, 0, 63, 77
3, 90720, Note_on_c, 0, 51, 77
3, 90960, Note_on_c, 0, 39, 70
3, 90960, Note_on_c, 0, 27, 70
3, 91200, Note_on_c, 0, 27, 0
3, 91200, Note_on_c, 0, 63, 0
3, 91200, Note_on_c, 0, 51, 0
3, 91200, Note_on_c, 0, 39, 0
3, 91200, Note_on_c, 0, 46, 88
3, 91200, Note_on_c, 0, 58, 88
3, 91680, Note_on_c, 0, 58, 0
3, 91680, Note_on_c, 0, 46, 0
3, 91680, Note_on_c, 0, 48, 81
3, 91680, Note_on_c, 0, 60, 81
3, 91800, Note_on_c, 0, 60, 0
3, 91800, Note_on_c, 0, 48, 0
3, 91920, Note_on_c, 0, 58, 69
3, 91920, Note_on_c, 0, 46, 69
3, 92040, Note_on_c, 0, 46, 0
3, 92040, Note_on_c, 0, 58, 0
3, 92160, Note_on_c, 0, 44, 80
3, 92160, Note_on_c, 0, 56, 80
3, 92280, Note_on_c, 0, 56, 0
3, 92280, Note_on_c, 0, 44, 0
3, 92400, Note_on_c, 0, 55, 69
3, 92400, Note_on_c, 0, 43, 69
3, 92520, Note_on_c, 0, 43, 0
3, 92520, Note_on_c, 0, 55, 0
3, 92640, Note_on_c, 0, 41, 79
3, 92640, Note_on_c, 0, 53, 79
3, 93120, Note_on_c, 0, 53, 0
3, 93120, Note_on_c, 0, 41, 0
3, 93120, Note_on_c, 0, 51, 78
3, 93120, Note_on_c, 0, 39, 78
3, 93360, Note_on_c, 0, 39, 0
3, 93360, Note_on_c, 0, 51, 0
3, 93600, Note_on_c, 0, 43, 69
3, 93600, Note_on_c, 0, 55, 69
3, 94080, Note_on_c, 0, 55, 0
3, 94080, Note_on_c, 0, 43, 0
3, 94080, Note_on_c, 0, 50, 77
3, 94080, Note_on_c, 0, 38, 77
3, 94560, Note_on_c, 0, 38, 0
3, 94560, Note_on_c, 0, 50, 0
3, 94560, Note_on_c, 0, 36, 69
3, 94560, Note_on_c, 0, 48, 69
3, 95040, Note_on_c, 0, 48, 0
3, 95040, Note_on_c, 0, 36, 0
3, 95040, Note_on_c, 0, 46, 77
3, 95040, Note_on_c, 0, 34, 77
3, 95760, Note_on_c, 0, 34, 0
3, 95760, Note_on_c, 0, 46, 0
3, 95760, Note_on_c, 0, 32, 60
3, 95760, Note_on_c, 0, 44, 60
3, 95880, Note_on_c, 0, 44, 0
3, 95880, Note_on_c, 0, 32, 0
3, 96000, Note_on_c, 0, 43, 60
3, 96000, Note_on_c, 0, 31, 60
3, 96120, Note_on_c, 0, 31, 0
3, 96120, Note_on_c, 0, 43, 0
3, 96240, Note_on_c, 0, 46, 57
3, 96240, Note_on_c, 0, 34, 57
3, 96360, Note_on_c, 0, 34, 0
3, 96360, Note_on_c, 0, 46, 0
3, 96480, Note_on_c, 0, 29, 44
3, 96480, Note_on_c, 0, 41, 44
3, 96720, Note_on_c, 0, 41, 0
3, 96720, Note_on_c, 0, 29, 0
3, 96960, Note_on_c, 0, 27, 46
3, 96960, Note_on_c, 0, 39, 55
3, 97680, Note_on_c, 0, 39, 0
3, 97680, Note_on_c, 0, 27, 0
3, 97680, Note_on_c, 0, 34, 39
3, 97920, Note_on_c, 0, 34, 0
3, 97920, Note_on_c, 0, 39, 38
3, 97920, Note_on_c, 0, 46, 45
3, 98640, Note_on_c, 0, 46, 0
3, 98640, Note_on_c, 0, 39, 0
3, 98640, Note_on_c, 0, 70, 50
3, 98760, Note_on_c, 0, 70, 0
3, 98880, Note_on_c, 0, 63, 45
3, 99360, Note_on_c, 0, 63, 0
3, 99360, Note_on_c, 0, 34, 45
3, 99600, Note_on_c, 0, 34, 0
3, 99600, Note_on_c, 0, 46, 39
3, 99600, Note_on_c, 0, 41, 33
3, 99840, Note_on_c, 0, 41, 0
3, 99840, Note_on_c, 0, 46, 0
3, 99840, Note_on_c, 0, 46, 50
3, 99840, Note_on_c, 0, 39, 42
3, 100320, Note_on_c, 0, 39, 0
3, 100320, Note_on_c, 0, 46, 0
3, 100320, Note_on_c, 0, 70, 50
3, 100440, Note_on_c, 0, 70, 0
3, 100560, Note_on_c, 0, 72, 46
3, 100680, Note_on_c, 0, 72, 0
3, 100800, Note_on_c, 0, 63, 50
3, 101040, Note_on_c, 0, 63, 0
3, 101040, Note_on_c, 0, 27, 35
3, 101040, Note_on_c, 0, 39, 42
3, 101280, Note_on_c, 0, 39, 0
3, 101280, Note_on_c, 0, 27, 0
3, 101280, Note_on_c, 0, 46, 53
3, 101280, Note_on_c, 0, 34, 44
3, 101520, Note_on_c, 0, 34, 0
3, 101520, Note_on_c, 0, 46, 0
3, 101520, Note_on_c, 0, 51, 54
3, 101520, Note_on_c, 0, 39, 45
3, 101760, Note_on_c, 0, 39, 0
3, 101760, Note_on_c, 0, 51, 0
3, 101760, Note_on_c, 0, 58, 56
3, 101760, Note_on_c, 0, 46, 47
3, 102000, Note_on_c, 0, 46, 0
3, 102000, Note_on_c, 0, 58, 0
3, 102000, Note_on_c, 0, 60, 60
3, 102120, Note_on_c, 0, 60, 0
3, 102120, Note_on_c, 0, 63, 63
3, 102240, Note_on_c, 0, 63, 0
3, 102240, Note_on_c, 0, 55, 61
3, 102240, Note_on_c, 0, 67, 73
3, 102360, Note_on_c, 0, 67, 0
3, 102360, Note_on_c, 0, 55, 0
3, 102480, Note_on_c, 0, 58, 62
3, 102480, Note_on_c, 0, 70, 73
3, 102600, Note_on_c, 0, 70, 0
3, 102600, Note_on_c, 0, 58, 0
3, 102720, Note_on_c, 0, 63, 56
3, 102720, Note_on_c, 0, 75, 78
3, 102840, Note_on_c, 0, 75, 0
3, 102840, Note_on_c, 0, 63, 0
3, 102960, Note_on_c, 0, 58, 55
3, 102960, Note_on_c, 0, 70, 77
3, 103080, Note_on_c, 0, 70, 0
3, 103080, Note_on_c, 0, 58, 0
3, 103200, Note_on_c, 0, 67, 81
3, 103200, Note_on_c, 0, 55, 57
3, 103320, Note_on_c, 0, 55, 0
3, 103320, Note_on_c, 0, 67, 0
3, 103440, Note_on_c, 0, 63, 73
3, 103440, Note_on_c, 0, 51, 62
3, 103560, Note_on_c, 0, 51, 0
3, 103560, Note_on_c, 0, 63, 0
3, 103680, Note_on_c, 0, 48, 68
3, 103680, Note_on_c, 0, 60, 81
3, 103800, Note_on_c, 0, 60, 0
3, 103800, Note_on_c, 0, 48, 0
3, 103920, Note_on_c, 0, 58, 71
3, 103920, Note_on_c, 0, 46, 60
3, 104040, Note_on_c, 0, 46, 0
3, 104040, Note_on_c, 0, 58, 0
3, 104040, Note_on_c, 0, 55, 63
3, 104160, Note_on_c, 0, 55, 0
3, 104160, Note_on_c, 0, 51, 77
3, 104280, Note_on_c, 0, 51, 0
3, 104400, Note_on_c, 0, 48, 76
3, 104400, Note_on_c, 0, 36, 64
3, 104640, Note_on_c, 0, 36, 0
3, 104640, Note_on_c, 0, 48, 0
3, 104640, Note_on_c, 0, 34, 74
3, 104640, Note_on_c, 0, 46, 89
3, 105120, Note_on_c, 0, 46, 0
3, 105120, Note_on_c, 0, 34, 0
3, 105120, Note_on_c, 0, 48, 76
3, 105120, Note_on_c, 0, 51, 76
3, 105120, Note_on_c, 0, 55, 76
3, 105120, Note_on_c, 0, 60, 91
3, 105600, Note_on_c, 0, 60, 0
3, 105600, Note_on_c, 0, 48, 0
3, 105600, Note_on_c, 0, 51, 0
3, 105600, Note_on_c, 0, 55, 0
3, 105600, Note_on_c, 0, 43, 78
3, 105600, Note_on_c, 0, 46, 78
3, 105600, Note_on_c, 0, 50, 78
3, 105600, Note_on_c, 0, 55, 92
3, 105960, Note_on_c, 0, 55, 0
3, 105960, Note_on_c, 0, 43, 0
3, 105960, Note_on_c, 0, 46, 0
3, 105960, Note_on_c, 0, 50, 0
3, 105960, Note_on_c, 0, 34, 75
3, 105960, Note_on_c, 0, 46, 84
3, 106080, Note_on_c, 0, 46, 0
3, 106080, Note_on_c, 0, 34, 0
3, 106080, Note_on_c, 0, 53, 81
3, 106080, Note_on_c, 0, 56, 81
3, 106080, Note_on_c, 0, 58, 81
3, 106080, Note_on_c, 0, 62, 81
3, 106080, Note_on_c, 0, 65, 96
3, 106560, Note_on_c, 0, 65, 0
3, 106560, Note_on_c, 0, 58, 0
3, 106560, Note_on_c, 0, 53, 0
3, 106560, Note_on_c, 0, 56, 0
3, 106560, Note_on_c, 0, 62, 0
3, 106560, Note_on_c, 0, 27, 80
3, 106560, Note_on_c, 0, 39, 95
3, 106776, Note_on_c, 0, 39, 0
3, 106776, Note_on_c, 0, 27, 0
3, 106800, Note_on_c, 0, 58, 82
3, 106800, Note_on_c, 0, 55, 69
3, 106800, Note_on_c, 0, 51, 69
3, 106800, Note_on_c, 0, 46, 69
3, 106860, Note_on_c, 0, 46, 0
3, 106860, Note_on_c, 0, 58, 0
3, 106860, Note_on_c, 0, 55, 0
3, 106860, Note_on_c, 0, 51, 0
3, 106920, Note_on_c, 0, 58, 82
3, 106920, Note_on_c, 0, 55, 69
3, 106920, Note_on_c, 0, 51, 69
3, 106920, Note_on_c, 0, 46, 69
3, 106980, Note_on_c, 0, 46, 0
3, 106980, Note_on_c, 0, 58, 0
3, 106980, Note_on_c, 0, 55, 0
3, 106980, Note_on_c, 0, 51, 0
3, 107040, Note_on_c, 0, 58, 94
3, 107040, Note_on_c, 0, 55, 80
3, 107040, Note_on_c, 0, 51, 80
3, 107040, Note_on_c, 0, 46, 80
3, 107520, Note_on_c, 0, 46, 0
3, 107520, Note_on_c, 0, 58, 0
3, 107520, Note_on_c, 0, 55, 0
3, 107520, Note_on_c, 0, 51, 0
3, 107520, End_track
4, 0, Start_track
4, 0, Title_t, "Pedale"
4, 0, Program_c, 0, 0
4, 226, Control_c, 0, 64, 127
4, 1920, Control_c, 0, 64, 0
4, 2019, Control_c, 0, 64, 127
4, 2895, Control_c, 0, 64, 0
4, 3036, Control_c, 0, 64, 127
4, 3840, Control_c, 0, 64, 0
4, 3911, Control_c, 0, 64, 127
4, 4345, Control_c, 0, 64, 0
4, 4878, Control_c, 0, 64, 127
4, 5301, Control_c, 0, 64, 0
4, 5365, Control_c, 0, 64, 127
4, 5421, Control_c, 0, 64, 0
4, 5612, Control_c, 0, 64, 127
4, 5760, Control_c, 0, 64, 0
4, 6014, Control_c, 0, 64, 127
4, 6494, Control_c, 0, 64, 0
4, 6805, Control_c, 0, 64, 127
4, 7210, Control_c, 0, 64, 0
4, 7327, Control_c, 0, 64, 127
4, 7447, Control_c, 0, 64, 0
4, 7765, Control_c, 0, 64, 127
4, 8170, Control_c, 0, 64, 0
4, 8287, Control_c, 0, 64, 127
4, 8407, Control_c, 0, 64, 0
4, 8725, Control_c, 0, 64, 127
4, 9130, Control_c, 0, 64, 0
4, 9247, Control_c, 0, 64, 127
4, 9370, Control_c, 0, 64, 0
4, 9685, Control_c, 0, 64, 127
4, 10088, Control_c, 0, 64, 0
4, 10172, Control_c, 0, 64, 127
4, 11520, Control_c, 0, 64, 0
4, 11591, Control_c, 0, 64, 127
4, 12007, Control_c, 0, 64, 0
4, 12085, Control_c, 0, 64, 127
4, 13440, Control_c, 0, 64, 0
4, 13509, Control_c, 0, 64, 127
4, 15362, Control_c, 0, 64, 0
4, 15720, Control_c, 0, 64, 127
4, 19200, Control_c, 0, 64, 0
4, 19426, Control_c, 0, 64, 127
4, 21120, Control_c, 0, 64, 0
4, 21219, Control_c, 0, 64, 127
4, 22095, Control_c, 0, 64, 0
4, 22236, Control_c, 0, 64, 127
4, 23040, Control_c, 0, 64, 0
4, 23111, Control_c, 0, 64, 127
4, 23545, Control_c, 0, 64, 0
4, 24078, Control_c, 0, 64, 127
4, 24501, Control_c, 0, 64, 0
4, 24565, Control_c, 0, 64, 127
4, 24621, Control_c, 0, 64, 0
4, 24812, Control_c, 0, 64, 127
4, 24960, Control_c, 0, 64, 0
4, 28094, Control_c, 0, 64, 127
4, 28574, Control_c, 0, 64, 0
4, 28885, Control_c, 0, 64, 127
4, 29290, Control_c, 0, 64, 0
4, 29407, Control_c, 0, 64, 127
4, 29527, Control_c, 0, 64, 0
4, 29845, Control_c, 0, 64, 127
4, 30250, Control_c, 0, 64, 0
4, 30367, Control_c, 0, 64, 127
4, 30487, Control_c, 0, 64, 0
4, 30805, Control_c, 0, 64, 127
4, 31210, Control_c, 0, 64, 0
4, 31327, Control_c, 0, 64, 127
4, 31450, Control_c, 0, 64, 0
4, 31765, Control_c, 0, 64, 127
4, 32168, Control_c, 0, 64, 0
4, 32252, Control_c, 0, 64, 127
4, 33600, Control_c, 0, 64, 0
4, 33671, Control_c, 0, 64, 127
4, 34087, Control_c, 0, 64, 0
4, 34165, Control_c, 0, 64, 127
4, 35520, Control_c, 0, 64, 0
4, 35589, Control_c, 0, 64, 127
4, 37442, Control_c, 0, 64, 0
4, 37800, Control_c, 0, 64, 127
4, 40857, Control_c, 0, 64, 0
4, 42292, Control_c, 0, 64, 127
4, 42743, Control_c, 0, 64, 0
4, 44177, Control_c, 0, 64, 127
4, 44406, Control_c, 0, 64, 0
4, 45177, Control_c, 0, 64, 127
4, 45607, Control_c, 0, 64, 0
4, 46223, Control_c, 0, 64, 127
4, 46617, Control_c, 0, 64, 0
4, 48366, Control_c, 0, 64, 127
4, 48981, Control_c, 0, 64, 0
4, 49326, Control_c, 0, 64, 127
4, 49935, Control_c, 0, 64, 0
4, 50047, Control_c, 0, 64, 127
4, 50644, Control_c, 0, 64, 0
4, 55751, Control_c, 0, 64, 127
4, 56407, Control_c, 0, 64, 0
4, 56718, Control_c, 0, 64, 127
4, 57383, Control_c, 0, 64, 0
4, 57664, Control_c, 0, 64, 127
4, 59520, Control_c, 0, 64, 0
4, 60085, Control_c, 0, 64, 127
4, 60501, Control_c, 0, 64, 0
4, 60614, Control_c, 0, 64, 127
4, 60969, Control_c, 0, 64, 0
4, 61045, Control_c, 0, 64, 127
4, 61449, Control_c, 0, 64, 0
4, 61610, Control_c, 0, 64, 127
4, 62164, Control_c, 0, 64, 0
4, 67271, Control_c, 0, 64, 127
4, 67927, Control_c, 0, 64, 0
4, 68238, Control_c, 0, 64, 127
4, 68903, Control_c, 0, 64, 0
4, 69184, Control_c, 0, 64, 127
4, 70207, Control_c, 0, 64, 0
4, 70326, Control_c, 0, 64, 127
4, 70589, Control_c, 0, 64, 0
4, 71605, Control_c, 0, 64, 127
4, 71605, Control_c, 0, 64, 127
4, 72014, Control_c, 0, 64, 0
4, 72516, Control_c, 0, 64, 127
4, 72960, Control_c, 0, 64, 0
4, 73000, Control_c, 0, 64, 127
4, 73236, Control_c, 0, 64, 0
4, 73503, Control_c, 0, 64, 127
4, 73948, Control_c, 0, 64, 0
4, 74240, Control_c, 0, 64, 127
4, 74769, Control_c, 0, 64, 0
4, 74817, Control_c, 0, 64, 127
4, 74889, Control_c, 0, 64, 0
4, 75064, Control_c, 0, 64, 127
4, 75850, Control_c, 0, 64, 0
4, 75935, Control_c, 0, 64, 127
4, 76810, Control_c, 0, 64, 0
4, 76895, Control_c, 0, 64, 127
4, 77770, Control_c, 0, 64, 0
4, 77855, Control_c, 0, 64, 127
4, 78720, Control_c, 0, 64, 0
4, 78795, Control_c, 0, 64, 127
4, 79212, Control_c, 0, 64, 0
4, 79303, Control_c, 0, 64, 127
4, 79689, Control_c, 0, 64, 0
4, 79760, Control_c, 0, 64, 127
4, 80177, Control_c, 0, 64, 0
4, 80297, Control_c, 0, 64, 127
4, 80651, Control_c, 0, 64, 0
4, 80697, Control_c, 0, 64, 127
4, 81132, Control_c, 0, 64, 0
4, 81229, Control_c, 0, 64, 127
4, 81614, Control_c, 0, 64, 0
4, 81663, Control_c, 0, 64, 127
4, 82095, Control_c, 0, 64, 0
4, 82223, Control_c, 0, 64, 127
4, 82575, Control_c, 0, 64, 0
4, 82649, Control_c, 0, 64, 127
4, 83400, Control_c, 0, 64, 0
4, 83552, Control_c, 0, 64, 127
4, 84300, Control_c, 0, 64, 0
4, 84600, Control_c, 0, 64, 127
4, 85695, Control_c, 0, 64, 0
4, 85775, Control_c, 0, 64, 127
4, 86653, Control_c, 0, 64, 0
4, 86716, Control_c, 0, 64, 127
4, 87624, Control_c, 0, 64, 0
4, 87689, Control_c, 0, 64, 127
4, 88567, Control_c, 0, 64, 0
4, 88642, Control_c, 0, 64, 127
4, 89533, Control_c, 0, 64, 0
4, 89609, Control_c, 0, 64, 127
4, 91200, Control_c, 0, 64, 0
4, 91270, Control_c, 0, 64, 127
4, 91689, Control_c, 0, 64, 0
4, 91775, Control_c, 0, 64, 127
4, 92173, Control_c, 0, 64, 0
4, 92268, Control_c, 0, 64, 127
4, 92672, Control_c, 0, 64, 0
4, 92729, Control_c, 0, 64, 127
4, 93120, Control_c, 0, 64, 0
4, 93226, Control_c, 0, 64, 127
4, 93621, Control_c, 0, 64, 0
4, 93713, Control_c, 0, 64, 127
4, 94087, Control_c, 0, 64, 0
4, 94172, Control_c, 0, 64, 127
4, 94574, Control_c, 0, 64, 0
4, 94659, Control_c, 0, 64, 127
4, 95040, Control_c, 0, 64, 0
4, 95097, Control_c, 0, 64, 127
4, 95800, Control_c, 0, 64, 0
4, 97066, Control_c, 0, 64, 127
4, 97689, Control_c, 0, 64, 0
4, 97977, Control_c, 0, 64, 127
4, 98654, Control_c, 0, 64, 0
4, 98958, Control_c, 0, 64, 127
4, 99614, Control_c, 0, 64, 0
4, 99967, Control_c, 0, 64, 127
4, 100333, Control_c, 0, 64, 0
4, 100843, Control_c, 0, 64, 127
4, 103456, Control_c, 0, 64, 0
4, 103560, Control_c, 0, 64, 127
4, 104640, Control_c, 0, 64, 0
4, 104817, Control_c, 0, 64, 127
4, 105125, Control_c, 0, 64, 0
4, 105272, Control_c, 0, 64, 127
4, 105621, Control_c, 0, 64, 0
4, 105777, Control_c, 0, 64, 127
4, 105970, Control_c, 0, 64, 0
4, 106038, Control_c, 0, 64, 127
4, 106574, Control_c, 0, 64, 0
4, 106631, Control_c, 0, 64, 127
4, 107591, Control_c, 0, 64, 0
4, 107591, End_track
5, 0, Start_track
5, 0, Title_t, "Rachmaninov: Etudes-Tableux Opus 33 No. 6"
5, 0, End_track
6, 0, Start_track
6, 0, Title_t, "Copyright © 2013 by Bernd Krueger"
6, 0, End_track
7, 0, Start_track
7, 0, Title_t, "http://www.piano-midi.de/"
7, 0, End_track
8, 0, Start_track
8, 0, Title_t, "Edition: 2013-02-27"
8, 0, End_track
9, 0, Start_track
9, 0, Title_t, "Spur 8"
9, 0, End_track
10, 0, Start_track
10, 0, Title_t, "Spur 9"
10, 0, End_track
11, 0, Start_track
11, 0, Title_t, "Spur 10"
11, 0, End_track
12, 0, Start_track
12, 0, Title_t, "Spur 11"
12, 0, End_track
13, 0, Start_track
13, 0, Title_t, "Spur 12"
13, 0, End_track
14, 0, Start_track
14, 0, Title_t, "Spur 13"
14, 0, End_track
15, 0, Start_track
15, 0, Title_t, "Spur 14"
15, 0, End_track
16, 0, Start_track
16, 0, Title_t, "Spur 15"
16, 0, End_track
17, 0, Start_track
17, 0, Title_t, "Spur 16"
17, 0, End_track
0, 0, End_of_file
