0, 0, Header, 1, 11, 480
1, 0, Start_track
1, 0, Title_t, "Prelude Opus 3 No.2"
1, 0, Copyright_t, "Copyright © 2004 by Bernd Krueger"
1, 0, Text_t, "Serge Rachmaninow"
1, 0, Text_t, "Lento - Agitato"
1, 0, Text_t, "Fertiggestellt am 15.10.2004\012"
1, 0, Text_t, "Update am 26,11.2012\012"
1, 0, Text_t, "Dauer: 4:05 Minuten\012"
1, 0, SMPTE_offset, 96, 0, 3, 0, 0
1, 0, Time_signature, 4, 2, 24, 8
1, 0, Key_signature, 4, "major"
1, 0, Tempo, 547945
1, 0, Marker_t, "Lento"
1, 960, Tempo, 2000000
1, 2400, Tempo, 1481481
1, 3840, Tempo, 2000000
1, 5040, Tempo, 2000000
1, 5520, Tempo, 2142857
1, 5760, Tempo, 2000000
1, 7680, Tempo, 2033898
1, 7920, Tempo, 1846154
1, 8400, Tempo, 2033898
1, 8640, Tempo, 1846154
1, 8880, Tempo, 1935484
1, 9840, Tempo, 1818182
1, 10320, Tempo, 1935484
1, 10560, Tempo, 1764706
1, 10800, Tempo, 1967213
1, 11000, Tempo, 1764706
1, 11040, Tempo, 1818182
1, 11520, Tempo, 1875000
1, 11760, Tempo, 1666667
1, 12000, Tempo, 1643836
1, 12480, Tempo, 1578947
1, 12720, Tempo, 1643836
1, 12960, Tempo, 1578947
1, 13920, Tempo, 1578947
1, 14040, Tempo, 1600000
1, 14160, Tempo, 1621622
1, 14280, Tempo, 1643836
1, 14400, Tempo, 1666667
1, 14440, Tempo, 1643836
1, 14560, Tempo, 1666667
1, 14680, Tempo, 1690141
1, 14800, Tempo, 1714286
1, 14920, Tempo, 1739130
1, 15040, Tempo, 1764706
1, 15160, Tempo, 1791045
1, 15280, Tempo, 1818182
1, 15360, Tempo, 1846154
1, 15840, Tempo, 1875000
1, 16320, Tempo, 1967213
1, 17280, Tempo, 2000000
1, 18240, Tempo, 1904762
1, 18480, Tempo, 2033898
1, 18720, Tempo, 1904762
1, 18960, Tempo, 2000000
1, 19200, Tempo, 1904762
1, 19440, Tempo, 1643836
1, 20400, Tempo, 1621622
1, 20520, Tempo, 1643836
1, 20600, Tempo, 1666667
1, 20680, Tempo, 1690141
1, 20760, Tempo, 1714286
1, 20840, Tempo, 1739130
1, 20920, Tempo, 1764706
1, 21000, Tempo, 1791045
1, 21080, Tempo, 1818182
1, 21160, Tempo, 1846154
1, 21240, Tempo, 1875000
1, 21280, Tempo, 1846154
1, 21360, Tempo, 1818182
1, 22080, Tempo, 1904762
1, 25200, Tempo, 1967213
1, 25440, Tempo, 1904762
1, 25920, Tempo, 2000000
1, 26640, Tempo, 2222222
1, 26880, Tempo, 354380
1, 26880, Marker_t, "Agitato"
1, 27360, Tempo, 320873
1, 27560, Tempo, 321785
1, 27720, Tempo, 322719
1, 27880, Tempo, 323642
1, 28040, Tempo, 324588
1, 28240, Tempo, 325538
1, 28400, Tempo, 326495
1, 28560, Tempo, 327439
1, 28720, Tempo, 328389
1, 28800, Tempo, 328389
1, 29280, Tempo, 320873
1, 29440, Tempo, 321785
1, 29600, Tempo, 322719
1, 29760, Tempo, 323642
1, 29920, Tempo, 324588
1, 30040, Tempo, 325538
1, 30200, Tempo, 326495
1, 30360, Tempo, 327439
1, 30520, Tempo, 328389
1, 30640, Tempo, 329363
1, 30720, Tempo, 323642
1, 31200, Tempo, 334262
1, 31680, Tempo, 324588
1, 32160, Tempo, 334262
1, 32640, Tempo, 325538
1, 33120, Tempo, 335270
1, 33600, Tempo, 326495
1, 34080, Tempo, 336285
1, 34560, Tempo, 343840
1, 35040, Tempo, 320873
1, 35240, Tempo, 321785
1, 35400, Tempo, 322719
1, 35560, Tempo, 323642
1, 35720, Tempo, 324588
1, 35920, Tempo, 325538
1, 36080, Tempo, 326495
1, 36240, Tempo, 327439
1, 36400, Tempo, 328389
1, 36480, Tempo, 328389
1, 36960, Tempo, 320873
1, 37120, Tempo, 321785
1, 37280, Tempo, 322719
1, 37440, Tempo, 323642
1, 37600, Tempo, 324588
1, 37720, Tempo, 325538
1, 37880, Tempo, 326495
1, 38040, Tempo, 327439
1, 38200, Tempo, 328389
1, 38320, Tempo, 329363
1, 38400, Tempo, 323642
1, 38880, Tempo, 334262
1, 39360, Tempo, 324588
1, 39840, Tempo, 334262
1, 40320, Tempo, 325538
1, 40800, Tempo, 335270
1, 41280, Tempo, 326495
1, 41760, Tempo, 336285
1, 42240, Tempo, 325538
1, 42720, Tempo, 329670
1, 43200, Tempo, 326495
1, 43680, Tempo, 331492
1, 44160, Tempo, 325538
1, 44640, Tempo, 330579
1, 45120, Tempo, 326495
1, 45600, Tempo, 331492
1, 46080, Tempo, 325538
1, 46560, Tempo, 335270
1, 47040, Tempo, 326495
1, 47520, Tempo, 336285
1, 48000, Tempo, 325538
1, 48480, Tempo, 335270
1, 48960, Tempo, 326495
1, 49440, Tempo, 336285
1, 49920, Tempo, 325538
1, 50400, Tempo, 335270
1, 50880, Tempo, 326495
1, 51360, Tempo, 336285
1, 51600, Tempo, 409556
1, 51720, Tempo, 336134
1, 51840, Tempo, 333333
1, 52320, Tempo, 320873
1, 52520, Tempo, 321785
1, 52680, Tempo, 322719
1, 52840, Tempo, 323642
1, 53000, Tempo, 324588
1, 53200, Tempo, 325538
1, 53360, Tempo, 326495
1, 53520, Tempo, 434783
1, 53640, Tempo, 328767
1, 53680, Tempo, 328389
1, 53760, Tempo, 328389
1, 54240, Tempo, 320873
1, 54400, Tempo, 321785
1, 54560, Tempo, 322719
1, 54720, Tempo, 323642
1, 54880, Tempo, 324588
1, 55000, Tempo, 325538
1, 55160, Tempo, 326495
1, 55320, Tempo, 327439
1, 55480, Tempo, 328389
1, 55600, Tempo, 329363
1, 55680, Tempo, 323642
1, 56160, Tempo, 334262
1, 56640, Tempo, 324588
1, 57120, Tempo, 334262
1, 57600, Tempo, 325538
1, 58080, Tempo, 335270
1, 58560, Tempo, 326495
1, 59040, Tempo, 336285
1, 59280, Tempo, 419580
1, 59400, Tempo, 336134
1, 59520, Tempo, 338028
1, 60000, Tempo, 320873
1, 60200, Tempo, 321785
1, 60360, Tempo, 322719
1, 60520, Tempo, 323642
1, 60680, Tempo, 324588
1, 60880, Tempo, 325538
1, 61040, Tempo, 326495
1, 61200, Tempo, 422535
1, 61320, Tempo, 327869
1, 61360, Tempo, 328389
1, 61440, Tempo, 328389
1, 61920, Tempo, 320873
1, 62080, Tempo, 321785
1, 62240, Tempo, 322719
1, 62400, Tempo, 323642
1, 62560, Tempo, 324588
1, 62680, Tempo, 325538
1, 62840, Tempo, 326495
1, 63000, Tempo, 327439
1, 63160, Tempo, 328389
1, 63280, Tempo, 329363
1, 63360, Tempo, 323642
1, 63840, Tempo, 334262
1, 64320, Tempo, 324588
1, 64800, Tempo, 334262
1, 65280, Tempo, 325538
1, 65760, Tempo, 335270
1, 66240, Tempo, 326495
1, 66720, Tempo, 336285
1, 67200, Tempo, 325538
1, 67680, Tempo, 341880
1, 68160, Tempo, 328767
1, 68640, Tempo, 325203
1, 70080, Tempo, 320856
1, 71000, Tempo, 320000
1, 71360, Tempo, 319149
1, 71720, Tempo, 318302
1, 72040, Tempo, 317460
1, 72400, Tempo, 316623
1, 72720, Tempo, 315789
1, 73080, Tempo, 314961
1, 73440, Tempo, 314136
1, 73760, Tempo, 313316
1, 74120, Tempo, 312500
1, 74440, Tempo, 311688
1, 74600, Tempo, 311688
1, 74720, Tempo, 335196
1, 74880, Tempo, 310881
1, 76640, Tempo, 338983
1, 76800, Tempo, 311688
1, 78560, Tempo, 337079
1, 78720, Tempo, 311688
1, 80480, Tempo, 337079
1, 80640, Tempo, 310881
1, 80840, Tempo, 311688
1, 81040, Tempo, 312500
1, 81240, Tempo, 313316
1, 81400, Tempo, 314136
1, 81600, Tempo, 314961
1, 81800, Tempo, 315789
1, 82000, Tempo, 316623
1, 82160, Tempo, 317460
1, 82400, Tempo, 463320
1, 82560, Tempo, 437956
1, 86400, Tempo, 1625135
1, 86400, Marker_t, "Temp primo"
1, 86640, Tempo, 1537279
1, 87360, Tempo, 1537279
1, 87840, Tempo, 1537279
1, 88320, Tempo, 1625135
1, 88560, Tempo, 1558037
1, 90240, Tempo, 1625135
1, 90720, Tempo, 1558037
1, 90960, Tempo, 1648352
1, 91200, Tempo, 1558037
1, 92160, Tempo, 1625135
1, 93120, Tempo, 1558037
1, 94320, Tempo, 1477105
1, 94560, Tempo, 1370489
1, 97680, Tempo, 1537279
1, 97800, Tempo, 1354096
1, 98370, Tempo, 1404166
1, 98880, Tempo, 1477105
1, 99840, Tempo, 1579779
1, 102000, Tempo, 1421801
1, 102960, Tempo, 1537279
1, 103040, Tempo, 1421801
1, 103120, Tempo, 1439885
1, 103160, Tempo, 1458435
1, 103200, Tempo, 1477105
1, 103240, Tempo, 1496633
1, 103320, Tempo, 1516684
1, 103360, Tempo, 1537279
1, 103400, Tempo, 1558037
1, 103440, Tempo, 1579779
1, 103520, Tempo, 1602136
1, 103560, Tempo, 1625135
1, 103600, Tempo, 1648352
1, 103640, Tempo, 1672707
1, 103680, Tempo, 1764706
1, 103720, Tempo, 1846154
1, 103800, Tempo, 1875000
1, 103840, Tempo, 1846154
1, 103920, Tempo, 1818182
1, 104640, Tempo, 1904762
1, 105600, Tempo, 1165049
1, 106080, Tempo, 1379310
1, 107520, Tempo, 1165049
1, 108000, Tempo, 1348315
1, 109440, Tempo, 1165049
1, 109920, Tempo, 1304348
1, 111360, Tempo, 1176471
1, 111840, Tempo, 1333333
1, 113280, Tempo, 1176471
1, 113760, Tempo, 1333333
1, 115200, Tempo, 1165049
1, 115680, Tempo, 1318681
1, 116160, Tempo, 1538462
1, 116880, Tempo, 2500000
1, 117120, Tempo, 2000000
1, 120960, Tempo, 2000000
1, 120960, End_track
2, 0, Start_track
2, 0, Title_t, "Piano right"
2, 0, Program_c, 0, 0
2, 0, Control_c, 0, 7, 100
2, 0, Control_c, 0, 10, 64
2, 0, Text_t, "bdca426d104a26ac9dcb070447587523"
2, 0, Control_c, 0, 91, 127
2, 960, Note_on_c, 0, 57, 94
2, 1440, Note_on_c, 0, 57, 0
2, 1440, Note_on_c, 0, 56, 94
2, 1920, Note_on_c, 0, 56, 0
2, 1920, Note_on_c, 0, 49, 98
2, 4080, Note_on_c, 0, 68, 21
2, 4080, Note_on_c, 0, 61, 21
2, 4080, Note_on_c, 0, 73, 26
2, 4318, Note_on_c, 0, 68, 0
2, 4320, Note_on_c, 0, 71, 21
2, 4320, Note_on_c, 0, 64, 21
2, 4320, Note_on_c, 0, 76, 26
2, 4330, Note_on_c, 0, 73, 0
2, 4330, Note_on_c, 0, 61, 0
2, 4560, Note_on_c, 0, 70, 21
2, 4560, Note_on_c, 0, 75, 26
2, 4560, Note_on_c, 0, 63, 21
2, 4570, Note_on_c, 0, 71, 0
2, 4570, Note_on_c, 0, 64, 0
2, 4570, Note_on_c, 0, 76, 0
2, 4800, Note_on_c, 0, 70, 0
2, 4800, Note_on_c, 0, 49, 0
2, 4800, Note_on_c, 0, 75, 0
2, 4800, Note_on_c, 0, 63, 0
2, 4800, Note_on_c, 0, 57, 66
2, 5040, Note_on_c, 0, 69, 22
2, 5040, Note_on_c, 0, 62, 22
2, 5040, Note_on_c, 0, 74, 27
2, 5280, Note_on_c, 0, 74, 0
2, 5280, Note_on_c, 0, 57, 0
2, 5280, Note_on_c, 0, 69, 0
2, 5280, Note_on_c, 0, 62, 0
2, 5280, Note_on_c, 0, 56, 66
2, 5520, Note_on_c, 0, 66, 22
2, 5520, Note_on_c, 0, 72, 27
2, 5520, Note_on_c, 0, 60, 22
2, 5760, Note_on_c, 0, 60, 0
2, 5760, Note_on_c, 0, 56, 0
2, 5760, Note_on_c, 0, 66, 0
2, 5760, Note_on_c, 0, 72, 0
2, 5760, Note_on_c, 0, 49, 66
2, 6000, Note_on_c, 0, 68, 25
2, 6000, Note_on_c, 0, 61, 25
2, 6000, Note_on_c, 0, 73, 31
2, 6238, Note_on_c, 0, 68, 0
2, 6240, Note_on_c, 0, 71, 25
2, 6240, Note_on_c, 0, 76, 31
2, 6240, Note_on_c, 0, 64, 25
2, 6250, Note_on_c, 0, 73, 0
2, 6250, Note_on_c, 0, 61, 0
2, 6480, Note_on_c, 0, 75, 31
2, 6480, Note_on_c, 0, 63, 25
2, 6480, Note_on_c, 0, 70, 25
2, 6490, Note_on_c, 0, 71, 0
2, 6490, Note_on_c, 0, 76, 0
2, 6490, Note_on_c, 0, 64, 0
2, 6720, Note_on_c, 0, 75, 0
2, 6720, Note_on_c, 0, 49, 0
2, 6720, Note_on_c, 0, 63, 0
2, 6720, Note_on_c, 0, 70, 0
2, 6720, Note_on_c, 0, 57, 73
2, 6960, Note_on_c, 0, 74, 32
2, 6960, Note_on_c, 0, 69, 27
2, 6960, Note_on_c, 0, 62, 27
2, 7200, Note_on_c, 0, 62, 0
2, 7200, Note_on_c, 0, 57, 0
2, 7200, Note_on_c, 0, 74, 0
2, 7200, Note_on_c, 0, 69, 0
2, 7200, Note_on_c, 0, 56, 77
2, 7440, Note_on_c, 0, 72, 33
2, 7440, Note_on_c, 0, 60, 27
2, 7440, Note_on_c, 0, 66, 27
2, 7680, Note_on_c, 0, 66, 0
2, 7680, Note_on_c, 0, 56, 0
2, 7680, Note_on_c, 0, 72, 0
2, 7680, Note_on_c, 0, 60, 0
2, 7680, Note_on_c, 0, 49, 77
2, 7920, Note_on_c, 0, 68, 44
2, 7920, Note_on_c, 0, 73, 55
2, 7920, Note_on_c, 0, 61, 44
2, 8158, Note_on_c, 0, 61, 0
2, 8158, Note_on_c, 0, 68, 0
2, 8160, Note_on_c, 0, 73, 0
2, 8160, Note_on_c, 0, 80, 55
2, 8160, Note_on_c, 0, 68, 44
2, 8160, Note_on_c, 0, 73, 44
2, 8400, Note_on_c, 0, 73, 0
2, 8400, Note_on_c, 0, 78, 55
2, 8400, Note_on_c, 0, 73, 44
2, 8400, Note_on_c, 0, 66, 44
2, 8410, Note_on_c, 0, 68, 0
2, 8410, Note_on_c, 0, 80, 0
2, 8640, Note_on_c, 0, 78, 0
2, 8640, Note_on_c, 0, 49, 0
2, 8640, Note_on_c, 0, 66, 0
2, 8640, Note_on_c, 0, 73, 0
2, 8640, Note_on_c, 0, 60, 80
2, 8880, Note_on_c, 0, 64, 51
2, 8880, Note_on_c, 0, 69, 51
2, 8880, Note_on_c, 0, 76, 61
2, 9120, Note_on_c, 0, 76, 0
2, 9120, Note_on_c, 0, 60, 0
2, 9120, Note_on_c, 0, 64, 0
2, 9120, Note_on_c, 0, 69, 0
2, 9120, Note_on_c, 0, 59, 80
2, 9360, Note_on_c, 0, 75, 61
2, 9360, Note_on_c, 0, 63, 51
2, 9360, Note_on_c, 0, 69, 51
2, 9600, Note_on_c, 0, 69, 0
2, 9600, Note_on_c, 0, 59, 0
2, 9600, Note_on_c, 0, 75, 0
2, 9600, Note_on_c, 0, 63, 0
2, 9600, Note_on_c, 0, 52, 83
2, 9840, Note_on_c, 0, 76, 72
2, 9840, Note_on_c, 0, 64, 57
2, 9840, Note_on_c, 0, 71, 57
2, 10078, Note_on_c, 0, 64, 0
2, 10080, Note_on_c, 0, 71, 0
2, 10080, Note_on_c, 0, 76, 0
2, 10080, Note_on_c, 0, 83, 75
2, 10080, Note_on_c, 0, 76, 59
2, 10080, Note_on_c, 0, 71, 59
2, 10320, Note_on_c, 0, 76, 0
2, 10320, Note_on_c, 0, 76, 59
2, 10320, Note_on_c, 0, 81, 75
2, 10320, Note_on_c, 0, 69, 59
2, 10330, Note_on_c, 0, 71, 0
2, 10330, Note_on_c, 0, 83, 0
2, 10560, Note_on_c, 0, 76, 0
2, 10560, Note_on_c, 0, 52, 0
2, 10560, Note_on_c, 0, 69, 0
2, 10560, Note_on_c, 0, 81, 0
2, 10560, Note_on_c, 0, 64, 88
2, 10800, Note_on_c, 0, 68, 60
2, 10800, Note_on_c, 0, 80, 73
2, 10800, Note_on_c, 0, 73, 60
2, 11040, Note_on_c, 0, 73, 0
2, 11040, Note_on_c, 0, 64, 0
2, 11040, Note_on_c, 0, 68, 0
2, 11040, Note_on_c, 0, 80, 0
2, 11040, Note_on_c, 0, 63, 88
2, 11280, Note_on_c, 0, 73, 60
2, 11280, Note_on_c, 0, 67, 60
2, 11280, Note_on_c, 0, 79, 73
2, 11520, Note_on_c, 0, 79, 0
2, 11520, Note_on_c, 0, 63, 0
2, 11520, Note_on_c, 0, 73, 0
2, 11520, Note_on_c, 0, 67, 0
2, 11520, Note_on_c, 0, 56, 92
2, 11760, Note_on_c, 0, 68, 51
2, 11760, Note_on_c, 0, 80, 60
2, 11760, Note_on_c, 0, 75, 51
2, 12000, Note_on_c, 0, 76, 66
2, 12000, Note_on_c, 0, 81, 66
2, 12000, Note_on_c, 0, 69, 56
2, 12010, Note_on_c, 0, 75, 0
2, 12010, Note_on_c, 0, 80, 0
2, 12010, Note_on_c, 0, 68, 0
2, 12238, Note_on_c, 0, 76, 0
2, 12238, Note_on_c, 0, 69, 0
2, 12238, Note_on_c, 0, 81, 0
2, 12240, Note_on_c, 0, 78, 60
2, 12240, Note_on_c, 0, 66, 51
2, 12240, Note_on_c, 0, 73, 51
2, 12480, Note_on_c, 0, 80, 65
2, 12480, Note_on_c, 0, 68, 55
2, 12480, Note_on_c, 0, 75, 55
2, 12490, Note_on_c, 0, 73, 0
2, 12490, Note_on_c, 0, 66, 0
2, 12490, Note_on_c, 0, 78, 0
2, 12718, Note_on_c, 0, 80, 0
2, 12718, Note_on_c, 0, 75, 0
2, 12718, Note_on_c, 0, 68, 0
2, 12720, Note_on_c, 0, 64, 51
2, 12720, Note_on_c, 0, 71, 51
2, 12720, Note_on_c, 0, 76, 60
2, 12960, Note_on_c, 0, 66, 55
2, 12960, Note_on_c, 0, 78, 65
2, 12960, Note_on_c, 0, 73, 55
2, 12970, Note_on_c, 0, 76, 0
2, 12970, Note_on_c, 0, 71, 0
2, 12970, Note_on_c, 0, 64, 0
2, 13198, Note_on_c, 0, 66, 0
2, 13198, Note_on_c, 0, 73, 0
2, 13198, Note_on_c, 0, 78, 0
2, 13200, Note_on_c, 0, 69, 51
2, 13200, Note_on_c, 0, 75, 51
2, 13200, Note_on_c, 0, 63, 51
2, 13440, Note_on_c, 0, 76, 65
2, 13440, Note_on_c, 0, 64, 55
2, 13440, Note_on_c, 0, 71, 55
2, 13450, Note_on_c, 0, 63, 0
2, 13450, Note_on_c, 0, 75, 0
2, 13450, Note_on_c, 0, 69, 0
2, 13668, Note_on_c, 0, 76, 0
2, 13668, Note_on_c, 0, 71, 0
2, 13668, Note_on_c, 0, 64, 0
2, 13680, Note_on_c, 0, 56, 0
2, 13680, Note_on_c, 0, 76, 60
2, 13680, Note_on_c, 0, 64, 51
2, 13680, Note_on_c, 0, 71, 51
2, 13920, Note_on_c, 0, 66, 56
2, 13920, Note_on_c, 0, 73, 56
2, 13920, Note_on_c, 0, 78, 67
2, 13930, Note_on_c, 0, 71, 0
2, 13930, Note_on_c, 0, 76, 0
2, 13930, Note_on_c, 0, 64, 0
2, 14158, Note_on_c, 0, 66, 0
2, 14158, Note_on_c, 0, 73, 0
2, 14158, Note_on_c, 0, 78, 0
2, 14160, Note_on_c, 0, 63, 51
2, 14160, Note_on_c, 0, 75, 60
2, 14160, Note_on_c, 0, 69, 51
2, 14400, Note_on_c, 0, 71, 56
2, 14400, Note_on_c, 0, 76, 66
2, 14400, Note_on_c, 0, 64, 56
2, 14410, Note_on_c, 0, 69, 0
2, 14410, Note_on_c, 0, 63, 0
2, 14410, Note_on_c, 0, 75, 0
2, 14638, Note_on_c, 0, 71, 0
2, 14638, Note_on_c, 0, 76, 0
2, 14638, Note_on_c, 0, 64, 0
2, 14640, Note_on_c, 0, 73, 52
2, 14640, Note_on_c, 0, 61, 44
2, 14640, Note_on_c, 0, 68, 44
2, 14880, Note_on_c, 0, 75, 44
2, 14880, Note_on_c, 0, 63, 36
2, 14880, Note_on_c, 0, 69, 36
2, 14890, Note_on_c, 0, 68, 0
2, 14890, Note_on_c, 0, 73, 0
2, 14890, Note_on_c, 0, 61, 0
2, 15118, Note_on_c, 0, 75, 0
2, 15118, Note_on_c, 0, 63, 0
2, 15118, Note_on_c, 0, 69, 0
2, 15120, Note_on_c, 0, 60, 29
2, 15120, Note_on_c, 0, 66, 29
2, 15120, Note_on_c, 0, 72, 35
2, 15360, Note_on_c, 0, 61, 25
2, 15360, Note_on_c, 0, 73, 29
2, 15360, Note_on_c, 0, 68, 25
2, 15370, Note_on_c, 0, 72, 0
2, 15370, Note_on_c, 0, 60, 0
2, 15370, Note_on_c, 0, 66, 0
2, 15588, Note_on_c, 0, 61, 0
2, 15588, Note_on_c, 0, 73, 0
2, 15588, Note_on_c, 0, 68, 0
2, 15600, Note_on_c, 0, 73, 26
2, 15600, Note_on_c, 0, 68, 21
2, 15600, Note_on_c, 0, 61, 21
2, 15838, Note_on_c, 0, 68, 0
2, 15840, Note_on_c, 0, 64, 21
2, 15840, Note_on_c, 0, 71, 21
2, 15840, Note_on_c, 0, 76, 26
2, 15850, Note_on_c, 0, 61, 0
2, 15850, Note_on_c, 0, 73, 0
2, 16080, Note_on_c, 0, 63, 21
2, 16080, Note_on_c, 0, 75, 26
2, 16080, Note_on_c, 0, 70, 21
2, 16090, Note_on_c, 0, 71, 0
2, 16090, Note_on_c, 0, 76, 0
2, 16090, Note_on_c, 0, 64, 0
2, 16320, Note_on_c, 0, 57, 50
2, 16330, Note_on_c, 0, 63, 0
2, 16330, Note_on_c, 0, 70, 0
2, 16330, Note_on_c, 0, 75, 0
2, 16560, Note_on_c, 0, 62, 22
2, 16560, Note_on_c, 0, 69, 22
2, 16560, Note_on_c, 0, 74, 27
2, 16800, Note_on_c, 0, 74, 0
2, 16800, Note_on_c, 0, 57, 0
2, 16800, Note_on_c, 0, 62, 0
2, 16800, Note_on_c, 0, 69, 0
2, 16800, Note_on_c, 0, 56, 55
2, 17040, Note_on_c, 0, 72, 27
2, 17040, Note_on_c, 0, 66, 22
2, 17040, Note_on_c, 0, 60, 22
2, 17280, Note_on_c, 0, 60, 0
2, 17280, Note_on_c, 0, 56, 0
2, 17280, Note_on_c, 0, 72, 0
2, 17280, Note_on_c, 0, 66, 0
2, 17280, Note_on_c, 0, 49, 54
2, 17520, Note_on_c, 0, 61, 28
2, 17520, Note_on_c, 0, 68, 28
2, 17520, Note_on_c, 0, 73, 37
2, 17758, Note_on_c, 0, 61, 0
2, 17760, Note_on_c, 0, 73, 0
2, 17760, Note_on_c, 0, 68, 0
2, 17760, Note_on_c, 0, 68, 32
2, 17760, Note_on_c, 0, 80, 41
2, 17760, Note_on_c, 0, 73, 32
2, 18000, Note_on_c, 0, 73, 0
2, 18000, Note_on_c, 0, 73, 32
2, 18000, Note_on_c, 0, 66, 32
2, 18000, Note_on_c, 0, 78, 41
2, 18010, Note_on_c, 0, 80, 0
2, 18010, Note_on_c, 0, 68, 0
2, 18240, Note_on_c, 0, 73, 0
2, 18240, Note_on_c, 0, 49, 0
2, 18240, Note_on_c, 0, 78, 0
2, 18240, Note_on_c, 0, 66, 0
2, 18240, Note_on_c, 0, 57, 62
2, 18480, Note_on_c, 0, 76, 36
2, 18480, Note_on_c, 0, 69, 29
2, 18480, Note_on_c, 0, 64, 29
2, 18720, Note_on_c, 0, 64, 0
2, 18720, Note_on_c, 0, 57, 0
2, 18720, Note_on_c, 0, 76, 0
2, 18720, Note_on_c, 0, 69, 0
2, 18720, Note_on_c, 0, 56, 60
2, 18960, Note_on_c, 0, 66, 27
2, 18960, Note_on_c, 0, 60, 27
2, 18960, Note_on_c, 0, 72, 33
2, 19200, Note_on_c, 0, 72, 0
2, 19200, Note_on_c, 0, 56, 0
2, 19200, Note_on_c, 0, 66, 0
2, 19200, Note_on_c, 0, 60, 0
2, 19200, Note_on_c, 0, 49, 57
2, 19440, Note_on_c, 0, 61, 30
2, 19440, Note_on_c, 0, 73, 36
2, 19440, Note_on_c, 0, 68, 30
2, 19680, Note_on_c, 0, 69, 39
2, 19680, Note_on_c, 0, 62, 33
2, 19680, Note_on_c, 0, 74, 39
2, 19690, Note_on_c, 0, 68, 0
2, 19690, Note_on_c, 0, 73, 0
2, 19690, Note_on_c, 0, 61, 0
2, 19918, Note_on_c, 0, 69, 0
2, 19918, Note_on_c, 0, 74, 0
2, 19918, Note_on_c, 0, 62, 0
2, 19920, Note_on_c, 0, 66, 30
2, 19920, Note_on_c, 0, 59, 30
2, 19920, Note_on_c, 0, 71, 36
2, 20160, Note_on_c, 0, 73, 39
2, 20160, Note_on_c, 0, 68, 33
2, 20160, Note_on_c, 0, 61, 33
2, 20170, Note_on_c, 0, 71, 0
2, 20170, Note_on_c, 0, 59, 0
2, 20170, Note_on_c, 0, 66, 0
2, 20398, Note_on_c, 0, 73, 0
2, 20398, Note_on_c, 0, 61, 0
2, 20398, Note_on_c, 0, 68, 0
2, 20400, Note_on_c, 0, 57, 27
2, 20400, Note_on_c, 0, 64, 27
2, 20400, Note_on_c, 0, 69, 32
2, 20640, Note_on_c, 0, 59, 30
2, 20640, Note_on_c, 0, 71, 35
2, 20640, Note_on_c, 0, 66, 30
2, 20650, Note_on_c, 0, 69, 0
2, 20650, Note_on_c, 0, 64, 0
2, 20650, Note_on_c, 0, 57, 0
2, 20878, Note_on_c, 0, 59, 0
2, 20878, Note_on_c, 0, 66, 0
2, 20878, Note_on_c, 0, 71, 0
2, 20880, Note_on_c, 0, 62, 28
2, 20880, Note_on_c, 0, 56, 28
2, 20880, Note_on_c, 0, 68, 28
2, 21120, Note_on_c, 0, 66, 25
2, 21120, Note_on_c, 0, 57, 25
2, 21120, Note_on_c, 0, 69, 30
2, 21130, Note_on_c, 0, 68, 0
2, 21130, Note_on_c, 0, 56, 0
2, 21130, Note_on_c, 0, 62, 0
2, 21348, Note_on_c, 0, 66, 0
2, 21348, Note_on_c, 0, 69, 0
2, 21348, Note_on_c, 0, 57, 0
2, 21360, Note_on_c, 0, 49, 0
2, 21360, Note_on_c, 0, 69, 26
2, 21360, Note_on_c, 0, 57, 21
2, 21360, Note_on_c, 0, 66, 21
2, 21600, Note_on_c, 0, 66, 0
2, 21600, Note_on_c, 0, 66, 21
2, 21600, Note_on_c, 0, 61, 21
2, 21600, Note_on_c, 0, 73, 26
2, 21610, Note_on_c, 0, 57, 0
2, 21610, Note_on_c, 0, 69, 0
2, 21840, Note_on_c, 0, 61, 0
2, 21840, Note_on_c, 0, 66, 0
2, 21840, Note_on_c, 0, 66, 21
2, 21840, Note_on_c, 0, 59, 21
2, 21840, Note_on_c, 0, 71, 26
2, 21850, Note_on_c, 0, 73, 0
2, 22080, Note_on_c, 0, 66, 0
2, 22080, Note_on_c, 0, 59, 0
2, 22080, Note_on_c, 0, 71, 0
2, 22080, Note_on_c, 0, 55, 51
2, 22320, Note_on_c, 0, 64, 22
2, 22320, Note_on_c, 0, 57, 22
2, 22320, Note_on_c, 0, 69, 27
2, 22560, Note_on_c, 0, 69, 0
2, 22560, Note_on_c, 0, 55, 0
2, 22560, Note_on_c, 0, 64, 0
2, 22560, Note_on_c, 0, 57, 0
2, 22560, Note_on_c, 0, 56, 48
2, 22800, Note_on_c, 0, 56, 22
2, 22800, Note_on_c, 0, 68, 27
2, 22800, Note_on_c, 0, 63, 22
2, 23040, Note_on_c, 0, 63, 0
2, 23040, Note_on_c, 0, 56, 0
2, 23040, Note_on_c, 0, 56, 0
2, 23040, Note_on_c, 0, 68, 0
2, 23040, Note_on_c, 0, 49, 47
2, 23280, Note_on_c, 0, 61, 25
2, 23280, Note_on_c, 0, 52, 25
2, 23520, Note_on_c, 0, 56, 25
2, 23520, Note_on_c, 0, 64, 25
2, 23530, Note_on_c, 0, 52, 0
2, 23530, Note_on_c, 0, 61, 0
2, 23760, Note_on_c, 0, 55, 25
2, 23760, Note_on_c, 0, 63, 25
2, 23770, Note_on_c, 0, 64, 0
2, 23770, Note_on_c, 0, 56, 0
2, 24000, Note_on_c, 0, 49, 0
2, 24000, Note_on_c, 0, 55, 0
2, 24000, Note_on_c, 0, 63, 0
2, 24000, Note_on_c, 0, 57, 37
2, 24240, Note_on_c, 0, 60, 23
2, 24240, Note_on_c, 0, 54, 23
2, 24240, Note_on_c, 0, 62, 23
2, 24480, Note_on_c, 0, 62, 0
2, 24480, Note_on_c, 0, 57, 0
2, 24480, Note_on_c, 0, 60, 0
2, 24480, Note_on_c, 0, 54, 0
2, 24480, Note_on_c, 0, 56, 34
2, 24720, Note_on_c, 0, 51, 23
2, 24720, Note_on_c, 0, 60, 23
2, 24720, Note_on_c, 0, 54, 23
2, 24960, Note_on_c, 0, 54, 0
2, 24960, Note_on_c, 0, 56, 0
2, 24960, Note_on_c, 0, 51, 0
2, 24960, Note_on_c, 0, 60, 0
2, 24960, Note_on_c, 0, 49, 43
2, 25200, Note_on_c, 0, 61, 25
2, 25200, Note_on_c, 0, 52, 25
2, 25440, Note_on_c, 0, 56, 25
2, 25440, Note_on_c, 0, 64, 25
2, 25450, Note_on_c, 0, 52, 0
2, 25450, Note_on_c, 0, 61, 0
2, 25680, Note_on_c, 0, 55, 25
2, 25680, Note_on_c, 0, 63, 25
2, 25690, Note_on_c, 0, 64, 0
2, 25690, Note_on_c, 0, 56, 0
2, 25920, Note_on_c, 0, 49, 0
2, 25920, Note_on_c, 0, 55, 0
2, 25920, Note_on_c, 0, 63, 0
2, 25920, Note_on_c, 0, 57, 37
2, 26160, Note_on_c, 0, 60, 23
2, 26160, Note_on_c, 0, 54, 23
2, 26160, Note_on_c, 0, 62, 23
2, 26400, Note_on_c, 0, 62, 0
2, 26400, Note_on_c, 0, 57, 0
2, 26400, Note_on_c, 0, 60, 0
2, 26400, Note_on_c, 0, 54, 0
2, 26400, Note_on_c, 0, 56, 34
2, 26640, Note_on_c, 0, 51, 23
2, 26640, Note_on_c, 0, 60, 23
2, 26640, Note_on_c, 0, 54, 23
2, 26880, Note_on_c, 0, 54, 0
2, 26880, Note_on_c, 0, 56, 0
2, 26880, Note_on_c, 0, 51, 0
2, 26880, Note_on_c, 0, 60, 0
2, 26880, Note_on_c, 0, 64, 42
2, 27040, Note_on_c, 0, 56, 36
2, 27200, Note_on_c, 0, 56, 0
2, 27200, Note_on_c, 0, 61, 36
2, 27360, Note_on_c, 0, 61, 0
2, 27360, Note_on_c, 0, 64, 0
2, 27360, Note_on_c, 0, 63, 41
2, 27520, Note_on_c, 0, 55, 34
2, 27680, Note_on_c, 0, 55, 0
2, 27680, Note_on_c, 0, 61, 34
2, 27840, Note_on_c, 0, 61, 0
2, 27840, Note_on_c, 0, 63, 0
2, 27840, Note_on_c, 0, 62, 39
2, 28000, Note_on_c, 0, 54, 34
2, 28160, Note_on_c, 0, 54, 0
2, 28160, Note_on_c, 0, 60, 34
2, 28320, Note_on_c, 0, 60, 0
2, 28320, Note_on_c, 0, 62, 0
2, 28320, Note_on_c, 0, 61, 39
2, 28480, Note_on_c, 0, 52, 34
2, 28640, Note_on_c, 0, 52, 0
2, 28640, Note_on_c, 0, 56, 34
2, 28800, Note_on_c, 0, 56, 0
2, 28800, Note_on_c, 0, 61, 0
2, 28800, Note_on_c, 0, 64, 45
2, 28960, Note_on_c, 0, 56, 38
2, 29120, Note_on_c, 0, 56, 0
2, 29120, Note_on_c, 0, 61, 38
2, 29280, Note_on_c, 0, 61, 0
2, 29280, Note_on_c, 0, 64, 0
2, 29280, Note_on_c, 0, 63, 44
2, 29440, Note_on_c, 0, 55, 37
2, 29600, Note_on_c, 0, 55, 0
2, 29600, Note_on_c, 0, 61, 37
2, 29760, Note_on_c, 0, 61, 0
2, 29760, Note_on_c, 0, 63, 0
2, 29760, Note_on_c, 0, 62, 43
2, 29920, Note_on_c, 0, 54, 36
2, 30080, Note_on_c, 0, 54, 0
2, 30080, Note_on_c, 0, 60, 37
2, 30240, Note_on_c, 0, 60, 0
2, 30240, Note_on_c, 0, 62, 0
2, 30240, Note_on_c, 0, 61, 41
2, 30400, Note_on_c, 0, 52, 36
2, 30560, Note_on_c, 0, 52, 0
2, 30560, Note_on_c, 0, 56, 36
2, 30720, Note_on_c, 0, 56, 0
2, 30720, Note_on_c, 0, 61, 0
2, 30720, Note_on_c, 0, 68, 49
2, 30880, Note_on_c, 0, 56, 43
2, 31040, Note_on_c, 0, 56, 0
2, 31040, Note_on_c, 0, 61, 44
2, 31200, Note_on_c, 0, 61, 0
2, 31200, Note_on_c, 0, 68, 0
2, 31200, Note_on_c, 0, 66, 50
2, 31360, Note_on_c, 0, 57, 42
2, 31520, Note_on_c, 0, 57, 0
2, 31520, Note_on_c, 0, 61, 45
2, 31680, Note_on_c, 0, 61, 0
2, 31680, Note_on_c, 0, 66, 0
2, 31680, Note_on_c, 0, 69, 52
2, 31840, Note_on_c, 0, 54, 45
2, 32000, Note_on_c, 0, 54, 0
2, 32000, Note_on_c, 0, 61, 46
2, 32160, Note_on_c, 0, 61, 0
2, 32160, Note_on_c, 0, 69, 0
2, 32160, Note_on_c, 0, 68, 53
2, 32320, Note_on_c, 0, 56, 47
2, 32480, Note_on_c, 0, 56, 0
2, 32480, Note_on_c, 0, 61, 47
2, 32640, Note_on_c, 0, 61, 0
2, 32640, Note_on_c, 0, 68, 0
2, 32640, Note_on_c, 0, 66, 63
2, 32800, Note_on_c, 0, 54, 54
2, 32960, Note_on_c, 0, 54, 0
2, 32960, Note_on_c, 0, 61, 42
2, 32960, Note_on_c, 0, 64, 54
2, 33120, Note_on_c, 0, 64, 0
2, 33120, Note_on_c, 0, 61, 0
2, 33120, Note_on_c, 0, 66, 0
2, 33120, Note_on_c, 0, 66, 60
2, 33280, Note_on_c, 0, 54, 50
2, 33440, Note_on_c, 0, 54, 0
2, 33440, Note_on_c, 0, 61, 50
2, 33600, Note_on_c, 0, 61, 0
2, 33600, Note_on_c, 0, 66, 0
2, 33600, Note_on_c, 0, 64, 57
2, 33760, Note_on_c, 0, 54, 48
2, 33920, Note_on_c, 0, 54, 0
2, 33920, Note_on_c, 0, 63, 48
2, 33920, Note_on_c, 0, 60, 39
2, 34080, Note_on_c, 0, 60, 0
2, 34080, Note_on_c, 0, 63, 0
2, 34080, Note_on_c, 0, 64, 0
2, 34080, Note_on_c, 0, 64, 53
2, 34240, Note_on_c, 0, 52, 46
2, 34400, Note_on_c, 0, 52, 0
2, 34400, Note_on_c, 0, 61, 46
2, 34560, Note_on_c, 0, 61, 0
2, 34560, Note_on_c, 0, 64, 0
2, 34560, Note_on_c, 0, 64, 66
2, 34720, Note_on_c, 0, 56, 57
2, 34880, Note_on_c, 0, 56, 0
2, 34880, Note_on_c, 0, 61, 57
2, 35040, Note_on_c, 0, 61, 0
2, 35040, Note_on_c, 0, 64, 0
2, 35040, Note_on_c, 0, 63, 64
2, 35200, Note_on_c, 0, 55, 54
2, 35360, Note_on_c, 0, 55, 0
2, 35360, Note_on_c, 0, 61, 54
2, 35520, Note_on_c, 0, 61, 0
2, 35520, Note_on_c, 0, 63, 0
2, 35520, Note_on_c, 0, 62, 62
2, 35680, Note_on_c, 0, 54, 53
2, 35840, Note_on_c, 0, 54, 0
2, 35840, Note_on_c, 0, 60, 53
2, 36000, Note_on_c, 0, 60, 0
2, 36000, Note_on_c, 0, 62, 0
2, 36000, Note_on_c, 0, 61, 60
2, 36160, Note_on_c, 0, 52, 52
2, 36320, Note_on_c, 0, 52, 0
2, 36320, Note_on_c, 0, 56, 52
2, 36480, Note_on_c, 0, 56, 0
2, 36480, Note_on_c, 0, 61, 0
2, 36480, Note_on_c, 0, 64, 66
2, 36640, Note_on_c, 0, 56, 57
2, 36800, Note_on_c, 0, 56, 0
2, 36800, Note_on_c, 0, 61, 57
2, 36960, Note_on_c, 0, 61, 0
2, 36960, Note_on_c, 0, 64, 0
2, 36960, Note_on_c, 0, 63, 64
2, 37120, Note_on_c, 0, 55, 54
2, 37280, Note_on_c, 0, 55, 0
2, 37280, Note_on_c, 0, 61, 54
2, 37440, Note_on_c, 0, 61, 0
2, 37440, Note_on_c, 0, 63, 0
2, 37440, Note_on_c, 0, 62, 62
2, 37600, Note_on_c, 0, 54, 53
2, 37760, Note_on_c, 0, 54, 0
2, 37760, Note_on_c, 0, 60, 53
2, 37920, Note_on_c, 0, 60, 0
2, 37920, Note_on_c, 0, 62, 0
2, 37920, Note_on_c, 0, 61, 60
2, 38080, Note_on_c, 0, 52, 52
2, 38240, Note_on_c, 0, 52, 0
2, 38240, Note_on_c, 0, 56, 52
2, 38400, Note_on_c, 0, 56, 0
2, 38400, Note_on_c, 0, 61, 0
2, 38400, Note_on_c, 0, 68, 66
2, 38560, Note_on_c, 0, 56, 57
2, 38720, Note_on_c, 0, 56, 0
2, 38720, Note_on_c, 0, 61, 58
2, 38880, Note_on_c, 0, 61, 0
2, 38880, Note_on_c, 0, 68, 0
2, 38880, Note_on_c, 0, 66, 66
2, 39040, Note_on_c, 0, 57, 57
2, 39200, Note_on_c, 0, 57, 0
2, 39200, Note_on_c, 0, 61, 60
2, 39360, Note_on_c, 0, 61, 0
2, 39360, Note_on_c, 0, 66, 0
2, 39360, Note_on_c, 0, 69, 70
2, 39520, Note_on_c, 0, 54, 60
2, 39680, Note_on_c, 0, 54, 0
2, 39680, Note_on_c, 0, 61, 62
2, 39840, Note_on_c, 0, 61, 0
2, 39840, Note_on_c, 0, 69, 0
2, 39840, Note_on_c, 0, 68, 72
2, 40000, Note_on_c, 0, 56, 64
2, 40160, Note_on_c, 0, 56, 0
2, 40160, Note_on_c, 0, 61, 65
2, 40320, Note_on_c, 0, 61, 0
2, 40320, Note_on_c, 0, 68, 0
2, 40320, Note_on_c, 0, 73, 78
2, 40480, Note_on_c, 0, 61, 63
2, 40640, Note_on_c, 0, 61, 0
2, 40640, Note_on_c, 0, 69, 64
2, 40800, Note_on_c, 0, 69, 0
2, 40800, Note_on_c, 0, 73, 0
2, 40800, Note_on_c, 0, 71, 81
2, 40960, Note_on_c, 0, 62, 69
2, 41120, Note_on_c, 0, 62, 0
2, 41120, Note_on_c, 0, 69, 72
2, 41280, Note_on_c, 0, 69, 0
2, 41280, Note_on_c, 0, 71, 0
2, 41280, Note_on_c, 0, 74, 83
2, 41440, Note_on_c, 0, 62, 71
2, 41600, Note_on_c, 0, 62, 0
2, 41600, Note_on_c, 0, 68, 73
2, 41760, Note_on_c, 0, 68, 0
2, 41760, Note_on_c, 0, 74, 0
2, 41760, Note_on_c, 0, 73, 87
2, 41920, Note_on_c, 0, 61, 79
2, 42080, Note_on_c, 0, 61, 0
2, 42080, Note_on_c, 0, 69, 78
2, 42240, Note_on_c, 0, 69, 0
2, 42240, Note_on_c, 0, 73, 0
2, 42240, Note_on_c, 0, 78, 90
2, 42400, Note_on_c, 0, 69, 72
2, 42560, Note_on_c, 0, 69, 0
2, 42560, Note_on_c, 0, 75, 71
2, 42720, Note_on_c, 0, 75, 0
2, 42720, Note_on_c, 0, 78, 0
2, 42720, Note_on_c, 0, 76, 89
2, 42880, Note_on_c, 0, 68, 75
2, 43040, Note_on_c, 0, 68, 0
2, 43040, Note_on_c, 0, 73, 75
2, 43200, Note_on_c, 0, 73, 0
2, 43200, Note_on_c, 0, 76, 0
2, 43200, Note_on_c, 0, 74, 85
2, 43360, Note_on_c, 0, 65, 74
2, 43520, Note_on_c, 0, 65, 0
2, 43520, Note_on_c, 0, 71, 72
2, 43680, Note_on_c, 0, 71, 0
2, 43680, Note_on_c, 0, 74, 0
2, 43680, Note_on_c, 0, 73, 85
2, 43840, Note_on_c, 0, 66, 75
2, 44000, Note_on_c, 0, 66, 0
2, 44000, Note_on_c, 0, 69, 73
2, 44160, Note_on_c, 0, 69, 0
2, 44160, Note_on_c, 0, 73, 0
2, 44160, Note_on_c, 0, 74, 81
2, 44320, Note_on_c, 0, 65, 65
2, 44480, Note_on_c, 0, 65, 0
2, 44480, Note_on_c, 0, 71, 65
2, 44640, Note_on_c, 0, 71, 0
2, 44640, Note_on_c, 0, 74, 0
2, 44640, Note_on_c, 0, 73, 80
2, 44800, Note_on_c, 0, 66, 68
2, 44960, Note_on_c, 0, 66, 0
2, 44960, Note_on_c, 0, 69, 67
2, 45120, Note_on_c, 0, 69, 0
2, 45120, Note_on_c, 0, 73, 0
2, 45120, Note_on_c, 0, 71, 76
2, 45280, Note_on_c, 0, 62, 65
2, 45440, Note_on_c, 0, 62, 0
2, 45440, Note_on_c, 0, 68, 65
2, 45600, Note_on_c, 0, 68, 0
2, 45600, Note_on_c, 0, 71, 0
2, 45600, Note_on_c, 0, 69, 77
2, 45760, Note_on_c, 0, 61, 66
2, 45920, Note_on_c, 0, 61, 0
2, 45920, Note_on_c, 0, 66, 65
2, 46080, Note_on_c, 0, 66, 0
2, 46080, Note_on_c, 0, 69, 0
2, 46080, Note_on_c, 0, 69, 73
2, 46240, Note_on_c, 0, 60, 58
2, 46400, Note_on_c, 0, 60, 0
2, 46400, Note_on_c, 0, 66, 58
2, 46560, Note_on_c, 0, 66, 0
2, 46560, Note_on_c, 0, 69, 0
2, 46560, Note_on_c, 0, 68, 72
2, 46720, Note_on_c, 0, 61, 61
2, 46880, Note_on_c, 0, 61, 0
2, 46880, Note_on_c, 0, 64, 62
2, 47040, Note_on_c, 0, 64, 0
2, 47040, Note_on_c, 0, 68, 0
2, 47040, Note_on_c, 0, 66, 70
2, 47200, Note_on_c, 0, 57, 60
2, 47360, Note_on_c, 0, 57, 0
2, 47360, Note_on_c, 0, 63, 60
2, 47520, Note_on_c, 0, 63, 0
2, 47520, Note_on_c, 0, 66, 0
2, 47520, Note_on_c, 0, 64, 71
2, 47680, Note_on_c, 0, 56, 63
2, 47840, Note_on_c, 0, 56, 0
2, 47840, Note_on_c, 0, 61, 61
2, 48000, Note_on_c, 0, 61, 0
2, 48000, Note_on_c, 0, 64, 0
2, 48000, Note_on_c, 0, 62, 73
2, 48160, Note_on_c, 0, 57, 58
2, 48320, Note_on_c, 0, 57, 0
2, 48320, Note_on_c, 0, 61, 58
2, 48480, Note_on_c, 0, 61, 0
2, 48480, Note_on_c, 0, 62, 0
2, 48480, Note_on_c, 0, 69, 73
2, 48640, Note_on_c, 0, 57, 63
2, 48800, Note_on_c, 0, 57, 0
2, 48800, Note_on_c, 0, 61, 65
2, 48960, Note_on_c, 0, 61, 0
2, 48960, Note_on_c, 0, 69, 0
2, 48960, Note_on_c, 0, 63, 75
2, 49120, Note_on_c, 0, 58, 65
2, 49280, Note_on_c, 0, 58, 0
2, 49280, Note_on_c, 0, 61, 66
2, 49440, Note_on_c, 0, 61, 0
2, 49440, Note_on_c, 0, 63, 0
2, 49440, Note_on_c, 0, 70, 79
2, 49600, Note_on_c, 0, 58, 71
2, 49760, Note_on_c, 0, 58, 0
2, 49760, Note_on_c, 0, 61, 69
2, 49920, Note_on_c, 0, 61, 0
2, 49920, Note_on_c, 0, 70, 0
2, 49920, Note_on_c, 0, 64, 85
2, 50080, Note_on_c, 0, 59, 68
2, 50240, Note_on_c, 0, 59, 0
2, 50240, Note_on_c, 0, 63, 68
2, 50400, Note_on_c, 0, 63, 0
2, 50400, Note_on_c, 0, 64, 0
2, 50400, Note_on_c, 0, 71, 87
2, 50560, Note_on_c, 0, 59, 75
2, 50720, Note_on_c, 0, 59, 0
2, 50720, Note_on_c, 0, 63, 77
2, 50880, Note_on_c, 0, 63, 0
2, 50880, Note_on_c, 0, 71, 0
2, 50880, Note_on_c, 0, 72, 88
2, 51040, Note_on_c, 0, 60, 75
2, 51200, Note_on_c, 0, 60, 0
2, 51200, Note_on_c, 0, 66, 77
2, 51360, Note_on_c, 0, 66, 0
2, 51360, Note_on_c, 0, 72, 0
2, 51360, Note_on_c, 0, 73, 93
2, 51520, Note_on_c, 0, 61, 83
2, 51680, Note_on_c, 0, 61, 0
2, 51680, Note_on_c, 0, 64, 82
2, 51840, Note_on_c, 0, 64, 0
2, 51840, Note_on_c, 0, 73, 0
2, 51840, Note_on_c, 0, 76, 94
2, 52000, Note_on_c, 0, 68, 81
2, 52160, Note_on_c, 0, 68, 0
2, 52160, Note_on_c, 0, 73, 81
2, 52320, Note_on_c, 0, 73, 0
2, 52320, Note_on_c, 0, 76, 0
2, 52320, Note_on_c, 0, 75, 91
2, 52480, Note_on_c, 0, 67, 76
2, 52640, Note_on_c, 0, 67, 0
2, 52640, Note_on_c, 0, 73, 76
2, 52800, Note_on_c, 0, 73, 0
2, 52800, Note_on_c, 0, 75, 0
2, 52800, Note_on_c, 0, 74, 88
2, 52960, Note_on_c, 0, 66, 75
2, 53120, Note_on_c, 0, 66, 0
2, 53120, Note_on_c, 0, 72, 75
2, 53280, Note_on_c, 0, 72, 0
2, 53280, Note_on_c, 0, 74, 0
2, 53280, Note_on_c, 0, 73, 86
2, 53440, Note_on_c, 0, 64, 74
2, 53600, Note_on_c, 0, 64, 0
2, 53600, Note_on_c, 0, 68, 74
2, 53760, Note_on_c, 0, 68, 0
2, 53760, Note_on_c, 0, 73, 0
2, 53760, Note_on_c, 0, 76, 94
2, 53920, Note_on_c, 0, 68, 81
2, 54080, Note_on_c, 0, 68, 0
2, 54080, Note_on_c, 0, 73, 81
2, 54240, Note_on_c, 0, 73, 0
2, 54240, Note_on_c, 0, 76, 0
2, 54240, Note_on_c, 0, 75, 91
2, 54400, Note_on_c, 0, 67, 76
2, 54560, Note_on_c, 0, 67, 0
2, 54560, Note_on_c, 0, 73, 76
2, 54720, Note_on_c, 0, 73, 0
2, 54720, Note_on_c, 0, 75, 0
2, 54720, Note_on_c, 0, 74, 88
2, 54880, Note_on_c, 0, 66, 75
2, 55040, Note_on_c, 0, 66, 0
2, 55040, Note_on_c, 0, 72, 75
2, 55200, Note_on_c, 0, 72, 0
2, 55200, Note_on_c, 0, 74, 0
2, 55200, Note_on_c, 0, 73, 86
2, 55360, Note_on_c, 0, 64, 74
2, 55520, Note_on_c, 0, 64, 0
2, 55520, Note_on_c, 0, 68, 74
2, 55680, Note_on_c, 0, 68, 0
2, 55680, Note_on_c, 0, 73, 0
2, 55680, Note_on_c, 0, 80, 94
2, 55840, Note_on_c, 0, 68, 81
2, 56000, Note_on_c, 0, 68, 0
2, 56000, Note_on_c, 0, 73, 82
2, 56160, Note_on_c, 0, 73, 0
2, 56160, Note_on_c, 0, 80, 0
2, 56160, Note_on_c, 0, 78, 93
2, 56320, Note_on_c, 0, 69, 80
2, 56480, Note_on_c, 0, 69, 0
2, 56480, Note_on_c, 0, 73, 81
2, 56640, Note_on_c, 0, 73, 0
2, 56640, Note_on_c, 0, 78, 0
2, 56640, Note_on_c, 0, 81, 94
2, 56800, Note_on_c, 0, 66, 81
2, 56960, Note_on_c, 0, 66, 0
2, 56960, Note_on_c, 0, 73, 82
2, 57120, Note_on_c, 0, 73, 0
2, 57120, Note_on_c, 0, 81, 0
2, 57120, Note_on_c, 0, 80, 94
2, 57280, Note_on_c, 0, 68, 82
2, 57440, Note_on_c, 0, 68, 0
2, 57440, Note_on_c, 0, 73, 82
2, 57600, Note_on_c, 0, 73, 0
2, 57600, Note_on_c, 0, 80, 0
2, 57600, Note_on_c, 0, 78, 93
2, 57760, Note_on_c, 0, 66, 81
2, 57920, Note_on_c, 0, 66, 0
2, 57920, Note_on_c, 0, 73, 81
2, 57920, Note_on_c, 0, 76, 81
2, 58080, Note_on_c, 0, 76, 0
2, 58080, Note_on_c, 0, 73, 0
2, 58080, Note_on_c, 0, 78, 0
2, 58080, Note_on_c, 0, 78, 91
2, 58240, Note_on_c, 0, 66, 80
2, 58400, Note_on_c, 0, 66, 0
2, 58400, Note_on_c, 0, 73, 82
2, 58560, Note_on_c, 0, 73, 0
2, 58560, Note_on_c, 0, 78, 0
2, 58560, Note_on_c, 0, 76, 88
2, 58720, Note_on_c, 0, 66, 80
2, 58880, Note_on_c, 0, 66, 0
2, 58880, Note_on_c, 0, 72, 64
2, 58880, Note_on_c, 0, 75, 79
2, 59040, Note_on_c, 0, 75, 0
2, 59040, Note_on_c, 0, 72, 0
2, 59040, Note_on_c, 0, 76, 0
2, 59040, Note_on_c, 0, 76, 86
2, 59200, Note_on_c, 0, 64, 75
2, 59360, Note_on_c, 0, 64, 0
2, 59360, Note_on_c, 0, 73, 75
2, 59520, Note_on_c, 0, 73, 0
2, 59520, Note_on_c, 0, 76, 0
2, 59520, Note_on_c, 0, 76, 94
2, 59680, Note_on_c, 0, 68, 81
2, 59840, Note_on_c, 0, 68, 0
2, 59840, Note_on_c, 0, 73, 81
2, 60000, Note_on_c, 0, 73, 0
2, 60000, Note_on_c, 0, 76, 0
2, 60000, Note_on_c, 0, 75, 91
2, 60160, Note_on_c, 0, 67, 76
2, 60320, Note_on_c, 0, 67, 0
2, 60320, Note_on_c, 0, 73, 76
2, 60480, Note_on_c, 0, 73, 0
2, 60480, Note_on_c, 0, 75, 0
2, 60480, Note_on_c, 0, 74, 88
2, 60640, Note_on_c, 0, 66, 75
2, 60800, Note_on_c, 0, 66, 0
2, 60800, Note_on_c, 0, 72, 75
2, 60960, Note_on_c, 0, 72, 0
2, 60960, Note_on_c, 0, 74, 0
2, 60960, Note_on_c, 0, 73, 86
2, 61120, Note_on_c, 0, 64, 74
2, 61280, Note_on_c, 0, 64, 0
2, 61280, Note_on_c, 0, 68, 74
2, 61440, Note_on_c, 0, 68, 0
2, 61440, Note_on_c, 0, 73, 0
2, 61440, Note_on_c, 0, 76, 94
2, 61600, Note_on_c, 0, 68, 81
2, 61760, Note_on_c, 0, 68, 0
2, 61760, Note_on_c, 0, 73, 81
2, 61920, Note_on_c, 0, 73, 0
2, 61920, Note_on_c, 0, 76, 0
2, 61920, Note_on_c, 0, 75, 91
2, 62080, Note_on_c, 0, 67, 76
2, 62240, Note_on_c, 0, 67, 0
2, 62240, Note_on_c, 0, 73, 76
2, 62400, Note_on_c, 0, 73, 0
2, 62400, Note_on_c, 0, 75, 0
2, 62400, Note_on_c, 0, 74, 88
2, 62560, Note_on_c, 0, 66, 75
2, 62720, Note_on_c, 0, 66, 0
2, 62720, Note_on_c, 0, 72, 75
2, 62880, Note_on_c, 0, 72, 0
2, 62880, Note_on_c, 0, 74, 0
2, 62880, Note_on_c, 0, 73, 86
2, 63040, Note_on_c, 0, 64, 74
2, 63200, Note_on_c, 0, 64, 0
2, 63200, Note_on_c, 0, 68, 74
2, 63360, Note_on_c, 0, 68, 0
2, 63360, Note_on_c, 0, 73, 0
2, 63360, Note_on_c, 0, 80, 90
2, 63520, Note_on_c, 0, 68, 78
2, 63680, Note_on_c, 0, 68, 0
2, 63680, Note_on_c, 0, 73, 79
2, 63840, Note_on_c, 0, 73, 0
2, 63840, Note_on_c, 0, 80, 0
2, 63840, Note_on_c, 0, 78, 90
2, 64000, Note_on_c, 0, 69, 77
2, 64160, Note_on_c, 0, 69, 0
2, 64160, Note_on_c, 0, 73, 79
2, 64320, Note_on_c, 0, 73, 0
2, 64320, Note_on_c, 0, 78, 0
2, 64320, Note_on_c, 0, 81, 92
2, 64480, Note_on_c, 0, 66, 79
2, 64640, Note_on_c, 0, 66, 0
2, 64640, Note_on_c, 0, 73, 82
2, 64800, Note_on_c, 0, 73, 0
2, 64800, Note_on_c, 0, 81, 0
2, 64800, Note_on_c, 0, 80, 94
2, 64960, Note_on_c, 0, 68, 82
2, 65120, Note_on_c, 0, 68, 0
2, 65120, Note_on_c, 0, 73, 84
2, 65280, Note_on_c, 0, 73, 0
2, 65280, Note_on_c, 0, 80, 0
2, 65280, Note_on_c, 0, 83, 99
2, 65440, Note_on_c, 0, 74, 79
2, 65600, Note_on_c, 0, 74, 0
2, 65600, Note_on_c, 0, 80, 81
2, 65760, Note_on_c, 0, 80, 0
2, 65760, Note_on_c, 0, 83, 0
2, 65760, Note_on_c, 0, 81, 101
2, 65920, Note_on_c, 0, 73, 86
2, 66080, Note_on_c, 0, 73, 0
2, 66080, Note_on_c, 0, 78, 89
2, 66240, Note_on_c, 0, 78, 0
2, 66240, Note_on_c, 0, 81, 0
2, 66240, Note_on_c, 0, 86, 101
2, 66400, Note_on_c, 0, 77, 87
2, 66560, Note_on_c, 0, 77, 0
2, 66560, Note_on_c, 0, 83, 88
2, 66720, Note_on_c, 0, 83, 0
2, 66720, Note_on_c, 0, 86, 0
2, 66720, Note_on_c, 0, 85, 104
2, 66880, Note_on_c, 0, 78, 93
2, 67040, Note_on_c, 0, 78, 0
2, 67040, Note_on_c, 0, 81, 92
2, 67200, Note_on_c, 0, 81, 0
2, 67200, Note_on_c, 0, 85, 0
2, 67200, Note_on_c, 0, 90, 104
2, 67360, Note_on_c, 0, 81, 90
2, 67520, Note_on_c, 0, 81, 0
2, 67520, Note_on_c, 0, 87, 90
2, 67680, Note_on_c, 0, 87, 0
2, 67680, Note_on_c, 0, 90, 0
2, 67680, Note_on_c, 0, 88, 103
2, 67840, Note_on_c, 0, 80, 95
2, 68000, Note_on_c, 0, 80, 0
2, 68000, Note_on_c, 0, 85, 98
2, 68160, Note_on_c, 0, 85, 0
2, 68160, Note_on_c, 0, 88, 0
2, 68160, Note_on_c, 0, 84, 91
2, 68160, Note_on_c, 0, 90, 91
2, 68160, Note_on_c, 0, 93, 108
2, 68320, Note_on_c, 0, 93, 0
2, 68320, Note_on_c, 0, 90, 0
2, 68320, Note_on_c, 0, 84, 0
2, 68320, Note_on_c, 0, 75, 66
2, 68320, Note_on_c, 0, 78, 78
2, 68480, Note_on_c, 0, 78, 0
2, 68480, Note_on_c, 0, 75, 0
2, 68480, Note_on_c, 0, 90, 83
2, 68480, Note_on_c, 0, 93, 98
2, 68480, Note_on_c, 0, 84, 83
2, 68640, Note_on_c, 0, 84, 0
2, 68640, Note_on_c, 0, 93, 0
2, 68640, Note_on_c, 0, 90, 0
2, 68640, Note_on_c, 0, 76, 75
2, 68640, Note_on_c, 0, 80, 89
2, 68800, Note_on_c, 0, 80, 0
2, 68800, Note_on_c, 0, 76, 0
2, 68800, Note_on_c, 0, 92, 99
2, 68800, Note_on_c, 0, 88, 84
2, 68800, Note_on_c, 0, 85, 84
2, 68960, Note_on_c, 0, 85, 0
2, 68960, Note_on_c, 0, 88, 0
2, 68960, Note_on_c, 0, 92, 0
2, 68960, Note_on_c, 0, 80, 73
2, 68960, Note_on_c, 0, 76, 62
2, 69120, Note_on_c, 0, 76, 0
2, 69120, Note_on_c, 0, 80, 0
2, 69120, Note_on_c, 0, 81, 90
2, 69120, Note_on_c, 0, 87, 90
2, 69120, Note_on_c, 0, 90, 106
2, 69280, Note_on_c, 0, 90, 0
2, 69280, Note_on_c, 0, 87, 0
2, 69280, Note_on_c, 0, 81, 0
2, 69280, Note_on_c, 0, 72, 63
2, 69280, Note_on_c, 0, 75, 75
2, 69440, Note_on_c, 0, 75, 0
2, 69440, Note_on_c, 0, 72, 0
2, 69440, Note_on_c, 0, 87, 80
2, 69440, Note_on_c, 0, 90, 95
2, 69440, Note_on_c, 0, 81, 68
2, 69600, Note_on_c, 0, 81, 0
2, 69600, Note_on_c, 0, 90, 0
2, 69600, Note_on_c, 0, 87, 0
2, 69600, Note_on_c, 0, 73, 73
2, 69600, Note_on_c, 0, 76, 86
2, 69760, Note_on_c, 0, 76, 0
2, 69760, Note_on_c, 0, 73, 0
2, 69760, Note_on_c, 0, 88, 95
2, 69760, Note_on_c, 0, 85, 80
2, 69760, Note_on_c, 0, 80, 80
2, 69920, Note_on_c, 0, 80, 0
2, 69920, Note_on_c, 0, 85, 0
2, 69920, Note_on_c, 0, 88, 0
2, 69920, Note_on_c, 0, 76, 73
2, 69920, Note_on_c, 0, 73, 62
2, 70080, Note_on_c, 0, 73, 0
2, 70080, Note_on_c, 0, 76, 0
2, 70080, Note_on_c, 0, 77, 88
2, 70080, Note_on_c, 0, 83, 88
2, 70080, Note_on_c, 0, 86, 104
2, 70240, Note_on_c, 0, 86, 0
2, 70240, Note_on_c, 0, 83, 0
2, 70240, Note_on_c, 0, 77, 0
2, 70240, Note_on_c, 0, 68, 64
2, 70240, Note_on_c, 0, 71, 76
2, 70400, Note_on_c, 0, 71, 0
2, 70400, Note_on_c, 0, 68, 0
2, 70400, Note_on_c, 0, 83, 81
2, 70400, Note_on_c, 0, 86, 96
2, 70400, Note_on_c, 0, 77, 81
2, 70560, Note_on_c, 0, 77, 0
2, 70560, Note_on_c, 0, 86, 0
2, 70560, Note_on_c, 0, 83, 0
2, 70560, Note_on_c, 0, 69, 73
2, 70560, Note_on_c, 0, 73, 86
2, 70720, Note_on_c, 0, 73, 0
2, 70720, Note_on_c, 0, 69, 0
2, 70720, Note_on_c, 0, 85, 93
2, 70720, Note_on_c, 0, 81, 79
2, 70720, Note_on_c, 0, 78, 79
2, 70880, Note_on_c, 0, 78, 0
2, 70880, Note_on_c, 0, 81, 0
2, 70880, Note_on_c, 0, 85, 0
2, 70880, Note_on_c, 0, 73, 73
2, 70880, Note_on_c, 0, 69, 62
2, 71040, Note_on_c, 0, 69, 0
2, 71040, Note_on_c, 0, 73, 0
2, 71040, Note_on_c, 0, 74, 85
2, 71040, Note_on_c, 0, 80, 85
2, 71040, Note_on_c, 0, 83, 101
2, 71200, Note_on_c, 0, 83, 0
2, 71200, Note_on_c, 0, 80, 0
2, 71200, Note_on_c, 0, 74, 0
2, 71200, Note_on_c, 0, 65, 63
2, 71200, Note_on_c, 0, 68, 75
2, 71360, Note_on_c, 0, 68, 0
2, 71360, Note_on_c, 0, 65, 0
2, 71360, Note_on_c, 0, 80, 79
2, 71360, Note_on_c, 0, 83, 93
2, 71360, Note_on_c, 0, 74, 79
2, 71520, Note_on_c, 0, 74, 0
2, 71520, Note_on_c, 0, 83, 0
2, 71520, Note_on_c, 0, 80, 0
2, 71520, Note_on_c, 0, 66, 73
2, 71520, Note_on_c, 0, 69, 87
2, 71680, Note_on_c, 0, 69, 0
2, 71680, Note_on_c, 0, 66, 0
2, 71680, Note_on_c, 0, 81, 92
2, 71680, Note_on_c, 0, 78, 78
2, 71680, Note_on_c, 0, 73, 78
2, 71840, Note_on_c, 0, 73, 0
2, 71840, Note_on_c, 0, 78, 0
2, 71840, Note_on_c, 0, 81, 0
2, 71840, Note_on_c, 0, 66, 61
2, 71840, Note_on_c, 0, 69, 72
2, 72000, Note_on_c, 0, 69, 0
2, 72000, Note_on_c, 0, 66, 0
2, 72000, Note_on_c, 0, 72, 84
2, 72000, Note_on_c, 0, 81, 99
2, 72000, Note_on_c, 0, 78, 84
2, 72160, Note_on_c, 0, 78, 0
2, 72160, Note_on_c, 0, 81, 0
2, 72160, Note_on_c, 0, 72, 0
2, 72160, Note_on_c, 0, 66, 62
2, 72160, Note_on_c, 0, 63, 73
2, 72320, Note_on_c, 0, 63, 0
2, 72320, Note_on_c, 0, 66, 0
2, 72320, Note_on_c, 0, 78, 78
2, 72320, Note_on_c, 0, 81, 92
2, 72320, Note_on_c, 0, 72, 78
2, 72480, Note_on_c, 0, 72, 0
2, 72480, Note_on_c, 0, 81, 0
2, 72480, Note_on_c, 0, 78, 0
2, 72480, Note_on_c, 0, 64, 73
2, 72480, Note_on_c, 0, 68, 86
2, 72640, Note_on_c, 0, 68, 0
2, 72640, Note_on_c, 0, 64, 0
2, 72640, Note_on_c, 0, 73, 77
2, 72640, Note_on_c, 0, 80, 91
2, 72640, Note_on_c, 0, 76, 77
2, 72800, Note_on_c, 0, 76, 0
2, 72800, Note_on_c, 0, 80, 0
2, 72800, Note_on_c, 0, 73, 0
2, 72800, Note_on_c, 0, 64, 61
2, 72800, Note_on_c, 0, 68, 72
2, 72960, Note_on_c, 0, 68, 0
2, 72960, Note_on_c, 0, 64, 0
2, 72960, Note_on_c, 0, 75, 81
2, 72960, Note_on_c, 0, 69, 81
2, 72960, Note_on_c, 0, 78, 96
2, 73120, Note_on_c, 0, 78, 0
2, 73120, Note_on_c, 0, 69, 0
2, 73120, Note_on_c, 0, 75, 0
2, 73120, Note_on_c, 0, 63, 74
2, 73120, Note_on_c, 0, 60, 62
2, 73280, Note_on_c, 0, 60, 0
2, 73280, Note_on_c, 0, 63, 0
2, 73280, Note_on_c, 0, 78, 91
2, 73280, Note_on_c, 0, 69, 77
2, 73280, Note_on_c, 0, 75, 77
2, 73440, Note_on_c, 0, 75, 0
2, 73440, Note_on_c, 0, 69, 0
2, 73440, Note_on_c, 0, 78, 0
2, 73440, Note_on_c, 0, 61, 69
2, 73440, Note_on_c, 0, 64, 82
2, 73600, Note_on_c, 0, 64, 0
2, 73600, Note_on_c, 0, 61, 0
2, 73600, Note_on_c, 0, 68, 76
2, 73600, Note_on_c, 0, 76, 76
2, 73600, Note_on_c, 0, 73, 76
2, 73760, Note_on_c, 0, 73, 0
2, 73760, Note_on_c, 0, 76, 0
2, 73760, Note_on_c, 0, 68, 0
2, 73760, Note_on_c, 0, 61, 60
2, 73760, Note_on_c, 0, 64, 71
2, 73920, Note_on_c, 0, 64, 0
2, 73920, Note_on_c, 0, 61, 0
2, 73920, Note_on_c, 0, 71, 79
2, 73920, Note_on_c, 0, 65, 79
2, 73920, Note_on_c, 0, 74, 94
2, 74080, Note_on_c, 0, 74, 0
2, 74080, Note_on_c, 0, 65, 0
2, 74080, Note_on_c, 0, 71, 0
2, 74080, Note_on_c, 0, 59, 69
2, 74080, Note_on_c, 0, 56, 58
2, 74240, Note_on_c, 0, 56, 0
2, 74240, Note_on_c, 0, 59, 0
2, 74240, Note_on_c, 0, 74, 87
2, 74240, Note_on_c, 0, 65, 73
2, 74240, Note_on_c, 0, 71, 73
2, 74400, Note_on_c, 0, 71, 0
2, 74400, Note_on_c, 0, 65, 0
2, 74400, Note_on_c, 0, 74, 0
2, 74400, Note_on_c, 0, 57, 68
2, 74400, Note_on_c, 0, 61, 80
2, 74560, Note_on_c, 0, 61, 0
2, 74560, Note_on_c, 0, 57, 0
2, 74560, Note_on_c, 0, 66, 73
2, 74560, Note_on_c, 0, 73, 86
2, 74560, Note_on_c, 0, 69, 73
2, 74720, Note_on_c, 0, 69, 0
2, 74720, Note_on_c, 0, 73, 0
2, 74720, Note_on_c, 0, 66, 0
2, 74720, Note_on_c, 0, 57, 56
2, 74720, Note_on_c, 0, 61, 67
2, 74880, Note_on_c, 0, 61, 0
2, 74880, Note_on_c, 0, 57, 0
2, 74880, Note_on_c, 0, 68, 77
2, 74880, Note_on_c, 0, 62, 77
2, 74880, Note_on_c, 0, 71, 91
2, 75040, Note_on_c, 0, 71, 0
2, 75040, Note_on_c, 0, 62, 0
2, 75040, Note_on_c, 0, 68, 0
2, 75040, Note_on_c, 0, 56, 64
2, 75040, Note_on_c, 0, 53, 54
2, 75200, Note_on_c, 0, 53, 0
2, 75200, Note_on_c, 0, 56, 0
2, 75200, Note_on_c, 0, 71, 83
2, 75200, Note_on_c, 0, 62, 70
2, 75200, Note_on_c, 0, 68, 70
2, 75360, Note_on_c, 0, 68, 0
2, 75360, Note_on_c, 0, 62, 0
2, 75360, Note_on_c, 0, 71, 0
2, 75360, Note_on_c, 0, 54, 64
2, 75360, Note_on_c, 0, 57, 76
2, 75520, Note_on_c, 0, 57, 0
2, 75520, Note_on_c, 0, 54, 0
2, 75520, Note_on_c, 0, 61, 69
2, 75520, Note_on_c, 0, 69, 82
2, 75520, Note_on_c, 0, 66, 69
2, 75680, Note_on_c, 0, 66, 0
2, 75680, Note_on_c, 0, 69, 0
2, 75680, Note_on_c, 0, 61, 0
2, 75680, Note_on_c, 0, 54, 54
2, 75680, Note_on_c, 0, 57, 64
2, 75840, Note_on_c, 0, 57, 0
2, 75840, Note_on_c, 0, 54, 0
2, 75840, Note_on_c, 0, 60, 75
2, 75840, Note_on_c, 0, 66, 75
2, 75840, Note_on_c, 0, 69, 89
2, 76000, Note_on_c, 0, 69, 0
2, 76000, Note_on_c, 0, 66, 0
2, 76000, Note_on_c, 0, 60, 0
2, 76000, Note_on_c, 0, 51, 53
2, 76000, Note_on_c, 0, 54, 63
2, 76160, Note_on_c, 0, 54, 0
2, 76160, Note_on_c, 0, 51, 0
2, 76160, Note_on_c, 0, 69, 82
2, 76160, Note_on_c, 0, 66, 69
2, 76160, Note_on_c, 0, 60, 69
2, 76320, Note_on_c, 0, 60, 0
2, 76320, Note_on_c, 0, 66, 0
2, 76320, Note_on_c, 0, 69, 0
2, 76320, Note_on_c, 0, 56, 73
2, 76320, Note_on_c, 0, 52, 62
2, 76480, Note_on_c, 0, 52, 0
2, 76480, Note_on_c, 0, 56, 0
2, 76480, Note_on_c, 0, 64, 68
2, 76480, Note_on_c, 0, 68, 80
2, 76480, Note_on_c, 0, 61, 68
2, 76640, Note_on_c, 0, 61, 0
2, 76640, Note_on_c, 0, 68, 0
2, 76640, Note_on_c, 0, 64, 0
2, 76640, Note_on_c, 0, 56, 61
2, 76640, Note_on_c, 0, 52, 51
2, 76800, Note_on_c, 0, 52, 0
2, 76800, Note_on_c, 0, 56, 0
2, 76800, Note_on_c, 0, 63, 73
2, 76800, Note_on_c, 0, 66, 86
2, 76800, Note_on_c, 0, 57, 73
2, 76960, Note_on_c, 0, 57, 0
2, 76960, Note_on_c, 0, 66, 0
2, 76960, Note_on_c, 0, 63, 0
2, 76960, Note_on_c, 0, 48, 52
2, 76960, Note_on_c, 0, 51, 62
2, 77120, Note_on_c, 0, 51, 0
2, 77120, Note_on_c, 0, 48, 0
2, 77120, Note_on_c, 0, 57, 66
2, 77120, Note_on_c, 0, 66, 78
2, 77120, Note_on_c, 0, 63, 66
2, 77280, Note_on_c, 0, 63, 0
2, 77280, Note_on_c, 0, 66, 0
2, 77280, Note_on_c, 0, 57, 0
2, 77280, Note_on_c, 0, 52, 72
2, 77280, Note_on_c, 0, 49, 61
2, 77440, Note_on_c, 0, 49, 0
2, 77440, Note_on_c, 0, 52, 0
2, 77440, Note_on_c, 0, 61, 66
2, 77440, Note_on_c, 0, 64, 78
2, 77440, Note_on_c, 0, 56, 66
2, 77600, Note_on_c, 0, 56, 0
2, 77600, Note_on_c, 0, 64, 0
2, 77600, Note_on_c, 0, 61, 0
2, 77600, Note_on_c, 0, 52, 59
2, 77600, Note_on_c, 0, 49, 50
2, 77760, Note_on_c, 0, 49, 0
2, 77760, Note_on_c, 0, 52, 0
2, 77760, Note_on_c, 0, 66, 72
2, 77760, Note_on_c, 0, 69, 85
2, 77760, Note_on_c, 0, 60, 72
2, 77920, Note_on_c, 0, 60, 0
2, 77920, Note_on_c, 0, 69, 0
2, 77920, Note_on_c, 0, 66, 0
2, 77920, Note_on_c, 0, 51, 53
2, 77920, Note_on_c, 0, 54, 63
2, 78080, Note_on_c, 0, 54, 0
2, 78080, Note_on_c, 0, 51, 0
2, 78080, Note_on_c, 0, 60, 68
2, 78080, Note_on_c, 0, 69, 80
2, 78080, Note_on_c, 0, 66, 68
2, 78240, Note_on_c, 0, 66, 0
2, 78240, Note_on_c, 0, 69, 0
2, 78240, Note_on_c, 0, 60, 0
2, 78240, Note_on_c, 0, 56, 75
2, 78240, Note_on_c, 0, 52, 63
2, 78400, Note_on_c, 0, 52, 0
2, 78400, Note_on_c, 0, 56, 0
2, 78400, Note_on_c, 0, 64, 69
2, 78400, Note_on_c, 0, 68, 82
2, 78400, Note_on_c, 0, 61, 69
2, 78560, Note_on_c, 0, 61, 0
2, 78560, Note_on_c, 0, 68, 0
2, 78560, Note_on_c, 0, 64, 0
2, 78560, Note_on_c, 0, 56, 63
2, 78560, Note_on_c, 0, 52, 53
2, 78720, Note_on_c, 0, 52, 0
2, 78720, Note_on_c, 0, 56, 0
2, 78720, Note_on_c, 0, 63, 74
2, 78720, Note_on_c, 0, 66, 88
2, 78720, Note_on_c, 0, 57, 74
2, 78880, Note_on_c, 0, 57, 0
2, 78880, Note_on_c, 0, 66, 0
2, 78880, Note_on_c, 0, 63, 0
2, 78880, Note_on_c, 0, 48, 53
2, 78880, Note_on_c, 0, 51, 63
2, 79040, Note_on_c, 0, 51, 0
2, 79040, Note_on_c, 0, 48, 0
2, 79040, Note_on_c, 0, 57, 70
2, 79040, Note_on_c, 0, 66, 83
2, 79040, Note_on_c, 0, 63, 70
2, 79200, Note_on_c, 0, 63, 0
2, 79200, Note_on_c, 0, 66, 0
2, 79200, Note_on_c, 0, 57, 0
2, 79200, Note_on_c, 0, 52, 74
2, 79200, Note_on_c, 0, 49, 62
2, 79360, Note_on_c, 0, 49, 0
2, 79360, Note_on_c, 0, 52, 0
2, 79360, Note_on_c, 0, 61, 71
2, 79360, Note_on_c, 0, 64, 84
2, 79360, Note_on_c, 0, 56, 71
2, 79520, Note_on_c, 0, 56, 0
2, 79520, Note_on_c, 0, 64, 0
2, 79520, Note_on_c, 0, 61, 0
2, 79520, Note_on_c, 0, 52, 62
2, 79520, Note_on_c, 0, 49, 52
2, 79680, Note_on_c, 0, 49, 0
2, 79680, Note_on_c, 0, 52, 0
2, 79680, Note_on_c, 0, 66, 92
2, 79680, Note_on_c, 0, 63, 78
2, 79680, Note_on_c, 0, 57, 78
2, 79840, Note_on_c, 0, 57, 0
2, 79840, Note_on_c, 0, 63, 0
2, 79840, Note_on_c, 0, 66, 0
2, 79840, Note_on_c, 0, 48, 56
2, 79840, Note_on_c, 0, 51, 67
2, 80000, Note_on_c, 0, 51, 0
2, 80000, Note_on_c, 0, 48, 0
2, 80000, Note_on_c, 0, 63, 73
2, 80000, Note_on_c, 0, 57, 73
2, 80000, Note_on_c, 0, 66, 86
2, 80160, Note_on_c, 0, 66, 0
2, 80160, Note_on_c, 0, 57, 0
2, 80160, Note_on_c, 0, 63, 0
2, 80160, Note_on_c, 0, 52, 79
2, 80160, Note_on_c, 0, 49, 67
2, 80320, Note_on_c, 0, 49, 0
2, 80320, Note_on_c, 0, 52, 0
2, 80320, Note_on_c, 0, 64, 90
2, 80320, Note_on_c, 0, 56, 76
2, 80320, Note_on_c, 0, 61, 76
2, 80480, Note_on_c, 0, 61, 0
2, 80480, Note_on_c, 0, 56, 0
2, 80480, Note_on_c, 0, 64, 0
2, 80480, Note_on_c, 0, 49, 58
2, 80480, Note_on_c, 0, 52, 69
2, 80640, Note_on_c, 0, 52, 0
2, 80640, Note_on_c, 0, 49, 0
2, 80640, Note_on_c, 0, 66, 96
2, 80640, Note_on_c, 0, 63, 81
2, 80640, Note_on_c, 0, 57, 81
2, 80800, Note_on_c, 0, 57, 0
2, 80800, Note_on_c, 0, 63, 0
2, 80800, Note_on_c, 0, 66, 0
2, 80800, Note_on_c, 0, 48, 58
2, 80800, Note_on_c, 0, 51, 69
2, 80960, Note_on_c, 0, 51, 0
2, 80960, Note_on_c, 0, 48, 0
2, 80960, Note_on_c, 0, 63, 76
2, 80960, Note_on_c, 0, 57, 76
2, 80960, Note_on_c, 0, 66, 90
2, 81120, Note_on_c, 0, 66, 0
2, 81120, Note_on_c, 0, 57, 0
2, 81120, Note_on_c, 0, 63, 0
2, 81120, Note_on_c, 0, 52, 82
2, 81120, Note_on_c, 0, 49, 70
2, 81280, Note_on_c, 0, 49, 0
2, 81280, Note_on_c, 0, 52, 0
2, 81280, Note_on_c, 0, 64, 91
2, 81280, Note_on_c, 0, 56, 77
2, 81280, Note_on_c, 0, 61, 77
2, 81440, Note_on_c, 0, 61, 0
2, 81440, Note_on_c, 0, 56, 0
2, 81440, Note_on_c, 0, 64, 0
2, 81440, Note_on_c, 0, 49, 58
2, 81440, Note_on_c, 0, 52, 70
2, 81600, Note_on_c, 0, 52, 0
2, 81600, Note_on_c, 0, 49, 0
2, 81600, Note_on_c, 0, 66, 100
2, 81600, Note_on_c, 0, 63, 85
2, 81600, Note_on_c, 0, 57, 85
2, 81760, Note_on_c, 0, 57, 0
2, 81760, Note_on_c, 0, 63, 0
2, 81760, Note_on_c, 0, 66, 0
2, 81760, Note_on_c, 0, 48, 62
2, 81760, Note_on_c, 0, 51, 74
2, 81920, Note_on_c, 0, 51, 0
2, 81920, Note_on_c, 0, 48, 0
2, 81920, Note_on_c, 0, 63, 82
2, 81920, Note_on_c, 0, 57, 82
2, 81920, Note_on_c, 0, 66, 96
2, 82080, Note_on_c, 0, 66, 0
2, 82080, Note_on_c, 0, 57, 0
2, 82080, Note_on_c, 0, 63, 0
2, 82080, Note_on_c, 0, 52, 90
2, 82080, Note_on_c, 0, 49, 75
2, 82240, Note_on_c, 0, 49, 0
2, 82240, Note_on_c, 0, 52, 0
2, 82240, Note_on_c, 0, 64, 97
2, 82240, Note_on_c, 0, 56, 82
2, 82240, Note_on_c, 0, 61, 82
2, 82400, Note_on_c, 0, 61, 0
2, 82400, Note_on_c, 0, 56, 0
2, 82400, Note_on_c, 0, 64, 0
2, 82400, Note_on_c, 0, 49, 64
2, 82400, Note_on_c, 0, 52, 75
2, 82560, Note_on_c, 0, 52, 0
2, 82560, Note_on_c, 0, 49, 0
2, 82560, Note_on_c, 0, 57, 94
2, 82560, Note_on_c, 0, 69, 111
2, 83520, Note_on_c, 0, 73, 107
2, 83520, Note_on_c, 0, 66, 91
2, 83520, Note_on_c, 0, 78, 107
2, 84480, Note_on_c, 0, 78, 0
2, 84480, Note_on_c, 0, 73, 0
2, 84480, Note_on_c, 0, 57, 0
2, 84480, Note_on_c, 0, 69, 0
2, 84480, Note_on_c, 0, 66, 0
2, 84480, Note_on_c, 0, 68, 113
2, 84480, Note_on_c, 0, 56, 82
2, 85440, Note_on_c, 0, 80, 108
2, 85440, Note_on_c, 0, 68, 77
2, 85440, Note_on_c, 0, 72, 108
2, 86400, Note_on_c, 0, 72, 0
2, 86400, Note_on_c, 0, 80, 0
2, 86400, Note_on_c, 0, 68, 0
2, 86400, Note_on_c, 0, 56, 0
2, 86400, Note_on_c, 0, 68, 0
2, 86640, Note_on_c, 0, 85, 102
2, 86640, Note_on_c, 0, 73, 87
2, 86640, Note_on_c, 0, 80, 102
2, 86640, Note_on_c, 0, 76, 87
2, 86880, Note_on_c, 0, 76, 0
2, 86880, Note_on_c, 0, 85, 0
2, 86880, Note_on_c, 0, 73, 0
2, 86880, Note_on_c, 0, 80, 0
2, 86880, Note_on_c, 0, 80, 91
2, 86880, Note_on_c, 0, 76, 91
2, 86880, Note_on_c, 0, 85, 107
2, 86880, Note_on_c, 0, 88, 107
2, 87120, Note_on_c, 0, 88, 0
2, 87120, Note_on_c, 0, 80, 0
2, 87120, Note_on_c, 0, 76, 0
2, 87120, Note_on_c, 0, 85, 0
2, 87120, Note_on_c, 0, 82, 107
2, 87120, Note_on_c, 0, 87, 107
2, 87120, Note_on_c, 0, 79, 91
2, 87120, Note_on_c, 0, 75, 91
2, 87360, Note_on_c, 0, 75, 0
2, 87360, Note_on_c, 0, 82, 0
2, 87360, Note_on_c, 0, 87, 0
2, 87360, Note_on_c, 0, 79, 0
2, 87600, Note_on_c, 0, 86, 102
2, 87600, Note_on_c, 0, 74, 87
2, 87600, Note_on_c, 0, 84, 102
2, 87600, Note_on_c, 0, 78, 87
2, 87840, Note_on_c, 0, 78, 0
2, 87840, Note_on_c, 0, 86, 0
2, 87840, Note_on_c, 0, 74, 0
2, 87840, Note_on_c, 0, 84, 0
2, 88080, Note_on_c, 0, 84, 102
2, 88080, Note_on_c, 0, 72, 87
2, 88080, Note_on_c, 0, 78, 102
2, 88080, Note_on_c, 0, 75, 87
2, 88320, Note_on_c, 0, 75, 0
2, 88320, Note_on_c, 0, 84, 0
2, 88320, Note_on_c, 0, 72, 0
2, 88320, Note_on_c, 0, 78, 0
2, 88560, Note_on_c, 0, 76, 87
2, 88560, Note_on_c, 0, 73, 87
2, 88560, Note_on_c, 0, 85, 102
2, 88560, Note_on_c, 0, 80, 102
2, 88800, Note_on_c, 0, 80, 0
2, 88800, Note_on_c, 0, 76, 0
2, 88800, Note_on_c, 0, 73, 0
2, 88800, Note_on_c, 0, 85, 0
2, 88800, Note_on_c, 0, 88, 107
2, 88800, Note_on_c, 0, 76, 91
2, 88800, Note_on_c, 0, 85, 107
2, 88800, Note_on_c, 0, 80, 91
2, 89040, Note_on_c, 0, 80, 0
2, 89040, Note_on_c, 0, 88, 0
2, 89040, Note_on_c, 0, 76, 0
2, 89040, Note_on_c, 0, 85, 0
2, 89040, Note_on_c, 0, 79, 91
2, 89040, Note_on_c, 0, 75, 91
2, 89040, Note_on_c, 0, 87, 107
2, 89040, Note_on_c, 0, 82, 107
2, 89280, Note_on_c, 0, 82, 0
2, 89280, Note_on_c, 0, 79, 0
2, 89280, Note_on_c, 0, 75, 0
2, 89280, Note_on_c, 0, 87, 0
2, 89520, Note_on_c, 0, 78, 87
2, 89520, Note_on_c, 0, 86, 102
2, 89520, Note_on_c, 0, 84, 102
2, 89520, Note_on_c, 0, 74, 87
2, 89760, Note_on_c, 0, 74, 0
2, 89760, Note_on_c, 0, 78, 0
2, 89760, Note_on_c, 0, 86, 0
2, 89760, Note_on_c, 0, 84, 0
2, 90000, Note_on_c, 0, 75, 87
2, 90000, Note_on_c, 0, 72, 87
2, 90000, Note_on_c, 0, 78, 102
2, 90000, Note_on_c, 0, 84, 102
2, 90240, Note_on_c, 0, 84, 0
2, 90240, Note_on_c, 0, 75, 0
2, 90240, Note_on_c, 0, 72, 0
2, 90240, Note_on_c, 0, 78, 0
2, 90480, Note_on_c, 0, 76, 87
2, 90480, Note_on_c, 0, 85, 102
2, 90480, Note_on_c, 0, 80, 102
2, 90480, Note_on_c, 0, 73, 87
2, 90720, Note_on_c, 0, 73, 0
2, 90720, Note_on_c, 0, 76, 0
2, 90720, Note_on_c, 0, 85, 0
2, 90720, Note_on_c, 0, 80, 0
2, 90720, Note_on_c, 0, 85, 107
2, 90720, Note_on_c, 0, 80, 91
2, 90720, Note_on_c, 0, 92, 107
2, 90960, Note_on_c, 0, 92, 0
2, 90960, Note_on_c, 0, 80, 0
2, 90960, Note_on_c, 0, 85, 0
2, 90960, Note_on_c, 0, 78, 87
2, 90960, Note_on_c, 0, 90, 102
2, 90960, Note_on_c, 0, 85, 102
2, 91200, Note_on_c, 0, 85, 0
2, 91200, Note_on_c, 0, 90, 0
2, 91200, Note_on_c, 0, 78, 0
2, 91440, Note_on_c, 0, 78, 87
2, 91440, Note_on_c, 0, 76, 87
2, 91440, Note_on_c, 0, 88, 102
2, 91440, Note_on_c, 0, 81, 102
2, 91680, Note_on_c, 0, 81, 0
2, 91680, Note_on_c, 0, 78, 0
2, 91680, Note_on_c, 0, 76, 0
2, 91680, Note_on_c, 0, 88, 0
2, 91920, Note_on_c, 0, 87, 102
2, 91920, Note_on_c, 0, 75, 87
2, 91920, Note_on_c, 0, 81, 102
2, 91920, Note_on_c, 0, 78, 87
2, 92160, Note_on_c, 0, 78, 0
2, 92160, Note_on_c, 0, 87, 0
2, 92160, Note_on_c, 0, 75, 0
2, 92160, Note_on_c, 0, 81, 0
2, 92400, Note_on_c, 0, 80, 90
2, 92400, Note_on_c, 0, 76, 90
2, 92400, Note_on_c, 0, 88, 106
2, 92400, Note_on_c, 0, 83, 106
2, 92640, Note_on_c, 0, 83, 0
2, 92640, Note_on_c, 0, 80, 0
2, 92640, Note_on_c, 0, 76, 0
2, 92640, Note_on_c, 0, 88, 0
2, 92640, Note_on_c, 0, 83, 94
2, 92640, Note_on_c, 0, 95, 111
2, 92640, Note_on_c, 0, 88, 111
2, 92880, Note_on_c, 0, 88, 0
2, 92880, Note_on_c, 0, 95, 0
2, 92880, Note_on_c, 0, 83, 0
2, 92880, Note_on_c, 0, 81, 90
2, 92880, Note_on_c, 0, 88, 106
2, 92880, Note_on_c, 0, 93, 106
2, 93120, Note_on_c, 0, 93, 0
2, 93120, Note_on_c, 0, 88, 0
2, 93120, Note_on_c, 0, 81, 0
2, 93360, Note_on_c, 0, 85, 103
2, 93360, Note_on_c, 0, 82, 88
2, 93360, Note_on_c, 0, 92, 103
2, 93360, Note_on_c, 0, 80, 88
2, 93600, Note_on_c, 0, 80, 0
2, 93600, Note_on_c, 0, 85, 0
2, 93600, Note_on_c, 0, 82, 0
2, 93600, Note_on_c, 0, 92, 0
2, 93840, Note_on_c, 0, 85, 102
2, 93840, Note_on_c, 0, 91, 102
2, 93840, Note_on_c, 0, 79, 87
2, 93840, Note_on_c, 0, 82, 87
2, 94080, Note_on_c, 0, 82, 0
2, 94080, Note_on_c, 0, 85, 0
2, 94080, Note_on_c, 0, 91, 0
2, 94080, Note_on_c, 0, 79, 0
2, 94320, Note_on_c, 0, 83, 85
2, 94320, Note_on_c, 0, 80, 85
2, 94320, Note_on_c, 0, 87, 99
2, 94320, Note_on_c, 0, 92, 99
2, 94560, Note_on_c, 0, 92, 0
2, 94560, Note_on_c, 0, 83, 0
2, 94560, Note_on_c, 0, 80, 0
2, 94560, Note_on_c, 0, 87, 0
2, 94560, Note_on_c, 0, 93, 103
2, 94560, Note_on_c, 0, 81, 88
2, 94560, Note_on_c, 0, 85, 88
2, 94560, Note_on_c, 0, 88, 103
2, 94798, Note_on_c, 0, 88, 0
2, 94798, Note_on_c, 0, 93, 0
2, 94798, Note_on_c, 0, 81, 0
2, 94798, Note_on_c, 0, 85, 0
2, 94800, Note_on_c, 0, 85, 100
2, 94800, Note_on_c, 0, 90, 100
2, 94800, Note_on_c, 0, 81, 85
2, 94800, Note_on_c, 0, 78, 85
2, 95040, Note_on_c, 0, 78, 0
2, 95040, Note_on_c, 0, 85, 0
2, 95040, Note_on_c, 0, 90, 0
2, 95040, Note_on_c, 0, 81, 0
2, 95040, Note_on_c, 0, 92, 103
2, 95040, Note_on_c, 0, 80, 88
2, 95040, Note_on_c, 0, 87, 103
2, 95040, Note_on_c, 0, 83, 88
2, 95278, Note_on_c, 0, 83, 0
2, 95278, Note_on_c, 0, 92, 0
2, 95278, Note_on_c, 0, 80, 0
2, 95278, Note_on_c, 0, 87, 0
2, 95280, Note_on_c, 0, 88, 100
2, 95280, Note_on_c, 0, 76, 85
2, 95280, Note_on_c, 0, 83, 100
2, 95280, Note_on_c, 0, 80, 85
2, 95520, Note_on_c, 0, 80, 0
2, 95520, Note_on_c, 0, 88, 0
2, 95520, Note_on_c, 0, 76, 0
2, 95520, Note_on_c, 0, 83, 0
2, 95520, Note_on_c, 0, 81, 88
2, 95520, Note_on_c, 0, 78, 88
2, 95520, Note_on_c, 0, 90, 103
2, 95520, Note_on_c, 0, 85, 103
2, 95758, Note_on_c, 0, 85, 0
2, 95758, Note_on_c, 0, 81, 0
2, 95758, Note_on_c, 0, 78, 0
2, 95758, Note_on_c, 0, 90, 0
2, 95760, Note_on_c, 0, 87, 100
2, 95760, Note_on_c, 0, 75, 85
2, 95760, Note_on_c, 0, 81, 100
2, 95760, Note_on_c, 0, 78, 85
2, 96000, Note_on_c, 0, 78, 0
2, 96000, Note_on_c, 0, 87, 0
2, 96000, Note_on_c, 0, 75, 0
2, 96000, Note_on_c, 0, 81, 0
2, 96000, Note_on_c, 0, 80, 87
2, 96000, Note_on_c, 0, 76, 87
2, 96000, Note_on_c, 0, 88, 103
2, 96000, Note_on_c, 0, 83, 103
2, 96231, Note_on_c, 0, 83, 0
2, 96231, Note_on_c, 0, 80, 0
2, 96231, Note_on_c, 0, 76, 0
2, 96231, Note_on_c, 0, 88, 0
2, 96240, Note_on_c, 0, 80, 85
2, 96240, Note_on_c, 0, 88, 100
2, 96240, Note_on_c, 0, 83, 100
2, 96240, Note_on_c, 0, 76, 85
2, 96480, Note_on_c, 0, 76, 0
2, 96480, Note_on_c, 0, 80, 0
2, 96480, Note_on_c, 0, 88, 0
2, 96480, Note_on_c, 0, 83, 0
2, 96480, Note_on_c, 0, 81, 87
2, 96480, Note_on_c, 0, 78, 87
2, 96480, Note_on_c, 0, 85, 103
2, 96480, Note_on_c, 0, 90, 103
2, 96718, Note_on_c, 0, 90, 0
2, 96718, Note_on_c, 0, 81, 0
2, 96718, Note_on_c, 0, 78, 0
2, 96718, Note_on_c, 0, 85, 0
2, 96720, Note_on_c, 0, 78, 85
2, 96720, Note_on_c, 0, 87, 100
2, 96720, Note_on_c, 0, 81, 100
2, 96720, Note_on_c, 0, 75, 85
2, 96960, Note_on_c, 0, 75, 0
2, 96960, Note_on_c, 0, 78, 0
2, 96960, Note_on_c, 0, 87, 0
2, 96960, Note_on_c, 0, 81, 0
2, 96960, Note_on_c, 0, 83, 103
2, 96960, Note_on_c, 0, 80, 88
2, 96960, Note_on_c, 0, 88, 103
2, 96960, Note_on_c, 0, 76, 88
2, 97198, Note_on_c, 0, 76, 0
2, 97198, Note_on_c, 0, 83, 0
2, 97198, Note_on_c, 0, 80, 0
2, 97198, Note_on_c, 0, 88, 0
2, 97200, Note_on_c, 0, 80, 100
2, 97200, Note_on_c, 0, 85, 100
2, 97200, Note_on_c, 0, 73, 85
2, 97200, Note_on_c, 0, 76, 85
2, 97440, Note_on_c, 0, 76, 0
2, 97440, Note_on_c, 0, 80, 0
2, 97440, Note_on_c, 0, 85, 0
2, 97440, Note_on_c, 0, 73, 0
2, 97440, Note_on_c, 0, 78, 86
2, 97440, Note_on_c, 0, 75, 86
2, 97440, Note_on_c, 0, 81, 102
2, 97440, Note_on_c, 0, 87, 102
2, 97678, Note_on_c, 0, 87, 0
2, 97678, Note_on_c, 0, 78, 0
2, 97678, Note_on_c, 0, 75, 0
2, 97678, Note_on_c, 0, 81, 0
2, 97680, Note_on_c, 0, 75, 85
2, 97680, Note_on_c, 0, 84, 100
2, 97680, Note_on_c, 0, 78, 100
2, 97680, Note_on_c, 0, 72, 85
2, 97920, Note_on_c, 0, 72, 0
2, 97920, Note_on_c, 0, 75, 0
2, 97920, Note_on_c, 0, 84, 0
2, 97920, Note_on_c, 0, 78, 0
2, 97920, Note_on_c, 0, 73, 86
2, 97920, Note_on_c, 0, 76, 86
2, 97920, Note_on_c, 0, 80, 101
2, 97920, Note_on_c, 0, 85, 101
2, 98148, Note_on_c, 0, 85, 0
2, 98148, Note_on_c, 0, 73, 0
2, 98148, Note_on_c, 0, 76, 0
2, 98148, Note_on_c, 0, 80, 0
2, 98160, Note_on_c, 0, 80, 101
2, 98160, Note_on_c, 0, 76, 86
2, 98160, Note_on_c, 0, 85, 101
2, 98160, Note_on_c, 0, 73, 86
2, 98400, Note_on_c, 0, 73, 0
2, 98400, Note_on_c, 0, 80, 0
2, 98400, Note_on_c, 0, 76, 0
2, 98400, Note_on_c, 0, 85, 0
2, 98400, Note_on_c, 0, 85, 106
2, 98400, Note_on_c, 0, 88, 106
2, 98400, Note_on_c, 0, 76, 90
2, 98400, Note_on_c, 0, 80, 90
2, 98640, Note_on_c, 0, 80, 0
2, 98640, Note_on_c, 0, 85, 0
2, 98640, Note_on_c, 0, 88, 0
2, 98640, Note_on_c, 0, 76, 0
2, 98640, Note_on_c, 0, 82, 106
2, 98640, Note_on_c, 0, 79, 90
2, 98640, Note_on_c, 0, 87, 106
2, 98640, Note_on_c, 0, 75, 90
2, 98880, Note_on_c, 0, 75, 0
2, 98880, Note_on_c, 0, 82, 0
2, 98880, Note_on_c, 0, 79, 0
2, 98880, Note_on_c, 0, 87, 0
2, 99120, Note_on_c, 0, 84, 101
2, 99120, Note_on_c, 0, 86, 101
2, 99120, Note_on_c, 0, 74, 86
2, 99120, Note_on_c, 0, 78, 86
2, 99360, Note_on_c, 0, 78, 0
2, 99360, Note_on_c, 0, 84, 0
2, 99360, Note_on_c, 0, 86, 0
2, 99360, Note_on_c, 0, 74, 0
2, 99600, Note_on_c, 0, 78, 101
2, 99600, Note_on_c, 0, 84, 101
2, 99600, Note_on_c, 0, 75, 86
2, 99600, Note_on_c, 0, 72, 86
2, 99840, Note_on_c, 0, 72, 0
2, 99840, Note_on_c, 0, 78, 0
2, 99840, Note_on_c, 0, 84, 0
2, 99840, Note_on_c, 0, 75, 0
2, 100080, Note_on_c, 0, 85, 101
2, 100080, Note_on_c, 0, 73, 86
2, 100080, Note_on_c, 0, 76, 86
2, 100080, Note_on_c, 0, 80, 101
2, 100320, Note_on_c, 0, 80, 0
2, 100320, Note_on_c, 0, 85, 0
2, 100320, Note_on_c, 0, 73, 0
2, 100320, Note_on_c, 0, 76, 0
2, 100320, Note_on_c, 0, 85, 106
2, 100320, Note_on_c, 0, 92, 106
2, 100320, Note_on_c, 0, 80, 90
2, 100560, Note_on_c, 0, 80, 0
2, 100560, Note_on_c, 0, 92, 0
2, 100560, Note_on_c, 0, 85, 0
2, 100560, Note_on_c, 0, 85, 101
2, 100560, Note_on_c, 0, 90, 101
2, 100560, Note_on_c, 0, 78, 86
2, 100800, Note_on_c, 0, 78, 0
2, 100800, Note_on_c, 0, 90, 0
2, 100800, Note_on_c, 0, 85, 0
2, 101040, Note_on_c, 0, 84, 101
2, 101040, Note_on_c, 0, 78, 86
2, 101040, Note_on_c, 0, 88, 101
2, 101040, Note_on_c, 0, 76, 86
2, 101280, Note_on_c, 0, 76, 0
2, 101280, Note_on_c, 0, 84, 0
2, 101280, Note_on_c, 0, 78, 0
2, 101280, Note_on_c, 0, 88, 0
2, 101520, Note_on_c, 0, 78, 101
2, 101520, Note_on_c, 0, 84, 101
2, 101520, Note_on_c, 0, 72, 86
2, 101520, Note_on_c, 0, 75, 86
2, 101760, Note_on_c, 0, 75, 0
2, 101760, Note_on_c, 0, 78, 0
2, 101760, Note_on_c, 0, 84, 0
2, 101760, Note_on_c, 0, 72, 0
2, 101760, Note_on_c, 0, 76, 87
2, 101760, Note_on_c, 0, 80, 103
2, 101760, Note_on_c, 0, 73, 87
2, 101760, Note_on_c, 0, 85, 103
2, 101988, Note_on_c, 0, 85, 0
2, 101988, Note_on_c, 0, 76, 0
2, 101988, Note_on_c, 0, 80, 0
2, 101988, Note_on_c, 0, 73, 0
2, 102000, Note_on_c, 0, 68, 64
2, 102000, Note_on_c, 0, 61, 64
2, 102000, Note_on_c, 0, 73, 75
2, 102240, Note_on_c, 0, 69, 77
2, 102240, Note_on_c, 0, 74, 77
2, 102240, Note_on_c, 0, 62, 67
2, 102250, Note_on_c, 0, 73, 0
2, 102250, Note_on_c, 0, 68, 0
2, 102250, Note_on_c, 0, 61, 0
2, 102478, Note_on_c, 0, 69, 0
2, 102478, Note_on_c, 0, 74, 0
2, 102478, Note_on_c, 0, 62, 0
2, 102480, Note_on_c, 0, 71, 71
2, 102480, Note_on_c, 0, 59, 60
2, 102480, Note_on_c, 0, 66, 60
2, 102720, Note_on_c, 0, 73, 74
2, 102720, Note_on_c, 0, 68, 63
2, 102720, Note_on_c, 0, 61, 63
2, 102730, Note_on_c, 0, 66, 0
2, 102730, Note_on_c, 0, 71, 0
2, 102730, Note_on_c, 0, 59, 0
2, 102958, Note_on_c, 0, 73, 0
2, 102958, Note_on_c, 0, 68, 0
2, 102958, Note_on_c, 0, 61, 0
2, 102960, Note_on_c, 0, 64, 50
2, 102960, Note_on_c, 0, 69, 59
2, 102960, Note_on_c, 0, 57, 50
2, 103200, Note_on_c, 0, 71, 57
2, 103200, Note_on_c, 0, 59, 47
2, 103200, Note_on_c, 0, 66, 47
2, 103210, Note_on_c, 0, 57, 0
2, 103210, Note_on_c, 0, 64, 0
2, 103210, Note_on_c, 0, 69, 0
2, 103438, Note_on_c, 0, 71, 0
2, 103438, Note_on_c, 0, 59, 0
2, 103438, Note_on_c, 0, 66, 0
2, 103440, Note_on_c, 0, 68, 39
2, 103440, Note_on_c, 0, 56, 39
2, 103440, Note_on_c, 0, 62, 39
2, 103680, Note_on_c, 0, 57, 34
2, 103680, Note_on_c, 0, 66, 34
2, 103680, Note_on_c, 0, 69, 40
2, 103690, Note_on_c, 0, 62, 0
2, 103690, Note_on_c, 0, 68, 0
2, 103690, Note_on_c, 0, 56, 0
2, 103908, Note_on_c, 0, 57, 0
2, 103908, Note_on_c, 0, 66, 0
2, 103908, Note_on_c, 0, 69, 0
2, 103920, Note_on_c, 0, 57, 29
2, 103920, Note_on_c, 0, 69, 35
2, 103920, Note_on_c, 0, 66, 29
2, 104160, Note_on_c, 0, 66, 0
2, 104160, Note_on_c, 0, 69, 0
2, 104160, Note_on_c, 0, 57, 0
2, 104160, Note_on_c, 0, 66, 29
2, 104160, Note_on_c, 0, 73, 35
2, 104160, Note_on_c, 0, 61, 29
2, 104400, Note_on_c, 0, 61, 0
2, 104400, Note_on_c, 0, 73, 0
2, 104400, Note_on_c, 0, 66, 0
2, 104400, Note_on_c, 0, 71, 35
2, 104400, Note_on_c, 0, 59, 29
2, 104400, Note_on_c, 0, 66, 29
2, 104640, Note_on_c, 0, 66, 0
2, 104640, Note_on_c, 0, 59, 0
2, 104640, Note_on_c, 0, 71, 0
2, 104640, Note_on_c, 0, 55, 72
2, 104880, Note_on_c, 0, 64, 30
2, 104880, Note_on_c, 0, 69, 36
2, 104880, Note_on_c, 0, 57, 30
2, 105120, Note_on_c, 0, 57, 0
2, 105120, Note_on_c, 0, 55, 0
2, 105120, Note_on_c, 0, 64, 0
2, 105120, Note_on_c, 0, 69, 0
2, 105120, Note_on_c, 0, 56, 67
2, 105360, Note_on_c, 0, 63, 30
2, 105360, Note_on_c, 0, 56, 30
2, 105360, Note_on_c, 0, 68, 36
2, 105600, Note_on_c, 0, 68, 0
2, 105600, Note_on_c, 0, 56, 0
2, 105600, Note_on_c, 0, 63, 0
2, 105600, Note_on_c, 0, 56, 0
2, 106080, Note_on_c, 0, 73, 45
2, 106080, Note_on_c, 0, 69, 38
2, 106080, Note_on_c, 0, 61, 38
2, 107520, Note_on_c, 0, 61, 0
2, 107520, Note_on_c, 0, 69, 0
2, 107520, Note_on_c, 0, 73, 0
2, 108000, Note_on_c, 0, 61, 34
2, 108000, Note_on_c, 0, 68, 34
2, 108000, Note_on_c, 0, 73, 42
2, 109440, Note_on_c, 0, 73, 0
2, 109440, Note_on_c, 0, 68, 0
2, 109440, Note_on_c, 0, 61, 0
2, 109920, Note_on_c, 0, 61, 32
2, 109920, Note_on_c, 0, 73, 39
2, 109920, Note_on_c, 0, 69, 32
2, 111360, Note_on_c, 0, 69, 0
2, 111360, Note_on_c, 0, 73, 0
2, 111360, Note_on_c, 0, 61, 0
2, 111840, Note_on_c, 0, 66, 32
2, 111840, Note_on_c, 0, 61, 32
2, 111840, Note_on_c, 0, 70, 32
2, 111840, Note_on_c, 0, 73, 37
2, 113280, Note_on_c, 0, 73, 0
2, 113280, Note_on_c, 0, 66, 0
2, 113280, Note_on_c, 0, 61, 0
2, 113280, Note_on_c, 0, 70, 0
2, 113760, Note_on_c, 0, 61, 29
2, 113760, Note_on_c, 0, 73, 35
2, 113760, Note_on_c, 0, 69, 29
2, 113760, Note_on_c, 0, 66, 29
2, 115200, Note_on_c, 0, 66, 0
2, 115200, Note_on_c, 0, 61, 0
2, 115200, Note_on_c, 0, 73, 0
2, 115200, Note_on_c, 0, 69, 0
2, 116160, Note_on_c, 0, 68, 23
2, 116160, Note_on_c, 0, 73, 27
2, 116160, Note_on_c, 0, 64, 23
2, 116160, Note_on_c, 0, 61, 23
2, 116873, Note_on_c, 0, 61, 0
2, 116873, Note_on_c, 0, 68, 0
2, 116873, Note_on_c, 0, 73, 0
2, 116873, Note_on_c, 0, 64, 0
2, 116880, Note_on_c, 0, 80, 22
2, 116880, Note_on_c, 0, 68, 18
2, 116880, Note_on_c, 0, 76, 18
2, 116880, Note_on_c, 0, 73, 18
2, 117118, Note_on_c, 0, 73, 0
2, 117118, Note_on_c, 0, 80, 0
2, 117118, Note_on_c, 0, 68, 0
2, 117118, Note_on_c, 0, 76, 0
2, 117120, Note_on_c, 0, 80, 17
2, 117120, Note_on_c, 0, 68, 14
2, 117120, Note_on_c, 0, 76, 14
2, 117120, Note_on_c, 0, 73, 14
2, 119040, Note_on_c, 0, 73, 0
2, 119040, Note_on_c, 0, 80, 0
2, 119040, Note_on_c, 0, 68, 0
2, 119040, Note_on_c, 0, 76, 0
2, 119040, End_track
3, 0, Start_track
3, 0, Title_t, "Piano right2"
3, 0, Program_c, 0, 0
3, 0, Control_c, 0, 7, 100
3, 0, Control_c, 0, 10, 64
3, 86400, Note_on_c, 0, 49, 82
3, 86400, Note_on_c, 0, 52, 82
3, 86400, Note_on_c, 0, 56, 107
3, 86400, Note_on_c, 0, 61, 111
3, 87360, Note_on_c, 0, 61, 0
3, 87360, Note_on_c, 0, 49, 0
3, 87360, Note_on_c, 0, 52, 0
3, 87360, Note_on_c, 0, 56, 0
3, 87360, Note_on_c, 0, 57, 92
3, 87360, Note_on_c, 0, 69, 108
3, 87840, Note_on_c, 0, 69, 0
3, 87840, Note_on_c, 0, 57, 0
3, 87840, Note_on_c, 0, 56, 92
3, 87840, Note_on_c, 0, 68, 108
3, 88320, Note_on_c, 0, 68, 0
3, 88320, Note_on_c, 0, 56, 0
3, 88320, Note_on_c, 0, 49, 79
3, 88320, Note_on_c, 0, 52, 79
3, 88320, Note_on_c, 0, 56, 104
3, 88320, Note_on_c, 0, 61, 108
3, 89280, Note_on_c, 0, 61, 0
3, 89280, Note_on_c, 0, 49, 0
3, 89280, Note_on_c, 0, 52, 0
3, 89280, Note_on_c, 0, 56, 0
3, 89280, Note_on_c, 0, 57, 93
3, 89280, Note_on_c, 0, 69, 110
3, 89760, Note_on_c, 0, 69, 0
3, 89760, Note_on_c, 0, 57, 0
3, 89760, Note_on_c, 0, 56, 92
3, 89760, Note_on_c, 0, 68, 109
3, 90240, Note_on_c, 0, 68, 0
3, 90240, Note_on_c, 0, 56, 0
3, 90240, Note_on_c, 0, 49, 93
3, 90240, Note_on_c, 0, 52, 93
3, 90240, Note_on_c, 0, 56, 107
3, 90240, Note_on_c, 0, 61, 110
3, 91200, Note_on_c, 0, 61, 0
3, 91200, Note_on_c, 0, 49, 0
3, 91200, Note_on_c, 0, 52, 0
3, 91200, Note_on_c, 0, 56, 0
3, 91200, Note_on_c, 0, 60, 92
3, 91200, Note_on_c, 0, 72, 109
3, 91680, Note_on_c, 0, 72, 0
3, 91680, Note_on_c, 0, 60, 0
3, 91680, Note_on_c, 0, 59, 91
3, 91680, Note_on_c, 0, 71, 107
3, 92160, Note_on_c, 0, 71, 0
3, 92160, Note_on_c, 0, 59, 0
3, 92160, Note_on_c, 0, 52, 92
3, 92160, Note_on_c, 0, 56, 92
3, 92160, Note_on_c, 0, 59, 108
3, 92160, Note_on_c, 0, 64, 108
3, 93120, Note_on_c, 0, 64, 0
3, 93120, Note_on_c, 0, 52, 0
3, 93120, Note_on_c, 0, 56, 0
3, 93120, Note_on_c, 0, 59, 0
3, 93120, Note_on_c, 0, 64, 92
3, 93120, Note_on_c, 0, 76, 109
3, 93600, Note_on_c, 0, 76, 0
3, 93600, Note_on_c, 0, 64, 0
3, 93600, Note_on_c, 0, 63, 92
3, 93600, Note_on_c, 0, 75, 109
3, 94080, Note_on_c, 0, 75, 0
3, 94080, Note_on_c, 0, 63, 0
3, 94080, Note_on_c, 0, 56, 83
3, 94080, Note_on_c, 0, 59, 91
3, 94080, Note_on_c, 0, 63, 107
3, 94080, Note_on_c, 0, 68, 107
3, 96240, Note_on_c, 0, 68, 0
3, 96240, Note_on_c, 0, 56, 0
3, 96240, Note_on_c, 0, 59, 0
3, 96240, Note_on_c, 0, 63, 0
3, 97800, Note_on_c, 0, 49, 89
3, 97800, Note_on_c, 0, 61, 111
3, 98880, Note_on_c, 0, 61, 0
3, 98880, Note_on_c, 0, 49, 0
3, 98880, Note_on_c, 0, 57, 92
3, 98880, Note_on_c, 0, 69, 109
3, 99360, Note_on_c, 0, 69, 0
3, 99360, Note_on_c, 0, 57, 0
3, 99360, Note_on_c, 0, 56, 91
3, 99360, Note_on_c, 0, 68, 108
3, 99840, Note_on_c, 0, 68, 0
3, 99840, Note_on_c, 0, 56, 0
3, 99840, Note_on_c, 0, 49, 89
3, 99840, Note_on_c, 0, 52, 89
3, 99840, Note_on_c, 0, 56, 101
3, 99840, Note_on_c, 0, 61, 105
3, 100800, Note_on_c, 0, 61, 0
3, 100800, Note_on_c, 0, 49, 0
3, 100800, Note_on_c, 0, 52, 0
3, 100800, Note_on_c, 0, 56, 0
3, 100800, Note_on_c, 0, 57, 91
3, 100800, Note_on_c, 0, 69, 108
3, 101280, Note_on_c, 0, 69, 0
3, 101280, Note_on_c, 0, 57, 0
3, 101280, Note_on_c, 0, 56, 90
3, 101280, Note_on_c, 0, 68, 106
3, 101640, Note_on_c, 0, 68, 0
3, 101640, Note_on_c, 0, 56, 0
3, 101640, Note_on_c, 0, 49, 85
3, 101640, Note_on_c, 0, 61, 105
3, 102960, Note_on_c, 0, 61, 0
3, 102960, Note_on_c, 0, 49, 0
3, 105600, Note_on_c, 0, 49, 51
3, 107520, Note_on_c, 0, 49, 0
3, 107520, Note_on_c, 0, 49, 48
3, 109440, Note_on_c, 0, 49, 0
3, 109440, Note_on_c, 0, 49, 45
3, 111360, Note_on_c, 0, 49, 0
3, 111360, Note_on_c, 0, 49, 44
3, 113280, Note_on_c, 0, 49, 0
3, 113280, Note_on_c, 0, 49, 40
3, 115200, Note_on_c, 0, 49, 0
3, 115200, Note_on_c, 0, 49, 39
3, 119040, Note_on_c, 0, 49, 0
3, 119040, End_track
4, 0, Start_track
4, 0, Title_t, "Piano left"
4, 0, Program_c, 0, 0
4, 0, Control_c, 0, 7, 100
4, 0, Control_c, 0, 10, 64
4, 960, Note_on_c, 0, 33, 66
4, 960, Note_on_c, 0, 45, 78
4, 1440, Note_on_c, 0, 45, 0
4, 1440, Note_on_c, 0, 33, 0
4, 1440, Note_on_c, 0, 32, 66
4, 1440, Note_on_c, 0, 44, 78
4, 1920, Note_on_c, 0, 44, 0
4, 1920, Note_on_c, 0, 32, 0
4, 1920, Note_on_c, 0, 25, 70
4, 1920, Note_on_c, 0, 37, 82
4, 4080, Note_on_c, 0, 64, 23
4, 4080, Note_on_c, 0, 56, 19
4, 4080, Note_on_c, 0, 52, 19
4, 4318, Note_on_c, 0, 64, 0
4, 4320, Note_on_c, 0, 56, 0
4, 4320, Note_on_c, 0, 68, 23
4, 4320, Note_on_c, 0, 59, 19
4, 4320, Note_on_c, 0, 56, 19
4, 4330, Note_on_c, 0, 52, 0
4, 4560, Note_on_c, 0, 67, 23
4, 4560, Note_on_c, 0, 58, 19
4, 4560, Note_on_c, 0, 55, 19
4, 4570, Note_on_c, 0, 59, 0
4, 4570, Note_on_c, 0, 68, 0
4, 4570, Note_on_c, 0, 56, 0
4, 4800, Note_on_c, 0, 67, 0
4, 4800, Note_on_c, 0, 37, 0
4, 4800, Note_on_c, 0, 55, 0
4, 4800, Note_on_c, 0, 58, 0
4, 4800, Note_on_c, 0, 25, 0
4, 4800, Note_on_c, 0, 33, 48
4, 4800, Note_on_c, 0, 45, 57
4, 5040, Note_on_c, 0, 66, 25
4, 5040, Note_on_c, 0, 60, 21
4, 5040, Note_on_c, 0, 54, 21
4, 5280, Note_on_c, 0, 54, 0
4, 5280, Note_on_c, 0, 66, 0
4, 5280, Note_on_c, 0, 33, 0
4, 5280, Note_on_c, 0, 45, 0
4, 5280, Note_on_c, 0, 60, 0
4, 5280, Note_on_c, 0, 32, 48
4, 5280, Note_on_c, 0, 44, 58
4, 5520, Note_on_c, 0, 63, 27
4, 5520, Note_on_c, 0, 54, 22
4, 5520, Note_on_c, 0, 51, 22
4, 5760, Note_on_c, 0, 51, 0
4, 5760, Note_on_c, 0, 63, 0
4, 5760, Note_on_c, 0, 32, 0
4, 5760, Note_on_c, 0, 44, 0
4, 5760, Note_on_c, 0, 54, 0
4, 5760, Note_on_c, 0, 25, 48
4, 5760, Note_on_c, 0, 37, 57
4, 6000, Note_on_c, 0, 64, 27
4, 6000, Note_on_c, 0, 56, 23
4, 6000, Note_on_c, 0, 52, 23
4, 6238, Note_on_c, 0, 64, 0
4, 6240, Note_on_c, 0, 56, 0
4, 6240, Note_on_c, 0, 68, 27
4, 6240, Note_on_c, 0, 59, 23
4, 6240, Note_on_c, 0, 56, 23
4, 6250, Note_on_c, 0, 52, 0
4, 6480, Note_on_c, 0, 67, 27
4, 6480, Note_on_c, 0, 58, 23
4, 6480, Note_on_c, 0, 55, 23
4, 6490, Note_on_c, 0, 59, 0
4, 6490, Note_on_c, 0, 68, 0
4, 6490, Note_on_c, 0, 56, 0
4, 6720, Note_on_c, 0, 67, 0
4, 6720, Note_on_c, 0, 37, 0
4, 6720, Note_on_c, 0, 55, 0
4, 6720, Note_on_c, 0, 58, 0
4, 6720, Note_on_c, 0, 25, 0
4, 6720, Note_on_c, 0, 33, 53
4, 6720, Note_on_c, 0, 45, 64
4, 6960, Note_on_c, 0, 66, 30
4, 6960, Note_on_c, 0, 60, 24
4, 6960, Note_on_c, 0, 54, 24
4, 7200, Note_on_c, 0, 54, 0
4, 7200, Note_on_c, 0, 66, 0
4, 7200, Note_on_c, 0, 33, 0
4, 7200, Note_on_c, 0, 45, 0
4, 7200, Note_on_c, 0, 60, 0
4, 7200, Note_on_c, 0, 32, 57
4, 7200, Note_on_c, 0, 44, 69
4, 7440, Note_on_c, 0, 63, 33
4, 7440, Note_on_c, 0, 54, 27
4, 7440, Note_on_c, 0, 51, 27
4, 7680, Note_on_c, 0, 51, 0
4, 7680, Note_on_c, 0, 63, 0
4, 7680, Note_on_c, 0, 32, 0
4, 7680, Note_on_c, 0, 44, 0
4, 7680, Note_on_c, 0, 54, 0
4, 7680, Note_on_c, 0, 25, 59
4, 7680, Note_on_c, 0, 37, 70
4, 7920, Note_on_c, 0, 64, 48
4, 7920, Note_on_c, 0, 56, 40
4, 7920, Note_on_c, 0, 52, 40
4, 8160, Note_on_c, 0, 71, 48
4, 8160, Note_on_c, 0, 61, 40
4, 8160, Note_on_c, 0, 59, 40
4, 8170, Note_on_c, 0, 52, 0
4, 8170, Note_on_c, 0, 56, 0
4, 8170, Note_on_c, 0, 64, 0
4, 8400, Note_on_c, 0, 61, 0
4, 8400, Note_on_c, 0, 69, 48
4, 8400, Note_on_c, 0, 61, 40
4, 8400, Note_on_c, 0, 57, 40
4, 8410, Note_on_c, 0, 71, 0
4, 8410, Note_on_c, 0, 59, 0
4, 8640, Note_on_c, 0, 37, 0
4, 8640, Note_on_c, 0, 69, 0
4, 8640, Note_on_c, 0, 25, 0
4, 8640, Note_on_c, 0, 57, 0
4, 8640, Note_on_c, 0, 61, 0
4, 8640, Note_on_c, 0, 36, 59
4, 8640, Note_on_c, 0, 48, 70
4, 8880, Note_on_c, 0, 66, 57
4, 8880, Note_on_c, 0, 57, 46
4, 8880, Note_on_c, 0, 54, 46
4, 9120, Note_on_c, 0, 54, 0
4, 9120, Note_on_c, 0, 66, 0
4, 9120, Note_on_c, 0, 36, 0
4, 9120, Note_on_c, 0, 48, 0
4, 9120, Note_on_c, 0, 57, 0
4, 9120, Note_on_c, 0, 35, 60
4, 9120, Note_on_c, 0, 47, 71
4, 9360, Note_on_c, 0, 66, 61
4, 9360, Note_on_c, 0, 57, 51
4, 9360, Note_on_c, 0, 54, 51
4, 9600, Note_on_c, 0, 54, 0
4, 9600, Note_on_c, 0, 66, 0
4, 9600, Note_on_c, 0, 35, 0
4, 9600, Note_on_c, 0, 47, 0
4, 9600, Note_on_c, 0, 57, 0
4, 9600, Note_on_c, 0, 28, 59
4, 9600, Note_on_c, 0, 40, 70
4, 9840, Note_on_c, 0, 68, 62
4, 9840, Note_on_c, 0, 59, 52
4, 9840, Note_on_c, 0, 56, 52
4, 10080, Note_on_c, 0, 75, 64
4, 10080, Note_on_c, 0, 64, 55
4, 10080, Note_on_c, 0, 63, 55
4, 10090, Note_on_c, 0, 56, 0
4, 10090, Note_on_c, 0, 59, 0
4, 10090, Note_on_c, 0, 68, 0
4, 10320, Note_on_c, 0, 64, 0
4, 10320, Note_on_c, 0, 73, 64
4, 10320, Note_on_c, 0, 64, 55
4, 10320, Note_on_c, 0, 61, 55
4, 10330, Note_on_c, 0, 75, 0
4, 10330, Note_on_c, 0, 63, 0
4, 10558, Note_on_c, 0, 64, 0
4, 10560, Note_on_c, 0, 73, 0
4, 10560, Note_on_c, 0, 28, 0
4, 10560, Note_on_c, 0, 40, 0
4, 10560, Note_on_c, 0, 61, 0
4, 10560, Note_on_c, 0, 40, 64
4, 10560, Note_on_c, 0, 52, 78
4, 10800, Note_on_c, 0, 70, 67
4, 10800, Note_on_c, 0, 61, 55
4, 10800, Note_on_c, 0, 58, 55
4, 11040, Note_on_c, 0, 58, 0
4, 11040, Note_on_c, 0, 70, 0
4, 11040, Note_on_c, 0, 40, 0
4, 11040, Note_on_c, 0, 52, 0
4, 11040, Note_on_c, 0, 61, 0
4, 11040, Note_on_c, 0, 39, 66
4, 11040, Note_on_c, 0, 51, 79
4, 11280, Note_on_c, 0, 70, 73
4, 11280, Note_on_c, 0, 61, 60
4, 11280, Note_on_c, 0, 58, 60
4, 11520, Note_on_c, 0, 58, 0
4, 11520, Note_on_c, 0, 70, 0
4, 11520, Note_on_c, 0, 39, 0
4, 11520, Note_on_c, 0, 51, 0
4, 11520, Note_on_c, 0, 61, 0
4, 11520, Note_on_c, 0, 32, 64
4, 11520, Note_on_c, 0, 44, 77
4, 11760, Note_on_c, 0, 71, 41
4, 11760, Note_on_c, 0, 63, 35
4, 11760, Note_on_c, 0, 59, 35
4, 12000, Note_on_c, 0, 73, 56
4, 12000, Note_on_c, 0, 64, 56
4, 12000, Note_on_c, 0, 61, 47
4, 12010, Note_on_c, 0, 59, 0
4, 12010, Note_on_c, 0, 63, 0
4, 12010, Note_on_c, 0, 71, 0
4, 12238, Note_on_c, 0, 73, 0
4, 12238, Note_on_c, 0, 61, 0
4, 12238, Note_on_c, 0, 64, 0
4, 12240, Note_on_c, 0, 69, 52
4, 12240, Note_on_c, 0, 61, 44
4, 12240, Note_on_c, 0, 57, 44
4, 12480, Note_on_c, 0, 71, 54
4, 12480, Note_on_c, 0, 63, 45
4, 12480, Note_on_c, 0, 59, 45
4, 12490, Note_on_c, 0, 57, 0
4, 12490, Note_on_c, 0, 61, 0
4, 12490, Note_on_c, 0, 69, 0
4, 12718, Note_on_c, 0, 71, 0
4, 12718, Note_on_c, 0, 59, 0
4, 12718, Note_on_c, 0, 63, 0
4, 12720, Note_on_c, 0, 68, 52
4, 12720, Note_on_c, 0, 59, 44
4, 12720, Note_on_c, 0, 56, 44
4, 12960, Note_on_c, 0, 69, 54
4, 12960, Note_on_c, 0, 61, 45
4, 12960, Note_on_c, 0, 57, 45
4, 12970, Note_on_c, 0, 56, 0
4, 12970, Note_on_c, 0, 59, 0
4, 12970, Note_on_c, 0, 68, 0
4, 13198, Note_on_c, 0, 69, 0
4, 13198, Note_on_c, 0, 57, 0
4, 13198, Note_on_c, 0, 61, 0
4, 13200, Note_on_c, 0, 66, 52
4, 13200, Note_on_c, 0, 57, 44
4, 13200, Note_on_c, 0, 54, 44
4, 13440, Note_on_c, 0, 68, 55
4, 13440, Note_on_c, 0, 59, 46
4, 13440, Note_on_c, 0, 56, 46
4, 13450, Note_on_c, 0, 54, 0
4, 13450, Note_on_c, 0, 57, 0
4, 13450, Note_on_c, 0, 66, 0
4, 13668, Note_on_c, 0, 68, 0
4, 13668, Note_on_c, 0, 56, 0
4, 13668, Note_on_c, 0, 59, 0
4, 13680, Note_on_c, 0, 44, 0
4, 13680, Note_on_c, 0, 32, 0
4, 13680, Note_on_c, 0, 68, 52
4, 13680, Note_on_c, 0, 59, 44
4, 13680, Note_on_c, 0, 56, 44
4, 13920, Note_on_c, 0, 69, 55
4, 13920, Note_on_c, 0, 61, 46
4, 13920, Note_on_c, 0, 57, 46
4, 13930, Note_on_c, 0, 56, 0
4, 13930, Note_on_c, 0, 68, 0
4, 13930, Note_on_c, 0, 59, 0
4, 14158, Note_on_c, 0, 69, 0
4, 14158, Note_on_c, 0, 61, 0
4, 14158, Note_on_c, 0, 57, 0
4, 14160, Note_on_c, 0, 66, 52
4, 14160, Note_on_c, 0, 57, 44
4, 14160, Note_on_c, 0, 54, 44
4, 14400, Note_on_c, 0, 68, 56
4, 14400, Note_on_c, 0, 59, 47
4, 14400, Note_on_c, 0, 56, 47
4, 14410, Note_on_c, 0, 54, 0
4, 14410, Note_on_c, 0, 66, 0
4, 14410, Note_on_c, 0, 57, 0
4, 14638, Note_on_c, 0, 68, 0
4, 14638, Note_on_c, 0, 59, 0
4, 14638, Note_on_c, 0, 56, 0
4, 14640, Note_on_c, 0, 64, 45
4, 14640, Note_on_c, 0, 56, 38
4, 14640, Note_on_c, 0, 52, 38
4, 14880, Note_on_c, 0, 66, 40
4, 14880, Note_on_c, 0, 57, 34
4, 14880, Note_on_c, 0, 54, 34
4, 14890, Note_on_c, 0, 52, 0
4, 14890, Note_on_c, 0, 64, 0
4, 14890, Note_on_c, 0, 56, 0
4, 15118, Note_on_c, 0, 66, 0
4, 15118, Note_on_c, 0, 57, 0
4, 15118, Note_on_c, 0, 54, 0
4, 15120, Note_on_c, 0, 63, 30
4, 15120, Note_on_c, 0, 54, 25
4, 15120, Note_on_c, 0, 51, 25
4, 15360, Note_on_c, 0, 52, 22
4, 15360, Note_on_c, 0, 56, 22
4, 15360, Note_on_c, 0, 64, 27
4, 15370, Note_on_c, 0, 51, 0
4, 15370, Note_on_c, 0, 63, 0
4, 15370, Note_on_c, 0, 54, 0
4, 15588, Note_on_c, 0, 52, 0
4, 15588, Note_on_c, 0, 56, 0
4, 15588, Note_on_c, 0, 64, 0
4, 15600, Note_on_c, 0, 64, 23
4, 15600, Note_on_c, 0, 56, 19
4, 15600, Note_on_c, 0, 52, 19
4, 15838, Note_on_c, 0, 64, 0
4, 15840, Note_on_c, 0, 56, 0
4, 15840, Note_on_c, 0, 68, 23
4, 15840, Note_on_c, 0, 59, 19
4, 15840, Note_on_c, 0, 56, 19
4, 15850, Note_on_c, 0, 52, 0
4, 16080, Note_on_c, 0, 67, 23
4, 16080, Note_on_c, 0, 58, 19
4, 16080, Note_on_c, 0, 55, 19
4, 16090, Note_on_c, 0, 68, 0
4, 16090, Note_on_c, 0, 56, 0
4, 16090, Note_on_c, 0, 59, 0
4, 16320, Note_on_c, 0, 33, 36
4, 16320, Note_on_c, 0, 45, 43
4, 16330, Note_on_c, 0, 67, 0
4, 16330, Note_on_c, 0, 55, 0
4, 16330, Note_on_c, 0, 58, 0
4, 16560, Note_on_c, 0, 66, 25
4, 16560, Note_on_c, 0, 60, 21
4, 16560, Note_on_c, 0, 54, 21
4, 16800, Note_on_c, 0, 54, 0
4, 16800, Note_on_c, 0, 66, 0
4, 16800, Note_on_c, 0, 45, 0
4, 16800, Note_on_c, 0, 33, 0
4, 16800, Note_on_c, 0, 60, 0
4, 16800, Note_on_c, 0, 32, 37
4, 16800, Note_on_c, 0, 44, 46
4, 17040, Note_on_c, 0, 63, 27
4, 17040, Note_on_c, 0, 54, 22
4, 17040, Note_on_c, 0, 51, 22
4, 17280, Note_on_c, 0, 51, 0
4, 17280, Note_on_c, 0, 63, 0
4, 17280, Note_on_c, 0, 32, 0
4, 17280, Note_on_c, 0, 44, 0
4, 17280, Note_on_c, 0, 54, 0
4, 17280, Note_on_c, 0, 25, 37
4, 17280, Note_on_c, 0, 37, 44
4, 17520, Note_on_c, 0, 64, 31
4, 17520, Note_on_c, 0, 56, 27
4, 17520, Note_on_c, 0, 52, 27
4, 17760, Note_on_c, 0, 71, 35
4, 17760, Note_on_c, 0, 61, 30
4, 17760, Note_on_c, 0, 59, 30
4, 17770, Note_on_c, 0, 52, 0
4, 17770, Note_on_c, 0, 56, 0
4, 17770, Note_on_c, 0, 64, 0
4, 18000, Note_on_c, 0, 61, 0
4, 18000, Note_on_c, 0, 69, 35
4, 18000, Note_on_c, 0, 61, 30
4, 18000, Note_on_c, 0, 57, 30
4, 18010, Note_on_c, 0, 71, 0
4, 18010, Note_on_c, 0, 59, 0
4, 18238, Note_on_c, 0, 57, 0
4, 18240, Note_on_c, 0, 69, 0
4, 18240, Note_on_c, 0, 25, 0
4, 18240, Note_on_c, 0, 37, 0
4, 18240, Note_on_c, 0, 61, 0
4, 18240, Note_on_c, 0, 33, 44
4, 18240, Note_on_c, 0, 45, 55
4, 18480, Note_on_c, 0, 66, 32
4, 18480, Note_on_c, 0, 60, 27
4, 18480, Note_on_c, 0, 54, 27
4, 18720, Note_on_c, 0, 54, 0
4, 18720, Note_on_c, 0, 66, 0
4, 18720, Note_on_c, 0, 33, 0
4, 18720, Note_on_c, 0, 45, 0
4, 18720, Note_on_c, 0, 60, 0
4, 18720, Note_on_c, 0, 32, 40
4, 18720, Note_on_c, 0, 44, 48
4, 18960, Note_on_c, 0, 63, 36
4, 18960, Note_on_c, 0, 54, 29
4, 18960, Note_on_c, 0, 51, 29
4, 19200, Note_on_c, 0, 51, 0
4, 19200, Note_on_c, 0, 63, 0
4, 19200, Note_on_c, 0, 32, 0
4, 19200, Note_on_c, 0, 44, 0
4, 19200, Note_on_c, 0, 54, 0
4, 19200, Note_on_c, 0, 25, 44
4, 19200, Note_on_c, 0, 37, 44
4, 19440, Note_on_c, 0, 64, 30
4, 19440, Note_on_c, 0, 56, 26
4, 19440, Note_on_c, 0, 52, 26
4, 19680, Note_on_c, 0, 66, 33
4, 19680, Note_on_c, 0, 57, 33
4, 19680, Note_on_c, 0, 54, 27
4, 19690, Note_on_c, 0, 52, 0
4, 19690, Note_on_c, 0, 56, 0
4, 19690, Note_on_c, 0, 64, 0
4, 19918, Note_on_c, 0, 66, 0
4, 19918, Note_on_c, 0, 54, 0
4, 19918, Note_on_c, 0, 57, 0
4, 19920, Note_on_c, 0, 62, 30
4, 19920, Note_on_c, 0, 54, 26
4, 19920, Note_on_c, 0, 50, 26
4, 20160, Note_on_c, 0, 64, 32
4, 20160, Note_on_c, 0, 56, 27
4, 20160, Note_on_c, 0, 52, 27
4, 20170, Note_on_c, 0, 50, 0
4, 20170, Note_on_c, 0, 54, 0
4, 20170, Note_on_c, 0, 62, 0
4, 20398, Note_on_c, 0, 64, 0
4, 20398, Note_on_c, 0, 52, 0
4, 20398, Note_on_c, 0, 56, 0
4, 20400, Note_on_c, 0, 61, 27
4, 20400, Note_on_c, 0, 52, 23
4, 20400, Note_on_c, 0, 49, 23
4, 20640, Note_on_c, 0, 62, 29
4, 20640, Note_on_c, 0, 54, 24
4, 20640, Note_on_c, 0, 50, 24
4, 20650, Note_on_c, 0, 49, 0
4, 20650, Note_on_c, 0, 52, 0
4, 20650, Note_on_c, 0, 61, 0
4, 20878, Note_on_c, 0, 62, 0
4, 20878, Note_on_c, 0, 50, 0
4, 20878, Note_on_c, 0, 54, 0
4, 20880, Note_on_c, 0, 59, 29
4, 20880, Note_on_c, 0, 54, 24
4, 20880, Note_on_c, 0, 47, 24
4, 21120, Note_on_c, 0, 49, 23
4, 21120, Note_on_c, 0, 54, 23
4, 21120, Note_on_c, 0, 61, 28
4, 21130, Note_on_c, 0, 47, 0
4, 21130, Note_on_c, 0, 54, 0
4, 21130, Note_on_c, 0, 59, 0
4, 21348, Note_on_c, 0, 49, 0
4, 21348, Note_on_c, 0, 61, 0
4, 21348, Note_on_c, 0, 54, 0
4, 21360, Note_on_c, 0, 37, 0
4, 21360, Note_on_c, 0, 25, 0
4, 21360, Note_on_c, 0, 61, 23
4, 21360, Note_on_c, 0, 54, 19
4, 21360, Note_on_c, 0, 49, 19
4, 21598, Note_on_c, 0, 61, 0
4, 21600, Note_on_c, 0, 54, 0
4, 21600, Note_on_c, 0, 64, 23
4, 21600, Note_on_c, 0, 54, 19
4, 21600, Note_on_c, 0, 52, 19
4, 21610, Note_on_c, 0, 49, 0
4, 21840, Note_on_c, 0, 54, 0
4, 21840, Note_on_c, 0, 62, 23
4, 21840, Note_on_c, 0, 54, 19
4, 21840, Note_on_c, 0, 50, 19
4, 21850, Note_on_c, 0, 64, 0
4, 21850, Note_on_c, 0, 52, 0
4, 22080, Note_on_c, 0, 54, 0
4, 22080, Note_on_c, 0, 62, 0
4, 22080, Note_on_c, 0, 50, 0
4, 22080, Note_on_c, 0, 31, 34
4, 22080, Note_on_c, 0, 43, 41
4, 22320, Note_on_c, 0, 61, 25
4, 22320, Note_on_c, 0, 52, 21
4, 22560, Note_on_c, 0, 52, 0
4, 22560, Note_on_c, 0, 31, 0
4, 22560, Note_on_c, 0, 43, 0
4, 22560, Note_on_c, 0, 61, 0
4, 22560, Note_on_c, 0, 32, 34
4, 22560, Note_on_c, 0, 44, 41
4, 22800, Note_on_c, 0, 60, 27
4, 22800, Note_on_c, 0, 54, 22
4, 22800, Note_on_c, 0, 51, 22
4, 23040, Note_on_c, 0, 51, 0
4, 23040, Note_on_c, 0, 60, 0
4, 23040, Note_on_c, 0, 32, 0
4, 23040, Note_on_c, 0, 44, 0
4, 23040, Note_on_c, 0, 54, 0
4, 23040, Note_on_c, 0, 25, 39
4, 23040, Note_on_c, 0, 37, 39
4, 23280, Note_on_c, 0, 44, 25
4, 23520, Note_on_c, 0, 47, 25
4, 23530, Note_on_c, 0, 44, 0
4, 23760, Note_on_c, 0, 46, 25
4, 23770, Note_on_c, 0, 47, 0
4, 24000, Note_on_c, 0, 25, 0
4, 24000, Note_on_c, 0, 37, 0
4, 24000, Note_on_c, 0, 46, 0
4, 24000, Note_on_c, 0, 33, 35
4, 24000, Note_on_c, 0, 45, 35
4, 24480, Note_on_c, 0, 45, 0
4, 24480, Note_on_c, 0, 33, 0
4, 24480, Note_on_c, 0, 32, 35
4, 24480, Note_on_c, 0, 44, 35
4, 24960, Note_on_c, 0, 44, 0
4, 24960, Note_on_c, 0, 32, 0
4, 24960, Note_on_c, 0, 25, 36
4, 24960, Note_on_c, 0, 37, 36
4, 25200, Note_on_c, 0, 44, 25
4, 25440, Note_on_c, 0, 47, 25
4, 25450, Note_on_c, 0, 44, 0
4, 25680, Note_on_c, 0, 46, 25
4, 25690, Note_on_c, 0, 47, 0
4, 25920, Note_on_c, 0, 25, 0
4, 25920, Note_on_c, 0, 37, 0
4, 25920, Note_on_c, 0, 46, 0
4, 25920, Note_on_c, 0, 33, 35
4, 25920, Note_on_c, 0, 45, 35
4, 26400, Note_on_c, 0, 45, 0
4, 26400, Note_on_c, 0, 33, 0
4, 26400, Note_on_c, 0, 32, 35
4, 26400, Note_on_c, 0, 44, 35
4, 26880, Note_on_c, 0, 44, 0
4, 26880, Note_on_c, 0, 32, 0
4, 26880, Note_on_c, 0, 25, 38
4, 26880, Note_on_c, 0, 37, 38
4, 27360, Note_on_c, 0, 46, 35
4, 27840, Note_on_c, 0, 46, 0
4, 27840, Note_on_c, 0, 45, 34
4, 28320, Note_on_c, 0, 45, 0
4, 28320, Note_on_c, 0, 44, 32
4, 28800, Note_on_c, 0, 44, 0
4, 28800, Note_on_c, 0, 37, 0
4, 28800, Note_on_c, 0, 25, 0
4, 28800, Note_on_c, 0, 47, 37
4, 28800, Note_on_c, 0, 37, 40
4, 29280, Note_on_c, 0, 47, 0
4, 29280, Note_on_c, 0, 46, 38
4, 29760, Note_on_c, 0, 46, 0
4, 29760, Note_on_c, 0, 45, 35
4, 30240, Note_on_c, 0, 45, 0
4, 30240, Note_on_c, 0, 44, 34
4, 30720, Note_on_c, 0, 44, 0
4, 30720, Note_on_c, 0, 37, 0
4, 30720, Note_on_c, 0, 40, 41
4, 31200, Note_on_c, 0, 40, 0
4, 31200, Note_on_c, 0, 39, 42
4, 31680, Note_on_c, 0, 39, 0
4, 31680, Note_on_c, 0, 42, 43
4, 32160, Note_on_c, 0, 42, 0
4, 32160, Note_on_c, 0, 40, 42
4, 32640, Note_on_c, 0, 40, 0
4, 32640, Note_on_c, 0, 45, 53
4, 33120, Note_on_c, 0, 45, 0
4, 33120, Note_on_c, 0, 39, 51
4, 33600, Note_on_c, 0, 39, 0
4, 33600, Note_on_c, 0, 44, 48
4, 34080, Note_on_c, 0, 44, 0
4, 34080, Note_on_c, 0, 37, 44
4, 34560, Note_on_c, 0, 47, 55
4, 35040, Note_on_c, 0, 47, 0
4, 35040, Note_on_c, 0, 46, 55
4, 35520, Note_on_c, 0, 46, 0
4, 35520, Note_on_c, 0, 45, 52
4, 36000, Note_on_c, 0, 45, 0
4, 36000, Note_on_c, 0, 44, 49
4, 36480, Note_on_c, 0, 44, 0
4, 36480, Note_on_c, 0, 37, 0
4, 36480, Note_on_c, 0, 47, 55
4, 36480, Note_on_c, 0, 37, 60
4, 36960, Note_on_c, 0, 47, 0
4, 36960, Note_on_c, 0, 46, 55
4, 37440, Note_on_c, 0, 46, 0
4, 37440, Note_on_c, 0, 45, 52
4, 37920, Note_on_c, 0, 45, 0
4, 37920, Note_on_c, 0, 44, 49
4, 38400, Note_on_c, 0, 44, 0
4, 38400, Note_on_c, 0, 37, 0
4, 38400, Note_on_c, 0, 40, 55
4, 38880, Note_on_c, 0, 40, 0
4, 38880, Note_on_c, 0, 39, 54
4, 39360, Note_on_c, 0, 39, 0
4, 39360, Note_on_c, 0, 42, 58
4, 39840, Note_on_c, 0, 42, 0
4, 39840, Note_on_c, 0, 40, 55
4, 40320, Note_on_c, 0, 40, 0
4, 40320, Note_on_c, 0, 45, 60
4, 40320, Note_on_c, 0, 52, 71
4, 40800, Note_on_c, 0, 52, 0
4, 40800, Note_on_c, 0, 54, 63
4, 41280, Note_on_c, 0, 54, 0
4, 41280, Note_on_c, 0, 53, 77
4, 41760, Note_on_c, 0, 53, 0
4, 41760, Note_on_c, 0, 52, 70
4, 42240, Note_on_c, 0, 52, 0
4, 42240, Note_on_c, 0, 45, 0
4, 42240, Note_on_c, 0, 60, 68
4, 42240, Note_on_c, 0, 63, 81
4, 42720, Note_on_c, 0, 63, 0
4, 42720, Note_on_c, 0, 60, 0
4, 42720, Note_on_c, 0, 61, 67
4, 42720, Note_on_c, 0, 64, 69
4, 43200, Note_on_c, 0, 64, 0
4, 43200, Note_on_c, 0, 61, 0
4, 43200, Note_on_c, 0, 56, 65
4, 43200, Note_on_c, 0, 59, 78
4, 43680, Note_on_c, 0, 59, 0
4, 43680, Note_on_c, 0, 56, 0
4, 43680, Note_on_c, 0, 57, 64
4, 43680, Note_on_c, 0, 61, 68
4, 44160, Note_on_c, 0, 61, 0
4, 44160, Note_on_c, 0, 57, 0
4, 44160, Note_on_c, 0, 56, 61
4, 44160, Note_on_c, 0, 59, 73
4, 44640, Note_on_c, 0, 59, 0
4, 44640, Note_on_c, 0, 56, 0
4, 44640, Note_on_c, 0, 57, 60
4, 44640, Note_on_c, 0, 61, 62
4, 45120, Note_on_c, 0, 61, 0
4, 45120, Note_on_c, 0, 57, 0
4, 45120, Note_on_c, 0, 53, 58
4, 45120, Note_on_c, 0, 56, 71
4, 45600, Note_on_c, 0, 56, 0
4, 45600, Note_on_c, 0, 53, 0
4, 45600, Note_on_c, 0, 54, 57
4, 45600, Note_on_c, 0, 57, 62
4, 46080, Note_on_c, 0, 57, 0
4, 46080, Note_on_c, 0, 54, 0
4, 46080, Note_on_c, 0, 51, 56
4, 46080, Note_on_c, 0, 54, 66
4, 46560, Note_on_c, 0, 54, 0
4, 46560, Note_on_c, 0, 51, 0
4, 46560, Note_on_c, 0, 52, 55
4, 46560, Note_on_c, 0, 56, 56
4, 47040, Note_on_c, 0, 56, 0
4, 47040, Note_on_c, 0, 52, 0
4, 47040, Note_on_c, 0, 48, 54
4, 47040, Note_on_c, 0, 51, 65
4, 47520, Note_on_c, 0, 51, 0
4, 47520, Note_on_c, 0, 48, 0
4, 47520, Note_on_c, 0, 49, 53
4, 47520, Note_on_c, 0, 52, 57
4, 48000, Note_on_c, 0, 52, 0
4, 48000, Note_on_c, 0, 49, 0
4, 48000, Note_on_c, 0, 42, 66
4, 48480, Note_on_c, 0, 50, 57
4, 48960, Note_on_c, 0, 50, 0
4, 48960, Note_on_c, 0, 42, 0
4, 48960, Note_on_c, 0, 43, 69
4, 49440, Note_on_c, 0, 51, 63
4, 49920, Note_on_c, 0, 51, 0
4, 49920, Note_on_c, 0, 43, 0
4, 49920, Note_on_c, 0, 44, 77
4, 50400, Note_on_c, 0, 52, 68
4, 50880, Note_on_c, 0, 52, 0
4, 50880, Note_on_c, 0, 44, 0
4, 50880, Note_on_c, 0, 51, 82
4, 51360, Note_on_c, 0, 51, 0
4, 51360, Note_on_c, 0, 49, 74
4, 51720, Note_on_c, 0, 37, 86
4, 51840, Note_on_c, 0, 49, 0
4, 51840, Note_on_c, 0, 59, 79
4, 52320, Note_on_c, 0, 59, 0
4, 52320, Note_on_c, 0, 58, 79
4, 52800, Note_on_c, 0, 58, 0
4, 52800, Note_on_c, 0, 57, 74
4, 53280, Note_on_c, 0, 57, 0
4, 53280, Note_on_c, 0, 56, 69
4, 53640, Note_on_c, 0, 56, 0
4, 53640, Note_on_c, 0, 37, 0
4, 53640, Note_on_c, 0, 37, 86
4, 53760, Note_on_c, 0, 59, 79
4, 54240, Note_on_c, 0, 59, 0
4, 54240, Note_on_c, 0, 58, 79
4, 54720, Note_on_c, 0, 58, 0
4, 54720, Note_on_c, 0, 57, 74
4, 55200, Note_on_c, 0, 57, 0
4, 55200, Note_on_c, 0, 56, 69
4, 55680, Note_on_c, 0, 56, 0
4, 55680, Note_on_c, 0, 37, 0
4, 55680, Note_on_c, 0, 61, 86
4, 55680, Note_on_c, 0, 52, 79
4, 56160, Note_on_c, 0, 52, 0
4, 56160, Note_on_c, 0, 51, 80
4, 56640, Note_on_c, 0, 51, 0
4, 56640, Note_on_c, 0, 54, 79
4, 57120, Note_on_c, 0, 54, 0
4, 57120, Note_on_c, 0, 52, 76
4, 57600, Note_on_c, 0, 52, 0
4, 57600, Note_on_c, 0, 61, 0
4, 57600, Note_on_c, 0, 57, 80
4, 58080, Note_on_c, 0, 57, 0
4, 58080, Note_on_c, 0, 51, 67
4, 58560, Note_on_c, 0, 51, 0
4, 58560, Note_on_c, 0, 56, 73
4, 59040, Note_on_c, 0, 56, 0
4, 59040, Note_on_c, 0, 49, 66
4, 59400, Note_on_c, 0, 49, 0
4, 59400, Note_on_c, 0, 37, 86
4, 59520, Note_on_c, 0, 59, 79
4, 60000, Note_on_c, 0, 59, 0
4, 60000, Note_on_c, 0, 58, 79
4, 60480, Note_on_c, 0, 58, 0
4, 60480, Note_on_c, 0, 57, 74
4, 60960, Note_on_c, 0, 57, 0
4, 60960, Note_on_c, 0, 56, 69
4, 61320, Note_on_c, 0, 56, 0
4, 61320, Note_on_c, 0, 37, 0
4, 61320, Note_on_c, 0, 37, 86
4, 61440, Note_on_c, 0, 59, 79
4, 61920, Note_on_c, 0, 59, 0
4, 61920, Note_on_c, 0, 58, 79
4, 62400, Note_on_c, 0, 58, 0
4, 62400, Note_on_c, 0, 57, 74
4, 62880, Note_on_c, 0, 57, 0
4, 62880, Note_on_c, 0, 56, 69
4, 63360, Note_on_c, 0, 56, 0
4, 63360, Note_on_c, 0, 37, 0
4, 63360, Note_on_c, 0, 61, 82
4, 63360, Note_on_c, 0, 52, 75
4, 63840, Note_on_c, 0, 52, 0
4, 63840, Note_on_c, 0, 51, 72
4, 64320, Note_on_c, 0, 51, 0
4, 64320, Note_on_c, 0, 54, 76
4, 64800, Note_on_c, 0, 54, 0
4, 64800, Note_on_c, 0, 52, 71
4, 65280, Note_on_c, 0, 52, 0
4, 65280, Note_on_c, 0, 61, 0
4, 65280, Note_on_c, 0, 68, 89
4, 65280, Note_on_c, 0, 65, 75
4, 65760, Note_on_c, 0, 65, 0
4, 65760, Note_on_c, 0, 68, 0
4, 65760, Note_on_c, 0, 69, 79
4, 65760, Note_on_c, 0, 66, 67
4, 66240, Note_on_c, 0, 66, 0
4, 66240, Note_on_c, 0, 69, 0
4, 66240, Note_on_c, 0, 68, 79
4, 66240, Note_on_c, 0, 71, 93
4, 66720, Note_on_c, 0, 71, 0
4, 66720, Note_on_c, 0, 68, 0
4, 66720, Note_on_c, 0, 69, 71
4, 66720, Note_on_c, 0, 73, 84
4, 67200, Note_on_c, 0, 73, 0
4, 67200, Note_on_c, 0, 69, 0
4, 67200, Note_on_c, 0, 72, 79
4, 67200, Note_on_c, 0, 75, 94
4, 67680, Note_on_c, 0, 75, 0
4, 67680, Note_on_c, 0, 72, 0
4, 67680, Note_on_c, 0, 73, 78
4, 67680, Note_on_c, 0, 76, 80
4, 68160, Note_on_c, 0, 76, 0
4, 68160, Note_on_c, 0, 73, 0
4, 82560, Note_on_c, 0, 33, 82
4, 82560, Note_on_c, 0, 45, 97
4, 83520, Note_on_c, 0, 49, 75
4, 83520, Note_on_c, 0, 54, 75
4, 83520, Note_on_c, 0, 61, 90
4, 84480, Note_on_c, 0, 61, 0
4, 84480, Note_on_c, 0, 49, 0
4, 84480, Note_on_c, 0, 33, 0
4, 84480, Note_on_c, 0, 45, 0
4, 84480, Note_on_c, 0, 54, 0
4, 84480, Note_on_c, 0, 32, 84
4, 84480, Note_on_c, 0, 44, 93
4, 85440, Note_on_c, 0, 66, 90
4, 85440, Note_on_c, 0, 63, 78
4, 85440, Note_on_c, 0, 60, 71
4, 85440, Note_on_c, 0, 54, 70
4, 86400, Note_on_c, 0, 54, 0
4, 86400, Note_on_c, 0, 44, 0
4, 86400, Note_on_c, 0, 66, 0
4, 86400, Note_on_c, 0, 32, 0
4, 86400, Note_on_c, 0, 60, 0
4, 86400, Note_on_c, 0, 63, 0
4, 86640, Note_on_c, 0, 64, 76
4, 86640, Note_on_c, 0, 61, 76
4, 86640, Note_on_c, 0, 56, 65
4, 86640, Note_on_c, 0, 52, 65
4, 86880, Note_on_c, 0, 52, 0
4, 86880, Note_on_c, 0, 64, 0
4, 86880, Note_on_c, 0, 61, 0
4, 86880, Note_on_c, 0, 56, 0
4, 86880, Note_on_c, 0, 68, 81
4, 86880, Note_on_c, 0, 64, 81
4, 86880, Note_on_c, 0, 59, 67
4, 86880, Note_on_c, 0, 56, 67
4, 87120, Note_on_c, 0, 56, 0
4, 87120, Note_on_c, 0, 68, 0
4, 87120, Note_on_c, 0, 64, 0
4, 87120, Note_on_c, 0, 59, 0
4, 87120, Note_on_c, 0, 67, 79
4, 87120, Note_on_c, 0, 63, 79
4, 87120, Note_on_c, 0, 58, 67
4, 87120, Note_on_c, 0, 55, 67
4, 87360, Note_on_c, 0, 55, 0
4, 87360, Note_on_c, 0, 67, 0
4, 87360, Note_on_c, 0, 63, 0
4, 87360, Note_on_c, 0, 58, 0
4, 87600, Note_on_c, 0, 66, 76
4, 87600, Note_on_c, 0, 62, 76
4, 87600, Note_on_c, 0, 60, 65
4, 87600, Note_on_c, 0, 54, 65
4, 87840, Note_on_c, 0, 54, 0
4, 87840, Note_on_c, 0, 66, 0
4, 87840, Note_on_c, 0, 62, 0
4, 87840, Note_on_c, 0, 60, 0
4, 88080, Note_on_c, 0, 63, 76
4, 88080, Note_on_c, 0, 60, 76
4, 88080, Note_on_c, 0, 54, 65
4, 88080, Note_on_c, 0, 51, 65
4, 88320, Note_on_c, 0, 51, 0
4, 88320, Note_on_c, 0, 63, 0
4, 88320, Note_on_c, 0, 60, 0
4, 88320, Note_on_c, 0, 54, 0
4, 88560, Note_on_c, 0, 64, 76
4, 88560, Note_on_c, 0, 61, 76
4, 88560, Note_on_c, 0, 56, 65
4, 88560, Note_on_c, 0, 52, 65
4, 88800, Note_on_c, 0, 52, 0
4, 88800, Note_on_c, 0, 64, 0
4, 88800, Note_on_c, 0, 61, 0
4, 88800, Note_on_c, 0, 56, 0
4, 88800, Note_on_c, 0, 68, 81
4, 88800, Note_on_c, 0, 64, 81
4, 88800, Note_on_c, 0, 59, 67
4, 88800, Note_on_c, 0, 56, 67
4, 89040, Note_on_c, 0, 56, 0
4, 89040, Note_on_c, 0, 68, 0
4, 89040, Note_on_c, 0, 64, 0
4, 89040, Note_on_c, 0, 59, 0
4, 89040, Note_on_c, 0, 67, 79
4, 89040, Note_on_c, 0, 63, 79
4, 89040, Note_on_c, 0, 55, 67
4, 89040, Note_on_c, 0, 58, 67
4, 89280, Note_on_c, 0, 58, 0
4, 89280, Note_on_c, 0, 67, 0
4, 89280, Note_on_c, 0, 63, 0
4, 89280, Note_on_c, 0, 55, 0
4, 89520, Note_on_c, 0, 66, 76
4, 89520, Note_on_c, 0, 62, 76
4, 89520, Note_on_c, 0, 60, 65
4, 89520, Note_on_c, 0, 54, 65
4, 89760, Note_on_c, 0, 54, 0
4, 89760, Note_on_c, 0, 66, 0
4, 89760, Note_on_c, 0, 62, 0
4, 89760, Note_on_c, 0, 60, 0
4, 90000, Note_on_c, 0, 63, 76
4, 90000, Note_on_c, 0, 60, 76
4, 90000, Note_on_c, 0, 54, 65
4, 90000, Note_on_c, 0, 51, 65
4, 90240, Note_on_c, 0, 51, 0
4, 90240, Note_on_c, 0, 63, 0
4, 90240, Note_on_c, 0, 60, 0
4, 90240, Note_on_c, 0, 54, 0
4, 90480, Note_on_c, 0, 64, 76
4, 90480, Note_on_c, 0, 61, 76
4, 90480, Note_on_c, 0, 56, 65
4, 90480, Note_on_c, 0, 52, 65
4, 90720, Note_on_c, 0, 52, 0
4, 90720, Note_on_c, 0, 64, 0
4, 90720, Note_on_c, 0, 61, 0
4, 90720, Note_on_c, 0, 56, 0
4, 90720, Note_on_c, 0, 59, 67
4, 90720, Note_on_c, 0, 71, 81
4, 90720, Note_on_c, 0, 68, 81
4, 90720, Note_on_c, 0, 61, 67
4, 90960, Note_on_c, 0, 61, 0
4, 90960, Note_on_c, 0, 59, 0
4, 90960, Note_on_c, 0, 71, 0
4, 90960, Note_on_c, 0, 68, 0
4, 90960, Note_on_c, 0, 57, 65
4, 90960, Note_on_c, 0, 69, 76
4, 90960, Note_on_c, 0, 66, 76
4, 90960, Note_on_c, 0, 61, 65
4, 91200, Note_on_c, 0, 61, 0
4, 91200, Note_on_c, 0, 57, 0
4, 91200, Note_on_c, 0, 69, 0
4, 91200, Note_on_c, 0, 66, 0
4, 91440, Note_on_c, 0, 66, 76
4, 91440, Note_on_c, 0, 64, 76
4, 91440, Note_on_c, 0, 57, 65
4, 91440, Note_on_c, 0, 54, 65
4, 91680, Note_on_c, 0, 54, 0
4, 91680, Note_on_c, 0, 66, 0
4, 91680, Note_on_c, 0, 64, 0
4, 91680, Note_on_c, 0, 57, 0
4, 91920, Note_on_c, 0, 66, 76
4, 91920, Note_on_c, 0, 63, 76
4, 91920, Note_on_c, 0, 57, 65
4, 91920, Note_on_c, 0, 54, 65
4, 92160, Note_on_c, 0, 54, 0
4, 92160, Note_on_c, 0, 66, 0
4, 92160, Note_on_c, 0, 63, 0
4, 92160, Note_on_c, 0, 57, 0
4, 92400, Note_on_c, 0, 68, 79
4, 92400, Note_on_c, 0, 64, 79
4, 92400, Note_on_c, 0, 59, 67
4, 92400, Note_on_c, 0, 56, 67
4, 92640, Note_on_c, 0, 56, 0
4, 92640, Note_on_c, 0, 68, 0
4, 92640, Note_on_c, 0, 64, 0
4, 92640, Note_on_c, 0, 59, 0
4, 92640, Note_on_c, 0, 63, 70
4, 92640, Note_on_c, 0, 75, 83
4, 92640, Note_on_c, 0, 71, 83
4, 92640, Note_on_c, 0, 64, 70
4, 92880, Note_on_c, 0, 64, 0
4, 92880, Note_on_c, 0, 63, 0
4, 92880, Note_on_c, 0, 75, 0
4, 92880, Note_on_c, 0, 71, 0
4, 92880, Note_on_c, 0, 64, 67
4, 92880, Note_on_c, 0, 73, 79
4, 92880, Note_on_c, 0, 69, 79
4, 92880, Note_on_c, 0, 61, 67
4, 93118, Note_on_c, 0, 64, 0
4, 93120, Note_on_c, 0, 73, 0
4, 93120, Note_on_c, 0, 69, 0
4, 93120, Note_on_c, 0, 61, 0
4, 93360, Note_on_c, 0, 70, 77
4, 93360, Note_on_c, 0, 68, 77
4, 93360, Note_on_c, 0, 61, 66
4, 93360, Note_on_c, 0, 58, 66
4, 93600, Note_on_c, 0, 58, 0
4, 93600, Note_on_c, 0, 70, 0
4, 93600, Note_on_c, 0, 68, 0
4, 93600, Note_on_c, 0, 61, 0
4, 93840, Note_on_c, 0, 70, 76
4, 93840, Note_on_c, 0, 67, 76
4, 93840, Note_on_c, 0, 61, 65
4, 93840, Note_on_c, 0, 58, 65
4, 94080, Note_on_c, 0, 58, 0
4, 94080, Note_on_c, 0, 70, 0
4, 94080, Note_on_c, 0, 67, 0
4, 94080, Note_on_c, 0, 61, 0
4, 94320, Note_on_c, 0, 59, 64
4, 94320, Note_on_c, 0, 63, 64
4, 94320, Note_on_c, 0, 68, 75
4, 94320, Note_on_c, 0, 71, 75
4, 94560, Note_on_c, 0, 71, 0
4, 94560, Note_on_c, 0, 59, 0
4, 94560, Note_on_c, 0, 63, 0
4, 94560, Note_on_c, 0, 68, 0
4, 94560, Note_on_c, 0, 73, 78
4, 94560, Note_on_c, 0, 69, 78
4, 94560, Note_on_c, 0, 64, 66
4, 94560, Note_on_c, 0, 61, 66
4, 94798, Note_on_c, 0, 61, 0
4, 94798, Note_on_c, 0, 73, 0
4, 94798, Note_on_c, 0, 69, 0
4, 94798, Note_on_c, 0, 64, 0
4, 94800, Note_on_c, 0, 69, 75
4, 94800, Note_on_c, 0, 66, 75
4, 94800, Note_on_c, 0, 61, 64
4, 94800, Note_on_c, 0, 57, 64
4, 95040, Note_on_c, 0, 57, 0
4, 95040, Note_on_c, 0, 69, 0
4, 95040, Note_on_c, 0, 66, 0
4, 95040, Note_on_c, 0, 61, 0
4, 95040, Note_on_c, 0, 71, 78
4, 95040, Note_on_c, 0, 68, 78
4, 95040, Note_on_c, 0, 63, 66
4, 95040, Note_on_c, 0, 59, 66
4, 95278, Note_on_c, 0, 59, 0
4, 95278, Note_on_c, 0, 71, 0
4, 95278, Note_on_c, 0, 68, 0
4, 95278, Note_on_c, 0, 63, 0
4, 95280, Note_on_c, 0, 68, 75
4, 95280, Note_on_c, 0, 64, 75
4, 95280, Note_on_c, 0, 59, 64
4, 95280, Note_on_c, 0, 56, 64
4, 95520, Note_on_c, 0, 56, 0
4, 95520, Note_on_c, 0, 68, 0
4, 95520, Note_on_c, 0, 64, 0
4, 95520, Note_on_c, 0, 59, 0
4, 95520, Note_on_c, 0, 69, 78
4, 95520, Note_on_c, 0, 66, 78
4, 95520, Note_on_c, 0, 61, 66
4, 95520, Note_on_c, 0, 57, 66
4, 95758, Note_on_c, 0, 57, 0
4, 95758, Note_on_c, 0, 69, 0
4, 95758, Note_on_c, 0, 66, 0
4, 95758, Note_on_c, 0, 61, 0
4, 95760, Note_on_c, 0, 66, 75
4, 95760, Note_on_c, 0, 63, 75
4, 95760, Note_on_c, 0, 57, 64
4, 95760, Note_on_c, 0, 54, 64
4, 96000, Note_on_c, 0, 54, 0
4, 96000, Note_on_c, 0, 66, 0
4, 96000, Note_on_c, 0, 63, 0
4, 96000, Note_on_c, 0, 57, 0
4, 96000, Note_on_c, 0, 68, 77
4, 96000, Note_on_c, 0, 64, 77
4, 96000, Note_on_c, 0, 59, 66
4, 96000, Note_on_c, 0, 56, 66
4, 96231, Note_on_c, 0, 56, 0
4, 96231, Note_on_c, 0, 68, 0
4, 96231, Note_on_c, 0, 64, 0
4, 96231, Note_on_c, 0, 59, 0
4, 96240, Note_on_c, 0, 68, 75
4, 96240, Note_on_c, 0, 64, 75
4, 96240, Note_on_c, 0, 59, 64
4, 96240, Note_on_c, 0, 56, 64
4, 96480, Note_on_c, 0, 56, 0
4, 96480, Note_on_c, 0, 68, 0
4, 96480, Note_on_c, 0, 64, 0
4, 96480, Note_on_c, 0, 59, 0
4, 96480, Note_on_c, 0, 69, 77
4, 96480, Note_on_c, 0, 66, 77
4, 96480, Note_on_c, 0, 61, 66
4, 96480, Note_on_c, 0, 57, 66
4, 96718, Note_on_c, 0, 57, 0
4, 96718, Note_on_c, 0, 69, 0
4, 96718, Note_on_c, 0, 66, 0
4, 96718, Note_on_c, 0, 61, 0
4, 96720, Note_on_c, 0, 66, 75
4, 96720, Note_on_c, 0, 63, 75
4, 96720, Note_on_c, 0, 57, 64
4, 96720, Note_on_c, 0, 54, 64
4, 96960, Note_on_c, 0, 54, 0
4, 96960, Note_on_c, 0, 66, 0
4, 96960, Note_on_c, 0, 63, 0
4, 96960, Note_on_c, 0, 57, 0
4, 96960, Note_on_c, 0, 68, 78
4, 96960, Note_on_c, 0, 64, 78
4, 96960, Note_on_c, 0, 59, 66
4, 96960, Note_on_c, 0, 56, 66
4, 97198, Note_on_c, 0, 56, 0
4, 97198, Note_on_c, 0, 68, 0
4, 97198, Note_on_c, 0, 64, 0
4, 97198, Note_on_c, 0, 59, 0
4, 97200, Note_on_c, 0, 64, 75
4, 97200, Note_on_c, 0, 61, 75
4, 97200, Note_on_c, 0, 56, 64
4, 97200, Note_on_c, 0, 52, 64
4, 97440, Note_on_c, 0, 52, 0
4, 97440, Note_on_c, 0, 64, 0
4, 97440, Note_on_c, 0, 61, 0
4, 97440, Note_on_c, 0, 56, 0
4, 97440, Note_on_c, 0, 66, 76
4, 97440, Note_on_c, 0, 63, 76
4, 97440, Note_on_c, 0, 57, 66
4, 97440, Note_on_c, 0, 54, 66
4, 97678, Note_on_c, 0, 54, 0
4, 97678, Note_on_c, 0, 66, 0
4, 97678, Note_on_c, 0, 63, 0
4, 97678, Note_on_c, 0, 57, 0
4, 97680, Note_on_c, 0, 63, 75
4, 97680, Note_on_c, 0, 60, 75
4, 97680, Note_on_c, 0, 54, 64
4, 97680, Note_on_c, 0, 51, 64
4, 97920, Note_on_c, 0, 51, 0
4, 97920, Note_on_c, 0, 63, 0
4, 97920, Note_on_c, 0, 60, 0
4, 97920, Note_on_c, 0, 54, 0
4, 97920, Note_on_c, 0, 52, 65
4, 97920, Note_on_c, 0, 56, 65
4, 97920, Note_on_c, 0, 61, 76
4, 97920, Note_on_c, 0, 64, 76
4, 98148, Note_on_c, 0, 64, 0
4, 98148, Note_on_c, 0, 52, 0
4, 98148, Note_on_c, 0, 56, 0
4, 98148, Note_on_c, 0, 61, 0
4, 98160, Note_on_c, 0, 64, 76
4, 98160, Note_on_c, 0, 61, 76
4, 98160, Note_on_c, 0, 56, 65
4, 98160, Note_on_c, 0, 52, 65
4, 98400, Note_on_c, 0, 52, 0
4, 98400, Note_on_c, 0, 64, 0
4, 98400, Note_on_c, 0, 61, 0
4, 98400, Note_on_c, 0, 56, 0
4, 98400, Note_on_c, 0, 68, 80
4, 98400, Note_on_c, 0, 64, 80
4, 98400, Note_on_c, 0, 59, 67
4, 98400, Note_on_c, 0, 56, 67
4, 98640, Note_on_c, 0, 56, 0
4, 98640, Note_on_c, 0, 68, 0
4, 98640, Note_on_c, 0, 64, 0
4, 98640, Note_on_c, 0, 59, 0
4, 98640, Note_on_c, 0, 67, 79
4, 98640, Note_on_c, 0, 63, 79
4, 98640, Note_on_c, 0, 55, 67
4, 98640, Note_on_c, 0, 58, 67
4, 98880, Note_on_c, 0, 58, 0
4, 98880, Note_on_c, 0, 67, 0
4, 98880, Note_on_c, 0, 63, 0
4, 98880, Note_on_c, 0, 55, 0
4, 99120, Note_on_c, 0, 66, 76
4, 99120, Note_on_c, 0, 62, 76
4, 99120, Note_on_c, 0, 60, 65
4, 99120, Note_on_c, 0, 54, 65
4, 99360, Note_on_c, 0, 54, 0
4, 99360, Note_on_c, 0, 66, 0
4, 99360, Note_on_c, 0, 62, 0
4, 99360, Note_on_c, 0, 60, 0
4, 99600, Note_on_c, 0, 63, 76
4, 99600, Note_on_c, 0, 60, 76
4, 99600, Note_on_c, 0, 51, 65
4, 99600, Note_on_c, 0, 54, 65
4, 99840, Note_on_c, 0, 54, 0
4, 99840, Note_on_c, 0, 63, 0
4, 99840, Note_on_c, 0, 60, 0
4, 99840, Note_on_c, 0, 51, 0
4, 100080, Note_on_c, 0, 64, 76
4, 100080, Note_on_c, 0, 61, 76
4, 100080, Note_on_c, 0, 56, 65
4, 100080, Note_on_c, 0, 52, 65
4, 100320, Note_on_c, 0, 52, 0
4, 100320, Note_on_c, 0, 64, 0
4, 100320, Note_on_c, 0, 61, 0
4, 100320, Note_on_c, 0, 56, 0
4, 100320, Note_on_c, 0, 59, 67
4, 100320, Note_on_c, 0, 71, 80
4, 100320, Note_on_c, 0, 68, 80
4, 100320, Note_on_c, 0, 61, 67
4, 100560, Note_on_c, 0, 61, 0
4, 100560, Note_on_c, 0, 59, 0
4, 100560, Note_on_c, 0, 71, 0
4, 100560, Note_on_c, 0, 68, 0
4, 100560, Note_on_c, 0, 57, 65
4, 100560, Note_on_c, 0, 69, 76
4, 100560, Note_on_c, 0, 66, 76
4, 100560, Note_on_c, 0, 61, 65
4, 100798, Note_on_c, 0, 69, 0
4, 100798, Note_on_c, 0, 57, 0
4, 100800, Note_on_c, 0, 66, 0
4, 100800, Note_on_c, 0, 61, 0
4, 101040, Note_on_c, 0, 66, 76
4, 101040, Note_on_c, 0, 64, 76
4, 101040, Note_on_c, 0, 60, 65
4, 101040, Note_on_c, 0, 54, 65
4, 101280, Note_on_c, 0, 54, 0
4, 101280, Note_on_c, 0, 66, 0
4, 101280, Note_on_c, 0, 64, 0
4, 101280, Note_on_c, 0, 60, 0
4, 101520, Note_on_c, 0, 63, 76
4, 101520, Note_on_c, 0, 60, 76
4, 101520, Note_on_c, 0, 54, 65
4, 101520, Note_on_c, 0, 51, 65
4, 101760, Note_on_c, 0, 51, 0
4, 101760, Note_on_c, 0, 63, 0
4, 101760, Note_on_c, 0, 60, 0
4, 101760, Note_on_c, 0, 54, 0
4, 101760, Note_on_c, 0, 52, 65
4, 101760, Note_on_c, 0, 56, 65
4, 101760, Note_on_c, 0, 61, 77
4, 101760, Note_on_c, 0, 64, 77
4, 101988, Note_on_c, 0, 64, 0
4, 101988, Note_on_c, 0, 52, 0
4, 101988, Note_on_c, 0, 56, 0
4, 101988, Note_on_c, 0, 61, 0
4, 102000, Note_on_c, 0, 64, 65
4, 102000, Note_on_c, 0, 56, 54
4, 102000, Note_on_c, 0, 52, 54
4, 102240, Note_on_c, 0, 66, 67
4, 102240, Note_on_c, 0, 57, 67
4, 102240, Note_on_c, 0, 54, 55
4, 102250, Note_on_c, 0, 52, 0
4, 102250, Note_on_c, 0, 64, 0
4, 102250, Note_on_c, 0, 56, 0
4, 102478, Note_on_c, 0, 66, 0
4, 102478, Note_on_c, 0, 57, 0
4, 102478, Note_on_c, 0, 54, 0
4, 102480, Note_on_c, 0, 62, 61
4, 102480, Note_on_c, 0, 54, 52
4, 102480, Note_on_c, 0, 50, 52
4, 102720, Note_on_c, 0, 64, 62
4, 102720, Note_on_c, 0, 56, 52
4, 102720, Note_on_c, 0, 52, 52
4, 102730, Note_on_c, 0, 50, 0
4, 102730, Note_on_c, 0, 62, 0
4, 102730, Note_on_c, 0, 54, 0
4, 102958, Note_on_c, 0, 64, 0
4, 102958, Note_on_c, 0, 56, 0
4, 102958, Note_on_c, 0, 52, 0
4, 102960, Note_on_c, 0, 61, 51
4, 102960, Note_on_c, 0, 52, 43
4, 102960, Note_on_c, 0, 49, 43
4, 103200, Note_on_c, 0, 62, 46
4, 103200, Note_on_c, 0, 54, 39
4, 103200, Note_on_c, 0, 50, 39
4, 103210, Note_on_c, 0, 49, 0
4, 103210, Note_on_c, 0, 61, 0
4, 103210, Note_on_c, 0, 52, 0
4, 103438, Note_on_c, 0, 62, 0
4, 103438, Note_on_c, 0, 54, 0
4, 103438, Note_on_c, 0, 50, 0
4, 103440, Note_on_c, 0, 59, 40
4, 103440, Note_on_c, 0, 50, 33
4, 103440, Note_on_c, 0, 47, 33
4, 103680, Note_on_c, 0, 49, 31
4, 103680, Note_on_c, 0, 54, 31
4, 103680, Note_on_c, 0, 61, 38
4, 103690, Note_on_c, 0, 47, 0
4, 103690, Note_on_c, 0, 59, 0
4, 103690, Note_on_c, 0, 50, 0
4, 103908, Note_on_c, 0, 49, 0
4, 103908, Note_on_c, 0, 54, 0
4, 103908, Note_on_c, 0, 61, 0
4, 103920, Note_on_c, 0, 61, 31
4, 103920, Note_on_c, 0, 54, 26
4, 103920, Note_on_c, 0, 49, 26
4, 104160, Note_on_c, 0, 49, 0
4, 104160, Note_on_c, 0, 54, 0
4, 104160, Note_on_c, 0, 61, 0
4, 104160, Note_on_c, 0, 64, 31
4, 104160, Note_on_c, 0, 54, 26
4, 104160, Note_on_c, 0, 52, 26
4, 104400, Note_on_c, 0, 52, 0
4, 104400, Note_on_c, 0, 54, 0
4, 104400, Note_on_c, 0, 64, 0
4, 104400, Note_on_c, 0, 62, 31
4, 104400, Note_on_c, 0, 54, 26
4, 104400, Note_on_c, 0, 50, 26
4, 104640, Note_on_c, 0, 50, 0
4, 104640, Note_on_c, 0, 54, 0
4, 104640, Note_on_c, 0, 62, 0
4, 104640, Note_on_c, 0, 31, 48
4, 104640, Note_on_c, 0, 43, 57
4, 104880, Note_on_c, 0, 61, 34
4, 104880, Note_on_c, 0, 52, 28
4, 105120, Note_on_c, 0, 52, 0
4, 105120, Note_on_c, 0, 31, 0
4, 105120, Note_on_c, 0, 43, 0
4, 105120, Note_on_c, 0, 61, 0
4, 105120, Note_on_c, 0, 32, 49
4, 105120, Note_on_c, 0, 44, 58
4, 105360, Note_on_c, 0, 60, 36
4, 105360, Note_on_c, 0, 54, 30
4, 105360, Note_on_c, 0, 51, 30
4, 105600, Note_on_c, 0, 51, 0
4, 105600, Note_on_c, 0, 60, 0
4, 105600, Note_on_c, 0, 32, 0
4, 105600, Note_on_c, 0, 44, 0
4, 105600, Note_on_c, 0, 54, 0
4, 106080, Note_on_c, 0, 64, 39
4, 106080, Note_on_c, 0, 57, 34
4, 106080, Note_on_c, 0, 52, 34
4, 107520, Note_on_c, 0, 52, 0
4, 107520, Note_on_c, 0, 57, 0
4, 107520, Note_on_c, 0, 64, 0
4, 108000, Note_on_c, 0, 64, 37
4, 108000, Note_on_c, 0, 58, 31
4, 108000, Note_on_c, 0, 52, 31
4, 109440, Note_on_c, 0, 52, 0
4, 109440, Note_on_c, 0, 58, 0
4, 109440, Note_on_c, 0, 64, 0
4, 109920, Note_on_c, 0, 64, 34
4, 109920, Note_on_c, 0, 52, 29
4, 109920, Note_on_c, 0, 55, 29
4, 111360, Note_on_c, 0, 55, 0
4, 111360, Note_on_c, 0, 52, 0
4, 111360, Note_on_c, 0, 64, 0
4, 111840, Note_on_c, 0, 52, 28
4, 111840, Note_on_c, 0, 54, 28
4, 111840, Note_on_c, 0, 58, 28
4, 111840, Note_on_c, 0, 64, 33
4, 113280, Note_on_c, 0, 64, 0
4, 113280, Note_on_c, 0, 52, 0
4, 113280, Note_on_c, 0, 54, 0
4, 113280, Note_on_c, 0, 58, 0
4, 113760, Note_on_c, 0, 63, 31
4, 113760, Note_on_c, 0, 57, 26
4, 113760, Note_on_c, 0, 54, 26
4, 113760, Note_on_c, 0, 51, 26
4, 115200, Note_on_c, 0, 51, 0
4, 115200, Note_on_c, 0, 63, 0
4, 115200, Note_on_c, 0, 57, 0
4, 115200, Note_on_c, 0, 54, 0
4, 116160, Note_on_c, 0, 56, 24
4, 116160, Note_on_c, 0, 52, 19
4, 116160, Note_on_c, 0, 49, 19
4, 116160, Note_on_c, 0, 44, 19
4, 116873, Note_on_c, 0, 44, 0
4, 116873, Note_on_c, 0, 56, 0
4, 116873, Note_on_c, 0, 52, 0
4, 116873, Note_on_c, 0, 49, 0
4, 116880, Note_on_c, 0, 64, 18
4, 116880, Note_on_c, 0, 61, 16
4, 116880, Note_on_c, 0, 52, 16
4, 116880, Note_on_c, 0, 56, 16
4, 117118, Note_on_c, 0, 56, 0
4, 117118, Note_on_c, 0, 64, 0
4, 117118, Note_on_c, 0, 61, 0
4, 117118, Note_on_c, 0, 52, 0
4, 117120, Note_on_c, 0, 64, 14
4, 117120, Note_on_c, 0, 61, 12
4, 117120, Note_on_c, 0, 56, 12
4, 117120, Note_on_c, 0, 52, 12
4, 119040, Note_on_c, 0, 52, 0
4, 119040, Note_on_c, 0, 64, 0
4, 119040, Note_on_c, 0, 61, 0
4, 119040, Note_on_c, 0, 56, 0
4, 119040, End_track
5, 0, Start_track
5, 0, Title_t, "Piano left2"
5, 0, Program_c, 0, 0
5, 0, Control_c, 0, 7, 100
5, 0, Control_c, 0, 10, 64
5, 86400, Note_on_c, 0, 25, 58
5, 86400, Note_on_c, 0, 28, 58
5, 86400, Note_on_c, 0, 32, 78
5, 86400, Note_on_c, 0, 37, 78
5, 87360, Note_on_c, 0, 37, 0
5, 87360, Note_on_c, 0, 25, 0
5, 87360, Note_on_c, 0, 28, 0
5, 87360, Note_on_c, 0, 32, 0
5, 87360, Note_on_c, 0, 33, 67
5, 87360, Note_on_c, 0, 45, 80
5, 87840, Note_on_c, 0, 45, 0
5, 87840, Note_on_c, 0, 33, 0
5, 87840, Note_on_c, 0, 32, 67
5, 87840, Note_on_c, 0, 44, 80
5, 88320, Note_on_c, 0, 44, 0
5, 88320, Note_on_c, 0, 32, 0
5, 88320, Note_on_c, 0, 25, 56
5, 88320, Note_on_c, 0, 28, 56
5, 88320, Note_on_c, 0, 32, 76
5, 88320, Note_on_c, 0, 37, 76
5, 89280, Note_on_c, 0, 37, 0
5, 89280, Note_on_c, 0, 25, 0
5, 89280, Note_on_c, 0, 28, 0
5, 89280, Note_on_c, 0, 32, 0
5, 89280, Note_on_c, 0, 33, 68
5, 89280, Note_on_c, 0, 45, 82
5, 89760, Note_on_c, 0, 45, 0
5, 89760, Note_on_c, 0, 33, 0
5, 89760, Note_on_c, 0, 32, 67
5, 89760, Note_on_c, 0, 44, 80
5, 90240, Note_on_c, 0, 44, 0
5, 90240, Note_on_c, 0, 32, 0
5, 90240, Note_on_c, 0, 25, 66
5, 90240, Note_on_c, 0, 28, 66
5, 90240, Note_on_c, 0, 32, 77
5, 90240, Note_on_c, 0, 37, 77
5, 91200, Note_on_c, 0, 37, 0
5, 91200, Note_on_c, 0, 25, 0
5, 91200, Note_on_c, 0, 28, 0
5, 91200, Note_on_c, 0, 32, 0
5, 91200, Note_on_c, 0, 36, 67
5, 91200, Note_on_c, 0, 48, 80
5, 91680, Note_on_c, 0, 48, 0
5, 91680, Note_on_c, 0, 36, 0
5, 91680, Note_on_c, 0, 35, 66
5, 91680, Note_on_c, 0, 47, 79
5, 92160, Note_on_c, 0, 47, 0
5, 92160, Note_on_c, 0, 35, 0
5, 92160, Note_on_c, 0, 28, 65
5, 92160, Note_on_c, 0, 32, 65
5, 92160, Note_on_c, 0, 35, 76
5, 92160, Note_on_c, 0, 40, 76
5, 93120, Note_on_c, 0, 40, 0
5, 93120, Note_on_c, 0, 28, 0
5, 93120, Note_on_c, 0, 32, 0
5, 93120, Note_on_c, 0, 35, 0
5, 93120, Note_on_c, 0, 40, 67
5, 93120, Note_on_c, 0, 52, 80
5, 93600, Note_on_c, 0, 52, 0
5, 93600, Note_on_c, 0, 40, 0
5, 93600, Note_on_c, 0, 39, 67
5, 93600, Note_on_c, 0, 51, 80
5, 94080, Note_on_c, 0, 51, 0
5, 94080, Note_on_c, 0, 39, 0
5, 94080, Note_on_c, 0, 32, 65
5, 94080, Note_on_c, 0, 35, 65
5, 94080, Note_on_c, 0, 39, 75
5, 94080, Note_on_c, 0, 44, 75
5, 96240, Note_on_c, 0, 44, 0
5, 96240, Note_on_c, 0, 32, 0
5, 96240, Note_on_c, 0, 35, 0
5, 96240, Note_on_c, 0, 39, 0
5, 97800, Note_on_c, 0, 25, 68
5, 97800, Note_on_c, 0, 37, 94
5, 98880, Note_on_c, 0, 37, 0
5, 98880, Note_on_c, 0, 25, 0
5, 98880, Note_on_c, 0, 33, 68
5, 98880, Note_on_c, 0, 45, 81
5, 99360, Note_on_c, 0, 45, 0
5, 99360, Note_on_c, 0, 33, 0
5, 99360, Note_on_c, 0, 32, 67
5, 99360, Note_on_c, 0, 44, 79
5, 99840, Note_on_c, 0, 44, 0
5, 99840, Note_on_c, 0, 32, 0
5, 99840, Note_on_c, 0, 25, 66
5, 99840, Note_on_c, 0, 28, 66
5, 99840, Note_on_c, 0, 32, 77
5, 99840, Note_on_c, 0, 37, 77
5, 100800, Note_on_c, 0, 37, 0
5, 100800, Note_on_c, 0, 25, 0
5, 100800, Note_on_c, 0, 28, 0
5, 100800, Note_on_c, 0, 32, 0
5, 100800, Note_on_c, 0, 33, 67
5, 100800, Note_on_c, 0, 45, 79
5, 101280, Note_on_c, 0, 45, 0
5, 101280, Note_on_c, 0, 33, 0
5, 101280, Note_on_c, 0, 32, 66
5, 101280, Note_on_c, 0, 44, 78
5, 101640, Note_on_c, 0, 44, 0
5, 101640, Note_on_c, 0, 32, 0
5, 101640, Note_on_c, 0, 25, 63
5, 101640, Note_on_c, 0, 37, 82
5, 102960, Note_on_c, 0, 37, 0
5, 102960, Note_on_c, 0, 25, 0
5, 105600, Note_on_c, 0, 25, 38
5, 105600, Note_on_c, 0, 37, 45
5, 107520, Note_on_c, 0, 37, 0
5, 107520, Note_on_c, 0, 25, 0
5, 107520, Note_on_c, 0, 25, 35
5, 107520, Note_on_c, 0, 37, 43
5, 109440, Note_on_c, 0, 37, 0
5, 109440, Note_on_c, 0, 25, 0
5, 109440, Note_on_c, 0, 25, 33
5, 109440, Note_on_c, 0, 37, 40
5, 111360, Note_on_c, 0, 37, 0
5, 111360, Note_on_c, 0, 25, 0
5, 111360, Note_on_c, 0, 25, 30
5, 111360, Note_on_c, 0, 37, 37
5, 113280, Note_on_c, 0, 37, 0
5, 113280, Note_on_c, 0, 25, 0
5, 113280, Note_on_c, 0, 25, 28
5, 113280, Note_on_c, 0, 37, 34
5, 115200, Note_on_c, 0, 37, 0
5, 115200, Note_on_c, 0, 25, 0
5, 115200, Note_on_c, 0, 25, 27
5, 115200, Note_on_c, 0, 37, 32
5, 119040, Note_on_c, 0, 37, 0
5, 119040, Note_on_c, 0, 25, 0
5, 119040, End_track
6, 0, Start_track
6, 0, Title_t, "Pedal"
6, 2053, Control_c, 0, 64, 127
6, 4090, Control_c, 0, 64, 0
6, 4903, Control_c, 0, 64, 127
6, 5296, Control_c, 0, 64, 0
6, 5394, Control_c, 0, 64, 127
6, 5763, Control_c, 0, 64, 0
6, 6823, Control_c, 0, 64, 127
6, 7216, Control_c, 0, 64, 0
6, 7314, Control_c, 0, 64, 127
6, 7686, Control_c, 0, 64, 0
6, 8743, Control_c, 0, 64, 127
6, 9136, Control_c, 0, 64, 0
6, 9234, Control_c, 0, 64, 127
6, 9606, Control_c, 0, 64, 0
6, 10663, Control_c, 0, 64, 127
6, 11056, Control_c, 0, 64, 0
6, 11154, Control_c, 0, 64, 127
6, 11529, Control_c, 0, 64, 0
6, 16423, Control_c, 0, 64, 127
6, 16816, Control_c, 0, 64, 0
6, 16914, Control_c, 0, 64, 127
6, 17286, Control_c, 0, 64, 0
6, 18343, Control_c, 0, 64, 127
6, 18736, Control_c, 0, 64, 0
6, 18834, Control_c, 0, 64, 127
6, 19209, Control_c, 0, 64, 0
6, 22183, Control_c, 0, 64, 127
6, 22576, Control_c, 0, 64, 0
6, 22674, Control_c, 0, 64, 127
6, 23046, Control_c, 0, 64, 0
6, 24103, Control_c, 0, 64, 127
6, 24496, Control_c, 0, 64, 0
6, 24594, Control_c, 0, 64, 127
6, 24966, Control_c, 0, 64, 0
6, 26023, Control_c, 0, 64, 127
6, 26416, Control_c, 0, 64, 0
6, 26514, Control_c, 0, 64, 127
6, 26880, Control_c, 0, 64, 0
6, 26971, Control_c, 0, 64, 127
6, 27371, Control_c, 0, 64, 0
6, 27446, Control_c, 0, 64, 127
6, 27850, Control_c, 0, 64, 0
6, 27937, Control_c, 0, 64, 127
6, 28330, Control_c, 0, 64, 0
6, 28400, Control_c, 0, 64, 127
6, 28800, Control_c, 0, 64, 0
6, 28891, Control_c, 0, 64, 127
6, 29291, Control_c, 0, 64, 0
6, 29366, Control_c, 0, 64, 127
6, 29770, Control_c, 0, 64, 0
6, 29857, Control_c, 0, 64, 127
6, 30250, Control_c, 0, 64, 0
6, 30320, Control_c, 0, 64, 127
6, 30720, Control_c, 0, 64, 0
6, 30811, Control_c, 0, 64, 127
6, 31211, Control_c, 0, 64, 0
6, 31286, Control_c, 0, 64, 127
6, 31690, Control_c, 0, 64, 0
6, 31777, Control_c, 0, 64, 127
6, 32170, Control_c, 0, 64, 0
6, 32240, Control_c, 0, 64, 127
6, 32640, Control_c, 0, 64, 0
6, 32731, Control_c, 0, 64, 127
6, 33131, Control_c, 0, 64, 0
6, 33206, Control_c, 0, 64, 127
6, 33610, Control_c, 0, 64, 0
6, 33697, Control_c, 0, 64, 127
6, 34090, Control_c, 0, 64, 0
6, 34160, Control_c, 0, 64, 127
6, 34560, Control_c, 0, 64, 0
6, 34651, Control_c, 0, 64, 127
6, 35051, Control_c, 0, 64, 0
6, 35126, Control_c, 0, 64, 127
6, 35530, Control_c, 0, 64, 0
6, 35617, Control_c, 0, 64, 127
6, 36010, Control_c, 0, 64, 0
6, 36080, Control_c, 0, 64, 127
6, 36480, Control_c, 0, 64, 0
6, 36571, Control_c, 0, 64, 127
6, 36971, Control_c, 0, 64, 0
6, 37046, Control_c, 0, 64, 127
6, 37450, Control_c, 0, 64, 0
6, 37537, Control_c, 0, 64, 127
6, 37930, Control_c, 0, 64, 0
6, 38000, Control_c, 0, 64, 127
6, 38400, Control_c, 0, 64, 0
6, 38491, Control_c, 0, 64, 127
6, 38891, Control_c, 0, 64, 0
6, 38966, Control_c, 0, 64, 127
6, 39370, Control_c, 0, 64, 0
6, 39457, Control_c, 0, 64, 127
6, 39850, Control_c, 0, 64, 0
6, 39920, Control_c, 0, 64, 127
6, 40320, Control_c, 0, 64, 0
6, 40411, Control_c, 0, 64, 127
6, 40811, Control_c, 0, 64, 0
6, 40886, Control_c, 0, 64, 127
6, 41290, Control_c, 0, 64, 0
6, 41377, Control_c, 0, 64, 127
6, 41770, Control_c, 0, 64, 0
6, 41840, Control_c, 0, 64, 127
6, 42240, Control_c, 0, 64, 0
6, 42331, Control_c, 0, 64, 127
6, 42731, Control_c, 0, 64, 0
6, 42806, Control_c, 0, 64, 127
6, 43210, Control_c, 0, 64, 0
6, 43297, Control_c, 0, 64, 127
6, 43690, Control_c, 0, 64, 0
6, 43760, Control_c, 0, 64, 127
6, 44160, Control_c, 0, 64, 0
6, 44251, Control_c, 0, 64, 127
6, 44651, Control_c, 0, 64, 0
6, 44726, Control_c, 0, 64, 127
6, 45130, Control_c, 0, 64, 0
6, 45217, Control_c, 0, 64, 127
6, 45610, Control_c, 0, 64, 0
6, 45680, Control_c, 0, 64, 127
6, 46080, Control_c, 0, 64, 0
6, 46171, Control_c, 0, 64, 127
6, 46571, Control_c, 0, 64, 0
6, 46646, Control_c, 0, 64, 127
6, 47050, Control_c, 0, 64, 0
6, 47137, Control_c, 0, 64, 127
6, 47530, Control_c, 0, 64, 0
6, 47600, Control_c, 0, 64, 127
6, 48000, Control_c, 0, 64, 0
6, 48091, Control_c, 0, 64, 127
6, 48970, Control_c, 0, 64, 0
6, 49057, Control_c, 0, 64, 127
6, 49920, Control_c, 0, 64, 0
6, 50011, Control_c, 0, 64, 127
6, 50411, Control_c, 0, 64, 0
6, 50486, Control_c, 0, 64, 127
6, 50890, Control_c, 0, 64, 0
6, 50977, Control_c, 0, 64, 127
6, 51370, Control_c, 0, 64, 0
6, 51440, Control_c, 0, 64, 127
6, 51840, Control_c, 0, 64, 0
6, 51931, Control_c, 0, 64, 127
6, 52331, Control_c, 0, 64, 0
6, 52406, Control_c, 0, 64, 127
6, 52810, Control_c, 0, 64, 0
6, 52897, Control_c, 0, 64, 127
6, 53290, Control_c, 0, 64, 0
6, 53360, Control_c, 0, 64, 127
6, 53760, Control_c, 0, 64, 0
6, 53851, Control_c, 0, 64, 127
6, 54251, Control_c, 0, 64, 0
6, 54326, Control_c, 0, 64, 127
6, 54730, Control_c, 0, 64, 0
6, 54817, Control_c, 0, 64, 127
6, 55210, Control_c, 0, 64, 0
6, 55280, Control_c, 0, 64, 127
6, 55680, Control_c, 0, 64, 0
6, 55771, Control_c, 0, 64, 127
6, 56171, Control_c, 0, 64, 0
6, 56246, Control_c, 0, 64, 127
6, 56650, Control_c, 0, 64, 0
6, 56737, Control_c, 0, 64, 127
6, 57130, Control_c, 0, 64, 0
6, 57200, Control_c, 0, 64, 127
6, 57600, Control_c, 0, 64, 0
6, 57691, Control_c, 0, 64, 127
6, 58091, Control_c, 0, 64, 0
6, 58166, Control_c, 0, 64, 127
6, 58570, Control_c, 0, 64, 0
6, 58657, Control_c, 0, 64, 127
6, 59050, Control_c, 0, 64, 0
6, 59120, Control_c, 0, 64, 127
6, 59520, Control_c, 0, 64, 0
6, 59611, Control_c, 0, 64, 127
6, 60011, Control_c, 0, 64, 0
6, 60086, Control_c, 0, 64, 127
6, 60490, Control_c, 0, 64, 0
6, 60577, Control_c, 0, 64, 127
6, 60970, Control_c, 0, 64, 0
6, 61040, Control_c, 0, 64, 127
6, 61440, Control_c, 0, 64, 0
6, 61531, Control_c, 0, 64, 127
6, 61931, Control_c, 0, 64, 0
6, 62006, Control_c, 0, 64, 127
6, 62410, Control_c, 0, 64, 0
6, 62497, Control_c, 0, 64, 127
6, 62890, Control_c, 0, 64, 0
6, 62960, Control_c, 0, 64, 127
6, 63360, Control_c, 0, 64, 0
6, 63451, Control_c, 0, 64, 127
6, 63851, Control_c, 0, 64, 0
6, 63926, Control_c, 0, 64, 127
6, 64330, Control_c, 0, 64, 0
6, 64417, Control_c, 0, 64, 127
6, 64810, Control_c, 0, 64, 0
6, 64880, Control_c, 0, 64, 127
6, 65280, Control_c, 0, 64, 0
6, 65371, Control_c, 0, 64, 127
6, 65771, Control_c, 0, 64, 0
6, 65846, Control_c, 0, 64, 127
6, 66250, Control_c, 0, 64, 0
6, 66337, Control_c, 0, 64, 127
6, 66730, Control_c, 0, 64, 0
6, 66800, Control_c, 0, 64, 127
6, 67200, Control_c, 0, 64, 0
6, 67291, Control_c, 0, 64, 127
6, 67691, Control_c, 0, 64, 0
6, 67766, Control_c, 0, 64, 127
6, 68171, Control_c, 0, 64, 0
6, 68241, Control_c, 0, 64, 127
6, 68649, Control_c, 0, 64, 0
6, 68689, Control_c, 0, 64, 127
6, 69129, Control_c, 0, 64, 0
6, 69194, Control_c, 0, 64, 127
6, 69617, Control_c, 0, 64, 0
6, 69680, Control_c, 0, 64, 127
6, 70089, Control_c, 0, 64, 0
6, 70160, Control_c, 0, 64, 127
6, 70572, Control_c, 0, 64, 0
6, 70640, Control_c, 0, 64, 127
6, 71049, Control_c, 0, 64, 0
6, 71114, Control_c, 0, 64, 127
6, 71537, Control_c, 0, 64, 0
6, 71600, Control_c, 0, 64, 127
6, 72009, Control_c, 0, 64, 0
6, 72080, Control_c, 0, 64, 127
6, 72492, Control_c, 0, 64, 0
6, 72560, Control_c, 0, 64, 127
6, 72969, Control_c, 0, 64, 0
6, 73034, Control_c, 0, 64, 127
6, 73457, Control_c, 0, 64, 0
6, 73520, Control_c, 0, 64, 127
6, 73929, Control_c, 0, 64, 0
6, 74000, Control_c, 0, 64, 127
6, 74412, Control_c, 0, 64, 0
6, 74480, Control_c, 0, 64, 127
6, 74889, Control_c, 0, 64, 0
6, 74954, Control_c, 0, 64, 127
6, 75377, Control_c, 0, 64, 0
6, 75440, Control_c, 0, 64, 127
6, 75849, Control_c, 0, 64, 0
6, 75920, Control_c, 0, 64, 127
6, 76332, Control_c, 0, 64, 0
6, 76400, Control_c, 0, 64, 127
6, 76809, Control_c, 0, 64, 0
6, 76874, Control_c, 0, 64, 127
6, 77297, Control_c, 0, 64, 0
6, 77360, Control_c, 0, 64, 127
6, 77769, Control_c, 0, 64, 0
6, 77840, Control_c, 0, 64, 127
6, 78252, Control_c, 0, 64, 0
6, 78320, Control_c, 0, 64, 127
6, 78729, Control_c, 0, 64, 0
6, 78794, Control_c, 0, 64, 127
6, 79217, Control_c, 0, 64, 0
6, 79280, Control_c, 0, 64, 127
6, 79689, Control_c, 0, 64, 0
6, 79760, Control_c, 0, 64, 127
6, 80172, Control_c, 0, 64, 0
6, 80240, Control_c, 0, 64, 127
6, 80649, Control_c, 0, 64, 0
6, 80714, Control_c, 0, 64, 127
6, 81137, Control_c, 0, 64, 0
6, 81200, Control_c, 0, 64, 127
6, 81609, Control_c, 0, 64, 0
6, 81680, Control_c, 0, 64, 127
6, 82092, Control_c, 0, 64, 0
6, 82160, Control_c, 0, 64, 127
6, 82574, Control_c, 0, 64, 0
6, 82880, Control_c, 0, 64, 127
6, 84490, Control_c, 0, 64, 0
6, 84853, Control_c, 0, 64, 127
6, 86410, Control_c, 0, 64, 0
6, 86491, Control_c, 0, 64, 127
6, 87369, Control_c, 0, 64, 0
6, 87451, Control_c, 0, 64, 127
6, 87855, Control_c, 0, 64, 0
6, 88011, Control_c, 0, 64, 127
6, 88336, Control_c, 0, 64, 0
6, 88434, Control_c, 0, 64, 127
6, 89288, Control_c, 0, 64, 0
6, 89383, Control_c, 0, 64, 127
6, 89770, Control_c, 0, 64, 0
6, 89920, Control_c, 0, 64, 127
6, 90248, Control_c, 0, 64, 0
6, 90366, Control_c, 0, 64, 127
6, 91211, Control_c, 0, 64, 0
6, 91352, Control_c, 0, 64, 127
6, 91690, Control_c, 0, 64, 0
6, 91857, Control_c, 0, 64, 127
6, 92170, Control_c, 0, 64, 0
6, 92259, Control_c, 0, 64, 127
6, 93130, Control_c, 0, 64, 0
6, 93236, Control_c, 0, 64, 127
6, 93615, Control_c, 0, 64, 0
6, 93774, Control_c, 0, 64, 127
6, 94090, Control_c, 0, 64, 0
6, 94235, Control_c, 0, 64, 127
6, 96010, Control_c, 0, 64, 0
6, 96526, Control_c, 0, 64, 127
6, 96970, Control_c, 0, 64, 0
6, 97074, Control_c, 0, 64, 127
6, 97450, Control_c, 0, 64, 0
6, 97600, Control_c, 0, 64, 127
6, 97924, Control_c, 0, 64, 0
6, 97936, Control_c, 0, 64, 0
6, 98040, Control_c, 0, 64, 127
6, 98890, Control_c, 0, 64, 0
6, 98994, Control_c, 0, 64, 127
6, 99370, Control_c, 0, 64, 0
6, 99520, Control_c, 0, 64, 127
6, 99848, Control_c, 0, 64, 0
6, 99939, Control_c, 0, 64, 127
6, 100810, Control_c, 0, 64, 0
6, 100891, Control_c, 0, 64, 127
6, 101290, Control_c, 0, 64, 0
6, 101457, Control_c, 0, 64, 127
6, 101766, Control_c, 0, 64, 0
6, 101829, Control_c, 0, 64, 127
6, 102730, Control_c, 0, 64, 0
6, 102823, Control_c, 0, 64, 127
6, 103212, Control_c, 0, 64, 0
6, 103326, Control_c, 0, 64, 127
6, 103686, Control_c, 0, 64, 0
6, 104743, Control_c, 0, 64, 127
6, 105136, Control_c, 0, 64, 0
6, 105234, Control_c, 0, 64, 127
6, 105604, Control_c, 0, 64, 0
6, 105653, Control_c, 0, 64, 127
6, 107525, Control_c, 0, 64, 0
6, 107787, Control_c, 0, 64, 127
6, 109449, Control_c, 0, 64, 0
6, 109893, Control_c, 0, 64, 127
6, 111367, Control_c, 0, 64, 0
6, 111733, Control_c, 0, 64, 127
6, 113289, Control_c, 0, 64, 0
6, 113573, Control_c, 0, 64, 127
6, 115208, Control_c, 0, 64, 0
6, 115482, Control_c, 0, 64, 127
6, 120213, Control_c, 0, 64, 0
6, 120213, End_track
7, 0, Start_track
7, 0, Title_t, "Rachmaninow: Prelude Opus 3 No. 2"
7, 0, End_track
8, 0, Start_track
8, 0, Title_t, "Copyright © 2004 by Bernd Krüger"
8, 0, End_track
9, 0, Start_track
9, 0, Title_t, "http://www.piano-midi.de"
9, 0, End_track
10, 0, Start_track
10, 0, Title_t, "Edition: 2012-11-26"
10, 0, End_track
11, 0, Start_track
11, 0, Title_t, "Spur 10"
11, 0, End_track
0, 0, End_of_file
