0, 0, Header, 1, 7, 480
1, 0, Start_track
1, 0, Title_t, "Sechs Moments Musicaux Opus 94 D 780"
1, 0, Title_t, "Nr. 5 in f-moll"
1, 0, Copyright_t, "Copyright © 1996 von Bernd Krüger."
1, 0, Text_t, "Franz Schubert"
1, 0, Text_t, "Allegro vivace"
1, 0, Text_t, "Korrekturen am 6.9.98\012"
1, 0, Text_t, "Update am 15.5.99\012"
1, 0, Text_t, "Normierung: 23.12.2002\012"
1, 0, Text_t, "Update am 29.06.2007\012"
1, 0, Text_t, "Update am 16.3.2014\012"
1, 0, Text_t, "Dauer: 1:59 Minuten\012"
1, 0, Time_signature, 2, 2, 24, 8
1, 0, Key_signature, -4, "major"
1, 0, Tempo, 265498
1, 0, Marker_t, "Allegro vivace"
1, 480, Tempo, 267547
1, 960, Tempo, 265498
1, 1440, Tempo, 268240
1, 1920, Tempo, 265498
1, 2400, Tempo, 267547
1, 2880, Tempo, 265498
1, 3360, Tempo, 272480
1, 3840, Tempo, 265498
1, 4320, Tempo, 268240
1, 4800, Tempo, 265498
1, 5280, Tempo, 268240
1, 5760, Tempo, 265498
1, 6240, Tempo, 267547
1, 6720, Tempo, 265498
1, 7200, Tempo, 271764
1, 7680, Tempo, 265498
1, 8160, Tempo, 267547
1, 8640, Tempo, 265498
1, 9120, Tempo, 268240
1, 9600, Tempo, 265498
1, 10080, Tempo, 268240
1, 10560, Tempo, 265498
1, 11040, Tempo, 267547
1, 11520, Tempo, 265498
1, 12000, Tempo, 267547
1, 12480, Tempo, 265498
1, 12960, Tempo, 267547
1, 13440, Tempo, 280597
1, 13920, Tempo, 277598
1, 15360, Tempo, 280597
1, 15840, Tempo, 276116
1, 16800, Tempo, 278345
1, 17280, Tempo, 275381
1, 17760, Tempo, 279838
1, 18240, Tempo, 275381
1, 18720, Tempo, 284455
1, 19200, Tempo, 294146
1, 19680, Tempo, 302755
1, 20140, Tempo, 292497
1, 20160, Tempo, 265498
1, 20640, Tempo, 267547
1, 21120, Tempo, 265498
1, 21600, Tempo, 268240
1, 22080, Tempo, 265498
1, 22560, Tempo, 267547
1, 23040, Tempo, 265498
1, 23520, Tempo, 272480
1, 24000, Tempo, 265498
1, 24480, Tempo, 268240
1, 24960, Tempo, 265498
1, 25440, Tempo, 268240
1, 25920, Tempo, 265498
1, 26400, Tempo, 267547
1, 26880, Tempo, 265498
1, 27360, Tempo, 271764
1, 27840, Tempo, 265498
1, 28320, Tempo, 267547
1, 28800, Tempo, 265498
1, 29280, Tempo, 268240
1, 29760, Tempo, 265498
1, 30240, Tempo, 268240
1, 30720, Tempo, 265498
1, 31200, Tempo, 267547
1, 31680, Tempo, 265498
1, 32160, Tempo, 267547
1, 32640, Tempo, 265498
1, 33120, Tempo, 267547
1, 33600, Tempo, 280597
1, 34080, Tempo, 277598
1, 35520, Tempo, 280597
1, 36000, Tempo, 276116
1, 36960, Tempo, 278345
1, 37440, Tempo, 275381
1, 37920, Tempo, 279838
1, 38400, Tempo, 275381
1, 38880, Tempo, 284455
1, 39360, Tempo, 284455
1, 39460, Tempo, 285239
1, 39560, Tempo, 286028
1, 39660, Tempo, 286821
1, 39740, Tempo, 287618
1, 39840, Tempo, 288420
1, 39940, Tempo, 289226
1, 40020, Tempo, 290037
1, 40120, Tempo, 290853
1, 40320, Tempo, 265498
1, 40800, Tempo, 267547
1, 41280, Tempo, 265498
1, 41760, Tempo, 267547
1, 42240, Tempo, 265498
1, 42720, Tempo, 271052
1, 43200, Tempo, 268240
1, 43940, Tempo, 272480
1, 44160, Tempo, 265498
1, 44640, Tempo, 271764
1, 45120, Tempo, 267547
1, 45780, Tempo, 271052
1, 46080, Tempo, 265498
1, 46560, Tempo, 267547
1, 47040, Tempo, 265498
1, 47520, Tempo, 267547
1, 48000, Tempo, 265498
1, 48480, Tempo, 273199
1, 48960, Tempo, 268938
1, 49700, Tempo, 272480
1, 49920, Tempo, 265498
1, 50400, Tempo, 273923
1, 50880, Tempo, 268938
1, 51360, Tempo, 271052
1, 51840, Tempo, 265498
1, 55560, Tempo, 268938
1, 55680, Tempo, 265498
1, 57400, Tempo, 272480
1, 57600, Tempo, 265498
1, 63220, Tempo, 272480
1, 63360, Tempo, 265498
1, 65080, Tempo, 273923
1, 65280, Tempo, 265498
1, 66980, Tempo, 273199
1, 67200, Tempo, 265498
1, 70840, Tempo, 270343
1, 71040, Tempo, 265498
1, 74660, Tempo, 276116
1, 74880, Tempo, 265498
1, 75360, Tempo, 267547
1, 75840, Tempo, 265498
1, 76320, Tempo, 267547
1, 76800, Tempo, 265498
1, 77280, Tempo, 268240
1, 77520, Tempo, 295829
1, 77760, Tempo, 271764
1, 78240, Tempo, 282899
1, 78720, Tempo, 265498
1, 79200, Tempo, 267547
1, 79680, Tempo, 265498
1, 80160, Tempo, 267547
1, 80640, Tempo, 265498
1, 81120, Tempo, 268240
1, 81360, Tempo, 295829
1, 81600, Tempo, 271764
1, 82080, Tempo, 282899
1, 82560, Tempo, 265498
1, 83040, Tempo, 268240
1, 83280, Tempo, 303644
1, 83520, Tempo, 276855
1, 84000, Tempo, 287618
1, 84480, Tempo, 265498
1, 86400, Tempo, 265498
1, 90240, Tempo, 264819
1, 90440, Tempo, 265498
1, 90640, Tempo, 266182
1, 90820, Tempo, 266868
1, 91020, Tempo, 267547
1, 91200, Tempo, 268240
1, 91240, Tempo, 268938
1, 91260, Tempo, 269639
1, 91280, Tempo, 270343
1, 91300, Tempo, 271052
1, 91320, Tempo, 271764
1, 91340, Tempo, 272480
1, 91360, Tempo, 273199
1, 91380, Tempo, 273923
1, 91420, Tempo, 274650
1, 91440, Tempo, 275381
1, 91460, Tempo, 276116
1, 91480, Tempo, 276855
1, 91500, Tempo, 277598
1, 91520, Tempo, 278345
1, 91540, Tempo, 279096
1, 91560, Tempo, 279838
1, 91600, Tempo, 280597
1, 91620, Tempo, 281360
1, 91640, Tempo, 282127
1, 91660, Tempo, 282899
1, 91680, Tempo, 283675
1, 91700, Tempo, 284455
1, 91720, Tempo, 285239
1, 91740, Tempo, 286028
1, 91760, Tempo, 286821
1, 91800, Tempo, 287618
1, 91820, Tempo, 288420
1, 91840, Tempo, 289226
1, 91860, Tempo, 290037
1, 91880, Tempo, 290853
1, 91900, Tempo, 291673
1, 91920, Tempo, 292497
1, 91940, Tempo, 293312
1, 91980, Tempo, 294146
1, 92000, Tempo, 313758
1, 92160, Tempo, 265498
1, 92640, Tempo, 267547
1, 93120, Tempo, 265498
1, 93600, Tempo, 268240
1, 94080, Tempo, 265498
1, 94560, Tempo, 267547
1, 95040, Tempo, 265498
1, 95520, Tempo, 272480
1, 96000, Tempo, 265498
1, 96480, Tempo, 268240
1, 96960, Tempo, 265498
1, 97440, Tempo, 268240
1, 97920, Tempo, 265498
1, 98400, Tempo, 267547
1, 98880, Tempo, 265498
1, 99360, Tempo, 271764
1, 99840, Tempo, 265498
1, 100320, Tempo, 267547
1, 100800, Tempo, 265498
1, 101280, Tempo, 268240
1, 101760, Tempo, 265498
1, 102240, Tempo, 268240
1, 102720, Tempo, 265498
1, 103200, Tempo, 267547
1, 103680, Tempo, 265498
1, 104160, Tempo, 267547
1, 104640, Tempo, 265498
1, 105120, Tempo, 267547
1, 105600, Tempo, 280597
1, 106080, Tempo, 277598
1, 107520, Tempo, 280597
1, 108000, Tempo, 276116
1, 108960, Tempo, 278345
1, 109440, Tempo, 275381
1, 109920, Tempo, 279838
1, 110400, Tempo, 275381
1, 110880, Tempo, 284455
1, 111360, Tempo, 294146
1, 111840, Tempo, 302755
1, 112800, Tempo, 265498
1, 114240, Key_signature, -1, "major"
1, 114240, Tempo, 265498
1, 114720, Tempo, 267547
1, 115200, Tempo, 265498
1, 115680, Tempo, 267547
1, 116160, Tempo, 265498
1, 116640, Tempo, 271052
1, 117120, Tempo, 268240
1, 117860, Tempo, 272480
1, 118080, Tempo, 265498
1, 118560, Tempo, 267547
1, 119040, Tempo, 265498
1, 119520, Tempo, 267547
1, 120000, Tempo, 265498
1, 120480, Tempo, 271052
1, 120960, Tempo, 268240
1, 121700, Tempo, 272480
1, 121920, Tempo, 265498
1, 122400, Tempo, 279838
1, 122880, Tempo, 273923
1, 123620, Tempo, 272480
1, 123840, Tempo, 269639
1, 124320, Tempo, 296677
1, 124800, Tempo, 286821
1, 125540, Tempo, 272480
1, 126720, Key_signature, -4, "major"
1, 126720, Tempo, 265498
1, 127200, Tempo, 267547
1, 127680, Tempo, 265498
1, 128160, Tempo, 267547
1, 128640, Tempo, 265498
1, 129120, Tempo, 271052
1, 129600, Tempo, 268240
1, 130340, Tempo, 272480
1, 130560, Tempo, 265498
1, 131040, Tempo, 271764
1, 131520, Tempo, 267547
1, 132180, Tempo, 271052
1, 132480, Tempo, 265498
1, 132960, Tempo, 267547
1, 133440, Tempo, 265498
1, 133920, Tempo, 267547
1, 134400, Tempo, 265498
1, 134880, Tempo, 273199
1, 135360, Tempo, 268938
1, 136100, Tempo, 272480
1, 136320, Tempo, 265498
1, 136800, Tempo, 273923
1, 137280, Tempo, 268938
1, 137760, Tempo, 271052
1, 138240, Tempo, 265498
1, 141960, Tempo, 268938
1, 142080, Tempo, 265498
1, 143800, Tempo, 272480
1, 144000, Tempo, 265498
1, 149620, Tempo, 272480
1, 149760, Tempo, 265498
1, 151480, Tempo, 273923
1, 151680, Tempo, 265498
1, 153380, Tempo, 273199
1, 153600, Tempo, 265498
1, 157240, Tempo, 270343
1, 157440, Tempo, 265498
1, 161060, Tempo, 276116
1, 161280, Tempo, 265498
1, 161760, Tempo, 267547
1, 162240, Tempo, 265498
1, 162720, Tempo, 267547
1, 163200, Tempo, 265498
1, 163680, Tempo, 268240
1, 163920, Tempo, 295829
1, 164160, Tempo, 271764
1, 164640, Tempo, 282899
1, 165120, Tempo, 265498
1, 165600, Tempo, 267547
1, 166080, Tempo, 265498
1, 166560, Tempo, 267547
1, 167040, Tempo, 265498
1, 167520, Tempo, 268240
1, 167760, Tempo, 295829
1, 168000, Tempo, 271764
1, 168480, Tempo, 282899
1, 168960, Tempo, 265498
1, 169440, Tempo, 268240
1, 169680, Tempo, 303644
1, 169920, Tempo, 276855
1, 170400, Tempo, 287618
1, 170880, Tempo, 265498
1, 172800, Tempo, 265498
1, 176640, Tempo, 264819
1, 176840, Tempo, 265498
1, 177040, Tempo, 266182
1, 177220, Tempo, 266868
1, 177420, Tempo, 267547
1, 177600, Tempo, 268240
1, 177640, Tempo, 268938
1, 177660, Tempo, 269639
1, 177680, Tempo, 270343
1, 177700, Tempo, 271052
1, 177720, Tempo, 271764
1, 177740, Tempo, 272480
1, 177760, Tempo, 273199
1, 177780, Tempo, 273923
1, 177820, Tempo, 274650
1, 177840, Tempo, 275381
1, 177860, Tempo, 276116
1, 177880, Tempo, 276855
1, 177900, Tempo, 277598
1, 177920, Tempo, 278345
1, 177940, Tempo, 279096
1, 177960, Tempo, 279838
1, 178000, Tempo, 280597
1, 178020, Tempo, 281360
1, 178040, Tempo, 282127
1, 178060, Tempo, 282899
1, 178080, Tempo, 283675
1, 178100, Tempo, 284455
1, 178120, Tempo, 285239
1, 178140, Tempo, 286028
1, 178160, Tempo, 286821
1, 178200, Tempo, 287618
1, 178220, Tempo, 288420
1, 178240, Tempo, 289226
1, 178260, Tempo, 290037
1, 178280, Tempo, 290853
1, 178300, Tempo, 291673
1, 178320, Tempo, 292497
1, 178340, Tempo, 293312
1, 178380, Tempo, 294146
1, 178400, Tempo, 313758
1, 178560, Tempo, 265498
1, 179040, Tempo, 267547
1, 179520, Tempo, 265498
1, 180000, Tempo, 268240
1, 180480, Tempo, 265498
1, 180960, Tempo, 267547
1, 181440, Tempo, 265498
1, 181920, Tempo, 272480
1, 182400, Tempo, 265498
1, 182880, Tempo, 268240
1, 183360, Tempo, 265498
1, 183840, Tempo, 268240
1, 184320, Tempo, 265498
1, 184800, Tempo, 267547
1, 185280, Tempo, 265498
1, 185760, Tempo, 271764
1, 186240, Tempo, 265498
1, 186720, Tempo, 267547
1, 187200, Tempo, 265498
1, 187680, Tempo, 268240
1, 188160, Tempo, 265498
1, 188640, Tempo, 268240
1, 189120, Tempo, 265498
1, 189600, Tempo, 267547
1, 190080, Tempo, 265498
1, 190560, Tempo, 267547
1, 191040, Tempo, 265498
1, 191520, Tempo, 267547
1, 192000, Tempo, 280597
1, 192480, Tempo, 277598
1, 193920, Tempo, 280597
1, 194400, Tempo, 276116
1, 195360, Tempo, 278345
1, 195840, Tempo, 275381
1, 196320, Tempo, 279838
1, 196800, Tempo, 275381
1, 197280, Tempo, 284455
1, 197760, Tempo, 294146
1, 198240, Tempo, 302755
1, 199200, Tempo, 265498
1, 200640, Key_signature, -1, "major"
1, 200640, Tempo, 265498
1, 201120, Tempo, 267547
1, 201600, Tempo, 265498
1, 202080, Tempo, 267547
1, 202560, Tempo, 265498
1, 203040, Tempo, 271052
1, 203520, Tempo, 268240
1, 204260, Tempo, 272480
1, 204480, Tempo, 265498
1, 204960, Tempo, 267547
1, 205440, Tempo, 265498
1, 205920, Tempo, 267547
1, 206400, Tempo, 265498
1, 206880, Tempo, 271052
1, 207360, Tempo, 268240
1, 208100, Tempo, 272480
1, 208320, Tempo, 265498
1, 208800, Tempo, 288420
1, 209280, Tempo, 281360
1, 210020, Tempo, 272480
1, 210240, Tempo, 269639
1, 210720, Tempo, 323572
1, 211200, Tempo, 330506
1, 212160, Marker_t, "Fine"
1, 212168, Tempo, 319149
1, 212168, End_track
2, 0, Start_track
2, 0, Title_t, "Piano right"
2, 0, Program_c, 0, 0
2, 0, Control_c, 0, 7, 100
2, 0, Control_c, 0, 10, 64
2, 0, Note_on_c, 0, 68, 72
2, 0, Note_on_c, 0, 72, 72
2, 0, Note_on_c, 0, 80, 81
2, 0, Control_c, 0, 91, 127
2, 0, Text_t, "bdca426d104a26ac9dcb070447587523"
2, 480, Note_on_c, 0, 80, 0
2, 480, Note_on_c, 0, 72, 0
2, 480, Note_on_c, 0, 68, 0
2, 480, Note_on_c, 0, 79, 77
2, 480, Note_on_c, 0, 68, 69
2, 480, Note_on_c, 0, 72, 69
2, 600, Note_on_c, 0, 72, 0
2, 600, Note_on_c, 0, 68, 0
2, 600, Note_on_c, 0, 79, 0
2, 720, Note_on_c, 0, 77, 77
2, 720, Note_on_c, 0, 72, 69
2, 720, Note_on_c, 0, 68, 69
2, 840, Note_on_c, 0, 68, 0
2, 840, Note_on_c, 0, 72, 0
2, 840, Note_on_c, 0, 77, 0
2, 960, Note_on_c, 0, 68, 72
2, 960, Note_on_c, 0, 77, 81
2, 960, Note_on_c, 0, 72, 72
2, 1440, Note_on_c, 0, 72, 0
2, 1440, Note_on_c, 0, 77, 0
2, 1440, Note_on_c, 0, 68, 0
2, 1440, Note_on_c, 0, 68, 70
2, 1440, Note_on_c, 0, 72, 78
2, 1560, Note_on_c, 0, 72, 0
2, 1560, Note_on_c, 0, 68, 0
2, 1680, Note_on_c, 0, 72, 78
2, 1680, Note_on_c, 0, 68, 70
2, 1800, Note_on_c, 0, 68, 0
2, 1800, Note_on_c, 0, 72, 0
2, 1920, Note_on_c, 0, 77, 81
2, 1920, Note_on_c, 0, 73, 72
2, 1920, Note_on_c, 0, 70, 72
2, 2400, Note_on_c, 0, 70, 0
2, 2400, Note_on_c, 0, 73, 0
2, 2400, Note_on_c, 0, 77, 0
2, 2400, Note_on_c, 0, 73, 77
2, 2400, Note_on_c, 0, 70, 69
2, 2520, Note_on_c, 0, 70, 0
2, 2520, Note_on_c, 0, 73, 0
2, 2640, Note_on_c, 0, 70, 68
2, 2640, Note_on_c, 0, 73, 76
2, 2760, Note_on_c, 0, 73, 0
2, 2760, Note_on_c, 0, 70, 0
2, 2880, Note_on_c, 0, 77, 81
2, 2880, Note_on_c, 0, 68, 72
2, 2880, Note_on_c, 0, 72, 72
2, 3350, Note_on_c, 0, 72, 0
2, 3350, Note_on_c, 0, 68, 0
2, 3350, Note_on_c, 0, 77, 0
2, 3360, Note_on_c, 0, 68, 49
2, 3360, Note_on_c, 0, 72, 55
2, 3480, Note_on_c, 0, 72, 0
2, 3480, Note_on_c, 0, 68, 0
2, 3600, Note_on_c, 0, 68, 49
2, 3600, Note_on_c, 0, 72, 55
2, 3720, Note_on_c, 0, 72, 0
2, 3720, Note_on_c, 0, 68, 0
2, 3840, Note_on_c, 0, 72, 48
2, 3840, Note_on_c, 0, 68, 43
2, 4320, Note_on_c, 0, 68, 0
2, 4320, Note_on_c, 0, 72, 0
2, 4320, Note_on_c, 0, 67, 43
2, 4320, Note_on_c, 0, 68, 43
2, 4320, Note_on_c, 0, 72, 48
2, 4440, Note_on_c, 0, 72, 0
2, 4440, Note_on_c, 0, 68, 0
2, 4440, Note_on_c, 0, 67, 0
2, 4560, Note_on_c, 0, 68, 40
2, 4560, Note_on_c, 0, 65, 40
2, 4560, Note_on_c, 0, 72, 45
2, 4680, Note_on_c, 0, 72, 0
2, 4680, Note_on_c, 0, 65, 0
2, 4680, Note_on_c, 0, 68, 0
2, 4800, Note_on_c, 0, 65, 40
2, 4800, Note_on_c, 0, 72, 45
2, 4800, Note_on_c, 0, 68, 40
2, 5280, Note_on_c, 0, 68, 0
2, 5280, Note_on_c, 0, 72, 0
2, 5280, Note_on_c, 0, 65, 0
2, 5280, Note_on_c, 0, 68, 43
2, 5280, Note_on_c, 0, 60, 43
2, 5280, Note_on_c, 0, 72, 48
2, 5400, Note_on_c, 0, 72, 0
2, 5400, Note_on_c, 0, 60, 0
2, 5400, Note_on_c, 0, 68, 0
2, 5520, Note_on_c, 0, 60, 40
2, 5520, Note_on_c, 0, 72, 45
2, 5520, Note_on_c, 0, 68, 40
2, 5640, Note_on_c, 0, 68, 0
2, 5640, Note_on_c, 0, 72, 0
2, 5640, Note_on_c, 0, 60, 0
2, 5760, Note_on_c, 0, 73, 45
2, 5760, Note_on_c, 0, 70, 40
2, 5760, Note_on_c, 0, 65, 40
2, 6240, Note_on_c, 0, 65, 0
2, 6240, Note_on_c, 0, 70, 0
2, 6240, Note_on_c, 0, 73, 0
2, 6240, Note_on_c, 0, 73, 48
2, 6240, Note_on_c, 0, 61, 43
2, 6240, Note_on_c, 0, 70, 43
2, 6360, Note_on_c, 0, 70, 0
2, 6360, Note_on_c, 0, 61, 0
2, 6360, Note_on_c, 0, 73, 0
2, 6480, Note_on_c, 0, 61, 40
2, 6480, Note_on_c, 0, 70, 40
2, 6480, Note_on_c, 0, 73, 45
2, 6600, Note_on_c, 0, 73, 0
2, 6600, Note_on_c, 0, 70, 0
2, 6600, Note_on_c, 0, 61, 0
2, 6720, Note_on_c, 0, 68, 40
2, 6720, Note_on_c, 0, 65, 40
2, 6720, Note_on_c, 0, 72, 45
2, 7200, Note_on_c, 0, 72, 0
2, 7200, Note_on_c, 0, 65, 0
2, 7200, Note_on_c, 0, 68, 0
2, 7200, Note_on_c, 0, 60, 40
2, 7200, Note_on_c, 0, 72, 45
2, 7200, Note_on_c, 0, 68, 40
2, 7320, Note_on_c, 0, 68, 0
2, 7320, Note_on_c, 0, 72, 0
2, 7320, Note_on_c, 0, 60, 0
2, 7440, Note_on_c, 0, 60, 40
2, 7440, Note_on_c, 0, 68, 40
2, 7440, Note_on_c, 0, 72, 45
2, 7560, Note_on_c, 0, 72, 0
2, 7560, Note_on_c, 0, 68, 0
2, 7560, Note_on_c, 0, 60, 0
2, 7680, Note_on_c, 0, 65, 70
2, 7680, Note_on_c, 0, 71, 78
2, 7680, Note_on_c, 0, 68, 70
2, 8160, Note_on_c, 0, 68, 0
2, 8160, Note_on_c, 0, 71, 0
2, 8160, Note_on_c, 0, 65, 0
2, 8160, Note_on_c, 0, 71, 74
2, 8160, Note_on_c, 0, 68, 66
2, 8160, Note_on_c, 0, 62, 66
2, 8280, Note_on_c, 0, 62, 0
2, 8280, Note_on_c, 0, 68, 0
2, 8280, Note_on_c, 0, 71, 0
2, 8400, Note_on_c, 0, 68, 66
2, 8400, Note_on_c, 0, 71, 74
2, 8400, Note_on_c, 0, 62, 66
2, 8520, Note_on_c, 0, 62, 0
2, 8520, Note_on_c, 0, 71, 0
2, 8520, Note_on_c, 0, 68, 0
2, 8640, Note_on_c, 0, 63, 75
2, 8640, Note_on_c, 0, 72, 84
2, 8640, Note_on_c, 0, 67, 75
2, 9120, Note_on_c, 0, 67, 0
2, 9120, Note_on_c, 0, 72, 0
2, 9120, Note_on_c, 0, 63, 0
2, 9120, Note_on_c, 0, 60, 70
2, 9120, Note_on_c, 0, 67, 70
2, 9120, Note_on_c, 0, 72, 78
2, 9240, Note_on_c, 0, 72, 0
2, 9240, Note_on_c, 0, 67, 0
2, 9240, Note_on_c, 0, 60, 0
2, 9360, Note_on_c, 0, 72, 78
2, 9360, Note_on_c, 0, 67, 70
2, 9360, Note_on_c, 0, 60, 70
2, 9480, Note_on_c, 0, 60, 0
2, 9480, Note_on_c, 0, 67, 0
2, 9480, Note_on_c, 0, 72, 0
2, 9600, Note_on_c, 0, 62, 74
2, 9600, Note_on_c, 0, 74, 83
2, 9600, Note_on_c, 0, 67, 74
2, 10080, Note_on_c, 0, 67, 0
2, 10080, Note_on_c, 0, 74, 0
2, 10080, Note_on_c, 0, 62, 0
2, 10080, Note_on_c, 0, 62, 70
2, 10080, Note_on_c, 0, 71, 78
2, 10080, Note_on_c, 0, 67, 70
2, 10200, Note_on_c, 0, 67, 0
2, 10200, Note_on_c, 0, 71, 0
2, 10200, Note_on_c, 0, 62, 0
2, 10320, Note_on_c, 0, 71, 78
2, 10320, Note_on_c, 0, 67, 70
2, 10320, Note_on_c, 0, 62, 70
2, 10440, Note_on_c, 0, 62, 0
2, 10440, Note_on_c, 0, 67, 0
2, 10440, Note_on_c, 0, 71, 0
2, 10560, Note_on_c, 0, 67, 74
2, 10560, Note_on_c, 0, 63, 74
2, 10560, Note_on_c, 0, 75, 83
2, 11040, Note_on_c, 0, 75, 0
2, 11040, Note_on_c, 0, 63, 0
2, 11040, Note_on_c, 0, 67, 0
2, 11040, Note_on_c, 0, 63, 72
2, 11040, Note_on_c, 0, 72, 81
2, 11040, Note_on_c, 0, 67, 72
2, 11160, Note_on_c, 0, 67, 0
2, 11160, Note_on_c, 0, 72, 0
2, 11160, Note_on_c, 0, 63, 0
2, 11280, Note_on_c, 0, 63, 72
2, 11280, Note_on_c, 0, 67, 72
2, 11280, Note_on_c, 0, 72, 81
2, 11400, Note_on_c, 0, 72, 0
2, 11400, Note_on_c, 0, 67, 0
2, 11400, Note_on_c, 0, 63, 0
2, 11520, Note_on_c, 0, 67, 81
2, 11520, Note_on_c, 0, 77, 90
2, 12000, Note_on_c, 0, 77, 0
2, 12000, Note_on_c, 0, 67, 0
2, 12000, Note_on_c, 0, 79, 87
2, 12000, Note_on_c, 0, 67, 78
2, 12120, Note_on_c, 0, 67, 0
2, 12120, Note_on_c, 0, 79, 0
2, 12240, Note_on_c, 0, 79, 87
2, 12240, Note_on_c, 0, 67, 78
2, 12360, Note_on_c, 0, 67, 0
2, 12360, Note_on_c, 0, 79, 0
2, 12480, Note_on_c, 0, 67, 82
2, 12480, Note_on_c, 0, 78, 92
2, 12960, Note_on_c, 0, 78, 0
2, 12960, Note_on_c, 0, 67, 0
2, 12960, Note_on_c, 0, 79, 90
2, 12960, Note_on_c, 0, 67, 81
2, 13080, Note_on_c, 0, 67, 0
2, 13080, Note_on_c, 0, 79, 0
2, 13200, Note_on_c, 0, 67, 81
2, 13200, Note_on_c, 0, 79, 90
2, 13320, Note_on_c, 0, 79, 0
2, 13320, Note_on_c, 0, 67, 0
2, 13440, Note_on_c, 0, 79, 97
2, 13440, Note_on_c, 0, 67, 87
2, 13910, Note_on_c, 0, 67, 0
2, 13910, Note_on_c, 0, 79, 0
2, 13920, Note_on_c, 0, 80, 97
2, 13920, Note_on_c, 0, 68, 87
2, 13920, Note_on_c, 0, 77, 87
2, 14160, Note_on_c, 0, 77, 0
2, 14160, Note_on_c, 0, 68, 0
2, 14160, Note_on_c, 0, 80, 0
2, 14400, Note_on_c, 0, 80, 97
2, 14400, Note_on_c, 0, 77, 87
2, 14400, Note_on_c, 0, 68, 87
2, 14640, Note_on_c, 0, 68, 0
2, 14640, Note_on_c, 0, 77, 0
2, 14640, Note_on_c, 0, 80, 0
2, 14880, Note_on_c, 0, 68, 87
2, 14880, Note_on_c, 0, 77, 87
2, 14880, Note_on_c, 0, 80, 97
2, 15120, Note_on_c, 0, 80, 0
2, 15120, Note_on_c, 0, 77, 0
2, 15120, Note_on_c, 0, 68, 0
2, 15360, Note_on_c, 0, 80, 97
2, 15360, Note_on_c, 0, 77, 87
2, 15360, Note_on_c, 0, 68, 87
2, 15600, Note_on_c, 0, 68, 0
2, 15600, Note_on_c, 0, 77, 0
2, 15600, Note_on_c, 0, 80, 0
2, 15840, Note_on_c, 0, 73, 87
2, 15840, Note_on_c, 0, 85, 97
2, 15840, Note_on_c, 0, 80, 87
2, 16080, Note_on_c, 0, 80, 0
2, 16080, Note_on_c, 0, 85, 0
2, 16080, Note_on_c, 0, 73, 0
2, 16320, Note_on_c, 0, 85, 90
2, 16320, Note_on_c, 0, 80, 81
2, 16320, Note_on_c, 0, 73, 81
2, 16800, Note_on_c, 0, 73, 0
2, 16800, Note_on_c, 0, 80, 0
2, 16800, Note_on_c, 0, 85, 0
2, 16800, Note_on_c, 0, 80, 85
2, 16800, Note_on_c, 0, 85, 95
2, 16800, Note_on_c, 0, 73, 85
2, 16920, Note_on_c, 0, 73, 0
2, 16920, Note_on_c, 0, 85, 0
2, 16920, Note_on_c, 0, 80, 0
2, 17040, Note_on_c, 0, 85, 97
2, 17040, Note_on_c, 0, 73, 87
2, 17040, Note_on_c, 0, 80, 87
2, 17160, Note_on_c, 0, 80, 0
2, 17160, Note_on_c, 0, 73, 0
2, 17160, Note_on_c, 0, 85, 0
2, 17280, Note_on_c, 0, 87, 99
2, 17280, Note_on_c, 0, 84, 89
2, 17280, Note_on_c, 0, 75, 89
2, 17760, Note_on_c, 0, 75, 0
2, 17760, Note_on_c, 0, 84, 0
2, 17760, Note_on_c, 0, 87, 0
2, 17760, Note_on_c, 0, 75, 84
2, 17760, Note_on_c, 0, 87, 94
2, 17760, Note_on_c, 0, 84, 84
2, 17880, Note_on_c, 0, 84, 0
2, 17880, Note_on_c, 0, 87, 0
2, 17880, Note_on_c, 0, 75, 0
2, 18000, Note_on_c, 0, 87, 91
2, 18000, Note_on_c, 0, 84, 81
2, 18000, Note_on_c, 0, 75, 81
2, 18120, Note_on_c, 0, 75, 0
2, 18120, Note_on_c, 0, 84, 0
2, 18120, Note_on_c, 0, 87, 0
2, 18240, Note_on_c, 0, 73, 80
2, 18240, Note_on_c, 0, 85, 89
2, 18480, Note_on_c, 0, 85, 0
2, 18480, Note_on_c, 0, 73, 0
2, 18720, Note_on_c, 0, 83, 92
2, 18720, Note_on_c, 0, 80, 82
2, 18720, Note_on_c, 0, 71, 82
2, 18720, Note_on_c, 0, 77, 82
2, 18960, Note_on_c, 0, 77, 0
2, 18960, Note_on_c, 0, 83, 0
2, 18960, Note_on_c, 0, 80, 0
2, 18960, Note_on_c, 0, 71, 0
2, 19200, Note_on_c, 0, 84, 92
2, 19200, Note_on_c, 0, 80, 82
2, 19200, Note_on_c, 0, 77, 82
2, 19200, Note_on_c, 0, 72, 82
2, 19440, Note_on_c, 0, 72, 0
2, 19440, Note_on_c, 0, 84, 0
2, 19440, Note_on_c, 0, 80, 0
2, 19440, Note_on_c, 0, 77, 0
2, 19680, Note_on_c, 0, 79, 82
2, 19680, Note_on_c, 0, 72, 82
2, 19680, Note_on_c, 0, 76, 82
2, 19680, Note_on_c, 0, 84, 92
2, 19920, Note_on_c, 0, 84, 0
2, 19920, Note_on_c, 0, 79, 0
2, 19920, Note_on_c, 0, 72, 0
2, 19920, Note_on_c, 0, 76, 0
2, 20160, Note_on_c, 0, 72, 66
2, 20160, Note_on_c, 0, 68, 66
2, 20160, Note_on_c, 0, 80, 74
2, 20640, Note_on_c, 0, 80, 0
2, 20640, Note_on_c, 0, 68, 0
2, 20640, Note_on_c, 0, 72, 0
2, 20640, Note_on_c, 0, 79, 71
2, 20640, Note_on_c, 0, 72, 63
2, 20640, Note_on_c, 0, 68, 63
2, 20760, Note_on_c, 0, 68, 0
2, 20760, Note_on_c, 0, 72, 0
2, 20760, Note_on_c, 0, 79, 0
2, 20880, Note_on_c, 0, 77, 70
2, 20880, Note_on_c, 0, 72, 63
2, 20880, Note_on_c, 0, 68, 63
2, 21000, Note_on_c, 0, 68, 0
2, 21000, Note_on_c, 0, 72, 0
2, 21000, Note_on_c, 0, 77, 0
2, 21120, Note_on_c, 0, 77, 74
2, 21120, Note_on_c, 0, 72, 66
2, 21120, Note_on_c, 0, 68, 66
2, 21600, Note_on_c, 0, 68, 0
2, 21600, Note_on_c, 0, 72, 0
2, 21600, Note_on_c, 0, 77, 0
2, 21600, Note_on_c, 0, 68, 64
2, 21600, Note_on_c, 0, 72, 72
2, 21720, Note_on_c, 0, 72, 0
2, 21720, Note_on_c, 0, 68, 0
2, 21840, Note_on_c, 0, 68, 64
2, 21840, Note_on_c, 0, 72, 72
2, 21960, Note_on_c, 0, 72, 0
2, 21960, Note_on_c, 0, 68, 0
2, 22080, Note_on_c, 0, 77, 75
2, 22080, Note_on_c, 0, 73, 67
2, 22080, Note_on_c, 0, 70, 67
2, 22560, Note_on_c, 0, 70, 0
2, 22560, Note_on_c, 0, 73, 0
2, 22560, Note_on_c, 0, 77, 0
2, 22560, Note_on_c, 0, 70, 64
2, 22560, Note_on_c, 0, 73, 72
2, 22680, Note_on_c, 0, 73, 0
2, 22680, Note_on_c, 0, 70, 0
2, 22800, Note_on_c, 0, 70, 64
2, 22800, Note_on_c, 0, 73, 72
2, 22920, Note_on_c, 0, 73, 0
2, 22920, Note_on_c, 0, 70, 0
2, 23040, Note_on_c, 0, 77, 76
2, 23040, Note_on_c, 0, 72, 68
2, 23040, Note_on_c, 0, 68, 68
2, 23510, Note_on_c, 0, 68, 0
2, 23510, Note_on_c, 0, 72, 0
2, 23510, Note_on_c, 0, 77, 0
2, 23520, Note_on_c, 0, 68, 48
2, 23520, Note_on_c, 0, 72, 54
2, 23640, Note_on_c, 0, 72, 0
2, 23640, Note_on_c, 0, 68, 0
2, 23760, Note_on_c, 0, 68, 48
2, 23760, Note_on_c, 0, 72, 54
2, 23880, Note_on_c, 0, 72, 0
2, 23880, Note_on_c, 0, 68, 0
2, 24000, Note_on_c, 0, 68, 43
2, 24000, Note_on_c, 0, 72, 48
2, 24480, Note_on_c, 0, 72, 0
2, 24480, Note_on_c, 0, 68, 0
2, 24480, Note_on_c, 0, 67, 43
2, 24480, Note_on_c, 0, 68, 43
2, 24480, Note_on_c, 0, 72, 48
2, 24600, Note_on_c, 0, 72, 0
2, 24600, Note_on_c, 0, 68, 0
2, 24600, Note_on_c, 0, 67, 0
2, 24720, Note_on_c, 0, 65, 40
2, 24720, Note_on_c, 0, 68, 40
2, 24720, Note_on_c, 0, 72, 45
2, 24840, Note_on_c, 0, 72, 0
2, 24840, Note_on_c, 0, 68, 0
2, 24840, Note_on_c, 0, 65, 0
2, 24960, Note_on_c, 0, 65, 40
2, 24960, Note_on_c, 0, 68, 40
2, 24960, Note_on_c, 0, 72, 45
2, 25440, Note_on_c, 0, 72, 0
2, 25440, Note_on_c, 0, 68, 0
2, 25440, Note_on_c, 0, 65, 0
2, 25440, Note_on_c, 0, 60, 43
2, 25440, Note_on_c, 0, 68, 43
2, 25440, Note_on_c, 0, 72, 48
2, 25560, Note_on_c, 0, 72, 0
2, 25560, Note_on_c, 0, 68, 0
2, 25560, Note_on_c, 0, 60, 0
2, 25680, Note_on_c, 0, 60, 40
2, 25680, Note_on_c, 0, 68, 40
2, 25680, Note_on_c, 0, 72, 45
2, 25800, Note_on_c, 0, 72, 0
2, 25800, Note_on_c, 0, 68, 0
2, 25800, Note_on_c, 0, 60, 0
2, 25920, Note_on_c, 0, 73, 45
2, 25920, Note_on_c, 0, 70, 40
2, 25920, Note_on_c, 0, 65, 40
2, 26400, Note_on_c, 0, 65, 0
2, 26400, Note_on_c, 0, 70, 0
2, 26400, Note_on_c, 0, 73, 0
2, 26400, Note_on_c, 0, 61, 43
2, 26400, Note_on_c, 0, 70, 43
2, 26400, Note_on_c, 0, 73, 48
2, 26520, Note_on_c, 0, 73, 0
2, 26520, Note_on_c, 0, 70, 0
2, 26520, Note_on_c, 0, 61, 0
2, 26640, Note_on_c, 0, 61, 40
2, 26640, Note_on_c, 0, 70, 40
2, 26640, Note_on_c, 0, 73, 45
2, 26760, Note_on_c, 0, 73, 0
2, 26760, Note_on_c, 0, 70, 0
2, 26760, Note_on_c, 0, 61, 0
2, 26880, Note_on_c, 0, 65, 40
2, 26880, Note_on_c, 0, 68, 40
2, 26880, Note_on_c, 0, 72, 45
2, 27360, Note_on_c, 0, 72, 0
2, 27360, Note_on_c, 0, 68, 0
2, 27360, Note_on_c, 0, 65, 0
2, 27360, Note_on_c, 0, 60, 40
2, 27360, Note_on_c, 0, 68, 40
2, 27360, Note_on_c, 0, 72, 45
2, 27480, Note_on_c, 0, 72, 0
2, 27480, Note_on_c, 0, 68, 0
2, 27480, Note_on_c, 0, 60, 0
2, 27600, Note_on_c, 0, 60, 40
2, 27600, Note_on_c, 0, 68, 40
2, 27600, Note_on_c, 0, 72, 45
2, 27720, Note_on_c, 0, 72, 0
2, 27720, Note_on_c, 0, 68, 0
2, 27720, Note_on_c, 0, 60, 0
2, 27840, Note_on_c, 0, 71, 78
2, 27840, Note_on_c, 0, 68, 70
2, 27840, Note_on_c, 0, 65, 70
2, 28320, Note_on_c, 0, 65, 0
2, 28320, Note_on_c, 0, 68, 0
2, 28320, Note_on_c, 0, 71, 0
2, 28320, Note_on_c, 0, 71, 74
2, 28320, Note_on_c, 0, 68, 66
2, 28320, Note_on_c, 0, 62, 66
2, 28440, Note_on_c, 0, 62, 0
2, 28440, Note_on_c, 0, 68, 0
2, 28440, Note_on_c, 0, 71, 0
2, 28560, Note_on_c, 0, 71, 74
2, 28560, Note_on_c, 0, 68, 66
2, 28560, Note_on_c, 0, 62, 66
2, 28680, Note_on_c, 0, 62, 0
2, 28680, Note_on_c, 0, 68, 0
2, 28680, Note_on_c, 0, 71, 0
2, 28800, Note_on_c, 0, 63, 75
2, 28800, Note_on_c, 0, 67, 75
2, 28800, Note_on_c, 0, 72, 84
2, 29280, Note_on_c, 0, 72, 0
2, 29280, Note_on_c, 0, 67, 0
2, 29280, Note_on_c, 0, 63, 0
2, 29280, Note_on_c, 0, 60, 70
2, 29280, Note_on_c, 0, 67, 70
2, 29280, Note_on_c, 0, 72, 78
2, 29400, Note_on_c, 0, 72, 0
2, 29400, Note_on_c, 0, 67, 0
2, 29400, Note_on_c, 0, 60, 0
2, 29520, Note_on_c, 0, 60, 70
2, 29520, Note_on_c, 0, 67, 70
2, 29520, Note_on_c, 0, 72, 78
2, 29640, Note_on_c, 0, 72, 0
2, 29640, Note_on_c, 0, 67, 0
2, 29640, Note_on_c, 0, 60, 0
2, 29760, Note_on_c, 0, 62, 74
2, 29760, Note_on_c, 0, 74, 83
2, 29760, Note_on_c, 0, 67, 74
2, 30240, Note_on_c, 0, 67, 0
2, 30240, Note_on_c, 0, 74, 0
2, 30240, Note_on_c, 0, 62, 0
2, 30240, Note_on_c, 0, 71, 78
2, 30240, Note_on_c, 0, 67, 70
2, 30240, Note_on_c, 0, 62, 70
2, 30360, Note_on_c, 0, 62, 0
2, 30360, Note_on_c, 0, 67, 0
2, 30360, Note_on_c, 0, 71, 0
2, 30480, Note_on_c, 0, 71, 78
2, 30480, Note_on_c, 0, 67, 70
2, 30480, Note_on_c, 0, 62, 70
2, 30600, Note_on_c, 0, 62, 0
2, 30600, Note_on_c, 0, 67, 0
2, 30600, Note_on_c, 0, 71, 0
2, 30720, Note_on_c, 0, 63, 74
2, 30720, Note_on_c, 0, 67, 74
2, 30720, Note_on_c, 0, 75, 83
2, 31200, Note_on_c, 0, 75, 0
2, 31200, Note_on_c, 0, 67, 0
2, 31200, Note_on_c, 0, 63, 0
2, 31200, Note_on_c, 0, 63, 72
2, 31200, Note_on_c, 0, 67, 72
2, 31200, Note_on_c, 0, 72, 81
2, 31320, Note_on_c, 0, 72, 0
2, 31320, Note_on_c, 0, 67, 0
2, 31320, Note_on_c, 0, 63, 0
2, 31440, Note_on_c, 0, 63, 72
2, 31440, Note_on_c, 0, 67, 72
2, 31440, Note_on_c, 0, 72, 81
2, 31560, Note_on_c, 0, 72, 0
2, 31560, Note_on_c, 0, 67, 0
2, 31560, Note_on_c, 0, 63, 0
2, 31680, Note_on_c, 0, 77, 90
2, 31680, Note_on_c, 0, 67, 81
2, 32160, Note_on_c, 0, 67, 0
2, 32160, Note_on_c, 0, 77, 0
2, 32160, Note_on_c, 0, 79, 87
2, 32160, Note_on_c, 0, 67, 78
2, 32280, Note_on_c, 0, 67, 0
2, 32280, Note_on_c, 0, 79, 0
2, 32400, Note_on_c, 0, 79, 87
2, 32400, Note_on_c, 0, 67, 78
2, 32520, Note_on_c, 0, 67, 0
2, 32520, Note_on_c, 0, 79, 0
2, 32640, Note_on_c, 0, 78, 92
2, 32640, Note_on_c, 0, 67, 82
2, 33120, Note_on_c, 0, 67, 0
2, 33120, Note_on_c, 0, 78, 0
2, 33120, Note_on_c, 0, 79, 90
2, 33120, Note_on_c, 0, 67, 81
2, 33240, Note_on_c, 0, 67, 0
2, 33240, Note_on_c, 0, 79, 0
2, 33360, Note_on_c, 0, 79, 90
2, 33360, Note_on_c, 0, 67, 81
2, 33480, Note_on_c, 0, 67, 0
2, 33480, Note_on_c, 0, 79, 0
2, 33600, Note_on_c, 0, 79, 97
2, 33600, Note_on_c, 0, 67, 87
2, 34070, Note_on_c, 0, 67, 0
2, 34070, Note_on_c, 0, 79, 0
2, 34080, Note_on_c, 0, 80, 97
2, 34080, Note_on_c, 0, 77, 87
2, 34080, Note_on_c, 0, 68, 87
2, 34320, Note_on_c, 0, 68, 0
2, 34320, Note_on_c, 0, 77, 0
2, 34320, Note_on_c, 0, 80, 0
2, 34560, Note_on_c, 0, 80, 97
2, 34560, Note_on_c, 0, 77, 87
2, 34560, Note_on_c, 0, 68, 87
2, 34800, Note_on_c, 0, 68, 0
2, 34800, Note_on_c, 0, 77, 0
2, 34800, Note_on_c, 0, 80, 0
2, 35040, Note_on_c, 0, 80, 97
2, 35040, Note_on_c, 0, 77, 87
2, 35040, Note_on_c, 0, 68, 87
2, 35280, Note_on_c, 0, 68, 0
2, 35280, Note_on_c, 0, 77, 0
2, 35280, Note_on_c, 0, 80, 0
2, 35520, Note_on_c, 0, 80, 97
2, 35520, Note_on_c, 0, 77, 87
2, 35520, Note_on_c, 0, 68, 87
2, 35760, Note_on_c, 0, 68, 0
2, 35760, Note_on_c, 0, 77, 0
2, 35760, Note_on_c, 0, 80, 0
2, 36000, Note_on_c, 0, 85, 97
2, 36000, Note_on_c, 0, 80, 87
2, 36000, Note_on_c, 0, 73, 87
2, 36240, Note_on_c, 0, 73, 0
2, 36240, Note_on_c, 0, 80, 0
2, 36240, Note_on_c, 0, 85, 0
2, 36480, Note_on_c, 0, 85, 90
2, 36480, Note_on_c, 0, 80, 81
2, 36480, Note_on_c, 0, 73, 81
2, 36960, Note_on_c, 0, 73, 0
2, 36960, Note_on_c, 0, 80, 0
2, 36960, Note_on_c, 0, 85, 0
2, 36960, Note_on_c, 0, 85, 95
2, 36960, Note_on_c, 0, 80, 85
2, 36960, Note_on_c, 0, 73, 85
2, 37080, Note_on_c, 0, 73, 0
2, 37080, Note_on_c, 0, 80, 0
2, 37080, Note_on_c, 0, 85, 0
2, 37200, Note_on_c, 0, 85, 97
2, 37200, Note_on_c, 0, 80, 87
2, 37200, Note_on_c, 0, 73, 87
2, 37320, Note_on_c, 0, 73, 0
2, 37320, Note_on_c, 0, 80, 0
2, 37320, Note_on_c, 0, 85, 0
2, 37440, Note_on_c, 0, 87, 99
2, 37440, Note_on_c, 0, 84, 89
2, 37440, Note_on_c, 0, 75, 89
2, 37920, Note_on_c, 0, 75, 0
2, 37920, Note_on_c, 0, 84, 0
2, 37920, Note_on_c, 0, 87, 0
2, 37920, Note_on_c, 0, 87, 94
2, 37920, Note_on_c, 0, 84, 84
2, 37920, Note_on_c, 0, 75, 84
2, 38040, Note_on_c, 0, 75, 0
2, 38040, Note_on_c, 0, 84, 0
2, 38040, Note_on_c, 0, 87, 0
2, 38160, Note_on_c, 0, 87, 91
2, 38160, Note_on_c, 0, 84, 81
2, 38160, Note_on_c, 0, 75, 81
2, 38280, Note_on_c, 0, 75, 0
2, 38280, Note_on_c, 0, 84, 0
2, 38280, Note_on_c, 0, 87, 0
2, 38400, Note_on_c, 0, 85, 89
2, 38400, Note_on_c, 0, 73, 80
2, 38640, Note_on_c, 0, 73, 0
2, 38640, Note_on_c, 0, 85, 0
2, 38880, Note_on_c, 0, 83, 92
2, 38880, Note_on_c, 0, 80, 82
2, 38880, Note_on_c, 0, 77, 82
2, 38880, Note_on_c, 0, 71, 82
2, 39120, Note_on_c, 0, 71, 0
2, 39120, Note_on_c, 0, 83, 0
2, 39120, Note_on_c, 0, 80, 0
2, 39120, Note_on_c, 0, 77, 0
2, 39360, Note_on_c, 0, 84, 92
2, 39360, Note_on_c, 0, 80, 82
2, 39360, Note_on_c, 0, 77, 82
2, 39360, Note_on_c, 0, 72, 82
2, 39600, Note_on_c, 0, 72, 0
2, 39600, Note_on_c, 0, 84, 0
2, 39600, Note_on_c, 0, 80, 0
2, 39600, Note_on_c, 0, 77, 0
2, 39840, Note_on_c, 0, 84, 92
2, 39840, Note_on_c, 0, 79, 82
2, 39840, Note_on_c, 0, 76, 82
2, 39840, Note_on_c, 0, 72, 82
2, 40080, Note_on_c, 0, 72, 0
2, 40080, Note_on_c, 0, 84, 0
2, 40080, Note_on_c, 0, 79, 0
2, 40080, Note_on_c, 0, 76, 0
2, 40320, Note_on_c, 0, 70, 43
2, 40320, Note_on_c, 0, 72, 48
2, 40800, Note_on_c, 0, 72, 0
2, 40800, Note_on_c, 0, 70, 0
2, 40800, Note_on_c, 0, 67, 40
2, 40800, Note_on_c, 0, 72, 45
2, 40920, Note_on_c, 0, 72, 0
2, 40920, Note_on_c, 0, 67, 0
2, 41040, Note_on_c, 0, 67, 40
2, 41040, Note_on_c, 0, 72, 45
2, 41160, Note_on_c, 0, 72, 0
2, 41160, Note_on_c, 0, 67, 0
2, 41280, Note_on_c, 0, 68, 43
2, 41280, Note_on_c, 0, 72, 48
2, 41760, Note_on_c, 0, 72, 0
2, 41760, Note_on_c, 0, 68, 0
2, 41760, Note_on_c, 0, 65, 40
2, 41760, Note_on_c, 0, 72, 45
2, 41880, Note_on_c, 0, 72, 0
2, 41880, Note_on_c, 0, 65, 0
2, 42000, Note_on_c, 0, 65, 40
2, 42000, Note_on_c, 0, 72, 45
2, 42120, Note_on_c, 0, 72, 0
2, 42120, Note_on_c, 0, 65, 0
2, 42240, Note_on_c, 0, 66, 43
2, 42240, Note_on_c, 0, 68, 48
2, 42720, Note_on_c, 0, 68, 0
2, 42720, Note_on_c, 0, 66, 0
2, 42720, Note_on_c, 0, 60, 40
2, 42720, Note_on_c, 0, 68, 45
2, 42840, Note_on_c, 0, 68, 0
2, 42840, Note_on_c, 0, 60, 0
2, 42960, Note_on_c, 0, 60, 40
2, 42960, Note_on_c, 0, 68, 45
2, 43080, Note_on_c, 0, 68, 0
2, 43080, Note_on_c, 0, 60, 0
2, 43200, Note_on_c, 0, 65, 80
2, 43200, Note_on_c, 0, 68, 80
2, 43200, Note_on_c, 0, 77, 89
2, 43320, Note_on_c, 0, 77, 0
2, 43320, Note_on_c, 0, 68, 0
2, 43320, Note_on_c, 0, 65, 0
2, 43672, Note_on_c, 0, 65, 80
2, 43672, Note_on_c, 0, 68, 80
2, 43672, Note_on_c, 0, 73, 89
2, 43792, Note_on_c, 0, 73, 0
2, 43792, Note_on_c, 0, 68, 0
2, 43792, Note_on_c, 0, 65, 0
2, 44160, Note_on_c, 0, 66, 43
2, 44160, Note_on_c, 0, 68, 48
2, 44640, Note_on_c, 0, 68, 0
2, 44640, Note_on_c, 0, 66, 0
2, 44640, Note_on_c, 0, 60, 40
2, 44640, Note_on_c, 0, 68, 45
2, 44760, Note_on_c, 0, 68, 0
2, 44760, Note_on_c, 0, 60, 0
2, 44880, Note_on_c, 0, 60, 40
2, 44880, Note_on_c, 0, 68, 45
2, 45000, Note_on_c, 0, 68, 0
2, 45000, Note_on_c, 0, 60, 0
2, 45120, Note_on_c, 0, 65, 80
2, 45120, Note_on_c, 0, 68, 80
2, 45120, Note_on_c, 0, 77, 89
2, 45239, Note_on_c, 0, 77, 0
2, 45239, Note_on_c, 0, 68, 0
2, 45239, Note_on_c, 0, 65, 0
2, 45592, Note_on_c, 0, 65, 80
2, 45592, Note_on_c, 0, 68, 80
2, 45592, Note_on_c, 0, 73, 89
2, 45711, Note_on_c, 0, 73, 0
2, 45711, Note_on_c, 0, 68, 0
2, 45711, Note_on_c, 0, 65, 0
2, 46080, Note_on_c, 0, 75, 43
2, 46080, Note_on_c, 0, 77, 48
2, 46560, Note_on_c, 0, 77, 0
2, 46560, Note_on_c, 0, 75, 0
2, 46560, Note_on_c, 0, 72, 40
2, 46560, Note_on_c, 0, 77, 45
2, 46680, Note_on_c, 0, 77, 0
2, 46680, Note_on_c, 0, 72, 0
2, 46800, Note_on_c, 0, 72, 40
2, 46800, Note_on_c, 0, 77, 45
2, 46920, Note_on_c, 0, 77, 0
2, 46920, Note_on_c, 0, 72, 0
2, 47040, Note_on_c, 0, 73, 43
2, 47040, Note_on_c, 0, 77, 48
2, 47520, Note_on_c, 0, 77, 0
2, 47520, Note_on_c, 0, 73, 0
2, 47520, Note_on_c, 0, 70, 40
2, 47520, Note_on_c, 0, 77, 45
2, 47640, Note_on_c, 0, 77, 0
2, 47640, Note_on_c, 0, 70, 0
2, 47760, Note_on_c, 0, 70, 40
2, 47760, Note_on_c, 0, 77, 45
2, 47880, Note_on_c, 0, 77, 0
2, 47880, Note_on_c, 0, 70, 0
2, 48000, Note_on_c, 0, 71, 43
2, 48000, Note_on_c, 0, 73, 48
2, 48480, Note_on_c, 0, 73, 0
2, 48480, Note_on_c, 0, 71, 0
2, 48480, Note_on_c, 0, 65, 40
2, 48480, Note_on_c, 0, 73, 45
2, 48600, Note_on_c, 0, 73, 0
2, 48600, Note_on_c, 0, 65, 0
2, 48720, Note_on_c, 0, 65, 40
2, 48720, Note_on_c, 0, 73, 45
2, 48840, Note_on_c, 0, 73, 0
2, 48840, Note_on_c, 0, 65, 0
2, 48960, Note_on_c, 0, 70, 85
2, 48960, Note_on_c, 0, 73, 85
2, 48960, Note_on_c, 0, 82, 95
2, 49079, Note_on_c, 0, 82, 0
2, 49079, Note_on_c, 0, 73, 0
2, 49079, Note_on_c, 0, 70, 0
2, 49432, Note_on_c, 0, 70, 84
2, 49432, Note_on_c, 0, 73, 84
2, 49432, Note_on_c, 0, 78, 94
2, 49551, Note_on_c, 0, 78, 0
2, 49551, Note_on_c, 0, 73, 0
2, 49551, Note_on_c, 0, 70, 0
2, 49920, Note_on_c, 0, 71, 43
2, 49920, Note_on_c, 0, 73, 48
2, 50400, Note_on_c, 0, 73, 0
2, 50400, Note_on_c, 0, 71, 0
2, 50400, Note_on_c, 0, 65, 40
2, 50400, Note_on_c, 0, 73, 45
2, 50520, Note_on_c, 0, 73, 0
2, 50520, Note_on_c, 0, 65, 0
2, 50640, Note_on_c, 0, 65, 40
2, 50640, Note_on_c, 0, 73, 45
2, 50760, Note_on_c, 0, 73, 0
2, 50760, Note_on_c, 0, 65, 0
2, 50880, Note_on_c, 0, 70, 85
2, 50880, Note_on_c, 0, 73, 85
2, 50880, Note_on_c, 0, 82, 95
2, 50999, Note_on_c, 0, 82, 0
2, 50999, Note_on_c, 0, 73, 0
2, 50999, Note_on_c, 0, 70, 0
2, 51352, Note_on_c, 0, 70, 85
2, 51352, Note_on_c, 0, 73, 85
2, 51352, Note_on_c, 0, 78, 95
2, 51471, Note_on_c, 0, 78, 0
2, 51471, Note_on_c, 0, 73, 0
2, 51471, Note_on_c, 0, 70, 0
2, 51840, Note_on_c, 0, 82, 46
2, 51960, Note_on_c, 0, 82, 0
2, 52080, Note_on_c, 0, 70, 40
2, 52200, Note_on_c, 0, 70, 0
2, 52320, Note_on_c, 0, 78, 40
2, 52320, Note_on_c, 0, 73, 36
2, 52440, Note_on_c, 0, 73, 0
2, 52440, Note_on_c, 0, 78, 0
2, 52560, Note_on_c, 0, 70, 40
2, 52680, Note_on_c, 0, 70, 0
2, 52800, Note_on_c, 0, 78, 44
2, 52920, Note_on_c, 0, 78, 0
2, 53040, Note_on_c, 0, 66, 39
2, 53160, Note_on_c, 0, 66, 0
2, 53280, Note_on_c, 0, 71, 34
2, 53280, Note_on_c, 0, 74, 38
2, 53400, Note_on_c, 0, 74, 0
2, 53400, Note_on_c, 0, 71, 0
2, 53520, Note_on_c, 0, 66, 38
2, 53640, Note_on_c, 0, 66, 0
2, 53760, Note_on_c, 0, 76, 41
2, 53880, Note_on_c, 0, 76, 0
2, 54000, Note_on_c, 0, 67, 36
2, 54120, Note_on_c, 0, 67, 0
2, 54240, Note_on_c, 0, 70, 32
2, 54240, Note_on_c, 0, 73, 36
2, 54360, Note_on_c, 0, 73, 0
2, 54360, Note_on_c, 0, 70, 0
2, 54480, Note_on_c, 0, 67, 36
2, 54600, Note_on_c, 0, 67, 0
2, 54720, Note_on_c, 0, 73, 38
2, 54720, Note_on_c, 0, 71, 34
2, 54840, Note_on_c, 0, 71, 0
2, 54840, Note_on_c, 0, 73, 0
2, 54960, Note_on_c, 0, 66, 32
2, 55080, Note_on_c, 0, 66, 0
2, 55200, Note_on_c, 0, 71, 28
2, 55200, Note_on_c, 0, 74, 32
2, 55320, Note_on_c, 0, 74, 0
2, 55320, Note_on_c, 0, 71, 0
2, 55440, Note_on_c, 0, 66, 32
2, 55560, Note_on_c, 0, 66, 0
2, 55680, Note_on_c, 0, 79, 40
2, 55800, Note_on_c, 0, 79, 0
2, 55920, Note_on_c, 0, 70, 36
2, 56040, Note_on_c, 0, 70, 0
2, 56160, Note_on_c, 0, 73, 32
2, 56160, Note_on_c, 0, 76, 36
2, 56280, Note_on_c, 0, 76, 0
2, 56280, Note_on_c, 0, 73, 0
2, 56400, Note_on_c, 0, 70, 36
2, 56520, Note_on_c, 0, 70, 0
2, 56640, Note_on_c, 0, 73, 35
2, 56640, Note_on_c, 0, 78, 39
2, 56760, Note_on_c, 0, 78, 0
2, 56760, Note_on_c, 0, 73, 0
2, 56880, Note_on_c, 0, 70, 32
2, 57000, Note_on_c, 0, 70, 0
2, 57120, Note_on_c, 0, 74, 28
2, 57120, Note_on_c, 0, 78, 32
2, 57240, Note_on_c, 0, 78, 0
2, 57240, Note_on_c, 0, 74, 0
2, 57360, Note_on_c, 0, 71, 32
2, 57480, Note_on_c, 0, 71, 0
2, 57600, Note_on_c, 0, 83, 46
2, 57720, Note_on_c, 0, 83, 0
2, 57840, Note_on_c, 0, 71, 40
2, 57960, Note_on_c, 0, 71, 0
2, 58080, Note_on_c, 0, 74, 36
2, 58080, Note_on_c, 0, 79, 40
2, 58200, Note_on_c, 0, 79, 0
2, 58200, Note_on_c, 0, 74, 0
2, 58320, Note_on_c, 0, 71, 40
2, 58440, Note_on_c, 0, 71, 0
2, 58560, Note_on_c, 0, 79, 44
2, 58680, Note_on_c, 0, 79, 0
2, 58800, Note_on_c, 0, 67, 33
2, 58920, Note_on_c, 0, 67, 0
2, 59040, Note_on_c, 0, 72, 34
2, 59040, Note_on_c, 0, 75, 38
2, 59160, Note_on_c, 0, 75, 0
2, 59160, Note_on_c, 0, 72, 0
2, 59280, Note_on_c, 0, 67, 38
2, 59400, Note_on_c, 0, 67, 0
2, 59520, Note_on_c, 0, 77, 41
2, 59640, Note_on_c, 0, 77, 0
2, 59760, Note_on_c, 0, 68, 37
2, 59880, Note_on_c, 0, 68, 0
2, 60000, Note_on_c, 0, 71, 33
2, 60000, Note_on_c, 0, 74, 37
2, 60120, Note_on_c, 0, 74, 0
2, 60120, Note_on_c, 0, 71, 0
2, 60240, Note_on_c, 0, 68, 37
2, 60360, Note_on_c, 0, 68, 0
2, 60480, Note_on_c, 0, 74, 40
2, 60480, Note_on_c, 0, 72, 36
2, 60600, Note_on_c, 0, 72, 0
2, 60600, Note_on_c, 0, 74, 0
2, 60720, Note_on_c, 0, 67, 33
2, 60840, Note_on_c, 0, 67, 0
2, 60960, Note_on_c, 0, 72, 29
2, 60960, Note_on_c, 0, 75, 33
2, 61080, Note_on_c, 0, 75, 0
2, 61080, Note_on_c, 0, 72, 0
2, 61200, Note_on_c, 0, 67, 33
2, 61320, Note_on_c, 0, 67, 0
2, 61440, Note_on_c, 0, 80, 44
2, 61560, Note_on_c, 0, 80, 0
2, 61680, Note_on_c, 0, 71, 37
2, 61800, Note_on_c, 0, 71, 0
2, 61920, Note_on_c, 0, 74, 33
2, 61920, Note_on_c, 0, 77, 37
2, 62040, Note_on_c, 0, 77, 0
2, 62040, Note_on_c, 0, 74, 0
2, 62160, Note_on_c, 0, 71, 35
2, 62280, Note_on_c, 0, 71, 0
2, 62400, Note_on_c, 0, 74, 36
2, 62400, Note_on_c, 0, 79, 40
2, 62520, Note_on_c, 0, 79, 0
2, 62520, Note_on_c, 0, 74, 0
2, 62640, Note_on_c, 0, 71, 36
2, 62760, Note_on_c, 0, 71, 0
2, 62880, Note_on_c, 0, 75, 32
2, 62880, Note_on_c, 0, 79, 36
2, 63000, Note_on_c, 0, 79, 0
2, 63000, Note_on_c, 0, 75, 0
2, 63120, Note_on_c, 0, 72, 36
2, 63240, Note_on_c, 0, 72, 0
2, 63360, Note_on_c, 0, 70, 45
2, 63480, Note_on_c, 0, 70, 0
2, 63600, Note_on_c, 0, 75, 41
2, 63720, Note_on_c, 0, 75, 0
2, 63840, Note_on_c, 0, 74, 41
2, 63960, Note_on_c, 0, 74, 0
2, 64080, Note_on_c, 0, 75, 41
2, 64200, Note_on_c, 0, 75, 0
2, 64320, Note_on_c, 0, 75, 48
2, 64440, Note_on_c, 0, 75, 0
2, 64560, Note_on_c, 0, 80, 45
2, 64680, Note_on_c, 0, 80, 0
2, 64800, Note_on_c, 0, 79, 45
2, 64920, Note_on_c, 0, 79, 0
2, 65040, Note_on_c, 0, 80, 45
2, 65160, Note_on_c, 0, 80, 0
2, 65280, Note_on_c, 0, 87, 54
2, 65400, Note_on_c, 0, 87, 0
2, 65520, Note_on_c, 0, 75, 45
2, 65640, Note_on_c, 0, 75, 0
2, 65760, Note_on_c, 0, 79, 45
2, 65880, Note_on_c, 0, 79, 0
2, 66000, Note_on_c, 0, 75, 45
2, 66120, Note_on_c, 0, 75, 0
2, 66240, Note_on_c, 0, 75, 50
2, 66360, Note_on_c, 0, 75, 0
2, 66480, Note_on_c, 0, 80, 41
2, 66600, Note_on_c, 0, 80, 0
2, 66720, Note_on_c, 0, 79, 41
2, 66840, Note_on_c, 0, 79, 0
2, 66960, Note_on_c, 0, 80, 41
2, 67080, Note_on_c, 0, 80, 0
2, 67200, Note_on_c, 0, 78, 48
2, 67320, Note_on_c, 0, 78, 0
2, 67440, Note_on_c, 0, 66, 42
2, 67560, Note_on_c, 0, 66, 0
2, 67680, Note_on_c, 0, 70, 42
2, 67800, Note_on_c, 0, 70, 0
2, 67920, Note_on_c, 0, 66, 42
2, 68040, Note_on_c, 0, 66, 0
2, 68160, Note_on_c, 0, 66, 47
2, 68280, Note_on_c, 0, 66, 0
2, 68400, Note_on_c, 0, 71, 43
2, 68520, Note_on_c, 0, 71, 0
2, 68640, Note_on_c, 0, 70, 43
2, 68760, Note_on_c, 0, 70, 0
2, 68880, Note_on_c, 0, 71, 44
2, 69000, Note_on_c, 0, 71, 0
2, 69120, Note_on_c, 0, 71, 51
2, 69240, Note_on_c, 0, 71, 0
2, 69360, Note_on_c, 0, 76, 47
2, 69480, Note_on_c, 0, 76, 0
2, 69600, Note_on_c, 0, 75, 47
2, 69720, Note_on_c, 0, 75, 0
2, 69840, Note_on_c, 0, 76, 48
2, 69960, Note_on_c, 0, 76, 0
2, 70080, Note_on_c, 0, 76, 59
2, 70200, Note_on_c, 0, 76, 0
2, 70320, Note_on_c, 0, 81, 54
2, 70440, Note_on_c, 0, 81, 0
2, 70560, Note_on_c, 0, 80, 54
2, 70680, Note_on_c, 0, 80, 0
2, 70800, Note_on_c, 0, 81, 54
2, 70920, Note_on_c, 0, 81, 0
2, 71040, Note_on_c, 0, 88, 71
2, 71160, Note_on_c, 0, 88, 0
2, 71280, Note_on_c, 0, 76, 60
2, 71400, Note_on_c, 0, 76, 0
2, 71520, Note_on_c, 0, 80, 61
2, 71640, Note_on_c, 0, 80, 0
2, 71760, Note_on_c, 0, 76, 61
2, 71880, Note_on_c, 0, 76, 0
2, 72000, Note_on_c, 0, 76, 65
2, 72120, Note_on_c, 0, 76, 0
2, 72240, Note_on_c, 0, 81, 60
2, 72360, Note_on_c, 0, 81, 0
2, 72480, Note_on_c, 0, 80, 60
2, 72600, Note_on_c, 0, 80, 0
2, 72720, Note_on_c, 0, 81, 60
2, 72840, Note_on_c, 0, 81, 0
2, 72960, Note_on_c, 0, 79, 69
2, 73080, Note_on_c, 0, 79, 0
2, 73200, Note_on_c, 0, 67, 62
2, 73320, Note_on_c, 0, 67, 0
2, 73440, Note_on_c, 0, 71, 62
2, 73560, Note_on_c, 0, 71, 0
2, 73680, Note_on_c, 0, 67, 62
2, 73800, Note_on_c, 0, 67, 0
2, 73920, Note_on_c, 0, 67, 67
2, 74040, Note_on_c, 0, 67, 0
2, 74160, Note_on_c, 0, 72, 58
2, 74280, Note_on_c, 0, 72, 0
2, 74400, Note_on_c, 0, 71, 58
2, 74520, Note_on_c, 0, 71, 0
2, 74640, Note_on_c, 0, 72, 58
2, 74755, Note_on_c, 0, 72, 0
2, 74880, Note_on_c, 0, 73, 81
2, 75360, Note_on_c, 0, 73, 0
2, 75360, Note_on_c, 0, 72, 69
2, 75360, Note_on_c, 0, 73, 77
2, 75540, Note_on_c, 0, 73, 0
2, 75540, Note_on_c, 0, 72, 0
2, 75600, Note_on_c, 0, 70, 69
2, 75600, Note_on_c, 0, 73, 77
2, 75780, Note_on_c, 0, 73, 0
2, 75780, Note_on_c, 0, 70, 0
2, 75840, Note_on_c, 0, 70, 72
2, 75840, Note_on_c, 0, 73, 81
2, 76320, Note_on_c, 0, 73, 0
2, 76320, Note_on_c, 0, 70, 0
2, 76320, Note_on_c, 0, 68, 70
2, 76320, Note_on_c, 0, 73, 78
2, 76500, Note_on_c, 0, 73, 0
2, 76500, Note_on_c, 0, 68, 0
2, 76560, Note_on_c, 0, 67, 70
2, 76560, Note_on_c, 0, 73, 78
2, 76740, Note_on_c, 0, 73, 0
2, 76740, Note_on_c, 0, 67, 0
2, 76800, Note_on_c, 0, 67, 72
2, 76800, Note_on_c, 0, 70, 72
2, 76800, Note_on_c, 0, 73, 81
2, 77280, Note_on_c, 0, 73, 0
2, 77280, Note_on_c, 0, 70, 0
2, 77280, Note_on_c, 0, 67, 0
2, 77280, Note_on_c, 0, 65, 69
2, 77280, Note_on_c, 0, 68, 69
2, 77280, Note_on_c, 0, 73, 77
2, 77460, Note_on_c, 0, 73, 0
2, 77460, Note_on_c, 0, 68, 0
2, 77460, Note_on_c, 0, 65, 0
2, 77520, Note_on_c, 0, 64, 69
2, 77520, Note_on_c, 0, 67, 69
2, 77520, Note_on_c, 0, 73, 77
2, 77693, Note_on_c, 0, 73, 0
2, 77693, Note_on_c, 0, 67, 0
2, 77693, Note_on_c, 0, 64, 0
2, 77760, Note_on_c, 0, 84, 100
2, 77760, Note_on_c, 0, 82, 90
2, 77760, Note_on_c, 0, 79, 90
2, 78240, Note_on_c, 0, 79, 0
2, 78240, Note_on_c, 0, 82, 0
2, 78240, Note_on_c, 0, 84, 0
2, 78240, Note_on_c, 0, 77, 84
2, 78240, Note_on_c, 0, 80, 84
2, 78240, Note_on_c, 0, 84, 94
2, 78420, Note_on_c, 0, 84, 0
2, 78420, Note_on_c, 0, 80, 0
2, 78420, Note_on_c, 0, 77, 0
2, 78480, Note_on_c, 0, 76, 84
2, 78480, Note_on_c, 0, 79, 84
2, 78480, Note_on_c, 0, 84, 94
2, 78653, Note_on_c, 0, 84, 0
2, 78653, Note_on_c, 0, 79, 0
2, 78653, Note_on_c, 0, 76, 0
2, 78720, Note_on_c, 0, 73, 81
2, 79200, Note_on_c, 0, 73, 0
2, 79200, Note_on_c, 0, 72, 69
2, 79200, Note_on_c, 0, 73, 77
2, 79380, Note_on_c, 0, 73, 0
2, 79380, Note_on_c, 0, 72, 0
2, 79440, Note_on_c, 0, 70, 69
2, 79440, Note_on_c, 0, 73, 77
2, 79620, Note_on_c, 0, 73, 0
2, 79620, Note_on_c, 0, 70, 0
2, 79680, Note_on_c, 0, 70, 72
2, 79680, Note_on_c, 0, 73, 81
2, 80160, Note_on_c, 0, 73, 0
2, 80160, Note_on_c, 0, 70, 0
2, 80160, Note_on_c, 0, 68, 70
2, 80160, Note_on_c, 0, 73, 78
2, 80340, Note_on_c, 0, 73, 0
2, 80340, Note_on_c, 0, 68, 0
2, 80400, Note_on_c, 0, 67, 70
2, 80400, Note_on_c, 0, 73, 78
2, 80580, Note_on_c, 0, 73, 0
2, 80580, Note_on_c, 0, 67, 0
2, 80640, Note_on_c, 0, 67, 72
2, 80640, Note_on_c, 0, 70, 72
2, 80640, Note_on_c, 0, 73, 81
2, 81120, Note_on_c, 0, 73, 0
2, 81120, Note_on_c, 0, 70, 0
2, 81120, Note_on_c, 0, 67, 0
2, 81120, Note_on_c, 0, 65, 69
2, 81120, Note_on_c, 0, 68, 69
2, 81120, Note_on_c, 0, 73, 77
2, 81300, Note_on_c, 0, 73, 0
2, 81300, Note_on_c, 0, 68, 0
2, 81300, Note_on_c, 0, 65, 0
2, 81360, Note_on_c, 0, 64, 69
2, 81360, Note_on_c, 0, 67, 69
2, 81360, Note_on_c, 0, 73, 77
2, 81533, Note_on_c, 0, 73, 0
2, 81533, Note_on_c, 0, 67, 0
2, 81533, Note_on_c, 0, 64, 0
2, 81600, Note_on_c, 0, 84, 99
2, 81600, Note_on_c, 0, 82, 89
2, 81600, Note_on_c, 0, 79, 89
2, 82080, Note_on_c, 0, 79, 0
2, 82080, Note_on_c, 0, 82, 0
2, 82080, Note_on_c, 0, 84, 0
2, 82080, Note_on_c, 0, 77, 82
2, 82080, Note_on_c, 0, 80, 82
2, 82080, Note_on_c, 0, 84, 92
2, 82260, Note_on_c, 0, 84, 0
2, 82260, Note_on_c, 0, 80, 0
2, 82260, Note_on_c, 0, 77, 0
2, 82320, Note_on_c, 0, 76, 82
2, 82320, Note_on_c, 0, 79, 82
2, 82320, Note_on_c, 0, 84, 92
2, 82493, Note_on_c, 0, 84, 0
2, 82493, Note_on_c, 0, 79, 0
2, 82493, Note_on_c, 0, 76, 0
2, 82560, Note_on_c, 0, 67, 50
2, 82560, Note_on_c, 0, 70, 50
2, 82560, Note_on_c, 0, 73, 56
2, 83040, Note_on_c, 0, 73, 0
2, 83040, Note_on_c, 0, 70, 0
2, 83040, Note_on_c, 0, 67, 0
2, 83040, Note_on_c, 0, 65, 44
2, 83040, Note_on_c, 0, 68, 44
2, 83040, Note_on_c, 0, 73, 49
2, 83220, Note_on_c, 0, 73, 0
2, 83220, Note_on_c, 0, 68, 0
2, 83220, Note_on_c, 0, 65, 0
2, 83280, Note_on_c, 0, 64, 44
2, 83280, Note_on_c, 0, 67, 44
2, 83280, Note_on_c, 0, 73, 49
2, 83460, Note_on_c, 0, 73, 0
2, 83460, Note_on_c, 0, 67, 0
2, 83460, Note_on_c, 0, 64, 0
2, 83520, Note_on_c, 0, 84, 97
2, 83520, Note_on_c, 0, 82, 87
2, 83520, Note_on_c, 0, 79, 87
2, 84000, Note_on_c, 0, 79, 0
2, 84000, Note_on_c, 0, 82, 0
2, 84000, Note_on_c, 0, 84, 0
2, 84000, Note_on_c, 0, 77, 79
2, 84000, Note_on_c, 0, 80, 79
2, 84000, Note_on_c, 0, 84, 88
2, 84180, Note_on_c, 0, 84, 0
2, 84180, Note_on_c, 0, 80, 0
2, 84180, Note_on_c, 0, 77, 0
2, 84240, Note_on_c, 0, 76, 81
2, 84240, Note_on_c, 0, 79, 81
2, 84240, Note_on_c, 0, 84, 91
2, 84420, Note_on_c, 0, 84, 0
2, 84420, Note_on_c, 0, 79, 0
2, 84420, Note_on_c, 0, 76, 0
2, 84480, Note_on_c, 0, 60, 48
2, 84720, Note_on_c, 0, 60, 0
2, 84960, Note_on_c, 0, 61, 45
2, 85080, Note_on_c, 0, 61, 0
2, 85200, Note_on_c, 0, 60, 45
2, 85320, Note_on_c, 0, 60, 0
2, 85440, Note_on_c, 0, 61, 48
2, 85680, Note_on_c, 0, 61, 0
2, 85920, Note_on_c, 0, 60, 45
2, 86040, Note_on_c, 0, 60, 0
2, 86160, Note_on_c, 0, 62, 45
2, 86280, Note_on_c, 0, 62, 0
2, 86400, Note_on_c, 0, 64, 48
2, 86640, Note_on_c, 0, 64, 0
2, 86880, Note_on_c, 0, 65, 45
2, 87000, Note_on_c, 0, 65, 0
2, 87120, Note_on_c, 0, 64, 45
2, 87240, Note_on_c, 0, 64, 0
2, 87360, Note_on_c, 0, 65, 48
2, 87600, Note_on_c, 0, 65, 0
2, 87840, Note_on_c, 0, 64, 50
2, 87960, Note_on_c, 0, 64, 0
2, 88080, Note_on_c, 0, 66, 52
2, 88200, Note_on_c, 0, 66, 0
2, 88320, Note_on_c, 0, 67, 54
2, 88800, Note_on_c, 0, 67, 0
2, 88800, Note_on_c, 0, 68, 56
2, 89040, Note_on_c, 0, 68, 0
2, 89040, Note_on_c, 0, 67, 58
2, 89280, Note_on_c, 0, 67, 0
2, 89280, Note_on_c, 0, 70, 60
2, 89760, Note_on_c, 0, 70, 0
2, 89760, Note_on_c, 0, 68, 63
2, 90000, Note_on_c, 0, 68, 0
2, 90000, Note_on_c, 0, 73, 64
2, 90240, Note_on_c, 0, 73, 0
2, 90240, Note_on_c, 0, 72, 66
2, 90720, Note_on_c, 0, 72, 0
2, 90720, Note_on_c, 0, 74, 70
2, 90960, Note_on_c, 0, 74, 0
2, 90960, Note_on_c, 0, 75, 72
2, 91200, Note_on_c, 0, 75, 0
2, 91200, Note_on_c, 0, 76, 72
2, 91680, Note_on_c, 0, 76, 0
2, 91680, Note_on_c, 0, 77, 76
2, 91920, Note_on_c, 0, 77, 0
2, 91920, Note_on_c, 0, 79, 78
2, 92160, Note_on_c, 0, 79, 0
2, 92160, Note_on_c, 0, 72, 72
2, 92160, Note_on_c, 0, 68, 72
2, 92160, Note_on_c, 0, 80, 81
2, 92640, Note_on_c, 0, 80, 0
2, 92640, Note_on_c, 0, 68, 0
2, 92640, Note_on_c, 0, 72, 0
2, 92640, Note_on_c, 0, 79, 77
2, 92640, Note_on_c, 0, 72, 69
2, 92640, Note_on_c, 0, 68, 69
2, 92760, Note_on_c, 0, 68, 0
2, 92760, Note_on_c, 0, 72, 0
2, 92760, Note_on_c, 0, 79, 0
2, 92880, Note_on_c, 0, 77, 77
2, 92880, Note_on_c, 0, 72, 69
2, 92880, Note_on_c, 0, 68, 69
2, 93000, Note_on_c, 0, 68, 0
2, 93000, Note_on_c, 0, 72, 0
2, 93000, Note_on_c, 0, 77, 0
2, 93120, Note_on_c, 0, 77, 81
2, 93120, Note_on_c, 0, 72, 72
2, 93120, Note_on_c, 0, 68, 72
2, 93600, Note_on_c, 0, 68, 0
2, 93600, Note_on_c, 0, 72, 0
2, 93600, Note_on_c, 0, 77, 0
2, 93600, Note_on_c, 0, 68, 70
2, 93600, Note_on_c, 0, 72, 78
2, 93720, Note_on_c, 0, 72, 0
2, 93720, Note_on_c, 0, 68, 0
2, 93840, Note_on_c, 0, 68, 70
2, 93840, Note_on_c, 0, 72, 78
2, 93960, Note_on_c, 0, 72, 0
2, 93960, Note_on_c, 0, 68, 0
2, 94080, Note_on_c, 0, 77, 81
2, 94080, Note_on_c, 0, 73, 72
2, 94080, Note_on_c, 0, 70, 72
2, 94560, Note_on_c, 0, 70, 0
2, 94560, Note_on_c, 0, 73, 0
2, 94560, Note_on_c, 0, 77, 0
2, 94560, Note_on_c, 0, 70, 69
2, 94560, Note_on_c, 0, 73, 77
2, 94680, Note_on_c, 0, 73, 0
2, 94680, Note_on_c, 0, 70, 0
2, 94800, Note_on_c, 0, 70, 68
2, 94800, Note_on_c, 0, 73, 76
2, 94920, Note_on_c, 0, 73, 0
2, 94920, Note_on_c, 0, 70, 0
2, 95040, Note_on_c, 0, 77, 81
2, 95040, Note_on_c, 0, 72, 72
2, 95040, Note_on_c, 0, 68, 72
2, 95510, Note_on_c, 0, 68, 0
2, 95510, Note_on_c, 0, 72, 0
2, 95510, Note_on_c, 0, 77, 0
2, 95520, Note_on_c, 0, 68, 48
2, 95520, Note_on_c, 0, 72, 54
2, 95640, Note_on_c, 0, 72, 0
2, 95640, Note_on_c, 0, 68, 0
2, 95760, Note_on_c, 0, 68, 48
2, 95760, Note_on_c, 0, 72, 54
2, 95880, Note_on_c, 0, 72, 0
2, 95880, Note_on_c, 0, 68, 0
2, 96000, Note_on_c, 0, 68, 43
2, 96000, Note_on_c, 0, 72, 48
2, 96480, Note_on_c, 0, 72, 0
2, 96480, Note_on_c, 0, 68, 0
2, 96480, Note_on_c, 0, 67, 48
2, 96480, Note_on_c, 0, 68, 43
2, 96480, Note_on_c, 0, 72, 48
2, 96600, Note_on_c, 0, 72, 0
2, 96600, Note_on_c, 0, 68, 0
2, 96600, Note_on_c, 0, 67, 0
2, 96720, Note_on_c, 0, 65, 40
2, 96720, Note_on_c, 0, 68, 40
2, 96720, Note_on_c, 0, 72, 45
2, 96840, Note_on_c, 0, 72, 0
2, 96840, Note_on_c, 0, 68, 0
2, 96840, Note_on_c, 0, 65, 0
2, 96960, Note_on_c, 0, 65, 40
2, 96960, Note_on_c, 0, 68, 40
2, 96960, Note_on_c, 0, 72, 45
2, 97440, Note_on_c, 0, 72, 0
2, 97440, Note_on_c, 0, 68, 0
2, 97440, Note_on_c, 0, 65, 0
2, 97440, Note_on_c, 0, 60, 43
2, 97440, Note_on_c, 0, 68, 43
2, 97440, Note_on_c, 0, 72, 48
2, 97560, Note_on_c, 0, 72, 0
2, 97560, Note_on_c, 0, 68, 0
2, 97560, Note_on_c, 0, 60, 0
2, 97680, Note_on_c, 0, 60, 40
2, 97680, Note_on_c, 0, 68, 40
2, 97680, Note_on_c, 0, 72, 45
2, 97800, Note_on_c, 0, 72, 0
2, 97800, Note_on_c, 0, 68, 0
2, 97800, Note_on_c, 0, 60, 0
2, 97920, Note_on_c, 0, 73, 45
2, 97920, Note_on_c, 0, 70, 40
2, 97920, Note_on_c, 0, 65, 40
2, 98400, Note_on_c, 0, 65, 0
2, 98400, Note_on_c, 0, 70, 0
2, 98400, Note_on_c, 0, 73, 0
2, 98400, Note_on_c, 0, 61, 43
2, 98400, Note_on_c, 0, 70, 43
2, 98400, Note_on_c, 0, 73, 48
2, 98520, Note_on_c, 0, 73, 0
2, 98520, Note_on_c, 0, 70, 0
2, 98520, Note_on_c, 0, 61, 0
2, 98640, Note_on_c, 0, 61, 40
2, 98640, Note_on_c, 0, 70, 40
2, 98640, Note_on_c, 0, 73, 45
2, 98760, Note_on_c, 0, 73, 0
2, 98760, Note_on_c, 0, 70, 0
2, 98760, Note_on_c, 0, 61, 0
2, 98880, Note_on_c, 0, 65, 40
2, 98880, Note_on_c, 0, 68, 40
2, 98880, Note_on_c, 0, 72, 45
2, 99360, Note_on_c, 0, 72, 0
2, 99360, Note_on_c, 0, 68, 0
2, 99360, Note_on_c, 0, 65, 0
2, 99360, Note_on_c, 0, 60, 40
2, 99360, Note_on_c, 0, 68, 40
2, 99360, Note_on_c, 0, 72, 45
2, 99480, Note_on_c, 0, 72, 0
2, 99480, Note_on_c, 0, 68, 0
2, 99480, Note_on_c, 0, 60, 0
2, 99600, Note_on_c, 0, 60, 40
2, 99600, Note_on_c, 0, 68, 40
2, 99600, Note_on_c, 0, 72, 45
2, 99720, Note_on_c, 0, 72, 0
2, 99720, Note_on_c, 0, 68, 0
2, 99720, Note_on_c, 0, 60, 0
2, 99840, Note_on_c, 0, 76, 55
2, 99840, Note_on_c, 0, 73, 49
2, 99840, Note_on_c, 0, 70, 49
2, 100320, Note_on_c, 0, 70, 0
2, 100320, Note_on_c, 0, 73, 0
2, 100320, Note_on_c, 0, 76, 0
2, 100320, Note_on_c, 0, 76, 52
2, 100320, Note_on_c, 0, 73, 46
2, 100320, Note_on_c, 0, 67, 46
2, 100440, Note_on_c, 0, 67, 0
2, 100440, Note_on_c, 0, 73, 0
2, 100440, Note_on_c, 0, 76, 0
2, 100560, Note_on_c, 0, 76, 52
2, 100560, Note_on_c, 0, 73, 46
2, 100560, Note_on_c, 0, 67, 46
2, 100680, Note_on_c, 0, 67, 0
2, 100680, Note_on_c, 0, 73, 0
2, 100680, Note_on_c, 0, 76, 0
2, 100800, Note_on_c, 0, 68, 54
2, 100800, Note_on_c, 0, 72, 54
2, 100800, Note_on_c, 0, 77, 61
2, 101280, Note_on_c, 0, 77, 0
2, 101280, Note_on_c, 0, 72, 0
2, 101280, Note_on_c, 0, 68, 0
2, 101280, Note_on_c, 0, 65, 52
2, 101280, Note_on_c, 0, 72, 52
2, 101280, Note_on_c, 0, 77, 58
2, 101400, Note_on_c, 0, 77, 0
2, 101400, Note_on_c, 0, 72, 0
2, 101400, Note_on_c, 0, 65, 0
2, 101520, Note_on_c, 0, 65, 52
2, 101520, Note_on_c, 0, 72, 52
2, 101520, Note_on_c, 0, 77, 58
2, 101640, Note_on_c, 0, 77, 0
2, 101640, Note_on_c, 0, 72, 0
2, 101640, Note_on_c, 0, 65, 0
2, 101760, Note_on_c, 0, 67, 60
2, 101760, Note_on_c, 0, 79, 67
2, 101760, Note_on_c, 0, 72, 60
2, 102240, Note_on_c, 0, 72, 0
2, 102240, Note_on_c, 0, 79, 0
2, 102240, Note_on_c, 0, 67, 0
2, 102240, Note_on_c, 0, 76, 60
2, 102240, Note_on_c, 0, 72, 54
2, 102240, Note_on_c, 0, 67, 54
2, 102360, Note_on_c, 0, 67, 0
2, 102360, Note_on_c, 0, 72, 0
2, 102360, Note_on_c, 0, 76, 0
2, 102480, Note_on_c, 0, 76, 60
2, 102480, Note_on_c, 0, 72, 54
2, 102480, Note_on_c, 0, 67, 54
2, 102600, Note_on_c, 0, 67, 0
2, 102600, Note_on_c, 0, 72, 0
2, 102600, Note_on_c, 0, 76, 0
2, 102720, Note_on_c, 0, 68, 65
2, 102720, Note_on_c, 0, 72, 65
2, 102720, Note_on_c, 0, 80, 73
2, 103200, Note_on_c, 0, 80, 0
2, 103200, Note_on_c, 0, 72, 0
2, 103200, Note_on_c, 0, 68, 0
2, 103200, Note_on_c, 0, 68, 61
2, 103200, Note_on_c, 0, 72, 61
2, 103200, Note_on_c, 0, 77, 68
2, 103320, Note_on_c, 0, 77, 0
2, 103320, Note_on_c, 0, 72, 0
2, 103320, Note_on_c, 0, 68, 0
2, 103440, Note_on_c, 0, 68, 61
2, 103440, Note_on_c, 0, 72, 61
2, 103440, Note_on_c, 0, 77, 68
2, 103560, Note_on_c, 0, 77, 0
2, 103560, Note_on_c, 0, 72, 0
2, 103560, Note_on_c, 0, 68, 0
2, 103680, Note_on_c, 0, 82, 84
2, 103680, Note_on_c, 0, 72, 75
2, 104160, Note_on_c, 0, 72, 0
2, 104160, Note_on_c, 0, 82, 0
2, 104160, Note_on_c, 0, 84, 77
2, 104160, Note_on_c, 0, 72, 69
2, 104280, Note_on_c, 0, 72, 0
2, 104280, Note_on_c, 0, 84, 0
2, 104400, Note_on_c, 0, 84, 77
2, 104400, Note_on_c, 0, 72, 69
2, 104520, Note_on_c, 0, 72, 0
2, 104520, Note_on_c, 0, 84, 0
2, 104640, Note_on_c, 0, 83, 89
2, 104640, Note_on_c, 0, 72, 80
2, 105120, Note_on_c, 0, 72, 0
2, 105120, Note_on_c, 0, 83, 0
2, 105120, Note_on_c, 0, 84, 85
2, 105120, Note_on_c, 0, 72, 76
2, 105240, Note_on_c, 0, 72, 0
2, 105240, Note_on_c, 0, 84, 0
2, 105360, Note_on_c, 0, 84, 85
2, 105360, Note_on_c, 0, 72, 76
2, 105480, Note_on_c, 0, 72, 0
2, 105480, Note_on_c, 0, 84, 0
2, 105600, Note_on_c, 0, 84, 97
2, 105600, Note_on_c, 0, 72, 87
2, 106070, Note_on_c, 0, 72, 0
2, 106070, Note_on_c, 0, 84, 0
2, 106080, Note_on_c, 0, 85, 97
2, 106080, Note_on_c, 0, 82, 87
2, 106080, Note_on_c, 0, 73, 87
2, 106320, Note_on_c, 0, 73, 0
2, 106320, Note_on_c, 0, 82, 0
2, 106320, Note_on_c, 0, 85, 0
2, 106560, Note_on_c, 0, 85, 97
2, 106560, Note_on_c, 0, 82, 87
2, 106560, Note_on_c, 0, 73, 87
2, 106800, Note_on_c, 0, 73, 0
2, 106800, Note_on_c, 0, 82, 0
2, 106800, Note_on_c, 0, 85, 0
2, 107040, Note_on_c, 0, 85, 97
2, 107040, Note_on_c, 0, 82, 87
2, 107040, Note_on_c, 0, 73, 87
2, 107280, Note_on_c, 0, 73, 0
2, 107280, Note_on_c, 0, 82, 0
2, 107280, Note_on_c, 0, 85, 0
2, 107520, Note_on_c, 0, 85, 97
2, 107520, Note_on_c, 0, 82, 87
2, 107520, Note_on_c, 0, 73, 87
2, 107760, Note_on_c, 0, 73, 0
2, 107760, Note_on_c, 0, 82, 0
2, 107760, Note_on_c, 0, 85, 0
2, 108000, Note_on_c, 0, 90, 97
2, 108000, Note_on_c, 0, 85, 87
2, 108000, Note_on_c, 0, 78, 87
2, 108240, Note_on_c, 0, 78, 0
2, 108240, Note_on_c, 0, 85, 0
2, 108240, Note_on_c, 0, 90, 0
2, 108480, Note_on_c, 0, 90, 90
2, 108480, Note_on_c, 0, 85, 81
2, 108480, Note_on_c, 0, 78, 81
2, 108960, Note_on_c, 0, 78, 0
2, 108960, Note_on_c, 0, 85, 0
2, 108960, Note_on_c, 0, 90, 0
2, 108960, Note_on_c, 0, 90, 95
2, 108960, Note_on_c, 0, 85, 85
2, 108960, Note_on_c, 0, 78, 85
2, 109080, Note_on_c, 0, 78, 0
2, 109080, Note_on_c, 0, 85, 0
2, 109080, Note_on_c, 0, 90, 0
2, 109200, Note_on_c, 0, 90, 97
2, 109200, Note_on_c, 0, 85, 87
2, 109200, Note_on_c, 0, 78, 87
2, 109320, Note_on_c, 0, 78, 0
2, 109320, Note_on_c, 0, 85, 0
2, 109320, Note_on_c, 0, 90, 0
2, 109440, Note_on_c, 0, 92, 99
2, 109440, Note_on_c, 0, 89, 89
2, 109440, Note_on_c, 0, 80, 89
2, 109920, Note_on_c, 0, 80, 0
2, 109920, Note_on_c, 0, 89, 0
2, 109920, Note_on_c, 0, 92, 0
2, 109920, Note_on_c, 0, 92, 94
2, 109920, Note_on_c, 0, 89, 84
2, 109920, Note_on_c, 0, 80, 84
2, 110040, Note_on_c, 0, 80, 0
2, 110040, Note_on_c, 0, 89, 0
2, 110040, Note_on_c, 0, 92, 0
2, 110160, Note_on_c, 0, 92, 91
2, 110160, Note_on_c, 0, 89, 81
2, 110160, Note_on_c, 0, 80, 81
2, 110280, Note_on_c, 0, 80, 0
2, 110280, Note_on_c, 0, 89, 0
2, 110280, Note_on_c, 0, 92, 0
2, 110400, Note_on_c, 0, 90, 89
2, 110400, Note_on_c, 0, 78, 80
2, 110640, Note_on_c, 0, 78, 0
2, 110640, Note_on_c, 0, 90, 0
2, 110880, Note_on_c, 0, 83, 92
2, 110880, Note_on_c, 0, 80, 82
2, 110880, Note_on_c, 0, 77, 82
2, 110880, Note_on_c, 0, 71, 82
2, 111120, Note_on_c, 0, 71, 0
2, 111120, Note_on_c, 0, 83, 0
2, 111120, Note_on_c, 0, 80, 0
2, 111120, Note_on_c, 0, 77, 0
2, 111360, Note_on_c, 0, 84, 92
2, 111360, Note_on_c, 0, 80, 82
2, 111360, Note_on_c, 0, 77, 82
2, 111360, Note_on_c, 0, 72, 82
2, 111600, Note_on_c, 0, 72, 0
2, 111600, Note_on_c, 0, 84, 0
2, 111600, Note_on_c, 0, 80, 0
2, 111600, Note_on_c, 0, 77, 0
2, 111840, Note_on_c, 0, 84, 92
2, 111840, Note_on_c, 0, 79, 82
2, 111840, Note_on_c, 0, 76, 82
2, 111840, Note_on_c, 0, 72, 82
2, 112080, Note_on_c, 0, 72, 0
2, 112080, Note_on_c, 0, 84, 0
2, 112080, Note_on_c, 0, 79, 0
2, 112080, Note_on_c, 0, 76, 0
2, 112320, Note_on_c, 0, 65, 82
2, 112320, Note_on_c, 0, 77, 92
2, 112800, Note_on_c, 0, 77, 0
2, 112800, Note_on_c, 0, 65, 0
2, 112800, Note_on_c, 0, 65, 48
2, 113040, Note_on_c, 0, 65, 0
2, 113040, Note_on_c, 0, 67, 48
2, 113280, Note_on_c, 0, 67, 0
2, 113280, Note_on_c, 0, 69, 48
2, 113760, Note_on_c, 0, 69, 0
2, 113760, Note_on_c, 0, 70, 48
2, 113880, Note_on_c, 0, 70, 0
2, 114000, Note_on_c, 0, 72, 48
2, 114120, Note_on_c, 0, 72, 0
2, 114240, Note_on_c, 0, 72, 43
2, 114240, Note_on_c, 0, 74, 48
2, 114720, Note_on_c, 0, 74, 0
2, 114720, Note_on_c, 0, 72, 0
2, 114720, Note_on_c, 0, 70, 40
2, 114720, Note_on_c, 0, 76, 45
2, 114840, Note_on_c, 0, 76, 0
2, 114840, Note_on_c, 0, 70, 0
2, 114960, Note_on_c, 0, 70, 40
2, 114960, Note_on_c, 0, 76, 45
2, 115080, Note_on_c, 0, 76, 0
2, 115080, Note_on_c, 0, 70, 0
2, 115200, Note_on_c, 0, 70, 43
2, 115200, Note_on_c, 0, 76, 48
2, 115680, Note_on_c, 0, 76, 0
2, 115680, Note_on_c, 0, 70, 0
2, 115680, Note_on_c, 0, 69, 40
2, 115680, Note_on_c, 0, 77, 45
2, 115800, Note_on_c, 0, 77, 0
2, 115800, Note_on_c, 0, 69, 0
2, 115920, Note_on_c, 0, 69, 40
2, 115920, Note_on_c, 0, 77, 45
2, 116040, Note_on_c, 0, 77, 0
2, 116040, Note_on_c, 0, 69, 0
2, 116160, Note_on_c, 0, 69, 43
2, 116160, Note_on_c, 0, 72, 48
2, 116640, Note_on_c, 0, 72, 0
2, 116640, Note_on_c, 0, 69, 0
2, 116640, Note_on_c, 0, 67, 40
2, 116640, Note_on_c, 0, 70, 45
2, 116760, Note_on_c, 0, 70, 0
2, 116760, Note_on_c, 0, 67, 0
2, 116880, Note_on_c, 0, 67, 40
2, 116880, Note_on_c, 0, 70, 45
2, 117000, Note_on_c, 0, 70, 0
2, 117000, Note_on_c, 0, 67, 0
2, 117120, Note_on_c, 0, 69, 80
2, 117120, Note_on_c, 0, 72, 80
2, 117120, Note_on_c, 0, 81, 89
2, 117239, Note_on_c, 0, 81, 0
2, 117239, Note_on_c, 0, 72, 0
2, 117239, Note_on_c, 0, 69, 0
2, 117600, Note_on_c, 0, 69, 80
2, 117600, Note_on_c, 0, 72, 80
2, 117600, Note_on_c, 0, 77, 89
2, 117719, Note_on_c, 0, 77, 0
2, 117719, Note_on_c, 0, 72, 0
2, 117719, Note_on_c, 0, 69, 0
2, 118080, Note_on_c, 0, 72, 48
2, 118560, Note_on_c, 0, 72, 0
2, 118560, Note_on_c, 0, 72, 40
2, 118560, Note_on_c, 0, 74, 45
2, 118680, Note_on_c, 0, 74, 0
2, 118680, Note_on_c, 0, 72, 0
2, 118800, Note_on_c, 0, 72, 40
2, 118800, Note_on_c, 0, 74, 45
2, 118920, Note_on_c, 0, 74, 0
2, 118920, Note_on_c, 0, 72, 0
2, 119040, Note_on_c, 0, 70, 43
2, 119040, Note_on_c, 0, 76, 48
2, 119520, Note_on_c, 0, 76, 0
2, 119520, Note_on_c, 0, 70, 0
2, 119520, Note_on_c, 0, 69, 40
2, 119520, Note_on_c, 0, 77, 45
2, 119640, Note_on_c, 0, 77, 0
2, 119640, Note_on_c, 0, 69, 0
2, 119760, Note_on_c, 0, 69, 40
2, 119760, Note_on_c, 0, 77, 45
2, 119880, Note_on_c, 0, 77, 0
2, 119880, Note_on_c, 0, 69, 0
2, 120000, Note_on_c, 0, 69, 43
2, 120000, Note_on_c, 0, 72, 48
2, 120480, Note_on_c, 0, 72, 0
2, 120480, Note_on_c, 0, 69, 0
2, 120480, Note_on_c, 0, 67, 40
2, 120480, Note_on_c, 0, 70, 45
2, 120600, Note_on_c, 0, 70, 0
2, 120600, Note_on_c, 0, 67, 0
2, 120720, Note_on_c, 0, 67, 40
2, 120720, Note_on_c, 0, 70, 45
2, 120840, Note_on_c, 0, 70, 0
2, 120840, Note_on_c, 0, 67, 0
2, 120960, Note_on_c, 0, 69, 84
2, 120960, Note_on_c, 0, 72, 84
2, 120960, Note_on_c, 0, 81, 94
2, 121079, Note_on_c, 0, 81, 0
2, 121079, Note_on_c, 0, 72, 0
2, 121079, Note_on_c, 0, 69, 0
2, 121440, Note_on_c, 0, 69, 85
2, 121440, Note_on_c, 0, 72, 85
2, 121440, Note_on_c, 0, 77, 95
2, 121559, Note_on_c, 0, 77, 0
2, 121559, Note_on_c, 0, 72, 0
2, 121559, Note_on_c, 0, 69, 0
2, 121920, Note_on_c, 0, 69, 43
2, 121920, Note_on_c, 0, 72, 48
2, 122400, Note_on_c, 0, 72, 0
2, 122400, Note_on_c, 0, 69, 0
2, 122400, Note_on_c, 0, 67, 40
2, 122400, Note_on_c, 0, 70, 45
2, 122520, Note_on_c, 0, 70, 0
2, 122520, Note_on_c, 0, 67, 0
2, 122640, Note_on_c, 0, 67, 40
2, 122640, Note_on_c, 0, 70, 45
2, 122760, Note_on_c, 0, 70, 0
2, 122760, Note_on_c, 0, 67, 0
2, 122880, Note_on_c, 0, 69, 87
2, 122880, Note_on_c, 0, 72, 87
2, 122880, Note_on_c, 0, 81, 97
2, 122999, Note_on_c, 0, 81, 0
2, 122999, Note_on_c, 0, 72, 0
2, 122999, Note_on_c, 0, 69, 0
2, 123360, Note_on_c, 0, 69, 87
2, 123360, Note_on_c, 0, 72, 87
2, 123360, Note_on_c, 0, 77, 97
2, 123479, Note_on_c, 0, 77, 0
2, 123479, Note_on_c, 0, 72, 0
2, 123479, Note_on_c, 0, 69, 0
2, 123840, Note_on_c, 0, 69, 43
2, 123840, Note_on_c, 0, 72, 48
2, 124320, Note_on_c, 0, 72, 0
2, 124320, Note_on_c, 0, 69, 0
2, 124320, Note_on_c, 0, 67, 40
2, 124320, Note_on_c, 0, 70, 45
2, 124440, Note_on_c, 0, 70, 0
2, 124440, Note_on_c, 0, 67, 0
2, 124560, Note_on_c, 0, 67, 40
2, 124560, Note_on_c, 0, 70, 45
2, 124680, Note_on_c, 0, 70, 0
2, 124680, Note_on_c, 0, 67, 0
2, 124800, Note_on_c, 0, 77, 89
2, 124800, Note_on_c, 0, 81, 89
2, 124800, Note_on_c, 0, 84, 89
2, 124800, Note_on_c, 0, 89, 99
2, 125232, Note_on_c, 0, 89, 0
2, 125232, Note_on_c, 0, 77, 0
2, 125232, Note_on_c, 0, 81, 0
2, 125232, Note_on_c, 0, 84, 0
2, 125280, Note_on_c, 0, 65, 99
2, 125280, Note_on_c, 0, 77, 99
2, 125760, Note_on_c, 0, 77, 0
2, 125760, Note_on_c, 0, 65, 0
2, 126720, Note_on_c, 0, 70, 43
2, 126720, Note_on_c, 0, 72, 48
2, 127200, Note_on_c, 0, 72, 0
2, 127200, Note_on_c, 0, 70, 0
2, 127200, Note_on_c, 0, 67, 40
2, 127200, Note_on_c, 0, 72, 45
2, 127320, Note_on_c, 0, 72, 0
2, 127320, Note_on_c, 0, 67, 0
2, 127440, Note_on_c, 0, 67, 40
2, 127440, Note_on_c, 0, 72, 45
2, 127560, Note_on_c, 0, 72, 0
2, 127560, Note_on_c, 0, 67, 0
2, 127680, Note_on_c, 0, 68, 43
2, 127680, Note_on_c, 0, 72, 48
2, 128160, Note_on_c, 0, 72, 0
2, 128160, Note_on_c, 0, 68, 0
2, 128160, Note_on_c, 0, 65, 40
2, 128160, Note_on_c, 0, 72, 45
2, 128280, Note_on_c, 0, 72, 0
2, 128280, Note_on_c, 0, 65, 0
2, 128400, Note_on_c, 0, 65, 40
2, 128400, Note_on_c, 0, 72, 45
2, 128520, Note_on_c, 0, 72, 0
2, 128520, Note_on_c, 0, 65, 0
2, 128640, Note_on_c, 0, 66, 43
2, 128640, Note_on_c, 0, 68, 48
2, 129120, Note_on_c, 0, 68, 0
2, 129120, Note_on_c, 0, 66, 0
2, 129120, Note_on_c, 0, 60, 40
2, 129120, Note_on_c, 0, 68, 45
2, 129240, Note_on_c, 0, 68, 0
2, 129240, Note_on_c, 0, 60, 0
2, 129360, Note_on_c, 0, 60, 40
2, 129360, Note_on_c, 0, 68, 45
2, 129480, Note_on_c, 0, 68, 0
2, 129480, Note_on_c, 0, 60, 0
2, 129600, Note_on_c, 0, 65, 80
2, 129600, Note_on_c, 0, 68, 80
2, 129600, Note_on_c, 0, 77, 89
2, 129719, Note_on_c, 0, 77, 0
2, 129719, Note_on_c, 0, 68, 0
2, 129719, Note_on_c, 0, 65, 0
2, 130072, Note_on_c, 0, 65, 80
2, 130072, Note_on_c, 0, 68, 80
2, 130072, Note_on_c, 0, 73, 89
2, 130191, Note_on_c, 0, 73, 0
2, 130191, Note_on_c, 0, 68, 0
2, 130191, Note_on_c, 0, 65, 0
2, 130560, Note_on_c, 0, 66, 43
2, 130560, Note_on_c, 0, 68, 48
2, 131040, Note_on_c, 0, 68, 0
2, 131040, Note_on_c, 0, 66, 0
2, 131040, Note_on_c, 0, 60, 40
2, 131040, Note_on_c, 0, 68, 45
2, 131160, Note_on_c, 0, 68, 0
2, 131160, Note_on_c, 0, 60, 0
2, 131280, Note_on_c, 0, 60, 40
2, 131280, Note_on_c, 0, 68, 45
2, 131400, Note_on_c, 0, 68, 0
2, 131400, Note_on_c, 0, 60, 0
2, 131520, Note_on_c, 0, 65, 80
2, 131520, Note_on_c, 0, 68, 80
2, 131520, Note_on_c, 0, 77, 89
2, 131639, Note_on_c, 0, 77, 0
2, 131639, Note_on_c, 0, 68, 0
2, 131639, Note_on_c, 0, 65, 0
2, 131992, Note_on_c, 0, 65, 80
2, 131992, Note_on_c, 0, 68, 80
2, 131992, Note_on_c, 0, 73, 89
2, 132111, Note_on_c, 0, 73, 0
2, 132111, Note_on_c, 0, 68, 0
2, 132111, Note_on_c, 0, 65, 0
2, 132480, Note_on_c, 0, 75, 43
2, 132480, Note_on_c, 0, 77, 48
2, 132960, Note_on_c, 0, 77, 0
2, 132960, Note_on_c, 0, 75, 0
2, 132960, Note_on_c, 0, 72, 40
2, 132960, Note_on_c, 0, 77, 45
2, 133080, Note_on_c, 0, 77, 0
2, 133080, Note_on_c, 0, 72, 0
2, 133200, Note_on_c, 0, 72, 40
2, 133200, Note_on_c, 0, 77, 45
2, 133320, Note_on_c, 0, 77, 0
2, 133320, Note_on_c, 0, 72, 0
2, 133440, Note_on_c, 0, 73, 43
2, 133440, Note_on_c, 0, 77, 48
2, 133920, Note_on_c, 0, 77, 0
2, 133920, Note_on_c, 0, 73, 0
2, 133920, Note_on_c, 0, 70, 40
2, 133920, Note_on_c, 0, 77, 45
2, 134040, Note_on_c, 0, 77, 0
2, 134040, Note_on_c, 0, 70, 0
2, 134160, Note_on_c, 0, 70, 40
2, 134160, Note_on_c, 0, 77, 45
2, 134280, Note_on_c, 0, 77, 0
2, 134280, Note_on_c, 0, 70, 0
2, 134400, Note_on_c, 0, 71, 43
2, 134400, Note_on_c, 0, 73, 48
2, 134880, Note_on_c, 0, 73, 0
2, 134880, Note_on_c, 0, 71, 0
2, 134880, Note_on_c, 0, 65, 40
2, 134880, Note_on_c, 0, 73, 45
2, 135000, Note_on_c, 0, 73, 0
2, 135000, Note_on_c, 0, 65, 0
2, 135120, Note_on_c, 0, 65, 40
2, 135120, Note_on_c, 0, 73, 45
2, 135240, Note_on_c, 0, 73, 0
2, 135240, Note_on_c, 0, 65, 0
2, 135360, Note_on_c, 0, 70, 85
2, 135360, Note_on_c, 0, 73, 85
2, 135360, Note_on_c, 0, 82, 95
2, 135479, Note_on_c, 0, 82, 0
2, 135479, Note_on_c, 0, 73, 0
2, 135479, Note_on_c, 0, 70, 0
2, 135832, Note_on_c, 0, 70, 84
2, 135832, Note_on_c, 0, 73, 84
2, 135832, Note_on_c, 0, 78, 94
2, 135951, Note_on_c, 0, 78, 0
2, 135951, Note_on_c, 0, 73, 0
2, 135951, Note_on_c, 0, 70, 0
2, 136320, Note_on_c, 0, 71, 43
2, 136320, Note_on_c, 0, 73, 48
2, 136800, Note_on_c, 0, 73, 0
2, 136800, Note_on_c, 0, 71, 0
2, 136800, Note_on_c, 0, 65, 40
2, 136800, Note_on_c, 0, 73, 45
2, 136920, Note_on_c, 0, 73, 0
2, 136920, Note_on_c, 0, 65, 0
2, 137040, Note_on_c, 0, 65, 40
2, 137040, Note_on_c, 0, 73, 45
2, 137160, Note_on_c, 0, 73, 0
2, 137160, Note_on_c, 0, 65, 0
2, 137280, Note_on_c, 0, 70, 85
2, 137280, Note_on_c, 0, 73, 85
2, 137280, Note_on_c, 0, 82, 95
2, 137399, Note_on_c, 0, 82, 0
2, 137399, Note_on_c, 0, 73, 0
2, 137399, Note_on_c, 0, 70, 0
2, 137752, Note_on_c, 0, 70, 85
2, 137752, Note_on_c, 0, 73, 85
2, 137752, Note_on_c, 0, 78, 95
2, 137871, Note_on_c, 0, 78, 0
2, 137871, Note_on_c, 0, 73, 0
2, 137871, Note_on_c, 0, 70, 0
2, 138240, Note_on_c, 0, 82, 46
2, 138360, Note_on_c, 0, 82, 0
2, 138480, Note_on_c, 0, 70, 40
2, 138600, Note_on_c, 0, 70, 0
2, 138720, Note_on_c, 0, 78, 40
2, 138720, Note_on_c, 0, 73, 36
2, 138840, Note_on_c, 0, 73, 0
2, 138840, Note_on_c, 0, 78, 0
2, 138960, Note_on_c, 0, 70, 40
2, 139080, Note_on_c, 0, 70, 0
2, 139200, Note_on_c, 0, 78, 44
2, 139320, Note_on_c, 0, 78, 0
2, 139440, Note_on_c, 0, 66, 39
2, 139560, Note_on_c, 0, 66, 0
2, 139680, Note_on_c, 0, 71, 34
2, 139680, Note_on_c, 0, 74, 38
2, 139800, Note_on_c, 0, 74, 0
2, 139800, Note_on_c, 0, 71, 0
2, 139920, Note_on_c, 0, 66, 38
2, 140040, Note_on_c, 0, 66, 0
2, 140160, Note_on_c, 0, 76, 41
2, 140280, Note_on_c, 0, 76, 0
2, 140400, Note_on_c, 0, 67, 36
2, 140520, Note_on_c, 0, 67, 0
2, 140640, Note_on_c, 0, 70, 32
2, 140640, Note_on_c, 0, 73, 36
2, 140760, Note_on_c, 0, 73, 0
2, 140760, Note_on_c, 0, 70, 0
2, 140880, Note_on_c, 0, 67, 36
2, 141000, Note_on_c, 0, 67, 0
2, 141120, Note_on_c, 0, 73, 38
2, 141120, Note_on_c, 0, 71, 34
2, 141240, Note_on_c, 0, 71, 0
2, 141240, Note_on_c, 0, 73, 0
2, 141360, Note_on_c, 0, 66, 32
2, 141480, Note_on_c, 0, 66, 0
2, 141600, Note_on_c, 0, 71, 28
2, 141600, Note_on_c, 0, 74, 32
2, 141720, Note_on_c, 0, 74, 0
2, 141720, Note_on_c, 0, 71, 0
2, 141840, Note_on_c, 0, 66, 32
2, 141960, Note_on_c, 0, 66, 0
2, 142080, Note_on_c, 0, 79, 40
2, 142200, Note_on_c, 0, 79, 0
2, 142320, Note_on_c, 0, 70, 36
2, 142440, Note_on_c, 0, 70, 0
2, 142560, Note_on_c, 0, 73, 32
2, 142560, Note_on_c, 0, 76, 36
2, 142680, Note_on_c, 0, 76, 0
2, 142680, Note_on_c, 0, 73, 0
2, 142800, Note_on_c, 0, 70, 36
2, 142920, Note_on_c, 0, 70, 0
2, 143040, Note_on_c, 0, 73, 35
2, 143040, Note_on_c, 0, 78, 39
2, 143160, Note_on_c, 0, 78, 0
2, 143160, Note_on_c, 0, 73, 0
2, 143280, Note_on_c, 0, 70, 32
2, 143400, Note_on_c, 0, 70, 0
2, 143520, Note_on_c, 0, 74, 28
2, 143520, Note_on_c, 0, 78, 32
2, 143640, Note_on_c, 0, 78, 0
2, 143640, Note_on_c, 0, 74, 0
2, 143760, Note_on_c, 0, 71, 32
2, 143880, Note_on_c, 0, 71, 0
2, 144000, Note_on_c, 0, 83, 46
2, 144120, Note_on_c, 0, 83, 0
2, 144240, Note_on_c, 0, 71, 40
2, 144360, Note_on_c, 0, 71, 0
2, 144480, Note_on_c, 0, 74, 36
2, 144480, Note_on_c, 0, 79, 40
2, 144600, Note_on_c, 0, 79, 0
2, 144600, Note_on_c, 0, 74, 0
2, 144720, Note_on_c, 0, 71, 40
2, 144840, Note_on_c, 0, 71, 0
2, 144960, Note_on_c, 0, 79, 44
2, 145080, Note_on_c, 0, 79, 0
2, 145200, Note_on_c, 0, 67, 33
2, 145320, Note_on_c, 0, 67, 0
2, 145440, Note_on_c, 0, 72, 34
2, 145440, Note_on_c, 0, 75, 38
2, 145560, Note_on_c, 0, 75, 0
2, 145560, Note_on_c, 0, 72, 0
2, 145680, Note_on_c, 0, 67, 38
2, 145800, Note_on_c, 0, 67, 0
2, 145920, Note_on_c, 0, 77, 41
2, 146040, Note_on_c, 0, 77, 0
2, 146160, Note_on_c, 0, 68, 37
2, 146280, Note_on_c, 0, 68, 0
2, 146400, Note_on_c, 0, 71, 33
2, 146400, Note_on_c, 0, 74, 37
2, 146520, Note_on_c, 0, 74, 0
2, 146520, Note_on_c, 0, 71, 0
2, 146640, Note_on_c, 0, 68, 37
2, 146760, Note_on_c, 0, 68, 0
2, 146880, Note_on_c, 0, 74, 40
2, 146880, Note_on_c, 0, 72, 36
2, 147000, Note_on_c, 0, 72, 0
2, 147000, Note_on_c, 0, 74, 0
2, 147120, Note_on_c, 0, 67, 33
2, 147240, Note_on_c, 0, 67, 0
2, 147360, Note_on_c, 0, 72, 29
2, 147360, Note_on_c, 0, 75, 33
2, 147480, Note_on_c, 0, 75, 0
2, 147480, Note_on_c, 0, 72, 0
2, 147600, Note_on_c, 0, 67, 33
2, 147720, Note_on_c, 0, 67, 0
2, 147840, Note_on_c, 0, 80, 44
2, 147960, Note_on_c, 0, 80, 0
2, 148080, Note_on_c, 0, 71, 37
2, 148200, Note_on_c, 0, 71, 0
2, 148320, Note_on_c, 0, 74, 33
2, 148320, Note_on_c, 0, 77, 37
2, 148440, Note_on_c, 0, 77, 0
2, 148440, Note_on_c, 0, 74, 0
2, 148560, Note_on_c, 0, 71, 35
2, 148680, Note_on_c, 0, 71, 0
2, 148800, Note_on_c, 0, 74, 36
2, 148800, Note_on_c, 0, 79, 40
2, 148920, Note_on_c, 0, 79, 0
2, 148920, Note_on_c, 0, 74, 0
2, 149040, Note_on_c, 0, 71, 36
2, 149160, Note_on_c, 0, 71, 0
2, 149280, Note_on_c, 0, 75, 32
2, 149280, Note_on_c, 0, 79, 36
2, 149400, Note_on_c, 0, 79, 0
2, 149400, Note_on_c, 0, 75, 0
2, 149520, Note_on_c, 0, 72, 36
2, 149640, Note_on_c, 0, 72, 0
2, 149760, Note_on_c, 0, 70, 45
2, 149880, Note_on_c, 0, 70, 0
2, 150000, Note_on_c, 0, 75, 41
2, 150120, Note_on_c, 0, 75, 0
2, 150240, Note_on_c, 0, 74, 41
2, 150360, Note_on_c, 0, 74, 0
2, 150480, Note_on_c, 0, 75, 41
2, 150600, Note_on_c, 0, 75, 0
2, 150720, Note_on_c, 0, 75, 48
2, 150840, Note_on_c, 0, 75, 0
2, 150960, Note_on_c, 0, 80, 45
2, 151080, Note_on_c, 0, 80, 0
2, 151200, Note_on_c, 0, 79, 45
2, 151320, Note_on_c, 0, 79, 0
2, 151440, Note_on_c, 0, 80, 45
2, 151560, Note_on_c, 0, 80, 0
2, 151680, Note_on_c, 0, 87, 54
2, 151800, Note_on_c, 0, 87, 0
2, 151920, Note_on_c, 0, 75, 45
2, 152040, Note_on_c, 0, 75, 0
2, 152160, Note_on_c, 0, 79, 45
2, 152280, Note_on_c, 0, 79, 0
2, 152400, Note_on_c, 0, 75, 45
2, 152520, Note_on_c, 0, 75, 0
2, 152640, Note_on_c, 0, 75, 50
2, 152760, Note_on_c, 0, 75, 0
2, 152880, Note_on_c, 0, 80, 41
2, 153000, Note_on_c, 0, 80, 0
2, 153120, Note_on_c, 0, 79, 41
2, 153240, Note_on_c, 0, 79, 0
2, 153360, Note_on_c, 0, 80, 41
2, 153480, Note_on_c, 0, 80, 0
2, 153600, Note_on_c, 0, 78, 48
2, 153720, Note_on_c, 0, 78, 0
2, 153840, Note_on_c, 0, 66, 42
2, 153960, Note_on_c, 0, 66, 0
2, 154080, Note_on_c, 0, 70, 42
2, 154200, Note_on_c, 0, 70, 0
2, 154320, Note_on_c, 0, 66, 42
2, 154440, Note_on_c, 0, 66, 0
2, 154560, Note_on_c, 0, 66, 47
2, 154680, Note_on_c, 0, 66, 0
2, 154800, Note_on_c, 0, 71, 43
2, 154920, Note_on_c, 0, 71, 0
2, 155040, Note_on_c, 0, 70, 43
2, 155160, Note_on_c, 0, 70, 0
2, 155280, Note_on_c, 0, 71, 44
2, 155400, Note_on_c, 0, 71, 0
2, 155520, Note_on_c, 0, 71, 51
2, 155640, Note_on_c, 0, 71, 0
2, 155760, Note_on_c, 0, 76, 47
2, 155880, Note_on_c, 0, 76, 0
2, 156000, Note_on_c, 0, 75, 47
2, 156120, Note_on_c, 0, 75, 0
2, 156240, Note_on_c, 0, 76, 48
2, 156360, Note_on_c, 0, 76, 0
2, 156480, Note_on_c, 0, 76, 59
2, 156600, Note_on_c, 0, 76, 0
2, 156720, Note_on_c, 0, 81, 54
2, 156840, Note_on_c, 0, 81, 0
2, 156960, Note_on_c, 0, 80, 54
2, 157080, Note_on_c, 0, 80, 0
2, 157200, Note_on_c, 0, 81, 54
2, 157320, Note_on_c, 0, 81, 0
2, 157440, Note_on_c, 0, 88, 71
2, 157560, Note_on_c, 0, 88, 0
2, 157680, Note_on_c, 0, 76, 60
2, 157800, Note_on_c, 0, 76, 0
2, 157920, Note_on_c, 0, 80, 61
2, 158040, Note_on_c, 0, 80, 0
2, 158160, Note_on_c, 0, 76, 61
2, 158280, Note_on_c, 0, 76, 0
2, 158400, Note_on_c, 0, 76, 65
2, 158520, Note_on_c, 0, 76, 0
2, 158640, Note_on_c, 0, 81, 60
2, 158760, Note_on_c, 0, 81, 0
2, 158880, Note_on_c, 0, 80, 60
2, 159000, Note_on_c, 0, 80, 0
2, 159120, Note_on_c, 0, 81, 60
2, 159240, Note_on_c, 0, 81, 0
2, 159360, Note_on_c, 0, 79, 69
2, 159480, Note_on_c, 0, 79, 0
2, 159600, Note_on_c, 0, 67, 62
2, 159720, Note_on_c, 0, 67, 0
2, 159840, Note_on_c, 0, 71, 62
2, 159960, Note_on_c, 0, 71, 0
2, 160080, Note_on_c, 0, 67, 62
2, 160200, Note_on_c, 0, 67, 0
2, 160320, Note_on_c, 0, 67, 67
2, 160440, Note_on_c, 0, 67, 0
2, 160560, Note_on_c, 0, 72, 58
2, 160680, Note_on_c, 0, 72, 0
2, 160800, Note_on_c, 0, 71, 58
2, 160920, Note_on_c, 0, 71, 0
2, 161040, Note_on_c, 0, 72, 58
2, 161155, Note_on_c, 0, 72, 0
2, 161280, Note_on_c, 0, 73, 81
2, 161760, Note_on_c, 0, 73, 0
2, 161760, Note_on_c, 0, 72, 69
2, 161760, Note_on_c, 0, 73, 77
2, 161940, Note_on_c, 0, 73, 0
2, 161940, Note_on_c, 0, 72, 0
2, 162000, Note_on_c, 0, 70, 69
2, 162000, Note_on_c, 0, 73, 77
2, 162180, Note_on_c, 0, 73, 0
2, 162180, Note_on_c, 0, 70, 0
2, 162240, Note_on_c, 0, 70, 72
2, 162240, Note_on_c, 0, 73, 81
2, 162720, Note_on_c, 0, 73, 0
2, 162720, Note_on_c, 0, 70, 0
2, 162720, Note_on_c, 0, 68, 70
2, 162720, Note_on_c, 0, 73, 78
2, 162900, Note_on_c, 0, 73, 0
2, 162900, Note_on_c, 0, 68, 0
2, 162960, Note_on_c, 0, 67, 70
2, 162960, Note_on_c, 0, 73, 78
2, 163140, Note_on_c, 0, 73, 0
2, 163140, Note_on_c, 0, 67, 0
2, 163200, Note_on_c, 0, 67, 72
2, 163200, Note_on_c, 0, 70, 72
2, 163200, Note_on_c, 0, 73, 81
2, 163680, Note_on_c, 0, 73, 0
2, 163680, Note_on_c, 0, 70, 0
2, 163680, Note_on_c, 0, 67, 0
2, 163680, Note_on_c, 0, 65, 69
2, 163680, Note_on_c, 0, 68, 69
2, 163680, Note_on_c, 0, 73, 77
2, 163860, Note_on_c, 0, 73, 0
2, 163860, Note_on_c, 0, 68, 0
2, 163860, Note_on_c, 0, 65, 0
2, 163920, Note_on_c, 0, 64, 69
2, 163920, Note_on_c, 0, 67, 69
2, 163920, Note_on_c, 0, 73, 77
2, 164093, Note_on_c, 0, 73, 0
2, 164093, Note_on_c, 0, 67, 0
2, 164093, Note_on_c, 0, 64, 0
2, 164160, Note_on_c, 0, 84, 97
2, 164160, Note_on_c, 0, 82, 87
2, 164160, Note_on_c, 0, 79, 87
2, 164640, Note_on_c, 0, 79, 0
2, 164640, Note_on_c, 0, 82, 0
2, 164640, Note_on_c, 0, 84, 0
2, 164640, Note_on_c, 0, 77, 79
2, 164640, Note_on_c, 0, 80, 79
2, 164640, Note_on_c, 0, 84, 88
2, 164820, Note_on_c, 0, 84, 0
2, 164820, Note_on_c, 0, 80, 0
2, 164820, Note_on_c, 0, 77, 0
2, 164880, Note_on_c, 0, 76, 81
2, 164880, Note_on_c, 0, 79, 81
2, 164880, Note_on_c, 0, 84, 91
2, 165053, Note_on_c, 0, 84, 0
2, 165053, Note_on_c, 0, 79, 0
2, 165053, Note_on_c, 0, 76, 0
2, 165120, Note_on_c, 0, 73, 81
2, 165600, Note_on_c, 0, 73, 0
2, 165600, Note_on_c, 0, 72, 69
2, 165600, Note_on_c, 0, 73, 77
2, 165780, Note_on_c, 0, 73, 0
2, 165780, Note_on_c, 0, 72, 0
2, 165840, Note_on_c, 0, 70, 69
2, 165840, Note_on_c, 0, 73, 77
2, 166020, Note_on_c, 0, 73, 0
2, 166020, Note_on_c, 0, 70, 0
2, 166080, Note_on_c, 0, 70, 72
2, 166080, Note_on_c, 0, 73, 81
2, 166560, Note_on_c, 0, 73, 0
2, 166560, Note_on_c, 0, 70, 0
2, 166560, Note_on_c, 0, 68, 70
2, 166560, Note_on_c, 0, 73, 78
2, 166740, Note_on_c, 0, 73, 0
2, 166740, Note_on_c, 0, 68, 0
2, 166800, Note_on_c, 0, 67, 70
2, 166800, Note_on_c, 0, 73, 78
2, 166980, Note_on_c, 0, 73, 0
2, 166980, Note_on_c, 0, 67, 0
2, 167040, Note_on_c, 0, 67, 72
2, 167040, Note_on_c, 0, 70, 72
2, 167040, Note_on_c, 0, 73, 81
2, 167520, Note_on_c, 0, 73, 0
2, 167520, Note_on_c, 0, 70, 0
2, 167520, Note_on_c, 0, 67, 0
2, 167520, Note_on_c, 0, 65, 69
2, 167520, Note_on_c, 0, 68, 69
2, 167520, Note_on_c, 0, 73, 77
2, 167700, Note_on_c, 0, 73, 0
2, 167700, Note_on_c, 0, 68, 0
2, 167700, Note_on_c, 0, 65, 0
2, 167760, Note_on_c, 0, 64, 69
2, 167760, Note_on_c, 0, 67, 69
2, 167760, Note_on_c, 0, 73, 77
2, 167933, Note_on_c, 0, 73, 0
2, 167933, Note_on_c, 0, 67, 0
2, 167933, Note_on_c, 0, 64, 0
2, 168000, Note_on_c, 0, 84, 102
2, 168000, Note_on_c, 0, 82, 91
2, 168000, Note_on_c, 0, 79, 91
2, 168480, Note_on_c, 0, 79, 0
2, 168480, Note_on_c, 0, 82, 0
2, 168480, Note_on_c, 0, 84, 0
2, 168480, Note_on_c, 0, 77, 82
2, 168480, Note_on_c, 0, 80, 82
2, 168480, Note_on_c, 0, 84, 92
2, 168660, Note_on_c, 0, 84, 0
2, 168660, Note_on_c, 0, 80, 0
2, 168660, Note_on_c, 0, 77, 0
2, 168720, Note_on_c, 0, 76, 82
2, 168720, Note_on_c, 0, 79, 82
2, 168720, Note_on_c, 0, 84, 92
2, 168893, Note_on_c, 0, 84, 0
2, 168893, Note_on_c, 0, 79, 0
2, 168893, Note_on_c, 0, 76, 0
2, 168960, Note_on_c, 0, 67, 50
2, 168960, Note_on_c, 0, 70, 50
2, 168960, Note_on_c, 0, 73, 56
2, 169440, Note_on_c, 0, 73, 0
2, 169440, Note_on_c, 0, 70, 0
2, 169440, Note_on_c, 0, 67, 0
2, 169440, Note_on_c, 0, 65, 44
2, 169440, Note_on_c, 0, 68, 44
2, 169440, Note_on_c, 0, 73, 49
2, 169620, Note_on_c, 0, 73, 0
2, 169620, Note_on_c, 0, 68, 0
2, 169620, Note_on_c, 0, 65, 0
2, 169680, Note_on_c, 0, 64, 44
2, 169680, Note_on_c, 0, 67, 44
2, 169680, Note_on_c, 0, 73, 49
2, 169853, Note_on_c, 0, 73, 0
2, 169853, Note_on_c, 0, 67, 0
2, 169853, Note_on_c, 0, 64, 0
2, 169920, Note_on_c, 0, 84, 100
2, 169920, Note_on_c, 0, 82, 90
2, 169920, Note_on_c, 0, 79, 90
2, 170400, Note_on_c, 0, 79, 0
2, 170400, Note_on_c, 0, 82, 0
2, 170400, Note_on_c, 0, 84, 0
2, 170400, Note_on_c, 0, 77, 82
2, 170400, Note_on_c, 0, 80, 82
2, 170400, Note_on_c, 0, 84, 92
2, 170580, Note_on_c, 0, 84, 0
2, 170580, Note_on_c, 0, 80, 0
2, 170580, Note_on_c, 0, 77, 0
2, 170640, Note_on_c, 0, 76, 82
2, 170640, Note_on_c, 0, 79, 82
2, 170640, Note_on_c, 0, 84, 92
2, 170813, Note_on_c, 0, 84, 0
2, 170813, Note_on_c, 0, 79, 0
2, 170813, Note_on_c, 0, 76, 0
2, 170880, Note_on_c, 0, 60, 48
2, 171120, Note_on_c, 0, 60, 0
2, 171360, Note_on_c, 0, 61, 45
2, 171480, Note_on_c, 0, 61, 0
2, 171600, Note_on_c, 0, 60, 45
2, 171720, Note_on_c, 0, 60, 0
2, 171840, Note_on_c, 0, 61, 48
2, 172080, Note_on_c, 0, 61, 0
2, 172320, Note_on_c, 0, 60, 45
2, 172440, Note_on_c, 0, 60, 0
2, 172560, Note_on_c, 0, 62, 45
2, 172680, Note_on_c, 0, 62, 0
2, 172800, Note_on_c, 0, 64, 48
2, 173040, Note_on_c, 0, 64, 0
2, 173280, Note_on_c, 0, 65, 45
2, 173400, Note_on_c, 0, 65, 0
2, 173520, Note_on_c, 0, 64, 45
2, 173640, Note_on_c, 0, 64, 0
2, 173760, Note_on_c, 0, 65, 48
2, 174000, Note_on_c, 0, 65, 0
2, 174240, Note_on_c, 0, 64, 50
2, 174360, Note_on_c, 0, 64, 0
2, 174480, Note_on_c, 0, 66, 52
2, 174600, Note_on_c, 0, 66, 0
2, 174720, Note_on_c, 0, 67, 54
2, 175200, Note_on_c, 0, 67, 0
2, 175200, Note_on_c, 0, 68, 56
2, 175440, Note_on_c, 0, 68, 0
2, 175440, Note_on_c, 0, 67, 58
2, 175680, Note_on_c, 0, 67, 0
2, 175680, Note_on_c, 0, 70, 60
2, 176160, Note_on_c, 0, 70, 0
2, 176160, Note_on_c, 0, 68, 63
2, 176400, Note_on_c, 0, 68, 0
2, 176400, Note_on_c, 0, 73, 64
2, 176640, Note_on_c, 0, 73, 0
2, 176640, Note_on_c, 0, 72, 66
2, 177120, Note_on_c, 0, 72, 0
2, 177120, Note_on_c, 0, 74, 70
2, 177360, Note_on_c, 0, 74, 0
2, 177360, Note_on_c, 0, 75, 72
2, 177600, Note_on_c, 0, 75, 0
2, 177600, Note_on_c, 0, 76, 72
2, 178080, Note_on_c, 0, 76, 0
2, 178080, Note_on_c, 0, 77, 76
2, 178320, Note_on_c, 0, 77, 0
2, 178320, Note_on_c, 0, 79, 78
2, 178560, Note_on_c, 0, 79, 0
2, 178560, Note_on_c, 0, 72, 72
2, 178560, Note_on_c, 0, 68, 72
2, 178560, Note_on_c, 0, 80, 81
2, 179040, Note_on_c, 0, 80, 0
2, 179040, Note_on_c, 0, 68, 0
2, 179040, Note_on_c, 0, 72, 0
2, 179040, Note_on_c, 0, 79, 77
2, 179040, Note_on_c, 0, 72, 69
2, 179040, Note_on_c, 0, 68, 69
2, 179160, Note_on_c, 0, 68, 0
2, 179160, Note_on_c, 0, 72, 0
2, 179160, Note_on_c, 0, 79, 0
2, 179280, Note_on_c, 0, 77, 77
2, 179280, Note_on_c, 0, 72, 69
2, 179280, Note_on_c, 0, 68, 69
2, 179400, Note_on_c, 0, 68, 0
2, 179400, Note_on_c, 0, 72, 0
2, 179400, Note_on_c, 0, 77, 0
2, 179520, Note_on_c, 0, 77, 81
2, 179520, Note_on_c, 0, 72, 72
2, 179520, Note_on_c, 0, 68, 72
2, 180000, Note_on_c, 0, 68, 0
2, 180000, Note_on_c, 0, 72, 0
2, 180000, Note_on_c, 0, 77, 0
2, 180000, Note_on_c, 0, 68, 70
2, 180000, Note_on_c, 0, 72, 78
2, 180120, Note_on_c, 0, 72, 0
2, 180120, Note_on_c, 0, 68, 0
2, 180240, Note_on_c, 0, 68, 70
2, 180240, Note_on_c, 0, 72, 78
2, 180360, Note_on_c, 0, 72, 0
2, 180360, Note_on_c, 0, 68, 0
2, 180480, Note_on_c, 0, 77, 81
2, 180480, Note_on_c, 0, 73, 72
2, 180480, Note_on_c, 0, 70, 72
2, 180960, Note_on_c, 0, 70, 0
2, 180960, Note_on_c, 0, 73, 0
2, 180960, Note_on_c, 0, 77, 0
2, 180960, Note_on_c, 0, 70, 69
2, 180960, Note_on_c, 0, 73, 77
2, 181080, Note_on_c, 0, 73, 0
2, 181080, Note_on_c, 0, 70, 0
2, 181200, Note_on_c, 0, 70, 68
2, 181200, Note_on_c, 0, 73, 76
2, 181440, Note_on_c, 0, 73, 0
2, 181440, Note_on_c, 0, 70, 0
2, 181440, Note_on_c, 0, 77, 81
2, 181440, Note_on_c, 0, 72, 72
2, 181440, Note_on_c, 0, 68, 72
2, 181910, Note_on_c, 0, 68, 0
2, 181910, Note_on_c, 0, 72, 0
2, 181910, Note_on_c, 0, 77, 0
2, 181920, Note_on_c, 0, 68, 49
2, 181920, Note_on_c, 0, 72, 55
2, 182040, Note_on_c, 0, 72, 0
2, 182040, Note_on_c, 0, 68, 0
2, 182160, Note_on_c, 0, 68, 49
2, 182160, Note_on_c, 0, 72, 55
2, 182280, Note_on_c, 0, 72, 0
2, 182280, Note_on_c, 0, 68, 0
2, 182400, Note_on_c, 0, 68, 43
2, 182400, Note_on_c, 0, 72, 48
2, 182880, Note_on_c, 0, 72, 0
2, 182880, Note_on_c, 0, 68, 0
2, 182880, Note_on_c, 0, 67, 43
2, 182880, Note_on_c, 0, 68, 43
2, 182880, Note_on_c, 0, 72, 48
2, 183000, Note_on_c, 0, 72, 0
2, 183000, Note_on_c, 0, 68, 0
2, 183000, Note_on_c, 0, 67, 0
2, 183120, Note_on_c, 0, 65, 40
2, 183120, Note_on_c, 0, 68, 40
2, 183120, Note_on_c, 0, 72, 45
2, 183240, Note_on_c, 0, 72, 0
2, 183240, Note_on_c, 0, 68, 0
2, 183240, Note_on_c, 0, 65, 0
2, 183360, Note_on_c, 0, 65, 40
2, 183360, Note_on_c, 0, 68, 40
2, 183360, Note_on_c, 0, 72, 45
2, 183840, Note_on_c, 0, 72, 0
2, 183840, Note_on_c, 0, 68, 0
2, 183840, Note_on_c, 0, 65, 0
2, 183840, Note_on_c, 0, 60, 43
2, 183840, Note_on_c, 0, 68, 43
2, 183840, Note_on_c, 0, 72, 48
2, 183960, Note_on_c, 0, 72, 0
2, 183960, Note_on_c, 0, 68, 0
2, 183960, Note_on_c, 0, 60, 0
2, 184080, Note_on_c, 0, 60, 40
2, 184080, Note_on_c, 0, 68, 40
2, 184080, Note_on_c, 0, 72, 45
2, 184200, Note_on_c, 0, 72, 0
2, 184200, Note_on_c, 0, 68, 0
2, 184200, Note_on_c, 0, 60, 0
2, 184320, Note_on_c, 0, 73, 45
2, 184320, Note_on_c, 0, 70, 40
2, 184320, Note_on_c, 0, 65, 40
2, 184800, Note_on_c, 0, 65, 0
2, 184800, Note_on_c, 0, 70, 0
2, 184800, Note_on_c, 0, 73, 0
2, 184800, Note_on_c, 0, 61, 43
2, 184800, Note_on_c, 0, 70, 43
2, 184800, Note_on_c, 0, 73, 48
2, 184920, Note_on_c, 0, 73, 0
2, 184920, Note_on_c, 0, 70, 0
2, 184920, Note_on_c, 0, 61, 0
2, 185040, Note_on_c, 0, 61, 40
2, 185040, Note_on_c, 0, 70, 40
2, 185040, Note_on_c, 0, 73, 45
2, 185160, Note_on_c, 0, 73, 0
2, 185160, Note_on_c, 0, 70, 0
2, 185160, Note_on_c, 0, 61, 0
2, 185280, Note_on_c, 0, 65, 40
2, 185280, Note_on_c, 0, 68, 40
2, 185280, Note_on_c, 0, 72, 45
2, 185760, Note_on_c, 0, 72, 0
2, 185760, Note_on_c, 0, 68, 0
2, 185760, Note_on_c, 0, 65, 0
2, 185760, Note_on_c, 0, 60, 40
2, 185760, Note_on_c, 0, 68, 40
2, 185760, Note_on_c, 0, 72, 45
2, 185880, Note_on_c, 0, 72, 0
2, 185880, Note_on_c, 0, 68, 0
2, 185880, Note_on_c, 0, 60, 0
2, 186000, Note_on_c, 0, 60, 40
2, 186000, Note_on_c, 0, 68, 40
2, 186000, Note_on_c, 0, 72, 45
2, 186120, Note_on_c, 0, 72, 0
2, 186120, Note_on_c, 0, 68, 0
2, 186120, Note_on_c, 0, 60, 0
2, 186240, Note_on_c, 0, 76, 55
2, 186240, Note_on_c, 0, 73, 49
2, 186240, Note_on_c, 0, 70, 49
2, 186720, Note_on_c, 0, 70, 0
2, 186720, Note_on_c, 0, 73, 0
2, 186720, Note_on_c, 0, 76, 0
2, 186720, Note_on_c, 0, 76, 52
2, 186720, Note_on_c, 0, 73, 46
2, 186720, Note_on_c, 0, 67, 46
2, 186840, Note_on_c, 0, 67, 0
2, 186840, Note_on_c, 0, 73, 0
2, 186840, Note_on_c, 0, 76, 0
2, 186960, Note_on_c, 0, 76, 52
2, 186960, Note_on_c, 0, 73, 46
2, 186960, Note_on_c, 0, 67, 46
2, 187080, Note_on_c, 0, 67, 0
2, 187080, Note_on_c, 0, 73, 0
2, 187080, Note_on_c, 0, 76, 0
2, 187200, Note_on_c, 0, 68, 54
2, 187200, Note_on_c, 0, 72, 54
2, 187200, Note_on_c, 0, 77, 61
2, 187680, Note_on_c, 0, 77, 0
2, 187680, Note_on_c, 0, 72, 0
2, 187680, Note_on_c, 0, 68, 0
2, 187680, Note_on_c, 0, 65, 52
2, 187680, Note_on_c, 0, 72, 52
2, 187680, Note_on_c, 0, 77, 58
2, 187800, Note_on_c, 0, 77, 0
2, 187800, Note_on_c, 0, 72, 0
2, 187800, Note_on_c, 0, 65, 0
2, 187920, Note_on_c, 0, 65, 52
2, 187920, Note_on_c, 0, 72, 52
2, 187920, Note_on_c, 0, 77, 58
2, 188040, Note_on_c, 0, 77, 0
2, 188040, Note_on_c, 0, 72, 0
2, 188040, Note_on_c, 0, 65, 0
2, 188160, Note_on_c, 0, 67, 60
2, 188160, Note_on_c, 0, 79, 67
2, 188160, Note_on_c, 0, 72, 60
2, 188640, Note_on_c, 0, 72, 0
2, 188640, Note_on_c, 0, 79, 0
2, 188640, Note_on_c, 0, 67, 0
2, 188640, Note_on_c, 0, 76, 60
2, 188640, Note_on_c, 0, 72, 54
2, 188640, Note_on_c, 0, 67, 54
2, 188760, Note_on_c, 0, 67, 0
2, 188760, Note_on_c, 0, 72, 0
2, 188760, Note_on_c, 0, 76, 0
2, 188880, Note_on_c, 0, 76, 60
2, 188880, Note_on_c, 0, 72, 54
2, 188880, Note_on_c, 0, 67, 54
2, 189000, Note_on_c, 0, 67, 0
2, 189000, Note_on_c, 0, 72, 0
2, 189000, Note_on_c, 0, 76, 0
2, 189120, Note_on_c, 0, 68, 65
2, 189120, Note_on_c, 0, 72, 65
2, 189120, Note_on_c, 0, 80, 73
2, 189600, Note_on_c, 0, 80, 0
2, 189600, Note_on_c, 0, 72, 0
2, 189600, Note_on_c, 0, 68, 0
2, 189600, Note_on_c, 0, 68, 61
2, 189600, Note_on_c, 0, 72, 61
2, 189600, Note_on_c, 0, 77, 68
2, 189720, Note_on_c, 0, 77, 0
2, 189720, Note_on_c, 0, 72, 0
2, 189720, Note_on_c, 0, 68, 0
2, 189840, Note_on_c, 0, 68, 61
2, 189840, Note_on_c, 0, 72, 61
2, 189840, Note_on_c, 0, 77, 68
2, 189960, Note_on_c, 0, 77, 0
2, 189960, Note_on_c, 0, 72, 0
2, 189960, Note_on_c, 0, 68, 0
2, 190080, Note_on_c, 0, 82, 84
2, 190080, Note_on_c, 0, 72, 75
2, 190560, Note_on_c, 0, 72, 0
2, 190560, Note_on_c, 0, 82, 0
2, 190560, Note_on_c, 0, 84, 77
2, 190560, Note_on_c, 0, 72, 69
2, 190680, Note_on_c, 0, 72, 0
2, 190680, Note_on_c, 0, 84, 0
2, 190800, Note_on_c, 0, 84, 77
2, 190800, Note_on_c, 0, 72, 69
2, 190920, Note_on_c, 0, 72, 0
2, 190920, Note_on_c, 0, 84, 0
2, 191040, Note_on_c, 0, 83, 89
2, 191040, Note_on_c, 0, 72, 80
2, 191520, Note_on_c, 0, 72, 0
2, 191520, Note_on_c, 0, 83, 0
2, 191520, Note_on_c, 0, 84, 85
2, 191520, Note_on_c, 0, 72, 76
2, 191640, Note_on_c, 0, 72, 0
2, 191640, Note_on_c, 0, 84, 0
2, 191760, Note_on_c, 0, 84, 85
2, 191760, Note_on_c, 0, 72, 76
2, 191880, Note_on_c, 0, 72, 0
2, 191880, Note_on_c, 0, 84, 0
2, 192000, Note_on_c, 0, 84, 97
2, 192000, Note_on_c, 0, 72, 87
2, 192480, Note_on_c, 0, 72, 0
2, 192480, Note_on_c, 0, 84, 0
2, 192480, Note_on_c, 0, 85, 97
2, 192480, Note_on_c, 0, 82, 87
2, 192480, Note_on_c, 0, 73, 87
2, 192720, Note_on_c, 0, 73, 0
2, 192720, Note_on_c, 0, 82, 0
2, 192720, Note_on_c, 0, 85, 0
2, 192960, Note_on_c, 0, 85, 97
2, 192960, Note_on_c, 0, 82, 87
2, 192960, Note_on_c, 0, 73, 87
2, 193200, Note_on_c, 0, 73, 0
2, 193200, Note_on_c, 0, 82, 0
2, 193200, Note_on_c, 0, 85, 0
2, 193440, Note_on_c, 0, 85, 97
2, 193440, Note_on_c, 0, 82, 87
2, 193440, Note_on_c, 0, 73, 87
2, 193680, Note_on_c, 0, 73, 0
2, 193680, Note_on_c, 0, 82, 0
2, 193680, Note_on_c, 0, 85, 0
2, 193920, Note_on_c, 0, 85, 97
2, 193920, Note_on_c, 0, 82, 87
2, 193920, Note_on_c, 0, 73, 87
2, 194160, Note_on_c, 0, 73, 0
2, 194160, Note_on_c, 0, 82, 0
2, 194160, Note_on_c, 0, 85, 0
2, 194400, Note_on_c, 0, 90, 97
2, 194400, Note_on_c, 0, 85, 87
2, 194400, Note_on_c, 0, 78, 87
2, 194640, Note_on_c, 0, 78, 0
2, 194640, Note_on_c, 0, 85, 0
2, 194640, Note_on_c, 0, 90, 0
2, 194880, Note_on_c, 0, 90, 90
2, 194880, Note_on_c, 0, 85, 81
2, 194880, Note_on_c, 0, 78, 81
2, 195360, Note_on_c, 0, 78, 0
2, 195360, Note_on_c, 0, 85, 0
2, 195360, Note_on_c, 0, 90, 0
2, 195360, Note_on_c, 0, 90, 95
2, 195360, Note_on_c, 0, 85, 85
2, 195360, Note_on_c, 0, 78, 85
2, 195480, Note_on_c, 0, 78, 0
2, 195480, Note_on_c, 0, 85, 0
2, 195480, Note_on_c, 0, 90, 0
2, 195600, Note_on_c, 0, 90, 97
2, 195600, Note_on_c, 0, 85, 87
2, 195600, Note_on_c, 0, 78, 87
2, 195720, Note_on_c, 0, 78, 0
2, 195720, Note_on_c, 0, 85, 0
2, 195720, Note_on_c, 0, 90, 0
2, 195840, Note_on_c, 0, 92, 99
2, 195840, Note_on_c, 0, 89, 89
2, 195840, Note_on_c, 0, 80, 89
2, 196320, Note_on_c, 0, 80, 0
2, 196320, Note_on_c, 0, 89, 0
2, 196320, Note_on_c, 0, 92, 0
2, 196320, Note_on_c, 0, 92, 94
2, 196320, Note_on_c, 0, 89, 84
2, 196320, Note_on_c, 0, 80, 84
2, 196440, Note_on_c, 0, 80, 0
2, 196440, Note_on_c, 0, 89, 0
2, 196440, Note_on_c, 0, 92, 0
2, 196560, Note_on_c, 0, 92, 91
2, 196560, Note_on_c, 0, 89, 81
2, 196560, Note_on_c, 0, 80, 81
2, 196680, Note_on_c, 0, 80, 0
2, 196680, Note_on_c, 0, 89, 0
2, 196680, Note_on_c, 0, 92, 0
2, 196800, Note_on_c, 0, 90, 89
2, 196800, Note_on_c, 0, 78, 80
2, 197040, Note_on_c, 0, 78, 0
2, 197040, Note_on_c, 0, 90, 0
2, 197280, Note_on_c, 0, 83, 92
2, 197280, Note_on_c, 0, 80, 82
2, 197280, Note_on_c, 0, 77, 82
2, 197280, Note_on_c, 0, 71, 82
2, 197520, Note_on_c, 0, 71, 0
2, 197520, Note_on_c, 0, 83, 0
2, 197520, Note_on_c, 0, 80, 0
2, 197520, Note_on_c, 0, 77, 0
2, 197760, Note_on_c, 0, 84, 92
2, 197760, Note_on_c, 0, 80, 82
2, 197760, Note_on_c, 0, 77, 82
2, 197760, Note_on_c, 0, 72, 82
2, 198000, Note_on_c, 0, 72, 0
2, 198000, Note_on_c, 0, 84, 0
2, 198000, Note_on_c, 0, 80, 0
2, 198000, Note_on_c, 0, 77, 0
2, 198240, Note_on_c, 0, 84, 92
2, 198240, Note_on_c, 0, 79, 82
2, 198240, Note_on_c, 0, 76, 82
2, 198240, Note_on_c, 0, 72, 82
2, 198480, Note_on_c, 0, 72, 0
2, 198480, Note_on_c, 0, 84, 0
2, 198480, Note_on_c, 0, 79, 0
2, 198480, Note_on_c, 0, 76, 0
2, 198720, Note_on_c, 0, 65, 82
2, 198720, Note_on_c, 0, 77, 92
2, 199200, Note_on_c, 0, 77, 0
2, 199200, Note_on_c, 0, 65, 0
2, 199200, Note_on_c, 0, 65, 48
2, 199440, Note_on_c, 0, 65, 0
2, 199440, Note_on_c, 0, 67, 48
2, 199680, Note_on_c, 0, 67, 0
2, 199680, Note_on_c, 0, 69, 48
2, 200160, Note_on_c, 0, 69, 0
2, 200160, Note_on_c, 0, 70, 48
2, 200280, Note_on_c, 0, 70, 0
2, 200400, Note_on_c, 0, 72, 48
2, 200520, Note_on_c, 0, 72, 0
2, 200640, Note_on_c, 0, 72, 48
2, 200640, Note_on_c, 0, 74, 48
2, 201120, Note_on_c, 0, 74, 0
2, 201120, Note_on_c, 0, 72, 0
2, 201120, Note_on_c, 0, 70, 40
2, 201120, Note_on_c, 0, 76, 45
2, 201240, Note_on_c, 0, 76, 0
2, 201240, Note_on_c, 0, 70, 0
2, 201360, Note_on_c, 0, 70, 40
2, 201360, Note_on_c, 0, 76, 45
2, 201480, Note_on_c, 0, 76, 0
2, 201480, Note_on_c, 0, 70, 0
2, 201600, Note_on_c, 0, 70, 43
2, 201600, Note_on_c, 0, 76, 48
2, 202080, Note_on_c, 0, 76, 0
2, 202080, Note_on_c, 0, 70, 0
2, 202080, Note_on_c, 0, 69, 40
2, 202080, Note_on_c, 0, 77, 45
2, 202200, Note_on_c, 0, 77, 0
2, 202200, Note_on_c, 0, 69, 0
2, 202320, Note_on_c, 0, 69, 40
2, 202320, Note_on_c, 0, 77, 45
2, 202440, Note_on_c, 0, 77, 0
2, 202440, Note_on_c, 0, 69, 0
2, 202560, Note_on_c, 0, 69, 43
2, 202560, Note_on_c, 0, 72, 48
2, 203040, Note_on_c, 0, 72, 0
2, 203040, Note_on_c, 0, 69, 0
2, 203040, Note_on_c, 0, 67, 40
2, 203040, Note_on_c, 0, 70, 45
2, 203160, Note_on_c, 0, 70, 0
2, 203160, Note_on_c, 0, 67, 0
2, 203280, Note_on_c, 0, 67, 40
2, 203280, Note_on_c, 0, 70, 45
2, 203400, Note_on_c, 0, 70, 0
2, 203400, Note_on_c, 0, 67, 0
2, 203520, Note_on_c, 0, 69, 80
2, 203520, Note_on_c, 0, 72, 80
2, 203520, Note_on_c, 0, 81, 89
2, 203639, Note_on_c, 0, 81, 0
2, 203639, Note_on_c, 0, 72, 0
2, 203639, Note_on_c, 0, 69, 0
2, 204000, Note_on_c, 0, 69, 80
2, 204000, Note_on_c, 0, 72, 80
2, 204000, Note_on_c, 0, 77, 89
2, 204119, Note_on_c, 0, 77, 0
2, 204119, Note_on_c, 0, 72, 0
2, 204119, Note_on_c, 0, 69, 0
2, 204480, Note_on_c, 0, 72, 48
2, 204960, Note_on_c, 0, 72, 0
2, 204960, Note_on_c, 0, 72, 40
2, 204960, Note_on_c, 0, 74, 45
2, 205080, Note_on_c, 0, 74, 0
2, 205080, Note_on_c, 0, 72, 0
2, 205200, Note_on_c, 0, 72, 40
2, 205200, Note_on_c, 0, 74, 45
2, 205320, Note_on_c, 0, 74, 0
2, 205320, Note_on_c, 0, 72, 0
2, 205440, Note_on_c, 0, 70, 43
2, 205440, Note_on_c, 0, 76, 48
2, 205920, Note_on_c, 0, 76, 0
2, 205920, Note_on_c, 0, 70, 0
2, 205920, Note_on_c, 0, 69, 40
2, 205920, Note_on_c, 0, 77, 45
2, 206040, Note_on_c, 0, 77, 0
2, 206040, Note_on_c, 0, 69, 0
2, 206160, Note_on_c, 0, 69, 40
2, 206160, Note_on_c, 0, 77, 45
2, 206280, Note_on_c, 0, 77, 0
2, 206280, Note_on_c, 0, 69, 0
2, 206400, Note_on_c, 0, 69, 43
2, 206400, Note_on_c, 0, 72, 48
2, 206880, Note_on_c, 0, 72, 0
2, 206880, Note_on_c, 0, 69, 0
2, 206880, Note_on_c, 0, 67, 40
2, 206880, Note_on_c, 0, 70, 45
2, 207000, Note_on_c, 0, 70, 0
2, 207000, Note_on_c, 0, 67, 0
2, 207120, Note_on_c, 0, 67, 40
2, 207120, Note_on_c, 0, 70, 45
2, 207240, Note_on_c, 0, 70, 0
2, 207240, Note_on_c, 0, 67, 0
2, 207360, Note_on_c, 0, 69, 84
2, 207360, Note_on_c, 0, 72, 84
2, 207360, Note_on_c, 0, 81, 94
2, 207479, Note_on_c, 0, 81, 0
2, 207479, Note_on_c, 0, 72, 0
2, 207479, Note_on_c, 0, 69, 0
2, 207840, Note_on_c, 0, 69, 85
2, 207840, Note_on_c, 0, 72, 85
2, 207840, Note_on_c, 0, 77, 95
2, 207959, Note_on_c, 0, 77, 0
2, 207959, Note_on_c, 0, 72, 0
2, 207959, Note_on_c, 0, 69, 0
2, 208320, Note_on_c, 0, 69, 43
2, 208320, Note_on_c, 0, 72, 48
2, 208800, Note_on_c, 0, 72, 0
2, 208800, Note_on_c, 0, 69, 0
2, 208800, Note_on_c, 0, 67, 40
2, 208800, Note_on_c, 0, 70, 45
2, 208920, Note_on_c, 0, 70, 0
2, 208920, Note_on_c, 0, 67, 0
2, 209040, Note_on_c, 0, 67, 40
2, 209040, Note_on_c, 0, 70, 45
2, 209160, Note_on_c, 0, 70, 0
2, 209160, Note_on_c, 0, 67, 0
2, 209280, Note_on_c, 0, 69, 87
2, 209280, Note_on_c, 0, 72, 87
2, 209280, Note_on_c, 0, 81, 97
2, 209399, Note_on_c, 0, 81, 0
2, 209399, Note_on_c, 0, 72, 0
2, 209399, Note_on_c, 0, 69, 0
2, 209760, Note_on_c, 0, 69, 87
2, 209760, Note_on_c, 0, 72, 87
2, 209760, Note_on_c, 0, 77, 97
2, 209879, Note_on_c, 0, 77, 0
2, 209879, Note_on_c, 0, 72, 0
2, 209879, Note_on_c, 0, 69, 0
2, 210240, Note_on_c, 0, 69, 43
2, 210240, Note_on_c, 0, 72, 48
2, 210720, Note_on_c, 0, 72, 0
2, 210720, Note_on_c, 0, 69, 0
2, 210720, Note_on_c, 0, 67, 40
2, 210720, Note_on_c, 0, 70, 45
2, 210840, Note_on_c, 0, 70, 0
2, 210840, Note_on_c, 0, 67, 0
2, 210960, Note_on_c, 0, 67, 40
2, 210960, Note_on_c, 0, 70, 45
2, 211080, Note_on_c, 0, 70, 0
2, 211080, Note_on_c, 0, 67, 0
2, 211200, Note_on_c, 0, 77, 89
2, 211200, Note_on_c, 0, 81, 89
2, 211200, Note_on_c, 0, 84, 89
2, 211200, Note_on_c, 0, 89, 99
2, 211632, Note_on_c, 0, 89, 0
2, 211632, Note_on_c, 0, 77, 0
2, 211632, Note_on_c, 0, 81, 0
2, 211632, Note_on_c, 0, 84, 0
2, 211680, Note_on_c, 0, 65, 89
2, 211680, Note_on_c, 0, 77, 99
2, 212160, Note_on_c, 0, 77, 0
2, 212160, Note_on_c, 0, 65, 0
2, 212160, End_track
3, 0, Start_track
3, 0, Title_t, "Piano left"
3, 0, Program_c, 0, 0
3, 0, Control_c, 0, 7, 100
3, 0, Control_c, 0, 10, 64
3, 0, Note_on_c, 0, 41, 61
3, 0, Note_on_c, 0, 53, 68
3, 0, Control_c, 0, 64, 127
3, 0, Control_c, 0, 91, 127
3, 480, Note_on_c, 0, 53, 0
3, 480, Note_on_c, 0, 41, 0
3, 480, Note_on_c, 0, 53, 66
3, 485, Control_c, 0, 64, 0
3, 600, Note_on_c, 0, 53, 0
3, 720, Note_on_c, 0, 53, 66
3, 840, Note_on_c, 0, 53, 0
3, 960, Note_on_c, 0, 41, 61
3, 960, Note_on_c, 0, 53, 68
3, 1073, Control_c, 0, 64, 127
3, 1440, Note_on_c, 0, 53, 0
3, 1440, Note_on_c, 0, 41, 0
3, 1440, Note_on_c, 0, 53, 66
3, 1445, Control_c, 0, 64, 0
3, 1560, Note_on_c, 0, 53, 0
3, 1680, Note_on_c, 0, 53, 65
3, 1800, Note_on_c, 0, 53, 0
3, 1920, Note_on_c, 0, 53, 68
3, 1920, Note_on_c, 0, 41, 61
3, 2104, Control_c, 0, 64, 127
3, 2400, Note_on_c, 0, 41, 0
3, 2400, Note_on_c, 0, 53, 0
3, 2400, Note_on_c, 0, 53, 66
3, 2443, Control_c, 0, 64, 0
3, 2520, Note_on_c, 0, 53, 0
3, 2640, Note_on_c, 0, 53, 66
3, 2760, Note_on_c, 0, 53, 0
3, 2880, Note_on_c, 0, 41, 61
3, 2880, Note_on_c, 0, 53, 68
3, 3106, Control_c, 0, 64, 127
3, 3350, Note_on_c, 0, 53, 0
3, 3350, Note_on_c, 0, 41, 0
3, 3360, Note_on_c, 0, 53, 45
3, 3366, Control_c, 0, 64, 0
3, 3480, Note_on_c, 0, 53, 0
3, 3600, Note_on_c, 0, 53, 45
3, 3720, Note_on_c, 0, 53, 0
3, 3840, Note_on_c, 0, 41, 40
3, 3840, Note_on_c, 0, 29, 36
3, 3910, Control_c, 0, 64, 127
3, 4320, Note_on_c, 0, 29, 0
3, 4320, Note_on_c, 0, 41, 0
3, 4320, Note_on_c, 0, 41, 38
3, 4332, Control_c, 0, 64, 0
3, 4440, Note_on_c, 0, 41, 0
3, 4560, Note_on_c, 0, 41, 38
3, 4680, Note_on_c, 0, 41, 0
3, 4800, Note_on_c, 0, 29, 36
3, 4800, Note_on_c, 0, 41, 40
3, 4892, Control_c, 0, 64, 127
3, 5280, Note_on_c, 0, 41, 0
3, 5280, Note_on_c, 0, 29, 0
3, 5280, Note_on_c, 0, 41, 38
3, 5292, Control_c, 0, 64, 0
3, 5400, Note_on_c, 0, 41, 0
3, 5520, Note_on_c, 0, 41, 38
3, 5640, Note_on_c, 0, 41, 0
3, 5760, Note_on_c, 0, 29, 36
3, 5760, Note_on_c, 0, 41, 40
3, 5873, Control_c, 0, 64, 127
3, 6240, Note_on_c, 0, 41, 0
3, 6240, Note_on_c, 0, 29, 0
3, 6240, Note_on_c, 0, 41, 38
3, 6254, Control_c, 0, 64, 0
3, 6360, Note_on_c, 0, 41, 0
3, 6480, Note_on_c, 0, 41, 38
3, 6600, Note_on_c, 0, 41, 0
3, 6720, Note_on_c, 0, 41, 40
3, 6720, Note_on_c, 0, 29, 36
3, 6819, Control_c, 0, 64, 127
3, 7200, Note_on_c, 0, 29, 0
3, 7200, Note_on_c, 0, 41, 0
3, 7200, Note_on_c, 0, 41, 38
3, 7214, Control_c, 0, 64, 0
3, 7320, Note_on_c, 0, 41, 0
3, 7440, Note_on_c, 0, 41, 38
3, 7560, Note_on_c, 0, 41, 0
3, 7680, Note_on_c, 0, 53, 67
3, 7722, Control_c, 0, 64, 127
3, 8160, Note_on_c, 0, 53, 0
3, 8160, Note_on_c, 0, 50, 62
3, 8166, Control_c, 0, 64, 0
3, 8280, Note_on_c, 0, 50, 0
3, 8400, Note_on_c, 0, 50, 62
3, 8520, Note_on_c, 0, 50, 0
3, 8640, Note_on_c, 0, 51, 69
3, 8718, Control_c, 0, 64, 127
3, 9120, Note_on_c, 0, 51, 0
3, 9120, Note_on_c, 0, 48, 65
3, 9134, Control_c, 0, 64, 0
3, 9240, Note_on_c, 0, 48, 0
3, 9360, Note_on_c, 0, 48, 65
3, 9480, Note_on_c, 0, 48, 0
3, 9600, Note_on_c, 0, 47, 69
3, 9646, Control_c, 0, 64, 127
3, 10080, Note_on_c, 0, 47, 0
3, 10080, Note_on_c, 0, 43, 66
3, 10097, Control_c, 0, 64, 0
3, 10200, Note_on_c, 0, 43, 0
3, 10320, Note_on_c, 0, 43, 66
3, 10440, Note_on_c, 0, 43, 0
3, 10560, Note_on_c, 0, 48, 70
3, 10631, Control_c, 0, 64, 127
3, 11040, Note_on_c, 0, 48, 0
3, 11040, Note_on_c, 0, 43, 70
3, 11059, Control_c, 0, 64, 0
3, 11160, Note_on_c, 0, 43, 0
3, 11280, Note_on_c, 0, 43, 70
3, 11400, Note_on_c, 0, 43, 0
3, 11520, Note_on_c, 0, 50, 76
3, 11605, Control_c, 0, 64, 127
3, 12000, Note_on_c, 0, 50, 0
3, 12000, Note_on_c, 0, 43, 73
3, 12020, Control_c, 0, 64, 0
3, 12120, Note_on_c, 0, 43, 0
3, 12240, Note_on_c, 0, 43, 73
3, 12360, Note_on_c, 0, 43, 0
3, 12480, Note_on_c, 0, 51, 78
3, 12544, Control_c, 0, 64, 127
3, 12960, Note_on_c, 0, 51, 0
3, 12960, Note_on_c, 0, 43, 75
3, 12979, Control_c, 0, 64, 0
3, 13080, Note_on_c, 0, 43, 0
3, 13200, Note_on_c, 0, 43, 75
3, 13320, Note_on_c, 0, 43, 0
3, 13440, Note_on_c, 0, 51, 82
3, 13910, Note_on_c, 0, 51, 0
3, 13920, Note_on_c, 0, 49, 82
3, 13920, Note_on_c, 0, 37, 73
3, 13991, Control_c, 0, 64, 127
3, 14160, Note_on_c, 0, 37, 0
3, 14160, Note_on_c, 0, 49, 0
3, 14400, Note_on_c, 0, 49, 82
3, 14400, Note_on_c, 0, 37, 73
3, 14640, Note_on_c, 0, 37, 0
3, 14640, Note_on_c, 0, 49, 0
3, 14880, Note_on_c, 0, 37, 73
3, 14880, Note_on_c, 0, 49, 82
3, 15120, Note_on_c, 0, 49, 0
3, 15120, Note_on_c, 0, 37, 0
3, 15360, Note_on_c, 0, 37, 73
3, 15360, Note_on_c, 0, 49, 82
3, 15600, Note_on_c, 0, 49, 0
3, 15600, Note_on_c, 0, 37, 0
3, 15840, Note_on_c, 0, 53, 82
3, 15840, Note_on_c, 0, 41, 73
3, 15855, Control_c, 0, 64, 0
3, 16024, Control_c, 0, 64, 127
3, 16080, Note_on_c, 0, 41, 0
3, 16080, Note_on_c, 0, 53, 0
3, 16320, Note_on_c, 0, 53, 67
3, 16320, Note_on_c, 0, 44, 67
3, 16320, Note_on_c, 0, 56, 75
3, 16800, Note_on_c, 0, 56, 0
3, 16800, Note_on_c, 0, 44, 0
3, 16800, Note_on_c, 0, 53, 0
3, 16800, Note_on_c, 0, 53, 72
3, 16800, Note_on_c, 0, 56, 80
3, 16800, Note_on_c, 0, 44, 72
3, 16804, Control_c, 0, 64, 0
3, 16920, Note_on_c, 0, 44, 0
3, 16920, Note_on_c, 0, 56, 0
3, 16920, Note_on_c, 0, 53, 0
3, 17040, Note_on_c, 0, 53, 73
3, 17040, Note_on_c, 0, 56, 82
3, 17040, Note_on_c, 0, 44, 73
3, 17160, Note_on_c, 0, 44, 0
3, 17160, Note_on_c, 0, 56, 0
3, 17160, Note_on_c, 0, 53, 0
3, 17280, Note_on_c, 0, 44, 75
3, 17280, Note_on_c, 0, 54, 75
3, 17280, Note_on_c, 0, 56, 84
3, 17413, Control_c, 0, 64, 127
3, 17760, Note_on_c, 0, 56, 0
3, 17760, Note_on_c, 0, 54, 0
3, 17760, Note_on_c, 0, 44, 0
3, 17760, Note_on_c, 0, 54, 72
3, 17760, Note_on_c, 0, 56, 80
3, 17760, Note_on_c, 0, 44, 72
3, 17766, Control_c, 0, 64, 0
3, 17880, Note_on_c, 0, 44, 0
3, 17880, Note_on_c, 0, 56, 0
3, 17880, Note_on_c, 0, 54, 0
3, 18000, Note_on_c, 0, 54, 70
3, 18000, Note_on_c, 0, 56, 78
3, 18000, Note_on_c, 0, 44, 70
3, 18120, Note_on_c, 0, 44, 0
3, 18120, Note_on_c, 0, 56, 0
3, 18120, Note_on_c, 0, 54, 0
3, 18240, Note_on_c, 0, 49, 67
3, 18240, Note_on_c, 0, 53, 67
3, 18240, Note_on_c, 0, 56, 75
3, 18356, Control_c, 0, 64, 127
3, 18480, Note_on_c, 0, 56, 0
3, 18480, Note_on_c, 0, 53, 0
3, 18480, Note_on_c, 0, 49, 0
3, 18489, Control_c, 0, 64, 0
3, 18720, Note_on_c, 0, 37, 69
3, 18720, Note_on_c, 0, 49, 77
3, 18960, Note_on_c, 0, 49, 0
3, 18960, Note_on_c, 0, 37, 0
3, 19200, Note_on_c, 0, 36, 69
3, 19200, Note_on_c, 0, 48, 77
3, 19440, Note_on_c, 0, 48, 0
3, 19440, Note_on_c, 0, 36, 0
3, 19680, Note_on_c, 0, 48, 77
3, 19680, Note_on_c, 0, 36, 69
3, 19920, Note_on_c, 0, 36, 0
3, 19920, Note_on_c, 0, 48, 0
3, 20160, Note_on_c, 0, 41, 55
3, 20160, Note_on_c, 0, 53, 62
3, 20365, Control_c, 0, 64, 127
3, 20640, Note_on_c, 0, 53, 0
3, 20640, Note_on_c, 0, 41, 0
3, 20640, Note_on_c, 0, 53, 61
3, 20654, Control_c, 0, 64, 0
3, 20760, Note_on_c, 0, 53, 0
3, 20880, Note_on_c, 0, 53, 61
3, 21000, Note_on_c, 0, 53, 0
3, 21120, Note_on_c, 0, 41, 55
3, 21120, Note_on_c, 0, 53, 62
3, 21247, Control_c, 0, 64, 127
3, 21600, Note_on_c, 0, 53, 0
3, 21600, Note_on_c, 0, 41, 0
3, 21600, Note_on_c, 0, 53, 61
3, 21604, Control_c, 0, 64, 0
3, 21720, Note_on_c, 0, 53, 0
3, 21840, Note_on_c, 0, 53, 61
3, 21960, Note_on_c, 0, 53, 0
3, 22080, Note_on_c, 0, 41, 57
3, 22080, Note_on_c, 0, 53, 64
3, 22186, Control_c, 0, 64, 127
3, 22560, Note_on_c, 0, 53, 0
3, 22560, Note_on_c, 0, 41, 0
3, 22560, Note_on_c, 0, 53, 62
3, 22581, Control_c, 0, 64, 0
3, 22680, Note_on_c, 0, 53, 0
3, 22800, Note_on_c, 0, 53, 62
3, 22920, Note_on_c, 0, 53, 0
3, 23040, Note_on_c, 0, 41, 58
3, 23040, Note_on_c, 0, 53, 65
3, 23160, Control_c, 0, 64, 127
3, 23510, Note_on_c, 0, 53, 0
3, 23510, Note_on_c, 0, 41, 0
3, 23520, Note_on_c, 0, 53, 45
3, 23541, Control_c, 0, 64, 0
3, 23640, Note_on_c, 0, 53, 0
3, 23760, Note_on_c, 0, 53, 46
3, 23880, Note_on_c, 0, 53, 0
3, 24000, Note_on_c, 0, 29, 36
3, 24000, Note_on_c, 0, 41, 40
3, 24101, Control_c, 0, 64, 127
3, 24480, Note_on_c, 0, 41, 0
3, 24480, Note_on_c, 0, 29, 0
3, 24480, Note_on_c, 0, 41, 38
3, 24504, Control_c, 0, 64, 0
3, 24600, Note_on_c, 0, 41, 0
3, 24720, Note_on_c, 0, 41, 38
3, 24840, Note_on_c, 0, 41, 0
3, 24960, Note_on_c, 0, 29, 36
3, 24960, Note_on_c, 0, 41, 40
3, 25094, Control_c, 0, 64, 127
3, 25440, Note_on_c, 0, 41, 0
3, 25440, Note_on_c, 0, 29, 0
3, 25440, Note_on_c, 0, 41, 38
3, 25460, Control_c, 0, 64, 0
3, 25560, Note_on_c, 0, 41, 0
3, 25680, Note_on_c, 0, 41, 38
3, 25800, Note_on_c, 0, 41, 0
3, 25920, Note_on_c, 0, 29, 36
3, 25920, Note_on_c, 0, 41, 40
3, 26104, Control_c, 0, 64, 127
3, 26400, Note_on_c, 0, 41, 0
3, 26400, Note_on_c, 0, 29, 0
3, 26400, Note_on_c, 0, 41, 38
3, 26407, Control_c, 0, 64, 0
3, 26520, Note_on_c, 0, 41, 0
3, 26640, Note_on_c, 0, 41, 38
3, 26760, Note_on_c, 0, 41, 0
3, 26880, Note_on_c, 0, 29, 36
3, 26880, Note_on_c, 0, 41, 40
3, 27078, Control_c, 0, 64, 127
3, 27360, Note_on_c, 0, 41, 0
3, 27360, Note_on_c, 0, 29, 0
3, 27360, Note_on_c, 0, 41, 38
3, 27364, Control_c, 0, 64, 0
3, 27480, Note_on_c, 0, 41, 0
3, 27600, Note_on_c, 0, 41, 38
3, 27720, Note_on_c, 0, 41, 0
3, 27840, Note_on_c, 0, 53, 67
3, 27964, Control_c, 0, 64, 127
3, 28320, Note_on_c, 0, 53, 0
3, 28320, Note_on_c, 0, 50, 62
3, 28327, Control_c, 0, 64, 0
3, 28440, Note_on_c, 0, 50, 0
3, 28560, Note_on_c, 0, 50, 62
3, 28680, Note_on_c, 0, 50, 0
3, 28800, Note_on_c, 0, 51, 69
3, 28998, Control_c, 0, 64, 127
3, 29280, Note_on_c, 0, 51, 0
3, 29280, Note_on_c, 0, 48, 65
3, 29287, Control_c, 0, 64, 0
3, 29400, Note_on_c, 0, 48, 0
3, 29520, Note_on_c, 0, 48, 65
3, 29640, Note_on_c, 0, 48, 0
3, 29760, Note_on_c, 0, 47, 69
3, 29909, Control_c, 0, 64, 127
3, 30240, Note_on_c, 0, 47, 0
3, 30240, Note_on_c, 0, 43, 66
3, 30253, Control_c, 0, 64, 0
3, 30360, Note_on_c, 0, 43, 0
3, 30480, Note_on_c, 0, 43, 66
3, 30600, Note_on_c, 0, 43, 0
3, 30720, Note_on_c, 0, 48, 70
3, 30812, Control_c, 0, 64, 127
3, 31200, Note_on_c, 0, 48, 0
3, 31200, Note_on_c, 0, 43, 70
3, 31207, Control_c, 0, 64, 0
3, 31320, Note_on_c, 0, 43, 0
3, 31440, Note_on_c, 0, 43, 70
3, 31560, Note_on_c, 0, 43, 0
3, 31680, Note_on_c, 0, 50, 76
3, 31836, Control_c, 0, 64, 127
3, 32160, Note_on_c, 0, 50, 0
3, 32160, Note_on_c, 0, 43, 73
3, 32169, Control_c, 0, 64, 0
3, 32280, Note_on_c, 0, 43, 0
3, 32400, Note_on_c, 0, 43, 73
3, 32520, Note_on_c, 0, 43, 0
3, 32640, Note_on_c, 0, 51, 78
3, 32711, Control_c, 0, 64, 127
3, 33120, Note_on_c, 0, 51, 0
3, 33120, Note_on_c, 0, 43, 75
3, 33129, Control_c, 0, 64, 0
3, 33240, Note_on_c, 0, 43, 0
3, 33360, Note_on_c, 0, 43, 75
3, 33480, Note_on_c, 0, 43, 0
3, 33600, Note_on_c, 0, 51, 82
3, 34070, Note_on_c, 0, 51, 0
3, 34080, Note_on_c, 0, 37, 73
3, 34080, Note_on_c, 0, 49, 82
3, 34292, Control_c, 0, 64, 127
3, 34320, Note_on_c, 0, 49, 0
3, 34320, Note_on_c, 0, 37, 0
3, 34560, Note_on_c, 0, 37, 73
3, 34560, Note_on_c, 0, 49, 82
3, 34800, Note_on_c, 0, 49, 0
3, 34800, Note_on_c, 0, 37, 0
3, 35040, Note_on_c, 0, 37, 73
3, 35040, Note_on_c, 0, 49, 82
3, 35280, Note_on_c, 0, 49, 0
3, 35280, Note_on_c, 0, 37, 0
3, 35520, Note_on_c, 0, 37, 73
3, 35520, Note_on_c, 0, 49, 82
3, 35760, Note_on_c, 0, 49, 0
3, 35760, Note_on_c, 0, 37, 0
3, 36000, Note_on_c, 0, 41, 73
3, 36000, Note_on_c, 0, 53, 82
3, 36012, Control_c, 0, 64, 0
3, 36184, Control_c, 0, 64, 127
3, 36240, Note_on_c, 0, 53, 0
3, 36240, Note_on_c, 0, 41, 0
3, 36480, Note_on_c, 0, 56, 75
3, 36480, Note_on_c, 0, 53, 67
3, 36480, Note_on_c, 0, 44, 67
3, 36960, Note_on_c, 0, 44, 0
3, 36960, Note_on_c, 0, 53, 0
3, 36960, Note_on_c, 0, 56, 0
3, 36960, Note_on_c, 0, 44, 72
3, 36960, Note_on_c, 0, 53, 72
3, 36960, Note_on_c, 0, 56, 80
3, 36965, Control_c, 0, 64, 0
3, 37080, Note_on_c, 0, 56, 0
3, 37080, Note_on_c, 0, 53, 0
3, 37080, Note_on_c, 0, 44, 0
3, 37200, Note_on_c, 0, 44, 73
3, 37200, Note_on_c, 0, 53, 73
3, 37200, Note_on_c, 0, 56, 82
3, 37320, Note_on_c, 0, 56, 0
3, 37320, Note_on_c, 0, 53, 0
3, 37320, Note_on_c, 0, 44, 0
3, 37440, Note_on_c, 0, 44, 75
3, 37440, Note_on_c, 0, 56, 84
3, 37440, Note_on_c, 0, 54, 75
3, 37592, Control_c, 0, 64, 127
3, 37920, Note_on_c, 0, 54, 0
3, 37920, Note_on_c, 0, 56, 0
3, 37920, Note_on_c, 0, 44, 0
3, 37920, Note_on_c, 0, 54, 72
3, 37920, Note_on_c, 0, 56, 80
3, 37920, Note_on_c, 0, 44, 72
3, 37926, Control_c, 0, 64, 0
3, 38040, Note_on_c, 0, 44, 0
3, 38040, Note_on_c, 0, 56, 0
3, 38040, Note_on_c, 0, 54, 0
3, 38160, Note_on_c, 0, 54, 70
3, 38160, Note_on_c, 0, 56, 78
3, 38160, Note_on_c, 0, 44, 70
3, 38280, Note_on_c, 0, 44, 0
3, 38280, Note_on_c, 0, 56, 0
3, 38280, Note_on_c, 0, 54, 0
3, 38400, Note_on_c, 0, 49, 67
3, 38400, Note_on_c, 0, 53, 67
3, 38400, Note_on_c, 0, 56, 75
3, 38475, Control_c, 0, 64, 127
3, 38640, Note_on_c, 0, 56, 0
3, 38640, Note_on_c, 0, 53, 0
3, 38640, Note_on_c, 0, 49, 0
3, 38690, Control_c, 0, 64, 0
3, 38880, Note_on_c, 0, 37, 69
3, 38880, Note_on_c, 0, 49, 77
3, 39120, Note_on_c, 0, 49, 0
3, 39120, Note_on_c, 0, 37, 0
3, 39360, Note_on_c, 0, 36, 69
3, 39360, Note_on_c, 0, 48, 77
3, 39600, Note_on_c, 0, 48, 0
3, 39600, Note_on_c, 0, 36, 0
3, 39840, Note_on_c, 0, 36, 69
3, 39840, Note_on_c, 0, 48, 77
3, 40080, Note_on_c, 0, 48, 0
3, 40080, Note_on_c, 0, 36, 0
3, 40320, Note_on_c, 0, 58, 36
3, 40320, Note_on_c, 0, 60, 40
3, 40419, Control_c, 0, 64, 127
3, 40800, Note_on_c, 0, 60, 0
3, 40800, Note_on_c, 0, 58, 0
3, 40800, Note_on_c, 0, 55, 35
3, 40800, Note_on_c, 0, 60, 39
3, 40805, Control_c, 0, 64, 0
3, 40920, Note_on_c, 0, 60, 0
3, 40920, Note_on_c, 0, 55, 0
3, 41040, Note_on_c, 0, 55, 35
3, 41040, Note_on_c, 0, 60, 39
3, 41160, Note_on_c, 0, 60, 0
3, 41160, Note_on_c, 0, 55, 0
3, 41280, Note_on_c, 0, 56, 36
3, 41280, Note_on_c, 0, 60, 40
3, 41421, Control_c, 0, 64, 127
3, 41760, Note_on_c, 0, 60, 0
3, 41760, Note_on_c, 0, 56, 0
3, 41760, Note_on_c, 0, 53, 34
3, 41760, Note_on_c, 0, 60, 38
3, 41774, Control_c, 0, 64, 0
3, 41880, Note_on_c, 0, 60, 0
3, 41880, Note_on_c, 0, 53, 0
3, 42000, Note_on_c, 0, 53, 34
3, 42000, Note_on_c, 0, 60, 38
3, 42120, Note_on_c, 0, 60, 0
3, 42120, Note_on_c, 0, 53, 0
3, 42240, Note_on_c, 0, 54, 36
3, 42240, Note_on_c, 0, 56, 40
3, 42292, Control_c, 0, 64, 127
3, 42707, Control_c, 0, 64, 0
3, 42720, Note_on_c, 0, 56, 0
3, 42720, Note_on_c, 0, 54, 0
3, 42720, Note_on_c, 0, 48, 34
3, 42720, Note_on_c, 0, 56, 38
3, 42840, Note_on_c, 0, 56, 0
3, 42840, Note_on_c, 0, 48, 0
3, 42960, Note_on_c, 0, 48, 34
3, 42960, Note_on_c, 0, 56, 38
3, 43080, Note_on_c, 0, 56, 0
3, 43080, Note_on_c, 0, 48, 0
3, 43200, Note_on_c, 0, 37, 68
3, 43200, Note_on_c, 0, 49, 76
3, 43320, Note_on_c, 0, 49, 0
3, 43320, Note_on_c, 0, 37, 0
3, 43672, Note_on_c, 0, 49, 68
3, 43672, Note_on_c, 0, 56, 76
3, 43792, Note_on_c, 0, 56, 0
3, 43792, Note_on_c, 0, 49, 0
3, 44160, Note_on_c, 0, 54, 36
3, 44160, Note_on_c, 0, 56, 40
3, 44225, Control_c, 0, 64, 127
3, 44640, Note_on_c, 0, 56, 0
3, 44640, Note_on_c, 0, 54, 0
3, 44640, Note_on_c, 0, 48, 34
3, 44640, Note_on_c, 0, 56, 38
3, 44651, Control_c, 0, 64, 0
3, 44760, Note_on_c, 0, 56, 0
3, 44760, Note_on_c, 0, 48, 0
3, 44880, Note_on_c, 0, 48, 34
3, 44880, Note_on_c, 0, 56, 38
3, 45000, Note_on_c, 0, 56, 0
3, 45000, Note_on_c, 0, 48, 0
3, 45120, Note_on_c, 0, 37, 67
3, 45120, Note_on_c, 0, 49, 75
3, 45239, Note_on_c, 0, 49, 0
3, 45239, Note_on_c, 0, 37, 0
3, 45592, Note_on_c, 0, 49, 67
3, 45592, Note_on_c, 0, 56, 75
3, 45711, Note_on_c, 0, 56, 0
3, 45711, Note_on_c, 0, 49, 0
3, 46080, Note_on_c, 0, 63, 36
3, 46080, Note_on_c, 0, 65, 40
3, 46136, Control_c, 0, 64, 127
3, 46560, Note_on_c, 0, 65, 0
3, 46560, Note_on_c, 0, 63, 0
3, 46560, Note_on_c, 0, 60, 35
3, 46560, Note_on_c, 0, 65, 39
3, 46566, Control_c, 0, 64, 0
3, 46680, Note_on_c, 0, 65, 0
3, 46680, Note_on_c, 0, 60, 0
3, 46800, Note_on_c, 0, 60, 35
3, 46800, Note_on_c, 0, 65, 39
3, 46920, Note_on_c, 0, 65, 0
3, 46920, Note_on_c, 0, 60, 0
3, 47040, Note_on_c, 0, 61, 36
3, 47040, Note_on_c, 0, 65, 40
3, 47125, Control_c, 0, 64, 127
3, 47520, Note_on_c, 0, 65, 0
3, 47520, Note_on_c, 0, 61, 0
3, 47520, Note_on_c, 0, 58, 34
3, 47520, Note_on_c, 0, 65, 38
3, 47526, Control_c, 0, 64, 0
3, 47640, Note_on_c, 0, 65, 0
3, 47640, Note_on_c, 0, 58, 0
3, 47760, Note_on_c, 0, 58, 34
3, 47760, Note_on_c, 0, 65, 38
3, 47880, Note_on_c, 0, 65, 0
3, 47880, Note_on_c, 0, 58, 0
3, 48000, Note_on_c, 0, 59, 36
3, 48000, Note_on_c, 0, 61, 40
3, 48039, Control_c, 0, 64, 127
3, 48480, Note_on_c, 0, 61, 0
3, 48480, Note_on_c, 0, 59, 0
3, 48480, Note_on_c, 0, 53, 34
3, 48480, Note_on_c, 0, 61, 38
3, 48492, Control_c, 0, 64, 0
3, 48600, Note_on_c, 0, 61, 0
3, 48600, Note_on_c, 0, 53, 0
3, 48720, Note_on_c, 0, 53, 34
3, 48720, Note_on_c, 0, 61, 38
3, 48840, Note_on_c, 0, 61, 0
3, 48840, Note_on_c, 0, 53, 0
3, 48960, Note_on_c, 0, 42, 72
3, 48960, Note_on_c, 0, 54, 80
3, 49079, Note_on_c, 0, 54, 0
3, 49079, Note_on_c, 0, 42, 0
3, 49432, Note_on_c, 0, 54, 72
3, 49432, Note_on_c, 0, 61, 80
3, 49551, Note_on_c, 0, 61, 0
3, 49551, Note_on_c, 0, 54, 0
3, 49920, Note_on_c, 0, 59, 36
3, 49920, Note_on_c, 0, 61, 40
3, 49991, Control_c, 0, 64, 127
3, 50400, Note_on_c, 0, 61, 0
3, 50400, Note_on_c, 0, 59, 0
3, 50400, Note_on_c, 0, 53, 34
3, 50400, Note_on_c, 0, 61, 38
3, 50412, Control_c, 0, 64, 0
3, 50520, Note_on_c, 0, 61, 0
3, 50520, Note_on_c, 0, 53, 0
3, 50640, Note_on_c, 0, 53, 34
3, 50640, Note_on_c, 0, 61, 38
3, 50760, Note_on_c, 0, 61, 0
3, 50760, Note_on_c, 0, 53, 0
3, 50880, Note_on_c, 0, 42, 70
3, 50880, Note_on_c, 0, 54, 78
3, 50999, Note_on_c, 0, 54, 0
3, 50999, Note_on_c, 0, 42, 0
3, 51352, Note_on_c, 0, 54, 70
3, 51352, Note_on_c, 0, 61, 78
3, 51471, Note_on_c, 0, 61, 0
3, 51471, Note_on_c, 0, 54, 0
3, 51840, Note_on_c, 0, 49, 44
3, 51960, Note_on_c, 0, 49, 0
3, 52320, Note_on_c, 0, 54, 38
3, 52440, Note_on_c, 0, 54, 0
3, 52800, Note_on_c, 0, 54, 40
3, 52920, Note_on_c, 0, 54, 0
3, 53280, Note_on_c, 0, 59, 37
3, 53400, Note_on_c, 0, 59, 0
3, 53760, Note_on_c, 0, 42, 39
3, 53880, Note_on_c, 0, 42, 0
3, 54240, Note_on_c, 0, 54, 36
3, 54360, Note_on_c, 0, 54, 0
3, 54720, Note_on_c, 0, 42, 34
3, 54720, Note_on_c, 0, 54, 38
3, 54840, Note_on_c, 0, 54, 0
3, 54840, Note_on_c, 0, 42, 0
3, 55200, Note_on_c, 0, 47, 28
3, 55200, Note_on_c, 0, 54, 32
3, 55320, Note_on_c, 0, 54, 0
3, 55320, Note_on_c, 0, 47, 0
3, 55680, Note_on_c, 0, 54, 40
3, 55800, Note_on_c, 0, 54, 0
3, 56160, Note_on_c, 0, 67, 36
3, 56280, Note_on_c, 0, 67, 0
3, 56640, Note_on_c, 0, 54, 35
3, 56640, Note_on_c, 0, 66, 39
3, 56760, Note_on_c, 0, 66, 0
3, 56760, Note_on_c, 0, 54, 0
3, 57120, Note_on_c, 0, 59, 28
3, 57120, Note_on_c, 0, 66, 32
3, 57240, Note_on_c, 0, 66, 0
3, 57240, Note_on_c, 0, 59, 0
3, 57600, Note_on_c, 0, 50, 45
3, 57720, Note_on_c, 0, 50, 0
3, 58080, Note_on_c, 0, 55, 40
3, 58200, Note_on_c, 0, 55, 0
3, 58560, Note_on_c, 0, 55, 41
3, 58680, Note_on_c, 0, 55, 0
3, 59040, Note_on_c, 0, 60, 39
3, 59160, Note_on_c, 0, 60, 0
3, 59520, Note_on_c, 0, 43, 40
3, 59640, Note_on_c, 0, 43, 0
3, 60000, Note_on_c, 0, 55, 36
3, 60120, Note_on_c, 0, 55, 0
3, 60480, Note_on_c, 0, 43, 34
3, 60480, Note_on_c, 0, 55, 38
3, 60600, Note_on_c, 0, 55, 0
3, 60600, Note_on_c, 0, 43, 0
3, 60960, Note_on_c, 0, 48, 29
3, 60960, Note_on_c, 0, 55, 33
3, 61080, Note_on_c, 0, 55, 0
3, 61080, Note_on_c, 0, 48, 0
3, 61440, Note_on_c, 0, 55, 41
3, 61560, Note_on_c, 0, 55, 0
3, 61920, Note_on_c, 0, 68, 38
3, 62040, Note_on_c, 0, 68, 0
3, 62400, Note_on_c, 0, 55, 36
3, 62400, Note_on_c, 0, 67, 40
3, 62520, Note_on_c, 0, 67, 0
3, 62520, Note_on_c, 0, 55, 0
3, 62880, Note_on_c, 0, 60, 32
3, 62880, Note_on_c, 0, 67, 36
3, 63000, Note_on_c, 0, 67, 0
3, 63000, Note_on_c, 0, 60, 0
3, 63360, Note_on_c, 0, 67, 45
3, 63480, Note_on_c, 0, 67, 0
3, 63840, Note_on_c, 0, 63, 41
3, 63960, Note_on_c, 0, 63, 0
3, 64320, Note_on_c, 0, 63, 47
3, 64440, Note_on_c, 0, 63, 0
3, 64800, Note_on_c, 0, 59, 40
3, 64800, Note_on_c, 0, 63, 45
3, 64920, Note_on_c, 0, 63, 0
3, 64920, Note_on_c, 0, 59, 0
3, 65280, Note_on_c, 0, 61, 43
3, 65280, Note_on_c, 0, 63, 48
3, 65400, Note_on_c, 0, 63, 0
3, 65400, Note_on_c, 0, 61, 0
3, 65760, Note_on_c, 0, 58, 40
3, 65760, Note_on_c, 0, 63, 45
3, 65880, Note_on_c, 0, 63, 0
3, 65880, Note_on_c, 0, 58, 0
3, 66240, Note_on_c, 0, 58, 48
3, 66240, Note_on_c, 0, 63, 48
3, 66360, Note_on_c, 0, 63, 0
3, 66360, Note_on_c, 0, 58, 0
3, 66720, Note_on_c, 0, 59, 41
3, 66720, Note_on_c, 0, 63, 41
3, 66840, Note_on_c, 0, 63, 0
3, 66840, Note_on_c, 0, 59, 0
3, 67200, Note_on_c, 0, 64, 45
3, 67320, Note_on_c, 0, 64, 0
3, 67680, Note_on_c, 0, 61, 41
3, 67800, Note_on_c, 0, 61, 0
3, 68160, Note_on_c, 0, 61, 45
3, 68280, Note_on_c, 0, 61, 0
3, 68640, Note_on_c, 0, 63, 41
3, 68760, Note_on_c, 0, 63, 0
3, 69120, Note_on_c, 0, 68, 48
3, 69240, Note_on_c, 0, 68, 0
3, 69600, Note_on_c, 0, 64, 45
3, 69720, Note_on_c, 0, 64, 0
3, 70080, Note_on_c, 0, 64, 54
3, 70200, Note_on_c, 0, 64, 0
3, 70560, Note_on_c, 0, 60, 48
3, 70560, Note_on_c, 0, 64, 48
3, 70680, Note_on_c, 0, 64, 0
3, 70680, Note_on_c, 0, 60, 0
3, 71040, Note_on_c, 0, 62, 53
3, 71040, Note_on_c, 0, 64, 59
3, 71160, Note_on_c, 0, 64, 0
3, 71160, Note_on_c, 0, 62, 0
3, 71520, Note_on_c, 0, 59, 48
3, 71520, Note_on_c, 0, 64, 54
3, 71640, Note_on_c, 0, 64, 0
3, 71640, Note_on_c, 0, 59, 0
3, 72000, Note_on_c, 0, 59, 52
3, 72000, Note_on_c, 0, 64, 58
3, 72120, Note_on_c, 0, 64, 0
3, 72120, Note_on_c, 0, 59, 0
3, 72480, Note_on_c, 0, 60, 48
3, 72480, Note_on_c, 0, 64, 54
3, 72600, Note_on_c, 0, 64, 0
3, 72600, Note_on_c, 0, 60, 0
3, 72960, Note_on_c, 0, 65, 59
3, 73080, Note_on_c, 0, 65, 0
3, 73440, Note_on_c, 0, 62, 50
3, 73560, Note_on_c, 0, 62, 0
3, 73920, Note_on_c, 0, 62, 58
3, 74040, Note_on_c, 0, 62, 0
3, 74400, Note_on_c, 0, 64, 50
3, 74518, Note_on_c, 0, 64, 0
3, 74880, Note_on_c, 0, 61, 68
3, 75360, Note_on_c, 0, 61, 0
3, 75360, Note_on_c, 0, 60, 58
3, 75360, Note_on_c, 0, 61, 65
3, 75540, Note_on_c, 0, 61, 0
3, 75540, Note_on_c, 0, 60, 0
3, 75600, Note_on_c, 0, 58, 58
3, 75600, Note_on_c, 0, 61, 65
3, 75780, Note_on_c, 0, 61, 0
3, 75780, Note_on_c, 0, 58, 0
3, 75840, Note_on_c, 0, 58, 61
3, 75840, Note_on_c, 0, 61, 68
3, 76320, Note_on_c, 0, 61, 0
3, 76320, Note_on_c, 0, 58, 0
3, 76320, Note_on_c, 0, 56, 58
3, 76320, Note_on_c, 0, 61, 65
3, 76500, Note_on_c, 0, 61, 0
3, 76500, Note_on_c, 0, 56, 0
3, 76560, Note_on_c, 0, 55, 58
3, 76560, Note_on_c, 0, 61, 65
3, 76740, Note_on_c, 0, 61, 0
3, 76740, Note_on_c, 0, 55, 0
3, 76800, Note_on_c, 0, 55, 61
3, 76800, Note_on_c, 0, 61, 68
3, 77280, Note_on_c, 0, 61, 0
3, 77280, Note_on_c, 0, 55, 0
3, 77280, Note_on_c, 0, 53, 58
3, 77280, Note_on_c, 0, 61, 65
3, 77460, Note_on_c, 0, 61, 0
3, 77460, Note_on_c, 0, 53, 0
3, 77520, Note_on_c, 0, 52, 58
3, 77520, Note_on_c, 0, 61, 65
3, 77693, Note_on_c, 0, 61, 0
3, 77693, Note_on_c, 0, 52, 0
3, 77760, Note_on_c, 0, 36, 73
3, 77760, Note_on_c, 0, 48, 82
3, 77813, Control_c, 0, 64, 127
3, 78240, Note_on_c, 0, 48, 0
3, 78240, Note_on_c, 0, 36, 0
3, 78240, Note_on_c, 0, 48, 79
3, 78261, Control_c, 0, 64, 0
3, 78420, Note_on_c, 0, 48, 0
3, 78480, Note_on_c, 0, 48, 79
3, 78653, Note_on_c, 0, 48, 0
3, 78720, Note_on_c, 0, 61, 68
3, 79200, Note_on_c, 0, 61, 0
3, 79200, Note_on_c, 0, 60, 58
3, 79200, Note_on_c, 0, 61, 65
3, 79380, Note_on_c, 0, 61, 0
3, 79380, Note_on_c, 0, 60, 0
3, 79440, Note_on_c, 0, 58, 58
3, 79440, Note_on_c, 0, 61, 65
3, 79620, Note_on_c, 0, 61, 0
3, 79620, Note_on_c, 0, 58, 0
3, 79680, Note_on_c, 0, 58, 61
3, 79680, Note_on_c, 0, 61, 68
3, 80160, Note_on_c, 0, 61, 0
3, 80160, Note_on_c, 0, 58, 0
3, 80160, Note_on_c, 0, 56, 58
3, 80160, Note_on_c, 0, 61, 65
3, 80340, Note_on_c, 0, 61, 0
3, 80340, Note_on_c, 0, 56, 0
3, 80400, Note_on_c, 0, 55, 58
3, 80400, Note_on_c, 0, 61, 65
3, 80580, Note_on_c, 0, 61, 0
3, 80580, Note_on_c, 0, 55, 0
3, 80640, Note_on_c, 0, 55, 61
3, 80640, Note_on_c, 0, 61, 68
3, 81120, Note_on_c, 0, 61, 0
3, 81120, Note_on_c, 0, 55, 0
3, 81120, Note_on_c, 0, 53, 58
3, 81120, Note_on_c, 0, 61, 65
3, 81300, Note_on_c, 0, 61, 0
3, 81300, Note_on_c, 0, 53, 0
3, 81360, Note_on_c, 0, 52, 58
3, 81360, Note_on_c, 0, 61, 65
3, 81533, Note_on_c, 0, 61, 0
3, 81533, Note_on_c, 0, 52, 0
3, 81600, Note_on_c, 0, 36, 75
3, 81600, Note_on_c, 0, 48, 84
3, 81667, Control_c, 0, 64, 127
3, 82080, Note_on_c, 0, 48, 0
3, 82080, Note_on_c, 0, 36, 0
3, 82080, Note_on_c, 0, 48, 79
3, 82097, Control_c, 0, 64, 0
3, 82260, Note_on_c, 0, 48, 0
3, 82320, Note_on_c, 0, 48, 79
3, 82493, Note_on_c, 0, 48, 0
3, 82560, Note_on_c, 0, 55, 40
3, 82560, Note_on_c, 0, 61, 45
3, 83040, Note_on_c, 0, 61, 0
3, 83040, Note_on_c, 0, 55, 0
3, 83040, Note_on_c, 0, 53, 36
3, 83040, Note_on_c, 0, 61, 40
3, 83220, Note_on_c, 0, 61, 0
3, 83220, Note_on_c, 0, 53, 0
3, 83280, Note_on_c, 0, 52, 36
3, 83280, Note_on_c, 0, 61, 40
3, 83460, Note_on_c, 0, 61, 0
3, 83460, Note_on_c, 0, 52, 0
3, 83520, Note_on_c, 0, 36, 73
3, 83520, Note_on_c, 0, 48, 82
3, 83580, Control_c, 0, 64, 127
3, 84000, Note_on_c, 0, 48, 0
3, 84000, Note_on_c, 0, 36, 0
3, 84000, Note_on_c, 0, 48, 79
3, 84024, Control_c, 0, 64, 0
3, 84180, Note_on_c, 0, 48, 0
3, 84240, Note_on_c, 0, 48, 79
3, 84420, Note_on_c, 0, 48, 0
3, 84480, Note_on_c, 0, 48, 40
3, 84720, Note_on_c, 0, 48, 0
3, 84960, Note_on_c, 0, 49, 38
3, 85080, Note_on_c, 0, 49, 0
3, 85200, Note_on_c, 0, 48, 38
3, 85320, Note_on_c, 0, 48, 0
3, 85440, Note_on_c, 0, 49, 40
3, 85680, Note_on_c, 0, 49, 0
3, 85920, Note_on_c, 0, 48, 38
3, 86040, Note_on_c, 0, 48, 0
3, 86160, Note_on_c, 0, 50, 38
3, 86280, Note_on_c, 0, 50, 0
3, 86400, Note_on_c, 0, 52, 40
3, 86640, Note_on_c, 0, 52, 0
3, 86880, Note_on_c, 0, 53, 38
3, 87000, Note_on_c, 0, 53, 0
3, 87120, Note_on_c, 0, 52, 38
3, 87240, Note_on_c, 0, 52, 0
3, 87360, Note_on_c, 0, 53, 39
3, 87600, Note_on_c, 0, 53, 0
3, 87840, Note_on_c, 0, 52, 42
3, 87960, Note_on_c, 0, 52, 0
3, 88080, Note_on_c, 0, 54, 44
3, 88200, Note_on_c, 0, 54, 0
3, 88320, Note_on_c, 0, 55, 45
3, 88800, Note_on_c, 0, 55, 0
3, 88800, Note_on_c, 0, 56, 47
3, 89040, Note_on_c, 0, 56, 0
3, 89040, Note_on_c, 0, 55, 49
3, 89280, Note_on_c, 0, 55, 0
3, 89280, Note_on_c, 0, 58, 51
3, 89760, Note_on_c, 0, 58, 0
3, 89760, Note_on_c, 0, 56, 54
3, 90000, Note_on_c, 0, 56, 0
3, 90000, Note_on_c, 0, 61, 55
3, 90240, Note_on_c, 0, 61, 0
3, 90240, Note_on_c, 0, 60, 56
3, 90720, Note_on_c, 0, 60, 0
3, 90720, Note_on_c, 0, 62, 60
3, 90960, Note_on_c, 0, 62, 0
3, 90960, Note_on_c, 0, 63, 61
3, 91200, Note_on_c, 0, 63, 0
3, 91200, Note_on_c, 0, 64, 62
3, 91680, Note_on_c, 0, 64, 0
3, 91680, Note_on_c, 0, 65, 65
3, 91920, Note_on_c, 0, 65, 0
3, 91920, Note_on_c, 0, 67, 67
3, 92160, Note_on_c, 0, 67, 0
3, 92160, Note_on_c, 0, 41, 68
3, 92160, Note_on_c, 0, 53, 68
3, 92245, Control_c, 0, 64, 127
3, 92640, Note_on_c, 0, 53, 0
3, 92640, Note_on_c, 0, 41, 0
3, 92640, Note_on_c, 0, 53, 66
3, 92647, Control_c, 0, 64, 0
3, 92760, Note_on_c, 0, 53, 0
3, 92880, Note_on_c, 0, 53, 66
3, 93000, Note_on_c, 0, 53, 0
3, 93120, Note_on_c, 0, 41, 61
3, 93120, Note_on_c, 0, 53, 68
3, 93247, Control_c, 0, 64, 127
3, 93600, Note_on_c, 0, 53, 0
3, 93600, Note_on_c, 0, 41, 0
3, 93600, Note_on_c, 0, 53, 66
3, 93614, Control_c, 0, 64, 0
3, 93720, Note_on_c, 0, 53, 0
3, 93840, Note_on_c, 0, 53, 65
3, 93960, Note_on_c, 0, 53, 0
3, 94080, Note_on_c, 0, 41, 61
3, 94080, Note_on_c, 0, 53, 68
3, 94214, Control_c, 0, 64, 127
3, 94560, Note_on_c, 0, 53, 0
3, 94560, Note_on_c, 0, 41, 0
3, 94560, Note_on_c, 0, 53, 66
3, 94574, Control_c, 0, 64, 0
3, 94680, Note_on_c, 0, 53, 0
3, 94800, Note_on_c, 0, 53, 66
3, 94920, Note_on_c, 0, 53, 0
3, 95040, Note_on_c, 0, 41, 61
3, 95040, Note_on_c, 0, 53, 68
3, 95224, Control_c, 0, 64, 127
3, 95510, Note_on_c, 0, 53, 0
3, 95510, Note_on_c, 0, 41, 0
3, 95520, Note_on_c, 0, 53, 46
3, 95536, Control_c, 0, 64, 0
3, 95640, Note_on_c, 0, 53, 0
3, 95760, Note_on_c, 0, 53, 46
3, 95880, Note_on_c, 0, 53, 0
3, 96000, Note_on_c, 0, 29, 36
3, 96000, Note_on_c, 0, 41, 40
3, 96070, Control_c, 0, 64, 127
3, 96480, Note_on_c, 0, 41, 0
3, 96480, Note_on_c, 0, 29, 0
3, 96480, Note_on_c, 0, 41, 38
3, 96501, Control_c, 0, 64, 0
3, 96600, Note_on_c, 0, 41, 0
3, 96720, Note_on_c, 0, 41, 38
3, 96840, Note_on_c, 0, 41, 0
3, 96960, Note_on_c, 0, 29, 36
3, 96960, Note_on_c, 0, 41, 40
3, 97066, Control_c, 0, 64, 127
3, 97440, Note_on_c, 0, 41, 0
3, 97440, Note_on_c, 0, 29, 0
3, 97440, Note_on_c, 0, 41, 38
3, 97453, Control_c, 0, 64, 0
3, 97560, Note_on_c, 0, 41, 0
3, 97680, Note_on_c, 0, 41, 38
3, 97800, Note_on_c, 0, 41, 0
3, 97920, Note_on_c, 0, 29, 36
3, 97920, Note_on_c, 0, 41, 40
3, 98005, Control_c, 0, 64, 127
3, 98400, Note_on_c, 0, 41, 0
3, 98400, Note_on_c, 0, 29, 0
3, 98400, Note_on_c, 0, 41, 38
3, 98406, Control_c, 0, 64, 0
3, 98520, Note_on_c, 0, 41, 0
3, 98640, Note_on_c, 0, 41, 38
3, 98760, Note_on_c, 0, 41, 0
3, 98880, Note_on_c, 0, 29, 36
3, 98880, Note_on_c, 0, 41, 40
3, 99036, Control_c, 0, 64, 127
3, 99360, Note_on_c, 0, 41, 0
3, 99360, Note_on_c, 0, 29, 0
3, 99360, Note_on_c, 0, 41, 38
3, 99370, Control_c, 0, 64, 0
3, 99480, Note_on_c, 0, 41, 0
3, 99600, Note_on_c, 0, 41, 38
3, 99720, Note_on_c, 0, 41, 0
3, 99840, Note_on_c, 0, 58, 47
3, 99910, Control_c, 0, 64, 127
3, 100320, Note_on_c, 0, 58, 0
3, 100320, Note_on_c, 0, 55, 44
3, 100329, Control_c, 0, 64, 0
3, 100440, Note_on_c, 0, 55, 0
3, 100560, Note_on_c, 0, 55, 44
3, 100680, Note_on_c, 0, 55, 0
3, 100800, Note_on_c, 0, 56, 53
3, 100984, Control_c, 0, 64, 127
3, 101280, Note_on_c, 0, 56, 0
3, 101280, Note_on_c, 0, 53, 51
3, 101287, Control_c, 0, 64, 0
3, 101400, Note_on_c, 0, 53, 0
3, 101520, Note_on_c, 0, 53, 51
3, 101640, Note_on_c, 0, 53, 0
3, 101760, Note_on_c, 0, 52, 57
3, 101886, Control_c, 0, 64, 127
3, 102240, Note_on_c, 0, 52, 0
3, 102240, Note_on_c, 0, 48, 50
3, 102251, Control_c, 0, 64, 0
3, 102360, Note_on_c, 0, 48, 0
3, 102480, Note_on_c, 0, 48, 51
3, 102600, Note_on_c, 0, 48, 0
3, 102720, Note_on_c, 0, 53, 63
3, 102876, Control_c, 0, 64, 127
3, 103200, Note_on_c, 0, 53, 0
3, 103200, Note_on_c, 0, 48, 56
3, 103219, Control_c, 0, 64, 0
3, 103320, Note_on_c, 0, 48, 0
3, 103440, Note_on_c, 0, 48, 56
3, 103560, Note_on_c, 0, 48, 0
3, 103680, Note_on_c, 0, 55, 72
3, 103828, Control_c, 0, 64, 127
3, 104160, Note_on_c, 0, 55, 0
3, 104160, Note_on_c, 0, 48, 65
3, 104177, Control_c, 0, 64, 0
3, 104280, Note_on_c, 0, 48, 0
3, 104400, Note_on_c, 0, 48, 65
3, 104520, Note_on_c, 0, 48, 0
3, 104640, Note_on_c, 0, 56, 76
3, 104725, Control_c, 0, 64, 127
3, 105120, Note_on_c, 0, 56, 0
3, 105120, Note_on_c, 0, 48, 72
3, 105132, Control_c, 0, 64, 0
3, 105240, Note_on_c, 0, 48, 0
3, 105360, Note_on_c, 0, 48, 72
3, 105480, Note_on_c, 0, 48, 0
3, 105600, Note_on_c, 0, 56, 82
3, 106070, Note_on_c, 0, 56, 0
3, 106080, Note_on_c, 0, 42, 73
3, 106080, Note_on_c, 0, 54, 82
3, 106240, Control_c, 0, 64, 127
3, 106320, Note_on_c, 0, 54, 0
3, 106320, Note_on_c, 0, 42, 0
3, 106560, Note_on_c, 0, 42, 73
3, 106560, Note_on_c, 0, 54, 82
3, 106800, Note_on_c, 0, 54, 0
3, 106800, Note_on_c, 0, 42, 0
3, 107040, Note_on_c, 0, 42, 73
3, 107040, Note_on_c, 0, 54, 82
3, 107280, Note_on_c, 0, 54, 0
3, 107280, Note_on_c, 0, 42, 0
3, 107520, Note_on_c, 0, 42, 73
3, 107520, Note_on_c, 0, 54, 82
3, 107760, Note_on_c, 0, 54, 0
3, 107760, Note_on_c, 0, 42, 0
3, 108000, Note_on_c, 0, 46, 73
3, 108000, Note_on_c, 0, 58, 82
3, 108014, Control_c, 0, 64, 0
3, 108183, Control_c, 0, 64, 127
3, 108240, Note_on_c, 0, 58, 0
3, 108240, Note_on_c, 0, 46, 0
3, 108480, Note_on_c, 0, 61, 75
3, 108480, Note_on_c, 0, 58, 67
3, 108480, Note_on_c, 0, 49, 67
3, 108960, Note_on_c, 0, 49, 0
3, 108960, Note_on_c, 0, 58, 0
3, 108960, Note_on_c, 0, 61, 0
3, 108960, Note_on_c, 0, 49, 72
3, 108960, Note_on_c, 0, 58, 72
3, 108960, Note_on_c, 0, 61, 80
3, 108973, Control_c, 0, 64, 0
3, 109080, Note_on_c, 0, 61, 0
3, 109080, Note_on_c, 0, 58, 0
3, 109080, Note_on_c, 0, 49, 0
3, 109200, Note_on_c, 0, 49, 73
3, 109200, Note_on_c, 0, 58, 73
3, 109200, Note_on_c, 0, 61, 82
3, 109320, Note_on_c, 0, 61, 0
3, 109320, Note_on_c, 0, 58, 0
3, 109320, Note_on_c, 0, 49, 0
3, 109440, Note_on_c, 0, 49, 75
3, 109440, Note_on_c, 0, 61, 84
3, 109440, Note_on_c, 0, 59, 75
3, 109472, Control_c, 0, 64, 127
3, 109920, Note_on_c, 0, 59, 0
3, 109920, Note_on_c, 0, 61, 0
3, 109920, Note_on_c, 0, 49, 0
3, 109920, Note_on_c, 0, 59, 72
3, 109920, Note_on_c, 0, 61, 80
3, 109920, Note_on_c, 0, 49, 72
3, 109922, Control_c, 0, 64, 0
3, 110040, Note_on_c, 0, 49, 0
3, 110040, Note_on_c, 0, 61, 0
3, 110040, Note_on_c, 0, 59, 0
3, 110160, Note_on_c, 0, 59, 70
3, 110160, Note_on_c, 0, 61, 78
3, 110160, Note_on_c, 0, 49, 70
3, 110280, Note_on_c, 0, 49, 0
3, 110280, Note_on_c, 0, 61, 0
3, 110280, Note_on_c, 0, 59, 0
3, 110400, Note_on_c, 0, 54, 67
3, 110400, Note_on_c, 0, 58, 67
3, 110400, Note_on_c, 0, 61, 75
3, 110433, Control_c, 0, 64, 127
3, 110599, Control_c, 0, 64, 0
3, 110640, Note_on_c, 0, 61, 0
3, 110640, Note_on_c, 0, 58, 0
3, 110640, Note_on_c, 0, 54, 0
3, 110880, Note_on_c, 0, 37, 69
3, 110880, Note_on_c, 0, 49, 77
3, 111120, Note_on_c, 0, 49, 0
3, 111120, Note_on_c, 0, 37, 0
3, 111360, Note_on_c, 0, 36, 69
3, 111360, Note_on_c, 0, 48, 77
3, 111600, Note_on_c, 0, 48, 0
3, 111600, Note_on_c, 0, 36, 0
3, 111840, Note_on_c, 0, 36, 69
3, 111840, Note_on_c, 0, 48, 77
3, 112080, Note_on_c, 0, 48, 0
3, 112080, Note_on_c, 0, 36, 0
3, 112320, Note_on_c, 0, 41, 70
3, 112320, Note_on_c, 0, 53, 78
3, 112800, Note_on_c, 0, 53, 0
3, 112800, Note_on_c, 0, 41, 0
3, 112800, Note_on_c, 0, 53, 40
3, 113040, Note_on_c, 0, 53, 0
3, 113040, Note_on_c, 0, 55, 40
3, 113280, Note_on_c, 0, 55, 0
3, 113280, Note_on_c, 0, 57, 40
3, 113760, Note_on_c, 0, 57, 0
3, 113760, Note_on_c, 0, 58, 40
3, 113880, Note_on_c, 0, 58, 0
3, 114000, Note_on_c, 0, 60, 40
3, 114120, Note_on_c, 0, 60, 0
3, 114240, Note_on_c, 0, 48, 36
3, 114240, Control_c, 0, 64, 127
3, 114240, Note_on_c, 0, 57, 36
3, 114240, Note_on_c, 0, 60, 40
3, 114720, Note_on_c, 0, 60, 0
3, 114720, Note_on_c, 0, 57, 0
3, 114720, Note_on_c, 0, 48, 0
3, 114720, Note_on_c, 0, 48, 35
3, 114720, Note_on_c, 0, 55, 35
3, 114720, Note_on_c, 0, 60, 39
3, 114727, Control_c, 0, 64, 0
3, 114840, Note_on_c, 0, 60, 0
3, 114840, Note_on_c, 0, 55, 0
3, 114840, Note_on_c, 0, 48, 0
3, 114960, Note_on_c, 0, 48, 35
3, 114960, Note_on_c, 0, 55, 35
3, 114960, Note_on_c, 0, 60, 39
3, 115080, Note_on_c, 0, 60, 0
3, 115080, Note_on_c, 0, 55, 0
3, 115080, Note_on_c, 0, 48, 0
3, 115200, Note_on_c, 0, 48, 36
3, 115200, Note_on_c, 0, 55, 36
3, 115200, Note_on_c, 0, 60, 40
3, 115299, Control_c, 0, 64, 127
3, 115680, Note_on_c, 0, 60, 0
3, 115680, Note_on_c, 0, 55, 0
3, 115680, Note_on_c, 0, 48, 0
3, 115680, Note_on_c, 0, 48, 34
3, 115680, Note_on_c, 0, 53, 34
3, 115680, Note_on_c, 0, 60, 38
3, 115685, Control_c, 0, 64, 0
3, 115800, Note_on_c, 0, 60, 0
3, 115800, Note_on_c, 0, 53, 0
3, 115800, Note_on_c, 0, 48, 0
3, 115920, Note_on_c, 0, 48, 34
3, 115920, Note_on_c, 0, 53, 34
3, 115920, Note_on_c, 0, 60, 38
3, 116040, Note_on_c, 0, 60, 0
3, 116040, Note_on_c, 0, 53, 0
3, 116040, Note_on_c, 0, 48, 0
3, 116160, Note_on_c, 0, 48, 36
3, 116160, Note_on_c, 0, 50, 36
3, 116160, Note_on_c, 0, 60, 40
3, 116273, Control_c, 0, 64, 127
3, 116640, Note_on_c, 0, 60, 0
3, 116640, Note_on_c, 0, 50, 0
3, 116640, Note_on_c, 0, 48, 0
3, 116640, Note_on_c, 0, 52, 34
3, 116640, Note_on_c, 0, 48, 34
3, 116640, Note_on_c, 0, 60, 38
3, 116647, Control_c, 0, 64, 0
3, 116760, Note_on_c, 0, 60, 0
3, 116760, Note_on_c, 0, 48, 0
3, 116760, Note_on_c, 0, 52, 0
3, 116880, Note_on_c, 0, 52, 34
3, 116880, Note_on_c, 0, 48, 34
3, 116880, Note_on_c, 0, 60, 38
3, 117000, Note_on_c, 0, 60, 0
3, 117000, Note_on_c, 0, 48, 0
3, 117000, Note_on_c, 0, 52, 0
3, 117120, Note_on_c, 0, 41, 68
3, 117120, Note_on_c, 0, 53, 76
3, 117239, Note_on_c, 0, 53, 0
3, 117239, Note_on_c, 0, 41, 0
3, 117600, Note_on_c, 0, 53, 68
3, 117600, Note_on_c, 0, 60, 76
3, 117719, Note_on_c, 0, 60, 0
3, 117719, Note_on_c, 0, 53, 0
3, 118080, Note_on_c, 0, 48, 36
3, 118080, Note_on_c, 0, 57, 36
3, 118080, Note_on_c, 0, 60, 40
3, 118156, Control_c, 0, 64, 127
3, 118554, Control_c, 0, 64, 0
3, 118560, Note_on_c, 0, 60, 0
3, 118560, Note_on_c, 0, 57, 0
3, 118560, Note_on_c, 0, 48, 0
3, 118560, Note_on_c, 0, 48, 35
3, 118560, Note_on_c, 0, 57, 35
3, 118560, Note_on_c, 0, 60, 39
3, 118680, Note_on_c, 0, 60, 0
3, 118680, Note_on_c, 0, 57, 0
3, 118680, Note_on_c, 0, 48, 0
3, 118800, Note_on_c, 0, 48, 35
3, 118800, Note_on_c, 0, 57, 35
3, 118800, Note_on_c, 0, 60, 39
3, 118920, Note_on_c, 0, 60, 0
3, 118920, Note_on_c, 0, 57, 0
3, 118920, Note_on_c, 0, 48, 0
3, 119040, Note_on_c, 0, 48, 36
3, 119040, Note_on_c, 0, 55, 36
3, 119040, Note_on_c, 0, 60, 40
3, 119146, Control_c, 0, 64, 127
3, 119520, Note_on_c, 0, 60, 0
3, 119520, Note_on_c, 0, 55, 0
3, 119520, Note_on_c, 0, 48, 0
3, 119520, Note_on_c, 0, 48, 34
3, 119520, Note_on_c, 0, 53, 34
3, 119520, Note_on_c, 0, 60, 38
3, 119527, Control_c, 0, 64, 0
3, 119640, Note_on_c, 0, 60, 0
3, 119640, Note_on_c, 0, 53, 0
3, 119640, Note_on_c, 0, 48, 0
3, 119760, Note_on_c, 0, 48, 34
3, 119760, Note_on_c, 0, 53, 34
3, 119760, Note_on_c, 0, 60, 38
3, 119880, Note_on_c, 0, 60, 0
3, 119880, Note_on_c, 0, 53, 0
3, 119880, Note_on_c, 0, 48, 0
3, 120000, Note_on_c, 0, 48, 36
3, 120000, Note_on_c, 0, 50, 36
3, 120000, Note_on_c, 0, 60, 40
3, 120071, Control_c, 0, 64, 127
3, 120473, Control_c, 0, 64, 0
3, 120480, Note_on_c, 0, 60, 0
3, 120480, Note_on_c, 0, 50, 0
3, 120480, Note_on_c, 0, 48, 0
3, 120480, Note_on_c, 0, 52, 34
3, 120480, Note_on_c, 0, 48, 34
3, 120480, Note_on_c, 0, 60, 38
3, 120600, Note_on_c, 0, 60, 0
3, 120600, Note_on_c, 0, 48, 0
3, 120600, Note_on_c, 0, 52, 0
3, 120720, Note_on_c, 0, 52, 34
3, 120720, Note_on_c, 0, 48, 34
3, 120720, Note_on_c, 0, 60, 38
3, 120840, Note_on_c, 0, 60, 0
3, 120840, Note_on_c, 0, 48, 0
3, 120840, Note_on_c, 0, 52, 0
3, 120960, Note_on_c, 0, 41, 71
3, 120960, Note_on_c, 0, 53, 79
3, 121079, Note_on_c, 0, 53, 0
3, 121079, Note_on_c, 0, 41, 0
3, 121440, Note_on_c, 0, 53, 71
3, 121440, Note_on_c, 0, 60, 79
3, 121559, Note_on_c, 0, 60, 0
3, 121559, Note_on_c, 0, 53, 0
3, 121920, Note_on_c, 0, 48, 36
3, 121920, Note_on_c, 0, 50, 36
3, 121920, Note_on_c, 0, 60, 40
3, 121991, Control_c, 0, 64, 127
3, 122400, Note_on_c, 0, 60, 0
3, 122400, Note_on_c, 0, 50, 0
3, 122400, Note_on_c, 0, 48, 0
3, 122400, Note_on_c, 0, 52, 34
3, 122400, Note_on_c, 0, 48, 34
3, 122400, Note_on_c, 0, 60, 38
3, 122411, Control_c, 0, 64, 0
3, 122520, Note_on_c, 0, 60, 0
3, 122520, Note_on_c, 0, 48, 0
3, 122520, Note_on_c, 0, 52, 0
3, 122640, Note_on_c, 0, 52, 34
3, 122640, Note_on_c, 0, 48, 34
3, 122640, Note_on_c, 0, 60, 38
3, 122760, Note_on_c, 0, 60, 0
3, 122760, Note_on_c, 0, 48, 0
3, 122760, Note_on_c, 0, 52, 0
3, 122880, Note_on_c, 0, 41, 73
3, 122880, Note_on_c, 0, 53, 82
3, 122999, Note_on_c, 0, 53, 0
3, 122999, Note_on_c, 0, 41, 0
3, 123360, Note_on_c, 0, 53, 73
3, 123360, Note_on_c, 0, 60, 82
3, 123479, Note_on_c, 0, 60, 0
3, 123479, Note_on_c, 0, 53, 0
3, 123840, Note_on_c, 0, 48, 36
3, 123840, Control_c, 0, 64, 127
3, 123840, Note_on_c, 0, 50, 36
3, 123840, Note_on_c, 0, 60, 40
3, 124320, Note_on_c, 0, 60, 0
3, 124320, Note_on_c, 0, 50, 0
3, 124320, Note_on_c, 0, 48, 0
3, 124320, Note_on_c, 0, 52, 34
3, 124320, Note_on_c, 0, 48, 34
3, 124320, Note_on_c, 0, 60, 38
3, 124334, Control_c, 0, 64, 0
3, 124440, Note_on_c, 0, 60, 0
3, 124440, Note_on_c, 0, 48, 0
3, 124440, Note_on_c, 0, 52, 0
3, 124560, Note_on_c, 0, 52, 34
3, 124560, Note_on_c, 0, 48, 34
3, 124560, Note_on_c, 0, 60, 38
3, 124680, Note_on_c, 0, 60, 0
3, 124680, Note_on_c, 0, 48, 0
3, 124680, Note_on_c, 0, 52, 0
3, 124800, Control_c, 0, 64, 127
3, 124800, Note_on_c, 0, 41, 75
3, 124800, Note_on_c, 0, 53, 84
3, 125232, Note_on_c, 0, 53, 0
3, 125232, Note_on_c, 0, 41, 0
3, 125280, Note_on_c, 0, 53, 75
3, 125760, Note_on_c, 0, 53, 0
3, 125760, Control_c, 0, 64, 0
3, 126720, Control_c, 0, 64, 127
3, 126720, Note_on_c, 0, 58, 36
3, 126720, Note_on_c, 0, 60, 40
3, 127200, Note_on_c, 0, 60, 0
3, 127200, Note_on_c, 0, 58, 0
3, 127200, Note_on_c, 0, 55, 35
3, 127200, Note_on_c, 0, 60, 39
3, 127207, Control_c, 0, 64, 0
3, 127320, Note_on_c, 0, 60, 0
3, 127320, Note_on_c, 0, 55, 0
3, 127440, Note_on_c, 0, 55, 35
3, 127440, Note_on_c, 0, 60, 39
3, 127560, Note_on_c, 0, 60, 0
3, 127560, Note_on_c, 0, 55, 0
3, 127680, Note_on_c, 0, 56, 36
3, 127680, Note_on_c, 0, 60, 40
3, 127765, Control_c, 0, 64, 127
3, 128160, Note_on_c, 0, 60, 0
3, 128160, Note_on_c, 0, 56, 0
3, 128160, Note_on_c, 0, 53, 34
3, 128160, Note_on_c, 0, 60, 38
3, 128166, Control_c, 0, 64, 0
3, 128280, Note_on_c, 0, 60, 0
3, 128280, Note_on_c, 0, 53, 0
3, 128400, Note_on_c, 0, 53, 34
3, 128400, Note_on_c, 0, 60, 38
3, 128520, Note_on_c, 0, 60, 0
3, 128520, Note_on_c, 0, 53, 0
3, 128640, Note_on_c, 0, 54, 36
3, 128640, Note_on_c, 0, 56, 40
3, 128692, Control_c, 0, 64, 127
3, 129120, Note_on_c, 0, 56, 0
3, 129120, Note_on_c, 0, 54, 0
3, 129120, Note_on_c, 0, 48, 34
3, 129120, Note_on_c, 0, 56, 38
3, 129133, Control_c, 0, 64, 0
3, 129240, Note_on_c, 0, 56, 0
3, 129240, Note_on_c, 0, 48, 0
3, 129360, Note_on_c, 0, 48, 34
3, 129360, Note_on_c, 0, 56, 38
3, 129480, Note_on_c, 0, 56, 0
3, 129480, Note_on_c, 0, 48, 0
3, 129600, Note_on_c, 0, 37, 68
3, 129600, Note_on_c, 0, 49, 76
3, 129719, Note_on_c, 0, 49, 0
3, 129719, Note_on_c, 0, 37, 0
3, 130072, Note_on_c, 0, 49, 68
3, 130072, Note_on_c, 0, 56, 76
3, 130191, Note_on_c, 0, 56, 0
3, 130191, Note_on_c, 0, 49, 0
3, 130560, Control_c, 0, 64, 127
3, 130560, Note_on_c, 0, 54, 36
3, 130560, Note_on_c, 0, 56, 40
3, 131040, Note_on_c, 0, 56, 0
3, 131040, Note_on_c, 0, 54, 0
3, 131040, Note_on_c, 0, 48, 34
3, 131040, Note_on_c, 0, 56, 38
3, 131049, Control_c, 0, 64, 0
3, 131160, Note_on_c, 0, 56, 0
3, 131160, Note_on_c, 0, 48, 0
3, 131280, Note_on_c, 0, 48, 34
3, 131280, Note_on_c, 0, 56, 38
3, 131400, Note_on_c, 0, 56, 0
3, 131400, Note_on_c, 0, 48, 0
3, 131520, Note_on_c, 0, 37, 67
3, 131520, Note_on_c, 0, 49, 75
3, 131639, Note_on_c, 0, 49, 0
3, 131639, Note_on_c, 0, 37, 0
3, 131992, Note_on_c, 0, 49, 67
3, 131992, Note_on_c, 0, 56, 75
3, 132111, Note_on_c, 0, 56, 0
3, 132111, Note_on_c, 0, 49, 0
3, 132480, Control_c, 0, 64, 127
3, 132480, Note_on_c, 0, 63, 36
3, 132480, Note_on_c, 0, 65, 40
3, 132960, Note_on_c, 0, 65, 0
3, 132960, Note_on_c, 0, 63, 0
3, 132960, Note_on_c, 0, 60, 35
3, 132960, Note_on_c, 0, 65, 39
3, 132967, Control_c, 0, 64, 0
3, 133080, Note_on_c, 0, 65, 0
3, 133080, Note_on_c, 0, 60, 0
3, 133200, Note_on_c, 0, 60, 35
3, 133200, Note_on_c, 0, 65, 39
3, 133320, Note_on_c, 0, 65, 0
3, 133320, Note_on_c, 0, 60, 0
3, 133440, Note_on_c, 0, 61, 36
3, 133440, Note_on_c, 0, 65, 40
3, 133525, Control_c, 0, 64, 127
3, 133920, Note_on_c, 0, 65, 0
3, 133920, Note_on_c, 0, 61, 0
3, 133920, Note_on_c, 0, 58, 34
3, 133920, Note_on_c, 0, 65, 38
3, 133926, Control_c, 0, 64, 0
3, 134040, Note_on_c, 0, 65, 0
3, 134040, Note_on_c, 0, 58, 0
3, 134160, Note_on_c, 0, 58, 34
3, 134160, Note_on_c, 0, 65, 38
3, 134280, Note_on_c, 0, 65, 0
3, 134280, Note_on_c, 0, 58, 0
3, 134400, Note_on_c, 0, 59, 36
3, 134400, Note_on_c, 0, 61, 40
3, 134465, Control_c, 0, 64, 127
3, 134880, Note_on_c, 0, 61, 0
3, 134880, Note_on_c, 0, 59, 0
3, 134880, Note_on_c, 0, 53, 34
3, 134880, Note_on_c, 0, 61, 38
3, 134893, Control_c, 0, 64, 0
3, 135000, Note_on_c, 0, 61, 0
3, 135000, Note_on_c, 0, 53, 0
3, 135120, Note_on_c, 0, 53, 34
3, 135120, Note_on_c, 0, 61, 38
3, 135240, Note_on_c, 0, 61, 0
3, 135240, Note_on_c, 0, 53, 0
3, 135360, Note_on_c, 0, 42, 72
3, 135360, Note_on_c, 0, 54, 80
3, 135479, Note_on_c, 0, 54, 0
3, 135479, Note_on_c, 0, 42, 0
3, 135832, Note_on_c, 0, 54, 72
3, 135832, Note_on_c, 0, 61, 80
3, 135951, Note_on_c, 0, 61, 0
3, 135951, Note_on_c, 0, 54, 0
3, 136320, Note_on_c, 0, 59, 36
3, 136320, Note_on_c, 0, 61, 40
3, 136398, Control_c, 0, 64, 127
3, 136800, Note_on_c, 0, 61, 0
3, 136800, Note_on_c, 0, 59, 0
3, 136800, Note_on_c, 0, 53, 34
3, 136800, Note_on_c, 0, 61, 38
3, 136814, Control_c, 0, 64, 0
3, 136920, Note_on_c, 0, 61, 0
3, 136920, Note_on_c, 0, 53, 0
3, 137040, Note_on_c, 0, 53, 34
3, 137040, Note_on_c, 0, 61, 38
3, 137160, Note_on_c, 0, 61, 0
3, 137160, Note_on_c, 0, 53, 0
3, 137280, Note_on_c, 0, 42, 70
3, 137280, Note_on_c, 0, 54, 78
3, 137399, Note_on_c, 0, 54, 0
3, 137399, Note_on_c, 0, 42, 0
3, 137752, Note_on_c, 0, 54, 70
3, 137752, Note_on_c, 0, 61, 78
3, 137871, Note_on_c, 0, 61, 0
3, 137871, Note_on_c, 0, 54, 0
3, 138240, Note_on_c, 0, 49, 44
3, 138360, Note_on_c, 0, 49, 0
3, 138720, Note_on_c, 0, 54, 38
3, 138840, Note_on_c, 0, 54, 0
3, 139200, Note_on_c, 0, 54, 40
3, 139320, Note_on_c, 0, 54, 0
3, 139680, Note_on_c, 0, 59, 37
3, 139800, Note_on_c, 0, 59, 0
3, 140160, Note_on_c, 0, 42, 39
3, 140280, Note_on_c, 0, 42, 0
3, 140640, Note_on_c, 0, 54, 36
3, 140760, Note_on_c, 0, 54, 0
3, 141120, Note_on_c, 0, 42, 34
3, 141120, Note_on_c, 0, 54, 38
3, 141240, Note_on_c, 0, 54, 0
3, 141240, Note_on_c, 0, 42, 0
3, 141600, Note_on_c, 0, 47, 28
3, 141600, Note_on_c, 0, 54, 32
3, 141720, Note_on_c, 0, 54, 0
3, 141720, Note_on_c, 0, 47, 0
3, 142080, Note_on_c, 0, 54, 40
3, 142200, Note_on_c, 0, 54, 0
3, 142560, Note_on_c, 0, 67, 36
3, 142680, Note_on_c, 0, 67, 0
3, 143040, Note_on_c, 0, 54, 35
3, 143040, Note_on_c, 0, 66, 39
3, 143160, Note_on_c, 0, 66, 0
3, 143160, Note_on_c, 0, 54, 0
3, 143520, Note_on_c, 0, 59, 28
3, 143520, Note_on_c, 0, 66, 32
3, 143640, Note_on_c, 0, 66, 0
3, 143640, Note_on_c, 0, 59, 0
3, 144000, Note_on_c, 0, 50, 45
3, 144120, Note_on_c, 0, 50, 0
3, 144480, Note_on_c, 0, 55, 40
3, 144600, Note_on_c, 0, 55, 0
3, 144960, Note_on_c, 0, 55, 41
3, 145080, Note_on_c, 0, 55, 0
3, 145440, Note_on_c, 0, 60, 39
3, 145560, Note_on_c, 0, 60, 0
3, 145920, Note_on_c, 0, 43, 40
3, 146040, Note_on_c, 0, 43, 0
3, 146400, Note_on_c, 0, 55, 36
3, 146520, Note_on_c, 0, 55, 0
3, 146880, Note_on_c, 0, 43, 34
3, 146880, Note_on_c, 0, 55, 38
3, 147000, Note_on_c, 0, 55, 0
3, 147000, Note_on_c, 0, 43, 0
3, 147360, Note_on_c, 0, 48, 29
3, 147360, Note_on_c, 0, 55, 33
3, 147480, Note_on_c, 0, 55, 0
3, 147480, Note_on_c, 0, 48, 0
3, 147840, Note_on_c, 0, 55, 41
3, 147960, Note_on_c, 0, 55, 0
3, 148320, Note_on_c, 0, 68, 38
3, 148440, Note_on_c, 0, 68, 0
3, 148800, Note_on_c, 0, 55, 36
3, 148800, Note_on_c, 0, 67, 40
3, 148920, Note_on_c, 0, 67, 0
3, 148920, Note_on_c, 0, 55, 0
3, 149280, Note_on_c, 0, 60, 32
3, 149280, Note_on_c, 0, 67, 36
3, 149400, Note_on_c, 0, 67, 0
3, 149400, Note_on_c, 0, 60, 0
3, 149760, Note_on_c, 0, 67, 45
3, 149880, Note_on_c, 0, 67, 0
3, 150240, Note_on_c, 0, 63, 41
3, 150360, Note_on_c, 0, 63, 0
3, 150720, Note_on_c, 0, 63, 47
3, 150840, Note_on_c, 0, 63, 0
3, 151200, Note_on_c, 0, 59, 40
3, 151200, Note_on_c, 0, 63, 45
3, 151320, Note_on_c, 0, 63, 0
3, 151320, Note_on_c, 0, 59, 0
3, 151680, Note_on_c, 0, 61, 43
3, 151680, Note_on_c, 0, 63, 48
3, 151800, Note_on_c, 0, 63, 0
3, 151800, Note_on_c, 0, 61, 0
3, 152160, Note_on_c, 0, 58, 40
3, 152160, Note_on_c, 0, 63, 45
3, 152280, Note_on_c, 0, 63, 0
3, 152280, Note_on_c, 0, 58, 0
3, 152640, Note_on_c, 0, 58, 43
3, 152640, Note_on_c, 0, 63, 48
3, 152760, Note_on_c, 0, 63, 0
3, 152760, Note_on_c, 0, 58, 0
3, 153120, Note_on_c, 0, 59, 36
3, 153120, Note_on_c, 0, 63, 41
3, 153240, Note_on_c, 0, 63, 0
3, 153240, Note_on_c, 0, 59, 0
3, 153600, Note_on_c, 0, 64, 45
3, 153720, Note_on_c, 0, 64, 0
3, 154080, Note_on_c, 0, 61, 41
3, 154200, Note_on_c, 0, 61, 0
3, 154560, Note_on_c, 0, 61, 45
3, 154680, Note_on_c, 0, 61, 0
3, 155040, Note_on_c, 0, 63, 41
3, 155160, Note_on_c, 0, 63, 0
3, 155520, Note_on_c, 0, 68, 48
3, 155640, Note_on_c, 0, 68, 0
3, 156000, Note_on_c, 0, 64, 45
3, 156120, Note_on_c, 0, 64, 0
3, 156480, Note_on_c, 0, 64, 54
3, 156600, Note_on_c, 0, 64, 0
3, 156960, Note_on_c, 0, 60, 43
3, 156960, Note_on_c, 0, 64, 48
3, 157080, Note_on_c, 0, 64, 0
3, 157080, Note_on_c, 0, 60, 0
3, 157440, Note_on_c, 0, 62, 53
3, 157440, Note_on_c, 0, 64, 59
3, 157560, Note_on_c, 0, 64, 0
3, 157560, Note_on_c, 0, 62, 0
3, 157920, Note_on_c, 0, 59, 48
3, 157920, Note_on_c, 0, 64, 54
3, 158040, Note_on_c, 0, 64, 0
3, 158040, Note_on_c, 0, 59, 0
3, 158400, Note_on_c, 0, 59, 52
3, 158400, Note_on_c, 0, 64, 58
3, 158520, Note_on_c, 0, 64, 0
3, 158520, Note_on_c, 0, 59, 0
3, 158880, Note_on_c, 0, 60, 48
3, 158880, Note_on_c, 0, 64, 54
3, 159000, Note_on_c, 0, 64, 0
3, 159000, Note_on_c, 0, 60, 0
3, 159360, Note_on_c, 0, 65, 59
3, 159480, Note_on_c, 0, 65, 0
3, 159840, Note_on_c, 0, 62, 50
3, 159960, Note_on_c, 0, 62, 0
3, 160320, Note_on_c, 0, 62, 58
3, 160440, Note_on_c, 0, 62, 0
3, 160800, Note_on_c, 0, 64, 50
3, 160918, Note_on_c, 0, 64, 0
3, 161280, Note_on_c, 0, 61, 68
3, 161760, Note_on_c, 0, 61, 0
3, 161760, Note_on_c, 0, 60, 58
3, 161760, Note_on_c, 0, 61, 65
3, 161940, Note_on_c, 0, 61, 0
3, 161940, Note_on_c, 0, 60, 0
3, 162000, Note_on_c, 0, 58, 65
3, 162000, Note_on_c, 0, 61, 65
3, 162180, Note_on_c, 0, 61, 0
3, 162180, Note_on_c, 0, 58, 0
3, 162240, Note_on_c, 0, 58, 61
3, 162240, Note_on_c, 0, 61, 68
3, 162720, Note_on_c, 0, 61, 0
3, 162720, Note_on_c, 0, 58, 0
3, 162720, Note_on_c, 0, 56, 58
3, 162720, Note_on_c, 0, 61, 65
3, 162900, Note_on_c, 0, 61, 0
3, 162900, Note_on_c, 0, 56, 0
3, 162960, Note_on_c, 0, 55, 58
3, 162960, Note_on_c, 0, 61, 65
3, 163140, Note_on_c, 0, 61, 0
3, 163140, Note_on_c, 0, 55, 0
3, 163200, Note_on_c, 0, 55, 61
3, 163200, Note_on_c, 0, 61, 68
3, 163680, Note_on_c, 0, 61, 0
3, 163680, Note_on_c, 0, 55, 0
3, 163680, Note_on_c, 0, 53, 58
3, 163680, Note_on_c, 0, 61, 65
3, 163860, Note_on_c, 0, 61, 0
3, 163860, Note_on_c, 0, 53, 0
3, 163920, Note_on_c, 0, 52, 58
3, 163920, Note_on_c, 0, 61, 65
3, 164093, Note_on_c, 0, 61, 0
3, 164093, Note_on_c, 0, 52, 0
3, 164160, Note_on_c, 0, 36, 82
3, 164160, Note_on_c, 0, 48, 82
3, 164206, Control_c, 0, 64, 127
3, 164640, Note_on_c, 0, 48, 0
3, 164640, Note_on_c, 0, 36, 0
3, 164640, Note_on_c, 0, 48, 79
3, 164651, Control_c, 0, 64, 0
3, 164820, Note_on_c, 0, 48, 0
3, 164880, Note_on_c, 0, 48, 79
3, 165053, Note_on_c, 0, 48, 0
3, 165120, Note_on_c, 0, 61, 68
3, 165600, Note_on_c, 0, 61, 0
3, 165600, Note_on_c, 0, 60, 58
3, 165600, Note_on_c, 0, 61, 65
3, 165780, Note_on_c, 0, 61, 0
3, 165780, Note_on_c, 0, 60, 0
3, 165840, Note_on_c, 0, 58, 58
3, 165840, Note_on_c, 0, 61, 65
3, 166020, Note_on_c, 0, 61, 0
3, 166020, Note_on_c, 0, 58, 0
3, 166080, Note_on_c, 0, 58, 61
3, 166080, Note_on_c, 0, 61, 68
3, 166560, Note_on_c, 0, 61, 0
3, 166560, Note_on_c, 0, 58, 0
3, 166560, Note_on_c, 0, 56, 58
3, 166560, Note_on_c, 0, 61, 65
3, 166740, Note_on_c, 0, 61, 0
3, 166740, Note_on_c, 0, 56, 0
3, 166800, Note_on_c, 0, 55, 58
3, 166800, Note_on_c, 0, 61, 65
3, 166980, Note_on_c, 0, 61, 0
3, 166980, Note_on_c, 0, 55, 0
3, 167040, Note_on_c, 0, 55, 61
3, 167040, Note_on_c, 0, 61, 68
3, 167520, Note_on_c, 0, 61, 0
3, 167520, Note_on_c, 0, 55, 0
3, 167520, Note_on_c, 0, 53, 58
3, 167520, Note_on_c, 0, 61, 65
3, 167700, Note_on_c, 0, 61, 0
3, 167700, Note_on_c, 0, 53, 0
3, 167760, Note_on_c, 0, 52, 58
3, 167760, Note_on_c, 0, 61, 65
3, 167933, Note_on_c, 0, 61, 0
3, 167933, Note_on_c, 0, 52, 0
3, 168000, Note_on_c, 0, 36, 76
3, 168000, Note_on_c, 0, 48, 85
3, 168050, Control_c, 0, 64, 127
3, 168480, Note_on_c, 0, 48, 0
3, 168480, Note_on_c, 0, 36, 0
3, 168480, Note_on_c, 0, 48, 79
3, 168491, Control_c, 0, 64, 0
3, 168660, Note_on_c, 0, 48, 0
3, 168720, Note_on_c, 0, 48, 79
3, 168893, Note_on_c, 0, 48, 0
3, 168960, Note_on_c, 0, 55, 40
3, 168960, Note_on_c, 0, 61, 45
3, 169440, Note_on_c, 0, 61, 0
3, 169440, Note_on_c, 0, 55, 0
3, 169440, Note_on_c, 0, 53, 36
3, 169440, Note_on_c, 0, 61, 40
3, 169620, Note_on_c, 0, 61, 0
3, 169620, Note_on_c, 0, 53, 0
3, 169680, Note_on_c, 0, 52, 36
3, 169680, Note_on_c, 0, 61, 40
3, 169853, Note_on_c, 0, 61, 0
3, 169853, Note_on_c, 0, 52, 0
3, 169920, Note_on_c, 0, 36, 76
3, 169920, Note_on_c, 0, 48, 85
3, 169970, Control_c, 0, 64, 127
3, 170400, Note_on_c, 0, 48, 0
3, 170400, Note_on_c, 0, 36, 0
3, 170400, Note_on_c, 0, 48, 79
3, 170407, Control_c, 0, 64, 0
3, 170580, Note_on_c, 0, 48, 0
3, 170640, Note_on_c, 0, 48, 79
3, 170813, Note_on_c, 0, 48, 0
3, 170880, Note_on_c, 0, 48, 40
3, 171120, Note_on_c, 0, 48, 0
3, 171360, Note_on_c, 0, 49, 38
3, 171480, Note_on_c, 0, 49, 0
3, 171600, Note_on_c, 0, 48, 38
3, 171720, Note_on_c, 0, 48, 0
3, 171840, Note_on_c, 0, 49, 40
3, 172080, Note_on_c, 0, 49, 0
3, 172320, Note_on_c, 0, 48, 38
3, 172440, Note_on_c, 0, 48, 0
3, 172560, Note_on_c, 0, 50, 38
3, 172680, Note_on_c, 0, 50, 0
3, 172800, Note_on_c, 0, 52, 40
3, 173040, Note_on_c, 0, 52, 0
3, 173280, Note_on_c, 0, 53, 38
3, 173400, Note_on_c, 0, 53, 0
3, 173520, Note_on_c, 0, 52, 38
3, 173640, Note_on_c, 0, 52, 0
3, 173760, Note_on_c, 0, 53, 39
3, 174000, Note_on_c, 0, 53, 0
3, 174240, Note_on_c, 0, 52, 42
3, 174360, Note_on_c, 0, 52, 0
3, 174480, Note_on_c, 0, 54, 44
3, 174600, Note_on_c, 0, 54, 0
3, 174720, Note_on_c, 0, 55, 45
3, 175200, Note_on_c, 0, 55, 0
3, 175200, Note_on_c, 0, 56, 47
3, 175440, Note_on_c, 0, 56, 0
3, 175440, Note_on_c, 0, 55, 49
3, 175680, Note_on_c, 0, 55, 0
3, 175680, Note_on_c, 0, 58, 51
3, 176160, Note_on_c, 0, 58, 0
3, 176160, Note_on_c, 0, 56, 54
3, 176400, Note_on_c, 0, 56, 0
3, 176400, Note_on_c, 0, 61, 55
3, 176640, Note_on_c, 0, 61, 0
3, 176640, Note_on_c, 0, 60, 56
3, 177120, Note_on_c, 0, 60, 0
3, 177120, Note_on_c, 0, 62, 60
3, 177360, Note_on_c, 0, 62, 0
3, 177360, Note_on_c, 0, 63, 61
3, 177600, Note_on_c, 0, 63, 0
3, 177600, Note_on_c, 0, 64, 62
3, 178080, Note_on_c, 0, 64, 0
3, 178080, Note_on_c, 0, 65, 65
3, 178320, Note_on_c, 0, 65, 0
3, 178320, Note_on_c, 0, 67, 67
3, 178560, Note_on_c, 0, 67, 0
3, 178560, Note_on_c, 0, 41, 61
3, 178560, Note_on_c, 0, 53, 68
3, 178687, Control_c, 0, 64, 127
3, 179040, Note_on_c, 0, 53, 0
3, 179040, Note_on_c, 0, 41, 0
3, 179040, Note_on_c, 0, 53, 66
3, 179047, Control_c, 0, 64, 0
3, 179160, Note_on_c, 0, 53, 0
3, 179280, Note_on_c, 0, 53, 66
3, 179400, Note_on_c, 0, 53, 0
3, 179520, Note_on_c, 0, 41, 61
3, 179520, Note_on_c, 0, 53, 68
3, 179598, Control_c, 0, 64, 127
3, 180000, Note_on_c, 0, 53, 0
3, 180000, Note_on_c, 0, 41, 0
3, 180000, Note_on_c, 0, 53, 66
3, 180011, Control_c, 0, 64, 0
3, 180120, Note_on_c, 0, 53, 0
3, 180240, Note_on_c, 0, 53, 65
3, 180360, Note_on_c, 0, 53, 0
3, 180480, Note_on_c, 0, 41, 61
3, 180480, Note_on_c, 0, 53, 68
3, 180607, Control_c, 0, 64, 127
3, 180960, Note_on_c, 0, 53, 0
3, 180960, Note_on_c, 0, 41, 0
3, 180960, Note_on_c, 0, 53, 66
3, 180970, Control_c, 0, 64, 0
3, 181080, Note_on_c, 0, 53, 0
3, 181200, Note_on_c, 0, 53, 66
3, 181440, Note_on_c, 0, 53, 0
3, 181440, Note_on_c, 0, 41, 61
3, 181440, Note_on_c, 0, 53, 68
3, 181567, Control_c, 0, 64, 127
3, 181910, Note_on_c, 0, 53, 0
3, 181910, Note_on_c, 0, 41, 0
3, 181920, Note_on_c, 0, 53, 45
3, 181941, Control_c, 0, 64, 0
3, 182040, Note_on_c, 0, 53, 0
3, 182160, Note_on_c, 0, 53, 45
3, 182280, Note_on_c, 0, 53, 0
3, 182400, Note_on_c, 0, 29, 36
3, 182400, Note_on_c, 0, 41, 40
3, 182495, Control_c, 0, 64, 127
3, 182880, Note_on_c, 0, 41, 0
3, 182880, Note_on_c, 0, 29, 0
3, 182880, Note_on_c, 0, 41, 38
3, 182892, Control_c, 0, 64, 0
3, 183000, Note_on_c, 0, 41, 0
3, 183120, Note_on_c, 0, 41, 38
3, 183240, Note_on_c, 0, 41, 0
3, 183360, Note_on_c, 0, 29, 36
3, 183360, Note_on_c, 0, 41, 40
3, 183452, Control_c, 0, 64, 127
3, 183840, Note_on_c, 0, 41, 0
3, 183840, Note_on_c, 0, 29, 0
3, 183840, Note_on_c, 0, 41, 38
3, 183854, Control_c, 0, 64, 0
3, 183960, Note_on_c, 0, 41, 0
3, 184080, Note_on_c, 0, 41, 38
3, 184200, Note_on_c, 0, 41, 0
3, 184320, Note_on_c, 0, 29, 36
3, 184320, Note_on_c, 0, 41, 40
3, 184412, Control_c, 0, 64, 127
3, 184800, Note_on_c, 0, 41, 0
3, 184800, Note_on_c, 0, 29, 0
3, 184800, Note_on_c, 0, 41, 38
3, 184807, Control_c, 0, 64, 0
3, 184920, Note_on_c, 0, 41, 0
3, 185040, Note_on_c, 0, 41, 38
3, 185160, Note_on_c, 0, 41, 0
3, 185280, Note_on_c, 0, 29, 36
3, 185280, Note_on_c, 0, 41, 40
3, 185414, Control_c, 0, 64, 127
3, 185760, Note_on_c, 0, 41, 0
3, 185760, Note_on_c, 0, 29, 0
3, 185760, Note_on_c, 0, 41, 38
3, 185771, Control_c, 0, 64, 0
3, 185880, Note_on_c, 0, 41, 0
3, 186000, Note_on_c, 0, 41, 38
3, 186120, Note_on_c, 0, 41, 0
3, 186240, Note_on_c, 0, 58, 47
3, 186303, Control_c, 0, 64, 127
3, 186720, Note_on_c, 0, 58, 0
3, 186720, Note_on_c, 0, 55, 44
3, 186726, Control_c, 0, 64, 0
3, 186840, Note_on_c, 0, 55, 0
3, 186960, Note_on_c, 0, 55, 44
3, 187080, Note_on_c, 0, 55, 0
3, 187200, Note_on_c, 0, 56, 53
3, 187299, Control_c, 0, 64, 127
3, 187680, Note_on_c, 0, 56, 0
3, 187680, Note_on_c, 0, 53, 51
3, 187691, Control_c, 0, 64, 0
3, 187800, Note_on_c, 0, 53, 0
3, 187920, Note_on_c, 0, 53, 51
3, 188040, Note_on_c, 0, 53, 0
3, 188160, Note_on_c, 0, 52, 57
3, 188212, Control_c, 0, 64, 127
3, 188640, Note_on_c, 0, 52, 0
3, 188640, Note_on_c, 0, 48, 50
3, 188657, Control_c, 0, 64, 0
3, 188760, Note_on_c, 0, 48, 0
3, 188880, Note_on_c, 0, 48, 51
3, 189000, Note_on_c, 0, 48, 0
3, 189120, Note_on_c, 0, 53, 63
3, 189205, Control_c, 0, 64, 127
3, 189600, Note_on_c, 0, 53, 0
3, 189600, Note_on_c, 0, 48, 56
3, 189619, Control_c, 0, 64, 0
3, 189720, Note_on_c, 0, 48, 0
3, 189840, Note_on_c, 0, 48, 56
3, 189960, Note_on_c, 0, 48, 0
3, 190080, Control_c, 0, 64, 127
3, 190080, Note_on_c, 0, 55, 72
3, 190560, Note_on_c, 0, 55, 0
3, 190560, Note_on_c, 0, 48, 65
3, 190567, Control_c, 0, 64, 0
3, 190680, Note_on_c, 0, 48, 0
3, 190800, Note_on_c, 0, 48, 65
3, 190920, Note_on_c, 0, 48, 0
3, 191040, Note_on_c, 0, 56, 76
3, 191097, Control_c, 0, 64, 127
3, 191520, Note_on_c, 0, 56, 0
3, 191520, Note_on_c, 0, 48, 72
3, 191534, Control_c, 0, 64, 0
3, 191640, Note_on_c, 0, 48, 0
3, 191760, Note_on_c, 0, 48, 72
3, 191880, Note_on_c, 0, 48, 0
3, 192000, Note_on_c, 0, 56, 82
3, 192480, Note_on_c, 0, 56, 0
3, 192480, Note_on_c, 0, 42, 73
3, 192480, Note_on_c, 0, 54, 82
3, 192537, Control_c, 0, 64, 127
3, 192720, Note_on_c, 0, 54, 0
3, 192720, Note_on_c, 0, 42, 0
3, 192960, Note_on_c, 0, 42, 73
3, 192960, Note_on_c, 0, 54, 82
3, 193200, Note_on_c, 0, 54, 0
3, 193200, Note_on_c, 0, 42, 0
3, 193440, Note_on_c, 0, 42, 73
3, 193440, Note_on_c, 0, 54, 82
3, 193680, Note_on_c, 0, 54, 0
3, 193680, Note_on_c, 0, 42, 0
3, 193920, Note_on_c, 0, 42, 73
3, 193920, Note_on_c, 0, 54, 82
3, 194160, Note_on_c, 0, 54, 0
3, 194160, Note_on_c, 0, 42, 0
3, 194400, Note_on_c, 0, 46, 73
3, 194400, Note_on_c, 0, 58, 82
3, 194411, Control_c, 0, 64, 0
3, 194583, Control_c, 0, 64, 127
3, 194640, Note_on_c, 0, 58, 0
3, 194640, Note_on_c, 0, 46, 0
3, 194880, Note_on_c, 0, 61, 75
3, 194880, Note_on_c, 0, 58, 67
3, 194880, Note_on_c, 0, 49, 67
3, 195360, Note_on_c, 0, 49, 0
3, 195360, Note_on_c, 0, 58, 0
3, 195360, Note_on_c, 0, 61, 0
3, 195360, Note_on_c, 0, 49, 72
3, 195360, Note_on_c, 0, 58, 72
3, 195360, Note_on_c, 0, 61, 80
3, 195364, Control_c, 0, 64, 0
3, 195480, Note_on_c, 0, 61, 0
3, 195480, Note_on_c, 0, 58, 0
3, 195480, Note_on_c, 0, 49, 0
3, 195600, Note_on_c, 0, 49, 73
3, 195600, Note_on_c, 0, 58, 73
3, 195600, Note_on_c, 0, 61, 82
3, 195720, Note_on_c, 0, 61, 0
3, 195720, Note_on_c, 0, 58, 0
3, 195720, Note_on_c, 0, 49, 0
3, 195840, Control_c, 0, 64, 127
3, 195840, Note_on_c, 0, 49, 75
3, 195840, Note_on_c, 0, 61, 84
3, 195840, Note_on_c, 0, 59, 75
3, 196320, Note_on_c, 0, 59, 0
3, 196320, Note_on_c, 0, 61, 0
3, 196320, Note_on_c, 0, 49, 0
3, 196320, Note_on_c, 0, 59, 72
3, 196320, Note_on_c, 0, 61, 80
3, 196320, Note_on_c, 0, 49, 72
3, 196331, Control_c, 0, 64, 0
3, 196440, Note_on_c, 0, 49, 0
3, 196440, Note_on_c, 0, 61, 0
3, 196440, Note_on_c, 0, 59, 0
3, 196560, Note_on_c, 0, 59, 70
3, 196560, Note_on_c, 0, 61, 78
3, 196560, Note_on_c, 0, 49, 70
3, 196680, Note_on_c, 0, 49, 0
3, 196680, Note_on_c, 0, 61, 0
3, 196680, Note_on_c, 0, 59, 0
3, 196800, Note_on_c, 0, 54, 67
3, 196800, Note_on_c, 0, 58, 67
3, 196800, Note_on_c, 0, 61, 75
3, 196883, Control_c, 0, 64, 127
3, 197040, Note_on_c, 0, 61, 0
3, 197040, Note_on_c, 0, 58, 0
3, 197040, Note_on_c, 0, 54, 0
3, 197040, Control_c, 0, 64, 0
3, 197280, Note_on_c, 0, 37, 69
3, 197280, Note_on_c, 0, 49, 77
3, 197520, Note_on_c, 0, 49, 0
3, 197520, Note_on_c, 0, 37, 0
3, 197760, Note_on_c, 0, 36, 69
3, 197760, Note_on_c, 0, 48, 77
3, 198000, Note_on_c, 0, 48, 0
3, 198000, Note_on_c, 0, 36, 0
3, 198240, Note_on_c, 0, 36, 69
3, 198240, Note_on_c, 0, 48, 77
3, 198480, Note_on_c, 0, 48, 0
3, 198480, Note_on_c, 0, 36, 0
3, 198720, Note_on_c, 0, 41, 78
3, 198720, Note_on_c, 0, 53, 78
3, 199200, Note_on_c, 0, 53, 0
3, 199200, Note_on_c, 0, 41, 0
3, 199200, Note_on_c, 0, 53, 40
3, 199440, Note_on_c, 0, 53, 0
3, 199440, Note_on_c, 0, 55, 40
3, 199680, Note_on_c, 0, 55, 0
3, 199680, Note_on_c, 0, 57, 40
3, 200160, Note_on_c, 0, 57, 0
3, 200160, Note_on_c, 0, 58, 40
3, 200280, Note_on_c, 0, 58, 0
3, 200400, Note_on_c, 0, 60, 40
3, 200520, Note_on_c, 0, 60, 0
3, 200640, Note_on_c, 0, 48, 36
3, 200640, Control_c, 0, 64, 127
3, 200640, Note_on_c, 0, 57, 36
3, 200640, Note_on_c, 0, 60, 40
3, 201120, Note_on_c, 0, 60, 0
3, 201120, Note_on_c, 0, 57, 0
3, 201120, Note_on_c, 0, 48, 0
3, 201120, Note_on_c, 0, 48, 35
3, 201120, Note_on_c, 0, 55, 35
3, 201120, Note_on_c, 0, 60, 39
3, 201130, Control_c, 0, 64, 0
3, 201240, Note_on_c, 0, 60, 0
3, 201240, Note_on_c, 0, 55, 0
3, 201240, Note_on_c, 0, 48, 0
3, 201360, Note_on_c, 0, 48, 35
3, 201360, Note_on_c, 0, 55, 35
3, 201360, Note_on_c, 0, 60, 39
3, 201480, Note_on_c, 0, 60, 0
3, 201480, Note_on_c, 0, 55, 0
3, 201480, Note_on_c, 0, 48, 0
3, 201600, Note_on_c, 0, 48, 36
3, 201600, Control_c, 0, 64, 127
3, 201600, Note_on_c, 0, 55, 36
3, 201600, Note_on_c, 0, 60, 40
3, 202080, Note_on_c, 0, 60, 0
3, 202080, Note_on_c, 0, 55, 0
3, 202080, Note_on_c, 0, 48, 0
3, 202080, Note_on_c, 0, 48, 34
3, 202080, Note_on_c, 0, 53, 34
3, 202080, Note_on_c, 0, 60, 38
3, 202088, Control_c, 0, 64, 0
3, 202200, Note_on_c, 0, 60, 0
3, 202200, Note_on_c, 0, 53, 0
3, 202200, Note_on_c, 0, 48, 0
3, 202320, Note_on_c, 0, 48, 34
3, 202320, Note_on_c, 0, 53, 34
3, 202320, Note_on_c, 0, 60, 38
3, 202440, Note_on_c, 0, 60, 0
3, 202440, Note_on_c, 0, 53, 0
3, 202440, Note_on_c, 0, 48, 0
3, 202560, Note_on_c, 0, 48, 36
3, 202560, Control_c, 0, 64, 127
3, 202560, Note_on_c, 0, 50, 36
3, 202560, Note_on_c, 0, 60, 40
3, 203040, Note_on_c, 0, 60, 0
3, 203040, Note_on_c, 0, 50, 0
3, 203040, Note_on_c, 0, 48, 0
3, 203040, Note_on_c, 0, 52, 34
3, 203040, Note_on_c, 0, 48, 34
3, 203040, Note_on_c, 0, 60, 38
3, 203049, Control_c, 0, 64, 0
3, 203160, Note_on_c, 0, 60, 0
3, 203160, Note_on_c, 0, 48, 0
3, 203160, Note_on_c, 0, 52, 0
3, 203280, Note_on_c, 0, 52, 34
3, 203280, Note_on_c, 0, 48, 34
3, 203280, Note_on_c, 0, 60, 38
3, 203400, Note_on_c, 0, 60, 0
3, 203400, Note_on_c, 0, 48, 0
3, 203400, Note_on_c, 0, 52, 0
3, 203520, Note_on_c, 0, 41, 68
3, 203520, Note_on_c, 0, 53, 76
3, 203639, Note_on_c, 0, 53, 0
3, 203639, Note_on_c, 0, 41, 0
3, 204000, Note_on_c, 0, 53, 68
3, 204000, Note_on_c, 0, 60, 76
3, 204119, Note_on_c, 0, 60, 0
3, 204119, Note_on_c, 0, 53, 0
3, 204480, Note_on_c, 0, 48, 36
3, 204480, Control_c, 0, 64, 127
3, 204480, Note_on_c, 0, 57, 36
3, 204480, Note_on_c, 0, 60, 40
3, 204960, Note_on_c, 0, 60, 0
3, 204960, Note_on_c, 0, 57, 0
3, 204960, Note_on_c, 0, 48, 0
3, 204960, Note_on_c, 0, 48, 35
3, 204960, Note_on_c, 0, 57, 35
3, 204960, Note_on_c, 0, 60, 39
3, 204969, Control_c, 0, 64, 0
3, 205080, Note_on_c, 0, 60, 0
3, 205080, Note_on_c, 0, 57, 0
3, 205080, Note_on_c, 0, 48, 0
3, 205200, Note_on_c, 0, 48, 35
3, 205200, Note_on_c, 0, 57, 35
3, 205200, Note_on_c, 0, 60, 39
3, 205320, Note_on_c, 0, 60, 0
3, 205320, Note_on_c, 0, 57, 0
3, 205320, Note_on_c, 0, 48, 0
3, 205440, Note_on_c, 0, 48, 36
3, 205440, Control_c, 0, 64, 127
3, 205440, Note_on_c, 0, 55, 36
3, 205440, Note_on_c, 0, 60, 40
3, 205920, Note_on_c, 0, 60, 0
3, 205920, Note_on_c, 0, 55, 0
3, 205920, Note_on_c, 0, 48, 0
3, 205920, Note_on_c, 0, 48, 34
3, 205920, Note_on_c, 0, 53, 34
3, 205920, Note_on_c, 0, 60, 38
3, 205939, Control_c, 0, 64, 0
3, 206040, Note_on_c, 0, 60, 0
3, 206040, Note_on_c, 0, 53, 0
3, 206040, Note_on_c, 0, 48, 0
3, 206160, Note_on_c, 0, 48, 34
3, 206160, Note_on_c, 0, 53, 34
3, 206160, Note_on_c, 0, 60, 38
3, 206280, Note_on_c, 0, 60, 0
3, 206280, Note_on_c, 0, 53, 0
3, 206280, Note_on_c, 0, 48, 0
3, 206400, Note_on_c, 0, 48, 36
3, 206400, Control_c, 0, 64, 127
3, 206400, Note_on_c, 0, 50, 36
3, 206400, Note_on_c, 0, 60, 40
3, 206880, Note_on_c, 0, 60, 0
3, 206880, Note_on_c, 0, 50, 0
3, 206880, Note_on_c, 0, 48, 0
3, 206880, Note_on_c, 0, 52, 34
3, 206880, Note_on_c, 0, 48, 34
3, 206880, Note_on_c, 0, 60, 38
3, 206894, Control_c, 0, 64, 0
3, 207000, Note_on_c, 0, 60, 0
3, 207000, Note_on_c, 0, 48, 0
3, 207000, Note_on_c, 0, 52, 0
3, 207120, Note_on_c, 0, 52, 34
3, 207120, Note_on_c, 0, 48, 34
3, 207120, Note_on_c, 0, 60, 38
3, 207240, Note_on_c, 0, 60, 0
3, 207240, Note_on_c, 0, 48, 0
3, 207240, Note_on_c, 0, 52, 0
3, 207360, Note_on_c, 0, 41, 71
3, 207360, Note_on_c, 0, 53, 79
3, 207479, Note_on_c, 0, 53, 0
3, 207479, Note_on_c, 0, 41, 0
3, 207840, Note_on_c, 0, 53, 71
3, 207840, Note_on_c, 0, 60, 79
3, 207959, Note_on_c, 0, 60, 0
3, 207959, Note_on_c, 0, 53, 0
3, 208320, Note_on_c, 0, 48, 36
3, 208320, Note_on_c, 0, 50, 36
3, 208320, Note_on_c, 0, 60, 40
3, 208391, Control_c, 0, 64, 127
3, 208800, Note_on_c, 0, 60, 0
3, 208800, Note_on_c, 0, 50, 0
3, 208800, Note_on_c, 0, 48, 0
3, 208800, Note_on_c, 0, 52, 34
3, 208800, Note_on_c, 0, 48, 34
3, 208800, Note_on_c, 0, 60, 38
3, 208814, Control_c, 0, 64, 0
3, 208920, Note_on_c, 0, 60, 0
3, 208920, Note_on_c, 0, 48, 0
3, 208920, Note_on_c, 0, 52, 0
3, 209040, Note_on_c, 0, 52, 34
3, 209040, Note_on_c, 0, 48, 34
3, 209040, Note_on_c, 0, 60, 38
3, 209160, Note_on_c, 0, 60, 0
3, 209160, Note_on_c, 0, 48, 0
3, 209160, Note_on_c, 0, 52, 0
3, 209280, Note_on_c, 0, 41, 73
3, 209280, Note_on_c, 0, 53, 82
3, 209399, Note_on_c, 0, 53, 0
3, 209399, Note_on_c, 0, 41, 0
3, 209760, Note_on_c, 0, 53, 73
3, 209760, Note_on_c, 0, 60, 82
3, 209879, Note_on_c, 0, 60, 0
3, 209879, Note_on_c, 0, 53, 0
3, 210240, Note_on_c, 0, 48, 36
3, 210240, Control_c, 0, 64, 127
3, 210240, Note_on_c, 0, 50, 36
3, 210240, Note_on_c, 0, 60, 40
3, 210720, Note_on_c, 0, 60, 0
3, 210720, Note_on_c, 0, 50, 0
3, 210720, Note_on_c, 0, 48, 0
3, 210720, Note_on_c, 0, 52, 34
3, 210720, Note_on_c, 0, 48, 34
3, 210720, Note_on_c, 0, 60, 38
3, 210738, Control_c, 0, 64, 0
3, 210840, Note_on_c, 0, 60, 0
3, 210840, Note_on_c, 0, 48, 0
3, 210840, Note_on_c, 0, 52, 0
3, 210960, Note_on_c, 0, 52, 34
3, 210960, Note_on_c, 0, 48, 34
3, 210960, Note_on_c, 0, 60, 38
3, 211080, Note_on_c, 0, 60, 0
3, 211080, Note_on_c, 0, 48, 0
3, 211080, Note_on_c, 0, 52, 0
3, 211200, Note_on_c, 0, 41, 75
3, 211200, Note_on_c, 0, 53, 84
3, 211307, Control_c, 0, 64, 127
3, 211632, Note_on_c, 0, 53, 0
3, 211632, Note_on_c, 0, 41, 0
3, 211680, Note_on_c, 0, 53, 84
3, 212048, Control_c, 0, 64, 0
3, 212160, Note_on_c, 0, 53, 0
3, 212160, End_track
4, 0, Start_track
4, 0, Title_t, "Schubert: Moment Musicau No.5 in F-, Op. 94 - D 780"
4, 0, End_track
5, 0, Start_track
5, 0, Title_t, "Copyright © 1997 by Bernd Krueger"
5, 0, End_track
6, 0, Start_track
6, 0, Title_t, "http://www.piano-midi.de"
6, 0, End_track
7, 0, Start_track
7, 0, Title_t, "Edition: 2014-03-16"
7, 0, End_track
0, 0, End_of_file
