0, 0, Header, 1, 7, 480
1, 0, Start_track
1, 0, Title_t, "Klaviersonate a-Moll, Opus 143 2. Satz"
1, 0, Copyright_t, "Copyright © 2004 by Bernd Krueger"
1, 0, Text_t, "Franz Schubert"
1, 0, Text_t, "Fertiggestellt am 26.11.99\012"
1, 0, Text_t, "Update am 1.7.2000\012"
1, 0, Text_t, "Normierung: 23.12.2002\012"
1, 0, Text_t, "Update am 19.9.2004\012"
1, 0, Text_t, "Update am 17.3.2014\012"
1, 0, Text_t, "Dauer: 3:48 Minuten\012"
1, 0, SMPTE_offset, 96, 0, 3, 0, 0
1, 0, Time_signature, 4, 2, 24, 8
1, 0, Key_signature, -1, "major"
1, 0, Tempo, 857143
1, 0, Marker_t, "Andante"
1, 720, Tempo, 833333
1, 960, Tempo, 816327
1, 1440, Tempo, 833333
1, 1920, Tempo, 857143
1, 2400, Tempo, 833333
1, 2880, Tempo, 857143
1, 3840, Tempo, 827586
1, 4800, Tempo, 827586
1, 5760, Tempo, 857143
1, 6240, Tempo, 774194
1, 7440, Tempo, 916031
1, 7680, Tempo, 833333
1, 8640, Tempo, 816327
1, 9120, Tempo, 833333
1, 9600, Tempo, 839161
1, 10080, Tempo, 827586
1, 10560, Tempo, 810811
1, 11040, Tempo, 845070
1, 11520, Tempo, 863309
1, 12480, Tempo, 857143
1, 13920, Tempo, 774194
1, 14760, Tempo, 759494
1, 14880, Tempo, 774194
1, 15120, Tempo, 909091
1, 15360, Tempo, 857143
1, 16320, Tempo, 816327
1, 16800, Tempo, 833333
1, 17280, Tempo, 833333
1, 17760, Tempo, 816327
1, 18240, Tempo, 794702
1, 18720, Tempo, 839161
1, 19200, Tempo, 816327
1, 19680, Tempo, 764331
1, 20160, Tempo, 805369
1, 20640, Tempo, 821918
1, 21120, Tempo, 821918
1, 21600, Tempo, 789474
1, 22080, Tempo, 857143
1, 23040, Tempo, 857143
1, 23520, Tempo, 833333
1, 24000, Tempo, 857143
1, 24960, Tempo, 827586
1, 25920, Tempo, 827586
1, 26880, Tempo, 857143
1, 27360, Tempo, 774194
1, 28560, Tempo, 916031
1, 28800, Tempo, 827586
1, 29280, Tempo, 833333
1, 29760, Tempo, 857143
1, 30240, Tempo, 839161
1, 30720, Tempo, 810811
1, 31680, Tempo, 827586
1, 32640, Tempo, 857143
1, 33120, Tempo, 759494
1, 34320, Tempo, 845070
1, 35040, Tempo, 759494
1, 37440, Tempo, 754717
1, 37520, Tempo, 759494
1, 37560, Tempo, 764331
1, 37600, Tempo, 769231
1, 37680, Tempo, 774194
1, 37720, Tempo, 779221
1, 37760, Tempo, 784314
1, 37800, Tempo, 789474
1, 37880, Tempo, 794702
1, 37920, Tempo, 800000
1, 37960, Tempo, 800000
1, 38000, Tempo, 816327
1, 38040, Tempo, 839161
1, 38080, Tempo, 863309
1, 38120, Tempo, 882353
1, 38160, Tempo, 909091
1, 38200, Tempo, 937500
1, 38280, Tempo, 1176471
1, 38340, Tempo, 1600000
1, 38400, Tempo, 857143
1, 39360, Tempo, 916031
1, 39520, Tempo, 882353
1, 39840, Tempo, 909091
1, 40000, Tempo, 888889
1, 40160, Tempo, 916031
1, 40480, Tempo, 902256
1, 40800, Tempo, 882353
1, 41120, Tempo, 952381
1, 41280, Tempo, 916031
1, 41440, Tempo, 882353
1, 41760, Tempo, 909091
1, 41920, Tempo, 888889
1, 42080, Tempo, 916031
1, 42400, Tempo, 902256
1, 43200, Tempo, 916031
1, 43360, Tempo, 882353
1, 43680, Tempo, 909091
1, 43840, Tempo, 875912
1, 44160, Tempo, 895522
1, 44320, Tempo, 869565
1, 44332, Tempo, 845070
1, 44344, Tempo, 821918
1, 44372, Tempo, 851064
1, 44384, Tempo, 869565
1, 44400, Tempo, 875912
1, 44412, Tempo, 882353
1, 44424, Tempo, 888889
1, 44452, Tempo, 882353
1, 44464, Tempo, 875912
1, 44480, Tempo, 851064
1, 44492, Tempo, 839161
1, 44560, Tempo, 845070
1, 44572, Tempo, 863309
1, 44584, Tempo, 869565
1, 44640, Tempo, 882353
1, 44784, Tempo, 869565
1, 44800, Tempo, 863309
1, 44812, Tempo, 845070
1, 44824, Tempo, 839161
1, 44852, Tempo, 833333
1, 44864, Tempo, 839161
1, 44880, Tempo, 869565
1, 44892, Tempo, 875912
1, 44932, Tempo, 869565
1, 44944, Tempo, 851064
1, 44960, Tempo, 839161
1, 44972, Tempo, 827586
1, 45012, Tempo, 845070
1, 45024, Tempo, 851064
1, 45052, Tempo, 857143
1, 45120, Tempo, 909091
1, 45280, Tempo, 888889
1, 45292, Tempo, 869565
1, 45320, Tempo, 863309
1, 45344, Tempo, 869565
1, 45360, Tempo, 882353
1, 45372, Tempo, 888889
1, 45384, Tempo, 895522
1, 45440, Tempo, 882353
1, 45452, Tempo, 863309
1, 45464, Tempo, 857143
1, 45504, Tempo, 863309
1, 45520, Tempo, 875912
1, 45532, Tempo, 882353
1, 45600, Tempo, 909091
1, 45760, Tempo, 882353
1, 45784, Tempo, 869565
1, 45800, Tempo, 882353
1, 45812, Tempo, 888889
1, 45824, Tempo, 895522
1, 45920, Tempo, 916031
1, 46240, Tempo, 909091
1, 46280, Tempo, 895522
1, 46560, Tempo, 888889
1, 46880, Tempo, 909091
1, 47040, Tempo, 909091
1, 47200, Tempo, 902256
1, 47520, Tempo, 888889
1, 47840, Tempo, 930233
1, 48000, Tempo, 895522
1, 48498, Tempo, 888889
1, 48640, Tempo, 875912
1, 48960, Tempo, 888889
1, 49420, Tempo, 869565
1, 49778, Tempo, 930233
1, 49920, Tempo, 915611
1, 50080, Tempo, 861326
1, 50400, Tempo, 894588
1, 50580, Tempo, 861326
1, 50880, Tempo, 880928
1, 51040, Tempo, 861326
1, 51360, Tempo, 880928
1, 51520, Tempo, 863309
1, 51840, Tempo, 908540
1, 52000, Tempo, 861326
1, 52320, Tempo, 915611
1, 52480, Tempo, 867804
1, 52800, Tempo, 952381
1, 52960, Tempo, 875912
1, 53280, Tempo, 952381
1, 53440, Tempo, 916031
1, 53600, Tempo, 952381
1, 53760, Tempo, 975610
1, 53920, Tempo, 909091
1, 54240, Tempo, 930233
1, 54400, Tempo, 869565
1, 54720, Tempo, 909091
1, 54880, Tempo, 863309
1, 55200, Tempo, 902256
1, 55360, Tempo, 863309
1, 55680, Tempo, 895522
1, 55840, Tempo, 863309
1, 56160, Tempo, 902256
1, 56320, Tempo, 875912
1, 56640, Tempo, 930233
1, 56800, Tempo, 902256
1, 57120, Tempo, 983607
1, 57280, Tempo, 944882
1, 57600, Tempo, 904159
1, 57760, Tempo, 865801
1, 58080, Tempo, 877963
1, 58240, Tempo, 841751
1, 58560, Tempo, 859476
1, 58720, Tempo, 841751
1, 59040, Tempo, 853485
1, 59200, Tempo, 833333
1, 59360, Tempo, 869565
1, 59440, Tempo, 1016949
1, 59520, Tempo, 884434
1, 59680, Tempo, 827586
1, 59840, Tempo, 875912
1, 60000, Tempo, 884434
1, 60160, Tempo, 841751
1, 60480, Tempo, 884434
1, 60640, Tempo, 847577
1, 60800, Tempo, 869565
1, 60960, Tempo, 865801
1, 61120, Tempo, 830335
1, 61280, Tempo, 897398
1, 61360, Tempo, 1025641
1, 61440, Tempo, 863309
1, 61600, Tempo, 845070
1, 61760, Tempo, 847577
1, 61920, Tempo, 857143
1, 62080, Tempo, 839161
1, 62240, Tempo, 847577
1, 62320, Tempo, 975610
1, 62400, Tempo, 865801
1, 62560, Tempo, 845070
1, 62740, Tempo, 847577
1, 62880, Tempo, 882353
1, 63040, Tempo, 877963
1, 63200, Tempo, 946223
1, 63280, Tempo, 1263158
1, 63360, Tempo, 930233
1, 63840, Tempo, 774194
1, 64600, Tempo, 754717
1, 64800, Tempo, 774194
1, 65280, Tempo, 904159
1, 65440, Tempo, 865801
1, 65760, Tempo, 877963
1, 65920, Tempo, 841751
1, 66240, Tempo, 859476
1, 66400, Tempo, 841751
1, 66640, Tempo, 975610
1, 66720, Tempo, 853485
1, 66880, Tempo, 895522
1, 67040, Tempo, 916031
1, 67200, Tempo, 882353
1, 67360, Tempo, 845070
1, 67680, Tempo, 877963
1, 67840, Tempo, 841751
1, 68160, Tempo, 888889
1, 68320, Tempo, 863309
1, 68640, Tempo, 937500
1, 68800, Tempo, 967742
1, 68960, Tempo, 1025641
1, 69120, Tempo, 888889
1, 70240, Tempo, 821918
1, 70400, Tempo, 863309
1, 70560, Tempo, 888889
1, 70720, Tempo, 863309
1, 70880, Tempo, 930233
1, 71520, Tempo, 774194
1, 72360, Tempo, 750000
1, 72480, Tempo, 774194
1, 72720, Tempo, 882353
1, 72960, Tempo, 904159
1, 73120, Tempo, 865801
1, 73440, Tempo, 877963
1, 73600, Tempo, 841751
1, 73920, Tempo, 859476
1, 74080, Tempo, 841751
1, 74320, Tempo, 975610
1, 74400, Tempo, 853485
1, 74560, Tempo, 895522
1, 74760, Tempo, 960000
1, 74880, Tempo, 882353
1, 75040, Tempo, 845070
1, 75360, Tempo, 877963
1, 75520, Tempo, 841751
1, 75840, Tempo, 888889
1, 76000, Tempo, 863309
1, 76320, Tempo, 937500
1, 76480, Tempo, 967742
1, 76640, Tempo, 1025641
1, 76800, Tempo, 888889
1, 77920, Tempo, 821918
1, 78080, Tempo, 863309
1, 78240, Tempo, 888889
1, 78400, Tempo, 863309
1, 78560, Tempo, 967742
1, 78720, Tempo, 888889
1, 79840, Tempo, 821918
1, 80000, Tempo, 863309
1, 80160, Tempo, 888889
1, 80320, Tempo, 863309
1, 80480, Tempo, 930233
1, 80560, Tempo, 1016949
1, 80640, Tempo, 884434
1, 80800, Tempo, 827586
1, 80960, Tempo, 875912
1, 81120, Tempo, 884434
1, 81280, Tempo, 841751
1, 81600, Tempo, 884434
1, 81760, Tempo, 847577
1, 81920, Tempo, 869565
1, 82080, Tempo, 865801
1, 82240, Tempo, 830335
1, 82400, Tempo, 897398
1, 82480, Tempo, 1025641
1, 82560, Tempo, 863309
1, 82720, Tempo, 845070
1, 82880, Tempo, 847577
1, 83040, Tempo, 857143
1, 83200, Tempo, 839161
1, 83360, Tempo, 847577
1, 83440, Tempo, 975610
1, 83520, Tempo, 865801
1, 83680, Tempo, 845070
1, 83860, Tempo, 847577
1, 84000, Tempo, 882353
1, 84160, Tempo, 877963
1, 84320, Tempo, 946223
1, 84400, Tempo, 1263158
1, 84480, Tempo, 930233
1, 84960, Tempo, 774194
1, 85680, Tempo, 769231
1, 85920, Tempo, 774194
1, 86160, Tempo, 937500
1, 86320, Tempo, 1016949
1, 86400, Tempo, 884434
1, 86560, Tempo, 827586
1, 86720, Tempo, 875912
1, 86880, Tempo, 884434
1, 87040, Tempo, 841751
1, 87360, Tempo, 884434
1, 87520, Tempo, 847577
1, 87680, Tempo, 869565
1, 87840, Tempo, 865801
1, 88000, Tempo, 830335
1, 88160, Tempo, 897398
1, 88240, Tempo, 1025641
1, 88320, Tempo, 863309
1, 88480, Tempo, 845070
1, 88640, Tempo, 847577
1, 88800, Tempo, 857143
1, 88960, Tempo, 839161
1, 89120, Tempo, 847577
1, 89200, Tempo, 975610
1, 89280, Tempo, 865801
1, 89440, Tempo, 845070
1, 89620, Tempo, 847577
1, 89760, Tempo, 902256
1, 89920, Tempo, 923077
1, 90080, Tempo, 946223
1, 90240, Tempo, 930233
1, 90720, Tempo, 774194
1, 92640, Tempo, 759494
1, 93840, Tempo, 845070
1, 94080, Tempo, 759494
1, 95040, Tempo, 759494
1, 95260, Tempo, 750000
1, 95320, Tempo, 754717
1, 95380, Tempo, 759494
1, 95420, Tempo, 764331
1, 95480, Tempo, 769231
1, 95520, Tempo, 774194
1, 95580, Tempo, 779221
1, 95640, Tempo, 784314
1, 95680, Tempo, 789474
1, 95740, Tempo, 794702
1, 95760, Tempo, 869565
1, 95880, Tempo, 1100917
1, 95920, Tempo, 1290323
1, 96000, Tempo, 784314
1, 96960, Tempo, 759494
1, 97920, Tempo, 789474
1, 99240, Tempo, 857143
1, 99360, Tempo, 916031
1, 99840, Tempo, 789474
1, 100200, Tempo, 857143
1, 100320, Tempo, 916031
1, 100800, Tempo, 789474
1, 101160, Tempo, 857143
1, 101280, Tempo, 916031
1, 101760, Tempo, 805369
1, 102240, Tempo, 759494
1, 103440, Tempo, 845070
1, 103680, Tempo, 759494
1, 104640, Tempo, 759494
1, 104860, Tempo, 750000
1, 104920, Tempo, 754717
1, 104980, Tempo, 759494
1, 105020, Tempo, 764331
1, 105080, Tempo, 769231
1, 105120, Tempo, 774194
1, 105180, Tempo, 779221
1, 105240, Tempo, 784314
1, 105280, Tempo, 789474
1, 105340, Tempo, 794702
1, 105360, Tempo, 869565
1, 105480, Tempo, 1025641
1, 105540, Tempo, 1212121
1, 105600, Tempo, 784314
1, 106560, Tempo, 759494
1, 107400, Tempo, 774194
1, 107520, Tempo, 789474
1, 108840, Tempo, 857143
1, 108960, Tempo, 916031
1, 109200, Tempo, 863309
1, 109440, Tempo, 789474
1, 109800, Tempo, 857143
1, 109920, Tempo, 882353
1, 110400, Tempo, 789474
1, 110760, Tempo, 857143
1, 110880, Tempo, 895522
1, 111840, Tempo, 774194
1, 113040, Tempo, 833333
1, 113280, Tempo, 789474
1, 114600, Tempo, 857143
1, 114720, Tempo, 916031
1, 115200, Tempo, 805369
1, 115560, Tempo, 875912
1, 115680, Tempo, 967742
1, 115920, Tempo, 930233
1, 116160, Tempo, 805369
1, 116520, Tempo, 991736
1, 116640, Tempo, 1034483
1, 117000, Tempo, 6315789
1, 117120, Tempo, 857143
1, 117840, Tempo, 833333
1, 118080, Tempo, 816327
1, 118560, Tempo, 833333
1, 118960, Tempo, 1237113
1, 119040, Tempo, 857143
1, 119520, Tempo, 833333
1, 120000, Tempo, 857143
1, 120960, Tempo, 827586
1, 121920, Tempo, 827586
1, 122880, Tempo, 857143
1, 123840, Tempo, 909091
1, 124800, Tempo, 967742
1, 126719, Marker_t, "Fine"
1, 128640, Tempo, 1200000
1, 128640, End_track
2, 0, Start_track
2, 0, Title_t, "Piano right"
2, 0, Program_c, 0, 0
2, 0, Control_c, 0, 7, 100
2, 0, Control_c, 0, 10, 64
2, 0, Control_c, 0, 91, 127
2, 0, Control_c, 0, 91, 127
2, 0, Text_t, "bdca426d104a26ac9dcb070447587523"
2, 1, Note_on_c, 0, 57, 50
2, 1, Note_on_c, 0, 60, 50
2, 720, Note_on_c, 0, 65, 42
2, 960, Note_on_c, 0, 65, 0
2, 960, Note_on_c, 0, 60, 0
2, 960, Note_on_c, 0, 57, 0
2, 960, Note_on_c, 0, 69, 50
2, 1440, Note_on_c, 0, 69, 0
2, 1440, Note_on_c, 0, 74, 54
2, 1440, Note_on_c, 0, 62, 54
2, 1920, Note_on_c, 0, 62, 0
2, 1920, Note_on_c, 0, 74, 0
2, 1920, Note_on_c, 0, 72, 50
2, 1920, Note_on_c, 0, 67, 50
2, 1920, Note_on_c, 0, 60, 50
2, 2640, Note_on_c, 0, 60, 0
2, 2640, Note_on_c, 0, 72, 0
2, 2640, Note_on_c, 0, 58, 45
2, 2640, Note_on_c, 0, 70, 45
2, 2880, Note_on_c, 0, 70, 0
2, 2880, Note_on_c, 0, 58, 0
2, 2880, Note_on_c, 0, 67, 0
2, 2880, Note_on_c, 0, 55, 50
2, 2880, Note_on_c, 0, 67, 50
2, 3360, Note_on_c, 0, 67, 0
2, 3360, Note_on_c, 0, 55, 0
2, 3360, Note_on_c, 0, 69, 45
2, 3360, Note_on_c, 0, 57, 45
2, 3840, Note_on_c, 0, 57, 0
2, 3840, Note_on_c, 0, 69, 0
2, 3840, Note_on_c, 0, 65, 45
2, 3840, Note_on_c, 0, 53, 45
2, 3840, Note_on_c, 0, 57, 45
2, 4800, Note_on_c, 0, 57, 0
2, 4800, Note_on_c, 0, 53, 0
2, 4800, Note_on_c, 0, 65, 0
2, 4800, Note_on_c, 0, 67, 37
2, 4800, Note_on_c, 0, 70, 37
2, 4800, Note_on_c, 0, 60, 37
2, 4800, Note_on_c, 0, 58, 37
2, 5760, Note_on_c, 0, 58, 0
2, 5760, Note_on_c, 0, 67, 0
2, 5760, Note_on_c, 0, 70, 0
2, 5760, Note_on_c, 0, 60, 0
2, 5760, Note_on_c, 0, 60, 28
2, 5760, Note_on_c, 0, 57, 28
2, 5760, Note_on_c, 0, 69, 28
2, 5760, Note_on_c, 0, 65, 28
2, 6000, Note_on_c, 0, 65, 0
2, 6000, Note_on_c, 0, 60, 0
2, 6000, Note_on_c, 0, 57, 0
2, 6000, Note_on_c, 0, 69, 0
2, 6240, Note_on_c, 0, 60, 21
2, 6600, Note_on_c, 0, 60, 0
2, 6600, Note_on_c, 0, 61, 18
2, 6660, Note_on_c, 0, 61, 0
2, 6660, Note_on_c, 0, 60, 18
2, 6720, Note_on_c, 0, 60, 0
2, 6720, Note_on_c, 0, 59, 25
2, 7080, Note_on_c, 0, 59, 0
2, 7080, Note_on_c, 0, 60, 18
2, 7140, Note_on_c, 0, 60, 0
2, 7140, Note_on_c, 0, 61, 18
2, 7200, Note_on_c, 0, 61, 0
2, 7200, Note_on_c, 0, 60, 21
2, 7320, Note_on_c, 0, 60, 0
2, 7680, Note_on_c, 0, 57, 46
2, 7680, Note_on_c, 0, 60, 46
2, 8400, Note_on_c, 0, 65, 46
2, 8637, Note_on_c, 0, 57, 0
2, 8640, Note_on_c, 0, 65, 0
2, 8640, Note_on_c, 0, 60, 0
2, 8640, Note_on_c, 0, 69, 50
2, 9120, Note_on_c, 0, 69, 0
2, 9120, Note_on_c, 0, 74, 61
2, 9120, Note_on_c, 0, 69, 61
2, 9120, Note_on_c, 0, 62, 61
2, 9600, Note_on_c, 0, 62, 0
2, 9600, Note_on_c, 0, 69, 0
2, 9600, Note_on_c, 0, 74, 0
2, 9600, Note_on_c, 0, 74, 60
2, 9600, Note_on_c, 0, 69, 60
2, 9600, Note_on_c, 0, 62, 60
2, 10320, Note_on_c, 0, 65, 65
2, 10320, Note_on_c, 0, 77, 65
2, 10560, Note_on_c, 0, 77, 0
2, 10560, Note_on_c, 0, 62, 0
2, 10560, Note_on_c, 0, 74, 0
2, 10560, Note_on_c, 0, 69, 0
2, 10560, Note_on_c, 0, 65, 0
2, 10560, Note_on_c, 0, 81, 69
2, 10560, Note_on_c, 0, 69, 69
2, 11040, Note_on_c, 0, 69, 0
2, 11040, Note_on_c, 0, 81, 0
2, 11040, Note_on_c, 0, 70, 74
2, 11040, Note_on_c, 0, 73, 74
2, 11040, Note_on_c, 0, 82, 74
2, 11520, Note_on_c, 0, 82, 0
2, 11520, Note_on_c, 0, 73, 0
2, 11520, Note_on_c, 0, 70, 0
2, 11520, Note_on_c, 0, 73, 71
2, 11520, Note_on_c, 0, 82, 71
2, 11520, Note_on_c, 0, 70, 71
2, 12480, Note_on_c, 0, 70, 0
2, 12480, Note_on_c, 0, 82, 0
2, 12480, Note_on_c, 0, 73, 0
2, 12480, Note_on_c, 0, 81, 52
2, 12480, Note_on_c, 0, 69, 52
2, 12480, Note_on_c, 0, 72, 52
2, 12960, Note_on_c, 0, 72, 0
2, 12960, Note_on_c, 0, 69, 0
2, 12960, Note_on_c, 0, 81, 0
2, 12960, Note_on_c, 0, 79, 46
2, 12960, Note_on_c, 0, 72, 46
2, 12960, Note_on_c, 0, 70, 46
2, 13440, Note_on_c, 0, 70, 0
2, 13440, Note_on_c, 0, 79, 0
2, 13440, Note_on_c, 0, 69, 42
2, 13440, Note_on_c, 0, 77, 42
2, 13680, Note_on_c, 0, 77, 0
2, 13680, Note_on_c, 0, 69, 0
2, 13680, Note_on_c, 0, 72, 0
2, 13920, Note_on_c, 0, 60, 21
2, 14280, Note_on_c, 0, 60, 0
2, 14280, Note_on_c, 0, 61, 18
2, 14340, Note_on_c, 0, 61, 0
2, 14340, Note_on_c, 0, 60, 18
2, 14400, Note_on_c, 0, 60, 0
2, 14400, Note_on_c, 0, 59, 25
2, 14760, Note_on_c, 0, 59, 0
2, 14760, Note_on_c, 0, 60, 18
2, 14820, Note_on_c, 0, 60, 0
2, 14820, Note_on_c, 0, 61, 18
2, 14880, Note_on_c, 0, 61, 0
2, 14880, Note_on_c, 0, 60, 21
2, 15000, Note_on_c, 0, 60, 0
2, 15360, Note_on_c, 0, 55, 46
2, 15360, Note_on_c, 0, 60, 46
2, 16080, Note_on_c, 0, 60, 0
2, 16080, Note_on_c, 0, 64, 46
2, 16317, Note_on_c, 0, 55, 0
2, 16320, Note_on_c, 0, 64, 0
2, 16320, Note_on_c, 0, 67, 50
2, 16800, Note_on_c, 0, 67, 0
2, 16800, Note_on_c, 0, 58, 61
2, 16800, Note_on_c, 0, 61, 61
2, 16800, Note_on_c, 0, 70, 61
2, 17280, Note_on_c, 0, 70, 0
2, 17280, Note_on_c, 0, 61, 0
2, 17280, Note_on_c, 0, 58, 0
2, 17280, Note_on_c, 0, 58, 56
2, 17280, Note_on_c, 0, 62, 56
2, 18000, Note_on_c, 0, 65, 56
2, 18237, Note_on_c, 0, 58, 0
2, 18240, Note_on_c, 0, 65, 0
2, 18240, Note_on_c, 0, 62, 0
2, 18240, Note_on_c, 0, 70, 71
2, 18720, Note_on_c, 0, 70, 0
2, 18720, Note_on_c, 0, 70, 73
2, 18720, Note_on_c, 0, 74, 73
2, 18720, Note_on_c, 0, 65, 73
2, 18720, Note_on_c, 0, 62, 73
2, 19200, Note_on_c, 0, 62, 0
2, 19200, Note_on_c, 0, 70, 0
2, 19200, Note_on_c, 0, 74, 0
2, 19200, Note_on_c, 0, 65, 0
2, 19200, Note_on_c, 0, 63, 77
2, 19200, Note_on_c, 0, 66, 77
2, 19200, Note_on_c, 0, 75, 77
2, 20160, Note_on_c, 0, 75, 0
2, 20160, Note_on_c, 0, 66, 0
2, 20160, Note_on_c, 0, 63, 0
2, 20160, Note_on_c, 0, 74, 70
2, 20160, Note_on_c, 0, 65, 70
2, 20160, Note_on_c, 0, 62, 70
2, 20640, Note_on_c, 0, 62, 0
2, 20640, Note_on_c, 0, 65, 0
2, 20640, Note_on_c, 0, 74, 0
2, 20640, Note_on_c, 0, 60, 71
2, 20640, Note_on_c, 0, 65, 71
2, 20640, Note_on_c, 0, 72, 71
2, 21120, Note_on_c, 0, 72, 0
2, 21120, Note_on_c, 0, 65, 0
2, 21120, Note_on_c, 0, 60, 0
2, 21120, Note_on_c, 0, 61, 77
2, 21120, Note_on_c, 0, 64, 77
2, 21120, Note_on_c, 0, 73, 77
2, 22080, Note_on_c, 0, 73, 0
2, 22080, Note_on_c, 0, 64, 0
2, 22080, Note_on_c, 0, 61, 0
2, 22080, Note_on_c, 0, 72, 67
2, 22080, Note_on_c, 0, 65, 67
2, 22080, Note_on_c, 0, 60, 67
2, 22560, Note_on_c, 0, 60, 0
2, 22560, Note_on_c, 0, 65, 0
2, 22560, Note_on_c, 0, 72, 0
2, 22560, Note_on_c, 0, 57, 51
2, 22560, Note_on_c, 0, 69, 51
2, 22560, Note_on_c, 0, 65, 51
2, 23040, Note_on_c, 0, 65, 0
2, 23040, Note_on_c, 0, 69, 0
2, 23040, Note_on_c, 0, 57, 0
2, 23040, Note_on_c, 0, 60, 50
2, 23040, Note_on_c, 0, 72, 50
2, 23040, Note_on_c, 0, 67, 50
2, 23760, Note_on_c, 0, 72, 0
2, 23760, Note_on_c, 0, 60, 0
2, 23760, Note_on_c, 0, 58, 45
2, 23760, Note_on_c, 0, 70, 45
2, 24000, Note_on_c, 0, 70, 0
2, 24000, Note_on_c, 0, 58, 0
2, 24000, Note_on_c, 0, 67, 0
2, 24000, Note_on_c, 0, 55, 50
2, 24000, Note_on_c, 0, 67, 50
2, 24480, Note_on_c, 0, 67, 0
2, 24480, Note_on_c, 0, 55, 0
2, 24480, Note_on_c, 0, 69, 45
2, 24480, Note_on_c, 0, 57, 45
2, 24960, Note_on_c, 0, 57, 0
2, 24960, Note_on_c, 0, 69, 0
2, 24960, Note_on_c, 0, 65, 45
2, 24960, Note_on_c, 0, 53, 45
2, 24960, Note_on_c, 0, 57, 45
2, 25920, Note_on_c, 0, 57, 0
2, 25920, Note_on_c, 0, 53, 0
2, 25920, Note_on_c, 0, 65, 0
2, 25920, Note_on_c, 0, 67, 39
2, 25920, Note_on_c, 0, 58, 39
2, 25920, Note_on_c, 0, 64, 39
2, 26880, Note_on_c, 0, 64, 0
2, 26880, Note_on_c, 0, 58, 0
2, 26880, Note_on_c, 0, 67, 0
2, 26880, Note_on_c, 0, 69, 32
2, 26880, Note_on_c, 0, 57, 32
2, 26880, Note_on_c, 0, 65, 32
2, 27120, Note_on_c, 0, 65, 0
2, 27120, Note_on_c, 0, 57, 0
2, 27120, Note_on_c, 0, 69, 0
2, 27360, Note_on_c, 0, 60, 21
2, 27720, Note_on_c, 0, 60, 0
2, 27720, Note_on_c, 0, 61, 18
2, 27780, Note_on_c, 0, 61, 0
2, 27780, Note_on_c, 0, 60, 18
2, 27840, Note_on_c, 0, 60, 0
2, 27840, Note_on_c, 0, 59, 25
2, 28200, Note_on_c, 0, 59, 0
2, 28200, Note_on_c, 0, 60, 18
2, 28260, Note_on_c, 0, 60, 0
2, 28260, Note_on_c, 0, 61, 18
2, 28320, Note_on_c, 0, 61, 0
2, 28320, Note_on_c, 0, 60, 21
2, 28440, Note_on_c, 0, 60, 0
2, 28800, Note_on_c, 0, 72, 50
2, 28800, Note_on_c, 0, 84, 50
2, 28800, Note_on_c, 0, 79, 50
2, 29520, Note_on_c, 0, 84, 0
2, 29520, Note_on_c, 0, 72, 0
2, 29520, Note_on_c, 0, 70, 45
2, 29520, Note_on_c, 0, 82, 45
2, 29760, Note_on_c, 0, 82, 0
2, 29760, Note_on_c, 0, 70, 0
2, 29760, Note_on_c, 0, 79, 0
2, 29760, Note_on_c, 0, 67, 50
2, 29760, Note_on_c, 0, 79, 50
2, 30240, Note_on_c, 0, 79, 0
2, 30240, Note_on_c, 0, 67, 0
2, 30240, Note_on_c, 0, 81, 45
2, 30240, Note_on_c, 0, 69, 45
2, 30720, Note_on_c, 0, 69, 0
2, 30720, Note_on_c, 0, 81, 0
2, 30720, Note_on_c, 0, 77, 45
2, 30720, Note_on_c, 0, 65, 45
2, 30720, Note_on_c, 0, 69, 45
2, 31680, Note_on_c, 0, 69, 0
2, 31680, Note_on_c, 0, 65, 0
2, 31680, Note_on_c, 0, 77, 0
2, 31680, Note_on_c, 0, 79, 39
2, 31680, Note_on_c, 0, 67, 39
2, 31680, Note_on_c, 0, 76, 39
2, 32640, Note_on_c, 0, 76, 0
2, 32640, Note_on_c, 0, 67, 0
2, 32640, Note_on_c, 0, 79, 0
2, 32640, Note_on_c, 0, 65, 32
2, 32640, Note_on_c, 0, 77, 32
2, 32880, Note_on_c, 0, 77, 0
2, 32880, Note_on_c, 0, 65, 0
2, 33120, Note_on_c, 0, 72, 21
2, 33480, Note_on_c, 0, 72, 0
2, 33480, Note_on_c, 0, 73, 18
2, 33540, Note_on_c, 0, 73, 0
2, 33540, Note_on_c, 0, 72, 18
2, 33600, Note_on_c, 0, 72, 0
2, 33600, Note_on_c, 0, 71, 25
2, 33960, Note_on_c, 0, 71, 0
2, 33960, Note_on_c, 0, 72, 18
2, 34020, Note_on_c, 0, 72, 0
2, 34020, Note_on_c, 0, 73, 18
2, 34080, Note_on_c, 0, 73, 0
2, 34080, Note_on_c, 0, 72, 21
2, 34200, Note_on_c, 0, 72, 0
2, 35040, Note_on_c, 0, 65, 40
2, 35400, Note_on_c, 0, 65, 0
2, 35400, Note_on_c, 0, 66, 34
2, 35460, Note_on_c, 0, 66, 0
2, 35460, Note_on_c, 0, 65, 34
2, 35520, Note_on_c, 0, 65, 0
2, 35520, Note_on_c, 0, 64, 48
2, 35880, Note_on_c, 0, 64, 0
2, 35880, Note_on_c, 0, 65, 38
2, 35940, Note_on_c, 0, 65, 0
2, 35940, Note_on_c, 0, 66, 39
2, 36000, Note_on_c, 0, 66, 0
2, 36000, Note_on_c, 0, 65, 51
2, 36360, Note_on_c, 0, 65, 0
2, 36360, Note_on_c, 0, 63, 45
2, 36420, Note_on_c, 0, 63, 0
2, 36420, Note_on_c, 0, 61, 52
2, 36480, Note_on_c, 0, 61, 0
2, 36480, Note_on_c, 0, 60, 63
2, 36840, Note_on_c, 0, 60, 0
2, 36840, Note_on_c, 0, 61, 53
2, 36900, Note_on_c, 0, 61, 0
2, 36900, Note_on_c, 0, 63, 55
2, 36960, Note_on_c, 0, 63, 0
2, 36960, Note_on_c, 0, 61, 71
2, 37320, Note_on_c, 0, 61, 0
2, 37320, Note_on_c, 0, 60, 59
2, 37380, Note_on_c, 0, 60, 0
2, 37380, Note_on_c, 0, 58, 67
2, 37440, Note_on_c, 0, 58, 0
2, 37440, Note_on_c, 0, 57, 75
2, 37800, Note_on_c, 0, 57, 0
2, 37800, Note_on_c, 0, 58, 71
2, 37860, Note_on_c, 0, 58, 0
2, 37860, Note_on_c, 0, 60, 71
2, 37920, Note_on_c, 0, 60, 0
2, 37920, Note_on_c, 0, 58, 87
2, 38280, Note_on_c, 0, 58, 0
2, 38280, Note_on_c, 0, 56, 76
2, 38340, Note_on_c, 0, 56, 0
2, 38340, Note_on_c, 0, 54, 86
2, 38400, Note_on_c, 0, 54, 0
2, 38400, Note_on_c, 0, 53, 69
2, 38400, Note_on_c, 0, 56, 82
2, 38400, Note_on_c, 0, 61, 82
2, 39360, Note_on_c, 0, 61, 0
2, 39360, Note_on_c, 0, 56, 0
2, 39360, Note_on_c, 0, 53, 0
2, 39360, Note_on_c, 0, 53, 61
2, 39360, Note_on_c, 0, 61, 72
2, 39360, Note_on_c, 0, 56, 72
2, 39520, Note_on_c, 0, 56, 0
2, 39520, Note_on_c, 0, 61, 0
2, 39520, Note_on_c, 0, 53, 0
2, 39520, Note_on_c, 0, 61, 65
2, 39520, Note_on_c, 0, 56, 55
2, 39520, Note_on_c, 0, 65, 65
2, 39680, Note_on_c, 0, 65, 0
2, 39680, Note_on_c, 0, 56, 0
2, 39680, Note_on_c, 0, 61, 0
2, 39680, Note_on_c, 0, 61, 66
2, 39680, Note_on_c, 0, 56, 56
2, 39680, Note_on_c, 0, 65, 66
2, 39800, Note_on_c, 0, 65, 0
2, 39800, Note_on_c, 0, 56, 0
2, 39800, Note_on_c, 0, 61, 0
2, 39840, Note_on_c, 0, 65, 69
2, 39840, Note_on_c, 0, 61, 58
2, 39840, Note_on_c, 0, 68, 69
2, 40000, Note_on_c, 0, 68, 0
2, 40000, Note_on_c, 0, 61, 0
2, 40000, Note_on_c, 0, 65, 0
2, 40000, Note_on_c, 0, 68, 61
2, 40000, Note_on_c, 0, 65, 51
2, 40000, Note_on_c, 0, 73, 61
2, 40160, Note_on_c, 0, 73, 0
2, 40160, Note_on_c, 0, 65, 0
2, 40160, Note_on_c, 0, 68, 0
2, 40160, Note_on_c, 0, 68, 62
2, 40160, Note_on_c, 0, 65, 52
2, 40160, Note_on_c, 0, 73, 62
2, 40280, Note_on_c, 0, 73, 0
2, 40280, Note_on_c, 0, 65, 0
2, 40280, Note_on_c, 0, 68, 0
2, 40320, Note_on_c, 0, 68, 69
2, 40320, Note_on_c, 0, 63, 58
2, 40320, Note_on_c, 0, 73, 69
2, 40800, Note_on_c, 0, 73, 0
2, 40800, Note_on_c, 0, 72, 62
2, 41280, Note_on_c, 0, 72, 0
2, 41280, Note_on_c, 0, 63, 0
2, 41280, Note_on_c, 0, 68, 0
2, 41280, Note_on_c, 0, 53, 68
2, 41280, Note_on_c, 0, 58, 68
2, 41280, Note_on_c, 0, 61, 68
2, 41440, Note_on_c, 0, 61, 0
2, 41440, Note_on_c, 0, 58, 0
2, 41440, Note_on_c, 0, 53, 0
2, 41440, Note_on_c, 0, 58, 60
2, 41440, Note_on_c, 0, 65, 60
2, 41440, Note_on_c, 0, 61, 60
2, 41600, Note_on_c, 0, 61, 0
2, 41600, Note_on_c, 0, 65, 0
2, 41600, Note_on_c, 0, 58, 0
2, 41600, Note_on_c, 0, 61, 60
2, 41600, Note_on_c, 0, 65, 60
2, 41600, Note_on_c, 0, 58, 60
2, 41720, Note_on_c, 0, 58, 0
2, 41720, Note_on_c, 0, 65, 0
2, 41720, Note_on_c, 0, 61, 0
2, 41760, Note_on_c, 0, 65, 67
2, 41760, Note_on_c, 0, 58, 67
2, 41760, Note_on_c, 0, 61, 67
2, 41920, Note_on_c, 0, 61, 0
2, 41920, Note_on_c, 0, 58, 0
2, 41920, Note_on_c, 0, 65, 0
2, 41920, Note_on_c, 0, 70, 58
2, 41920, Note_on_c, 0, 61, 58
2, 41920, Note_on_c, 0, 65, 58
2, 42080, Note_on_c, 0, 65, 0
2, 42080, Note_on_c, 0, 61, 0
2, 42080, Note_on_c, 0, 70, 0
2, 42080, Note_on_c, 0, 70, 58
2, 42080, Note_on_c, 0, 61, 58
2, 42080, Note_on_c, 0, 65, 58
2, 42200, Note_on_c, 0, 65, 0
2, 42200, Note_on_c, 0, 61, 0
2, 42200, Note_on_c, 0, 70, 0
2, 42240, Note_on_c, 0, 70, 66
2, 42240, Note_on_c, 0, 60, 66
2, 42240, Note_on_c, 0, 65, 66
2, 42720, Note_on_c, 0, 70, 0
2, 42720, Note_on_c, 0, 68, 62
2, 43200, Note_on_c, 0, 68, 0
2, 43200, Note_on_c, 0, 65, 0
2, 43200, Note_on_c, 0, 60, 0
2, 43200, Note_on_c, 0, 58, 68
2, 43200, Note_on_c, 0, 49, 57
2, 43200, Note_on_c, 0, 54, 57
2, 43360, Note_on_c, 0, 54, 0
2, 43360, Note_on_c, 0, 49, 0
2, 43360, Note_on_c, 0, 58, 0
2, 43360, Note_on_c, 0, 61, 60
2, 43360, Note_on_c, 0, 58, 51
2, 43360, Note_on_c, 0, 54, 51
2, 43520, Note_on_c, 0, 54, 0
2, 43520, Note_on_c, 0, 58, 0
2, 43520, Note_on_c, 0, 61, 0
2, 43520, Note_on_c, 0, 61, 60
2, 43520, Note_on_c, 0, 58, 51
2, 43520, Note_on_c, 0, 54, 51
2, 43640, Note_on_c, 0, 54, 0
2, 43640, Note_on_c, 0, 58, 0
2, 43640, Note_on_c, 0, 61, 0
2, 43680, Note_on_c, 0, 61, 67
2, 43680, Note_on_c, 0, 54, 56
2, 43680, Note_on_c, 0, 58, 56
2, 43840, Note_on_c, 0, 58, 0
2, 43840, Note_on_c, 0, 54, 0
2, 43840, Note_on_c, 0, 61, 0
2, 43840, Note_on_c, 0, 58, 49
2, 43840, Note_on_c, 0, 61, 49
2, 43840, Note_on_c, 0, 66, 58
2, 44000, Note_on_c, 0, 66, 0
2, 44000, Note_on_c, 0, 61, 0
2, 44000, Note_on_c, 0, 58, 0
2, 44000, Note_on_c, 0, 58, 49
2, 44000, Note_on_c, 0, 61, 49
2, 44000, Note_on_c, 0, 66, 58
2, 44120, Note_on_c, 0, 66, 0
2, 44120, Note_on_c, 0, 61, 0
2, 44120, Note_on_c, 0, 58, 0
2, 44160, Note_on_c, 0, 66, 70
2, 44160, Note_on_c, 0, 58, 59
2, 44160, Note_on_c, 0, 61, 59
2, 44320, Note_on_c, 0, 61, 0
2, 44320, Note_on_c, 0, 58, 0
2, 44320, Note_on_c, 0, 66, 0
2, 44320, Note_on_c, 0, 70, 66
2, 44320, Note_on_c, 0, 61, 56
2, 44320, Note_on_c, 0, 66, 56
2, 44480, Note_on_c, 0, 66, 0
2, 44480, Note_on_c, 0, 61, 0
2, 44480, Note_on_c, 0, 70, 0
2, 44480, Note_on_c, 0, 70, 66
2, 44480, Note_on_c, 0, 61, 56
2, 44480, Note_on_c, 0, 66, 56
2, 44600, Note_on_c, 0, 66, 0
2, 44600, Note_on_c, 0, 61, 0
2, 44600, Note_on_c, 0, 70, 0
2, 44640, Note_on_c, 0, 66, 63
2, 44640, Note_on_c, 0, 70, 75
2, 44640, Note_on_c, 0, 61, 63
2, 44800, Note_on_c, 0, 61, 0
2, 44800, Note_on_c, 0, 70, 0
2, 44800, Note_on_c, 0, 66, 0
2, 44800, Note_on_c, 0, 70, 60
2, 44800, Note_on_c, 0, 73, 71
2, 44800, Note_on_c, 0, 66, 60
2, 44960, Note_on_c, 0, 66, 0
2, 44960, Note_on_c, 0, 73, 0
2, 44960, Note_on_c, 0, 70, 0
2, 44960, Note_on_c, 0, 70, 62
2, 44960, Note_on_c, 0, 73, 74
2, 44960, Note_on_c, 0, 66, 62
2, 45080, Note_on_c, 0, 66, 0
2, 45080, Note_on_c, 0, 73, 0
2, 45080, Note_on_c, 0, 70, 0
2, 45120, Note_on_c, 0, 70, 68
2, 45120, Note_on_c, 0, 73, 81
2, 45120, Note_on_c, 0, 66, 68
2, 45280, Note_on_c, 0, 66, 0
2, 45280, Note_on_c, 0, 73, 0
2, 45280, Note_on_c, 0, 70, 0
2, 45280, Note_on_c, 0, 73, 61
2, 45280, Note_on_c, 0, 78, 72
2, 45280, Note_on_c, 0, 70, 61
2, 45440, Note_on_c, 0, 70, 0
2, 45440, Note_on_c, 0, 78, 0
2, 45440, Note_on_c, 0, 73, 0
2, 45440, Note_on_c, 0, 73, 63
2, 45440, Note_on_c, 0, 78, 75
2, 45440, Note_on_c, 0, 70, 63
2, 45560, Note_on_c, 0, 70, 0
2, 45560, Note_on_c, 0, 78, 0
2, 45560, Note_on_c, 0, 73, 0
2, 45600, Note_on_c, 0, 70, 71
2, 45600, Note_on_c, 0, 73, 71
2, 45600, Note_on_c, 0, 78, 84
2, 45760, Note_on_c, 0, 78, 0
2, 45760, Note_on_c, 0, 73, 0
2, 45760, Note_on_c, 0, 70, 0
2, 45760, Note_on_c, 0, 82, 78
2, 45760, Note_on_c, 0, 70, 66
2, 45760, Note_on_c, 0, 73, 66
2, 45760, Note_on_c, 0, 78, 78
2, 45920, Note_on_c, 0, 78, 0
2, 45920, Note_on_c, 0, 82, 0
2, 45920, Note_on_c, 0, 70, 0
2, 45920, Note_on_c, 0, 73, 0
2, 45920, Note_on_c, 0, 78, 78
2, 45920, Note_on_c, 0, 70, 66
2, 45920, Note_on_c, 0, 73, 66
2, 45920, Note_on_c, 0, 82, 78
2, 46040, Note_on_c, 0, 82, 0
2, 46040, Note_on_c, 0, 78, 0
2, 46040, Note_on_c, 0, 70, 0
2, 46040, Note_on_c, 0, 73, 0
2, 46080, Note_on_c, 0, 80, 95
2, 46080, Note_on_c, 0, 73, 80
2, 46080, Note_on_c, 0, 85, 95
2, 46560, Note_on_c, 0, 85, 0
2, 46560, Note_on_c, 0, 73, 0
2, 46560, Note_on_c, 0, 80, 0
2, 46560, Note_on_c, 0, 73, 74
2, 46560, Note_on_c, 0, 83, 88
2, 46560, Note_on_c, 0, 71, 74
2, 46560, Note_on_c, 0, 80, 88
2, 46720, Note_on_c, 0, 80, 0
2, 46720, Note_on_c, 0, 73, 0
2, 46720, Note_on_c, 0, 83, 0
2, 46720, Note_on_c, 0, 71, 0
2, 46720, Note_on_c, 0, 73, 66
2, 46720, Note_on_c, 0, 70, 66
2, 46720, Note_on_c, 0, 82, 78
2, 46720, Note_on_c, 0, 78, 78
2, 46880, Note_on_c, 0, 78, 0
2, 46880, Note_on_c, 0, 73, 0
2, 46880, Note_on_c, 0, 70, 0
2, 46880, Note_on_c, 0, 82, 0
2, 46880, Note_on_c, 0, 70, 66
2, 46880, Note_on_c, 0, 78, 78
2, 46880, Note_on_c, 0, 73, 66
2, 46880, Note_on_c, 0, 82, 78
2, 47000, Note_on_c, 0, 82, 0
2, 47000, Note_on_c, 0, 70, 0
2, 47000, Note_on_c, 0, 78, 0
2, 47000, Note_on_c, 0, 73, 0
2, 47040, Note_on_c, 0, 85, 95
2, 47040, Note_on_c, 0, 73, 80
2, 47040, Note_on_c, 0, 80, 95
2, 47520, Note_on_c, 0, 80, 0
2, 47520, Note_on_c, 0, 73, 0
2, 47520, Note_on_c, 0, 85, 0
2, 47520, Note_on_c, 0, 83, 88
2, 47520, Note_on_c, 0, 71, 74
2, 47520, Note_on_c, 0, 73, 74
2, 47520, Note_on_c, 0, 80, 88
2, 47680, Note_on_c, 0, 80, 0
2, 47680, Note_on_c, 0, 83, 0
2, 47680, Note_on_c, 0, 71, 0
2, 47680, Note_on_c, 0, 73, 0
2, 47680, Note_on_c, 0, 73, 66
2, 47680, Note_on_c, 0, 78, 78
2, 47680, Note_on_c, 0, 82, 78
2, 47680, Note_on_c, 0, 70, 66
2, 47840, Note_on_c, 0, 70, 0
2, 47840, Note_on_c, 0, 73, 0
2, 47840, Note_on_c, 0, 78, 0
2, 47840, Note_on_c, 0, 82, 0
2, 47840, Note_on_c, 0, 70, 66
2, 47840, Note_on_c, 0, 78, 78
2, 47840, Note_on_c, 0, 82, 78
2, 47840, Note_on_c, 0, 73, 66
2, 47960, Note_on_c, 0, 73, 0
2, 47960, Note_on_c, 0, 70, 0
2, 47960, Note_on_c, 0, 78, 0
2, 47960, Note_on_c, 0, 82, 0
2, 48000, Note_on_c, 0, 88, 101
2, 48000, Note_on_c, 0, 82, 101
2, 48000, Note_on_c, 0, 76, 85
2, 48480, Note_on_c, 0, 76, 0
2, 48480, Note_on_c, 0, 82, 0
2, 48480, Note_on_c, 0, 88, 0
2, 48480, Note_on_c, 0, 86, 98
2, 48480, Note_on_c, 0, 74, 83
2, 48480, Note_on_c, 0, 82, 98
2, 48640, Note_on_c, 0, 82, 0
2, 48640, Note_on_c, 0, 74, 0
2, 48640, Note_on_c, 0, 86, 0
2, 48640, Note_on_c, 0, 82, 92
2, 48640, Note_on_c, 0, 75, 78
2, 48640, Note_on_c, 0, 87, 92
2, 48800, Note_on_c, 0, 87, 0
2, 48800, Note_on_c, 0, 75, 0
2, 48800, Note_on_c, 0, 82, 0
2, 48800, Note_on_c, 0, 82, 92
2, 48800, Note_on_c, 0, 75, 78
2, 48800, Note_on_c, 0, 87, 92
2, 48920, Note_on_c, 0, 87, 0
2, 48920, Note_on_c, 0, 75, 0
2, 48920, Note_on_c, 0, 82, 0
2, 48960, Note_on_c, 0, 88, 101
2, 48960, Note_on_c, 0, 82, 101
2, 48960, Note_on_c, 0, 76, 85
2, 49440, Note_on_c, 0, 76, 0
2, 49440, Note_on_c, 0, 82, 0
2, 49440, Note_on_c, 0, 88, 0
2, 49440, Note_on_c, 0, 86, 98
2, 49440, Note_on_c, 0, 74, 83
2, 49440, Note_on_c, 0, 82, 98
2, 49600, Note_on_c, 0, 82, 0
2, 49600, Note_on_c, 0, 74, 0
2, 49600, Note_on_c, 0, 86, 0
2, 49600, Note_on_c, 0, 82, 92
2, 49600, Note_on_c, 0, 75, 78
2, 49600, Note_on_c, 0, 87, 92
2, 49760, Note_on_c, 0, 87, 0
2, 49760, Note_on_c, 0, 75, 0
2, 49760, Note_on_c, 0, 82, 0
2, 49760, Note_on_c, 0, 82, 92
2, 49760, Note_on_c, 0, 75, 78
2, 49760, Note_on_c, 0, 87, 92
2, 49880, Note_on_c, 0, 87, 0
2, 49880, Note_on_c, 0, 75, 0
2, 49880, Note_on_c, 0, 82, 0
2, 49920, Note_on_c, 0, 82, 92
2, 49920, Note_on_c, 0, 76, 78
2, 49920, Note_on_c, 0, 88, 92
2, 50400, Note_on_c, 0, 88, 0
2, 50400, Note_on_c, 0, 76, 0
2, 50400, Note_on_c, 0, 82, 0
2, 50400, Note_on_c, 0, 76, 79
2, 50400, Note_on_c, 0, 88, 94
2, 50400, Note_on_c, 0, 82, 94
2, 50880, Note_on_c, 0, 82, 0
2, 50880, Note_on_c, 0, 88, 0
2, 50880, Note_on_c, 0, 76, 0
2, 50880, Note_on_c, 0, 76, 82
2, 50880, Note_on_c, 0, 88, 97
2, 50880, Note_on_c, 0, 82, 97
2, 51360, Note_on_c, 0, 82, 0
2, 51360, Note_on_c, 0, 88, 0
2, 51360, Note_on_c, 0, 76, 0
2, 51360, Note_on_c, 0, 76, 85
2, 51360, Note_on_c, 0, 88, 100
2, 51360, Note_on_c, 0, 82, 100
2, 51840, Note_on_c, 0, 82, 0
2, 51840, Note_on_c, 0, 88, 0
2, 51840, Note_on_c, 0, 76, 0
2, 51840, Note_on_c, 0, 83, 90
2, 51840, Note_on_c, 0, 77, 90
2, 51840, Note_on_c, 0, 86, 106
2, 51840, Note_on_c, 0, 89, 106
2, 52320, Note_on_c, 0, 89, 0
2, 52320, Note_on_c, 0, 83, 0
2, 52320, Note_on_c, 0, 77, 0
2, 52320, Note_on_c, 0, 86, 0
2, 52320, Note_on_c, 0, 86, 106
2, 52320, Note_on_c, 0, 89, 106
2, 52320, Note_on_c, 0, 83, 90
2, 52320, Note_on_c, 0, 77, 90
2, 52800, Note_on_c, 0, 77, 0
2, 52800, Note_on_c, 0, 86, 0
2, 52800, Note_on_c, 0, 89, 0
2, 52800, Note_on_c, 0, 83, 0
2, 52800, Note_on_c, 0, 90, 111
2, 52800, Note_on_c, 0, 81, 94
2, 52800, Note_on_c, 0, 87, 111
2, 52800, Note_on_c, 0, 84, 94
2, 52800, Note_on_c, 0, 78, 94
2, 53280, Note_on_c, 0, 78, 0
2, 53280, Note_on_c, 0, 87, 0
2, 53280, Note_on_c, 0, 90, 0
2, 53280, Note_on_c, 0, 81, 0
2, 53280, Note_on_c, 0, 84, 0
2, 53280, Note_on_c, 0, 87, 112
2, 53280, Note_on_c, 0, 84, 95
2, 53280, Note_on_c, 0, 78, 95
2, 53280, Note_on_c, 0, 81, 95
2, 53280, Note_on_c, 0, 90, 112
2, 53760, Note_on_c, 0, 90, 0
2, 53760, Note_on_c, 0, 78, 0
2, 53760, Note_on_c, 0, 87, 0
2, 53760, Note_on_c, 0, 84, 0
2, 53760, Note_on_c, 0, 81, 0
2, 53760, Note_on_c, 0, 91, 113
2, 53760, Note_on_c, 0, 79, 96
2, 53760, Note_on_c, 0, 86, 113
2, 53760, Note_on_c, 0, 83, 96
2, 53880, Note_on_c, 0, 83, 0
2, 53880, Note_on_c, 0, 91, 0
2, 53880, Note_on_c, 0, 79, 0
2, 53880, Note_on_c, 0, 86, 0
2, 53920, Note_on_c, 0, 79, 86
2, 54040, Note_on_c, 0, 79, 0
2, 54080, Note_on_c, 0, 79, 72
2, 54200, Note_on_c, 0, 79, 0
2, 54240, Note_on_c, 0, 67, 81
2, 54400, Note_on_c, 0, 67, 0
2, 54400, Note_on_c, 0, 79, 69
2, 54560, Note_on_c, 0, 79, 0
2, 54560, Note_on_c, 0, 79, 61
2, 54680, Note_on_c, 0, 79, 0
2, 54720, Note_on_c, 0, 67, 61
2, 54880, Note_on_c, 0, 67, 0
2, 54880, Note_on_c, 0, 79, 54
2, 55040, Note_on_c, 0, 79, 0
2, 55040, Note_on_c, 0, 79, 45
2, 55160, Note_on_c, 0, 79, 0
2, 55200, Note_on_c, 0, 67, 59
2, 55360, Note_on_c, 0, 67, 0
2, 55360, Note_on_c, 0, 79, 50
2, 55520, Note_on_c, 0, 79, 0
2, 55520, Note_on_c, 0, 79, 45
2, 55640, Note_on_c, 0, 79, 0
2, 55680, Note_on_c, 0, 67, 56
2, 55840, Note_on_c, 0, 67, 0
2, 55840, Note_on_c, 0, 79, 45
2, 56000, Note_on_c, 0, 79, 0
2, 56000, Note_on_c, 0, 79, 45
2, 56120, Note_on_c, 0, 79, 0
2, 56160, Note_on_c, 0, 67, 54
2, 56320, Note_on_c, 0, 67, 0
2, 56320, Note_on_c, 0, 79, 42
2, 56480, Note_on_c, 0, 79, 0
2, 56480, Note_on_c, 0, 79, 43
2, 56600, Note_on_c, 0, 79, 0
2, 56640, Note_on_c, 0, 67, 50
2, 56800, Note_on_c, 0, 67, 0
2, 56800, Note_on_c, 0, 79, 39
2, 56960, Note_on_c, 0, 79, 0
2, 56960, Note_on_c, 0, 79, 39
2, 57080, Note_on_c, 0, 79, 0
2, 57120, Note_on_c, 0, 67, 50
2, 57280, Note_on_c, 0, 67, 0
2, 57280, Note_on_c, 0, 79, 40
2, 57440, Note_on_c, 0, 79, 0
2, 57440, Note_on_c, 0, 79, 39
2, 57560, Note_on_c, 0, 79, 0
2, 57600, Note_on_c, 0, 76, 48
2, 57760, Note_on_c, 0, 76, 0
2, 57760, Note_on_c, 0, 79, 40
2, 57920, Note_on_c, 0, 79, 0
2, 57920, Note_on_c, 0, 79, 40
2, 58040, Note_on_c, 0, 79, 0
2, 58080, Note_on_c, 0, 79, 50
2, 58240, Note_on_c, 0, 79, 0
2, 58240, Note_on_c, 0, 84, 39
2, 58400, Note_on_c, 0, 84, 0
2, 58400, Note_on_c, 0, 84, 39
2, 58520, Note_on_c, 0, 84, 0
2, 58560, Note_on_c, 0, 84, 48
2, 58720, Note_on_c, 0, 84, 0
2, 58720, Note_on_c, 0, 88, 39
2, 58880, Note_on_c, 0, 88, 0
2, 58880, Note_on_c, 0, 88, 39
2, 59000, Note_on_c, 0, 88, 0
2, 59040, Note_on_c, 0, 88, 54
2, 59200, Note_on_c, 0, 88, 0
2, 59200, Note_on_c, 0, 93, 43
2, 59360, Note_on_c, 0, 93, 0
2, 59360, Note_on_c, 0, 93, 42
2, 59480, Note_on_c, 0, 93, 0
2, 59520, Note_on_c, 0, 93, 54
2, 59680, Note_on_c, 0, 93, 0
2, 59680, Note_on_c, 0, 91, 44
2, 59840, Note_on_c, 0, 91, 0
2, 59840, Note_on_c, 0, 91, 41
2, 59960, Note_on_c, 0, 91, 0
2, 60000, Note_on_c, 0, 91, 51
2, 60160, Note_on_c, 0, 91, 0
2, 60160, Note_on_c, 0, 89, 42
2, 60320, Note_on_c, 0, 89, 0
2, 60320, Note_on_c, 0, 89, 42
2, 60440, Note_on_c, 0, 89, 0
2, 60480, Note_on_c, 0, 89, 50
2, 60640, Note_on_c, 0, 89, 0
2, 60640, Note_on_c, 0, 86, 42
2, 60800, Note_on_c, 0, 86, 0
2, 60800, Note_on_c, 0, 86, 42
2, 60920, Note_on_c, 0, 86, 0
2, 60960, Note_on_c, 0, 86, 48
2, 61120, Note_on_c, 0, 86, 0
2, 61120, Note_on_c, 0, 88, 42
2, 61280, Note_on_c, 0, 88, 0
2, 61280, Note_on_c, 0, 88, 42
2, 61400, Note_on_c, 0, 88, 0
2, 61440, Note_on_c, 0, 76, 48
2, 61600, Note_on_c, 0, 76, 0
2, 61600, Note_on_c, 0, 84, 43
2, 61760, Note_on_c, 0, 84, 0
2, 61760, Note_on_c, 0, 84, 43
2, 61880, Note_on_c, 0, 84, 0
2, 61920, Note_on_c, 0, 86, 48
2, 62080, Note_on_c, 0, 86, 0
2, 62080, Note_on_c, 0, 84, 42
2, 62240, Note_on_c, 0, 84, 0
2, 62240, Note_on_c, 0, 84, 42
2, 62360, Note_on_c, 0, 84, 0
2, 62400, Note_on_c, 0, 83, 48
2, 62560, Note_on_c, 0, 83, 0
2, 62560, Note_on_c, 0, 89, 43
2, 62720, Note_on_c, 0, 89, 0
2, 62720, Note_on_c, 0, 89, 44
2, 62840, Note_on_c, 0, 89, 0
2, 62880, Note_on_c, 0, 91, 48
2, 63040, Note_on_c, 0, 91, 0
2, 63040, Note_on_c, 0, 89, 42
2, 63200, Note_on_c, 0, 89, 0
2, 63200, Note_on_c, 0, 89, 41
2, 63320, Note_on_c, 0, 89, 0
2, 63360, Note_on_c, 0, 88, 40
2, 63480, Note_on_c, 0, 88, 0
2, 63840, Note_on_c, 0, 72, 26
2, 63840, Note_on_c, 0, 76, 26
2, 64200, Note_on_c, 0, 76, 0
2, 64200, Note_on_c, 0, 77, 23
2, 64260, Note_on_c, 0, 77, 0
2, 64260, Note_on_c, 0, 76, 23
2, 64320, Note_on_c, 0, 76, 0
2, 64320, Note_on_c, 0, 75, 29
2, 64680, Note_on_c, 0, 75, 0
2, 64680, Note_on_c, 0, 76, 22
2, 64740, Note_on_c, 0, 76, 0
2, 64740, Note_on_c, 0, 77, 22
2, 64800, Note_on_c, 0, 77, 0
2, 64800, Note_on_c, 0, 76, 26
2, 64920, Note_on_c, 0, 76, 0
2, 64920, Note_on_c, 0, 72, 0
2, 65280, Note_on_c, 0, 76, 48
2, 65440, Note_on_c, 0, 76, 0
2, 65440, Note_on_c, 0, 79, 40
2, 65600, Note_on_c, 0, 79, 0
2, 65600, Note_on_c, 0, 79, 40
2, 65720, Note_on_c, 0, 79, 0
2, 65760, Note_on_c, 0, 79, 50
2, 65920, Note_on_c, 0, 79, 0
2, 65920, Note_on_c, 0, 84, 39
2, 66080, Note_on_c, 0, 84, 0
2, 66080, Note_on_c, 0, 84, 39
2, 66200, Note_on_c, 0, 84, 0
2, 66240, Note_on_c, 0, 84, 52
2, 66400, Note_on_c, 0, 84, 0
2, 66400, Note_on_c, 0, 88, 43
2, 66560, Note_on_c, 0, 88, 0
2, 66560, Note_on_c, 0, 88, 43
2, 66680, Note_on_c, 0, 88, 0
2, 66720, Note_on_c, 0, 88, 56
2, 66880, Note_on_c, 0, 88, 0
2, 66880, Note_on_c, 0, 93, 46
2, 67040, Note_on_c, 0, 93, 0
2, 67040, Note_on_c, 0, 93, 46
2, 67160, Note_on_c, 0, 93, 0
2, 67200, Note_on_c, 0, 76, 60
2, 67360, Note_on_c, 0, 76, 0
2, 67360, Note_on_c, 0, 81, 56
2, 67520, Note_on_c, 0, 81, 0
2, 67520, Note_on_c, 0, 81, 52
2, 67640, Note_on_c, 0, 81, 0
2, 67680, Note_on_c, 0, 81, 61
2, 67840, Note_on_c, 0, 81, 0
2, 67840, Note_on_c, 0, 84, 55
2, 68000, Note_on_c, 0, 84, 0
2, 68000, Note_on_c, 0, 84, 55
2, 68120, Note_on_c, 0, 84, 0
2, 68160, Note_on_c, 0, 84, 68
2, 68320, Note_on_c, 0, 84, 0
2, 68320, Note_on_c, 0, 88, 63
2, 68480, Note_on_c, 0, 88, 0
2, 68480, Note_on_c, 0, 88, 64
2, 68600, Note_on_c, 0, 88, 0
2, 68640, Note_on_c, 0, 88, 87
2, 68800, Note_on_c, 0, 88, 0
2, 68800, Note_on_c, 0, 80, 72
2, 68800, Note_on_c, 0, 89, 72
2, 68800, Note_on_c, 0, 77, 72
2, 68960, Note_on_c, 0, 77, 0
2, 68960, Note_on_c, 0, 89, 0
2, 68960, Note_on_c, 0, 80, 0
2, 68960, Note_on_c, 0, 80, 72
2, 68960, Note_on_c, 0, 77, 72
2, 68960, Note_on_c, 0, 89, 72
2, 69080, Note_on_c, 0, 89, 0
2, 69080, Note_on_c, 0, 77, 0
2, 69080, Note_on_c, 0, 80, 0
2, 69120, Note_on_c, 0, 89, 76
2, 69120, Note_on_c, 0, 77, 76
2, 69120, Note_on_c, 0, 80, 76
2, 70080, Note_on_c, 0, 80, 0
2, 70080, Note_on_c, 0, 77, 0
2, 70080, Note_on_c, 0, 89, 0
2, 70080, Note_on_c, 0, 79, 65
2, 70240, Note_on_c, 0, 79, 0
2, 70240, Note_on_c, 0, 89, 58
2, 70320, Note_on_c, 0, 89, 0
2, 70400, Note_on_c, 0, 88, 49
2, 70480, Note_on_c, 0, 88, 0
2, 70560, Note_on_c, 0, 77, 58
2, 70720, Note_on_c, 0, 77, 0
2, 70720, Note_on_c, 0, 88, 51
2, 70800, Note_on_c, 0, 88, 0
2, 70880, Note_on_c, 0, 86, 48
2, 70960, Note_on_c, 0, 86, 0
2, 71040, Note_on_c, 0, 84, 50
2, 71040, Note_on_c, 0, 76, 50
2, 71280, Note_on_c, 0, 76, 0
2, 71280, Note_on_c, 0, 84, 0
2, 71520, Note_on_c, 0, 72, 21
2, 71520, Note_on_c, 0, 76, 26
2, 71880, Note_on_c, 0, 76, 0
2, 71880, Note_on_c, 0, 77, 23
2, 71940, Note_on_c, 0, 77, 0
2, 71940, Note_on_c, 0, 76, 23
2, 72000, Note_on_c, 0, 76, 0
2, 72000, Note_on_c, 0, 75, 29
2, 72360, Note_on_c, 0, 75, 0
2, 72360, Note_on_c, 0, 76, 22
2, 72420, Note_on_c, 0, 76, 0
2, 72420, Note_on_c, 0, 77, 22
2, 72480, Note_on_c, 0, 77, 0
2, 72480, Note_on_c, 0, 76, 26
2, 72600, Note_on_c, 0, 76, 0
2, 72600, Note_on_c, 0, 72, 0
2, 72960, Note_on_c, 0, 67, 48
2, 73120, Note_on_c, 0, 67, 0
2, 73120, Note_on_c, 0, 72, 40
2, 73280, Note_on_c, 0, 72, 0
2, 73280, Note_on_c, 0, 72, 40
2, 73400, Note_on_c, 0, 72, 0
2, 73440, Note_on_c, 0, 72, 50
2, 73600, Note_on_c, 0, 72, 0
2, 73600, Note_on_c, 0, 76, 39
2, 73760, Note_on_c, 0, 76, 0
2, 73760, Note_on_c, 0, 76, 39
2, 73880, Note_on_c, 0, 76, 0
2, 73920, Note_on_c, 0, 76, 52
2, 74080, Note_on_c, 0, 76, 0
2, 74080, Note_on_c, 0, 79, 43
2, 74240, Note_on_c, 0, 79, 0
2, 74240, Note_on_c, 0, 79, 43
2, 74360, Note_on_c, 0, 79, 0
2, 74400, Note_on_c, 0, 73, 56
2, 74400, Note_on_c, 0, 70, 56
2, 74400, Note_on_c, 0, 79, 56
2, 74560, Note_on_c, 0, 79, 0
2, 74560, Note_on_c, 0, 82, 46
2, 74720, Note_on_c, 0, 82, 0
2, 74720, Note_on_c, 0, 82, 46
2, 74760, Note_on_c, 0, 70, 0
2, 74760, Note_on_c, 0, 73, 0
2, 74760, Note_on_c, 0, 70, 55
2, 74760, Note_on_c, 0, 73, 55
2, 74840, Note_on_c, 0, 82, 0
2, 74880, Note_on_c, 0, 73, 0
2, 74880, Note_on_c, 0, 70, 0
2, 74880, Note_on_c, 0, 70, 67
2, 75040, Note_on_c, 0, 70, 0
2, 75040, Note_on_c, 0, 74, 56
2, 75200, Note_on_c, 0, 74, 0
2, 75200, Note_on_c, 0, 74, 52
2, 75320, Note_on_c, 0, 74, 0
2, 75360, Note_on_c, 0, 74, 61
2, 75520, Note_on_c, 0, 74, 0
2, 75520, Note_on_c, 0, 77, 55
2, 75680, Note_on_c, 0, 77, 0
2, 75680, Note_on_c, 0, 77, 55
2, 75800, Note_on_c, 0, 77, 0
2, 75840, Note_on_c, 0, 77, 68
2, 76000, Note_on_c, 0, 77, 0
2, 76000, Note_on_c, 0, 82, 63
2, 76160, Note_on_c, 0, 82, 0
2, 76160, Note_on_c, 0, 82, 64
2, 76280, Note_on_c, 0, 82, 0
2, 76320, Note_on_c, 0, 82, 88
2, 76480, Note_on_c, 0, 82, 0
2, 76480, Note_on_c, 0, 86, 79
2, 76480, Note_on_c, 0, 77, 79
2, 76480, Note_on_c, 0, 74, 79
2, 76640, Note_on_c, 0, 74, 0
2, 76640, Note_on_c, 0, 77, 0
2, 76640, Note_on_c, 0, 86, 0
2, 76640, Note_on_c, 0, 74, 79
2, 76640, Note_on_c, 0, 77, 79
2, 76640, Note_on_c, 0, 86, 79
2, 76760, Note_on_c, 0, 86, 0
2, 76760, Note_on_c, 0, 77, 0
2, 76760, Note_on_c, 0, 74, 0
2, 76800, Note_on_c, 0, 87, 96
2, 76800, Note_on_c, 0, 75, 96
2, 76800, Note_on_c, 0, 78, 96
2, 77760, Note_on_c, 0, 78, 0
2, 77760, Note_on_c, 0, 75, 0
2, 77760, Note_on_c, 0, 87, 0
2, 77760, Note_on_c, 0, 77, 65
2, 77920, Note_on_c, 0, 77, 0
2, 77920, Note_on_c, 0, 87, 58
2, 78000, Note_on_c, 0, 87, 0
2, 78080, Note_on_c, 0, 86, 49
2, 78160, Note_on_c, 0, 86, 0
2, 78240, Note_on_c, 0, 77, 58
2, 78400, Note_on_c, 0, 77, 0
2, 78400, Note_on_c, 0, 86, 51
2, 78480, Note_on_c, 0, 86, 0
2, 78560, Note_on_c, 0, 84, 48
2, 78640, Note_on_c, 0, 84, 0
2, 78720, Note_on_c, 0, 85, 93
2, 78720, Note_on_c, 0, 73, 93
2, 78720, Note_on_c, 0, 76, 93
2, 79680, Note_on_c, 0, 76, 0
2, 79680, Note_on_c, 0, 73, 0
2, 79680, Note_on_c, 0, 85, 0
2, 79680, Note_on_c, 0, 72, 65
2, 79840, Note_on_c, 0, 72, 0
2, 79840, Note_on_c, 0, 85, 58
2, 79920, Note_on_c, 0, 85, 0
2, 80000, Note_on_c, 0, 84, 49
2, 80080, Note_on_c, 0, 84, 0
2, 80160, Note_on_c, 0, 72, 58
2, 80320, Note_on_c, 0, 72, 0
2, 80320, Note_on_c, 0, 82, 51
2, 80400, Note_on_c, 0, 82, 0
2, 80480, Note_on_c, 0, 81, 48
2, 80560, Note_on_c, 0, 81, 0
2, 80640, Note_on_c, 0, 86, 54
2, 80800, Note_on_c, 0, 86, 0
2, 80800, Note_on_c, 0, 84, 44
2, 80960, Note_on_c, 0, 84, 0
2, 80960, Note_on_c, 0, 84, 41
2, 81080, Note_on_c, 0, 84, 0
2, 81120, Note_on_c, 0, 84, 51
2, 81280, Note_on_c, 0, 84, 0
2, 81280, Note_on_c, 0, 82, 42
2, 81440, Note_on_c, 0, 82, 0
2, 81440, Note_on_c, 0, 82, 42
2, 81560, Note_on_c, 0, 82, 0
2, 81600, Note_on_c, 0, 82, 50
2, 81760, Note_on_c, 0, 82, 0
2, 81760, Note_on_c, 0, 79, 42
2, 81920, Note_on_c, 0, 79, 0
2, 81920, Note_on_c, 0, 79, 42
2, 82040, Note_on_c, 0, 79, 0
2, 82080, Note_on_c, 0, 79, 48
2, 82240, Note_on_c, 0, 79, 0
2, 82240, Note_on_c, 0, 81, 42
2, 82400, Note_on_c, 0, 81, 0
2, 82400, Note_on_c, 0, 81, 42
2, 82520, Note_on_c, 0, 81, 0
2, 82560, Note_on_c, 0, 69, 48
2, 82720, Note_on_c, 0, 69, 0
2, 82720, Note_on_c, 0, 77, 43
2, 82880, Note_on_c, 0, 77, 0
2, 82880, Note_on_c, 0, 77, 43
2, 83000, Note_on_c, 0, 77, 0
2, 83040, Note_on_c, 0, 79, 48
2, 83200, Note_on_c, 0, 79, 0
2, 83200, Note_on_c, 0, 77, 42
2, 83360, Note_on_c, 0, 77, 0
2, 83360, Note_on_c, 0, 77, 42
2, 83480, Note_on_c, 0, 77, 0
2, 83520, Note_on_c, 0, 76, 48
2, 83680, Note_on_c, 0, 76, 0
2, 83680, Note_on_c, 0, 82, 43
2, 83840, Note_on_c, 0, 82, 0
2, 83840, Note_on_c, 0, 82, 44
2, 83960, Note_on_c, 0, 82, 0
2, 84000, Note_on_c, 0, 84, 48
2, 84160, Note_on_c, 0, 84, 0
2, 84160, Note_on_c, 0, 82, 42
2, 84320, Note_on_c, 0, 82, 0
2, 84320, Note_on_c, 0, 82, 41
2, 84440, Note_on_c, 0, 82, 0
2, 84480, Note_on_c, 0, 81, 40
2, 84600, Note_on_c, 0, 81, 0
2, 84960, Note_on_c, 0, 69, 26
2, 84960, Note_on_c, 0, 65, 21
2, 85320, Note_on_c, 0, 69, 0
2, 85320, Note_on_c, 0, 70, 23
2, 85380, Note_on_c, 0, 70, 0
2, 85380, Note_on_c, 0, 69, 23
2, 85440, Note_on_c, 0, 69, 0
2, 85440, Note_on_c, 0, 68, 29
2, 85800, Note_on_c, 0, 68, 0
2, 85800, Note_on_c, 0, 69, 22
2, 85860, Note_on_c, 0, 69, 0
2, 85860, Note_on_c, 0, 70, 22
2, 85920, Note_on_c, 0, 70, 0
2, 85920, Note_on_c, 0, 69, 26
2, 86040, Note_on_c, 0, 69, 0
2, 86040, Note_on_c, 0, 65, 0
2, 86400, Note_on_c, 0, 98, 54
2, 86560, Note_on_c, 0, 98, 0
2, 86560, Note_on_c, 0, 96, 44
2, 86720, Note_on_c, 0, 96, 0
2, 86720, Note_on_c, 0, 96, 41
2, 86840, Note_on_c, 0, 96, 0
2, 86880, Note_on_c, 0, 96, 51
2, 87040, Note_on_c, 0, 96, 0
2, 87040, Note_on_c, 0, 94, 42
2, 87200, Note_on_c, 0, 94, 0
2, 87200, Note_on_c, 0, 94, 42
2, 87320, Note_on_c, 0, 94, 0
2, 87360, Note_on_c, 0, 94, 50
2, 87520, Note_on_c, 0, 94, 0
2, 87520, Note_on_c, 0, 91, 42
2, 87680, Note_on_c, 0, 91, 0
2, 87680, Note_on_c, 0, 91, 42
2, 87800, Note_on_c, 0, 91, 0
2, 87840, Note_on_c, 0, 91, 48
2, 88000, Note_on_c, 0, 91, 0
2, 88000, Note_on_c, 0, 93, 42
2, 88160, Note_on_c, 0, 93, 0
2, 88160, Note_on_c, 0, 93, 42
2, 88280, Note_on_c, 0, 93, 0
2, 88320, Note_on_c, 0, 81, 48
2, 88480, Note_on_c, 0, 81, 0
2, 88480, Note_on_c, 0, 89, 43
2, 88640, Note_on_c, 0, 89, 0
2, 88640, Note_on_c, 0, 89, 43
2, 88760, Note_on_c, 0, 89, 0
2, 88800, Note_on_c, 0, 91, 48
2, 88960, Note_on_c, 0, 91, 0
2, 88960, Note_on_c, 0, 89, 42
2, 89120, Note_on_c, 0, 89, 0
2, 89120, Note_on_c, 0, 89, 42
2, 89240, Note_on_c, 0, 89, 0
2, 89280, Note_on_c, 0, 82, 48
2, 89440, Note_on_c, 0, 82, 0
2, 89440, Note_on_c, 0, 91, 43
2, 89600, Note_on_c, 0, 91, 0
2, 89600, Note_on_c, 0, 91, 44
2, 89720, Note_on_c, 0, 91, 0
2, 89760, Note_on_c, 0, 94, 48
2, 89920, Note_on_c, 0, 94, 0
2, 89920, Note_on_c, 0, 93, 42
2, 90080, Note_on_c, 0, 93, 0
2, 90080, Note_on_c, 0, 91, 41
2, 90200, Note_on_c, 0, 91, 0
2, 90240, Note_on_c, 0, 89, 40
2, 90360, Note_on_c, 0, 89, 0
2, 90720, Note_on_c, 0, 65, 21
2, 90720, Note_on_c, 0, 69, 26
2, 91080, Note_on_c, 0, 69, 0
2, 91080, Note_on_c, 0, 70, 23
2, 91140, Note_on_c, 0, 70, 0
2, 91140, Note_on_c, 0, 69, 23
2, 91200, Note_on_c, 0, 69, 0
2, 91200, Note_on_c, 0, 68, 29
2, 91560, Note_on_c, 0, 68, 0
2, 91560, Note_on_c, 0, 69, 22
2, 91620, Note_on_c, 0, 69, 0
2, 91620, Note_on_c, 0, 70, 22
2, 91680, Note_on_c, 0, 70, 0
2, 91680, Note_on_c, 0, 69, 26
2, 91800, Note_on_c, 0, 69, 0
2, 91800, Note_on_c, 0, 65, 0
2, 92640, Note_on_c, 0, 72, 32
2, 93000, Note_on_c, 0, 72, 0
2, 93000, Note_on_c, 0, 73, 27
2, 93060, Note_on_c, 0, 73, 0
2, 93060, Note_on_c, 0, 72, 27
2, 93120, Note_on_c, 0, 72, 0
2, 93120, Note_on_c, 0, 71, 38
2, 93480, Note_on_c, 0, 71, 0
2, 93480, Note_on_c, 0, 72, 27
2, 93540, Note_on_c, 0, 72, 0
2, 93540, Note_on_c, 0, 73, 27
2, 93600, Note_on_c, 0, 73, 0
2, 93600, Note_on_c, 0, 72, 32
2, 93720, Note_on_c, 0, 72, 0
2, 94080, Note_on_c, 0, 71, 50
2, 94440, Note_on_c, 0, 71, 0
2, 94440, Note_on_c, 0, 72, 46
2, 94500, Note_on_c, 0, 72, 0
2, 94500, Note_on_c, 0, 73, 46
2, 94560, Note_on_c, 0, 73, 0
2, 94560, Note_on_c, 0, 72, 68
2, 94920, Note_on_c, 0, 72, 0
2, 94920, Note_on_c, 0, 70, 56
2, 94980, Note_on_c, 0, 70, 0
2, 94980, Note_on_c, 0, 68, 57
2, 95040, Note_on_c, 0, 68, 0
2, 95040, Note_on_c, 0, 67, 73
2, 95400, Note_on_c, 0, 67, 0
2, 95400, Note_on_c, 0, 68, 60
2, 95460, Note_on_c, 0, 68, 0
2, 95460, Note_on_c, 0, 70, 60
2, 95520, Note_on_c, 0, 70, 0
2, 95520, Note_on_c, 0, 68, 70
2, 95880, Note_on_c, 0, 68, 0
2, 95880, Note_on_c, 0, 67, 66
2, 95940, Note_on_c, 0, 67, 0
2, 95940, Note_on_c, 0, 65, 58
2, 96000, Note_on_c, 0, 65, 0
2, 96000, Note_on_c, 0, 60, 50
2, 96960, Note_on_c, 0, 60, 0
2, 96960, Note_on_c, 0, 72, 58
2, 97320, Note_on_c, 0, 72, 0
2, 97320, Note_on_c, 0, 74, 53
2, 97380, Note_on_c, 0, 74, 0
2, 97380, Note_on_c, 0, 76, 53
2, 97440, Note_on_c, 0, 76, 0
2, 97440, Note_on_c, 0, 77, 63
2, 97800, Note_on_c, 0, 77, 0
2, 97800, Note_on_c, 0, 79, 58
2, 97860, Note_on_c, 0, 79, 0
2, 97860, Note_on_c, 0, 81, 64
2, 97920, Note_on_c, 0, 81, 0
2, 97920, Note_on_c, 0, 73, 76
2, 97920, Note_on_c, 0, 70, 76
2, 97920, Note_on_c, 0, 82, 76
2, 98880, Note_on_c, 0, 82, 0
2, 98880, Note_on_c, 0, 70, 0
2, 98880, Note_on_c, 0, 73, 0
2, 98880, Note_on_c, 0, 82, 37
2, 98880, Note_on_c, 0, 73, 32
2, 98930, Note_on_c, 0, 82, 0
2, 98930, Note_on_c, 0, 84, 32
2, 98980, Note_on_c, 0, 84, 0
2, 98980, Note_on_c, 0, 82, 36
2, 99030, Note_on_c, 0, 82, 0
2, 99030, Note_on_c, 0, 84, 32
2, 99080, Note_on_c, 0, 84, 0
2, 99080, Note_on_c, 0, 82, 36
2, 99120, Note_on_c, 0, 82, 0
2, 99120, Note_on_c, 0, 84, 32
2, 99160, Note_on_c, 0, 84, 0
2, 99160, Note_on_c, 0, 82, 36
2, 99200, Note_on_c, 0, 82, 0
2, 99200, Note_on_c, 0, 84, 32
2, 99240, Note_on_c, 0, 84, 0
2, 99240, Note_on_c, 0, 81, 36
2, 99300, Note_on_c, 0, 81, 0
2, 99300, Note_on_c, 0, 82, 32
2, 99360, Note_on_c, 0, 82, 0
2, 99360, Note_on_c, 0, 88, 45
2, 99600, Note_on_c, 0, 88, 0
2, 99600, Note_on_c, 0, 82, 40
2, 99720, Note_on_c, 0, 82, 0
2, 99840, Note_on_c, 0, 73, 0
2, 99840, Note_on_c, 0, 81, 37
2, 99840, Note_on_c, 0, 72, 37
2, 99890, Note_on_c, 0, 81, 0
2, 99890, Note_on_c, 0, 82, 32
2, 99940, Note_on_c, 0, 82, 0
2, 99940, Note_on_c, 0, 81, 36
2, 99990, Note_on_c, 0, 81, 0
2, 99990, Note_on_c, 0, 82, 32
2, 100040, Note_on_c, 0, 82, 0
2, 100040, Note_on_c, 0, 81, 36
2, 100080, Note_on_c, 0, 81, 0
2, 100080, Note_on_c, 0, 82, 32
2, 100120, Note_on_c, 0, 82, 0
2, 100120, Note_on_c, 0, 81, 36
2, 100160, Note_on_c, 0, 81, 0
2, 100160, Note_on_c, 0, 82, 32
2, 100200, Note_on_c, 0, 82, 0
2, 100200, Note_on_c, 0, 80, 36
2, 100260, Note_on_c, 0, 80, 0
2, 100260, Note_on_c, 0, 81, 32
2, 100320, Note_on_c, 0, 81, 0
2, 100320, Note_on_c, 0, 84, 45
2, 100560, Note_on_c, 0, 84, 0
2, 100560, Note_on_c, 0, 81, 40
2, 100680, Note_on_c, 0, 81, 0
2, 100800, Note_on_c, 0, 72, 0
2, 100800, Note_on_c, 0, 72, 37
2, 100800, Note_on_c, 0, 79, 37
2, 100850, Note_on_c, 0, 79, 0
2, 100850, Note_on_c, 0, 81, 32
2, 100900, Note_on_c, 0, 81, 0
2, 100900, Note_on_c, 0, 79, 36
2, 100950, Note_on_c, 0, 79, 0
2, 100950, Note_on_c, 0, 81, 32
2, 101000, Note_on_c, 0, 81, 0
2, 101000, Note_on_c, 0, 79, 36
2, 101040, Note_on_c, 0, 79, 0
2, 101040, Note_on_c, 0, 81, 32
2, 101080, Note_on_c, 0, 81, 0
2, 101080, Note_on_c, 0, 79, 36
2, 101120, Note_on_c, 0, 79, 0
2, 101120, Note_on_c, 0, 81, 32
2, 101160, Note_on_c, 0, 81, 0
2, 101160, Note_on_c, 0, 78, 36
2, 101220, Note_on_c, 0, 78, 0
2, 101220, Note_on_c, 0, 79, 32
2, 101280, Note_on_c, 0, 79, 0
2, 101280, Note_on_c, 0, 82, 45
2, 101520, Note_on_c, 0, 82, 0
2, 101520, Note_on_c, 0, 79, 40
2, 101640, Note_on_c, 0, 79, 0
2, 101760, Note_on_c, 0, 72, 0
2, 102240, Note_on_c, 0, 72, 32
2, 102600, Note_on_c, 0, 72, 0
2, 102600, Note_on_c, 0, 73, 27
2, 102660, Note_on_c, 0, 73, 0
2, 102660, Note_on_c, 0, 72, 27
2, 102720, Note_on_c, 0, 72, 0
2, 102720, Note_on_c, 0, 71, 38
2, 103080, Note_on_c, 0, 71, 0
2, 103080, Note_on_c, 0, 72, 27
2, 103140, Note_on_c, 0, 72, 0
2, 103140, Note_on_c, 0, 73, 27
2, 103200, Note_on_c, 0, 73, 0
2, 103200, Note_on_c, 0, 72, 32
2, 103320, Note_on_c, 0, 72, 0
2, 103680, Note_on_c, 0, 71, 50
2, 104040, Note_on_c, 0, 71, 0
2, 104040, Note_on_c, 0, 72, 46
2, 104100, Note_on_c, 0, 72, 0
2, 104100, Note_on_c, 0, 73, 46
2, 104160, Note_on_c, 0, 73, 0
2, 104160, Note_on_c, 0, 72, 68
2, 104520, Note_on_c, 0, 72, 0
2, 104520, Note_on_c, 0, 70, 56
2, 104580, Note_on_c, 0, 70, 0
2, 104580, Note_on_c, 0, 68, 57
2, 104640, Note_on_c, 0, 68, 0
2, 104640, Note_on_c, 0, 67, 73
2, 105000, Note_on_c, 0, 67, 0
2, 105000, Note_on_c, 0, 68, 60
2, 105060, Note_on_c, 0, 68, 0
2, 105060, Note_on_c, 0, 70, 60
2, 105120, Note_on_c, 0, 70, 0
2, 105120, Note_on_c, 0, 68, 70
2, 105480, Note_on_c, 0, 68, 0
2, 105480, Note_on_c, 0, 67, 66
2, 105540, Note_on_c, 0, 67, 0
2, 105540, Note_on_c, 0, 65, 58
2, 105600, Note_on_c, 0, 65, 0
2, 105600, Note_on_c, 0, 63, 77
2, 106560, Note_on_c, 0, 63, 0
2, 106560, Note_on_c, 0, 75, 67
2, 106920, Note_on_c, 0, 75, 0
2, 106920, Note_on_c, 0, 77, 59
2, 106980, Note_on_c, 0, 77, 0
2, 106980, Note_on_c, 0, 79, 59
2, 107040, Note_on_c, 0, 79, 0
2, 107040, Note_on_c, 0, 80, 69
2, 107400, Note_on_c, 0, 80, 0
2, 107400, Note_on_c, 0, 82, 70
2, 107460, Note_on_c, 0, 82, 0
2, 107460, Note_on_c, 0, 84, 76
2, 107520, Note_on_c, 0, 84, 0
2, 107520, Note_on_c, 0, 85, 83
2, 107520, Note_on_c, 0, 76, 83
2, 107520, Note_on_c, 0, 73, 83
2, 108480, Note_on_c, 0, 73, 0
2, 108480, Note_on_c, 0, 76, 0
2, 108480, Note_on_c, 0, 85, 0
2, 108480, Note_on_c, 0, 76, 40
2, 108480, Note_on_c, 0, 85, 47
2, 108530, Note_on_c, 0, 85, 0
2, 108530, Note_on_c, 0, 87, 40
2, 108580, Note_on_c, 0, 87, 0
2, 108580, Note_on_c, 0, 85, 46
2, 108630, Note_on_c, 0, 85, 0
2, 108630, Note_on_c, 0, 87, 40
2, 108680, Note_on_c, 0, 87, 0
2, 108680, Note_on_c, 0, 85, 45
2, 108720, Note_on_c, 0, 85, 0
2, 108720, Note_on_c, 0, 87, 40
2, 108760, Note_on_c, 0, 87, 0
2, 108760, Note_on_c, 0, 85, 45
2, 108800, Note_on_c, 0, 85, 0
2, 108800, Note_on_c, 0, 87, 40
2, 108840, Note_on_c, 0, 87, 0
2, 108840, Note_on_c, 0, 84, 45
2, 108900, Note_on_c, 0, 84, 0
2, 108900, Note_on_c, 0, 85, 40
2, 108960, Note_on_c, 0, 85, 0
2, 108960, Note_on_c, 0, 91, 53
2, 109200, Note_on_c, 0, 91, 0
2, 109200, Note_on_c, 0, 85, 50
2, 109320, Note_on_c, 0, 85, 0
2, 109440, Note_on_c, 0, 76, 0
2, 109440, Note_on_c, 0, 84, 47
2, 109440, Note_on_c, 0, 75, 40
2, 109490, Note_on_c, 0, 84, 0
2, 109490, Note_on_c, 0, 85, 40
2, 109540, Note_on_c, 0, 85, 0
2, 109540, Note_on_c, 0, 84, 46
2, 109590, Note_on_c, 0, 84, 0
2, 109590, Note_on_c, 0, 85, 40
2, 109640, Note_on_c, 0, 85, 0
2, 109640, Note_on_c, 0, 84, 45
2, 109680, Note_on_c, 0, 84, 0
2, 109680, Note_on_c, 0, 85, 40
2, 109720, Note_on_c, 0, 85, 0
2, 109720, Note_on_c, 0, 84, 45
2, 109760, Note_on_c, 0, 84, 0
2, 109760, Note_on_c, 0, 85, 40
2, 109800, Note_on_c, 0, 85, 0
2, 109800, Note_on_c, 0, 83, 45
2, 109860, Note_on_c, 0, 83, 0
2, 109860, Note_on_c, 0, 84, 40
2, 109920, Note_on_c, 0, 84, 0
2, 109920, Note_on_c, 0, 87, 53
2, 110160, Note_on_c, 0, 87, 0
2, 110160, Note_on_c, 0, 84, 50
2, 110280, Note_on_c, 0, 84, 0
2, 110400, Note_on_c, 0, 75, 0
2, 110400, Note_on_c, 0, 75, 40
2, 110400, Note_on_c, 0, 82, 47
2, 110450, Note_on_c, 0, 82, 0
2, 110450, Note_on_c, 0, 84, 40
2, 110500, Note_on_c, 0, 84, 0
2, 110500, Note_on_c, 0, 82, 46
2, 110550, Note_on_c, 0, 82, 0
2, 110550, Note_on_c, 0, 84, 40
2, 110600, Note_on_c, 0, 84, 0
2, 110600, Note_on_c, 0, 82, 45
2, 110640, Note_on_c, 0, 82, 0
2, 110640, Note_on_c, 0, 84, 40
2, 110680, Note_on_c, 0, 84, 0
2, 110680, Note_on_c, 0, 82, 45
2, 110720, Note_on_c, 0, 82, 0
2, 110720, Note_on_c, 0, 84, 40
2, 110760, Note_on_c, 0, 84, 0
2, 110760, Note_on_c, 0, 81, 45
2, 110820, Note_on_c, 0, 81, 0
2, 110820, Note_on_c, 0, 82, 40
2, 110880, Note_on_c, 0, 82, 0
2, 110880, Note_on_c, 0, 85, 53
2, 111120, Note_on_c, 0, 85, 0
2, 111120, Note_on_c, 0, 82, 50
2, 111240, Note_on_c, 0, 82, 0
2, 111360, Note_on_c, 0, 75, 0
2, 111840, Note_on_c, 0, 70, 26
2, 111840, Note_on_c, 0, 67, 21
2, 112200, Note_on_c, 0, 70, 0
2, 112200, Note_on_c, 0, 72, 23
2, 112260, Note_on_c, 0, 72, 0
2, 112260, Note_on_c, 0, 70, 23
2, 112320, Note_on_c, 0, 70, 0
2, 112320, Note_on_c, 0, 69, 29
2, 112680, Note_on_c, 0, 69, 0
2, 112680, Note_on_c, 0, 70, 22
2, 112740, Note_on_c, 0, 70, 0
2, 112740, Note_on_c, 0, 72, 22
2, 112800, Note_on_c, 0, 72, 0
2, 112800, Note_on_c, 0, 70, 26
2, 112920, Note_on_c, 0, 70, 0
2, 112920, Note_on_c, 0, 67, 0
2, 113280, Note_on_c, 0, 58, 71
2, 113280, Note_on_c, 0, 61, 71
2, 113280, Note_on_c, 0, 70, 84
2, 114240, Note_on_c, 0, 70, 0
2, 114240, Note_on_c, 0, 61, 0
2, 114240, Note_on_c, 0, 58, 0
2, 114240, Note_on_c, 0, 61, 38
2, 114240, Note_on_c, 0, 70, 44
2, 114290, Note_on_c, 0, 70, 0
2, 114290, Note_on_c, 0, 72, 38
2, 114340, Note_on_c, 0, 72, 0
2, 114340, Note_on_c, 0, 70, 43
2, 114390, Note_on_c, 0, 70, 0
2, 114390, Note_on_c, 0, 72, 38
2, 114440, Note_on_c, 0, 72, 0
2, 114440, Note_on_c, 0, 70, 43
2, 114480, Note_on_c, 0, 70, 0
2, 114480, Note_on_c, 0, 72, 38
2, 114520, Note_on_c, 0, 72, 0
2, 114520, Note_on_c, 0, 70, 43
2, 114560, Note_on_c, 0, 70, 0
2, 114560, Note_on_c, 0, 72, 38
2, 114600, Note_on_c, 0, 72, 0
2, 114600, Note_on_c, 0, 69, 43
2, 114660, Note_on_c, 0, 69, 0
2, 114660, Note_on_c, 0, 70, 38
2, 114720, Note_on_c, 0, 70, 0
2, 114720, Note_on_c, 0, 76, 54
2, 114960, Note_on_c, 0, 76, 0
2, 114960, Note_on_c, 0, 70, 48
2, 115080, Note_on_c, 0, 70, 0
2, 115200, Note_on_c, 0, 61, 0
2, 115200, Note_on_c, 0, 60, 44
2, 115200, Note_on_c, 0, 69, 44
2, 115250, Note_on_c, 0, 69, 0
2, 115250, Note_on_c, 0, 70, 38
2, 115300, Note_on_c, 0, 70, 0
2, 115300, Note_on_c, 0, 69, 43
2, 115350, Note_on_c, 0, 69, 0
2, 115350, Note_on_c, 0, 70, 38
2, 115400, Note_on_c, 0, 70, 0
2, 115400, Note_on_c, 0, 69, 43
2, 115440, Note_on_c, 0, 69, 0
2, 115440, Note_on_c, 0, 70, 38
2, 115480, Note_on_c, 0, 70, 0
2, 115480, Note_on_c, 0, 69, 43
2, 115520, Note_on_c, 0, 69, 0
2, 115520, Note_on_c, 0, 70, 38
2, 115560, Note_on_c, 0, 70, 0
2, 115560, Note_on_c, 0, 68, 43
2, 115620, Note_on_c, 0, 68, 0
2, 115620, Note_on_c, 0, 69, 38
2, 115680, Note_on_c, 0, 69, 0
2, 115680, Note_on_c, 0, 72, 54
2, 115920, Note_on_c, 0, 72, 0
2, 115920, Note_on_c, 0, 69, 48
2, 116040, Note_on_c, 0, 69, 0
2, 116160, Note_on_c, 0, 60, 0
2, 116160, Note_on_c, 0, 60, 44
2, 116160, Note_on_c, 0, 67, 44
2, 116210, Note_on_c, 0, 67, 0
2, 116210, Note_on_c, 0, 69, 38
2, 116260, Note_on_c, 0, 69, 0
2, 116260, Note_on_c, 0, 67, 43
2, 116310, Note_on_c, 0, 67, 0
2, 116310, Note_on_c, 0, 69, 38
2, 116360, Note_on_c, 0, 69, 0
2, 116360, Note_on_c, 0, 67, 43
2, 116400, Note_on_c, 0, 67, 0
2, 116400, Note_on_c, 0, 69, 38
2, 116440, Note_on_c, 0, 69, 0
2, 116440, Note_on_c, 0, 67, 43
2, 116480, Note_on_c, 0, 67, 0
2, 116480, Note_on_c, 0, 69, 38
2, 116520, Note_on_c, 0, 69, 0
2, 116520, Note_on_c, 0, 66, 43
2, 116580, Note_on_c, 0, 66, 0
2, 116580, Note_on_c, 0, 67, 38
2, 116640, Note_on_c, 0, 67, 0
2, 116640, Note_on_c, 0, 70, 54
2, 116880, Note_on_c, 0, 70, 0
2, 116880, Note_on_c, 0, 67, 48
2, 117000, Note_on_c, 0, 67, 0
2, 117000, Note_on_c, 0, 60, 0
2, 117120, Note_on_c, 0, 60, 40
2, 117120, Note_on_c, 0, 57, 40
2, 117840, Note_on_c, 0, 65, 33
2, 118070, Note_on_c, 0, 57, 0
2, 118080, Note_on_c, 0, 65, 0
2, 118080, Note_on_c, 0, 60, 0
2, 118080, Note_on_c, 0, 69, 40
2, 118560, Note_on_c, 0, 69, 0
2, 118560, Note_on_c, 0, 74, 43
2, 118560, Note_on_c, 0, 62, 43
2, 119040, Note_on_c, 0, 62, 0
2, 119040, Note_on_c, 0, 74, 0
2, 119040, Note_on_c, 0, 72, 40
2, 119040, Note_on_c, 0, 64, 40
2, 119040, Note_on_c, 0, 60, 40
2, 119760, Note_on_c, 0, 60, 0
2, 119760, Note_on_c, 0, 72, 0
2, 119760, Note_on_c, 0, 58, 36
2, 119760, Note_on_c, 0, 70, 36
2, 120000, Note_on_c, 0, 70, 0
2, 120000, Note_on_c, 0, 58, 0
2, 120000, Note_on_c, 0, 64, 0
2, 120000, Note_on_c, 0, 55, 40
2, 120000, Note_on_c, 0, 67, 40
2, 120480, Note_on_c, 0, 67, 0
2, 120480, Note_on_c, 0, 55, 0
2, 120480, Note_on_c, 0, 69, 36
2, 120480, Note_on_c, 0, 57, 36
2, 120960, Note_on_c, 0, 57, 0
2, 120960, Note_on_c, 0, 69, 0
2, 120960, Note_on_c, 0, 65, 36
2, 120960, Note_on_c, 0, 53, 36
2, 120960, Note_on_c, 0, 57, 36
2, 121920, Note_on_c, 0, 57, 0
2, 121920, Note_on_c, 0, 53, 0
2, 121920, Note_on_c, 0, 65, 0
2, 121920, Note_on_c, 0, 67, 29
2, 121920, Note_on_c, 0, 58, 29
2, 121920, Note_on_c, 0, 64, 29
2, 122880, Note_on_c, 0, 64, 0
2, 122880, Note_on_c, 0, 58, 0
2, 122880, Note_on_c, 0, 67, 0
2, 122880, Note_on_c, 0, 57, 22
2, 122880, Note_on_c, 0, 65, 22
2, 123120, Note_on_c, 0, 65, 0
2, 123120, Note_on_c, 0, 57, 0
2, 123840, Note_on_c, 0, 57, 22
2, 123840, Note_on_c, 0, 65, 22
2, 124080, Note_on_c, 0, 65, 0
2, 124080, Note_on_c, 0, 57, 0
2, 124800, Note_on_c, 0, 65, 20
2, 124800, Note_on_c, 0, 57, 20
2, 126720, Note_on_c, 0, 57, 0
2, 126720, Note_on_c, 0, 65, 0
2, 126720, End_track
3, 0, Start_track
3, 0, Title_t, "Piano left"
3, 0, Program_c, 0, 0
3, 0, Control_c, 0, 7, 100
3, 0, Control_c, 0, 10, 64
3, 0, Control_c, 0, 91, 127
3, 0, Control_c, 0, 64, 0
3, 1, Note_on_c, 0, 41, 41
3, 1, Note_on_c, 0, 48, 41
3, 85, Control_c, 0, 64, 127
3, 720, Note_on_c, 0, 53, 35
3, 960, Note_on_c, 0, 53, 0
3, 960, Note_on_c, 0, 48, 0
3, 960, Note_on_c, 0, 41, 0
3, 960, Note_on_c, 0, 57, 41
3, 979, Control_c, 0, 64, 0
3, 1140, Control_c, 0, 64, 127
3, 1440, Note_on_c, 0, 57, 0
3, 1451, Control_c, 0, 64, 0
3, 1560, Control_c, 0, 64, 127
3, 1920, Control_c, 0, 64, 0
3, 1920, Note_on_c, 0, 40, 38
3, 1920, Note_on_c, 0, 48, 38
3, 1920, Note_on_c, 0, 55, 38
3, 2075, Control_c, 0, 64, 127
3, 2850, Note_on_c, 0, 55, 0
3, 2880, Note_on_c, 0, 48, 0
3, 2880, Note_on_c, 0, 40, 0
3, 2900, Control_c, 0, 64, 0
3, 3060, Control_c, 0, 64, 127
3, 3380, Control_c, 0, 64, 0
3, 3660, Control_c, 0, 64, 127
3, 3840, Note_on_c, 0, 45, 35
3, 3840, Note_on_c, 0, 50, 35
3, 3840, Note_on_c, 0, 38, 35
3, 3847, Control_c, 0, 64, 0
3, 4140, Control_c, 0, 64, 127
3, 4800, Note_on_c, 0, 38, 0
3, 4800, Note_on_c, 0, 50, 0
3, 4800, Note_on_c, 0, 45, 0
3, 4800, Note_on_c, 0, 40, 31
3, 4800, Note_on_c, 0, 52, 31
3, 4800, Note_on_c, 0, 48, 31
3, 4811, Control_c, 0, 64, 0
3, 5100, Control_c, 0, 64, 127
3, 5760, Note_on_c, 0, 48, 0
3, 5760, Note_on_c, 0, 52, 0
3, 5760, Note_on_c, 0, 40, 0
3, 5760, Control_c, 0, 64, 0
3, 5760, Note_on_c, 0, 48, 25
3, 5760, Note_on_c, 0, 53, 25
3, 5760, Note_on_c, 0, 41, 25
3, 5814, Control_c, 0, 64, 127
3, 5949, Control_c, 0, 64, 0
3, 6000, Note_on_c, 0, 41, 0
3, 6000, Note_on_c, 0, 53, 0
3, 6000, Note_on_c, 0, 48, 0
3, 6240, Note_on_c, 0, 48, 17
3, 6263, Control_c, 0, 64, 127
3, 6600, Note_on_c, 0, 48, 0
3, 6600, Note_on_c, 0, 49, 15
3, 6660, Note_on_c, 0, 49, 0
3, 6660, Note_on_c, 0, 48, 16
3, 6720, Note_on_c, 0, 48, 0
3, 6720, Note_on_c, 0, 47, 20
3, 6726, Control_c, 0, 64, 0
3, 6783, Control_c, 0, 64, 127
3, 7080, Note_on_c, 0, 47, 0
3, 7080, Note_on_c, 0, 48, 16
3, 7140, Note_on_c, 0, 48, 0
3, 7140, Note_on_c, 0, 49, 16
3, 7200, Note_on_c, 0, 49, 0
3, 7200, Control_c, 0, 64, 0
3, 7200, Note_on_c, 0, 48, 18
3, 7320, Note_on_c, 0, 48, 0
3, 7680, Note_on_c, 0, 41, 38
3, 7680, Note_on_c, 0, 48, 38
3, 7765, Control_c, 0, 64, 127
3, 8400, Note_on_c, 0, 53, 38
3, 8640, Note_on_c, 0, 53, 0
3, 8640, Note_on_c, 0, 48, 0
3, 8640, Note_on_c, 0, 41, 0
3, 8640, Note_on_c, 0, 57, 41
3, 8660, Control_c, 0, 64, 0
3, 8824, Control_c, 0, 64, 127
3, 9120, Note_on_c, 0, 57, 0
3, 9120, Note_on_c, 0, 41, 40
3, 9120, Note_on_c, 0, 50, 40
3, 9120, Note_on_c, 0, 57, 40
3, 9135, Control_c, 0, 64, 0
3, 9289, Control_c, 0, 64, 127
3, 9600, Note_on_c, 0, 57, 0
3, 9600, Note_on_c, 0, 50, 0
3, 9600, Note_on_c, 0, 41, 0
3, 9600, Control_c, 0, 64, 0
3, 9600, Note_on_c, 0, 41, 42
3, 9600, Note_on_c, 0, 50, 42
3, 9600, Note_on_c, 0, 57, 42
3, 9826, Control_c, 0, 64, 127
3, 10560, Note_on_c, 0, 57, 0
3, 10560, Note_on_c, 0, 50, 0
3, 10560, Note_on_c, 0, 41, 0
3, 10576, Control_c, 0, 64, 0
3, 10786, Control_c, 0, 64, 127
3, 11040, Note_on_c, 0, 67, 58
3, 11040, Note_on_c, 0, 57, 58
3, 11040, Note_on_c, 0, 64, 58
3, 11052, Control_c, 0, 64, 0
3, 11209, Control_c, 0, 64, 127
3, 11520, Note_on_c, 0, 64, 0
3, 11520, Note_on_c, 0, 57, 0
3, 11520, Note_on_c, 0, 67, 0
3, 11520, Note_on_c, 0, 64, 53
3, 11520, Note_on_c, 0, 57, 53
3, 11520, Note_on_c, 0, 67, 53
3, 12480, Note_on_c, 0, 67, 0
3, 12480, Note_on_c, 0, 57, 0
3, 12480, Note_on_c, 0, 64, 0
3, 12480, Note_on_c, 0, 57, 41
3, 12480, Note_on_c, 0, 65, 41
3, 12487, Control_c, 0, 64, 0
3, 12709, Control_c, 0, 64, 127
3, 12890, Control_c, 0, 64, 0
3, 12960, Note_on_c, 0, 65, 0
3, 12960, Note_on_c, 0, 57, 0
3, 12960, Note_on_c, 0, 64, 35
3, 12960, Note_on_c, 0, 60, 35
3, 13097, Control_c, 0, 64, 127
3, 13440, Note_on_c, 0, 64, 0
3, 13440, Note_on_c, 0, 65, 31
3, 13440, Note_on_c, 0, 53, 31
3, 13454, Control_c, 0, 64, 0
3, 13496, Control_c, 0, 64, 127
3, 13666, Control_c, 0, 64, 0
3, 13680, Note_on_c, 0, 53, 0
3, 13680, Note_on_c, 0, 65, 0
3, 13680, Note_on_c, 0, 60, 0
3, 13920, Note_on_c, 0, 48, 17
3, 13943, Control_c, 0, 64, 127
3, 14280, Note_on_c, 0, 48, 0
3, 14280, Note_on_c, 0, 49, 15
3, 14340, Note_on_c, 0, 49, 0
3, 14340, Note_on_c, 0, 48, 16
3, 14400, Note_on_c, 0, 48, 0
3, 14400, Note_on_c, 0, 47, 20
3, 14402, Control_c, 0, 64, 0
3, 14463, Control_c, 0, 64, 127
3, 14760, Note_on_c, 0, 47, 0
3, 14760, Note_on_c, 0, 48, 16
3, 14820, Note_on_c, 0, 48, 0
3, 14820, Note_on_c, 0, 49, 16
3, 14880, Note_on_c, 0, 49, 0
3, 14880, Note_on_c, 0, 48, 18
3, 14886, Control_c, 0, 64, 0
3, 15000, Note_on_c, 0, 48, 0
3, 15360, Note_on_c, 0, 48, 38
3, 15360, Note_on_c, 0, 40, 38
3, 15445, Control_c, 0, 64, 127
3, 16080, Note_on_c, 0, 52, 38
3, 16320, Note_on_c, 0, 52, 0
3, 16320, Note_on_c, 0, 40, 0
3, 16320, Note_on_c, 0, 48, 0
3, 16320, Note_on_c, 0, 55, 41
3, 16337, Control_c, 0, 64, 0
3, 16447, Control_c, 0, 64, 127
3, 16800, Note_on_c, 0, 55, 0
3, 16800, Note_on_c, 0, 40, 44
3, 16800, Note_on_c, 0, 49, 44
3, 16800, Note_on_c, 0, 55, 44
3, 16813, Control_c, 0, 64, 0
3, 16941, Control_c, 0, 64, 127
3, 17280, Note_on_c, 0, 55, 0
3, 17280, Note_on_c, 0, 49, 0
3, 17280, Note_on_c, 0, 40, 0
3, 17280, Note_on_c, 0, 41, 42
3, 17280, Note_on_c, 0, 50, 42
3, 17286, Control_c, 0, 64, 0
3, 17492, Control_c, 0, 64, 127
3, 18000, Note_on_c, 0, 50, 0
3, 18000, Note_on_c, 0, 53, 44
3, 18240, Note_on_c, 0, 53, 0
3, 18240, Note_on_c, 0, 41, 0
3, 18240, Control_c, 0, 64, 0
3, 18240, Note_on_c, 0, 58, 51
3, 18244, Control_c, 0, 64, 0
3, 18381, Control_c, 0, 64, 127
3, 18720, Note_on_c, 0, 58, 0
3, 18720, Note_on_c, 0, 50, 58
3, 18720, Note_on_c, 0, 58, 58
3, 18734, Control_c, 0, 64, 0
3, 18889, Control_c, 0, 64, 127
3, 19200, Note_on_c, 0, 58, 0
3, 19200, Note_on_c, 0, 50, 0
3, 19200, Note_on_c, 0, 50, 62
3, 19200, Note_on_c, 0, 60, 62
3, 19200, Note_on_c, 0, 57, 62
3, 19209, Control_c, 0, 64, 0
3, 19429, Control_c, 0, 64, 127
3, 20160, Note_on_c, 0, 57, 0
3, 20160, Note_on_c, 0, 60, 0
3, 20160, Note_on_c, 0, 58, 55
3, 20169, Control_c, 0, 64, 0
3, 20320, Control_c, 0, 64, 127
3, 20640, Note_on_c, 0, 58, 0
3, 20640, Note_on_c, 0, 50, 0
3, 20640, Note_on_c, 0, 45, 54
3, 20640, Note_on_c, 0, 57, 54
3, 20652, Control_c, 0, 64, 0
3, 20846, Control_c, 0, 64, 127
3, 21120, Note_on_c, 0, 57, 0
3, 21120, Note_on_c, 0, 45, 0
3, 21120, Note_on_c, 0, 55, 58
3, 21120, Note_on_c, 0, 58, 58
3, 21120, Note_on_c, 0, 45, 58
3, 21124, Control_c, 0, 64, 0
3, 21328, Control_c, 0, 64, 127
3, 22080, Note_on_c, 0, 58, 0
3, 22080, Note_on_c, 0, 55, 0
3, 22080, Note_on_c, 0, 57, 47
3, 22091, Control_c, 0, 64, 0
3, 22245, Control_c, 0, 64, 127
3, 22558, Note_on_c, 0, 57, 0
3, 22560, Note_on_c, 0, 45, 0
3, 22560, Note_on_c, 0, 53, 33
3, 22560, Note_on_c, 0, 48, 33
3, 22560, Note_on_c, 0, 41, 33
3, 22570, Control_c, 0, 64, 0
3, 22697, Control_c, 0, 64, 127
3, 23040, Note_on_c, 0, 41, 0
3, 23040, Note_on_c, 0, 48, 0
3, 23040, Note_on_c, 0, 53, 0
3, 23040, Note_on_c, 0, 40, 38
3, 23040, Note_on_c, 0, 48, 38
3, 23040, Note_on_c, 0, 55, 38
3, 23051, Control_c, 0, 64, 0
3, 23435, Control_c, 0, 64, 127
3, 23970, Note_on_c, 0, 55, 0
3, 24000, Note_on_c, 0, 48, 0
3, 24000, Note_on_c, 0, 40, 0
3, 24015, Control_c, 0, 64, 0
3, 24311, Control_c, 0, 64, 127
3, 24490, Control_c, 0, 64, 0
3, 24692, Control_c, 0, 64, 127
3, 24960, Note_on_c, 0, 45, 35
3, 24960, Note_on_c, 0, 50, 35
3, 24960, Note_on_c, 0, 38, 35
3, 24975, Control_c, 0, 64, 0
3, 25280, Control_c, 0, 64, 127
3, 25920, Note_on_c, 0, 38, 0
3, 25920, Note_on_c, 0, 50, 0
3, 25920, Note_on_c, 0, 45, 0
3, 25920, Note_on_c, 0, 36, 33
3, 25920, Note_on_c, 0, 48, 33
3, 25930, Control_c, 0, 64, 0
3, 26320, Control_c, 0, 64, 127
3, 26880, Note_on_c, 0, 36, 0
3, 26880, Control_c, 0, 64, 0
3, 26880, Note_on_c, 0, 41, 26
3, 26934, Control_c, 0, 64, 127
3, 27069, Control_c, 0, 64, 0
3, 27120, Note_on_c, 0, 41, 0
3, 27120, Note_on_c, 0, 48, 0
3, 27360, Note_on_c, 0, 48, 17
3, 27383, Control_c, 0, 64, 127
3, 27720, Note_on_c, 0, 48, 0
3, 27720, Note_on_c, 0, 49, 15
3, 27780, Note_on_c, 0, 49, 0
3, 27780, Note_on_c, 0, 48, 16
3, 27840, Note_on_c, 0, 48, 0
3, 27840, Note_on_c, 0, 47, 20
3, 27843, Control_c, 0, 64, 0
3, 27903, Control_c, 0, 64, 127
3, 28200, Note_on_c, 0, 47, 0
3, 28200, Note_on_c, 0, 48, 16
3, 28260, Note_on_c, 0, 48, 0
3, 28260, Note_on_c, 0, 49, 16
3, 28320, Note_on_c, 0, 49, 0
3, 28320, Note_on_c, 0, 48, 18
3, 28337, Control_c, 0, 64, 0
3, 28440, Note_on_c, 0, 48, 0
3, 28800, Note_on_c, 0, 60, 38
3, 28800, Note_on_c, 0, 67, 38
3, 28800, Note_on_c, 0, 52, 38
3, 28955, Control_c, 0, 64, 127
3, 29730, Note_on_c, 0, 67, 0
3, 29760, Note_on_c, 0, 52, 0
3, 29760, Note_on_c, 0, 60, 0
3, 29770, Control_c, 0, 64, 0
3, 29986, Control_c, 0, 64, 127
3, 30250, Control_c, 0, 64, 0
3, 30494, Control_c, 0, 64, 127
3, 30720, Note_on_c, 0, 57, 35
3, 30720, Note_on_c, 0, 62, 35
3, 30720, Note_on_c, 0, 50, 35
3, 30732, Control_c, 0, 64, 0
3, 30907, Control_c, 0, 64, 127
3, 31680, Note_on_c, 0, 50, 0
3, 31680, Note_on_c, 0, 62, 0
3, 31680, Note_on_c, 0, 57, 0
3, 31680, Note_on_c, 0, 48, 33
3, 31680, Note_on_c, 0, 60, 33
3, 31680, Note_on_c, 0, 58, 33
3, 31696, Control_c, 0, 64, 0
3, 32000, Control_c, 0, 64, 127
3, 32640, Note_on_c, 0, 58, 0
3, 32640, Note_on_c, 0, 48, 0
3, 32640, Control_c, 0, 64, 0
3, 32640, Note_on_c, 0, 57, 26
3, 32640, Note_on_c, 0, 53, 26
3, 32694, Control_c, 0, 64, 127
3, 32829, Control_c, 0, 64, 0
3, 32880, Note_on_c, 0, 53, 0
3, 32880, Note_on_c, 0, 57, 0
3, 32880, Note_on_c, 0, 60, 0
3, 33120, Note_on_c, 0, 60, 17
3, 33143, Control_c, 0, 64, 127
3, 33480, Note_on_c, 0, 60, 0
3, 33480, Note_on_c, 0, 61, 15
3, 33540, Note_on_c, 0, 61, 0
3, 33540, Note_on_c, 0, 60, 16
3, 33600, Note_on_c, 0, 60, 0
3, 33600, Note_on_c, 0, 59, 20
3, 33607, Control_c, 0, 64, 0
3, 33740, Control_c, 0, 64, 127
3, 33960, Note_on_c, 0, 59, 0
3, 33960, Note_on_c, 0, 60, 16
3, 34020, Note_on_c, 0, 60, 0
3, 34020, Note_on_c, 0, 61, 16
3, 34080, Note_on_c, 0, 61, 0
3, 34080, Note_on_c, 0, 60, 18
3, 34086, Control_c, 0, 64, 0
3, 34200, Note_on_c, 0, 60, 0
3, 35040, Note_on_c, 0, 53, 33
3, 35063, Control_c, 0, 64, 127
3, 35400, Note_on_c, 0, 53, 0
3, 35400, Note_on_c, 0, 54, 28
3, 35460, Note_on_c, 0, 54, 0
3, 35460, Note_on_c, 0, 53, 30
3, 35520, Note_on_c, 0, 53, 0
3, 35520, Note_on_c, 0, 52, 39
3, 35531, Control_c, 0, 64, 0
3, 35631, Control_c, 0, 64, 127
3, 35880, Note_on_c, 0, 52, 0
3, 35880, Note_on_c, 0, 53, 35
3, 35940, Note_on_c, 0, 53, 0
3, 35940, Note_on_c, 0, 54, 38
3, 36000, Note_on_c, 0, 54, 0
3, 36000, Note_on_c, 0, 53, 43
3, 36009, Control_c, 0, 64, 0
3, 36120, Control_c, 0, 64, 127
3, 36360, Note_on_c, 0, 53, 0
3, 36360, Note_on_c, 0, 51, 41
3, 36420, Note_on_c, 0, 51, 0
3, 36420, Note_on_c, 0, 49, 46
3, 36480, Note_on_c, 0, 49, 0
3, 36480, Note_on_c, 0, 48, 55
3, 36485, Control_c, 0, 64, 0
3, 36586, Control_c, 0, 64, 127
3, 36840, Note_on_c, 0, 48, 0
3, 36840, Note_on_c, 0, 49, 40
3, 36900, Note_on_c, 0, 49, 0
3, 36900, Note_on_c, 0, 51, 41
3, 36960, Note_on_c, 0, 51, 0
3, 36960, Note_on_c, 0, 49, 58
3, 36963, Control_c, 0, 64, 0
3, 37046, Control_c, 0, 64, 127
3, 37320, Note_on_c, 0, 49, 0
3, 37320, Note_on_c, 0, 48, 58
3, 37380, Note_on_c, 0, 48, 0
3, 37380, Note_on_c, 0, 46, 58
3, 37440, Note_on_c, 0, 46, 0
3, 37440, Note_on_c, 0, 45, 68
3, 37443, Control_c, 0, 64, 0
3, 37523, Control_c, 0, 64, 127
3, 37800, Note_on_c, 0, 45, 0
3, 37800, Note_on_c, 0, 46, 63
3, 37860, Note_on_c, 0, 46, 0
3, 37860, Note_on_c, 0, 48, 63
3, 37920, Note_on_c, 0, 48, 0
3, 37920, Note_on_c, 0, 46, 76
3, 37929, Control_c, 0, 64, 0
3, 38023, Control_c, 0, 64, 127
3, 38280, Note_on_c, 0, 46, 0
3, 38280, Note_on_c, 0, 44, 66
3, 38340, Note_on_c, 0, 44, 0
3, 38340, Note_on_c, 0, 42, 73
3, 38400, Note_on_c, 0, 42, 0
3, 38400, Control_c, 0, 64, 0
3, 38400, Note_on_c, 0, 44, 63
3, 38400, Note_on_c, 0, 49, 63
3, 38400, Note_on_c, 0, 41, 53
3, 38594, Control_c, 0, 64, 127
3, 39360, Note_on_c, 0, 41, 0
3, 39360, Note_on_c, 0, 49, 0
3, 39360, Note_on_c, 0, 44, 0
3, 39360, Note_on_c, 0, 37, 63
3, 39362, Control_c, 0, 64, 0
3, 39469, Control_c, 0, 64, 127
3, 40320, Note_on_c, 0, 37, 0
3, 40320, Note_on_c, 0, 32, 63
3, 40327, Control_c, 0, 64, 0
3, 40377, Control_c, 0, 64, 127
3, 40480, Note_on_c, 0, 32, 0
3, 40480, Note_on_c, 0, 39, 55
3, 40640, Note_on_c, 0, 39, 0
3, 40640, Note_on_c, 0, 39, 55
3, 40760, Note_on_c, 0, 39, 0
3, 40800, Note_on_c, 0, 39, 61
3, 40960, Note_on_c, 0, 39, 0
3, 40960, Note_on_c, 0, 44, 55
3, 41120, Note_on_c, 0, 44, 0
3, 41120, Note_on_c, 0, 44, 55
3, 41240, Note_on_c, 0, 44, 0
3, 41280, Note_on_c, 0, 46, 60
3, 41289, Control_c, 0, 64, 0
3, 41349, Control_c, 0, 64, 127
3, 42240, Note_on_c, 0, 46, 0
3, 42240, Note_on_c, 0, 29, 59
3, 42248, Control_c, 0, 64, 0
3, 42349, Control_c, 0, 64, 127
3, 42400, Note_on_c, 0, 29, 0
3, 42400, Note_on_c, 0, 36, 54
3, 42560, Note_on_c, 0, 36, 0
3, 42560, Note_on_c, 0, 36, 54
3, 42680, Note_on_c, 0, 36, 0
3, 42720, Note_on_c, 0, 36, 58
3, 42880, Note_on_c, 0, 36, 0
3, 42880, Note_on_c, 0, 41, 53
3, 43040, Note_on_c, 0, 41, 0
3, 43040, Note_on_c, 0, 41, 53
3, 43160, Note_on_c, 0, 41, 0
3, 43200, Note_on_c, 0, 42, 59
3, 43211, Control_c, 0, 64, 0
3, 43313, Control_c, 0, 64, 127
3, 44160, Note_on_c, 0, 42, 0
3, 44160, Note_on_c, 0, 42, 35
3, 44173, Control_c, 0, 64, 0
3, 44200, Note_on_c, 0, 42, 0
3, 44200, Note_on_c, 0, 44, 45
3, 44203, Control_c, 0, 64, 127
3, 44240, Note_on_c, 0, 44, 0
3, 44240, Note_on_c, 0, 42, 38
3, 44280, Note_on_c, 0, 42, 0
3, 44280, Note_on_c, 0, 44, 45
3, 44320, Note_on_c, 0, 44, 0
3, 44320, Note_on_c, 0, 42, 38
3, 44360, Note_on_c, 0, 42, 0
3, 44360, Note_on_c, 0, 44, 46
3, 44400, Note_on_c, 0, 44, 0
3, 44400, Note_on_c, 0, 42, 37
3, 44440, Note_on_c, 0, 42, 0
3, 44440, Note_on_c, 0, 44, 47
3, 44480, Note_on_c, 0, 44, 0
3, 44480, Note_on_c, 0, 42, 40
3, 44520, Note_on_c, 0, 42, 0
3, 44520, Note_on_c, 0, 44, 48
3, 44560, Note_on_c, 0, 44, 0
3, 44560, Note_on_c, 0, 42, 40
3, 44600, Note_on_c, 0, 42, 0
3, 44600, Note_on_c, 0, 44, 49
3, 44640, Note_on_c, 0, 44, 0
3, 44640, Note_on_c, 0, 42, 40
3, 44680, Note_on_c, 0, 42, 0
3, 44680, Note_on_c, 0, 44, 50
3, 44720, Note_on_c, 0, 44, 0
3, 44720, Note_on_c, 0, 42, 43
3, 44760, Note_on_c, 0, 42, 0
3, 44760, Note_on_c, 0, 44, 52
3, 44800, Note_on_c, 0, 44, 0
3, 44800, Note_on_c, 0, 42, 43
3, 44840, Note_on_c, 0, 42, 0
3, 44840, Note_on_c, 0, 44, 53
3, 44880, Note_on_c, 0, 44, 0
3, 44880, Note_on_c, 0, 42, 43
3, 44920, Note_on_c, 0, 42, 0
3, 44920, Note_on_c, 0, 44, 54
3, 44960, Note_on_c, 0, 44, 0
3, 44960, Note_on_c, 0, 42, 46
3, 45000, Note_on_c, 0, 42, 0
3, 45000, Note_on_c, 0, 44, 54
3, 45040, Note_on_c, 0, 44, 0
3, 45040, Note_on_c, 0, 42, 47
3, 45080, Note_on_c, 0, 42, 0
3, 45080, Note_on_c, 0, 44, 55
3, 45120, Note_on_c, 0, 44, 0
3, 45120, Note_on_c, 0, 42, 46
3, 45160, Note_on_c, 0, 42, 0
3, 45160, Note_on_c, 0, 44, 57
3, 45200, Note_on_c, 0, 44, 0
3, 45200, Note_on_c, 0, 42, 48
3, 45240, Note_on_c, 0, 42, 0
3, 45240, Note_on_c, 0, 44, 58
3, 45280, Note_on_c, 0, 44, 0
3, 45280, Note_on_c, 0, 42, 49
3, 45320, Note_on_c, 0, 42, 0
3, 45320, Note_on_c, 0, 44, 59
3, 45360, Note_on_c, 0, 44, 0
3, 45360, Note_on_c, 0, 42, 49
3, 45400, Note_on_c, 0, 42, 0
3, 45400, Note_on_c, 0, 44, 61
3, 45440, Note_on_c, 0, 44, 0
3, 45440, Note_on_c, 0, 42, 51
3, 45480, Note_on_c, 0, 42, 0
3, 45480, Note_on_c, 0, 44, 61
3, 45520, Note_on_c, 0, 44, 0
3, 45520, Note_on_c, 0, 42, 52
3, 45560, Note_on_c, 0, 42, 0
3, 45560, Note_on_c, 0, 44, 63
3, 45600, Note_on_c, 0, 44, 0
3, 45600, Note_on_c, 0, 42, 51
3, 45640, Note_on_c, 0, 42, 0
3, 45640, Note_on_c, 0, 44, 64
3, 45680, Note_on_c, 0, 44, 0
3, 45680, Note_on_c, 0, 42, 54
3, 45720, Note_on_c, 0, 42, 0
3, 45720, Note_on_c, 0, 44, 64
3, 45760, Note_on_c, 0, 44, 0
3, 45760, Note_on_c, 0, 42, 54
3, 45800, Note_on_c, 0, 42, 0
3, 45800, Note_on_c, 0, 44, 66
3, 45840, Note_on_c, 0, 44, 0
3, 45840, Note_on_c, 0, 42, 54
3, 45880, Note_on_c, 0, 42, 0
3, 45880, Note_on_c, 0, 44, 67
3, 45920, Note_on_c, 0, 44, 0
3, 45920, Note_on_c, 0, 42, 58
3, 45960, Note_on_c, 0, 42, 0
3, 45960, Note_on_c, 0, 44, 69
3, 46000, Note_on_c, 0, 44, 0
3, 46000, Note_on_c, 0, 42, 58
3, 46040, Note_on_c, 0, 42, 0
3, 46040, Note_on_c, 0, 44, 44
3, 46080, Note_on_c, 0, 44, 0
3, 46080, Note_on_c, 0, 42, 82
3, 46080, Note_on_c, 0, 30, 69
3, 46093, Control_c, 0, 64, 0
3, 46147, Control_c, 0, 64, 127
3, 46240, Note_on_c, 0, 30, 0
3, 46240, Note_on_c, 0, 42, 0
3, 46240, Note_on_c, 0, 29, 62
3, 46240, Note_on_c, 0, 41, 73
3, 46400, Note_on_c, 0, 41, 0
3, 46400, Note_on_c, 0, 29, 0
3, 46400, Note_on_c, 0, 29, 62
3, 46400, Note_on_c, 0, 41, 74
3, 46520, Note_on_c, 0, 41, 0
3, 46520, Note_on_c, 0, 29, 0
3, 46560, Note_on_c, 0, 42, 82
3, 46560, Note_on_c, 0, 30, 69
3, 46572, Control_c, 0, 64, 0
3, 46648, Control_c, 0, 64, 127
3, 47040, Note_on_c, 0, 30, 0
3, 47040, Note_on_c, 0, 42, 0
3, 47040, Note_on_c, 0, 42, 82
3, 47040, Note_on_c, 0, 30, 69
3, 47047, Control_c, 0, 64, 0
3, 47125, Control_c, 0, 64, 127
3, 47200, Note_on_c, 0, 30, 0
3, 47200, Note_on_c, 0, 42, 0
3, 47200, Note_on_c, 0, 41, 73
3, 47200, Note_on_c, 0, 29, 62
3, 47360, Note_on_c, 0, 29, 0
3, 47360, Note_on_c, 0, 41, 0
3, 47360, Note_on_c, 0, 29, 62
3, 47360, Note_on_c, 0, 41, 74
3, 47480, Note_on_c, 0, 41, 0
3, 47480, Note_on_c, 0, 29, 0
3, 47520, Note_on_c, 0, 42, 82
3, 47520, Note_on_c, 0, 30, 69
3, 47531, Control_c, 0, 64, 0
3, 47591, Control_c, 0, 64, 127
3, 48000, Note_on_c, 0, 30, 0
3, 48000, Note_on_c, 0, 42, 0
3, 48000, Note_on_c, 0, 32, 69
3, 48000, Note_on_c, 0, 44, 82
3, 48007, Control_c, 0, 64, 0
3, 48064, Control_c, 0, 64, 127
3, 48160, Note_on_c, 0, 44, 0
3, 48160, Note_on_c, 0, 32, 0
3, 48160, Note_on_c, 0, 43, 73
3, 48160, Note_on_c, 0, 31, 62
3, 48320, Note_on_c, 0, 31, 0
3, 48320, Note_on_c, 0, 43, 0
3, 48320, Note_on_c, 0, 31, 62
3, 48320, Note_on_c, 0, 43, 74
3, 48440, Note_on_c, 0, 43, 0
3, 48440, Note_on_c, 0, 31, 0
3, 48480, Note_on_c, 0, 55, 82
3, 48480, Note_on_c, 0, 43, 69
3, 48487, Control_c, 0, 64, 0
3, 48569, Control_c, 0, 64, 127
3, 48960, Note_on_c, 0, 43, 0
3, 48960, Note_on_c, 0, 55, 0
3, 48960, Note_on_c, 0, 44, 82
3, 48960, Note_on_c, 0, 32, 69
3, 48971, Control_c, 0, 64, 0
3, 49024, Control_c, 0, 64, 127
3, 49120, Note_on_c, 0, 32, 0
3, 49120, Note_on_c, 0, 44, 0
3, 49120, Note_on_c, 0, 43, 73
3, 49120, Note_on_c, 0, 31, 62
3, 49280, Note_on_c, 0, 31, 0
3, 49280, Note_on_c, 0, 43, 0
3, 49280, Note_on_c, 0, 31, 62
3, 49280, Note_on_c, 0, 43, 74
3, 49400, Note_on_c, 0, 43, 0
3, 49400, Note_on_c, 0, 31, 0
3, 49440, Note_on_c, 0, 43, 69
3, 49440, Note_on_c, 0, 55, 82
3, 49454, Control_c, 0, 64, 0
3, 49529, Control_c, 0, 64, 127
3, 49920, Note_on_c, 0, 55, 0
3, 49920, Note_on_c, 0, 43, 0
3, 49920, Note_on_c, 0, 43, 69
3, 49920, Note_on_c, 0, 31, 58
3, 49930, Control_c, 0, 64, 0
3, 49969, Control_c, 0, 64, 127
3, 50080, Note_on_c, 0, 31, 0
3, 50080, Note_on_c, 0, 43, 0
3, 50080, Note_on_c, 0, 55, 56
3, 50080, Note_on_c, 0, 43, 47
3, 50240, Note_on_c, 0, 43, 0
3, 50240, Note_on_c, 0, 55, 0
3, 50240, Note_on_c, 0, 43, 48
3, 50240, Note_on_c, 0, 55, 57
3, 50360, Note_on_c, 0, 55, 0
3, 50360, Note_on_c, 0, 43, 0
3, 50400, Note_on_c, 0, 43, 71
3, 50400, Note_on_c, 0, 31, 60
3, 50560, Note_on_c, 0, 31, 0
3, 50560, Note_on_c, 0, 43, 0
3, 50560, Note_on_c, 0, 55, 59
3, 50560, Note_on_c, 0, 43, 50
3, 50720, Note_on_c, 0, 43, 0
3, 50720, Note_on_c, 0, 55, 0
3, 50720, Note_on_c, 0, 55, 59
3, 50720, Note_on_c, 0, 43, 50
3, 50840, Note_on_c, 0, 43, 0
3, 50840, Note_on_c, 0, 55, 0
3, 50880, Note_on_c, 0, 31, 62
3, 50880, Note_on_c, 0, 43, 74
3, 51040, Note_on_c, 0, 43, 0
3, 51040, Note_on_c, 0, 31, 0
3, 51040, Note_on_c, 0, 55, 64
3, 51040, Note_on_c, 0, 43, 54
3, 51200, Note_on_c, 0, 43, 0
3, 51200, Note_on_c, 0, 55, 0
3, 51200, Note_on_c, 0, 43, 54
3, 51200, Note_on_c, 0, 55, 64
3, 51320, Note_on_c, 0, 55, 0
3, 51320, Note_on_c, 0, 43, 0
3, 51360, Note_on_c, 0, 31, 65
3, 51360, Note_on_c, 0, 43, 77
3, 51520, Note_on_c, 0, 43, 0
3, 51520, Note_on_c, 0, 31, 0
3, 51520, Note_on_c, 0, 43, 57
3, 51520, Note_on_c, 0, 55, 68
3, 51680, Note_on_c, 0, 55, 0
3, 51680, Note_on_c, 0, 43, 0
3, 51680, Note_on_c, 0, 43, 57
3, 51680, Note_on_c, 0, 55, 68
3, 51800, Note_on_c, 0, 55, 0
3, 51800, Note_on_c, 0, 43, 0
3, 51840, Note_on_c, 0, 43, 83
3, 51840, Note_on_c, 0, 31, 70
3, 51848, Control_c, 0, 64, 0
3, 51896, Control_c, 0, 64, 127
3, 52000, Note_on_c, 0, 31, 0
3, 52000, Note_on_c, 0, 43, 0
3, 52000, Note_on_c, 0, 43, 62
3, 52000, Note_on_c, 0, 55, 74
3, 52160, Note_on_c, 0, 55, 0
3, 52160, Note_on_c, 0, 43, 0
3, 52160, Note_on_c, 0, 43, 62
3, 52160, Note_on_c, 0, 55, 74
3, 52280, Note_on_c, 0, 55, 0
3, 52280, Note_on_c, 0, 43, 0
3, 52320, Note_on_c, 0, 43, 86
3, 52320, Note_on_c, 0, 31, 73
3, 52480, Note_on_c, 0, 31, 0
3, 52480, Note_on_c, 0, 43, 0
3, 52480, Note_on_c, 0, 55, 75
3, 52480, Note_on_c, 0, 43, 63
3, 52640, Note_on_c, 0, 43, 0
3, 52640, Note_on_c, 0, 55, 0
3, 52640, Note_on_c, 0, 55, 75
3, 52640, Note_on_c, 0, 43, 63
3, 52760, Note_on_c, 0, 43, 0
3, 52760, Note_on_c, 0, 55, 0
3, 52800, Note_on_c, 0, 31, 82
3, 52800, Note_on_c, 0, 43, 97
3, 52808, Control_c, 0, 64, 0
3, 52846, Control_c, 0, 64, 127
3, 52960, Note_on_c, 0, 43, 0
3, 52960, Note_on_c, 0, 31, 0
3, 52960, Note_on_c, 0, 55, 77
3, 52960, Note_on_c, 0, 43, 65
3, 53120, Note_on_c, 0, 43, 0
3, 53120, Note_on_c, 0, 55, 0
3, 53120, Note_on_c, 0, 43, 65
3, 53120, Note_on_c, 0, 55, 77
3, 53240, Note_on_c, 0, 55, 0
3, 53240, Note_on_c, 0, 43, 0
3, 53280, Note_on_c, 0, 43, 105
3, 53280, Note_on_c, 0, 31, 89
3, 53440, Note_on_c, 0, 31, 0
3, 53440, Note_on_c, 0, 43, 0
3, 53440, Note_on_c, 0, 55, 82
3, 53440, Note_on_c, 0, 43, 69
3, 53600, Note_on_c, 0, 43, 0
3, 53600, Note_on_c, 0, 55, 0
3, 53600, Note_on_c, 0, 43, 69
3, 53600, Note_on_c, 0, 55, 82
3, 53720, Note_on_c, 0, 55, 0
3, 53720, Note_on_c, 0, 43, 0
3, 53760, Note_on_c, 0, 31, 90
3, 53760, Note_on_c, 0, 43, 107
3, 53764, Control_c, 0, 64, 0
3, 53863, Control_c, 0, 64, 127
3, 54000, Note_on_c, 0, 43, 0
3, 54000, Note_on_c, 0, 31, 0
3, 54257, Control_c, 0, 64, 0
3, 54314, Control_c, 0, 64, 127
3, 55680, Note_on_c, 0, 62, 54
3, 55680, Note_on_c, 0, 65, 54
3, 55688, Control_c, 0, 64, 0
3, 55758, Control_c, 0, 64, 127
3, 56640, Note_on_c, 0, 65, 0
3, 56640, Note_on_c, 0, 62, 0
3, 56640, Note_on_c, 0, 64, 40
3, 56640, Note_on_c, 0, 60, 40
3, 56654, Control_c, 0, 64, 0
3, 56732, Control_c, 0, 64, 127
3, 57120, Note_on_c, 0, 60, 0
3, 57120, Note_on_c, 0, 64, 0
3, 57120, Note_on_c, 0, 55, 35
3, 57120, Note_on_c, 0, 62, 35
3, 57129, Control_c, 0, 64, 0
3, 57215, Control_c, 0, 64, 127
3, 57600, Note_on_c, 0, 62, 0
3, 57600, Note_on_c, 0, 55, 0
3, 57600, Note_on_c, 0, 48, 45
3, 57600, Note_on_c, 0, 55, 45
3, 57600, Note_on_c, 0, 52, 45
3, 57609, Control_c, 0, 64, 0
3, 57683, Control_c, 0, 64, 127
3, 58320, Note_on_c, 0, 60, 37
3, 58560, Note_on_c, 0, 60, 0
3, 58560, Note_on_c, 0, 48, 0
3, 58560, Note_on_c, 0, 55, 0
3, 58560, Note_on_c, 0, 52, 0
3, 58560, Note_on_c, 0, 64, 45
3, 58565, Control_c, 0, 64, 0
3, 58602, Control_c, 0, 64, 127
3, 59040, Note_on_c, 0, 64, 0
3, 59040, Note_on_c, 0, 69, 48
3, 59052, Control_c, 0, 64, 0
3, 59109, Control_c, 0, 64, 127
3, 59440, Note_on_c, 0, 47, 35
3, 59457, Control_c, 0, 64, 0
3, 59480, Note_on_c, 0, 55, 40
3, 59520, Note_on_c, 0, 69, 0
3, 59520, Control_c, 0, 64, 127
3, 59520, Note_on_c, 0, 67, 45
3, 60240, Note_on_c, 0, 67, 0
3, 60240, Note_on_c, 0, 65, 40
3, 60480, Note_on_c, 0, 65, 0
3, 60480, Note_on_c, 0, 55, 0
3, 60480, Note_on_c, 0, 47, 0
3, 60480, Note_on_c, 0, 62, 45
3, 60486, Control_c, 0, 64, 0
3, 60536, Control_c, 0, 64, 127
3, 60925, Control_c, 0, 64, 0
3, 60960, Note_on_c, 0, 62, 0
3, 60960, Note_on_c, 0, 64, 40
3, 60995, Control_c, 0, 64, 127
3, 61360, Note_on_c, 0, 45, 38
3, 61366, Control_c, 0, 64, 0
3, 61400, Note_on_c, 0, 52, 40
3, 61440, Note_on_c, 0, 64, 0
3, 61440, Control_c, 0, 64, 127
3, 61440, Note_on_c, 0, 60, 45
3, 62320, Note_on_c, 0, 45, 0
3, 62320, Note_on_c, 0, 47, 35
3, 62343, Control_c, 0, 64, 0
3, 62360, Note_on_c, 0, 52, 0
3, 62360, Note_on_c, 0, 55, 37
3, 62400, Note_on_c, 0, 60, 0
3, 62400, Note_on_c, 0, 65, 40
3, 62426, Control_c, 0, 64, 127
3, 63266, Control_c, 0, 64, 0
3, 63280, Note_on_c, 0, 47, 0
3, 63280, Note_on_c, 0, 48, 31
3, 63311, Control_c, 0, 64, 127
3, 63320, Note_on_c, 0, 55, 0
3, 63320, Note_on_c, 0, 55, 31
3, 63360, Note_on_c, 0, 65, 0
3, 63360, Note_on_c, 0, 64, 36
3, 63480, Note_on_c, 0, 64, 0
3, 63480, Note_on_c, 0, 55, 0
3, 63480, Note_on_c, 0, 48, 0
3, 63498, Control_c, 0, 64, 0
3, 63840, Note_on_c, 0, 60, 21
3, 63840, Note_on_c, 0, 67, 21
3, 63851, Control_c, 0, 64, 127
3, 64320, Note_on_c, 0, 67, 0
3, 64320, Note_on_c, 0, 69, 17
3, 64320, Note_on_c, 0, 66, 17
3, 64333, Control_c, 0, 64, 0
3, 64444, Control_c, 0, 64, 127
3, 64800, Note_on_c, 0, 66, 0
3, 64800, Note_on_c, 0, 69, 0
3, 64800, Note_on_c, 0, 67, 21
3, 64814, Control_c, 0, 64, 0
3, 64920, Note_on_c, 0, 67, 0
3, 64920, Note_on_c, 0, 60, 0
3, 65280, Note_on_c, 0, 55, 45
3, 65280, Note_on_c, 0, 52, 45
3, 65280, Note_on_c, 0, 48, 45
3, 65322, Control_c, 0, 64, 127
3, 66000, Note_on_c, 0, 60, 37
3, 66240, Note_on_c, 0, 60, 0
3, 66240, Note_on_c, 0, 55, 0
3, 66240, Note_on_c, 0, 52, 0
3, 66240, Note_on_c, 0, 48, 0
3, 66240, Note_on_c, 0, 64, 45
3, 66250, Control_c, 0, 64, 0
3, 66282, Control_c, 0, 64, 127
3, 66640, Note_on_c, 0, 48, 35
3, 66680, Note_on_c, 0, 60, 40
3, 66685, Control_c, 0, 64, 0
3, 66720, Note_on_c, 0, 64, 0
3, 66720, Note_on_c, 0, 69, 48
3, 66755, Control_c, 0, 64, 127
3, 67200, Note_on_c, 0, 69, 0
3, 67200, Note_on_c, 0, 60, 0
3, 67200, Note_on_c, 0, 48, 0
3, 67200, Note_on_c, 0, 48, 53
3, 67200, Note_on_c, 0, 57, 53
3, 67200, Note_on_c, 0, 52, 53
3, 67210, Control_c, 0, 64, 0
3, 67285, Control_c, 0, 64, 127
3, 67920, Note_on_c, 0, 60, 48
3, 68160, Note_on_c, 0, 60, 0
3, 68160, Note_on_c, 0, 48, 0
3, 68160, Note_on_c, 0, 57, 0
3, 68160, Note_on_c, 0, 52, 0
3, 68160, Note_on_c, 0, 64, 54
3, 68172, Control_c, 0, 64, 0
3, 68202, Control_c, 0, 64, 127
3, 68640, Note_on_c, 0, 64, 0
3, 68640, Note_on_c, 0, 52, 63
3, 68640, Note_on_c, 0, 62, 63
3, 68640, Note_on_c, 0, 59, 63
3, 68651, Control_c, 0, 64, 0
3, 68696, Control_c, 0, 64, 127
3, 68800, Note_on_c, 0, 59, 0
3, 68800, Note_on_c, 0, 62, 0
3, 68800, Note_on_c, 0, 52, 0
3, 68800, Note_on_c, 0, 62, 54
3, 68800, Note_on_c, 0, 52, 54
3, 68800, Note_on_c, 0, 59, 54
3, 68960, Note_on_c, 0, 59, 0
3, 68960, Note_on_c, 0, 52, 0
3, 68960, Note_on_c, 0, 62, 0
3, 68960, Note_on_c, 0, 59, 54
3, 68960, Note_on_c, 0, 52, 54
3, 68960, Note_on_c, 0, 62, 54
3, 69120, Note_on_c, 0, 62, 0
3, 69120, Note_on_c, 0, 52, 0
3, 69120, Note_on_c, 0, 59, 0
3, 69120, Note_on_c, 0, 52, 60
3, 69120, Note_on_c, 0, 59, 60
3, 69120, Note_on_c, 0, 62, 60
3, 69128, Control_c, 0, 64, 0
3, 69212, Control_c, 0, 64, 127
3, 70080, Note_on_c, 0, 62, 0
3, 70080, Note_on_c, 0, 59, 0
3, 70080, Note_on_c, 0, 52, 0
3, 70080, Note_on_c, 0, 52, 46
3, 70080, Note_on_c, 0, 60, 46
3, 70094, Control_c, 0, 64, 0
3, 70158, Control_c, 0, 64, 127
3, 70560, Note_on_c, 0, 60, 0
3, 70560, Note_on_c, 0, 52, 0
3, 70560, Note_on_c, 0, 55, 38
3, 70560, Note_on_c, 0, 59, 38
3, 70569, Control_c, 0, 64, 0
3, 70627, Control_c, 0, 64, 127
3, 71040, Note_on_c, 0, 59, 0
3, 71040, Note_on_c, 0, 55, 0
3, 71040, Control_c, 0, 64, 0
3, 71040, Note_on_c, 0, 60, 37
3, 71280, Note_on_c, 0, 60, 0
3, 71520, Note_on_c, 0, 60, 21
3, 71520, Note_on_c, 0, 67, 21
3, 71562, Control_c, 0, 64, 127
3, 72000, Note_on_c, 0, 67, 0
3, 72000, Note_on_c, 0, 66, 17
3, 72000, Note_on_c, 0, 69, 17
3, 72015, Control_c, 0, 64, 0
3, 72124, Control_c, 0, 64, 127
3, 72480, Note_on_c, 0, 69, 0
3, 72480, Note_on_c, 0, 66, 0
3, 72480, Note_on_c, 0, 67, 21
3, 72491, Control_c, 0, 64, 0
3, 72600, Note_on_c, 0, 67, 0
3, 72600, Note_on_c, 0, 60, 0
3, 72960, Note_on_c, 0, 48, 45
3, 72960, Note_on_c, 0, 40, 45
3, 73002, Control_c, 0, 64, 127
3, 73680, Note_on_c, 0, 52, 37
3, 73920, Note_on_c, 0, 52, 0
3, 73920, Note_on_c, 0, 40, 0
3, 73920, Note_on_c, 0, 48, 0
3, 73920, Note_on_c, 0, 55, 45
3, 73934, Control_c, 0, 64, 0
3, 73997, Control_c, 0, 64, 127
3, 74320, Note_on_c, 0, 40, 35
3, 74360, Note_on_c, 0, 49, 40
3, 74365, Control_c, 0, 64, 0
3, 74400, Note_on_c, 0, 55, 0
3, 74400, Note_on_c, 0, 58, 48
3, 74435, Control_c, 0, 64, 127
3, 74880, Note_on_c, 0, 58, 0
3, 74880, Note_on_c, 0, 49, 0
3, 74880, Note_on_c, 0, 40, 0
3, 74880, Note_on_c, 0, 50, 58
3, 74880, Note_on_c, 0, 41, 58
3, 74888, Control_c, 0, 64, 0
3, 74989, Control_c, 0, 64, 127
3, 75600, Note_on_c, 0, 53, 48
3, 75840, Note_on_c, 0, 53, 0
3, 75840, Note_on_c, 0, 41, 0
3, 75840, Note_on_c, 0, 50, 0
3, 75840, Note_on_c, 0, 58, 54
3, 75851, Control_c, 0, 64, 0
3, 75932, Control_c, 0, 64, 127
3, 76320, Note_on_c, 0, 58, 0
3, 76320, Note_on_c, 0, 50, 65
3, 76320, Note_on_c, 0, 58, 65
3, 76330, Control_c, 0, 64, 0
3, 76405, Control_c, 0, 64, 127
3, 76480, Note_on_c, 0, 58, 0
3, 76480, Note_on_c, 0, 50, 0
3, 76480, Note_on_c, 0, 58, 56
3, 76480, Note_on_c, 0, 50, 56
3, 76640, Note_on_c, 0, 50, 0
3, 76640, Note_on_c, 0, 58, 0
3, 76640, Note_on_c, 0, 50, 56
3, 76640, Note_on_c, 0, 58, 56
3, 76800, Note_on_c, 0, 58, 0
3, 76800, Note_on_c, 0, 50, 0
3, 76800, Note_on_c, 0, 50, 63
3, 76800, Note_on_c, 0, 57, 63
3, 76800, Note_on_c, 0, 60, 63
3, 76806, Control_c, 0, 64, 0
3, 76888, Control_c, 0, 64, 127
3, 77760, Note_on_c, 0, 60, 0
3, 77760, Note_on_c, 0, 57, 0
3, 77760, Note_on_c, 0, 50, 0
3, 77760, Note_on_c, 0, 58, 46
3, 77760, Note_on_c, 0, 50, 46
3, 77764, Control_c, 0, 64, 0
3, 77834, Control_c, 0, 64, 127
3, 78240, Note_on_c, 0, 50, 0
3, 78240, Note_on_c, 0, 58, 0
3, 78240, Note_on_c, 0, 57, 38
3, 78240, Note_on_c, 0, 45, 38
3, 78240, Note_on_c, 0, 53, 38
3, 78247, Control_c, 0, 64, 0
3, 78314, Control_c, 0, 64, 127
3, 78720, Note_on_c, 0, 53, 0
3, 78720, Note_on_c, 0, 45, 0
3, 78720, Note_on_c, 0, 57, 0
3, 78720, Note_on_c, 0, 45, 66
3, 78720, Note_on_c, 0, 58, 66
3, 78720, Note_on_c, 0, 55, 66
3, 78726, Control_c, 0, 64, 0
3, 78826, Control_c, 0, 64, 127
3, 79680, Note_on_c, 0, 55, 0
3, 79680, Note_on_c, 0, 58, 0
3, 79680, Note_on_c, 0, 45, 0
3, 79680, Note_on_c, 0, 53, 54
3, 79680, Note_on_c, 0, 57, 54
3, 79680, Note_on_c, 0, 45, 54
3, 79687, Control_c, 0, 64, 0
3, 79751, Control_c, 0, 64, 127
3, 80160, Note_on_c, 0, 45, 0
3, 80160, Note_on_c, 0, 57, 0
3, 80160, Note_on_c, 0, 53, 0
3, 80160, Note_on_c, 0, 41, 38
3, 80160, Note_on_c, 0, 53, 38
3, 80160, Note_on_c, 0, 48, 38
3, 80172, Control_c, 0, 64, 0
3, 80238, Control_c, 0, 64, 127
3, 80560, Note_on_c, 0, 40, 35
3, 80573, Control_c, 0, 64, 0
3, 80600, Note_on_c, 0, 48, 40
3, 80640, Note_on_c, 0, 48, 0
3, 80640, Note_on_c, 0, 41, 0
3, 80640, Note_on_c, 0, 53, 0
3, 80640, Control_c, 0, 64, 127
3, 80640, Note_on_c, 0, 60, 45
3, 81360, Note_on_c, 0, 60, 0
3, 81360, Note_on_c, 0, 58, 40
3, 81600, Note_on_c, 0, 58, 0
3, 81600, Note_on_c, 0, 40, 0
3, 81600, Note_on_c, 0, 48, 0
3, 81600, Note_on_c, 0, 55, 45
3, 81611, Control_c, 0, 64, 0
3, 81656, Control_c, 0, 64, 127
3, 82080, Note_on_c, 0, 55, 0
3, 82080, Note_on_c, 0, 57, 40
3, 82091, Control_c, 0, 64, 0
3, 82179, Control_c, 0, 64, 127
3, 82451, Control_c, 0, 64, 0
3, 82480, Note_on_c, 0, 38, 38
3, 82520, Note_on_c, 0, 45, 40
3, 82532, Control_c, 0, 64, 127
3, 82560, Note_on_c, 0, 57, 0
3, 82560, Note_on_c, 0, 53, 45
3, 83440, Note_on_c, 0, 38, 0
3, 83440, Note_on_c, 0, 40, 35
3, 83453, Control_c, 0, 64, 0
3, 83480, Note_on_c, 0, 45, 0
3, 83480, Note_on_c, 0, 48, 37
3, 83520, Note_on_c, 0, 53, 0
3, 83520, Note_on_c, 0, 55, 40
3, 83555, Control_c, 0, 64, 127
3, 84400, Note_on_c, 0, 40, 0
3, 84400, Note_on_c, 0, 41, 31
3, 84406, Control_c, 0, 64, 0
3, 84440, Note_on_c, 0, 48, 0
3, 84440, Note_on_c, 0, 48, 31
3, 84480, Note_on_c, 0, 55, 0
3, 84480, Control_c, 0, 64, 127
3, 84480, Note_on_c, 0, 57, 36
3, 84600, Note_on_c, 0, 57, 0
3, 84600, Note_on_c, 0, 48, 0
3, 84600, Note_on_c, 0, 41, 0
3, 84618, Control_c, 0, 64, 0
3, 84960, Note_on_c, 0, 60, 21
3, 84960, Note_on_c, 0, 53, 21
3, 84971, Control_c, 0, 64, 127
3, 85440, Note_on_c, 0, 60, 0
3, 85440, Note_on_c, 0, 59, 17
3, 85440, Note_on_c, 0, 62, 17
3, 85459, Control_c, 0, 64, 0
3, 85564, Control_c, 0, 64, 127
3, 85920, Note_on_c, 0, 62, 0
3, 85920, Note_on_c, 0, 59, 0
3, 85920, Note_on_c, 0, 60, 21
3, 85927, Control_c, 0, 64, 0
3, 86040, Note_on_c, 0, 60, 0
3, 86040, Note_on_c, 0, 53, 0
3, 86320, Note_on_c, 0, 52, 35
3, 86360, Note_on_c, 0, 60, 40
3, 86400, Note_on_c, 0, 72, 45
3, 87120, Note_on_c, 0, 72, 0
3, 87120, Note_on_c, 0, 70, 40
3, 87360, Note_on_c, 0, 70, 0
3, 87360, Note_on_c, 0, 60, 0
3, 87360, Note_on_c, 0, 52, 0
3, 87360, Note_on_c, 0, 67, 45
3, 87369, Control_c, 0, 64, 0
3, 87416, Control_c, 0, 64, 127
3, 87840, Note_on_c, 0, 67, 0
3, 87840, Note_on_c, 0, 69, 40
3, 87850, Control_c, 0, 64, 0
3, 87911, Control_c, 0, 64, 127
3, 88240, Note_on_c, 0, 50, 38
3, 88249, Control_c, 0, 64, 0
3, 88280, Note_on_c, 0, 57, 40
3, 88320, Note_on_c, 0, 69, 0
3, 88320, Control_c, 0, 64, 127
3, 88320, Note_on_c, 0, 65, 45
3, 89188, Control_c, 0, 64, 0
3, 89200, Note_on_c, 0, 50, 0
3, 89200, Note_on_c, 0, 48, 35
3, 89240, Note_on_c, 0, 57, 0
3, 89240, Note_on_c, 0, 58, 37
3, 89280, Note_on_c, 0, 65, 0
3, 89280, Note_on_c, 0, 64, 40
3, 89326, Control_c, 0, 64, 127
3, 90240, Note_on_c, 0, 64, 0
3, 90240, Note_on_c, 0, 58, 0
3, 90240, Note_on_c, 0, 48, 0
3, 90240, Control_c, 0, 64, 0
3, 90240, Note_on_c, 0, 65, 36
3, 90240, Note_on_c, 0, 57, 31
3, 90240, Note_on_c, 0, 53, 31
3, 90300, Control_c, 0, 64, 127
3, 90360, Note_on_c, 0, 53, 0
3, 90360, Note_on_c, 0, 57, 0
3, 90360, Note_on_c, 0, 65, 0
3, 90378, Control_c, 0, 64, 0
3, 90720, Note_on_c, 0, 53, 21
3, 90720, Note_on_c, 0, 60, 21
3, 90731, Control_c, 0, 64, 127
3, 91200, Note_on_c, 0, 60, 0
3, 91200, Note_on_c, 0, 62, 17
3, 91200, Note_on_c, 0, 59, 17
3, 91217, Control_c, 0, 64, 0
3, 91324, Control_c, 0, 64, 127
3, 91680, Note_on_c, 0, 59, 0
3, 91680, Note_on_c, 0, 62, 0
3, 91680, Note_on_c, 0, 60, 21
3, 91684, Control_c, 0, 64, 0
3, 91800, Note_on_c, 0, 60, 0
3, 91800, Note_on_c, 0, 53, 0
3, 92640, Note_on_c, 0, 60, 26
3, 92663, Control_c, 0, 64, 127
3, 93000, Note_on_c, 0, 60, 0
3, 93000, Note_on_c, 0, 61, 22
3, 93060, Note_on_c, 0, 61, 0
3, 93060, Note_on_c, 0, 60, 24
3, 93120, Note_on_c, 0, 60, 0
3, 93120, Note_on_c, 0, 59, 31
3, 93130, Control_c, 0, 64, 0
3, 93183, Control_c, 0, 64, 127
3, 93480, Note_on_c, 0, 59, 0
3, 93480, Note_on_c, 0, 60, 24
3, 93540, Note_on_c, 0, 60, 0
3, 93540, Note_on_c, 0, 61, 24
3, 93600, Note_on_c, 0, 61, 0
3, 93600, Note_on_c, 0, 60, 27
3, 93606, Control_c, 0, 64, 0
3, 93720, Note_on_c, 0, 60, 0
3, 94080, Note_on_c, 0, 59, 40
3, 94103, Control_c, 0, 64, 127
3, 94440, Note_on_c, 0, 59, 0
3, 94440, Note_on_c, 0, 60, 38
3, 94500, Note_on_c, 0, 60, 0
3, 94500, Note_on_c, 0, 61, 42
3, 94560, Note_on_c, 0, 61, 0
3, 94560, Note_on_c, 0, 60, 55
3, 94568, Control_c, 0, 64, 0
3, 94623, Control_c, 0, 64, 127
3, 94920, Note_on_c, 0, 60, 0
3, 94920, Note_on_c, 0, 58, 49
3, 94980, Note_on_c, 0, 58, 0
3, 94980, Note_on_c, 0, 56, 50
3, 95040, Note_on_c, 0, 56, 0
3, 95040, Note_on_c, 0, 55, 61
3, 95054, Control_c, 0, 64, 0
3, 95183, Control_c, 0, 64, 127
3, 95400, Note_on_c, 0, 55, 0
3, 95400, Note_on_c, 0, 56, 48
3, 95460, Note_on_c, 0, 56, 0
3, 95460, Note_on_c, 0, 58, 53
3, 95520, Note_on_c, 0, 58, 0
3, 95520, Note_on_c, 0, 56, 60
3, 95526, Control_c, 0, 64, 0
3, 95583, Control_c, 0, 64, 127
3, 95880, Note_on_c, 0, 56, 0
3, 95880, Note_on_c, 0, 55, 54
3, 95940, Note_on_c, 0, 55, 0
3, 95940, Note_on_c, 0, 53, 50
3, 96000, Note_on_c, 0, 53, 0
3, 96000, Note_on_c, 0, 53, 34
3, 96000, Note_on_c, 0, 48, 34
3, 96000, Note_on_c, 0, 57, 34
3, 96015, Control_c, 0, 64, 0
3, 96198, Control_c, 0, 64, 127
3, 96976, Control_c, 0, 64, 0
3, 97062, Control_c, 0, 64, 127
3, 97452, Control_c, 0, 64, 0
3, 97549, Control_c, 0, 64, 127
3, 97920, Note_on_c, 0, 57, 0
3, 97920, Note_on_c, 0, 48, 0
3, 97920, Note_on_c, 0, 53, 0
3, 97920, Note_on_c, 0, 55, 52
3, 97920, Note_on_c, 0, 52, 52
3, 97920, Note_on_c, 0, 45, 52
3, 97927, Control_c, 0, 64, 0
3, 98160, Control_c, 0, 64, 127
3, 98889, Control_c, 0, 64, 0
3, 98981, Control_c, 0, 64, 127
3, 99379, Control_c, 0, 64, 0
3, 99442, Control_c, 0, 64, 127
3, 99840, Note_on_c, 0, 45, 0
3, 99840, Note_on_c, 0, 52, 0
3, 99840, Note_on_c, 0, 55, 0
3, 99840, Note_on_c, 0, 45, 41
3, 99840, Note_on_c, 0, 53, 41
3, 99849, Control_c, 0, 64, 0
3, 99883, Control_c, 0, 64, 127
3, 100334, Control_c, 0, 64, 0
3, 100391, Control_c, 0, 64, 127
3, 100800, Note_on_c, 0, 53, 0
3, 100800, Note_on_c, 0, 45, 0
3, 100800, Note_on_c, 0, 48, 41
3, 100800, Note_on_c, 0, 58, 41
3, 100800, Note_on_c, 0, 55, 41
3, 100810, Control_c, 0, 64, 0
3, 100869, Control_c, 0, 64, 127
3, 101299, Control_c, 0, 64, 0
3, 101377, Control_c, 0, 64, 127
3, 101694, Control_c, 0, 64, 0
3, 101760, Note_on_c, 0, 55, 0
3, 101760, Note_on_c, 0, 58, 0
3, 101760, Note_on_c, 0, 48, 0
3, 102240, Note_on_c, 0, 60, 26
3, 102263, Control_c, 0, 64, 127
3, 102600, Note_on_c, 0, 60, 0
3, 102600, Note_on_c, 0, 61, 22
3, 102660, Note_on_c, 0, 61, 0
3, 102660, Note_on_c, 0, 60, 24
3, 102720, Note_on_c, 0, 60, 0
3, 102720, Note_on_c, 0, 59, 31
3, 102723, Control_c, 0, 64, 0
3, 102783, Control_c, 0, 64, 127
3, 103080, Note_on_c, 0, 59, 0
3, 103080, Note_on_c, 0, 60, 24
3, 103140, Note_on_c, 0, 60, 0
3, 103140, Note_on_c, 0, 61, 24
3, 103200, Note_on_c, 0, 61, 0
3, 103200, Note_on_c, 0, 60, 27
3, 103206, Control_c, 0, 64, 0
3, 103320, Note_on_c, 0, 60, 0
3, 103680, Note_on_c, 0, 59, 40
3, 103703, Control_c, 0, 64, 127
3, 104040, Note_on_c, 0, 59, 0
3, 104040, Note_on_c, 0, 60, 38
3, 104100, Note_on_c, 0, 60, 0
3, 104100, Note_on_c, 0, 61, 42
3, 104160, Note_on_c, 0, 61, 0
3, 104160, Note_on_c, 0, 60, 55
3, 104169, Control_c, 0, 64, 0
3, 104223, Control_c, 0, 64, 127
3, 104520, Note_on_c, 0, 60, 0
3, 104520, Note_on_c, 0, 58, 49
3, 104580, Note_on_c, 0, 58, 0
3, 104580, Note_on_c, 0, 56, 50
3, 104640, Note_on_c, 0, 56, 0
3, 104640, Note_on_c, 0, 55, 61
3, 104646, Control_c, 0, 64, 0
3, 104783, Control_c, 0, 64, 127
3, 105000, Note_on_c, 0, 55, 0
3, 105000, Note_on_c, 0, 56, 48
3, 105060, Note_on_c, 0, 56, 0
3, 105060, Note_on_c, 0, 58, 53
3, 105120, Note_on_c, 0, 58, 0
3, 105120, Note_on_c, 0, 56, 60
3, 105129, Control_c, 0, 64, 0
3, 105183, Control_c, 0, 64, 127
3, 105480, Note_on_c, 0, 56, 0
3, 105480, Note_on_c, 0, 55, 54
3, 105540, Note_on_c, 0, 55, 0
3, 105540, Note_on_c, 0, 53, 50
3, 105600, Note_on_c, 0, 53, 0
3, 105600, Note_on_c, 0, 60, 45
3, 105600, Note_on_c, 0, 56, 45
3, 105600, Note_on_c, 0, 51, 45
3, 105608, Control_c, 0, 64, 0
3, 105829, Control_c, 0, 64, 127
3, 106574, Control_c, 0, 64, 0
3, 106638, Control_c, 0, 64, 127
3, 107054, Control_c, 0, 64, 0
3, 107132, Control_c, 0, 64, 127
3, 107520, Note_on_c, 0, 51, 0
3, 107520, Note_on_c, 0, 56, 0
3, 107520, Note_on_c, 0, 60, 0
3, 107520, Note_on_c, 0, 48, 52
3, 107520, Note_on_c, 0, 55, 64
3, 107520, Note_on_c, 0, 58, 64
3, 107526, Control_c, 0, 64, 0
3, 107760, Control_c, 0, 64, 127
3, 108492, Control_c, 0, 64, 0
3, 108583, Control_c, 0, 64, 127
3, 108980, Control_c, 0, 64, 0
3, 109060, Control_c, 0, 64, 127
3, 109440, Note_on_c, 0, 58, 0
3, 109440, Note_on_c, 0, 55, 0
3, 109440, Note_on_c, 0, 48, 0
3, 109440, Note_on_c, 0, 56, 41
3, 109440, Note_on_c, 0, 48, 41
3, 109450, Control_c, 0, 64, 0
3, 109506, Control_c, 0, 64, 127
3, 109930, Control_c, 0, 64, 0
3, 109974, Control_c, 0, 64, 127
3, 110400, Note_on_c, 0, 48, 0
3, 110400, Note_on_c, 0, 56, 0
3, 110400, Note_on_c, 0, 61, 41
3, 110400, Note_on_c, 0, 51, 41
3, 110400, Note_on_c, 0, 55, 41
3, 110409, Control_c, 0, 64, 0
3, 110466, Control_c, 0, 64, 127
3, 110897, Control_c, 0, 64, 0
3, 110966, Control_c, 0, 64, 127
3, 111227, Control_c, 0, 64, 0
3, 111360, Note_on_c, 0, 55, 0
3, 111360, Note_on_c, 0, 51, 0
3, 111360, Note_on_c, 0, 61, 0
3, 111840, Note_on_c, 0, 61, 21
3, 111840, Note_on_c, 0, 52, 21
3, 111851, Control_c, 0, 64, 127
3, 112338, Control_c, 0, 64, 0
3, 112444, Control_c, 0, 64, 127
3, 112814, Control_c, 0, 64, 0
3, 112920, Note_on_c, 0, 52, 0
3, 112920, Note_on_c, 0, 61, 0
3, 113280, Note_on_c, 0, 45, 59
3, 113280, Note_on_c, 0, 52, 59
3, 113280, Note_on_c, 0, 55, 59
3, 113520, Control_c, 0, 64, 127
3, 114250, Control_c, 0, 64, 0
3, 114306, Control_c, 0, 64, 127
3, 114740, Control_c, 0, 64, 0
3, 114793, Control_c, 0, 64, 127
3, 115200, Note_on_c, 0, 55, 0
3, 115200, Note_on_c, 0, 52, 0
3, 115200, Note_on_c, 0, 45, 0
3, 115200, Note_on_c, 0, 45, 41
3, 115200, Note_on_c, 0, 53, 41
3, 115207, Control_c, 0, 64, 0
3, 115266, Control_c, 0, 64, 127
3, 115690, Control_c, 0, 64, 0
3, 115749, Control_c, 0, 64, 127
3, 116160, Note_on_c, 0, 53, 0
3, 116160, Note_on_c, 0, 45, 0
3, 116160, Note_on_c, 0, 58, 41
3, 116160, Note_on_c, 0, 55, 41
3, 116160, Note_on_c, 0, 48, 41
3, 116171, Control_c, 0, 64, 0
3, 116197, Control_c, 0, 64, 127
3, 116648, Control_c, 0, 64, 0
3, 116697, Control_c, 0, 64, 127
3, 117000, Note_on_c, 0, 48, 0
3, 117000, Note_on_c, 0, 55, 0
3, 117000, Note_on_c, 0, 58, 0
3, 117000, Control_c, 0, 64, 0
3, 117120, Note_on_c, 0, 48, 32
3, 117120, Note_on_c, 0, 41, 32
3, 117254, Control_c, 0, 64, 127
3, 117840, Note_on_c, 0, 53, 28
3, 118080, Note_on_c, 0, 53, 0
3, 118080, Note_on_c, 0, 41, 0
3, 118080, Note_on_c, 0, 48, 0
3, 118080, Note_on_c, 0, 57, 32
3, 118101, Control_c, 0, 64, 0
3, 118151, Control_c, 0, 64, 127
3, 118560, Note_on_c, 0, 57, 0
3, 118578, Control_c, 0, 64, 0
3, 118673, Control_c, 0, 64, 127
3, 118960, Note_on_c, 0, 36, 24
3, 118981, Control_c, 0, 64, 0
3, 119000, Note_on_c, 0, 46, 24
3, 119040, Note_on_c, 0, 55, 30
3, 119195, Control_c, 0, 64, 127
3, 119970, Note_on_c, 0, 55, 0
3, 120000, Note_on_c, 0, 46, 0
3, 120000, Note_on_c, 0, 36, 0
3, 120019, Control_c, 0, 64, 0
3, 120212, Control_c, 0, 64, 127
3, 120495, Control_c, 0, 64, 0
3, 120720, Control_c, 0, 64, 127
3, 120960, Note_on_c, 0, 38, 28
3, 120960, Note_on_c, 0, 50, 28
3, 120960, Note_on_c, 0, 45, 28
3, 120970, Control_c, 0, 64, 0
3, 121147, Control_c, 0, 64, 127
3, 121920, Note_on_c, 0, 45, 0
3, 121920, Note_on_c, 0, 50, 0
3, 121920, Note_on_c, 0, 38, 0
3, 121920, Note_on_c, 0, 48, 24
3, 121920, Note_on_c, 0, 36, 24
3, 121937, Control_c, 0, 64, 0
3, 122293, Control_c, 0, 64, 127
3, 122880, Note_on_c, 0, 36, 0
3, 122880, Control_c, 0, 64, 0
3, 122880, Note_on_c, 0, 41, 20
3, 123120, Note_on_c, 0, 41, 0
3, 123120, Note_on_c, 0, 48, 0
3, 123840, Note_on_c, 0, 48, 20
3, 123840, Note_on_c, 0, 41, 20
3, 124080, Note_on_c, 0, 41, 0
3, 124080, Note_on_c, 0, 48, 0
3, 124800, Note_on_c, 0, 41, 20
3, 124800, Note_on_c, 0, 48, 20
3, 125040, Control_c, 0, 64, 127
3, 126720, Note_on_c, 0, 48, 0
3, 126720, Note_on_c, 0, 41, 0
3, 127360, Control_c, 0, 64, 0
3, 127360, End_track
4, 0, Start_track
4, 0, Title_t, "Schubert: Piano sonata in G minor, Op. 143, 2. Movement"
4, 0, End_track
5, 0, Start_track
5, 0, Title_t, "Copyright © 2004 by Bernd Krüger"
5, 0, End_track
6, 0, Start_track
6, 0, Title_t, "http://www.piano-midi.de"
6, 0, End_track
7, 0, Start_track
7, 0, Title_t, "Edition: 2014-03-17"
7, 0, End_track
0, 0, End_of_file
