0, 0, Header, 1, 7, 480
1, 0, Start_track
1, 0, Title_t, "Sechs Moments Musicaux Opus 94 D 780"
1, 0, Title_t, "Nr. 1 in C-Dur"
1, 0, Copyright_t, "Copyright © 1999 by Bernd Krueger"
1, 0, Text_t, "Franz Schubert"
1, 0, Text_t, "Moderato"
1, 0, Text_t, "Erstausgabe: 1.7.99\012"
1, 0, Text_t, "Update: 3.7.99\012"
1, 0, Text_t, "Normierung: 23.12.2002\012"
1, 0, Text_t, "Update: 21.6.2007\012"
1, 0, Text_t, "Update: 16.3.2014 (keine Änderungen)\012"
1, 0, Text_t, "Dauer: 4:30 Minuten\012"
1, 0, SMPTE_offset, 96, 0, 3, 0, 0
1, 0, Time_signature, 3, 2, 24, 8
1, 0, Key_signature, 0, "major"
1, 0, Tempo, 542201
1, 0, Marker_t, "Teil 1"
1, 480, Tempo, 521739
1, 640, Tempo, 504202
1, 960, Tempo, 557103
1, 1280, Tempo, 639250
1, 1440, Tempo, 589565
1, 2880, Tempo, 542201
1, 3520, Tempo, 526316
1, 3840, Tempo, 521739
1, 4320, Tempo, 566038
1, 4560, Tempo, 540541
1, 4800, Tempo, 571429
1, 5040, Tempo, 600000
1, 5280, Tempo, 572902
1, 5760, Tempo, 582524
1, 6000, Tempo, 560748
1, 6240, Tempo, 571429
1, 6480, Tempo, 576923
1, 6720, Tempo, 566038
1, 6960, Tempo, 550459
1, 7200, Tempo, 526316
1, 7440, Tempo, 560748
1, 7680, Tempo, 540541
1, 7920, Tempo, 572902
1, 8160, Tempo, 555556
1, 8400, Tempo, 571429
1, 8880, Tempo, 692361
1, 9120, Tempo, 652955
1, 9840, Tempo, 714456
1, 10080, Tempo, 589565
1, 11520, Tempo, 542201
1, 11520, Marker_t, "Teil 1 :"
1, 12000, Tempo, 526316
1, 12160, Tempo, 526316
1, 12200, Tempo, 508475
1, 12480, Tempo, 557103
1, 12800, Tempo, 639250
1, 12960, Tempo, 589565
1, 14400, Tempo, 542201
1, 15040, Tempo, 526316
1, 15360, Tempo, 526316
1, 15840, Tempo, 571429
1, 16080, Tempo, 540541
1, 16320, Tempo, 576923
1, 16560, Tempo, 594059
1, 16800, Tempo, 572902
1, 17280, Tempo, 582524
1, 17520, Tempo, 560748
1, 17760, Tempo, 571429
1, 18000, Tempo, 560748
1, 18240, Tempo, 571429
1, 18480, Tempo, 555556
1, 18720, Tempo, 526316
1, 18960, Tempo, 571429
1, 19200, Tempo, 540541
1, 19440, Tempo, 572902
1, 19680, Tempo, 560748
1, 20160, Tempo, 571429
1, 20400, Tempo, 688389
1, 20640, Tempo, 652955
1, 21360, Tempo, 714456
1, 21600, Tempo, 589565
1, 23040, Tempo, 562272
1, 23040, Marker_t, "Teil 2"
1, 23520, Tempo, 530973
1, 23840, Tempo, 566038
1, 23980, Tempo, 540541
1, 24320, Tempo, 583885
1, 24480, Tempo, 557103
1, 24960, Tempo, 631579
1, 25280, Tempo, 645995
1, 25440, Tempo, 595356
1, 25920, Tempo, 572902
1, 26400, Tempo, 618557
1, 26640, Tempo, 594059
1, 26880, Tempo, 612245
1, 28320, Tempo, 638298
1, 28800, Tempo, 582524
1, 29220, Tempo, 500000
1, 29280, Tempo, 526316
1, 29440, Tempo, 504202
1, 29600, Tempo, 576923
1, 29760, Tempo, 550459
1, 30000, Tempo, 606061
1, 30240, Tempo, 571429
1, 30660, Tempo, 508475
1, 30720, Tempo, 526316
1, 30880, Tempo, 504202
1, 31040, Tempo, 571429
1, 31200, Tempo, 555556
1, 31240, Tempo, 545455
1, 31440, Tempo, 582524
1, 31680, Tempo, 571429
1, 32100, Tempo, 491803
1, 32160, Tempo, 508475
1, 32480, Tempo, 594059
1, 32520, Tempo, 571429
1, 32640, Tempo, 555556
1, 33060, Tempo, 491803
1, 33120, Tempo, 508475
1, 33440, Tempo, 594059
1, 33600, Tempo, 587947
1, 33840, Tempo, 582524
1, 34080, Tempo, 617347
1, 34560, Tempo, 545455
1, 36000, Tempo, 560748
1, 36240, Tempo, 576923
1, 36480, Tempo, 555556
1, 36720, Tempo, 576923
1, 36960, Tempo, 560748
1, 37200, Tempo, 582524
1, 37440, Tempo, 560748
1, 37680, Tempo, 571429
1, 37920, Tempo, 560748
1, 38160, Tempo, 571429
1, 38400, Tempo, 560748
1, 38640, Tempo, 571429
1, 38880, Tempo, 542201
1, 39840, Tempo, 557103
1, 40160, Tempo, 639250
1, 40320, Tempo, 589565
1, 40560, Tempo, 571429
1, 41040, Tempo, 571429
1, 41520, Tempo, 571429
1, 41760, Tempo, 542201
1, 42400, Tempo, 526316
1, 42720, Tempo, 557103
1, 43040, Tempo, 639250
1, 43200, Tempo, 540541
1, 43840, Tempo, 526316
1, 44160, Tempo, 555556
1, 44400, Tempo, 588235
1, 44640, Tempo, 542201
1, 46080, Tempo, 566038
1, 46320, Tempo, 545455
1, 46560, Tempo, 571429
1, 46800, Tempo, 576923
1, 47040, Tempo, 572902
1, 47520, Tempo, 582524
1, 47760, Tempo, 560748
1, 48000, Tempo, 576923
1, 48240, Tempo, 566038
1, 48480, Tempo, 571429
1, 48720, Tempo, 550459
1, 48960, Tempo, 535714
1, 49200, Tempo, 555556
1, 49440, Tempo, 540541
1, 49680, Tempo, 555556
1, 49920, Tempo, 571429
1, 50640, Tempo, 619643
1, 50880, Tempo, 652955
1, 51600, Tempo, 714456
1, 51840, Tempo, 589565
1, 52800, Tempo, 572902
1, 53280, Tempo, 562272
1, 53280, Marker_t, "Teil 2 :"
1, 53760, Tempo, 542201
1, 54080, Tempo, 566038
1, 54220, Tempo, 540541
1, 54560, Tempo, 583885
1, 54720, Tempo, 557103
1, 55200, Tempo, 631579
1, 55520, Tempo, 645995
1, 55680, Tempo, 595356
1, 56160, Tempo, 572902
1, 56640, Tempo, 618557
1, 56880, Tempo, 582524
1, 57120, Tempo, 612245
1, 58560, Tempo, 638298
1, 59040, Tempo, 582524
1, 59460, Tempo, 504202
1, 59520, Tempo, 530973
1, 59680, Tempo, 504202
1, 59840, Tempo, 594059
1, 60000, Tempo, 555556
1, 60240, Tempo, 652174
1, 60480, Tempo, 576923
1, 60900, Tempo, 504202
1, 60960, Tempo, 530973
1, 61120, Tempo, 504202
1, 61280, Tempo, 600000
1, 61440, Tempo, 540541
1, 61680, Tempo, 612245
1, 61920, Tempo, 576923
1, 62340, Tempo, 495868
1, 62400, Tempo, 504202
1, 62720, Tempo, 617347
1, 62880, Tempo, 566038
1, 63300, Tempo, 487805
1, 63360, Tempo, 512821
1, 63520, Tempo, 495868
1, 63680, Tempo, 582524
1, 63840, Tempo, 566038
1, 64080, Tempo, 576923
1, 64320, Tempo, 617347
1, 64800, Tempo, 545455
1, 66240, Tempo, 560748
1, 66480, Tempo, 576923
1, 66720, Tempo, 555556
1, 66960, Tempo, 571429
1, 67200, Tempo, 560748
1, 67440, Tempo, 582524
1, 67680, Tempo, 560748
1, 67920, Tempo, 571429
1, 68160, Tempo, 560748
1, 68400, Tempo, 571429
1, 68640, Tempo, 560748
1, 68880, Tempo, 571429
1, 69120, Tempo, 542201
1, 69760, Tempo, 521739
1, 70080, Tempo, 557103
1, 70400, Tempo, 639250
1, 70560, Tempo, 589565
1, 70800, Tempo, 571429
1, 71280, Tempo, 571429
1, 71760, Tempo, 571429
1, 72000, Tempo, 542201
1, 72640, Tempo, 526316
1, 72960, Tempo, 557103
1, 73280, Tempo, 639250
1, 73440, Tempo, 540541
1, 74080, Tempo, 526316
1, 74400, Tempo, 555556
1, 74640, Tempo, 588235
1, 74880, Tempo, 542201
1, 76320, Tempo, 571429
1, 76560, Tempo, 550459
1, 76800, Tempo, 576923
1, 77040, Tempo, 588235
1, 77280, Tempo, 572902
1, 77760, Tempo, 600000
1, 78000, Tempo, 547096
1, 78240, Tempo, 576923
1, 78480, Tempo, 571429
1, 78720, Tempo, 566038
1, 78960, Tempo, 555556
1, 79200, Tempo, 537394
1, 79440, Tempo, 555556
1, 79680, Tempo, 540541
1, 79920, Tempo, 572902
1, 79960, Tempo, 555556
1, 80160, Tempo, 571429
1, 80880, Tempo, 619643
1, 81120, Tempo, 652955
1, 81840, Tempo, 714456
1, 82080, Tempo, 589565
1, 83040, Tempo, 572902
1, 83520, Key_signature, 1, "major"
1, 83520, Tempo, 540541
1, 83520, Marker_t, "Teil 3"
1, 84480, Tempo, 555556
1, 84800, Tempo, 576923
1, 84960, Tempo, 540541
1, 86560, Tempo, 566038
1, 86720, Tempo, 582524
1, 86880, Tempo, 594943
1, 87120, Tempo, 645023
1, 87360, Tempo, 600781
1, 87600, Tempo, 626501
1, 87840, Tempo, 598384
1, 88080, Tempo, 651890
1, 88320, Tempo, 666075
1, 88560, Tempo, 638298
1, 89280, Tempo, 540541
1, 90240, Tempo, 555556
1, 90560, Tempo, 576923
1, 90720, Tempo, 540541
1, 91680, Tempo, 555556
1, 92000, Tempo, 594059
1, 92160, Tempo, 576923
1, 92400, Tempo, 631579
1, 92640, Tempo, 594943
1, 92880, Tempo, 666667
1, 93120, Tempo, 618557
1, 93840, Tempo, 651890
1, 94080, Tempo, 666075
1, 94320, Tempo, 638298
1, 95040, Tempo, 540541
1, 95040, Marker_t, "Teil 3 :"
1, 96000, Tempo, 555556
1, 96320, Tempo, 576923
1, 96480, Tempo, 540541
1, 98080, Tempo, 566038
1, 98240, Tempo, 582524
1, 98400, Tempo, 594943
1, 98640, Tempo, 645023
1, 98880, Tempo, 600781
1, 99120, Tempo, 626501
1, 99360, Tempo, 598384
1, 99600, Tempo, 651890
1, 99840, Tempo, 666075
1, 100080, Tempo, 638298
1, 100800, Tempo, 540541
1, 101760, Tempo, 555556
1, 102080, Tempo, 576923
1, 102240, Tempo, 540541
1, 103200, Tempo, 555556
1, 103520, Tempo, 594059
1, 103680, Tempo, 576923
1, 103920, Tempo, 631579
1, 104160, Tempo, 594943
1, 104400, Tempo, 666667
1, 104640, Tempo, 618557
1, 105360, Tempo, 651890
1, 105600, Tempo, 666075
1, 105840, Tempo, 638298
1, 106560, Tempo, 581283
1, 106560, Marker_t, "Teil 4"
1, 109440, Tempo, 569963
1, 110640, Tempo, 624545
1, 110900, Tempo, 575595
1, 112080, Tempo, 605266
1, 112320, Tempo, 581283
1, 112800, Tempo, 593003
1, 113040, Tempo, 617983
1, 113280, Tempo, 599042
1, 113760, Tempo, 593003
1, 114000, Tempo, 617983
1, 114240, Tempo, 605266
1, 114720, Tempo, 617983
1, 115700, Tempo, 581283
1, 116400, Tempo, 617983
1, 116640, Tempo, 581283
1, 119280, Tempo, 631247
1, 119520, Tempo, 581283
1, 120720, Tempo, 645161
1, 120960, Tempo, 611558
1, 121440, Tempo, 631247
1, 122400, Tempo, 617983
1, 123360, Tempo, 593003
1, 123840, Tempo, 564493
1, 125280, Tempo, 540541
1, 126240, Tempo, 555556
1, 126560, Tempo, 576923
1, 126720, Tempo, 540541
1, 128320, Tempo, 566038
1, 128480, Tempo, 582524
1, 128640, Tempo, 594943
1, 128880, Tempo, 645023
1, 129120, Tempo, 600781
1, 129840, Tempo, 651890
1, 130080, Tempo, 666075
1, 130320, Tempo, 638298
1, 131040, Tempo, 540541
1, 132000, Tempo, 555556
1, 132320, Tempo, 576923
1, 132480, Tempo, 540541
1, 133440, Tempo, 555556
1, 133760, Tempo, 594059
1, 133920, Tempo, 576923
1, 134160, Tempo, 631579
1, 134400, Tempo, 594943
1, 134640, Tempo, 666667
1, 134880, Tempo, 618557
1, 135600, Tempo, 651890
1, 135840, Tempo, 666075
1, 136080, Tempo, 638298
1, 136800, Tempo, 581283
1, 136800, Marker_t, "Teil 4 :"
1, 139680, Tempo, 569963
1, 140880, Tempo, 624545
1, 141140, Tempo, 575595
1, 142320, Tempo, 605266
1, 142560, Tempo, 581283
1, 143040, Tempo, 593003
1, 143280, Tempo, 617983
1, 143520, Tempo, 599042
1, 144000, Tempo, 593003
1, 144240, Tempo, 617983
1, 144480, Tempo, 605266
1, 144960, Tempo, 617983
1, 145940, Tempo, 581283
1, 146640, Tempo, 617983
1, 146880, Tempo, 581283
1, 149520, Tempo, 631247
1, 149760, Tempo, 581283
1, 150960, Tempo, 645161
1, 151200, Tempo, 611558
1, 151680, Tempo, 631247
1, 152640, Tempo, 617983
1, 153600, Tempo, 593003
1, 154080, Tempo, 564493
1, 155520, Tempo, 540541
1, 156480, Tempo, 555556
1, 156800, Tempo, 576923
1, 156960, Tempo, 540541
1, 158560, Tempo, 566038
1, 158720, Tempo, 582524
1, 158880, Tempo, 594943
1, 159120, Tempo, 645023
1, 159360, Tempo, 600781
1, 160080, Tempo, 651890
1, 160320, Tempo, 666075
1, 160560, Tempo, 638298
1, 161280, Tempo, 540541
1, 162240, Tempo, 555556
1, 162560, Tempo, 576923
1, 162720, Tempo, 540541
1, 163680, Tempo, 555556
1, 164000, Tempo, 594059
1, 164160, Tempo, 576923
1, 164400, Tempo, 631579
1, 164640, Tempo, 594943
1, 164880, Tempo, 666667
1, 165120, Tempo, 618557
1, 165840, Tempo, 651890
1, 166080, Tempo, 666075
1, 166320, Tempo, 638298
1, 167040, Tempo, 581283
1, 167040, Marker_t, "Teil 5"
1, 168480, Tempo, 581283
1, 169680, Tempo, 612245
1, 169920, Tempo, 581283
1, 171360, Tempo, 581283
1, 172560, Tempo, 606061
1, 172800, Tempo, 600000
1, 174240, Tempo, 594059
1, 174680, Tempo, 582524
1, 175440, Tempo, 612245
1, 175680, Tempo, 652174
1, 175920, Tempo, 638298
1, 176040, Tempo, 645161
1, 176120, Tempo, 652174
1, 176240, Tempo, 659341
1, 176320, Tempo, 666667
1, 176440, Tempo, 674157
1, 176520, Tempo, 681818
1, 176640, Tempo, 759494
1, 176880, Tempo, 833333
1, 177120, Tempo, 882353
1, 177600, Tempo, 833333
1, 178560, Key_signature, 0, "major"
1, 178560, Tempo, 542201
1, 178560, Marker_t, "Teil 1"
1, 179040, Tempo, 526316
1, 179200, Tempo, 508475
1, 179520, Tempo, 557103
1, 179840, Tempo, 639250
1, 180000, Tempo, 589565
1, 181440, Tempo, 542201
1, 182400, Tempo, 530973
1, 182880, Tempo, 576923
1, 183120, Tempo, 550459
1, 183360, Tempo, 571429
1, 183600, Tempo, 588235
1, 183840, Tempo, 572902
1, 184320, Tempo, 582524
1, 184560, Tempo, 560748
1, 184800, Tempo, 566038
1, 185040, Tempo, 571429
1, 185280, Tempo, 571429
1, 185520, Tempo, 550459
1, 185760, Tempo, 537394
1, 186000, Tempo, 555556
1, 186240, Tempo, 552029
1, 186480, Tempo, 572902
1, 186720, Tempo, 555556
1, 186960, Tempo, 571429
1, 187440, Tempo, 704556
1, 187680, Tempo, 652955
1, 188400, Tempo, 714456
1, 188640, Tempo, 589565
1, 190080, Tempo, 562272
1, 190080, Marker_t, "Teil 2"
1, 190560, Tempo, 542201
1, 190880, Tempo, 566038
1, 191020, Tempo, 540541
1, 191360, Tempo, 583885
1, 191520, Tempo, 557103
1, 192000, Tempo, 631579
1, 192320, Tempo, 645995
1, 192480, Tempo, 595356
1, 192960, Tempo, 572902
1, 193440, Tempo, 625000
1, 193680, Tempo, 582524
1, 193920, Tempo, 612245
1, 195360, Tempo, 638298
1, 195840, Tempo, 582524
1, 196260, Tempo, 504202
1, 196320, Tempo, 526316
1, 196480, Tempo, 508475
1, 196640, Tempo, 594059
1, 196800, Tempo, 550459
1, 197040, Tempo, 652174
1, 197280, Tempo, 566038
1, 197700, Tempo, 504202
1, 197760, Tempo, 521739
1, 197920, Tempo, 504202
1, 198080, Tempo, 582524
1, 198240, Tempo, 545455
1, 198480, Tempo, 612245
1, 198720, Tempo, 566038
1, 199140, Tempo, 500000
1, 199200, Tempo, 512821
1, 199360, Tempo, 495868
1, 199520, Tempo, 617347
1, 199680, Tempo, 566038
1, 200100, Tempo, 500000
1, 200160, Tempo, 504202
1, 200320, Tempo, 495868
1, 200480, Tempo, 576923
1, 200640, Tempo, 560748
1, 200880, Tempo, 594059
1, 201120, Tempo, 617347
1, 201600, Tempo, 545455
1, 203040, Tempo, 560748
1, 203280, Tempo, 582524
1, 203520, Tempo, 555556
1, 203760, Tempo, 571429
1, 204000, Tempo, 560748
1, 204240, Tempo, 571429
1, 204480, Tempo, 560748
1, 204720, Tempo, 571429
1, 204960, Tempo, 560748
1, 205200, Tempo, 571429
1, 205440, Tempo, 560748
1, 205680, Tempo, 571429
1, 205920, Tempo, 542201
1, 206880, Tempo, 557103
1, 207200, Tempo, 639250
1, 207360, Tempo, 589565
1, 207600, Tempo, 571429
1, 208080, Tempo, 571429
1, 208560, Tempo, 571429
1, 208800, Tempo, 542201
1, 209440, Tempo, 526316
1, 209760, Tempo, 557103
1, 210080, Tempo, 639250
1, 210240, Tempo, 540541
1, 211200, Tempo, 555556
1, 211440, Tempo, 588235
1, 211680, Tempo, 542201
1, 213120, Tempo, 571429
1, 213360, Tempo, 540541
1, 213600, Tempo, 566038
1, 213840, Tempo, 588235
1, 214080, Tempo, 572902
1, 214560, Tempo, 582524
1, 214800, Tempo, 566038
1, 215040, Tempo, 588235
1, 215280, Tempo, 576923
1, 215520, Tempo, 566038
1, 215760, Tempo, 545455
1, 216000, Tempo, 535714
1, 216240, Tempo, 571429
1, 216480, Tempo, 555556
1, 216720, Tempo, 572902
1, 217200, Tempo, 588235
1, 217680, Tempo, 619643
1, 217920, Tempo, 722892
1, 218640, Tempo, 740741
1, 218880, Tempo, 589565
1, 218880, End_track
2, 0, Start_track
2, 0, Title_t, "Piano right"
2, 0, Program_c, 0, 0
2, 0, Control_c, 0, 7, 100
2, 0, Control_c, 0, 10, 64
2, 0, Control_c, 0, 91, 127
2, 0, Text_t, "bdca426d104a26ac9dcb070447587523"
2, 1, Note_on_c, 0, 67, 60
2, 420, Note_on_c, 0, 69, 50
2, 421, Note_on_c, 0, 67, 0
2, 480, Note_on_c, 0, 69, 0
2, 480, Note_on_c, 0, 67, 60
2, 640, Note_on_c, 0, 67, 0
2, 640, Note_on_c, 0, 64, 57
2, 800, Note_on_c, 0, 64, 0
2, 800, Note_on_c, 0, 60, 53
2, 960, Note_on_c, 0, 60, 0
2, 960, Note_on_c, 0, 67, 60
2, 1320, Note_on_c, 0, 67, 0
2, 1320, Note_on_c, 0, 76, 56
2, 1440, Note_on_c, 0, 76, 0
2, 1440, Note_on_c, 0, 76, 60
2, 2400, Note_on_c, 0, 76, 0
2, 2400, Note_on_c, 0, 72, 44
2, 2640, Note_on_c, 0, 72, 0
2, 2880, Note_on_c, 0, 67, 59
2, 3300, Note_on_c, 0, 67, 0
2, 3300, Note_on_c, 0, 65, 50
2, 3360, Note_on_c, 0, 65, 0
2, 3360, Note_on_c, 0, 64, 60
2, 3520, Note_on_c, 0, 64, 0
2, 3520, Note_on_c, 0, 60, 56
2, 3680, Note_on_c, 0, 60, 0
2, 3680, Note_on_c, 0, 55, 52
2, 3840, Note_on_c, 0, 55, 0
2, 3840, Note_on_c, 0, 60, 60
2, 4000, Note_on_c, 0, 60, 0
2, 4000, Note_on_c, 0, 64, 57
2, 4160, Note_on_c, 0, 64, 0
2, 4160, Note_on_c, 0, 67, 54
2, 4320, Note_on_c, 0, 67, 0
2, 4320, Note_on_c, 0, 55, 56
2, 4320, Note_on_c, 0, 64, 56
2, 4320, Note_on_c, 0, 67, 56
2, 4440, Note_on_c, 0, 67, 0
2, 4440, Note_on_c, 0, 64, 0
2, 4440, Note_on_c, 0, 55, 0
2, 4560, Note_on_c, 0, 65, 53
2, 4560, Note_on_c, 0, 62, 53
2, 4560, Note_on_c, 0, 55, 53
2, 4680, Note_on_c, 0, 55, 0
2, 4680, Note_on_c, 0, 62, 0
2, 4680, Note_on_c, 0, 65, 0
2, 4800, Note_on_c, 0, 55, 56
2, 4800, Note_on_c, 0, 60, 56
2, 4800, Note_on_c, 0, 64, 56
2, 4890, Note_on_c, 0, 64, 0
2, 4890, Note_on_c, 0, 60, 0
2, 4890, Note_on_c, 0, 55, 0
2, 5040, Note_on_c, 0, 59, 50
2, 5040, Note_on_c, 0, 55, 50
2, 5040, Note_on_c, 0, 62, 50
2, 5130, Note_on_c, 0, 62, 0
2, 5130, Note_on_c, 0, 55, 0
2, 5130, Note_on_c, 0, 59, 0
2, 5280, Note_on_c, 0, 55, 56
2, 5280, Note_on_c, 0, 64, 56
2, 5280, Note_on_c, 0, 60, 56
2, 5370, Note_on_c, 0, 60, 0
2, 5370, Note_on_c, 0, 64, 0
2, 5370, Note_on_c, 0, 55, 0
2, 5760, Note_on_c, 0, 55, 41
2, 5760, Note_on_c, 0, 63, 41
2, 5760, Note_on_c, 0, 67, 41
2, 5880, Note_on_c, 0, 67, 0
2, 5880, Note_on_c, 0, 63, 0
2, 5880, Note_on_c, 0, 55, 0
2, 6000, Note_on_c, 0, 65, 37
2, 6000, Note_on_c, 0, 55, 37
2, 6000, Note_on_c, 0, 62, 37
2, 6120, Note_on_c, 0, 62, 0
2, 6120, Note_on_c, 0, 55, 0
2, 6120, Note_on_c, 0, 65, 0
2, 6240, Note_on_c, 0, 55, 41
2, 6240, Note_on_c, 0, 60, 41
2, 6240, Note_on_c, 0, 63, 41
2, 6330, Note_on_c, 0, 63, 0
2, 6330, Note_on_c, 0, 60, 0
2, 6330, Note_on_c, 0, 55, 0
2, 6480, Note_on_c, 0, 62, 38
2, 6480, Note_on_c, 0, 55, 38
2, 6480, Note_on_c, 0, 59, 38
2, 6570, Note_on_c, 0, 59, 0
2, 6570, Note_on_c, 0, 55, 0
2, 6570, Note_on_c, 0, 62, 0
2, 6720, Note_on_c, 0, 55, 43
2, 6720, Note_on_c, 0, 60, 43
2, 6720, Note_on_c, 0, 63, 43
2, 6810, Note_on_c, 0, 63, 0
2, 6810, Note_on_c, 0, 60, 0
2, 6810, Note_on_c, 0, 55, 0
2, 6960, Note_on_c, 0, 65, 38
2, 6960, Note_on_c, 0, 58, 38
2, 6960, Note_on_c, 0, 62, 38
2, 7050, Note_on_c, 0, 62, 0
2, 7050, Note_on_c, 0, 58, 0
2, 7050, Note_on_c, 0, 65, 0
2, 7200, Note_on_c, 0, 58, 53
2, 7200, Note_on_c, 0, 62, 53
2, 7200, Note_on_c, 0, 65, 53
2, 7440, Note_on_c, 0, 65, 0
2, 7440, Note_on_c, 0, 62, 0
2, 7440, Note_on_c, 0, 58, 0
2, 7440, Note_on_c, 0, 63, 49
2, 7440, Note_on_c, 0, 58, 49
2, 7440, Note_on_c, 0, 67, 49
2, 7620, Note_on_c, 0, 67, 0
2, 7620, Note_on_c, 0, 58, 0
2, 7620, Note_on_c, 0, 63, 0
2, 7680, Note_on_c, 0, 58, 58
2, 7680, Note_on_c, 0, 67, 58
2, 7680, Note_on_c, 0, 63, 58
2, 7920, Note_on_c, 0, 63, 0
2, 7920, Note_on_c, 0, 67, 0
2, 7920, Note_on_c, 0, 58, 0
2, 7920, Note_on_c, 0, 62, 53
2, 7920, Note_on_c, 0, 66, 53
2, 7920, Note_on_c, 0, 69, 53
2, 8100, Note_on_c, 0, 69, 0
2, 8100, Note_on_c, 0, 66, 0
2, 8100, Note_on_c, 0, 62, 0
2, 8160, Note_on_c, 0, 69, 63
2, 8160, Note_on_c, 0, 66, 63
2, 8160, Note_on_c, 0, 62, 63
2, 8400, Note_on_c, 0, 62, 0
2, 8400, Note_on_c, 0, 66, 0
2, 8400, Note_on_c, 0, 69, 0
2, 8400, Note_on_c, 0, 62, 58
2, 8400, Note_on_c, 0, 67, 58
2, 8400, Note_on_c, 0, 70, 58
2, 8580, Note_on_c, 0, 70, 0
2, 8580, Note_on_c, 0, 67, 0
2, 8580, Note_on_c, 0, 62, 0
2, 8640, Note_on_c, 0, 70, 68
2, 8640, Note_on_c, 0, 62, 68
2, 8640, Note_on_c, 0, 67, 68
2, 8880, Note_on_c, 0, 67, 0
2, 8880, Note_on_c, 0, 62, 0
2, 8880, Note_on_c, 0, 70, 0
2, 8880, Note_on_c, 0, 62, 66
2, 8880, Note_on_c, 0, 67, 66
2, 8880, Note_on_c, 0, 71, 66
2, 9120, Note_on_c, 0, 71, 0
2, 9120, Note_on_c, 0, 67, 0
2, 9120, Note_on_c, 0, 62, 0
2, 9120, Note_on_c, 0, 67, 71
2, 9120, Note_on_c, 0, 62, 71
2, 9120, Note_on_c, 0, 71, 71
2, 9840, Note_on_c, 0, 71, 0
2, 9840, Note_on_c, 0, 62, 0
2, 9840, Note_on_c, 0, 67, 0
2, 9840, Note_on_c, 0, 65, 54
2, 9840, Note_on_c, 0, 77, 54
2, 9840, Note_on_c, 0, 71, 54
2, 10080, Note_on_c, 0, 71, 0
2, 10080, Note_on_c, 0, 77, 0
2, 10080, Note_on_c, 0, 65, 0
2, 10080, Note_on_c, 0, 64, 54
2, 10080, Note_on_c, 0, 72, 54
2, 10080, Note_on_c, 0, 76, 54
2, 11520, Note_on_c, 0, 76, 0
2, 11520, Note_on_c, 0, 72, 0
2, 11520, Note_on_c, 0, 64, 0
2, 11520, Control_c, 0, 91, 127
2, 11520, Note_on_c, 0, 67, 60
2, 11940, Note_on_c, 0, 67, 0
2, 11940, Note_on_c, 0, 69, 50
2, 12000, Note_on_c, 0, 69, 0
2, 12000, Note_on_c, 0, 67, 60
2, 12160, Note_on_c, 0, 67, 0
2, 12160, Note_on_c, 0, 64, 57
2, 12320, Note_on_c, 0, 64, 0
2, 12320, Note_on_c, 0, 60, 53
2, 12480, Note_on_c, 0, 60, 0
2, 12480, Note_on_c, 0, 67, 60
2, 12840, Note_on_c, 0, 67, 0
2, 12840, Note_on_c, 0, 76, 56
2, 12960, Note_on_c, 0, 76, 0
2, 12960, Note_on_c, 0, 76, 60
2, 13920, Note_on_c, 0, 76, 0
2, 13920, Note_on_c, 0, 72, 44
2, 14160, Note_on_c, 0, 72, 0
2, 14400, Note_on_c, 0, 67, 59
2, 14820, Note_on_c, 0, 67, 0
2, 14820, Note_on_c, 0, 65, 50
2, 14880, Note_on_c, 0, 65, 0
2, 14880, Note_on_c, 0, 64, 60
2, 15040, Note_on_c, 0, 64, 0
2, 15040, Note_on_c, 0, 60, 56
2, 15200, Note_on_c, 0, 60, 0
2, 15200, Note_on_c, 0, 55, 52
2, 15360, Note_on_c, 0, 55, 0
2, 15360, Note_on_c, 0, 60, 60
2, 15520, Note_on_c, 0, 60, 0
2, 15520, Note_on_c, 0, 64, 57
2, 15680, Note_on_c, 0, 64, 0
2, 15680, Note_on_c, 0, 67, 57
2, 15840, Note_on_c, 0, 67, 0
2, 15840, Note_on_c, 0, 55, 56
2, 15840, Note_on_c, 0, 64, 56
2, 15840, Note_on_c, 0, 67, 56
2, 15960, Note_on_c, 0, 67, 0
2, 15960, Note_on_c, 0, 64, 0
2, 15960, Note_on_c, 0, 55, 0
2, 16080, Note_on_c, 0, 55, 53
2, 16080, Note_on_c, 0, 62, 53
2, 16080, Note_on_c, 0, 65, 53
2, 16200, Note_on_c, 0, 65, 0
2, 16200, Note_on_c, 0, 62, 0
2, 16200, Note_on_c, 0, 55, 0
2, 16320, Note_on_c, 0, 55, 56
2, 16320, Note_on_c, 0, 60, 56
2, 16320, Note_on_c, 0, 64, 56
2, 16410, Note_on_c, 0, 64, 0
2, 16410, Note_on_c, 0, 60, 0
2, 16410, Note_on_c, 0, 55, 0
2, 16560, Note_on_c, 0, 55, 50
2, 16560, Note_on_c, 0, 59, 50
2, 16560, Note_on_c, 0, 62, 50
2, 16650, Note_on_c, 0, 62, 0
2, 16650, Note_on_c, 0, 59, 0
2, 16650, Note_on_c, 0, 55, 0
2, 16800, Note_on_c, 0, 55, 56
2, 16800, Note_on_c, 0, 60, 56
2, 16800, Note_on_c, 0, 64, 56
2, 16890, Note_on_c, 0, 64, 0
2, 16890, Note_on_c, 0, 60, 0
2, 16890, Note_on_c, 0, 55, 0
2, 17280, Note_on_c, 0, 55, 41
2, 17280, Note_on_c, 0, 63, 41
2, 17280, Note_on_c, 0, 67, 41
2, 17400, Note_on_c, 0, 67, 0
2, 17400, Note_on_c, 0, 63, 0
2, 17400, Note_on_c, 0, 55, 0
2, 17520, Note_on_c, 0, 55, 37
2, 17520, Note_on_c, 0, 62, 37
2, 17520, Note_on_c, 0, 65, 37
2, 17640, Note_on_c, 0, 65, 0
2, 17640, Note_on_c, 0, 62, 0
2, 17640, Note_on_c, 0, 55, 0
2, 17760, Note_on_c, 0, 55, 41
2, 17760, Note_on_c, 0, 60, 41
2, 17760, Note_on_c, 0, 63, 41
2, 17850, Note_on_c, 0, 63, 0
2, 17850, Note_on_c, 0, 60, 0
2, 17850, Note_on_c, 0, 55, 0
2, 18000, Note_on_c, 0, 55, 38
2, 18000, Note_on_c, 0, 59, 38
2, 18000, Note_on_c, 0, 62, 38
2, 18090, Note_on_c, 0, 62, 0
2, 18090, Note_on_c, 0, 59, 0
2, 18090, Note_on_c, 0, 55, 0
2, 18240, Note_on_c, 0, 55, 45
2, 18240, Note_on_c, 0, 60, 45
2, 18240, Note_on_c, 0, 63, 45
2, 18330, Note_on_c, 0, 63, 0
2, 18330, Note_on_c, 0, 60, 0
2, 18330, Note_on_c, 0, 55, 0
2, 18480, Note_on_c, 0, 58, 41
2, 18480, Note_on_c, 0, 62, 41
2, 18480, Note_on_c, 0, 65, 41
2, 18600, Note_on_c, 0, 65, 0
2, 18600, Note_on_c, 0, 62, 0
2, 18600, Note_on_c, 0, 58, 0
2, 18720, Note_on_c, 0, 58, 51
2, 18720, Note_on_c, 0, 62, 51
2, 18720, Note_on_c, 0, 65, 51
2, 18960, Note_on_c, 0, 65, 0
2, 18960, Note_on_c, 0, 62, 0
2, 18960, Note_on_c, 0, 58, 0
2, 18960, Note_on_c, 0, 58, 48
2, 18960, Note_on_c, 0, 63, 48
2, 18960, Note_on_c, 0, 67, 48
2, 19140, Note_on_c, 0, 67, 0
2, 19140, Note_on_c, 0, 63, 0
2, 19140, Note_on_c, 0, 58, 0
2, 19200, Note_on_c, 0, 58, 57
2, 19200, Note_on_c, 0, 63, 57
2, 19200, Note_on_c, 0, 67, 57
2, 19440, Note_on_c, 0, 67, 0
2, 19440, Note_on_c, 0, 63, 0
2, 19440, Note_on_c, 0, 58, 0
2, 19440, Note_on_c, 0, 62, 54
2, 19440, Note_on_c, 0, 66, 54
2, 19440, Note_on_c, 0, 69, 54
2, 19620, Note_on_c, 0, 69, 0
2, 19620, Note_on_c, 0, 66, 0
2, 19620, Note_on_c, 0, 62, 0
2, 19680, Note_on_c, 0, 62, 64
2, 19680, Note_on_c, 0, 66, 64
2, 19680, Note_on_c, 0, 69, 64
2, 19920, Note_on_c, 0, 69, 0
2, 19920, Note_on_c, 0, 66, 0
2, 19920, Note_on_c, 0, 62, 0
2, 19920, Note_on_c, 0, 62, 57
2, 19920, Note_on_c, 0, 67, 57
2, 19920, Note_on_c, 0, 70, 57
2, 20100, Note_on_c, 0, 70, 0
2, 20100, Note_on_c, 0, 67, 0
2, 20100, Note_on_c, 0, 62, 0
2, 20160, Note_on_c, 0, 62, 66
2, 20160, Note_on_c, 0, 67, 66
2, 20160, Note_on_c, 0, 70, 66
2, 20400, Note_on_c, 0, 70, 0
2, 20400, Note_on_c, 0, 67, 0
2, 20400, Note_on_c, 0, 62, 0
2, 20400, Note_on_c, 0, 62, 66
2, 20400, Note_on_c, 0, 67, 66
2, 20400, Note_on_c, 0, 71, 66
2, 20640, Note_on_c, 0, 71, 0
2, 20640, Note_on_c, 0, 67, 0
2, 20640, Note_on_c, 0, 62, 0
2, 20640, Note_on_c, 0, 62, 69
2, 20640, Note_on_c, 0, 67, 69
2, 20640, Note_on_c, 0, 71, 69
2, 21360, Note_on_c, 0, 71, 0
2, 21360, Note_on_c, 0, 67, 0
2, 21360, Note_on_c, 0, 62, 0
2, 21360, Note_on_c, 0, 65, 54
2, 21360, Note_on_c, 0, 71, 54
2, 21360, Note_on_c, 0, 77, 54
2, 21600, Note_on_c, 0, 77, 0
2, 21600, Note_on_c, 0, 71, 0
2, 21600, Note_on_c, 0, 65, 0
2, 21600, Note_on_c, 0, 64, 54
2, 21600, Note_on_c, 0, 72, 54
2, 21600, Note_on_c, 0, 76, 54
2, 23040, Note_on_c, 0, 76, 0
2, 23040, Note_on_c, 0, 72, 0
2, 23040, Note_on_c, 0, 64, 0
2, 23040, Note_on_c, 0, 76, 54
2, 23460, Note_on_c, 0, 76, 0
2, 23460, Note_on_c, 0, 77, 44
2, 23520, Note_on_c, 0, 77, 0
2, 23520, Note_on_c, 0, 76, 54
2, 23680, Note_on_c, 0, 76, 0
2, 23680, Note_on_c, 0, 72, 50
2, 23840, Note_on_c, 0, 72, 0
2, 23840, Note_on_c, 0, 69, 47
2, 23940, Note_on_c, 0, 69, 0
2, 23940, Note_on_c, 0, 74, 44
2, 24000, Note_on_c, 0, 74, 0
2, 24000, Note_on_c, 0, 72, 54
2, 24160, Note_on_c, 0, 72, 0
2, 24160, Note_on_c, 0, 69, 51
2, 24320, Note_on_c, 0, 69, 0
2, 24320, Note_on_c, 0, 64, 47
2, 24480, Note_on_c, 0, 64, 0
2, 24480, Note_on_c, 0, 64, 54
2, 24480, Note_on_c, 0, 69, 54
2, 24480, Note_on_c, 0, 72, 54
2, 24720, Note_on_c, 0, 72, 0
2, 24720, Note_on_c, 0, 69, 0
2, 24720, Note_on_c, 0, 68, 43
2, 24720, Note_on_c, 0, 71, 51
2, 24960, Note_on_c, 0, 71, 0
2, 24960, Note_on_c, 0, 68, 0
2, 24960, Note_on_c, 0, 64, 0
2, 24960, Note_on_c, 0, 68, 45
2, 24960, Note_on_c, 0, 64, 45
2, 24960, Note_on_c, 0, 71, 54
2, 25200, Note_on_c, 0, 71, 0
2, 25200, Note_on_c, 0, 64, 0
2, 25200, Note_on_c, 0, 68, 0
2, 25200, Note_on_c, 0, 66, 43
2, 25200, Note_on_c, 0, 64, 43
2, 25200, Note_on_c, 0, 69, 51
2, 25440, Note_on_c, 0, 69, 0
2, 25440, Note_on_c, 0, 64, 0
2, 25440, Note_on_c, 0, 66, 0
2, 25440, Note_on_c, 0, 64, 45
2, 25440, Note_on_c, 0, 68, 45
2, 25440, Note_on_c, 0, 71, 54
2, 25920, Note_on_c, 0, 71, 0
2, 25920, Note_on_c, 0, 68, 0
2, 25920, Note_on_c, 0, 64, 0
2, 25920, Note_on_c, 0, 64, 45
2, 25920, Note_on_c, 0, 67, 45
2, 25920, Note_on_c, 0, 72, 54
2, 26160, Note_on_c, 0, 72, 0
2, 26160, Note_on_c, 0, 71, 51
2, 26400, Note_on_c, 0, 71, 0
2, 26400, Note_on_c, 0, 67, 0
2, 26400, Note_on_c, 0, 64, 0
2, 26400, Note_on_c, 0, 64, 45
2, 26400, Note_on_c, 0, 67, 45
2, 26400, Note_on_c, 0, 71, 54
2, 26640, Note_on_c, 0, 71, 0
2, 26640, Note_on_c, 0, 67, 0
2, 26640, Note_on_c, 0, 64, 0
2, 26640, Note_on_c, 0, 64, 44
2, 26640, Note_on_c, 0, 67, 44
2, 26640, Note_on_c, 0, 72, 52
2, 26880, Note_on_c, 0, 72, 0
2, 26880, Note_on_c, 0, 67, 0
2, 26880, Note_on_c, 0, 64, 0
2, 26880, Note_on_c, 0, 67, 45
2, 26880, Note_on_c, 0, 71, 54
2, 27120, Note_on_c, 0, 71, 0
2, 27120, Note_on_c, 0, 77, 53
2, 27360, Note_on_c, 0, 77, 0
2, 27360, Note_on_c, 0, 67, 0
2, 27360, Note_on_c, 0, 76, 54
2, 27780, Note_on_c, 0, 76, 0
2, 27780, Note_on_c, 0, 74, 43
2, 27840, Note_on_c, 0, 74, 0
2, 27840, Note_on_c, 0, 72, 53
2, 28000, Note_on_c, 0, 72, 0
2, 28000, Note_on_c, 0, 71, 51
2, 28160, Note_on_c, 0, 71, 0
2, 28160, Note_on_c, 0, 69, 52
2, 28320, Note_on_c, 0, 69, 0
2, 28320, Note_on_c, 0, 71, 55
2, 28800, Note_on_c, 0, 71, 0
2, 28800, Note_on_c, 0, 71, 68
2, 29220, Note_on_c, 0, 71, 0
2, 29220, Note_on_c, 0, 72, 58
2, 29280, Note_on_c, 0, 72, 0
2, 29280, Note_on_c, 0, 71, 68
2, 29440, Note_on_c, 0, 71, 0
2, 29440, Note_on_c, 0, 67, 66
2, 29600, Note_on_c, 0, 67, 0
2, 29600, Note_on_c, 0, 64, 64
2, 29720, Note_on_c, 0, 64, 0
2, 29760, Note_on_c, 0, 79, 82
2, 30000, Note_on_c, 0, 79, 0
2, 30000, Note_on_c, 0, 76, 72
2, 30090, Note_on_c, 0, 76, 0
2, 30240, Note_on_c, 0, 71, 70
2, 30660, Note_on_c, 0, 71, 0
2, 30660, Note_on_c, 0, 72, 60
2, 30720, Note_on_c, 0, 72, 0
2, 30720, Note_on_c, 0, 71, 71
2, 30880, Note_on_c, 0, 71, 0
2, 30880, Note_on_c, 0, 67, 69
2, 31040, Note_on_c, 0, 67, 0
2, 31040, Note_on_c, 0, 64, 66
2, 31160, Note_on_c, 0, 64, 0
2, 31200, Note_on_c, 0, 79, 85
2, 31440, Note_on_c, 0, 79, 0
2, 31440, Note_on_c, 0, 76, 74
2, 31530, Note_on_c, 0, 76, 0
2, 31680, Note_on_c, 0, 83, 90
2, 31680, Note_on_c, 0, 75, 90
2, 31680, Note_on_c, 0, 78, 90
2, 31920, Note_on_c, 0, 78, 0
2, 31920, Note_on_c, 0, 75, 0
2, 31920, Note_on_c, 0, 83, 0
2, 31920, Note_on_c, 0, 71, 87
2, 32010, Note_on_c, 0, 71, 0
2, 32100, Note_on_c, 0, 81, 70
2, 32160, Note_on_c, 0, 81, 0
2, 32160, Note_on_c, 0, 79, 87
2, 32320, Note_on_c, 0, 79, 0
2, 32320, Note_on_c, 0, 78, 83
2, 32480, Note_on_c, 0, 78, 0
2, 32480, Note_on_c, 0, 76, 78
2, 32640, Note_on_c, 0, 76, 0
2, 32640, Note_on_c, 0, 83, 93
2, 32640, Note_on_c, 0, 75, 93
2, 32640, Note_on_c, 0, 78, 93
2, 32880, Note_on_c, 0, 78, 0
2, 32880, Note_on_c, 0, 75, 0
2, 32880, Note_on_c, 0, 83, 0
2, 32880, Note_on_c, 0, 71, 86
2, 32970, Note_on_c, 0, 71, 0
2, 33060, Note_on_c, 0, 81, 74
2, 33120, Note_on_c, 0, 81, 0
2, 33120, Note_on_c, 0, 79, 89
2, 33280, Note_on_c, 0, 79, 0
2, 33280, Note_on_c, 0, 78, 85
2, 33440, Note_on_c, 0, 78, 0
2, 33440, Note_on_c, 0, 76, 82
2, 33600, Note_on_c, 0, 76, 0
2, 33600, Note_on_c, 0, 83, 95
2, 33600, Note_on_c, 0, 75, 95
2, 33600, Note_on_c, 0, 78, 95
2, 33840, Note_on_c, 0, 78, 0
2, 33840, Note_on_c, 0, 75, 0
2, 33840, Note_on_c, 0, 83, 0
2, 33840, Note_on_c, 0, 71, 89
2, 33930, Note_on_c, 0, 71, 0
2, 34080, Note_on_c, 0, 95, 117
2, 34320, Note_on_c, 0, 95, 0
2, 34320, Note_on_c, 0, 83, 93
2, 34410, Note_on_c, 0, 83, 0
2, 36000, Note_on_c, 0, 79, 45
2, 36240, Note_on_c, 0, 79, 0
2, 36240, Note_on_c, 0, 76, 30
2, 36360, Note_on_c, 0, 76, 0
2, 36480, Note_on_c, 0, 79, 43
2, 36720, Note_on_c, 0, 79, 0
2, 36720, Note_on_c, 0, 76, 31
2, 36840, Note_on_c, 0, 76, 0
2, 36960, Note_on_c, 0, 79, 42
2, 37200, Note_on_c, 0, 79, 0
2, 37200, Note_on_c, 0, 76, 31
2, 37320, Note_on_c, 0, 76, 0
2, 37440, Note_on_c, 0, 79, 41
2, 37680, Note_on_c, 0, 79, 0
2, 37680, Note_on_c, 0, 76, 29
2, 37800, Note_on_c, 0, 76, 0
2, 37920, Note_on_c, 0, 79, 38
2, 38160, Note_on_c, 0, 79, 0
2, 38160, Note_on_c, 0, 76, 27
2, 38280, Note_on_c, 0, 76, 0
2, 38400, Note_on_c, 0, 79, 37
2, 38640, Note_on_c, 0, 79, 0
2, 38640, Note_on_c, 0, 76, 26
2, 38760, Note_on_c, 0, 76, 0
2, 38880, Note_on_c, 0, 79, 36
2, 38880, Note_on_c, 0, 76, 36
2, 39120, Note_on_c, 0, 76, 0
2, 39120, Note_on_c, 0, 79, 0
2, 39120, Note_on_c, 0, 67, 27
2, 39240, Note_on_c, 0, 67, 0
2, 39360, Note_on_c, 0, 76, 36
2, 39360, Note_on_c, 0, 79, 36
2, 39600, Note_on_c, 0, 79, 0
2, 39600, Note_on_c, 0, 76, 0
2, 39600, Note_on_c, 0, 67, 27
2, 39720, Note_on_c, 0, 67, 0
2, 39840, Note_on_c, 0, 76, 36
2, 39840, Note_on_c, 0, 79, 36
2, 40080, Note_on_c, 0, 79, 0
2, 40080, Note_on_c, 0, 76, 0
2, 40080, Note_on_c, 0, 67, 27
2, 40200, Note_on_c, 0, 67, 0
2, 40320, Note_on_c, 0, 76, 38
2, 40320, Note_on_c, 0, 79, 38
2, 40560, Note_on_c, 0, 79, 0
2, 40560, Note_on_c, 0, 76, 0
2, 40560, Note_on_c, 0, 67, 29
2, 40680, Note_on_c, 0, 67, 0
2, 40800, Note_on_c, 0, 76, 38
2, 40800, Note_on_c, 0, 79, 38
2, 41040, Note_on_c, 0, 79, 0
2, 41040, Note_on_c, 0, 76, 0
2, 41040, Note_on_c, 0, 67, 27
2, 41160, Note_on_c, 0, 67, 0
2, 41280, Note_on_c, 0, 76, 34
2, 41280, Note_on_c, 0, 79, 34
2, 41520, Note_on_c, 0, 79, 0
2, 41520, Note_on_c, 0, 76, 0
2, 41520, Note_on_c, 0, 67, 26
2, 41640, Note_on_c, 0, 67, 0
2, 41760, Note_on_c, 0, 67, 51
2, 42180, Note_on_c, 0, 67, 0
2, 42180, Note_on_c, 0, 69, 48
2, 42240, Note_on_c, 0, 69, 0
2, 42240, Note_on_c, 0, 67, 57
2, 42400, Note_on_c, 0, 67, 0
2, 42400, Note_on_c, 0, 64, 53
2, 42560, Note_on_c, 0, 64, 0
2, 42560, Note_on_c, 0, 60, 46
2, 42720, Note_on_c, 0, 60, 0
2, 42720, Note_on_c, 0, 67, 57
2, 43080, Note_on_c, 0, 67, 0
2, 43080, Note_on_c, 0, 76, 52
2, 43200, Note_on_c, 0, 76, 0
2, 43200, Note_on_c, 0, 76, 57
2, 44160, Note_on_c, 0, 76, 0
2, 44160, Note_on_c, 0, 72, 35
2, 44400, Note_on_c, 0, 72, 0
2, 44640, Note_on_c, 0, 79, 72
2, 45060, Note_on_c, 0, 79, 0
2, 45060, Note_on_c, 0, 77, 56
2, 45120, Note_on_c, 0, 77, 0
2, 45120, Note_on_c, 0, 76, 68
2, 45280, Note_on_c, 0, 76, 0
2, 45280, Note_on_c, 0, 72, 63
2, 45440, Note_on_c, 0, 72, 0
2, 45440, Note_on_c, 0, 67, 59
2, 45600, Note_on_c, 0, 67, 0
2, 45600, Note_on_c, 0, 72, 69
2, 45760, Note_on_c, 0, 72, 0
2, 45760, Note_on_c, 0, 76, 65
2, 45920, Note_on_c, 0, 76, 0
2, 45920, Note_on_c, 0, 79, 61
2, 46080, Note_on_c, 0, 79, 0
2, 46080, Note_on_c, 0, 67, 70
2, 46080, Note_on_c, 0, 76, 70
2, 46080, Note_on_c, 0, 79, 70
2, 46200, Note_on_c, 0, 79, 0
2, 46200, Note_on_c, 0, 76, 0
2, 46200, Note_on_c, 0, 67, 0
2, 46320, Note_on_c, 0, 67, 66
2, 46320, Note_on_c, 0, 74, 66
2, 46320, Note_on_c, 0, 77, 66
2, 46440, Note_on_c, 0, 77, 0
2, 46440, Note_on_c, 0, 74, 0
2, 46440, Note_on_c, 0, 67, 0
2, 46560, Note_on_c, 0, 67, 70
2, 46560, Note_on_c, 0, 72, 70
2, 46560, Note_on_c, 0, 76, 70
2, 46650, Note_on_c, 0, 76, 0
2, 46650, Note_on_c, 0, 72, 0
2, 46650, Note_on_c, 0, 67, 0
2, 46800, Note_on_c, 0, 67, 63
2, 46800, Note_on_c, 0, 71, 63
2, 46800, Note_on_c, 0, 74, 63
2, 46890, Note_on_c, 0, 74, 0
2, 46890, Note_on_c, 0, 71, 0
2, 46890, Note_on_c, 0, 67, 0
2, 47040, Note_on_c, 0, 67, 70
2, 47040, Note_on_c, 0, 72, 70
2, 47040, Note_on_c, 0, 76, 70
2, 47130, Note_on_c, 0, 76, 0
2, 47130, Note_on_c, 0, 72, 0
2, 47130, Note_on_c, 0, 67, 0
2, 47520, Note_on_c, 0, 67, 45
2, 47760, Note_on_c, 0, 67, 0
2, 47760, Note_on_c, 0, 69, 41
2, 47880, Note_on_c, 0, 69, 0
2, 47880, Note_on_c, 0, 71, 41
2, 48000, Note_on_c, 0, 71, 0
2, 48000, Note_on_c, 0, 72, 45
2, 48090, Note_on_c, 0, 72, 0
2, 48240, Note_on_c, 0, 67, 39
2, 48330, Note_on_c, 0, 67, 0
2, 48480, Note_on_c, 0, 72, 48
2, 48570, Note_on_c, 0, 72, 0
2, 48720, Note_on_c, 0, 70, 67
2, 48720, Note_on_c, 0, 82, 67
2, 48840, Note_on_c, 0, 82, 0
2, 48840, Note_on_c, 0, 70, 0
2, 48960, Note_on_c, 0, 70, 68
2, 48960, Note_on_c, 0, 82, 68
2, 49080, Note_on_c, 0, 82, 0
2, 49080, Note_on_c, 0, 70, 0
2, 49200, Note_on_c, 0, 87, 73
2, 49200, Note_on_c, 0, 75, 73
2, 49320, Note_on_c, 0, 75, 0
2, 49320, Note_on_c, 0, 87, 0
2, 49440, Note_on_c, 0, 87, 78
2, 49440, Note_on_c, 0, 75, 78
2, 49560, Note_on_c, 0, 75, 0
2, 49560, Note_on_c, 0, 87, 0
2, 49680, Note_on_c, 0, 86, 74
2, 49680, Note_on_c, 0, 74, 74
2, 49800, Note_on_c, 0, 74, 0
2, 49800, Note_on_c, 0, 86, 0
2, 49920, Note_on_c, 0, 74, 81
2, 49920, Note_on_c, 0, 86, 81
2, 50040, Note_on_c, 0, 86, 0
2, 50040, Note_on_c, 0, 74, 0
2, 50160, Note_on_c, 0, 91, 79
2, 50160, Note_on_c, 0, 79, 79
2, 50280, Note_on_c, 0, 79, 0
2, 50280, Note_on_c, 0, 91, 0
2, 50400, Note_on_c, 0, 79, 83
2, 50400, Note_on_c, 0, 91, 83
2, 50520, Note_on_c, 0, 91, 0
2, 50520, Note_on_c, 0, 79, 0
2, 50640, Note_on_c, 0, 89, 70
2, 50640, Note_on_c, 0, 77, 70
2, 50760, Note_on_c, 0, 77, 0
2, 50760, Note_on_c, 0, 89, 0
2, 50880, Note_on_c, 0, 89, 66
2, 50880, Note_on_c, 0, 77, 66
2, 51600, Note_on_c, 0, 77, 0
2, 51600, Note_on_c, 0, 89, 0
2, 51600, Note_on_c, 0, 71, 50
2, 51600, Note_on_c, 0, 83, 50
2, 51840, Note_on_c, 0, 83, 0
2, 51840, Note_on_c, 0, 71, 0
2, 51840, Note_on_c, 0, 84, 45
2, 51840, Note_on_c, 0, 72, 45
2, 53280, Note_on_c, 0, 72, 0
2, 53280, Note_on_c, 0, 84, 0
2, 53280, Note_on_c, 0, 76, 54
2, 53700, Note_on_c, 0, 76, 0
2, 53700, Note_on_c, 0, 77, 44
2, 53760, Note_on_c, 0, 77, 0
2, 53760, Note_on_c, 0, 76, 54
2, 53920, Note_on_c, 0, 76, 0
2, 53920, Note_on_c, 0, 72, 50
2, 54080, Note_on_c, 0, 72, 0
2, 54080, Note_on_c, 0, 69, 47
2, 54180, Note_on_c, 0, 69, 0
2, 54180, Note_on_c, 0, 74, 44
2, 54240, Note_on_c, 0, 74, 0
2, 54240, Note_on_c, 0, 72, 54
2, 54400, Note_on_c, 0, 72, 0
2, 54400, Note_on_c, 0, 69, 51
2, 54560, Note_on_c, 0, 69, 0
2, 54560, Note_on_c, 0, 64, 47
2, 54720, Note_on_c, 0, 64, 0
2, 54720, Note_on_c, 0, 64, 45
2, 54720, Note_on_c, 0, 69, 45
2, 54720, Note_on_c, 0, 72, 54
2, 54960, Note_on_c, 0, 72, 0
2, 54960, Note_on_c, 0, 69, 0
2, 54960, Note_on_c, 0, 68, 43
2, 54960, Note_on_c, 0, 71, 51
2, 55200, Note_on_c, 0, 71, 0
2, 55200, Note_on_c, 0, 68, 0
2, 55200, Note_on_c, 0, 64, 0
2, 55200, Note_on_c, 0, 68, 45
2, 55200, Note_on_c, 0, 64, 45
2, 55200, Note_on_c, 0, 71, 54
2, 55440, Note_on_c, 0, 71, 0
2, 55440, Note_on_c, 0, 64, 0
2, 55440, Note_on_c, 0, 68, 0
2, 55440, Note_on_c, 0, 66, 43
2, 55440, Note_on_c, 0, 64, 43
2, 55440, Note_on_c, 0, 69, 51
2, 55680, Note_on_c, 0, 69, 0
2, 55680, Note_on_c, 0, 64, 0
2, 55680, Note_on_c, 0, 66, 0
2, 55680, Note_on_c, 0, 64, 45
2, 55680, Note_on_c, 0, 68, 45
2, 55680, Note_on_c, 0, 71, 54
2, 56160, Note_on_c, 0, 71, 0
2, 56160, Note_on_c, 0, 68, 0
2, 56160, Note_on_c, 0, 64, 0
2, 56160, Note_on_c, 0, 64, 45
2, 56160, Note_on_c, 0, 67, 45
2, 56160, Note_on_c, 0, 72, 54
2, 56400, Note_on_c, 0, 72, 0
2, 56400, Note_on_c, 0, 71, 51
2, 56640, Note_on_c, 0, 71, 0
2, 56640, Note_on_c, 0, 67, 0
2, 56640, Note_on_c, 0, 64, 0
2, 56640, Note_on_c, 0, 64, 45
2, 56640, Note_on_c, 0, 67, 45
2, 56640, Note_on_c, 0, 71, 54
2, 56880, Note_on_c, 0, 71, 0
2, 56880, Note_on_c, 0, 67, 0
2, 56880, Note_on_c, 0, 64, 0
2, 56880, Note_on_c, 0, 64, 44
2, 56880, Note_on_c, 0, 67, 44
2, 56880, Note_on_c, 0, 72, 52
2, 57120, Note_on_c, 0, 72, 0
2, 57120, Note_on_c, 0, 67, 0
2, 57120, Note_on_c, 0, 64, 0
2, 57120, Note_on_c, 0, 67, 45
2, 57120, Note_on_c, 0, 71, 54
2, 57360, Note_on_c, 0, 71, 0
2, 57360, Note_on_c, 0, 77, 53
2, 57600, Note_on_c, 0, 77, 0
2, 57600, Note_on_c, 0, 67, 0
2, 57600, Note_on_c, 0, 76, 54
2, 58020, Note_on_c, 0, 76, 0
2, 58020, Note_on_c, 0, 74, 43
2, 58080, Note_on_c, 0, 74, 0
2, 58080, Note_on_c, 0, 72, 53
2, 58240, Note_on_c, 0, 72, 0
2, 58240, Note_on_c, 0, 71, 51
2, 58400, Note_on_c, 0, 71, 0
2, 58400, Note_on_c, 0, 69, 52
2, 58560, Note_on_c, 0, 69, 0
2, 58560, Note_on_c, 0, 71, 55
2, 59040, Note_on_c, 0, 71, 0
2, 59040, Note_on_c, 0, 71, 68
2, 59460, Note_on_c, 0, 71, 0
2, 59460, Note_on_c, 0, 72, 58
2, 59520, Note_on_c, 0, 72, 0
2, 59520, Note_on_c, 0, 71, 68
2, 59680, Note_on_c, 0, 71, 0
2, 59680, Note_on_c, 0, 67, 66
2, 59840, Note_on_c, 0, 67, 0
2, 59840, Note_on_c, 0, 64, 64
2, 59960, Note_on_c, 0, 64, 0
2, 60000, Note_on_c, 0, 79, 82
2, 60240, Note_on_c, 0, 79, 0
2, 60240, Note_on_c, 0, 76, 72
2, 60330, Note_on_c, 0, 76, 0
2, 60480, Note_on_c, 0, 71, 70
2, 60900, Note_on_c, 0, 71, 0
2, 60900, Note_on_c, 0, 72, 56
2, 60960, Note_on_c, 0, 72, 0
2, 60960, Note_on_c, 0, 71, 71
2, 61120, Note_on_c, 0, 71, 0
2, 61120, Note_on_c, 0, 67, 69
2, 61280, Note_on_c, 0, 67, 0
2, 61280, Note_on_c, 0, 64, 66
2, 61400, Note_on_c, 0, 64, 0
2, 61440, Note_on_c, 0, 79, 85
2, 61680, Note_on_c, 0, 79, 0
2, 61680, Note_on_c, 0, 76, 74
2, 61770, Note_on_c, 0, 76, 0
2, 61920, Note_on_c, 0, 83, 90
2, 61920, Note_on_c, 0, 75, 90
2, 61920, Note_on_c, 0, 78, 90
2, 62160, Note_on_c, 0, 78, 0
2, 62160, Note_on_c, 0, 75, 0
2, 62160, Note_on_c, 0, 83, 0
2, 62160, Note_on_c, 0, 71, 87
2, 62250, Note_on_c, 0, 71, 0
2, 62340, Note_on_c, 0, 81, 71
2, 62400, Note_on_c, 0, 81, 0
2, 62400, Note_on_c, 0, 79, 87
2, 62560, Note_on_c, 0, 79, 0
2, 62560, Note_on_c, 0, 78, 83
2, 62720, Note_on_c, 0, 78, 0
2, 62720, Note_on_c, 0, 76, 78
2, 62880, Note_on_c, 0, 76, 0
2, 62880, Note_on_c, 0, 83, 93
2, 62880, Note_on_c, 0, 75, 93
2, 62880, Note_on_c, 0, 78, 93
2, 63120, Note_on_c, 0, 78, 0
2, 63120, Note_on_c, 0, 75, 0
2, 63120, Note_on_c, 0, 83, 0
2, 63120, Note_on_c, 0, 71, 86
2, 63210, Note_on_c, 0, 71, 0
2, 63300, Note_on_c, 0, 81, 74
2, 63360, Note_on_c, 0, 81, 0
2, 63360, Note_on_c, 0, 79, 89
2, 63520, Note_on_c, 0, 79, 0
2, 63520, Note_on_c, 0, 78, 85
2, 63680, Note_on_c, 0, 78, 0
2, 63680, Note_on_c, 0, 76, 82
2, 63840, Note_on_c, 0, 76, 0
2, 63840, Note_on_c, 0, 83, 95
2, 63840, Note_on_c, 0, 75, 95
2, 63840, Note_on_c, 0, 78, 95
2, 64080, Note_on_c, 0, 78, 0
2, 64080, Note_on_c, 0, 75, 0
2, 64080, Note_on_c, 0, 83, 0
2, 64080, Note_on_c, 0, 71, 89
2, 64170, Note_on_c, 0, 71, 0
2, 64320, Note_on_c, 0, 95, 114
2, 64560, Note_on_c, 0, 95, 0
2, 64560, Note_on_c, 0, 83, 93
2, 64650, Note_on_c, 0, 83, 0
2, 66240, Note_on_c, 0, 79, 45
2, 66480, Note_on_c, 0, 79, 0
2, 66480, Note_on_c, 0, 76, 30
2, 66600, Note_on_c, 0, 76, 0
2, 66720, Note_on_c, 0, 79, 43
2, 66960, Note_on_c, 0, 79, 0
2, 66960, Note_on_c, 0, 76, 31
2, 67080, Note_on_c, 0, 76, 0
2, 67200, Note_on_c, 0, 79, 42
2, 67440, Note_on_c, 0, 79, 0
2, 67440, Note_on_c, 0, 76, 31
2, 67560, Note_on_c, 0, 76, 0
2, 67680, Note_on_c, 0, 79, 41
2, 67920, Note_on_c, 0, 79, 0
2, 67920, Note_on_c, 0, 76, 29
2, 68040, Note_on_c, 0, 76, 0
2, 68160, Note_on_c, 0, 79, 38
2, 68400, Note_on_c, 0, 79, 0
2, 68400, Note_on_c, 0, 76, 27
2, 68520, Note_on_c, 0, 76, 0
2, 68640, Note_on_c, 0, 79, 37
2, 68880, Note_on_c, 0, 79, 0
2, 68880, Note_on_c, 0, 76, 26
2, 69000, Note_on_c, 0, 76, 0
2, 69120, Note_on_c, 0, 79, 36
2, 69120, Note_on_c, 0, 76, 36
2, 69360, Note_on_c, 0, 76, 0
2, 69360, Note_on_c, 0, 79, 0
2, 69360, Note_on_c, 0, 67, 27
2, 69480, Note_on_c, 0, 67, 0
2, 69600, Note_on_c, 0, 76, 36
2, 69600, Note_on_c, 0, 79, 36
2, 69840, Note_on_c, 0, 79, 0
2, 69840, Note_on_c, 0, 76, 0
2, 69840, Note_on_c, 0, 67, 27
2, 69960, Note_on_c, 0, 67, 0
2, 70080, Note_on_c, 0, 76, 36
2, 70080, Note_on_c, 0, 79, 36
2, 70320, Note_on_c, 0, 79, 0
2, 70320, Note_on_c, 0, 76, 0
2, 70320, Note_on_c, 0, 67, 27
2, 70440, Note_on_c, 0, 67, 0
2, 70560, Note_on_c, 0, 76, 38
2, 70560, Note_on_c, 0, 79, 38
2, 70800, Note_on_c, 0, 79, 0
2, 70800, Note_on_c, 0, 76, 0
2, 70800, Note_on_c, 0, 67, 29
2, 70920, Note_on_c, 0, 67, 0
2, 71040, Note_on_c, 0, 76, 38
2, 71040, Note_on_c, 0, 79, 38
2, 71280, Note_on_c, 0, 79, 0
2, 71280, Note_on_c, 0, 76, 0
2, 71280, Note_on_c, 0, 67, 27
2, 71400, Note_on_c, 0, 67, 0
2, 71520, Note_on_c, 0, 76, 34
2, 71520, Note_on_c, 0, 79, 34
2, 71760, Note_on_c, 0, 79, 0
2, 71760, Note_on_c, 0, 76, 0
2, 71760, Note_on_c, 0, 67, 26
2, 71880, Note_on_c, 0, 67, 0
2, 72000, Note_on_c, 0, 67, 51
2, 72420, Note_on_c, 0, 67, 0
2, 72420, Note_on_c, 0, 69, 48
2, 72480, Note_on_c, 0, 69, 0
2, 72480, Note_on_c, 0, 67, 57
2, 72640, Note_on_c, 0, 67, 0
2, 72640, Note_on_c, 0, 64, 53
2, 72800, Note_on_c, 0, 64, 0
2, 72800, Note_on_c, 0, 60, 46
2, 72960, Note_on_c, 0, 60, 0
2, 72960, Note_on_c, 0, 67, 57
2, 73320, Note_on_c, 0, 67, 0
2, 73320, Note_on_c, 0, 76, 52
2, 73440, Note_on_c, 0, 76, 0
2, 73440, Note_on_c, 0, 76, 57
2, 74400, Note_on_c, 0, 76, 0
2, 74400, Note_on_c, 0, 72, 35
2, 74640, Note_on_c, 0, 72, 0
2, 74880, Note_on_c, 0, 79, 72
2, 75300, Note_on_c, 0, 79, 0
2, 75300, Note_on_c, 0, 77, 56
2, 75360, Note_on_c, 0, 77, 0
2, 75360, Note_on_c, 0, 76, 68
2, 75520, Note_on_c, 0, 76, 0
2, 75520, Note_on_c, 0, 72, 63
2, 75680, Note_on_c, 0, 72, 0
2, 75680, Note_on_c, 0, 67, 59
2, 75840, Note_on_c, 0, 67, 0
2, 75840, Note_on_c, 0, 72, 69
2, 76000, Note_on_c, 0, 72, 0
2, 76000, Note_on_c, 0, 76, 65
2, 76160, Note_on_c, 0, 76, 0
2, 76160, Note_on_c, 0, 79, 61
2, 76320, Note_on_c, 0, 79, 0
2, 76320, Note_on_c, 0, 67, 70
2, 76320, Note_on_c, 0, 76, 70
2, 76320, Note_on_c, 0, 79, 70
2, 76440, Note_on_c, 0, 79, 0
2, 76440, Note_on_c, 0, 76, 0
2, 76440, Note_on_c, 0, 67, 0
2, 76560, Note_on_c, 0, 67, 66
2, 76560, Note_on_c, 0, 74, 66
2, 76560, Note_on_c, 0, 77, 66
2, 76680, Note_on_c, 0, 77, 0
2, 76680, Note_on_c, 0, 74, 0
2, 76680, Note_on_c, 0, 67, 0
2, 76800, Note_on_c, 0, 67, 70
2, 76800, Note_on_c, 0, 72, 70
2, 76800, Note_on_c, 0, 76, 70
2, 76890, Note_on_c, 0, 76, 0
2, 76890, Note_on_c, 0, 72, 0
2, 76890, Note_on_c, 0, 67, 0
2, 77040, Note_on_c, 0, 67, 63
2, 77040, Note_on_c, 0, 71, 63
2, 77040, Note_on_c, 0, 74, 63
2, 77130, Note_on_c, 0, 74, 0
2, 77130, Note_on_c, 0, 71, 0
2, 77130, Note_on_c, 0, 67, 0
2, 77280, Note_on_c, 0, 67, 70
2, 77280, Note_on_c, 0, 72, 70
2, 77280, Note_on_c, 0, 76, 70
2, 77370, Note_on_c, 0, 76, 0
2, 77370, Note_on_c, 0, 72, 0
2, 77370, Note_on_c, 0, 67, 0
2, 77760, Note_on_c, 0, 67, 45
2, 78000, Note_on_c, 0, 67, 0
2, 78000, Note_on_c, 0, 69, 41
2, 78120, Note_on_c, 0, 69, 0
2, 78120, Note_on_c, 0, 71, 41
2, 78240, Note_on_c, 0, 71, 0
2, 78240, Note_on_c, 0, 72, 45
2, 78330, Note_on_c, 0, 72, 0
2, 78480, Note_on_c, 0, 67, 39
2, 78570, Note_on_c, 0, 67, 0
2, 78720, Note_on_c, 0, 72, 48
2, 78810, Note_on_c, 0, 72, 0
2, 78960, Note_on_c, 0, 70, 64
2, 78960, Note_on_c, 0, 82, 64
2, 79080, Note_on_c, 0, 82, 0
2, 79080, Note_on_c, 0, 70, 0
2, 79200, Note_on_c, 0, 70, 66
2, 79200, Note_on_c, 0, 82, 66
2, 79320, Note_on_c, 0, 82, 0
2, 79320, Note_on_c, 0, 70, 0
2, 79440, Note_on_c, 0, 87, 71
2, 79440, Note_on_c, 0, 75, 71
2, 79560, Note_on_c, 0, 75, 0
2, 79560, Note_on_c, 0, 87, 0
2, 79680, Note_on_c, 0, 87, 74
2, 79680, Note_on_c, 0, 75, 74
2, 79800, Note_on_c, 0, 75, 0
2, 79800, Note_on_c, 0, 87, 0
2, 79920, Note_on_c, 0, 86, 70
2, 79920, Note_on_c, 0, 74, 70
2, 80040, Note_on_c, 0, 74, 0
2, 80040, Note_on_c, 0, 86, 0
2, 80160, Note_on_c, 0, 74, 79
2, 80160, Note_on_c, 0, 86, 79
2, 80280, Note_on_c, 0, 86, 0
2, 80280, Note_on_c, 0, 74, 0
2, 80400, Note_on_c, 0, 91, 81
2, 80400, Note_on_c, 0, 79, 81
2, 80520, Note_on_c, 0, 79, 0
2, 80520, Note_on_c, 0, 91, 0
2, 80640, Note_on_c, 0, 79, 85
2, 80640, Note_on_c, 0, 91, 85
2, 80760, Note_on_c, 0, 91, 0
2, 80760, Note_on_c, 0, 79, 0
2, 80880, Note_on_c, 0, 89, 70
2, 80880, Note_on_c, 0, 77, 70
2, 81000, Note_on_c, 0, 77, 0
2, 81000, Note_on_c, 0, 89, 0
2, 81120, Note_on_c, 0, 89, 66
2, 81120, Note_on_c, 0, 77, 66
2, 81840, Note_on_c, 0, 77, 0
2, 81840, Note_on_c, 0, 89, 0
2, 81840, Note_on_c, 0, 71, 50
2, 81840, Note_on_c, 0, 83, 50
2, 82080, Note_on_c, 0, 83, 0
2, 82080, Note_on_c, 0, 71, 0
2, 82080, Note_on_c, 0, 84, 45
2, 82080, Note_on_c, 0, 72, 45
2, 83490, Note_on_c, 0, 72, 0
2, 83490, Note_on_c, 0, 84, 0
2, 83520, Note_on_c, 0, 67, 50
2, 83680, Note_on_c, 0, 67, 0
2, 83680, Note_on_c, 0, 62, 40
2, 83840, Note_on_c, 0, 62, 0
2, 83840, Note_on_c, 0, 59, 34
2, 84000, Note_on_c, 0, 59, 0
2, 84000, Note_on_c, 0, 67, 47
2, 84160, Note_on_c, 0, 67, 0
2, 84160, Note_on_c, 0, 62, 37
2, 84320, Note_on_c, 0, 62, 0
2, 84320, Note_on_c, 0, 59, 32
2, 84480, Note_on_c, 0, 59, 0
2, 84480, Note_on_c, 0, 66, 47
2, 84640, Note_on_c, 0, 66, 0
2, 84640, Note_on_c, 0, 62, 38
2, 84800, Note_on_c, 0, 62, 0
2, 84800, Note_on_c, 0, 57, 33
2, 84960, Note_on_c, 0, 57, 0
2, 84960, Note_on_c, 0, 69, 50
2, 85120, Note_on_c, 0, 69, 0
2, 85120, Note_on_c, 0, 62, 41
2, 85280, Note_on_c, 0, 62, 0
2, 85280, Note_on_c, 0, 60, 33
2, 85440, Note_on_c, 0, 60, 0
2, 85440, Note_on_c, 0, 69, 48
2, 85600, Note_on_c, 0, 69, 0
2, 85600, Note_on_c, 0, 62, 38
2, 85760, Note_on_c, 0, 62, 0
2, 85760, Note_on_c, 0, 60, 30
2, 85920, Note_on_c, 0, 60, 0
2, 85920, Note_on_c, 0, 67, 48
2, 86080, Note_on_c, 0, 67, 0
2, 86080, Note_on_c, 0, 62, 38
2, 86240, Note_on_c, 0, 62, 0
2, 86240, Note_on_c, 0, 59, 31
2, 86400, Note_on_c, 0, 59, 0
2, 86400, Note_on_c, 0, 67, 47
2, 86560, Note_on_c, 0, 67, 0
2, 86560, Note_on_c, 0, 62, 38
2, 86720, Note_on_c, 0, 62, 0
2, 86720, Note_on_c, 0, 59, 31
2, 86880, Note_on_c, 0, 59, 0
2, 86880, Note_on_c, 0, 62, 47
2, 86880, Note_on_c, 0, 66, 47
2, 86880, Note_on_c, 0, 69, 56
2, 87120, Note_on_c, 0, 69, 0
2, 87120, Note_on_c, 0, 66, 0
2, 87120, Note_on_c, 0, 62, 0
2, 87120, Note_on_c, 0, 62, 51
2, 87120, Note_on_c, 0, 67, 51
2, 87120, Note_on_c, 0, 71, 61
2, 87360, Note_on_c, 0, 71, 0
2, 87360, Note_on_c, 0, 67, 0
2, 87360, Note_on_c, 0, 62, 0
2, 87360, Note_on_c, 0, 62, 55
2, 87360, Note_on_c, 0, 69, 55
2, 87360, Note_on_c, 0, 72, 64
2, 87720, Note_on_c, 0, 72, 0
2, 87720, Note_on_c, 0, 69, 0
2, 87720, Note_on_c, 0, 62, 0
2, 87720, Note_on_c, 0, 62, 49
2, 87720, Note_on_c, 0, 67, 49
2, 87720, Note_on_c, 0, 71, 59
2, 87840, Note_on_c, 0, 71, 0
2, 87840, Note_on_c, 0, 67, 0
2, 87840, Note_on_c, 0, 62, 0
2, 87840, Note_on_c, 0, 62, 45
2, 87840, Note_on_c, 0, 67, 45
2, 87840, Note_on_c, 0, 71, 53
2, 88320, Note_on_c, 0, 71, 0
2, 88320, Note_on_c, 0, 67, 0
2, 88320, Note_on_c, 0, 62, 0
2, 88320, Note_on_c, 0, 62, 31
2, 88320, Note_on_c, 0, 66, 31
2, 88320, Note_on_c, 0, 69, 37
2, 88560, Note_on_c, 0, 69, 0
2, 88560, Note_on_c, 0, 66, 0
2, 88560, Note_on_c, 0, 62, 0
2, 88560, Note_on_c, 0, 62, 29
2, 88560, Note_on_c, 0, 64, 29
2, 88560, Note_on_c, 0, 67, 35
2, 88800, Note_on_c, 0, 67, 0
2, 88800, Note_on_c, 0, 64, 0
2, 88800, Note_on_c, 0, 62, 0
2, 88800, Note_on_c, 0, 62, 31
2, 88800, Note_on_c, 0, 66, 31
2, 88800, Note_on_c, 0, 69, 37
2, 89280, Note_on_c, 0, 69, 0
2, 89280, Note_on_c, 0, 66, 0
2, 89280, Note_on_c, 0, 62, 0
2, 89280, Note_on_c, 0, 74, 53
2, 89280, Note_on_c, 0, 67, 50
2, 89440, Note_on_c, 0, 67, 0
2, 89440, Note_on_c, 0, 62, 40
2, 89600, Note_on_c, 0, 62, 0
2, 89600, Note_on_c, 0, 71, 34
2, 89760, Note_on_c, 0, 71, 0
2, 89760, Note_on_c, 0, 67, 47
2, 89920, Note_on_c, 0, 67, 0
2, 89920, Note_on_c, 0, 62, 37
2, 90080, Note_on_c, 0, 62, 0
2, 90080, Note_on_c, 0, 71, 32
2, 90240, Note_on_c, 0, 71, 0
2, 90240, Note_on_c, 0, 66, 47
2, 90400, Note_on_c, 0, 66, 0
2, 90400, Note_on_c, 0, 62, 38
2, 90560, Note_on_c, 0, 62, 0
2, 90560, Note_on_c, 0, 69, 33
2, 90720, Note_on_c, 0, 69, 0
2, 90720, Note_on_c, 0, 74, 0
2, 90720, Note_on_c, 0, 74, 53
2, 90720, Note_on_c, 0, 69, 50
2, 90880, Note_on_c, 0, 69, 0
2, 90880, Note_on_c, 0, 62, 41
2, 91040, Note_on_c, 0, 62, 0
2, 91040, Note_on_c, 0, 72, 33
2, 91200, Note_on_c, 0, 72, 0
2, 91200, Note_on_c, 0, 69, 48
2, 91360, Note_on_c, 0, 69, 0
2, 91360, Note_on_c, 0, 62, 38
2, 91520, Note_on_c, 0, 62, 0
2, 91520, Note_on_c, 0, 72, 30
2, 91680, Note_on_c, 0, 72, 0
2, 91680, Note_on_c, 0, 67, 48
2, 91840, Note_on_c, 0, 67, 0
2, 91840, Note_on_c, 0, 62, 38
2, 92000, Note_on_c, 0, 62, 0
2, 92000, Note_on_c, 0, 71, 31
2, 92160, Note_on_c, 0, 71, 0
2, 92160, Note_on_c, 0, 74, 0
2, 92160, Note_on_c, 0, 62, 70
2, 92400, Note_on_c, 0, 62, 0
2, 92400, Note_on_c, 0, 74, 68
2, 92640, Note_on_c, 0, 74, 0
2, 92640, Note_on_c, 0, 64, 56
2, 92640, Note_on_c, 0, 76, 66
2, 92880, Note_on_c, 0, 76, 0
2, 92880, Note_on_c, 0, 64, 0
2, 92880, Note_on_c, 0, 66, 61
2, 92880, Note_on_c, 0, 78, 72
2, 93120, Note_on_c, 0, 78, 0
2, 93120, Note_on_c, 0, 66, 0
2, 93120, Note_on_c, 0, 67, 69
2, 93120, Note_on_c, 0, 79, 82
2, 93480, Note_on_c, 0, 79, 0
2, 93480, Note_on_c, 0, 67, 0
2, 93480, Note_on_c, 0, 62, 46
2, 93480, Note_on_c, 0, 67, 46
2, 93480, Note_on_c, 0, 71, 55
2, 93600, Note_on_c, 0, 71, 0
2, 93600, Note_on_c, 0, 67, 0
2, 93600, Note_on_c, 0, 62, 0
2, 93600, Note_on_c, 0, 62, 51
2, 93600, Note_on_c, 0, 71, 51
2, 93600, Note_on_c, 0, 74, 61
2, 94080, Note_on_c, 0, 74, 0
2, 94080, Note_on_c, 0, 71, 0
2, 94080, Note_on_c, 0, 62, 0
2, 94080, Note_on_c, 0, 62, 42
2, 94080, Note_on_c, 0, 66, 42
2, 94080, Note_on_c, 0, 72, 50
2, 94440, Note_on_c, 0, 72, 0
2, 94440, Note_on_c, 0, 66, 0
2, 94440, Note_on_c, 0, 62, 0
2, 94440, Note_on_c, 0, 62, 37
2, 94440, Note_on_c, 0, 67, 37
2, 94440, Note_on_c, 0, 71, 44
2, 94560, Note_on_c, 0, 71, 0
2, 94560, Note_on_c, 0, 67, 0
2, 94560, Note_on_c, 0, 62, 0
2, 94560, Note_on_c, 0, 62, 34
2, 94560, Note_on_c, 0, 67, 34
2, 94560, Note_on_c, 0, 71, 41
2, 95040, Note_on_c, 0, 71, 0
2, 95040, Note_on_c, 0, 67, 0
2, 95040, Note_on_c, 0, 62, 0
2, 95040, Note_on_c, 0, 67, 50
2, 95200, Note_on_c, 0, 67, 0
2, 95200, Note_on_c, 0, 62, 40
2, 95360, Note_on_c, 0, 62, 0
2, 95360, Note_on_c, 0, 59, 34
2, 95520, Note_on_c, 0, 59, 0
2, 95520, Note_on_c, 0, 67, 47
2, 95680, Note_on_c, 0, 67, 0
2, 95680, Note_on_c, 0, 62, 37
2, 95840, Note_on_c, 0, 62, 0
2, 95840, Note_on_c, 0, 59, 32
2, 96000, Note_on_c, 0, 59, 0
2, 96000, Note_on_c, 0, 66, 47
2, 96160, Note_on_c, 0, 66, 0
2, 96160, Note_on_c, 0, 62, 38
2, 96320, Note_on_c, 0, 62, 0
2, 96320, Note_on_c, 0, 57, 33
2, 96480, Note_on_c, 0, 57, 0
2, 96480, Note_on_c, 0, 69, 50
2, 96640, Note_on_c, 0, 69, 0
2, 96640, Note_on_c, 0, 62, 41
2, 96800, Note_on_c, 0, 62, 0
2, 96800, Note_on_c, 0, 60, 33
2, 96960, Note_on_c, 0, 60, 0
2, 96960, Note_on_c, 0, 69, 48
2, 97120, Note_on_c, 0, 69, 0
2, 97120, Note_on_c, 0, 62, 38
2, 97280, Note_on_c, 0, 62, 0
2, 97280, Note_on_c, 0, 60, 30
2, 97440, Note_on_c, 0, 60, 0
2, 97440, Note_on_c, 0, 67, 48
2, 97600, Note_on_c, 0, 67, 0
2, 97600, Note_on_c, 0, 62, 38
2, 97760, Note_on_c, 0, 62, 0
2, 97760, Note_on_c, 0, 59, 31
2, 97920, Note_on_c, 0, 59, 0
2, 97920, Note_on_c, 0, 67, 47
2, 98080, Note_on_c, 0, 67, 0
2, 98080, Note_on_c, 0, 62, 38
2, 98240, Note_on_c, 0, 62, 0
2, 98240, Note_on_c, 0, 59, 31
2, 98400, Note_on_c, 0, 59, 0
2, 98400, Note_on_c, 0, 62, 49
2, 98400, Note_on_c, 0, 66, 49
2, 98400, Note_on_c, 0, 69, 59
2, 98640, Note_on_c, 0, 69, 0
2, 98640, Note_on_c, 0, 66, 0
2, 98640, Note_on_c, 0, 62, 0
2, 98640, Note_on_c, 0, 62, 51
2, 98640, Note_on_c, 0, 67, 51
2, 98640, Note_on_c, 0, 71, 61
2, 98880, Note_on_c, 0, 71, 0
2, 98880, Note_on_c, 0, 67, 0
2, 98880, Note_on_c, 0, 62, 0
2, 98880, Note_on_c, 0, 62, 53
2, 98880, Note_on_c, 0, 69, 53
2, 98880, Note_on_c, 0, 72, 63
2, 99240, Note_on_c, 0, 72, 0
2, 99240, Note_on_c, 0, 69, 0
2, 99240, Note_on_c, 0, 62, 0
2, 99240, Note_on_c, 0, 62, 49
2, 99240, Note_on_c, 0, 67, 49
2, 99240, Note_on_c, 0, 71, 59
2, 99360, Note_on_c, 0, 71, 0
2, 99360, Note_on_c, 0, 67, 0
2, 99360, Note_on_c, 0, 62, 0
2, 99360, Note_on_c, 0, 62, 45
2, 99360, Note_on_c, 0, 67, 45
2, 99360, Note_on_c, 0, 71, 53
2, 99840, Note_on_c, 0, 71, 0
2, 99840, Note_on_c, 0, 67, 0
2, 99840, Note_on_c, 0, 62, 0
2, 99840, Note_on_c, 0, 62, 31
2, 99840, Note_on_c, 0, 66, 31
2, 99840, Note_on_c, 0, 69, 37
2, 100080, Note_on_c, 0, 69, 0
2, 100080, Note_on_c, 0, 66, 0
2, 100080, Note_on_c, 0, 62, 0
2, 100080, Note_on_c, 0, 62, 29
2, 100080, Note_on_c, 0, 64, 29
2, 100080, Note_on_c, 0, 67, 29
2, 100320, Note_on_c, 0, 67, 0
2, 100320, Note_on_c, 0, 64, 0
2, 100320, Note_on_c, 0, 62, 0
2, 100320, Note_on_c, 0, 62, 31
2, 100320, Note_on_c, 0, 66, 31
2, 100320, Note_on_c, 0, 69, 37
2, 100800, Note_on_c, 0, 69, 0
2, 100800, Note_on_c, 0, 66, 0
2, 100800, Note_on_c, 0, 62, 0
2, 100800, Note_on_c, 0, 74, 53
2, 100800, Note_on_c, 0, 67, 50
2, 100960, Note_on_c, 0, 67, 0
2, 100960, Note_on_c, 0, 62, 40
2, 101120, Note_on_c, 0, 62, 0
2, 101120, Note_on_c, 0, 71, 34
2, 101280, Note_on_c, 0, 71, 0
2, 101280, Note_on_c, 0, 67, 47
2, 101440, Note_on_c, 0, 67, 0
2, 101440, Note_on_c, 0, 62, 37
2, 101600, Note_on_c, 0, 62, 0
2, 101600, Note_on_c, 0, 71, 32
2, 101760, Note_on_c, 0, 71, 0
2, 101760, Note_on_c, 0, 66, 47
2, 101920, Note_on_c, 0, 66, 0
2, 101920, Note_on_c, 0, 62, 38
2, 102080, Note_on_c, 0, 62, 0
2, 102080, Note_on_c, 0, 69, 33
2, 102240, Note_on_c, 0, 69, 0
2, 102240, Note_on_c, 0, 74, 0
2, 102240, Note_on_c, 0, 74, 53
2, 102240, Note_on_c, 0, 69, 50
2, 102400, Note_on_c, 0, 69, 0
2, 102400, Note_on_c, 0, 62, 41
2, 102560, Note_on_c, 0, 62, 0
2, 102560, Note_on_c, 0, 72, 33
2, 102720, Note_on_c, 0, 72, 0
2, 102720, Note_on_c, 0, 69, 48
2, 102880, Note_on_c, 0, 69, 0
2, 102880, Note_on_c, 0, 62, 38
2, 103040, Note_on_c, 0, 62, 0
2, 103040, Note_on_c, 0, 72, 30
2, 103200, Note_on_c, 0, 72, 0
2, 103200, Note_on_c, 0, 67, 48
2, 103360, Note_on_c, 0, 67, 0
2, 103360, Note_on_c, 0, 62, 38
2, 103520, Note_on_c, 0, 62, 0
2, 103520, Note_on_c, 0, 71, 31
2, 103680, Note_on_c, 0, 71, 0
2, 103680, Note_on_c, 0, 74, 0
2, 103680, Note_on_c, 0, 62, 70
2, 103920, Note_on_c, 0, 62, 0
2, 103920, Note_on_c, 0, 74, 68
2, 104160, Note_on_c, 0, 74, 0
2, 104160, Note_on_c, 0, 64, 56
2, 104160, Note_on_c, 0, 76, 66
2, 104400, Note_on_c, 0, 76, 0
2, 104400, Note_on_c, 0, 64, 0
2, 104400, Note_on_c, 0, 66, 61
2, 104400, Note_on_c, 0, 78, 72
2, 104640, Note_on_c, 0, 78, 0
2, 104640, Note_on_c, 0, 66, 0
2, 104640, Note_on_c, 0, 67, 68
2, 104640, Note_on_c, 0, 79, 81
2, 105000, Note_on_c, 0, 79, 0
2, 105000, Note_on_c, 0, 67, 0
2, 105000, Note_on_c, 0, 62, 46
2, 105000, Note_on_c, 0, 67, 46
2, 105000, Note_on_c, 0, 71, 55
2, 105120, Note_on_c, 0, 71, 0
2, 105120, Note_on_c, 0, 67, 0
2, 105120, Note_on_c, 0, 62, 0
2, 105120, Note_on_c, 0, 62, 51
2, 105120, Note_on_c, 0, 71, 51
2, 105120, Note_on_c, 0, 74, 61
2, 105600, Note_on_c, 0, 74, 0
2, 105600, Note_on_c, 0, 71, 0
2, 105600, Note_on_c, 0, 62, 0
2, 105600, Note_on_c, 0, 62, 42
2, 105600, Note_on_c, 0, 66, 42
2, 105600, Note_on_c, 0, 72, 50
2, 105960, Note_on_c, 0, 72, 0
2, 105960, Note_on_c, 0, 66, 0
2, 105960, Note_on_c, 0, 62, 0
2, 105960, Note_on_c, 0, 62, 37
2, 105960, Note_on_c, 0, 67, 37
2, 105960, Note_on_c, 0, 71, 44
2, 106080, Note_on_c, 0, 71, 0
2, 106080, Note_on_c, 0, 67, 0
2, 106080, Note_on_c, 0, 62, 0
2, 106080, Note_on_c, 0, 62, 34
2, 106080, Note_on_c, 0, 67, 34
2, 106080, Note_on_c, 0, 71, 41
2, 106550, Note_on_c, 0, 71, 0
2, 106550, Note_on_c, 0, 67, 0
2, 106550, Note_on_c, 0, 62, 0
2, 106560, Note_on_c, 0, 57, 37
2, 106560, Note_on_c, 0, 66, 37
2, 106560, Note_on_c, 0, 69, 44
2, 107040, Note_on_c, 0, 69, 0
2, 107040, Note_on_c, 0, 66, 0
2, 107040, Note_on_c, 0, 57, 0
2, 107040, Note_on_c, 0, 57, 32
2, 107040, Note_on_c, 0, 64, 32
2, 107040, Note_on_c, 0, 67, 38
2, 107400, Note_on_c, 0, 67, 0
2, 107400, Note_on_c, 0, 64, 0
2, 107400, Note_on_c, 0, 57, 0
2, 107400, Note_on_c, 0, 57, 30
2, 107400, Note_on_c, 0, 62, 30
2, 107400, Note_on_c, 0, 66, 36
2, 107520, Note_on_c, 0, 66, 0
2, 107520, Note_on_c, 0, 62, 0
2, 107520, Note_on_c, 0, 57, 0
2, 107520, Note_on_c, 0, 57, 32
2, 107520, Note_on_c, 0, 62, 32
2, 107520, Note_on_c, 0, 66, 38
2, 108000, Note_on_c, 0, 66, 0
2, 108000, Note_on_c, 0, 62, 0
2, 108000, Note_on_c, 0, 57, 0
2, 108000, Note_on_c, 0, 66, 37
2, 108000, Note_on_c, 0, 74, 44
2, 108360, Note_on_c, 0, 74, 0
2, 108360, Note_on_c, 0, 66, 0
2, 108360, Note_on_c, 0, 67, 35
2, 108360, Note_on_c, 0, 76, 41
2, 108480, Note_on_c, 0, 76, 0
2, 108480, Note_on_c, 0, 67, 0
2, 108480, Note_on_c, 0, 66, 40
2, 108480, Note_on_c, 0, 74, 48
2, 108960, Note_on_c, 0, 74, 0
2, 108960, Note_on_c, 0, 66, 0
2, 108960, Note_on_c, 0, 69, 37
2, 108960, Note_on_c, 0, 76, 44
2, 109200, Note_on_c, 0, 76, 0
2, 109200, Note_on_c, 0, 69, 0
2, 109440, Note_on_c, 0, 57, 47
2, 109440, Note_on_c, 0, 67, 47
2, 109440, Note_on_c, 0, 71, 56
2, 109920, Note_on_c, 0, 71, 0
2, 109920, Note_on_c, 0, 67, 0
2, 109920, Note_on_c, 0, 57, 0
2, 109920, Note_on_c, 0, 57, 40
2, 109920, Note_on_c, 0, 66, 40
2, 109920, Note_on_c, 0, 69, 48
2, 110280, Note_on_c, 0, 69, 0
2, 110280, Note_on_c, 0, 66, 0
2, 110280, Note_on_c, 0, 57, 0
2, 110280, Note_on_c, 0, 57, 32
2, 110280, Note_on_c, 0, 64, 32
2, 110280, Note_on_c, 0, 67, 38
2, 110400, Note_on_c, 0, 67, 0
2, 110400, Note_on_c, 0, 64, 0
2, 110400, Note_on_c, 0, 57, 0
2, 110400, Note_on_c, 0, 57, 35
2, 110400, Note_on_c, 0, 64, 35
2, 110400, Note_on_c, 0, 67, 42
2, 110880, Note_on_c, 0, 67, 0
2, 110880, Note_on_c, 0, 64, 0
2, 110880, Note_on_c, 0, 57, 0
2, 110880, Note_on_c, 0, 69, 42
2, 110880, Note_on_c, 0, 76, 50
2, 111240, Note_on_c, 0, 76, 0
2, 111240, Note_on_c, 0, 69, 0
2, 111240, Note_on_c, 0, 74, 39
2, 111240, Note_on_c, 0, 78, 47
2, 111360, Note_on_c, 0, 78, 0
2, 111360, Note_on_c, 0, 74, 0
2, 111360, Note_on_c, 0, 69, 44
2, 111360, Note_on_c, 0, 76, 52
2, 111840, Note_on_c, 0, 76, 0
2, 111840, Note_on_c, 0, 69, 0
2, 111840, Note_on_c, 0, 74, 41
2, 111840, Note_on_c, 0, 78, 49
2, 112080, Note_on_c, 0, 78, 0
2, 112080, Note_on_c, 0, 74, 0
2, 112320, Note_on_c, 0, 66, 56
2, 112320, Note_on_c, 0, 74, 67
2, 112800, Note_on_c, 0, 74, 0
2, 112800, Note_on_c, 0, 66, 0
2, 112800, Note_on_c, 0, 69, 38
2, 112800, Note_on_c, 0, 73, 45
2, 113040, Note_on_c, 0, 73, 0
2, 113040, Note_on_c, 0, 69, 0
2, 113040, Note_on_c, 0, 67, 38
2, 113040, Note_on_c, 0, 71, 45
2, 113280, Note_on_c, 0, 71, 0
2, 113280, Note_on_c, 0, 67, 0
2, 113280, Note_on_c, 0, 57, 48
2, 113280, Note_on_c, 0, 66, 48
2, 113280, Note_on_c, 0, 69, 57
2, 113760, Note_on_c, 0, 69, 0
2, 113760, Note_on_c, 0, 66, 0
2, 113760, Note_on_c, 0, 57, 0
2, 113760, Note_on_c, 0, 57, 38
2, 113760, Note_on_c, 0, 64, 38
2, 113760, Note_on_c, 0, 67, 45
2, 114000, Note_on_c, 0, 67, 0
2, 114000, Note_on_c, 0, 64, 0
2, 114000, Note_on_c, 0, 57, 0
2, 114000, Note_on_c, 0, 57, 38
2, 114000, Note_on_c, 0, 62, 38
2, 114000, Note_on_c, 0, 66, 45
2, 114240, Note_on_c, 0, 66, 0
2, 114240, Note_on_c, 0, 62, 0
2, 114240, Note_on_c, 0, 57, 0
2, 114240, Note_on_c, 0, 57, 49
2, 114240, Note_on_c, 0, 67, 49
2, 114240, Note_on_c, 0, 71, 58
2, 114720, Note_on_c, 0, 71, 0
2, 114720, Note_on_c, 0, 67, 0
2, 114720, Note_on_c, 0, 57, 0
2, 114720, Note_on_c, 0, 57, 42
2, 114720, Note_on_c, 0, 66, 42
2, 114720, Note_on_c, 0, 69, 50
2, 114960, Note_on_c, 0, 69, 0
2, 114960, Note_on_c, 0, 66, 0
2, 114960, Note_on_c, 0, 57, 0
2, 114960, Note_on_c, 0, 57, 41
2, 114960, Note_on_c, 0, 64, 41
2, 114960, Note_on_c, 0, 67, 49
2, 115200, Note_on_c, 0, 67, 0
2, 115200, Note_on_c, 0, 64, 0
2, 115200, Note_on_c, 0, 57, 0
2, 115200, Note_on_c, 0, 62, 44
2, 115200, Note_on_c, 0, 66, 52
2, 115440, Note_on_c, 0, 66, 0
2, 115440, Note_on_c, 0, 62, 0
2, 115440, Note_on_c, 0, 57, 40
2, 115440, Note_on_c, 0, 64, 48
2, 115680, Note_on_c, 0, 64, 0
2, 115680, Note_on_c, 0, 57, 0
2, 115680, Note_on_c, 0, 54, 45
2, 115680, Note_on_c, 0, 62, 53
2, 116640, Note_on_c, 0, 62, 0
2, 116640, Note_on_c, 0, 54, 0
2, 116640, Note_on_c, 0, 57, 42
2, 116640, Note_on_c, 0, 66, 42
2, 116640, Note_on_c, 0, 69, 50
2, 117120, Note_on_c, 0, 69, 0
2, 117120, Note_on_c, 0, 66, 0
2, 117120, Note_on_c, 0, 57, 0
2, 117120, Note_on_c, 0, 57, 39
2, 117120, Note_on_c, 0, 64, 39
2, 117120, Note_on_c, 0, 67, 47
2, 117480, Note_on_c, 0, 67, 0
2, 117480, Note_on_c, 0, 64, 0
2, 117480, Note_on_c, 0, 57, 0
2, 117480, Note_on_c, 0, 57, 39
2, 117480, Note_on_c, 0, 62, 39
2, 117480, Note_on_c, 0, 66, 46
2, 117600, Note_on_c, 0, 66, 0
2, 117600, Note_on_c, 0, 62, 0
2, 117600, Note_on_c, 0, 57, 0
2, 117600, Note_on_c, 0, 57, 40
2, 117600, Note_on_c, 0, 62, 40
2, 117600, Note_on_c, 0, 66, 48
2, 118080, Note_on_c, 0, 66, 0
2, 118080, Note_on_c, 0, 62, 0
2, 118080, Note_on_c, 0, 57, 0
2, 118080, Note_on_c, 0, 57, 48
2, 118080, Note_on_c, 0, 66, 48
2, 118080, Note_on_c, 0, 69, 57
2, 118560, Note_on_c, 0, 69, 0
2, 118560, Note_on_c, 0, 66, 0
2, 118560, Note_on_c, 0, 57, 0
2, 118560, Note_on_c, 0, 57, 45
2, 118560, Note_on_c, 0, 64, 45
2, 118560, Note_on_c, 0, 67, 54
2, 118920, Note_on_c, 0, 67, 0
2, 118920, Note_on_c, 0, 64, 0
2, 118920, Note_on_c, 0, 57, 0
2, 118920, Note_on_c, 0, 57, 45
2, 118920, Note_on_c, 0, 62, 45
2, 118920, Note_on_c, 0, 66, 45
2, 119040, Note_on_c, 0, 66, 0
2, 119040, Note_on_c, 0, 62, 0
2, 119040, Note_on_c, 0, 57, 0
2, 119040, Note_on_c, 0, 57, 47
2, 119040, Note_on_c, 0, 62, 47
2, 119040, Note_on_c, 0, 66, 56
2, 119520, Note_on_c, 0, 66, 0
2, 119520, Note_on_c, 0, 62, 0
2, 119520, Note_on_c, 0, 57, 0
2, 119520, Note_on_c, 0, 72, 70
2, 119520, Note_on_c, 0, 62, 59
2, 119520, Note_on_c, 0, 66, 59
2, 120000, Note_on_c, 0, 66, 0
2, 120000, Note_on_c, 0, 62, 0
2, 120000, Note_on_c, 0, 72, 0
2, 120000, Note_on_c, 0, 67, 54
2, 120000, Note_on_c, 0, 62, 54
2, 120000, Note_on_c, 0, 71, 64
2, 120360, Note_on_c, 0, 71, 0
2, 120360, Note_on_c, 0, 62, 0
2, 120360, Note_on_c, 0, 67, 0
2, 120360, Note_on_c, 0, 69, 59
2, 120360, Note_on_c, 0, 62, 50
2, 120360, Note_on_c, 0, 66, 50
2, 120480, Note_on_c, 0, 66, 0
2, 120480, Note_on_c, 0, 62, 0
2, 120480, Note_on_c, 0, 69, 0
2, 120480, Note_on_c, 0, 69, 61
2, 120480, Note_on_c, 0, 62, 51
2, 120480, Note_on_c, 0, 66, 51
2, 120960, Note_on_c, 0, 66, 0
2, 120960, Note_on_c, 0, 62, 0
2, 120960, Note_on_c, 0, 69, 0
2, 120960, Note_on_c, 0, 62, 62
2, 120960, Note_on_c, 0, 72, 62
2, 120960, Note_on_c, 0, 76, 74
2, 121440, Note_on_c, 0, 76, 0
2, 121440, Note_on_c, 0, 72, 0
2, 121440, Note_on_c, 0, 62, 0
2, 121440, Note_on_c, 0, 62, 59
2, 121440, Note_on_c, 0, 71, 59
2, 121440, Note_on_c, 0, 74, 70
2, 121800, Note_on_c, 0, 74, 0
2, 121800, Note_on_c, 0, 71, 0
2, 121800, Note_on_c, 0, 62, 0
2, 121800, Note_on_c, 0, 62, 56
2, 121800, Note_on_c, 0, 69, 56
2, 121800, Note_on_c, 0, 72, 67
2, 121920, Note_on_c, 0, 72, 0
2, 121920, Note_on_c, 0, 69, 0
2, 121920, Note_on_c, 0, 62, 0
2, 121920, Note_on_c, 0, 62, 59
2, 121920, Note_on_c, 0, 72, 70
2, 121920, Note_on_c, 0, 69, 59
2, 122400, Note_on_c, 0, 69, 0
2, 122400, Note_on_c, 0, 72, 0
2, 122400, Note_on_c, 0, 62, 0
2, 122400, Note_on_c, 0, 57, 44
2, 122400, Note_on_c, 0, 62, 44
2, 122400, Note_on_c, 0, 72, 52
2, 122880, Note_on_c, 0, 72, 0
2, 122880, Note_on_c, 0, 62, 0
2, 122880, Note_on_c, 0, 57, 0
2, 122880, Note_on_c, 0, 59, 39
2, 122880, Note_on_c, 0, 62, 39
2, 122880, Note_on_c, 0, 71, 46
2, 123240, Note_on_c, 0, 71, 0
2, 123240, Note_on_c, 0, 62, 0
2, 123240, Note_on_c, 0, 59, 0
2, 123240, Note_on_c, 0, 60, 35
2, 123240, Note_on_c, 0, 62, 35
2, 123240, Note_on_c, 0, 69, 42
2, 123360, Note_on_c, 0, 69, 0
2, 123360, Note_on_c, 0, 62, 0
2, 123360, Note_on_c, 0, 60, 0
2, 123360, Note_on_c, 0, 60, 35
2, 123360, Note_on_c, 0, 62, 35
2, 123360, Note_on_c, 0, 69, 42
2, 125280, Note_on_c, 0, 69, 0
2, 125280, Note_on_c, 0, 62, 0
2, 125280, Note_on_c, 0, 60, 0
2, 125280, Note_on_c, 0, 67, 50
2, 125440, Note_on_c, 0, 67, 0
2, 125440, Note_on_c, 0, 62, 40
2, 125600, Note_on_c, 0, 62, 0
2, 125600, Note_on_c, 0, 58, 34
2, 125760, Note_on_c, 0, 58, 0
2, 125760, Note_on_c, 0, 67, 47
2, 125920, Note_on_c, 0, 67, 0
2, 125920, Note_on_c, 0, 62, 37
2, 126080, Note_on_c, 0, 62, 0
2, 126080, Note_on_c, 0, 58, 32
2, 126240, Note_on_c, 0, 58, 0
2, 126240, Note_on_c, 0, 66, 47
2, 126400, Note_on_c, 0, 66, 0
2, 126400, Note_on_c, 0, 62, 38
2, 126560, Note_on_c, 0, 62, 0
2, 126560, Note_on_c, 0, 57, 33
2, 126720, Note_on_c, 0, 57, 0
2, 126720, Note_on_c, 0, 69, 50
2, 126880, Note_on_c, 0, 69, 0
2, 126880, Note_on_c, 0, 62, 41
2, 127040, Note_on_c, 0, 62, 0
2, 127040, Note_on_c, 0, 60, 33
2, 127200, Note_on_c, 0, 60, 0
2, 127200, Note_on_c, 0, 69, 48
2, 127360, Note_on_c, 0, 69, 0
2, 127360, Note_on_c, 0, 62, 38
2, 127520, Note_on_c, 0, 62, 0
2, 127520, Note_on_c, 0, 60, 30
2, 127680, Note_on_c, 0, 60, 0
2, 127680, Note_on_c, 0, 67, 48
2, 127840, Note_on_c, 0, 67, 0
2, 127840, Note_on_c, 0, 62, 38
2, 128000, Note_on_c, 0, 62, 0
2, 128000, Note_on_c, 0, 58, 31
2, 128160, Note_on_c, 0, 58, 0
2, 128160, Note_on_c, 0, 67, 47
2, 128320, Note_on_c, 0, 67, 0
2, 128320, Note_on_c, 0, 62, 38
2, 128480, Note_on_c, 0, 62, 0
2, 128480, Note_on_c, 0, 58, 31
2, 128640, Note_on_c, 0, 58, 0
2, 128640, Note_on_c, 0, 62, 45
2, 128640, Note_on_c, 0, 66, 45
2, 128640, Note_on_c, 0, 69, 53
2, 128880, Note_on_c, 0, 69, 0
2, 128880, Note_on_c, 0, 66, 0
2, 128880, Note_on_c, 0, 62, 0
2, 128880, Note_on_c, 0, 62, 47
2, 128880, Note_on_c, 0, 67, 47
2, 128880, Note_on_c, 0, 70, 56
2, 129120, Note_on_c, 0, 70, 0
2, 129120, Note_on_c, 0, 67, 0
2, 129120, Note_on_c, 0, 62, 0
2, 129120, Note_on_c, 0, 62, 49
2, 129120, Note_on_c, 0, 69, 49
2, 129120, Note_on_c, 0, 72, 58
2, 129480, Note_on_c, 0, 72, 0
2, 129480, Note_on_c, 0, 69, 0
2, 129480, Note_on_c, 0, 62, 0
2, 129480, Note_on_c, 0, 62, 45
2, 129480, Note_on_c, 0, 67, 45
2, 129480, Note_on_c, 0, 70, 54
2, 129600, Note_on_c, 0, 70, 0
2, 129600, Note_on_c, 0, 67, 0
2, 129600, Note_on_c, 0, 62, 0
2, 129600, Note_on_c, 0, 62, 45
2, 129600, Note_on_c, 0, 67, 45
2, 129600, Note_on_c, 0, 70, 53
2, 130080, Note_on_c, 0, 70, 0
2, 130080, Note_on_c, 0, 67, 0
2, 130080, Note_on_c, 0, 62, 0
2, 130080, Note_on_c, 0, 62, 31
2, 130080, Note_on_c, 0, 66, 31
2, 130080, Note_on_c, 0, 69, 37
2, 130320, Note_on_c, 0, 69, 0
2, 130320, Note_on_c, 0, 66, 0
2, 130320, Note_on_c, 0, 62, 0
2, 130320, Note_on_c, 0, 62, 29
2, 130320, Note_on_c, 0, 64, 29
2, 130320, Note_on_c, 0, 67, 35
2, 130560, Note_on_c, 0, 67, 0
2, 130560, Note_on_c, 0, 64, 0
2, 130560, Note_on_c, 0, 62, 0
2, 130560, Note_on_c, 0, 62, 31
2, 130560, Note_on_c, 0, 66, 31
2, 130560, Note_on_c, 0, 69, 37
2, 131040, Note_on_c, 0, 69, 0
2, 131040, Note_on_c, 0, 66, 0
2, 131040, Note_on_c, 0, 62, 0
2, 131040, Note_on_c, 0, 74, 53
2, 131040, Note_on_c, 0, 67, 50
2, 131200, Note_on_c, 0, 67, 0
2, 131200, Note_on_c, 0, 62, 40
2, 131360, Note_on_c, 0, 62, 0
2, 131360, Note_on_c, 0, 71, 34
2, 131520, Note_on_c, 0, 71, 0
2, 131520, Note_on_c, 0, 67, 47
2, 131680, Note_on_c, 0, 67, 0
2, 131680, Note_on_c, 0, 62, 37
2, 131840, Note_on_c, 0, 62, 0
2, 131840, Note_on_c, 0, 71, 32
2, 132000, Note_on_c, 0, 71, 0
2, 132000, Note_on_c, 0, 66, 47
2, 132160, Note_on_c, 0, 66, 0
2, 132160, Note_on_c, 0, 62, 38
2, 132320, Note_on_c, 0, 62, 0
2, 132320, Note_on_c, 0, 69, 33
2, 132480, Note_on_c, 0, 69, 0
2, 132480, Note_on_c, 0, 74, 0
2, 132480, Note_on_c, 0, 74, 53
2, 132480, Note_on_c, 0, 69, 50
2, 132640, Note_on_c, 0, 69, 0
2, 132640, Note_on_c, 0, 62, 41
2, 132800, Note_on_c, 0, 62, 0
2, 132800, Note_on_c, 0, 72, 33
2, 132960, Note_on_c, 0, 72, 0
2, 132960, Note_on_c, 0, 69, 48
2, 133120, Note_on_c, 0, 69, 0
2, 133120, Note_on_c, 0, 62, 38
2, 133280, Note_on_c, 0, 62, 0
2, 133280, Note_on_c, 0, 72, 30
2, 133440, Note_on_c, 0, 72, 0
2, 133440, Note_on_c, 0, 67, 48
2, 133600, Note_on_c, 0, 67, 0
2, 133600, Note_on_c, 0, 62, 38
2, 133760, Note_on_c, 0, 62, 0
2, 133760, Note_on_c, 0, 71, 31
2, 133920, Note_on_c, 0, 71, 0
2, 133920, Note_on_c, 0, 74, 0
2, 133920, Note_on_c, 0, 62, 70
2, 134160, Note_on_c, 0, 62, 0
2, 134160, Note_on_c, 0, 74, 68
2, 134400, Note_on_c, 0, 74, 0
2, 134400, Note_on_c, 0, 64, 56
2, 134400, Note_on_c, 0, 76, 66
2, 134640, Note_on_c, 0, 76, 0
2, 134640, Note_on_c, 0, 64, 0
2, 134640, Note_on_c, 0, 66, 62
2, 134640, Note_on_c, 0, 78, 74
2, 134880, Note_on_c, 0, 78, 0
2, 134880, Note_on_c, 0, 66, 0
2, 134880, Note_on_c, 0, 67, 70
2, 134880, Note_on_c, 0, 79, 83
2, 135240, Note_on_c, 0, 79, 0
2, 135240, Note_on_c, 0, 67, 0
2, 135240, Note_on_c, 0, 62, 46
2, 135240, Note_on_c, 0, 67, 46
2, 135240, Note_on_c, 0, 71, 55
2, 135360, Note_on_c, 0, 71, 0
2, 135360, Note_on_c, 0, 67, 0
2, 135360, Note_on_c, 0, 62, 0
2, 135360, Note_on_c, 0, 62, 51
2, 135360, Note_on_c, 0, 71, 51
2, 135360, Note_on_c, 0, 74, 61
2, 135840, Note_on_c, 0, 74, 0
2, 135840, Note_on_c, 0, 71, 0
2, 135840, Note_on_c, 0, 62, 0
2, 135840, Note_on_c, 0, 62, 42
2, 135840, Note_on_c, 0, 66, 42
2, 135840, Note_on_c, 0, 72, 50
2, 136200, Note_on_c, 0, 72, 0
2, 136200, Note_on_c, 0, 66, 0
2, 136200, Note_on_c, 0, 62, 0
2, 136200, Note_on_c, 0, 62, 37
2, 136200, Note_on_c, 0, 67, 37
2, 136200, Note_on_c, 0, 71, 44
2, 136320, Note_on_c, 0, 71, 0
2, 136320, Note_on_c, 0, 67, 0
2, 136320, Note_on_c, 0, 62, 0
2, 136320, Note_on_c, 0, 62, 34
2, 136320, Note_on_c, 0, 67, 34
2, 136320, Note_on_c, 0, 71, 41
2, 136800, Note_on_c, 0, 71, 0
2, 136800, Note_on_c, 0, 67, 0
2, 136800, Note_on_c, 0, 62, 0
2, 136800, Note_on_c, 0, 57, 37
2, 136800, Note_on_c, 0, 66, 37
2, 136800, Note_on_c, 0, 69, 44
2, 137280, Note_on_c, 0, 69, 0
2, 137280, Note_on_c, 0, 66, 0
2, 137280, Note_on_c, 0, 57, 0
2, 137280, Note_on_c, 0, 57, 32
2, 137280, Note_on_c, 0, 64, 32
2, 137280, Note_on_c, 0, 67, 38
2, 137640, Note_on_c, 0, 67, 0
2, 137640, Note_on_c, 0, 64, 0
2, 137640, Note_on_c, 0, 57, 0
2, 137640, Note_on_c, 0, 57, 30
2, 137640, Note_on_c, 0, 62, 30
2, 137640, Note_on_c, 0, 66, 36
2, 137760, Note_on_c, 0, 66, 0
2, 137760, Note_on_c, 0, 62, 0
2, 137760, Note_on_c, 0, 57, 0
2, 137760, Note_on_c, 0, 57, 32
2, 137760, Note_on_c, 0, 62, 32
2, 137760, Note_on_c, 0, 66, 38
2, 138240, Note_on_c, 0, 66, 0
2, 138240, Note_on_c, 0, 62, 0
2, 138240, Note_on_c, 0, 57, 0
2, 138240, Note_on_c, 0, 66, 37
2, 138240, Note_on_c, 0, 74, 44
2, 138600, Note_on_c, 0, 74, 0
2, 138600, Note_on_c, 0, 66, 0
2, 138600, Note_on_c, 0, 67, 35
2, 138600, Note_on_c, 0, 76, 41
2, 138720, Note_on_c, 0, 76, 0
2, 138720, Note_on_c, 0, 67, 0
2, 138720, Note_on_c, 0, 66, 40
2, 138720, Note_on_c, 0, 74, 48
2, 139200, Note_on_c, 0, 74, 0
2, 139200, Note_on_c, 0, 66, 0
2, 139200, Note_on_c, 0, 69, 37
2, 139200, Note_on_c, 0, 76, 44
2, 139440, Note_on_c, 0, 76, 0
2, 139440, Note_on_c, 0, 69, 0
2, 139680, Note_on_c, 0, 57, 46
2, 139680, Note_on_c, 0, 67, 46
2, 139680, Note_on_c, 0, 71, 55
2, 140160, Note_on_c, 0, 71, 0
2, 140160, Note_on_c, 0, 67, 0
2, 140160, Note_on_c, 0, 57, 0
2, 140160, Note_on_c, 0, 57, 39
2, 140160, Note_on_c, 0, 66, 39
2, 140160, Note_on_c, 0, 69, 47
2, 140520, Note_on_c, 0, 69, 0
2, 140520, Note_on_c, 0, 66, 0
2, 140520, Note_on_c, 0, 57, 0
2, 140520, Note_on_c, 0, 57, 32
2, 140520, Note_on_c, 0, 64, 32
2, 140520, Note_on_c, 0, 67, 38
2, 140640, Note_on_c, 0, 67, 0
2, 140640, Note_on_c, 0, 64, 0
2, 140640, Note_on_c, 0, 57, 0
2, 140640, Note_on_c, 0, 57, 35
2, 140640, Note_on_c, 0, 64, 35
2, 140640, Note_on_c, 0, 67, 42
2, 141120, Note_on_c, 0, 67, 0
2, 141120, Note_on_c, 0, 64, 0
2, 141120, Note_on_c, 0, 57, 0
2, 141120, Note_on_c, 0, 69, 42
2, 141120, Note_on_c, 0, 76, 50
2, 141480, Note_on_c, 0, 76, 0
2, 141480, Note_on_c, 0, 69, 0
2, 141480, Note_on_c, 0, 74, 39
2, 141480, Note_on_c, 0, 78, 47
2, 141600, Note_on_c, 0, 78, 0
2, 141600, Note_on_c, 0, 74, 0
2, 141600, Note_on_c, 0, 69, 44
2, 141600, Note_on_c, 0, 76, 52
2, 142080, Note_on_c, 0, 76, 0
2, 142080, Note_on_c, 0, 69, 0
2, 142080, Note_on_c, 0, 74, 41
2, 142080, Note_on_c, 0, 78, 49
2, 142320, Note_on_c, 0, 78, 0
2, 142320, Note_on_c, 0, 74, 0
2, 142560, Note_on_c, 0, 66, 51
2, 142560, Note_on_c, 0, 74, 61
2, 143040, Note_on_c, 0, 74, 0
2, 143040, Note_on_c, 0, 66, 0
2, 143040, Note_on_c, 0, 69, 38
2, 143040, Note_on_c, 0, 73, 45
2, 143280, Note_on_c, 0, 73, 0
2, 143280, Note_on_c, 0, 69, 0
2, 143280, Note_on_c, 0, 67, 38
2, 143280, Note_on_c, 0, 71, 45
2, 143520, Note_on_c, 0, 71, 0
2, 143520, Note_on_c, 0, 67, 0
2, 143520, Note_on_c, 0, 57, 48
2, 143520, Note_on_c, 0, 66, 48
2, 143520, Note_on_c, 0, 69, 57
2, 144000, Note_on_c, 0, 69, 0
2, 144000, Note_on_c, 0, 66, 0
2, 144000, Note_on_c, 0, 57, 0
2, 144000, Note_on_c, 0, 57, 38
2, 144000, Note_on_c, 0, 64, 38
2, 144000, Note_on_c, 0, 67, 45
2, 144240, Note_on_c, 0, 67, 0
2, 144240, Note_on_c, 0, 64, 0
2, 144240, Note_on_c, 0, 57, 0
2, 144240, Note_on_c, 0, 57, 38
2, 144240, Note_on_c, 0, 62, 38
2, 144240, Note_on_c, 0, 66, 38
2, 144480, Note_on_c, 0, 66, 0
2, 144480, Note_on_c, 0, 62, 0
2, 144480, Note_on_c, 0, 57, 0
2, 144480, Note_on_c, 0, 57, 49
2, 144480, Note_on_c, 0, 67, 49
2, 144480, Note_on_c, 0, 71, 58
2, 144960, Note_on_c, 0, 71, 0
2, 144960, Note_on_c, 0, 67, 0
2, 144960, Note_on_c, 0, 57, 0
2, 144960, Note_on_c, 0, 57, 42
2, 144960, Note_on_c, 0, 66, 42
2, 144960, Note_on_c, 0, 69, 50
2, 145200, Note_on_c, 0, 69, 0
2, 145200, Note_on_c, 0, 66, 0
2, 145200, Note_on_c, 0, 57, 0
2, 145200, Note_on_c, 0, 57, 41
2, 145200, Note_on_c, 0, 64, 41
2, 145200, Note_on_c, 0, 67, 49
2, 145440, Note_on_c, 0, 67, 0
2, 145440, Note_on_c, 0, 64, 0
2, 145440, Note_on_c, 0, 57, 0
2, 145440, Note_on_c, 0, 62, 44
2, 145440, Note_on_c, 0, 66, 52
2, 145680, Note_on_c, 0, 66, 0
2, 145680, Note_on_c, 0, 62, 0
2, 145680, Note_on_c, 0, 57, 40
2, 145680, Note_on_c, 0, 64, 48
2, 145920, Note_on_c, 0, 64, 0
2, 145920, Note_on_c, 0, 57, 0
2, 145920, Note_on_c, 0, 54, 45
2, 145920, Note_on_c, 0, 62, 53
2, 146880, Note_on_c, 0, 62, 0
2, 146880, Note_on_c, 0, 54, 0
2, 146880, Note_on_c, 0, 57, 44
2, 146880, Note_on_c, 0, 66, 44
2, 146880, Note_on_c, 0, 69, 52
2, 147360, Note_on_c, 0, 69, 0
2, 147360, Note_on_c, 0, 66, 0
2, 147360, Note_on_c, 0, 57, 0
2, 147360, Note_on_c, 0, 57, 41
2, 147360, Note_on_c, 0, 64, 41
2, 147360, Note_on_c, 0, 67, 49
2, 147720, Note_on_c, 0, 67, 0
2, 147720, Note_on_c, 0, 64, 0
2, 147720, Note_on_c, 0, 57, 0
2, 147720, Note_on_c, 0, 57, 39
2, 147720, Note_on_c, 0, 62, 39
2, 147720, Note_on_c, 0, 66, 46
2, 147840, Note_on_c, 0, 66, 0
2, 147840, Note_on_c, 0, 62, 0
2, 147840, Note_on_c, 0, 57, 0
2, 147840, Note_on_c, 0, 57, 40
2, 147840, Note_on_c, 0, 62, 40
2, 147840, Note_on_c, 0, 66, 48
2, 148320, Note_on_c, 0, 66, 0
2, 148320, Note_on_c, 0, 62, 0
2, 148320, Note_on_c, 0, 57, 0
2, 148320, Note_on_c, 0, 57, 48
2, 148320, Note_on_c, 0, 66, 57
2, 148320, Note_on_c, 0, 69, 57
2, 148800, Note_on_c, 0, 69, 0
2, 148800, Note_on_c, 0, 66, 0
2, 148800, Note_on_c, 0, 57, 0
2, 148800, Note_on_c, 0, 57, 45
2, 148800, Note_on_c, 0, 64, 45
2, 148800, Note_on_c, 0, 67, 54
2, 149160, Note_on_c, 0, 67, 0
2, 149160, Note_on_c, 0, 64, 0
2, 149160, Note_on_c, 0, 57, 0
2, 149160, Note_on_c, 0, 57, 45
2, 149160, Note_on_c, 0, 62, 45
2, 149160, Note_on_c, 0, 66, 53
2, 149280, Note_on_c, 0, 66, 0
2, 149280, Note_on_c, 0, 62, 0
2, 149280, Note_on_c, 0, 57, 0
2, 149280, Note_on_c, 0, 57, 47
2, 149280, Note_on_c, 0, 62, 47
2, 149280, Note_on_c, 0, 66, 56
2, 149760, Note_on_c, 0, 66, 0
2, 149760, Note_on_c, 0, 62, 0
2, 149760, Note_on_c, 0, 57, 0
2, 149760, Note_on_c, 0, 72, 70
2, 149760, Note_on_c, 0, 62, 59
2, 149760, Note_on_c, 0, 66, 59
2, 150240, Note_on_c, 0, 66, 0
2, 150240, Note_on_c, 0, 62, 0
2, 150240, Note_on_c, 0, 72, 0
2, 150240, Note_on_c, 0, 67, 66
2, 150240, Note_on_c, 0, 62, 56
2, 150240, Note_on_c, 0, 71, 66
2, 150600, Note_on_c, 0, 71, 0
2, 150600, Note_on_c, 0, 62, 0
2, 150600, Note_on_c, 0, 67, 0
2, 150600, Note_on_c, 0, 69, 59
2, 150600, Note_on_c, 0, 62, 50
2, 150600, Note_on_c, 0, 66, 50
2, 150720, Note_on_c, 0, 66, 0
2, 150720, Note_on_c, 0, 62, 0
2, 150720, Note_on_c, 0, 69, 0
2, 150720, Note_on_c, 0, 69, 61
2, 150720, Note_on_c, 0, 62, 51
2, 150720, Note_on_c, 0, 66, 51
2, 151200, Note_on_c, 0, 66, 0
2, 151200, Note_on_c, 0, 62, 0
2, 151200, Note_on_c, 0, 69, 0
2, 151200, Note_on_c, 0, 62, 61
2, 151200, Note_on_c, 0, 72, 61
2, 151200, Note_on_c, 0, 76, 72
2, 151680, Note_on_c, 0, 76, 0
2, 151680, Note_on_c, 0, 72, 0
2, 151680, Note_on_c, 0, 62, 0
2, 151680, Note_on_c, 0, 62, 59
2, 151680, Note_on_c, 0, 71, 59
2, 151680, Note_on_c, 0, 74, 70
2, 152040, Note_on_c, 0, 74, 0
2, 152040, Note_on_c, 0, 71, 0
2, 152040, Note_on_c, 0, 62, 0
2, 152040, Note_on_c, 0, 62, 56
2, 152040, Note_on_c, 0, 69, 56
2, 152040, Note_on_c, 0, 72, 67
2, 152160, Note_on_c, 0, 72, 0
2, 152160, Note_on_c, 0, 69, 0
2, 152160, Note_on_c, 0, 62, 0
2, 152160, Note_on_c, 0, 62, 59
2, 152160, Note_on_c, 0, 72, 70
2, 152160, Note_on_c, 0, 69, 59
2, 152640, Note_on_c, 0, 69, 0
2, 152640, Note_on_c, 0, 72, 0
2, 152640, Note_on_c, 0, 62, 0
2, 152640, Note_on_c, 0, 57, 44
2, 152640, Note_on_c, 0, 62, 44
2, 152640, Note_on_c, 0, 72, 52
2, 153120, Note_on_c, 0, 72, 0
2, 153120, Note_on_c, 0, 62, 0
2, 153120, Note_on_c, 0, 57, 0
2, 153120, Note_on_c, 0, 59, 39
2, 153120, Note_on_c, 0, 62, 39
2, 153120, Note_on_c, 0, 71, 46
2, 153480, Note_on_c, 0, 71, 0
2, 153480, Note_on_c, 0, 62, 0
2, 153480, Note_on_c, 0, 59, 0
2, 153480, Note_on_c, 0, 60, 35
2, 153480, Note_on_c, 0, 62, 35
2, 153480, Note_on_c, 0, 69, 42
2, 153600, Note_on_c, 0, 69, 0
2, 153600, Note_on_c, 0, 62, 0
2, 153600, Note_on_c, 0, 60, 0
2, 153600, Note_on_c, 0, 60, 35
2, 153600, Note_on_c, 0, 62, 35
2, 153600, Note_on_c, 0, 69, 42
2, 155520, Note_on_c, 0, 69, 0
2, 155520, Note_on_c, 0, 62, 0
2, 155520, Note_on_c, 0, 60, 0
2, 155520, Note_on_c, 0, 67, 50
2, 155680, Note_on_c, 0, 67, 0
2, 155680, Note_on_c, 0, 62, 40
2, 155840, Note_on_c, 0, 62, 0
2, 155840, Note_on_c, 0, 58, 34
2, 156000, Note_on_c, 0, 58, 0
2, 156000, Note_on_c, 0, 67, 47
2, 156160, Note_on_c, 0, 67, 0
2, 156160, Note_on_c, 0, 62, 37
2, 156320, Note_on_c, 0, 62, 0
2, 156320, Note_on_c, 0, 58, 32
2, 156480, Note_on_c, 0, 58, 0
2, 156480, Note_on_c, 0, 66, 47
2, 156640, Note_on_c, 0, 66, 0
2, 156640, Note_on_c, 0, 62, 38
2, 156800, Note_on_c, 0, 62, 0
2, 156800, Note_on_c, 0, 57, 33
2, 156960, Note_on_c, 0, 57, 0
2, 156960, Note_on_c, 0, 69, 50
2, 157120, Note_on_c, 0, 69, 0
2, 157120, Note_on_c, 0, 62, 41
2, 157280, Note_on_c, 0, 62, 0
2, 157280, Note_on_c, 0, 60, 33
2, 157440, Note_on_c, 0, 60, 0
2, 157440, Note_on_c, 0, 69, 48
2, 157600, Note_on_c, 0, 69, 0
2, 157600, Note_on_c, 0, 62, 38
2, 157760, Note_on_c, 0, 62, 0
2, 157760, Note_on_c, 0, 60, 30
2, 157920, Note_on_c, 0, 60, 0
2, 157920, Note_on_c, 0, 67, 48
2, 158080, Note_on_c, 0, 67, 0
2, 158080, Note_on_c, 0, 62, 38
2, 158240, Note_on_c, 0, 62, 0
2, 158240, Note_on_c, 0, 58, 31
2, 158400, Note_on_c, 0, 58, 0
2, 158400, Note_on_c, 0, 67, 47
2, 158560, Note_on_c, 0, 67, 0
2, 158560, Note_on_c, 0, 62, 38
2, 158720, Note_on_c, 0, 62, 0
2, 158720, Note_on_c, 0, 58, 31
2, 158880, Note_on_c, 0, 58, 0
2, 158880, Note_on_c, 0, 62, 45
2, 158880, Note_on_c, 0, 66, 45
2, 158880, Note_on_c, 0, 69, 53
2, 159120, Note_on_c, 0, 69, 0
2, 159120, Note_on_c, 0, 66, 0
2, 159120, Note_on_c, 0, 62, 0
2, 159120, Note_on_c, 0, 62, 46
2, 159120, Note_on_c, 0, 67, 46
2, 159120, Note_on_c, 0, 70, 55
2, 159360, Note_on_c, 0, 70, 0
2, 159360, Note_on_c, 0, 67, 0
2, 159360, Note_on_c, 0, 62, 0
2, 159360, Note_on_c, 0, 62, 50
2, 159360, Note_on_c, 0, 69, 59
2, 159360, Note_on_c, 0, 72, 59
2, 159720, Note_on_c, 0, 72, 0
2, 159720, Note_on_c, 0, 69, 0
2, 159720, Note_on_c, 0, 62, 0
2, 159720, Note_on_c, 0, 62, 45
2, 159720, Note_on_c, 0, 67, 45
2, 159720, Note_on_c, 0, 70, 54
2, 159840, Note_on_c, 0, 70, 0
2, 159840, Note_on_c, 0, 67, 0
2, 159840, Note_on_c, 0, 62, 0
2, 159840, Note_on_c, 0, 62, 45
2, 159840, Note_on_c, 0, 67, 45
2, 159840, Note_on_c, 0, 70, 53
2, 160320, Note_on_c, 0, 70, 0
2, 160320, Note_on_c, 0, 67, 0
2, 160320, Note_on_c, 0, 62, 0
2, 160320, Note_on_c, 0, 62, 31
2, 160320, Note_on_c, 0, 66, 31
2, 160320, Note_on_c, 0, 69, 37
2, 160560, Note_on_c, 0, 69, 0
2, 160560, Note_on_c, 0, 66, 0
2, 160560, Note_on_c, 0, 62, 0
2, 160560, Note_on_c, 0, 62, 29
2, 160560, Note_on_c, 0, 64, 29
2, 160560, Note_on_c, 0, 67, 35
2, 160800, Note_on_c, 0, 67, 0
2, 160800, Note_on_c, 0, 64, 0
2, 160800, Note_on_c, 0, 62, 0
2, 160800, Note_on_c, 0, 62, 31
2, 160800, Note_on_c, 0, 66, 31
2, 160800, Note_on_c, 0, 69, 37
2, 161280, Note_on_c, 0, 69, 0
2, 161280, Note_on_c, 0, 66, 0
2, 161280, Note_on_c, 0, 62, 0
2, 161280, Note_on_c, 0, 74, 53
2, 161280, Note_on_c, 0, 67, 50
2, 161440, Note_on_c, 0, 67, 0
2, 161440, Note_on_c, 0, 62, 40
2, 161600, Note_on_c, 0, 62, 0
2, 161600, Note_on_c, 0, 71, 34
2, 161760, Note_on_c, 0, 71, 0
2, 161760, Note_on_c, 0, 67, 47
2, 161920, Note_on_c, 0, 67, 0
2, 161920, Note_on_c, 0, 62, 37
2, 162080, Note_on_c, 0, 62, 0
2, 162080, Note_on_c, 0, 71, 32
2, 162240, Note_on_c, 0, 71, 0
2, 162240, Note_on_c, 0, 66, 47
2, 162400, Note_on_c, 0, 66, 0
2, 162400, Note_on_c, 0, 62, 38
2, 162560, Note_on_c, 0, 62, 0
2, 162560, Note_on_c, 0, 69, 33
2, 162720, Note_on_c, 0, 69, 0
2, 162720, Note_on_c, 0, 74, 0
2, 162720, Note_on_c, 0, 74, 53
2, 162720, Note_on_c, 0, 69, 50
2, 162880, Note_on_c, 0, 69, 0
2, 162880, Note_on_c, 0, 62, 41
2, 163040, Note_on_c, 0, 62, 0
2, 163040, Note_on_c, 0, 72, 33
2, 163200, Note_on_c, 0, 72, 0
2, 163200, Note_on_c, 0, 69, 48
2, 163360, Note_on_c, 0, 69, 0
2, 163360, Note_on_c, 0, 62, 38
2, 163520, Note_on_c, 0, 62, 0
2, 163520, Note_on_c, 0, 72, 30
2, 163680, Note_on_c, 0, 72, 0
2, 163680, Note_on_c, 0, 67, 48
2, 163840, Note_on_c, 0, 67, 0
2, 163840, Note_on_c, 0, 62, 38
2, 164000, Note_on_c, 0, 62, 0
2, 164000, Note_on_c, 0, 71, 31
2, 164160, Note_on_c, 0, 71, 0
2, 164160, Note_on_c, 0, 74, 0
2, 164160, Note_on_c, 0, 62, 70
2, 164400, Note_on_c, 0, 62, 0
2, 164400, Note_on_c, 0, 74, 68
2, 164640, Note_on_c, 0, 74, 0
2, 164640, Note_on_c, 0, 64, 56
2, 164640, Note_on_c, 0, 76, 66
2, 164880, Note_on_c, 0, 76, 0
2, 164880, Note_on_c, 0, 64, 0
2, 164880, Note_on_c, 0, 66, 62
2, 164880, Note_on_c, 0, 78, 73
2, 165120, Note_on_c, 0, 78, 0
2, 165120, Note_on_c, 0, 66, 0
2, 165120, Note_on_c, 0, 67, 69
2, 165120, Note_on_c, 0, 79, 82
2, 165480, Note_on_c, 0, 79, 0
2, 165480, Note_on_c, 0, 67, 0
2, 165480, Note_on_c, 0, 62, 46
2, 165480, Note_on_c, 0, 67, 46
2, 165480, Note_on_c, 0, 71, 55
2, 165600, Note_on_c, 0, 71, 0
2, 165600, Note_on_c, 0, 67, 0
2, 165600, Note_on_c, 0, 62, 0
2, 165600, Note_on_c, 0, 71, 61
2, 165600, Note_on_c, 0, 74, 61
2, 166080, Note_on_c, 0, 74, 0
2, 166080, Note_on_c, 0, 71, 0
2, 166080, Note_on_c, 0, 62, 42
2, 166080, Note_on_c, 0, 66, 42
2, 166080, Note_on_c, 0, 72, 50
2, 166440, Note_on_c, 0, 72, 0
2, 166440, Note_on_c, 0, 66, 0
2, 166440, Note_on_c, 0, 62, 0
2, 166440, Note_on_c, 0, 62, 37
2, 166440, Note_on_c, 0, 67, 37
2, 166440, Note_on_c, 0, 71, 44
2, 166560, Note_on_c, 0, 71, 0
2, 166560, Note_on_c, 0, 67, 0
2, 166560, Note_on_c, 0, 62, 0
2, 166560, Note_on_c, 0, 62, 34
2, 166560, Note_on_c, 0, 67, 34
2, 166560, Note_on_c, 0, 71, 41
2, 167040, Note_on_c, 0, 71, 0
2, 167040, Note_on_c, 0, 67, 0
2, 167040, Note_on_c, 0, 62, 0
2, 167040, Note_on_c, 0, 64, 40
2, 167040, Note_on_c, 0, 67, 40
2, 167040, Note_on_c, 0, 72, 40
2, 167520, Note_on_c, 0, 72, 0
2, 167520, Note_on_c, 0, 67, 0
2, 167520, Note_on_c, 0, 64, 0
2, 167520, Note_on_c, 0, 62, 38
2, 167520, Note_on_c, 0, 67, 38
2, 167520, Note_on_c, 0, 71, 38
2, 167880, Note_on_c, 0, 71, 0
2, 167880, Note_on_c, 0, 67, 0
2, 167880, Note_on_c, 0, 62, 0
2, 167880, Note_on_c, 0, 60, 36
2, 167880, Note_on_c, 0, 67, 36
2, 167880, Note_on_c, 0, 69, 36
2, 168000, Note_on_c, 0, 69, 0
2, 168000, Note_on_c, 0, 67, 0
2, 168000, Note_on_c, 0, 60, 0
2, 168000, Note_on_c, 0, 60, 38
2, 168000, Note_on_c, 0, 67, 38
2, 168000, Note_on_c, 0, 69, 38
2, 168480, Note_on_c, 0, 69, 0
2, 168480, Note_on_c, 0, 67, 0
2, 168480, Note_on_c, 0, 60, 0
2, 168480, Note_on_c, 0, 62, 40
2, 168480, Note_on_c, 0, 71, 40
2, 168960, Note_on_c, 0, 71, 0
2, 168960, Note_on_c, 0, 62, 0
2, 168960, Note_on_c, 0, 60, 38
2, 168960, Note_on_c, 0, 62, 38
2, 168960, Note_on_c, 0, 69, 38
2, 169320, Note_on_c, 0, 69, 0
2, 169320, Note_on_c, 0, 62, 0
2, 169320, Note_on_c, 0, 60, 0
2, 169320, Note_on_c, 0, 59, 36
2, 169320, Note_on_c, 0, 62, 36
2, 169320, Note_on_c, 0, 67, 36
2, 169440, Note_on_c, 0, 67, 0
2, 169440, Note_on_c, 0, 62, 0
2, 169440, Note_on_c, 0, 59, 0
2, 169440, Note_on_c, 0, 59, 38
2, 169440, Note_on_c, 0, 62, 38
2, 169440, Note_on_c, 0, 67, 38
2, 169920, Note_on_c, 0, 67, 0
2, 169920, Note_on_c, 0, 62, 0
2, 169920, Note_on_c, 0, 59, 0
2, 169920, Note_on_c, 0, 60, 40
2, 169920, Note_on_c, 0, 62, 40
2, 169920, Note_on_c, 0, 69, 40
2, 170400, Note_on_c, 0, 69, 0
2, 170400, Note_on_c, 0, 62, 0
2, 170400, Note_on_c, 0, 60, 0
2, 170400, Note_on_c, 0, 59, 38
2, 170400, Note_on_c, 0, 62, 38
2, 170400, Note_on_c, 0, 67, 38
2, 170760, Note_on_c, 0, 67, 0
2, 170760, Note_on_c, 0, 62, 0
2, 170760, Note_on_c, 0, 59, 0
2, 170760, Note_on_c, 0, 57, 36
2, 170760, Note_on_c, 0, 60, 36
2, 170760, Note_on_c, 0, 66, 36
2, 170880, Note_on_c, 0, 66, 0
2, 170880, Note_on_c, 0, 60, 0
2, 170880, Note_on_c, 0, 57, 0
2, 170880, Note_on_c, 0, 57, 38
2, 170880, Note_on_c, 0, 60, 38
2, 170880, Note_on_c, 0, 66, 38
2, 171360, Note_on_c, 0, 66, 0
2, 171360, Note_on_c, 0, 60, 0
2, 171360, Note_on_c, 0, 57, 0
2, 171360, Note_on_c, 0, 59, 40
2, 171360, Note_on_c, 0, 67, 40
2, 171840, Note_on_c, 0, 67, 0
2, 171840, Note_on_c, 0, 59, 0
2, 171840, Note_on_c, 0, 57, 38
2, 171840, Note_on_c, 0, 62, 38
2, 172200, Note_on_c, 0, 62, 0
2, 172200, Note_on_c, 0, 57, 0
2, 172200, Note_on_c, 0, 55, 36
2, 172200, Note_on_c, 0, 59, 36
2, 172320, Note_on_c, 0, 59, 0
2, 172320, Note_on_c, 0, 55, 0
2, 172320, Note_on_c, 0, 55, 38
2, 172320, Note_on_c, 0, 59, 38
2, 172800, Note_on_c, 0, 59, 0
2, 172800, Note_on_c, 0, 55, 0
2, 172800, Note_on_c, 0, 55, 38
2, 172800, Note_on_c, 0, 62, 38
2, 172800, Note_on_c, 0, 65, 38
2, 173280, Note_on_c, 0, 65, 0
2, 173280, Note_on_c, 0, 62, 0
2, 173280, Note_on_c, 0, 55, 0
2, 173280, Note_on_c, 0, 55, 36
2, 173280, Note_on_c, 0, 60, 36
2, 173280, Note_on_c, 0, 64, 36
2, 173640, Note_on_c, 0, 64, 0
2, 173640, Note_on_c, 0, 60, 0
2, 173640, Note_on_c, 0, 55, 0
2, 173640, Note_on_c, 0, 55, 34
2, 173640, Note_on_c, 0, 59, 34
2, 173640, Note_on_c, 0, 62, 34
2, 173760, Note_on_c, 0, 62, 0
2, 173760, Note_on_c, 0, 59, 0
2, 173760, Note_on_c, 0, 55, 0
2, 173760, Note_on_c, 0, 55, 36
2, 173760, Note_on_c, 0, 59, 36
2, 173760, Note_on_c, 0, 62, 36
2, 174240, Note_on_c, 0, 62, 0
2, 174240, Note_on_c, 0, 59, 0
2, 174240, Note_on_c, 0, 55, 0
2, 174240, Note_on_c, 0, 59, 38
2, 174240, Note_on_c, 0, 69, 38
2, 174240, Note_on_c, 0, 65, 38
2, 174720, Note_on_c, 0, 65, 0
2, 174720, Note_on_c, 0, 69, 0
2, 174720, Note_on_c, 0, 59, 0
2, 174720, Note_on_c, 0, 59, 34
2, 174720, Note_on_c, 0, 67, 34
2, 174720, Note_on_c, 0, 64, 34
2, 175080, Note_on_c, 0, 64, 0
2, 175080, Note_on_c, 0, 67, 0
2, 175080, Note_on_c, 0, 59, 0
2, 175080, Note_on_c, 0, 62, 31
2, 175080, Note_on_c, 0, 59, 31
2, 175080, Note_on_c, 0, 65, 31
2, 175200, Note_on_c, 0, 65, 0
2, 175200, Note_on_c, 0, 59, 0
2, 175200, Note_on_c, 0, 62, 0
2, 175200, Note_on_c, 0, 65, 32
2, 175200, Note_on_c, 0, 59, 32
2, 175200, Note_on_c, 0, 62, 32
2, 175680, Note_on_c, 0, 62, 0
2, 175680, Note_on_c, 0, 59, 0
2, 175680, Note_on_c, 0, 65, 0
2, 175680, Note_on_c, 0, 69, 36
2, 175680, Note_on_c, 0, 59, 36
2, 175680, Note_on_c, 0, 65, 36
2, 176400, Note_on_c, 0, 69, 0
2, 176400, Note_on_c, 0, 68, 36
2, 176640, Note_on_c, 0, 68, 0
2, 176640, Note_on_c, 0, 67, 36
2, 176880, Note_on_c, 0, 67, 0
2, 176880, Note_on_c, 0, 69, 36
2, 177120, Note_on_c, 0, 69, 0
2, 177120, Note_on_c, 0, 65, 0
2, 177120, Note_on_c, 0, 59, 0
2, 177120, Note_on_c, 0, 69, 36
2, 177120, Note_on_c, 0, 59, 36
2, 177120, Note_on_c, 0, 65, 36
2, 177600, Note_on_c, 0, 69, 0
2, 177600, Note_on_c, 0, 67, 36
2, 178560, Note_on_c, 0, 67, 0
2, 178560, Note_on_c, 0, 65, 0
2, 178560, Note_on_c, 0, 59, 0
2, 178560, Control_c, 0, 91, 127
2, 178561, Note_on_c, 0, 67, 60
2, 178980, Note_on_c, 0, 69, 50
2, 178981, Note_on_c, 0, 67, 0
2, 179040, Note_on_c, 0, 69, 0
2, 179040, Note_on_c, 0, 67, 60
2, 179200, Note_on_c, 0, 67, 0
2, 179200, Note_on_c, 0, 64, 57
2, 179360, Note_on_c, 0, 64, 0
2, 179360, Note_on_c, 0, 60, 53
2, 179520, Note_on_c, 0, 60, 0
2, 179520, Note_on_c, 0, 67, 60
2, 179880, Note_on_c, 0, 67, 0
2, 179880, Note_on_c, 0, 76, 56
2, 180000, Note_on_c, 0, 76, 0
2, 180000, Note_on_c, 0, 76, 60
2, 180960, Note_on_c, 0, 76, 0
2, 180960, Note_on_c, 0, 72, 44
2, 181200, Note_on_c, 0, 72, 0
2, 181440, Note_on_c, 0, 67, 59
2, 181860, Note_on_c, 0, 67, 0
2, 181860, Note_on_c, 0, 65, 50
2, 181920, Note_on_c, 0, 65, 0
2, 181920, Note_on_c, 0, 64, 60
2, 182080, Note_on_c, 0, 64, 0
2, 182080, Note_on_c, 0, 60, 56
2, 182240, Note_on_c, 0, 60, 0
2, 182240, Note_on_c, 0, 55, 52
2, 182400, Note_on_c, 0, 55, 0
2, 182400, Note_on_c, 0, 60, 60
2, 182560, Note_on_c, 0, 60, 0
2, 182560, Note_on_c, 0, 64, 57
2, 182720, Note_on_c, 0, 64, 0
2, 182720, Note_on_c, 0, 67, 54
2, 182880, Note_on_c, 0, 67, 0
2, 182880, Note_on_c, 0, 55, 56
2, 182880, Note_on_c, 0, 64, 56
2, 182880, Note_on_c, 0, 67, 56
2, 183000, Note_on_c, 0, 67, 0
2, 183000, Note_on_c, 0, 64, 0
2, 183000, Note_on_c, 0, 55, 0
2, 183120, Note_on_c, 0, 55, 53
2, 183120, Note_on_c, 0, 62, 53
2, 183120, Note_on_c, 0, 65, 53
2, 183240, Note_on_c, 0, 65, 0
2, 183240, Note_on_c, 0, 62, 0
2, 183240, Note_on_c, 0, 55, 0
2, 183360, Note_on_c, 0, 55, 56
2, 183360, Note_on_c, 0, 60, 56
2, 183360, Note_on_c, 0, 64, 56
2, 183450, Note_on_c, 0, 64, 0
2, 183450, Note_on_c, 0, 60, 0
2, 183450, Note_on_c, 0, 55, 0
2, 183600, Note_on_c, 0, 55, 50
2, 183600, Note_on_c, 0, 59, 50
2, 183600, Note_on_c, 0, 62, 50
2, 183690, Note_on_c, 0, 62, 0
2, 183690, Note_on_c, 0, 59, 0
2, 183690, Note_on_c, 0, 55, 0
2, 183840, Note_on_c, 0, 55, 56
2, 183840, Note_on_c, 0, 60, 56
2, 183840, Note_on_c, 0, 64, 56
2, 183960, Note_on_c, 0, 64, 0
2, 183960, Note_on_c, 0, 60, 0
2, 183960, Note_on_c, 0, 55, 0
2, 184320, Note_on_c, 0, 55, 41
2, 184320, Note_on_c, 0, 63, 41
2, 184320, Note_on_c, 0, 67, 41
2, 184440, Note_on_c, 0, 67, 0
2, 184440, Note_on_c, 0, 63, 0
2, 184440, Note_on_c, 0, 55, 0
2, 184560, Note_on_c, 0, 55, 37
2, 184560, Note_on_c, 0, 62, 37
2, 184560, Note_on_c, 0, 65, 37
2, 184680, Note_on_c, 0, 65, 0
2, 184680, Note_on_c, 0, 62, 0
2, 184680, Note_on_c, 0, 55, 0
2, 184800, Note_on_c, 0, 55, 41
2, 184800, Note_on_c, 0, 60, 41
2, 184800, Note_on_c, 0, 63, 41
2, 184890, Note_on_c, 0, 63, 0
2, 184890, Note_on_c, 0, 60, 0
2, 184890, Note_on_c, 0, 55, 0
2, 185040, Note_on_c, 0, 55, 38
2, 185040, Note_on_c, 0, 59, 38
2, 185040, Note_on_c, 0, 62, 38
2, 185130, Note_on_c, 0, 62, 0
2, 185130, Note_on_c, 0, 59, 0
2, 185130, Note_on_c, 0, 55, 0
2, 185280, Note_on_c, 0, 55, 41
2, 185280, Note_on_c, 0, 60, 41
2, 185280, Note_on_c, 0, 63, 41
2, 185370, Note_on_c, 0, 63, 0
2, 185370, Note_on_c, 0, 60, 0
2, 185370, Note_on_c, 0, 55, 0
2, 185520, Note_on_c, 0, 58, 38
2, 185520, Note_on_c, 0, 62, 38
2, 185520, Note_on_c, 0, 65, 38
2, 185610, Note_on_c, 0, 65, 0
2, 185610, Note_on_c, 0, 62, 0
2, 185610, Note_on_c, 0, 58, 0
2, 185760, Note_on_c, 0, 58, 50
2, 185760, Note_on_c, 0, 62, 50
2, 185760, Note_on_c, 0, 65, 50
2, 186000, Note_on_c, 0, 65, 0
2, 186000, Note_on_c, 0, 62, 0
2, 186000, Note_on_c, 0, 58, 0
2, 186000, Note_on_c, 0, 58, 48
2, 186000, Note_on_c, 0, 63, 48
2, 186000, Note_on_c, 0, 67, 48
2, 186180, Note_on_c, 0, 67, 0
2, 186180, Note_on_c, 0, 63, 0
2, 186180, Note_on_c, 0, 58, 0
2, 186240, Note_on_c, 0, 58, 52
2, 186240, Note_on_c, 0, 63, 52
2, 186240, Note_on_c, 0, 67, 52
2, 186480, Note_on_c, 0, 67, 0
2, 186480, Note_on_c, 0, 63, 0
2, 186480, Note_on_c, 0, 58, 0
2, 186480, Note_on_c, 0, 62, 54
2, 186480, Note_on_c, 0, 66, 54
2, 186480, Note_on_c, 0, 69, 54
2, 186660, Note_on_c, 0, 69, 0
2, 186660, Note_on_c, 0, 66, 0
2, 186660, Note_on_c, 0, 62, 0
2, 186720, Note_on_c, 0, 62, 60
2, 186720, Note_on_c, 0, 66, 60
2, 186720, Note_on_c, 0, 69, 60
2, 186960, Note_on_c, 0, 69, 0
2, 186960, Note_on_c, 0, 66, 0
2, 186960, Note_on_c, 0, 62, 0
2, 186960, Note_on_c, 0, 62, 57
2, 186960, Note_on_c, 0, 67, 57
2, 186960, Note_on_c, 0, 70, 57
2, 187140, Note_on_c, 0, 70, 0
2, 187140, Note_on_c, 0, 67, 0
2, 187140, Note_on_c, 0, 62, 0
2, 187200, Note_on_c, 0, 62, 66
2, 187200, Note_on_c, 0, 67, 66
2, 187200, Note_on_c, 0, 70, 66
2, 187440, Note_on_c, 0, 70, 0
2, 187440, Note_on_c, 0, 67, 0
2, 187440, Note_on_c, 0, 62, 0
2, 187440, Note_on_c, 0, 62, 64
2, 187440, Note_on_c, 0, 67, 64
2, 187440, Note_on_c, 0, 71, 64
2, 187680, Note_on_c, 0, 71, 0
2, 187680, Note_on_c, 0, 67, 0
2, 187680, Note_on_c, 0, 62, 0
2, 187680, Note_on_c, 0, 62, 70
2, 187680, Note_on_c, 0, 67, 70
2, 187680, Note_on_c, 0, 71, 70
2, 188400, Note_on_c, 0, 71, 0
2, 188400, Note_on_c, 0, 67, 0
2, 188400, Note_on_c, 0, 62, 0
2, 188400, Note_on_c, 0, 65, 54
2, 188400, Note_on_c, 0, 71, 54
2, 188400, Note_on_c, 0, 77, 54
2, 188640, Note_on_c, 0, 77, 0
2, 188640, Note_on_c, 0, 71, 0
2, 188640, Note_on_c, 0, 65, 0
2, 188640, Note_on_c, 0, 64, 54
2, 188640, Note_on_c, 0, 72, 54
2, 188640, Note_on_c, 0, 76, 54
2, 190080, Note_on_c, 0, 76, 0
2, 190080, Note_on_c, 0, 72, 0
2, 190080, Note_on_c, 0, 64, 0
2, 190080, Note_on_c, 0, 76, 54
2, 190500, Note_on_c, 0, 76, 0
2, 190500, Note_on_c, 0, 77, 44
2, 190560, Note_on_c, 0, 77, 0
2, 190560, Note_on_c, 0, 76, 54
2, 190720, Note_on_c, 0, 76, 0
2, 190720, Note_on_c, 0, 72, 50
2, 190880, Note_on_c, 0, 72, 0
2, 190880, Note_on_c, 0, 69, 47
2, 190980, Note_on_c, 0, 69, 0
2, 190980, Note_on_c, 0, 74, 44
2, 191040, Note_on_c, 0, 74, 0
2, 191040, Note_on_c, 0, 72, 54
2, 191200, Note_on_c, 0, 72, 0
2, 191200, Note_on_c, 0, 69, 51
2, 191360, Note_on_c, 0, 69, 0
2, 191360, Note_on_c, 0, 64, 47
2, 191520, Note_on_c, 0, 64, 0
2, 191520, Note_on_c, 0, 64, 45
2, 191520, Note_on_c, 0, 69, 45
2, 191520, Note_on_c, 0, 72, 54
2, 191760, Note_on_c, 0, 72, 0
2, 191760, Note_on_c, 0, 69, 0
2, 191760, Note_on_c, 0, 68, 43
2, 191760, Note_on_c, 0, 71, 51
2, 192000, Note_on_c, 0, 71, 0
2, 192000, Note_on_c, 0, 68, 0
2, 192000, Note_on_c, 0, 64, 0
2, 192000, Note_on_c, 0, 68, 54
2, 192000, Note_on_c, 0, 64, 45
2, 192000, Note_on_c, 0, 71, 54
2, 192240, Note_on_c, 0, 71, 0
2, 192240, Note_on_c, 0, 64, 0
2, 192240, Note_on_c, 0, 68, 0
2, 192240, Note_on_c, 0, 66, 43
2, 192240, Note_on_c, 0, 64, 43
2, 192240, Note_on_c, 0, 69, 51
2, 192480, Note_on_c, 0, 69, 0
2, 192480, Note_on_c, 0, 64, 0
2, 192480, Note_on_c, 0, 66, 0
2, 192480, Note_on_c, 0, 64, 45
2, 192480, Note_on_c, 0, 68, 45
2, 192480, Note_on_c, 0, 71, 54
2, 192960, Note_on_c, 0, 71, 0
2, 192960, Note_on_c, 0, 68, 0
2, 192960, Note_on_c, 0, 64, 0
2, 192960, Note_on_c, 0, 64, 45
2, 192960, Note_on_c, 0, 67, 45
2, 192960, Note_on_c, 0, 72, 54
2, 193200, Note_on_c, 0, 72, 0
2, 193200, Note_on_c, 0, 71, 51
2, 193440, Note_on_c, 0, 71, 0
2, 193440, Note_on_c, 0, 67, 0
2, 193440, Note_on_c, 0, 64, 0
2, 193440, Note_on_c, 0, 64, 45
2, 193440, Note_on_c, 0, 67, 45
2, 193440, Note_on_c, 0, 71, 54
2, 193680, Note_on_c, 0, 71, 0
2, 193680, Note_on_c, 0, 67, 0
2, 193680, Note_on_c, 0, 64, 0
2, 193680, Note_on_c, 0, 64, 44
2, 193680, Note_on_c, 0, 67, 44
2, 193680, Note_on_c, 0, 72, 52
2, 193920, Note_on_c, 0, 72, 0
2, 193920, Note_on_c, 0, 67, 0
2, 193920, Note_on_c, 0, 64, 0
2, 193920, Note_on_c, 0, 67, 45
2, 193920, Note_on_c, 0, 71, 54
2, 194160, Note_on_c, 0, 71, 0
2, 194160, Note_on_c, 0, 77, 53
2, 194400, Note_on_c, 0, 77, 0
2, 194400, Note_on_c, 0, 67, 0
2, 194400, Note_on_c, 0, 76, 54
2, 194820, Note_on_c, 0, 76, 0
2, 194820, Note_on_c, 0, 74, 43
2, 194880, Note_on_c, 0, 74, 0
2, 194880, Note_on_c, 0, 72, 53
2, 195040, Note_on_c, 0, 72, 0
2, 195040, Note_on_c, 0, 71, 51
2, 195200, Note_on_c, 0, 71, 0
2, 195200, Note_on_c, 0, 69, 52
2, 195360, Note_on_c, 0, 69, 0
2, 195360, Note_on_c, 0, 71, 55
2, 195840, Note_on_c, 0, 71, 0
2, 195840, Note_on_c, 0, 71, 68
2, 196260, Note_on_c, 0, 71, 0
2, 196260, Note_on_c, 0, 72, 58
2, 196320, Note_on_c, 0, 72, 0
2, 196320, Note_on_c, 0, 71, 68
2, 196480, Note_on_c, 0, 71, 0
2, 196480, Note_on_c, 0, 67, 66
2, 196640, Note_on_c, 0, 67, 0
2, 196640, Note_on_c, 0, 64, 64
2, 196760, Note_on_c, 0, 64, 0
2, 196800, Note_on_c, 0, 79, 82
2, 197040, Note_on_c, 0, 79, 0
2, 197040, Note_on_c, 0, 76, 72
2, 197130, Note_on_c, 0, 76, 0
2, 197280, Note_on_c, 0, 71, 70
2, 197700, Note_on_c, 0, 71, 0
2, 197700, Note_on_c, 0, 72, 60
2, 197760, Note_on_c, 0, 72, 0
2, 197760, Note_on_c, 0, 71, 71
2, 197920, Note_on_c, 0, 71, 0
2, 197920, Note_on_c, 0, 67, 69
2, 198080, Note_on_c, 0, 67, 0
2, 198080, Note_on_c, 0, 64, 66
2, 198200, Note_on_c, 0, 64, 0
2, 198240, Note_on_c, 0, 79, 85
2, 198480, Note_on_c, 0, 79, 0
2, 198480, Note_on_c, 0, 76, 74
2, 198570, Note_on_c, 0, 76, 0
2, 198720, Note_on_c, 0, 83, 90
2, 198720, Note_on_c, 0, 75, 90
2, 198720, Note_on_c, 0, 78, 90
2, 198960, Note_on_c, 0, 78, 0
2, 198960, Note_on_c, 0, 75, 0
2, 198960, Note_on_c, 0, 83, 0
2, 198960, Note_on_c, 0, 71, 87
2, 199050, Note_on_c, 0, 71, 0
2, 199140, Note_on_c, 0, 81, 70
2, 199200, Note_on_c, 0, 81, 0
2, 199200, Note_on_c, 0, 79, 87
2, 199360, Note_on_c, 0, 79, 0
2, 199360, Note_on_c, 0, 78, 83
2, 199520, Note_on_c, 0, 78, 0
2, 199520, Note_on_c, 0, 76, 78
2, 199680, Note_on_c, 0, 76, 0
2, 199680, Note_on_c, 0, 83, 93
2, 199680, Note_on_c, 0, 75, 93
2, 199680, Note_on_c, 0, 78, 93
2, 199920, Note_on_c, 0, 78, 0
2, 199920, Note_on_c, 0, 75, 0
2, 199920, Note_on_c, 0, 83, 0
2, 199920, Note_on_c, 0, 71, 86
2, 200010, Note_on_c, 0, 71, 0
2, 200100, Note_on_c, 0, 81, 72
2, 200160, Note_on_c, 0, 81, 0
2, 200160, Note_on_c, 0, 79, 89
2, 200320, Note_on_c, 0, 79, 0
2, 200320, Note_on_c, 0, 78, 85
2, 200480, Note_on_c, 0, 78, 0
2, 200480, Note_on_c, 0, 76, 82
2, 200640, Note_on_c, 0, 76, 0
2, 200640, Note_on_c, 0, 83, 95
2, 200640, Note_on_c, 0, 75, 95
2, 200640, Note_on_c, 0, 78, 95
2, 200880, Note_on_c, 0, 78, 0
2, 200880, Note_on_c, 0, 75, 0
2, 200880, Note_on_c, 0, 83, 0
2, 200880, Note_on_c, 0, 71, 89
2, 200970, Note_on_c, 0, 71, 0
2, 201120, Note_on_c, 0, 95, 115
2, 201360, Note_on_c, 0, 95, 0
2, 201360, Note_on_c, 0, 83, 93
2, 201450, Note_on_c, 0, 83, 0
2, 203040, Note_on_c, 0, 79, 45
2, 203280, Note_on_c, 0, 79, 0
2, 203280, Note_on_c, 0, 76, 30
2, 203400, Note_on_c, 0, 76, 0
2, 203520, Note_on_c, 0, 79, 43
2, 203760, Note_on_c, 0, 79, 0
2, 203760, Note_on_c, 0, 76, 31
2, 203880, Note_on_c, 0, 76, 0
2, 204000, Note_on_c, 0, 79, 42
2, 204240, Note_on_c, 0, 79, 0
2, 204240, Note_on_c, 0, 76, 31
2, 204360, Note_on_c, 0, 76, 0
2, 204480, Note_on_c, 0, 79, 41
2, 204720, Note_on_c, 0, 79, 0
2, 204720, Note_on_c, 0, 76, 29
2, 204840, Note_on_c, 0, 76, 0
2, 204960, Note_on_c, 0, 79, 38
2, 205200, Note_on_c, 0, 79, 0
2, 205200, Note_on_c, 0, 76, 27
2, 205320, Note_on_c, 0, 76, 0
2, 205440, Note_on_c, 0, 79, 37
2, 205680, Note_on_c, 0, 79, 0
2, 205680, Note_on_c, 0, 76, 26
2, 205800, Note_on_c, 0, 76, 0
2, 205920, Note_on_c, 0, 79, 36
2, 205920, Note_on_c, 0, 76, 36
2, 206160, Note_on_c, 0, 76, 0
2, 206160, Note_on_c, 0, 79, 0
2, 206160, Note_on_c, 0, 67, 27
2, 206280, Note_on_c, 0, 67, 0
2, 206400, Note_on_c, 0, 76, 36
2, 206400, Note_on_c, 0, 79, 36
2, 206640, Note_on_c, 0, 79, 0
2, 206640, Note_on_c, 0, 76, 0
2, 206640, Note_on_c, 0, 67, 27
2, 206760, Note_on_c, 0, 67, 0
2, 206880, Note_on_c, 0, 76, 36
2, 206880, Note_on_c, 0, 79, 36
2, 207120, Note_on_c, 0, 79, 0
2, 207120, Note_on_c, 0, 76, 0
2, 207120, Note_on_c, 0, 67, 27
2, 207240, Note_on_c, 0, 67, 0
2, 207360, Note_on_c, 0, 76, 38
2, 207360, Note_on_c, 0, 79, 38
2, 207600, Note_on_c, 0, 79, 0
2, 207600, Note_on_c, 0, 76, 0
2, 207600, Note_on_c, 0, 67, 29
2, 207720, Note_on_c, 0, 67, 0
2, 207840, Note_on_c, 0, 76, 38
2, 207840, Note_on_c, 0, 79, 38
2, 208080, Note_on_c, 0, 79, 0
2, 208080, Note_on_c, 0, 76, 0
2, 208080, Note_on_c, 0, 67, 27
2, 208200, Note_on_c, 0, 67, 0
2, 208320, Note_on_c, 0, 76, 34
2, 208320, Note_on_c, 0, 79, 34
2, 208560, Note_on_c, 0, 79, 0
2, 208560, Note_on_c, 0, 76, 0
2, 208560, Note_on_c, 0, 67, 26
2, 208680, Note_on_c, 0, 67, 0
2, 208800, Note_on_c, 0, 67, 47
2, 209220, Note_on_c, 0, 67, 0
2, 209220, Note_on_c, 0, 69, 44
2, 209280, Note_on_c, 0, 69, 0
2, 209280, Note_on_c, 0, 67, 52
2, 209440, Note_on_c, 0, 67, 0
2, 209440, Note_on_c, 0, 64, 49
2, 209600, Note_on_c, 0, 64, 0
2, 209600, Note_on_c, 0, 60, 42
2, 209760, Note_on_c, 0, 60, 0
2, 209760, Note_on_c, 0, 67, 52
2, 210120, Note_on_c, 0, 67, 0
2, 210120, Note_on_c, 0, 76, 48
2, 210240, Note_on_c, 0, 76, 0
2, 210240, Note_on_c, 0, 76, 52
2, 211200, Note_on_c, 0, 76, 0
2, 211200, Note_on_c, 0, 72, 35
2, 211440, Note_on_c, 0, 72, 0
2, 211680, Note_on_c, 0, 79, 70
2, 212100, Note_on_c, 0, 79, 0
2, 212100, Note_on_c, 0, 77, 51
2, 212160, Note_on_c, 0, 77, 0
2, 212160, Note_on_c, 0, 76, 61
2, 212320, Note_on_c, 0, 76, 0
2, 212320, Note_on_c, 0, 72, 57
2, 212480, Note_on_c, 0, 72, 0
2, 212480, Note_on_c, 0, 67, 55
2, 212640, Note_on_c, 0, 67, 0
2, 212640, Note_on_c, 0, 72, 63
2, 212800, Note_on_c, 0, 72, 0
2, 212800, Note_on_c, 0, 76, 59
2, 212960, Note_on_c, 0, 76, 0
2, 212960, Note_on_c, 0, 79, 56
2, 213120, Note_on_c, 0, 79, 0
2, 213120, Note_on_c, 0, 67, 70
2, 213120, Note_on_c, 0, 76, 70
2, 213120, Note_on_c, 0, 79, 70
2, 213240, Note_on_c, 0, 79, 0
2, 213240, Note_on_c, 0, 76, 0
2, 213240, Note_on_c, 0, 67, 0
2, 213360, Note_on_c, 0, 67, 66
2, 213360, Note_on_c, 0, 74, 66
2, 213360, Note_on_c, 0, 77, 66
2, 213480, Note_on_c, 0, 77, 0
2, 213480, Note_on_c, 0, 74, 0
2, 213480, Note_on_c, 0, 67, 0
2, 213600, Note_on_c, 0, 67, 70
2, 213600, Note_on_c, 0, 72, 70
2, 213600, Note_on_c, 0, 76, 70
2, 213690, Note_on_c, 0, 76, 0
2, 213690, Note_on_c, 0, 72, 0
2, 213690, Note_on_c, 0, 67, 0
2, 213840, Note_on_c, 0, 67, 63
2, 213840, Note_on_c, 0, 71, 63
2, 213840, Note_on_c, 0, 74, 63
2, 213930, Note_on_c, 0, 74, 0
2, 213930, Note_on_c, 0, 71, 0
2, 213930, Note_on_c, 0, 67, 0
2, 214080, Note_on_c, 0, 67, 70
2, 214080, Note_on_c, 0, 72, 70
2, 214080, Note_on_c, 0, 76, 70
2, 214200, Note_on_c, 0, 76, 0
2, 214200, Note_on_c, 0, 72, 0
2, 214200, Note_on_c, 0, 67, 0
2, 214560, Note_on_c, 0, 67, 45
2, 214800, Note_on_c, 0, 67, 0
2, 214800, Note_on_c, 0, 69, 41
2, 214920, Note_on_c, 0, 69, 0
2, 214920, Note_on_c, 0, 71, 41
2, 215040, Note_on_c, 0, 71, 0
2, 215040, Note_on_c, 0, 72, 45
2, 215130, Note_on_c, 0, 72, 0
2, 215280, Note_on_c, 0, 67, 39
2, 215370, Note_on_c, 0, 67, 0
2, 215520, Note_on_c, 0, 72, 48
2, 215610, Note_on_c, 0, 72, 0
2, 215760, Note_on_c, 0, 70, 65
2, 215760, Note_on_c, 0, 82, 65
2, 215880, Note_on_c, 0, 82, 0
2, 215880, Note_on_c, 0, 70, 0
2, 216000, Note_on_c, 0, 70, 67
2, 216000, Note_on_c, 0, 82, 67
2, 216120, Note_on_c, 0, 82, 0
2, 216120, Note_on_c, 0, 70, 0
2, 216240, Note_on_c, 0, 87, 70
2, 216240, Note_on_c, 0, 75, 70
2, 216360, Note_on_c, 0, 75, 0
2, 216360, Note_on_c, 0, 87, 0
2, 216480, Note_on_c, 0, 87, 73
2, 216480, Note_on_c, 0, 75, 73
2, 216600, Note_on_c, 0, 75, 0
2, 216600, Note_on_c, 0, 87, 0
2, 216720, Note_on_c, 0, 86, 71
2, 216720, Note_on_c, 0, 74, 71
2, 216840, Note_on_c, 0, 74, 0
2, 216840, Note_on_c, 0, 86, 0
2, 216960, Note_on_c, 0, 74, 78
2, 216960, Note_on_c, 0, 86, 78
2, 217080, Note_on_c, 0, 86, 0
2, 217080, Note_on_c, 0, 74, 0
2, 217200, Note_on_c, 0, 91, 77
2, 217200, Note_on_c, 0, 79, 77
2, 217320, Note_on_c, 0, 79, 0
2, 217320, Note_on_c, 0, 91, 0
2, 217440, Note_on_c, 0, 79, 84
2, 217440, Note_on_c, 0, 91, 84
2, 217560, Note_on_c, 0, 91, 0
2, 217560, Note_on_c, 0, 79, 0
2, 217680, Note_on_c, 0, 89, 70
2, 217680, Note_on_c, 0, 77, 70
2, 217800, Note_on_c, 0, 77, 0
2, 217800, Note_on_c, 0, 89, 0
2, 217920, Note_on_c, 0, 89, 66
2, 217920, Note_on_c, 0, 77, 66
2, 218640, Note_on_c, 0, 77, 0
2, 218640, Note_on_c, 0, 89, 0
2, 218640, Note_on_c, 0, 71, 48
2, 218640, Note_on_c, 0, 83, 48
2, 218880, Note_on_c, 0, 83, 0
2, 218880, Note_on_c, 0, 71, 0
2, 218880, Note_on_c, 0, 84, 45
2, 218880, Note_on_c, 0, 72, 45
2, 220320, Note_on_c, 0, 72, 0
2, 220320, Note_on_c, 0, 84, 0
2, 220320, End_track
3, 0, Start_track
3, 0, Title_t, "Piano left"
3, 0, Program_c, 0, 0
3, 0, Control_c, 0, 7, 100
3, 0, Control_c, 0, 10, 64
3, 0, Control_c, 0, 64, 127
3, 0, Control_c, 0, 91, 127
3, 1, Note_on_c, 0, 55, 54
3, 420, Note_on_c, 0, 57, 44
3, 421, Note_on_c, 0, 55, 0
3, 480, Note_on_c, 0, 57, 0
3, 480, Note_on_c, 0, 55, 54
3, 486, Control_c, 0, 64, 0
3, 530, Control_c, 0, 64, 127
3, 640, Note_on_c, 0, 55, 0
3, 640, Note_on_c, 0, 52, 50
3, 800, Note_on_c, 0, 52, 0
3, 800, Note_on_c, 0, 48, 47
3, 960, Note_on_c, 0, 48, 0
3, 960, Note_on_c, 0, 55, 54
3, 971, Control_c, 0, 64, 0
3, 1034, Control_c, 0, 64, 127
3, 1320, Note_on_c, 0, 55, 0
3, 1320, Note_on_c, 0, 64, 51
3, 1440, Note_on_c, 0, 64, 0
3, 1440, Control_c, 0, 64, 0
3, 1440, Note_on_c, 0, 64, 54
3, 1652, Control_c, 0, 64, 127
3, 2400, Note_on_c, 0, 64, 0
3, 2400, Note_on_c, 0, 60, 40
3, 2456, Control_c, 0, 64, 0
3, 2640, Note_on_c, 0, 60, 0
3, 2901, Control_c, 0, 64, 127
3, 3369, Control_c, 0, 64, 0
3, 3417, Control_c, 0, 64, 127
3, 3854, Control_c, 0, 64, 0
3, 3886, Control_c, 0, 64, 127
3, 4320, Control_c, 0, 64, 0
3, 4320, Note_on_c, 0, 43, 51
3, 4440, Note_on_c, 0, 43, 0
3, 4560, Note_on_c, 0, 45, 46
3, 4680, Note_on_c, 0, 45, 0
3, 4680, Note_on_c, 0, 47, 46
3, 4800, Note_on_c, 0, 47, 0
3, 4800, Note_on_c, 0, 48, 51
3, 4890, Note_on_c, 0, 48, 0
3, 5040, Note_on_c, 0, 43, 45
3, 5130, Note_on_c, 0, 43, 0
3, 5280, Note_on_c, 0, 48, 51
3, 5370, Note_on_c, 0, 48, 0
3, 5760, Note_on_c, 0, 43, 36
3, 6000, Note_on_c, 0, 43, 0
3, 6000, Note_on_c, 0, 45, 34
3, 6120, Note_on_c, 0, 45, 0
3, 6120, Note_on_c, 0, 47, 35
3, 6240, Note_on_c, 0, 47, 0
3, 6240, Note_on_c, 0, 48, 36
3, 6330, Note_on_c, 0, 48, 0
3, 6480, Note_on_c, 0, 43, 33
3, 6570, Note_on_c, 0, 43, 0
3, 6720, Note_on_c, 0, 48, 36
3, 6810, Note_on_c, 0, 48, 0
3, 6960, Note_on_c, 0, 46, 33
3, 7050, Note_on_c, 0, 46, 0
3, 7200, Note_on_c, 0, 46, 49
3, 7200, Control_c, 0, 64, 127
3, 7440, Note_on_c, 0, 46, 0
3, 7440, Note_on_c, 0, 51, 43
3, 7461, Control_c, 0, 64, 0
3, 7483, Control_c, 0, 64, 127
3, 7532, Control_c, 0, 64, 0
3, 7620, Note_on_c, 0, 51, 0
3, 7680, Note_on_c, 0, 51, 50
3, 7703, Control_c, 0, 64, 127
3, 7920, Note_on_c, 0, 51, 0
3, 7920, Note_on_c, 0, 50, 47
3, 7930, Control_c, 0, 64, 0
3, 7980, Control_c, 0, 64, 127
3, 8022, Control_c, 0, 64, 0
3, 8100, Note_on_c, 0, 50, 0
3, 8160, Control_c, 0, 64, 127
3, 8160, Note_on_c, 0, 50, 56
3, 8397, Control_c, 0, 64, 0
3, 8400, Note_on_c, 0, 50, 0
3, 8400, Note_on_c, 0, 55, 54
3, 8450, Control_c, 0, 64, 127
3, 8538, Control_c, 0, 64, 0
3, 8580, Note_on_c, 0, 55, 0
3, 8640, Control_c, 0, 64, 127
3, 8640, Note_on_c, 0, 55, 59
3, 8880, Note_on_c, 0, 55, 0
3, 8880, Note_on_c, 0, 43, 57
3, 8880, Note_on_c, 0, 55, 57
3, 8880, Note_on_c, 0, 53, 57
3, 8896, Control_c, 0, 64, 0
3, 9006, Control_c, 0, 64, 127
3, 9120, Note_on_c, 0, 53, 0
3, 9120, Note_on_c, 0, 55, 0
3, 9120, Note_on_c, 0, 43, 0
3, 9120, Note_on_c, 0, 53, 61
3, 9120, Note_on_c, 0, 43, 61
3, 9120, Note_on_c, 0, 55, 61
3, 9133, Control_c, 0, 64, 0
3, 9360, Control_c, 0, 64, 127
3, 9840, Note_on_c, 0, 55, 0
3, 9840, Note_on_c, 0, 43, 0
3, 9840, Note_on_c, 0, 53, 0
3, 9840, Note_on_c, 0, 50, 48
3, 9840, Note_on_c, 0, 43, 48
3, 9840, Note_on_c, 0, 55, 48
3, 10080, Note_on_c, 0, 55, 0
3, 10080, Note_on_c, 0, 43, 0
3, 10080, Note_on_c, 0, 50, 0
3, 10080, Note_on_c, 0, 55, 48
3, 10080, Note_on_c, 0, 48, 48
3, 10090, Control_c, 0, 64, 0
3, 10480, Control_c, 0, 64, 127
3, 11520, Note_on_c, 0, 48, 0
3, 11520, Note_on_c, 0, 55, 0
3, 11520, Control_c, 0, 64, 0
3, 11520, Note_on_c, 0, 55, 54
3, 11591, Control_c, 0, 64, 127
3, 11940, Note_on_c, 0, 55, 0
3, 11940, Note_on_c, 0, 57, 44
3, 12000, Note_on_c, 0, 57, 0
3, 12000, Note_on_c, 0, 55, 54
3, 12007, Control_c, 0, 64, 0
3, 12057, Control_c, 0, 64, 127
3, 12160, Note_on_c, 0, 55, 0
3, 12160, Note_on_c, 0, 52, 50
3, 12320, Note_on_c, 0, 52, 0
3, 12320, Note_on_c, 0, 48, 47
3, 12480, Note_on_c, 0, 48, 0
3, 12480, Note_on_c, 0, 55, 54
3, 12490, Control_c, 0, 64, 0
3, 12554, Control_c, 0, 64, 127
3, 12840, Note_on_c, 0, 55, 0
3, 12840, Note_on_c, 0, 64, 51
3, 12960, Note_on_c, 0, 64, 0
3, 12960, Note_on_c, 0, 64, 54
3, 12962, Control_c, 0, 64, 0
3, 13186, Control_c, 0, 64, 127
3, 13920, Note_on_c, 0, 64, 0
3, 13920, Control_c, 0, 64, 0
3, 13920, Note_on_c, 0, 60, 40
3, 14160, Note_on_c, 0, 60, 0
3, 14457, Control_c, 0, 64, 127
3, 14890, Control_c, 0, 64, 0
3, 14937, Control_c, 0, 64, 127
3, 15374, Control_c, 0, 64, 0
3, 15427, Control_c, 0, 64, 127
3, 15840, Note_on_c, 0, 43, 51
3, 15861, Control_c, 0, 64, 0
3, 15960, Note_on_c, 0, 43, 0
3, 16080, Note_on_c, 0, 45, 46
3, 16200, Note_on_c, 0, 45, 0
3, 16200, Note_on_c, 0, 47, 46
3, 16320, Note_on_c, 0, 47, 0
3, 16320, Note_on_c, 0, 48, 51
3, 16410, Note_on_c, 0, 48, 0
3, 16560, Note_on_c, 0, 43, 45
3, 16650, Note_on_c, 0, 43, 0
3, 16800, Note_on_c, 0, 48, 51
3, 16890, Note_on_c, 0, 48, 0
3, 17280, Note_on_c, 0, 43, 36
3, 17520, Note_on_c, 0, 43, 0
3, 17520, Note_on_c, 0, 45, 34
3, 17640, Note_on_c, 0, 45, 0
3, 17640, Note_on_c, 0, 47, 35
3, 17760, Note_on_c, 0, 47, 0
3, 17760, Note_on_c, 0, 48, 36
3, 17850, Note_on_c, 0, 48, 0
3, 18000, Note_on_c, 0, 43, 33
3, 18090, Note_on_c, 0, 43, 0
3, 18240, Note_on_c, 0, 48, 38
3, 18330, Note_on_c, 0, 48, 0
3, 18480, Note_on_c, 0, 46, 36
3, 18600, Note_on_c, 0, 46, 0
3, 18720, Note_on_c, 0, 46, 47
3, 18731, Control_c, 0, 64, 127
3, 18960, Note_on_c, 0, 46, 0
3, 18960, Note_on_c, 0, 51, 43
3, 18967, Control_c, 0, 64, 0
3, 18999, Control_c, 0, 64, 127
3, 19059, Control_c, 0, 64, 0
3, 19140, Note_on_c, 0, 51, 0
3, 19200, Note_on_c, 0, 51, 50
3, 19221, Control_c, 0, 64, 127
3, 19440, Note_on_c, 0, 51, 0
3, 19440, Note_on_c, 0, 50, 48
3, 19446, Control_c, 0, 64, 0
3, 19486, Control_c, 0, 64, 127
3, 19549, Control_c, 0, 64, 0
3, 19620, Note_on_c, 0, 50, 0
3, 19680, Note_on_c, 0, 50, 56
3, 19691, Control_c, 0, 64, 127
3, 19920, Note_on_c, 0, 50, 0
3, 19920, Note_on_c, 0, 55, 52
3, 19926, Control_c, 0, 64, 0
3, 19966, Control_c, 0, 64, 127
3, 20044, Control_c, 0, 64, 0
3, 20100, Note_on_c, 0, 55, 0
3, 20160, Note_on_c, 0, 55, 59
3, 20233, Control_c, 0, 64, 127
3, 20400, Note_on_c, 0, 55, 0
3, 20400, Note_on_c, 0, 43, 56
3, 20400, Note_on_c, 0, 53, 56
3, 20400, Note_on_c, 0, 55, 56
3, 20414, Control_c, 0, 64, 0
3, 20526, Control_c, 0, 64, 127
3, 20640, Note_on_c, 0, 55, 0
3, 20640, Note_on_c, 0, 53, 0
3, 20640, Note_on_c, 0, 43, 0
3, 20640, Note_on_c, 0, 43, 63
3, 20640, Note_on_c, 0, 53, 63
3, 20640, Note_on_c, 0, 55, 63
3, 20659, Control_c, 0, 64, 0
3, 20835, Control_c, 0, 64, 127
3, 21360, Note_on_c, 0, 55, 0
3, 21360, Note_on_c, 0, 53, 0
3, 21360, Note_on_c, 0, 43, 0
3, 21360, Note_on_c, 0, 43, 48
3, 21360, Note_on_c, 0, 50, 48
3, 21360, Note_on_c, 0, 55, 48
3, 21600, Note_on_c, 0, 55, 0
3, 21600, Note_on_c, 0, 50, 0
3, 21600, Note_on_c, 0, 43, 0
3, 21600, Note_on_c, 0, 48, 48
3, 21600, Note_on_c, 0, 55, 48
3, 21654, Control_c, 0, 64, 0
3, 21974, Control_c, 0, 64, 127
3, 23040, Note_on_c, 0, 55, 0
3, 23040, Note_on_c, 0, 48, 0
3, 23040, Control_c, 0, 64, 0
3, 23107, Control_c, 0, 64, 127
3, 23527, Control_c, 0, 64, 0
3, 23580, Control_c, 0, 64, 127
3, 24006, Control_c, 0, 64, 0
3, 24060, Control_c, 0, 64, 127
3, 24480, Control_c, 0, 64, 0
3, 24480, Note_on_c, 0, 52, 52
3, 24537, Control_c, 0, 64, 127
3, 24900, Note_on_c, 0, 52, 0
3, 24900, Note_on_c, 0, 53, 44
3, 24960, Note_on_c, 0, 53, 0
3, 24960, Note_on_c, 0, 52, 58
3, 24968, Control_c, 0, 64, 0
3, 25038, Control_c, 0, 64, 127
3, 25120, Note_on_c, 0, 52, 0
3, 25120, Note_on_c, 0, 47, 57
3, 25280, Note_on_c, 0, 47, 0
3, 25280, Note_on_c, 0, 40, 54
3, 25440, Note_on_c, 0, 40, 0
3, 25440, Note_on_c, 0, 52, 59
3, 25453, Control_c, 0, 64, 0
3, 25920, Note_on_c, 0, 52, 0
3, 25920, Note_on_c, 0, 52, 52
3, 25984, Control_c, 0, 64, 127
3, 26340, Note_on_c, 0, 52, 0
3, 26340, Note_on_c, 0, 53, 44
3, 26400, Note_on_c, 0, 53, 0
3, 26400, Note_on_c, 0, 52, 59
3, 26403, Control_c, 0, 64, 0
3, 26485, Control_c, 0, 64, 127
3, 26560, Note_on_c, 0, 52, 0
3, 26560, Note_on_c, 0, 55, 55
3, 26720, Note_on_c, 0, 55, 0
3, 26720, Note_on_c, 0, 60, 53
3, 26880, Note_on_c, 0, 60, 0
3, 26880, Note_on_c, 0, 65, 53
3, 26880, Note_on_c, 0, 62, 45
3, 26896, Control_c, 0, 64, 0
3, 26947, Control_c, 0, 64, 127
3, 27360, Note_on_c, 0, 62, 0
3, 27360, Note_on_c, 0, 65, 0
3, 27360, Control_c, 0, 64, 0
3, 27360, Note_on_c, 0, 64, 52
3, 27360, Note_on_c, 0, 60, 44
3, 27438, Control_c, 0, 64, 127
3, 27840, Note_on_c, 0, 60, 0
3, 27840, Note_on_c, 0, 64, 0
3, 27840, Note_on_c, 0, 66, 55
3, 27840, Note_on_c, 0, 62, 46
3, 27848, Control_c, 0, 64, 0
3, 27936, Control_c, 0, 64, 127
3, 28080, Note_on_c, 0, 62, 0
3, 28080, Note_on_c, 0, 66, 0
3, 28080, Note_on_c, 0, 66, 53
3, 28080, Note_on_c, 0, 62, 45
3, 28320, Note_on_c, 0, 62, 0
3, 28320, Note_on_c, 0, 66, 0
3, 28320, Note_on_c, 0, 62, 47
3, 28320, Note_on_c, 0, 55, 47
3, 28320, Note_on_c, 0, 67, 56
3, 28334, Control_c, 0, 64, 0
3, 28800, Note_on_c, 0, 67, 0
3, 28800, Note_on_c, 0, 55, 0
3, 28800, Note_on_c, 0, 62, 0
3, 28800, Note_on_c, 0, 59, 61
3, 28825, Control_c, 0, 64, 127
3, 29220, Note_on_c, 0, 59, 0
3, 29220, Note_on_c, 0, 60, 51
3, 29280, Note_on_c, 0, 60, 0
3, 29280, Note_on_c, 0, 59, 61
3, 29285, Control_c, 0, 64, 0
3, 29333, Control_c, 0, 64, 127
3, 29440, Note_on_c, 0, 59, 0
3, 29440, Note_on_c, 0, 55, 59
3, 29600, Note_on_c, 0, 55, 0
3, 29600, Note_on_c, 0, 52, 56
3, 29693, Control_c, 0, 64, 0
3, 29720, Note_on_c, 0, 52, 0
3, 29760, Note_on_c, 0, 67, 74
3, 29806, Control_c, 0, 64, 127
3, 30000, Note_on_c, 0, 67, 0
3, 30000, Note_on_c, 0, 64, 64
3, 30067, Control_c, 0, 64, 0
3, 30090, Note_on_c, 0, 64, 0
3, 30240, Note_on_c, 0, 59, 62
3, 30332, Control_c, 0, 64, 127
3, 30660, Note_on_c, 0, 59, 0
3, 30660, Note_on_c, 0, 60, 53
3, 30720, Note_on_c, 0, 60, 0
3, 30720, Note_on_c, 0, 59, 64
3, 30726, Control_c, 0, 64, 0
3, 30777, Control_c, 0, 64, 127
3, 30880, Note_on_c, 0, 59, 0
3, 30880, Note_on_c, 0, 55, 61
3, 31040, Note_on_c, 0, 55, 0
3, 31040, Note_on_c, 0, 52, 57
3, 31066, Control_c, 0, 64, 0
3, 31160, Note_on_c, 0, 52, 0
3, 31200, Note_on_c, 0, 67, 76
3, 31260, Control_c, 0, 64, 127
3, 31440, Note_on_c, 0, 67, 0
3, 31440, Note_on_c, 0, 64, 66
3, 31497, Control_c, 0, 64, 0
3, 31530, Note_on_c, 0, 64, 0
3, 31680, Note_on_c, 0, 47, 77
3, 31689, Control_c, 0, 64, 127
3, 31920, Note_on_c, 0, 47, 0
3, 31920, Note_on_c, 0, 59, 72
3, 32003, Control_c, 0, 64, 0
3, 32010, Note_on_c, 0, 59, 0
3, 32100, Note_on_c, 0, 63, 57
3, 32160, Note_on_c, 0, 63, 0
3, 32160, Note_on_c, 0, 64, 73
3, 32320, Note_on_c, 0, 64, 0
3, 32320, Note_on_c, 0, 66, 67
3, 32480, Note_on_c, 0, 66, 0
3, 32480, Note_on_c, 0, 67, 78
3, 32640, Note_on_c, 0, 67, 0
3, 32640, Note_on_c, 0, 47, 79
3, 32657, Control_c, 0, 64, 127
3, 32880, Note_on_c, 0, 47, 0
3, 32880, Note_on_c, 0, 59, 73
3, 32951, Control_c, 0, 64, 0
3, 32970, Note_on_c, 0, 59, 0
3, 33060, Note_on_c, 0, 63, 57
3, 33120, Note_on_c, 0, 63, 0
3, 33120, Note_on_c, 0, 64, 75
3, 33280, Note_on_c, 0, 64, 0
3, 33280, Note_on_c, 0, 66, 68
3, 33440, Note_on_c, 0, 66, 0
3, 33440, Note_on_c, 0, 67, 66
3, 33600, Note_on_c, 0, 67, 0
3, 33600, Note_on_c, 0, 47, 80
3, 33623, Control_c, 0, 64, 127
3, 33840, Note_on_c, 0, 47, 0
3, 33840, Note_on_c, 0, 59, 75
3, 33930, Note_on_c, 0, 59, 0
3, 33983, Control_c, 0, 64, 0
3, 34080, Note_on_c, 0, 35, 81
3, 34120, Control_c, 0, 64, 127
3, 34320, Note_on_c, 0, 35, 0
3, 34320, Note_on_c, 0, 47, 70
3, 34410, Note_on_c, 0, 47, 0
3, 34434, Control_c, 0, 64, 0
3, 36000, Note_on_c, 0, 64, 36
3, 36021, Control_c, 0, 64, 127
3, 36240, Note_on_c, 0, 64, 0
3, 36240, Note_on_c, 0, 67, 25
3, 36360, Note_on_c, 0, 67, 0
3, 36367, Control_c, 0, 64, 0
3, 36480, Note_on_c, 0, 64, 34
3, 36494, Control_c, 0, 64, 127
3, 36720, Note_on_c, 0, 64, 0
3, 36720, Note_on_c, 0, 67, 25
3, 36791, Control_c, 0, 64, 0
3, 36840, Note_on_c, 0, 67, 0
3, 36953, Control_c, 0, 64, 127
3, 36960, Note_on_c, 0, 64, 33
3, 37200, Note_on_c, 0, 64, 0
3, 37200, Note_on_c, 0, 67, 26
3, 37320, Note_on_c, 0, 67, 0
3, 37348, Control_c, 0, 64, 0
3, 37440, Control_c, 0, 64, 127
3, 37440, Note_on_c, 0, 64, 33
3, 37680, Note_on_c, 0, 64, 0
3, 37680, Note_on_c, 0, 67, 24
3, 37800, Note_on_c, 0, 67, 0
3, 37807, Control_c, 0, 64, 0
3, 37920, Note_on_c, 0, 64, 31
3, 37934, Control_c, 0, 64, 127
3, 38160, Note_on_c, 0, 64, 0
3, 38160, Note_on_c, 0, 67, 23
3, 38280, Note_on_c, 0, 67, 0
3, 38301, Control_c, 0, 64, 0
3, 38400, Note_on_c, 0, 64, 30
3, 38421, Control_c, 0, 64, 127
3, 38640, Note_on_c, 0, 64, 0
3, 38640, Note_on_c, 0, 67, 21
3, 38760, Note_on_c, 0, 67, 0
3, 38802, Control_c, 0, 64, 0
3, 38880, Note_on_c, 0, 55, 48
3, 38908, Control_c, 0, 64, 127
3, 39300, Note_on_c, 0, 55, 0
3, 39300, Note_on_c, 0, 57, 40
3, 39360, Note_on_c, 0, 57, 0
3, 39360, Note_on_c, 0, 55, 48
3, 39373, Control_c, 0, 64, 0
3, 39403, Control_c, 0, 64, 127
3, 39520, Note_on_c, 0, 55, 0
3, 39520, Note_on_c, 0, 52, 45
3, 39680, Note_on_c, 0, 52, 0
3, 39680, Note_on_c, 0, 48, 39
3, 39840, Note_on_c, 0, 48, 0
3, 39840, Note_on_c, 0, 55, 48
3, 39851, Control_c, 0, 64, 0
3, 39907, Control_c, 0, 64, 127
3, 40200, Note_on_c, 0, 55, 0
3, 40200, Note_on_c, 0, 64, 45
3, 40320, Note_on_c, 0, 64, 0
3, 40320, Control_c, 0, 64, 0
3, 40320, Note_on_c, 0, 64, 48
3, 40518, Control_c, 0, 64, 127
3, 41280, Note_on_c, 0, 64, 0
3, 41280, Note_on_c, 0, 60, 36
3, 41520, Note_on_c, 0, 60, 0
3, 41591, Control_c, 0, 64, 0
3, 41834, Control_c, 0, 64, 127
3, 42250, Control_c, 0, 64, 0
3, 42290, Control_c, 0, 64, 127
3, 42736, Control_c, 0, 64, 0
3, 42791, Control_c, 0, 64, 127
3, 43200, Note_on_c, 0, 55, 48
3, 43211, Control_c, 0, 64, 0
3, 43246, Control_c, 0, 64, 127
3, 43620, Note_on_c, 0, 55, 0
3, 43620, Note_on_c, 0, 57, 40
3, 43680, Note_on_c, 0, 57, 0
3, 43680, Note_on_c, 0, 55, 48
3, 43687, Control_c, 0, 64, 0
3, 43747, Control_c, 0, 64, 127
3, 43840, Note_on_c, 0, 55, 0
3, 43840, Note_on_c, 0, 52, 45
3, 44000, Note_on_c, 0, 52, 0
3, 44000, Note_on_c, 0, 48, 41
3, 44160, Note_on_c, 0, 48, 0
3, 44160, Note_on_c, 0, 55, 48
3, 44167, Control_c, 0, 64, 0
3, 44213, Control_c, 0, 64, 127
3, 44520, Note_on_c, 0, 55, 0
3, 44520, Note_on_c, 0, 64, 45
3, 44640, Note_on_c, 0, 64, 0
3, 44640, Control_c, 0, 64, 0
3, 44640, Note_on_c, 0, 64, 48
3, 44690, Control_c, 0, 64, 127
3, 45129, Control_c, 0, 64, 0
3, 45170, Control_c, 0, 64, 127
3, 45600, Note_on_c, 0, 64, 0
3, 45600, Note_on_c, 0, 60, 38
3, 45607, Control_c, 0, 64, 0
3, 45660, Control_c, 0, 64, 127
3, 45840, Note_on_c, 0, 60, 0
3, 46080, Control_c, 0, 64, 0
3, 46080, Note_on_c, 0, 43, 61
3, 46200, Note_on_c, 0, 43, 0
3, 46320, Note_on_c, 0, 45, 55
3, 46440, Note_on_c, 0, 45, 0
3, 46440, Note_on_c, 0, 47, 55
3, 46560, Note_on_c, 0, 47, 0
3, 46560, Note_on_c, 0, 48, 61
3, 46650, Note_on_c, 0, 48, 0
3, 46800, Note_on_c, 0, 43, 53
3, 46890, Note_on_c, 0, 43, 0
3, 47040, Note_on_c, 0, 48, 61
3, 47130, Note_on_c, 0, 48, 0
3, 47520, Note_on_c, 0, 51, 38
3, 47520, Note_on_c, 0, 55, 38
3, 47640, Note_on_c, 0, 55, 0
3, 47640, Note_on_c, 0, 51, 0
3, 47760, Note_on_c, 0, 50, 35
3, 47760, Note_on_c, 0, 53, 35
3, 47760, Note_on_c, 0, 55, 35
3, 47880, Note_on_c, 0, 55, 0
3, 47880, Note_on_c, 0, 53, 0
3, 47880, Note_on_c, 0, 50, 0
3, 48000, Note_on_c, 0, 48, 38
3, 48000, Note_on_c, 0, 51, 38
3, 48000, Note_on_c, 0, 55, 38
3, 48090, Note_on_c, 0, 55, 0
3, 48090, Note_on_c, 0, 51, 0
3, 48090, Note_on_c, 0, 48, 0
3, 48240, Note_on_c, 0, 47, 35
3, 48240, Note_on_c, 0, 50, 35
3, 48240, Note_on_c, 0, 55, 35
3, 48330, Note_on_c, 0, 55, 0
3, 48330, Note_on_c, 0, 50, 0
3, 48330, Note_on_c, 0, 47, 0
3, 48480, Note_on_c, 0, 48, 42
3, 48480, Note_on_c, 0, 51, 42
3, 48480, Note_on_c, 0, 55, 42
3, 48570, Note_on_c, 0, 55, 0
3, 48570, Note_on_c, 0, 51, 0
3, 48570, Note_on_c, 0, 48, 0
3, 48720, Note_on_c, 0, 50, 51
3, 48720, Note_on_c, 0, 53, 51
3, 48720, Note_on_c, 0, 58, 51
3, 48840, Note_on_c, 0, 58, 0
3, 48840, Note_on_c, 0, 53, 0
3, 48840, Note_on_c, 0, 50, 0
3, 48960, Note_on_c, 0, 53, 55
3, 48960, Note_on_c, 0, 56, 55
3, 48960, Note_on_c, 0, 58, 55
3, 49080, Note_on_c, 0, 58, 0
3, 49080, Note_on_c, 0, 56, 0
3, 49080, Note_on_c, 0, 53, 0
3, 49200, Note_on_c, 0, 51, 50
3, 49200, Note_on_c, 0, 55, 50
3, 49200, Note_on_c, 0, 58, 50
3, 49320, Note_on_c, 0, 58, 0
3, 49320, Note_on_c, 0, 55, 0
3, 49320, Note_on_c, 0, 51, 0
3, 49440, Note_on_c, 0, 51, 55
3, 49440, Note_on_c, 0, 55, 55
3, 49440, Note_on_c, 0, 58, 55
3, 49560, Note_on_c, 0, 58, 0
3, 49560, Note_on_c, 0, 55, 0
3, 49560, Note_on_c, 0, 51, 0
3, 49680, Note_on_c, 0, 54, 51
3, 49680, Note_on_c, 0, 57, 51
3, 49680, Note_on_c, 0, 62, 51
3, 49800, Note_on_c, 0, 62, 0
3, 49800, Note_on_c, 0, 57, 0
3, 49800, Note_on_c, 0, 54, 0
3, 49920, Note_on_c, 0, 57, 64
3, 49920, Note_on_c, 0, 60, 64
3, 49920, Note_on_c, 0, 62, 64
3, 50040, Note_on_c, 0, 62, 0
3, 50040, Note_on_c, 0, 60, 0
3, 50040, Note_on_c, 0, 57, 0
3, 50160, Note_on_c, 0, 55, 60
3, 50160, Note_on_c, 0, 58, 60
3, 50160, Note_on_c, 0, 62, 60
3, 50280, Note_on_c, 0, 62, 0
3, 50280, Note_on_c, 0, 58, 0
3, 50280, Note_on_c, 0, 55, 0
3, 50400, Note_on_c, 0, 55, 65
3, 50400, Note_on_c, 0, 58, 65
3, 50400, Note_on_c, 0, 62, 65
3, 50520, Note_on_c, 0, 62, 0
3, 50520, Note_on_c, 0, 58, 0
3, 50520, Note_on_c, 0, 55, 0
3, 50640, Note_on_c, 0, 43, 49
3, 50640, Note_on_c, 0, 50, 49
3, 50640, Note_on_c, 0, 59, 49
3, 50760, Note_on_c, 0, 59, 0
3, 50760, Note_on_c, 0, 50, 0
3, 50760, Note_on_c, 0, 43, 0
3, 50880, Control_c, 0, 64, 127
3, 50880, Note_on_c, 0, 43, 47
3, 50880, Note_on_c, 0, 50, 47
3, 50880, Note_on_c, 0, 59, 47
3, 51600, Note_on_c, 0, 59, 0
3, 51600, Note_on_c, 0, 50, 0
3, 51600, Note_on_c, 0, 43, 0
3, 51600, Note_on_c, 0, 65, 37
3, 51600, Note_on_c, 0, 67, 37
3, 51600, Note_on_c, 0, 55, 37
3, 51840, Note_on_c, 0, 55, 0
3, 51840, Note_on_c, 0, 67, 0
3, 51840, Note_on_c, 0, 65, 0
3, 51840, Note_on_c, 0, 67, 35
3, 51840, Note_on_c, 0, 64, 35
3, 51840, Note_on_c, 0, 60, 35
3, 51843, Control_c, 0, 64, 0
3, 52134, Control_c, 0, 64, 127
3, 53280, Note_on_c, 0, 60, 0
3, 53280, Note_on_c, 0, 64, 0
3, 53280, Note_on_c, 0, 67, 0
3, 53280, Control_c, 0, 64, 0
3, 53326, Control_c, 0, 64, 127
3, 53767, Control_c, 0, 64, 0
3, 53810, Control_c, 0, 64, 127
3, 54248, Control_c, 0, 64, 0
3, 54300, Control_c, 0, 64, 127
3, 54720, Note_on_c, 0, 52, 52
3, 54727, Control_c, 0, 64, 0
3, 54816, Control_c, 0, 64, 127
3, 55140, Note_on_c, 0, 52, 0
3, 55140, Note_on_c, 0, 53, 44
3, 55200, Note_on_c, 0, 53, 0
3, 55200, Note_on_c, 0, 52, 58
3, 55207, Control_c, 0, 64, 0
3, 55242, Control_c, 0, 64, 127
3, 55360, Note_on_c, 0, 52, 0
3, 55360, Note_on_c, 0, 47, 57
3, 55520, Note_on_c, 0, 47, 0
3, 55520, Note_on_c, 0, 40, 54
3, 55680, Note_on_c, 0, 40, 0
3, 55680, Note_on_c, 0, 52, 59
3, 55687, Control_c, 0, 64, 0
3, 55765, Control_c, 0, 64, 127
3, 56160, Note_on_c, 0, 52, 0
3, 56160, Control_c, 0, 64, 0
3, 56160, Note_on_c, 0, 52, 52
3, 56252, Control_c, 0, 64, 127
3, 56580, Note_on_c, 0, 52, 0
3, 56580, Note_on_c, 0, 53, 44
3, 56640, Note_on_c, 0, 53, 0
3, 56640, Note_on_c, 0, 52, 59
3, 56645, Control_c, 0, 64, 0
3, 56711, Control_c, 0, 64, 127
3, 56800, Note_on_c, 0, 52, 0
3, 56800, Note_on_c, 0, 55, 55
3, 56960, Note_on_c, 0, 55, 0
3, 56960, Note_on_c, 0, 60, 53
3, 57120, Note_on_c, 0, 60, 0
3, 57120, Note_on_c, 0, 65, 53
3, 57120, Note_on_c, 0, 62, 45
3, 57134, Control_c, 0, 64, 0
3, 57219, Control_c, 0, 64, 127
3, 57600, Note_on_c, 0, 62, 0
3, 57600, Note_on_c, 0, 65, 0
3, 57600, Control_c, 0, 64, 0
3, 57600, Note_on_c, 0, 64, 52
3, 57600, Note_on_c, 0, 60, 44
3, 57717, Control_c, 0, 64, 127
3, 58080, Note_on_c, 0, 60, 0
3, 58080, Note_on_c, 0, 64, 0
3, 58080, Note_on_c, 0, 66, 55
3, 58080, Note_on_c, 0, 62, 46
3, 58090, Control_c, 0, 64, 0
3, 58147, Control_c, 0, 64, 127
3, 58320, Note_on_c, 0, 62, 0
3, 58320, Note_on_c, 0, 66, 0
3, 58320, Note_on_c, 0, 66, 53
3, 58320, Note_on_c, 0, 62, 45
3, 58560, Note_on_c, 0, 62, 0
3, 58560, Note_on_c, 0, 66, 0
3, 58560, Note_on_c, 0, 62, 47
3, 58560, Note_on_c, 0, 55, 47
3, 58560, Note_on_c, 0, 67, 56
3, 58572, Control_c, 0, 64, 0
3, 59040, Note_on_c, 0, 67, 0
3, 59040, Note_on_c, 0, 55, 0
3, 59040, Note_on_c, 0, 62, 0
3, 59040, Note_on_c, 0, 59, 61
3, 59068, Control_c, 0, 64, 127
3, 59379, Control_c, 0, 64, 0
3, 59460, Note_on_c, 0, 59, 0
3, 59460, Note_on_c, 0, 60, 51
3, 59520, Note_on_c, 0, 60, 0
3, 59520, Note_on_c, 0, 59, 61
3, 59531, Control_c, 0, 64, 127
3, 59680, Note_on_c, 0, 59, 0
3, 59680, Note_on_c, 0, 55, 59
3, 59840, Note_on_c, 0, 55, 0
3, 59840, Note_on_c, 0, 52, 56
3, 59884, Control_c, 0, 64, 0
3, 59960, Note_on_c, 0, 52, 0
3, 60000, Note_on_c, 0, 67, 76
3, 60028, Control_c, 0, 64, 127
3, 60240, Note_on_c, 0, 67, 0
3, 60240, Note_on_c, 0, 64, 64
3, 60318, Control_c, 0, 64, 0
3, 60330, Note_on_c, 0, 64, 0
3, 60480, Note_on_c, 0, 59, 62
3, 60498, Control_c, 0, 64, 127
3, 60900, Note_on_c, 0, 59, 0
3, 60900, Note_on_c, 0, 60, 53
3, 60960, Note_on_c, 0, 60, 0
3, 60960, Note_on_c, 0, 59, 64
3, 60963, Control_c, 0, 64, 0
3, 61017, Control_c, 0, 64, 127
3, 61120, Note_on_c, 0, 59, 0
3, 61120, Note_on_c, 0, 55, 61
3, 61280, Note_on_c, 0, 55, 0
3, 61280, Note_on_c, 0, 52, 57
3, 61309, Control_c, 0, 64, 0
3, 61400, Note_on_c, 0, 52, 0
3, 61440, Note_on_c, 0, 67, 76
3, 61458, Control_c, 0, 64, 127
3, 61680, Note_on_c, 0, 67, 0
3, 61680, Note_on_c, 0, 64, 66
3, 61770, Note_on_c, 0, 64, 0
3, 61800, Control_c, 0, 64, 0
3, 61920, Control_c, 0, 64, 127
3, 61920, Note_on_c, 0, 47, 77
3, 62160, Note_on_c, 0, 47, 0
3, 62160, Note_on_c, 0, 59, 72
3, 62243, Control_c, 0, 64, 0
3, 62250, Note_on_c, 0, 59, 0
3, 62340, Note_on_c, 0, 63, 58
3, 62400, Note_on_c, 0, 63, 0
3, 62400, Note_on_c, 0, 64, 73
3, 62560, Note_on_c, 0, 64, 0
3, 62560, Note_on_c, 0, 66, 67
3, 62720, Note_on_c, 0, 66, 0
3, 62720, Note_on_c, 0, 67, 78
3, 62880, Note_on_c, 0, 67, 0
3, 62880, Note_on_c, 0, 47, 79
3, 62897, Control_c, 0, 64, 127
3, 63120, Note_on_c, 0, 47, 0
3, 63120, Note_on_c, 0, 59, 73
3, 63191, Control_c, 0, 64, 0
3, 63210, Note_on_c, 0, 59, 0
3, 63300, Note_on_c, 0, 63, 58
3, 63360, Note_on_c, 0, 63, 0
3, 63360, Note_on_c, 0, 64, 75
3, 63520, Note_on_c, 0, 64, 0
3, 63520, Note_on_c, 0, 66, 68
3, 63680, Note_on_c, 0, 66, 0
3, 63680, Note_on_c, 0, 67, 66
3, 63840, Note_on_c, 0, 67, 0
3, 63840, Note_on_c, 0, 47, 80
3, 63863, Control_c, 0, 64, 127
3, 64080, Note_on_c, 0, 47, 0
3, 64080, Note_on_c, 0, 59, 75
3, 64170, Note_on_c, 0, 59, 0
3, 64223, Control_c, 0, 64, 0
3, 64320, Note_on_c, 0, 35, 81
3, 64360, Control_c, 0, 64, 127
3, 64560, Note_on_c, 0, 35, 0
3, 64560, Note_on_c, 0, 47, 70
3, 64650, Note_on_c, 0, 47, 0
3, 64674, Control_c, 0, 64, 0
3, 66240, Note_on_c, 0, 64, 36
3, 66261, Control_c, 0, 64, 127
3, 66480, Note_on_c, 0, 64, 0
3, 66480, Note_on_c, 0, 67, 25
3, 66600, Note_on_c, 0, 67, 0
3, 66607, Control_c, 0, 64, 0
3, 66720, Note_on_c, 0, 64, 34
3, 66734, Control_c, 0, 64, 127
3, 66960, Note_on_c, 0, 64, 0
3, 66960, Note_on_c, 0, 67, 25
3, 67031, Control_c, 0, 64, 0
3, 67080, Note_on_c, 0, 67, 0
3, 67193, Control_c, 0, 64, 127
3, 67200, Note_on_c, 0, 64, 33
3, 67440, Note_on_c, 0, 64, 0
3, 67440, Note_on_c, 0, 67, 26
3, 67560, Note_on_c, 0, 67, 0
3, 67588, Control_c, 0, 64, 0
3, 67680, Control_c, 0, 64, 127
3, 67680, Note_on_c, 0, 64, 33
3, 67920, Note_on_c, 0, 64, 0
3, 67920, Note_on_c, 0, 67, 24
3, 68040, Note_on_c, 0, 67, 0
3, 68047, Control_c, 0, 64, 0
3, 68160, Note_on_c, 0, 64, 31
3, 68174, Control_c, 0, 64, 127
3, 68400, Note_on_c, 0, 64, 0
3, 68400, Note_on_c, 0, 67, 23
3, 68520, Note_on_c, 0, 67, 0
3, 68541, Control_c, 0, 64, 0
3, 68640, Note_on_c, 0, 64, 30
3, 68661, Control_c, 0, 64, 127
3, 68880, Note_on_c, 0, 64, 0
3, 68880, Note_on_c, 0, 67, 21
3, 69000, Note_on_c, 0, 67, 0
3, 69042, Control_c, 0, 64, 0
3, 69120, Note_on_c, 0, 55, 48
3, 69148, Control_c, 0, 64, 127
3, 69540, Note_on_c, 0, 55, 0
3, 69540, Note_on_c, 0, 57, 40
3, 69600, Note_on_c, 0, 57, 0
3, 69600, Note_on_c, 0, 55, 48
3, 69610, Control_c, 0, 64, 0
3, 69643, Control_c, 0, 64, 127
3, 69760, Note_on_c, 0, 55, 0
3, 69760, Note_on_c, 0, 52, 45
3, 69920, Note_on_c, 0, 52, 0
3, 69920, Note_on_c, 0, 48, 39
3, 70080, Note_on_c, 0, 48, 0
3, 70080, Note_on_c, 0, 55, 48
3, 70090, Control_c, 0, 64, 0
3, 70130, Control_c, 0, 64, 127
3, 70440, Note_on_c, 0, 55, 0
3, 70440, Note_on_c, 0, 64, 45
3, 70560, Note_on_c, 0, 64, 0
3, 70560, Note_on_c, 0, 64, 48
3, 70563, Control_c, 0, 64, 0
3, 70673, Control_c, 0, 64, 127
3, 71520, Note_on_c, 0, 64, 0
3, 71520, Note_on_c, 0, 60, 36
3, 71760, Note_on_c, 0, 60, 0
3, 71831, Control_c, 0, 64, 0
3, 72032, Control_c, 0, 64, 127
3, 72490, Control_c, 0, 64, 0
3, 72537, Control_c, 0, 64, 127
3, 72973, Control_c, 0, 64, 0
3, 73017, Control_c, 0, 64, 127
3, 73440, Control_c, 0, 64, 0
3, 73440, Note_on_c, 0, 55, 48
3, 73497, Control_c, 0, 64, 127
3, 73860, Note_on_c, 0, 55, 0
3, 73860, Note_on_c, 0, 57, 40
3, 73920, Note_on_c, 0, 57, 0
3, 73920, Note_on_c, 0, 55, 48
3, 73930, Control_c, 0, 64, 0
3, 73977, Control_c, 0, 64, 127
3, 74080, Note_on_c, 0, 55, 0
3, 74080, Note_on_c, 0, 52, 45
3, 74240, Note_on_c, 0, 52, 0
3, 74240, Note_on_c, 0, 48, 41
3, 74400, Note_on_c, 0, 48, 0
3, 74400, Note_on_c, 0, 55, 48
3, 74409, Control_c, 0, 64, 0
3, 74464, Control_c, 0, 64, 127
3, 74760, Note_on_c, 0, 55, 0
3, 74760, Note_on_c, 0, 64, 45
3, 74880, Note_on_c, 0, 64, 0
3, 74880, Note_on_c, 0, 64, 48
3, 74884, Control_c, 0, 64, 0
3, 74923, Control_c, 0, 64, 127
3, 75370, Control_c, 0, 64, 0
3, 75417, Control_c, 0, 64, 127
3, 75840, Note_on_c, 0, 64, 0
3, 75840, Note_on_c, 0, 60, 38
3, 75850, Control_c, 0, 64, 0
3, 75893, Control_c, 0, 64, 127
3, 76080, Note_on_c, 0, 60, 0
3, 76320, Control_c, 0, 64, 0
3, 76320, Note_on_c, 0, 43, 61
3, 76440, Note_on_c, 0, 43, 0
3, 76560, Note_on_c, 0, 45, 55
3, 76680, Note_on_c, 0, 45, 0
3, 76680, Note_on_c, 0, 47, 55
3, 76800, Note_on_c, 0, 47, 0
3, 76800, Note_on_c, 0, 48, 61
3, 76890, Note_on_c, 0, 48, 0
3, 77040, Note_on_c, 0, 43, 53
3, 77130, Note_on_c, 0, 43, 0
3, 77280, Note_on_c, 0, 48, 61
3, 77370, Note_on_c, 0, 48, 0
3, 77760, Note_on_c, 0, 51, 38
3, 77760, Note_on_c, 0, 55, 38
3, 77880, Note_on_c, 0, 55, 0
3, 77880, Note_on_c, 0, 51, 0
3, 78000, Note_on_c, 0, 50, 35
3, 78000, Note_on_c, 0, 53, 35
3, 78000, Note_on_c, 0, 55, 35
3, 78120, Note_on_c, 0, 55, 0
3, 78120, Note_on_c, 0, 53, 0
3, 78120, Note_on_c, 0, 50, 0
3, 78240, Note_on_c, 0, 48, 38
3, 78240, Note_on_c, 0, 51, 38
3, 78240, Note_on_c, 0, 55, 38
3, 78330, Note_on_c, 0, 55, 0
3, 78330, Note_on_c, 0, 51, 0
3, 78330, Note_on_c, 0, 48, 0
3, 78480, Note_on_c, 0, 47, 35
3, 78480, Note_on_c, 0, 50, 35
3, 78480, Note_on_c, 0, 55, 35
3, 78570, Note_on_c, 0, 55, 0
3, 78570, Note_on_c, 0, 50, 0
3, 78570, Note_on_c, 0, 47, 0
3, 78720, Note_on_c, 0, 48, 42
3, 78720, Note_on_c, 0, 51, 42
3, 78720, Note_on_c, 0, 55, 42
3, 78810, Note_on_c, 0, 55, 0
3, 78810, Note_on_c, 0, 51, 0
3, 78810, Note_on_c, 0, 48, 0
3, 78960, Note_on_c, 0, 50, 49
3, 78960, Note_on_c, 0, 53, 49
3, 78960, Note_on_c, 0, 58, 49
3, 79080, Note_on_c, 0, 58, 0
3, 79080, Note_on_c, 0, 53, 0
3, 79080, Note_on_c, 0, 50, 0
3, 79200, Note_on_c, 0, 53, 52
3, 79200, Note_on_c, 0, 56, 52
3, 79200, Note_on_c, 0, 58, 52
3, 79320, Note_on_c, 0, 58, 0
3, 79320, Note_on_c, 0, 56, 0
3, 79320, Note_on_c, 0, 53, 0
3, 79440, Note_on_c, 0, 51, 52
3, 79440, Note_on_c, 0, 55, 52
3, 79440, Note_on_c, 0, 58, 52
3, 79560, Note_on_c, 0, 58, 0
3, 79560, Note_on_c, 0, 55, 0
3, 79560, Note_on_c, 0, 51, 0
3, 79680, Note_on_c, 0, 51, 56
3, 79680, Note_on_c, 0, 55, 56
3, 79680, Note_on_c, 0, 58, 56
3, 79800, Note_on_c, 0, 58, 0
3, 79800, Note_on_c, 0, 55, 0
3, 79800, Note_on_c, 0, 51, 0
3, 79920, Note_on_c, 0, 54, 54
3, 79920, Note_on_c, 0, 57, 54
3, 79920, Note_on_c, 0, 62, 54
3, 80040, Note_on_c, 0, 62, 0
3, 80040, Note_on_c, 0, 57, 0
3, 80040, Note_on_c, 0, 54, 0
3, 80160, Note_on_c, 0, 57, 59
3, 80160, Note_on_c, 0, 60, 59
3, 80160, Note_on_c, 0, 62, 59
3, 80280, Note_on_c, 0, 62, 0
3, 80280, Note_on_c, 0, 60, 0
3, 80280, Note_on_c, 0, 57, 0
3, 80400, Note_on_c, 0, 55, 56
3, 80400, Note_on_c, 0, 58, 56
3, 80400, Note_on_c, 0, 62, 56
3, 80520, Note_on_c, 0, 62, 0
3, 80520, Note_on_c, 0, 58, 0
3, 80520, Note_on_c, 0, 55, 0
3, 80640, Note_on_c, 0, 55, 64
3, 80640, Note_on_c, 0, 58, 64
3, 80640, Note_on_c, 0, 62, 64
3, 80760, Note_on_c, 0, 62, 0
3, 80760, Note_on_c, 0, 58, 0
3, 80760, Note_on_c, 0, 55, 0
3, 80880, Note_on_c, 0, 43, 49
3, 80880, Note_on_c, 0, 50, 49
3, 80880, Note_on_c, 0, 59, 49
3, 81000, Note_on_c, 0, 59, 0
3, 81000, Note_on_c, 0, 50, 0
3, 81000, Note_on_c, 0, 43, 0
3, 81120, Note_on_c, 0, 43, 47
3, 81120, Note_on_c, 0, 50, 47
3, 81120, Note_on_c, 0, 59, 47
3, 81126, Control_c, 0, 64, 127
3, 81840, Note_on_c, 0, 59, 0
3, 81840, Note_on_c, 0, 50, 0
3, 81840, Note_on_c, 0, 43, 0
3, 81840, Note_on_c, 0, 65, 37
3, 81840, Note_on_c, 0, 67, 37
3, 81840, Note_on_c, 0, 55, 37
3, 82080, Note_on_c, 0, 55, 0
3, 82080, Note_on_c, 0, 67, 0
3, 82080, Note_on_c, 0, 65, 0
3, 82080, Control_c, 0, 64, 0
3, 82080, Note_on_c, 0, 67, 35
3, 82080, Note_on_c, 0, 64, 35
3, 82080, Note_on_c, 0, 60, 35
3, 82427, Control_c, 0, 64, 127
3, 83490, Note_on_c, 0, 60, 0
3, 83490, Note_on_c, 0, 64, 0
3, 83490, Note_on_c, 0, 67, 0
3, 83520, Control_c, 0, 64, 0
3, 83520, Note_on_c, 0, 47, 45
3, 83520, Note_on_c, 0, 43, 31
3, 83619, Control_c, 0, 64, 127
3, 83680, Note_on_c, 0, 47, 0
3, 83680, Note_on_c, 0, 50, 36
3, 83840, Note_on_c, 0, 50, 0
3, 83840, Note_on_c, 0, 55, 31
3, 84000, Note_on_c, 0, 55, 0
3, 84000, Note_on_c, 0, 47, 42
3, 84160, Note_on_c, 0, 47, 0
3, 84160, Note_on_c, 0, 50, 33
3, 84320, Note_on_c, 0, 50, 0
3, 84320, Note_on_c, 0, 55, 27
3, 84480, Note_on_c, 0, 55, 0
3, 84480, Note_on_c, 0, 45, 41
3, 84495, Control_c, 0, 64, 0
3, 84640, Note_on_c, 0, 45, 0
3, 84640, Note_on_c, 0, 50, 33
3, 84643, Control_c, 0, 64, 127
3, 84800, Note_on_c, 0, 50, 0
3, 84800, Note_on_c, 0, 54, 27
3, 84960, Note_on_c, 0, 54, 0
3, 84960, Note_on_c, 0, 43, 0
3, 84960, Note_on_c, 0, 48, 45
3, 84960, Note_on_c, 0, 43, 31
3, 84964, Control_c, 0, 64, 0
3, 85087, Control_c, 0, 64, 127
3, 85120, Note_on_c, 0, 48, 0
3, 85120, Note_on_c, 0, 50, 36
3, 85280, Note_on_c, 0, 50, 0
3, 85280, Note_on_c, 0, 57, 29
3, 85440, Note_on_c, 0, 57, 0
3, 85440, Note_on_c, 0, 48, 43
3, 85600, Note_on_c, 0, 48, 0
3, 85600, Note_on_c, 0, 50, 33
3, 85760, Note_on_c, 0, 50, 0
3, 85760, Note_on_c, 0, 57, 28
3, 85920, Note_on_c, 0, 57, 0
3, 85920, Note_on_c, 0, 47, 43
3, 85927, Control_c, 0, 64, 0
3, 86033, Control_c, 0, 64, 127
3, 86080, Note_on_c, 0, 47, 0
3, 86080, Note_on_c, 0, 50, 33
3, 86240, Note_on_c, 0, 50, 0
3, 86240, Note_on_c, 0, 55, 28
3, 86400, Note_on_c, 0, 55, 0
3, 86400, Note_on_c, 0, 43, 0
3, 86400, Note_on_c, 0, 47, 42
3, 86560, Note_on_c, 0, 47, 0
3, 86560, Note_on_c, 0, 50, 33
3, 86720, Note_on_c, 0, 50, 0
3, 86720, Note_on_c, 0, 55, 28
3, 86880, Note_on_c, 0, 55, 0
3, 86880, Note_on_c, 0, 50, 42
3, 86880, Note_on_c, 0, 54, 42
3, 86880, Note_on_c, 0, 57, 50
3, 86890, Control_c, 0, 64, 0
3, 86986, Control_c, 0, 64, 127
3, 87120, Note_on_c, 0, 57, 0
3, 87120, Note_on_c, 0, 54, 0
3, 87120, Note_on_c, 0, 50, 0
3, 87120, Note_on_c, 0, 50, 45
3, 87120, Note_on_c, 0, 55, 45
3, 87120, Note_on_c, 0, 59, 53
3, 87360, Note_on_c, 0, 59, 0
3, 87360, Note_on_c, 0, 55, 0
3, 87360, Note_on_c, 0, 50, 0
3, 87360, Note_on_c, 0, 50, 48
3, 87360, Note_on_c, 0, 57, 48
3, 87360, Note_on_c, 0, 60, 57
3, 87367, Control_c, 0, 64, 0
3, 87523, Control_c, 0, 64, 127
3, 87720, Note_on_c, 0, 60, 0
3, 87720, Note_on_c, 0, 57, 0
3, 87720, Note_on_c, 0, 50, 0
3, 87720, Note_on_c, 0, 50, 42
3, 87720, Note_on_c, 0, 55, 42
3, 87720, Note_on_c, 0, 59, 51
3, 87840, Note_on_c, 0, 59, 0
3, 87840, Note_on_c, 0, 55, 0
3, 87840, Note_on_c, 0, 50, 0
3, 87840, Note_on_c, 0, 50, 38
3, 87840, Note_on_c, 0, 55, 38
3, 87840, Note_on_c, 0, 59, 45
3, 87848, Control_c, 0, 64, 0
3, 88017, Control_c, 0, 64, 127
3, 88320, Note_on_c, 0, 59, 0
3, 88320, Note_on_c, 0, 55, 0
3, 88320, Note_on_c, 0, 50, 0
3, 88320, Note_on_c, 0, 50, 27
3, 88320, Note_on_c, 0, 54, 27
3, 88320, Note_on_c, 0, 57, 32
3, 88330, Control_c, 0, 64, 0
3, 88484, Control_c, 0, 64, 127
3, 88560, Note_on_c, 0, 57, 0
3, 88560, Note_on_c, 0, 54, 0
3, 88560, Note_on_c, 0, 50, 0
3, 88560, Note_on_c, 0, 50, 26
3, 88560, Note_on_c, 0, 52, 26
3, 88560, Note_on_c, 0, 55, 31
3, 88800, Note_on_c, 0, 55, 0
3, 88800, Note_on_c, 0, 52, 0
3, 88800, Note_on_c, 0, 50, 0
3, 88800, Note_on_c, 0, 50, 28
3, 88800, Note_on_c, 0, 54, 28
3, 88800, Note_on_c, 0, 57, 33
3, 88805, Control_c, 0, 64, 0
3, 88964, Control_c, 0, 64, 127
3, 89280, Note_on_c, 0, 57, 0
3, 89280, Note_on_c, 0, 54, 0
3, 89280, Note_on_c, 0, 50, 0
3, 89280, Control_c, 0, 64, 0
3, 89280, Note_on_c, 0, 47, 45
3, 89280, Note_on_c, 0, 43, 31
3, 89400, Control_c, 0, 64, 127
3, 89440, Note_on_c, 0, 47, 0
3, 89440, Note_on_c, 0, 50, 36
3, 89600, Note_on_c, 0, 50, 0
3, 89600, Note_on_c, 0, 55, 31
3, 89760, Note_on_c, 0, 55, 0
3, 89760, Note_on_c, 0, 47, 42
3, 89920, Note_on_c, 0, 47, 0
3, 89920, Note_on_c, 0, 50, 33
3, 90080, Note_on_c, 0, 50, 0
3, 90080, Note_on_c, 0, 55, 27
3, 90240, Note_on_c, 0, 55, 0
3, 90240, Note_on_c, 0, 45, 41
3, 90252, Control_c, 0, 64, 0
3, 90381, Control_c, 0, 64, 127
3, 90400, Note_on_c, 0, 45, 0
3, 90400, Note_on_c, 0, 50, 33
3, 90560, Note_on_c, 0, 50, 0
3, 90560, Note_on_c, 0, 54, 27
3, 90720, Note_on_c, 0, 54, 0
3, 90720, Note_on_c, 0, 43, 0
3, 90720, Note_on_c, 0, 48, 45
3, 90720, Note_on_c, 0, 43, 31
3, 90724, Control_c, 0, 64, 0
3, 90826, Control_c, 0, 64, 127
3, 90880, Note_on_c, 0, 48, 0
3, 90880, Note_on_c, 0, 50, 36
3, 91040, Note_on_c, 0, 50, 0
3, 91040, Note_on_c, 0, 57, 29
3, 91200, Note_on_c, 0, 57, 0
3, 91200, Note_on_c, 0, 48, 43
3, 91360, Note_on_c, 0, 48, 0
3, 91360, Note_on_c, 0, 50, 33
3, 91520, Note_on_c, 0, 50, 0
3, 91520, Note_on_c, 0, 57, 28
3, 91680, Note_on_c, 0, 57, 0
3, 91680, Note_on_c, 0, 47, 43
3, 91687, Control_c, 0, 64, 0
3, 91814, Control_c, 0, 64, 127
3, 91840, Note_on_c, 0, 47, 0
3, 91840, Note_on_c, 0, 50, 33
3, 92000, Note_on_c, 0, 50, 0
3, 92000, Note_on_c, 0, 55, 28
3, 92160, Note_on_c, 0, 55, 0
3, 92160, Note_on_c, 0, 43, 0
3, 92160, Control_c, 0, 64, 0
3, 92160, Note_on_c, 0, 50, 46
3, 92160, Note_on_c, 0, 47, 39
3, 92160, Note_on_c, 0, 43, 39
3, 92252, Control_c, 0, 64, 127
3, 92640, Note_on_c, 0, 43, 0
3, 92640, Note_on_c, 0, 47, 0
3, 92640, Note_on_c, 0, 50, 0
3, 92640, Note_on_c, 0, 43, 46
3, 92640, Note_on_c, 0, 48, 46
3, 92640, Note_on_c, 0, 52, 55
3, 92656, Control_c, 0, 64, 0
3, 92774, Control_c, 0, 64, 127
3, 92880, Note_on_c, 0, 52, 0
3, 92880, Note_on_c, 0, 48, 0
3, 92880, Note_on_c, 0, 43, 0
3, 92880, Note_on_c, 0, 43, 49
3, 92880, Note_on_c, 0, 45, 49
3, 92880, Note_on_c, 0, 54, 58
3, 93120, Note_on_c, 0, 54, 0
3, 93120, Note_on_c, 0, 45, 0
3, 93120, Note_on_c, 0, 43, 0
3, 93120, Note_on_c, 0, 43, 57
3, 93120, Note_on_c, 0, 55, 68
3, 93120, Note_on_c, 0, 47, 57
3, 93127, Control_c, 0, 64, 0
3, 93219, Control_c, 0, 64, 127
3, 93480, Note_on_c, 0, 47, 0
3, 93480, Note_on_c, 0, 55, 0
3, 93480, Note_on_c, 0, 43, 0
3, 93480, Note_on_c, 0, 50, 41
3, 93480, Note_on_c, 0, 55, 41
3, 93480, Note_on_c, 0, 59, 49
3, 93600, Note_on_c, 0, 59, 0
3, 93600, Note_on_c, 0, 55, 0
3, 93600, Note_on_c, 0, 50, 0
3, 93600, Note_on_c, 0, 50, 45
3, 93600, Note_on_c, 0, 62, 54
3, 93600, Note_on_c, 0, 59, 45
3, 93605, Control_c, 0, 64, 0
3, 93727, Control_c, 0, 64, 127
3, 94080, Note_on_c, 0, 59, 0
3, 94080, Note_on_c, 0, 62, 0
3, 94080, Note_on_c, 0, 50, 0
3, 94080, Note_on_c, 0, 50, 39
3, 94080, Note_on_c, 0, 57, 39
3, 94080, Note_on_c, 0, 60, 46
3, 94089, Control_c, 0, 64, 0
3, 94200, Control_c, 0, 64, 127
3, 94440, Note_on_c, 0, 60, 0
3, 94440, Note_on_c, 0, 57, 0
3, 94440, Note_on_c, 0, 50, 0
3, 94440, Note_on_c, 0, 55, 31
3, 94440, Note_on_c, 0, 59, 37
3, 94560, Note_on_c, 0, 59, 0
3, 94560, Note_on_c, 0, 55, 0
3, 94560, Note_on_c, 0, 55, 28
3, 94560, Note_on_c, 0, 59, 34
3, 94569, Control_c, 0, 64, 0
3, 94701, Control_c, 0, 64, 127
3, 95040, Note_on_c, 0, 59, 0
3, 95040, Note_on_c, 0, 55, 0
3, 95040, Note_on_c, 0, 47, 45
3, 95040, Note_on_c, 0, 43, 31
3, 95045, Control_c, 0, 64, 0
3, 95139, Control_c, 0, 64, 127
3, 95200, Note_on_c, 0, 47, 0
3, 95200, Note_on_c, 0, 50, 36
3, 95360, Note_on_c, 0, 50, 0
3, 95360, Note_on_c, 0, 55, 31
3, 95520, Note_on_c, 0, 55, 0
3, 95520, Note_on_c, 0, 47, 42
3, 95680, Note_on_c, 0, 47, 0
3, 95680, Note_on_c, 0, 50, 33
3, 95840, Note_on_c, 0, 50, 0
3, 95840, Note_on_c, 0, 55, 27
3, 96000, Note_on_c, 0, 55, 0
3, 96000, Note_on_c, 0, 45, 41
3, 96014, Control_c, 0, 64, 0
3, 96120, Control_c, 0, 64, 127
3, 96160, Note_on_c, 0, 45, 0
3, 96160, Note_on_c, 0, 50, 33
3, 96320, Note_on_c, 0, 50, 0
3, 96320, Note_on_c, 0, 54, 27
3, 96480, Note_on_c, 0, 54, 0
3, 96480, Note_on_c, 0, 43, 0
3, 96480, Note_on_c, 0, 48, 45
3, 96480, Note_on_c, 0, 43, 31
3, 96485, Control_c, 0, 64, 0
3, 96614, Control_c, 0, 64, 127
3, 96640, Note_on_c, 0, 48, 0
3, 96640, Note_on_c, 0, 50, 36
3, 96800, Note_on_c, 0, 50, 0
3, 96800, Note_on_c, 0, 57, 29
3, 96960, Note_on_c, 0, 57, 0
3, 96960, Note_on_c, 0, 48, 43
3, 97120, Note_on_c, 0, 48, 0
3, 97120, Note_on_c, 0, 50, 33
3, 97280, Note_on_c, 0, 50, 0
3, 97280, Note_on_c, 0, 57, 28
3, 97440, Note_on_c, 0, 57, 0
3, 97440, Note_on_c, 0, 47, 43
3, 97447, Control_c, 0, 64, 0
3, 97546, Control_c, 0, 64, 127
3, 97600, Note_on_c, 0, 47, 0
3, 97600, Note_on_c, 0, 50, 33
3, 97760, Note_on_c, 0, 50, 0
3, 97760, Note_on_c, 0, 55, 28
3, 97920, Note_on_c, 0, 55, 0
3, 97920, Note_on_c, 0, 43, 0
3, 97920, Note_on_c, 0, 47, 42
3, 98080, Note_on_c, 0, 47, 0
3, 98080, Note_on_c, 0, 50, 33
3, 98240, Note_on_c, 0, 50, 0
3, 98240, Note_on_c, 0, 55, 28
3, 98400, Note_on_c, 0, 55, 0
3, 98400, Note_on_c, 0, 50, 42
3, 98400, Note_on_c, 0, 54, 42
3, 98400, Note_on_c, 0, 57, 50
3, 98407, Control_c, 0, 64, 0
3, 98513, Control_c, 0, 64, 127
3, 98640, Note_on_c, 0, 57, 0
3, 98640, Note_on_c, 0, 54, 0
3, 98640, Note_on_c, 0, 50, 0
3, 98640, Note_on_c, 0, 50, 45
3, 98640, Note_on_c, 0, 55, 45
3, 98640, Note_on_c, 0, 59, 53
3, 98880, Note_on_c, 0, 59, 0
3, 98880, Note_on_c, 0, 55, 0
3, 98880, Note_on_c, 0, 50, 0
3, 98880, Note_on_c, 0, 50, 48
3, 98880, Note_on_c, 0, 57, 57
3, 98880, Note_on_c, 0, 60, 57
3, 98885, Control_c, 0, 64, 0
3, 99000, Control_c, 0, 64, 127
3, 99240, Note_on_c, 0, 60, 0
3, 99240, Note_on_c, 0, 57, 0
3, 99240, Note_on_c, 0, 50, 0
3, 99240, Note_on_c, 0, 50, 42
3, 99240, Note_on_c, 0, 55, 42
3, 99240, Note_on_c, 0, 59, 51
3, 99360, Note_on_c, 0, 59, 0
3, 99360, Note_on_c, 0, 55, 0
3, 99360, Note_on_c, 0, 50, 0
3, 99360, Note_on_c, 0, 50, 38
3, 99360, Note_on_c, 0, 55, 38
3, 99360, Note_on_c, 0, 59, 45
3, 99362, Control_c, 0, 64, 0
3, 99499, Control_c, 0, 64, 127
3, 99840, Note_on_c, 0, 59, 0
3, 99840, Note_on_c, 0, 55, 0
3, 99840, Note_on_c, 0, 50, 0
3, 99840, Note_on_c, 0, 50, 27
3, 99840, Note_on_c, 0, 54, 27
3, 99840, Note_on_c, 0, 57, 32
3, 99845, Control_c, 0, 64, 0
3, 99979, Control_c, 0, 64, 127
3, 100080, Note_on_c, 0, 57, 0
3, 100080, Note_on_c, 0, 54, 0
3, 100080, Note_on_c, 0, 50, 0
3, 100080, Note_on_c, 0, 50, 26
3, 100080, Note_on_c, 0, 52, 26
3, 100080, Note_on_c, 0, 55, 31
3, 100320, Note_on_c, 0, 55, 0
3, 100320, Note_on_c, 0, 52, 0
3, 100320, Note_on_c, 0, 50, 0
3, 100320, Note_on_c, 0, 50, 28
3, 100320, Note_on_c, 0, 54, 28
3, 100320, Note_on_c, 0, 57, 33
3, 100331, Control_c, 0, 64, 0
3, 100472, Control_c, 0, 64, 127
3, 100800, Note_on_c, 0, 57, 0
3, 100800, Note_on_c, 0, 54, 0
3, 100800, Note_on_c, 0, 50, 0
3, 100800, Note_on_c, 0, 47, 45
3, 100800, Note_on_c, 0, 43, 31
3, 100802, Control_c, 0, 64, 0
3, 100913, Control_c, 0, 64, 127
3, 100960, Note_on_c, 0, 47, 0
3, 100960, Note_on_c, 0, 50, 36
3, 101120, Note_on_c, 0, 50, 0
3, 101120, Note_on_c, 0, 55, 31
3, 101280, Note_on_c, 0, 55, 0
3, 101280, Note_on_c, 0, 47, 42
3, 101440, Note_on_c, 0, 47, 0
3, 101440, Note_on_c, 0, 50, 33
3, 101600, Note_on_c, 0, 50, 0
3, 101600, Note_on_c, 0, 55, 27
3, 101760, Note_on_c, 0, 55, 0
3, 101760, Note_on_c, 0, 45, 41
3, 101773, Control_c, 0, 64, 0
3, 101901, Control_c, 0, 64, 127
3, 101920, Note_on_c, 0, 45, 0
3, 101920, Note_on_c, 0, 50, 33
3, 102080, Note_on_c, 0, 50, 0
3, 102080, Note_on_c, 0, 54, 27
3, 102240, Note_on_c, 0, 54, 0
3, 102240, Note_on_c, 0, 43, 0
3, 102240, Note_on_c, 0, 48, 45
3, 102240, Note_on_c, 0, 43, 31
3, 102244, Control_c, 0, 64, 0
3, 102396, Control_c, 0, 64, 127
3, 102400, Note_on_c, 0, 48, 0
3, 102400, Note_on_c, 0, 50, 36
3, 102560, Note_on_c, 0, 50, 0
3, 102560, Note_on_c, 0, 57, 29
3, 102720, Note_on_c, 0, 57, 0
3, 102720, Note_on_c, 0, 48, 43
3, 102880, Note_on_c, 0, 48, 0
3, 102880, Note_on_c, 0, 50, 33
3, 103040, Note_on_c, 0, 50, 0
3, 103040, Note_on_c, 0, 57, 28
3, 103200, Note_on_c, 0, 57, 0
3, 103200, Note_on_c, 0, 47, 43
3, 103213, Control_c, 0, 64, 0
3, 103292, Control_c, 0, 64, 127
3, 103360, Note_on_c, 0, 47, 0
3, 103360, Note_on_c, 0, 50, 33
3, 103520, Note_on_c, 0, 50, 0
3, 103520, Note_on_c, 0, 55, 28
3, 103680, Note_on_c, 0, 55, 0
3, 103680, Note_on_c, 0, 43, 0
3, 103680, Control_c, 0, 64, 0
3, 103680, Note_on_c, 0, 50, 46
3, 103680, Note_on_c, 0, 47, 39
3, 103680, Note_on_c, 0, 43, 39
3, 103772, Control_c, 0, 64, 127
3, 104160, Note_on_c, 0, 43, 0
3, 104160, Note_on_c, 0, 47, 0
3, 104160, Note_on_c, 0, 50, 0
3, 104160, Note_on_c, 0, 43, 46
3, 104160, Note_on_c, 0, 48, 46
3, 104160, Note_on_c, 0, 52, 55
3, 104173, Control_c, 0, 64, 0
3, 104273, Control_c, 0, 64, 127
3, 104400, Note_on_c, 0, 52, 0
3, 104400, Note_on_c, 0, 48, 0
3, 104400, Note_on_c, 0, 43, 0
3, 104400, Note_on_c, 0, 43, 49
3, 104400, Note_on_c, 0, 45, 49
3, 104400, Note_on_c, 0, 54, 58
3, 104640, Note_on_c, 0, 54, 0
3, 104640, Note_on_c, 0, 45, 0
3, 104640, Note_on_c, 0, 43, 0
3, 104640, Note_on_c, 0, 43, 57
3, 104640, Note_on_c, 0, 55, 68
3, 104640, Note_on_c, 0, 47, 57
3, 104647, Control_c, 0, 64, 0
3, 104739, Control_c, 0, 64, 127
3, 105000, Note_on_c, 0, 47, 0
3, 105000, Note_on_c, 0, 55, 0
3, 105000, Note_on_c, 0, 43, 0
3, 105000, Note_on_c, 0, 50, 41
3, 105000, Note_on_c, 0, 55, 41
3, 105000, Note_on_c, 0, 59, 49
3, 105120, Note_on_c, 0, 59, 0
3, 105120, Note_on_c, 0, 55, 0
3, 105120, Note_on_c, 0, 50, 0
3, 105120, Note_on_c, 0, 50, 45
3, 105120, Note_on_c, 0, 62, 54
3, 105120, Note_on_c, 0, 59, 45
3, 105126, Control_c, 0, 64, 0
3, 105219, Control_c, 0, 64, 127
3, 105600, Note_on_c, 0, 59, 0
3, 105600, Note_on_c, 0, 62, 0
3, 105600, Note_on_c, 0, 50, 0
3, 105600, Note_on_c, 0, 50, 39
3, 105600, Note_on_c, 0, 57, 39
3, 105600, Note_on_c, 0, 60, 46
3, 105614, Control_c, 0, 64, 0
3, 105748, Control_c, 0, 64, 127
3, 105960, Note_on_c, 0, 60, 0
3, 105960, Note_on_c, 0, 57, 0
3, 105960, Note_on_c, 0, 50, 0
3, 105960, Note_on_c, 0, 55, 31
3, 105960, Note_on_c, 0, 59, 37
3, 106080, Note_on_c, 0, 59, 0
3, 106080, Note_on_c, 0, 55, 0
3, 106080, Note_on_c, 0, 55, 28
3, 106080, Note_on_c, 0, 59, 34
3, 106086, Control_c, 0, 64, 0
3, 106179, Control_c, 0, 64, 127
3, 106550, Note_on_c, 0, 59, 0
3, 106550, Note_on_c, 0, 55, 0
3, 106560, Control_c, 0, 64, 0
3, 106560, Note_on_c, 0, 38, 30
3, 106659, Control_c, 0, 64, 127
3, 106720, Note_on_c, 0, 38, 0
3, 106720, Note_on_c, 0, 45, 26
3, 106880, Note_on_c, 0, 45, 0
3, 106880, Note_on_c, 0, 38, 27
3, 107040, Note_on_c, 0, 38, 0
3, 107040, Note_on_c, 0, 33, 30
3, 107054, Control_c, 0, 64, 0
3, 107139, Control_c, 0, 64, 127
3, 107200, Note_on_c, 0, 33, 0
3, 107200, Note_on_c, 0, 38, 26
3, 107360, Note_on_c, 0, 38, 0
3, 107360, Note_on_c, 0, 33, 26
3, 107520, Note_on_c, 0, 33, 0
3, 107520, Note_on_c, 0, 38, 30
3, 107534, Control_c, 0, 64, 0
3, 107626, Control_c, 0, 64, 127
3, 107680, Note_on_c, 0, 38, 0
3, 107680, Note_on_c, 0, 45, 26
3, 107840, Note_on_c, 0, 45, 0
3, 107840, Note_on_c, 0, 38, 26
3, 108000, Note_on_c, 0, 38, 0
3, 108000, Control_c, 0, 64, 0
3, 108000, Note_on_c, 0, 33, 32
3, 108069, Control_c, 0, 64, 127
3, 108160, Note_on_c, 0, 33, 0
3, 108160, Note_on_c, 0, 38, 27
3, 108320, Note_on_c, 0, 38, 0
3, 108320, Note_on_c, 0, 33, 27
3, 108480, Note_on_c, 0, 33, 0
3, 108480, Note_on_c, 0, 38, 33
3, 108491, Control_c, 0, 64, 0
3, 108577, Control_c, 0, 64, 127
3, 108640, Note_on_c, 0, 38, 0
3, 108640, Note_on_c, 0, 45, 29
3, 108800, Note_on_c, 0, 45, 0
3, 108800, Note_on_c, 0, 38, 29
3, 108960, Note_on_c, 0, 38, 0
3, 108960, Note_on_c, 0, 33, 34
3, 108966, Control_c, 0, 64, 0
3, 109057, Control_c, 0, 64, 127
3, 109120, Note_on_c, 0, 33, 0
3, 109120, Note_on_c, 0, 37, 29
3, 109280, Note_on_c, 0, 37, 0
3, 109280, Note_on_c, 0, 33, 29
3, 109440, Note_on_c, 0, 33, 0
3, 109440, Control_c, 0, 64, 0
3, 109440, Note_on_c, 0, 37, 30
3, 109509, Control_c, 0, 64, 127
3, 109600, Note_on_c, 0, 37, 0
3, 109600, Note_on_c, 0, 45, 27
3, 109760, Note_on_c, 0, 45, 0
3, 109760, Note_on_c, 0, 37, 27
3, 109920, Note_on_c, 0, 37, 0
3, 109920, Note_on_c, 0, 33, 30
3, 109931, Control_c, 0, 64, 0
3, 110023, Control_c, 0, 64, 127
3, 110080, Note_on_c, 0, 33, 0
3, 110080, Note_on_c, 0, 37, 27
3, 110240, Note_on_c, 0, 37, 0
3, 110240, Note_on_c, 0, 33, 27
3, 110400, Note_on_c, 0, 33, 0
3, 110400, Note_on_c, 0, 37, 33
3, 110413, Control_c, 0, 64, 0
3, 110509, Control_c, 0, 64, 127
3, 110560, Note_on_c, 0, 37, 0
3, 110560, Note_on_c, 0, 45, 29
3, 110720, Note_on_c, 0, 45, 0
3, 110720, Note_on_c, 0, 37, 29
3, 110880, Note_on_c, 0, 37, 0
3, 110880, Control_c, 0, 64, 0
3, 110880, Note_on_c, 0, 33, 34
3, 110960, Control_c, 0, 64, 127
3, 111040, Note_on_c, 0, 33, 0
3, 111040, Note_on_c, 0, 37, 30
3, 111200, Note_on_c, 0, 37, 0
3, 111200, Note_on_c, 0, 33, 30
3, 111360, Note_on_c, 0, 33, 0
3, 111360, Note_on_c, 0, 37, 35
3, 111371, Control_c, 0, 64, 0
3, 111452, Control_c, 0, 64, 127
3, 111520, Note_on_c, 0, 37, 0
3, 111520, Note_on_c, 0, 45, 30
3, 111680, Note_on_c, 0, 45, 0
3, 111680, Note_on_c, 0, 37, 30
3, 111840, Note_on_c, 0, 37, 0
3, 111840, Note_on_c, 0, 33, 35
3, 111845, Control_c, 0, 64, 0
3, 111920, Control_c, 0, 64, 127
3, 112000, Note_on_c, 0, 33, 0
3, 112000, Note_on_c, 0, 38, 30
3, 112160, Note_on_c, 0, 38, 0
3, 112160, Note_on_c, 0, 33, 30
3, 112320, Note_on_c, 0, 33, 0
3, 112320, Control_c, 0, 64, 0
3, 112320, Note_on_c, 0, 38, 34
3, 112440, Control_c, 0, 64, 127
3, 112480, Note_on_c, 0, 38, 0
3, 112480, Note_on_c, 0, 45, 29
3, 112640, Note_on_c, 0, 45, 0
3, 112640, Note_on_c, 0, 38, 31
3, 112800, Note_on_c, 0, 38, 0
3, 112800, Note_on_c, 0, 33, 34
3, 112807, Control_c, 0, 64, 0
3, 112913, Control_c, 0, 64, 127
3, 112960, Note_on_c, 0, 33, 0
3, 112960, Note_on_c, 0, 38, 29
3, 113120, Note_on_c, 0, 38, 0
3, 113120, Note_on_c, 0, 33, 29
3, 113280, Note_on_c, 0, 33, 0
3, 113280, Note_on_c, 0, 38, 39
3, 113294, Control_c, 0, 64, 0
3, 113386, Control_c, 0, 64, 127
3, 113440, Note_on_c, 0, 38, 0
3, 113440, Note_on_c, 0, 45, 34
3, 113600, Note_on_c, 0, 45, 0
3, 113600, Note_on_c, 0, 38, 34
3, 113760, Note_on_c, 0, 38, 0
3, 113760, Note_on_c, 0, 33, 36
3, 113766, Control_c, 0, 64, 0
3, 113863, Control_c, 0, 64, 127
3, 113920, Note_on_c, 0, 33, 0
3, 113920, Note_on_c, 0, 38, 31
3, 114080, Note_on_c, 0, 38, 0
3, 114080, Note_on_c, 0, 33, 31
3, 114240, Note_on_c, 0, 33, 0
3, 114240, Note_on_c, 0, 37, 37
3, 114251, Control_c, 0, 64, 0
3, 114349, Control_c, 0, 64, 127
3, 114400, Note_on_c, 0, 37, 0
3, 114400, Note_on_c, 0, 45, 33
3, 114560, Note_on_c, 0, 45, 0
3, 114560, Note_on_c, 0, 37, 33
3, 114720, Note_on_c, 0, 37, 0
3, 114720, Note_on_c, 0, 33, 35
3, 114725, Control_c, 0, 64, 0
3, 114800, Control_c, 0, 64, 127
3, 114880, Note_on_c, 0, 33, 0
3, 114880, Note_on_c, 0, 37, 31
3, 115040, Note_on_c, 0, 37, 0
3, 115040, Note_on_c, 0, 33, 30
3, 115200, Note_on_c, 0, 33, 0
3, 115200, Note_on_c, 0, 38, 36
3, 115204, Control_c, 0, 64, 0
3, 115285, Control_c, 0, 64, 127
3, 115360, Note_on_c, 0, 38, 0
3, 115360, Note_on_c, 0, 45, 29
3, 115520, Note_on_c, 0, 45, 0
3, 115520, Note_on_c, 0, 38, 31
3, 115680, Note_on_c, 0, 38, 0
3, 115680, Note_on_c, 0, 33, 37
3, 115696, Control_c, 0, 64, 0
3, 115814, Control_c, 0, 64, 127
3, 115840, Note_on_c, 0, 33, 0
3, 115840, Note_on_c, 0, 38, 30
3, 116000, Note_on_c, 0, 38, 0
3, 116000, Note_on_c, 0, 33, 30
3, 116160, Note_on_c, 0, 33, 0
3, 116160, Note_on_c, 0, 38, 36
3, 116320, Note_on_c, 0, 38, 0
3, 116320, Note_on_c, 0, 45, 32
3, 116480, Note_on_c, 0, 45, 0
3, 116480, Note_on_c, 0, 38, 32
3, 116640, Note_on_c, 0, 38, 0
3, 116640, Note_on_c, 0, 33, 42
3, 116641, Control_c, 0, 64, 0
3, 116760, Control_c, 0, 64, 127
3, 116800, Note_on_c, 0, 33, 0
3, 116800, Note_on_c, 0, 38, 39
3, 116960, Note_on_c, 0, 38, 0
3, 116960, Note_on_c, 0, 33, 39
3, 117120, Note_on_c, 0, 33, 0
3, 117120, Note_on_c, 0, 35, 43
3, 117127, Control_c, 0, 64, 0
3, 117219, Control_c, 0, 64, 127
3, 117280, Note_on_c, 0, 35, 0
3, 117280, Note_on_c, 0, 38, 39
3, 117440, Note_on_c, 0, 38, 0
3, 117440, Note_on_c, 0, 36, 40
3, 117597, Note_on_c, 0, 36, 0
3, 117600, Note_on_c, 0, 36, 46
3, 117611, Control_c, 0, 64, 0
3, 117699, Control_c, 0, 64, 127
3, 117760, Note_on_c, 0, 36, 0
3, 117760, Note_on_c, 0, 38, 42
3, 117920, Note_on_c, 0, 38, 0
3, 117920, Note_on_c, 0, 36, 42
3, 118080, Note_on_c, 0, 36, 0
3, 118080, Note_on_c, 0, 33, 48
3, 118083, Control_c, 0, 64, 0
3, 118179, Control_c, 0, 64, 127
3, 118240, Note_on_c, 0, 33, 0
3, 118240, Note_on_c, 0, 38, 43
3, 118400, Note_on_c, 0, 38, 0
3, 118400, Note_on_c, 0, 33, 43
3, 118560, Note_on_c, 0, 33, 0
3, 118560, Note_on_c, 0, 35, 49
3, 118577, Control_c, 0, 64, 0
3, 118680, Control_c, 0, 64, 127
3, 118720, Note_on_c, 0, 35, 0
3, 118720, Note_on_c, 0, 38, 44
3, 118880, Note_on_c, 0, 38, 0
3, 118880, Note_on_c, 0, 36, 44
3, 119040, Note_on_c, 0, 36, 0
3, 119040, Note_on_c, 0, 36, 54
3, 119052, Control_c, 0, 64, 0
3, 119146, Control_c, 0, 64, 127
3, 119200, Note_on_c, 0, 36, 0
3, 119200, Note_on_c, 0, 38, 44
3, 119360, Note_on_c, 0, 38, 0
3, 119360, Note_on_c, 0, 36, 46
3, 119520, Note_on_c, 0, 36, 0
3, 119520, Note_on_c, 0, 33, 57
3, 119524, Control_c, 0, 64, 0
3, 119626, Control_c, 0, 64, 127
3, 119680, Note_on_c, 0, 33, 0
3, 119680, Note_on_c, 0, 38, 51
3, 119840, Note_on_c, 0, 38, 0
3, 119840, Note_on_c, 0, 33, 51
3, 120000, Note_on_c, 0, 33, 0
3, 120000, Note_on_c, 0, 35, 64
3, 120014, Control_c, 0, 64, 0
3, 120092, Control_c, 0, 64, 127
3, 120160, Note_on_c, 0, 35, 0
3, 120160, Note_on_c, 0, 38, 54
3, 120320, Note_on_c, 0, 38, 0
3, 120320, Note_on_c, 0, 36, 54
3, 120477, Note_on_c, 0, 36, 0
3, 120480, Note_on_c, 0, 36, 71
3, 120487, Control_c, 0, 64, 0
3, 120586, Control_c, 0, 64, 127
3, 120640, Note_on_c, 0, 36, 0
3, 120640, Note_on_c, 0, 38, 55
3, 120800, Note_on_c, 0, 38, 0
3, 120800, Note_on_c, 0, 36, 55
3, 120960, Note_on_c, 0, 36, 0
3, 120960, Note_on_c, 0, 38, 72
3, 120964, Control_c, 0, 64, 0
3, 121059, Control_c, 0, 64, 127
3, 121120, Note_on_c, 0, 38, 0
3, 121120, Note_on_c, 0, 50, 62
3, 121280, Note_on_c, 0, 50, 0
3, 121280, Note_on_c, 0, 38, 62
3, 121440, Note_on_c, 0, 38, 0
3, 121440, Note_on_c, 0, 40, 69
3, 121447, Control_c, 0, 64, 0
3, 121567, Control_c, 0, 64, 127
3, 121600, Note_on_c, 0, 40, 0
3, 121600, Note_on_c, 0, 50, 57
3, 121760, Note_on_c, 0, 50, 0
3, 121760, Note_on_c, 0, 42, 60
3, 121920, Note_on_c, 0, 42, 0
3, 121920, Note_on_c, 0, 42, 66
3, 121927, Control_c, 0, 64, 0
3, 122019, Control_c, 0, 64, 127
3, 122080, Note_on_c, 0, 42, 0
3, 122080, Note_on_c, 0, 50, 60
3, 122240, Note_on_c, 0, 50, 0
3, 122240, Note_on_c, 0, 42, 60
3, 122400, Note_on_c, 0, 42, 0
3, 122400, Control_c, 0, 64, 0
3, 122400, Note_on_c, 0, 42, 43
3, 122533, Control_c, 0, 64, 127
3, 122560, Note_on_c, 0, 42, 0
3, 122560, Note_on_c, 0, 50, 36
3, 122720, Note_on_c, 0, 50, 0
3, 122720, Note_on_c, 0, 42, 37
3, 122880, Note_on_c, 0, 42, 0
3, 122880, Note_on_c, 0, 50, 37
3, 122883, Control_c, 0, 64, 0
3, 122981, Control_c, 0, 64, 127
3, 123040, Note_on_c, 0, 50, 0
3, 123040, Note_on_c, 0, 42, 33
3, 123200, Note_on_c, 0, 42, 0
3, 123200, Note_on_c, 0, 50, 33
3, 123360, Note_on_c, 0, 50, 0
3, 123360, Note_on_c, 0, 42, 37
3, 123372, Control_c, 0, 64, 0
3, 123487, Control_c, 0, 64, 127
3, 123520, Note_on_c, 0, 42, 0
3, 123520, Note_on_c, 0, 50, 31
3, 123680, Note_on_c, 0, 50, 0
3, 123680, Note_on_c, 0, 42, 31
3, 123840, Note_on_c, 0, 42, 0
3, 123840, Note_on_c, 0, 50, 35
3, 124000, Note_on_c, 0, 50, 0
3, 124000, Note_on_c, 0, 42, 30
3, 124160, Note_on_c, 0, 42, 0
3, 124160, Note_on_c, 0, 50, 30
3, 124320, Note_on_c, 0, 50, 0
3, 124320, Note_on_c, 0, 42, 35
3, 124480, Note_on_c, 0, 42, 0
3, 124480, Note_on_c, 0, 50, 30
3, 124640, Note_on_c, 0, 50, 0
3, 124640, Note_on_c, 0, 42, 30
3, 124800, Note_on_c, 0, 42, 0
3, 124800, Note_on_c, 0, 50, 35
3, 124960, Note_on_c, 0, 50, 0
3, 124960, Note_on_c, 0, 42, 29
3, 125120, Note_on_c, 0, 42, 0
3, 125120, Note_on_c, 0, 50, 29
3, 125280, Note_on_c, 0, 50, 0
3, 125280, Control_c, 0, 64, 0
3, 125280, Note_on_c, 0, 46, 45
3, 125280, Note_on_c, 0, 43, 31
3, 125383, Control_c, 0, 64, 127
3, 125440, Note_on_c, 0, 46, 0
3, 125440, Note_on_c, 0, 50, 36
3, 125600, Note_on_c, 0, 50, 0
3, 125600, Note_on_c, 0, 55, 31
3, 125760, Note_on_c, 0, 55, 0
3, 125760, Note_on_c, 0, 46, 42
3, 125920, Note_on_c, 0, 46, 0
3, 125920, Note_on_c, 0, 50, 33
3, 126080, Note_on_c, 0, 50, 0
3, 126080, Note_on_c, 0, 55, 27
3, 126240, Note_on_c, 0, 55, 0
3, 126240, Note_on_c, 0, 45, 41
3, 126252, Control_c, 0, 64, 0
3, 126337, Control_c, 0, 64, 127
3, 126400, Note_on_c, 0, 45, 0
3, 126400, Note_on_c, 0, 50, 33
3, 126560, Note_on_c, 0, 50, 0
3, 126560, Note_on_c, 0, 54, 27
3, 126720, Note_on_c, 0, 54, 0
3, 126720, Note_on_c, 0, 43, 0
3, 126720, Note_on_c, 0, 48, 45
3, 126720, Note_on_c, 0, 43, 31
3, 126726, Control_c, 0, 64, 0
3, 126806, Control_c, 0, 64, 127
3, 126880, Note_on_c, 0, 48, 0
3, 126880, Note_on_c, 0, 50, 36
3, 127040, Note_on_c, 0, 50, 0
3, 127040, Note_on_c, 0, 57, 29
3, 127200, Note_on_c, 0, 57, 0
3, 127200, Note_on_c, 0, 48, 43
3, 127360, Note_on_c, 0, 48, 0
3, 127360, Note_on_c, 0, 50, 33
3, 127520, Note_on_c, 0, 50, 0
3, 127520, Note_on_c, 0, 57, 28
3, 127680, Note_on_c, 0, 57, 0
3, 127680, Note_on_c, 0, 46, 43
3, 127694, Control_c, 0, 64, 0
3, 127766, Control_c, 0, 64, 127
3, 127840, Note_on_c, 0, 46, 0
3, 127840, Note_on_c, 0, 50, 33
3, 128000, Note_on_c, 0, 50, 0
3, 128000, Note_on_c, 0, 55, 28
3, 128160, Note_on_c, 0, 55, 0
3, 128160, Note_on_c, 0, 43, 0
3, 128160, Note_on_c, 0, 46, 42
3, 128320, Note_on_c, 0, 46, 0
3, 128320, Note_on_c, 0, 50, 33
3, 128480, Note_on_c, 0, 50, 0
3, 128480, Note_on_c, 0, 55, 28
3, 128640, Note_on_c, 0, 55, 0
3, 128640, Note_on_c, 0, 50, 39
3, 128640, Note_on_c, 0, 54, 39
3, 128640, Note_on_c, 0, 57, 39
3, 128645, Control_c, 0, 64, 0
3, 128732, Control_c, 0, 64, 127
3, 128880, Note_on_c, 0, 57, 0
3, 128880, Note_on_c, 0, 54, 0
3, 128880, Note_on_c, 0, 50, 0
3, 128880, Note_on_c, 0, 50, 41
3, 128880, Note_on_c, 0, 55, 41
3, 128880, Note_on_c, 0, 58, 49
3, 129120, Note_on_c, 0, 58, 0
3, 129120, Note_on_c, 0, 55, 0
3, 129120, Note_on_c, 0, 50, 0
3, 129120, Note_on_c, 0, 50, 44
3, 129120, Note_on_c, 0, 57, 44
3, 129120, Note_on_c, 0, 60, 52
3, 129125, Control_c, 0, 64, 0
3, 129189, Control_c, 0, 64, 127
3, 129480, Note_on_c, 0, 60, 0
3, 129480, Note_on_c, 0, 57, 0
3, 129480, Note_on_c, 0, 50, 0
3, 129480, Note_on_c, 0, 50, 39
3, 129480, Note_on_c, 0, 55, 39
3, 129480, Note_on_c, 0, 58, 47
3, 129600, Note_on_c, 0, 58, 0
3, 129600, Note_on_c, 0, 55, 0
3, 129600, Note_on_c, 0, 50, 0
3, 129600, Note_on_c, 0, 50, 38
3, 129600, Note_on_c, 0, 55, 38
3, 129600, Note_on_c, 0, 58, 45
3, 129603, Control_c, 0, 64, 0
3, 129714, Control_c, 0, 64, 127
3, 130080, Note_on_c, 0, 58, 0
3, 130080, Note_on_c, 0, 55, 0
3, 130080, Note_on_c, 0, 50, 0
3, 130080, Note_on_c, 0, 50, 27
3, 130080, Note_on_c, 0, 54, 27
3, 130080, Note_on_c, 0, 57, 32
3, 130087, Control_c, 0, 64, 0
3, 130219, Control_c, 0, 64, 127
3, 130320, Note_on_c, 0, 57, 0
3, 130320, Note_on_c, 0, 54, 0
3, 130320, Note_on_c, 0, 50, 0
3, 130320, Note_on_c, 0, 50, 26
3, 130320, Note_on_c, 0, 52, 26
3, 130320, Note_on_c, 0, 55, 31
3, 130560, Note_on_c, 0, 55, 0
3, 130560, Note_on_c, 0, 52, 0
3, 130560, Note_on_c, 0, 50, 0
3, 130560, Note_on_c, 0, 50, 28
3, 130560, Note_on_c, 0, 54, 28
3, 130560, Note_on_c, 0, 57, 33
3, 130572, Control_c, 0, 64, 0
3, 130724, Control_c, 0, 64, 127
3, 131040, Note_on_c, 0, 57, 0
3, 131040, Note_on_c, 0, 54, 0
3, 131040, Note_on_c, 0, 50, 0
3, 131040, Note_on_c, 0, 47, 45
3, 131040, Note_on_c, 0, 43, 31
3, 131043, Control_c, 0, 64, 0
3, 131146, Control_c, 0, 64, 127
3, 131200, Note_on_c, 0, 47, 0
3, 131200, Note_on_c, 0, 50, 36
3, 131360, Note_on_c, 0, 50, 0
3, 131360, Note_on_c, 0, 55, 31
3, 131520, Note_on_c, 0, 55, 0
3, 131520, Note_on_c, 0, 47, 42
3, 131680, Note_on_c, 0, 47, 0
3, 131680, Note_on_c, 0, 50, 33
3, 131840, Note_on_c, 0, 50, 0
3, 131840, Note_on_c, 0, 55, 27
3, 132000, Note_on_c, 0, 55, 0
3, 132000, Note_on_c, 0, 45, 41
3, 132007, Control_c, 0, 64, 0
3, 132134, Control_c, 0, 64, 127
3, 132160, Note_on_c, 0, 45, 0
3, 132160, Note_on_c, 0, 50, 33
3, 132320, Note_on_c, 0, 50, 0
3, 132320, Note_on_c, 0, 54, 27
3, 132480, Note_on_c, 0, 54, 0
3, 132480, Note_on_c, 0, 43, 0
3, 132480, Note_on_c, 0, 48, 45
3, 132480, Note_on_c, 0, 43, 31
3, 132486, Control_c, 0, 64, 0
3, 132579, Control_c, 0, 64, 127
3, 132640, Note_on_c, 0, 48, 0
3, 132640, Note_on_c, 0, 50, 36
3, 132800, Note_on_c, 0, 50, 0
3, 132800, Note_on_c, 0, 57, 29
3, 132960, Note_on_c, 0, 57, 0
3, 132960, Note_on_c, 0, 48, 43
3, 133120, Note_on_c, 0, 48, 0
3, 133120, Note_on_c, 0, 50, 33
3, 133280, Note_on_c, 0, 50, 0
3, 133280, Note_on_c, 0, 57, 28
3, 133440, Note_on_c, 0, 57, 0
3, 133440, Note_on_c, 0, 47, 43
3, 133447, Control_c, 0, 64, 0
3, 133539, Control_c, 0, 64, 127
3, 133600, Note_on_c, 0, 47, 0
3, 133600, Note_on_c, 0, 50, 33
3, 133760, Note_on_c, 0, 50, 0
3, 133760, Note_on_c, 0, 55, 28
3, 133920, Note_on_c, 0, 55, 0
3, 133920, Note_on_c, 0, 43, 0
3, 133920, Note_on_c, 0, 50, 46
3, 133920, Note_on_c, 0, 47, 39
3, 133920, Note_on_c, 0, 43, 39
3, 133922, Control_c, 0, 64, 0
3, 134019, Control_c, 0, 64, 127
3, 134400, Note_on_c, 0, 43, 0
3, 134400, Note_on_c, 0, 47, 0
3, 134400, Note_on_c, 0, 50, 0
3, 134400, Note_on_c, 0, 43, 46
3, 134400, Note_on_c, 0, 48, 46
3, 134400, Note_on_c, 0, 52, 55
3, 134412, Control_c, 0, 64, 0
3, 134485, Control_c, 0, 64, 127
3, 134640, Note_on_c, 0, 52, 0
3, 134640, Note_on_c, 0, 48, 0
3, 134640, Note_on_c, 0, 43, 0
3, 134640, Note_on_c, 0, 43, 49
3, 134640, Note_on_c, 0, 45, 49
3, 134640, Note_on_c, 0, 54, 58
3, 134880, Note_on_c, 0, 54, 0
3, 134880, Note_on_c, 0, 45, 0
3, 134880, Note_on_c, 0, 43, 0
3, 134880, Note_on_c, 0, 43, 57
3, 134880, Note_on_c, 0, 55, 68
3, 134880, Note_on_c, 0, 47, 57
3, 134885, Control_c, 0, 64, 0
3, 134972, Control_c, 0, 64, 127
3, 135240, Note_on_c, 0, 47, 0
3, 135240, Note_on_c, 0, 55, 0
3, 135240, Note_on_c, 0, 43, 0
3, 135240, Note_on_c, 0, 50, 41
3, 135240, Note_on_c, 0, 55, 41
3, 135240, Note_on_c, 0, 59, 49
3, 135360, Note_on_c, 0, 59, 0
3, 135360, Note_on_c, 0, 55, 0
3, 135360, Note_on_c, 0, 50, 0
3, 135360, Note_on_c, 0, 50, 45
3, 135360, Note_on_c, 0, 59, 45
3, 135364, Control_c, 0, 64, 0
3, 135480, Control_c, 0, 64, 127
3, 135840, Note_on_c, 0, 59, 0
3, 135840, Note_on_c, 0, 50, 0
3, 135840, Note_on_c, 0, 50, 39
3, 135840, Note_on_c, 0, 57, 39
3, 135840, Note_on_c, 0, 60, 46
3, 135847, Control_c, 0, 64, 0
3, 135939, Control_c, 0, 64, 127
3, 136200, Note_on_c, 0, 60, 0
3, 136200, Note_on_c, 0, 57, 0
3, 136200, Note_on_c, 0, 50, 0
3, 136200, Note_on_c, 0, 55, 31
3, 136200, Note_on_c, 0, 59, 37
3, 136320, Note_on_c, 0, 59, 0
3, 136320, Note_on_c, 0, 55, 0
3, 136320, Note_on_c, 0, 55, 28
3, 136320, Note_on_c, 0, 59, 34
3, 136329, Control_c, 0, 64, 0
3, 136440, Control_c, 0, 64, 127
3, 136800, Note_on_c, 0, 59, 0
3, 136800, Note_on_c, 0, 55, 0
3, 136800, Note_on_c, 0, 38, 30
3, 136804, Control_c, 0, 64, 0
3, 136899, Control_c, 0, 64, 127
3, 136960, Note_on_c, 0, 38, 0
3, 136960, Note_on_c, 0, 45, 26
3, 137120, Note_on_c, 0, 45, 0
3, 137120, Note_on_c, 0, 38, 27
3, 137280, Note_on_c, 0, 38, 0
3, 137280, Note_on_c, 0, 33, 30
3, 137286, Control_c, 0, 64, 0
3, 137365, Control_c, 0, 64, 127
3, 137440, Note_on_c, 0, 33, 0
3, 137440, Note_on_c, 0, 38, 26
3, 137600, Note_on_c, 0, 38, 0
3, 137600, Note_on_c, 0, 33, 26
3, 137760, Note_on_c, 0, 33, 0
3, 137760, Note_on_c, 0, 38, 30
3, 137767, Control_c, 0, 64, 0
3, 137852, Control_c, 0, 64, 127
3, 137920, Note_on_c, 0, 38, 0
3, 137920, Note_on_c, 0, 45, 26
3, 138080, Note_on_c, 0, 45, 0
3, 138080, Note_on_c, 0, 38, 26
3, 138240, Note_on_c, 0, 38, 0
3, 138240, Note_on_c, 0, 33, 32
3, 138243, Control_c, 0, 64, 0
3, 138332, Control_c, 0, 64, 127
3, 138400, Note_on_c, 0, 33, 0
3, 138400, Note_on_c, 0, 38, 27
3, 138560, Note_on_c, 0, 38, 0
3, 138560, Note_on_c, 0, 33, 27
3, 138720, Note_on_c, 0, 33, 0
3, 138720, Note_on_c, 0, 38, 33
3, 138725, Control_c, 0, 64, 0
3, 138800, Control_c, 0, 64, 127
3, 138880, Note_on_c, 0, 38, 0
3, 138880, Note_on_c, 0, 45, 29
3, 139040, Note_on_c, 0, 45, 0
3, 139040, Note_on_c, 0, 38, 29
3, 139200, Note_on_c, 0, 38, 0
3, 139200, Note_on_c, 0, 33, 34
3, 139203, Control_c, 0, 64, 0
3, 139280, Control_c, 0, 64, 127
3, 139360, Note_on_c, 0, 33, 0
3, 139360, Note_on_c, 0, 37, 29
3, 139520, Note_on_c, 0, 37, 0
3, 139520, Note_on_c, 0, 33, 29
3, 139680, Note_on_c, 0, 33, 0
3, 139680, Control_c, 0, 64, 0
3, 139680, Note_on_c, 0, 37, 30
3, 139783, Control_c, 0, 64, 127
3, 139840, Note_on_c, 0, 37, 0
3, 139840, Note_on_c, 0, 45, 27
3, 140000, Note_on_c, 0, 45, 0
3, 140000, Note_on_c, 0, 37, 27
3, 140160, Note_on_c, 0, 37, 0
3, 140160, Note_on_c, 0, 33, 30
3, 140167, Control_c, 0, 64, 0
3, 140246, Control_c, 0, 64, 127
3, 140320, Note_on_c, 0, 33, 0
3, 140320, Note_on_c, 0, 37, 27
3, 140480, Note_on_c, 0, 37, 0
3, 140480, Note_on_c, 0, 33, 27
3, 140640, Note_on_c, 0, 33, 0
3, 140640, Note_on_c, 0, 37, 33
3, 140653, Control_c, 0, 64, 0
3, 140737, Control_c, 0, 64, 127
3, 140800, Note_on_c, 0, 37, 0
3, 140800, Note_on_c, 0, 45, 29
3, 140960, Note_on_c, 0, 45, 0
3, 140960, Note_on_c, 0, 37, 29
3, 141120, Note_on_c, 0, 37, 0
3, 141120, Note_on_c, 0, 33, 34
3, 141123, Control_c, 0, 64, 0
3, 141229, Control_c, 0, 64, 127
3, 141280, Note_on_c, 0, 33, 0
3, 141280, Note_on_c, 0, 37, 30
3, 141440, Note_on_c, 0, 37, 0
3, 141440, Note_on_c, 0, 33, 30
3, 141600, Note_on_c, 0, 33, 0
3, 141600, Note_on_c, 0, 37, 35
3, 141611, Control_c, 0, 64, 0
3, 141692, Control_c, 0, 64, 127
3, 141760, Note_on_c, 0, 37, 0
3, 141760, Note_on_c, 0, 45, 30
3, 141920, Note_on_c, 0, 45, 0
3, 141920, Note_on_c, 0, 37, 30
3, 142080, Note_on_c, 0, 37, 0
3, 142080, Note_on_c, 0, 33, 35
3, 142094, Control_c, 0, 64, 0
3, 142183, Control_c, 0, 64, 127
3, 142240, Note_on_c, 0, 33, 0
3, 142240, Note_on_c, 0, 38, 30
3, 142400, Note_on_c, 0, 38, 0
3, 142400, Note_on_c, 0, 33, 30
3, 142560, Note_on_c, 0, 33, 0
3, 142560, Note_on_c, 0, 38, 34
3, 142563, Control_c, 0, 64, 0
3, 142687, Control_c, 0, 64, 127
3, 142720, Note_on_c, 0, 38, 0
3, 142720, Note_on_c, 0, 45, 29
3, 142880, Note_on_c, 0, 45, 0
3, 142880, Note_on_c, 0, 38, 31
3, 143040, Note_on_c, 0, 38, 0
3, 143040, Note_on_c, 0, 33, 34
3, 143052, Control_c, 0, 64, 0
3, 143139, Control_c, 0, 64, 127
3, 143200, Note_on_c, 0, 33, 0
3, 143200, Note_on_c, 0, 38, 29
3, 143360, Note_on_c, 0, 38, 0
3, 143360, Note_on_c, 0, 33, 29
3, 143520, Note_on_c, 0, 33, 0
3, 143520, Note_on_c, 0, 38, 39
3, 143530, Control_c, 0, 64, 0
3, 143633, Control_c, 0, 64, 127
3, 143680, Note_on_c, 0, 38, 0
3, 143680, Note_on_c, 0, 45, 34
3, 143840, Note_on_c, 0, 45, 0
3, 143840, Note_on_c, 0, 38, 34
3, 144000, Note_on_c, 0, 38, 0
3, 144000, Note_on_c, 0, 33, 36
3, 144006, Control_c, 0, 64, 0
3, 144092, Control_c, 0, 64, 127
3, 144160, Note_on_c, 0, 33, 0
3, 144160, Note_on_c, 0, 38, 31
3, 144320, Note_on_c, 0, 38, 0
3, 144320, Note_on_c, 0, 33, 31
3, 144480, Note_on_c, 0, 33, 0
3, 144480, Note_on_c, 0, 37, 37
3, 144491, Control_c, 0, 64, 0
3, 144589, Control_c, 0, 64, 127
3, 144640, Note_on_c, 0, 37, 0
3, 144640, Note_on_c, 0, 45, 33
3, 144800, Note_on_c, 0, 45, 0
3, 144800, Note_on_c, 0, 37, 33
3, 144960, Note_on_c, 0, 37, 0
3, 144960, Note_on_c, 0, 33, 35
3, 144973, Control_c, 0, 64, 0
3, 145046, Control_c, 0, 64, 127
3, 145120, Note_on_c, 0, 33, 0
3, 145120, Note_on_c, 0, 37, 31
3, 145280, Note_on_c, 0, 37, 0
3, 145280, Note_on_c, 0, 33, 30
3, 145440, Note_on_c, 0, 33, 0
3, 145440, Note_on_c, 0, 38, 36
3, 145444, Control_c, 0, 64, 0
3, 145560, Control_c, 0, 64, 127
3, 145600, Note_on_c, 0, 38, 0
3, 145600, Note_on_c, 0, 45, 29
3, 145760, Note_on_c, 0, 45, 0
3, 145760, Note_on_c, 0, 38, 31
3, 145920, Note_on_c, 0, 38, 0
3, 145920, Note_on_c, 0, 33, 37
3, 145933, Control_c, 0, 64, 0
3, 146068, Control_c, 0, 64, 127
3, 146080, Note_on_c, 0, 33, 0
3, 146080, Note_on_c, 0, 38, 30
3, 146240, Note_on_c, 0, 38, 0
3, 146240, Note_on_c, 0, 33, 30
3, 146400, Note_on_c, 0, 33, 0
3, 146400, Note_on_c, 0, 38, 36
3, 146560, Note_on_c, 0, 38, 0
3, 146560, Note_on_c, 0, 45, 32
3, 146720, Note_on_c, 0, 45, 0
3, 146720, Note_on_c, 0, 38, 32
3, 146880, Note_on_c, 0, 38, 0
3, 146880, Control_c, 0, 64, 0
3, 146880, Note_on_c, 0, 33, 42
3, 146965, Control_c, 0, 64, 127
3, 147040, Note_on_c, 0, 33, 0
3, 147040, Note_on_c, 0, 38, 39
3, 147200, Note_on_c, 0, 38, 0
3, 147200, Note_on_c, 0, 33, 39
3, 147360, Note_on_c, 0, 33, 0
3, 147360, Note_on_c, 0, 35, 43
3, 147375, Control_c, 0, 64, 0
3, 147459, Control_c, 0, 64, 127
3, 147520, Note_on_c, 0, 35, 0
3, 147520, Note_on_c, 0, 38, 39
3, 147680, Note_on_c, 0, 38, 0
3, 147680, Note_on_c, 0, 36, 40
3, 147840, Note_on_c, 0, 36, 0
3, 147840, Note_on_c, 0, 36, 46
3, 147853, Control_c, 0, 64, 0
3, 147939, Control_c, 0, 64, 127
3, 148000, Note_on_c, 0, 36, 0
3, 148000, Note_on_c, 0, 38, 42
3, 148160, Note_on_c, 0, 38, 0
3, 148160, Note_on_c, 0, 36, 42
3, 148320, Note_on_c, 0, 36, 0
3, 148320, Note_on_c, 0, 33, 48
3, 148325, Control_c, 0, 64, 0
3, 148426, Control_c, 0, 64, 127
3, 148480, Note_on_c, 0, 33, 0
3, 148480, Note_on_c, 0, 38, 43
3, 148640, Note_on_c, 0, 38, 0
3, 148640, Note_on_c, 0, 33, 43
3, 148800, Note_on_c, 0, 33, 0
3, 148800, Note_on_c, 0, 35, 49
3, 148807, Control_c, 0, 64, 0
3, 148913, Control_c, 0, 64, 127
3, 148960, Note_on_c, 0, 35, 0
3, 148960, Note_on_c, 0, 38, 44
3, 149120, Note_on_c, 0, 38, 0
3, 149120, Note_on_c, 0, 36, 44
3, 149280, Note_on_c, 0, 36, 0
3, 149280, Note_on_c, 0, 36, 54
3, 149294, Control_c, 0, 64, 0
3, 149365, Control_c, 0, 64, 127
3, 149440, Note_on_c, 0, 36, 0
3, 149440, Note_on_c, 0, 38, 44
3, 149600, Note_on_c, 0, 38, 0
3, 149600, Note_on_c, 0, 36, 46
3, 149760, Note_on_c, 0, 36, 0
3, 149760, Control_c, 0, 64, 0
3, 149760, Note_on_c, 0, 33, 57
3, 149873, Control_c, 0, 64, 127
3, 149920, Note_on_c, 0, 33, 0
3, 149920, Note_on_c, 0, 38, 51
3, 150080, Note_on_c, 0, 38, 0
3, 150080, Note_on_c, 0, 33, 51
3, 150240, Note_on_c, 0, 33, 0
3, 150240, Note_on_c, 0, 35, 64
3, 150246, Control_c, 0, 64, 0
3, 150332, Control_c, 0, 64, 127
3, 150400, Note_on_c, 0, 35, 0
3, 150400, Note_on_c, 0, 38, 54
3, 150560, Note_on_c, 0, 38, 0
3, 150560, Note_on_c, 0, 36, 54
3, 150720, Note_on_c, 0, 36, 0
3, 150720, Note_on_c, 0, 36, 71
3, 150727, Control_c, 0, 64, 0
3, 150819, Control_c, 0, 64, 127
3, 150880, Note_on_c, 0, 36, 0
3, 150880, Note_on_c, 0, 38, 55
3, 151040, Note_on_c, 0, 38, 0
3, 151040, Note_on_c, 0, 36, 55
3, 151200, Note_on_c, 0, 36, 0
3, 151200, Note_on_c, 0, 38, 72
3, 151207, Control_c, 0, 64, 0
3, 151320, Control_c, 0, 64, 127
3, 151360, Note_on_c, 0, 38, 0
3, 151360, Note_on_c, 0, 50, 62
3, 151520, Note_on_c, 0, 50, 0
3, 151520, Note_on_c, 0, 38, 62
3, 151680, Note_on_c, 0, 38, 0
3, 151680, Note_on_c, 0, 40, 69
3, 151692, Control_c, 0, 64, 0
3, 151779, Control_c, 0, 64, 127
3, 151840, Note_on_c, 0, 40, 0
3, 151840, Note_on_c, 0, 50, 57
3, 152000, Note_on_c, 0, 50, 0
3, 152000, Note_on_c, 0, 42, 60
3, 152160, Note_on_c, 0, 42, 0
3, 152160, Note_on_c, 0, 42, 66
3, 152165, Control_c, 0, 64, 0
3, 152245, Control_c, 0, 64, 127
3, 152320, Note_on_c, 0, 42, 0
3, 152320, Note_on_c, 0, 50, 60
3, 152480, Note_on_c, 0, 50, 0
3, 152480, Note_on_c, 0, 42, 60
3, 152634, Note_on_c, 0, 42, 0
3, 152640, Note_on_c, 0, 42, 43
3, 152643, Control_c, 0, 64, 0
3, 152748, Control_c, 0, 64, 127
3, 152800, Note_on_c, 0, 42, 0
3, 152800, Note_on_c, 0, 50, 36
3, 152960, Note_on_c, 0, 50, 0
3, 152960, Note_on_c, 0, 42, 37
3, 153120, Note_on_c, 0, 42, 0
3, 153120, Note_on_c, 0, 50, 37
3, 153127, Control_c, 0, 64, 0
3, 153202, Control_c, 0, 64, 127
3, 153280, Note_on_c, 0, 50, 0
3, 153280, Note_on_c, 0, 42, 33
3, 153440, Note_on_c, 0, 42, 0
3, 153440, Note_on_c, 0, 50, 33
3, 153600, Note_on_c, 0, 50, 0
3, 153600, Note_on_c, 0, 42, 37
3, 153612, Control_c, 0, 64, 0
3, 153676, Control_c, 0, 64, 127
3, 153760, Note_on_c, 0, 42, 0
3, 153760, Note_on_c, 0, 50, 31
3, 153920, Note_on_c, 0, 50, 0
3, 153920, Note_on_c, 0, 42, 31
3, 154080, Note_on_c, 0, 42, 0
3, 154080, Note_on_c, 0, 50, 35
3, 154240, Note_on_c, 0, 50, 0
3, 154240, Note_on_c, 0, 42, 30
3, 154400, Note_on_c, 0, 42, 0
3, 154400, Note_on_c, 0, 50, 30
3, 154560, Note_on_c, 0, 50, 0
3, 154560, Note_on_c, 0, 42, 35
3, 154720, Note_on_c, 0, 42, 0
3, 154720, Note_on_c, 0, 50, 30
3, 154880, Note_on_c, 0, 50, 0
3, 154880, Note_on_c, 0, 42, 30
3, 155040, Note_on_c, 0, 42, 0
3, 155040, Note_on_c, 0, 50, 35
3, 155200, Note_on_c, 0, 50, 0
3, 155200, Note_on_c, 0, 42, 29
3, 155360, Note_on_c, 0, 42, 0
3, 155360, Note_on_c, 0, 50, 29
3, 155520, Note_on_c, 0, 50, 0
3, 155520, Control_c, 0, 64, 0
3, 155520, Note_on_c, 0, 46, 45
3, 155520, Note_on_c, 0, 43, 31
3, 155612, Control_c, 0, 64, 127
3, 155680, Note_on_c, 0, 46, 0
3, 155680, Note_on_c, 0, 50, 36
3, 155840, Note_on_c, 0, 50, 0
3, 155840, Note_on_c, 0, 55, 31
3, 156000, Note_on_c, 0, 55, 0
3, 156000, Note_on_c, 0, 46, 42
3, 156160, Note_on_c, 0, 46, 0
3, 156160, Note_on_c, 0, 50, 33
3, 156320, Note_on_c, 0, 50, 0
3, 156320, Note_on_c, 0, 55, 27
3, 156480, Note_on_c, 0, 55, 0
3, 156480, Note_on_c, 0, 45, 41
3, 156492, Control_c, 0, 64, 0
3, 156560, Control_c, 0, 64, 127
3, 156640, Note_on_c, 0, 45, 0
3, 156640, Note_on_c, 0, 50, 33
3, 156800, Note_on_c, 0, 50, 0
3, 156800, Note_on_c, 0, 54, 27
3, 156960, Note_on_c, 0, 54, 0
3, 156960, Note_on_c, 0, 43, 0
3, 156960, Note_on_c, 0, 48, 45
3, 156960, Note_on_c, 0, 43, 31
3, 156967, Control_c, 0, 64, 0
3, 157046, Control_c, 0, 64, 127
3, 157120, Note_on_c, 0, 48, 0
3, 157120, Note_on_c, 0, 50, 36
3, 157280, Note_on_c, 0, 50, 0
3, 157280, Note_on_c, 0, 57, 29
3, 157440, Note_on_c, 0, 57, 0
3, 157440, Note_on_c, 0, 48, 43
3, 157600, Note_on_c, 0, 48, 0
3, 157600, Note_on_c, 0, 50, 33
3, 157760, Note_on_c, 0, 50, 0
3, 157760, Note_on_c, 0, 57, 28
3, 157920, Note_on_c, 0, 57, 0
3, 157920, Note_on_c, 0, 46, 43
3, 157934, Control_c, 0, 64, 0
3, 158012, Control_c, 0, 64, 127
3, 158080, Note_on_c, 0, 46, 0
3, 158080, Note_on_c, 0, 50, 33
3, 158240, Note_on_c, 0, 50, 0
3, 158240, Note_on_c, 0, 55, 28
3, 158400, Note_on_c, 0, 55, 0
3, 158400, Note_on_c, 0, 43, 0
3, 158400, Note_on_c, 0, 46, 42
3, 158560, Note_on_c, 0, 46, 0
3, 158560, Note_on_c, 0, 50, 33
3, 158720, Note_on_c, 0, 50, 0
3, 158720, Note_on_c, 0, 55, 28
3, 158880, Note_on_c, 0, 55, 0
3, 158880, Note_on_c, 0, 50, 39
3, 158880, Note_on_c, 0, 54, 39
3, 158880, Note_on_c, 0, 57, 46
3, 158891, Control_c, 0, 64, 0
3, 158937, Control_c, 0, 64, 127
3, 159120, Note_on_c, 0, 57, 0
3, 159120, Note_on_c, 0, 54, 0
3, 159120, Note_on_c, 0, 50, 0
3, 159120, Note_on_c, 0, 50, 41
3, 159120, Note_on_c, 0, 55, 41
3, 159120, Note_on_c, 0, 58, 49
3, 159360, Note_on_c, 0, 58, 0
3, 159360, Note_on_c, 0, 55, 0
3, 159360, Note_on_c, 0, 50, 0
3, 159360, Note_on_c, 0, 50, 44
3, 159360, Note_on_c, 0, 57, 44
3, 159360, Note_on_c, 0, 60, 52
3, 159365, Control_c, 0, 64, 0
3, 159440, Control_c, 0, 64, 127
3, 159720, Note_on_c, 0, 60, 0
3, 159720, Note_on_c, 0, 57, 0
3, 159720, Note_on_c, 0, 50, 0
3, 159720, Note_on_c, 0, 50, 39
3, 159720, Note_on_c, 0, 55, 39
3, 159720, Note_on_c, 0, 58, 47
3, 159840, Note_on_c, 0, 58, 0
3, 159840, Note_on_c, 0, 55, 0
3, 159840, Note_on_c, 0, 50, 0
3, 159840, Note_on_c, 0, 50, 38
3, 159840, Note_on_c, 0, 55, 38
3, 159840, Note_on_c, 0, 58, 45
3, 159846, Control_c, 0, 64, 0
3, 159954, Control_c, 0, 64, 127
3, 160320, Note_on_c, 0, 58, 0
3, 160320, Note_on_c, 0, 55, 0
3, 160320, Note_on_c, 0, 50, 0
3, 160320, Note_on_c, 0, 50, 27
3, 160320, Note_on_c, 0, 54, 27
3, 160320, Note_on_c, 0, 57, 32
3, 160326, Control_c, 0, 64, 0
3, 160447, Control_c, 0, 64, 127
3, 160560, Note_on_c, 0, 57, 0
3, 160560, Note_on_c, 0, 54, 0
3, 160560, Note_on_c, 0, 50, 0
3, 160560, Note_on_c, 0, 50, 26
3, 160560, Note_on_c, 0, 52, 26
3, 160560, Note_on_c, 0, 55, 26
3, 160800, Note_on_c, 0, 55, 0
3, 160800, Note_on_c, 0, 52, 0
3, 160800, Note_on_c, 0, 50, 0
3, 160800, Note_on_c, 0, 50, 28
3, 160800, Note_on_c, 0, 54, 28
3, 160800, Note_on_c, 0, 57, 33
3, 160809, Control_c, 0, 64, 0
3, 160939, Control_c, 0, 64, 127
3, 161280, Note_on_c, 0, 57, 0
3, 161280, Note_on_c, 0, 54, 0
3, 161280, Note_on_c, 0, 50, 0
3, 161280, Control_c, 0, 64, 0
3, 161280, Note_on_c, 0, 47, 45
3, 161280, Note_on_c, 0, 43, 31
3, 161386, Control_c, 0, 64, 127
3, 161440, Note_on_c, 0, 47, 0
3, 161440, Note_on_c, 0, 50, 36
3, 161600, Note_on_c, 0, 50, 0
3, 161600, Note_on_c, 0, 55, 31
3, 161760, Note_on_c, 0, 55, 0
3, 161760, Note_on_c, 0, 47, 42
3, 161920, Note_on_c, 0, 47, 0
3, 161920, Note_on_c, 0, 50, 33
3, 162080, Note_on_c, 0, 50, 0
3, 162080, Note_on_c, 0, 55, 27
3, 162240, Note_on_c, 0, 55, 0
3, 162240, Note_on_c, 0, 45, 41
3, 162255, Control_c, 0, 64, 0
3, 162353, Control_c, 0, 64, 127
3, 162400, Note_on_c, 0, 45, 0
3, 162400, Note_on_c, 0, 50, 33
3, 162560, Note_on_c, 0, 50, 0
3, 162560, Note_on_c, 0, 54, 27
3, 162720, Note_on_c, 0, 54, 0
3, 162720, Note_on_c, 0, 43, 0
3, 162720, Note_on_c, 0, 48, 45
3, 162720, Note_on_c, 0, 43, 31
3, 162725, Control_c, 0, 64, 0
3, 162840, Control_c, 0, 64, 127
3, 162880, Note_on_c, 0, 48, 0
3, 162880, Note_on_c, 0, 50, 36
3, 163040, Note_on_c, 0, 50, 0
3, 163040, Note_on_c, 0, 57, 29
3, 163200, Note_on_c, 0, 57, 0
3, 163200, Note_on_c, 0, 48, 43
3, 163360, Note_on_c, 0, 48, 0
3, 163360, Note_on_c, 0, 50, 33
3, 163520, Note_on_c, 0, 50, 0
3, 163520, Note_on_c, 0, 57, 28
3, 163680, Note_on_c, 0, 57, 0
3, 163680, Note_on_c, 0, 47, 43
3, 163692, Control_c, 0, 64, 0
3, 163786, Control_c, 0, 64, 127
3, 163840, Note_on_c, 0, 47, 0
3, 163840, Note_on_c, 0, 50, 33
3, 164000, Note_on_c, 0, 50, 0
3, 164000, Note_on_c, 0, 55, 28
3, 164160, Note_on_c, 0, 55, 0
3, 164160, Note_on_c, 0, 43, 0
3, 164160, Note_on_c, 0, 50, 46
3, 164160, Note_on_c, 0, 47, 39
3, 164160, Note_on_c, 0, 43, 39
3, 164167, Control_c, 0, 64, 0
3, 164245, Control_c, 0, 64, 127
3, 164640, Note_on_c, 0, 43, 0
3, 164640, Note_on_c, 0, 47, 0
3, 164640, Note_on_c, 0, 50, 0
3, 164640, Note_on_c, 0, 43, 46
3, 164640, Note_on_c, 0, 48, 46
3, 164640, Note_on_c, 0, 52, 55
3, 164649, Control_c, 0, 64, 0
3, 164739, Control_c, 0, 64, 127
3, 164880, Note_on_c, 0, 52, 0
3, 164880, Note_on_c, 0, 48, 0
3, 164880, Note_on_c, 0, 43, 0
3, 164880, Note_on_c, 0, 43, 49
3, 164880, Note_on_c, 0, 45, 49
3, 164880, Note_on_c, 0, 54, 58
3, 165120, Note_on_c, 0, 54, 0
3, 165120, Note_on_c, 0, 45, 0
3, 165120, Note_on_c, 0, 43, 0
3, 165120, Note_on_c, 0, 43, 57
3, 165120, Note_on_c, 0, 55, 68
3, 165120, Note_on_c, 0, 47, 57
3, 165127, Control_c, 0, 64, 0
3, 165226, Control_c, 0, 64, 127
3, 165480, Note_on_c, 0, 47, 0
3, 165480, Note_on_c, 0, 55, 0
3, 165480, Note_on_c, 0, 43, 0
3, 165480, Note_on_c, 0, 50, 41
3, 165480, Note_on_c, 0, 55, 41
3, 165480, Note_on_c, 0, 59, 49
3, 165600, Note_on_c, 0, 59, 0
3, 165600, Note_on_c, 0, 55, 0
3, 165600, Note_on_c, 0, 50, 0
3, 165600, Note_on_c, 0, 50, 45
3, 165600, Note_on_c, 0, 62, 54
3, 165600, Note_on_c, 0, 59, 45
3, 165606, Control_c, 0, 64, 0
3, 165671, Control_c, 0, 64, 127
3, 166080, Note_on_c, 0, 59, 0
3, 166080, Note_on_c, 0, 62, 0
3, 166080, Note_on_c, 0, 50, 0
3, 166080, Note_on_c, 0, 50, 39
3, 166080, Note_on_c, 0, 57, 39
3, 166080, Note_on_c, 0, 60, 46
3, 166089, Control_c, 0, 64, 0
3, 166179, Control_c, 0, 64, 127
3, 166440, Note_on_c, 0, 60, 0
3, 166440, Note_on_c, 0, 57, 0
3, 166440, Note_on_c, 0, 50, 0
3, 166440, Note_on_c, 0, 55, 31
3, 166440, Note_on_c, 0, 59, 37
3, 166560, Note_on_c, 0, 59, 0
3, 166560, Note_on_c, 0, 55, 0
3, 166560, Note_on_c, 0, 55, 28
3, 166560, Note_on_c, 0, 59, 34
3, 166571, Control_c, 0, 64, 0
3, 166631, Control_c, 0, 64, 127
3, 167040, Note_on_c, 0, 59, 0
3, 167040, Note_on_c, 0, 55, 0
3, 167040, Control_c, 0, 64, 0
3, 167040, Note_on_c, 0, 43, 30
3, 167116, Control_c, 0, 64, 127
3, 167200, Note_on_c, 0, 43, 0
3, 167200, Note_on_c, 0, 55, 26
3, 167360, Note_on_c, 0, 55, 0
3, 167360, Note_on_c, 0, 43, 27
3, 167520, Note_on_c, 0, 43, 0
3, 167520, Note_on_c, 0, 55, 30
3, 167524, Control_c, 0, 64, 0
3, 167621, Control_c, 0, 64, 127
3, 167680, Note_on_c, 0, 55, 0
3, 167680, Note_on_c, 0, 43, 26
3, 167840, Note_on_c, 0, 43, 0
3, 167840, Note_on_c, 0, 55, 26
3, 168000, Note_on_c, 0, 55, 0
3, 168000, Note_on_c, 0, 43, 30
3, 168012, Control_c, 0, 64, 0
3, 168108, Control_c, 0, 64, 127
3, 168160, Note_on_c, 0, 43, 0
3, 168160, Note_on_c, 0, 55, 26
3, 168320, Note_on_c, 0, 55, 0
3, 168320, Note_on_c, 0, 43, 26
3, 168477, Note_on_c, 0, 43, 0
3, 168480, Note_on_c, 0, 43, 30
3, 168484, Control_c, 0, 64, 0
3, 168572, Control_c, 0, 64, 127
3, 168640, Note_on_c, 0, 43, 0
3, 168640, Note_on_c, 0, 55, 26
3, 168800, Note_on_c, 0, 55, 0
3, 168800, Note_on_c, 0, 43, 27
3, 168960, Note_on_c, 0, 43, 0
3, 168960, Note_on_c, 0, 55, 30
3, 168972, Control_c, 0, 64, 0
3, 169066, Control_c, 0, 64, 127
3, 169120, Note_on_c, 0, 55, 0
3, 169120, Note_on_c, 0, 43, 26
3, 169280, Note_on_c, 0, 43, 0
3, 169280, Note_on_c, 0, 55, 26
3, 169440, Note_on_c, 0, 55, 0
3, 169440, Note_on_c, 0, 43, 30
3, 169447, Control_c, 0, 64, 0
3, 169539, Control_c, 0, 64, 127
3, 169600, Note_on_c, 0, 43, 0
3, 169600, Note_on_c, 0, 55, 26
3, 169760, Note_on_c, 0, 55, 0
3, 169760, Note_on_c, 0, 43, 26
3, 169920, Note_on_c, 0, 43, 0
3, 169920, Note_on_c, 0, 31, 30
3, 169924, Control_c, 0, 64, 0
3, 170019, Control_c, 0, 64, 127
3, 170080, Note_on_c, 0, 31, 0
3, 170080, Note_on_c, 0, 43, 26
3, 170240, Note_on_c, 0, 43, 0
3, 170240, Note_on_c, 0, 31, 27
3, 170400, Note_on_c, 0, 31, 0
3, 170400, Note_on_c, 0, 43, 30
3, 170417, Control_c, 0, 64, 0
3, 170492, Control_c, 0, 64, 127
3, 170560, Note_on_c, 0, 43, 0
3, 170560, Note_on_c, 0, 31, 26
3, 170720, Note_on_c, 0, 31, 0
3, 170720, Note_on_c, 0, 43, 26
3, 170880, Note_on_c, 0, 43, 0
3, 170880, Note_on_c, 0, 31, 30
3, 170894, Control_c, 0, 64, 0
3, 170972, Control_c, 0, 64, 127
3, 171040, Note_on_c, 0, 31, 0
3, 171040, Note_on_c, 0, 43, 26
3, 171200, Note_on_c, 0, 43, 0
3, 171200, Note_on_c, 0, 31, 26
3, 171357, Note_on_c, 0, 31, 0
3, 171360, Note_on_c, 0, 31, 30
3, 171364, Control_c, 0, 64, 0
3, 171480, Control_c, 0, 64, 127
3, 171520, Note_on_c, 0, 31, 0
3, 171520, Note_on_c, 0, 43, 26
3, 171680, Note_on_c, 0, 43, 0
3, 171680, Note_on_c, 0, 31, 27
3, 171840, Note_on_c, 0, 31, 0
3, 171840, Note_on_c, 0, 43, 30
3, 171852, Control_c, 0, 64, 0
3, 171925, Control_c, 0, 64, 127
3, 172000, Note_on_c, 0, 43, 0
3, 172000, Note_on_c, 0, 31, 26
3, 172160, Note_on_c, 0, 31, 0
3, 172160, Note_on_c, 0, 43, 26
3, 172320, Note_on_c, 0, 43, 0
3, 172320, Note_on_c, 0, 31, 30
3, 172327, Control_c, 0, 64, 0
3, 172433, Control_c, 0, 64, 127
3, 172480, Note_on_c, 0, 31, 0
3, 172480, Note_on_c, 0, 43, 26
3, 172640, Note_on_c, 0, 43, 0
3, 172640, Note_on_c, 0, 31, 26
3, 172797, Note_on_c, 0, 31, 0
3, 172800, Note_on_c, 0, 31, 28
3, 172803, Control_c, 0, 64, 0
3, 172885, Control_c, 0, 64, 127
3, 172960, Note_on_c, 0, 31, 0
3, 172960, Note_on_c, 0, 43, 24
3, 173120, Note_on_c, 0, 43, 0
3, 173120, Note_on_c, 0, 31, 25
3, 173280, Note_on_c, 0, 31, 0
3, 173280, Note_on_c, 0, 43, 28
3, 173288, Control_c, 0, 64, 0
3, 173372, Control_c, 0, 64, 127
3, 173440, Note_on_c, 0, 43, 0
3, 173440, Note_on_c, 0, 31, 24
3, 173600, Note_on_c, 0, 31, 0
3, 173600, Note_on_c, 0, 43, 24
3, 173760, Note_on_c, 0, 43, 0
3, 173760, Note_on_c, 0, 31, 28
3, 173773, Control_c, 0, 64, 0
3, 173866, Control_c, 0, 64, 127
3, 173920, Note_on_c, 0, 31, 0
3, 173920, Note_on_c, 0, 43, 24
3, 174080, Note_on_c, 0, 43, 0
3, 174080, Note_on_c, 0, 31, 24
3, 174237, Note_on_c, 0, 31, 0
3, 174240, Note_on_c, 0, 31, 28
3, 174244, Control_c, 0, 64, 0
3, 174325, Control_c, 0, 64, 127
3, 174400, Note_on_c, 0, 31, 0
3, 174400, Note_on_c, 0, 43, 24
3, 174560, Note_on_c, 0, 43, 0
3, 174560, Note_on_c, 0, 31, 24
3, 174720, Note_on_c, 0, 31, 0
3, 174720, Note_on_c, 0, 43, 27
3, 174734, Control_c, 0, 64, 0
3, 174833, Control_c, 0, 64, 127
3, 174880, Note_on_c, 0, 43, 0
3, 174880, Note_on_c, 0, 31, 23
3, 175040, Note_on_c, 0, 31, 0
3, 175040, Note_on_c, 0, 43, 22
3, 175200, Note_on_c, 0, 43, 0
3, 175200, Note_on_c, 0, 31, 25
3, 175207, Control_c, 0, 64, 0
3, 175299, Control_c, 0, 64, 127
3, 175360, Note_on_c, 0, 31, 0
3, 175360, Note_on_c, 0, 43, 21
3, 175520, Note_on_c, 0, 43, 0
3, 175520, Note_on_c, 0, 31, 21
3, 175677, Note_on_c, 0, 31, 0
3, 175680, Note_on_c, 0, 31, 27
3, 175683, Control_c, 0, 64, 0
3, 175772, Control_c, 0, 64, 127
3, 175840, Note_on_c, 0, 31, 0
3, 175840, Note_on_c, 0, 43, 23
3, 176000, Note_on_c, 0, 43, 0
3, 176000, Note_on_c, 0, 31, 24
3, 176160, Note_on_c, 0, 31, 0
3, 176160, Note_on_c, 0, 43, 27
3, 176320, Note_on_c, 0, 43, 0
3, 176320, Note_on_c, 0, 31, 23
3, 176480, Note_on_c, 0, 31, 0
3, 176480, Note_on_c, 0, 43, 23
3, 176640, Note_on_c, 0, 43, 0
3, 176640, Note_on_c, 0, 31, 27
3, 176654, Control_c, 0, 64, 0
3, 176753, Control_c, 0, 64, 127
3, 176800, Note_on_c, 0, 31, 0
3, 176800, Note_on_c, 0, 43, 23
3, 176960, Note_on_c, 0, 43, 0
3, 176960, Note_on_c, 0, 31, 23
3, 177120, Note_on_c, 0, 31, 0
3, 177120, Control_c, 0, 64, 0
3, 177120, Note_on_c, 0, 43, 23
3, 177120, Note_on_c, 0, 50, 23
3, 177520, Control_c, 0, 64, 127
3, 178560, Note_on_c, 0, 50, 0
3, 178560, Note_on_c, 0, 43, 0
3, 178560, Control_c, 0, 64, 0
3, 178560, Control_c, 0, 91, 127
3, 178561, Note_on_c, 0, 55, 54
3, 178638, Control_c, 0, 64, 127
3, 178980, Note_on_c, 0, 57, 44
3, 178981, Note_on_c, 0, 55, 0
3, 179040, Note_on_c, 0, 57, 0
3, 179040, Note_on_c, 0, 55, 54
3, 179049, Control_c, 0, 64, 0
3, 179072, Control_c, 0, 64, 127
3, 179200, Note_on_c, 0, 55, 0
3, 179200, Note_on_c, 0, 52, 50
3, 179360, Note_on_c, 0, 52, 0
3, 179360, Note_on_c, 0, 48, 47
3, 179520, Note_on_c, 0, 48, 0
3, 179520, Note_on_c, 0, 55, 54
3, 179530, Control_c, 0, 64, 0
3, 179580, Control_c, 0, 64, 127
3, 179880, Note_on_c, 0, 55, 0
3, 179880, Note_on_c, 0, 64, 51
3, 180000, Note_on_c, 0, 64, 0
3, 180000, Note_on_c, 0, 64, 54
3, 180006, Control_c, 0, 64, 0
3, 180254, Control_c, 0, 64, 127
3, 180960, Note_on_c, 0, 64, 0
3, 180960, Note_on_c, 0, 60, 40
3, 180974, Control_c, 0, 64, 0
3, 181200, Note_on_c, 0, 60, 0
3, 181468, Control_c, 0, 64, 127
3, 181932, Control_c, 0, 64, 0
3, 181977, Control_c, 0, 64, 127
3, 182413, Control_c, 0, 64, 0
3, 182471, Control_c, 0, 64, 127
3, 182880, Control_c, 0, 64, 0
3, 182880, Note_on_c, 0, 43, 51
3, 183000, Note_on_c, 0, 43, 0
3, 183120, Note_on_c, 0, 45, 46
3, 183240, Note_on_c, 0, 45, 0
3, 183240, Note_on_c, 0, 47, 46
3, 183360, Note_on_c, 0, 47, 0
3, 183360, Note_on_c, 0, 48, 51
3, 183450, Note_on_c, 0, 48, 0
3, 183600, Note_on_c, 0, 43, 45
3, 183690, Note_on_c, 0, 43, 0
3, 183840, Note_on_c, 0, 48, 51
3, 183960, Note_on_c, 0, 48, 0
3, 184320, Note_on_c, 0, 43, 36
3, 184560, Note_on_c, 0, 43, 0
3, 184560, Note_on_c, 0, 45, 34
3, 184680, Note_on_c, 0, 45, 0
3, 184680, Note_on_c, 0, 47, 35
3, 184800, Note_on_c, 0, 47, 0
3, 184800, Note_on_c, 0, 48, 36
3, 184920, Note_on_c, 0, 48, 0
3, 185040, Note_on_c, 0, 43, 33
3, 185130, Note_on_c, 0, 43, 0
3, 185280, Note_on_c, 0, 48, 36
3, 185370, Note_on_c, 0, 48, 0
3, 185520, Note_on_c, 0, 46, 33
3, 185610, Note_on_c, 0, 46, 0
3, 185760, Control_c, 0, 64, 127
3, 185760, Note_on_c, 0, 46, 46
3, 186000, Note_on_c, 0, 46, 0
3, 186000, Note_on_c, 0, 51, 43
3, 186010, Control_c, 0, 64, 0
3, 186043, Control_c, 0, 64, 127
3, 186080, Control_c, 0, 64, 0
3, 186180, Note_on_c, 0, 51, 0
3, 186229, Control_c, 0, 64, 127
3, 186240, Note_on_c, 0, 51, 48
3, 186480, Note_on_c, 0, 51, 0
3, 186480, Note_on_c, 0, 50, 46
3, 186488, Control_c, 0, 64, 0
3, 186508, Control_c, 0, 64, 127
3, 186544, Control_c, 0, 64, 0
3, 186660, Note_on_c, 0, 50, 0
3, 186720, Control_c, 0, 64, 127
3, 186720, Note_on_c, 0, 50, 54
3, 186960, Note_on_c, 0, 50, 0
3, 186960, Note_on_c, 0, 55, 51
3, 186969, Control_c, 0, 64, 0
3, 186985, Control_c, 0, 64, 127
3, 187031, Control_c, 0, 64, 0
3, 187140, Note_on_c, 0, 55, 0
3, 187200, Control_c, 0, 64, 127
3, 187200, Note_on_c, 0, 55, 59
3, 187440, Note_on_c, 0, 55, 0
3, 187440, Note_on_c, 0, 43, 55
3, 187440, Note_on_c, 0, 53, 55
3, 187440, Note_on_c, 0, 55, 55
3, 187456, Control_c, 0, 64, 0
3, 187520, Control_c, 0, 64, 127
3, 187680, Note_on_c, 0, 55, 0
3, 187680, Note_on_c, 0, 53, 0
3, 187680, Note_on_c, 0, 43, 0
3, 187680, Note_on_c, 0, 43, 61
3, 187680, Note_on_c, 0, 53, 61
3, 187680, Note_on_c, 0, 55, 61
3, 187693, Control_c, 0, 64, 0
3, 187875, Control_c, 0, 64, 127
3, 188400, Note_on_c, 0, 55, 0
3, 188400, Note_on_c, 0, 53, 0
3, 188400, Note_on_c, 0, 43, 0
3, 188400, Note_on_c, 0, 43, 48
3, 188400, Note_on_c, 0, 50, 48
3, 188400, Note_on_c, 0, 55, 48
3, 188640, Note_on_c, 0, 55, 0
3, 188640, Note_on_c, 0, 50, 0
3, 188640, Note_on_c, 0, 43, 0
3, 188640, Note_on_c, 0, 48, 48
3, 188640, Note_on_c, 0, 55, 48
3, 188653, Control_c, 0, 64, 0
3, 188960, Control_c, 0, 64, 127
3, 190080, Note_on_c, 0, 55, 0
3, 190080, Note_on_c, 0, 48, 0
3, 190080, Control_c, 0, 64, 0
3, 190147, Control_c, 0, 64, 127
3, 190567, Control_c, 0, 64, 0
3, 190634, Control_c, 0, 64, 127
3, 191047, Control_c, 0, 64, 0
3, 191097, Control_c, 0, 64, 127
3, 191520, Note_on_c, 0, 52, 52
3, 191527, Control_c, 0, 64, 0
3, 191584, Control_c, 0, 64, 127
3, 191940, Note_on_c, 0, 52, 0
3, 191940, Note_on_c, 0, 53, 44
3, 192000, Note_on_c, 0, 53, 0
3, 192000, Note_on_c, 0, 52, 58
3, 192010, Control_c, 0, 64, 0
3, 192071, Control_c, 0, 64, 127
3, 192160, Note_on_c, 0, 52, 0
3, 192160, Note_on_c, 0, 47, 57
3, 192320, Note_on_c, 0, 47, 0
3, 192320, Note_on_c, 0, 40, 54
3, 192480, Note_on_c, 0, 40, 0
3, 192480, Note_on_c, 0, 52, 59
3, 192487, Control_c, 0, 64, 0
3, 192960, Note_on_c, 0, 52, 0
3, 192960, Note_on_c, 0, 52, 52
3, 192964, Control_c, 0, 64, 127
3, 193380, Note_on_c, 0, 52, 0
3, 193380, Note_on_c, 0, 53, 44
3, 193440, Note_on_c, 0, 53, 0
3, 193440, Note_on_c, 0, 52, 59
3, 193450, Control_c, 0, 64, 0
3, 193490, Control_c, 0, 64, 127
3, 193600, Note_on_c, 0, 52, 0
3, 193600, Note_on_c, 0, 55, 55
3, 193760, Note_on_c, 0, 55, 0
3, 193760, Note_on_c, 0, 60, 53
3, 193920, Note_on_c, 0, 60, 0
3, 193920, Note_on_c, 0, 65, 53
3, 193920, Note_on_c, 0, 62, 45
3, 193927, Control_c, 0, 64, 0
3, 193984, Control_c, 0, 64, 127
3, 194400, Note_on_c, 0, 62, 0
3, 194400, Note_on_c, 0, 65, 0
3, 194400, Note_on_c, 0, 64, 52
3, 194400, Note_on_c, 0, 60, 44
3, 194421, Control_c, 0, 64, 0
3, 194485, Control_c, 0, 64, 127
3, 194880, Note_on_c, 0, 60, 0
3, 194880, Note_on_c, 0, 64, 0
3, 194880, Note_on_c, 0, 66, 55
3, 194880, Note_on_c, 0, 62, 46
3, 194887, Control_c, 0, 64, 0
3, 194937, Control_c, 0, 64, 127
3, 195120, Note_on_c, 0, 62, 0
3, 195120, Note_on_c, 0, 66, 0
3, 195120, Note_on_c, 0, 66, 53
3, 195120, Note_on_c, 0, 62, 45
3, 195360, Note_on_c, 0, 62, 0
3, 195360, Note_on_c, 0, 66, 0
3, 195360, Note_on_c, 0, 62, 47
3, 195360, Note_on_c, 0, 55, 47
3, 195360, Note_on_c, 0, 67, 56
3, 195378, Control_c, 0, 64, 0
3, 195840, Note_on_c, 0, 67, 0
3, 195840, Note_on_c, 0, 55, 0
3, 195840, Note_on_c, 0, 62, 0
3, 195840, Note_on_c, 0, 59, 61
3, 195847, Control_c, 0, 64, 127
3, 196218, Control_c, 0, 64, 0
3, 196260, Note_on_c, 0, 59, 0
3, 196260, Note_on_c, 0, 60, 51
3, 196320, Note_on_c, 0, 60, 0
3, 196320, Note_on_c, 0, 59, 61
3, 196334, Control_c, 0, 64, 127
3, 196480, Note_on_c, 0, 59, 0
3, 196480, Note_on_c, 0, 55, 59
3, 196640, Note_on_c, 0, 55, 0
3, 196640, Note_on_c, 0, 52, 56
3, 196712, Control_c, 0, 64, 0
3, 196760, Note_on_c, 0, 52, 0
3, 196800, Note_on_c, 0, 67, 76
3, 196825, Control_c, 0, 64, 127
3, 197040, Note_on_c, 0, 67, 0
3, 197040, Note_on_c, 0, 64, 64
3, 197130, Note_on_c, 0, 64, 0
3, 197146, Control_c, 0, 64, 0
3, 197280, Note_on_c, 0, 59, 62
3, 197301, Control_c, 0, 64, 127
3, 197665, Control_c, 0, 64, 0
3, 197700, Note_on_c, 0, 59, 0
3, 197700, Note_on_c, 0, 60, 53
3, 197760, Note_on_c, 0, 60, 0
3, 197760, Control_c, 0, 64, 127
3, 197760, Note_on_c, 0, 59, 64
3, 197920, Note_on_c, 0, 59, 0
3, 197920, Note_on_c, 0, 55, 61
3, 198080, Note_on_c, 0, 55, 0
3, 198080, Note_on_c, 0, 52, 57
3, 198124, Control_c, 0, 64, 0
3, 198200, Note_on_c, 0, 52, 0
3, 198240, Note_on_c, 0, 67, 76
3, 198268, Control_c, 0, 64, 127
3, 198480, Note_on_c, 0, 67, 0
3, 198480, Note_on_c, 0, 64, 66
3, 198570, Note_on_c, 0, 64, 0
3, 198611, Control_c, 0, 64, 0
3, 198720, Note_on_c, 0, 47, 77
3, 198731, Control_c, 0, 64, 127
3, 198960, Note_on_c, 0, 47, 0
3, 198960, Note_on_c, 0, 59, 72
3, 199043, Control_c, 0, 64, 0
3, 199050, Note_on_c, 0, 59, 0
3, 199140, Note_on_c, 0, 63, 55
3, 199200, Note_on_c, 0, 63, 0
3, 199200, Note_on_c, 0, 64, 73
3, 199360, Note_on_c, 0, 64, 0
3, 199360, Note_on_c, 0, 66, 67
3, 199520, Note_on_c, 0, 66, 0
3, 199520, Note_on_c, 0, 67, 78
3, 199680, Note_on_c, 0, 67, 0
3, 199680, Note_on_c, 0, 47, 79
3, 199697, Control_c, 0, 64, 127
3, 199920, Note_on_c, 0, 47, 0
3, 199920, Note_on_c, 0, 59, 73
3, 199991, Control_c, 0, 64, 0
3, 200010, Note_on_c, 0, 59, 0
3, 200100, Note_on_c, 0, 63, 58
3, 200160, Note_on_c, 0, 63, 0
3, 200160, Note_on_c, 0, 64, 75
3, 200320, Note_on_c, 0, 64, 0
3, 200320, Note_on_c, 0, 66, 68
3, 200480, Note_on_c, 0, 66, 0
3, 200480, Note_on_c, 0, 67, 66
3, 200640, Note_on_c, 0, 67, 0
3, 200640, Note_on_c, 0, 47, 80
3, 200663, Control_c, 0, 64, 127
3, 200880, Note_on_c, 0, 47, 0
3, 200880, Note_on_c, 0, 59, 75
3, 200970, Note_on_c, 0, 59, 0
3, 201023, Control_c, 0, 64, 0
3, 201120, Note_on_c, 0, 35, 81
3, 201160, Control_c, 0, 64, 127
3, 201360, Note_on_c, 0, 35, 0
3, 201360, Note_on_c, 0, 47, 70
3, 201450, Note_on_c, 0, 47, 0
3, 201474, Control_c, 0, 64, 0
3, 203040, Note_on_c, 0, 64, 36
3, 203061, Control_c, 0, 64, 127
3, 203280, Note_on_c, 0, 64, 0
3, 203280, Note_on_c, 0, 67, 25
3, 203400, Note_on_c, 0, 67, 0
3, 203407, Control_c, 0, 64, 0
3, 203520, Note_on_c, 0, 64, 34
3, 203534, Control_c, 0, 64, 127
3, 203760, Note_on_c, 0, 64, 0
3, 203760, Note_on_c, 0, 67, 25
3, 203831, Control_c, 0, 64, 0
3, 203880, Note_on_c, 0, 67, 0
3, 203993, Control_c, 0, 64, 127
3, 204000, Note_on_c, 0, 64, 33
3, 204240, Note_on_c, 0, 64, 0
3, 204240, Note_on_c, 0, 67, 26
3, 204360, Note_on_c, 0, 67, 0
3, 204388, Control_c, 0, 64, 0
3, 204480, Control_c, 0, 64, 127
3, 204480, Note_on_c, 0, 64, 33
3, 204720, Note_on_c, 0, 64, 0
3, 204720, Note_on_c, 0, 67, 24
3, 204840, Note_on_c, 0, 67, 0
3, 204847, Control_c, 0, 64, 0
3, 204960, Note_on_c, 0, 64, 31
3, 204974, Control_c, 0, 64, 127
3, 205200, Note_on_c, 0, 64, 0
3, 205200, Note_on_c, 0, 67, 23
3, 205320, Note_on_c, 0, 67, 0
3, 205341, Control_c, 0, 64, 0
3, 205440, Note_on_c, 0, 64, 30
3, 205461, Control_c, 0, 64, 127
3, 205680, Note_on_c, 0, 64, 0
3, 205680, Note_on_c, 0, 67, 21
3, 205800, Note_on_c, 0, 67, 0
3, 205842, Control_c, 0, 64, 0
3, 205920, Note_on_c, 0, 55, 48
3, 205948, Control_c, 0, 64, 127
3, 206340, Note_on_c, 0, 55, 0
3, 206340, Note_on_c, 0, 57, 40
3, 206400, Note_on_c, 0, 57, 0
3, 206400, Note_on_c, 0, 55, 48
3, 206405, Control_c, 0, 64, 0
3, 206453, Control_c, 0, 64, 127
3, 206560, Note_on_c, 0, 55, 0
3, 206560, Note_on_c, 0, 52, 45
3, 206720, Note_on_c, 0, 52, 0
3, 206720, Note_on_c, 0, 48, 39
3, 206880, Note_on_c, 0, 48, 0
3, 206880, Note_on_c, 0, 55, 48
3, 206890, Control_c, 0, 64, 0
3, 206958, Control_c, 0, 64, 127
3, 207240, Note_on_c, 0, 55, 0
3, 207240, Note_on_c, 0, 64, 45
3, 207360, Note_on_c, 0, 64, 0
3, 207360, Note_on_c, 0, 64, 48
3, 207363, Control_c, 0, 64, 0
3, 207501, Control_c, 0, 64, 127
3, 208320, Note_on_c, 0, 64, 0
3, 208320, Note_on_c, 0, 60, 36
3, 208560, Note_on_c, 0, 60, 0
3, 208631, Control_c, 0, 64, 0
3, 208857, Control_c, 0, 64, 127
3, 209289, Control_c, 0, 64, 0
3, 209337, Control_c, 0, 64, 127
3, 209768, Control_c, 0, 64, 0
3, 209827, Control_c, 0, 64, 127
3, 210240, Note_on_c, 0, 55, 48
3, 210252, Control_c, 0, 64, 0
3, 210286, Control_c, 0, 64, 127
3, 210660, Note_on_c, 0, 55, 0
3, 210660, Note_on_c, 0, 57, 40
3, 210720, Note_on_c, 0, 57, 0
3, 210720, Note_on_c, 0, 55, 48
3, 210728, Control_c, 0, 64, 0
3, 210777, Control_c, 0, 64, 127
3, 210880, Note_on_c, 0, 55, 0
3, 210880, Note_on_c, 0, 52, 45
3, 211040, Note_on_c, 0, 52, 0
3, 211040, Note_on_c, 0, 48, 41
3, 211200, Note_on_c, 0, 48, 0
3, 211200, Note_on_c, 0, 55, 48
3, 211216, Control_c, 0, 64, 0
3, 211274, Control_c, 0, 64, 127
3, 211560, Note_on_c, 0, 55, 0
3, 211560, Note_on_c, 0, 64, 45
3, 211680, Note_on_c, 0, 64, 0
3, 211680, Note_on_c, 0, 64, 48
3, 211698, Control_c, 0, 64, 0
3, 211747, Control_c, 0, 64, 127
3, 212169, Control_c, 0, 64, 0
3, 212227, Control_c, 0, 64, 127
3, 212640, Note_on_c, 0, 64, 0
3, 212640, Note_on_c, 0, 60, 38
3, 212646, Control_c, 0, 64, 0
3, 212686, Control_c, 0, 64, 127
3, 212880, Note_on_c, 0, 60, 0
3, 213120, Control_c, 0, 64, 0
3, 213120, Note_on_c, 0, 43, 61
3, 213240, Note_on_c, 0, 43, 0
3, 213360, Note_on_c, 0, 45, 55
3, 213480, Note_on_c, 0, 45, 0
3, 213480, Note_on_c, 0, 47, 55
3, 213600, Note_on_c, 0, 47, 0
3, 213600, Note_on_c, 0, 48, 61
3, 213690, Note_on_c, 0, 48, 0
3, 213840, Note_on_c, 0, 43, 53
3, 213930, Note_on_c, 0, 43, 0
3, 214080, Note_on_c, 0, 48, 61
3, 214200, Note_on_c, 0, 48, 0
3, 214560, Note_on_c, 0, 51, 38
3, 214560, Note_on_c, 0, 55, 38
3, 214680, Note_on_c, 0, 55, 0
3, 214680, Note_on_c, 0, 51, 0
3, 214800, Note_on_c, 0, 50, 35
3, 214800, Note_on_c, 0, 53, 35
3, 214800, Note_on_c, 0, 55, 35
3, 214920, Note_on_c, 0, 55, 0
3, 214920, Note_on_c, 0, 53, 0
3, 214920, Note_on_c, 0, 50, 0
3, 215040, Note_on_c, 0, 48, 38
3, 215040, Note_on_c, 0, 51, 38
3, 215040, Note_on_c, 0, 55, 38
3, 215130, Note_on_c, 0, 55, 0
3, 215130, Note_on_c, 0, 51, 0
3, 215130, Note_on_c, 0, 48, 0
3, 215280, Note_on_c, 0, 47, 35
3, 215280, Note_on_c, 0, 50, 35
3, 215280, Note_on_c, 0, 55, 35
3, 215370, Note_on_c, 0, 55, 0
3, 215370, Note_on_c, 0, 50, 0
3, 215370, Note_on_c, 0, 47, 0
3, 215520, Note_on_c, 0, 48, 42
3, 215520, Note_on_c, 0, 51, 42
3, 215520, Note_on_c, 0, 55, 42
3, 215610, Note_on_c, 0, 55, 0
3, 215610, Note_on_c, 0, 51, 0
3, 215610, Note_on_c, 0, 48, 0
3, 215760, Note_on_c, 0, 50, 49
3, 215760, Note_on_c, 0, 53, 49
3, 215760, Note_on_c, 0, 58, 49
3, 215880, Note_on_c, 0, 58, 0
3, 215880, Note_on_c, 0, 53, 0
3, 215880, Note_on_c, 0, 50, 0
3, 216000, Note_on_c, 0, 53, 52
3, 216000, Note_on_c, 0, 56, 52
3, 216000, Note_on_c, 0, 58, 52
3, 216120, Note_on_c, 0, 58, 0
3, 216120, Note_on_c, 0, 56, 0
3, 216120, Note_on_c, 0, 53, 0
3, 216240, Note_on_c, 0, 51, 49
3, 216240, Note_on_c, 0, 55, 49
3, 216240, Note_on_c, 0, 58, 49
3, 216360, Note_on_c, 0, 58, 0
3, 216360, Note_on_c, 0, 55, 0
3, 216360, Note_on_c, 0, 51, 0
3, 216480, Note_on_c, 0, 51, 53
3, 216480, Note_on_c, 0, 55, 53
3, 216480, Note_on_c, 0, 58, 53
3, 216600, Note_on_c, 0, 58, 0
3, 216600, Note_on_c, 0, 55, 0
3, 216600, Note_on_c, 0, 51, 0
3, 216720, Note_on_c, 0, 54, 51
3, 216720, Note_on_c, 0, 57, 51
3, 216720, Note_on_c, 0, 62, 51
3, 216840, Note_on_c, 0, 62, 0
3, 216840, Note_on_c, 0, 57, 0
3, 216840, Note_on_c, 0, 54, 0
3, 216960, Note_on_c, 0, 57, 57
3, 216960, Note_on_c, 0, 60, 57
3, 216960, Note_on_c, 0, 62, 57
3, 217080, Note_on_c, 0, 62, 0
3, 217080, Note_on_c, 0, 60, 0
3, 217080, Note_on_c, 0, 57, 0
3, 217200, Note_on_c, 0, 55, 55
3, 217200, Note_on_c, 0, 58, 55
3, 217200, Note_on_c, 0, 62, 55
3, 217320, Note_on_c, 0, 62, 0
3, 217320, Note_on_c, 0, 58, 0
3, 217320, Note_on_c, 0, 55, 0
3, 217440, Note_on_c, 0, 55, 62
3, 217440, Note_on_c, 0, 58, 62
3, 217440, Note_on_c, 0, 62, 62
3, 217560, Note_on_c, 0, 62, 0
3, 217560, Note_on_c, 0, 58, 0
3, 217560, Note_on_c, 0, 55, 0
3, 217680, Note_on_c, 0, 43, 49
3, 217680, Note_on_c, 0, 50, 49
3, 217680, Note_on_c, 0, 59, 49
3, 217800, Note_on_c, 0, 59, 0
3, 217800, Note_on_c, 0, 50, 0
3, 217800, Note_on_c, 0, 43, 0
3, 217920, Control_c, 0, 64, 127
3, 217920, Note_on_c, 0, 43, 47
3, 217920, Note_on_c, 0, 50, 47
3, 217920, Note_on_c, 0, 59, 47
3, 218640, Note_on_c, 0, 59, 0
3, 218640, Note_on_c, 0, 50, 0
3, 218640, Note_on_c, 0, 43, 0
3, 218640, Note_on_c, 0, 65, 37
3, 218640, Note_on_c, 0, 67, 37
3, 218640, Note_on_c, 0, 55, 37
3, 218880, Note_on_c, 0, 55, 0
3, 218880, Note_on_c, 0, 67, 0
3, 218880, Note_on_c, 0, 65, 0
3, 218880, Note_on_c, 0, 67, 35
3, 218880, Note_on_c, 0, 64, 35
3, 218880, Note_on_c, 0, 60, 35
3, 218884, Control_c, 0, 64, 0
3, 219227, Control_c, 0, 64, 127
3, 220320, Note_on_c, 0, 60, 0
3, 220320, Note_on_c, 0, 64, 0
3, 220320, Note_on_c, 0, 67, 0
3, 220320, Control_c, 0, 64, 0
3, 220320, End_track
4, 0, Start_track
4, 0, Title_t, "Schubert: Moment Musicau No.1 in C, Op. 94 - D 780"
4, 0, End_track
5, 0, Start_track
5, 0, Title_t, "Copyright © 1999 by Bernd Krueger"
5, 0, End_track
6, 0, Start_track
6, 0, Title_t, "http://www.piano-midi.de"
6, 0, End_track
7, 0, Start_track
7, 0, Title_t, "Edition: 2014-03-16"
7, 0, End_track
0, 0, End_of_file
