0, 0, Header, 1, 8, 480
1, 0, Start_track
1, 0, Title_t, "Vier Impromptus Opus postb. 142 D 935"
1, 0, Title_t, "Impromptu Nr. 2 As-Dur"
1, 0, Copyright_t, "Copyright © 2007 von Bernd Krüger."
1, 0, Text_t, "Franz Schubert "
1, 0, Text_t, "Allegretto"
1, 0, Text_t, "Erstellt am 15.8.2007\012"
1, 0, Text_t, "Update am 20.3.2014\012"
1, 0, Text_t, "Dauer: 6:24 Minuten\012"
1, 0, Time_signature, 3, 2, 24, 8
1, 0, Key_signature, -4, "major"
1, 0, Tempo, 597015
1, 0, Marker_t, "Allegretto"
1, 948, Tempo, 597015
1, 1920, Tempo, 545455
1, 2880, Tempo, 600000
1, 3348, Tempo, 545455
1, 5280, Tempo, 600000
1, 5768, Tempo, 550459
1, 6720, Tempo, 600000
1, 7680, Tempo, 547945
1, 7688, Tempo, 545455
1, 8648, Tempo, 600000
1, 9120, Tempo, 547945
1, 10080, Tempo, 600000
1, 10560, Tempo, 638298
1, 11520, Tempo, 621762
1, 12480, Tempo, 600000
1, 12948, Tempo, 597015
1, 13440, Tempo, 545455
1, 14408, Tempo, 571429
1, 14868, Tempo, 545455
1, 16788, Tempo, 576923
1, 16800, Tempo, 574163
1, 17288, Tempo, 550459
1, 18240, Tempo, 600000
1, 19200, Tempo, 547945
1, 19208, Tempo, 545455
1, 20048, Tempo, 600000
1, 20168, Tempo, 600000
1, 20640, Tempo, 547945
1, 21600, Tempo, 600000
1, 22080, Tempo, 579710
1, 22680, Tempo, 606061
1, 22800, Tempo, 693642
1, 23040, Tempo, 628272
1, 23988, Tempo, 603015
1, 24480, Tempo, 600000
1, 24960, Tempo, 545455
1, 25920, Tempo, 600000
1, 26388, Tempo, 545455
1, 28320, Tempo, 600000
1, 28808, Tempo, 550459
1, 29760, Tempo, 600000
1, 30720, Tempo, 547945
1, 30728, Tempo, 545455
1, 31688, Tempo, 600000
1, 32160, Tempo, 547945
1, 33120, Tempo, 600000
1, 33600, Tempo, 638298
1, 34560, Tempo, 615385
1, 35520, Tempo, 600000
1, 35988, Tempo, 597015
1, 36480, Tempo, 545455
1, 37448, Tempo, 571429
1, 37908, Tempo, 545455
1, 39828, Tempo, 576923
1, 39840, Tempo, 574163
1, 40328, Tempo, 550459
1, 41280, Tempo, 600000
1, 42240, Tempo, 547945
1, 42248, Tempo, 545455
1, 43088, Tempo, 600000
1, 43208, Tempo, 600000
1, 43680, Tempo, 547945
1, 44640, Tempo, 600000
1, 45120, Tempo, 579710
1, 45720, Tempo, 606061
1, 45840, Tempo, 693642
1, 46080, Tempo, 628272
1, 47280, Tempo, 508475
1, 47520, Tempo, 550459
1, 48000, Tempo, 533333
1, 48480, Tempo, 502092
1, 48960, Tempo, 552995
1, 49440, Tempo, 547945
1, 49920, Tempo, 524017
1, 50400, Tempo, 521739
1, 50880, Tempo, 542986
1, 51360, Tempo, 563380
1, 51840, Tempo, 524017
1, 52800, Tempo, 597015
1, 53040, Tempo, 547945
1, 54480, Tempo, 517241
1, 54720, Tempo, 547945
1, 56160, Tempo, 576923
1, 57128, Tempo, 600000
1, 57600, Tempo, 545455
1, 58560, Tempo, 530973
1, 59040, Tempo, 538117
1, 60960, Tempo, 571429
1, 61440, Tempo, 600000
1, 61908, Tempo, 545455
1, 62888, Tempo, 750000
1, 63368, Tempo, 545455
1, 63440, Tempo, 547945
1, 63480, Tempo, 794702
1, 63840, Tempo, 621762
1, 64320, Tempo, 666667
1, 64808, Tempo, 666667
1, 66728, Tempo, 1212121
1, 67200, Tempo, 736196
1, 67680, Tempo, 597015
1, 68160, Tempo, 566038
1, 68640, Tempo, 545455
1, 69120, Tempo, 600000
1, 69588, Tempo, 545455
1, 71520, Tempo, 600000
1, 72000, Tempo, 615385
1, 72960, Tempo, 600000
1, 73440, Tempo, 597015
1, 73920, Tempo, 545455
1, 74888, Tempo, 571429
1, 75348, Tempo, 545455
1, 76308, Tempo, 547945
1, 76320, Tempo, 547945
1, 76368, Tempo, 550459
1, 76420, Tempo, 552995
1, 76468, Tempo, 555556
1, 76520, Tempo, 558140
1, 76568, Tempo, 560748
1, 76620, Tempo, 563380
1, 76668, Tempo, 566038
1, 76720, Tempo, 568720
1, 76768, Tempo, 571429
1, 76820, Tempo, 574163
1, 76868, Tempo, 576923
1, 76920, Tempo, 579710
1, 76968, Tempo, 582524
1, 77020, Tempo, 585366
1, 77060, Tempo, 588235
1, 77108, Tempo, 591133
1, 77160, Tempo, 594059
1, 77208, Tempo, 597015
1, 77260, Tempo, 600000
1, 77308, Tempo, 603015
1, 77360, Tempo, 606061
1, 77408, Tempo, 609137
1, 77460, Tempo, 612245
1, 77508, Tempo, 615385
1, 77560, Tempo, 618557
1, 77608, Tempo, 621762
1, 78720, Tempo, 600000
1, 79188, Tempo, 597015
1, 79680, Tempo, 545455
1, 80648, Tempo, 571429
1, 81108, Tempo, 545455
1, 83028, Tempo, 576923
1, 83040, Tempo, 574163
1, 83528, Tempo, 550459
1, 84480, Tempo, 600000
1, 84960, Tempo, 597015
1, 85440, Tempo, 545455
1, 86408, Tempo, 571429
1, 86868, Tempo, 545455
1, 87828, Tempo, 547945
1, 87840, Tempo, 547945
1, 87888, Tempo, 550459
1, 87940, Tempo, 552995
1, 87988, Tempo, 555556
1, 88040, Tempo, 558140
1, 88088, Tempo, 560748
1, 88140, Tempo, 563380
1, 88188, Tempo, 566038
1, 88240, Tempo, 568720
1, 88288, Tempo, 571429
1, 88340, Tempo, 574163
1, 88388, Tempo, 576923
1, 88440, Tempo, 579710
1, 88488, Tempo, 582524
1, 88540, Tempo, 585366
1, 88580, Tempo, 588235
1, 88628, Tempo, 591133
1, 88680, Tempo, 594059
1, 88728, Tempo, 597015
1, 88780, Tempo, 600000
1, 88828, Tempo, 603015
1, 88880, Tempo, 606061
1, 88928, Tempo, 609137
1, 88980, Tempo, 612245
1, 89028, Tempo, 615385
1, 89080, Tempo, 618557
1, 89128, Tempo, 621762
1, 89180, Tempo, 625000
1, 90480, Tempo, 504202
1, 90720, Tempo, 550459
1, 91200, Tempo, 533333
1, 91680, Tempo, 502092
1, 92160, Tempo, 552995
1, 92640, Tempo, 547945
1, 93120, Tempo, 524017
1, 93600, Tempo, 521739
1, 94080, Tempo, 542986
1, 94560, Tempo, 563380
1, 95040, Tempo, 524017
1, 96000, Tempo, 597015
1, 96240, Tempo, 547945
1, 97680, Tempo, 517241
1, 97920, Tempo, 547945
1, 99360, Tempo, 576923
1, 100328, Tempo, 600000
1, 100800, Tempo, 545455
1, 101760, Tempo, 530973
1, 102240, Tempo, 538117
1, 104160, Tempo, 571429
1, 104640, Tempo, 600000
1, 105108, Tempo, 545455
1, 106088, Tempo, 750000
1, 106560, Tempo, 750000
1, 106568, Tempo, 545455
1, 106640, Tempo, 547945
1, 106680, Tempo, 794702
1, 107040, Tempo, 621762
1, 107520, Tempo, 666667
1, 109928, Tempo, 1212121
1, 110400, Tempo, 736196
1, 110880, Tempo, 597015
1, 111360, Tempo, 566038
1, 111840, Tempo, 545455
1, 112320, Tempo, 600000
1, 112788, Tempo, 545455
1, 114720, Tempo, 600000
1, 115200, Tempo, 615385
1, 116160, Tempo, 600000
1, 116640, Tempo, 597015
1, 117120, Tempo, 545455
1, 118088, Tempo, 571429
1, 118548, Tempo, 545455
1, 119508, Tempo, 547945
1, 119520, Tempo, 547945
1, 119568, Tempo, 550459
1, 119620, Tempo, 552995
1, 119668, Tempo, 555556
1, 119720, Tempo, 558140
1, 119768, Tempo, 560748
1, 119820, Tempo, 563380
1, 119868, Tempo, 566038
1, 119920, Tempo, 568720
1, 119968, Tempo, 571429
1, 120020, Tempo, 574163
1, 120068, Tempo, 576923
1, 120120, Tempo, 579710
1, 120168, Tempo, 582524
1, 120220, Tempo, 585366
1, 120260, Tempo, 588235
1, 120308, Tempo, 591133
1, 120360, Tempo, 594059
1, 120408, Tempo, 597015
1, 120460, Tempo, 600000
1, 120508, Tempo, 603015
1, 120560, Tempo, 606061
1, 120608, Tempo, 609137
1, 120660, Tempo, 612245
1, 120708, Tempo, 615385
1, 120760, Tempo, 618557
1, 120808, Tempo, 621762
1, 121920, Tempo, 600000
1, 122388, Tempo, 597015
1, 122880, Tempo, 545455
1, 123848, Tempo, 571429
1, 124308, Tempo, 545455
1, 126228, Tempo, 576923
1, 126240, Tempo, 574163
1, 126728, Tempo, 550459
1, 127680, Tempo, 600000
1, 128160, Tempo, 597015
1, 128640, Tempo, 545455
1, 129608, Tempo, 571429
1, 130068, Tempo, 545455
1, 131028, Tempo, 547945
1, 131040, Tempo, 547945
1, 131088, Tempo, 550459
1, 131140, Tempo, 552995
1, 131188, Tempo, 555556
1, 131240, Tempo, 558140
1, 131288, Tempo, 560748
1, 131340, Tempo, 563380
1, 131388, Tempo, 566038
1, 131440, Tempo, 568720
1, 131488, Tempo, 571429
1, 131540, Tempo, 574163
1, 131588, Tempo, 576923
1, 131640, Tempo, 579710
1, 131688, Tempo, 582524
1, 131740, Tempo, 585366
1, 131780, Tempo, 588235
1, 131828, Tempo, 591133
1, 131880, Tempo, 594059
1, 131928, Tempo, 597015
1, 131980, Tempo, 600000
1, 132028, Tempo, 603015
1, 132080, Tempo, 606061
1, 132128, Tempo, 609137
1, 132180, Tempo, 612245
1, 132228, Tempo, 615385
1, 132280, Tempo, 618557
1, 132328, Tempo, 621762
1, 132380, Tempo, 625000
1, 133440, Tempo, 600000
1, 133440, Marker_t, "Trio"
1, 133896, Tempo, 480000
1, 133920, Key_signature, -5, "major"
1, 134056, Tempo, 478088
1, 134216, Tempo, 476190
1, 134323, Tempo, 474308
1, 134483, Tempo, 472441
1, 134643, Tempo, 470588
1, 134750, Tempo, 468750
1, 134910, Tempo, 466926
1, 135016, Tempo, 465116
1, 135120, Tempo, 474308
1, 135360, Tempo, 461538
1, 137280, Tempo, 452830
1, 137760, Tempo, 456274
1, 138240, Tempo, 456274
1, 139200, Tempo, 480000
1, 139680, Tempo, 459770
1, 143040, Tempo, 451128
1, 144480, Tempo, 459770
1, 146400, Tempo, 465116
1, 146880, Tempo, 458015
1, 148800, Tempo, 461538
1, 149280, Tempo, 466926
1, 150720, Tempo, 481928
1, 151200, Tempo, 463320
1, 153840, Tempo, 480000
1, 154080, Tempo, 463320
1, 154560, Tempo, 458015
1, 156480, Tempo, 476190
1, 156960, Tempo, 461538
1, 160320, Tempo, 458015
1, 161160, Tempo, 458015
1, 161400, Tempo, 456274
1, 161760, Tempo, 458015
1, 162240, Tempo, 463320
1, 162720, Tempo, 456274
1, 165600, Tempo, 461538
1, 167520, Tempo, 468750
1, 168480, Tempo, 459770
1, 171840, Tempo, 452830
1, 173280, Tempo, 458015
1, 173760, Tempo, 480000
1, 174240, Tempo, 461538
1, 175440, Tempo, 476190
1, 175680, Tempo, 459770
1, 176760, Tempo, 444444
1, 177120, Tempo, 463320
1, 177240, Tempo, 461538
1, 177600, Tempo, 456274
1, 179040, Tempo, 454545
1, 180000, Key_signature, 0, "major"
1, 181440, Tempo, 454545
1, 182640, Tempo, 478088
1, 182880, Tempo, 452830
1, 183240, Tempo, 449438
1, 183360, Tempo, 449438
1, 183480, Tempo, 444444
1, 184080, Tempo, 465116
1, 184320, Tempo, 436364
1, 185520, Tempo, 454545
1, 185760, Tempo, 439560
1, 188572, Tempo, 439560
1, 188732, Tempo, 441176
1, 188892, Tempo, 442804
1, 189052, Tempo, 444444
1, 189212, Tempo, 446097
1, 189372, Tempo, 447761
1, 189532, Tempo, 449438
1, 189692, Tempo, 451128
1, 189852, Tempo, 452830
1, 190012, Tempo, 454545
1, 190172, Tempo, 456274
1, 190332, Tempo, 458015
1, 190492, Tempo, 459770
1, 190652, Tempo, 461538
1, 190812, Tempo, 463320
1, 190920, Tempo, 487805
1, 191040, Tempo, 502092
1, 191520, Tempo, 463320
1, 192932, Tempo, 468750
1, 192972, Tempo, 466926
1, 193012, Tempo, 465116
1, 193052, Tempo, 463320
1, 193092, Tempo, 461538
1, 193132, Tempo, 459770
1, 193172, Tempo, 458015
1, 193212, Tempo, 456274
1, 193252, Tempo, 454545
1, 193292, Tempo, 452830
1, 193332, Tempo, 451128
1, 193372, Tempo, 449438
1, 193932, Tempo, 452830
1, 194052, Tempo, 454545
1, 194132, Tempo, 456274
1, 194212, Tempo, 458015
1, 194292, Tempo, 459770
1, 194400, Key_signature, -5, "major"
1, 194400, Tempo, 463320
1, 194520, Tempo, 463320
1, 195840, Tempo, 466926
1, 196440, Tempo, 472441
1, 196800, Tempo, 481928
1, 196920, Tempo, 500000
1, 197040, Tempo, 551724
1, 197280, Tempo, 463320
1, 199800, Tempo, 446097
1, 199920, Tempo, 449438
1, 200160, Tempo, 461538
1, 201120, Tempo, 454545
1, 202560, Tempo, 476190
1, 203040, Tempo, 459770
1, 204120, Tempo, 468750
1, 204360, Tempo, 459770
1, 204480, Tempo, 459770
1, 206280, Tempo, 452830
1, 206400, Tempo, 452830
1, 208320, Tempo, 459770
1, 208800, Tempo, 459770
1, 209280, Tempo, 452830
1, 211680, Tempo, 461538
1, 211800, Tempo, 463320
1, 213120, Tempo, 470588
1, 214080, Tempo, 500000
1, 214560, Tempo, 459770
1, 217920, Tempo, 452830
1, 219360, Tempo, 458015
1, 219840, Tempo, 480000
1, 220320, Tempo, 461538
1, 221520, Tempo, 476190
1, 221760, Tempo, 459770
1, 222840, Tempo, 444444
1, 223200, Tempo, 463320
1, 223320, Tempo, 461538
1, 223680, Tempo, 456274
1, 225120, Tempo, 454545
1, 226080, Key_signature, 0, "major"
1, 227520, Tempo, 454545
1, 228720, Tempo, 478088
1, 228960, Tempo, 452830
1, 229320, Tempo, 449438
1, 229440, Tempo, 449438
1, 229560, Tempo, 444444
1, 230160, Tempo, 465116
1, 230400, Tempo, 436364
1, 231600, Tempo, 454545
1, 231840, Tempo, 439560
1, 234652, Tempo, 439560
1, 234812, Tempo, 441176
1, 234972, Tempo, 442804
1, 235132, Tempo, 444444
1, 235292, Tempo, 446097
1, 235452, Tempo, 447761
1, 235612, Tempo, 449438
1, 235772, Tempo, 451128
1, 235932, Tempo, 452830
1, 236092, Tempo, 454545
1, 236252, Tempo, 456274
1, 236412, Tempo, 458015
1, 236572, Tempo, 459770
1, 236732, Tempo, 461538
1, 236892, Tempo, 463320
1, 237000, Tempo, 487805
1, 237120, Tempo, 502092
1, 237600, Tempo, 463320
1, 239012, Tempo, 468750
1, 239052, Tempo, 466926
1, 239092, Tempo, 465116
1, 239132, Tempo, 463320
1, 239172, Tempo, 461538
1, 239212, Tempo, 459770
1, 239252, Tempo, 458015
1, 239292, Tempo, 456274
1, 239332, Tempo, 454545
1, 239372, Tempo, 452830
1, 239412, Tempo, 451128
1, 239452, Tempo, 449438
1, 240012, Tempo, 452830
1, 240132, Tempo, 454545
1, 240212, Tempo, 456274
1, 240292, Tempo, 458015
1, 240372, Tempo, 459770
1, 240480, Key_signature, -5, "major"
1, 240480, Tempo, 463320
1, 240600, Tempo, 463320
1, 241920, Tempo, 466926
1, 242520, Tempo, 472441
1, 242880, Tempo, 481928
1, 243000, Tempo, 500000
1, 243120, Tempo, 551724
1, 243360, Tempo, 463320
1, 245880, Tempo, 446097
1, 246000, Tempo, 449438
1, 246240, Tempo, 461538
1, 247200, Tempo, 454545
1, 248640, Tempo, 476190
1, 249120, Tempo, 459770
1, 250200, Tempo, 468750
1, 250440, Tempo, 459770
1, 250560, Tempo, 459770
1, 252360, Tempo, 452830
1, 252480, Tempo, 452830
1, 254400, Tempo, 459770
1, 254880, Tempo, 459770
1, 255360, Tempo, 452830
1, 257760, Tempo, 461538
1, 257880, Tempo, 463320
1, 259200, Tempo, 470588
1, 260160, Tempo, 500000
1, 260640, Tempo, 461538
1, 263040, Tempo, 497925
1, 263520, Tempo, 458015
1, 264840, Tempo, 463320
1, 265920, Tempo, 481928
1, 266400, Tempo, 465116
1, 267840, Tempo, 480000
1, 269399, Tempo, 500000
1, 269439, Tempo, 502092
1, 269479, Tempo, 504202
1, 269519, Tempo, 506329
1, 269559, Tempo, 508475
1, 269599, Tempo, 510638
1, 269639, Tempo, 512821
1, 269679, Tempo, 515021
1, 269719, Tempo, 519481
1, 269759, Tempo, 521739
1, 269799, Tempo, 524017
1, 269839, Tempo, 526316
1, 269879, Tempo, 528634
1, 269919, Tempo, 530973
1, 269959, Tempo, 533333
1, 269999, Tempo, 535714
1, 270039, Tempo, 538117
1, 270079, Tempo, 542986
1, 270228, Tempo, 547945
1, 270268, Tempo, 550459
1, 270300, Tempo, 552995
1, 270328, Tempo, 555556
1, 270360, Tempo, 558140
1, 270388, Tempo, 560748
1, 270428, Tempo, 563380
1, 270460, Tempo, 566038
1, 270488, Tempo, 568720
1, 270520, Tempo, 571429
1, 270548, Tempo, 574163
1, 270580, Tempo, 576923
1, 270620, Tempo, 579710
1, 270648, Tempo, 582524
1, 270680, Tempo, 585366
1, 270708, Tempo, 588235
1, 270740, Tempo, 591133
1, 270780, Tempo, 594059
1, 270808, Tempo, 597015
1, 270840, Tempo, 600000
1, 270868, Tempo, 603015
1, 270900, Tempo, 606061
1, 270928, Tempo, 609137
1, 270968, Tempo, 612245
1, 271000, Tempo, 615385
1, 271028, Tempo, 618557
1, 271060, Tempo, 621762
1, 271088, Tempo, 625000
1, 271120, Tempo, 628272
1, 271160, Tempo, 631579
1, 271188, Tempo, 634921
1, 271220, Tempo, 638298
1, 271248, Tempo, 641711
1, 271280, Tempo, 645161
1, 271320, Tempo, 648649
1, 271348, Tempo, 652174
1, 271380, Tempo, 655738
1, 271408, Tempo, 659341
1, 271440, Tempo, 662983
1, 271468, Tempo, 666667
1, 271508, Tempo, 670391
1, 271540, Tempo, 674157
1, 271568, Tempo, 677966
1, 271600, Tempo, 681818
1, 271628, Tempo, 685714
1, 271660, Tempo, 689655
1, 271680, Tempo, 603015
1, 272160, Key_signature, -4, "major"
1, 272160, Tempo, 600000
1, 272640, Tempo, 545455
1, 273600, Tempo, 600000
1, 274068, Tempo, 545455
1, 276000, Tempo, 600000
1, 276488, Tempo, 550459
1, 277440, Tempo, 600000
1, 278400, Tempo, 547945
1, 278408, Tempo, 545455
1, 279368, Tempo, 600000
1, 279840, Tempo, 547945
1, 280800, Tempo, 600000
1, 281280, Tempo, 638298
1, 282240, Tempo, 615385
1, 283200, Tempo, 600000
1, 283668, Tempo, 597015
1, 284160, Tempo, 545455
1, 285128, Tempo, 571429
1, 285588, Tempo, 545455
1, 287508, Tempo, 576923
1, 287520, Tempo, 574163
1, 288008, Tempo, 550459
1, 288960, Tempo, 600000
1, 289920, Tempo, 547945
1, 289928, Tempo, 545455
1, 290768, Tempo, 600000
1, 290888, Tempo, 600000
1, 291360, Tempo, 547945
1, 292320, Tempo, 600000
1, 292800, Tempo, 579710
1, 293400, Tempo, 606061
1, 293520, Tempo, 693642
1, 293760, Tempo, 628272
1, 294960, Tempo, 500000
1, 295200, Tempo, 550459
1, 295680, Tempo, 533333
1, 296160, Tempo, 502092
1, 296640, Tempo, 552995
1, 297120, Tempo, 547945
1, 297600, Tempo, 524017
1, 298080, Tempo, 521739
1, 298560, Tempo, 542986
1, 299040, Tempo, 563380
1, 299520, Tempo, 524017
1, 300480, Tempo, 597015
1, 300720, Tempo, 547945
1, 302160, Tempo, 517241
1, 302400, Tempo, 547945
1, 303840, Tempo, 576923
1, 304808, Tempo, 600000
1, 305280, Tempo, 545455
1, 306240, Tempo, 530973
1, 306720, Tempo, 538117
1, 308640, Tempo, 571429
1, 309120, Tempo, 600000
1, 309588, Tempo, 545455
1, 310568, Tempo, 750000
1, 311040, Tempo, 750000
1, 311048, Tempo, 545455
1, 311120, Tempo, 547945
1, 311160, Tempo, 794702
1, 311520, Tempo, 621762
1, 312000, Tempo, 666667
1, 313920, Tempo, 710059
1, 314408, Tempo, 1212121
1, 314880, Tempo, 736196
1, 315360, Tempo, 597015
1, 315840, Tempo, 566038
1, 316320, Tempo, 545455
1, 316800, Tempo, 600000
1, 317268, Tempo, 545455
1, 319200, Tempo, 600000
1, 319680, Tempo, 615385
1, 320640, Tempo, 600000
1, 321120, Tempo, 597015
1, 321600, Tempo, 545455
1, 322568, Tempo, 571429
1, 323028, Tempo, 545455
1, 323988, Tempo, 547945
1, 324000, Tempo, 547945
1, 324048, Tempo, 550459
1, 324100, Tempo, 552995
1, 324148, Tempo, 555556
1, 324200, Tempo, 558140
1, 324248, Tempo, 560748
1, 324300, Tempo, 563380
1, 324348, Tempo, 566038
1, 324400, Tempo, 568720
1, 324448, Tempo, 571429
1, 324500, Tempo, 574163
1, 324548, Tempo, 576923
1, 324600, Tempo, 579710
1, 324648, Tempo, 582524
1, 324700, Tempo, 585366
1, 324740, Tempo, 588235
1, 324788, Tempo, 591133
1, 324840, Tempo, 594059
1, 324888, Tempo, 597015
1, 324940, Tempo, 600000
1, 324988, Tempo, 603015
1, 325040, Tempo, 606061
1, 325088, Tempo, 609137
1, 325140, Tempo, 612245
1, 325188, Tempo, 615385
1, 325240, Tempo, 618557
1, 325288, Tempo, 621762
1, 326400, Tempo, 600000
1, 326868, Tempo, 597015
1, 327360, Tempo, 545455
1, 328328, Tempo, 571429
1, 328788, Tempo, 545455
1, 330708, Tempo, 576923
1, 330720, Tempo, 574163
1, 331208, Tempo, 550459
1, 332160, Tempo, 600000
1, 332640, Tempo, 597015
1, 333120, Tempo, 545455
1, 334088, Tempo, 571429
1, 334548, Tempo, 545455
1, 335508, Tempo, 547945
1, 335520, Tempo, 547945
1, 335568, Tempo, 550459
1, 335620, Tempo, 552995
1, 335668, Tempo, 555556
1, 335720, Tempo, 558140
1, 335768, Tempo, 560748
1, 335820, Tempo, 563380
1, 335868, Tempo, 566038
1, 335920, Tempo, 568720
1, 335968, Tempo, 571429
1, 336020, Tempo, 574163
1, 336068, Tempo, 576923
1, 336120, Tempo, 579710
1, 336168, Tempo, 582524
1, 336220, Tempo, 585366
1, 336260, Tempo, 588235
1, 336308, Tempo, 591133
1, 336360, Tempo, 594059
1, 336408, Tempo, 597015
1, 336460, Tempo, 600000
1, 336508, Tempo, 603015
1, 336560, Tempo, 606061
1, 336608, Tempo, 609137
1, 336660, Tempo, 612245
1, 336708, Tempo, 615385
1, 336760, Tempo, 618557
1, 336808, Tempo, 621762
1, 336860, Tempo, 625000
1, 340328, Tempo, 648649
1, 340788, Tempo, 600000
1, 341280, Tempo, 600000
1, 341288, Tempo, 600000
1, 341308, Tempo, 603015
1, 341328, Tempo, 606061
1, 341348, Tempo, 609137
1, 341368, Tempo, 612245
1, 341380, Tempo, 615385
1, 341400, Tempo, 618557
1, 341420, Tempo, 621762
1, 341440, Tempo, 625000
1, 341460, Tempo, 628272
1, 341468, Tempo, 631579
1, 341488, Tempo, 634921
1, 341508, Tempo, 638298
1, 341528, Tempo, 641711
1, 341548, Tempo, 645161
1, 341560, Tempo, 648649
1, 341580, Tempo, 652174
1, 341600, Tempo, 655738
1, 341620, Tempo, 659341
1, 341640, Tempo, 662983
1, 341648, Tempo, 666667
1, 341668, Tempo, 670391
1, 341688, Tempo, 674157
1, 341708, Tempo, 677966
1, 341728, Tempo, 681818
1, 341740, Tempo, 685714
1, 341760, Tempo, 689655
1, 341780, Tempo, 693642
1, 341800, Tempo, 697674
1, 341820, Tempo, 701754
1, 341828, Tempo, 705882
1, 341848, Tempo, 710059
1, 341868, Tempo, 714286
1, 341888, Tempo, 718563
1, 341908, Tempo, 722892
1, 341920, Tempo, 727273
1, 341940, Tempo, 731707
1, 341960, Tempo, 736196
1, 341980, Tempo, 740741
1, 342000, Tempo, 745342
1, 342008, Tempo, 750000
1, 342028, Tempo, 754717
1, 342048, Tempo, 759494
1, 342068, Tempo, 764331
1, 342088, Tempo, 769231
1, 342100, Tempo, 774194
1, 342120, Tempo, 779221
1, 342140, Tempo, 784314
1, 342160, Tempo, 789474
1, 342180, Tempo, 794702
1, 342188, Tempo, 800000
1, 342208, Tempo, 805369
1, 342228, Tempo, 810811
1, 342248, Tempo, 816327
1, 342268, Tempo, 821918
1, 342280, Tempo, 827586
1, 342300, Tempo, 833333
1, 342320, Tempo, 839161
1, 342340, Tempo, 845070
1, 342360, Tempo, 851064
1, 342368, Tempo, 857143
1, 342388, Tempo, 863309
1, 342408, Tempo, 869565
1, 342428, Tempo, 875912
1, 342448, Tempo, 882353
1, 342460, Tempo, 888889
1, 342480, Tempo, 895522
1, 342500, Tempo, 902256
1, 342520, Tempo, 909091
1, 342540, Tempo, 916031
1, 342548, Tempo, 923077
1, 342568, Tempo, 930233
1, 342588, Tempo, 937500
1, 342608, Tempo, 944882
1, 342628, Tempo, 952381
1, 342640, Tempo, 960000
1, 342660, Tempo, 967742
1, 342680, Tempo, 975610
1, 342700, Tempo, 983607
1, 342708, Tempo, 991736
1, 342720, Tempo, 736196
1, 342720, End_track
2, 0, Start_track
2, 0, Title_t, "Right "
2, 0, Program_c, 0, 0
2, 0, Control_c, 0, 7, 80
2, 0, Control_c, 0, 91, 124
2, 960, Note_on_c, 0, 63, 46
2, 1435, Note_on_c, 0, 63, 0
2, 1440, Note_on_c, 0, 68, 46
2, 1440, Note_on_c, 0, 60, 34
2, 1440, Note_on_c, 0, 63, 34
2, 1915, Note_on_c, 0, 63, 0
2, 1915, Note_on_c, 0, 60, 0
2, 1915, Note_on_c, 0, 68, 0
2, 1920, Note_on_c, 0, 68, 46
2, 1920, Note_on_c, 0, 60, 34
2, 1920, Note_on_c, 0, 63, 34
2, 2640, Note_on_c, 0, 68, 0
2, 2640, Note_on_c, 0, 70, 39
2, 2880, Note_on_c, 0, 70, 0
2, 2880, Note_on_c, 0, 63, 0
2, 2880, Note_on_c, 0, 60, 0
2, 2880, Note_on_c, 0, 61, 34
2, 2880, Note_on_c, 0, 63, 34
2, 2880, Note_on_c, 0, 68, 46
2, 3355, Note_on_c, 0, 68, 0
2, 3355, Note_on_c, 0, 63, 0
2, 3355, Note_on_c, 0, 61, 0
2, 3360, Note_on_c, 0, 61, 34
2, 3360, Note_on_c, 0, 67, 46
2, 3360, Note_on_c, 0, 63, 34
2, 4080, Note_on_c, 0, 67, 0
2, 4080, Note_on_c, 0, 70, 37
2, 4318, Note_on_c, 0, 70, 0
2, 4320, Note_on_c, 0, 63, 0
2, 4320, Note_on_c, 0, 61, 0
2, 4320, Note_on_c, 0, 70, 46
2, 4795, Note_on_c, 0, 70, 0
2, 4800, Note_on_c, 0, 63, 38
2, 4800, Note_on_c, 0, 68, 51
2, 5275, Note_on_c, 0, 68, 0
2, 5275, Note_on_c, 0, 63, 0
2, 5280, Note_on_c, 0, 63, 39
2, 5280, Note_on_c, 0, 61, 39
2, 5280, Note_on_c, 0, 70, 52
2, 5755, Note_on_c, 0, 70, 0
2, 5755, Note_on_c, 0, 61, 0
2, 5755, Note_on_c, 0, 63, 0
2, 5760, Note_on_c, 0, 63, 40
2, 5760, Note_on_c, 0, 60, 40
2, 5760, Note_on_c, 0, 72, 55
2, 6720, Note_on_c, 0, 72, 0
2, 6720, Note_on_c, 0, 60, 0
2, 6720, Note_on_c, 0, 63, 0
2, 6720, Note_on_c, 0, 63, 55
2, 7195, Note_on_c, 0, 63, 0
2, 7200, Note_on_c, 0, 72, 66
2, 7200, Note_on_c, 0, 60, 49
2, 7200, Note_on_c, 0, 63, 49
2, 7675, Note_on_c, 0, 63, 0
2, 7675, Note_on_c, 0, 60, 0
2, 7675, Note_on_c, 0, 72, 0
2, 7680, Note_on_c, 0, 63, 50
2, 7680, Note_on_c, 0, 60, 50
2, 7680, Note_on_c, 0, 72, 67
2, 8400, Note_on_c, 0, 72, 0
2, 8400, Note_on_c, 0, 60, 0
2, 8400, Note_on_c, 0, 63, 0
2, 8400, Note_on_c, 0, 61, 42
2, 8400, Note_on_c, 0, 73, 57
2, 8400, Note_on_c, 0, 63, 42
2, 8640, Note_on_c, 0, 63, 0
2, 8640, Note_on_c, 0, 73, 0
2, 8640, Note_on_c, 0, 61, 0
2, 8640, Note_on_c, 0, 63, 48
2, 8640, Note_on_c, 0, 72, 65
2, 8640, Note_on_c, 0, 60, 48
2, 9115, Note_on_c, 0, 60, 0
2, 9115, Note_on_c, 0, 72, 0
2, 9115, Note_on_c, 0, 63, 0
2, 9120, Note_on_c, 0, 58, 43
2, 9120, Note_on_c, 0, 63, 43
2, 9120, Note_on_c, 0, 70, 58
2, 9840, Note_on_c, 0, 70, 0
2, 9840, Note_on_c, 0, 63, 0
2, 9840, Note_on_c, 0, 58, 0
2, 9840, Note_on_c, 0, 72, 52
2, 9840, Note_on_c, 0, 63, 39
2, 9840, Note_on_c, 0, 60, 39
2, 10080, Note_on_c, 0, 60, 0
2, 10080, Note_on_c, 0, 63, 0
2, 10080, Note_on_c, 0, 72, 0
2, 10080, Note_on_c, 0, 58, 41
2, 10080, Note_on_c, 0, 63, 41
2, 10080, Note_on_c, 0, 70, 56
2, 10555, Note_on_c, 0, 70, 0
2, 10555, Note_on_c, 0, 63, 0
2, 10555, Note_on_c, 0, 58, 0
2, 10560, Note_on_c, 0, 63, 39
2, 10560, Note_on_c, 0, 68, 52
2, 10560, Note_on_c, 0, 56, 39
2, 11035, Note_on_c, 0, 56, 0
2, 11035, Note_on_c, 0, 68, 0
2, 11035, Note_on_c, 0, 63, 0
2, 11040, Note_on_c, 0, 75, 66
2, 11040, Note_on_c, 0, 63, 49
2, 11040, Note_on_c, 0, 70, 49
2, 11400, Note_on_c, 0, 75, 0
2, 11400, Note_on_c, 0, 73, 59
2, 11520, Note_on_c, 0, 73, 0
2, 11520, Note_on_c, 0, 70, 0
2, 11520, Note_on_c, 0, 63, 0
2, 11520, Note_on_c, 0, 68, 37
2, 11520, Note_on_c, 0, 72, 50
2, 11520, Note_on_c, 0, 63, 37
2, 12480, Note_on_c, 0, 63, 0
2, 12480, Note_on_c, 0, 72, 0
2, 12480, Note_on_c, 0, 68, 0
2, 12480, Note_on_c, 0, 75, 56
2, 12955, Note_on_c, 0, 75, 0
2, 12960, Note_on_c, 0, 75, 34
2, 12960, Note_on_c, 0, 72, 34
2, 12960, Note_on_c, 0, 80, 54
2, 13435, Note_on_c, 0, 80, 0
2, 13435, Note_on_c, 0, 72, 0
2, 13435, Note_on_c, 0, 75, 0
2, 13440, Note_on_c, 0, 75, 34
2, 13440, Note_on_c, 0, 72, 34
2, 13440, Note_on_c, 0, 80, 57
2, 14160, Note_on_c, 0, 80, 0
2, 14160, Note_on_c, 0, 82, 50
2, 14400, Note_on_c, 0, 82, 0
2, 14400, Note_on_c, 0, 72, 0
2, 14400, Note_on_c, 0, 75, 0
2, 14400, Note_on_c, 0, 73, 34
2, 14400, Note_on_c, 0, 80, 57
2, 14400, Note_on_c, 0, 75, 34
2, 14875, Note_on_c, 0, 75, 0
2, 14875, Note_on_c, 0, 80, 0
2, 14875, Note_on_c, 0, 73, 0
2, 14880, Note_on_c, 0, 79, 57
2, 14880, Note_on_c, 0, 75, 34
2, 14880, Note_on_c, 0, 73, 34
2, 15600, Note_on_c, 0, 79, 0
2, 15600, Note_on_c, 0, 82, 57
2, 15840, Note_on_c, 0, 82, 0
2, 15840, Note_on_c, 0, 73, 0
2, 15840, Note_on_c, 0, 75, 0
2, 15840, Note_on_c, 0, 82, 57
2, 16315, Note_on_c, 0, 82, 0
2, 16320, Note_on_c, 0, 80, 59
2, 16320, Note_on_c, 0, 75, 35
2, 16795, Note_on_c, 0, 75, 0
2, 16795, Note_on_c, 0, 80, 0
2, 16800, Note_on_c, 0, 73, 37
2, 16800, Note_on_c, 0, 82, 62
2, 16800, Note_on_c, 0, 75, 37
2, 17275, Note_on_c, 0, 75, 0
2, 17275, Note_on_c, 0, 82, 0
2, 17275, Note_on_c, 0, 73, 0
2, 17280, Note_on_c, 0, 75, 40
2, 17280, Note_on_c, 0, 72, 40
2, 17280, Note_on_c, 0, 84, 66
2, 18240, Note_on_c, 0, 84, 0
2, 18240, Note_on_c, 0, 72, 0
2, 18240, Note_on_c, 0, 75, 0
2, 18240, Note_on_c, 0, 75, 65
2, 18715, Note_on_c, 0, 75, 0
2, 18720, Note_on_c, 0, 84, 73
2, 18720, Note_on_c, 0, 75, 44
2, 18720, Note_on_c, 0, 72, 44
2, 19195, Note_on_c, 0, 72, 0
2, 19195, Note_on_c, 0, 75, 0
2, 19195, Note_on_c, 0, 84, 0
2, 19200, Note_on_c, 0, 75, 44
2, 19200, Note_on_c, 0, 72, 44
2, 19200, Note_on_c, 0, 84, 74
2, 19920, Note_on_c, 0, 84, 0
2, 19920, Note_on_c, 0, 85, 67
2, 20160, Note_on_c, 0, 85, 0
2, 20160, Note_on_c, 0, 72, 0
2, 20160, Note_on_c, 0, 75, 0
2, 20160, Note_on_c, 0, 72, 37
2, 20160, Note_on_c, 0, 84, 58
2, 20160, Note_on_c, 0, 76, 37
2, 20635, Note_on_c, 0, 76, 0
2, 20635, Note_on_c, 0, 84, 0
2, 20635, Note_on_c, 0, 72, 0
2, 20640, Note_on_c, 0, 76, 36
2, 20640, Note_on_c, 0, 72, 36
2, 20640, Note_on_c, 0, 82, 52
2, 21360, Note_on_c, 0, 82, 0
2, 21360, Note_on_c, 0, 84, 54
2, 21600, Note_on_c, 0, 84, 0
2, 21600, Note_on_c, 0, 72, 0
2, 21600, Note_on_c, 0, 76, 0
2, 21600, Note_on_c, 0, 72, 36
2, 21600, Note_on_c, 0, 82, 49
2, 21600, Note_on_c, 0, 77, 36
2, 22075, Note_on_c, 0, 77, 0
2, 22075, Note_on_c, 0, 82, 0
2, 22075, Note_on_c, 0, 72, 0
2, 22080, Note_on_c, 0, 80, 47
2, 22080, Note_on_c, 0, 72, 34
2, 22080, Note_on_c, 0, 77, 34
2, 22240, Note_on_c, 0, 80, 0
2, 22240, Note_on_c, 0, 82, 52
2, 22320, Note_on_c, 0, 82, 0
2, 22320, Note_on_c, 0, 80, 52
2, 22400, Note_on_c, 0, 80, 0
2, 22400, Note_on_c, 0, 79, 52
2, 22480, Note_on_c, 0, 79, 0
2, 22480, Note_on_c, 0, 80, 52
2, 22555, Note_on_c, 0, 77, 0
2, 22555, Note_on_c, 0, 72, 0
2, 22560, Note_on_c, 0, 80, 0
2, 22560, Note_on_c, 0, 73, 39
2, 22560, Note_on_c, 0, 79, 39
2, 22560, Note_on_c, 0, 84, 67
2, 22920, Note_on_c, 0, 84, 0
2, 22920, Note_on_c, 0, 82, 63
2, 23040, Note_on_c, 0, 82, 0
2, 23040, Note_on_c, 0, 79, 0
2, 23040, Note_on_c, 0, 73, 0
2, 23040, Note_on_c, 0, 80, 56
2, 23040, Note_on_c, 0, 72, 36
2, 24000, Note_on_c, 0, 72, 0
2, 24000, Note_on_c, 0, 80, 0
2, 24000, Note_on_c, 0, 63, 46
2, 24475, Note_on_c, 0, 63, 0
2, 24480, Note_on_c, 0, 60, 34
2, 24480, Note_on_c, 0, 63, 34
2, 24480, Note_on_c, 0, 68, 46
2, 24955, Note_on_c, 0, 68, 0
2, 24955, Note_on_c, 0, 63, 0
2, 24955, Note_on_c, 0, 60, 0
2, 24960, Note_on_c, 0, 68, 46
2, 24960, Note_on_c, 0, 60, 34
2, 24960, Note_on_c, 0, 63, 34
2, 25680, Note_on_c, 0, 68, 0
2, 25680, Note_on_c, 0, 70, 39
2, 25920, Note_on_c, 0, 70, 0
2, 25920, Note_on_c, 0, 63, 0
2, 25920, Note_on_c, 0, 60, 0
2, 25920, Note_on_c, 0, 61, 34
2, 25920, Note_on_c, 0, 68, 46
2, 25920, Note_on_c, 0, 63, 34
2, 26395, Note_on_c, 0, 63, 0
2, 26395, Note_on_c, 0, 68, 0
2, 26395, Note_on_c, 0, 61, 0
2, 26400, Note_on_c, 0, 67, 46
2, 26400, Note_on_c, 0, 63, 34
2, 26400, Note_on_c, 0, 61, 34
2, 27120, Note_on_c, 0, 67, 0
2, 27120, Note_on_c, 0, 70, 37
2, 27358, Note_on_c, 0, 70, 0
2, 27360, Note_on_c, 0, 61, 0
2, 27360, Note_on_c, 0, 63, 0
2, 27360, Note_on_c, 0, 70, 46
2, 27835, Note_on_c, 0, 70, 0
2, 27840, Note_on_c, 0, 63, 38
2, 27840, Note_on_c, 0, 68, 51
2, 28315, Note_on_c, 0, 68, 0
2, 28315, Note_on_c, 0, 63, 0
2, 28320, Note_on_c, 0, 63, 39
2, 28320, Note_on_c, 0, 61, 39
2, 28320, Note_on_c, 0, 70, 52
2, 28795, Note_on_c, 0, 70, 0
2, 28795, Note_on_c, 0, 61, 0
2, 28795, Note_on_c, 0, 63, 0
2, 28800, Note_on_c, 0, 72, 55
2, 28800, Note_on_c, 0, 63, 40
2, 28800, Note_on_c, 0, 60, 40
2, 29760, Note_on_c, 0, 60, 0
2, 29760, Note_on_c, 0, 63, 0
2, 29760, Note_on_c, 0, 72, 0
2, 29760, Note_on_c, 0, 63, 55
2, 30235, Note_on_c, 0, 63, 0
2, 30240, Note_on_c, 0, 60, 49
2, 30240, Note_on_c, 0, 63, 49
2, 30240, Note_on_c, 0, 72, 66
2, 30715, Note_on_c, 0, 72, 0
2, 30715, Note_on_c, 0, 63, 0
2, 30715, Note_on_c, 0, 60, 0
2, 30720, Note_on_c, 0, 63, 50
2, 30720, Note_on_c, 0, 60, 50
2, 30720, Note_on_c, 0, 72, 67
2, 31440, Note_on_c, 0, 72, 0
2, 31440, Note_on_c, 0, 60, 0
2, 31440, Note_on_c, 0, 63, 0
2, 31440, Note_on_c, 0, 63, 42
2, 31440, Note_on_c, 0, 61, 42
2, 31440, Note_on_c, 0, 73, 57
2, 31680, Note_on_c, 0, 73, 0
2, 31680, Note_on_c, 0, 61, 0
2, 31680, Note_on_c, 0, 63, 0
2, 31680, Note_on_c, 0, 60, 48
2, 31680, Note_on_c, 0, 63, 48
2, 31680, Note_on_c, 0, 72, 65
2, 32155, Note_on_c, 0, 72, 0
2, 32155, Note_on_c, 0, 63, 0
2, 32155, Note_on_c, 0, 60, 0
2, 32160, Note_on_c, 0, 70, 58
2, 32160, Note_on_c, 0, 63, 43
2, 32160, Note_on_c, 0, 58, 43
2, 32880, Note_on_c, 0, 58, 0
2, 32880, Note_on_c, 0, 63, 0
2, 32880, Note_on_c, 0, 70, 0
2, 32880, Note_on_c, 0, 72, 52
2, 32880, Note_on_c, 0, 63, 39
2, 32880, Note_on_c, 0, 60, 39
2, 33120, Note_on_c, 0, 60, 0
2, 33120, Note_on_c, 0, 63, 0
2, 33120, Note_on_c, 0, 72, 0
2, 33120, Note_on_c, 0, 58, 41
2, 33120, Note_on_c, 0, 63, 41
2, 33120, Note_on_c, 0, 70, 56
2, 33595, Note_on_c, 0, 70, 0
2, 33595, Note_on_c, 0, 63, 0
2, 33595, Note_on_c, 0, 58, 0
2, 33600, Note_on_c, 0, 56, 39
2, 33600, Note_on_c, 0, 63, 39
2, 33600, Note_on_c, 0, 68, 52
2, 34075, Note_on_c, 0, 68, 0
2, 34075, Note_on_c, 0, 63, 0
2, 34075, Note_on_c, 0, 56, 0
2, 34080, Note_on_c, 0, 70, 56
2, 34080, Note_on_c, 0, 63, 49
2, 34080, Note_on_c, 0, 75, 66
2, 34440, Note_on_c, 0, 75, 0
2, 34440, Note_on_c, 0, 73, 60
2, 34560, Note_on_c, 0, 73, 0
2, 34560, Note_on_c, 0, 63, 0
2, 34560, Note_on_c, 0, 70, 0
2, 34560, Note_on_c, 0, 63, 37
2, 34560, Note_on_c, 0, 68, 37
2, 34560, Note_on_c, 0, 72, 50
2, 35520, Note_on_c, 0, 72, 0
2, 35520, Note_on_c, 0, 68, 0
2, 35520, Note_on_c, 0, 63, 0
2, 35520, Note_on_c, 0, 75, 56
2, 35995, Note_on_c, 0, 75, 0
2, 36000, Note_on_c, 0, 80, 54
2, 36000, Note_on_c, 0, 75, 34
2, 36000, Note_on_c, 0, 72, 34
2, 36475, Note_on_c, 0, 72, 0
2, 36475, Note_on_c, 0, 75, 0
2, 36475, Note_on_c, 0, 80, 0
2, 36480, Note_on_c, 0, 72, 34
2, 36480, Note_on_c, 0, 80, 57
2, 36480, Note_on_c, 0, 75, 34
2, 37200, Note_on_c, 0, 80, 0
2, 37200, Note_on_c, 0, 82, 53
2, 37440, Note_on_c, 0, 82, 0
2, 37440, Note_on_c, 0, 75, 0
2, 37440, Note_on_c, 0, 72, 0
2, 37440, Note_on_c, 0, 73, 34
2, 37440, Note_on_c, 0, 80, 57
2, 37440, Note_on_c, 0, 75, 34
2, 37915, Note_on_c, 0, 75, 0
2, 37915, Note_on_c, 0, 80, 0
2, 37915, Note_on_c, 0, 73, 0
2, 37920, Note_on_c, 0, 73, 34
2, 37920, Note_on_c, 0, 79, 57
2, 37920, Note_on_c, 0, 75, 34
2, 38640, Note_on_c, 0, 79, 0
2, 38640, Note_on_c, 0, 82, 57
2, 38878, Note_on_c, 0, 82, 0
2, 38880, Note_on_c, 0, 75, 0
2, 38880, Note_on_c, 0, 73, 0
2, 38880, Note_on_c, 0, 82, 57
2, 39355, Note_on_c, 0, 82, 0
2, 39360, Note_on_c, 0, 75, 35
2, 39360, Note_on_c, 0, 80, 59
2, 39835, Note_on_c, 0, 80, 0
2, 39835, Note_on_c, 0, 75, 0
2, 39840, Note_on_c, 0, 75, 37
2, 39840, Note_on_c, 0, 82, 62
2, 39840, Note_on_c, 0, 73, 37
2, 40315, Note_on_c, 0, 73, 0
2, 40315, Note_on_c, 0, 82, 0
2, 40315, Note_on_c, 0, 75, 0
2, 40320, Note_on_c, 0, 75, 40
2, 40320, Note_on_c, 0, 72, 40
2, 40320, Note_on_c, 0, 84, 66
2, 41280, Note_on_c, 0, 84, 0
2, 41280, Note_on_c, 0, 72, 0
2, 41280, Note_on_c, 0, 75, 0
2, 41280, Note_on_c, 0, 75, 65
2, 41755, Note_on_c, 0, 75, 0
2, 41760, Note_on_c, 0, 72, 44
2, 41760, Note_on_c, 0, 84, 73
2, 41760, Note_on_c, 0, 75, 44
2, 42235, Note_on_c, 0, 75, 0
2, 42235, Note_on_c, 0, 84, 0
2, 42235, Note_on_c, 0, 72, 0
2, 42240, Note_on_c, 0, 75, 44
2, 42240, Note_on_c, 0, 84, 74
2, 42240, Note_on_c, 0, 72, 44
2, 42960, Note_on_c, 0, 84, 0
2, 42960, Note_on_c, 0, 85, 65
2, 43200, Note_on_c, 0, 85, 0
2, 43200, Note_on_c, 0, 72, 0
2, 43200, Note_on_c, 0, 75, 0
2, 43200, Note_on_c, 0, 84, 58
2, 43200, Note_on_c, 0, 76, 37
2, 43200, Note_on_c, 0, 72, 37
2, 43675, Note_on_c, 0, 72, 0
2, 43675, Note_on_c, 0, 76, 0
2, 43675, Note_on_c, 0, 84, 0
2, 43680, Note_on_c, 0, 82, 52
2, 43680, Note_on_c, 0, 76, 36
2, 43680, Note_on_c, 0, 72, 36
2, 44400, Note_on_c, 0, 82, 0
2, 44400, Note_on_c, 0, 84, 54
2, 44640, Note_on_c, 0, 84, 0
2, 44640, Note_on_c, 0, 72, 0
2, 44640, Note_on_c, 0, 76, 0
2, 44640, Note_on_c, 0, 77, 36
2, 44640, Note_on_c, 0, 82, 49
2, 44640, Note_on_c, 0, 72, 36
2, 45120, Note_on_c, 0, 72, 0
2, 45120, Note_on_c, 0, 82, 0
2, 45120, Note_on_c, 0, 77, 0
2, 45120, Note_on_c, 0, 80, 47
2, 45120, Note_on_c, 0, 72, 34
2, 45120, Note_on_c, 0, 77, 34
2, 45280, Note_on_c, 0, 80, 0
2, 45280, Note_on_c, 0, 82, 52
2, 45360, Note_on_c, 0, 82, 0
2, 45360, Note_on_c, 0, 80, 52
2, 45440, Note_on_c, 0, 80, 0
2, 45440, Note_on_c, 0, 79, 52
2, 45520, Note_on_c, 0, 79, 0
2, 45520, Note_on_c, 0, 80, 52
2, 45600, Note_on_c, 0, 80, 0
2, 45600, Note_on_c, 0, 77, 0
2, 45600, Note_on_c, 0, 72, 0
2, 45600, Note_on_c, 0, 73, 39
2, 45600, Note_on_c, 0, 84, 67
2, 45600, Note_on_c, 0, 79, 39
2, 45960, Note_on_c, 0, 84, 0
2, 45960, Note_on_c, 0, 82, 63
2, 46080, Note_on_c, 0, 82, 0
2, 46080, Note_on_c, 0, 79, 0
2, 46080, Note_on_c, 0, 73, 0
2, 46080, Note_on_c, 0, 72, 36
2, 46080, Note_on_c, 0, 80, 55
2, 47040, Note_on_c, 0, 80, 0
2, 47040, Note_on_c, 0, 72, 0
2, 47280, Note_on_c, 0, 63, 68
2, 47280, Note_on_c, 0, 68, 68
2, 47280, Note_on_c, 0, 75, 80
2, 47518, Note_on_c, 0, 75, 0
2, 47518, Note_on_c, 0, 68, 0
2, 47518, Note_on_c, 0, 63, 0
2, 47520, Note_on_c, 0, 63, 77
2, 47520, Note_on_c, 0, 75, 91
2, 47520, Note_on_c, 0, 68, 77
2, 47995, Note_on_c, 0, 68, 0
2, 47995, Note_on_c, 0, 75, 0
2, 47995, Note_on_c, 0, 63, 0
2, 48000, Note_on_c, 0, 68, 74
2, 48000, Note_on_c, 0, 63, 74
2, 48000, Note_on_c, 0, 75, 88
2, 48713, Note_on_c, 0, 75, 0
2, 48713, Note_on_c, 0, 63, 0
2, 48713, Note_on_c, 0, 68, 0
2, 48720, Note_on_c, 0, 63, 68
2, 48720, Note_on_c, 0, 72, 80
2, 48720, Note_on_c, 0, 60, 68
2, 48958, Note_on_c, 0, 60, 0
2, 48958, Note_on_c, 0, 72, 0
2, 48958, Note_on_c, 0, 63, 0
2, 48960, Note_on_c, 0, 63, 77
2, 48960, Note_on_c, 0, 72, 91
2, 48960, Note_on_c, 0, 60, 77
2, 49435, Note_on_c, 0, 60, 0
2, 49435, Note_on_c, 0, 72, 0
2, 49435, Note_on_c, 0, 63, 0
2, 49440, Note_on_c, 0, 60, 73
2, 49440, Note_on_c, 0, 63, 73
2, 49440, Note_on_c, 0, 72, 86
2, 50153, Note_on_c, 0, 72, 0
2, 50153, Note_on_c, 0, 63, 0
2, 50153, Note_on_c, 0, 60, 0
2, 50160, Note_on_c, 0, 65, 67
2, 50160, Note_on_c, 0, 68, 79
2, 50160, Note_on_c, 0, 60, 67
2, 50400, Note_on_c, 0, 60, 0
2, 50400, Note_on_c, 0, 68, 0
2, 50400, Note_on_c, 0, 65, 0
2, 50400, Note_on_c, 0, 65, 67
2, 50400, Note_on_c, 0, 68, 79
2, 50400, Note_on_c, 0, 60, 67
2, 50760, Note_on_c, 0, 60, 0
2, 50760, Note_on_c, 0, 68, 0
2, 50760, Note_on_c, 0, 65, 0
2, 50880, Note_on_c, 0, 61, 68
2, 50880, Note_on_c, 0, 63, 68
2, 50880, Note_on_c, 0, 70, 80
2, 51240, Note_on_c, 0, 70, 0
2, 51240, Note_on_c, 0, 63, 0
2, 51240, Note_on_c, 0, 61, 0
2, 51360, Note_on_c, 0, 63, 68
2, 51360, Note_on_c, 0, 61, 68
2, 51360, Note_on_c, 0, 67, 68
2, 51360, Note_on_c, 0, 73, 80
2, 51360, Note_on_c, 0, 70, 68
2, 51720, Note_on_c, 0, 70, 0
2, 51720, Note_on_c, 0, 67, 0
2, 51720, Note_on_c, 0, 63, 0
2, 51720, Note_on_c, 0, 61, 0
2, 51720, Note_on_c, 0, 73, 0
2, 51840, Note_on_c, 0, 72, 80
2, 51840, Note_on_c, 0, 60, 68
2, 51840, Note_on_c, 0, 63, 68
2, 51840, Note_on_c, 0, 68, 80
2, 53040, Note_on_c, 0, 68, 0
2, 53040, Note_on_c, 0, 72, 0
2, 53040, Note_on_c, 0, 60, 0
2, 53040, Note_on_c, 0, 63, 0
2, 53040, Note_on_c, 0, 77, 93
2, 53040, Note_on_c, 0, 65, 79
2, 53040, Note_on_c, 0, 68, 79
2, 53278, Note_on_c, 0, 68, 0
2, 53278, Note_on_c, 0, 65, 0
2, 53278, Note_on_c, 0, 77, 0
2, 53280, Note_on_c, 0, 65, 85
2, 53280, Note_on_c, 0, 77, 100
2, 53280, Note_on_c, 0, 68, 85
2, 53755, Note_on_c, 0, 68, 0
2, 53755, Note_on_c, 0, 77, 0
2, 53755, Note_on_c, 0, 65, 0
2, 53760, Note_on_c, 0, 68, 85
2, 53760, Note_on_c, 0, 65, 85
2, 53760, Note_on_c, 0, 77, 100
2, 54473, Note_on_c, 0, 77, 0
2, 54473, Note_on_c, 0, 65, 0
2, 54473, Note_on_c, 0, 68, 0
2, 54480, Note_on_c, 0, 73, 93
2, 54480, Note_on_c, 0, 65, 79
2, 54480, Note_on_c, 0, 68, 79
2, 54718, Note_on_c, 0, 68, 0
2, 54718, Note_on_c, 0, 65, 0
2, 54718, Note_on_c, 0, 73, 0
2, 54720, Note_on_c, 0, 65, 85
2, 54720, Note_on_c, 0, 68, 85
2, 54720, Note_on_c, 0, 73, 100
2, 55195, Note_on_c, 0, 73, 0
2, 55195, Note_on_c, 0, 68, 0
2, 55195, Note_on_c, 0, 65, 0
2, 55200, Note_on_c, 0, 65, 85
2, 55200, Note_on_c, 0, 68, 85
2, 55200, Note_on_c, 0, 73, 100
2, 55913, Note_on_c, 0, 73, 0
2, 55913, Note_on_c, 0, 68, 0
2, 55913, Note_on_c, 0, 65, 0
2, 55920, Note_on_c, 0, 65, 79
2, 55920, Note_on_c, 0, 68, 93
2, 56158, Note_on_c, 0, 68, 0
2, 56158, Note_on_c, 0, 65, 0
2, 56160, Note_on_c, 0, 68, 99
2, 56160, Note_on_c, 0, 65, 84
2, 56520, Note_on_c, 0, 65, 0
2, 56520, Note_on_c, 0, 68, 0
2, 56640, Note_on_c, 0, 66, 84
2, 56640, Note_on_c, 0, 69, 84
2, 56640, Note_on_c, 0, 73, 99
2, 57000, Note_on_c, 0, 73, 0
2, 57000, Note_on_c, 0, 69, 0
2, 57000, Note_on_c, 0, 66, 0
2, 57120, Note_on_c, 0, 66, 84
2, 57120, Note_on_c, 0, 78, 99
2, 57120, Note_on_c, 0, 69, 84
2, 57120, Note_on_c, 0, 73, 84
2, 57480, Note_on_c, 0, 73, 0
2, 57480, Note_on_c, 0, 66, 0
2, 57480, Note_on_c, 0, 78, 0
2, 57480, Note_on_c, 0, 69, 0
2, 57600, Note_on_c, 0, 77, 99
2, 57600, Note_on_c, 0, 65, 84
2, 57600, Note_on_c, 0, 68, 84
2, 57600, Note_on_c, 0, 73, 84
2, 58560, Note_on_c, 0, 65, 0
2, 58800, Note_on_c, 0, 77, 0
2, 58800, Note_on_c, 0, 68, 0
2, 58800, Note_on_c, 0, 73, 0
2, 58800, Note_on_c, 0, 78, 102
2, 58800, Note_on_c, 0, 66, 86
2, 58800, Note_on_c, 0, 73, 86
2, 59038, Note_on_c, 0, 73, 0
2, 59038, Note_on_c, 0, 66, 0
2, 59038, Note_on_c, 0, 78, 0
2, 59040, Note_on_c, 0, 78, 103
2, 59040, Note_on_c, 0, 73, 87
2, 59040, Note_on_c, 0, 66, 87
2, 60480, Note_on_c, 0, 66, 0
2, 60480, Note_on_c, 0, 73, 0
2, 60480, Note_on_c, 0, 78, 0
2, 60480, Note_on_c, 0, 76, 61
2, 60480, Note_on_c, 0, 67, 51
2, 60480, Note_on_c, 0, 73, 51
2, 60960, Note_on_c, 0, 76, 0
2, 60960, Note_on_c, 0, 75, 61
2, 61440, Note_on_c, 0, 75, 0
2, 61440, Note_on_c, 0, 73, 0
2, 61440, Note_on_c, 0, 73, 60
2, 61680, Note_on_c, 0, 73, 0
2, 61680, Note_on_c, 0, 67, 0
2, 61680, Note_on_c, 0, 61, 57
2, 61680, Note_on_c, 0, 68, 68
2, 61800, Note_on_c, 0, 68, 0
2, 61800, Note_on_c, 0, 61, 0
2, 61920, Note_on_c, 0, 68, 68
2, 61920, Note_on_c, 0, 61, 57
2, 63120, Note_on_c, 0, 68, 0
2, 63120, Note_on_c, 0, 70, 35
2, 63180, Note_on_c, 0, 70, 0
2, 63180, Note_on_c, 0, 68, 35
2, 63240, Note_on_c, 0, 68, 0
2, 63240, Note_on_c, 0, 67, 35
2, 63300, Note_on_c, 0, 67, 0
2, 63300, Note_on_c, 0, 68, 35
2, 63360, Note_on_c, 0, 68, 0
2, 63360, Note_on_c, 0, 61, 0
2, 63360, Note_on_c, 0, 68, 52
2, 63480, Note_on_c, 0, 62, 52
2, 63480, Note_on_c, 0, 71, 52
2, 63840, Note_on_c, 0, 71, 0
2, 63840, Note_on_c, 0, 70, 53
2, 64320, Note_on_c, 0, 70, 0
2, 64320, Note_on_c, 0, 68, 53
2, 64800, Note_on_c, 0, 68, 0
2, 64800, Note_on_c, 0, 62, 0
2, 64800, Note_on_c, 0, 68, 0
2, 64800, Note_on_c, 0, 60, 34
2, 64800, Note_on_c, 0, 63, 40
2, 64800, Note_on_c, 0, 56, 34
2, 65275, Note_on_c, 0, 63, 0
2, 65280, Note_on_c, 0, 63, 40
2, 66240, Note_on_c, 0, 63, 0
2, 66240, Note_on_c, 0, 56, 0
2, 66240, Note_on_c, 0, 60, 0
2, 66240, Note_on_c, 0, 55, 34
2, 66240, Note_on_c, 0, 58, 34
2, 66240, Note_on_c, 0, 63, 40
2, 66240, Note_on_c, 0, 61, 34
2, 66715, Note_on_c, 0, 63, 0
2, 66720, Note_on_c, 0, 63, 40
2, 67195, Note_on_c, 0, 63, 0
2, 67200, Note_on_c, 0, 61, 0
2, 67200, Note_on_c, 0, 58, 0
2, 67200, Note_on_c, 0, 55, 0
2, 67200, Note_on_c, 0, 63, 40
2, 67675, Note_on_c, 0, 63, 0
2, 67680, Note_on_c, 0, 68, 46
2, 67680, Note_on_c, 0, 63, 34
2, 67680, Note_on_c, 0, 60, 34
2, 68155, Note_on_c, 0, 60, 0
2, 68155, Note_on_c, 0, 63, 0
2, 68155, Note_on_c, 0, 68, 0
2, 68160, Note_on_c, 0, 68, 46
2, 68160, Note_on_c, 0, 63, 34
2, 68160, Note_on_c, 0, 60, 34
2, 68880, Note_on_c, 0, 68, 0
2, 68880, Note_on_c, 0, 70, 39
2, 69120, Note_on_c, 0, 70, 0
2, 69120, Note_on_c, 0, 60, 0
2, 69120, Note_on_c, 0, 63, 0
2, 69120, Note_on_c, 0, 63, 34
2, 69120, Note_on_c, 0, 61, 34
2, 69120, Note_on_c, 0, 68, 46
2, 69595, Note_on_c, 0, 68, 0
2, 69595, Note_on_c, 0, 61, 0
2, 69595, Note_on_c, 0, 63, 0
2, 69600, Note_on_c, 0, 61, 34
2, 69600, Note_on_c, 0, 63, 34
2, 69600, Note_on_c, 0, 67, 46
2, 70320, Note_on_c, 0, 67, 0
2, 70320, Note_on_c, 0, 70, 37
2, 70558, Note_on_c, 0, 70, 0
2, 70560, Note_on_c, 0, 63, 0
2, 70560, Note_on_c, 0, 61, 0
2, 70560, Note_on_c, 0, 70, 46
2, 71035, Note_on_c, 0, 70, 0
2, 71040, Note_on_c, 0, 63, 38
2, 71040, Note_on_c, 0, 68, 51
2, 71515, Note_on_c, 0, 68, 0
2, 71515, Note_on_c, 0, 63, 0
2, 71520, Note_on_c, 0, 63, 39
2, 71520, Note_on_c, 0, 70, 52
2, 71520, Note_on_c, 0, 61, 39
2, 71995, Note_on_c, 0, 61, 0
2, 71995, Note_on_c, 0, 70, 0
2, 71995, Note_on_c, 0, 63, 0
2, 72000, Note_on_c, 0, 63, 40
2, 72000, Note_on_c, 0, 72, 55
2, 72000, Note_on_c, 0, 60, 40
2, 72960, Note_on_c, 0, 60, 0
2, 72960, Note_on_c, 0, 72, 0
2, 72960, Note_on_c, 0, 63, 0
2, 72960, Note_on_c, 0, 63, 52
2, 73435, Note_on_c, 0, 63, 0
2, 73440, Note_on_c, 0, 63, 53
2, 73440, Note_on_c, 0, 60, 53
2, 73440, Note_on_c, 0, 72, 72
2, 73915, Note_on_c, 0, 72, 0
2, 73915, Note_on_c, 0, 60, 0
2, 73915, Note_on_c, 0, 63, 0
2, 73920, Note_on_c, 0, 72, 72
2, 73920, Note_on_c, 0, 63, 53
2, 73920, Note_on_c, 0, 60, 53
2, 74640, Note_on_c, 0, 60, 0
2, 74640, Note_on_c, 0, 63, 0
2, 74640, Note_on_c, 0, 72, 0
2, 74640, Note_on_c, 0, 61, 51
2, 74640, Note_on_c, 0, 58, 51
2, 74640, Note_on_c, 0, 70, 70
2, 74878, Note_on_c, 0, 70, 0
2, 74878, Note_on_c, 0, 58, 0
2, 74878, Note_on_c, 0, 61, 0
2, 74880, Note_on_c, 0, 70, 75
2, 74880, Note_on_c, 0, 58, 56
2, 74880, Note_on_c, 0, 61, 56
2, 75355, Note_on_c, 0, 61, 0
2, 75355, Note_on_c, 0, 58, 0
2, 75355, Note_on_c, 0, 70, 0
2, 75360, Note_on_c, 0, 60, 53
2, 75360, Note_on_c, 0, 69, 71
2, 75360, Note_on_c, 0, 57, 53
2, 76080, Note_on_c, 0, 57, 0
2, 76080, Note_on_c, 0, 69, 0
2, 76080, Note_on_c, 0, 60, 0
2, 76080, Note_on_c, 0, 61, 50
2, 76080, Note_on_c, 0, 58, 50
2, 76080, Note_on_c, 0, 70, 67
2, 76318, Note_on_c, 0, 70, 0
2, 76318, Note_on_c, 0, 58, 0
2, 76318, Note_on_c, 0, 61, 0
2, 76320, Note_on_c, 0, 61, 52
2, 76320, Note_on_c, 0, 70, 71
2, 76320, Note_on_c, 0, 58, 52
2, 76800, Note_on_c, 0, 58, 0
2, 76800, Note_on_c, 0, 70, 0
2, 76800, Note_on_c, 0, 61, 0
2, 76800, Note_on_c, 0, 68, 59
2, 76800, Note_on_c, 0, 60, 43
2, 76800, Note_on_c, 0, 56, 43
2, 77280, Note_on_c, 0, 56, 0
2, 77280, Note_on_c, 0, 60, 0
2, 77280, Note_on_c, 0, 68, 0
2, 77280, Note_on_c, 0, 67, 60
2, 77280, Note_on_c, 0, 55, 44
2, 77280, Note_on_c, 0, 58, 44
2, 77712, Note_on_c, 0, 58, 0
2, 77712, Note_on_c, 0, 55, 0
2, 77712, Note_on_c, 0, 67, 0
2, 77760, Note_on_c, 0, 60, 43
2, 77760, Note_on_c, 0, 68, 59
2, 77760, Note_on_c, 0, 56, 43
2, 78720, Note_on_c, 0, 56, 0
2, 78720, Note_on_c, 0, 68, 0
2, 78720, Note_on_c, 0, 60, 0
2, 78720, Note_on_c, 0, 75, 56
2, 79195, Note_on_c, 0, 75, 0
2, 79200, Note_on_c, 0, 80, 54
2, 79200, Note_on_c, 0, 72, 34
2, 79200, Note_on_c, 0, 75, 34
2, 79675, Note_on_c, 0, 75, 0
2, 79675, Note_on_c, 0, 72, 0
2, 79675, Note_on_c, 0, 80, 0
2, 79680, Note_on_c, 0, 80, 57
2, 79680, Note_on_c, 0, 75, 34
2, 79680, Note_on_c, 0, 72, 34
2, 80400, Note_on_c, 0, 80, 0
2, 80400, Note_on_c, 0, 82, 52
2, 80638, Note_on_c, 0, 82, 0
2, 80640, Note_on_c, 0, 72, 0
2, 80640, Note_on_c, 0, 75, 0
2, 80640, Note_on_c, 0, 80, 57
2, 80640, Note_on_c, 0, 73, 34
2, 80640, Note_on_c, 0, 75, 34
2, 81115, Note_on_c, 0, 75, 0
2, 81115, Note_on_c, 0, 73, 0
2, 81115, Note_on_c, 0, 80, 0
2, 81120, Note_on_c, 0, 75, 34
2, 81120, Note_on_c, 0, 73, 34
2, 81120, Note_on_c, 0, 79, 57
2, 81840, Note_on_c, 0, 79, 0
2, 81840, Note_on_c, 0, 82, 57
2, 82078, Note_on_c, 0, 82, 0
2, 82080, Note_on_c, 0, 73, 0
2, 82080, Note_on_c, 0, 75, 0
2, 82080, Note_on_c, 0, 82, 57
2, 82555, Note_on_c, 0, 82, 0
2, 82560, Note_on_c, 0, 80, 59
2, 82560, Note_on_c, 0, 75, 35
2, 83035, Note_on_c, 0, 75, 0
2, 83035, Note_on_c, 0, 80, 0
2, 83040, Note_on_c, 0, 82, 62
2, 83040, Note_on_c, 0, 75, 37
2, 83040, Note_on_c, 0, 73, 37
2, 83515, Note_on_c, 0, 73, 0
2, 83515, Note_on_c, 0, 75, 0
2, 83515, Note_on_c, 0, 82, 0
2, 83520, Note_on_c, 0, 75, 40
2, 83520, Note_on_c, 0, 72, 40
2, 83520, Note_on_c, 0, 84, 66
2, 84480, Note_on_c, 0, 84, 0
2, 84480, Note_on_c, 0, 72, 0
2, 84480, Note_on_c, 0, 75, 0
2, 84480, Note_on_c, 0, 75, 72
2, 84955, Note_on_c, 0, 75, 0
2, 84960, Note_on_c, 0, 75, 53
2, 84960, Note_on_c, 0, 84, 72
2, 84960, Note_on_c, 0, 72, 53
2, 85435, Note_on_c, 0, 72, 0
2, 85435, Note_on_c, 0, 84, 0
2, 85435, Note_on_c, 0, 75, 0
2, 85440, Note_on_c, 0, 72, 53
2, 85440, Note_on_c, 0, 75, 53
2, 85440, Note_on_c, 0, 84, 72
2, 86160, Note_on_c, 0, 84, 0
2, 86160, Note_on_c, 0, 75, 0
2, 86160, Note_on_c, 0, 72, 0
2, 86160, Note_on_c, 0, 82, 70
2, 86160, Note_on_c, 0, 73, 51
2, 86160, Note_on_c, 0, 70, 51
2, 86398, Note_on_c, 0, 70, 0
2, 86398, Note_on_c, 0, 73, 0
2, 86398, Note_on_c, 0, 82, 0
2, 86400, Note_on_c, 0, 70, 56
2, 86400, Note_on_c, 0, 82, 75
2, 86400, Note_on_c, 0, 73, 56
2, 86875, Note_on_c, 0, 73, 0
2, 86875, Note_on_c, 0, 82, 0
2, 86875, Note_on_c, 0, 70, 0
2, 86880, Note_on_c, 0, 81, 71
2, 86880, Note_on_c, 0, 69, 53
2, 86880, Note_on_c, 0, 72, 53
2, 87593, Note_on_c, 0, 72, 0
2, 87593, Note_on_c, 0, 69, 0
2, 87593, Note_on_c, 0, 81, 0
2, 87600, Note_on_c, 0, 82, 67
2, 87600, Note_on_c, 0, 70, 50
2, 87600, Note_on_c, 0, 73, 50
2, 87838, Note_on_c, 0, 73, 0
2, 87838, Note_on_c, 0, 70, 0
2, 87838, Note_on_c, 0, 82, 0
2, 87840, Note_on_c, 0, 70, 52
2, 87840, Note_on_c, 0, 73, 52
2, 87840, Note_on_c, 0, 82, 71
2, 88315, Note_on_c, 0, 82, 0
2, 88315, Note_on_c, 0, 73, 0
2, 88315, Note_on_c, 0, 70, 0
2, 88320, Note_on_c, 0, 80, 59
2, 88320, Note_on_c, 0, 72, 43
2, 88320, Note_on_c, 0, 68, 43
2, 88795, Note_on_c, 0, 68, 0
2, 88795, Note_on_c, 0, 72, 0
2, 88795, Note_on_c, 0, 80, 0
2, 88800, Note_on_c, 0, 79, 60
2, 88800, Note_on_c, 0, 70, 44
2, 88800, Note_on_c, 0, 67, 44
2, 89232, Note_on_c, 0, 67, 0
2, 89232, Note_on_c, 0, 70, 0
2, 89232, Note_on_c, 0, 79, 0
2, 89280, Note_on_c, 0, 68, 43
2, 89280, Note_on_c, 0, 80, 59
2, 89280, Note_on_c, 0, 72, 43
2, 90240, Note_on_c, 0, 72, 0
2, 90240, Note_on_c, 0, 80, 0
2, 90240, Note_on_c, 0, 68, 0
2, 90480, Note_on_c, 0, 75, 80
2, 90480, Note_on_c, 0, 63, 68
2, 90480, Note_on_c, 0, 68, 68
2, 90718, Note_on_c, 0, 68, 0
2, 90718, Note_on_c, 0, 63, 0
2, 90718, Note_on_c, 0, 75, 0
2, 90720, Note_on_c, 0, 63, 77
2, 90720, Note_on_c, 0, 68, 77
2, 90720, Note_on_c, 0, 75, 91
2, 91195, Note_on_c, 0, 75, 0
2, 91195, Note_on_c, 0, 68, 0
2, 91195, Note_on_c, 0, 63, 0
2, 91200, Note_on_c, 0, 63, 74
2, 91200, Note_on_c, 0, 75, 88
2, 91200, Note_on_c, 0, 68, 74
2, 91913, Note_on_c, 0, 68, 0
2, 91913, Note_on_c, 0, 75, 0
2, 91913, Note_on_c, 0, 63, 0
2, 91920, Note_on_c, 0, 60, 68
2, 91920, Note_on_c, 0, 63, 68
2, 91920, Note_on_c, 0, 72, 80
2, 92158, Note_on_c, 0, 72, 0
2, 92158, Note_on_c, 0, 63, 0
2, 92158, Note_on_c, 0, 60, 0
2, 92160, Note_on_c, 0, 60, 77
2, 92160, Note_on_c, 0, 72, 91
2, 92160, Note_on_c, 0, 63, 77
2, 92635, Note_on_c, 0, 63, 0
2, 92635, Note_on_c, 0, 72, 0
2, 92635, Note_on_c, 0, 60, 0
2, 92640, Note_on_c, 0, 72, 86
2, 92640, Note_on_c, 0, 63, 73
2, 92640, Note_on_c, 0, 60, 73
2, 93353, Note_on_c, 0, 60, 0
2, 93353, Note_on_c, 0, 63, 0
2, 93353, Note_on_c, 0, 72, 0
2, 93360, Note_on_c, 0, 68, 79
2, 93360, Note_on_c, 0, 65, 67
2, 93360, Note_on_c, 0, 60, 67
2, 93598, Note_on_c, 0, 60, 0
2, 93598, Note_on_c, 0, 65, 0
2, 93598, Note_on_c, 0, 68, 0
2, 93600, Note_on_c, 0, 60, 67
2, 93600, Note_on_c, 0, 65, 67
2, 93600, Note_on_c, 0, 68, 79
2, 93960, Note_on_c, 0, 68, 0
2, 93960, Note_on_c, 0, 65, 0
2, 93960, Note_on_c, 0, 60, 0
2, 94080, Note_on_c, 0, 63, 68
2, 94080, Note_on_c, 0, 61, 68
2, 94080, Note_on_c, 0, 70, 80
2, 94440, Note_on_c, 0, 70, 0
2, 94440, Note_on_c, 0, 61, 0
2, 94440, Note_on_c, 0, 63, 0
2, 94560, Note_on_c, 0, 61, 68
2, 94560, Note_on_c, 0, 70, 68
2, 94560, Note_on_c, 0, 73, 80
2, 94560, Note_on_c, 0, 63, 68
2, 94560, Note_on_c, 0, 67, 68
2, 94920, Note_on_c, 0, 67, 0
2, 94920, Note_on_c, 0, 73, 0
2, 94920, Note_on_c, 0, 61, 0
2, 94920, Note_on_c, 0, 70, 0
2, 94920, Note_on_c, 0, 63, 0
2, 95040, Note_on_c, 0, 72, 80
2, 95040, Note_on_c, 0, 60, 68
2, 95040, Note_on_c, 0, 63, 68
2, 95040, Note_on_c, 0, 68, 80
2, 96240, Note_on_c, 0, 68, 0
2, 96240, Note_on_c, 0, 72, 0
2, 96240, Note_on_c, 0, 60, 0
2, 96240, Note_on_c, 0, 63, 0
2, 96240, Note_on_c, 0, 68, 79
2, 96240, Note_on_c, 0, 65, 79
2, 96240, Note_on_c, 0, 77, 93
2, 96478, Note_on_c, 0, 77, 0
2, 96478, Note_on_c, 0, 65, 0
2, 96478, Note_on_c, 0, 68, 0
2, 96480, Note_on_c, 0, 68, 85
2, 96480, Note_on_c, 0, 65, 85
2, 96480, Note_on_c, 0, 77, 100
2, 96955, Note_on_c, 0, 77, 0
2, 96955, Note_on_c, 0, 65, 0
2, 96955, Note_on_c, 0, 68, 0
2, 96960, Note_on_c, 0, 65, 85
2, 96960, Note_on_c, 0, 77, 100
2, 96960, Note_on_c, 0, 68, 85
2, 97673, Note_on_c, 0, 68, 0
2, 97673, Note_on_c, 0, 77, 0
2, 97673, Note_on_c, 0, 65, 0
2, 97680, Note_on_c, 0, 65, 79
2, 97680, Note_on_c, 0, 73, 93
2, 97680, Note_on_c, 0, 68, 79
2, 97918, Note_on_c, 0, 68, 0
2, 97918, Note_on_c, 0, 73, 0
2, 97918, Note_on_c, 0, 65, 0
2, 97920, Note_on_c, 0, 65, 85
2, 97920, Note_on_c, 0, 68, 85
2, 97920, Note_on_c, 0, 73, 100
2, 98395, Note_on_c, 0, 73, 0
2, 98395, Note_on_c, 0, 68, 0
2, 98395, Note_on_c, 0, 65, 0
2, 98400, Note_on_c, 0, 73, 100
2, 98400, Note_on_c, 0, 68, 85
2, 98400, Note_on_c, 0, 65, 85
2, 99113, Note_on_c, 0, 65, 0
2, 99113, Note_on_c, 0, 68, 0
2, 99113, Note_on_c, 0, 73, 0
2, 99120, Note_on_c, 0, 65, 79
2, 99120, Note_on_c, 0, 68, 93
2, 99358, Note_on_c, 0, 68, 0
2, 99358, Note_on_c, 0, 65, 0
2, 99360, Note_on_c, 0, 68, 99
2, 99360, Note_on_c, 0, 65, 84
2, 99720, Note_on_c, 0, 65, 0
2, 99720, Note_on_c, 0, 68, 0
2, 99840, Note_on_c, 0, 73, 99
2, 99840, Note_on_c, 0, 69, 84
2, 99840, Note_on_c, 0, 66, 84
2, 100200, Note_on_c, 0, 66, 0
2, 100200, Note_on_c, 0, 69, 0
2, 100200, Note_on_c, 0, 73, 0
2, 100320, Note_on_c, 0, 78, 99
2, 100320, Note_on_c, 0, 66, 84
2, 100320, Note_on_c, 0, 69, 84
2, 100320, Note_on_c, 0, 73, 99
2, 100680, Note_on_c, 0, 73, 0
2, 100680, Note_on_c, 0, 78, 0
2, 100680, Note_on_c, 0, 66, 0
2, 100680, Note_on_c, 0, 69, 0
2, 100800, Note_on_c, 0, 65, 84
2, 100800, Note_on_c, 0, 68, 84
2, 100800, Note_on_c, 0, 73, 84
2, 100800, Note_on_c, 0, 77, 99
2, 102000, Note_on_c, 0, 77, 0
2, 102000, Note_on_c, 0, 65, 0
2, 102000, Note_on_c, 0, 68, 0
2, 102000, Note_on_c, 0, 73, 0
2, 102000, Note_on_c, 0, 73, 86
2, 102000, Note_on_c, 0, 78, 102
2, 102000, Note_on_c, 0, 66, 86
2, 102238, Note_on_c, 0, 66, 0
2, 102238, Note_on_c, 0, 78, 0
2, 102238, Note_on_c, 0, 73, 0
2, 102240, Note_on_c, 0, 78, 103
2, 102240, Note_on_c, 0, 66, 87
2, 102240, Note_on_c, 0, 73, 87
2, 103680, Note_on_c, 0, 73, 0
2, 103680, Note_on_c, 0, 66, 0
2, 103680, Note_on_c, 0, 78, 0
2, 103680, Note_on_c, 0, 76, 61
2, 103680, Note_on_c, 0, 73, 51
2, 103680, Note_on_c, 0, 67, 51
2, 104160, Note_on_c, 0, 76, 0
2, 104160, Note_on_c, 0, 75, 61
2, 104640, Note_on_c, 0, 75, 0
2, 104640, Note_on_c, 0, 73, 0
2, 104640, Note_on_c, 0, 73, 60
2, 104880, Note_on_c, 0, 73, 0
2, 104880, Note_on_c, 0, 67, 0
2, 104880, Note_on_c, 0, 61, 57
2, 104880, Note_on_c, 0, 68, 68
2, 105000, Note_on_c, 0, 68, 0
2, 105000, Note_on_c, 0, 61, 0
2, 105120, Note_on_c, 0, 61, 57
2, 105120, Note_on_c, 0, 68, 68
2, 106320, Note_on_c, 0, 68, 0
2, 106320, Note_on_c, 0, 70, 35
2, 106380, Note_on_c, 0, 70, 0
2, 106380, Note_on_c, 0, 68, 35
2, 106440, Note_on_c, 0, 68, 0
2, 106440, Note_on_c, 0, 67, 35
2, 106500, Note_on_c, 0, 67, 0
2, 106500, Note_on_c, 0, 68, 35
2, 106560, Note_on_c, 0, 68, 0
2, 106560, Note_on_c, 0, 61, 0
2, 106560, Note_on_c, 0, 68, 52
2, 106680, Note_on_c, 0, 71, 52
2, 106680, Note_on_c, 0, 62, 52
2, 107040, Note_on_c, 0, 71, 0
2, 107040, Note_on_c, 0, 70, 53
2, 107520, Note_on_c, 0, 70, 0
2, 107520, Note_on_c, 0, 68, 53
2, 108000, Note_on_c, 0, 68, 0
2, 108000, Note_on_c, 0, 62, 0
2, 108000, Note_on_c, 0, 68, 0
2, 108000, Note_on_c, 0, 56, 34
2, 108000, Note_on_c, 0, 63, 40
2, 108000, Note_on_c, 0, 60, 34
2, 108475, Note_on_c, 0, 63, 0
2, 108480, Note_on_c, 0, 63, 40
2, 109440, Note_on_c, 0, 63, 0
2, 109440, Note_on_c, 0, 60, 0
2, 109440, Note_on_c, 0, 56, 0
2, 109440, Note_on_c, 0, 61, 40
2, 109440, Note_on_c, 0, 58, 34
2, 109440, Note_on_c, 0, 55, 34
2, 109440, Note_on_c, 0, 63, 40
2, 109915, Note_on_c, 0, 63, 0
2, 109920, Note_on_c, 0, 63, 40
2, 110395, Note_on_c, 0, 63, 0
2, 110400, Note_on_c, 0, 55, 0
2, 110400, Note_on_c, 0, 58, 0
2, 110400, Note_on_c, 0, 61, 0
2, 110400, Note_on_c, 0, 63, 40
2, 110875, Note_on_c, 0, 63, 0
2, 110880, Note_on_c, 0, 60, 34
2, 110880, Note_on_c, 0, 68, 46
2, 110880, Note_on_c, 0, 63, 34
2, 111355, Note_on_c, 0, 63, 0
2, 111355, Note_on_c, 0, 68, 0
2, 111355, Note_on_c, 0, 60, 0
2, 111360, Note_on_c, 0, 60, 34
2, 111360, Note_on_c, 0, 63, 34
2, 111360, Note_on_c, 0, 68, 46
2, 112080, Note_on_c, 0, 68, 0
2, 112080, Note_on_c, 0, 70, 39
2, 112320, Note_on_c, 0, 70, 0
2, 112320, Note_on_c, 0, 63, 0
2, 112320, Note_on_c, 0, 60, 0
2, 112320, Note_on_c, 0, 63, 34
2, 112320, Note_on_c, 0, 61, 34
2, 112320, Note_on_c, 0, 68, 46
2, 112795, Note_on_c, 0, 68, 0
2, 112795, Note_on_c, 0, 61, 0
2, 112795, Note_on_c, 0, 63, 0
2, 112800, Note_on_c, 0, 67, 46
2, 112800, Note_on_c, 0, 61, 34
2, 112800, Note_on_c, 0, 63, 34
2, 113520, Note_on_c, 0, 67, 0
2, 113520, Note_on_c, 0, 70, 37
2, 113760, Note_on_c, 0, 70, 0
2, 113760, Note_on_c, 0, 63, 0
2, 113760, Note_on_c, 0, 61, 0
2, 113760, Note_on_c, 0, 70, 46
2, 114235, Note_on_c, 0, 70, 0
2, 114240, Note_on_c, 0, 63, 38
2, 114240, Note_on_c, 0, 68, 51
2, 114715, Note_on_c, 0, 68, 0
2, 114715, Note_on_c, 0, 63, 0
2, 114720, Note_on_c, 0, 61, 39
2, 114720, Note_on_c, 0, 70, 52
2, 114720, Note_on_c, 0, 63, 39
2, 115195, Note_on_c, 0, 63, 0
2, 115195, Note_on_c, 0, 70, 0
2, 115195, Note_on_c, 0, 61, 0
2, 115200, Note_on_c, 0, 63, 40
2, 115200, Note_on_c, 0, 60, 40
2, 115200, Note_on_c, 0, 72, 55
2, 116160, Note_on_c, 0, 72, 0
2, 116160, Note_on_c, 0, 60, 0
2, 116160, Note_on_c, 0, 63, 0
2, 116160, Note_on_c, 0, 63, 52
2, 116635, Note_on_c, 0, 63, 0
2, 116640, Note_on_c, 0, 72, 72
2, 116640, Note_on_c, 0, 63, 53
2, 116640, Note_on_c, 0, 60, 53
2, 117115, Note_on_c, 0, 60, 0
2, 117115, Note_on_c, 0, 63, 0
2, 117115, Note_on_c, 0, 72, 0
2, 117120, Note_on_c, 0, 60, 53
2, 117120, Note_on_c, 0, 63, 53
2, 117120, Note_on_c, 0, 72, 72
2, 117840, Note_on_c, 0, 72, 0
2, 117840, Note_on_c, 0, 63, 0
2, 117840, Note_on_c, 0, 60, 0
2, 117840, Note_on_c, 0, 70, 70
2, 117840, Note_on_c, 0, 61, 51
2, 117840, Note_on_c, 0, 58, 51
2, 118078, Note_on_c, 0, 58, 0
2, 118078, Note_on_c, 0, 61, 0
2, 118078, Note_on_c, 0, 70, 0
2, 118080, Note_on_c, 0, 58, 56
2, 118080, Note_on_c, 0, 61, 56
2, 118080, Note_on_c, 0, 70, 75
2, 118555, Note_on_c, 0, 70, 0
2, 118555, Note_on_c, 0, 61, 0
2, 118555, Note_on_c, 0, 58, 0
2, 118560, Note_on_c, 0, 69, 71
2, 118560, Note_on_c, 0, 60, 53
2, 118560, Note_on_c, 0, 57, 53
2, 119280, Note_on_c, 0, 57, 0
2, 119280, Note_on_c, 0, 60, 0
2, 119280, Note_on_c, 0, 69, 0
2, 119280, Note_on_c, 0, 61, 50
2, 119280, Note_on_c, 0, 70, 67
2, 119280, Note_on_c, 0, 58, 50
2, 119518, Note_on_c, 0, 58, 0
2, 119518, Note_on_c, 0, 70, 0
2, 119518, Note_on_c, 0, 61, 0
2, 119520, Note_on_c, 0, 61, 52
2, 119520, Note_on_c, 0, 58, 52
2, 119520, Note_on_c, 0, 70, 71
2, 119995, Note_on_c, 0, 70, 0
2, 119995, Note_on_c, 0, 58, 0
2, 119995, Note_on_c, 0, 61, 0
2, 120000, Note_on_c, 0, 60, 43
2, 120000, Note_on_c, 0, 68, 59
2, 120000, Note_on_c, 0, 56, 43
2, 120475, Note_on_c, 0, 56, 0
2, 120475, Note_on_c, 0, 68, 0
2, 120475, Note_on_c, 0, 60, 0
2, 120480, Note_on_c, 0, 58, 44
2, 120480, Note_on_c, 0, 55, 44
2, 120480, Note_on_c, 0, 67, 60
2, 120912, Note_on_c, 0, 67, 0
2, 120912, Note_on_c, 0, 55, 0
2, 120912, Note_on_c, 0, 58, 0
2, 120960, Note_on_c, 0, 56, 43
2, 120960, Note_on_c, 0, 68, 59
2, 120960, Note_on_c, 0, 60, 43
2, 121920, Note_on_c, 0, 60, 0
2, 121920, Note_on_c, 0, 68, 0
2, 121920, Note_on_c, 0, 56, 0
2, 121920, Note_on_c, 0, 75, 56
2, 122395, Note_on_c, 0, 75, 0
2, 122400, Note_on_c, 0, 75, 34
2, 122400, Note_on_c, 0, 80, 54
2, 122400, Note_on_c, 0, 72, 34
2, 122875, Note_on_c, 0, 72, 0
2, 122875, Note_on_c, 0, 80, 0
2, 122875, Note_on_c, 0, 75, 0
2, 122880, Note_on_c, 0, 72, 34
2, 122880, Note_on_c, 0, 75, 34
2, 122880, Note_on_c, 0, 80, 57
2, 123600, Note_on_c, 0, 80, 0
2, 123600, Note_on_c, 0, 82, 52
2, 123840, Note_on_c, 0, 82, 0
2, 123840, Note_on_c, 0, 75, 0
2, 123840, Note_on_c, 0, 72, 0
2, 123840, Note_on_c, 0, 75, 34
2, 123840, Note_on_c, 0, 73, 34
2, 123840, Note_on_c, 0, 80, 57
2, 124315, Note_on_c, 0, 80, 0
2, 124315, Note_on_c, 0, 73, 0
2, 124315, Note_on_c, 0, 75, 0
2, 124320, Note_on_c, 0, 73, 34
2, 124320, Note_on_c, 0, 79, 57
2, 124320, Note_on_c, 0, 75, 34
2, 125040, Note_on_c, 0, 79, 0
2, 125040, Note_on_c, 0, 82, 57
2, 125278, Note_on_c, 0, 82, 0
2, 125280, Note_on_c, 0, 75, 0
2, 125280, Note_on_c, 0, 73, 0
2, 125280, Note_on_c, 0, 82, 57
2, 125755, Note_on_c, 0, 82, 0
2, 125760, Note_on_c, 0, 75, 35
2, 125760, Note_on_c, 0, 80, 59
2, 126235, Note_on_c, 0, 80, 0
2, 126235, Note_on_c, 0, 75, 0
2, 126240, Note_on_c, 0, 75, 37
2, 126240, Note_on_c, 0, 73, 37
2, 126240, Note_on_c, 0, 82, 62
2, 126715, Note_on_c, 0, 82, 0
2, 126715, Note_on_c, 0, 73, 0
2, 126715, Note_on_c, 0, 75, 0
2, 126720, Note_on_c, 0, 84, 66
2, 126720, Note_on_c, 0, 75, 40
2, 126720, Note_on_c, 0, 72, 40
2, 127680, Note_on_c, 0, 72, 0
2, 127680, Note_on_c, 0, 75, 0
2, 127680, Note_on_c, 0, 84, 0
2, 127680, Note_on_c, 0, 75, 72
2, 128155, Note_on_c, 0, 75, 0
2, 128160, Note_on_c, 0, 72, 53
2, 128160, Note_on_c, 0, 75, 53
2, 128160, Note_on_c, 0, 84, 72
2, 128635, Note_on_c, 0, 84, 0
2, 128635, Note_on_c, 0, 75, 0
2, 128635, Note_on_c, 0, 72, 0
2, 128640, Note_on_c, 0, 84, 72
2, 128640, Note_on_c, 0, 75, 53
2, 128640, Note_on_c, 0, 72, 53
2, 129360, Note_on_c, 0, 72, 0
2, 129360, Note_on_c, 0, 75, 0
2, 129360, Note_on_c, 0, 84, 0
2, 129360, Note_on_c, 0, 70, 51
2, 129360, Note_on_c, 0, 73, 51
2, 129360, Note_on_c, 0, 82, 70
2, 129598, Note_on_c, 0, 82, 0
2, 129598, Note_on_c, 0, 73, 0
2, 129598, Note_on_c, 0, 70, 0
2, 129600, Note_on_c, 0, 82, 75
2, 129600, Note_on_c, 0, 73, 56
2, 129600, Note_on_c, 0, 70, 56
2, 130075, Note_on_c, 0, 70, 0
2, 130075, Note_on_c, 0, 73, 0
2, 130075, Note_on_c, 0, 82, 0
2, 130080, Note_on_c, 0, 72, 53
2, 130080, Note_on_c, 0, 81, 71
2, 130080, Note_on_c, 0, 69, 53
2, 130800, Note_on_c, 0, 69, 0
2, 130800, Note_on_c, 0, 81, 0
2, 130800, Note_on_c, 0, 72, 0
2, 130800, Note_on_c, 0, 73, 50
2, 130800, Note_on_c, 0, 70, 50
2, 130800, Note_on_c, 0, 82, 68
2, 131038, Note_on_c, 0, 82, 0
2, 131038, Note_on_c, 0, 70, 0
2, 131038, Note_on_c, 0, 73, 0
2, 131040, Note_on_c, 0, 82, 71
2, 131040, Note_on_c, 0, 70, 53
2, 131040, Note_on_c, 0, 73, 53
2, 131520, Note_on_c, 0, 73, 0
2, 131520, Note_on_c, 0, 70, 0
2, 131520, Note_on_c, 0, 82, 0
2, 131520, Note_on_c, 0, 80, 59
2, 131520, Note_on_c, 0, 68, 43
2, 131520, Note_on_c, 0, 72, 43
2, 132000, Note_on_c, 0, 72, 0
2, 132000, Note_on_c, 0, 68, 0
2, 132000, Note_on_c, 0, 80, 0
2, 132000, Note_on_c, 0, 70, 45
2, 132000, Note_on_c, 0, 79, 60
2, 132000, Note_on_c, 0, 67, 45
2, 132432, Note_on_c, 0, 67, 0
2, 132432, Note_on_c, 0, 79, 0
2, 132432, Note_on_c, 0, 70, 0
2, 132480, Note_on_c, 0, 72, 44
2, 132480, Note_on_c, 0, 80, 60
2, 132480, Note_on_c, 0, 68, 44
2, 133440, Note_on_c, 0, 68, 0
2, 133440, Note_on_c, 0, 80, 0
2, 133440, Note_on_c, 0, 72, 0
2, 133440, Note_on_c, 0, 56, 52
2, 133920, Note_on_c, 0, 56, 0
2, 133920, Control_c, 0, 91, 127
2, 133920, Note_on_c, 0, 53, 52
2, 134080, Note_on_c, 0, 53, 0
2, 134080, Note_on_c, 0, 56, 52
2, 134240, Note_on_c, 0, 56, 0
2, 134240, Note_on_c, 0, 61, 47
2, 134400, Note_on_c, 0, 61, 0
2, 134400, Note_on_c, 0, 65, 59
2, 134560, Note_on_c, 0, 65, 0
2, 134560, Note_on_c, 0, 61, 52
2, 134720, Note_on_c, 0, 61, 0
2, 134720, Note_on_c, 0, 56, 48
2, 134880, Note_on_c, 0, 56, 0
2, 134880, Note_on_c, 0, 53, 52
2, 135040, Note_on_c, 0, 53, 0
2, 135040, Note_on_c, 0, 56, 50
2, 135200, Note_on_c, 0, 56, 0
2, 135200, Note_on_c, 0, 61, 50
2, 135360, Note_on_c, 0, 61, 0
2, 135360, Note_on_c, 0, 56, 52
2, 135520, Note_on_c, 0, 56, 0
2, 135520, Note_on_c, 0, 61, 50
2, 135680, Note_on_c, 0, 61, 0
2, 135680, Note_on_c, 0, 65, 50
2, 135840, Note_on_c, 0, 65, 0
2, 135840, Note_on_c, 0, 68, 61
2, 136000, Note_on_c, 0, 68, 0
2, 136000, Note_on_c, 0, 65, 52
2, 136160, Note_on_c, 0, 65, 0
2, 136160, Note_on_c, 0, 61, 49
2, 136320, Note_on_c, 0, 61, 0
2, 136320, Note_on_c, 0, 56, 52
2, 136480, Note_on_c, 0, 56, 0
2, 136480, Note_on_c, 0, 61, 50
2, 136640, Note_on_c, 0, 61, 0
2, 136640, Note_on_c, 0, 65, 50
2, 136800, Note_on_c, 0, 65, 0
2, 136800, Note_on_c, 0, 62, 52
2, 136960, Note_on_c, 0, 62, 0
2, 136960, Note_on_c, 0, 65, 49
2, 137120, Note_on_c, 0, 65, 0
2, 137120, Note_on_c, 0, 68, 49
2, 137280, Note_on_c, 0, 68, 0
2, 137280, Note_on_c, 0, 63, 52
2, 137440, Note_on_c, 0, 63, 0
2, 137440, Note_on_c, 0, 66, 52
2, 137600, Note_on_c, 0, 66, 0
2, 137600, Note_on_c, 0, 68, 52
2, 137760, Note_on_c, 0, 68, 0
2, 137760, Note_on_c, 0, 63, 54
2, 137920, Note_on_c, 0, 63, 0
2, 137920, Note_on_c, 0, 66, 57
2, 138080, Note_on_c, 0, 66, 0
2, 138080, Note_on_c, 0, 69, 57
2, 138240, Note_on_c, 0, 69, 0
2, 138240, Note_on_c, 0, 60, 63
2, 138400, Note_on_c, 0, 60, 0
2, 138400, Note_on_c, 0, 66, 58
2, 138560, Note_on_c, 0, 66, 0
2, 138560, Note_on_c, 0, 70, 55
2, 138720, Note_on_c, 0, 70, 0
2, 138720, Note_on_c, 0, 60, 52
2, 138880, Note_on_c, 0, 60, 0
2, 138880, Note_on_c, 0, 65, 49
2, 139040, Note_on_c, 0, 65, 0
2, 139040, Note_on_c, 0, 68, 50
2, 139200, Note_on_c, 0, 68, 0
2, 139200, Note_on_c, 0, 60, 52
2, 139360, Note_on_c, 0, 60, 0
2, 139360, Note_on_c, 0, 63, 49
2, 139520, Note_on_c, 0, 63, 0
2, 139520, Note_on_c, 0, 66, 49
2, 139680, Note_on_c, 0, 66, 0
2, 139680, Note_on_c, 0, 65, 52
2, 139840, Note_on_c, 0, 65, 0
2, 139840, Note_on_c, 0, 68, 49
2, 140000, Note_on_c, 0, 68, 0
2, 140000, Note_on_c, 0, 73, 49
2, 140160, Note_on_c, 0, 73, 0
2, 140160, Note_on_c, 0, 77, 59
2, 140320, Note_on_c, 0, 77, 0
2, 140320, Note_on_c, 0, 73, 50
2, 140480, Note_on_c, 0, 73, 0
2, 140480, Note_on_c, 0, 68, 52
2, 140640, Note_on_c, 0, 68, 0
2, 140640, Note_on_c, 0, 65, 52
2, 140800, Note_on_c, 0, 65, 0
2, 140800, Note_on_c, 0, 68, 50
2, 140960, Note_on_c, 0, 68, 0
2, 140960, Note_on_c, 0, 73, 50
2, 141120, Note_on_c, 0, 73, 0
2, 141120, Note_on_c, 0, 68, 52
2, 141280, Note_on_c, 0, 68, 0
2, 141280, Note_on_c, 0, 73, 49
2, 141440, Note_on_c, 0, 73, 0
2, 141440, Note_on_c, 0, 77, 49
2, 141600, Note_on_c, 0, 77, 0
2, 141600, Note_on_c, 0, 80, 59
2, 141760, Note_on_c, 0, 80, 0
2, 141760, Note_on_c, 0, 77, 50
2, 141920, Note_on_c, 0, 77, 0
2, 141920, Note_on_c, 0, 73, 50
2, 142080, Note_on_c, 0, 73, 0
2, 142080, Note_on_c, 0, 68, 52
2, 142240, Note_on_c, 0, 68, 0
2, 142240, Note_on_c, 0, 73, 49
2, 142400, Note_on_c, 0, 73, 0
2, 142400, Note_on_c, 0, 77, 49
2, 142560, Note_on_c, 0, 77, 0
2, 142560, Note_on_c, 0, 74, 52
2, 142720, Note_on_c, 0, 74, 0
2, 142720, Note_on_c, 0, 77, 50
2, 142880, Note_on_c, 0, 77, 0
2, 142880, Note_on_c, 0, 80, 50
2, 143040, Note_on_c, 0, 80, 0
2, 143040, Note_on_c, 0, 75, 52
2, 143200, Note_on_c, 0, 75, 0
2, 143200, Note_on_c, 0, 78, 49
2, 143360, Note_on_c, 0, 78, 0
2, 143360, Note_on_c, 0, 80, 49
2, 143520, Note_on_c, 0, 80, 0
2, 143520, Note_on_c, 0, 75, 54
2, 143680, Note_on_c, 0, 75, 0
2, 143680, Note_on_c, 0, 78, 57
2, 143840, Note_on_c, 0, 78, 0
2, 143840, Note_on_c, 0, 81, 59
2, 144000, Note_on_c, 0, 81, 0
2, 144000, Note_on_c, 0, 72, 63
2, 144160, Note_on_c, 0, 72, 0
2, 144160, Note_on_c, 0, 78, 58
2, 144320, Note_on_c, 0, 78, 0
2, 144320, Note_on_c, 0, 82, 55
2, 144480, Note_on_c, 0, 82, 0
2, 144480, Note_on_c, 0, 72, 52
2, 144640, Note_on_c, 0, 72, 0
2, 144640, Note_on_c, 0, 77, 50
2, 144800, Note_on_c, 0, 77, 0
2, 144800, Note_on_c, 0, 80, 50
2, 144960, Note_on_c, 0, 80, 0
2, 144960, Note_on_c, 0, 72, 52
2, 145120, Note_on_c, 0, 72, 0
2, 145120, Note_on_c, 0, 75, 49
2, 145280, Note_on_c, 0, 75, 0
2, 145280, Note_on_c, 0, 78, 49
2, 145440, Note_on_c, 0, 78, 0
2, 145440, Note_on_c, 0, 72, 51
2, 145600, Note_on_c, 0, 72, 0
2, 145600, Note_on_c, 0, 75, 48
2, 145760, Note_on_c, 0, 75, 0
2, 145760, Note_on_c, 0, 77, 50
2, 145920, Note_on_c, 0, 77, 0
2, 145920, Note_on_c, 0, 70, 49
2, 146080, Note_on_c, 0, 70, 0
2, 146080, Note_on_c, 0, 73, 44
2, 146240, Note_on_c, 0, 73, 0
2, 146240, Note_on_c, 0, 77, 44
2, 146400, Note_on_c, 0, 77, 0
2, 146400, Note_on_c, 0, 68, 46
2, 146560, Note_on_c, 0, 68, 0
2, 146560, Note_on_c, 0, 72, 43
2, 146720, Note_on_c, 0, 72, 0
2, 146720, Note_on_c, 0, 77, 43
2, 146880, Note_on_c, 0, 77, 0
2, 146880, Note_on_c, 0, 68, 44
2, 147040, Note_on_c, 0, 68, 0
2, 147040, Note_on_c, 0, 70, 40
2, 147200, Note_on_c, 0, 70, 0
2, 147200, Note_on_c, 0, 77, 41
2, 147360, Note_on_c, 0, 77, 0
2, 147360, Note_on_c, 0, 66, 41
2, 147520, Note_on_c, 0, 66, 0
2, 147520, Note_on_c, 0, 70, 38
2, 147680, Note_on_c, 0, 70, 0
2, 147680, Note_on_c, 0, 75, 38
2, 147840, Note_on_c, 0, 75, 0
2, 147840, Note_on_c, 0, 65, 39
2, 148000, Note_on_c, 0, 65, 0
2, 148000, Note_on_c, 0, 70, 34
2, 148160, Note_on_c, 0, 70, 0
2, 148160, Note_on_c, 0, 73, 34
2, 148320, Note_on_c, 0, 73, 0
2, 148320, Note_on_c, 0, 63, 36
2, 148480, Note_on_c, 0, 63, 0
2, 148480, Note_on_c, 0, 68, 35
2, 148640, Note_on_c, 0, 68, 0
2, 148640, Note_on_c, 0, 72, 34
2, 148800, Note_on_c, 0, 72, 0
2, 148800, Note_on_c, 0, 65, 34
2, 148960, Note_on_c, 0, 65, 0
2, 148960, Note_on_c, 0, 68, 33
2, 149120, Note_on_c, 0, 68, 0
2, 149120, Note_on_c, 0, 73, 33
2, 149280, Note_on_c, 0, 73, 0
2, 149280, Note_on_c, 0, 66, 34
2, 149440, Note_on_c, 0, 66, 0
2, 149440, Note_on_c, 0, 68, 34
2, 149600, Note_on_c, 0, 68, 0
2, 149600, Note_on_c, 0, 75, 34
2, 149760, Note_on_c, 0, 75, 0
2, 149760, Note_on_c, 0, 65, 34
2, 149920, Note_on_c, 0, 65, 0
2, 149920, Note_on_c, 0, 68, 33
2, 150080, Note_on_c, 0, 68, 0
2, 150080, Note_on_c, 0, 73, 33
2, 150240, Note_on_c, 0, 73, 0
2, 150240, Note_on_c, 0, 68, 34
2, 150400, Note_on_c, 0, 68, 0
2, 150400, Note_on_c, 0, 65, 31
2, 150560, Note_on_c, 0, 65, 0
2, 150560, Note_on_c, 0, 61, 31
2, 150720, Note_on_c, 0, 61, 0
2, 150720, Note_on_c, 0, 65, 34
2, 150880, Note_on_c, 0, 65, 0
2, 150880, Note_on_c, 0, 61, 32
2, 151040, Note_on_c, 0, 61, 0
2, 151040, Note_on_c, 0, 56, 32
2, 151200, Note_on_c, 0, 56, 0
2, 151200, Control_c, 0, 91, 127
2, 151200, Note_on_c, 0, 53, 52
2, 151360, Note_on_c, 0, 53, 0
2, 151360, Note_on_c, 0, 56, 51
2, 151520, Note_on_c, 0, 56, 0
2, 151520, Note_on_c, 0, 61, 51
2, 151680, Note_on_c, 0, 61, 0
2, 151680, Note_on_c, 0, 65, 59
2, 151840, Note_on_c, 0, 65, 0
2, 151840, Note_on_c, 0, 61, 50
2, 152000, Note_on_c, 0, 61, 0
2, 152000, Note_on_c, 0, 56, 50
2, 152160, Note_on_c, 0, 56, 0
2, 152160, Note_on_c, 0, 53, 52
2, 152320, Note_on_c, 0, 53, 0
2, 152320, Note_on_c, 0, 56, 49
2, 152480, Note_on_c, 0, 56, 0
2, 152480, Note_on_c, 0, 61, 49
2, 152640, Note_on_c, 0, 61, 0
2, 152640, Note_on_c, 0, 56, 52
2, 152800, Note_on_c, 0, 56, 0
2, 152800, Note_on_c, 0, 61, 49
2, 152960, Note_on_c, 0, 61, 0
2, 152960, Note_on_c, 0, 65, 49
2, 153120, Note_on_c, 0, 65, 0
2, 153120, Note_on_c, 0, 68, 61
2, 153280, Note_on_c, 0, 68, 0
2, 153280, Note_on_c, 0, 65, 49
2, 153440, Note_on_c, 0, 65, 0
2, 153440, Note_on_c, 0, 61, 49
2, 153600, Note_on_c, 0, 61, 0
2, 153600, Note_on_c, 0, 56, 52
2, 153760, Note_on_c, 0, 56, 0
2, 153760, Note_on_c, 0, 61, 48
2, 153920, Note_on_c, 0, 61, 0
2, 153920, Note_on_c, 0, 65, 48
2, 154080, Note_on_c, 0, 65, 0
2, 154080, Note_on_c, 0, 62, 52
2, 154240, Note_on_c, 0, 62, 0
2, 154240, Note_on_c, 0, 65, 48
2, 154400, Note_on_c, 0, 65, 0
2, 154400, Note_on_c, 0, 68, 48
2, 154560, Note_on_c, 0, 68, 0
2, 154560, Note_on_c, 0, 63, 52
2, 154720, Note_on_c, 0, 63, 0
2, 154720, Note_on_c, 0, 66, 49
2, 154880, Note_on_c, 0, 66, 0
2, 154880, Note_on_c, 0, 68, 50
2, 155040, Note_on_c, 0, 68, 0
2, 155040, Note_on_c, 0, 63, 54
2, 155200, Note_on_c, 0, 63, 0
2, 155200, Note_on_c, 0, 66, 57
2, 155360, Note_on_c, 0, 66, 0
2, 155360, Note_on_c, 0, 69, 56
2, 155520, Note_on_c, 0, 69, 0
2, 155520, Note_on_c, 0, 60, 63
2, 155680, Note_on_c, 0, 60, 0
2, 155680, Note_on_c, 0, 66, 58
2, 155840, Note_on_c, 0, 66, 0
2, 155840, Note_on_c, 0, 70, 55
2, 156000, Note_on_c, 0, 70, 0
2, 156000, Note_on_c, 0, 60, 52
2, 156160, Note_on_c, 0, 60, 0
2, 156160, Note_on_c, 0, 65, 49
2, 156320, Note_on_c, 0, 65, 0
2, 156320, Note_on_c, 0, 68, 49
2, 156480, Note_on_c, 0, 68, 0
2, 156480, Note_on_c, 0, 60, 52
2, 156640, Note_on_c, 0, 60, 0
2, 156640, Note_on_c, 0, 63, 50
2, 156800, Note_on_c, 0, 63, 0
2, 156800, Note_on_c, 0, 66, 50
2, 156960, Note_on_c, 0, 66, 0
2, 156960, Note_on_c, 0, 65, 52
2, 157120, Note_on_c, 0, 65, 0
2, 157120, Note_on_c, 0, 68, 50
2, 157280, Note_on_c, 0, 68, 0
2, 157280, Note_on_c, 0, 73, 50
2, 157440, Note_on_c, 0, 73, 0
2, 157440, Note_on_c, 0, 77, 59
2, 157600, Note_on_c, 0, 77, 0
2, 157600, Note_on_c, 0, 73, 49
2, 157760, Note_on_c, 0, 73, 0
2, 157760, Note_on_c, 0, 68, 49
2, 157920, Note_on_c, 0, 68, 0
2, 157920, Note_on_c, 0, 65, 52
2, 158080, Note_on_c, 0, 65, 0
2, 158080, Note_on_c, 0, 68, 49
2, 158240, Note_on_c, 0, 68, 0
2, 158240, Note_on_c, 0, 73, 49
2, 158400, Note_on_c, 0, 73, 0
2, 158400, Note_on_c, 0, 68, 52
2, 158560, Note_on_c, 0, 68, 0
2, 158560, Note_on_c, 0, 73, 49
2, 158720, Note_on_c, 0, 73, 0
2, 158720, Note_on_c, 0, 77, 49
2, 158880, Note_on_c, 0, 77, 0
2, 158880, Note_on_c, 0, 80, 61
2, 159040, Note_on_c, 0, 80, 0
2, 159040, Note_on_c, 0, 77, 49
2, 159200, Note_on_c, 0, 77, 0
2, 159200, Note_on_c, 0, 73, 49
2, 159360, Note_on_c, 0, 73, 0
2, 159360, Note_on_c, 0, 68, 52
2, 159520, Note_on_c, 0, 68, 0
2, 159520, Note_on_c, 0, 73, 49
2, 159680, Note_on_c, 0, 73, 0
2, 159680, Note_on_c, 0, 77, 49
2, 159840, Note_on_c, 0, 77, 0
2, 159840, Note_on_c, 0, 74, 52
2, 160000, Note_on_c, 0, 74, 0
2, 160000, Note_on_c, 0, 77, 50
2, 160160, Note_on_c, 0, 77, 0
2, 160160, Note_on_c, 0, 80, 50
2, 160320, Note_on_c, 0, 80, 0
2, 160320, Note_on_c, 0, 75, 52
2, 160480, Note_on_c, 0, 75, 0
2, 160480, Note_on_c, 0, 78, 49
2, 160640, Note_on_c, 0, 78, 0
2, 160640, Note_on_c, 0, 80, 49
2, 160800, Note_on_c, 0, 80, 0
2, 160800, Note_on_c, 0, 75, 54
2, 160960, Note_on_c, 0, 75, 0
2, 160960, Note_on_c, 0, 78, 57
2, 161120, Note_on_c, 0, 78, 0
2, 161120, Note_on_c, 0, 81, 56
2, 161280, Note_on_c, 0, 81, 0
2, 161280, Note_on_c, 0, 72, 63
2, 161440, Note_on_c, 0, 72, 0
2, 161440, Note_on_c, 0, 78, 58
2, 161600, Note_on_c, 0, 78, 0
2, 161600, Note_on_c, 0, 82, 55
2, 161760, Note_on_c, 0, 82, 0
2, 161760, Note_on_c, 0, 72, 52
2, 161920, Note_on_c, 0, 72, 0
2, 161920, Note_on_c, 0, 77, 48
2, 162080, Note_on_c, 0, 77, 0
2, 162080, Note_on_c, 0, 80, 48
2, 162240, Note_on_c, 0, 80, 0
2, 162240, Note_on_c, 0, 72, 52
2, 162400, Note_on_c, 0, 72, 0
2, 162400, Note_on_c, 0, 75, 48
2, 162560, Note_on_c, 0, 75, 0
2, 162560, Note_on_c, 0, 78, 48
2, 162720, Note_on_c, 0, 78, 0
2, 162720, Note_on_c, 0, 72, 51
2, 162880, Note_on_c, 0, 72, 0
2, 162880, Note_on_c, 0, 75, 46
2, 163040, Note_on_c, 0, 75, 0
2, 163040, Note_on_c, 0, 77, 46
2, 163200, Note_on_c, 0, 77, 0
2, 163200, Note_on_c, 0, 70, 49
2, 163360, Note_on_c, 0, 70, 0
2, 163360, Note_on_c, 0, 73, 45
2, 163520, Note_on_c, 0, 73, 0
2, 163520, Note_on_c, 0, 77, 45
2, 163680, Note_on_c, 0, 77, 0
2, 163680, Note_on_c, 0, 68, 46
2, 163840, Note_on_c, 0, 68, 0
2, 163840, Note_on_c, 0, 72, 42
2, 164000, Note_on_c, 0, 72, 0
2, 164000, Note_on_c, 0, 77, 42
2, 164160, Note_on_c, 0, 77, 0
2, 164160, Note_on_c, 0, 68, 44
2, 164320, Note_on_c, 0, 68, 0
2, 164320, Note_on_c, 0, 70, 41
2, 164480, Note_on_c, 0, 70, 0
2, 164480, Note_on_c, 0, 77, 41
2, 164640, Note_on_c, 0, 77, 0
2, 164640, Note_on_c, 0, 66, 41
2, 164800, Note_on_c, 0, 66, 0
2, 164800, Note_on_c, 0, 70, 40
2, 164960, Note_on_c, 0, 70, 0
2, 164960, Note_on_c, 0, 75, 38
2, 165120, Note_on_c, 0, 75, 0
2, 165120, Note_on_c, 0, 65, 39
2, 165280, Note_on_c, 0, 65, 0
2, 165280, Note_on_c, 0, 70, 35
2, 165440, Note_on_c, 0, 70, 0
2, 165440, Note_on_c, 0, 73, 34
2, 165600, Note_on_c, 0, 73, 0
2, 165600, Note_on_c, 0, 63, 36
2, 165760, Note_on_c, 0, 63, 0
2, 165760, Note_on_c, 0, 68, 34
2, 165920, Note_on_c, 0, 68, 0
2, 165920, Note_on_c, 0, 72, 34
2, 166080, Note_on_c, 0, 72, 0
2, 166080, Note_on_c, 0, 65, 34
2, 166240, Note_on_c, 0, 65, 0
2, 166240, Note_on_c, 0, 68, 32
2, 166400, Note_on_c, 0, 68, 0
2, 166400, Note_on_c, 0, 73, 32
2, 166560, Note_on_c, 0, 73, 0
2, 166560, Note_on_c, 0, 66, 34
2, 166720, Note_on_c, 0, 66, 0
2, 166720, Note_on_c, 0, 68, 32
2, 166880, Note_on_c, 0, 68, 0
2, 166880, Note_on_c, 0, 75, 32
2, 167040, Note_on_c, 0, 75, 0
2, 167040, Note_on_c, 0, 65, 34
2, 167200, Note_on_c, 0, 65, 0
2, 167200, Note_on_c, 0, 68, 32
2, 167360, Note_on_c, 0, 68, 0
2, 167360, Note_on_c, 0, 73, 32
2, 167520, Note_on_c, 0, 73, 0
2, 167520, Note_on_c, 0, 68, 34
2, 167680, Note_on_c, 0, 68, 0
2, 167680, Note_on_c, 0, 65, 31
2, 167840, Note_on_c, 0, 65, 0
2, 167840, Note_on_c, 0, 61, 31
2, 168000, Note_on_c, 0, 61, 0
2, 168000, Note_on_c, 0, 65, 34
2, 168160, Note_on_c, 0, 65, 0
2, 168160, Note_on_c, 0, 61, 32
2, 168320, Note_on_c, 0, 61, 0
2, 168320, Note_on_c, 0, 56, 32
2, 168480, Note_on_c, 0, 56, 0
2, 168480, Control_c, 0, 91, 127
2, 168480, Note_on_c, 0, 52, 74
2, 168640, Note_on_c, 0, 52, 0
2, 168640, Note_on_c, 0, 56, 68
2, 168800, Note_on_c, 0, 56, 0
2, 168800, Note_on_c, 0, 61, 68
2, 168960, Note_on_c, 0, 61, 0
2, 168960, Note_on_c, 0, 64, 84
2, 169120, Note_on_c, 0, 64, 0
2, 169120, Note_on_c, 0, 61, 69
2, 169280, Note_on_c, 0, 61, 0
2, 169280, Note_on_c, 0, 56, 69
2, 169440, Note_on_c, 0, 56, 0
2, 169440, Note_on_c, 0, 52, 74
2, 169600, Note_on_c, 0, 52, 0
2, 169600, Note_on_c, 0, 56, 70
2, 169760, Note_on_c, 0, 56, 0
2, 169760, Note_on_c, 0, 61, 70
2, 169920, Note_on_c, 0, 61, 0
2, 169920, Note_on_c, 0, 56, 74
2, 170080, Note_on_c, 0, 56, 0
2, 170080, Note_on_c, 0, 61, 68
2, 170240, Note_on_c, 0, 61, 0
2, 170240, Note_on_c, 0, 64, 68
2, 170400, Note_on_c, 0, 64, 0
2, 170400, Note_on_c, 0, 68, 85
2, 170560, Note_on_c, 0, 68, 0
2, 170560, Note_on_c, 0, 64, 68
2, 170720, Note_on_c, 0, 64, 0
2, 170720, Note_on_c, 0, 61, 68
2, 170880, Note_on_c, 0, 61, 0
2, 170880, Note_on_c, 0, 56, 74
2, 171040, Note_on_c, 0, 56, 0
2, 171040, Note_on_c, 0, 61, 68
2, 171200, Note_on_c, 0, 61, 0
2, 171200, Note_on_c, 0, 64, 68
2, 171360, Note_on_c, 0, 64, 0
2, 171360, Note_on_c, 0, 62, 74
2, 171520, Note_on_c, 0, 62, 0
2, 171520, Note_on_c, 0, 65, 69
2, 171680, Note_on_c, 0, 65, 0
2, 171680, Note_on_c, 0, 68, 69
2, 171840, Note_on_c, 0, 68, 0
2, 171840, Note_on_c, 0, 63, 74
2, 172000, Note_on_c, 0, 63, 0
2, 172000, Note_on_c, 0, 66, 67
2, 172160, Note_on_c, 0, 66, 0
2, 172160, Note_on_c, 0, 68, 69
2, 172320, Note_on_c, 0, 68, 0
2, 172320, Note_on_c, 0, 62, 76
2, 172480, Note_on_c, 0, 62, 0
2, 172480, Note_on_c, 0, 65, 78
2, 172640, Note_on_c, 0, 65, 0
2, 172640, Note_on_c, 0, 68, 81
2, 172800, Note_on_c, 0, 68, 0
2, 172800, Note_on_c, 0, 63, 90
2, 172960, Note_on_c, 0, 63, 0
2, 172960, Note_on_c, 0, 66, 82
2, 173120, Note_on_c, 0, 66, 0
2, 173120, Note_on_c, 0, 69, 78
2, 173280, Note_on_c, 0, 69, 0
2, 173280, Note_on_c, 0, 60, 74
2, 173440, Note_on_c, 0, 60, 0
2, 173440, Note_on_c, 0, 64, 70
2, 173600, Note_on_c, 0, 64, 0
2, 173600, Note_on_c, 0, 68, 70
2, 173760, Note_on_c, 0, 68, 0
2, 173760, Note_on_c, 0, 60, 74
2, 173920, Note_on_c, 0, 60, 0
2, 173920, Note_on_c, 0, 63, 69
2, 174080, Note_on_c, 0, 63, 0
2, 174080, Note_on_c, 0, 66, 69
2, 174240, Note_on_c, 0, 66, 0
2, 174240, Note_on_c, 0, 64, 74
2, 174400, Note_on_c, 0, 64, 0
2, 174400, Note_on_c, 0, 68, 68
2, 174560, Note_on_c, 0, 68, 0
2, 174560, Note_on_c, 0, 73, 69
2, 174720, Note_on_c, 0, 73, 0
2, 174720, Note_on_c, 0, 76, 84
2, 174880, Note_on_c, 0, 76, 0
2, 174880, Note_on_c, 0, 73, 69
2, 175040, Note_on_c, 0, 73, 0
2, 175040, Note_on_c, 0, 68, 69
2, 175200, Note_on_c, 0, 68, 0
2, 175200, Note_on_c, 0, 64, 74
2, 175360, Note_on_c, 0, 64, 0
2, 175360, Note_on_c, 0, 68, 69
2, 175520, Note_on_c, 0, 68, 0
2, 175520, Note_on_c, 0, 73, 69
2, 175680, Note_on_c, 0, 73, 0
2, 175680, Note_on_c, 0, 68, 74
2, 175840, Note_on_c, 0, 68, 0
2, 175840, Note_on_c, 0, 73, 68
2, 176000, Note_on_c, 0, 73, 0
2, 176000, Note_on_c, 0, 76, 68
2, 176160, Note_on_c, 0, 76, 0
2, 176160, Note_on_c, 0, 80, 83
2, 176320, Note_on_c, 0, 80, 0
2, 176320, Note_on_c, 0, 76, 70
2, 176480, Note_on_c, 0, 76, 0
2, 176480, Note_on_c, 0, 73, 70
2, 176640, Note_on_c, 0, 73, 0
2, 176640, Note_on_c, 0, 68, 74
2, 176800, Note_on_c, 0, 68, 0
2, 176800, Note_on_c, 0, 73, 69
2, 176960, Note_on_c, 0, 73, 0
2, 176960, Note_on_c, 0, 76, 69
2, 177120, Note_on_c, 0, 76, 0
2, 177120, Note_on_c, 0, 75, 74
2, 177280, Note_on_c, 0, 75, 0
2, 177280, Note_on_c, 0, 78, 69
2, 177440, Note_on_c, 0, 78, 0
2, 177440, Note_on_c, 0, 80, 69
2, 177600, Note_on_c, 0, 80, 0
2, 177600, Note_on_c, 0, 75, 74
2, 177760, Note_on_c, 0, 75, 0
2, 177760, Note_on_c, 0, 78, 70
2, 177920, Note_on_c, 0, 78, 0
2, 177920, Note_on_c, 0, 82, 70
2, 178080, Note_on_c, 0, 82, 0
2, 178080, Note_on_c, 0, 75, 76
2, 178240, Note_on_c, 0, 75, 0
2, 178240, Note_on_c, 0, 78, 81
2, 178400, Note_on_c, 0, 78, 0
2, 178400, Note_on_c, 0, 84, 87
2, 178560, Note_on_c, 0, 84, 0
2, 178560, Note_on_c, 0, 73, 87
2, 178720, Note_on_c, 0, 73, 0
2, 178720, Note_on_c, 0, 76, 82
2, 178880, Note_on_c, 0, 76, 0
2, 178880, Note_on_c, 0, 85, 82
2, 179040, Note_on_c, 0, 85, 0
2, 179040, Note_on_c, 0, 75, 87
2, 179200, Note_on_c, 0, 75, 0
2, 179200, Note_on_c, 0, 78, 83
2, 179360, Note_on_c, 0, 78, 0
2, 179360, Note_on_c, 0, 87, 83
2, 179520, Note_on_c, 0, 87, 0
2, 179520, Note_on_c, 0, 76, 87
2, 179680, Note_on_c, 0, 76, 0
2, 179680, Note_on_c, 0, 80, 82
2, 179840, Note_on_c, 0, 80, 0
2, 179840, Note_on_c, 0, 88, 82
2, 180000, Note_on_c, 0, 88, 0
2, 180000, Note_on_c, 0, 78, 87
2, 180160, Note_on_c, 0, 78, 0
2, 180160, Note_on_c, 0, 81, 84
2, 180320, Note_on_c, 0, 81, 0
2, 180320, Note_on_c, 0, 90, 85
2, 180480, Note_on_c, 0, 90, 0
2, 180480, Note_on_c, 0, 80, 92
2, 180640, Note_on_c, 0, 80, 0
2, 180640, Note_on_c, 0, 83, 90
2, 180800, Note_on_c, 0, 83, 0
2, 180800, Note_on_c, 0, 92, 90
2, 180960, Note_on_c, 0, 92, 0
2, 180960, Note_on_c, 0, 81, 98
2, 181120, Note_on_c, 0, 81, 0
2, 181120, Note_on_c, 0, 85, 90
2, 181280, Note_on_c, 0, 85, 0
2, 181280, Note_on_c, 0, 93, 94
2, 181440, Note_on_c, 0, 93, 0
2, 181440, Note_on_c, 0, 80, 103
2, 181600, Note_on_c, 0, 80, 0
2, 181600, Note_on_c, 0, 88, 97
2, 181760, Note_on_c, 0, 88, 0
2, 181760, Note_on_c, 0, 92, 97
2, 181920, Note_on_c, 0, 92, 0
2, 181920, Note_on_c, 0, 81, 105
2, 182080, Note_on_c, 0, 81, 0
2, 182080, Note_on_c, 0, 90, 96
2, 182240, Note_on_c, 0, 90, 0
2, 182240, Note_on_c, 0, 93, 96
2, 182400, Note_on_c, 0, 93, 0
2, 182400, Note_on_c, 0, 83, 109
2, 182560, Note_on_c, 0, 83, 0
2, 182560, Note_on_c, 0, 92, 101
2, 182720, Note_on_c, 0, 92, 0
2, 182720, Note_on_c, 0, 95, 101
2, 182880, Note_on_c, 0, 95, 0
2, 182880, Note_on_c, 0, 85, 114
2, 183040, Note_on_c, 0, 85, 0
2, 183040, Note_on_c, 0, 88, 103
2, 183200, Note_on_c, 0, 88, 0
2, 183200, Note_on_c, 0, 93, 102
2, 183360, Note_on_c, 0, 93, 0
2, 183360, Note_on_c, 0, 97, 114
2, 183520, Note_on_c, 0, 97, 0
2, 183520, Note_on_c, 0, 93, 99
2, 183680, Note_on_c, 0, 93, 0
2, 183680, Note_on_c, 0, 88, 99
2, 183840, Note_on_c, 0, 88, 0
2, 183840, Note_on_c, 0, 93, 106
2, 184000, Note_on_c, 0, 93, 0
2, 184000, Note_on_c, 0, 88, 96
2, 184160, Note_on_c, 0, 88, 0
2, 184160, Note_on_c, 0, 85, 101
2, 184320, Note_on_c, 0, 85, 0
2, 184320, Note_on_c, 0, 81, 105
2, 184480, Note_on_c, 0, 81, 0
2, 184480, Note_on_c, 0, 85, 97
2, 184640, Note_on_c, 0, 85, 0
2, 184640, Note_on_c, 0, 88, 100
2, 184800, Note_on_c, 0, 88, 0
2, 184800, Note_on_c, 0, 93, 113
2, 184960, Note_on_c, 0, 93, 0
2, 184960, Note_on_c, 0, 88, 96
2, 185120, Note_on_c, 0, 88, 0
2, 185120, Note_on_c, 0, 85, 96
2, 185280, Note_on_c, 0, 85, 0
2, 185280, Note_on_c, 0, 88, 105
2, 185440, Note_on_c, 0, 88, 0
2, 185440, Note_on_c, 0, 85, 100
2, 185600, Note_on_c, 0, 85, 0
2, 185600, Note_on_c, 0, 81, 95
2, 185760, Note_on_c, 0, 81, 0
2, 185760, Note_on_c, 0, 73, 104
2, 185920, Note_on_c, 0, 73, 0
2, 185920, Note_on_c, 0, 76, 100
2, 186080, Note_on_c, 0, 76, 0
2, 186080, Note_on_c, 0, 81, 95
2, 186240, Note_on_c, 0, 81, 0
2, 186240, Note_on_c, 0, 85, 114
2, 186400, Note_on_c, 0, 85, 0
2, 186400, Note_on_c, 0, 81, 95
2, 186560, Note_on_c, 0, 81, 0
2, 186560, Note_on_c, 0, 76, 98
2, 186720, Note_on_c, 0, 76, 0
2, 186720, Note_on_c, 0, 81, 103
2, 186880, Note_on_c, 0, 81, 0
2, 186880, Note_on_c, 0, 76, 95
2, 187040, Note_on_c, 0, 76, 0
2, 187040, Note_on_c, 0, 73, 95
2, 187200, Note_on_c, 0, 73, 0
2, 187200, Note_on_c, 0, 69, 103
2, 187360, Note_on_c, 0, 69, 0
2, 187360, Note_on_c, 0, 73, 95
2, 187520, Note_on_c, 0, 73, 0
2, 187520, Note_on_c, 0, 76, 95
2, 187680, Note_on_c, 0, 76, 0
2, 187680, Note_on_c, 0, 81, 114
2, 187840, Note_on_c, 0, 81, 0
2, 187840, Note_on_c, 0, 76, 98
2, 188000, Note_on_c, 0, 76, 0
2, 188000, Note_on_c, 0, 73, 98
2, 188160, Note_on_c, 0, 73, 0
2, 188160, Note_on_c, 0, 76, 102
2, 188320, Note_on_c, 0, 76, 0
2, 188320, Note_on_c, 0, 73, 98
2, 188480, Note_on_c, 0, 73, 0
2, 188480, Note_on_c, 0, 69, 98
2, 188640, Note_on_c, 0, 69, 0
2, 188640, Note_on_c, 0, 76, 102
2, 188800, Note_on_c, 0, 76, 0
2, 188800, Note_on_c, 0, 73, 97
2, 188960, Note_on_c, 0, 73, 0
2, 188960, Note_on_c, 0, 69, 97
2, 189120, Note_on_c, 0, 69, 0
2, 189120, Note_on_c, 0, 73, 113
2, 189280, Note_on_c, 0, 73, 0
2, 189280, Note_on_c, 0, 69, 97
2, 189440, Note_on_c, 0, 69, 0
2, 189440, Note_on_c, 0, 64, 97
2, 189600, Note_on_c, 0, 64, 0
2, 189600, Note_on_c, 0, 69, 102
2, 189760, Note_on_c, 0, 69, 0
2, 189760, Note_on_c, 0, 64, 97
2, 189920, Note_on_c, 0, 64, 0
2, 189920, Note_on_c, 0, 61, 97
2, 190080, Note_on_c, 0, 61, 0
2, 190080, Note_on_c, 0, 69, 99
2, 190240, Note_on_c, 0, 69, 0
2, 190240, Note_on_c, 0, 64, 93
2, 190400, Note_on_c, 0, 64, 0
2, 190400, Note_on_c, 0, 61, 87
2, 190560, Note_on_c, 0, 61, 0
2, 190560, Note_on_c, 0, 64, 81
2, 190720, Note_on_c, 0, 64, 0
2, 190720, Note_on_c, 0, 61, 78
2, 190880, Note_on_c, 0, 61, 0
2, 190880, Note_on_c, 0, 57, 72
2, 191040, Note_on_c, 0, 57, 0
2, 191040, Note_on_c, 0, 61, 67
2, 191200, Note_on_c, 0, 61, 0
2, 191200, Note_on_c, 0, 57, 61
2, 191360, Note_on_c, 0, 57, 0
2, 191360, Note_on_c, 0, 52, 54
2, 191520, Note_on_c, 0, 52, 0
2, 191520, Note_on_c, 0, 49, 52
2, 191680, Note_on_c, 0, 49, 0
2, 191680, Note_on_c, 0, 52, 50
2, 191840, Note_on_c, 0, 52, 0
2, 191840, Note_on_c, 0, 57, 50
2, 192000, Note_on_c, 0, 57, 0
2, 192000, Note_on_c, 0, 61, 51
2, 192160, Note_on_c, 0, 61, 0
2, 192160, Note_on_c, 0, 57, 47
2, 192320, Note_on_c, 0, 57, 0
2, 192320, Note_on_c, 0, 52, 48
2, 192480, Note_on_c, 0, 52, 0
2, 192480, Note_on_c, 0, 49, 51
2, 192640, Note_on_c, 0, 49, 0
2, 192640, Note_on_c, 0, 52, 47
2, 192800, Note_on_c, 0, 52, 0
2, 192800, Note_on_c, 0, 57, 47
2, 192960, Note_on_c, 0, 57, 0
2, 192960, Note_on_c, 0, 49, 51
2, 193120, Note_on_c, 0, 49, 0
2, 193120, Note_on_c, 0, 54, 49
2, 193280, Note_on_c, 0, 54, 0
2, 193280, Note_on_c, 0, 57, 49
2, 193440, Note_on_c, 0, 57, 0
2, 193440, Note_on_c, 0, 61, 52
2, 193600, Note_on_c, 0, 61, 0
2, 193600, Note_on_c, 0, 57, 49
2, 193760, Note_on_c, 0, 57, 0
2, 193760, Note_on_c, 0, 54, 49
2, 193920, Note_on_c, 0, 54, 0
2, 193920, Note_on_c, 0, 49, 52
2, 194080, Note_on_c, 0, 49, 0
2, 194080, Note_on_c, 0, 54, 48
2, 194240, Note_on_c, 0, 54, 0
2, 194240, Note_on_c, 0, 57, 48
2, 194400, Note_on_c, 0, 57, 0
2, 194400, Note_on_c, 0, 49, 51
2, 194560, Note_on_c, 0, 49, 0
2, 194560, Note_on_c, 0, 53, 48
2, 194720, Note_on_c, 0, 53, 0
2, 194720, Note_on_c, 0, 56, 48
2, 194880, Note_on_c, 0, 56, 0
2, 194880, Note_on_c, 0, 61, 50
2, 195040, Note_on_c, 0, 61, 0
2, 195040, Note_on_c, 0, 56, 45
2, 195200, Note_on_c, 0, 56, 0
2, 195200, Note_on_c, 0, 53, 45
2, 195360, Note_on_c, 0, 53, 0
2, 195360, Note_on_c, 0, 49, 48
2, 195520, Note_on_c, 0, 49, 0
2, 195520, Note_on_c, 0, 53, 45
2, 195680, Note_on_c, 0, 53, 0
2, 195680, Note_on_c, 0, 56, 45
2, 195840, Note_on_c, 0, 56, 0
2, 195840, Note_on_c, 0, 51, 46
2, 196000, Note_on_c, 0, 51, 0
2, 196000, Note_on_c, 0, 54, 42
2, 196160, Note_on_c, 0, 54, 0
2, 196160, Note_on_c, 0, 56, 42
2, 196320, Note_on_c, 0, 56, 0
2, 196320, Note_on_c, 0, 60, 45
2, 196480, Note_on_c, 0, 60, 0
2, 196480, Note_on_c, 0, 56, 41
2, 196640, Note_on_c, 0, 56, 0
2, 196640, Note_on_c, 0, 54, 41
2, 196800, Note_on_c, 0, 54, 0
2, 196800, Note_on_c, 0, 51, 44
2, 196960, Note_on_c, 0, 51, 0
2, 196960, Note_on_c, 0, 54, 40
2, 197120, Note_on_c, 0, 54, 0
2, 197120, Note_on_c, 0, 56, 41
2, 197280, Note_on_c, 0, 56, 0
2, 197280, Control_c, 0, 91, 127
2, 197280, Note_on_c, 0, 53, 52
2, 197440, Note_on_c, 0, 53, 0
2, 197440, Note_on_c, 0, 56, 47
2, 197600, Note_on_c, 0, 56, 0
2, 197600, Note_on_c, 0, 61, 47
2, 197760, Note_on_c, 0, 61, 0
2, 197760, Note_on_c, 0, 65, 59
2, 197920, Note_on_c, 0, 65, 0
2, 197920, Note_on_c, 0, 61, 48
2, 198080, Note_on_c, 0, 61, 0
2, 198080, Note_on_c, 0, 56, 48
2, 198240, Note_on_c, 0, 56, 0
2, 198240, Note_on_c, 0, 53, 52
2, 198400, Note_on_c, 0, 53, 0
2, 198400, Note_on_c, 0, 56, 48
2, 198560, Note_on_c, 0, 56, 0
2, 198560, Note_on_c, 0, 61, 48
2, 198720, Note_on_c, 0, 61, 0
2, 198720, Note_on_c, 0, 56, 52
2, 198880, Note_on_c, 0, 56, 0
2, 198880, Note_on_c, 0, 61, 48
2, 199040, Note_on_c, 0, 61, 0
2, 199040, Note_on_c, 0, 65, 48
2, 199200, Note_on_c, 0, 65, 0
2, 199200, Note_on_c, 0, 68, 61
2, 199360, Note_on_c, 0, 68, 0
2, 199360, Note_on_c, 0, 65, 47
2, 199520, Note_on_c, 0, 65, 0
2, 199520, Note_on_c, 0, 61, 47
2, 199680, Note_on_c, 0, 61, 0
2, 199680, Note_on_c, 0, 56, 52
2, 199840, Note_on_c, 0, 56, 0
2, 199840, Note_on_c, 0, 61, 47
2, 200000, Note_on_c, 0, 61, 0
2, 200000, Note_on_c, 0, 65, 47
2, 200160, Note_on_c, 0, 65, 0
2, 200160, Note_on_c, 0, 62, 52
2, 200320, Note_on_c, 0, 62, 0
2, 200320, Note_on_c, 0, 65, 48
2, 200480, Note_on_c, 0, 65, 0
2, 200480, Note_on_c, 0, 68, 48
2, 200640, Note_on_c, 0, 68, 0
2, 200640, Note_on_c, 0, 63, 52
2, 200800, Note_on_c, 0, 63, 0
2, 200800, Note_on_c, 0, 66, 48
2, 200960, Note_on_c, 0, 66, 0
2, 200960, Note_on_c, 0, 68, 48
2, 201120, Note_on_c, 0, 68, 0
2, 201120, Note_on_c, 0, 63, 54
2, 201280, Note_on_c, 0, 63, 0
2, 201280, Note_on_c, 0, 66, 57
2, 201440, Note_on_c, 0, 66, 0
2, 201440, Note_on_c, 0, 69, 56
2, 201600, Note_on_c, 0, 69, 0
2, 201600, Note_on_c, 0, 60, 63
2, 201760, Note_on_c, 0, 60, 0
2, 201760, Note_on_c, 0, 66, 58
2, 201920, Note_on_c, 0, 66, 0
2, 201920, Note_on_c, 0, 70, 55
2, 202080, Note_on_c, 0, 70, 0
2, 202080, Note_on_c, 0, 60, 52
2, 202240, Note_on_c, 0, 60, 0
2, 202240, Note_on_c, 0, 65, 47
2, 202400, Note_on_c, 0, 65, 0
2, 202400, Note_on_c, 0, 68, 47
2, 202560, Note_on_c, 0, 68, 0
2, 202560, Note_on_c, 0, 60, 52
2, 202720, Note_on_c, 0, 60, 0
2, 202720, Note_on_c, 0, 63, 49
2, 202880, Note_on_c, 0, 63, 0
2, 202880, Note_on_c, 0, 66, 49
2, 203040, Note_on_c, 0, 66, 0
2, 203040, Note_on_c, 0, 65, 52
2, 203200, Note_on_c, 0, 65, 0
2, 203200, Note_on_c, 0, 68, 49
2, 203360, Note_on_c, 0, 68, 0
2, 203360, Note_on_c, 0, 73, 49
2, 203520, Note_on_c, 0, 73, 0
2, 203520, Note_on_c, 0, 77, 59
2, 203680, Note_on_c, 0, 77, 0
2, 203680, Note_on_c, 0, 73, 49
2, 203840, Note_on_c, 0, 73, 0
2, 203840, Note_on_c, 0, 68, 52
2, 204000, Note_on_c, 0, 68, 0
2, 204000, Note_on_c, 0, 65, 52
2, 204160, Note_on_c, 0, 65, 0
2, 204160, Note_on_c, 0, 68, 49
2, 204320, Note_on_c, 0, 68, 0
2, 204320, Note_on_c, 0, 73, 49
2, 204480, Note_on_c, 0, 73, 0
2, 204480, Note_on_c, 0, 68, 52
2, 204640, Note_on_c, 0, 68, 0
2, 204640, Note_on_c, 0, 73, 49
2, 204800, Note_on_c, 0, 73, 0
2, 204800, Note_on_c, 0, 77, 49
2, 204960, Note_on_c, 0, 77, 0
2, 204960, Note_on_c, 0, 80, 61
2, 205120, Note_on_c, 0, 80, 0
2, 205120, Note_on_c, 0, 77, 50
2, 205280, Note_on_c, 0, 77, 0
2, 205280, Note_on_c, 0, 73, 50
2, 205440, Note_on_c, 0, 73, 0
2, 205440, Note_on_c, 0, 68, 52
2, 205600, Note_on_c, 0, 68, 0
2, 205600, Note_on_c, 0, 73, 48
2, 205760, Note_on_c, 0, 73, 0
2, 205760, Note_on_c, 0, 77, 52
2, 205920, Note_on_c, 0, 77, 0
2, 205920, Note_on_c, 0, 74, 52
2, 206080, Note_on_c, 0, 74, 0
2, 206080, Note_on_c, 0, 77, 49
2, 206240, Note_on_c, 0, 77, 0
2, 206240, Note_on_c, 0, 80, 52
2, 206400, Note_on_c, 0, 80, 0
2, 206400, Note_on_c, 0, 75, 52
2, 206560, Note_on_c, 0, 75, 0
2, 206560, Note_on_c, 0, 78, 49
2, 206720, Note_on_c, 0, 78, 0
2, 206720, Note_on_c, 0, 80, 49
2, 206880, Note_on_c, 0, 80, 0
2, 206880, Note_on_c, 0, 75, 54
2, 207040, Note_on_c, 0, 75, 0
2, 207040, Note_on_c, 0, 78, 57
2, 207200, Note_on_c, 0, 78, 0
2, 207200, Note_on_c, 0, 81, 57
2, 207360, Note_on_c, 0, 81, 0
2, 207360, Note_on_c, 0, 72, 63
2, 207520, Note_on_c, 0, 72, 0
2, 207520, Note_on_c, 0, 78, 58
2, 207680, Note_on_c, 0, 78, 0
2, 207680, Note_on_c, 0, 82, 55
2, 207840, Note_on_c, 0, 82, 0
2, 207840, Note_on_c, 0, 72, 52
2, 208000, Note_on_c, 0, 72, 0
2, 208000, Note_on_c, 0, 77, 48
2, 208160, Note_on_c, 0, 77, 0
2, 208160, Note_on_c, 0, 80, 48
2, 208320, Note_on_c, 0, 80, 0
2, 208320, Note_on_c, 0, 72, 52
2, 208480, Note_on_c, 0, 72, 0
2, 208480, Note_on_c, 0, 75, 49
2, 208640, Note_on_c, 0, 75, 0
2, 208640, Note_on_c, 0, 78, 49
2, 208800, Note_on_c, 0, 78, 0
2, 208800, Note_on_c, 0, 72, 51
2, 208960, Note_on_c, 0, 72, 0
2, 208960, Note_on_c, 0, 75, 46
2, 209120, Note_on_c, 0, 75, 0
2, 209120, Note_on_c, 0, 77, 46
2, 209280, Note_on_c, 0, 77, 0
2, 209280, Note_on_c, 0, 70, 49
2, 209440, Note_on_c, 0, 70, 0
2, 209440, Note_on_c, 0, 73, 45
2, 209600, Note_on_c, 0, 73, 0
2, 209600, Note_on_c, 0, 77, 45
2, 209760, Note_on_c, 0, 77, 0
2, 209760, Note_on_c, 0, 68, 46
2, 209920, Note_on_c, 0, 68, 0
2, 209920, Note_on_c, 0, 72, 42
2, 210080, Note_on_c, 0, 72, 0
2, 210080, Note_on_c, 0, 77, 42
2, 210240, Note_on_c, 0, 77, 0
2, 210240, Note_on_c, 0, 68, 44
2, 210400, Note_on_c, 0, 68, 0
2, 210400, Note_on_c, 0, 70, 39
2, 210560, Note_on_c, 0, 70, 0
2, 210560, Note_on_c, 0, 77, 39
2, 210720, Note_on_c, 0, 77, 0
2, 210720, Note_on_c, 0, 66, 41
2, 210880, Note_on_c, 0, 66, 0
2, 210880, Note_on_c, 0, 70, 37
2, 211040, Note_on_c, 0, 70, 0
2, 211040, Note_on_c, 0, 75, 37
2, 211200, Note_on_c, 0, 75, 0
2, 211200, Note_on_c, 0, 65, 39
2, 211360, Note_on_c, 0, 65, 0
2, 211360, Note_on_c, 0, 70, 35
2, 211520, Note_on_c, 0, 70, 0
2, 211520, Note_on_c, 0, 73, 35
2, 211680, Note_on_c, 0, 73, 0
2, 211680, Note_on_c, 0, 63, 36
2, 211840, Note_on_c, 0, 63, 0
2, 211840, Note_on_c, 0, 68, 32
2, 212000, Note_on_c, 0, 68, 0
2, 212000, Note_on_c, 0, 72, 34
2, 212160, Note_on_c, 0, 72, 0
2, 212160, Note_on_c, 0, 65, 34
2, 212320, Note_on_c, 0, 65, 0
2, 212320, Note_on_c, 0, 68, 33
2, 212480, Note_on_c, 0, 68, 0
2, 212480, Note_on_c, 0, 73, 33
2, 212640, Note_on_c, 0, 73, 0
2, 212640, Note_on_c, 0, 66, 34
2, 212800, Note_on_c, 0, 66, 0
2, 212800, Note_on_c, 0, 68, 33
2, 212960, Note_on_c, 0, 68, 0
2, 212960, Note_on_c, 0, 75, 33
2, 213120, Note_on_c, 0, 75, 0
2, 213120, Note_on_c, 0, 65, 34
2, 213280, Note_on_c, 0, 65, 0
2, 213280, Note_on_c, 0, 68, 32
2, 213440, Note_on_c, 0, 68, 0
2, 213440, Note_on_c, 0, 73, 31
2, 213600, Note_on_c, 0, 73, 0
2, 213600, Note_on_c, 0, 68, 34
2, 213760, Note_on_c, 0, 68, 0
2, 213760, Note_on_c, 0, 65, 29
2, 213920, Note_on_c, 0, 65, 0
2, 213920, Note_on_c, 0, 61, 29
2, 214080, Note_on_c, 0, 61, 0
2, 214080, Note_on_c, 0, 65, 34
2, 214240, Note_on_c, 0, 65, 0
2, 214240, Note_on_c, 0, 61, 29
2, 214400, Note_on_c, 0, 61, 0
2, 214400, Note_on_c, 0, 56, 29
2, 214560, Note_on_c, 0, 56, 0
2, 214560, Note_on_c, 0, 52, 74
2, 214560, Control_c, 0, 91, 127
2, 214720, Note_on_c, 0, 52, 0
2, 214720, Note_on_c, 0, 56, 68
2, 214880, Note_on_c, 0, 56, 0
2, 214880, Note_on_c, 0, 61, 68
2, 215040, Note_on_c, 0, 61, 0
2, 215040, Note_on_c, 0, 64, 84
2, 215200, Note_on_c, 0, 64, 0
2, 215200, Note_on_c, 0, 61, 69
2, 215360, Note_on_c, 0, 61, 0
2, 215360, Note_on_c, 0, 56, 69
2, 215520, Note_on_c, 0, 56, 0
2, 215520, Note_on_c, 0, 52, 74
2, 215680, Note_on_c, 0, 52, 0
2, 215680, Note_on_c, 0, 56, 70
2, 215840, Note_on_c, 0, 56, 0
2, 215840, Note_on_c, 0, 61, 70
2, 216000, Note_on_c, 0, 61, 0
2, 216000, Note_on_c, 0, 56, 74
2, 216160, Note_on_c, 0, 56, 0
2, 216160, Note_on_c, 0, 61, 68
2, 216320, Note_on_c, 0, 61, 0
2, 216320, Note_on_c, 0, 64, 68
2, 216480, Note_on_c, 0, 64, 0
2, 216480, Note_on_c, 0, 68, 85
2, 216640, Note_on_c, 0, 68, 0
2, 216640, Note_on_c, 0, 64, 68
2, 216800, Note_on_c, 0, 64, 0
2, 216800, Note_on_c, 0, 61, 68
2, 216960, Note_on_c, 0, 61, 0
2, 216960, Note_on_c, 0, 56, 74
2, 217120, Note_on_c, 0, 56, 0
2, 217120, Note_on_c, 0, 61, 68
2, 217280, Note_on_c, 0, 61, 0
2, 217280, Note_on_c, 0, 64, 68
2, 217440, Note_on_c, 0, 64, 0
2, 217440, Note_on_c, 0, 62, 74
2, 217600, Note_on_c, 0, 62, 0
2, 217600, Note_on_c, 0, 65, 69
2, 217760, Note_on_c, 0, 65, 0
2, 217760, Note_on_c, 0, 68, 69
2, 217920, Note_on_c, 0, 68, 0
2, 217920, Note_on_c, 0, 63, 74
2, 218080, Note_on_c, 0, 63, 0
2, 218080, Note_on_c, 0, 66, 67
2, 218240, Note_on_c, 0, 66, 0
2, 218240, Note_on_c, 0, 68, 69
2, 218400, Note_on_c, 0, 68, 0
2, 218400, Note_on_c, 0, 62, 76
2, 218560, Note_on_c, 0, 62, 0
2, 218560, Note_on_c, 0, 65, 78
2, 218720, Note_on_c, 0, 65, 0
2, 218720, Note_on_c, 0, 68, 81
2, 218880, Note_on_c, 0, 68, 0
2, 218880, Note_on_c, 0, 63, 90
2, 219040, Note_on_c, 0, 63, 0
2, 219040, Note_on_c, 0, 66, 82
2, 219200, Note_on_c, 0, 66, 0
2, 219200, Note_on_c, 0, 69, 78
2, 219360, Note_on_c, 0, 69, 0
2, 219360, Note_on_c, 0, 60, 74
2, 219520, Note_on_c, 0, 60, 0
2, 219520, Note_on_c, 0, 64, 70
2, 219680, Note_on_c, 0, 64, 0
2, 219680, Note_on_c, 0, 68, 70
2, 219840, Note_on_c, 0, 68, 0
2, 219840, Note_on_c, 0, 60, 74
2, 220000, Note_on_c, 0, 60, 0
2, 220000, Note_on_c, 0, 63, 69
2, 220160, Note_on_c, 0, 63, 0
2, 220160, Note_on_c, 0, 66, 69
2, 220320, Note_on_c, 0, 66, 0
2, 220320, Note_on_c, 0, 64, 74
2, 220480, Note_on_c, 0, 64, 0
2, 220480, Note_on_c, 0, 68, 68
2, 220640, Note_on_c, 0, 68, 0
2, 220640, Note_on_c, 0, 73, 69
2, 220800, Note_on_c, 0, 73, 0
2, 220800, Note_on_c, 0, 76, 84
2, 220960, Note_on_c, 0, 76, 0
2, 220960, Note_on_c, 0, 73, 69
2, 221120, Note_on_c, 0, 73, 0
2, 221120, Note_on_c, 0, 68, 69
2, 221280, Note_on_c, 0, 68, 0
2, 221280, Note_on_c, 0, 64, 74
2, 221440, Note_on_c, 0, 64, 0
2, 221440, Note_on_c, 0, 68, 69
2, 221600, Note_on_c, 0, 68, 0
2, 221600, Note_on_c, 0, 73, 69
2, 221760, Note_on_c, 0, 73, 0
2, 221760, Note_on_c, 0, 68, 74
2, 221920, Note_on_c, 0, 68, 0
2, 221920, Note_on_c, 0, 73, 68
2, 222080, Note_on_c, 0, 73, 0
2, 222080, Note_on_c, 0, 76, 68
2, 222240, Note_on_c, 0, 76, 0
2, 222240, Note_on_c, 0, 80, 83
2, 222400, Note_on_c, 0, 80, 0
2, 222400, Note_on_c, 0, 76, 70
2, 222560, Note_on_c, 0, 76, 0
2, 222560, Note_on_c, 0, 73, 70
2, 222720, Note_on_c, 0, 73, 0
2, 222720, Note_on_c, 0, 68, 74
2, 222880, Note_on_c, 0, 68, 0
2, 222880, Note_on_c, 0, 73, 69
2, 223040, Note_on_c, 0, 73, 0
2, 223040, Note_on_c, 0, 76, 69
2, 223200, Note_on_c, 0, 76, 0
2, 223200, Note_on_c, 0, 75, 74
2, 223360, Note_on_c, 0, 75, 0
2, 223360, Note_on_c, 0, 78, 69
2, 223520, Note_on_c, 0, 78, 0
2, 223520, Note_on_c, 0, 80, 69
2, 223680, Note_on_c, 0, 80, 0
2, 223680, Note_on_c, 0, 75, 74
2, 223840, Note_on_c, 0, 75, 0
2, 223840, Note_on_c, 0, 78, 70
2, 224000, Note_on_c, 0, 78, 0
2, 224000, Note_on_c, 0, 82, 70
2, 224160, Note_on_c, 0, 82, 0
2, 224160, Note_on_c, 0, 75, 76
2, 224320, Note_on_c, 0, 75, 0
2, 224320, Note_on_c, 0, 78, 81
2, 224480, Note_on_c, 0, 78, 0
2, 224480, Note_on_c, 0, 84, 87
2, 224640, Note_on_c, 0, 84, 0
2, 224640, Note_on_c, 0, 73, 87
2, 224800, Note_on_c, 0, 73, 0
2, 224800, Note_on_c, 0, 76, 82
2, 224960, Note_on_c, 0, 76, 0
2, 224960, Note_on_c, 0, 85, 82
2, 225120, Note_on_c, 0, 85, 0
2, 225120, Note_on_c, 0, 75, 87
2, 225280, Note_on_c, 0, 75, 0
2, 225280, Note_on_c, 0, 78, 83
2, 225440, Note_on_c, 0, 78, 0
2, 225440, Note_on_c, 0, 87, 83
2, 225600, Note_on_c, 0, 87, 0
2, 225600, Note_on_c, 0, 76, 87
2, 225760, Note_on_c, 0, 76, 0
2, 225760, Note_on_c, 0, 80, 82
2, 225920, Note_on_c, 0, 80, 0
2, 225920, Note_on_c, 0, 88, 82
2, 226080, Note_on_c, 0, 88, 0
2, 226080, Note_on_c, 0, 78, 87
2, 226240, Note_on_c, 0, 78, 0
2, 226240, Note_on_c, 0, 81, 84
2, 226400, Note_on_c, 0, 81, 0
2, 226400, Note_on_c, 0, 90, 85
2, 226560, Note_on_c, 0, 90, 0
2, 226560, Note_on_c, 0, 80, 92
2, 226720, Note_on_c, 0, 80, 0
2, 226720, Note_on_c, 0, 83, 90
2, 226880, Note_on_c, 0, 83, 0
2, 226880, Note_on_c, 0, 92, 90
2, 227040, Note_on_c, 0, 92, 0
2, 227040, Note_on_c, 0, 81, 98
2, 227200, Note_on_c, 0, 81, 0
2, 227200, Note_on_c, 0, 85, 90
2, 227360, Note_on_c, 0, 85, 0
2, 227360, Note_on_c, 0, 93, 94
2, 227520, Note_on_c, 0, 93, 0
2, 227520, Note_on_c, 0, 80, 103
2, 227680, Note_on_c, 0, 80, 0
2, 227680, Note_on_c, 0, 88, 97
2, 227840, Note_on_c, 0, 88, 0
2, 227840, Note_on_c, 0, 92, 97
2, 228000, Note_on_c, 0, 92, 0
2, 228000, Note_on_c, 0, 81, 105
2, 228160, Note_on_c, 0, 81, 0
2, 228160, Note_on_c, 0, 90, 96
2, 228320, Note_on_c, 0, 90, 0
2, 228320, Note_on_c, 0, 93, 96
2, 228480, Note_on_c, 0, 93, 0
2, 228480, Note_on_c, 0, 83, 109
2, 228640, Note_on_c, 0, 83, 0
2, 228640, Note_on_c, 0, 92, 101
2, 228800, Note_on_c, 0, 92, 0
2, 228800, Note_on_c, 0, 95, 101
2, 228960, Note_on_c, 0, 95, 0
2, 228960, Note_on_c, 0, 85, 114
2, 229120, Note_on_c, 0, 85, 0
2, 229120, Note_on_c, 0, 88, 103
2, 229280, Note_on_c, 0, 88, 0
2, 229280, Note_on_c, 0, 93, 102
2, 229440, Note_on_c, 0, 93, 0
2, 229440, Note_on_c, 0, 97, 114
2, 229600, Note_on_c, 0, 97, 0
2, 229600, Note_on_c, 0, 93, 99
2, 229760, Note_on_c, 0, 93, 0
2, 229760, Note_on_c, 0, 88, 99
2, 229920, Note_on_c, 0, 88, 0
2, 229920, Note_on_c, 0, 93, 106
2, 230080, Note_on_c, 0, 93, 0
2, 230080, Note_on_c, 0, 88, 96
2, 230240, Note_on_c, 0, 88, 0
2, 230240, Note_on_c, 0, 85, 101
2, 230400, Note_on_c, 0, 85, 0
2, 230400, Note_on_c, 0, 81, 105
2, 230560, Note_on_c, 0, 81, 0
2, 230560, Note_on_c, 0, 85, 97
2, 230720, Note_on_c, 0, 85, 0
2, 230720, Note_on_c, 0, 88, 100
2, 230880, Note_on_c, 0, 88, 0
2, 230880, Note_on_c, 0, 93, 113
2, 231040, Note_on_c, 0, 93, 0
2, 231040, Note_on_c, 0, 88, 96
2, 231200, Note_on_c, 0, 88, 0
2, 231200, Note_on_c, 0, 85, 96
2, 231360, Note_on_c, 0, 85, 0
2, 231360, Note_on_c, 0, 88, 105
2, 231520, Note_on_c, 0, 88, 0
2, 231520, Note_on_c, 0, 85, 100
2, 231680, Note_on_c, 0, 85, 0
2, 231680, Note_on_c, 0, 81, 95
2, 231840, Note_on_c, 0, 81, 0
2, 231840, Note_on_c, 0, 73, 104
2, 232000, Note_on_c, 0, 73, 0
2, 232000, Note_on_c, 0, 76, 100
2, 232160, Note_on_c, 0, 76, 0
2, 232160, Note_on_c, 0, 81, 95
2, 232320, Note_on_c, 0, 81, 0
2, 232320, Note_on_c, 0, 85, 114
2, 232480, Note_on_c, 0, 85, 0
2, 232480, Note_on_c, 0, 81, 95
2, 232640, Note_on_c, 0, 81, 0
2, 232640, Note_on_c, 0, 76, 98
2, 232800, Note_on_c, 0, 76, 0
2, 232800, Note_on_c, 0, 81, 103
2, 232960, Note_on_c, 0, 81, 0
2, 232960, Note_on_c, 0, 76, 95
2, 233120, Note_on_c, 0, 76, 0
2, 233120, Note_on_c, 0, 73, 95
2, 233280, Note_on_c, 0, 73, 0
2, 233280, Note_on_c, 0, 69, 103
2, 233440, Note_on_c, 0, 69, 0
2, 233440, Note_on_c, 0, 73, 95
2, 233600, Note_on_c, 0, 73, 0
2, 233600, Note_on_c, 0, 76, 95
2, 233760, Note_on_c, 0, 76, 0
2, 233760, Note_on_c, 0, 81, 114
2, 233920, Note_on_c, 0, 81, 0
2, 233920, Note_on_c, 0, 76, 98
2, 234080, Note_on_c, 0, 76, 0
2, 234080, Note_on_c, 0, 73, 98
2, 234240, Note_on_c, 0, 73, 0
2, 234240, Note_on_c, 0, 76, 102
2, 234400, Note_on_c, 0, 76, 0
2, 234400, Note_on_c, 0, 73, 98
2, 234560, Note_on_c, 0, 73, 0
2, 234560, Note_on_c, 0, 69, 98
2, 234720, Note_on_c, 0, 69, 0
2, 234720, Note_on_c, 0, 76, 102
2, 234880, Note_on_c, 0, 76, 0
2, 234880, Note_on_c, 0, 73, 97
2, 235040, Note_on_c, 0, 73, 0
2, 235040, Note_on_c, 0, 69, 97
2, 235200, Note_on_c, 0, 69, 0
2, 235200, Note_on_c, 0, 73, 113
2, 235360, Note_on_c, 0, 73, 0
2, 235360, Note_on_c, 0, 69, 97
2, 235520, Note_on_c, 0, 69, 0
2, 235520, Note_on_c, 0, 64, 97
2, 235680, Note_on_c, 0, 64, 0
2, 235680, Note_on_c, 0, 69, 102
2, 235840, Note_on_c, 0, 69, 0
2, 235840, Note_on_c, 0, 64, 97
2, 236000, Note_on_c, 0, 64, 0
2, 236000, Note_on_c, 0, 61, 97
2, 236160, Note_on_c, 0, 61, 0
2, 236160, Note_on_c, 0, 69, 99
2, 236320, Note_on_c, 0, 69, 0
2, 236320, Note_on_c, 0, 64, 93
2, 236480, Note_on_c, 0, 64, 0
2, 236480, Note_on_c, 0, 61, 87
2, 236640, Note_on_c, 0, 61, 0
2, 236640, Note_on_c, 0, 64, 81
2, 236800, Note_on_c, 0, 64, 0
2, 236800, Note_on_c, 0, 61, 78
2, 236960, Note_on_c, 0, 61, 0
2, 236960, Note_on_c, 0, 57, 72
2, 237120, Note_on_c, 0, 57, 0
2, 237120, Note_on_c, 0, 61, 67
2, 237280, Note_on_c, 0, 61, 0
2, 237280, Note_on_c, 0, 57, 61
2, 237440, Note_on_c, 0, 57, 0
2, 237440, Note_on_c, 0, 52, 54
2, 237600, Note_on_c, 0, 52, 0
2, 237600, Note_on_c, 0, 49, 52
2, 237760, Note_on_c, 0, 49, 0
2, 237760, Note_on_c, 0, 52, 50
2, 237920, Note_on_c, 0, 52, 0
2, 237920, Note_on_c, 0, 57, 50
2, 238080, Note_on_c, 0, 57, 0
2, 238080, Note_on_c, 0, 61, 51
2, 238240, Note_on_c, 0, 61, 0
2, 238240, Note_on_c, 0, 57, 47
2, 238400, Note_on_c, 0, 57, 0
2, 238400, Note_on_c, 0, 52, 48
2, 238560, Note_on_c, 0, 52, 0
2, 238560, Note_on_c, 0, 49, 51
2, 238720, Note_on_c, 0, 49, 0
2, 238720, Note_on_c, 0, 52, 47
2, 238880, Note_on_c, 0, 52, 0
2, 238880, Note_on_c, 0, 57, 47
2, 239040, Note_on_c, 0, 57, 0
2, 239040, Note_on_c, 0, 49, 51
2, 239200, Note_on_c, 0, 49, 0
2, 239200, Note_on_c, 0, 54, 49
2, 239360, Note_on_c, 0, 54, 0
2, 239360, Note_on_c, 0, 57, 49
2, 239520, Note_on_c, 0, 57, 0
2, 239520, Note_on_c, 0, 61, 52
2, 239680, Note_on_c, 0, 61, 0
2, 239680, Note_on_c, 0, 57, 49
2, 239840, Note_on_c, 0, 57, 0
2, 239840, Note_on_c, 0, 54, 49
2, 240000, Note_on_c, 0, 54, 0
2, 240000, Note_on_c, 0, 49, 52
2, 240160, Note_on_c, 0, 49, 0
2, 240160, Note_on_c, 0, 54, 48
2, 240320, Note_on_c, 0, 54, 0
2, 240320, Note_on_c, 0, 57, 48
2, 240480, Note_on_c, 0, 57, 0
2, 240480, Note_on_c, 0, 49, 51
2, 240640, Note_on_c, 0, 49, 0
2, 240640, Note_on_c, 0, 53, 48
2, 240800, Note_on_c, 0, 53, 0
2, 240800, Note_on_c, 0, 56, 48
2, 240960, Note_on_c, 0, 56, 0
2, 240960, Note_on_c, 0, 61, 50
2, 241120, Note_on_c, 0, 61, 0
2, 241120, Note_on_c, 0, 56, 45
2, 241280, Note_on_c, 0, 56, 0
2, 241280, Note_on_c, 0, 53, 45
2, 241440, Note_on_c, 0, 53, 0
2, 241440, Note_on_c, 0, 49, 48
2, 241600, Note_on_c, 0, 49, 0
2, 241600, Note_on_c, 0, 53, 45
2, 241760, Note_on_c, 0, 53, 0
2, 241760, Note_on_c, 0, 56, 45
2, 241920, Note_on_c, 0, 56, 0
2, 241920, Note_on_c, 0, 51, 46
2, 242080, Note_on_c, 0, 51, 0
2, 242080, Note_on_c, 0, 54, 42
2, 242240, Note_on_c, 0, 54, 0
2, 242240, Note_on_c, 0, 56, 42
2, 242400, Note_on_c, 0, 56, 0
2, 242400, Note_on_c, 0, 60, 45
2, 242560, Note_on_c, 0, 60, 0
2, 242560, Note_on_c, 0, 56, 41
2, 242720, Note_on_c, 0, 56, 0
2, 242720, Note_on_c, 0, 54, 41
2, 242880, Note_on_c, 0, 54, 0
2, 242880, Note_on_c, 0, 51, 44
2, 243040, Note_on_c, 0, 51, 0
2, 243040, Note_on_c, 0, 54, 40
2, 243200, Note_on_c, 0, 54, 0
2, 243200, Note_on_c, 0, 56, 41
2, 243360, Note_on_c, 0, 56, 0
2, 243360, Note_on_c, 0, 53, 52
2, 243360, Control_c, 0, 91, 127
2, 243520, Note_on_c, 0, 53, 0
2, 243520, Note_on_c, 0, 56, 47
2, 243680, Note_on_c, 0, 56, 0
2, 243680, Note_on_c, 0, 61, 47
2, 243840, Note_on_c, 0, 61, 0
2, 243840, Note_on_c, 0, 65, 59
2, 244000, Note_on_c, 0, 65, 0
2, 244000, Note_on_c, 0, 61, 48
2, 244160, Note_on_c, 0, 61, 0
2, 244160, Note_on_c, 0, 56, 48
2, 244320, Note_on_c, 0, 56, 0
2, 244320, Note_on_c, 0, 53, 52
2, 244480, Note_on_c, 0, 53, 0
2, 244480, Note_on_c, 0, 56, 48
2, 244640, Note_on_c, 0, 56, 0
2, 244640, Note_on_c, 0, 61, 48
2, 244800, Note_on_c, 0, 61, 0
2, 244800, Note_on_c, 0, 56, 52
2, 244960, Note_on_c, 0, 56, 0
2, 244960, Note_on_c, 0, 61, 48
2, 245120, Note_on_c, 0, 61, 0
2, 245120, Note_on_c, 0, 65, 48
2, 245280, Note_on_c, 0, 65, 0
2, 245280, Note_on_c, 0, 68, 61
2, 245440, Note_on_c, 0, 68, 0
2, 245440, Note_on_c, 0, 65, 47
2, 245600, Note_on_c, 0, 65, 0
2, 245600, Note_on_c, 0, 61, 47
2, 245760, Note_on_c, 0, 61, 0
2, 245760, Note_on_c, 0, 56, 52
2, 245920, Note_on_c, 0, 56, 0
2, 245920, Note_on_c, 0, 61, 47
2, 246080, Note_on_c, 0, 61, 0
2, 246080, Note_on_c, 0, 65, 47
2, 246240, Note_on_c, 0, 65, 0
2, 246240, Note_on_c, 0, 62, 52
2, 246400, Note_on_c, 0, 62, 0
2, 246400, Note_on_c, 0, 65, 48
2, 246560, Note_on_c, 0, 65, 0
2, 246560, Note_on_c, 0, 68, 48
2, 246720, Note_on_c, 0, 68, 0
2, 246720, Note_on_c, 0, 63, 52
2, 246880, Note_on_c, 0, 63, 0
2, 246880, Note_on_c, 0, 66, 48
2, 247040, Note_on_c, 0, 66, 0
2, 247040, Note_on_c, 0, 68, 48
2, 247200, Note_on_c, 0, 68, 0
2, 247200, Note_on_c, 0, 63, 54
2, 247360, Note_on_c, 0, 63, 0
2, 247360, Note_on_c, 0, 66, 57
2, 247520, Note_on_c, 0, 66, 0
2, 247520, Note_on_c, 0, 69, 56
2, 247680, Note_on_c, 0, 69, 0
2, 247680, Note_on_c, 0, 60, 63
2, 247840, Note_on_c, 0, 60, 0
2, 247840, Note_on_c, 0, 66, 58
2, 248000, Note_on_c, 0, 66, 0
2, 248000, Note_on_c, 0, 70, 55
2, 248160, Note_on_c, 0, 70, 0
2, 248160, Note_on_c, 0, 60, 52
2, 248320, Note_on_c, 0, 60, 0
2, 248320, Note_on_c, 0, 65, 47
2, 248480, Note_on_c, 0, 65, 0
2, 248480, Note_on_c, 0, 68, 47
2, 248640, Note_on_c, 0, 68, 0
2, 248640, Note_on_c, 0, 60, 52
2, 248800, Note_on_c, 0, 60, 0
2, 248800, Note_on_c, 0, 63, 49
2, 248960, Note_on_c, 0, 63, 0
2, 248960, Note_on_c, 0, 66, 49
2, 249120, Note_on_c, 0, 66, 0
2, 249120, Note_on_c, 0, 65, 52
2, 249280, Note_on_c, 0, 65, 0
2, 249280, Note_on_c, 0, 68, 49
2, 249440, Note_on_c, 0, 68, 0
2, 249440, Note_on_c, 0, 73, 49
2, 249600, Note_on_c, 0, 73, 0
2, 249600, Note_on_c, 0, 77, 59
2, 249760, Note_on_c, 0, 77, 0
2, 249760, Note_on_c, 0, 73, 49
2, 249920, Note_on_c, 0, 73, 0
2, 249920, Note_on_c, 0, 68, 52
2, 250080, Note_on_c, 0, 68, 0
2, 250080, Note_on_c, 0, 65, 52
2, 250240, Note_on_c, 0, 65, 0
2, 250240, Note_on_c, 0, 68, 49
2, 250400, Note_on_c, 0, 68, 0
2, 250400, Note_on_c, 0, 73, 49
2, 250560, Note_on_c, 0, 73, 0
2, 250560, Note_on_c, 0, 68, 52
2, 250720, Note_on_c, 0, 68, 0
2, 250720, Note_on_c, 0, 73, 49
2, 250880, Note_on_c, 0, 73, 0
2, 250880, Note_on_c, 0, 77, 49
2, 251040, Note_on_c, 0, 77, 0
2, 251040, Note_on_c, 0, 80, 61
2, 251200, Note_on_c, 0, 80, 0
2, 251200, Note_on_c, 0, 77, 50
2, 251360, Note_on_c, 0, 77, 0
2, 251360, Note_on_c, 0, 73, 50
2, 251520, Note_on_c, 0, 73, 0
2, 251520, Note_on_c, 0, 68, 52
2, 251680, Note_on_c, 0, 68, 0
2, 251680, Note_on_c, 0, 73, 48
2, 251840, Note_on_c, 0, 73, 0
2, 251840, Note_on_c, 0, 77, 52
2, 252000, Note_on_c, 0, 77, 0
2, 252000, Note_on_c, 0, 74, 52
2, 252160, Note_on_c, 0, 74, 0
2, 252160, Note_on_c, 0, 77, 49
2, 252320, Note_on_c, 0, 77, 0
2, 252320, Note_on_c, 0, 80, 52
2, 252480, Note_on_c, 0, 80, 0
2, 252480, Note_on_c, 0, 75, 52
2, 252640, Note_on_c, 0, 75, 0
2, 252640, Note_on_c, 0, 78, 49
2, 252800, Note_on_c, 0, 78, 0
2, 252800, Note_on_c, 0, 80, 49
2, 252960, Note_on_c, 0, 80, 0
2, 252960, Note_on_c, 0, 75, 54
2, 253120, Note_on_c, 0, 75, 0
2, 253120, Note_on_c, 0, 78, 57
2, 253280, Note_on_c, 0, 78, 0
2, 253280, Note_on_c, 0, 81, 57
2, 253440, Note_on_c, 0, 81, 0
2, 253440, Note_on_c, 0, 72, 63
2, 253600, Note_on_c, 0, 72, 0
2, 253600, Note_on_c, 0, 78, 58
2, 253760, Note_on_c, 0, 78, 0
2, 253760, Note_on_c, 0, 82, 55
2, 253920, Note_on_c, 0, 82, 0
2, 253920, Note_on_c, 0, 72, 52
2, 254080, Note_on_c, 0, 72, 0
2, 254080, Note_on_c, 0, 77, 48
2, 254240, Note_on_c, 0, 77, 0
2, 254240, Note_on_c, 0, 80, 48
2, 254400, Note_on_c, 0, 80, 0
2, 254400, Note_on_c, 0, 72, 52
2, 254560, Note_on_c, 0, 72, 0
2, 254560, Note_on_c, 0, 75, 49
2, 254720, Note_on_c, 0, 75, 0
2, 254720, Note_on_c, 0, 78, 49
2, 254880, Note_on_c, 0, 78, 0
2, 254880, Note_on_c, 0, 72, 51
2, 255040, Note_on_c, 0, 72, 0
2, 255040, Note_on_c, 0, 75, 46
2, 255200, Note_on_c, 0, 75, 0
2, 255200, Note_on_c, 0, 77, 46
2, 255360, Note_on_c, 0, 77, 0
2, 255360, Note_on_c, 0, 70, 49
2, 255520, Note_on_c, 0, 70, 0
2, 255520, Note_on_c, 0, 73, 45
2, 255680, Note_on_c, 0, 73, 0
2, 255680, Note_on_c, 0, 77, 45
2, 255840, Note_on_c, 0, 77, 0
2, 255840, Note_on_c, 0, 68, 46
2, 256000, Note_on_c, 0, 68, 0
2, 256000, Note_on_c, 0, 72, 42
2, 256160, Note_on_c, 0, 72, 0
2, 256160, Note_on_c, 0, 77, 42
2, 256320, Note_on_c, 0, 77, 0
2, 256320, Note_on_c, 0, 68, 44
2, 256480, Note_on_c, 0, 68, 0
2, 256480, Note_on_c, 0, 70, 39
2, 256640, Note_on_c, 0, 70, 0
2, 256640, Note_on_c, 0, 77, 39
2, 256800, Note_on_c, 0, 77, 0
2, 256800, Note_on_c, 0, 66, 41
2, 256960, Note_on_c, 0, 66, 0
2, 256960, Note_on_c, 0, 70, 37
2, 257120, Note_on_c, 0, 70, 0
2, 257120, Note_on_c, 0, 75, 37
2, 257280, Note_on_c, 0, 75, 0
2, 257280, Note_on_c, 0, 65, 39
2, 257440, Note_on_c, 0, 65, 0
2, 257440, Note_on_c, 0, 70, 35
2, 257600, Note_on_c, 0, 70, 0
2, 257600, Note_on_c, 0, 73, 35
2, 257760, Note_on_c, 0, 73, 0
2, 257760, Note_on_c, 0, 63, 36
2, 257920, Note_on_c, 0, 63, 0
2, 257920, Note_on_c, 0, 68, 32
2, 258080, Note_on_c, 0, 68, 0
2, 258080, Note_on_c, 0, 72, 34
2, 258240, Note_on_c, 0, 72, 0
2, 258240, Note_on_c, 0, 65, 34
2, 258400, Note_on_c, 0, 65, 0
2, 258400, Note_on_c, 0, 68, 33
2, 258560, Note_on_c, 0, 68, 0
2, 258560, Note_on_c, 0, 73, 33
2, 258720, Note_on_c, 0, 73, 0
2, 258720, Note_on_c, 0, 66, 34
2, 258880, Note_on_c, 0, 66, 0
2, 258880, Note_on_c, 0, 68, 33
2, 259040, Note_on_c, 0, 68, 0
2, 259040, Note_on_c, 0, 75, 33
2, 259200, Note_on_c, 0, 75, 0
2, 259200, Note_on_c, 0, 65, 34
2, 259360, Note_on_c, 0, 65, 0
2, 259360, Note_on_c, 0, 68, 32
2, 259520, Note_on_c, 0, 68, 0
2, 259520, Note_on_c, 0, 73, 31
2, 259680, Note_on_c, 0, 73, 0
2, 259680, Note_on_c, 0, 68, 34
2, 259840, Note_on_c, 0, 68, 0
2, 259840, Note_on_c, 0, 65, 29
2, 260000, Note_on_c, 0, 65, 0
2, 260000, Note_on_c, 0, 61, 29
2, 260160, Note_on_c, 0, 61, 0
2, 260160, Note_on_c, 0, 65, 34
2, 260320, Note_on_c, 0, 65, 0
2, 260320, Note_on_c, 0, 61, 29
2, 260480, Note_on_c, 0, 61, 0
2, 260480, Note_on_c, 0, 56, 29
2, 260640, Note_on_c, 0, 56, 0
2, 260640, Note_on_c, 0, 53, 36
2, 260800, Note_on_c, 0, 53, 0
2, 260800, Note_on_c, 0, 56, 32
2, 260960, Note_on_c, 0, 56, 0
2, 260960, Note_on_c, 0, 61, 32
2, 261120, Note_on_c, 0, 61, 0
2, 261120, Note_on_c, 0, 65, 36
2, 261280, Note_on_c, 0, 65, 0
2, 261280, Note_on_c, 0, 61, 29
2, 261440, Note_on_c, 0, 61, 0
2, 261440, Note_on_c, 0, 56, 31
2, 261600, Note_on_c, 0, 56, 0
2, 261600, Note_on_c, 0, 53, 35
2, 261760, Note_on_c, 0, 53, 0
2, 261760, Note_on_c, 0, 56, 31
2, 261920, Note_on_c, 0, 56, 0
2, 261920, Note_on_c, 0, 61, 31
2, 262080, Note_on_c, 0, 61, 0
2, 262080, Note_on_c, 0, 53, 34
2, 262240, Note_on_c, 0, 53, 0
2, 262240, Note_on_c, 0, 56, 30
2, 262400, Note_on_c, 0, 56, 0
2, 262400, Note_on_c, 0, 61, 30
2, 262560, Note_on_c, 0, 61, 0
2, 262560, Note_on_c, 0, 65, 34
2, 262720, Note_on_c, 0, 65, 0
2, 262720, Note_on_c, 0, 61, 30
2, 262880, Note_on_c, 0, 61, 0
2, 262880, Note_on_c, 0, 56, 30
2, 263040, Note_on_c, 0, 56, 0
2, 263040, Note_on_c, 0, 53, 34
2, 263200, Note_on_c, 0, 53, 0
2, 263200, Note_on_c, 0, 56, 30
2, 263360, Note_on_c, 0, 56, 0
2, 263360, Note_on_c, 0, 61, 30
2, 263520, Note_on_c, 0, 61, 0
2, 263520, Note_on_c, 0, 52, 33
2, 263680, Note_on_c, 0, 52, 0
2, 263680, Note_on_c, 0, 56, 28
2, 263840, Note_on_c, 0, 56, 0
2, 263840, Note_on_c, 0, 61, 28
2, 264000, Note_on_c, 0, 61, 0
2, 264000, Note_on_c, 0, 64, 32
2, 264160, Note_on_c, 0, 64, 0
2, 264160, Note_on_c, 0, 61, 28
2, 264320, Note_on_c, 0, 61, 0
2, 264320, Note_on_c, 0, 56, 28
2, 264480, Note_on_c, 0, 56, 0
2, 264480, Note_on_c, 0, 52, 32
2, 264640, Note_on_c, 0, 52, 0
2, 264640, Note_on_c, 0, 56, 27
2, 264800, Note_on_c, 0, 56, 0
2, 264800, Note_on_c, 0, 61, 28
2, 264960, Note_on_c, 0, 61, 0
2, 264960, Note_on_c, 0, 52, 31
2, 265120, Note_on_c, 0, 52, 0
2, 265120, Note_on_c, 0, 58, 27
2, 265280, Note_on_c, 0, 58, 0
2, 265280, Note_on_c, 0, 61, 27
2, 265440, Note_on_c, 0, 61, 0
2, 265440, Note_on_c, 0, 64, 30
2, 265600, Note_on_c, 0, 64, 0
2, 265600, Note_on_c, 0, 61, 27
2, 265760, Note_on_c, 0, 61, 0
2, 265760, Note_on_c, 0, 58, 27
2, 265920, Note_on_c, 0, 58, 0
2, 265920, Note_on_c, 0, 52, 29
2, 266080, Note_on_c, 0, 52, 0
2, 266080, Note_on_c, 0, 58, 27
2, 266240, Note_on_c, 0, 58, 0
2, 266240, Note_on_c, 0, 61, 27
2, 266400, Note_on_c, 0, 61, 0
2, 266400, Note_on_c, 0, 51, 29
2, 266560, Note_on_c, 0, 51, 0
2, 266560, Note_on_c, 0, 58, 27
2, 266720, Note_on_c, 0, 58, 0
2, 266720, Note_on_c, 0, 61, 27
2, 266880, Note_on_c, 0, 61, 0
2, 266880, Note_on_c, 0, 63, 28
2, 267040, Note_on_c, 0, 63, 0
2, 267040, Note_on_c, 0, 61, 27
2, 267200, Note_on_c, 0, 61, 0
2, 267200, Note_on_c, 0, 58, 27
2, 267360, Note_on_c, 0, 58, 0
2, 267360, Note_on_c, 0, 51, 28
2, 267520, Note_on_c, 0, 51, 0
2, 267520, Note_on_c, 0, 58, 23
2, 267680, Note_on_c, 0, 58, 0
2, 267680, Note_on_c, 0, 61, 23
2, 267840, Note_on_c, 0, 61, 0
2, 267840, Note_on_c, 0, 51, 28
2, 268000, Note_on_c, 0, 51, 0
2, 268000, Note_on_c, 0, 58, 24
2, 268160, Note_on_c, 0, 58, 0
2, 268160, Note_on_c, 0, 61, 24
2, 268320, Note_on_c, 0, 61, 0
2, 268320, Note_on_c, 0, 63, 27
2, 268480, Note_on_c, 0, 63, 0
2, 268480, Note_on_c, 0, 61, 25
2, 268640, Note_on_c, 0, 61, 0
2, 268640, Note_on_c, 0, 58, 25
2, 268800, Note_on_c, 0, 58, 0
2, 268800, Note_on_c, 0, 51, 26
2, 268960, Note_on_c, 0, 51, 0
2, 268960, Note_on_c, 0, 58, 26
2, 269120, Note_on_c, 0, 58, 0
2, 269120, Note_on_c, 0, 61, 26
2, 269280, Note_on_c, 0, 61, 0
2, 269280, Note_on_c, 0, 63, 38
2, 269755, Note_on_c, 0, 63, 0
2, 269760, Note_on_c, 0, 63, 39
2, 270235, Note_on_c, 0, 63, 0
2, 270240, Note_on_c, 0, 63, 39
2, 270715, Note_on_c, 0, 63, 0
2, 270720, Note_on_c, 0, 63, 40
2, 270720, Control_c, 0, 91, 126
2, 271195, Note_on_c, 0, 63, 0
2, 271200, Note_on_c, 0, 63, 40
2, 271675, Note_on_c, 0, 63, 0
2, 271680, Note_on_c, 0, 63, 46
2, 272155, Note_on_c, 0, 63, 0
2, 272160, Note_on_c, 0, 68, 46
2, 272160, Note_on_c, 0, 63, 34
2, 272160, Note_on_c, 0, 60, 34
2, 272635, Note_on_c, 0, 60, 0
2, 272635, Note_on_c, 0, 63, 0
2, 272635, Note_on_c, 0, 68, 0
2, 272640, Note_on_c, 0, 63, 34
2, 272640, Note_on_c, 0, 68, 46
2, 272640, Note_on_c, 0, 60, 34
2, 273360, Note_on_c, 0, 68, 0
2, 273360, Note_on_c, 0, 70, 39
2, 273600, Note_on_c, 0, 70, 0
2, 273600, Note_on_c, 0, 60, 0
2, 273600, Note_on_c, 0, 63, 0
2, 273600, Note_on_c, 0, 61, 34
2, 273600, Note_on_c, 0, 68, 46
2, 273600, Note_on_c, 0, 63, 34
2, 274075, Note_on_c, 0, 63, 0
2, 274075, Note_on_c, 0, 68, 0
2, 274075, Note_on_c, 0, 61, 0
2, 274080, Note_on_c, 0, 63, 34
2, 274080, Note_on_c, 0, 61, 34
2, 274080, Note_on_c, 0, 67, 46
2, 274800, Note_on_c, 0, 67, 0
2, 274800, Note_on_c, 0, 70, 37
2, 275038, Note_on_c, 0, 70, 0
2, 275040, Note_on_c, 0, 61, 0
2, 275040, Note_on_c, 0, 63, 0
2, 275040, Note_on_c, 0, 70, 46
2, 275515, Note_on_c, 0, 70, 0
2, 275520, Note_on_c, 0, 63, 38
2, 275520, Note_on_c, 0, 68, 51
2, 275995, Note_on_c, 0, 68, 0
2, 275995, Note_on_c, 0, 63, 0
2, 276000, Note_on_c, 0, 61, 39
2, 276000, Note_on_c, 0, 63, 39
2, 276000, Note_on_c, 0, 70, 52
2, 276475, Note_on_c, 0, 70, 0
2, 276475, Note_on_c, 0, 63, 0
2, 276475, Note_on_c, 0, 61, 0
2, 276480, Note_on_c, 0, 72, 55
2, 276480, Note_on_c, 0, 60, 40
2, 276480, Note_on_c, 0, 63, 40
2, 277440, Note_on_c, 0, 63, 0
2, 277440, Note_on_c, 0, 60, 0
2, 277440, Note_on_c, 0, 72, 0
2, 277440, Note_on_c, 0, 63, 59
2, 277915, Note_on_c, 0, 63, 0
2, 277920, Note_on_c, 0, 72, 72
2, 277920, Note_on_c, 0, 60, 54
2, 277920, Note_on_c, 0, 63, 54
2, 278395, Note_on_c, 0, 63, 0
2, 278395, Note_on_c, 0, 60, 0
2, 278395, Note_on_c, 0, 72, 0
2, 278400, Note_on_c, 0, 63, 55
2, 278400, Note_on_c, 0, 60, 55
2, 278400, Note_on_c, 0, 72, 73
2, 279120, Note_on_c, 0, 72, 0
2, 279120, Note_on_c, 0, 60, 0
2, 279120, Note_on_c, 0, 63, 0
2, 279120, Note_on_c, 0, 61, 46
2, 279120, Note_on_c, 0, 73, 63
2, 279120, Note_on_c, 0, 63, 46
2, 279358, Note_on_c, 0, 63, 0
2, 279358, Note_on_c, 0, 73, 0
2, 279358, Note_on_c, 0, 61, 0
2, 279360, Note_on_c, 0, 72, 71
2, 279360, Note_on_c, 0, 60, 52
2, 279360, Note_on_c, 0, 63, 52
2, 279835, Note_on_c, 0, 63, 0
2, 279835, Note_on_c, 0, 60, 0
2, 279835, Note_on_c, 0, 72, 0
2, 279840, Note_on_c, 0, 70, 64
2, 279840, Note_on_c, 0, 63, 47
2, 279840, Note_on_c, 0, 58, 47
2, 280560, Note_on_c, 0, 58, 0
2, 280560, Note_on_c, 0, 63, 0
2, 280560, Note_on_c, 0, 70, 0
2, 280560, Note_on_c, 0, 60, 39
2, 280560, Note_on_c, 0, 72, 52
2, 280560, Note_on_c, 0, 63, 39
2, 280798, Note_on_c, 0, 63, 0
2, 280798, Note_on_c, 0, 72, 0
2, 280798, Note_on_c, 0, 60, 0
2, 280800, Note_on_c, 0, 70, 56
2, 280800, Note_on_c, 0, 63, 41
2, 280800, Note_on_c, 0, 58, 41
2, 281275, Note_on_c, 0, 58, 0
2, 281275, Note_on_c, 0, 63, 0
2, 281275, Note_on_c, 0, 70, 0
2, 281280, Note_on_c, 0, 68, 52
2, 281280, Note_on_c, 0, 56, 39
2, 281280, Note_on_c, 0, 63, 39
2, 281755, Note_on_c, 0, 63, 0
2, 281755, Note_on_c, 0, 56, 0
2, 281755, Note_on_c, 0, 68, 0
2, 281760, Note_on_c, 0, 70, 56
2, 281760, Note_on_c, 0, 75, 66
2, 281760, Note_on_c, 0, 63, 49
2, 282120, Note_on_c, 0, 75, 0
2, 282120, Note_on_c, 0, 73, 59
2, 282240, Note_on_c, 0, 73, 0
2, 282240, Note_on_c, 0, 63, 0
2, 282240, Note_on_c, 0, 70, 0
2, 282240, Note_on_c, 0, 63, 36
2, 282240, Note_on_c, 0, 72, 49
2, 282240, Note_on_c, 0, 68, 36
2, 283200, Note_on_c, 0, 68, 0
2, 283200, Note_on_c, 0, 72, 0
2, 283200, Note_on_c, 0, 63, 0
2, 283200, Note_on_c, 0, 75, 56
2, 283675, Note_on_c, 0, 75, 0
2, 283680, Note_on_c, 0, 75, 34
2, 283680, Note_on_c, 0, 80, 54
2, 283680, Note_on_c, 0, 72, 34
2, 284155, Note_on_c, 0, 72, 0
2, 284155, Note_on_c, 0, 80, 0
2, 284155, Note_on_c, 0, 75, 0
2, 284160, Note_on_c, 0, 75, 34
2, 284160, Note_on_c, 0, 80, 57
2, 284160, Note_on_c, 0, 72, 34
2, 284880, Note_on_c, 0, 80, 0
2, 284880, Note_on_c, 0, 82, 53
2, 285120, Note_on_c, 0, 82, 0
2, 285120, Note_on_c, 0, 72, 0
2, 285120, Note_on_c, 0, 75, 0
2, 285120, Note_on_c, 0, 73, 34
2, 285120, Note_on_c, 0, 80, 57
2, 285120, Note_on_c, 0, 75, 34
2, 285595, Note_on_c, 0, 75, 0
2, 285595, Note_on_c, 0, 80, 0
2, 285595, Note_on_c, 0, 73, 0
2, 285600, Note_on_c, 0, 79, 57
2, 285600, Note_on_c, 0, 75, 34
2, 285600, Note_on_c, 0, 73, 34
2, 286320, Note_on_c, 0, 79, 0
2, 286320, Note_on_c, 0, 82, 57
2, 286560, Note_on_c, 0, 82, 0
2, 286560, Note_on_c, 0, 73, 0
2, 286560, Note_on_c, 0, 75, 0
2, 286560, Note_on_c, 0, 82, 57
2, 287035, Note_on_c, 0, 82, 0
2, 287040, Note_on_c, 0, 75, 35
2, 287040, Note_on_c, 0, 80, 59
2, 287515, Note_on_c, 0, 80, 0
2, 287515, Note_on_c, 0, 75, 0
2, 287520, Note_on_c, 0, 73, 37
2, 287520, Note_on_c, 0, 82, 62
2, 287520, Note_on_c, 0, 75, 37
2, 287995, Note_on_c, 0, 75, 0
2, 287995, Note_on_c, 0, 82, 0
2, 287995, Note_on_c, 0, 73, 0
2, 288000, Note_on_c, 0, 75, 40
2, 288000, Note_on_c, 0, 84, 66
2, 288000, Note_on_c, 0, 72, 40
2, 288960, Note_on_c, 0, 72, 0
2, 288960, Note_on_c, 0, 84, 0
2, 288960, Note_on_c, 0, 75, 0
2, 288960, Note_on_c, 0, 75, 65
2, 289435, Note_on_c, 0, 75, 0
2, 289440, Note_on_c, 0, 84, 73
2, 289440, Note_on_c, 0, 72, 44
2, 289440, Note_on_c, 0, 75, 44
2, 289915, Note_on_c, 0, 75, 0
2, 289915, Note_on_c, 0, 72, 0
2, 289915, Note_on_c, 0, 84, 0
2, 289920, Note_on_c, 0, 72, 44
2, 289920, Note_on_c, 0, 75, 44
2, 289920, Note_on_c, 0, 84, 74
2, 290640, Note_on_c, 0, 84, 0
2, 290640, Note_on_c, 0, 85, 70
2, 290880, Note_on_c, 0, 85, 0
2, 290880, Note_on_c, 0, 75, 0
2, 290880, Note_on_c, 0, 72, 0
2, 290880, Note_on_c, 0, 72, 37
2, 290880, Note_on_c, 0, 84, 59
2, 290880, Note_on_c, 0, 76, 37
2, 291355, Note_on_c, 0, 76, 0
2, 291355, Note_on_c, 0, 84, 0
2, 291355, Note_on_c, 0, 72, 0
2, 291360, Note_on_c, 0, 76, 36
2, 291360, Note_on_c, 0, 72, 36
2, 291360, Note_on_c, 0, 82, 52
2, 292080, Note_on_c, 0, 82, 0
2, 292080, Note_on_c, 0, 84, 54
2, 292320, Note_on_c, 0, 84, 0
2, 292320, Note_on_c, 0, 72, 0
2, 292320, Note_on_c, 0, 76, 0
2, 292320, Note_on_c, 0, 72, 36
2, 292320, Note_on_c, 0, 77, 36
2, 292320, Note_on_c, 0, 82, 49
2, 292795, Note_on_c, 0, 82, 0
2, 292795, Note_on_c, 0, 77, 0
2, 292795, Note_on_c, 0, 72, 0
2, 292800, Note_on_c, 0, 72, 34
2, 292800, Note_on_c, 0, 77, 34
2, 292800, Note_on_c, 0, 80, 47
2, 292960, Note_on_c, 0, 80, 0
2, 292960, Note_on_c, 0, 82, 52
2, 293040, Note_on_c, 0, 82, 0
2, 293040, Note_on_c, 0, 80, 51
2, 293120, Note_on_c, 0, 80, 0
2, 293120, Note_on_c, 0, 79, 51
2, 293200, Note_on_c, 0, 79, 0
2, 293200, Note_on_c, 0, 80, 51
2, 293275, Note_on_c, 0, 77, 0
2, 293275, Note_on_c, 0, 72, 0
2, 293280, Note_on_c, 0, 80, 0
2, 293280, Note_on_c, 0, 73, 37
2, 293280, Note_on_c, 0, 79, 37
2, 293280, Note_on_c, 0, 84, 64
2, 293640, Note_on_c, 0, 84, 0
2, 293640, Note_on_c, 0, 82, 62
2, 293760, Note_on_c, 0, 82, 0
2, 293760, Note_on_c, 0, 79, 0
2, 293760, Note_on_c, 0, 73, 0
2, 293760, Note_on_c, 0, 72, 35
2, 293760, Note_on_c, 0, 80, 54
2, 294720, Note_on_c, 0, 80, 0
2, 294720, Note_on_c, 0, 72, 0
2, 294960, Note_on_c, 0, 75, 80
2, 294960, Note_on_c, 0, 63, 68
2, 294960, Note_on_c, 0, 68, 68
2, 295198, Note_on_c, 0, 68, 0
2, 295198, Note_on_c, 0, 63, 0
2, 295198, Note_on_c, 0, 75, 0
2, 295200, Note_on_c, 0, 75, 91
2, 295200, Note_on_c, 0, 63, 77
2, 295200, Note_on_c, 0, 68, 77
2, 295675, Note_on_c, 0, 68, 0
2, 295675, Note_on_c, 0, 63, 0
2, 295675, Note_on_c, 0, 75, 0
2, 295680, Note_on_c, 0, 68, 74
2, 295680, Note_on_c, 0, 75, 88
2, 295680, Note_on_c, 0, 63, 74
2, 296393, Note_on_c, 0, 63, 0
2, 296393, Note_on_c, 0, 75, 0
2, 296393, Note_on_c, 0, 68, 0
2, 296400, Note_on_c, 0, 60, 68
2, 296400, Note_on_c, 0, 72, 80
2, 296400, Note_on_c, 0, 63, 68
2, 296638, Note_on_c, 0, 63, 0
2, 296638, Note_on_c, 0, 72, 0
2, 296638, Note_on_c, 0, 60, 0
2, 296640, Note_on_c, 0, 72, 91
2, 296640, Note_on_c, 0, 63, 77
2, 296640, Note_on_c, 0, 60, 77
2, 297115, Note_on_c, 0, 60, 0
2, 297115, Note_on_c, 0, 63, 0
2, 297115, Note_on_c, 0, 72, 0
2, 297120, Note_on_c, 0, 63, 73
2, 297120, Note_on_c, 0, 60, 73
2, 297120, Note_on_c, 0, 72, 86
2, 297833, Note_on_c, 0, 72, 0
2, 297833, Note_on_c, 0, 60, 0
2, 297833, Note_on_c, 0, 63, 0
2, 297840, Note_on_c, 0, 65, 67
2, 297840, Note_on_c, 0, 60, 67
2, 297840, Note_on_c, 0, 68, 79
2, 298078, Note_on_c, 0, 68, 0
2, 298078, Note_on_c, 0, 60, 0
2, 298078, Note_on_c, 0, 65, 0
2, 298080, Note_on_c, 0, 65, 67
2, 298080, Note_on_c, 0, 68, 79
2, 298080, Note_on_c, 0, 60, 67
2, 298440, Note_on_c, 0, 60, 0
2, 298440, Note_on_c, 0, 68, 0
2, 298440, Note_on_c, 0, 65, 0
2, 298560, Note_on_c, 0, 61, 68
2, 298560, Note_on_c, 0, 70, 80
2, 298560, Note_on_c, 0, 63, 68
2, 298920, Note_on_c, 0, 63, 0
2, 298920, Note_on_c, 0, 70, 0
2, 298920, Note_on_c, 0, 61, 0
2, 299040, Note_on_c, 0, 61, 68
2, 299040, Note_on_c, 0, 67, 68
2, 299040, Note_on_c, 0, 63, 68
2, 299040, Note_on_c, 0, 73, 80
2, 299040, Note_on_c, 0, 70, 68
2, 299400, Note_on_c, 0, 70, 0
2, 299400, Note_on_c, 0, 63, 0
2, 299400, Note_on_c, 0, 61, 0
2, 299400, Note_on_c, 0, 67, 0
2, 299400, Note_on_c, 0, 73, 0
2, 299520, Note_on_c, 0, 60, 68
2, 299520, Note_on_c, 0, 63, 68
2, 299520, Note_on_c, 0, 68, 80
2, 299520, Note_on_c, 0, 72, 80
2, 300720, Note_on_c, 0, 72, 0
2, 300720, Note_on_c, 0, 60, 0
2, 300720, Note_on_c, 0, 63, 0
2, 300720, Note_on_c, 0, 68, 0
2, 300720, Note_on_c, 0, 77, 93
2, 300720, Note_on_c, 0, 65, 79
2, 300720, Note_on_c, 0, 68, 79
2, 300958, Note_on_c, 0, 68, 0
2, 300958, Note_on_c, 0, 65, 0
2, 300958, Note_on_c, 0, 77, 0
2, 300960, Note_on_c, 0, 65, 85
2, 300960, Note_on_c, 0, 77, 100
2, 300960, Note_on_c, 0, 68, 85
2, 301435, Note_on_c, 0, 68, 0
2, 301435, Note_on_c, 0, 77, 0
2, 301435, Note_on_c, 0, 65, 0
2, 301440, Note_on_c, 0, 68, 85
2, 301440, Note_on_c, 0, 77, 100
2, 301440, Note_on_c, 0, 65, 85
2, 302153, Note_on_c, 0, 65, 0
2, 302153, Note_on_c, 0, 77, 0
2, 302153, Note_on_c, 0, 68, 0
2, 302160, Note_on_c, 0, 68, 79
2, 302160, Note_on_c, 0, 73, 93
2, 302160, Note_on_c, 0, 65, 79
2, 302398, Note_on_c, 0, 65, 0
2, 302398, Note_on_c, 0, 73, 0
2, 302398, Note_on_c, 0, 68, 0
2, 302400, Note_on_c, 0, 68, 85
2, 302400, Note_on_c, 0, 73, 100
2, 302400, Note_on_c, 0, 65, 85
2, 302875, Note_on_c, 0, 65, 0
2, 302875, Note_on_c, 0, 73, 0
2, 302875, Note_on_c, 0, 68, 0
2, 302880, Note_on_c, 0, 68, 85
2, 302880, Note_on_c, 0, 73, 100
2, 302880, Note_on_c, 0, 65, 85
2, 303593, Note_on_c, 0, 65, 0
2, 303593, Note_on_c, 0, 73, 0
2, 303593, Note_on_c, 0, 68, 0
2, 303600, Note_on_c, 0, 68, 93
2, 303600, Note_on_c, 0, 65, 79
2, 303838, Note_on_c, 0, 65, 0
2, 303838, Note_on_c, 0, 68, 0
2, 303840, Note_on_c, 0, 65, 84
2, 303840, Note_on_c, 0, 68, 99
2, 304200, Note_on_c, 0, 68, 0
2, 304200, Note_on_c, 0, 65, 0
2, 304320, Note_on_c, 0, 69, 84
2, 304320, Note_on_c, 0, 66, 84
2, 304320, Note_on_c, 0, 73, 99
2, 304680, Note_on_c, 0, 73, 0
2, 304680, Note_on_c, 0, 66, 0
2, 304680, Note_on_c, 0, 69, 0
2, 304800, Note_on_c, 0, 69, 84
2, 304800, Note_on_c, 0, 73, 99
2, 304800, Note_on_c, 0, 78, 99
2, 304800, Note_on_c, 0, 66, 84
2, 305160, Note_on_c, 0, 66, 0
2, 305160, Note_on_c, 0, 69, 0
2, 305160, Note_on_c, 0, 73, 0
2, 305160, Note_on_c, 0, 78, 0
2, 305280, Note_on_c, 0, 68, 84
2, 305280, Note_on_c, 0, 73, 84
2, 305280, Note_on_c, 0, 65, 84
2, 305280, Note_on_c, 0, 77, 99
2, 306480, Note_on_c, 0, 77, 0
2, 306480, Note_on_c, 0, 68, 0
2, 306480, Note_on_c, 0, 73, 0
2, 306480, Note_on_c, 0, 65, 0
2, 306480, Note_on_c, 0, 66, 86
2, 306480, Note_on_c, 0, 73, 86
2, 306480, Note_on_c, 0, 78, 102
2, 306718, Note_on_c, 0, 78, 0
2, 306718, Note_on_c, 0, 73, 0
2, 306718, Note_on_c, 0, 66, 0
2, 306720, Note_on_c, 0, 73, 87
2, 306720, Note_on_c, 0, 78, 103
2, 306720, Note_on_c, 0, 66, 87
2, 308160, Note_on_c, 0, 66, 0
2, 308160, Note_on_c, 0, 78, 0
2, 308160, Note_on_c, 0, 73, 0
2, 308160, Note_on_c, 0, 76, 61
2, 308160, Note_on_c, 0, 73, 51
2, 308160, Note_on_c, 0, 67, 51
2, 308640, Note_on_c, 0, 76, 0
2, 308640, Note_on_c, 0, 75, 61
2, 309120, Note_on_c, 0, 75, 0
2, 309120, Note_on_c, 0, 73, 0
2, 309120, Note_on_c, 0, 73, 60
2, 309360, Note_on_c, 0, 73, 0
2, 309360, Note_on_c, 0, 67, 0
2, 309360, Note_on_c, 0, 61, 57
2, 309360, Note_on_c, 0, 68, 68
2, 309480, Note_on_c, 0, 68, 0
2, 309480, Note_on_c, 0, 61, 0
2, 309600, Note_on_c, 0, 61, 57
2, 309600, Note_on_c, 0, 68, 68
2, 310800, Note_on_c, 0, 68, 0
2, 310800, Note_on_c, 0, 70, 35
2, 310860, Note_on_c, 0, 70, 0
2, 310860, Note_on_c, 0, 68, 35
2, 310920, Note_on_c, 0, 68, 0
2, 310920, Note_on_c, 0, 67, 35
2, 310980, Note_on_c, 0, 67, 0
2, 310980, Note_on_c, 0, 68, 35
2, 311040, Note_on_c, 0, 68, 0
2, 311040, Note_on_c, 0, 61, 0
2, 311040, Note_on_c, 0, 68, 52
2, 311160, Note_on_c, 0, 71, 52
2, 311160, Note_on_c, 0, 62, 52
2, 311520, Note_on_c, 0, 71, 0
2, 311520, Note_on_c, 0, 70, 53
2, 312000, Note_on_c, 0, 70, 0
2, 312000, Note_on_c, 0, 68, 53
2, 312480, Note_on_c, 0, 68, 0
2, 312480, Note_on_c, 0, 62, 0
2, 312480, Note_on_c, 0, 68, 0
2, 312480, Note_on_c, 0, 60, 34
2, 312480, Note_on_c, 0, 63, 40
2, 312480, Note_on_c, 0, 56, 34
2, 312955, Note_on_c, 0, 63, 0
2, 312960, Note_on_c, 0, 63, 40
2, 313920, Note_on_c, 0, 63, 0
2, 313920, Note_on_c, 0, 56, 0
2, 313920, Note_on_c, 0, 60, 0
2, 313920, Note_on_c, 0, 55, 34
2, 313920, Note_on_c, 0, 58, 34
2, 313920, Note_on_c, 0, 61, 40
2, 313920, Note_on_c, 0, 63, 40
2, 314395, Note_on_c, 0, 63, 0
2, 314400, Note_on_c, 0, 63, 40
2, 314875, Note_on_c, 0, 63, 0
2, 314880, Note_on_c, 0, 61, 0
2, 314880, Note_on_c, 0, 58, 0
2, 314880, Note_on_c, 0, 55, 0
2, 314880, Note_on_c, 0, 63, 40
2, 315355, Note_on_c, 0, 63, 0
2, 315360, Note_on_c, 0, 60, 34
2, 315360, Note_on_c, 0, 63, 34
2, 315360, Note_on_c, 0, 68, 46
2, 315835, Note_on_c, 0, 68, 0
2, 315835, Note_on_c, 0, 63, 0
2, 315835, Note_on_c, 0, 60, 0
2, 315840, Note_on_c, 0, 68, 46
2, 315840, Note_on_c, 0, 63, 34
2, 315840, Note_on_c, 0, 60, 34
2, 316560, Note_on_c, 0, 68, 0
2, 316560, Note_on_c, 0, 70, 39
2, 316800, Note_on_c, 0, 70, 0
2, 316800, Note_on_c, 0, 60, 0
2, 316800, Note_on_c, 0, 63, 0
2, 316800, Note_on_c, 0, 61, 34
2, 316800, Note_on_c, 0, 63, 34
2, 316800, Note_on_c, 0, 68, 46
2, 317275, Note_on_c, 0, 68, 0
2, 317275, Note_on_c, 0, 63, 0
2, 317275, Note_on_c, 0, 61, 0
2, 317280, Note_on_c, 0, 67, 46
2, 317280, Note_on_c, 0, 63, 34
2, 317280, Note_on_c, 0, 61, 34
2, 318000, Note_on_c, 0, 67, 0
2, 318000, Note_on_c, 0, 70, 37
2, 318240, Note_on_c, 0, 70, 0
2, 318240, Note_on_c, 0, 61, 0
2, 318240, Note_on_c, 0, 63, 0
2, 318240, Note_on_c, 0, 70, 46
2, 318715, Note_on_c, 0, 70, 0
2, 318720, Note_on_c, 0, 68, 51
2, 318720, Note_on_c, 0, 63, 38
2, 319195, Note_on_c, 0, 63, 0
2, 319195, Note_on_c, 0, 68, 0
2, 319200, Note_on_c, 0, 63, 39
2, 319200, Note_on_c, 0, 70, 52
2, 319200, Note_on_c, 0, 61, 39
2, 319675, Note_on_c, 0, 61, 0
2, 319675, Note_on_c, 0, 70, 0
2, 319675, Note_on_c, 0, 63, 0
2, 319680, Note_on_c, 0, 60, 40
2, 319680, Note_on_c, 0, 72, 55
2, 319680, Note_on_c, 0, 63, 40
2, 320640, Note_on_c, 0, 63, 0
2, 320640, Note_on_c, 0, 72, 0
2, 320640, Note_on_c, 0, 60, 0
2, 320640, Note_on_c, 0, 63, 52
2, 321115, Note_on_c, 0, 63, 0
2, 321120, Note_on_c, 0, 63, 53
2, 321120, Note_on_c, 0, 72, 72
2, 321120, Note_on_c, 0, 60, 53
2, 321595, Note_on_c, 0, 60, 0
2, 321595, Note_on_c, 0, 72, 0
2, 321595, Note_on_c, 0, 63, 0
2, 321600, Note_on_c, 0, 72, 72
2, 321600, Note_on_c, 0, 63, 53
2, 321600, Note_on_c, 0, 60, 53
2, 322320, Note_on_c, 0, 60, 0
2, 322320, Note_on_c, 0, 63, 0
2, 322320, Note_on_c, 0, 72, 0
2, 322320, Note_on_c, 0, 61, 51
2, 322320, Note_on_c, 0, 70, 70
2, 322320, Note_on_c, 0, 58, 51
2, 322558, Note_on_c, 0, 58, 0
2, 322558, Note_on_c, 0, 70, 0
2, 322558, Note_on_c, 0, 61, 0
2, 322560, Note_on_c, 0, 58, 56
2, 322560, Note_on_c, 0, 70, 75
2, 322560, Note_on_c, 0, 61, 56
2, 323035, Note_on_c, 0, 61, 0
2, 323035, Note_on_c, 0, 70, 0
2, 323035, Note_on_c, 0, 58, 0
2, 323040, Note_on_c, 0, 60, 53
2, 323040, Note_on_c, 0, 69, 71
2, 323040, Note_on_c, 0, 57, 53
2, 323760, Note_on_c, 0, 57, 0
2, 323760, Note_on_c, 0, 69, 0
2, 323760, Note_on_c, 0, 60, 0
2, 323760, Note_on_c, 0, 58, 50
2, 323760, Note_on_c, 0, 61, 50
2, 323760, Note_on_c, 0, 70, 67
2, 323998, Note_on_c, 0, 70, 0
2, 323998, Note_on_c, 0, 61, 0
2, 323998, Note_on_c, 0, 58, 0
2, 324000, Note_on_c, 0, 70, 71
2, 324000, Note_on_c, 0, 58, 52
2, 324000, Note_on_c, 0, 61, 52
2, 324480, Note_on_c, 0, 61, 0
2, 324480, Note_on_c, 0, 58, 0
2, 324480, Note_on_c, 0, 70, 0
2, 324480, Note_on_c, 0, 56, 43
2, 324480, Note_on_c, 0, 60, 43
2, 324480, Note_on_c, 0, 68, 59
2, 324960, Note_on_c, 0, 68, 0
2, 324960, Note_on_c, 0, 60, 0
2, 324960, Note_on_c, 0, 56, 0
2, 324960, Note_on_c, 0, 55, 44
2, 324960, Note_on_c, 0, 58, 44
2, 324960, Note_on_c, 0, 67, 60
2, 325392, Note_on_c, 0, 67, 0
2, 325392, Note_on_c, 0, 58, 0
2, 325392, Note_on_c, 0, 55, 0
2, 325440, Note_on_c, 0, 56, 43
2, 325440, Note_on_c, 0, 68, 59
2, 325440, Note_on_c, 0, 60, 43
2, 326400, Note_on_c, 0, 60, 0
2, 326400, Note_on_c, 0, 68, 0
2, 326400, Note_on_c, 0, 56, 0
2, 326400, Note_on_c, 0, 75, 56
2, 326875, Note_on_c, 0, 75, 0
2, 326880, Note_on_c, 0, 75, 34
2, 326880, Note_on_c, 0, 80, 54
2, 326880, Note_on_c, 0, 72, 34
2, 327355, Note_on_c, 0, 72, 0
2, 327355, Note_on_c, 0, 80, 0
2, 327355, Note_on_c, 0, 75, 0
2, 327360, Note_on_c, 0, 75, 34
2, 327360, Note_on_c, 0, 80, 57
2, 327360, Note_on_c, 0, 72, 34
2, 328080, Note_on_c, 0, 80, 0
2, 328080, Note_on_c, 0, 82, 52
2, 328320, Note_on_c, 0, 82, 0
2, 328320, Note_on_c, 0, 72, 0
2, 328320, Note_on_c, 0, 75, 0
2, 328320, Note_on_c, 0, 80, 57
2, 328320, Note_on_c, 0, 73, 34
2, 328320, Note_on_c, 0, 75, 34
2, 328795, Note_on_c, 0, 75, 0
2, 328795, Note_on_c, 0, 73, 0
2, 328795, Note_on_c, 0, 80, 0
2, 328800, Note_on_c, 0, 73, 34
2, 328800, Note_on_c, 0, 79, 57
2, 328800, Note_on_c, 0, 75, 34
2, 329520, Note_on_c, 0, 79, 0
2, 329520, Note_on_c, 0, 82, 57
2, 329758, Note_on_c, 0, 82, 0
2, 329760, Note_on_c, 0, 75, 0
2, 329760, Note_on_c, 0, 73, 0
2, 329760, Note_on_c, 0, 82, 57
2, 330235, Note_on_c, 0, 82, 0
2, 330240, Note_on_c, 0, 80, 59
2, 330240, Note_on_c, 0, 75, 35
2, 330715, Note_on_c, 0, 75, 0
2, 330715, Note_on_c, 0, 80, 0
2, 330720, Note_on_c, 0, 82, 62
2, 330720, Note_on_c, 0, 75, 37
2, 330720, Note_on_c, 0, 73, 37
2, 331195, Note_on_c, 0, 73, 0
2, 331195, Note_on_c, 0, 75, 0
2, 331195, Note_on_c, 0, 82, 0
2, 331200, Note_on_c, 0, 75, 40
2, 331200, Note_on_c, 0, 72, 40
2, 331200, Note_on_c, 0, 84, 66
2, 332160, Note_on_c, 0, 84, 0
2, 332160, Note_on_c, 0, 72, 0
2, 332160, Note_on_c, 0, 75, 0
2, 332160, Note_on_c, 0, 75, 72
2, 332635, Note_on_c, 0, 75, 0
2, 332640, Note_on_c, 0, 84, 72
2, 332640, Note_on_c, 0, 75, 53
2, 332640, Note_on_c, 0, 72, 53
2, 333115, Note_on_c, 0, 72, 0
2, 333115, Note_on_c, 0, 75, 0
2, 333115, Note_on_c, 0, 84, 0
2, 333120, Note_on_c, 0, 72, 53
2, 333120, Note_on_c, 0, 75, 53
2, 333120, Note_on_c, 0, 84, 72
2, 333840, Note_on_c, 0, 84, 0
2, 333840, Note_on_c, 0, 75, 0
2, 333840, Note_on_c, 0, 72, 0
2, 333840, Note_on_c, 0, 73, 51
2, 333840, Note_on_c, 0, 82, 70
2, 333840, Note_on_c, 0, 70, 51
2, 334078, Note_on_c, 0, 70, 0
2, 334078, Note_on_c, 0, 82, 0
2, 334078, Note_on_c, 0, 73, 0
2, 334080, Note_on_c, 0, 82, 75
2, 334080, Note_on_c, 0, 73, 56
2, 334080, Note_on_c, 0, 70, 56
2, 334555, Note_on_c, 0, 70, 0
2, 334555, Note_on_c, 0, 73, 0
2, 334555, Note_on_c, 0, 82, 0
2, 334560, Note_on_c, 0, 72, 53
2, 334560, Note_on_c, 0, 81, 71
2, 334560, Note_on_c, 0, 69, 53
2, 335280, Note_on_c, 0, 69, 0
2, 335280, Note_on_c, 0, 81, 0
2, 335280, Note_on_c, 0, 72, 0
2, 335280, Note_on_c, 0, 70, 50
2, 335280, Note_on_c, 0, 82, 67
2, 335280, Note_on_c, 0, 73, 50
2, 335518, Note_on_c, 0, 73, 0
2, 335518, Note_on_c, 0, 82, 0
2, 335518, Note_on_c, 0, 70, 0
2, 335520, Note_on_c, 0, 82, 71
2, 335520, Note_on_c, 0, 73, 52
2, 335520, Note_on_c, 0, 70, 52
2, 335995, Note_on_c, 0, 70, 0
2, 335995, Note_on_c, 0, 73, 0
2, 335995, Note_on_c, 0, 82, 0
2, 336000, Note_on_c, 0, 68, 43
2, 336000, Note_on_c, 0, 80, 59
2, 336000, Note_on_c, 0, 72, 43
2, 336475, Note_on_c, 0, 72, 0
2, 336475, Note_on_c, 0, 80, 0
2, 336475, Note_on_c, 0, 68, 0
2, 336480, Note_on_c, 0, 79, 60
2, 336480, Note_on_c, 0, 70, 44
2, 336480, Note_on_c, 0, 67, 44
2, 336912, Note_on_c, 0, 67, 0
2, 336912, Note_on_c, 0, 70, 0
2, 336912, Note_on_c, 0, 79, 0
2, 336960, Note_on_c, 0, 68, 43
2, 336960, Note_on_c, 0, 80, 59
2, 336960, Note_on_c, 0, 72, 43
2, 337920, Note_on_c, 0, 72, 0
2, 337920, Note_on_c, 0, 80, 0
2, 337920, Note_on_c, 0, 68, 0
2, 338160, Note_on_c, 0, 70, 73
2, 338160, Note_on_c, 0, 61, 51
2, 338160, Note_on_c, 0, 58, 51
2, 338398, Note_on_c, 0, 58, 0
2, 338398, Note_on_c, 0, 61, 0
2, 338398, Note_on_c, 0, 70, 0
2, 338400, Note_on_c, 0, 61, 50
2, 338400, Note_on_c, 0, 58, 50
2, 338400, Note_on_c, 0, 70, 72
2, 338880, Note_on_c, 0, 70, 0
2, 338880, Note_on_c, 0, 58, 0
2, 338880, Note_on_c, 0, 61, 0
2, 338880, Note_on_c, 0, 68, 60
2, 338880, Note_on_c, 0, 56, 42
2, 338880, Note_on_c, 0, 60, 42
2, 339360, Note_on_c, 0, 60, 0
2, 339360, Note_on_c, 0, 56, 0
2, 339360, Note_on_c, 0, 68, 0
2, 339360, Note_on_c, 0, 55, 39
2, 339360, Note_on_c, 0, 67, 55
2, 339360, Note_on_c, 0, 58, 39
2, 339792, Note_on_c, 0, 58, 0
2, 339792, Note_on_c, 0, 67, 0
2, 339792, Note_on_c, 0, 55, 0
2, 339840, Note_on_c, 0, 68, 53
2, 339840, Note_on_c, 0, 60, 37
2, 339840, Note_on_c, 0, 56, 37
2, 341040, Note_on_c, 0, 56, 0
2, 341040, Note_on_c, 0, 60, 0
2, 341040, Note_on_c, 0, 68, 0
2, 341040, Note_on_c, 0, 61, 56
2, 341040, Note_on_c, 0, 73, 79
2, 341040, Note_on_c, 0, 70, 67
2, 341278, Note_on_c, 0, 70, 0
2, 341278, Note_on_c, 0, 61, 0
2, 341278, Note_on_c, 0, 73, 0
2, 341280, Note_on_c, 0, 61, 56
2, 341280, Note_on_c, 0, 70, 67
2, 341280, Note_on_c, 0, 73, 79
2, 341760, Note_on_c, 0, 73, 0
2, 341760, Note_on_c, 0, 70, 0
2, 341760, Note_on_c, 0, 61, 0
2, 341760, Note_on_c, 0, 68, 59
2, 341760, Note_on_c, 0, 60, 50
2, 341760, Note_on_c, 0, 72, 70
2, 342240, Note_on_c, 0, 72, 0
2, 342240, Note_on_c, 0, 60, 0
2, 342240, Note_on_c, 0, 68, 0
2, 342240, Note_on_c, 0, 58, 45
2, 342240, Note_on_c, 0, 67, 54
2, 342240, Note_on_c, 0, 70, 64
2, 342672, Note_on_c, 0, 70, 0
2, 342672, Note_on_c, 0, 67, 0
2, 342672, Note_on_c, 0, 58, 0
2, 342720, Note_on_c, 0, 56, 43
2, 342720, Note_on_c, 0, 68, 61
2, 343680, Note_on_c, 0, 68, 0
2, 343680, Note_on_c, 0, 56, 0
2, 343680, End_track
3, 0, Start_track
3, 0, Title_t, "Left"
3, 0, Program_c, 0, 0
3, 0, Control_c, 0, 7, 80
3, 0, Control_c, 0, 91, 126
3, 960, Note_on_c, 0, 51, 27
3, 1435, Note_on_c, 0, 51, 0
3, 1440, Note_on_c, 0, 51, 27
3, 1440, Note_on_c, 0, 44, 27
3, 1915, Note_on_c, 0, 51, 0
3, 1920, Note_on_c, 0, 51, 27
3, 2880, Note_on_c, 0, 51, 0
3, 2880, Note_on_c, 0, 44, 0
3, 2880, Note_on_c, 0, 51, 27
3, 2880, Note_on_c, 0, 46, 27
3, 3355, Note_on_c, 0, 51, 0
3, 3360, Note_on_c, 0, 51, 27
3, 4320, Note_on_c, 0, 51, 0
3, 4320, Note_on_c, 0, 46, 0
3, 4320, Note_on_c, 0, 51, 27
3, 4320, Note_on_c, 0, 48, 27
3, 4795, Note_on_c, 0, 51, 0
3, 4800, Note_on_c, 0, 51, 27
3, 5275, Note_on_c, 0, 51, 0
3, 5280, Note_on_c, 0, 48, 0
3, 5280, Note_on_c, 0, 43, 27
3, 5280, Note_on_c, 0, 51, 27
3, 5755, Note_on_c, 0, 51, 0
3, 5760, Note_on_c, 0, 43, 0
3, 5760, Note_on_c, 0, 44, 27
3, 5760, Note_on_c, 0, 51, 27
3, 6720, Note_on_c, 0, 51, 0
3, 6720, Note_on_c, 0, 44, 0
3, 6720, Note_on_c, 0, 51, 31
3, 7195, Note_on_c, 0, 51, 0
3, 7200, Note_on_c, 0, 44, 31
3, 7200, Note_on_c, 0, 51, 31
3, 7675, Note_on_c, 0, 51, 0
3, 7680, Note_on_c, 0, 51, 31
3, 8640, Note_on_c, 0, 51, 0
3, 8640, Note_on_c, 0, 44, 0
3, 8640, Note_on_c, 0, 51, 31
3, 8640, Note_on_c, 0, 49, 31
3, 9115, Note_on_c, 0, 51, 0
3, 9120, Note_on_c, 0, 51, 31
3, 10080, Note_on_c, 0, 51, 0
3, 10080, Note_on_c, 0, 49, 0
3, 10080, Note_on_c, 0, 51, 31
3, 10080, Note_on_c, 0, 48, 31
3, 10555, Note_on_c, 0, 51, 0
3, 10560, Note_on_c, 0, 51, 31
3, 11035, Note_on_c, 0, 51, 0
3, 11040, Note_on_c, 0, 48, 0
3, 11040, Note_on_c, 0, 43, 31
3, 11040, Note_on_c, 0, 51, 31
3, 11520, Note_on_c, 0, 51, 0
3, 11520, Note_on_c, 0, 43, 0
3, 11520, Note_on_c, 0, 44, 29
3, 11520, Note_on_c, 0, 51, 29
3, 12480, Note_on_c, 0, 51, 0
3, 12480, Note_on_c, 0, 44, 0
3, 12480, Note_on_c, 0, 51, 27
3, 12955, Note_on_c, 0, 51, 0
3, 12960, Note_on_c, 0, 44, 27
3, 12960, Note_on_c, 0, 51, 27
3, 13435, Note_on_c, 0, 51, 0
3, 13440, Note_on_c, 0, 51, 27
3, 14400, Note_on_c, 0, 51, 0
3, 14400, Note_on_c, 0, 44, 0
3, 14400, Note_on_c, 0, 46, 27
3, 14400, Note_on_c, 0, 51, 27
3, 14875, Note_on_c, 0, 51, 0
3, 14880, Note_on_c, 0, 51, 27
3, 15840, Note_on_c, 0, 51, 0
3, 15840, Note_on_c, 0, 46, 0
3, 15840, Note_on_c, 0, 51, 27
3, 15840, Note_on_c, 0, 48, 27
3, 16315, Note_on_c, 0, 51, 0
3, 16320, Note_on_c, 0, 51, 28
3, 16795, Note_on_c, 0, 51, 0
3, 16800, Note_on_c, 0, 48, 0
3, 16800, Note_on_c, 0, 43, 29
3, 16800, Note_on_c, 0, 51, 29
3, 17275, Note_on_c, 0, 51, 0
3, 17275, Note_on_c, 0, 43, 0
3, 17280, Note_on_c, 0, 44, 32
3, 17280, Note_on_c, 0, 51, 32
3, 18240, Note_on_c, 0, 51, 0
3, 18240, Note_on_c, 0, 44, 0
3, 18240, Note_on_c, 0, 51, 31
3, 18715, Note_on_c, 0, 51, 0
3, 18720, Note_on_c, 0, 44, 34
3, 18720, Note_on_c, 0, 51, 34
3, 19195, Note_on_c, 0, 51, 0
3, 19200, Note_on_c, 0, 51, 35
3, 20160, Note_on_c, 0, 51, 0
3, 20160, Note_on_c, 0, 44, 0
3, 20160, Note_on_c, 0, 43, 31
3, 20160, Note_on_c, 0, 48, 31
3, 20635, Note_on_c, 0, 48, 0
3, 20640, Note_on_c, 0, 48, 31
3, 21600, Note_on_c, 0, 48, 0
3, 21600, Note_on_c, 0, 43, 0
3, 21600, Note_on_c, 0, 48, 31
3, 21600, Note_on_c, 0, 41, 31
3, 22075, Note_on_c, 0, 48, 0
3, 22080, Note_on_c, 0, 48, 31
3, 22555, Note_on_c, 0, 48, 0
3, 22560, Note_on_c, 0, 41, 0
3, 22560, Note_on_c, 0, 51, 31
3, 22560, Note_on_c, 0, 39, 31
3, 23040, Note_on_c, 0, 39, 0
3, 23040, Note_on_c, 0, 51, 0
3, 23040, Note_on_c, 0, 44, 29
3, 23040, Note_on_c, 0, 51, 29
3, 24000, Note_on_c, 0, 51, 0
3, 24000, Note_on_c, 0, 44, 0
3, 24000, Note_on_c, 0, 51, 27
3, 24475, Note_on_c, 0, 51, 0
3, 24480, Note_on_c, 0, 44, 27
3, 24480, Note_on_c, 0, 51, 27
3, 24955, Note_on_c, 0, 51, 0
3, 24960, Note_on_c, 0, 51, 27
3, 25920, Note_on_c, 0, 51, 0
3, 25920, Note_on_c, 0, 44, 0
3, 25920, Note_on_c, 0, 46, 27
3, 25920, Note_on_c, 0, 51, 27
3, 26395, Note_on_c, 0, 51, 0
3, 26400, Note_on_c, 0, 51, 27
3, 27360, Note_on_c, 0, 51, 0
3, 27360, Note_on_c, 0, 46, 0
3, 27360, Note_on_c, 0, 51, 27
3, 27360, Note_on_c, 0, 48, 27
3, 27835, Note_on_c, 0, 51, 0
3, 27840, Note_on_c, 0, 51, 27
3, 28311, Note_on_c, 0, 48, 0
3, 28315, Note_on_c, 0, 51, 0
3, 28320, Note_on_c, 0, 51, 27
3, 28320, Note_on_c, 0, 43, 27
3, 28795, Note_on_c, 0, 43, 0
3, 28795, Note_on_c, 0, 51, 0
3, 28800, Note_on_c, 0, 44, 27
3, 28800, Note_on_c, 0, 51, 27
3, 29760, Note_on_c, 0, 51, 0
3, 29760, Note_on_c, 0, 44, 0
3, 29760, Note_on_c, 0, 51, 31
3, 30235, Note_on_c, 0, 51, 0
3, 30240, Note_on_c, 0, 51, 31
3, 30240, Note_on_c, 0, 44, 31
3, 30715, Note_on_c, 0, 51, 0
3, 30720, Note_on_c, 0, 51, 31
3, 31680, Note_on_c, 0, 51, 0
3, 31680, Note_on_c, 0, 44, 0
3, 31680, Note_on_c, 0, 51, 31
3, 31680, Note_on_c, 0, 49, 31
3, 32155, Note_on_c, 0, 51, 0
3, 32160, Note_on_c, 0, 51, 31
3, 33120, Note_on_c, 0, 51, 0
3, 33120, Note_on_c, 0, 49, 0
3, 33120, Note_on_c, 0, 48, 31
3, 33120, Note_on_c, 0, 51, 31
3, 33595, Note_on_c, 0, 51, 0
3, 33600, Note_on_c, 0, 51, 31
3, 34075, Note_on_c, 0, 51, 0
3, 34080, Note_on_c, 0, 48, 0
3, 34080, Note_on_c, 0, 43, 31
3, 34080, Note_on_c, 0, 51, 31
3, 34560, Note_on_c, 0, 51, 0
3, 34560, Note_on_c, 0, 43, 0
3, 34560, Note_on_c, 0, 44, 29
3, 34560, Note_on_c, 0, 51, 29
3, 35520, Note_on_c, 0, 51, 0
3, 35520, Note_on_c, 0, 44, 0
3, 35520, Note_on_c, 0, 51, 27
3, 35995, Note_on_c, 0, 51, 0
3, 36000, Note_on_c, 0, 51, 27
3, 36000, Note_on_c, 0, 44, 27
3, 36475, Note_on_c, 0, 51, 0
3, 36480, Note_on_c, 0, 51, 27
3, 37440, Note_on_c, 0, 51, 0
3, 37440, Note_on_c, 0, 44, 0
3, 37440, Note_on_c, 0, 51, 27
3, 37440, Note_on_c, 0, 46, 27
3, 37915, Note_on_c, 0, 51, 0
3, 37920, Note_on_c, 0, 51, 27
3, 38880, Note_on_c, 0, 51, 0
3, 38880, Note_on_c, 0, 46, 0
3, 38880, Note_on_c, 0, 51, 27
3, 38880, Note_on_c, 0, 48, 27
3, 39355, Note_on_c, 0, 51, 0
3, 39360, Note_on_c, 0, 51, 28
3, 39835, Note_on_c, 0, 51, 0
3, 39840, Note_on_c, 0, 48, 0
3, 39840, Note_on_c, 0, 43, 29
3, 39840, Note_on_c, 0, 51, 29
3, 40315, Note_on_c, 0, 51, 0
3, 40315, Note_on_c, 0, 43, 0
3, 40320, Note_on_c, 0, 51, 32
3, 40320, Note_on_c, 0, 44, 32
3, 41280, Note_on_c, 0, 44, 0
3, 41280, Note_on_c, 0, 51, 0
3, 41280, Note_on_c, 0, 51, 31
3, 41755, Note_on_c, 0, 51, 0
3, 41760, Note_on_c, 0, 51, 34
3, 41760, Note_on_c, 0, 44, 34
3, 42235, Note_on_c, 0, 51, 0
3, 42240, Note_on_c, 0, 51, 35
3, 43200, Note_on_c, 0, 51, 0
3, 43200, Note_on_c, 0, 44, 0
3, 43200, Note_on_c, 0, 43, 31
3, 43200, Note_on_c, 0, 48, 31
3, 43675, Note_on_c, 0, 48, 0
3, 43680, Note_on_c, 0, 48, 31
3, 44640, Note_on_c, 0, 48, 0
3, 44640, Note_on_c, 0, 43, 0
3, 44640, Note_on_c, 0, 41, 31
3, 44640, Note_on_c, 0, 48, 31
3, 45120, Note_on_c, 0, 48, 0
3, 45120, Note_on_c, 0, 48, 31
3, 45600, Note_on_c, 0, 48, 0
3, 45600, Note_on_c, 0, 41, 0
3, 45600, Note_on_c, 0, 51, 31
3, 45600, Note_on_c, 0, 39, 31
3, 46080, Note_on_c, 0, 39, 0
3, 46080, Note_on_c, 0, 51, 0
3, 46080, Note_on_c, 0, 44, 28
3, 46080, Note_on_c, 0, 51, 28
3, 47040, Note_on_c, 0, 51, 0
3, 47040, Note_on_c, 0, 44, 0
3, 47280, Note_on_c, 0, 56, 54
3, 47280, Note_on_c, 0, 60, 64
3, 47280, Note_on_c, 0, 48, 54
3, 47518, Note_on_c, 0, 48, 0
3, 47518, Note_on_c, 0, 60, 0
3, 47518, Note_on_c, 0, 56, 0
3, 47520, Note_on_c, 0, 60, 73
3, 47520, Note_on_c, 0, 48, 62
3, 47520, Note_on_c, 0, 56, 62
3, 47995, Note_on_c, 0, 56, 0
3, 47995, Note_on_c, 0, 48, 0
3, 47995, Note_on_c, 0, 60, 0
3, 48000, Note_on_c, 0, 56, 59
3, 48000, Note_on_c, 0, 60, 70
3, 48000, Note_on_c, 0, 48, 59
3, 48713, Note_on_c, 0, 48, 0
3, 48713, Note_on_c, 0, 60, 0
3, 48713, Note_on_c, 0, 56, 0
3, 48720, Note_on_c, 0, 56, 64
3, 48720, Note_on_c, 0, 51, 54
3, 48720, Note_on_c, 0, 44, 54
3, 48958, Note_on_c, 0, 44, 0
3, 48958, Note_on_c, 0, 51, 0
3, 48958, Note_on_c, 0, 56, 0
3, 48960, Note_on_c, 0, 44, 61
3, 48960, Note_on_c, 0, 51, 61
3, 48960, Note_on_c, 0, 56, 72
3, 49435, Note_on_c, 0, 56, 0
3, 49435, Note_on_c, 0, 51, 0
3, 49435, Note_on_c, 0, 44, 0
3, 49440, Note_on_c, 0, 56, 70
3, 49440, Note_on_c, 0, 51, 59
3, 49440, Note_on_c, 0, 44, 59
3, 50153, Note_on_c, 0, 44, 0
3, 50153, Note_on_c, 0, 51, 0
3, 50153, Note_on_c, 0, 56, 0
3, 50160, Note_on_c, 0, 41, 54
3, 50160, Note_on_c, 0, 53, 64
3, 50400, Note_on_c, 0, 53, 0
3, 50400, Note_on_c, 0, 41, 0
3, 50400, Note_on_c, 0, 41, 54
3, 50400, Note_on_c, 0, 53, 64
3, 50760, Note_on_c, 0, 53, 0
3, 50760, Note_on_c, 0, 41, 0
3, 50880, Note_on_c, 0, 55, 64
3, 50880, Note_on_c, 0, 43, 54
3, 51240, Note_on_c, 0, 43, 0
3, 51240, Note_on_c, 0, 55, 0
3, 51360, Note_on_c, 0, 39, 54
3, 51360, Note_on_c, 0, 51, 64
3, 51720, Note_on_c, 0, 51, 0
3, 51720, Note_on_c, 0, 39, 0
3, 51840, Note_on_c, 0, 56, 64
3, 51840, Note_on_c, 0, 44, 54
3, 51840, Note_on_c, 0, 51, 54
3, 53040, Note_on_c, 0, 51, 0
3, 53040, Note_on_c, 0, 44, 0
3, 53040, Note_on_c, 0, 56, 0
3, 53040, Note_on_c, 0, 44, 68
3, 53040, Note_on_c, 0, 37, 68
3, 53040, Note_on_c, 0, 49, 80
3, 53278, Note_on_c, 0, 49, 0
3, 53278, Note_on_c, 0, 37, 0
3, 53278, Note_on_c, 0, 44, 0
3, 53280, Note_on_c, 0, 44, 68
3, 53280, Note_on_c, 0, 37, 68
3, 53280, Note_on_c, 0, 49, 80
3, 53755, Note_on_c, 0, 49, 0
3, 53755, Note_on_c, 0, 37, 0
3, 53755, Note_on_c, 0, 44, 0
3, 53760, Note_on_c, 0, 37, 68
3, 53760, Note_on_c, 0, 44, 68
3, 53760, Note_on_c, 0, 49, 80
3, 54473, Note_on_c, 0, 49, 0
3, 54473, Note_on_c, 0, 44, 0
3, 54473, Note_on_c, 0, 37, 0
3, 54480, Note_on_c, 0, 37, 68
3, 54480, Note_on_c, 0, 49, 80
3, 54480, Note_on_c, 0, 44, 68
3, 54718, Note_on_c, 0, 44, 0
3, 54718, Note_on_c, 0, 49, 0
3, 54718, Note_on_c, 0, 37, 0
3, 54720, Note_on_c, 0, 44, 68
3, 54720, Note_on_c, 0, 37, 68
3, 54720, Note_on_c, 0, 49, 80
3, 55195, Note_on_c, 0, 49, 0
3, 55195, Note_on_c, 0, 37, 0
3, 55195, Note_on_c, 0, 44, 0
3, 55200, Note_on_c, 0, 49, 80
3, 55200, Note_on_c, 0, 44, 68
3, 55200, Note_on_c, 0, 37, 68
3, 55913, Note_on_c, 0, 37, 0
3, 55913, Note_on_c, 0, 44, 0
3, 55913, Note_on_c, 0, 49, 0
3, 55920, Note_on_c, 0, 49, 80
3, 55920, Note_on_c, 0, 37, 68
3, 56158, Note_on_c, 0, 37, 0
3, 56158, Note_on_c, 0, 49, 0
3, 56160, Note_on_c, 0, 37, 68
3, 56160, Note_on_c, 0, 49, 80
3, 56520, Note_on_c, 0, 49, 0
3, 56520, Note_on_c, 0, 37, 0
3, 56640, Note_on_c, 0, 45, 80
3, 56640, Note_on_c, 0, 33, 68
3, 57000, Note_on_c, 0, 33, 0
3, 57000, Note_on_c, 0, 45, 0
3, 57120, Note_on_c, 0, 30, 68
3, 57120, Note_on_c, 0, 42, 80
3, 57480, Note_on_c, 0, 42, 0
3, 57480, Note_on_c, 0, 30, 0
3, 57600, Note_on_c, 0, 37, 68
3, 57600, Note_on_c, 0, 49, 80
3, 58800, Note_on_c, 0, 49, 0
3, 58800, Note_on_c, 0, 37, 0
3, 58800, Note_on_c, 0, 45, 80
3, 58800, Note_on_c, 0, 33, 68
3, 59038, Note_on_c, 0, 33, 0
3, 59038, Note_on_c, 0, 45, 0
3, 59040, Note_on_c, 0, 45, 80
3, 59040, Note_on_c, 0, 33, 68
3, 61680, Note_on_c, 0, 33, 0
3, 61680, Note_on_c, 0, 45, 0
3, 61680, Note_on_c, 0, 52, 54
3, 61680, Note_on_c, 0, 40, 45
3, 61800, Note_on_c, 0, 40, 0
3, 61800, Note_on_c, 0, 52, 0
3, 61920, Note_on_c, 0, 52, 54
3, 61920, Note_on_c, 0, 40, 45
3, 64800, Note_on_c, 0, 40, 0
3, 64800, Note_on_c, 0, 52, 0
3, 64800, Note_on_c, 0, 51, 27
3, 64800, Note_on_c, 0, 39, 27
3, 65275, Note_on_c, 0, 51, 0
3, 65280, Note_on_c, 0, 51, 27
3, 66240, Note_on_c, 0, 51, 0
3, 66240, Note_on_c, 0, 39, 0
3, 66240, Note_on_c, 0, 39, 27
3, 66240, Note_on_c, 0, 51, 27
3, 66715, Note_on_c, 0, 51, 0
3, 66720, Note_on_c, 0, 51, 27
3, 67195, Note_on_c, 0, 51, 0
3, 67200, Note_on_c, 0, 39, 0
3, 67200, Note_on_c, 0, 51, 27
3, 67675, Note_on_c, 0, 51, 0
3, 67680, Note_on_c, 0, 51, 27
3, 67680, Note_on_c, 0, 44, 27
3, 68155, Note_on_c, 0, 51, 0
3, 68160, Note_on_c, 0, 51, 27
3, 69120, Note_on_c, 0, 51, 0
3, 69120, Note_on_c, 0, 44, 0
3, 69120, Note_on_c, 0, 46, 27
3, 69120, Note_on_c, 0, 51, 27
3, 69595, Note_on_c, 0, 51, 0
3, 69600, Note_on_c, 0, 51, 27
3, 70560, Note_on_c, 0, 51, 0
3, 70560, Note_on_c, 0, 46, 0
3, 70560, Note_on_c, 0, 51, 27
3, 70560, Note_on_c, 0, 48, 27
3, 71035, Note_on_c, 0, 51, 0
3, 71040, Note_on_c, 0, 51, 27
3, 71515, Note_on_c, 0, 51, 0
3, 71520, Note_on_c, 0, 48, 0
3, 71520, Note_on_c, 0, 51, 27
3, 71520, Note_on_c, 0, 43, 27
3, 71995, Note_on_c, 0, 43, 0
3, 71995, Note_on_c, 0, 51, 0
3, 72000, Note_on_c, 0, 51, 27
3, 72000, Note_on_c, 0, 44, 27
3, 72960, Note_on_c, 0, 44, 0
3, 72960, Note_on_c, 0, 51, 0
3, 72960, Note_on_c, 0, 51, 29
3, 73435, Note_on_c, 0, 51, 0
3, 73440, Note_on_c, 0, 51, 36
3, 73440, Note_on_c, 0, 42, 36
3, 73915, Note_on_c, 0, 51, 0
3, 73920, Note_on_c, 0, 51, 37
3, 74880, Note_on_c, 0, 51, 0
3, 74880, Note_on_c, 0, 42, 0
3, 74880, Note_on_c, 0, 41, 37
3, 74880, Note_on_c, 0, 51, 37
3, 75355, Note_on_c, 0, 51, 0
3, 75360, Note_on_c, 0, 51, 35
3, 76080, Note_on_c, 0, 51, 0
3, 76080, Note_on_c, 0, 41, 0
3, 76080, Note_on_c, 0, 40, 35
3, 76080, Note_on_c, 0, 49, 35
3, 76318, Note_on_c, 0, 49, 0
3, 76318, Note_on_c, 0, 40, 0
3, 76320, Note_on_c, 0, 40, 35
3, 76320, Note_on_c, 0, 49, 35
3, 76800, Note_on_c, 0, 49, 0
3, 76800, Note_on_c, 0, 40, 0
3, 76800, Note_on_c, 0, 51, 29
3, 76800, Note_on_c, 0, 39, 28
3, 77280, Note_on_c, 0, 39, 0
3, 77280, Note_on_c, 0, 51, 0
3, 77280, Note_on_c, 0, 51, 30
3, 77280, Note_on_c, 0, 49, 30
3, 77280, Note_on_c, 0, 39, 30
3, 77712, Note_on_c, 0, 39, 0
3, 77712, Note_on_c, 0, 49, 0
3, 77712, Note_on_c, 0, 51, 0
3, 77760, Note_on_c, 0, 48, 28
3, 77760, Note_on_c, 0, 51, 28
3, 77760, Note_on_c, 0, 44, 28
3, 78720, Note_on_c, 0, 44, 0
3, 78720, Note_on_c, 0, 51, 0
3, 78720, Note_on_c, 0, 48, 0
3, 78720, Note_on_c, 0, 51, 27
3, 79195, Note_on_c, 0, 51, 0
3, 79200, Note_on_c, 0, 51, 27
3, 79200, Note_on_c, 0, 44, 27
3, 79675, Note_on_c, 0, 51, 0
3, 79680, Note_on_c, 0, 51, 27
3, 80640, Note_on_c, 0, 51, 0
3, 80640, Note_on_c, 0, 44, 0
3, 80640, Note_on_c, 0, 51, 27
3, 80640, Note_on_c, 0, 46, 27
3, 81115, Note_on_c, 0, 51, 0
3, 81120, Note_on_c, 0, 51, 27
3, 82080, Note_on_c, 0, 51, 0
3, 82080, Note_on_c, 0, 46, 0
3, 82080, Note_on_c, 0, 51, 27
3, 82080, Note_on_c, 0, 48, 27
3, 82555, Note_on_c, 0, 51, 0
3, 82560, Note_on_c, 0, 51, 28
3, 83035, Note_on_c, 0, 51, 0
3, 83040, Note_on_c, 0, 48, 0
3, 83040, Note_on_c, 0, 43, 29
3, 83040, Note_on_c, 0, 51, 29
3, 83515, Note_on_c, 0, 51, 0
3, 83515, Note_on_c, 0, 43, 0
3, 83520, Note_on_c, 0, 44, 32
3, 83520, Note_on_c, 0, 51, 32
3, 84480, Note_on_c, 0, 51, 0
3, 84480, Note_on_c, 0, 44, 0
3, 84480, Note_on_c, 0, 51, 37
3, 84955, Note_on_c, 0, 51, 0
3, 84960, Note_on_c, 0, 51, 36
3, 84960, Note_on_c, 0, 42, 36
3, 85435, Note_on_c, 0, 51, 0
3, 85440, Note_on_c, 0, 51, 37
3, 86400, Note_on_c, 0, 51, 0
3, 86400, Note_on_c, 0, 42, 0
3, 86400, Note_on_c, 0, 41, 37
3, 86400, Note_on_c, 0, 51, 37
3, 86875, Note_on_c, 0, 51, 0
3, 86880, Note_on_c, 0, 51, 35
3, 87593, Note_on_c, 0, 51, 0
3, 87600, Note_on_c, 0, 41, 0
3, 87600, Note_on_c, 0, 49, 35
3, 87600, Note_on_c, 0, 40, 35
3, 87838, Note_on_c, 0, 40, 0
3, 87838, Note_on_c, 0, 49, 0
3, 87840, Note_on_c, 0, 49, 35
3, 87840, Note_on_c, 0, 40, 35
3, 88315, Note_on_c, 0, 40, 0
3, 88315, Note_on_c, 0, 49, 0
3, 88320, Note_on_c, 0, 51, 29
3, 88320, Note_on_c, 0, 39, 28
3, 88795, Note_on_c, 0, 39, 0
3, 88795, Note_on_c, 0, 51, 0
3, 88800, Note_on_c, 0, 51, 30
3, 88800, Note_on_c, 0, 49, 30
3, 88800, Note_on_c, 0, 39, 30
3, 89232, Note_on_c, 0, 39, 0
3, 89232, Note_on_c, 0, 49, 0
3, 89232, Note_on_c, 0, 51, 0
3, 89280, Note_on_c, 0, 48, 28
3, 89280, Note_on_c, 0, 51, 28
3, 89280, Note_on_c, 0, 44, 28
3, 90240, Note_on_c, 0, 44, 0
3, 90240, Note_on_c, 0, 51, 0
3, 90240, Note_on_c, 0, 48, 0
3, 90480, Note_on_c, 0, 56, 54
3, 90480, Note_on_c, 0, 60, 64
3, 90480, Note_on_c, 0, 48, 54
3, 90718, Note_on_c, 0, 48, 0
3, 90718, Note_on_c, 0, 60, 0
3, 90718, Note_on_c, 0, 56, 0
3, 90720, Note_on_c, 0, 56, 62
3, 90720, Note_on_c, 0, 48, 62
3, 90720, Note_on_c, 0, 60, 73
3, 91195, Note_on_c, 0, 60, 0
3, 91195, Note_on_c, 0, 48, 0
3, 91195, Note_on_c, 0, 56, 0
3, 91200, Note_on_c, 0, 48, 59
3, 91200, Note_on_c, 0, 56, 59
3, 91200, Note_on_c, 0, 60, 70
3, 91913, Note_on_c, 0, 60, 0
3, 91913, Note_on_c, 0, 56, 0
3, 91913, Note_on_c, 0, 48, 0
3, 91920, Note_on_c, 0, 51, 54
3, 91920, Note_on_c, 0, 44, 54
3, 91920, Note_on_c, 0, 56, 64
3, 92158, Note_on_c, 0, 56, 0
3, 92158, Note_on_c, 0, 44, 0
3, 92158, Note_on_c, 0, 51, 0
3, 92160, Note_on_c, 0, 51, 61
3, 92160, Note_on_c, 0, 56, 72
3, 92160, Note_on_c, 0, 44, 61
3, 92635, Note_on_c, 0, 44, 0
3, 92635, Note_on_c, 0, 56, 0
3, 92635, Note_on_c, 0, 51, 0
3, 92640, Note_on_c, 0, 51, 59
3, 92640, Note_on_c, 0, 56, 70
3, 92640, Note_on_c, 0, 44, 59
3, 93353, Note_on_c, 0, 44, 0
3, 93353, Note_on_c, 0, 56, 0
3, 93353, Note_on_c, 0, 51, 0
3, 93360, Note_on_c, 0, 41, 54
3, 93360, Note_on_c, 0, 53, 64
3, 93598, Note_on_c, 0, 53, 0
3, 93598, Note_on_c, 0, 41, 0
3, 93600, Note_on_c, 0, 41, 54
3, 93600, Note_on_c, 0, 53, 64
3, 93960, Note_on_c, 0, 53, 0
3, 93960, Note_on_c, 0, 41, 0
3, 94080, Note_on_c, 0, 55, 64
3, 94080, Note_on_c, 0, 43, 54
3, 94440, Note_on_c, 0, 43, 0
3, 94440, Note_on_c, 0, 55, 0
3, 94560, Note_on_c, 0, 39, 54
3, 94560, Note_on_c, 0, 51, 64
3, 94920, Note_on_c, 0, 51, 0
3, 94920, Note_on_c, 0, 39, 0
3, 95040, Note_on_c, 0, 51, 54
3, 95040, Note_on_c, 0, 56, 64
3, 95040, Note_on_c, 0, 44, 54
3, 96240, Note_on_c, 0, 44, 0
3, 96240, Note_on_c, 0, 56, 0
3, 96240, Note_on_c, 0, 51, 0
3, 96240, Note_on_c, 0, 37, 68
3, 96240, Note_on_c, 0, 44, 68
3, 96240, Note_on_c, 0, 49, 80
3, 96478, Note_on_c, 0, 49, 0
3, 96478, Note_on_c, 0, 44, 0
3, 96478, Note_on_c, 0, 37, 0
3, 96480, Note_on_c, 0, 37, 68
3, 96480, Note_on_c, 0, 49, 80
3, 96480, Note_on_c, 0, 44, 68
3, 96955, Note_on_c, 0, 44, 0
3, 96955, Note_on_c, 0, 49, 0
3, 96955, Note_on_c, 0, 37, 0
3, 96960, Note_on_c, 0, 49, 80
3, 96960, Note_on_c, 0, 37, 68
3, 96960, Note_on_c, 0, 44, 68
3, 97673, Note_on_c, 0, 44, 0
3, 97673, Note_on_c, 0, 37, 0
3, 97673, Note_on_c, 0, 49, 0
3, 97680, Note_on_c, 0, 44, 68
3, 97680, Note_on_c, 0, 49, 80
3, 97680, Note_on_c, 0, 37, 68
3, 97918, Note_on_c, 0, 37, 0
3, 97918, Note_on_c, 0, 49, 0
3, 97918, Note_on_c, 0, 44, 0
3, 97920, Note_on_c, 0, 44, 68
3, 97920, Note_on_c, 0, 49, 80
3, 97920, Note_on_c, 0, 37, 68
3, 98395, Note_on_c, 0, 37, 0
3, 98395, Note_on_c, 0, 49, 0
3, 98395, Note_on_c, 0, 44, 0
3, 98400, Note_on_c, 0, 44, 68
3, 98400, Note_on_c, 0, 49, 80
3, 98400, Note_on_c, 0, 37, 68
3, 99113, Note_on_c, 0, 37, 0
3, 99113, Note_on_c, 0, 49, 0
3, 99113, Note_on_c, 0, 44, 0
3, 99120, Note_on_c, 0, 37, 68
3, 99120, Note_on_c, 0, 49, 80
3, 99358, Note_on_c, 0, 49, 0
3, 99358, Note_on_c, 0, 37, 0
3, 99360, Note_on_c, 0, 49, 80
3, 99360, Note_on_c, 0, 37, 68
3, 99720, Note_on_c, 0, 37, 0
3, 99720, Note_on_c, 0, 49, 0
3, 99840, Note_on_c, 0, 45, 80
3, 99840, Note_on_c, 0, 33, 68
3, 100200, Note_on_c, 0, 33, 0
3, 100200, Note_on_c, 0, 45, 0
3, 100320, Note_on_c, 0, 42, 80
3, 100320, Note_on_c, 0, 30, 68
3, 100680, Note_on_c, 0, 30, 0
3, 100680, Note_on_c, 0, 42, 0
3, 100800, Note_on_c, 0, 37, 68
3, 100800, Note_on_c, 0, 49, 80
3, 102000, Note_on_c, 0, 49, 0
3, 102000, Note_on_c, 0, 37, 0
3, 102000, Note_on_c, 0, 33, 68
3, 102000, Note_on_c, 0, 45, 80
3, 102238, Note_on_c, 0, 45, 0
3, 102238, Note_on_c, 0, 33, 0
3, 102240, Note_on_c, 0, 45, 80
3, 102240, Note_on_c, 0, 33, 68
3, 104880, Note_on_c, 0, 33, 0
3, 104880, Note_on_c, 0, 45, 0
3, 104880, Note_on_c, 0, 52, 54
3, 104880, Note_on_c, 0, 40, 45
3, 105000, Note_on_c, 0, 40, 0
3, 105000, Note_on_c, 0, 52, 0
3, 105120, Note_on_c, 0, 40, 45
3, 105120, Note_on_c, 0, 52, 54
3, 108000, Note_on_c, 0, 52, 0
3, 108000, Note_on_c, 0, 40, 0
3, 108000, Note_on_c, 0, 51, 27
3, 108000, Note_on_c, 0, 39, 27
3, 108475, Note_on_c, 0, 51, 0
3, 108480, Note_on_c, 0, 51, 27
3, 109440, Note_on_c, 0, 51, 0
3, 109440, Note_on_c, 0, 39, 0
3, 109440, Note_on_c, 0, 51, 27
3, 109440, Note_on_c, 0, 39, 27
3, 109915, Note_on_c, 0, 51, 0
3, 109920, Note_on_c, 0, 51, 27
3, 110395, Note_on_c, 0, 51, 0
3, 110400, Note_on_c, 0, 39, 0
3, 110400, Note_on_c, 0, 51, 27
3, 110875, Note_on_c, 0, 51, 0
3, 110880, Note_on_c, 0, 44, 27
3, 110880, Note_on_c, 0, 51, 27
3, 111355, Note_on_c, 0, 51, 0
3, 111360, Note_on_c, 0, 51, 27
3, 112320, Note_on_c, 0, 51, 0
3, 112320, Note_on_c, 0, 44, 0
3, 112320, Note_on_c, 0, 51, 27
3, 112320, Note_on_c, 0, 46, 27
3, 112795, Note_on_c, 0, 51, 0
3, 112800, Note_on_c, 0, 51, 27
3, 113760, Note_on_c, 0, 51, 0
3, 113760, Note_on_c, 0, 46, 0
3, 113760, Note_on_c, 0, 51, 27
3, 113760, Note_on_c, 0, 48, 27
3, 114235, Note_on_c, 0, 51, 0
3, 114240, Note_on_c, 0, 51, 27
3, 114711, Note_on_c, 0, 48, 0
3, 114715, Note_on_c, 0, 51, 0
3, 114720, Note_on_c, 0, 51, 27
3, 114720, Note_on_c, 0, 43, 27
3, 115195, Note_on_c, 0, 43, 0
3, 115195, Note_on_c, 0, 51, 0
3, 115200, Note_on_c, 0, 51, 27
3, 115200, Note_on_c, 0, 44, 27
3, 116160, Note_on_c, 0, 44, 0
3, 116160, Note_on_c, 0, 51, 0
3, 116160, Note_on_c, 0, 51, 29
3, 116635, Note_on_c, 0, 51, 0
3, 116640, Note_on_c, 0, 51, 36
3, 116640, Note_on_c, 0, 42, 36
3, 117115, Note_on_c, 0, 51, 0
3, 117120, Note_on_c, 0, 51, 37
3, 118080, Note_on_c, 0, 51, 0
3, 118080, Note_on_c, 0, 42, 0
3, 118080, Note_on_c, 0, 51, 37
3, 118080, Note_on_c, 0, 41, 37
3, 118555, Note_on_c, 0, 51, 0
3, 118560, Note_on_c, 0, 51, 35
3, 119280, Note_on_c, 0, 51, 0
3, 119280, Note_on_c, 0, 41, 0
3, 119280, Note_on_c, 0, 40, 35
3, 119280, Note_on_c, 0, 49, 35
3, 119518, Note_on_c, 0, 49, 0
3, 119518, Note_on_c, 0, 40, 0
3, 119520, Note_on_c, 0, 49, 35
3, 119520, Note_on_c, 0, 40, 35
3, 119995, Note_on_c, 0, 40, 0
3, 119995, Note_on_c, 0, 49, 0
3, 120000, Note_on_c, 0, 39, 28
3, 120000, Note_on_c, 0, 51, 29
3, 120475, Note_on_c, 0, 51, 0
3, 120475, Note_on_c, 0, 39, 0
3, 120480, Note_on_c, 0, 39, 30
3, 120480, Note_on_c, 0, 49, 30
3, 120480, Note_on_c, 0, 51, 30
3, 120912, Note_on_c, 0, 51, 0
3, 120912, Note_on_c, 0, 49, 0
3, 120912, Note_on_c, 0, 39, 0
3, 120960, Note_on_c, 0, 51, 28
3, 120960, Note_on_c, 0, 48, 28
3, 120960, Note_on_c, 0, 44, 28
3, 121920, Note_on_c, 0, 44, 0
3, 121920, Note_on_c, 0, 48, 0
3, 121920, Note_on_c, 0, 51, 0
3, 121920, Note_on_c, 0, 51, 27
3, 122395, Note_on_c, 0, 51, 0
3, 122400, Note_on_c, 0, 44, 27
3, 122400, Note_on_c, 0, 51, 27
3, 122875, Note_on_c, 0, 51, 0
3, 122880, Note_on_c, 0, 51, 27
3, 123840, Note_on_c, 0, 51, 0
3, 123840, Note_on_c, 0, 44, 0
3, 123840, Note_on_c, 0, 46, 27
3, 123840, Note_on_c, 0, 51, 27
3, 124315, Note_on_c, 0, 51, 0
3, 124320, Note_on_c, 0, 51, 27
3, 125280, Note_on_c, 0, 51, 0
3, 125280, Note_on_c, 0, 46, 0
3, 125280, Note_on_c, 0, 48, 27
3, 125280, Note_on_c, 0, 51, 27
3, 125755, Note_on_c, 0, 51, 0
3, 125760, Note_on_c, 0, 51, 28
3, 126235, Note_on_c, 0, 51, 0
3, 126240, Note_on_c, 0, 48, 0
3, 126240, Note_on_c, 0, 43, 29
3, 126240, Note_on_c, 0, 51, 29
3, 126715, Note_on_c, 0, 51, 0
3, 126715, Note_on_c, 0, 43, 0
3, 126720, Note_on_c, 0, 44, 32
3, 126720, Note_on_c, 0, 51, 32
3, 127680, Note_on_c, 0, 51, 0
3, 127680, Note_on_c, 0, 44, 0
3, 127680, Note_on_c, 0, 51, 37
3, 128155, Note_on_c, 0, 51, 0
3, 128160, Note_on_c, 0, 51, 36
3, 128160, Note_on_c, 0, 42, 36
3, 128635, Note_on_c, 0, 51, 0
3, 128640, Note_on_c, 0, 51, 37
3, 129600, Note_on_c, 0, 51, 0
3, 129600, Note_on_c, 0, 42, 0
3, 129600, Note_on_c, 0, 41, 37
3, 129600, Note_on_c, 0, 51, 37
3, 130075, Note_on_c, 0, 51, 0
3, 130080, Note_on_c, 0, 51, 35
3, 130800, Note_on_c, 0, 51, 0
3, 130800, Note_on_c, 0, 41, 0
3, 130800, Note_on_c, 0, 40, 36
3, 130800, Note_on_c, 0, 49, 36
3, 131038, Note_on_c, 0, 49, 0
3, 131038, Note_on_c, 0, 40, 0
3, 131040, Note_on_c, 0, 49, 35
3, 131040, Note_on_c, 0, 40, 35
3, 131520, Note_on_c, 0, 40, 0
3, 131520, Note_on_c, 0, 49, 0
3, 131520, Note_on_c, 0, 51, 29
3, 131520, Note_on_c, 0, 39, 28
3, 132000, Note_on_c, 0, 39, 0
3, 132000, Note_on_c, 0, 51, 0
3, 132000, Note_on_c, 0, 51, 30
3, 132000, Note_on_c, 0, 49, 30
3, 132000, Note_on_c, 0, 39, 30
3, 132432, Note_on_c, 0, 39, 0
3, 132432, Note_on_c, 0, 49, 0
3, 132432, Note_on_c, 0, 51, 0
3, 132480, Note_on_c, 0, 48, 29
3, 132480, Note_on_c, 0, 51, 29
3, 132480, Note_on_c, 0, 44, 29
3, 133440, Note_on_c, 0, 44, 0
3, 133440, Note_on_c, 0, 51, 0
3, 133440, Note_on_c, 0, 48, 0
3, 133440, Note_on_c, 0, 44, 51
3, 133920, Note_on_c, 0, 44, 0
3, 133920, Control_c, 0, 91, 126
3, 133920, Note_on_c, 0, 37, 51
3, 134400, Note_on_c, 0, 44, 60
3, 135360, Note_on_c, 0, 37, 0
3, 135360, Note_on_c, 0, 41, 51
3, 135840, Note_on_c, 0, 44, 0
3, 135840, Note_on_c, 0, 44, 61
3, 136800, Note_on_c, 0, 41, 0
3, 136800, Note_on_c, 0, 36, 52
3, 137280, Note_on_c, 0, 44, 0
3, 137280, Note_on_c, 0, 44, 59
3, 138240, Note_on_c, 0, 36, 0
3, 138240, Note_on_c, 0, 32, 52
3, 138720, Note_on_c, 0, 44, 0
3, 138720, Note_on_c, 0, 44, 59
3, 139680, Note_on_c, 0, 32, 0
3, 139680, Note_on_c, 0, 37, 51
3, 140160, Note_on_c, 0, 44, 0
3, 140160, Note_on_c, 0, 44, 60
3, 141120, Note_on_c, 0, 37, 0
3, 141120, Note_on_c, 0, 41, 51
3, 141600, Note_on_c, 0, 44, 0
3, 141600, Note_on_c, 0, 44, 61
3, 142560, Note_on_c, 0, 41, 0
3, 142560, Note_on_c, 0, 36, 52
3, 143040, Note_on_c, 0, 44, 0
3, 143040, Note_on_c, 0, 44, 59
3, 144000, Note_on_c, 0, 36, 0
3, 144000, Note_on_c, 0, 32, 52
3, 144480, Note_on_c, 0, 44, 0
3, 144480, Note_on_c, 0, 44, 59
3, 145440, Note_on_c, 0, 44, 0
3, 145440, Note_on_c, 0, 32, 0
3, 145440, Note_on_c, 0, 34, 51
3, 145920, Note_on_c, 0, 46, 49
3, 146880, Note_on_c, 0, 46, 0
3, 146880, Note_on_c, 0, 34, 0
3, 146880, Note_on_c, 0, 39, 44
3, 147360, Note_on_c, 0, 51, 41
3, 147840, Note_on_c, 0, 51, 0
3, 147840, Note_on_c, 0, 39, 0
3, 147840, Note_on_c, 0, 54, 39
3, 147840, Note_on_c, 0, 42, 39
3, 148320, Note_on_c, 0, 42, 0
3, 148320, Note_on_c, 0, 54, 0
3, 148320, Note_on_c, 0, 44, 36
3, 148800, Note_on_c, 0, 56, 34
3, 149760, Note_on_c, 0, 44, 0
3, 149760, Note_on_c, 0, 49, 34
3, 150720, Note_on_c, 0, 49, 0
3, 150720, Note_on_c, 0, 56, 0
3, 151200, Control_c, 0, 91, 126
3, 151200, Note_on_c, 0, 37, 51
3, 151680, Note_on_c, 0, 44, 60
3, 152640, Note_on_c, 0, 37, 0
3, 152640, Note_on_c, 0, 41, 51
3, 153120, Note_on_c, 0, 44, 0
3, 153120, Note_on_c, 0, 44, 61
3, 154080, Note_on_c, 0, 41, 0
3, 154080, Note_on_c, 0, 36, 52
3, 154560, Note_on_c, 0, 44, 0
3, 154560, Note_on_c, 0, 44, 59
3, 155520, Note_on_c, 0, 36, 0
3, 155520, Note_on_c, 0, 32, 52
3, 156000, Note_on_c, 0, 44, 0
3, 156000, Note_on_c, 0, 44, 59
3, 156960, Note_on_c, 0, 32, 0
3, 156960, Note_on_c, 0, 37, 51
3, 157440, Note_on_c, 0, 44, 0
3, 157440, Note_on_c, 0, 44, 60
3, 158400, Note_on_c, 0, 37, 0
3, 158400, Note_on_c, 0, 41, 51
3, 158880, Note_on_c, 0, 44, 0
3, 158880, Note_on_c, 0, 44, 61
3, 159840, Note_on_c, 0, 41, 0
3, 159840, Note_on_c, 0, 36, 52
3, 160320, Note_on_c, 0, 44, 0
3, 160320, Note_on_c, 0, 44, 59
3, 161280, Note_on_c, 0, 36, 0
3, 161280, Note_on_c, 0, 32, 52
3, 161760, Note_on_c, 0, 44, 0
3, 161760, Note_on_c, 0, 44, 59
3, 162720, Note_on_c, 0, 44, 0
3, 162720, Note_on_c, 0, 32, 0
3, 162720, Note_on_c, 0, 34, 51
3, 163200, Note_on_c, 0, 46, 49
3, 164160, Note_on_c, 0, 46, 0
3, 164160, Note_on_c, 0, 34, 0
3, 164160, Note_on_c, 0, 39, 44
3, 164640, Note_on_c, 0, 51, 41
3, 165120, Note_on_c, 0, 51, 0
3, 165120, Note_on_c, 0, 39, 0
3, 165120, Note_on_c, 0, 42, 39
3, 165120, Note_on_c, 0, 54, 39
3, 165600, Note_on_c, 0, 54, 0
3, 165600, Note_on_c, 0, 42, 0
3, 165600, Note_on_c, 0, 44, 36
3, 166080, Note_on_c, 0, 56, 34
3, 167040, Note_on_c, 0, 44, 0
3, 167040, Note_on_c, 0, 49, 34
3, 168000, Note_on_c, 0, 49, 0
3, 168000, Note_on_c, 0, 56, 0
3, 168480, Note_on_c, 0, 37, 73
3, 168480, Control_c, 0, 91, 126
3, 168960, Note_on_c, 0, 44, 85
3, 169920, Note_on_c, 0, 37, 0
3, 169920, Note_on_c, 0, 40, 73
3, 170400, Note_on_c, 0, 44, 0
3, 170400, Note_on_c, 0, 44, 86
3, 171360, Note_on_c, 0, 40, 0
3, 171360, Note_on_c, 0, 36, 74
3, 171840, Note_on_c, 0, 44, 0
3, 171840, Note_on_c, 0, 44, 84
3, 172800, Note_on_c, 0, 36, 0
3, 172800, Note_on_c, 0, 32, 74
3, 173280, Note_on_c, 0, 44, 0
3, 173280, Note_on_c, 0, 44, 84
3, 174240, Note_on_c, 0, 32, 0
3, 174240, Note_on_c, 0, 37, 73
3, 174720, Note_on_c, 0, 44, 0
3, 174720, Note_on_c, 0, 44, 85
3, 175680, Note_on_c, 0, 37, 0
3, 175680, Note_on_c, 0, 40, 73
3, 176160, Note_on_c, 0, 44, 0
3, 176160, Note_on_c, 0, 44, 86
3, 177120, Note_on_c, 0, 40, 0
3, 177120, Note_on_c, 0, 32, 74
3, 177600, Note_on_c, 0, 44, 0
3, 177600, Note_on_c, 0, 44, 84
3, 178560, Note_on_c, 0, 32, 0
3, 178560, Note_on_c, 0, 37, 73
3, 179040, Note_on_c, 0, 44, 0
3, 179040, Note_on_c, 0, 44, 87
3, 180000, Note_on_c, 0, 44, 0
3, 180000, Note_on_c, 0, 37, 0
3, 180000, Note_on_c, 0, 30, 87
3, 180480, Note_on_c, 0, 42, 92
3, 181440, Note_on_c, 0, 42, 0
3, 181440, Note_on_c, 0, 30, 0
3, 181440, Note_on_c, 0, 40, 94
3, 181920, Note_on_c, 0, 52, 99
3, 182880, Note_on_c, 0, 52, 0
3, 182880, Note_on_c, 0, 40, 0
3, 182880, Note_on_c, 0, 45, 102
3, 182880, Note_on_c, 0, 40, 86
3, 182880, Note_on_c, 0, 33, 86
3, 183120, Note_on_c, 0, 33, 0
3, 183120, Note_on_c, 0, 40, 0
3, 183120, Note_on_c, 0, 45, 0
3, 183360, Note_on_c, 0, 33, 90
3, 183360, Note_on_c, 0, 40, 90
3, 183360, Note_on_c, 0, 45, 107
3, 184320, Note_on_c, 0, 45, 0
3, 184320, Note_on_c, 0, 40, 0
3, 184320, Note_on_c, 0, 33, 0
3, 184320, Note_on_c, 0, 45, 102
3, 184320, Note_on_c, 0, 33, 86
3, 184320, Note_on_c, 0, 40, 86
3, 184560, Note_on_c, 0, 40, 0
3, 184560, Note_on_c, 0, 33, 0
3, 184560, Note_on_c, 0, 45, 0
3, 184800, Note_on_c, 0, 33, 92
3, 184800, Note_on_c, 0, 45, 109
3, 184800, Note_on_c, 0, 40, 92
3, 185760, Note_on_c, 0, 40, 0
3, 185760, Note_on_c, 0, 45, 0
3, 185760, Note_on_c, 0, 33, 0
3, 185760, Note_on_c, 0, 33, 86
3, 185760, Note_on_c, 0, 45, 102
3, 185760, Note_on_c, 0, 40, 86
3, 186000, Note_on_c, 0, 40, 0
3, 186000, Note_on_c, 0, 45, 0
3, 186000, Note_on_c, 0, 33, 0
3, 186240, Note_on_c, 0, 40, 91
3, 186240, Note_on_c, 0, 45, 108
3, 186240, Note_on_c, 0, 33, 91
3, 187200, Note_on_c, 0, 33, 0
3, 187200, Note_on_c, 0, 45, 0
3, 187200, Note_on_c, 0, 40, 0
3, 187200, Note_on_c, 0, 33, 86
3, 187200, Note_on_c, 0, 45, 102
3, 187200, Note_on_c, 0, 40, 86
3, 187440, Note_on_c, 0, 40, 0
3, 187440, Note_on_c, 0, 45, 0
3, 187440, Note_on_c, 0, 33, 0
3, 187680, Note_on_c, 0, 40, 92
3, 187680, Note_on_c, 0, 45, 109
3, 187680, Note_on_c, 0, 33, 92
3, 189120, Note_on_c, 0, 33, 0
3, 189120, Note_on_c, 0, 45, 0
3, 189120, Note_on_c, 0, 40, 0
3, 189120, Note_on_c, 0, 45, 84
3, 189120, Note_on_c, 0, 40, 71
3, 189120, Note_on_c, 0, 33, 71
3, 189600, Note_on_c, 0, 33, 0
3, 189600, Note_on_c, 0, 40, 0
3, 189600, Note_on_c, 0, 45, 0
3, 189600, Note_on_c, 0, 45, 86
3, 189600, Note_on_c, 0, 33, 73
3, 189600, Note_on_c, 0, 40, 73
3, 190080, Note_on_c, 0, 40, 0
3, 190080, Note_on_c, 0, 33, 0
3, 190080, Note_on_c, 0, 45, 0
3, 190080, Note_on_c, 0, 40, 68
3, 190080, Note_on_c, 0, 45, 80
3, 190080, Note_on_c, 0, 33, 68
3, 190560, Note_on_c, 0, 33, 0
3, 190560, Note_on_c, 0, 45, 0
3, 190560, Note_on_c, 0, 40, 0
3, 190560, Note_on_c, 0, 33, 64
3, 190560, Note_on_c, 0, 40, 64
3, 190560, Note_on_c, 0, 45, 76
3, 191040, Note_on_c, 0, 45, 0
3, 191040, Note_on_c, 0, 40, 0
3, 191040, Note_on_c, 0, 33, 0
3, 191040, Note_on_c, 0, 40, 61
3, 191040, Note_on_c, 0, 33, 61
3, 191040, Note_on_c, 0, 45, 72
3, 191520, Note_on_c, 0, 45, 0
3, 191520, Note_on_c, 0, 33, 0
3, 191520, Note_on_c, 0, 40, 0
3, 191520, Note_on_c, 0, 33, 68
3, 192960, Note_on_c, 0, 33, 0
3, 192960, Note_on_c, 0, 30, 38
3, 193040, Note_on_c, 0, 30, 0
3, 193040, Note_on_c, 0, 32, 33
3, 193120, Note_on_c, 0, 30, 38
3, 193120, Note_on_c, 0, 32, 0
3, 193199, Note_on_c, 0, 32, 32
3, 193200, Note_on_c, 0, 30, 0
3, 193279, Note_on_c, 0, 32, 0
3, 193279, Note_on_c, 0, 30, 38
3, 193359, Note_on_c, 0, 30, 0
3, 193359, Note_on_c, 0, 32, 33
3, 193439, Note_on_c, 0, 32, 0
3, 193439, Note_on_c, 0, 30, 38
3, 193518, Note_on_c, 0, 32, 34
3, 193519, Note_on_c, 0, 30, 0
3, 193598, Note_on_c, 0, 32, 0
3, 193599, Note_on_c, 0, 30, 38
3, 193678, Note_on_c, 0, 32, 34
3, 193679, Note_on_c, 0, 30, 0
3, 193758, Note_on_c, 0, 32, 0
3, 193758, Note_on_c, 0, 30, 38
3, 193838, Note_on_c, 0, 30, 0
3, 193838, Note_on_c, 0, 32, 34
3, 193918, Note_on_c, 0, 32, 0
3, 193920, Note_on_c, 0, 30, 38
3, 194016, Note_on_c, 0, 30, 0
3, 194016, Note_on_c, 0, 32, 34
3, 194112, Note_on_c, 0, 32, 0
3, 194112, Note_on_c, 0, 30, 38
3, 194208, Note_on_c, 0, 30, 0
3, 194208, Note_on_c, 0, 29, 35
3, 194304, Note_on_c, 0, 29, 0
3, 194304, Note_on_c, 0, 30, 35
3, 194400, Note_on_c, 0, 30, 0
3, 194400, Note_on_c, 0, 32, 43
3, 197280, Note_on_c, 0, 32, 0
3, 197280, Note_on_c, 0, 37, 51
3, 197280, Control_c, 0, 91, 126
3, 197760, Note_on_c, 0, 44, 60
3, 198720, Note_on_c, 0, 37, 0
3, 198720, Note_on_c, 0, 41, 51
3, 199200, Note_on_c, 0, 44, 0
3, 199200, Note_on_c, 0, 44, 61
3, 200160, Note_on_c, 0, 41, 0
3, 200160, Note_on_c, 0, 36, 52
3, 200640, Note_on_c, 0, 44, 0
3, 200640, Note_on_c, 0, 44, 59
3, 201600, Note_on_c, 0, 36, 0
3, 201600, Note_on_c, 0, 32, 52
3, 202080, Note_on_c, 0, 44, 0
3, 202080, Note_on_c, 0, 44, 59
3, 203040, Note_on_c, 0, 32, 0
3, 203040, Note_on_c, 0, 37, 51
3, 203520, Note_on_c, 0, 44, 0
3, 203520, Note_on_c, 0, 44, 60
3, 204480, Note_on_c, 0, 37, 0
3, 204480, Note_on_c, 0, 41, 51
3, 204960, Note_on_c, 0, 44, 0
3, 204960, Note_on_c, 0, 44, 61
3, 205920, Note_on_c, 0, 41, 0
3, 205920, Note_on_c, 0, 36, 52
3, 206400, Note_on_c, 0, 44, 0
3, 206400, Note_on_c, 0, 44, 59
3, 207360, Note_on_c, 0, 36, 0
3, 207360, Note_on_c, 0, 32, 52
3, 207840, Note_on_c, 0, 44, 0
3, 207840, Note_on_c, 0, 44, 59
3, 208800, Note_on_c, 0, 44, 0
3, 208800, Note_on_c, 0, 32, 0
3, 208800, Note_on_c, 0, 34, 51
3, 209280, Note_on_c, 0, 46, 49
3, 210240, Note_on_c, 0, 46, 0
3, 210240, Note_on_c, 0, 34, 0
3, 210240, Note_on_c, 0, 39, 44
3, 210720, Note_on_c, 0, 51, 41
3, 211200, Note_on_c, 0, 51, 0
3, 211200, Note_on_c, 0, 39, 0
3, 211200, Note_on_c, 0, 42, 39
3, 211200, Note_on_c, 0, 54, 39
3, 211680, Note_on_c, 0, 54, 0
3, 211680, Note_on_c, 0, 42, 0
3, 211680, Note_on_c, 0, 44, 36
3, 212160, Note_on_c, 0, 56, 34
3, 213120, Note_on_c, 0, 44, 0
3, 213120, Note_on_c, 0, 49, 34
3, 214080, Note_on_c, 0, 49, 0
3, 214080, Note_on_c, 0, 56, 0
3, 214560, Note_on_c, 0, 37, 73
3, 214560, Control_c, 0, 91, 126
3, 215040, Note_on_c, 0, 44, 85
3, 216000, Note_on_c, 0, 37, 0
3, 216000, Note_on_c, 0, 40, 73
3, 216480, Note_on_c, 0, 44, 0
3, 216480, Note_on_c, 0, 44, 86
3, 217440, Note_on_c, 0, 40, 0
3, 217440, Note_on_c, 0, 36, 74
3, 217920, Note_on_c, 0, 44, 0
3, 217920, Note_on_c, 0, 44, 84
3, 218880, Note_on_c, 0, 36, 0
3, 218880, Note_on_c, 0, 32, 74
3, 219360, Note_on_c, 0, 44, 0
3, 219360, Note_on_c, 0, 44, 84
3, 220320, Note_on_c, 0, 32, 0
3, 220320, Note_on_c, 0, 37, 73
3, 220800, Note_on_c, 0, 44, 0
3, 220800, Note_on_c, 0, 44, 85
3, 221760, Note_on_c, 0, 37, 0
3, 221760, Note_on_c, 0, 40, 73
3, 222240, Note_on_c, 0, 44, 0
3, 222240, Note_on_c, 0, 44, 86
3, 223200, Note_on_c, 0, 40, 0
3, 223200, Note_on_c, 0, 32, 74
3, 223680, Note_on_c, 0, 44, 0
3, 223680, Note_on_c, 0, 44, 84
3, 224640, Note_on_c, 0, 32, 0
3, 224640, Note_on_c, 0, 37, 73
3, 225120, Note_on_c, 0, 44, 0
3, 225120, Note_on_c, 0, 44, 87
3, 226080, Note_on_c, 0, 44, 0
3, 226080, Note_on_c, 0, 37, 0
3, 226080, Note_on_c, 0, 30, 87
3, 226560, Note_on_c, 0, 42, 92
3, 227520, Note_on_c, 0, 42, 0
3, 227520, Note_on_c, 0, 30, 0
3, 227520, Note_on_c, 0, 40, 94
3, 228000, Note_on_c, 0, 52, 99
3, 228960, Note_on_c, 0, 52, 0
3, 228960, Note_on_c, 0, 40, 0
3, 228960, Note_on_c, 0, 33, 86
3, 228960, Note_on_c, 0, 45, 102
3, 228960, Note_on_c, 0, 40, 86
3, 229200, Note_on_c, 0, 40, 0
3, 229200, Note_on_c, 0, 45, 0
3, 229200, Note_on_c, 0, 33, 0
3, 229440, Note_on_c, 0, 45, 107
3, 229440, Note_on_c, 0, 33, 90
3, 229440, Note_on_c, 0, 40, 90
3, 230400, Note_on_c, 0, 40, 0
3, 230400, Note_on_c, 0, 33, 0
3, 230400, Note_on_c, 0, 45, 0
3, 230400, Note_on_c, 0, 40, 86
3, 230400, Note_on_c, 0, 45, 102
3, 230400, Note_on_c, 0, 33, 86
3, 230640, Note_on_c, 0, 33, 0
3, 230640, Note_on_c, 0, 45, 0
3, 230640, Note_on_c, 0, 40, 0
3, 230880, Note_on_c, 0, 40, 92
3, 230880, Note_on_c, 0, 33, 92
3, 230880, Note_on_c, 0, 45, 109
3, 231840, Note_on_c, 0, 45, 0
3, 231840, Note_on_c, 0, 33, 0
3, 231840, Note_on_c, 0, 40, 0
3, 231840, Note_on_c, 0, 40, 86
3, 231840, Note_on_c, 0, 45, 102
3, 231840, Note_on_c, 0, 33, 86
3, 232080, Note_on_c, 0, 33, 0
3, 232080, Note_on_c, 0, 45, 0
3, 232080, Note_on_c, 0, 40, 0
3, 232320, Note_on_c, 0, 40, 91
3, 232320, Note_on_c, 0, 33, 91
3, 232320, Note_on_c, 0, 45, 108
3, 233280, Note_on_c, 0, 45, 0
3, 233280, Note_on_c, 0, 33, 0
3, 233280, Note_on_c, 0, 40, 0
3, 233280, Note_on_c, 0, 33, 86
3, 233280, Note_on_c, 0, 40, 86
3, 233280, Note_on_c, 0, 45, 102
3, 233520, Note_on_c, 0, 45, 0
3, 233520, Note_on_c, 0, 40, 0
3, 233520, Note_on_c, 0, 33, 0
3, 233760, Note_on_c, 0, 40, 92
3, 233760, Note_on_c, 0, 33, 92
3, 233760, Note_on_c, 0, 45, 109
3, 235200, Note_on_c, 0, 45, 0
3, 235200, Note_on_c, 0, 33, 0
3, 235200, Note_on_c, 0, 40, 0
3, 235200, Note_on_c, 0, 45, 84
3, 235200, Note_on_c, 0, 40, 71
3, 235200, Note_on_c, 0, 33, 71
3, 235680, Note_on_c, 0, 33, 0
3, 235680, Note_on_c, 0, 40, 0
3, 235680, Note_on_c, 0, 45, 0
3, 235680, Note_on_c, 0, 45, 86
3, 235680, Note_on_c, 0, 33, 73
3, 235680, Note_on_c, 0, 40, 73
3, 236160, Note_on_c, 0, 40, 0
3, 236160, Note_on_c, 0, 33, 0
3, 236160, Note_on_c, 0, 45, 0
3, 236160, Note_on_c, 0, 45, 80
3, 236160, Note_on_c, 0, 40, 68
3, 236160, Note_on_c, 0, 33, 68
3, 236640, Note_on_c, 0, 33, 0
3, 236640, Note_on_c, 0, 40, 0
3, 236640, Note_on_c, 0, 45, 0
3, 236640, Note_on_c, 0, 33, 64
3, 236640, Note_on_c, 0, 45, 76
3, 236640, Note_on_c, 0, 40, 64
3, 237120, Note_on_c, 0, 40, 0
3, 237120, Note_on_c, 0, 45, 0
3, 237120, Note_on_c, 0, 33, 0
3, 237120, Note_on_c, 0, 40, 61
3, 237120, Note_on_c, 0, 45, 72
3, 237120, Note_on_c, 0, 33, 61
3, 237600, Note_on_c, 0, 33, 0
3, 237600, Note_on_c, 0, 45, 0
3, 237600, Note_on_c, 0, 40, 0
3, 237600, Note_on_c, 0, 33, 68
3, 239040, Note_on_c, 0, 33, 0
3, 239040, Note_on_c, 0, 30, 38
3, 239120, Note_on_c, 0, 30, 0
3, 239120, Note_on_c, 0, 32, 33
3, 239200, Note_on_c, 0, 30, 38
3, 239200, Note_on_c, 0, 32, 0
3, 239279, Note_on_c, 0, 32, 32
3, 239280, Note_on_c, 0, 30, 0
3, 239359, Note_on_c, 0, 32, 0
3, 239359, Note_on_c, 0, 30, 38
3, 239439, Note_on_c, 0, 30, 0
3, 239439, Note_on_c, 0, 32, 33
3, 239519, Note_on_c, 0, 32, 0
3, 239519, Note_on_c, 0, 30, 38
3, 239598, Note_on_c, 0, 32, 34
3, 239599, Note_on_c, 0, 30, 0
3, 239678, Note_on_c, 0, 32, 0
3, 239679, Note_on_c, 0, 30, 38
3, 239758, Note_on_c, 0, 32, 34
3, 239759, Note_on_c, 0, 30, 0
3, 239838, Note_on_c, 0, 32, 0
3, 239838, Note_on_c, 0, 30, 38
3, 239918, Note_on_c, 0, 30, 0
3, 239918, Note_on_c, 0, 32, 34
3, 239998, Note_on_c, 0, 32, 0
3, 240000, Note_on_c, 0, 30, 38
3, 240096, Note_on_c, 0, 30, 0
3, 240096, Note_on_c, 0, 32, 34
3, 240192, Note_on_c, 0, 32, 0
3, 240192, Note_on_c, 0, 30, 38
3, 240288, Note_on_c, 0, 30, 0
3, 240288, Note_on_c, 0, 29, 35
3, 240384, Note_on_c, 0, 29, 0
3, 240384, Note_on_c, 0, 30, 35
3, 240480, Note_on_c, 0, 30, 0
3, 240480, Note_on_c, 0, 32, 45
3, 243360, Note_on_c, 0, 32, 0
3, 243360, Control_c, 0, 91, 126
3, 243360, Note_on_c, 0, 37, 51
3, 243840, Note_on_c, 0, 44, 60
3, 244800, Note_on_c, 0, 37, 0
3, 244800, Note_on_c, 0, 41, 51
3, 245280, Note_on_c, 0, 44, 0
3, 245280, Note_on_c, 0, 44, 61
3, 246240, Note_on_c, 0, 41, 0
3, 246240, Note_on_c, 0, 36, 52
3, 246720, Note_on_c, 0, 44, 0
3, 246720, Note_on_c, 0, 44, 59
3, 247680, Note_on_c, 0, 36, 0
3, 247680, Note_on_c, 0, 32, 52
3, 248160, Note_on_c, 0, 44, 0
3, 248160, Note_on_c, 0, 44, 59
3, 249120, Note_on_c, 0, 32, 0
3, 249120, Note_on_c, 0, 37, 51
3, 249600, Note_on_c, 0, 44, 0
3, 249600, Note_on_c, 0, 44, 60
3, 250560, Note_on_c, 0, 37, 0
3, 250560, Note_on_c, 0, 41, 51
3, 251040, Note_on_c, 0, 44, 0
3, 251040, Note_on_c, 0, 44, 61
3, 252000, Note_on_c, 0, 41, 0
3, 252000, Note_on_c, 0, 36, 52
3, 252480, Note_on_c, 0, 44, 0
3, 252480, Note_on_c, 0, 44, 59
3, 253440, Note_on_c, 0, 36, 0
3, 253440, Note_on_c, 0, 32, 52
3, 253920, Note_on_c, 0, 44, 0
3, 253920, Note_on_c, 0, 44, 59
3, 254880, Note_on_c, 0, 44, 0
3, 254880, Note_on_c, 0, 32, 0
3, 254880, Note_on_c, 0, 34, 51
3, 255360, Note_on_c, 0, 46, 49
3, 256320, Note_on_c, 0, 46, 0
3, 256320, Note_on_c, 0, 34, 0
3, 256320, Note_on_c, 0, 39, 44
3, 256800, Note_on_c, 0, 51, 41
3, 257280, Note_on_c, 0, 51, 0
3, 257280, Note_on_c, 0, 39, 0
3, 257280, Note_on_c, 0, 42, 39
3, 257280, Note_on_c, 0, 54, 39
3, 257760, Note_on_c, 0, 54, 0
3, 257760, Note_on_c, 0, 42, 0
3, 257760, Note_on_c, 0, 44, 36
3, 258240, Note_on_c, 0, 56, 34
3, 259200, Note_on_c, 0, 44, 0
3, 259200, Note_on_c, 0, 49, 34
3, 260160, Note_on_c, 0, 49, 0
3, 260160, Note_on_c, 0, 56, 0
3, 260640, Note_on_c, 0, 44, 27
3, 260640, Note_on_c, 0, 37, 27
3, 260640, Note_on_c, 0, 49, 32
3, 263520, Note_on_c, 0, 49, 0
3, 263520, Note_on_c, 0, 37, 0
3, 263520, Note_on_c, 0, 44, 0
3, 263520, Note_on_c, 0, 49, 31
3, 263520, Note_on_c, 0, 37, 26
3, 264960, Note_on_c, 0, 37, 0
3, 264960, Note_on_c, 0, 49, 0
3, 264960, Note_on_c, 0, 46, 31
3, 264960, Note_on_c, 0, 34, 26
3, 266400, Note_on_c, 0, 34, 0
3, 266400, Note_on_c, 0, 46, 0
3, 266400, Note_on_c, 0, 39, 26
3, 266400, Note_on_c, 0, 43, 31
3, 266400, Note_on_c, 0, 31, 26
3, 267840, Note_on_c, 0, 31, 0
3, 267840, Note_on_c, 0, 43, 0
3, 267840, Note_on_c, 0, 39, 0
3, 267840, Note_on_c, 0, 31, 26
3, 267840, Note_on_c, 0, 39, 26
3, 267840, Note_on_c, 0, 43, 31
3, 269280, Note_on_c, 0, 43, 0
3, 269280, Note_on_c, 0, 39, 0
3, 269280, Note_on_c, 0, 31, 0
3, 269280, Note_on_c, 0, 43, 22
3, 269280, Note_on_c, 0, 61, 26
3, 269280, Note_on_c, 0, 51, 26
3, 269280, Note_on_c, 0, 31, 22
3, 269280, Note_on_c, 0, 39, 22
3, 269280, Note_on_c, 0, 58, 26
3, 270240, Note_on_c, 0, 58, 0
3, 270240, Note_on_c, 0, 61, 0
3, 270240, Note_on_c, 0, 51, 0
3, 270240, Note_on_c, 0, 43, 0
3, 270240, Note_on_c, 0, 39, 0
3, 270240, Note_on_c, 0, 31, 0
3, 270240, Note_on_c, 0, 51, 27
3, 270712, Control_c, 0, 91, 126
3, 270715, Note_on_c, 0, 51, 0
3, 270720, Note_on_c, 0, 51, 27
3, 271195, Note_on_c, 0, 51, 0
3, 271200, Note_on_c, 0, 51, 27
3, 271675, Note_on_c, 0, 51, 0
3, 271680, Note_on_c, 0, 51, 27
3, 272155, Note_on_c, 0, 51, 0
3, 272160, Note_on_c, 0, 51, 27
3, 272160, Note_on_c, 0, 44, 27
3, 272635, Note_on_c, 0, 51, 0
3, 272640, Note_on_c, 0, 51, 27
3, 273600, Note_on_c, 0, 51, 0
3, 273600, Note_on_c, 0, 44, 0
3, 273600, Note_on_c, 0, 46, 27
3, 273600, Note_on_c, 0, 51, 27
3, 274075, Note_on_c, 0, 51, 0
3, 274080, Note_on_c, 0, 51, 27
3, 275040, Note_on_c, 0, 51, 0
3, 275040, Note_on_c, 0, 46, 0
3, 275040, Note_on_c, 0, 48, 27
3, 275040, Note_on_c, 0, 51, 27
3, 275515, Note_on_c, 0, 51, 0
3, 275520, Note_on_c, 0, 51, 27
3, 275995, Note_on_c, 0, 51, 0
3, 276000, Note_on_c, 0, 48, 0
3, 276000, Note_on_c, 0, 51, 27
3, 276000, Note_on_c, 0, 43, 27
3, 276475, Note_on_c, 0, 43, 0
3, 276475, Note_on_c, 0, 51, 0
3, 276480, Note_on_c, 0, 51, 27
3, 276480, Note_on_c, 0, 44, 27
3, 277440, Note_on_c, 0, 44, 0
3, 277440, Note_on_c, 0, 51, 0
3, 277440, Note_on_c, 0, 51, 33
3, 277915, Note_on_c, 0, 51, 0
3, 277920, Note_on_c, 0, 51, 33
3, 277920, Note_on_c, 0, 44, 33
3, 278395, Note_on_c, 0, 51, 0
3, 278400, Note_on_c, 0, 51, 33
3, 279360, Note_on_c, 0, 51, 0
3, 279360, Note_on_c, 0, 44, 0
3, 279360, Note_on_c, 0, 49, 33
3, 279360, Note_on_c, 0, 51, 33
3, 279835, Note_on_c, 0, 51, 0
3, 279840, Note_on_c, 0, 51, 33
3, 280800, Note_on_c, 0, 51, 0
3, 280800, Note_on_c, 0, 49, 0
3, 280800, Note_on_c, 0, 51, 31
3, 280800, Note_on_c, 0, 48, 31
3, 281275, Note_on_c, 0, 51, 0
3, 281280, Note_on_c, 0, 51, 31
3, 281755, Note_on_c, 0, 51, 0
3, 281760, Note_on_c, 0, 48, 0
3, 281760, Note_on_c, 0, 43, 31
3, 281760, Note_on_c, 0, 51, 31
3, 282240, Note_on_c, 0, 51, 0
3, 282240, Note_on_c, 0, 43, 0
3, 282240, Note_on_c, 0, 51, 29
3, 282240, Note_on_c, 0, 44, 29
3, 283200, Note_on_c, 0, 44, 0
3, 283200, Note_on_c, 0, 51, 0
3, 283200, Note_on_c, 0, 51, 27
3, 283675, Note_on_c, 0, 51, 0
3, 283680, Note_on_c, 0, 44, 27
3, 283680, Note_on_c, 0, 51, 27
3, 284155, Note_on_c, 0, 51, 0
3, 284160, Note_on_c, 0, 51, 27
3, 285120, Note_on_c, 0, 51, 0
3, 285120, Note_on_c, 0, 44, 0
3, 285120, Note_on_c, 0, 46, 27
3, 285120, Note_on_c, 0, 51, 27
3, 285595, Note_on_c, 0, 51, 0
3, 285600, Note_on_c, 0, 51, 27
3, 286080, Note_on_c, 0, 51, 0
3, 286560, Note_on_c, 0, 46, 0
3, 286560, Note_on_c, 0, 51, 27
3, 286560, Note_on_c, 0, 48, 27
3, 287035, Note_on_c, 0, 51, 0
3, 287040, Note_on_c, 0, 51, 28
3, 287515, Note_on_c, 0, 51, 0
3, 287520, Note_on_c, 0, 48, 0
3, 287520, Note_on_c, 0, 51, 29
3, 287520, Note_on_c, 0, 43, 29
3, 287995, Note_on_c, 0, 43, 0
3, 287995, Note_on_c, 0, 51, 0
3, 288000, Note_on_c, 0, 51, 32
3, 288000, Note_on_c, 0, 44, 32
3, 288960, Note_on_c, 0, 44, 0
3, 288960, Note_on_c, 0, 51, 0
3, 288960, Note_on_c, 0, 51, 31
3, 289435, Note_on_c, 0, 51, 0
3, 289440, Note_on_c, 0, 44, 34
3, 289440, Note_on_c, 0, 51, 34
3, 289915, Note_on_c, 0, 51, 0
3, 289920, Note_on_c, 0, 51, 35
3, 290880, Note_on_c, 0, 51, 0
3, 290880, Note_on_c, 0, 44, 0
3, 290880, Note_on_c, 0, 43, 31
3, 290880, Note_on_c, 0, 48, 31
3, 291355, Note_on_c, 0, 48, 0
3, 291360, Note_on_c, 0, 48, 31
3, 292320, Note_on_c, 0, 48, 0
3, 292320, Note_on_c, 0, 43, 0
3, 292320, Note_on_c, 0, 41, 31
3, 292320, Note_on_c, 0, 48, 31
3, 292795, Note_on_c, 0, 48, 0
3, 292800, Note_on_c, 0, 48, 31
3, 293275, Note_on_c, 0, 48, 0
3, 293280, Note_on_c, 0, 41, 0
3, 293280, Note_on_c, 0, 39, 29
3, 293280, Note_on_c, 0, 51, 29
3, 293760, Note_on_c, 0, 51, 0
3, 293760, Note_on_c, 0, 39, 0
3, 293760, Note_on_c, 0, 51, 28
3, 293760, Note_on_c, 0, 44, 28
3, 294720, Note_on_c, 0, 44, 0
3, 294720, Note_on_c, 0, 51, 0
3, 294960, Note_on_c, 0, 56, 54
3, 294960, Note_on_c, 0, 60, 64
3, 294960, Note_on_c, 0, 48, 54
3, 295198, Note_on_c, 0, 48, 0
3, 295198, Note_on_c, 0, 60, 0
3, 295198, Note_on_c, 0, 56, 0
3, 295200, Note_on_c, 0, 60, 73
3, 295200, Note_on_c, 0, 56, 62
3, 295200, Note_on_c, 0, 48, 62
3, 295675, Note_on_c, 0, 48, 0
3, 295675, Note_on_c, 0, 56, 0
3, 295675, Note_on_c, 0, 60, 0
3, 295680, Note_on_c, 0, 48, 59
3, 295680, Note_on_c, 0, 56, 59
3, 295680, Note_on_c, 0, 60, 70
3, 296393, Note_on_c, 0, 60, 0
3, 296393, Note_on_c, 0, 56, 0
3, 296393, Note_on_c, 0, 48, 0
3, 296400, Note_on_c, 0, 44, 54
3, 296400, Note_on_c, 0, 51, 54
3, 296400, Note_on_c, 0, 56, 64
3, 296638, Note_on_c, 0, 56, 0
3, 296638, Note_on_c, 0, 51, 0
3, 296638, Note_on_c, 0, 44, 0
3, 296640, Note_on_c, 0, 44, 61
3, 296640, Note_on_c, 0, 56, 72
3, 296640, Note_on_c, 0, 51, 61
3, 297115, Note_on_c, 0, 51, 0
3, 297115, Note_on_c, 0, 56, 0
3, 297115, Note_on_c, 0, 44, 0
3, 297120, Note_on_c, 0, 44, 59
3, 297120, Note_on_c, 0, 51, 59
3, 297120, Note_on_c, 0, 56, 70
3, 297833, Note_on_c, 0, 56, 0
3, 297833, Note_on_c, 0, 51, 0
3, 297833, Note_on_c, 0, 44, 0
3, 297840, Note_on_c, 0, 53, 64
3, 297840, Note_on_c, 0, 41, 54
3, 298078, Note_on_c, 0, 41, 0
3, 298078, Note_on_c, 0, 53, 0
3, 298080, Note_on_c, 0, 41, 54
3, 298080, Note_on_c, 0, 53, 64
3, 298440, Note_on_c, 0, 53, 0
3, 298440, Note_on_c, 0, 41, 0
3, 298560, Note_on_c, 0, 43, 54
3, 298560, Note_on_c, 0, 55, 64
3, 298920, Note_on_c, 0, 55, 0
3, 298920, Note_on_c, 0, 43, 0
3, 299040, Note_on_c, 0, 39, 54
3, 299040, Note_on_c, 0, 51, 64
3, 299400, Note_on_c, 0, 51, 0
3, 299400, Note_on_c, 0, 39, 0
3, 299520, Note_on_c, 0, 44, 54
3, 299520, Note_on_c, 0, 51, 54
3, 299520, Note_on_c, 0, 56, 64
3, 300720, Note_on_c, 0, 56, 0
3, 300720, Note_on_c, 0, 51, 0
3, 300720, Note_on_c, 0, 44, 0
3, 300720, Note_on_c, 0, 37, 68
3, 300720, Note_on_c, 0, 44, 68
3, 300720, Note_on_c, 0, 49, 80
3, 300958, Note_on_c, 0, 49, 0
3, 300958, Note_on_c, 0, 44, 0
3, 300958, Note_on_c, 0, 37, 0
3, 300960, Note_on_c, 0, 49, 80
3, 300960, Note_on_c, 0, 44, 68
3, 300960, Note_on_c, 0, 37, 68
3, 301435, Note_on_c, 0, 37, 0
3, 301435, Note_on_c, 0, 44, 0
3, 301435, Note_on_c, 0, 49, 0
3, 301440, Note_on_c, 0, 44, 68
3, 301440, Note_on_c, 0, 37, 68
3, 301440, Note_on_c, 0, 49, 80
3, 302153, Note_on_c, 0, 49, 0
3, 302153, Note_on_c, 0, 37, 0
3, 302153, Note_on_c, 0, 44, 0
3, 302160, Note_on_c, 0, 49, 80
3, 302160, Note_on_c, 0, 37, 68
3, 302160, Note_on_c, 0, 44, 68
3, 302398, Note_on_c, 0, 44, 0
3, 302398, Note_on_c, 0, 37, 0
3, 302398, Note_on_c, 0, 49, 0
3, 302400, Note_on_c, 0, 49, 80
3, 302400, Note_on_c, 0, 44, 68
3, 302400, Note_on_c, 0, 37, 68
3, 302875, Note_on_c, 0, 37, 0
3, 302875, Note_on_c, 0, 44, 0
3, 302875, Note_on_c, 0, 49, 0
3, 302880, Note_on_c, 0, 37, 68
3, 302880, Note_on_c, 0, 44, 68
3, 302880, Note_on_c, 0, 49, 80
3, 303593, Note_on_c, 0, 49, 0
3, 303593, Note_on_c, 0, 44, 0
3, 303593, Note_on_c, 0, 37, 0
3, 303600, Note_on_c, 0, 37, 68
3, 303600, Note_on_c, 0, 49, 80
3, 303838, Note_on_c, 0, 49, 0
3, 303838, Note_on_c, 0, 37, 0
3, 303840, Note_on_c, 0, 49, 80
3, 303840, Note_on_c, 0, 37, 68
3, 304200, Note_on_c, 0, 37, 0
3, 304200, Note_on_c, 0, 49, 0
3, 304320, Note_on_c, 0, 33, 68
3, 304320, Note_on_c, 0, 45, 80
3, 304680, Note_on_c, 0, 45, 0
3, 304680, Note_on_c, 0, 33, 0
3, 304800, Note_on_c, 0, 42, 80
3, 304800, Note_on_c, 0, 30, 68
3, 305160, Note_on_c, 0, 30, 0
3, 305160, Note_on_c, 0, 42, 0
3, 305280, Note_on_c, 0, 49, 80
3, 305280, Note_on_c, 0, 37, 68
3, 306480, Note_on_c, 0, 37, 0
3, 306480, Note_on_c, 0, 49, 0
3, 306480, Note_on_c, 0, 33, 68
3, 306480, Note_on_c, 0, 45, 80
3, 306718, Note_on_c, 0, 45, 0
3, 306718, Note_on_c, 0, 33, 0
3, 306720, Note_on_c, 0, 33, 68
3, 306720, Note_on_c, 0, 45, 80
3, 309360, Note_on_c, 0, 45, 0
3, 309360, Note_on_c, 0, 33, 0
3, 309360, Note_on_c, 0, 52, 54
3, 309360, Note_on_c, 0, 40, 45
3, 309480, Note_on_c, 0, 40, 0
3, 309480, Note_on_c, 0, 52, 0
3, 309600, Note_on_c, 0, 40, 45
3, 309600, Note_on_c, 0, 52, 54
3, 312480, Note_on_c, 0, 52, 0
3, 312480, Note_on_c, 0, 40, 0
3, 312480, Note_on_c, 0, 39, 27
3, 312480, Note_on_c, 0, 51, 27
3, 312955, Note_on_c, 0, 51, 0
3, 312960, Note_on_c, 0, 51, 27
3, 313920, Note_on_c, 0, 51, 0
3, 313920, Note_on_c, 0, 39, 0
3, 313920, Note_on_c, 0, 51, 27
3, 313920, Note_on_c, 0, 39, 27
3, 314395, Note_on_c, 0, 51, 0
3, 314400, Note_on_c, 0, 51, 27
3, 314875, Note_on_c, 0, 51, 0
3, 314880, Note_on_c, 0, 39, 0
3, 314880, Note_on_c, 0, 51, 27
3, 315355, Note_on_c, 0, 51, 0
3, 315360, Note_on_c, 0, 44, 27
3, 315360, Note_on_c, 0, 51, 27
3, 315835, Note_on_c, 0, 51, 0
3, 315840, Note_on_c, 0, 51, 27
3, 316800, Note_on_c, 0, 51, 0
3, 316800, Note_on_c, 0, 44, 0
3, 316800, Note_on_c, 0, 51, 27
3, 316800, Note_on_c, 0, 46, 27
3, 317275, Note_on_c, 0, 51, 0
3, 317280, Note_on_c, 0, 51, 27
3, 318240, Note_on_c, 0, 51, 0
3, 318240, Note_on_c, 0, 46, 0
3, 318240, Note_on_c, 0, 48, 27
3, 318240, Note_on_c, 0, 51, 27
3, 318715, Note_on_c, 0, 51, 0
3, 318720, Note_on_c, 0, 51, 27
3, 319191, Note_on_c, 0, 48, 0
3, 319195, Note_on_c, 0, 51, 0
3, 319200, Note_on_c, 0, 51, 27
3, 319200, Note_on_c, 0, 43, 27
3, 319675, Note_on_c, 0, 43, 0
3, 319675, Note_on_c, 0, 51, 0
3, 319680, Note_on_c, 0, 44, 27
3, 319680, Note_on_c, 0, 51, 27
3, 320640, Note_on_c, 0, 51, 0
3, 320640, Note_on_c, 0, 44, 0
3, 320640, Note_on_c, 0, 51, 29
3, 321115, Note_on_c, 0, 51, 0
3, 321120, Note_on_c, 0, 51, 36
3, 321120, Note_on_c, 0, 42, 36
3, 321595, Note_on_c, 0, 51, 0
3, 321600, Note_on_c, 0, 51, 37
3, 322560, Note_on_c, 0, 51, 0
3, 322560, Note_on_c, 0, 42, 0
3, 322560, Note_on_c, 0, 51, 37
3, 322560, Note_on_c, 0, 41, 37
3, 323035, Note_on_c, 0, 51, 0
3, 323040, Note_on_c, 0, 51, 35
3, 323760, Note_on_c, 0, 51, 0
3, 323760, Note_on_c, 0, 41, 0
3, 323760, Note_on_c, 0, 49, 35
3, 323760, Note_on_c, 0, 40, 35
3, 323998, Note_on_c, 0, 40, 0
3, 323998, Note_on_c, 0, 49, 0
3, 324000, Note_on_c, 0, 40, 35
3, 324000, Note_on_c, 0, 49, 35
3, 324480, Note_on_c, 0, 49, 0
3, 324480, Note_on_c, 0, 40, 0
3, 324480, Note_on_c, 0, 39, 28
3, 324480, Note_on_c, 0, 51, 29
3, 324960, Note_on_c, 0, 51, 0
3, 324960, Note_on_c, 0, 39, 0
3, 324960, Note_on_c, 0, 39, 30
3, 324960, Note_on_c, 0, 49, 30
3, 324960, Note_on_c, 0, 51, 30
3, 325392, Note_on_c, 0, 51, 0
3, 325392, Note_on_c, 0, 49, 0
3, 325392, Note_on_c, 0, 39, 0
3, 325440, Note_on_c, 0, 51, 28
3, 325440, Note_on_c, 0, 44, 28
3, 325440, Note_on_c, 0, 48, 28
3, 326400, Note_on_c, 0, 48, 0
3, 326400, Note_on_c, 0, 44, 0
3, 326400, Note_on_c, 0, 51, 0
3, 326400, Note_on_c, 0, 51, 27
3, 326875, Note_on_c, 0, 51, 0
3, 326880, Note_on_c, 0, 44, 27
3, 326880, Note_on_c, 0, 51, 27
3, 327355, Note_on_c, 0, 51, 0
3, 327360, Note_on_c, 0, 51, 27
3, 328320, Note_on_c, 0, 51, 0
3, 328320, Note_on_c, 0, 44, 0
3, 328320, Note_on_c, 0, 46, 27
3, 328320, Note_on_c, 0, 51, 27
3, 328795, Note_on_c, 0, 51, 0
3, 328800, Note_on_c, 0, 51, 27
3, 329760, Note_on_c, 0, 51, 0
3, 329760, Note_on_c, 0, 46, 0
3, 329760, Note_on_c, 0, 51, 27
3, 329760, Note_on_c, 0, 48, 27
3, 330235, Note_on_c, 0, 51, 0
3, 330240, Note_on_c, 0, 51, 28
3, 330715, Note_on_c, 0, 51, 0
3, 330720, Note_on_c, 0, 48, 0
3, 330720, Note_on_c, 0, 43, 29
3, 330720, Note_on_c, 0, 51, 29
3, 331195, Note_on_c, 0, 51, 0
3, 331195, Note_on_c, 0, 43, 0
3, 331200, Note_on_c, 0, 44, 32
3, 331200, Note_on_c, 0, 51, 32
3, 332160, Note_on_c, 0, 51, 0
3, 332160, Note_on_c, 0, 44, 0
3, 332160, Note_on_c, 0, 51, 37
3, 332635, Note_on_c, 0, 51, 0
3, 332640, Note_on_c, 0, 51, 36
3, 332640, Note_on_c, 0, 42, 36
3, 333115, Note_on_c, 0, 51, 0
3, 333120, Note_on_c, 0, 51, 37
3, 334080, Note_on_c, 0, 51, 0
3, 334080, Note_on_c, 0, 42, 0
3, 334080, Note_on_c, 0, 41, 37
3, 334080, Note_on_c, 0, 51, 37
3, 334555, Note_on_c, 0, 51, 0
3, 334560, Note_on_c, 0, 51, 35
3, 335280, Note_on_c, 0, 51, 0
3, 335280, Note_on_c, 0, 41, 0
3, 335280, Note_on_c, 0, 40, 35
3, 335280, Note_on_c, 0, 49, 35
3, 335518, Note_on_c, 0, 49, 0
3, 335518, Note_on_c, 0, 40, 0
3, 335520, Note_on_c, 0, 49, 35
3, 335520, Note_on_c, 0, 40, 35
3, 335995, Note_on_c, 0, 40, 0
3, 335995, Note_on_c, 0, 49, 0
3, 336000, Note_on_c, 0, 39, 28
3, 336000, Note_on_c, 0, 51, 29
3, 336475, Note_on_c, 0, 51, 0
3, 336475, Note_on_c, 0, 39, 0
3, 336480, Note_on_c, 0, 39, 30
3, 336480, Note_on_c, 0, 51, 30
3, 336480, Note_on_c, 0, 49, 30
3, 336912, Note_on_c, 0, 49, 0
3, 336912, Note_on_c, 0, 51, 0
3, 336912, Note_on_c, 0, 39, 0
3, 336960, Note_on_c, 0, 51, 28
3, 336960, Note_on_c, 0, 48, 28
3, 336960, Note_on_c, 0, 44, 28
3, 337920, Note_on_c, 0, 44, 0
3, 337920, Note_on_c, 0, 48, 0
3, 337920, Note_on_c, 0, 51, 0
3, 338160, Note_on_c, 0, 40, 35
3, 338160, Note_on_c, 0, 49, 35
3, 338398, Note_on_c, 0, 49, 0
3, 338398, Note_on_c, 0, 40, 0
3, 338400, Note_on_c, 0, 49, 35
3, 338400, Note_on_c, 0, 40, 35
3, 338880, Note_on_c, 0, 40, 0
3, 338880, Note_on_c, 0, 49, 0
3, 338880, Note_on_c, 0, 39, 28
3, 338880, Note_on_c, 0, 51, 29
3, 339360, Note_on_c, 0, 51, 0
3, 339360, Note_on_c, 0, 39, 0
3, 339360, Note_on_c, 0, 49, 30
3, 339360, Note_on_c, 0, 51, 30
3, 339360, Note_on_c, 0, 39, 30
3, 339792, Note_on_c, 0, 39, 0
3, 339792, Note_on_c, 0, 51, 0
3, 339792, Note_on_c, 0, 49, 0
3, 339840, Note_on_c, 0, 51, 28
3, 339840, Note_on_c, 0, 44, 28
3, 339840, Note_on_c, 0, 48, 28
3, 341040, Note_on_c, 0, 48, 0
3, 341040, Note_on_c, 0, 44, 0
3, 341040, Note_on_c, 0, 51, 0
3, 341040, Note_on_c, 0, 49, 35
3, 341040, Note_on_c, 0, 46, 35
3, 341040, Note_on_c, 0, 40, 35
3, 341278, Note_on_c, 0, 40, 0
3, 341278, Note_on_c, 0, 46, 0
3, 341278, Note_on_c, 0, 49, 0
3, 341280, Note_on_c, 0, 49, 35
3, 341280, Note_on_c, 0, 40, 35
3, 341280, Note_on_c, 0, 46, 35
3, 341760, Note_on_c, 0, 46, 0
3, 341760, Note_on_c, 0, 40, 0
3, 341760, Note_on_c, 0, 49, 0
3, 341760, Note_on_c, 0, 51, 28
3, 341760, Note_on_c, 0, 39, 27
3, 341760, Note_on_c, 0, 48, 27
3, 342240, Note_on_c, 0, 48, 0
3, 342240, Note_on_c, 0, 39, 0
3, 342240, Note_on_c, 0, 51, 0
3, 342240, Note_on_c, 0, 49, 29
3, 342240, Note_on_c, 0, 39, 29
3, 342240, Note_on_c, 0, 51, 29
3, 342672, Note_on_c, 0, 51, 0
3, 342672, Note_on_c, 0, 39, 0
3, 342672, Note_on_c, 0, 49, 0
3, 342720, Note_on_c, 0, 51, 28
3, 342720, Note_on_c, 0, 44, 28
3, 342720, Note_on_c, 0, 48, 28
3, 343680, Note_on_c, 0, 48, 0
3, 343680, Note_on_c, 0, 44, 0
3, 343680, Note_on_c, 0, 51, 0
3, 343680, End_track
4, 0, Start_track
4, 0, Title_t, "Pedale"
4, 1020, Control_c, 0, 64, 127
4, 2890, Control_c, 0, 64, 0
4, 3120, Control_c, 0, 64, 127
4, 3372, Control_c, 0, 64, 0
4, 3572, Control_c, 0, 64, 127
4, 4330, Control_c, 0, 64, 0
4, 4699, Control_c, 0, 64, 127
4, 5766, Control_c, 0, 64, 0
4, 6134, Control_c, 0, 64, 127
4, 7211, Control_c, 0, 64, 0
4, 7390, Control_c, 0, 64, 127
4, 8647, Control_c, 0, 64, 0
4, 8880, Control_c, 0, 64, 127
4, 9133, Control_c, 0, 64, 0
4, 9332, Control_c, 0, 64, 127
4, 10088, Control_c, 0, 64, 0
4, 10243, Control_c, 0, 64, 127
4, 10572, Control_c, 0, 64, 0
4, 10701, Control_c, 0, 64, 127
4, 11052, Control_c, 0, 64, 0
4, 11188, Control_c, 0, 64, 127
4, 11530, Control_c, 0, 64, 0
4, 12054, Control_c, 0, 64, 127
4, 12967, Control_c, 0, 64, 0
4, 13186, Control_c, 0, 64, 127
4, 14407, Control_c, 0, 64, 0
4, 14683, Control_c, 0, 64, 127
4, 14891, Control_c, 0, 64, 0
4, 15064, Control_c, 0, 64, 127
4, 15840, Control_c, 0, 64, 0
4, 16219, Control_c, 0, 64, 127
4, 17287, Control_c, 0, 64, 0
4, 17654, Control_c, 0, 64, 127
4, 18728, Control_c, 0, 64, 0
4, 18960, Control_c, 0, 64, 127
4, 20166, Control_c, 0, 64, 0
4, 20386, Control_c, 0, 64, 127
4, 21614, Control_c, 0, 64, 0
4, 21667, Control_c, 0, 64, 127
4, 22092, Control_c, 0, 64, 0
4, 22151, Control_c, 0, 64, 127
4, 22572, Control_c, 0, 64, 0
4, 22627, Control_c, 0, 64, 127
4, 23050, Control_c, 0, 64, 0
4, 23414, Control_c, 0, 64, 127
4, 24000, Control_c, 0, 64, 0
4, 24180, Control_c, 0, 64, 127
4, 25930, Control_c, 0, 64, 0
4, 26160, Control_c, 0, 64, 127
4, 26412, Control_c, 0, 64, 0
4, 26612, Control_c, 0, 64, 127
4, 27370, Control_c, 0, 64, 0
4, 27739, Control_c, 0, 64, 127
4, 28806, Control_c, 0, 64, 0
4, 29174, Control_c, 0, 64, 127
4, 30251, Control_c, 0, 64, 0
4, 30430, Control_c, 0, 64, 127
4, 31687, Control_c, 0, 64, 0
4, 31920, Control_c, 0, 64, 127
4, 32173, Control_c, 0, 64, 0
4, 32372, Control_c, 0, 64, 127
4, 33128, Control_c, 0, 64, 0
4, 33283, Control_c, 0, 64, 127
4, 33612, Control_c, 0, 64, 0
4, 33741, Control_c, 0, 64, 127
4, 34092, Control_c, 0, 64, 0
4, 34228, Control_c, 0, 64, 127
4, 34570, Control_c, 0, 64, 0
4, 35094, Control_c, 0, 64, 127
4, 36007, Control_c, 0, 64, 0
4, 36226, Control_c, 0, 64, 127
4, 37447, Control_c, 0, 64, 0
4, 37723, Control_c, 0, 64, 127
4, 37931, Control_c, 0, 64, 0
4, 38104, Control_c, 0, 64, 127
4, 38880, Control_c, 0, 64, 0
4, 39259, Control_c, 0, 64, 127
4, 40327, Control_c, 0, 64, 0
4, 40694, Control_c, 0, 64, 127
4, 41768, Control_c, 0, 64, 0
4, 42000, Control_c, 0, 64, 127
4, 43206, Control_c, 0, 64, 0
4, 43426, Control_c, 0, 64, 127
4, 44654, Control_c, 0, 64, 0
4, 44707, Control_c, 0, 64, 127
4, 45132, Control_c, 0, 64, 0
4, 45191, Control_c, 0, 64, 127
4, 45612, Control_c, 0, 64, 0
4, 45667, Control_c, 0, 64, 127
4, 46090, Control_c, 0, 64, 0
4, 46334, Control_c, 0, 64, 127
4, 47040, Control_c, 0, 64, 0
4, 47300, Control_c, 0, 64, 127
4, 50400, Control_c, 0, 64, 0
4, 52998, Control_c, 0, 64, 127
4, 56160, Control_c, 0, 64, 0
4, 58791, Control_c, 0, 64, 127
4, 60480, Control_c, 0, 64, 0
4, 61703, Control_c, 0, 64, 127
4, 63360, Control_c, 0, 64, 0
4, 64934, Control_c, 0, 64, 127
4, 66250, Control_c, 0, 64, 0
4, 66560, Control_c, 0, 64, 127
4, 67680, Control_c, 0, 64, 0
4, 67892, Control_c, 0, 64, 127
4, 69130, Control_c, 0, 64, 0
4, 69346, Control_c, 0, 64, 127
4, 69610, Control_c, 0, 64, 0
4, 69826, Control_c, 0, 64, 127
4, 70565, Control_c, 0, 64, 0
4, 70889, Control_c, 0, 64, 127
4, 72000, Control_c, 0, 64, 0
4, 72374, Control_c, 0, 64, 127
4, 73440, Control_c, 0, 64, 0
4, 73708, Control_c, 0, 64, 127
4, 74890, Control_c, 0, 64, 0
4, 75086, Control_c, 0, 64, 127
4, 75372, Control_c, 0, 64, 0
4, 75543, Control_c, 0, 64, 127
4, 76085, Control_c, 0, 64, 0
4, 79204, Control_c, 0, 64, 0
4, 79412, Control_c, 0, 64, 127
4, 80649, Control_c, 0, 64, 0
4, 80880, Control_c, 0, 64, 127
4, 81133, Control_c, 0, 64, 0
4, 81360, Control_c, 0, 64, 127
4, 82089, Control_c, 0, 64, 0
4, 82409, Control_c, 0, 64, 127
4, 83527, Control_c, 0, 64, 0
4, 83840, Control_c, 0, 64, 127
4, 84960, Control_c, 0, 64, 0
4, 85228, Control_c, 0, 64, 127
4, 86410, Control_c, 0, 64, 0
4, 86606, Control_c, 0, 64, 127
4, 86892, Control_c, 0, 64, 0
4, 87063, Control_c, 0, 64, 127
4, 87840, Control_c, 0, 64, 0
4, 90500, Control_c, 0, 64, 127
4, 93368, Control_c, 0, 64, 0
4, 96198, Control_c, 0, 64, 127
4, 99360, Control_c, 0, 64, 0
4, 101991, Control_c, 0, 64, 127
4, 103680, Control_c, 0, 64, 0
4, 104903, Control_c, 0, 64, 127
4, 106560, Control_c, 0, 64, 0
4, 108134, Control_c, 0, 64, 127
4, 109450, Control_c, 0, 64, 0
4, 109760, Control_c, 0, 64, 127
4, 110880, Control_c, 0, 64, 0
4, 111092, Control_c, 0, 64, 127
4, 112330, Control_c, 0, 64, 0
4, 112546, Control_c, 0, 64, 127
4, 112810, Control_c, 0, 64, 0
4, 113026, Control_c, 0, 64, 127
4, 113765, Control_c, 0, 64, 0
4, 114089, Control_c, 0, 64, 127
4, 115200, Control_c, 0, 64, 0
4, 115574, Control_c, 0, 64, 127
4, 116640, Control_c, 0, 64, 0
4, 116908, Control_c, 0, 64, 127
4, 118090, Control_c, 0, 64, 0
4, 118286, Control_c, 0, 64, 127
4, 118572, Control_c, 0, 64, 0
4, 118743, Control_c, 0, 64, 127
4, 119285, Control_c, 0, 64, 0
4, 122404, Control_c, 0, 64, 0
4, 122612, Control_c, 0, 64, 127
4, 123849, Control_c, 0, 64, 0
4, 124080, Control_c, 0, 64, 127
4, 124333, Control_c, 0, 64, 0
4, 124560, Control_c, 0, 64, 127
4, 125289, Control_c, 0, 64, 0
4, 125609, Control_c, 0, 64, 127
4, 126727, Control_c, 0, 64, 0
4, 127200, Control_c, 0, 64, 127
4, 128160, Control_c, 0, 64, 0
4, 128428, Control_c, 0, 64, 127
4, 129610, Control_c, 0, 64, 0
4, 129806, Control_c, 0, 64, 127
4, 130092, Control_c, 0, 64, 0
4, 130263, Control_c, 0, 64, 127
4, 131040, Control_c, 0, 64, 0
4, 134033, Control_c, 0, 64, 127
4, 135373, Control_c, 0, 64, 0
4, 135523, Control_c, 0, 64, 127
4, 136800, Control_c, 0, 64, 0
4, 136872, Control_c, 0, 64, 127
4, 137292, Control_c, 0, 64, 0
4, 137376, Control_c, 0, 64, 127
4, 137772, Control_c, 0, 64, 0
4, 137866, Control_c, 0, 64, 127
4, 138211, Control_c, 0, 64, 0
4, 138332, Control_c, 0, 64, 127
4, 138733, Control_c, 0, 64, 0
4, 138819, Control_c, 0, 64, 127
4, 139211, Control_c, 0, 64, 0
4, 139292, Control_c, 0, 64, 127
4, 139682, Control_c, 0, 64, 0
4, 139814, Control_c, 0, 64, 127
4, 141126, Control_c, 0, 64, 0
4, 141212, Control_c, 0, 64, 127
4, 142564, Control_c, 0, 64, 0
4, 142647, Control_c, 0, 64, 127
4, 143052, Control_c, 0, 64, 0
4, 143112, Control_c, 0, 64, 127
4, 143533, Control_c, 0, 64, 0
4, 143607, Control_c, 0, 64, 127
4, 144003, Control_c, 0, 64, 0
4, 144092, Control_c, 0, 64, 127
4, 144492, Control_c, 0, 64, 0
4, 144593, Control_c, 0, 64, 127
4, 144972, Control_c, 0, 64, 0
4, 145066, Control_c, 0, 64, 127
4, 145446, Control_c, 0, 64, 0
4, 145539, Control_c, 0, 64, 127
4, 145932, Control_c, 0, 64, 0
4, 146019, Control_c, 0, 64, 127
4, 146413, Control_c, 0, 64, 0
4, 146513, Control_c, 0, 64, 127
4, 146896, Control_c, 0, 64, 0
4, 146993, Control_c, 0, 64, 127
4, 147372, Control_c, 0, 64, 0
4, 147487, Control_c, 0, 64, 127
4, 147852, Control_c, 0, 64, 0
4, 147946, Control_c, 0, 64, 127
4, 148325, Control_c, 0, 64, 0
4, 148433, Control_c, 0, 64, 127
4, 148812, Control_c, 0, 64, 0
4, 148906, Control_c, 0, 64, 127
4, 149295, Control_c, 0, 64, 0
4, 149393, Control_c, 0, 64, 127
4, 149765, Control_c, 0, 64, 0
4, 149852, Control_c, 0, 64, 127
4, 151207, Control_c, 0, 64, 0
4, 151313, Control_c, 0, 64, 127
4, 152640, Control_c, 0, 64, 0
4, 152753, Control_c, 0, 64, 127
4, 154080, Control_c, 0, 64, 0
4, 154152, Control_c, 0, 64, 127
4, 154572, Control_c, 0, 64, 0
4, 154656, Control_c, 0, 64, 127
4, 155052, Control_c, 0, 64, 0
4, 155146, Control_c, 0, 64, 127
4, 155491, Control_c, 0, 64, 0
4, 155612, Control_c, 0, 64, 127
4, 156013, Control_c, 0, 64, 0
4, 156099, Control_c, 0, 64, 127
4, 156491, Control_c, 0, 64, 0
4, 156572, Control_c, 0, 64, 127
4, 156962, Control_c, 0, 64, 0
4, 157094, Control_c, 0, 64, 127
4, 158406, Control_c, 0, 64, 0
4, 158492, Control_c, 0, 64, 127
4, 159844, Control_c, 0, 64, 0
4, 159927, Control_c, 0, 64, 127
4, 160332, Control_c, 0, 64, 0
4, 160392, Control_c, 0, 64, 127
4, 160813, Control_c, 0, 64, 0
4, 160887, Control_c, 0, 64, 127
4, 161283, Control_c, 0, 64, 0
4, 161372, Control_c, 0, 64, 127
4, 161772, Control_c, 0, 64, 0
4, 161873, Control_c, 0, 64, 127
4, 162252, Control_c, 0, 64, 0
4, 162346, Control_c, 0, 64, 127
4, 162726, Control_c, 0, 64, 0
4, 162819, Control_c, 0, 64, 127
4, 163212, Control_c, 0, 64, 0
4, 163299, Control_c, 0, 64, 127
4, 163693, Control_c, 0, 64, 0
4, 163793, Control_c, 0, 64, 127
4, 164176, Control_c, 0, 64, 0
4, 164273, Control_c, 0, 64, 127
4, 164652, Control_c, 0, 64, 0
4, 164767, Control_c, 0, 64, 127
4, 165132, Control_c, 0, 64, 0
4, 165226, Control_c, 0, 64, 127
4, 165605, Control_c, 0, 64, 0
4, 165713, Control_c, 0, 64, 127
4, 166092, Control_c, 0, 64, 0
4, 166186, Control_c, 0, 64, 127
4, 166575, Control_c, 0, 64, 0
4, 166673, Control_c, 0, 64, 127
4, 167045, Control_c, 0, 64, 0
4, 167132, Control_c, 0, 64, 127
4, 168480, Control_c, 0, 64, 0
4, 168589, Control_c, 0, 64, 127
4, 169920, Control_c, 0, 64, 0
4, 170029, Control_c, 0, 64, 127
4, 171366, Control_c, 0, 64, 0
4, 171466, Control_c, 0, 64, 127
4, 171852, Control_c, 0, 64, 0
4, 171946, Control_c, 0, 64, 127
4, 172333, Control_c, 0, 64, 0
4, 172426, Control_c, 0, 64, 127
4, 172800, Control_c, 0, 64, 0
4, 172875, Control_c, 0, 64, 127
4, 173293, Control_c, 0, 64, 0
4, 173366, Control_c, 0, 64, 127
4, 173773, Control_c, 0, 64, 0
4, 173869, Control_c, 0, 64, 127
4, 174249, Control_c, 0, 64, 0
4, 174337, Control_c, 0, 64, 127
4, 175688, Control_c, 0, 64, 0
4, 175766, Control_c, 0, 64, 127
4, 177132, Control_c, 0, 64, 0
4, 177233, Control_c, 0, 64, 127
4, 177612, Control_c, 0, 64, 0
4, 177706, Control_c, 0, 64, 127
4, 178092, Control_c, 0, 64, 0
4, 178172, Control_c, 0, 64, 127
4, 178563, Control_c, 0, 64, 0
4, 178669, Control_c, 0, 64, 127
4, 179053, Control_c, 0, 64, 0
4, 179143, Control_c, 0, 64, 127
4, 179533, Control_c, 0, 64, 0
4, 179617, Control_c, 0, 64, 127
4, 180007, Control_c, 0, 64, 0
4, 180097, Control_c, 0, 64, 127
4, 180493, Control_c, 0, 64, 0
4, 180583, Control_c, 0, 64, 127
4, 180973, Control_c, 0, 64, 0
4, 181069, Control_c, 0, 64, 127
4, 181543, Control_c, 0, 64, 0
4, 181629, Control_c, 0, 64, 127
4, 181930, Control_c, 0, 64, 0
4, 182017, Control_c, 0, 64, 127
4, 182414, Control_c, 0, 64, 0
4, 182503, Control_c, 0, 64, 127
4, 182886, Control_c, 0, 64, 0
4, 182960, Control_c, 0, 64, 127
4, 191520, Control_c, 0, 64, 0
4, 191635, Control_c, 0, 64, 127
4, 192960, Control_c, 0, 64, 0
4, 193012, Control_c, 0, 64, 127
4, 194400, Control_c, 0, 64, 0
4, 194499, Control_c, 0, 64, 127
4, 195846, Control_c, 0, 64, 0
4, 195967, Control_c, 0, 64, 127
4, 197287, Control_c, 0, 64, 0
4, 197421, Control_c, 0, 64, 127
4, 198735, Control_c, 0, 64, 0
4, 198854, Control_c, 0, 64, 127
4, 200164, Control_c, 0, 64, 0
4, 200261, Control_c, 0, 64, 127
4, 200654, Control_c, 0, 64, 0
4, 200727, Control_c, 0, 64, 127
4, 201133, Control_c, 0, 64, 0
4, 201202, Control_c, 0, 64, 127
4, 201607, Control_c, 0, 64, 0
4, 201720, Control_c, 0, 64, 127
4, 202094, Control_c, 0, 64, 0
4, 202193, Control_c, 0, 64, 127
4, 202573, Control_c, 0, 64, 0
4, 202673, Control_c, 0, 64, 127
4, 203044, Control_c, 0, 64, 0
4, 203160, Control_c, 0, 64, 127
4, 204492, Control_c, 0, 64, 0
4, 204565, Control_c, 0, 64, 127
4, 205923, Control_c, 0, 64, 0
4, 206007, Control_c, 0, 64, 127
4, 206413, Control_c, 0, 64, 0
4, 206496, Control_c, 0, 64, 127
4, 206893, Control_c, 0, 64, 0
4, 206967, Control_c, 0, 64, 127
4, 207365, Control_c, 0, 64, 0
4, 207473, Control_c, 0, 64, 127
4, 207854, Control_c, 0, 64, 0
4, 207946, Control_c, 0, 64, 127
4, 208334, Control_c, 0, 64, 0
4, 208398, Control_c, 0, 64, 127
4, 208803, Control_c, 0, 64, 0
4, 208885, Control_c, 0, 64, 127
4, 209293, Control_c, 0, 64, 0
4, 209386, Control_c, 0, 64, 127
4, 209776, Control_c, 0, 64, 0
4, 209887, Control_c, 0, 64, 127
4, 210254, Control_c, 0, 64, 0
4, 210339, Control_c, 0, 64, 127
4, 210734, Control_c, 0, 64, 0
4, 210826, Control_c, 0, 64, 127
4, 211215, Control_c, 0, 64, 0
4, 211299, Control_c, 0, 64, 127
4, 211687, Control_c, 0, 64, 0
4, 211807, Control_c, 0, 64, 127
4, 212175, Control_c, 0, 64, 0
4, 212266, Control_c, 0, 64, 127
4, 212656, Control_c, 0, 64, 0
4, 212746, Control_c, 0, 64, 127
4, 213124, Control_c, 0, 64, 0
4, 213254, Control_c, 0, 64, 127
4, 214560, Control_c, 0, 64, 0
4, 214669, Control_c, 0, 64, 127
4, 216000, Control_c, 0, 64, 0
4, 216109, Control_c, 0, 64, 127
4, 217446, Control_c, 0, 64, 0
4, 217546, Control_c, 0, 64, 127
4, 217932, Control_c, 0, 64, 0
4, 218026, Control_c, 0, 64, 127
4, 218413, Control_c, 0, 64, 0
4, 218506, Control_c, 0, 64, 127
4, 218880, Control_c, 0, 64, 0
4, 218955, Control_c, 0, 64, 127
4, 219373, Control_c, 0, 64, 0
4, 219446, Control_c, 0, 64, 127
4, 219853, Control_c, 0, 64, 0
4, 219949, Control_c, 0, 64, 127
4, 220329, Control_c, 0, 64, 0
4, 220417, Control_c, 0, 64, 127
4, 221768, Control_c, 0, 64, 0
4, 221846, Control_c, 0, 64, 127
4, 223212, Control_c, 0, 64, 0
4, 223313, Control_c, 0, 64, 127
4, 223692, Control_c, 0, 64, 0
4, 223786, Control_c, 0, 64, 127
4, 224172, Control_c, 0, 64, 0
4, 224252, Control_c, 0, 64, 127
4, 224643, Control_c, 0, 64, 0
4, 224749, Control_c, 0, 64, 127
4, 225133, Control_c, 0, 64, 0
4, 225223, Control_c, 0, 64, 127
4, 225613, Control_c, 0, 64, 0
4, 225697, Control_c, 0, 64, 127
4, 226087, Control_c, 0, 64, 0
4, 226177, Control_c, 0, 64, 127
4, 226573, Control_c, 0, 64, 0
4, 226663, Control_c, 0, 64, 127
4, 227053, Control_c, 0, 64, 0
4, 227149, Control_c, 0, 64, 127
4, 227623, Control_c, 0, 64, 0
4, 227709, Control_c, 0, 64, 127
4, 228010, Control_c, 0, 64, 0
4, 228097, Control_c, 0, 64, 127
4, 228494, Control_c, 0, 64, 0
4, 228583, Control_c, 0, 64, 127
4, 228966, Control_c, 0, 64, 0
4, 229040, Control_c, 0, 64, 127
4, 237600, Control_c, 0, 64, 0
4, 237715, Control_c, 0, 64, 127
4, 239040, Control_c, 0, 64, 0
4, 239092, Control_c, 0, 64, 127
4, 240480, Control_c, 0, 64, 0
4, 240579, Control_c, 0, 64, 127
4, 241926, Control_c, 0, 64, 0
4, 242047, Control_c, 0, 64, 127
4, 243367, Control_c, 0, 64, 0
4, 243501, Control_c, 0, 64, 127
4, 244815, Control_c, 0, 64, 0
4, 244934, Control_c, 0, 64, 127
4, 246244, Control_c, 0, 64, 0
4, 246341, Control_c, 0, 64, 127
4, 246734, Control_c, 0, 64, 0
4, 246807, Control_c, 0, 64, 127
4, 247213, Control_c, 0, 64, 0
4, 247282, Control_c, 0, 64, 127
4, 247687, Control_c, 0, 64, 0
4, 247800, Control_c, 0, 64, 127
4, 248174, Control_c, 0, 64, 0
4, 248273, Control_c, 0, 64, 127
4, 248653, Control_c, 0, 64, 0
4, 248753, Control_c, 0, 64, 127
4, 249124, Control_c, 0, 64, 0
4, 249240, Control_c, 0, 64, 127
4, 250572, Control_c, 0, 64, 0
4, 250645, Control_c, 0, 64, 127
4, 252003, Control_c, 0, 64, 0
4, 252087, Control_c, 0, 64, 127
4, 252493, Control_c, 0, 64, 0
4, 252576, Control_c, 0, 64, 127
4, 252973, Control_c, 0, 64, 0
4, 253047, Control_c, 0, 64, 127
4, 253445, Control_c, 0, 64, 0
4, 253553, Control_c, 0, 64, 127
4, 253934, Control_c, 0, 64, 0
4, 254026, Control_c, 0, 64, 127
4, 254414, Control_c, 0, 64, 0
4, 254478, Control_c, 0, 64, 127
4, 254883, Control_c, 0, 64, 0
4, 254965, Control_c, 0, 64, 127
4, 255373, Control_c, 0, 64, 0
4, 255466, Control_c, 0, 64, 127
4, 255856, Control_c, 0, 64, 0
4, 255967, Control_c, 0, 64, 127
4, 256334, Control_c, 0, 64, 0
4, 256419, Control_c, 0, 64, 127
4, 256814, Control_c, 0, 64, 0
4, 256906, Control_c, 0, 64, 127
4, 257295, Control_c, 0, 64, 0
4, 257379, Control_c, 0, 64, 127
4, 257767, Control_c, 0, 64, 0
4, 257887, Control_c, 0, 64, 127
4, 258255, Control_c, 0, 64, 0
4, 258346, Control_c, 0, 64, 127
4, 258736, Control_c, 0, 64, 0
4, 258826, Control_c, 0, 64, 127
4, 259204, Control_c, 0, 64, 0
4, 259334, Control_c, 0, 64, 127
4, 260645, Control_c, 0, 64, 0
4, 260820, Control_c, 0, 64, 127
4, 263527, Control_c, 0, 64, 0
4, 263580, Control_c, 0, 64, 127
4, 264969, Control_c, 0, 64, 0
4, 265080, Control_c, 0, 64, 127
4, 266405, Control_c, 0, 64, 0
4, 266520, Control_c, 0, 64, 127
4, 271680, Control_c, 0, 64, 0
4, 271860, Control_c, 0, 64, 127
4, 273610, Control_c, 0, 64, 0
4, 273840, Control_c, 0, 64, 127
4, 274092, Control_c, 0, 64, 0
4, 274292, Control_c, 0, 64, 127
4, 275050, Control_c, 0, 64, 0
4, 275419, Control_c, 0, 64, 127
4, 276486, Control_c, 0, 64, 0
4, 276854, Control_c, 0, 64, 127
4, 277931, Control_c, 0, 64, 0
4, 278110, Control_c, 0, 64, 127
4, 279367, Control_c, 0, 64, 0
4, 279600, Control_c, 0, 64, 127
4, 279853, Control_c, 0, 64, 0
4, 280052, Control_c, 0, 64, 127
4, 280808, Control_c, 0, 64, 0
4, 280963, Control_c, 0, 64, 127
4, 281292, Control_c, 0, 64, 0
4, 281421, Control_c, 0, 64, 127
4, 281772, Control_c, 0, 64, 0
4, 281908, Control_c, 0, 64, 127
4, 282250, Control_c, 0, 64, 0
4, 282774, Control_c, 0, 64, 127
4, 283687, Control_c, 0, 64, 0
4, 283906, Control_c, 0, 64, 127
4, 285127, Control_c, 0, 64, 0
4, 285403, Control_c, 0, 64, 127
4, 285611, Control_c, 0, 64, 0
4, 285784, Control_c, 0, 64, 127
4, 286560, Control_c, 0, 64, 0
4, 286939, Control_c, 0, 64, 127
4, 288007, Control_c, 0, 64, 0
4, 288374, Control_c, 0, 64, 127
4, 289448, Control_c, 0, 64, 0
4, 289680, Control_c, 0, 64, 127
4, 290886, Control_c, 0, 64, 0
4, 291106, Control_c, 0, 64, 127
4, 292334, Control_c, 0, 64, 0
4, 292387, Control_c, 0, 64, 127
4, 292812, Control_c, 0, 64, 0
4, 292871, Control_c, 0, 64, 127
4, 293292, Control_c, 0, 64, 0
4, 293347, Control_c, 0, 64, 127
4, 293770, Control_c, 0, 64, 0
4, 293947, Control_c, 0, 64, 127
4, 294826, Control_c, 0, 64, 0
4, 294980, Control_c, 0, 64, 127
4, 298080, Control_c, 0, 64, 0
4, 300678, Control_c, 0, 64, 127
4, 303840, Control_c, 0, 64, 0
4, 306471, Control_c, 0, 64, 127
4, 308160, Control_c, 0, 64, 0
4, 309383, Control_c, 0, 64, 127
4, 311040, Control_c, 0, 64, 0
4, 312614, Control_c, 0, 64, 127
4, 313930, Control_c, 0, 64, 0
4, 314240, Control_c, 0, 64, 127
4, 315360, Control_c, 0, 64, 0
4, 315572, Control_c, 0, 64, 127
4, 316810, Control_c, 0, 64, 0
4, 317026, Control_c, 0, 64, 127
4, 317290, Control_c, 0, 64, 0
4, 317506, Control_c, 0, 64, 127
4, 318245, Control_c, 0, 64, 0
4, 318569, Control_c, 0, 64, 127
4, 319680, Control_c, 0, 64, 0
4, 320054, Control_c, 0, 64, 127
4, 321120, Control_c, 0, 64, 0
4, 321388, Control_c, 0, 64, 127
4, 322570, Control_c, 0, 64, 0
4, 322766, Control_c, 0, 64, 127
4, 323052, Control_c, 0, 64, 0
4, 323223, Control_c, 0, 64, 127
4, 323765, Control_c, 0, 64, 0
4, 326884, Control_c, 0, 64, 0
4, 327092, Control_c, 0, 64, 127
4, 328329, Control_c, 0, 64, 0
4, 328560, Control_c, 0, 64, 127
4, 328813, Control_c, 0, 64, 0
4, 329040, Control_c, 0, 64, 127
4, 329769, Control_c, 0, 64, 0
4, 330089, Control_c, 0, 64, 127
4, 331207, Control_c, 0, 64, 0
4, 331520, Control_c, 0, 64, 127
4, 332640, Control_c, 0, 64, 0
4, 332908, Control_c, 0, 64, 127
4, 334090, Control_c, 0, 64, 0
4, 334286, Control_c, 0, 64, 127
4, 334572, Control_c, 0, 64, 0
4, 334743, Control_c, 0, 64, 127
4, 335520, Control_c, 0, 64, 0
4, 337052, Control_c, 0, 64, 127
4, 337920, Control_c, 0, 64, 0
4, 339966, Control_c, 0, 64, 127
4, 341045, Control_c, 0, 64, 0
4, 341326, Control_c, 0, 64, 127
4, 341772, Control_c, 0, 64, 0
4, 341989, Control_c, 0, 64, 127
4, 342252, Control_c, 0, 64, 0
4, 342446, Control_c, 0, 64, 127
4, 342728, Control_c, 0, 64, 0
4, 343067, Control_c, 0, 64, 127
4, 345040, Control_c, 0, 64, 0
4, 345040, End_track
5, 0, Start_track
5, 0, Title_t, "Schubert: Impromptu D 935 No. 2"
5, 0, End_track
6, 0, Start_track
6, 0, Title_t, "Copyright © 2007 by Bernd Krueger"
6, 0, End_track
7, 0, Start_track
7, 0, Title_t, "http://www.piano-midi.de"
7, 0, End_track
8, 0, Start_track
8, 0, Title_t, "Edition: 2014-03-20"
8, 0, End_track
0, 0, End_of_file
