0, 0, Header, 1, 7, 480
1, 0, Start_track
1, 0, Title_t, "Kinderszenen Opus 15"
1, 0, Title_t, "Kuriose Geschichte"
1, 0, Copyright_t, "Copyright © 1997 von Bernd Krüger."
1, 0, Text_t, "Robert Schumann"
1, 0, Text_t, "Fertiggestellt am 22.11.97\012"
1, 0, Text_t, "Korrekturen am 4.9.98\012"
1, 0, Text_t, "Anpassungen an Digitalpiano am 1.1.99\012"
1, 0, Text_t, "Update am 16.6.99\012"
1, 0, Text_t, "Update am 9.7.99\012"
1, 0, Text_t, "Normierung: 23.12.2002\012"
1, 0, Text_t, "Update am 4.10.2008\012"
1, 0, Text_t, "Update am 26.3.14\012"
1, 0, Text_t, "Dauer: 0:56 Minuten\012"
1, 0, Time_signature, 3, 2, 24, 8
1, 0, Key_signature, 2, "major"
1, 0, Tempo, 446196
1, 0, Marker_t, "Curious Story"
1, 1320, Tempo, 426409
1, 1440, Tempo, 433808
1, 1800, Tempo, 422535
1, 2160, Tempo, 471439
1, 2400, Tempo, 441469
1, 2880, Tempo, 435319
1, 3220, Tempo, 423519
1, 3240, Tempo, 422535
1, 3600, Tempo, 443033
1, 3840, Tempo, 441469
1, 4320, Tempo, 433808
1, 4680, Tempo, 421053
1, 5040, Tempo, 482393
1, 5280, Tempo, 446196
1, 5760, Tempo, 435319
1, 6120, Tempo, 422535
1, 6480, Tempo, 443033
1, 6720, Tempo, 441469
1, 7080, Tempo, 420669
1, 7200, Tempo, 427869
1, 7560, Tempo, 418118
1, 7920, Tempo, 473223
1, 8160, Tempo, 443033
1, 8640, Tempo, 435319
1, 8980, Tempo, 423519
1, 9000, Tempo, 424028
1, 9360, Tempo, 459313
1, 9600, Tempo, 433808
1, 9960, Tempo, 446196
1, 10560, Tempo, 435319
1, 11040, Tempo, 499750
1, 11400, Tempo, 597788
1, 11520, Tempo, 499750
1, 12000, Tempo, 531632
1, 12480, Tempo, 446196
1, 12841, Tempo, 426409
1, 12961, Tempo, 433808
1, 13320, Tempo, 418118
1, 13681, Tempo, 471439
1, 13921, Tempo, 441469
1, 14401, Tempo, 435319
1, 14760, Tempo, 421053
1, 15121, Tempo, 443033
1, 15361, Tempo, 441469
1, 15841, Tempo, 433808
1, 16200, Tempo, 421053
1, 16560, Tempo, 493827
1, 16801, Tempo, 446196
1, 17281, Tempo, 435319
1, 17640, Tempo, 419580
1, 17641, Tempo, 417827
1, 18001, Tempo, 443033
1, 18241, Tempo, 441469
1, 18601, Tempo, 420669
1, 18721, Tempo, 427869
1, 19080, Tempo, 416667
1, 19440, Tempo, 478698
1, 19681, Tempo, 443033
1, 20161, Tempo, 435319
1, 20520, Tempo, 421053
1, 20881, Tempo, 459313
1, 21121, Tempo, 433808
1, 21481, Tempo, 446196
1, 22081, Tempo, 435319
1, 22560, Tempo, 538503
1, 22921, Tempo, 597788
1, 23041, Tempo, 512033
1, 24000, Tempo, 476190
1, 24240, Tempo, 468750
1, 24480, Tempo, 478088
1, 24720, Tempo, 468750
1, 25200, Tempo, 459770
1, 25440, Tempo, 463320
1, 25680, Tempo, 481928
1, 25920, Tempo, 461538
1, 26880, Tempo, 472441
1, 27840, Tempo, 489796
1, 28560, Tempo, 506329
1, 28800, Tempo, 493827
1, 28920, Tempo, 495868
1, 29040, Tempo, 497925
1, 29160, Tempo, 500000
1, 29280, Tempo, 502092
1, 29400, Tempo, 504202
1, 29520, Tempo, 506329
1, 29640, Tempo, 508475
1, 29740, Tempo, 510638
1, 29760, Tempo, 446196
1, 30120, Tempo, 426409
1, 30240, Tempo, 433808
1, 30600, Tempo, 421053
1, 30960, Tempo, 471439
1, 31200, Tempo, 441469
1, 31680, Tempo, 435319
1, 32020, Tempo, 423519
1, 32040, Tempo, 421053
1, 32400, Tempo, 443033
1, 32640, Tempo, 441469
1, 33120, Tempo, 433808
1, 33480, Tempo, 421053
1, 33840, Tempo, 482393
1, 34080, Tempo, 446196
1, 34560, Tempo, 435319
1, 34920, Tempo, 421053
1, 35280, Tempo, 443033
1, 35520, Tempo, 441469
1, 35880, Tempo, 420669
1, 36000, Tempo, 427869
1, 36360, Tempo, 416667
1, 36720, Tempo, 473223
1, 36960, Tempo, 433808
1, 37320, Tempo, 466926
1, 37440, Tempo, 487805
1, 37680, Tempo, 461538
1, 37920, Tempo, 436364
1, 38160, Tempo, 459770
1, 38400, Tempo, 493827
1, 38640, Tempo, 506329
1, 38880, Tempo, 480000
1, 39560, Tempo, 508475
1, 39600, Tempo, 526316
1, 39840, Tempo, 550459
1, 40080, Tempo, 615385
1, 40320, Tempo, 655738
1, 41280, Tempo, 480000
1, 41520, Tempo, 470588
1, 41760, Tempo, 478088
1, 42000, Tempo, 468750
1, 42240, Tempo, 466926
1, 42480, Tempo, 459770
1, 42720, Tempo, 470588
1, 42960, Tempo, 481928
1, 43200, Tempo, 461538
1, 44160, Tempo, 472441
1, 45120, Tempo, 489796
1, 45840, Tempo, 506329
1, 46080, Tempo, 493827
1, 46200, Tempo, 495868
1, 46320, Tempo, 497925
1, 46440, Tempo, 500000
1, 46560, Tempo, 502092
1, 46680, Tempo, 504202
1, 46800, Tempo, 506329
1, 46920, Tempo, 508475
1, 47020, Tempo, 510638
1, 47040, Tempo, 446196
1, 47400, Tempo, 426409
1, 47520, Tempo, 433808
1, 47880, Tempo, 419580
1, 48240, Tempo, 471439
1, 48480, Tempo, 441469
1, 48960, Tempo, 435319
1, 49300, Tempo, 423519
1, 49320, Tempo, 419580
1, 49680, Tempo, 443033
1, 49920, Tempo, 441469
1, 50400, Tempo, 433808
1, 50760, Tempo, 420669
1, 51120, Tempo, 482393
1, 51360, Tempo, 446196
1, 51840, Tempo, 435319
1, 52200, Tempo, 424028
1, 52560, Tempo, 443033
1, 52800, Tempo, 441469
1, 53160, Tempo, 420669
1, 53280, Tempo, 427869
1, 53640, Tempo, 415225
1, 54000, Tempo, 473223
1, 54240, Tempo, 433808
1, 54600, Tempo, 466926
1, 54720, Tempo, 487805
1, 54960, Tempo, 461538
1, 55200, Tempo, 436364
1, 55440, Tempo, 459770
1, 55680, Tempo, 510638
1, 55920, Tempo, 519481
1, 56160, Tempo, 502092
1, 56400, Tempo, 504202
1, 56620, Tempo, 506329
1, 56840, Tempo, 508475
1, 56880, Tempo, 558140
1, 57120, Tempo, 612245
1, 57360, Tempo, 689655
1, 58560, Marker_t, "Fine"
1, 58560, End_track
2, 0, Start_track
2, 0, Title_t, "Piano right"
2, 0, Program_c, 0, 0
2, 0, Control_c, 0, 7, 100
2, 0, Control_c, 0, 10, 64
2, 0, Control_c, 0, 91, 127
2, 0, Text_t, "bdca426d104a26ac9dcb070447587523"
2, 959, Control_c, 0, 91, 127
2, 960, Note_on_c, 0, 66, 62
2, 1320, Note_on_c, 0, 66, 0
2, 1320, Note_on_c, 0, 71, 50
2, 1379, Note_on_c, 0, 69, 55
2, 1380, Note_on_c, 0, 71, 0
2, 1439, Note_on_c, 0, 69, 0
2, 1440, Note_on_c, 0, 61, 62
2, 1440, Note_on_c, 0, 67, 62
2, 1500, Note_on_c, 0, 67, 0
2, 1500, Note_on_c, 0, 61, 0
2, 1800, Note_on_c, 0, 61, 57
2, 1800, Note_on_c, 0, 66, 57
2, 1860, Note_on_c, 0, 66, 0
2, 1860, Note_on_c, 0, 61, 0
2, 1920, Note_on_c, 0, 67, 60
2, 1920, Note_on_c, 0, 61, 60
2, 2160, Note_on_c, 0, 61, 0
2, 2160, Note_on_c, 0, 67, 0
2, 2400, Note_on_c, 0, 61, 62
2, 2400, Note_on_c, 0, 71, 62
2, 2880, Note_on_c, 0, 71, 0
2, 2880, Note_on_c, 0, 61, 0
2, 2880, Note_on_c, 0, 69, 64
2, 2880, Note_on_c, 0, 62, 64
2, 3840, Note_on_c, 0, 62, 0
2, 3840, Note_on_c, 0, 69, 0
2, 3840, Note_on_c, 0, 74, 64
2, 3840, Note_on_c, 0, 69, 64
2, 4320, Note_on_c, 0, 69, 0
2, 4320, Note_on_c, 0, 74, 0
2, 4320, Note_on_c, 0, 73, 64
2, 4320, Note_on_c, 0, 67, 64
2, 4380, Note_on_c, 0, 67, 0
2, 4380, Note_on_c, 0, 73, 0
2, 4680, Note_on_c, 0, 66, 56
2, 4680, Note_on_c, 0, 71, 56
2, 4740, Note_on_c, 0, 71, 0
2, 4740, Note_on_c, 0, 66, 0
2, 4800, Note_on_c, 0, 69, 60
2, 4800, Note_on_c, 0, 64, 60
2, 5040, Note_on_c, 0, 64, 0
2, 5040, Note_on_c, 0, 69, 0
2, 5280, Note_on_c, 0, 79, 67
2, 5280, Note_on_c, 0, 67, 67
2, 5280, Note_on_c, 0, 69, 67
2, 5760, Note_on_c, 0, 69, 0
2, 5760, Note_on_c, 0, 67, 0
2, 5760, Note_on_c, 0, 79, 0
2, 5760, Note_on_c, 0, 66, 67
2, 5760, Note_on_c, 0, 74, 67
2, 5760, Note_on_c, 0, 78, 67
2, 5820, Note_on_c, 0, 78, 0
2, 5820, Note_on_c, 0, 74, 0
2, 5820, Note_on_c, 0, 66, 0
2, 6120, Note_on_c, 0, 67, 59
2, 6120, Note_on_c, 0, 76, 59
2, 6120, Note_on_c, 0, 73, 59
2, 6180, Note_on_c, 0, 73, 0
2, 6180, Note_on_c, 0, 76, 0
2, 6180, Note_on_c, 0, 67, 0
2, 6240, Note_on_c, 0, 69, 56
2, 6240, Note_on_c, 0, 74, 56
2, 6480, Note_on_c, 0, 74, 0
2, 6480, Note_on_c, 0, 69, 0
2, 6720, Note_on_c, 0, 66, 58
2, 7080, Note_on_c, 0, 66, 0
2, 7080, Note_on_c, 0, 71, 50
2, 7139, Note_on_c, 0, 69, 55
2, 7140, Note_on_c, 0, 71, 0
2, 7199, Note_on_c, 0, 69, 0
2, 7200, Note_on_c, 0, 67, 61
2, 7200, Note_on_c, 0, 61, 61
2, 7290, Note_on_c, 0, 61, 0
2, 7290, Note_on_c, 0, 67, 0
2, 7560, Note_on_c, 0, 66, 57
2, 7560, Note_on_c, 0, 61, 57
2, 7620, Note_on_c, 0, 61, 0
2, 7620, Note_on_c, 0, 66, 0
2, 7680, Note_on_c, 0, 67, 61
2, 7680, Note_on_c, 0, 61, 61
2, 7920, Note_on_c, 0, 61, 0
2, 7920, Note_on_c, 0, 67, 0
2, 8160, Note_on_c, 0, 61, 64
2, 8160, Note_on_c, 0, 71, 64
2, 8640, Note_on_c, 0, 71, 0
2, 8640, Note_on_c, 0, 61, 0
2, 8640, Note_on_c, 0, 62, 64
2, 8640, Note_on_c, 0, 69, 64
2, 9600, Note_on_c, 0, 69, 0
2, 9600, Note_on_c, 0, 62, 0
2, 9600, Note_on_c, 0, 74, 60
2, 9600, Note_on_c, 0, 69, 60
2, 9960, Note_on_c, 0, 74, 0
2, 9960, Note_on_c, 0, 73, 56
2, 10080, Note_on_c, 0, 73, 0
2, 10080, Note_on_c, 0, 69, 0
2, 10080, Note_on_c, 0, 73, 60
2, 10080, Note_on_c, 0, 69, 60
2, 10320, Note_on_c, 0, 74, 54
2, 10344, Note_on_c, 0, 73, 0
2, 10560, Note_on_c, 0, 76, 57
2, 10584, Note_on_c, 0, 74, 0
2, 10800, Note_on_c, 0, 78, 60
2, 10824, Note_on_c, 0, 76, 0
2, 11040, Note_on_c, 0, 78, 0
2, 11040, Note_on_c, 0, 69, 0
2, 11040, Note_on_c, 0, 78, 62
2, 11040, Note_on_c, 0, 74, 45
2, 11400, Note_on_c, 0, 78, 0
2, 11400, Note_on_c, 0, 80, 55
2, 11520, Note_on_c, 0, 80, 0
2, 11520, Note_on_c, 0, 80, 51
2, 12000, Note_on_c, 0, 80, 0
2, 12000, Note_on_c, 0, 74, 0
2, 12000, Note_on_c, 0, 81, 46
2, 12000, Note_on_c, 0, 73, 40
2, 12360, Note_on_c, 0, 73, 0
2, 12360, Note_on_c, 0, 81, 0
2, 12480, Control_c, 0, 91, 127
2, 12480, Note_on_c, 0, 66, 59
2, 12840, Note_on_c, 0, 66, 0
2, 12840, Note_on_c, 0, 71, 50
2, 12900, Note_on_c, 0, 71, 0
2, 12900, Note_on_c, 0, 69, 55
2, 12960, Note_on_c, 0, 69, 0
2, 12960, Note_on_c, 0, 61, 63
2, 12960, Note_on_c, 0, 67, 63
2, 13020, Note_on_c, 0, 67, 0
2, 13020, Note_on_c, 0, 61, 0
2, 13320, Note_on_c, 0, 61, 56
2, 13320, Note_on_c, 0, 66, 56
2, 13380, Note_on_c, 0, 66, 0
2, 13380, Note_on_c, 0, 61, 0
2, 13440, Note_on_c, 0, 61, 60
2, 13440, Note_on_c, 0, 67, 60
2, 13680, Note_on_c, 0, 67, 0
2, 13680, Note_on_c, 0, 61, 0
2, 13920, Note_on_c, 0, 61, 63
2, 13920, Note_on_c, 0, 71, 63
2, 14400, Note_on_c, 0, 71, 0
2, 14400, Note_on_c, 0, 61, 0
2, 14400, Note_on_c, 0, 62, 63
2, 14400, Note_on_c, 0, 69, 63
2, 15360, Note_on_c, 0, 69, 0
2, 15360, Note_on_c, 0, 62, 0
2, 15360, Note_on_c, 0, 69, 64
2, 15360, Note_on_c, 0, 74, 64
2, 15840, Note_on_c, 0, 74, 0
2, 15840, Note_on_c, 0, 69, 0
2, 15840, Note_on_c, 0, 67, 64
2, 15840, Note_on_c, 0, 73, 64
2, 15900, Note_on_c, 0, 73, 0
2, 15900, Note_on_c, 0, 67, 0
2, 16200, Note_on_c, 0, 66, 57
2, 16200, Note_on_c, 0, 71, 57
2, 16260, Note_on_c, 0, 71, 0
2, 16260, Note_on_c, 0, 66, 0
2, 16320, Note_on_c, 0, 64, 60
2, 16320, Note_on_c, 0, 69, 60
2, 16560, Note_on_c, 0, 69, 0
2, 16560, Note_on_c, 0, 64, 0
2, 16800, Note_on_c, 0, 67, 68
2, 16800, Note_on_c, 0, 69, 68
2, 16800, Note_on_c, 0, 79, 68
2, 17280, Note_on_c, 0, 79, 0
2, 17280, Note_on_c, 0, 69, 0
2, 17280, Note_on_c, 0, 67, 0
2, 17280, Note_on_c, 0, 66, 68
2, 17280, Note_on_c, 0, 74, 68
2, 17280, Note_on_c, 0, 78, 68
2, 17340, Note_on_c, 0, 78, 0
2, 17340, Note_on_c, 0, 74, 0
2, 17340, Note_on_c, 0, 66, 0
2, 17640, Note_on_c, 0, 67, 60
2, 17640, Note_on_c, 0, 73, 60
2, 17640, Note_on_c, 0, 76, 60
2, 17700, Note_on_c, 0, 76, 0
2, 17700, Note_on_c, 0, 73, 0
2, 17700, Note_on_c, 0, 67, 0
2, 17760, Note_on_c, 0, 69, 57
2, 17760, Note_on_c, 0, 74, 57
2, 18000, Note_on_c, 0, 74, 0
2, 18000, Note_on_c, 0, 69, 0
2, 18240, Note_on_c, 0, 66, 59
2, 18600, Note_on_c, 0, 66, 0
2, 18600, Note_on_c, 0, 71, 50
2, 18659, Note_on_c, 0, 69, 55
2, 18660, Note_on_c, 0, 71, 0
2, 18719, Note_on_c, 0, 69, 0
2, 18720, Note_on_c, 0, 61, 65
2, 18720, Note_on_c, 0, 67, 65
2, 18810, Note_on_c, 0, 67, 0
2, 18810, Note_on_c, 0, 61, 0
2, 19080, Note_on_c, 0, 61, 57
2, 19080, Note_on_c, 0, 66, 57
2, 19140, Note_on_c, 0, 66, 0
2, 19140, Note_on_c, 0, 61, 0
2, 19200, Note_on_c, 0, 61, 60
2, 19200, Note_on_c, 0, 67, 60
2, 19440, Note_on_c, 0, 67, 0
2, 19440, Note_on_c, 0, 61, 0
2, 19680, Note_on_c, 0, 61, 63
2, 19680, Note_on_c, 0, 71, 63
2, 20160, Note_on_c, 0, 71, 0
2, 20160, Note_on_c, 0, 61, 0
2, 20160, Note_on_c, 0, 62, 63
2, 20160, Note_on_c, 0, 69, 63
2, 21120, Note_on_c, 0, 69, 0
2, 21120, Note_on_c, 0, 62, 0
2, 21120, Note_on_c, 0, 74, 60
2, 21120, Note_on_c, 0, 69, 60
2, 21480, Note_on_c, 0, 74, 0
2, 21480, Note_on_c, 0, 73, 56
2, 21600, Note_on_c, 0, 73, 0
2, 21600, Note_on_c, 0, 69, 0
2, 21600, Note_on_c, 0, 73, 60
2, 21600, Note_on_c, 0, 69, 60
2, 21840, Note_on_c, 0, 74, 54
2, 21864, Note_on_c, 0, 73, 0
2, 22080, Note_on_c, 0, 76, 57
2, 22104, Note_on_c, 0, 74, 0
2, 22320, Note_on_c, 0, 78, 60
2, 22344, Note_on_c, 0, 76, 0
2, 22560, Note_on_c, 0, 78, 0
2, 22560, Note_on_c, 0, 69, 0
2, 22560, Note_on_c, 0, 74, 45
2, 22560, Note_on_c, 0, 78, 62
2, 22920, Note_on_c, 0, 78, 0
2, 22920, Note_on_c, 0, 80, 55
2, 23040, Note_on_c, 0, 80, 0
2, 23040, Note_on_c, 0, 80, 51
2, 23520, Note_on_c, 0, 80, 0
2, 23520, Note_on_c, 0, 74, 0
2, 23520, Note_on_c, 0, 73, 40
2, 23520, Note_on_c, 0, 81, 46
2, 23880, Note_on_c, 0, 81, 0
2, 23880, Note_on_c, 0, 73, 0
2, 24000, Note_on_c, 0, 72, 41
2, 24000, Note_on_c, 0, 76, 41
2, 24240, Note_on_c, 0, 78, 41
2, 24264, Note_on_c, 0, 76, 0
2, 24480, Note_on_c, 0, 72, 0
2, 24480, Note_on_c, 0, 71, 40
2, 24480, Note_on_c, 0, 79, 45
2, 24504, Note_on_c, 0, 78, 0
2, 24720, Note_on_c, 0, 81, 41
2, 24744, Note_on_c, 0, 79, 0
2, 24960, Note_on_c, 0, 79, 41
2, 24984, Note_on_c, 0, 81, 0
2, 25200, Note_on_c, 0, 78, 41
2, 25224, Note_on_c, 0, 79, 0
2, 25440, Note_on_c, 0, 71, 0
2, 25440, Note_on_c, 0, 75, 40
2, 25440, Note_on_c, 0, 79, 43
2, 25464, Note_on_c, 0, 78, 0
2, 25680, Note_on_c, 0, 78, 45
2, 25704, Note_on_c, 0, 79, 0
2, 25920, Note_on_c, 0, 75, 0
2, 25920, Note_on_c, 0, 72, 47
2, 25920, Note_on_c, 0, 76, 47
2, 25944, Note_on_c, 0, 78, 0
2, 26880, Note_on_c, 0, 76, 0
2, 26880, Note_on_c, 0, 72, 0
2, 26880, Note_on_c, 0, 69, 44
2, 26880, Note_on_c, 0, 74, 44
2, 27120, Note_on_c, 0, 72, 43
2, 27144, Note_on_c, 0, 74, 0
2, 27360, Note_on_c, 0, 69, 0
2, 27360, Note_on_c, 0, 67, 41
2, 27360, Note_on_c, 0, 71, 41
2, 27384, Note_on_c, 0, 72, 0
2, 27840, Note_on_c, 0, 71, 0
2, 27840, Note_on_c, 0, 67, 0
2, 27840, Note_on_c, 0, 67, 44
2, 27840, Note_on_c, 0, 72, 44
2, 28080, Note_on_c, 0, 69, 43
2, 28104, Note_on_c, 0, 67, 0
2, 28320, Note_on_c, 0, 72, 0
2, 28320, Note_on_c, 0, 62, 42
2, 28320, Note_on_c, 0, 69, 42
2, 28320, Note_on_c, 0, 71, 42
2, 28344, Note_on_c, 0, 69, 0
2, 28560, Note_on_c, 0, 69, 0
2, 28560, Note_on_c, 0, 67, 41
2, 28584, Note_on_c, 0, 62, 0
2, 28800, Note_on_c, 0, 67, 0
2, 28800, Note_on_c, 0, 71, 0
2, 28800, Note_on_c, 0, 62, 37
2, 28800, Note_on_c, 0, 67, 37
2, 28800, Note_on_c, 0, 69, 37
2, 29040, Note_on_c, 0, 62, 0
2, 29040, Note_on_c, 0, 66, 35
2, 29064, Note_on_c, 0, 67, 0
2, 29280, Note_on_c, 0, 64, 34
2, 29304, Note_on_c, 0, 66, 0
2, 29520, Note_on_c, 0, 62, 32
2, 29544, Note_on_c, 0, 64, 0
2, 29760, Note_on_c, 0, 62, 0
2, 29760, Note_on_c, 0, 69, 0
2, 29760, Note_on_c, 0, 62, 42
2, 29760, Note_on_c, 0, 66, 42
2, 30000, Note_on_c, 0, 62, 0
2, 30000, Note_on_c, 0, 60, 45
2, 30120, Note_on_c, 0, 66, 0
2, 30120, Note_on_c, 0, 71, 40
2, 30179, Note_on_c, 0, 69, 44
2, 30180, Note_on_c, 0, 71, 0
2, 30180, Note_on_c, 0, 60, 0
2, 30239, Note_on_c, 0, 69, 0
2, 30240, Note_on_c, 0, 61, 49
2, 30240, Note_on_c, 0, 67, 49
2, 30300, Note_on_c, 0, 67, 0
2, 30300, Note_on_c, 0, 61, 0
2, 30600, Note_on_c, 0, 61, 44
2, 30600, Note_on_c, 0, 66, 44
2, 30660, Note_on_c, 0, 66, 0
2, 30660, Note_on_c, 0, 61, 0
2, 30720, Note_on_c, 0, 61, 47
2, 30720, Note_on_c, 0, 67, 47
2, 30960, Note_on_c, 0, 67, 0
2, 30960, Note_on_c, 0, 61, 0
2, 31200, Note_on_c, 0, 61, 49
2, 31200, Note_on_c, 0, 71, 49
2, 31680, Note_on_c, 0, 71, 0
2, 31680, Note_on_c, 0, 61, 0
2, 31680, Note_on_c, 0, 62, 51
2, 31680, Note_on_c, 0, 69, 51
2, 32640, Note_on_c, 0, 69, 0
2, 32640, Note_on_c, 0, 62, 0
2, 32640, Note_on_c, 0, 69, 51
2, 32640, Note_on_c, 0, 74, 51
2, 33120, Note_on_c, 0, 74, 0
2, 33120, Note_on_c, 0, 69, 0
2, 33120, Note_on_c, 0, 67, 51
2, 33120, Note_on_c, 0, 73, 51
2, 33180, Note_on_c, 0, 73, 0
2, 33180, Note_on_c, 0, 67, 0
2, 33480, Note_on_c, 0, 66, 45
2, 33480, Note_on_c, 0, 71, 45
2, 33540, Note_on_c, 0, 71, 0
2, 33540, Note_on_c, 0, 66, 0
2, 33600, Note_on_c, 0, 64, 49
2, 33600, Note_on_c, 0, 69, 49
2, 33840, Note_on_c, 0, 69, 0
2, 33840, Note_on_c, 0, 64, 0
2, 34080, Note_on_c, 0, 67, 53
2, 34080, Note_on_c, 0, 69, 53
2, 34080, Note_on_c, 0, 79, 53
2, 34560, Note_on_c, 0, 79, 0
2, 34560, Note_on_c, 0, 69, 0
2, 34560, Note_on_c, 0, 67, 0
2, 34560, Note_on_c, 0, 66, 53
2, 34560, Note_on_c, 0, 74, 53
2, 34560, Note_on_c, 0, 78, 53
2, 34620, Note_on_c, 0, 78, 0
2, 34620, Note_on_c, 0, 74, 0
2, 34620, Note_on_c, 0, 66, 0
2, 34920, Note_on_c, 0, 67, 48
2, 34920, Note_on_c, 0, 73, 48
2, 34920, Note_on_c, 0, 76, 48
2, 34980, Note_on_c, 0, 76, 0
2, 34980, Note_on_c, 0, 73, 0
2, 34980, Note_on_c, 0, 67, 0
2, 35040, Note_on_c, 0, 69, 45
2, 35040, Note_on_c, 0, 74, 45
2, 35280, Note_on_c, 0, 74, 0
2, 35280, Note_on_c, 0, 69, 0
2, 35520, Note_on_c, 0, 66, 56
2, 35880, Note_on_c, 0, 66, 0
2, 35880, Note_on_c, 0, 71, 50
2, 35939, Note_on_c, 0, 69, 55
2, 35940, Note_on_c, 0, 71, 0
2, 35999, Note_on_c, 0, 69, 0
2, 36000, Note_on_c, 0, 61, 61
2, 36000, Note_on_c, 0, 67, 61
2, 36090, Note_on_c, 0, 67, 0
2, 36090, Note_on_c, 0, 61, 0
2, 36360, Note_on_c, 0, 61, 56
2, 36360, Note_on_c, 0, 66, 56
2, 36420, Note_on_c, 0, 66, 0
2, 36420, Note_on_c, 0, 61, 0
2, 36480, Note_on_c, 0, 61, 59
2, 36480, Note_on_c, 0, 67, 59
2, 36720, Note_on_c, 0, 67, 0
2, 36720, Note_on_c, 0, 61, 0
2, 36960, Note_on_c, 0, 71, 60
2, 36960, Note_on_c, 0, 61, 60
2, 37320, Note_on_c, 0, 71, 0
2, 37320, Note_on_c, 0, 69, 56
2, 37440, Note_on_c, 0, 69, 0
2, 37440, Note_on_c, 0, 61, 0
2, 37440, Note_on_c, 0, 69, 60
2, 37440, Note_on_c, 0, 62, 60
2, 37680, Note_on_c, 0, 71, 52
2, 37704, Note_on_c, 0, 69, 0
2, 37920, Note_on_c, 0, 62, 0
2, 37920, Note_on_c, 0, 73, 54
2, 37944, Note_on_c, 0, 71, 0
2, 38160, Note_on_c, 0, 74, 55
2, 38184, Note_on_c, 0, 73, 0
2, 38400, Note_on_c, 0, 74, 0
2, 38400, Note_on_c, 0, 71, 57
2, 38400, Note_on_c, 0, 74, 57
2, 38640, Note_on_c, 0, 76, 59
2, 38664, Note_on_c, 0, 74, 0
2, 38880, Note_on_c, 0, 71, 0
2, 38880, Note_on_c, 0, 69, 61
2, 38880, Note_on_c, 0, 78, 61
2, 38904, Note_on_c, 0, 76, 0
2, 39360, Note_on_c, 0, 69, 0
2, 39360, Note_on_c, 0, 69, 52
2, 39600, Note_on_c, 0, 71, 51
2, 39624, Note_on_c, 0, 69, 0
2, 39840, Note_on_c, 0, 71, 0
2, 39840, Note_on_c, 0, 78, 0
2, 39840, Note_on_c, 0, 71, 48
2, 39840, Note_on_c, 0, 76, 48
2, 40080, Note_on_c, 0, 73, 48
2, 40104, Note_on_c, 0, 71, 0
2, 40320, Note_on_c, 0, 73, 46
2, 40344, Note_on_c, 0, 73, 0
2, 40800, Note_on_c, 0, 73, 0
2, 40800, Note_on_c, 0, 76, 0
2, 40800, Note_on_c, 0, 74, 38
2, 41160, Note_on_c, 0, 74, 0
2, 41280, Note_on_c, 0, 72, 41
2, 41280, Note_on_c, 0, 76, 41
2, 41520, Note_on_c, 0, 78, 41
2, 41544, Note_on_c, 0, 76, 0
2, 41760, Note_on_c, 0, 72, 0
2, 41760, Note_on_c, 0, 71, 40
2, 41760, Note_on_c, 0, 79, 45
2, 41784, Note_on_c, 0, 78, 0
2, 42000, Note_on_c, 0, 81, 41
2, 42024, Note_on_c, 0, 79, 0
2, 42240, Note_on_c, 0, 79, 41
2, 42264, Note_on_c, 0, 81, 0
2, 42480, Note_on_c, 0, 78, 41
2, 42504, Note_on_c, 0, 79, 0
2, 42720, Note_on_c, 0, 71, 0
2, 42720, Note_on_c, 0, 75, 40
2, 42720, Note_on_c, 0, 79, 43
2, 42744, Note_on_c, 0, 78, 0
2, 42960, Note_on_c, 0, 78, 45
2, 42984, Note_on_c, 0, 79, 0
2, 43200, Note_on_c, 0, 75, 0
2, 43200, Note_on_c, 0, 72, 47
2, 43200, Note_on_c, 0, 76, 47
2, 43224, Note_on_c, 0, 78, 0
2, 44160, Note_on_c, 0, 76, 0
2, 44160, Note_on_c, 0, 72, 0
2, 44160, Note_on_c, 0, 69, 44
2, 44160, Note_on_c, 0, 74, 44
2, 44400, Note_on_c, 0, 72, 43
2, 44424, Note_on_c, 0, 74, 0
2, 44640, Note_on_c, 0, 69, 0
2, 44640, Note_on_c, 0, 67, 41
2, 44640, Note_on_c, 0, 71, 41
2, 44664, Note_on_c, 0, 72, 0
2, 45120, Note_on_c, 0, 71, 0
2, 45120, Note_on_c, 0, 67, 0
2, 45120, Note_on_c, 0, 67, 44
2, 45120, Note_on_c, 0, 72, 44
2, 45360, Note_on_c, 0, 69, 43
2, 45384, Note_on_c, 0, 67, 0
2, 45600, Note_on_c, 0, 69, 0
2, 45600, Note_on_c, 0, 72, 0
2, 45600, Note_on_c, 0, 62, 42
2, 45600, Note_on_c, 0, 69, 42
2, 45600, Note_on_c, 0, 71, 42
2, 45840, Note_on_c, 0, 69, 0
2, 45840, Note_on_c, 0, 62, 0
2, 45840, Note_on_c, 0, 67, 41
2, 46080, Note_on_c, 0, 67, 0
2, 46080, Note_on_c, 0, 71, 0
2, 46080, Note_on_c, 0, 62, 37
2, 46080, Note_on_c, 0, 67, 37
2, 46080, Note_on_c, 0, 69, 37
2, 46320, Note_on_c, 0, 62, 0
2, 46320, Note_on_c, 0, 66, 35
2, 46344, Note_on_c, 0, 67, 0
2, 46560, Note_on_c, 0, 64, 34
2, 46584, Note_on_c, 0, 66, 0
2, 46800, Note_on_c, 0, 62, 32
2, 46824, Note_on_c, 0, 64, 0
2, 47040, Note_on_c, 0, 62, 0
2, 47040, Note_on_c, 0, 69, 0
2, 47040, Note_on_c, 0, 62, 42
2, 47040, Note_on_c, 0, 66, 42
2, 47280, Note_on_c, 0, 62, 0
2, 47280, Note_on_c, 0, 60, 45
2, 47400, Note_on_c, 0, 66, 0
2, 47400, Note_on_c, 0, 71, 40
2, 47459, Note_on_c, 0, 69, 44
2, 47460, Note_on_c, 0, 71, 0
2, 47460, Note_on_c, 0, 60, 0
2, 47519, Note_on_c, 0, 69, 0
2, 47520, Note_on_c, 0, 61, 49
2, 47520, Note_on_c, 0, 67, 49
2, 47580, Note_on_c, 0, 67, 0
2, 47580, Note_on_c, 0, 61, 0
2, 47880, Note_on_c, 0, 61, 47
2, 47880, Note_on_c, 0, 66, 47
2, 47940, Note_on_c, 0, 66, 0
2, 47940, Note_on_c, 0, 61, 0
2, 48000, Note_on_c, 0, 61, 50
2, 48000, Note_on_c, 0, 67, 50
2, 48240, Note_on_c, 0, 67, 0
2, 48240, Note_on_c, 0, 61, 0
2, 48480, Note_on_c, 0, 61, 49
2, 48480, Note_on_c, 0, 71, 49
2, 48960, Note_on_c, 0, 71, 0
2, 48960, Note_on_c, 0, 61, 0
2, 48960, Note_on_c, 0, 62, 51
2, 48960, Note_on_c, 0, 69, 51
2, 49920, Note_on_c, 0, 69, 0
2, 49920, Note_on_c, 0, 62, 0
2, 49920, Note_on_c, 0, 69, 51
2, 49920, Note_on_c, 0, 74, 51
2, 50400, Note_on_c, 0, 74, 0
2, 50400, Note_on_c, 0, 69, 0
2, 50400, Note_on_c, 0, 67, 51
2, 50400, Note_on_c, 0, 73, 51
2, 50460, Note_on_c, 0, 73, 0
2, 50460, Note_on_c, 0, 67, 0
2, 50760, Note_on_c, 0, 66, 47
2, 50760, Note_on_c, 0, 71, 47
2, 50820, Note_on_c, 0, 71, 0
2, 50820, Note_on_c, 0, 66, 0
2, 50880, Note_on_c, 0, 64, 50
2, 50880, Note_on_c, 0, 69, 50
2, 51120, Note_on_c, 0, 69, 0
2, 51120, Note_on_c, 0, 64, 0
2, 51360, Note_on_c, 0, 67, 53
2, 51360, Note_on_c, 0, 69, 53
2, 51360, Note_on_c, 0, 79, 53
2, 51840, Note_on_c, 0, 79, 0
2, 51840, Note_on_c, 0, 69, 0
2, 51840, Note_on_c, 0, 67, 0
2, 51840, Note_on_c, 0, 66, 53
2, 51840, Note_on_c, 0, 74, 53
2, 51840, Note_on_c, 0, 78, 53
2, 51900, Note_on_c, 0, 78, 0
2, 51900, Note_on_c, 0, 74, 0
2, 51900, Note_on_c, 0, 66, 0
2, 52200, Note_on_c, 0, 67, 49
2, 52200, Note_on_c, 0, 73, 49
2, 52200, Note_on_c, 0, 76, 49
2, 52260, Note_on_c, 0, 76, 0
2, 52260, Note_on_c, 0, 73, 0
2, 52260, Note_on_c, 0, 67, 0
2, 52320, Note_on_c, 0, 69, 48
2, 52320, Note_on_c, 0, 74, 48
2, 52560, Note_on_c, 0, 74, 0
2, 52560, Note_on_c, 0, 69, 0
2, 52800, Note_on_c, 0, 66, 56
2, 53160, Note_on_c, 0, 66, 0
2, 53160, Note_on_c, 0, 71, 50
2, 53219, Note_on_c, 0, 69, 55
2, 53220, Note_on_c, 0, 71, 0
2, 53279, Note_on_c, 0, 69, 0
2, 53280, Note_on_c, 0, 61, 61
2, 53280, Note_on_c, 0, 67, 61
2, 53370, Note_on_c, 0, 67, 0
2, 53370, Note_on_c, 0, 61, 0
2, 53640, Note_on_c, 0, 61, 53
2, 53640, Note_on_c, 0, 66, 53
2, 53700, Note_on_c, 0, 66, 0
2, 53700, Note_on_c, 0, 61, 0
2, 53760, Note_on_c, 0, 61, 57
2, 53760, Note_on_c, 0, 67, 57
2, 54000, Note_on_c, 0, 67, 0
2, 54000, Note_on_c, 0, 61, 0
2, 54240, Note_on_c, 0, 71, 60
2, 54240, Note_on_c, 0, 61, 60
2, 54600, Note_on_c, 0, 71, 0
2, 54600, Note_on_c, 0, 69, 56
2, 54720, Note_on_c, 0, 69, 0
2, 54720, Note_on_c, 0, 61, 0
2, 54720, Note_on_c, 0, 69, 60
2, 54720, Note_on_c, 0, 62, 60
2, 54960, Note_on_c, 0, 71, 52
2, 54984, Note_on_c, 0, 69, 0
2, 55200, Note_on_c, 0, 62, 0
2, 55200, Note_on_c, 0, 73, 54
2, 55224, Note_on_c, 0, 71, 0
2, 55440, Note_on_c, 0, 74, 55
2, 55464, Note_on_c, 0, 73, 0
2, 55680, Note_on_c, 0, 74, 0
2, 55680, Note_on_c, 0, 71, 57
2, 55680, Note_on_c, 0, 74, 57
2, 55920, Note_on_c, 0, 76, 59
2, 55944, Note_on_c, 0, 74, 0
2, 56160, Note_on_c, 0, 71, 0
2, 56160, Note_on_c, 0, 69, 61
2, 56160, Note_on_c, 0, 78, 61
2, 56184, Note_on_c, 0, 76, 0
2, 56640, Note_on_c, 0, 69, 0
2, 56640, Note_on_c, 0, 69, 52
2, 56880, Note_on_c, 0, 71, 51
2, 56904, Note_on_c, 0, 69, 0
2, 57120, Note_on_c, 0, 71, 0
2, 57120, Note_on_c, 0, 78, 0
2, 57120, Note_on_c, 0, 71, 48
2, 57120, Note_on_c, 0, 76, 48
2, 57360, Note_on_c, 0, 73, 48
2, 57384, Note_on_c, 0, 71, 0
2, 57600, Note_on_c, 0, 73, 46
2, 57624, Note_on_c, 0, 73, 0
2, 58080, Note_on_c, 0, 73, 0
2, 58080, Note_on_c, 0, 76, 0
2, 58080, Note_on_c, 0, 74, 38
2, 58560, Note_on_c, 0, 74, 0
2, 58560, End_track
3, 0, Start_track
3, 0, Title_t, "Piano left"
3, 0, Program_c, 0, 0
3, 0, Control_c, 0, 7, 100
3, 0, Control_c, 0, 10, 64
3, 0, Control_c, 0, 64, 0
3, 959, Control_c, 0, 91, 127
3, 960, Note_on_c, 0, 50, 51
3, 960, Note_on_c, 0, 57, 51
3, 960, Control_c, 0, 64, 127
3, 1440, Note_on_c, 0, 57, 0
3, 1440, Note_on_c, 0, 50, 0
3, 1440, Note_on_c, 0, 57, 56
3, 1440, Note_on_c, 0, 52, 56
3, 1459, Control_c, 0, 64, 0
3, 1500, Note_on_c, 0, 52, 0
3, 1500, Note_on_c, 0, 57, 0
3, 1800, Note_on_c, 0, 51, 47
3, 1800, Note_on_c, 0, 57, 47
3, 1860, Note_on_c, 0, 57, 0
3, 1860, Note_on_c, 0, 51, 0
3, 1920, Note_on_c, 0, 52, 51
3, 1920, Note_on_c, 0, 57, 51
3, 2160, Note_on_c, 0, 57, 0
3, 2160, Note_on_c, 0, 52, 0
3, 2400, Note_on_c, 0, 57, 55
3, 2400, Note_on_c, 0, 55, 55
3, 2417, Control_c, 0, 64, 127
3, 2880, Note_on_c, 0, 55, 0
3, 2880, Note_on_c, 0, 57, 0
3, 2880, Note_on_c, 0, 54, 55
3, 2880, Note_on_c, 0, 57, 55
3, 2900, Control_c, 0, 64, 0
3, 2940, Note_on_c, 0, 57, 0
3, 2940, Note_on_c, 0, 54, 0
3, 3240, Note_on_c, 0, 57, 49
3, 3240, Note_on_c, 0, 53, 49
3, 3300, Note_on_c, 0, 53, 0
3, 3300, Note_on_c, 0, 57, 0
3, 3360, Note_on_c, 0, 57, 52
3, 3360, Note_on_c, 0, 54, 52
3, 3600, Note_on_c, 0, 54, 0
3, 3600, Note_on_c, 0, 57, 0
3, 3840, Note_on_c, 0, 57, 55
3, 3840, Note_on_c, 0, 54, 55
3, 3857, Control_c, 0, 64, 127
3, 4320, Note_on_c, 0, 54, 0
3, 4320, Note_on_c, 0, 57, 0
3, 4320, Note_on_c, 0, 52, 55
3, 4320, Note_on_c, 0, 57, 55
3, 4341, Control_c, 0, 64, 0
3, 4380, Note_on_c, 0, 57, 0
3, 4380, Note_on_c, 0, 52, 0
3, 4680, Note_on_c, 0, 57, 52
3, 4680, Note_on_c, 0, 50, 52
3, 4740, Note_on_c, 0, 50, 0
3, 4740, Note_on_c, 0, 57, 0
3, 4800, Note_on_c, 0, 57, 56
3, 4800, Note_on_c, 0, 49, 56
3, 5040, Note_on_c, 0, 49, 0
3, 5040, Note_on_c, 0, 57, 0
3, 5280, Note_on_c, 0, 45, 61
3, 5280, Note_on_c, 0, 57, 61
3, 5287, Control_c, 0, 64, 127
3, 5760, Note_on_c, 0, 57, 0
3, 5760, Note_on_c, 0, 45, 0
3, 5760, Note_on_c, 0, 57, 58
3, 5760, Note_on_c, 0, 50, 58
3, 5781, Control_c, 0, 64, 0
3, 5820, Note_on_c, 0, 50, 0
3, 5820, Note_on_c, 0, 57, 0
3, 6120, Note_on_c, 0, 52, 56
3, 6120, Note_on_c, 0, 57, 56
3, 6180, Note_on_c, 0, 57, 0
3, 6180, Note_on_c, 0, 52, 0
3, 6240, Note_on_c, 0, 57, 53
3, 6240, Note_on_c, 0, 54, 53
3, 6480, Note_on_c, 0, 54, 0
3, 6480, Note_on_c, 0, 57, 0
3, 6720, Note_on_c, 0, 50, 50
3, 6720, Note_on_c, 0, 57, 50
3, 6720, Control_c, 0, 64, 127
3, 7200, Note_on_c, 0, 57, 0
3, 7200, Note_on_c, 0, 50, 0
3, 7200, Note_on_c, 0, 52, 56
3, 7200, Note_on_c, 0, 57, 56
3, 7219, Control_c, 0, 64, 0
3, 7290, Note_on_c, 0, 57, 0
3, 7290, Note_on_c, 0, 52, 0
3, 7560, Note_on_c, 0, 57, 53
3, 7560, Note_on_c, 0, 51, 53
3, 7620, Note_on_c, 0, 51, 0
3, 7620, Note_on_c, 0, 57, 0
3, 7680, Note_on_c, 0, 57, 56
3, 7680, Note_on_c, 0, 52, 56
3, 7920, Note_on_c, 0, 52, 0
3, 7920, Note_on_c, 0, 57, 0
3, 8160, Note_on_c, 0, 55, 58
3, 8160, Note_on_c, 0, 57, 58
3, 8183, Control_c, 0, 64, 127
3, 8640, Note_on_c, 0, 57, 0
3, 8640, Note_on_c, 0, 55, 0
3, 8640, Note_on_c, 0, 57, 58
3, 8640, Note_on_c, 0, 54, 58
3, 8658, Control_c, 0, 64, 0
3, 8730, Note_on_c, 0, 54, 0
3, 8730, Note_on_c, 0, 57, 0
3, 9000, Note_on_c, 0, 53, 54
3, 9000, Note_on_c, 0, 57, 54
3, 9060, Note_on_c, 0, 57, 0
3, 9060, Note_on_c, 0, 53, 0
3, 9120, Note_on_c, 0, 57, 58
3, 9120, Note_on_c, 0, 54, 58
3, 9360, Note_on_c, 0, 54, 0
3, 9360, Note_on_c, 0, 57, 0
3, 9600, Note_on_c, 0, 57, 52
3, 9600, Note_on_c, 0, 54, 52
3, 9840, Note_on_c, 0, 57, 0
3, 9840, Note_on_c, 0, 59, 49
3, 10080, Note_on_c, 0, 59, 0
3, 10080, Note_on_c, 0, 54, 0
3, 10080, Note_on_c, 0, 52, 48
3, 10080, Note_on_c, 0, 61, 48
3, 10320, Note_on_c, 0, 62, 50
3, 10344, Note_on_c, 0, 61, 0
3, 10560, Note_on_c, 0, 52, 0
3, 10560, Note_on_c, 0, 64, 51
3, 10584, Note_on_c, 0, 62, 0
3, 10800, Note_on_c, 0, 66, 53
3, 10824, Note_on_c, 0, 64, 0
3, 11040, Note_on_c, 0, 66, 0
3, 11040, Note_on_c, 0, 66, 55
3, 11040, Note_on_c, 0, 64, 45
3, 11400, Note_on_c, 0, 66, 0
3, 11400, Note_on_c, 0, 68, 48
3, 11520, Note_on_c, 0, 68, 0
3, 11520, Control_c, 0, 64, 127
3, 11520, Note_on_c, 0, 68, 45
3, 12000, Note_on_c, 0, 68, 0
3, 12000, Note_on_c, 0, 64, 0
3, 12000, Note_on_c, 0, 57, 37
3, 12000, Note_on_c, 0, 69, 37
3, 12009, Control_c, 0, 64, 0
3, 12360, Note_on_c, 0, 69, 0
3, 12360, Note_on_c, 0, 57, 0
3, 12480, Control_c, 0, 64, 127
3, 12480, Control_c, 0, 91, 127
3, 12480, Note_on_c, 0, 50, 50
3, 12480, Note_on_c, 0, 57, 50
3, 12960, Note_on_c, 0, 57, 0
3, 12960, Note_on_c, 0, 50, 0
3, 12960, Note_on_c, 0, 52, 58
3, 12960, Note_on_c, 0, 57, 58
3, 12980, Control_c, 0, 64, 0
3, 13020, Note_on_c, 0, 57, 0
3, 13020, Note_on_c, 0, 52, 0
3, 13320, Note_on_c, 0, 51, 54
3, 13320, Note_on_c, 0, 57, 54
3, 13380, Note_on_c, 0, 57, 0
3, 13380, Note_on_c, 0, 51, 0
3, 13440, Note_on_c, 0, 52, 57
3, 13440, Note_on_c, 0, 57, 57
3, 13680, Note_on_c, 0, 57, 0
3, 13680, Note_on_c, 0, 52, 0
3, 13920, Note_on_c, 0, 55, 57
3, 13920, Note_on_c, 0, 57, 57
3, 13949, Control_c, 0, 64, 127
3, 14400, Note_on_c, 0, 57, 0
3, 14400, Note_on_c, 0, 55, 0
3, 14400, Note_on_c, 0, 54, 57
3, 14400, Note_on_c, 0, 57, 57
3, 14423, Control_c, 0, 64, 0
3, 14460, Note_on_c, 0, 57, 0
3, 14460, Note_on_c, 0, 54, 0
3, 14760, Note_on_c, 0, 53, 53
3, 14760, Note_on_c, 0, 57, 53
3, 14820, Note_on_c, 0, 57, 0
3, 14820, Note_on_c, 0, 53, 0
3, 14880, Note_on_c, 0, 54, 57
3, 14880, Note_on_c, 0, 57, 57
3, 15120, Note_on_c, 0, 57, 0
3, 15120, Note_on_c, 0, 54, 0
3, 15360, Control_c, 0, 64, 127
3, 15360, Note_on_c, 0, 54, 56
3, 15360, Note_on_c, 0, 57, 56
3, 15840, Note_on_c, 0, 57, 0
3, 15840, Note_on_c, 0, 54, 0
3, 15840, Note_on_c, 0, 52, 56
3, 15840, Note_on_c, 0, 57, 56
3, 15861, Control_c, 0, 64, 0
3, 15900, Note_on_c, 0, 57, 0
3, 15900, Note_on_c, 0, 52, 0
3, 16200, Note_on_c, 0, 50, 53
3, 16200, Note_on_c, 0, 57, 53
3, 16260, Note_on_c, 0, 57, 0
3, 16260, Note_on_c, 0, 50, 0
3, 16320, Note_on_c, 0, 49, 57
3, 16320, Note_on_c, 0, 57, 57
3, 16560, Note_on_c, 0, 57, 0
3, 16560, Note_on_c, 0, 49, 0
3, 16800, Note_on_c, 0, 45, 60
3, 16800, Note_on_c, 0, 57, 60
3, 16821, Control_c, 0, 64, 127
3, 17280, Note_on_c, 0, 57, 0
3, 17280, Note_on_c, 0, 45, 0
3, 17280, Note_on_c, 0, 50, 57
3, 17280, Note_on_c, 0, 57, 57
3, 17300, Control_c, 0, 64, 0
3, 17340, Note_on_c, 0, 57, 0
3, 17340, Note_on_c, 0, 50, 0
3, 17640, Note_on_c, 0, 52, 55
3, 17640, Note_on_c, 0, 57, 55
3, 17700, Note_on_c, 0, 57, 0
3, 17700, Note_on_c, 0, 52, 0
3, 17760, Note_on_c, 0, 54, 55
3, 17760, Note_on_c, 0, 57, 55
3, 18000, Note_on_c, 0, 57, 0
3, 18000, Note_on_c, 0, 54, 0
3, 18240, Note_on_c, 0, 50, 52
3, 18240, Note_on_c, 0, 57, 52
3, 18268, Control_c, 0, 64, 127
3, 18720, Note_on_c, 0, 57, 0
3, 18720, Note_on_c, 0, 50, 0
3, 18720, Note_on_c, 0, 52, 56
3, 18720, Note_on_c, 0, 57, 56
3, 18739, Control_c, 0, 64, 0
3, 18810, Note_on_c, 0, 57, 0
3, 18810, Note_on_c, 0, 52, 0
3, 19080, Note_on_c, 0, 51, 53
3, 19080, Note_on_c, 0, 57, 53
3, 19140, Note_on_c, 0, 57, 0
3, 19140, Note_on_c, 0, 51, 0
3, 19200, Note_on_c, 0, 52, 55
3, 19200, Note_on_c, 0, 57, 55
3, 19440, Note_on_c, 0, 57, 0
3, 19440, Note_on_c, 0, 52, 0
3, 19680, Note_on_c, 0, 55, 56
3, 19680, Note_on_c, 0, 57, 56
3, 19709, Control_c, 0, 64, 127
3, 20160, Note_on_c, 0, 57, 0
3, 20160, Note_on_c, 0, 55, 0
3, 20160, Note_on_c, 0, 54, 56
3, 20160, Note_on_c, 0, 57, 56
3, 20183, Control_c, 0, 64, 0
3, 20250, Note_on_c, 0, 57, 0
3, 20250, Note_on_c, 0, 54, 0
3, 20520, Note_on_c, 0, 53, 54
3, 20520, Note_on_c, 0, 57, 54
3, 20580, Note_on_c, 0, 57, 0
3, 20580, Note_on_c, 0, 53, 0
3, 20640, Note_on_c, 0, 54, 58
3, 20640, Note_on_c, 0, 57, 58
3, 20880, Note_on_c, 0, 57, 0
3, 20880, Note_on_c, 0, 54, 0
3, 21120, Note_on_c, 0, 57, 52
3, 21120, Note_on_c, 0, 54, 52
3, 21360, Note_on_c, 0, 57, 0
3, 21360, Note_on_c, 0, 59, 49
3, 21600, Note_on_c, 0, 59, 0
3, 21600, Note_on_c, 0, 54, 0
3, 21600, Note_on_c, 0, 61, 48
3, 21600, Note_on_c, 0, 52, 48
3, 21840, Note_on_c, 0, 62, 50
3, 21864, Note_on_c, 0, 61, 0
3, 22080, Note_on_c, 0, 52, 0
3, 22080, Note_on_c, 0, 64, 51
3, 22104, Note_on_c, 0, 62, 0
3, 22320, Note_on_c, 0, 66, 53
3, 22344, Note_on_c, 0, 64, 0
3, 22560, Note_on_c, 0, 66, 0
3, 22560, Note_on_c, 0, 64, 45
3, 22560, Note_on_c, 0, 66, 55
3, 22920, Note_on_c, 0, 66, 0
3, 22920, Note_on_c, 0, 68, 48
3, 23040, Note_on_c, 0, 68, 0
3, 23040, Control_c, 0, 64, 127
3, 23040, Note_on_c, 0, 68, 45
3, 23520, Note_on_c, 0, 68, 0
3, 23520, Note_on_c, 0, 64, 0
3, 23520, Note_on_c, 0, 69, 37
3, 23520, Note_on_c, 0, 57, 37
3, 23522, Control_c, 0, 64, 0
3, 23880, Note_on_c, 0, 57, 0
3, 23880, Note_on_c, 0, 69, 0
3, 24000, Note_on_c, 0, 57, 41
3, 24000, Note_on_c, 0, 64, 41
3, 24240, Note_on_c, 0, 66, 41
3, 24264, Note_on_c, 0, 64, 0
3, 24480, Note_on_c, 0, 57, 0
3, 24480, Note_on_c, 0, 59, 40
3, 24480, Note_on_c, 0, 67, 44
3, 24504, Note_on_c, 0, 66, 0
3, 24720, Note_on_c, 0, 69, 41
3, 24744, Note_on_c, 0, 67, 0
3, 24960, Note_on_c, 0, 67, 41
3, 24984, Note_on_c, 0, 69, 0
3, 25200, Note_on_c, 0, 66, 39
3, 25224, Note_on_c, 0, 67, 0
3, 25440, Note_on_c, 0, 59, 0
3, 25440, Note_on_c, 0, 59, 40
3, 25440, Note_on_c, 0, 67, 41
3, 25464, Note_on_c, 0, 66, 0
3, 25680, Note_on_c, 0, 66, 44
3, 25704, Note_on_c, 0, 67, 0
3, 25920, Note_on_c, 0, 59, 0
3, 25920, Note_on_c, 0, 60, 46
3, 25920, Note_on_c, 0, 64, 46
3, 25944, Note_on_c, 0, 66, 0
3, 26160, Note_on_c, 0, 59, 43
3, 26184, Note_on_c, 0, 60, 0
3, 26400, Note_on_c, 0, 57, 42
3, 26424, Note_on_c, 0, 59, 0
3, 26640, Note_on_c, 0, 55, 41
3, 26664, Note_on_c, 0, 57, 0
3, 26880, Note_on_c, 0, 55, 0
3, 26880, Note_on_c, 0, 64, 0
3, 26880, Note_on_c, 0, 55, 44
3, 26880, Note_on_c, 0, 62, 44
3, 27120, Note_on_c, 0, 54, 43
3, 27144, Note_on_c, 0, 55, 0
3, 27360, Note_on_c, 0, 55, 43
3, 27384, Note_on_c, 0, 54, 0
3, 27600, Note_on_c, 0, 54, 42
3, 27624, Note_on_c, 0, 55, 0
3, 27840, Note_on_c, 0, 62, 0
3, 27840, Note_on_c, 0, 52, 41
3, 27840, Note_on_c, 0, 60, 41
3, 27864, Note_on_c, 0, 54, 0
3, 28080, Note_on_c, 0, 54, 40
3, 28104, Note_on_c, 0, 52, 0
3, 28320, Note_on_c, 0, 60, 0
3, 28320, Note_on_c, 0, 55, 41
3, 28320, Note_on_c, 0, 59, 41
3, 28344, Note_on_c, 0, 54, 0
3, 28560, Note_on_c, 0, 50, 41
3, 28584, Note_on_c, 0, 55, 0
3, 28800, Note_on_c, 0, 50, 0
3, 28800, Note_on_c, 0, 59, 0
3, 28800, Note_on_c, 0, 55, 36
3, 28800, Note_on_c, 0, 50, 36
3, 28800, Note_on_c, 0, 57, 36
3, 29040, Note_on_c, 0, 55, 0
3, 29040, Note_on_c, 0, 54, 35
3, 29280, Note_on_c, 0, 52, 34
3, 29304, Note_on_c, 0, 54, 0
3, 29520, Note_on_c, 0, 50, 32
3, 29544, Note_on_c, 0, 52, 0
3, 29753, Control_c, 0, 64, 127
3, 29760, Note_on_c, 0, 50, 0
3, 29760, Note_on_c, 0, 50, 0
3, 29760, Note_on_c, 0, 50, 40
3, 29760, Note_on_c, 0, 57, 40
3, 29856, Note_on_c, 0, 57, 0
3, 30000, Note_on_c, 0, 50, 0
3, 30000, Note_on_c, 0, 51, 43
3, 30240, Note_on_c, 0, 51, 0
3, 30240, Note_on_c, 0, 57, 0
3, 30240, Note_on_c, 0, 52, 44
3, 30240, Note_on_c, 0, 57, 44
3, 30253, Control_c, 0, 64, 0
3, 30300, Note_on_c, 0, 57, 0
3, 30300, Note_on_c, 0, 52, 0
3, 30600, Note_on_c, 0, 51, 38
3, 30600, Note_on_c, 0, 57, 38
3, 30660, Note_on_c, 0, 57, 0
3, 30660, Note_on_c, 0, 51, 0
3, 30720, Note_on_c, 0, 52, 40
3, 30720, Note_on_c, 0, 57, 40
3, 30960, Note_on_c, 0, 57, 0
3, 30960, Note_on_c, 0, 52, 0
3, 31200, Note_on_c, 0, 55, 44
3, 31200, Note_on_c, 0, 57, 44
3, 31223, Control_c, 0, 64, 127
3, 31680, Note_on_c, 0, 57, 0
3, 31680, Note_on_c, 0, 55, 0
3, 31680, Note_on_c, 0, 54, 44
3, 31680, Note_on_c, 0, 57, 44
3, 31700, Control_c, 0, 64, 0
3, 31740, Note_on_c, 0, 57, 0
3, 31740, Note_on_c, 0, 54, 0
3, 32040, Note_on_c, 0, 53, 39
3, 32040, Note_on_c, 0, 57, 39
3, 32100, Note_on_c, 0, 57, 0
3, 32100, Note_on_c, 0, 53, 0
3, 32160, Note_on_c, 0, 54, 43
3, 32160, Note_on_c, 0, 57, 43
3, 32400, Note_on_c, 0, 57, 0
3, 32400, Note_on_c, 0, 54, 0
3, 32640, Note_on_c, 0, 54, 44
3, 32640, Note_on_c, 0, 57, 44
3, 32669, Control_c, 0, 64, 127
3, 33120, Note_on_c, 0, 57, 0
3, 33120, Note_on_c, 0, 54, 0
3, 33120, Note_on_c, 0, 52, 44
3, 33120, Note_on_c, 0, 57, 44
3, 33140, Control_c, 0, 64, 0
3, 33180, Note_on_c, 0, 57, 0
3, 33180, Note_on_c, 0, 52, 0
3, 33480, Note_on_c, 0, 50, 40
3, 33480, Note_on_c, 0, 57, 40
3, 33540, Note_on_c, 0, 57, 0
3, 33540, Note_on_c, 0, 50, 0
3, 33600, Note_on_c, 0, 49, 44
3, 33600, Note_on_c, 0, 57, 44
3, 33840, Note_on_c, 0, 57, 0
3, 33840, Note_on_c, 0, 49, 0
3, 34080, Control_c, 0, 64, 127
3, 34080, Note_on_c, 0, 45, 48
3, 34080, Note_on_c, 0, 57, 48
3, 34320, Note_on_c, 0, 45, 0
3, 34320, Note_on_c, 0, 49, 48
3, 34560, Note_on_c, 0, 49, 0
3, 34560, Note_on_c, 0, 57, 0
3, 34560, Note_on_c, 0, 50, 46
3, 34560, Note_on_c, 0, 57, 46
3, 34579, Control_c, 0, 64, 0
3, 34620, Note_on_c, 0, 57, 0
3, 34620, Note_on_c, 0, 50, 0
3, 34920, Note_on_c, 0, 52, 41
3, 34920, Note_on_c, 0, 57, 41
3, 34980, Note_on_c, 0, 57, 0
3, 34980, Note_on_c, 0, 52, 0
3, 35040, Note_on_c, 0, 54, 41
3, 35040, Note_on_c, 0, 57, 41
3, 35280, Note_on_c, 0, 57, 0
3, 35280, Note_on_c, 0, 54, 0
3, 35520, Note_on_c, 0, 50, 55
3, 35520, Note_on_c, 0, 57, 55
3, 35541, Control_c, 0, 64, 127
3, 36000, Note_on_c, 0, 57, 0
3, 36000, Note_on_c, 0, 50, 0
3, 36000, Note_on_c, 0, 52, 56
3, 36000, Note_on_c, 0, 57, 56
3, 36017, Control_c, 0, 64, 0
3, 36090, Note_on_c, 0, 57, 0
3, 36090, Note_on_c, 0, 52, 0
3, 36360, Note_on_c, 0, 51, 47
3, 36360, Note_on_c, 0, 57, 47
3, 36420, Note_on_c, 0, 57, 0
3, 36420, Note_on_c, 0, 51, 0
3, 36480, Note_on_c, 0, 52, 50
3, 36480, Note_on_c, 0, 57, 50
3, 36720, Note_on_c, 0, 57, 0
3, 36720, Note_on_c, 0, 52, 0
3, 36960, Note_on_c, 0, 57, 52
3, 36960, Note_on_c, 0, 55, 52
3, 36971, Control_c, 0, 64, 127
3, 37440, Note_on_c, 0, 55, 0
3, 37440, Note_on_c, 0, 57, 0
3, 37440, Control_c, 0, 64, 0
3, 37440, Note_on_c, 0, 57, 45
3, 37440, Note_on_c, 0, 54, 45
3, 37680, Note_on_c, 0, 59, 45
3, 37704, Note_on_c, 0, 57, 0
3, 37920, Note_on_c, 0, 61, 46
3, 37944, Note_on_c, 0, 59, 0
3, 38160, Note_on_c, 0, 62, 47
3, 38184, Note_on_c, 0, 61, 0
3, 38400, Note_on_c, 0, 62, 0
3, 38400, Note_on_c, 0, 54, 0
3, 38400, Note_on_c, 0, 55, 48
3, 38400, Note_on_c, 0, 62, 48
3, 38640, Note_on_c, 0, 64, 49
3, 38664, Note_on_c, 0, 62, 0
3, 38880, Note_on_c, 0, 55, 0
3, 38880, Note_on_c, 0, 57, 50
3, 38880, Note_on_c, 0, 66, 50
3, 38904, Note_on_c, 0, 64, 0
3, 39120, Note_on_c, 0, 67, 47
3, 39144, Note_on_c, 0, 66, 0
3, 39384, Note_on_c, 0, 67, 0
3, 39840, Note_on_c, 0, 67, 41
3, 40320, Note_on_c, 0, 57, 0
3, 40320, Note_on_c, 0, 62, 43
3, 40440, Control_c, 0, 64, 127
3, 40800, Note_on_c, 0, 67, 0
3, 40800, Note_on_c, 0, 66, 35
3, 40821, Control_c, 0, 64, 0
3, 41160, Note_on_c, 0, 66, 0
3, 41280, Note_on_c, 0, 62, 0
3, 41280, Note_on_c, 0, 57, 41
3, 41280, Note_on_c, 0, 64, 41
3, 41520, Note_on_c, 0, 66, 41
3, 41544, Note_on_c, 0, 64, 0
3, 41760, Note_on_c, 0, 57, 0
3, 41760, Note_on_c, 0, 59, 40
3, 41760, Note_on_c, 0, 67, 44
3, 41784, Note_on_c, 0, 66, 0
3, 42000, Note_on_c, 0, 69, 41
3, 42024, Note_on_c, 0, 67, 0
3, 42240, Note_on_c, 0, 67, 41
3, 42264, Note_on_c, 0, 69, 0
3, 42480, Note_on_c, 0, 66, 39
3, 42504, Note_on_c, 0, 67, 0
3, 42720, Note_on_c, 0, 59, 0
3, 42720, Note_on_c, 0, 59, 40
3, 42720, Note_on_c, 0, 67, 41
3, 42744, Note_on_c, 0, 66, 0
3, 42960, Note_on_c, 0, 66, 44
3, 42984, Note_on_c, 0, 67, 0
3, 43200, Note_on_c, 0, 59, 0
3, 43200, Note_on_c, 0, 60, 46
3, 43200, Note_on_c, 0, 64, 46
3, 43224, Note_on_c, 0, 66, 0
3, 43440, Note_on_c, 0, 59, 43
3, 43464, Note_on_c, 0, 60, 0
3, 43680, Note_on_c, 0, 57, 42
3, 43704, Note_on_c, 0, 59, 0
3, 43920, Note_on_c, 0, 55, 41
3, 43944, Note_on_c, 0, 57, 0
3, 44160, Note_on_c, 0, 55, 0
3, 44160, Note_on_c, 0, 64, 0
3, 44160, Note_on_c, 0, 55, 44
3, 44160, Note_on_c, 0, 62, 44
3, 44400, Note_on_c, 0, 54, 43
3, 44424, Note_on_c, 0, 55, 0
3, 44640, Note_on_c, 0, 55, 43
3, 44664, Note_on_c, 0, 54, 0
3, 44880, Note_on_c, 0, 54, 42
3, 44904, Note_on_c, 0, 55, 0
3, 45120, Note_on_c, 0, 62, 0
3, 45120, Note_on_c, 0, 52, 41
3, 45120, Note_on_c, 0, 60, 41
3, 45144, Note_on_c, 0, 54, 0
3, 45360, Note_on_c, 0, 54, 40
3, 45384, Note_on_c, 0, 52, 0
3, 45600, Note_on_c, 0, 60, 0
3, 45600, Note_on_c, 0, 55, 41
3, 45600, Note_on_c, 0, 59, 41
3, 45624, Note_on_c, 0, 54, 0
3, 45840, Note_on_c, 0, 50, 41
3, 45864, Note_on_c, 0, 55, 0
3, 46080, Note_on_c, 0, 50, 0
3, 46080, Note_on_c, 0, 59, 0
3, 46080, Note_on_c, 0, 55, 36
3, 46080, Note_on_c, 0, 50, 36
3, 46080, Note_on_c, 0, 57, 36
3, 46320, Note_on_c, 0, 55, 0
3, 46320, Note_on_c, 0, 54, 35
3, 46560, Note_on_c, 0, 52, 34
3, 46584, Note_on_c, 0, 54, 0
3, 46800, Note_on_c, 0, 50, 32
3, 46824, Note_on_c, 0, 52, 0
3, 47040, Note_on_c, 0, 50, 0
3, 47040, Note_on_c, 0, 50, 0
3, 47040, Note_on_c, 0, 50, 40
3, 47040, Note_on_c, 0, 57, 40
3, 47054, Control_c, 0, 64, 127
3, 47136, Note_on_c, 0, 57, 0
3, 47280, Note_on_c, 0, 50, 0
3, 47280, Note_on_c, 0, 51, 43
3, 47520, Note_on_c, 0, 51, 0
3, 47520, Note_on_c, 0, 57, 0
3, 47520, Note_on_c, 0, 52, 44
3, 47520, Note_on_c, 0, 57, 44
3, 47532, Control_c, 0, 64, 0
3, 47580, Note_on_c, 0, 57, 0
3, 47580, Note_on_c, 0, 52, 0
3, 47880, Note_on_c, 0, 51, 39
3, 47880, Note_on_c, 0, 57, 39
3, 47940, Note_on_c, 0, 57, 0
3, 47940, Note_on_c, 0, 51, 0
3, 48000, Note_on_c, 0, 52, 43
3, 48000, Note_on_c, 0, 57, 43
3, 48240, Note_on_c, 0, 57, 0
3, 48240, Note_on_c, 0, 52, 0
3, 48480, Note_on_c, 0, 55, 44
3, 48480, Note_on_c, 0, 57, 44
3, 48520, Control_c, 0, 64, 127
3, 48960, Note_on_c, 0, 57, 0
3, 48960, Note_on_c, 0, 55, 0
3, 48960, Note_on_c, 0, 54, 44
3, 48960, Note_on_c, 0, 57, 44
3, 48973, Control_c, 0, 64, 0
3, 49020, Note_on_c, 0, 57, 0
3, 49020, Note_on_c, 0, 54, 0
3, 49320, Note_on_c, 0, 53, 38
3, 49320, Note_on_c, 0, 57, 38
3, 49380, Note_on_c, 0, 57, 0
3, 49380, Note_on_c, 0, 53, 0
3, 49440, Note_on_c, 0, 54, 43
3, 49440, Note_on_c, 0, 57, 43
3, 49680, Note_on_c, 0, 57, 0
3, 49680, Note_on_c, 0, 54, 0
3, 49920, Note_on_c, 0, 54, 44
3, 49920, Note_on_c, 0, 57, 44
3, 49931, Control_c, 0, 64, 127
3, 50400, Note_on_c, 0, 57, 0
3, 50400, Note_on_c, 0, 54, 0
3, 50400, Note_on_c, 0, 52, 44
3, 50400, Note_on_c, 0, 57, 44
3, 50412, Control_c, 0, 64, 0
3, 50460, Note_on_c, 0, 57, 0
3, 50460, Note_on_c, 0, 52, 0
3, 50760, Note_on_c, 0, 50, 41
3, 50760, Note_on_c, 0, 57, 41
3, 50820, Note_on_c, 0, 57, 0
3, 50820, Note_on_c, 0, 50, 0
3, 50880, Note_on_c, 0, 49, 44
3, 50880, Note_on_c, 0, 57, 44
3, 51120, Note_on_c, 0, 57, 0
3, 51120, Note_on_c, 0, 49, 0
3, 51360, Note_on_c, 0, 45, 48
3, 51360, Note_on_c, 0, 57, 48
3, 51381, Control_c, 0, 64, 127
3, 51600, Note_on_c, 0, 45, 0
3, 51600, Note_on_c, 0, 49, 48
3, 51840, Note_on_c, 0, 49, 0
3, 51840, Note_on_c, 0, 57, 0
3, 51840, Note_on_c, 0, 50, 46
3, 51840, Note_on_c, 0, 57, 46
3, 51856, Control_c, 0, 64, 0
3, 51900, Note_on_c, 0, 57, 0
3, 51900, Note_on_c, 0, 50, 0
3, 52200, Note_on_c, 0, 52, 42
3, 52200, Note_on_c, 0, 57, 42
3, 52260, Note_on_c, 0, 57, 0
3, 52260, Note_on_c, 0, 52, 0
3, 52320, Note_on_c, 0, 54, 42
3, 52320, Note_on_c, 0, 57, 42
3, 52560, Note_on_c, 0, 57, 0
3, 52560, Note_on_c, 0, 54, 0
3, 52800, Note_on_c, 0, 50, 55
3, 52800, Note_on_c, 0, 57, 55
3, 52821, Control_c, 0, 64, 127
3, 53280, Note_on_c, 0, 57, 0
3, 53280, Note_on_c, 0, 50, 0
3, 53280, Note_on_c, 0, 52, 56
3, 53280, Note_on_c, 0, 57, 56
3, 53297, Control_c, 0, 64, 0
3, 53370, Note_on_c, 0, 57, 0
3, 53370, Note_on_c, 0, 52, 0
3, 53640, Note_on_c, 0, 51, 47
3, 53640, Note_on_c, 0, 57, 47
3, 53700, Note_on_c, 0, 57, 0
3, 53700, Note_on_c, 0, 51, 0
3, 53760, Note_on_c, 0, 52, 52
3, 53760, Note_on_c, 0, 57, 52
3, 54000, Note_on_c, 0, 57, 0
3, 54000, Note_on_c, 0, 52, 0
3, 54240, Note_on_c, 0, 57, 52
3, 54240, Note_on_c, 0, 55, 52
3, 54720, Note_on_c, 0, 55, 0
3, 54720, Note_on_c, 0, 57, 0
3, 54720, Note_on_c, 0, 57, 45
3, 54720, Note_on_c, 0, 54, 45
3, 54960, Note_on_c, 0, 59, 45
3, 54984, Note_on_c, 0, 57, 0
3, 55200, Note_on_c, 0, 61, 46
3, 55224, Note_on_c, 0, 59, 0
3, 55440, Note_on_c, 0, 62, 47
3, 55464, Note_on_c, 0, 61, 0
3, 55680, Note_on_c, 0, 62, 0
3, 55680, Note_on_c, 0, 54, 0
3, 55680, Note_on_c, 0, 55, 48
3, 55680, Note_on_c, 0, 62, 48
3, 55920, Note_on_c, 0, 64, 49
3, 55944, Note_on_c, 0, 62, 0
3, 56160, Note_on_c, 0, 55, 0
3, 56160, Note_on_c, 0, 57, 50
3, 56160, Note_on_c, 0, 66, 50
3, 56184, Note_on_c, 0, 64, 0
3, 56400, Note_on_c, 0, 67, 47
3, 56424, Note_on_c, 0, 66, 0
3, 56664, Note_on_c, 0, 67, 0
3, 57120, Note_on_c, 0, 67, 41
3, 57600, Note_on_c, 0, 57, 0
3, 57600, Note_on_c, 0, 62, 43
3, 57720, Control_c, 0, 64, 127
3, 58053, Control_c, 0, 64, 0
3, 58080, Note_on_c, 0, 67, 0
3, 58080, Note_on_c, 0, 66, 35
3, 58560, Note_on_c, 0, 66, 0
3, 58560, Note_on_c, 0, 62, 0
3, 58560, End_track
4, 0, Start_track
4, 0, Title_t, "Schumann: Scenes from Childhood Op. 15"
4, 0, End_track
5, 0, Start_track
5, 0, Title_t, "Copyright © 1997 by Bernd Krueger"
5, 0, End_track
6, 0, Start_track
6, 0, Title_t, "http://www.piano-midi.de"
6, 0, End_track
7, 0, Start_track
7, 0, Title_t, "Edition:2014-03-26"
7, 0, End_track
0, 0, End_of_file
