0, 0, Header, 1, 17, 480
1, 0, Start_track
1, 0, Title_t, "Kreisleriana Teil 8"
1, 0, Copyright_t, "Copyright © 2007 by Bernd Krueger"
1, 0, Text_t, "Robert Schumann"
1, 0, Text_t, "Schnell und spielend"
1, 0, Text_t, "Erstellt: 24.1.2007\012"
1, 0, Text_t, "Update am 28.3.2014\012"
1, 0, Text_t, "Dauer: 3:52 Minuten\012"
1, 0, Time_signature, 6, 3, 12, 8
1, 0, Key_signature, -2, "major"
1, 0, Tempo, 474308
1, 960, Tempo, 495458
1, 1080, Tempo, 313693
1, 1200, Tempo, 467727
1, 1440, Tempo, 446728
1, 1800, Tempo, 315259
1, 1920, Tempo, 458155
1, 2160, Tempo, 443557
1, 2400, Tempo, 464936
1, 2520, Tempo, 316056
1, 2640, Tempo, 464936
1, 2880, Tempo, 422624
1, 3120, Tempo, 512470
1, 3240, Tempo, 294942
1, 3360, Tempo, 464936
1, 3600, Tempo, 459841
1, 3960, Tempo, 320907
1, 4080, Tempo, 463213
1, 4320, Tempo, 445137
1, 4680, Tempo, 325080
1, 4800, Tempo, 464936
1, 5040, Tempo, 449944
1, 5400, Tempo, 331969
1, 5520, Tempo, 479157
1, 5760, Tempo, 464936
1, 6120, Tempo, 340987
1, 6240, Tempo, 482859
1, 6840, Tempo, 313693
1, 6960, Tempo, 467727
1, 7200, Tempo, 446728
1, 7560, Tempo, 315259
1, 7680, Tempo, 458155
1, 7920, Tempo, 443557
1, 8160, Tempo, 464936
1, 8280, Tempo, 316056
1, 8400, Tempo, 464936
1, 8640, Tempo, 422624
1, 8880, Tempo, 571429
1, 9000, Tempo, 294942
1, 9120, Tempo, 464936
1, 9360, Tempo, 459841
1, 9720, Tempo, 320907
1, 9840, Tempo, 463213
1, 10080, Tempo, 445137
1, 10440, Tempo, 325080
1, 10560, Tempo, 464936
1, 10800, Tempo, 449944
1, 11160, Tempo, 331969
1, 11280, Tempo, 479157
1, 11520, Tempo, 464936
1, 11880, Tempo, 340987
1, 12000, Tempo, 482859
1, 12600, Tempo, 313693
1, 12720, Tempo, 467727
1, 12960, Tempo, 446728
1, 13320, Tempo, 315259
1, 13440, Tempo, 458155
1, 13680, Tempo, 443557
1, 13920, Tempo, 464936
1, 14040, Tempo, 316056
1, 14160, Tempo, 464936
1, 14400, Tempo, 422624
1, 14640, Tempo, 512470
1, 14760, Tempo, 294942
1, 14880, Tempo, 464936
1, 15120, Tempo, 459841
1, 15480, Tempo, 320907
1, 15600, Tempo, 463213
1, 15840, Tempo, 445137
1, 16200, Tempo, 325080
1, 16320, Tempo, 464936
1, 16560, Tempo, 449775
1, 16920, Tempo, 331969
1, 17040, Tempo, 479157
1, 17280, Tempo, 456621
1, 17640, Tempo, 340987
1, 17760, Tempo, 482859
1, 18360, Tempo, 313693
1, 18480, Tempo, 467727
1, 18720, Tempo, 446728
1, 19080, Tempo, 315259
1, 19200, Tempo, 458155
1, 19440, Tempo, 443557
1, 19680, Tempo, 464936
1, 19800, Tempo, 316056
1, 19920, Tempo, 464936
1, 20160, Tempo, 422624
1, 20400, Tempo, 512470
1, 20520, Tempo, 294942
1, 20640, Tempo, 464936
1, 20880, Tempo, 459841
1, 21240, Tempo, 320907
1, 21360, Tempo, 463213
1, 21600, Tempo, 454890
1, 21960, Tempo, 335383
1, 22080, Tempo, 488202
1, 22320, Tempo, 469116
1, 22680, Tempo, 344037
1, 22800, Tempo, 508906
1, 23040, Tempo, 500417
1, 23400, Tempo, 360577
1, 23520, Tempo, 531444
1, 24120, Tempo, 313693
1, 24240, Tempo, 467727
1, 24480, Tempo, 446728
1, 24840, Tempo, 315259
1, 24960, Tempo, 458155
1, 25200, Tempo, 443557
1, 25440, Tempo, 464936
1, 25560, Tempo, 316056
1, 25680, Tempo, 464936
1, 25920, Tempo, 422624
1, 26160, Tempo, 594059
1, 26280, Tempo, 294942
1, 26400, Tempo, 464936
1, 26640, Tempo, 459841
1, 27000, Tempo, 320907
1, 27120, Tempo, 463213
1, 27360, Tempo, 445137
1, 27720, Tempo, 325080
1, 27840, Tempo, 464936
1, 28080, Tempo, 449944
1, 28440, Tempo, 331969
1, 28560, Tempo, 479157
1, 28800, Tempo, 464936
1, 29160, Tempo, 340987
1, 29280, Tempo, 482859
1, 29880, Tempo, 313693
1, 30000, Tempo, 467727
1, 30240, Tempo, 446728
1, 30600, Tempo, 315259
1, 30720, Tempo, 458155
1, 30960, Tempo, 443557
1, 31200, Tempo, 464936
1, 31320, Tempo, 316056
1, 31440, Tempo, 464936
1, 31680, Tempo, 422624
1, 31920, Tempo, 512470
1, 32040, Tempo, 294942
1, 32160, Tempo, 464936
1, 32400, Tempo, 459841
1, 32760, Tempo, 320907
1, 32880, Tempo, 463213
1, 33120, Tempo, 445137
1, 33480, Tempo, 325080
1, 33600, Tempo, 464936
1, 33840, Tempo, 449944
1, 34200, Tempo, 331969
1, 34320, Tempo, 479157
1, 34560, Tempo, 464936
1, 34920, Tempo, 340987
1, 35040, Tempo, 515464
1, 35280, Tempo, 482315
1, 35640, Tempo, 313693
1, 35760, Tempo, 467727
1, 36000, Tempo, 446728
1, 36360, Tempo, 315259
1, 36480, Tempo, 458155
1, 36720, Tempo, 443557
1, 36960, Tempo, 464936
1, 37080, Tempo, 316056
1, 37200, Tempo, 464936
1, 37440, Tempo, 422624
1, 37680, Tempo, 512470
1, 37800, Tempo, 294942
1, 37920, Tempo, 464936
1, 38160, Tempo, 459841
1, 38520, Tempo, 320907
1, 38640, Tempo, 463213
1, 38880, Tempo, 445137
1, 39240, Tempo, 325080
1, 39360, Tempo, 464936
1, 39600, Tempo, 449944
1, 39960, Tempo, 331969
1, 40080, Tempo, 479157
1, 40320, Tempo, 464936
1, 40680, Tempo, 340987
1, 40800, Tempo, 482859
1, 41400, Tempo, 313693
1, 41520, Tempo, 467727
1, 41760, Tempo, 446728
1, 42120, Tempo, 315259
1, 42240, Tempo, 458155
1, 42480, Tempo, 443557
1, 42720, Tempo, 464936
1, 42840, Tempo, 316056
1, 42960, Tempo, 464936
1, 43200, Tempo, 422624
1, 43440, Tempo, 512470
1, 43560, Tempo, 294942
1, 43680, Tempo, 464936
1, 43920, Tempo, 459841
1, 44280, Tempo, 320907
1, 44400, Tempo, 463213
1, 44640, Tempo, 448096
1, 45000, Tempo, 325080
1, 45120, Tempo, 500417
1, 45360, Tempo, 474684
1, 45720, Tempo, 353149
1, 45840, Tempo, 517688
1, 46080, Tempo, 488202
1, 46440, Tempo, 362757
1, 46560, Tempo, 529101
1, 47160, Tempo, 313693
1, 47280, Tempo, 467727
1, 47520, Tempo, 446728
1, 47880, Tempo, 315259
1, 48000, Tempo, 458155
1, 48240, Tempo, 443557
1, 48480, Tempo, 464936
1, 48600, Tempo, 316056
1, 48720, Tempo, 464936
1, 48960, Tempo, 422624
1, 49200, Tempo, 621762
1, 49320, Tempo, 294942
1, 49440, Tempo, 464936
1, 49680, Tempo, 459841
1, 50040, Tempo, 320907
1, 50160, Tempo, 463213
1, 50400, Tempo, 445137
1, 50760, Tempo, 325080
1, 50880, Tempo, 464936
1, 51120, Tempo, 449944
1, 51480, Tempo, 331969
1, 51600, Tempo, 479157
1, 51840, Tempo, 464936
1, 52200, Tempo, 340987
1, 52320, Tempo, 482859
1, 52920, Tempo, 313693
1, 53040, Tempo, 467727
1, 53280, Tempo, 446728
1, 53640, Tempo, 315259
1, 53760, Tempo, 458155
1, 54000, Tempo, 443557
1, 54240, Tempo, 464936
1, 54360, Tempo, 316056
1, 54480, Tempo, 464936
1, 54720, Tempo, 422624
1, 54960, Tempo, 585366
1, 55080, Tempo, 294942
1, 55200, Tempo, 464936
1, 55440, Tempo, 459841
1, 55800, Tempo, 320907
1, 55920, Tempo, 463213
1, 56160, Tempo, 445137
1, 56520, Tempo, 325080
1, 56640, Tempo, 464936
1, 56880, Tempo, 449944
1, 57240, Tempo, 331969
1, 57360, Tempo, 479157
1, 57600, Tempo, 464936
1, 57960, Tempo, 340987
1, 58080, Tempo, 482859
1, 58680, Tempo, 313693
1, 58800, Tempo, 467727
1, 59040, Tempo, 473037
1, 59640, Tempo, 465983
1, 60480, Tempo, 483988
1, 60720, Tempo, 473037
1, 61080, Tempo, 467727
1, 61440, Tempo, 462535
1, 61920, Tempo, 467727
1, 62640, Tempo, 469484
1, 63360, Tempo, 504202
1, 63600, Tempo, 485830
1, 64560, Tempo, 577645
1, 64800, Tempo, 478431
1, 65160, Tempo, 467727
1, 65400, Tempo, 465983
1, 65760, Tempo, 460829
1, 66240, Tempo, 491562
1, 66480, Tempo, 471254
1, 66600, Tempo, 467727
1, 67680, Tempo, 469484
1, 68280, Tempo, 471254
1, 68640, Tempo, 476607
1, 68880, Tempo, 557103
1, 69120, Tempo, 505433
1, 69360, Tempo, 474796
1, 69840, Tempo, 467727
1, 70320, Tempo, 495458
1, 70560, Tempo, 469484
1, 71640, Tempo, 473037
1, 72000, Tempo, 478431
1, 72600, Tempo, 469484
1, 73800, Tempo, 465983
1, 74520, Tempo, 483988
1, 74880, Tempo, 531161
1, 75120, Tempo, 471254
1, 75600, Tempo, 462535
1, 76320, Tempo, 467727
1, 76920, Tempo, 465983
1, 77400, Tempo, 480269
1, 77760, Tempo, 485869
1, 78000, Tempo, 474796
1, 78480, Tempo, 473037
1, 79560, Tempo, 482121
1, 80280, Tempo, 491562
1, 81840, Tempo, 580327
1, 82080, Tempo, 491562
1, 82680, Tempo, 480269
1, 83160, Tempo, 495458
1, 83520, Tempo, 483988
1, 84960, Tempo, 482121
1, 85200, Tempo, 478088
1, 85920, Tempo, 483871
1, 86160, Tempo, 528914
1, 86400, Tempo, 483988
1, 88440, Tempo, 478431
1, 88920, Tempo, 485869
1, 89640, Tempo, 474308
1, 90720, Tempo, 473037
1, 91920, Tempo, 497925
1, 92160, Tempo, 472441
1, 93600, Tempo, 446728
1, 93960, Tempo, 315259
1, 94080, Tempo, 458155
1, 94320, Tempo, 443557
1, 94560, Tempo, 464936
1, 94680, Tempo, 316056
1, 94800, Tempo, 464936
1, 95040, Tempo, 422624
1, 95280, Tempo, 625000
1, 95400, Tempo, 294942
1, 95520, Tempo, 464936
1, 95760, Tempo, 459841
1, 96120, Tempo, 320907
1, 96240, Tempo, 463213
1, 96480, Tempo, 445137
1, 96840, Tempo, 325080
1, 96960, Tempo, 464936
1, 97200, Tempo, 449944
1, 97560, Tempo, 331969
1, 97680, Tempo, 479157
1, 97920, Tempo, 464936
1, 98280, Tempo, 340987
1, 98400, Tempo, 482859
1, 99000, Tempo, 313693
1, 99120, Tempo, 467727
1, 99360, Tempo, 446728
1, 99720, Tempo, 315259
1, 99840, Tempo, 458155
1, 100080, Tempo, 443557
1, 100320, Tempo, 464936
1, 100440, Tempo, 316056
1, 100560, Tempo, 464936
1, 100800, Tempo, 422624
1, 101040, Tempo, 512470
1, 101160, Tempo, 294942
1, 101280, Tempo, 464936
1, 101520, Tempo, 459841
1, 101880, Tempo, 320907
1, 102000, Tempo, 463213
1, 102240, Tempo, 445137
1, 102600, Tempo, 325080
1, 102720, Tempo, 464936
1, 102960, Tempo, 449944
1, 103320, Tempo, 331969
1, 103440, Tempo, 479157
1, 103680, Tempo, 464936
1, 104040, Tempo, 340987
1, 104160, Tempo, 482859
1, 104760, Tempo, 313693
1, 104880, Tempo, 467727
1, 105120, Tempo, 446728
1, 105480, Tempo, 315259
1, 105600, Tempo, 458155
1, 105840, Tempo, 443557
1, 106080, Tempo, 464936
1, 106200, Tempo, 316056
1, 106320, Tempo, 464936
1, 106560, Tempo, 422624
1, 106800, Tempo, 512470
1, 106920, Tempo, 294942
1, 107040, Tempo, 464936
1, 107280, Tempo, 459841
1, 107640, Tempo, 320907
1, 107760, Tempo, 463213
1, 108000, Tempo, 445137
1, 108360, Tempo, 325080
1, 108480, Tempo, 464936
1, 108720, Tempo, 449944
1, 109080, Tempo, 331969
1, 109200, Tempo, 470588
1, 109440, Tempo, 452830
1, 109800, Tempo, 340987
1, 109920, Tempo, 468750
1, 110520, Tempo, 313693
1, 110640, Tempo, 467727
1, 110880, Tempo, 446728
1, 111240, Tempo, 315259
1, 111360, Tempo, 458155
1, 111600, Tempo, 443557
1, 111840, Tempo, 464936
1, 111960, Tempo, 316056
1, 112080, Tempo, 464936
1, 112320, Tempo, 422624
1, 112560, Tempo, 512470
1, 112680, Tempo, 294942
1, 112800, Tempo, 464936
1, 113040, Tempo, 459841
1, 113400, Tempo, 320907
1, 113520, Tempo, 463213
1, 113760, Tempo, 453172
1, 114120, Tempo, 325080
1, 114240, Tempo, 496278
1, 114480, Tempo, 467290
1, 114840, Tempo, 331969
1, 114960, Tempo, 513259
1, 115200, Tempo, 494234
1, 115560, Tempo, 340987
1, 115680, Tempo, 524476
1, 116280, Tempo, 313693
1, 116400, Tempo, 478469
1, 116640, Tempo, 460123
1, 117000, Tempo, 315259
1, 117120, Tempo, 467290
1, 117360, Tempo, 443557
1, 117600, Tempo, 464936
1, 117720, Tempo, 316056
1, 117840, Tempo, 464936
1, 118080, Tempo, 422624
1, 118320, Tempo, 512470
1, 118440, Tempo, 294942
1, 118560, Tempo, 464936
1, 118800, Tempo, 459841
1, 119160, Tempo, 320907
1, 119280, Tempo, 463213
1, 119520, Tempo, 445137
1, 119880, Tempo, 325080
1, 120000, Tempo, 464936
1, 120240, Tempo, 449944
1, 120600, Tempo, 331969
1, 120720, Tempo, 479157
1, 120960, Tempo, 464936
1, 121320, Tempo, 340987
1, 121440, Tempo, 482859
1, 122040, Tempo, 313693
1, 122160, Tempo, 467727
1, 122400, Tempo, 446728
1, 122760, Tempo, 315259
1, 122880, Tempo, 458155
1, 123120, Tempo, 443557
1, 123360, Tempo, 464936
1, 123480, Tempo, 316056
1, 123600, Tempo, 464936
1, 123840, Tempo, 422624
1, 124080, Tempo, 625000
1, 124200, Tempo, 294942
1, 124320, Tempo, 464936
1, 124560, Tempo, 459841
1, 124920, Tempo, 320907
1, 125040, Tempo, 463213
1, 125280, Tempo, 452216
1, 125640, Tempo, 325080
1, 125760, Tempo, 493137
1, 126000, Tempo, 472664
1, 126360, Tempo, 381922
1, 126480, Tempo, 517554
1, 126720, Tempo, 563910
1, 127080, Tempo, 389055
1, 127200, Tempo, 577145
1, 127440, Tempo, 613874
1, 127680, Tempo, 479885
1, 127920, Tempo, 514580
1, 128160, Key_signature, -1, "major"
1, 128160, Tempo, 483481
1, 128520, Tempo, 447427
1, 129120, Tempo, 455927
1, 129360, Tempo, 481541
1, 129600, Tempo, 497925
1, 129960, Tempo, 449102
1, 130680, Tempo, 459418
1, 130800, Tempo, 499584
1, 131040, Tempo, 475813
1, 131280, Tempo, 459418
1, 131400, Tempo, 450789
1, 132120, Tempo, 466563
1, 132240, Tempo, 493421
1, 132480, Tempo, 512821
1, 132840, Tempo, 455927
1, 133560, Tempo, 459418
1, 133680, Tempo, 491400
1, 134280, Tempo, 454201
1, 135000, Tempo, 473934
1, 135120, Tempo, 497512
1, 135720, Tempo, 455927
1, 136440, Tempo, 472069
1, 136560, Tempo, 505902
1, 137160, Tempo, 447427
1, 137880, Tempo, 461184
1, 138000, Tempo, 503778
1, 138240, Tempo, 489396
1, 138480, Tempo, 519031
1, 139320, Tempo, 485437
1, 139440, Tempo, 542495
1, 139680, Tempo, 483481
1, 140040, Tempo, 447427
1, 140400, Tempo, 483481
1, 140760, Tempo, 447427
1, 141120, Tempo, 483481
1, 141480, Tempo, 447427
1, 141840, Tempo, 483481
1, 142200, Tempo, 447427
1, 142560, Tempo, 483481
1, 142920, Tempo, 447427
1, 143280, Tempo, 469116
1, 143640, Tempo, 447427
1, 144000, Tempo, 483481
1, 144360, Tempo, 447427
1, 144720, Tempo, 483481
1, 145080, Tempo, 447427
1, 145440, Tempo, 483481
1, 145800, Tempo, 447427
1, 146160, Tempo, 483481
1, 146520, Tempo, 447427
1, 146880, Tempo, 483481
1, 147240, Tempo, 447427
1, 147600, Tempo, 483481
1, 147960, Tempo, 447427
1, 148320, Tempo, 483481
1, 148680, Tempo, 447427
1, 149040, Tempo, 483481
1, 149400, Tempo, 456274
1, 149760, Tempo, 502092
1, 150120, Tempo, 466926
1, 150480, Tempo, 483481
1, 150840, Tempo, 485437
1, 150960, Tempo, 542495
1, 151200, Tempo, 483481
1, 151560, Tempo, 439560
1, 151920, Tempo, 483481
1, 152280, Tempo, 447427
1, 152520, Tempo, 489796
1, 152640, Tempo, 483481
1, 153000, Tempo, 447427
1, 153360, Tempo, 483481
1, 153720, Tempo, 447427
1, 153960, Tempo, 500000
1, 154080, Tempo, 483481
1, 154440, Tempo, 447427
1, 154800, Tempo, 483481
1, 155160, Tempo, 447427
1, 155400, Tempo, 538117
1, 155520, Tempo, 483481
1, 155880, Tempo, 447427
1, 156240, Tempo, 483481
1, 156600, Tempo, 447427
1, 156960, Tempo, 483481
1, 157320, Tempo, 447427
1, 157680, Tempo, 483481
1, 158040, Tempo, 447427
1, 158400, Tempo, 483481
1, 158760, Tempo, 447427
1, 159120, Tempo, 483481
1, 159480, Tempo, 447427
1, 159720, Tempo, 609137
1, 159840, Tempo, 483481
1, 160200, Tempo, 447427
1, 160560, Tempo, 483481
1, 160920, Tempo, 447427
1, 161280, Tempo, 483481
1, 161640, Tempo, 447427
1, 162000, Tempo, 483481
1, 162360, Tempo, 459418
1, 162480, Tempo, 514580
1, 162720, Tempo, 483481
1, 163080, Tempo, 447427
1, 163680, Tempo, 455927
1, 163920, Tempo, 481541
1, 164160, Tempo, 495868
1, 164520, Tempo, 449102
1, 165240, Tempo, 459418
1, 165360, Tempo, 499584
1, 165600, Tempo, 475813
1, 165840, Tempo, 459418
1, 165960, Tempo, 450789
1, 166680, Tempo, 466563
1, 166800, Tempo, 493421
1, 167040, Tempo, 481541
1, 167400, Tempo, 455927
1, 168120, Tempo, 459418
1, 168240, Tempo, 491400
1, 168840, Tempo, 454201
1, 169560, Tempo, 473934
1, 169680, Tempo, 497512
1, 170280, Tempo, 455927
1, 171000, Tempo, 472069
1, 171120, Tempo, 505902
1, 171720, Tempo, 447427
1, 172440, Tempo, 461184
1, 172560, Tempo, 503778
1, 172800, Tempo, 489396
1, 173160, Tempo, 459418
1, 173760, Tempo, 464756
1, 173880, Tempo, 459418
1, 174000, Tempo, 491400
1, 174600, Tempo, 454201
1, 174960, Tempo, 478088
1, 175320, Tempo, 473934
1, 175440, Tempo, 486224
1, 176040, Tempo, 455927
1, 176760, Tempo, 459418
1, 176880, Tempo, 491400
1, 177480, Tempo, 454201
1, 178200, Tempo, 473934
1, 178320, Tempo, 497512
1, 178440, Tempo, 490196
1, 178920, Tempo, 455927
1, 179640, Tempo, 459418
1, 179760, Tempo, 491400
1, 180360, Tempo, 454201
1, 181080, Tempo, 473934
1, 181200, Tempo, 497512
1, 181800, Tempo, 455927
1, 182520, Tempo, 459418
1, 182640, Tempo, 491400
1, 183240, Tempo, 454201
1, 183960, Tempo, 473934
1, 184080, Tempo, 497512
1, 184680, Tempo, 455927
1, 185400, Tempo, 459418
1, 185520, Tempo, 514580
1, 185760, Tempo, 483481
1, 186120, Tempo, 447427
1, 186720, Tempo, 455927
1, 186960, Tempo, 508475
1, 187200, Tempo, 472069
1, 187560, Tempo, 449102
1, 187920, Tempo, 465116
1, 188280, Tempo, 459418
1, 188400, Tempo, 499584
1, 188640, Tempo, 475813
1, 188880, Tempo, 459418
1, 189000, Tempo, 450789
1, 189720, Tempo, 466563
1, 189840, Tempo, 493421
1, 190080, Tempo, 481541
1, 190440, Tempo, 455927
1, 191160, Tempo, 459418
1, 191280, Tempo, 588235
1, 191520, Tempo, 487805
1, 191880, Tempo, 454201
1, 192600, Tempo, 473934
1, 192720, Tempo, 497512
1, 193320, Tempo, 455927
1, 194040, Tempo, 472069
1, 194160, Tempo, 571429
1, 194400, Tempo, 504202
1, 194760, Tempo, 447427
1, 195480, Tempo, 461184
1, 195600, Tempo, 515021
1, 195840, Tempo, 489396
1, 196080, Tempo, 519031
1, 196560, Tempo, 591133
1, 196920, Tempo, 465116
1, 197040, Tempo, 466926
1, 197280, Key_signature, -2, "major"
1, 197280, Tempo, 446728
1, 197640, Tempo, 315259
1, 197760, Tempo, 458155
1, 198000, Tempo, 443557
1, 198240, Tempo, 464936
1, 198360, Tempo, 316056
1, 198480, Tempo, 464936
1, 198720, Tempo, 422624
1, 198960, Tempo, 625000
1, 199080, Tempo, 294942
1, 199200, Tempo, 464936
1, 199440, Tempo, 459841
1, 199800, Tempo, 320907
1, 199920, Tempo, 463213
1, 200160, Tempo, 448096
1, 200520, Tempo, 325080
1, 200640, Tempo, 464936
1, 200880, Tempo, 449944
1, 201240, Tempo, 331969
1, 201360, Tempo, 479157
1, 201600, Tempo, 464936
1, 201960, Tempo, 340987
1, 202080, Tempo, 482859
1, 202680, Tempo, 313693
1, 202800, Tempo, 467727
1, 203040, Tempo, 446728
1, 203400, Tempo, 315259
1, 203520, Tempo, 458155
1, 203760, Tempo, 443557
1, 204000, Tempo, 464936
1, 204120, Tempo, 316056
1, 204240, Tempo, 464936
1, 204480, Tempo, 422624
1, 204720, Tempo, 512470
1, 204840, Tempo, 294942
1, 204960, Tempo, 464936
1, 205200, Tempo, 459841
1, 205560, Tempo, 320907
1, 205680, Tempo, 463213
1, 205920, Tempo, 445137
1, 206280, Tempo, 325080
1, 206400, Tempo, 464936
1, 206640, Tempo, 449944
1, 207000, Tempo, 331969
1, 207120, Tempo, 479157
1, 207360, Tempo, 464936
1, 207720, Tempo, 340987
1, 207840, Tempo, 482859
1, 208440, Tempo, 313693
1, 208560, Tempo, 467727
1, 208800, Tempo, 446728
1, 209160, Tempo, 315259
1, 209280, Tempo, 458155
1, 209520, Tempo, 443557
1, 209760, Tempo, 464936
1, 209880, Tempo, 316056
1, 210000, Tempo, 464936
1, 210240, Tempo, 422624
1, 210480, Tempo, 571429
1, 210600, Tempo, 294942
1, 210720, Tempo, 464936
1, 210960, Tempo, 459841
1, 211320, Tempo, 320907
1, 211440, Tempo, 463213
1, 211680, Tempo, 445137
1, 212040, Tempo, 325080
1, 212160, Tempo, 464936
1, 212400, Tempo, 449944
1, 212760, Tempo, 331969
1, 212880, Tempo, 479157
1, 213120, Tempo, 464936
1, 213480, Tempo, 340987
1, 213600, Tempo, 482859
1, 214200, Tempo, 313693
1, 214320, Tempo, 467727
1, 214560, Tempo, 446728
1, 214920, Tempo, 315259
1, 215040, Tempo, 458155
1, 215280, Tempo, 443557
1, 215520, Tempo, 464936
1, 215640, Tempo, 316056
1, 215760, Tempo, 464936
1, 216000, Tempo, 422624
1, 216240, Tempo, 512470
1, 216360, Tempo, 294942
1, 216480, Tempo, 464936
1, 216720, Tempo, 459841
1, 217080, Tempo, 320907
1, 217200, Tempo, 463213
1, 217440, Tempo, 445137
1, 217800, Tempo, 325080
1, 217920, Tempo, 464936
1, 218160, Tempo, 449944
1, 218520, Tempo, 331969
1, 218640, Tempo, 479157
1, 218880, Tempo, 464936
1, 219240, Tempo, 340987
1, 219360, Tempo, 482859
1, 219960, Tempo, 313693
1, 220080, Tempo, 467727
1, 220320, Tempo, 446728
1, 220680, Tempo, 315259
1, 220800, Tempo, 458155
1, 221040, Tempo, 443557
1, 221280, Tempo, 464936
1, 221400, Tempo, 316056
1, 221520, Tempo, 464936
1, 221760, Tempo, 422624
1, 222000, Tempo, 512470
1, 222120, Tempo, 294942
1, 222240, Tempo, 464936
1, 222480, Tempo, 459841
1, 222840, Tempo, 320907
1, 222960, Tempo, 463213
1, 223200, Tempo, 451467
1, 223560, Tempo, 325080
1, 223680, Tempo, 488202
1, 223920, Tempo, 467290
1, 224280, Tempo, 331969
1, 224400, Tempo, 519931
1, 224640, Tempo, 498339
1, 225000, Tempo, 340987
1, 225120, Tempo, 553506
1, 225720, Tempo, 313693
1, 225840, Tempo, 490196
1, 226080, Tempo, 460123
1, 226440, Tempo, 315259
1, 226560, Tempo, 486224
1, 226800, Tempo, 472813
1, 227040, Tempo, 464936
1, 227160, Tempo, 316056
1, 227280, Tempo, 482315
1, 227520, Tempo, 531444
1, 227760, Tempo, 594059
1, 227880, Tempo, 294942
1, 228000, Tempo, 484262
1, 228240, Tempo, 467290
1, 228600, Tempo, 320907
1, 228720, Tempo, 476569
1, 228960, Tempo, 445137
1, 229320, Tempo, 325080
1, 229440, Tempo, 470958
1, 229680, Tempo, 454890
1, 230040, Tempo, 331969
1, 230160, Tempo, 479157
1, 230400, Tempo, 469116
1, 230760, Tempo, 340987
1, 230880, Tempo, 494234
1, 231480, Tempo, 313693
1, 231600, Tempo, 467727
1, 231840, Tempo, 453172
1, 232200, Tempo, 315259
1, 232320, Tempo, 482315
1, 232560, Tempo, 454890
1, 232800, Tempo, 464936
1, 232920, Tempo, 316056
1, 233040, Tempo, 478469
1, 233280, Tempo, 422624
1, 233520, Tempo, 512470
1, 233640, Tempo, 294942
1, 233760, Tempo, 478469
1, 234000, Tempo, 469116
1, 234360, Tempo, 320907
1, 234480, Tempo, 486224
1, 234720, Tempo, 465477
1, 235080, Tempo, 325080
1, 235200, Tempo, 488202
1, 235440, Tempo, 461894
1, 235800, Tempo, 331969
1, 235920, Tempo, 511073
1, 236160, Tempo, 480384
1, 236520, Tempo, 325080
1, 236640, Tempo, 529101
1, 236880, Tempo, 488202
1, 237240, Tempo, 331969
1, 237360, Tempo, 538600
1, 237600, Tempo, 488202
1, 237960, Tempo, 347826
1, 238080, Tempo, 550964
1, 238320, Tempo, 496278
1, 238680, Tempo, 362538
1, 238800, Tempo, 561272
1, 239040, Tempo, 506757
1, 239400, Tempo, 371517
1, 239520, Tempo, 558659
1, 239640, Tempo, 522193
1, 239760, Tempo, 500417
1, 240120, Tempo, 372671
1, 240240, Tempo, 580271
1, 240480, Tempo, 519931
1, 240840, Tempo, 373832
1, 240960, Tempo, 597610
1, 241200, Tempo, 558659
1, 241560, Tempo, 384615
1, 241680, Tempo, 561272
1, 241920, Tempo, 594648
1, 241920, End_track
2, 0, Start_track
2, 0, Title_t, "Piano right"
2, 0, Program_c, 0, 0
2, 0, Control_c, 0, 91, 127
2, 0, Text_t, "bdca426d104a26ac9dcb070447587523"
2, 1080, Note_on_c, 0, 62, 27
2, 1200, Note_on_c, 0, 62, 0
2, 1200, Note_on_c, 0, 60, 40
2, 1200, Note_on_c, 0, 66, 40
2, 1320, Note_on_c, 0, 66, 0
2, 1320, Note_on_c, 0, 60, 0
2, 1440, Note_on_c, 0, 58, 45
2, 1440, Note_on_c, 0, 67, 45
2, 1560, Note_on_c, 0, 67, 0
2, 1560, Note_on_c, 0, 58, 0
2, 1800, Note_on_c, 0, 66, 27
2, 1920, Note_on_c, 0, 66, 0
2, 1920, Note_on_c, 0, 62, 42
2, 1920, Note_on_c, 0, 69, 42
2, 2040, Note_on_c, 0, 69, 0
2, 2040, Note_on_c, 0, 62, 0
2, 2160, Note_on_c, 0, 67, 45
2, 2160, Note_on_c, 0, 70, 45
2, 2280, Note_on_c, 0, 70, 0
2, 2280, Note_on_c, 0, 67, 0
2, 2520, Note_on_c, 0, 69, 26
2, 2640, Note_on_c, 0, 69, 0
2, 2640, Note_on_c, 0, 67, 45
2, 2640, Note_on_c, 0, 72, 45
2, 2760, Note_on_c, 0, 72, 0
2, 2760, Note_on_c, 0, 67, 0
2, 2880, Note_on_c, 0, 70, 45
2, 2880, Note_on_c, 0, 74, 45
2, 3000, Note_on_c, 0, 74, 0
2, 3000, Note_on_c, 0, 70, 0
2, 3240, Note_on_c, 0, 75, 26
2, 3360, Note_on_c, 0, 75, 0
2, 3360, Note_on_c, 0, 72, 35
2, 3360, Note_on_c, 0, 79, 42
2, 3600, Note_on_c, 0, 79, 0
2, 3600, Note_on_c, 0, 72, 0
2, 3600, Note_on_c, 0, 70, 35
2, 3600, Note_on_c, 0, 74, 42
2, 3840, Note_on_c, 0, 74, 0
2, 3840, Note_on_c, 0, 70, 0
2, 3960, Note_on_c, 0, 67, 28
2, 4080, Note_on_c, 0, 67, 0
2, 4080, Note_on_c, 0, 62, 45
2, 4080, Note_on_c, 0, 70, 45
2, 4200, Note_on_c, 0, 70, 0
2, 4200, Note_on_c, 0, 62, 0
2, 4320, Note_on_c, 0, 69, 47
2, 4440, Note_on_c, 0, 69, 0
2, 4680, Note_on_c, 0, 69, 36
2, 4800, Note_on_c, 0, 69, 0
2, 4800, Note_on_c, 0, 63, 45
2, 4800, Note_on_c, 0, 72, 45
2, 4920, Note_on_c, 0, 72, 0
2, 4920, Note_on_c, 0, 63, 0
2, 5040, Note_on_c, 0, 70, 46
2, 5160, Note_on_c, 0, 70, 0
2, 5400, Note_on_c, 0, 66, 29
2, 5520, Note_on_c, 0, 66, 0
2, 5520, Note_on_c, 0, 60, 36
2, 5520, Note_on_c, 0, 69, 36
2, 5640, Note_on_c, 0, 69, 0
2, 5640, Note_on_c, 0, 60, 0
2, 5760, Note_on_c, 0, 58, 42
2, 5760, Note_on_c, 0, 67, 42
2, 5880, Note_on_c, 0, 67, 0
2, 5880, Note_on_c, 0, 58, 0
2, 6120, Note_on_c, 0, 60, 22
2, 6240, Note_on_c, 0, 60, 0
2, 6240, Note_on_c, 0, 57, 36
2, 6240, Note_on_c, 0, 63, 36
2, 6360, Note_on_c, 0, 63, 0
2, 6360, Note_on_c, 0, 57, 0
2, 6480, Note_on_c, 0, 58, 36
2, 6480, Note_on_c, 0, 62, 36
2, 6600, Note_on_c, 0, 62, 0
2, 6600, Note_on_c, 0, 58, 0
2, 6840, Note_on_c, 0, 62, 27
2, 6960, Note_on_c, 0, 62, 0
2, 6960, Note_on_c, 0, 60, 40
2, 6960, Note_on_c, 0, 66, 40
2, 7080, Note_on_c, 0, 66, 0
2, 7080, Note_on_c, 0, 60, 0
2, 7200, Note_on_c, 0, 58, 45
2, 7200, Note_on_c, 0, 67, 45
2, 7320, Note_on_c, 0, 67, 0
2, 7320, Note_on_c, 0, 58, 0
2, 7560, Note_on_c, 0, 66, 27
2, 7680, Note_on_c, 0, 66, 0
2, 7680, Note_on_c, 0, 62, 42
2, 7680, Note_on_c, 0, 69, 42
2, 7800, Note_on_c, 0, 69, 0
2, 7800, Note_on_c, 0, 62, 0
2, 7920, Note_on_c, 0, 67, 45
2, 7920, Note_on_c, 0, 70, 45
2, 8040, Note_on_c, 0, 70, 0
2, 8040, Note_on_c, 0, 67, 0
2, 8280, Note_on_c, 0, 69, 26
2, 8400, Note_on_c, 0, 69, 0
2, 8400, Note_on_c, 0, 67, 45
2, 8400, Note_on_c, 0, 72, 45
2, 8520, Note_on_c, 0, 72, 0
2, 8520, Note_on_c, 0, 67, 0
2, 8640, Note_on_c, 0, 70, 45
2, 8640, Note_on_c, 0, 74, 45
2, 8760, Note_on_c, 0, 74, 0
2, 8760, Note_on_c, 0, 70, 0
2, 9000, Note_on_c, 0, 75, 26
2, 9120, Note_on_c, 0, 75, 0
2, 9120, Note_on_c, 0, 72, 35
2, 9120, Note_on_c, 0, 79, 42
2, 9360, Note_on_c, 0, 79, 0
2, 9360, Note_on_c, 0, 72, 0
2, 9360, Note_on_c, 0, 70, 35
2, 9360, Note_on_c, 0, 74, 42
2, 9600, Note_on_c, 0, 74, 0
2, 9600, Note_on_c, 0, 70, 0
2, 9720, Note_on_c, 0, 67, 28
2, 9840, Note_on_c, 0, 67, 0
2, 9840, Note_on_c, 0, 62, 45
2, 9840, Note_on_c, 0, 70, 45
2, 9960, Note_on_c, 0, 70, 0
2, 9960, Note_on_c, 0, 62, 0
2, 10080, Note_on_c, 0, 69, 47
2, 10200, Note_on_c, 0, 69, 0
2, 10440, Note_on_c, 0, 69, 36
2, 10560, Note_on_c, 0, 69, 0
2, 10560, Note_on_c, 0, 63, 45
2, 10560, Note_on_c, 0, 72, 45
2, 10680, Note_on_c, 0, 72, 0
2, 10680, Note_on_c, 0, 63, 0
2, 10800, Note_on_c, 0, 70, 46
2, 10920, Note_on_c, 0, 70, 0
2, 11160, Note_on_c, 0, 66, 29
2, 11280, Note_on_c, 0, 66, 0
2, 11280, Note_on_c, 0, 60, 36
2, 11280, Note_on_c, 0, 69, 36
2, 11400, Note_on_c, 0, 69, 0
2, 11400, Note_on_c, 0, 60, 0
2, 11520, Note_on_c, 0, 58, 42
2, 11520, Note_on_c, 0, 67, 42
2, 11640, Note_on_c, 0, 67, 0
2, 11640, Note_on_c, 0, 58, 0
2, 11880, Note_on_c, 0, 58, 35
2, 12000, Note_on_c, 0, 58, 0
2, 12000, Note_on_c, 0, 62, 41
2, 12240, Note_on_c, 0, 62, 0
2, 12240, Note_on_c, 0, 55, 39
2, 12360, Note_on_c, 0, 55, 0
2, 12600, Note_on_c, 0, 58, 27
2, 12720, Note_on_c, 0, 58, 0
2, 12720, Note_on_c, 0, 55, 40
2, 12720, Note_on_c, 0, 62, 40
2, 12840, Note_on_c, 0, 62, 0
2, 12840, Note_on_c, 0, 55, 0
2, 12960, Note_on_c, 0, 54, 45
2, 12960, Note_on_c, 0, 62, 45
2, 13080, Note_on_c, 0, 62, 0
2, 13080, Note_on_c, 0, 54, 0
2, 13320, Note_on_c, 0, 58, 27
2, 13440, Note_on_c, 0, 58, 0
2, 13440, Note_on_c, 0, 55, 42
2, 13440, Note_on_c, 0, 64, 42
2, 13560, Note_on_c, 0, 64, 0
2, 13560, Note_on_c, 0, 55, 0
2, 13680, Note_on_c, 0, 57, 45
2, 13680, Note_on_c, 0, 66, 45
2, 13800, Note_on_c, 0, 66, 0
2, 13800, Note_on_c, 0, 57, 0
2, 14040, Note_on_c, 0, 62, 26
2, 14160, Note_on_c, 0, 62, 0
2, 14160, Note_on_c, 0, 58, 45
2, 14160, Note_on_c, 0, 67, 45
2, 14280, Note_on_c, 0, 67, 0
2, 14280, Note_on_c, 0, 58, 0
2, 14400, Note_on_c, 0, 60, 45
2, 14400, Note_on_c, 0, 69, 45
2, 14520, Note_on_c, 0, 69, 0
2, 14520, Note_on_c, 0, 60, 0
2, 14760, Note_on_c, 0, 65, 26
2, 14880, Note_on_c, 0, 65, 0
2, 14880, Note_on_c, 0, 62, 46
2, 14880, Note_on_c, 0, 71, 46
2, 15000, Note_on_c, 0, 71, 0
2, 15000, Note_on_c, 0, 62, 0
2, 15120, Note_on_c, 0, 63, 50
2, 15120, Note_on_c, 0, 72, 50
2, 15240, Note_on_c, 0, 72, 0
2, 15240, Note_on_c, 0, 63, 0
2, 15480, Note_on_c, 0, 68, 28
2, 15600, Note_on_c, 0, 68, 0
2, 15600, Note_on_c, 0, 65, 45
2, 15600, Note_on_c, 0, 74, 45
2, 15720, Note_on_c, 0, 74, 0
2, 15720, Note_on_c, 0, 65, 0
2, 15840, Note_on_c, 0, 63, 45
2, 15840, Note_on_c, 0, 72, 47
2, 15960, Note_on_c, 0, 72, 0
2, 15960, Note_on_c, 0, 63, 0
2, 16200, Note_on_c, 0, 67, 36
2, 16320, Note_on_c, 0, 67, 0
2, 16320, Note_on_c, 0, 62, 45
2, 16320, Note_on_c, 0, 71, 45
2, 16440, Note_on_c, 0, 71, 0
2, 16440, Note_on_c, 0, 62, 0
2, 16560, Note_on_c, 0, 63, 45
2, 16560, Note_on_c, 0, 72, 46
2, 16680, Note_on_c, 0, 72, 0
2, 16680, Note_on_c, 0, 63, 0
2, 16920, Note_on_c, 0, 68, 29
2, 17040, Note_on_c, 0, 68, 0
2, 17040, Note_on_c, 0, 65, 36
2, 17040, Note_on_c, 0, 74, 36
2, 17160, Note_on_c, 0, 74, 0
2, 17160, Note_on_c, 0, 65, 0
2, 17280, Note_on_c, 0, 63, 42
2, 17280, Note_on_c, 0, 72, 42
2, 17400, Note_on_c, 0, 72, 0
2, 17400, Note_on_c, 0, 63, 0
2, 17640, Note_on_c, 0, 67, 22
2, 17760, Note_on_c, 0, 67, 0
2, 17760, Note_on_c, 0, 62, 36
2, 17760, Note_on_c, 0, 71, 36
2, 17880, Note_on_c, 0, 71, 0
2, 17880, Note_on_c, 0, 62, 0
2, 18000, Note_on_c, 0, 63, 36
2, 18000, Note_on_c, 0, 72, 36
2, 18120, Note_on_c, 0, 72, 0
2, 18120, Note_on_c, 0, 63, 0
2, 18360, Note_on_c, 0, 62, 27
2, 18480, Note_on_c, 0, 62, 0
2, 18480, Note_on_c, 0, 58, 40
2, 18480, Note_on_c, 0, 65, 40
2, 18600, Note_on_c, 0, 65, 0
2, 18600, Note_on_c, 0, 58, 0
2, 18720, Note_on_c, 0, 57, 45
2, 18720, Note_on_c, 0, 65, 45
2, 18840, Note_on_c, 0, 65, 0
2, 18840, Note_on_c, 0, 57, 0
2, 19080, Note_on_c, 0, 63, 27
2, 19200, Note_on_c, 0, 63, 0
2, 19200, Note_on_c, 0, 58, 42
2, 19200, Note_on_c, 0, 67, 42
2, 19320, Note_on_c, 0, 67, 0
2, 19320, Note_on_c, 0, 58, 0
2, 19440, Note_on_c, 0, 60, 45
2, 19440, Note_on_c, 0, 69, 45
2, 19560, Note_on_c, 0, 69, 0
2, 19560, Note_on_c, 0, 60, 0
2, 19800, Note_on_c, 0, 65, 26
2, 19920, Note_on_c, 0, 65, 0
2, 19920, Note_on_c, 0, 62, 45
2, 19920, Note_on_c, 0, 70, 45
2, 20040, Note_on_c, 0, 70, 0
2, 20040, Note_on_c, 0, 62, 0
2, 20160, Note_on_c, 0, 63, 45
2, 20160, Note_on_c, 0, 72, 45
2, 20280, Note_on_c, 0, 72, 0
2, 20280, Note_on_c, 0, 63, 0
2, 20520, Note_on_c, 0, 68, 26
2, 20640, Note_on_c, 0, 68, 0
2, 20640, Note_on_c, 0, 65, 50
2, 20640, Note_on_c, 0, 74, 50
2, 20760, Note_on_c, 0, 74, 0
2, 20760, Note_on_c, 0, 65, 0
2, 20880, Note_on_c, 0, 67, 50
2, 20880, Note_on_c, 0, 75, 50
2, 21000, Note_on_c, 0, 75, 0
2, 21000, Note_on_c, 0, 67, 0
2, 21240, Note_on_c, 0, 71, 28
2, 21360, Note_on_c, 0, 71, 0
2, 21360, Note_on_c, 0, 68, 50
2, 21360, Note_on_c, 0, 77, 50
2, 21480, Note_on_c, 0, 77, 0
2, 21480, Note_on_c, 0, 68, 0
2, 21600, Note_on_c, 0, 72, 54
2, 21600, Note_on_c, 0, 67, 54
2, 21600, Note_on_c, 0, 75, 54
2, 21720, Note_on_c, 0, 75, 0
2, 21720, Note_on_c, 0, 67, 0
2, 21720, Note_on_c, 0, 72, 0
2, 21960, Note_on_c, 0, 68, 42
2, 22080, Note_on_c, 0, 68, 0
2, 22080, Note_on_c, 0, 65, 51
2, 22080, Note_on_c, 0, 74, 51
2, 22200, Note_on_c, 0, 74, 0
2, 22200, Note_on_c, 0, 65, 0
2, 22320, Note_on_c, 0, 69, 45
2, 22320, Note_on_c, 0, 63, 45
2, 22320, Note_on_c, 0, 72, 46
2, 22440, Note_on_c, 0, 72, 0
2, 22440, Note_on_c, 0, 63, 0
2, 22440, Note_on_c, 0, 69, 0
2, 22680, Note_on_c, 0, 67, 29
2, 22800, Note_on_c, 0, 67, 0
2, 22800, Note_on_c, 0, 64, 36
2, 22800, Note_on_c, 0, 70, 36
2, 22920, Note_on_c, 0, 70, 0
2, 22920, Note_on_c, 0, 64, 0
2, 23040, Note_on_c, 0, 66, 42
2, 23040, Note_on_c, 0, 69, 42
2, 23160, Note_on_c, 0, 69, 0
2, 23160, Note_on_c, 0, 66, 0
2, 23400, Note_on_c, 0, 64, 22
2, 23520, Note_on_c, 0, 64, 0
2, 23520, Note_on_c, 0, 61, 36
2, 23520, Note_on_c, 0, 67, 36
2, 23640, Note_on_c, 0, 67, 0
2, 23640, Note_on_c, 0, 61, 0
2, 23760, Note_on_c, 0, 62, 36
2, 23760, Note_on_c, 0, 66, 36
2, 23880, Note_on_c, 0, 66, 0
2, 23880, Note_on_c, 0, 62, 0
2, 24120, Note_on_c, 0, 62, 27
2, 24240, Note_on_c, 0, 62, 0
2, 24240, Note_on_c, 0, 60, 40
2, 24240, Note_on_c, 0, 66, 40
2, 24360, Note_on_c, 0, 66, 0
2, 24360, Note_on_c, 0, 60, 0
2, 24480, Note_on_c, 0, 58, 45
2, 24480, Note_on_c, 0, 67, 45
2, 24600, Note_on_c, 0, 67, 0
2, 24600, Note_on_c, 0, 58, 0
2, 24840, Note_on_c, 0, 66, 27
2, 24960, Note_on_c, 0, 66, 0
2, 24960, Note_on_c, 0, 62, 42
2, 24960, Note_on_c, 0, 69, 42
2, 25080, Note_on_c, 0, 69, 0
2, 25080, Note_on_c, 0, 62, 0
2, 25200, Note_on_c, 0, 67, 45
2, 25200, Note_on_c, 0, 70, 45
2, 25320, Note_on_c, 0, 70, 0
2, 25320, Note_on_c, 0, 67, 0
2, 25560, Note_on_c, 0, 69, 26
2, 25680, Note_on_c, 0, 69, 0
2, 25680, Note_on_c, 0, 67, 45
2, 25680, Note_on_c, 0, 72, 45
2, 25800, Note_on_c, 0, 72, 0
2, 25800, Note_on_c, 0, 67, 0
2, 25920, Note_on_c, 0, 70, 45
2, 25920, Note_on_c, 0, 74, 45
2, 26040, Note_on_c, 0, 74, 0
2, 26040, Note_on_c, 0, 70, 0
2, 26280, Note_on_c, 0, 75, 26
2, 26400, Note_on_c, 0, 75, 0
2, 26400, Note_on_c, 0, 72, 35
2, 26400, Note_on_c, 0, 79, 42
2, 26640, Note_on_c, 0, 79, 0
2, 26640, Note_on_c, 0, 72, 0
2, 26640, Note_on_c, 0, 70, 35
2, 26640, Note_on_c, 0, 74, 42
2, 26880, Note_on_c, 0, 74, 0
2, 26880, Note_on_c, 0, 70, 0
2, 27000, Note_on_c, 0, 67, 28
2, 27120, Note_on_c, 0, 67, 0
2, 27120, Note_on_c, 0, 62, 45
2, 27120, Note_on_c, 0, 70, 45
2, 27240, Note_on_c, 0, 70, 0
2, 27240, Note_on_c, 0, 62, 0
2, 27360, Note_on_c, 0, 69, 47
2, 27480, Note_on_c, 0, 69, 0
2, 27720, Note_on_c, 0, 69, 36
2, 27840, Note_on_c, 0, 69, 0
2, 27840, Note_on_c, 0, 63, 45
2, 27840, Note_on_c, 0, 72, 45
2, 27960, Note_on_c, 0, 72, 0
2, 27960, Note_on_c, 0, 63, 0
2, 28080, Note_on_c, 0, 70, 46
2, 28200, Note_on_c, 0, 70, 0
2, 28440, Note_on_c, 0, 66, 29
2, 28560, Note_on_c, 0, 66, 0
2, 28560, Note_on_c, 0, 60, 36
2, 28560, Note_on_c, 0, 69, 36
2, 28680, Note_on_c, 0, 69, 0
2, 28680, Note_on_c, 0, 60, 0
2, 28800, Note_on_c, 0, 58, 42
2, 28800, Note_on_c, 0, 67, 42
2, 28920, Note_on_c, 0, 67, 0
2, 28920, Note_on_c, 0, 58, 0
2, 29160, Note_on_c, 0, 60, 22
2, 29280, Note_on_c, 0, 60, 0
2, 29280, Note_on_c, 0, 57, 36
2, 29280, Note_on_c, 0, 63, 36
2, 29400, Note_on_c, 0, 63, 0
2, 29400, Note_on_c, 0, 57, 0
2, 29520, Note_on_c, 0, 58, 36
2, 29520, Note_on_c, 0, 62, 36
2, 29640, Note_on_c, 0, 62, 0
2, 29640, Note_on_c, 0, 58, 0
2, 29880, Note_on_c, 0, 62, 27
2, 30000, Note_on_c, 0, 62, 0
2, 30000, Note_on_c, 0, 60, 40
2, 30000, Note_on_c, 0, 66, 40
2, 30120, Note_on_c, 0, 66, 0
2, 30120, Note_on_c, 0, 60, 0
2, 30240, Note_on_c, 0, 58, 45
2, 30240, Note_on_c, 0, 67, 45
2, 30360, Note_on_c, 0, 67, 0
2, 30360, Note_on_c, 0, 58, 0
2, 30600, Note_on_c, 0, 66, 27
2, 30720, Note_on_c, 0, 66, 0
2, 30720, Note_on_c, 0, 62, 42
2, 30720, Note_on_c, 0, 69, 42
2, 30840, Note_on_c, 0, 69, 0
2, 30840, Note_on_c, 0, 62, 0
2, 30960, Note_on_c, 0, 67, 45
2, 30960, Note_on_c, 0, 70, 45
2, 31080, Note_on_c, 0, 70, 0
2, 31080, Note_on_c, 0, 67, 0
2, 31320, Note_on_c, 0, 69, 26
2, 31440, Note_on_c, 0, 69, 0
2, 31440, Note_on_c, 0, 67, 45
2, 31440, Note_on_c, 0, 72, 45
2, 31560, Note_on_c, 0, 72, 0
2, 31560, Note_on_c, 0, 67, 0
2, 31680, Note_on_c, 0, 70, 45
2, 31680, Note_on_c, 0, 74, 45
2, 31800, Note_on_c, 0, 74, 0
2, 31800, Note_on_c, 0, 70, 0
2, 32040, Note_on_c, 0, 75, 26
2, 32160, Note_on_c, 0, 75, 0
2, 32160, Note_on_c, 0, 72, 50
2, 32160, Note_on_c, 0, 79, 50
2, 32400, Note_on_c, 0, 79, 0
2, 32400, Note_on_c, 0, 72, 0
2, 32400, Note_on_c, 0, 70, 50
2, 32400, Note_on_c, 0, 74, 50
2, 32640, Note_on_c, 0, 74, 0
2, 32640, Note_on_c, 0, 70, 0
2, 32760, Note_on_c, 0, 67, 28
2, 32880, Note_on_c, 0, 67, 0
2, 32880, Note_on_c, 0, 62, 45
2, 32880, Note_on_c, 0, 70, 45
2, 33000, Note_on_c, 0, 70, 0
2, 33000, Note_on_c, 0, 62, 0
2, 33120, Note_on_c, 0, 69, 47
2, 33240, Note_on_c, 0, 69, 0
2, 33480, Note_on_c, 0, 69, 36
2, 33600, Note_on_c, 0, 69, 0
2, 33600, Note_on_c, 0, 63, 45
2, 33600, Note_on_c, 0, 72, 45
2, 33720, Note_on_c, 0, 72, 0
2, 33720, Note_on_c, 0, 63, 0
2, 33840, Note_on_c, 0, 70, 46
2, 33960, Note_on_c, 0, 70, 0
2, 34200, Note_on_c, 0, 66, 29
2, 34320, Note_on_c, 0, 66, 0
2, 34320, Note_on_c, 0, 60, 36
2, 34320, Note_on_c, 0, 69, 36
2, 34440, Note_on_c, 0, 69, 0
2, 34440, Note_on_c, 0, 60, 0
2, 34560, Note_on_c, 0, 58, 42
2, 34560, Note_on_c, 0, 67, 42
2, 34680, Note_on_c, 0, 67, 0
2, 34680, Note_on_c, 0, 58, 0
2, 34920, Note_on_c, 0, 58, 35
2, 35040, Note_on_c, 0, 58, 0
2, 35040, Note_on_c, 0, 62, 41
2, 35280, Note_on_c, 0, 62, 0
2, 35280, Note_on_c, 0, 55, 39
2, 35400, Note_on_c, 0, 55, 0
2, 35640, Note_on_c, 0, 58, 27
2, 35760, Note_on_c, 0, 58, 0
2, 35760, Note_on_c, 0, 55, 40
2, 35760, Note_on_c, 0, 62, 40
2, 35880, Note_on_c, 0, 62, 0
2, 35880, Note_on_c, 0, 55, 0
2, 36000, Note_on_c, 0, 54, 45
2, 36000, Note_on_c, 0, 62, 45
2, 36120, Note_on_c, 0, 62, 0
2, 36120, Note_on_c, 0, 54, 0
2, 36360, Note_on_c, 0, 58, 27
2, 36480, Note_on_c, 0, 58, 0
2, 36480, Note_on_c, 0, 55, 42
2, 36480, Note_on_c, 0, 64, 42
2, 36600, Note_on_c, 0, 64, 0
2, 36600, Note_on_c, 0, 55, 0
2, 36720, Note_on_c, 0, 57, 45
2, 36720, Note_on_c, 0, 66, 45
2, 36840, Note_on_c, 0, 66, 0
2, 36840, Note_on_c, 0, 57, 0
2, 37080, Note_on_c, 0, 62, 26
2, 37200, Note_on_c, 0, 62, 0
2, 37200, Note_on_c, 0, 58, 45
2, 37200, Note_on_c, 0, 67, 45
2, 37320, Note_on_c, 0, 67, 0
2, 37320, Note_on_c, 0, 58, 0
2, 37440, Note_on_c, 0, 60, 45
2, 37440, Note_on_c, 0, 69, 45
2, 37560, Note_on_c, 0, 69, 0
2, 37560, Note_on_c, 0, 60, 0
2, 37800, Note_on_c, 0, 65, 26
2, 37920, Note_on_c, 0, 65, 0
2, 37920, Note_on_c, 0, 62, 46
2, 37920, Note_on_c, 0, 71, 46
2, 38040, Note_on_c, 0, 71, 0
2, 38040, Note_on_c, 0, 62, 0
2, 38160, Note_on_c, 0, 63, 50
2, 38160, Note_on_c, 0, 72, 50
2, 38280, Note_on_c, 0, 72, 0
2, 38280, Note_on_c, 0, 63, 0
2, 38520, Note_on_c, 0, 68, 28
2, 38640, Note_on_c, 0, 68, 0
2, 38640, Note_on_c, 0, 65, 45
2, 38640, Note_on_c, 0, 74, 45
2, 38760, Note_on_c, 0, 74, 0
2, 38760, Note_on_c, 0, 65, 0
2, 38880, Note_on_c, 0, 63, 45
2, 38880, Note_on_c, 0, 72, 47
2, 39000, Note_on_c, 0, 72, 0
2, 39000, Note_on_c, 0, 63, 0
2, 39240, Note_on_c, 0, 67, 36
2, 39360, Note_on_c, 0, 67, 0
2, 39360, Note_on_c, 0, 62, 45
2, 39360, Note_on_c, 0, 71, 45
2, 39480, Note_on_c, 0, 71, 0
2, 39480, Note_on_c, 0, 62, 0
2, 39600, Note_on_c, 0, 63, 45
2, 39600, Note_on_c, 0, 72, 46
2, 39720, Note_on_c, 0, 72, 0
2, 39720, Note_on_c, 0, 63, 0
2, 39960, Note_on_c, 0, 68, 29
2, 40080, Note_on_c, 0, 68, 0
2, 40080, Note_on_c, 0, 65, 36
2, 40080, Note_on_c, 0, 74, 36
2, 40200, Note_on_c, 0, 74, 0
2, 40200, Note_on_c, 0, 65, 0
2, 40320, Note_on_c, 0, 63, 42
2, 40320, Note_on_c, 0, 72, 42
2, 40440, Note_on_c, 0, 72, 0
2, 40440, Note_on_c, 0, 63, 0
2, 40680, Note_on_c, 0, 67, 22
2, 40800, Note_on_c, 0, 67, 0
2, 40800, Note_on_c, 0, 62, 36
2, 40800, Note_on_c, 0, 71, 36
2, 40920, Note_on_c, 0, 71, 0
2, 40920, Note_on_c, 0, 62, 0
2, 41040, Note_on_c, 0, 63, 36
2, 41040, Note_on_c, 0, 72, 36
2, 41160, Note_on_c, 0, 72, 0
2, 41160, Note_on_c, 0, 63, 0
2, 41400, Note_on_c, 0, 62, 27
2, 41520, Note_on_c, 0, 62, 0
2, 41520, Note_on_c, 0, 58, 40
2, 41520, Note_on_c, 0, 65, 40
2, 41640, Note_on_c, 0, 65, 0
2, 41640, Note_on_c, 0, 58, 0
2, 41760, Note_on_c, 0, 57, 45
2, 41760, Note_on_c, 0, 65, 45
2, 41880, Note_on_c, 0, 65, 0
2, 41880, Note_on_c, 0, 57, 0
2, 42120, Note_on_c, 0, 63, 27
2, 42240, Note_on_c, 0, 63, 0
2, 42240, Note_on_c, 0, 58, 42
2, 42240, Note_on_c, 0, 67, 42
2, 42360, Note_on_c, 0, 67, 0
2, 42360, Note_on_c, 0, 58, 0
2, 42480, Note_on_c, 0, 60, 45
2, 42480, Note_on_c, 0, 69, 45
2, 42600, Note_on_c, 0, 69, 0
2, 42600, Note_on_c, 0, 60, 0
2, 42840, Note_on_c, 0, 65, 26
2, 42960, Note_on_c, 0, 65, 0
2, 42960, Note_on_c, 0, 62, 45
2, 42960, Note_on_c, 0, 70, 45
2, 43080, Note_on_c, 0, 70, 0
2, 43080, Note_on_c, 0, 62, 0
2, 43200, Note_on_c, 0, 63, 45
2, 43200, Note_on_c, 0, 72, 45
2, 43320, Note_on_c, 0, 72, 0
2, 43320, Note_on_c, 0, 63, 0
2, 43560, Note_on_c, 0, 68, 26
2, 43680, Note_on_c, 0, 68, 0
2, 43680, Note_on_c, 0, 65, 50
2, 43680, Note_on_c, 0, 74, 50
2, 43800, Note_on_c, 0, 74, 0
2, 43800, Note_on_c, 0, 65, 0
2, 43920, Note_on_c, 0, 67, 50
2, 43920, Note_on_c, 0, 75, 50
2, 44040, Note_on_c, 0, 75, 0
2, 44040, Note_on_c, 0, 67, 0
2, 44280, Note_on_c, 0, 71, 28
2, 44400, Note_on_c, 0, 71, 0
2, 44400, Note_on_c, 0, 68, 50
2, 44400, Note_on_c, 0, 77, 50
2, 44520, Note_on_c, 0, 77, 0
2, 44520, Note_on_c, 0, 68, 0
2, 44640, Note_on_c, 0, 72, 54
2, 44640, Note_on_c, 0, 67, 54
2, 44640, Note_on_c, 0, 75, 54
2, 44760, Note_on_c, 0, 75, 0
2, 44760, Note_on_c, 0, 67, 0
2, 44760, Note_on_c, 0, 72, 0
2, 45000, Note_on_c, 0, 68, 42
2, 45120, Note_on_c, 0, 68, 0
2, 45120, Note_on_c, 0, 65, 51
2, 45120, Note_on_c, 0, 74, 51
2, 45240, Note_on_c, 0, 74, 0
2, 45240, Note_on_c, 0, 65, 0
2, 45360, Note_on_c, 0, 69, 45
2, 45360, Note_on_c, 0, 63, 45
2, 45360, Note_on_c, 0, 72, 46
2, 45480, Note_on_c, 0, 72, 0
2, 45480, Note_on_c, 0, 63, 0
2, 45480, Note_on_c, 0, 69, 0
2, 45720, Note_on_c, 0, 67, 29
2, 45840, Note_on_c, 0, 67, 0
2, 45840, Note_on_c, 0, 64, 36
2, 45840, Note_on_c, 0, 70, 36
2, 45960, Note_on_c, 0, 70, 0
2, 45960, Note_on_c, 0, 64, 0
2, 46080, Note_on_c, 0, 66, 42
2, 46080, Note_on_c, 0, 69, 42
2, 46200, Note_on_c, 0, 69, 0
2, 46200, Note_on_c, 0, 66, 0
2, 46440, Note_on_c, 0, 64, 22
2, 46560, Note_on_c, 0, 64, 0
2, 46560, Note_on_c, 0, 61, 36
2, 46560, Note_on_c, 0, 67, 36
2, 46680, Note_on_c, 0, 67, 0
2, 46680, Note_on_c, 0, 61, 0
2, 46800, Note_on_c, 0, 62, 36
2, 46800, Note_on_c, 0, 66, 36
2, 46920, Note_on_c, 0, 66, 0
2, 46920, Note_on_c, 0, 62, 0
2, 47160, Note_on_c, 0, 62, 27
2, 47280, Note_on_c, 0, 62, 0
2, 47280, Note_on_c, 0, 60, 40
2, 47280, Note_on_c, 0, 66, 40
2, 47400, Note_on_c, 0, 66, 0
2, 47400, Note_on_c, 0, 60, 0
2, 47520, Note_on_c, 0, 58, 45
2, 47520, Note_on_c, 0, 67, 45
2, 47640, Note_on_c, 0, 67, 0
2, 47640, Note_on_c, 0, 58, 0
2, 47880, Note_on_c, 0, 66, 27
2, 47970, Note_on_c, 0, 66, 0
2, 48000, Note_on_c, 0, 62, 42
2, 48000, Note_on_c, 0, 69, 42
2, 48090, Note_on_c, 0, 69, 0
2, 48090, Note_on_c, 0, 62, 0
2, 48240, Note_on_c, 0, 67, 45
2, 48240, Note_on_c, 0, 70, 45
2, 48330, Note_on_c, 0, 70, 0
2, 48330, Note_on_c, 0, 67, 0
2, 48600, Note_on_c, 0, 69, 26
2, 48720, Note_on_c, 0, 69, 0
2, 48720, Note_on_c, 0, 67, 45
2, 48720, Note_on_c, 0, 72, 45
2, 48840, Note_on_c, 0, 72, 0
2, 48840, Note_on_c, 0, 67, 0
2, 48960, Note_on_c, 0, 70, 45
2, 48960, Note_on_c, 0, 74, 45
2, 49080, Note_on_c, 0, 74, 0
2, 49080, Note_on_c, 0, 70, 0
2, 49320, Note_on_c, 0, 75, 26
2, 49440, Note_on_c, 0, 75, 0
2, 49440, Note_on_c, 0, 72, 35
2, 49440, Note_on_c, 0, 79, 42
2, 49680, Note_on_c, 0, 79, 0
2, 49680, Note_on_c, 0, 72, 0
2, 49680, Note_on_c, 0, 70, 35
2, 49680, Note_on_c, 0, 74, 42
2, 49920, Note_on_c, 0, 74, 0
2, 49920, Note_on_c, 0, 70, 0
2, 50040, Note_on_c, 0, 67, 28
2, 50160, Note_on_c, 0, 67, 0
2, 50160, Note_on_c, 0, 62, 45
2, 50160, Note_on_c, 0, 70, 45
2, 50280, Note_on_c, 0, 70, 0
2, 50280, Note_on_c, 0, 62, 0
2, 50400, Note_on_c, 0, 69, 47
2, 50520, Note_on_c, 0, 69, 0
2, 50760, Note_on_c, 0, 69, 36
2, 50880, Note_on_c, 0, 69, 0
2, 50880, Note_on_c, 0, 63, 45
2, 50880, Note_on_c, 0, 72, 45
2, 51000, Note_on_c, 0, 72, 0
2, 51000, Note_on_c, 0, 63, 0
2, 51120, Note_on_c, 0, 70, 46
2, 51240, Note_on_c, 0, 70, 0
2, 51480, Note_on_c, 0, 66, 29
2, 51600, Note_on_c, 0, 66, 0
2, 51600, Note_on_c, 0, 60, 36
2, 51600, Note_on_c, 0, 69, 36
2, 51720, Note_on_c, 0, 69, 0
2, 51720, Note_on_c, 0, 60, 0
2, 51840, Note_on_c, 0, 58, 42
2, 51840, Note_on_c, 0, 67, 42
2, 51960, Note_on_c, 0, 67, 0
2, 51960, Note_on_c, 0, 58, 0
2, 52200, Note_on_c, 0, 60, 22
2, 52320, Note_on_c, 0, 60, 0
2, 52320, Note_on_c, 0, 57, 36
2, 52320, Note_on_c, 0, 63, 36
2, 52440, Note_on_c, 0, 63, 0
2, 52440, Note_on_c, 0, 57, 0
2, 52560, Note_on_c, 0, 58, 36
2, 52560, Note_on_c, 0, 62, 36
2, 52680, Note_on_c, 0, 62, 0
2, 52680, Note_on_c, 0, 58, 0
2, 52920, Note_on_c, 0, 62, 27
2, 53040, Note_on_c, 0, 62, 0
2, 53040, Note_on_c, 0, 60, 40
2, 53040, Note_on_c, 0, 66, 40
2, 53160, Note_on_c, 0, 66, 0
2, 53160, Note_on_c, 0, 60, 0
2, 53280, Note_on_c, 0, 58, 45
2, 53280, Note_on_c, 0, 67, 45
2, 53400, Note_on_c, 0, 67, 0
2, 53400, Note_on_c, 0, 58, 0
2, 53640, Note_on_c, 0, 66, 27
2, 53760, Note_on_c, 0, 66, 0
2, 53760, Note_on_c, 0, 62, 42
2, 53760, Note_on_c, 0, 69, 42
2, 53880, Note_on_c, 0, 69, 0
2, 53880, Note_on_c, 0, 62, 0
2, 54000, Note_on_c, 0, 67, 45
2, 54000, Note_on_c, 0, 70, 45
2, 54120, Note_on_c, 0, 70, 0
2, 54120, Note_on_c, 0, 67, 0
2, 54360, Note_on_c, 0, 69, 26
2, 54480, Note_on_c, 0, 69, 0
2, 54480, Note_on_c, 0, 67, 45
2, 54480, Note_on_c, 0, 72, 45
2, 54600, Note_on_c, 0, 72, 0
2, 54600, Note_on_c, 0, 67, 0
2, 54720, Note_on_c, 0, 70, 45
2, 54720, Note_on_c, 0, 74, 45
2, 54840, Note_on_c, 0, 74, 0
2, 54840, Note_on_c, 0, 70, 0
2, 55080, Note_on_c, 0, 75, 26
2, 55200, Note_on_c, 0, 75, 0
2, 55200, Note_on_c, 0, 72, 35
2, 55200, Note_on_c, 0, 79, 42
2, 55440, Note_on_c, 0, 79, 0
2, 55440, Note_on_c, 0, 72, 0
2, 55440, Note_on_c, 0, 70, 35
2, 55440, Note_on_c, 0, 74, 42
2, 55680, Note_on_c, 0, 74, 0
2, 55680, Note_on_c, 0, 70, 0
2, 55800, Note_on_c, 0, 67, 28
2, 55920, Note_on_c, 0, 67, 0
2, 55920, Note_on_c, 0, 62, 45
2, 55920, Note_on_c, 0, 70, 45
2, 56040, Note_on_c, 0, 70, 0
2, 56040, Note_on_c, 0, 62, 0
2, 56160, Note_on_c, 0, 69, 47
2, 56280, Note_on_c, 0, 69, 0
2, 56520, Note_on_c, 0, 69, 36
2, 56640, Note_on_c, 0, 69, 0
2, 56640, Note_on_c, 0, 63, 45
2, 56640, Note_on_c, 0, 72, 45
2, 56760, Note_on_c, 0, 72, 0
2, 56760, Note_on_c, 0, 63, 0
2, 56880, Note_on_c, 0, 70, 46
2, 57000, Note_on_c, 0, 70, 0
2, 57240, Note_on_c, 0, 66, 29
2, 57360, Note_on_c, 0, 66, 0
2, 57360, Note_on_c, 0, 60, 36
2, 57360, Note_on_c, 0, 69, 36
2, 57480, Note_on_c, 0, 69, 0
2, 57480, Note_on_c, 0, 60, 0
2, 57600, Note_on_c, 0, 58, 42
2, 57600, Note_on_c, 0, 67, 42
2, 57720, Note_on_c, 0, 67, 0
2, 57720, Note_on_c, 0, 58, 0
2, 57960, Note_on_c, 0, 58, 35
2, 58080, Note_on_c, 0, 58, 0
2, 58080, Note_on_c, 0, 62, 41
2, 58320, Note_on_c, 0, 62, 0
2, 58320, Note_on_c, 0, 55, 39
2, 58440, Note_on_c, 0, 55, 0
2, 58680, Note_on_c, 0, 53, 31
2, 58800, Note_on_c, 0, 53, 0
2, 58800, Note_on_c, 0, 58, 46
2, 59040, Note_on_c, 0, 58, 0
2, 59040, Note_on_c, 0, 50, 51
2, 59280, Note_on_c, 0, 50, 0
2, 59400, Note_on_c, 0, 65, 33
2, 59490, Note_on_c, 0, 70, 46
2, 59520, Note_on_c, 0, 65, 0
2, 59760, Note_on_c, 0, 70, 0
2, 59760, Note_on_c, 0, 62, 43
2, 60000, Note_on_c, 0, 62, 0
2, 60120, Note_on_c, 0, 55, 29
2, 60210, Note_on_c, 0, 58, 42
2, 60240, Note_on_c, 0, 55, 0
2, 60480, Note_on_c, 0, 58, 0
2, 60480, Note_on_c, 0, 48, 51
2, 60720, Note_on_c, 0, 48, 0
2, 60840, Note_on_c, 0, 67, 31
2, 60930, Note_on_c, 0, 70, 58
2, 60960, Note_on_c, 0, 67, 0
2, 61200, Note_on_c, 0, 70, 0
2, 61200, Note_on_c, 0, 60, 54
2, 61440, Note_on_c, 0, 60, 0
2, 61560, Note_on_c, 0, 55, 29
2, 61650, Note_on_c, 0, 58, 55
2, 61680, Note_on_c, 0, 55, 0
2, 61920, Note_on_c, 0, 58, 0
2, 61920, Note_on_c, 0, 48, 51
2, 62160, Note_on_c, 0, 48, 0
2, 62280, Note_on_c, 0, 67, 31
2, 62370, Note_on_c, 0, 70, 52
2, 62400, Note_on_c, 0, 67, 0
2, 62640, Note_on_c, 0, 70, 0
2, 62640, Note_on_c, 0, 60, 51
2, 62880, Note_on_c, 0, 60, 0
2, 63000, Note_on_c, 0, 53, 36
2, 63090, Note_on_c, 0, 57, 49
2, 63120, Note_on_c, 0, 53, 0
2, 63360, Note_on_c, 0, 57, 0
2, 63360, Note_on_c, 0, 48, 51
2, 63600, Note_on_c, 0, 48, 0
2, 63720, Note_on_c, 0, 65, 31
2, 63810, Note_on_c, 0, 69, 48
2, 63840, Note_on_c, 0, 65, 0
2, 64080, Note_on_c, 0, 69, 0
2, 64080, Note_on_c, 0, 60, 41
2, 64320, Note_on_c, 0, 60, 0
2, 64440, Note_on_c, 0, 53, 29
2, 64530, Note_on_c, 0, 58, 42
2, 64560, Note_on_c, 0, 53, 0
2, 64800, Note_on_c, 0, 58, 0
2, 64800, Note_on_c, 0, 50, 51
2, 65040, Note_on_c, 0, 50, 0
2, 65160, Note_on_c, 0, 65, 33
2, 65250, Note_on_c, 0, 70, 57
2, 65280, Note_on_c, 0, 65, 0
2, 65520, Note_on_c, 0, 70, 0
2, 65520, Note_on_c, 0, 62, 43
2, 65760, Note_on_c, 0, 62, 0
2, 65880, Note_on_c, 0, 55, 29
2, 65970, Note_on_c, 0, 58, 50
2, 66000, Note_on_c, 0, 55, 0
2, 66240, Note_on_c, 0, 58, 0
2, 66240, Note_on_c, 0, 48, 51
2, 66480, Note_on_c, 0, 48, 0
2, 66600, Note_on_c, 0, 67, 31
2, 66690, Note_on_c, 0, 70, 58
2, 66720, Note_on_c, 0, 67, 0
2, 66960, Note_on_c, 0, 70, 0
2, 66960, Note_on_c, 0, 60, 54
2, 67200, Note_on_c, 0, 60, 0
2, 67320, Note_on_c, 0, 55, 29
2, 67410, Note_on_c, 0, 58, 55
2, 67440, Note_on_c, 0, 55, 0
2, 67680, Note_on_c, 0, 58, 0
2, 67680, Note_on_c, 0, 48, 51
2, 67920, Note_on_c, 0, 48, 0
2, 68040, Note_on_c, 0, 67, 31
2, 68130, Note_on_c, 0, 70, 57
2, 68160, Note_on_c, 0, 67, 0
2, 68400, Note_on_c, 0, 70, 0
2, 68400, Note_on_c, 0, 60, 51
2, 68640, Note_on_c, 0, 60, 0
2, 68760, Note_on_c, 0, 53, 36
2, 68850, Note_on_c, 0, 57, 49
2, 68880, Note_on_c, 0, 53, 0
2, 69120, Note_on_c, 0, 57, 0
2, 69120, Note_on_c, 0, 48, 51
2, 69360, Note_on_c, 0, 48, 0
2, 69480, Note_on_c, 0, 65, 31
2, 69570, Note_on_c, 0, 69, 48
2, 69600, Note_on_c, 0, 65, 0
2, 69840, Note_on_c, 0, 69, 0
2, 69840, Note_on_c, 0, 60, 41
2, 70080, Note_on_c, 0, 60, 0
2, 70200, Note_on_c, 0, 58, 29
2, 70290, Note_on_c, 0, 62, 42
2, 70320, Note_on_c, 0, 58, 0
2, 70560, Note_on_c, 0, 62, 0
2, 70560, Note_on_c, 0, 53, 51
2, 70800, Note_on_c, 0, 53, 0
2, 70920, Note_on_c, 0, 70, 33
2, 71010, Note_on_c, 0, 74, 57
2, 71040, Note_on_c, 0, 70, 0
2, 71280, Note_on_c, 0, 74, 0
2, 71280, Note_on_c, 0, 65, 43
2, 71520, Note_on_c, 0, 65, 0
2, 71640, Note_on_c, 0, 59, 29
2, 71730, Note_on_c, 0, 62, 50
2, 71760, Note_on_c, 0, 59, 0
2, 72000, Note_on_c, 0, 62, 0
2, 72000, Note_on_c, 0, 53, 51
2, 72240, Note_on_c, 0, 53, 0
2, 72360, Note_on_c, 0, 71, 31
2, 72450, Note_on_c, 0, 74, 58
2, 72480, Note_on_c, 0, 71, 0
2, 72720, Note_on_c, 0, 74, 0
2, 72720, Note_on_c, 0, 65, 54
2, 72960, Note_on_c, 0, 65, 0
2, 73080, Note_on_c, 0, 59, 29
2, 73170, Note_on_c, 0, 62, 55
2, 73200, Note_on_c, 0, 59, 0
2, 73440, Note_on_c, 0, 62, 0
2, 73440, Note_on_c, 0, 55, 51
2, 73680, Note_on_c, 0, 55, 0
2, 73800, Note_on_c, 0, 71, 31
2, 73890, Note_on_c, 0, 74, 57
2, 73920, Note_on_c, 0, 71, 0
2, 74160, Note_on_c, 0, 74, 0
2, 74160, Note_on_c, 0, 67, 51
2, 74400, Note_on_c, 0, 67, 0
2, 74520, Note_on_c, 0, 60, 36
2, 74610, Note_on_c, 0, 63, 49
2, 74640, Note_on_c, 0, 60, 0
2, 74880, Note_on_c, 0, 63, 0
2, 74880, Note_on_c, 0, 55, 51
2, 75120, Note_on_c, 0, 55, 0
2, 75240, Note_on_c, 0, 72, 31
2, 75330, Note_on_c, 0, 75, 48
2, 75360, Note_on_c, 0, 72, 0
2, 75600, Note_on_c, 0, 75, 0
2, 75600, Note_on_c, 0, 67, 41
2, 75840, Note_on_c, 0, 67, 0
2, 75960, Note_on_c, 0, 60, 29
2, 76050, Note_on_c, 0, 63, 42
2, 76080, Note_on_c, 0, 60, 0
2, 76320, Note_on_c, 0, 63, 0
2, 76320, Note_on_c, 0, 55, 51
2, 76560, Note_on_c, 0, 55, 0
2, 76680, Note_on_c, 0, 72, 33
2, 76770, Note_on_c, 0, 75, 57
2, 76800, Note_on_c, 0, 72, 0
2, 77040, Note_on_c, 0, 75, 0
2, 77040, Note_on_c, 0, 67, 43
2, 77280, Note_on_c, 0, 67, 0
2, 77400, Note_on_c, 0, 61, 29
2, 77490, Note_on_c, 0, 64, 50
2, 77520, Note_on_c, 0, 61, 0
2, 77760, Note_on_c, 0, 64, 0
2, 77760, Note_on_c, 0, 55, 51
2, 78000, Note_on_c, 0, 55, 0
2, 78120, Note_on_c, 0, 73, 31
2, 78210, Note_on_c, 0, 76, 58
2, 78240, Note_on_c, 0, 73, 0
2, 78480, Note_on_c, 0, 76, 0
2, 78480, Note_on_c, 0, 67, 54
2, 78720, Note_on_c, 0, 67, 0
2, 78840, Note_on_c, 0, 61, 29
2, 78930, Note_on_c, 0, 64, 55
2, 78960, Note_on_c, 0, 61, 0
2, 79200, Note_on_c, 0, 64, 0
2, 79200, Note_on_c, 0, 57, 51
2, 79440, Note_on_c, 0, 57, 0
2, 79560, Note_on_c, 0, 73, 31
2, 79650, Note_on_c, 0, 76, 57
2, 79680, Note_on_c, 0, 73, 0
2, 79920, Note_on_c, 0, 76, 0
2, 79920, Note_on_c, 0, 69, 51
2, 80160, Note_on_c, 0, 69, 0
2, 80280, Note_on_c, 0, 57, 36
2, 80370, Note_on_c, 0, 62, 49
2, 80400, Note_on_c, 0, 57, 0
2, 80640, Note_on_c, 0, 62, 0
2, 80640, Note_on_c, 0, 50, 51
2, 80880, Note_on_c, 0, 50, 0
2, 81000, Note_on_c, 0, 69, 31
2, 81090, Note_on_c, 0, 74, 48
2, 81120, Note_on_c, 0, 69, 0
2, 81360, Note_on_c, 0, 74, 0
2, 81360, Note_on_c, 0, 62, 41
2, 81600, Note_on_c, 0, 62, 0
2, 81720, Note_on_c, 0, 53, 29
2, 81810, Note_on_c, 0, 58, 42
2, 81840, Note_on_c, 0, 53, 0
2, 82080, Note_on_c, 0, 58, 0
2, 82080, Note_on_c, 0, 50, 51
2, 82320, Note_on_c, 0, 50, 0
2, 82440, Note_on_c, 0, 65, 33
2, 82530, Note_on_c, 0, 70, 57
2, 82560, Note_on_c, 0, 65, 0
2, 82800, Note_on_c, 0, 70, 0
2, 82800, Note_on_c, 0, 62, 43
2, 83040, Note_on_c, 0, 62, 0
2, 83160, Note_on_c, 0, 54, 29
2, 83250, Note_on_c, 0, 58, 50
2, 83280, Note_on_c, 0, 54, 0
2, 83520, Note_on_c, 0, 58, 0
2, 83520, Note_on_c, 0, 48, 51
2, 83760, Note_on_c, 0, 48, 0
2, 83880, Note_on_c, 0, 66, 31
2, 83970, Note_on_c, 0, 70, 58
2, 84000, Note_on_c, 0, 66, 0
2, 84240, Note_on_c, 0, 70, 0
2, 84240, Note_on_c, 0, 60, 54
2, 84480, Note_on_c, 0, 60, 0
2, 84600, Note_on_c, 0, 54, 29
2, 84690, Note_on_c, 0, 58, 55
2, 84720, Note_on_c, 0, 54, 0
2, 84960, Note_on_c, 0, 58, 0
2, 84960, Note_on_c, 0, 48, 62
2, 85200, Note_on_c, 0, 48, 0
2, 85320, Note_on_c, 0, 66, 33
2, 85410, Note_on_c, 0, 70, 57
2, 85440, Note_on_c, 0, 66, 0
2, 85680, Note_on_c, 0, 70, 0
2, 86040, Note_on_c, 0, 53, 29
2, 86130, Note_on_c, 0, 58, 57
2, 86160, Note_on_c, 0, 53, 0
2, 86400, Note_on_c, 0, 58, 0
2, 86400, Note_on_c, 0, 46, 62
2, 86640, Note_on_c, 0, 46, 0
2, 86760, Note_on_c, 0, 65, 31
2, 86850, Note_on_c, 0, 70, 62
2, 86880, Note_on_c, 0, 65, 0
2, 87120, Note_on_c, 0, 70, 0
2, 87120, Note_on_c, 0, 58, 56
2, 87360, Note_on_c, 0, 58, 0
2, 87480, Note_on_c, 0, 58, 39
2, 87570, Note_on_c, 0, 62, 55
2, 87600, Note_on_c, 0, 58, 0
2, 87840, Note_on_c, 0, 62, 0
2, 87840, Note_on_c, 0, 53, 51
2, 88080, Note_on_c, 0, 53, 0
2, 88200, Note_on_c, 0, 70, 33
2, 88290, Note_on_c, 0, 74, 57
2, 88320, Note_on_c, 0, 70, 0
2, 88560, Note_on_c, 0, 74, 0
2, 88560, Note_on_c, 0, 65, 43
2, 88800, Note_on_c, 0, 65, 0
2, 88920, Note_on_c, 0, 58, 29
2, 89010, Note_on_c, 0, 62, 50
2, 89040, Note_on_c, 0, 58, 0
2, 89280, Note_on_c, 0, 62, 0
2, 89280, Note_on_c, 0, 52, 51
2, 89520, Note_on_c, 0, 52, 0
2, 89640, Note_on_c, 0, 70, 31
2, 89730, Note_on_c, 0, 74, 58
2, 89760, Note_on_c, 0, 70, 0
2, 90000, Note_on_c, 0, 74, 0
2, 90000, Note_on_c, 0, 64, 54
2, 90240, Note_on_c, 0, 64, 0
2, 90360, Note_on_c, 0, 58, 29
2, 90450, Note_on_c, 0, 62, 55
2, 90480, Note_on_c, 0, 58, 0
2, 90720, Note_on_c, 0, 62, 0
2, 90720, Note_on_c, 0, 52, 62
2, 90960, Note_on_c, 0, 52, 0
2, 91080, Note_on_c, 0, 70, 33
2, 91170, Note_on_c, 0, 74, 57
2, 91200, Note_on_c, 0, 70, 0
2, 91440, Note_on_c, 0, 74, 0
2, 91800, Note_on_c, 0, 57, 29
2, 91890, Note_on_c, 0, 62, 57
2, 91920, Note_on_c, 0, 57, 0
2, 92160, Note_on_c, 0, 62, 0
2, 92160, Note_on_c, 0, 50, 62
2, 92400, Note_on_c, 0, 50, 0
2, 92520, Note_on_c, 0, 69, 31
2, 92610, Note_on_c, 0, 74, 62
2, 92640, Note_on_c, 0, 69, 0
2, 92880, Note_on_c, 0, 74, 0
2, 92880, Note_on_c, 0, 62, 56
2, 93120, Note_on_c, 0, 62, 0
2, 93240, Note_on_c, 0, 67, 39
2, 93360, Note_on_c, 0, 67, 0
2, 93360, Note_on_c, 0, 65, 46
2, 93360, Note_on_c, 0, 71, 46
2, 93480, Note_on_c, 0, 71, 0
2, 93480, Note_on_c, 0, 65, 0
2, 93600, Note_on_c, 0, 63, 51
2, 93600, Note_on_c, 0, 72, 51
2, 93720, Note_on_c, 0, 72, 0
2, 93720, Note_on_c, 0, 63, 0
2, 93960, Note_on_c, 0, 71, 31
2, 94080, Note_on_c, 0, 71, 0
2, 94080, Note_on_c, 0, 67, 48
2, 94080, Note_on_c, 0, 74, 48
2, 94200, Note_on_c, 0, 74, 0
2, 94200, Note_on_c, 0, 67, 0
2, 94320, Note_on_c, 0, 72, 51
2, 94320, Note_on_c, 0, 75, 51
2, 94440, Note_on_c, 0, 75, 0
2, 94440, Note_on_c, 0, 72, 0
2, 94680, Note_on_c, 0, 74, 29
2, 94800, Note_on_c, 0, 74, 0
2, 94800, Note_on_c, 0, 72, 51
2, 94800, Note_on_c, 0, 77, 51
2, 94920, Note_on_c, 0, 77, 0
2, 94920, Note_on_c, 0, 72, 0
2, 95040, Note_on_c, 0, 75, 51
2, 95040, Note_on_c, 0, 79, 51
2, 95160, Note_on_c, 0, 79, 0
2, 95160, Note_on_c, 0, 75, 0
2, 95400, Note_on_c, 0, 80, 29
2, 95520, Note_on_c, 0, 80, 0
2, 95520, Note_on_c, 0, 77, 40
2, 95520, Note_on_c, 0, 84, 48
2, 95760, Note_on_c, 0, 84, 0
2, 95760, Note_on_c, 0, 77, 0
2, 95760, Note_on_c, 0, 75, 40
2, 95760, Note_on_c, 0, 79, 48
2, 96000, Note_on_c, 0, 79, 0
2, 96000, Note_on_c, 0, 75, 0
2, 96120, Note_on_c, 0, 72, 32
2, 96240, Note_on_c, 0, 72, 0
2, 96240, Note_on_c, 0, 67, 51
2, 96240, Note_on_c, 0, 75, 51
2, 96360, Note_on_c, 0, 75, 0
2, 96360, Note_on_c, 0, 67, 0
2, 96480, Note_on_c, 0, 74, 54
2, 96600, Note_on_c, 0, 74, 0
2, 96840, Note_on_c, 0, 74, 41
2, 96960, Note_on_c, 0, 74, 0
2, 96960, Note_on_c, 0, 68, 51
2, 96960, Note_on_c, 0, 77, 51
2, 97080, Note_on_c, 0, 77, 0
2, 97080, Note_on_c, 0, 68, 0
2, 97200, Note_on_c, 0, 75, 52
2, 97320, Note_on_c, 0, 75, 0
2, 97560, Note_on_c, 0, 71, 33
2, 97680, Note_on_c, 0, 71, 0
2, 97680, Note_on_c, 0, 65, 41
2, 97680, Note_on_c, 0, 74, 41
2, 97800, Note_on_c, 0, 74, 0
2, 97800, Note_on_c, 0, 65, 0
2, 97920, Note_on_c, 0, 63, 48
2, 97920, Note_on_c, 0, 72, 48
2, 98040, Note_on_c, 0, 72, 0
2, 98040, Note_on_c, 0, 63, 0
2, 98280, Note_on_c, 0, 65, 25
2, 98400, Note_on_c, 0, 65, 0
2, 98400, Note_on_c, 0, 62, 41
2, 98400, Note_on_c, 0, 68, 41
2, 98520, Note_on_c, 0, 68, 0
2, 98520, Note_on_c, 0, 62, 0
2, 98640, Note_on_c, 0, 63, 41
2, 98640, Note_on_c, 0, 67, 41
2, 98760, Note_on_c, 0, 67, 0
2, 98760, Note_on_c, 0, 63, 0
2, 99000, Note_on_c, 0, 67, 31
2, 99120, Note_on_c, 0, 67, 0
2, 99120, Note_on_c, 0, 60, 46
2, 99120, Note_on_c, 0, 66, 46
2, 99240, Note_on_c, 0, 66, 0
2, 99240, Note_on_c, 0, 60, 0
2, 99360, Note_on_c, 0, 58, 51
2, 99360, Note_on_c, 0, 67, 51
2, 99480, Note_on_c, 0, 67, 0
2, 99480, Note_on_c, 0, 58, 0
2, 99720, Note_on_c, 0, 66, 31
2, 99840, Note_on_c, 0, 66, 0
2, 99840, Note_on_c, 0, 62, 48
2, 99840, Note_on_c, 0, 69, 48
2, 99960, Note_on_c, 0, 69, 0
2, 99960, Note_on_c, 0, 62, 0
2, 100080, Note_on_c, 0, 67, 51
2, 100080, Note_on_c, 0, 70, 51
2, 100200, Note_on_c, 0, 70, 0
2, 100200, Note_on_c, 0, 67, 0
2, 100440, Note_on_c, 0, 69, 29
2, 100560, Note_on_c, 0, 69, 0
2, 100560, Note_on_c, 0, 67, 51
2, 100560, Note_on_c, 0, 72, 51
2, 100680, Note_on_c, 0, 72, 0
2, 100680, Note_on_c, 0, 67, 0
2, 100800, Note_on_c, 0, 70, 51
2, 100800, Note_on_c, 0, 74, 51
2, 100920, Note_on_c, 0, 74, 0
2, 100920, Note_on_c, 0, 70, 0
2, 101160, Note_on_c, 0, 75, 29
2, 101280, Note_on_c, 0, 75, 0
2, 101280, Note_on_c, 0, 72, 48
2, 101280, Note_on_c, 0, 79, 57
2, 101520, Note_on_c, 0, 79, 0
2, 101520, Note_on_c, 0, 72, 0
2, 101520, Note_on_c, 0, 70, 48
2, 101520, Note_on_c, 0, 74, 57
2, 101760, Note_on_c, 0, 74, 0
2, 101760, Note_on_c, 0, 70, 0
2, 101880, Note_on_c, 0, 67, 32
2, 102000, Note_on_c, 0, 67, 0
2, 102000, Note_on_c, 0, 62, 51
2, 102000, Note_on_c, 0, 70, 51
2, 102120, Note_on_c, 0, 70, 0
2, 102120, Note_on_c, 0, 62, 0
2, 102240, Note_on_c, 0, 69, 54
2, 102360, Note_on_c, 0, 69, 0
2, 102600, Note_on_c, 0, 69, 41
2, 102720, Note_on_c, 0, 69, 0
2, 102720, Note_on_c, 0, 63, 51
2, 102720, Note_on_c, 0, 72, 51
2, 102840, Note_on_c, 0, 72, 0
2, 102840, Note_on_c, 0, 63, 0
2, 102960, Note_on_c, 0, 70, 52
2, 103080, Note_on_c, 0, 70, 0
2, 103320, Note_on_c, 0, 66, 33
2, 103440, Note_on_c, 0, 66, 0
2, 103440, Note_on_c, 0, 60, 41
2, 103440, Note_on_c, 0, 69, 41
2, 103560, Note_on_c, 0, 69, 0
2, 103560, Note_on_c, 0, 60, 0
2, 103680, Note_on_c, 0, 58, 48
2, 103680, Note_on_c, 0, 67, 48
2, 103800, Note_on_c, 0, 67, 0
2, 103800, Note_on_c, 0, 58, 0
2, 104040, Note_on_c, 0, 58, 40
2, 104160, Note_on_c, 0, 58, 0
2, 104160, Note_on_c, 0, 62, 47
2, 104400, Note_on_c, 0, 62, 0
2, 104400, Note_on_c, 0, 55, 44
2, 104520, Note_on_c, 0, 55, 0
2, 104760, Note_on_c, 0, 58, 31
2, 104880, Note_on_c, 0, 58, 0
2, 104880, Note_on_c, 0, 55, 46
2, 104880, Note_on_c, 0, 62, 46
2, 105000, Note_on_c, 0, 62, 0
2, 105000, Note_on_c, 0, 55, 0
2, 105120, Note_on_c, 0, 54, 51
2, 105120, Note_on_c, 0, 62, 51
2, 105240, Note_on_c, 0, 62, 0
2, 105240, Note_on_c, 0, 54, 0
2, 105480, Note_on_c, 0, 58, 31
2, 105600, Note_on_c, 0, 58, 0
2, 105600, Note_on_c, 0, 55, 48
2, 105600, Note_on_c, 0, 64, 48
2, 105720, Note_on_c, 0, 64, 0
2, 105720, Note_on_c, 0, 55, 0
2, 105840, Note_on_c, 0, 57, 51
2, 105840, Note_on_c, 0, 66, 51
2, 105960, Note_on_c, 0, 66, 0
2, 105960, Note_on_c, 0, 57, 0
2, 106200, Note_on_c, 0, 62, 29
2, 106320, Note_on_c, 0, 62, 0
2, 106320, Note_on_c, 0, 58, 51
2, 106320, Note_on_c, 0, 67, 51
2, 106440, Note_on_c, 0, 67, 0
2, 106440, Note_on_c, 0, 58, 0
2, 106560, Note_on_c, 0, 60, 51
2, 106560, Note_on_c, 0, 69, 51
2, 106680, Note_on_c, 0, 69, 0
2, 106680, Note_on_c, 0, 60, 0
2, 106920, Note_on_c, 0, 65, 29
2, 107040, Note_on_c, 0, 65, 0
2, 107040, Note_on_c, 0, 62, 52
2, 107040, Note_on_c, 0, 71, 52
2, 107160, Note_on_c, 0, 71, 0
2, 107160, Note_on_c, 0, 62, 0
2, 107280, Note_on_c, 0, 63, 57
2, 107280, Note_on_c, 0, 72, 57
2, 107400, Note_on_c, 0, 72, 0
2, 107400, Note_on_c, 0, 63, 0
2, 107640, Note_on_c, 0, 68, 32
2, 107760, Note_on_c, 0, 68, 0
2, 107760, Note_on_c, 0, 65, 51
2, 107760, Note_on_c, 0, 74, 51
2, 107880, Note_on_c, 0, 74, 0
2, 107880, Note_on_c, 0, 65, 0
2, 108000, Note_on_c, 0, 63, 51
2, 108000, Note_on_c, 0, 72, 54
2, 108120, Note_on_c, 0, 72, 0
2, 108120, Note_on_c, 0, 63, 0
2, 108360, Note_on_c, 0, 67, 41
2, 108480, Note_on_c, 0, 67, 0
2, 108480, Note_on_c, 0, 62, 51
2, 108480, Note_on_c, 0, 71, 51
2, 108600, Note_on_c, 0, 71, 0
2, 108600, Note_on_c, 0, 62, 0
2, 108720, Note_on_c, 0, 63, 51
2, 108720, Note_on_c, 0, 72, 52
2, 108840, Note_on_c, 0, 72, 0
2, 108840, Note_on_c, 0, 63, 0
2, 109080, Note_on_c, 0, 68, 33
2, 109200, Note_on_c, 0, 68, 0
2, 109200, Note_on_c, 0, 65, 41
2, 109200, Note_on_c, 0, 74, 41
2, 109320, Note_on_c, 0, 74, 0
2, 109320, Note_on_c, 0, 65, 0
2, 109440, Note_on_c, 0, 63, 48
2, 109440, Note_on_c, 0, 72, 48
2, 109560, Note_on_c, 0, 72, 0
2, 109560, Note_on_c, 0, 63, 0
2, 109800, Note_on_c, 0, 67, 25
2, 109920, Note_on_c, 0, 67, 0
2, 109920, Note_on_c, 0, 62, 41
2, 109920, Note_on_c, 0, 71, 41
2, 110040, Note_on_c, 0, 71, 0
2, 110040, Note_on_c, 0, 62, 0
2, 110160, Note_on_c, 0, 63, 41
2, 110160, Note_on_c, 0, 72, 41
2, 110280, Note_on_c, 0, 72, 0
2, 110280, Note_on_c, 0, 63, 0
2, 110520, Note_on_c, 0, 62, 31
2, 110640, Note_on_c, 0, 62, 0
2, 110640, Note_on_c, 0, 58, 46
2, 110640, Note_on_c, 0, 65, 46
2, 110760, Note_on_c, 0, 65, 0
2, 110760, Note_on_c, 0, 58, 0
2, 110880, Note_on_c, 0, 57, 51
2, 110880, Note_on_c, 0, 65, 51
2, 111000, Note_on_c, 0, 65, 0
2, 111000, Note_on_c, 0, 57, 0
2, 111240, Note_on_c, 0, 63, 31
2, 111360, Note_on_c, 0, 63, 0
2, 111360, Note_on_c, 0, 58, 48
2, 111360, Note_on_c, 0, 67, 48
2, 111480, Note_on_c, 0, 67, 0
2, 111480, Note_on_c, 0, 58, 0
2, 111600, Note_on_c, 0, 60, 51
2, 111600, Note_on_c, 0, 69, 51
2, 111720, Note_on_c, 0, 69, 0
2, 111720, Note_on_c, 0, 60, 0
2, 111960, Note_on_c, 0, 65, 29
2, 112080, Note_on_c, 0, 65, 0
2, 112080, Note_on_c, 0, 62, 51
2, 112080, Note_on_c, 0, 70, 51
2, 112200, Note_on_c, 0, 70, 0
2, 112200, Note_on_c, 0, 62, 0
2, 112320, Note_on_c, 0, 63, 51
2, 112320, Note_on_c, 0, 72, 51
2, 112440, Note_on_c, 0, 72, 0
2, 112440, Note_on_c, 0, 63, 0
2, 112680, Note_on_c, 0, 68, 29
2, 112800, Note_on_c, 0, 68, 0
2, 112800, Note_on_c, 0, 65, 57
2, 112800, Note_on_c, 0, 74, 57
2, 112920, Note_on_c, 0, 74, 0
2, 112920, Note_on_c, 0, 65, 0
2, 113040, Note_on_c, 0, 67, 57
2, 113040, Note_on_c, 0, 75, 57
2, 113160, Note_on_c, 0, 75, 0
2, 113160, Note_on_c, 0, 67, 0
2, 113400, Note_on_c, 0, 71, 32
2, 113520, Note_on_c, 0, 71, 0
2, 113520, Note_on_c, 0, 68, 57
2, 113520, Note_on_c, 0, 77, 57
2, 113640, Note_on_c, 0, 77, 0
2, 113640, Note_on_c, 0, 68, 0
2, 113760, Note_on_c, 0, 72, 62
2, 113760, Note_on_c, 0, 67, 62
2, 113760, Note_on_c, 0, 75, 62
2, 113880, Note_on_c, 0, 75, 0
2, 113880, Note_on_c, 0, 67, 0
2, 113880, Note_on_c, 0, 72, 0
2, 114120, Note_on_c, 0, 68, 47
2, 114240, Note_on_c, 0, 68, 0
2, 114240, Note_on_c, 0, 65, 57
2, 114240, Note_on_c, 0, 74, 57
2, 114360, Note_on_c, 0, 74, 0
2, 114360, Note_on_c, 0, 65, 0
2, 114480, Note_on_c, 0, 69, 49
2, 114480, Note_on_c, 0, 63, 49
2, 114480, Note_on_c, 0, 72, 51
2, 114600, Note_on_c, 0, 72, 0
2, 114600, Note_on_c, 0, 63, 0
2, 114600, Note_on_c, 0, 69, 0
2, 114840, Note_on_c, 0, 67, 31
2, 114960, Note_on_c, 0, 67, 0
2, 114960, Note_on_c, 0, 64, 38
2, 114960, Note_on_c, 0, 70, 38
2, 115080, Note_on_c, 0, 70, 0
2, 115080, Note_on_c, 0, 64, 0
2, 115200, Note_on_c, 0, 66, 44
2, 115200, Note_on_c, 0, 69, 44
2, 115320, Note_on_c, 0, 69, 0
2, 115320, Note_on_c, 0, 66, 0
2, 115560, Note_on_c, 0, 64, 22
2, 115680, Note_on_c, 0, 64, 0
2, 115680, Note_on_c, 0, 61, 37
2, 115680, Note_on_c, 0, 67, 37
2, 115800, Note_on_c, 0, 67, 0
2, 115800, Note_on_c, 0, 61, 0
2, 115920, Note_on_c, 0, 62, 36
2, 115920, Note_on_c, 0, 66, 36
2, 116040, Note_on_c, 0, 66, 0
2, 116040, Note_on_c, 0, 62, 0
2, 116280, Note_on_c, 0, 62, 27
2, 116400, Note_on_c, 0, 62, 0
2, 116400, Note_on_c, 0, 60, 40
2, 116400, Note_on_c, 0, 66, 40
2, 116520, Note_on_c, 0, 66, 0
2, 116520, Note_on_c, 0, 60, 0
2, 116640, Note_on_c, 0, 58, 45
2, 116640, Note_on_c, 0, 67, 45
2, 116760, Note_on_c, 0, 67, 0
2, 116760, Note_on_c, 0, 58, 0
2, 117000, Note_on_c, 0, 66, 27
2, 117120, Note_on_c, 0, 66, 0
2, 117120, Note_on_c, 0, 62, 42
2, 117120, Note_on_c, 0, 69, 42
2, 117240, Note_on_c, 0, 69, 0
2, 117240, Note_on_c, 0, 62, 0
2, 117360, Note_on_c, 0, 67, 45
2, 117360, Note_on_c, 0, 70, 45
2, 117480, Note_on_c, 0, 70, 0
2, 117480, Note_on_c, 0, 67, 0
2, 117720, Note_on_c, 0, 69, 26
2, 117840, Note_on_c, 0, 69, 0
2, 117840, Note_on_c, 0, 67, 45
2, 117840, Note_on_c, 0, 72, 45
2, 117960, Note_on_c, 0, 72, 0
2, 117960, Note_on_c, 0, 67, 0
2, 118080, Note_on_c, 0, 70, 45
2, 118080, Note_on_c, 0, 74, 45
2, 118200, Note_on_c, 0, 74, 0
2, 118200, Note_on_c, 0, 70, 0
2, 118440, Note_on_c, 0, 75, 26
2, 118560, Note_on_c, 0, 75, 0
2, 118560, Note_on_c, 0, 72, 35
2, 118560, Note_on_c, 0, 79, 42
2, 118800, Note_on_c, 0, 79, 0
2, 118800, Note_on_c, 0, 72, 0
2, 118800, Note_on_c, 0, 70, 35
2, 118800, Note_on_c, 0, 74, 42
2, 119040, Note_on_c, 0, 74, 0
2, 119040, Note_on_c, 0, 70, 0
2, 119160, Note_on_c, 0, 67, 28
2, 119280, Note_on_c, 0, 67, 0
2, 119280, Note_on_c, 0, 62, 45
2, 119280, Note_on_c, 0, 70, 45
2, 119400, Note_on_c, 0, 70, 0
2, 119400, Note_on_c, 0, 62, 0
2, 119520, Note_on_c, 0, 69, 47
2, 119640, Note_on_c, 0, 69, 0
2, 119880, Note_on_c, 0, 69, 36
2, 120000, Note_on_c, 0, 69, 0
2, 120000, Note_on_c, 0, 63, 45
2, 120000, Note_on_c, 0, 72, 45
2, 120120, Note_on_c, 0, 72, 0
2, 120120, Note_on_c, 0, 63, 0
2, 120240, Note_on_c, 0, 70, 46
2, 120360, Note_on_c, 0, 70, 0
2, 120600, Note_on_c, 0, 66, 29
2, 120720, Note_on_c, 0, 66, 0
2, 120720, Note_on_c, 0, 60, 36
2, 120720, Note_on_c, 0, 69, 36
2, 120840, Note_on_c, 0, 69, 0
2, 120840, Note_on_c, 0, 60, 0
2, 120960, Note_on_c, 0, 58, 42
2, 120960, Note_on_c, 0, 67, 42
2, 121080, Note_on_c, 0, 67, 0
2, 121080, Note_on_c, 0, 58, 0
2, 121320, Note_on_c, 0, 60, 22
2, 121440, Note_on_c, 0, 60, 0
2, 121440, Note_on_c, 0, 57, 36
2, 121440, Note_on_c, 0, 63, 36
2, 121560, Note_on_c, 0, 63, 0
2, 121560, Note_on_c, 0, 57, 0
2, 121680, Note_on_c, 0, 58, 36
2, 121680, Note_on_c, 0, 62, 36
2, 121800, Note_on_c, 0, 62, 0
2, 121800, Note_on_c, 0, 58, 0
2, 122040, Note_on_c, 0, 62, 27
2, 122160, Note_on_c, 0, 62, 0
2, 122160, Note_on_c, 0, 60, 40
2, 122160, Note_on_c, 0, 66, 40
2, 122280, Note_on_c, 0, 66, 0
2, 122280, Note_on_c, 0, 60, 0
2, 122400, Note_on_c, 0, 58, 45
2, 122400, Note_on_c, 0, 67, 45
2, 122520, Note_on_c, 0, 67, 0
2, 122520, Note_on_c, 0, 58, 0
2, 122760, Note_on_c, 0, 66, 27
2, 122880, Note_on_c, 0, 66, 0
2, 122880, Note_on_c, 0, 62, 42
2, 122880, Note_on_c, 0, 69, 42
2, 123000, Note_on_c, 0, 69, 0
2, 123000, Note_on_c, 0, 62, 0
2, 123120, Note_on_c, 0, 67, 45
2, 123120, Note_on_c, 0, 70, 45
2, 123240, Note_on_c, 0, 70, 0
2, 123240, Note_on_c, 0, 67, 0
2, 123480, Note_on_c, 0, 69, 26
2, 123600, Note_on_c, 0, 69, 0
2, 123600, Note_on_c, 0, 67, 45
2, 123600, Note_on_c, 0, 72, 45
2, 123720, Note_on_c, 0, 72, 0
2, 123720, Note_on_c, 0, 67, 0
2, 123840, Note_on_c, 0, 70, 45
2, 123840, Note_on_c, 0, 74, 45
2, 123960, Note_on_c, 0, 74, 0
2, 123960, Note_on_c, 0, 70, 0
2, 124200, Note_on_c, 0, 75, 26
2, 124320, Note_on_c, 0, 75, 0
2, 124320, Note_on_c, 0, 72, 35
2, 124320, Note_on_c, 0, 79, 42
2, 124560, Note_on_c, 0, 79, 0
2, 124560, Note_on_c, 0, 72, 0
2, 124560, Note_on_c, 0, 70, 35
2, 124560, Note_on_c, 0, 74, 42
2, 124800, Note_on_c, 0, 74, 0
2, 124800, Note_on_c, 0, 70, 0
2, 124920, Note_on_c, 0, 67, 28
2, 125040, Note_on_c, 0, 67, 0
2, 125040, Note_on_c, 0, 62, 45
2, 125040, Note_on_c, 0, 70, 45
2, 125160, Note_on_c, 0, 70, 0
2, 125160, Note_on_c, 0, 62, 0
2, 125280, Note_on_c, 0, 69, 47
2, 125400, Note_on_c, 0, 69, 0
2, 125640, Note_on_c, 0, 69, 36
2, 125760, Note_on_c, 0, 69, 0
2, 125760, Note_on_c, 0, 63, 45
2, 125760, Note_on_c, 0, 72, 45
2, 125880, Note_on_c, 0, 72, 0
2, 125880, Note_on_c, 0, 63, 0
2, 126000, Note_on_c, 0, 70, 46
2, 126120, Note_on_c, 0, 70, 0
2, 126360, Note_on_c, 0, 66, 29
2, 126480, Note_on_c, 0, 66, 0
2, 126480, Note_on_c, 0, 60, 36
2, 126480, Note_on_c, 0, 69, 36
2, 126600, Note_on_c, 0, 69, 0
2, 126600, Note_on_c, 0, 60, 0
2, 126720, Note_on_c, 0, 58, 42
2, 126720, Note_on_c, 0, 67, 42
2, 126840, Note_on_c, 0, 67, 0
2, 126840, Note_on_c, 0, 58, 0
2, 127080, Note_on_c, 0, 58, 35
2, 127200, Note_on_c, 0, 58, 0
2, 127200, Note_on_c, 0, 62, 41
2, 127440, Note_on_c, 0, 62, 0
2, 127440, Note_on_c, 0, 55, 39
2, 127560, Note_on_c, 0, 55, 0
2, 127800, Note_on_c, 0, 45, 81
2, 127920, Note_on_c, 0, 45, 0
2, 127920, Note_on_c, 0, 45, 76
2, 128160, Note_on_c, 0, 45, 0
2, 128160, Note_on_c, 0, 45, 78
2, 128520, Note_on_c, 0, 53, 70
2, 128520, Note_on_c, 0, 50, 59
2, 128640, Note_on_c, 0, 50, 0
2, 128640, Note_on_c, 0, 53, 0
2, 128640, Note_on_c, 0, 50, 61
2, 128640, Note_on_c, 0, 53, 72
2, 128880, Note_on_c, 0, 53, 0
2, 128880, Note_on_c, 0, 50, 0
2, 128880, Note_on_c, 0, 50, 65
2, 128880, Note_on_c, 0, 53, 77
2, 129240, Note_on_c, 0, 53, 0
2, 129240, Note_on_c, 0, 50, 0
2, 129240, Note_on_c, 0, 45, 0
2, 129240, Note_on_c, 0, 57, 74
2, 129360, Note_on_c, 0, 57, 0
2, 129360, Note_on_c, 0, 57, 71
2, 129600, Note_on_c, 0, 57, 0
2, 129600, Note_on_c, 0, 57, 76
2, 129960, Note_on_c, 0, 69, 64
2, 129960, Note_on_c, 0, 65, 54
2, 130080, Note_on_c, 0, 65, 0
2, 130080, Note_on_c, 0, 69, 0
2, 130080, Note_on_c, 0, 65, 54
2, 130080, Note_on_c, 0, 69, 64
2, 130320, Note_on_c, 0, 69, 0
2, 130320, Note_on_c, 0, 65, 0
2, 130320, Note_on_c, 0, 65, 59
2, 130320, Note_on_c, 0, 69, 70
2, 130560, Note_on_c, 0, 69, 0
2, 130560, Note_on_c, 0, 65, 0
2, 130560, Note_on_c, 0, 57, 0
2, 130680, Note_on_c, 0, 45, 76
2, 130800, Note_on_c, 0, 45, 0
2, 130800, Note_on_c, 0, 45, 76
2, 131040, Note_on_c, 0, 45, 0
2, 131040, Note_on_c, 0, 45, 78
2, 131400, Note_on_c, 0, 55, 70
2, 131400, Note_on_c, 0, 52, 59
2, 131520, Note_on_c, 0, 52, 0
2, 131520, Note_on_c, 0, 55, 0
2, 131520, Note_on_c, 0, 52, 61
2, 131520, Note_on_c, 0, 55, 72
2, 131760, Note_on_c, 0, 55, 0
2, 131760, Note_on_c, 0, 52, 0
2, 131760, Note_on_c, 0, 52, 65
2, 131760, Note_on_c, 0, 55, 77
2, 132120, Note_on_c, 0, 55, 0
2, 132120, Note_on_c, 0, 52, 0
2, 132120, Note_on_c, 0, 45, 0
2, 132120, Note_on_c, 0, 57, 76
2, 132240, Note_on_c, 0, 57, 0
2, 132240, Note_on_c, 0, 57, 76
2, 132480, Note_on_c, 0, 57, 0
2, 132480, Note_on_c, 0, 57, 79
2, 132840, Note_on_c, 0, 69, 64
2, 132840, Note_on_c, 0, 67, 54
2, 132960, Note_on_c, 0, 67, 0
2, 132960, Note_on_c, 0, 69, 0
2, 132960, Note_on_c, 0, 67, 54
2, 132960, Note_on_c, 0, 69, 64
2, 133200, Note_on_c, 0, 69, 0
2, 133200, Note_on_c, 0, 67, 0
2, 133200, Note_on_c, 0, 67, 59
2, 133200, Note_on_c, 0, 69, 70
2, 133440, Note_on_c, 0, 69, 0
2, 133440, Note_on_c, 0, 67, 0
2, 133440, Note_on_c, 0, 57, 0
2, 133560, Note_on_c, 0, 45, 75
2, 133680, Note_on_c, 0, 45, 0
2, 133680, Note_on_c, 0, 45, 76
2, 133920, Note_on_c, 0, 45, 0
2, 133920, Note_on_c, 0, 45, 78
2, 134280, Note_on_c, 0, 53, 70
2, 134280, Note_on_c, 0, 50, 59
2, 134400, Note_on_c, 0, 50, 0
2, 134400, Note_on_c, 0, 53, 0
2, 134400, Note_on_c, 0, 50, 61
2, 134400, Note_on_c, 0, 53, 72
2, 134640, Note_on_c, 0, 53, 0
2, 134640, Note_on_c, 0, 50, 0
2, 134640, Note_on_c, 0, 50, 65
2, 134640, Note_on_c, 0, 53, 77
2, 134880, Note_on_c, 0, 53, 0
2, 134880, Note_on_c, 0, 50, 0
2, 134880, Note_on_c, 0, 45, 0
2, 135000, Note_on_c, 0, 57, 74
2, 135120, Note_on_c, 0, 57, 0
2, 135120, Note_on_c, 0, 57, 75
2, 135360, Note_on_c, 0, 57, 0
2, 135360, Note_on_c, 0, 57, 79
2, 135720, Note_on_c, 0, 69, 64
2, 135720, Note_on_c, 0, 65, 54
2, 135840, Note_on_c, 0, 65, 0
2, 135840, Note_on_c, 0, 69, 0
2, 135840, Note_on_c, 0, 65, 54
2, 135840, Note_on_c, 0, 69, 64
2, 136080, Note_on_c, 0, 69, 0
2, 136080, Note_on_c, 0, 65, 0
2, 136080, Note_on_c, 0, 65, 59
2, 136080, Note_on_c, 0, 69, 70
2, 136320, Note_on_c, 0, 69, 0
2, 136320, Note_on_c, 0, 65, 0
2, 136320, Note_on_c, 0, 57, 0
2, 136440, Note_on_c, 0, 53, 72
2, 136560, Note_on_c, 0, 53, 0
2, 136560, Note_on_c, 0, 53, 72
2, 136800, Note_on_c, 0, 53, 0
2, 136800, Note_on_c, 0, 53, 78
2, 137160, Note_on_c, 0, 62, 70
2, 137160, Note_on_c, 0, 59, 59
2, 137280, Note_on_c, 0, 59, 0
2, 137280, Note_on_c, 0, 62, 0
2, 137280, Note_on_c, 0, 59, 61
2, 137280, Note_on_c, 0, 62, 72
2, 137520, Note_on_c, 0, 62, 0
2, 137520, Note_on_c, 0, 59, 0
2, 137520, Note_on_c, 0, 59, 65
2, 137520, Note_on_c, 0, 62, 77
2, 137760, Note_on_c, 0, 62, 0
2, 137760, Note_on_c, 0, 59, 0
2, 137760, Note_on_c, 0, 53, 0
2, 137880, Note_on_c, 0, 60, 65
2, 137880, Note_on_c, 0, 67, 77
2, 137940, Note_on_c, 0, 67, 0
2, 137940, Note_on_c, 0, 60, 0
2, 138000, Note_on_c, 0, 60, 66
2, 138000, Note_on_c, 0, 67, 78
2, 138120, Note_on_c, 0, 67, 0
2, 138120, Note_on_c, 0, 60, 0
2, 138240, Note_on_c, 0, 67, 77
2, 138240, Note_on_c, 0, 60, 65
2, 138480, Note_on_c, 0, 60, 0
2, 138480, Note_on_c, 0, 67, 0
2, 138600, Note_on_c, 0, 72, 77
2, 138600, Note_on_c, 0, 60, 64
2, 138720, Note_on_c, 0, 60, 0
2, 138720, Note_on_c, 0, 72, 0
2, 138720, Note_on_c, 0, 60, 64
2, 138720, Note_on_c, 0, 72, 77
2, 138960, Note_on_c, 0, 72, 0
2, 138960, Note_on_c, 0, 60, 0
2, 138960, Note_on_c, 0, 60, 70
2, 138960, Note_on_c, 0, 72, 84
2, 139200, Note_on_c, 0, 72, 0
2, 139200, Note_on_c, 0, 60, 0
2, 139320, Note_on_c, 0, 48, 73
2, 139440, Note_on_c, 0, 48, 0
2, 139440, Note_on_c, 0, 48, 68
2, 139680, Note_on_c, 0, 48, 0
2, 139680, Note_on_c, 0, 48, 82
2, 140040, Note_on_c, 0, 57, 70
2, 140040, Note_on_c, 0, 53, 59
2, 140400, Note_on_c, 0, 53, 0
2, 140400, Note_on_c, 0, 57, 0
2, 140400, Note_on_c, 0, 48, 0
2, 140400, Note_on_c, 0, 50, 82
2, 140760, Note_on_c, 0, 57, 70
2, 140760, Note_on_c, 0, 53, 59
2, 141120, Note_on_c, 0, 53, 0
2, 141120, Note_on_c, 0, 57, 0
2, 141120, Note_on_c, 0, 50, 0
2, 141120, Note_on_c, 0, 48, 78
2, 141480, Note_on_c, 0, 60, 70
2, 141480, Note_on_c, 0, 57, 59
2, 141840, Note_on_c, 0, 57, 0
2, 141840, Note_on_c, 0, 60, 0
2, 141840, Note_on_c, 0, 48, 0
2, 142200, Note_on_c, 0, 60, 77
2, 142320, Note_on_c, 0, 60, 0
2, 142320, Note_on_c, 0, 72, 71
2, 142560, Note_on_c, 0, 72, 0
2, 142560, Note_on_c, 0, 48, 82
2, 142920, Note_on_c, 0, 55, 70
2, 142920, Note_on_c, 0, 52, 59
2, 143280, Note_on_c, 0, 52, 0
2, 143280, Note_on_c, 0, 55, 0
2, 143280, Note_on_c, 0, 48, 0
2, 143280, Note_on_c, 0, 50, 82
2, 143640, Note_on_c, 0, 55, 70
2, 143640, Note_on_c, 0, 52, 59
2, 144000, Note_on_c, 0, 52, 0
2, 144000, Note_on_c, 0, 55, 0
2, 144000, Note_on_c, 0, 50, 0
2, 144000, Note_on_c, 0, 48, 78
2, 144360, Note_on_c, 0, 60, 70
2, 144360, Note_on_c, 0, 55, 59
2, 144720, Note_on_c, 0, 55, 0
2, 144720, Note_on_c, 0, 60, 0
2, 144720, Note_on_c, 0, 48, 0
2, 145080, Note_on_c, 0, 60, 77
2, 145200, Note_on_c, 0, 60, 0
2, 145200, Note_on_c, 0, 72, 71
2, 145440, Note_on_c, 0, 72, 0
2, 145440, Note_on_c, 0, 48, 82
2, 145800, Note_on_c, 0, 57, 70
2, 145800, Note_on_c, 0, 53, 59
2, 146160, Note_on_c, 0, 53, 0
2, 146160, Note_on_c, 0, 57, 0
2, 146160, Note_on_c, 0, 48, 0
2, 146160, Note_on_c, 0, 50, 82
2, 146520, Note_on_c, 0, 53, 59
2, 146520, Note_on_c, 0, 57, 70
2, 146880, Note_on_c, 0, 57, 0
2, 146880, Note_on_c, 0, 53, 0
2, 146880, Note_on_c, 0, 50, 0
2, 146880, Note_on_c, 0, 51, 78
2, 147240, Note_on_c, 0, 60, 70
2, 147240, Note_on_c, 0, 54, 59
2, 147600, Note_on_c, 0, 54, 0
2, 147600, Note_on_c, 0, 60, 0
2, 147600, Note_on_c, 0, 51, 0
2, 147960, Note_on_c, 0, 60, 77
2, 148080, Note_on_c, 0, 60, 0
2, 148080, Note_on_c, 0, 72, 71
2, 148320, Note_on_c, 0, 72, 0
2, 148320, Note_on_c, 0, 53, 78
2, 148680, Note_on_c, 0, 62, 70
2, 148680, Note_on_c, 0, 59, 59
2, 148800, Note_on_c, 0, 59, 0
2, 148800, Note_on_c, 0, 62, 0
2, 149040, Note_on_c, 0, 53, 0
2, 149400, Note_on_c, 0, 65, 77
2, 149520, Note_on_c, 0, 65, 0
2, 149520, Note_on_c, 0, 79, 69
2, 149520, Note_on_c, 0, 74, 61
2, 149760, Note_on_c, 0, 74, 0
2, 149760, Note_on_c, 0, 79, 0
2, 149760, Note_on_c, 0, 52, 78
2, 150120, Note_on_c, 0, 60, 70
2, 150120, Note_on_c, 0, 55, 59
2, 150240, Note_on_c, 0, 55, 0
2, 150240, Note_on_c, 0, 60, 0
2, 150480, Note_on_c, 0, 52, 0
2, 150480, Note_on_c, 0, 72, 83
2, 150720, Note_on_c, 0, 72, 0
2, 150840, Note_on_c, 0, 48, 73
2, 150960, Note_on_c, 0, 48, 0
2, 150960, Note_on_c, 0, 48, 68
2, 151200, Note_on_c, 0, 48, 0
2, 151200, Note_on_c, 0, 48, 82
2, 151560, Note_on_c, 0, 57, 70
2, 151560, Note_on_c, 0, 53, 59
2, 151920, Note_on_c, 0, 53, 0
2, 151920, Note_on_c, 0, 57, 0
2, 151920, Note_on_c, 0, 48, 0
2, 151920, Note_on_c, 0, 50, 82
2, 152280, Note_on_c, 0, 57, 70
2, 152280, Note_on_c, 0, 53, 59
2, 152640, Note_on_c, 0, 53, 0
2, 152640, Note_on_c, 0, 57, 0
2, 152640, Note_on_c, 0, 50, 0
2, 152640, Note_on_c, 0, 48, 78
2, 153000, Note_on_c, 0, 60, 70
2, 153000, Note_on_c, 0, 57, 59
2, 153360, Note_on_c, 0, 57, 0
2, 153360, Note_on_c, 0, 60, 0
2, 153360, Note_on_c, 0, 48, 0
2, 153720, Note_on_c, 0, 60, 77
2, 153840, Note_on_c, 0, 60, 0
2, 153840, Note_on_c, 0, 72, 71
2, 154080, Note_on_c, 0, 72, 0
2, 154080, Note_on_c, 0, 48, 82
2, 154440, Note_on_c, 0, 55, 70
2, 154440, Note_on_c, 0, 52, 59
2, 154800, Note_on_c, 0, 52, 0
2, 154800, Note_on_c, 0, 55, 0
2, 154800, Note_on_c, 0, 48, 0
2, 154800, Note_on_c, 0, 50, 82
2, 155160, Note_on_c, 0, 55, 70
2, 155160, Note_on_c, 0, 52, 59
2, 155520, Note_on_c, 0, 52, 0
2, 155520, Note_on_c, 0, 55, 0
2, 155520, Note_on_c, 0, 50, 0
2, 155520, Note_on_c, 0, 48, 78
2, 155880, Note_on_c, 0, 60, 70
2, 155880, Note_on_c, 0, 55, 59
2, 156240, Note_on_c, 0, 55, 0
2, 156240, Note_on_c, 0, 60, 0
2, 156240, Note_on_c, 0, 48, 0
2, 156600, Note_on_c, 0, 60, 77
2, 156720, Note_on_c, 0, 60, 0
2, 156720, Note_on_c, 0, 72, 71
2, 156960, Note_on_c, 0, 72, 0
2, 156960, Note_on_c, 0, 48, 82
2, 157320, Note_on_c, 0, 57, 70
2, 157320, Note_on_c, 0, 53, 59
2, 157680, Note_on_c, 0, 53, 0
2, 157680, Note_on_c, 0, 57, 0
2, 157680, Note_on_c, 0, 48, 0
2, 157680, Note_on_c, 0, 50, 82
2, 158040, Note_on_c, 0, 53, 59
2, 158040, Note_on_c, 0, 57, 70
2, 158400, Note_on_c, 0, 57, 0
2, 158400, Note_on_c, 0, 53, 0
2, 158400, Note_on_c, 0, 50, 0
2, 158400, Note_on_c, 0, 51, 78
2, 158760, Note_on_c, 0, 60, 70
2, 158760, Note_on_c, 0, 54, 59
2, 159120, Note_on_c, 0, 54, 0
2, 159120, Note_on_c, 0, 60, 0
2, 159120, Note_on_c, 0, 51, 0
2, 159480, Note_on_c, 0, 60, 77
2, 159600, Note_on_c, 0, 60, 0
2, 159600, Note_on_c, 0, 72, 71
2, 159840, Note_on_c, 0, 72, 0
2, 159846, Note_on_c, 0, 53, 78
2, 160200, Note_on_c, 0, 62, 70
2, 160200, Note_on_c, 0, 59, 59
2, 160320, Note_on_c, 0, 59, 0
2, 160320, Note_on_c, 0, 62, 0
2, 160566, Note_on_c, 0, 53, 0
2, 160920, Note_on_c, 0, 65, 77
2, 161040, Note_on_c, 0, 65, 0
2, 161040, Note_on_c, 0, 79, 69
2, 161040, Note_on_c, 0, 74, 61
2, 161280, Note_on_c, 0, 74, 0
2, 161280, Note_on_c, 0, 79, 0
2, 161280, Note_on_c, 0, 52, 78
2, 161640, Note_on_c, 0, 60, 70
2, 161640, Note_on_c, 0, 55, 59
2, 161760, Note_on_c, 0, 55, 0
2, 161760, Note_on_c, 0, 60, 0
2, 162000, Note_on_c, 0, 52, 0
2, 162000, Note_on_c, 0, 72, 83
2, 162240, Note_on_c, 0, 72, 0
2, 162360, Note_on_c, 0, 48, 81
2, 162480, Note_on_c, 0, 48, 0
2, 162480, Note_on_c, 0, 48, 76
2, 162720, Note_on_c, 0, 48, 0
2, 162720, Note_on_c, 0, 48, 78
2, 163080, Note_on_c, 0, 57, 70
2, 163080, Note_on_c, 0, 54, 59
2, 163200, Note_on_c, 0, 54, 0
2, 163200, Note_on_c, 0, 57, 0
2, 163200, Note_on_c, 0, 54, 61
2, 163200, Note_on_c, 0, 57, 72
2, 163440, Note_on_c, 0, 57, 0
2, 163440, Note_on_c, 0, 54, 0
2, 163440, Note_on_c, 0, 54, 65
2, 163440, Note_on_c, 0, 57, 77
2, 163800, Note_on_c, 0, 57, 0
2, 163800, Note_on_c, 0, 54, 0
2, 163800, Note_on_c, 0, 48, 0
2, 163800, Note_on_c, 0, 60, 74
2, 163920, Note_on_c, 0, 60, 0
2, 163920, Note_on_c, 0, 60, 71
2, 164160, Note_on_c, 0, 60, 0
2, 164160, Note_on_c, 0, 60, 76
2, 164520, Note_on_c, 0, 69, 64
2, 164520, Note_on_c, 0, 66, 54
2, 164640, Note_on_c, 0, 66, 0
2, 164640, Note_on_c, 0, 69, 0
2, 164640, Note_on_c, 0, 66, 54
2, 164640, Note_on_c, 0, 69, 64
2, 164880, Note_on_c, 0, 69, 0
2, 164880, Note_on_c, 0, 66, 0
2, 164880, Note_on_c, 0, 66, 59
2, 164880, Note_on_c, 0, 69, 70
2, 165120, Note_on_c, 0, 69, 0
2, 165120, Note_on_c, 0, 66, 0
2, 165120, Note_on_c, 0, 60, 0
2, 165240, Note_on_c, 0, 50, 76
2, 165360, Note_on_c, 0, 50, 0
2, 165360, Note_on_c, 0, 50, 76
2, 165600, Note_on_c, 0, 50, 0
2, 165600, Note_on_c, 0, 50, 78
2, 165960, Note_on_c, 0, 58, 70
2, 165960, Note_on_c, 0, 55, 59
2, 166080, Note_on_c, 0, 55, 0
2, 166080, Note_on_c, 0, 58, 0
2, 166080, Note_on_c, 0, 55, 61
2, 166080, Note_on_c, 0, 58, 72
2, 166320, Note_on_c, 0, 58, 0
2, 166320, Note_on_c, 0, 55, 0
2, 166320, Note_on_c, 0, 55, 65
2, 166320, Note_on_c, 0, 58, 77
2, 166680, Note_on_c, 0, 58, 0
2, 166680, Note_on_c, 0, 55, 0
2, 166680, Note_on_c, 0, 50, 0
2, 166680, Note_on_c, 0, 62, 76
2, 166800, Note_on_c, 0, 62, 0
2, 166800, Note_on_c, 0, 62, 76
2, 167040, Note_on_c, 0, 62, 0
2, 167040, Note_on_c, 0, 62, 79
2, 167400, Note_on_c, 0, 70, 64
2, 167400, Note_on_c, 0, 67, 54
2, 167520, Note_on_c, 0, 67, 0
2, 167520, Note_on_c, 0, 70, 0
2, 167520, Note_on_c, 0, 67, 54
2, 167520, Note_on_c, 0, 70, 64
2, 167760, Note_on_c, 0, 70, 0
2, 167760, Note_on_c, 0, 67, 0
2, 167760, Note_on_c, 0, 67, 59
2, 167760, Note_on_c, 0, 70, 70
2, 168000, Note_on_c, 0, 70, 0
2, 168000, Note_on_c, 0, 67, 0
2, 168000, Note_on_c, 0, 62, 0
2, 168120, Note_on_c, 0, 52, 75
2, 168240, Note_on_c, 0, 52, 0
2, 168240, Note_on_c, 0, 52, 76
2, 168480, Note_on_c, 0, 52, 0
2, 168480, Note_on_c, 0, 52, 78
2, 168840, Note_on_c, 0, 62, 70
2, 168840, Note_on_c, 0, 59, 59
2, 168960, Note_on_c, 0, 59, 0
2, 168960, Note_on_c, 0, 62, 0
2, 168960, Note_on_c, 0, 59, 61
2, 168960, Note_on_c, 0, 62, 72
2, 169200, Note_on_c, 0, 62, 0
2, 169200, Note_on_c, 0, 59, 0
2, 169200, Note_on_c, 0, 59, 65
2, 169200, Note_on_c, 0, 62, 77
2, 169440, Note_on_c, 0, 62, 0
2, 169440, Note_on_c, 0, 59, 0
2, 169440, Note_on_c, 0, 52, 0
2, 169560, Note_on_c, 0, 62, 74
2, 169680, Note_on_c, 0, 62, 0
2, 169680, Note_on_c, 0, 62, 75
2, 169920, Note_on_c, 0, 62, 0
2, 169920, Note_on_c, 0, 62, 79
2, 170280, Note_on_c, 0, 71, 64
2, 170280, Note_on_c, 0, 68, 54
2, 170400, Note_on_c, 0, 68, 0
2, 170400, Note_on_c, 0, 71, 0
2, 170400, Note_on_c, 0, 68, 54
2, 170400, Note_on_c, 0, 71, 64
2, 170640, Note_on_c, 0, 71, 0
2, 170640, Note_on_c, 0, 68, 0
2, 170640, Note_on_c, 0, 68, 59
2, 170640, Note_on_c, 0, 71, 70
2, 170880, Note_on_c, 0, 71, 0
2, 170880, Note_on_c, 0, 68, 0
2, 170880, Note_on_c, 0, 62, 0
2, 171000, Note_on_c, 0, 52, 72
2, 171120, Note_on_c, 0, 52, 0
2, 171120, Note_on_c, 0, 52, 72
2, 171360, Note_on_c, 0, 52, 0
2, 171360, Note_on_c, 0, 52, 78
2, 171720, Note_on_c, 0, 60, 70
2, 171720, Note_on_c, 0, 57, 59
2, 171840, Note_on_c, 0, 57, 0
2, 171840, Note_on_c, 0, 60, 0
2, 171840, Note_on_c, 0, 57, 61
2, 171840, Note_on_c, 0, 60, 72
2, 172080, Note_on_c, 0, 60, 0
2, 172080, Note_on_c, 0, 57, 0
2, 172080, Note_on_c, 0, 57, 65
2, 172080, Note_on_c, 0, 60, 77
2, 172320, Note_on_c, 0, 60, 0
2, 172320, Note_on_c, 0, 57, 0
2, 172320, Note_on_c, 0, 52, 0
2, 172440, Note_on_c, 0, 60, 77
2, 172560, Note_on_c, 0, 60, 0
2, 172560, Note_on_c, 0, 60, 78
2, 172800, Note_on_c, 0, 60, 0
2, 172800, Note_on_c, 0, 60, 77
2, 173160, Note_on_c, 0, 72, 69
2, 173160, Note_on_c, 0, 69, 57
2, 173280, Note_on_c, 0, 69, 0
2, 173280, Note_on_c, 0, 72, 0
2, 173280, Note_on_c, 0, 69, 57
2, 173280, Note_on_c, 0, 72, 69
2, 173520, Note_on_c, 0, 72, 0
2, 173520, Note_on_c, 0, 69, 0
2, 173520, Note_on_c, 0, 69, 63
2, 173520, Note_on_c, 0, 72, 75
2, 173760, Note_on_c, 0, 72, 0
2, 173760, Note_on_c, 0, 69, 0
2, 173760, Note_on_c, 0, 60, 0
2, 173880, Note_on_c, 0, 57, 63
2, 174000, Note_on_c, 0, 57, 0
2, 174000, Note_on_c, 0, 57, 64
2, 174240, Note_on_c, 0, 57, 0
2, 174240, Note_on_c, 0, 57, 66
2, 174600, Note_on_c, 0, 65, 54
2, 174600, Note_on_c, 0, 62, 45
2, 174660, Note_on_c, 0, 62, 0
2, 174660, Note_on_c, 0, 65, 0
2, 174720, Note_on_c, 0, 62, 45
2, 174720, Note_on_c, 0, 65, 54
2, 174840, Note_on_c, 0, 65, 0
2, 174840, Note_on_c, 0, 62, 0
2, 174960, Note_on_c, 0, 57, 0
2, 174960, Note_on_c, 0, 62, 52
2, 174960, Note_on_c, 0, 65, 62
2, 175080, Note_on_c, 0, 65, 0
2, 175080, Note_on_c, 0, 62, 0
2, 175320, Note_on_c, 0, 57, 55
2, 175380, Note_on_c, 0, 57, 0
2, 175440, Note_on_c, 0, 57, 55
2, 175560, Note_on_c, 0, 57, 0
2, 175680, Note_on_c, 0, 57, 63
2, 176040, Note_on_c, 0, 65, 54
2, 176040, Note_on_c, 0, 62, 38
2, 176100, Note_on_c, 0, 62, 0
2, 176100, Note_on_c, 0, 65, 0
2, 176160, Note_on_c, 0, 62, 38
2, 176160, Note_on_c, 0, 65, 54
2, 176280, Note_on_c, 0, 65, 0
2, 176280, Note_on_c, 0, 62, 0
2, 176400, Note_on_c, 0, 57, 0
2, 176400, Note_on_c, 0, 62, 42
2, 176400, Note_on_c, 0, 65, 59
2, 176520, Note_on_c, 0, 65, 0
2, 176520, Note_on_c, 0, 62, 0
2, 176760, Note_on_c, 0, 65, 63
2, 176820, Note_on_c, 0, 65, 0
2, 176880, Note_on_c, 0, 65, 64
2, 177000, Note_on_c, 0, 65, 0
2, 177120, Note_on_c, 0, 65, 66
2, 177480, Note_on_c, 0, 74, 54
2, 177480, Note_on_c, 0, 71, 45
2, 177540, Note_on_c, 0, 71, 0
2, 177540, Note_on_c, 0, 74, 0
2, 177600, Note_on_c, 0, 71, 45
2, 177600, Note_on_c, 0, 74, 54
2, 177720, Note_on_c, 0, 74, 0
2, 177720, Note_on_c, 0, 71, 0
2, 177840, Note_on_c, 0, 65, 0
2, 177840, Note_on_c, 0, 71, 52
2, 177840, Note_on_c, 0, 74, 62
2, 177960, Note_on_c, 0, 74, 0
2, 177960, Note_on_c, 0, 71, 0
2, 178200, Note_on_c, 0, 65, 55
2, 178260, Note_on_c, 0, 65, 0
2, 178320, Note_on_c, 0, 65, 55
2, 178440, Note_on_c, 0, 65, 0
2, 178560, Note_on_c, 0, 65, 63
2, 178920, Note_on_c, 0, 74, 54
2, 178920, Note_on_c, 0, 71, 38
2, 178980, Note_on_c, 0, 71, 0
2, 178980, Note_on_c, 0, 74, 0
2, 179040, Note_on_c, 0, 71, 38
2, 179040, Note_on_c, 0, 74, 54
2, 179160, Note_on_c, 0, 74, 0
2, 179160, Note_on_c, 0, 71, 0
2, 179280, Note_on_c, 0, 65, 0
2, 179280, Note_on_c, 0, 71, 42
2, 179280, Note_on_c, 0, 74, 59
2, 179400, Note_on_c, 0, 74, 0
2, 179400, Note_on_c, 0, 71, 0
2, 179640, Note_on_c, 0, 56, 63
2, 179700, Note_on_c, 0, 56, 0
2, 179760, Note_on_c, 0, 56, 64
2, 179880, Note_on_c, 0, 56, 0
2, 180000, Note_on_c, 0, 56, 66
2, 180360, Note_on_c, 0, 64, 54
2, 180360, Note_on_c, 0, 62, 45
2, 180420, Note_on_c, 0, 62, 0
2, 180420, Note_on_c, 0, 64, 0
2, 180480, Note_on_c, 0, 62, 45
2, 180480, Note_on_c, 0, 64, 54
2, 180600, Note_on_c, 0, 64, 0
2, 180600, Note_on_c, 0, 62, 0
2, 180720, Note_on_c, 0, 56, 0
2, 180720, Note_on_c, 0, 62, 52
2, 180720, Note_on_c, 0, 64, 62
2, 180840, Note_on_c, 0, 64, 0
2, 180840, Note_on_c, 0, 62, 0
2, 181080, Note_on_c, 0, 56, 55
2, 181140, Note_on_c, 0, 56, 0
2, 181200, Note_on_c, 0, 56, 55
2, 181320, Note_on_c, 0, 56, 0
2, 181440, Note_on_c, 0, 56, 63
2, 181800, Note_on_c, 0, 64, 54
2, 181800, Note_on_c, 0, 62, 38
2, 181860, Note_on_c, 0, 62, 0
2, 181860, Note_on_c, 0, 64, 0
2, 181920, Note_on_c, 0, 62, 38
2, 181920, Note_on_c, 0, 64, 54
2, 182040, Note_on_c, 0, 64, 0
2, 182040, Note_on_c, 0, 62, 0
2, 182160, Note_on_c, 0, 56, 0
2, 182160, Note_on_c, 0, 62, 42
2, 182160, Note_on_c, 0, 64, 59
2, 182280, Note_on_c, 0, 64, 0
2, 182280, Note_on_c, 0, 62, 0
2, 182520, Note_on_c, 0, 62, 63
2, 182580, Note_on_c, 0, 62, 0
2, 182640, Note_on_c, 0, 62, 64
2, 182760, Note_on_c, 0, 62, 0
2, 182880, Note_on_c, 0, 62, 66
2, 183240, Note_on_c, 0, 71, 54
2, 183240, Note_on_c, 0, 68, 45
2, 183300, Note_on_c, 0, 68, 0
2, 183300, Note_on_c, 0, 71, 0
2, 183360, Note_on_c, 0, 68, 45
2, 183360, Note_on_c, 0, 71, 54
2, 183480, Note_on_c, 0, 71, 0
2, 183480, Note_on_c, 0, 68, 0
2, 183600, Note_on_c, 0, 62, 0
2, 183600, Note_on_c, 0, 68, 52
2, 183600, Note_on_c, 0, 71, 62
2, 183720, Note_on_c, 0, 71, 0
2, 183720, Note_on_c, 0, 68, 0
2, 183960, Note_on_c, 0, 62, 52
2, 184020, Note_on_c, 0, 62, 0
2, 184080, Note_on_c, 0, 62, 51
2, 184200, Note_on_c, 0, 62, 0
2, 184320, Note_on_c, 0, 62, 55
2, 184680, Note_on_c, 0, 71, 43
2, 184680, Note_on_c, 0, 68, 30
2, 184740, Note_on_c, 0, 68, 0
2, 184740, Note_on_c, 0, 71, 0
2, 184800, Note_on_c, 0, 68, 29
2, 184800, Note_on_c, 0, 71, 42
2, 184920, Note_on_c, 0, 71, 0
2, 184920, Note_on_c, 0, 68, 0
2, 185040, Note_on_c, 0, 62, 0
2, 185040, Note_on_c, 0, 68, 30
2, 185040, Note_on_c, 0, 71, 43
2, 185160, Note_on_c, 0, 71, 0
2, 185160, Note_on_c, 0, 68, 0
2, 185400, Note_on_c, 0, 52, 64
2, 185520, Note_on_c, 0, 52, 0
2, 185520, Note_on_c, 0, 52, 60
2, 185760, Note_on_c, 0, 52, 0
2, 185760, Note_on_c, 0, 52, 62
2, 186120, Note_on_c, 0, 60, 56
2, 186120, Note_on_c, 0, 57, 47
2, 186240, Note_on_c, 0, 57, 0
2, 186240, Note_on_c, 0, 60, 0
2, 186240, Note_on_c, 0, 57, 48
2, 186240, Note_on_c, 0, 60, 57
2, 186480, Note_on_c, 0, 60, 0
2, 186480, Note_on_c, 0, 57, 0
2, 186480, Note_on_c, 0, 57, 52
2, 186480, Note_on_c, 0, 60, 61
2, 186840, Note_on_c, 0, 60, 0
2, 186840, Note_on_c, 0, 57, 0
2, 186840, Note_on_c, 0, 52, 0
2, 186840, Note_on_c, 0, 60, 49
2, 186960, Note_on_c, 0, 60, 0
2, 186960, Note_on_c, 0, 60, 48
2, 187200, Note_on_c, 0, 60, 0
2, 187200, Note_on_c, 0, 60, 51
2, 187560, Note_on_c, 0, 72, 51
2, 187560, Note_on_c, 0, 69, 43
2, 187680, Note_on_c, 0, 69, 0
2, 187680, Note_on_c, 0, 72, 0
2, 187680, Note_on_c, 0, 69, 43
2, 187680, Note_on_c, 0, 72, 51
2, 187920, Note_on_c, 0, 72, 0
2, 187920, Note_on_c, 0, 69, 0
2, 187920, Note_on_c, 0, 69, 47
2, 187920, Note_on_c, 0, 72, 56
2, 188160, Note_on_c, 0, 72, 0
2, 188160, Note_on_c, 0, 69, 0
2, 188160, Note_on_c, 0, 60, 0
2, 188280, Note_on_c, 0, 52, 72
2, 188400, Note_on_c, 0, 52, 0
2, 188400, Note_on_c, 0, 52, 72
2, 188640, Note_on_c, 0, 52, 0
2, 188640, Note_on_c, 0, 52, 74
2, 189000, Note_on_c, 0, 62, 66
2, 189000, Note_on_c, 0, 59, 56
2, 189120, Note_on_c, 0, 59, 0
2, 189120, Note_on_c, 0, 62, 0
2, 189120, Note_on_c, 0, 59, 57
2, 189120, Note_on_c, 0, 62, 68
2, 189360, Note_on_c, 0, 62, 0
2, 189360, Note_on_c, 0, 59, 0
2, 189360, Note_on_c, 0, 59, 61
2, 189360, Note_on_c, 0, 62, 73
2, 189720, Note_on_c, 0, 62, 0
2, 189720, Note_on_c, 0, 59, 0
2, 189720, Note_on_c, 0, 52, 0
2, 189720, Note_on_c, 0, 62, 60
2, 189840, Note_on_c, 0, 62, 0
2, 189840, Note_on_c, 0, 62, 60
2, 190080, Note_on_c, 0, 62, 0
2, 190080, Note_on_c, 0, 62, 63
2, 190440, Note_on_c, 0, 74, 60
2, 190440, Note_on_c, 0, 71, 51
2, 190560, Note_on_c, 0, 71, 0
2, 190560, Note_on_c, 0, 74, 0
2, 190560, Note_on_c, 0, 71, 51
2, 190560, Note_on_c, 0, 74, 60
2, 190800, Note_on_c, 0, 74, 0
2, 190800, Note_on_c, 0, 71, 0
2, 190800, Note_on_c, 0, 71, 56
2, 190800, Note_on_c, 0, 74, 66
2, 191040, Note_on_c, 0, 74, 0
2, 191040, Note_on_c, 0, 71, 0
2, 191040, Note_on_c, 0, 62, 0
2, 191160, Note_on_c, 0, 52, 75
2, 191280, Note_on_c, 0, 52, 0
2, 191280, Note_on_c, 0, 52, 76
2, 191520, Note_on_c, 0, 52, 0
2, 191520, Note_on_c, 0, 52, 78
2, 191880, Note_on_c, 0, 60, 70
2, 191880, Note_on_c, 0, 57, 59
2, 192000, Note_on_c, 0, 57, 0
2, 192000, Note_on_c, 0, 60, 0
2, 192000, Note_on_c, 0, 57, 61
2, 192000, Note_on_c, 0, 60, 72
2, 192240, Note_on_c, 0, 60, 0
2, 192240, Note_on_c, 0, 57, 0
2, 192240, Note_on_c, 0, 57, 65
2, 192240, Note_on_c, 0, 60, 77
2, 192480, Note_on_c, 0, 60, 0
2, 192480, Note_on_c, 0, 57, 0
2, 192480, Note_on_c, 0, 52, 0
2, 192600, Note_on_c, 0, 64, 74
2, 192720, Note_on_c, 0, 64, 0
2, 192720, Note_on_c, 0, 64, 75
2, 192960, Note_on_c, 0, 64, 0
2, 192960, Note_on_c, 0, 64, 79
2, 193320, Note_on_c, 0, 76, 64
2, 193320, Note_on_c, 0, 72, 54
2, 193440, Note_on_c, 0, 72, 0
2, 193440, Note_on_c, 0, 76, 0
2, 193440, Note_on_c, 0, 72, 54
2, 193440, Note_on_c, 0, 76, 64
2, 193680, Note_on_c, 0, 76, 0
2, 193680, Note_on_c, 0, 72, 0
2, 193680, Note_on_c, 0, 72, 59
2, 193680, Note_on_c, 0, 76, 70
2, 193920, Note_on_c, 0, 76, 0
2, 193920, Note_on_c, 0, 72, 0
2, 193920, Note_on_c, 0, 64, 0
2, 194040, Note_on_c, 0, 60, 72
2, 194160, Note_on_c, 0, 60, 0
2, 194160, Note_on_c, 0, 60, 72
2, 194400, Note_on_c, 0, 60, 0
2, 194400, Note_on_c, 0, 60, 78
2, 194760, Note_on_c, 0, 69, 70
2, 194760, Note_on_c, 0, 66, 59
2, 194880, Note_on_c, 0, 66, 0
2, 194880, Note_on_c, 0, 69, 0
2, 194880, Note_on_c, 0, 66, 61
2, 194880, Note_on_c, 0, 69, 72
2, 195120, Note_on_c, 0, 69, 0
2, 195120, Note_on_c, 0, 66, 0
2, 195120, Note_on_c, 0, 66, 65
2, 195120, Note_on_c, 0, 69, 77
2, 195360, Note_on_c, 0, 69, 0
2, 195360, Note_on_c, 0, 66, 0
2, 195360, Note_on_c, 0, 60, 0
2, 195480, Note_on_c, 0, 67, 65
2, 195480, Note_on_c, 0, 74, 77
2, 195540, Note_on_c, 0, 74, 0
2, 195540, Note_on_c, 0, 67, 0
2, 195600, Note_on_c, 0, 67, 66
2, 195600, Note_on_c, 0, 74, 78
2, 195720, Note_on_c, 0, 74, 0
2, 195720, Note_on_c, 0, 67, 0
2, 195840, Note_on_c, 0, 74, 77
2, 195840, Note_on_c, 0, 67, 65
2, 196080, Note_on_c, 0, 67, 0
2, 196080, Note_on_c, 0, 74, 0
2, 196200, Note_on_c, 0, 79, 77
2, 196200, Note_on_c, 0, 67, 64
2, 196320, Note_on_c, 0, 67, 0
2, 196320, Note_on_c, 0, 79, 0
2, 196320, Note_on_c, 0, 67, 64
2, 196320, Note_on_c, 0, 79, 77
2, 196560, Note_on_c, 0, 79, 0
2, 196560, Note_on_c, 0, 67, 0
2, 196560, Note_on_c, 0, 67, 70
2, 196560, Note_on_c, 0, 79, 84
2, 196680, Note_on_c, 0, 79, 0
2, 196680, Note_on_c, 0, 67, 0
2, 196920, Note_on_c, 0, 67, 45
2, 197040, Note_on_c, 0, 67, 0
2, 197040, Note_on_c, 0, 65, 45
2, 197040, Note_on_c, 0, 71, 45
2, 197160, Note_on_c, 0, 71, 0
2, 197160, Note_on_c, 0, 65, 0
2, 197280, Note_on_c, 0, 63, 50
2, 197280, Note_on_c, 0, 72, 50
2, 197400, Note_on_c, 0, 72, 0
2, 197400, Note_on_c, 0, 63, 0
2, 197640, Note_on_c, 0, 71, 31
2, 197760, Note_on_c, 0, 71, 0
2, 197760, Note_on_c, 0, 67, 47
2, 197760, Note_on_c, 0, 74, 47
2, 197880, Note_on_c, 0, 74, 0
2, 197880, Note_on_c, 0, 67, 0
2, 198000, Note_on_c, 0, 72, 50
2, 198000, Note_on_c, 0, 75, 50
2, 198120, Note_on_c, 0, 75, 0
2, 198120, Note_on_c, 0, 72, 0
2, 198360, Note_on_c, 0, 74, 29
2, 198480, Note_on_c, 0, 74, 0
2, 198480, Note_on_c, 0, 72, 50
2, 198480, Note_on_c, 0, 77, 50
2, 198600, Note_on_c, 0, 77, 0
2, 198600, Note_on_c, 0, 72, 0
2, 198720, Note_on_c, 0, 75, 50
2, 198720, Note_on_c, 0, 79, 50
2, 198840, Note_on_c, 0, 79, 0
2, 198840, Note_on_c, 0, 75, 0
2, 199080, Note_on_c, 0, 80, 29
2, 199200, Note_on_c, 0, 80, 0
2, 199200, Note_on_c, 0, 77, 39
2, 199200, Note_on_c, 0, 84, 47
2, 199440, Note_on_c, 0, 84, 0
2, 199440, Note_on_c, 0, 77, 0
2, 199440, Note_on_c, 0, 75, 39
2, 199440, Note_on_c, 0, 79, 47
2, 199680, Note_on_c, 0, 79, 0
2, 199680, Note_on_c, 0, 75, 0
2, 199800, Note_on_c, 0, 72, 32
2, 199920, Note_on_c, 0, 72, 0
2, 199920, Note_on_c, 0, 67, 50
2, 199920, Note_on_c, 0, 75, 50
2, 200040, Note_on_c, 0, 75, 0
2, 200040, Note_on_c, 0, 67, 0
2, 200160, Note_on_c, 0, 74, 53
2, 200280, Note_on_c, 0, 74, 0
2, 200520, Note_on_c, 0, 74, 40
2, 200640, Note_on_c, 0, 74, 0
2, 200640, Note_on_c, 0, 68, 50
2, 200640, Note_on_c, 0, 77, 50
2, 200760, Note_on_c, 0, 77, 0
2, 200760, Note_on_c, 0, 68, 0
2, 200880, Note_on_c, 0, 75, 52
2, 201000, Note_on_c, 0, 75, 0
2, 201240, Note_on_c, 0, 71, 33
2, 201360, Note_on_c, 0, 71, 0
2, 201360, Note_on_c, 0, 65, 41
2, 201360, Note_on_c, 0, 74, 41
2, 201480, Note_on_c, 0, 74, 0
2, 201480, Note_on_c, 0, 65, 0
2, 201600, Note_on_c, 0, 63, 47
2, 201600, Note_on_c, 0, 72, 47
2, 201720, Note_on_c, 0, 72, 0
2, 201720, Note_on_c, 0, 63, 0
2, 201960, Note_on_c, 0, 65, 25
2, 202080, Note_on_c, 0, 65, 0
2, 202080, Note_on_c, 0, 62, 41
2, 202080, Note_on_c, 0, 68, 41
2, 202200, Note_on_c, 0, 68, 0
2, 202200, Note_on_c, 0, 62, 0
2, 202320, Note_on_c, 0, 63, 40
2, 202320, Note_on_c, 0, 67, 40
2, 202440, Note_on_c, 0, 67, 0
2, 202440, Note_on_c, 0, 63, 0
2, 202680, Note_on_c, 0, 62, 30
2, 202800, Note_on_c, 0, 62, 0
2, 202800, Note_on_c, 0, 60, 45
2, 202800, Note_on_c, 0, 66, 45
2, 202920, Note_on_c, 0, 66, 0
2, 202920, Note_on_c, 0, 60, 0
2, 203040, Note_on_c, 0, 58, 50
2, 203040, Note_on_c, 0, 67, 50
2, 203160, Note_on_c, 0, 67, 0
2, 203160, Note_on_c, 0, 58, 0
2, 203400, Note_on_c, 0, 66, 31
2, 203520, Note_on_c, 0, 66, 0
2, 203520, Note_on_c, 0, 62, 47
2, 203520, Note_on_c, 0, 69, 47
2, 203640, Note_on_c, 0, 69, 0
2, 203640, Note_on_c, 0, 62, 0
2, 203760, Note_on_c, 0, 67, 50
2, 203760, Note_on_c, 0, 70, 50
2, 203880, Note_on_c, 0, 70, 0
2, 203880, Note_on_c, 0, 67, 0
2, 204120, Note_on_c, 0, 69, 29
2, 204240, Note_on_c, 0, 69, 0
2, 204240, Note_on_c, 0, 67, 50
2, 204240, Note_on_c, 0, 72, 50
2, 204360, Note_on_c, 0, 72, 0
2, 204360, Note_on_c, 0, 67, 0
2, 204480, Note_on_c, 0, 70, 50
2, 204480, Note_on_c, 0, 74, 50
2, 204600, Note_on_c, 0, 74, 0
2, 204600, Note_on_c, 0, 70, 0
2, 204840, Note_on_c, 0, 75, 29
2, 204960, Note_on_c, 0, 75, 0
2, 204960, Note_on_c, 0, 72, 39
2, 204960, Note_on_c, 0, 79, 47
2, 205200, Note_on_c, 0, 79, 0
2, 205200, Note_on_c, 0, 72, 0
2, 205200, Note_on_c, 0, 70, 39
2, 205200, Note_on_c, 0, 74, 47
2, 205440, Note_on_c, 0, 74, 0
2, 205440, Note_on_c, 0, 70, 0
2, 205560, Note_on_c, 0, 67, 32
2, 205680, Note_on_c, 0, 67, 0
2, 205680, Note_on_c, 0, 62, 50
2, 205680, Note_on_c, 0, 70, 50
2, 205800, Note_on_c, 0, 70, 0
2, 205800, Note_on_c, 0, 62, 0
2, 205920, Note_on_c, 0, 69, 53
2, 206040, Note_on_c, 0, 69, 0
2, 206280, Note_on_c, 0, 69, 40
2, 206400, Note_on_c, 0, 69, 0
2, 206400, Note_on_c, 0, 63, 50
2, 206400, Note_on_c, 0, 72, 50
2, 206520, Note_on_c, 0, 72, 0
2, 206520, Note_on_c, 0, 63, 0
2, 206640, Note_on_c, 0, 70, 52
2, 206760, Note_on_c, 0, 70, 0
2, 207000, Note_on_c, 0, 66, 33
2, 207120, Note_on_c, 0, 66, 0
2, 207120, Note_on_c, 0, 60, 41
2, 207120, Note_on_c, 0, 69, 41
2, 207240, Note_on_c, 0, 69, 0
2, 207240, Note_on_c, 0, 60, 0
2, 207360, Note_on_c, 0, 58, 47
2, 207360, Note_on_c, 0, 67, 47
2, 207480, Note_on_c, 0, 67, 0
2, 207480, Note_on_c, 0, 58, 0
2, 207720, Note_on_c, 0, 60, 25
2, 207840, Note_on_c, 0, 60, 0
2, 207840, Note_on_c, 0, 57, 41
2, 207840, Note_on_c, 0, 63, 41
2, 207960, Note_on_c, 0, 63, 0
2, 207960, Note_on_c, 0, 57, 0
2, 208080, Note_on_c, 0, 58, 40
2, 208080, Note_on_c, 0, 62, 40
2, 208200, Note_on_c, 0, 62, 0
2, 208200, Note_on_c, 0, 58, 0
2, 208440, Note_on_c, 0, 62, 30
2, 208560, Note_on_c, 0, 62, 0
2, 208560, Note_on_c, 0, 60, 45
2, 208560, Note_on_c, 0, 66, 45
2, 208680, Note_on_c, 0, 66, 0
2, 208680, Note_on_c, 0, 60, 0
2, 208800, Note_on_c, 0, 58, 50
2, 208800, Note_on_c, 0, 67, 50
2, 208920, Note_on_c, 0, 67, 0
2, 208920, Note_on_c, 0, 58, 0
2, 209160, Note_on_c, 0, 66, 31
2, 209280, Note_on_c, 0, 66, 0
2, 209280, Note_on_c, 0, 62, 47
2, 209280, Note_on_c, 0, 69, 47
2, 209400, Note_on_c, 0, 69, 0
2, 209400, Note_on_c, 0, 62, 0
2, 209520, Note_on_c, 0, 67, 50
2, 209520, Note_on_c, 0, 70, 50
2, 209640, Note_on_c, 0, 70, 0
2, 209640, Note_on_c, 0, 67, 0
2, 209880, Note_on_c, 0, 69, 29
2, 210000, Note_on_c, 0, 69, 0
2, 210000, Note_on_c, 0, 67, 50
2, 210000, Note_on_c, 0, 72, 50
2, 210120, Note_on_c, 0, 72, 0
2, 210120, Note_on_c, 0, 67, 0
2, 210240, Note_on_c, 0, 70, 50
2, 210240, Note_on_c, 0, 74, 50
2, 210360, Note_on_c, 0, 74, 0
2, 210360, Note_on_c, 0, 70, 0
2, 210600, Note_on_c, 0, 75, 29
2, 210720, Note_on_c, 0, 75, 0
2, 210720, Note_on_c, 0, 72, 47
2, 210720, Note_on_c, 0, 79, 56
2, 210960, Note_on_c, 0, 79, 0
2, 210960, Note_on_c, 0, 72, 0
2, 210960, Note_on_c, 0, 70, 47
2, 210960, Note_on_c, 0, 74, 56
2, 211200, Note_on_c, 0, 74, 0
2, 211200, Note_on_c, 0, 70, 0
2, 211320, Note_on_c, 0, 67, 32
2, 211440, Note_on_c, 0, 67, 0
2, 211440, Note_on_c, 0, 62, 50
2, 211440, Note_on_c, 0, 70, 50
2, 211560, Note_on_c, 0, 70, 0
2, 211560, Note_on_c, 0, 62, 0
2, 211680, Note_on_c, 0, 69, 53
2, 211800, Note_on_c, 0, 69, 0
2, 212040, Note_on_c, 0, 69, 40
2, 212160, Note_on_c, 0, 69, 0
2, 212160, Note_on_c, 0, 63, 50
2, 212160, Note_on_c, 0, 72, 50
2, 212280, Note_on_c, 0, 72, 0
2, 212280, Note_on_c, 0, 63, 0
2, 212400, Note_on_c, 0, 70, 52
2, 212520, Note_on_c, 0, 70, 0
2, 212760, Note_on_c, 0, 66, 33
2, 212880, Note_on_c, 0, 66, 0
2, 212880, Note_on_c, 0, 60, 41
2, 212880, Note_on_c, 0, 69, 41
2, 213000, Note_on_c, 0, 69, 0
2, 213000, Note_on_c, 0, 60, 0
2, 213120, Note_on_c, 0, 58, 47
2, 213120, Note_on_c, 0, 67, 47
2, 213240, Note_on_c, 0, 67, 0
2, 213240, Note_on_c, 0, 58, 0
2, 213480, Note_on_c, 0, 58, 39
2, 213600, Note_on_c, 0, 58, 0
2, 213600, Note_on_c, 0, 62, 46
2, 213840, Note_on_c, 0, 62, 0
2, 213840, Note_on_c, 0, 55, 44
2, 213960, Note_on_c, 0, 55, 0
2, 214200, Note_on_c, 0, 58, 30
2, 214320, Note_on_c, 0, 58, 0
2, 214320, Note_on_c, 0, 55, 45
2, 214320, Note_on_c, 0, 62, 45
2, 214440, Note_on_c, 0, 62, 0
2, 214440, Note_on_c, 0, 55, 0
2, 214560, Note_on_c, 0, 54, 50
2, 214560, Note_on_c, 0, 62, 50
2, 214680, Note_on_c, 0, 62, 0
2, 214680, Note_on_c, 0, 54, 0
2, 214920, Note_on_c, 0, 58, 31
2, 215040, Note_on_c, 0, 58, 0
2, 215040, Note_on_c, 0, 55, 47
2, 215040, Note_on_c, 0, 64, 47
2, 215160, Note_on_c, 0, 64, 0
2, 215160, Note_on_c, 0, 55, 0
2, 215280, Note_on_c, 0, 57, 50
2, 215280, Note_on_c, 0, 66, 50
2, 215400, Note_on_c, 0, 66, 0
2, 215400, Note_on_c, 0, 57, 0
2, 215640, Note_on_c, 0, 62, 29
2, 215760, Note_on_c, 0, 62, 0
2, 215760, Note_on_c, 0, 58, 50
2, 215760, Note_on_c, 0, 67, 50
2, 215880, Note_on_c, 0, 67, 0
2, 215880, Note_on_c, 0, 58, 0
2, 216000, Note_on_c, 0, 60, 50
2, 216000, Note_on_c, 0, 69, 50
2, 216120, Note_on_c, 0, 69, 0
2, 216120, Note_on_c, 0, 60, 0
2, 216360, Note_on_c, 0, 65, 29
2, 216480, Note_on_c, 0, 65, 0
2, 216480, Note_on_c, 0, 62, 52
2, 216480, Note_on_c, 0, 71, 52
2, 216600, Note_on_c, 0, 71, 0
2, 216600, Note_on_c, 0, 62, 0
2, 216720, Note_on_c, 0, 63, 56
2, 216720, Note_on_c, 0, 72, 56
2, 216840, Note_on_c, 0, 72, 0
2, 216840, Note_on_c, 0, 63, 0
2, 217080, Note_on_c, 0, 68, 32
2, 217200, Note_on_c, 0, 68, 0
2, 217200, Note_on_c, 0, 65, 50
2, 217200, Note_on_c, 0, 74, 50
2, 217320, Note_on_c, 0, 74, 0
2, 217320, Note_on_c, 0, 65, 0
2, 217440, Note_on_c, 0, 63, 50
2, 217440, Note_on_c, 0, 72, 53
2, 217560, Note_on_c, 0, 72, 0
2, 217560, Note_on_c, 0, 63, 0
2, 217800, Note_on_c, 0, 67, 40
2, 217920, Note_on_c, 0, 67, 0
2, 217920, Note_on_c, 0, 62, 50
2, 217920, Note_on_c, 0, 71, 50
2, 218040, Note_on_c, 0, 71, 0
2, 218040, Note_on_c, 0, 62, 0
2, 218160, Note_on_c, 0, 63, 50
2, 218160, Note_on_c, 0, 72, 52
2, 218280, Note_on_c, 0, 72, 0
2, 218280, Note_on_c, 0, 63, 0
2, 218520, Note_on_c, 0, 68, 33
2, 218640, Note_on_c, 0, 68, 0
2, 218640, Note_on_c, 0, 65, 41
2, 218640, Note_on_c, 0, 74, 41
2, 218760, Note_on_c, 0, 74, 0
2, 218760, Note_on_c, 0, 65, 0
2, 218880, Note_on_c, 0, 63, 47
2, 218880, Note_on_c, 0, 72, 47
2, 219000, Note_on_c, 0, 72, 0
2, 219000, Note_on_c, 0, 63, 0
2, 219240, Note_on_c, 0, 67, 25
2, 219360, Note_on_c, 0, 67, 0
2, 219360, Note_on_c, 0, 62, 41
2, 219360, Note_on_c, 0, 71, 41
2, 219480, Note_on_c, 0, 71, 0
2, 219480, Note_on_c, 0, 62, 0
2, 219600, Note_on_c, 0, 63, 40
2, 219600, Note_on_c, 0, 72, 40
2, 219720, Note_on_c, 0, 72, 0
2, 219720, Note_on_c, 0, 63, 0
2, 219960, Note_on_c, 0, 62, 30
2, 220080, Note_on_c, 0, 62, 0
2, 220080, Note_on_c, 0, 58, 45
2, 220080, Note_on_c, 0, 65, 45
2, 220200, Note_on_c, 0, 65, 0
2, 220200, Note_on_c, 0, 58, 0
2, 220320, Note_on_c, 0, 57, 50
2, 220320, Note_on_c, 0, 65, 50
2, 220440, Note_on_c, 0, 65, 0
2, 220440, Note_on_c, 0, 57, 0
2, 220680, Note_on_c, 0, 63, 31
2, 220800, Note_on_c, 0, 63, 0
2, 220800, Note_on_c, 0, 58, 47
2, 220800, Note_on_c, 0, 67, 47
2, 220920, Note_on_c, 0, 67, 0
2, 220920, Note_on_c, 0, 58, 0
2, 221040, Note_on_c, 0, 60, 50
2, 221040, Note_on_c, 0, 69, 50
2, 221160, Note_on_c, 0, 69, 0
2, 221160, Note_on_c, 0, 60, 0
2, 221400, Note_on_c, 0, 65, 29
2, 221520, Note_on_c, 0, 65, 0
2, 221520, Note_on_c, 0, 62, 50
2, 221520, Note_on_c, 0, 70, 50
2, 221640, Note_on_c, 0, 70, 0
2, 221640, Note_on_c, 0, 62, 0
2, 221760, Note_on_c, 0, 63, 50
2, 221760, Note_on_c, 0, 72, 50
2, 221880, Note_on_c, 0, 72, 0
2, 221880, Note_on_c, 0, 63, 0
2, 222120, Note_on_c, 0, 68, 29
2, 222240, Note_on_c, 0, 68, 0
2, 222240, Note_on_c, 0, 65, 56
2, 222240, Note_on_c, 0, 74, 56
2, 222360, Note_on_c, 0, 74, 0
2, 222360, Note_on_c, 0, 65, 0
2, 222480, Note_on_c, 0, 67, 56
2, 222480, Note_on_c, 0, 75, 56
2, 222600, Note_on_c, 0, 75, 0
2, 222600, Note_on_c, 0, 67, 0
2, 222840, Note_on_c, 0, 71, 32
2, 222960, Note_on_c, 0, 71, 0
2, 222960, Note_on_c, 0, 68, 56
2, 222960, Note_on_c, 0, 77, 56
2, 223080, Note_on_c, 0, 77, 0
2, 223080, Note_on_c, 0, 68, 0
2, 223200, Note_on_c, 0, 72, 61
2, 223200, Note_on_c, 0, 67, 61
2, 223200, Note_on_c, 0, 75, 61
2, 223320, Note_on_c, 0, 75, 0
2, 223320, Note_on_c, 0, 67, 0
2, 223320, Note_on_c, 0, 72, 0
2, 223560, Note_on_c, 0, 68, 47
2, 223680, Note_on_c, 0, 68, 0
2, 223680, Note_on_c, 0, 65, 57
2, 223680, Note_on_c, 0, 74, 57
2, 223800, Note_on_c, 0, 74, 0
2, 223800, Note_on_c, 0, 65, 0
2, 223920, Note_on_c, 0, 69, 50
2, 223920, Note_on_c, 0, 63, 50
2, 223920, Note_on_c, 0, 72, 52
2, 224040, Note_on_c, 0, 72, 0
2, 224040, Note_on_c, 0, 63, 0
2, 224040, Note_on_c, 0, 69, 0
2, 224280, Note_on_c, 0, 67, 33
2, 224400, Note_on_c, 0, 67, 0
2, 224400, Note_on_c, 0, 64, 41
2, 224400, Note_on_c, 0, 70, 41
2, 224520, Note_on_c, 0, 70, 0
2, 224520, Note_on_c, 0, 64, 0
2, 224640, Note_on_c, 0, 66, 46
2, 224640, Note_on_c, 0, 69, 46
2, 224760, Note_on_c, 0, 69, 0
2, 224760, Note_on_c, 0, 66, 0
2, 225000, Note_on_c, 0, 64, 24
2, 225120, Note_on_c, 0, 64, 0
2, 225120, Note_on_c, 0, 61, 39
2, 225120, Note_on_c, 0, 67, 39
2, 225240, Note_on_c, 0, 67, 0
2, 225240, Note_on_c, 0, 61, 0
2, 225360, Note_on_c, 0, 62, 37
2, 225360, Note_on_c, 0, 66, 37
2, 225480, Note_on_c, 0, 66, 0
2, 225480, Note_on_c, 0, 62, 0
2, 225720, Note_on_c, 0, 62, 27
2, 225840, Note_on_c, 0, 62, 0
2, 225840, Note_on_c, 0, 60, 40
2, 225840, Note_on_c, 0, 66, 40
2, 225960, Note_on_c, 0, 66, 0
2, 225960, Note_on_c, 0, 60, 0
2, 226080, Note_on_c, 0, 58, 45
2, 226080, Note_on_c, 0, 67, 45
2, 226200, Note_on_c, 0, 67, 0
2, 226200, Note_on_c, 0, 58, 0
2, 226440, Note_on_c, 0, 66, 27
2, 226560, Note_on_c, 0, 66, 0
2, 226560, Note_on_c, 0, 62, 42
2, 226560, Note_on_c, 0, 69, 42
2, 226680, Note_on_c, 0, 69, 0
2, 226680, Note_on_c, 0, 62, 0
2, 226800, Note_on_c, 0, 67, 45
2, 226800, Note_on_c, 0, 70, 45
2, 226920, Note_on_c, 0, 70, 0
2, 226920, Note_on_c, 0, 67, 0
2, 227160, Note_on_c, 0, 69, 26
2, 227280, Note_on_c, 0, 69, 0
2, 227280, Note_on_c, 0, 67, 45
2, 227280, Note_on_c, 0, 72, 45
2, 227400, Note_on_c, 0, 72, 0
2, 227400, Note_on_c, 0, 67, 0
2, 227520, Note_on_c, 0, 70, 45
2, 227520, Note_on_c, 0, 74, 45
2, 227640, Note_on_c, 0, 74, 0
2, 227640, Note_on_c, 0, 70, 0
2, 227880, Note_on_c, 0, 75, 26
2, 228000, Note_on_c, 0, 75, 0
2, 228000, Note_on_c, 0, 72, 33
2, 228000, Note_on_c, 0, 79, 40
2, 228240, Note_on_c, 0, 79, 0
2, 228240, Note_on_c, 0, 72, 0
2, 228240, Note_on_c, 0, 70, 33
2, 228240, Note_on_c, 0, 74, 40
2, 228480, Note_on_c, 0, 74, 0
2, 228480, Note_on_c, 0, 70, 0
2, 228600, Note_on_c, 0, 67, 28
2, 228720, Note_on_c, 0, 67, 0
2, 228720, Note_on_c, 0, 62, 45
2, 228720, Note_on_c, 0, 70, 45
2, 228840, Note_on_c, 0, 70, 0
2, 228840, Note_on_c, 0, 62, 0
2, 228960, Note_on_c, 0, 69, 47
2, 229080, Note_on_c, 0, 69, 0
2, 229320, Note_on_c, 0, 69, 36
2, 229440, Note_on_c, 0, 69, 0
2, 229440, Note_on_c, 0, 63, 45
2, 229440, Note_on_c, 0, 72, 45
2, 229560, Note_on_c, 0, 72, 0
2, 229560, Note_on_c, 0, 63, 0
2, 229680, Note_on_c, 0, 70, 46
2, 229800, Note_on_c, 0, 70, 0
2, 230040, Note_on_c, 0, 66, 29
2, 230160, Note_on_c, 0, 66, 0
2, 230160, Note_on_c, 0, 60, 36
2, 230160, Note_on_c, 0, 69, 36
2, 230280, Note_on_c, 0, 69, 0
2, 230280, Note_on_c, 0, 60, 0
2, 230400, Note_on_c, 0, 58, 42
2, 230400, Note_on_c, 0, 67, 42
2, 230520, Note_on_c, 0, 67, 0
2, 230520, Note_on_c, 0, 58, 0
2, 230760, Note_on_c, 0, 60, 22
2, 230880, Note_on_c, 0, 60, 0
2, 230880, Note_on_c, 0, 57, 36
2, 230880, Note_on_c, 0, 63, 36
2, 231000, Note_on_c, 0, 63, 0
2, 231000, Note_on_c, 0, 57, 0
2, 231120, Note_on_c, 0, 58, 36
2, 231120, Note_on_c, 0, 62, 36
2, 231240, Note_on_c, 0, 62, 0
2, 231240, Note_on_c, 0, 58, 0
2, 231480, Note_on_c, 0, 62, 27
2, 231600, Note_on_c, 0, 62, 0
2, 231600, Note_on_c, 0, 60, 40
2, 231600, Note_on_c, 0, 66, 40
2, 231720, Note_on_c, 0, 66, 0
2, 231720, Note_on_c, 0, 60, 0
2, 231840, Note_on_c, 0, 58, 45
2, 231840, Note_on_c, 0, 67, 45
2, 231960, Note_on_c, 0, 67, 0
2, 231960, Note_on_c, 0, 58, 0
2, 232200, Note_on_c, 0, 66, 27
2, 232320, Note_on_c, 0, 66, 0
2, 232320, Note_on_c, 0, 62, 42
2, 232320, Note_on_c, 0, 69, 42
2, 232440, Note_on_c, 0, 69, 0
2, 232440, Note_on_c, 0, 62, 0
2, 232560, Note_on_c, 0, 67, 45
2, 232560, Note_on_c, 0, 70, 45
2, 232680, Note_on_c, 0, 70, 0
2, 232680, Note_on_c, 0, 67, 0
2, 232920, Note_on_c, 0, 69, 26
2, 233040, Note_on_c, 0, 69, 0
2, 233040, Note_on_c, 0, 67, 45
2, 233040, Note_on_c, 0, 72, 45
2, 233160, Note_on_c, 0, 72, 0
2, 233160, Note_on_c, 0, 67, 0
2, 233280, Note_on_c, 0, 70, 45
2, 233280, Note_on_c, 0, 74, 45
2, 233400, Note_on_c, 0, 74, 0
2, 233400, Note_on_c, 0, 70, 0
2, 233640, Note_on_c, 0, 75, 25
2, 233760, Note_on_c, 0, 75, 0
2, 233760, Note_on_c, 0, 72, 31
2, 233760, Note_on_c, 0, 79, 39
2, 234000, Note_on_c, 0, 79, 0
2, 234000, Note_on_c, 0, 72, 0
2, 234000, Note_on_c, 0, 70, 30
2, 234000, Note_on_c, 0, 74, 38
2, 234240, Note_on_c, 0, 74, 0
2, 234240, Note_on_c, 0, 70, 0
2, 234360, Note_on_c, 0, 67, 27
2, 234480, Note_on_c, 0, 67, 0
2, 234480, Note_on_c, 0, 62, 43
2, 234480, Note_on_c, 0, 70, 43
2, 234600, Note_on_c, 0, 70, 0
2, 234600, Note_on_c, 0, 62, 0
2, 234720, Note_on_c, 0, 69, 45
2, 234840, Note_on_c, 0, 69, 0
2, 235080, Note_on_c, 0, 69, 33
2, 235200, Note_on_c, 0, 69, 0
2, 235200, Note_on_c, 0, 63, 42
2, 235200, Note_on_c, 0, 72, 42
2, 235320, Note_on_c, 0, 72, 0
2, 235320, Note_on_c, 0, 63, 0
2, 235440, Note_on_c, 0, 62, 40
2, 235440, Note_on_c, 0, 70, 43
2, 235560, Note_on_c, 0, 70, 0
2, 235560, Note_on_c, 0, 62, 0
2, 235800, Note_on_c, 0, 66, 27
2, 235920, Note_on_c, 0, 66, 0
2, 235920, Note_on_c, 0, 60, 33
2, 235920, Note_on_c, 0, 69, 33
2, 236040, Note_on_c, 0, 69, 0
2, 236040, Note_on_c, 0, 60, 0
2, 236160, Note_on_c, 0, 58, 34
2, 236160, Note_on_c, 0, 67, 40
2, 236280, Note_on_c, 0, 67, 0
2, 236280, Note_on_c, 0, 58, 0
2, 236520, Note_on_c, 0, 60, 27
2, 236640, Note_on_c, 0, 60, 0
2, 236640, Note_on_c, 0, 57, 33
2, 236640, Note_on_c, 0, 63, 39
2, 236760, Note_on_c, 0, 63, 0
2, 236760, Note_on_c, 0, 57, 0
2, 236880, Note_on_c, 0, 58, 32
2, 236880, Note_on_c, 0, 62, 38
2, 237000, Note_on_c, 0, 62, 0
2, 237000, Note_on_c, 0, 58, 0
2, 237240, Note_on_c, 0, 57, 27
2, 237360, Note_on_c, 0, 57, 0
2, 237360, Note_on_c, 0, 54, 27
2, 237360, Note_on_c, 0, 60, 33
2, 237480, Note_on_c, 0, 60, 0
2, 237480, Note_on_c, 0, 54, 0
2, 237480, End_track
3, 0, Start_track
3, 0, Title_t, "Piano left"
3, 0, Program_c, 0, 0
3, 0, Control_c, 0, 91, 127
3, 1440, Note_on_c, 0, 31, 41
3, 1440, Note_on_c, 0, 43, 41
3, 4080, Note_on_c, 0, 31, 0
3, 4080, Note_on_c, 0, 31, 33
3, 4320, Note_on_c, 0, 31, 0
3, 4320, Note_on_c, 0, 36, 42
3, 4800, Note_on_c, 0, 36, 0
3, 4800, Note_on_c, 0, 33, 36
3, 5040, Note_on_c, 0, 33, 0
3, 5040, Note_on_c, 0, 43, 0
3, 5040, Note_on_c, 0, 38, 43
3, 5520, Note_on_c, 0, 26, 35
3, 5760, Note_on_c, 0, 26, 0
3, 5760, Note_on_c, 0, 31, 43
3, 8400, Note_on_c, 0, 31, 0
3, 8400, Note_on_c, 0, 31, 33
3, 9840, Note_on_c, 0, 31, 0
3, 9840, Note_on_c, 0, 31, 33
3, 10080, Note_on_c, 0, 31, 0
3, 10080, Note_on_c, 0, 38, 0
3, 10080, Note_on_c, 0, 36, 42
3, 10560, Note_on_c, 0, 36, 0
3, 10560, Note_on_c, 0, 33, 36
3, 10800, Note_on_c, 0, 33, 0
3, 10800, Note_on_c, 0, 38, 43
3, 11280, Note_on_c, 0, 26, 35
3, 11520, Note_on_c, 0, 26, 0
3, 11520, Note_on_c, 0, 31, 43
3, 12480, Note_on_c, 0, 31, 0
3, 12480, Note_on_c, 0, 38, 0
3, 12960, Note_on_c, 0, 38, 41
3, 12960, Note_on_c, 0, 50, 41
3, 15600, Note_on_c, 0, 50, 0
3, 15600, Note_on_c, 0, 38, 0
3, 15600, Note_on_c, 0, 31, 33
3, 15600, Note_on_c, 0, 43, 33
3, 19200, Note_on_c, 0, 43, 0
3, 19200, Note_on_c, 0, 31, 0
3, 19200, Note_on_c, 0, 38, 41
3, 19200, Note_on_c, 0, 50, 47
3, 20640, Note_on_c, 0, 50, 0
3, 20640, Note_on_c, 0, 38, 0
3, 20640, Note_on_c, 0, 34, 33
3, 20640, Note_on_c, 0, 46, 38
3, 22320, Note_on_c, 0, 46, 0
3, 22320, Note_on_c, 0, 34, 0
3, 22320, Note_on_c, 0, 36, 27
3, 22320, Note_on_c, 0, 48, 27
3, 22800, Note_on_c, 0, 48, 0
3, 22800, Note_on_c, 0, 36, 0
3, 22800, Note_on_c, 0, 37, 25
3, 22800, Note_on_c, 0, 49, 25
3, 23040, Note_on_c, 0, 49, 0
3, 23040, Note_on_c, 0, 37, 0
3, 23040, Note_on_c, 0, 38, 27
3, 23040, Note_on_c, 0, 50, 33
3, 24240, Note_on_c, 0, 50, 0
3, 24240, Note_on_c, 0, 38, 0
3, 24240, Note_on_c, 0, 38, 27
3, 24240, Note_on_c, 0, 50, 27
3, 24360, Note_on_c, 0, 50, 0
3, 24360, Note_on_c, 0, 38, 0
3, 24480, Note_on_c, 0, 31, 32
3, 24480, Note_on_c, 0, 43, 41
3, 24600, Note_on_c, 0, 43, 0
3, 24600, Note_on_c, 0, 31, 0
3, 24960, Note_on_c, 0, 31, 27
3, 24960, Note_on_c, 0, 43, 35
3, 25080, Note_on_c, 0, 43, 0
3, 25080, Note_on_c, 0, 31, 0
3, 25200, Note_on_c, 0, 31, 32
3, 25200, Note_on_c, 0, 43, 41
3, 25320, Note_on_c, 0, 43, 0
3, 25320, Note_on_c, 0, 31, 0
3, 25680, Note_on_c, 0, 31, 32
3, 25680, Note_on_c, 0, 43, 41
3, 27120, Note_on_c, 0, 31, 0
3, 27120, Note_on_c, 0, 31, 33
3, 27360, Note_on_c, 0, 31, 0
3, 27360, Note_on_c, 0, 36, 42
3, 27840, Note_on_c, 0, 36, 0
3, 27840, Note_on_c, 0, 33, 36
3, 28080, Note_on_c, 0, 33, 0
3, 28080, Note_on_c, 0, 43, 0
3, 28080, Note_on_c, 0, 38, 43
3, 28560, Note_on_c, 0, 26, 35
3, 28800, Note_on_c, 0, 26, 0
3, 28800, Note_on_c, 0, 31, 43
3, 30720, Note_on_c, 0, 31, 0
3, 30720, Note_on_c, 0, 31, 33
3, 31440, Note_on_c, 0, 31, 0
3, 31440, Note_on_c, 0, 31, 33
3, 32880, Note_on_c, 0, 31, 0
3, 32880, Note_on_c, 0, 31, 33
3, 33120, Note_on_c, 0, 31, 0
3, 33120, Note_on_c, 0, 38, 0
3, 33120, Note_on_c, 0, 36, 42
3, 33600, Note_on_c, 0, 36, 0
3, 33600, Note_on_c, 0, 33, 36
3, 33840, Note_on_c, 0, 33, 0
3, 33840, Note_on_c, 0, 38, 43
3, 34320, Note_on_c, 0, 26, 35
3, 34560, Note_on_c, 0, 26, 0
3, 34560, Note_on_c, 0, 31, 43
3, 35520, Note_on_c, 0, 31, 0
3, 35520, Note_on_c, 0, 38, 0
3, 36000, Note_on_c, 0, 38, 41
3, 36000, Note_on_c, 0, 50, 41
3, 38640, Note_on_c, 0, 50, 0
3, 38640, Note_on_c, 0, 38, 0
3, 38640, Note_on_c, 0, 31, 33
3, 38640, Note_on_c, 0, 43, 33
3, 42240, Note_on_c, 0, 43, 0
3, 42240, Note_on_c, 0, 31, 0
3, 42240, Note_on_c, 0, 38, 41
3, 42240, Note_on_c, 0, 50, 49
3, 43680, Note_on_c, 0, 50, 0
3, 43680, Note_on_c, 0, 38, 0
3, 43680, Note_on_c, 0, 34, 33
3, 43680, Note_on_c, 0, 46, 42
3, 45360, Note_on_c, 0, 46, 0
3, 45360, Note_on_c, 0, 34, 0
3, 45360, Note_on_c, 0, 36, 27
3, 45360, Note_on_c, 0, 48, 27
3, 45840, Note_on_c, 0, 48, 0
3, 45840, Note_on_c, 0, 36, 0
3, 45840, Note_on_c, 0, 37, 25
3, 45840, Note_on_c, 0, 49, 25
3, 46080, Note_on_c, 0, 49, 0
3, 46080, Note_on_c, 0, 37, 0
3, 46080, Note_on_c, 0, 38, 27
3, 46080, Note_on_c, 0, 50, 33
3, 47280, Note_on_c, 0, 50, 0
3, 47280, Note_on_c, 0, 38, 0
3, 47280, Note_on_c, 0, 38, 27
3, 47280, Note_on_c, 0, 50, 27
3, 47400, Note_on_c, 0, 50, 0
3, 47400, Note_on_c, 0, 38, 0
3, 47520, Note_on_c, 0, 31, 32
3, 47520, Note_on_c, 0, 43, 41
3, 47640, Note_on_c, 0, 43, 0
3, 47640, Note_on_c, 0, 31, 0
3, 48000, Note_on_c, 0, 31, 27
3, 48000, Note_on_c, 0, 43, 35
3, 48090, Note_on_c, 0, 43, 0
3, 48090, Note_on_c, 0, 31, 0
3, 48240, Note_on_c, 0, 31, 32
3, 48240, Note_on_c, 0, 43, 41
3, 48330, Note_on_c, 0, 43, 0
3, 48330, Note_on_c, 0, 31, 0
3, 48720, Note_on_c, 0, 31, 32
3, 48720, Note_on_c, 0, 43, 41
3, 50160, Note_on_c, 0, 31, 0
3, 50160, Note_on_c, 0, 31, 33
3, 50400, Note_on_c, 0, 31, 0
3, 50400, Note_on_c, 0, 36, 42
3, 50880, Note_on_c, 0, 36, 0
3, 50880, Note_on_c, 0, 33, 36
3, 51120, Note_on_c, 0, 33, 0
3, 51120, Note_on_c, 0, 43, 0
3, 51120, Note_on_c, 0, 38, 43
3, 51600, Note_on_c, 0, 26, 35
3, 51840, Note_on_c, 0, 26, 0
3, 51840, Note_on_c, 0, 31, 43
3, 53760, Note_on_c, 0, 31, 0
3, 53760, Note_on_c, 0, 31, 42
3, 54480, Note_on_c, 0, 31, 0
3, 54480, Note_on_c, 0, 31, 42
3, 55920, Note_on_c, 0, 31, 0
3, 55920, Note_on_c, 0, 31, 33
3, 56160, Note_on_c, 0, 31, 0
3, 56160, Note_on_c, 0, 38, 0
3, 56160, Note_on_c, 0, 36, 42
3, 56640, Note_on_c, 0, 36, 0
3, 56640, Note_on_c, 0, 33, 36
3, 56880, Note_on_c, 0, 33, 0
3, 56880, Note_on_c, 0, 38, 43
3, 57360, Note_on_c, 0, 26, 35
3, 57600, Note_on_c, 0, 26, 0
3, 57600, Note_on_c, 0, 31, 43
3, 58560, Note_on_c, 0, 31, 0
3, 58560, Note_on_c, 0, 38, 0
3, 58980, Note_on_c, 0, 34, 43
3, 59040, Note_on_c, 0, 46, 51
3, 59700, Note_on_c, 0, 46, 0
3, 59700, Note_on_c, 0, 34, 0
3, 59700, Note_on_c, 0, 36, 49
3, 59760, Note_on_c, 0, 48, 58
3, 60060, Note_on_c, 0, 48, 0
3, 60060, Note_on_c, 0, 36, 0
3, 60060, Note_on_c, 0, 38, 51
3, 60120, Note_on_c, 0, 50, 62
3, 60420, Note_on_c, 0, 50, 0
3, 60420, Note_on_c, 0, 38, 0
3, 60420, Note_on_c, 0, 39, 54
3, 60480, Note_on_c, 0, 51, 64
3, 61140, Note_on_c, 0, 51, 0
3, 61140, Note_on_c, 0, 39, 0
3, 61140, Note_on_c, 0, 46, 48
3, 61200, Note_on_c, 0, 58, 57
3, 61920, Note_on_c, 0, 58, 0
3, 62220, Note_on_c, 0, 46, 0
3, 62220, Note_on_c, 0, 43, 49
3, 62280, Note_on_c, 0, 55, 58
3, 62580, Note_on_c, 0, 55, 0
3, 62580, Note_on_c, 0, 43, 0
3, 62580, Note_on_c, 0, 39, 51
3, 62640, Note_on_c, 0, 51, 62
3, 62940, Note_on_c, 0, 51, 0
3, 62940, Note_on_c, 0, 39, 0
3, 62940, Note_on_c, 0, 36, 47
3, 63000, Note_on_c, 0, 48, 56
3, 63300, Note_on_c, 0, 48, 0
3, 63300, Note_on_c, 0, 36, 0
3, 63300, Note_on_c, 0, 41, 42
3, 63360, Note_on_c, 0, 53, 51
3, 64020, Note_on_c, 0, 53, 0
3, 64020, Note_on_c, 0, 41, 0
3, 64020, Note_on_c, 0, 29, 33
3, 64080, Note_on_c, 0, 41, 52
3, 64740, Note_on_c, 0, 41, 0
3, 64740, Note_on_c, 0, 29, 0
3, 64740, Note_on_c, 0, 34, 43
3, 64800, Note_on_c, 0, 46, 51
3, 65460, Note_on_c, 0, 46, 0
3, 65460, Note_on_c, 0, 34, 0
3, 65460, Note_on_c, 0, 36, 49
3, 65520, Note_on_c, 0, 48, 58
3, 65820, Note_on_c, 0, 48, 0
3, 65820, Note_on_c, 0, 36, 0
3, 65820, Note_on_c, 0, 38, 51
3, 65880, Note_on_c, 0, 50, 62
3, 66180, Note_on_c, 0, 50, 0
3, 66180, Note_on_c, 0, 38, 0
3, 66180, Note_on_c, 0, 39, 54
3, 66240, Note_on_c, 0, 51, 64
3, 66900, Note_on_c, 0, 51, 0
3, 66900, Note_on_c, 0, 39, 0
3, 66900, Note_on_c, 0, 46, 48
3, 66960, Note_on_c, 0, 58, 57
3, 67680, Note_on_c, 0, 58, 0
3, 67980, Note_on_c, 0, 46, 0
3, 67980, Note_on_c, 0, 43, 49
3, 68040, Note_on_c, 0, 55, 58
3, 68340, Note_on_c, 0, 55, 0
3, 68340, Note_on_c, 0, 43, 0
3, 68340, Note_on_c, 0, 39, 51
3, 68400, Note_on_c, 0, 51, 62
3, 68700, Note_on_c, 0, 51, 0
3, 68700, Note_on_c, 0, 39, 0
3, 68700, Note_on_c, 0, 36, 47
3, 68760, Note_on_c, 0, 48, 56
3, 69060, Note_on_c, 0, 48, 0
3, 69060, Note_on_c, 0, 36, 0
3, 69060, Note_on_c, 0, 41, 42
3, 69120, Note_on_c, 0, 53, 51
3, 69780, Note_on_c, 0, 53, 0
3, 69780, Note_on_c, 0, 41, 0
3, 69780, Note_on_c, 0, 29, 33
3, 69840, Note_on_c, 0, 41, 52
3, 70500, Note_on_c, 0, 41, 0
3, 70500, Note_on_c, 0, 29, 0
3, 70500, Note_on_c, 0, 38, 43
3, 70560, Note_on_c, 0, 50, 51
3, 71220, Note_on_c, 0, 50, 0
3, 71220, Note_on_c, 0, 38, 0
3, 71220, Note_on_c, 0, 39, 49
3, 71280, Note_on_c, 0, 51, 58
3, 71580, Note_on_c, 0, 51, 0
3, 71580, Note_on_c, 0, 39, 0
3, 71580, Note_on_c, 0, 41, 51
3, 71640, Note_on_c, 0, 53, 62
3, 71940, Note_on_c, 0, 53, 0
3, 71940, Note_on_c, 0, 41, 0
3, 71940, Note_on_c, 0, 43, 54
3, 72000, Note_on_c, 0, 55, 64
3, 72660, Note_on_c, 0, 55, 0
3, 72660, Note_on_c, 0, 43, 0
3, 72660, Note_on_c, 0, 50, 48
3, 72720, Note_on_c, 0, 62, 57
3, 73440, Note_on_c, 0, 62, 0
3, 73740, Note_on_c, 0, 50, 0
3, 73740, Note_on_c, 0, 47, 49
3, 73800, Note_on_c, 0, 59, 58
3, 74100, Note_on_c, 0, 59, 0
3, 74100, Note_on_c, 0, 47, 0
3, 74100, Note_on_c, 0, 43, 51
3, 74160, Note_on_c, 0, 55, 62
3, 74460, Note_on_c, 0, 55, 0
3, 74460, Note_on_c, 0, 43, 0
3, 74460, Note_on_c, 0, 41, 47
3, 74520, Note_on_c, 0, 53, 56
3, 74820, Note_on_c, 0, 53, 0
3, 74820, Note_on_c, 0, 41, 0
3, 74820, Note_on_c, 0, 39, 42
3, 74880, Note_on_c, 0, 51, 51
3, 75540, Note_on_c, 0, 51, 0
3, 75540, Note_on_c, 0, 39, 0
3, 75540, Note_on_c, 0, 36, 33
3, 75600, Note_on_c, 0, 48, 52
3, 76260, Note_on_c, 0, 48, 0
3, 76260, Note_on_c, 0, 36, 0
3, 76260, Note_on_c, 0, 39, 43
3, 76320, Note_on_c, 0, 51, 51
3, 76980, Note_on_c, 0, 51, 0
3, 76980, Note_on_c, 0, 39, 0
3, 76980, Note_on_c, 0, 41, 49
3, 77040, Note_on_c, 0, 53, 58
3, 77340, Note_on_c, 0, 53, 0
3, 77340, Note_on_c, 0, 41, 0
3, 77340, Note_on_c, 0, 43, 51
3, 77400, Note_on_c, 0, 55, 62
3, 77700, Note_on_c, 0, 55, 0
3, 77700, Note_on_c, 0, 43, 0
3, 77700, Note_on_c, 0, 45, 54
3, 77760, Note_on_c, 0, 57, 64
3, 78420, Note_on_c, 0, 57, 0
3, 78420, Note_on_c, 0, 45, 0
3, 78420, Note_on_c, 0, 52, 48
3, 78480, Note_on_c, 0, 64, 57
3, 79200, Note_on_c, 0, 64, 0
3, 79500, Note_on_c, 0, 52, 0
3, 79500, Note_on_c, 0, 49, 49
3, 79560, Note_on_c, 0, 61, 58
3, 79860, Note_on_c, 0, 61, 0
3, 79860, Note_on_c, 0, 49, 0
3, 79860, Note_on_c, 0, 45, 51
3, 79920, Note_on_c, 0, 57, 62
3, 80220, Note_on_c, 0, 57, 0
3, 80220, Note_on_c, 0, 45, 0
3, 80220, Note_on_c, 0, 43, 47
3, 80280, Note_on_c, 0, 55, 56
3, 80580, Note_on_c, 0, 55, 0
3, 80580, Note_on_c, 0, 43, 0
3, 80580, Note_on_c, 0, 42, 42
3, 80640, Note_on_c, 0, 54, 51
3, 81300, Note_on_c, 0, 54, 0
3, 81300, Note_on_c, 0, 42, 0
3, 81300, Note_on_c, 0, 38, 33
3, 81360, Note_on_c, 0, 50, 52
3, 82020, Note_on_c, 0, 50, 0
3, 82020, Note_on_c, 0, 38, 0
3, 82020, Note_on_c, 0, 34, 43
3, 82080, Note_on_c, 0, 46, 51
3, 82740, Note_on_c, 0, 46, 0
3, 82740, Note_on_c, 0, 34, 0
3, 82740, Note_on_c, 0, 36, 49
3, 82800, Note_on_c, 0, 48, 58
3, 83100, Note_on_c, 0, 48, 0
3, 83100, Note_on_c, 0, 36, 0
3, 83100, Note_on_c, 0, 38, 51
3, 83160, Note_on_c, 0, 50, 62
3, 83460, Note_on_c, 0, 50, 0
3, 83460, Note_on_c, 0, 38, 0
3, 83460, Note_on_c, 0, 39, 54
3, 83520, Note_on_c, 0, 51, 64
3, 84180, Note_on_c, 0, 51, 0
3, 84180, Note_on_c, 0, 39, 0
3, 84180, Note_on_c, 0, 46, 48
3, 84240, Note_on_c, 0, 58, 62
3, 84960, Note_on_c, 0, 58, 0
3, 85260, Note_on_c, 0, 46, 0
3, 85620, Note_on_c, 0, 48, 49
3, 85680, Note_on_c, 0, 60, 63
3, 85980, Note_on_c, 0, 60, 0
3, 85980, Note_on_c, 0, 48, 0
3, 86400, Note_on_c, 0, 50, 54
3, 86400, Note_on_c, 0, 62, 64
3, 87780, Note_on_c, 0, 62, 0
3, 87780, Note_on_c, 0, 50, 0
3, 87780, Note_on_c, 0, 38, 43
3, 87840, Note_on_c, 0, 50, 51
3, 88500, Note_on_c, 0, 50, 0
3, 88500, Note_on_c, 0, 38, 0
3, 88500, Note_on_c, 0, 39, 49
3, 88560, Note_on_c, 0, 51, 58
3, 88860, Note_on_c, 0, 51, 0
3, 88860, Note_on_c, 0, 39, 0
3, 88860, Note_on_c, 0, 41, 51
3, 88920, Note_on_c, 0, 53, 62
3, 89220, Note_on_c, 0, 53, 0
3, 89220, Note_on_c, 0, 41, 0
3, 89220, Note_on_c, 0, 43, 54
3, 89280, Note_on_c, 0, 55, 64
3, 89940, Note_on_c, 0, 55, 0
3, 89940, Note_on_c, 0, 43, 0
3, 89940, Note_on_c, 0, 50, 48
3, 90000, Note_on_c, 0, 62, 62
3, 90720, Note_on_c, 0, 62, 0
3, 91380, Note_on_c, 0, 50, 0
3, 91380, Note_on_c, 0, 52, 49
3, 91440, Note_on_c, 0, 64, 63
3, 92160, Note_on_c, 0, 52, 0
3, 92160, Note_on_c, 0, 54, 54
3, 92160, Note_on_c, 0, 66, 64
3, 92169, Note_on_c, 0, 64, 0
3, 93240, Note_on_c, 0, 66, 0
3, 93240, Note_on_c, 0, 54, 0
3, 93240, Note_on_c, 0, 55, 54
3, 93600, Note_on_c, 0, 48, 47
3, 93600, Note_on_c, 0, 60, 47
3, 95040, Note_on_c, 0, 55, 0
3, 96240, Note_on_c, 0, 48, 0
3, 96240, Note_on_c, 0, 48, 37
3, 96480, Note_on_c, 0, 48, 0
3, 96480, Note_on_c, 0, 53, 48
3, 96960, Note_on_c, 0, 53, 0
3, 96960, Note_on_c, 0, 50, 41
3, 97200, Note_on_c, 0, 50, 0
3, 97200, Note_on_c, 0, 60, 0
3, 97200, Note_on_c, 0, 55, 49
3, 97680, Note_on_c, 0, 43, 40
3, 97920, Note_on_c, 0, 48, 49
3, 99120, Note_on_c, 0, 48, 0
3, 99120, Note_on_c, 0, 50, 50
3, 99360, Note_on_c, 0, 55, 0
3, 99360, Note_on_c, 0, 55, 49
3, 102000, Note_on_c, 0, 43, 0
3, 102000, Note_on_c, 0, 43, 37
3, 102240, Note_on_c, 0, 43, 0
3, 102240, Note_on_c, 0, 50, 0
3, 102240, Note_on_c, 0, 48, 48
3, 102720, Note_on_c, 0, 48, 0
3, 102720, Note_on_c, 0, 45, 41
3, 102960, Note_on_c, 0, 45, 0
3, 102960, Note_on_c, 0, 55, 0
3, 102960, Note_on_c, 0, 50, 49
3, 103440, Note_on_c, 0, 38, 40
3, 106320, Note_on_c, 0, 38, 0
3, 106320, Note_on_c, 0, 50, 0
3, 106320, Note_on_c, 0, 31, 37
3, 106320, Note_on_c, 0, 43, 37
3, 110640, Note_on_c, 0, 43, 0
3, 110640, Note_on_c, 0, 31, 0
3, 110640, Note_on_c, 0, 41, 47
3, 110640, Note_on_c, 0, 53, 54
3, 112080, Note_on_c, 0, 53, 0
3, 112080, Note_on_c, 0, 41, 0
3, 112080, Note_on_c, 0, 34, 37
3, 112080, Note_on_c, 0, 46, 50
3, 114480, Note_on_c, 0, 46, 0
3, 114480, Note_on_c, 0, 34, 0
3, 114480, Note_on_c, 0, 36, 29
3, 114480, Note_on_c, 0, 48, 29
3, 114960, Note_on_c, 0, 48, 0
3, 114960, Note_on_c, 0, 36, 0
3, 114960, Note_on_c, 0, 37, 27
3, 114960, Note_on_c, 0, 49, 27
3, 115200, Note_on_c, 0, 49, 0
3, 115200, Note_on_c, 0, 37, 0
3, 115200, Note_on_c, 0, 38, 28
3, 115200, Note_on_c, 0, 50, 34
3, 117840, Note_on_c, 0, 50, 0
3, 117840, Note_on_c, 0, 38, 0
3, 117840, Note_on_c, 0, 31, 32
3, 117840, Note_on_c, 0, 43, 41
3, 119280, Note_on_c, 0, 31, 0
3, 119280, Note_on_c, 0, 31, 33
3, 119520, Note_on_c, 0, 31, 0
3, 119520, Note_on_c, 0, 36, 42
3, 120000, Note_on_c, 0, 36, 0
3, 120000, Note_on_c, 0, 33, 36
3, 120240, Note_on_c, 0, 33, 0
3, 120240, Note_on_c, 0, 43, 0
3, 120240, Note_on_c, 0, 38, 43
3, 120720, Note_on_c, 0, 26, 35
3, 123120, Note_on_c, 0, 26, 0
3, 123120, Note_on_c, 0, 31, 48
3, 125040, Note_on_c, 0, 31, 0
3, 125040, Note_on_c, 0, 31, 33
3, 125280, Note_on_c, 0, 31, 0
3, 125280, Note_on_c, 0, 38, 0
3, 125280, Note_on_c, 0, 36, 42
3, 125760, Note_on_c, 0, 36, 0
3, 125760, Note_on_c, 0, 33, 36
3, 126000, Note_on_c, 0, 33, 0
3, 126000, Note_on_c, 0, 38, 43
3, 126480, Note_on_c, 0, 26, 35
3, 126720, Note_on_c, 0, 26, 0
3, 126720, Note_on_c, 0, 31, 43
3, 127680, Note_on_c, 0, 31, 0
3, 127680, Note_on_c, 0, 38, 0
3, 128160, Note_on_c, 0, 26, 70
3, 128520, Note_on_c, 0, 58, 55
3, 128640, Note_on_c, 0, 58, 0
3, 128640, Note_on_c, 0, 26, 0
3, 128640, Note_on_c, 0, 58, 61
3, 128880, Note_on_c, 0, 58, 0
3, 128880, Note_on_c, 0, 58, 66
3, 129240, Note_on_c, 0, 58, 0
3, 129960, Note_on_c, 0, 45, 51
3, 129960, Note_on_c, 0, 50, 61
3, 130080, Note_on_c, 0, 50, 0
3, 130080, Note_on_c, 0, 45, 0
3, 130080, Note_on_c, 0, 45, 49
3, 130080, Note_on_c, 0, 50, 58
3, 130320, Note_on_c, 0, 50, 0
3, 130320, Note_on_c, 0, 45, 0
3, 130320, Note_on_c, 0, 45, 53
3, 130320, Note_on_c, 0, 50, 63
3, 130560, Note_on_c, 0, 50, 0
3, 130560, Note_on_c, 0, 45, 0
3, 131040, Note_on_c, 0, 37, 70
3, 131040, Note_on_c, 0, 25, 70
3, 131400, Note_on_c, 0, 58, 55
3, 131520, Note_on_c, 0, 58, 0
3, 131520, Note_on_c, 0, 25, 0
3, 131520, Note_on_c, 0, 37, 0
3, 131520, Note_on_c, 0, 58, 61
3, 131760, Note_on_c, 0, 58, 0
3, 131760, Note_on_c, 0, 58, 66
3, 132120, Note_on_c, 0, 58, 0
3, 132840, Note_on_c, 0, 45, 51
3, 132840, Note_on_c, 0, 52, 61
3, 132960, Note_on_c, 0, 52, 0
3, 132960, Note_on_c, 0, 45, 0
3, 132960, Note_on_c, 0, 45, 49
3, 132960, Note_on_c, 0, 52, 58
3, 133200, Note_on_c, 0, 52, 0
3, 133200, Note_on_c, 0, 45, 0
3, 133200, Note_on_c, 0, 45, 53
3, 133200, Note_on_c, 0, 52, 63
3, 133440, Note_on_c, 0, 52, 0
3, 133440, Note_on_c, 0, 45, 0
3, 133920, Note_on_c, 0, 38, 70
3, 133920, Note_on_c, 0, 26, 70
3, 134280, Note_on_c, 0, 64, 55
3, 134400, Note_on_c, 0, 64, 0
3, 134400, Note_on_c, 0, 26, 0
3, 134400, Note_on_c, 0, 38, 0
3, 134400, Note_on_c, 0, 64, 61
3, 134640, Note_on_c, 0, 64, 0
3, 134640, Note_on_c, 0, 64, 66
3, 134880, Note_on_c, 0, 64, 0
3, 135000, Note_on_c, 0, 62, 61
3, 135120, Note_on_c, 0, 62, 0
3, 135120, Note_on_c, 0, 62, 58
3, 135360, Note_on_c, 0, 62, 0
3, 135360, Note_on_c, 0, 62, 62
3, 135720, Note_on_c, 0, 50, 51
3, 135720, Note_on_c, 0, 53, 61
3, 135840, Note_on_c, 0, 53, 0
3, 135840, Note_on_c, 0, 50, 0
3, 135840, Note_on_c, 0, 50, 49
3, 135840, Note_on_c, 0, 53, 58
3, 136080, Note_on_c, 0, 53, 0
3, 136080, Note_on_c, 0, 50, 0
3, 136080, Note_on_c, 0, 50, 53
3, 136080, Note_on_c, 0, 53, 63
3, 136320, Note_on_c, 0, 53, 0
3, 136320, Note_on_c, 0, 50, 0
3, 136320, Note_on_c, 0, 62, 0
3, 136800, Note_on_c, 0, 43, 70
3, 136800, Note_on_c, 0, 31, 70
3, 137160, Note_on_c, 0, 67, 55
3, 137280, Note_on_c, 0, 67, 0
3, 137280, Note_on_c, 0, 31, 0
3, 137280, Note_on_c, 0, 43, 0
3, 137280, Note_on_c, 0, 67, 61
3, 137520, Note_on_c, 0, 67, 0
3, 137520, Note_on_c, 0, 67, 66
3, 137760, Note_on_c, 0, 67, 0
3, 137880, Note_on_c, 0, 48, 56
3, 137880, Note_on_c, 0, 52, 67
3, 137940, Note_on_c, 0, 52, 0
3, 137940, Note_on_c, 0, 48, 0
3, 138000, Note_on_c, 0, 48, 53
3, 138000, Note_on_c, 0, 52, 63
3, 138120, Note_on_c, 0, 52, 0
3, 138120, Note_on_c, 0, 48, 0
3, 138240, Note_on_c, 0, 48, 57
3, 138240, Note_on_c, 0, 52, 68
3, 138480, Note_on_c, 0, 52, 0
3, 138480, Note_on_c, 0, 48, 0
3, 138600, Note_on_c, 0, 36, 61
3, 138600, Note_on_c, 0, 48, 73
3, 138720, Note_on_c, 0, 48, 0
3, 138720, Note_on_c, 0, 36, 0
3, 138720, Note_on_c, 0, 36, 58
3, 138720, Note_on_c, 0, 48, 69
3, 138960, Note_on_c, 0, 48, 0
3, 138960, Note_on_c, 0, 36, 0
3, 138960, Note_on_c, 0, 36, 63
3, 138960, Note_on_c, 0, 48, 75
3, 139200, Note_on_c, 0, 48, 0
3, 139200, Note_on_c, 0, 36, 0
3, 139680, Note_on_c, 0, 29, 62
3, 139680, Note_on_c, 0, 41, 73
3, 140160, Note_on_c, 0, 41, 0
3, 140160, Note_on_c, 0, 29, 0
3, 140160, Note_on_c, 0, 60, 83
3, 140880, Note_on_c, 0, 60, 0
3, 140880, Note_on_c, 0, 62, 82
3, 141120, Note_on_c, 0, 62, 0
3, 141120, Note_on_c, 0, 30, 62
3, 141120, Note_on_c, 0, 42, 73
3, 141600, Note_on_c, 0, 51, 77
3, 141840, Note_on_c, 0, 51, 0
3, 141840, Note_on_c, 0, 63, 79
3, 142560, Note_on_c, 0, 63, 0
3, 142560, Note_on_c, 0, 42, 0
3, 142560, Note_on_c, 0, 30, 0
3, 142560, Note_on_c, 0, 31, 62
3, 142567, Note_on_c, 0, 43, 73
3, 143040, Note_on_c, 0, 31, 0
3, 143040, Note_on_c, 0, 60, 83
3, 143047, Note_on_c, 0, 43, 0
3, 143760, Note_on_c, 0, 60, 0
3, 143760, Note_on_c, 0, 62, 82
3, 144000, Note_on_c, 0, 62, 0
3, 144000, Note_on_c, 0, 34, 62
3, 144000, Note_on_c, 0, 46, 73
3, 144480, Note_on_c, 0, 52, 77
3, 144720, Note_on_c, 0, 52, 0
3, 144720, Note_on_c, 0, 64, 79
3, 145440, Note_on_c, 0, 64, 0
3, 145440, Note_on_c, 0, 46, 0
3, 145440, Note_on_c, 0, 34, 0
3, 145440, Note_on_c, 0, 45, 73
3, 145440, Note_on_c, 0, 33, 62
3, 145920, Note_on_c, 0, 33, 0
3, 145920, Note_on_c, 0, 45, 0
3, 145920, Note_on_c, 0, 60, 83
3, 146640, Note_on_c, 0, 60, 0
3, 146640, Note_on_c, 0, 62, 82
3, 146880, Note_on_c, 0, 62, 0
3, 146880, Note_on_c, 0, 32, 62
3, 146880, Note_on_c, 0, 44, 73
3, 147360, Note_on_c, 0, 51, 77
3, 147600, Note_on_c, 0, 51, 0
3, 147600, Note_on_c, 0, 63, 79
3, 148320, Note_on_c, 0, 63, 0
3, 148320, Note_on_c, 0, 44, 0
3, 148320, Note_on_c, 0, 32, 0
3, 148320, Note_on_c, 0, 31, 62
3, 148320, Note_on_c, 0, 43, 73
3, 148800, Note_on_c, 0, 55, 77
3, 149040, Note_on_c, 0, 55, 0
3, 149040, Note_on_c, 0, 67, 79
3, 149760, Note_on_c, 0, 67, 0
3, 149760, Note_on_c, 0, 43, 0
3, 149760, Note_on_c, 0, 31, 0
3, 149760, Note_on_c, 0, 36, 62
3, 149760, Note_on_c, 0, 48, 73
3, 150240, Note_on_c, 0, 48, 0
3, 150240, Note_on_c, 0, 36, 0
3, 150240, Note_on_c, 0, 64, 77
3, 150480, Note_on_c, 0, 64, 0
3, 151200, Note_on_c, 0, 29, 62
3, 151200, Note_on_c, 0, 41, 73
3, 151680, Note_on_c, 0, 41, 0
3, 151680, Note_on_c, 0, 29, 0
3, 151680, Note_on_c, 0, 60, 83
3, 152400, Note_on_c, 0, 60, 0
3, 152400, Note_on_c, 0, 62, 82
3, 152640, Note_on_c, 0, 62, 0
3, 152640, Note_on_c, 0, 30, 62
3, 152640, Note_on_c, 0, 42, 73
3, 153120, Note_on_c, 0, 51, 77
3, 153360, Note_on_c, 0, 51, 0
3, 153360, Note_on_c, 0, 63, 79
3, 154080, Note_on_c, 0, 63, 0
3, 154080, Note_on_c, 0, 42, 0
3, 154080, Note_on_c, 0, 30, 0
3, 154080, Note_on_c, 0, 31, 62
3, 154087, Note_on_c, 0, 43, 73
3, 154560, Note_on_c, 0, 31, 0
3, 154560, Note_on_c, 0, 60, 83
3, 154567, Note_on_c, 0, 43, 0
3, 155280, Note_on_c, 0, 60, 0
3, 155280, Note_on_c, 0, 62, 82
3, 155520, Note_on_c, 0, 62, 0
3, 155520, Note_on_c, 0, 34, 62
3, 155520, Note_on_c, 0, 46, 73
3, 156000, Note_on_c, 0, 52, 77
3, 156240, Note_on_c, 0, 52, 0
3, 156240, Note_on_c, 0, 64, 79
3, 156960, Note_on_c, 0, 64, 0
3, 156960, Note_on_c, 0, 46, 0
3, 156960, Note_on_c, 0, 34, 0
3, 156960, Note_on_c, 0, 45, 73
3, 156960, Note_on_c, 0, 33, 62
3, 157440, Note_on_c, 0, 33, 0
3, 157440, Note_on_c, 0, 45, 0
3, 157440, Note_on_c, 0, 60, 83
3, 158160, Note_on_c, 0, 60, 0
3, 158160, Note_on_c, 0, 62, 82
3, 158400, Note_on_c, 0, 62, 0
3, 158400, Note_on_c, 0, 32, 62
3, 158400, Note_on_c, 0, 44, 73
3, 158880, Note_on_c, 0, 51, 77
3, 159120, Note_on_c, 0, 51, 0
3, 159120, Note_on_c, 0, 63, 79
3, 159840, Note_on_c, 0, 63, 0
3, 159840, Note_on_c, 0, 44, 0
3, 159840, Note_on_c, 0, 32, 0
3, 159840, Note_on_c, 0, 31, 62
3, 159840, Note_on_c, 0, 43, 73
3, 160320, Note_on_c, 0, 55, 77
3, 160560, Note_on_c, 0, 55, 0
3, 160560, Note_on_c, 0, 67, 79
3, 161280, Note_on_c, 0, 67, 0
3, 161280, Note_on_c, 0, 43, 0
3, 161280, Note_on_c, 0, 31, 0
3, 161280, Note_on_c, 0, 36, 62
3, 161280, Note_on_c, 0, 48, 73
3, 161760, Note_on_c, 0, 48, 0
3, 161760, Note_on_c, 0, 36, 0
3, 161760, Note_on_c, 0, 64, 77
3, 162000, Note_on_c, 0, 64, 0
3, 162720, Note_on_c, 0, 36, 70
3, 162720, Note_on_c, 0, 24, 63
3, 162960, Note_on_c, 0, 24, 0
3, 162960, Note_on_c, 0, 36, 0
3, 163080, Note_on_c, 0, 63, 55
3, 163200, Note_on_c, 0, 63, 0
3, 163200, Note_on_c, 0, 63, 61
3, 163440, Note_on_c, 0, 63, 0
3, 163440, Note_on_c, 0, 63, 66
3, 163800, Note_on_c, 0, 63, 0
3, 163800, Note_on_c, 0, 62, 59
3, 163920, Note_on_c, 0, 62, 0
3, 163920, Note_on_c, 0, 62, 56
3, 164160, Note_on_c, 0, 62, 0
3, 164160, Note_on_c, 0, 62, 67
3, 164520, Note_on_c, 0, 50, 51
3, 164520, Note_on_c, 0, 54, 61
3, 164640, Note_on_c, 0, 54, 0
3, 164640, Note_on_c, 0, 50, 0
3, 164640, Note_on_c, 0, 50, 49
3, 164640, Note_on_c, 0, 54, 58
3, 164880, Note_on_c, 0, 54, 0
3, 164880, Note_on_c, 0, 50, 0
3, 164880, Note_on_c, 0, 50, 53
3, 164880, Note_on_c, 0, 54, 63
3, 165120, Note_on_c, 0, 54, 0
3, 165120, Note_on_c, 0, 50, 0
3, 165120, Note_on_c, 0, 62, 0
3, 165600, Note_on_c, 0, 43, 70
3, 165600, Note_on_c, 0, 31, 70
3, 165840, Note_on_c, 0, 31, 0
3, 165840, Note_on_c, 0, 43, 0
3, 165960, Note_on_c, 0, 63, 55
3, 166080, Note_on_c, 0, 63, 0
3, 166080, Note_on_c, 0, 63, 61
3, 166320, Note_on_c, 0, 63, 0
3, 166320, Note_on_c, 0, 63, 66
3, 166680, Note_on_c, 0, 63, 0
3, 167400, Note_on_c, 0, 50, 51
3, 167400, Note_on_c, 0, 55, 61
3, 167520, Note_on_c, 0, 55, 0
3, 167520, Note_on_c, 0, 50, 0
3, 167520, Note_on_c, 0, 50, 49
3, 167520, Note_on_c, 0, 55, 58
3, 167760, Note_on_c, 0, 55, 0
3, 167760, Note_on_c, 0, 50, 0
3, 167760, Note_on_c, 0, 50, 53
3, 167760, Note_on_c, 0, 55, 63
3, 168000, Note_on_c, 0, 55, 0
3, 168000, Note_on_c, 0, 50, 0
3, 168480, Note_on_c, 0, 50, 70
3, 168480, Note_on_c, 0, 38, 70
3, 168720, Note_on_c, 0, 38, 0
3, 168720, Note_on_c, 0, 50, 0
3, 168840, Note_on_c, 0, 65, 55
3, 168960, Note_on_c, 0, 65, 0
3, 168960, Note_on_c, 0, 65, 61
3, 169200, Note_on_c, 0, 65, 0
3, 169200, Note_on_c, 0, 65, 66
3, 169560, Note_on_c, 0, 65, 0
3, 169560, Note_on_c, 0, 64, 61
3, 169680, Note_on_c, 0, 64, 0
3, 169680, Note_on_c, 0, 64, 58
3, 169920, Note_on_c, 0, 64, 0
3, 169920, Note_on_c, 0, 64, 62
3, 170280, Note_on_c, 0, 52, 51
3, 170280, Note_on_c, 0, 56, 61
3, 170400, Note_on_c, 0, 56, 0
3, 170400, Note_on_c, 0, 52, 0
3, 170400, Note_on_c, 0, 52, 49
3, 170400, Note_on_c, 0, 56, 58
3, 170640, Note_on_c, 0, 56, 0
3, 170640, Note_on_c, 0, 52, 0
3, 170640, Note_on_c, 0, 52, 53
3, 170640, Note_on_c, 0, 56, 63
3, 170880, Note_on_c, 0, 56, 0
3, 170880, Note_on_c, 0, 52, 0
3, 170880, Note_on_c, 0, 64, 0
3, 171360, Note_on_c, 0, 48, 70
3, 171360, Note_on_c, 0, 36, 70
3, 171600, Note_on_c, 0, 36, 0
3, 171600, Note_on_c, 0, 48, 0
3, 171720, Note_on_c, 0, 65, 55
3, 171840, Note_on_c, 0, 65, 0
3, 171840, Note_on_c, 0, 65, 61
3, 172080, Note_on_c, 0, 65, 0
3, 172080, Note_on_c, 0, 65, 66
3, 172440, Note_on_c, 0, 65, 0
3, 172440, Note_on_c, 0, 64, 67
3, 172560, Note_on_c, 0, 64, 0
3, 172560, Note_on_c, 0, 64, 63
3, 172800, Note_on_c, 0, 64, 0
3, 172800, Note_on_c, 0, 64, 62
3, 173160, Note_on_c, 0, 52, 54
3, 173167, Note_on_c, 0, 57, 65
3, 173280, Note_on_c, 0, 52, 0
3, 173280, Note_on_c, 0, 52, 52
3, 173280, Note_on_c, 0, 57, 62
3, 173287, Note_on_c, 0, 57, 0
3, 173520, Note_on_c, 0, 57, 0
3, 173520, Note_on_c, 0, 52, 0
3, 173520, Note_on_c, 0, 57, 67
3, 173527, Note_on_c, 0, 52, 56
3, 173760, Note_on_c, 0, 57, 0
3, 173760, Note_on_c, 0, 64, 0
3, 173767, Note_on_c, 0, 52, 0
3, 174240, Note_on_c, 0, 50, 70
3, 174240, Note_on_c, 0, 38, 70
3, 174480, Note_on_c, 0, 38, 0
3, 174480, Note_on_c, 0, 50, 0
3, 174600, Note_on_c, 0, 71, 66
3, 174660, Note_on_c, 0, 71, 0
3, 174720, Note_on_c, 0, 71, 67
3, 174840, Note_on_c, 0, 71, 0
3, 174960, Note_on_c, 0, 71, 76
3, 175140, Note_on_c, 0, 71, 0
3, 175320, Note_on_c, 0, 77, 70
3, 175380, Note_on_c, 0, 77, 0
3, 175440, Note_on_c, 0, 77, 70
3, 175560, Note_on_c, 0, 77, 0
3, 175680, Note_on_c, 0, 77, 78
3, 176040, Note_on_c, 0, 71, 70
3, 176100, Note_on_c, 0, 71, 0
3, 176160, Note_on_c, 0, 71, 74
3, 176280, Note_on_c, 0, 71, 0
3, 176400, Note_on_c, 0, 77, 0
3, 176400, Note_on_c, 0, 71, 75
3, 176520, Note_on_c, 0, 71, 0
3, 177120, Note_on_c, 0, 47, 70
3, 177120, Note_on_c, 0, 35, 70
3, 177360, Note_on_c, 0, 35, 0
3, 177360, Note_on_c, 0, 47, 0
3, 177480, Note_on_c, 0, 59, 66
3, 177540, Note_on_c, 0, 59, 0
3, 177600, Note_on_c, 0, 59, 67
3, 177720, Note_on_c, 0, 59, 0
3, 177840, Note_on_c, 0, 59, 76
3, 178020, Note_on_c, 0, 59, 0
3, 178200, Note_on_c, 0, 69, 70
3, 178260, Note_on_c, 0, 69, 0
3, 178320, Note_on_c, 0, 69, 70
3, 178440, Note_on_c, 0, 69, 0
3, 178560, Note_on_c, 0, 69, 78
3, 178920, Note_on_c, 0, 59, 70
3, 178980, Note_on_c, 0, 59, 0
3, 179040, Note_on_c, 0, 59, 74
3, 179160, Note_on_c, 0, 59, 0
3, 179280, Note_on_c, 0, 69, 0
3, 179280, Note_on_c, 0, 59, 75
3, 179400, Note_on_c, 0, 59, 0
3, 180000, Note_on_c, 0, 52, 70
3, 180000, Note_on_c, 0, 40, 70
3, 180240, Note_on_c, 0, 40, 0
3, 180240, Note_on_c, 0, 52, 0
3, 180360, Note_on_c, 0, 71, 66
3, 180420, Note_on_c, 0, 71, 0
3, 180480, Note_on_c, 0, 71, 67
3, 180600, Note_on_c, 0, 71, 0
3, 180720, Note_on_c, 0, 71, 76
3, 180900, Note_on_c, 0, 71, 0
3, 181080, Note_on_c, 0, 76, 70
3, 181140, Note_on_c, 0, 76, 0
3, 181200, Note_on_c, 0, 76, 70
3, 181320, Note_on_c, 0, 76, 0
3, 181440, Note_on_c, 0, 76, 78
3, 181800, Note_on_c, 0, 71, 70
3, 181860, Note_on_c, 0, 71, 0
3, 181920, Note_on_c, 0, 71, 74
3, 182040, Note_on_c, 0, 71, 0
3, 182160, Note_on_c, 0, 76, 0
3, 182160, Note_on_c, 0, 71, 75
3, 182280, Note_on_c, 0, 71, 0
3, 182880, Note_on_c, 0, 40, 70
3, 182880, Note_on_c, 0, 28, 70
3, 183120, Note_on_c, 0, 28, 0
3, 183120, Note_on_c, 0, 40, 0
3, 183240, Note_on_c, 0, 52, 66
3, 183300, Note_on_c, 0, 52, 0
3, 183360, Note_on_c, 0, 52, 67
3, 183480, Note_on_c, 0, 52, 0
3, 183600, Note_on_c, 0, 52, 76
3, 183780, Note_on_c, 0, 52, 0
3, 183960, Note_on_c, 0, 64, 66
3, 184020, Note_on_c, 0, 64, 0
3, 184080, Note_on_c, 0, 64, 65
3, 184200, Note_on_c, 0, 64, 0
3, 184320, Note_on_c, 0, 64, 68
3, 184680, Note_on_c, 0, 52, 56
3, 184740, Note_on_c, 0, 52, 0
3, 184800, Note_on_c, 0, 52, 57
3, 184920, Note_on_c, 0, 52, 0
3, 185040, Note_on_c, 0, 64, 0
3, 185040, Note_on_c, 0, 52, 54
3, 185160, Note_on_c, 0, 52, 0
3, 185760, Note_on_c, 0, 45, 56
3, 185760, Note_on_c, 0, 33, 56
3, 186000, Note_on_c, 0, 33, 0
3, 186000, Note_on_c, 0, 45, 0
3, 186120, Note_on_c, 0, 65, 44
3, 186240, Note_on_c, 0, 65, 0
3, 186240, Note_on_c, 0, 65, 48
3, 186480, Note_on_c, 0, 65, 0
3, 186480, Note_on_c, 0, 65, 52
3, 186840, Note_on_c, 0, 65, 0
3, 186840, Note_on_c, 0, 64, 59
3, 186960, Note_on_c, 0, 64, 0
3, 186960, Note_on_c, 0, 64, 56
3, 187200, Note_on_c, 0, 64, 0
3, 187200, Note_on_c, 0, 64, 60
3, 187560, Note_on_c, 0, 52, 40
3, 187560, Note_on_c, 0, 57, 48
3, 187680, Note_on_c, 0, 57, 0
3, 187680, Note_on_c, 0, 52, 0
3, 187680, Note_on_c, 0, 52, 39
3, 187680, Note_on_c, 0, 57, 46
3, 187920, Note_on_c, 0, 57, 0
3, 187920, Note_on_c, 0, 52, 0
3, 187920, Note_on_c, 0, 52, 42
3, 187920, Note_on_c, 0, 57, 50
3, 188160, Note_on_c, 0, 57, 0
3, 188160, Note_on_c, 0, 52, 0
3, 188160, Note_on_c, 0, 64, 0
3, 188640, Note_on_c, 0, 44, 66
3, 188640, Note_on_c, 0, 32, 66
3, 189000, Note_on_c, 0, 65, 52
3, 189120, Note_on_c, 0, 65, 0
3, 189120, Note_on_c, 0, 32, 0
3, 189120, Note_on_c, 0, 44, 0
3, 189120, Note_on_c, 0, 65, 57
3, 189360, Note_on_c, 0, 65, 0
3, 189360, Note_on_c, 0, 65, 62
3, 189720, Note_on_c, 0, 65, 0
3, 189720, Note_on_c, 0, 64, 72
3, 189840, Note_on_c, 0, 64, 0
3, 189840, Note_on_c, 0, 64, 72
3, 190080, Note_on_c, 0, 64, 0
3, 190080, Note_on_c, 0, 64, 75
3, 190440, Note_on_c, 0, 52, 48
3, 190440, Note_on_c, 0, 56, 57
3, 190560, Note_on_c, 0, 56, 0
3, 190560, Note_on_c, 0, 52, 0
3, 190560, Note_on_c, 0, 52, 46
3, 190560, Note_on_c, 0, 56, 55
3, 190800, Note_on_c, 0, 56, 0
3, 190800, Note_on_c, 0, 52, 0
3, 190800, Note_on_c, 0, 64, 0
3, 190800, Note_on_c, 0, 52, 50
3, 190800, Note_on_c, 0, 56, 59
3, 191040, Note_on_c, 0, 56, 0
3, 191040, Note_on_c, 0, 52, 0
3, 191520, Note_on_c, 0, 45, 70
3, 191520, Note_on_c, 0, 33, 70
3, 191880, Note_on_c, 0, 71, 55
3, 192000, Note_on_c, 0, 71, 0
3, 192000, Note_on_c, 0, 33, 0
3, 192000, Note_on_c, 0, 45, 0
3, 192000, Note_on_c, 0, 71, 61
3, 192240, Note_on_c, 0, 71, 0
3, 192240, Note_on_c, 0, 71, 66
3, 192600, Note_on_c, 0, 71, 0
3, 192600, Note_on_c, 0, 69, 61
3, 192720, Note_on_c, 0, 69, 0
3, 192720, Note_on_c, 0, 69, 58
3, 192960, Note_on_c, 0, 69, 0
3, 192960, Note_on_c, 0, 69, 62
3, 193320, Note_on_c, 0, 57, 51
3, 193320, Note_on_c, 0, 60, 61
3, 193440, Note_on_c, 0, 60, 0
3, 193440, Note_on_c, 0, 57, 0
3, 193440, Note_on_c, 0, 57, 49
3, 193440, Note_on_c, 0, 60, 58
3, 193680, Note_on_c, 0, 60, 0
3, 193680, Note_on_c, 0, 57, 0
3, 193680, Note_on_c, 0, 57, 53
3, 193680, Note_on_c, 0, 60, 63
3, 193920, Note_on_c, 0, 60, 0
3, 193920, Note_on_c, 0, 57, 0
3, 193920, Note_on_c, 0, 69, 0
3, 194400, Note_on_c, 0, 50, 70
3, 194400, Note_on_c, 0, 38, 70
3, 194760, Note_on_c, 0, 74, 55
3, 194880, Note_on_c, 0, 74, 0
3, 194880, Note_on_c, 0, 38, 0
3, 194880, Note_on_c, 0, 50, 0
3, 194880, Note_on_c, 0, 74, 61
3, 195120, Note_on_c, 0, 74, 0
3, 195120, Note_on_c, 0, 74, 66
3, 195360, Note_on_c, 0, 74, 0
3, 195480, Note_on_c, 0, 55, 56
3, 195480, Note_on_c, 0, 59, 67
3, 195540, Note_on_c, 0, 59, 0
3, 195540, Note_on_c, 0, 55, 0
3, 195600, Note_on_c, 0, 55, 53
3, 195600, Note_on_c, 0, 59, 63
3, 195720, Note_on_c, 0, 59, 0
3, 195720, Note_on_c, 0, 55, 0
3, 195840, Note_on_c, 0, 55, 57
3, 195840, Note_on_c, 0, 59, 68
3, 196080, Note_on_c, 0, 59, 0
3, 196080, Note_on_c, 0, 55, 0
3, 196200, Note_on_c, 0, 43, 61
3, 196200, Note_on_c, 0, 55, 73
3, 196320, Note_on_c, 0, 55, 0
3, 196320, Note_on_c, 0, 43, 0
3, 196320, Note_on_c, 0, 43, 58
3, 196320, Note_on_c, 0, 55, 69
3, 196560, Note_on_c, 0, 55, 0
3, 196560, Note_on_c, 0, 43, 0
3, 196560, Note_on_c, 0, 43, 63
3, 196560, Note_on_c, 0, 55, 75
3, 200640, Note_on_c, 0, 55, 0
3, 200640, Note_on_c, 0, 43, 0
3, 200640, Note_on_c, 0, 41, 41
3, 200640, Note_on_c, 0, 53, 45
3, 201360, Note_on_c, 0, 53, 0
3, 201360, Note_on_c, 0, 41, 0
3, 201360, Note_on_c, 0, 55, 51
3, 201360, Note_on_c, 0, 43, 39
3, 202800, Note_on_c, 0, 55, 0
3, 202800, Note_on_c, 0, 50, 48
3, 203040, Note_on_c, 0, 55, 46
3, 204480, Note_on_c, 0, 50, 0
3, 205680, Note_on_c, 0, 43, 0
3, 205680, Note_on_c, 0, 43, 37
3, 205920, Note_on_c, 0, 43, 0
3, 205920, Note_on_c, 0, 48, 47
3, 206400, Note_on_c, 0, 48, 0
3, 206400, Note_on_c, 0, 45, 41
3, 206640, Note_on_c, 0, 45, 0
3, 206640, Note_on_c, 0, 55, 0
3, 206640, Note_on_c, 0, 50, 48
3, 207120, Note_on_c, 0, 38, 39
3, 209280, Note_on_c, 0, 38, 0
3, 209280, Note_on_c, 0, 50, 0
3, 209280, Note_on_c, 0, 43, 37
3, 209280, Note_on_c, 0, 31, 37
3, 211440, Note_on_c, 0, 31, 0
3, 211440, Note_on_c, 0, 43, 0
3, 211440, Note_on_c, 0, 31, 37
3, 211680, Note_on_c, 0, 31, 0
3, 211680, Note_on_c, 0, 36, 47
3, 212160, Note_on_c, 0, 36, 0
3, 212160, Note_on_c, 0, 33, 41
3, 212400, Note_on_c, 0, 33, 0
3, 212400, Note_on_c, 0, 38, 48
3, 212880, Note_on_c, 0, 26, 39
3, 213600, Note_on_c, 0, 26, 0
3, 213600, Note_on_c, 0, 38, 0
3, 214560, Note_on_c, 0, 38, 46
3, 214560, Note_on_c, 0, 50, 46
3, 216480, Note_on_c, 0, 50, 0
3, 216480, Note_on_c, 0, 38, 0
3, 216480, Note_on_c, 0, 31, 43
3, 216480, Note_on_c, 0, 43, 48
3, 220080, Note_on_c, 0, 43, 0
3, 220080, Note_on_c, 0, 31, 0
3, 220080, Note_on_c, 0, 41, 46
3, 220080, Note_on_c, 0, 53, 54
3, 221520, Note_on_c, 0, 53, 0
3, 221520, Note_on_c, 0, 41, 0
3, 221520, Note_on_c, 0, 34, 37
3, 221520, Note_on_c, 0, 46, 45
3, 223920, Note_on_c, 0, 46, 0
3, 223920, Note_on_c, 0, 34, 0
3, 223920, Note_on_c, 0, 36, 31
3, 223920, Note_on_c, 0, 48, 31
3, 224400, Note_on_c, 0, 48, 0
3, 224400, Note_on_c, 0, 36, 0
3, 224400, Note_on_c, 0, 37, 28
3, 224400, Note_on_c, 0, 49, 28
3, 224640, Note_on_c, 0, 49, 0
3, 224640, Note_on_c, 0, 37, 0
3, 224640, Note_on_c, 0, 38, 30
3, 224640, Note_on_c, 0, 50, 36
3, 226560, Note_on_c, 0, 50, 0
3, 226560, Note_on_c, 0, 38, 0
3, 226560, Note_on_c, 0, 31, 39
3, 226560, Note_on_c, 0, 43, 51
3, 228720, Note_on_c, 0, 31, 0
3, 228720, Note_on_c, 0, 31, 33
3, 228960, Note_on_c, 0, 31, 0
3, 228960, Note_on_c, 0, 36, 42
3, 229440, Note_on_c, 0, 36, 0
3, 229440, Note_on_c, 0, 33, 36
3, 229680, Note_on_c, 0, 33, 0
3, 229680, Note_on_c, 0, 43, 0
3, 229680, Note_on_c, 0, 38, 43
3, 230160, Note_on_c, 0, 26, 35
3, 232560, Note_on_c, 0, 26, 0
3, 232560, Note_on_c, 0, 31, 45
3, 234480, Note_on_c, 0, 31, 0
3, 234480, Note_on_c, 0, 31, 31
3, 234720, Note_on_c, 0, 31, 0
3, 234720, Note_on_c, 0, 38, 0
3, 234720, Note_on_c, 0, 36, 39
3, 235200, Note_on_c, 0, 33, 34
3, 235440, Note_on_c, 0, 33, 0
3, 235440, Note_on_c, 0, 36, 0
3, 235440, Note_on_c, 0, 38, 39
3, 235920, Note_on_c, 0, 26, 31
3, 236160, Note_on_c, 0, 26, 0
3, 236160, Note_on_c, 0, 38, 0
3, 236160, Note_on_c, 0, 31, 39
3, 236640, Note_on_c, 0, 31, 0
3, 237600, Note_on_c, 0, 55, 34
3, 237600, Note_on_c, 0, 58, 40
3, 237720, Note_on_c, 0, 58, 0
3, 237720, Note_on_c, 0, 55, 0
3, 237960, Note_on_c, 0, 54, 27
3, 238080, Note_on_c, 0, 54, 0
3, 238080, Note_on_c, 0, 50, 33
3, 238080, Note_on_c, 0, 57, 39
3, 238200, Note_on_c, 0, 57, 0
3, 238200, Note_on_c, 0, 50, 0
3, 238320, Note_on_c, 0, 51, 32
3, 238320, Note_on_c, 0, 55, 38
3, 238440, Note_on_c, 0, 55, 0
3, 238440, Note_on_c, 0, 51, 0
3, 238680, Note_on_c, 0, 48, 27
3, 238800, Note_on_c, 0, 48, 0
3, 238800, Note_on_c, 0, 45, 27
3, 238800, Note_on_c, 0, 51, 33
3, 238920, Note_on_c, 0, 51, 0
3, 238920, Note_on_c, 0, 45, 0
3, 239040, Note_on_c, 0, 46, 34
3, 239040, Note_on_c, 0, 50, 40
3, 239160, Note_on_c, 0, 50, 0
3, 239160, Note_on_c, 0, 46, 0
3, 239400, Note_on_c, 0, 45, 27
3, 239520, Note_on_c, 0, 45, 0
3, 239520, Note_on_c, 0, 42, 32
3, 239520, Note_on_c, 0, 48, 38
3, 239640, Note_on_c, 0, 48, 0
3, 239640, Note_on_c, 0, 42, 0
3, 239760, Note_on_c, 0, 43, 31
3, 239760, Note_on_c, 0, 46, 37
3, 239880, Note_on_c, 0, 46, 0
3, 239880, Note_on_c, 0, 43, 0
3, 240120, Note_on_c, 0, 42, 26
3, 240240, Note_on_c, 0, 42, 0
3, 240240, Note_on_c, 0, 38, 26
3, 240240, Note_on_c, 0, 45, 31
3, 240360, Note_on_c, 0, 45, 0
3, 240360, Note_on_c, 0, 38, 0
3, 240480, Note_on_c, 0, 39, 32
3, 240480, Note_on_c, 0, 43, 37
3, 240600, Note_on_c, 0, 43, 0
3, 240600, Note_on_c, 0, 39, 0
3, 240840, Note_on_c, 0, 36, 26
3, 240960, Note_on_c, 0, 36, 0
3, 240960, Note_on_c, 0, 33, 30
3, 240960, Note_on_c, 0, 39, 36
3, 241080, Note_on_c, 0, 39, 0
3, 241080, Note_on_c, 0, 33, 0
3, 241200, Note_on_c, 0, 34, 29
3, 241200, Note_on_c, 0, 38, 35
3, 241320, Note_on_c, 0, 38, 0
3, 241320, Note_on_c, 0, 34, 0
3, 241560, Note_on_c, 0, 33, 24
3, 241680, Note_on_c, 0, 33, 0
3, 241680, Note_on_c, 0, 30, 25
3, 241680, Note_on_c, 0, 36, 29
3, 241800, Note_on_c, 0, 36, 0
3, 241800, Note_on_c, 0, 30, 0
3, 241920, Note_on_c, 0, 31, 29
3, 241920, Note_on_c, 0, 34, 29
3, 242040, Note_on_c, 0, 34, 0
3, 242040, Note_on_c, 0, 31, 0
3, 242640, Note_on_c, 0, 26, 25
3, 242760, Note_on_c, 0, 26, 0
3, 243360, Note_on_c, 0, 31, 26
3, 243480, Note_on_c, 0, 31, 0
3, 243480, End_track
4, 0, Start_track
4, 0, Title_t, "Pedale"
4, 0, Program_c, 0, 0
4, 3431, Control_c, 0, 64, 127
4, 3609, Control_c, 0, 64, 0
4, 3699, Control_c, 0, 64, 127
4, 3918, Control_c, 0, 64, 0
4, 9191, Control_c, 0, 64, 127
4, 9376, Control_c, 0, 64, 0
4, 9459, Control_c, 0, 64, 127
4, 9607, Control_c, 0, 64, 0
4, 11972, Control_c, 0, 64, 127
4, 12311, Control_c, 0, 64, 0
4, 26471, Control_c, 0, 64, 127
4, 26649, Control_c, 0, 64, 0
4, 26739, Control_c, 0, 64, 127
4, 26958, Control_c, 0, 64, 0
4, 32231, Control_c, 0, 64, 127
4, 32416, Control_c, 0, 64, 0
4, 32499, Control_c, 0, 64, 127
4, 32647, Control_c, 0, 64, 0
4, 35012, Control_c, 0, 64, 127
4, 35351, Control_c, 0, 64, 0
4, 49511, Control_c, 0, 64, 127
4, 49689, Control_c, 0, 64, 0
4, 49779, Control_c, 0, 64, 127
4, 49998, Control_c, 0, 64, 0
4, 55271, Control_c, 0, 64, 127
4, 55456, Control_c, 0, 64, 0
4, 55539, Control_c, 0, 64, 127
4, 55687, Control_c, 0, 64, 0
4, 58052, Control_c, 0, 64, 127
4, 58391, Control_c, 0, 64, 0
4, 59040, Control_c, 0, 64, 127
4, 59767, Control_c, 0, 64, 0
4, 59834, Control_c, 0, 64, 127
4, 60480, Control_c, 0, 64, 0
4, 60547, Control_c, 0, 64, 127
4, 61221, Control_c, 0, 64, 0
4, 61281, Control_c, 0, 64, 127
4, 61931, Control_c, 0, 64, 0
4, 62008, Control_c, 0, 64, 127
4, 62661, Control_c, 0, 64, 0
4, 62714, Control_c, 0, 64, 127
4, 63360, Control_c, 0, 64, 0
4, 63427, Control_c, 0, 64, 127
4, 64091, Control_c, 0, 64, 0
4, 64151, Control_c, 0, 64, 127
4, 64803, Control_c, 0, 64, 0
4, 64906, Control_c, 0, 64, 127
4, 65538, Control_c, 0, 64, 0
4, 65594, Control_c, 0, 64, 127
4, 66240, Control_c, 0, 64, 0
4, 66307, Control_c, 0, 64, 127
4, 66974, Control_c, 0, 64, 0
4, 67041, Control_c, 0, 64, 127
4, 67708, Control_c, 0, 64, 0
4, 67768, Control_c, 0, 64, 127
4, 68413, Control_c, 0, 64, 0
4, 68520, Control_c, 0, 64, 127
4, 69122, Control_c, 0, 64, 0
4, 69223, Control_c, 0, 64, 127
4, 69844, Control_c, 0, 64, 0
4, 69914, Control_c, 0, 64, 127
4, 70565, Control_c, 0, 64, 0
4, 70663, Control_c, 0, 64, 127
4, 71296, Control_c, 0, 64, 0
4, 71390, Control_c, 0, 64, 127
4, 72000, Control_c, 0, 64, 0
4, 72067, Control_c, 0, 64, 127
4, 72726, Control_c, 0, 64, 0
4, 72801, Control_c, 0, 64, 127
4, 73490, Control_c, 0, 64, 0
4, 73560, Control_c, 0, 64, 127
4, 74181, Control_c, 0, 64, 0
4, 74266, Control_c, 0, 64, 127
4, 74880, Control_c, 0, 64, 0
4, 74993, Control_c, 0, 64, 127
4, 75611, Control_c, 0, 64, 0
4, 75681, Control_c, 0, 64, 127
4, 76322, Control_c, 0, 64, 0
4, 76419, Control_c, 0, 64, 127
4, 77056, Control_c, 0, 64, 0
4, 77139, Control_c, 0, 64, 127
4, 77766, Control_c, 0, 64, 0
4, 77827, Control_c, 0, 64, 127
4, 78483, Control_c, 0, 64, 0
4, 78595, Control_c, 0, 64, 127
4, 79923, Control_c, 0, 64, 0
4, 79966, Control_c, 0, 64, 127
4, 80643, Control_c, 0, 64, 0
4, 80736, Control_c, 0, 64, 127
4, 81379, Control_c, 0, 64, 0
4, 81459, Control_c, 0, 64, 127
4, 82086, Control_c, 0, 64, 0
4, 82221, Control_c, 0, 64, 127
4, 82813, Control_c, 0, 64, 0
4, 82874, Control_c, 0, 64, 127
4, 83525, Control_c, 0, 64, 0
4, 83683, Control_c, 0, 64, 127
4, 84251, Control_c, 0, 64, 0
4, 84321, Control_c, 0, 64, 127
4, 85006, Control_c, 0, 64, 0
4, 85066, Control_c, 0, 64, 127
4, 85687, Control_c, 0, 64, 0
4, 85797, Control_c, 0, 64, 127
4, 86400, Control_c, 0, 64, 0
4, 86467, Control_c, 0, 64, 127
4, 87141, Control_c, 0, 64, 0
4, 87201, Control_c, 0, 64, 127
4, 87840, Control_c, 0, 64, 0
4, 87950, Control_c, 0, 64, 127
4, 88571, Control_c, 0, 64, 0
4, 88634, Control_c, 0, 64, 127
4, 89285, Control_c, 0, 64, 0
4, 89347, Control_c, 0, 64, 127
4, 90021, Control_c, 0, 64, 0
4, 90081, Control_c, 0, 64, 127
4, 91457, Control_c, 0, 64, 0
4, 91555, Control_c, 0, 64, 127
4, 92160, Control_c, 0, 64, 0
4, 92227, Control_c, 0, 64, 127
4, 92901, Control_c, 0, 64, 0
4, 92961, Control_c, 0, 64, 127
4, 93663, Control_c, 0, 64, 0
4, 95591, Control_c, 0, 64, 127
4, 95769, Control_c, 0, 64, 0
4, 95859, Control_c, 0, 64, 127
4, 96078, Control_c, 0, 64, 0
4, 101351, Control_c, 0, 64, 127
4, 101536, Control_c, 0, 64, 0
4, 101619, Control_c, 0, 64, 127
4, 101767, Control_c, 0, 64, 0
4, 104132, Control_c, 0, 64, 127
4, 104471, Control_c, 0, 64, 0
4, 118631, Control_c, 0, 64, 127
4, 118809, Control_c, 0, 64, 0
4, 118899, Control_c, 0, 64, 127
4, 119118, Control_c, 0, 64, 0
4, 124391, Control_c, 0, 64, 127
4, 124576, Control_c, 0, 64, 0
4, 124659, Control_c, 0, 64, 127
4, 124807, Control_c, 0, 64, 0
4, 127172, Control_c, 0, 64, 127
4, 127511, Control_c, 0, 64, 0
4, 127885, Control_c, 0, 64, 127
4, 128160, Control_c, 0, 64, 0
4, 128365, Control_c, 0, 64, 127
4, 129113, Control_c, 0, 64, 0
4, 129360, Control_c, 0, 64, 127
4, 129600, Control_c, 0, 64, 0
4, 129706, Control_c, 0, 64, 127
4, 130447, Control_c, 0, 64, 0
4, 130751, Control_c, 0, 64, 127
4, 131040, Control_c, 0, 64, 0
4, 131174, Control_c, 0, 64, 127
4, 131923, Control_c, 0, 64, 0
4, 132226, Control_c, 0, 64, 127
4, 132480, Control_c, 0, 64, 0
4, 132613, Control_c, 0, 64, 127
4, 133459, Control_c, 0, 64, 0
4, 133636, Control_c, 0, 64, 127
4, 133970, Control_c, 0, 64, 0
4, 134083, Control_c, 0, 64, 127
4, 134908, Control_c, 0, 64, 0
4, 135092, Control_c, 0, 64, 127
4, 135360, Control_c, 0, 64, 0
4, 135473, Control_c, 0, 64, 127
4, 136214, Control_c, 0, 64, 0
4, 136525, Control_c, 0, 64, 127
4, 136818, Control_c, 0, 64, 0
4, 136885, Control_c, 0, 64, 127
4, 137633, Control_c, 0, 64, 0
4, 137873, Control_c, 0, 64, 127
4, 138276, Control_c, 0, 64, 0
4, 138417, Control_c, 0, 64, 127
4, 139073, Control_c, 0, 64, 0
4, 139405, Control_c, 0, 64, 127
4, 139680, Control_c, 0, 64, 0
4, 139850, Control_c, 0, 64, 127
4, 141120, Control_c, 0, 64, 0
4, 141254, Control_c, 0, 64, 127
4, 142560, Control_c, 0, 64, 0
4, 142730, Control_c, 0, 64, 127
4, 144000, Control_c, 0, 64, 0
4, 144134, Control_c, 0, 64, 127
4, 145440, Control_c, 0, 64, 0
4, 145610, Control_c, 0, 64, 127
4, 146880, Control_c, 0, 64, 0
4, 147014, Control_c, 0, 64, 127
4, 148320, Control_c, 0, 64, 0
4, 148454, Control_c, 0, 64, 127
4, 149760, Control_c, 0, 64, 0
4, 149894, Control_c, 0, 64, 127
4, 150558, Control_c, 0, 64, 0
4, 150925, Control_c, 0, 64, 127
4, 151200, Control_c, 0, 64, 0
4, 151370, Control_c, 0, 64, 127
4, 152640, Control_c, 0, 64, 0
4, 152774, Control_c, 0, 64, 127
4, 154080, Control_c, 0, 64, 0
4, 154250, Control_c, 0, 64, 127
4, 155520, Control_c, 0, 64, 0
4, 155654, Control_c, 0, 64, 127
4, 156960, Control_c, 0, 64, 0
4, 157130, Control_c, 0, 64, 127
4, 158400, Control_c, 0, 64, 0
4, 158534, Control_c, 0, 64, 127
4, 159840, Control_c, 0, 64, 0
4, 159974, Control_c, 0, 64, 127
4, 161280, Control_c, 0, 64, 0
4, 161414, Control_c, 0, 64, 127
4, 162078, Control_c, 0, 64, 0
4, 162445, Control_c, 0, 64, 127
4, 162720, Control_c, 0, 64, 0
4, 162925, Control_c, 0, 64, 127
4, 163673, Control_c, 0, 64, 0
4, 163920, Control_c, 0, 64, 127
4, 164160, Control_c, 0, 64, 0
4, 164266, Control_c, 0, 64, 127
4, 165007, Control_c, 0, 64, 0
4, 165311, Control_c, 0, 64, 127
4, 165600, Control_c, 0, 64, 0
4, 165734, Control_c, 0, 64, 127
4, 166483, Control_c, 0, 64, 0
4, 166786, Control_c, 0, 64, 127
4, 167040, Control_c, 0, 64, 0
4, 167173, Control_c, 0, 64, 127
4, 168019, Control_c, 0, 64, 0
4, 168196, Control_c, 0, 64, 127
4, 168530, Control_c, 0, 64, 0
4, 168643, Control_c, 0, 64, 127
4, 169468, Control_c, 0, 64, 0
4, 169652, Control_c, 0, 64, 127
4, 169920, Control_c, 0, 64, 0
4, 170033, Control_c, 0, 64, 127
4, 170774, Control_c, 0, 64, 0
4, 171085, Control_c, 0, 64, 127
4, 171378, Control_c, 0, 64, 0
4, 171445, Control_c, 0, 64, 127
4, 172380, Control_c, 0, 64, 0
4, 172500, Control_c, 0, 64, 127
4, 172836, Control_c, 0, 64, 0
4, 172977, Control_c, 0, 64, 127
4, 173633, Control_c, 0, 64, 0
4, 173956, Control_c, 0, 64, 127
4, 174290, Control_c, 0, 64, 0
4, 174403, Control_c, 0, 64, 127
4, 175228, Control_c, 0, 64, 0
4, 175412, Control_c, 0, 64, 127
4, 175680, Control_c, 0, 64, 0
4, 175793, Control_c, 0, 64, 127
4, 176534, Control_c, 0, 64, 0
4, 176836, Control_c, 0, 64, 127
4, 177170, Control_c, 0, 64, 0
4, 177283, Control_c, 0, 64, 127
4, 178108, Control_c, 0, 64, 0
4, 178292, Control_c, 0, 64, 127
4, 178560, Control_c, 0, 64, 0
4, 178673, Control_c, 0, 64, 127
4, 179414, Control_c, 0, 64, 0
4, 179716, Control_c, 0, 64, 127
4, 180050, Control_c, 0, 64, 0
4, 180163, Control_c, 0, 64, 127
4, 180988, Control_c, 0, 64, 0
4, 181172, Control_c, 0, 64, 127
4, 181440, Control_c, 0, 64, 0
4, 181553, Control_c, 0, 64, 127
4, 182294, Control_c, 0, 64, 0
4, 182596, Control_c, 0, 64, 127
4, 182930, Control_c, 0, 64, 0
4, 183043, Control_c, 0, 64, 127
4, 183868, Control_c, 0, 64, 0
4, 184052, Control_c, 0, 64, 127
4, 184320, Control_c, 0, 64, 0
4, 184433, Control_c, 0, 64, 127
4, 185174, Control_c, 0, 64, 0
4, 185485, Control_c, 0, 64, 127
4, 185760, Control_c, 0, 64, 0
4, 185965, Control_c, 0, 64, 127
4, 186713, Control_c, 0, 64, 0
4, 186960, Control_c, 0, 64, 127
4, 187200, Control_c, 0, 64, 0
4, 187306, Control_c, 0, 64, 127
4, 188047, Control_c, 0, 64, 0
4, 188351, Control_c, 0, 64, 127
4, 188640, Control_c, 0, 64, 0
4, 188774, Control_c, 0, 64, 127
4, 189523, Control_c, 0, 64, 0
4, 189826, Control_c, 0, 64, 127
4, 190080, Control_c, 0, 64, 0
4, 190213, Control_c, 0, 64, 127
4, 191059, Control_c, 0, 64, 0
4, 191236, Control_c, 0, 64, 127
4, 191570, Control_c, 0, 64, 0
4, 191683, Control_c, 0, 64, 127
4, 192508, Control_c, 0, 64, 0
4, 192692, Control_c, 0, 64, 127
4, 192960, Control_c, 0, 64, 0
4, 193073, Control_c, 0, 64, 127
4, 193814, Control_c, 0, 64, 0
4, 194125, Control_c, 0, 64, 127
4, 194418, Control_c, 0, 64, 0
4, 194485, Control_c, 0, 64, 127
4, 195233, Control_c, 0, 64, 0
4, 195473, Control_c, 0, 64, 127
4, 195876, Control_c, 0, 64, 0
4, 196017, Control_c, 0, 64, 127
4, 196673, Control_c, 0, 64, 0
4, 199271, Control_c, 0, 64, 127
4, 199449, Control_c, 0, 64, 0
4, 199539, Control_c, 0, 64, 127
4, 199758, Control_c, 0, 64, 0
4, 205031, Control_c, 0, 64, 127
4, 205209, Control_c, 0, 64, 0
4, 205299, Control_c, 0, 64, 127
4, 205518, Control_c, 0, 64, 0
4, 210791, Control_c, 0, 64, 127
4, 210976, Control_c, 0, 64, 0
4, 211059, Control_c, 0, 64, 127
4, 211207, Control_c, 0, 64, 0
4, 213572, Control_c, 0, 64, 127
4, 213911, Control_c, 0, 64, 0
4, 228071, Control_c, 0, 64, 127
4, 228249, Control_c, 0, 64, 0
4, 228339, Control_c, 0, 64, 127
4, 228558, Control_c, 0, 64, 0
4, 233831, Control_c, 0, 64, 127
4, 234016, Control_c, 0, 64, 0
4, 234099, Control_c, 0, 64, 127
4, 234247, Control_c, 0, 64, 0
4, 234247, End_track
5, 0, Start_track
5, 0, Title_t, "Schumann: Kreisleriana Nr. 8"
5, 0, End_track
6, 0, Start_track
6, 0, Title_t, "Copyright © 2007 by Bernd Krueger"
6, 0, End_track
7, 0, Start_track
7, 0, Title_t, "http://www.piano-midi.de/"
7, 0, End_track
8, 0, Start_track
8, 0, Title_t, "Edition: 2014-03-28"
8, 0, End_track
9, 0, Start_track
9, 0, Title_t, "Spur 8"
9, 0, End_track
10, 0, Start_track
10, 0, Title_t, "Spur 9"
10, 0, End_track
11, 0, Start_track
11, 0, Title_t, "Spur 10"
11, 0, End_track
12, 0, Start_track
12, 0, Title_t, "Spur 11"
12, 0, End_track
13, 0, Start_track
13, 0, Title_t, "Spur 12"
13, 0, End_track
14, 0, Start_track
14, 0, Title_t, "Spur 13"
14, 0, End_track
15, 0, Start_track
15, 0, Title_t, "Spur 14"
15, 0, End_track
16, 0, Start_track
16, 0, Title_t, "Spur 15"
16, 0, End_track
17, 0, Start_track
17, 0, Title_t, "Spur 16"
17, 0, End_track
0, 0, End_of_file
