0, 0, Header, 1, 7, 480
1, 0, Start_track
1, 0, Title_t, "Kinderszenen Opus 15"
1, 0, Title_t, "Träumerei"
1, 0, Copyright_t, "Copyright © 1996 von Bernd Krüger."
1, 0, Text_t, "Robert Schumann"
1, 0, Text_t, "Fertiggestellt am 11.12.97\012"
1, 0, Text_t, "Korrekturen am 4.9.98\012"
1, 0, Text_t, "Anpassungen an Digitalpiano am 1.1.99\012"
1, 0, Text_t, "Update am 16.6.99\012"
1, 0, Text_t, "Update am 9.7.99\012"
1, 0, Text_t, "Normierung: 23.12.2002\012"
1, 0, Text_t, "Update: 11.10.2008\012"
1, 0, Text_t, "Update am 26.3.14\012"
1, 0, Text_t, "Dauer: 2:08 Minuten\012"
1, 0, Time_signature, 4, 2, 24, 8
1, 0, Key_signature, -1, "major"
1, 0, Tempo, 600000
1, 0, Marker_t, "Reverie"
1, 1440, Tempo, 750000
1, 1920, Tempo, 1500000
1, 2400, Tempo, 1237113
1, 3120, Tempo, 816327
1, 3840, Tempo, 937500
1, 4080, Tempo, 1263158
1, 4320, Tempo, 882353
1, 5280, Tempo, 944882
1, 5520, Tempo, 1081081
1, 5760, Tempo, 1043478
1, 6000, Tempo, 975610
1, 6240, Tempo, 857143
1, 6960, Tempo, 916031
1, 7200, Tempo, 967742
1, 7680, Tempo, 1052632
1, 8160, Tempo, 975610
1, 8400, Tempo, 821918
1, 8640, Tempo, 769231
1, 9120, Tempo, 888889
1, 9360, Tempo, 983607
1, 9600, Tempo, 1052632
1, 10080, Tempo, 983607
1, 10800, Tempo, 816327
1, 11520, Tempo, 1043478
1, 11760, Tempo, 1263158
1, 12000, Tempo, 882353
1, 12720, Tempo, 810811
1, 13440, Tempo, 875912
1, 13920, Tempo, 839161
1, 14640, Tempo, 863309
1, 15120, Tempo, 909091
1, 15840, Tempo, 930233
1, 16560, Tempo, 975610
1, 17040, Tempo, 1263158
1, 17280, Tempo, 1052632
1, 17760, Tempo, 967742
1, 18480, Tempo, 816327
1, 19200, Tempo, 937500
1, 19440, Tempo, 1263158
1, 19680, Tempo, 882353
1, 20640, Tempo, 944882
1, 20880, Tempo, 1081081
1, 21120, Tempo, 1043478
1, 21360, Tempo, 975610
1, 21600, Tempo, 857143
1, 22320, Tempo, 916031
1, 22560, Tempo, 967742
1, 23040, Tempo, 1052632
1, 23520, Tempo, 975610
1, 23760, Tempo, 821918
1, 24000, Tempo, 769231
1, 24480, Tempo, 888889
1, 24720, Tempo, 983607
1, 24960, Tempo, 1052632
1, 25440, Tempo, 983607
1, 26160, Tempo, 816327
1, 26400, Tempo, 833333
1, 26880, Tempo, 1081081
1, 27120, Tempo, 1263158
1, 27360, Tempo, 882353
1, 28080, Tempo, 810811
1, 28800, Tempo, 875912
1, 29280, Tempo, 839161
1, 30000, Tempo, 863309
1, 30480, Tempo, 909091
1, 31200, Tempo, 930233
1, 31920, Tempo, 975610
1, 32400, Tempo, 1263158
1, 32640, Tempo, 1153846
1, 33120, Tempo, 983607
1, 33840, Tempo, 816327
1, 34560, Tempo, 923077
1, 34800, Tempo, 1043478
1, 35040, Tempo, 827586
1, 35500, Tempo, 805369
1, 36000, Tempo, 821918
1, 36480, Tempo, 794702
1, 36960, Tempo, 839161
1, 37680, Tempo, 810811
1, 38160, Tempo, 851064
1, 38400, Tempo, 839161
1, 38880, Tempo, 930233
1, 39120, Tempo, 991736
1, 39360, Tempo, 888889
1, 39600, Tempo, 975610
1, 40080, Tempo, 1263158
1, 40320, Tempo, 1100917
1, 40800, Tempo, 983607
1, 41520, Tempo, 816327
1, 42240, Tempo, 967742
1, 42480, Tempo, 1090909
1, 42720, Tempo, 821918
1, 43680, Tempo, 857143
1, 44160, Tempo, 816327
1, 44640, Tempo, 882353
1, 45120, Tempo, 863309
1, 45360, Tempo, 821918
1, 45840, Tempo, 851064
1, 46080, Tempo, 839161
1, 46560, Tempo, 960000
1, 46800, Tempo, 1052632
1, 47040, Tempo, 930233
1, 47280, Tempo, 1016949
1, 47520, Tempo, 1132075
1, 47760, Tempo, 2142857
1, 47880, Tempo, 1558442
1, 48000, Tempo, 1052632
1, 48480, Tempo, 967742
1, 49200, Tempo, 839161
1, 49440, Tempo, 821918
1, 49920, Tempo, 937500
1, 50160, Tempo, 1263158
1, 50400, Tempo, 882353
1, 51360, Tempo, 857143
1, 51600, Tempo, 1142857
1, 51840, Tempo, 1043478
1, 52080, Tempo, 975610
1, 52320, Tempo, 857143
1, 53040, Tempo, 916031
1, 53280, Tempo, 967742
1, 53760, Tempo, 1052632
1, 54240, Tempo, 975610
1, 54480, Tempo, 821918
1, 54720, Tempo, 769231
1, 55200, Tempo, 888889
1, 55440, Tempo, 983607
1, 55680, Tempo, 1132075
1, 56160, Tempo, 983607
1, 56880, Tempo, 851064
1, 57120, Tempo, 902256
1, 57600, Tempo, 1142857
1, 57840, Tempo, 1518987
1, 58080, Tempo, 1263158
1, 58800, Tempo, 857143
1, 59280, Tempo, 923077
1, 59520, Tempo, 902256
1, 60000, Tempo, 930233
1, 60480, Tempo, 967742
1, 60960, Tempo, 983607
1, 61200, Tempo, 1081081
1, 61680, Tempo, 1318681
1, 61920, Tempo, 1875000
1, 62160, Tempo, 2553191
1, 63360, Marker_t, "Fine"
1, 63360, End_track
2, 0, Start_track
2, 0, Title_t, "Piano right"
2, 0, Program_c, 0, 0
2, 0, Control_c, 0, 7, 100
2, 0, Control_c, 0, 10, 64
2, 0, Text_t, "bdca426d104a26ac9dcb070447587523"
2, 0, Control_c, 0, 91, 127
2, 1439, Control_c, 0, 91, 127
2, 1440, Note_on_c, 0, 60, 51
2, 1920, Note_on_c, 0, 60, 0
2, 1920, Note_on_c, 0, 65, 58
2, 2400, Note_on_c, 0, 53, 26
2, 2400, Note_on_c, 0, 60, 26
2, 3120, Note_on_c, 0, 65, 0
2, 3120, Note_on_c, 0, 64, 45
2, 3360, Note_on_c, 0, 64, 0
2, 3360, Note_on_c, 0, 65, 48
2, 3600, Note_on_c, 0, 65, 0
2, 3600, Note_on_c, 0, 69, 49
2, 3840, Note_on_c, 0, 69, 0
2, 3840, Note_on_c, 0, 60, 0
2, 3840, Note_on_c, 0, 53, 0
2, 3840, Note_on_c, 0, 72, 52
2, 4080, Note_on_c, 0, 72, 0
2, 4080, Note_on_c, 0, 77, 52
2, 4310, Note_on_c, 0, 77, 0
2, 4320, Note_on_c, 0, 65, 38
2, 4330, Note_on_c, 0, 77, 50
2, 5285, Note_on_c, 0, 76, 39
2, 5290, Note_on_c, 0, 77, 0
2, 5525, Note_on_c, 0, 76, 0
2, 5525, Note_on_c, 0, 74, 38
2, 5760, Note_on_c, 0, 72, 42
2, 5765, Note_on_c, 0, 74, 0
2, 6000, Note_on_c, 0, 72, 0
2, 6000, Note_on_c, 0, 77, 38
2, 6240, Note_on_c, 0, 77, 0
2, 6240, Note_on_c, 0, 65, 0
2, 6240, Note_on_c, 0, 64, 42
2, 6240, Note_on_c, 0, 67, 42
2, 6480, Note_on_c, 0, 67, 0
2, 6480, Note_on_c, 0, 69, 42
2, 6720, Note_on_c, 0, 69, 0
2, 6720, Note_on_c, 0, 70, 48
2, 6960, Note_on_c, 0, 70, 0
2, 6960, Note_on_c, 0, 74, 40
2, 7200, Note_on_c, 0, 74, 0
2, 7200, Note_on_c, 0, 64, 0
2, 7200, Note_on_c, 0, 60, 46
2, 7200, Note_on_c, 0, 65, 46
2, 7440, Note_on_c, 0, 65, 0
2, 7440, Note_on_c, 0, 64, 46
2, 7440, Note_on_c, 0, 67, 46
2, 7680, Note_on_c, 0, 67, 0
2, 7680, Note_on_c, 0, 64, 0
2, 7680, Note_on_c, 0, 65, 49
2, 7680, Note_on_c, 0, 69, 49
2, 7920, Note_on_c, 0, 69, 0
2, 7920, Note_on_c, 0, 65, 0
2, 7920, Note_on_c, 0, 72, 38
2, 8160, Note_on_c, 0, 72, 0
2, 8160, Note_on_c, 0, 60, 0
2, 8160, Note_on_c, 0, 60, 45
2, 8160, Note_on_c, 0, 64, 45
2, 8160, Note_on_c, 0, 67, 45
2, 9120, Note_on_c, 0, 67, 0
2, 9120, Note_on_c, 0, 64, 0
2, 9120, Note_on_c, 0, 60, 0
2, 9140, Note_on_c, 0, 60, 51
2, 9600, Note_on_c, 0, 60, 0
2, 9600, Note_on_c, 0, 65, 58
2, 10080, Note_on_c, 0, 53, 26
2, 10080, Note_on_c, 0, 60, 26
2, 10800, Note_on_c, 0, 65, 0
2, 10800, Note_on_c, 0, 64, 45
2, 11040, Note_on_c, 0, 64, 0
2, 11040, Note_on_c, 0, 65, 48
2, 11280, Note_on_c, 0, 65, 0
2, 11280, Note_on_c, 0, 69, 49
2, 11520, Note_on_c, 0, 69, 0
2, 11520, Note_on_c, 0, 60, 0
2, 11520, Note_on_c, 0, 53, 0
2, 11520, Note_on_c, 0, 72, 52
2, 11760, Note_on_c, 0, 72, 0
2, 11760, Note_on_c, 0, 81, 51
2, 11990, Note_on_c, 0, 81, 0
2, 12000, Note_on_c, 0, 69, 33
2, 12000, Note_on_c, 0, 81, 49
2, 12000, Note_on_c, 0, 67, 33
2, 12720, Note_on_c, 0, 81, 0
2, 12720, Note_on_c, 0, 79, 46
2, 12960, Note_on_c, 0, 79, 0
2, 12960, Note_on_c, 0, 77, 46
2, 13200, Note_on_c, 0, 77, 0
2, 13200, Note_on_c, 0, 76, 46
2, 13440, Note_on_c, 0, 76, 0
2, 13440, Note_on_c, 0, 67, 0
2, 13440, Note_on_c, 0, 77, 55
2, 13680, Note_on_c, 0, 77, 0
2, 13680, Note_on_c, 0, 81, 45
2, 13920, Note_on_c, 0, 81, 0
2, 13920, Note_on_c, 0, 74, 49
2, 14160, Note_on_c, 0, 74, 0
2, 14160, Note_on_c, 0, 69, 0
2, 14160, Note_on_c, 0, 68, 44
2, 14160, Note_on_c, 0, 77, 44
2, 14400, Note_on_c, 0, 77, 0
2, 14400, Note_on_c, 0, 68, 0
2, 14400, Note_on_c, 0, 67, 48
2, 14400, Note_on_c, 0, 76, 48
2, 14640, Note_on_c, 0, 67, 0
2, 14640, Note_on_c, 0, 72, 38
2, 14880, Note_on_c, 0, 72, 0
2, 14880, Note_on_c, 0, 64, 38
2, 15120, Note_on_c, 0, 64, 0
2, 15120, Note_on_c, 0, 76, 0
2, 15120, Note_on_c, 0, 66, 38
2, 15120, Note_on_c, 0, 75, 38
2, 15360, Note_on_c, 0, 75, 0
2, 15360, Note_on_c, 0, 66, 0
2, 15360, Note_on_c, 0, 65, 44
2, 15360, Note_on_c, 0, 74, 44
2, 15840, Note_on_c, 0, 74, 0
2, 15840, Note_on_c, 0, 76, 42
2, 16200, Note_on_c, 0, 76, 0
2, 16200, Note_on_c, 0, 72, 35
2, 16320, Note_on_c, 0, 72, 0
2, 16320, Note_on_c, 0, 65, 0
2, 16320, Note_on_c, 0, 64, 38
2, 16320, Note_on_c, 0, 72, 38
2, 16800, Note_on_c, 0, 64, 0
2, 17050, Note_on_c, 0, 60, 51
2, 17280, Note_on_c, 0, 60, 0
2, 17280, Note_on_c, 0, 72, 0
2, 17280, Note_on_c, 0, 65, 58
2, 17760, Note_on_c, 0, 53, 26
2, 17760, Note_on_c, 0, 60, 26
2, 18480, Note_on_c, 0, 65, 0
2, 18480, Note_on_c, 0, 64, 45
2, 18720, Note_on_c, 0, 64, 0
2, 18720, Note_on_c, 0, 65, 48
2, 18960, Note_on_c, 0, 65, 0
2, 18960, Note_on_c, 0, 69, 49
2, 19200, Note_on_c, 0, 69, 0
2, 19200, Note_on_c, 0, 60, 0
2, 19200, Note_on_c, 0, 53, 0
2, 19200, Note_on_c, 0, 72, 52
2, 19440, Note_on_c, 0, 72, 0
2, 19440, Note_on_c, 0, 77, 52
2, 19670, Note_on_c, 0, 77, 0
2, 19680, Note_on_c, 0, 65, 38
2, 19690, Note_on_c, 0, 77, 50
2, 20645, Note_on_c, 0, 76, 37
2, 20650, Note_on_c, 0, 77, 0
2, 20885, Note_on_c, 0, 76, 0
2, 20885, Note_on_c, 0, 74, 36
2, 21120, Note_on_c, 0, 74, 0
2, 21120, Note_on_c, 0, 72, 42
2, 21360, Note_on_c, 0, 72, 0
2, 21360, Note_on_c, 0, 77, 38
2, 21600, Note_on_c, 0, 77, 0
2, 21600, Note_on_c, 0, 65, 0
2, 21600, Note_on_c, 0, 64, 42
2, 21600, Note_on_c, 0, 67, 40
2, 21840, Note_on_c, 0, 67, 0
2, 21840, Note_on_c, 0, 69, 40
2, 22080, Note_on_c, 0, 69, 0
2, 22080, Note_on_c, 0, 70, 46
2, 22320, Note_on_c, 0, 70, 0
2, 22320, Note_on_c, 0, 74, 38
2, 22560, Note_on_c, 0, 74, 0
2, 22560, Note_on_c, 0, 64, 0
2, 22560, Note_on_c, 0, 60, 46
2, 22560, Note_on_c, 0, 65, 46
2, 22800, Note_on_c, 0, 65, 0
2, 22800, Note_on_c, 0, 64, 46
2, 22800, Note_on_c, 0, 67, 46
2, 23040, Note_on_c, 0, 67, 0
2, 23040, Note_on_c, 0, 64, 0
2, 23040, Note_on_c, 0, 65, 49
2, 23040, Note_on_c, 0, 69, 49
2, 23280, Note_on_c, 0, 69, 0
2, 23280, Note_on_c, 0, 65, 0
2, 23280, Note_on_c, 0, 72, 38
2, 23520, Note_on_c, 0, 72, 0
2, 23520, Note_on_c, 0, 60, 0
2, 23520, Note_on_c, 0, 60, 45
2, 23520, Note_on_c, 0, 64, 45
2, 23520, Note_on_c, 0, 67, 45
2, 24480, Note_on_c, 0, 67, 0
2, 24480, Note_on_c, 0, 64, 0
2, 24480, Note_on_c, 0, 60, 0
2, 24500, Note_on_c, 0, 60, 51
2, 24960, Note_on_c, 0, 60, 0
2, 24960, Note_on_c, 0, 65, 58
2, 25440, Note_on_c, 0, 53, 26
2, 25440, Note_on_c, 0, 60, 26
2, 26160, Note_on_c, 0, 65, 0
2, 26160, Note_on_c, 0, 64, 45
2, 26400, Note_on_c, 0, 64, 0
2, 26400, Note_on_c, 0, 65, 48
2, 26640, Note_on_c, 0, 65, 0
2, 26640, Note_on_c, 0, 69, 49
2, 26880, Note_on_c, 0, 69, 0
2, 26880, Note_on_c, 0, 60, 0
2, 26880, Note_on_c, 0, 53, 0
2, 26880, Note_on_c, 0, 72, 52
2, 27120, Note_on_c, 0, 72, 0
2, 27120, Note_on_c, 0, 81, 51
2, 27350, Note_on_c, 0, 81, 0
2, 27360, Note_on_c, 0, 69, 33
2, 27360, Note_on_c, 0, 81, 49
2, 27360, Note_on_c, 0, 67, 33
2, 28080, Note_on_c, 0, 81, 0
2, 28080, Note_on_c, 0, 79, 46
2, 28320, Note_on_c, 0, 79, 0
2, 28320, Note_on_c, 0, 77, 46
2, 28560, Note_on_c, 0, 77, 0
2, 28560, Note_on_c, 0, 76, 46
2, 28800, Note_on_c, 0, 76, 0
2, 28800, Note_on_c, 0, 67, 0
2, 28800, Note_on_c, 0, 77, 55
2, 29040, Note_on_c, 0, 77, 0
2, 29040, Note_on_c, 0, 81, 45
2, 29280, Note_on_c, 0, 81, 0
2, 29280, Note_on_c, 0, 74, 49
2, 29520, Note_on_c, 0, 74, 0
2, 29520, Note_on_c, 0, 69, 0
2, 29520, Note_on_c, 0, 68, 44
2, 29520, Note_on_c, 0, 77, 44
2, 29760, Note_on_c, 0, 77, 0
2, 29760, Note_on_c, 0, 68, 0
2, 29760, Note_on_c, 0, 67, 48
2, 29760, Note_on_c, 0, 76, 48
2, 30000, Note_on_c, 0, 67, 0
2, 30000, Note_on_c, 0, 72, 38
2, 30240, Note_on_c, 0, 72, 0
2, 30240, Note_on_c, 0, 64, 38
2, 30480, Note_on_c, 0, 64, 0
2, 30480, Note_on_c, 0, 76, 0
2, 30480, Note_on_c, 0, 66, 38
2, 30480, Note_on_c, 0, 75, 38
2, 30720, Note_on_c, 0, 75, 0
2, 30720, Note_on_c, 0, 66, 0
2, 30720, Note_on_c, 0, 65, 44
2, 30720, Note_on_c, 0, 74, 44
2, 31200, Note_on_c, 0, 74, 0
2, 31200, Note_on_c, 0, 76, 42
2, 31560, Note_on_c, 0, 76, 0
2, 31560, Note_on_c, 0, 72, 35
2, 31680, Note_on_c, 0, 72, 0
2, 31680, Note_on_c, 0, 65, 0
2, 31680, Note_on_c, 0, 64, 38
2, 31680, Note_on_c, 0, 72, 38
2, 32160, Note_on_c, 0, 64, 0
2, 32410, Note_on_c, 0, 60, 56
2, 32640, Note_on_c, 0, 60, 0
2, 32640, Note_on_c, 0, 72, 0
2, 32640, Note_on_c, 0, 65, 63
2, 33120, Note_on_c, 0, 53, 28
2, 33120, Note_on_c, 0, 60, 28
2, 33840, Note_on_c, 0, 65, 0
2, 33840, Note_on_c, 0, 64, 49
2, 34080, Note_on_c, 0, 64, 0
2, 34080, Note_on_c, 0, 65, 52
2, 34320, Note_on_c, 0, 65, 0
2, 34320, Note_on_c, 0, 69, 53
2, 34560, Note_on_c, 0, 69, 0
2, 34560, Note_on_c, 0, 60, 0
2, 34560, Note_on_c, 0, 53, 0
2, 34560, Note_on_c, 0, 72, 52
2, 34800, Note_on_c, 0, 72, 0
2, 34800, Note_on_c, 0, 70, 41
2, 34800, Note_on_c, 0, 75, 51
2, 35030, Note_on_c, 0, 75, 0
2, 35030, Note_on_c, 0, 70, 0
2, 35040, Note_on_c, 0, 69, 41
2, 35040, Note_on_c, 0, 75, 56
2, 35760, Note_on_c, 0, 66, 48
2, 36000, Note_on_c, 0, 66, 0
2, 36000, Note_on_c, 0, 75, 0
2, 36000, Note_on_c, 0, 69, 0
2, 36000, Note_on_c, 0, 69, 38
2, 36000, Note_on_c, 0, 74, 50
2, 36240, Note_on_c, 0, 74, 0
2, 36240, Note_on_c, 0, 72, 51
2, 36480, Note_on_c, 0, 72, 0
2, 36480, Note_on_c, 0, 69, 0
2, 36480, Note_on_c, 0, 70, 55
2, 36720, Note_on_c, 0, 70, 0
2, 36720, Note_on_c, 0, 74, 49
2, 36960, Note_on_c, 0, 74, 0
2, 36960, Note_on_c, 0, 67, 53
2, 37200, Note_on_c, 0, 67, 0
2, 37200, Note_on_c, 0, 63, 48
2, 37200, Note_on_c, 0, 69, 48
2, 37440, Note_on_c, 0, 69, 0
2, 37440, Note_on_c, 0, 63, 0
2, 37440, Note_on_c, 0, 62, 52
2, 37440, Note_on_c, 0, 70, 52
2, 37680, Note_on_c, 0, 62, 0
2, 37680, Note_on_c, 0, 67, 41
2, 37920, Note_on_c, 0, 67, 0
2, 37920, Note_on_c, 0, 58, 41
2, 38160, Note_on_c, 0, 58, 0
2, 38160, Note_on_c, 0, 70, 0
2, 38160, Note_on_c, 0, 60, 41
2, 38160, Note_on_c, 0, 69, 41
2, 38400, Note_on_c, 0, 69, 0
2, 38400, Note_on_c, 0, 60, 0
2, 38400, Note_on_c, 0, 67, 48
2, 39120, Note_on_c, 0, 67, 0
2, 39120, Note_on_c, 0, 60, 41
2, 39120, Note_on_c, 0, 62, 41
2, 39357, Note_on_c, 0, 62, 0
2, 39360, Note_on_c, 0, 60, 0
2, 39360, Note_on_c, 0, 58, 41
2, 39360, Note_on_c, 0, 62, 41
2, 39840, Note_on_c, 0, 62, 0
2, 39840, Note_on_c, 0, 58, 0
2, 40090, Note_on_c, 0, 65, 42
2, 40320, Note_on_c, 0, 65, 0
2, 40320, Note_on_c, 0, 70, 51
2, 40800, Note_on_c, 0, 58, 28
2, 40800, Note_on_c, 0, 65, 28
2, 41520, Note_on_c, 0, 70, 0
2, 41520, Note_on_c, 0, 69, 40
2, 41760, Note_on_c, 0, 69, 0
2, 41760, Note_on_c, 0, 70, 44
2, 42000, Note_on_c, 0, 70, 0
2, 42000, Note_on_c, 0, 74, 45
2, 42240, Note_on_c, 0, 74, 0
2, 42240, Note_on_c, 0, 65, 0
2, 42240, Note_on_c, 0, 58, 0
2, 42240, Note_on_c, 0, 77, 44
2, 42480, Note_on_c, 0, 82, 46
2, 42710, Note_on_c, 0, 82, 0
2, 42720, Note_on_c, 0, 77, 0
2, 42720, Note_on_c, 0, 76, 36
2, 42720, Note_on_c, 0, 82, 46
2, 43440, Note_on_c, 0, 73, 36
2, 43680, Note_on_c, 0, 73, 0
2, 43680, Note_on_c, 0, 82, 0
2, 43680, Note_on_c, 0, 76, 0
2, 43680, Note_on_c, 0, 76, 36
2, 43685, Note_on_c, 0, 81, 40
2, 43925, Note_on_c, 0, 81, 0
2, 43925, Note_on_c, 0, 79, 37
2, 44160, Note_on_c, 0, 79, 0
2, 44160, Note_on_c, 0, 76, 0
2, 44160, Note_on_c, 0, 77, 45
2, 44400, Note_on_c, 0, 77, 0
2, 44400, Note_on_c, 0, 81, 42
2, 44640, Note_on_c, 0, 81, 0
2, 44640, Note_on_c, 0, 74, 45
2, 44880, Note_on_c, 0, 74, 0
2, 44880, Note_on_c, 0, 70, 40
2, 44880, Note_on_c, 0, 76, 40
2, 45120, Note_on_c, 0, 76, 0
2, 45120, Note_on_c, 0, 70, 0
2, 45120, Note_on_c, 0, 69, 36
2, 45120, Note_on_c, 0, 77, 44
2, 45360, Note_on_c, 0, 69, 0
2, 45360, Note_on_c, 0, 74, 37
2, 45600, Note_on_c, 0, 74, 0
2, 45600, Note_on_c, 0, 65, 37
2, 45840, Note_on_c, 0, 65, 0
2, 45840, Note_on_c, 0, 77, 0
2, 45840, Note_on_c, 0, 67, 37
2, 45840, Note_on_c, 0, 76, 37
2, 46080, Note_on_c, 0, 76, 0
2, 46080, Note_on_c, 0, 67, 0
2, 46080, Note_on_c, 0, 65, 40
2, 46080, Note_on_c, 0, 74, 42
2, 46320, Note_on_c, 0, 65, 0
2, 46320, Note_on_c, 0, 69, 38
2, 46560, Note_on_c, 0, 69, 0
2, 46800, Note_on_c, 0, 74, 0
2, 46800, Note_on_c, 0, 67, 36
2, 46800, Note_on_c, 0, 69, 36
2, 47040, Note_on_c, 0, 67, 0
2, 47040, Note_on_c, 0, 65, 35
2, 47280, Note_on_c, 0, 69, 0
2, 47520, Note_on_c, 0, 65, 0
2, 47520, Note_on_c, 0, 64, 29
2, 47520, Note_on_c, 0, 67, 30
2, 47880, Note_on_c, 0, 67, 0
2, 47880, Note_on_c, 0, 64, 0
2, 47880, Note_on_c, 0, 60, 34
2, 48000, Note_on_c, 0, 60, 0
2, 48000, Note_on_c, 0, 65, 46
2, 48480, Note_on_c, 0, 53, 23
2, 48480, Note_on_c, 0, 60, 23
2, 49200, Note_on_c, 0, 65, 0
2, 49200, Note_on_c, 0, 64, 40
2, 49440, Note_on_c, 0, 64, 0
2, 49440, Note_on_c, 0, 65, 43
2, 49680, Note_on_c, 0, 65, 0
2, 49680, Note_on_c, 0, 69, 44
2, 49920, Note_on_c, 0, 69, 0
2, 49920, Note_on_c, 0, 60, 0
2, 49920, Note_on_c, 0, 53, 0
2, 49920, Note_on_c, 0, 72, 46
2, 50160, Note_on_c, 0, 72, 0
2, 50160, Note_on_c, 0, 77, 46
2, 50390, Note_on_c, 0, 77, 0
2, 50400, Note_on_c, 0, 65, 34
2, 50410, Note_on_c, 0, 77, 45
2, 51367, Note_on_c, 0, 76, 31
2, 51370, Note_on_c, 0, 77, 0
2, 51605, Note_on_c, 0, 74, 29
2, 51607, Note_on_c, 0, 76, 0
2, 51840, Note_on_c, 0, 74, 0
2, 51840, Note_on_c, 0, 72, 37
2, 52080, Note_on_c, 0, 72, 0
2, 52080, Note_on_c, 0, 77, 34
2, 52320, Note_on_c, 0, 77, 0
2, 52320, Note_on_c, 0, 65, 0
2, 52320, Note_on_c, 0, 64, 37
2, 52320, Note_on_c, 0, 67, 36
2, 52560, Note_on_c, 0, 67, 0
2, 52560, Note_on_c, 0, 69, 36
2, 52800, Note_on_c, 0, 69, 0
2, 52800, Note_on_c, 0, 70, 41
2, 53040, Note_on_c, 0, 70, 0
2, 53040, Note_on_c, 0, 74, 34
2, 53280, Note_on_c, 0, 74, 0
2, 53280, Note_on_c, 0, 64, 0
2, 53280, Note_on_c, 0, 60, 41
2, 53280, Note_on_c, 0, 65, 41
2, 53520, Note_on_c, 0, 65, 0
2, 53520, Note_on_c, 0, 64, 41
2, 53520, Note_on_c, 0, 67, 41
2, 53760, Note_on_c, 0, 67, 0
2, 53760, Note_on_c, 0, 64, 0
2, 53760, Note_on_c, 0, 65, 44
2, 53760, Note_on_c, 0, 69, 44
2, 54000, Note_on_c, 0, 69, 0
2, 54000, Note_on_c, 0, 65, 0
2, 54000, Note_on_c, 0, 72, 34
2, 54240, Note_on_c, 0, 72, 0
2, 54240, Note_on_c, 0, 60, 0
2, 54240, Note_on_c, 0, 60, 40
2, 54240, Note_on_c, 0, 64, 40
2, 54240, Note_on_c, 0, 67, 40
2, 55200, Note_on_c, 0, 67, 0
2, 55200, Note_on_c, 0, 64, 0
2, 55200, Note_on_c, 0, 60, 0
2, 55220, Note_on_c, 0, 60, 45
2, 55680, Note_on_c, 0, 60, 0
2, 55680, Note_on_c, 0, 65, 52
2, 56160, Note_on_c, 0, 53, 23
2, 56160, Note_on_c, 0, 60, 23
2, 56880, Note_on_c, 0, 65, 0
2, 56880, Note_on_c, 0, 64, 40
2, 57120, Note_on_c, 0, 64, 0
2, 57120, Note_on_c, 0, 65, 43
2, 57360, Note_on_c, 0, 65, 0
2, 57360, Note_on_c, 0, 69, 44
2, 57600, Note_on_c, 0, 69, 0
2, 57600, Note_on_c, 0, 60, 0
2, 57600, Note_on_c, 0, 53, 0
2, 57600, Note_on_c, 0, 72, 46
2, 57840, Note_on_c, 0, 72, 0
2, 57840, Note_on_c, 0, 81, 45
2, 58070, Note_on_c, 0, 81, 0
2, 58080, Note_on_c, 0, 74, 29
2, 58080, Note_on_c, 0, 65, 29
2, 58080, Note_on_c, 0, 81, 32
2, 58080, Note_on_c, 0, 67, 29
2, 58800, Note_on_c, 0, 81, 0
2, 58800, Note_on_c, 0, 79, 36
2, 59040, Note_on_c, 0, 79, 0
2, 59040, Note_on_c, 0, 77, 36
2, 59280, Note_on_c, 0, 77, 0
2, 59280, Note_on_c, 0, 74, 36
2, 59520, Note_on_c, 0, 74, 0
2, 59520, Note_on_c, 0, 67, 0
2, 59520, Note_on_c, 0, 65, 0
2, 59520, Note_on_c, 0, 74, 0
2, 59520, Note_on_c, 0, 72, 39
2, 59760, Note_on_c, 0, 72, 0
2, 59760, Note_on_c, 0, 77, 35
2, 60000, Note_on_c, 0, 77, 0
2, 60000, Note_on_c, 0, 64, 29
2, 60000, Note_on_c, 0, 67, 36
2, 60240, Note_on_c, 0, 67, 0
2, 60240, Note_on_c, 0, 69, 36
2, 60480, Note_on_c, 0, 69, 0
2, 60480, Note_on_c, 0, 70, 43
2, 60720, Note_on_c, 0, 70, 0
2, 60720, Note_on_c, 0, 74, 34
2, 60960, Note_on_c, 0, 74, 0
2, 60960, Note_on_c, 0, 64, 0
2, 60960, Note_on_c, 0, 62, 32
2, 60960, Note_on_c, 0, 67, 32
2, 61200, Note_on_c, 0, 67, 0
2, 61200, Note_on_c, 0, 69, 32
2, 61200, Note_on_c, 0, 66, 32
2, 61440, Note_on_c, 0, 66, 0
2, 61440, Note_on_c, 0, 69, 0
2, 61440, Note_on_c, 0, 70, 36
2, 61680, Note_on_c, 0, 70, 0
2, 61680, Note_on_c, 0, 74, 33
2, 61920, Note_on_c, 0, 74, 0
2, 61920, Note_on_c, 0, 62, 0
2, 61920, Note_on_c, 0, 58, 29
2, 61920, Note_on_c, 0, 62, 29
2, 62160, Note_on_c, 0, 62, 0
2, 62160, Note_on_c, 0, 60, 29
2, 62160, Note_on_c, 0, 64, 29
2, 62400, Note_on_c, 0, 64, 0
2, 62400, Note_on_c, 0, 58, 0
2, 62400, Note_on_c, 0, 57, 29
2, 62400, Note_on_c, 0, 65, 29
2, 63360, Note_on_c, 0, 65, 0
2, 63360, Note_on_c, 0, 57, 0
2, 63360, Note_on_c, 0, 60, 0
2, 63360, End_track
3, 0, Start_track
3, 0, Title_t, "Piano left"
3, 0, Program_c, 0, 0
3, 0, Control_c, 0, 7, 100
3, 0, Control_c, 0, 10, 64
3, 0, Control_c, 0, 64, 0
3, 1439, Control_c, 0, 91, 127
3, 1493, Control_c, 0, 64, 127
3, 1920, Note_on_c, 0, 41, 46
3, 2400, Note_on_c, 0, 48, 22
3, 2400, Note_on_c, 0, 57, 22
3, 3128, Control_c, 0, 64, 0
3, 3416, Control_c, 0, 64, 127
3, 4200, Note_on_c, 0, 46, 31
3, 4204, Control_c, 0, 64, 0
3, 4253, Control_c, 0, 64, 127
3, 4260, Note_on_c, 0, 53, 35
3, 4270, Note_on_c, 0, 46, 0
3, 4320, Note_on_c, 0, 57, 0
3, 4320, Note_on_c, 0, 41, 0
3, 4320, Note_on_c, 0, 48, 0
3, 4330, Note_on_c, 0, 62, 39
3, 5280, Note_on_c, 0, 60, 36
3, 5290, Note_on_c, 0, 62, 0
3, 5290, Control_c, 0, 64, 0
3, 5520, Note_on_c, 0, 60, 0
3, 5520, Note_on_c, 0, 58, 34
3, 5760, Note_on_c, 0, 58, 0
3, 5760, Note_on_c, 0, 53, 0
3, 5760, Note_on_c, 0, 48, 33
3, 5760, Note_on_c, 0, 57, 33
3, 5802, Control_c, 0, 64, 127
3, 6240, Note_on_c, 0, 57, 0
3, 6240, Note_on_c, 0, 48, 0
3, 6240, Note_on_c, 0, 58, 38
3, 6240, Note_on_c, 0, 48, 38
3, 6246, Control_c, 0, 64, 0
3, 6480, Note_on_c, 0, 58, 0
3, 6480, Note_on_c, 0, 57, 38
3, 6720, Note_on_c, 0, 57, 0
3, 6720, Note_on_c, 0, 55, 42
3, 6847, Control_c, 0, 64, 127
3, 7200, Note_on_c, 0, 55, 0
3, 7200, Note_on_c, 0, 48, 0
3, 7200, Note_on_c, 0, 45, 36
3, 7200, Note_on_c, 0, 53, 36
3, 7203, Control_c, 0, 64, 0
3, 7440, Note_on_c, 0, 53, 0
3, 7440, Note_on_c, 0, 45, 0
3, 7440, Note_on_c, 0, 48, 39
3, 7440, Note_on_c, 0, 55, 39
3, 7680, Note_on_c, 0, 55, 0
3, 7680, Note_on_c, 0, 48, 0
3, 7680, Note_on_c, 0, 53, 42
3, 7680, Note_on_c, 0, 57, 42
3, 7800, Control_c, 0, 64, 127
3, 8160, Note_on_c, 0, 57, 0
3, 8160, Note_on_c, 0, 53, 0
3, 8160, Note_on_c, 0, 48, 39
3, 8160, Note_on_c, 0, 55, 39
3, 8165, Control_c, 0, 64, 0
3, 8400, Note_on_c, 0, 48, 0
3, 8400, Note_on_c, 0, 50, 50
3, 8640, Note_on_c, 0, 50, 0
3, 8640, Note_on_c, 0, 48, 47
3, 8880, Note_on_c, 0, 48, 0
3, 8880, Note_on_c, 0, 46, 47
3, 9120, Note_on_c, 0, 46, 0
3, 9120, Note_on_c, 0, 55, 0
3, 9120, Note_on_c, 0, 43, 48
3, 9360, Note_on_c, 0, 43, 0
3, 9360, Note_on_c, 0, 45, 48
3, 9600, Note_on_c, 0, 45, 0
3, 9600, Note_on_c, 0, 41, 46
3, 9798, Control_c, 0, 64, 127
3, 10080, Note_on_c, 0, 48, 22
3, 10080, Note_on_c, 0, 57, 22
3, 10810, Control_c, 0, 64, 0
3, 11280, Control_c, 0, 64, 127
3, 11880, Note_on_c, 0, 49, 28
3, 11882, Control_c, 0, 64, 0
3, 11916, Control_c, 0, 64, 127
3, 11940, Note_on_c, 0, 57, 30
3, 11950, Note_on_c, 0, 49, 0
3, 12000, Note_on_c, 0, 57, 0
3, 12000, Note_on_c, 0, 41, 0
3, 12000, Note_on_c, 0, 48, 0
3, 12000, Note_on_c, 0, 64, 35
3, 12968, Control_c, 0, 64, 0
3, 13440, Note_on_c, 0, 64, 0
3, 13440, Note_on_c, 0, 50, 33
3, 13440, Note_on_c, 0, 62, 33
3, 13500, Control_c, 0, 64, 127
3, 13935, Control_c, 0, 64, 0
3, 14160, Note_on_c, 0, 62, 0
3, 14160, Note_on_c, 0, 50, 0
3, 14160, Note_on_c, 0, 57, 0
3, 14160, Note_on_c, 0, 60, 29
3, 14160, Note_on_c, 0, 53, 29
3, 14400, Note_on_c, 0, 53, 0
3, 14400, Note_on_c, 0, 55, 33
3, 14537, Control_c, 0, 64, 127
3, 14893, Control_c, 0, 64, 0
3, 15120, Note_on_c, 0, 55, 0
3, 15120, Note_on_c, 0, 60, 0
3, 15120, Note_on_c, 0, 57, 33
3, 15120, Note_on_c, 0, 60, 33
3, 15360, Note_on_c, 0, 60, 0
3, 15360, Note_on_c, 0, 57, 0
3, 15360, Note_on_c, 0, 59, 36
3, 15360, Note_on_c, 0, 55, 36
3, 15410, Control_c, 0, 64, 127
3, 15600, Note_on_c, 0, 59, 0
3, 15600, Note_on_c, 0, 67, 33
3, 15840, Note_on_c, 0, 67, 0
3, 15840, Note_on_c, 0, 57, 33
3, 15843, Control_c, 0, 64, 0
3, 16080, Note_on_c, 0, 57, 0
3, 16080, Note_on_c, 0, 59, 33
3, 16320, Note_on_c, 0, 59, 0
3, 16320, Note_on_c, 0, 55, 0
3, 16320, Note_on_c, 0, 48, 37
3, 16320, Note_on_c, 0, 60, 37
3, 16560, Note_on_c, 0, 60, 0
3, 16560, Note_on_c, 0, 48, 0
3, 16560, Note_on_c, 0, 50, 46
3, 16800, Note_on_c, 0, 50, 0
3, 16800, Note_on_c, 0, 46, 41
3, 17040, Note_on_c, 0, 46, 0
3, 17040, Note_on_c, 0, 43, 40
3, 17280, Note_on_c, 0, 43, 0
3, 17280, Note_on_c, 0, 41, 46
3, 17421, Control_c, 0, 64, 127
3, 17760, Note_on_c, 0, 48, 22
3, 17760, Note_on_c, 0, 57, 22
3, 18482, Control_c, 0, 64, 0
3, 18819, Control_c, 0, 64, 127
3, 19560, Note_on_c, 0, 46, 31
3, 19582, Control_c, 0, 64, 0
3, 19617, Control_c, 0, 64, 127
3, 19620, Note_on_c, 0, 53, 35
3, 19630, Note_on_c, 0, 46, 0
3, 19680, Note_on_c, 0, 57, 0
3, 19680, Note_on_c, 0, 41, 0
3, 19680, Note_on_c, 0, 48, 0
3, 19690, Note_on_c, 0, 62, 39
3, 20640, Note_on_c, 0, 60, 34
3, 20650, Note_on_c, 0, 62, 0
3, 20654, Control_c, 0, 64, 0
3, 20880, Note_on_c, 0, 60, 0
3, 20880, Note_on_c, 0, 58, 31
3, 21120, Note_on_c, 0, 58, 0
3, 21120, Note_on_c, 0, 53, 0
3, 21120, Note_on_c, 0, 48, 33
3, 21120, Note_on_c, 0, 57, 33
3, 21240, Control_c, 0, 64, 127
3, 21600, Note_on_c, 0, 57, 0
3, 21600, Note_on_c, 0, 48, 0
3, 21600, Note_on_c, 0, 58, 37
3, 21600, Note_on_c, 0, 48, 38
3, 21607, Control_c, 0, 64, 0
3, 21840, Note_on_c, 0, 58, 0
3, 21840, Note_on_c, 0, 57, 37
3, 22080, Note_on_c, 0, 57, 0
3, 22080, Note_on_c, 0, 55, 40
3, 22179, Control_c, 0, 64, 127
3, 22560, Note_on_c, 0, 55, 0
3, 22560, Note_on_c, 0, 48, 0
3, 22560, Note_on_c, 0, 45, 36
3, 22560, Note_on_c, 0, 53, 36
3, 22564, Control_c, 0, 64, 0
3, 22800, Note_on_c, 0, 53, 0
3, 22800, Note_on_c, 0, 45, 0
3, 22800, Note_on_c, 0, 48, 39
3, 22800, Note_on_c, 0, 55, 39
3, 23040, Note_on_c, 0, 55, 0
3, 23040, Note_on_c, 0, 48, 0
3, 23040, Note_on_c, 0, 53, 42
3, 23040, Note_on_c, 0, 57, 42
3, 23139, Control_c, 0, 64, 127
3, 23520, Note_on_c, 0, 57, 0
3, 23520, Note_on_c, 0, 53, 0
3, 23520, Note_on_c, 0, 48, 39
3, 23520, Note_on_c, 0, 55, 39
3, 23534, Control_c, 0, 64, 0
3, 23760, Note_on_c, 0, 48, 0
3, 23760, Note_on_c, 0, 50, 50
3, 24000, Note_on_c, 0, 50, 0
3, 24000, Note_on_c, 0, 48, 47
3, 24240, Note_on_c, 0, 48, 0
3, 24240, Note_on_c, 0, 46, 47
3, 24480, Note_on_c, 0, 46, 0
3, 24480, Note_on_c, 0, 55, 0
3, 24480, Note_on_c, 0, 43, 48
3, 24720, Note_on_c, 0, 43, 0
3, 24720, Note_on_c, 0, 45, 48
3, 24960, Note_on_c, 0, 45, 0
3, 24960, Note_on_c, 0, 41, 46
3, 25101, Control_c, 0, 64, 127
3, 25440, Note_on_c, 0, 48, 22
3, 25440, Note_on_c, 0, 57, 22
3, 26163, Control_c, 0, 64, 0
3, 26442, Control_c, 0, 64, 127
3, 27240, Note_on_c, 0, 49, 28
3, 27248, Control_c, 0, 64, 0
3, 27300, Control_c, 0, 64, 127
3, 27300, Note_on_c, 0, 57, 30
3, 27310, Note_on_c, 0, 49, 0
3, 27360, Note_on_c, 0, 57, 0
3, 27360, Note_on_c, 0, 41, 0
3, 27360, Note_on_c, 0, 48, 0
3, 27360, Note_on_c, 0, 64, 35
3, 28097, Control_c, 0, 64, 0
3, 28800, Note_on_c, 0, 64, 0
3, 28800, Note_on_c, 0, 50, 33
3, 28800, Note_on_c, 0, 62, 33
3, 28920, Control_c, 0, 64, 127
3, 29288, Control_c, 0, 64, 0
3, 29520, Note_on_c, 0, 62, 0
3, 29520, Note_on_c, 0, 50, 0
3, 29520, Note_on_c, 0, 57, 0
3, 29520, Note_on_c, 0, 60, 29
3, 29520, Note_on_c, 0, 53, 29
3, 29760, Note_on_c, 0, 53, 0
3, 29760, Note_on_c, 0, 55, 33
3, 29863, Control_c, 0, 64, 127
3, 30248, Control_c, 0, 64, 0
3, 30480, Note_on_c, 0, 55, 0
3, 30480, Note_on_c, 0, 60, 0
3, 30480, Note_on_c, 0, 57, 33
3, 30480, Note_on_c, 0, 60, 33
3, 30720, Note_on_c, 0, 60, 0
3, 30720, Note_on_c, 0, 57, 0
3, 30720, Note_on_c, 0, 59, 36
3, 30720, Note_on_c, 0, 55, 36
3, 30840, Control_c, 0, 64, 127
3, 30960, Note_on_c, 0, 59, 0
3, 30960, Note_on_c, 0, 67, 33
3, 31200, Note_on_c, 0, 67, 0
3, 31200, Note_on_c, 0, 57, 33
3, 31212, Control_c, 0, 64, 0
3, 31440, Note_on_c, 0, 57, 0
3, 31440, Note_on_c, 0, 59, 33
3, 31680, Note_on_c, 0, 59, 0
3, 31680, Note_on_c, 0, 55, 0
3, 31680, Note_on_c, 0, 48, 37
3, 31680, Note_on_c, 0, 60, 37
3, 31920, Note_on_c, 0, 60, 0
3, 31920, Note_on_c, 0, 48, 0
3, 31920, Note_on_c, 0, 50, 46
3, 32160, Note_on_c, 0, 50, 0
3, 32160, Note_on_c, 0, 46, 42
3, 32400, Note_on_c, 0, 46, 0
3, 32400, Note_on_c, 0, 43, 40
3, 32640, Note_on_c, 0, 43, 0
3, 32640, Note_on_c, 0, 41, 50
3, 32810, Control_c, 0, 64, 127
3, 33120, Note_on_c, 0, 48, 24
3, 33120, Note_on_c, 0, 57, 24
3, 33843, Control_c, 0, 64, 0
3, 34292, Control_c, 0, 64, 127
3, 34560, Note_on_c, 0, 57, 0
3, 34560, Note_on_c, 0, 48, 0
3, 34560, Note_on_c, 0, 41, 0
3, 34560, Control_c, 0, 64, 0
3, 34732, Control_c, 0, 64, 127
3, 34800, Note_on_c, 0, 48, 36
3, 34800, Note_on_c, 0, 55, 39
3, 35040, Note_on_c, 0, 55, 0
3, 35040, Note_on_c, 0, 48, 0
3, 35040, Note_on_c, 0, 54, 41
3, 35040, Note_on_c, 0, 50, 41
3, 35047, Control_c, 0, 64, 0
3, 35280, Note_on_c, 0, 54, 0
3, 35280, Note_on_c, 0, 57, 41
3, 35520, Note_on_c, 0, 57, 0
3, 35520, Note_on_c, 0, 62, 44
3, 36240, Note_on_c, 0, 50, 0
3, 36240, Note_on_c, 0, 54, 41
3, 36480, Note_on_c, 0, 54, 0
3, 36480, Note_on_c, 0, 55, 46
3, 36617, Control_c, 0, 64, 127
3, 36978, Control_c, 0, 64, 0
3, 37200, Note_on_c, 0, 55, 0
3, 37200, Note_on_c, 0, 62, 0
3, 37200, Note_on_c, 0, 54, 39
3, 37200, Note_on_c, 0, 48, 39
3, 37440, Note_on_c, 0, 48, 0
3, 37440, Note_on_c, 0, 54, 0
3, 37440, Note_on_c, 0, 50, 44
3, 37440, Note_on_c, 0, 55, 44
3, 37577, Control_c, 0, 64, 127
3, 37934, Control_c, 0, 64, 0
3, 38160, Note_on_c, 0, 55, 0
3, 38160, Note_on_c, 0, 50, 0
3, 38160, Note_on_c, 0, 51, 40
3, 38400, Note_on_c, 0, 51, 0
3, 38400, Note_on_c, 0, 58, 45
3, 38400, Note_on_c, 0, 50, 45
3, 38520, Control_c, 0, 64, 127
3, 38640, Note_on_c, 0, 58, 0
3, 38640, Note_on_c, 0, 62, 40
3, 38880, Note_on_c, 0, 62, 0
3, 38880, Note_on_c, 0, 55, 40
3, 38882, Control_c, 0, 64, 0
3, 39120, Note_on_c, 0, 55, 0
3, 39120, Note_on_c, 0, 50, 0
3, 39120, Note_on_c, 0, 50, 37
3, 39120, Note_on_c, 0, 57, 37
3, 39600, Note_on_c, 0, 57, 0
3, 39600, Note_on_c, 0, 50, 0
3, 39600, Note_on_c, 0, 55, 42
3, 39840, Note_on_c, 0, 55, 0
3, 39840, Note_on_c, 0, 43, 44
3, 40080, Note_on_c, 0, 43, 0
3, 40080, Note_on_c, 0, 45, 38
3, 40320, Note_on_c, 0, 45, 0
3, 40320, Note_on_c, 0, 34, 42
3, 40461, Control_c, 0, 64, 127
3, 40800, Note_on_c, 0, 34, 0
3, 40800, Note_on_c, 0, 53, 24
3, 40800, Note_on_c, 0, 62, 24
3, 41523, Control_c, 0, 64, 0
3, 41859, Control_c, 0, 64, 127
3, 42240, Note_on_c, 0, 62, 0
3, 42240, Note_on_c, 0, 53, 0
3, 42240, Control_c, 0, 64, 0
3, 42377, Control_c, 0, 64, 127
3, 42480, Note_on_c, 0, 55, 28
3, 42480, Note_on_c, 0, 62, 28
3, 42720, Note_on_c, 0, 62, 0
3, 42720, Note_on_c, 0, 55, 0
3, 42720, Note_on_c, 0, 61, 27
3, 42720, Note_on_c, 0, 57, 25
3, 42731, Control_c, 0, 64, 0
3, 42960, Note_on_c, 0, 61, 0
3, 42960, Note_on_c, 0, 64, 29
3, 43200, Note_on_c, 0, 64, 0
3, 43200, Note_on_c, 0, 69, 30
3, 43920, Note_on_c, 0, 57, 0
3, 43920, Note_on_c, 0, 61, 33
3, 44160, Note_on_c, 0, 61, 0
3, 44160, Note_on_c, 0, 62, 41
3, 44220, Control_c, 0, 64, 127
3, 44655, Control_c, 0, 64, 0
3, 44880, Note_on_c, 0, 62, 0
3, 44880, Note_on_c, 0, 69, 0
3, 44880, Note_on_c, 0, 61, 31
3, 44880, Note_on_c, 0, 55, 31
3, 45120, Note_on_c, 0, 55, 0
3, 45120, Note_on_c, 0, 61, 0
3, 45120, Note_on_c, 0, 57, 37
3, 45120, Note_on_c, 0, 62, 37
3, 45180, Control_c, 0, 64, 127
3, 45611, Control_c, 0, 64, 0
3, 45840, Note_on_c, 0, 62, 0
3, 45840, Note_on_c, 0, 57, 0
3, 45840, Note_on_c, 0, 58, 29
3, 46080, Note_on_c, 0, 58, 0
3, 46080, Note_on_c, 0, 57, 34
3, 46158, Control_c, 0, 64, 127
3, 46560, Note_on_c, 0, 62, 37
3, 46567, Control_c, 0, 64, 0
3, 46800, Note_on_c, 0, 62, 0
3, 46800, Note_on_c, 0, 61, 31
3, 46800, Note_on_c, 0, 64, 31
3, 47040, Note_on_c, 0, 64, 0
3, 47040, Note_on_c, 0, 61, 0
3, 47040, Note_on_c, 0, 57, 0
3, 47040, Note_on_c, 0, 62, 36
3, 47040, Note_on_c, 0, 57, 30
3, 47280, Note_on_c, 0, 57, 0
3, 47280, Note_on_c, 0, 58, 30
3, 47520, Note_on_c, 0, 62, 0
3, 47520, Note_on_c, 0, 60, 30
3, 47760, Note_on_c, 0, 60, 0
3, 47760, Note_on_c, 0, 58, 0
3, 47760, Note_on_c, 0, 48, 32
3, 47887, Control_c, 0, 64, 127
3, 48000, Note_on_c, 0, 48, 0
3, 48000, Note_on_c, 0, 41, 37
3, 48480, Note_on_c, 0, 48, 19
3, 48480, Note_on_c, 0, 57, 19
3, 49202, Control_c, 0, 64, 0
3, 49454, Control_c, 0, 64, 127
3, 49920, Control_c, 0, 64, 0
3, 49958, Control_c, 0, 64, 127
3, 50277, Control_c, 0, 64, 0
3, 50280, Note_on_c, 0, 46, 27
3, 50330, Control_c, 0, 64, 127
3, 50340, Note_on_c, 0, 53, 31
3, 50350, Note_on_c, 0, 46, 0
3, 50400, Note_on_c, 0, 57, 0
3, 50400, Note_on_c, 0, 41, 0
3, 50400, Note_on_c, 0, 48, 0
3, 50410, Note_on_c, 0, 62, 35
3, 51360, Note_on_c, 0, 60, 29
3, 51370, Note_on_c, 0, 62, 0
3, 51375, Control_c, 0, 64, 0
3, 51600, Note_on_c, 0, 60, 0
3, 51600, Note_on_c, 0, 58, 27
3, 51840, Note_on_c, 0, 58, 0
3, 51840, Note_on_c, 0, 53, 0
3, 51840, Note_on_c, 0, 48, 29
3, 51840, Note_on_c, 0, 57, 29
3, 51911, Control_c, 0, 64, 127
3, 52320, Note_on_c, 0, 57, 0
3, 52320, Note_on_c, 0, 48, 0
3, 52320, Note_on_c, 0, 58, 33
3, 52320, Note_on_c, 0, 48, 34
3, 52334, Control_c, 0, 64, 0
3, 52560, Note_on_c, 0, 58, 0
3, 52560, Note_on_c, 0, 57, 33
3, 52800, Note_on_c, 0, 57, 0
3, 52800, Note_on_c, 0, 55, 36
3, 52927, Control_c, 0, 64, 127
3, 53280, Note_on_c, 0, 55, 0
3, 53280, Note_on_c, 0, 48, 0
3, 53280, Note_on_c, 0, 45, 32
3, 53280, Note_on_c, 0, 53, 32
3, 53284, Control_c, 0, 64, 0
3, 53520, Note_on_c, 0, 53, 0
3, 53520, Note_on_c, 0, 45, 0
3, 53520, Note_on_c, 0, 48, 35
3, 53520, Note_on_c, 0, 55, 35
3, 53760, Note_on_c, 0, 55, 0
3, 53760, Note_on_c, 0, 48, 0
3, 53760, Note_on_c, 0, 53, 37
3, 53760, Note_on_c, 0, 57, 37
3, 53859, Control_c, 0, 64, 127
3, 54240, Note_on_c, 0, 57, 0
3, 54240, Note_on_c, 0, 53, 0
3, 54240, Note_on_c, 0, 48, 35
3, 54240, Note_on_c, 0, 55, 35
3, 54247, Control_c, 0, 64, 0
3, 54480, Note_on_c, 0, 48, 0
3, 54480, Note_on_c, 0, 50, 45
3, 54720, Note_on_c, 0, 50, 0
3, 54720, Note_on_c, 0, 48, 42
3, 54960, Note_on_c, 0, 48, 0
3, 54960, Note_on_c, 0, 46, 42
3, 55200, Note_on_c, 0, 46, 0
3, 55200, Note_on_c, 0, 55, 0
3, 55200, Note_on_c, 0, 43, 43
3, 55440, Note_on_c, 0, 43, 0
3, 55440, Note_on_c, 0, 45, 43
3, 55680, Note_on_c, 0, 45, 0
3, 55680, Note_on_c, 0, 41, 41
3, 55807, Control_c, 0, 64, 127
3, 56160, Note_on_c, 0, 48, 19
3, 56160, Note_on_c, 0, 57, 19
3, 56894, Control_c, 0, 64, 0
3, 57247, Control_c, 0, 64, 127
3, 58080, Note_on_c, 0, 57, 0
3, 58080, Note_on_c, 0, 48, 0
3, 58080, Note_on_c, 0, 41, 0
3, 58080, Note_on_c, 0, 43, 26
3, 58080, Note_on_c, 0, 47, 26
3, 58080, Note_on_c, 0, 59, 26
3, 58090, Control_c, 0, 64, 0
3, 58264, Control_c, 0, 64, 127
3, 58803, Control_c, 0, 64, 0
3, 59181, Control_c, 0, 64, 127
3, 59520, Note_on_c, 0, 59, 0
3, 59520, Note_on_c, 0, 47, 0
3, 59520, Note_on_c, 0, 43, 0
3, 59520, Control_c, 0, 64, 0
3, 59520, Note_on_c, 0, 57, 29
3, 59520, Note_on_c, 0, 48, 29
3, 59520, Note_on_c, 0, 60, 29
3, 59623, Control_c, 0, 64, 127
3, 60000, Note_on_c, 0, 60, 0
3, 60000, Note_on_c, 0, 48, 0
3, 60000, Note_on_c, 0, 57, 0
3, 60000, Note_on_c, 0, 58, 29
3, 60000, Note_on_c, 0, 60, 29
3, 60000, Note_on_c, 0, 48, 29
3, 60008, Control_c, 0, 64, 0
3, 60240, Note_on_c, 0, 58, 0
3, 60240, Note_on_c, 0, 57, 29
3, 60480, Note_on_c, 0, 57, 0
3, 60480, Note_on_c, 0, 55, 29
3, 60629, Control_c, 0, 64, 127
3, 60960, Note_on_c, 0, 55, 0
3, 60960, Note_on_c, 0, 48, 0
3, 60960, Note_on_c, 0, 60, 0
3, 60960, Note_on_c, 0, 46, 27
3, 60960, Note_on_c, 0, 55, 27
3, 60973, Control_c, 0, 64, 0
3, 61200, Note_on_c, 0, 55, 0
3, 61200, Note_on_c, 0, 46, 0
3, 61200, Note_on_c, 0, 50, 27
3, 61200, Note_on_c, 0, 57, 27
3, 61440, Note_on_c, 0, 57, 0
3, 61440, Note_on_c, 0, 50, 0
3, 61440, Note_on_c, 0, 58, 32
3, 61440, Note_on_c, 0, 55, 32
3, 61525, Control_c, 0, 64, 127
3, 61920, Note_on_c, 0, 55, 0
3, 61920, Note_on_c, 0, 58, 0
3, 61920, Note_on_c, 0, 48, 26
3, 61920, Note_on_c, 0, 55, 26
3, 61934, Control_c, 0, 64, 0
3, 62160, Note_on_c, 0, 36, 26
3, 62400, Note_on_c, 0, 36, 0
3, 62400, Note_on_c, 0, 55, 0
3, 62400, Note_on_c, 0, 41, 26
3, 62499, Control_c, 0, 64, 127
3, 63360, Note_on_c, 0, 41, 0
3, 63360, Note_on_c, 0, 48, 0
3, 64960, Control_c, 0, 64, 0
3, 64960, End_track
4, 0, Start_track
4, 0, Title_t, "Schumann: Scenes from Childhood Op. 15"
4, 0, End_track
5, 0, Start_track
5, 0, Title_t, "Copyright © 1997 by Bernd Krueger"
5, 0, End_track
6, 0, Start_track
6, 0, Title_t, "http://www.piano-midi.de"
6, 0, End_track
7, 0, Start_track
7, 0, Title_t, "Edition:2014-03-26"
7, 0, End_track
0, 0, End_of_file
