0, 0, Header, 1, 8, 480
1, 0, Start_track
1, 0, Title_t, "Kinderszenen Opus 15"
1, 0, Title_t, "Glückes genug"
1, 0, Copyright_t, "Copyright © 1997 von Bernd Krüger."
1, 0, Text_t, "Robert Schumann"
1, 0, Text_t, "Fertiggestellt am 2.12.97\012"
1, 0, Text_t, "Korrekturen am 4.9.98\012"
1, 0, Text_t, "Anpassungen an Digitalpiano am 1.1.99\012"
1, 0, Text_t, "Update am 16.6.99\012"
1, 0, Text_t, "Update am 9.7.99\012"
1, 0, Text_t, "Update am 18.7.99\012"
1, 0, Text_t, "Normierung: 23.12.2002\012"
1, 0, Text_t, "Update am 8.10.2008\012"
1, 0, Text_t, "Update am 26.3.2014\012"
1, 0, Text_t, "Dauer: 1:02 Minuten\012"
1, 0, Time_signature, 2, 2, 24, 8
1, 0, Key_signature, 2, "major"
1, 0, Tempo, 750000
1, 0, Marker_t, "Perfect Happiness"
1, 960, Tempo, 750000
1, 1020, Tempo, 745342
1, 1080, Tempo, 740741
1, 1120, Tempo, 736196
1, 1180, Tempo, 731707
1, 1240, Tempo, 727273
1, 1280, Tempo, 722892
1, 1340, Tempo, 718563
1, 1400, Tempo, 714286
1, 1440, Tempo, 710059
1, 1920, Tempo, 750000
1, 1940, Tempo, 745342
1, 2000, Tempo, 740741
1, 2040, Tempo, 736196
1, 2100, Tempo, 731707
1, 2140, Tempo, 727273
1, 2200, Tempo, 722892
1, 2240, Tempo, 718563
1, 2300, Tempo, 714286
1, 2340, Tempo, 710059
1, 2380, Tempo, 705882
1, 2400, Tempo, 697674
1, 3820, Tempo, 689655
1, 3900, Tempo, 693642
1, 3980, Tempo, 697674
1, 4040, Tempo, 701754
1, 4120, Tempo, 705882
1, 4180, Tempo, 710059
1, 4260, Tempo, 714286
1, 4340, Tempo, 718563
1, 4400, Tempo, 722892
1, 4480, Tempo, 727273
1, 4540, Tempo, 731707
1, 4560, Tempo, 736196
1, 4820, Tempo, 731707
1, 4900, Tempo, 727273
1, 4960, Tempo, 722892
1, 5020, Tempo, 718563
1, 5100, Tempo, 714286
1, 5160, Tempo, 710059
1, 5220, Tempo, 705882
1, 5280, Tempo, 701754
1, 5760, Tempo, 731707
1, 5820, Tempo, 727273
1, 5880, Tempo, 722892
1, 5920, Tempo, 718563
1, 5980, Tempo, 714286
1, 6040, Tempo, 710059
1, 6080, Tempo, 705882
1, 6140, Tempo, 701754
1, 6200, Tempo, 697674
1, 6240, Tempo, 693642
1, 6720, Tempo, 697674
1, 6740, Tempo, 697674
1, 6800, Tempo, 701754
1, 6860, Tempo, 705882
1, 6920, Tempo, 710059
1, 6960, Tempo, 714286
1, 7020, Tempo, 718563
1, 7080, Tempo, 722892
1, 7140, Tempo, 727273
1, 7200, Tempo, 693642
1, 7680, Tempo, 685714
1, 7740, Tempo, 689655
1, 7800, Tempo, 693642
1, 7840, Tempo, 697674
1, 7900, Tempo, 701754
1, 7960, Tempo, 705882
1, 8000, Tempo, 710059
1, 8060, Tempo, 714286
1, 8120, Tempo, 718563
1, 8160, Tempo, 722892
1, 8640, Tempo, 750000
1, 8700, Tempo, 745342
1, 8760, Tempo, 740741
1, 8800, Tempo, 736196
1, 9000, Tempo, 769231
1, 9120, Tempo, 722892
1, 9600, Tempo, 750000
1, 9620, Tempo, 745342
1, 9680, Tempo, 740741
1, 9720, Tempo, 736196
1, 9780, Tempo, 731707
1, 9820, Tempo, 727273
1, 9880, Tempo, 722892
1, 9920, Tempo, 718563
1, 9980, Tempo, 714286
1, 10020, Tempo, 710059
1, 10060, Tempo, 705882
1, 10080, Tempo, 697674
1, 11500, Tempo, 689655
1, 11520, Tempo, 750000
1, 11580, Tempo, 693642
1, 11660, Tempo, 697674
1, 11720, Tempo, 701754
1, 11800, Tempo, 705882
1, 11860, Tempo, 710059
1, 11940, Tempo, 714286
1, 12020, Tempo, 718563
1, 12080, Tempo, 722892
1, 12160, Tempo, 727273
1, 12220, Tempo, 731707
1, 12240, Tempo, 736196
1, 12360, Tempo, 769231
1, 12500, Tempo, 731707
1, 12580, Tempo, 727273
1, 12640, Tempo, 722892
1, 12700, Tempo, 718563
1, 12780, Tempo, 714286
1, 12840, Tempo, 710059
1, 12900, Tempo, 705882
1, 12960, Tempo, 701754
1, 13440, Tempo, 731707
1, 13500, Tempo, 727273
1, 13560, Tempo, 722892
1, 13600, Tempo, 718563
1, 13660, Tempo, 714286
1, 13720, Tempo, 710059
1, 13760, Tempo, 705882
1, 13820, Tempo, 701754
1, 13880, Tempo, 697674
1, 13920, Tempo, 693642
1, 14400, Tempo, 697674
1, 14420, Tempo, 697674
1, 14480, Tempo, 701754
1, 14540, Tempo, 705882
1, 14600, Tempo, 710059
1, 14640, Tempo, 714286
1, 14700, Tempo, 718563
1, 14760, Tempo, 722892
1, 14820, Tempo, 727273
1, 14880, Tempo, 693642
1, 15360, Tempo, 701754
1, 15380, Tempo, 731707
1, 15440, Tempo, 736196
1, 15500, Tempo, 740741
1, 15540, Tempo, 745342
1, 15600, Tempo, 750000
1, 15640, Tempo, 754717
1, 15700, Tempo, 759494
1, 15740, Tempo, 764331
1, 15800, Tempo, 769231
1, 15840, Tempo, 774194
1, 16080, Tempo, 805369
1, 16320, Tempo, 774194
1, 16360, Tempo, 769231
1, 16400, Tempo, 764331
1, 16440, Tempo, 759494
1, 16480, Tempo, 736196
1, 16680, Tempo, 816327
1, 16760, Tempo, 714286
1, 16800, Tempo, 710059
1, 17280, Tempo, 750000
1, 17300, Tempo, 745342
1, 17360, Tempo, 740741
1, 17400, Tempo, 736196
1, 17460, Tempo, 731707
1, 17740, Tempo, 705882
1, 17760, Tempo, 697674
1, 19180, Tempo, 689655
1, 19260, Tempo, 693642
1, 19340, Tempo, 697674
1, 19400, Tempo, 701754
1, 19480, Tempo, 705882
1, 19540, Tempo, 710059
1, 19620, Tempo, 714286
1, 19700, Tempo, 718563
1, 19760, Tempo, 722892
1, 19840, Tempo, 727273
1, 19900, Tempo, 731707
1, 19920, Tempo, 736196
1, 20160, Tempo, 774194
1, 20200, Tempo, 769231
1, 20240, Tempo, 764331
1, 20280, Tempo, 759494
1, 20320, Tempo, 736196
1, 20520, Tempo, 779221
1, 20600, Tempo, 714286
1, 20640, Tempo, 710059
1, 21120, Tempo, 731707
1, 21360, Tempo, 705882
1, 21600, Tempo, 705882
1, 22080, Tempo, 800000
1, 22320, Tempo, 764331
1, 22520, Tempo, 851064
1, 22600, Tempo, 857143
1, 22680, Tempo, 863309
1, 22720, Tempo, 869565
1, 22800, Tempo, 875912
1, 22880, Tempo, 882353
1, 22920, Tempo, 888889
1, 23000, Tempo, 895522
1, 23040, Tempo, 902256
1, 23080, Tempo, 916031
1, 23100, Tempo, 923077
1, 23120, Tempo, 930233
1, 23160, Tempo, 937500
1, 23180, Tempo, 944882
1, 23200, Tempo, 952381
1, 23220, Tempo, 960000
1, 23260, Tempo, 967742
1, 23280, Tempo, 975610
1, 23300, Tempo, 983607
1, 23340, Tempo, 991736
1, 23360, Tempo, 1000000
1, 23380, Tempo, 1008403
1, 23400, Tempo, 1016949
1, 23440, Tempo, 1025641
1, 23460, Tempo, 1034483
1, 23480, Tempo, 1043478
1, 23500, Tempo, 1052632
1, 23520, Tempo, 1578947
1, 23640, Tempo, 3488372
1, 23760, Tempo, 777202
1, 23760, Marker_t, "D.C."
1, 24000, Tempo, 750000
1, 24040, Tempo, 745342
1, 24080, Tempo, 740741
1, 24120, Tempo, 736196
1, 24160, Tempo, 731707
1, 24200, Tempo, 727273
1, 24240, Tempo, 722892
1, 24280, Tempo, 718563
1, 24320, Tempo, 714286
1, 24360, Tempo, 710059
1, 24400, Tempo, 705882
1, 24440, Tempo, 701754
1, 24480, Tempo, 697674
1, 24960, Tempo, 731707
1, 25040, Tempo, 727273
1, 25080, Tempo, 722892
1, 25120, Tempo, 718563
1, 25160, Tempo, 714286
1, 25200, Tempo, 710059
1, 25280, Tempo, 705882
1, 25320, Tempo, 701754
1, 25360, Tempo, 697674
1, 25400, Tempo, 693642
1, 25440, Tempo, 689655
1, 26860, Tempo, 689655
1, 26880, Tempo, 685714
1, 26960, Tempo, 689655
1, 27040, Tempo, 693642
1, 27120, Tempo, 697674
1, 27160, Tempo, 701754
1, 27240, Tempo, 705882
1, 27320, Tempo, 710059
1, 27360, Tempo, 714286
1, 27440, Tempo, 718563
1, 27520, Tempo, 722892
1, 27560, Tempo, 727273
1, 27580, Tempo, 731707
1, 27600, Tempo, 731707
1, 27860, Tempo, 731707
1, 27940, Tempo, 727273
1, 28000, Tempo, 722892
1, 28060, Tempo, 718563
1, 28140, Tempo, 714286
1, 28200, Tempo, 710059
1, 28260, Tempo, 705882
1, 28320, Tempo, 701754
1, 28800, Tempo, 718563
1, 28920, Tempo, 714286
1, 29000, Tempo, 710059
1, 29120, Tempo, 705882
1, 29200, Tempo, 701754
1, 29280, Tempo, 697674
1, 29760, Tempo, 697674
1, 29780, Tempo, 697674
1, 29840, Tempo, 701754
1, 29900, Tempo, 705882
1, 29960, Tempo, 710059
1, 30000, Tempo, 714286
1, 30060, Tempo, 718563
1, 30120, Tempo, 722892
1, 30180, Tempo, 727273
1, 30240, Tempo, 693642
1, 30720, Tempo, 701754
1, 30740, Tempo, 731707
1, 30800, Tempo, 736196
1, 30860, Tempo, 740741
1, 30900, Tempo, 745342
1, 30960, Tempo, 750000
1, 31000, Tempo, 754717
1, 31060, Tempo, 759494
1, 31100, Tempo, 764331
1, 31160, Tempo, 769231
1, 31200, Tempo, 774194
1, 31440, Tempo, 800000
1, 31680, Tempo, 774194
1, 31720, Tempo, 769231
1, 31760, Tempo, 764331
1, 31800, Tempo, 759494
1, 31840, Tempo, 727273
1, 32040, Tempo, 816327
1, 32120, Tempo, 714286
1, 32160, Tempo, 701754
1, 32640, Tempo, 750000
1, 32660, Tempo, 745342
1, 32720, Tempo, 740741
1, 32760, Tempo, 736196
1, 32820, Tempo, 731707
1, 32880, Tempo, 722892
1, 33100, Tempo, 705882
1, 33120, Tempo, 697674
1, 33600, Tempo, 689655
1, 34520, Tempo, 689655
1, 34600, Tempo, 693642
1, 34640, Tempo, 697674
1, 34720, Tempo, 701754
1, 34760, Tempo, 705882
1, 34840, Tempo, 710059
1, 34880, Tempo, 714286
1, 34960, Tempo, 718563
1, 35000, Tempo, 722892
1, 35080, Tempo, 727273
1, 35120, Tempo, 731707
1, 35200, Tempo, 736196
1, 35240, Tempo, 740741
1, 35260, Tempo, 731707
1, 35280, Tempo, 736196
1, 35520, Tempo, 774194
1, 35560, Tempo, 769231
1, 35600, Tempo, 764331
1, 35640, Tempo, 759494
1, 35680, Tempo, 736196
1, 35880, Tempo, 779221
1, 35960, Tempo, 714286
1, 36000, Tempo, 710059
1, 36480, Tempo, 731707
1, 36720, Tempo, 705882
1, 36960, Tempo, 705882
1, 37440, Tempo, 800000
1, 37680, Tempo, 764331
1, 37920, Tempo, 875912
1, 37980, Tempo, 882353
1, 38040, Tempo, 888889
1, 38080, Tempo, 895522
1, 38140, Tempo, 902256
1, 38200, Tempo, 909091
1, 38240, Tempo, 916031
1, 38300, Tempo, 923077
1, 38360, Tempo, 930233
1, 38400, Tempo, 983607
1, 38440, Tempo, 991736
1, 38480, Tempo, 1000000
1, 38520, Tempo, 1016949
1, 38560, Tempo, 1025641
1, 38600, Tempo, 1034483
1, 38640, Tempo, 1052632
1, 38680, Tempo, 1061947
1, 38720, Tempo, 1071429
1, 38760, Tempo, 1090909
1, 38800, Tempo, 1100917
1, 38840, Tempo, 1121495
1, 38860, Tempo, 1052632
1, 38880, Tempo, 1578947
1, 39360, Marker_t, "Fine"
1, 39360, End_track
2, 0, Start_track
2, 0, Title_t, "Piano right"
2, 0, Program_c, 0, 0
2, 0, Control_c, 0, 7, 100
2, 0, Control_c, 0, 10, 64
2, 0, Text_t, "bdca426d104a26ac9dcb070447587523"
2, 719, Control_c, 0, 91, 127
2, 720, Note_on_c, 0, 68, 59
2, 840, Note_on_c, 0, 67, 35
2, 840, Note_on_c, 0, 64, 35
2, 960, Note_on_c, 0, 64, 0
2, 960, Note_on_c, 0, 67, 0
2, 960, Note_on_c, 0, 68, 0
2, 960, Note_on_c, 0, 69, 62
2, 1080, Note_on_c, 0, 64, 35
2, 1080, Note_on_c, 0, 67, 35
2, 1200, Note_on_c, 0, 67, 0
2, 1200, Note_on_c, 0, 64, 0
2, 1200, Note_on_c, 0, 69, 0
2, 1200, Note_on_c, 0, 73, 64
2, 1320, Note_on_c, 0, 69, 37
2, 1320, Note_on_c, 0, 67, 37
2, 1440, Note_on_c, 0, 67, 0
2, 1440, Note_on_c, 0, 69, 0
2, 1440, Note_on_c, 0, 73, 0
2, 1440, Note_on_c, 0, 78, 68
2, 1560, Note_on_c, 0, 67, 40
2, 1560, Note_on_c, 0, 69, 40
2, 1680, Note_on_c, 0, 69, 0
2, 1680, Note_on_c, 0, 67, 0
2, 1680, Note_on_c, 0, 78, 0
2, 1680, Note_on_c, 0, 76, 68
2, 1800, Note_on_c, 0, 67, 40
2, 1800, Note_on_c, 0, 69, 40
2, 1920, Note_on_c, 0, 69, 0
2, 1920, Note_on_c, 0, 67, 0
2, 1920, Note_on_c, 0, 76, 0
2, 1920, Note_on_c, 0, 74, 66
2, 2040, Note_on_c, 0, 62, 38
2, 2040, Note_on_c, 0, 66, 38
2, 2160, Note_on_c, 0, 66, 0
2, 2160, Note_on_c, 0, 62, 0
2, 2160, Note_on_c, 0, 74, 0
2, 2160, Note_on_c, 0, 69, 63
2, 2280, Note_on_c, 0, 62, 36
2, 2280, Note_on_c, 0, 66, 36
2, 2400, Note_on_c, 0, 66, 0
2, 2400, Note_on_c, 0, 62, 0
2, 2400, Note_on_c, 0, 69, 0
2, 2520, Note_on_c, 0, 62, 38
2, 2520, Note_on_c, 0, 66, 38
2, 2640, Note_on_c, 0, 66, 0
2, 2640, Note_on_c, 0, 62, 0
2, 2640, Note_on_c, 0, 69, 64
2, 2700, Note_on_c, 0, 69, 0
2, 2760, Note_on_c, 0, 62, 39
2, 2760, Note_on_c, 0, 66, 39
2, 2880, Note_on_c, 0, 66, 0
2, 2880, Note_on_c, 0, 62, 0
2, 2880, Note_on_c, 0, 69, 67
2, 3000, Note_on_c, 0, 69, 0
2, 3000, Note_on_c, 0, 61, 48
2, 3000, Note_on_c, 0, 64, 48
2, 3060, Note_on_c, 0, 64, 0
2, 3060, Note_on_c, 0, 61, 0
2, 3120, Note_on_c, 0, 61, 56
2, 3120, Note_on_c, 0, 64, 56
2, 3240, Note_on_c, 0, 64, 0
2, 3240, Note_on_c, 0, 66, 45
2, 3360, Note_on_c, 0, 66, 0
2, 3360, Note_on_c, 0, 61, 0
2, 3360, Note_on_c, 0, 67, 59
2, 3480, Note_on_c, 0, 61, 42
2, 3480, Note_on_c, 0, 64, 42
2, 3600, Note_on_c, 0, 64, 0
2, 3600, Note_on_c, 0, 61, 0
2, 3600, Note_on_c, 0, 67, 0
2, 3600, Note_on_c, 0, 71, 59
2, 3720, Note_on_c, 0, 59, 43
2, 3720, Note_on_c, 0, 67, 43
2, 3840, Note_on_c, 0, 67, 0
2, 3840, Note_on_c, 0, 59, 0
2, 3840, Note_on_c, 0, 71, 0
2, 3840, Note_on_c, 0, 69, 57
2, 3960, Note_on_c, 0, 57, 39
2, 3960, Note_on_c, 0, 66, 39
2, 4080, Note_on_c, 0, 66, 0
2, 4080, Note_on_c, 0, 57, 0
2, 4080, Note_on_c, 0, 69, 0
2, 4080, Note_on_c, 0, 66, 55
2, 4200, Note_on_c, 0, 57, 36
2, 4200, Note_on_c, 0, 62, 36
2, 4320, Note_on_c, 0, 62, 0
2, 4320, Note_on_c, 0, 57, 0
2, 4320, Note_on_c, 0, 66, 0
2, 4320, Note_on_c, 0, 64, 53
2, 4440, Note_on_c, 0, 57, 34
2, 4440, Note_on_c, 0, 61, 34
2, 4560, Note_on_c, 0, 61, 0
2, 4560, Note_on_c, 0, 57, 0
2, 4560, Note_on_c, 0, 64, 0
2, 4560, Note_on_c, 0, 68, 59
2, 4680, Note_on_c, 0, 64, 40
2, 4680, Note_on_c, 0, 67, 40
2, 4800, Note_on_c, 0, 67, 0
2, 4800, Note_on_c, 0, 64, 0
2, 4800, Note_on_c, 0, 68, 0
2, 4800, Note_on_c, 0, 69, 69
2, 4920, Note_on_c, 0, 64, 38
2, 4920, Note_on_c, 0, 67, 38
2, 5040, Note_on_c, 0, 67, 0
2, 5040, Note_on_c, 0, 64, 0
2, 5160, Note_on_c, 0, 55, 40
2, 5160, Note_on_c, 0, 57, 40
2, 5280, Note_on_c, 0, 57, 0
2, 5280, Note_on_c, 0, 55, 0
2, 5280, Note_on_c, 0, 69, 0
2, 5400, Note_on_c, 0, 55, 38
2, 5400, Note_on_c, 0, 57, 38
2, 5520, Note_on_c, 0, 57, 0
2, 5520, Note_on_c, 0, 55, 0
2, 5520, Note_on_c, 0, 61, 45
2, 5640, Note_on_c, 0, 55, 38
2, 5640, Note_on_c, 0, 57, 38
2, 5760, Note_on_c, 0, 57, 0
2, 5760, Note_on_c, 0, 55, 0
2, 5760, Note_on_c, 0, 61, 0
2, 5760, Note_on_c, 0, 62, 62
2, 5880, Note_on_c, 0, 57, 38
2, 5880, Note_on_c, 0, 54, 38
2, 6000, Note_on_c, 0, 54, 0
2, 6000, Note_on_c, 0, 57, 0
2, 6000, Note_on_c, 0, 62, 0
2, 6000, Note_on_c, 0, 66, 64
2, 6120, Note_on_c, 0, 57, 39
2, 6120, Note_on_c, 0, 62, 39
2, 6240, Note_on_c, 0, 62, 0
2, 6240, Note_on_c, 0, 57, 0
2, 6240, Note_on_c, 0, 66, 0
2, 6240, Note_on_c, 0, 71, 68
2, 6360, Note_on_c, 0, 66, 40
2, 6360, Note_on_c, 0, 62, 40
2, 6480, Note_on_c, 0, 62, 0
2, 6480, Note_on_c, 0, 66, 0
2, 6480, Note_on_c, 0, 71, 0
2, 6480, Note_on_c, 0, 69, 68
2, 6600, Note_on_c, 0, 66, 40
2, 6600, Note_on_c, 0, 62, 40
2, 6720, Note_on_c, 0, 62, 0
2, 6720, Note_on_c, 0, 66, 0
2, 6720, Note_on_c, 0, 69, 0
2, 6720, Note_on_c, 0, 67, 68
2, 6840, Note_on_c, 0, 62, 40
2, 6840, Note_on_c, 0, 55, 40
2, 6960, Note_on_c, 0, 55, 0
2, 6960, Note_on_c, 0, 62, 0
2, 6960, Note_on_c, 0, 67, 0
2, 6960, Note_on_c, 0, 71, 70
2, 7080, Note_on_c, 0, 62, 42
2, 7080, Note_on_c, 0, 67, 42
2, 7200, Note_on_c, 0, 67, 0
2, 7200, Note_on_c, 0, 62, 0
2, 7200, Note_on_c, 0, 71, 0
2, 7200, Note_on_c, 0, 76, 74
2, 7320, Note_on_c, 0, 67, 44
2, 7320, Note_on_c, 0, 64, 44
2, 7440, Note_on_c, 0, 64, 0
2, 7440, Note_on_c, 0, 67, 0
2, 7440, Note_on_c, 0, 76, 0
2, 7440, Note_on_c, 0, 74, 72
2, 7560, Note_on_c, 0, 67, 41
2, 7560, Note_on_c, 0, 62, 41
2, 7680, Note_on_c, 0, 62, 0
2, 7680, Note_on_c, 0, 67, 0
2, 7680, Note_on_c, 0, 74, 0
2, 7680, Note_on_c, 0, 73, 68
2, 7800, Note_on_c, 0, 61, 38
2, 7800, Note_on_c, 0, 67, 38
2, 7920, Note_on_c, 0, 67, 0
2, 7920, Note_on_c, 0, 61, 0
2, 7920, Note_on_c, 0, 73, 0
2, 7920, Note_on_c, 0, 71, 65
2, 8040, Note_on_c, 0, 62, 38
2, 8040, Note_on_c, 0, 67, 38
2, 8160, Note_on_c, 0, 67, 0
2, 8160, Note_on_c, 0, 62, 0
2, 8160, Note_on_c, 0, 71, 0
2, 8160, Note_on_c, 0, 69, 60
2, 8280, Note_on_c, 0, 63, 35
2, 8280, Note_on_c, 0, 67, 35
2, 8400, Note_on_c, 0, 67, 0
2, 8400, Note_on_c, 0, 63, 0
2, 8400, Note_on_c, 0, 69, 0
2, 8400, Note_on_c, 0, 68, 59
2, 8520, Note_on_c, 0, 64, 35
2, 8520, Note_on_c, 0, 67, 35
2, 8640, Note_on_c, 0, 67, 0
2, 8640, Note_on_c, 0, 64, 0
2, 8640, Note_on_c, 0, 68, 0
2, 8640, Note_on_c, 0, 69, 62
2, 8760, Note_on_c, 0, 64, 35
2, 8760, Note_on_c, 0, 67, 35
2, 8880, Note_on_c, 0, 67, 0
2, 8880, Note_on_c, 0, 64, 0
2, 8880, Note_on_c, 0, 69, 0
2, 8880, Note_on_c, 0, 73, 64
2, 9000, Note_on_c, 0, 67, 37
2, 9000, Note_on_c, 0, 69, 37
2, 9120, Note_on_c, 0, 69, 0
2, 9120, Note_on_c, 0, 67, 0
2, 9120, Note_on_c, 0, 73, 0
2, 9120, Note_on_c, 0, 78, 68
2, 9240, Note_on_c, 0, 67, 40
2, 9240, Note_on_c, 0, 69, 40
2, 9360, Note_on_c, 0, 69, 0
2, 9360, Note_on_c, 0, 67, 0
2, 9360, Note_on_c, 0, 78, 0
2, 9360, Note_on_c, 0, 76, 68
2, 9480, Note_on_c, 0, 67, 40
2, 9480, Note_on_c, 0, 69, 40
2, 9600, Note_on_c, 0, 69, 0
2, 9600, Note_on_c, 0, 67, 0
2, 9600, Note_on_c, 0, 76, 0
2, 9600, Note_on_c, 0, 74, 66
2, 9720, Note_on_c, 0, 62, 38
2, 9720, Note_on_c, 0, 66, 38
2, 9840, Note_on_c, 0, 66, 0
2, 9840, Note_on_c, 0, 62, 0
2, 9840, Note_on_c, 0, 74, 0
2, 9840, Note_on_c, 0, 69, 63
2, 9960, Note_on_c, 0, 62, 36
2, 9960, Note_on_c, 0, 66, 36
2, 10080, Note_on_c, 0, 66, 0
2, 10080, Note_on_c, 0, 62, 0
2, 10080, Note_on_c, 0, 69, 0
2, 10200, Note_on_c, 0, 62, 38
2, 10200, Note_on_c, 0, 66, 38
2, 10320, Note_on_c, 0, 66, 0
2, 10320, Note_on_c, 0, 62, 0
2, 10320, Note_on_c, 0, 69, 64
2, 10380, Note_on_c, 0, 69, 0
2, 10440, Note_on_c, 0, 62, 39
2, 10440, Note_on_c, 0, 66, 39
2, 10560, Note_on_c, 0, 66, 0
2, 10560, Note_on_c, 0, 62, 0
2, 10560, Note_on_c, 0, 69, 67
2, 10680, Note_on_c, 0, 69, 0
2, 10680, Note_on_c, 0, 61, 48
2, 10680, Note_on_c, 0, 64, 48
2, 10740, Note_on_c, 0, 64, 0
2, 10740, Note_on_c, 0, 61, 0
2, 10800, Note_on_c, 0, 61, 56
2, 10800, Note_on_c, 0, 64, 56
2, 10920, Note_on_c, 0, 64, 0
2, 10920, Note_on_c, 0, 66, 45
2, 11040, Note_on_c, 0, 66, 0
2, 11040, Note_on_c, 0, 61, 0
2, 11040, Note_on_c, 0, 67, 59
2, 11160, Note_on_c, 0, 61, 42
2, 11160, Note_on_c, 0, 64, 42
2, 11280, Note_on_c, 0, 64, 0
2, 11280, Note_on_c, 0, 61, 0
2, 11280, Note_on_c, 0, 67, 0
2, 11280, Note_on_c, 0, 71, 59
2, 11400, Note_on_c, 0, 59, 39
2, 11400, Note_on_c, 0, 67, 39
2, 11520, Note_on_c, 0, 67, 0
2, 11520, Note_on_c, 0, 59, 0
2, 11520, Note_on_c, 0, 71, 0
2, 11520, Note_on_c, 0, 69, 56
2, 11640, Note_on_c, 0, 57, 36
2, 11640, Note_on_c, 0, 66, 36
2, 11760, Note_on_c, 0, 66, 0
2, 11760, Note_on_c, 0, 57, 0
2, 11760, Note_on_c, 0, 69, 0
2, 11760, Note_on_c, 0, 66, 55
2, 11880, Note_on_c, 0, 57, 35
2, 11880, Note_on_c, 0, 62, 35
2, 12000, Note_on_c, 0, 62, 0
2, 12000, Note_on_c, 0, 57, 0
2, 12000, Note_on_c, 0, 66, 0
2, 12000, Note_on_c, 0, 64, 51
2, 12120, Note_on_c, 0, 57, 34
2, 12120, Note_on_c, 0, 61, 34
2, 12240, Note_on_c, 0, 61, 0
2, 12240, Note_on_c, 0, 57, 0
2, 12240, Note_on_c, 0, 64, 0
2, 12240, Note_on_c, 0, 68, 59
2, 12360, Note_on_c, 0, 64, 40
2, 12360, Note_on_c, 0, 67, 40
2, 12480, Note_on_c, 0, 67, 0
2, 12480, Note_on_c, 0, 64, 0
2, 12480, Note_on_c, 0, 68, 0
2, 12480, Note_on_c, 0, 69, 69
2, 12600, Note_on_c, 0, 64, 38
2, 12600, Note_on_c, 0, 67, 38
2, 12720, Note_on_c, 0, 67, 0
2, 12720, Note_on_c, 0, 64, 0
2, 12840, Note_on_c, 0, 55, 40
2, 12840, Note_on_c, 0, 57, 40
2, 12960, Note_on_c, 0, 57, 0
2, 12960, Note_on_c, 0, 55, 0
2, 12960, Note_on_c, 0, 69, 0
2, 13080, Note_on_c, 0, 55, 38
2, 13080, Note_on_c, 0, 57, 38
2, 13200, Note_on_c, 0, 57, 0
2, 13200, Note_on_c, 0, 55, 0
2, 13200, Note_on_c, 0, 61, 45
2, 13320, Note_on_c, 0, 55, 38
2, 13320, Note_on_c, 0, 57, 38
2, 13440, Note_on_c, 0, 57, 0
2, 13440, Note_on_c, 0, 55, 0
2, 13440, Note_on_c, 0, 61, 0
2, 13440, Note_on_c, 0, 62, 62
2, 13560, Note_on_c, 0, 57, 38
2, 13560, Note_on_c, 0, 54, 38
2, 13680, Note_on_c, 0, 54, 0
2, 13680, Note_on_c, 0, 57, 0
2, 13680, Note_on_c, 0, 62, 0
2, 13680, Note_on_c, 0, 66, 64
2, 13800, Note_on_c, 0, 57, 39
2, 13800, Note_on_c, 0, 62, 39
2, 13920, Note_on_c, 0, 62, 0
2, 13920, Note_on_c, 0, 57, 0
2, 13920, Note_on_c, 0, 66, 0
2, 13920, Note_on_c, 0, 71, 68
2, 14040, Note_on_c, 0, 66, 40
2, 14040, Note_on_c, 0, 62, 40
2, 14160, Note_on_c, 0, 62, 0
2, 14160, Note_on_c, 0, 66, 0
2, 14160, Note_on_c, 0, 71, 0
2, 14160, Note_on_c, 0, 69, 68
2, 14280, Note_on_c, 0, 66, 40
2, 14280, Note_on_c, 0, 62, 40
2, 14400, Note_on_c, 0, 62, 0
2, 14400, Note_on_c, 0, 66, 0
2, 14400, Note_on_c, 0, 69, 0
2, 14400, Note_on_c, 0, 67, 68
2, 14520, Note_on_c, 0, 62, 40
2, 14520, Note_on_c, 0, 55, 40
2, 14640, Note_on_c, 0, 55, 0
2, 14640, Note_on_c, 0, 62, 0
2, 14640, Note_on_c, 0, 67, 0
2, 14640, Note_on_c, 0, 71, 70
2, 14760, Note_on_c, 0, 62, 42
2, 14760, Note_on_c, 0, 67, 42
2, 14880, Note_on_c, 0, 67, 0
2, 14880, Note_on_c, 0, 62, 0
2, 14880, Note_on_c, 0, 71, 0
2, 14880, Note_on_c, 0, 76, 74
2, 15000, Note_on_c, 0, 67, 44
2, 15000, Note_on_c, 0, 64, 44
2, 15120, Note_on_c, 0, 64, 0
2, 15120, Note_on_c, 0, 67, 0
2, 15120, Note_on_c, 0, 76, 0
2, 15120, Note_on_c, 0, 74, 72
2, 15240, Note_on_c, 0, 67, 41
2, 15240, Note_on_c, 0, 62, 41
2, 15360, Note_on_c, 0, 62, 0
2, 15360, Note_on_c, 0, 67, 0
2, 15360, Note_on_c, 0, 74, 0
2, 15360, Note_on_c, 0, 73, 63
2, 15480, Note_on_c, 0, 61, 38
2, 15480, Note_on_c, 0, 67, 38
2, 15600, Note_on_c, 0, 67, 0
2, 15600, Note_on_c, 0, 61, 0
2, 15600, Note_on_c, 0, 73, 0
2, 15600, Note_on_c, 0, 71, 58
2, 15720, Note_on_c, 0, 62, 38
2, 15720, Note_on_c, 0, 67, 38
2, 15840, Note_on_c, 0, 67, 0
2, 15840, Note_on_c, 0, 62, 0
2, 15840, Note_on_c, 0, 71, 0
2, 15840, Note_on_c, 0, 69, 53
2, 15960, Note_on_c, 0, 63, 35
2, 15960, Note_on_c, 0, 67, 35
2, 16079, Control_c, 0, 91, 127
2, 16080, Note_on_c, 0, 67, 0
2, 16080, Note_on_c, 0, 63, 0
2, 16080, Note_on_c, 0, 69, 0
2, 16080, Note_on_c, 0, 69, 50
2, 16200, Note_on_c, 0, 67, 29
2, 16200, Note_on_c, 0, 64, 29
2, 16320, Note_on_c, 0, 64, 0
2, 16320, Note_on_c, 0, 67, 0
2, 16320, Note_on_c, 0, 69, 0
2, 16320, Note_on_c, 0, 70, 52
2, 16440, Note_on_c, 0, 67, 29
2, 16440, Note_on_c, 0, 64, 29
2, 16560, Note_on_c, 0, 64, 0
2, 16560, Note_on_c, 0, 67, 0
2, 16560, Note_on_c, 0, 70, 0
2, 16560, Note_on_c, 0, 76, 54
2, 16680, Note_on_c, 0, 67, 31
2, 16680, Note_on_c, 0, 70, 31
2, 16800, Note_on_c, 0, 70, 0
2, 16800, Note_on_c, 0, 67, 0
2, 16800, Note_on_c, 0, 76, 0
2, 16800, Note_on_c, 0, 81, 57
2, 16920, Note_on_c, 0, 67, 34
2, 16920, Note_on_c, 0, 70, 34
2, 17040, Note_on_c, 0, 70, 0
2, 17040, Note_on_c, 0, 67, 0
2, 17040, Note_on_c, 0, 81, 0
2, 17040, Note_on_c, 0, 79, 57
2, 17160, Note_on_c, 0, 70, 34
2, 17160, Note_on_c, 0, 67, 34
2, 17280, Note_on_c, 0, 67, 0
2, 17280, Note_on_c, 0, 70, 0
2, 17280, Note_on_c, 0, 79, 0
2, 17280, Note_on_c, 0, 77, 56
2, 17400, Note_on_c, 0, 69, 32
2, 17400, Note_on_c, 0, 65, 32
2, 17520, Note_on_c, 0, 65, 0
2, 17520, Note_on_c, 0, 69, 0
2, 17520, Note_on_c, 0, 77, 0
2, 17520, Note_on_c, 0, 72, 53
2, 17640, Note_on_c, 0, 65, 30
2, 17640, Note_on_c, 0, 69, 30
2, 17760, Note_on_c, 0, 69, 0
2, 17760, Note_on_c, 0, 65, 0
2, 17760, Note_on_c, 0, 72, 0
2, 17880, Note_on_c, 0, 69, 32
2, 17880, Note_on_c, 0, 65, 32
2, 18000, Note_on_c, 0, 65, 0
2, 18000, Note_on_c, 0, 69, 0
2, 18000, Note_on_c, 0, 72, 54
2, 18060, Note_on_c, 0, 72, 0
2, 18120, Note_on_c, 0, 65, 33
2, 18120, Note_on_c, 0, 69, 33
2, 18240, Note_on_c, 0, 69, 0
2, 18240, Note_on_c, 0, 65, 0
2, 18240, Note_on_c, 0, 72, 56
2, 18360, Note_on_c, 0, 72, 0
2, 18360, Note_on_c, 0, 67, 40
2, 18360, Note_on_c, 0, 64, 40
2, 18420, Note_on_c, 0, 64, 0
2, 18420, Note_on_c, 0, 67, 0
2, 18480, Note_on_c, 0, 67, 47
2, 18480, Note_on_c, 0, 64, 47
2, 18600, Note_on_c, 0, 67, 0
2, 18600, Note_on_c, 0, 69, 38
2, 18720, Note_on_c, 0, 69, 0
2, 18720, Note_on_c, 0, 64, 0
2, 18720, Note_on_c, 0, 70, 50
2, 18840, Note_on_c, 0, 67, 35
2, 18840, Note_on_c, 0, 64, 35
2, 18960, Note_on_c, 0, 64, 0
2, 18960, Note_on_c, 0, 67, 0
2, 18960, Note_on_c, 0, 70, 0
2, 18960, Note_on_c, 0, 74, 52
2, 19080, Note_on_c, 0, 60, 36
2, 19080, Note_on_c, 0, 70, 36
2, 19200, Note_on_c, 0, 70, 0
2, 19200, Note_on_c, 0, 60, 0
2, 19200, Note_on_c, 0, 74, 0
2, 19200, Note_on_c, 0, 72, 51
2, 19320, Note_on_c, 0, 60, 34
2, 19320, Note_on_c, 0, 69, 34
2, 19440, Note_on_c, 0, 69, 0
2, 19440, Note_on_c, 0, 60, 0
2, 19440, Note_on_c, 0, 72, 0
2, 19440, Note_on_c, 0, 69, 49
2, 19560, Note_on_c, 0, 65, 33
2, 19560, Note_on_c, 0, 60, 33
2, 19680, Note_on_c, 0, 60, 0
2, 19680, Note_on_c, 0, 65, 0
2, 19680, Note_on_c, 0, 69, 0
2, 19680, Note_on_c, 0, 67, 47
2, 19800, Note_on_c, 0, 60, 33
2, 19920, Note_on_c, 0, 60, 0
2, 19920, Note_on_c, 0, 67, 0
2, 19920, Note_on_c, 0, 69, 56
2, 20040, Note_on_c, 0, 64, 34
2, 20040, Note_on_c, 0, 67, 34
2, 20160, Note_on_c, 0, 67, 0
2, 20160, Note_on_c, 0, 64, 0
2, 20160, Note_on_c, 0, 69, 0
2, 20160, Note_on_c, 0, 70, 60
2, 20280, Note_on_c, 0, 67, 37
2, 20280, Note_on_c, 0, 64, 37
2, 20400, Note_on_c, 0, 64, 0
2, 20400, Note_on_c, 0, 67, 0
2, 20400, Note_on_c, 0, 70, 0
2, 20400, Note_on_c, 0, 76, 63
2, 20520, Note_on_c, 0, 67, 40
2, 20520, Note_on_c, 0, 70, 40
2, 20640, Note_on_c, 0, 70, 0
2, 20640, Note_on_c, 0, 67, 0
2, 20640, Note_on_c, 0, 76, 0
2, 20640, Note_on_c, 0, 81, 67
2, 20760, Note_on_c, 0, 67, 42
2, 20760, Note_on_c, 0, 70, 42
2, 20880, Note_on_c, 0, 70, 0
2, 20880, Note_on_c, 0, 67, 0
2, 20880, Note_on_c, 0, 81, 0
2, 20880, Note_on_c, 0, 79, 63
2, 21000, Note_on_c, 0, 70, 40
2, 21000, Note_on_c, 0, 67, 40
2, 21120, Note_on_c, 0, 67, 0
2, 21120, Note_on_c, 0, 70, 0
2, 21120, Note_on_c, 0, 79, 0
2, 21120, Note_on_c, 0, 78, 64
2, 21240, Note_on_c, 0, 66, 39
2, 21240, Note_on_c, 0, 69, 39
2, 21360, Note_on_c, 0, 69, 0
2, 21360, Note_on_c, 0, 66, 0
2, 21360, Note_on_c, 0, 78, 0
2, 21360, Note_on_c, 0, 73, 59
2, 21480, Note_on_c, 0, 67, 39
2, 21480, Note_on_c, 0, 69, 39
2, 21600, Note_on_c, 0, 69, 0
2, 21600, Note_on_c, 0, 67, 0
2, 21600, Note_on_c, 0, 73, 0
2, 21600, Note_on_c, 0, 76, 63
2, 21720, Note_on_c, 0, 64, 42
2, 21720, Note_on_c, 0, 69, 42
2, 21840, Note_on_c, 0, 69, 0
2, 21840, Note_on_c, 0, 64, 0
2, 21840, Note_on_c, 0, 76, 0
2, 21840, Note_on_c, 0, 74, 62
2, 21960, Note_on_c, 0, 62, 39
2, 21960, Note_on_c, 0, 69, 39
2, 22080, Note_on_c, 0, 69, 0
2, 22080, Note_on_c, 0, 62, 0
2, 22080, Note_on_c, 0, 74, 0
2, 22080, Note_on_c, 0, 71, 62
2, 22200, Note_on_c, 0, 62, 39
2, 22200, Note_on_c, 0, 67, 39
2, 22320, Note_on_c, 0, 67, 0
2, 22320, Note_on_c, 0, 62, 0
2, 22320, Note_on_c, 0, 71, 0
2, 22320, Note_on_c, 0, 66, 49
2, 22440, Note_on_c, 0, 60, 31
2, 22440, Note_on_c, 0, 62, 31
2, 22560, Note_on_c, 0, 62, 0
2, 22560, Note_on_c, 0, 60, 0
2, 22560, Note_on_c, 0, 66, 0
2, 22560, Note_on_c, 0, 69, 52
2, 22680, Note_on_c, 0, 57, 32
2, 22680, Note_on_c, 0, 62, 32
2, 22800, Note_on_c, 0, 62, 0
2, 22800, Note_on_c, 0, 57, 0
2, 22800, Note_on_c, 0, 69, 0
2, 22800, Note_on_c, 0, 67, 48
2, 22920, Note_on_c, 0, 55, 31
2, 22920, Note_on_c, 0, 62, 31
2, 23040, Note_on_c, 0, 62, 0
2, 23040, Note_on_c, 0, 55, 0
2, 23040, Note_on_c, 0, 67, 0
2, 23040, Note_on_c, 0, 66, 45
2, 23160, Note_on_c, 0, 57, 30
2, 23160, Note_on_c, 0, 62, 30
2, 23280, Note_on_c, 0, 62, 0
2, 23280, Note_on_c, 0, 57, 0
2, 23280, Note_on_c, 0, 66, 0
2, 23280, Note_on_c, 0, 64, 39
2, 23400, Note_on_c, 0, 55, 28
2, 23400, Note_on_c, 0, 61, 28
2, 23520, Note_on_c, 0, 61, 0
2, 23520, Note_on_c, 0, 55, 0
2, 23520, Note_on_c, 0, 64, 0
2, 23520, Note_on_c, 0, 62, 38
2, 23640, Note_on_c, 0, 54, 22
2, 23640, Note_on_c, 0, 57, 22
2, 23760, Note_on_c, 0, 62, 0
2, 23760, Note_on_c, 0, 68, 59
2, 23820, Note_on_c, 0, 57, 0
2, 23820, Note_on_c, 0, 54, 0
2, 23880, Note_on_c, 0, 67, 35
2, 23880, Note_on_c, 0, 64, 35
2, 24000, Note_on_c, 0, 64, 0
2, 24000, Note_on_c, 0, 67, 0
2, 24000, Note_on_c, 0, 68, 0
2, 24000, Note_on_c, 0, 69, 62
2, 24120, Note_on_c, 0, 64, 35
2, 24120, Note_on_c, 0, 67, 35
2, 24240, Note_on_c, 0, 67, 0
2, 24240, Note_on_c, 0, 64, 0
2, 24240, Note_on_c, 0, 69, 0
2, 24240, Note_on_c, 0, 73, 64
2, 24360, Note_on_c, 0, 67, 37
2, 24360, Note_on_c, 0, 69, 37
2, 24480, Note_on_c, 0, 69, 0
2, 24480, Note_on_c, 0, 67, 0
2, 24480, Note_on_c, 0, 73, 0
2, 24480, Note_on_c, 0, 78, 70
2, 24600, Note_on_c, 0, 67, 40
2, 24600, Note_on_c, 0, 69, 40
2, 24720, Note_on_c, 0, 69, 0
2, 24720, Note_on_c, 0, 67, 0
2, 24720, Note_on_c, 0, 78, 0
2, 24720, Note_on_c, 0, 76, 68
2, 24840, Note_on_c, 0, 67, 40
2, 24840, Note_on_c, 0, 69, 40
2, 24960, Note_on_c, 0, 69, 0
2, 24960, Note_on_c, 0, 67, 0
2, 24960, Note_on_c, 0, 76, 0
2, 24960, Note_on_c, 0, 74, 66
2, 25080, Note_on_c, 0, 62, 38
2, 25080, Note_on_c, 0, 66, 38
2, 25200, Note_on_c, 0, 66, 0
2, 25200, Note_on_c, 0, 62, 0
2, 25200, Note_on_c, 0, 74, 0
2, 25200, Note_on_c, 0, 69, 63
2, 25320, Note_on_c, 0, 62, 36
2, 25320, Note_on_c, 0, 66, 36
2, 25440, Note_on_c, 0, 66, 0
2, 25440, Note_on_c, 0, 62, 0
2, 25440, Note_on_c, 0, 69, 0
2, 25560, Note_on_c, 0, 62, 38
2, 25560, Note_on_c, 0, 66, 38
2, 25680, Note_on_c, 0, 66, 0
2, 25680, Note_on_c, 0, 62, 0
2, 25680, Note_on_c, 0, 69, 64
2, 25740, Note_on_c, 0, 69, 0
2, 25800, Note_on_c, 0, 62, 39
2, 25800, Note_on_c, 0, 66, 39
2, 25920, Note_on_c, 0, 66, 0
2, 25920, Note_on_c, 0, 62, 0
2, 25920, Note_on_c, 0, 69, 67
2, 26040, Note_on_c, 0, 69, 0
2, 26040, Note_on_c, 0, 61, 48
2, 26040, Note_on_c, 0, 64, 48
2, 26100, Note_on_c, 0, 64, 0
2, 26100, Note_on_c, 0, 61, 0
2, 26160, Note_on_c, 0, 61, 56
2, 26160, Note_on_c, 0, 64, 56
2, 26280, Note_on_c, 0, 64, 0
2, 26280, Note_on_c, 0, 66, 45
2, 26400, Note_on_c, 0, 66, 0
2, 26400, Note_on_c, 0, 61, 0
2, 26400, Note_on_c, 0, 67, 59
2, 26520, Note_on_c, 0, 61, 42
2, 26520, Note_on_c, 0, 64, 42
2, 26640, Note_on_c, 0, 64, 0
2, 26640, Note_on_c, 0, 61, 0
2, 26640, Note_on_c, 0, 67, 0
2, 26640, Note_on_c, 0, 71, 59
2, 26760, Note_on_c, 0, 59, 43
2, 26760, Note_on_c, 0, 67, 43
2, 26880, Note_on_c, 0, 67, 0
2, 26880, Note_on_c, 0, 59, 0
2, 26880, Note_on_c, 0, 71, 0
2, 26880, Note_on_c, 0, 69, 57
2, 27000, Note_on_c, 0, 57, 39
2, 27000, Note_on_c, 0, 66, 39
2, 27120, Note_on_c, 0, 66, 0
2, 27120, Note_on_c, 0, 57, 0
2, 27120, Note_on_c, 0, 69, 0
2, 27120, Note_on_c, 0, 66, 55
2, 27240, Note_on_c, 0, 57, 36
2, 27240, Note_on_c, 0, 62, 36
2, 27360, Note_on_c, 0, 62, 0
2, 27360, Note_on_c, 0, 57, 0
2, 27360, Note_on_c, 0, 66, 0
2, 27360, Note_on_c, 0, 64, 53
2, 27480, Note_on_c, 0, 57, 34
2, 27480, Note_on_c, 0, 61, 34
2, 27600, Note_on_c, 0, 61, 0
2, 27600, Note_on_c, 0, 57, 0
2, 27600, Note_on_c, 0, 64, 0
2, 27600, Note_on_c, 0, 68, 59
2, 27720, Note_on_c, 0, 64, 40
2, 27720, Note_on_c, 0, 67, 40
2, 27840, Note_on_c, 0, 67, 0
2, 27840, Note_on_c, 0, 64, 0
2, 27840, Note_on_c, 0, 68, 0
2, 27840, Note_on_c, 0, 69, 69
2, 27960, Note_on_c, 0, 64, 38
2, 27960, Note_on_c, 0, 67, 38
2, 28080, Note_on_c, 0, 67, 0
2, 28080, Note_on_c, 0, 64, 0
2, 28200, Note_on_c, 0, 55, 40
2, 28200, Note_on_c, 0, 57, 40
2, 28320, Note_on_c, 0, 57, 0
2, 28320, Note_on_c, 0, 55, 0
2, 28320, Note_on_c, 0, 69, 0
2, 28440, Note_on_c, 0, 55, 38
2, 28440, Note_on_c, 0, 57, 38
2, 28560, Note_on_c, 0, 57, 0
2, 28560, Note_on_c, 0, 55, 0
2, 28560, Note_on_c, 0, 61, 45
2, 28680, Note_on_c, 0, 55, 38
2, 28680, Note_on_c, 0, 57, 38
2, 28800, Note_on_c, 0, 57, 0
2, 28800, Note_on_c, 0, 55, 0
2, 28800, Note_on_c, 0, 61, 0
2, 28800, Note_on_c, 0, 62, 62
2, 28920, Note_on_c, 0, 57, 38
2, 28920, Note_on_c, 0, 54, 38
2, 29040, Note_on_c, 0, 54, 0
2, 29040, Note_on_c, 0, 57, 0
2, 29040, Note_on_c, 0, 62, 0
2, 29040, Note_on_c, 0, 66, 64
2, 29160, Note_on_c, 0, 57, 39
2, 29160, Note_on_c, 0, 62, 39
2, 29280, Note_on_c, 0, 62, 0
2, 29280, Note_on_c, 0, 57, 0
2, 29280, Note_on_c, 0, 66, 0
2, 29280, Note_on_c, 0, 71, 68
2, 29400, Note_on_c, 0, 66, 40
2, 29400, Note_on_c, 0, 62, 40
2, 29520, Note_on_c, 0, 62, 0
2, 29520, Note_on_c, 0, 66, 0
2, 29520, Note_on_c, 0, 71, 0
2, 29520, Note_on_c, 0, 69, 68
2, 29640, Note_on_c, 0, 66, 40
2, 29640, Note_on_c, 0, 62, 40
2, 29760, Note_on_c, 0, 62, 0
2, 29760, Note_on_c, 0, 66, 0
2, 29760, Note_on_c, 0, 69, 0
2, 29760, Note_on_c, 0, 67, 68
2, 29880, Note_on_c, 0, 62, 40
2, 29880, Note_on_c, 0, 55, 40
2, 30000, Note_on_c, 0, 55, 0
2, 30000, Note_on_c, 0, 62, 0
2, 30000, Note_on_c, 0, 67, 0
2, 30000, Note_on_c, 0, 71, 70
2, 30120, Note_on_c, 0, 62, 42
2, 30120, Note_on_c, 0, 67, 42
2, 30240, Note_on_c, 0, 67, 0
2, 30240, Note_on_c, 0, 62, 0
2, 30240, Note_on_c, 0, 71, 0
2, 30240, Note_on_c, 0, 76, 74
2, 30360, Note_on_c, 0, 67, 44
2, 30360, Note_on_c, 0, 64, 44
2, 30480, Note_on_c, 0, 64, 0
2, 30480, Note_on_c, 0, 67, 0
2, 30480, Note_on_c, 0, 76, 0
2, 30480, Note_on_c, 0, 74, 72
2, 30600, Note_on_c, 0, 67, 41
2, 30600, Note_on_c, 0, 62, 41
2, 30720, Note_on_c, 0, 62, 0
2, 30720, Note_on_c, 0, 67, 0
2, 30720, Note_on_c, 0, 74, 0
2, 30720, Note_on_c, 0, 73, 63
2, 30840, Note_on_c, 0, 61, 38
2, 30840, Note_on_c, 0, 67, 38
2, 30960, Note_on_c, 0, 67, 0
2, 30960, Note_on_c, 0, 61, 0
2, 30960, Note_on_c, 0, 73, 0
2, 30960, Note_on_c, 0, 71, 58
2, 31080, Note_on_c, 0, 62, 38
2, 31080, Note_on_c, 0, 67, 38
2, 31200, Note_on_c, 0, 67, 0
2, 31200, Note_on_c, 0, 62, 0
2, 31200, Note_on_c, 0, 71, 0
2, 31200, Note_on_c, 0, 69, 53
2, 31320, Note_on_c, 0, 63, 35
2, 31320, Note_on_c, 0, 67, 35
2, 31439, Control_c, 0, 91, 127
2, 31440, Note_on_c, 0, 67, 0
2, 31440, Note_on_c, 0, 63, 0
2, 31440, Note_on_c, 0, 69, 0
2, 31440, Note_on_c, 0, 69, 50
2, 31560, Note_on_c, 0, 67, 29
2, 31560, Note_on_c, 0, 64, 29
2, 31680, Note_on_c, 0, 64, 0
2, 31680, Note_on_c, 0, 67, 0
2, 31680, Note_on_c, 0, 69, 0
2, 31680, Note_on_c, 0, 70, 52
2, 31800, Note_on_c, 0, 67, 29
2, 31800, Note_on_c, 0, 64, 29
2, 31920, Note_on_c, 0, 64, 0
2, 31920, Note_on_c, 0, 67, 0
2, 31920, Note_on_c, 0, 70, 0
2, 31920, Note_on_c, 0, 76, 54
2, 32040, Note_on_c, 0, 67, 31
2, 32040, Note_on_c, 0, 70, 31
2, 32160, Note_on_c, 0, 70, 0
2, 32160, Note_on_c, 0, 67, 0
2, 32160, Note_on_c, 0, 76, 0
2, 32160, Note_on_c, 0, 81, 57
2, 32280, Note_on_c, 0, 67, 34
2, 32280, Note_on_c, 0, 70, 34
2, 32400, Note_on_c, 0, 70, 0
2, 32400, Note_on_c, 0, 67, 0
2, 32400, Note_on_c, 0, 81, 0
2, 32400, Note_on_c, 0, 79, 57
2, 32520, Note_on_c, 0, 70, 34
2, 32520, Note_on_c, 0, 67, 34
2, 32640, Note_on_c, 0, 67, 0
2, 32640, Note_on_c, 0, 70, 0
2, 32640, Note_on_c, 0, 79, 0
2, 32640, Note_on_c, 0, 77, 56
2, 32760, Note_on_c, 0, 69, 32
2, 32760, Note_on_c, 0, 65, 32
2, 32880, Note_on_c, 0, 65, 0
2, 32880, Note_on_c, 0, 69, 0
2, 32880, Note_on_c, 0, 77, 0
2, 32880, Note_on_c, 0, 72, 53
2, 33000, Note_on_c, 0, 65, 30
2, 33000, Note_on_c, 0, 69, 30
2, 33120, Note_on_c, 0, 69, 0
2, 33120, Note_on_c, 0, 65, 0
2, 33120, Note_on_c, 0, 72, 0
2, 33240, Note_on_c, 0, 69, 32
2, 33240, Note_on_c, 0, 65, 32
2, 33360, Note_on_c, 0, 65, 0
2, 33360, Note_on_c, 0, 69, 0
2, 33360, Note_on_c, 0, 72, 54
2, 33420, Note_on_c, 0, 72, 0
2, 33480, Note_on_c, 0, 65, 33
2, 33480, Note_on_c, 0, 69, 33
2, 33600, Note_on_c, 0, 69, 0
2, 33600, Note_on_c, 0, 65, 0
2, 33600, Note_on_c, 0, 72, 56
2, 33720, Note_on_c, 0, 72, 0
2, 33720, Note_on_c, 0, 67, 40
2, 33720, Note_on_c, 0, 64, 40
2, 33780, Note_on_c, 0, 64, 0
2, 33780, Note_on_c, 0, 67, 0
2, 33840, Note_on_c, 0, 67, 47
2, 33840, Note_on_c, 0, 64, 47
2, 33960, Note_on_c, 0, 67, 0
2, 33960, Note_on_c, 0, 69, 38
2, 34080, Note_on_c, 0, 69, 0
2, 34080, Note_on_c, 0, 64, 0
2, 34080, Note_on_c, 0, 70, 50
2, 34200, Note_on_c, 0, 67, 35
2, 34200, Note_on_c, 0, 64, 35
2, 34320, Note_on_c, 0, 64, 0
2, 34320, Note_on_c, 0, 67, 0
2, 34320, Note_on_c, 0, 70, 0
2, 34320, Note_on_c, 0, 74, 52
2, 34440, Note_on_c, 0, 60, 36
2, 34440, Note_on_c, 0, 70, 36
2, 34560, Note_on_c, 0, 70, 0
2, 34560, Note_on_c, 0, 60, 0
2, 34560, Note_on_c, 0, 74, 0
2, 34560, Note_on_c, 0, 72, 51
2, 34680, Note_on_c, 0, 60, 34
2, 34680, Note_on_c, 0, 69, 34
2, 34800, Note_on_c, 0, 69, 0
2, 34800, Note_on_c, 0, 60, 0
2, 34800, Note_on_c, 0, 72, 0
2, 34800, Note_on_c, 0, 69, 49
2, 34920, Note_on_c, 0, 65, 33
2, 34920, Note_on_c, 0, 60, 33
2, 35040, Note_on_c, 0, 60, 0
2, 35040, Note_on_c, 0, 65, 0
2, 35040, Note_on_c, 0, 69, 0
2, 35040, Note_on_c, 0, 67, 47
2, 35160, Note_on_c, 0, 60, 33
2, 35280, Note_on_c, 0, 60, 0
2, 35280, Note_on_c, 0, 67, 0
2, 35280, Note_on_c, 0, 69, 56
2, 35400, Note_on_c, 0, 64, 34
2, 35400, Note_on_c, 0, 67, 34
2, 35520, Note_on_c, 0, 67, 0
2, 35520, Note_on_c, 0, 64, 0
2, 35520, Note_on_c, 0, 69, 0
2, 35520, Note_on_c, 0, 70, 62
2, 35640, Note_on_c, 0, 67, 37
2, 35640, Note_on_c, 0, 64, 37
2, 35760, Note_on_c, 0, 64, 0
2, 35760, Note_on_c, 0, 67, 0
2, 35760, Note_on_c, 0, 70, 0
2, 35760, Note_on_c, 0, 76, 65
2, 35880, Note_on_c, 0, 67, 40
2, 35880, Note_on_c, 0, 70, 40
2, 36000, Note_on_c, 0, 70, 0
2, 36000, Note_on_c, 0, 67, 0
2, 36000, Note_on_c, 0, 76, 0
2, 36000, Note_on_c, 0, 81, 69
2, 36120, Note_on_c, 0, 67, 42
2, 36120, Note_on_c, 0, 70, 42
2, 36240, Note_on_c, 0, 70, 0
2, 36240, Note_on_c, 0, 67, 0
2, 36240, Note_on_c, 0, 81, 0
2, 36240, Note_on_c, 0, 79, 63
2, 36360, Note_on_c, 0, 70, 40
2, 36360, Note_on_c, 0, 67, 40
2, 36480, Note_on_c, 0, 67, 0
2, 36480, Note_on_c, 0, 70, 0
2, 36480, Note_on_c, 0, 79, 0
2, 36480, Note_on_c, 0, 78, 64
2, 36600, Note_on_c, 0, 66, 39
2, 36600, Note_on_c, 0, 69, 39
2, 36720, Note_on_c, 0, 69, 0
2, 36720, Note_on_c, 0, 66, 0
2, 36720, Note_on_c, 0, 78, 0
2, 36720, Note_on_c, 0, 73, 59
2, 36840, Note_on_c, 0, 67, 39
2, 36840, Note_on_c, 0, 69, 39
2, 36960, Note_on_c, 0, 69, 0
2, 36960, Note_on_c, 0, 67, 0
2, 36960, Note_on_c, 0, 73, 0
2, 36960, Note_on_c, 0, 76, 63
2, 37080, Note_on_c, 0, 64, 42
2, 37080, Note_on_c, 0, 69, 42
2, 37200, Note_on_c, 0, 69, 0
2, 37200, Note_on_c, 0, 64, 0
2, 37200, Note_on_c, 0, 76, 0
2, 37200, Note_on_c, 0, 74, 62
2, 37320, Note_on_c, 0, 62, 39
2, 37320, Note_on_c, 0, 69, 39
2, 37440, Note_on_c, 0, 69, 0
2, 37440, Note_on_c, 0, 62, 0
2, 37440, Note_on_c, 0, 74, 0
2, 37440, Note_on_c, 0, 71, 62
2, 37560, Note_on_c, 0, 62, 39
2, 37560, Note_on_c, 0, 67, 39
2, 37680, Note_on_c, 0, 67, 0
2, 37680, Note_on_c, 0, 62, 0
2, 37680, Note_on_c, 0, 71, 0
2, 37680, Note_on_c, 0, 66, 49
2, 37800, Note_on_c, 0, 60, 31
2, 37800, Note_on_c, 0, 62, 31
2, 37920, Note_on_c, 0, 62, 0
2, 37920, Note_on_c, 0, 60, 0
2, 37920, Note_on_c, 0, 66, 0
2, 37920, Note_on_c, 0, 69, 52
2, 38040, Note_on_c, 0, 57, 32
2, 38040, Note_on_c, 0, 62, 32
2, 38160, Note_on_c, 0, 62, 0
2, 38160, Note_on_c, 0, 57, 0
2, 38160, Note_on_c, 0, 69, 0
2, 38160, Note_on_c, 0, 67, 48
2, 38280, Note_on_c, 0, 55, 31
2, 38280, Note_on_c, 0, 62, 31
2, 38400, Note_on_c, 0, 62, 0
2, 38400, Note_on_c, 0, 55, 0
2, 38400, Note_on_c, 0, 67, 0
2, 38400, Note_on_c, 0, 66, 45
2, 38520, Note_on_c, 0, 57, 30
2, 38520, Note_on_c, 0, 62, 30
2, 38640, Note_on_c, 0, 62, 0
2, 38640, Note_on_c, 0, 57, 0
2, 38640, Note_on_c, 0, 66, 0
2, 38640, Note_on_c, 0, 64, 39
2, 38760, Note_on_c, 0, 55, 28
2, 38760, Note_on_c, 0, 61, 28
2, 38880, Note_on_c, 0, 61, 0
2, 38880, Note_on_c, 0, 55, 0
2, 38880, Note_on_c, 0, 64, 0
2, 38880, Note_on_c, 0, 62, 38
2, 39000, Note_on_c, 0, 54, 22
2, 39000, Note_on_c, 0, 57, 22
2, 39360, Note_on_c, 0, 57, 0
2, 39360, Note_on_c, 0, 54, 0
2, 39360, Note_on_c, 0, 62, 0
2, 39360, End_track
3, 0, Start_track
3, 0, Title_t, "Piano left"
3, 0, Program_c, 0, 0
3, 0, Control_c, 0, 7, 100
3, 0, Control_c, 0, 10, 64
3, 719, Control_c, 0, 64, 0
3, 719, Control_c, 0, 91, 127
3, 960, Note_on_c, 0, 45, 51
3, 960, Note_on_c, 0, 33, 51
3, 1017, Control_c, 0, 64, 127
3, 1080, Note_on_c, 0, 33, 0
3, 1080, Note_on_c, 0, 45, 0
3, 1455, Control_c, 0, 64, 0
3, 1560, Control_c, 0, 64, 127
3, 1680, Note_on_c, 0, 49, 51
3, 1920, Note_on_c, 0, 49, 0
3, 1920, Note_on_c, 0, 45, 54
3, 1920, Note_on_c, 0, 50, 54
3, 1931, Control_c, 0, 64, 0
3, 1994, Control_c, 0, 64, 127
3, 2160, Note_on_c, 0, 50, 0
3, 2160, Note_on_c, 0, 54, 57
3, 2400, Note_on_c, 0, 54, 0
3, 2400, Note_on_c, 0, 59, 61
3, 2407, Control_c, 0, 64, 0
3, 2442, Control_c, 0, 64, 127
3, 2640, Note_on_c, 0, 59, 0
3, 2640, Note_on_c, 0, 57, 59
3, 2834, Control_c, 0, 64, 0
3, 2880, Note_on_c, 0, 57, 0
3, 2880, Note_on_c, 0, 45, 0
3, 2880, Control_c, 0, 64, 127
3, 2880, Note_on_c, 0, 45, 51
3, 3000, Note_on_c, 0, 45, 0
3, 3000, Note_on_c, 0, 55, 38
3, 3000, Note_on_c, 0, 57, 38
3, 3060, Note_on_c, 0, 57, 0
3, 3060, Note_on_c, 0, 55, 0
3, 3120, Note_on_c, 0, 55, 41
3, 3120, Note_on_c, 0, 57, 41
3, 3240, Note_on_c, 0, 55, 0
3, 3240, Note_on_c, 0, 54, 38
3, 3360, Note_on_c, 0, 54, 0
3, 3360, Note_on_c, 0, 52, 51
3, 3366, Control_c, 0, 64, 0
3, 3398, Control_c, 0, 64, 127
3, 3600, Note_on_c, 0, 52, 0
3, 3600, Note_on_c, 0, 57, 0
3, 3600, Note_on_c, 0, 33, 44
3, 3600, Note_on_c, 0, 45, 44
3, 3840, Note_on_c, 0, 33, 0
3, 3840, Note_on_c, 0, 38, 52
3, 3843, Control_c, 0, 64, 0
3, 3995, Control_c, 0, 64, 127
3, 4080, Note_on_c, 0, 38, 0
3, 4080, Note_on_c, 0, 42, 49
3, 4320, Note_on_c, 0, 42, 0
3, 4320, Note_on_c, 0, 45, 45
3, 4334, Control_c, 0, 64, 0
3, 4419, Control_c, 0, 64, 127
3, 4574, Control_c, 0, 64, 0
3, 4680, Note_on_c, 0, 45, 0
3, 4680, Note_on_c, 0, 33, 53
3, 4800, Note_on_c, 0, 33, 0
3, 4800, Note_on_c, 0, 45, 0
3, 4800, Note_on_c, 0, 45, 53
3, 4844, Control_c, 0, 64, 127
3, 5040, Note_on_c, 0, 49, 58
3, 5280, Note_on_c, 0, 49, 0
3, 5280, Note_on_c, 0, 54, 63
3, 5287, Control_c, 0, 64, 0
3, 5369, Control_c, 0, 64, 127
3, 5520, Note_on_c, 0, 54, 0
3, 5520, Note_on_c, 0, 52, 61
3, 5760, Note_on_c, 0, 52, 0
3, 5760, Note_on_c, 0, 45, 0
3, 5760, Control_c, 0, 64, 0
3, 5760, Note_on_c, 0, 38, 51
3, 5760, Note_on_c, 0, 50, 51
3, 5880, Control_c, 0, 64, 127
3, 6247, Control_c, 0, 64, 0
3, 6360, Control_c, 0, 64, 127
3, 6480, Note_on_c, 0, 50, 0
3, 6480, Note_on_c, 0, 38, 0
3, 6480, Note_on_c, 0, 36, 47
3, 6480, Note_on_c, 0, 48, 47
3, 6720, Note_on_c, 0, 48, 0
3, 6720, Note_on_c, 0, 36, 0
3, 6720, Control_c, 0, 64, 0
3, 6720, Note_on_c, 0, 35, 56
3, 6720, Note_on_c, 0, 47, 56
3, 6826, Control_c, 0, 64, 127
3, 7214, Control_c, 0, 64, 0
3, 7292, Control_c, 0, 64, 127
3, 7440, Note_on_c, 0, 47, 0
3, 7440, Note_on_c, 0, 35, 0
3, 7440, Note_on_c, 0, 34, 43
3, 7440, Note_on_c, 0, 46, 43
3, 7680, Note_on_c, 0, 46, 0
3, 7680, Note_on_c, 0, 34, 0
3, 7680, Control_c, 0, 64, 0
3, 7680, Note_on_c, 0, 33, 45
3, 7680, Note_on_c, 0, 45, 45
3, 7760, Control_c, 0, 64, 127
3, 7920, Note_on_c, 0, 45, 0
3, 7920, Note_on_c, 0, 33, 0
3, 7920, Note_on_c, 0, 35, 43
3, 7920, Note_on_c, 0, 47, 43
3, 8160, Note_on_c, 0, 47, 0
3, 8160, Note_on_c, 0, 35, 0
3, 8160, Note_on_c, 0, 36, 40
3, 8160, Note_on_c, 0, 48, 40
3, 8178, Control_c, 0, 64, 0
3, 8275, Control_c, 0, 64, 127
3, 8400, Note_on_c, 0, 48, 0
3, 8400, Note_on_c, 0, 36, 0
3, 8400, Note_on_c, 0, 37, 51
3, 8400, Note_on_c, 0, 49, 51
3, 8417, Control_c, 0, 64, 0
3, 8684, Control_c, 0, 64, 127
3, 8880, Note_on_c, 0, 49, 0
3, 8880, Note_on_c, 0, 37, 0
3, 8880, Note_on_c, 0, 33, 51
3, 9120, Note_on_c, 0, 33, 0
3, 9133, Control_c, 0, 64, 0
3, 9215, Control_c, 0, 64, 127
3, 9360, Note_on_c, 0, 49, 51
3, 9600, Note_on_c, 0, 49, 0
3, 9600, Note_on_c, 0, 45, 54
3, 9600, Note_on_c, 0, 50, 54
3, 9614, Control_c, 0, 64, 0
3, 9671, Control_c, 0, 64, 127
3, 9840, Note_on_c, 0, 50, 0
3, 9840, Note_on_c, 0, 54, 57
3, 10080, Note_on_c, 0, 54, 0
3, 10080, Note_on_c, 0, 59, 61
3, 10094, Control_c, 0, 64, 0
3, 10207, Control_c, 0, 64, 127
3, 10320, Note_on_c, 0, 59, 0
3, 10320, Note_on_c, 0, 57, 59
3, 10560, Note_on_c, 0, 57, 0
3, 10560, Note_on_c, 0, 45, 0
3, 10560, Note_on_c, 0, 45, 51
3, 10562, Control_c, 0, 64, 0
3, 10604, Control_c, 0, 64, 127
3, 10680, Note_on_c, 0, 45, 0
3, 10680, Note_on_c, 0, 55, 38
3, 10680, Note_on_c, 0, 57, 38
3, 10740, Note_on_c, 0, 57, 0
3, 10740, Note_on_c, 0, 55, 0
3, 10800, Note_on_c, 0, 55, 41
3, 10800, Note_on_c, 0, 57, 41
3, 10920, Note_on_c, 0, 55, 0
3, 10920, Note_on_c, 0, 54, 38
3, 11040, Note_on_c, 0, 54, 0
3, 11040, Note_on_c, 0, 52, 51
3, 11053, Control_c, 0, 64, 0
3, 11103, Control_c, 0, 64, 127
3, 11280, Note_on_c, 0, 52, 0
3, 11280, Note_on_c, 0, 57, 0
3, 11280, Note_on_c, 0, 33, 44
3, 11280, Note_on_c, 0, 45, 44
3, 11520, Note_on_c, 0, 33, 0
3, 11520, Control_c, 0, 64, 0
3, 11520, Note_on_c, 0, 38, 51
3, 11647, Control_c, 0, 64, 127
3, 11760, Note_on_c, 0, 38, 0
3, 11760, Note_on_c, 0, 42, 47
3, 12000, Note_on_c, 0, 42, 0
3, 12000, Note_on_c, 0, 45, 45
3, 12014, Control_c, 0, 64, 0
3, 12064, Control_c, 0, 64, 127
3, 12248, Control_c, 0, 64, 0
3, 12360, Note_on_c, 0, 45, 0
3, 12360, Note_on_c, 0, 33, 53
3, 12480, Note_on_c, 0, 33, 0
3, 12480, Note_on_c, 0, 45, 0
3, 12480, Note_on_c, 0, 45, 53
3, 12524, Control_c, 0, 64, 127
3, 12720, Note_on_c, 0, 49, 58
3, 12960, Note_on_c, 0, 49, 0
3, 12960, Note_on_c, 0, 54, 63
3, 12972, Control_c, 0, 64, 0
3, 13074, Control_c, 0, 64, 127
3, 13200, Note_on_c, 0, 54, 0
3, 13200, Note_on_c, 0, 52, 61
3, 13440, Note_on_c, 0, 52, 0
3, 13440, Note_on_c, 0, 45, 0
3, 13440, Control_c, 0, 64, 0
3, 13440, Note_on_c, 0, 38, 51
3, 13440, Note_on_c, 0, 50, 51
3, 13532, Control_c, 0, 64, 127
3, 13934, Control_c, 0, 64, 0
3, 14061, Control_c, 0, 64, 127
3, 14160, Note_on_c, 0, 50, 0
3, 14160, Note_on_c, 0, 38, 0
3, 14160, Note_on_c, 0, 36, 47
3, 14160, Note_on_c, 0, 48, 47
3, 14400, Note_on_c, 0, 48, 0
3, 14400, Note_on_c, 0, 36, 0
3, 14400, Control_c, 0, 64, 0
3, 14400, Note_on_c, 0, 35, 56
3, 14400, Note_on_c, 0, 47, 56
3, 14478, Control_c, 0, 64, 127
3, 14894, Control_c, 0, 64, 0
3, 15007, Control_c, 0, 64, 127
3, 15120, Note_on_c, 0, 47, 0
3, 15120, Note_on_c, 0, 35, 0
3, 15120, Note_on_c, 0, 34, 43
3, 15120, Note_on_c, 0, 46, 43
3, 15360, Note_on_c, 0, 46, 0
3, 15360, Note_on_c, 0, 34, 0
3, 15360, Control_c, 0, 64, 0
3, 15360, Note_on_c, 0, 33, 42
3, 15360, Note_on_c, 0, 45, 42
3, 15446, Control_c, 0, 64, 127
3, 15600, Note_on_c, 0, 45, 0
3, 15600, Note_on_c, 0, 33, 0
3, 15600, Note_on_c, 0, 35, 40
3, 15600, Note_on_c, 0, 47, 40
3, 15840, Note_on_c, 0, 47, 0
3, 15840, Note_on_c, 0, 35, 0
3, 15840, Note_on_c, 0, 37, 38
3, 15840, Note_on_c, 0, 49, 38
3, 15851, Control_c, 0, 64, 0
3, 15926, Control_c, 0, 64, 127
3, 16079, Control_c, 0, 91, 127
3, 16080, Note_on_c, 0, 49, 0
3, 16080, Note_on_c, 0, 37, 0
3, 16080, Note_on_c, 0, 36, 38
3, 16080, Note_on_c, 0, 48, 38
3, 16085, Control_c, 0, 64, 0
3, 16371, Control_c, 0, 64, 127
3, 16816, Control_c, 0, 64, 0
3, 16915, Control_c, 0, 64, 127
3, 17040, Note_on_c, 0, 48, 0
3, 17040, Note_on_c, 0, 36, 0
3, 17040, Note_on_c, 0, 52, 43
3, 17280, Note_on_c, 0, 52, 0
3, 17280, Control_c, 0, 64, 0
3, 17280, Note_on_c, 0, 48, 45
3, 17280, Note_on_c, 0, 53, 45
3, 17344, Control_c, 0, 64, 127
3, 17520, Note_on_c, 0, 53, 0
3, 17520, Note_on_c, 0, 57, 48
3, 17760, Note_on_c, 0, 57, 0
3, 17760, Note_on_c, 0, 62, 51
3, 17778, Control_c, 0, 64, 0
3, 17824, Control_c, 0, 64, 127
3, 18000, Note_on_c, 0, 62, 0
3, 18000, Note_on_c, 0, 60, 50
3, 18240, Note_on_c, 0, 60, 0
3, 18240, Note_on_c, 0, 48, 0
3, 18240, Control_c, 0, 64, 0
3, 18240, Note_on_c, 0, 48, 43
3, 18274, Control_c, 0, 64, 127
3, 18360, Note_on_c, 0, 48, 0
3, 18360, Note_on_c, 0, 58, 32
3, 18360, Note_on_c, 0, 62, 32
3, 18420, Note_on_c, 0, 62, 0
3, 18420, Note_on_c, 0, 58, 0
3, 18480, Note_on_c, 0, 62, 34
3, 18480, Note_on_c, 0, 58, 34
3, 18600, Note_on_c, 0, 58, 0
3, 18600, Note_on_c, 0, 57, 32
3, 18720, Note_on_c, 0, 57, 0
3, 18720, Note_on_c, 0, 55, 43
3, 18733, Control_c, 0, 64, 0
3, 18791, Control_c, 0, 64, 127
3, 18960, Note_on_c, 0, 55, 0
3, 18960, Note_on_c, 0, 62, 0
3, 18960, Note_on_c, 0, 52, 37
3, 18960, Note_on_c, 0, 36, 37
3, 19200, Note_on_c, 0, 36, 0
3, 19200, Note_on_c, 0, 52, 0
3, 19200, Control_c, 0, 64, 0
3, 19200, Note_on_c, 0, 53, 45
3, 19200, Note_on_c, 0, 41, 45
3, 19303, Control_c, 0, 64, 127
3, 19440, Note_on_c, 0, 41, 0
3, 19440, Note_on_c, 0, 45, 40
3, 19680, Note_on_c, 0, 45, 0
3, 19680, Note_on_c, 0, 53, 0
3, 19680, Note_on_c, 0, 52, 39
3, 19680, Note_on_c, 0, 48, 39
3, 19703, Control_c, 0, 64, 0
3, 19771, Control_c, 0, 64, 127
3, 20080, Control_c, 0, 64, 0
3, 20160, Note_on_c, 0, 48, 0
3, 20160, Note_on_c, 0, 52, 0
3, 20160, Note_on_c, 0, 36, 48
3, 20160, Note_on_c, 0, 48, 48
3, 20246, Control_c, 0, 64, 127
3, 20646, Control_c, 0, 64, 0
3, 20720, Control_c, 0, 64, 127
3, 20880, Note_on_c, 0, 48, 0
3, 20880, Note_on_c, 0, 36, 0
3, 20880, Note_on_c, 0, 37, 39
3, 20880, Note_on_c, 0, 49, 39
3, 21120, Note_on_c, 0, 49, 0
3, 21120, Note_on_c, 0, 37, 0
3, 21120, Control_c, 0, 64, 0
3, 21120, Note_on_c, 0, 38, 39
3, 21120, Note_on_c, 0, 50, 39
3, 21171, Control_c, 0, 64, 127
3, 21360, Note_on_c, 0, 50, 0
3, 21360, Note_on_c, 0, 38, 0
3, 21360, Note_on_c, 0, 40, 38
3, 21360, Note_on_c, 0, 52, 38
3, 21600, Note_on_c, 0, 52, 0
3, 21600, Note_on_c, 0, 40, 0
3, 21600, Note_on_c, 0, 41, 36
3, 21600, Note_on_c, 0, 53, 36
3, 21613, Control_c, 0, 64, 0
3, 21669, Control_c, 0, 64, 127
3, 21840, Note_on_c, 0, 53, 0
3, 21840, Note_on_c, 0, 41, 0
3, 21840, Note_on_c, 0, 42, 35
3, 21840, Note_on_c, 0, 54, 35
3, 21846, Control_c, 0, 64, 0
3, 21916, Control_c, 0, 64, 127
3, 22080, Note_on_c, 0, 54, 0
3, 22080, Note_on_c, 0, 42, 0
3, 22080, Note_on_c, 0, 43, 34
3, 22080, Note_on_c, 0, 55, 34
3, 22085, Control_c, 0, 64, 0
3, 22122, Control_c, 0, 64, 127
3, 22320, Note_on_c, 0, 55, 0
3, 22320, Note_on_c, 0, 43, 0
3, 22320, Note_on_c, 0, 45, 23
3, 22320, Note_on_c, 0, 57, 23
3, 22329, Control_c, 0, 64, 0
3, 22385, Control_c, 0, 64, 127
3, 22560, Note_on_c, 0, 57, 0
3, 22560, Note_on_c, 0, 45, 0
3, 22560, Note_on_c, 0, 46, 28
3, 22560, Note_on_c, 0, 58, 28
3, 22583, Control_c, 0, 64, 0
3, 22615, Control_c, 0, 64, 127
3, 22800, Note_on_c, 0, 58, 0
3, 22800, Note_on_c, 0, 46, 0
3, 22800, Control_c, 0, 64, 0
3, 22800, Note_on_c, 0, 47, 22
3, 22800, Note_on_c, 0, 59, 22
3, 22836, Control_c, 0, 64, 127
3, 23040, Note_on_c, 0, 59, 0
3, 23040, Note_on_c, 0, 47, 0
3, 23040, Note_on_c, 0, 45, 24
3, 23042, Control_c, 0, 64, 0
3, 23146, Control_c, 0, 64, 127
3, 23280, Note_on_c, 0, 33, 20
3, 23499, Control_c, 0, 64, 0
3, 23520, Note_on_c, 0, 33, 0
3, 23520, Note_on_c, 0, 38, 22
3, 23584, Control_c, 0, 64, 127
3, 23760, Note_on_c, 0, 38, 0
3, 23760, Control_c, 0, 64, 0
3, 24000, Note_on_c, 0, 45, 0
3, 24000, Note_on_c, 0, 33, 51
3, 24000, Note_on_c, 0, 45, 51
3, 24057, Control_c, 0, 64, 127
3, 24120, Note_on_c, 0, 45, 0
3, 24120, Note_on_c, 0, 33, 0
3, 24493, Control_c, 0, 64, 0
3, 24568, Control_c, 0, 64, 127
3, 24720, Note_on_c, 0, 49, 51
3, 24960, Note_on_c, 0, 49, 0
3, 24960, Note_on_c, 0, 45, 54
3, 24960, Note_on_c, 0, 50, 54
3, 24966, Control_c, 0, 64, 0
3, 25034, Control_c, 0, 64, 127
3, 25200, Note_on_c, 0, 50, 0
3, 25200, Note_on_c, 0, 54, 58
3, 25440, Note_on_c, 0, 54, 0
3, 25440, Note_on_c, 0, 59, 62
3, 25451, Control_c, 0, 64, 0
3, 25493, Control_c, 0, 64, 127
3, 25680, Note_on_c, 0, 59, 0
3, 25680, Note_on_c, 0, 57, 59
3, 25874, Control_c, 0, 64, 0
3, 25920, Note_on_c, 0, 57, 0
3, 25920, Note_on_c, 0, 45, 0
3, 25920, Control_c, 0, 64, 127
3, 25920, Note_on_c, 0, 45, 51
3, 26040, Note_on_c, 0, 45, 0
3, 26040, Note_on_c, 0, 55, 38
3, 26040, Note_on_c, 0, 57, 38
3, 26100, Note_on_c, 0, 57, 0
3, 26100, Note_on_c, 0, 55, 0
3, 26160, Note_on_c, 0, 55, 41
3, 26160, Note_on_c, 0, 57, 41
3, 26280, Note_on_c, 0, 55, 0
3, 26280, Note_on_c, 0, 54, 38
3, 26400, Note_on_c, 0, 54, 0
3, 26400, Note_on_c, 0, 52, 51
3, 26406, Control_c, 0, 64, 0
3, 26438, Control_c, 0, 64, 127
3, 26640, Note_on_c, 0, 52, 0
3, 26640, Note_on_c, 0, 57, 0
3, 26640, Note_on_c, 0, 33, 44
3, 26640, Note_on_c, 0, 45, 44
3, 26880, Note_on_c, 0, 33, 0
3, 26880, Note_on_c, 0, 38, 52
3, 26884, Control_c, 0, 64, 0
3, 26972, Control_c, 0, 64, 127
3, 27120, Note_on_c, 0, 38, 0
3, 27120, Note_on_c, 0, 42, 49
3, 27360, Note_on_c, 0, 42, 0
3, 27360, Note_on_c, 0, 45, 45
3, 27369, Control_c, 0, 64, 0
3, 27438, Control_c, 0, 64, 127
3, 27614, Control_c, 0, 64, 0
3, 27720, Note_on_c, 0, 45, 0
3, 27720, Note_on_c, 0, 33, 53
3, 27840, Note_on_c, 0, 33, 0
3, 27840, Note_on_c, 0, 45, 0
3, 27840, Control_c, 0, 64, 127
3, 27840, Note_on_c, 0, 45, 53
3, 28080, Note_on_c, 0, 49, 59
3, 28320, Note_on_c, 0, 49, 0
3, 28320, Note_on_c, 0, 54, 63
3, 28335, Control_c, 0, 64, 0
3, 28415, Control_c, 0, 64, 127
3, 28560, Note_on_c, 0, 54, 0
3, 28560, Note_on_c, 0, 52, 61
3, 28800, Note_on_c, 0, 52, 0
3, 28800, Note_on_c, 0, 45, 0
3, 28800, Note_on_c, 0, 38, 51
3, 28800, Note_on_c, 0, 50, 51
3, 28805, Control_c, 0, 64, 0
3, 28878, Control_c, 0, 64, 127
3, 29301, Control_c, 0, 64, 0
3, 29365, Control_c, 0, 64, 127
3, 29520, Note_on_c, 0, 50, 0
3, 29520, Note_on_c, 0, 38, 0
3, 29520, Note_on_c, 0, 36, 47
3, 29520, Note_on_c, 0, 48, 47
3, 29760, Note_on_c, 0, 48, 0
3, 29760, Note_on_c, 0, 36, 0
3, 29760, Control_c, 0, 64, 0
3, 29760, Note_on_c, 0, 35, 56
3, 29760, Note_on_c, 0, 47, 56
3, 29845, Control_c, 0, 64, 127
3, 30252, Control_c, 0, 64, 0
3, 30388, Control_c, 0, 64, 127
3, 30480, Note_on_c, 0, 47, 0
3, 30480, Note_on_c, 0, 35, 0
3, 30480, Note_on_c, 0, 34, 43
3, 30480, Note_on_c, 0, 46, 43
3, 30720, Note_on_c, 0, 46, 0
3, 30720, Note_on_c, 0, 34, 0
3, 30720, Note_on_c, 0, 33, 42
3, 30720, Note_on_c, 0, 45, 42
3, 30723, Control_c, 0, 64, 0
3, 30800, Control_c, 0, 64, 127
3, 30960, Note_on_c, 0, 45, 0
3, 30960, Note_on_c, 0, 33, 0
3, 30960, Note_on_c, 0, 35, 40
3, 30960, Note_on_c, 0, 47, 40
3, 31200, Note_on_c, 0, 47, 0
3, 31200, Note_on_c, 0, 35, 0
3, 31200, Note_on_c, 0, 37, 38
3, 31200, Note_on_c, 0, 49, 38
3, 31211, Control_c, 0, 64, 0
3, 31269, Control_c, 0, 64, 127
3, 31439, Control_c, 0, 91, 127
3, 31440, Note_on_c, 0, 49, 0
3, 31440, Note_on_c, 0, 37, 0
3, 31440, Note_on_c, 0, 36, 38
3, 31440, Note_on_c, 0, 48, 38
3, 31451, Control_c, 0, 64, 0
3, 31731, Control_c, 0, 64, 127
3, 32180, Control_c, 0, 64, 0
3, 32251, Control_c, 0, 64, 127
3, 32400, Note_on_c, 0, 48, 0
3, 32400, Note_on_c, 0, 36, 0
3, 32400, Note_on_c, 0, 52, 43
3, 32640, Note_on_c, 0, 52, 0
3, 32640, Note_on_c, 0, 48, 45
3, 32640, Note_on_c, 0, 53, 45
3, 32643, Control_c, 0, 64, 0
3, 32714, Control_c, 0, 64, 127
3, 32880, Note_on_c, 0, 53, 0
3, 32880, Note_on_c, 0, 57, 49
3, 33120, Note_on_c, 0, 57, 0
3, 33120, Note_on_c, 0, 62, 53
3, 33135, Control_c, 0, 64, 0
3, 33187, Control_c, 0, 64, 127
3, 33360, Note_on_c, 0, 62, 0
3, 33360, Note_on_c, 0, 60, 50
3, 33554, Control_c, 0, 64, 0
3, 33600, Note_on_c, 0, 60, 0
3, 33600, Note_on_c, 0, 48, 0
3, 33600, Note_on_c, 0, 48, 43
3, 33634, Control_c, 0, 64, 127
3, 33720, Note_on_c, 0, 48, 0
3, 33720, Note_on_c, 0, 58, 32
3, 33720, Note_on_c, 0, 62, 32
3, 33780, Note_on_c, 0, 62, 0
3, 33780, Note_on_c, 0, 58, 0
3, 33840, Note_on_c, 0, 62, 34
3, 33840, Note_on_c, 0, 58, 34
3, 33960, Note_on_c, 0, 58, 0
3, 33960, Note_on_c, 0, 57, 32
3, 34080, Note_on_c, 0, 57, 0
3, 34080, Note_on_c, 0, 55, 43
3, 34097, Control_c, 0, 64, 0
3, 34143, Control_c, 0, 64, 127
3, 34320, Note_on_c, 0, 55, 0
3, 34320, Note_on_c, 0, 62, 0
3, 34320, Note_on_c, 0, 52, 37
3, 34320, Note_on_c, 0, 36, 37
3, 34560, Note_on_c, 0, 36, 0
3, 34560, Note_on_c, 0, 52, 0
3, 34560, Note_on_c, 0, 53, 45
3, 34560, Note_on_c, 0, 41, 45
3, 34577, Control_c, 0, 64, 0
3, 34646, Control_c, 0, 64, 127
3, 34800, Note_on_c, 0, 41, 0
3, 34800, Note_on_c, 0, 45, 40
3, 35040, Note_on_c, 0, 45, 0
3, 35040, Note_on_c, 0, 53, 0
3, 35040, Note_on_c, 0, 52, 39
3, 35040, Note_on_c, 0, 48, 39
3, 35052, Control_c, 0, 64, 0
3, 35166, Control_c, 0, 64, 127
3, 35440, Control_c, 0, 64, 0
3, 35520, Note_on_c, 0, 48, 0
3, 35520, Note_on_c, 0, 52, 0
3, 35520, Note_on_c, 0, 36, 48
3, 35520, Note_on_c, 0, 48, 48
3, 35651, Control_c, 0, 64, 127
3, 36019, Control_c, 0, 64, 0
3, 36120, Control_c, 0, 64, 127
3, 36240, Note_on_c, 0, 48, 0
3, 36240, Note_on_c, 0, 36, 0
3, 36240, Note_on_c, 0, 37, 39
3, 36240, Note_on_c, 0, 49, 39
3, 36480, Note_on_c, 0, 49, 0
3, 36480, Note_on_c, 0, 37, 0
3, 36480, Control_c, 0, 64, 0
3, 36480, Note_on_c, 0, 38, 39
3, 36480, Note_on_c, 0, 50, 39
3, 36606, Control_c, 0, 64, 127
3, 36720, Note_on_c, 0, 50, 0
3, 36720, Note_on_c, 0, 38, 0
3, 36720, Note_on_c, 0, 40, 38
3, 36720, Note_on_c, 0, 52, 38
3, 36960, Note_on_c, 0, 52, 0
3, 36960, Note_on_c, 0, 40, 0
3, 36960, Note_on_c, 0, 41, 36
3, 36960, Note_on_c, 0, 53, 36
3, 36970, Control_c, 0, 64, 0
3, 37017, Control_c, 0, 64, 127
3, 37200, Note_on_c, 0, 53, 0
3, 37200, Note_on_c, 0, 41, 0
3, 37200, Note_on_c, 0, 42, 35
3, 37200, Note_on_c, 0, 54, 35
3, 37205, Control_c, 0, 64, 0
3, 37295, Control_c, 0, 64, 127
3, 37440, Note_on_c, 0, 54, 0
3, 37440, Note_on_c, 0, 42, 0
3, 37440, Note_on_c, 0, 43, 34
3, 37440, Note_on_c, 0, 55, 34
3, 37443, Control_c, 0, 64, 0
3, 37495, Control_c, 0, 64, 127
3, 37680, Note_on_c, 0, 55, 0
3, 37680, Note_on_c, 0, 43, 0
3, 37680, Note_on_c, 0, 45, 23
3, 37680, Note_on_c, 0, 57, 23
3, 37690, Control_c, 0, 64, 0
3, 37742, Control_c, 0, 64, 127
3, 37920, Note_on_c, 0, 57, 0
3, 37920, Note_on_c, 0, 45, 0
3, 37920, Note_on_c, 0, 46, 28
3, 37920, Note_on_c, 0, 58, 28
3, 37933, Control_c, 0, 64, 0
3, 37972, Control_c, 0, 64, 127
3, 38160, Note_on_c, 0, 58, 0
3, 38160, Note_on_c, 0, 46, 0
3, 38160, Note_on_c, 0, 47, 22
3, 38160, Note_on_c, 0, 59, 22
3, 38170, Control_c, 0, 64, 0
3, 38231, Control_c, 0, 64, 127
3, 38400, Note_on_c, 0, 59, 0
3, 38400, Note_on_c, 0, 47, 0
3, 38400, Note_on_c, 0, 45, 24
3, 38420, Control_c, 0, 64, 0
3, 38499, Control_c, 0, 64, 127
3, 38640, Note_on_c, 0, 33, 20
3, 38880, Note_on_c, 0, 33, 0
3, 38880, Note_on_c, 0, 38, 22
3, 38885, Control_c, 0, 64, 0
3, 38979, Control_c, 0, 64, 127
3, 39360, Note_on_c, 0, 38, 0
3, 39360, Note_on_c, 0, 45, 0
3, 39360, Control_c, 0, 64, 0
3, 39360, End_track
4, 0, Start_track
4, 0, Title_t, "Schumann: Scenes from Childhood Op. 15"
4, 0, End_track
5, 0, Start_track
5, 0, Title_t, "Copyright © 1997 by Bernd Krueger"
5, 0, End_track
6, 0, Start_track
6, 0, Title_t, "http://www.piano-midi.de"
6, 0, End_track
7, 0, Start_track
7, 0, Title_t, "Edition: 2014-03-14"
7, 0, End_track
8, 0, Start_track
8, 0, Title_t, "Spur 7"
8, 0, End_track
0, 0, End_of_file
