0, 0, Header, 1, 7, 480
1, 0, Start_track
1, 0, Title_t, "Kinderszenen Opus 15"
1, 0, Title_t, "Ritter vom Steckenpferd"
1, 0, Copyright_t, "Copyright © 1997 von Bernd Krüger."
1, 0, Text_t, "Robert Schumann"
1, 0, Text_t, "Fertiggestellt am 19.12.97\012"
1, 0, Text_t, "Korrekturen am 4.9.98\012"
1, 0, Text_t, "Anpassungen an Digitalpiano am 1.1.99\012"
1, 0, Text_t, "Update am 16.6.99\012"
1, 0, Text_t, "Update am 9.7.99\012"
1, 0, Text_t, "Normierung: 23.12.2002\012"
1, 0, Text_t, "Update am 14.10.2008\012"
1, 0, Text_t, "Update am 26.3.2014\012"
1, 0, Text_t, "Dauer: 0:37 Minuten\012"
1, 0, Time_signature, 3, 2, 24, 8
1, 0, Key_signature, 0, "major"
1, 0, Tempo, 245902
1, 0, Marker_t, "On the Rocking Horse"
1, 240, Tempo, 279070
1, 720, Tempo, 260870
1, 960, Tempo, 251572
1, 1440, Tempo, 244898
1, 1680, Tempo, 279070
1, 2160, Tempo, 260870
1, 2400, Tempo, 252101
1, 2880, Tempo, 245902
1, 3120, Tempo, 279070
1, 3600, Tempo, 266667
1, 3840, Tempo, 254777
1, 4320, Tempo, 250522
1, 4560, Tempo, 279070
1, 5040, Tempo, 267857
1, 5280, Tempo, 258065
1, 5760, Tempo, 244898
1, 6000, Tempo, 279070
1, 6480, Tempo, 262009
1, 6720, Tempo, 251046
1, 7200, Tempo, 247423
1, 7440, Tempo, 279070
1, 7920, Tempo, 261438
1, 8160, Tempo, 254237
1, 8640, Tempo, 250522
1, 8880, Tempo, 279070
1, 9360, Tempo, 269058
1, 9600, Tempo, 259179
1, 10080, Tempo, 254777
1, 10320, Tempo, 279070
1, 10800, Tempo, 272109
1, 11040, Tempo, 254777
1, 11520, Tempo, 245902
1, 11760, Tempo, 279070
1, 12240, Tempo, 260870
1, 12480, Tempo, 251572
1, 12960, Tempo, 244898
1, 13200, Tempo, 279070
1, 13680, Tempo, 260870
1, 13920, Tempo, 252101
1, 14400, Tempo, 245902
1, 14640, Tempo, 279070
1, 15120, Tempo, 266667
1, 15360, Tempo, 254777
1, 15840, Tempo, 250522
1, 16080, Tempo, 279070
1, 16560, Tempo, 267857
1, 16800, Tempo, 258065
1, 17280, Tempo, 244898
1, 17520, Tempo, 279070
1, 18000, Tempo, 262009
1, 18240, Tempo, 251046
1, 18720, Tempo, 247423
1, 18960, Tempo, 279070
1, 19440, Tempo, 261438
1, 19680, Tempo, 254237
1, 20160, Tempo, 250522
1, 20400, Tempo, 279070
1, 20880, Tempo, 269058
1, 21120, Tempo, 259179
1, 21600, Tempo, 254777
1, 21840, Tempo, 279070
1, 22320, Tempo, 272109
1, 22560, Tempo, 269058
1, 23040, Tempo, 245902
1, 23280, Tempo, 279070
1, 23760, Tempo, 260870
1, 24000, Tempo, 251572
1, 24480, Tempo, 245902
1, 24720, Tempo, 279070
1, 25200, Tempo, 260870
1, 25440, Tempo, 251572
1, 25920, Tempo, 245902
1, 26160, Tempo, 279070
1, 26640, Tempo, 264317
1, 26880, Tempo, 253700
1, 27360, Tempo, 245902
1, 27600, Tempo, 279070
1, 28080, Tempo, 263736
1, 28320, Tempo, 254237
1, 28800, Tempo, 245902
1, 29040, Tempo, 279070
1, 29520, Tempo, 260870
1, 29760, Tempo, 251572
1, 30240, Tempo, 245902
1, 30480, Tempo, 279070
1, 30960, Tempo, 263158
1, 31200, Tempo, 254237
1, 31680, Tempo, 245902
1, 31920, Tempo, 279070
1, 32400, Tempo, 260870
1, 32640, Tempo, 251572
1, 33120, Tempo, 245902
1, 33360, Tempo, 279070
1, 33840, Tempo, 264901
1, 34080, Tempo, 255864
1, 34560, Tempo, 244898
1, 34800, Tempo, 279070
1, 35280, Tempo, 262009
1, 35520, Tempo, 251046
1, 36000, Tempo, 244898
1, 36240, Tempo, 279070
1, 36720, Tempo, 255319
1, 36960, Tempo, 251046
1, 37440, Tempo, 245399
1, 37680, Tempo, 279070
1, 38160, Tempo, 254777
1, 38400, Tempo, 250000
1, 38880, Tempo, 244898
1, 39120, Tempo, 279070
1, 39600, Tempo, 272109
1, 39840, Tempo, 254777
1, 40320, Tempo, 244898
1, 40560, Tempo, 279070
1, 41040, Tempo, 254777
1, 41280, Tempo, 251046
1, 41760, Tempo, 244898
1, 42000, Tempo, 279070
1, 42480, Tempo, 251572
1, 42720, Tempo, 247934
1, 43200, Tempo, 245399
1, 43440, Tempo, 283019
1, 43920, Tempo, 267857
1, 44160, Tempo, 258621
1, 44640, Tempo, 244898
1, 44880, Tempo, 285036
1, 45360, Tempo, 272109
1, 45600, Tempo, 266075
1, 45960, Tempo, 300000
1, 46080, Tempo, 245902
1, 46320, Tempo, 279070
1, 46800, Tempo, 260870
1, 47040, Tempo, 251572
1, 47520, Tempo, 245902
1, 47760, Tempo, 279070
1, 48240, Tempo, 260870
1, 48480, Tempo, 251572
1, 48960, Tempo, 245902
1, 49200, Tempo, 279070
1, 49680, Tempo, 264317
1, 49920, Tempo, 253700
1, 50400, Tempo, 245902
1, 50640, Tempo, 279070
1, 51120, Tempo, 263736
1, 51360, Tempo, 254237
1, 51840, Tempo, 245902
1, 52080, Tempo, 279070
1, 52560, Tempo, 260870
1, 52800, Tempo, 251572
1, 53280, Tempo, 245902
1, 53520, Tempo, 279070
1, 54000, Tempo, 263158
1, 54240, Tempo, 254237
1, 54720, Tempo, 245902
1, 54960, Tempo, 279070
1, 55440, Tempo, 260870
1, 55680, Tempo, 251572
1, 56160, Tempo, 245902
1, 56400, Tempo, 279070
1, 56880, Tempo, 264901
1, 57120, Tempo, 255864
1, 57600, Tempo, 244898
1, 57840, Tempo, 279070
1, 58320, Tempo, 262009
1, 58560, Tempo, 251046
1, 59040, Tempo, 244898
1, 59280, Tempo, 279070
1, 59760, Tempo, 255319
1, 60000, Tempo, 251046
1, 60480, Tempo, 245399
1, 60720, Tempo, 279070
1, 61200, Tempo, 254777
1, 61440, Tempo, 250000
1, 61920, Tempo, 244898
1, 62160, Tempo, 279070
1, 62640, Tempo, 272109
1, 62880, Tempo, 254777
1, 63360, Tempo, 244898
1, 63600, Tempo, 279070
1, 64080, Tempo, 258065
1, 64320, Tempo, 254237
1, 64800, Tempo, 244898
1, 65040, Tempo, 279070
1, 65520, Tempo, 256959
1, 65760, Tempo, 252632
1, 66240, Tempo, 245399
1, 66480, Tempo, 283019
1, 66960, Tempo, 271493
1, 67200, Tempo, 263158
1, 67680, Tempo, 244898
1, 67920, Tempo, 285036
1, 68400, Tempo, 272109
1, 68640, Tempo, 258621
1, 69120, Tempo, 245902
1, 69120, Marker_t, "Fine"
1, 69120, End_track
2, 0, Start_track
2, 0, Title_t, "Piano right"
2, 0, Program_c, 0, 0
2, 0, Control_c, 0, 7, 100
2, 0, Control_c, 0, 10, 64
2, 0, Text_t, "bdca426d104a26ac9dcb070447587523"
2, 0, Control_c, 0, 91, 127
2, 240, Note_on_c, 0, 79, 57
2, 240, Note_on_c, 0, 72, 57
2, 715, Note_on_c, 0, 72, 0
2, 715, Note_on_c, 0, 79, 0
2, 720, Note_on_c, 0, 79, 57
2, 720, Note_on_c, 0, 72, 57
2, 958, Note_on_c, 0, 72, 0
2, 958, Note_on_c, 0, 79, 0
2, 960, Note_on_c, 0, 72, 70
2, 960, Note_on_c, 0, 81, 70
2, 1435, Note_on_c, 0, 81, 0
2, 1435, Note_on_c, 0, 72, 0
2, 1680, Note_on_c, 0, 79, 57
2, 1680, Note_on_c, 0, 72, 57
2, 2155, Note_on_c, 0, 72, 0
2, 2155, Note_on_c, 0, 79, 0
2, 2160, Note_on_c, 0, 79, 57
2, 2160, Note_on_c, 0, 72, 57
2, 2398, Note_on_c, 0, 72, 0
2, 2398, Note_on_c, 0, 79, 0
2, 2400, Note_on_c, 0, 76, 68
2, 2400, Note_on_c, 0, 72, 68
2, 2875, Note_on_c, 0, 72, 0
2, 2875, Note_on_c, 0, 76, 0
2, 3120, Note_on_c, 0, 77, 54
2, 3120, Note_on_c, 0, 72, 54
2, 3595, Note_on_c, 0, 72, 0
2, 3595, Note_on_c, 0, 77, 0
2, 3600, Note_on_c, 0, 72, 54
2, 3600, Note_on_c, 0, 77, 54
2, 3838, Note_on_c, 0, 77, 0
2, 3838, Note_on_c, 0, 72, 0
2, 3840, Note_on_c, 0, 74, 65
2, 3840, Note_on_c, 0, 79, 65
2, 4315, Note_on_c, 0, 79, 0
2, 4315, Note_on_c, 0, 74, 0
2, 4560, Note_on_c, 0, 76, 51
2, 4560, Note_on_c, 0, 72, 51
2, 5035, Note_on_c, 0, 72, 0
2, 5035, Note_on_c, 0, 76, 0
2, 5040, Note_on_c, 0, 72, 51
2, 5040, Note_on_c, 0, 76, 51
2, 5278, Note_on_c, 0, 76, 0
2, 5278, Note_on_c, 0, 72, 0
2, 5280, Note_on_c, 0, 67, 60
2, 5280, Note_on_c, 0, 72, 60
2, 5755, Note_on_c, 0, 72, 0
2, 5755, Note_on_c, 0, 67, 0
2, 5760, Control_c, 0, 91, 127
2, 6000, Note_on_c, 0, 67, 45
2, 6000, Note_on_c, 0, 72, 45
2, 6475, Note_on_c, 0, 72, 0
2, 6475, Note_on_c, 0, 67, 0
2, 6480, Note_on_c, 0, 67, 45
2, 6480, Note_on_c, 0, 72, 45
2, 6718, Note_on_c, 0, 72, 0
2, 6718, Note_on_c, 0, 67, 0
2, 6720, Note_on_c, 0, 72, 55
2, 6720, Note_on_c, 0, 69, 55
2, 7195, Note_on_c, 0, 69, 0
2, 7195, Note_on_c, 0, 72, 0
2, 7440, Note_on_c, 0, 72, 45
2, 7440, Note_on_c, 0, 67, 45
2, 7915, Note_on_c, 0, 67, 0
2, 7915, Note_on_c, 0, 72, 0
2, 7920, Note_on_c, 0, 72, 46
2, 7920, Note_on_c, 0, 67, 46
2, 8158, Note_on_c, 0, 67, 0
2, 8158, Note_on_c, 0, 72, 0
2, 8160, Note_on_c, 0, 72, 54
2, 8160, Note_on_c, 0, 64, 54
2, 8635, Note_on_c, 0, 64, 0
2, 8635, Note_on_c, 0, 72, 0
2, 8880, Note_on_c, 0, 65, 43
2, 8880, Note_on_c, 0, 67, 43
2, 9355, Note_on_c, 0, 67, 0
2, 9355, Note_on_c, 0, 65, 0
2, 9360, Note_on_c, 0, 67, 43
2, 9360, Note_on_c, 0, 65, 43
2, 9598, Note_on_c, 0, 65, 0
2, 9598, Note_on_c, 0, 67, 0
2, 9600, Note_on_c, 0, 67, 58
2, 10075, Note_on_c, 0, 67, 0
2, 10320, Note_on_c, 0, 67, 34
2, 10320, Note_on_c, 0, 64, 34
2, 10795, Note_on_c, 0, 64, 0
2, 10795, Note_on_c, 0, 67, 0
2, 10800, Note_on_c, 0, 67, 34
2, 10800, Note_on_c, 0, 64, 34
2, 11038, Note_on_c, 0, 64, 0
2, 11038, Note_on_c, 0, 67, 0
2, 11040, Note_on_c, 0, 64, 45
2, 11040, Note_on_c, 0, 67, 45
2, 11515, Note_on_c, 0, 67, 0
2, 11515, Note_on_c, 0, 64, 0
2, 11520, Control_c, 0, 91, 127
2, 11760, Note_on_c, 0, 79, 57
2, 11760, Note_on_c, 0, 72, 57
2, 12235, Note_on_c, 0, 72, 0
2, 12235, Note_on_c, 0, 79, 0
2, 12240, Note_on_c, 0, 72, 57
2, 12240, Note_on_c, 0, 79, 57
2, 12478, Note_on_c, 0, 79, 0
2, 12478, Note_on_c, 0, 72, 0
2, 12480, Note_on_c, 0, 72, 70
2, 12480, Note_on_c, 0, 81, 70
2, 12955, Note_on_c, 0, 81, 0
2, 12955, Note_on_c, 0, 72, 0
2, 13200, Note_on_c, 0, 79, 57
2, 13200, Note_on_c, 0, 72, 57
2, 13675, Note_on_c, 0, 72, 0
2, 13675, Note_on_c, 0, 79, 0
2, 13680, Note_on_c, 0, 72, 57
2, 13680, Note_on_c, 0, 79, 57
2, 13918, Note_on_c, 0, 79, 0
2, 13918, Note_on_c, 0, 72, 0
2, 13920, Note_on_c, 0, 72, 68
2, 13920, Note_on_c, 0, 76, 68
2, 14395, Note_on_c, 0, 76, 0
2, 14395, Note_on_c, 0, 72, 0
2, 14640, Note_on_c, 0, 72, 54
2, 14640, Note_on_c, 0, 77, 54
2, 15115, Note_on_c, 0, 77, 0
2, 15115, Note_on_c, 0, 72, 0
2, 15120, Note_on_c, 0, 72, 54
2, 15120, Note_on_c, 0, 77, 54
2, 15358, Note_on_c, 0, 77, 0
2, 15358, Note_on_c, 0, 72, 0
2, 15360, Note_on_c, 0, 74, 67
2, 15360, Note_on_c, 0, 79, 67
2, 15835, Note_on_c, 0, 79, 0
2, 15835, Note_on_c, 0, 74, 0
2, 16080, Note_on_c, 0, 72, 51
2, 16080, Note_on_c, 0, 76, 51
2, 16555, Note_on_c, 0, 76, 0
2, 16555, Note_on_c, 0, 72, 0
2, 16560, Note_on_c, 0, 72, 51
2, 16560, Note_on_c, 0, 76, 51
2, 16798, Note_on_c, 0, 76, 0
2, 16798, Note_on_c, 0, 72, 0
2, 16800, Note_on_c, 0, 67, 63
2, 16800, Note_on_c, 0, 72, 63
2, 17275, Note_on_c, 0, 72, 0
2, 17275, Note_on_c, 0, 67, 0
2, 17280, Control_c, 0, 91, 127
2, 17520, Note_on_c, 0, 72, 45
2, 17520, Note_on_c, 0, 67, 45
2, 17995, Note_on_c, 0, 67, 0
2, 17995, Note_on_c, 0, 72, 0
2, 18000, Note_on_c, 0, 67, 45
2, 18000, Note_on_c, 0, 72, 45
2, 18238, Note_on_c, 0, 72, 0
2, 18238, Note_on_c, 0, 67, 0
2, 18240, Note_on_c, 0, 72, 56
2, 18240, Note_on_c, 0, 69, 56
2, 18715, Note_on_c, 0, 69, 0
2, 18715, Note_on_c, 0, 72, 0
2, 18960, Note_on_c, 0, 67, 45
2, 18960, Note_on_c, 0, 72, 45
2, 19435, Note_on_c, 0, 72, 0
2, 19435, Note_on_c, 0, 67, 0
2, 19440, Note_on_c, 0, 72, 46
2, 19440, Note_on_c, 0, 67, 46
2, 19678, Note_on_c, 0, 67, 0
2, 19678, Note_on_c, 0, 72, 0
2, 19680, Note_on_c, 0, 72, 55
2, 19680, Note_on_c, 0, 64, 55
2, 20155, Note_on_c, 0, 64, 0
2, 20155, Note_on_c, 0, 72, 0
2, 20400, Note_on_c, 0, 67, 43
2, 20400, Note_on_c, 0, 65, 43
2, 20875, Note_on_c, 0, 65, 0
2, 20875, Note_on_c, 0, 67, 0
2, 20880, Note_on_c, 0, 67, 43
2, 20880, Note_on_c, 0, 65, 43
2, 21118, Note_on_c, 0, 65, 0
2, 21118, Note_on_c, 0, 67, 0
2, 21120, Note_on_c, 0, 67, 54
2, 21595, Note_on_c, 0, 67, 0
2, 21840, Note_on_c, 0, 67, 34
2, 21840, Note_on_c, 0, 64, 34
2, 22315, Note_on_c, 0, 64, 0
2, 22315, Note_on_c, 0, 67, 0
2, 22320, Note_on_c, 0, 67, 34
2, 22320, Note_on_c, 0, 64, 34
2, 22558, Note_on_c, 0, 64, 0
2, 22558, Note_on_c, 0, 67, 0
2, 22560, Note_on_c, 0, 67, 46
2, 22560, Note_on_c, 0, 64, 46
2, 23035, Note_on_c, 0, 64, 0
2, 23035, Note_on_c, 0, 67, 0
2, 23040, Control_c, 0, 91, 127
2, 23280, Note_on_c, 0, 67, 46
2, 23280, Note_on_c, 0, 64, 46
2, 23280, Note_on_c, 0, 72, 46
2, 23755, Note_on_c, 0, 72, 0
2, 23755, Note_on_c, 0, 64, 0
2, 23755, Note_on_c, 0, 67, 0
2, 23760, Note_on_c, 0, 72, 46
2, 23760, Note_on_c, 0, 64, 46
2, 23760, Note_on_c, 0, 67, 46
2, 23998, Note_on_c, 0, 67, 0
2, 23998, Note_on_c, 0, 64, 0
2, 23998, Note_on_c, 0, 72, 0
2, 24000, Note_on_c, 0, 69, 55
2, 24000, Note_on_c, 0, 72, 55
2, 24000, Note_on_c, 0, 64, 55
2, 24475, Note_on_c, 0, 64, 0
2, 24475, Note_on_c, 0, 72, 0
2, 24475, Note_on_c, 0, 69, 0
2, 24480, Control_c, 0, 91, 127
2, 24720, Note_on_c, 0, 70, 47
2, 24720, Note_on_c, 0, 64, 47
2, 24720, Note_on_c, 0, 72, 47
2, 25195, Note_on_c, 0, 72, 0
2, 25195, Note_on_c, 0, 64, 0
2, 25195, Note_on_c, 0, 70, 0
2, 25200, Note_on_c, 0, 72, 47
2, 25200, Note_on_c, 0, 64, 47
2, 25200, Note_on_c, 0, 70, 47
2, 25438, Note_on_c, 0, 70, 0
2, 25438, Note_on_c, 0, 64, 0
2, 25438, Note_on_c, 0, 72, 0
2, 25440, Note_on_c, 0, 70, 57
2, 25440, Note_on_c, 0, 72, 57
2, 25440, Note_on_c, 0, 65, 57
2, 25915, Note_on_c, 0, 65, 0
2, 25915, Note_on_c, 0, 72, 0
2, 25915, Note_on_c, 0, 70, 0
2, 25920, Control_c, 0, 91, 127
2, 26160, Note_on_c, 0, 70, 54
2, 26160, Note_on_c, 0, 67, 54
2, 26160, Note_on_c, 0, 72, 54
2, 26635, Note_on_c, 0, 72, 0
2, 26635, Note_on_c, 0, 67, 0
2, 26635, Note_on_c, 0, 70, 0
2, 26640, Note_on_c, 0, 72, 54
2, 26640, Note_on_c, 0, 67, 54
2, 26640, Note_on_c, 0, 70, 54
2, 26878, Note_on_c, 0, 70, 0
2, 26878, Note_on_c, 0, 67, 0
2, 26878, Note_on_c, 0, 72, 0
2, 26880, Note_on_c, 0, 70, 67
2, 26880, Note_on_c, 0, 73, 67
2, 26880, Note_on_c, 0, 67, 67
2, 27355, Note_on_c, 0, 67, 0
2, 27355, Note_on_c, 0, 73, 0
2, 27355, Note_on_c, 0, 70, 0
2, 27360, Control_c, 0, 91, 127
2, 27600, Note_on_c, 0, 70, 57
2, 27600, Note_on_c, 0, 67, 57
2, 27600, Note_on_c, 0, 74, 57
2, 28075, Note_on_c, 0, 74, 0
2, 28075, Note_on_c, 0, 67, 0
2, 28075, Note_on_c, 0, 70, 0
2, 28080, Note_on_c, 0, 74, 57
2, 28080, Note_on_c, 0, 67, 57
2, 28080, Note_on_c, 0, 70, 57
2, 28318, Note_on_c, 0, 70, 0
2, 28318, Note_on_c, 0, 67, 0
2, 28318, Note_on_c, 0, 74, 0
2, 28320, Note_on_c, 0, 70, 73
2, 28320, Note_on_c, 0, 76, 73
2, 28320, Note_on_c, 0, 67, 73
2, 28795, Note_on_c, 0, 67, 0
2, 28795, Note_on_c, 0, 76, 0
2, 28795, Note_on_c, 0, 70, 0
2, 28800, Control_c, 0, 91, 127
2, 29040, Note_on_c, 0, 77, 59
2, 29040, Note_on_c, 0, 69, 59
2, 29040, Note_on_c, 0, 74, 59
2, 29515, Note_on_c, 0, 74, 0
2, 29515, Note_on_c, 0, 69, 0
2, 29515, Note_on_c, 0, 77, 0
2, 29520, Note_on_c, 0, 74, 59
2, 29520, Note_on_c, 0, 69, 59
2, 29520, Note_on_c, 0, 77, 59
2, 29758, Note_on_c, 0, 77, 0
2, 29758, Note_on_c, 0, 69, 0
2, 29758, Note_on_c, 0, 74, 0
2, 29760, Note_on_c, 0, 70, 82
2, 29760, Note_on_c, 0, 76, 82
2, 29760, Note_on_c, 0, 67, 82
2, 30235, Note_on_c, 0, 67, 0
2, 30235, Note_on_c, 0, 76, 0
2, 30235, Note_on_c, 0, 70, 0
2, 30240, Control_c, 0, 91, 127
2, 30480, Note_on_c, 0, 69, 63
2, 30480, Note_on_c, 0, 65, 63
2, 30480, Note_on_c, 0, 74, 63
2, 30955, Note_on_c, 0, 74, 0
2, 30955, Note_on_c, 0, 65, 0
2, 30955, Note_on_c, 0, 69, 0
2, 30960, Note_on_c, 0, 69, 63
2, 30960, Note_on_c, 0, 65, 63
2, 30960, Note_on_c, 0, 74, 63
2, 31198, Note_on_c, 0, 74, 0
2, 31198, Note_on_c, 0, 65, 0
2, 31198, Note_on_c, 0, 69, 0
2, 31200, Note_on_c, 0, 69, 83
2, 31200, Note_on_c, 0, 73, 83
2, 31200, Note_on_c, 0, 64, 83
2, 31675, Note_on_c, 0, 64, 0
2, 31675, Note_on_c, 0, 73, 0
2, 31675, Note_on_c, 0, 69, 0
2, 31680, Control_c, 0, 91, 127
2, 31920, Note_on_c, 0, 69, 68
2, 31920, Note_on_c, 0, 65, 68
2, 31920, Note_on_c, 0, 74, 68
2, 32395, Note_on_c, 0, 74, 0
2, 32395, Note_on_c, 0, 65, 0
2, 32395, Note_on_c, 0, 69, 0
2, 32400, Note_on_c, 0, 69, 69
2, 32400, Note_on_c, 0, 65, 69
2, 32400, Note_on_c, 0, 74, 69
2, 32638, Note_on_c, 0, 74, 0
2, 32638, Note_on_c, 0, 65, 0
2, 32638, Note_on_c, 0, 69, 0
2, 32640, Note_on_c, 0, 66, 87
2, 32640, Note_on_c, 0, 72, 87
2, 32640, Note_on_c, 0, 63, 87
2, 33115, Note_on_c, 0, 63, 0
2, 33115, Note_on_c, 0, 72, 0
2, 33115, Note_on_c, 0, 66, 0
2, 33120, Control_c, 0, 91, 127
2, 33360, Note_on_c, 0, 65, 75
2, 33360, Note_on_c, 0, 62, 75
2, 33360, Note_on_c, 0, 72, 75
2, 33835, Note_on_c, 0, 72, 0
2, 33835, Note_on_c, 0, 62, 0
2, 33835, Note_on_c, 0, 65, 0
2, 33840, Note_on_c, 0, 65, 75
2, 33840, Note_on_c, 0, 62, 75
2, 33840, Note_on_c, 0, 72, 75
2, 34078, Note_on_c, 0, 72, 0
2, 34078, Note_on_c, 0, 62, 0
2, 34078, Note_on_c, 0, 65, 0
2, 34080, Note_on_c, 0, 65, 89
2, 34080, Note_on_c, 0, 71, 89
2, 34080, Note_on_c, 0, 62, 89
2, 34555, Note_on_c, 0, 62, 0
2, 34555, Note_on_c, 0, 71, 0
2, 34555, Note_on_c, 0, 65, 0
2, 34560, Control_c, 0, 91, 127
2, 34800, Note_on_c, 0, 72, 73
2, 34800, Note_on_c, 0, 67, 73
2, 35275, Note_on_c, 0, 67, 0
2, 35275, Note_on_c, 0, 72, 0
2, 35280, Note_on_c, 0, 67, 73
2, 35280, Note_on_c, 0, 72, 73
2, 35518, Note_on_c, 0, 72, 0
2, 35518, Note_on_c, 0, 67, 0
2, 35520, Note_on_c, 0, 72, 91
2, 35520, Note_on_c, 0, 69, 91
2, 35995, Note_on_c, 0, 69, 0
2, 35995, Note_on_c, 0, 72, 0
2, 36240, Note_on_c, 0, 67, 76
2, 36240, Note_on_c, 0, 72, 76
2, 36715, Note_on_c, 0, 72, 0
2, 36715, Note_on_c, 0, 67, 0
2, 36720, Note_on_c, 0, 72, 76
2, 36720, Note_on_c, 0, 67, 76
2, 36958, Note_on_c, 0, 67, 0
2, 36958, Note_on_c, 0, 72, 0
2, 36960, Note_on_c, 0, 67, 91
2, 36960, Note_on_c, 0, 72, 91
2, 36960, Note_on_c, 0, 64, 91
2, 37435, Note_on_c, 0, 64, 0
2, 37435, Note_on_c, 0, 72, 0
2, 37435, Note_on_c, 0, 67, 0
2, 37680, Note_on_c, 0, 72, 81
2, 37680, Note_on_c, 0, 67, 81
2, 37680, Note_on_c, 0, 65, 81
2, 38155, Note_on_c, 0, 65, 0
2, 38155, Note_on_c, 0, 67, 0
2, 38155, Note_on_c, 0, 72, 0
2, 38160, Note_on_c, 0, 72, 81
2, 38160, Note_on_c, 0, 67, 81
2, 38160, Note_on_c, 0, 65, 81
2, 38398, Note_on_c, 0, 65, 0
2, 38398, Note_on_c, 0, 67, 0
2, 38398, Note_on_c, 0, 72, 0
2, 38400, Note_on_c, 0, 72, 96
2, 38400, Note_on_c, 0, 67, 96
2, 38875, Note_on_c, 0, 67, 0
2, 38875, Note_on_c, 0, 72, 0
2, 39120, Note_on_c, 0, 72, 84
2, 39120, Note_on_c, 0, 67, 84
2, 39120, Note_on_c, 0, 64, 84
2, 39595, Note_on_c, 0, 64, 0
2, 39595, Note_on_c, 0, 67, 0
2, 39595, Note_on_c, 0, 72, 0
2, 39600, Note_on_c, 0, 72, 84
2, 39600, Note_on_c, 0, 67, 84
2, 39600, Note_on_c, 0, 64, 84
2, 39838, Note_on_c, 0, 64, 0
2, 39838, Note_on_c, 0, 67, 0
2, 39838, Note_on_c, 0, 72, 0
2, 39840, Note_on_c, 0, 72, 99
2, 39840, Note_on_c, 0, 67, 99
2, 39840, Note_on_c, 0, 60, 99
2, 40315, Note_on_c, 0, 60, 0
2, 40315, Note_on_c, 0, 67, 0
2, 40315, Note_on_c, 0, 72, 0
2, 40320, Control_c, 0, 91, 127
2, 40560, Note_on_c, 0, 64, 76
2, 40560, Note_on_c, 0, 72, 76
2, 40560, Note_on_c, 0, 67, 76
2, 41035, Note_on_c, 0, 67, 0
2, 41035, Note_on_c, 0, 72, 0
2, 41035, Note_on_c, 0, 64, 0
2, 41040, Note_on_c, 0, 64, 76
2, 41040, Note_on_c, 0, 67, 76
2, 41040, Note_on_c, 0, 72, 76
2, 41278, Note_on_c, 0, 72, 0
2, 41278, Note_on_c, 0, 67, 0
2, 41278, Note_on_c, 0, 64, 0
2, 41280, Note_on_c, 0, 65, 92
2, 41280, Note_on_c, 0, 72, 92
2, 41280, Note_on_c, 0, 67, 92
2, 41755, Note_on_c, 0, 67, 0
2, 41755, Note_on_c, 0, 72, 0
2, 41755, Note_on_c, 0, 65, 0
2, 42000, Note_on_c, 0, 64, 76
2, 42000, Note_on_c, 0, 67, 76
2, 42000, Note_on_c, 0, 72, 76
2, 42475, Note_on_c, 0, 72, 0
2, 42475, Note_on_c, 0, 67, 0
2, 42475, Note_on_c, 0, 64, 0
2, 42480, Note_on_c, 0, 64, 76
2, 42480, Note_on_c, 0, 72, 76
2, 42480, Note_on_c, 0, 67, 76
2, 42718, Note_on_c, 0, 67, 0
2, 42718, Note_on_c, 0, 72, 0
2, 42718, Note_on_c, 0, 64, 0
2, 42720, Note_on_c, 0, 67, 91
2, 42720, Note_on_c, 0, 72, 91
2, 42720, Note_on_c, 0, 60, 91
2, 43195, Note_on_c, 0, 60, 0
2, 43195, Note_on_c, 0, 72, 0
2, 43195, Note_on_c, 0, 67, 0
2, 43440, Note_on_c, 0, 72, 75
2, 43440, Note_on_c, 0, 62, 75
2, 43440, Note_on_c, 0, 67, 75
2, 43915, Note_on_c, 0, 67, 0
2, 43915, Note_on_c, 0, 62, 0
2, 43915, Note_on_c, 0, 72, 0
2, 43920, Note_on_c, 0, 72, 75
2, 43920, Note_on_c, 0, 62, 75
2, 43920, Note_on_c, 0, 67, 75
2, 44158, Note_on_c, 0, 67, 0
2, 44158, Note_on_c, 0, 62, 0
2, 44158, Note_on_c, 0, 72, 0
2, 44160, Note_on_c, 0, 72, 91
2, 44160, Note_on_c, 0, 64, 91
2, 44160, Note_on_c, 0, 67, 91
2, 44635, Note_on_c, 0, 67, 0
2, 44635, Note_on_c, 0, 64, 0
2, 44635, Note_on_c, 0, 72, 0
2, 44880, Note_on_c, 0, 72, 74
2, 44880, Note_on_c, 0, 67, 74
2, 44880, Note_on_c, 0, 60, 74
2, 45355, Note_on_c, 0, 60, 0
2, 45355, Note_on_c, 0, 67, 0
2, 45355, Note_on_c, 0, 72, 0
2, 45360, Note_on_c, 0, 72, 74
2, 45360, Note_on_c, 0, 60, 74
2, 45598, Note_on_c, 0, 60, 0
2, 45598, Note_on_c, 0, 72, 0
2, 45600, Note_on_c, 0, 72, 92
2, 45600, Note_on_c, 0, 60, 92
2, 45960, Note_on_c, 0, 60, 0
2, 45960, Note_on_c, 0, 72, 0
2, 46080, Control_c, 0, 91, 127
2, 46320, Note_on_c, 0, 67, 46
2, 46320, Note_on_c, 0, 64, 46
2, 46320, Note_on_c, 0, 72, 46
2, 46795, Note_on_c, 0, 72, 0
2, 46795, Note_on_c, 0, 64, 0
2, 46795, Note_on_c, 0, 67, 0
2, 46800, Note_on_c, 0, 72, 46
2, 46800, Note_on_c, 0, 64, 46
2, 46800, Note_on_c, 0, 67, 46
2, 47038, Note_on_c, 0, 67, 0
2, 47038, Note_on_c, 0, 64, 0
2, 47038, Note_on_c, 0, 72, 0
2, 47040, Note_on_c, 0, 69, 56
2, 47040, Note_on_c, 0, 72, 56
2, 47040, Note_on_c, 0, 64, 56
2, 47515, Note_on_c, 0, 64, 0
2, 47515, Note_on_c, 0, 72, 0
2, 47515, Note_on_c, 0, 69, 0
2, 47520, Control_c, 0, 91, 127
2, 47760, Note_on_c, 0, 70, 47
2, 47760, Note_on_c, 0, 64, 47
2, 47760, Note_on_c, 0, 72, 47
2, 48235, Note_on_c, 0, 72, 0
2, 48235, Note_on_c, 0, 64, 0
2, 48235, Note_on_c, 0, 70, 0
2, 48240, Note_on_c, 0, 72, 47
2, 48240, Note_on_c, 0, 64, 47
2, 48240, Note_on_c, 0, 70, 47
2, 48478, Note_on_c, 0, 70, 0
2, 48478, Note_on_c, 0, 64, 0
2, 48478, Note_on_c, 0, 72, 0
2, 48480, Note_on_c, 0, 70, 58
2, 48480, Note_on_c, 0, 72, 58
2, 48480, Note_on_c, 0, 65, 58
2, 48955, Note_on_c, 0, 65, 0
2, 48955, Note_on_c, 0, 72, 0
2, 48955, Note_on_c, 0, 70, 0
2, 48960, Control_c, 0, 91, 127
2, 49200, Note_on_c, 0, 70, 54
2, 49200, Note_on_c, 0, 67, 54
2, 49200, Note_on_c, 0, 72, 54
2, 49675, Note_on_c, 0, 72, 0
2, 49675, Note_on_c, 0, 67, 0
2, 49675, Note_on_c, 0, 70, 0
2, 49680, Note_on_c, 0, 72, 54
2, 49680, Note_on_c, 0, 67, 54
2, 49680, Note_on_c, 0, 70, 54
2, 49918, Note_on_c, 0, 70, 0
2, 49918, Note_on_c, 0, 67, 0
2, 49918, Note_on_c, 0, 72, 0
2, 49920, Note_on_c, 0, 70, 67
2, 49920, Note_on_c, 0, 73, 67
2, 49920, Note_on_c, 0, 67, 67
2, 50395, Note_on_c, 0, 67, 0
2, 50395, Note_on_c, 0, 73, 0
2, 50395, Note_on_c, 0, 70, 0
2, 50400, Control_c, 0, 91, 127
2, 50640, Note_on_c, 0, 70, 57
2, 50640, Note_on_c, 0, 67, 57
2, 50640, Note_on_c, 0, 74, 57
2, 51115, Note_on_c, 0, 74, 0
2, 51115, Note_on_c, 0, 67, 0
2, 51115, Note_on_c, 0, 70, 0
2, 51120, Note_on_c, 0, 74, 57
2, 51120, Note_on_c, 0, 67, 57
2, 51120, Note_on_c, 0, 70, 57
2, 51358, Note_on_c, 0, 70, 0
2, 51358, Note_on_c, 0, 67, 0
2, 51358, Note_on_c, 0, 74, 0
2, 51360, Note_on_c, 0, 70, 73
2, 51360, Note_on_c, 0, 76, 73
2, 51360, Note_on_c, 0, 67, 73
2, 51835, Note_on_c, 0, 67, 0
2, 51835, Note_on_c, 0, 76, 0
2, 51835, Note_on_c, 0, 70, 0
2, 51840, Control_c, 0, 91, 127
2, 52080, Note_on_c, 0, 77, 59
2, 52080, Note_on_c, 0, 69, 59
2, 52080, Note_on_c, 0, 74, 59
2, 52555, Note_on_c, 0, 74, 0
2, 52555, Note_on_c, 0, 69, 0
2, 52555, Note_on_c, 0, 77, 0
2, 52560, Note_on_c, 0, 74, 59
2, 52560, Note_on_c, 0, 69, 59
2, 52560, Note_on_c, 0, 77, 59
2, 52798, Note_on_c, 0, 77, 0
2, 52798, Note_on_c, 0, 69, 0
2, 52798, Note_on_c, 0, 74, 0
2, 52800, Note_on_c, 0, 70, 82
2, 52800, Note_on_c, 0, 76, 82
2, 52800, Note_on_c, 0, 67, 82
2, 53275, Note_on_c, 0, 67, 0
2, 53275, Note_on_c, 0, 76, 0
2, 53275, Note_on_c, 0, 70, 0
2, 53280, Control_c, 0, 91, 127
2, 53520, Note_on_c, 0, 69, 63
2, 53520, Note_on_c, 0, 65, 63
2, 53520, Note_on_c, 0, 74, 63
2, 53995, Note_on_c, 0, 74, 0
2, 53995, Note_on_c, 0, 65, 0
2, 53995, Note_on_c, 0, 69, 0
2, 54000, Note_on_c, 0, 69, 63
2, 54000, Note_on_c, 0, 65, 63
2, 54000, Note_on_c, 0, 74, 63
2, 54238, Note_on_c, 0, 74, 0
2, 54238, Note_on_c, 0, 65, 0
2, 54238, Note_on_c, 0, 69, 0
2, 54240, Note_on_c, 0, 69, 83
2, 54240, Note_on_c, 0, 73, 83
2, 54240, Note_on_c, 0, 64, 83
2, 54715, Note_on_c, 0, 64, 0
2, 54715, Note_on_c, 0, 73, 0
2, 54715, Note_on_c, 0, 69, 0
2, 54720, Control_c, 0, 91, 127
2, 54960, Note_on_c, 0, 69, 68
2, 54960, Note_on_c, 0, 65, 68
2, 54960, Note_on_c, 0, 74, 68
2, 55435, Note_on_c, 0, 74, 0
2, 55435, Note_on_c, 0, 65, 0
2, 55435, Note_on_c, 0, 69, 0
2, 55440, Note_on_c, 0, 69, 69
2, 55440, Note_on_c, 0, 65, 69
2, 55440, Note_on_c, 0, 74, 69
2, 55678, Note_on_c, 0, 74, 0
2, 55678, Note_on_c, 0, 65, 0
2, 55678, Note_on_c, 0, 69, 0
2, 55680, Note_on_c, 0, 66, 87
2, 55680, Note_on_c, 0, 72, 87
2, 55680, Note_on_c, 0, 63, 87
2, 56155, Note_on_c, 0, 63, 0
2, 56155, Note_on_c, 0, 72, 0
2, 56155, Note_on_c, 0, 66, 0
2, 56160, Control_c, 0, 91, 127
2, 56400, Note_on_c, 0, 65, 75
2, 56400, Note_on_c, 0, 62, 75
2, 56400, Note_on_c, 0, 72, 75
2, 56875, Note_on_c, 0, 72, 0
2, 56875, Note_on_c, 0, 62, 0
2, 56875, Note_on_c, 0, 65, 0
2, 56880, Note_on_c, 0, 65, 75
2, 56880, Note_on_c, 0, 62, 75
2, 56880, Note_on_c, 0, 72, 75
2, 57118, Note_on_c, 0, 72, 0
2, 57118, Note_on_c, 0, 62, 0
2, 57118, Note_on_c, 0, 65, 0
2, 57120, Note_on_c, 0, 65, 89
2, 57120, Note_on_c, 0, 71, 89
2, 57120, Note_on_c, 0, 62, 89
2, 57595, Note_on_c, 0, 62, 0
2, 57595, Note_on_c, 0, 71, 0
2, 57595, Note_on_c, 0, 65, 0
2, 57600, Control_c, 0, 91, 127
2, 57840, Note_on_c, 0, 72, 73
2, 57840, Note_on_c, 0, 67, 73
2, 58315, Note_on_c, 0, 67, 0
2, 58315, Note_on_c, 0, 72, 0
2, 58320, Note_on_c, 0, 67, 73
2, 58320, Note_on_c, 0, 72, 73
2, 58558, Note_on_c, 0, 72, 0
2, 58558, Note_on_c, 0, 67, 0
2, 58560, Note_on_c, 0, 72, 91
2, 58560, Note_on_c, 0, 69, 91
2, 59035, Note_on_c, 0, 69, 0
2, 59035, Note_on_c, 0, 72, 0
2, 59280, Note_on_c, 0, 67, 76
2, 59280, Note_on_c, 0, 72, 76
2, 59755, Note_on_c, 0, 72, 0
2, 59755, Note_on_c, 0, 67, 0
2, 59760, Note_on_c, 0, 72, 76
2, 59760, Note_on_c, 0, 67, 76
2, 59998, Note_on_c, 0, 67, 0
2, 59998, Note_on_c, 0, 72, 0
2, 60000, Note_on_c, 0, 67, 91
2, 60000, Note_on_c, 0, 72, 91
2, 60000, Note_on_c, 0, 64, 91
2, 60475, Note_on_c, 0, 64, 0
2, 60475, Note_on_c, 0, 72, 0
2, 60475, Note_on_c, 0, 67, 0
2, 60720, Note_on_c, 0, 72, 81
2, 60720, Note_on_c, 0, 67, 81
2, 60720, Note_on_c, 0, 65, 81
2, 61195, Note_on_c, 0, 65, 0
2, 61195, Note_on_c, 0, 67, 0
2, 61195, Note_on_c, 0, 72, 0
2, 61200, Note_on_c, 0, 72, 81
2, 61200, Note_on_c, 0, 67, 81
2, 61200, Note_on_c, 0, 65, 81
2, 61438, Note_on_c, 0, 65, 0
2, 61438, Note_on_c, 0, 67, 0
2, 61438, Note_on_c, 0, 72, 0
2, 61440, Note_on_c, 0, 72, 98
2, 61440, Note_on_c, 0, 67, 98
2, 61915, Note_on_c, 0, 67, 0
2, 61915, Note_on_c, 0, 72, 0
2, 62160, Note_on_c, 0, 72, 84
2, 62160, Note_on_c, 0, 67, 84
2, 62160, Note_on_c, 0, 64, 84
2, 62635, Note_on_c, 0, 64, 0
2, 62635, Note_on_c, 0, 67, 0
2, 62635, Note_on_c, 0, 72, 0
2, 62640, Note_on_c, 0, 72, 84
2, 62640, Note_on_c, 0, 67, 84
2, 62640, Note_on_c, 0, 64, 84
2, 62878, Note_on_c, 0, 64, 0
2, 62878, Note_on_c, 0, 67, 0
2, 62878, Note_on_c, 0, 72, 0
2, 62880, Note_on_c, 0, 72, 98
2, 62880, Note_on_c, 0, 67, 98
2, 62880, Note_on_c, 0, 60, 98
2, 63355, Note_on_c, 0, 60, 0
2, 63355, Note_on_c, 0, 67, 0
2, 63355, Note_on_c, 0, 72, 0
2, 63360, Control_c, 0, 91, 127
2, 63600, Note_on_c, 0, 64, 79
2, 63600, Note_on_c, 0, 72, 79
2, 63600, Note_on_c, 0, 67, 79
2, 64075, Note_on_c, 0, 67, 0
2, 64075, Note_on_c, 0, 72, 0
2, 64075, Note_on_c, 0, 64, 0
2, 64080, Note_on_c, 0, 64, 79
2, 64080, Note_on_c, 0, 67, 79
2, 64080, Note_on_c, 0, 72, 79
2, 64318, Note_on_c, 0, 72, 0
2, 64318, Note_on_c, 0, 67, 0
2, 64318, Note_on_c, 0, 64, 0
2, 64320, Note_on_c, 0, 65, 95
2, 64320, Note_on_c, 0, 72, 95
2, 64320, Note_on_c, 0, 67, 95
2, 64795, Note_on_c, 0, 67, 0
2, 64795, Note_on_c, 0, 72, 0
2, 64795, Note_on_c, 0, 65, 0
2, 65040, Note_on_c, 0, 64, 79
2, 65040, Note_on_c, 0, 67, 79
2, 65040, Note_on_c, 0, 72, 79
2, 65515, Note_on_c, 0, 72, 0
2, 65515, Note_on_c, 0, 67, 0
2, 65515, Note_on_c, 0, 64, 0
2, 65520, Note_on_c, 0, 64, 79
2, 65520, Note_on_c, 0, 72, 79
2, 65520, Note_on_c, 0, 67, 79
2, 65758, Note_on_c, 0, 67, 0
2, 65758, Note_on_c, 0, 72, 0
2, 65758, Note_on_c, 0, 64, 0
2, 65760, Note_on_c, 0, 67, 95
2, 65760, Note_on_c, 0, 72, 95
2, 65760, Note_on_c, 0, 60, 95
2, 66235, Note_on_c, 0, 60, 0
2, 66235, Note_on_c, 0, 72, 0
2, 66235, Note_on_c, 0, 67, 0
2, 66480, Note_on_c, 0, 72, 77
2, 66480, Note_on_c, 0, 62, 77
2, 66480, Note_on_c, 0, 67, 77
2, 66955, Note_on_c, 0, 67, 0
2, 66955, Note_on_c, 0, 62, 0
2, 66955, Note_on_c, 0, 72, 0
2, 66960, Note_on_c, 0, 72, 77
2, 66960, Note_on_c, 0, 62, 77
2, 66960, Note_on_c, 0, 67, 77
2, 67198, Note_on_c, 0, 67, 0
2, 67198, Note_on_c, 0, 62, 0
2, 67198, Note_on_c, 0, 72, 0
2, 67200, Note_on_c, 0, 72, 95
2, 67200, Note_on_c, 0, 64, 95
2, 67200, Note_on_c, 0, 67, 95
2, 67675, Note_on_c, 0, 67, 0
2, 67675, Note_on_c, 0, 64, 0
2, 67675, Note_on_c, 0, 72, 0
2, 67920, Note_on_c, 0, 72, 76
2, 67920, Note_on_c, 0, 67, 76
2, 67920, Note_on_c, 0, 60, 76
2, 68395, Note_on_c, 0, 60, 0
2, 68395, Note_on_c, 0, 67, 0
2, 68395, Note_on_c, 0, 72, 0
2, 68400, Note_on_c, 0, 72, 76
2, 68400, Note_on_c, 0, 60, 76
2, 68638, Note_on_c, 0, 60, 0
2, 68638, Note_on_c, 0, 72, 0
2, 68640, Note_on_c, 0, 72, 95
2, 68640, Note_on_c, 0, 60, 95
2, 69120, Note_on_c, 0, 60, 0
2, 69120, Note_on_c, 0, 72, 0
2, 69120, End_track
3, 0, Start_track
3, 0, Title_t, "Piano left"
3, 0, Program_c, 0, 0
3, 0, Control_c, 0, 7, 100
3, 0, Control_c, 0, 10, 64
3, 0, Control_c, 0, 91, 127
3, 0, Control_c, 0, 64, 0
3, 1, Note_on_c, 0, 64, 68
3, 1, Note_on_c, 0, 67, 68
3, 226, Control_c, 0, 64, 127
3, 480, Note_on_c, 0, 55, 61
3, 960, Note_on_c, 0, 63, 51
3, 960, Note_on_c, 0, 66, 51
3, 961, Note_on_c, 0, 67, 0
3, 961, Note_on_c, 0, 64, 0
3, 967, Control_c, 0, 64, 0
3, 1435, Note_on_c, 0, 63, 0
3, 1435, Note_on_c, 0, 66, 0
3, 1440, Note_on_c, 0, 64, 70
3, 1440, Note_on_c, 0, 67, 70
3, 1610, Control_c, 0, 64, 127
3, 1920, Note_on_c, 0, 55, 0
3, 1920, Note_on_c, 0, 55, 59
3, 2400, Note_on_c, 0, 67, 0
3, 2400, Note_on_c, 0, 64, 0
3, 2400, Note_on_c, 0, 67, 51
3, 2400, Note_on_c, 0, 60, 51
3, 2414, Control_c, 0, 64, 0
3, 2875, Note_on_c, 0, 60, 0
3, 2875, Note_on_c, 0, 67, 0
3, 2880, Note_on_c, 0, 67, 69
3, 2880, Note_on_c, 0, 62, 69
3, 3078, Control_c, 0, 64, 127
3, 3360, Note_on_c, 0, 55, 0
3, 3360, Note_on_c, 0, 55, 58
3, 3840, Note_on_c, 0, 62, 0
3, 3840, Note_on_c, 0, 67, 0
3, 3840, Note_on_c, 0, 59, 47
3, 3840, Note_on_c, 0, 67, 47
3, 3854, Control_c, 0, 64, 0
3, 4315, Note_on_c, 0, 67, 0
3, 4315, Note_on_c, 0, 59, 0
3, 4320, Note_on_c, 0, 60, 69
3, 4320, Note_on_c, 0, 67, 69
3, 4447, Control_c, 0, 64, 127
3, 4800, Note_on_c, 0, 55, 0
3, 4800, Note_on_c, 0, 55, 57
3, 5277, Note_on_c, 0, 67, 0
3, 5280, Note_on_c, 0, 60, 0
3, 5280, Note_on_c, 0, 60, 46
3, 5280, Note_on_c, 0, 64, 46
3, 5303, Control_c, 0, 64, 0
3, 5755, Note_on_c, 0, 64, 0
3, 5755, Note_on_c, 0, 60, 0
3, 5760, Control_c, 0, 91, 127
3, 5761, Note_on_c, 0, 64, 66
3, 5930, Control_c, 0, 64, 127
3, 6240, Note_on_c, 0, 55, 0
3, 6240, Note_on_c, 0, 55, 46
3, 6720, Note_on_c, 0, 65, 39
3, 6721, Note_on_c, 0, 64, 0
3, 6734, Control_c, 0, 64, 0
3, 7195, Note_on_c, 0, 65, 0
3, 7200, Note_on_c, 0, 64, 66
3, 7327, Control_c, 0, 64, 127
3, 7680, Note_on_c, 0, 55, 0
3, 7680, Note_on_c, 0, 55, 44
3, 8157, Note_on_c, 0, 64, 0
3, 8160, Note_on_c, 0, 60, 39
3, 8174, Control_c, 0, 64, 0
3, 8635, Note_on_c, 0, 60, 0
3, 8640, Note_on_c, 0, 62, 59
3, 8792, Control_c, 0, 64, 127
3, 9120, Note_on_c, 0, 55, 0
3, 9120, Note_on_c, 0, 55, 44
3, 9600, Note_on_c, 0, 62, 0
3, 9600, Note_on_c, 0, 64, 38
3, 9610, Control_c, 0, 64, 0
3, 10075, Note_on_c, 0, 64, 0
3, 10080, Note_on_c, 0, 60, 57
3, 10207, Control_c, 0, 64, 127
3, 10560, Note_on_c, 0, 55, 0
3, 10560, Note_on_c, 0, 55, 44
3, 11040, Note_on_c, 0, 60, 0
3, 11040, Note_on_c, 0, 60, 35
3, 11047, Control_c, 0, 64, 0
3, 11515, Note_on_c, 0, 60, 0
3, 11520, Note_on_c, 0, 55, 0
3, 11520, Control_c, 0, 91, 127
3, 11521, Note_on_c, 0, 67, 73
3, 11521, Note_on_c, 0, 64, 73
3, 11690, Control_c, 0, 64, 127
3, 12000, Note_on_c, 0, 55, 61
3, 12480, Note_on_c, 0, 63, 51
3, 12480, Note_on_c, 0, 66, 51
3, 12481, Note_on_c, 0, 64, 0
3, 12481, Note_on_c, 0, 67, 0
3, 12496, Control_c, 0, 64, 0
3, 12955, Note_on_c, 0, 63, 0
3, 12955, Note_on_c, 0, 66, 0
3, 12960, Note_on_c, 0, 64, 73
3, 12960, Note_on_c, 0, 67, 73
3, 13130, Control_c, 0, 64, 127
3, 13440, Note_on_c, 0, 55, 0
3, 13440, Note_on_c, 0, 55, 59
3, 13920, Note_on_c, 0, 67, 0
3, 13920, Note_on_c, 0, 64, 0
3, 13920, Note_on_c, 0, 60, 51
3, 13920, Note_on_c, 0, 67, 51
3, 13938, Control_c, 0, 64, 0
3, 14395, Note_on_c, 0, 67, 0
3, 14395, Note_on_c, 0, 60, 0
3, 14400, Note_on_c, 0, 62, 70
3, 14400, Note_on_c, 0, 67, 70
3, 14598, Control_c, 0, 64, 127
3, 14880, Note_on_c, 0, 55, 0
3, 14880, Note_on_c, 0, 55, 58
3, 15360, Note_on_c, 0, 67, 0
3, 15360, Note_on_c, 0, 62, 0
3, 15360, Note_on_c, 0, 59, 47
3, 15360, Note_on_c, 0, 67, 47
3, 15372, Control_c, 0, 64, 0
3, 15835, Note_on_c, 0, 67, 0
3, 15835, Note_on_c, 0, 59, 0
3, 15840, Note_on_c, 0, 60, 71
3, 15840, Note_on_c, 0, 67, 71
3, 16024, Control_c, 0, 64, 127
3, 16320, Note_on_c, 0, 55, 0
3, 16320, Note_on_c, 0, 55, 57
3, 16796, Note_on_c, 0, 67, 0
3, 16800, Note_on_c, 0, 60, 0
3, 16800, Note_on_c, 0, 60, 46
3, 16800, Note_on_c, 0, 64, 46
3, 16815, Control_c, 0, 64, 0
3, 17275, Note_on_c, 0, 64, 0
3, 17275, Note_on_c, 0, 60, 0
3, 17280, Control_c, 0, 91, 127
3, 17281, Note_on_c, 0, 64, 66
3, 17577, Control_c, 0, 64, 127
3, 17760, Note_on_c, 0, 55, 0
3, 17760, Note_on_c, 0, 55, 46
3, 18240, Note_on_c, 0, 65, 39
3, 18241, Note_on_c, 0, 64, 0
3, 18258, Control_c, 0, 64, 0
3, 18715, Note_on_c, 0, 65, 0
3, 18720, Note_on_c, 0, 64, 66
3, 18974, Control_c, 0, 64, 127
3, 19200, Note_on_c, 0, 55, 0
3, 19200, Note_on_c, 0, 55, 44
3, 19677, Note_on_c, 0, 64, 0
3, 19680, Note_on_c, 0, 60, 39
3, 19694, Control_c, 0, 64, 0
3, 20155, Note_on_c, 0, 60, 0
3, 20160, Note_on_c, 0, 62, 59
3, 20287, Control_c, 0, 64, 127
3, 20640, Note_on_c, 0, 55, 0
3, 20640, Note_on_c, 0, 55, 44
3, 21120, Note_on_c, 0, 62, 0
3, 21120, Note_on_c, 0, 64, 38
3, 21133, Control_c, 0, 64, 0
3, 21595, Note_on_c, 0, 64, 0
3, 21600, Note_on_c, 0, 60, 57
3, 21741, Control_c, 0, 64, 127
3, 22080, Note_on_c, 0, 55, 0
3, 22080, Note_on_c, 0, 55, 44
3, 22560, Note_on_c, 0, 60, 0
3, 22560, Note_on_c, 0, 60, 35
3, 22570, Control_c, 0, 64, 0
3, 23035, Note_on_c, 0, 60, 0
3, 23040, Note_on_c, 0, 55, 0
3, 23040, Note_on_c, 0, 58, 60
3, 23040, Control_c, 0, 91, 127
3, 23252, Control_c, 0, 64, 127
3, 23520, Note_on_c, 0, 60, 58
3, 24000, Note_on_c, 0, 58, 0
3, 24000, Note_on_c, 0, 57, 56
3, 24014, Control_c, 0, 64, 0
3, 24480, Note_on_c, 0, 57, 0
3, 24480, Note_on_c, 0, 55, 64
3, 24480, Control_c, 0, 91, 127
3, 24670, Control_c, 0, 64, 127
3, 24960, Note_on_c, 0, 60, 0
3, 24960, Note_on_c, 0, 60, 60
3, 25440, Note_on_c, 0, 55, 0
3, 25440, Note_on_c, 0, 53, 58
3, 25455, Control_c, 0, 64, 0
3, 25920, Note_on_c, 0, 53, 0
3, 25920, Note_on_c, 0, 52, 70
3, 25920, Control_c, 0, 91, 127
3, 26097, Control_c, 0, 64, 127
3, 26400, Note_on_c, 0, 60, 0
3, 26400, Note_on_c, 0, 60, 68
3, 26880, Note_on_c, 0, 60, 0
3, 26880, Note_on_c, 0, 52, 0
3, 26880, Note_on_c, 0, 61, 68
3, 26880, Note_on_c, 0, 51, 68
3, 26895, Control_c, 0, 64, 0
3, 27360, Note_on_c, 0, 51, 0
3, 27360, Note_on_c, 0, 50, 78
3, 27360, Control_c, 0, 91, 127
3, 27558, Control_c, 0, 64, 127
3, 27840, Note_on_c, 0, 61, 0
3, 27840, Note_on_c, 0, 62, 73
3, 28320, Note_on_c, 0, 62, 0
3, 28320, Note_on_c, 0, 50, 0
3, 28320, Note_on_c, 0, 64, 73
3, 28320, Note_on_c, 0, 49, 73
3, 28326, Control_c, 0, 64, 0
3, 28800, Note_on_c, 0, 49, 0
3, 28800, Note_on_c, 0, 64, 0
3, 28800, Note_on_c, 0, 50, 86
3, 28800, Control_c, 0, 91, 127
3, 29012, Control_c, 0, 64, 127
3, 29280, Note_on_c, 0, 62, 81
3, 29760, Note_on_c, 0, 62, 0
3, 29760, Note_on_c, 0, 50, 0
3, 29760, Note_on_c, 0, 55, 77
3, 29760, Note_on_c, 0, 43, 77
3, 29776, Control_c, 0, 64, 0
3, 30240, Note_on_c, 0, 43, 0
3, 30240, Note_on_c, 0, 55, 0
3, 30240, Note_on_c, 0, 45, 95
3, 30240, Control_c, 0, 91, 127
3, 30480, Control_c, 0, 64, 127
3, 30720, Note_on_c, 0, 57, 92
3, 31200, Note_on_c, 0, 57, 0
3, 31200, Note_on_c, 0, 45, 0
3, 31200, Note_on_c, 0, 45, 90
3, 31200, Note_on_c, 0, 33, 90
3, 31212, Control_c, 0, 64, 0
3, 31680, Note_on_c, 0, 33, 0
3, 31680, Note_on_c, 0, 45, 0
3, 31680, Note_on_c, 0, 38, 102
3, 31680, Control_c, 0, 91, 127
3, 31823, Control_c, 0, 64, 127
3, 32160, Note_on_c, 0, 50, 95
3, 32640, Note_on_c, 0, 50, 0
3, 32640, Note_on_c, 0, 38, 0
3, 32640, Note_on_c, 0, 44, 92
3, 32640, Note_on_c, 0, 32, 92
3, 32656, Control_c, 0, 64, 0
3, 33120, Note_on_c, 0, 32, 0
3, 33120, Note_on_c, 0, 44, 0
3, 33120, Note_on_c, 0, 31, 105
3, 33120, Note_on_c, 0, 43, 105
3, 33120, Control_c, 0, 91, 127
3, 33374, Control_c, 0, 64, 127
3, 33600, Note_on_c, 0, 43, 0
3, 33600, Note_on_c, 0, 31, 0
3, 33600, Note_on_c, 0, 55, 100
3, 34080, Note_on_c, 0, 55, 0
3, 34080, Note_on_c, 0, 43, 95
3, 34080, Note_on_c, 0, 31, 95
3, 34090, Control_c, 0, 64, 0
3, 34560, Note_on_c, 0, 31, 0
3, 34560, Note_on_c, 0, 43, 0
3, 34560, Note_on_c, 0, 36, 108
3, 34560, Control_c, 0, 91, 127
3, 34716, Control_c, 0, 64, 127
3, 35040, Note_on_c, 0, 36, 0
3, 35040, Note_on_c, 0, 52, 90
3, 35520, Note_on_c, 0, 52, 0
3, 35520, Note_on_c, 0, 53, 86
3, 35538, Control_c, 0, 64, 0
3, 36000, Note_on_c, 0, 53, 0
3, 36000, Note_on_c, 0, 52, 108
3, 36141, Control_c, 0, 64, 127
3, 36480, Note_on_c, 0, 36, 90
3, 36960, Note_on_c, 0, 52, 0
3, 36960, Note_on_c, 0, 48, 87
3, 36978, Control_c, 0, 64, 0
3, 37440, Note_on_c, 0, 48, 0
3, 37440, Note_on_c, 0, 36, 0
3, 37440, Note_on_c, 0, 50, 110
3, 37592, Control_c, 0, 64, 127
3, 37920, Note_on_c, 0, 36, 92
3, 38400, Note_on_c, 0, 50, 0
3, 38400, Note_on_c, 0, 52, 87
3, 38405, Control_c, 0, 64, 0
3, 38880, Note_on_c, 0, 52, 0
3, 38880, Note_on_c, 0, 36, 0
3, 38880, Note_on_c, 0, 48, 109
3, 39106, Control_c, 0, 64, 127
3, 39360, Note_on_c, 0, 36, 93
3, 39840, Note_on_c, 0, 48, 0
3, 39840, Note_on_c, 0, 43, 91
3, 39850, Control_c, 0, 64, 0
3, 40320, Note_on_c, 0, 43, 0
3, 40320, Note_on_c, 0, 36, 0
3, 40320, Note_on_c, 0, 52, 108
3, 40320, Note_on_c, 0, 43, 91
3, 40320, Control_c, 0, 91, 127
3, 40588, Control_c, 0, 64, 127
3, 40800, Note_on_c, 0, 36, 86
3, 41280, Note_on_c, 0, 43, 0
3, 41280, Note_on_c, 0, 52, 0
3, 41280, Note_on_c, 0, 45, 79
3, 41280, Note_on_c, 0, 53, 94
3, 41292, Control_c, 0, 64, 0
3, 41760, Note_on_c, 0, 53, 0
3, 41760, Note_on_c, 0, 45, 0
3, 41760, Note_on_c, 0, 36, 0
3, 41760, Note_on_c, 0, 43, 91
3, 41760, Note_on_c, 0, 52, 108
3, 42014, Control_c, 0, 64, 127
3, 42240, Note_on_c, 0, 36, 86
3, 42720, Note_on_c, 0, 52, 0
3, 42720, Note_on_c, 0, 43, 0
3, 42720, Note_on_c, 0, 40, 78
3, 42720, Note_on_c, 0, 48, 93
3, 42730, Control_c, 0, 64, 0
3, 43200, Note_on_c, 0, 48, 0
3, 43200, Note_on_c, 0, 40, 0
3, 43200, Note_on_c, 0, 36, 0
3, 43200, Note_on_c, 0, 41, 90
3, 43200, Note_on_c, 0, 50, 106
3, 43468, Control_c, 0, 64, 127
3, 43680, Note_on_c, 0, 36, 87
3, 44160, Note_on_c, 0, 50, 0
3, 44160, Note_on_c, 0, 41, 0
3, 44160, Note_on_c, 0, 43, 79
3, 44160, Note_on_c, 0, 52, 94
3, 44172, Control_c, 0, 64, 0
3, 44640, Note_on_c, 0, 52, 0
3, 44640, Note_on_c, 0, 43, 0
3, 44640, Note_on_c, 0, 36, 0
3, 44640, Note_on_c, 0, 40, 89
3, 44640, Note_on_c, 0, 48, 105
3, 44732, Control_c, 0, 64, 127
3, 45120, Note_on_c, 0, 36, 88
3, 45600, Note_on_c, 0, 48, 0
3, 45600, Note_on_c, 0, 40, 0
3, 45600, Note_on_c, 0, 48, 95
3, 45616, Control_c, 0, 64, 0
3, 45960, Note_on_c, 0, 48, 0
3, 46080, Note_on_c, 0, 36, 0
3, 46080, Note_on_c, 0, 58, 60
3, 46080, Control_c, 0, 91, 127
3, 46193, Control_c, 0, 64, 127
3, 46560, Note_on_c, 0, 60, 58
3, 47040, Note_on_c, 0, 58, 0
3, 47040, Note_on_c, 0, 57, 56
3, 47054, Control_c, 0, 64, 0
3, 47520, Note_on_c, 0, 57, 0
3, 47520, Note_on_c, 0, 55, 64
3, 47520, Control_c, 0, 91, 127
3, 47697, Control_c, 0, 64, 127
3, 48000, Note_on_c, 0, 60, 0
3, 48000, Note_on_c, 0, 60, 60
3, 48480, Note_on_c, 0, 55, 0
3, 48480, Note_on_c, 0, 53, 58
3, 48487, Control_c, 0, 64, 0
3, 48960, Note_on_c, 0, 53, 0
3, 48960, Note_on_c, 0, 52, 70
3, 48960, Control_c, 0, 91, 127
3, 49188, Control_c, 0, 64, 127
3, 49440, Note_on_c, 0, 60, 0
3, 49440, Note_on_c, 0, 60, 68
3, 49920, Note_on_c, 0, 60, 0
3, 49920, Note_on_c, 0, 52, 0
3, 49920, Note_on_c, 0, 61, 68
3, 49920, Note_on_c, 0, 51, 68
3, 49939, Control_c, 0, 64, 0
3, 50400, Note_on_c, 0, 51, 0
3, 50400, Note_on_c, 0, 50, 78
3, 50400, Control_c, 0, 91, 127
3, 50598, Control_c, 0, 64, 127
3, 50880, Note_on_c, 0, 61, 0
3, 50880, Note_on_c, 0, 62, 73
3, 51360, Note_on_c, 0, 62, 0
3, 51360, Note_on_c, 0, 50, 0
3, 51360, Note_on_c, 0, 64, 73
3, 51360, Note_on_c, 0, 49, 73
3, 51367, Control_c, 0, 64, 0
3, 51840, Note_on_c, 0, 49, 0
3, 51840, Note_on_c, 0, 64, 0
3, 51840, Note_on_c, 0, 50, 86
3, 51840, Control_c, 0, 91, 127
3, 51996, Control_c, 0, 64, 127
3, 52320, Note_on_c, 0, 62, 81
3, 52800, Note_on_c, 0, 62, 0
3, 52800, Note_on_c, 0, 50, 0
3, 52800, Note_on_c, 0, 55, 77
3, 52800, Note_on_c, 0, 43, 77
3, 52819, Control_c, 0, 64, 0
3, 53280, Note_on_c, 0, 43, 0
3, 53280, Note_on_c, 0, 55, 0
3, 53280, Note_on_c, 0, 45, 95
3, 53280, Control_c, 0, 91, 127
3, 53351, Control_c, 0, 64, 127
3, 53760, Note_on_c, 0, 57, 92
3, 54240, Note_on_c, 0, 57, 0
3, 54240, Note_on_c, 0, 45, 0
3, 54240, Note_on_c, 0, 45, 90
3, 54240, Note_on_c, 0, 33, 90
3, 54256, Control_c, 0, 64, 0
3, 54720, Note_on_c, 0, 33, 0
3, 54720, Note_on_c, 0, 45, 0
3, 54720, Note_on_c, 0, 38, 102
3, 54720, Control_c, 0, 91, 127
3, 54811, Control_c, 0, 64, 127
3, 55200, Note_on_c, 0, 50, 95
3, 55680, Note_on_c, 0, 50, 0
3, 55680, Note_on_c, 0, 38, 0
3, 55680, Note_on_c, 0, 44, 92
3, 55680, Note_on_c, 0, 32, 92
3, 55696, Control_c, 0, 64, 0
3, 56160, Note_on_c, 0, 32, 0
3, 56160, Note_on_c, 0, 44, 0
3, 56160, Note_on_c, 0, 31, 105
3, 56160, Note_on_c, 0, 43, 105
3, 56160, Control_c, 0, 91, 127
3, 56386, Control_c, 0, 64, 127
3, 56640, Note_on_c, 0, 43, 0
3, 56640, Note_on_c, 0, 31, 0
3, 56640, Note_on_c, 0, 55, 100
3, 57120, Note_on_c, 0, 55, 0
3, 57120, Note_on_c, 0, 43, 95
3, 57120, Note_on_c, 0, 31, 95
3, 57134, Control_c, 0, 64, 0
3, 57600, Note_on_c, 0, 31, 0
3, 57600, Note_on_c, 0, 43, 0
3, 57600, Note_on_c, 0, 36, 112
3, 57600, Control_c, 0, 91, 127
3, 57770, Control_c, 0, 64, 127
3, 58080, Note_on_c, 0, 36, 0
3, 58080, Note_on_c, 0, 52, 91
3, 58560, Note_on_c, 0, 52, 0
3, 58560, Note_on_c, 0, 53, 86
3, 58578, Control_c, 0, 64, 0
3, 59040, Note_on_c, 0, 53, 0
3, 59040, Note_on_c, 0, 52, 110
3, 59238, Control_c, 0, 64, 127
3, 59520, Note_on_c, 0, 36, 91
3, 60000, Note_on_c, 0, 52, 0
3, 60000, Note_on_c, 0, 48, 86
3, 60010, Control_c, 0, 64, 0
3, 60480, Note_on_c, 0, 48, 0
3, 60480, Note_on_c, 0, 36, 0
3, 60480, Note_on_c, 0, 50, 108
3, 60695, Control_c, 0, 64, 127
3, 60960, Note_on_c, 0, 36, 91
3, 61440, Note_on_c, 0, 50, 0
3, 61440, Note_on_c, 0, 52, 88
3, 61458, Control_c, 0, 64, 0
3, 61920, Note_on_c, 0, 52, 0
3, 61920, Note_on_c, 0, 36, 0
3, 61920, Note_on_c, 0, 48, 109
3, 62090, Control_c, 0, 64, 127
3, 62400, Note_on_c, 0, 36, 92
3, 62880, Note_on_c, 0, 48, 0
3, 62880, Note_on_c, 0, 43, 88
3, 62896, Control_c, 0, 64, 0
3, 63360, Note_on_c, 0, 43, 0
3, 63360, Note_on_c, 0, 36, 0
3, 63360, Note_on_c, 0, 52, 107
3, 63360, Note_on_c, 0, 43, 107
3, 63360, Control_c, 0, 91, 127
3, 63614, Control_c, 0, 64, 127
3, 63840, Note_on_c, 0, 36, 90
3, 64320, Note_on_c, 0, 43, 0
3, 64320, Note_on_c, 0, 52, 0
3, 64320, Note_on_c, 0, 45, 87
3, 64320, Note_on_c, 0, 53, 87
3, 64336, Control_c, 0, 64, 0
3, 64800, Note_on_c, 0, 53, 0
3, 64800, Note_on_c, 0, 45, 0
3, 64800, Note_on_c, 0, 36, 0
3, 64800, Note_on_c, 0, 43, 108
3, 64800, Note_on_c, 0, 52, 108
3, 65111, Control_c, 0, 64, 127
3, 65280, Note_on_c, 0, 36, 90
3, 65760, Note_on_c, 0, 52, 0
3, 65760, Note_on_c, 0, 43, 0
3, 65760, Note_on_c, 0, 40, 88
3, 65760, Note_on_c, 0, 48, 88
3, 65776, Control_c, 0, 64, 0
3, 66240, Note_on_c, 0, 48, 0
3, 66240, Note_on_c, 0, 40, 0
3, 66240, Note_on_c, 0, 36, 0
3, 66240, Note_on_c, 0, 41, 108
3, 66240, Note_on_c, 0, 50, 108
3, 66410, Control_c, 0, 64, 127
3, 66720, Note_on_c, 0, 36, 91
3, 67200, Note_on_c, 0, 50, 0
3, 67200, Note_on_c, 0, 41, 0
3, 67200, Note_on_c, 0, 43, 89
3, 67200, Note_on_c, 0, 52, 89
3, 67218, Control_c, 0, 64, 0
3, 67680, Note_on_c, 0, 52, 0
3, 67680, Note_on_c, 0, 43, 0
3, 67680, Note_on_c, 0, 36, 0
3, 67680, Note_on_c, 0, 40, 109
3, 67680, Note_on_c, 0, 48, 109
3, 67821, Control_c, 0, 64, 127
3, 68160, Note_on_c, 0, 36, 92
3, 68640, Note_on_c, 0, 48, 0
3, 68640, Note_on_c, 0, 40, 0
3, 68640, Note_on_c, 0, 48, 104
3, 69120, Note_on_c, 0, 48, 0
3, 69120, Note_on_c, 0, 36, 0
3, 69600, Control_c, 0, 64, 0
3, 69600, End_track
4, 0, Start_track
4, 0, Title_t, "Schumann: Scenes from Childhood Op. 15"
4, 0, End_track
5, 0, Start_track
5, 0, Title_t, "Copyright © 1997 by Bernd Krueger"
5, 0, End_track
6, 0, Start_track
6, 0, Title_t, "http://www.piano-midi.de"
6, 0, End_track
7, 0, Start_track
7, 0, Title_t, "Edition: 2014-03-26"
7, 0, End_track
0, 0, End_of_file
