0, 0, Header, 1, 7, 480
1, 0, Start_track
1, 0, Title_t, "Kinderszenen Opus 15"
1, 0, Title_t, "Wichtige Begebenheit"
1, 0, Copyright_t, "Copyright © 1997 von Bernd Krüger."
1, 0, Text_t, "Robert Schumann"
1, 0, Text_t, "Fertiggestelle am 6.12.97\012"
1, 0, Text_t, "Korrekturen am 4.9.98\012"
1, 0, Text_t, "Anpassungen an Digitalpiano\012"
1, 0, Text_t, "Update am 16.6.99\012"
1, 0, Text_t, "Update am 9.7.99\012"
1, 0, Text_t, "Normierung: 23.12.2002\012"
1, 0, Text_t, "Update am 9.10.2008\012"
1, 0, Text_t, "Update am 26.3.14 (keine Änderungen)\012"
1, 0, Text_t, "Dauer: 0:47 Minuten\012"
1, 0, Time_signature, 3, 2, 24, 8
1, 0, Key_signature, 3, "major"
1, 0, Tempo, 417072
1, 0, Marker_t, "Great Adventure"
1, 960, Tempo, 485712
1, 2880, Tempo, 479616
1, 3600, Tempo, 464145
1, 3840, Tempo, 471772
1, 4080, Tempo, 494030
1, 4320, Tempo, 477631
1, 5280, Tempo, 485712
1, 5760, Tempo, 481657
1, 6720, Tempo, 477631
1, 7680, Tempo, 485712
1, 8640, Tempo, 479616
1, 9360, Tempo, 464145
1, 9600, Tempo, 471772
1, 9840, Tempo, 494030
1, 10080, Tempo, 477631
1, 11520, Tempo, 485712
1, 12480, Tempo, 455789
1, 12960, Tempo, 455789
1, 13200, Tempo, 470146
1, 13440, Tempo, 479578
1, 13680, Tempo, 489436
1, 13920, Tempo, 466454
1, 14400, Tempo, 455789
1, 14640, Tempo, 466454
1, 14880, Tempo, 473859
1, 15120, Tempo, 483442
1, 15360, Tempo, 468274
1, 15840, Tempo, 457526
1, 16320, Tempo, 473859
1, 16800, Tempo, 464648
1, 17280, Tempo, 455789
1, 17520, Tempo, 462856
1, 17760, Tempo, 470146
1, 18240, Tempo, 477631
1, 18720, Tempo, 446163
1, 18740, Tempo, 457213
1, 20640, Tempo, 468128
1, 21600, Tempo, 473747
1, 21960, Tempo, 455443
1, 22080, Tempo, 462642
1, 22560, Tempo, 512821
1, 23040, Tempo, 470588
1, 24000, Tempo, 455789
1, 24480, Tempo, 455789
1, 24720, Tempo, 470146
1, 24960, Tempo, 479578
1, 25200, Tempo, 489436
1, 25440, Tempo, 466454
1, 25920, Tempo, 455789
1, 26160, Tempo, 466454
1, 26400, Tempo, 473859
1, 26640, Tempo, 483442
1, 26880, Tempo, 468274
1, 27360, Tempo, 457526
1, 27840, Tempo, 473859
1, 28320, Tempo, 464648
1, 28800, Tempo, 455789
1, 29040, Tempo, 462856
1, 29280, Tempo, 470146
1, 29760, Tempo, 477631
1, 30240, Tempo, 446163
1, 30260, Tempo, 457213
1, 32160, Tempo, 468128
1, 33120, Tempo, 473747
1, 33480, Tempo, 455443
1, 33600, Tempo, 462642
1, 34080, Tempo, 512821
1, 35520, Tempo, 486697
1, 36480, Tempo, 486697
1, 37440, Tempo, 480615
1, 38160, Tempo, 465116
1, 38400, Tempo, 472739
1, 38640, Tempo, 495050
1, 38880, Tempo, 478583
1, 39840, Tempo, 486697
1, 40320, Tempo, 482625
1, 41280, Tempo, 478583
1, 42240, Tempo, 486697
1, 43200, Tempo, 488759
1, 43680, Tempo, 480808
1, 43920, Tempo, 467472
1, 44160, Tempo, 476948
1, 44400, Tempo, 510638
1, 44640, Tempo, 495868
1, 45120, Tempo, 566038
1, 45600, Tempo, 628272
1, 46080, Tempo, 816327
1, 46920, Marker_t, "Fine"
1, 46921, Tempo, 697674
1, 46921, End_track
2, 0, Start_track
2, 0, Title_t, "Piano right"
2, 0, Program_c, 0, 0
2, 0, Control_c, 0, 7, 100
2, 0, Control_c, 0, 10, 64
2, 0, Control_c, 0, 91, 127
2, 0, Text_t, "bdca426d104a26ac9dcb070447587523"
2, 959, Control_c, 0, 91, 127
2, 960, Note_on_c, 0, 73, 90
2, 960, Note_on_c, 0, 81, 100
2, 960, Note_on_c, 0, 76, 90
2, 1440, Note_on_c, 0, 76, 0
2, 1440, Note_on_c, 0, 81, 0
2, 1440, Note_on_c, 0, 73, 0
2, 1440, Note_on_c, 0, 71, 90
2, 1440, Note_on_c, 0, 80, 100
2, 1440, Note_on_c, 0, 76, 90
2, 1800, Note_on_c, 0, 76, 0
2, 1800, Note_on_c, 0, 80, 0
2, 1800, Note_on_c, 0, 71, 0
2, 1800, Note_on_c, 0, 69, 81
2, 1800, Note_on_c, 0, 75, 81
2, 1800, Note_on_c, 0, 78, 90
2, 1920, Note_on_c, 0, 78, 0
2, 1920, Note_on_c, 0, 75, 0
2, 1920, Note_on_c, 0, 69, 0
2, 1920, Note_on_c, 0, 76, 94
2, 1920, Note_on_c, 0, 73, 84
2, 1920, Note_on_c, 0, 68, 84
2, 2380, Note_on_c, 0, 68, 0
2, 2380, Note_on_c, 0, 73, 0
2, 2380, Note_on_c, 0, 76, 0
2, 2400, Note_on_c, 0, 69, 79
2, 2400, Note_on_c, 0, 73, 79
2, 2400, Note_on_c, 0, 78, 88
2, 2860, Note_on_c, 0, 78, 0
2, 2860, Note_on_c, 0, 73, 0
2, 2860, Note_on_c, 0, 69, 0
2, 2880, Note_on_c, 0, 75, 89
2, 2880, Note_on_c, 0, 66, 80
2, 2880, Note_on_c, 0, 71, 80
2, 3340, Note_on_c, 0, 71, 0
2, 3340, Note_on_c, 0, 66, 0
2, 3340, Note_on_c, 0, 75, 0
2, 3360, Note_on_c, 0, 68, 81
2, 3360, Note_on_c, 0, 71, 81
2, 3360, Note_on_c, 0, 76, 91
2, 3720, Note_on_c, 0, 76, 0
2, 3720, Note_on_c, 0, 71, 0
2, 3720, Note_on_c, 0, 68, 0
2, 3840, Note_on_c, 0, 74, 91
2, 3840, Note_on_c, 0, 71, 81
2, 3840, Note_on_c, 0, 66, 91
2, 3960, Note_on_c, 0, 66, 0
2, 4080, Note_on_c, 0, 64, 91
2, 4200, Note_on_c, 0, 64, 0
2, 4320, Note_on_c, 0, 71, 0
2, 4320, Note_on_c, 0, 74, 0
2, 4320, Note_on_c, 0, 64, 82
2, 4320, Note_on_c, 0, 73, 92
2, 4320, Note_on_c, 0, 69, 82
2, 4680, Note_on_c, 0, 69, 0
2, 4680, Note_on_c, 0, 73, 0
2, 4680, Note_on_c, 0, 64, 0
2, 4680, Note_on_c, 0, 62, 78
2, 4680, Note_on_c, 0, 68, 78
2, 4680, Note_on_c, 0, 71, 87
2, 4800, Note_on_c, 0, 71, 0
2, 4800, Note_on_c, 0, 68, 0
2, 4800, Note_on_c, 0, 62, 0
2, 4800, Note_on_c, 0, 69, 87
2, 4800, Note_on_c, 0, 66, 78
2, 4800, Note_on_c, 0, 61, 78
2, 5260, Note_on_c, 0, 61, 0
2, 5260, Note_on_c, 0, 66, 0
2, 5260, Note_on_c, 0, 69, 0
2, 5280, Note_on_c, 0, 62, 81
2, 5280, Note_on_c, 0, 66, 81
2, 5280, Note_on_c, 0, 71, 90
2, 5740, Note_on_c, 0, 71, 0
2, 5740, Note_on_c, 0, 66, 0
2, 5740, Note_on_c, 0, 62, 0
2, 5760, Note_on_c, 0, 68, 87
2, 5760, Note_on_c, 0, 59, 78
2, 5760, Note_on_c, 0, 64, 78
2, 6220, Note_on_c, 0, 64, 0
2, 6220, Note_on_c, 0, 59, 0
2, 6220, Note_on_c, 0, 68, 0
2, 6240, Note_on_c, 0, 61, 78
2, 6240, Note_on_c, 0, 64, 78
2, 6240, Note_on_c, 0, 69, 87
2, 6600, Note_on_c, 0, 69, 0
2, 6600, Note_on_c, 0, 64, 0
2, 6600, Note_on_c, 0, 61, 0
2, 6720, Note_on_c, 0, 64, 76
2, 6720, Note_on_c, 0, 61, 76
2, 6720, Note_on_c, 0, 69, 85
2, 7200, Note_on_c, 0, 69, 0
2, 7200, Note_on_c, 0, 61, 0
2, 7200, Note_on_c, 0, 64, 0
2, 7200, Note_on_c, 0, 59, 76
2, 7200, Note_on_c, 0, 64, 85
2, 7200, Note_on_c, 0, 68, 85
2, 7560, Note_on_c, 0, 68, 0
2, 7560, Note_on_c, 0, 64, 0
2, 7560, Note_on_c, 0, 59, 0
2, 7560, Note_on_c, 0, 63, 76
2, 7560, Note_on_c, 0, 57, 68
2, 7560, Note_on_c, 0, 66, 76
2, 7680, Note_on_c, 0, 66, 0
2, 7680, Note_on_c, 0, 57, 0
2, 7680, Note_on_c, 0, 63, 0
2, 7680, Note_on_c, 0, 56, 71
2, 7680, Note_on_c, 0, 64, 79
2, 7680, Note_on_c, 0, 61, 71
2, 8140, Note_on_c, 0, 61, 0
2, 8140, Note_on_c, 0, 64, 0
2, 8140, Note_on_c, 0, 56, 0
2, 8160, Note_on_c, 0, 61, 66
2, 8160, Note_on_c, 0, 57, 66
2, 8160, Note_on_c, 0, 66, 74
2, 8620, Note_on_c, 0, 66, 0
2, 8620, Note_on_c, 0, 57, 0
2, 8620, Note_on_c, 0, 61, 0
2, 8640, Note_on_c, 0, 54, 67
2, 8640, Note_on_c, 0, 63, 75
2, 8640, Note_on_c, 0, 59, 67
2, 9100, Note_on_c, 0, 59, 0
2, 9100, Note_on_c, 0, 63, 0
2, 9100, Note_on_c, 0, 54, 0
2, 9120, Note_on_c, 0, 56, 69
2, 9120, Note_on_c, 0, 59, 69
2, 9120, Note_on_c, 0, 64, 77
2, 9480, Note_on_c, 0, 64, 0
2, 9480, Note_on_c, 0, 59, 0
2, 9480, Note_on_c, 0, 56, 0
2, 9600, Note_on_c, 0, 62, 74
2, 9600, Note_on_c, 0, 59, 66
2, 9600, Note_on_c, 0, 54, 74
2, 9720, Note_on_c, 0, 54, 0
2, 9840, Note_on_c, 0, 52, 74
2, 9960, Note_on_c, 0, 52, 0
2, 10080, Note_on_c, 0, 59, 0
2, 10080, Note_on_c, 0, 62, 0
2, 10080, Note_on_c, 0, 52, 68
2, 10080, Note_on_c, 0, 57, 76
2, 10080, Note_on_c, 0, 61, 76
2, 10440, Note_on_c, 0, 61, 0
2, 10440, Note_on_c, 0, 57, 0
2, 10440, Note_on_c, 0, 52, 0
2, 10440, Note_on_c, 0, 56, 60
2, 10440, Note_on_c, 0, 50, 60
2, 10440, Note_on_c, 0, 59, 67
2, 10560, Note_on_c, 0, 59, 0
2, 10560, Note_on_c, 0, 50, 0
2, 10560, Note_on_c, 0, 56, 0
2, 10560, Note_on_c, 0, 49, 60
2, 10560, Note_on_c, 0, 57, 67
2, 10560, Note_on_c, 0, 54, 60
2, 11020, Note_on_c, 0, 54, 0
2, 11020, Note_on_c, 0, 57, 0
2, 11020, Note_on_c, 0, 49, 0
2, 11040, Note_on_c, 0, 54, 63
2, 11040, Note_on_c, 0, 50, 63
2, 11040, Note_on_c, 0, 59, 71
2, 11500, Note_on_c, 0, 59, 0
2, 11500, Note_on_c, 0, 50, 0
2, 11500, Note_on_c, 0, 54, 0
2, 11520, Note_on_c, 0, 47, 60
2, 11520, Note_on_c, 0, 56, 67
2, 11520, Note_on_c, 0, 52, 60
2, 11980, Note_on_c, 0, 52, 0
2, 11980, Note_on_c, 0, 56, 0
2, 11980, Note_on_c, 0, 47, 0
2, 12000, Note_on_c, 0, 49, 56
2, 12000, Note_on_c, 0, 52, 56
2, 12000, Note_on_c, 0, 57, 63
2, 12360, Note_on_c, 0, 57, 0
2, 12360, Note_on_c, 0, 52, 0
2, 12360, Note_on_c, 0, 49, 0
2, 12480, Note_on_c, 0, 57, 66
2, 12480, Note_on_c, 0, 61, 66
2, 12480, Note_on_c, 0, 64, 66
2, 12480, Note_on_c, 0, 69, 74
2, 12960, Note_on_c, 0, 69, 0
2, 12960, Note_on_c, 0, 57, 0
2, 12960, Note_on_c, 0, 61, 0
2, 12960, Note_on_c, 0, 64, 0
2, 12960, Note_on_c, 0, 57, 72
2, 12960, Note_on_c, 0, 62, 72
2, 12960, Note_on_c, 0, 66, 72
2, 12960, Note_on_c, 0, 69, 80
2, 13920, Note_on_c, 0, 69, 0
2, 13920, Note_on_c, 0, 57, 0
2, 13920, Note_on_c, 0, 62, 0
2, 13920, Note_on_c, 0, 66, 0
2, 13920, Note_on_c, 0, 57, 64
2, 13920, Note_on_c, 0, 62, 64
2, 13920, Note_on_c, 0, 66, 64
2, 13920, Note_on_c, 0, 69, 72
2, 14400, Note_on_c, 0, 69, 0
2, 14400, Note_on_c, 0, 57, 0
2, 14400, Note_on_c, 0, 62, 0
2, 14400, Note_on_c, 0, 66, 0
2, 14400, Note_on_c, 0, 71, 79
2, 14400, Note_on_c, 0, 62, 71
2, 14400, Note_on_c, 0, 64, 71
2, 14400, Note_on_c, 0, 67, 71
2, 15360, Note_on_c, 0, 67, 0
2, 15360, Note_on_c, 0, 71, 0
2, 15360, Note_on_c, 0, 62, 0
2, 15360, Note_on_c, 0, 64, 0
2, 15360, Note_on_c, 0, 62, 64
2, 15360, Note_on_c, 0, 64, 64
2, 15360, Note_on_c, 0, 67, 64
2, 15360, Note_on_c, 0, 71, 72
2, 15840, Note_on_c, 0, 71, 0
2, 15840, Note_on_c, 0, 62, 0
2, 15840, Note_on_c, 0, 64, 0
2, 15840, Note_on_c, 0, 67, 0
2, 15840, Note_on_c, 0, 55, 55
2, 15840, Note_on_c, 0, 57, 55
2, 15840, Note_on_c, 0, 61, 55
2, 15840, Note_on_c, 0, 64, 62
2, 16080, Note_on_c, 0, 64, 0
2, 16080, Note_on_c, 0, 55, 0
2, 16080, Note_on_c, 0, 57, 0
2, 16080, Note_on_c, 0, 61, 0
2, 16320, Note_on_c, 0, 55, 55
2, 16320, Note_on_c, 0, 57, 55
2, 16320, Note_on_c, 0, 61, 55
2, 16320, Note_on_c, 0, 64, 62
2, 16560, Note_on_c, 0, 64, 0
2, 16560, Note_on_c, 0, 55, 0
2, 16560, Note_on_c, 0, 57, 0
2, 16560, Note_on_c, 0, 61, 0
2, 16800, Note_on_c, 0, 55, 55
2, 16800, Note_on_c, 0, 57, 55
2, 16800, Note_on_c, 0, 61, 55
2, 16800, Note_on_c, 0, 64, 62
2, 17040, Note_on_c, 0, 64, 0
2, 17040, Note_on_c, 0, 55, 0
2, 17040, Note_on_c, 0, 57, 0
2, 17040, Note_on_c, 0, 61, 0
2, 17280, Note_on_c, 0, 60, 64
2, 17280, Note_on_c, 0, 62, 64
2, 17280, Note_on_c, 0, 69, 72
2, 18720, Note_on_c, 0, 69, 0
2, 18720, Note_on_c, 0, 62, 0
2, 18720, Note_on_c, 0, 60, 0
2, 18720, Note_on_c, 0, 55, 53
2, 18720, Note_on_c, 0, 60, 53
2, 18720, Note_on_c, 0, 62, 59
2, 18960, Note_on_c, 0, 62, 0
2, 18960, Note_on_c, 0, 60, 0
2, 18960, Note_on_c, 0, 55, 0
2, 19200, Note_on_c, 0, 55, 55
2, 19200, Note_on_c, 0, 60, 55
2, 19200, Note_on_c, 0, 62, 62
2, 19440, Note_on_c, 0, 62, 0
2, 19440, Note_on_c, 0, 60, 0
2, 19440, Note_on_c, 0, 55, 0
2, 19680, Note_on_c, 0, 55, 58
2, 19680, Note_on_c, 0, 60, 58
2, 19680, Note_on_c, 0, 62, 65
2, 19920, Note_on_c, 0, 62, 0
2, 19920, Note_on_c, 0, 60, 0
2, 19920, Note_on_c, 0, 55, 0
2, 20160, Note_on_c, 0, 55, 63
2, 20160, Note_on_c, 0, 59, 63
2, 20160, Note_on_c, 0, 62, 71
2, 20640, Note_on_c, 0, 62, 0
2, 20640, Note_on_c, 0, 59, 0
2, 20640, Note_on_c, 0, 55, 0
2, 20640, Note_on_c, 0, 55, 72
2, 20640, Note_on_c, 0, 62, 72
2, 20640, Note_on_c, 0, 67, 80
2, 20880, Note_on_c, 0, 67, 0
2, 20880, Note_on_c, 0, 62, 0
2, 20880, Note_on_c, 0, 55, 0
2, 21120, Note_on_c, 0, 57, 66
2, 21120, Note_on_c, 0, 62, 66
2, 21120, Note_on_c, 0, 66, 74
2, 21360, Note_on_c, 0, 66, 0
2, 21360, Note_on_c, 0, 62, 0
2, 21360, Note_on_c, 0, 57, 0
2, 21600, Note_on_c, 0, 59, 65
2, 21600, Note_on_c, 0, 62, 65
2, 21600, Note_on_c, 0, 64, 73
2, 21840, Note_on_c, 0, 64, 0
2, 21840, Note_on_c, 0, 62, 0
2, 21840, Note_on_c, 0, 59, 0
2, 21960, Note_on_c, 0, 59, 68
2, 21960, Note_on_c, 0, 62, 68
2, 21960, Note_on_c, 0, 66, 76
2, 22080, Note_on_c, 0, 66, 0
2, 22080, Note_on_c, 0, 62, 0
2, 22080, Note_on_c, 0, 59, 0
2, 22080, Note_on_c, 0, 59, 80
2, 22080, Note_on_c, 0, 62, 80
2, 22080, Note_on_c, 0, 67, 89
2, 22320, Note_on_c, 0, 67, 0
2, 22320, Note_on_c, 0, 62, 0
2, 22320, Note_on_c, 0, 59, 0
2, 22560, Note_on_c, 0, 55, 61
2, 22560, Note_on_c, 0, 57, 61
2, 22560, Note_on_c, 0, 61, 61
2, 22560, Note_on_c, 0, 64, 68
2, 23040, Note_on_c, 0, 64, 0
2, 23040, Note_on_c, 0, 55, 0
2, 23040, Note_on_c, 0, 57, 0
2, 23040, Note_on_c, 0, 61, 0
2, 23040, Note_on_c, 0, 54, 70
2, 23040, Note_on_c, 0, 57, 70
2, 23040, Note_on_c, 0, 62, 78
2, 23520, Note_on_c, 0, 62, 0
2, 23520, Note_on_c, 0, 57, 0
2, 23520, Note_on_c, 0, 54, 0
2, 24000, Note_on_c, 0, 57, 66
2, 24000, Note_on_c, 0, 61, 66
2, 24000, Note_on_c, 0, 64, 66
2, 24000, Note_on_c, 0, 69, 74
2, 24480, Note_on_c, 0, 69, 0
2, 24480, Note_on_c, 0, 57, 0
2, 24480, Note_on_c, 0, 61, 0
2, 24480, Note_on_c, 0, 64, 0
2, 24480, Note_on_c, 0, 57, 72
2, 24480, Note_on_c, 0, 62, 72
2, 24480, Note_on_c, 0, 66, 72
2, 24480, Note_on_c, 0, 69, 80
2, 25440, Note_on_c, 0, 69, 0
2, 25440, Note_on_c, 0, 57, 0
2, 25440, Note_on_c, 0, 62, 0
2, 25440, Note_on_c, 0, 66, 0
2, 25440, Note_on_c, 0, 57, 64
2, 25440, Note_on_c, 0, 62, 64
2, 25440, Note_on_c, 0, 66, 64
2, 25440, Note_on_c, 0, 69, 72
2, 25920, Note_on_c, 0, 69, 0
2, 25920, Note_on_c, 0, 57, 0
2, 25920, Note_on_c, 0, 62, 0
2, 25920, Note_on_c, 0, 66, 0
2, 25920, Note_on_c, 0, 71, 79
2, 25920, Note_on_c, 0, 62, 71
2, 25920, Note_on_c, 0, 64, 71
2, 25920, Note_on_c, 0, 67, 71
2, 26880, Note_on_c, 0, 67, 0
2, 26880, Note_on_c, 0, 71, 0
2, 26880, Note_on_c, 0, 62, 0
2, 26880, Note_on_c, 0, 64, 0
2, 26880, Note_on_c, 0, 62, 64
2, 26880, Note_on_c, 0, 64, 64
2, 26880, Note_on_c, 0, 67, 64
2, 26880, Note_on_c, 0, 71, 72
2, 27360, Note_on_c, 0, 71, 0
2, 27360, Note_on_c, 0, 62, 0
2, 27360, Note_on_c, 0, 64, 0
2, 27360, Note_on_c, 0, 67, 0
2, 27360, Note_on_c, 0, 55, 54
2, 27360, Note_on_c, 0, 57, 54
2, 27360, Note_on_c, 0, 61, 54
2, 27360, Note_on_c, 0, 64, 61
2, 27600, Note_on_c, 0, 64, 0
2, 27600, Note_on_c, 0, 55, 0
2, 27600, Note_on_c, 0, 57, 0
2, 27600, Note_on_c, 0, 61, 0
2, 27840, Note_on_c, 0, 55, 54
2, 27840, Note_on_c, 0, 57, 54
2, 27840, Note_on_c, 0, 61, 54
2, 27840, Note_on_c, 0, 64, 61
2, 28080, Note_on_c, 0, 64, 0
2, 28080, Note_on_c, 0, 55, 0
2, 28080, Note_on_c, 0, 57, 0
2, 28080, Note_on_c, 0, 61, 0
2, 28320, Note_on_c, 0, 55, 54
2, 28320, Note_on_c, 0, 57, 54
2, 28320, Note_on_c, 0, 61, 54
2, 28320, Note_on_c, 0, 64, 61
2, 28560, Note_on_c, 0, 64, 0
2, 28560, Note_on_c, 0, 55, 0
2, 28560, Note_on_c, 0, 57, 0
2, 28560, Note_on_c, 0, 61, 0
2, 28800, Note_on_c, 0, 60, 64
2, 28800, Note_on_c, 0, 62, 64
2, 28800, Note_on_c, 0, 69, 72
2, 30240, Note_on_c, 0, 69, 0
2, 30240, Note_on_c, 0, 62, 0
2, 30240, Note_on_c, 0, 60, 0
2, 30240, Note_on_c, 0, 55, 53
2, 30240, Note_on_c, 0, 60, 53
2, 30240, Note_on_c, 0, 62, 59
2, 30480, Note_on_c, 0, 62, 0
2, 30480, Note_on_c, 0, 60, 0
2, 30480, Note_on_c, 0, 55, 0
2, 30720, Note_on_c, 0, 55, 55
2, 30720, Note_on_c, 0, 60, 55
2, 30720, Note_on_c, 0, 62, 62
2, 30960, Note_on_c, 0, 62, 0
2, 30960, Note_on_c, 0, 60, 0
2, 30960, Note_on_c, 0, 55, 0
2, 31200, Note_on_c, 0, 55, 58
2, 31200, Note_on_c, 0, 60, 58
2, 31200, Note_on_c, 0, 62, 65
2, 31440, Note_on_c, 0, 62, 0
2, 31440, Note_on_c, 0, 60, 0
2, 31440, Note_on_c, 0, 55, 0
2, 31680, Note_on_c, 0, 55, 63
2, 31680, Note_on_c, 0, 59, 63
2, 31680, Note_on_c, 0, 62, 71
2, 32160, Note_on_c, 0, 62, 0
2, 32160, Note_on_c, 0, 59, 0
2, 32160, Note_on_c, 0, 55, 0
2, 32160, Note_on_c, 0, 55, 72
2, 32160, Note_on_c, 0, 62, 72
2, 32160, Note_on_c, 0, 67, 80
2, 32400, Note_on_c, 0, 67, 0
2, 32400, Note_on_c, 0, 62, 0
2, 32400, Note_on_c, 0, 55, 0
2, 32640, Note_on_c, 0, 57, 66
2, 32640, Note_on_c, 0, 62, 66
2, 32640, Note_on_c, 0, 66, 74
2, 32880, Note_on_c, 0, 66, 0
2, 32880, Note_on_c, 0, 62, 0
2, 32880, Note_on_c, 0, 57, 0
2, 33120, Note_on_c, 0, 59, 65
2, 33120, Note_on_c, 0, 62, 65
2, 33120, Note_on_c, 0, 64, 73
2, 33360, Note_on_c, 0, 64, 0
2, 33360, Note_on_c, 0, 62, 0
2, 33360, Note_on_c, 0, 59, 0
2, 33480, Note_on_c, 0, 59, 68
2, 33480, Note_on_c, 0, 62, 68
2, 33480, Note_on_c, 0, 66, 76
2, 33600, Note_on_c, 0, 66, 0
2, 33600, Note_on_c, 0, 62, 0
2, 33600, Note_on_c, 0, 59, 0
2, 33600, Note_on_c, 0, 59, 80
2, 33600, Note_on_c, 0, 62, 80
2, 33600, Note_on_c, 0, 67, 89
2, 33840, Note_on_c, 0, 67, 0
2, 33840, Note_on_c, 0, 62, 0
2, 33840, Note_on_c, 0, 59, 0
2, 34080, Note_on_c, 0, 55, 61
2, 34080, Note_on_c, 0, 57, 61
2, 34080, Note_on_c, 0, 61, 61
2, 34080, Note_on_c, 0, 64, 68
2, 34560, Note_on_c, 0, 64, 0
2, 34560, Note_on_c, 0, 55, 0
2, 34560, Note_on_c, 0, 57, 0
2, 34560, Note_on_c, 0, 61, 0
2, 34560, Note_on_c, 0, 54, 70
2, 34560, Note_on_c, 0, 57, 70
2, 34560, Note_on_c, 0, 62, 78
2, 35040, Note_on_c, 0, 62, 0
2, 35040, Note_on_c, 0, 57, 0
2, 35040, Note_on_c, 0, 54, 0
2, 35520, Note_on_c, 0, 81, 90
2, 35520, Note_on_c, 0, 73, 81
2, 35520, Note_on_c, 0, 76, 81
2, 36000, Note_on_c, 0, 76, 0
2, 36000, Note_on_c, 0, 73, 0
2, 36000, Note_on_c, 0, 81, 0
2, 36000, Note_on_c, 0, 71, 81
2, 36000, Note_on_c, 0, 76, 81
2, 36000, Note_on_c, 0, 80, 90
2, 36360, Note_on_c, 0, 80, 0
2, 36360, Note_on_c, 0, 76, 0
2, 36360, Note_on_c, 0, 71, 0
2, 36360, Note_on_c, 0, 69, 72
2, 36360, Note_on_c, 0, 75, 72
2, 36360, Note_on_c, 0, 78, 81
2, 36480, Note_on_c, 0, 78, 0
2, 36480, Note_on_c, 0, 75, 0
2, 36480, Note_on_c, 0, 69, 0
2, 36480, Note_on_c, 0, 68, 75
2, 36480, Note_on_c, 0, 73, 75
2, 36480, Note_on_c, 0, 76, 84
2, 36940, Note_on_c, 0, 76, 0
2, 36940, Note_on_c, 0, 73, 0
2, 36940, Note_on_c, 0, 68, 0
2, 36960, Note_on_c, 0, 69, 71
2, 36960, Note_on_c, 0, 73, 71
2, 36960, Note_on_c, 0, 78, 79
2, 37420, Note_on_c, 0, 78, 0
2, 37420, Note_on_c, 0, 73, 0
2, 37420, Note_on_c, 0, 69, 0
2, 37440, Note_on_c, 0, 66, 72
2, 37440, Note_on_c, 0, 71, 72
2, 37440, Note_on_c, 0, 75, 80
2, 37900, Note_on_c, 0, 75, 0
2, 37900, Note_on_c, 0, 71, 0
2, 37900, Note_on_c, 0, 66, 0
2, 37920, Note_on_c, 0, 68, 72
2, 37920, Note_on_c, 0, 71, 72
2, 37920, Note_on_c, 0, 76, 81
2, 38280, Note_on_c, 0, 76, 0
2, 38280, Note_on_c, 0, 71, 0
2, 38280, Note_on_c, 0, 68, 0
2, 38400, Note_on_c, 0, 66, 81
2, 38400, Note_on_c, 0, 71, 72
2, 38400, Note_on_c, 0, 74, 81
2, 38520, Note_on_c, 0, 66, 0
2, 38640, Note_on_c, 0, 64, 81
2, 38760, Note_on_c, 0, 64, 0
2, 38880, Note_on_c, 0, 74, 0
2, 38880, Note_on_c, 0, 71, 0
2, 38880, Note_on_c, 0, 64, 73
2, 38880, Note_on_c, 0, 69, 73
2, 38880, Note_on_c, 0, 73, 82
2, 39240, Note_on_c, 0, 73, 0
2, 39240, Note_on_c, 0, 69, 0
2, 39240, Note_on_c, 0, 64, 0
2, 39240, Note_on_c, 0, 62, 70
2, 39240, Note_on_c, 0, 68, 70
2, 39240, Note_on_c, 0, 71, 78
2, 39360, Note_on_c, 0, 71, 0
2, 39360, Note_on_c, 0, 68, 0
2, 39360, Note_on_c, 0, 62, 0
2, 39360, Note_on_c, 0, 61, 70
2, 39360, Note_on_c, 0, 66, 70
2, 39360, Note_on_c, 0, 69, 78
2, 39820, Note_on_c, 0, 69, 0
2, 39820, Note_on_c, 0, 66, 0
2, 39820, Note_on_c, 0, 61, 0
2, 39840, Note_on_c, 0, 62, 72
2, 39840, Note_on_c, 0, 66, 72
2, 39840, Note_on_c, 0, 71, 81
2, 40300, Note_on_c, 0, 71, 0
2, 40300, Note_on_c, 0, 66, 0
2, 40300, Note_on_c, 0, 62, 0
2, 40320, Note_on_c, 0, 59, 70
2, 40320, Note_on_c, 0, 64, 70
2, 40320, Note_on_c, 0, 68, 78
2, 40780, Note_on_c, 0, 68, 0
2, 40780, Note_on_c, 0, 64, 0
2, 40780, Note_on_c, 0, 59, 0
2, 40800, Note_on_c, 0, 61, 70
2, 40800, Note_on_c, 0, 64, 70
2, 40800, Note_on_c, 0, 69, 78
2, 41160, Note_on_c, 0, 69, 0
2, 41160, Note_on_c, 0, 64, 0
2, 41160, Note_on_c, 0, 61, 0
2, 41280, Note_on_c, 0, 69, 76
2, 41280, Note_on_c, 0, 61, 68
2, 41280, Note_on_c, 0, 64, 68
2, 41760, Note_on_c, 0, 64, 0
2, 41760, Note_on_c, 0, 61, 0
2, 41760, Note_on_c, 0, 69, 0
2, 41760, Note_on_c, 0, 59, 68
2, 41760, Note_on_c, 0, 64, 68
2, 41760, Note_on_c, 0, 68, 76
2, 42120, Note_on_c, 0, 68, 0
2, 42120, Note_on_c, 0, 64, 0
2, 42120, Note_on_c, 0, 59, 0
2, 42120, Note_on_c, 0, 57, 61
2, 42120, Note_on_c, 0, 63, 61
2, 42120, Note_on_c, 0, 66, 68
2, 42240, Note_on_c, 0, 66, 0
2, 42240, Note_on_c, 0, 63, 0
2, 42240, Note_on_c, 0, 57, 0
2, 42240, Note_on_c, 0, 56, 63
2, 42240, Note_on_c, 0, 61, 63
2, 42240, Note_on_c, 0, 64, 71
2, 42700, Note_on_c, 0, 64, 0
2, 42700, Note_on_c, 0, 61, 0
2, 42700, Note_on_c, 0, 56, 0
2, 42720, Note_on_c, 0, 57, 59
2, 42720, Note_on_c, 0, 61, 59
2, 42720, Note_on_c, 0, 66, 66
2, 43180, Note_on_c, 0, 66, 0
2, 43180, Note_on_c, 0, 61, 0
2, 43180, Note_on_c, 0, 57, 0
2, 43200, Note_on_c, 0, 54, 60
2, 43200, Note_on_c, 0, 59, 60
2, 43200, Note_on_c, 0, 63, 67
2, 43660, Note_on_c, 0, 63, 0
2, 43660, Note_on_c, 0, 59, 0
2, 43660, Note_on_c, 0, 54, 0
2, 43680, Note_on_c, 0, 56, 62
2, 43680, Note_on_c, 0, 59, 62
2, 43680, Note_on_c, 0, 64, 69
2, 44040, Note_on_c, 0, 64, 0
2, 44040, Note_on_c, 0, 59, 0
2, 44040, Note_on_c, 0, 56, 0
2, 44160, Note_on_c, 0, 54, 59
2, 44160, Note_on_c, 0, 59, 53
2, 44160, Note_on_c, 0, 62, 59
2, 44280, Note_on_c, 0, 54, 0
2, 44400, Note_on_c, 0, 52, 59
2, 44520, Note_on_c, 0, 52, 0
2, 44640, Note_on_c, 0, 62, 0
2, 44640, Note_on_c, 0, 59, 0
2, 44640, Note_on_c, 0, 52, 54
2, 44640, Note_on_c, 0, 57, 54
2, 44640, Note_on_c, 0, 61, 61
2, 45000, Note_on_c, 0, 61, 0
2, 45000, Note_on_c, 0, 57, 0
2, 45000, Note_on_c, 0, 52, 0
2, 45000, Note_on_c, 0, 50, 45
2, 45000, Note_on_c, 0, 56, 45
2, 45000, Note_on_c, 0, 59, 50
2, 45120, Note_on_c, 0, 59, 0
2, 45120, Note_on_c, 0, 56, 0
2, 45120, Note_on_c, 0, 50, 0
2, 45120, Note_on_c, 0, 49, 48
2, 45120, Note_on_c, 0, 54, 48
2, 45120, Note_on_c, 0, 57, 54
2, 45580, Note_on_c, 0, 57, 0
2, 45580, Note_on_c, 0, 54, 0
2, 45580, Note_on_c, 0, 49, 0
2, 45600, Note_on_c, 0, 50, 49
2, 45600, Note_on_c, 0, 54, 49
2, 45600, Note_on_c, 0, 59, 55
2, 46060, Note_on_c, 0, 59, 0
2, 46060, Note_on_c, 0, 54, 0
2, 46060, Note_on_c, 0, 50, 0
2, 46080, Note_on_c, 0, 47, 42
2, 46080, Note_on_c, 0, 52, 42
2, 46080, Note_on_c, 0, 56, 47
2, 46540, Note_on_c, 0, 56, 0
2, 46540, Note_on_c, 0, 52, 0
2, 46540, Note_on_c, 0, 47, 0
2, 46560, Note_on_c, 0, 49, 38
2, 46560, Note_on_c, 0, 52, 38
2, 46560, Note_on_c, 0, 57, 43
2, 47040, Note_on_c, 0, 57, 0
2, 47040, Note_on_c, 0, 52, 0
2, 47040, Note_on_c, 0, 49, 0
2, 47040, End_track
3, 0, Start_track
3, 0, Title_t, "Piano left"
3, 0, Program_c, 0, 0
3, 0, Control_c, 0, 7, 100
3, 0, Control_c, 0, 10, 64
3, 0, Control_c, 0, 64, 0
3, 959, Control_c, 0, 91, 127
3, 960, Note_on_c, 0, 57, 77
3, 960, Note_on_c, 0, 45, 69
3, 967, Control_c, 0, 64, 127
3, 1080, Note_on_c, 0, 45, 0
3, 1080, Note_on_c, 0, 57, 0
3, 1200, Note_on_c, 0, 61, 77
3, 1200, Note_on_c, 0, 49, 69
3, 1320, Note_on_c, 0, 49, 0
3, 1320, Note_on_c, 0, 61, 0
3, 1440, Note_on_c, 0, 64, 81
3, 1440, Note_on_c, 0, 52, 72
3, 1451, Control_c, 0, 64, 0
3, 1520, Control_c, 0, 64, 127
3, 1800, Note_on_c, 0, 52, 0
3, 1800, Note_on_c, 0, 64, 0
3, 1800, Note_on_c, 0, 60, 68
3, 1800, Note_on_c, 0, 48, 61
3, 1806, Control_c, 0, 64, 0
3, 1920, Note_on_c, 0, 48, 0
3, 1920, Note_on_c, 0, 60, 0
3, 1920, Note_on_c, 0, 49, 65
3, 1920, Note_on_c, 0, 61, 73
3, 2069, Control_c, 0, 64, 127
3, 2380, Note_on_c, 0, 61, 0
3, 2380, Note_on_c, 0, 49, 0
3, 2400, Note_on_c, 0, 45, 63
3, 2400, Note_on_c, 0, 57, 71
3, 2407, Control_c, 0, 64, 0
3, 2463, Control_c, 0, 64, 127
3, 2860, Note_on_c, 0, 57, 0
3, 2860, Note_on_c, 0, 45, 0
3, 2880, Control_c, 0, 64, 0
3, 2880, Note_on_c, 0, 59, 70
3, 2880, Note_on_c, 0, 47, 63
3, 2972, Control_c, 0, 64, 127
3, 3340, Note_on_c, 0, 47, 0
3, 3340, Note_on_c, 0, 59, 0
3, 3360, Note_on_c, 0, 52, 68
3, 3360, Note_on_c, 0, 40, 61
3, 3367, Control_c, 0, 64, 0
3, 3459, Control_c, 0, 64, 127
3, 3685, Control_c, 0, 64, 0
3, 3720, Note_on_c, 0, 40, 0
3, 3720, Note_on_c, 0, 52, 0
3, 3840, Note_on_c, 0, 54, 69
3, 3840, Note_on_c, 0, 42, 62
3, 3896, Control_c, 0, 64, 127
3, 3960, Note_on_c, 0, 42, 0
3, 3960, Note_on_c, 0, 54, 0
3, 4080, Note_on_c, 0, 56, 69
3, 4080, Note_on_c, 0, 44, 62
3, 4200, Note_on_c, 0, 44, 0
3, 4200, Note_on_c, 0, 56, 0
3, 4320, Note_on_c, 0, 57, 73
3, 4320, Note_on_c, 0, 45, 65
3, 4331, Control_c, 0, 64, 0
3, 4423, Control_c, 0, 64, 127
3, 4680, Note_on_c, 0, 45, 0
3, 4680, Note_on_c, 0, 57, 0
3, 4680, Note_on_c, 0, 53, 65
3, 4680, Note_on_c, 0, 41, 58
3, 4691, Control_c, 0, 64, 0
3, 4800, Note_on_c, 0, 41, 0
3, 4800, Note_on_c, 0, 53, 0
3, 4800, Note_on_c, 0, 42, 58
3, 4800, Note_on_c, 0, 54, 65
3, 4949, Control_c, 0, 64, 127
3, 5260, Note_on_c, 0, 54, 0
3, 5260, Note_on_c, 0, 42, 0
3, 5280, Note_on_c, 0, 38, 61
3, 5280, Note_on_c, 0, 50, 68
3, 5291, Control_c, 0, 64, 0
3, 5400, Control_c, 0, 64, 127
3, 5740, Note_on_c, 0, 50, 0
3, 5740, Note_on_c, 0, 38, 0
3, 5760, Control_c, 0, 64, 0
3, 5760, Note_on_c, 0, 52, 64
3, 5760, Note_on_c, 0, 40, 57
3, 5873, Control_c, 0, 64, 127
3, 6220, Note_on_c, 0, 40, 0
3, 6220, Note_on_c, 0, 52, 0
3, 6240, Note_on_c, 0, 45, 64
3, 6240, Note_on_c, 0, 33, 57
3, 6247, Control_c, 0, 64, 0
3, 6311, Control_c, 0, 64, 127
3, 6501, Control_c, 0, 64, 0
3, 6600, Note_on_c, 0, 33, 0
3, 6600, Note_on_c, 0, 45, 0
3, 6720, Note_on_c, 0, 45, 65
3, 6720, Note_on_c, 0, 33, 58
3, 6776, Control_c, 0, 64, 127
3, 6840, Note_on_c, 0, 33, 0
3, 6840, Note_on_c, 0, 45, 0
3, 6960, Note_on_c, 0, 37, 58
3, 6960, Note_on_c, 0, 49, 65
3, 7080, Note_on_c, 0, 49, 0
3, 7080, Note_on_c, 0, 37, 0
3, 7200, Control_c, 0, 64, 0
3, 7200, Note_on_c, 0, 40, 61
3, 7200, Note_on_c, 0, 52, 68
3, 7274, Control_c, 0, 64, 127
3, 7560, Note_on_c, 0, 52, 0
3, 7560, Note_on_c, 0, 40, 0
3, 7560, Note_on_c, 0, 36, 51
3, 7560, Note_on_c, 0, 48, 57
3, 7564, Control_c, 0, 64, 0
3, 7680, Note_on_c, 0, 48, 0
3, 7680, Note_on_c, 0, 36, 0
3, 7680, Note_on_c, 0, 37, 55
3, 7680, Note_on_c, 0, 49, 62
3, 7777, Control_c, 0, 64, 127
3, 8140, Note_on_c, 0, 49, 0
3, 8140, Note_on_c, 0, 37, 0
3, 8160, Note_on_c, 0, 33, 54
3, 8160, Note_on_c, 0, 45, 60
3, 8176, Control_c, 0, 64, 0
3, 8320, Control_c, 0, 64, 127
3, 8620, Note_on_c, 0, 45, 0
3, 8620, Note_on_c, 0, 33, 0
3, 8640, Control_c, 0, 64, 0
3, 8640, Note_on_c, 0, 35, 53
3, 8640, Note_on_c, 0, 47, 59
3, 8704, Control_c, 0, 64, 127
3, 9100, Note_on_c, 0, 47, 0
3, 9100, Note_on_c, 0, 35, 0
3, 9120, Note_on_c, 0, 28, 51
3, 9120, Note_on_c, 0, 40, 57
3, 9139, Control_c, 0, 64, 0
3, 9226, Control_c, 0, 64, 127
3, 9431, Control_c, 0, 64, 0
3, 9480, Note_on_c, 0, 40, 0
3, 9480, Note_on_c, 0, 28, 0
3, 9600, Note_on_c, 0, 42, 54
3, 9600, Note_on_c, 0, 30, 48
3, 9621, Control_c, 0, 64, 127
3, 9720, Note_on_c, 0, 30, 0
3, 9720, Note_on_c, 0, 42, 0
3, 9840, Note_on_c, 0, 32, 48
3, 9840, Note_on_c, 0, 44, 54
3, 9960, Note_on_c, 0, 44, 0
3, 9960, Note_on_c, 0, 32, 0
3, 10080, Control_c, 0, 64, 0
3, 10080, Note_on_c, 0, 33, 57
3, 10080, Note_on_c, 0, 45, 57
3, 10183, Control_c, 0, 64, 127
3, 10440, Note_on_c, 0, 45, 0
3, 10440, Note_on_c, 0, 33, 0
3, 10440, Note_on_c, 0, 29, 43
3, 10440, Note_on_c, 0, 41, 48
3, 10445, Control_c, 0, 64, 0
3, 10560, Note_on_c, 0, 41, 0
3, 10560, Note_on_c, 0, 29, 0
3, 10560, Note_on_c, 0, 30, 43
3, 10560, Note_on_c, 0, 42, 48
3, 10789, Control_c, 0, 64, 127
3, 11020, Note_on_c, 0, 42, 0
3, 11020, Note_on_c, 0, 30, 0
3, 11040, Note_on_c, 0, 26, 44
3, 11040, Note_on_c, 0, 38, 49
3, 11048, Control_c, 0, 64, 0
3, 11229, Control_c, 0, 64, 127
3, 11500, Note_on_c, 0, 38, 0
3, 11500, Note_on_c, 0, 26, 0
3, 11520, Control_c, 0, 64, 0
3, 11520, Note_on_c, 0, 28, 41
3, 11520, Note_on_c, 0, 40, 46
3, 11668, Control_c, 0, 64, 127
3, 11980, Note_on_c, 0, 40, 0
3, 11980, Note_on_c, 0, 28, 0
3, 12000, Note_on_c, 0, 33, 36
3, 12000, Note_on_c, 0, 40, 41
3, 12021, Control_c, 0, 64, 0
3, 12162, Control_c, 0, 64, 127
3, 12304, Control_c, 0, 64, 0
3, 12360, Note_on_c, 0, 40, 0
3, 12360, Note_on_c, 0, 33, 0
3, 12480, Note_on_c, 0, 33, 67
3, 12480, Note_on_c, 0, 45, 75
3, 12600, Note_on_c, 0, 45, 0
3, 12600, Note_on_c, 0, 33, 0
3, 12628, Control_c, 0, 64, 127
3, 12720, Note_on_c, 0, 49, 75
3, 12840, Note_on_c, 0, 49, 0
3, 12889, Control_c, 0, 64, 0
3, 12960, Note_on_c, 0, 38, 81
3, 12960, Note_on_c, 0, 50, 91
3, 13080, Note_on_c, 0, 50, 0
3, 13080, Note_on_c, 0, 38, 0
3, 13200, Note_on_c, 0, 33, 72
3, 13200, Note_on_c, 0, 45, 81
3, 13320, Note_on_c, 0, 45, 0
3, 13320, Note_on_c, 0, 33, 0
3, 13440, Note_on_c, 0, 31, 72
3, 13440, Note_on_c, 0, 43, 81
3, 13560, Note_on_c, 0, 43, 0
3, 13560, Note_on_c, 0, 31, 0
3, 13680, Note_on_c, 0, 30, 72
3, 13680, Note_on_c, 0, 42, 81
3, 13800, Note_on_c, 0, 42, 0
3, 13800, Note_on_c, 0, 30, 0
3, 13920, Note_on_c, 0, 30, 78
3, 13920, Note_on_c, 0, 42, 87
3, 13971, Control_c, 0, 64, 127
3, 14400, Note_on_c, 0, 42, 0
3, 14400, Note_on_c, 0, 30, 0
3, 14400, Control_c, 0, 64, 0
3, 14400, Note_on_c, 0, 38, 81
3, 14400, Note_on_c, 0, 50, 90
3, 14520, Note_on_c, 0, 50, 0
3, 14520, Note_on_c, 0, 38, 0
3, 14640, Note_on_c, 0, 35, 70
3, 14640, Note_on_c, 0, 47, 78
3, 14760, Note_on_c, 0, 47, 0
3, 14760, Note_on_c, 0, 35, 0
3, 14880, Note_on_c, 0, 33, 69
3, 14880, Note_on_c, 0, 45, 77
3, 15000, Note_on_c, 0, 45, 0
3, 15000, Note_on_c, 0, 33, 0
3, 15120, Note_on_c, 0, 31, 69
3, 15120, Note_on_c, 0, 43, 77
3, 15240, Note_on_c, 0, 43, 0
3, 15240, Note_on_c, 0, 31, 0
3, 15360, Note_on_c, 0, 31, 77
3, 15360, Note_on_c, 0, 43, 86
3, 15417, Control_c, 0, 64, 127
3, 15840, Note_on_c, 0, 43, 0
3, 15840, Note_on_c, 0, 31, 0
3, 15840, Control_c, 0, 64, 0
3, 15840, Note_on_c, 0, 33, 78
3, 15840, Note_on_c, 0, 45, 87
3, 15960, Note_on_c, 0, 45, 0
3, 15960, Note_on_c, 0, 33, 0
3, 16080, Note_on_c, 0, 28, 69
3, 16080, Note_on_c, 0, 40, 77
3, 16200, Note_on_c, 0, 40, 0
3, 16200, Note_on_c, 0, 28, 0
3, 16320, Note_on_c, 0, 26, 69
3, 16320, Note_on_c, 0, 38, 77
3, 16440, Note_on_c, 0, 38, 0
3, 16440, Note_on_c, 0, 26, 0
3, 16560, Note_on_c, 0, 25, 69
3, 16560, Note_on_c, 0, 37, 77
3, 16680, Note_on_c, 0, 37, 0
3, 16680, Note_on_c, 0, 25, 0
3, 16800, Note_on_c, 0, 25, 75
3, 16800, Note_on_c, 0, 37, 84
3, 16858, Control_c, 0, 64, 127
3, 17280, Note_on_c, 0, 37, 0
3, 17280, Note_on_c, 0, 25, 0
3, 17280, Control_c, 0, 64, 0
3, 17280, Note_on_c, 0, 38, 81
3, 17280, Note_on_c, 0, 50, 90
3, 17400, Note_on_c, 0, 50, 0
3, 17400, Note_on_c, 0, 38, 0
3, 17520, Note_on_c, 0, 33, 71
3, 17520, Note_on_c, 0, 45, 79
3, 17640, Note_on_c, 0, 45, 0
3, 17640, Note_on_c, 0, 33, 0
3, 17760, Note_on_c, 0, 31, 71
3, 17760, Note_on_c, 0, 43, 79
3, 17880, Note_on_c, 0, 43, 0
3, 17880, Note_on_c, 0, 31, 0
3, 18000, Note_on_c, 0, 30, 71
3, 18000, Note_on_c, 0, 42, 79
3, 18120, Note_on_c, 0, 42, 0
3, 18120, Note_on_c, 0, 30, 0
3, 18240, Note_on_c, 0, 30, 76
3, 18240, Note_on_c, 0, 42, 85
3, 18297, Control_c, 0, 64, 127
3, 18720, Note_on_c, 0, 42, 0
3, 18720, Note_on_c, 0, 30, 0
3, 18720, Control_c, 0, 64, 0
3, 18720, Note_on_c, 0, 31, 64
3, 18720, Note_on_c, 0, 43, 72
3, 18840, Note_on_c, 0, 43, 0
3, 18840, Note_on_c, 0, 31, 0
3, 18960, Note_on_c, 0, 33, 66
3, 18960, Note_on_c, 0, 45, 74
3, 19080, Note_on_c, 0, 45, 0
3, 19080, Note_on_c, 0, 33, 0
3, 19200, Note_on_c, 0, 35, 69
3, 19200, Note_on_c, 0, 47, 77
3, 19320, Note_on_c, 0, 47, 0
3, 19320, Note_on_c, 0, 35, 0
3, 19440, Note_on_c, 0, 36, 71
3, 19440, Note_on_c, 0, 48, 79
3, 19560, Note_on_c, 0, 48, 0
3, 19560, Note_on_c, 0, 36, 0
3, 19680, Note_on_c, 0, 38, 72
3, 19680, Note_on_c, 0, 50, 81
3, 19800, Note_on_c, 0, 50, 0
3, 19800, Note_on_c, 0, 38, 0
3, 19920, Note_on_c, 0, 40, 74
3, 19920, Note_on_c, 0, 52, 83
3, 20040, Note_on_c, 0, 52, 0
3, 20040, Note_on_c, 0, 40, 0
3, 20160, Note_on_c, 0, 38, 77
3, 20160, Note_on_c, 0, 50, 86
3, 20640, Note_on_c, 0, 50, 0
3, 20640, Note_on_c, 0, 38, 0
3, 20640, Note_on_c, 0, 35, 74
3, 20640, Note_on_c, 0, 47, 83
3, 20880, Note_on_c, 0, 47, 0
3, 20880, Note_on_c, 0, 35, 0
3, 21120, Note_on_c, 0, 33, 65
3, 21120, Note_on_c, 0, 45, 73
3, 21360, Note_on_c, 0, 45, 0
3, 21360, Note_on_c, 0, 33, 0
3, 21600, Note_on_c, 0, 31, 66
3, 21600, Note_on_c, 0, 43, 74
3, 21621, Control_c, 0, 64, 127
3, 21840, Note_on_c, 0, 43, 0
3, 21840, Note_on_c, 0, 31, 0
3, 21918, Control_c, 0, 64, 0
3, 21960, Note_on_c, 0, 30, 68
3, 21960, Note_on_c, 0, 42, 76
3, 22080, Note_on_c, 0, 42, 0
3, 22080, Note_on_c, 0, 30, 0
3, 22080, Note_on_c, 0, 28, 79
3, 22080, Note_on_c, 0, 40, 88
3, 22136, Control_c, 0, 64, 127
3, 22320, Note_on_c, 0, 40, 0
3, 22320, Note_on_c, 0, 28, 0
3, 22334, Control_c, 0, 64, 0
3, 22560, Note_on_c, 0, 33, 63
3, 22560, Note_on_c, 0, 45, 70
3, 22616, Control_c, 0, 64, 127
3, 23040, Note_on_c, 0, 45, 0
3, 23040, Note_on_c, 0, 33, 0
3, 23040, Note_on_c, 0, 38, 70
3, 23040, Note_on_c, 0, 50, 78
3, 23042, Control_c, 0, 64, 0
3, 23167, Control_c, 0, 64, 127
3, 23520, Note_on_c, 0, 50, 0
3, 23520, Note_on_c, 0, 38, 0
3, 23527, Control_c, 0, 64, 0
3, 24000, Note_on_c, 0, 33, 67
3, 24000, Note_on_c, 0, 45, 75
3, 24028, Control_c, 0, 64, 127
3, 24120, Note_on_c, 0, 45, 0
3, 24120, Note_on_c, 0, 33, 0
3, 24240, Note_on_c, 0, 49, 75
3, 24360, Note_on_c, 0, 49, 0
3, 24480, Control_c, 0, 64, 0
3, 24480, Note_on_c, 0, 38, 81
3, 24480, Note_on_c, 0, 50, 91
3, 24600, Note_on_c, 0, 50, 0
3, 24600, Note_on_c, 0, 38, 0
3, 24720, Note_on_c, 0, 33, 72
3, 24720, Note_on_c, 0, 45, 81
3, 24840, Note_on_c, 0, 45, 0
3, 24840, Note_on_c, 0, 33, 0
3, 24960, Note_on_c, 0, 31, 72
3, 24960, Note_on_c, 0, 43, 81
3, 25080, Note_on_c, 0, 43, 0
3, 25080, Note_on_c, 0, 31, 0
3, 25200, Note_on_c, 0, 30, 72
3, 25200, Note_on_c, 0, 42, 81
3, 25320, Note_on_c, 0, 42, 0
3, 25320, Note_on_c, 0, 30, 0
3, 25440, Note_on_c, 0, 30, 78
3, 25440, Note_on_c, 0, 42, 87
3, 25480, Control_c, 0, 64, 127
3, 25920, Note_on_c, 0, 42, 0
3, 25920, Note_on_c, 0, 30, 0
3, 25920, Control_c, 0, 64, 0
3, 25920, Note_on_c, 0, 38, 81
3, 25920, Note_on_c, 0, 50, 90
3, 26040, Note_on_c, 0, 50, 0
3, 26040, Note_on_c, 0, 38, 0
3, 26160, Note_on_c, 0, 35, 70
3, 26160, Note_on_c, 0, 47, 78
3, 26280, Note_on_c, 0, 47, 0
3, 26280, Note_on_c, 0, 35, 0
3, 26400, Note_on_c, 0, 33, 69
3, 26400, Note_on_c, 0, 45, 77
3, 26520, Note_on_c, 0, 45, 0
3, 26520, Note_on_c, 0, 33, 0
3, 26640, Note_on_c, 0, 31, 69
3, 26640, Note_on_c, 0, 43, 77
3, 26760, Note_on_c, 0, 43, 0
3, 26760, Note_on_c, 0, 31, 0
3, 26880, Note_on_c, 0, 31, 77
3, 26880, Note_on_c, 0, 43, 86
3, 26931, Control_c, 0, 64, 127
3, 27360, Note_on_c, 0, 43, 0
3, 27360, Note_on_c, 0, 31, 0
3, 27360, Control_c, 0, 64, 0
3, 27360, Note_on_c, 0, 33, 78
3, 27360, Note_on_c, 0, 45, 87
3, 27480, Note_on_c, 0, 45, 0
3, 27480, Note_on_c, 0, 33, 0
3, 27600, Note_on_c, 0, 28, 69
3, 27600, Note_on_c, 0, 40, 77
3, 27720, Note_on_c, 0, 40, 0
3, 27720, Note_on_c, 0, 28, 0
3, 27840, Note_on_c, 0, 26, 69
3, 27840, Note_on_c, 0, 38, 77
3, 27960, Note_on_c, 0, 38, 0
3, 27960, Note_on_c, 0, 26, 0
3, 28080, Note_on_c, 0, 25, 69
3, 28080, Note_on_c, 0, 37, 77
3, 28200, Note_on_c, 0, 37, 0
3, 28200, Note_on_c, 0, 25, 0
3, 28320, Note_on_c, 0, 25, 75
3, 28320, Note_on_c, 0, 37, 84
3, 28372, Control_c, 0, 64, 127
3, 28800, Note_on_c, 0, 37, 0
3, 28800, Note_on_c, 0, 25, 0
3, 28800, Control_c, 0, 64, 0
3, 28800, Note_on_c, 0, 38, 81
3, 28800, Note_on_c, 0, 50, 90
3, 28920, Note_on_c, 0, 50, 0
3, 28920, Note_on_c, 0, 38, 0
3, 29040, Note_on_c, 0, 33, 71
3, 29040, Note_on_c, 0, 45, 79
3, 29160, Note_on_c, 0, 45, 0
3, 29160, Note_on_c, 0, 33, 0
3, 29280, Note_on_c, 0, 31, 71
3, 29280, Note_on_c, 0, 43, 79
3, 29400, Note_on_c, 0, 43, 0
3, 29400, Note_on_c, 0, 31, 0
3, 29520, Note_on_c, 0, 30, 71
3, 29520, Note_on_c, 0, 42, 79
3, 29640, Note_on_c, 0, 42, 0
3, 29640, Note_on_c, 0, 30, 0
3, 29760, Note_on_c, 0, 30, 76
3, 29760, Note_on_c, 0, 42, 85
3, 29829, Control_c, 0, 64, 127
3, 30240, Note_on_c, 0, 42, 0
3, 30240, Note_on_c, 0, 30, 0
3, 30240, Control_c, 0, 64, 0
3, 30240, Note_on_c, 0, 31, 64
3, 30240, Note_on_c, 0, 43, 72
3, 30360, Note_on_c, 0, 43, 0
3, 30360, Note_on_c, 0, 31, 0
3, 30480, Note_on_c, 0, 33, 66
3, 30480, Note_on_c, 0, 45, 74
3, 30600, Note_on_c, 0, 45, 0
3, 30600, Note_on_c, 0, 33, 0
3, 30720, Note_on_c, 0, 35, 69
3, 30720, Note_on_c, 0, 47, 77
3, 30840, Note_on_c, 0, 47, 0
3, 30840, Note_on_c, 0, 35, 0
3, 30960, Note_on_c, 0, 36, 71
3, 30960, Note_on_c, 0, 48, 79
3, 31080, Note_on_c, 0, 48, 0
3, 31080, Note_on_c, 0, 36, 0
3, 31200, Note_on_c, 0, 38, 72
3, 31200, Note_on_c, 0, 50, 81
3, 31320, Note_on_c, 0, 50, 0
3, 31320, Note_on_c, 0, 38, 0
3, 31440, Note_on_c, 0, 40, 74
3, 31440, Note_on_c, 0, 52, 83
3, 31560, Note_on_c, 0, 52, 0
3, 31560, Note_on_c, 0, 40, 0
3, 31680, Note_on_c, 0, 38, 77
3, 31680, Note_on_c, 0, 50, 86
3, 32160, Note_on_c, 0, 50, 0
3, 32160, Note_on_c, 0, 38, 0
3, 32160, Note_on_c, 0, 35, 74
3, 32160, Note_on_c, 0, 47, 83
3, 32400, Note_on_c, 0, 47, 0
3, 32400, Note_on_c, 0, 35, 0
3, 32640, Note_on_c, 0, 33, 65
3, 32640, Note_on_c, 0, 45, 73
3, 32880, Note_on_c, 0, 45, 0
3, 32880, Note_on_c, 0, 33, 0
3, 33120, Note_on_c, 0, 31, 66
3, 33120, Note_on_c, 0, 43, 74
3, 33141, Control_c, 0, 64, 127
3, 33360, Note_on_c, 0, 43, 0
3, 33360, Note_on_c, 0, 31, 0
3, 33473, Control_c, 0, 64, 0
3, 33480, Note_on_c, 0, 30, 68
3, 33480, Note_on_c, 0, 42, 76
3, 33600, Note_on_c, 0, 42, 0
3, 33600, Note_on_c, 0, 30, 0
3, 33600, Note_on_c, 0, 28, 79
3, 33600, Note_on_c, 0, 40, 88
3, 33678, Control_c, 0, 64, 127
3, 33791, Control_c, 0, 64, 0
3, 33840, Note_on_c, 0, 40, 0
3, 33840, Note_on_c, 0, 28, 0
3, 34080, Note_on_c, 0, 33, 63
3, 34080, Note_on_c, 0, 45, 70
3, 34129, Control_c, 0, 64, 127
3, 34560, Note_on_c, 0, 45, 0
3, 34560, Note_on_c, 0, 33, 0
3, 34560, Note_on_c, 0, 38, 70
3, 34560, Note_on_c, 0, 50, 78
3, 34565, Control_c, 0, 64, 0
3, 34645, Control_c, 0, 64, 127
3, 34927, Control_c, 0, 64, 0
3, 35040, Note_on_c, 0, 50, 0
3, 35040, Note_on_c, 0, 38, 0
3, 35520, Note_on_c, 0, 45, 62
3, 35520, Note_on_c, 0, 57, 69
3, 35548, Control_c, 0, 64, 127
3, 35640, Note_on_c, 0, 57, 0
3, 35640, Note_on_c, 0, 45, 0
3, 35760, Note_on_c, 0, 49, 62
3, 35760, Note_on_c, 0, 61, 69
3, 35880, Note_on_c, 0, 61, 0
3, 35880, Note_on_c, 0, 49, 0
3, 36000, Control_c, 0, 64, 0
3, 36000, Note_on_c, 0, 52, 64
3, 36000, Note_on_c, 0, 64, 72
3, 36091, Control_c, 0, 64, 127
3, 36360, Note_on_c, 0, 64, 0
3, 36360, Note_on_c, 0, 52, 0
3, 36360, Note_on_c, 0, 48, 54
3, 36360, Note_on_c, 0, 60, 61
3, 36369, Control_c, 0, 64, 0
3, 36480, Note_on_c, 0, 60, 0
3, 36480, Note_on_c, 0, 48, 0
3, 36480, Note_on_c, 0, 49, 58
3, 36480, Note_on_c, 0, 61, 65
3, 36611, Control_c, 0, 64, 127
3, 36940, Note_on_c, 0, 61, 0
3, 36940, Note_on_c, 0, 49, 0
3, 36960, Note_on_c, 0, 45, 56
3, 36960, Note_on_c, 0, 57, 63
3, 36979, Control_c, 0, 64, 0
3, 37091, Control_c, 0, 64, 127
3, 37420, Note_on_c, 0, 57, 0
3, 37420, Note_on_c, 0, 45, 0
3, 37440, Control_c, 0, 64, 0
3, 37440, Note_on_c, 0, 47, 56
3, 37440, Note_on_c, 0, 59, 63
3, 37560, Control_c, 0, 64, 127
3, 37900, Note_on_c, 0, 59, 0
3, 37900, Note_on_c, 0, 47, 0
3, 37920, Note_on_c, 0, 40, 54
3, 37920, Note_on_c, 0, 52, 61
3, 37938, Control_c, 0, 64, 0
3, 38047, Control_c, 0, 64, 127
3, 38195, Control_c, 0, 64, 0
3, 38280, Note_on_c, 0, 52, 0
3, 38280, Note_on_c, 0, 40, 0
3, 38400, Note_on_c, 0, 42, 55
3, 38400, Note_on_c, 0, 54, 62
3, 38428, Control_c, 0, 64, 127
3, 38520, Note_on_c, 0, 54, 0
3, 38520, Note_on_c, 0, 42, 0
3, 38640, Note_on_c, 0, 44, 55
3, 38640, Note_on_c, 0, 56, 62
3, 38760, Note_on_c, 0, 56, 0
3, 38760, Note_on_c, 0, 44, 0
3, 38880, Control_c, 0, 64, 0
3, 38880, Note_on_c, 0, 45, 58
3, 38880, Note_on_c, 0, 57, 65
3, 38937, Control_c, 0, 64, 127
3, 39240, Note_on_c, 0, 57, 0
3, 39240, Note_on_c, 0, 45, 0
3, 39240, Note_on_c, 0, 41, 52
3, 39240, Note_on_c, 0, 53, 58
3, 39244, Control_c, 0, 64, 0
3, 39360, Note_on_c, 0, 53, 0
3, 39360, Note_on_c, 0, 41, 0
3, 39360, Note_on_c, 0, 42, 52
3, 39360, Note_on_c, 0, 54, 58
3, 39514, Control_c, 0, 64, 127
3, 39820, Note_on_c, 0, 54, 0
3, 39820, Note_on_c, 0, 42, 0
3, 39840, Note_on_c, 0, 38, 54
3, 39840, Note_on_c, 0, 50, 61
3, 39856, Control_c, 0, 64, 0
3, 39960, Control_c, 0, 64, 127
3, 40300, Note_on_c, 0, 50, 0
3, 40300, Note_on_c, 0, 38, 0
3, 40320, Control_c, 0, 64, 0
3, 40320, Note_on_c, 0, 40, 51
3, 40320, Note_on_c, 0, 52, 57
3, 40419, Control_c, 0, 64, 127
3, 40780, Note_on_c, 0, 52, 0
3, 40780, Note_on_c, 0, 40, 0
3, 40800, Note_on_c, 0, 33, 51
3, 40800, Note_on_c, 0, 45, 57
3, 40806, Control_c, 0, 64, 0
3, 40906, Control_c, 0, 64, 127
3, 41026, Control_c, 0, 64, 0
3, 41160, Note_on_c, 0, 45, 0
3, 41160, Note_on_c, 0, 33, 0
3, 41280, Note_on_c, 0, 33, 52
3, 41280, Note_on_c, 0, 45, 58
3, 41294, Control_c, 0, 64, 127
3, 41400, Note_on_c, 0, 45, 0
3, 41400, Note_on_c, 0, 33, 0
3, 41520, Note_on_c, 0, 37, 52
3, 41520, Note_on_c, 0, 49, 58
3, 41640, Note_on_c, 0, 49, 0
3, 41640, Note_on_c, 0, 37, 0
3, 41760, Control_c, 0, 64, 0
3, 41760, Note_on_c, 0, 40, 54
3, 41760, Note_on_c, 0, 52, 61
3, 41852, Control_c, 0, 64, 127
3, 42120, Note_on_c, 0, 52, 0
3, 42120, Note_on_c, 0, 40, 0
3, 42120, Note_on_c, 0, 36, 45
3, 42120, Note_on_c, 0, 48, 51
3, 42128, Control_c, 0, 64, 0
3, 42240, Note_on_c, 0, 48, 0
3, 42240, Note_on_c, 0, 36, 0
3, 42240, Note_on_c, 0, 37, 49
3, 42240, Note_on_c, 0, 49, 55
3, 42389, Control_c, 0, 64, 127
3, 42700, Note_on_c, 0, 49, 0
3, 42700, Note_on_c, 0, 37, 0
3, 42720, Note_on_c, 0, 33, 48
3, 42720, Note_on_c, 0, 45, 54
3, 42733, Control_c, 0, 64, 0
3, 42886, Control_c, 0, 64, 127
3, 43180, Note_on_c, 0, 45, 0
3, 43180, Note_on_c, 0, 33, 0
3, 43200, Control_c, 0, 64, 0
3, 43200, Note_on_c, 0, 35, 47
3, 43200, Note_on_c, 0, 47, 53
3, 43306, Control_c, 0, 64, 127
3, 43660, Note_on_c, 0, 47, 0
3, 43660, Note_on_c, 0, 35, 0
3, 43680, Note_on_c, 0, 28, 45
3, 43680, Note_on_c, 0, 40, 51
3, 43694, Control_c, 0, 64, 0
3, 43828, Control_c, 0, 64, 127
3, 43984, Control_c, 0, 64, 0
3, 44040, Note_on_c, 0, 40, 0
3, 44040, Note_on_c, 0, 28, 0
3, 44160, Note_on_c, 0, 30, 38
3, 44160, Note_on_c, 0, 42, 43
3, 44202, Control_c, 0, 64, 127
3, 44280, Note_on_c, 0, 42, 0
3, 44280, Note_on_c, 0, 30, 0
3, 44400, Note_on_c, 0, 32, 38
3, 44400, Note_on_c, 0, 44, 43
3, 44520, Note_on_c, 0, 44, 0
3, 44520, Note_on_c, 0, 32, 0
3, 44640, Note_on_c, 0, 33, 40
3, 44640, Note_on_c, 0, 45, 45
3, 44657, Control_c, 0, 64, 0
3, 44749, Control_c, 0, 64, 127
3, 45000, Note_on_c, 0, 45, 0
3, 45000, Note_on_c, 0, 33, 0
3, 45000, Note_on_c, 0, 29, 30
3, 45000, Note_on_c, 0, 41, 34
3, 45008, Control_c, 0, 64, 0
3, 45120, Note_on_c, 0, 41, 0
3, 45120, Note_on_c, 0, 29, 0
3, 45120, Note_on_c, 0, 30, 35
3, 45120, Note_on_c, 0, 42, 39
3, 45303, Control_c, 0, 64, 127
3, 45580, Note_on_c, 0, 42, 0
3, 45580, Note_on_c, 0, 30, 0
3, 45600, Note_on_c, 0, 26, 33
3, 45600, Note_on_c, 0, 38, 37
3, 45614, Control_c, 0, 64, 0
3, 45766, Control_c, 0, 64, 127
3, 46060, Note_on_c, 0, 38, 0
3, 46060, Note_on_c, 0, 26, 0
3, 46080, Note_on_c, 0, 28, 29
3, 46080, Note_on_c, 0, 40, 33
3, 46086, Control_c, 0, 64, 0
3, 46267, Control_c, 0, 64, 127
3, 46540, Note_on_c, 0, 40, 0
3, 46540, Note_on_c, 0, 28, 0
3, 46560, Note_on_c, 0, 33, 27
3, 46560, Note_on_c, 0, 40, 30
3, 46573, Control_c, 0, 64, 0
3, 47014, Control_c, 0, 64, 127
3, 47040, Note_on_c, 0, 40, 0
3, 47040, Note_on_c, 0, 33, 0
3, 47520, Control_c, 0, 64, 0
3, 47520, End_track
4, 0, Start_track
4, 0, Title_t, "Schumann: Scenes from Childhood Op. 15"
4, 0, End_track
5, 0, Start_track
5, 0, Title_t, "Copyright © 1997 by Bernd Krueger"
5, 0, End_track
6, 0, Start_track
6, 0, Title_t, "http://www.piano-midi.de"
6, 0, End_track
7, 0, Start_track
7, 0, Title_t, "Edition: 2014-03-26"
7, 0, End_track
0, 0, End_of_file
