0, 0, Header, 1, 8, 480
1, 0, Start_track
1, 0, Title_t, "Kinderszenen Opus 15"
1, 0, Title_t, "Kind im Einschlummern"
1, 0, Copyright_t, "Copyright © 1997 von Bernd Krüger."
1, 0, Text_t, "Robert Schumann"
1, 0, Text_t, "Fertiggestellt am 30.12.97\012"
1, 0, Text_t, "Korrekturen am 4.9.98\012"
1, 0, Text_t, "Anpassungen an Digitalpiano am 1.1.99\012"
1, 0, Text_t, "Update am 9.7.99\012"
1, 0, Text_t, "Updata am 20.7.99\012"
1, 0, Text_t, "Normierung: 23.12.2002\012"
1, 0, Text_t, "Update am 19.10.2008\012"
1, 0, Text_t, "Dauer: 1:23 Minuten\012"
1, 0, Time_signature, 2, 2, 24, 8
1, 0, Key_signature, 1, "major"
1, 0, Tempo, 1276596
1, 0, Marker_t, "In Slumberland"
1, 2400, Tempo, 1318681
1, 2640, Tempo, 1276596
1, 2880, Tempo, 1379310
1, 3000, Tempo, 1304348
1, 3120, Tempo, 1304348
1, 3480, Tempo, 1333333
1, 3600, Tempo, 1379310
1, 3840, Tempo, 1276596
1, 6240, Tempo, 1318681
1, 6480, Tempo, 1276596
1, 6720, Tempo, 1411765
1, 6840, Tempo, 1333333
1, 7320, Tempo, 1395349
1, 7440, Tempo, 1463415
1, 7560, Tempo, 1538462
1, 7680, Key_signature, 4, "major"
1, 7680, Tempo, 1363636
1, 7920, Tempo, 1276596
1, 8160, Tempo, 1395349
1, 8280, Tempo, 1276596
1, 8640, Tempo, 1276596
1, 8880, Tempo, 1250000
1, 9120, Tempo, 1395349
1, 9240, Tempo, 1276596
1, 9600, Tempo, 1318681
1, 9840, Tempo, 1263158
1, 10080, Tempo, 1445783
1, 10200, Tempo, 1333333
1, 10560, Tempo, 1290323
1, 10800, Tempo, 1263158
1, 11040, Tempo, 1445783
1, 11160, Tempo, 1348315
1, 11400, Tempo, 1500000
1, 11520, Tempo, 1276596
1, 11760, Tempo, 1250000
1, 12000, Tempo, 1395349
1, 12120, Tempo, 1276596
1, 12480, Tempo, 1276596
1, 12720, Tempo, 1250000
1, 12960, Tempo, 1395349
1, 13080, Tempo, 1276596
1, 13440, Tempo, 1318681
1, 13680, Tempo, 1263158
1, 13920, Tempo, 1463415
1, 14040, Tempo, 1333333
1, 14400, Tempo, 1290323
1, 14640, Tempo, 1263158
1, 14880, Tempo, 1578947
1, 15000, Tempo, 1348315
1, 15360, Tempo, 1253918
1, 15840, Tempo, 1216298
1, 16080, Tempo, 1216298
1, 16560, Tempo, 1216298
1, 16800, Tempo, 1253918
1, 17760, Tempo, 1216298
1, 18000, Tempo, 1240951
1, 18240, Tempo, 1228753
1, 18340, Tempo, 1240951
1, 18440, Tempo, 1253918
1, 18520, Tempo, 1266357
1, 18620, Tempo, 1279591
1, 18700, Tempo, 1293103
1, 18720, Tempo, 1250000
1, 19680, Tempo, 1290323
1, 19800, Tempo, 1250000
1, 20640, Tempo, 1304348
1, 20760, Tempo, 1379310
1, 21000, Tempo, 1304348
1, 21120, Tempo, 1263158
1, 21600, Tempo, 1348315
1, 21720, Tempo, 1276596
1, 22080, Tempo, 1318681
1, 22320, Tempo, 1411765
1, 22560, Tempo, 1538462
1, 22680, Tempo, 1714286
1, 23040, Key_signature, 1, "major"
1, 23040, Tempo, 1304348
1, 23520, Tempo, 1276596
1, 24960, Tempo, 1304348
1, 25200, Tempo, 1333333
1, 25440, Tempo, 1318681
1, 25560, Tempo, 1363636
1, 25680, Tempo, 1428571
1, 25760, Tempo, 1395349
1, 25800, Tempo, 1395349
1, 25920, Tempo, 1395349
1, 26160, Tempo, 1318681
1, 26400, Tempo, 1348315
1, 26520, Tempo, 1395349
1, 26640, Tempo, 1445783
1, 26760, Tempo, 1428571
1, 26880, Tempo, 1395349
1, 27120, Tempo, 1445783
1, 27240, Tempo, 1538462
1, 27360, Tempo, 1411765
1, 27480, Tempo, 1500000
1, 27600, Tempo, 1600000
1, 27720, Tempo, 1558442
1, 27840, Tempo, 1538462
1, 27960, Tempo, 1643836
1, 28080, Tempo, 2068966
1, 28200, Tempo, 3333333
1, 28320, Tempo, 1276596
1, 30240, Marker_t, "Fine"
1, 30240, End_track
2, 0, Start_track
2, 0, Title_t, "Piano right"
2, 0, Program_c, 0, 0
2, 0, Control_c, 0, 7, 100
2, 0, Control_c, 0, 10, 64
2, 0, Control_c, 0, 91, 127
2, 0, Text_t, "bdca426d104a26ac9dcb070447587523"
2, 480, Note_on_c, 0, 71, 51
2, 720, Note_on_c, 0, 78, 41
2, 830, Note_on_c, 0, 71, 0
2, 840, Note_on_c, 0, 78, 0
2, 840, Note_on_c, 0, 71, 36
2, 960, Note_on_c, 0, 71, 0
2, 960, Note_on_c, 0, 71, 50
2, 1080, Note_on_c, 0, 79, 49
2, 1440, Note_on_c, 0, 79, 0
2, 1440, Note_on_c, 0, 71, 0
2, 1440, Note_on_c, 0, 71, 46
2, 1680, Note_on_c, 0, 78, 37
2, 1790, Note_on_c, 0, 71, 0
2, 1800, Note_on_c, 0, 78, 0
2, 1800, Note_on_c, 0, 71, 30
2, 1920, Note_on_c, 0, 71, 0
2, 1920, Note_on_c, 0, 71, 46
2, 2040, Note_on_c, 0, 79, 41
2, 2400, Note_on_c, 0, 79, 0
2, 2400, Note_on_c, 0, 71, 0
2, 2400, Note_on_c, 0, 71, 40
2, 2640, Note_on_c, 0, 78, 34
2, 2750, Note_on_c, 0, 71, 0
2, 2760, Note_on_c, 0, 78, 0
2, 2760, Note_on_c, 0, 71, 27
2, 2880, Note_on_c, 0, 71, 0
2, 2880, Note_on_c, 0, 71, 39
2, 3000, Note_on_c, 0, 76, 30
2, 3360, Note_on_c, 0, 76, 0
2, 3360, Note_on_c, 0, 71, 0
2, 3360, Note_on_c, 0, 71, 39
2, 3600, Note_on_c, 0, 78, 30
2, 3710, Note_on_c, 0, 71, 0
2, 3720, Note_on_c, 0, 78, 0
2, 3720, Note_on_c, 0, 71, 25
2, 3840, Note_on_c, 0, 71, 0
2, 3840, Control_c, 0, 91, 127
2, 3840, Note_on_c, 0, 71, 48
2, 3960, Note_on_c, 0, 83, 49
2, 4320, Note_on_c, 0, 83, 0
2, 4320, Note_on_c, 0, 71, 0
2, 4320, Note_on_c, 0, 71, 46
2, 4560, Note_on_c, 0, 78, 37
2, 4670, Note_on_c, 0, 71, 0
2, 4680, Note_on_c, 0, 78, 0
2, 4680, Note_on_c, 0, 71, 31
2, 4800, Note_on_c, 0, 71, 0
2, 4800, Note_on_c, 0, 71, 50
2, 4920, Note_on_c, 0, 79, 49
2, 5280, Note_on_c, 0, 79, 0
2, 5280, Note_on_c, 0, 71, 0
2, 5280, Note_on_c, 0, 71, 42
2, 5520, Note_on_c, 0, 78, 37
2, 5630, Note_on_c, 0, 71, 0
2, 5640, Note_on_c, 0, 78, 0
2, 5640, Note_on_c, 0, 71, 30
2, 5760, Note_on_c, 0, 71, 0
2, 5760, Note_on_c, 0, 71, 41
2, 5880, Note_on_c, 0, 79, 39
2, 6240, Note_on_c, 0, 79, 0
2, 6240, Note_on_c, 0, 71, 0
2, 6240, Note_on_c, 0, 71, 39
2, 6480, Note_on_c, 0, 78, 31
2, 6590, Note_on_c, 0, 71, 0
2, 6600, Note_on_c, 0, 78, 0
2, 6600, Note_on_c, 0, 71, 25
2, 6720, Note_on_c, 0, 71, 0
2, 6720, Note_on_c, 0, 71, 38
2, 6840, Note_on_c, 0, 76, 28
2, 7200, Note_on_c, 0, 76, 0
2, 7200, Note_on_c, 0, 71, 0
2, 7200, Note_on_c, 0, 71, 34
2, 7440, Note_on_c, 0, 78, 26
2, 7550, Note_on_c, 0, 71, 0
2, 7560, Note_on_c, 0, 78, 0
2, 7560, Note_on_c, 0, 71, 24
2, 7680, Note_on_c, 0, 71, 0
2, 7680, Note_on_c, 0, 80, 28
2, 7680, Note_on_c, 0, 71, 28
2, 7680, Note_on_c, 0, 76, 28
2, 7680, Note_on_c, 0, 83, 39
2, 8160, Note_on_c, 0, 83, 0
2, 8160, Note_on_c, 0, 80, 0
2, 8160, Note_on_c, 0, 71, 0
2, 8160, Note_on_c, 0, 76, 0
2, 8160, Note_on_c, 0, 71, 40
2, 8160, Note_on_c, 0, 83, 30
2, 8160, Note_on_c, 0, 78, 30
2, 8160, Note_on_c, 0, 75, 30
2, 8160, Note_on_c, 0, 69, 30
2, 8280, Note_on_c, 0, 71, 0
2, 8280, Note_on_c, 0, 80, 42
2, 8520, Note_on_c, 0, 80, 0
2, 8520, Note_on_c, 0, 78, 38
2, 8640, Note_on_c, 0, 78, 0
2, 8640, Note_on_c, 0, 75, 0
2, 8640, Note_on_c, 0, 83, 0
2, 8640, Note_on_c, 0, 78, 0
2, 8640, Note_on_c, 0, 69, 0
2, 8640, Note_on_c, 0, 68, 29
2, 8640, Note_on_c, 0, 71, 29
2, 8640, Note_on_c, 0, 76, 39
2, 9120, Note_on_c, 0, 76, 0
2, 9120, Note_on_c, 0, 71, 0
2, 9120, Note_on_c, 0, 68, 0
2, 9120, Note_on_c, 0, 59, 40
2, 9120, Note_on_c, 0, 57, 29
2, 9120, Note_on_c, 0, 63, 29
2, 9120, Note_on_c, 0, 66, 29
2, 9120, Note_on_c, 0, 71, 29
2, 9240, Note_on_c, 0, 59, 0
2, 9240, Note_on_c, 0, 68, 40
2, 9480, Note_on_c, 0, 68, 0
2, 9480, Note_on_c, 0, 66, 37
2, 9600, Note_on_c, 0, 66, 0
2, 9600, Note_on_c, 0, 66, 0
2, 9600, Note_on_c, 0, 57, 0
2, 9600, Note_on_c, 0, 63, 0
2, 9600, Note_on_c, 0, 71, 0
2, 9600, Note_on_c, 0, 56, 29
2, 9600, Note_on_c, 0, 59, 29
2, 9600, Note_on_c, 0, 64, 38
2, 10080, Note_on_c, 0, 64, 0
2, 10080, Note_on_c, 0, 59, 0
2, 10080, Note_on_c, 0, 56, 0
2, 10080, Note_on_c, 0, 63, 29
2, 10080, Note_on_c, 0, 59, 29
2, 10080, Note_on_c, 0, 54, 36
2, 10200, Note_on_c, 0, 54, 0
2, 10200, Note_on_c, 0, 56, 39
2, 10440, Note_on_c, 0, 56, 0
2, 10440, Note_on_c, 0, 54, 35
2, 10560, Note_on_c, 0, 54, 0
2, 10560, Note_on_c, 0, 59, 0
2, 10560, Note_on_c, 0, 63, 0
2, 10560, Note_on_c, 0, 52, 36
2, 10560, Note_on_c, 0, 58, 25
2, 10560, Note_on_c, 0, 61, 26
2, 10800, Note_on_c, 0, 61, 0
2, 10800, Note_on_c, 0, 63, 33
2, 10920, Note_on_c, 0, 63, 0
2, 10920, Note_on_c, 0, 61, 30
2, 11040, Note_on_c, 0, 61, 0
2, 11040, Note_on_c, 0, 58, 0
2, 11040, Note_on_c, 0, 52, 0
2, 11040, Note_on_c, 0, 51, 27
2, 11040, Note_on_c, 0, 59, 27
2, 11520, Note_on_c, 0, 59, 0
2, 11520, Note_on_c, 0, 51, 0
2, 11520, Note_on_c, 0, 71, 36
2, 11520, Note_on_c, 0, 80, 36
2, 11520, Note_on_c, 0, 76, 36
2, 11520, Note_on_c, 0, 83, 42
2, 12000, Note_on_c, 0, 83, 0
2, 12000, Note_on_c, 0, 71, 0
2, 12000, Note_on_c, 0, 80, 0
2, 12000, Note_on_c, 0, 76, 0
2, 12000, Note_on_c, 0, 71, 40
2, 12000, Note_on_c, 0, 83, 27
2, 12000, Note_on_c, 0, 78, 27
2, 12000, Note_on_c, 0, 75, 27
2, 12000, Note_on_c, 0, 69, 27
2, 12120, Note_on_c, 0, 71, 0
2, 12120, Note_on_c, 0, 80, 42
2, 12360, Note_on_c, 0, 80, 0
2, 12360, Note_on_c, 0, 78, 38
2, 12480, Note_on_c, 0, 78, 0
2, 12480, Note_on_c, 0, 75, 0
2, 12480, Note_on_c, 0, 83, 0
2, 12480, Note_on_c, 0, 78, 0
2, 12480, Note_on_c, 0, 69, 0
2, 12480, Note_on_c, 0, 68, 29
2, 12480, Note_on_c, 0, 71, 29
2, 12480, Note_on_c, 0, 76, 39
2, 12960, Note_on_c, 0, 76, 0
2, 12960, Note_on_c, 0, 71, 0
2, 12960, Note_on_c, 0, 68, 0
2, 12960, Note_on_c, 0, 59, 40
2, 12960, Note_on_c, 0, 57, 29
2, 12960, Note_on_c, 0, 63, 29
2, 12960, Note_on_c, 0, 66, 29
2, 12960, Note_on_c, 0, 71, 29
2, 13080, Note_on_c, 0, 59, 0
2, 13080, Note_on_c, 0, 68, 40
2, 13320, Note_on_c, 0, 68, 0
2, 13320, Note_on_c, 0, 66, 37
2, 13440, Note_on_c, 0, 66, 0
2, 13440, Note_on_c, 0, 66, 0
2, 13440, Note_on_c, 0, 57, 0
2, 13440, Note_on_c, 0, 63, 0
2, 13440, Note_on_c, 0, 71, 0
2, 13440, Note_on_c, 0, 56, 29
2, 13440, Note_on_c, 0, 59, 29
2, 13440, Note_on_c, 0, 64, 38
2, 13920, Note_on_c, 0, 64, 0
2, 13920, Note_on_c, 0, 59, 0
2, 13920, Note_on_c, 0, 56, 0
2, 13920, Note_on_c, 0, 63, 29
2, 13920, Note_on_c, 0, 59, 29
2, 13920, Note_on_c, 0, 54, 36
2, 14040, Note_on_c, 0, 54, 0
2, 14040, Note_on_c, 0, 56, 39
2, 14280, Note_on_c, 0, 56, 0
2, 14280, Note_on_c, 0, 54, 35
2, 14400, Note_on_c, 0, 54, 0
2, 14400, Note_on_c, 0, 59, 0
2, 14400, Note_on_c, 0, 63, 0
2, 14400, Note_on_c, 0, 52, 36
2, 14400, Note_on_c, 0, 58, 25
2, 14400, Note_on_c, 0, 61, 26
2, 14640, Note_on_c, 0, 61, 0
2, 14640, Note_on_c, 0, 63, 30
2, 14760, Note_on_c, 0, 63, 0
2, 14760, Note_on_c, 0, 61, 28
2, 14880, Note_on_c, 0, 61, 0
2, 14880, Note_on_c, 0, 58, 0
2, 14880, Note_on_c, 0, 52, 0
2, 14880, Note_on_c, 0, 51, 25
2, 14880, Note_on_c, 0, 59, 25
2, 15360, Note_on_c, 0, 59, 0
2, 15360, Note_on_c, 0, 51, 0
2, 15360, Control_c, 0, 91, 127
2, 15360, Note_on_c, 0, 62, 37
2, 15360, Note_on_c, 0, 59, 26
2, 15360, Note_on_c, 0, 54, 26
2, 15840, Note_on_c, 0, 62, 0
2, 15840, Note_on_c, 0, 61, 34
2, 16080, Note_on_c, 0, 57, 32
2, 16320, Note_on_c, 0, 61, 0
2, 16320, Note_on_c, 0, 54, 0
2, 16320, Note_on_c, 0, 64, 37
2, 16560, Note_on_c, 0, 57, 0
2, 16560, Note_on_c, 0, 56, 32
2, 16800, Note_on_c, 0, 56, 0
2, 16800, Note_on_c, 0, 59, 0
2, 16800, Note_on_c, 0, 57, 31
2, 16800, Note_on_c, 0, 61, 35
2, 17280, Note_on_c, 0, 61, 0
2, 17280, Note_on_c, 0, 57, 0
2, 17280, Note_on_c, 0, 64, 0
2, 17280, Note_on_c, 0, 61, 34
2, 17280, Note_on_c, 0, 66, 38
2, 17280, Note_on_c, 0, 69, 38
2, 17760, Note_on_c, 0, 69, 0
2, 17760, Note_on_c, 0, 68, 35
2, 18000, Note_on_c, 0, 66, 0
2, 18000, Note_on_c, 0, 64, 34
2, 18240, Note_on_c, 0, 68, 0
2, 18240, Note_on_c, 0, 68, 34
2, 18240, Note_on_c, 0, 70, 44
2, 18480, Note_on_c, 0, 68, 0
2, 18480, Note_on_c, 0, 66, 38
2, 18720, Note_on_c, 0, 61, 0
2, 18720, Note_on_c, 0, 70, 0
2, 18720, Note_on_c, 0, 64, 0
2, 18720, Note_on_c, 0, 63, 31
2, 18720, Note_on_c, 0, 71, 38
2, 19200, Note_on_c, 0, 71, 0
2, 19200, Note_on_c, 0, 63, 0
2, 19200, Note_on_c, 0, 66, 0
2, 19200, Note_on_c, 0, 71, 34
2, 19200, Note_on_c, 0, 64, 34
2, 19680, Note_on_c, 0, 64, 0
2, 19680, Note_on_c, 0, 71, 0
2, 19680, Note_on_c, 0, 64, 29
2, 19680, Note_on_c, 0, 69, 29
2, 20160, Note_on_c, 0, 69, 0
2, 20160, Note_on_c, 0, 64, 0
2, 20160, Note_on_c, 0, 66, 29
2, 20160, Note_on_c, 0, 60, 46
2, 20400, Note_on_c, 0, 60, 0
2, 20400, Note_on_c, 0, 62, 45
2, 20520, Note_on_c, 0, 62, 0
2, 20520, Note_on_c, 0, 60, 42
2, 20640, Note_on_c, 0, 60, 0
2, 20640, Note_on_c, 0, 66, 0
2, 20640, Note_on_c, 0, 67, 29
2, 20640, Note_on_c, 0, 59, 39
2, 20760, Note_on_c, 0, 59, 0
2, 20760, Note_on_c, 0, 64, 37
2, 21000, Note_on_c, 0, 64, 0
2, 21000, Note_on_c, 0, 62, 34
2, 21115, Note_on_c, 0, 62, 0
2, 21120, Note_on_c, 0, 67, 0
2, 21120, Note_on_c, 0, 71, 28
2, 21120, Note_on_c, 0, 64, 28
2, 21600, Note_on_c, 0, 64, 0
2, 21600, Note_on_c, 0, 71, 0
2, 21600, Note_on_c, 0, 64, 26
2, 21600, Note_on_c, 0, 69, 26
2, 22080, Note_on_c, 0, 69, 0
2, 22080, Note_on_c, 0, 64, 0
2, 22080, Note_on_c, 0, 66, 24
2, 22080, Note_on_c, 0, 60, 36
2, 22320, Note_on_c, 0, 60, 0
2, 22320, Note_on_c, 0, 62, 35
2, 22440, Note_on_c, 0, 62, 0
2, 22440, Note_on_c, 0, 60, 34
2, 22560, Note_on_c, 0, 60, 0
2, 22560, Note_on_c, 0, 66, 0
2, 22560, Note_on_c, 0, 71, 26
2, 22560, Note_on_c, 0, 59, 30
2, 22680, Note_on_c, 0, 59, 0
2, 22680, Note_on_c, 0, 67, 29
2, 22920, Note_on_c, 0, 67, 0
2, 22920, Note_on_c, 0, 66, 26
2, 23035, Note_on_c, 0, 66, 0
2, 23040, Note_on_c, 0, 71, 0
2, 23040, Control_c, 0, 91, 127
2, 23520, Note_on_c, 0, 71, 42
2, 23760, Note_on_c, 0, 78, 37
2, 23870, Note_on_c, 0, 71, 0
2, 23880, Note_on_c, 0, 78, 0
2, 23880, Note_on_c, 0, 71, 33
2, 24000, Note_on_c, 0, 71, 0
2, 24000, Note_on_c, 0, 71, 42
2, 24120, Note_on_c, 0, 79, 41
2, 24480, Note_on_c, 0, 79, 0
2, 24480, Note_on_c, 0, 71, 0
2, 24480, Note_on_c, 0, 71, 38
2, 24720, Note_on_c, 0, 78, 33
2, 24830, Note_on_c, 0, 71, 0
2, 24840, Note_on_c, 0, 78, 0
2, 24840, Note_on_c, 0, 71, 25
2, 24960, Note_on_c, 0, 71, 0
2, 24960, Note_on_c, 0, 71, 40
2, 25080, Note_on_c, 0, 83, 41
2, 25440, Note_on_c, 0, 83, 0
2, 25440, Note_on_c, 0, 71, 0
2, 25440, Note_on_c, 0, 72, 37
2, 25680, Note_on_c, 0, 83, 29
2, 25790, Note_on_c, 0, 72, 0
2, 25800, Note_on_c, 0, 83, 0
2, 25800, Note_on_c, 0, 72, 24
2, 25920, Note_on_c, 0, 72, 0
2, 25920, Note_on_c, 0, 72, 27
2, 26040, Note_on_c, 0, 81, 28
2, 26400, Note_on_c, 0, 81, 0
2, 26400, Note_on_c, 0, 72, 0
2, 26400, Note_on_c, 0, 71, 33
2, 26640, Note_on_c, 0, 81, 26
2, 26750, Note_on_c, 0, 71, 0
2, 26760, Note_on_c, 0, 81, 0
2, 26760, Note_on_c, 0, 71, 22
2, 26880, Note_on_c, 0, 71, 0
2, 26880, Note_on_c, 0, 71, 26
2, 27000, Note_on_c, 0, 79, 26
2, 27360, Note_on_c, 0, 79, 0
2, 27360, Note_on_c, 0, 71, 0
2, 27360, Note_on_c, 0, 69, 32
2, 27600, Note_on_c, 0, 79, 25
2, 27710, Note_on_c, 0, 69, 0
2, 27720, Note_on_c, 0, 79, 0
2, 27720, Note_on_c, 0, 69, 21
2, 27840, Note_on_c, 0, 69, 0
2, 27840, Note_on_c, 0, 69, 25
2, 27960, Note_on_c, 0, 78, 26
2, 28320, Note_on_c, 0, 78, 0
2, 28320, Note_on_c, 0, 69, 0
2, 28320, Note_on_c, 0, 69, 20
2, 28320, Note_on_c, 0, 76, 20
2, 30240, Note_on_c, 0, 76, 0
2, 30240, Note_on_c, 0, 69, 0
2, 30240, End_track
3, 0, Start_track
3, 0, Title_t, "Piano left"
3, 0, Program_c, 0, 0
3, 0, Control_c, 0, 7, 100
3, 0, Control_c, 0, 10, 64
3, 0, Control_c, 0, 91, 127
3, 0, Note_on_c, 0, 52, 38
3, 0, Note_on_c, 0, 55, 38
3, 0, Note_on_c, 0, 59, 55
3, 0, Control_c, 0, 64, 0
3, 240, Note_on_c, 0, 59, 0
3, 240, Note_on_c, 0, 60, 50
3, 360, Note_on_c, 0, 60, 0
3, 360, Note_on_c, 0, 59, 50
3, 480, Note_on_c, 0, 59, 0
3, 480, Note_on_c, 0, 55, 0
3, 480, Note_on_c, 0, 52, 0
3, 480, Note_on_c, 0, 51, 33
3, 480, Note_on_c, 0, 59, 53
3, 480, Note_on_c, 0, 54, 33
3, 529, Control_c, 0, 64, 127
3, 600, Note_on_c, 0, 59, 0
3, 600, Note_on_c, 0, 66, 44
3, 960, Note_on_c, 0, 66, 0
3, 960, Note_on_c, 0, 54, 0
3, 960, Note_on_c, 0, 51, 0
3, 960, Control_c, 0, 64, 0
3, 960, Note_on_c, 0, 52, 36
3, 960, Note_on_c, 0, 59, 50
3, 960, Note_on_c, 0, 55, 36
3, 1009, Control_c, 0, 64, 127
3, 1200, Note_on_c, 0, 59, 0
3, 1200, Note_on_c, 0, 60, 50
3, 1320, Note_on_c, 0, 60, 0
3, 1320, Note_on_c, 0, 59, 50
3, 1440, Note_on_c, 0, 59, 0
3, 1440, Note_on_c, 0, 55, 0
3, 1440, Note_on_c, 0, 52, 0
3, 1440, Note_on_c, 0, 51, 29
3, 1440, Note_on_c, 0, 59, 48
3, 1440, Note_on_c, 0, 54, 29
3, 1448, Control_c, 0, 64, 0
3, 1546, Control_c, 0, 64, 127
3, 1560, Note_on_c, 0, 59, 0
3, 1560, Note_on_c, 0, 66, 39
3, 1920, Note_on_c, 0, 66, 0
3, 1920, Note_on_c, 0, 54, 0
3, 1920, Note_on_c, 0, 51, 0
3, 1920, Control_c, 0, 64, 0
3, 1920, Note_on_c, 0, 52, 30
3, 1920, Note_on_c, 0, 59, 41
3, 1920, Note_on_c, 0, 55, 30
3, 2019, Control_c, 0, 64, 127
3, 2160, Note_on_c, 0, 59, 0
3, 2160, Note_on_c, 0, 60, 41
3, 2280, Note_on_c, 0, 60, 0
3, 2280, Note_on_c, 0, 59, 41
3, 2400, Note_on_c, 0, 59, 0
3, 2400, Note_on_c, 0, 55, 0
3, 2400, Note_on_c, 0, 52, 0
3, 2400, Note_on_c, 0, 50, 26
3, 2400, Note_on_c, 0, 54, 26
3, 2400, Note_on_c, 0, 59, 39
3, 2409, Control_c, 0, 64, 0
3, 2464, Control_c, 0, 64, 127
3, 2520, Note_on_c, 0, 59, 0
3, 2520, Note_on_c, 0, 66, 35
3, 2880, Note_on_c, 0, 66, 0
3, 2880, Note_on_c, 0, 54, 0
3, 2880, Note_on_c, 0, 50, 0
3, 2880, Control_c, 0, 64, 0
3, 2880, Note_on_c, 0, 48, 23
3, 2880, Note_on_c, 0, 52, 22
3, 2880, Note_on_c, 0, 59, 37
3, 2936, Control_c, 0, 64, 127
3, 3120, Note_on_c, 0, 59, 0
3, 3120, Note_on_c, 0, 60, 33
3, 3240, Note_on_c, 0, 60, 0
3, 3240, Note_on_c, 0, 59, 34
3, 3360, Note_on_c, 0, 59, 0
3, 3360, Note_on_c, 0, 52, 0
3, 3360, Note_on_c, 0, 48, 0
3, 3360, Note_on_c, 0, 47, 19
3, 3360, Note_on_c, 0, 51, 19
3, 3360, Note_on_c, 0, 59, 36
3, 3374, Control_c, 0, 64, 0
3, 3480, Note_on_c, 0, 59, 0
3, 3480, Control_c, 0, 64, 127
3, 3480, Note_on_c, 0, 66, 31
3, 3791, Control_c, 0, 64, 0
3, 3840, Note_on_c, 0, 66, 0
3, 3840, Note_on_c, 0, 51, 0
3, 3840, Note_on_c, 0, 47, 0
3, 3840, Control_c, 0, 91, 127
3, 3840, Note_on_c, 0, 52, 31
3, 3840, Note_on_c, 0, 59, 47
3, 3840, Note_on_c, 0, 55, 34
3, 3960, Control_c, 0, 64, 127
3, 4080, Note_on_c, 0, 59, 0
3, 4080, Note_on_c, 0, 60, 45
3, 4200, Note_on_c, 0, 60, 0
3, 4200, Note_on_c, 0, 59, 45
3, 4320, Note_on_c, 0, 59, 0
3, 4320, Note_on_c, 0, 55, 0
3, 4320, Note_on_c, 0, 52, 0
3, 4320, Note_on_c, 0, 51, 29
3, 4320, Note_on_c, 0, 54, 29
3, 4320, Note_on_c, 0, 59, 48
3, 4326, Control_c, 0, 64, 0
3, 4376, Control_c, 0, 64, 127
3, 4440, Note_on_c, 0, 59, 0
3, 4440, Note_on_c, 0, 66, 39
3, 4800, Note_on_c, 0, 66, 0
3, 4800, Note_on_c, 0, 54, 0
3, 4800, Note_on_c, 0, 51, 0
3, 4800, Control_c, 0, 64, 0
3, 4800, Note_on_c, 0, 52, 35
3, 4800, Note_on_c, 0, 55, 35
3, 4800, Note_on_c, 0, 59, 48
3, 4864, Control_c, 0, 64, 127
3, 5040, Note_on_c, 0, 59, 0
3, 5040, Note_on_c, 0, 60, 50
3, 5160, Note_on_c, 0, 60, 0
3, 5160, Note_on_c, 0, 59, 50
3, 5280, Note_on_c, 0, 59, 0
3, 5280, Note_on_c, 0, 55, 0
3, 5280, Note_on_c, 0, 52, 0
3, 5280, Note_on_c, 0, 51, 27
3, 5280, Note_on_c, 0, 54, 27
3, 5280, Note_on_c, 0, 59, 45
3, 5286, Control_c, 0, 64, 0
3, 5379, Control_c, 0, 64, 127
3, 5400, Note_on_c, 0, 59, 0
3, 5400, Note_on_c, 0, 66, 39
3, 5760, Note_on_c, 0, 66, 0
3, 5760, Note_on_c, 0, 54, 0
3, 5760, Note_on_c, 0, 51, 0
3, 5760, Control_c, 0, 64, 0
3, 5760, Note_on_c, 0, 52, 29
3, 5760, Note_on_c, 0, 55, 29
3, 5760, Note_on_c, 0, 59, 39
3, 5845, Control_c, 0, 64, 127
3, 6000, Note_on_c, 0, 59, 0
3, 6000, Note_on_c, 0, 60, 37
3, 6120, Note_on_c, 0, 60, 0
3, 6120, Note_on_c, 0, 59, 36
3, 6240, Note_on_c, 0, 59, 0
3, 6240, Note_on_c, 0, 55, 0
3, 6240, Note_on_c, 0, 52, 0
3, 6240, Note_on_c, 0, 54, 25
3, 6240, Note_on_c, 0, 59, 36
3, 6240, Note_on_c, 0, 50, 25
3, 6246, Control_c, 0, 64, 0
3, 6339, Control_c, 0, 64, 127
3, 6360, Note_on_c, 0, 59, 0
3, 6360, Note_on_c, 0, 66, 33
3, 6720, Note_on_c, 0, 66, 0
3, 6720, Note_on_c, 0, 50, 0
3, 6720, Note_on_c, 0, 54, 0
3, 6720, Control_c, 0, 64, 0
3, 6720, Note_on_c, 0, 52, 19
3, 6720, Note_on_c, 0, 59, 34
3, 6720, Note_on_c, 0, 48, 20
3, 6812, Control_c, 0, 64, 127
3, 6960, Note_on_c, 0, 59, 0
3, 6960, Note_on_c, 0, 60, 29
3, 7080, Note_on_c, 0, 60, 0
3, 7080, Note_on_c, 0, 59, 30
3, 7200, Note_on_c, 0, 59, 0
3, 7200, Note_on_c, 0, 48, 0
3, 7200, Note_on_c, 0, 52, 0
3, 7200, Note_on_c, 0, 51, 16
3, 7200, Note_on_c, 0, 59, 30
3, 7200, Note_on_c, 0, 47, 16
3, 7206, Control_c, 0, 64, 0
3, 7256, Control_c, 0, 64, 127
3, 7320, Note_on_c, 0, 59, 0
3, 7320, Note_on_c, 0, 66, 28
3, 7581, Control_c, 0, 64, 0
3, 7680, Note_on_c, 0, 66, 0
3, 7680, Note_on_c, 0, 47, 0
3, 7680, Note_on_c, 0, 51, 0
3, 7680, Note_on_c, 0, 40, 34
3, 7680, Note_on_c, 0, 47, 34
3, 7680, Control_c, 0, 64, 127
3, 7920, Note_on_c, 0, 47, 0
3, 7920, Note_on_c, 0, 49, 40
3, 8040, Note_on_c, 0, 49, 0
3, 8040, Note_on_c, 0, 47, 38
3, 8160, Note_on_c, 0, 47, 0
3, 8160, Note_on_c, 0, 40, 0
3, 8160, Note_on_c, 0, 40, 33
3, 8160, Note_on_c, 0, 47, 38
3, 8167, Control_c, 0, 64, 0
3, 8280, Note_on_c, 0, 47, 0
3, 8280, Note_on_c, 0, 56, 40
3, 8520, Note_on_c, 0, 56, 0
3, 8520, Note_on_c, 0, 54, 36
3, 8640, Note_on_c, 0, 54, 0
3, 8640, Note_on_c, 0, 40, 0
3, 8640, Note_on_c, 0, 40, 33
3, 8640, Note_on_c, 0, 47, 38
3, 8718, Control_c, 0, 64, 127
3, 8880, Note_on_c, 0, 47, 0
3, 8880, Note_on_c, 0, 49, 37
3, 9000, Note_on_c, 0, 49, 0
3, 9000, Note_on_c, 0, 47, 37
3, 9120, Note_on_c, 0, 47, 0
3, 9120, Note_on_c, 0, 40, 0
3, 9120, Note_on_c, 0, 40, 33
3, 9120, Note_on_c, 0, 47, 38
3, 9134, Control_c, 0, 64, 0
3, 9240, Note_on_c, 0, 47, 0
3, 9240, Note_on_c, 0, 56, 38
3, 9480, Note_on_c, 0, 56, 0
3, 9480, Note_on_c, 0, 54, 35
3, 9600, Note_on_c, 0, 54, 0
3, 9600, Note_on_c, 0, 40, 0
3, 9600, Note_on_c, 0, 40, 33
3, 9600, Note_on_c, 0, 47, 38
3, 9678, Control_c, 0, 64, 127
3, 9840, Note_on_c, 0, 47, 0
3, 9840, Note_on_c, 0, 49, 35
3, 9960, Note_on_c, 0, 49, 0
3, 9960, Note_on_c, 0, 47, 35
3, 10080, Note_on_c, 0, 47, 0
3, 10080, Note_on_c, 0, 40, 0
3, 10080, Note_on_c, 0, 47, 33
3, 10080, Note_on_c, 0, 42, 34
3, 10094, Control_c, 0, 64, 0
3, 10200, Note_on_c, 0, 42, 0
3, 10200, Note_on_c, 0, 44, 36
3, 10440, Note_on_c, 0, 44, 0
3, 10440, Note_on_c, 0, 42, 33
3, 10560, Note_on_c, 0, 42, 0
3, 10560, Note_on_c, 0, 47, 0
3, 10560, Note_on_c, 0, 42, 27
3, 11040, Note_on_c, 0, 42, 0
3, 11040, Note_on_c, 0, 30, 33
3, 11040, Note_on_c, 0, 42, 33
3, 11160, Note_on_c, 0, 42, 0
3, 11160, Note_on_c, 0, 30, 0
3, 11160, Note_on_c, 0, 32, 33
3, 11160, Note_on_c, 0, 44, 33
3, 11400, Note_on_c, 0, 44, 0
3, 11400, Note_on_c, 0, 32, 0
3, 11400, Note_on_c, 0, 30, 27
3, 11400, Note_on_c, 0, 42, 27
3, 11520, Note_on_c, 0, 42, 0
3, 11520, Note_on_c, 0, 30, 0
3, 11520, Note_on_c, 0, 28, 36
3, 11520, Note_on_c, 0, 40, 36
3, 11584, Control_c, 0, 64, 127
3, 11760, Note_on_c, 0, 40, 0
3, 11760, Note_on_c, 0, 28, 0
3, 11760, Note_on_c, 0, 49, 38
3, 11880, Note_on_c, 0, 49, 0
3, 11880, Note_on_c, 0, 47, 36
3, 12000, Note_on_c, 0, 47, 0
3, 12000, Note_on_c, 0, 40, 33
3, 12000, Note_on_c, 0, 47, 34
3, 12014, Control_c, 0, 64, 0
3, 12120, Note_on_c, 0, 47, 0
3, 12120, Note_on_c, 0, 56, 40
3, 12360, Note_on_c, 0, 56, 0
3, 12360, Note_on_c, 0, 54, 36
3, 12480, Note_on_c, 0, 54, 0
3, 12480, Note_on_c, 0, 40, 0
3, 12480, Note_on_c, 0, 40, 33
3, 12480, Note_on_c, 0, 47, 38
3, 12529, Control_c, 0, 64, 127
3, 12720, Note_on_c, 0, 47, 0
3, 12720, Note_on_c, 0, 49, 37
3, 12840, Note_on_c, 0, 49, 0
3, 12840, Note_on_c, 0, 47, 36
3, 12960, Note_on_c, 0, 47, 0
3, 12960, Note_on_c, 0, 40, 0
3, 12960, Note_on_c, 0, 40, 33
3, 12960, Note_on_c, 0, 47, 38
3, 12968, Control_c, 0, 64, 0
3, 13080, Note_on_c, 0, 47, 0
3, 13080, Note_on_c, 0, 56, 38
3, 13320, Note_on_c, 0, 56, 0
3, 13320, Note_on_c, 0, 54, 35
3, 13440, Note_on_c, 0, 54, 0
3, 13440, Note_on_c, 0, 40, 0
3, 13440, Note_on_c, 0, 40, 33
3, 13440, Note_on_c, 0, 47, 38
3, 13475, Control_c, 0, 64, 127
3, 13680, Note_on_c, 0, 47, 0
3, 13680, Note_on_c, 0, 49, 35
3, 13800, Note_on_c, 0, 49, 0
3, 13800, Note_on_c, 0, 47, 35
3, 13920, Note_on_c, 0, 47, 0
3, 13920, Note_on_c, 0, 40, 0
3, 13920, Note_on_c, 0, 47, 33
3, 13920, Note_on_c, 0, 42, 34
3, 13927, Control_c, 0, 64, 0
3, 14040, Note_on_c, 0, 42, 0
3, 14040, Note_on_c, 0, 44, 36
3, 14280, Note_on_c, 0, 44, 0
3, 14280, Note_on_c, 0, 42, 33
3, 14400, Note_on_c, 0, 42, 0
3, 14400, Note_on_c, 0, 47, 0
3, 14400, Note_on_c, 0, 42, 27
3, 14880, Note_on_c, 0, 42, 0
3, 14880, Note_on_c, 0, 30, 30
3, 14880, Note_on_c, 0, 42, 30
3, 15000, Note_on_c, 0, 42, 0
3, 15000, Note_on_c, 0, 30, 0
3, 15000, Note_on_c, 0, 32, 30
3, 15000, Note_on_c, 0, 44, 30
3, 15240, Note_on_c, 0, 44, 0
3, 15240, Note_on_c, 0, 32, 0
3, 15240, Note_on_c, 0, 30, 23
3, 15240, Note_on_c, 0, 42, 23
3, 15360, Note_on_c, 0, 42, 0
3, 15360, Note_on_c, 0, 30, 0
3, 15360, Note_on_c, 0, 35, 42
3, 15360, Control_c, 0, 91, 127
3, 15600, Note_on_c, 0, 35, 0
3, 15600, Note_on_c, 0, 37, 35
3, 15720, Note_on_c, 0, 37, 0
3, 15720, Note_on_c, 0, 35, 35
3, 15840, Note_on_c, 0, 35, 0
3, 15840, Note_on_c, 0, 30, 34
3, 15960, Note_on_c, 0, 30, 0
3, 15960, Note_on_c, 0, 42, 34
3, 16200, Note_on_c, 0, 42, 0
3, 16200, Note_on_c, 0, 30, 33
3, 16320, Note_on_c, 0, 30, 0
3, 16320, Note_on_c, 0, 28, 34
3, 16560, Note_on_c, 0, 28, 0
3, 16560, Note_on_c, 0, 30, 34
3, 16680, Note_on_c, 0, 30, 0
3, 16680, Note_on_c, 0, 28, 34
3, 16800, Note_on_c, 0, 28, 0
3, 16800, Note_on_c, 0, 33, 37
3, 16920, Note_on_c, 0, 33, 0
3, 16920, Note_on_c, 0, 45, 40
3, 17160, Note_on_c, 0, 45, 0
3, 17160, Note_on_c, 0, 44, 37
3, 17280, Note_on_c, 0, 44, 0
3, 17280, Note_on_c, 0, 42, 35
3, 17520, Note_on_c, 0, 42, 0
3, 17520, Note_on_c, 0, 44, 34
3, 17640, Note_on_c, 0, 44, 0
3, 17640, Note_on_c, 0, 42, 34
3, 17760, Note_on_c, 0, 42, 0
3, 17760, Note_on_c, 0, 37, 30
3, 17880, Note_on_c, 0, 37, 0
3, 17880, Note_on_c, 0, 49, 33
3, 18120, Note_on_c, 0, 49, 0
3, 18120, Note_on_c, 0, 37, 26
3, 18240, Note_on_c, 0, 37, 0
3, 18240, Note_on_c, 0, 42, 33
3, 18360, Note_on_c, 0, 42, 0
3, 18360, Note_on_c, 0, 54, 37
3, 18600, Note_on_c, 0, 54, 0
3, 18600, Note_on_c, 0, 42, 34
3, 18720, Note_on_c, 0, 42, 0
3, 18720, Note_on_c, 0, 35, 37
3, 18840, Note_on_c, 0, 35, 0
3, 18840, Note_on_c, 0, 47, 41
3, 19080, Note_on_c, 0, 47, 0
3, 19080, Note_on_c, 0, 47, 41
3, 19200, Note_on_c, 0, 47, 0
3, 19200, Note_on_c, 0, 48, 31
3, 19200, Note_on_c, 0, 59, 48
3, 19440, Note_on_c, 0, 59, 0
3, 19440, Note_on_c, 0, 60, 46
3, 19560, Note_on_c, 0, 60, 0
3, 19560, Note_on_c, 0, 59, 45
3, 19680, Note_on_c, 0, 59, 0
3, 19680, Note_on_c, 0, 59, 48
3, 19800, Note_on_c, 0, 59, 0
3, 19800, Note_on_c, 0, 62, 50
3, 20040, Note_on_c, 0, 62, 0
3, 20040, Note_on_c, 0, 60, 44
3, 20160, Note_on_c, 0, 60, 0
3, 20160, Note_on_c, 0, 48, 0
3, 20160, Note_on_c, 0, 59, 34
3, 20160, Note_on_c, 0, 50, 29
3, 20400, Note_on_c, 0, 59, 0
3, 20400, Note_on_c, 0, 57, 29
3, 20640, Note_on_c, 0, 57, 0
3, 20640, Note_on_c, 0, 50, 0
3, 20640, Note_on_c, 0, 55, 33
3, 20760, Note_on_c, 0, 60, 37
3, 21000, Note_on_c, 0, 60, 0
3, 21000, Note_on_c, 0, 59, 34
3, 21120, Note_on_c, 0, 59, 0
3, 21120, Note_on_c, 0, 55, 0
3, 21120, Note_on_c, 0, 48, 29
3, 21120, Note_on_c, 0, 59, 39
3, 21360, Note_on_c, 0, 59, 0
3, 21360, Note_on_c, 0, 60, 33
3, 21480, Note_on_c, 0, 60, 0
3, 21480, Note_on_c, 0, 59, 33
3, 21600, Note_on_c, 0, 59, 0
3, 21600, Note_on_c, 0, 59, 36
3, 21720, Note_on_c, 0, 59, 0
3, 21720, Note_on_c, 0, 62, 38
3, 21960, Note_on_c, 0, 62, 0
3, 21960, Note_on_c, 0, 60, 33
3, 22080, Note_on_c, 0, 60, 0
3, 22080, Note_on_c, 0, 48, 0
3, 22080, Note_on_c, 0, 59, 29
3, 22080, Note_on_c, 0, 50, 24
3, 22320, Note_on_c, 0, 59, 0
3, 22320, Note_on_c, 0, 57, 26
3, 22560, Note_on_c, 0, 57, 0
3, 22560, Note_on_c, 0, 50, 0
3, 22560, Note_on_c, 0, 55, 26
3, 22560, Note_on_c, 0, 51, 29
3, 22680, Note_on_c, 0, 55, 0
3, 22680, Note_on_c, 0, 59, 29
3, 22920, Note_on_c, 0, 59, 0
3, 22920, Note_on_c, 0, 57, 26
3, 23040, Note_on_c, 0, 57, 0
3, 23040, Note_on_c, 0, 51, 0
3, 23040, Control_c, 0, 91, 127
3, 23040, Note_on_c, 0, 52, 31
3, 23040, Note_on_c, 0, 55, 31
3, 23280, Note_on_c, 0, 55, 0
3, 23280, Note_on_c, 0, 60, 40
3, 23400, Note_on_c, 0, 60, 0
3, 23400, Note_on_c, 0, 59, 40
3, 23520, Note_on_c, 0, 59, 0
3, 23520, Note_on_c, 0, 52, 0
3, 23520, Note_on_c, 0, 51, 27
3, 23520, Note_on_c, 0, 54, 27
3, 23520, Note_on_c, 0, 59, 42
3, 23584, Control_c, 0, 64, 127
3, 23640, Note_on_c, 0, 59, 0
3, 23640, Note_on_c, 0, 66, 37
3, 24000, Note_on_c, 0, 66, 0
3, 24000, Note_on_c, 0, 54, 0
3, 24000, Note_on_c, 0, 51, 0
3, 24000, Control_c, 0, 64, 0
3, 24000, Note_on_c, 0, 52, 30
3, 24000, Note_on_c, 0, 55, 30
3, 24000, Note_on_c, 0, 59, 42
3, 24056, Control_c, 0, 64, 127
3, 24240, Note_on_c, 0, 59, 0
3, 24240, Note_on_c, 0, 60, 42
3, 24360, Note_on_c, 0, 60, 0
3, 24360, Note_on_c, 0, 59, 42
3, 24480, Note_on_c, 0, 59, 0
3, 24480, Note_on_c, 0, 55, 0
3, 24480, Note_on_c, 0, 52, 0
3, 24480, Note_on_c, 0, 51, 24
3, 24480, Note_on_c, 0, 54, 24
3, 24480, Note_on_c, 0, 59, 40
3, 24494, Control_c, 0, 64, 0
3, 24565, Control_c, 0, 64, 127
3, 24600, Note_on_c, 0, 59, 0
3, 24600, Note_on_c, 0, 66, 33
3, 24960, Note_on_c, 0, 66, 0
3, 24960, Note_on_c, 0, 54, 0
3, 24960, Note_on_c, 0, 51, 0
3, 24960, Control_c, 0, 64, 0
3, 24960, Note_on_c, 0, 52, 28
3, 24960, Note_on_c, 0, 55, 28
3, 24960, Note_on_c, 0, 59, 38
3, 25024, Control_c, 0, 64, 127
3, 25200, Note_on_c, 0, 59, 0
3, 25200, Note_on_c, 0, 60, 38
3, 25320, Note_on_c, 0, 60, 0
3, 25320, Note_on_c, 0, 59, 37
3, 25440, Note_on_c, 0, 59, 0
3, 25440, Note_on_c, 0, 55, 0
3, 25440, Note_on_c, 0, 52, 0
3, 25440, Note_on_c, 0, 57, 23
3, 25440, Note_on_c, 0, 60, 37
3, 25446, Control_c, 0, 64, 0
3, 25525, Control_c, 0, 64, 127
3, 25560, Note_on_c, 0, 60, 0
3, 25560, Note_on_c, 0, 71, 32
3, 25920, Note_on_c, 0, 71, 0
3, 25920, Note_on_c, 0, 57, 0
3, 25920, Control_c, 0, 64, 0
3, 25920, Note_on_c, 0, 50, 23
3, 25920, Note_on_c, 0, 54, 23
3, 25920, Note_on_c, 0, 60, 32
3, 25969, Control_c, 0, 64, 127
3, 26160, Note_on_c, 0, 60, 0
3, 26160, Note_on_c, 0, 62, 29
3, 26280, Note_on_c, 0, 62, 0
3, 26280, Note_on_c, 0, 60, 29
3, 26400, Note_on_c, 0, 60, 0
3, 26400, Note_on_c, 0, 54, 0
3, 26400, Note_on_c, 0, 50, 0
3, 26400, Note_on_c, 0, 55, 22
3, 26400, Note_on_c, 0, 59, 31
3, 26421, Control_c, 0, 64, 0
3, 26499, Control_c, 0, 64, 127
3, 26520, Note_on_c, 0, 59, 0
3, 26520, Note_on_c, 0, 69, 31
3, 26880, Note_on_c, 0, 69, 0
3, 26880, Note_on_c, 0, 55, 0
3, 26880, Control_c, 0, 64, 0
3, 26880, Note_on_c, 0, 48, 22
3, 26880, Note_on_c, 0, 52, 22
3, 26880, Note_on_c, 0, 59, 31
3, 26944, Control_c, 0, 64, 127
3, 27120, Note_on_c, 0, 59, 0
3, 27120, Note_on_c, 0, 60, 28
3, 27240, Note_on_c, 0, 60, 0
3, 27240, Note_on_c, 0, 59, 28
3, 27360, Note_on_c, 0, 59, 0
3, 27360, Note_on_c, 0, 52, 0
3, 27360, Note_on_c, 0, 48, 0
3, 27360, Note_on_c, 0, 54, 22
3, 27360, Note_on_c, 0, 57, 30
3, 27367, Control_c, 0, 64, 0
3, 27438, Control_c, 0, 64, 127
3, 27480, Note_on_c, 0, 57, 0
3, 27480, Note_on_c, 0, 67, 28
3, 27840, Note_on_c, 0, 67, 0
3, 27840, Note_on_c, 0, 54, 0
3, 27840, Control_c, 0, 64, 0
3, 27840, Note_on_c, 0, 47, 21
3, 27840, Note_on_c, 0, 51, 21
3, 27840, Note_on_c, 0, 57, 27
3, 27925, Control_c, 0, 64, 127
3, 28080, Note_on_c, 0, 57, 0
3, 28080, Note_on_c, 0, 59, 25
3, 28200, Note_on_c, 0, 59, 0
3, 28200, Note_on_c, 0, 57, 24
3, 28320, Note_on_c, 0, 51, 0
3, 28320, Note_on_c, 0, 47, 0
3, 28320, Note_on_c, 0, 60, 20
3, 28320, Note_on_c, 0, 52, 20
3, 28327, Control_c, 0, 64, 0
3, 28440, Control_c, 0, 64, 127
3, 29760, Note_on_c, 0, 45, 14
3, 30240, Note_on_c, 0, 45, 0
3, 30240, Note_on_c, 0, 57, 0
3, 30240, Note_on_c, 0, 60, 0
3, 30240, Note_on_c, 0, 52, 0
3, 31254, Control_c, 0, 64, 0
3, 31254, End_track
4, 0, Start_track
4, 0, Title_t, "Schumann: Scenes from Childhood Op. 15"
4, 0, End_track
5, 0, Start_track
5, 0, Title_t, "Copyright © 1997 by Bernd Krueger"
5, 0, End_track
6, 0, Start_track
6, 0, Title_t, "http://www.piano-midi.de"
6, 0, End_track
7, 0, Start_track
7, 0, Title_t, "Edition: 2008-10-19"
7, 0, End_track
8, 0, Start_track
8, 0, Title_t, "Spur 7"
8, 0, End_track
0, 0, End_of_file
