0, 0, Header, 1, 17, 480
1, 0, Start_track
1, 0, Title_t, "Schumann: Knecht Ruprecht aus  Album für die Jugend Opus 68"
1, 0, Copyright_t, "Copyright © 2008 by Bernd Krueger"
1, 0, Text_t, "Robert Schumann"
1, 0, Text_t, "Erstellt: 29.10.2008\012"
1, 0, Text_t, "Update am 28.3.2014\012"
1, 0, Text_t, "Dauer: 1:49 Minuten\012"
1, 0, Time_signature, 2, 2, 24, 8
1, 0, Key_signature, 0, "major"
1, 0, Tempo, 476190
1, 480, Tempo, 476190
1, 960, Tempo, 468750
1, 1200, Tempo, 489796
1, 1440, Tempo, 465116
1, 1680, Tempo, 489796
1, 1920, Tempo, 466926
1, 2160, Tempo, 487805
1, 2400, Tempo, 478088
1, 2640, Tempo, 528634
1, 2880, Tempo, 487805
1, 3120, Tempo, 555556
1, 3360, Tempo, 495868
1, 3840, Tempo, 476190
1, 4320, Tempo, 476190
1, 4800, Tempo, 468750
1, 5040, Tempo, 489796
1, 5280, Tempo, 465116
1, 5520, Tempo, 489796
1, 5760, Tempo, 461538
1, 6000, Tempo, 487805
1, 6240, Tempo, 472441
1, 6480, Tempo, 528634
1, 6720, Tempo, 487805
1, 6960, Tempo, 555556
1, 7200, Tempo, 504202
1, 7700, Tempo, 476190
1, 8180, Tempo, 476190
1, 8660, Tempo, 468750
1, 8900, Tempo, 489796
1, 9140, Tempo, 465116
1, 9380, Tempo, 489796
1, 9620, Tempo, 466926
1, 9860, Tempo, 487805
1, 10100, Tempo, 478088
1, 10340, Tempo, 528634
1, 10560, Tempo, 508475
1, 10820, Tempo, 555556
1, 11040, Tempo, 515021
1, 11160, Tempo, 512821
1, 11520, Tempo, 481928
1, 11540, Tempo, 476190
1, 12020, Tempo, 476190
1, 12500, Tempo, 468750
1, 12740, Tempo, 489796
1, 12980, Tempo, 465116
1, 13220, Tempo, 489796
1, 13460, Tempo, 466926
1, 13700, Tempo, 487805
1, 13920, Tempo, 472441
1, 14160, Tempo, 528634
1, 14420, Tempo, 487805
1, 14640, Tempo, 563380
1, 14900, Tempo, 481928
1, 15000, Tempo, 508475
1, 15360, Tempo, 480000
1, 15840, Tempo, 474308
1, 16320, Tempo, 468750
1, 16560, Tempo, 489796
1, 16800, Tempo, 465116
1, 17040, Tempo, 489796
1, 17280, Tempo, 466926
1, 17520, Tempo, 487805
1, 17760, Tempo, 478088
1, 18000, Tempo, 528634
1, 18480, Tempo, 504202
1, 18720, Tempo, 500000
1, 18960, Tempo, 517241
1, 19200, Tempo, 487805
1, 19560, Tempo, 524017
1, 19680, Tempo, 476190
1, 20040, Tempo, 502092
1, 20160, Tempo, 468750
1, 20400, Tempo, 506329
1, 20640, Tempo, 465116
1, 20880, Tempo, 489796
1, 21120, Tempo, 466926
1, 21360, Tempo, 487805
1, 21600, Tempo, 478088
1, 21840, Tempo, 566038
1, 22080, Tempo, 500000
1, 22320, Tempo, 597015
1, 22560, Tempo, 508475
1, 23040, Tempo, 481928
1, 23060, Tempo, 476190
1, 23540, Tempo, 476190
1, 24020, Tempo, 468750
1, 24260, Tempo, 489796
1, 24500, Tempo, 465116
1, 24740, Tempo, 489796
1, 24980, Tempo, 466926
1, 25220, Tempo, 487805
1, 25460, Tempo, 478088
1, 25700, Tempo, 528634
1, 25940, Tempo, 487805
1, 26180, Tempo, 555556
1, 26420, Tempo, 481928
1, 26520, Tempo, 504202
1, 26880, Tempo, 481928
1, 26900, Tempo, 476190
1, 27380, Tempo, 476190
1, 27600, Tempo, 493827
1, 27860, Tempo, 468750
1, 28100, Tempo, 489796
1, 28340, Tempo, 465116
1, 28580, Tempo, 489796
1, 28800, Tempo, 476190
1, 28820, Tempo, 466926
1, 29060, Tempo, 487805
1, 29300, Tempo, 478088
1, 29540, Tempo, 528634
1, 29780, Tempo, 487805
1, 30000, Tempo, 563380
1, 30240, Tempo, 508475
1, 30260, Tempo, 481928
1, 30360, Tempo, 521739
1, 30719, Tempo, 481928
1, 30815, Tempo, 480000
1, 30911, Tempo, 478088
1, 31007, Tempo, 476190
1, 31103, Tempo, 474308
1, 31199, Tempo, 472441
1, 31200, Tempo, 476190
1, 31680, Tempo, 468750
1, 31920, Tempo, 489796
1, 32160, Tempo, 465116
1, 32400, Tempo, 489796
1, 32640, Tempo, 466926
1, 32880, Tempo, 487805
1, 33120, Tempo, 478088
1, 33360, Tempo, 528634
1, 33840, Tempo, 504202
1, 34080, Tempo, 489796
1, 34320, Tempo, 521739
1, 34560, Tempo, 487805
1, 34920, Tempo, 524017
1, 35040, Tempo, 476190
1, 35400, Tempo, 502092
1, 35520, Tempo, 468750
1, 35760, Tempo, 512821
1, 36000, Tempo, 465116
1, 36240, Tempo, 489796
1, 36480, Tempo, 466926
1, 36720, Tempo, 487805
1, 36960, Tempo, 478088
1, 37200, Tempo, 585366
1, 37440, Tempo, 500000
1, 37680, Tempo, 597015
1, 37920, Tempo, 576923
1, 38389, Tempo, 502092
1, 38400, Key_signature, -1, "major"
1, 38446, Tempo, 500000
1, 38485, Tempo, 497925
1, 38523, Tempo, 495868
1, 38561, Tempo, 493827
1, 38600, Tempo, 491803
1, 38638, Tempo, 489796
1, 38696, Tempo, 487805
1, 38734, Tempo, 485830
1, 38773, Tempo, 483871
1, 38811, Tempo, 481928
1, 38849, Tempo, 480000
1, 38888, Tempo, 478088
1, 39000, Tempo, 506329
1, 39120, Tempo, 481928
1, 39240, Tempo, 502092
1, 39360, Tempo, 480000
1, 39720, Tempo, 519481
1, 39840, Tempo, 481928
1, 40200, Tempo, 521739
1, 40289, Tempo, 487805
1, 40405, Tempo, 485830
1, 40501, Tempo, 483871
1, 40597, Tempo, 481928
1, 40693, Tempo, 480000
1, 40789, Tempo, 478088
1, 40920, Tempo, 506329
1, 41040, Tempo, 481928
1, 41160, Tempo, 502092
1, 41280, Tempo, 480000
1, 41640, Tempo, 519481
1, 41760, Tempo, 481928
1, 41802, Tempo, 476190
1, 41840, Tempo, 478088
1, 41860, Tempo, 480000
1, 41879, Tempo, 481928
1, 41898, Tempo, 483871
1, 41917, Tempo, 485830
1, 41936, Tempo, 487805
1, 41956, Tempo, 489796
1, 41994, Tempo, 491803
1, 42013, Tempo, 493827
1, 42032, Tempo, 495868
1, 42052, Tempo, 497925
1, 42071, Tempo, 500000
1, 42090, Tempo, 502092
1, 42109, Tempo, 504202
1, 42128, Tempo, 506329
1, 42240, Tempo, 480000
1, 42244, Tempo, 491803
1, 42301, Tempo, 489796
1, 42340, Tempo, 487805
1, 42378, Tempo, 485830
1, 42416, Tempo, 483871
1, 42455, Tempo, 481928
1, 42493, Tempo, 480000
1, 42532, Tempo, 478088
1, 42570, Tempo, 476190
1, 42608, Tempo, 474308
1, 42840, Tempo, 506329
1, 42960, Tempo, 481928
1, 43080, Tempo, 502092
1, 43200, Tempo, 480000
1, 43560, Tempo, 519481
1, 43680, Tempo, 481928
1, 44040, Tempo, 521739
1, 44160, Tempo, 480000
1, 44760, Tempo, 506329
1, 44880, Tempo, 481928
1, 45000, Tempo, 502092
1, 45120, Tempo, 480000
1, 45480, Tempo, 519481
1, 45584, Tempo, 485830
1, 45642, Tempo, 487805
1, 45680, Tempo, 489796
1, 45738, Tempo, 491803
1, 45776, Tempo, 493827
1, 45834, Tempo, 495868
1, 45872, Tempo, 497925
1, 45911, Tempo, 500000
1, 45960, Tempo, 521739
1, 46080, Tempo, 480000
1, 46088, Tempo, 493827
1, 46165, Tempo, 491803
1, 46222, Tempo, 489796
1, 46280, Tempo, 487805
1, 46357, Tempo, 485830
1, 46414, Tempo, 483871
1, 46472, Tempo, 481928
1, 46529, Tempo, 480000
1, 46680, Tempo, 506329
1, 46800, Tempo, 481928
1, 46920, Tempo, 502092
1, 47040, Tempo, 480000
1, 47400, Tempo, 519481
1, 47520, Tempo, 481928
1, 47880, Tempo, 521739
1, 47989, Tempo, 493827
1, 48065, Tempo, 491803
1, 48123, Tempo, 489796
1, 48200, Tempo, 487805
1, 48257, Tempo, 485830
1, 48334, Tempo, 483871
1, 48392, Tempo, 481928
1, 48469, Tempo, 480000
1, 48526, Tempo, 478088
1, 48584, Tempo, 476190
1, 48600, Tempo, 506329
1, 48720, Tempo, 481928
1, 48840, Tempo, 502092
1, 48960, Tempo, 480000
1, 49320, Tempo, 519481
1, 49440, Tempo, 481928
1, 49482, Tempo, 476190
1, 49520, Tempo, 478088
1, 49540, Tempo, 480000
1, 49559, Tempo, 481928
1, 49578, Tempo, 483871
1, 49597, Tempo, 485830
1, 49616, Tempo, 487805
1, 49636, Tempo, 489796
1, 49674, Tempo, 491803
1, 49693, Tempo, 493827
1, 49712, Tempo, 495868
1, 49732, Tempo, 497925
1, 49751, Tempo, 500000
1, 49770, Tempo, 502092
1, 49800, Tempo, 519481
1, 49901, Tempo, 502092
1, 49920, Tempo, 500000
1, 49939, Tempo, 495868
1, 49959, Tempo, 493827
1, 49978, Tempo, 489796
1, 49997, Tempo, 487805
1, 50016, Tempo, 483871
1, 50020, Tempo, 487805
1, 50058, Tempo, 485830
1, 50096, Tempo, 483871
1, 50135, Tempo, 481928
1, 50173, Tempo, 480000
1, 50212, Tempo, 478088
1, 50250, Tempo, 476190
1, 50288, Tempo, 474308
1, 50520, Tempo, 506329
1, 50640, Tempo, 481928
1, 50760, Tempo, 502092
1, 50880, Tempo, 480000
1, 51240, Tempo, 519481
1, 51360, Tempo, 481928
1, 51720, Tempo, 521739
1, 51840, Tempo, 480000
1, 52440, Tempo, 506329
1, 52560, Tempo, 481928
1, 52680, Tempo, 502092
1, 52800, Tempo, 480000
1, 53160, Tempo, 519481
1, 53264, Tempo, 485830
1, 53322, Tempo, 487805
1, 53360, Tempo, 489796
1, 53418, Tempo, 491803
1, 53456, Tempo, 493827
1, 53514, Tempo, 495868
1, 53552, Tempo, 497925
1, 53591, Tempo, 500000
1, 53640, Tempo, 521739
1, 53760, Tempo, 485830
1, 54000, Tempo, 481928
1, 54600, Tempo, 506329
1, 54720, Tempo, 485830
1, 55560, Tempo, 528634
1, 55680, Tempo, 481928
1, 55920, Tempo, 476190
1, 56520, Tempo, 502092
1, 56640, Tempo, 480000
1, 57480, Tempo, 560748
1, 57600, Tempo, 480000
1, 58111, Tempo, 485830
1, 58245, Tempo, 483871
1, 58380, Tempo, 481928
1, 58495, Tempo, 480000
1, 58629, Tempo, 478088
1, 58744, Tempo, 476190
1, 58879, Tempo, 474308
1, 58994, Tempo, 472441
1, 59090, Tempo, 472441
1, 59167, Tempo, 474308
1, 59244, Tempo, 476190
1, 59320, Tempo, 478088
1, 59397, Tempo, 480000
1, 59474, Tempo, 481928
1, 59512, Tempo, 478088
1, 59800, Tempo, 476190
1, 60069, Tempo, 474308
1, 60376, Tempo, 502092
1, 60492, Tempo, 474308
1, 60933, Tempo, 470588
1, 61048, Tempo, 472441
1, 61144, Tempo, 474308
1, 61232, Tempo, 478088
1, 61268, Tempo, 481928
1, 61287, Tempo, 491803
1, 61307, Tempo, 504202
1, 61326, Tempo, 517241
1, 61345, Tempo, 528634
1, 61364, Tempo, 542986
1, 61383, Tempo, 558140
1, 61403, Tempo, 574163
1, 61405, Tempo, 500000
1, 61463, Tempo, 497925
1, 61501, Tempo, 495868
1, 61559, Tempo, 493827
1, 61597, Tempo, 491803
1, 61655, Tempo, 489796
1, 61693, Tempo, 487805
1, 61751, Tempo, 485830
1, 61789, Tempo, 483871
1, 61847, Tempo, 481928
1, 61885, Tempo, 480000
1, 61923, Tempo, 478088
1, 62040, Tempo, 506329
1, 62160, Tempo, 481928
1, 62280, Tempo, 502092
1, 62400, Tempo, 480000
1, 62760, Tempo, 519481
1, 62880, Tempo, 481928
1, 63240, Tempo, 521739
1, 63360, Tempo, 480000
1, 63960, Tempo, 506329
1, 64080, Tempo, 481928
1, 64200, Tempo, 502092
1, 64320, Tempo, 480000
1, 64680, Tempo, 519481
1, 64800, Tempo, 481928
1, 65160, Tempo, 521739
1, 65280, Tempo, 480000
1, 65791, Tempo, 485830
1, 65925, Tempo, 483871
1, 66060, Tempo, 481928
1, 66175, Tempo, 480000
1, 66309, Tempo, 478088
1, 66424, Tempo, 476190
1, 66559, Tempo, 474308
1, 66674, Tempo, 472441
1, 66770, Tempo, 472441
1, 66847, Tempo, 474308
1, 66924, Tempo, 476190
1, 67000, Tempo, 478088
1, 67077, Tempo, 480000
1, 67150, Tempo, 485830
1, 67208, Tempo, 483871
1, 67265, Tempo, 481928
1, 67304, Tempo, 480000
1, 67361, Tempo, 478088
1, 67419, Tempo, 476190
1, 67457, Tempo, 474308
1, 67920, Tempo, 594059
1, 68160, Tempo, 519481
1, 69120, Tempo, 485830
1, 69360, Tempo, 481928
1, 69960, Tempo, 506329
1, 70080, Tempo, 485830
1, 70920, Tempo, 528634
1, 71040, Tempo, 481928
1, 71280, Tempo, 476190
1, 71880, Tempo, 502092
1, 72000, Tempo, 480000
1, 72840, Tempo, 515021
1, 72960, Tempo, 480000
1, 73471, Tempo, 485830
1, 73605, Tempo, 483871
1, 73740, Tempo, 481928
1, 73855, Tempo, 480000
1, 73989, Tempo, 478088
1, 74104, Tempo, 476190
1, 74239, Tempo, 474308
1, 74354, Tempo, 472441
1, 74450, Tempo, 472441
1, 74527, Tempo, 474308
1, 74604, Tempo, 476190
1, 74680, Tempo, 478088
1, 74757, Tempo, 480000
1, 74834, Tempo, 481928
1, 74872, Tempo, 478088
1, 75160, Tempo, 476190
1, 75429, Tempo, 474308
1, 75736, Tempo, 502092
1, 75852, Tempo, 474308
1, 76293, Tempo, 470588
1, 76408, Tempo, 472441
1, 76504, Tempo, 474308
1, 76592, Tempo, 478088
1, 76631, Tempo, 480000
1, 76650, Tempo, 481928
1, 76669, Tempo, 483871
1, 76688, Tempo, 485830
1, 76707, Tempo, 487805
1, 76727, Tempo, 489796
1, 76746, Tempo, 491803
1, 76765, Tempo, 500000
1, 76823, Tempo, 497925
1, 76861, Tempo, 495868
1, 76919, Tempo, 493827
1, 76957, Tempo, 491803
1, 77015, Tempo, 489796
1, 77053, Tempo, 487805
1, 77111, Tempo, 485830
1, 77149, Tempo, 483871
1, 77207, Tempo, 481928
1, 77245, Tempo, 480000
1, 77283, Tempo, 478088
1, 77400, Tempo, 506329
1, 77520, Tempo, 481928
1, 77640, Tempo, 502092
1, 77760, Tempo, 480000
1, 78120, Tempo, 519481
1, 78240, Tempo, 481928
1, 78600, Tempo, 521739
1, 78720, Tempo, 480000
1, 79320, Tempo, 506329
1, 79440, Tempo, 481928
1, 79560, Tempo, 502092
1, 79680, Tempo, 480000
1, 80040, Tempo, 519481
1, 80160, Tempo, 481928
1, 80520, Tempo, 574163
1, 80640, Tempo, 480000
1, 81151, Tempo, 485830
1, 81285, Tempo, 483871
1, 81420, Tempo, 481928
1, 81535, Tempo, 480000
1, 81669, Tempo, 478088
1, 81784, Tempo, 476190
1, 81919, Tempo, 474308
1, 82034, Tempo, 472441
1, 82130, Tempo, 472441
1, 82207, Tempo, 474308
1, 82284, Tempo, 476190
1, 82360, Tempo, 478088
1, 82437, Tempo, 480000
1, 82510, Tempo, 485830
1, 82568, Tempo, 483871
1, 82625, Tempo, 481928
1, 82664, Tempo, 480000
1, 82721, Tempo, 478088
1, 82779, Tempo, 476190
1, 82817, Tempo, 474308
1, 83280, Tempo, 594059
1, 83520, Tempo, 519481
1, 84000, Tempo, 621762
1, 84480, Key_signature, 0, "major"
1, 84480, Tempo, 476190
1, 84960, Tempo, 476190
1, 85440, Tempo, 468750
1, 85680, Tempo, 489796
1, 85920, Tempo, 465116
1, 86160, Tempo, 489796
1, 86400, Tempo, 466926
1, 86640, Tempo, 487805
1, 86880, Tempo, 478088
1, 87120, Tempo, 528634
1, 87360, Tempo, 487805
1, 87600, Tempo, 555556
1, 87840, Tempo, 508475
1, 88320, Tempo, 476190
1, 88800, Tempo, 476190
1, 89280, Tempo, 468750
1, 89520, Tempo, 489796
1, 89760, Tempo, 465116
1, 90000, Tempo, 489796
1, 90240, Tempo, 466926
1, 90480, Tempo, 487805
1, 90720, Tempo, 478088
1, 90960, Tempo, 528634
1, 91200, Tempo, 487805
1, 91440, Tempo, 555556
1, 91680, Tempo, 508475
1, 92180, Tempo, 476190
1, 92660, Tempo, 476190
1, 93140, Tempo, 468750
1, 93380, Tempo, 489796
1, 93620, Tempo, 465116
1, 93840, Tempo, 510638
1, 94100, Tempo, 466926
1, 94340, Tempo, 487805
1, 94580, Tempo, 478088
1, 94820, Tempo, 528634
1, 95060, Tempo, 487805
1, 95300, Tempo, 555556
1, 95520, Tempo, 519481
1, 96000, Tempo, 481928
1, 96020, Tempo, 476190
1, 96500, Tempo, 476190
1, 96980, Tempo, 468750
1, 97220, Tempo, 489796
1, 97460, Tempo, 465116
1, 97680, Tempo, 508475
1, 97940, Tempo, 466926
1, 98180, Tempo, 487805
1, 98420, Tempo, 478088
1, 98660, Tempo, 528634
1, 98900, Tempo, 487805
1, 99120, Tempo, 563380
1, 99360, Tempo, 526316
1, 99840, Tempo, 476190
1, 100320, Tempo, 476190
1, 100800, Tempo, 468750
1, 101040, Tempo, 489796
1, 101280, Tempo, 465116
1, 101520, Tempo, 489796
1, 101760, Tempo, 466926
1, 102000, Tempo, 487805
1, 102240, Tempo, 478088
1, 102480, Tempo, 528634
1, 102960, Tempo, 504202
1, 103200, Tempo, 491803
1, 103440, Tempo, 526316
1, 103680, Tempo, 487805
1, 104040, Tempo, 524017
1, 104160, Tempo, 476190
1, 104520, Tempo, 535714
1, 104640, Tempo, 478088
1, 104880, Tempo, 489796
1, 105120, Tempo, 468750
1, 105360, Tempo, 489796
1, 105600, Tempo, 470588
1, 105840, Tempo, 506329
1, 106080, Tempo, 485830
1, 106320, Tempo, 615385
1, 106560, Tempo, 508475
1, 106800, Tempo, 597015
1, 107040, Tempo, 481928
1, 107040, End_track
2, 0, Start_track
2, 0, Title_t, "Piano right"
2, 0, Program_c, 0, 0
2, 0, Note_on_c, 0, 45, 77
2, 120, Note_on_c, 0, 45, 0
2, 120, Note_on_c, 0, 47, 69
2, 240, Note_on_c, 0, 47, 0
2, 240, Note_on_c, 0, 45, 74
2, 360, Note_on_c, 0, 45, 0
2, 360, Note_on_c, 0, 47, 69
2, 480, Note_on_c, 0, 47, 0
2, 480, Note_on_c, 0, 48, 78
2, 600, Note_on_c, 0, 48, 0
2, 600, Note_on_c, 0, 47, 69
2, 720, Note_on_c, 0, 47, 0
2, 720, Note_on_c, 0, 48, 77
2, 840, Note_on_c, 0, 48, 0
2, 840, Note_on_c, 0, 47, 69
2, 960, Note_on_c, 0, 47, 0
2, 960, Note_on_c, 0, 45, 80
2, 1200, Note_on_c, 0, 45, 0
2, 1200, Note_on_c, 0, 47, 69
2, 1320, Note_on_c, 0, 47, 0
2, 1440, Note_on_c, 0, 48, 79
2, 1680, Note_on_c, 0, 48, 0
2, 1680, Note_on_c, 0, 52, 69
2, 1800, Note_on_c, 0, 52, 0
2, 1920, Note_on_c, 0, 57, 79
2, 2160, Note_on_c, 0, 57, 0
2, 2160, Note_on_c, 0, 59, 69
2, 2280, Note_on_c, 0, 59, 0
2, 2400, Note_on_c, 0, 60, 79
2, 2640, Note_on_c, 0, 60, 0
2, 2640, Note_on_c, 0, 64, 69
2, 2760, Note_on_c, 0, 64, 0
2, 2880, Note_on_c, 0, 64, 62
2, 2880, Note_on_c, 0, 68, 62
2, 2880, Note_on_c, 0, 71, 74
2, 3108, Note_on_c, 0, 71, 0
2, 3108, Note_on_c, 0, 68, 0
2, 3108, Note_on_c, 0, 64, 0
2, 3120, Note_on_c, 0, 64, 59
2, 3120, Note_on_c, 0, 68, 59
2, 3120, Note_on_c, 0, 71, 70
2, 3348, Note_on_c, 0, 71, 0
2, 3348, Note_on_c, 0, 68, 0
2, 3348, Note_on_c, 0, 64, 0
2, 3360, Note_on_c, 0, 64, 68
2, 3360, Note_on_c, 0, 69, 68
2, 3360, Note_on_c, 0, 72, 80
2, 3840, Note_on_c, 0, 72, 0
2, 3840, Note_on_c, 0, 69, 0
2, 3840, Note_on_c, 0, 64, 0
2, 3840, Note_on_c, 0, 45, 77
2, 3960, Note_on_c, 0, 45, 0
2, 3960, Note_on_c, 0, 47, 69
2, 4080, Note_on_c, 0, 47, 0
2, 4080, Note_on_c, 0, 45, 74
2, 4200, Note_on_c, 0, 45, 0
2, 4200, Note_on_c, 0, 47, 69
2, 4320, Note_on_c, 0, 47, 0
2, 4320, Note_on_c, 0, 48, 78
2, 4440, Note_on_c, 0, 48, 0
2, 4440, Note_on_c, 0, 47, 69
2, 4560, Note_on_c, 0, 47, 0
2, 4560, Note_on_c, 0, 48, 77
2, 4680, Note_on_c, 0, 48, 0
2, 4680, Note_on_c, 0, 47, 69
2, 4800, Note_on_c, 0, 47, 0
2, 4800, Note_on_c, 0, 45, 80
2, 5040, Note_on_c, 0, 45, 0
2, 5040, Note_on_c, 0, 47, 69
2, 5160, Note_on_c, 0, 47, 0
2, 5280, Note_on_c, 0, 48, 79
2, 5513, Note_on_c, 0, 52, 69
2, 5520, Note_on_c, 0, 48, 0
2, 5633, Note_on_c, 0, 52, 0
2, 5760, Note_on_c, 0, 57, 79
2, 6000, Note_on_c, 0, 57, 0
2, 6000, Note_on_c, 0, 59, 69
2, 6120, Note_on_c, 0, 59, 0
2, 6240, Note_on_c, 0, 60, 79
2, 6480, Note_on_c, 0, 60, 0
2, 6480, Note_on_c, 0, 64, 69
2, 6600, Note_on_c, 0, 64, 0
2, 6720, Note_on_c, 0, 64, 62
2, 6720, Note_on_c, 0, 68, 62
2, 6720, Note_on_c, 0, 71, 74
2, 6948, Note_on_c, 0, 71, 0
2, 6948, Note_on_c, 0, 68, 0
2, 6948, Note_on_c, 0, 64, 0
2, 6960, Note_on_c, 0, 64, 59
2, 6960, Note_on_c, 0, 68, 59
2, 6960, Note_on_c, 0, 71, 70
2, 7188, Note_on_c, 0, 71, 0
2, 7188, Note_on_c, 0, 68, 0
2, 7188, Note_on_c, 0, 64, 0
2, 7200, Note_on_c, 0, 69, 82
2, 7680, Note_on_c, 0, 69, 0
2, 7680, Note_on_c, 0, 58, 77
2, 7800, Note_on_c, 0, 58, 0
2, 7800, Note_on_c, 0, 57, 69
2, 7920, Note_on_c, 0, 57, 0
2, 7920, Note_on_c, 0, 58, 74
2, 8040, Note_on_c, 0, 58, 0
2, 8040, Note_on_c, 0, 57, 69
2, 8160, Note_on_c, 0, 57, 0
2, 8160, Note_on_c, 0, 55, 78
2, 8280, Note_on_c, 0, 55, 0
2, 8280, Note_on_c, 0, 57, 69
2, 8400, Note_on_c, 0, 57, 0
2, 8400, Note_on_c, 0, 55, 77
2, 8520, Note_on_c, 0, 55, 0
2, 8520, Note_on_c, 0, 57, 69
2, 8640, Note_on_c, 0, 57, 0
2, 8640, Note_on_c, 0, 58, 80
2, 8880, Note_on_c, 0, 58, 0
2, 8880, Note_on_c, 0, 55, 69
2, 9000, Note_on_c, 0, 55, 0
2, 9120, Note_on_c, 0, 55, 79
2, 9360, Note_on_c, 0, 55, 0
2, 9360, Note_on_c, 0, 52, 69
2, 9480, Note_on_c, 0, 52, 0
2, 9600, Note_on_c, 0, 67, 67
2, 9600, Note_on_c, 0, 70, 79
2, 9840, Note_on_c, 0, 70, 0
2, 9840, Note_on_c, 0, 67, 0
2, 9840, Note_on_c, 0, 64, 58
2, 9840, Note_on_c, 0, 67, 69
2, 9960, Note_on_c, 0, 67, 0
2, 9960, Note_on_c, 0, 64, 0
2, 10080, Note_on_c, 0, 64, 67
2, 10080, Note_on_c, 0, 67, 79
2, 10320, Note_on_c, 0, 67, 0
2, 10320, Note_on_c, 0, 64, 0
2, 10320, Note_on_c, 0, 64, 69
2, 10320, Note_on_c, 0, 61, 58
2, 10440, Note_on_c, 0, 61, 0
2, 10440, Note_on_c, 0, 64, 0
2, 10560, Note_on_c, 0, 64, 74
2, 10560, Note_on_c, 0, 61, 62
2, 10560, Note_on_c, 0, 57, 62
2, 10788, Note_on_c, 0, 57, 0
2, 10788, Note_on_c, 0, 61, 0
2, 10788, Note_on_c, 0, 64, 0
2, 10800, Note_on_c, 0, 64, 70
2, 10800, Note_on_c, 0, 61, 59
2, 10800, Note_on_c, 0, 57, 59
2, 11028, Note_on_c, 0, 57, 0
2, 11028, Note_on_c, 0, 61, 0
2, 11028, Note_on_c, 0, 64, 0
2, 11040, Note_on_c, 0, 65, 80
2, 11040, Note_on_c, 0, 62, 68
2, 11040, Note_on_c, 0, 57, 68
2, 11520, Note_on_c, 0, 57, 0
2, 11520, Note_on_c, 0, 62, 0
2, 11520, Note_on_c, 0, 65, 0
2, 11520, Note_on_c, 0, 60, 77
2, 11640, Note_on_c, 0, 60, 0
2, 11640, Note_on_c, 0, 59, 69
2, 11760, Note_on_c, 0, 59, 0
2, 11760, Note_on_c, 0, 60, 74
2, 11880, Note_on_c, 0, 60, 0
2, 11880, Note_on_c, 0, 59, 69
2, 12000, Note_on_c, 0, 59, 0
2, 12000, Note_on_c, 0, 57, 78
2, 12120, Note_on_c, 0, 57, 0
2, 12120, Note_on_c, 0, 59, 69
2, 12240, Note_on_c, 0, 59, 0
2, 12240, Note_on_c, 0, 57, 77
2, 12360, Note_on_c, 0, 57, 0
2, 12360, Note_on_c, 0, 59, 69
2, 12480, Note_on_c, 0, 59, 0
2, 12480, Note_on_c, 0, 60, 80
2, 12720, Note_on_c, 0, 60, 0
2, 12720, Note_on_c, 0, 57, 69
2, 12840, Note_on_c, 0, 57, 0
2, 12960, Note_on_c, 0, 57, 79
2, 13200, Note_on_c, 0, 57, 0
2, 13200, Note_on_c, 0, 54, 69
2, 13320, Note_on_c, 0, 54, 0
2, 13440, Note_on_c, 0, 69, 67
2, 13440, Note_on_c, 0, 72, 79
2, 13680, Note_on_c, 0, 72, 0
2, 13680, Note_on_c, 0, 69, 0
2, 13680, Note_on_c, 0, 66, 58
2, 13680, Note_on_c, 0, 69, 69
2, 13800, Note_on_c, 0, 69, 0
2, 13800, Note_on_c, 0, 66, 0
2, 13920, Note_on_c, 0, 66, 67
2, 13920, Note_on_c, 0, 69, 79
2, 14160, Note_on_c, 0, 69, 0
2, 14160, Note_on_c, 0, 66, 0
2, 14160, Note_on_c, 0, 66, 69
2, 14160, Note_on_c, 0, 63, 58
2, 14280, Note_on_c, 0, 63, 0
2, 14280, Note_on_c, 0, 66, 0
2, 14400, Note_on_c, 0, 66, 74
2, 14400, Note_on_c, 0, 63, 74
2, 14640, Note_on_c, 0, 63, 0
2, 14640, Note_on_c, 0, 66, 0
2, 14640, Note_on_c, 0, 66, 70
2, 14640, Note_on_c, 0, 63, 70
2, 14880, Note_on_c, 0, 63, 0
2, 14880, Note_on_c, 0, 66, 0
2, 14880, Note_on_c, 0, 68, 80
2, 14880, Note_on_c, 0, 64, 68
2, 14880, Note_on_c, 0, 59, 68
2, 15360, Note_on_c, 0, 59, 0
2, 15360, Note_on_c, 0, 64, 0
2, 15360, Note_on_c, 0, 68, 0
2, 15360, Note_on_c, 0, 57, 84
2, 15480, Note_on_c, 0, 57, 0
2, 15480, Note_on_c, 0, 59, 75
2, 15600, Note_on_c, 0, 59, 0
2, 15600, Note_on_c, 0, 57, 81
2, 15720, Note_on_c, 0, 57, 0
2, 15720, Note_on_c, 0, 59, 75
2, 15840, Note_on_c, 0, 59, 0
2, 15840, Note_on_c, 0, 60, 85
2, 15960, Note_on_c, 0, 60, 0
2, 15960, Note_on_c, 0, 59, 75
2, 16080, Note_on_c, 0, 59, 0
2, 16080, Note_on_c, 0, 60, 84
2, 16200, Note_on_c, 0, 60, 0
2, 16200, Note_on_c, 0, 59, 75
2, 16320, Note_on_c, 0, 59, 0
2, 16320, Note_on_c, 0, 57, 88
2, 16560, Note_on_c, 0, 57, 0
2, 16560, Note_on_c, 0, 59, 75
2, 16680, Note_on_c, 0, 59, 0
2, 16800, Note_on_c, 0, 60, 86
2, 17040, Note_on_c, 0, 60, 0
2, 17040, Note_on_c, 0, 64, 75
2, 17160, Note_on_c, 0, 64, 0
2, 17280, Note_on_c, 0, 69, 86
2, 17520, Note_on_c, 0, 69, 0
2, 17520, Note_on_c, 0, 71, 75
2, 17640, Note_on_c, 0, 71, 0
2, 17760, Note_on_c, 0, 72, 86
2, 18000, Note_on_c, 0, 72, 0
2, 18000, Note_on_c, 0, 76, 75
2, 18120, Note_on_c, 0, 76, 0
2, 18240, Note_on_c, 0, 64, 73
2, 18240, Note_on_c, 0, 68, 73
2, 18240, Note_on_c, 0, 71, 86
2, 18468, Note_on_c, 0, 71, 0
2, 18468, Note_on_c, 0, 68, 0
2, 18468, Note_on_c, 0, 64, 0
2, 18480, Note_on_c, 0, 64, 68
2, 18480, Note_on_c, 0, 68, 68
2, 18480, Note_on_c, 0, 71, 81
2, 18708, Note_on_c, 0, 71, 0
2, 18708, Note_on_c, 0, 68, 0
2, 18708, Note_on_c, 0, 64, 0
2, 18720, Note_on_c, 0, 64, 68
2, 18720, Note_on_c, 0, 69, 68
2, 18720, Note_on_c, 0, 72, 81
2, 18948, Note_on_c, 0, 72, 0
2, 18948, Note_on_c, 0, 69, 0
2, 18948, Note_on_c, 0, 64, 0
2, 18960, Note_on_c, 0, 64, 72
2, 18960, Note_on_c, 0, 67, 72
2, 18960, Note_on_c, 0, 69, 72
2, 18960, Note_on_c, 0, 73, 85
2, 19188, Note_on_c, 0, 73, 0
2, 19188, Note_on_c, 0, 64, 0
2, 19188, Note_on_c, 0, 67, 0
2, 19188, Note_on_c, 0, 69, 0
2, 19200, Note_on_c, 0, 65, 77
2, 19200, Note_on_c, 0, 69, 77
2, 19200, Note_on_c, 0, 74, 91
2, 19680, Note_on_c, 0, 74, 0
2, 19680, Note_on_c, 0, 69, 0
2, 19680, Note_on_c, 0, 65, 0
2, 19680, Note_on_c, 0, 65, 81
2, 19800, Note_on_c, 0, 65, 0
2, 19800, Note_on_c, 0, 64, 72
2, 19920, Note_on_c, 0, 64, 0
2, 19920, Note_on_c, 0, 65, 80
2, 20040, Note_on_c, 0, 65, 0
2, 20040, Note_on_c, 0, 64, 72
2, 20160, Note_on_c, 0, 64, 0
2, 20160, Note_on_c, 0, 62, 84
2, 20400, Note_on_c, 0, 62, 0
2, 20400, Note_on_c, 0, 64, 72
2, 20520, Note_on_c, 0, 64, 0
2, 20640, Note_on_c, 0, 65, 82
2, 20880, Note_on_c, 0, 65, 0
2, 20880, Note_on_c, 0, 69, 72
2, 21000, Note_on_c, 0, 69, 0
2, 21120, Note_on_c, 0, 74, 82
2, 21360, Note_on_c, 0, 74, 0
2, 21360, Note_on_c, 0, 76, 72
2, 21480, Note_on_c, 0, 76, 0
2, 21600, Note_on_c, 0, 77, 82
2, 21840, Note_on_c, 0, 77, 0
2, 21840, Note_on_c, 0, 81, 72
2, 21960, Note_on_c, 0, 81, 0
2, 22080, Note_on_c, 0, 71, 71
2, 22080, Note_on_c, 0, 76, 71
2, 22080, Note_on_c, 0, 80, 85
2, 22308, Note_on_c, 0, 80, 0
2, 22308, Note_on_c, 0, 76, 0
2, 22308, Note_on_c, 0, 71, 0
2, 22320, Note_on_c, 0, 71, 67
2, 22320, Note_on_c, 0, 76, 67
2, 22320, Note_on_c, 0, 80, 80
2, 22548, Note_on_c, 0, 80, 0
2, 22548, Note_on_c, 0, 76, 0
2, 22548, Note_on_c, 0, 71, 0
2, 22560, Note_on_c, 0, 72, 77
2, 22560, Note_on_c, 0, 76, 77
2, 22560, Note_on_c, 0, 81, 92
2, 23040, Note_on_c, 0, 81, 0
2, 23040, Note_on_c, 0, 76, 0
2, 23040, Note_on_c, 0, 72, 0
2, 23040, Note_on_c, 0, 58, 77
2, 23160, Note_on_c, 0, 58, 0
2, 23160, Note_on_c, 0, 57, 69
2, 23280, Note_on_c, 0, 57, 0
2, 23280, Note_on_c, 0, 58, 74
2, 23400, Note_on_c, 0, 58, 0
2, 23400, Note_on_c, 0, 57, 69
2, 23520, Note_on_c, 0, 57, 0
2, 23520, Note_on_c, 0, 55, 78
2, 23640, Note_on_c, 0, 55, 0
2, 23640, Note_on_c, 0, 57, 69
2, 23760, Note_on_c, 0, 57, 0
2, 23760, Note_on_c, 0, 55, 77
2, 23880, Note_on_c, 0, 55, 0
2, 23880, Note_on_c, 0, 57, 69
2, 24000, Note_on_c, 0, 57, 0
2, 24000, Note_on_c, 0, 58, 80
2, 24240, Note_on_c, 0, 58, 0
2, 24240, Note_on_c, 0, 55, 69
2, 24360, Note_on_c, 0, 55, 0
2, 24480, Note_on_c, 0, 55, 79
2, 24720, Note_on_c, 0, 55, 0
2, 24720, Note_on_c, 0, 52, 69
2, 24840, Note_on_c, 0, 52, 0
2, 24960, Note_on_c, 0, 67, 67
2, 24960, Note_on_c, 0, 70, 79
2, 25200, Note_on_c, 0, 70, 0
2, 25200, Note_on_c, 0, 67, 0
2, 25200, Note_on_c, 0, 64, 58
2, 25200, Note_on_c, 0, 67, 69
2, 25320, Note_on_c, 0, 67, 0
2, 25320, Note_on_c, 0, 64, 0
2, 25440, Note_on_c, 0, 64, 67
2, 25440, Note_on_c, 0, 67, 79
2, 25680, Note_on_c, 0, 67, 0
2, 25680, Note_on_c, 0, 64, 0
2, 25680, Note_on_c, 0, 64, 69
2, 25680, Note_on_c, 0, 61, 58
2, 25800, Note_on_c, 0, 61, 0
2, 25800, Note_on_c, 0, 64, 0
2, 25920, Note_on_c, 0, 64, 74
2, 25920, Note_on_c, 0, 61, 62
2, 25920, Note_on_c, 0, 57, 62
2, 26148, Note_on_c, 0, 57, 0
2, 26148, Note_on_c, 0, 61, 0
2, 26148, Note_on_c, 0, 64, 0
2, 26160, Note_on_c, 0, 64, 70
2, 26160, Note_on_c, 0, 61, 59
2, 26160, Note_on_c, 0, 57, 59
2, 26388, Note_on_c, 0, 57, 0
2, 26388, Note_on_c, 0, 61, 0
2, 26388, Note_on_c, 0, 64, 0
2, 26400, Note_on_c, 0, 65, 80
2, 26400, Note_on_c, 0, 62, 68
2, 26400, Note_on_c, 0, 57, 68
2, 26880, Note_on_c, 0, 57, 0
2, 26880, Note_on_c, 0, 62, 0
2, 26880, Note_on_c, 0, 65, 0
2, 26880, Note_on_c, 0, 60, 77
2, 27000, Note_on_c, 0, 60, 0
2, 27000, Note_on_c, 0, 59, 69
2, 27120, Note_on_c, 0, 59, 0
2, 27120, Note_on_c, 0, 60, 74
2, 27240, Note_on_c, 0, 60, 0
2, 27240, Note_on_c, 0, 59, 69
2, 27360, Note_on_c, 0, 59, 0
2, 27360, Note_on_c, 0, 57, 78
2, 27480, Note_on_c, 0, 57, 0
2, 27480, Note_on_c, 0, 59, 69
2, 27600, Note_on_c, 0, 59, 0
2, 27600, Note_on_c, 0, 57, 77
2, 27720, Note_on_c, 0, 57, 0
2, 27720, Note_on_c, 0, 59, 69
2, 27840, Note_on_c, 0, 59, 0
2, 27840, Note_on_c, 0, 60, 80
2, 28080, Note_on_c, 0, 60, 0
2, 28080, Note_on_c, 0, 57, 69
2, 28200, Note_on_c, 0, 57, 0
2, 28320, Note_on_c, 0, 57, 79
2, 28560, Note_on_c, 0, 57, 0
2, 28560, Note_on_c, 0, 54, 69
2, 28680, Note_on_c, 0, 54, 0
2, 28800, Note_on_c, 0, 69, 67
2, 28800, Note_on_c, 0, 72, 79
2, 29040, Note_on_c, 0, 72, 0
2, 29040, Note_on_c, 0, 69, 0
2, 29040, Note_on_c, 0, 66, 58
2, 29040, Note_on_c, 0, 69, 69
2, 29160, Note_on_c, 0, 69, 0
2, 29160, Note_on_c, 0, 66, 0
2, 29280, Note_on_c, 0, 66, 67
2, 29280, Note_on_c, 0, 69, 79
2, 29520, Note_on_c, 0, 69, 0
2, 29520, Note_on_c, 0, 66, 0
2, 29520, Note_on_c, 0, 66, 69
2, 29520, Note_on_c, 0, 63, 58
2, 29640, Note_on_c, 0, 63, 0
2, 29640, Note_on_c, 0, 66, 0
2, 29760, Note_on_c, 0, 66, 74
2, 29760, Note_on_c, 0, 63, 74
2, 29988, Note_on_c, 0, 63, 0
2, 29988, Note_on_c, 0, 66, 0
2, 30000, Note_on_c, 0, 66, 70
2, 30000, Note_on_c, 0, 63, 70
2, 30228, Note_on_c, 0, 63, 0
2, 30228, Note_on_c, 0, 66, 0
2, 30240, Note_on_c, 0, 68, 80
2, 30240, Note_on_c, 0, 64, 68
2, 30240, Note_on_c, 0, 59, 68
2, 30720, Note_on_c, 0, 59, 0
2, 30720, Note_on_c, 0, 64, 0
2, 30720, Note_on_c, 0, 68, 0
2, 30720, Note_on_c, 0, 57, 84
2, 30840, Note_on_c, 0, 57, 0
2, 30840, Note_on_c, 0, 59, 75
2, 30960, Note_on_c, 0, 59, 0
2, 30960, Note_on_c, 0, 57, 81
2, 31080, Note_on_c, 0, 57, 0
2, 31080, Note_on_c, 0, 59, 75
2, 31200, Note_on_c, 0, 59, 0
2, 31200, Note_on_c, 0, 60, 85
2, 31320, Note_on_c, 0, 60, 0
2, 31320, Note_on_c, 0, 59, 75
2, 31440, Note_on_c, 0, 59, 0
2, 31440, Note_on_c, 0, 60, 84
2, 31560, Note_on_c, 0, 60, 0
2, 31560, Note_on_c, 0, 59, 75
2, 31680, Note_on_c, 0, 59, 0
2, 31680, Note_on_c, 0, 57, 88
2, 31920, Note_on_c, 0, 57, 0
2, 31920, Note_on_c, 0, 59, 75
2, 32040, Note_on_c, 0, 59, 0
2, 32160, Note_on_c, 0, 60, 86
2, 32400, Note_on_c, 0, 60, 0
2, 32400, Note_on_c, 0, 64, 75
2, 32520, Note_on_c, 0, 64, 0
2, 32640, Note_on_c, 0, 69, 86
2, 32880, Note_on_c, 0, 69, 0
2, 32880, Note_on_c, 0, 71, 75
2, 33000, Note_on_c, 0, 71, 0
2, 33120, Note_on_c, 0, 72, 86
2, 33360, Note_on_c, 0, 72, 0
2, 33360, Note_on_c, 0, 76, 75
2, 33480, Note_on_c, 0, 76, 0
2, 33600, Note_on_c, 0, 64, 73
2, 33600, Note_on_c, 0, 68, 73
2, 33600, Note_on_c, 0, 71, 86
2, 33828, Note_on_c, 0, 71, 0
2, 33828, Note_on_c, 0, 68, 0
2, 33828, Note_on_c, 0, 64, 0
2, 33840, Note_on_c, 0, 64, 68
2, 33840, Note_on_c, 0, 68, 68
2, 33840, Note_on_c, 0, 71, 81
2, 34068, Note_on_c, 0, 71, 0
2, 34068, Note_on_c, 0, 68, 0
2, 34068, Note_on_c, 0, 64, 0
2, 34080, Note_on_c, 0, 64, 68
2, 34080, Note_on_c, 0, 69, 68
2, 34080, Note_on_c, 0, 72, 81
2, 34308, Note_on_c, 0, 72, 0
2, 34308, Note_on_c, 0, 69, 0
2, 34308, Note_on_c, 0, 64, 0
2, 34320, Note_on_c, 0, 64, 72
2, 34320, Note_on_c, 0, 67, 72
2, 34320, Note_on_c, 0, 69, 72
2, 34320, Note_on_c, 0, 73, 85
2, 34548, Note_on_c, 0, 73, 0
2, 34548, Note_on_c, 0, 64, 0
2, 34548, Note_on_c, 0, 67, 0
2, 34548, Note_on_c, 0, 69, 0
2, 34560, Note_on_c, 0, 65, 77
2, 34560, Note_on_c, 0, 69, 77
2, 34560, Note_on_c, 0, 74, 91
2, 35040, Note_on_c, 0, 74, 0
2, 35040, Note_on_c, 0, 69, 0
2, 35040, Note_on_c, 0, 65, 0
2, 35040, Note_on_c, 0, 65, 81
2, 35160, Note_on_c, 0, 65, 0
2, 35160, Note_on_c, 0, 64, 72
2, 35280, Note_on_c, 0, 64, 0
2, 35280, Note_on_c, 0, 65, 80
2, 35400, Note_on_c, 0, 65, 0
2, 35400, Note_on_c, 0, 64, 72
2, 35520, Note_on_c, 0, 64, 0
2, 35520, Note_on_c, 0, 62, 84
2, 35760, Note_on_c, 0, 62, 0
2, 35760, Note_on_c, 0, 64, 72
2, 35880, Note_on_c, 0, 64, 0
2, 36000, Note_on_c, 0, 65, 82
2, 36240, Note_on_c, 0, 65, 0
2, 36240, Note_on_c, 0, 69, 72
2, 36360, Note_on_c, 0, 69, 0
2, 36480, Note_on_c, 0, 74, 82
2, 36720, Note_on_c, 0, 74, 0
2, 36720, Note_on_c, 0, 76, 72
2, 36840, Note_on_c, 0, 76, 0
2, 36960, Note_on_c, 0, 77, 82
2, 37200, Note_on_c, 0, 77, 0
2, 37200, Note_on_c, 0, 81, 72
2, 37320, Note_on_c, 0, 81, 0
2, 37440, Note_on_c, 0, 71, 71
2, 37440, Note_on_c, 0, 76, 71
2, 37440, Note_on_c, 0, 80, 85
2, 37668, Note_on_c, 0, 80, 0
2, 37668, Note_on_c, 0, 76, 0
2, 37668, Note_on_c, 0, 71, 0
2, 37680, Note_on_c, 0, 71, 67
2, 37680, Note_on_c, 0, 76, 67
2, 37680, Note_on_c, 0, 80, 80
2, 37908, Note_on_c, 0, 80, 0
2, 37908, Note_on_c, 0, 76, 0
2, 37908, Note_on_c, 0, 71, 0
2, 37920, Note_on_c, 0, 72, 77
2, 37920, Note_on_c, 0, 76, 77
2, 37920, Note_on_c, 0, 81, 92
2, 38400, Note_on_c, 0, 81, 0
2, 38400, Note_on_c, 0, 76, 0
2, 38400, Note_on_c, 0, 72, 0
2, 38400, Note_on_c, 0, 69, 37
2, 38520, Note_on_c, 0, 69, 0
2, 38520, Note_on_c, 0, 65, 29
2, 38640, Note_on_c, 0, 65, 0
2, 38640, Note_on_c, 0, 69, 40
2, 38760, Note_on_c, 0, 69, 0
2, 38760, Note_on_c, 0, 65, 33
2, 38880, Note_on_c, 0, 65, 0
2, 38880, Note_on_c, 0, 69, 41
2, 39000, Note_on_c, 0, 69, 0
2, 39000, Note_on_c, 0, 65, 35
2, 39120, Note_on_c, 0, 65, 0
2, 39120, Note_on_c, 0, 67, 44
2, 39240, Note_on_c, 0, 67, 0
2, 39240, Note_on_c, 0, 64, 39
2, 39360, Note_on_c, 0, 64, 0
2, 39360, Note_on_c, 0, 69, 47
2, 39480, Note_on_c, 0, 69, 0
2, 39480, Note_on_c, 0, 65, 42
2, 39600, Note_on_c, 0, 65, 0
2, 39600, Note_on_c, 0, 70, 45
2, 39720, Note_on_c, 0, 70, 0
2, 39720, Note_on_c, 0, 67, 48
2, 39840, Note_on_c, 0, 67, 0
2, 39840, Note_on_c, 0, 72, 51
2, 39960, Note_on_c, 0, 72, 0
2, 39960, Note_on_c, 0, 69, 48
2, 40080, Note_on_c, 0, 69, 0
2, 40080, Note_on_c, 0, 67, 46
2, 40200, Note_on_c, 0, 67, 0
2, 40200, Note_on_c, 0, 64, 44
2, 40320, Note_on_c, 0, 64, 0
2, 40320, Note_on_c, 0, 69, 37
2, 40440, Note_on_c, 0, 69, 0
2, 40440, Note_on_c, 0, 65, 30
2, 40560, Note_on_c, 0, 65, 0
2, 40560, Note_on_c, 0, 69, 40
2, 40680, Note_on_c, 0, 69, 0
2, 40680, Note_on_c, 0, 65, 35
2, 40800, Note_on_c, 0, 65, 0
2, 40800, Note_on_c, 0, 69, 41
2, 40920, Note_on_c, 0, 69, 0
2, 40920, Note_on_c, 0, 65, 37
2, 41040, Note_on_c, 0, 65, 0
2, 41040, Note_on_c, 0, 67, 44
2, 41160, Note_on_c, 0, 67, 0
2, 41160, Note_on_c, 0, 64, 39
2, 41280, Note_on_c, 0, 64, 0
2, 41280, Note_on_c, 0, 69, 47
2, 41400, Note_on_c, 0, 69, 0
2, 41400, Note_on_c, 0, 65, 42
2, 41520, Note_on_c, 0, 65, 0
2, 41520, Note_on_c, 0, 70, 45
2, 41640, Note_on_c, 0, 70, 0
2, 41640, Note_on_c, 0, 67, 48
2, 41760, Note_on_c, 0, 67, 0
2, 41760, Note_on_c, 0, 72, 51
2, 41880, Note_on_c, 0, 72, 0
2, 41880, Note_on_c, 0, 69, 52
2, 42000, Note_on_c, 0, 69, 0
2, 42000, Note_on_c, 0, 74, 57
2, 42120, Note_on_c, 0, 74, 0
2, 42120, Note_on_c, 0, 71, 51
2, 42240, Note_on_c, 0, 71, 0
2, 42240, Note_on_c, 0, 76, 58
2, 42360, Note_on_c, 0, 76, 0
2, 42360, Note_on_c, 0, 72, 47
2, 42480, Note_on_c, 0, 72, 0
2, 42480, Note_on_c, 0, 76, 55
2, 42600, Note_on_c, 0, 76, 0
2, 42600, Note_on_c, 0, 72, 47
2, 42720, Note_on_c, 0, 72, 0
2, 42720, Note_on_c, 0, 76, 52
2, 42840, Note_on_c, 0, 76, 0
2, 42840, Note_on_c, 0, 72, 40
2, 42960, Note_on_c, 0, 72, 0
2, 42960, Note_on_c, 0, 74, 46
2, 43080, Note_on_c, 0, 74, 0
2, 43080, Note_on_c, 0, 71, 40
2, 43200, Note_on_c, 0, 71, 0
2, 43200, Note_on_c, 0, 76, 47
2, 43320, Note_on_c, 0, 76, 0
2, 43320, Note_on_c, 0, 72, 42
2, 43440, Note_on_c, 0, 72, 0
2, 43440, Note_on_c, 0, 77, 45
2, 43560, Note_on_c, 0, 77, 0
2, 43560, Note_on_c, 0, 74, 48
2, 43680, Note_on_c, 0, 74, 0
2, 43680, Note_on_c, 0, 79, 51
2, 43800, Note_on_c, 0, 79, 0
2, 43800, Note_on_c, 0, 76, 48
2, 43920, Note_on_c, 0, 76, 0
2, 43920, Note_on_c, 0, 74, 46
2, 44040, Note_on_c, 0, 74, 0
2, 44040, Note_on_c, 0, 71, 44
2, 44160, Note_on_c, 0, 71, 0
2, 44160, Note_on_c, 0, 76, 51
2, 44280, Note_on_c, 0, 76, 0
2, 44280, Note_on_c, 0, 72, 43
2, 44400, Note_on_c, 0, 72, 0
2, 44400, Note_on_c, 0, 76, 49
2, 44520, Note_on_c, 0, 76, 0
2, 44520, Note_on_c, 0, 72, 40
2, 44640, Note_on_c, 0, 72, 0
2, 44640, Note_on_c, 0, 76, 49
2, 44760, Note_on_c, 0, 76, 0
2, 44760, Note_on_c, 0, 72, 40
2, 44880, Note_on_c, 0, 72, 0
2, 44880, Note_on_c, 0, 74, 46
2, 45000, Note_on_c, 0, 74, 0
2, 45000, Note_on_c, 0, 71, 40
2, 45120, Note_on_c, 0, 71, 0
2, 45120, Note_on_c, 0, 76, 47
2, 45240, Note_on_c, 0, 76, 0
2, 45240, Note_on_c, 0, 72, 42
2, 45360, Note_on_c, 0, 72, 0
2, 45360, Note_on_c, 0, 74, 45
2, 45480, Note_on_c, 0, 74, 0
2, 45480, Note_on_c, 0, 71, 41
2, 45600, Note_on_c, 0, 71, 0
2, 45600, Note_on_c, 0, 72, 48
2, 45720, Note_on_c, 0, 72, 0
2, 45720, Note_on_c, 0, 67, 40
2, 45840, Note_on_c, 0, 67, 0
2, 45840, Note_on_c, 0, 70, 40
2, 45960, Note_on_c, 0, 70, 0
2, 45960, Note_on_c, 0, 67, 36
2, 46080, Note_on_c, 0, 67, 0
2, 46080, Note_on_c, 0, 69, 37
2, 46200, Note_on_c, 0, 69, 0
2, 46200, Note_on_c, 0, 65, 32
2, 46320, Note_on_c, 0, 65, 0
2, 46320, Note_on_c, 0, 69, 40
2, 46440, Note_on_c, 0, 69, 0
2, 46440, Note_on_c, 0, 65, 34
2, 46560, Note_on_c, 0, 65, 0
2, 46560, Note_on_c, 0, 69, 41
2, 46680, Note_on_c, 0, 69, 0
2, 46680, Note_on_c, 0, 65, 37
2, 46800, Note_on_c, 0, 65, 0
2, 46800, Note_on_c, 0, 67, 44
2, 46920, Note_on_c, 0, 67, 0
2, 46920, Note_on_c, 0, 64, 39
2, 47040, Note_on_c, 0, 64, 0
2, 47040, Note_on_c, 0, 69, 47
2, 47160, Note_on_c, 0, 69, 0
2, 47160, Note_on_c, 0, 65, 42
2, 47280, Note_on_c, 0, 65, 0
2, 47280, Note_on_c, 0, 70, 45
2, 47400, Note_on_c, 0, 70, 0
2, 47400, Note_on_c, 0, 67, 48
2, 47520, Note_on_c, 0, 67, 0
2, 47520, Note_on_c, 0, 72, 51
2, 47640, Note_on_c, 0, 72, 0
2, 47640, Note_on_c, 0, 69, 48
2, 47760, Note_on_c, 0, 69, 0
2, 47760, Note_on_c, 0, 67, 45
2, 47880, Note_on_c, 0, 67, 0
2, 47880, Note_on_c, 0, 64, 42
2, 48000, Note_on_c, 0, 64, 0
2, 48000, Note_on_c, 0, 69, 37
2, 48120, Note_on_c, 0, 69, 0
2, 48120, Note_on_c, 0, 65, 34
2, 48240, Note_on_c, 0, 65, 0
2, 48240, Note_on_c, 0, 69, 40
2, 48360, Note_on_c, 0, 69, 0
2, 48360, Note_on_c, 0, 65, 36
2, 48480, Note_on_c, 0, 65, 0
2, 48480, Note_on_c, 0, 69, 41
2, 48600, Note_on_c, 0, 69, 0
2, 48600, Note_on_c, 0, 65, 37
2, 48720, Note_on_c, 0, 65, 0
2, 48720, Note_on_c, 0, 67, 44
2, 48840, Note_on_c, 0, 67, 0
2, 48840, Note_on_c, 0, 64, 39
2, 48960, Note_on_c, 0, 64, 0
2, 48960, Note_on_c, 0, 69, 47
2, 49080, Note_on_c, 0, 69, 0
2, 49080, Note_on_c, 0, 65, 42
2, 49200, Note_on_c, 0, 65, 0
2, 49200, Note_on_c, 0, 70, 45
2, 49320, Note_on_c, 0, 70, 0
2, 49320, Note_on_c, 0, 67, 48
2, 49440, Note_on_c, 0, 67, 0
2, 49440, Note_on_c, 0, 72, 51
2, 49560, Note_on_c, 0, 72, 0
2, 49560, Note_on_c, 0, 69, 52
2, 49680, Note_on_c, 0, 69, 0
2, 49680, Note_on_c, 0, 74, 57
2, 49800, Note_on_c, 0, 74, 0
2, 49800, Note_on_c, 0, 71, 51
2, 49920, Note_on_c, 0, 71, 0
2, 49920, Note_on_c, 0, 76, 58
2, 50040, Note_on_c, 0, 76, 0
2, 50040, Note_on_c, 0, 72, 47
2, 50160, Note_on_c, 0, 72, 0
2, 50160, Note_on_c, 0, 76, 55
2, 50280, Note_on_c, 0, 76, 0
2, 50280, Note_on_c, 0, 72, 47
2, 50400, Note_on_c, 0, 72, 0
2, 50400, Note_on_c, 0, 76, 52
2, 50520, Note_on_c, 0, 76, 0
2, 50520, Note_on_c, 0, 72, 40
2, 50640, Note_on_c, 0, 72, 0
2, 50640, Note_on_c, 0, 74, 46
2, 50760, Note_on_c, 0, 74, 0
2, 50760, Note_on_c, 0, 71, 40
2, 50880, Note_on_c, 0, 71, 0
2, 50880, Note_on_c, 0, 76, 47
2, 51000, Note_on_c, 0, 76, 0
2, 51000, Note_on_c, 0, 72, 42
2, 51120, Note_on_c, 0, 72, 0
2, 51120, Note_on_c, 0, 77, 45
2, 51240, Note_on_c, 0, 77, 0
2, 51240, Note_on_c, 0, 74, 48
2, 51360, Note_on_c, 0, 74, 0
2, 51360, Note_on_c, 0, 79, 55
2, 51480, Note_on_c, 0, 79, 0
2, 51480, Note_on_c, 0, 76, 48
2, 51600, Note_on_c, 0, 76, 0
2, 51600, Note_on_c, 0, 74, 46
2, 51720, Note_on_c, 0, 74, 0
2, 51720, Note_on_c, 0, 71, 44
2, 51840, Note_on_c, 0, 71, 0
2, 51840, Note_on_c, 0, 76, 51
2, 51960, Note_on_c, 0, 76, 0
2, 51960, Note_on_c, 0, 72, 43
2, 52080, Note_on_c, 0, 72, 0
2, 52080, Note_on_c, 0, 76, 49
2, 52200, Note_on_c, 0, 76, 0
2, 52200, Note_on_c, 0, 72, 40
2, 52320, Note_on_c, 0, 72, 0
2, 52320, Note_on_c, 0, 76, 45
2, 52440, Note_on_c, 0, 76, 0
2, 52440, Note_on_c, 0, 72, 42
2, 52560, Note_on_c, 0, 72, 0
2, 52560, Note_on_c, 0, 74, 46
2, 52680, Note_on_c, 0, 74, 0
2, 52680, Note_on_c, 0, 71, 40
2, 52800, Note_on_c, 0, 71, 0
2, 52800, Note_on_c, 0, 76, 47
2, 52920, Note_on_c, 0, 76, 0
2, 52920, Note_on_c, 0, 72, 42
2, 53040, Note_on_c, 0, 72, 0
2, 53040, Note_on_c, 0, 74, 45
2, 53160, Note_on_c, 0, 74, 0
2, 53160, Note_on_c, 0, 71, 41
2, 53280, Note_on_c, 0, 71, 0
2, 53280, Note_on_c, 0, 72, 48
2, 53400, Note_on_c, 0, 72, 0
2, 53400, Note_on_c, 0, 67, 40
2, 53520, Note_on_c, 0, 67, 0
2, 53520, Note_on_c, 0, 70, 40
2, 53640, Note_on_c, 0, 70, 0
2, 53640, Note_on_c, 0, 67, 40
2, 53760, Note_on_c, 0, 67, 0
2, 53760, Note_on_c, 0, 70, 47
2, 53880, Note_on_c, 0, 70, 0
2, 53880, Note_on_c, 0, 67, 40
2, 54000, Note_on_c, 0, 67, 0
2, 54000, Note_on_c, 0, 70, 47
2, 54120, Note_on_c, 0, 70, 0
2, 54120, Note_on_c, 0, 67, 40
2, 54240, Note_on_c, 0, 67, 0
2, 54240, Note_on_c, 0, 70, 47
2, 54360, Note_on_c, 0, 70, 0
2, 54360, Note_on_c, 0, 67, 41
2, 54480, Note_on_c, 0, 67, 0
2, 54480, Note_on_c, 0, 70, 47
2, 54600, Note_on_c, 0, 70, 0
2, 54600, Note_on_c, 0, 67, 42
2, 54720, Note_on_c, 0, 67, 0
2, 54720, Note_on_c, 0, 70, 47
2, 54840, Note_on_c, 0, 70, 0
2, 54840, Note_on_c, 0, 67, 41
2, 54960, Note_on_c, 0, 67, 0
2, 54960, Note_on_c, 0, 70, 47
2, 55080, Note_on_c, 0, 70, 0
2, 55080, Note_on_c, 0, 67, 42
2, 55200, Note_on_c, 0, 67, 0
2, 55200, Note_on_c, 0, 70, 47
2, 55320, Note_on_c, 0, 70, 0
2, 55320, Note_on_c, 0, 67, 41
2, 55440, Note_on_c, 0, 67, 0
2, 55440, Note_on_c, 0, 70, 47
2, 55560, Note_on_c, 0, 70, 0
2, 55560, Note_on_c, 0, 67, 42
2, 55680, Note_on_c, 0, 67, 0
2, 55680, Note_on_c, 0, 68, 47
2, 55800, Note_on_c, 0, 68, 0
2, 55800, Note_on_c, 0, 65, 40
2, 55920, Note_on_c, 0, 65, 0
2, 55920, Note_on_c, 0, 68, 47
2, 56040, Note_on_c, 0, 68, 0
2, 56040, Note_on_c, 0, 65, 40
2, 56160, Note_on_c, 0, 65, 0
2, 56160, Note_on_c, 0, 68, 49
2, 56280, Note_on_c, 0, 68, 0
2, 56280, Note_on_c, 0, 65, 43
2, 56400, Note_on_c, 0, 65, 0
2, 56400, Note_on_c, 0, 68, 52
2, 56520, Note_on_c, 0, 68, 0
2, 56520, Note_on_c, 0, 65, 48
2, 56640, Note_on_c, 0, 65, 0
2, 56640, Note_on_c, 0, 68, 57
2, 56760, Note_on_c, 0, 68, 0
2, 56760, Note_on_c, 0, 65, 49
2, 56880, Note_on_c, 0, 65, 0
2, 56880, Note_on_c, 0, 68, 54
2, 57000, Note_on_c, 0, 68, 0
2, 57000, Note_on_c, 0, 65, 42
2, 57120, Note_on_c, 0, 65, 0
2, 57120, Note_on_c, 0, 68, 47
2, 57240, Note_on_c, 0, 68, 0
2, 57240, Note_on_c, 0, 65, 41
2, 57360, Note_on_c, 0, 65, 0
2, 57360, Note_on_c, 0, 68, 47
2, 57480, Note_on_c, 0, 68, 0
2, 57480, Note_on_c, 0, 65, 37
2, 57600, Note_on_c, 0, 65, 0
2, 57600, Note_on_c, 0, 65, 45
2, 57600, Note_on_c, 0, 61, 41
2, 57720, Note_on_c, 0, 61, 0
2, 57720, Note_on_c, 0, 56, 33
2, 57840, Note_on_c, 0, 56, 0
2, 57840, Note_on_c, 0, 61, 41
2, 57960, Note_on_c, 0, 61, 0
2, 57960, Note_on_c, 0, 56, 34
2, 58080, Note_on_c, 0, 56, 0
2, 58080, Note_on_c, 0, 61, 41
2, 58200, Note_on_c, 0, 61, 0
2, 58200, Note_on_c, 0, 56, 33
2, 58320, Note_on_c, 0, 56, 0
2, 58320, Note_on_c, 0, 65, 0
2, 58320, Note_on_c, 0, 63, 42
2, 58320, Note_on_c, 0, 60, 41
2, 58440, Note_on_c, 0, 60, 0
2, 58440, Note_on_c, 0, 56, 34
2, 58560, Note_on_c, 0, 56, 0
2, 58560, Note_on_c, 0, 63, 0
2, 58560, Note_on_c, 0, 61, 41
2, 58560, Note_on_c, 0, 65, 42
2, 58680, Note_on_c, 0, 61, 0
2, 58680, Note_on_c, 0, 56, 34
2, 58800, Note_on_c, 0, 56, 0
2, 58800, Note_on_c, 0, 65, 0
2, 58800, Note_on_c, 0, 66, 42
2, 58920, Note_on_c, 0, 56, 34
2, 59040, Note_on_c, 0, 56, 0
2, 59040, Note_on_c, 0, 66, 0
2, 59040, Note_on_c, 0, 68, 42
2, 59160, Note_on_c, 0, 56, 34
2, 59280, Note_on_c, 0, 56, 0
2, 59280, Note_on_c, 0, 68, 0
2, 59280, Note_on_c, 0, 60, 41
2, 59280, Note_on_c, 0, 63, 42
2, 59400, Note_on_c, 0, 60, 0
2, 59400, Note_on_c, 0, 56, 34
2, 59520, Note_on_c, 0, 56, 0
2, 59520, Note_on_c, 0, 63, 0
2, 59520, Note_on_c, 0, 65, 42
2, 59640, Note_on_c, 0, 61, 34
2, 59760, Note_on_c, 0, 61, 0
2, 59760, Note_on_c, 0, 65, 0
2, 59760, Note_on_c, 0, 67, 46
2, 59880, Note_on_c, 0, 64, 38
2, 60000, Note_on_c, 0, 64, 0
2, 60000, Note_on_c, 0, 67, 0
2, 60000, Note_on_c, 0, 68, 48
2, 60120, Note_on_c, 0, 65, 40
2, 60240, Note_on_c, 0, 65, 0
2, 60240, Note_on_c, 0, 68, 0
2, 60240, Note_on_c, 0, 70, 53
2, 60360, Note_on_c, 0, 65, 46
2, 60480, Note_on_c, 0, 65, 0
2, 60480, Note_on_c, 0, 70, 0
2, 60480, Note_on_c, 0, 72, 55
2, 60600, Note_on_c, 0, 72, 0
2, 60600, Note_on_c, 0, 64, 44
2, 60720, Note_on_c, 0, 64, 0
2, 60720, Note_on_c, 0, 70, 50
2, 60840, Note_on_c, 0, 70, 0
2, 60840, Note_on_c, 0, 67, 42
2, 60960, Note_on_c, 0, 67, 0
2, 60960, Note_on_c, 0, 64, 47
2, 61080, Note_on_c, 0, 64, 0
2, 61440, Note_on_c, 0, 69, 37
2, 61560, Note_on_c, 0, 69, 0
2, 61560, Note_on_c, 0, 65, 27
2, 61680, Note_on_c, 0, 65, 0
2, 61680, Note_on_c, 0, 69, 40
2, 61800, Note_on_c, 0, 69, 0
2, 61800, Note_on_c, 0, 65, 32
2, 61920, Note_on_c, 0, 65, 0
2, 61920, Note_on_c, 0, 69, 41
2, 62040, Note_on_c, 0, 69, 0
2, 62040, Note_on_c, 0, 65, 37
2, 62160, Note_on_c, 0, 65, 0
2, 62160, Note_on_c, 0, 67, 44
2, 62280, Note_on_c, 0, 67, 0
2, 62280, Note_on_c, 0, 64, 39
2, 62400, Note_on_c, 0, 64, 0
2, 62400, Note_on_c, 0, 69, 47
2, 62520, Note_on_c, 0, 69, 0
2, 62520, Note_on_c, 0, 65, 42
2, 62640, Note_on_c, 0, 65, 0
2, 62640, Note_on_c, 0, 70, 45
2, 62760, Note_on_c, 0, 70, 0
2, 62760, Note_on_c, 0, 67, 48
2, 62880, Note_on_c, 0, 67, 0
2, 62880, Note_on_c, 0, 72, 51
2, 63000, Note_on_c, 0, 72, 0
2, 63000, Note_on_c, 0, 69, 48
2, 63120, Note_on_c, 0, 69, 0
2, 63120, Note_on_c, 0, 67, 44
2, 63240, Note_on_c, 0, 67, 0
2, 63240, Note_on_c, 0, 64, 42
2, 63360, Note_on_c, 0, 64, 0
2, 63360, Note_on_c, 0, 69, 37
2, 63480, Note_on_c, 0, 69, 0
2, 63480, Note_on_c, 0, 65, 32
2, 63600, Note_on_c, 0, 65, 0
2, 63600, Note_on_c, 0, 69, 40
2, 63720, Note_on_c, 0, 69, 0
2, 63720, Note_on_c, 0, 65, 34
2, 63840, Note_on_c, 0, 65, 0
2, 63840, Note_on_c, 0, 69, 41
2, 63960, Note_on_c, 0, 69, 0
2, 63960, Note_on_c, 0, 65, 37
2, 64080, Note_on_c, 0, 65, 0
2, 64080, Note_on_c, 0, 67, 44
2, 64200, Note_on_c, 0, 67, 0
2, 64200, Note_on_c, 0, 64, 39
2, 64320, Note_on_c, 0, 64, 0
2, 64320, Note_on_c, 0, 69, 47
2, 64440, Note_on_c, 0, 69, 0
2, 64440, Note_on_c, 0, 65, 42
2, 64560, Note_on_c, 0, 65, 0
2, 64560, Note_on_c, 0, 70, 45
2, 64680, Note_on_c, 0, 70, 0
2, 64680, Note_on_c, 0, 67, 48
2, 64800, Note_on_c, 0, 67, 0
2, 64800, Note_on_c, 0, 72, 51
2, 64920, Note_on_c, 0, 72, 0
2, 64920, Note_on_c, 0, 69, 48
2, 65040, Note_on_c, 0, 69, 0
2, 65040, Note_on_c, 0, 64, 46
2, 65160, Note_on_c, 0, 64, 0
2, 65160, Note_on_c, 0, 65, 44
2, 65280, Note_on_c, 0, 65, 0
2, 65280, Note_on_c, 0, 74, 57
2, 65280, Note_on_c, 0, 70, 41
2, 65400, Note_on_c, 0, 70, 0
2, 65400, Note_on_c, 0, 65, 33
2, 65520, Note_on_c, 0, 65, 0
2, 65520, Note_on_c, 0, 70, 41
2, 65640, Note_on_c, 0, 70, 0
2, 65640, Note_on_c, 0, 65, 34
2, 65760, Note_on_c, 0, 65, 0
2, 65760, Note_on_c, 0, 70, 41
2, 65880, Note_on_c, 0, 70, 0
2, 65880, Note_on_c, 0, 65, 33
2, 66000, Note_on_c, 0, 65, 0
2, 66000, Note_on_c, 0, 74, 0
2, 66000, Note_on_c, 0, 72, 42
2, 66000, Note_on_c, 0, 69, 41
2, 66120, Note_on_c, 0, 69, 0
2, 66120, Note_on_c, 0, 65, 34
2, 66240, Note_on_c, 0, 65, 0
2, 66240, Note_on_c, 0, 72, 0
2, 66240, Note_on_c, 0, 70, 47
2, 66240, Note_on_c, 0, 74, 47
2, 66360, Note_on_c, 0, 70, 0
2, 66360, Note_on_c, 0, 65, 40
2, 66480, Note_on_c, 0, 65, 0
2, 66480, Note_on_c, 0, 74, 0
2, 66480, Note_on_c, 0, 76, 53
2, 66600, Note_on_c, 0, 65, 44
2, 66720, Note_on_c, 0, 65, 0
2, 66720, Note_on_c, 0, 76, 0
2, 66720, Note_on_c, 0, 77, 56
2, 66840, Note_on_c, 0, 65, 46
2, 66960, Note_on_c, 0, 65, 0
2, 66960, Note_on_c, 0, 77, 0
2, 66960, Note_on_c, 0, 74, 51
2, 67080, Note_on_c, 0, 65, 38
2, 67200, Note_on_c, 0, 65, 0
2, 67200, Note_on_c, 0, 74, 0
2, 67200, Note_on_c, 0, 72, 49
2, 67320, Note_on_c, 0, 65, 34
2, 67440, Note_on_c, 0, 65, 0
2, 67440, Note_on_c, 0, 72, 0
2, 67440, Note_on_c, 0, 69, 42
2, 67560, Note_on_c, 0, 64, 34
2, 67680, Note_on_c, 0, 64, 0
2, 67680, Note_on_c, 0, 69, 0
2, 67680, Note_on_c, 0, 65, 49
2, 67920, Note_on_c, 0, 65, 0
2, 67920, Note_on_c, 0, 62, 42
2, 67920, Note_on_c, 0, 70, 42
2, 68040, Note_on_c, 0, 70, 0
2, 68040, Note_on_c, 0, 62, 0
2, 68160, Note_on_c, 0, 58, 49
2, 68160, Note_on_c, 0, 64, 53
2, 68640, Note_on_c, 0, 64, 0
2, 68640, Note_on_c, 0, 58, 0
2, 68640, Note_on_c, 0, 57, 41
2, 68640, Note_on_c, 0, 65, 45
2, 68880, Note_on_c, 0, 65, 0
2, 68880, Note_on_c, 0, 57, 0
2, 69120, Note_on_c, 0, 70, 47
2, 69240, Note_on_c, 0, 70, 0
2, 69240, Note_on_c, 0, 67, 40
2, 69360, Note_on_c, 0, 67, 0
2, 69360, Note_on_c, 0, 70, 47
2, 69480, Note_on_c, 0, 70, 0
2, 69480, Note_on_c, 0, 67, 40
2, 69600, Note_on_c, 0, 67, 0
2, 69600, Note_on_c, 0, 70, 47
2, 69720, Note_on_c, 0, 70, 0
2, 69720, Note_on_c, 0, 67, 41
2, 69840, Note_on_c, 0, 67, 0
2, 69840, Note_on_c, 0, 70, 47
2, 69960, Note_on_c, 0, 70, 0
2, 69960, Note_on_c, 0, 67, 42
2, 70080, Note_on_c, 0, 67, 0
2, 70080, Note_on_c, 0, 70, 47
2, 70200, Note_on_c, 0, 70, 0
2, 70200, Note_on_c, 0, 67, 41
2, 70320, Note_on_c, 0, 67, 0
2, 70320, Note_on_c, 0, 70, 47
2, 70440, Note_on_c, 0, 70, 0
2, 70440, Note_on_c, 0, 67, 42
2, 70560, Note_on_c, 0, 67, 0
2, 70560, Note_on_c, 0, 70, 47
2, 70680, Note_on_c, 0, 70, 0
2, 70680, Note_on_c, 0, 67, 41
2, 70800, Note_on_c, 0, 67, 0
2, 70800, Note_on_c, 0, 70, 47
2, 70920, Note_on_c, 0, 70, 0
2, 70920, Note_on_c, 0, 67, 42
2, 71040, Note_on_c, 0, 67, 0
2, 71040, Note_on_c, 0, 68, 47
2, 71160, Note_on_c, 0, 68, 0
2, 71160, Note_on_c, 0, 65, 40
2, 71280, Note_on_c, 0, 65, 0
2, 71280, Note_on_c, 0, 68, 47
2, 71400, Note_on_c, 0, 68, 0
2, 71400, Note_on_c, 0, 65, 40
2, 71520, Note_on_c, 0, 65, 0
2, 71520, Note_on_c, 0, 68, 49
2, 71640, Note_on_c, 0, 68, 0
2, 71640, Note_on_c, 0, 65, 43
2, 71760, Note_on_c, 0, 65, 0
2, 71760, Note_on_c, 0, 68, 52
2, 71880, Note_on_c, 0, 68, 0
2, 71880, Note_on_c, 0, 65, 48
2, 72000, Note_on_c, 0, 65, 0
2, 72000, Note_on_c, 0, 68, 57
2, 72120, Note_on_c, 0, 68, 0
2, 72120, Note_on_c, 0, 65, 49
2, 72240, Note_on_c, 0, 65, 0
2, 72240, Note_on_c, 0, 68, 54
2, 72360, Note_on_c, 0, 68, 0
2, 72360, Note_on_c, 0, 65, 42
2, 72480, Note_on_c, 0, 65, 0
2, 72480, Note_on_c, 0, 68, 47
2, 72600, Note_on_c, 0, 68, 0
2, 72600, Note_on_c, 0, 65, 41
2, 72720, Note_on_c, 0, 65, 0
2, 72720, Note_on_c, 0, 68, 47
2, 72840, Note_on_c, 0, 68, 0
2, 72840, Note_on_c, 0, 65, 37
2, 72960, Note_on_c, 0, 65, 0
2, 72960, Note_on_c, 0, 65, 45
2, 72960, Note_on_c, 0, 61, 41
2, 73080, Note_on_c, 0, 61, 0
2, 73080, Note_on_c, 0, 56, 33
2, 73200, Note_on_c, 0, 56, 0
2, 73200, Note_on_c, 0, 61, 41
2, 73320, Note_on_c, 0, 61, 0
2, 73320, Note_on_c, 0, 56, 34
2, 73440, Note_on_c, 0, 56, 0
2, 73440, Note_on_c, 0, 61, 41
2, 73560, Note_on_c, 0, 61, 0
2, 73560, Note_on_c, 0, 56, 33
2, 73680, Note_on_c, 0, 56, 0
2, 73680, Note_on_c, 0, 65, 0
2, 73680, Note_on_c, 0, 63, 42
2, 73680, Note_on_c, 0, 60, 41
2, 73800, Note_on_c, 0, 60, 0
2, 73800, Note_on_c, 0, 56, 34
2, 73920, Note_on_c, 0, 56, 0
2, 73920, Note_on_c, 0, 63, 0
2, 73920, Note_on_c, 0, 61, 41
2, 73920, Note_on_c, 0, 65, 42
2, 74040, Note_on_c, 0, 61, 0
2, 74040, Note_on_c, 0, 56, 34
2, 74160, Note_on_c, 0, 56, 0
2, 74160, Note_on_c, 0, 65, 0
2, 74160, Note_on_c, 0, 66, 42
2, 74280, Note_on_c, 0, 56, 34
2, 74400, Note_on_c, 0, 56, 0
2, 74400, Note_on_c, 0, 66, 0
2, 74400, Note_on_c, 0, 68, 42
2, 74520, Note_on_c, 0, 56, 34
2, 74640, Note_on_c, 0, 56, 0
2, 74640, Note_on_c, 0, 68, 0
2, 74640, Note_on_c, 0, 60, 41
2, 74640, Note_on_c, 0, 63, 42
2, 74760, Note_on_c, 0, 60, 0
2, 74760, Note_on_c, 0, 56, 34
2, 74880, Note_on_c, 0, 56, 0
2, 74880, Note_on_c, 0, 63, 0
2, 74880, Note_on_c, 0, 65, 42
2, 75000, Note_on_c, 0, 61, 34
2, 75120, Note_on_c, 0, 61, 0
2, 75120, Note_on_c, 0, 65, 0
2, 75120, Note_on_c, 0, 67, 46
2, 75240, Note_on_c, 0, 64, 38
2, 75360, Note_on_c, 0, 64, 0
2, 75360, Note_on_c, 0, 67, 0
2, 75360, Note_on_c, 0, 68, 48
2, 75480, Note_on_c, 0, 65, 40
2, 75600, Note_on_c, 0, 65, 0
2, 75600, Note_on_c, 0, 68, 0
2, 75600, Note_on_c, 0, 70, 53
2, 75720, Note_on_c, 0, 65, 46
2, 75840, Note_on_c, 0, 65, 0
2, 75840, Note_on_c, 0, 70, 0
2, 75840, Note_on_c, 0, 72, 55
2, 75960, Note_on_c, 0, 72, 0
2, 75960, Note_on_c, 0, 64, 44
2, 76080, Note_on_c, 0, 64, 0
2, 76080, Note_on_c, 0, 70, 50
2, 76200, Note_on_c, 0, 70, 0
2, 76200, Note_on_c, 0, 67, 42
2, 76320, Note_on_c, 0, 67, 0
2, 76320, Note_on_c, 0, 64, 47
2, 76440, Note_on_c, 0, 64, 0
2, 76800, Note_on_c, 0, 69, 37
2, 76920, Note_on_c, 0, 69, 0
2, 76920, Note_on_c, 0, 65, 27
2, 77040, Note_on_c, 0, 65, 0
2, 77040, Note_on_c, 0, 69, 40
2, 77160, Note_on_c, 0, 69, 0
2, 77160, Note_on_c, 0, 65, 32
2, 77280, Note_on_c, 0, 65, 0
2, 77280, Note_on_c, 0, 69, 41
2, 77400, Note_on_c, 0, 69, 0
2, 77400, Note_on_c, 0, 65, 37
2, 77520, Note_on_c, 0, 65, 0
2, 77520, Note_on_c, 0, 67, 44
2, 77640, Note_on_c, 0, 67, 0
2, 77640, Note_on_c, 0, 64, 39
2, 77760, Note_on_c, 0, 64, 0
2, 77760, Note_on_c, 0, 69, 47
2, 77880, Note_on_c, 0, 69, 0
2, 77880, Note_on_c, 0, 65, 42
2, 78000, Note_on_c, 0, 65, 0
2, 78000, Note_on_c, 0, 70, 45
2, 78120, Note_on_c, 0, 70, 0
2, 78120, Note_on_c, 0, 67, 48
2, 78240, Note_on_c, 0, 67, 0
2, 78240, Note_on_c, 0, 72, 51
2, 78360, Note_on_c, 0, 72, 0
2, 78360, Note_on_c, 0, 69, 48
2, 78480, Note_on_c, 0, 69, 0
2, 78480, Note_on_c, 0, 67, 44
2, 78600, Note_on_c, 0, 67, 0
2, 78600, Note_on_c, 0, 64, 42
2, 78720, Note_on_c, 0, 64, 0
2, 78720, Note_on_c, 0, 69, 37
2, 78840, Note_on_c, 0, 69, 0
2, 78840, Note_on_c, 0, 65, 32
2, 78960, Note_on_c, 0, 65, 0
2, 78960, Note_on_c, 0, 69, 40
2, 79080, Note_on_c, 0, 69, 0
2, 79080, Note_on_c, 0, 65, 34
2, 79200, Note_on_c, 0, 65, 0
2, 79200, Note_on_c, 0, 69, 41
2, 79320, Note_on_c, 0, 69, 0
2, 79320, Note_on_c, 0, 65, 37
2, 79440, Note_on_c, 0, 65, 0
2, 79440, Note_on_c, 0, 67, 44
2, 79560, Note_on_c, 0, 67, 0
2, 79560, Note_on_c, 0, 64, 39
2, 79680, Note_on_c, 0, 64, 0
2, 79680, Note_on_c, 0, 69, 47
2, 79800, Note_on_c, 0, 69, 0
2, 79800, Note_on_c, 0, 65, 42
2, 79920, Note_on_c, 0, 65, 0
2, 79920, Note_on_c, 0, 70, 45
2, 80040, Note_on_c, 0, 70, 0
2, 80040, Note_on_c, 0, 67, 48
2, 80160, Note_on_c, 0, 67, 0
2, 80160, Note_on_c, 0, 72, 51
2, 80280, Note_on_c, 0, 72, 0
2, 80280, Note_on_c, 0, 69, 48
2, 80400, Note_on_c, 0, 69, 0
2, 80400, Note_on_c, 0, 64, 46
2, 80520, Note_on_c, 0, 64, 0
2, 80520, Note_on_c, 0, 65, 44
2, 80640, Note_on_c, 0, 65, 0
2, 80640, Note_on_c, 0, 74, 57
2, 80640, Note_on_c, 0, 70, 41
2, 80760, Note_on_c, 0, 70, 0
2, 80760, Note_on_c, 0, 65, 33
2, 80880, Note_on_c, 0, 65, 0
2, 80880, Note_on_c, 0, 70, 41
2, 81000, Note_on_c, 0, 70, 0
2, 81000, Note_on_c, 0, 65, 34
2, 81120, Note_on_c, 0, 65, 0
2, 81120, Note_on_c, 0, 70, 41
2, 81240, Note_on_c, 0, 70, 0
2, 81240, Note_on_c, 0, 65, 33
2, 81360, Note_on_c, 0, 65, 0
2, 81360, Note_on_c, 0, 74, 0
2, 81360, Note_on_c, 0, 72, 42
2, 81360, Note_on_c, 0, 69, 41
2, 81480, Note_on_c, 0, 69, 0
2, 81480, Note_on_c, 0, 65, 34
2, 81600, Note_on_c, 0, 65, 0
2, 81600, Note_on_c, 0, 72, 0
2, 81600, Note_on_c, 0, 70, 47
2, 81600, Note_on_c, 0, 74, 47
2, 81720, Note_on_c, 0, 70, 0
2, 81720, Note_on_c, 0, 65, 40
2, 81840, Note_on_c, 0, 65, 0
2, 81840, Note_on_c, 0, 74, 0
2, 81840, Note_on_c, 0, 76, 53
2, 81960, Note_on_c, 0, 65, 44
2, 82080, Note_on_c, 0, 65, 0
2, 82080, Note_on_c, 0, 76, 0
2, 82080, Note_on_c, 0, 77, 56
2, 82200, Note_on_c, 0, 65, 46
2, 82320, Note_on_c, 0, 65, 0
2, 82320, Note_on_c, 0, 77, 0
2, 82320, Note_on_c, 0, 74, 51
2, 82440, Note_on_c, 0, 65, 38
2, 82560, Note_on_c, 0, 65, 0
2, 82560, Note_on_c, 0, 74, 0
2, 82560, Note_on_c, 0, 72, 49
2, 82680, Note_on_c, 0, 65, 34
2, 82800, Note_on_c, 0, 65, 0
2, 82800, Note_on_c, 0, 72, 0
2, 82800, Note_on_c, 0, 69, 42
2, 82920, Note_on_c, 0, 64, 34
2, 83040, Note_on_c, 0, 64, 0
2, 83040, Note_on_c, 0, 69, 0
2, 83040, Note_on_c, 0, 65, 49
2, 83280, Note_on_c, 0, 65, 0
2, 83280, Note_on_c, 0, 62, 42
2, 83280, Note_on_c, 0, 70, 42
2, 83400, Note_on_c, 0, 70, 0
2, 83400, Note_on_c, 0, 62, 0
2, 83520, Note_on_c, 0, 58, 49
2, 83520, Note_on_c, 0, 64, 53
2, 84000, Note_on_c, 0, 64, 0
2, 84000, Note_on_c, 0, 58, 0
2, 84000, Note_on_c, 0, 57, 41
2, 84000, Note_on_c, 0, 65, 45
2, 84240, Note_on_c, 0, 65, 0
2, 84240, Note_on_c, 0, 57, 0
2, 84480, Note_on_c, 0, 45, 77
2, 84600, Note_on_c, 0, 45, 0
2, 84600, Note_on_c, 0, 47, 69
2, 84720, Note_on_c, 0, 47, 0
2, 84720, Note_on_c, 0, 45, 74
2, 84840, Note_on_c, 0, 45, 0
2, 84840, Note_on_c, 0, 47, 69
2, 84960, Note_on_c, 0, 47, 0
2, 84960, Note_on_c, 0, 48, 78
2, 85080, Note_on_c, 0, 48, 0
2, 85080, Note_on_c, 0, 47, 69
2, 85200, Note_on_c, 0, 47, 0
2, 85200, Note_on_c, 0, 48, 77
2, 85320, Note_on_c, 0, 48, 0
2, 85320, Note_on_c, 0, 47, 69
2, 85440, Note_on_c, 0, 47, 0
2, 85440, Note_on_c, 0, 45, 80
2, 85680, Note_on_c, 0, 45, 0
2, 85680, Note_on_c, 0, 47, 69
2, 85800, Note_on_c, 0, 47, 0
2, 85920, Note_on_c, 0, 48, 79
2, 86160, Note_on_c, 0, 48, 0
2, 86160, Note_on_c, 0, 52, 69
2, 86280, Note_on_c, 0, 52, 0
2, 86400, Note_on_c, 0, 57, 79
2, 86640, Note_on_c, 0, 57, 0
2, 86640, Note_on_c, 0, 59, 69
2, 86760, Note_on_c, 0, 59, 0
2, 86880, Note_on_c, 0, 60, 79
2, 87120, Note_on_c, 0, 60, 0
2, 87120, Note_on_c, 0, 64, 69
2, 87240, Note_on_c, 0, 64, 0
2, 87360, Note_on_c, 0, 64, 62
2, 87360, Note_on_c, 0, 68, 62
2, 87360, Note_on_c, 0, 71, 74
2, 87600, Note_on_c, 0, 71, 0
2, 87600, Note_on_c, 0, 68, 0
2, 87600, Note_on_c, 0, 64, 0
2, 87600, Note_on_c, 0, 64, 59
2, 87600, Note_on_c, 0, 68, 59
2, 87600, Note_on_c, 0, 71, 70
2, 87840, Note_on_c, 0, 71, 0
2, 87840, Note_on_c, 0, 68, 0
2, 87840, Note_on_c, 0, 64, 0
2, 87840, Note_on_c, 0, 64, 68
2, 87840, Note_on_c, 0, 69, 68
2, 87840, Note_on_c, 0, 72, 80
2, 88320, Note_on_c, 0, 72, 0
2, 88320, Note_on_c, 0, 69, 0
2, 88320, Note_on_c, 0, 64, 0
2, 88320, Note_on_c, 0, 45, 77
2, 88440, Note_on_c, 0, 45, 0
2, 88440, Note_on_c, 0, 47, 69
2, 88560, Note_on_c, 0, 47, 0
2, 88560, Note_on_c, 0, 45, 74
2, 88680, Note_on_c, 0, 45, 0
2, 88680, Note_on_c, 0, 47, 69
2, 88800, Note_on_c, 0, 47, 0
2, 88800, Note_on_c, 0, 48, 78
2, 88920, Note_on_c, 0, 48, 0
2, 88920, Note_on_c, 0, 47, 69
2, 89040, Note_on_c, 0, 47, 0
2, 89040, Note_on_c, 0, 48, 77
2, 89160, Note_on_c, 0, 48, 0
2, 89160, Note_on_c, 0, 47, 69
2, 89280, Note_on_c, 0, 47, 0
2, 89280, Note_on_c, 0, 45, 80
2, 89520, Note_on_c, 0, 45, 0
2, 89520, Note_on_c, 0, 47, 69
2, 89640, Note_on_c, 0, 47, 0
2, 89760, Note_on_c, 0, 48, 79
2, 90000, Note_on_c, 0, 48, 0
2, 90000, Note_on_c, 0, 52, 69
2, 90120, Note_on_c, 0, 52, 0
2, 90240, Note_on_c, 0, 57, 79
2, 90480, Note_on_c, 0, 57, 0
2, 90480, Note_on_c, 0, 59, 69
2, 90600, Note_on_c, 0, 59, 0
2, 90720, Note_on_c, 0, 60, 79
2, 90960, Note_on_c, 0, 60, 0
2, 90960, Note_on_c, 0, 64, 69
2, 91080, Note_on_c, 0, 64, 0
2, 91200, Note_on_c, 0, 64, 62
2, 91200, Note_on_c, 0, 68, 62
2, 91200, Note_on_c, 0, 71, 74
2, 91440, Note_on_c, 0, 71, 0
2, 91440, Note_on_c, 0, 68, 0
2, 91440, Note_on_c, 0, 64, 0
2, 91440, Note_on_c, 0, 64, 59
2, 91440, Note_on_c, 0, 68, 59
2, 91440, Note_on_c, 0, 71, 70
2, 91680, Note_on_c, 0, 71, 0
2, 91680, Note_on_c, 0, 68, 0
2, 91680, Note_on_c, 0, 64, 0
2, 91680, Note_on_c, 0, 69, 82
2, 92160, Note_on_c, 0, 69, 0
2, 92160, Note_on_c, 0, 58, 77
2, 92280, Note_on_c, 0, 58, 0
2, 92280, Note_on_c, 0, 57, 69
2, 92400, Note_on_c, 0, 57, 0
2, 92400, Note_on_c, 0, 58, 74
2, 92520, Note_on_c, 0, 58, 0
2, 92520, Note_on_c, 0, 57, 69
2, 92640, Note_on_c, 0, 57, 0
2, 92640, Note_on_c, 0, 55, 78
2, 92760, Note_on_c, 0, 55, 0
2, 92760, Note_on_c, 0, 57, 69
2, 92880, Note_on_c, 0, 57, 0
2, 92880, Note_on_c, 0, 55, 77
2, 93000, Note_on_c, 0, 55, 0
2, 93000, Note_on_c, 0, 57, 69
2, 93120, Note_on_c, 0, 57, 0
2, 93120, Note_on_c, 0, 58, 80
2, 93360, Note_on_c, 0, 58, 0
2, 93360, Note_on_c, 0, 55, 69
2, 93480, Note_on_c, 0, 55, 0
2, 93600, Note_on_c, 0, 55, 79
2, 93840, Note_on_c, 0, 55, 0
2, 93840, Note_on_c, 0, 52, 69
2, 93960, Note_on_c, 0, 52, 0
2, 94080, Note_on_c, 0, 67, 67
2, 94080, Note_on_c, 0, 70, 79
2, 94320, Note_on_c, 0, 70, 0
2, 94320, Note_on_c, 0, 67, 0
2, 94320, Note_on_c, 0, 64, 58
2, 94320, Note_on_c, 0, 67, 69
2, 94440, Note_on_c, 0, 67, 0
2, 94440, Note_on_c, 0, 64, 0
2, 94560, Note_on_c, 0, 64, 67
2, 94560, Note_on_c, 0, 67, 79
2, 94800, Note_on_c, 0, 67, 0
2, 94800, Note_on_c, 0, 64, 0
2, 94800, Note_on_c, 0, 64, 69
2, 94800, Note_on_c, 0, 61, 58
2, 94920, Note_on_c, 0, 61, 0
2, 94920, Note_on_c, 0, 64, 0
2, 95040, Note_on_c, 0, 64, 74
2, 95040, Note_on_c, 0, 61, 62
2, 95040, Note_on_c, 0, 57, 62
2, 95280, Note_on_c, 0, 57, 0
2, 95280, Note_on_c, 0, 61, 0
2, 95280, Note_on_c, 0, 64, 0
2, 95280, Note_on_c, 0, 64, 70
2, 95280, Note_on_c, 0, 61, 59
2, 95280, Note_on_c, 0, 57, 59
2, 95520, Note_on_c, 0, 57, 0
2, 95520, Note_on_c, 0, 61, 0
2, 95520, Note_on_c, 0, 64, 0
2, 95520, Note_on_c, 0, 65, 80
2, 95520, Note_on_c, 0, 62, 68
2, 95520, Note_on_c, 0, 57, 68
2, 96000, Note_on_c, 0, 57, 0
2, 96000, Note_on_c, 0, 62, 0
2, 96000, Note_on_c, 0, 65, 0
2, 96000, Note_on_c, 0, 60, 77
2, 96120, Note_on_c, 0, 60, 0
2, 96120, Note_on_c, 0, 59, 69
2, 96240, Note_on_c, 0, 59, 0
2, 96240, Note_on_c, 0, 60, 74
2, 96360, Note_on_c, 0, 60, 0
2, 96360, Note_on_c, 0, 59, 69
2, 96480, Note_on_c, 0, 59, 0
2, 96480, Note_on_c, 0, 57, 78
2, 96600, Note_on_c, 0, 57, 0
2, 96600, Note_on_c, 0, 59, 69
2, 96720, Note_on_c, 0, 59, 0
2, 96720, Note_on_c, 0, 57, 77
2, 96840, Note_on_c, 0, 57, 0
2, 96840, Note_on_c, 0, 59, 69
2, 96960, Note_on_c, 0, 59, 0
2, 96960, Note_on_c, 0, 60, 80
2, 97200, Note_on_c, 0, 60, 0
2, 97200, Note_on_c, 0, 57, 69
2, 97320, Note_on_c, 0, 57, 0
2, 97440, Note_on_c, 0, 57, 79
2, 97680, Note_on_c, 0, 57, 0
2, 97680, Note_on_c, 0, 54, 69
2, 97800, Note_on_c, 0, 54, 0
2, 97920, Note_on_c, 0, 69, 67
2, 97920, Note_on_c, 0, 72, 79
2, 98160, Note_on_c, 0, 72, 0
2, 98160, Note_on_c, 0, 69, 0
2, 98160, Note_on_c, 0, 66, 58
2, 98160, Note_on_c, 0, 69, 69
2, 98280, Note_on_c, 0, 69, 0
2, 98280, Note_on_c, 0, 66, 0
2, 98400, Note_on_c, 0, 66, 67
2, 98400, Note_on_c, 0, 69, 79
2, 98640, Note_on_c, 0, 69, 0
2, 98640, Note_on_c, 0, 66, 0
2, 98640, Note_on_c, 0, 66, 69
2, 98640, Note_on_c, 0, 63, 58
2, 98760, Note_on_c, 0, 63, 0
2, 98760, Note_on_c, 0, 66, 0
2, 98880, Note_on_c, 0, 66, 74
2, 98880, Note_on_c, 0, 63, 74
2, 99120, Note_on_c, 0, 63, 0
2, 99120, Note_on_c, 0, 66, 0
2, 99120, Note_on_c, 0, 66, 70
2, 99120, Note_on_c, 0, 63, 70
2, 99360, Note_on_c, 0, 63, 0
2, 99360, Note_on_c, 0, 66, 0
2, 99360, Note_on_c, 0, 68, 80
2, 99360, Note_on_c, 0, 64, 68
2, 99360, Note_on_c, 0, 59, 68
2, 99840, Note_on_c, 0, 59, 0
2, 99840, Note_on_c, 0, 64, 0
2, 99840, Note_on_c, 0, 68, 0
2, 99840, Note_on_c, 0, 57, 84
2, 99960, Note_on_c, 0, 57, 0
2, 99960, Note_on_c, 0, 59, 75
2, 100080, Note_on_c, 0, 59, 0
2, 100080, Note_on_c, 0, 57, 81
2, 100200, Note_on_c, 0, 57, 0
2, 100200, Note_on_c, 0, 59, 75
2, 100320, Note_on_c, 0, 59, 0
2, 100320, Note_on_c, 0, 60, 85
2, 100440, Note_on_c, 0, 60, 0
2, 100440, Note_on_c, 0, 59, 75
2, 100560, Note_on_c, 0, 59, 0
2, 100560, Note_on_c, 0, 60, 84
2, 100680, Note_on_c, 0, 60, 0
2, 100680, Note_on_c, 0, 59, 75
2, 100800, Note_on_c, 0, 59, 0
2, 100800, Note_on_c, 0, 57, 88
2, 101040, Note_on_c, 0, 57, 0
2, 101040, Note_on_c, 0, 59, 75
2, 101160, Note_on_c, 0, 59, 0
2, 101280, Note_on_c, 0, 60, 86
2, 101520, Note_on_c, 0, 60, 0
2, 101520, Note_on_c, 0, 64, 75
2, 101640, Note_on_c, 0, 64, 0
2, 101760, Note_on_c, 0, 69, 86
2, 102000, Note_on_c, 0, 69, 0
2, 102000, Note_on_c, 0, 71, 75
2, 102120, Note_on_c, 0, 71, 0
2, 102240, Note_on_c, 0, 72, 86
2, 102480, Note_on_c, 0, 72, 0
2, 102480, Note_on_c, 0, 76, 75
2, 102600, Note_on_c, 0, 76, 0
2, 102720, Note_on_c, 0, 64, 73
2, 102720, Note_on_c, 0, 68, 73
2, 102720, Note_on_c, 0, 71, 86
2, 102960, Note_on_c, 0, 71, 0
2, 102960, Note_on_c, 0, 68, 0
2, 102960, Note_on_c, 0, 64, 0
2, 102960, Note_on_c, 0, 64, 68
2, 102960, Note_on_c, 0, 68, 68
2, 102960, Note_on_c, 0, 71, 81
2, 103200, Note_on_c, 0, 71, 0
2, 103200, Note_on_c, 0, 68, 0
2, 103200, Note_on_c, 0, 64, 0
2, 103200, Note_on_c, 0, 64, 68
2, 103200, Note_on_c, 0, 69, 68
2, 103200, Note_on_c, 0, 72, 81
2, 103440, Note_on_c, 0, 72, 0
2, 103440, Note_on_c, 0, 69, 0
2, 103440, Note_on_c, 0, 64, 0
2, 103440, Note_on_c, 0, 64, 72
2, 103440, Note_on_c, 0, 67, 72
2, 103440, Note_on_c, 0, 69, 72
2, 103440, Note_on_c, 0, 73, 85
2, 103680, Note_on_c, 0, 73, 0
2, 103680, Note_on_c, 0, 64, 0
2, 103680, Note_on_c, 0, 67, 0
2, 103680, Note_on_c, 0, 69, 0
2, 103680, Note_on_c, 0, 65, 77
2, 103680, Note_on_c, 0, 69, 77
2, 103680, Note_on_c, 0, 74, 91
2, 104160, Note_on_c, 0, 74, 0
2, 104160, Note_on_c, 0, 69, 0
2, 104160, Note_on_c, 0, 65, 0
2, 104160, Note_on_c, 0, 65, 81
2, 104280, Note_on_c, 0, 65, 0
2, 104280, Note_on_c, 0, 64, 72
2, 104400, Note_on_c, 0, 64, 0
2, 104400, Note_on_c, 0, 65, 80
2, 104520, Note_on_c, 0, 65, 0
2, 104520, Note_on_c, 0, 64, 72
2, 104640, Note_on_c, 0, 64, 0
2, 104640, Note_on_c, 0, 62, 84
2, 104880, Note_on_c, 0, 62, 0
2, 104880, Note_on_c, 0, 64, 72
2, 105000, Note_on_c, 0, 64, 0
2, 105120, Note_on_c, 0, 65, 82
2, 105360, Note_on_c, 0, 65, 0
2, 105360, Note_on_c, 0, 69, 72
2, 105480, Note_on_c, 0, 69, 0
2, 105600, Note_on_c, 0, 74, 82
2, 105840, Note_on_c, 0, 74, 0
2, 105840, Note_on_c, 0, 76, 72
2, 105960, Note_on_c, 0, 76, 0
2, 106080, Note_on_c, 0, 77, 82
2, 106320, Note_on_c, 0, 77, 0
2, 106320, Note_on_c, 0, 81, 72
2, 106440, Note_on_c, 0, 81, 0
2, 106560, Note_on_c, 0, 71, 71
2, 106560, Note_on_c, 0, 76, 71
2, 106560, Note_on_c, 0, 80, 85
2, 106800, Note_on_c, 0, 80, 0
2, 106800, Note_on_c, 0, 76, 0
2, 106800, Note_on_c, 0, 71, 0
2, 106800, Note_on_c, 0, 71, 67
2, 106800, Note_on_c, 0, 76, 67
2, 106800, Note_on_c, 0, 80, 80
2, 107040, Note_on_c, 0, 80, 0
2, 107040, Note_on_c, 0, 76, 0
2, 107040, Note_on_c, 0, 71, 0
2, 107040, Note_on_c, 0, 72, 77
2, 107040, Note_on_c, 0, 76, 77
2, 107040, Note_on_c, 0, 81, 92
2, 107520, Note_on_c, 0, 81, 0
2, 107520, Note_on_c, 0, 76, 0
2, 107520, Note_on_c, 0, 72, 0
2, 107520, End_track
3, 0, Start_track
3, 0, Title_t, "Piano left"
3, 0, Program_c, 0, 0
3, 0, Note_on_c, 0, 33, 67
3, 120, Note_on_c, 0, 33, 0
3, 120, Note_on_c, 0, 35, 60
3, 240, Note_on_c, 0, 35, 0
3, 240, Note_on_c, 0, 33, 65
3, 360, Note_on_c, 0, 33, 0
3, 360, Note_on_c, 0, 35, 60
3, 480, Note_on_c, 0, 35, 0
3, 480, Note_on_c, 0, 36, 68
3, 600, Note_on_c, 0, 36, 0
3, 600, Note_on_c, 0, 35, 60
3, 720, Note_on_c, 0, 35, 0
3, 720, Note_on_c, 0, 36, 67
3, 840, Note_on_c, 0, 36, 0
3, 840, Note_on_c, 0, 35, 60
3, 960, Note_on_c, 0, 35, 0
3, 960, Note_on_c, 0, 33, 70
3, 1200, Note_on_c, 0, 33, 0
3, 1200, Note_on_c, 0, 35, 60
3, 1320, Note_on_c, 0, 35, 0
3, 1440, Note_on_c, 0, 36, 69
3, 1680, Note_on_c, 0, 36, 0
3, 1680, Note_on_c, 0, 40, 60
3, 1800, Note_on_c, 0, 40, 0
3, 1920, Note_on_c, 0, 45, 69
3, 2160, Note_on_c, 0, 45, 0
3, 2160, Note_on_c, 0, 47, 60
3, 2280, Note_on_c, 0, 47, 0
3, 2400, Note_on_c, 0, 48, 69
3, 2640, Note_on_c, 0, 48, 0
3, 2640, Note_on_c, 0, 52, 60
3, 2760, Note_on_c, 0, 52, 0
3, 2880, Note_on_c, 0, 52, 67
3, 3108, Note_on_c, 0, 52, 0
3, 3120, Note_on_c, 0, 52, 60
3, 3348, Note_on_c, 0, 52, 0
3, 3360, Note_on_c, 0, 57, 70
3, 3840, Note_on_c, 0, 57, 0
3, 3840, Note_on_c, 0, 33, 67
3, 3960, Note_on_c, 0, 33, 0
3, 3960, Note_on_c, 0, 35, 60
3, 4080, Note_on_c, 0, 35, 0
3, 4080, Note_on_c, 0, 33, 65
3, 4200, Note_on_c, 0, 33, 0
3, 4200, Note_on_c, 0, 35, 60
3, 4320, Note_on_c, 0, 35, 0
3, 4320, Note_on_c, 0, 36, 68
3, 4440, Note_on_c, 0, 36, 0
3, 4440, Note_on_c, 0, 35, 60
3, 4560, Note_on_c, 0, 35, 0
3, 4560, Note_on_c, 0, 36, 67
3, 4680, Note_on_c, 0, 36, 0
3, 4680, Note_on_c, 0, 35, 60
3, 4800, Note_on_c, 0, 35, 0
3, 4800, Note_on_c, 0, 33, 70
3, 5040, Note_on_c, 0, 33, 0
3, 5040, Note_on_c, 0, 35, 60
3, 5160, Note_on_c, 0, 35, 0
3, 5280, Note_on_c, 0, 36, 69
3, 5520, Note_on_c, 0, 36, 0
3, 5520, Note_on_c, 0, 40, 60
3, 5640, Note_on_c, 0, 40, 0
3, 5760, Note_on_c, 0, 45, 69
3, 6000, Note_on_c, 0, 45, 0
3, 6000, Note_on_c, 0, 47, 60
3, 6120, Note_on_c, 0, 47, 0
3, 6240, Note_on_c, 0, 48, 69
3, 6480, Note_on_c, 0, 48, 0
3, 6480, Note_on_c, 0, 52, 60
3, 6600, Note_on_c, 0, 52, 0
3, 6720, Note_on_c, 0, 52, 67
3, 6948, Note_on_c, 0, 52, 0
3, 6960, Note_on_c, 0, 52, 60
3, 7188, Note_on_c, 0, 52, 0
3, 7200, Note_on_c, 0, 57, 70
3, 7680, Note_on_c, 0, 57, 0
3, 7680, Note_on_c, 0, 46, 67
3, 7800, Note_on_c, 0, 46, 0
3, 7800, Note_on_c, 0, 45, 60
3, 7920, Note_on_c, 0, 45, 0
3, 7920, Note_on_c, 0, 46, 65
3, 8040, Note_on_c, 0, 46, 0
3, 8040, Note_on_c, 0, 45, 60
3, 8160, Note_on_c, 0, 45, 0
3, 8160, Note_on_c, 0, 43, 68
3, 8280, Note_on_c, 0, 43, 0
3, 8280, Note_on_c, 0, 45, 60
3, 8400, Note_on_c, 0, 45, 0
3, 8400, Note_on_c, 0, 43, 67
3, 8520, Note_on_c, 0, 43, 0
3, 8520, Note_on_c, 0, 45, 60
3, 8640, Note_on_c, 0, 45, 0
3, 8640, Note_on_c, 0, 46, 70
3, 8880, Note_on_c, 0, 46, 0
3, 8880, Note_on_c, 0, 43, 60
3, 9000, Note_on_c, 0, 43, 0
3, 9120, Note_on_c, 0, 43, 69
3, 9360, Note_on_c, 0, 43, 0
3, 9360, Note_on_c, 0, 40, 60
3, 9480, Note_on_c, 0, 40, 0
3, 9600, Note_on_c, 0, 37, 69
3, 9840, Note_on_c, 0, 37, 0
3, 9840, Note_on_c, 0, 40, 60
3, 9960, Note_on_c, 0, 40, 0
3, 10080, Note_on_c, 0, 40, 69
3, 10320, Note_on_c, 0, 40, 0
3, 10320, Note_on_c, 0, 43, 60
3, 10440, Note_on_c, 0, 43, 0
3, 10560, Note_on_c, 0, 45, 67
3, 10788, Note_on_c, 0, 45, 0
3, 10800, Note_on_c, 0, 45, 60
3, 11028, Note_on_c, 0, 45, 0
3, 11040, Note_on_c, 0, 50, 70
3, 11520, Note_on_c, 0, 50, 0
3, 11520, Note_on_c, 0, 48, 67
3, 11640, Note_on_c, 0, 48, 0
3, 11640, Note_on_c, 0, 47, 60
3, 11760, Note_on_c, 0, 47, 0
3, 11760, Note_on_c, 0, 48, 65
3, 11880, Note_on_c, 0, 48, 0
3, 11880, Note_on_c, 0, 47, 60
3, 12000, Note_on_c, 0, 47, 0
3, 12000, Note_on_c, 0, 45, 68
3, 12120, Note_on_c, 0, 45, 0
3, 12120, Note_on_c, 0, 47, 60
3, 12240, Note_on_c, 0, 47, 0
3, 12240, Note_on_c, 0, 45, 67
3, 12360, Note_on_c, 0, 45, 0
3, 12360, Note_on_c, 0, 47, 60
3, 12480, Note_on_c, 0, 47, 0
3, 12480, Note_on_c, 0, 48, 70
3, 12720, Note_on_c, 0, 48, 0
3, 12720, Note_on_c, 0, 45, 60
3, 12840, Note_on_c, 0, 45, 0
3, 12960, Note_on_c, 0, 45, 69
3, 13200, Note_on_c, 0, 45, 0
3, 13200, Note_on_c, 0, 42, 60
3, 13320, Note_on_c, 0, 42, 0
3, 13440, Note_on_c, 0, 39, 69
3, 13680, Note_on_c, 0, 39, 0
3, 13680, Note_on_c, 0, 42, 60
3, 13800, Note_on_c, 0, 42, 0
3, 13920, Note_on_c, 0, 42, 69
3, 14160, Note_on_c, 0, 42, 0
3, 14160, Note_on_c, 0, 45, 60
3, 14280, Note_on_c, 0, 45, 0
3, 14400, Note_on_c, 0, 47, 67
3, 14640, Note_on_c, 0, 47, 0
3, 14640, Note_on_c, 0, 47, 60
3, 14880, Note_on_c, 0, 47, 0
3, 14880, Note_on_c, 0, 52, 70
3, 15360, Note_on_c, 0, 52, 0
3, 15360, Note_on_c, 0, 45, 73
3, 15480, Note_on_c, 0, 45, 0
3, 15480, Note_on_c, 0, 47, 66
3, 15600, Note_on_c, 0, 47, 0
3, 15600, Note_on_c, 0, 45, 71
3, 15720, Note_on_c, 0, 45, 0
3, 15720, Note_on_c, 0, 47, 66
3, 15840, Note_on_c, 0, 47, 0
3, 15840, Note_on_c, 0, 48, 74
3, 15960, Note_on_c, 0, 48, 0
3, 15960, Note_on_c, 0, 47, 66
3, 16080, Note_on_c, 0, 47, 0
3, 16080, Note_on_c, 0, 48, 73
3, 16200, Note_on_c, 0, 48, 0
3, 16200, Note_on_c, 0, 47, 66
3, 16320, Note_on_c, 0, 47, 0
3, 16320, Note_on_c, 0, 45, 77
3, 16560, Note_on_c, 0, 45, 0
3, 16560, Note_on_c, 0, 47, 66
3, 16680, Note_on_c, 0, 47, 0
3, 16800, Note_on_c, 0, 48, 75
3, 17040, Note_on_c, 0, 48, 0
3, 17040, Note_on_c, 0, 52, 66
3, 17160, Note_on_c, 0, 52, 0
3, 17280, Note_on_c, 0, 57, 75
3, 17520, Note_on_c, 0, 57, 0
3, 17520, Note_on_c, 0, 59, 66
3, 17640, Note_on_c, 0, 59, 0
3, 17760, Note_on_c, 0, 60, 75
3, 18000, Note_on_c, 0, 60, 0
3, 18000, Note_on_c, 0, 64, 66
3, 18120, Note_on_c, 0, 64, 0
3, 18240, Note_on_c, 0, 52, 79
3, 18468, Note_on_c, 0, 52, 0
3, 18480, Note_on_c, 0, 52, 69
3, 18708, Note_on_c, 0, 52, 0
3, 18720, Note_on_c, 0, 57, 80
3, 18948, Note_on_c, 0, 57, 0
3, 18960, Note_on_c, 0, 45, 72
3, 19188, Note_on_c, 0, 45, 0
3, 19200, Note_on_c, 0, 50, 86
3, 19320, Note_on_c, 0, 50, 0
3, 19320, Note_on_c, 0, 52, 73
3, 19440, Note_on_c, 0, 52, 0
3, 19440, Note_on_c, 0, 50, 78
3, 19560, Note_on_c, 0, 50, 0
3, 19560, Note_on_c, 0, 52, 69
3, 19680, Note_on_c, 0, 52, 0
3, 19680, Note_on_c, 0, 53, 71
3, 19800, Note_on_c, 0, 53, 0
3, 19800, Note_on_c, 0, 52, 63
3, 19920, Note_on_c, 0, 52, 0
3, 19920, Note_on_c, 0, 53, 70
3, 20040, Note_on_c, 0, 53, 0
3, 20040, Note_on_c, 0, 52, 63
3, 20160, Note_on_c, 0, 52, 0
3, 20160, Note_on_c, 0, 50, 73
3, 20400, Note_on_c, 0, 50, 0
3, 20400, Note_on_c, 0, 52, 63
3, 20520, Note_on_c, 0, 52, 0
3, 20640, Note_on_c, 0, 53, 72
3, 20880, Note_on_c, 0, 53, 0
3, 20880, Note_on_c, 0, 57, 63
3, 21000, Note_on_c, 0, 57, 0
3, 21120, Note_on_c, 0, 62, 72
3, 21360, Note_on_c, 0, 62, 0
3, 21360, Note_on_c, 0, 64, 63
3, 21480, Note_on_c, 0, 64, 0
3, 21600, Note_on_c, 0, 65, 72
3, 21840, Note_on_c, 0, 65, 0
3, 21840, Note_on_c, 0, 69, 63
3, 21960, Note_on_c, 0, 69, 0
3, 22080, Note_on_c, 0, 64, 70
3, 22308, Note_on_c, 0, 64, 0
3, 22320, Note_on_c, 0, 64, 63
3, 22548, Note_on_c, 0, 64, 0
3, 22560, Note_on_c, 0, 69, 73
3, 23040, Note_on_c, 0, 69, 0
3, 23040, Note_on_c, 0, 46, 67
3, 23160, Note_on_c, 0, 46, 0
3, 23160, Note_on_c, 0, 45, 60
3, 23280, Note_on_c, 0, 45, 0
3, 23280, Note_on_c, 0, 46, 65
3, 23400, Note_on_c, 0, 46, 0
3, 23400, Note_on_c, 0, 45, 60
3, 23520, Note_on_c, 0, 45, 0
3, 23520, Note_on_c, 0, 43, 68
3, 23640, Note_on_c, 0, 43, 0
3, 23640, Note_on_c, 0, 45, 60
3, 23760, Note_on_c, 0, 45, 0
3, 23760, Note_on_c, 0, 43, 67
3, 23880, Note_on_c, 0, 43, 0
3, 23880, Note_on_c, 0, 45, 60
3, 24000, Note_on_c, 0, 45, 0
3, 24000, Note_on_c, 0, 46, 70
3, 24240, Note_on_c, 0, 46, 0
3, 24240, Note_on_c, 0, 43, 60
3, 24360, Note_on_c, 0, 43, 0
3, 24480, Note_on_c, 0, 43, 69
3, 24720, Note_on_c, 0, 43, 0
3, 24720, Note_on_c, 0, 40, 60
3, 24840, Note_on_c, 0, 40, 0
3, 24960, Note_on_c, 0, 37, 69
3, 25200, Note_on_c, 0, 37, 0
3, 25200, Note_on_c, 0, 40, 60
3, 25320, Note_on_c, 0, 40, 0
3, 25440, Note_on_c, 0, 40, 69
3, 25680, Note_on_c, 0, 40, 0
3, 25680, Note_on_c, 0, 43, 60
3, 25800, Note_on_c, 0, 43, 0
3, 25920, Note_on_c, 0, 45, 67
3, 26148, Note_on_c, 0, 45, 0
3, 26160, Note_on_c, 0, 45, 60
3, 26388, Note_on_c, 0, 45, 0
3, 26400, Note_on_c, 0, 50, 70
3, 26880, Note_on_c, 0, 50, 0
3, 26880, Note_on_c, 0, 48, 67
3, 27000, Note_on_c, 0, 48, 0
3, 27000, Note_on_c, 0, 47, 60
3, 27120, Note_on_c, 0, 47, 0
3, 27120, Note_on_c, 0, 48, 65
3, 27240, Note_on_c, 0, 48, 0
3, 27240, Note_on_c, 0, 47, 60
3, 27360, Note_on_c, 0, 47, 0
3, 27360, Note_on_c, 0, 45, 68
3, 27480, Note_on_c, 0, 45, 0
3, 27480, Note_on_c, 0, 47, 60
3, 27600, Note_on_c, 0, 47, 0
3, 27600, Note_on_c, 0, 45, 67
3, 27720, Note_on_c, 0, 45, 0
3, 27720, Note_on_c, 0, 47, 60
3, 27840, Note_on_c, 0, 47, 0
3, 27840, Note_on_c, 0, 48, 70
3, 28080, Note_on_c, 0, 48, 0
3, 28080, Note_on_c, 0, 45, 60
3, 28200, Note_on_c, 0, 45, 0
3, 28320, Note_on_c, 0, 45, 69
3, 28560, Note_on_c, 0, 45, 0
3, 28560, Note_on_c, 0, 42, 60
3, 28680, Note_on_c, 0, 42, 0
3, 28800, Note_on_c, 0, 39, 69
3, 29040, Note_on_c, 0, 39, 0
3, 29040, Note_on_c, 0, 42, 60
3, 29160, Note_on_c, 0, 42, 0
3, 29280, Note_on_c, 0, 42, 69
3, 29520, Note_on_c, 0, 42, 0
3, 29520, Note_on_c, 0, 45, 60
3, 29640, Note_on_c, 0, 45, 0
3, 29760, Note_on_c, 0, 47, 67
3, 29988, Note_on_c, 0, 47, 0
3, 30000, Note_on_c, 0, 47, 60
3, 30228, Note_on_c, 0, 47, 0
3, 30240, Note_on_c, 0, 52, 70
3, 30720, Note_on_c, 0, 52, 0
3, 30720, Note_on_c, 0, 45, 73
3, 30840, Note_on_c, 0, 45, 0
3, 30840, Note_on_c, 0, 47, 66
3, 30960, Note_on_c, 0, 47, 0
3, 30960, Note_on_c, 0, 45, 71
3, 31080, Note_on_c, 0, 45, 0
3, 31080, Note_on_c, 0, 47, 66
3, 31200, Note_on_c, 0, 47, 0
3, 31200, Note_on_c, 0, 48, 74
3, 31320, Note_on_c, 0, 48, 0
3, 31320, Note_on_c, 0, 47, 66
3, 31440, Note_on_c, 0, 47, 0
3, 31440, Note_on_c, 0, 48, 73
3, 31560, Note_on_c, 0, 48, 0
3, 31560, Note_on_c, 0, 47, 66
3, 31680, Note_on_c, 0, 47, 0
3, 31680, Note_on_c, 0, 45, 77
3, 31920, Note_on_c, 0, 45, 0
3, 31920, Note_on_c, 0, 47, 66
3, 32040, Note_on_c, 0, 47, 0
3, 32160, Note_on_c, 0, 48, 75
3, 32400, Note_on_c, 0, 48, 0
3, 32400, Note_on_c, 0, 52, 66
3, 32520, Note_on_c, 0, 52, 0
3, 32640, Note_on_c, 0, 57, 75
3, 32880, Note_on_c, 0, 57, 0
3, 32880, Note_on_c, 0, 59, 66
3, 33000, Note_on_c, 0, 59, 0
3, 33120, Note_on_c, 0, 60, 75
3, 33360, Note_on_c, 0, 60, 0
3, 33360, Note_on_c, 0, 64, 66
3, 33480, Note_on_c, 0, 64, 0
3, 33600, Note_on_c, 0, 52, 79
3, 33828, Note_on_c, 0, 52, 0
3, 33840, Note_on_c, 0, 52, 69
3, 34068, Note_on_c, 0, 52, 0
3, 34080, Note_on_c, 0, 57, 80
3, 34308, Note_on_c, 0, 57, 0
3, 34320, Note_on_c, 0, 45, 72
3, 34548, Note_on_c, 0, 45, 0
3, 34560, Note_on_c, 0, 50, 86
3, 34680, Note_on_c, 0, 50, 0
3, 34680, Note_on_c, 0, 52, 73
3, 34800, Note_on_c, 0, 52, 0
3, 34800, Note_on_c, 0, 50, 78
3, 34920, Note_on_c, 0, 50, 0
3, 34920, Note_on_c, 0, 52, 69
3, 35040, Note_on_c, 0, 52, 0
3, 35040, Note_on_c, 0, 53, 71
3, 35160, Note_on_c, 0, 53, 0
3, 35160, Note_on_c, 0, 52, 63
3, 35280, Note_on_c, 0, 52, 0
3, 35280, Note_on_c, 0, 53, 70
3, 35400, Note_on_c, 0, 53, 0
3, 35400, Note_on_c, 0, 52, 63
3, 35520, Note_on_c, 0, 52, 0
3, 35520, Note_on_c, 0, 50, 73
3, 35760, Note_on_c, 0, 50, 0
3, 35760, Note_on_c, 0, 52, 63
3, 35880, Note_on_c, 0, 52, 0
3, 36000, Note_on_c, 0, 53, 72
3, 36240, Note_on_c, 0, 53, 0
3, 36240, Note_on_c, 0, 57, 63
3, 36360, Note_on_c, 0, 57, 0
3, 36480, Note_on_c, 0, 62, 72
3, 36720, Note_on_c, 0, 62, 0
3, 36720, Note_on_c, 0, 64, 63
3, 36840, Note_on_c, 0, 64, 0
3, 36960, Note_on_c, 0, 65, 72
3, 37200, Note_on_c, 0, 65, 0
3, 37200, Note_on_c, 0, 69, 63
3, 37320, Note_on_c, 0, 69, 0
3, 37440, Note_on_c, 0, 64, 70
3, 37668, Note_on_c, 0, 64, 0
3, 37680, Note_on_c, 0, 64, 63
3, 37908, Note_on_c, 0, 64, 0
3, 37920, Note_on_c, 0, 69, 73
3, 38400, Note_on_c, 0, 69, 0
3, 38400, Note_on_c, 0, 53, 34
3, 38520, Note_on_c, 0, 53, 0
3, 38520, Note_on_c, 0, 57, 27
3, 38640, Note_on_c, 0, 57, 0
3, 38640, Note_on_c, 0, 53, 35
3, 38760, Note_on_c, 0, 53, 0
3, 38760, Note_on_c, 0, 57, 27
3, 38880, Note_on_c, 0, 57, 0
3, 38880, Note_on_c, 0, 53, 36
3, 39000, Note_on_c, 0, 53, 0
3, 39000, Note_on_c, 0, 57, 32
3, 39120, Note_on_c, 0, 57, 0
3, 39120, Note_on_c, 0, 48, 38
3, 39240, Note_on_c, 0, 48, 0
3, 39240, Note_on_c, 0, 55, 31
3, 39360, Note_on_c, 0, 55, 0
3, 39360, Note_on_c, 0, 53, 40
3, 39480, Note_on_c, 0, 53, 0
3, 39480, Note_on_c, 0, 57, 36
3, 39600, Note_on_c, 0, 57, 0
3, 39600, Note_on_c, 0, 55, 40
3, 39720, Note_on_c, 0, 55, 0
3, 39720, Note_on_c, 0, 58, 35
3, 39840, Note_on_c, 0, 58, 0
3, 39840, Note_on_c, 0, 57, 44
3, 39960, Note_on_c, 0, 57, 0
3, 39960, Note_on_c, 0, 60, 40
3, 40080, Note_on_c, 0, 60, 0
3, 40080, Note_on_c, 0, 48, 36
3, 40200, Note_on_c, 0, 48, 0
3, 40200, Note_on_c, 0, 55, 36
3, 40320, Note_on_c, 0, 55, 0
3, 40320, Note_on_c, 0, 53, 34
3, 40440, Note_on_c, 0, 53, 0
3, 40440, Note_on_c, 0, 57, 28
3, 40560, Note_on_c, 0, 57, 0
3, 40560, Note_on_c, 0, 53, 35
3, 40680, Note_on_c, 0, 53, 0
3, 40680, Note_on_c, 0, 57, 29
3, 40800, Note_on_c, 0, 57, 0
3, 40800, Note_on_c, 0, 53, 36
3, 40920, Note_on_c, 0, 53, 0
3, 40920, Note_on_c, 0, 57, 31
3, 41040, Note_on_c, 0, 57, 0
3, 41040, Note_on_c, 0, 48, 38
3, 41160, Note_on_c, 0, 48, 0
3, 41160, Note_on_c, 0, 55, 31
3, 41280, Note_on_c, 0, 55, 0
3, 41280, Note_on_c, 0, 53, 40
3, 41400, Note_on_c, 0, 53, 0
3, 41400, Note_on_c, 0, 57, 36
3, 41520, Note_on_c, 0, 57, 0
3, 41520, Note_on_c, 0, 55, 40
3, 41640, Note_on_c, 0, 55, 0
3, 41640, Note_on_c, 0, 58, 35
3, 41760, Note_on_c, 0, 58, 0
3, 41760, Note_on_c, 0, 57, 44
3, 41880, Note_on_c, 0, 57, 0
3, 41880, Note_on_c, 0, 60, 40
3, 42000, Note_on_c, 0, 60, 0
3, 42000, Note_on_c, 0, 55, 48
3, 42120, Note_on_c, 0, 55, 0
3, 42120, Note_on_c, 0, 59, 43
3, 42240, Note_on_c, 0, 59, 0
3, 42240, Note_on_c, 0, 60, 50
3, 42360, Note_on_c, 0, 60, 0
3, 42360, Note_on_c, 0, 64, 41
3, 42480, Note_on_c, 0, 64, 0
3, 42480, Note_on_c, 0, 60, 40
3, 42600, Note_on_c, 0, 60, 0
3, 42600, Note_on_c, 0, 64, 33
3, 42720, Note_on_c, 0, 64, 0
3, 42720, Note_on_c, 0, 60, 40
3, 42840, Note_on_c, 0, 60, 0
3, 42840, Note_on_c, 0, 64, 35
3, 42960, Note_on_c, 0, 64, 0
3, 42960, Note_on_c, 0, 55, 40
3, 43080, Note_on_c, 0, 55, 0
3, 43080, Note_on_c, 0, 62, 32
3, 43200, Note_on_c, 0, 62, 0
3, 43200, Note_on_c, 0, 60, 40
3, 43320, Note_on_c, 0, 60, 0
3, 43320, Note_on_c, 0, 64, 36
3, 43440, Note_on_c, 0, 64, 0
3, 43440, Note_on_c, 0, 62, 40
3, 43560, Note_on_c, 0, 62, 0
3, 43560, Note_on_c, 0, 65, 35
3, 43680, Note_on_c, 0, 65, 0
3, 43680, Note_on_c, 0, 64, 44
3, 43800, Note_on_c, 0, 64, 0
3, 43800, Note_on_c, 0, 67, 37
3, 43920, Note_on_c, 0, 67, 0
3, 43920, Note_on_c, 0, 55, 38
3, 44040, Note_on_c, 0, 55, 0
3, 44040, Note_on_c, 0, 62, 40
3, 44160, Note_on_c, 0, 62, 0
3, 44160, Note_on_c, 0, 60, 44
3, 44280, Note_on_c, 0, 60, 0
3, 44280, Note_on_c, 0, 64, 33
3, 44400, Note_on_c, 0, 64, 0
3, 44400, Note_on_c, 0, 60, 39
3, 44520, Note_on_c, 0, 60, 0
3, 44520, Note_on_c, 0, 64, 33
3, 44640, Note_on_c, 0, 64, 0
3, 44640, Note_on_c, 0, 60, 40
3, 44760, Note_on_c, 0, 60, 0
3, 44760, Note_on_c, 0, 64, 35
3, 44880, Note_on_c, 0, 64, 0
3, 44880, Note_on_c, 0, 55, 40
3, 45000, Note_on_c, 0, 55, 0
3, 45000, Note_on_c, 0, 62, 32
3, 45120, Note_on_c, 0, 62, 0
3, 45120, Note_on_c, 0, 60, 40
3, 45240, Note_on_c, 0, 60, 0
3, 45240, Note_on_c, 0, 64, 36
3, 45360, Note_on_c, 0, 64, 0
3, 45360, Note_on_c, 0, 62, 40
3, 45480, Note_on_c, 0, 62, 0
3, 45480, Note_on_c, 0, 65, 35
3, 45600, Note_on_c, 0, 65, 0
3, 45600, Note_on_c, 0, 64, 44
3, 45840, Note_on_c, 0, 64, 0
3, 46080, Note_on_c, 0, 53, 34
3, 46200, Note_on_c, 0, 53, 0
3, 46200, Note_on_c, 0, 57, 29
3, 46320, Note_on_c, 0, 57, 0
3, 46320, Note_on_c, 0, 53, 35
3, 46440, Note_on_c, 0, 53, 0
3, 46440, Note_on_c, 0, 57, 29
3, 46560, Note_on_c, 0, 57, 0
3, 46560, Note_on_c, 0, 53, 36
3, 46680, Note_on_c, 0, 53, 0
3, 46680, Note_on_c, 0, 57, 32
3, 46800, Note_on_c, 0, 57, 0
3, 46800, Note_on_c, 0, 48, 38
3, 46920, Note_on_c, 0, 48, 0
3, 46920, Note_on_c, 0, 55, 31
3, 47040, Note_on_c, 0, 55, 0
3, 47040, Note_on_c, 0, 53, 40
3, 47160, Note_on_c, 0, 53, 0
3, 47160, Note_on_c, 0, 57, 36
3, 47280, Note_on_c, 0, 57, 0
3, 47280, Note_on_c, 0, 55, 40
3, 47400, Note_on_c, 0, 55, 0
3, 47400, Note_on_c, 0, 58, 35
3, 47520, Note_on_c, 0, 58, 0
3, 47520, Note_on_c, 0, 57, 44
3, 47640, Note_on_c, 0, 57, 0
3, 47640, Note_on_c, 0, 60, 40
3, 47760, Note_on_c, 0, 60, 0
3, 47760, Note_on_c, 0, 48, 38
3, 47880, Note_on_c, 0, 48, 0
3, 47880, Note_on_c, 0, 55, 36
3, 48000, Note_on_c, 0, 55, 0
3, 48000, Note_on_c, 0, 53, 34
3, 48120, Note_on_c, 0, 53, 0
3, 48120, Note_on_c, 0, 57, 29
3, 48240, Note_on_c, 0, 57, 0
3, 48240, Note_on_c, 0, 53, 35
3, 48360, Note_on_c, 0, 53, 0
3, 48360, Note_on_c, 0, 57, 29
3, 48480, Note_on_c, 0, 57, 0
3, 48480, Note_on_c, 0, 53, 36
3, 48600, Note_on_c, 0, 53, 0
3, 48600, Note_on_c, 0, 57, 32
3, 48720, Note_on_c, 0, 57, 0
3, 48720, Note_on_c, 0, 48, 38
3, 48840, Note_on_c, 0, 48, 0
3, 48840, Note_on_c, 0, 55, 31
3, 48960, Note_on_c, 0, 55, 0
3, 48960, Note_on_c, 0, 53, 40
3, 49080, Note_on_c, 0, 53, 0
3, 49080, Note_on_c, 0, 57, 36
3, 49200, Note_on_c, 0, 57, 0
3, 49200, Note_on_c, 0, 55, 40
3, 49320, Note_on_c, 0, 55, 0
3, 49320, Note_on_c, 0, 58, 35
3, 49440, Note_on_c, 0, 58, 0
3, 49440, Note_on_c, 0, 57, 44
3, 49560, Note_on_c, 0, 57, 0
3, 49560, Note_on_c, 0, 60, 40
3, 49680, Note_on_c, 0, 60, 0
3, 49680, Note_on_c, 0, 55, 48
3, 49800, Note_on_c, 0, 55, 0
3, 49800, Note_on_c, 0, 59, 43
3, 49920, Note_on_c, 0, 59, 0
3, 49920, Note_on_c, 0, 60, 50
3, 50040, Note_on_c, 0, 60, 0
3, 50040, Note_on_c, 0, 64, 41
3, 50160, Note_on_c, 0, 64, 0
3, 50160, Note_on_c, 0, 60, 40
3, 50280, Note_on_c, 0, 60, 0
3, 50280, Note_on_c, 0, 64, 33
3, 50400, Note_on_c, 0, 64, 0
3, 50400, Note_on_c, 0, 60, 40
3, 50520, Note_on_c, 0, 60, 0
3, 50520, Note_on_c, 0, 64, 35
3, 50640, Note_on_c, 0, 64, 0
3, 50640, Note_on_c, 0, 55, 40
3, 50760, Note_on_c, 0, 55, 0
3, 50760, Note_on_c, 0, 62, 32
3, 50880, Note_on_c, 0, 62, 0
3, 50880, Note_on_c, 0, 60, 40
3, 51000, Note_on_c, 0, 60, 0
3, 51000, Note_on_c, 0, 64, 36
3, 51120, Note_on_c, 0, 64, 0
3, 51120, Note_on_c, 0, 62, 40
3, 51240, Note_on_c, 0, 62, 0
3, 51240, Note_on_c, 0, 65, 35
3, 51360, Note_on_c, 0, 65, 0
3, 51360, Note_on_c, 0, 64, 44
3, 51480, Note_on_c, 0, 64, 0
3, 51480, Note_on_c, 0, 67, 37
3, 51600, Note_on_c, 0, 67, 0
3, 51600, Note_on_c, 0, 55, 38
3, 51720, Note_on_c, 0, 55, 0
3, 51720, Note_on_c, 0, 62, 40
3, 51840, Note_on_c, 0, 62, 0
3, 51840, Note_on_c, 0, 60, 44
3, 51960, Note_on_c, 0, 60, 0
3, 51960, Note_on_c, 0, 64, 33
3, 52080, Note_on_c, 0, 64, 0
3, 52080, Note_on_c, 0, 60, 39
3, 52200, Note_on_c, 0, 60, 0
3, 52200, Note_on_c, 0, 64, 33
3, 52320, Note_on_c, 0, 64, 0
3, 52320, Note_on_c, 0, 60, 40
3, 52440, Note_on_c, 0, 60, 0
3, 52440, Note_on_c, 0, 64, 35
3, 52560, Note_on_c, 0, 64, 0
3, 52560, Note_on_c, 0, 55, 40
3, 52680, Note_on_c, 0, 55, 0
3, 52680, Note_on_c, 0, 62, 32
3, 52800, Note_on_c, 0, 62, 0
3, 52800, Note_on_c, 0, 60, 40
3, 52920, Note_on_c, 0, 60, 0
3, 52920, Note_on_c, 0, 64, 36
3, 53040, Note_on_c, 0, 64, 0
3, 53040, Note_on_c, 0, 62, 40
3, 53160, Note_on_c, 0, 62, 0
3, 53160, Note_on_c, 0, 65, 35
3, 53280, Note_on_c, 0, 65, 0
3, 53280, Note_on_c, 0, 64, 44
3, 53520, Note_on_c, 0, 64, 0
3, 53760, Note_on_c, 0, 36, 78
3, 54480, Note_on_c, 0, 36, 0
3, 54480, Note_on_c, 0, 37, 58
3, 54720, Note_on_c, 0, 37, 0
3, 54720, Note_on_c, 0, 36, 70
3, 54960, Note_on_c, 0, 36, 0
3, 54960, Note_on_c, 0, 44, 61
3, 55200, Note_on_c, 0, 44, 0
3, 55200, Note_on_c, 0, 43, 66
3, 55680, Note_on_c, 0, 43, 0
3, 55680, Note_on_c, 0, 36, 80
3, 56400, Note_on_c, 0, 36, 0
3, 56400, Note_on_c, 0, 37, 66
3, 56640, Note_on_c, 0, 37, 0
3, 56640, Note_on_c, 0, 36, 78
3, 56880, Note_on_c, 0, 36, 0
3, 56880, Note_on_c, 0, 46, 66
3, 57120, Note_on_c, 0, 46, 0
3, 57120, Note_on_c, 0, 44, 76
3, 57600, Note_on_c, 0, 44, 0
3, 57600, Note_on_c, 0, 49, 46
3, 58320, Note_on_c, 0, 49, 0
3, 58320, Note_on_c, 0, 44, 43
3, 58560, Note_on_c, 0, 44, 0
3, 58560, Note_on_c, 0, 49, 46
3, 58800, Note_on_c, 0, 49, 0
3, 58800, Note_on_c, 0, 51, 42
3, 59040, Note_on_c, 0, 51, 0
3, 59040, Note_on_c, 0, 53, 46
3, 59280, Note_on_c, 0, 53, 0
3, 59280, Note_on_c, 0, 44, 43
3, 59520, Note_on_c, 0, 44, 0
3, 59520, Note_on_c, 0, 49, 46
3, 59760, Note_on_c, 0, 49, 0
3, 59760, Note_on_c, 0, 49, 47
3, 59760, Note_on_c, 0, 52, 47
3, 60000, Note_on_c, 0, 52, 0
3, 60000, Note_on_c, 0, 49, 0
3, 60000, Note_on_c, 0, 49, 53
3, 60000, Note_on_c, 0, 53, 53
3, 60228, Note_on_c, 0, 53, 0
3, 60228, Note_on_c, 0, 49, 0
3, 60240, Note_on_c, 0, 49, 59
3, 60240, Note_on_c, 0, 53, 59
3, 60468, Note_on_c, 0, 53, 0
3, 60468, Note_on_c, 0, 49, 0
3, 60480, Note_on_c, 0, 48, 65
3, 60480, Note_on_c, 0, 55, 65
3, 60720, Note_on_c, 0, 55, 0
3, 60720, Note_on_c, 0, 48, 0
3, 61080, Note_on_c, 0, 60, 47
3, 61200, Note_on_c, 0, 60, 0
3, 61200, Note_on_c, 0, 58, 46
3, 61320, Note_on_c, 0, 58, 0
3, 61320, Note_on_c, 0, 55, 45
3, 61440, Note_on_c, 0, 55, 0
3, 61440, Note_on_c, 0, 53, 34
3, 61560, Note_on_c, 0, 53, 0
3, 61560, Note_on_c, 0, 57, 29
3, 61680, Note_on_c, 0, 57, 0
3, 61680, Note_on_c, 0, 53, 35
3, 61800, Note_on_c, 0, 53, 0
3, 61800, Note_on_c, 0, 57, 29
3, 61920, Note_on_c, 0, 57, 0
3, 61920, Note_on_c, 0, 53, 36
3, 62040, Note_on_c, 0, 53, 0
3, 62040, Note_on_c, 0, 57, 32
3, 62160, Note_on_c, 0, 57, 0
3, 62160, Note_on_c, 0, 48, 38
3, 62280, Note_on_c, 0, 48, 0
3, 62280, Note_on_c, 0, 55, 31
3, 62400, Note_on_c, 0, 55, 0
3, 62400, Note_on_c, 0, 53, 40
3, 62520, Note_on_c, 0, 53, 0
3, 62520, Note_on_c, 0, 57, 36
3, 62640, Note_on_c, 0, 57, 0
3, 62640, Note_on_c, 0, 55, 40
3, 62760, Note_on_c, 0, 55, 0
3, 62760, Note_on_c, 0, 58, 35
3, 62880, Note_on_c, 0, 58, 0
3, 62880, Note_on_c, 0, 57, 44
3, 63000, Note_on_c, 0, 57, 0
3, 63000, Note_on_c, 0, 60, 40
3, 63120, Note_on_c, 0, 60, 0
3, 63120, Note_on_c, 0, 48, 39
3, 63240, Note_on_c, 0, 48, 0
3, 63240, Note_on_c, 0, 55, 39
3, 63360, Note_on_c, 0, 55, 0
3, 63360, Note_on_c, 0, 53, 34
3, 63480, Note_on_c, 0, 53, 0
3, 63480, Note_on_c, 0, 57, 29
3, 63600, Note_on_c, 0, 57, 0
3, 63600, Note_on_c, 0, 53, 35
3, 63720, Note_on_c, 0, 53, 0
3, 63720, Note_on_c, 0, 57, 29
3, 63840, Note_on_c, 0, 57, 0
3, 63840, Note_on_c, 0, 53, 36
3, 63960, Note_on_c, 0, 53, 0
3, 63960, Note_on_c, 0, 57, 32
3, 64080, Note_on_c, 0, 57, 0
3, 64080, Note_on_c, 0, 48, 38
3, 64200, Note_on_c, 0, 48, 0
3, 64200, Note_on_c, 0, 55, 31
3, 64320, Note_on_c, 0, 55, 0
3, 64320, Note_on_c, 0, 53, 40
3, 64440, Note_on_c, 0, 53, 0
3, 64440, Note_on_c, 0, 57, 36
3, 64560, Note_on_c, 0, 57, 0
3, 64560, Note_on_c, 0, 55, 40
3, 64680, Note_on_c, 0, 55, 0
3, 64680, Note_on_c, 0, 58, 35
3, 64800, Note_on_c, 0, 58, 0
3, 64800, Note_on_c, 0, 57, 44
3, 64920, Note_on_c, 0, 57, 0
3, 64920, Note_on_c, 0, 60, 40
3, 65040, Note_on_c, 0, 60, 0
3, 65040, Note_on_c, 0, 53, 39
3, 65160, Note_on_c, 0, 53, 0
3, 65160, Note_on_c, 0, 57, 39
3, 65280, Note_on_c, 0, 57, 0
3, 65280, Note_on_c, 0, 58, 50
3, 66000, Note_on_c, 0, 58, 0
3, 66000, Note_on_c, 0, 53, 43
3, 66240, Note_on_c, 0, 53, 0
3, 66240, Note_on_c, 0, 58, 46
3, 66480, Note_on_c, 0, 58, 0
3, 66480, Note_on_c, 0, 60, 47
3, 66720, Note_on_c, 0, 60, 0
3, 66720, Note_on_c, 0, 62, 51
3, 66960, Note_on_c, 0, 62, 0
3, 66960, Note_on_c, 0, 58, 47
3, 67200, Note_on_c, 0, 58, 0
3, 67200, Note_on_c, 0, 57, 46
3, 67440, Note_on_c, 0, 57, 0
3, 67440, Note_on_c, 0, 60, 41
3, 67680, Note_on_c, 0, 60, 0
3, 67680, Note_on_c, 0, 62, 44
3, 67920, Note_on_c, 0, 62, 0
3, 67920, Note_on_c, 0, 55, 38
3, 68040, Note_on_c, 0, 55, 0
3, 68160, Note_on_c, 0, 48, 40
3, 68640, Note_on_c, 0, 48, 0
3, 68640, Note_on_c, 0, 53, 37
3, 68880, Note_on_c, 0, 53, 0
3, 69120, Note_on_c, 0, 36, 78
3, 69840, Note_on_c, 0, 36, 0
3, 69840, Note_on_c, 0, 37, 58
3, 70080, Note_on_c, 0, 37, 0
3, 70080, Note_on_c, 0, 36, 70
3, 70320, Note_on_c, 0, 36, 0
3, 70320, Note_on_c, 0, 44, 61
3, 70560, Note_on_c, 0, 44, 0
3, 70560, Note_on_c, 0, 43, 66
3, 71040, Note_on_c, 0, 43, 0
3, 71040, Note_on_c, 0, 36, 80
3, 71760, Note_on_c, 0, 36, 0
3, 71760, Note_on_c, 0, 37, 66
3, 72000, Note_on_c, 0, 37, 0
3, 72000, Note_on_c, 0, 36, 78
3, 72240, Note_on_c, 0, 36, 0
3, 72240, Note_on_c, 0, 46, 66
3, 72480, Note_on_c, 0, 46, 0
3, 72480, Note_on_c, 0, 44, 76
3, 72960, Note_on_c, 0, 44, 0
3, 72960, Note_on_c, 0, 49, 46
3, 73680, Note_on_c, 0, 49, 0
3, 73680, Note_on_c, 0, 44, 43
3, 73920, Note_on_c, 0, 44, 0
3, 73920, Note_on_c, 0, 49, 46
3, 74160, Note_on_c, 0, 49, 0
3, 74160, Note_on_c, 0, 51, 42
3, 74400, Note_on_c, 0, 51, 0
3, 74400, Note_on_c, 0, 53, 46
3, 74640, Note_on_c, 0, 53, 0
3, 74640, Note_on_c, 0, 44, 43
3, 74880, Note_on_c, 0, 44, 0
3, 74880, Note_on_c, 0, 49, 46
3, 75120, Note_on_c, 0, 49, 0
3, 75120, Note_on_c, 0, 49, 47
3, 75120, Note_on_c, 0, 52, 47
3, 75360, Note_on_c, 0, 52, 0
3, 75360, Note_on_c, 0, 49, 0
3, 75360, Note_on_c, 0, 49, 53
3, 75360, Note_on_c, 0, 53, 53
3, 75588, Note_on_c, 0, 53, 0
3, 75588, Note_on_c, 0, 49, 0
3, 75600, Note_on_c, 0, 49, 59
3, 75600, Note_on_c, 0, 53, 59
3, 75828, Note_on_c, 0, 53, 0
3, 75828, Note_on_c, 0, 49, 0
3, 75840, Note_on_c, 0, 48, 65
3, 75840, Note_on_c, 0, 55, 65
3, 76080, Note_on_c, 0, 55, 0
3, 76080, Note_on_c, 0, 48, 0
3, 76440, Note_on_c, 0, 60, 47
3, 76560, Note_on_c, 0, 60, 0
3, 76560, Note_on_c, 0, 58, 46
3, 76680, Note_on_c, 0, 58, 0
3, 76680, Note_on_c, 0, 55, 45
3, 76800, Note_on_c, 0, 55, 0
3, 76800, Note_on_c, 0, 53, 34
3, 76920, Note_on_c, 0, 53, 0
3, 76920, Note_on_c, 0, 57, 29
3, 77040, Note_on_c, 0, 57, 0
3, 77040, Note_on_c, 0, 53, 35
3, 77160, Note_on_c, 0, 53, 0
3, 77160, Note_on_c, 0, 57, 29
3, 77280, Note_on_c, 0, 57, 0
3, 77280, Note_on_c, 0, 53, 36
3, 77400, Note_on_c, 0, 53, 0
3, 77400, Note_on_c, 0, 57, 32
3, 77520, Note_on_c, 0, 57, 0
3, 77520, Note_on_c, 0, 48, 38
3, 77640, Note_on_c, 0, 48, 0
3, 77640, Note_on_c, 0, 55, 31
3, 77760, Note_on_c, 0, 55, 0
3, 77760, Note_on_c, 0, 53, 40
3, 77880, Note_on_c, 0, 53, 0
3, 77880, Note_on_c, 0, 57, 36
3, 78000, Note_on_c, 0, 57, 0
3, 78000, Note_on_c, 0, 55, 40
3, 78120, Note_on_c, 0, 55, 0
3, 78120, Note_on_c, 0, 58, 35
3, 78240, Note_on_c, 0, 58, 0
3, 78240, Note_on_c, 0, 57, 44
3, 78360, Note_on_c, 0, 57, 0
3, 78360, Note_on_c, 0, 60, 40
3, 78480, Note_on_c, 0, 60, 0
3, 78480, Note_on_c, 0, 48, 39
3, 78600, Note_on_c, 0, 48, 0
3, 78600, Note_on_c, 0, 55, 39
3, 78720, Note_on_c, 0, 55, 0
3, 78720, Note_on_c, 0, 53, 34
3, 78840, Note_on_c, 0, 53, 0
3, 78840, Note_on_c, 0, 57, 29
3, 78960, Note_on_c, 0, 57, 0
3, 78960, Note_on_c, 0, 53, 35
3, 79080, Note_on_c, 0, 53, 0
3, 79080, Note_on_c, 0, 57, 29
3, 79200, Note_on_c, 0, 57, 0
3, 79200, Note_on_c, 0, 53, 36
3, 79320, Note_on_c, 0, 53, 0
3, 79320, Note_on_c, 0, 57, 32
3, 79440, Note_on_c, 0, 57, 0
3, 79440, Note_on_c, 0, 48, 38
3, 79560, Note_on_c, 0, 48, 0
3, 79560, Note_on_c, 0, 55, 31
3, 79680, Note_on_c, 0, 55, 0
3, 79680, Note_on_c, 0, 53, 40
3, 79800, Note_on_c, 0, 53, 0
3, 79800, Note_on_c, 0, 57, 36
3, 79920, Note_on_c, 0, 57, 0
3, 79920, Note_on_c, 0, 55, 40
3, 80040, Note_on_c, 0, 55, 0
3, 80040, Note_on_c, 0, 58, 35
3, 80160, Note_on_c, 0, 58, 0
3, 80160, Note_on_c, 0, 57, 44
3, 80280, Note_on_c, 0, 57, 0
3, 80280, Note_on_c, 0, 60, 40
3, 80400, Note_on_c, 0, 60, 0
3, 80400, Note_on_c, 0, 53, 39
3, 80520, Note_on_c, 0, 53, 0
3, 80520, Note_on_c, 0, 57, 39
3, 80640, Note_on_c, 0, 57, 0
3, 80640, Note_on_c, 0, 58, 50
3, 81360, Note_on_c, 0, 58, 0
3, 81360, Note_on_c, 0, 53, 43
3, 81600, Note_on_c, 0, 53, 0
3, 81600, Note_on_c, 0, 58, 46
3, 81840, Note_on_c, 0, 58, 0
3, 81840, Note_on_c, 0, 60, 47
3, 82080, Note_on_c, 0, 60, 0
3, 82080, Note_on_c, 0, 62, 51
3, 82320, Note_on_c, 0, 62, 0
3, 82320, Note_on_c, 0, 58, 47
3, 82560, Note_on_c, 0, 58, 0
3, 82560, Note_on_c, 0, 57, 46
3, 82800, Note_on_c, 0, 57, 0
3, 82800, Note_on_c, 0, 60, 41
3, 83040, Note_on_c, 0, 60, 0
3, 83040, Note_on_c, 0, 62, 44
3, 83280, Note_on_c, 0, 62, 0
3, 83280, Note_on_c, 0, 55, 38
3, 83400, Note_on_c, 0, 55, 0
3, 83520, Note_on_c, 0, 48, 40
3, 84000, Note_on_c, 0, 48, 0
3, 84000, Note_on_c, 0, 53, 37
3, 84240, Note_on_c, 0, 53, 0
3, 84480, Note_on_c, 0, 33, 67
3, 84600, Note_on_c, 0, 33, 0
3, 84600, Note_on_c, 0, 35, 60
3, 84720, Note_on_c, 0, 35, 0
3, 84720, Note_on_c, 0, 33, 65
3, 84840, Note_on_c, 0, 33, 0
3, 84840, Note_on_c, 0, 35, 60
3, 84960, Note_on_c, 0, 35, 0
3, 84960, Note_on_c, 0, 36, 68
3, 85080, Note_on_c, 0, 36, 0
3, 85080, Note_on_c, 0, 35, 60
3, 85200, Note_on_c, 0, 35, 0
3, 85200, Note_on_c, 0, 36, 67
3, 85320, Note_on_c, 0, 36, 0
3, 85320, Note_on_c, 0, 35, 60
3, 85440, Note_on_c, 0, 35, 0
3, 85440, Note_on_c, 0, 33, 70
3, 85680, Note_on_c, 0, 33, 0
3, 85680, Note_on_c, 0, 35, 60
3, 85800, Note_on_c, 0, 35, 0
3, 85920, Note_on_c, 0, 36, 69
3, 86160, Note_on_c, 0, 36, 0
3, 86160, Note_on_c, 0, 40, 60
3, 86280, Note_on_c, 0, 40, 0
3, 86400, Note_on_c, 0, 45, 69
3, 86640, Note_on_c, 0, 45, 0
3, 86640, Note_on_c, 0, 47, 60
3, 86760, Note_on_c, 0, 47, 0
3, 86880, Note_on_c, 0, 48, 69
3, 87120, Note_on_c, 0, 48, 0
3, 87120, Note_on_c, 0, 52, 60
3, 87240, Note_on_c, 0, 52, 0
3, 87360, Note_on_c, 0, 52, 67
3, 87600, Note_on_c, 0, 52, 0
3, 87600, Note_on_c, 0, 52, 60
3, 87840, Note_on_c, 0, 52, 0
3, 87840, Note_on_c, 0, 57, 70
3, 88320, Note_on_c, 0, 57, 0
3, 88320, Note_on_c, 0, 33, 67
3, 88440, Note_on_c, 0, 33, 0
3, 88440, Note_on_c, 0, 35, 60
3, 88560, Note_on_c, 0, 35, 0
3, 88560, Note_on_c, 0, 33, 65
3, 88680, Note_on_c, 0, 33, 0
3, 88680, Note_on_c, 0, 35, 60
3, 88800, Note_on_c, 0, 35, 0
3, 88800, Note_on_c, 0, 36, 68
3, 88920, Note_on_c, 0, 36, 0
3, 88920, Note_on_c, 0, 35, 60
3, 89040, Note_on_c, 0, 35, 0
3, 89040, Note_on_c, 0, 36, 67
3, 89160, Note_on_c, 0, 36, 0
3, 89160, Note_on_c, 0, 35, 60
3, 89280, Note_on_c, 0, 35, 0
3, 89280, Note_on_c, 0, 33, 70
3, 89520, Note_on_c, 0, 33, 0
3, 89520, Note_on_c, 0, 35, 60
3, 89640, Note_on_c, 0, 35, 0
3, 89760, Note_on_c, 0, 36, 69
3, 90000, Note_on_c, 0, 36, 0
3, 90000, Note_on_c, 0, 40, 60
3, 90120, Note_on_c, 0, 40, 0
3, 90240, Note_on_c, 0, 45, 69
3, 90480, Note_on_c, 0, 45, 0
3, 90480, Note_on_c, 0, 47, 60
3, 90600, Note_on_c, 0, 47, 0
3, 90720, Note_on_c, 0, 48, 69
3, 90960, Note_on_c, 0, 48, 0
3, 90960, Note_on_c, 0, 52, 60
3, 91080, Note_on_c, 0, 52, 0
3, 91200, Note_on_c, 0, 52, 67
3, 91440, Note_on_c, 0, 52, 0
3, 91440, Note_on_c, 0, 52, 60
3, 91680, Note_on_c, 0, 52, 0
3, 91680, Note_on_c, 0, 57, 70
3, 92160, Note_on_c, 0, 57, 0
3, 92160, Note_on_c, 0, 46, 67
3, 92280, Note_on_c, 0, 46, 0
3, 92280, Note_on_c, 0, 45, 60
3, 92400, Note_on_c, 0, 45, 0
3, 92400, Note_on_c, 0, 46, 65
3, 92520, Note_on_c, 0, 46, 0
3, 92520, Note_on_c, 0, 45, 60
3, 92640, Note_on_c, 0, 45, 0
3, 92640, Note_on_c, 0, 43, 68
3, 92760, Note_on_c, 0, 43, 0
3, 92760, Note_on_c, 0, 45, 60
3, 92880, Note_on_c, 0, 45, 0
3, 92880, Note_on_c, 0, 43, 67
3, 93000, Note_on_c, 0, 43, 0
3, 93000, Note_on_c, 0, 45, 60
3, 93120, Note_on_c, 0, 45, 0
3, 93120, Note_on_c, 0, 46, 70
3, 93360, Note_on_c, 0, 46, 0
3, 93360, Note_on_c, 0, 43, 60
3, 93480, Note_on_c, 0, 43, 0
3, 93600, Note_on_c, 0, 43, 69
3, 93840, Note_on_c, 0, 43, 0
3, 93840, Note_on_c, 0, 40, 60
3, 93960, Note_on_c, 0, 40, 0
3, 94080, Note_on_c, 0, 37, 69
3, 94320, Note_on_c, 0, 37, 0
3, 94320, Note_on_c, 0, 40, 60
3, 94440, Note_on_c, 0, 40, 0
3, 94560, Note_on_c, 0, 40, 69
3, 94800, Note_on_c, 0, 40, 0
3, 94800, Note_on_c, 0, 43, 60
3, 94920, Note_on_c, 0, 43, 0
3, 95040, Note_on_c, 0, 45, 67
3, 95280, Note_on_c, 0, 45, 0
3, 95280, Note_on_c, 0, 45, 60
3, 95520, Note_on_c, 0, 45, 0
3, 95520, Note_on_c, 0, 50, 70
3, 96000, Note_on_c, 0, 50, 0
3, 96000, Note_on_c, 0, 48, 67
3, 96120, Note_on_c, 0, 48, 0
3, 96120, Note_on_c, 0, 47, 60
3, 96240, Note_on_c, 0, 47, 0
3, 96240, Note_on_c, 0, 48, 65
3, 96360, Note_on_c, 0, 48, 0
3, 96360, Note_on_c, 0, 47, 60
3, 96480, Note_on_c, 0, 47, 0
3, 96480, Note_on_c, 0, 45, 68
3, 96600, Note_on_c, 0, 45, 0
3, 96600, Note_on_c, 0, 47, 60
3, 96720, Note_on_c, 0, 47, 0
3, 96720, Note_on_c, 0, 45, 67
3, 96840, Note_on_c, 0, 45, 0
3, 96840, Note_on_c, 0, 47, 60
3, 96960, Note_on_c, 0, 47, 0
3, 96960, Note_on_c, 0, 48, 70
3, 97200, Note_on_c, 0, 48, 0
3, 97200, Note_on_c, 0, 45, 60
3, 97320, Note_on_c, 0, 45, 0
3, 97440, Note_on_c, 0, 45, 69
3, 97680, Note_on_c, 0, 45, 0
3, 97680, Note_on_c, 0, 42, 60
3, 97800, Note_on_c, 0, 42, 0
3, 97920, Note_on_c, 0, 39, 69
3, 98160, Note_on_c, 0, 39, 0
3, 98160, Note_on_c, 0, 42, 60
3, 98280, Note_on_c, 0, 42, 0
3, 98400, Note_on_c, 0, 42, 69
3, 98640, Note_on_c, 0, 42, 0
3, 98640, Note_on_c, 0, 45, 60
3, 98760, Note_on_c, 0, 45, 0
3, 98880, Note_on_c, 0, 47, 67
3, 99120, Note_on_c, 0, 47, 0
3, 99120, Note_on_c, 0, 47, 60
3, 99360, Note_on_c, 0, 47, 0
3, 99360, Note_on_c, 0, 52, 70
3, 99840, Note_on_c, 0, 52, 0
3, 99840, Note_on_c, 0, 45, 73
3, 99960, Note_on_c, 0, 45, 0
3, 99960, Note_on_c, 0, 47, 66
3, 100080, Note_on_c, 0, 47, 0
3, 100080, Note_on_c, 0, 45, 71
3, 100200, Note_on_c, 0, 45, 0
3, 100200, Note_on_c, 0, 47, 66
3, 100320, Note_on_c, 0, 47, 0
3, 100320, Note_on_c, 0, 48, 74
3, 100440, Note_on_c, 0, 48, 0
3, 100440, Note_on_c, 0, 47, 66
3, 100560, Note_on_c, 0, 47, 0
3, 100560, Note_on_c, 0, 48, 73
3, 100680, Note_on_c, 0, 48, 0
3, 100680, Note_on_c, 0, 47, 66
3, 100800, Note_on_c, 0, 47, 0
3, 100800, Note_on_c, 0, 45, 77
3, 101040, Note_on_c, 0, 45, 0
3, 101040, Note_on_c, 0, 47, 66
3, 101160, Note_on_c, 0, 47, 0
3, 101280, Note_on_c, 0, 48, 75
3, 101520, Note_on_c, 0, 48, 0
3, 101520, Note_on_c, 0, 52, 66
3, 101640, Note_on_c, 0, 52, 0
3, 101760, Note_on_c, 0, 57, 75
3, 102000, Note_on_c, 0, 57, 0
3, 102000, Note_on_c, 0, 59, 66
3, 102120, Note_on_c, 0, 59, 0
3, 102240, Note_on_c, 0, 60, 75
3, 102480, Note_on_c, 0, 60, 0
3, 102480, Note_on_c, 0, 64, 66
3, 102600, Note_on_c, 0, 64, 0
3, 102720, Note_on_c, 0, 52, 79
3, 102960, Note_on_c, 0, 52, 0
3, 102960, Note_on_c, 0, 52, 69
3, 103200, Note_on_c, 0, 52, 0
3, 103200, Note_on_c, 0, 57, 80
3, 103440, Note_on_c, 0, 57, 0
3, 103440, Note_on_c, 0, 45, 72
3, 103680, Note_on_c, 0, 45, 0
3, 103680, Note_on_c, 0, 50, 86
3, 103800, Note_on_c, 0, 50, 0
3, 103800, Note_on_c, 0, 52, 73
3, 103920, Note_on_c, 0, 52, 0
3, 103920, Note_on_c, 0, 50, 78
3, 104040, Note_on_c, 0, 50, 0
3, 104040, Note_on_c, 0, 52, 69
3, 104160, Note_on_c, 0, 52, 0
3, 104160, Note_on_c, 0, 53, 71
3, 104280, Note_on_c, 0, 53, 0
3, 104280, Note_on_c, 0, 52, 63
3, 104400, Note_on_c, 0, 52, 0
3, 104400, Note_on_c, 0, 53, 70
3, 104520, Note_on_c, 0, 53, 0
3, 104520, Note_on_c, 0, 52, 63
3, 104640, Note_on_c, 0, 52, 0
3, 104640, Note_on_c, 0, 50, 73
3, 104880, Note_on_c, 0, 50, 0
3, 104880, Note_on_c, 0, 52, 63
3, 105000, Note_on_c, 0, 52, 0
3, 105120, Note_on_c, 0, 53, 72
3, 105360, Note_on_c, 0, 53, 0
3, 105360, Note_on_c, 0, 57, 63
3, 105480, Note_on_c, 0, 57, 0
3, 105600, Note_on_c, 0, 62, 72
3, 105840, Note_on_c, 0, 62, 0
3, 105840, Note_on_c, 0, 64, 63
3, 105960, Note_on_c, 0, 64, 0
3, 106080, Note_on_c, 0, 65, 72
3, 106320, Note_on_c, 0, 65, 0
3, 106320, Note_on_c, 0, 69, 63
3, 106440, Note_on_c, 0, 69, 0
3, 106560, Note_on_c, 0, 64, 70
3, 106800, Note_on_c, 0, 64, 0
3, 106800, Note_on_c, 0, 64, 63
3, 107040, Note_on_c, 0, 64, 0
3, 107040, Note_on_c, 0, 69, 73
3, 107520, Note_on_c, 0, 69, 0
3, 107520, End_track
4, 0, Start_track
4, 0, Title_t, "Pedale"
4, 0, Program_c, 0, 0
4, 1024, Control_c, 0, 64, 127
4, 1210, Control_c, 0, 64, 0
4, 1497, Control_c, 0, 64, 127
4, 1693, Control_c, 0, 64, 0
4, 1977, Control_c, 0, 64, 127
4, 2175, Control_c, 0, 64, 0
4, 2485, Control_c, 0, 64, 127
4, 2652, Control_c, 0, 64, 0
4, 2903, Control_c, 0, 64, 127
4, 3367, Control_c, 0, 64, 0
4, 3509, Control_c, 0, 64, 127
4, 3840, Control_c, 0, 64, 0
4, 4864, Control_c, 0, 64, 127
4, 5050, Control_c, 0, 64, 0
4, 5337, Control_c, 0, 64, 127
4, 5533, Control_c, 0, 64, 0
4, 5817, Control_c, 0, 64, 127
4, 6015, Control_c, 0, 64, 0
4, 6325, Control_c, 0, 64, 127
4, 6492, Control_c, 0, 64, 0
4, 6743, Control_c, 0, 64, 127
4, 7207, Control_c, 0, 64, 0
4, 7349, Control_c, 0, 64, 127
4, 7680, Control_c, 0, 64, 0
4, 8724, Control_c, 0, 64, 127
4, 8910, Control_c, 0, 64, 0
4, 9197, Control_c, 0, 64, 127
4, 9393, Control_c, 0, 64, 0
4, 9677, Control_c, 0, 64, 127
4, 9875, Control_c, 0, 64, 0
4, 10185, Control_c, 0, 64, 127
4, 10352, Control_c, 0, 64, 0
4, 10603, Control_c, 0, 64, 127
4, 11067, Control_c, 0, 64, 0
4, 11209, Control_c, 0, 64, 127
4, 11520, Control_c, 0, 64, 0
4, 12564, Control_c, 0, 64, 127
4, 12750, Control_c, 0, 64, 0
4, 13037, Control_c, 0, 64, 127
4, 13233, Control_c, 0, 64, 0
4, 13517, Control_c, 0, 64, 127
4, 13715, Control_c, 0, 64, 0
4, 14025, Control_c, 0, 64, 127
4, 14192, Control_c, 0, 64, 0
4, 14443, Control_c, 0, 64, 127
4, 14907, Control_c, 0, 64, 0
4, 15049, Control_c, 0, 64, 127
4, 15360, Control_c, 0, 64, 0
4, 16384, Control_c, 0, 64, 127
4, 16570, Control_c, 0, 64, 0
4, 16857, Control_c, 0, 64, 127
4, 17053, Control_c, 0, 64, 0
4, 17337, Control_c, 0, 64, 127
4, 17535, Control_c, 0, 64, 0
4, 17845, Control_c, 0, 64, 127
4, 18012, Control_c, 0, 64, 0
4, 18240, Control_c, 0, 64, 127
4, 18730, Control_c, 0, 64, 0
4, 18863, Control_c, 0, 64, 127
4, 18971, Control_c, 0, 64, 0
4, 19051, Control_c, 0, 64, 127
4, 19200, Control_c, 0, 64, 0
4, 20224, Control_c, 0, 64, 127
4, 20410, Control_c, 0, 64, 0
4, 20697, Control_c, 0, 64, 127
4, 20893, Control_c, 0, 64, 0
4, 21177, Control_c, 0, 64, 127
4, 21375, Control_c, 0, 64, 0
4, 21685, Control_c, 0, 64, 127
4, 21852, Control_c, 0, 64, 0
4, 22103, Control_c, 0, 64, 127
4, 22567, Control_c, 0, 64, 0
4, 22709, Control_c, 0, 64, 127
4, 23040, Control_c, 0, 64, 0
4, 23040, Control_c, 0, 64, 0
4, 24084, Control_c, 0, 64, 127
4, 24270, Control_c, 0, 64, 0
4, 24557, Control_c, 0, 64, 127
4, 24753, Control_c, 0, 64, 0
4, 25037, Control_c, 0, 64, 127
4, 25235, Control_c, 0, 64, 0
4, 25545, Control_c, 0, 64, 127
4, 25712, Control_c, 0, 64, 0
4, 25963, Control_c, 0, 64, 127
4, 26427, Control_c, 0, 64, 0
4, 26569, Control_c, 0, 64, 127
4, 26880, Control_c, 0, 64, 0
4, 27924, Control_c, 0, 64, 127
4, 28110, Control_c, 0, 64, 0
4, 28397, Control_c, 0, 64, 127
4, 28593, Control_c, 0, 64, 0
4, 28877, Control_c, 0, 64, 127
4, 29075, Control_c, 0, 64, 0
4, 29385, Control_c, 0, 64, 127
4, 29552, Control_c, 0, 64, 0
4, 29803, Control_c, 0, 64, 127
4, 30267, Control_c, 0, 64, 0
4, 30409, Control_c, 0, 64, 127
4, 30720, Control_c, 0, 64, 0
4, 31744, Control_c, 0, 64, 127
4, 31930, Control_c, 0, 64, 0
4, 32217, Control_c, 0, 64, 127
4, 32413, Control_c, 0, 64, 0
4, 32697, Control_c, 0, 64, 127
4, 32895, Control_c, 0, 64, 0
4, 33205, Control_c, 0, 64, 127
4, 33372, Control_c, 0, 64, 0
4, 33600, Control_c, 0, 64, 127
4, 34090, Control_c, 0, 64, 0
4, 34223, Control_c, 0, 64, 127
4, 34331, Control_c, 0, 64, 0
4, 34411, Control_c, 0, 64, 127
4, 34560, Control_c, 0, 64, 0
4, 35584, Control_c, 0, 64, 127
4, 35770, Control_c, 0, 64, 0
4, 36057, Control_c, 0, 64, 127
4, 36253, Control_c, 0, 64, 0
4, 36537, Control_c, 0, 64, 127
4, 36735, Control_c, 0, 64, 0
4, 37045, Control_c, 0, 64, 127
4, 37212, Control_c, 0, 64, 0
4, 37463, Control_c, 0, 64, 127
4, 37927, Control_c, 0, 64, 0
4, 38069, Control_c, 0, 64, 127
4, 38400, Control_c, 0, 64, 0
4, 38478, Control_c, 0, 64, 127
4, 39135, Control_c, 0, 64, 0
4, 39233, Control_c, 0, 64, 127
4, 39360, Control_c, 0, 64, 0
4, 39438, Control_c, 0, 64, 127
4, 39606, Control_c, 0, 64, 0
4, 39692, Control_c, 0, 64, 127
4, 39854, Control_c, 0, 64, 0
4, 39932, Control_c, 0, 64, 127
4, 40086, Control_c, 0, 64, 0
4, 40151, Control_c, 0, 64, 127
4, 40320, Control_c, 0, 64, 0
4, 40398, Control_c, 0, 64, 127
4, 41055, Control_c, 0, 64, 0
4, 41153, Control_c, 0, 64, 127
4, 41280, Control_c, 0, 64, 0
4, 41358, Control_c, 0, 64, 127
4, 41526, Control_c, 0, 64, 0
4, 41612, Control_c, 0, 64, 127
4, 41774, Control_c, 0, 64, 0
4, 41852, Control_c, 0, 64, 127
4, 42006, Control_c, 0, 64, 0
4, 42071, Control_c, 0, 64, 127
4, 42240, Control_c, 0, 64, 0
4, 42318, Control_c, 0, 64, 127
4, 42975, Control_c, 0, 64, 0
4, 43073, Control_c, 0, 64, 127
4, 43200, Control_c, 0, 64, 0
4, 43278, Control_c, 0, 64, 127
4, 43446, Control_c, 0, 64, 0
4, 43532, Control_c, 0, 64, 127
4, 43694, Control_c, 0, 64, 0
4, 43772, Control_c, 0, 64, 127
4, 43926, Control_c, 0, 64, 0
4, 43991, Control_c, 0, 64, 127
4, 44160, Control_c, 0, 64, 0
4, 44238, Control_c, 0, 64, 127
4, 44895, Control_c, 0, 64, 0
4, 44993, Control_c, 0, 64, 127
4, 45120, Control_c, 0, 64, 0
4, 45198, Control_c, 0, 64, 127
4, 45366, Control_c, 0, 64, 0
4, 45452, Control_c, 0, 64, 127
4, 45614, Control_c, 0, 64, 0
4, 45692, Control_c, 0, 64, 127
4, 45846, Control_c, 0, 64, 0
4, 45911, Control_c, 0, 64, 127
4, 46080, Control_c, 0, 64, 0
4, 46158, Control_c, 0, 64, 127
4, 46815, Control_c, 0, 64, 0
4, 46913, Control_c, 0, 64, 127
4, 47040, Control_c, 0, 64, 0
4, 47118, Control_c, 0, 64, 127
4, 47286, Control_c, 0, 64, 0
4, 47372, Control_c, 0, 64, 127
4, 47534, Control_c, 0, 64, 0
4, 47612, Control_c, 0, 64, 127
4, 47766, Control_c, 0, 64, 0
4, 47831, Control_c, 0, 64, 127
4, 48000, Control_c, 0, 64, 0
4, 48078, Control_c, 0, 64, 127
4, 48735, Control_c, 0, 64, 0
4, 48833, Control_c, 0, 64, 127
4, 48960, Control_c, 0, 64, 0
4, 49038, Control_c, 0, 64, 127
4, 49206, Control_c, 0, 64, 0
4, 49292, Control_c, 0, 64, 127
4, 49454, Control_c, 0, 64, 0
4, 49532, Control_c, 0, 64, 127
4, 49686, Control_c, 0, 64, 0
4, 49751, Control_c, 0, 64, 127
4, 49920, Control_c, 0, 64, 0
4, 49998, Control_c, 0, 64, 127
4, 50655, Control_c, 0, 64, 0
4, 50753, Control_c, 0, 64, 127
4, 50880, Control_c, 0, 64, 0
4, 50958, Control_c, 0, 64, 127
4, 51126, Control_c, 0, 64, 0
4, 51212, Control_c, 0, 64, 127
4, 51374, Control_c, 0, 64, 0
4, 51452, Control_c, 0, 64, 127
4, 51606, Control_c, 0, 64, 0
4, 51671, Control_c, 0, 64, 127
4, 51840, Control_c, 0, 64, 0
4, 51918, Control_c, 0, 64, 127
4, 52575, Control_c, 0, 64, 0
4, 52673, Control_c, 0, 64, 127
4, 52800, Control_c, 0, 64, 0
4, 52878, Control_c, 0, 64, 127
4, 53046, Control_c, 0, 64, 0
4, 53132, Control_c, 0, 64, 127
4, 53294, Control_c, 0, 64, 0
4, 53372, Control_c, 0, 64, 127
4, 53526, Control_c, 0, 64, 0
4, 53591, Control_c, 0, 64, 127
4, 53760, Control_c, 0, 64, 0
4, 53852, Control_c, 0, 64, 127
4, 54489, Control_c, 0, 64, 0
4, 54544, Control_c, 0, 64, 127
4, 54720, Control_c, 0, 64, 0
4, 54805, Control_c, 0, 64, 127
4, 55214, Control_c, 0, 64, 0
4, 55278, Control_c, 0, 64, 127
4, 55680, Control_c, 0, 64, 0
4, 55760, Control_c, 0, 64, 127
4, 56408, Control_c, 0, 64, 0
4, 56469, Control_c, 0, 64, 127
4, 56640, Control_c, 0, 64, 0
4, 56703, Control_c, 0, 64, 127
4, 57134, Control_c, 0, 64, 0
4, 57195, Control_c, 0, 64, 127
4, 57600, Control_c, 0, 64, 0
4, 57686, Control_c, 0, 64, 127
4, 58560, Control_c, 0, 64, 0
4, 58646, Control_c, 0, 64, 127
4, 59054, Control_c, 0, 64, 0
4, 59132, Control_c, 0, 64, 127
4, 59520, Control_c, 0, 64, 0
4, 59606, Control_c, 0, 64, 127
4, 60013, Control_c, 0, 64, 0
4, 60075, Control_c, 0, 64, 127
4, 60480, Control_c, 0, 64, 0
4, 60593, Control_c, 0, 64, 127
4, 61440, Control_c, 0, 64, 0
4, 61440, Control_c, 0, 64, 0
4, 61518, Control_c, 0, 64, 127
4, 62175, Control_c, 0, 64, 0
4, 62273, Control_c, 0, 64, 127
4, 62400, Control_c, 0, 64, 0
4, 62478, Control_c, 0, 64, 127
4, 62646, Control_c, 0, 64, 0
4, 62732, Control_c, 0, 64, 127
4, 62894, Control_c, 0, 64, 0
4, 62972, Control_c, 0, 64, 127
4, 63126, Control_c, 0, 64, 0
4, 63191, Control_c, 0, 64, 127
4, 63360, Control_c, 0, 64, 0
4, 63438, Control_c, 0, 64, 127
4, 64095, Control_c, 0, 64, 0
4, 64193, Control_c, 0, 64, 127
4, 64320, Control_c, 0, 64, 0
4, 64398, Control_c, 0, 64, 127
4, 64566, Control_c, 0, 64, 0
4, 64652, Control_c, 0, 64, 127
4, 64814, Control_c, 0, 64, 0
4, 64892, Control_c, 0, 64, 127
4, 65046, Control_c, 0, 64, 0
4, 65111, Control_c, 0, 64, 127
4, 65280, Control_c, 0, 64, 0
4, 65366, Control_c, 0, 64, 127
4, 66240, Control_c, 0, 64, 0
4, 66326, Control_c, 0, 64, 127
4, 66485, Control_c, 0, 64, 0
4, 66566, Control_c, 0, 64, 127
4, 66734, Control_c, 0, 64, 0
4, 66812, Control_c, 0, 64, 127
4, 67200, Control_c, 0, 64, 0
4, 67278, Control_c, 0, 64, 127
4, 67444, Control_c, 0, 64, 0
4, 67532, Control_c, 0, 64, 127
4, 67695, Control_c, 0, 64, 0
4, 67793, Control_c, 0, 64, 127
4, 67930, Control_c, 0, 64, 0
4, 68188, Control_c, 0, 64, 127
4, 68650, Control_c, 0, 64, 0
4, 68781, Control_c, 0, 64, 127
4, 68937, Control_c, 0, 64, 0
4, 69120, Control_c, 0, 64, 0
4, 69212, Control_c, 0, 64, 127
4, 69849, Control_c, 0, 64, 0
4, 69904, Control_c, 0, 64, 127
4, 70080, Control_c, 0, 64, 0
4, 70165, Control_c, 0, 64, 127
4, 70574, Control_c, 0, 64, 0
4, 70638, Control_c, 0, 64, 127
4, 71040, Control_c, 0, 64, 0
4, 71120, Control_c, 0, 64, 127
4, 71768, Control_c, 0, 64, 0
4, 71829, Control_c, 0, 64, 127
4, 72000, Control_c, 0, 64, 0
4, 72063, Control_c, 0, 64, 127
4, 72494, Control_c, 0, 64, 0
4, 72555, Control_c, 0, 64, 127
4, 72960, Control_c, 0, 64, 0
4, 73046, Control_c, 0, 64, 127
4, 73920, Control_c, 0, 64, 0
4, 74006, Control_c, 0, 64, 127
4, 74414, Control_c, 0, 64, 0
4, 74492, Control_c, 0, 64, 127
4, 74880, Control_c, 0, 64, 0
4, 74966, Control_c, 0, 64, 127
4, 75373, Control_c, 0, 64, 0
4, 75435, Control_c, 0, 64, 127
4, 75840, Control_c, 0, 64, 0
4, 75953, Control_c, 0, 64, 127
4, 76800, Control_c, 0, 64, 0
4, 76878, Control_c, 0, 64, 127
4, 77535, Control_c, 0, 64, 0
4, 77633, Control_c, 0, 64, 127
4, 77760, Control_c, 0, 64, 0
4, 77838, Control_c, 0, 64, 127
4, 78006, Control_c, 0, 64, 0
4, 78092, Control_c, 0, 64, 127
4, 78254, Control_c, 0, 64, 0
4, 78332, Control_c, 0, 64, 127
4, 78486, Control_c, 0, 64, 0
4, 78551, Control_c, 0, 64, 127
4, 78720, Control_c, 0, 64, 0
4, 78798, Control_c, 0, 64, 127
4, 79455, Control_c, 0, 64, 0
4, 79553, Control_c, 0, 64, 127
4, 79680, Control_c, 0, 64, 0
4, 79758, Control_c, 0, 64, 127
4, 79926, Control_c, 0, 64, 0
4, 80012, Control_c, 0, 64, 127
4, 80174, Control_c, 0, 64, 0
4, 80252, Control_c, 0, 64, 127
4, 80406, Control_c, 0, 64, 0
4, 80471, Control_c, 0, 64, 127
4, 80640, Control_c, 0, 64, 0
4, 80726, Control_c, 0, 64, 127
4, 81600, Control_c, 0, 64, 0
4, 81686, Control_c, 0, 64, 127
4, 81845, Control_c, 0, 64, 0
4, 81926, Control_c, 0, 64, 127
4, 82094, Control_c, 0, 64, 0
4, 82172, Control_c, 0, 64, 127
4, 82560, Control_c, 0, 64, 0
4, 82638, Control_c, 0, 64, 127
4, 82804, Control_c, 0, 64, 0
4, 82892, Control_c, 0, 64, 127
4, 83055, Control_c, 0, 64, 0
4, 83153, Control_c, 0, 64, 127
4, 83290, Control_c, 0, 64, 0
4, 83548, Control_c, 0, 64, 127
4, 84010, Control_c, 0, 64, 0
4, 84141, Control_c, 0, 64, 127
4, 84297, Control_c, 0, 64, 0
4, 85504, Control_c, 0, 64, 127
4, 85690, Control_c, 0, 64, 0
4, 85977, Control_c, 0, 64, 127
4, 86173, Control_c, 0, 64, 0
4, 86457, Control_c, 0, 64, 127
4, 86655, Control_c, 0, 64, 0
4, 86965, Control_c, 0, 64, 127
4, 87132, Control_c, 0, 64, 0
4, 87383, Control_c, 0, 64, 127
4, 87847, Control_c, 0, 64, 0
4, 87989, Control_c, 0, 64, 127
4, 88320, Control_c, 0, 64, 0
4, 89344, Control_c, 0, 64, 127
4, 89530, Control_c, 0, 64, 0
4, 89817, Control_c, 0, 64, 127
4, 90013, Control_c, 0, 64, 0
4, 90297, Control_c, 0, 64, 127
4, 90495, Control_c, 0, 64, 0
4, 90805, Control_c, 0, 64, 127
4, 90972, Control_c, 0, 64, 0
4, 91223, Control_c, 0, 64, 127
4, 91687, Control_c, 0, 64, 0
4, 91829, Control_c, 0, 64, 127
4, 92160, Control_c, 0, 64, 0
4, 93204, Control_c, 0, 64, 127
4, 93390, Control_c, 0, 64, 0
4, 93677, Control_c, 0, 64, 127
4, 93873, Control_c, 0, 64, 0
4, 94157, Control_c, 0, 64, 127
4, 94355, Control_c, 0, 64, 0
4, 94665, Control_c, 0, 64, 127
4, 94832, Control_c, 0, 64, 0
4, 95083, Control_c, 0, 64, 127
4, 95547, Control_c, 0, 64, 0
4, 95689, Control_c, 0, 64, 127
4, 96000, Control_c, 0, 64, 0
4, 97044, Control_c, 0, 64, 127
4, 97230, Control_c, 0, 64, 0
4, 97517, Control_c, 0, 64, 127
4, 97713, Control_c, 0, 64, 0
4, 97997, Control_c, 0, 64, 127
4, 98195, Control_c, 0, 64, 0
4, 98505, Control_c, 0, 64, 127
4, 98672, Control_c, 0, 64, 0
4, 98923, Control_c, 0, 64, 127
4, 99387, Control_c, 0, 64, 0
4, 99529, Control_c, 0, 64, 127
4, 99840, Control_c, 0, 64, 0
4, 100864, Control_c, 0, 64, 127
4, 101050, Control_c, 0, 64, 0
4, 101337, Control_c, 0, 64, 127
4, 101533, Control_c, 0, 64, 0
4, 101817, Control_c, 0, 64, 127
4, 102015, Control_c, 0, 64, 0
4, 102325, Control_c, 0, 64, 127
4, 102492, Control_c, 0, 64, 0
4, 102720, Control_c, 0, 64, 127
4, 103210, Control_c, 0, 64, 0
4, 103343, Control_c, 0, 64, 127
4, 103451, Control_c, 0, 64, 0
4, 103531, Control_c, 0, 64, 127
4, 103680, Control_c, 0, 64, 0
4, 104704, Control_c, 0, 64, 127
4, 104890, Control_c, 0, 64, 0
4, 105177, Control_c, 0, 64, 127
4, 105373, Control_c, 0, 64, 0
4, 105657, Control_c, 0, 64, 127
4, 105855, Control_c, 0, 64, 0
4, 106165, Control_c, 0, 64, 127
4, 106332, Control_c, 0, 64, 0
4, 106583, Control_c, 0, 64, 127
4, 107047, Control_c, 0, 64, 0
4, 107189, Control_c, 0, 64, 127
4, 107520, Control_c, 0, 64, 0
4, 107520, End_track
5, 0, Start_track
5, 0, Title_t, "Schumann: Knecht Ruprecht"
5, 0, End_track
6, 0, Start_track
6, 0, Title_t, "Copyright © 2008 by Bernd Krueger"
6, 0, End_track
7, 0, Start_track
7, 0, Title_t, "http://www.piano-midi.de/"
7, 0, End_track
8, 0, Start_track
8, 0, Title_t, "Edition: 2014-03-28"
8, 0, End_track
9, 0, Start_track
9, 0, Title_t, "Spur 8"
9, 0, End_track
10, 0, Start_track
10, 0, Title_t, "Spur 9"
10, 0, End_track
11, 0, Start_track
11, 0, Title_t, "Spur 10"
11, 0, End_track
12, 0, Start_track
12, 0, Title_t, "Spur 11"
12, 0, End_track
13, 0, Start_track
13, 0, Title_t, "Spur 12"
13, 0, End_track
14, 0, Start_track
14, 0, Title_t, "Spur 13"
14, 0, End_track
15, 0, Start_track
15, 0, Title_t, "Spur 14"
15, 0, End_track
16, 0, Start_track
16, 0, Title_t, "Spur 15"
16, 0, End_track
17, 0, Start_track
17, 0, Title_t, "Spur 16"
17, 0, End_track
0, 0, End_of_file
