0, 0, Header, 1, 17, 480
1, 0, Start_track
1, 0, Title_t, "Schumann:   Fröhlicher Landmann, von der Arbeit zurückkehrend"
1, 0, Title_t, "aus Album für die Jugend Opus 68, Nr. 10"
1, 0, Copyright_t, "Copyright © 2008 by Bernd Krueger"
1, 0, Text_t, "Robert Schumann"
1, 0, Text_t, "Veröffentlicht: 23.10.2008\012"
1, 0, Text_t, "Update am 28.03.14\012"
1, 0, Text_t, "Dauer: 0:50 Minuten\012"
1, 0, Time_signature, 4, 2, 24, 8
1, 0, Key_signature, -1, "major"
1, 0, Tempo, 456274
1, 1440, Tempo, 597015
1, 2160, Tempo, 588235
1, 2640, Tempo, 618557
1, 2880, Tempo, 597015
1, 3120, Tempo, 588235
1, 3600, Tempo, 618557
1, 3840, Tempo, 600000
1, 3960, Tempo, 597015
1, 4560, Tempo, 612245
1, 4800, Tempo, 594059
1, 5520, Tempo, 615385
1, 5760, Tempo, 585366
1, 6240, Tempo, 597015
1, 6480, Tempo, 628272
1, 6720, Tempo, 594059
1, 7440, Tempo, 612245
1, 7680, Tempo, 582524
1, 7920, Tempo, 612245
1, 8160, Tempo, 591133
1, 8400, Tempo, 621762
1, 8640, Tempo, 612245
1, 8880, Tempo, 641711
1, 9120, Tempo, 597015
1, 9840, Tempo, 588235
1, 10320, Tempo, 618557
1, 10560, Tempo, 597015
1, 10800, Tempo, 588235
1, 11280, Tempo, 618557
1, 11520, Tempo, 600000
1, 11640, Tempo, 597015
1, 12240, Tempo, 612245
1, 12480, Tempo, 594059
1, 13200, Tempo, 615385
1, 13440, Tempo, 597015
1, 14160, Tempo, 628272
1, 14400, Tempo, 594059
1, 15120, Tempo, 621762
1, 15360, Tempo, 588235
1, 15600, Tempo, 606061
1, 15840, Tempo, 597015
1, 16080, Tempo, 634921
1, 16320, Tempo, 612245
1, 16560, Tempo, 641711
1, 16800, Tempo, 597015
1, 17520, Tempo, 588235
1, 18000, Tempo, 618557
1, 18240, Tempo, 597015
1, 18480, Tempo, 588235
1, 18960, Tempo, 618557
1, 19200, Tempo, 588235
1, 19320, Tempo, 579710
1, 19680, Tempo, 582524
1, 19920, Tempo, 612245
1, 20160, Tempo, 594059
1, 20640, Tempo, 597015
1, 21360, Tempo, 588235
1, 21840, Tempo, 618557
1, 22080, Tempo, 597015
1, 22320, Tempo, 588235
1, 22800, Tempo, 618557
1, 23040, Tempo, 600000
1, 23160, Tempo, 597015
1, 23400, Tempo, 588235
1, 23760, Tempo, 612245
1, 24000, Tempo, 594059
1, 24720, Tempo, 615385
1, 24960, Tempo, 597015
1, 25080, Tempo, 588235
1, 25440, Tempo, 594059
1, 25560, Tempo, 591133
1, 25680, Tempo, 628272
1, 25920, Tempo, 594059
1, 26640, Tempo, 621762
1, 26880, Tempo, 588235
1, 27000, Tempo, 588235
1, 27120, Tempo, 618557
1, 27360, Tempo, 597015
1, 27600, Tempo, 634921
1, 27840, Tempo, 612245
1, 28080, Tempo, 641711
1, 28320, Tempo, 597015
1, 28560, Tempo, 597015
1, 29040, Tempo, 588235
1, 29520, Tempo, 618557
1, 29760, Tempo, 597015
1, 30000, Tempo, 588235
1, 30480, Tempo, 618557
1, 30720, Tempo, 579710
1, 31200, Tempo, 585366
1, 31440, Tempo, 612245
1, 31680, Tempo, 594059
1, 32160, Tempo, 597015
1, 32880, Tempo, 588235
1, 33360, Tempo, 618557
1, 33600, Tempo, 597015
1, 33840, Tempo, 588235
1, 34320, Tempo, 612245
1, 34560, Tempo, 600000
1, 34680, Tempo, 597015
1, 35040, Tempo, 588235
1, 35280, Tempo, 612245
1, 35520, Tempo, 594059
1, 36240, Tempo, 615385
1, 36480, Tempo, 588235
1, 36720, Tempo, 594059
1, 37200, Tempo, 628272
1, 37440, Tempo, 594059
1, 38160, Tempo, 652174
1, 38400, Tempo, 618557
1, 38640, Tempo, 659341
1, 38880, Tempo, 634921
1, 39120, Tempo, 689655
1, 39360, Tempo, 659341
1, 39600, Tempo, 705882
1, 39840, Tempo, 662983
1, 39840, End_track
2, 0, Start_track
2, 0, Title_t, "Piano right"
2, 0, Program_c, 0, 0
2, 2160, Note_on_c, 0, 60, 34
2, 2160, Note_on_c, 0, 65, 34
2, 2160, Note_on_c, 0, 69, 41
2, 2388, Note_on_c, 0, 69, 0
2, 2388, Note_on_c, 0, 65, 0
2, 2388, Note_on_c, 0, 60, 0
2, 2400, Note_on_c, 0, 60, 38
2, 2400, Note_on_c, 0, 65, 38
2, 2400, Note_on_c, 0, 69, 45
2, 2640, Note_on_c, 0, 69, 0
2, 2640, Note_on_c, 0, 65, 0
2, 2640, Note_on_c, 0, 60, 0
2, 3120, Note_on_c, 0, 65, 35
2, 3120, Note_on_c, 0, 69, 35
2, 3120, Note_on_c, 0, 72, 42
2, 3348, Note_on_c, 0, 72, 0
2, 3348, Note_on_c, 0, 69, 0
2, 3348, Note_on_c, 0, 65, 0
2, 3360, Note_on_c, 0, 65, 38
2, 3360, Note_on_c, 0, 69, 38
2, 3360, Note_on_c, 0, 72, 45
2, 3600, Note_on_c, 0, 72, 0
2, 3600, Note_on_c, 0, 69, 0
2, 3600, Note_on_c, 0, 65, 0
2, 4080, Note_on_c, 0, 65, 34
2, 4080, Note_on_c, 0, 70, 34
2, 4080, Note_on_c, 0, 74, 41
2, 4308, Note_on_c, 0, 74, 0
2, 4308, Note_on_c, 0, 70, 0
2, 4308, Note_on_c, 0, 65, 0
2, 4320, Note_on_c, 0, 70, 39
2, 4320, Note_on_c, 0, 74, 47
2, 4560, Note_on_c, 0, 74, 0
2, 4560, Note_on_c, 0, 70, 0
2, 5040, Note_on_c, 0, 65, 34
2, 5040, Note_on_c, 0, 69, 34
2, 5040, Note_on_c, 0, 72, 40
2, 5268, Note_on_c, 0, 72, 0
2, 5268, Note_on_c, 0, 69, 0
2, 5268, Note_on_c, 0, 65, 0
2, 5280, Note_on_c, 0, 65, 41
2, 5280, Note_on_c, 0, 69, 41
2, 5280, Note_on_c, 0, 72, 49
2, 5520, Note_on_c, 0, 72, 0
2, 5520, Note_on_c, 0, 69, 0
2, 5520, Note_on_c, 0, 65, 0
2, 6000, Note_on_c, 0, 72, 43
2, 6000, Note_on_c, 0, 70, 36
2, 6000, Note_on_c, 0, 64, 36
2, 6228, Note_on_c, 0, 64, 0
2, 6228, Note_on_c, 0, 70, 0
2, 6228, Note_on_c, 0, 72, 0
2, 6240, Note_on_c, 0, 64, 38
2, 6240, Note_on_c, 0, 70, 38
2, 6240, Note_on_c, 0, 72, 45
2, 6720, Note_on_c, 0, 72, 0
2, 6720, Note_on_c, 0, 70, 0
2, 6720, Note_on_c, 0, 64, 0
2, 6960, Note_on_c, 0, 60, 34
2, 6960, Note_on_c, 0, 65, 34
2, 6960, Note_on_c, 0, 69, 41
2, 7188, Note_on_c, 0, 69, 0
2, 7188, Note_on_c, 0, 65, 0
2, 7188, Note_on_c, 0, 60, 0
2, 7200, Note_on_c, 0, 60, 38
2, 7200, Note_on_c, 0, 65, 38
2, 7200, Note_on_c, 0, 69, 45
2, 7680, Note_on_c, 0, 69, 0
2, 7680, Note_on_c, 0, 65, 0
2, 7680, Note_on_c, 0, 60, 0
2, 7920, Note_on_c, 0, 60, 38
2, 7920, Note_on_c, 0, 67, 45
2, 8160, Note_on_c, 0, 67, 0
2, 8160, Note_on_c, 0, 60, 0
2, 8400, Note_on_c, 0, 65, 40
2, 8400, Note_on_c, 0, 67, 40
2, 8400, Note_on_c, 0, 71, 48
2, 8640, Note_on_c, 0, 71, 0
2, 8640, Note_on_c, 0, 67, 0
2, 8640, Note_on_c, 0, 65, 0
2, 8880, Note_on_c, 0, 64, 42
2, 8880, Note_on_c, 0, 67, 42
2, 8880, Note_on_c, 0, 72, 50
2, 9108, Note_on_c, 0, 72, 0
2, 9108, Note_on_c, 0, 67, 0
2, 9108, Note_on_c, 0, 64, 0
2, 9120, Note_on_c, 0, 64, 46
2, 9120, Note_on_c, 0, 67, 46
2, 9120, Note_on_c, 0, 72, 55
2, 9600, Note_on_c, 0, 72, 0
2, 9600, Note_on_c, 0, 67, 0
2, 9600, Note_on_c, 0, 64, 0
2, 9840, Note_on_c, 0, 60, 34
2, 9840, Note_on_c, 0, 65, 34
2, 9840, Note_on_c, 0, 69, 41
2, 10068, Note_on_c, 0, 69, 0
2, 10068, Note_on_c, 0, 65, 0
2, 10068, Note_on_c, 0, 60, 0
2, 10080, Note_on_c, 0, 60, 38
2, 10080, Note_on_c, 0, 65, 38
2, 10080, Note_on_c, 0, 69, 45
2, 10320, Note_on_c, 0, 69, 0
2, 10320, Note_on_c, 0, 65, 0
2, 10320, Note_on_c, 0, 60, 0
2, 10800, Note_on_c, 0, 65, 35
2, 10800, Note_on_c, 0, 69, 35
2, 10800, Note_on_c, 0, 72, 42
2, 11028, Note_on_c, 0, 72, 0
2, 11028, Note_on_c, 0, 69, 0
2, 11028, Note_on_c, 0, 65, 0
2, 11040, Note_on_c, 0, 65, 38
2, 11040, Note_on_c, 0, 69, 38
2, 11040, Note_on_c, 0, 72, 45
2, 11280, Note_on_c, 0, 72, 0
2, 11280, Note_on_c, 0, 69, 0
2, 11280, Note_on_c, 0, 65, 0
2, 11760, Note_on_c, 0, 65, 34
2, 11760, Note_on_c, 0, 70, 34
2, 11760, Note_on_c, 0, 74, 41
2, 11988, Note_on_c, 0, 74, 0
2, 11988, Note_on_c, 0, 70, 0
2, 11988, Note_on_c, 0, 65, 0
2, 12000, Note_on_c, 0, 70, 39
2, 12000, Note_on_c, 0, 74, 47
2, 12240, Note_on_c, 0, 74, 0
2, 12240, Note_on_c, 0, 70, 0
2, 12720, Note_on_c, 0, 65, 34
2, 12720, Note_on_c, 0, 69, 34
2, 12720, Note_on_c, 0, 72, 40
2, 12948, Note_on_c, 0, 72, 0
2, 12948, Note_on_c, 0, 69, 0
2, 12948, Note_on_c, 0, 65, 0
2, 12960, Note_on_c, 0, 65, 41
2, 12960, Note_on_c, 0, 69, 41
2, 12960, Note_on_c, 0, 72, 49
2, 13200, Note_on_c, 0, 72, 0
2, 13200, Note_on_c, 0, 69, 0
2, 13200, Note_on_c, 0, 65, 0
2, 13680, Note_on_c, 0, 72, 43
2, 13680, Note_on_c, 0, 70, 36
2, 13680, Note_on_c, 0, 64, 36
2, 13908, Note_on_c, 0, 64, 0
2, 13908, Note_on_c, 0, 70, 0
2, 13908, Note_on_c, 0, 72, 0
2, 13920, Note_on_c, 0, 64, 38
2, 13920, Note_on_c, 0, 70, 38
2, 13920, Note_on_c, 0, 72, 45
2, 14400, Note_on_c, 0, 72, 0
2, 14400, Note_on_c, 0, 70, 0
2, 14400, Note_on_c, 0, 64, 0
2, 14640, Note_on_c, 0, 60, 34
2, 14640, Note_on_c, 0, 65, 34
2, 14640, Note_on_c, 0, 69, 41
2, 14868, Note_on_c, 0, 69, 0
2, 14868, Note_on_c, 0, 65, 0
2, 14868, Note_on_c, 0, 60, 0
2, 14880, Note_on_c, 0, 60, 38
2, 14880, Note_on_c, 0, 65, 38
2, 14880, Note_on_c, 0, 69, 45
2, 15360, Note_on_c, 0, 69, 0
2, 15360, Note_on_c, 0, 65, 0
2, 15360, Note_on_c, 0, 60, 0
2, 15600, Note_on_c, 0, 60, 45
2, 15600, Note_on_c, 0, 67, 45
2, 15840, Note_on_c, 0, 67, 0
2, 15840, Note_on_c, 0, 60, 0
2, 16080, Note_on_c, 0, 65, 40
2, 16080, Note_on_c, 0, 67, 40
2, 16080, Note_on_c, 0, 71, 48
2, 16320, Note_on_c, 0, 71, 0
2, 16320, Note_on_c, 0, 67, 0
2, 16320, Note_on_c, 0, 65, 0
2, 16560, Note_on_c, 0, 64, 42
2, 16560, Note_on_c, 0, 67, 42
2, 16560, Note_on_c, 0, 72, 50
2, 16788, Note_on_c, 0, 72, 0
2, 16788, Note_on_c, 0, 67, 0
2, 16788, Note_on_c, 0, 64, 0
2, 16800, Note_on_c, 0, 64, 46
2, 16800, Note_on_c, 0, 67, 46
2, 16800, Note_on_c, 0, 72, 55
2, 17040, Note_on_c, 0, 72, 0
2, 17040, Note_on_c, 0, 67, 0
2, 17040, Note_on_c, 0, 64, 0
2, 17040, Note_on_c, 0, 60, 57
2, 17280, Note_on_c, 0, 60, 0
2, 17280, Note_on_c, 0, 70, 62
2, 17520, Note_on_c, 0, 60, 34
2, 17520, Note_on_c, 0, 64, 41
2, 17748, Note_on_c, 0, 64, 0
2, 17748, Note_on_c, 0, 60, 0
2, 17760, Note_on_c, 0, 60, 38
2, 17760, Note_on_c, 0, 64, 45
2, 18000, Note_on_c, 0, 64, 0
2, 18000, Note_on_c, 0, 60, 0
2, 18000, Note_on_c, 0, 70, 0
2, 18000, Note_on_c, 0, 69, 57
2, 18240, Note_on_c, 0, 69, 0
2, 18240, Note_on_c, 0, 67, 63
2, 18480, Note_on_c, 0, 58, 35
2, 18480, Note_on_c, 0, 60, 42
2, 18708, Note_on_c, 0, 60, 0
2, 18708, Note_on_c, 0, 58, 0
2, 18720, Note_on_c, 0, 58, 38
2, 18720, Note_on_c, 0, 60, 45
2, 18948, Note_on_c, 0, 60, 0
2, 18948, Note_on_c, 0, 58, 0
2, 18960, Note_on_c, 0, 67, 0
2, 18960, Note_on_c, 0, 60, 57
2, 19200, Note_on_c, 0, 60, 0
2, 19200, Note_on_c, 0, 70, 63
2, 19440, Note_on_c, 0, 70, 0
2, 19440, Note_on_c, 0, 60, 48
2, 19440, Note_on_c, 0, 69, 57
2, 19680, Note_on_c, 0, 69, 0
2, 19680, Note_on_c, 0, 60, 0
2, 19680, Note_on_c, 0, 60, 53
2, 19680, Note_on_c, 0, 67, 63
2, 19920, Note_on_c, 0, 67, 0
2, 19920, Note_on_c, 0, 60, 0
2, 19920, Note_on_c, 0, 59, 48
2, 19920, Note_on_c, 0, 65, 57
2, 20160, Note_on_c, 0, 65, 0
2, 20160, Note_on_c, 0, 59, 0
2, 20160, Note_on_c, 0, 67, 70
2, 20400, Note_on_c, 0, 60, 40
2, 20628, Note_on_c, 0, 60, 0
2, 20640, Note_on_c, 0, 60, 49
2, 20868, Note_on_c, 0, 60, 0
2, 20880, Note_on_c, 0, 67, 0
2, 20880, Note_on_c, 0, 60, 57
2, 21120, Note_on_c, 0, 60, 0
2, 21120, Note_on_c, 0, 65, 62
2, 21360, Note_on_c, 0, 57, 34
2, 21360, Note_on_c, 0, 60, 41
2, 21588, Note_on_c, 0, 60, 0
2, 21588, Note_on_c, 0, 57, 0
2, 21600, Note_on_c, 0, 57, 38
2, 21600, Note_on_c, 0, 60, 45
2, 21828, Note_on_c, 0, 60, 0
2, 21828, Note_on_c, 0, 57, 0
2, 21840, Note_on_c, 0, 65, 0
2, 21840, Note_on_c, 0, 69, 57
2, 22080, Note_on_c, 0, 69, 0
2, 22080, Note_on_c, 0, 72, 63
2, 22320, Note_on_c, 0, 65, 35
2, 22320, Note_on_c, 0, 69, 42
2, 22548, Note_on_c, 0, 69, 0
2, 22548, Note_on_c, 0, 65, 0
2, 22560, Note_on_c, 0, 65, 38
2, 22560, Note_on_c, 0, 69, 45
2, 22788, Note_on_c, 0, 69, 0
2, 22788, Note_on_c, 0, 65, 0
2, 22800, Note_on_c, 0, 72, 0
2, 22800, Note_on_c, 0, 65, 57
2, 23040, Note_on_c, 0, 65, 0
2, 23040, Note_on_c, 0, 70, 63
2, 23280, Note_on_c, 0, 70, 0
2, 23280, Note_on_c, 0, 74, 57
2, 23280, Note_on_c, 0, 65, 34
2, 23280, Note_on_c, 0, 70, 34
2, 23520, Note_on_c, 0, 70, 0
2, 23520, Note_on_c, 0, 65, 0
2, 23520, Note_on_c, 0, 74, 0
2, 23520, Note_on_c, 0, 77, 55
2, 23760, Note_on_c, 0, 77, 0
2, 23760, Note_on_c, 0, 74, 57
2, 23760, Note_on_c, 0, 70, 39
2, 23760, Note_on_c, 0, 65, 39
2, 24000, Note_on_c, 0, 65, 0
2, 24000, Note_on_c, 0, 70, 0
2, 24000, Note_on_c, 0, 74, 0
2, 24000, Note_on_c, 0, 72, 70
2, 24240, Note_on_c, 0, 65, 34
2, 24240, Note_on_c, 0, 69, 40
2, 24468, Note_on_c, 0, 69, 0
2, 24468, Note_on_c, 0, 65, 0
2, 24480, Note_on_c, 0, 65, 41
2, 24480, Note_on_c, 0, 69, 49
2, 24720, Note_on_c, 0, 69, 0
2, 24720, Note_on_c, 0, 65, 0
2, 24720, Note_on_c, 0, 72, 0
2, 25200, Note_on_c, 0, 72, 43
2, 25200, Note_on_c, 0, 70, 36
2, 25200, Note_on_c, 0, 64, 36
2, 25428, Note_on_c, 0, 64, 0
2, 25428, Note_on_c, 0, 70, 0
2, 25428, Note_on_c, 0, 72, 0
2, 25440, Note_on_c, 0, 64, 38
2, 25440, Note_on_c, 0, 70, 38
2, 25440, Note_on_c, 0, 72, 45
2, 25920, Note_on_c, 0, 72, 0
2, 25920, Note_on_c, 0, 70, 0
2, 25920, Note_on_c, 0, 64, 0
2, 26160, Note_on_c, 0, 60, 34
2, 26160, Note_on_c, 0, 65, 34
2, 26160, Note_on_c, 0, 69, 41
2, 26388, Note_on_c, 0, 69, 0
2, 26388, Note_on_c, 0, 65, 0
2, 26388, Note_on_c, 0, 60, 0
2, 26400, Note_on_c, 0, 60, 38
2, 26400, Note_on_c, 0, 65, 38
2, 26400, Note_on_c, 0, 69, 45
2, 26628, Note_on_c, 0, 69, 0
2, 26628, Note_on_c, 0, 65, 0
2, 26628, Note_on_c, 0, 60, 0
2, 26640, Note_on_c, 0, 60, 38
2, 26640, Note_on_c, 0, 65, 38
2, 26640, Note_on_c, 0, 69, 45
2, 26880, Note_on_c, 0, 69, 0
2, 26880, Note_on_c, 0, 65, 0
2, 26880, Note_on_c, 0, 60, 0
2, 27120, Note_on_c, 0, 62, 38
2, 27120, Note_on_c, 0, 67, 45
2, 27360, Note_on_c, 0, 67, 0
2, 27360, Note_on_c, 0, 62, 0
2, 27600, Note_on_c, 0, 58, 40
2, 27600, Note_on_c, 0, 60, 48
2, 27840, Note_on_c, 0, 60, 0
2, 27840, Note_on_c, 0, 58, 0
2, 28080, Note_on_c, 0, 57, 42
2, 28080, Note_on_c, 0, 60, 42
2, 28080, Note_on_c, 0, 65, 50
2, 28308, Note_on_c, 0, 65, 0
2, 28308, Note_on_c, 0, 60, 0
2, 28308, Note_on_c, 0, 57, 0
2, 28320, Note_on_c, 0, 57, 46
2, 28320, Note_on_c, 0, 60, 46
2, 28320, Note_on_c, 0, 65, 55
2, 28548, Note_on_c, 0, 65, 0
2, 28548, Note_on_c, 0, 60, 0
2, 28548, Note_on_c, 0, 57, 0
2, 28560, Note_on_c, 0, 60, 57
2, 28800, Note_on_c, 0, 60, 0
2, 28800, Note_on_c, 0, 70, 62
2, 29040, Note_on_c, 0, 60, 34
2, 29040, Note_on_c, 0, 64, 41
2, 29268, Note_on_c, 0, 64, 0
2, 29268, Note_on_c, 0, 60, 0
2, 29280, Note_on_c, 0, 60, 38
2, 29280, Note_on_c, 0, 64, 45
2, 29520, Note_on_c, 0, 64, 0
2, 29520, Note_on_c, 0, 60, 0
2, 29520, Note_on_c, 0, 70, 0
2, 29520, Note_on_c, 0, 69, 57
2, 29760, Note_on_c, 0, 69, 0
2, 29760, Note_on_c, 0, 67, 63
2, 30000, Note_on_c, 0, 58, 35
2, 30000, Note_on_c, 0, 60, 42
2, 30228, Note_on_c, 0, 60, 0
2, 30228, Note_on_c, 0, 58, 0
2, 30240, Note_on_c, 0, 58, 38
2, 30240, Note_on_c, 0, 60, 45
2, 30468, Note_on_c, 0, 60, 0
2, 30468, Note_on_c, 0, 58, 0
2, 30480, Note_on_c, 0, 67, 0
2, 30480, Note_on_c, 0, 60, 57
2, 30720, Note_on_c, 0, 60, 0
2, 30720, Note_on_c, 0, 70, 63
2, 30960, Note_on_c, 0, 70, 0
2, 30960, Note_on_c, 0, 60, 48
2, 30960, Note_on_c, 0, 69, 57
2, 31200, Note_on_c, 0, 69, 0
2, 31200, Note_on_c, 0, 60, 0
2, 31200, Note_on_c, 0, 60, 53
2, 31200, Note_on_c, 0, 67, 63
2, 31440, Note_on_c, 0, 67, 0
2, 31440, Note_on_c, 0, 60, 0
2, 31440, Note_on_c, 0, 59, 48
2, 31440, Note_on_c, 0, 65, 57
2, 31680, Note_on_c, 0, 65, 0
2, 31680, Note_on_c, 0, 59, 0
2, 31680, Note_on_c, 0, 67, 70
2, 31920, Note_on_c, 0, 60, 40
2, 32148, Note_on_c, 0, 60, 0
2, 32160, Note_on_c, 0, 60, 49
2, 32388, Note_on_c, 0, 60, 0
2, 32400, Note_on_c, 0, 67, 0
2, 32400, Note_on_c, 0, 60, 57
2, 32640, Note_on_c, 0, 60, 0
2, 32640, Note_on_c, 0, 65, 62
2, 32880, Note_on_c, 0, 57, 34
2, 32880, Note_on_c, 0, 60, 41
2, 33108, Note_on_c, 0, 60, 0
2, 33108, Note_on_c, 0, 57, 0
2, 33120, Note_on_c, 0, 57, 38
2, 33120, Note_on_c, 0, 60, 45
2, 33348, Note_on_c, 0, 60, 0
2, 33348, Note_on_c, 0, 57, 0
2, 33360, Note_on_c, 0, 65, 0
2, 33360, Note_on_c, 0, 69, 57
2, 33600, Note_on_c, 0, 69, 0
2, 33600, Note_on_c, 0, 72, 63
2, 33840, Note_on_c, 0, 65, 35
2, 33840, Note_on_c, 0, 69, 42
2, 34068, Note_on_c, 0, 69, 0
2, 34068, Note_on_c, 0, 65, 0
2, 34080, Note_on_c, 0, 65, 38
2, 34080, Note_on_c, 0, 69, 45
2, 34308, Note_on_c, 0, 69, 0
2, 34308, Note_on_c, 0, 65, 0
2, 34320, Note_on_c, 0, 72, 0
2, 34320, Note_on_c, 0, 65, 57
2, 34560, Note_on_c, 0, 65, 0
2, 34560, Note_on_c, 0, 70, 63
2, 34800, Note_on_c, 0, 70, 0
2, 34800, Note_on_c, 0, 74, 57
2, 34800, Note_on_c, 0, 65, 34
2, 34800, Note_on_c, 0, 70, 34
2, 35040, Note_on_c, 0, 70, 0
2, 35040, Note_on_c, 0, 65, 0
2, 35040, Note_on_c, 0, 74, 0
2, 35040, Note_on_c, 0, 77, 55
2, 35280, Note_on_c, 0, 77, 0
2, 35280, Note_on_c, 0, 74, 57
2, 35280, Note_on_c, 0, 70, 39
2, 35280, Note_on_c, 0, 65, 39
2, 35520, Note_on_c, 0, 65, 0
2, 35520, Note_on_c, 0, 70, 0
2, 35520, Note_on_c, 0, 74, 0
2, 35520, Note_on_c, 0, 72, 70
2, 35760, Note_on_c, 0, 65, 34
2, 35760, Note_on_c, 0, 69, 40
2, 35988, Note_on_c, 0, 69, 0
2, 35988, Note_on_c, 0, 65, 0
2, 36000, Note_on_c, 0, 65, 41
2, 36000, Note_on_c, 0, 69, 49
2, 36240, Note_on_c, 0, 69, 0
2, 36240, Note_on_c, 0, 65, 0
2, 36240, Note_on_c, 0, 72, 0
2, 36720, Note_on_c, 0, 72, 43
2, 36720, Note_on_c, 0, 70, 36
2, 36720, Note_on_c, 0, 64, 36
2, 36948, Note_on_c, 0, 64, 0
2, 36948, Note_on_c, 0, 70, 0
2, 36948, Note_on_c, 0, 72, 0
2, 36960, Note_on_c, 0, 64, 38
2, 36960, Note_on_c, 0, 70, 38
2, 36960, Note_on_c, 0, 72, 45
2, 37440, Note_on_c, 0, 72, 0
2, 37440, Note_on_c, 0, 70, 0
2, 37440, Note_on_c, 0, 64, 0
2, 37680, Note_on_c, 0, 60, 34
2, 37680, Note_on_c, 0, 65, 34
2, 37680, Note_on_c, 0, 69, 41
2, 37908, Note_on_c, 0, 69, 0
2, 37908, Note_on_c, 0, 65, 0
2, 37908, Note_on_c, 0, 60, 0
2, 37920, Note_on_c, 0, 60, 38
2, 37920, Note_on_c, 0, 65, 38
2, 37920, Note_on_c, 0, 69, 45
2, 38148, Note_on_c, 0, 69, 0
2, 38148, Note_on_c, 0, 65, 0
2, 38148, Note_on_c, 0, 60, 0
2, 38160, Note_on_c, 0, 60, 38
2, 38160, Note_on_c, 0, 65, 38
2, 38160, Note_on_c, 0, 69, 45
2, 38400, Note_on_c, 0, 69, 0
2, 38400, Note_on_c, 0, 65, 0
2, 38400, Note_on_c, 0, 60, 0
2, 38640, Note_on_c, 0, 62, 38
2, 38640, Note_on_c, 0, 67, 45
2, 38880, Note_on_c, 0, 67, 0
2, 38880, Note_on_c, 0, 62, 0
2, 39120, Note_on_c, 0, 58, 40
2, 39120, Note_on_c, 0, 60, 48
2, 39360, Note_on_c, 0, 60, 0
2, 39360, Note_on_c, 0, 58, 0
2, 39600, Note_on_c, 0, 57, 42
2, 39600, Note_on_c, 0, 60, 42
2, 39600, Note_on_c, 0, 65, 50
2, 39828, Note_on_c, 0, 65, 0
2, 39828, Note_on_c, 0, 60, 0
2, 39828, Note_on_c, 0, 57, 0
2, 39840, Note_on_c, 0, 57, 46
2, 39840, Note_on_c, 0, 60, 46
2, 39840, Note_on_c, 0, 65, 55
2, 40080, Note_on_c, 0, 65, 0
2, 40080, Note_on_c, 0, 60, 0
2, 40080, Note_on_c, 0, 57, 0
2, 40080, End_track
3, 0, Start_track
3, 0, Title_t, "Piano left"
3, 0, Program_c, 0, 0
3, 1680, Note_on_c, 0, 48, 50
3, 1920, Note_on_c, 0, 48, 0
3, 1920, Note_on_c, 0, 53, 54
3, 2640, Note_on_c, 0, 53, 0
3, 2640, Note_on_c, 0, 57, 50
3, 2880, Note_on_c, 0, 57, 0
3, 2880, Note_on_c, 0, 60, 55
3, 3600, Note_on_c, 0, 60, 0
3, 3600, Note_on_c, 0, 53, 50
3, 3840, Note_on_c, 0, 53, 0
3, 3840, Note_on_c, 0, 58, 55
3, 4080, Note_on_c, 0, 58, 0
3, 4080, Note_on_c, 0, 62, 50
3, 4320, Note_on_c, 0, 62, 0
3, 4320, Note_on_c, 0, 65, 55
3, 4560, Note_on_c, 0, 65, 0
3, 4560, Note_on_c, 0, 62, 50
3, 4800, Note_on_c, 0, 62, 0
3, 4800, Note_on_c, 0, 60, 61
3, 5520, Note_on_c, 0, 60, 0
3, 5520, Note_on_c, 0, 57, 52
3, 5760, Note_on_c, 0, 57, 0
3, 5760, Note_on_c, 0, 58, 59
3, 6000, Note_on_c, 0, 58, 0
3, 6000, Note_on_c, 0, 55, 46
3, 6240, Note_on_c, 0, 55, 0
3, 6240, Note_on_c, 0, 48, 44
3, 6480, Note_on_c, 0, 48, 0
3, 6480, Note_on_c, 0, 58, 50
3, 6720, Note_on_c, 0, 58, 0
3, 6720, Note_on_c, 0, 57, 57
3, 6960, Note_on_c, 0, 57, 0
3, 6960, Note_on_c, 0, 53, 45
3, 7200, Note_on_c, 0, 53, 0
3, 7200, Note_on_c, 0, 48, 45
3, 7440, Note_on_c, 0, 48, 0
3, 7440, Note_on_c, 0, 57, 45
3, 7680, Note_on_c, 0, 57, 0
3, 7680, Note_on_c, 0, 52, 54
3, 8160, Note_on_c, 0, 52, 0
3, 8160, Note_on_c, 0, 50, 55
3, 8640, Note_on_c, 0, 50, 0
3, 8640, Note_on_c, 0, 48, 57
3, 9120, Note_on_c, 0, 48, 0
3, 9360, Note_on_c, 0, 48, 50
3, 9600, Note_on_c, 0, 48, 0
3, 9600, Note_on_c, 0, 53, 54
3, 10320, Note_on_c, 0, 53, 0
3, 10320, Note_on_c, 0, 57, 50
3, 10560, Note_on_c, 0, 57, 0
3, 10560, Note_on_c, 0, 60, 55
3, 11280, Note_on_c, 0, 60, 0
3, 11280, Note_on_c, 0, 53, 50
3, 11520, Note_on_c, 0, 53, 0
3, 11520, Note_on_c, 0, 58, 55
3, 11760, Note_on_c, 0, 58, 0
3, 11760, Note_on_c, 0, 62, 50
3, 12000, Note_on_c, 0, 62, 0
3, 12000, Note_on_c, 0, 65, 55
3, 12240, Note_on_c, 0, 65, 0
3, 12240, Note_on_c, 0, 62, 50
3, 12480, Note_on_c, 0, 62, 0
3, 12480, Note_on_c, 0, 60, 61
3, 13200, Note_on_c, 0, 60, 0
3, 13200, Note_on_c, 0, 57, 52
3, 13440, Note_on_c, 0, 57, 0
3, 13440, Note_on_c, 0, 58, 59
3, 13680, Note_on_c, 0, 58, 0
3, 13680, Note_on_c, 0, 55, 46
3, 13920, Note_on_c, 0, 55, 0
3, 13920, Note_on_c, 0, 48, 44
3, 14160, Note_on_c, 0, 48, 0
3, 14160, Note_on_c, 0, 58, 50
3, 14400, Note_on_c, 0, 58, 0
3, 14400, Note_on_c, 0, 57, 57
3, 14640, Note_on_c, 0, 57, 0
3, 14640, Note_on_c, 0, 53, 45
3, 14880, Note_on_c, 0, 53, 0
3, 14880, Note_on_c, 0, 48, 45
3, 15120, Note_on_c, 0, 48, 0
3, 15120, Note_on_c, 0, 57, 45
3, 15360, Note_on_c, 0, 57, 0
3, 15360, Note_on_c, 0, 52, 54
3, 15840, Note_on_c, 0, 52, 0
3, 15840, Note_on_c, 0, 50, 55
3, 16320, Note_on_c, 0, 50, 0
3, 16320, Note_on_c, 0, 48, 57
3, 16800, Note_on_c, 0, 48, 0
3, 17040, Note_on_c, 0, 48, 50
3, 17280, Note_on_c, 0, 48, 0
3, 17280, Note_on_c, 0, 55, 54
3, 18000, Note_on_c, 0, 55, 0
3, 18000, Note_on_c, 0, 53, 50
3, 18240, Note_on_c, 0, 53, 0
3, 18240, Note_on_c, 0, 52, 55
3, 18960, Note_on_c, 0, 52, 0
3, 18960, Note_on_c, 0, 48, 50
3, 19200, Note_on_c, 0, 48, 0
3, 19200, Note_on_c, 0, 55, 55
3, 19440, Note_on_c, 0, 55, 0
3, 19440, Note_on_c, 0, 53, 42
3, 19680, Note_on_c, 0, 53, 0
3, 19680, Note_on_c, 0, 52, 46
3, 19920, Note_on_c, 0, 52, 0
3, 19920, Note_on_c, 0, 50, 42
3, 20160, Note_on_c, 0, 50, 0
3, 20160, Note_on_c, 0, 48, 61
3, 20880, Note_on_c, 0, 48, 0
3, 20880, Note_on_c, 0, 48, 50
3, 21120, Note_on_c, 0, 48, 0
3, 21120, Note_on_c, 0, 53, 54
3, 21840, Note_on_c, 0, 53, 0
3, 21840, Note_on_c, 0, 57, 50
3, 22080, Note_on_c, 0, 57, 0
3, 22080, Note_on_c, 0, 60, 55
3, 22800, Note_on_c, 0, 60, 0
3, 22800, Note_on_c, 0, 53, 50
3, 23040, Note_on_c, 0, 53, 0
3, 23040, Note_on_c, 0, 58, 55
3, 23280, Note_on_c, 0, 58, 0
3, 23280, Note_on_c, 0, 62, 50
3, 23520, Note_on_c, 0, 62, 0
3, 23520, Note_on_c, 0, 65, 55
3, 23760, Note_on_c, 0, 65, 0
3, 23760, Note_on_c, 0, 62, 50
3, 24000, Note_on_c, 0, 62, 0
3, 24000, Note_on_c, 0, 60, 61
3, 24720, Note_on_c, 0, 60, 0
3, 24720, Note_on_c, 0, 57, 52
3, 24960, Note_on_c, 0, 57, 0
3, 24960, Note_on_c, 0, 58, 59
3, 25200, Note_on_c, 0, 58, 0
3, 25200, Note_on_c, 0, 55, 46
3, 25440, Note_on_c, 0, 55, 0
3, 25440, Note_on_c, 0, 48, 44
3, 25680, Note_on_c, 0, 48, 0
3, 25680, Note_on_c, 0, 58, 50
3, 25920, Note_on_c, 0, 58, 0
3, 25920, Note_on_c, 0, 57, 57
3, 26160, Note_on_c, 0, 57, 0
3, 26160, Note_on_c, 0, 53, 45
3, 26400, Note_on_c, 0, 53, 0
3, 26400, Note_on_c, 0, 48, 45
3, 26640, Note_on_c, 0, 48, 0
3, 26640, Note_on_c, 0, 57, 45
3, 26880, Note_on_c, 0, 57, 0
3, 26880, Note_on_c, 0, 46, 54
3, 26880, Note_on_c, 0, 55, 54
3, 27360, Note_on_c, 0, 55, 0
3, 27360, Note_on_c, 0, 46, 0
3, 27360, Note_on_c, 0, 48, 55
3, 27360, Note_on_c, 0, 52, 55
3, 27840, Note_on_c, 0, 52, 0
3, 27840, Note_on_c, 0, 48, 0
3, 27840, Note_on_c, 0, 53, 57
3, 28320, Note_on_c, 0, 53, 0
3, 28560, Note_on_c, 0, 48, 50
3, 28800, Note_on_c, 0, 48, 0
3, 28800, Note_on_c, 0, 55, 54
3, 29520, Note_on_c, 0, 55, 0
3, 29520, Note_on_c, 0, 53, 50
3, 29760, Note_on_c, 0, 53, 0
3, 29760, Note_on_c, 0, 52, 55
3, 30480, Note_on_c, 0, 52, 0
3, 30480, Note_on_c, 0, 48, 50
3, 30720, Note_on_c, 0, 48, 0
3, 30720, Note_on_c, 0, 55, 55
3, 30960, Note_on_c, 0, 55, 0
3, 30960, Note_on_c, 0, 53, 42
3, 31200, Note_on_c, 0, 53, 0
3, 31200, Note_on_c, 0, 52, 46
3, 31440, Note_on_c, 0, 52, 0
3, 31440, Note_on_c, 0, 50, 42
3, 31680, Note_on_c, 0, 50, 0
3, 31680, Note_on_c, 0, 48, 61
3, 32400, Note_on_c, 0, 48, 0
3, 32400, Note_on_c, 0, 48, 50
3, 32640, Note_on_c, 0, 48, 0
3, 32640, Note_on_c, 0, 53, 54
3, 33360, Note_on_c, 0, 53, 0
3, 33360, Note_on_c, 0, 57, 50
3, 33600, Note_on_c, 0, 57, 0
3, 33600, Note_on_c, 0, 60, 55
3, 34320, Note_on_c, 0, 60, 0
3, 34320, Note_on_c, 0, 53, 50
3, 34560, Note_on_c, 0, 53, 0
3, 34560, Note_on_c, 0, 58, 55
3, 34800, Note_on_c, 0, 58, 0
3, 34800, Note_on_c, 0, 62, 50
3, 35040, Note_on_c, 0, 62, 0
3, 35040, Note_on_c, 0, 65, 55
3, 35280, Note_on_c, 0, 65, 0
3, 35280, Note_on_c, 0, 62, 50
3, 35520, Note_on_c, 0, 62, 0
3, 35520, Note_on_c, 0, 60, 61
3, 36240, Note_on_c, 0, 60, 0
3, 36240, Note_on_c, 0, 57, 52
3, 36480, Note_on_c, 0, 57, 0
3, 36480, Note_on_c, 0, 58, 59
3, 36720, Note_on_c, 0, 58, 0
3, 36720, Note_on_c, 0, 55, 46
3, 36960, Note_on_c, 0, 55, 0
3, 36960, Note_on_c, 0, 48, 44
3, 37200, Note_on_c, 0, 48, 0
3, 37200, Note_on_c, 0, 58, 50
3, 37440, Note_on_c, 0, 58, 0
3, 37440, Note_on_c, 0, 57, 57
3, 37680, Note_on_c, 0, 57, 0
3, 37680, Note_on_c, 0, 53, 45
3, 37920, Note_on_c, 0, 53, 0
3, 37920, Note_on_c, 0, 48, 45
3, 38160, Note_on_c, 0, 48, 0
3, 38160, Note_on_c, 0, 57, 45
3, 38400, Note_on_c, 0, 57, 0
3, 38400, Note_on_c, 0, 46, 54
3, 38400, Note_on_c, 0, 55, 54
3, 38880, Note_on_c, 0, 55, 0
3, 38880, Note_on_c, 0, 46, 0
3, 38880, Note_on_c, 0, 48, 55
3, 38880, Note_on_c, 0, 52, 55
3, 39360, Note_on_c, 0, 52, 0
3, 39360, Note_on_c, 0, 48, 0
3, 39360, Note_on_c, 0, 53, 57
3, 39840, Note_on_c, 0, 53, 0
3, 39840, End_track
4, 0, Start_track
4, 0, Title_t, "Pedale"
4, 0, Program_c, 0, 0
4, 1624, Control_c, 0, 64, 127
4, 2642, Control_c, 0, 64, 0
4, 3092, Control_c, 0, 64, 127
4, 3609, Control_c, 0, 64, 0
4, 4066, Control_c, 0, 64, 127
4, 4570, Control_c, 0, 64, 0
4, 5026, Control_c, 0, 64, 127
4, 5526, Control_c, 0, 64, 0
4, 5950, Control_c, 0, 64, 127
4, 6724, Control_c, 0, 64, 0
4, 6872, Control_c, 0, 64, 127
4, 7680, Control_c, 0, 64, 0
4, 7821, Control_c, 0, 64, 127
4, 8176, Control_c, 0, 64, 0
4, 8293, Control_c, 0, 64, 127
4, 8653, Control_c, 0, 64, 0
4, 8797, Control_c, 0, 64, 127
4, 9600, Control_c, 0, 64, 0
4, 9784, Control_c, 0, 64, 127
4, 10322, Control_c, 0, 64, 0
4, 10772, Control_c, 0, 64, 127
4, 11289, Control_c, 0, 64, 0
4, 11746, Control_c, 0, 64, 127
4, 12250, Control_c, 0, 64, 0
4, 12706, Control_c, 0, 64, 127
4, 13206, Control_c, 0, 64, 0
4, 13630, Control_c, 0, 64, 127
4, 14404, Control_c, 0, 64, 0
4, 14552, Control_c, 0, 64, 127
4, 15360, Control_c, 0, 64, 0
4, 15501, Control_c, 0, 64, 127
4, 15856, Control_c, 0, 64, 0
4, 15973, Control_c, 0, 64, 127
4, 16333, Control_c, 0, 64, 0
4, 16477, Control_c, 0, 64, 127
4, 17049, Control_c, 0, 64, 0
4, 17160, Control_c, 0, 64, 127
4, 18002, Control_c, 0, 64, 0
4, 18452, Control_c, 0, 64, 127
4, 18969, Control_c, 0, 64, 0
4, 19246, Control_c, 0, 64, 127
4, 19692, Control_c, 0, 64, 0
4, 19840, Control_c, 0, 64, 127
4, 20174, Control_c, 0, 64, 0
4, 20386, Control_c, 0, 64, 127
4, 21120, Control_c, 0, 64, 0
4, 21233, Control_c, 0, 64, 127
4, 21842, Control_c, 0, 64, 0
4, 22292, Control_c, 0, 64, 127
4, 22809, Control_c, 0, 64, 0
4, 23266, Control_c, 0, 64, 127
4, 23770, Control_c, 0, 64, 0
4, 24226, Control_c, 0, 64, 127
4, 24726, Control_c, 0, 64, 0
4, 25150, Control_c, 0, 64, 127
4, 25924, Control_c, 0, 64, 0
4, 26072, Control_c, 0, 64, 127
4, 26880, Control_c, 0, 64, 0
4, 27021, Control_c, 0, 64, 127
4, 27376, Control_c, 0, 64, 0
4, 27493, Control_c, 0, 64, 127
4, 27853, Control_c, 0, 64, 0
4, 27997, Control_c, 0, 64, 127
4, 28572, Control_c, 0, 64, 0
4, 28687, Control_c, 0, 64, 127
4, 29522, Control_c, 0, 64, 0
4, 29972, Control_c, 0, 64, 127
4, 30489, Control_c, 0, 64, 0
4, 30755, Control_c, 0, 64, 127
4, 31207, Control_c, 0, 64, 0
4, 31360, Control_c, 0, 64, 127
4, 31703, Control_c, 0, 64, 0
4, 31906, Control_c, 0, 64, 127
4, 32640, Control_c, 0, 64, 0
4, 32753, Control_c, 0, 64, 127
4, 33362, Control_c, 0, 64, 0
4, 33812, Control_c, 0, 64, 127
4, 34329, Control_c, 0, 64, 0
4, 34786, Control_c, 0, 64, 127
4, 35290, Control_c, 0, 64, 0
4, 35746, Control_c, 0, 64, 127
4, 36246, Control_c, 0, 64, 0
4, 36670, Control_c, 0, 64, 127
4, 37444, Control_c, 0, 64, 0
4, 37592, Control_c, 0, 64, 127
4, 38400, Control_c, 0, 64, 0
4, 38541, Control_c, 0, 64, 127
4, 38896, Control_c, 0, 64, 0
4, 39013, Control_c, 0, 64, 127
4, 39373, Control_c, 0, 64, 0
4, 39517, Control_c, 0, 64, 127
4, 40320, Control_c, 0, 64, 0
4, 40320, End_track
5, 0, Start_track
5, 0, Title_t, "Schumann: Fröhlicher Landmann"
5, 0, End_track
6, 0, Start_track
6, 0, Title_t, "Copyright © 2008 by Bernd Krueger"
6, 0, End_track
7, 0, Start_track
7, 0, Title_t, "http://www.piano-midi.de/"
7, 0, End_track
8, 0, Start_track
8, 0, Title_t, "Edition: 2014-03-28"
8, 0, End_track
9, 0, Start_track
9, 0, Title_t, "Spur 8"
9, 0, End_track
10, 0, Start_track
10, 0, Title_t, "Spur 9"
10, 0, End_track
11, 0, Start_track
11, 0, Title_t, "Spur 10"
11, 0, End_track
12, 0, Start_track
12, 0, Title_t, "Spur 11"
12, 0, End_track
13, 0, Start_track
13, 0, Title_t, "Spur 12"
13, 0, End_track
14, 0, Start_track
14, 0, Title_t, "Spur 13"
14, 0, End_track
15, 0, Start_track
15, 0, Title_t, "Spur 14"
15, 0, End_track
16, 0, Start_track
16, 0, Title_t, "Spur 15"
16, 0, End_track
17, 0, Start_track
17, 0, Title_t, "Spur 16"
17, 0, End_track
0, 0, End_of_file
