0, 0, Header, 1, 13, 480
1, 0, Start_track
1, 0, Title_t, "Die Jahreszeiten"
1, 0, Title_t, "April"
1, 0, Copyright_t, "Copyright © 2004 by Bernd Krueger"
1, 0, Text_t, "Peter Tschaikowsky"
1, 0, Text_t, "Allegro con moto e un poco rubato"
1, 0, Text_t, "Fertiggestellt am 19.8.2000\012"
1, 0, Text_t, "Normierung: 23.12.2002\012"
1, 0, Text_t, "Update am 13.8.2004\012"
1, 0, Text_t, "Update am 12.9.2008\012"
1, 0, Text_t, "Dauer: 2:09 Minuten\012"
1, 0, SMPTE_offset, 96, 0, 3, 0, 0
1, 0, Time_signature, 6, 3, 12, 8
1, 0, Key_signature, -2, "major"
1, 0, Tempo, 431903
1, 1200, Tempo, 502092
1, 1440, Tempo, 461538
1, 1680, Tempo, 474308
1, 1920, Tempo, 483871
1, 2160, Tempo, 459770
1, 2640, Tempo, 480000
1, 2880, Tempo, 446097
1, 3120, Tempo, 456274
1, 4080, Tempo, 471513
1, 4320, Tempo, 446097
1, 4560, Tempo, 451128
1, 4800, Tempo, 461538
1, 5040, Tempo, 451128
1, 5060, Tempo, 447761
1, 5520, Tempo, 474271
1, 5760, Tempo, 447761
1, 6960, Tempo, 476948
1, 7200, Tempo, 452830
1, 7680, Tempo, 493827
1, 7920, Tempo, 458015
1, 8400, Tempo, 489796
1, 8640, Tempo, 468750
1, 9120, Tempo, 495868
1, 9360, Tempo, 472441
1, 9840, Tempo, 504202
1, 10080, Tempo, 481928
1, 10560, Tempo, 508475
1, 10800, Tempo, 483871
1, 11280, Tempo, 500000
1, 11760, Tempo, 517241
1, 12480, Tempo, 512514
1, 12720, Tempo, 493827
1, 12960, Tempo, 481928
1, 13440, Tempo, 472441
1, 13680, Tempo, 466926
1, 13920, Tempo, 476190
1, 14160, Tempo, 485830
1, 14400, Tempo, 458435
1, 15600, Tempo, 476190
1, 15840, Tempo, 446097
1, 16080, Tempo, 452830
1, 16320, Tempo, 468823
1, 16560, Tempo, 458435
1, 17040, Tempo, 474271
1, 17280, Tempo, 452830
1, 18480, Tempo, 502092
1, 18720, Tempo, 456274
1, 18960, Tempo, 463320
1, 19200, Tempo, 476948
1, 19440, Tempo, 466926
1, 19920, Tempo, 493827
1, 20160, Tempo, 463320
1, 20400, Tempo, 470588
1, 20640, Tempo, 491803
1, 20880, Tempo, 474308
1, 21360, Tempo, 497925
1, 21600, Tempo, 480000
1, 22080, Tempo, 508475
1, 22320, Tempo, 472441
1, 22800, Tempo, 491199
1, 23280, Tempo, 508475
1, 24240, Tempo, 487805
1, 24480, Tempo, 476190
1, 24960, Tempo, 466164
1, 25200, Tempo, 458435
1, 25440, Tempo, 471513
1, 25680, Tempo, 487805
1, 25920, Tempo, 454545
1, 27120, Tempo, 471513
1, 27360, Tempo, 454545
1, 27840, Tempo, 468823
1, 28080, Tempo, 452830
1, 28560, Tempo, 474271
1, 28800, Tempo, 460936
1, 30000, Tempo, 512821
1, 30240, Tempo, 474308
1, 30720, Tempo, 491803
1, 30960, Tempo, 476190
1, 31440, Tempo, 495868
1, 31680, Tempo, 472441
1, 32160, Tempo, 489796
1, 32400, Tempo, 474308
1, 32880, Tempo, 504202
1, 33120, Tempo, 480000
1, 33600, Tempo, 508475
1, 33840, Tempo, 485830
1, 34320, Tempo, 495868
1, 34560, Tempo, 508475
1, 35040, Tempo, 519481
1, 35280, Tempo, 530973
1, 35760, Tempo, 553148
1, 36000, Tempo, 483715
1, 36240, Tempo, 473447
1, 36480, Tempo, 481580
1, 36720, Tempo, 463643
1, 37200, Tempo, 471513
1, 37400, Tempo, 461681
1, 37520, Tempo, 459805
1, 37600, Tempo, 457945
1, 37680, Tempo, 456031
1, 37800, Tempo, 454201
1, 37880, Tempo, 452352
1, 37960, Tempo, 450552
1, 38040, Tempo, 448732
1, 38160, Tempo, 446927
1, 38240, Tempo, 445170
1, 38320, Tempo, 443361
1, 38400, Tempo, 441631
1, 38640, Tempo, 510204
1, 38880, Tempo, 457945
1, 39120, Tempo, 463643
1, 39360, Tempo, 477517
1, 39600, Tempo, 463643
1, 40080, Tempo, 471513
1, 40280, Tempo, 461681
1, 40400, Tempo, 459805
1, 40480, Tempo, 457945
1, 40560, Tempo, 456031
1, 40680, Tempo, 454201
1, 40760, Tempo, 452352
1, 40840, Tempo, 450552
1, 40920, Tempo, 448732
1, 41040, Tempo, 446927
1, 41120, Tempo, 445170
1, 41140, Tempo, 443361
1, 41160, Tempo, 445170
1, 41180, Tempo, 448732
1, 41200, Tempo, 450552
1, 41220, Tempo, 454201
1, 41240, Tempo, 456031
1, 41260, Tempo, 459805
1, 41280, Tempo, 441631
1, 41520, Tempo, 498836
1, 41760, Tempo, 454201
1, 42000, Tempo, 461681
1, 42240, Tempo, 469447
1, 42480, Tempo, 459805
1, 42960, Tempo, 471513
1, 43160, Tempo, 461681
1, 43280, Tempo, 459805
1, 43360, Tempo, 457945
1, 43440, Tempo, 456031
1, 43460, Tempo, 452830
1, 43540, Tempo, 451128
1, 43600, Tempo, 449438
1, 43660, Tempo, 447761
1, 43740, Tempo, 446097
1, 43800, Tempo, 444444
1, 43860, Tempo, 442804
1, 43920, Tempo, 441176
1, 43940, Tempo, 441176
1, 44200, Tempo, 439560
1, 44400, Tempo, 501044
1, 44640, Tempo, 467508
1, 45120, Tempo, 477517
1, 45360, Tempo, 463643
1, 45840, Tempo, 471513
1, 46040, Tempo, 461681
1, 46160, Tempo, 459805
1, 46240, Tempo, 457945
1, 46320, Tempo, 456031
1, 46440, Tempo, 454201
1, 46520, Tempo, 452352
1, 46600, Tempo, 450552
1, 46680, Tempo, 448732
1, 46800, Tempo, 446927
1, 46880, Tempo, 445170
1, 46900, Tempo, 443361
1, 46920, Tempo, 445170
1, 46940, Tempo, 448732
1, 46960, Tempo, 450552
1, 46980, Tempo, 454201
1, 47000, Tempo, 456031
1, 47020, Tempo, 459805
1, 47040, Tempo, 441631
1, 47280, Tempo, 490036
1, 47520, Tempo, 463643
1, 47760, Tempo, 478088
1, 48000, Tempo, 485830
1, 48240, Tempo, 467508
1, 48720, Tempo, 479540
1, 48960, Tempo, 465549
1, 49320, Tempo, 459805
1, 49400, Tempo, 457945
1, 49440, Tempo, 456274
1, 49480, Tempo, 454545
1, 49520, Tempo, 452830
1, 49560, Tempo, 451128
1, 49600, Tempo, 449438
1, 49640, Tempo, 447761
1, 49680, Tempo, 446097
1, 49700, Tempo, 444444
1, 50160, Tempo, 501044
1, 50400, Tempo, 469447
1, 50640, Tempo, 474308
1, 50880, Tempo, 487805
1, 51120, Tempo, 467508
1, 51600, Tempo, 479540
1, 51840, Tempo, 465549
1, 52200, Tempo, 459805
1, 52280, Tempo, 457945
1, 52360, Tempo, 456031
1, 52440, Tempo, 454201
1, 52520, Tempo, 452352
1, 52560, Tempo, 450552
1, 53040, Tempo, 501044
1, 53280, Tempo, 470588
1, 53520, Tempo, 481928
1, 53760, Tempo, 493827
1, 54000, Tempo, 474308
1, 54480, Tempo, 485830
1, 54720, Tempo, 472441
1, 54960, Tempo, 480000
1, 55200, Tempo, 489796
1, 55440, Tempo, 474308
1, 55920, Tempo, 491803
1, 56160, Tempo, 493827
1, 56520, Tempo, 478088
1, 56880, Tempo, 495868
1, 57360, Tempo, 570885
1, 57600, Tempo, 512821
1, 57960, Tempo, 497925
1, 58200, Tempo, 558140
1, 58320, Tempo, 560748
1, 58800, Tempo, 710059
1, 59040, Tempo, 519481
1, 59280, Tempo, 483871
1, 59520, Tempo, 481580
1, 59760, Tempo, 472441
1, 60240, Tempo, 480000
1, 60440, Tempo, 461681
1, 60560, Tempo, 459805
1, 60640, Tempo, 457945
1, 60720, Tempo, 456031
1, 60840, Tempo, 454201
1, 60920, Tempo, 452352
1, 61000, Tempo, 450552
1, 61080, Tempo, 448732
1, 61200, Tempo, 446927
1, 61280, Tempo, 445170
1, 61360, Tempo, 443361
1, 61440, Tempo, 441631
1, 61680, Tempo, 510204
1, 61920, Tempo, 457945
1, 62160, Tempo, 465549
1, 62400, Tempo, 477517
1, 62640, Tempo, 463643
1, 63120, Tempo, 471513
1, 63320, Tempo, 461681
1, 63440, Tempo, 459805
1, 63520, Tempo, 457945
1, 63600, Tempo, 452830
1, 63660, Tempo, 451128
1, 63700, Tempo, 449438
1, 63740, Tempo, 447761
1, 63800, Tempo, 446097
1, 63840, Tempo, 444444
1, 63880, Tempo, 442804
1, 63920, Tempo, 441176
1, 64160, Tempo, 445170
1, 64180, Tempo, 443361
1, 64200, Tempo, 445170
1, 64220, Tempo, 448732
1, 64240, Tempo, 450552
1, 64260, Tempo, 454201
1, 64280, Tempo, 456031
1, 64300, Tempo, 459805
1, 64320, Tempo, 441631
1, 64560, Tempo, 490036
1, 64800, Tempo, 461681
1, 65280, Tempo, 469447
1, 65520, Tempo, 459805
1, 66000, Tempo, 471513
1, 66200, Tempo, 461681
1, 66220, Tempo, 454545
1, 66340, Tempo, 452830
1, 66460, Tempo, 451128
1, 66580, Tempo, 449438
1, 66680, Tempo, 447761
1, 66800, Tempo, 446097
1, 66920, Tempo, 444444
1, 67020, Tempo, 442804
1, 67040, Tempo, 445170
1, 67120, Tempo, 443361
1, 67200, Tempo, 441631
1, 67440, Tempo, 501044
1, 67680, Tempo, 463643
1, 67920, Tempo, 467508
1, 68160, Tempo, 477517
1, 68400, Tempo, 463643
1, 68880, Tempo, 471513
1, 69080, Tempo, 461681
1, 69200, Tempo, 459805
1, 69280, Tempo, 457945
1, 69360, Tempo, 456031
1, 69480, Tempo, 454201
1, 69560, Tempo, 452352
1, 69640, Tempo, 450552
1, 69720, Tempo, 448732
1, 69840, Tempo, 446927
1, 69920, Tempo, 445170
1, 69940, Tempo, 443361
1, 69960, Tempo, 445170
1, 69980, Tempo, 448732
1, 70000, Tempo, 450552
1, 70020, Tempo, 454201
1, 70040, Tempo, 456031
1, 70060, Tempo, 459805
1, 70080, Tempo, 441631
1, 70320, Tempo, 490036
1, 70560, Tempo, 463643
1, 70800, Tempo, 473447
1, 71040, Tempo, 493827
1, 71280, Tempo, 467508
1, 71760, Tempo, 479540
1, 72000, Tempo, 465549
1, 72360, Tempo, 459805
1, 72440, Tempo, 457945
1, 72520, Tempo, 456031
1, 72600, Tempo, 454201
1, 72680, Tempo, 452352
1, 72720, Tempo, 450552
1, 73200, Tempo, 501044
1, 73440, Tempo, 469447
1, 73680, Tempo, 491803
1, 73920, Tempo, 479540
1, 74160, Tempo, 467508
1, 74400, Tempo, 472441
1, 74640, Tempo, 483871
1, 74880, Tempo, 465549
1, 75240, Tempo, 459805
1, 75320, Tempo, 457945
1, 75400, Tempo, 456031
1, 75480, Tempo, 454201
1, 75560, Tempo, 452352
1, 75600, Tempo, 450552
1, 76080, Tempo, 485791
1, 76320, Tempo, 477517
1, 76560, Tempo, 465549
1, 76640, Tempo, 463643
1, 76720, Tempo, 461681
1, 76800, Tempo, 459805
1, 76840, Tempo, 457945
1, 76920, Tempo, 456031
1, 77000, Tempo, 454201
1, 77040, Tempo, 452352
1, 77520, Tempo, 501044
1, 77640, Tempo, 533333
1, 77760, Tempo, 485830
1, 78000, Tempo, 476190
1, 78120, Tempo, 463643
1, 78200, Tempo, 461681
1, 78240, Tempo, 459805
1, 78280, Tempo, 457945
1, 78360, Tempo, 456031
1, 78400, Tempo, 454201
1, 78440, Tempo, 452352
1, 78480, Tempo, 450552
1, 78960, Tempo, 487924
1, 79200, Tempo, 475436
1, 79520, Tempo, 469447
1, 79600, Tempo, 467508
1, 79680, Tempo, 465549
1, 79720, Tempo, 463643
1, 79800, Tempo, 461681
1, 79880, Tempo, 459805
1, 79920, Tempo, 457945
1, 80400, Tempo, 501044
1, 80640, Tempo, 477517
1, 81000, Tempo, 469447
1, 81080, Tempo, 467508
1, 81160, Tempo, 465549
1, 81240, Tempo, 463643
1, 81320, Tempo, 461681
1, 81360, Tempo, 459805
1, 81840, Tempo, 496565
1, 82080, Tempo, 485830
1, 82560, Tempo, 510638
1, 82800, Tempo, 487805
1, 83280, Tempo, 530973
1, 83520, Tempo, 514580
1, 84000, Tempo, 579151
1, 84240, Tempo, 557621
1, 84480, Tempo, 614754
1, 84720, Tempo, 662252
1, 84960, Tempo, 485437
1, 85200, Tempo, 501672
1, 85440, Tempo, 489396
1, 85680, Tempo, 481541
1, 86160, Tempo, 483871
1, 86400, Tempo, 472069
1, 86640, Tempo, 459770
1, 87120, Tempo, 466563
1, 87600, Tempo, 472069
1, 87840, Tempo, 454545
1, 88320, Tempo, 465116
1, 88560, Tempo, 449438
1, 89040, Tempo, 474271
1, 89280, Tempo, 442804
1, 89520, Tempo, 458015
1, 89760, Tempo, 451128
1, 90480, Tempo, 487805
1, 90720, Tempo, 458015
1, 91200, Tempo, 476948
1, 91440, Tempo, 460936
1, 91920, Tempo, 480231
1, 92160, Tempo, 465947
1, 92640, Tempo, 479808
1, 92880, Tempo, 463679
1, 93360, Tempo, 502092
1, 93560, Tempo, 483871
1, 94080, Tempo, 510638
1, 94320, Tempo, 485830
1, 94800, Tempo, 512821
1, 95040, Tempo, 502092
1, 95280, Tempo, 521739
1, 96000, Tempo, 512514
1, 96240, Tempo, 489796
1, 96480, Tempo, 474308
1, 96720, Tempo, 463320
1, 96960, Tempo, 474308
1, 97200, Tempo, 465116
1, 97440, Tempo, 478088
1, 97680, Tempo, 480000
1, 97920, Tempo, 456274
1, 98160, Tempo, 447761
1, 98400, Tempo, 456274
1, 99120, Tempo, 471513
1, 99360, Tempo, 458435
1, 99400, Tempo, 451128
1, 99600, Tempo, 446097
1, 99840, Tempo, 468823
1, 100080, Tempo, 451128
1, 100320, Tempo, 446097
1, 100560, Tempo, 474271
1, 100800, Tempo, 456274
1, 102000, Tempo, 508475
1, 102240, Tempo, 461538
1, 102480, Tempo, 470588
1, 102720, Tempo, 493827
1, 102960, Tempo, 474308
1, 103440, Tempo, 491803
1, 103680, Tempo, 470588
1, 104160, Tempo, 491803
1, 104400, Tempo, 474308
1, 104880, Tempo, 482509
1, 105120, Tempo, 474271
1, 105600, Tempo, 512821
1, 105840, Tempo, 476190
1, 106320, Tempo, 504202
1, 107040, Tempo, 519481
1, 107280, Tempo, 533333
1, 107760, Tempo, 576923
1, 108000, Tempo, 479540
1, 108480, Tempo, 496565
1, 108720, Tempo, 481580
1, 109200, Tempo, 510204
1, 109440, Tempo, 479540
1, 109920, Tempo, 496565
1, 110160, Tempo, 481580
1, 110640, Tempo, 510204
1, 110880, Tempo, 490036
1, 111360, Tempo, 510204
1, 111600, Tempo, 494397
1, 112080, Tempo, 527056
1, 112320, Tempo, 503313
1, 112800, Tempo, 529568
1, 113040, Tempo, 507872
1, 113520, Tempo, 542986
1, 113760, Tempo, 487924
1, 114240, Tempo, 503313
1, 114480, Tempo, 490036
1, 114960, Tempo, 510204
1, 115200, Tempo, 500000
1, 115440, Tempo, 485830
1, 115680, Tempo, 505604
1, 115920, Tempo, 490036
1, 116400, Tempo, 510204
1, 116640, Tempo, 498836
1, 117120, Tempo, 519660
1, 117360, Tempo, 503313
1, 117840, Tempo, 527056
1, 118080, Tempo, 512514
1, 118560, Tempo, 529568
1, 118800, Tempo, 514933
1, 119280, Tempo, 524567
1, 119520, Tempo, 512514
1, 120000, Tempo, 529568
1, 120240, Tempo, 514933
1, 120720, Tempo, 534616
1, 120960, Tempo, 522148
1, 121440, Tempo, 542397
1, 121680, Tempo, 524567
1, 122160, Tempo, 624350
1, 122400, Tempo, 591191
1, 122880, Tempo, 572956
1, 123360, Tempo, 638298
1, 123840, Tempo, 769231
1, 124320, Tempo, 1088929
1, 124560, Tempo, 1032702
1, 125281, Tempo, 740741
1, 126720, Tempo, 857143
1, 126720, End_track
2, 0, Start_track
2, 0, Title_t, "Piano right"
2, 0, Program_c, 0, 0
2, 0, Control_c, 0, 7, 100
2, 0, Control_c, 0, 10, 64
2, 0, Control_c, 0, 91, 127
2, 0, Text_t, "bdca426d104a26ac9dcb070447587523"
2, 960, Control_c, 0, 91, 127
2, 1200, Note_on_c, 0, 65, 51
2, 1440, Note_on_c, 0, 65, 0
2, 1440, Note_on_c, 0, 67, 55
2, 2160, Note_on_c, 0, 67, 0
2, 2160, Note_on_c, 0, 69, 56
2, 2640, Note_on_c, 0, 69, 0
2, 2640, Note_on_c, 0, 70, 55
2, 2880, Note_on_c, 0, 70, 0
2, 2880, Note_on_c, 0, 74, 61
2, 3600, Note_on_c, 0, 74, 0
2, 3600, Note_on_c, 0, 72, 55
2, 4080, Note_on_c, 0, 72, 0
2, 4080, Note_on_c, 0, 65, 52
2, 4320, Note_on_c, 0, 65, 0
2, 4320, Note_on_c, 0, 71, 55
2, 5040, Note_on_c, 0, 71, 0
2, 5040, Note_on_c, 0, 72, 60
2, 5520, Note_on_c, 0, 72, 0
2, 5520, Note_on_c, 0, 74, 58
2, 5760, Note_on_c, 0, 74, 0
2, 5760, Note_on_c, 0, 77, 66
2, 6480, Note_on_c, 0, 77, 0
2, 6480, Note_on_c, 0, 75, 64
2, 6960, Note_on_c, 0, 75, 0
2, 6960, Note_on_c, 0, 75, 71
2, 7200, Note_on_c, 0, 75, 0
2, 7200, Note_on_c, 0, 76, 77
2, 7920, Note_on_c, 0, 76, 0
2, 7920, Note_on_c, 0, 82, 72
2, 8400, Note_on_c, 0, 82, 0
2, 8400, Note_on_c, 0, 81, 67
2, 8640, Note_on_c, 0, 81, 0
2, 8640, Note_on_c, 0, 69, 66
2, 9360, Note_on_c, 0, 69, 0
2, 9360, Note_on_c, 0, 82, 69
2, 9840, Note_on_c, 0, 82, 0
2, 9840, Note_on_c, 0, 81, 61
2, 10080, Note_on_c, 0, 81, 0
2, 10080, Note_on_c, 0, 69, 56
2, 10800, Note_on_c, 0, 69, 0
2, 10800, Note_on_c, 0, 82, 58
2, 11280, Note_on_c, 0, 82, 0
2, 11280, Note_on_c, 0, 81, 53
2, 11520, Note_on_c, 0, 81, 0
2, 11520, Note_on_c, 0, 69, 50
2, 11760, Note_on_c, 0, 62, 35
2, 11760, Note_on_c, 0, 65, 35
2, 12000, Note_on_c, 0, 65, 0
2, 12000, Note_on_c, 0, 62, 0
2, 12000, Note_on_c, 0, 62, 31
2, 12000, Note_on_c, 0, 65, 31
2, 12240, Note_on_c, 0, 65, 0
2, 12240, Note_on_c, 0, 62, 0
2, 12240, Note_on_c, 0, 65, 31
2, 12240, Note_on_c, 0, 62, 31
2, 12480, Note_on_c, 0, 62, 0
2, 12480, Note_on_c, 0, 65, 0
2, 12480, Note_on_c, 0, 62, 31
2, 12480, Note_on_c, 0, 65, 31
2, 12720, Note_on_c, 0, 65, 0
2, 12720, Note_on_c, 0, 62, 0
2, 12720, Note_on_c, 0, 69, 0
2, 12720, Note_on_c, 0, 53, 52
2, 12960, Note_on_c, 0, 53, 0
2, 12960, Note_on_c, 0, 55, 55
2, 13680, Note_on_c, 0, 55, 0
2, 13680, Note_on_c, 0, 57, 55
2, 14160, Note_on_c, 0, 57, 0
2, 14160, Note_on_c, 0, 60, 52
2, 14400, Note_on_c, 0, 60, 0
2, 14400, Note_on_c, 0, 55, 59
2, 15120, Note_on_c, 0, 55, 0
2, 15120, Note_on_c, 0, 53, 55
2, 15600, Note_on_c, 0, 53, 0
2, 15600, Note_on_c, 0, 55, 57
2, 15840, Note_on_c, 0, 55, 0
2, 15840, Note_on_c, 0, 57, 63
2, 16560, Note_on_c, 0, 57, 0
2, 16560, Note_on_c, 0, 59, 66
2, 17040, Note_on_c, 0, 59, 0
2, 17040, Note_on_c, 0, 62, 61
2, 17280, Note_on_c, 0, 62, 0
2, 17280, Note_on_c, 0, 56, 72
2, 18000, Note_on_c, 0, 56, 0
2, 18000, Note_on_c, 0, 55, 70
2, 18480, Note_on_c, 0, 55, 0
2, 18480, Note_on_c, 0, 60, 72
2, 18720, Note_on_c, 0, 60, 0
2, 18720, Note_on_c, 0, 61, 75
2, 19440, Note_on_c, 0, 72, 70
2, 19920, Note_on_c, 0, 72, 0
2, 19920, Note_on_c, 0, 70, 67
2, 20160, Note_on_c, 0, 70, 0
2, 20160, Note_on_c, 0, 61, 0
2, 20160, Note_on_c, 0, 62, 74
2, 20880, Note_on_c, 0, 69, 70
2, 21360, Note_on_c, 0, 69, 0
2, 21360, Note_on_c, 0, 67, 63
2, 21600, Note_on_c, 0, 67, 0
2, 21600, Note_on_c, 0, 62, 0
2, 21600, Note_on_c, 0, 56, 58
2, 22080, Note_on_c, 0, 56, 0
2, 22080, Note_on_c, 0, 57, 53
2, 22320, Note_on_c, 0, 57, 0
2, 22320, Note_on_c, 0, 62, 58
2, 22800, Note_on_c, 0, 62, 0
2, 22800, Note_on_c, 0, 57, 54
2, 23040, Note_on_c, 0, 57, 0
2, 23040, Note_on_c, 0, 57, 50
2, 23760, Note_on_c, 0, 57, 0
2, 23760, Note_on_c, 0, 58, 46
2, 24240, Note_on_c, 0, 58, 0
2, 24240, Note_on_c, 0, 57, 52
2, 24480, Note_on_c, 0, 57, 0
2, 24480, Note_on_c, 0, 55, 55
2, 25200, Note_on_c, 0, 55, 0
2, 25200, Note_on_c, 0, 57, 56
2, 25680, Note_on_c, 0, 57, 0
2, 25680, Note_on_c, 0, 60, 53
2, 25920, Note_on_c, 0, 60, 0
2, 25920, Note_on_c, 0, 55, 59
2, 26640, Note_on_c, 0, 55, 0
2, 26640, Note_on_c, 0, 53, 55
2, 27120, Note_on_c, 0, 53, 0
2, 27120, Note_on_c, 0, 55, 57
2, 27360, Note_on_c, 0, 55, 0
2, 27360, Note_on_c, 0, 57, 60
2, 28080, Note_on_c, 0, 57, 0
2, 28080, Note_on_c, 0, 59, 66
2, 28560, Note_on_c, 0, 59, 0
2, 28560, Note_on_c, 0, 62, 62
2, 28800, Note_on_c, 0, 62, 0
2, 28800, Note_on_c, 0, 56, 72
2, 29520, Note_on_c, 0, 56, 0
2, 29520, Note_on_c, 0, 55, 70
2, 30000, Note_on_c, 0, 55, 0
2, 30000, Note_on_c, 0, 60, 72
2, 30240, Note_on_c, 0, 60, 0
2, 30240, Note_on_c, 0, 61, 77
2, 30960, Note_on_c, 0, 72, 72
2, 31440, Note_on_c, 0, 72, 0
2, 31440, Note_on_c, 0, 70, 67
2, 31680, Note_on_c, 0, 70, 0
2, 31680, Note_on_c, 0, 61, 0
2, 31680, Note_on_c, 0, 62, 74
2, 32400, Note_on_c, 0, 69, 70
2, 32880, Note_on_c, 0, 69, 0
2, 32880, Note_on_c, 0, 67, 58
2, 33120, Note_on_c, 0, 67, 0
2, 33120, Note_on_c, 0, 62, 0
2, 33120, Note_on_c, 0, 56, 54
2, 33600, Note_on_c, 0, 56, 0
2, 33600, Note_on_c, 0, 57, 50
2, 33840, Note_on_c, 0, 57, 0
2, 33840, Note_on_c, 0, 62, 56
2, 34320, Note_on_c, 0, 62, 0
2, 34320, Note_on_c, 0, 57, 53
2, 34560, Note_on_c, 0, 57, 0
2, 34560, Note_on_c, 0, 60, 50
2, 35280, Note_on_c, 0, 60, 0
2, 35280, Note_on_c, 0, 58, 46
2, 35760, Note_on_c, 0, 58, 0
2, 36000, Note_on_c, 0, 62, 55
2, 36720, Note_on_c, 0, 62, 0
2, 36731, Note_on_c, 0, 65, 64
2, 36960, Note_on_c, 0, 57, 36
2, 36960, Note_on_c, 0, 61, 36
2, 37200, Note_on_c, 0, 61, 0
2, 37200, Note_on_c, 0, 57, 0
2, 37200, Note_on_c, 0, 57, 34
2, 37200, Note_on_c, 0, 61, 34
2, 37200, Note_on_c, 0, 64, 58
2, 37211, Note_on_c, 0, 65, 0
2, 37440, Note_on_c, 0, 57, 0
2, 37440, Note_on_c, 0, 61, 0
2, 37440, Note_on_c, 0, 64, 0
2, 37440, Note_on_c, 0, 61, 51
2, 37560, Note_on_c, 0, 61, 0
2, 37560, Note_on_c, 0, 62, 53
2, 37680, Note_on_c, 0, 62, 0
2, 37680, Note_on_c, 0, 64, 55
2, 37800, Note_on_c, 0, 64, 0
2, 37800, Note_on_c, 0, 65, 58
2, 37920, Note_on_c, 0, 65, 0
2, 37920, Note_on_c, 0, 68, 60
2, 38040, Note_on_c, 0, 68, 0
2, 38040, Note_on_c, 0, 69, 63
2, 38160, Note_on_c, 0, 69, 0
2, 38160, Note_on_c, 0, 73, 66
2, 38280, Note_on_c, 0, 73, 0
2, 38280, Note_on_c, 0, 74, 68
2, 38400, Note_on_c, 0, 74, 0
2, 38400, Note_on_c, 0, 77, 74
2, 38520, Note_on_c, 0, 77, 0
2, 38880, Note_on_c, 0, 62, 56
2, 39600, Note_on_c, 0, 62, 0
2, 39600, Note_on_c, 0, 65, 64
2, 39840, Note_on_c, 0, 57, 36
2, 39840, Note_on_c, 0, 61, 36
2, 40080, Note_on_c, 0, 61, 0
2, 40080, Note_on_c, 0, 57, 0
2, 40080, Note_on_c, 0, 65, 0
2, 40080, Note_on_c, 0, 57, 34
2, 40080, Note_on_c, 0, 61, 34
2, 40080, Note_on_c, 0, 64, 58
2, 40320, Note_on_c, 0, 64, 0
2, 40320, Note_on_c, 0, 61, 0
2, 40320, Note_on_c, 0, 57, 0
2, 40320, Note_on_c, 0, 61, 51
2, 40440, Note_on_c, 0, 61, 0
2, 40440, Note_on_c, 0, 62, 53
2, 40560, Note_on_c, 0, 62, 0
2, 40560, Note_on_c, 0, 64, 55
2, 40680, Note_on_c, 0, 64, 0
2, 40680, Note_on_c, 0, 65, 58
2, 40800, Note_on_c, 0, 65, 0
2, 40800, Note_on_c, 0, 68, 60
2, 40920, Note_on_c, 0, 68, 0
2, 40920, Note_on_c, 0, 69, 63
2, 41040, Note_on_c, 0, 69, 0
2, 41040, Note_on_c, 0, 73, 66
2, 41160, Note_on_c, 0, 73, 0
2, 41160, Note_on_c, 0, 74, 68
2, 41280, Note_on_c, 0, 74, 0
2, 41280, Note_on_c, 0, 81, 73
2, 41400, Note_on_c, 0, 81, 0
2, 41760, Note_on_c, 0, 62, 57
2, 42480, Note_on_c, 0, 62, 0
2, 42480, Note_on_c, 0, 65, 64
2, 42720, Note_on_c, 0, 61, 36
2, 42720, Note_on_c, 0, 57, 36
2, 42960, Note_on_c, 0, 57, 0
2, 42960, Note_on_c, 0, 61, 0
2, 42960, Note_on_c, 0, 65, 0
2, 42960, Note_on_c, 0, 64, 58
2, 42960, Note_on_c, 0, 57, 34
2, 42960, Note_on_c, 0, 61, 34
2, 43200, Note_on_c, 0, 61, 0
2, 43200, Note_on_c, 0, 57, 0
2, 43200, Note_on_c, 0, 64, 0
2, 43200, Note_on_c, 0, 61, 51
2, 43320, Note_on_c, 0, 61, 0
2, 43320, Note_on_c, 0, 62, 53
2, 43440, Note_on_c, 0, 62, 0
2, 43440, Note_on_c, 0, 64, 55
2, 43560, Note_on_c, 0, 64, 0
2, 43560, Note_on_c, 0, 65, 58
2, 43680, Note_on_c, 0, 65, 0
2, 43680, Note_on_c, 0, 68, 60
2, 43800, Note_on_c, 0, 68, 0
2, 43800, Note_on_c, 0, 69, 63
2, 43920, Note_on_c, 0, 69, 0
2, 43920, Note_on_c, 0, 73, 66
2, 44040, Note_on_c, 0, 73, 0
2, 44040, Note_on_c, 0, 74, 68
2, 44160, Note_on_c, 0, 74, 0
2, 44160, Note_on_c, 0, 77, 74
2, 44280, Note_on_c, 0, 77, 0
2, 44640, Note_on_c, 0, 62, 58
2, 45360, Note_on_c, 0, 62, 0
2, 45360, Note_on_c, 0, 65, 63
2, 45600, Note_on_c, 0, 61, 36
2, 45600, Note_on_c, 0, 57, 36
2, 45840, Note_on_c, 0, 57, 0
2, 45840, Note_on_c, 0, 61, 0
2, 45840, Note_on_c, 0, 65, 0
2, 45840, Note_on_c, 0, 64, 58
2, 45840, Note_on_c, 0, 57, 34
2, 45840, Note_on_c, 0, 61, 34
2, 46080, Note_on_c, 0, 61, 0
2, 46080, Note_on_c, 0, 57, 0
2, 46080, Note_on_c, 0, 64, 0
2, 46080, Note_on_c, 0, 61, 51
2, 46200, Note_on_c, 0, 61, 0
2, 46200, Note_on_c, 0, 62, 53
2, 46320, Note_on_c, 0, 62, 0
2, 46320, Note_on_c, 0, 64, 55
2, 46440, Note_on_c, 0, 64, 0
2, 46440, Note_on_c, 0, 65, 58
2, 46560, Note_on_c, 0, 65, 0
2, 46560, Note_on_c, 0, 68, 60
2, 46680, Note_on_c, 0, 68, 0
2, 46680, Note_on_c, 0, 69, 63
2, 46800, Note_on_c, 0, 69, 0
2, 46800, Note_on_c, 0, 73, 66
2, 46920, Note_on_c, 0, 73, 0
2, 46920, Note_on_c, 0, 74, 68
2, 47040, Note_on_c, 0, 74, 0
2, 47040, Note_on_c, 0, 81, 74
2, 47160, Note_on_c, 0, 81, 0
2, 47520, Note_on_c, 0, 86, 85
2, 48240, Note_on_c, 0, 86, 0
2, 48240, Note_on_c, 0, 74, 72
2, 48960, Note_on_c, 0, 74, 0
2, 48960, Note_on_c, 0, 60, 57
2, 49320, Note_on_c, 0, 60, 0
2, 49320, Note_on_c, 0, 62, 54
2, 49440, Note_on_c, 0, 62, 0
2, 49440, Note_on_c, 0, 63, 57
2, 49560, Note_on_c, 0, 63, 0
2, 49560, Note_on_c, 0, 64, 59
2, 49680, Note_on_c, 0, 64, 0
2, 49680, Note_on_c, 0, 67, 62
2, 49920, Note_on_c, 0, 57, 46
2, 49920, Note_on_c, 0, 60, 46
2, 50040, Note_on_c, 0, 60, 0
2, 50040, Note_on_c, 0, 57, 0
2, 50160, Note_on_c, 0, 67, 0
2, 50160, Note_on_c, 0, 60, 42
2, 50160, Note_on_c, 0, 57, 42
2, 50160, Note_on_c, 0, 65, 59
2, 50280, Note_on_c, 0, 57, 0
2, 50280, Note_on_c, 0, 60, 0
2, 50400, Note_on_c, 0, 65, 0
2, 50400, Note_on_c, 0, 82, 74
2, 51120, Note_on_c, 0, 82, 0
2, 51120, Note_on_c, 0, 70, 67
2, 51840, Note_on_c, 0, 70, 0
2, 51840, Note_on_c, 0, 57, 57
2, 52200, Note_on_c, 0, 57, 0
2, 52200, Note_on_c, 0, 58, 49
2, 52320, Note_on_c, 0, 58, 0
2, 52320, Note_on_c, 0, 59, 52
2, 52440, Note_on_c, 0, 59, 0
2, 52440, Note_on_c, 0, 61, 55
2, 52560, Note_on_c, 0, 61, 0
2, 52560, Note_on_c, 0, 64, 58
2, 52800, Note_on_c, 0, 53, 46
2, 52920, Note_on_c, 0, 53, 0
2, 53040, Note_on_c, 0, 64, 0
2, 53040, Note_on_c, 0, 62, 56
2, 53040, Note_on_c, 0, 53, 42
2, 53160, Note_on_c, 0, 53, 0
2, 53280, Note_on_c, 0, 62, 0
2, 53520, Note_on_c, 0, 67, 41
2, 53520, Note_on_c, 0, 58, 36
2, 53520, Note_on_c, 0, 62, 41
2, 53760, Note_on_c, 0, 62, 0
2, 53760, Note_on_c, 0, 58, 0
2, 53760, Note_on_c, 0, 67, 0
2, 53760, Note_on_c, 0, 67, 35
2, 53760, Note_on_c, 0, 58, 30
2, 53760, Note_on_c, 0, 62, 35
2, 54000, Note_on_c, 0, 62, 0
2, 54000, Note_on_c, 0, 58, 0
2, 54000, Note_on_c, 0, 67, 0
2, 54000, Note_on_c, 0, 81, 70
2, 54480, Note_on_c, 0, 81, 0
2, 54480, Note_on_c, 0, 69, 59
2, 54720, Note_on_c, 0, 69, 0
2, 54960, Note_on_c, 0, 62, 41
2, 54960, Note_on_c, 0, 58, 36
2, 54960, Note_on_c, 0, 67, 41
2, 55200, Note_on_c, 0, 67, 0
2, 55200, Note_on_c, 0, 58, 0
2, 55200, Note_on_c, 0, 62, 0
2, 55200, Note_on_c, 0, 62, 35
2, 55200, Note_on_c, 0, 58, 30
2, 55200, Note_on_c, 0, 67, 35
2, 55440, Note_on_c, 0, 67, 0
2, 55440, Note_on_c, 0, 58, 0
2, 55440, Note_on_c, 0, 62, 0
2, 55440, Note_on_c, 0, 81, 69
2, 55920, Note_on_c, 0, 81, 0
2, 55920, Note_on_c, 0, 69, 59
2, 56160, Note_on_c, 0, 69, 0
2, 56160, Note_on_c, 0, 64, 50
2, 56520, Note_on_c, 0, 64, 0
2, 56520, Note_on_c, 0, 63, 45
2, 56640, Note_on_c, 0, 63, 0
2, 56640, Note_on_c, 0, 64, 48
2, 56760, Note_on_c, 0, 64, 0
2, 56760, Note_on_c, 0, 65, 51
2, 56880, Note_on_c, 0, 65, 0
2, 56880, Note_on_c, 0, 69, 54
2, 57360, Note_on_c, 0, 69, 0
2, 57360, Note_on_c, 0, 67, 52
2, 57600, Note_on_c, 0, 67, 0
2, 57840, Note_on_c, 0, 62, 39
2, 57840, Note_on_c, 0, 58, 39
2, 57840, Note_on_c, 0, 55, 36
2, 58320, Note_on_c, 0, 55, 0
2, 58320, Note_on_c, 0, 58, 0
2, 58320, Note_on_c, 0, 62, 0
2, 58560, Note_on_c, 0, 52, 32
2, 58560, Note_on_c, 0, 55, 32
2, 58560, Note_on_c, 0, 61, 36
2, 59040, Note_on_c, 0, 61, 0
2, 59040, Note_on_c, 0, 55, 0
2, 59040, Note_on_c, 0, 52, 0
2, 59040, Note_on_c, 0, 62, 55
2, 59760, Note_on_c, 0, 62, 0
2, 59760, Note_on_c, 0, 65, 64
2, 60000, Note_on_c, 0, 61, 36
2, 60000, Note_on_c, 0, 57, 36
2, 60240, Note_on_c, 0, 57, 0
2, 60240, Note_on_c, 0, 61, 0
2, 60240, Note_on_c, 0, 65, 0
2, 60240, Note_on_c, 0, 64, 58
2, 60240, Note_on_c, 0, 57, 34
2, 60240, Note_on_c, 0, 61, 34
2, 60480, Note_on_c, 0, 61, 0
2, 60480, Note_on_c, 0, 57, 0
2, 60480, Note_on_c, 0, 64, 0
2, 60480, Note_on_c, 0, 61, 51
2, 60600, Note_on_c, 0, 61, 0
2, 60600, Note_on_c, 0, 62, 53
2, 60720, Note_on_c, 0, 62, 0
2, 60720, Note_on_c, 0, 64, 55
2, 60840, Note_on_c, 0, 64, 0
2, 60840, Note_on_c, 0, 65, 58
2, 60960, Note_on_c, 0, 65, 0
2, 60960, Note_on_c, 0, 68, 60
2, 61080, Note_on_c, 0, 68, 0
2, 61080, Note_on_c, 0, 69, 63
2, 61200, Note_on_c, 0, 69, 0
2, 61200, Note_on_c, 0, 73, 66
2, 61320, Note_on_c, 0, 73, 0
2, 61320, Note_on_c, 0, 74, 68
2, 61440, Note_on_c, 0, 74, 0
2, 61440, Note_on_c, 0, 77, 75
2, 61560, Note_on_c, 0, 77, 0
2, 61920, Note_on_c, 0, 62, 58
2, 62640, Note_on_c, 0, 62, 0
2, 62640, Note_on_c, 0, 65, 64
2, 62880, Note_on_c, 0, 57, 36
2, 62880, Note_on_c, 0, 61, 36
2, 63120, Note_on_c, 0, 61, 0
2, 63120, Note_on_c, 0, 57, 0
2, 63120, Note_on_c, 0, 65, 0
2, 63120, Note_on_c, 0, 61, 34
2, 63120, Note_on_c, 0, 64, 58
2, 63120, Note_on_c, 0, 57, 34
2, 63360, Note_on_c, 0, 57, 0
2, 63360, Note_on_c, 0, 64, 0
2, 63360, Note_on_c, 0, 61, 0
2, 63360, Note_on_c, 0, 61, 51
2, 63480, Note_on_c, 0, 61, 0
2, 63480, Note_on_c, 0, 62, 53
2, 63600, Note_on_c, 0, 62, 0
2, 63600, Note_on_c, 0, 64, 55
2, 63720, Note_on_c, 0, 64, 0
2, 63720, Note_on_c, 0, 65, 58
2, 63840, Note_on_c, 0, 65, 0
2, 63840, Note_on_c, 0, 68, 60
2, 63960, Note_on_c, 0, 68, 0
2, 63960, Note_on_c, 0, 69, 63
2, 64080, Note_on_c, 0, 69, 0
2, 64080, Note_on_c, 0, 73, 66
2, 64200, Note_on_c, 0, 73, 0
2, 64200, Note_on_c, 0, 74, 68
2, 64320, Note_on_c, 0, 74, 0
2, 64320, Note_on_c, 0, 81, 74
2, 64440, Note_on_c, 0, 81, 0
2, 64800, Note_on_c, 0, 62, 59
2, 65520, Note_on_c, 0, 62, 0
2, 65520, Note_on_c, 0, 65, 64
2, 65760, Note_on_c, 0, 61, 36
2, 65760, Note_on_c, 0, 57, 36
2, 66000, Note_on_c, 0, 57, 0
2, 66000, Note_on_c, 0, 61, 0
2, 66000, Note_on_c, 0, 65, 0
2, 66000, Note_on_c, 0, 64, 58
2, 66000, Note_on_c, 0, 57, 34
2, 66000, Note_on_c, 0, 61, 34
2, 66240, Note_on_c, 0, 61, 0
2, 66240, Note_on_c, 0, 57, 0
2, 66240, Note_on_c, 0, 64, 0
2, 66240, Note_on_c, 0, 61, 51
2, 66360, Note_on_c, 0, 61, 0
2, 66360, Note_on_c, 0, 62, 53
2, 66480, Note_on_c, 0, 62, 0
2, 66480, Note_on_c, 0, 64, 55
2, 66600, Note_on_c, 0, 64, 0
2, 66600, Note_on_c, 0, 65, 58
2, 66720, Note_on_c, 0, 65, 0
2, 66720, Note_on_c, 0, 68, 60
2, 66840, Note_on_c, 0, 68, 0
2, 66840, Note_on_c, 0, 69, 63
2, 66960, Note_on_c, 0, 69, 0
2, 66960, Note_on_c, 0, 73, 66
2, 67080, Note_on_c, 0, 73, 0
2, 67080, Note_on_c, 0, 74, 68
2, 67200, Note_on_c, 0, 74, 0
2, 67200, Note_on_c, 0, 77, 73
2, 67320, Note_on_c, 0, 77, 0
2, 67680, Note_on_c, 0, 62, 58
2, 68400, Note_on_c, 0, 62, 0
2, 68400, Note_on_c, 0, 65, 63
2, 68640, Note_on_c, 0, 61, 36
2, 68640, Note_on_c, 0, 57, 36
2, 68880, Note_on_c, 0, 57, 0
2, 68880, Note_on_c, 0, 61, 0
2, 68880, Note_on_c, 0, 65, 0
2, 68880, Note_on_c, 0, 64, 58
2, 68880, Note_on_c, 0, 57, 34
2, 68880, Note_on_c, 0, 61, 34
2, 69120, Note_on_c, 0, 61, 0
2, 69120, Note_on_c, 0, 57, 0
2, 69120, Note_on_c, 0, 64, 0
2, 69120, Note_on_c, 0, 61, 51
2, 69240, Note_on_c, 0, 61, 0
2, 69240, Note_on_c, 0, 62, 53
2, 69360, Note_on_c, 0, 62, 0
2, 69360, Note_on_c, 0, 64, 55
2, 69480, Note_on_c, 0, 64, 0
2, 69480, Note_on_c, 0, 65, 58
2, 69600, Note_on_c, 0, 65, 0
2, 69600, Note_on_c, 0, 68, 60
2, 69720, Note_on_c, 0, 68, 0
2, 69720, Note_on_c, 0, 69, 63
2, 69840, Note_on_c, 0, 69, 0
2, 69840, Note_on_c, 0, 73, 66
2, 69960, Note_on_c, 0, 73, 0
2, 69960, Note_on_c, 0, 74, 68
2, 70080, Note_on_c, 0, 74, 0
2, 70080, Note_on_c, 0, 81, 74
2, 70200, Note_on_c, 0, 81, 0
2, 70560, Note_on_c, 0, 86, 86
2, 71280, Note_on_c, 0, 86, 0
2, 71280, Note_on_c, 0, 74, 72
2, 72000, Note_on_c, 0, 74, 0
2, 72000, Note_on_c, 0, 60, 57
2, 72360, Note_on_c, 0, 60, 0
2, 72360, Note_on_c, 0, 62, 54
2, 72480, Note_on_c, 0, 62, 0
2, 72480, Note_on_c, 0, 63, 57
2, 72600, Note_on_c, 0, 63, 0
2, 72600, Note_on_c, 0, 64, 59
2, 72720, Note_on_c, 0, 64, 0
2, 72720, Note_on_c, 0, 67, 62
2, 72960, Note_on_c, 0, 60, 46
2, 72960, Note_on_c, 0, 57, 46
2, 73080, Note_on_c, 0, 57, 0
2, 73080, Note_on_c, 0, 60, 0
2, 73200, Note_on_c, 0, 67, 0
2, 73200, Note_on_c, 0, 60, 42
2, 73200, Note_on_c, 0, 65, 59
2, 73200, Note_on_c, 0, 57, 42
2, 73320, Note_on_c, 0, 57, 0
2, 73320, Note_on_c, 0, 60, 0
2, 73440, Note_on_c, 0, 65, 0
2, 73440, Note_on_c, 0, 82, 72
2, 74160, Note_on_c, 0, 82, 0
2, 74160, Note_on_c, 0, 70, 62
2, 74880, Note_on_c, 0, 70, 0
2, 74880, Note_on_c, 0, 58, 51
2, 75240, Note_on_c, 0, 58, 0
2, 75240, Note_on_c, 0, 59, 43
2, 75360, Note_on_c, 0, 59, 0
2, 75360, Note_on_c, 0, 60, 46
2, 75480, Note_on_c, 0, 60, 0
2, 75480, Note_on_c, 0, 62, 48
2, 75600, Note_on_c, 0, 62, 0
2, 75600, Note_on_c, 0, 65, 51
2, 76080, Note_on_c, 0, 65, 0
2, 76080, Note_on_c, 0, 63, 48
2, 76320, Note_on_c, 0, 63, 0
2, 76560, Note_on_c, 0, 53, 30
2, 76560, Note_on_c, 0, 65, 33
2, 76560, Note_on_c, 0, 63, 33
2, 76740, Note_on_c, 0, 63, 0
2, 76740, Note_on_c, 0, 65, 0
2, 76740, Note_on_c, 0, 53, 0
2, 76800, Note_on_c, 0, 63, 30
2, 76800, Note_on_c, 0, 53, 27
2, 76800, Note_on_c, 0, 65, 30
2, 76980, Note_on_c, 0, 65, 0
2, 76980, Note_on_c, 0, 53, 0
2, 76980, Note_on_c, 0, 63, 0
2, 77280, Note_on_c, 0, 63, 29
2, 77280, Note_on_c, 0, 53, 26
2, 77280, Note_on_c, 0, 65, 29
2, 77460, Note_on_c, 0, 65, 0
2, 77460, Note_on_c, 0, 53, 0
2, 77460, Note_on_c, 0, 63, 0
2, 77520, Note_on_c, 0, 63, 26
2, 77520, Note_on_c, 0, 53, 23
2, 77520, Note_on_c, 0, 65, 26
2, 77700, Note_on_c, 0, 65, 0
2, 77700, Note_on_c, 0, 53, 0
2, 77700, Note_on_c, 0, 63, 0
2, 77760, Note_on_c, 0, 68, 51
2, 78120, Note_on_c, 0, 68, 0
2, 78120, Note_on_c, 0, 69, 43
2, 78240, Note_on_c, 0, 69, 0
2, 78240, Note_on_c, 0, 68, 46
2, 78360, Note_on_c, 0, 68, 0
2, 78360, Note_on_c, 0, 69, 48
2, 78480, Note_on_c, 0, 69, 0
2, 78480, Note_on_c, 0, 74, 51
2, 78720, Note_on_c, 0, 74, 0
2, 78720, Note_on_c, 0, 63, 35
2, 78720, Note_on_c, 0, 71, 51
2, 78900, Note_on_c, 0, 63, 0
2, 78960, Note_on_c, 0, 71, 0
2, 78960, Note_on_c, 0, 72, 48
2, 78960, Note_on_c, 0, 63, 31
2, 79140, Note_on_c, 0, 63, 0
2, 79200, Note_on_c, 0, 72, 0
2, 79440, Note_on_c, 0, 65, 33
2, 79440, Note_on_c, 0, 53, 30
2, 79440, Note_on_c, 0, 63, 33
2, 79620, Note_on_c, 0, 63, 0
2, 79620, Note_on_c, 0, 53, 0
2, 79620, Note_on_c, 0, 65, 0
2, 79680, Note_on_c, 0, 65, 30
2, 79680, Note_on_c, 0, 53, 27
2, 79680, Note_on_c, 0, 63, 30
2, 79860, Note_on_c, 0, 63, 0
2, 79860, Note_on_c, 0, 53, 0
2, 79860, Note_on_c, 0, 65, 0
2, 80160, Note_on_c, 0, 65, 29
2, 80160, Note_on_c, 0, 53, 26
2, 80160, Note_on_c, 0, 63, 29
2, 80340, Note_on_c, 0, 63, 0
2, 80340, Note_on_c, 0, 53, 0
2, 80340, Note_on_c, 0, 65, 0
2, 80400, Note_on_c, 0, 53, 23
2, 80400, Note_on_c, 0, 63, 26
2, 80400, Note_on_c, 0, 65, 26
2, 80580, Note_on_c, 0, 65, 0
2, 80580, Note_on_c, 0, 63, 0
2, 80580, Note_on_c, 0, 53, 0
2, 80640, Note_on_c, 0, 68, 51
2, 81000, Note_on_c, 0, 68, 0
2, 81000, Note_on_c, 0, 69, 43
2, 81120, Note_on_c, 0, 69, 0
2, 81120, Note_on_c, 0, 68, 46
2, 81240, Note_on_c, 0, 68, 0
2, 81240, Note_on_c, 0, 69, 48
2, 81360, Note_on_c, 0, 69, 0
2, 81360, Note_on_c, 0, 74, 51
2, 81600, Note_on_c, 0, 74, 0
2, 81600, Note_on_c, 0, 71, 51
2, 81600, Note_on_c, 0, 63, 35
2, 81780, Note_on_c, 0, 63, 0
2, 81840, Note_on_c, 0, 71, 0
2, 81840, Note_on_c, 0, 72, 48
2, 81840, Note_on_c, 0, 63, 31
2, 82020, Note_on_c, 0, 63, 0
2, 82080, Note_on_c, 0, 72, 0
2, 82080, Note_on_c, 0, 67, 51
2, 82560, Note_on_c, 0, 67, 0
2, 82560, Note_on_c, 0, 72, 46
2, 82800, Note_on_c, 0, 72, 0
2, 82800, Note_on_c, 0, 66, 51
2, 83040, Note_on_c, 0, 66, 0
2, 83040, Note_on_c, 0, 60, 35
2, 83040, Note_on_c, 0, 63, 35
2, 83220, Note_on_c, 0, 63, 0
2, 83220, Note_on_c, 0, 60, 0
2, 83280, Note_on_c, 0, 63, 31
2, 83280, Note_on_c, 0, 60, 31
2, 83280, Note_on_c, 0, 65, 48
2, 83460, Note_on_c, 0, 60, 0
2, 83460, Note_on_c, 0, 63, 0
2, 83520, Note_on_c, 0, 65, 0
2, 83520, Note_on_c, 0, 67, 48
2, 84000, Note_on_c, 0, 67, 0
2, 84000, Note_on_c, 0, 72, 42
2, 84240, Note_on_c, 0, 72, 0
2, 84240, Note_on_c, 0, 66, 45
2, 84480, Note_on_c, 0, 66, 0
2, 84480, Note_on_c, 0, 63, 31
2, 84480, Note_on_c, 0, 60, 31
2, 84660, Note_on_c, 0, 60, 0
2, 84660, Note_on_c, 0, 63, 0
2, 84720, Note_on_c, 0, 65, 41
2, 84720, Note_on_c, 0, 60, 26
2, 84720, Note_on_c, 0, 63, 26
2, 84900, Note_on_c, 0, 63, 0
2, 84900, Note_on_c, 0, 60, 0
2, 84960, Note_on_c, 0, 65, 0
2, 84960, Note_on_c, 0, 67, 51
2, 85680, Note_on_c, 0, 67, 0
2, 85680, Note_on_c, 0, 69, 53
2, 86160, Note_on_c, 0, 69, 0
2, 86160, Note_on_c, 0, 70, 54
2, 86400, Note_on_c, 0, 70, 0
2, 86400, Note_on_c, 0, 74, 61
2, 87120, Note_on_c, 0, 74, 0
2, 87120, Note_on_c, 0, 72, 55
2, 87600, Note_on_c, 0, 72, 0
2, 87600, Note_on_c, 0, 65, 52
2, 87840, Note_on_c, 0, 65, 0
2, 87840, Note_on_c, 0, 71, 55
2, 88560, Note_on_c, 0, 71, 0
2, 88560, Note_on_c, 0, 72, 60
2, 89040, Note_on_c, 0, 72, 0
2, 89040, Note_on_c, 0, 74, 59
2, 89280, Note_on_c, 0, 74, 0
2, 89280, Note_on_c, 0, 77, 66
2, 90000, Note_on_c, 0, 77, 0
2, 90000, Note_on_c, 0, 75, 64
2, 90480, Note_on_c, 0, 75, 0
2, 90480, Note_on_c, 0, 75, 71
2, 90720, Note_on_c, 0, 75, 0
2, 90720, Note_on_c, 0, 76, 77
2, 91440, Note_on_c, 0, 76, 0
2, 91440, Note_on_c, 0, 82, 72
2, 91920, Note_on_c, 0, 82, 0
2, 91920, Note_on_c, 0, 81, 67
2, 92160, Note_on_c, 0, 81, 0
2, 92160, Note_on_c, 0, 69, 66
2, 92880, Note_on_c, 0, 69, 0
2, 92880, Note_on_c, 0, 82, 70
2, 93360, Note_on_c, 0, 82, 0
2, 93360, Note_on_c, 0, 81, 62
2, 93600, Note_on_c, 0, 81, 0
2, 93600, Note_on_c, 0, 69, 57
2, 94320, Note_on_c, 0, 69, 0
2, 94320, Note_on_c, 0, 82, 59
2, 94800, Note_on_c, 0, 82, 0
2, 94800, Note_on_c, 0, 81, 54
2, 95040, Note_on_c, 0, 81, 0
2, 95040, Note_on_c, 0, 69, 50
2, 95280, Note_on_c, 0, 62, 35
2, 95280, Note_on_c, 0, 65, 35
2, 95520, Note_on_c, 0, 65, 0
2, 95520, Note_on_c, 0, 62, 0
2, 95520, Note_on_c, 0, 65, 31
2, 95520, Note_on_c, 0, 62, 31
2, 95760, Note_on_c, 0, 62, 0
2, 95760, Note_on_c, 0, 65, 0
2, 95760, Note_on_c, 0, 62, 31
2, 95760, Note_on_c, 0, 65, 31
2, 96000, Note_on_c, 0, 65, 0
2, 96000, Note_on_c, 0, 62, 0
2, 96000, Note_on_c, 0, 65, 31
2, 96000, Note_on_c, 0, 62, 31
2, 96240, Note_on_c, 0, 62, 0
2, 96240, Note_on_c, 0, 65, 0
2, 96240, Note_on_c, 0, 69, 0
2, 96240, Note_on_c, 0, 53, 52
2, 96480, Note_on_c, 0, 53, 0
2, 96480, Note_on_c, 0, 55, 55
2, 97200, Note_on_c, 0, 55, 0
2, 97200, Note_on_c, 0, 57, 56
2, 97680, Note_on_c, 0, 57, 0
2, 97680, Note_on_c, 0, 60, 52
2, 97920, Note_on_c, 0, 60, 0
2, 97920, Note_on_c, 0, 55, 59
2, 98640, Note_on_c, 0, 55, 0
2, 98640, Note_on_c, 0, 53, 55
2, 99120, Note_on_c, 0, 53, 0
2, 99120, Note_on_c, 0, 55, 57
2, 99360, Note_on_c, 0, 55, 0
2, 99360, Note_on_c, 0, 57, 60
2, 100080, Note_on_c, 0, 57, 0
2, 100080, Note_on_c, 0, 59, 66
2, 100560, Note_on_c, 0, 59, 0
2, 100560, Note_on_c, 0, 62, 63
2, 100800, Note_on_c, 0, 62, 0
2, 100800, Note_on_c, 0, 56, 75
2, 101520, Note_on_c, 0, 56, 0
2, 101520, Note_on_c, 0, 55, 75
2, 102000, Note_on_c, 0, 55, 0
2, 102000, Note_on_c, 0, 60, 79
2, 102240, Note_on_c, 0, 60, 0
2, 102240, Note_on_c, 0, 61, 84
2, 102960, Note_on_c, 0, 72, 79
2, 103440, Note_on_c, 0, 72, 0
2, 103440, Note_on_c, 0, 70, 73
2, 103680, Note_on_c, 0, 70, 0
2, 103680, Note_on_c, 0, 61, 0
2, 103680, Note_on_c, 0, 62, 81
2, 104400, Note_on_c, 0, 69, 76
2, 104880, Note_on_c, 0, 69, 0
2, 104880, Note_on_c, 0, 67, 69
2, 105120, Note_on_c, 0, 67, 0
2, 105120, Note_on_c, 0, 62, 0
2, 105120, Note_on_c, 0, 56, 64
2, 105600, Note_on_c, 0, 56, 0
2, 105600, Note_on_c, 0, 57, 58
2, 105840, Note_on_c, 0, 57, 0
2, 105840, Note_on_c, 0, 62, 63
2, 106320, Note_on_c, 0, 62, 0
2, 106320, Note_on_c, 0, 57, 57
2, 106560, Note_on_c, 0, 57, 0
2, 106560, Note_on_c, 0, 60, 53
2, 107280, Note_on_c, 0, 60, 0
2, 107280, Note_on_c, 0, 58, 46
2, 107760, Note_on_c, 0, 58, 0
2, 108000, Note_on_c, 0, 68, 45
2, 108480, Note_on_c, 0, 68, 0
2, 108480, Note_on_c, 0, 69, 39
2, 108720, Note_on_c, 0, 69, 0
2, 108720, Note_on_c, 0, 74, 45
2, 109200, Note_on_c, 0, 74, 0
2, 109200, Note_on_c, 0, 69, 39
2, 109440, Note_on_c, 0, 69, 0
2, 109440, Note_on_c, 0, 72, 45
2, 110160, Note_on_c, 0, 72, 0
2, 110160, Note_on_c, 0, 70, 45
2, 110880, Note_on_c, 0, 70, 0
2, 110880, Note_on_c, 0, 61, 50
2, 111600, Note_on_c, 0, 61, 0
2, 111600, Note_on_c, 0, 62, 47
2, 112320, Note_on_c, 0, 62, 0
2, 112320, Note_on_c, 0, 57, 44
2, 113040, Note_on_c, 0, 57, 0
2, 113040, Note_on_c, 0, 58, 36
2, 113760, Note_on_c, 0, 58, 0
2, 113760, Note_on_c, 0, 80, 51
2, 114240, Note_on_c, 0, 80, 0
2, 114240, Note_on_c, 0, 81, 44
2, 114480, Note_on_c, 0, 81, 0
2, 114480, Note_on_c, 0, 86, 51
2, 114960, Note_on_c, 0, 86, 0
2, 114960, Note_on_c, 0, 81, 44
2, 115200, Note_on_c, 0, 81, 0
2, 115200, Note_on_c, 0, 84, 51
2, 115920, Note_on_c, 0, 84, 0
2, 115920, Note_on_c, 0, 82, 51
2, 116640, Note_on_c, 0, 82, 0
2, 116640, Note_on_c, 0, 73, 57
2, 117360, Note_on_c, 0, 73, 0
2, 117360, Note_on_c, 0, 74, 54
2, 118080, Note_on_c, 0, 74, 0
2, 118080, Note_on_c, 0, 69, 44
2, 118800, Note_on_c, 0, 69, 0
2, 118800, Note_on_c, 0, 70, 36
2, 119520, Note_on_c, 0, 70, 0
2, 119520, Note_on_c, 0, 69, 44
2, 120240, Note_on_c, 0, 69, 0
2, 120240, Note_on_c, 0, 70, 36
2, 120960, Note_on_c, 0, 70, 0
2, 120960, Note_on_c, 0, 69, 44
2, 121680, Note_on_c, 0, 69, 0
2, 121680, Note_on_c, 0, 70, 36
2, 122389, Note_on_c, 0, 69, 44
2, 122400, Note_on_c, 0, 70, 0
2, 123349, Note_on_c, 0, 69, 0
2, 123360, Note_on_c, 0, 68, 39
2, 123480, Note_on_c, 0, 68, 0
2, 123480, Note_on_c, 0, 69, 33
2, 123600, Note_on_c, 0, 69, 0
2, 123600, Note_on_c, 0, 70, 37
2, 123720, Note_on_c, 0, 70, 0
2, 123720, Note_on_c, 0, 69, 31
2, 123840, Note_on_c, 0, 69, 0
2, 123840, Note_on_c, 0, 74, 42
2, 124320, Note_on_c, 0, 74, 0
2, 124320, Note_on_c, 0, 72, 38
2, 124560, Note_on_c, 0, 72, 0
2, 124560, Note_on_c, 0, 70, 34
2, 124560, Note_on_c, 0, 62, 23
2, 124560, Note_on_c, 0, 65, 28
2, 125280, Note_on_c, 0, 65, 0
2, 125280, Note_on_c, 0, 62, 0
2, 125280, Note_on_c, 0, 70, 0
2, 125280, End_track
3, 0, Start_track
3, 0, Title_t, "Piano left"
3, 0, Program_c, 0, 0
3, 0, Control_c, 0, 7, 100
3, 0, Control_c, 0, 10, 64
3, 0, Control_c, 0, 64, 0
3, 960, Control_c, 0, 91, 127
3, 1440, Note_on_c, 0, 58, 30
3, 1440, Note_on_c, 0, 62, 30
3, 1440, Note_on_c, 0, 65, 36
3, 1440, Control_c, 0, 64, 127
3, 1680, Note_on_c, 0, 65, 0
3, 1680, Note_on_c, 0, 62, 0
3, 1680, Note_on_c, 0, 58, 0
3, 1680, Note_on_c, 0, 58, 31
3, 1680, Note_on_c, 0, 65, 35
3, 1680, Note_on_c, 0, 62, 31
3, 1920, Note_on_c, 0, 62, 0
3, 1920, Note_on_c, 0, 65, 0
3, 1920, Note_on_c, 0, 58, 0
3, 1920, Note_on_c, 0, 58, 28
3, 1920, Note_on_c, 0, 65, 32
3, 1920, Note_on_c, 0, 62, 28
3, 2160, Note_on_c, 0, 62, 0
3, 2160, Note_on_c, 0, 65, 0
3, 2160, Note_on_c, 0, 58, 0
3, 2160, Note_on_c, 0, 62, 31
3, 2160, Note_on_c, 0, 65, 35
3, 2160, Note_on_c, 0, 58, 31
3, 2178, Control_c, 0, 64, 0
3, 2267, Control_c, 0, 64, 127
3, 2400, Note_on_c, 0, 58, 0
3, 2400, Note_on_c, 0, 65, 0
3, 2400, Note_on_c, 0, 62, 0
3, 2400, Note_on_c, 0, 62, 24
3, 2400, Note_on_c, 0, 65, 32
3, 2400, Note_on_c, 0, 58, 24
3, 2640, Note_on_c, 0, 58, 0
3, 2640, Note_on_c, 0, 65, 0
3, 2640, Note_on_c, 0, 62, 0
3, 2646, Control_c, 0, 64, 0
3, 2918, Control_c, 0, 64, 127
3, 3120, Note_on_c, 0, 65, 36
3, 3120, Note_on_c, 0, 63, 36
3, 3120, Note_on_c, 0, 57, 30
3, 3360, Note_on_c, 0, 57, 0
3, 3360, Note_on_c, 0, 63, 0
3, 3360, Note_on_c, 0, 65, 0
3, 3360, Note_on_c, 0, 63, 36
3, 3360, Note_on_c, 0, 57, 30
3, 3360, Note_on_c, 0, 65, 36
3, 3600, Note_on_c, 0, 65, 0
3, 3600, Note_on_c, 0, 57, 0
3, 3600, Note_on_c, 0, 63, 0
3, 3600, Note_on_c, 0, 57, 30
3, 3600, Note_on_c, 0, 65, 36
3, 3600, Note_on_c, 0, 63, 36
3, 3613, Control_c, 0, 64, 0
3, 3720, Control_c, 0, 64, 127
3, 3840, Note_on_c, 0, 63, 0
3, 3840, Note_on_c, 0, 65, 0
3, 3840, Note_on_c, 0, 57, 0
3, 3840, Note_on_c, 0, 63, 36
3, 3840, Note_on_c, 0, 57, 30
3, 3840, Note_on_c, 0, 65, 36
3, 4070, Note_on_c, 0, 65, 0
3, 4070, Note_on_c, 0, 57, 0
3, 4070, Note_on_c, 0, 63, 0
3, 4092, Control_c, 0, 64, 0
3, 4423, Control_c, 0, 64, 127
3, 4560, Note_on_c, 0, 62, 30
3, 4560, Note_on_c, 0, 56, 30
3, 4560, Note_on_c, 0, 65, 36
3, 4800, Note_on_c, 0, 65, 0
3, 4800, Note_on_c, 0, 56, 0
3, 4800, Note_on_c, 0, 62, 0
3, 4800, Note_on_c, 0, 56, 30
3, 4800, Note_on_c, 0, 65, 36
3, 4800, Note_on_c, 0, 62, 30
3, 5040, Note_on_c, 0, 62, 0
3, 5040, Note_on_c, 0, 65, 0
3, 5040, Note_on_c, 0, 56, 0
3, 5040, Note_on_c, 0, 56, 33
3, 5040, Note_on_c, 0, 65, 40
3, 5040, Note_on_c, 0, 62, 33
3, 5054, Control_c, 0, 64, 0
3, 5154, Control_c, 0, 64, 127
3, 5280, Note_on_c, 0, 62, 0
3, 5280, Note_on_c, 0, 65, 0
3, 5280, Note_on_c, 0, 56, 0
3, 5280, Note_on_c, 0, 56, 33
3, 5280, Note_on_c, 0, 65, 40
3, 5280, Note_on_c, 0, 62, 33
3, 5520, Note_on_c, 0, 62, 0
3, 5520, Note_on_c, 0, 65, 0
3, 5520, Note_on_c, 0, 56, 0
3, 5529, Control_c, 0, 64, 0
3, 5853, Control_c, 0, 64, 127
3, 6000, Note_on_c, 0, 55, 38
3, 6000, Note_on_c, 0, 63, 47
3, 6000, Note_on_c, 0, 60, 38
3, 6240, Note_on_c, 0, 60, 0
3, 6240, Note_on_c, 0, 63, 0
3, 6240, Note_on_c, 0, 55, 0
3, 6240, Note_on_c, 0, 60, 38
3, 6240, Note_on_c, 0, 63, 47
3, 6240, Note_on_c, 0, 55, 38
3, 6480, Note_on_c, 0, 55, 0
3, 6480, Note_on_c, 0, 63, 0
3, 6480, Note_on_c, 0, 60, 0
3, 6480, Note_on_c, 0, 55, 38
3, 6480, Note_on_c, 0, 63, 48
3, 6480, Note_on_c, 0, 60, 38
3, 6490, Control_c, 0, 64, 0
3, 6573, Control_c, 0, 64, 127
3, 6720, Note_on_c, 0, 60, 0
3, 6720, Note_on_c, 0, 63, 0
3, 6720, Note_on_c, 0, 55, 0
3, 6720, Note_on_c, 0, 60, 38
3, 6720, Note_on_c, 0, 55, 38
3, 6720, Note_on_c, 0, 63, 48
3, 6960, Note_on_c, 0, 63, 0
3, 6960, Note_on_c, 0, 55, 0
3, 6960, Note_on_c, 0, 60, 0
3, 6966, Control_c, 0, 64, 0
3, 7266, Control_c, 0, 64, 127
3, 7440, Note_on_c, 0, 57, 45
3, 7440, Note_on_c, 0, 55, 44
3, 7440, Note_on_c, 0, 64, 49
3, 7440, Note_on_c, 0, 61, 49
3, 7680, Note_on_c, 0, 61, 0
3, 7680, Note_on_c, 0, 57, 0
3, 7680, Note_on_c, 0, 55, 0
3, 7680, Note_on_c, 0, 64, 0
3, 7680, Note_on_c, 0, 55, 38
3, 7680, Note_on_c, 0, 61, 45
3, 7680, Note_on_c, 0, 57, 38
3, 7680, Note_on_c, 0, 64, 45
3, 7920, Note_on_c, 0, 64, 0
3, 7920, Note_on_c, 0, 55, 0
3, 7920, Note_on_c, 0, 61, 0
3, 7920, Note_on_c, 0, 57, 0
3, 7920, Note_on_c, 0, 55, 41
3, 7920, Note_on_c, 0, 61, 50
3, 7920, Note_on_c, 0, 57, 41
3, 7920, Note_on_c, 0, 64, 50
3, 7931, Control_c, 0, 64, 0
3, 8003, Control_c, 0, 64, 127
3, 8160, Note_on_c, 0, 64, 0
3, 8160, Note_on_c, 0, 55, 0
3, 8160, Note_on_c, 0, 61, 0
3, 8160, Note_on_c, 0, 57, 0
3, 8160, Note_on_c, 0, 57, 41
3, 8160, Note_on_c, 0, 55, 41
3, 8160, Note_on_c, 0, 64, 50
3, 8160, Note_on_c, 0, 61, 50
3, 8400, Note_on_c, 0, 61, 0
3, 8400, Note_on_c, 0, 57, 0
3, 8400, Note_on_c, 0, 55, 0
3, 8400, Note_on_c, 0, 64, 0
3, 8408, Control_c, 0, 64, 0
3, 8827, Control_c, 0, 64, 127
3, 8880, Note_on_c, 0, 53, 37
3, 8880, Note_on_c, 0, 57, 37
3, 8880, Note_on_c, 0, 62, 44
3, 9120, Note_on_c, 0, 62, 0
3, 9120, Note_on_c, 0, 57, 0
3, 9120, Note_on_c, 0, 53, 0
3, 9120, Note_on_c, 0, 62, 43
3, 9120, Note_on_c, 0, 57, 37
3, 9120, Note_on_c, 0, 53, 37
3, 9360, Note_on_c, 0, 53, 0
3, 9360, Note_on_c, 0, 57, 0
3, 9360, Note_on_c, 0, 62, 0
3, 9360, Note_on_c, 0, 53, 36
3, 9360, Note_on_c, 0, 57, 36
3, 9360, Note_on_c, 0, 62, 43
3, 9369, Control_c, 0, 64, 0
3, 9493, Control_c, 0, 64, 127
3, 9600, Note_on_c, 0, 62, 0
3, 9600, Note_on_c, 0, 57, 0
3, 9600, Note_on_c, 0, 53, 0
3, 9600, Note_on_c, 0, 62, 42
3, 9600, Note_on_c, 0, 53, 36
3, 9600, Note_on_c, 0, 57, 36
3, 9840, Note_on_c, 0, 57, 0
3, 9840, Note_on_c, 0, 53, 0
3, 9840, Note_on_c, 0, 62, 0
3, 9855, Control_c, 0, 64, 0
3, 10229, Control_c, 0, 64, 127
3, 10320, Note_on_c, 0, 55, 31
3, 10320, Note_on_c, 0, 52, 31
3, 10320, Note_on_c, 0, 57, 37
3, 10320, Note_on_c, 0, 61, 37
3, 10560, Note_on_c, 0, 61, 0
3, 10560, Note_on_c, 0, 55, 0
3, 10560, Note_on_c, 0, 52, 0
3, 10560, Note_on_c, 0, 57, 0
3, 10560, Note_on_c, 0, 52, 31
3, 10560, Note_on_c, 0, 61, 37
3, 10560, Note_on_c, 0, 55, 26
3, 10560, Note_on_c, 0, 57, 37
3, 10800, Note_on_c, 0, 57, 0
3, 10800, Note_on_c, 0, 52, 0
3, 10800, Note_on_c, 0, 61, 0
3, 10800, Note_on_c, 0, 55, 0
3, 10800, Note_on_c, 0, 52, 30
3, 10800, Note_on_c, 0, 61, 37
3, 10800, Note_on_c, 0, 55, 25
3, 10800, Note_on_c, 0, 57, 37
3, 10810, Control_c, 0, 64, 0
3, 10907, Control_c, 0, 64, 127
3, 11040, Note_on_c, 0, 57, 0
3, 11040, Note_on_c, 0, 52, 0
3, 11040, Note_on_c, 0, 61, 0
3, 11040, Note_on_c, 0, 55, 0
3, 11040, Note_on_c, 0, 52, 30
3, 11040, Note_on_c, 0, 61, 36
3, 11040, Note_on_c, 0, 55, 25
3, 11040, Note_on_c, 0, 57, 36
3, 11280, Note_on_c, 0, 57, 0
3, 11280, Note_on_c, 0, 52, 0
3, 11280, Note_on_c, 0, 61, 0
3, 11280, Note_on_c, 0, 55, 0
3, 11285, Control_c, 0, 64, 0
3, 11693, Control_c, 0, 64, 127
3, 11760, Note_on_c, 0, 57, 33
3, 11760, Note_on_c, 0, 50, 23
3, 12000, Note_on_c, 0, 50, 0
3, 12000, Note_on_c, 0, 57, 0
3, 12000, Note_on_c, 0, 57, 29
3, 12000, Note_on_c, 0, 50, 21
3, 12240, Note_on_c, 0, 50, 0
3, 12240, Note_on_c, 0, 57, 0
3, 12240, Note_on_c, 0, 50, 21
3, 12240, Note_on_c, 0, 57, 29
3, 12480, Note_on_c, 0, 57, 0
3, 12480, Note_on_c, 0, 50, 0
3, 12480, Note_on_c, 0, 50, 21
3, 12480, Note_on_c, 0, 57, 29
3, 12720, Note_on_c, 0, 57, 0
3, 12720, Note_on_c, 0, 50, 0
3, 12726, Control_c, 0, 64, 0
3, 12960, Control_c, 0, 64, 127
3, 13200, Note_on_c, 0, 48, 31
3, 13200, Note_on_c, 0, 63, 35
3, 13200, Note_on_c, 0, 53, 31
3, 13200, Note_on_c, 0, 65, 35
3, 13440, Note_on_c, 0, 65, 0
3, 13440, Note_on_c, 0, 48, 0
3, 13440, Note_on_c, 0, 63, 0
3, 13440, Note_on_c, 0, 53, 0
3, 13440, Note_on_c, 0, 53, 29
3, 13440, Note_on_c, 0, 48, 29
3, 13440, Note_on_c, 0, 65, 33
3, 13440, Note_on_c, 0, 63, 33
3, 13680, Note_on_c, 0, 63, 0
3, 13680, Note_on_c, 0, 53, 0
3, 13680, Note_on_c, 0, 48, 0
3, 13680, Note_on_c, 0, 65, 0
3, 13680, Note_on_c, 0, 53, 35
3, 13680, Note_on_c, 0, 63, 35
3, 13680, Note_on_c, 0, 65, 35
3, 13680, Note_on_c, 0, 48, 35
3, 13690, Control_c, 0, 64, 0
3, 13787, Control_c, 0, 64, 127
3, 13920, Note_on_c, 0, 48, 0
3, 13920, Note_on_c, 0, 53, 0
3, 13920, Note_on_c, 0, 63, 0
3, 13920, Note_on_c, 0, 65, 0
3, 13920, Note_on_c, 0, 53, 27
3, 13920, Note_on_c, 0, 48, 27
3, 13920, Note_on_c, 0, 65, 32
3, 13920, Note_on_c, 0, 63, 27
3, 14160, Note_on_c, 0, 63, 0
3, 14160, Note_on_c, 0, 53, 0
3, 14160, Note_on_c, 0, 48, 0
3, 14160, Note_on_c, 0, 65, 0
3, 14172, Control_c, 0, 64, 0
3, 14438, Control_c, 0, 64, 127
3, 14640, Note_on_c, 0, 46, 30
3, 14640, Note_on_c, 0, 62, 36
3, 14640, Note_on_c, 0, 65, 36
3, 14880, Note_on_c, 0, 65, 0
3, 14880, Note_on_c, 0, 62, 0
3, 14880, Note_on_c, 0, 46, 0
3, 14880, Note_on_c, 0, 62, 36
3, 14880, Note_on_c, 0, 65, 36
3, 14880, Note_on_c, 0, 46, 30
3, 15120, Note_on_c, 0, 46, 0
3, 15120, Note_on_c, 0, 65, 0
3, 15120, Note_on_c, 0, 62, 0
3, 15120, Note_on_c, 0, 46, 30
3, 15120, Note_on_c, 0, 65, 36
3, 15120, Note_on_c, 0, 62, 36
3, 15125, Control_c, 0, 64, 0
3, 15240, Control_c, 0, 64, 127
3, 15360, Note_on_c, 0, 62, 0
3, 15360, Note_on_c, 0, 65, 0
3, 15360, Note_on_c, 0, 46, 0
3, 15360, Note_on_c, 0, 62, 36
3, 15360, Note_on_c, 0, 46, 30
3, 15360, Note_on_c, 0, 65, 36
3, 15600, Note_on_c, 0, 65, 0
3, 15600, Note_on_c, 0, 46, 0
3, 15600, Note_on_c, 0, 62, 0
3, 15619, Control_c, 0, 64, 0
3, 15943, Control_c, 0, 64, 127
3, 16080, Note_on_c, 0, 55, 33
3, 16080, Note_on_c, 0, 50, 33
3, 16080, Note_on_c, 0, 67, 39
3, 16080, Note_on_c, 0, 65, 33
3, 16320, Note_on_c, 0, 65, 0
3, 16320, Note_on_c, 0, 55, 0
3, 16320, Note_on_c, 0, 50, 0
3, 16320, Note_on_c, 0, 67, 0
3, 16320, Note_on_c, 0, 55, 33
3, 16320, Note_on_c, 0, 65, 33
3, 16320, Note_on_c, 0, 67, 39
3, 16320, Note_on_c, 0, 50, 33
3, 16560, Note_on_c, 0, 50, 0
3, 16560, Note_on_c, 0, 55, 0
3, 16560, Note_on_c, 0, 65, 0
3, 16560, Note_on_c, 0, 67, 0
3, 16560, Note_on_c, 0, 55, 36
3, 16560, Note_on_c, 0, 65, 36
3, 16560, Note_on_c, 0, 67, 42
3, 16560, Note_on_c, 0, 50, 36
3, 16570, Control_c, 0, 64, 0
3, 16636, Control_c, 0, 64, 127
3, 16800, Note_on_c, 0, 50, 0
3, 16800, Note_on_c, 0, 55, 0
3, 16800, Note_on_c, 0, 65, 0
3, 16800, Note_on_c, 0, 67, 0
3, 16800, Note_on_c, 0, 55, 36
3, 16800, Note_on_c, 0, 65, 36
3, 16800, Note_on_c, 0, 67, 44
3, 16800, Note_on_c, 0, 50, 36
3, 17040, Note_on_c, 0, 50, 0
3, 17040, Note_on_c, 0, 55, 0
3, 17040, Note_on_c, 0, 65, 0
3, 17040, Note_on_c, 0, 67, 0
3, 17052, Control_c, 0, 64, 0
3, 17373, Control_c, 0, 64, 127
3, 17520, Note_on_c, 0, 60, 41
3, 17520, Note_on_c, 0, 48, 41
3, 17520, Note_on_c, 0, 63, 51
3, 17760, Note_on_c, 0, 63, 0
3, 17760, Note_on_c, 0, 48, 0
3, 17760, Note_on_c, 0, 60, 0
3, 17760, Note_on_c, 0, 48, 41
3, 17760, Note_on_c, 0, 63, 52
3, 17760, Note_on_c, 0, 60, 41
3, 18000, Note_on_c, 0, 60, 0
3, 18000, Note_on_c, 0, 63, 0
3, 18000, Note_on_c, 0, 48, 0
3, 18000, Note_on_c, 0, 60, 41
3, 18000, Note_on_c, 0, 48, 41
3, 18000, Note_on_c, 0, 63, 52
3, 18010, Control_c, 0, 64, 0
3, 18067, Control_c, 0, 64, 127
3, 18240, Note_on_c, 0, 63, 0
3, 18240, Note_on_c, 0, 48, 0
3, 18240, Note_on_c, 0, 60, 0
3, 18240, Note_on_c, 0, 48, 42
3, 18240, Note_on_c, 0, 63, 53
3, 18240, Note_on_c, 0, 60, 42
3, 18470, Note_on_c, 0, 60, 0
3, 18470, Note_on_c, 0, 63, 0
3, 18470, Note_on_c, 0, 48, 0
3, 18490, Control_c, 0, 64, 0
3, 18800, Control_c, 0, 64, 127
3, 18960, Note_on_c, 0, 55, 46
3, 18960, Note_on_c, 0, 64, 57
3, 18960, Note_on_c, 0, 58, 57
3, 19200, Note_on_c, 0, 58, 0
3, 19200, Note_on_c, 0, 64, 0
3, 19200, Note_on_c, 0, 55, 0
3, 19200, Note_on_c, 0, 58, 47
3, 19200, Note_on_c, 0, 64, 47
3, 19200, Note_on_c, 0, 55, 39
3, 19440, Note_on_c, 0, 55, 0
3, 19440, Note_on_c, 0, 64, 0
3, 19440, Note_on_c, 0, 58, 0
3, 19440, Note_on_c, 0, 55, 43
3, 19440, Note_on_c, 0, 64, 52
3, 19440, Note_on_c, 0, 58, 52
3, 19449, Control_c, 0, 64, 0
3, 19531, Control_c, 0, 64, 127
3, 19680, Note_on_c, 0, 58, 0
3, 19680, Note_on_c, 0, 64, 0
3, 19680, Note_on_c, 0, 55, 0
3, 19680, Note_on_c, 0, 58, 52
3, 19680, Note_on_c, 0, 55, 43
3, 19680, Note_on_c, 0, 64, 52
3, 19920, Note_on_c, 0, 64, 0
3, 19920, Note_on_c, 0, 55, 0
3, 19920, Note_on_c, 0, 58, 0
3, 19928, Control_c, 0, 64, 0
3, 20347, Control_c, 0, 64, 127
3, 20400, Note_on_c, 0, 65, 46
3, 20400, Note_on_c, 0, 53, 38
3, 20400, Note_on_c, 0, 58, 38
3, 20640, Note_on_c, 0, 58, 0
3, 20640, Note_on_c, 0, 53, 0
3, 20640, Note_on_c, 0, 65, 0
3, 20640, Note_on_c, 0, 65, 46
3, 20640, Note_on_c, 0, 53, 38
3, 20640, Note_on_c, 0, 58, 38
3, 20880, Note_on_c, 0, 58, 0
3, 20880, Note_on_c, 0, 53, 0
3, 20880, Note_on_c, 0, 65, 0
3, 20880, Note_on_c, 0, 65, 46
3, 20880, Note_on_c, 0, 58, 38
3, 20880, Note_on_c, 0, 53, 38
3, 20911, Control_c, 0, 64, 0
3, 21027, Control_c, 0, 64, 127
3, 21120, Note_on_c, 0, 53, 0
3, 21120, Note_on_c, 0, 58, 0
3, 21120, Note_on_c, 0, 65, 0
3, 21120, Note_on_c, 0, 53, 38
3, 21120, Note_on_c, 0, 58, 38
3, 21120, Note_on_c, 0, 65, 46
3, 21360, Note_on_c, 0, 65, 0
3, 21360, Note_on_c, 0, 58, 0
3, 21360, Note_on_c, 0, 53, 0
3, 21364, Control_c, 0, 64, 0
3, 21749, Control_c, 0, 64, 127
3, 21840, Note_on_c, 0, 41, 38
3, 21840, Note_on_c, 0, 51, 38
3, 22080, Note_on_c, 0, 51, 0
3, 22080, Note_on_c, 0, 41, 0
3, 22080, Note_on_c, 0, 51, 38
3, 22080, Note_on_c, 0, 41, 31
3, 22320, Note_on_c, 0, 41, 0
3, 22320, Note_on_c, 0, 51, 0
3, 22330, Control_c, 0, 64, 0
3, 22434, Control_c, 0, 64, 127
3, 22560, Note_on_c, 0, 42, 30
3, 22560, Note_on_c, 0, 50, 37
3, 22800, Note_on_c, 0, 50, 0
3, 22800, Note_on_c, 0, 42, 0
3, 22800, Note_on_c, 0, 42, 30
3, 22800, Note_on_c, 0, 50, 36
3, 22816, Control_c, 0, 64, 0
3, 23040, Note_on_c, 0, 50, 0
3, 23040, Note_on_c, 0, 42, 0
3, 23213, Control_c, 0, 64, 127
3, 23280, Note_on_c, 0, 43, 28
3, 23280, Note_on_c, 0, 50, 33
3, 23280, Note_on_c, 0, 55, 36
3, 23520, Note_on_c, 0, 55, 0
3, 23520, Note_on_c, 0, 50, 0
3, 23520, Note_on_c, 0, 43, 0
3, 23520, Note_on_c, 0, 43, 25
3, 23520, Note_on_c, 0, 55, 32
3, 23520, Note_on_c, 0, 50, 29
3, 23760, Note_on_c, 0, 50, 0
3, 23760, Note_on_c, 0, 55, 0
3, 23760, Note_on_c, 0, 43, 0
3, 23760, Note_on_c, 0, 55, 32
3, 23760, Note_on_c, 0, 50, 29
3, 23760, Note_on_c, 0, 43, 25
3, 23769, Control_c, 0, 64, 0
3, 23880, Control_c, 0, 64, 127
3, 24000, Note_on_c, 0, 43, 0
3, 24000, Note_on_c, 0, 50, 0
3, 24000, Note_on_c, 0, 55, 0
3, 24000, Note_on_c, 0, 43, 25
3, 24000, Note_on_c, 0, 55, 32
3, 24000, Note_on_c, 0, 50, 29
3, 24240, Note_on_c, 0, 50, 0
3, 24240, Note_on_c, 0, 55, 0
3, 24240, Note_on_c, 0, 43, 0
3, 24256, Control_c, 0, 64, 0
3, 24556, Control_c, 0, 64, 127
3, 24720, Note_on_c, 0, 53, 28
3, 24720, Note_on_c, 0, 63, 32
3, 24720, Note_on_c, 0, 65, 32
3, 24720, Note_on_c, 0, 48, 28
3, 24960, Note_on_c, 0, 48, 0
3, 24960, Note_on_c, 0, 53, 0
3, 24960, Note_on_c, 0, 63, 0
3, 24960, Note_on_c, 0, 65, 0
3, 24960, Note_on_c, 0, 48, 27
3, 24960, Note_on_c, 0, 63, 30
3, 24960, Note_on_c, 0, 65, 30
3, 24960, Note_on_c, 0, 53, 27
3, 25200, Note_on_c, 0, 53, 0
3, 25200, Note_on_c, 0, 48, 0
3, 25200, Note_on_c, 0, 63, 0
3, 25200, Note_on_c, 0, 65, 0
3, 25200, Note_on_c, 0, 53, 28
3, 25200, Note_on_c, 0, 48, 28
3, 25200, Note_on_c, 0, 65, 32
3, 25200, Note_on_c, 0, 63, 32
3, 25210, Control_c, 0, 64, 0
3, 25307, Control_c, 0, 64, 127
3, 25440, Note_on_c, 0, 63, 0
3, 25440, Note_on_c, 0, 53, 0
3, 25440, Note_on_c, 0, 48, 0
3, 25440, Note_on_c, 0, 65, 0
3, 25440, Note_on_c, 0, 48, 27
3, 25440, Note_on_c, 0, 63, 30
3, 25440, Note_on_c, 0, 65, 30
3, 25440, Note_on_c, 0, 53, 27
3, 25680, Note_on_c, 0, 53, 0
3, 25680, Note_on_c, 0, 48, 0
3, 25680, Note_on_c, 0, 63, 0
3, 25680, Note_on_c, 0, 65, 0
3, 25686, Control_c, 0, 64, 0
3, 25958, Control_c, 0, 64, 127
3, 26160, Note_on_c, 0, 62, 36
3, 26160, Note_on_c, 0, 58, 36
3, 26160, Note_on_c, 0, 46, 30
3, 26400, Note_on_c, 0, 46, 0
3, 26400, Note_on_c, 0, 58, 0
3, 26400, Note_on_c, 0, 62, 0
3, 26400, Note_on_c, 0, 58, 36
3, 26400, Note_on_c, 0, 46, 30
3, 26400, Note_on_c, 0, 62, 36
3, 26640, Note_on_c, 0, 62, 0
3, 26640, Note_on_c, 0, 46, 0
3, 26640, Note_on_c, 0, 58, 0
3, 26640, Note_on_c, 0, 46, 30
3, 26640, Note_on_c, 0, 62, 36
3, 26640, Note_on_c, 0, 58, 36
3, 26650, Control_c, 0, 64, 0
3, 26747, Control_c, 0, 64, 127
3, 26880, Note_on_c, 0, 58, 0
3, 26880, Note_on_c, 0, 62, 0
3, 26880, Note_on_c, 0, 46, 0
3, 26880, Note_on_c, 0, 58, 36
3, 26880, Note_on_c, 0, 46, 30
3, 26880, Note_on_c, 0, 62, 36
3, 27120, Note_on_c, 0, 62, 0
3, 27120, Note_on_c, 0, 46, 0
3, 27120, Note_on_c, 0, 58, 0
3, 27127, Control_c, 0, 64, 0
3, 27463, Control_c, 0, 64, 127
3, 27600, Note_on_c, 0, 55, 33
3, 27600, Note_on_c, 0, 50, 33
3, 27600, Note_on_c, 0, 67, 39
3, 27600, Note_on_c, 0, 65, 33
3, 27840, Note_on_c, 0, 65, 0
3, 27840, Note_on_c, 0, 55, 0
3, 27840, Note_on_c, 0, 50, 0
3, 27840, Note_on_c, 0, 67, 0
3, 27840, Note_on_c, 0, 55, 33
3, 27840, Note_on_c, 0, 65, 33
3, 27840, Note_on_c, 0, 67, 39
3, 27840, Note_on_c, 0, 50, 33
3, 28080, Note_on_c, 0, 50, 0
3, 28080, Note_on_c, 0, 55, 0
3, 28080, Note_on_c, 0, 65, 0
3, 28080, Note_on_c, 0, 67, 0
3, 28080, Note_on_c, 0, 55, 36
3, 28080, Note_on_c, 0, 65, 36
3, 28080, Note_on_c, 0, 67, 44
3, 28080, Note_on_c, 0, 50, 36
3, 28090, Control_c, 0, 64, 0
3, 28181, Control_c, 0, 64, 127
3, 28320, Note_on_c, 0, 50, 0
3, 28320, Note_on_c, 0, 55, 0
3, 28320, Note_on_c, 0, 65, 0
3, 28320, Note_on_c, 0, 67, 0
3, 28320, Note_on_c, 0, 55, 37
3, 28320, Note_on_c, 0, 65, 37
3, 28320, Note_on_c, 0, 67, 44
3, 28320, Note_on_c, 0, 50, 37
3, 28560, Note_on_c, 0, 50, 0
3, 28560, Note_on_c, 0, 55, 0
3, 28560, Note_on_c, 0, 65, 0
3, 28560, Note_on_c, 0, 67, 0
3, 28567, Control_c, 0, 64, 0
3, 28893, Control_c, 0, 64, 127
3, 29040, Note_on_c, 0, 48, 41
3, 29040, Note_on_c, 0, 63, 51
3, 29040, Note_on_c, 0, 60, 41
3, 29280, Note_on_c, 0, 60, 0
3, 29280, Note_on_c, 0, 63, 0
3, 29280, Note_on_c, 0, 48, 0
3, 29280, Note_on_c, 0, 48, 41
3, 29280, Note_on_c, 0, 63, 52
3, 29280, Note_on_c, 0, 60, 41
3, 29520, Note_on_c, 0, 60, 0
3, 29520, Note_on_c, 0, 63, 0
3, 29520, Note_on_c, 0, 48, 0
3, 29520, Note_on_c, 0, 60, 41
3, 29520, Note_on_c, 0, 48, 41
3, 29520, Note_on_c, 0, 63, 52
3, 29531, Control_c, 0, 64, 0
3, 29666, Control_c, 0, 64, 127
3, 29760, Note_on_c, 0, 63, 0
3, 29760, Note_on_c, 0, 48, 0
3, 29760, Note_on_c, 0, 60, 0
3, 29760, Note_on_c, 0, 60, 42
3, 29760, Note_on_c, 0, 63, 53
3, 29760, Note_on_c, 0, 48, 42
3, 29990, Note_on_c, 0, 48, 0
3, 29990, Note_on_c, 0, 63, 0
3, 29990, Note_on_c, 0, 60, 0
3, 30016, Control_c, 0, 64, 0
3, 30354, Control_c, 0, 64, 127
3, 30480, Note_on_c, 0, 58, 55
3, 30480, Note_on_c, 0, 64, 55
3, 30480, Note_on_c, 0, 55, 44
3, 30720, Note_on_c, 0, 55, 0
3, 30720, Note_on_c, 0, 64, 0
3, 30720, Note_on_c, 0, 58, 0
3, 30720, Note_on_c, 0, 58, 49
3, 30720, Note_on_c, 0, 55, 41
3, 30720, Note_on_c, 0, 64, 49
3, 30960, Note_on_c, 0, 64, 0
3, 30960, Note_on_c, 0, 55, 0
3, 30960, Note_on_c, 0, 58, 0
3, 30960, Note_on_c, 0, 55, 45
3, 30960, Note_on_c, 0, 64, 55
3, 30960, Note_on_c, 0, 58, 55
3, 30973, Control_c, 0, 64, 0
3, 31108, Control_c, 0, 64, 127
3, 31200, Note_on_c, 0, 58, 0
3, 31200, Note_on_c, 0, 64, 0
3, 31200, Note_on_c, 0, 55, 0
3, 31200, Note_on_c, 0, 58, 55
3, 31200, Note_on_c, 0, 55, 45
3, 31200, Note_on_c, 0, 64, 55
3, 31440, Note_on_c, 0, 64, 0
3, 31440, Note_on_c, 0, 55, 0
3, 31440, Note_on_c, 0, 58, 0
3, 31451, Control_c, 0, 64, 0
3, 31867, Control_c, 0, 64, 127
3, 31920, Note_on_c, 0, 65, 48
3, 31920, Note_on_c, 0, 53, 40
3, 31920, Note_on_c, 0, 58, 40
3, 32160, Note_on_c, 0, 58, 0
3, 32160, Note_on_c, 0, 53, 0
3, 32160, Note_on_c, 0, 65, 0
3, 32160, Note_on_c, 0, 53, 40
3, 32160, Note_on_c, 0, 58, 40
3, 32160, Note_on_c, 0, 65, 48
3, 32400, Note_on_c, 0, 65, 0
3, 32400, Note_on_c, 0, 58, 0
3, 32400, Note_on_c, 0, 53, 0
3, 32400, Note_on_c, 0, 65, 48
3, 32400, Note_on_c, 0, 53, 40
3, 32400, Note_on_c, 0, 58, 40
3, 32408, Control_c, 0, 64, 0
3, 32533, Control_c, 0, 64, 127
3, 32640, Note_on_c, 0, 58, 0
3, 32640, Note_on_c, 0, 53, 0
3, 32640, Note_on_c, 0, 65, 0
3, 32640, Note_on_c, 0, 53, 40
3, 32640, Note_on_c, 0, 58, 40
3, 32640, Note_on_c, 0, 65, 48
3, 32880, Note_on_c, 0, 65, 0
3, 32880, Note_on_c, 0, 58, 0
3, 32880, Note_on_c, 0, 53, 0
3, 32890, Control_c, 0, 64, 0
3, 33269, Control_c, 0, 64, 127
3, 33360, Note_on_c, 0, 48, 36
3, 33360, Note_on_c, 0, 51, 36
3, 33600, Note_on_c, 0, 51, 0
3, 33600, Note_on_c, 0, 48, 0
3, 33600, Note_on_c, 0, 48, 30
3, 33600, Note_on_c, 0, 51, 36
3, 33840, Note_on_c, 0, 51, 0
3, 33840, Note_on_c, 0, 48, 0
3, 33850, Control_c, 0, 64, 0
3, 34004, Control_c, 0, 64, 127
3, 34080, Note_on_c, 0, 51, 36
3, 34080, Note_on_c, 0, 41, 30
3, 34080, Note_on_c, 0, 57, 36
3, 34080, Note_on_c, 0, 53, 36
3, 34318, Note_on_c, 0, 57, 0
3, 34320, Note_on_c, 0, 51, 0
3, 34320, Note_on_c, 0, 41, 0
3, 34320, Note_on_c, 0, 53, 0
3, 34320, Note_on_c, 0, 51, 36
3, 34320, Note_on_c, 0, 41, 30
3, 34320, Note_on_c, 0, 53, 36
3, 34332, Control_c, 0, 64, 0
3, 34560, Note_on_c, 0, 53, 0
3, 34560, Note_on_c, 0, 41, 0
3, 34560, Note_on_c, 0, 51, 0
3, 34733, Control_c, 0, 64, 127
3, 34800, Note_on_c, 0, 57, 36
3, 34800, Note_on_c, 0, 54, 36
3, 34800, Note_on_c, 0, 46, 28
3, 34800, Note_on_c, 0, 51, 36
3, 35040, Note_on_c, 0, 51, 0
3, 35040, Note_on_c, 0, 57, 0
3, 35040, Note_on_c, 0, 54, 0
3, 35040, Note_on_c, 0, 46, 0
3, 35040, Note_on_c, 0, 54, 32
3, 35040, Note_on_c, 0, 51, 32
3, 35040, Note_on_c, 0, 57, 32
3, 35040, Note_on_c, 0, 46, 24
3, 35280, Note_on_c, 0, 46, 0
3, 35280, Note_on_c, 0, 54, 0
3, 35280, Note_on_c, 0, 51, 0
3, 35280, Note_on_c, 0, 57, 0
3, 35280, Note_on_c, 0, 53, 29
3, 35280, Note_on_c, 0, 46, 24
3, 35280, Note_on_c, 0, 51, 32
3, 35293, Control_c, 0, 64, 0
3, 35384, Control_c, 0, 64, 127
3, 35520, Note_on_c, 0, 51, 0
3, 35520, Note_on_c, 0, 49, 32
3, 35536, Control_c, 0, 64, 0
3, 35760, Note_on_c, 0, 49, 0
3, 35760, Note_on_c, 0, 46, 0
3, 35760, Note_on_c, 0, 53, 0
3, 35760, Note_on_c, 0, 50, 32
3, 36000, Note_on_c, 0, 50, 0
3, 36000, Control_c, 0, 64, 127
3, 36240, Note_on_c, 0, 55, 31
3, 36240, Note_on_c, 0, 65, 36
3, 36240, Note_on_c, 0, 58, 31
3, 36480, Note_on_c, 0, 58, 0
3, 36480, Note_on_c, 0, 65, 0
3, 36480, Note_on_c, 0, 55, 0
3, 36480, Note_on_c, 0, 65, 36
3, 36480, Note_on_c, 0, 55, 31
3, 36480, Note_on_c, 0, 58, 31
3, 36710, Note_on_c, 0, 58, 0
3, 36710, Note_on_c, 0, 55, 0
3, 36710, Note_on_c, 0, 65, 0
3, 36730, Control_c, 0, 64, 0
3, 36891, Control_c, 0, 64, 127
3, 36960, Note_on_c, 0, 45, 34
3, 36960, Note_on_c, 0, 55, 34
3, 37200, Note_on_c, 0, 55, 0
3, 37200, Note_on_c, 0, 45, 0
3, 37200, Note_on_c, 0, 55, 34
3, 37200, Note_on_c, 0, 45, 34
3, 37217, Control_c, 0, 64, 0
3, 37440, Note_on_c, 0, 45, 0
3, 37440, Note_on_c, 0, 55, 0
3, 37478, Control_c, 0, 64, 127
3, 37680, Note_on_c, 0, 62, 36
3, 37680, Note_on_c, 0, 53, 30
3, 37680, Note_on_c, 0, 57, 36
3, 37800, Note_on_c, 0, 57, 0
3, 37800, Note_on_c, 0, 53, 0
3, 37800, Note_on_c, 0, 62, 0
3, 37920, Note_on_c, 0, 50, 30
3, 38040, Note_on_c, 0, 50, 0
3, 38160, Note_on_c, 0, 62, 44
3, 38160, Note_on_c, 0, 57, 44
3, 38160, Note_on_c, 0, 65, 44
3, 38167, Control_c, 0, 64, 0
3, 38211, Control_c, 0, 64, 127
3, 38280, Note_on_c, 0, 65, 0
3, 38280, Note_on_c, 0, 57, 0
3, 38280, Note_on_c, 0, 62, 0
3, 38400, Note_on_c, 0, 50, 40
3, 38520, Note_on_c, 0, 50, 0
3, 38640, Note_on_c, 0, 65, 42
3, 38640, Note_on_c, 0, 62, 42
3, 38640, Note_on_c, 0, 69, 50
3, 38669, Control_c, 0, 64, 0
3, 38760, Note_on_c, 0, 69, 0
3, 38760, Note_on_c, 0, 62, 0
3, 38760, Note_on_c, 0, 65, 0
3, 38880, Control_c, 0, 64, 127
3, 39120, Note_on_c, 0, 58, 31
3, 39120, Note_on_c, 0, 55, 31
3, 39120, Note_on_c, 0, 65, 36
3, 39360, Note_on_c, 0, 65, 0
3, 39360, Note_on_c, 0, 55, 0
3, 39360, Note_on_c, 0, 58, 0
3, 39360, Note_on_c, 0, 58, 31
3, 39360, Note_on_c, 0, 65, 36
3, 39360, Note_on_c, 0, 55, 31
3, 39590, Note_on_c, 0, 55, 0
3, 39590, Note_on_c, 0, 65, 0
3, 39590, Note_on_c, 0, 58, 0
3, 39609, Control_c, 0, 64, 0
3, 39760, Control_c, 0, 64, 127
3, 39840, Note_on_c, 0, 55, 34
3, 39840, Note_on_c, 0, 45, 34
3, 40080, Note_on_c, 0, 45, 0
3, 40080, Note_on_c, 0, 55, 0
3, 40080, Note_on_c, 0, 45, 34
3, 40080, Note_on_c, 0, 55, 34
3, 40093, Control_c, 0, 64, 0
3, 40320, Note_on_c, 0, 55, 0
3, 40320, Note_on_c, 0, 45, 0
3, 40358, Control_c, 0, 64, 127
3, 40560, Note_on_c, 0, 53, 30
3, 40560, Note_on_c, 0, 57, 36
3, 40560, Note_on_c, 0, 62, 36
3, 40680, Note_on_c, 0, 62, 0
3, 40680, Note_on_c, 0, 57, 0
3, 40680, Note_on_c, 0, 53, 0
3, 40800, Note_on_c, 0, 50, 30
3, 40920, Note_on_c, 0, 50, 0
3, 41040, Note_on_c, 0, 57, 44
3, 41040, Note_on_c, 0, 65, 44
3, 41040, Note_on_c, 0, 62, 44
3, 41050, Control_c, 0, 64, 0
3, 41120, Control_c, 0, 64, 127
3, 41160, Note_on_c, 0, 62, 0
3, 41160, Note_on_c, 0, 65, 0
3, 41160, Note_on_c, 0, 57, 0
3, 41280, Note_on_c, 0, 50, 38
3, 41400, Note_on_c, 0, 50, 0
3, 41520, Note_on_c, 0, 62, 43
3, 41520, Note_on_c, 0, 69, 51
3, 41520, Note_on_c, 0, 65, 43
3, 41549, Control_c, 0, 64, 0
3, 41640, Note_on_c, 0, 65, 0
3, 41640, Note_on_c, 0, 69, 0
3, 41640, Note_on_c, 0, 62, 0
3, 41760, Control_c, 0, 64, 127
3, 42000, Note_on_c, 0, 55, 31
3, 42000, Note_on_c, 0, 65, 36
3, 42000, Note_on_c, 0, 58, 31
3, 42240, Note_on_c, 0, 58, 0
3, 42240, Note_on_c, 0, 65, 0
3, 42240, Note_on_c, 0, 55, 0
3, 42240, Note_on_c, 0, 58, 31
3, 42240, Note_on_c, 0, 55, 31
3, 42240, Note_on_c, 0, 65, 36
3, 42470, Note_on_c, 0, 65, 0
3, 42470, Note_on_c, 0, 55, 0
3, 42470, Note_on_c, 0, 58, 0
3, 42490, Control_c, 0, 64, 0
3, 42663, Control_c, 0, 64, 127
3, 42720, Note_on_c, 0, 55, 34
3, 42720, Note_on_c, 0, 45, 34
3, 42960, Note_on_c, 0, 45, 0
3, 42960, Note_on_c, 0, 55, 0
3, 42960, Note_on_c, 0, 55, 34
3, 42960, Note_on_c, 0, 45, 34
3, 42970, Control_c, 0, 64, 0
3, 43200, Note_on_c, 0, 45, 0
3, 43200, Note_on_c, 0, 55, 0
3, 43238, Control_c, 0, 64, 127
3, 43440, Note_on_c, 0, 62, 36
3, 43440, Note_on_c, 0, 53, 30
3, 43440, Note_on_c, 0, 57, 36
3, 43560, Note_on_c, 0, 57, 0
3, 43560, Note_on_c, 0, 53, 0
3, 43560, Note_on_c, 0, 62, 0
3, 43680, Note_on_c, 0, 50, 30
3, 43800, Note_on_c, 0, 50, 0
3, 43920, Note_on_c, 0, 62, 44
3, 43920, Note_on_c, 0, 65, 44
3, 43920, Note_on_c, 0, 57, 44
3, 43926, Control_c, 0, 64, 0
3, 43994, Control_c, 0, 64, 127
3, 44040, Note_on_c, 0, 57, 0
3, 44040, Note_on_c, 0, 65, 0
3, 44040, Note_on_c, 0, 62, 0
3, 44160, Note_on_c, 0, 50, 40
3, 44280, Note_on_c, 0, 50, 0
3, 44400, Note_on_c, 0, 62, 42
3, 44400, Note_on_c, 0, 69, 50
3, 44400, Note_on_c, 0, 65, 42
3, 44429, Control_c, 0, 64, 0
3, 44520, Note_on_c, 0, 65, 0
3, 44520, Note_on_c, 0, 69, 0
3, 44520, Note_on_c, 0, 62, 0
3, 44640, Control_c, 0, 64, 127
3, 44880, Note_on_c, 0, 55, 31
3, 44880, Note_on_c, 0, 65, 36
3, 44880, Note_on_c, 0, 58, 31
3, 45120, Note_on_c, 0, 58, 0
3, 45120, Note_on_c, 0, 65, 0
3, 45120, Note_on_c, 0, 55, 0
3, 45120, Note_on_c, 0, 65, 36
3, 45120, Note_on_c, 0, 55, 31
3, 45120, Note_on_c, 0, 58, 31
3, 45350, Note_on_c, 0, 58, 0
3, 45350, Note_on_c, 0, 55, 0
3, 45350, Note_on_c, 0, 65, 0
3, 45372, Control_c, 0, 64, 0
3, 45467, Control_c, 0, 64, 127
3, 45600, Note_on_c, 0, 45, 34
3, 45600, Note_on_c, 0, 55, 34
3, 45840, Note_on_c, 0, 55, 0
3, 45840, Note_on_c, 0, 45, 0
3, 45840, Note_on_c, 0, 55, 34
3, 45840, Note_on_c, 0, 45, 34
3, 45849, Control_c, 0, 64, 0
3, 46080, Note_on_c, 0, 45, 0
3, 46080, Note_on_c, 0, 55, 0
3, 46118, Control_c, 0, 64, 127
3, 46320, Note_on_c, 0, 62, 36
3, 46320, Note_on_c, 0, 53, 30
3, 46320, Note_on_c, 0, 57, 36
3, 46440, Note_on_c, 0, 57, 0
3, 46440, Note_on_c, 0, 53, 0
3, 46440, Note_on_c, 0, 62, 0
3, 46560, Note_on_c, 0, 50, 30
3, 46680, Note_on_c, 0, 50, 0
3, 46800, Note_on_c, 0, 62, 44
3, 46800, Note_on_c, 0, 57, 44
3, 46800, Note_on_c, 0, 65, 44
3, 46810, Control_c, 0, 64, 0
3, 46885, Control_c, 0, 64, 127
3, 46920, Note_on_c, 0, 65, 0
3, 46920, Note_on_c, 0, 57, 0
3, 46920, Note_on_c, 0, 62, 0
3, 47040, Note_on_c, 0, 50, 38
3, 47160, Note_on_c, 0, 50, 0
3, 47280, Note_on_c, 0, 65, 43
3, 47280, Note_on_c, 0, 62, 43
3, 47280, Note_on_c, 0, 69, 51
3, 47309, Control_c, 0, 64, 0
3, 47400, Note_on_c, 0, 69, 0
3, 47400, Note_on_c, 0, 62, 0
3, 47400, Note_on_c, 0, 65, 0
3, 47570, Control_c, 0, 64, 127
3, 47760, Note_on_c, 0, 62, 34
3, 47760, Note_on_c, 0, 60, 34
3, 47760, Note_on_c, 0, 70, 46
3, 47760, Note_on_c, 0, 66, 46
3, 47880, Note_on_c, 0, 66, 0
3, 47880, Note_on_c, 0, 62, 0
3, 47880, Note_on_c, 0, 60, 0
3, 47880, Note_on_c, 0, 70, 0
3, 48000, Note_on_c, 0, 60, 28
3, 48000, Note_on_c, 0, 66, 39
3, 48000, Note_on_c, 0, 69, 39
3, 48000, Note_on_c, 0, 62, 28
3, 48120, Note_on_c, 0, 62, 0
3, 48120, Note_on_c, 0, 60, 0
3, 48120, Note_on_c, 0, 66, 0
3, 48120, Note_on_c, 0, 69, 0
3, 48255, Control_c, 0, 64, 0
3, 48347, Control_c, 0, 64, 127
3, 48480, Note_on_c, 0, 62, 40
3, 48480, Note_on_c, 0, 58, 40
3, 48480, Note_on_c, 0, 69, 44
3, 48600, Note_on_c, 0, 69, 0
3, 48600, Note_on_c, 0, 58, 0
3, 48600, Note_on_c, 0, 62, 0
3, 48720, Note_on_c, 0, 58, 34
3, 48720, Note_on_c, 0, 67, 39
3, 48720, Note_on_c, 0, 62, 34
3, 48728, Control_c, 0, 64, 0
3, 48840, Note_on_c, 0, 62, 0
3, 48840, Note_on_c, 0, 67, 0
3, 48840, Note_on_c, 0, 58, 0
3, 48998, Control_c, 0, 64, 127
3, 49200, Note_on_c, 0, 55, 40
3, 49200, Note_on_c, 0, 58, 44
3, 49320, Note_on_c, 0, 58, 0
3, 49320, Note_on_c, 0, 55, 0
3, 49440, Note_on_c, 0, 58, 41
3, 49440, Note_on_c, 0, 55, 36
3, 49560, Note_on_c, 0, 55, 0
3, 49560, Note_on_c, 0, 58, 0
3, 49690, Control_c, 0, 64, 0
3, 49777, Control_c, 0, 64, 127
3, 49920, Note_on_c, 0, 41, 36
3, 49920, Note_on_c, 0, 48, 41
3, 50040, Note_on_c, 0, 48, 0
3, 50040, Note_on_c, 0, 41, 0
3, 50160, Note_on_c, 0, 41, 33
3, 50160, Note_on_c, 0, 48, 37
3, 50189, Control_c, 0, 64, 0
3, 50280, Note_on_c, 0, 48, 0
3, 50280, Note_on_c, 0, 41, 0
3, 50466, Control_c, 0, 64, 127
3, 50640, Note_on_c, 0, 62, 46
3, 50640, Note_on_c, 0, 56, 41
3, 50640, Note_on_c, 0, 67, 46
3, 50760, Note_on_c, 0, 67, 0
3, 50760, Note_on_c, 0, 56, 0
3, 50760, Note_on_c, 0, 62, 0
3, 50880, Note_on_c, 0, 62, 39
3, 50880, Note_on_c, 0, 65, 39
3, 50880, Note_on_c, 0, 56, 34
3, 51000, Note_on_c, 0, 56, 0
3, 51000, Note_on_c, 0, 65, 0
3, 51000, Note_on_c, 0, 62, 0
3, 51136, Control_c, 0, 64, 0
3, 51227, Control_c, 0, 64, 127
3, 51360, Note_on_c, 0, 62, 40
3, 51360, Note_on_c, 0, 55, 40
3, 51360, Note_on_c, 0, 65, 44
3, 51480, Note_on_c, 0, 65, 0
3, 51480, Note_on_c, 0, 55, 0
3, 51480, Note_on_c, 0, 62, 0
3, 51600, Note_on_c, 0, 62, 34
3, 51600, Note_on_c, 0, 64, 39
3, 51600, Note_on_c, 0, 55, 34
3, 51720, Note_on_c, 0, 55, 0
3, 51720, Note_on_c, 0, 64, 0
3, 51720, Note_on_c, 0, 62, 0
3, 51843, Control_c, 0, 64, 0
3, 51920, Control_c, 0, 64, 127
3, 52080, Note_on_c, 0, 52, 40
3, 52080, Note_on_c, 0, 55, 44
3, 52200, Note_on_c, 0, 55, 0
3, 52200, Note_on_c, 0, 52, 0
3, 52320, Note_on_c, 0, 55, 41
3, 52320, Note_on_c, 0, 52, 36
3, 52440, Note_on_c, 0, 52, 0
3, 52440, Note_on_c, 0, 55, 0
3, 52572, Control_c, 0, 64, 0
3, 52657, Control_c, 0, 64, 127
3, 52800, Note_on_c, 0, 46, 36
3, 52800, Note_on_c, 0, 50, 41
3, 52920, Note_on_c, 0, 50, 0
3, 52920, Note_on_c, 0, 46, 0
3, 53040, Note_on_c, 0, 50, 37
3, 53040, Note_on_c, 0, 46, 33
3, 53160, Note_on_c, 0, 46, 0
3, 53160, Note_on_c, 0, 50, 0
3, 53280, Control_c, 0, 64, 0
3, 53280, Note_on_c, 0, 64, 66
3, 53417, Control_c, 0, 64, 127
3, 53760, Note_on_c, 0, 64, 0
3, 53760, Note_on_c, 0, 52, 40
3, 54000, Note_on_c, 0, 52, 0
3, 54019, Control_c, 0, 64, 0
3, 54194, Control_c, 0, 64, 127
3, 54240, Note_on_c, 0, 57, 40
3, 54240, Note_on_c, 0, 67, 44
3, 54240, Note_on_c, 0, 61, 40
3, 54480, Note_on_c, 0, 61, 0
3, 54480, Note_on_c, 0, 67, 0
3, 54480, Note_on_c, 0, 57, 0
3, 54480, Note_on_c, 0, 61, 34
3, 54480, Note_on_c, 0, 57, 34
3, 54480, Note_on_c, 0, 67, 39
3, 54488, Control_c, 0, 64, 0
3, 54720, Note_on_c, 0, 67, 0
3, 54720, Note_on_c, 0, 57, 0
3, 54720, Note_on_c, 0, 61, 0
3, 54720, Control_c, 0, 64, 127
3, 54720, Note_on_c, 0, 64, 66
3, 55200, Note_on_c, 0, 64, 0
3, 55200, Note_on_c, 0, 52, 40
3, 55440, Note_on_c, 0, 52, 0
3, 55455, Control_c, 0, 64, 0
3, 55547, Control_c, 0, 64, 127
3, 55680, Note_on_c, 0, 61, 40
3, 55680, Note_on_c, 0, 57, 40
3, 55680, Note_on_c, 0, 67, 44
3, 55920, Note_on_c, 0, 67, 0
3, 55920, Note_on_c, 0, 57, 0
3, 55920, Note_on_c, 0, 61, 0
3, 55920, Note_on_c, 0, 61, 34
3, 55920, Note_on_c, 0, 67, 39
3, 55920, Note_on_c, 0, 57, 34
3, 55923, Control_c, 0, 64, 0
3, 56160, Note_on_c, 0, 57, 0
3, 56160, Note_on_c, 0, 67, 0
3, 56160, Note_on_c, 0, 61, 0
3, 56198, Control_c, 0, 64, 127
3, 56400, Note_on_c, 0, 62, 39
3, 56400, Note_on_c, 0, 55, 36
3, 56400, Note_on_c, 0, 58, 39
3, 56880, Note_on_c, 0, 58, 0
3, 56880, Note_on_c, 0, 55, 0
3, 56880, Note_on_c, 0, 62, 0
3, 56893, Control_c, 0, 64, 0
3, 56989, Control_c, 0, 64, 127
3, 57120, Note_on_c, 0, 52, 32
3, 57120, Note_on_c, 0, 62, 36
3, 57120, Note_on_c, 0, 58, 32
3, 57379, Control_c, 0, 64, 0
3, 57600, Note_on_c, 0, 58, 0
3, 57600, Note_on_c, 0, 62, 0
3, 57600, Note_on_c, 0, 52, 0
3, 57600, Note_on_c, 0, 40, 46
3, 57629, Control_c, 0, 64, 127
3, 57960, Note_on_c, 0, 40, 0
3, 57960, Note_on_c, 0, 39, 40
3, 58080, Note_on_c, 0, 39, 0
3, 58080, Note_on_c, 0, 40, 42
3, 58200, Note_on_c, 0, 40, 0
3, 58200, Note_on_c, 0, 43, 44
3, 58320, Note_on_c, 0, 43, 0
3, 58320, Note_on_c, 0, 46, 46
3, 58331, Control_c, 0, 64, 0
3, 58417, Control_c, 0, 64, 127
3, 58800, Note_on_c, 0, 46, 0
3, 58800, Note_on_c, 0, 45, 43
3, 58816, Control_c, 0, 64, 0
3, 59040, Note_on_c, 0, 45, 0
3, 59200, Control_c, 0, 64, 127
3, 59280, Note_on_c, 0, 55, 31
3, 59280, Note_on_c, 0, 65, 36
3, 59280, Note_on_c, 0, 58, 31
3, 59520, Note_on_c, 0, 58, 0
3, 59520, Note_on_c, 0, 65, 0
3, 59520, Note_on_c, 0, 55, 0
3, 59520, Note_on_c, 0, 65, 36
3, 59520, Note_on_c, 0, 55, 31
3, 59520, Note_on_c, 0, 58, 31
3, 59750, Note_on_c, 0, 58, 0
3, 59750, Note_on_c, 0, 55, 0
3, 59750, Note_on_c, 0, 65, 0
3, 59770, Control_c, 0, 64, 0
3, 59874, Control_c, 0, 64, 127
3, 60000, Note_on_c, 0, 45, 34
3, 60000, Note_on_c, 0, 55, 34
3, 60240, Note_on_c, 0, 55, 0
3, 60240, Note_on_c, 0, 45, 0
3, 60240, Note_on_c, 0, 55, 34
3, 60240, Note_on_c, 0, 45, 34
3, 60251, Control_c, 0, 64, 0
3, 60480, Note_on_c, 0, 45, 0
3, 60480, Note_on_c, 0, 55, 0
3, 60518, Control_c, 0, 64, 127
3, 60720, Note_on_c, 0, 62, 36
3, 60720, Note_on_c, 0, 53, 30
3, 60720, Note_on_c, 0, 57, 36
3, 60840, Note_on_c, 0, 57, 0
3, 60840, Note_on_c, 0, 53, 0
3, 60840, Note_on_c, 0, 62, 0
3, 60960, Note_on_c, 0, 50, 30
3, 61080, Note_on_c, 0, 50, 0
3, 61200, Note_on_c, 0, 62, 44
3, 61200, Note_on_c, 0, 57, 44
3, 61200, Note_on_c, 0, 65, 44
3, 61212, Control_c, 0, 64, 0
3, 61285, Control_c, 0, 64, 127
3, 61320, Note_on_c, 0, 65, 0
3, 61320, Note_on_c, 0, 57, 0
3, 61320, Note_on_c, 0, 62, 0
3, 61440, Note_on_c, 0, 50, 40
3, 61560, Note_on_c, 0, 50, 0
3, 61680, Note_on_c, 0, 65, 50
3, 61680, Note_on_c, 0, 62, 50
3, 61680, Note_on_c, 0, 69, 50
3, 61709, Control_c, 0, 64, 0
3, 61800, Note_on_c, 0, 69, 0
3, 61800, Note_on_c, 0, 62, 0
3, 61800, Note_on_c, 0, 65, 0
3, 61920, Control_c, 0, 64, 127
3, 62160, Note_on_c, 0, 58, 31
3, 62160, Note_on_c, 0, 55, 31
3, 62160, Note_on_c, 0, 65, 36
3, 62400, Note_on_c, 0, 65, 0
3, 62400, Note_on_c, 0, 55, 0
3, 62400, Note_on_c, 0, 58, 0
3, 62400, Note_on_c, 0, 65, 36
3, 62400, Note_on_c, 0, 55, 31
3, 62400, Note_on_c, 0, 58, 31
3, 62630, Note_on_c, 0, 58, 0
3, 62630, Note_on_c, 0, 55, 0
3, 62630, Note_on_c, 0, 65, 0
3, 62650, Control_c, 0, 64, 0
3, 62743, Control_c, 0, 64, 127
3, 62880, Note_on_c, 0, 45, 34
3, 62880, Note_on_c, 0, 55, 34
3, 63120, Note_on_c, 0, 55, 0
3, 63120, Note_on_c, 0, 45, 0
3, 63120, Note_on_c, 0, 45, 34
3, 63120, Note_on_c, 0, 55, 34
3, 63129, Control_c, 0, 64, 0
3, 63360, Note_on_c, 0, 55, 0
3, 63360, Note_on_c, 0, 45, 0
3, 63398, Control_c, 0, 64, 127
3, 63600, Note_on_c, 0, 62, 36
3, 63600, Note_on_c, 0, 57, 36
3, 63600, Note_on_c, 0, 53, 30
3, 63720, Note_on_c, 0, 53, 0
3, 63720, Note_on_c, 0, 57, 0
3, 63720, Note_on_c, 0, 62, 0
3, 63840, Note_on_c, 0, 50, 30
3, 63960, Note_on_c, 0, 50, 0
3, 64080, Note_on_c, 0, 62, 44
3, 64080, Note_on_c, 0, 65, 44
3, 64080, Note_on_c, 0, 57, 44
3, 64090, Control_c, 0, 64, 0
3, 64177, Control_c, 0, 64, 127
3, 64200, Note_on_c, 0, 57, 0
3, 64200, Note_on_c, 0, 65, 0
3, 64200, Note_on_c, 0, 62, 0
3, 64320, Note_on_c, 0, 50, 38
3, 64440, Note_on_c, 0, 50, 0
3, 64560, Note_on_c, 0, 65, 43
3, 64560, Note_on_c, 0, 69, 51
3, 64560, Note_on_c, 0, 62, 43
3, 64589, Control_c, 0, 64, 0
3, 64680, Note_on_c, 0, 62, 0
3, 64680, Note_on_c, 0, 69, 0
3, 64680, Note_on_c, 0, 65, 0
3, 64800, Control_c, 0, 64, 127
3, 65040, Note_on_c, 0, 58, 31
3, 65040, Note_on_c, 0, 65, 36
3, 65040, Note_on_c, 0, 55, 31
3, 65280, Note_on_c, 0, 55, 0
3, 65280, Note_on_c, 0, 65, 0
3, 65280, Note_on_c, 0, 58, 0
3, 65280, Note_on_c, 0, 58, 31
3, 65280, Note_on_c, 0, 65, 36
3, 65280, Note_on_c, 0, 55, 31
3, 65510, Note_on_c, 0, 55, 0
3, 65510, Note_on_c, 0, 65, 0
3, 65510, Note_on_c, 0, 58, 0
3, 65530, Control_c, 0, 64, 0
3, 65627, Control_c, 0, 64, 127
3, 65760, Note_on_c, 0, 55, 34
3, 65760, Note_on_c, 0, 45, 34
3, 66000, Note_on_c, 0, 45, 0
3, 66000, Note_on_c, 0, 55, 0
3, 66000, Note_on_c, 0, 55, 34
3, 66000, Note_on_c, 0, 45, 34
3, 66007, Control_c, 0, 64, 0
3, 66240, Note_on_c, 0, 45, 0
3, 66240, Note_on_c, 0, 55, 0
3, 66278, Control_c, 0, 64, 127
3, 66480, Note_on_c, 0, 53, 30
3, 66480, Note_on_c, 0, 57, 36
3, 66480, Note_on_c, 0, 62, 36
3, 66600, Note_on_c, 0, 62, 0
3, 66600, Note_on_c, 0, 57, 0
3, 66600, Note_on_c, 0, 53, 0
3, 66720, Note_on_c, 0, 50, 30
3, 66840, Note_on_c, 0, 50, 0
3, 66960, Note_on_c, 0, 57, 44
3, 66960, Note_on_c, 0, 65, 44
3, 66960, Note_on_c, 0, 62, 44
3, 66971, Control_c, 0, 64, 0
3, 67011, Control_c, 0, 64, 127
3, 67080, Note_on_c, 0, 62, 0
3, 67080, Note_on_c, 0, 65, 0
3, 67080, Note_on_c, 0, 57, 0
3, 67200, Note_on_c, 0, 50, 40
3, 67320, Note_on_c, 0, 50, 0
3, 67440, Note_on_c, 0, 62, 42
3, 67440, Note_on_c, 0, 69, 50
3, 67440, Note_on_c, 0, 65, 42
3, 67469, Control_c, 0, 64, 0
3, 67560, Note_on_c, 0, 65, 0
3, 67560, Note_on_c, 0, 69, 0
3, 67560, Note_on_c, 0, 62, 0
3, 67680, Control_c, 0, 64, 127
3, 67920, Note_on_c, 0, 55, 31
3, 67920, Note_on_c, 0, 65, 36
3, 67920, Note_on_c, 0, 58, 31
3, 68160, Note_on_c, 0, 58, 0
3, 68160, Note_on_c, 0, 65, 0
3, 68160, Note_on_c, 0, 55, 0
3, 68160, Note_on_c, 0, 65, 36
3, 68160, Note_on_c, 0, 55, 31
3, 68160, Note_on_c, 0, 58, 31
3, 68390, Note_on_c, 0, 58, 0
3, 68390, Note_on_c, 0, 55, 0
3, 68390, Note_on_c, 0, 65, 0
3, 68413, Control_c, 0, 64, 0
3, 68526, Control_c, 0, 64, 127
3, 68640, Note_on_c, 0, 45, 34
3, 68640, Note_on_c, 0, 55, 34
3, 68880, Note_on_c, 0, 55, 0
3, 68880, Note_on_c, 0, 45, 0
3, 68880, Note_on_c, 0, 55, 34
3, 68880, Note_on_c, 0, 45, 34
3, 68889, Control_c, 0, 64, 0
3, 69120, Note_on_c, 0, 45, 0
3, 69120, Note_on_c, 0, 55, 0
3, 69158, Control_c, 0, 64, 127
3, 69360, Note_on_c, 0, 62, 36
3, 69360, Note_on_c, 0, 53, 30
3, 69360, Note_on_c, 0, 57, 36
3, 69480, Note_on_c, 0, 57, 0
3, 69480, Note_on_c, 0, 53, 0
3, 69480, Note_on_c, 0, 62, 0
3, 69600, Note_on_c, 0, 50, 30
3, 69720, Note_on_c, 0, 50, 0
3, 69840, Note_on_c, 0, 57, 44
3, 69840, Note_on_c, 0, 65, 44
3, 69840, Note_on_c, 0, 62, 44
3, 69853, Control_c, 0, 64, 0
3, 69920, Control_c, 0, 64, 127
3, 69960, Note_on_c, 0, 62, 0
3, 69960, Note_on_c, 0, 65, 0
3, 69960, Note_on_c, 0, 57, 0
3, 70080, Note_on_c, 0, 50, 38
3, 70200, Note_on_c, 0, 50, 0
3, 70320, Note_on_c, 0, 62, 43
3, 70320, Note_on_c, 0, 69, 51
3, 70320, Note_on_c, 0, 65, 43
3, 70349, Control_c, 0, 64, 0
3, 70440, Note_on_c, 0, 65, 0
3, 70440, Note_on_c, 0, 69, 0
3, 70440, Note_on_c, 0, 62, 0
3, 70560, Control_c, 0, 64, 127
3, 70800, Note_on_c, 0, 60, 34
3, 70800, Note_on_c, 0, 66, 46
3, 70800, Note_on_c, 0, 62, 34
3, 70800, Note_on_c, 0, 70, 46
3, 70920, Note_on_c, 0, 70, 0
3, 70920, Note_on_c, 0, 60, 0
3, 70920, Note_on_c, 0, 66, 0
3, 70920, Note_on_c, 0, 62, 0
3, 71040, Note_on_c, 0, 69, 39
3, 71040, Note_on_c, 0, 60, 28
3, 71040, Note_on_c, 0, 62, 28
3, 71040, Note_on_c, 0, 66, 39
3, 71160, Note_on_c, 0, 66, 0
3, 71160, Note_on_c, 0, 69, 0
3, 71160, Note_on_c, 0, 60, 0
3, 71160, Note_on_c, 0, 62, 0
3, 71290, Control_c, 0, 64, 0
3, 71387, Control_c, 0, 64, 127
3, 71520, Note_on_c, 0, 58, 40
3, 71520, Note_on_c, 0, 69, 44
3, 71520, Note_on_c, 0, 62, 40
3, 71640, Note_on_c, 0, 62, 0
3, 71640, Note_on_c, 0, 69, 0
3, 71640, Note_on_c, 0, 58, 0
3, 71760, Note_on_c, 0, 58, 34
3, 71760, Note_on_c, 0, 62, 34
3, 71760, Note_on_c, 0, 67, 39
3, 71880, Note_on_c, 0, 67, 0
3, 71880, Note_on_c, 0, 62, 0
3, 71880, Note_on_c, 0, 58, 0
3, 72000, Control_c, 0, 64, 0
3, 72091, Control_c, 0, 64, 127
3, 72240, Note_on_c, 0, 55, 40
3, 72240, Note_on_c, 0, 58, 44
3, 72360, Note_on_c, 0, 58, 0
3, 72360, Note_on_c, 0, 55, 0
3, 72480, Note_on_c, 0, 55, 36
3, 72480, Note_on_c, 0, 58, 41
3, 72600, Note_on_c, 0, 58, 0
3, 72600, Note_on_c, 0, 55, 0
3, 72730, Control_c, 0, 64, 0
3, 72863, Control_c, 0, 64, 127
3, 72960, Note_on_c, 0, 48, 41
3, 72960, Note_on_c, 0, 41, 36
3, 73080, Note_on_c, 0, 41, 0
3, 73080, Note_on_c, 0, 48, 0
3, 73200, Note_on_c, 0, 48, 37
3, 73200, Note_on_c, 0, 41, 33
3, 73229, Control_c, 0, 64, 0
3, 73320, Note_on_c, 0, 41, 0
3, 73320, Note_on_c, 0, 48, 0
3, 73482, Control_c, 0, 64, 127
3, 73680, Note_on_c, 0, 58, 32
3, 73680, Note_on_c, 0, 62, 43
3, 73680, Note_on_c, 0, 56, 32
3, 73680, Note_on_c, 0, 67, 43
3, 73800, Note_on_c, 0, 67, 0
3, 73800, Note_on_c, 0, 58, 0
3, 73800, Note_on_c, 0, 62, 0
3, 73800, Note_on_c, 0, 56, 0
3, 73920, Note_on_c, 0, 65, 36
3, 73920, Note_on_c, 0, 58, 26
3, 73920, Note_on_c, 0, 56, 26
3, 73920, Note_on_c, 0, 62, 36
3, 74040, Note_on_c, 0, 62, 0
3, 74040, Note_on_c, 0, 65, 0
3, 74040, Note_on_c, 0, 58, 0
3, 74040, Note_on_c, 0, 56, 0
3, 74170, Control_c, 0, 64, 0
3, 74267, Control_c, 0, 64, 127
3, 74400, Note_on_c, 0, 55, 30
3, 74400, Note_on_c, 0, 65, 40
3, 74400, Note_on_c, 0, 58, 36
3, 74520, Note_on_c, 0, 58, 0
3, 74520, Note_on_c, 0, 65, 0
3, 74520, Note_on_c, 0, 55, 0
3, 74640, Note_on_c, 0, 55, 25
3, 74640, Note_on_c, 0, 58, 30
3, 74640, Note_on_c, 0, 63, 35
3, 74760, Note_on_c, 0, 63, 0
3, 74760, Note_on_c, 0, 58, 0
3, 74760, Note_on_c, 0, 55, 0
3, 74880, Control_c, 0, 64, 0
3, 74989, Control_c, 0, 64, 127
3, 75120, Note_on_c, 0, 53, 36
3, 75120, Note_on_c, 0, 56, 39
3, 75240, Note_on_c, 0, 56, 0
3, 75240, Note_on_c, 0, 53, 0
3, 75360, Note_on_c, 0, 53, 32
3, 75360, Note_on_c, 0, 56, 36
3, 75480, Note_on_c, 0, 56, 0
3, 75480, Note_on_c, 0, 53, 0
3, 75610, Control_c, 0, 64, 0
3, 75697, Control_c, 0, 64, 127
3, 75840, Note_on_c, 0, 55, 31
3, 75840, Note_on_c, 0, 48, 31
3, 75840, Note_on_c, 0, 60, 35
3, 75960, Note_on_c, 0, 60, 0
3, 75960, Note_on_c, 0, 48, 0
3, 75960, Note_on_c, 0, 55, 0
3, 76080, Note_on_c, 0, 48, 28
3, 76080, Note_on_c, 0, 60, 31
3, 76080, Note_on_c, 0, 55, 28
3, 76099, Control_c, 0, 64, 0
3, 76200, Note_on_c, 0, 55, 0
3, 76200, Note_on_c, 0, 60, 0
3, 76200, Note_on_c, 0, 48, 0
3, 76320, Note_on_c, 0, 44, 51
3, 76364, Control_c, 0, 64, 127
3, 76680, Note_on_c, 0, 44, 0
3, 76680, Note_on_c, 0, 45, 43
3, 76800, Note_on_c, 0, 45, 0
3, 76800, Note_on_c, 0, 44, 46
3, 76920, Note_on_c, 0, 44, 0
3, 76920, Note_on_c, 0, 45, 48
3, 77040, Note_on_c, 0, 45, 0
3, 77040, Note_on_c, 0, 50, 51
3, 77054, Control_c, 0, 64, 0
3, 77103, Control_c, 0, 64, 127
3, 77280, Note_on_c, 0, 50, 0
3, 77280, Note_on_c, 0, 47, 42
3, 77520, Note_on_c, 0, 47, 0
3, 77520, Note_on_c, 0, 48, 48
3, 77541, Control_c, 0, 64, 0
3, 77760, Note_on_c, 0, 48, 0
3, 77798, Control_c, 0, 64, 127
3, 78000, Note_on_c, 0, 63, 39
3, 78000, Note_on_c, 0, 54, 36
3, 78000, Note_on_c, 0, 60, 36
3, 78180, Note_on_c, 0, 60, 0
3, 78180, Note_on_c, 0, 54, 0
3, 78180, Note_on_c, 0, 63, 0
3, 78240, Note_on_c, 0, 60, 32
3, 78240, Note_on_c, 0, 54, 32
3, 78240, Note_on_c, 0, 63, 36
3, 78420, Note_on_c, 0, 63, 0
3, 78420, Note_on_c, 0, 54, 0
3, 78420, Note_on_c, 0, 60, 0
3, 78489, Control_c, 0, 64, 0
3, 78531, Control_c, 0, 64, 127
3, 78720, Note_on_c, 0, 57, 35
3, 78720, Note_on_c, 0, 53, 31
3, 78900, Note_on_c, 0, 53, 0
3, 78900, Note_on_c, 0, 57, 0
3, 78960, Note_on_c, 0, 57, 31
3, 78960, Note_on_c, 0, 53, 28
3, 78979, Control_c, 0, 64, 0
3, 79140, Note_on_c, 0, 53, 0
3, 79140, Note_on_c, 0, 57, 0
3, 79200, Note_on_c, 0, 44, 51
3, 79244, Control_c, 0, 64, 127
3, 79560, Note_on_c, 0, 44, 0
3, 79560, Note_on_c, 0, 45, 43
3, 79680, Note_on_c, 0, 45, 0
3, 79680, Note_on_c, 0, 44, 46
3, 79800, Note_on_c, 0, 44, 0
3, 79800, Note_on_c, 0, 45, 48
3, 79920, Note_on_c, 0, 45, 0
3, 79920, Note_on_c, 0, 50, 51
3, 79927, Control_c, 0, 64, 0
3, 79983, Control_c, 0, 64, 127
3, 80160, Note_on_c, 0, 50, 0
3, 80160, Note_on_c, 0, 47, 42
3, 80400, Note_on_c, 0, 47, 0
3, 80400, Note_on_c, 0, 48, 48
3, 80407, Control_c, 0, 64, 0
3, 80640, Note_on_c, 0, 48, 0
3, 80678, Control_c, 0, 64, 127
3, 80880, Note_on_c, 0, 63, 39
3, 80880, Note_on_c, 0, 54, 36
3, 80880, Note_on_c, 0, 60, 36
3, 81060, Note_on_c, 0, 60, 0
3, 81060, Note_on_c, 0, 54, 0
3, 81060, Note_on_c, 0, 63, 0
3, 81120, Note_on_c, 0, 60, 32
3, 81120, Note_on_c, 0, 54, 32
3, 81120, Note_on_c, 0, 63, 36
3, 81300, Note_on_c, 0, 63, 0
3, 81300, Note_on_c, 0, 54, 0
3, 81300, Note_on_c, 0, 60, 0
3, 81365, Control_c, 0, 64, 0
3, 81411, Control_c, 0, 64, 127
3, 81600, Note_on_c, 0, 57, 35
3, 81600, Note_on_c, 0, 53, 31
3, 81780, Note_on_c, 0, 53, 0
3, 81780, Note_on_c, 0, 57, 0
3, 81840, Note_on_c, 0, 57, 31
3, 81840, Note_on_c, 0, 53, 28
3, 81865, Control_c, 0, 64, 0
3, 82020, Note_on_c, 0, 53, 0
3, 82020, Note_on_c, 0, 57, 0
3, 82118, Control_c, 0, 64, 127
3, 82320, Note_on_c, 0, 58, 36
3, 82320, Note_on_c, 0, 60, 36
3, 82320, Note_on_c, 0, 63, 39
3, 82500, Note_on_c, 0, 63, 0
3, 82500, Note_on_c, 0, 60, 0
3, 82500, Note_on_c, 0, 58, 0
3, 82560, Note_on_c, 0, 60, 27
3, 82560, Note_on_c, 0, 63, 30
3, 82560, Note_on_c, 0, 58, 27
3, 82740, Note_on_c, 0, 58, 0
3, 82740, Note_on_c, 0, 63, 0
3, 82740, Note_on_c, 0, 60, 0
3, 82803, Control_c, 0, 64, 0
3, 82851, Control_c, 0, 64, 127
3, 83040, Note_on_c, 0, 57, 35
3, 83040, Note_on_c, 0, 53, 31
3, 83220, Note_on_c, 0, 53, 0
3, 83220, Note_on_c, 0, 57, 0
3, 83280, Note_on_c, 0, 53, 28
3, 83280, Note_on_c, 0, 57, 31
3, 83300, Control_c, 0, 64, 0
3, 83460, Note_on_c, 0, 57, 0
3, 83460, Note_on_c, 0, 53, 0
3, 83558, Control_c, 0, 64, 127
3, 83760, Note_on_c, 0, 63, 36
3, 83760, Note_on_c, 0, 58, 33
3, 83760, Note_on_c, 0, 60, 33
3, 83940, Note_on_c, 0, 60, 0
3, 83940, Note_on_c, 0, 58, 0
3, 83940, Note_on_c, 0, 63, 0
3, 84000, Note_on_c, 0, 58, 24
3, 84000, Note_on_c, 0, 63, 28
3, 84000, Note_on_c, 0, 60, 24
3, 84180, Note_on_c, 0, 60, 0
3, 84180, Note_on_c, 0, 63, 0
3, 84180, Note_on_c, 0, 58, 0
3, 84252, Control_c, 0, 64, 0
3, 84328, Control_c, 0, 64, 127
3, 84480, Note_on_c, 0, 53, 22
3, 84480, Note_on_c, 0, 57, 26
3, 84660, Note_on_c, 0, 57, 0
3, 84660, Note_on_c, 0, 53, 0
3, 84720, Note_on_c, 0, 53, 20
3, 84720, Note_on_c, 0, 57, 22
3, 84726, Control_c, 0, 64, 0
3, 84900, Note_on_c, 0, 57, 0
3, 84900, Note_on_c, 0, 53, 0
3, 85013, Control_c, 0, 64, 127
3, 85200, Note_on_c, 0, 62, 31
3, 85200, Note_on_c, 0, 58, 31
3, 85200, Note_on_c, 0, 65, 35
3, 85440, Note_on_c, 0, 65, 0
3, 85440, Note_on_c, 0, 58, 0
3, 85440, Note_on_c, 0, 62, 0
3, 85440, Note_on_c, 0, 62, 28
3, 85440, Note_on_c, 0, 58, 28
3, 85440, Note_on_c, 0, 65, 32
3, 85680, Note_on_c, 0, 65, 0
3, 85680, Note_on_c, 0, 58, 0
3, 85680, Note_on_c, 0, 62, 0
3, 85680, Note_on_c, 0, 58, 30
3, 85680, Note_on_c, 0, 65, 34
3, 85680, Note_on_c, 0, 62, 30
3, 85690, Control_c, 0, 64, 0
3, 85787, Control_c, 0, 64, 127
3, 85920, Note_on_c, 0, 62, 0
3, 85920, Note_on_c, 0, 65, 0
3, 85920, Note_on_c, 0, 58, 0
3, 85920, Note_on_c, 0, 62, 28
3, 85920, Note_on_c, 0, 58, 28
3, 85920, Note_on_c, 0, 65, 32
3, 86160, Note_on_c, 0, 65, 0
3, 86160, Note_on_c, 0, 58, 0
3, 86160, Note_on_c, 0, 62, 0
3, 86166, Control_c, 0, 64, 0
3, 86438, Control_c, 0, 64, 127
3, 86640, Note_on_c, 0, 65, 36
3, 86640, Note_on_c, 0, 57, 30
3, 86640, Note_on_c, 0, 63, 36
3, 86880, Note_on_c, 0, 63, 0
3, 86880, Note_on_c, 0, 57, 0
3, 86880, Note_on_c, 0, 65, 0
3, 86880, Note_on_c, 0, 63, 36
3, 86880, Note_on_c, 0, 57, 30
3, 86880, Note_on_c, 0, 65, 36
3, 87120, Note_on_c, 0, 65, 0
3, 87120, Note_on_c, 0, 57, 0
3, 87120, Note_on_c, 0, 63, 0
3, 87120, Note_on_c, 0, 63, 36
3, 87120, Note_on_c, 0, 65, 36
3, 87120, Note_on_c, 0, 57, 30
3, 87127, Control_c, 0, 64, 0
3, 87246, Control_c, 0, 64, 127
3, 87360, Note_on_c, 0, 57, 0
3, 87360, Note_on_c, 0, 65, 0
3, 87360, Note_on_c, 0, 63, 0
3, 87360, Note_on_c, 0, 57, 30
3, 87360, Note_on_c, 0, 65, 36
3, 87360, Note_on_c, 0, 63, 36
3, 87590, Note_on_c, 0, 63, 0
3, 87590, Note_on_c, 0, 65, 0
3, 87590, Note_on_c, 0, 57, 0
3, 87610, Control_c, 0, 64, 0
3, 87943, Control_c, 0, 64, 127
3, 88080, Note_on_c, 0, 56, 30
3, 88080, Note_on_c, 0, 65, 36
3, 88080, Note_on_c, 0, 62, 30
3, 88320, Note_on_c, 0, 62, 0
3, 88320, Note_on_c, 0, 65, 0
3, 88320, Note_on_c, 0, 56, 0
3, 88320, Note_on_c, 0, 56, 30
3, 88320, Note_on_c, 0, 65, 36
3, 88320, Note_on_c, 0, 62, 30
3, 88560, Note_on_c, 0, 62, 0
3, 88560, Note_on_c, 0, 65, 0
3, 88560, Note_on_c, 0, 56, 0
3, 88560, Note_on_c, 0, 56, 33
3, 88560, Note_on_c, 0, 65, 40
3, 88560, Note_on_c, 0, 62, 33
3, 88570, Control_c, 0, 64, 0
3, 88686, Control_c, 0, 64, 127
3, 88800, Note_on_c, 0, 62, 0
3, 88800, Note_on_c, 0, 65, 0
3, 88800, Note_on_c, 0, 56, 0
3, 88800, Note_on_c, 0, 62, 33
3, 88800, Note_on_c, 0, 65, 40
3, 88800, Note_on_c, 0, 56, 33
3, 89040, Note_on_c, 0, 56, 0
3, 89040, Note_on_c, 0, 65, 0
3, 89040, Note_on_c, 0, 62, 0
3, 89046, Control_c, 0, 64, 0
3, 89373, Control_c, 0, 64, 127
3, 89520, Note_on_c, 0, 60, 38
3, 89520, Note_on_c, 0, 63, 47
3, 89520, Note_on_c, 0, 55, 38
3, 89760, Note_on_c, 0, 55, 0
3, 89760, Note_on_c, 0, 63, 0
3, 89760, Note_on_c, 0, 60, 0
3, 89760, Note_on_c, 0, 60, 38
3, 89760, Note_on_c, 0, 55, 38
3, 89760, Note_on_c, 0, 63, 47
3, 90000, Note_on_c, 0, 63, 0
3, 90000, Note_on_c, 0, 55, 0
3, 90000, Note_on_c, 0, 60, 0
3, 90000, Note_on_c, 0, 55, 38
3, 90000, Note_on_c, 0, 63, 48
3, 90000, Note_on_c, 0, 60, 38
3, 90011, Control_c, 0, 64, 0
3, 90146, Control_c, 0, 64, 127
3, 90240, Note_on_c, 0, 60, 0
3, 90240, Note_on_c, 0, 63, 0
3, 90240, Note_on_c, 0, 55, 0
3, 90240, Note_on_c, 0, 60, 38
3, 90240, Note_on_c, 0, 55, 38
3, 90240, Note_on_c, 0, 63, 48
3, 90480, Note_on_c, 0, 63, 0
3, 90480, Note_on_c, 0, 55, 0
3, 90480, Note_on_c, 0, 60, 0
3, 90493, Control_c, 0, 64, 0
3, 90728, Control_c, 0, 64, 127
3, 90960, Note_on_c, 0, 57, 44
3, 90960, Note_on_c, 0, 55, 44
3, 90960, Note_on_c, 0, 64, 55
3, 90960, Note_on_c, 0, 61, 55
3, 91200, Note_on_c, 0, 61, 0
3, 91200, Note_on_c, 0, 57, 0
3, 91200, Note_on_c, 0, 55, 0
3, 91200, Note_on_c, 0, 64, 0
3, 91200, Note_on_c, 0, 57, 41
3, 91200, Note_on_c, 0, 61, 49
3, 91200, Note_on_c, 0, 64, 49
3, 91200, Note_on_c, 0, 55, 41
3, 91440, Note_on_c, 0, 55, 0
3, 91440, Note_on_c, 0, 57, 0
3, 91440, Note_on_c, 0, 61, 0
3, 91440, Note_on_c, 0, 64, 0
3, 91440, Note_on_c, 0, 57, 45
3, 91440, Note_on_c, 0, 61, 55
3, 91440, Note_on_c, 0, 64, 55
3, 91440, Note_on_c, 0, 55, 45
3, 91449, Control_c, 0, 64, 0
3, 91514, Control_c, 0, 64, 127
3, 91680, Note_on_c, 0, 55, 0
3, 91680, Note_on_c, 0, 57, 0
3, 91680, Note_on_c, 0, 61, 0
3, 91680, Note_on_c, 0, 64, 0
3, 91680, Note_on_c, 0, 57, 45
3, 91680, Note_on_c, 0, 61, 55
3, 91680, Note_on_c, 0, 64, 55
3, 91680, Note_on_c, 0, 55, 45
3, 91920, Note_on_c, 0, 55, 0
3, 91920, Note_on_c, 0, 57, 0
3, 91920, Note_on_c, 0, 61, 0
3, 91920, Note_on_c, 0, 64, 0
3, 91928, Control_c, 0, 64, 0
3, 92347, Control_c, 0, 64, 127
3, 92400, Note_on_c, 0, 62, 46
3, 92400, Note_on_c, 0, 53, 38
3, 92400, Note_on_c, 0, 57, 38
3, 92640, Note_on_c, 0, 57, 0
3, 92640, Note_on_c, 0, 53, 0
3, 92640, Note_on_c, 0, 62, 0
3, 92640, Note_on_c, 0, 53, 38
3, 92640, Note_on_c, 0, 57, 38
3, 92640, Note_on_c, 0, 62, 46
3, 92880, Note_on_c, 0, 62, 0
3, 92880, Note_on_c, 0, 57, 0
3, 92880, Note_on_c, 0, 53, 0
3, 92880, Note_on_c, 0, 62, 46
3, 92880, Note_on_c, 0, 53, 38
3, 92880, Note_on_c, 0, 57, 38
3, 92888, Control_c, 0, 64, 0
3, 93040, Control_c, 0, 64, 127
3, 93120, Note_on_c, 0, 57, 0
3, 93120, Note_on_c, 0, 53, 0
3, 93120, Note_on_c, 0, 62, 0
3, 93120, Note_on_c, 0, 62, 45
3, 93120, Note_on_c, 0, 57, 38
3, 93120, Note_on_c, 0, 53, 38
3, 93360, Note_on_c, 0, 53, 0
3, 93360, Note_on_c, 0, 57, 0
3, 93360, Note_on_c, 0, 62, 0
3, 93367, Control_c, 0, 64, 0
3, 93749, Control_c, 0, 64, 127
3, 93840, Note_on_c, 0, 55, 38
3, 93840, Note_on_c, 0, 61, 38
3, 93840, Note_on_c, 0, 57, 38
3, 93840, Note_on_c, 0, 52, 31
3, 94080, Note_on_c, 0, 52, 0
3, 94080, Note_on_c, 0, 55, 0
3, 94080, Note_on_c, 0, 61, 0
3, 94080, Note_on_c, 0, 57, 0
3, 94080, Note_on_c, 0, 52, 31
3, 94080, Note_on_c, 0, 61, 37
3, 94080, Note_on_c, 0, 57, 37
3, 94080, Note_on_c, 0, 55, 31
3, 94320, Note_on_c, 0, 55, 0
3, 94320, Note_on_c, 0, 52, 0
3, 94320, Note_on_c, 0, 61, 0
3, 94320, Note_on_c, 0, 57, 0
3, 94320, Note_on_c, 0, 52, 31
3, 94320, Note_on_c, 0, 61, 37
3, 94320, Note_on_c, 0, 57, 37
3, 94320, Note_on_c, 0, 55, 31
3, 94326, Control_c, 0, 64, 0
3, 94378, Control_c, 0, 64, 127
3, 94560, Note_on_c, 0, 55, 0
3, 94560, Note_on_c, 0, 52, 0
3, 94560, Note_on_c, 0, 61, 0
3, 94560, Note_on_c, 0, 57, 0
3, 94560, Note_on_c, 0, 52, 30
3, 94560, Note_on_c, 0, 61, 37
3, 94560, Note_on_c, 0, 57, 37
3, 94560, Note_on_c, 0, 55, 30
3, 94800, Note_on_c, 0, 55, 0
3, 94800, Note_on_c, 0, 52, 0
3, 94800, Note_on_c, 0, 61, 0
3, 94800, Note_on_c, 0, 57, 0
3, 94813, Control_c, 0, 64, 0
3, 95213, Control_c, 0, 64, 127
3, 95280, Note_on_c, 0, 57, 33
3, 95280, Note_on_c, 0, 50, 23
3, 95520, Note_on_c, 0, 50, 0
3, 95520, Note_on_c, 0, 57, 0
3, 95520, Note_on_c, 0, 50, 21
3, 95520, Note_on_c, 0, 57, 29
3, 95760, Note_on_c, 0, 57, 0
3, 95760, Note_on_c, 0, 50, 0
3, 95760, Note_on_c, 0, 50, 21
3, 95760, Note_on_c, 0, 57, 29
3, 96000, Note_on_c, 0, 57, 0
3, 96000, Note_on_c, 0, 50, 0
3, 96000, Note_on_c, 0, 57, 29
3, 96000, Note_on_c, 0, 50, 21
3, 96240, Note_on_c, 0, 50, 0
3, 96240, Note_on_c, 0, 57, 0
3, 96240, Control_c, 0, 64, 0
3, 96480, Control_c, 0, 64, 127
3, 96720, Note_on_c, 0, 48, 31
3, 96720, Note_on_c, 0, 63, 35
3, 96720, Note_on_c, 0, 65, 35
3, 96720, Note_on_c, 0, 53, 31
3, 96960, Note_on_c, 0, 53, 0
3, 96960, Note_on_c, 0, 48, 0
3, 96960, Note_on_c, 0, 63, 0
3, 96960, Note_on_c, 0, 65, 0
3, 96960, Note_on_c, 0, 53, 28
3, 96960, Note_on_c, 0, 48, 28
3, 96960, Note_on_c, 0, 65, 32
3, 96960, Note_on_c, 0, 63, 32
3, 97200, Note_on_c, 0, 63, 0
3, 97200, Note_on_c, 0, 53, 0
3, 97200, Note_on_c, 0, 48, 0
3, 97200, Note_on_c, 0, 65, 0
3, 97200, Note_on_c, 0, 48, 31
3, 97200, Note_on_c, 0, 63, 35
3, 97200, Note_on_c, 0, 53, 31
3, 97200, Note_on_c, 0, 65, 35
3, 97210, Control_c, 0, 64, 0
3, 97307, Control_c, 0, 64, 127
3, 97440, Note_on_c, 0, 65, 0
3, 97440, Note_on_c, 0, 48, 0
3, 97440, Note_on_c, 0, 63, 0
3, 97440, Note_on_c, 0, 53, 0
3, 97440, Note_on_c, 0, 53, 29
3, 97440, Note_on_c, 0, 48, 29
3, 97440, Note_on_c, 0, 65, 33
3, 97440, Note_on_c, 0, 63, 33
3, 97680, Note_on_c, 0, 63, 0
3, 97680, Note_on_c, 0, 53, 0
3, 97680, Note_on_c, 0, 48, 0
3, 97680, Note_on_c, 0, 65, 0
3, 97683, Control_c, 0, 64, 0
3, 97958, Control_c, 0, 64, 127
3, 98160, Note_on_c, 0, 46, 30
3, 98160, Note_on_c, 0, 58, 36
3, 98160, Note_on_c, 0, 62, 36
3, 98400, Note_on_c, 0, 62, 0
3, 98400, Note_on_c, 0, 58, 0
3, 98400, Note_on_c, 0, 46, 0
3, 98400, Note_on_c, 0, 46, 30
3, 98400, Note_on_c, 0, 62, 36
3, 98400, Note_on_c, 0, 58, 36
3, 98640, Note_on_c, 0, 58, 0
3, 98640, Note_on_c, 0, 62, 0
3, 98640, Note_on_c, 0, 46, 0
3, 98640, Note_on_c, 0, 58, 36
3, 98640, Note_on_c, 0, 46, 30
3, 98640, Note_on_c, 0, 62, 36
3, 98650, Control_c, 0, 64, 0
3, 98760, Control_c, 0, 64, 127
3, 98880, Note_on_c, 0, 62, 0
3, 98880, Note_on_c, 0, 46, 0
3, 98880, Note_on_c, 0, 58, 0
3, 98880, Note_on_c, 0, 58, 36
3, 98880, Note_on_c, 0, 62, 36
3, 98880, Note_on_c, 0, 46, 30
3, 99120, Note_on_c, 0, 46, 0
3, 99120, Note_on_c, 0, 62, 0
3, 99120, Note_on_c, 0, 58, 0
3, 99136, Control_c, 0, 64, 0
3, 99463, Control_c, 0, 64, 127
3, 99600, Note_on_c, 0, 55, 33
3, 99600, Note_on_c, 0, 65, 33
3, 99600, Note_on_c, 0, 67, 40
3, 99600, Note_on_c, 0, 50, 33
3, 99840, Note_on_c, 0, 50, 0
3, 99840, Note_on_c, 0, 55, 0
3, 99840, Note_on_c, 0, 65, 0
3, 99840, Note_on_c, 0, 67, 0
3, 99840, Note_on_c, 0, 55, 34
3, 99840, Note_on_c, 0, 50, 34
3, 99840, Note_on_c, 0, 67, 40
3, 99840, Note_on_c, 0, 65, 34
3, 100080, Note_on_c, 0, 65, 0
3, 100080, Note_on_c, 0, 55, 0
3, 100080, Note_on_c, 0, 50, 0
3, 100080, Note_on_c, 0, 67, 0
3, 100080, Note_on_c, 0, 50, 37
3, 100080, Note_on_c, 0, 65, 37
3, 100080, Note_on_c, 0, 67, 45
3, 100080, Note_on_c, 0, 55, 37
3, 100091, Control_c, 0, 64, 0
3, 100156, Control_c, 0, 64, 127
3, 100320, Note_on_c, 0, 55, 0
3, 100320, Note_on_c, 0, 50, 0
3, 100320, Note_on_c, 0, 65, 0
3, 100320, Note_on_c, 0, 67, 0
3, 100320, Note_on_c, 0, 55, 38
3, 100320, Note_on_c, 0, 50, 38
3, 100320, Note_on_c, 0, 67, 46
3, 100320, Note_on_c, 0, 65, 38
3, 100560, Note_on_c, 0, 65, 0
3, 100560, Note_on_c, 0, 55, 0
3, 100560, Note_on_c, 0, 50, 0
3, 100560, Note_on_c, 0, 67, 0
3, 100575, Control_c, 0, 64, 0
3, 100893, Control_c, 0, 64, 127
3, 101040, Note_on_c, 0, 48, 44
3, 101040, Note_on_c, 0, 63, 55
3, 101040, Note_on_c, 0, 60, 44
3, 101280, Note_on_c, 0, 60, 0
3, 101280, Note_on_c, 0, 63, 0
3, 101280, Note_on_c, 0, 48, 0
3, 101280, Note_on_c, 0, 48, 45
3, 101280, Note_on_c, 0, 63, 56
3, 101280, Note_on_c, 0, 60, 45
3, 101520, Note_on_c, 0, 60, 0
3, 101520, Note_on_c, 0, 63, 0
3, 101520, Note_on_c, 0, 48, 0
3, 101520, Note_on_c, 0, 60, 45
3, 101520, Note_on_c, 0, 48, 45
3, 101520, Note_on_c, 0, 63, 57
3, 101527, Control_c, 0, 64, 0
3, 101653, Control_c, 0, 64, 127
3, 101760, Note_on_c, 0, 63, 0
3, 101760, Note_on_c, 0, 48, 0
3, 101760, Note_on_c, 0, 60, 0
3, 101760, Note_on_c, 0, 60, 42
3, 101760, Note_on_c, 0, 63, 53
3, 101760, Note_on_c, 0, 48, 42
3, 101990, Note_on_c, 0, 48, 0
3, 101990, Note_on_c, 0, 63, 0
3, 101990, Note_on_c, 0, 60, 0
3, 102013, Control_c, 0, 64, 0
3, 102331, Control_c, 0, 64, 127
3, 102480, Note_on_c, 0, 58, 63
3, 102480, Note_on_c, 0, 64, 63
3, 102480, Note_on_c, 0, 55, 50
3, 102720, Note_on_c, 0, 55, 0
3, 102720, Note_on_c, 0, 64, 0
3, 102720, Note_on_c, 0, 58, 0
3, 102720, Note_on_c, 0, 58, 51
3, 102720, Note_on_c, 0, 55, 44
3, 102720, Note_on_c, 0, 64, 51
3, 102960, Note_on_c, 0, 64, 0
3, 102960, Note_on_c, 0, 55, 0
3, 102960, Note_on_c, 0, 58, 0
3, 102960, Note_on_c, 0, 55, 47
3, 102960, Note_on_c, 0, 64, 57
3, 102960, Note_on_c, 0, 58, 57
3, 102967, Control_c, 0, 64, 0
3, 103097, Control_c, 0, 64, 127
3, 103200, Note_on_c, 0, 58, 0
3, 103200, Note_on_c, 0, 64, 0
3, 103200, Note_on_c, 0, 55, 0
3, 103200, Note_on_c, 0, 58, 57
3, 103200, Note_on_c, 0, 55, 47
3, 103200, Note_on_c, 0, 64, 57
3, 103440, Note_on_c, 0, 64, 0
3, 103440, Note_on_c, 0, 55, 0
3, 103440, Note_on_c, 0, 58, 0
3, 103454, Control_c, 0, 64, 0
3, 103867, Control_c, 0, 64, 127
3, 103920, Note_on_c, 0, 65, 50
3, 103920, Note_on_c, 0, 53, 42
3, 103920, Note_on_c, 0, 58, 42
3, 104160, Note_on_c, 0, 58, 0
3, 104160, Note_on_c, 0, 53, 0
3, 104160, Note_on_c, 0, 65, 0
3, 104160, Note_on_c, 0, 53, 42
3, 104160, Note_on_c, 0, 58, 42
3, 104160, Note_on_c, 0, 65, 50
3, 104400, Note_on_c, 0, 65, 0
3, 104400, Note_on_c, 0, 58, 0
3, 104400, Note_on_c, 0, 53, 0
3, 104400, Note_on_c, 0, 65, 50
3, 104400, Note_on_c, 0, 53, 42
3, 104400, Note_on_c, 0, 58, 42
3, 104413, Control_c, 0, 64, 0
3, 104533, Control_c, 0, 64, 127
3, 104640, Note_on_c, 0, 58, 0
3, 104640, Note_on_c, 0, 53, 0
3, 104640, Note_on_c, 0, 65, 0
3, 104640, Note_on_c, 0, 53, 42
3, 104640, Note_on_c, 0, 58, 42
3, 104640, Note_on_c, 0, 65, 50
3, 104880, Note_on_c, 0, 65, 0
3, 104880, Note_on_c, 0, 58, 0
3, 104880, Note_on_c, 0, 53, 0
3, 104884, Control_c, 0, 64, 0
3, 105269, Control_c, 0, 64, 127
3, 105360, Note_on_c, 0, 48, 42
3, 105360, Note_on_c, 0, 51, 42
3, 105600, Note_on_c, 0, 51, 0
3, 105600, Note_on_c, 0, 48, 0
3, 105600, Note_on_c, 0, 48, 34
3, 105600, Note_on_c, 0, 51, 41
3, 105840, Note_on_c, 0, 51, 0
3, 105840, Note_on_c, 0, 48, 0
3, 105852, Control_c, 0, 64, 0
3, 105979, Control_c, 0, 64, 127
3, 106080, Note_on_c, 0, 51, 40
3, 106080, Note_on_c, 0, 41, 33
3, 106080, Note_on_c, 0, 57, 40
3, 106080, Note_on_c, 0, 53, 40
3, 106318, Note_on_c, 0, 57, 0
3, 106320, Note_on_c, 0, 51, 0
3, 106320, Note_on_c, 0, 41, 0
3, 106320, Note_on_c, 0, 53, 0
3, 106320, Note_on_c, 0, 51, 39
3, 106320, Note_on_c, 0, 41, 32
3, 106320, Note_on_c, 0, 53, 39
3, 106330, Control_c, 0, 64, 0
3, 106560, Note_on_c, 0, 53, 0
3, 106560, Note_on_c, 0, 41, 0
3, 106560, Note_on_c, 0, 51, 0
3, 106733, Control_c, 0, 64, 127
3, 106800, Note_on_c, 0, 57, 37
3, 106800, Note_on_c, 0, 54, 37
3, 106800, Note_on_c, 0, 46, 34
3, 106800, Note_on_c, 0, 51, 37
3, 107040, Note_on_c, 0, 51, 0
3, 107040, Note_on_c, 0, 57, 0
3, 107040, Note_on_c, 0, 54, 0
3, 107040, Note_on_c, 0, 46, 0
3, 107040, Note_on_c, 0, 57, 32
3, 107040, Note_on_c, 0, 51, 32
3, 107040, Note_on_c, 0, 46, 29
3, 107040, Note_on_c, 0, 54, 32
3, 107280, Note_on_c, 0, 54, 0
3, 107280, Note_on_c, 0, 57, 0
3, 107280, Note_on_c, 0, 51, 0
3, 107280, Note_on_c, 0, 46, 0
3, 107280, Note_on_c, 0, 51, 32
3, 107280, Note_on_c, 0, 46, 29
3, 107280, Note_on_c, 0, 53, 29
3, 107286, Control_c, 0, 64, 0
3, 107377, Control_c, 0, 64, 127
3, 107520, Note_on_c, 0, 51, 0
3, 107520, Note_on_c, 0, 49, 32
3, 107526, Control_c, 0, 64, 0
3, 107760, Note_on_c, 0, 49, 0
3, 107760, Note_on_c, 0, 53, 0
3, 107760, Note_on_c, 0, 46, 0
3, 107760, Note_on_c, 0, 50, 32
3, 108000, Note_on_c, 0, 50, 0
3, 108038, Control_c, 0, 64, 127
3, 108240, Note_on_c, 0, 63, 30
3, 108240, Note_on_c, 0, 54, 27
3, 108240, Note_on_c, 0, 60, 27
3, 108420, Note_on_c, 0, 60, 0
3, 108420, Note_on_c, 0, 54, 0
3, 108420, Note_on_c, 0, 63, 0
3, 108480, Note_on_c, 0, 60, 24
3, 108480, Note_on_c, 0, 54, 24
3, 108480, Note_on_c, 0, 63, 27
3, 108660, Note_on_c, 0, 63, 0
3, 108660, Note_on_c, 0, 54, 0
3, 108660, Note_on_c, 0, 60, 0
3, 108720, Note_on_c, 0, 54, 27
3, 108720, Note_on_c, 0, 60, 27
3, 108720, Note_on_c, 0, 62, 31
3, 108724, Control_c, 0, 64, 0
3, 108847, Control_c, 0, 64, 127
3, 108900, Note_on_c, 0, 62, 0
3, 108900, Note_on_c, 0, 60, 0
3, 108900, Note_on_c, 0, 54, 0
3, 108960, Note_on_c, 0, 62, 28
3, 108960, Note_on_c, 0, 60, 25
3, 108960, Note_on_c, 0, 54, 25
3, 109140, Note_on_c, 0, 54, 0
3, 109140, Note_on_c, 0, 60, 0
3, 109140, Note_on_c, 0, 62, 0
3, 109443, Control_c, 0, 64, 0
3, 109546, Control_c, 0, 64, 127
3, 109680, Note_on_c, 0, 55, 27
3, 109680, Note_on_c, 0, 58, 27
3, 109680, Note_on_c, 0, 62, 30
3, 109860, Note_on_c, 0, 62, 0
3, 109860, Note_on_c, 0, 58, 0
3, 109860, Note_on_c, 0, 55, 0
3, 109920, Note_on_c, 0, 55, 24
3, 109920, Note_on_c, 0, 62, 27
3, 109920, Note_on_c, 0, 58, 24
3, 110100, Note_on_c, 0, 58, 0
3, 110100, Note_on_c, 0, 62, 0
3, 110100, Note_on_c, 0, 55, 0
3, 110178, Control_c, 0, 64, 0
3, 110298, Control_c, 0, 64, 127
3, 110400, Note_on_c, 0, 55, 27
3, 110400, Note_on_c, 0, 63, 31
3, 110400, Note_on_c, 0, 58, 27
3, 110580, Note_on_c, 0, 58, 0
3, 110580, Note_on_c, 0, 63, 0
3, 110580, Note_on_c, 0, 55, 0
3, 110640, Note_on_c, 0, 58, 25
3, 110640, Note_on_c, 0, 63, 28
3, 110640, Note_on_c, 0, 55, 25
3, 110820, Note_on_c, 0, 55, 0
3, 110820, Note_on_c, 0, 63, 0
3, 110820, Note_on_c, 0, 58, 0
3, 110880, Control_c, 0, 64, 0
3, 110989, Control_c, 0, 64, 127
3, 111120, Note_on_c, 0, 64, 30
3, 111120, Note_on_c, 0, 58, 27
3, 111120, Note_on_c, 0, 54, 27
3, 111300, Note_on_c, 0, 54, 0
3, 111300, Note_on_c, 0, 58, 0
3, 111300, Note_on_c, 0, 64, 0
3, 111360, Note_on_c, 0, 58, 24
3, 111360, Note_on_c, 0, 54, 24
3, 111360, Note_on_c, 0, 64, 27
3, 111540, Note_on_c, 0, 64, 0
3, 111540, Note_on_c, 0, 54, 0
3, 111540, Note_on_c, 0, 58, 0
3, 111614, Control_c, 0, 64, 0
3, 111729, Control_c, 0, 64, 127
3, 111840, Note_on_c, 0, 58, 27
3, 111840, Note_on_c, 0, 53, 27
3, 111840, Note_on_c, 0, 65, 31
3, 112020, Note_on_c, 0, 65, 0
3, 112020, Note_on_c, 0, 53, 0
3, 112020, Note_on_c, 0, 58, 0
3, 112080, Note_on_c, 0, 58, 25
3, 112080, Note_on_c, 0, 53, 25
3, 112080, Note_on_c, 0, 65, 28
3, 112109, Control_c, 0, 64, 0
3, 112260, Note_on_c, 0, 65, 0
3, 112260, Note_on_c, 0, 53, 0
3, 112260, Note_on_c, 0, 58, 0
3, 112469, Control_c, 0, 64, 127
3, 112800, Note_on_c, 0, 54, 27
3, 112800, Note_on_c, 0, 51, 27
3, 113040, Note_on_c, 0, 51, 0
3, 113040, Note_on_c, 0, 54, 0
3, 113054, Control_c, 0, 64, 0
3, 113211, Control_c, 0, 64, 127
3, 113520, Note_on_c, 0, 50, 20
3, 113520, Note_on_c, 0, 53, 26
3, 113520, Note_on_c, 0, 46, 20
3, 113760, Note_on_c, 0, 46, 0
3, 113760, Note_on_c, 0, 53, 0
3, 113760, Note_on_c, 0, 50, 0
3, 113760, Control_c, 0, 64, 0
3, 113841, Control_c, 0, 64, 127
3, 114000, Note_on_c, 0, 75, 27
3, 114000, Note_on_c, 0, 72, 24
3, 114000, Note_on_c, 0, 66, 24
3, 114180, Note_on_c, 0, 66, 0
3, 114180, Note_on_c, 0, 72, 0
3, 114180, Note_on_c, 0, 75, 0
3, 114240, Note_on_c, 0, 72, 21
3, 114240, Note_on_c, 0, 66, 21
3, 114240, Note_on_c, 0, 75, 24
3, 114420, Note_on_c, 0, 75, 0
3, 114420, Note_on_c, 0, 66, 0
3, 114420, Note_on_c, 0, 72, 0
3, 114487, Control_c, 0, 64, 0
3, 114531, Control_c, 0, 64, 127
3, 114720, Note_on_c, 0, 66, 24
3, 114720, Note_on_c, 0, 74, 27
3, 114720, Note_on_c, 0, 72, 24
3, 114900, Note_on_c, 0, 72, 0
3, 114900, Note_on_c, 0, 74, 0
3, 114900, Note_on_c, 0, 66, 0
3, 114960, Note_on_c, 0, 72, 22
3, 114960, Note_on_c, 0, 74, 25
3, 114960, Note_on_c, 0, 66, 22
3, 115140, Note_on_c, 0, 66, 0
3, 115140, Note_on_c, 0, 74, 0
3, 115140, Note_on_c, 0, 72, 0
3, 115210, Control_c, 0, 64, 0
3, 115285, Control_c, 0, 64, 127
3, 115440, Note_on_c, 0, 74, 27
3, 115440, Note_on_c, 0, 70, 24
3, 115440, Note_on_c, 0, 67, 24
3, 115620, Note_on_c, 0, 67, 0
3, 115620, Note_on_c, 0, 70, 0
3, 115620, Note_on_c, 0, 74, 0
3, 115680, Note_on_c, 0, 70, 21
3, 115680, Note_on_c, 0, 67, 21
3, 115680, Note_on_c, 0, 74, 24
3, 115860, Note_on_c, 0, 74, 0
3, 115860, Note_on_c, 0, 67, 0
3, 115860, Note_on_c, 0, 70, 0
3, 115932, Control_c, 0, 64, 0
3, 116012, Control_c, 0, 64, 127
3, 116160, Note_on_c, 0, 70, 24
3, 116160, Note_on_c, 0, 67, 24
3, 116160, Note_on_c, 0, 75, 27
3, 116340, Note_on_c, 0, 75, 0
3, 116340, Note_on_c, 0, 67, 0
3, 116340, Note_on_c, 0, 70, 0
3, 116400, Note_on_c, 0, 70, 22
3, 116400, Note_on_c, 0, 67, 22
3, 116400, Note_on_c, 0, 75, 25
3, 116429, Control_c, 0, 64, 0
3, 116580, Note_on_c, 0, 75, 0
3, 116580, Note_on_c, 0, 67, 0
3, 116580, Note_on_c, 0, 70, 0
3, 116678, Control_c, 0, 64, 127
3, 116880, Note_on_c, 0, 76, 27
3, 116880, Note_on_c, 0, 66, 24
3, 116880, Note_on_c, 0, 70, 24
3, 117060, Note_on_c, 0, 70, 0
3, 117060, Note_on_c, 0, 66, 0
3, 117060, Note_on_c, 0, 76, 0
3, 117120, Note_on_c, 0, 66, 21
3, 117120, Note_on_c, 0, 76, 24
3, 117120, Note_on_c, 0, 70, 21
3, 117293, Control_c, 0, 64, 0
3, 117300, Note_on_c, 0, 70, 0
3, 117300, Note_on_c, 0, 76, 0
3, 117300, Note_on_c, 0, 66, 0
3, 117480, Control_c, 0, 64, 127
3, 117600, Note_on_c, 0, 65, 24
3, 117600, Note_on_c, 0, 77, 27
3, 117600, Note_on_c, 0, 70, 24
3, 117780, Note_on_c, 0, 70, 0
3, 117780, Note_on_c, 0, 77, 0
3, 117780, Note_on_c, 0, 65, 0
3, 117840, Note_on_c, 0, 65, 22
3, 117840, Note_on_c, 0, 77, 25
3, 117840, Note_on_c, 0, 70, 22
3, 118013, Control_c, 0, 64, 0
3, 118020, Note_on_c, 0, 70, 0
3, 118020, Note_on_c, 0, 77, 0
3, 118020, Note_on_c, 0, 65, 0
3, 118118, Control_c, 0, 64, 127
3, 118560, Note_on_c, 0, 63, 24
3, 118560, Note_on_c, 0, 66, 24
3, 118800, Note_on_c, 0, 66, 0
3, 118800, Note_on_c, 0, 63, 0
3, 118815, Control_c, 0, 64, 0
3, 118971, Control_c, 0, 64, 127
3, 119280, Note_on_c, 0, 62, 18
3, 119280, Note_on_c, 0, 58, 18
3, 119280, Note_on_c, 0, 65, 23
3, 119520, Note_on_c, 0, 65, 0
3, 119520, Note_on_c, 0, 58, 0
3, 119520, Note_on_c, 0, 62, 0
3, 119529, Control_c, 0, 64, 0
3, 119657, Control_c, 0, 64, 127
3, 120000, Note_on_c, 0, 66, 24
3, 120000, Note_on_c, 0, 63, 24
3, 120240, Note_on_c, 0, 63, 0
3, 120240, Note_on_c, 0, 66, 0
3, 120257, Control_c, 0, 64, 0
3, 120366, Control_c, 0, 64, 127
3, 120720, Note_on_c, 0, 62, 18
3, 120720, Note_on_c, 0, 65, 23
3, 120720, Note_on_c, 0, 58, 18
3, 120960, Note_on_c, 0, 58, 0
3, 120960, Note_on_c, 0, 65, 0
3, 120960, Note_on_c, 0, 62, 0
3, 120965, Control_c, 0, 64, 0
3, 121086, Control_c, 0, 64, 127
3, 121440, Note_on_c, 0, 66, 24
3, 121440, Note_on_c, 0, 63, 24
3, 121680, Note_on_c, 0, 63, 0
3, 121680, Note_on_c, 0, 66, 0
3, 121696, Control_c, 0, 64, 0
3, 121806, Control_c, 0, 64, 127
3, 122160, Note_on_c, 0, 58, 18
3, 122160, Note_on_c, 0, 65, 23
3, 122160, Note_on_c, 0, 62, 18
3, 122400, Note_on_c, 0, 62, 0
3, 122400, Note_on_c, 0, 65, 0
3, 122400, Note_on_c, 0, 58, 0
3, 122407, Control_c, 0, 64, 0
3, 122480, Control_c, 0, 64, 127
3, 123120, Note_on_c, 0, 66, 24
3, 123120, Note_on_c, 0, 63, 24
3, 123134, Control_c, 0, 64, 0
3, 123246, Control_c, 0, 64, 127
3, 123840, Note_on_c, 0, 63, 0
3, 123840, Note_on_c, 0, 66, 0
3, 123844, Control_c, 0, 64, 0
3, 123987, Control_c, 0, 64, 127
3, 124560, Note_on_c, 0, 53, 22
3, 124560, Note_on_c, 0, 46, 18
3, 124564, Control_c, 0, 64, 0
3, 124747, Control_c, 0, 64, 127
3, 125280, Note_on_c, 0, 46, 0
3, 125280, Note_on_c, 0, 53, 0
3, 126373, Control_c, 0, 64, 0
3, 126373, End_track
4, 0, Start_track
4, 0, Title_t, "Tschaikowsky: The Seasons: April"
4, 0, End_track
5, 0, Start_track
5, 0, Title_t, "Copyright © 2004 by Bernd Krüger"
5, 0, End_track
6, 0, Start_track
6, 0, Title_t, "http://www.piano-midi.de"
6, 0, End_track
7, 0, Start_track
7, 0, Title_t, "Edition: 2008-09-12"
7, 0, End_track
8, 0, Start_track
8, 0, End_track
9, 0, Start_track
9, 0, End_track
10, 0, Start_track
10, 0, End_track
11, 0, Start_track
11, 0, End_track
12, 0, Start_track
12, 0, End_track
13, 0, Start_track
13, 0, End_track
0, 0, End_of_file
