0, 0, Header, 1, 10, 480
1, 0, Start_track
1, 0, Title_t, "Die Jahreszeiten"
1, 0, Title_t, "Mai"
1, 0, Copyright_t, "Copyright © 2004 by Bernd Krueger"
1, 0, Text_t, "Peter Tschaikowsky"
1, 0, Text_t, "Andantimo"
1, 0, Text_t, "Fertiggestellt am  5.9.2000\012"
1, 0, Text_t, "Normierung: 23.12.2002\012"
1, 0, Text_t, "Update am 15.8.2004\012"
1, 0, Text_t, "Update am 14.9.2008\012"
1, 0, Text_t, "Dauer: 3:18 Minuten\012"
1, 0, SMPTE_offset, 96, 0, 3, 0, 0
1, 0, Time_signature, 9, 3, 12, 8
1, 0, Key_signature, 1, "major"
1, 0, Tempo, 500000
1, 2040, Tempo, 1045478
1, 2052, Tempo, 1027573
1, 2064, Tempo, 1001837
1, 2080, Tempo, 985383
1, 2092, Tempo, 961693
1, 2104, Tempo, 939114
1, 2120, Tempo, 924642
1, 2132, Tempo, 903751
1, 2144, Tempo, 883783
1, 2160, Tempo, 697674
1, 2640, Tempo, 1111111
1, 2760, Tempo, 800000
1, 2772, Tempo, 789474
1, 2784, Tempo, 779221
1, 2800, Tempo, 769231
1, 2812, Tempo, 759494
1, 2824, Tempo, 750000
1, 2840, Tempo, 740741
1, 2852, Tempo, 731707
1, 2864, Tempo, 750000
1, 2880, Tempo, 736196
1, 3480, Tempo, 902256
1, 3492, Tempo, 882353
1, 3504, Tempo, 863309
1, 3520, Tempo, 845070
1, 3532, Tempo, 827586
1, 3544, Tempo, 810811
1, 3560, Tempo, 794702
1, 3572, Tempo, 779221
1, 3584, Tempo, 764331
1, 3600, Tempo, 701754
1, 4080, Tempo, 1090909
1, 4200, Tempo, 784314
1, 4212, Tempo, 779221
1, 4224, Tempo, 774194
1, 4240, Tempo, 769231
1, 4252, Tempo, 764331
1, 4264, Tempo, 759494
1, 4280, Tempo, 754717
1, 4292, Tempo, 750000
1, 4304, Tempo, 745342
1, 4320, Tempo, 693642
1, 5040, Tempo, 722892
1, 6480, Tempo, 701754
1, 6960, Tempo, 727273
1, 7920, Tempo, 727273
1, 8400, Tempo, 750000
1, 8640, Tempo, 727273
1, 9360, Tempo, 718563
1, 9840, Tempo, 736196
1, 10320, Tempo, 805369
1, 10676, Tempo, 1008403
1, 10688, Tempo, 1000000
1, 10704, Tempo, 983607
1, 10716, Tempo, 967742
1, 10728, Tempo, 952381
1, 10744, Tempo, 944882
1, 10756, Tempo, 930233
1, 10768, Tempo, 916031
1, 10784, Tempo, 902256
1, 10800, Tempo, 697674
1, 11280, Tempo, 1000000
1, 11400, Tempo, 875912
1, 11412, Tempo, 863309
1, 11424, Tempo, 845070
1, 11440, Tempo, 827586
1, 11452, Tempo, 810811
1, 11464, Tempo, 794702
1, 11480, Tempo, 779221
1, 11492, Tempo, 764331
1, 11504, Tempo, 750000
1, 11520, Tempo, 736196
1, 12120, Tempo, 902256
1, 12132, Tempo, 882353
1, 12144, Tempo, 863309
1, 12160, Tempo, 845070
1, 12172, Tempo, 827586
1, 12184, Tempo, 810811
1, 12200, Tempo, 794702
1, 12212, Tempo, 779221
1, 12224, Tempo, 764331
1, 12240, Tempo, 701754
1, 12720, Tempo, 975610
1, 12840, Tempo, 875912
1, 12852, Tempo, 863309
1, 12864, Tempo, 845070
1, 12880, Tempo, 827586
1, 12892, Tempo, 810811
1, 12904, Tempo, 794702
1, 12920, Tempo, 779221
1, 12932, Tempo, 764331
1, 12944, Tempo, 750000
1, 12960, Tempo, 693642
1, 13680, Tempo, 722892
1, 15120, Tempo, 701754
1, 15600, Tempo, 727273
1, 16560, Tempo, 705882
1, 17040, Tempo, 750000
1, 17280, Tempo, 727273
1, 18000, Tempo, 727273
1, 20160, Tempo, 727273
1, 20240, Tempo, 731707
1, 20320, Tempo, 736196
1, 20360, Tempo, 740741
1, 20440, Tempo, 745342
1, 20480, Tempo, 750000
1, 20560, Tempo, 754717
1, 20600, Tempo, 759494
1, 20680, Tempo, 764331
1, 20720, Tempo, 769231
1, 21600, Tempo, 689655
1, 21840, Tempo, 697674
1, 22080, Tempo, 710059
1, 22320, Tempo, 677966
1, 22560, Tempo, 697674
1, 22800, Tempo, 731707
1, 23040, Tempo, 710059
1, 23760, Tempo, 674157
1, 24240, Tempo, 674157
1, 24480, Tempo, 674157
1, 24960, Tempo, 670391
1, 25200, Tempo, 677966
1, 25260, Tempo, 681818
1, 25320, Tempo, 685714
1, 25380, Tempo, 689655
1, 25440, Tempo, 693642
1, 25500, Tempo, 697674
1, 25560, Tempo, 701754
1, 25620, Tempo, 705882
1, 25680, Tempo, 710059
1, 25800, Tempo, 722892
1, 25920, Tempo, 689655
1, 26160, Tempo, 697674
1, 26400, Tempo, 710059
1, 26640, Tempo, 677966
1, 26880, Tempo, 697674
1, 27120, Tempo, 731707
1, 27360, Tempo, 710059
1, 28080, Tempo, 670391
1, 29520, Tempo, 677966
1, 29580, Tempo, 681818
1, 29640, Tempo, 685714
1, 29700, Tempo, 689655
1, 29760, Tempo, 693642
1, 29820, Tempo, 697674
1, 29880, Tempo, 701754
1, 29940, Tempo, 705882
1, 30000, Tempo, 710059
1, 30120, Tempo, 800000
1, 30240, Tempo, 722892
1, 30720, Tempo, 731707
1, 30960, Tempo, 722892
1, 31680, Tempo, 722892
1, 32160, Tempo, 736196
1, 32400, Tempo, 693642
1, 33120, Tempo, 722892
1, 34560, Tempo, 701754
1, 35040, Tempo, 727273
1, 36000, Tempo, 727273
1, 36240, Tempo, 740741
1, 36480, Tempo, 774194
1, 36720, Tempo, 727273
1, 37200, Tempo, 750000
1, 38160, Tempo, 722892
1, 38880, Tempo, 727273
1, 39360, Tempo, 750000
1, 40320, Tempo, 727273
1, 41040, Tempo, 745342
1, 41520, Tempo, 784314
1, 41760, Tempo, 800000
1, 42240, Tempo, 851064
1, 42720, Tempo, 1200000
1, 43080, Tempo, 2000000
1, 43200, Time_signature, 2, 2, 24, 8
1, 43200, Key_signature, 2, "major"
1, 43200, Tempo, 615385
1, 43440, Tempo, 631579
1, 43680, Tempo, 594059
1, 43920, Tempo, 621762
1, 44160, Tempo, 555967
1, 44400, Tempo, 579710
1, 44640, Tempo, 583204
1, 44880, Tempo, 606919
1, 45120, Tempo, 574163
1, 45360, Tempo, 594589
1, 45600, Tempo, 568828
1, 45840, Tempo, 580552
1, 46080, Tempo, 558555
1, 46320, Tempo, 580776
1, 46560, Tempo, 569422
1, 46800, Tempo, 600841
1, 47040, Tempo, 577034
1, 47280, Tempo, 594589
1, 47520, Tempo, 568828
1, 47760, Tempo, 574768
1, 48000, Tempo, 555967
1, 48240, Tempo, 580552
1, 48960, Tempo, 568828
1, 49200, Tempo, 580552
1, 49440, Tempo, 558555
1, 49680, Tempo, 597848
1, 49920, Tempo, 577034
1, 50160, Tempo, 594589
1, 50400, Tempo, 577034
1, 50640, Tempo, 594589
1, 50880, Tempo, 564919
1, 51120, Tempo, 576590
1, 51360, Tempo, 572683
1, 51600, Tempo, 584624
1, 52800, Tempo, 564919
1, 53040, Tempo, 576590
1, 53280, Tempo, 572683
1, 53520, Tempo, 584624
1, 53760, Tempo, 591599
1, 54720, Tempo, 568613
1, 54960, Tempo, 579878
1, 55200, Tempo, 579878
1, 55440, Tempo, 584624
1, 56640, Tempo, 568828
1, 56880, Tempo, 580552
1, 57120, Tempo, 568828
1, 57360, Tempo, 580552
1, 57600, Tempo, 577034
1, 57840, Tempo, 580552
1, 58560, Tempo, 564919
1, 58800, Tempo, 576590
1, 59040, Tempo, 572683
1, 59280, Tempo, 584624
1, 60480, Tempo, 568828
1, 60720, Tempo, 580552
1, 60960, Tempo, 568828
1, 61200, Tempo, 580552
1, 61440, Tempo, 561167
1, 61680, Tempo, 580552
1, 62400, Tempo, 564919
1, 62640, Tempo, 576590
1, 62880, Tempo, 572683
1, 63120, Tempo, 584624
1, 63360, Tempo, 565771
1, 63600, Tempo, 584738
1, 63840, Tempo, 569422
1, 64080, Tempo, 592651
1, 64320, Tempo, 577034
1, 64560, Tempo, 596777
1, 64800, Tempo, 577034
1, 65040, Tempo, 596777
1, 65280, Tempo, 569260
1, 65520, Tempo, 596777
1, 65760, Tempo, 577034
1, 66000, Tempo, 613497
1, 66240, Tempo, 588697
1, 66480, Tempo, 617920
1, 66720, Tempo, 605022
1, 66960, Tempo, 645369
1, 67200, Tempo, 585938
1, 67440, Tempo, 598027
1, 67680, Tempo, 594001
1, 67920, Tempo, 606367
1, 68160, Tempo, 611933
1, 68640, Tempo, 605816
1, 69120, Tempo, 585938
1, 69360, Tempo, 598027
1, 69600, Tempo, 594001
1, 69840, Tempo, 606367
1, 70080, Tempo, 618302
1, 70560, Tempo, 605816
1, 71029, Tempo, 585938
1, 71269, Tempo, 598027
1, 71509, Tempo, 594001
1, 71749, Tempo, 606367
1, 72720, Tempo, 615827
1, 72960, Tempo, 589855
1, 73189, Tempo, 598027
1, 73429, Tempo, 594001
1, 73669, Tempo, 606367
1, 74640, Tempo, 629657
1, 74880, Tempo, 596184
1, 75109, Tempo, 598027
1, 75120, Tempo, 615827
1, 75349, Tempo, 594001
1, 75360, Tempo, 605816
1, 75589, Tempo, 606367
1, 75600, Tempo, 633179
1, 75840, Tempo, 609199
1, 76069, Tempo, 598027
1, 76080, Tempo, 633179
1, 76309, Tempo, 594001
1, 76320, Tempo, 615827
1, 76549, Tempo, 606367
1, 76560, Tempo, 640478
1, 76800, Tempo, 597015
1, 77040, Tempo, 618557
1, 77280, Tempo, 582524
1, 77520, Tempo, 606061
1, 77760, Tempo, 565771
1, 78000, Tempo, 584738
1, 78480, Tempo, 603804
1, 78720, Tempo, 568828
1, 78960, Tempo, 580552
1, 79200, Tempo, 568828
1, 79440, Tempo, 580552
1, 79680, Tempo, 577034
1, 79920, Tempo, 597610
1, 80160, Tempo, 569422
1, 80400, Tempo, 600841
1, 80640, Tempo, 564919
1, 80880, Tempo, 576590
1, 81120, Tempo, 572683
1, 81360, Tempo, 584624
1, 82560, Tempo, 564919
1, 82800, Tempo, 576590
1, 83040, Tempo, 572683
1, 83280, Tempo, 584624
1, 84720, Tempo, 597015
1, 84960, Tempo, 590493
1, 85200, Tempo, 617475
1, 85440, Tempo, 593707
1, 86160, Tempo, 613936
1, 86400, Tempo, 593707
1, 87120, Tempo, 621054
1, 87360, Tempo, 597015
1, 88280, Tempo, 593707
1, 88320, Time_signature, 3, 2, 24, 8
1, 88360, Tempo, 597015
1, 88440, Tempo, 600300
1, 88480, Tempo, 603743
1, 88560, Tempo, 607103
1, 88600, Tempo, 610563
1, 88680, Tempo, 613936
1, 88720, Tempo, 617475
1, 88800, Tempo, 616523
1, 88824, Tempo, 619771
1, 88840, Tempo, 623118
1, 88852, Tempo, 626370
1, 88864, Tempo, 629723
1, 88880, Tempo, 633179
1, 88892, Tempo, 636605
1, 88920, Tempo, 640068
1, 88932, Tempo, 643570
1, 88944, Tempo, 647179
1, 88960, Tempo, 650759
1, 88972, Tempo, 654450
1, 88984, Tempo, 658039
1, 89012, Tempo, 661740
1, 89024, Tempo, 665557
1, 89040, Tempo, 669344
1, 89052, Tempo, 673250
1, 89064, Tempo, 677048
1, 89080, Tempo, 681044
1, 89104, Tempo, 685010
1, 89120, Tempo, 689022
1, 89132, Tempo, 693161
1, 89144, Tempo, 697188
1, 89160, Tempo, 701426
1, 89172, Tempo, 705633
1, 89200, Tempo, 709975
1, 89212, Tempo, 714201
1, 89224, Tempo, 718649
1, 89240, Tempo, 723066
1, 89252, Tempo, 727537
1, 89264, Tempo, 732154
1, 89280, Tempo, 736648
1, 89281, Tempo, 718563
1, 89640, Tempo, 1071429
1, 89660, Tempo, 1034483
1, 89680, Tempo, 1000000
1, 89700, Tempo, 967742
1, 89720, Tempo, 937500
1, 89740, Tempo, 902256
1, 89744, Tempo, 764331
1, 89760, Time_signature, 9, 3, 12, 8
1, 89760, Key_signature, 1, "major"
1, 89760, Tempo, 697674
1, 90240, Tempo, 1111111
1, 90360, Tempo, 800000
1, 90372, Tempo, 789474
1, 90384, Tempo, 779221
1, 90400, Tempo, 769231
1, 90412, Tempo, 759494
1, 90424, Tempo, 750000
1, 90440, Tempo, 740741
1, 90452, Tempo, 731707
1, 90464, Tempo, 750000
1, 90480, Tempo, 736196
1, 91080, Tempo, 902256
1, 91092, Tempo, 882353
1, 91104, Tempo, 863309
1, 91120, Tempo, 845070
1, 91132, Tempo, 827586
1, 91144, Tempo, 810811
1, 91160, Tempo, 794702
1, 91172, Tempo, 779221
1, 91184, Tempo, 764331
1, 91200, Tempo, 701754
1, 91680, Tempo, 1090909
1, 91800, Tempo, 784314
1, 91812, Tempo, 779221
1, 91824, Tempo, 774194
1, 91840, Tempo, 769231
1, 91852, Tempo, 764331
1, 91864, Tempo, 759494
1, 91880, Tempo, 754717
1, 91892, Tempo, 750000
1, 91904, Tempo, 745342
1, 91920, Tempo, 693642
1, 92640, Tempo, 722892
1, 94080, Tempo, 701754
1, 94560, Tempo, 727273
1, 95520, Tempo, 727273
1, 96000, Tempo, 750000
1, 96240, Tempo, 727273
1, 96960, Tempo, 718563
1, 97440, Tempo, 736196
1, 97920, Tempo, 805369
1, 98280, Tempo, 1000000
1, 98300, Tempo, 983607
1, 98320, Tempo, 960000
1, 98340, Tempo, 937500
1, 98360, Tempo, 916031
1, 98380, Tempo, 895522
1, 98384, Tempo, 764331
1, 98400, Tempo, 697674
1, 98880, Tempo, 1000000
1, 99000, Tempo, 875912
1, 99012, Tempo, 863309
1, 99024, Tempo, 845070
1, 99040, Tempo, 827586
1, 99052, Tempo, 810811
1, 99064, Tempo, 794702
1, 99080, Tempo, 779221
1, 99092, Tempo, 764331
1, 99104, Tempo, 750000
1, 99120, Tempo, 736196
1, 99720, Tempo, 902256
1, 99732, Tempo, 882353
1, 99744, Tempo, 863309
1, 99760, Tempo, 845070
1, 99772, Tempo, 827586
1, 99784, Tempo, 810811
1, 99800, Tempo, 794702
1, 99812, Tempo, 779221
1, 99824, Tempo, 764331
1, 99840, Tempo, 701754
1, 100320, Tempo, 975610
1, 100440, Tempo, 875912
1, 100452, Tempo, 863309
1, 100464, Tempo, 845070
1, 100480, Tempo, 827586
1, 100492, Tempo, 810811
1, 100504, Tempo, 794702
1, 100520, Tempo, 779221
1, 100532, Tempo, 764331
1, 100544, Tempo, 750000
1, 100560, Tempo, 693642
1, 101280, Tempo, 722892
1, 102720, Tempo, 701754
1, 103200, Tempo, 727273
1, 104160, Tempo, 705882
1, 104640, Tempo, 750000
1, 104880, Tempo, 727273
1, 105600, Tempo, 727273
1, 107760, Tempo, 727273
1, 107840, Tempo, 731707
1, 107920, Tempo, 736196
1, 107960, Tempo, 740741
1, 108040, Tempo, 745342
1, 108080, Tempo, 750000
1, 108160, Tempo, 754717
1, 108200, Tempo, 759494
1, 108280, Tempo, 764331
1, 108320, Tempo, 769231
1, 109200, Tempo, 689655
1, 109440, Tempo, 697674
1, 109680, Tempo, 710059
1, 109920, Tempo, 677966
1, 110160, Tempo, 697674
1, 110400, Tempo, 731707
1, 110640, Tempo, 710059
1, 111360, Tempo, 674157
1, 111840, Tempo, 674157
1, 112080, Tempo, 674157
1, 112560, Tempo, 670391
1, 112800, Tempo, 677966
1, 112860, Tempo, 681818
1, 112920, Tempo, 685714
1, 112980, Tempo, 689655
1, 113040, Tempo, 693642
1, 113100, Tempo, 697674
1, 113160, Tempo, 701754
1, 113220, Tempo, 705882
1, 113280, Tempo, 710059
1, 113400, Tempo, 722892
1, 113520, Tempo, 689655
1, 113760, Tempo, 697674
1, 114000, Tempo, 710059
1, 114240, Tempo, 677966
1, 114480, Tempo, 697674
1, 114720, Tempo, 731707
1, 114960, Tempo, 710059
1, 115680, Tempo, 670391
1, 117120, Tempo, 677966
1, 117180, Tempo, 681818
1, 117240, Tempo, 685714
1, 117300, Tempo, 689655
1, 117360, Tempo, 693642
1, 117420, Tempo, 697674
1, 117480, Tempo, 701754
1, 117540, Tempo, 705882
1, 117600, Tempo, 710059
1, 117720, Tempo, 800000
1, 117840, Tempo, 722892
1, 118320, Tempo, 731707
1, 118560, Tempo, 722892
1, 119280, Tempo, 722892
1, 119760, Tempo, 736196
1, 120000, Tempo, 693642
1, 120720, Tempo, 722892
1, 122160, Tempo, 701754
1, 122640, Tempo, 727273
1, 123600, Tempo, 727273
1, 123840, Tempo, 740741
1, 124080, Tempo, 774194
1, 124320, Tempo, 727273
1, 124800, Tempo, 750000
1, 125760, Tempo, 722892
1, 126480, Tempo, 727273
1, 126960, Tempo, 750000
1, 127920, Tempo, 727273
1, 128640, Tempo, 745342
1, 129120, Tempo, 784314
1, 129360, Tempo, 800000
1, 129840, Tempo, 851064
1, 130320, Tempo, 1016949
1, 130560, Tempo, 1121495
1, 135120, Tempo, 1200000
1, 135120, End_track
2, 0, Start_track
2, 0, Title_t, "Piano right"
2, 0, Program_c, 0, 0
2, 0, Control_c, 0, 7, 100
2, 0, Control_c, 0, 10, 64
2, 0, Control_c, 0, 91, 127
2, 0, Text_t, "bdca426d104a26ac9dcb070447587523"
2, 2100, Note_on_c, 0, 62, 40
2, 2130, Note_on_c, 0, 66, 45
2, 2160, Note_on_c, 0, 74, 50
2, 2640, Note_on_c, 0, 74, 0
2, 2640, Note_on_c, 0, 71, 51
2, 2820, Note_on_c, 0, 62, 37
2, 2850, Note_on_c, 0, 67, 39
2, 2880, Note_on_c, 0, 71, 0
2, 2880, Note_on_c, 0, 62, 0
2, 2880, Note_on_c, 0, 66, 0
2, 2880, Note_on_c, 0, 71, 55
2, 3480, Note_on_c, 0, 71, 0
2, 3480, Note_on_c, 0, 62, 0
2, 3480, Note_on_c, 0, 67, 0
2, 3540, Note_on_c, 0, 62, 40
2, 3570, Note_on_c, 0, 69, 42
2, 3600, Note_on_c, 0, 74, 53
2, 4080, Note_on_c, 0, 74, 0
2, 4080, Note_on_c, 0, 71, 53
2, 4260, Note_on_c, 0, 62, 36
2, 4290, Note_on_c, 0, 67, 39
2, 4320, Note_on_c, 0, 71, 0
2, 4320, Note_on_c, 0, 62, 0
2, 4320, Note_on_c, 0, 69, 0
2, 4320, Note_on_c, 0, 71, 52
2, 5040, Note_on_c, 0, 71, 0
2, 5040, Note_on_c, 0, 62, 0
2, 5040, Note_on_c, 0, 67, 0
2, 5040, Note_on_c, 0, 66, 52
2, 5040, Note_on_c, 0, 76, 63
2, 5520, Note_on_c, 0, 76, 0
2, 5520, Note_on_c, 0, 74, 60
2, 5760, Note_on_c, 0, 74, 0
2, 5760, Note_on_c, 0, 66, 0
2, 5760, Note_on_c, 0, 67, 52
2, 5760, Note_on_c, 0, 74, 59
2, 6480, Note_on_c, 0, 74, 0
2, 6480, Note_on_c, 0, 67, 0
2, 6480, Note_on_c, 0, 70, 52
2, 6480, Note_on_c, 0, 79, 66
2, 6720, Note_on_c, 0, 79, 0
2, 6720, Note_on_c, 0, 78, 58
2, 6960, Note_on_c, 0, 78, 0
2, 6960, Note_on_c, 0, 76, 56
2, 7200, Note_on_c, 0, 76, 0
2, 7200, Note_on_c, 0, 70, 0
2, 7200, Note_on_c, 0, 69, 48
2, 7920, Note_on_c, 0, 69, 0
2, 7920, Note_on_c, 0, 74, 60
2, 7920, Note_on_c, 0, 66, 48
2, 8160, Note_on_c, 0, 74, 0
2, 8160, Note_on_c, 0, 69, 56
2, 8400, Note_on_c, 0, 69, 0
2, 8400, Note_on_c, 0, 72, 58
2, 8640, Note_on_c, 0, 72, 0
2, 8640, Note_on_c, 0, 66, 0
2, 8640, Note_on_c, 0, 72, 57
2, 8640, Note_on_c, 0, 66, 50
2, 9120, Note_on_c, 0, 66, 0
2, 9120, Note_on_c, 0, 72, 0
2, 9120, Note_on_c, 0, 67, 49
2, 9120, Note_on_c, 0, 71, 55
2, 9360, Note_on_c, 0, 71, 0
2, 9360, Note_on_c, 0, 67, 0
2, 9360, Note_on_c, 0, 64, 52
2, 9360, Note_on_c, 0, 69, 52
2, 9600, Note_on_c, 0, 64, 0
2, 9600, Note_on_c, 0, 57, 51
2, 9840, Note_on_c, 0, 57, 0
2, 9840, Note_on_c, 0, 64, 53
2, 10080, Note_on_c, 0, 64, 0
2, 10080, Note_on_c, 0, 69, 0
2, 10080, Note_on_c, 0, 69, 55
2, 10080, Note_on_c, 0, 64, 55
2, 10560, Note_on_c, 0, 64, 0
2, 10560, Note_on_c, 0, 62, 53
2, 10680, Note_on_c, 0, 62, 0
2, 10740, Note_on_c, 0, 62, 40
2, 10770, Note_on_c, 0, 66, 45
2, 10800, Note_on_c, 0, 69, 0
2, 10800, Note_on_c, 0, 74, 55
2, 11280, Note_on_c, 0, 74, 0
2, 11280, Note_on_c, 0, 71, 51
2, 11460, Note_on_c, 0, 62, 37
2, 11490, Note_on_c, 0, 67, 39
2, 11520, Note_on_c, 0, 71, 0
2, 11520, Note_on_c, 0, 62, 0
2, 11520, Note_on_c, 0, 66, 0
2, 11520, Note_on_c, 0, 71, 52
2, 12120, Note_on_c, 0, 71, 0
2, 12120, Note_on_c, 0, 62, 0
2, 12120, Note_on_c, 0, 67, 0
2, 12180, Note_on_c, 0, 62, 40
2, 12210, Note_on_c, 0, 69, 42
2, 12240, Note_on_c, 0, 74, 53
2, 12720, Note_on_c, 0, 74, 0
2, 12720, Note_on_c, 0, 71, 53
2, 12900, Note_on_c, 0, 62, 36
2, 12930, Note_on_c, 0, 67, 39
2, 12960, Note_on_c, 0, 71, 0
2, 12960, Note_on_c, 0, 62, 0
2, 12960, Note_on_c, 0, 69, 0
2, 12960, Note_on_c, 0, 71, 50
2, 13680, Note_on_c, 0, 71, 0
2, 13680, Note_on_c, 0, 62, 0
2, 13680, Note_on_c, 0, 67, 0
2, 13680, Note_on_c, 0, 66, 52
2, 13680, Note_on_c, 0, 76, 63
2, 14160, Note_on_c, 0, 76, 0
2, 14160, Note_on_c, 0, 74, 60
2, 14400, Note_on_c, 0, 74, 0
2, 14400, Note_on_c, 0, 66, 0
2, 14400, Note_on_c, 0, 74, 62
2, 14400, Note_on_c, 0, 67, 53
2, 15120, Note_on_c, 0, 67, 0
2, 15120, Note_on_c, 0, 74, 0
2, 15120, Note_on_c, 0, 70, 52
2, 15120, Note_on_c, 0, 79, 66
2, 15360, Note_on_c, 0, 79, 0
2, 15360, Note_on_c, 0, 76, 55
2, 15600, Note_on_c, 0, 76, 0
2, 15600, Note_on_c, 0, 79, 57
2, 15840, Note_on_c, 0, 79, 0
2, 15840, Note_on_c, 0, 70, 0
2, 15840, Note_on_c, 0, 71, 58
2, 15840, Note_on_c, 0, 78, 62
2, 16320, Note_on_c, 0, 78, 0
2, 16320, Note_on_c, 0, 78, 56
2, 16560, Note_on_c, 0, 78, 0
2, 16560, Note_on_c, 0, 71, 0
2, 16560, Note_on_c, 0, 83, 62
2, 16560, Note_on_c, 0, 73, 53
2, 16800, Note_on_c, 0, 83, 0
2, 16800, Note_on_c, 0, 79, 60
2, 17040, Note_on_c, 0, 79, 0
2, 17040, Note_on_c, 0, 83, 57
2, 17280, Note_on_c, 0, 83, 0
2, 17280, Note_on_c, 0, 73, 0
2, 17280, Note_on_c, 0, 81, 61
2, 17280, Note_on_c, 0, 74, 51
2, 17760, Note_on_c, 0, 81, 0
2, 17760, Note_on_c, 0, 81, 55
2, 18000, Note_on_c, 0, 81, 0
2, 18000, Note_on_c, 0, 74, 0
2, 18000, Note_on_c, 0, 74, 49
2, 18000, Note_on_c, 0, 86, 55
2, 18240, Note_on_c, 0, 86, 0
2, 18240, Note_on_c, 0, 81, 53
2, 18480, Note_on_c, 0, 81, 0
2, 18480, Note_on_c, 0, 86, 53
2, 18720, Note_on_c, 0, 86, 0
2, 18720, Note_on_c, 0, 74, 0
2, 18720, Note_on_c, 0, 86, 57
2, 18720, Note_on_c, 0, 81, 50
2, 19440, Note_on_c, 0, 81, 0
2, 19440, Note_on_c, 0, 86, 0
2, 19680, Note_on_c, 0, 81, 39
2, 19920, Note_on_c, 0, 81, 0
2, 19920, Note_on_c, 0, 86, 39
2, 20160, Note_on_c, 0, 86, 0
2, 20160, Note_on_c, 0, 93, 44
2, 20400, Note_on_c, 0, 93, 0
2, 20400, Note_on_c, 0, 86, 42
2, 20640, Note_on_c, 0, 93, 42
2, 20880, Note_on_c, 0, 98, 45
2, 21360, Note_on_c, 0, 98, 0
2, 21360, Note_on_c, 0, 93, 0
2, 21360, Note_on_c, 0, 86, 0
2, 21600, Note_on_c, 0, 74, 57
2, 21600, Note_on_c, 0, 86, 57
2, 21840, Note_on_c, 0, 86, 0
2, 21840, Note_on_c, 0, 82, 55
2, 22080, Note_on_c, 0, 82, 0
2, 22080, Note_on_c, 0, 79, 52
2, 22320, Note_on_c, 0, 79, 0
2, 22320, Note_on_c, 0, 77, 53
2, 22560, Note_on_c, 0, 77, 0
2, 22560, Note_on_c, 0, 81, 49
2, 22800, Note_on_c, 0, 81, 0
2, 22800, Note_on_c, 0, 79, 49
2, 23040, Note_on_c, 0, 79, 0
2, 23040, Note_on_c, 0, 77, 52
2, 23760, Note_on_c, 0, 77, 0
2, 23760, Note_on_c, 0, 74, 0
2, 25920, Note_on_c, 0, 62, 57
2, 25920, Note_on_c, 0, 74, 57
2, 26160, Note_on_c, 0, 74, 0
2, 26160, Note_on_c, 0, 70, 55
2, 26400, Note_on_c, 0, 70, 0
2, 26400, Note_on_c, 0, 67, 52
2, 26640, Note_on_c, 0, 67, 0
2, 26640, Note_on_c, 0, 65, 53
2, 26880, Note_on_c, 0, 65, 0
2, 26880, Note_on_c, 0, 69, 49
2, 27120, Note_on_c, 0, 69, 0
2, 27120, Note_on_c, 0, 67, 46
2, 27360, Note_on_c, 0, 67, 0
2, 27360, Note_on_c, 0, 65, 51
2, 28080, Note_on_c, 0, 65, 0
2, 28080, Note_on_c, 0, 62, 0
2, 30240, Note_on_c, 0, 57, 55
2, 30240, Note_on_c, 0, 62, 55
2, 30720, Note_on_c, 0, 62, 0
2, 30720, Note_on_c, 0, 59, 51
2, 30960, Note_on_c, 0, 59, 0
2, 30960, Note_on_c, 0, 57, 0
2, 30960, Note_on_c, 0, 59, 48
2, 30960, Note_on_c, 0, 55, 48
2, 31680, Note_on_c, 0, 55, 0
2, 31680, Note_on_c, 0, 59, 0
2, 31680, Note_on_c, 0, 57, 51
2, 31680, Note_on_c, 0, 62, 51
2, 32160, Note_on_c, 0, 62, 0
2, 32160, Note_on_c, 0, 59, 51
2, 32400, Note_on_c, 0, 59, 0
2, 32400, Note_on_c, 0, 57, 0
2, 32400, Note_on_c, 0, 55, 41
2, 32400, Note_on_c, 0, 59, 46
2, 33120, Note_on_c, 0, 59, 0
2, 33120, Note_on_c, 0, 54, 50
2, 33120, Note_on_c, 0, 64, 57
2, 33150, Note_on_c, 0, 55, 0
2, 33600, Note_on_c, 0, 64, 0
2, 33600, Note_on_c, 0, 62, 53
2, 33840, Note_on_c, 0, 62, 0
2, 33840, Note_on_c, 0, 54, 0
2, 33840, Note_on_c, 0, 62, 59
2, 33840, Note_on_c, 0, 55, 53
2, 34560, Note_on_c, 0, 55, 0
2, 34560, Note_on_c, 0, 62, 0
2, 34560, Note_on_c, 0, 58, 59
2, 34560, Note_on_c, 0, 67, 66
2, 34800, Note_on_c, 0, 67, 0
2, 34800, Note_on_c, 0, 66, 63
2, 35040, Note_on_c, 0, 66, 0
2, 35040, Note_on_c, 0, 64, 62
2, 35280, Note_on_c, 0, 64, 0
2, 35280, Note_on_c, 0, 58, 0
2, 35280, Note_on_c, 0, 57, 60
2, 36240, Note_on_c, 0, 57, 0
2, 36240, Note_on_c, 0, 59, 52
2, 36480, Note_on_c, 0, 59, 0
2, 36480, Note_on_c, 0, 60, 56
2, 36720, Note_on_c, 0, 60, 0
2, 36720, Note_on_c, 0, 60, 58
2, 37200, Note_on_c, 0, 60, 0
2, 37200, Note_on_c, 0, 59, 55
2, 37440, Note_on_c, 0, 59, 0
2, 37440, Note_on_c, 0, 59, 55
2, 38880, Note_on_c, 0, 59, 0
2, 38880, Note_on_c, 0, 59, 57
2, 39360, Note_on_c, 0, 59, 0
2, 39360, Note_on_c, 0, 57, 53
2, 39600, Note_on_c, 0, 57, 0
2, 39600, Note_on_c, 0, 57, 52
2, 41040, Note_on_c, 0, 57, 0
2, 41040, Note_on_c, 0, 57, 49
2, 41280, Note_on_c, 0, 57, 0
2, 41280, Note_on_c, 0, 59, 46
2, 41520, Note_on_c, 0, 59, 0
2, 41520, Note_on_c, 0, 60, 46
2, 41760, Note_on_c, 0, 60, 0
2, 41760, Note_on_c, 0, 54, 42
2, 41760, Note_on_c, 0, 60, 48
2, 42240, Note_on_c, 0, 60, 0
2, 42240, Note_on_c, 0, 59, 42
2, 42480, Note_on_c, 0, 59, 0
2, 42480, Note_on_c, 0, 54, 0
2, 42480, Note_on_c, 0, 55, 38
2, 42480, Note_on_c, 0, 59, 42
2, 43080, Note_on_c, 0, 59, 0
2, 43080, Note_on_c, 0, 55, 0
2, 43200, Note_on_c, 0, 71, 70
2, 43560, Note_on_c, 0, 67, 52
2, 43680, Note_on_c, 0, 67, 0
2, 43680, Note_on_c, 0, 71, 0
2, 43680, Note_on_c, 0, 70, 62
2, 44040, Note_on_c, 0, 66, 57
2, 44160, Note_on_c, 0, 66, 0
2, 44160, Note_on_c, 0, 70, 0
2, 44160, Note_on_c, 0, 74, 73
2, 44400, Note_on_c, 0, 74, 0
2, 44400, Note_on_c, 0, 64, 57
2, 44400, Note_on_c, 0, 66, 57
2, 44400, Note_on_c, 0, 73, 67
2, 44640, Note_on_c, 0, 73, 0
2, 44640, Note_on_c, 0, 66, 0
2, 44640, Note_on_c, 0, 64, 0
2, 44640, Note_on_c, 0, 62, 51
2, 44640, Note_on_c, 0, 66, 51
2, 44640, Note_on_c, 0, 71, 61
2, 44880, Note_on_c, 0, 71, 0
2, 44880, Note_on_c, 0, 66, 0
2, 44880, Note_on_c, 0, 62, 0
2, 45120, Note_on_c, 0, 71, 70
2, 45480, Note_on_c, 0, 67, 55
2, 45600, Note_on_c, 0, 67, 0
2, 45600, Note_on_c, 0, 71, 0
2, 45600, Note_on_c, 0, 70, 62
2, 45960, Note_on_c, 0, 66, 57
2, 46080, Note_on_c, 0, 66, 0
2, 46080, Note_on_c, 0, 70, 0
2, 46080, Note_on_c, 0, 78, 74
2, 46320, Note_on_c, 0, 78, 0
2, 46320, Note_on_c, 0, 76, 71
2, 46560, Note_on_c, 0, 76, 0
2, 46560, Note_on_c, 0, 71, 56
2, 46560, Note_on_c, 0, 76, 70
2, 46680, Note_on_c, 0, 71, 0
2, 46680, Note_on_c, 0, 72, 57
2, 46800, Note_on_c, 0, 72, 0
2, 46800, Note_on_c, 0, 76, 0
2, 46800, Note_on_c, 0, 71, 52
2, 46800, Note_on_c, 0, 75, 62
2, 46920, Note_on_c, 0, 71, 0
2, 46920, Note_on_c, 0, 66, 51
2, 47040, Note_on_c, 0, 66, 0
2, 47040, Note_on_c, 0, 75, 0
2, 47040, Note_on_c, 0, 71, 70
2, 47400, Note_on_c, 0, 67, 55
2, 47520, Note_on_c, 0, 67, 0
2, 47520, Note_on_c, 0, 71, 0
2, 47520, Note_on_c, 0, 70, 62
2, 47880, Note_on_c, 0, 66, 57
2, 48000, Note_on_c, 0, 66, 0
2, 48000, Note_on_c, 0, 70, 0
2, 48000, Note_on_c, 0, 74, 73
2, 48240, Note_on_c, 0, 74, 0
2, 48240, Note_on_c, 0, 64, 57
2, 48240, Note_on_c, 0, 66, 57
2, 48240, Note_on_c, 0, 73, 67
2, 48480, Note_on_c, 0, 73, 0
2, 48480, Note_on_c, 0, 66, 0
2, 48480, Note_on_c, 0, 64, 0
2, 48480, Note_on_c, 0, 62, 51
2, 48480, Note_on_c, 0, 66, 51
2, 48480, Note_on_c, 0, 71, 61
2, 48720, Note_on_c, 0, 71, 0
2, 48720, Note_on_c, 0, 66, 0
2, 48720, Note_on_c, 0, 62, 0
2, 48960, Note_on_c, 0, 71, 70
2, 49320, Note_on_c, 0, 67, 55
2, 49440, Note_on_c, 0, 67, 0
2, 49440, Note_on_c, 0, 71, 0
2, 49440, Note_on_c, 0, 70, 62
2, 49800, Note_on_c, 0, 66, 57
2, 49920, Note_on_c, 0, 66, 0
2, 49920, Note_on_c, 0, 70, 0
2, 49920, Note_on_c, 0, 78, 72
2, 50160, Note_on_c, 0, 78, 0
2, 50160, Note_on_c, 0, 76, 71
2, 50400, Note_on_c, 0, 76, 0
2, 50400, Note_on_c, 0, 71, 56
2, 50400, Note_on_c, 0, 76, 70
2, 50520, Note_on_c, 0, 71, 0
2, 50520, Note_on_c, 0, 72, 56
2, 50640, Note_on_c, 0, 72, 0
2, 50640, Note_on_c, 0, 76, 0
2, 50640, Note_on_c, 0, 71, 52
2, 50640, Note_on_c, 0, 75, 62
2, 50760, Note_on_c, 0, 71, 0
2, 50760, Note_on_c, 0, 66, 51
2, 50880, Note_on_c, 0, 66, 0
2, 50880, Note_on_c, 0, 75, 0
2, 50880, Note_on_c, 0, 79, 79
2, 51120, Note_on_c, 0, 67, 52
2, 51240, Note_on_c, 0, 67, 0
2, 51240, Note_on_c, 0, 71, 48
2, 51360, Note_on_c, 0, 71, 0
2, 51360, Note_on_c, 0, 79, 0
2, 51360, Note_on_c, 0, 78, 77
2, 51600, Note_on_c, 0, 66, 50
2, 51720, Note_on_c, 0, 66, 0
2, 51720, Note_on_c, 0, 71, 47
2, 51840, Note_on_c, 0, 71, 0
2, 51840, Note_on_c, 0, 78, 0
2, 51840, Note_on_c, 0, 77, 77
2, 52080, Note_on_c, 0, 77, 0
2, 52080, Note_on_c, 0, 71, 49
2, 52080, Note_on_c, 0, 73, 50
2, 52080, Note_on_c, 0, 80, 67
2, 52320, Note_on_c, 0, 80, 0
2, 52320, Note_on_c, 0, 73, 0
2, 52320, Note_on_c, 0, 71, 0
2, 52320, Note_on_c, 0, 71, 60
2, 52320, Note_on_c, 0, 73, 71
2, 52560, Note_on_c, 0, 71, 0
2, 52560, Note_on_c, 0, 69, 57
2, 52800, Note_on_c, 0, 69, 0
2, 52800, Note_on_c, 0, 73, 0
2, 52800, Note_on_c, 0, 78, 77
2, 53040, Note_on_c, 0, 66, 52
2, 53160, Note_on_c, 0, 66, 0
2, 53160, Note_on_c, 0, 69, 48
2, 53280, Note_on_c, 0, 69, 0
2, 53280, Note_on_c, 0, 78, 0
2, 53280, Note_on_c, 0, 76, 75
2, 53520, Note_on_c, 0, 64, 50
2, 53640, Note_on_c, 0, 64, 0
2, 53640, Note_on_c, 0, 69, 46
2, 53760, Note_on_c, 0, 69, 0
2, 53760, Note_on_c, 0, 76, 0
2, 53760, Note_on_c, 0, 75, 79
2, 54000, Note_on_c, 0, 75, 0
2, 54000, Note_on_c, 0, 69, 49
2, 54000, Note_on_c, 0, 71, 50
2, 54000, Note_on_c, 0, 78, 69
2, 54240, Note_on_c, 0, 78, 0
2, 54240, Note_on_c, 0, 71, 0
2, 54240, Note_on_c, 0, 69, 0
2, 54240, Note_on_c, 0, 69, 60
2, 54240, Note_on_c, 0, 71, 71
2, 54480, Note_on_c, 0, 69, 0
2, 54480, Note_on_c, 0, 67, 57
2, 54720, Note_on_c, 0, 67, 0
2, 54720, Note_on_c, 0, 71, 0
2, 54720, Note_on_c, 0, 76, 75
2, 54960, Note_on_c, 0, 64, 52
2, 55080, Note_on_c, 0, 64, 0
2, 55080, Note_on_c, 0, 67, 48
2, 55200, Note_on_c, 0, 67, 0
2, 55200, Note_on_c, 0, 76, 0
2, 55200, Note_on_c, 0, 74, 73
2, 55440, Note_on_c, 0, 62, 50
2, 55560, Note_on_c, 0, 62, 0
2, 55560, Note_on_c, 0, 67, 47
2, 55680, Note_on_c, 0, 67, 0
2, 55680, Note_on_c, 0, 74, 0
2, 55680, Note_on_c, 0, 74, 72
2, 55920, Note_on_c, 0, 74, 0
2, 55920, Note_on_c, 0, 61, 41
2, 55920, Note_on_c, 0, 67, 42
2, 55920, Note_on_c, 0, 73, 67
2, 56160, Note_on_c, 0, 73, 0
2, 56160, Note_on_c, 0, 67, 0
2, 56160, Note_on_c, 0, 61, 0
2, 56160, Note_on_c, 0, 64, 51
2, 56160, Note_on_c, 0, 67, 51
2, 56160, Note_on_c, 0, 71, 59
2, 56400, Note_on_c, 0, 71, 0
2, 56400, Note_on_c, 0, 67, 0
2, 56400, Note_on_c, 0, 64, 0
2, 56400, Note_on_c, 0, 69, 57
2, 56640, Note_on_c, 0, 69, 0
2, 56640, Note_on_c, 0, 67, 59
2, 57000, Note_on_c, 0, 61, 46
2, 57120, Note_on_c, 0, 61, 0
2, 57120, Note_on_c, 0, 67, 0
2, 57120, Note_on_c, 0, 66, 57
2, 57480, Note_on_c, 0, 62, 46
2, 57600, Note_on_c, 0, 62, 0
2, 57600, Note_on_c, 0, 66, 0
2, 57600, Note_on_c, 0, 73, 60
2, 57840, Note_on_c, 0, 73, 0
2, 57840, Note_on_c, 0, 62, 36
2, 57840, Note_on_c, 0, 66, 39
2, 57840, Note_on_c, 0, 71, 49
2, 58080, Note_on_c, 0, 71, 0
2, 58080, Note_on_c, 0, 66, 0
2, 58080, Note_on_c, 0, 62, 0
2, 58080, Note_on_c, 0, 69, 55
2, 58320, Note_on_c, 0, 69, 0
2, 58560, Note_on_c, 0, 69, 62
2, 58920, Note_on_c, 0, 63, 49
2, 59040, Note_on_c, 0, 63, 0
2, 59040, Note_on_c, 0, 69, 0
2, 59040, Note_on_c, 0, 67, 60
2, 59400, Note_on_c, 0, 64, 49
2, 59520, Note_on_c, 0, 64, 0
2, 59520, Note_on_c, 0, 67, 0
2, 59520, Note_on_c, 0, 76, 66
2, 59760, Note_on_c, 0, 76, 0
2, 59760, Note_on_c, 0, 64, 45
2, 59760, Note_on_c, 0, 67, 45
2, 59760, Note_on_c, 0, 74, 53
2, 60000, Note_on_c, 0, 74, 0
2, 60000, Note_on_c, 0, 67, 0
2, 60000, Note_on_c, 0, 64, 0
2, 60000, Note_on_c, 0, 74, 61
2, 60240, Note_on_c, 0, 74, 0
2, 60240, Note_on_c, 0, 73, 57
2, 60480, Note_on_c, 0, 73, 0
2, 60480, Note_on_c, 0, 67, 59
2, 60840, Note_on_c, 0, 61, 46
2, 60960, Note_on_c, 0, 61, 0
2, 60960, Note_on_c, 0, 67, 0
2, 60960, Note_on_c, 0, 66, 57
2, 61320, Note_on_c, 0, 62, 46
2, 61440, Note_on_c, 0, 62, 0
2, 61440, Note_on_c, 0, 66, 0
2, 61440, Note_on_c, 0, 73, 58
2, 61680, Note_on_c, 0, 73, 0
2, 61680, Note_on_c, 0, 62, 36
2, 61680, Note_on_c, 0, 66, 39
2, 61680, Note_on_c, 0, 71, 49
2, 61920, Note_on_c, 0, 71, 0
2, 61920, Note_on_c, 0, 66, 0
2, 61920, Note_on_c, 0, 62, 0
2, 61920, Note_on_c, 0, 69, 55
2, 62160, Note_on_c, 0, 69, 0
2, 62400, Note_on_c, 0, 69, 60
2, 62760, Note_on_c, 0, 63, 49
2, 62880, Note_on_c, 0, 63, 0
2, 62880, Note_on_c, 0, 69, 0
2, 62880, Note_on_c, 0, 67, 60
2, 63240, Note_on_c, 0, 64, 51
2, 63360, Note_on_c, 0, 64, 0
2, 63360, Note_on_c, 0, 67, 0
2, 63360, Note_on_c, 0, 76, 64
2, 63600, Note_on_c, 0, 76, 0
2, 63600, Note_on_c, 0, 64, 45
2, 63600, Note_on_c, 0, 67, 45
2, 63600, Note_on_c, 0, 74, 53
2, 63840, Note_on_c, 0, 74, 0
2, 63840, Note_on_c, 0, 67, 0
2, 63840, Note_on_c, 0, 64, 0
2, 63840, Note_on_c, 0, 73, 61
2, 64080, Note_on_c, 0, 73, 0
2, 64320, Note_on_c, 0, 72, 71
2, 64560, Note_on_c, 0, 62, 49
2, 64560, Note_on_c, 0, 69, 59
2, 64800, Note_on_c, 0, 69, 0
2, 64800, Note_on_c, 0, 62, 0
2, 64800, Note_on_c, 0, 72, 0
2, 64800, Note_on_c, 0, 71, 72
2, 65040, Note_on_c, 0, 62, 52
2, 65040, Note_on_c, 0, 67, 62
2, 65280, Note_on_c, 0, 67, 0
2, 65280, Note_on_c, 0, 62, 0
2, 65280, Note_on_c, 0, 71, 0
2, 65280, Note_on_c, 0, 74, 74
2, 65520, Note_on_c, 0, 64, 53
2, 65520, Note_on_c, 0, 71, 63
2, 65760, Note_on_c, 0, 71, 0
2, 65760, Note_on_c, 0, 64, 0
2, 65760, Note_on_c, 0, 74, 0
2, 65760, Note_on_c, 0, 73, 74
2, 66000, Note_on_c, 0, 64, 53
2, 66000, Note_on_c, 0, 69, 63
2, 66240, Note_on_c, 0, 69, 0
2, 66240, Note_on_c, 0, 64, 0
2, 66240, Note_on_c, 0, 73, 0
2, 66240, Note_on_c, 0, 73, 78
2, 66480, Note_on_c, 0, 65, 56
2, 66480, Note_on_c, 0, 71, 67
2, 66720, Note_on_c, 0, 71, 0
2, 66720, Note_on_c, 0, 65, 0
2, 66720, Note_on_c, 0, 73, 0
2, 66720, Note_on_c, 0, 73, 80
2, 66960, Note_on_c, 0, 65, 58
2, 66960, Note_on_c, 0, 71, 69
2, 67200, Note_on_c, 0, 71, 0
2, 67200, Note_on_c, 0, 65, 0
2, 67200, Note_on_c, 0, 73, 0
2, 67200, Note_on_c, 0, 70, 73
2, 67200, Note_on_c, 0, 66, 73
2, 67200, Note_on_c, 0, 78, 86
2, 67680, Note_on_c, 0, 78, 0
2, 67680, Note_on_c, 0, 73, 85
2, 68160, Note_on_c, 0, 73, 0
2, 68160, Note_on_c, 0, 66, 0
2, 68160, Note_on_c, 0, 70, 0
2, 68160, Note_on_c, 0, 70, 60
2, 68160, Note_on_c, 0, 65, 60
2, 68160, Note_on_c, 0, 73, 80
2, 68400, Note_on_c, 0, 73, 0
2, 68400, Note_on_c, 0, 75, 80
2, 68640, Note_on_c, 0, 75, 0
2, 68640, Note_on_c, 0, 73, 81
2, 69120, Note_on_c, 0, 73, 0
2, 69120, Note_on_c, 0, 65, 0
2, 69120, Note_on_c, 0, 70, 0
2, 69120, Note_on_c, 0, 70, 73
2, 69120, Note_on_c, 0, 66, 73
2, 69120, Note_on_c, 0, 78, 86
2, 69600, Note_on_c, 0, 78, 0
2, 69600, Note_on_c, 0, 73, 84
2, 70080, Note_on_c, 0, 73, 0
2, 70080, Note_on_c, 0, 66, 0
2, 70080, Note_on_c, 0, 70, 0
2, 70080, Note_on_c, 0, 70, 60
2, 70080, Note_on_c, 0, 65, 60
2, 70080, Note_on_c, 0, 73, 80
2, 70320, Note_on_c, 0, 73, 0
2, 70320, Note_on_c, 0, 75, 80
2, 70560, Note_on_c, 0, 75, 0
2, 70560, Note_on_c, 0, 73, 81
2, 71040, Note_on_c, 0, 73, 0
2, 71040, Note_on_c, 0, 65, 0
2, 71040, Note_on_c, 0, 70, 0
2, 71040, Note_on_c, 0, 66, 82
2, 71280, Note_on_c, 0, 70, 55
2, 71280, Note_on_c, 0, 73, 64
2, 71520, Note_on_c, 0, 73, 0
2, 71520, Note_on_c, 0, 70, 0
2, 71520, Note_on_c, 0, 66, 0
2, 71520, Note_on_c, 0, 61, 72
2, 71760, Note_on_c, 0, 70, 56
2, 71760, Note_on_c, 0, 66, 46
2, 72000, Note_on_c, 0, 66, 0
2, 72000, Note_on_c, 0, 70, 0
2, 72000, Note_on_c, 0, 61, 0
2, 72000, Note_on_c, 0, 61, 75
2, 72240, Note_on_c, 0, 61, 0
2, 72240, Note_on_c, 0, 68, 52
2, 72240, Note_on_c, 0, 71, 52
2, 72240, Note_on_c, 0, 63, 70
2, 72480, Note_on_c, 0, 63, 0
2, 72480, Note_on_c, 0, 61, 72
2, 72960, Note_on_c, 0, 61, 0
2, 72960, Note_on_c, 0, 71, 0
2, 72960, Note_on_c, 0, 68, 0
2, 72960, Note_on_c, 0, 66, 73
2, 73200, Note_on_c, 0, 70, 49
2, 73200, Note_on_c, 0, 73, 58
2, 73440, Note_on_c, 0, 73, 0
2, 73440, Note_on_c, 0, 70, 0
2, 73440, Note_on_c, 0, 66, 0
2, 73440, Note_on_c, 0, 61, 64
2, 73680, Note_on_c, 0, 70, 49
2, 73680, Note_on_c, 0, 66, 40
2, 73920, Note_on_c, 0, 66, 0
2, 73920, Note_on_c, 0, 70, 0
2, 73920, Note_on_c, 0, 61, 0
2, 73920, Note_on_c, 0, 61, 68
2, 74160, Note_on_c, 0, 61, 0
2, 74160, Note_on_c, 0, 68, 47
2, 74160, Note_on_c, 0, 71, 47
2, 74160, Note_on_c, 0, 63, 62
2, 74400, Note_on_c, 0, 63, 0
2, 74400, Note_on_c, 0, 61, 64
2, 74880, Note_on_c, 0, 61, 0
2, 74880, Note_on_c, 0, 71, 0
2, 74880, Note_on_c, 0, 68, 0
2, 74880, Note_on_c, 0, 66, 66
2, 75120, Note_on_c, 0, 70, 44
2, 75120, Note_on_c, 0, 73, 51
2, 75360, Note_on_c, 0, 73, 0
2, 75360, Note_on_c, 0, 70, 0
2, 75360, Note_on_c, 0, 66, 0
2, 75360, Note_on_c, 0, 61, 58
2, 75600, Note_on_c, 0, 70, 44
2, 75600, Note_on_c, 0, 66, 36
2, 75840, Note_on_c, 0, 66, 0
2, 75840, Note_on_c, 0, 70, 0
2, 75840, Note_on_c, 0, 61, 0
2, 75840, Note_on_c, 0, 66, 59
2, 76080, Note_on_c, 0, 73, 46
2, 76080, Note_on_c, 0, 70, 39
2, 76320, Note_on_c, 0, 70, 0
2, 76320, Note_on_c, 0, 73, 0
2, 76320, Note_on_c, 0, 66, 0
2, 76320, Note_on_c, 0, 61, 51
2, 76560, Note_on_c, 0, 66, 31
2, 76560, Note_on_c, 0, 70, 39
2, 76800, Note_on_c, 0, 70, 0
2, 76800, Note_on_c, 0, 66, 0
2, 76800, Note_on_c, 0, 61, 0
2, 76800, Note_on_c, 0, 71, 70
2, 77160, Note_on_c, 0, 67, 52
2, 77280, Note_on_c, 0, 67, 0
2, 77280, Note_on_c, 0, 71, 0
2, 77280, Note_on_c, 0, 70, 62
2, 77640, Note_on_c, 0, 66, 57
2, 77760, Note_on_c, 0, 66, 0
2, 77760, Note_on_c, 0, 70, 0
2, 77760, Note_on_c, 0, 74, 73
2, 78000, Note_on_c, 0, 74, 0
2, 78000, Note_on_c, 0, 64, 57
2, 78000, Note_on_c, 0, 66, 57
2, 78000, Note_on_c, 0, 73, 67
2, 78240, Note_on_c, 0, 73, 0
2, 78240, Note_on_c, 0, 66, 0
2, 78240, Note_on_c, 0, 64, 0
2, 78240, Note_on_c, 0, 62, 51
2, 78240, Note_on_c, 0, 66, 51
2, 78240, Note_on_c, 0, 71, 61
2, 78480, Note_on_c, 0, 71, 0
2, 78480, Note_on_c, 0, 66, 0
2, 78480, Note_on_c, 0, 62, 0
2, 78720, Note_on_c, 0, 71, 70
2, 79080, Note_on_c, 0, 67, 55
2, 79200, Note_on_c, 0, 67, 0
2, 79200, Note_on_c, 0, 71, 0
2, 79200, Note_on_c, 0, 70, 62
2, 79560, Note_on_c, 0, 66, 57
2, 79680, Note_on_c, 0, 66, 0
2, 79680, Note_on_c, 0, 70, 0
2, 79680, Note_on_c, 0, 78, 74
2, 79920, Note_on_c, 0, 78, 0
2, 79920, Note_on_c, 0, 76, 71
2, 80160, Note_on_c, 0, 76, 0
2, 80160, Note_on_c, 0, 71, 56
2, 80160, Note_on_c, 0, 76, 70
2, 80280, Note_on_c, 0, 71, 0
2, 80280, Note_on_c, 0, 72, 57
2, 80400, Note_on_c, 0, 72, 0
2, 80400, Note_on_c, 0, 76, 0
2, 80400, Note_on_c, 0, 71, 52
2, 80400, Note_on_c, 0, 75, 62
2, 80520, Note_on_c, 0, 71, 0
2, 80520, Note_on_c, 0, 66, 51
2, 80640, Note_on_c, 0, 66, 0
2, 80640, Note_on_c, 0, 75, 0
2, 80640, Note_on_c, 0, 79, 79
2, 81000, Note_on_c, 0, 71, 42
2, 81120, Note_on_c, 0, 71, 0
2, 81120, Note_on_c, 0, 79, 0
2, 81120, Note_on_c, 0, 78, 77
2, 81480, Note_on_c, 0, 71, 44
2, 81600, Note_on_c, 0, 71, 0
2, 81600, Note_on_c, 0, 78, 0
2, 81600, Note_on_c, 0, 78, 75
2, 81840, Note_on_c, 0, 78, 0
2, 81840, Note_on_c, 0, 66, 52
2, 81840, Note_on_c, 0, 76, 67
2, 81960, Note_on_c, 0, 66, 0
2, 81960, Note_on_c, 0, 69, 48
2, 82080, Note_on_c, 0, 69, 0
2, 82080, Note_on_c, 0, 76, 0
2, 82080, Note_on_c, 0, 74, 71
2, 82440, Note_on_c, 0, 67, 40
2, 82560, Note_on_c, 0, 67, 0
2, 82560, Note_on_c, 0, 74, 0
2, 82560, Note_on_c, 0, 76, 77
2, 82920, Note_on_c, 0, 69, 42
2, 83040, Note_on_c, 0, 69, 0
2, 83040, Note_on_c, 0, 76, 0
2, 83040, Note_on_c, 0, 74, 73
2, 83400, Note_on_c, 0, 67, 44
2, 83520, Note_on_c, 0, 67, 0
2, 83520, Note_on_c, 0, 74, 0
2, 83520, Note_on_c, 0, 74, 77
2, 83760, Note_on_c, 0, 74, 0
2, 83760, Note_on_c, 0, 62, 52
2, 83760, Note_on_c, 0, 72, 67
2, 83880, Note_on_c, 0, 62, 0
2, 83880, Note_on_c, 0, 69, 48
2, 84000, Note_on_c, 0, 69, 0
2, 84000, Note_on_c, 0, 72, 0
2, 84000, Note_on_c, 0, 71, 67
2, 84360, Note_on_c, 0, 62, 40
2, 84360, Note_on_c, 0, 67, 40
2, 84480, Note_on_c, 0, 67, 0
2, 84480, Note_on_c, 0, 62, 0
2, 84480, Note_on_c, 0, 71, 0
2, 84480, Note_on_c, 0, 67, 62
2, 84840, Note_on_c, 0, 61, 42
2, 84960, Note_on_c, 0, 61, 0
2, 84960, Note_on_c, 0, 67, 0
2, 84960, Note_on_c, 0, 66, 61
2, 85200, Note_on_c, 0, 66, 0
2, 85200, Note_on_c, 0, 67, 58
2, 85320, Note_on_c, 0, 61, 36
2, 85440, Note_on_c, 0, 61, 0
2, 85440, Note_on_c, 0, 67, 0
2, 85440, Note_on_c, 0, 71, 62
2, 85800, Note_on_c, 0, 62, 42
2, 85920, Note_on_c, 0, 62, 0
2, 85920, Note_on_c, 0, 71, 0
2, 85920, Note_on_c, 0, 69, 59
2, 86280, Note_on_c, 0, 62, 36
2, 86400, Note_on_c, 0, 62, 0
2, 86400, Note_on_c, 0, 69, 0
2, 86400, Note_on_c, 0, 63, 56
2, 86760, Note_on_c, 0, 63, 0
2, 86760, Note_on_c, 0, 60, 36
2, 86880, Note_on_c, 0, 60, 0
2, 86880, Note_on_c, 0, 62, 52
2, 87120, Note_on_c, 0, 62, 0
2, 87360, Note_on_c, 0, 51, 56
2, 87720, Note_on_c, 0, 51, 0
2, 87720, Note_on_c, 0, 48, 35
2, 87840, Note_on_c, 0, 48, 0
2, 87840, Note_on_c, 0, 50, 53
2, 88080, Note_on_c, 0, 50, 0
2, 88800, Note_on_c, 0, 61, 47
2, 88920, Note_on_c, 0, 61, 0
2, 88920, Note_on_c, 0, 62, 40
2, 89040, Note_on_c, 0, 62, 0
2, 89040, Note_on_c, 0, 66, 45
2, 89160, Note_on_c, 0, 66, 0
2, 89160, Note_on_c, 0, 69, 40
2, 89280, Note_on_c, 0, 69, 0
2, 89700, Note_on_c, 0, 62, 40
2, 89730, Note_on_c, 0, 66, 45
2, 89760, Note_on_c, 0, 74, 53
2, 90240, Note_on_c, 0, 74, 0
2, 90240, Note_on_c, 0, 71, 51
2, 90420, Note_on_c, 0, 62, 37
2, 90450, Note_on_c, 0, 67, 39
2, 90480, Note_on_c, 0, 71, 0
2, 90480, Note_on_c, 0, 62, 0
2, 90480, Note_on_c, 0, 66, 0
2, 90480, Note_on_c, 0, 71, 55
2, 91080, Note_on_c, 0, 71, 0
2, 91080, Note_on_c, 0, 62, 0
2, 91080, Note_on_c, 0, 67, 0
2, 91140, Note_on_c, 0, 62, 40
2, 91170, Note_on_c, 0, 69, 42
2, 91200, Note_on_c, 0, 74, 53
2, 91680, Note_on_c, 0, 74, 0
2, 91680, Note_on_c, 0, 71, 53
2, 91860, Note_on_c, 0, 62, 36
2, 91890, Note_on_c, 0, 67, 39
2, 91920, Note_on_c, 0, 71, 0
2, 91920, Note_on_c, 0, 62, 0
2, 91920, Note_on_c, 0, 69, 0
2, 91920, Note_on_c, 0, 71, 52
2, 92640, Note_on_c, 0, 71, 0
2, 92640, Note_on_c, 0, 62, 0
2, 92640, Note_on_c, 0, 67, 0
2, 92640, Note_on_c, 0, 66, 52
2, 92640, Note_on_c, 0, 76, 63
2, 93120, Note_on_c, 0, 76, 0
2, 93120, Note_on_c, 0, 74, 60
2, 93360, Note_on_c, 0, 74, 0
2, 93360, Note_on_c, 0, 66, 0
2, 93360, Note_on_c, 0, 74, 59
2, 93360, Note_on_c, 0, 67, 52
2, 94080, Note_on_c, 0, 67, 0
2, 94080, Note_on_c, 0, 74, 0
2, 94080, Note_on_c, 0, 70, 52
2, 94080, Note_on_c, 0, 79, 66
2, 94320, Note_on_c, 0, 79, 0
2, 94320, Note_on_c, 0, 78, 60
2, 94560, Note_on_c, 0, 78, 0
2, 94560, Note_on_c, 0, 76, 57
2, 94800, Note_on_c, 0, 76, 0
2, 94800, Note_on_c, 0, 70, 0
2, 94800, Note_on_c, 0, 69, 48
2, 95520, Note_on_c, 0, 69, 0
2, 95520, Note_on_c, 0, 74, 60
2, 95520, Note_on_c, 0, 66, 48
2, 95760, Note_on_c, 0, 74, 0
2, 95760, Note_on_c, 0, 69, 56
2, 96000, Note_on_c, 0, 69, 0
2, 96000, Note_on_c, 0, 72, 58
2, 96240, Note_on_c, 0, 72, 0
2, 96240, Note_on_c, 0, 66, 0
2, 96240, Note_on_c, 0, 72, 57
2, 96240, Note_on_c, 0, 66, 50
2, 96720, Note_on_c, 0, 66, 0
2, 96720, Note_on_c, 0, 72, 0
2, 96720, Note_on_c, 0, 67, 49
2, 96720, Note_on_c, 0, 71, 55
2, 96960, Note_on_c, 0, 71, 0
2, 96960, Note_on_c, 0, 67, 0
2, 96960, Note_on_c, 0, 64, 52
2, 96960, Note_on_c, 0, 69, 52
2, 97200, Note_on_c, 0, 64, 0
2, 97200, Note_on_c, 0, 57, 51
2, 97440, Note_on_c, 0, 57, 0
2, 97440, Note_on_c, 0, 64, 53
2, 97680, Note_on_c, 0, 64, 0
2, 97680, Note_on_c, 0, 69, 0
2, 97680, Note_on_c, 0, 69, 55
2, 97680, Note_on_c, 0, 64, 55
2, 98160, Note_on_c, 0, 64, 0
2, 98160, Note_on_c, 0, 62, 53
2, 98280, Note_on_c, 0, 62, 0
2, 98340, Note_on_c, 0, 62, 40
2, 98370, Note_on_c, 0, 66, 45
2, 98400, Note_on_c, 0, 69, 0
2, 98400, Note_on_c, 0, 74, 55
2, 98880, Note_on_c, 0, 74, 0
2, 98880, Note_on_c, 0, 71, 51
2, 99060, Note_on_c, 0, 62, 37
2, 99090, Note_on_c, 0, 67, 39
2, 99120, Note_on_c, 0, 71, 0
2, 99120, Note_on_c, 0, 62, 0
2, 99120, Note_on_c, 0, 66, 0
2, 99120, Note_on_c, 0, 71, 52
2, 99720, Note_on_c, 0, 71, 0
2, 99720, Note_on_c, 0, 62, 0
2, 99720, Note_on_c, 0, 67, 0
2, 99780, Note_on_c, 0, 62, 40
2, 99810, Note_on_c, 0, 69, 42
2, 99840, Note_on_c, 0, 74, 53
2, 100320, Note_on_c, 0, 74, 0
2, 100320, Note_on_c, 0, 71, 53
2, 100500, Note_on_c, 0, 62, 36
2, 100530, Note_on_c, 0, 67, 39
2, 100560, Note_on_c, 0, 71, 0
2, 100560, Note_on_c, 0, 62, 0
2, 100560, Note_on_c, 0, 69, 0
2, 100560, Note_on_c, 0, 71, 50
2, 101280, Note_on_c, 0, 71, 0
2, 101280, Note_on_c, 0, 62, 0
2, 101280, Note_on_c, 0, 67, 0
2, 101280, Note_on_c, 0, 66, 52
2, 101280, Note_on_c, 0, 76, 63
2, 101760, Note_on_c, 0, 76, 0
2, 101760, Note_on_c, 0, 74, 60
2, 102000, Note_on_c, 0, 74, 0
2, 102000, Note_on_c, 0, 66, 0
2, 102000, Note_on_c, 0, 74, 62
2, 102000, Note_on_c, 0, 67, 53
2, 102720, Note_on_c, 0, 67, 0
2, 102720, Note_on_c, 0, 74, 0
2, 102720, Note_on_c, 0, 70, 52
2, 102720, Note_on_c, 0, 79, 66
2, 102960, Note_on_c, 0, 79, 0
2, 102960, Note_on_c, 0, 76, 61
2, 103200, Note_on_c, 0, 76, 0
2, 103200, Note_on_c, 0, 79, 62
2, 103440, Note_on_c, 0, 79, 0
2, 103440, Note_on_c, 0, 70, 0
2, 103440, Note_on_c, 0, 71, 58
2, 103440, Note_on_c, 0, 78, 62
2, 103920, Note_on_c, 0, 78, 0
2, 103920, Note_on_c, 0, 78, 56
2, 104160, Note_on_c, 0, 78, 0
2, 104160, Note_on_c, 0, 71, 0
2, 104160, Note_on_c, 0, 83, 62
2, 104160, Note_on_c, 0, 73, 53
2, 104400, Note_on_c, 0, 83, 0
2, 104400, Note_on_c, 0, 79, 60
2, 104640, Note_on_c, 0, 79, 0
2, 104640, Note_on_c, 0, 83, 57
2, 104880, Note_on_c, 0, 83, 0
2, 104880, Note_on_c, 0, 73, 0
2, 104880, Note_on_c, 0, 74, 51
2, 104880, Note_on_c, 0, 81, 61
2, 105360, Note_on_c, 0, 81, 0
2, 105360, Note_on_c, 0, 81, 55
2, 105600, Note_on_c, 0, 81, 0
2, 105600, Note_on_c, 0, 74, 0
2, 105600, Note_on_c, 0, 74, 49
2, 105600, Note_on_c, 0, 86, 55
2, 105840, Note_on_c, 0, 86, 0
2, 105840, Note_on_c, 0, 81, 53
2, 106080, Note_on_c, 0, 81, 0
2, 106080, Note_on_c, 0, 86, 53
2, 106320, Note_on_c, 0, 86, 0
2, 106320, Note_on_c, 0, 74, 0
2, 106320, Note_on_c, 0, 86, 57
2, 106320, Note_on_c, 0, 81, 50
2, 107040, Note_on_c, 0, 81, 0
2, 107040, Note_on_c, 0, 86, 0
2, 107280, Note_on_c, 0, 81, 39
2, 107520, Note_on_c, 0, 81, 0
2, 107520, Note_on_c, 0, 86, 39
2, 107760, Note_on_c, 0, 86, 0
2, 107760, Note_on_c, 0, 93, 44
2, 108000, Note_on_c, 0, 93, 0
2, 108000, Note_on_c, 0, 86, 42
2, 108240, Note_on_c, 0, 93, 42
2, 108480, Note_on_c, 0, 98, 44
2, 108960, Note_on_c, 0, 98, 0
2, 108960, Note_on_c, 0, 93, 0
2, 108960, Note_on_c, 0, 86, 0
2, 109200, Note_on_c, 0, 74, 57
2, 109200, Note_on_c, 0, 86, 57
2, 109440, Note_on_c, 0, 86, 0
2, 109440, Note_on_c, 0, 82, 55
2, 109680, Note_on_c, 0, 82, 0
2, 109680, Note_on_c, 0, 79, 52
2, 109920, Note_on_c, 0, 79, 0
2, 109920, Note_on_c, 0, 77, 53
2, 110160, Note_on_c, 0, 77, 0
2, 110160, Note_on_c, 0, 81, 49
2, 110400, Note_on_c, 0, 81, 0
2, 110400, Note_on_c, 0, 79, 49
2, 110640, Note_on_c, 0, 79, 0
2, 110640, Note_on_c, 0, 77, 52
2, 111360, Note_on_c, 0, 77, 0
2, 111360, Note_on_c, 0, 74, 0
2, 113520, Note_on_c, 0, 62, 57
2, 113520, Note_on_c, 0, 74, 57
2, 113760, Note_on_c, 0, 74, 0
2, 113760, Note_on_c, 0, 70, 55
2, 114000, Note_on_c, 0, 70, 0
2, 114000, Note_on_c, 0, 67, 52
2, 114240, Note_on_c, 0, 67, 0
2, 114240, Note_on_c, 0, 65, 53
2, 114480, Note_on_c, 0, 65, 0
2, 114480, Note_on_c, 0, 69, 49
2, 114720, Note_on_c, 0, 69, 0
2, 114720, Note_on_c, 0, 67, 49
2, 114960, Note_on_c, 0, 67, 0
2, 114960, Note_on_c, 0, 65, 51
2, 115680, Note_on_c, 0, 65, 0
2, 115680, Note_on_c, 0, 62, 0
2, 117840, Note_on_c, 0, 57, 55
2, 117840, Note_on_c, 0, 62, 55
2, 118320, Note_on_c, 0, 62, 0
2, 118320, Note_on_c, 0, 59, 51
2, 118560, Note_on_c, 0, 59, 0
2, 118560, Note_on_c, 0, 57, 0
2, 118560, Note_on_c, 0, 55, 48
2, 118560, Note_on_c, 0, 59, 48
2, 119280, Note_on_c, 0, 59, 0
2, 119280, Note_on_c, 0, 55, 0
2, 119280, Note_on_c, 0, 57, 51
2, 119280, Note_on_c, 0, 62, 51
2, 119760, Note_on_c, 0, 62, 0
2, 119760, Note_on_c, 0, 59, 51
2, 120000, Note_on_c, 0, 59, 0
2, 120000, Note_on_c, 0, 57, 0
2, 120000, Note_on_c, 0, 55, 41
2, 120000, Note_on_c, 0, 59, 46
2, 120720, Note_on_c, 0, 59, 0
2, 120720, Note_on_c, 0, 54, 50
2, 120720, Note_on_c, 0, 64, 57
2, 120750, Note_on_c, 0, 55, 0
2, 121200, Note_on_c, 0, 64, 0
2, 121200, Note_on_c, 0, 62, 53
2, 121440, Note_on_c, 0, 62, 0
2, 121440, Note_on_c, 0, 54, 0
2, 121440, Note_on_c, 0, 62, 59
2, 121440, Note_on_c, 0, 55, 53
2, 122160, Note_on_c, 0, 55, 0
2, 122160, Note_on_c, 0, 62, 0
2, 122160, Note_on_c, 0, 58, 52
2, 122160, Note_on_c, 0, 67, 59
2, 122400, Note_on_c, 0, 67, 0
2, 122400, Note_on_c, 0, 66, 57
2, 122640, Note_on_c, 0, 66, 0
2, 122640, Note_on_c, 0, 64, 56
2, 122880, Note_on_c, 0, 64, 0
2, 122880, Note_on_c, 0, 58, 0
2, 122880, Note_on_c, 0, 57, 53
2, 123840, Note_on_c, 0, 57, 0
2, 123840, Note_on_c, 0, 59, 47
2, 124080, Note_on_c, 0, 59, 0
2, 124080, Note_on_c, 0, 60, 49
2, 124320, Note_on_c, 0, 60, 0
2, 124320, Note_on_c, 0, 60, 51
2, 124800, Note_on_c, 0, 60, 0
2, 124800, Note_on_c, 0, 59, 49
2, 125040, Note_on_c, 0, 59, 0
2, 125040, Note_on_c, 0, 59, 49
2, 126480, Note_on_c, 0, 59, 0
2, 126480, Note_on_c, 0, 59, 45
2, 126960, Note_on_c, 0, 59, 0
2, 126960, Note_on_c, 0, 57, 42
2, 127200, Note_on_c, 0, 57, 0
2, 127200, Note_on_c, 0, 57, 41
2, 128640, Note_on_c, 0, 57, 0
2, 128640, Note_on_c, 0, 57, 39
2, 128880, Note_on_c, 0, 57, 0
2, 128880, Note_on_c, 0, 59, 36
2, 129120, Note_on_c, 0, 59, 0
2, 129120, Note_on_c, 0, 60, 36
2, 129360, Note_on_c, 0, 60, 0
2, 129360, Note_on_c, 0, 54, 34
2, 129360, Note_on_c, 0, 60, 38
2, 130560, Note_on_c, 0, 60, 0
2, 130560, Note_on_c, 0, 59, 34
2, 130800, Note_on_c, 0, 59, 0
2, 130800, Note_on_c, 0, 54, 0
2, 130800, Note_on_c, 0, 55, 29
2, 130800, Note_on_c, 0, 59, 34
2, 132960, Note_on_c, 0, 59, 0
2, 132960, Note_on_c, 0, 55, 0
2, 132960, Note_on_c, 0, 55, 24
2, 132960, Note_on_c, 0, 59, 25
2, 134400, Note_on_c, 0, 59, 0
2, 134400, Note_on_c, 0, 55, 0
2, 134400, End_track
3, 0, Start_track
3, 0, Title_t, "Piano left"
3, 0, Program_c, 0, 0
3, 0, Control_c, 0, 7, 100
3, 0, Control_c, 0, 10, 64
3, 2012, Control_c, 0, 64, 127
3, 2040, Note_on_c, 0, 50, 33
3, 2070, Note_on_c, 0, 57, 37
3, 2760, Note_on_c, 0, 52, 31
3, 2790, Note_on_c, 0, 55, 36
3, 2880, Note_on_c, 0, 57, 0
3, 2880, Note_on_c, 0, 50, 0
3, 2889, Control_c, 0, 64, 0
3, 2936, Control_c, 0, 64, 127
3, 3399, Control_c, 0, 64, 0
3, 3480, Note_on_c, 0, 52, 0
3, 3480, Note_on_c, 0, 55, 0
3, 3480, Note_on_c, 0, 54, 36
3, 3510, Note_on_c, 0, 57, 44
3, 3533, Control_c, 0, 64, 127
3, 4200, Note_on_c, 0, 55, 33
3, 4230, Note_on_c, 0, 59, 36
3, 4320, Note_on_c, 0, 57, 0
3, 4320, Note_on_c, 0, 54, 0
3, 4330, Control_c, 0, 64, 0
3, 4503, Control_c, 0, 64, 127
3, 5040, Note_on_c, 0, 55, 0
3, 5040, Note_on_c, 0, 59, 0
3, 5040, Note_on_c, 0, 60, 47
3, 5040, Note_on_c, 0, 57, 41
3, 5060, Control_c, 0, 64, 0
3, 5351, Control_c, 0, 64, 127
3, 5760, Note_on_c, 0, 57, 0
3, 5760, Note_on_c, 0, 60, 0
3, 5760, Note_on_c, 0, 59, 41
3, 5760, Note_on_c, 0, 62, 46
3, 5775, Control_c, 0, 64, 0
3, 5986, Control_c, 0, 64, 127
3, 6480, Note_on_c, 0, 62, 0
3, 6480, Note_on_c, 0, 59, 0
3, 6480, Control_c, 0, 64, 0
3, 6480, Note_on_c, 0, 64, 48
3, 6480, Note_on_c, 0, 61, 42
3, 6635, Control_c, 0, 64, 127
3, 7200, Note_on_c, 0, 61, 0
3, 7200, Note_on_c, 0, 64, 0
3, 7200, Note_on_c, 0, 67, 51
3, 7200, Note_on_c, 0, 62, 51
3, 7211, Control_c, 0, 64, 0
3, 7341, Control_c, 0, 64, 127
3, 7440, Note_on_c, 0, 67, 0
3, 7440, Note_on_c, 0, 66, 50
3, 7680, Note_on_c, 0, 66, 0
3, 7680, Note_on_c, 0, 64, 49
3, 7920, Note_on_c, 0, 64, 0
3, 7920, Note_on_c, 0, 62, 0
3, 7920, Note_on_c, 0, 57, 48
3, 7920, Note_on_c, 0, 50, 42
3, 7927, Control_c, 0, 64, 0
3, 8047, Control_c, 0, 64, 127
3, 8640, Note_on_c, 0, 50, 0
3, 8640, Note_on_c, 0, 57, 0
3, 8640, Control_c, 0, 64, 0
3, 8640, Note_on_c, 0, 51, 39
3, 8640, Note_on_c, 0, 57, 45
3, 8767, Control_c, 0, 64, 127
3, 9120, Note_on_c, 0, 57, 0
3, 9120, Note_on_c, 0, 51, 0
3, 9120, Note_on_c, 0, 52, 34
3, 9120, Note_on_c, 0, 55, 38
3, 9360, Note_on_c, 0, 55, 0
3, 9360, Note_on_c, 0, 52, 0
3, 9360, Note_on_c, 0, 49, 33
3, 9374, Control_c, 0, 64, 0
3, 9473, Control_c, 0, 64, 127
3, 9840, Note_on_c, 0, 55, 40
3, 10080, Note_on_c, 0, 55, 0
3, 10080, Note_on_c, 0, 49, 0
3, 10080, Note_on_c, 0, 50, 39
3, 10080, Note_on_c, 0, 55, 45
3, 10093, Control_c, 0, 64, 0
3, 10207, Control_c, 0, 64, 127
3, 10560, Note_on_c, 0, 55, 0
3, 10560, Control_c, 0, 64, 0
3, 10560, Note_on_c, 0, 54, 40
3, 10680, Note_on_c, 0, 54, 0
3, 10680, Note_on_c, 0, 50, 33
3, 10710, Note_on_c, 0, 57, 37
3, 10740, Control_c, 0, 64, 127
3, 10800, Note_on_c, 0, 50, 0
3, 11400, Note_on_c, 0, 52, 31
3, 11430, Note_on_c, 0, 55, 36
3, 11520, Note_on_c, 0, 57, 0
3, 11520, Note_on_c, 0, 50, 0
3, 11524, Control_c, 0, 64, 0
3, 11587, Control_c, 0, 64, 127
3, 12120, Note_on_c, 0, 52, 0
3, 12120, Note_on_c, 0, 55, 0
3, 12120, Note_on_c, 0, 50, 36
3, 12127, Control_c, 0, 64, 0
3, 12150, Note_on_c, 0, 57, 44
3, 12229, Control_c, 0, 64, 127
3, 12840, Note_on_c, 0, 55, 33
3, 12870, Note_on_c, 0, 59, 36
3, 12960, Note_on_c, 0, 57, 0
3, 12960, Note_on_c, 0, 50, 0
3, 12960, Control_c, 0, 64, 0
3, 13115, Control_c, 0, 64, 127
3, 13680, Note_on_c, 0, 55, 0
3, 13680, Note_on_c, 0, 59, 0
3, 13680, Note_on_c, 0, 57, 41
3, 13680, Note_on_c, 0, 60, 47
3, 13688, Control_c, 0, 64, 0
3, 13991, Control_c, 0, 64, 127
3, 14400, Note_on_c, 0, 60, 0
3, 14400, Note_on_c, 0, 57, 0
3, 14400, Note_on_c, 0, 62, 49
3, 14400, Note_on_c, 0, 59, 44
3, 14416, Control_c, 0, 64, 0
3, 14626, Control_c, 0, 64, 127
3, 15120, Note_on_c, 0, 59, 0
3, 15120, Note_on_c, 0, 62, 0
3, 15120, Control_c, 0, 64, 0
3, 15120, Note_on_c, 0, 61, 40
3, 15120, Note_on_c, 0, 64, 51
3, 15275, Control_c, 0, 64, 127
3, 15840, Note_on_c, 0, 64, 0
3, 15840, Note_on_c, 0, 61, 0
3, 15840, Note_on_c, 0, 62, 44
3, 15840, Note_on_c, 0, 66, 49
3, 15848, Control_c, 0, 64, 0
3, 16080, Control_c, 0, 64, 127
3, 16560, Note_on_c, 0, 66, 0
3, 16560, Note_on_c, 0, 62, 0
3, 16560, Note_on_c, 0, 64, 41
3, 16560, Note_on_c, 0, 67, 47
3, 16573, Control_c, 0, 64, 0
3, 16856, Control_c, 0, 64, 127
3, 17280, Note_on_c, 0, 67, 0
3, 17280, Note_on_c, 0, 64, 0
3, 17280, Control_c, 0, 64, 0
3, 17280, Note_on_c, 0, 69, 47
3, 17280, Note_on_c, 0, 66, 41
3, 17449, Control_c, 0, 64, 127
3, 18000, Note_on_c, 0, 66, 0
3, 18000, Note_on_c, 0, 69, 0
3, 18000, Note_on_c, 0, 66, 34
3, 18000, Note_on_c, 0, 69, 39
3, 18010, Control_c, 0, 64, 0
3, 18240, Control_c, 0, 64, 127
3, 18720, Note_on_c, 0, 69, 0
3, 18720, Note_on_c, 0, 66, 0
3, 18720, Note_on_c, 0, 66, 26
3, 18720, Note_on_c, 0, 74, 44
3, 18960, Note_on_c, 0, 74, 0
3, 18960, Note_on_c, 0, 69, 41
3, 19200, Note_on_c, 0, 74, 41
3, 19440, Note_on_c, 0, 74, 0
3, 19440, Note_on_c, 0, 74, 48
3, 21360, Note_on_c, 0, 74, 0
3, 21360, Note_on_c, 0, 69, 0
3, 21360, Note_on_c, 0, 66, 0
3, 21360, Control_c, 0, 64, 0
3, 21600, Note_on_c, 0, 65, 44
3, 21600, Note_on_c, 0, 70, 44
3, 21611, Control_c, 0, 64, 127
3, 22335, Control_c, 0, 64, 0
3, 22457, Control_c, 0, 64, 127
3, 23055, Control_c, 0, 64, 0
3, 23177, Control_c, 0, 64, 127
3, 23760, Note_on_c, 0, 70, 0
3, 23760, Note_on_c, 0, 65, 0
3, 23760, Control_c, 0, 64, 0
3, 24000, Note_on_c, 0, 74, 55
3, 24120, Note_on_c, 0, 74, 0
3, 24240, Note_on_c, 0, 72, 51
3, 24360, Note_on_c, 0, 72, 0
3, 24480, Note_on_c, 0, 70, 55
3, 24600, Note_on_c, 0, 70, 0
3, 24720, Note_on_c, 0, 67, 51
3, 24840, Note_on_c, 0, 67, 0
3, 24960, Note_on_c, 0, 65, 50
3, 25080, Note_on_c, 0, 65, 0
3, 25200, Note_on_c, 0, 62, 51
3, 25320, Note_on_c, 0, 62, 0
3, 25440, Note_on_c, 0, 58, 46
3, 25560, Note_on_c, 0, 58, 0
3, 25680, Note_on_c, 0, 55, 45
3, 25800, Note_on_c, 0, 55, 0
3, 25920, Note_on_c, 0, 58, 44
3, 25920, Note_on_c, 0, 53, 44
3, 25931, Control_c, 0, 64, 127
3, 26650, Control_c, 0, 64, 0
3, 26811, Control_c, 0, 64, 127
3, 27375, Control_c, 0, 64, 0
3, 27611, Control_c, 0, 64, 127
3, 28080, Note_on_c, 0, 53, 0
3, 28080, Note_on_c, 0, 58, 0
3, 28080, Control_c, 0, 64, 0
3, 28320, Note_on_c, 0, 62, 55
3, 28440, Note_on_c, 0, 62, 0
3, 28560, Note_on_c, 0, 60, 51
3, 28680, Note_on_c, 0, 60, 0
3, 28800, Note_on_c, 0, 58, 55
3, 28920, Note_on_c, 0, 58, 0
3, 29040, Note_on_c, 0, 55, 51
3, 29160, Note_on_c, 0, 55, 0
3, 29280, Note_on_c, 0, 53, 50
3, 29400, Note_on_c, 0, 53, 0
3, 29520, Note_on_c, 0, 50, 51
3, 29640, Note_on_c, 0, 50, 0
3, 29760, Note_on_c, 0, 46, 46
3, 29880, Note_on_c, 0, 46, 0
3, 30000, Note_on_c, 0, 43, 45
3, 30120, Note_on_c, 0, 43, 0
3, 30240, Note_on_c, 0, 42, 44
3, 30240, Note_on_c, 0, 50, 44
3, 30304, Control_c, 0, 64, 127
3, 30960, Note_on_c, 0, 42, 0
3, 30960, Note_on_c, 0, 40, 44
3, 30970, Control_c, 0, 64, 0
3, 31186, Control_c, 0, 64, 127
3, 31680, Note_on_c, 0, 40, 0
3, 31680, Note_on_c, 0, 50, 0
3, 31680, Note_on_c, 0, 42, 44
3, 31687, Note_on_c, 0, 50, 44
3, 31690, Control_c, 0, 64, 0
3, 31906, Control_c, 0, 64, 127
3, 32400, Note_on_c, 0, 42, 0
3, 32400, Note_on_c, 0, 43, 44
3, 32412, Control_c, 0, 64, 0
3, 32584, Control_c, 0, 64, 127
3, 33120, Note_on_c, 0, 43, 0
3, 33120, Note_on_c, 0, 45, 41
3, 33120, Note_on_c, 0, 48, 47
3, 33125, Control_c, 0, 64, 0
3, 33127, Note_on_c, 0, 50, 0
3, 33431, Control_c, 0, 64, 127
3, 33840, Note_on_c, 0, 48, 0
3, 33840, Note_on_c, 0, 45, 0
3, 33840, Note_on_c, 0, 47, 44
3, 33840, Note_on_c, 0, 50, 49
3, 33850, Control_c, 0, 64, 0
3, 34066, Control_c, 0, 64, 127
3, 34560, Note_on_c, 0, 50, 0
3, 34560, Note_on_c, 0, 47, 0
3, 34560, Control_c, 0, 64, 0
3, 34560, Note_on_c, 0, 52, 51
3, 34560, Note_on_c, 0, 49, 46
3, 34708, Control_c, 0, 64, 127
3, 35280, Note_on_c, 0, 49, 0
3, 35280, Note_on_c, 0, 52, 0
3, 35280, Note_on_c, 0, 55, 51
3, 35280, Note_on_c, 0, 50, 51
3, 35291, Control_c, 0, 64, 0
3, 35421, Control_c, 0, 64, 127
3, 35520, Note_on_c, 0, 55, 0
3, 35520, Note_on_c, 0, 54, 50
3, 35760, Note_on_c, 0, 54, 0
3, 35760, Note_on_c, 0, 52, 49
3, 36000, Note_on_c, 0, 52, 0
3, 36000, Note_on_c, 0, 54, 48
3, 36007, Control_c, 0, 64, 0
3, 36103, Control_c, 0, 64, 127
3, 36240, Note_on_c, 0, 54, 0
3, 36240, Note_on_c, 0, 50, 0
3, 36726, Control_c, 0, 64, 0
3, 36904, Control_c, 0, 64, 127
3, 37440, Note_on_c, 0, 51, 41
3, 37440, Note_on_c, 0, 57, 47
3, 37440, Note_on_c, 0, 54, 41
3, 37450, Control_c, 0, 64, 0
3, 37666, Control_c, 0, 64, 127
3, 38160, Note_on_c, 0, 54, 0
3, 38160, Note_on_c, 0, 57, 0
3, 38160, Note_on_c, 0, 51, 0
3, 38160, Note_on_c, 0, 52, 37
3, 38160, Note_on_c, 0, 55, 41
3, 38173, Control_c, 0, 64, 0
3, 38400, Note_on_c, 0, 55, 0
3, 38400, Note_on_c, 0, 52, 0
3, 39007, Control_c, 0, 64, 127
3, 39600, Note_on_c, 0, 49, 38
3, 39600, Note_on_c, 0, 55, 42
3, 39600, Note_on_c, 0, 52, 38
3, 39615, Control_c, 0, 64, 0
3, 39798, Control_c, 0, 64, 127
3, 40320, Note_on_c, 0, 52, 0
3, 40320, Note_on_c, 0, 55, 0
3, 40320, Note_on_c, 0, 49, 0
3, 40320, Note_on_c, 0, 50, 33
3, 40320, Note_on_c, 0, 54, 37
3, 40334, Control_c, 0, 64, 0
3, 40560, Note_on_c, 0, 54, 0
3, 40560, Note_on_c, 0, 50, 0
3, 41082, Control_c, 0, 64, 127
3, 41760, Note_on_c, 0, 43, 36
3, 41760, Note_on_c, 0, 51, 40
3, 41774, Control_c, 0, 64, 0
3, 41915, Control_c, 0, 64, 127
3, 42480, Note_on_c, 0, 51, 0
3, 42480, Note_on_c, 0, 50, 37
3, 42490, Control_c, 0, 64, 0
3, 42628, Control_c, 0, 64, 127
3, 43080, Note_on_c, 0, 50, 0
3, 43080, Control_c, 0, 64, 0
3, 43200, Note_on_c, 0, 43, 0
3, 43214, Control_c, 0, 64, 127
3, 43320, Note_on_c, 0, 52, 49
3, 43440, Note_on_c, 0, 61, 55
3, 43680, Note_on_c, 0, 61, 0
3, 43680, Note_on_c, 0, 52, 0
3, 43687, Control_c, 0, 64, 0
3, 43800, Note_on_c, 0, 54, 49
3, 43821, Control_c, 0, 64, 127
3, 43920, Note_on_c, 0, 61, 56
3, 44160, Note_on_c, 0, 61, 0
3, 44160, Note_on_c, 0, 54, 0
3, 44160, Control_c, 0, 64, 0
3, 44160, Note_on_c, 0, 47, 59
3, 44251, Control_c, 0, 64, 127
3, 44280, Note_on_c, 0, 54, 47
3, 44400, Note_on_c, 0, 54, 0
3, 44400, Note_on_c, 0, 47, 0
3, 44400, Note_on_c, 0, 56, 49
3, 44520, Note_on_c, 0, 56, 0
3, 44520, Note_on_c, 0, 58, 52
3, 44640, Note_on_c, 0, 58, 0
3, 44640, Note_on_c, 0, 59, 53
3, 44651, Control_c, 0, 64, 0
3, 44720, Control_c, 0, 64, 127
3, 44760, Note_on_c, 0, 59, 0
3, 44760, Note_on_c, 0, 61, 51
3, 44880, Note_on_c, 0, 61, 0
3, 44880, Note_on_c, 0, 62, 55
3, 45000, Note_on_c, 0, 62, 0
3, 45000, Note_on_c, 0, 59, 50
3, 45120, Note_on_c, 0, 59, 0
3, 45120, Control_c, 0, 64, 0
3, 45226, Control_c, 0, 64, 127
3, 45240, Note_on_c, 0, 52, 49
3, 45360, Note_on_c, 0, 61, 55
3, 45600, Note_on_c, 0, 61, 0
3, 45600, Note_on_c, 0, 52, 0
3, 45608, Control_c, 0, 64, 0
3, 45656, Control_c, 0, 64, 127
3, 45720, Note_on_c, 0, 54, 49
3, 45840, Note_on_c, 0, 61, 56
3, 46080, Note_on_c, 0, 61, 0
3, 46080, Note_on_c, 0, 54, 0
3, 46080, Note_on_c, 0, 60, 59
3, 46086, Control_c, 0, 64, 0
3, 46166, Control_c, 0, 64, 127
3, 46200, Note_on_c, 0, 66, 47
3, 46320, Note_on_c, 0, 66, 0
3, 46320, Note_on_c, 0, 60, 0
3, 46320, Note_on_c, 0, 67, 49
3, 46440, Note_on_c, 0, 67, 0
3, 46440, Note_on_c, 0, 69, 51
3, 46560, Note_on_c, 0, 69, 0
3, 46560, Note_on_c, 0, 59, 53
3, 46570, Control_c, 0, 64, 0
3, 46640, Control_c, 0, 64, 127
3, 46800, Note_on_c, 0, 59, 0
3, 47040, Control_c, 0, 64, 0
3, 47153, Control_c, 0, 64, 127
3, 47160, Note_on_c, 0, 52, 49
3, 47280, Note_on_c, 0, 61, 55
3, 47520, Note_on_c, 0, 61, 0
3, 47520, Note_on_c, 0, 52, 0
3, 47530, Control_c, 0, 64, 0
3, 47626, Control_c, 0, 64, 127
3, 47640, Note_on_c, 0, 54, 49
3, 47760, Note_on_c, 0, 61, 56
3, 48000, Note_on_c, 0, 61, 0
3, 48000, Note_on_c, 0, 54, 0
3, 48000, Control_c, 0, 64, 0
3, 48000, Note_on_c, 0, 47, 59
3, 48086, Control_c, 0, 64, 127
3, 48120, Note_on_c, 0, 54, 47
3, 48240, Note_on_c, 0, 54, 0
3, 48240, Note_on_c, 0, 47, 0
3, 48240, Note_on_c, 0, 56, 49
3, 48360, Note_on_c, 0, 56, 0
3, 48360, Note_on_c, 0, 58, 52
3, 48480, Note_on_c, 0, 58, 0
3, 48480, Note_on_c, 0, 59, 53
3, 48485, Control_c, 0, 64, 0
3, 48577, Control_c, 0, 64, 127
3, 48600, Note_on_c, 0, 59, 0
3, 48600, Note_on_c, 0, 61, 50
3, 48720, Note_on_c, 0, 61, 0
3, 48720, Note_on_c, 0, 62, 53
3, 48840, Note_on_c, 0, 62, 0
3, 48840, Note_on_c, 0, 59, 51
3, 48960, Note_on_c, 0, 59, 0
3, 48960, Control_c, 0, 64, 0
3, 49030, Control_c, 0, 64, 127
3, 49080, Note_on_c, 0, 52, 49
3, 49200, Note_on_c, 0, 61, 55
3, 49440, Note_on_c, 0, 61, 0
3, 49440, Note_on_c, 0, 52, 0
3, 49451, Control_c, 0, 64, 0
3, 49539, Control_c, 0, 64, 127
3, 49560, Note_on_c, 0, 54, 49
3, 49680, Note_on_c, 0, 61, 56
3, 49920, Note_on_c, 0, 61, 0
3, 49920, Note_on_c, 0, 54, 0
3, 49920, Control_c, 0, 64, 0
3, 49920, Note_on_c, 0, 60, 59
3, 49994, Control_c, 0, 64, 127
3, 50040, Note_on_c, 0, 66, 47
3, 50160, Note_on_c, 0, 66, 0
3, 50160, Note_on_c, 0, 60, 0
3, 50160, Note_on_c, 0, 67, 49
3, 50280, Note_on_c, 0, 67, 0
3, 50280, Note_on_c, 0, 69, 52
3, 50400, Note_on_c, 0, 69, 0
3, 50400, Note_on_c, 0, 59, 53
3, 50411, Control_c, 0, 64, 0
3, 50480, Control_c, 0, 64, 127
3, 50640, Note_on_c, 0, 59, 0
3, 50880, Control_c, 0, 64, 0
3, 51000, Note_on_c, 0, 52, 52
3, 51021, Control_c, 0, 64, 127
3, 51120, Note_on_c, 0, 52, 0
3, 51120, Note_on_c, 0, 59, 49
3, 51240, Note_on_c, 0, 59, 0
3, 51240, Note_on_c, 0, 64, 42
3, 51360, Note_on_c, 0, 64, 0
3, 51373, Control_c, 0, 64, 0
3, 51445, Control_c, 0, 64, 127
3, 51480, Note_on_c, 0, 50, 53
3, 51600, Note_on_c, 0, 50, 0
3, 51600, Note_on_c, 0, 59, 50
3, 51720, Note_on_c, 0, 59, 0
3, 51720, Note_on_c, 0, 62, 44
3, 51840, Note_on_c, 0, 62, 0
3, 51848, Control_c, 0, 64, 0
3, 51892, Control_c, 0, 64, 127
3, 51960, Note_on_c, 0, 49, 49
3, 52080, Note_on_c, 0, 49, 0
3, 52080, Note_on_c, 0, 61, 52
3, 52200, Note_on_c, 0, 61, 0
3, 52200, Note_on_c, 0, 65, 48
3, 52320, Note_on_c, 0, 65, 0
3, 52335, Control_c, 0, 64, 0
3, 52411, Control_c, 0, 64, 127
3, 52440, Note_on_c, 0, 54, 41
3, 52560, Note_on_c, 0, 54, 0
3, 52560, Note_on_c, 0, 61, 48
3, 52680, Note_on_c, 0, 61, 0
3, 52680, Note_on_c, 0, 66, 40
3, 52800, Note_on_c, 0, 66, 0
3, 52800, Control_c, 0, 64, 0
3, 52874, Control_c, 0, 64, 127
3, 52920, Note_on_c, 0, 49, 52
3, 53040, Note_on_c, 0, 49, 0
3, 53040, Note_on_c, 0, 57, 49
3, 53160, Note_on_c, 0, 57, 0
3, 53160, Note_on_c, 0, 61, 44
3, 53280, Note_on_c, 0, 61, 0
3, 53292, Control_c, 0, 64, 0
3, 53377, Control_c, 0, 64, 127
3, 53400, Note_on_c, 0, 48, 53
3, 53520, Note_on_c, 0, 48, 0
3, 53520, Note_on_c, 0, 54, 50
3, 53640, Note_on_c, 0, 54, 0
3, 53640, Note_on_c, 0, 60, 45
3, 53760, Note_on_c, 0, 60, 0
3, 53768, Control_c, 0, 64, 0
3, 53873, Control_c, 0, 64, 127
3, 53880, Note_on_c, 0, 47, 49
3, 54000, Note_on_c, 0, 47, 0
3, 54000, Note_on_c, 0, 54, 52
3, 54120, Note_on_c, 0, 54, 0
3, 54120, Note_on_c, 0, 59, 49
3, 54240, Note_on_c, 0, 59, 0
3, 54247, Control_c, 0, 64, 0
3, 54332, Control_c, 0, 64, 127
3, 54360, Note_on_c, 0, 52, 46
3, 54480, Note_on_c, 0, 52, 0
3, 54480, Note_on_c, 0, 59, 51
3, 54600, Note_on_c, 0, 59, 0
3, 54600, Note_on_c, 0, 64, 47
3, 54720, Note_on_c, 0, 64, 0
3, 54720, Control_c, 0, 64, 0
3, 54840, Control_c, 0, 64, 127
3, 54840, Note_on_c, 0, 50, 49
3, 54960, Note_on_c, 0, 50, 0
3, 54960, Note_on_c, 0, 55, 48
3, 55080, Note_on_c, 0, 55, 0
3, 55080, Note_on_c, 0, 59, 42
3, 55200, Note_on_c, 0, 59, 0
3, 55214, Control_c, 0, 64, 0
3, 55291, Control_c, 0, 64, 127
3, 55320, Note_on_c, 0, 46, 49
3, 55440, Note_on_c, 0, 46, 0
3, 55440, Note_on_c, 0, 52, 47
3, 55560, Note_on_c, 0, 52, 0
3, 55560, Note_on_c, 0, 58, 41
3, 55680, Note_on_c, 0, 58, 0
3, 55686, Control_c, 0, 64, 0
3, 55800, Note_on_c, 0, 45, 44
3, 55814, Control_c, 0, 64, 127
3, 55920, Note_on_c, 0, 45, 0
3, 55920, Note_on_c, 0, 52, 48
3, 56040, Note_on_c, 0, 52, 0
3, 56040, Note_on_c, 0, 57, 42
3, 56160, Note_on_c, 0, 57, 0
3, 56171, Control_c, 0, 64, 0
3, 56252, Control_c, 0, 64, 127
3, 56280, Note_on_c, 0, 62, 49
3, 56520, Note_on_c, 0, 62, 0
3, 56520, Note_on_c, 0, 61, 46
3, 56640, Note_on_c, 0, 61, 0
3, 56640, Control_c, 0, 64, 0
3, 56739, Control_c, 0, 64, 127
3, 56760, Note_on_c, 0, 45, 41
3, 56880, Note_on_c, 0, 58, 46
3, 57120, Note_on_c, 0, 58, 0
3, 57120, Note_on_c, 0, 45, 0
3, 57135, Control_c, 0, 64, 0
3, 57226, Control_c, 0, 64, 127
3, 57240, Note_on_c, 0, 45, 41
3, 57360, Note_on_c, 0, 57, 47
3, 57600, Note_on_c, 0, 57, 0
3, 57600, Note_on_c, 0, 45, 0
3, 57608, Control_c, 0, 64, 0
3, 57699, Control_c, 0, 64, 127
3, 57720, Note_on_c, 0, 45, 35
3, 57840, Note_on_c, 0, 45, 0
3, 57840, Note_on_c, 0, 50, 41
3, 57960, Note_on_c, 0, 50, 0
3, 57960, Note_on_c, 0, 54, 39
3, 58080, Note_on_c, 0, 54, 0
3, 58080, Note_on_c, 0, 57, 40
3, 58091, Control_c, 0, 64, 0
3, 58172, Control_c, 0, 64, 127
3, 58200, Note_on_c, 0, 57, 0
3, 58200, Note_on_c, 0, 62, 40
3, 58320, Note_on_c, 0, 62, 0
3, 58320, Note_on_c, 0, 66, 42
3, 58440, Note_on_c, 0, 66, 0
3, 58440, Note_on_c, 0, 69, 39
3, 58555, Note_on_c, 0, 69, 0
3, 58560, Control_c, 0, 64, 0
3, 58640, Control_c, 0, 64, 127
3, 58680, Note_on_c, 0, 45, 41
3, 58800, Note_on_c, 0, 60, 47
3, 59040, Note_on_c, 0, 60, 0
3, 59040, Note_on_c, 0, 45, 0
3, 59050, Control_c, 0, 64, 0
3, 59154, Control_c, 0, 64, 127
3, 59160, Note_on_c, 0, 45, 40
3, 59280, Note_on_c, 0, 59, 45
3, 59520, Note_on_c, 0, 59, 0
3, 59520, Note_on_c, 0, 45, 0
3, 59527, Control_c, 0, 64, 0
3, 59606, Control_c, 0, 64, 127
3, 59640, Note_on_c, 0, 45, 39
3, 59760, Note_on_c, 0, 45, 0
3, 59760, Note_on_c, 0, 52, 42
3, 59880, Note_on_c, 0, 52, 0
3, 59880, Note_on_c, 0, 55, 38
3, 60000, Note_on_c, 0, 55, 0
3, 60000, Note_on_c, 0, 58, 39
3, 60011, Control_c, 0, 64, 0
3, 60091, Control_c, 0, 64, 127
3, 60120, Note_on_c, 0, 58, 0
3, 60120, Note_on_c, 0, 64, 41
3, 60240, Note_on_c, 0, 64, 0
3, 60240, Note_on_c, 0, 67, 44
3, 60360, Note_on_c, 0, 67, 0
3, 60360, Note_on_c, 0, 57, 39
3, 60480, Note_on_c, 0, 57, 0
3, 60480, Control_c, 0, 64, 0
3, 60572, Control_c, 0, 64, 127
3, 60600, Note_on_c, 0, 45, 41
3, 60720, Note_on_c, 0, 58, 46
3, 60960, Note_on_c, 0, 58, 0
3, 60960, Note_on_c, 0, 45, 0
3, 60970, Control_c, 0, 64, 0
3, 61080, Note_on_c, 0, 45, 41
3, 61108, Control_c, 0, 64, 127
3, 61200, Note_on_c, 0, 57, 47
3, 61440, Note_on_c, 0, 57, 0
3, 61440, Note_on_c, 0, 45, 0
3, 61454, Control_c, 0, 64, 0
3, 61525, Control_c, 0, 64, 127
3, 61560, Note_on_c, 0, 45, 35
3, 61680, Note_on_c, 0, 45, 0
3, 61680, Note_on_c, 0, 50, 41
3, 61800, Note_on_c, 0, 50, 0
3, 61800, Note_on_c, 0, 54, 39
3, 61920, Note_on_c, 0, 54, 0
3, 61920, Note_on_c, 0, 57, 40
3, 61927, Control_c, 0, 64, 0
3, 62019, Control_c, 0, 64, 127
3, 62040, Note_on_c, 0, 57, 0
3, 62040, Note_on_c, 0, 62, 39
3, 62160, Note_on_c, 0, 62, 0
3, 62160, Note_on_c, 0, 66, 42
3, 62280, Note_on_c, 0, 66, 0
3, 62280, Note_on_c, 0, 69, 39
3, 62395, Note_on_c, 0, 69, 0
3, 62400, Control_c, 0, 64, 0
3, 62491, Control_c, 0, 64, 127
3, 62520, Note_on_c, 0, 45, 41
3, 62640, Note_on_c, 0, 60, 47
3, 62880, Note_on_c, 0, 60, 0
3, 62880, Note_on_c, 0, 45, 0
3, 62890, Control_c, 0, 64, 0
3, 62989, Control_c, 0, 64, 127
3, 63000, Note_on_c, 0, 45, 40
3, 63120, Note_on_c, 0, 59, 45
3, 63360, Note_on_c, 0, 59, 0
3, 63360, Note_on_c, 0, 45, 0
3, 63370, Control_c, 0, 64, 0
3, 63457, Control_c, 0, 64, 127
3, 63480, Note_on_c, 0, 45, 39
3, 63600, Note_on_c, 0, 45, 0
3, 63600, Note_on_c, 0, 52, 42
3, 63720, Note_on_c, 0, 52, 0
3, 63720, Note_on_c, 0, 55, 38
3, 63840, Note_on_c, 0, 55, 0
3, 63840, Note_on_c, 0, 58, 39
3, 63846, Control_c, 0, 64, 0
3, 63920, Control_c, 0, 64, 127
3, 63960, Note_on_c, 0, 58, 0
3, 63960, Note_on_c, 0, 64, 41
3, 64080, Note_on_c, 0, 64, 0
3, 64080, Note_on_c, 0, 67, 44
3, 64200, Note_on_c, 0, 67, 0
3, 64200, Note_on_c, 0, 70, 39
3, 64320, Note_on_c, 0, 70, 0
3, 64320, Control_c, 0, 64, 0
3, 64440, Note_on_c, 0, 45, 45
3, 64468, Control_c, 0, 64, 127
3, 64560, Note_on_c, 0, 45, 0
3, 64560, Note_on_c, 0, 54, 48
3, 64680, Note_on_c, 0, 54, 0
3, 64680, Note_on_c, 0, 57, 45
3, 64800, Note_on_c, 0, 57, 0
3, 64814, Control_c, 0, 64, 0
3, 64920, Control_c, 0, 64, 127
3, 64920, Note_on_c, 0, 45, 45
3, 65040, Note_on_c, 0, 45, 0
3, 65040, Note_on_c, 0, 55, 48
3, 65160, Note_on_c, 0, 55, 0
3, 65160, Note_on_c, 0, 59, 45
3, 65280, Note_on_c, 0, 59, 0
3, 65280, Control_c, 0, 64, 0
3, 65383, Control_c, 0, 64, 127
3, 65400, Note_on_c, 0, 45, 47
3, 65520, Note_on_c, 0, 45, 0
3, 65520, Note_on_c, 0, 56, 50
3, 65640, Note_on_c, 0, 56, 0
3, 65640, Note_on_c, 0, 59, 50
3, 65760, Note_on_c, 0, 59, 0
3, 65766, Control_c, 0, 64, 0
3, 65823, Control_c, 0, 64, 127
3, 65880, Note_on_c, 0, 45, 47
3, 66000, Note_on_c, 0, 45, 0
3, 66000, Note_on_c, 0, 57, 50
3, 66120, Note_on_c, 0, 57, 0
3, 66120, Note_on_c, 0, 61, 47
3, 66240, Note_on_c, 0, 61, 0
3, 66245, Control_c, 0, 64, 0
3, 66360, Note_on_c, 0, 44, 49
3, 66383, Control_c, 0, 64, 127
3, 66480, Note_on_c, 0, 44, 0
3, 66480, Note_on_c, 0, 56, 53
3, 66600, Note_on_c, 0, 56, 0
3, 66600, Note_on_c, 0, 61, 49
3, 66720, Note_on_c, 0, 61, 0
3, 66731, Control_c, 0, 64, 0
3, 66834, Control_c, 0, 64, 127
3, 66840, Note_on_c, 0, 44, 53
3, 66960, Note_on_c, 0, 44, 0
3, 66960, Note_on_c, 0, 56, 57
3, 67080, Note_on_c, 0, 56, 0
3, 67080, Note_on_c, 0, 61, 53
3, 67200, Note_on_c, 0, 61, 0
3, 67200, Control_c, 0, 64, 0
3, 67320, Note_on_c, 0, 42, 60
3, 67355, Control_c, 0, 64, 127
3, 67440, Note_on_c, 0, 42, 0
3, 67440, Note_on_c, 0, 49, 62
3, 67560, Note_on_c, 0, 49, 0
3, 67560, Note_on_c, 0, 54, 60
3, 67680, Note_on_c, 0, 54, 0
3, 67696, Control_c, 0, 64, 0
3, 67800, Note_on_c, 0, 49, 60
3, 67807, Control_c, 0, 64, 127
3, 67920, Note_on_c, 0, 49, 0
3, 67920, Note_on_c, 0, 54, 62
3, 68040, Note_on_c, 0, 54, 0
3, 68040, Note_on_c, 0, 61, 57
3, 68160, Note_on_c, 0, 61, 0
3, 68167, Control_c, 0, 64, 0
3, 68234, Control_c, 0, 64, 127
3, 68280, Note_on_c, 0, 42, 59
3, 68400, Note_on_c, 0, 42, 0
3, 68400, Note_on_c, 0, 49, 63
3, 68520, Note_on_c, 0, 49, 0
3, 68520, Note_on_c, 0, 56, 58
3, 68640, Note_on_c, 0, 56, 0
3, 68646, Control_c, 0, 64, 0
3, 68709, Control_c, 0, 64, 127
3, 68760, Note_on_c, 0, 49, 57
3, 68880, Note_on_c, 0, 49, 0
3, 68880, Note_on_c, 0, 56, 62
3, 69000, Note_on_c, 0, 56, 0
3, 69000, Note_on_c, 0, 61, 58
3, 69120, Note_on_c, 0, 61, 0
3, 69120, Control_c, 0, 64, 0
3, 69233, Control_c, 0, 64, 127
3, 69240, Note_on_c, 0, 42, 60
3, 69360, Note_on_c, 0, 42, 0
3, 69360, Note_on_c, 0, 49, 62
3, 69480, Note_on_c, 0, 49, 0
3, 69480, Note_on_c, 0, 54, 60
3, 69600, Note_on_c, 0, 54, 0
3, 69614, Control_c, 0, 64, 0
3, 69699, Control_c, 0, 64, 127
3, 69720, Note_on_c, 0, 49, 60
3, 69840, Note_on_c, 0, 49, 0
3, 69840, Note_on_c, 0, 54, 62
3, 69960, Note_on_c, 0, 54, 0
3, 69960, Note_on_c, 0, 61, 57
3, 70080, Note_on_c, 0, 61, 0
3, 70090, Control_c, 0, 64, 0
3, 70166, Control_c, 0, 64, 127
3, 70200, Note_on_c, 0, 42, 59
3, 70320, Note_on_c, 0, 42, 0
3, 70320, Note_on_c, 0, 49, 63
3, 70440, Note_on_c, 0, 49, 0
3, 70440, Note_on_c, 0, 56, 58
3, 70560, Note_on_c, 0, 56, 0
3, 70575, Control_c, 0, 64, 0
3, 70657, Control_c, 0, 64, 127
3, 70680, Note_on_c, 0, 49, 57
3, 70800, Note_on_c, 0, 49, 0
3, 70800, Note_on_c, 0, 56, 62
3, 70920, Note_on_c, 0, 56, 0
3, 70920, Note_on_c, 0, 61, 58
3, 71040, Note_on_c, 0, 61, 0
3, 71040, Control_c, 0, 64, 0
3, 71146, Control_c, 0, 64, 127
3, 71160, Note_on_c, 0, 42, 57
3, 71280, Note_on_c, 0, 42, 0
3, 71280, Note_on_c, 0, 49, 59
3, 71400, Note_on_c, 0, 49, 0
3, 71400, Note_on_c, 0, 54, 57
3, 71520, Note_on_c, 0, 54, 0
3, 71534, Control_c, 0, 64, 0
3, 71598, Control_c, 0, 64, 127
3, 71640, Note_on_c, 0, 49, 57
3, 71760, Note_on_c, 0, 49, 0
3, 71760, Note_on_c, 0, 54, 59
3, 71880, Note_on_c, 0, 54, 0
3, 71880, Note_on_c, 0, 61, 53
3, 71995, Note_on_c, 0, 61, 0
3, 72009, Control_c, 0, 64, 0
3, 72074, Control_c, 0, 64, 127
3, 72120, Note_on_c, 0, 42, 56
3, 72240, Note_on_c, 0, 42, 0
3, 72240, Note_on_c, 0, 49, 60
3, 72360, Note_on_c, 0, 49, 0
3, 72360, Note_on_c, 0, 53, 55
3, 72480, Note_on_c, 0, 53, 0
3, 72491, Control_c, 0, 64, 0
3, 72554, Control_c, 0, 64, 127
3, 72600, Note_on_c, 0, 49, 53
3, 72720, Note_on_c, 0, 49, 0
3, 72720, Note_on_c, 0, 53, 59
3, 72840, Note_on_c, 0, 53, 0
3, 72840, Note_on_c, 0, 59, 55
3, 72960, Note_on_c, 0, 59, 0
3, 72960, Control_c, 0, 64, 0
3, 73080, Control_c, 0, 64, 127
3, 73080, Note_on_c, 0, 42, 45
3, 73200, Note_on_c, 0, 42, 0
3, 73200, Note_on_c, 0, 49, 47
3, 73320, Note_on_c, 0, 49, 0
3, 73320, Note_on_c, 0, 54, 45
3, 73440, Note_on_c, 0, 54, 0
3, 73447, Control_c, 0, 64, 0
3, 73532, Control_c, 0, 64, 127
3, 73560, Note_on_c, 0, 49, 45
3, 73680, Note_on_c, 0, 49, 0
3, 73680, Note_on_c, 0, 54, 47
3, 73800, Note_on_c, 0, 54, 0
3, 73800, Note_on_c, 0, 61, 42
3, 73915, Note_on_c, 0, 61, 0
3, 73930, Control_c, 0, 64, 0
3, 74029, Control_c, 0, 64, 127
3, 74040, Note_on_c, 0, 42, 44
3, 74160, Note_on_c, 0, 42, 0
3, 74160, Note_on_c, 0, 49, 48
3, 74280, Note_on_c, 0, 49, 0
3, 74280, Note_on_c, 0, 53, 44
3, 74400, Note_on_c, 0, 53, 0
3, 74411, Control_c, 0, 64, 0
3, 74480, Control_c, 0, 64, 127
3, 74520, Note_on_c, 0, 49, 42
3, 74640, Note_on_c, 0, 49, 0
3, 74640, Note_on_c, 0, 53, 47
3, 74760, Note_on_c, 0, 53, 0
3, 74760, Note_on_c, 0, 59, 44
3, 74880, Note_on_c, 0, 59, 0
3, 74880, Control_c, 0, 64, 0
3, 74979, Control_c, 0, 64, 127
3, 75000, Note_on_c, 0, 42, 39
3, 75120, Note_on_c, 0, 42, 0
3, 75120, Note_on_c, 0, 49, 41
3, 75229, Note_on_c, 0, 54, 39
3, 75240, Note_on_c, 0, 49, 0
3, 75349, Note_on_c, 0, 54, 0
3, 75372, Control_c, 0, 64, 0
3, 75466, Control_c, 0, 64, 127
3, 75480, Note_on_c, 0, 49, 39
3, 75600, Note_on_c, 0, 49, 0
3, 75600, Note_on_c, 0, 54, 41
3, 75720, Note_on_c, 0, 54, 0
3, 75720, Note_on_c, 0, 61, 38
3, 75840, Note_on_c, 0, 61, 0
3, 75840, Control_c, 0, 64, 0
3, 75953, Control_c, 0, 64, 127
3, 75960, Note_on_c, 0, 42, 35
3, 76080, Note_on_c, 0, 42, 0
3, 76080, Note_on_c, 0, 49, 37
3, 76200, Note_on_c, 0, 49, 0
3, 76200, Note_on_c, 0, 54, 35
3, 76320, Note_on_c, 0, 54, 0
3, 76334, Control_c, 0, 64, 0
3, 76426, Control_c, 0, 64, 127
3, 76440, Note_on_c, 0, 49, 35
3, 76560, Note_on_c, 0, 49, 0
3, 76560, Note_on_c, 0, 54, 37
3, 76680, Note_on_c, 0, 54, 0
3, 76680, Note_on_c, 0, 61, 34
3, 76800, Note_on_c, 0, 61, 0
3, 76800, Control_c, 0, 64, 0
3, 76913, Control_c, 0, 64, 127
3, 76920, Note_on_c, 0, 52, 49
3, 77040, Note_on_c, 0, 61, 55
3, 77280, Note_on_c, 0, 61, 0
3, 77280, Note_on_c, 0, 52, 0
3, 77295, Control_c, 0, 64, 0
3, 77393, Control_c, 0, 64, 127
3, 77400, Note_on_c, 0, 54, 49
3, 77520, Note_on_c, 0, 61, 56
3, 77760, Note_on_c, 0, 61, 0
3, 77760, Note_on_c, 0, 54, 0
3, 77760, Note_on_c, 0, 47, 59
3, 77766, Control_c, 0, 64, 0
3, 77851, Control_c, 0, 64, 127
3, 77880, Note_on_c, 0, 54, 47
3, 78000, Note_on_c, 0, 54, 0
3, 78000, Note_on_c, 0, 47, 0
3, 78000, Note_on_c, 0, 56, 49
3, 78120, Note_on_c, 0, 56, 0
3, 78120, Note_on_c, 0, 58, 52
3, 78240, Note_on_c, 0, 58, 0
3, 78240, Note_on_c, 0, 59, 53
3, 78252, Control_c, 0, 64, 0
3, 78337, Control_c, 0, 64, 127
3, 78360, Note_on_c, 0, 59, 0
3, 78360, Note_on_c, 0, 61, 51
3, 78480, Note_on_c, 0, 61, 0
3, 78480, Note_on_c, 0, 62, 55
3, 78600, Note_on_c, 0, 62, 0
3, 78600, Note_on_c, 0, 59, 50
3, 78720, Note_on_c, 0, 59, 0
3, 78720, Control_c, 0, 64, 0
3, 78840, Control_c, 0, 64, 127
3, 78840, Note_on_c, 0, 52, 49
3, 78960, Note_on_c, 0, 61, 55
3, 79200, Note_on_c, 0, 61, 0
3, 79200, Note_on_c, 0, 52, 0
3, 79212, Control_c, 0, 64, 0
3, 79320, Control_c, 0, 64, 127
3, 79320, Note_on_c, 0, 54, 49
3, 79440, Note_on_c, 0, 61, 56
3, 79680, Note_on_c, 0, 61, 0
3, 79680, Note_on_c, 0, 54, 0
3, 79680, Note_on_c, 0, 60, 59
3, 79688, Control_c, 0, 64, 0
3, 79766, Control_c, 0, 64, 127
3, 79800, Note_on_c, 0, 66, 47
3, 79920, Note_on_c, 0, 66, 0
3, 79920, Note_on_c, 0, 60, 0
3, 79920, Note_on_c, 0, 67, 49
3, 80040, Note_on_c, 0, 67, 0
3, 80040, Note_on_c, 0, 69, 51
3, 80160, Note_on_c, 0, 69, 0
3, 80160, Note_on_c, 0, 59, 53
3, 80174, Control_c, 0, 64, 0
3, 80263, Control_c, 0, 64, 127
3, 80400, Note_on_c, 0, 59, 0
3, 80640, Control_c, 0, 64, 0
3, 80746, Control_c, 0, 64, 127
3, 80760, Note_on_c, 0, 64, 52
3, 80880, Note_on_c, 0, 67, 49
3, 81120, Note_on_c, 0, 67, 0
3, 81120, Note_on_c, 0, 64, 0
3, 81132, Control_c, 0, 64, 0
3, 81198, Control_c, 0, 64, 127
3, 81240, Note_on_c, 0, 62, 53
3, 81360, Note_on_c, 0, 66, 50
3, 81600, Note_on_c, 0, 66, 0
3, 81600, Note_on_c, 0, 62, 0
3, 81610, Control_c, 0, 64, 0
3, 81706, Control_c, 0, 64, 127
3, 81720, Note_on_c, 0, 60, 49
3, 81840, Note_on_c, 0, 62, 49
3, 82080, Note_on_c, 0, 62, 0
3, 82080, Note_on_c, 0, 60, 0
3, 82090, Control_c, 0, 64, 0
3, 82200, Control_c, 0, 64, 127
3, 82200, Note_on_c, 0, 59, 41
3, 82320, Note_on_c, 0, 62, 48
3, 82560, Note_on_c, 0, 62, 0
3, 82560, Note_on_c, 0, 59, 0
3, 82560, Control_c, 0, 64, 0
3, 82652, Control_c, 0, 64, 127
3, 82680, Note_on_c, 0, 60, 52
3, 82800, Note_on_c, 0, 66, 49
3, 83040, Note_on_c, 0, 66, 0
3, 83040, Note_on_c, 0, 60, 0
3, 83054, Control_c, 0, 64, 0
3, 83153, Control_c, 0, 64, 127
3, 83160, Note_on_c, 0, 59, 53
3, 83280, Note_on_c, 0, 62, 50
3, 83520, Note_on_c, 0, 62, 0
3, 83520, Note_on_c, 0, 59, 0
3, 83527, Control_c, 0, 64, 0
3, 83640, Note_on_c, 0, 54, 49
3, 83647, Control_c, 0, 64, 127
3, 83760, Note_on_c, 0, 57, 49
3, 84000, Note_on_c, 0, 57, 0
3, 84000, Note_on_c, 0, 54, 0
3, 84013, Control_c, 0, 64, 0
3, 84120, Control_c, 0, 64, 127
3, 84120, Note_on_c, 0, 53, 41
3, 84240, Note_on_c, 0, 55, 48
3, 84480, Note_on_c, 0, 55, 0
3, 84480, Note_on_c, 0, 53, 0
3, 84480, Control_c, 0, 64, 0
3, 84572, Control_c, 0, 64, 127
3, 84600, Note_on_c, 0, 52, 44
3, 84720, Note_on_c, 0, 55, 44
3, 84960, Note_on_c, 0, 55, 0
3, 84960, Note_on_c, 0, 52, 0
3, 84974, Control_c, 0, 64, 0
3, 85038, Control_c, 0, 64, 127
3, 85080, Note_on_c, 0, 51, 37
3, 85200, Note_on_c, 0, 55, 42
3, 85440, Note_on_c, 0, 55, 0
3, 85440, Note_on_c, 0, 51, 0
3, 85449, Control_c, 0, 64, 0
3, 85560, Note_on_c, 0, 50, 44
3, 85588, Control_c, 0, 64, 127
3, 85680, Note_on_c, 0, 55, 44
3, 85920, Note_on_c, 0, 55, 0
3, 85920, Note_on_c, 0, 50, 0
3, 85935, Control_c, 0, 64, 0
3, 86012, Control_c, 0, 64, 127
3, 86040, Note_on_c, 0, 50, 37
3, 86160, Note_on_c, 0, 54, 42
3, 86400, Note_on_c, 0, 54, 0
3, 86400, Note_on_c, 0, 50, 0
3, 86403, Control_c, 0, 64, 0
3, 86497, Control_c, 0, 64, 127
3, 86520, Note_on_c, 0, 55, 37
3, 86640, Note_on_c, 0, 57, 42
3, 86880, Note_on_c, 0, 57, 0
3, 86880, Note_on_c, 0, 55, 0
3, 86897, Control_c, 0, 64, 0
3, 87000, Note_on_c, 0, 54, 35
3, 87006, Control_c, 0, 64, 127
3, 87120, Note_on_c, 0, 54, 0
3, 87120, Note_on_c, 0, 57, 38
3, 87240, Note_on_c, 0, 57, 0
3, 87240, Note_on_c, 0, 62, 35
3, 87360, Note_on_c, 0, 62, 0
3, 87394, Control_c, 0, 64, 0
3, 87480, Note_on_c, 0, 43, 37
3, 87520, Control_c, 0, 64, 127
3, 87600, Note_on_c, 0, 45, 42
3, 87840, Note_on_c, 0, 45, 0
3, 87840, Note_on_c, 0, 43, 0
3, 87850, Control_c, 0, 64, 0
3, 87949, Control_c, 0, 64, 127
3, 87960, Note_on_c, 0, 42, 35
3, 88080, Note_on_c, 0, 42, 0
3, 88080, Note_on_c, 0, 45, 38
3, 88200, Note_on_c, 0, 45, 0
3, 88200, Note_on_c, 0, 50, 35
3, 88320, Note_on_c, 0, 50, 0
3, 88320, Note_on_c, 0, 53, 42
3, 88323, Control_c, 0, 64, 0
3, 88383, Control_c, 0, 64, 127
3, 88440, Note_on_c, 0, 53, 0
3, 88440, Note_on_c, 0, 54, 40
3, 88560, Note_on_c, 0, 54, 0
3, 88560, Note_on_c, 0, 56, 42
3, 88680, Note_on_c, 0, 56, 0
3, 88680, Note_on_c, 0, 57, 38
3, 88800, Note_on_c, 0, 57, 0
3, 88806, Control_c, 0, 64, 0
3, 88863, Control_c, 0, 64, 127
3, 89184, Control_c, 0, 64, 0
3, 89640, Note_on_c, 0, 50, 33
3, 89670, Note_on_c, 0, 57, 37
3, 89760, Control_c, 0, 64, 127
3, 90360, Note_on_c, 0, 52, 31
3, 90390, Note_on_c, 0, 55, 36
3, 90480, Note_on_c, 0, 57, 0
3, 90480, Note_on_c, 0, 50, 0
3, 90480, Control_c, 0, 64, 0
3, 90551, Control_c, 0, 64, 127
3, 91080, Note_on_c, 0, 52, 0
3, 91080, Note_on_c, 0, 55, 0
3, 91080, Note_on_c, 0, 54, 36
3, 91094, Control_c, 0, 64, 0
3, 91110, Note_on_c, 0, 57, 44
3, 91267, Control_c, 0, 64, 127
3, 91800, Note_on_c, 0, 55, 33
3, 91830, Note_on_c, 0, 59, 36
3, 91920, Note_on_c, 0, 57, 0
3, 91920, Note_on_c, 0, 54, 0
3, 91927, Control_c, 0, 64, 0
3, 92104, Control_c, 0, 64, 127
3, 92640, Note_on_c, 0, 55, 0
3, 92640, Note_on_c, 0, 59, 0
3, 92640, Note_on_c, 0, 60, 47
3, 92640, Note_on_c, 0, 57, 41
3, 92647, Control_c, 0, 64, 0
3, 92951, Control_c, 0, 64, 127
3, 93360, Note_on_c, 0, 57, 0
3, 93360, Note_on_c, 0, 60, 0
3, 93360, Note_on_c, 0, 62, 46
3, 93360, Note_on_c, 0, 59, 41
3, 93380, Control_c, 0, 64, 0
3, 93586, Control_c, 0, 64, 127
3, 94080, Note_on_c, 0, 59, 0
3, 94080, Note_on_c, 0, 62, 0
3, 94080, Control_c, 0, 64, 0
3, 94080, Note_on_c, 0, 64, 48
3, 94080, Note_on_c, 0, 61, 42
3, 94263, Control_c, 0, 64, 127
3, 94800, Note_on_c, 0, 61, 0
3, 94800, Note_on_c, 0, 64, 0
3, 94800, Note_on_c, 0, 62, 51
3, 94800, Note_on_c, 0, 67, 51
3, 94811, Control_c, 0, 64, 0
3, 94941, Control_c, 0, 64, 127
3, 95040, Note_on_c, 0, 67, 0
3, 95040, Note_on_c, 0, 66, 50
3, 95280, Note_on_c, 0, 66, 0
3, 95280, Note_on_c, 0, 64, 49
3, 95520, Note_on_c, 0, 64, 0
3, 95520, Note_on_c, 0, 62, 0
3, 95520, Note_on_c, 0, 50, 42
3, 95520, Note_on_c, 0, 57, 48
3, 95529, Control_c, 0, 64, 0
3, 95746, Control_c, 0, 64, 127
3, 96240, Note_on_c, 0, 57, 0
3, 96240, Note_on_c, 0, 50, 0
3, 96240, Note_on_c, 0, 51, 39
3, 96240, Note_on_c, 0, 57, 45
3, 96247, Control_c, 0, 64, 0
3, 96367, Control_c, 0, 64, 127
3, 96720, Note_on_c, 0, 57, 0
3, 96720, Note_on_c, 0, 51, 0
3, 96720, Note_on_c, 0, 52, 34
3, 96720, Note_on_c, 0, 55, 38
3, 96960, Note_on_c, 0, 55, 0
3, 96960, Note_on_c, 0, 52, 0
3, 96960, Note_on_c, 0, 49, 33
3, 96974, Control_c, 0, 64, 0
3, 97073, Control_c, 0, 64, 127
3, 97440, Note_on_c, 0, 55, 40
3, 97680, Note_on_c, 0, 55, 0
3, 97680, Note_on_c, 0, 49, 0
3, 97680, Note_on_c, 0, 50, 39
3, 97680, Note_on_c, 0, 55, 45
3, 97684, Control_c, 0, 64, 0
3, 97807, Control_c, 0, 64, 127
3, 98160, Note_on_c, 0, 55, 0
3, 98160, Note_on_c, 0, 54, 40
3, 98173, Control_c, 0, 64, 0
3, 98280, Note_on_c, 0, 54, 0
3, 98280, Note_on_c, 0, 50, 33
3, 98310, Note_on_c, 0, 57, 37
3, 98340, Control_c, 0, 64, 127
3, 98400, Note_on_c, 0, 50, 0
3, 99000, Note_on_c, 0, 52, 31
3, 99030, Note_on_c, 0, 55, 36
3, 99109, Control_c, 0, 64, 0
3, 99120, Note_on_c, 0, 57, 0
3, 99120, Note_on_c, 0, 50, 0
3, 99191, Control_c, 0, 64, 127
3, 99720, Note_on_c, 0, 52, 0
3, 99720, Note_on_c, 0, 55, 0
3, 99720, Note_on_c, 0, 54, 36
3, 99727, Control_c, 0, 64, 0
3, 99750, Note_on_c, 0, 57, 44
3, 99815, Control_c, 0, 64, 127
3, 100440, Note_on_c, 0, 55, 33
3, 100470, Note_on_c, 0, 59, 36
3, 100560, Note_on_c, 0, 57, 0
3, 100560, Note_on_c, 0, 54, 0
3, 100570, Control_c, 0, 64, 0
3, 100758, Control_c, 0, 64, 127
3, 101280, Note_on_c, 0, 55, 0
3, 101280, Note_on_c, 0, 59, 0
3, 101280, Note_on_c, 0, 60, 47
3, 101280, Note_on_c, 0, 57, 41
3, 101285, Control_c, 0, 64, 0
3, 101591, Control_c, 0, 64, 127
3, 102000, Note_on_c, 0, 57, 0
3, 102000, Note_on_c, 0, 60, 0
3, 102000, Note_on_c, 0, 62, 49
3, 102000, Note_on_c, 0, 59, 44
3, 102015, Control_c, 0, 64, 0
3, 102226, Control_c, 0, 64, 127
3, 102720, Note_on_c, 0, 59, 0
3, 102720, Note_on_c, 0, 62, 0
3, 102720, Control_c, 0, 64, 0
3, 102720, Note_on_c, 0, 64, 51
3, 102720, Note_on_c, 0, 61, 40
3, 102903, Control_c, 0, 64, 127
3, 103440, Note_on_c, 0, 61, 0
3, 103440, Note_on_c, 0, 64, 0
3, 103440, Note_on_c, 0, 62, 44
3, 103440, Note_on_c, 0, 66, 49
3, 103450, Control_c, 0, 64, 0
3, 103666, Control_c, 0, 64, 127
3, 104160, Note_on_c, 0, 66, 0
3, 104160, Note_on_c, 0, 62, 0
3, 104160, Control_c, 0, 64, 0
3, 104160, Note_on_c, 0, 64, 41
3, 104160, Note_on_c, 0, 67, 47
3, 104315, Control_c, 0, 64, 127
3, 104880, Note_on_c, 0, 67, 0
3, 104880, Note_on_c, 0, 64, 0
3, 104880, Note_on_c, 0, 66, 41
3, 104880, Note_on_c, 0, 69, 47
3, 104890, Control_c, 0, 64, 0
3, 105049, Control_c, 0, 64, 127
3, 105600, Note_on_c, 0, 69, 0
3, 105600, Note_on_c, 0, 66, 0
3, 105600, Note_on_c, 0, 66, 34
3, 105600, Note_on_c, 0, 69, 39
3, 105610, Control_c, 0, 64, 0
3, 105826, Control_c, 0, 64, 127
3, 106320, Note_on_c, 0, 69, 0
3, 106320, Note_on_c, 0, 66, 0
3, 106320, Note_on_c, 0, 66, 26
3, 106320, Note_on_c, 0, 74, 44
3, 106560, Note_on_c, 0, 74, 0
3, 106560, Note_on_c, 0, 69, 41
3, 106800, Note_on_c, 0, 74, 41
3, 107040, Note_on_c, 0, 74, 0
3, 107040, Note_on_c, 0, 74, 48
3, 108960, Note_on_c, 0, 74, 0
3, 108960, Note_on_c, 0, 69, 0
3, 108960, Note_on_c, 0, 66, 0
3, 108960, Control_c, 0, 64, 0
3, 109200, Note_on_c, 0, 70, 44
3, 109200, Note_on_c, 0, 65, 44
3, 109211, Control_c, 0, 64, 127
3, 109930, Control_c, 0, 64, 0
3, 110069, Control_c, 0, 64, 127
3, 110651, Control_c, 0, 64, 0
3, 110857, Control_c, 0, 64, 127
3, 111360, Note_on_c, 0, 65, 0
3, 111360, Note_on_c, 0, 70, 0
3, 111360, Control_c, 0, 64, 0
3, 111600, Note_on_c, 0, 74, 55
3, 111720, Note_on_c, 0, 74, 0
3, 111840, Note_on_c, 0, 72, 51
3, 111960, Note_on_c, 0, 72, 0
3, 112080, Note_on_c, 0, 70, 55
3, 112200, Note_on_c, 0, 70, 0
3, 112320, Note_on_c, 0, 67, 51
3, 112440, Note_on_c, 0, 67, 0
3, 112560, Note_on_c, 0, 65, 50
3, 112680, Note_on_c, 0, 65, 0
3, 112800, Note_on_c, 0, 62, 51
3, 112920, Note_on_c, 0, 62, 0
3, 113040, Note_on_c, 0, 58, 46
3, 113160, Note_on_c, 0, 58, 0
3, 113280, Note_on_c, 0, 55, 45
3, 113400, Note_on_c, 0, 55, 0
3, 113520, Note_on_c, 0, 58, 44
3, 113520, Note_on_c, 0, 53, 44
3, 113531, Control_c, 0, 64, 127
3, 114252, Control_c, 0, 64, 0
3, 114389, Control_c, 0, 64, 127
3, 114971, Control_c, 0, 64, 0
3, 115097, Control_c, 0, 64, 127
3, 115680, Note_on_c, 0, 53, 0
3, 115680, Note_on_c, 0, 58, 0
3, 115680, Control_c, 0, 64, 0
3, 115920, Note_on_c, 0, 62, 55
3, 116040, Note_on_c, 0, 62, 0
3, 116160, Note_on_c, 0, 60, 51
3, 116280, Note_on_c, 0, 60, 0
3, 116400, Note_on_c, 0, 58, 55
3, 116520, Note_on_c, 0, 58, 0
3, 116640, Note_on_c, 0, 55, 51
3, 116760, Note_on_c, 0, 55, 0
3, 116880, Note_on_c, 0, 53, 50
3, 117000, Note_on_c, 0, 53, 0
3, 117120, Note_on_c, 0, 50, 51
3, 117240, Note_on_c, 0, 50, 0
3, 117360, Note_on_c, 0, 46, 46
3, 117480, Note_on_c, 0, 46, 0
3, 117600, Note_on_c, 0, 43, 45
3, 117720, Note_on_c, 0, 43, 0
3, 117840, Note_on_c, 0, 42, 44
3, 117840, Note_on_c, 0, 50, 44
3, 117904, Control_c, 0, 64, 127
3, 118560, Note_on_c, 0, 42, 0
3, 118560, Note_on_c, 0, 40, 44
3, 118574, Control_c, 0, 64, 0
3, 118800, Control_c, 0, 64, 127
3, 119280, Note_on_c, 0, 40, 0
3, 119280, Note_on_c, 0, 50, 0
3, 119280, Control_c, 0, 64, 0
3, 119280, Note_on_c, 0, 42, 44
3, 119287, Note_on_c, 0, 50, 44
3, 119548, Control_c, 0, 64, 127
3, 120000, Note_on_c, 0, 42, 0
3, 120000, Note_on_c, 0, 43, 44
3, 120008, Control_c, 0, 64, 0
3, 120282, Control_c, 0, 64, 127
3, 120720, Note_on_c, 0, 43, 0
3, 120720, Note_on_c, 0, 48, 47
3, 120720, Note_on_c, 0, 45, 41
3, 120727, Note_on_c, 0, 50, 0
3, 120730, Control_c, 0, 64, 0
3, 121031, Control_c, 0, 64, 127
3, 121440, Note_on_c, 0, 45, 0
3, 121440, Note_on_c, 0, 48, 0
3, 121440, Note_on_c, 0, 50, 49
3, 121440, Note_on_c, 0, 47, 44
3, 121451, Control_c, 0, 64, 0
3, 121751, Control_c, 0, 64, 127
3, 122160, Note_on_c, 0, 47, 0
3, 122160, Note_on_c, 0, 50, 0
3, 122160, Control_c, 0, 64, 0
3, 122160, Note_on_c, 0, 52, 51
3, 122160, Note_on_c, 0, 49, 46
3, 122297, Control_c, 0, 64, 127
3, 122880, Note_on_c, 0, 49, 0
3, 122880, Note_on_c, 0, 52, 0
3, 122880, Note_on_c, 0, 50, 46
3, 122880, Note_on_c, 0, 55, 46
3, 122889, Control_c, 0, 64, 0
3, 123021, Control_c, 0, 64, 127
3, 123120, Note_on_c, 0, 55, 0
3, 123120, Note_on_c, 0, 54, 45
3, 123360, Note_on_c, 0, 54, 0
3, 123360, Note_on_c, 0, 52, 44
3, 123600, Note_on_c, 0, 52, 0
3, 123600, Note_on_c, 0, 54, 42
3, 123613, Control_c, 0, 64, 0
3, 123749, Control_c, 0, 64, 127
3, 123840, Note_on_c, 0, 54, 0
3, 123840, Note_on_c, 0, 50, 0
3, 124325, Control_c, 0, 64, 0
3, 124532, Control_c, 0, 64, 127
3, 125040, Note_on_c, 0, 51, 37
3, 125040, Note_on_c, 0, 54, 37
3, 125040, Note_on_c, 0, 57, 41
3, 125052, Control_c, 0, 64, 0
3, 125280, Control_c, 0, 64, 127
3, 125760, Note_on_c, 0, 57, 0
3, 125760, Note_on_c, 0, 54, 0
3, 125760, Note_on_c, 0, 51, 0
3, 125760, Note_on_c, 0, 52, 33
3, 125760, Note_on_c, 0, 55, 37
3, 125764, Control_c, 0, 64, 0
3, 126000, Note_on_c, 0, 55, 0
3, 126000, Note_on_c, 0, 52, 0
3, 126607, Control_c, 0, 64, 127
3, 127200, Note_on_c, 0, 49, 29
3, 127200, Note_on_c, 0, 52, 29
3, 127200, Note_on_c, 0, 55, 34
3, 127210, Control_c, 0, 64, 0
3, 127398, Control_c, 0, 64, 127
3, 127920, Note_on_c, 0, 55, 0
3, 127920, Note_on_c, 0, 52, 0
3, 127920, Note_on_c, 0, 49, 0
3, 127920, Note_on_c, 0, 50, 26
3, 127920, Note_on_c, 0, 54, 29
3, 127934, Control_c, 0, 64, 0
3, 128160, Note_on_c, 0, 54, 0
3, 128160, Note_on_c, 0, 50, 0
3, 128682, Control_c, 0, 64, 127
3, 129360, Note_on_c, 0, 51, 31
3, 129375, Control_c, 0, 64, 0
3, 129600, Control_c, 0, 64, 127
3, 130080, Note_on_c, 0, 43, 27
3, 130800, Note_on_c, 0, 51, 0
3, 130800, Note_on_c, 0, 50, 29
3, 130806, Control_c, 0, 64, 0
3, 131040, Control_c, 0, 64, 127
3, 131520, Note_on_c, 0, 43, 0
3, 131520, Note_on_c, 0, 43, 26
3, 132240, Note_on_c, 0, 43, 0
3, 132240, Note_on_c, 0, 43, 26
3, 132960, Note_on_c, 0, 50, 0
3, 132960, Note_on_c, 0, 50, 21
3, 134400, Note_on_c, 0, 50, 0
3, 134400, Note_on_c, 0, 43, 0
3, 135135, Control_c, 0, 64, 0
3, 135135, End_track
4, 0, Start_track
4, 0, Title_t, "Tschaikowsky: The Seasons: May"
4, 0, End_track
5, 0, Start_track
5, 0, Title_t, "Copyright © 2004 by Bernd Krüger"
5, 0, End_track
6, 0, Start_track
6, 0, Title_t, "http://www.piano-midi.de"
6, 0, End_track
7, 0, Start_track
7, 0, Title_t, "Edition: 2008-09-14"
7, 0, End_track
8, 0, Start_track
8, 0, End_track
9, 0, Start_track
9, 0, End_track
10, 0, Start_track
10, 0, End_track
0, 0, End_of_file
