0, 0, Header, 1, 10, 480
1, 0, Start_track
1, 0, Title_t, "Die Jahreszeiten"
1, 0, Title_t, "Maerz"
1, 0, Copyright_t, "Copyright © 2004 by Bernd Krueger"
1, 0, Text_t, "Peter Tschaikowsky"
1, 0, Text_t, "Andantino expressivo"
1, 0, Text_t, "Fertiggestellt am 19.8.2000\012"
1, 0, Text_t, "Update am 21.8.2000\012"
1, 0, Text_t, "Normierung: 23.12.2002\012"
1, 0, Text_t, "Update am 9.8.2004\012"
1, 0, Text_t, "Update am 10.9.2008\012"
1, 0, Text_t, "Dauer: 2:17 Minuten\012"
1, 0, SMPTE_offset, 96, 0, 3, 0, 0
1, 0, Time_signature, 2, 2, 24, 8
1, 0, Key_signature, -2, "major"
1, 0, Tempo, 1622060
1, 240, Tempo, 1535705
1, 480, Tempo, 1622060
1, 720, Tempo, 1535705
1, 960, Tempo, 1622060
1, 1200, Tempo, 1495886
1, 1440, Tempo, 1577702
1, 1680, Tempo, 1495886
1, 2160, Tempo, 1404823
1, 2400, Tempo, 1535705
1, 2640, Tempo, 1371115
1, 2760, Tempo, 1421801
1, 2880, Tempo, 1439539
1, 3120, Tempo, 1458080
1, 3240, Tempo, 1535705
1, 3360, Tempo, 1556420
1, 3600, Tempo, 1458080
1, 3720, Tempo, 1535705
1, 3840, Tempo, 1600000
1, 4080, Tempo, 1404823
1, 4320, Tempo, 1515534
1, 4560, Tempo, 1387283
1, 4680, Tempo, 1458080
1, 4800, Tempo, 1421801
1, 5040, Tempo, 1458080
1, 5160, Tempo, 1535705
1, 5280, Tempo, 1556420
1, 5520, Tempo, 1515534
1, 5640, Tempo, 1458080
1, 5760, Tempo, 1495886
1, 6000, Tempo, 1404823
1, 6240, Tempo, 1535705
1, 6480, Tempo, 1371115
1, 6600, Tempo, 1421801
1, 6720, Tempo, 1439539
1, 6960, Tempo, 1458080
1, 7080, Tempo, 1535705
1, 7200, Tempo, 1556420
1, 7440, Tempo, 1458080
1, 7560, Tempo, 1600000
1, 7680, Tempo, 1495886
1, 7800, Tempo, 1421801
1, 7920, Tempo, 1515534
1, 8040, Tempo, 1535705
1, 8160, Tempo, 1556420
1, 8400, Tempo, 1515534
1, 8520, Tempo, 1600000
1, 8640, Tempo, 1476378
1, 8880, Tempo, 1515534
1, 9000, Tempo, 1535705
1, 9120, Tempo, 1556420
1, 9360, Tempo, 1458080
1, 9480, Tempo, 1600000
1, 9600, Tempo, 1476378
1, 9620, Tempo, 1495886
1, 9834, Tempo, 1421464
1, 10080, Tempo, 1385361
1, 10320, Tempo, 1379310
1, 10560, Tempo, 1363636
1, 10580, Tempo, 1379310
1, 10680, Tempo, 1363636
1, 10780, Tempo, 1348315
1, 10860, Tempo, 1333333
1, 10960, Tempo, 1318681
1, 11040, Tempo, 1304348
1, 11160, Tempo, 1395349
1, 11280, Tempo, 1304348
1, 11400, Tempo, 1395349
1, 11520, Tempo, 1263158
1, 11860, Tempo, 1318681
1, 12000, Tempo, 1250000
1, 12120, Tempo, 1318681
1, 12240, Tempo, 1263158
1, 12360, Tempo, 1318681
1, 12480, Tempo, 1263158
1, 12600, Tempo, 1333333
1, 12720, Tempo, 1290323
1, 12740, Tempo, 1263158
1, 12840, Tempo, 1385361
1, 12960, Tempo, 1250000
1, 13080, Tempo, 1402852
1, 13200, Tempo, 1263158
1, 13320, Tempo, 1385361
1, 13440, Tempo, 1290323
1, 13560, Tempo, 1421464
1, 13680, Tempo, 1351047
1, 13800, Tempo, 1440230
1, 13920, Tempo, 1333333
1, 14160, Tempo, 1276596
1, 14280, Tempo, 1302932
1, 14380, Tempo, 1263158
1, 14400, Tempo, 1276596
1, 14500, Tempo, 1333333
1, 14520, Tempo, 1333333
1, 14640, Tempo, 1263158
1, 14760, Tempo, 1318681
1, 14860, Tempo, 1276596
1, 15840, Tempo, 1258125
1, 15960, Tempo, 1333333
1, 16080, Tempo, 1258125
1, 16200, Tempo, 1367989
1, 16320, Tempo, 1290323
1, 16800, Tempo, 1250000
1, 16920, Tempo, 1333333
1, 17040, Tempo, 1250000
1, 17160, Tempo, 1367989
1, 17280, Tempo, 1334816
1, 17400, Tempo, 1421464
1, 17520, Tempo, 1351047
1, 17640, Tempo, 1440230
1, 17760, Tempo, 1367989
1, 18240, Tempo, 1276596
1, 18600, Tempo, 1276596
1, 18700, Tempo, 1263158
1, 18980, Tempo, 1263158
1, 19060, Tempo, 1276596
1, 19120, Tempo, 1290323
1, 19180, Tempo, 1304348
1, 19680, Tempo, 1224490
1, 19800, Tempo, 1402852
1, 19920, Tempo, 1224490
1, 20040, Tempo, 1367989
1, 20160, Tempo, 1304348
1, 20640, Tempo, 1250000
1, 20760, Tempo, 1421464
1, 20880, Tempo, 1290323
1, 21000, Tempo, 1499250
1, 21080, Tempo, 1385361
1, 21120, Tempo, 1411765
1, 21480, Tempo, 1609010
1, 21600, Tempo, 1367989
1, 21720, Tempo, 1263158
1, 21840, Tempo, 1440230
1, 22080, Tempo, 1237113
1, 22200, Tempo, 1304348
1, 22660, Tempo, 1237113
1, 22680, Tempo, 1250000
1, 22800, Tempo, 1333333
1, 23040, Tempo, 1263158
1, 23160, Tempo, 1459144
1, 23280, Tempo, 1367989
1, 23520, Tempo, 1318681
1, 23640, Tempo, 1250000
1, 23760, Tempo, 1440230
1, 24000, Tempo, 1237113
1, 24120, Tempo, 1290323
1, 24240, Tempo, 1348315
1, 24600, Tempo, 1287554
1, 24720, Tempo, 1402852
1, 24960, Tempo, 1250000
1, 25080, Tempo, 1459144
1, 25200, Tempo, 1367989
1, 25440, Tempo, 1367989
1, 25560, Tempo, 1318102
1, 25680, Tempo, 1440230
1, 25920, Tempo, 1250000
1, 26040, Tempo, 1459144
1, 26160, Tempo, 1367989
1, 27120, Tempo, 1318102
1, 27240, Tempo, 1440230
1, 27360, Tempo, 1428571
1, 27600, Tempo, 1333333
1, 27720, Tempo, 1421464
1, 27840, Tempo, 1402852
1, 28080, Tempo, 1334816
1, 28200, Tempo, 1440230
1, 28320, Tempo, 1500000
1, 28560, Tempo, 1666667
1, 28800, Tempo, 1495886
1, 29040, Tempo, 1404823
1, 29280, Tempo, 1535705
1, 29520, Tempo, 1371115
1, 29640, Tempo, 1421801
1, 29760, Tempo, 1439539
1, 30000, Tempo, 1458080
1, 30120, Tempo, 1535705
1, 30240, Tempo, 1556420
1, 30480, Tempo, 1458080
1, 30600, Tempo, 1535705
1, 30720, Tempo, 1600000
1, 30960, Tempo, 1404823
1, 31200, Tempo, 1515534
1, 31440, Tempo, 1387283
1, 31560, Tempo, 1458080
1, 31680, Tempo, 1421801
1, 31920, Tempo, 1458080
1, 32040, Tempo, 1535705
1, 32160, Tempo, 1556420
1, 32400, Tempo, 1515534
1, 32520, Tempo, 1458080
1, 32640, Tempo, 1495886
1, 32880, Tempo, 1404823
1, 33120, Tempo, 1535705
1, 33360, Tempo, 1371115
1, 33480, Tempo, 1421801
1, 33600, Tempo, 1439539
1, 33840, Tempo, 1458080
1, 33960, Tempo, 1535705
1, 34080, Tempo, 1556420
1, 34320, Tempo, 1458080
1, 34440, Tempo, 1600000
1, 34560, Tempo, 1495886
1, 34680, Tempo, 1421801
1, 34800, Tempo, 1515534
1, 34920, Tempo, 1535705
1, 35040, Tempo, 1556420
1, 35280, Tempo, 1515534
1, 35400, Tempo, 1600000
1, 35520, Tempo, 1476378
1, 35760, Tempo, 1515534
1, 35880, Tempo, 1535705
1, 36000, Tempo, 1556420
1, 36240, Tempo, 1458080
1, 36360, Tempo, 1600000
1, 36480, Tempo, 1495886
1, 36720, Tempo, 1404823
1, 36960, Tempo, 1535705
1, 37200, Tempo, 1421801
1, 37320, Tempo, 1421801
1, 37440, Tempo, 1476378
1, 37680, Tempo, 1458080
1, 37800, Tempo, 1535705
1, 37920, Tempo, 1556420
1, 38160, Tempo, 1476378
1, 38280, Tempo, 1622060
1, 38400, Tempo, 1600000
1, 38640, Tempo, 1404823
1, 38880, Tempo, 1515534
1, 38900, Tempo, 1556420
1, 39120, Tempo, 1421801
1, 39240, Tempo, 1458080
1, 39360, Tempo, 1458080
1, 39600, Tempo, 1495886
1, 39720, Tempo, 1535705
1, 39840, Tempo, 1556420
1, 40080, Tempo, 1515534
1, 40200, Tempo, 1556420
1, 40320, Tempo, 1556420
1, 40560, Tempo, 1458080
1, 40680, Tempo, 1535705
1, 40800, Tempo, 1556420
1, 41040, Tempo, 1515534
1, 41160, Tempo, 1577702
1, 41280, Tempo, 1535705
1, 41520, Tempo, 1476378
1, 41640, Tempo, 1600000
1, 41760, Tempo, 1556420
1, 42000, Tempo, 1515534
1, 42120, Tempo, 1622060
1, 43920, Tempo, 5763689
1, 44161, Tempo, 5797101
1, 44162, Tempo, 6000000
1, 45120, Tempo, 1500000
1, 45120, End_track
2, 0, Start_track
2, 0, Title_t, "Piano right"
2, 0, Program_c, 0, 0
2, 0, Control_c, 0, 7, 100
2, 0, Control_c, 0, 10, 64
2, 0, Control_c, 0, 91, 127
2, 0, Text_t, "bdca426d104a26ac9dcb070447587523"
2, 2160, Note_on_c, 0, 67, 56
2, 2220, Note_on_c, 0, 67, 0
2, 2280, Note_on_c, 0, 67, 52
2, 2320, Note_on_c, 0, 67, 0
2, 2320, Note_on_c, 0, 69, 49
2, 2360, Note_on_c, 0, 69, 0
2, 2360, Note_on_c, 0, 67, 48
2, 2400, Note_on_c, 0, 67, 0
2, 2400, Note_on_c, 0, 66, 57
2, 2760, Note_on_c, 0, 66, 0
2, 2760, Note_on_c, 0, 69, 44
2, 2880, Note_on_c, 0, 69, 0
2, 2880, Note_on_c, 0, 67, 52
2, 3000, Note_on_c, 0, 67, 0
2, 3000, Note_on_c, 0, 70, 57
2, 3120, Note_on_c, 0, 70, 0
2, 3120, Note_on_c, 0, 74, 64
2, 3240, Note_on_c, 0, 74, 0
2, 3240, Note_on_c, 0, 78, 69
2, 3360, Note_on_c, 0, 78, 0
2, 3360, Note_on_c, 0, 79, 68
2, 3720, Note_on_c, 0, 79, 0
2, 3720, Note_on_c, 0, 78, 60
2, 3840, Note_on_c, 0, 78, 0
2, 3840, Note_on_c, 0, 74, 61
2, 4080, Note_on_c, 0, 74, 0
2, 4080, Note_on_c, 0, 55, 37
2, 4080, Note_on_c, 0, 58, 37
2, 4080, Note_on_c, 0, 62, 41
2, 4320, Note_on_c, 0, 62, 0
2, 4320, Note_on_c, 0, 58, 0
2, 4320, Note_on_c, 0, 55, 0
2, 4560, Note_on_c, 0, 62, 42
2, 4560, Note_on_c, 0, 60, 42
2, 4560, Note_on_c, 0, 57, 38
2, 4800, Note_on_c, 0, 57, 0
2, 4800, Note_on_c, 0, 60, 0
2, 4800, Note_on_c, 0, 62, 0
2, 5040, Note_on_c, 0, 62, 49
2, 5040, Note_on_c, 0, 58, 42
2, 5280, Note_on_c, 0, 58, 0
2, 5280, Note_on_c, 0, 62, 0
2, 5520, Note_on_c, 0, 62, 42
2, 5520, Note_on_c, 0, 57, 38
2, 5520, Note_on_c, 0, 60, 38
2, 5760, Note_on_c, 0, 60, 0
2, 5760, Note_on_c, 0, 57, 0
2, 5760, Note_on_c, 0, 62, 0
2, 6000, Note_on_c, 0, 67, 56
2, 6060, Note_on_c, 0, 67, 0
2, 6120, Note_on_c, 0, 67, 52
2, 6160, Note_on_c, 0, 67, 0
2, 6160, Note_on_c, 0, 69, 48
2, 6200, Note_on_c, 0, 69, 0
2, 6200, Note_on_c, 0, 67, 48
2, 6240, Note_on_c, 0, 67, 0
2, 6240, Note_on_c, 0, 66, 61
2, 6600, Note_on_c, 0, 66, 0
2, 6600, Note_on_c, 0, 69, 53
2, 6720, Note_on_c, 0, 69, 0
2, 6720, Note_on_c, 0, 67, 58
2, 6840, Note_on_c, 0, 67, 0
2, 6840, Note_on_c, 0, 70, 62
2, 6960, Note_on_c, 0, 70, 0
2, 6960, Note_on_c, 0, 74, 66
2, 7080, Note_on_c, 0, 74, 0
2, 7080, Note_on_c, 0, 78, 69
2, 7200, Note_on_c, 0, 78, 0
2, 7200, Note_on_c, 0, 79, 73
2, 7560, Note_on_c, 0, 79, 0
2, 7560, Note_on_c, 0, 77, 67
2, 7680, Note_on_c, 0, 77, 0
2, 7680, Note_on_c, 0, 77, 67
2, 7920, Note_on_c, 0, 77, 0
2, 7920, Note_on_c, 0, 67, 44
2, 7920, Note_on_c, 0, 75, 58
2, 7920, Note_on_c, 0, 72, 52
2, 8160, Note_on_c, 0, 72, 0
2, 8160, Note_on_c, 0, 75, 0
2, 8160, Note_on_c, 0, 67, 0
2, 8160, Note_on_c, 0, 74, 62
2, 8400, Note_on_c, 0, 74, 0
2, 8400, Note_on_c, 0, 72, 46
2, 8400, Note_on_c, 0, 67, 46
2, 8640, Note_on_c, 0, 67, 0
2, 8640, Note_on_c, 0, 72, 0
2, 8640, Note_on_c, 0, 72, 68
2, 8730, Note_on_c, 0, 72, 0
2, 8760, Note_on_c, 0, 66, 57
2, 8850, Note_on_c, 0, 66, 0
2, 8880, Note_on_c, 0, 67, 62
2, 8970, Note_on_c, 0, 67, 0
2, 9000, Note_on_c, 0, 69, 58
2, 9090, Note_on_c, 0, 69, 0
2, 9120, Note_on_c, 0, 60, 46
2, 9120, Note_on_c, 0, 70, 58
2, 9126, Note_on_c, 0, 66, 46
2, 9480, Note_on_c, 0, 70, 0
2, 9480, Note_on_c, 0, 69, 46
2, 9600, Note_on_c, 0, 69, 0
2, 9600, Note_on_c, 0, 60, 0
2, 9600, Note_on_c, 0, 67, 42
2, 9600, Note_on_c, 0, 62, 37
2, 9600, Note_on_c, 0, 58, 37
2, 9606, Note_on_c, 0, 66, 0
2, 9840, Note_on_c, 0, 67, 0
2, 9840, Note_on_c, 0, 62, 0
2, 9840, Note_on_c, 0, 58, 0
2, 9840, Note_on_c, 0, 74, 64
2, 10030, Note_on_c, 0, 74, 0
2, 10030, Note_on_c, 0, 74, 63
2, 10055, Note_on_c, 0, 74, 0
2, 10055, Note_on_c, 0, 75, 63
2, 10080, Note_on_c, 0, 75, 0
2, 10080, Note_on_c, 0, 74, 69
2, 10440, Note_on_c, 0, 74, 0
2, 10440, Note_on_c, 0, 69, 55
2, 10560, Note_on_c, 0, 69, 0
2, 10560, Note_on_c, 0, 70, 56
2, 10620, Note_on_c, 0, 70, 0
2, 10680, Note_on_c, 0, 73, 58
2, 10740, Note_on_c, 0, 73, 0
2, 10800, Note_on_c, 0, 74, 62
2, 10860, Note_on_c, 0, 74, 0
2, 10920, Note_on_c, 0, 75, 66
2, 10980, Note_on_c, 0, 75, 0
2, 11040, Note_on_c, 0, 77, 67
2, 11100, Note_on_c, 0, 77, 0
2, 11160, Note_on_c, 0, 78, 68
2, 11220, Note_on_c, 0, 78, 0
2, 11280, Note_on_c, 0, 82, 70
2, 11340, Note_on_c, 0, 82, 0
2, 11400, Note_on_c, 0, 81, 68
2, 11460, Note_on_c, 0, 81, 0
2, 11500, Note_on_c, 0, 81, 64
2, 11520, Note_on_c, 0, 81, 0
2, 11520, Note_on_c, 0, 84, 77
2, 11880, Note_on_c, 0, 84, 0
2, 11880, Note_on_c, 0, 82, 67
2, 11970, Note_on_c, 0, 82, 0
2, 11980, Note_on_c, 0, 82, 68
2, 12000, Note_on_c, 0, 82, 0
2, 12000, Note_on_c, 0, 86, 75
2, 12060, Note_on_c, 0, 86, 0
2, 12120, Note_on_c, 0, 81, 70
2, 12180, Note_on_c, 0, 81, 0
2, 12220, Note_on_c, 0, 82, 67
2, 12240, Note_on_c, 0, 82, 0
2, 12240, Note_on_c, 0, 86, 75
2, 12300, Note_on_c, 0, 86, 0
2, 12360, Note_on_c, 0, 81, 69
2, 12420, Note_on_c, 0, 81, 0
2, 12460, Note_on_c, 0, 81, 68
2, 12480, Note_on_c, 0, 81, 0
2, 12480, Note_on_c, 0, 86, 75
2, 12600, Note_on_c, 0, 86, 0
2, 12600, Note_on_c, 0, 79, 68
2, 12840, Note_on_c, 0, 79, 0
2, 12840, Note_on_c, 0, 82, 70
2, 13080, Note_on_c, 0, 82, 0
2, 13080, Note_on_c, 0, 78, 64
2, 13320, Note_on_c, 0, 78, 0
2, 13320, Note_on_c, 0, 81, 68
2, 13560, Note_on_c, 0, 81, 0
2, 13560, Note_on_c, 0, 74, 64
2, 13800, Note_on_c, 0, 74, 0
2, 13800, Note_on_c, 0, 79, 67
2, 13870, Note_on_c, 0, 79, 0
2, 13870, Note_on_c, 0, 74, 55
2, 13895, Note_on_c, 0, 74, 0
2, 13895, Note_on_c, 0, 75, 58
2, 13920, Note_on_c, 0, 75, 0
2, 13920, Note_on_c, 0, 74, 67
2, 14280, Note_on_c, 0, 74, 0
2, 14280, Note_on_c, 0, 69, 55
2, 14400, Note_on_c, 0, 69, 0
2, 14400, Note_on_c, 0, 70, 56
2, 14460, Note_on_c, 0, 70, 0
2, 14520, Note_on_c, 0, 73, 58
2, 14580, Note_on_c, 0, 73, 0
2, 14640, Note_on_c, 0, 74, 62
2, 14700, Note_on_c, 0, 74, 0
2, 14760, Note_on_c, 0, 75, 64
2, 14820, Note_on_c, 0, 75, 0
2, 14880, Note_on_c, 0, 77, 67
2, 14940, Note_on_c, 0, 77, 0
2, 15000, Note_on_c, 0, 78, 68
2, 15060, Note_on_c, 0, 78, 0
2, 15120, Note_on_c, 0, 82, 70
2, 15180, Note_on_c, 0, 82, 0
2, 15240, Note_on_c, 0, 81, 68
2, 15300, Note_on_c, 0, 81, 0
2, 15340, Note_on_c, 0, 81, 64
2, 15360, Note_on_c, 0, 81, 0
2, 15360, Note_on_c, 0, 84, 75
2, 15720, Note_on_c, 0, 84, 0
2, 15720, Note_on_c, 0, 82, 67
2, 15810, Note_on_c, 0, 82, 0
2, 15820, Note_on_c, 0, 78, 63
2, 15840, Note_on_c, 0, 78, 0
2, 15840, Note_on_c, 0, 82, 73
2, 15900, Note_on_c, 0, 82, 0
2, 15960, Note_on_c, 0, 78, 67
2, 16020, Note_on_c, 0, 78, 0
2, 16060, Note_on_c, 0, 78, 63
2, 16080, Note_on_c, 0, 78, 0
2, 16080, Note_on_c, 0, 82, 73
2, 16140, Note_on_c, 0, 82, 0
2, 16200, Note_on_c, 0, 78, 64
2, 16260, Note_on_c, 0, 78, 0
2, 16300, Note_on_c, 0, 78, 62
2, 16320, Note_on_c, 0, 78, 0
2, 16320, Note_on_c, 0, 81, 70
2, 16440, Note_on_c, 0, 81, 0
2, 16440, Note_on_c, 0, 74, 60
2, 16680, Note_on_c, 0, 74, 0
2, 16680, Note_on_c, 0, 79, 61
2, 16770, Note_on_c, 0, 79, 0
2, 16780, Note_on_c, 0, 74, 57
2, 16800, Note_on_c, 0, 74, 0
2, 16800, Note_on_c, 0, 70, 66
2, 16860, Note_on_c, 0, 70, 0
2, 16920, Note_on_c, 0, 69, 58
2, 16980, Note_on_c, 0, 69, 0
2, 17020, Note_on_c, 0, 74, 57
2, 17040, Note_on_c, 0, 74, 0
2, 17040, Note_on_c, 0, 70, 64
2, 17100, Note_on_c, 0, 70, 0
2, 17160, Note_on_c, 0, 69, 55
2, 17220, Note_on_c, 0, 69, 0
2, 17260, Note_on_c, 0, 74, 56
2, 17280, Note_on_c, 0, 74, 0
2, 17280, Note_on_c, 0, 69, 68
2, 17400, Note_on_c, 0, 67, 64
2, 17520, Note_on_c, 0, 69, 0
2, 17640, Note_on_c, 0, 67, 0
2, 17640, Note_on_c, 0, 62, 58
2, 17710, Note_on_c, 0, 62, 0
2, 17710, Note_on_c, 0, 62, 50
2, 17735, Note_on_c, 0, 62, 0
2, 17735, Note_on_c, 0, 63, 50
2, 17760, Note_on_c, 0, 63, 0
2, 17760, Note_on_c, 0, 62, 62
2, 18120, Note_on_c, 0, 62, 0
2, 18120, Note_on_c, 0, 57, 60
2, 18240, Note_on_c, 0, 57, 0
2, 18240, Note_on_c, 0, 58, 62
2, 18300, Note_on_c, 0, 58, 0
2, 18360, Note_on_c, 0, 61, 63
2, 18420, Note_on_c, 0, 61, 0
2, 18480, Note_on_c, 0, 62, 64
2, 18540, Note_on_c, 0, 62, 0
2, 18600, Note_on_c, 0, 63, 66
2, 18660, Note_on_c, 0, 63, 0
2, 18720, Note_on_c, 0, 65, 67
2, 18780, Note_on_c, 0, 65, 0
2, 18840, Note_on_c, 0, 66, 68
2, 18900, Note_on_c, 0, 66, 0
2, 18960, Note_on_c, 0, 70, 70
2, 19020, Note_on_c, 0, 70, 0
2, 19080, Note_on_c, 0, 69, 68
2, 19140, Note_on_c, 0, 69, 0
2, 19180, Note_on_c, 0, 69, 64
2, 19200, Note_on_c, 0, 69, 0
2, 19200, Note_on_c, 0, 72, 72
2, 19560, Note_on_c, 0, 72, 0
2, 19560, Note_on_c, 0, 70, 67
2, 19650, Note_on_c, 0, 70, 0
2, 19660, Note_on_c, 0, 70, 61
2, 19680, Note_on_c, 0, 70, 0
2, 19680, Note_on_c, 0, 74, 72
2, 19740, Note_on_c, 0, 74, 0
2, 19800, Note_on_c, 0, 69, 64
2, 19860, Note_on_c, 0, 69, 0
2, 19900, Note_on_c, 0, 70, 60
2, 19920, Note_on_c, 0, 70, 0
2, 19920, Note_on_c, 0, 74, 73
2, 19980, Note_on_c, 0, 74, 0
2, 20040, Note_on_c, 0, 69, 62
2, 20100, Note_on_c, 0, 69, 0
2, 20140, Note_on_c, 0, 69, 59
2, 20160, Note_on_c, 0, 69, 0
2, 20160, Note_on_c, 0, 74, 70
2, 20280, Note_on_c, 0, 74, 0
2, 20280, Note_on_c, 0, 62, 64
2, 20520, Note_on_c, 0, 62, 0
2, 20520, Note_on_c, 0, 67, 61
2, 20610, Note_on_c, 0, 67, 0
2, 20620, Note_on_c, 0, 62, 61
2, 20640, Note_on_c, 0, 62, 0
2, 20640, Note_on_c, 0, 67, 70
2, 20700, Note_on_c, 0, 67, 0
2, 20760, Note_on_c, 0, 61, 63
2, 20820, Note_on_c, 0, 61, 0
2, 20860, Note_on_c, 0, 62, 57
2, 20880, Note_on_c, 0, 62, 0
2, 20880, Note_on_c, 0, 67, 68
2, 20940, Note_on_c, 0, 67, 0
2, 21000, Note_on_c, 0, 61, 62
2, 21060, Note_on_c, 0, 61, 0
2, 21100, Note_on_c, 0, 62, 58
2, 21120, Note_on_c, 0, 62, 0
2, 21120, Note_on_c, 0, 67, 68
2, 21240, Note_on_c, 0, 57, 52
2, 21480, Note_on_c, 0, 67, 0
2, 21480, Note_on_c, 0, 66, 54
2, 21600, Note_on_c, 0, 66, 0
2, 21600, Note_on_c, 0, 57, 0
2, 21720, Note_on_c, 0, 62, 49
2, 21760, Note_on_c, 0, 62, 0
2, 21760, Note_on_c, 0, 63, 49
2, 21800, Note_on_c, 0, 63, 0
2, 21800, Note_on_c, 0, 62, 49
2, 21840, Note_on_c, 0, 62, 0
2, 21840, Note_on_c, 0, 61, 57
2, 22020, Note_on_c, 0, 61, 0
2, 22020, Note_on_c, 0, 62, 55
2, 22080, Note_on_c, 0, 62, 0
2, 22080, Note_on_c, 0, 66, 66
2, 22110, Note_on_c, 0, 66, 0
2, 22140, Note_on_c, 0, 68, 62
2, 22170, Note_on_c, 0, 68, 0
2, 22200, Note_on_c, 0, 69, 64
2, 22230, Note_on_c, 0, 69, 0
2, 22260, Note_on_c, 0, 73, 67
2, 22290, Note_on_c, 0, 73, 0
2, 22320, Note_on_c, 0, 74, 69
2, 22560, Note_on_c, 0, 74, 0
2, 22680, Note_on_c, 0, 79, 66
2, 22740, Note_on_c, 0, 79, 0
2, 22740, Note_on_c, 0, 79, 58
2, 22760, Note_on_c, 0, 79, 0
2, 22760, Note_on_c, 0, 81, 58
2, 22780, Note_on_c, 0, 81, 0
2, 22780, Note_on_c, 0, 79, 58
2, 22800, Note_on_c, 0, 79, 0
2, 22800, Note_on_c, 0, 78, 67
2, 22980, Note_on_c, 0, 78, 0
2, 22980, Note_on_c, 0, 79, 63
2, 23040, Note_on_c, 0, 79, 0
2, 23040, Note_on_c, 0, 86, 74
2, 23160, Note_on_c, 0, 86, 0
2, 23160, Note_on_c, 0, 74, 64
2, 23400, Note_on_c, 0, 74, 0
2, 23400, Note_on_c, 0, 62, 40
2, 23520, Note_on_c, 0, 62, 0
2, 23640, Note_on_c, 0, 62, 52
2, 23680, Note_on_c, 0, 62, 0
2, 23680, Note_on_c, 0, 63, 52
2, 23720, Note_on_c, 0, 63, 0
2, 23720, Note_on_c, 0, 62, 52
2, 23760, Note_on_c, 0, 62, 0
2, 23760, Note_on_c, 0, 61, 61
2, 23940, Note_on_c, 0, 61, 0
2, 23940, Note_on_c, 0, 62, 57
2, 24000, Note_on_c, 0, 62, 0
2, 24000, Note_on_c, 0, 66, 64
2, 24030, Note_on_c, 0, 66, 0
2, 24060, Note_on_c, 0, 68, 61
2, 24090, Note_on_c, 0, 68, 0
2, 24120, Note_on_c, 0, 69, 64
2, 24150, Note_on_c, 0, 69, 0
2, 24180, Note_on_c, 0, 73, 68
2, 24210, Note_on_c, 0, 73, 0
2, 24240, Note_on_c, 0, 74, 73
2, 24480, Note_on_c, 0, 74, 0
2, 24600, Note_on_c, 0, 79, 64
2, 24660, Note_on_c, 0, 79, 0
2, 24660, Note_on_c, 0, 79, 59
2, 24680, Note_on_c, 0, 79, 0
2, 24680, Note_on_c, 0, 81, 59
2, 24700, Note_on_c, 0, 81, 0
2, 24700, Note_on_c, 0, 79, 59
2, 24720, Note_on_c, 0, 79, 0
2, 24720, Note_on_c, 0, 78, 65
2, 24900, Note_on_c, 0, 78, 0
2, 24900, Note_on_c, 0, 79, 64
2, 24960, Note_on_c, 0, 79, 0
2, 24960, Note_on_c, 0, 86, 76
2, 25080, Note_on_c, 0, 86, 0
2, 25080, Note_on_c, 0, 74, 54
2, 25320, Note_on_c, 0, 74, 0
2, 25320, Note_on_c, 0, 62, 35
2, 25440, Note_on_c, 0, 62, 0
2, 25560, Note_on_c, 0, 79, 64
2, 25620, Note_on_c, 0, 79, 0
2, 25620, Note_on_c, 0, 79, 59
2, 25640, Note_on_c, 0, 79, 0
2, 25640, Note_on_c, 0, 81, 59
2, 25660, Note_on_c, 0, 81, 0
2, 25660, Note_on_c, 0, 79, 60
2, 25680, Note_on_c, 0, 79, 0
2, 25680, Note_on_c, 0, 78, 65
2, 25860, Note_on_c, 0, 78, 0
2, 25860, Note_on_c, 0, 79, 65
2, 25920, Note_on_c, 0, 79, 0
2, 25920, Note_on_c, 0, 86, 77
2, 26040, Note_on_c, 0, 86, 0
2, 26040, Note_on_c, 0, 74, 64
2, 26280, Note_on_c, 0, 74, 0
2, 26280, Note_on_c, 0, 62, 41
2, 26400, Note_on_c, 0, 62, 0
2, 26520, Note_on_c, 0, 73, 63
2, 26760, Note_on_c, 0, 73, 0
2, 26760, Note_on_c, 0, 61, 41
2, 26880, Note_on_c, 0, 61, 0
2, 27000, Note_on_c, 0, 74, 64
2, 27240, Note_on_c, 0, 74, 0
2, 27240, Note_on_c, 0, 62, 41
2, 27360, Note_on_c, 0, 62, 0
2, 27480, Note_on_c, 0, 73, 59
2, 27720, Note_on_c, 0, 73, 0
2, 27720, Note_on_c, 0, 61, 41
2, 27840, Note_on_c, 0, 61, 0
2, 27960, Note_on_c, 0, 74, 57
2, 28200, Note_on_c, 0, 74, 0
2, 28200, Note_on_c, 0, 62, 39
2, 28320, Note_on_c, 0, 62, 0
2, 28440, Note_on_c, 0, 74, 55
2, 28680, Note_on_c, 0, 74, 0
2, 28680, Note_on_c, 0, 62, 38
2, 28798, Note_on_c, 0, 62, 0
2, 29040, Note_on_c, 0, 67, 56
2, 29100, Note_on_c, 0, 67, 0
2, 29160, Note_on_c, 0, 67, 49
2, 29200, Note_on_c, 0, 67, 0
2, 29200, Note_on_c, 0, 69, 49
2, 29240, Note_on_c, 0, 69, 0
2, 29240, Note_on_c, 0, 67, 48
2, 29280, Note_on_c, 0, 67, 0
2, 29280, Note_on_c, 0, 66, 61
2, 29640, Note_on_c, 0, 66, 0
2, 29640, Note_on_c, 0, 69, 53
2, 29760, Note_on_c, 0, 69, 0
2, 29760, Note_on_c, 0, 67, 58
2, 29880, Note_on_c, 0, 67, 0
2, 29880, Note_on_c, 0, 70, 62
2, 30000, Note_on_c, 0, 70, 0
2, 30000, Note_on_c, 0, 74, 66
2, 30120, Note_on_c, 0, 74, 0
2, 30120, Note_on_c, 0, 78, 68
2, 30240, Note_on_c, 0, 78, 0
2, 30240, Note_on_c, 0, 79, 68
2, 30600, Note_on_c, 0, 79, 0
2, 30600, Note_on_c, 0, 78, 64
2, 30720, Note_on_c, 0, 78, 0
2, 30720, Note_on_c, 0, 74, 62
2, 30960, Note_on_c, 0, 74, 0
2, 30960, Note_on_c, 0, 58, 37
2, 30960, Note_on_c, 0, 55, 37
2, 30960, Note_on_c, 0, 62, 41
2, 31200, Note_on_c, 0, 62, 0
2, 31200, Note_on_c, 0, 55, 0
2, 31200, Note_on_c, 0, 58, 0
2, 31440, Note_on_c, 0, 57, 38
2, 31440, Note_on_c, 0, 60, 42
2, 31440, Note_on_c, 0, 62, 42
2, 31680, Note_on_c, 0, 62, 0
2, 31680, Note_on_c, 0, 60, 0
2, 31680, Note_on_c, 0, 57, 0
2, 31920, Note_on_c, 0, 58, 42
2, 31920, Note_on_c, 0, 62, 49
2, 32160, Note_on_c, 0, 62, 0
2, 32160, Note_on_c, 0, 58, 0
2, 32400, Note_on_c, 0, 57, 38
2, 32400, Note_on_c, 0, 60, 38
2, 32400, Note_on_c, 0, 62, 42
2, 32640, Note_on_c, 0, 62, 0
2, 32640, Note_on_c, 0, 60, 0
2, 32640, Note_on_c, 0, 57, 0
2, 32880, Note_on_c, 0, 67, 56
2, 32940, Note_on_c, 0, 67, 0
2, 33000, Note_on_c, 0, 67, 52
2, 33040, Note_on_c, 0, 67, 0
2, 33040, Note_on_c, 0, 69, 52
2, 33080, Note_on_c, 0, 69, 0
2, 33080, Note_on_c, 0, 67, 52
2, 33120, Note_on_c, 0, 67, 0
2, 33120, Note_on_c, 0, 66, 61
2, 33480, Note_on_c, 0, 66, 0
2, 33480, Note_on_c, 0, 69, 53
2, 33600, Note_on_c, 0, 69, 0
2, 33600, Note_on_c, 0, 67, 54
2, 33720, Note_on_c, 0, 67, 0
2, 33720, Note_on_c, 0, 70, 57
2, 33840, Note_on_c, 0, 70, 0
2, 33840, Note_on_c, 0, 74, 60
2, 33960, Note_on_c, 0, 74, 0
2, 33960, Note_on_c, 0, 78, 63
2, 34080, Note_on_c, 0, 78, 0
2, 34080, Note_on_c, 0, 79, 66
2, 34440, Note_on_c, 0, 79, 0
2, 34440, Note_on_c, 0, 77, 57
2, 34560, Note_on_c, 0, 77, 0
2, 34560, Note_on_c, 0, 77, 56
2, 34800, Note_on_c, 0, 77, 0
2, 34800, Note_on_c, 0, 75, 52
2, 34800, Note_on_c, 0, 72, 46
2, 34800, Note_on_c, 0, 67, 40
2, 35040, Note_on_c, 0, 67, 0
2, 35040, Note_on_c, 0, 72, 0
2, 35040, Note_on_c, 0, 75, 0
2, 35040, Note_on_c, 0, 74, 60
2, 35280, Note_on_c, 0, 74, 0
2, 35280, Note_on_c, 0, 67, 41
2, 35280, Note_on_c, 0, 72, 41
2, 35520, Note_on_c, 0, 72, 0
2, 35520, Note_on_c, 0, 67, 0
2, 35520, Note_on_c, 0, 72, 56
2, 35610, Note_on_c, 0, 72, 0
2, 35640, Note_on_c, 0, 66, 49
2, 35730, Note_on_c, 0, 66, 0
2, 35760, Note_on_c, 0, 67, 54
2, 35850, Note_on_c, 0, 67, 0
2, 35880, Note_on_c, 0, 69, 50
2, 35970, Note_on_c, 0, 69, 0
2, 36000, Note_on_c, 0, 60, 37
2, 36000, Note_on_c, 0, 70, 46
2, 36006, Note_on_c, 0, 66, 37
2, 36360, Note_on_c, 0, 70, 0
2, 36360, Note_on_c, 0, 69, 48
2, 36480, Note_on_c, 0, 69, 0
2, 36480, Note_on_c, 0, 60, 0
2, 36480, Note_on_c, 0, 62, 36
2, 36480, Note_on_c, 0, 67, 42
2, 36480, Note_on_c, 0, 58, 35
2, 36486, Note_on_c, 0, 66, 0
2, 36720, Note_on_c, 0, 62, 0
2, 36720, Note_on_c, 0, 67, 0
2, 36720, Note_on_c, 0, 58, 0
2, 36720, Note_on_c, 0, 67, 46
2, 36780, Note_on_c, 0, 67, 0
2, 36840, Note_on_c, 0, 67, 41
2, 36880, Note_on_c, 0, 67, 0
2, 36880, Note_on_c, 0, 69, 41
2, 36920, Note_on_c, 0, 69, 0
2, 36920, Note_on_c, 0, 67, 41
2, 36960, Note_on_c, 0, 67, 0
2, 36960, Note_on_c, 0, 66, 48
2, 37320, Note_on_c, 0, 66, 0
2, 37320, Note_on_c, 0, 69, 40
2, 37440, Note_on_c, 0, 69, 0
2, 37440, Note_on_c, 0, 67, 42
2, 37560, Note_on_c, 0, 67, 0
2, 37560, Note_on_c, 0, 70, 46
2, 37680, Note_on_c, 0, 70, 0
2, 37680, Note_on_c, 0, 74, 49
2, 37800, Note_on_c, 0, 74, 0
2, 37800, Note_on_c, 0, 78, 50
2, 37920, Note_on_c, 0, 78, 0
2, 37920, Note_on_c, 0, 79, 55
2, 38280, Note_on_c, 0, 79, 0
2, 38280, Note_on_c, 0, 78, 50
2, 38400, Note_on_c, 0, 78, 0
2, 38400, Note_on_c, 0, 74, 45
2, 38640, Note_on_c, 0, 74, 0
2, 38640, Note_on_c, 0, 62, 36
2, 38640, Note_on_c, 0, 55, 29
2, 38640, Note_on_c, 0, 58, 29
2, 38760, Note_on_c, 0, 58, 0
2, 38760, Note_on_c, 0, 55, 0
2, 38760, Note_on_c, 0, 62, 0
2, 39120, Note_on_c, 0, 60, 33
2, 39120, Note_on_c, 0, 57, 28
2, 39120, Note_on_c, 0, 62, 33
2, 39240, Note_on_c, 0, 62, 0
2, 39240, Note_on_c, 0, 57, 0
2, 39240, Note_on_c, 0, 60, 0
2, 39600, Note_on_c, 0, 55, 30
2, 39600, Note_on_c, 0, 58, 33
2, 39600, Note_on_c, 0, 62, 36
2, 39720, Note_on_c, 0, 62, 0
2, 39720, Note_on_c, 0, 58, 0
2, 39720, Note_on_c, 0, 55, 0
2, 40080, Note_on_c, 0, 62, 33
2, 40080, Note_on_c, 0, 57, 28
2, 40080, Note_on_c, 0, 60, 28
2, 40200, Note_on_c, 0, 60, 0
2, 40200, Note_on_c, 0, 57, 0
2, 40200, Note_on_c, 0, 62, 0
2, 40560, Note_on_c, 0, 62, 33
2, 40560, Note_on_c, 0, 58, 28
2, 40680, Note_on_c, 0, 58, 0
2, 40680, Note_on_c, 0, 62, 0
2, 41040, Note_on_c, 0, 57, 25
2, 41040, Note_on_c, 0, 62, 28
2, 41040, Note_on_c, 0, 60, 25
2, 41160, Note_on_c, 0, 60, 0
2, 41160, Note_on_c, 0, 62, 0
2, 41160, Note_on_c, 0, 57, 0
2, 41520, Note_on_c, 0, 58, 28
2, 41520, Note_on_c, 0, 62, 33
2, 41640, Note_on_c, 0, 62, 0
2, 41640, Note_on_c, 0, 58, 0
2, 42000, Note_on_c, 0, 62, 28
2, 42000, Note_on_c, 0, 57, 25
2, 42000, Note_on_c, 0, 60, 25
2, 42120, Note_on_c, 0, 60, 0
2, 42120, Note_on_c, 0, 57, 0
2, 42120, Note_on_c, 0, 62, 0
2, 42480, Note_on_c, 0, 62, 29
2, 42480, Note_on_c, 0, 58, 24
2, 42480, Note_on_c, 0, 55, 24
2, 42960, Note_on_c, 0, 55, 0
2, 42960, Note_on_c, 0, 58, 0
2, 42960, Note_on_c, 0, 62, 0
2, 42960, Note_on_c, 0, 62, 26
2, 42960, Note_on_c, 0, 55, 22
2, 42960, Note_on_c, 0, 58, 22
2, 43440, Note_on_c, 0, 58, 0
2, 43440, Note_on_c, 0, 55, 0
2, 43440, Note_on_c, 0, 62, 0
2, 43440, Note_on_c, 0, 58, 20
2, 43440, Note_on_c, 0, 55, 20
2, 43440, Note_on_c, 0, 62, 25
2, 43920, Note_on_c, 0, 62, 0
2, 43920, Note_on_c, 0, 55, 0
2, 43920, Note_on_c, 0, 58, 0
2, 43920, Note_on_c, 0, 58, 18
2, 43920, Note_on_c, 0, 62, 23
2, 43920, Note_on_c, 0, 55, 18
2, 44160, Note_on_c, 0, 55, 0
2, 44160, Note_on_c, 0, 62, 0
2, 44160, Note_on_c, 0, 58, 0
2, 44160, End_track
3, 0, Start_track
3, 0, Title_t, "Piano left"
3, 0, Program_c, 0, 0
3, 0, Control_c, 0, 7, 100
3, 0, Control_c, 0, 10, 64
3, 0, Control_c, 0, 91, 127
3, 1, Note_on_c, 0, 62, 45
3, 1, Note_on_c, 0, 58, 40
3, 14, Control_c, 0, 64, 127
3, 240, Note_on_c, 0, 55, 38
3, 480, Note_on_c, 0, 58, 0
3, 480, Note_on_c, 0, 62, 0
3, 480, Note_on_c, 0, 63, 45
3, 480, Note_on_c, 0, 60, 40
3, 485, Control_c, 0, 64, 0
3, 579, Control_c, 0, 64, 127
3, 720, Note_on_c, 0, 55, 0
3, 720, Note_on_c, 0, 55, 33
3, 960, Note_on_c, 0, 60, 0
3, 960, Note_on_c, 0, 63, 0
3, 960, Note_on_c, 0, 62, 45
3, 960, Note_on_c, 0, 58, 40
3, 970, Control_c, 0, 64, 0
3, 1059, Control_c, 0, 64, 127
3, 1200, Note_on_c, 0, 55, 0
3, 1200, Note_on_c, 0, 55, 36
3, 1440, Note_on_c, 0, 58, 0
3, 1440, Note_on_c, 0, 62, 0
3, 1440, Note_on_c, 0, 62, 45
3, 1440, Note_on_c, 0, 57, 40
3, 1440, Note_on_c, 0, 60, 45
3, 1452, Control_c, 0, 64, 0
3, 1567, Control_c, 0, 64, 127
3, 1680, Note_on_c, 0, 55, 0
3, 1680, Note_on_c, 0, 55, 33
3, 1920, Note_on_c, 0, 62, 0
3, 1920, Note_on_c, 0, 60, 0
3, 1920, Note_on_c, 0, 57, 0
3, 1920, Note_on_c, 0, 62, 45
3, 1920, Note_on_c, 0, 58, 40
3, 1923, Control_c, 0, 64, 0
3, 1958, Control_c, 0, 64, 127
3, 2160, Note_on_c, 0, 55, 0
3, 2160, Note_on_c, 0, 55, 38
3, 2400, Note_on_c, 0, 58, 0
3, 2400, Note_on_c, 0, 62, 0
3, 2400, Note_on_c, 0, 60, 38
3, 2400, Note_on_c, 0, 63, 42
3, 2413, Control_c, 0, 64, 0
3, 2473, Control_c, 0, 64, 127
3, 2640, Note_on_c, 0, 55, 0
3, 2640, Note_on_c, 0, 55, 33
3, 2880, Note_on_c, 0, 63, 0
3, 2880, Note_on_c, 0, 60, 0
3, 2880, Note_on_c, 0, 62, 49
3, 2880, Note_on_c, 0, 58, 42
3, 2889, Control_c, 0, 64, 0
3, 2937, Control_c, 0, 64, 127
3, 3120, Note_on_c, 0, 55, 0
3, 3120, Note_on_c, 0, 55, 40
3, 3360, Note_on_c, 0, 58, 0
3, 3360, Note_on_c, 0, 62, 0
3, 3360, Note_on_c, 0, 60, 39
3, 3360, Note_on_c, 0, 57, 33
3, 3360, Note_on_c, 0, 62, 45
3, 3374, Control_c, 0, 64, 0
3, 3480, Control_c, 0, 64, 127
3, 3600, Note_on_c, 0, 55, 0
3, 3600, Note_on_c, 0, 55, 34
3, 3840, Note_on_c, 0, 60, 0
3, 3840, Note_on_c, 0, 62, 0
3, 3840, Note_on_c, 0, 57, 0
3, 3840, Note_on_c, 0, 58, 34
3, 3840, Note_on_c, 0, 62, 38
3, 3846, Control_c, 0, 64, 0
3, 3878, Control_c, 0, 64, 127
3, 4078, Note_on_c, 0, 62, 0
3, 4078, Note_on_c, 0, 58, 0
3, 4080, Note_on_c, 0, 55, 0
3, 4080, Note_on_c, 0, 43, 46
3, 4140, Note_on_c, 0, 43, 0
3, 4200, Note_on_c, 0, 43, 39
3, 4240, Note_on_c, 0, 43, 0
3, 4240, Note_on_c, 0, 45, 39
3, 4280, Note_on_c, 0, 45, 0
3, 4280, Note_on_c, 0, 43, 39
3, 4320, Note_on_c, 0, 43, 0
3, 4320, Note_on_c, 0, 42, 49
3, 4336, Control_c, 0, 64, 0
3, 4405, Control_c, 0, 64, 127
3, 4680, Note_on_c, 0, 42, 0
3, 4680, Note_on_c, 0, 45, 47
3, 4800, Note_on_c, 0, 45, 0
3, 4800, Note_on_c, 0, 43, 46
3, 4807, Control_c, 0, 64, 0
3, 4851, Control_c, 0, 64, 127
3, 4920, Note_on_c, 0, 46, 49
3, 4940, Note_on_c, 0, 43, 0
3, 5040, Note_on_c, 0, 50, 51
3, 5060, Note_on_c, 0, 46, 0
3, 5160, Note_on_c, 0, 54, 54
3, 5180, Note_on_c, 0, 50, 0
3, 5280, Note_on_c, 0, 55, 57
3, 5291, Control_c, 0, 64, 0
3, 5300, Note_on_c, 0, 54, 0
3, 5400, Control_c, 0, 64, 127
3, 5640, Note_on_c, 0, 55, 0
3, 5640, Note_on_c, 0, 54, 44
3, 5760, Note_on_c, 0, 54, 0
3, 5760, Note_on_c, 0, 50, 40
3, 5766, Control_c, 0, 64, 0
3, 5839, Control_c, 0, 64, 127
3, 6000, Note_on_c, 0, 62, 38
3, 6000, Note_on_c, 0, 55, 33
3, 6000, Note_on_c, 0, 58, 33
3, 6240, Note_on_c, 0, 58, 0
3, 6240, Note_on_c, 0, 50, 0
3, 6240, Note_on_c, 0, 62, 0
3, 6240, Note_on_c, 0, 55, 0
3, 6240, Note_on_c, 0, 48, 45
3, 6254, Control_c, 0, 64, 0
3, 6313, Control_c, 0, 64, 127
3, 6480, Note_on_c, 0, 54, 33
3, 6480, Note_on_c, 0, 62, 38
3, 6480, Note_on_c, 0, 57, 33
3, 6720, Note_on_c, 0, 57, 0
3, 6720, Note_on_c, 0, 48, 0
3, 6720, Note_on_c, 0, 54, 0
3, 6720, Note_on_c, 0, 62, 0
3, 6720, Note_on_c, 0, 46, 49
3, 6727, Control_c, 0, 64, 0
3, 6783, Control_c, 0, 64, 127
3, 6960, Note_on_c, 0, 46, 0
3, 6960, Note_on_c, 0, 62, 40
3, 6960, Note_on_c, 0, 58, 36
3, 6960, Note_on_c, 0, 55, 36
3, 7200, Note_on_c, 0, 55, 0
3, 7200, Note_on_c, 0, 58, 0
3, 7200, Note_on_c, 0, 62, 0
3, 7200, Note_on_c, 0, 47, 53
3, 7209, Control_c, 0, 64, 0
3, 7274, Control_c, 0, 64, 127
3, 7440, Note_on_c, 0, 47, 0
3, 7440, Note_on_c, 0, 59, 34
3, 7440, Note_on_c, 0, 55, 34
3, 7440, Note_on_c, 0, 62, 39
3, 7680, Note_on_c, 0, 62, 0
3, 7680, Note_on_c, 0, 55, 0
3, 7680, Note_on_c, 0, 59, 0
3, 7680, Note_on_c, 0, 48, 52
3, 7683, Control_c, 0, 64, 0
3, 7800, Note_on_c, 0, 54, 52
3, 7920, Note_on_c, 0, 48, 0
3, 7920, Note_on_c, 0, 55, 51
3, 7940, Note_on_c, 0, 54, 0
3, 7988, Control_c, 0, 64, 127
3, 8040, Note_on_c, 0, 60, 54
3, 8060, Note_on_c, 0, 55, 0
3, 8160, Note_on_c, 0, 65, 57
3, 8171, Control_c, 0, 64, 0
3, 8180, Note_on_c, 0, 60, 0
3, 8263, Control_c, 0, 64, 127
3, 8400, Note_on_c, 0, 55, 36
3, 8400, Note_on_c, 0, 60, 40
3, 8520, Note_on_c, 0, 65, 0
3, 8520, Note_on_c, 0, 63, 51
3, 8640, Note_on_c, 0, 63, 0
3, 8640, Note_on_c, 0, 60, 0
3, 8640, Note_on_c, 0, 55, 0
3, 8640, Control_c, 0, 64, 0
3, 8640, Note_on_c, 0, 58, 36
3, 8640, Note_on_c, 0, 55, 36
3, 8640, Note_on_c, 0, 62, 40
3, 8880, Note_on_c, 0, 50, 45
3, 8925, Control_c, 0, 64, 127
3, 9120, Note_on_c, 0, 62, 0
3, 9120, Note_on_c, 0, 58, 0
3, 9120, Note_on_c, 0, 55, 0
3, 9137, Control_c, 0, 64, 0
3, 9200, Control_c, 0, 64, 127
3, 9360, Note_on_c, 0, 62, 35
3, 9600, Note_on_c, 0, 62, 0
3, 9600, Note_on_c, 0, 50, 0
3, 9600, Control_c, 0, 64, 0
3, 9600, Note_on_c, 0, 43, 28
3, 9600, Note_on_c, 0, 50, 36
3, 9644, Control_c, 0, 64, 127
3, 9840, Note_on_c, 0, 50, 0
3, 9840, Note_on_c, 0, 43, 0
3, 9848, Control_c, 0, 64, 0
3, 10080, Note_on_c, 0, 66, 43
3, 10080, Note_on_c, 0, 63, 37
3, 10118, Control_c, 0, 64, 127
3, 10320, Note_on_c, 0, 58, 35
3, 10560, Note_on_c, 0, 63, 0
3, 10560, Note_on_c, 0, 66, 0
3, 10560, Control_c, 0, 64, 0
3, 10560, Note_on_c, 0, 65, 43
3, 10560, Note_on_c, 0, 62, 37
3, 10800, Note_on_c, 0, 58, 0
3, 10800, Note_on_c, 0, 58, 36
3, 11040, Note_on_c, 0, 62, 0
3, 11040, Note_on_c, 0, 65, 0
3, 11040, Note_on_c, 0, 63, 43
3, 11040, Note_on_c, 0, 60, 37
3, 11280, Note_on_c, 0, 58, 0
3, 11280, Note_on_c, 0, 58, 34
3, 11520, Note_on_c, 0, 60, 0
3, 11520, Note_on_c, 0, 63, 0
3, 11520, Note_on_c, 0, 65, 47
3, 11520, Note_on_c, 0, 62, 43
3, 11566, Control_c, 0, 64, 127
3, 11760, Note_on_c, 0, 58, 0
3, 11760, Note_on_c, 0, 58, 39
3, 12000, Note_on_c, 0, 62, 0
3, 12000, Note_on_c, 0, 65, 0
3, 12000, Note_on_c, 0, 62, 47
3, 12000, Note_on_c, 0, 72, 54
3, 12000, Note_on_c, 0, 66, 47
3, 12014, Control_c, 0, 64, 0
3, 12240, Note_on_c, 0, 58, 0
3, 12240, Note_on_c, 0, 58, 49
3, 12480, Note_on_c, 0, 62, 0
3, 12480, Note_on_c, 0, 66, 0
3, 12480, Note_on_c, 0, 72, 0
3, 12480, Note_on_c, 0, 62, 39
3, 12480, Note_on_c, 0, 70, 47
3, 12480, Note_on_c, 0, 67, 43
3, 12720, Note_on_c, 0, 58, 0
3, 12720, Note_on_c, 0, 58, 37
3, 12752, Control_c, 0, 64, 127
3, 12960, Note_on_c, 0, 62, 0
3, 12960, Note_on_c, 0, 67, 0
3, 12960, Note_on_c, 0, 70, 0
3, 12960, Note_on_c, 0, 60, 42
3, 12960, Note_on_c, 0, 63, 47
3, 12968, Control_c, 0, 64, 0
3, 13034, Control_c, 0, 64, 127
3, 13200, Note_on_c, 0, 58, 0
3, 13200, Note_on_c, 0, 58, 34
3, 13440, Note_on_c, 0, 63, 0
3, 13440, Note_on_c, 0, 60, 0
3, 13440, Note_on_c, 0, 62, 49
3, 13445, Control_c, 0, 64, 0
3, 13497, Control_c, 0, 64, 127
3, 13680, Note_on_c, 0, 58, 0
3, 13680, Note_on_c, 0, 58, 32
3, 13920, Note_on_c, 0, 62, 0
3, 13920, Note_on_c, 0, 66, 50
3, 13920, Note_on_c, 0, 63, 45
3, 13926, Control_c, 0, 64, 0
3, 13989, Control_c, 0, 64, 127
3, 14160, Note_on_c, 0, 58, 0
3, 14160, Note_on_c, 0, 58, 36
3, 14400, Note_on_c, 0, 63, 0
3, 14400, Note_on_c, 0, 66, 0
3, 14400, Control_c, 0, 64, 0
3, 14400, Note_on_c, 0, 62, 37
3, 14400, Note_on_c, 0, 65, 43
3, 14640, Note_on_c, 0, 58, 0
3, 14640, Note_on_c, 0, 58, 36
3, 14880, Note_on_c, 0, 65, 0
3, 14880, Note_on_c, 0, 62, 0
3, 14880, Note_on_c, 0, 60, 37
3, 14880, Note_on_c, 0, 63, 43
3, 15120, Note_on_c, 0, 58, 0
3, 15120, Note_on_c, 0, 58, 34
3, 15360, Note_on_c, 0, 63, 0
3, 15360, Note_on_c, 0, 60, 0
3, 15360, Note_on_c, 0, 62, 43
3, 15360, Note_on_c, 0, 65, 47
3, 15406, Control_c, 0, 64, 127
3, 15600, Note_on_c, 0, 58, 0
3, 15600, Note_on_c, 0, 58, 39
3, 15840, Note_on_c, 0, 65, 0
3, 15840, Note_on_c, 0, 62, 0
3, 15840, Note_on_c, 0, 66, 45
3, 15840, Note_on_c, 0, 72, 51
3, 15840, Note_on_c, 0, 62, 45
3, 15849, Control_c, 0, 64, 0
3, 16080, Note_on_c, 0, 58, 0
3, 16080, Note_on_c, 0, 58, 49
3, 16320, Note_on_c, 0, 66, 0
3, 16320, Note_on_c, 0, 62, 0
3, 16320, Note_on_c, 0, 72, 0
3, 16320, Note_on_c, 0, 62, 43
3, 16320, Note_on_c, 0, 67, 43
3, 16320, Note_on_c, 0, 70, 47
3, 16366, Control_c, 0, 64, 127
3, 16560, Note_on_c, 0, 58, 0
3, 16560, Note_on_c, 0, 58, 39
3, 16798, Note_on_c, 0, 70, 0
3, 16800, Note_on_c, 0, 62, 0
3, 16800, Note_on_c, 0, 67, 0
3, 16800, Note_on_c, 0, 50, 41
3, 16800, Note_on_c, 0, 54, 41
3, 16800, Note_on_c, 0, 60, 46
3, 16805, Control_c, 0, 64, 0
3, 17040, Note_on_c, 0, 58, 0
3, 17040, Note_on_c, 0, 46, 37
3, 17280, Note_on_c, 0, 50, 0
3, 17280, Note_on_c, 0, 60, 0
3, 17280, Note_on_c, 0, 54, 0
3, 17280, Note_on_c, 0, 58, 46
3, 17280, Note_on_c, 0, 50, 41
3, 17280, Note_on_c, 0, 55, 41
3, 17302, Control_c, 0, 64, 127
3, 17520, Note_on_c, 0, 46, 0
3, 17520, Note_on_c, 0, 46, 37
3, 17760, Note_on_c, 0, 58, 0
3, 17760, Note_on_c, 0, 55, 0
3, 17760, Note_on_c, 0, 50, 0
3, 17760, Note_on_c, 0, 51, 39
3, 17760, Note_on_c, 0, 54, 45
3, 17772, Control_c, 0, 64, 0
3, 17842, Control_c, 0, 64, 127
3, 18000, Note_on_c, 0, 46, 0
3, 18000, Note_on_c, 0, 46, 39
3, 18164, Control_c, 0, 64, 0
3, 18240, Note_on_c, 0, 54, 0
3, 18240, Note_on_c, 0, 51, 0
3, 18240, Note_on_c, 0, 53, 43
3, 18240, Note_on_c, 0, 50, 37
3, 18480, Note_on_c, 0, 46, 0
3, 18480, Note_on_c, 0, 46, 36
3, 18720, Note_on_c, 0, 50, 0
3, 18720, Note_on_c, 0, 53, 0
3, 18720, Note_on_c, 0, 51, 43
3, 18720, Note_on_c, 0, 48, 37
3, 18960, Note_on_c, 0, 46, 0
3, 18960, Note_on_c, 0, 46, 36
3, 19200, Note_on_c, 0, 48, 0
3, 19200, Note_on_c, 0, 51, 0
3, 19200, Note_on_c, 0, 53, 47
3, 19200, Note_on_c, 0, 50, 43
3, 19246, Control_c, 0, 64, 127
3, 19440, Note_on_c, 0, 46, 0
3, 19440, Note_on_c, 0, 46, 39
3, 19680, Note_on_c, 0, 50, 0
3, 19680, Note_on_c, 0, 53, 0
3, 19680, Note_on_c, 0, 54, 45
3, 19680, Note_on_c, 0, 60, 51
3, 19680, Note_on_c, 0, 50, 45
3, 19683, Control_c, 0, 64, 0
3, 19920, Note_on_c, 0, 46, 0
3, 19920, Note_on_c, 0, 46, 49
3, 20160, Note_on_c, 0, 54, 0
3, 20160, Note_on_c, 0, 50, 0
3, 20160, Note_on_c, 0, 60, 0
3, 20160, Note_on_c, 0, 50, 43
3, 20160, Note_on_c, 0, 55, 43
3, 20160, Note_on_c, 0, 58, 47
3, 20206, Control_c, 0, 64, 127
3, 20400, Note_on_c, 0, 46, 0
3, 20400, Note_on_c, 0, 46, 39
3, 20640, Note_on_c, 0, 50, 0
3, 20640, Note_on_c, 0, 58, 0
3, 20640, Note_on_c, 0, 55, 0
3, 20640, Note_on_c, 0, 52, 41
3, 20640, Note_on_c, 0, 57, 46
3, 20651, Control_c, 0, 64, 0
3, 20880, Note_on_c, 0, 46, 0
3, 20880, Note_on_c, 0, 45, 37
3, 21120, Note_on_c, 0, 45, 0
3, 21120, Note_on_c, 0, 57, 0
3, 21120, Note_on_c, 0, 52, 0
3, 21120, Note_on_c, 0, 50, 45
3, 21123, Control_c, 0, 64, 127
3, 21360, Note_on_c, 0, 38, 34
3, 21600, Note_on_c, 0, 38, 0
3, 21600, Note_on_c, 0, 50, 0
3, 21600, Note_on_c, 0, 58, 41
3, 21600, Note_on_c, 0, 55, 37
3, 21602, Control_c, 0, 64, 0
3, 21660, Control_c, 0, 64, 127
3, 21840, Note_on_c, 0, 50, 41
3, 21843, Control_c, 0, 64, 0
3, 21903, Control_c, 0, 64, 127
3, 22061, Control_c, 0, 64, 0
3, 22080, Note_on_c, 0, 50, 0
3, 22080, Note_on_c, 0, 55, 0
3, 22080, Note_on_c, 0, 58, 0
3, 22080, Note_on_c, 0, 60, 41
3, 22080, Note_on_c, 0, 57, 41
3, 22320, Note_on_c, 0, 50, 41
3, 22351, Control_c, 0, 64, 127
3, 22560, Note_on_c, 0, 50, 0
3, 22560, Note_on_c, 0, 57, 0
3, 22560, Note_on_c, 0, 60, 0
3, 22560, Note_on_c, 0, 58, 43
3, 22560, Note_on_c, 0, 62, 43
3, 22569, Control_c, 0, 64, 0
3, 22609, Control_c, 0, 64, 127
3, 22800, Note_on_c, 0, 50, 37
3, 22805, Control_c, 0, 64, 0
3, 22829, Control_c, 0, 64, 127
3, 23040, Note_on_c, 0, 50, 0
3, 23040, Note_on_c, 0, 62, 0
3, 23040, Note_on_c, 0, 58, 0
3, 23040, Control_c, 0, 64, 0
3, 23040, Note_on_c, 0, 57, 52
3, 23040, Note_on_c, 0, 60, 52
3, 23093, Control_c, 0, 64, 127
3, 23280, Note_on_c, 0, 50, 40
3, 23520, Note_on_c, 0, 50, 0
3, 23520, Note_on_c, 0, 60, 0
3, 23520, Note_on_c, 0, 57, 0
3, 23520, Note_on_c, 0, 55, 37
3, 23520, Note_on_c, 0, 58, 41
3, 23529, Control_c, 0, 64, 0
3, 23580, Control_c, 0, 64, 127
3, 23760, Note_on_c, 0, 50, 41
3, 23767, Control_c, 0, 64, 0
3, 23817, Control_c, 0, 64, 127
3, 23981, Control_c, 0, 64, 0
3, 24000, Note_on_c, 0, 50, 0
3, 24000, Note_on_c, 0, 58, 0
3, 24000, Note_on_c, 0, 55, 0
3, 24000, Note_on_c, 0, 57, 41
3, 24000, Note_on_c, 0, 60, 41
3, 24240, Note_on_c, 0, 50, 41
3, 24271, Control_c, 0, 64, 127
3, 24480, Note_on_c, 0, 50, 0
3, 24480, Note_on_c, 0, 60, 0
3, 24480, Note_on_c, 0, 57, 0
3, 24480, Note_on_c, 0, 62, 43
3, 24480, Note_on_c, 0, 58, 43
3, 24491, Control_c, 0, 64, 0
3, 24551, Control_c, 0, 64, 127
3, 24720, Note_on_c, 0, 50, 38
3, 24726, Control_c, 0, 64, 0
3, 24749, Control_c, 0, 64, 127
3, 24960, Note_on_c, 0, 50, 0
3, 24960, Note_on_c, 0, 58, 0
3, 24960, Note_on_c, 0, 62, 0
3, 24960, Note_on_c, 0, 60, 43
3, 24960, Note_on_c, 0, 57, 43
3, 24973, Control_c, 0, 64, 0
3, 25036, Control_c, 0, 64, 127
3, 25200, Note_on_c, 0, 50, 35
3, 25440, Note_on_c, 0, 50, 0
3, 25440, Note_on_c, 0, 57, 0
3, 25440, Note_on_c, 0, 60, 0
3, 25440, Note_on_c, 0, 55, 35
3, 25440, Note_on_c, 0, 58, 38
3, 25448, Control_c, 0, 64, 0
3, 25500, Control_c, 0, 64, 127
3, 25680, Note_on_c, 0, 50, 38
3, 25684, Control_c, 0, 64, 0
3, 25737, Control_c, 0, 64, 127
3, 25920, Note_on_c, 0, 50, 0
3, 25920, Note_on_c, 0, 58, 0
3, 25920, Note_on_c, 0, 55, 0
3, 25920, Note_on_c, 0, 57, 53
3, 25920, Note_on_c, 0, 60, 53
3, 25930, Control_c, 0, 64, 0
3, 26033, Control_c, 0, 64, 127
3, 26034, Control_c, 0, 64, 127
3, 26160, Note_on_c, 0, 50, 41
3, 26400, Note_on_c, 0, 50, 0
3, 26400, Note_on_c, 0, 60, 0
3, 26400, Note_on_c, 0, 57, 0
3, 26400, Note_on_c, 0, 55, 46
3, 26400, Note_on_c, 0, 58, 46
3, 26407, Control_c, 0, 64, 0
3, 26491, Control_c, 0, 64, 127
3, 26640, Note_on_c, 0, 50, 38
3, 26880, Note_on_c, 0, 50, 0
3, 26880, Note_on_c, 0, 58, 0
3, 26880, Note_on_c, 0, 55, 0
3, 26880, Note_on_c, 0, 54, 45
3, 26880, Note_on_c, 0, 57, 45
3, 26887, Control_c, 0, 64, 0
3, 26966, Control_c, 0, 64, 127
3, 27120, Note_on_c, 0, 50, 38
3, 27360, Note_on_c, 0, 50, 0
3, 27360, Note_on_c, 0, 57, 0
3, 27360, Note_on_c, 0, 54, 0
3, 27360, Note_on_c, 0, 55, 47
3, 27360, Note_on_c, 0, 58, 47
3, 27367, Control_c, 0, 64, 0
3, 27434, Control_c, 0, 64, 127
3, 27600, Note_on_c, 0, 50, 38
3, 27840, Note_on_c, 0, 50, 0
3, 27840, Note_on_c, 0, 58, 0
3, 27840, Note_on_c, 0, 55, 0
3, 27840, Note_on_c, 0, 57, 41
3, 27840, Note_on_c, 0, 54, 41
3, 27847, Control_c, 0, 64, 0
3, 27939, Control_c, 0, 64, 127
3, 28080, Note_on_c, 0, 50, 38
3, 28320, Note_on_c, 0, 50, 0
3, 28320, Note_on_c, 0, 54, 0
3, 28320, Note_on_c, 0, 57, 0
3, 28320, Note_on_c, 0, 57, 42
3, 28320, Note_on_c, 0, 54, 42
3, 28560, Note_on_c, 0, 50, 38
3, 28800, Note_on_c, 0, 50, 0
3, 28800, Note_on_c, 0, 54, 0
3, 28800, Note_on_c, 0, 57, 0
3, 28800, Control_c, 0, 64, 0
3, 28800, Note_on_c, 0, 62, 45
3, 28800, Note_on_c, 0, 58, 40
3, 28838, Control_c, 0, 64, 127
3, 29040, Note_on_c, 0, 55, 38
3, 29280, Note_on_c, 0, 58, 0
3, 29280, Note_on_c, 0, 62, 0
3, 29280, Note_on_c, 0, 63, 42
3, 29280, Note_on_c, 0, 60, 38
3, 29297, Control_c, 0, 64, 0
3, 29353, Control_c, 0, 64, 127
3, 29520, Note_on_c, 0, 55, 0
3, 29520, Note_on_c, 0, 55, 34
3, 29760, Note_on_c, 0, 60, 0
3, 29760, Note_on_c, 0, 63, 0
3, 29760, Note_on_c, 0, 58, 42
3, 29760, Note_on_c, 0, 62, 49
3, 29766, Control_c, 0, 64, 0
3, 29829, Control_c, 0, 64, 127
3, 30000, Note_on_c, 0, 55, 0
3, 30000, Note_on_c, 0, 55, 40
3, 30240, Note_on_c, 0, 62, 0
3, 30240, Note_on_c, 0, 58, 0
3, 30240, Note_on_c, 0, 62, 45
3, 30240, Note_on_c, 0, 60, 39
3, 30240, Note_on_c, 0, 57, 39
3, 30246, Control_c, 0, 64, 0
3, 30337, Control_c, 0, 64, 127
3, 30480, Note_on_c, 0, 55, 0
3, 30480, Note_on_c, 0, 55, 34
3, 30720, Note_on_c, 0, 62, 0
3, 30720, Note_on_c, 0, 57, 0
3, 30720, Note_on_c, 0, 60, 0
3, 30720, Note_on_c, 0, 62, 42
3, 30720, Note_on_c, 0, 58, 38
3, 30725, Control_c, 0, 64, 0
3, 30758, Control_c, 0, 64, 127
3, 30958, Note_on_c, 0, 58, 0
3, 30958, Note_on_c, 0, 62, 0
3, 30960, Note_on_c, 0, 55, 0
3, 30960, Note_on_c, 0, 43, 46
3, 31020, Note_on_c, 0, 43, 0
3, 31080, Note_on_c, 0, 43, 39
3, 31120, Note_on_c, 0, 43, 0
3, 31120, Note_on_c, 0, 45, 40
3, 31160, Note_on_c, 0, 45, 0
3, 31160, Note_on_c, 0, 43, 40
3, 31200, Note_on_c, 0, 43, 0
3, 31200, Note_on_c, 0, 42, 46
3, 31212, Control_c, 0, 64, 0
3, 31269, Control_c, 0, 64, 127
3, 31560, Note_on_c, 0, 42, 0
3, 31560, Note_on_c, 0, 45, 43
3, 31680, Note_on_c, 0, 45, 0
3, 31680, Note_on_c, 0, 43, 46
3, 31690, Control_c, 0, 64, 0
3, 31743, Control_c, 0, 64, 127
3, 31800, Note_on_c, 0, 46, 49
3, 31820, Note_on_c, 0, 43, 0
3, 31920, Note_on_c, 0, 50, 51
3, 31940, Note_on_c, 0, 46, 0
3, 32040, Note_on_c, 0, 54, 54
3, 32060, Note_on_c, 0, 50, 0
3, 32160, Note_on_c, 0, 55, 57
3, 32172, Control_c, 0, 64, 0
3, 32180, Note_on_c, 0, 54, 0
3, 32280, Control_c, 0, 64, 127
3, 32520, Note_on_c, 0, 55, 0
3, 32520, Note_on_c, 0, 54, 39
3, 32640, Note_on_c, 0, 54, 0
3, 32640, Note_on_c, 0, 50, 36
3, 32645, Control_c, 0, 64, 0
3, 32678, Control_c, 0, 64, 127
3, 32880, Note_on_c, 0, 55, 33
3, 32880, Note_on_c, 0, 58, 33
3, 32880, Note_on_c, 0, 62, 38
3, 33120, Note_on_c, 0, 62, 0
3, 33120, Note_on_c, 0, 50, 0
3, 33120, Note_on_c, 0, 55, 0
3, 33120, Note_on_c, 0, 58, 0
3, 33120, Note_on_c, 0, 48, 45
3, 33136, Control_c, 0, 64, 0
3, 33193, Control_c, 0, 64, 127
3, 33360, Note_on_c, 0, 57, 33
3, 33360, Note_on_c, 0, 62, 38
3, 33360, Note_on_c, 0, 54, 33
3, 33600, Note_on_c, 0, 54, 0
3, 33600, Note_on_c, 0, 48, 0
3, 33600, Note_on_c, 0, 57, 0
3, 33600, Note_on_c, 0, 62, 0
3, 33600, Note_on_c, 0, 46, 49
3, 33604, Control_c, 0, 64, 0
3, 33669, Control_c, 0, 64, 127
3, 33840, Note_on_c, 0, 46, 0
3, 33840, Note_on_c, 0, 62, 40
3, 33840, Note_on_c, 0, 55, 36
3, 33840, Note_on_c, 0, 58, 36
3, 34080, Note_on_c, 0, 58, 0
3, 34080, Note_on_c, 0, 55, 0
3, 34080, Note_on_c, 0, 62, 0
3, 34080, Note_on_c, 0, 47, 49
3, 34086, Control_c, 0, 64, 0
3, 34171, Control_c, 0, 64, 127
3, 34320, Note_on_c, 0, 47, 0
3, 34320, Note_on_c, 0, 59, 39
3, 34320, Note_on_c, 0, 55, 31
3, 34320, Note_on_c, 0, 62, 44
3, 34560, Note_on_c, 0, 62, 0
3, 34560, Note_on_c, 0, 55, 0
3, 34560, Note_on_c, 0, 59, 0
3, 34560, Control_c, 0, 64, 0
3, 34560, Note_on_c, 0, 48, 41
3, 34680, Note_on_c, 0, 54, 46
3, 34800, Note_on_c, 0, 48, 0
3, 34800, Note_on_c, 0, 55, 49
3, 34820, Note_on_c, 0, 54, 0
3, 34845, Control_c, 0, 64, 127
3, 34920, Note_on_c, 0, 60, 45
3, 34940, Note_on_c, 0, 55, 0
3, 35040, Note_on_c, 0, 65, 49
3, 35047, Control_c, 0, 64, 0
3, 35060, Note_on_c, 0, 60, 0
3, 35160, Control_c, 0, 64, 127
3, 35280, Note_on_c, 0, 60, 36
3, 35280, Note_on_c, 0, 55, 32
3, 35400, Note_on_c, 0, 65, 0
3, 35400, Note_on_c, 0, 63, 45
3, 35520, Note_on_c, 0, 63, 0
3, 35520, Note_on_c, 0, 55, 0
3, 35520, Note_on_c, 0, 60, 0
3, 35520, Control_c, 0, 64, 0
3, 35520, Note_on_c, 0, 62, 36
3, 35520, Note_on_c, 0, 55, 32
3, 35520, Note_on_c, 0, 58, 32
3, 35760, Note_on_c, 0, 50, 37
3, 35777, Control_c, 0, 64, 127
3, 36000, Note_on_c, 0, 58, 0
3, 36000, Note_on_c, 0, 62, 0
3, 36000, Note_on_c, 0, 55, 0
3, 36009, Control_c, 0, 64, 0
3, 36080, Control_c, 0, 64, 127
3, 36240, Note_on_c, 0, 62, 26
3, 36478, Note_on_c, 0, 62, 0
3, 36480, Note_on_c, 0, 50, 0
3, 36480, Note_on_c, 0, 50, 31
3, 36480, Note_on_c, 0, 43, 31
3, 36491, Control_c, 0, 64, 0
3, 36572, Control_c, 0, 64, 127
3, 36720, Note_on_c, 0, 62, 39
3, 36720, Note_on_c, 0, 55, 34
3, 36720, Note_on_c, 0, 58, 34
3, 36840, Note_on_c, 0, 58, 0
3, 36840, Note_on_c, 0, 62, 0
3, 36960, Note_on_c, 0, 50, 0
3, 36960, Note_on_c, 0, 43, 0
3, 36975, Control_c, 0, 64, 0
3, 37033, Control_c, 0, 64, 127
3, 37200, Note_on_c, 0, 63, 37
3, 37200, Note_on_c, 0, 60, 31
3, 37320, Note_on_c, 0, 60, 0
3, 37320, Note_on_c, 0, 63, 0
3, 37451, Control_c, 0, 64, 0
3, 37514, Control_c, 0, 64, 127
3, 37680, Note_on_c, 0, 62, 37
3, 37680, Note_on_c, 0, 58, 31
3, 37800, Note_on_c, 0, 58, 0
3, 37800, Note_on_c, 0, 62, 0
3, 37930, Control_c, 0, 64, 0
3, 38000, Control_c, 0, 64, 127
3, 38160, Note_on_c, 0, 60, 31
3, 38160, Note_on_c, 0, 63, 37
3, 38280, Note_on_c, 0, 63, 0
3, 38280, Note_on_c, 0, 60, 0
3, 38400, Note_on_c, 0, 58, 35
3, 38400, Note_on_c, 0, 62, 39
3, 38412, Control_c, 0, 64, 0
3, 38476, Control_c, 0, 64, 127
3, 38638, Note_on_c, 0, 62, 0
3, 38638, Note_on_c, 0, 58, 0
3, 38640, Note_on_c, 0, 55, 0
3, 38640, Note_on_c, 0, 43, 38
3, 38700, Note_on_c, 0, 43, 0
3, 38760, Note_on_c, 0, 43, 33
3, 38800, Note_on_c, 0, 43, 0
3, 38800, Note_on_c, 0, 45, 36
3, 38840, Note_on_c, 0, 45, 0
3, 38840, Note_on_c, 0, 43, 36
3, 38880, Note_on_c, 0, 43, 0
3, 38880, Note_on_c, 0, 42, 42
3, 38889, Control_c, 0, 64, 0
3, 38959, Control_c, 0, 64, 127
3, 39240, Note_on_c, 0, 42, 0
3, 39240, Note_on_c, 0, 45, 37
3, 39360, Note_on_c, 0, 45, 0
3, 39360, Note_on_c, 0, 43, 36
3, 39368, Control_c, 0, 64, 0
3, 39440, Control_c, 0, 64, 127
3, 39480, Note_on_c, 0, 46, 38
3, 39500, Note_on_c, 0, 43, 0
3, 39600, Note_on_c, 0, 50, 40
3, 39620, Note_on_c, 0, 46, 0
3, 39720, Note_on_c, 0, 54, 42
3, 39740, Note_on_c, 0, 50, 0
3, 39840, Note_on_c, 0, 55, 44
3, 39848, Control_c, 0, 64, 0
3, 39860, Note_on_c, 0, 54, 0
3, 39960, Control_c, 0, 64, 127
3, 40200, Note_on_c, 0, 55, 0
3, 40200, Note_on_c, 0, 54, 36
3, 40320, Note_on_c, 0, 54, 0
3, 40320, Note_on_c, 0, 50, 26
3, 40320, Note_on_c, 0, 43, 26
3, 40329, Control_c, 0, 64, 0
3, 40457, Control_c, 0, 64, 127
3, 40560, Note_on_c, 0, 43, 0
3, 40560, Note_on_c, 0, 50, 0
3, 40800, Note_on_c, 0, 55, 38
3, 40808, Control_c, 0, 64, 0
3, 40920, Control_c, 0, 64, 127
3, 41160, Note_on_c, 0, 55, 0
3, 41160, Note_on_c, 0, 54, 33
3, 41280, Note_on_c, 0, 54, 0
3, 41280, Note_on_c, 0, 50, 26
3, 41280, Note_on_c, 0, 43, 26
3, 41290, Control_c, 0, 64, 0
3, 41349, Control_c, 0, 64, 127
3, 41520, Note_on_c, 0, 43, 0
3, 41520, Note_on_c, 0, 50, 0
3, 41760, Note_on_c, 0, 55, 38
3, 41766, Control_c, 0, 64, 0
3, 41880, Control_c, 0, 64, 127
3, 42120, Note_on_c, 0, 55, 0
3, 42120, Note_on_c, 0, 54, 33
3, 42240, Note_on_c, 0, 54, 0
3, 42240, Note_on_c, 0, 43, 26
3, 42240, Note_on_c, 0, 50, 26
3, 42250, Control_c, 0, 64, 0
3, 42424, Control_c, 0, 64, 127
3, 44160, Note_on_c, 0, 50, 0
3, 44160, Note_on_c, 0, 43, 0
3, 44773, Control_c, 0, 64, 0
3, 44773, End_track
4, 0, Start_track
4, 0, Title_t, "Tschaikowsky: The Seasons: March"
4, 0, End_track
5, 0, Start_track
5, 0, Title_t, "Copyright © 2004 by Bernd Krüger"
5, 0, End_track
6, 0, Start_track
6, 0, Title_t, "http://www.piano-midi.de"
6, 0, End_track
7, 0, Start_track
7, 0, Title_t, "Edition: 2008-09-10"
7, 0, End_track
8, 0, Start_track
8, 0, End_track
9, 0, Start_track
9, 0, End_track
10, 0, Start_track
10, 0, End_track
0, 0, End_of_file
