0, 0, Header, 1, 8, 480
1, 0, Start_track
1, 0, Title_t, "Die Jahreszeiten"
1, 0, Title_t, "November"
1, 0, Copyright_t, "Copyright © 2004 by Bernd Krueger"
1, 0, Text_t, "Peter Tschaikowsky"
1, 0, Text_t, "Allogro moderato"
1, 0, Text_t, "Fertiggestellt am  9.12.2000\012"
1, 0, Text_t, "Normierung: 23.12.2002\012"
1, 0, Text_t, "Update am 8.9.2004\012"
1, 0, Text_t, "Update am 26.9.2008\012"
1, 0, Text_t, "Dauer: 2:58 Minuten\012"
1, 0, SMPTE_offset, 96, 0, 3, 0, 0
1, 0, Time_signature, 4, 2, 24, 8
1, 0, Key_signature, 4, "major"
1, 0, Tempo, 618876
1, 240, Tempo, 639863
1, 480, Tempo, 622278
1, 960, Tempo, 629195
1, 1440, Tempo, 618876
1, 1920, Tempo, 618876
1, 2160, Tempo, 654664
1, 2400, Tempo, 618876
1, 2880, Tempo, 629195
1, 3360, Tempo, 625717
1, 4080, Tempo, 643501
1, 4320, Tempo, 622278
1, 4800, Tempo, 629195
1, 5280, Tempo, 618876
1, 5760, Tempo, 629195
1, 6000, Tempo, 643501
1, 6240, Tempo, 629195
1, 7680, Tempo, 618876
1, 7920, Tempo, 639863
1, 8160, Tempo, 622278
1, 8640, Tempo, 629195
1, 9120, Tempo, 618876
1, 9600, Tempo, 618876
1, 9840, Tempo, 654664
1, 10080, Tempo, 618876
1, 10560, Tempo, 629195
1, 11040, Tempo, 625717
1, 11760, Tempo, 654664
1, 12000, Tempo, 622278
1, 12480, Tempo, 629195
1, 12960, Tempo, 632711
1, 13200, Tempo, 639863
1, 13440, Tempo, 629195
1, 14160, Tempo, 647179
1, 14400, Tempo, 632711
1, 14640, Tempo, 650900
1, 14820, Tempo, 839161
1, 14880, Tempo, 636267
1, 15120, Tempo, 643501
1, 15360, Tempo, 636267
1, 15600, Tempo, 647179
1, 15840, Tempo, 636267
1, 16320, Tempo, 636267
1, 16440, Tempo, 639863
1, 16560, Tempo, 643501
1, 16680, Tempo, 647179
1, 16760, Tempo, 650900
1, 16800, Tempo, 632711
1, 17040, Tempo, 654664
1, 17280, Tempo, 636267
1, 17520, Tempo, 643501
1, 18480, Tempo, 658472
1, 18720, Tempo, 647179
1, 18960, Tempo, 658472
1, 19200, Tempo, 639863
1, 19440, Tempo, 647179
1, 20160, Tempo, 636267
1, 20280, Tempo, 639863
1, 20400, Tempo, 643501
1, 20520, Tempo, 647179
1, 20600, Tempo, 650900
1, 20640, Tempo, 658472
1, 20880, Tempo, 654664
1, 21120, Tempo, 647179
1, 22800, Tempo, 654664
1, 23040, Tempo, 643501
1, 23280, Tempo, 647179
1, 23520, Tempo, 636267
1, 24000, Tempo, 636267
1, 24120, Tempo, 639863
1, 24240, Tempo, 643501
1, 24360, Tempo, 647179
1, 24440, Tempo, 650900
1, 24480, Tempo, 632711
1, 24720, Tempo, 654664
1, 24960, Tempo, 636267
1, 25200, Tempo, 643501
1, 26160, Tempo, 658472
1, 26400, Tempo, 647179
1, 26640, Tempo, 658472
1, 26880, Tempo, 639863
1, 27120, Tempo, 647179
1, 27840, Tempo, 636267
1, 27960, Tempo, 639863
1, 28080, Tempo, 643501
1, 28200, Tempo, 647179
1, 28280, Tempo, 650900
1, 28320, Tempo, 658472
1, 28560, Tempo, 654664
1, 28800, Tempo, 643501
1, 29040, Tempo, 662325
1, 29280, Tempo, 650900
1, 29760, Tempo, 639863
1, 30000, Tempo, 658472
1, 30240, Tempo, 650900
1, 30720, Tempo, 647179
1, 31680, Tempo, 654664
1, 31720, Tempo, 654664
1, 32160, Tempo, 670166
1, 32640, Tempo, 643501
1, 32880, Tempo, 639863
1, 33120, Tempo, 615385
1, 33400, Tempo, 612245
1, 33560, Tempo, 606061
1, 33720, Tempo, 609137
1, 33840, Tempo, 612245
1, 33960, Tempo, 615385
1, 34080, Tempo, 618557
1, 34560, Tempo, 618876
1, 34800, Tempo, 654664
1, 35040, Tempo, 615385
1, 35280, Tempo, 612245
1, 35480, Tempo, 609137
1, 35600, Tempo, 612245
1, 35720, Tempo, 615385
1, 35840, Tempo, 618557
1, 35960, Tempo, 621762
1, 36000, Tempo, 618876
1, 36480, Tempo, 618876
1, 36960, Tempo, 621762
1, 37120, Tempo, 618557
1, 37280, Tempo, 615385
1, 37440, Tempo, 612245
1, 37600, Tempo, 615385
1, 37760, Tempo, 618557
1, 37880, Tempo, 621762
1, 37920, Tempo, 618876
1, 38400, Tempo, 618876
1, 38840, Tempo, 618557
1, 39400, Tempo, 615385
1, 39640, Tempo, 618557
1, 39840, Tempo, 621762
1, 40320, Tempo, 643501
1, 40560, Tempo, 639863
1, 40800, Tempo, 622278
1, 40840, Tempo, 618557
1, 41000, Tempo, 615385
1, 41160, Tempo, 612245
1, 41320, Tempo, 609137
1, 41440, Tempo, 612245
1, 41520, Tempo, 615385
1, 41600, Tempo, 618557
1, 41680, Tempo, 621762
1, 41760, Tempo, 625000
1, 42240, Tempo, 618876
1, 42480, Tempo, 654664
1, 42720, Tempo, 618557
1, 42920, Tempo, 615385
1, 43080, Tempo, 612245
1, 43240, Tempo, 609137
1, 43360, Tempo, 612245
1, 43480, Tempo, 615385
1, 43600, Tempo, 618557
1, 43680, Tempo, 618876
1, 44160, Tempo, 618876
1, 44640, Tempo, 618557
1, 44880, Tempo, 615385
1, 45080, Tempo, 612245
1, 45240, Tempo, 615385
1, 45360, Tempo, 618557
1, 45480, Tempo, 621762
1, 45600, Tempo, 618876
1, 46080, Tempo, 618876
1, 46520, Tempo, 618557
1, 46800, Tempo, 615385
1, 47040, Tempo, 612245
1, 47240, Tempo, 615385
1, 47400, Tempo, 618557
1, 47560, Tempo, 621762
1, 48000, Tempo, 618876
1, 48480, Tempo, 621762
1, 48720, Tempo, 618557
1, 48960, Tempo, 615385
1, 49160, Tempo, 618557
1, 49320, Tempo, 621762
1, 49480, Tempo, 625000
1, 49920, Tempo, 618876
1, 50400, Tempo, 621762
1, 50560, Tempo, 618557
1, 50680, Tempo, 615385
1, 50800, Tempo, 612245
1, 50960, Tempo, 615385
1, 51080, Tempo, 618557
1, 51200, Tempo, 621762
1, 51320, Tempo, 625000
1, 51440, Tempo, 628272
1, 51520, Tempo, 631579
1, 51640, Tempo, 634921
1, 51840, Key_signature, 1, "major"
1, 51840, Tempo, 618557
1, 52020, Tempo, 515021
1, 52560, Tempo, 461538
1, 52800, Tempo, 474308
1, 53280, Tempo, 458015
1, 53520, Tempo, 465116
1, 53760, Tempo, 483871
1, 54000, Tempo, 497925
1, 54240, Tempo, 429123
1, 55200, Tempo, 399973
1, 55280, Tempo, 401499
1, 55320, Tempo, 403036
1, 55400, Tempo, 404558
1, 55440, Tempo, 406119
1, 55480, Tempo, 407664
1, 55560, Tempo, 409249
1, 55600, Tempo, 410846
1, 55640, Tempo, 412428
1, 55680, Tempo, 410846
1, 57120, Tempo, 399973
1, 57200, Tempo, 401499
1, 57240, Tempo, 403036
1, 57320, Tempo, 404558
1, 57360, Tempo, 406119
1, 57400, Tempo, 407664
1, 57480, Tempo, 409249
1, 57520, Tempo, 410846
1, 57560, Tempo, 412428
1, 57600, Tempo, 410846
1, 59040, Tempo, 399973
1, 59120, Tempo, 401499
1, 59160, Tempo, 403036
1, 59240, Tempo, 404558
1, 59280, Tempo, 406119
1, 59320, Tempo, 407664
1, 59400, Tempo, 379915
1, 59520, Tempo, 628272
1, 59700, Tempo, 515021
1, 60240, Tempo, 463320
1, 60480, Tempo, 476190
1, 60960, Tempo, 458015
1, 61200, Tempo, 470588
1, 61440, Tempo, 483871
1, 61680, Tempo, 497925
1, 61920, Tempo, 429123
1, 62880, Tempo, 399973
1, 62960, Tempo, 401499
1, 63000, Tempo, 403036
1, 63080, Tempo, 404558
1, 63120, Tempo, 406119
1, 63160, Tempo, 407664
1, 63240, Tempo, 409249
1, 63280, Tempo, 410846
1, 63320, Tempo, 412428
1, 63360, Tempo, 410846
1, 64800, Tempo, 399973
1, 64880, Tempo, 401499
1, 64920, Tempo, 403036
1, 65000, Tempo, 404558
1, 65040, Tempo, 406119
1, 65080, Tempo, 407664
1, 65160, Tempo, 409249
1, 65200, Tempo, 410846
1, 65240, Tempo, 412428
1, 65280, Tempo, 410846
1, 66720, Tempo, 399973
1, 66800, Tempo, 401499
1, 66840, Tempo, 403036
1, 66920, Tempo, 404558
1, 66960, Tempo, 406119
1, 67000, Tempo, 407664
1, 67080, Tempo, 409249
1, 67120, Tempo, 410846
1, 67160, Tempo, 412428
1, 67200, Tempo, 410846
1, 68640, Tempo, 399973
1, 68720, Tempo, 401499
1, 68760, Tempo, 403036
1, 68840, Tempo, 404558
1, 68880, Tempo, 406119
1, 68920, Tempo, 407664
1, 69000, Tempo, 409249
1, 69040, Tempo, 410846
1, 69080, Tempo, 412428
1, 69120, Tempo, 398486
1, 69200, Tempo, 399973
1, 69240, Tempo, 401499
1, 69320, Tempo, 403036
1, 69360, Tempo, 404558
1, 69400, Tempo, 406119
1, 69480, Tempo, 407664
1, 69520, Tempo, 409249
1, 69560, Tempo, 398486
1, 69640, Tempo, 399973
1, 69720, Tempo, 401499
1, 69760, Tempo, 403036
1, 69840, Tempo, 404558
1, 69920, Tempo, 406119
1, 69960, Tempo, 407664
1, 70080, Tempo, 404558
1, 70120, Tempo, 406119
1, 70160, Tempo, 407664
1, 70200, Tempo, 409249
1, 70240, Tempo, 412428
1, 70280, Tempo, 414050
1, 70320, Tempo, 415656
1, 70360, Tempo, 418965
1, 70400, Tempo, 420610
1, 70440, Tempo, 422297
1, 70480, Tempo, 425683
1, 70520, Tempo, 417304
1, 70600, Tempo, 418965
1, 70680, Tempo, 420610
1, 70720, Tempo, 422297
1, 70800, Tempo, 423968
1, 70840, Tempo, 425683
1, 70920, Tempo, 427411
1, 70960, Tempo, 429123
1, 71040, Tempo, 606061
1, 71220, Tempo, 506329
1, 71760, Tempo, 465116
1, 72000, Tempo, 474308
1, 72480, Tempo, 461538
1, 72720, Tempo, 472441
1, 72960, Tempo, 483871
1, 73200, Tempo, 500000
1, 73440, Tempo, 429123
1, 74400, Tempo, 399973
1, 74480, Tempo, 401499
1, 74520, Tempo, 403036
1, 74600, Tempo, 404558
1, 74640, Tempo, 406119
1, 74680, Tempo, 407664
1, 74760, Tempo, 409249
1, 74800, Tempo, 410846
1, 74840, Tempo, 412428
1, 74880, Tempo, 410846
1, 76320, Tempo, 399973
1, 76400, Tempo, 401499
1, 76440, Tempo, 403036
1, 76520, Tempo, 404558
1, 76560, Tempo, 406119
1, 76600, Tempo, 407664
1, 76680, Tempo, 409249
1, 76720, Tempo, 410846
1, 76760, Tempo, 412428
1, 76800, Tempo, 410846
1, 78240, Tempo, 399973
1, 78320, Tempo, 401499
1, 78360, Tempo, 403036
1, 78440, Tempo, 404558
1, 78480, Tempo, 406119
1, 78520, Tempo, 407664
1, 78600, Tempo, 379915
1, 78720, Tempo, 612245
1, 78900, Tempo, 510638
1, 79440, Tempo, 465116
1, 79680, Tempo, 470588
1, 80160, Tempo, 458015
1, 80400, Tempo, 470588
1, 80640, Tempo, 487805
1, 80880, Tempo, 495868
1, 81120, Tempo, 429123
1, 82080, Tempo, 399973
1, 82160, Tempo, 401499
1, 82200, Tempo, 403036
1, 82280, Tempo, 404558
1, 82320, Tempo, 406119
1, 82360, Tempo, 407664
1, 82440, Tempo, 409249
1, 82480, Tempo, 410846
1, 82520, Tempo, 412428
1, 82560, Tempo, 410846
1, 84000, Tempo, 399973
1, 84080, Tempo, 401499
1, 84120, Tempo, 403036
1, 84200, Tempo, 404558
1, 84240, Tempo, 406119
1, 84280, Tempo, 407664
1, 84360, Tempo, 409249
1, 84400, Tempo, 410846
1, 84440, Tempo, 412428
1, 84480, Tempo, 410846
1, 85920, Tempo, 399973
1, 86000, Tempo, 401499
1, 86040, Tempo, 403036
1, 86120, Tempo, 404558
1, 86160, Tempo, 406119
1, 86200, Tempo, 407664
1, 86280, Tempo, 409249
1, 86320, Tempo, 410846
1, 86360, Tempo, 412428
1, 86400, Tempo, 410846
1, 88080, Tempo, 418118
1, 88280, Tempo, 412428
1, 88320, Tempo, 410846
1, 90000, Tempo, 418118
1, 90240, Tempo, 410959
1, 90600, Tempo, 415225
1, 90720, Tempo, 410959
1, 91080, Tempo, 413793
1, 91200, Tempo, 410959
1, 91560, Tempo, 415225
1, 91720, Tempo, 410959
1, 92040, Tempo, 415225
1, 92160, Tempo, 410959
1, 92520, Tempo, 415225
1, 92640, Tempo, 410959
1, 93000, Tempo, 416667
1, 93120, Tempo, 410959
1, 93480, Tempo, 416667
1, 93600, Tempo, 410959
1, 93960, Tempo, 415225
1, 94080, Tempo, 410959
1, 94120, Tempo, 412371
1, 94360, Tempo, 413793
1, 94560, Tempo, 415225
1, 94800, Tempo, 416667
1, 95000, Tempo, 418118
1, 95200, Tempo, 419580
1, 95440, Tempo, 421053
1, 95640, Tempo, 422535
1, 95840, Tempo, 424028
1, 95941, Tempo, 466926
1, 96000, Key_signature, 4, "major"
1, 96000, Tempo, 429461
1, 96240, Tempo, 444017
1, 96480, Tempo, 431810
1, 96960, Tempo, 436618
1, 97440, Tempo, 429461
1, 97920, Tempo, 429461
1, 98160, Tempo, 454305
1, 98400, Tempo, 429461
1, 98880, Tempo, 436618
1, 99360, Tempo, 434185
1, 100080, Tempo, 446528
1, 100320, Tempo, 431810
1, 100800, Tempo, 436618
1, 101280, Tempo, 429461
1, 101760, Tempo, 436618
1, 102000, Tempo, 446528
1, 102240, Tempo, 436618
1, 103680, Tempo, 429461
1, 103920, Tempo, 444017
1, 104160, Tempo, 431810
1, 104640, Tempo, 436618
1, 105120, Tempo, 429461
1, 105600, Tempo, 429461
1, 105840, Tempo, 454305
1, 106080, Tempo, 429461
1, 106560, Tempo, 436618
1, 107040, Tempo, 439560
1, 107760, Tempo, 458015
1, 108000, Tempo, 437956
1, 108480, Tempo, 442804
1, 108960, Tempo, 447761
1, 109200, Tempo, 444017
1, 109240, Tempo, 451128
1, 109440, Tempo, 446097
1, 109920, Tempo, 452830
1, 109960, Tempo, 459770
1, 110160, Tempo, 472441
1, 110400, Tempo, 461538
1, 110640, Tempo, 481928
1, 110880, Tempo, 470588
1, 111120, Tempo, 519481
1, 111360, Tempo, 636267
1, 111600, Tempo, 647179
1, 111840, Tempo, 636267
1, 112320, Tempo, 636267
1, 112440, Tempo, 639863
1, 112560, Tempo, 643501
1, 112680, Tempo, 647179
1, 112760, Tempo, 650900
1, 112800, Tempo, 632711
1, 113040, Tempo, 654664
1, 113280, Tempo, 636267
1, 113520, Tempo, 643501
1, 114480, Tempo, 658472
1, 114720, Tempo, 647179
1, 114960, Tempo, 658472
1, 115200, Tempo, 639863
1, 115440, Tempo, 647179
1, 116160, Tempo, 636267
1, 116280, Tempo, 639863
1, 116400, Tempo, 643501
1, 116520, Tempo, 647179
1, 116600, Tempo, 650900
1, 116640, Tempo, 658472
1, 116880, Tempo, 654664
1, 117120, Tempo, 647179
1, 118800, Tempo, 654664
1, 119040, Tempo, 643501
1, 119280, Tempo, 647179
1, 119520, Tempo, 636267
1, 120000, Tempo, 636267
1, 120120, Tempo, 639863
1, 120240, Tempo, 643501
1, 120360, Tempo, 647179
1, 120440, Tempo, 650900
1, 120480, Tempo, 632711
1, 120720, Tempo, 654664
1, 120960, Tempo, 636267
1, 121200, Tempo, 643501
1, 122160, Tempo, 658472
1, 122400, Tempo, 647179
1, 122640, Tempo, 658472
1, 122880, Tempo, 639863
1, 123120, Tempo, 647179
1, 123840, Tempo, 636267
1, 123960, Tempo, 639863
1, 124080, Tempo, 643501
1, 124200, Tempo, 647179
1, 124280, Tempo, 650900
1, 124320, Tempo, 658472
1, 124560, Tempo, 654664
1, 124800, Tempo, 643501
1, 125040, Tempo, 662325
1, 125280, Tempo, 650900
1, 125760, Tempo, 639863
1, 126000, Tempo, 658472
1, 126240, Tempo, 650900
1, 126720, Tempo, 647179
1, 127680, Tempo, 654664
1, 127720, Tempo, 654664
1, 128160, Tempo, 670166
1, 128640, Tempo, 410959
1, 128680, Tempo, 412371
1, 130501, Tempo, 466926
1, 130600, Tempo, 412371
1, 130840, Tempo, 413793
1, 131040, Tempo, 415225
1, 131280, Tempo, 416667
1, 131480, Tempo, 418118
1, 131680, Tempo, 419580
1, 131920, Tempo, 421053
1, 132120, Tempo, 422535
1, 132320, Tempo, 424028
1, 132421, Tempo, 466926
1, 132480, Tempo, 429461
1, 132720, Tempo, 444017
1, 132960, Tempo, 431810
1, 133440, Tempo, 436618
1, 133920, Tempo, 429461
1, 134400, Tempo, 429461
1, 134640, Tempo, 454305
1, 134880, Tempo, 429461
1, 135360, Tempo, 436618
1, 135840, Tempo, 434185
1, 136560, Tempo, 446528
1, 136800, Tempo, 431810
1, 137280, Tempo, 436618
1, 137760, Tempo, 429461
1, 138240, Tempo, 436618
1, 138480, Tempo, 446528
1, 138720, Tempo, 436618
1, 140160, Tempo, 429461
1, 140400, Tempo, 444017
1, 140640, Tempo, 431810
1, 141120, Tempo, 436618
1, 141600, Tempo, 429461
1, 142080, Tempo, 429461
1, 142320, Tempo, 439560
1, 142560, Tempo, 429461
1, 143040, Tempo, 436618
1, 143520, Tempo, 433213
1, 144240, Tempo, 439560
1, 144480, Tempo, 433213
1, 144960, Tempo, 437956
1, 145440, Tempo, 433213
1, 145680, Tempo, 441176
1, 145920, Tempo, 434783
1, 146640, Tempo, 439560
1, 146880, Tempo, 442804
1, 147120, Tempo, 452830
1, 147360, Tempo, 442804
1, 147840, Tempo, 434783
1, 148560, Tempo, 439560
1, 148800, Tempo, 442804
1, 149040, Tempo, 452830
1, 149280, Tempo, 442804
1, 149760, Tempo, 434783
1, 150480, Tempo, 439560
1, 150720, Tempo, 442804
1, 150960, Tempo, 452830
1, 151200, Tempo, 447761
1, 151660, Tempo, 449438
1, 151740, Tempo, 451128
1, 151780, Tempo, 452830
1, 151860, Tempo, 454545
1, 151900, Tempo, 456274
1, 151940, Tempo, 458015
1, 152020, Tempo, 459770
1, 152060, Tempo, 461538
1, 152100, Tempo, 463320
1, 152180, Tempo, 465116
1, 152220, Tempo, 466926
1, 152260, Tempo, 468750
1, 152340, Tempo, 470588
1, 152380, Tempo, 472441
1, 152420, Tempo, 474308
1, 152500, Tempo, 476190
1, 152540, Tempo, 478088
1, 152580, Tempo, 480000
1, 152660, Tempo, 481928
1, 152700, Tempo, 483871
1, 152740, Tempo, 485830
1, 152820, Tempo, 487805
1, 152860, Tempo, 489796
1, 152940, Tempo, 491803
1, 152980, Tempo, 493827
1, 153020, Tempo, 495868
1, 153100, Tempo, 497925
1, 153140, Tempo, 500000
1, 154060, Tempo, 517241
1, 154180, Tempo, 519481
1, 154260, Tempo, 521739
1, 154340, Tempo, 524017
1, 154420, Tempo, 526316
1, 154500, Tempo, 528634
1, 154580, Tempo, 530973
1, 154660, Tempo, 533333
1, 154740, Tempo, 535714
1, 154820, Tempo, 538117
1, 154900, Tempo, 540541
1, 154980, Tempo, 542986
1, 155060, Tempo, 545455
1, 155140, Tempo, 547945
1, 155220, Tempo, 550459
1, 155300, Tempo, 552995
1, 155380, Tempo, 555556
1, 155460, Tempo, 558140
1, 155500, Tempo, 612245
1, 155580, Tempo, 615385
1, 155620, Tempo, 618557
1, 155660, Tempo, 621762
1, 155740, Tempo, 625000
1, 155780, Tempo, 628272
1, 155820, Tempo, 631579
1, 155900, Tempo, 634921
1, 155940, Tempo, 638298
1, 155980, Tempo, 641711
1, 156060, Tempo, 645161
1, 156100, Tempo, 648649
1, 156140, Tempo, 652174
1, 156220, Tempo, 655738
1, 156260, Tempo, 659341
1, 156340, Tempo, 662983
1, 156380, Tempo, 666667
1, 156420, Tempo, 670391
1, 156480, Tempo, 705882
1, 156520, Tempo, 710059
1, 156560, Tempo, 714286
1, 156600, Tempo, 722892
1, 156640, Tempo, 727273
1, 156680, Tempo, 731707
1, 156720, Tempo, 740741
1, 156760, Tempo, 745342
1, 156800, Tempo, 750000
1, 156840, Tempo, 759494
1, 156880, Tempo, 764331
1, 156920, Tempo, 769231
1, 156960, Tempo, 779221
1, 157000, Tempo, 784314
1, 157040, Tempo, 789474
1, 157080, Tempo, 800000
1, 157120, Tempo, 805369
1, 157160, Tempo, 810811
1, 157200, Tempo, 821918
1, 157240, Tempo, 827586
1, 157280, Tempo, 833333
1, 157320, Tempo, 1200000
1, 157440, Tempo, 600000
1, 159360, Tempo, 666667
1, 159360, End_track
2, 0, Start_track
2, 0, Title_t, "Piano right"
2, 0, Program_c, 0, 0
2, 0, Control_c, 0, 7, 100
2, 0, Control_c, 0, 10, 64
2, 0, Note_on_c, 0, 73, 68
2, 0, Control_c, 0, 91, 127
2, 0, Text_t, "bdca426d104a26ac9dcb070447587523"
2, 240, Note_on_c, 0, 73, 0
2, 240, Note_on_c, 0, 71, 62
2, 480, Note_on_c, 0, 71, 0
2, 480, Note_on_c, 0, 76, 63
2, 960, Note_on_c, 0, 68, 44
2, 960, Note_on_c, 0, 71, 44
2, 1440, Note_on_c, 0, 71, 0
2, 1440, Note_on_c, 0, 68, 0
2, 1440, Note_on_c, 0, 76, 0
2, 1440, Note_on_c, 0, 80, 67
2, 1680, Note_on_c, 0, 80, 0
2, 1680, Note_on_c, 0, 83, 63
2, 1920, Note_on_c, 0, 83, 0
2, 1920, Note_on_c, 0, 85, 69
2, 2160, Note_on_c, 0, 85, 0
2, 2160, Note_on_c, 0, 83, 62
2, 2400, Note_on_c, 0, 83, 0
2, 2400, Note_on_c, 0, 80, 64
2, 2880, Note_on_c, 0, 71, 44
2, 2880, Note_on_c, 0, 68, 44
2, 3360, Note_on_c, 0, 68, 0
2, 3360, Note_on_c, 0, 71, 0
2, 3360, Note_on_c, 0, 80, 0
2, 3360, Note_on_c, 0, 76, 63
2, 3600, Note_on_c, 0, 76, 0
2, 3600, Note_on_c, 0, 73, 60
2, 3840, Note_on_c, 0, 73, 0
2, 3840, Note_on_c, 0, 80, 63
2, 4080, Note_on_c, 0, 80, 0
2, 4080, Note_on_c, 0, 78, 59
2, 4320, Note_on_c, 0, 78, 0
2, 4320, Note_on_c, 0, 73, 62
2, 4800, Note_on_c, 0, 66, 44
2, 4800, Note_on_c, 0, 69, 44
2, 5280, Note_on_c, 0, 69, 0
2, 5280, Note_on_c, 0, 66, 0
2, 5280, Note_on_c, 0, 73, 0
2, 5280, Note_on_c, 0, 73, 61
2, 5520, Note_on_c, 0, 73, 0
2, 5520, Note_on_c, 0, 71, 57
2, 5760, Note_on_c, 0, 71, 0
2, 5760, Note_on_c, 0, 78, 62
2, 6000, Note_on_c, 0, 78, 0
2, 6000, Note_on_c, 0, 76, 57
2, 6240, Note_on_c, 0, 76, 0
2, 6240, Note_on_c, 0, 71, 58
2, 6720, Note_on_c, 0, 68, 44
2, 6720, Note_on_c, 0, 64, 44
2, 7200, Note_on_c, 0, 64, 0
2, 7200, Note_on_c, 0, 68, 0
2, 7200, Note_on_c, 0, 71, 0
2, 7200, Note_on_c, 0, 70, 61
2, 7440, Note_on_c, 0, 70, 0
2, 7440, Note_on_c, 0, 71, 59
2, 7680, Note_on_c, 0, 71, 0
2, 7680, Note_on_c, 0, 73, 68
2, 7920, Note_on_c, 0, 73, 0
2, 7920, Note_on_c, 0, 71, 62
2, 8160, Note_on_c, 0, 71, 0
2, 8160, Note_on_c, 0, 76, 63
2, 8640, Note_on_c, 0, 68, 44
2, 8640, Note_on_c, 0, 71, 44
2, 9120, Note_on_c, 0, 71, 0
2, 9120, Note_on_c, 0, 68, 0
2, 9120, Note_on_c, 0, 76, 0
2, 9120, Note_on_c, 0, 80, 67
2, 9360, Note_on_c, 0, 80, 0
2, 9360, Note_on_c, 0, 83, 63
2, 9600, Note_on_c, 0, 83, 0
2, 9600, Note_on_c, 0, 85, 69
2, 9840, Note_on_c, 0, 85, 0
2, 9840, Note_on_c, 0, 83, 62
2, 10080, Note_on_c, 0, 83, 0
2, 10080, Note_on_c, 0, 80, 64
2, 10560, Note_on_c, 0, 68, 44
2, 10560, Note_on_c, 0, 71, 44
2, 11040, Note_on_c, 0, 71, 0
2, 11040, Note_on_c, 0, 68, 0
2, 11040, Note_on_c, 0, 80, 0
2, 11040, Note_on_c, 0, 76, 63
2, 11280, Note_on_c, 0, 76, 0
2, 11280, Note_on_c, 0, 73, 60
2, 11520, Note_on_c, 0, 73, 0
2, 11520, Note_on_c, 0, 71, 63
2, 11760, Note_on_c, 0, 71, 0
2, 11760, Note_on_c, 0, 75, 59
2, 12000, Note_on_c, 0, 75, 0
2, 12000, Note_on_c, 0, 83, 62
2, 12480, Note_on_c, 0, 75, 44
2, 12480, Note_on_c, 0, 71, 44
2, 12960, Note_on_c, 0, 71, 0
2, 12960, Note_on_c, 0, 75, 0
2, 12960, Note_on_c, 0, 83, 0
2, 12960, Note_on_c, 0, 82, 61
2, 13200, Note_on_c, 0, 82, 0
2, 13200, Note_on_c, 0, 80, 57
2, 13440, Note_on_c, 0, 80, 0
2, 13440, Note_on_c, 0, 76, 57
2, 13920, Note_on_c, 0, 76, 0
2, 13920, Note_on_c, 0, 70, 44
2, 13920, Note_on_c, 0, 67, 44
2, 13920, Note_on_c, 0, 75, 57
2, 14160, Note_on_c, 0, 75, 0
2, 14160, Note_on_c, 0, 73, 53
2, 14400, Note_on_c, 0, 73, 0
2, 14400, Note_on_c, 0, 67, 0
2, 14400, Note_on_c, 0, 70, 0
2, 14400, Note_on_c, 0, 73, 57
2, 14400, Note_on_c, 0, 63, 40
2, 14400, Note_on_c, 0, 68, 40
2, 14640, Note_on_c, 0, 73, 0
2, 14640, Note_on_c, 0, 71, 52
2, 14880, Note_on_c, 0, 71, 0
2, 14880, Note_on_c, 0, 68, 0
2, 14880, Note_on_c, 0, 63, 0
2, 14880, Note_on_c, 0, 59, 37
2, 14880, Note_on_c, 0, 70, 52
2, 14880, Note_on_c, 0, 63, 38
2, 15120, Note_on_c, 0, 70, 0
2, 15120, Note_on_c, 0, 68, 52
2, 15360, Note_on_c, 0, 68, 0
2, 15360, Note_on_c, 0, 63, 0
2, 15360, Note_on_c, 0, 59, 0
2, 15360, Note_on_c, 0, 69, 64
2, 15600, Note_on_c, 0, 69, 0
2, 15600, Note_on_c, 0, 65, 60
2, 15840, Note_on_c, 0, 65, 0
2, 15840, Note_on_c, 0, 66, 64
2, 16440, Note_on_c, 0, 61, 39
2, 16560, Note_on_c, 0, 61, 0
2, 16560, Note_on_c, 0, 66, 0
2, 16560, Note_on_c, 0, 66, 39
2, 16680, Note_on_c, 0, 66, 0
2, 16680, Note_on_c, 0, 69, 42
2, 16800, Note_on_c, 0, 69, 0
2, 16800, Note_on_c, 0, 78, 67
2, 17040, Note_on_c, 0, 78, 0
2, 17040, Note_on_c, 0, 76, 63
2, 17280, Note_on_c, 0, 76, 0
2, 17280, Note_on_c, 0, 76, 67
2, 17520, Note_on_c, 0, 76, 0
2, 17520, Note_on_c, 0, 74, 63
2, 17760, Note_on_c, 0, 74, 0
2, 17760, Note_on_c, 0, 75, 66
2, 18360, Note_on_c, 0, 63, 39
2, 18480, Note_on_c, 0, 63, 0
2, 18480, Note_on_c, 0, 66, 39
2, 18600, Note_on_c, 0, 66, 0
2, 18600, Note_on_c, 0, 69, 42
2, 18720, Note_on_c, 0, 69, 0
2, 18720, Note_on_c, 0, 75, 0
2, 18720, Note_on_c, 0, 73, 67
2, 18960, Note_on_c, 0, 73, 0
2, 18960, Note_on_c, 0, 71, 67
2, 19200, Note_on_c, 0, 71, 0
2, 19200, Note_on_c, 0, 69, 64
2, 19440, Note_on_c, 0, 69, 0
2, 19440, Note_on_c, 0, 65, 60
2, 19680, Note_on_c, 0, 65, 0
2, 19680, Note_on_c, 0, 66, 64
2, 20280, Note_on_c, 0, 61, 46
2, 20400, Note_on_c, 0, 61, 0
2, 20400, Note_on_c, 0, 66, 0
2, 20400, Note_on_c, 0, 66, 50
2, 20520, Note_on_c, 0, 66, 0
2, 20520, Note_on_c, 0, 69, 55
2, 20640, Note_on_c, 0, 69, 0
2, 20640, Note_on_c, 0, 81, 68
2, 20800, Note_on_c, 0, 81, 0
2, 20800, Note_on_c, 0, 80, 64
2, 20960, Note_on_c, 0, 80, 0
2, 20960, Note_on_c, 0, 78, 63
2, 21120, Note_on_c, 0, 78, 0
2, 21120, Note_on_c, 0, 76, 68
2, 21360, Note_on_c, 0, 76, 0
2, 21360, Note_on_c, 0, 63, 35
2, 21360, Note_on_c, 0, 69, 35
2, 21360, Note_on_c, 0, 75, 60
2, 21600, Note_on_c, 0, 75, 0
2, 21600, Note_on_c, 0, 69, 0
2, 21600, Note_on_c, 0, 63, 0
2, 21600, Note_on_c, 0, 73, 68
2, 21840, Note_on_c, 0, 73, 0
2, 21840, Note_on_c, 0, 64, 35
2, 21840, Note_on_c, 0, 69, 35
2, 21840, Note_on_c, 0, 75, 59
2, 22080, Note_on_c, 0, 75, 0
2, 22080, Note_on_c, 0, 69, 0
2, 22080, Note_on_c, 0, 64, 0
2, 22080, Note_on_c, 0, 73, 63
2, 22320, Note_on_c, 0, 73, 0
2, 22320, Note_on_c, 0, 71, 56
2, 22320, Note_on_c, 0, 65, 35
2, 22560, Note_on_c, 0, 65, 0
2, 22560, Note_on_c, 0, 71, 0
2, 22560, Note_on_c, 0, 70, 59
2, 22800, Note_on_c, 0, 70, 0
2, 22800, Note_on_c, 0, 66, 35
2, 22800, Note_on_c, 0, 71, 57
2, 23040, Note_on_c, 0, 71, 0
2, 23040, Note_on_c, 0, 66, 0
2, 23040, Note_on_c, 0, 69, 64
2, 23280, Note_on_c, 0, 69, 0
2, 23280, Note_on_c, 0, 65, 60
2, 23520, Note_on_c, 0, 65, 0
2, 23520, Note_on_c, 0, 66, 64
2, 24120, Note_on_c, 0, 61, 39
2, 24240, Note_on_c, 0, 61, 0
2, 24240, Note_on_c, 0, 66, 0
2, 24240, Note_on_c, 0, 66, 39
2, 24360, Note_on_c, 0, 66, 0
2, 24360, Note_on_c, 0, 69, 42
2, 24480, Note_on_c, 0, 69, 0
2, 24480, Note_on_c, 0, 78, 67
2, 24720, Note_on_c, 0, 78, 0
2, 24720, Note_on_c, 0, 76, 63
2, 24960, Note_on_c, 0, 76, 0
2, 24960, Note_on_c, 0, 76, 67
2, 25200, Note_on_c, 0, 76, 0
2, 25200, Note_on_c, 0, 74, 63
2, 25440, Note_on_c, 0, 74, 0
2, 25440, Note_on_c, 0, 75, 66
2, 26040, Note_on_c, 0, 63, 39
2, 26160, Note_on_c, 0, 63, 0
2, 26160, Note_on_c, 0, 66, 39
2, 26280, Note_on_c, 0, 66, 0
2, 26280, Note_on_c, 0, 69, 42
2, 26400, Note_on_c, 0, 69, 0
2, 26400, Note_on_c, 0, 75, 0
2, 26400, Note_on_c, 0, 73, 67
2, 26640, Note_on_c, 0, 73, 0
2, 26640, Note_on_c, 0, 71, 67
2, 26880, Note_on_c, 0, 71, 0
2, 26880, Note_on_c, 0, 69, 64
2, 27120, Note_on_c, 0, 69, 0
2, 27120, Note_on_c, 0, 65, 60
2, 27360, Note_on_c, 0, 65, 0
2, 27360, Note_on_c, 0, 66, 64
2, 27960, Note_on_c, 0, 61, 46
2, 28080, Note_on_c, 0, 61, 0
2, 28080, Note_on_c, 0, 66, 0
2, 28080, Note_on_c, 0, 66, 50
2, 28200, Note_on_c, 0, 66, 0
2, 28200, Note_on_c, 0, 69, 55
2, 28320, Note_on_c, 0, 69, 0
2, 28320, Note_on_c, 0, 81, 68
2, 28480, Note_on_c, 0, 81, 0
2, 28480, Note_on_c, 0, 80, 64
2, 28640, Note_on_c, 0, 80, 0
2, 28640, Note_on_c, 0, 78, 63
2, 28800, Note_on_c, 0, 78, 0
2, 28800, Note_on_c, 0, 76, 68
2, 29040, Note_on_c, 0, 76, 0
2, 29040, Note_on_c, 0, 63, 35
2, 29040, Note_on_c, 0, 69, 35
2, 29040, Note_on_c, 0, 75, 60
2, 29280, Note_on_c, 0, 75, 0
2, 29280, Note_on_c, 0, 69, 0
2, 29280, Note_on_c, 0, 63, 0
2, 29280, Note_on_c, 0, 80, 64
2, 29440, Note_on_c, 0, 80, 0
2, 29440, Note_on_c, 0, 78, 61
2, 29600, Note_on_c, 0, 78, 0
2, 29600, Note_on_c, 0, 76, 60
2, 29760, Note_on_c, 0, 76, 0
2, 29760, Note_on_c, 0, 75, 63
2, 30000, Note_on_c, 0, 75, 0
2, 30000, Note_on_c, 0, 64, 29
2, 30000, Note_on_c, 0, 73, 59
2, 30000, Note_on_c, 0, 69, 29
2, 30240, Note_on_c, 0, 69, 0
2, 30240, Note_on_c, 0, 73, 0
2, 30240, Note_on_c, 0, 64, 0
2, 30240, Note_on_c, 0, 78, 63
2, 30400, Note_on_c, 0, 78, 0
2, 30400, Note_on_c, 0, 76, 60
2, 30560, Note_on_c, 0, 76, 0
2, 30560, Note_on_c, 0, 75, 60
2, 30720, Note_on_c, 0, 75, 0
2, 30720, Note_on_c, 0, 73, 71
2, 30960, Note_on_c, 0, 73, 0
2, 30960, Note_on_c, 0, 69, 37
2, 30960, Note_on_c, 0, 66, 37
2, 30960, Note_on_c, 0, 71, 66
2, 31200, Note_on_c, 0, 71, 0
2, 31200, Note_on_c, 0, 66, 0
2, 31200, Note_on_c, 0, 69, 0
2, 31200, Note_on_c, 0, 73, 80
2, 31440, Note_on_c, 0, 73, 0
2, 31440, Note_on_c, 0, 71, 73
2, 31440, Note_on_c, 0, 64, 42
2, 31440, Note_on_c, 0, 68, 42
2, 31680, Note_on_c, 0, 68, 0
2, 31680, Note_on_c, 0, 64, 0
2, 31680, Note_on_c, 0, 71, 0
2, 31680, Note_on_c, 0, 73, 84
2, 31920, Note_on_c, 0, 73, 0
2, 31920, Note_on_c, 0, 62, 48
2, 31920, Note_on_c, 0, 71, 79
2, 31920, Note_on_c, 0, 68, 48
2, 32160, Note_on_c, 0, 68, 0
2, 32160, Note_on_c, 0, 71, 0
2, 32160, Note_on_c, 0, 62, 0
2, 32160, Note_on_c, 0, 73, 86
2, 32400, Note_on_c, 0, 73, 0
2, 32400, Note_on_c, 0, 63, 55
2, 32400, Note_on_c, 0, 69, 55
2, 32400, Note_on_c, 0, 71, 89
2, 32640, Note_on_c, 0, 71, 0
2, 32640, Note_on_c, 0, 69, 0
2, 32640, Note_on_c, 0, 63, 0
2, 32640, Note_on_c, 0, 73, 88
2, 32640, Note_on_c, 0, 61, 70
2, 32880, Note_on_c, 0, 61, 0
2, 32880, Note_on_c, 0, 73, 0
2, 32880, Note_on_c, 0, 59, 64
2, 32880, Note_on_c, 0, 71, 81
2, 33120, Note_on_c, 0, 71, 0
2, 33120, Note_on_c, 0, 59, 0
2, 33120, Note_on_c, 0, 71, 69
2, 33120, Note_on_c, 0, 76, 85
2, 33120, Note_on_c, 0, 64, 69
2, 33120, Note_on_c, 0, 68, 69
2, 34080, Note_on_c, 0, 68, 0
2, 34080, Note_on_c, 0, 71, 0
2, 34080, Note_on_c, 0, 76, 0
2, 34080, Note_on_c, 0, 64, 0
2, 34080, Note_on_c, 0, 68, 69
2, 34080, Note_on_c, 0, 71, 69
2, 34080, Note_on_c, 0, 80, 86
2, 34080, Note_on_c, 0, 76, 69
2, 34320, Note_on_c, 0, 76, 0
2, 34320, Note_on_c, 0, 68, 0
2, 34320, Note_on_c, 0, 71, 0
2, 34320, Note_on_c, 0, 80, 0
2, 34320, Note_on_c, 0, 71, 66
2, 34320, Note_on_c, 0, 76, 66
2, 34320, Note_on_c, 0, 80, 66
2, 34320, Note_on_c, 0, 83, 82
2, 34560, Note_on_c, 0, 83, 0
2, 34560, Note_on_c, 0, 71, 0
2, 34560, Note_on_c, 0, 76, 0
2, 34560, Note_on_c, 0, 80, 0
2, 34560, Note_on_c, 0, 76, 70
2, 34560, Note_on_c, 0, 85, 89
2, 34560, Note_on_c, 0, 80, 70
2, 34560, Note_on_c, 0, 73, 70
2, 34800, Note_on_c, 0, 73, 0
2, 34800, Note_on_c, 0, 76, 0
2, 34800, Note_on_c, 0, 85, 0
2, 34800, Note_on_c, 0, 80, 0
2, 34800, Note_on_c, 0, 83, 81
2, 34800, Note_on_c, 0, 71, 64
2, 35040, Note_on_c, 0, 71, 0
2, 35040, Note_on_c, 0, 83, 0
2, 35040, Note_on_c, 0, 68, 66
2, 35040, Note_on_c, 0, 71, 66
2, 35040, Note_on_c, 0, 76, 66
2, 35040, Note_on_c, 0, 80, 83
2, 36000, Note_on_c, 0, 80, 0
2, 36000, Note_on_c, 0, 68, 0
2, 36000, Note_on_c, 0, 71, 0
2, 36000, Note_on_c, 0, 76, 0
2, 36000, Note_on_c, 0, 68, 66
2, 36000, Note_on_c, 0, 76, 82
2, 36000, Note_on_c, 0, 71, 66
2, 36000, Note_on_c, 0, 64, 66
2, 36240, Note_on_c, 0, 64, 0
2, 36240, Note_on_c, 0, 68, 0
2, 36240, Note_on_c, 0, 76, 0
2, 36240, Note_on_c, 0, 71, 0
2, 36240, Note_on_c, 0, 71, 61
2, 36240, Note_on_c, 0, 73, 78
2, 36240, Note_on_c, 0, 68, 61
2, 36240, Note_on_c, 0, 61, 61
2, 36480, Note_on_c, 0, 61, 0
2, 36480, Note_on_c, 0, 71, 0
2, 36480, Note_on_c, 0, 73, 0
2, 36480, Note_on_c, 0, 68, 0
2, 36480, Note_on_c, 0, 68, 66
2, 36480, Note_on_c, 0, 80, 82
2, 36480, Note_on_c, 0, 71, 66
2, 36720, Note_on_c, 0, 71, 0
2, 36720, Note_on_c, 0, 80, 0
2, 36720, Note_on_c, 0, 68, 0
2, 36720, Note_on_c, 0, 66, 61
2, 36720, Note_on_c, 0, 78, 77
2, 36960, Note_on_c, 0, 78, 0
2, 36960, Note_on_c, 0, 66, 0
2, 36960, Note_on_c, 0, 61, 64
2, 36960, Note_on_c, 0, 73, 81
2, 36960, Note_on_c, 0, 66, 64
2, 36960, Note_on_c, 0, 69, 64
2, 37920, Note_on_c, 0, 69, 0
2, 37920, Note_on_c, 0, 61, 0
2, 37920, Note_on_c, 0, 73, 0
2, 37920, Note_on_c, 0, 66, 0
2, 37920, Note_on_c, 0, 61, 62
2, 37920, Note_on_c, 0, 66, 62
2, 37920, Note_on_c, 0, 73, 79
2, 37920, Note_on_c, 0, 69, 62
2, 38160, Note_on_c, 0, 69, 0
2, 38160, Note_on_c, 0, 61, 0
2, 38160, Note_on_c, 0, 66, 0
2, 38160, Note_on_c, 0, 73, 0
2, 38160, Note_on_c, 0, 63, 58
2, 38160, Note_on_c, 0, 66, 58
2, 38160, Note_on_c, 0, 71, 73
2, 38400, Note_on_c, 0, 71, 0
2, 38400, Note_on_c, 0, 66, 0
2, 38400, Note_on_c, 0, 63, 0
2, 38400, Note_on_c, 0, 71, 61
2, 38400, Note_on_c, 0, 78, 77
2, 38400, Note_on_c, 0, 68, 61
2, 38400, Note_on_c, 0, 66, 61
2, 38640, Note_on_c, 0, 66, 0
2, 38640, Note_on_c, 0, 71, 0
2, 38640, Note_on_c, 0, 78, 0
2, 38640, Note_on_c, 0, 68, 0
2, 38640, Note_on_c, 0, 64, 58
2, 38640, Note_on_c, 0, 76, 73
2, 38880, Note_on_c, 0, 76, 0
2, 38880, Note_on_c, 0, 64, 0
2, 38880, Note_on_c, 0, 64, 59
2, 38880, Note_on_c, 0, 71, 74
2, 38880, Note_on_c, 0, 68, 59
2, 38880, Note_on_c, 0, 59, 59
2, 39840, Note_on_c, 0, 59, 0
2, 39840, Note_on_c, 0, 64, 0
2, 39840, Note_on_c, 0, 71, 0
2, 39840, Note_on_c, 0, 68, 0
2, 39840, Note_on_c, 0, 68, 62
2, 39840, Note_on_c, 0, 70, 79
2, 39840, Note_on_c, 0, 64, 62
2, 39840, Note_on_c, 0, 58, 62
2, 40080, Note_on_c, 0, 58, 0
2, 40080, Note_on_c, 0, 68, 0
2, 40080, Note_on_c, 0, 70, 0
2, 40080, Note_on_c, 0, 64, 0
2, 40080, Note_on_c, 0, 59, 61
2, 40080, Note_on_c, 0, 71, 77
2, 40320, Note_on_c, 0, 71, 0
2, 40320, Note_on_c, 0, 59, 0
2, 40320, Note_on_c, 0, 64, 70
2, 40320, Note_on_c, 0, 73, 88
2, 40320, Note_on_c, 0, 61, 70
2, 40320, Note_on_c, 0, 68, 70
2, 40560, Note_on_c, 0, 68, 0
2, 40560, Note_on_c, 0, 64, 0
2, 40560, Note_on_c, 0, 73, 0
2, 40560, Note_on_c, 0, 61, 0
2, 40560, Note_on_c, 0, 59, 64
2, 40560, Note_on_c, 0, 71, 81
2, 40560, Note_on_c, 0, 64, 64
2, 40560, Note_on_c, 0, 68, 64
2, 40800, Note_on_c, 0, 68, 0
2, 40800, Note_on_c, 0, 59, 0
2, 40800, Note_on_c, 0, 71, 0
2, 40800, Note_on_c, 0, 64, 0
2, 40800, Note_on_c, 0, 64, 69
2, 40800, Note_on_c, 0, 76, 85
2, 40800, Note_on_c, 0, 68, 69
2, 40800, Note_on_c, 0, 71, 69
2, 41760, Note_on_c, 0, 71, 0
2, 41760, Note_on_c, 0, 64, 0
2, 41760, Note_on_c, 0, 76, 0
2, 41760, Note_on_c, 0, 68, 0
2, 41760, Note_on_c, 0, 68, 69
2, 41760, Note_on_c, 0, 71, 69
2, 41760, Note_on_c, 0, 80, 86
2, 41760, Note_on_c, 0, 76, 69
2, 42000, Note_on_c, 0, 76, 0
2, 42000, Note_on_c, 0, 68, 0
2, 42000, Note_on_c, 0, 71, 0
2, 42000, Note_on_c, 0, 80, 0
2, 42000, Note_on_c, 0, 71, 66
2, 42000, Note_on_c, 0, 76, 66
2, 42000, Note_on_c, 0, 80, 66
2, 42000, Note_on_c, 0, 83, 82
2, 42240, Note_on_c, 0, 83, 0
2, 42240, Note_on_c, 0, 71, 0
2, 42240, Note_on_c, 0, 76, 0
2, 42240, Note_on_c, 0, 80, 0
2, 42240, Note_on_c, 0, 80, 70
2, 42240, Note_on_c, 0, 76, 70
2, 42240, Note_on_c, 0, 73, 70
2, 42240, Note_on_c, 0, 85, 89
2, 42480, Note_on_c, 0, 85, 0
2, 42480, Note_on_c, 0, 80, 0
2, 42480, Note_on_c, 0, 76, 0
2, 42480, Note_on_c, 0, 73, 0
2, 42480, Note_on_c, 0, 71, 64
2, 42480, Note_on_c, 0, 83, 81
2, 42720, Note_on_c, 0, 83, 0
2, 42720, Note_on_c, 0, 71, 0
2, 42720, Note_on_c, 0, 71, 66
2, 42720, Note_on_c, 0, 80, 83
2, 42720, Note_on_c, 0, 76, 66
2, 42720, Note_on_c, 0, 68, 66
2, 43680, Note_on_c, 0, 68, 0
2, 43680, Note_on_c, 0, 71, 0
2, 43680, Note_on_c, 0, 80, 0
2, 43680, Note_on_c, 0, 76, 0
2, 43680, Note_on_c, 0, 71, 66
2, 43680, Note_on_c, 0, 76, 82
2, 43680, Note_on_c, 0, 68, 66
2, 43680, Note_on_c, 0, 64, 66
2, 43920, Note_on_c, 0, 64, 0
2, 43920, Note_on_c, 0, 71, 0
2, 43920, Note_on_c, 0, 76, 0
2, 43920, Note_on_c, 0, 68, 0
2, 43920, Note_on_c, 0, 61, 61
2, 43920, Note_on_c, 0, 73, 78
2, 43920, Note_on_c, 0, 68, 61
2, 43920, Note_on_c, 0, 71, 61
2, 44160, Note_on_c, 0, 71, 0
2, 44160, Note_on_c, 0, 61, 0
2, 44160, Note_on_c, 0, 73, 0
2, 44160, Note_on_c, 0, 68, 0
2, 44160, Note_on_c, 0, 68, 66
2, 44160, Note_on_c, 0, 71, 66
2, 44160, Note_on_c, 0, 80, 82
2, 44400, Note_on_c, 0, 80, 0
2, 44400, Note_on_c, 0, 71, 0
2, 44400, Note_on_c, 0, 68, 0
2, 44400, Note_on_c, 0, 78, 77
2, 44400, Note_on_c, 0, 66, 61
2, 44640, Note_on_c, 0, 66, 0
2, 44640, Note_on_c, 0, 78, 0
2, 44640, Note_on_c, 0, 61, 64
2, 44640, Note_on_c, 0, 66, 64
2, 44640, Note_on_c, 0, 73, 81
2, 44640, Note_on_c, 0, 69, 64
2, 45600, Note_on_c, 0, 69, 0
2, 45600, Note_on_c, 0, 61, 0
2, 45600, Note_on_c, 0, 66, 0
2, 45600, Note_on_c, 0, 73, 0
2, 45600, Note_on_c, 0, 61, 62
2, 45600, Note_on_c, 0, 66, 62
2, 45600, Note_on_c, 0, 69, 62
2, 45600, Note_on_c, 0, 73, 79
2, 45840, Note_on_c, 0, 73, 0
2, 45840, Note_on_c, 0, 61, 0
2, 45840, Note_on_c, 0, 66, 0
2, 45840, Note_on_c, 0, 69, 0
2, 45840, Note_on_c, 0, 66, 58
2, 45840, Note_on_c, 0, 63, 58
2, 45840, Note_on_c, 0, 71, 73
2, 46080, Note_on_c, 0, 71, 0
2, 46080, Note_on_c, 0, 63, 0
2, 46080, Note_on_c, 0, 66, 0
2, 46080, Note_on_c, 0, 66, 61
2, 46080, Note_on_c, 0, 78, 77
2, 46080, Note_on_c, 0, 68, 61
2, 46080, Note_on_c, 0, 71, 61
2, 46320, Note_on_c, 0, 71, 0
2, 46320, Note_on_c, 0, 66, 0
2, 46320, Note_on_c, 0, 78, 0
2, 46320, Note_on_c, 0, 68, 0
2, 46320, Note_on_c, 0, 64, 58
2, 46320, Note_on_c, 0, 76, 73
2, 46560, Note_on_c, 0, 76, 0
2, 46560, Note_on_c, 0, 64, 0
2, 46560, Note_on_c, 0, 68, 59
2, 46560, Note_on_c, 0, 71, 74
2, 46560, Note_on_c, 0, 64, 59
2, 46560, Note_on_c, 0, 59, 59
2, 47520, Note_on_c, 0, 59, 0
2, 47520, Note_on_c, 0, 68, 0
2, 47520, Note_on_c, 0, 71, 0
2, 47520, Note_on_c, 0, 64, 0
2, 47520, Note_on_c, 0, 58, 59
2, 47520, Note_on_c, 0, 70, 74
2, 47520, Note_on_c, 0, 64, 59
2, 47520, Note_on_c, 0, 68, 59
2, 47760, Note_on_c, 0, 68, 0
2, 47760, Note_on_c, 0, 58, 0
2, 47760, Note_on_c, 0, 70, 0
2, 47760, Note_on_c, 0, 64, 0
2, 47760, Note_on_c, 0, 64, 58
2, 47760, Note_on_c, 0, 68, 58
2, 47760, Note_on_c, 0, 71, 72
2, 47760, Note_on_c, 0, 59, 58
2, 48000, Note_on_c, 0, 59, 0
2, 48000, Note_on_c, 0, 64, 0
2, 48000, Note_on_c, 0, 68, 0
2, 48000, Note_on_c, 0, 71, 0
2, 48000, Note_on_c, 0, 61, 58
2, 48000, Note_on_c, 0, 64, 58
2, 48000, Note_on_c, 0, 68, 58
2, 48000, Note_on_c, 0, 73, 72
2, 48240, Note_on_c, 0, 73, 0
2, 48240, Note_on_c, 0, 61, 0
2, 48240, Note_on_c, 0, 64, 0
2, 48240, Note_on_c, 0, 68, 0
2, 48240, Note_on_c, 0, 70, 67
2, 48240, Note_on_c, 0, 58, 52
2, 48480, Note_on_c, 0, 58, 0
2, 48480, Note_on_c, 0, 70, 0
2, 48480, Note_on_c, 0, 59, 52
2, 48480, Note_on_c, 0, 64, 52
2, 48480, Note_on_c, 0, 71, 66
2, 48480, Note_on_c, 0, 68, 52
2, 49440, Note_on_c, 0, 68, 0
2, 49440, Note_on_c, 0, 59, 0
2, 49440, Note_on_c, 0, 64, 0
2, 49440, Note_on_c, 0, 71, 0
2, 49440, Note_on_c, 0, 58, 44
2, 49440, Note_on_c, 0, 64, 44
2, 49440, Note_on_c, 0, 68, 44
2, 49440, Note_on_c, 0, 70, 56
2, 49680, Note_on_c, 0, 70, 0
2, 49680, Note_on_c, 0, 58, 0
2, 49680, Note_on_c, 0, 64, 0
2, 49680, Note_on_c, 0, 68, 0
2, 49680, Note_on_c, 0, 68, 42
2, 49680, Note_on_c, 0, 71, 53
2, 49680, Note_on_c, 0, 59, 42
2, 49680, Note_on_c, 0, 64, 42
2, 49920, Note_on_c, 0, 64, 0
2, 49920, Note_on_c, 0, 68, 0
2, 49920, Note_on_c, 0, 71, 0
2, 49920, Note_on_c, 0, 59, 0
2, 49920, Note_on_c, 0, 68, 40
2, 49920, Note_on_c, 0, 73, 51
2, 49920, Note_on_c, 0, 64, 40
2, 49920, Note_on_c, 0, 61, 40
2, 50160, Note_on_c, 0, 61, 0
2, 50160, Note_on_c, 0, 68, 0
2, 50160, Note_on_c, 0, 73, 0
2, 50160, Note_on_c, 0, 64, 0
2, 50160, Note_on_c, 0, 58, 37
2, 50160, Note_on_c, 0, 70, 48
2, 50400, Note_on_c, 0, 70, 0
2, 50400, Note_on_c, 0, 58, 0
2, 50400, Note_on_c, 0, 64, 37
2, 50400, Note_on_c, 0, 71, 47
2, 50400, Note_on_c, 0, 68, 37
2, 50400, Note_on_c, 0, 59, 37
2, 51360, Note_on_c, 0, 59, 0
2, 51360, Note_on_c, 0, 64, 0
2, 51360, Note_on_c, 0, 71, 0
2, 51360, Note_on_c, 0, 68, 0
2, 51930, Note_on_c, 0, 60, 62
2, 51960, Note_on_c, 0, 64, 67
2, 51990, Note_on_c, 0, 69, 69
2, 52020, Note_on_c, 0, 72, 73
2, 52320, Note_on_c, 0, 69, 0
2, 52320, Note_on_c, 0, 60, 0
2, 52320, Note_on_c, 0, 64, 0
2, 52560, Note_on_c, 0, 72, 0
2, 52560, Note_on_c, 0, 72, 62
2, 52800, Note_on_c, 0, 72, 0
2, 52800, Note_on_c, 0, 60, 60
2, 52800, Note_on_c, 0, 66, 60
2, 52800, Note_on_c, 0, 72, 68
2, 53160, Note_on_c, 0, 72, 0
2, 53160, Note_on_c, 0, 71, 62
2, 53220, Note_on_c, 0, 71, 0
2, 53220, Note_on_c, 0, 69, 62
2, 53280, Note_on_c, 0, 69, 0
2, 53280, Note_on_c, 0, 66, 0
2, 53280, Note_on_c, 0, 60, 0
2, 53280, Note_on_c, 0, 62, 63
2, 53280, Note_on_c, 0, 67, 71
2, 53400, Note_on_c, 0, 67, 0
2, 53400, Note_on_c, 0, 62, 0
2, 53520, Note_on_c, 0, 62, 62
2, 53520, Note_on_c, 0, 67, 62
2, 53520, Note_on_c, 0, 74, 70
2, 53640, Note_on_c, 0, 74, 0
2, 53640, Note_on_c, 0, 67, 0
2, 53640, Note_on_c, 0, 62, 0
2, 53760, Note_on_c, 0, 64, 68
2, 53760, Note_on_c, 0, 67, 68
2, 53760, Note_on_c, 0, 72, 68
2, 53760, Note_on_c, 0, 76, 75
2, 53880, Note_on_c, 0, 76, 0
2, 53880, Note_on_c, 0, 64, 0
2, 53880, Note_on_c, 0, 67, 0
2, 53880, Note_on_c, 0, 72, 0
2, 54000, Note_on_c, 0, 67, 66
2, 54000, Note_on_c, 0, 72, 66
2, 54000, Note_on_c, 0, 79, 73
2, 54120, Note_on_c, 0, 79, 0
2, 54120, Note_on_c, 0, 72, 0
2, 54120, Note_on_c, 0, 67, 0
2, 54240, Note_on_c, 0, 67, 69
2, 54240, Note_on_c, 0, 71, 69
2, 54240, Note_on_c, 0, 74, 78
2, 55200, Note_on_c, 0, 74, 0
2, 55200, Note_on_c, 0, 71, 0
2, 55200, Note_on_c, 0, 67, 0
2, 55200, Note_on_c, 0, 68, 64
2, 55200, Note_on_c, 0, 71, 64
2, 55200, Note_on_c, 0, 76, 81
2, 55320, Note_on_c, 0, 76, 0
2, 55320, Note_on_c, 0, 74, 71
2, 55440, Note_on_c, 0, 74, 0
2, 55440, Note_on_c, 0, 71, 0
2, 55440, Note_on_c, 0, 68, 0
2, 55440, Note_on_c, 0, 72, 66
2, 55560, Note_on_c, 0, 72, 0
2, 55560, Note_on_c, 0, 71, 59
2, 55680, Note_on_c, 0, 71, 0
2, 55680, Note_on_c, 0, 72, 55
2, 55800, Note_on_c, 0, 72, 0
2, 55890, Note_on_c, 0, 83, 55
2, 55920, Note_on_c, 0, 83, 0
2, 55920, Note_on_c, 0, 78, 59
2, 55920, Note_on_c, 0, 84, 59
2, 56040, Note_on_c, 0, 84, 0
2, 56040, Note_on_c, 0, 78, 0
2, 56160, Note_on_c, 0, 72, 57
2, 56280, Note_on_c, 0, 72, 0
2, 56370, Note_on_c, 0, 83, 55
2, 56400, Note_on_c, 0, 83, 0
2, 56400, Note_on_c, 0, 84, 58
2, 56400, Note_on_c, 0, 78, 58
2, 56520, Note_on_c, 0, 78, 0
2, 56520, Note_on_c, 0, 84, 0
2, 56640, Note_on_c, 0, 72, 55
2, 56760, Note_on_c, 0, 72, 0
2, 56850, Note_on_c, 0, 83, 55
2, 56880, Note_on_c, 0, 83, 0
2, 56880, Note_on_c, 0, 84, 59
2, 56880, Note_on_c, 0, 78, 59
2, 57000, Note_on_c, 0, 78, 0
2, 57000, Note_on_c, 0, 84, 0
2, 57120, Note_on_c, 0, 68, 64
2, 57120, Note_on_c, 0, 71, 64
2, 57120, Note_on_c, 0, 76, 81
2, 57240, Note_on_c, 0, 76, 0
2, 57240, Note_on_c, 0, 74, 71
2, 57360, Note_on_c, 0, 74, 0
2, 57360, Note_on_c, 0, 71, 0
2, 57360, Note_on_c, 0, 68, 0
2, 57360, Note_on_c, 0, 72, 66
2, 57480, Note_on_c, 0, 72, 0
2, 57480, Note_on_c, 0, 71, 59
2, 57600, Note_on_c, 0, 71, 0
2, 57600, Note_on_c, 0, 72, 55
2, 57720, Note_on_c, 0, 72, 0
2, 57810, Note_on_c, 0, 83, 55
2, 57840, Note_on_c, 0, 83, 0
2, 57840, Note_on_c, 0, 78, 59
2, 57840, Note_on_c, 0, 84, 59
2, 57960, Note_on_c, 0, 84, 0
2, 57960, Note_on_c, 0, 78, 0
2, 58080, Note_on_c, 0, 72, 57
2, 58200, Note_on_c, 0, 72, 0
2, 58290, Note_on_c, 0, 83, 55
2, 58320, Note_on_c, 0, 83, 0
2, 58320, Note_on_c, 0, 84, 58
2, 58320, Note_on_c, 0, 78, 58
2, 58440, Note_on_c, 0, 78, 0
2, 58440, Note_on_c, 0, 84, 0
2, 58560, Note_on_c, 0, 72, 55
2, 58680, Note_on_c, 0, 72, 0
2, 58770, Note_on_c, 0, 83, 55
2, 58800, Note_on_c, 0, 83, 0
2, 58800, Note_on_c, 0, 84, 59
2, 58800, Note_on_c, 0, 78, 59
2, 58920, Note_on_c, 0, 78, 0
2, 58920, Note_on_c, 0, 84, 0
2, 59040, Note_on_c, 0, 68, 64
2, 59040, Note_on_c, 0, 71, 64
2, 59040, Note_on_c, 0, 76, 81
2, 59160, Note_on_c, 0, 76, 0
2, 59160, Note_on_c, 0, 74, 71
2, 59280, Note_on_c, 0, 74, 0
2, 59280, Note_on_c, 0, 71, 0
2, 59280, Note_on_c, 0, 68, 0
2, 59280, Note_on_c, 0, 72, 66
2, 59400, Note_on_c, 0, 72, 0
2, 59400, Note_on_c, 0, 71, 59
2, 59520, Note_on_c, 0, 71, 0
2, 59610, Note_on_c, 0, 60, 62
2, 59640, Note_on_c, 0, 64, 67
2, 59670, Note_on_c, 0, 69, 69
2, 59700, Note_on_c, 0, 72, 73
2, 60000, Note_on_c, 0, 69, 0
2, 60000, Note_on_c, 0, 60, 0
2, 60000, Note_on_c, 0, 64, 0
2, 60240, Note_on_c, 0, 72, 0
2, 60240, Note_on_c, 0, 72, 62
2, 60480, Note_on_c, 0, 72, 0
2, 60480, Note_on_c, 0, 60, 60
2, 60480, Note_on_c, 0, 66, 60
2, 60480, Note_on_c, 0, 72, 68
2, 60840, Note_on_c, 0, 72, 0
2, 60840, Note_on_c, 0, 71, 62
2, 60900, Note_on_c, 0, 71, 0
2, 60900, Note_on_c, 0, 69, 62
2, 60960, Note_on_c, 0, 69, 0
2, 60960, Note_on_c, 0, 66, 0
2, 60960, Note_on_c, 0, 60, 0
2, 60960, Note_on_c, 0, 62, 63
2, 60960, Note_on_c, 0, 67, 71
2, 61080, Note_on_c, 0, 67, 0
2, 61080, Note_on_c, 0, 62, 0
2, 61200, Note_on_c, 0, 62, 62
2, 61200, Note_on_c, 0, 67, 62
2, 61200, Note_on_c, 0, 74, 70
2, 61320, Note_on_c, 0, 74, 0
2, 61320, Note_on_c, 0, 67, 0
2, 61320, Note_on_c, 0, 62, 0
2, 61440, Note_on_c, 0, 64, 68
2, 61440, Note_on_c, 0, 67, 68
2, 61440, Note_on_c, 0, 72, 68
2, 61440, Note_on_c, 0, 76, 75
2, 61560, Note_on_c, 0, 76, 0
2, 61560, Note_on_c, 0, 64, 0
2, 61560, Note_on_c, 0, 67, 0
2, 61560, Note_on_c, 0, 72, 0
2, 61680, Note_on_c, 0, 67, 66
2, 61680, Note_on_c, 0, 72, 66
2, 61680, Note_on_c, 0, 79, 73
2, 61800, Note_on_c, 0, 79, 0
2, 61800, Note_on_c, 0, 72, 0
2, 61800, Note_on_c, 0, 67, 0
2, 61920, Note_on_c, 0, 67, 69
2, 61920, Note_on_c, 0, 71, 69
2, 61920, Note_on_c, 0, 74, 78
2, 62880, Note_on_c, 0, 74, 0
2, 62880, Note_on_c, 0, 71, 0
2, 62880, Note_on_c, 0, 67, 0
2, 62880, Note_on_c, 0, 71, 64
2, 62880, Note_on_c, 0, 76, 81
2, 63000, Note_on_c, 0, 76, 0
2, 63000, Note_on_c, 0, 74, 71
2, 63120, Note_on_c, 0, 74, 0
2, 63120, Note_on_c, 0, 71, 0
2, 63120, Note_on_c, 0, 73, 66
2, 63240, Note_on_c, 0, 73, 0
2, 63240, Note_on_c, 0, 71, 59
2, 63360, Note_on_c, 0, 71, 0
2, 63570, Note_on_c, 0, 79, 55
2, 63600, Note_on_c, 0, 79, 0
2, 63600, Note_on_c, 0, 74, 59
2, 63600, Note_on_c, 0, 71, 59
2, 63600, Note_on_c, 0, 78, 59
2, 63720, Note_on_c, 0, 78, 0
2, 63720, Note_on_c, 0, 71, 0
2, 63720, Note_on_c, 0, 74, 0
2, 64050, Note_on_c, 0, 79, 55
2, 64080, Note_on_c, 0, 79, 0
2, 64080, Note_on_c, 0, 74, 58
2, 64080, Note_on_c, 0, 78, 58
2, 64080, Note_on_c, 0, 71, 58
2, 64200, Note_on_c, 0, 71, 0
2, 64200, Note_on_c, 0, 78, 0
2, 64200, Note_on_c, 0, 74, 0
2, 64530, Note_on_c, 0, 79, 55
2, 64560, Note_on_c, 0, 79, 0
2, 64560, Note_on_c, 0, 74, 59
2, 64560, Note_on_c, 0, 78, 59
2, 64560, Note_on_c, 0, 71, 59
2, 64680, Note_on_c, 0, 71, 0
2, 64680, Note_on_c, 0, 78, 0
2, 64680, Note_on_c, 0, 74, 0
2, 64800, Note_on_c, 0, 71, 64
2, 64800, Note_on_c, 0, 76, 81
2, 64920, Note_on_c, 0, 76, 0
2, 64920, Note_on_c, 0, 74, 71
2, 65040, Note_on_c, 0, 74, 0
2, 65040, Note_on_c, 0, 71, 0
2, 65040, Note_on_c, 0, 73, 66
2, 65160, Note_on_c, 0, 73, 0
2, 65160, Note_on_c, 0, 71, 59
2, 65280, Note_on_c, 0, 71, 0
2, 65490, Note_on_c, 0, 79, 55
2, 65520, Note_on_c, 0, 79, 0
2, 65520, Note_on_c, 0, 74, 59
2, 65520, Note_on_c, 0, 71, 59
2, 65520, Note_on_c, 0, 78, 59
2, 65640, Note_on_c, 0, 78, 0
2, 65640, Note_on_c, 0, 71, 0
2, 65640, Note_on_c, 0, 74, 0
2, 65970, Note_on_c, 0, 79, 55
2, 66000, Note_on_c, 0, 79, 0
2, 66000, Note_on_c, 0, 74, 58
2, 66000, Note_on_c, 0, 78, 58
2, 66000, Note_on_c, 0, 71, 58
2, 66120, Note_on_c, 0, 71, 0
2, 66120, Note_on_c, 0, 78, 0
2, 66120, Note_on_c, 0, 74, 0
2, 66450, Note_on_c, 0, 79, 55
2, 66480, Note_on_c, 0, 79, 0
2, 66480, Note_on_c, 0, 74, 59
2, 66480, Note_on_c, 0, 78, 59
2, 66480, Note_on_c, 0, 71, 59
2, 66600, Note_on_c, 0, 71, 0
2, 66600, Note_on_c, 0, 78, 0
2, 66600, Note_on_c, 0, 74, 0
2, 66720, Note_on_c, 0, 71, 64
2, 66720, Note_on_c, 0, 76, 81
2, 66840, Note_on_c, 0, 76, 0
2, 66840, Note_on_c, 0, 74, 71
2, 66960, Note_on_c, 0, 74, 0
2, 66960, Note_on_c, 0, 71, 0
2, 66960, Note_on_c, 0, 73, 66
2, 67080, Note_on_c, 0, 73, 0
2, 67080, Note_on_c, 0, 71, 59
2, 67200, Note_on_c, 0, 71, 0
2, 67410, Note_on_c, 0, 71, 55
2, 67440, Note_on_c, 0, 71, 0
2, 67440, Note_on_c, 0, 66, 59
2, 67440, Note_on_c, 0, 62, 59
2, 67440, Note_on_c, 0, 69, 59
2, 67560, Note_on_c, 0, 69, 0
2, 67560, Note_on_c, 0, 62, 0
2, 67560, Note_on_c, 0, 66, 0
2, 67890, Note_on_c, 0, 71, 55
2, 67920, Note_on_c, 0, 71, 0
2, 67920, Note_on_c, 0, 66, 58
2, 67920, Note_on_c, 0, 69, 58
2, 67920, Note_on_c, 0, 62, 58
2, 68040, Note_on_c, 0, 62, 0
2, 68040, Note_on_c, 0, 69, 0
2, 68040, Note_on_c, 0, 66, 0
2, 68370, Note_on_c, 0, 71, 55
2, 68400, Note_on_c, 0, 71, 0
2, 68400, Note_on_c, 0, 66, 59
2, 68400, Note_on_c, 0, 69, 59
2, 68400, Note_on_c, 0, 60, 59
2, 68520, Note_on_c, 0, 60, 0
2, 68520, Note_on_c, 0, 69, 0
2, 68520, Note_on_c, 0, 66, 0
2, 68640, Note_on_c, 0, 61, 64
2, 68640, Note_on_c, 0, 69, 81
2, 68760, Note_on_c, 0, 67, 71
2, 68772, Note_on_c, 0, 69, 0
2, 68880, Note_on_c, 0, 61, 0
2, 68880, Note_on_c, 0, 66, 66
2, 68892, Note_on_c, 0, 67, 0
2, 69000, Note_on_c, 0, 64, 59
2, 69012, Note_on_c, 0, 66, 0
2, 69120, Note_on_c, 0, 62, 80
2, 69132, Note_on_c, 0, 64, 0
2, 69240, Note_on_c, 0, 61, 68
2, 69252, Note_on_c, 0, 62, 0
2, 69360, Note_on_c, 0, 59, 66
2, 69372, Note_on_c, 0, 61, 0
2, 69480, Note_on_c, 0, 57, 70
2, 69492, Note_on_c, 0, 59, 0
2, 69612, Note_on_c, 0, 57, 0
2, 70080, Note_on_c, 0, 50, 73
2, 70200, Note_on_c, 0, 49, 64
2, 70212, Note_on_c, 0, 50, 0
2, 70320, Note_on_c, 0, 47, 63
2, 70332, Note_on_c, 0, 49, 0
2, 70440, Note_on_c, 0, 45, 61
2, 70452, Note_on_c, 0, 47, 0
2, 70572, Note_on_c, 0, 45, 0
2, 71130, Note_on_c, 0, 60, 62
2, 71160, Note_on_c, 0, 64, 67
2, 71190, Note_on_c, 0, 69, 69
2, 71220, Note_on_c, 0, 72, 73
2, 71520, Note_on_c, 0, 69, 0
2, 71520, Note_on_c, 0, 60, 0
2, 71520, Note_on_c, 0, 64, 0
2, 71760, Note_on_c, 0, 72, 0
2, 71760, Note_on_c, 0, 72, 62
2, 72000, Note_on_c, 0, 72, 0
2, 72000, Note_on_c, 0, 60, 60
2, 72000, Note_on_c, 0, 66, 60
2, 72000, Note_on_c, 0, 72, 68
2, 72360, Note_on_c, 0, 72, 0
2, 72360, Note_on_c, 0, 71, 62
2, 72420, Note_on_c, 0, 71, 0
2, 72420, Note_on_c, 0, 69, 62
2, 72480, Note_on_c, 0, 69, 0
2, 72480, Note_on_c, 0, 66, 0
2, 72480, Note_on_c, 0, 60, 0
2, 72480, Note_on_c, 0, 62, 63
2, 72480, Note_on_c, 0, 67, 71
2, 72600, Note_on_c, 0, 67, 0
2, 72600, Note_on_c, 0, 62, 0
2, 72720, Note_on_c, 0, 62, 62
2, 72720, Note_on_c, 0, 67, 62
2, 72720, Note_on_c, 0, 74, 70
2, 72840, Note_on_c, 0, 74, 0
2, 72840, Note_on_c, 0, 67, 0
2, 72840, Note_on_c, 0, 62, 0
2, 72960, Note_on_c, 0, 64, 68
2, 72960, Note_on_c, 0, 67, 68
2, 72960, Note_on_c, 0, 72, 68
2, 72960, Note_on_c, 0, 76, 75
2, 73080, Note_on_c, 0, 76, 0
2, 73080, Note_on_c, 0, 64, 0
2, 73080, Note_on_c, 0, 67, 0
2, 73080, Note_on_c, 0, 72, 0
2, 73200, Note_on_c, 0, 67, 66
2, 73200, Note_on_c, 0, 72, 66
2, 73200, Note_on_c, 0, 79, 73
2, 73320, Note_on_c, 0, 79, 0
2, 73320, Note_on_c, 0, 72, 0
2, 73320, Note_on_c, 0, 67, 0
2, 73440, Note_on_c, 0, 67, 69
2, 73440, Note_on_c, 0, 71, 69
2, 73440, Note_on_c, 0, 74, 78
2, 74400, Note_on_c, 0, 74, 0
2, 74400, Note_on_c, 0, 71, 0
2, 74400, Note_on_c, 0, 67, 0
2, 74400, Note_on_c, 0, 68, 64
2, 74400, Note_on_c, 0, 71, 64
2, 74400, Note_on_c, 0, 76, 81
2, 74520, Note_on_c, 0, 76, 0
2, 74520, Note_on_c, 0, 74, 71
2, 74640, Note_on_c, 0, 74, 0
2, 74640, Note_on_c, 0, 71, 0
2, 74640, Note_on_c, 0, 68, 0
2, 74640, Note_on_c, 0, 72, 66
2, 74760, Note_on_c, 0, 72, 0
2, 74760, Note_on_c, 0, 71, 59
2, 74880, Note_on_c, 0, 71, 0
2, 74880, Note_on_c, 0, 72, 55
2, 75000, Note_on_c, 0, 72, 0
2, 75090, Note_on_c, 0, 83, 55
2, 75120, Note_on_c, 0, 83, 0
2, 75120, Note_on_c, 0, 78, 59
2, 75120, Note_on_c, 0, 84, 59
2, 75240, Note_on_c, 0, 84, 0
2, 75240, Note_on_c, 0, 78, 0
2, 75360, Note_on_c, 0, 72, 57
2, 75480, Note_on_c, 0, 72, 0
2, 75570, Note_on_c, 0, 83, 55
2, 75600, Note_on_c, 0, 83, 0
2, 75600, Note_on_c, 0, 84, 58
2, 75600, Note_on_c, 0, 78, 58
2, 75720, Note_on_c, 0, 78, 0
2, 75720, Note_on_c, 0, 84, 0
2, 75840, Note_on_c, 0, 72, 55
2, 75960, Note_on_c, 0, 72, 0
2, 76050, Note_on_c, 0, 83, 55
2, 76080, Note_on_c, 0, 83, 0
2, 76080, Note_on_c, 0, 84, 59
2, 76080, Note_on_c, 0, 78, 59
2, 76200, Note_on_c, 0, 78, 0
2, 76200, Note_on_c, 0, 84, 0
2, 76320, Note_on_c, 0, 68, 64
2, 76320, Note_on_c, 0, 71, 64
2, 76320, Note_on_c, 0, 76, 81
2, 76440, Note_on_c, 0, 76, 0
2, 76440, Note_on_c, 0, 74, 71
2, 76560, Note_on_c, 0, 74, 0
2, 76560, Note_on_c, 0, 71, 0
2, 76560, Note_on_c, 0, 68, 0
2, 76560, Note_on_c, 0, 72, 66
2, 76680, Note_on_c, 0, 72, 0
2, 76680, Note_on_c, 0, 71, 59
2, 76800, Note_on_c, 0, 71, 0
2, 76800, Note_on_c, 0, 72, 55
2, 76920, Note_on_c, 0, 72, 0
2, 77010, Note_on_c, 0, 83, 55
2, 77040, Note_on_c, 0, 83, 0
2, 77040, Note_on_c, 0, 78, 59
2, 77040, Note_on_c, 0, 84, 59
2, 77160, Note_on_c, 0, 84, 0
2, 77160, Note_on_c, 0, 78, 0
2, 77280, Note_on_c, 0, 72, 57
2, 77400, Note_on_c, 0, 72, 0
2, 77490, Note_on_c, 0, 83, 55
2, 77520, Note_on_c, 0, 83, 0
2, 77520, Note_on_c, 0, 84, 58
2, 77520, Note_on_c, 0, 78, 58
2, 77640, Note_on_c, 0, 78, 0
2, 77640, Note_on_c, 0, 84, 0
2, 77760, Note_on_c, 0, 72, 55
2, 77880, Note_on_c, 0, 72, 0
2, 77970, Note_on_c, 0, 83, 55
2, 78000, Note_on_c, 0, 83, 0
2, 78000, Note_on_c, 0, 84, 59
2, 78000, Note_on_c, 0, 78, 59
2, 78120, Note_on_c, 0, 78, 0
2, 78120, Note_on_c, 0, 84, 0
2, 78240, Note_on_c, 0, 68, 64
2, 78240, Note_on_c, 0, 71, 64
2, 78240, Note_on_c, 0, 76, 81
2, 78360, Note_on_c, 0, 76, 0
2, 78360, Note_on_c, 0, 74, 71
2, 78480, Note_on_c, 0, 74, 0
2, 78480, Note_on_c, 0, 71, 0
2, 78480, Note_on_c, 0, 68, 0
2, 78480, Note_on_c, 0, 72, 66
2, 78600, Note_on_c, 0, 72, 0
2, 78600, Note_on_c, 0, 71, 59
2, 78720, Note_on_c, 0, 71, 0
2, 78810, Note_on_c, 0, 60, 62
2, 78840, Note_on_c, 0, 64, 67
2, 78870, Note_on_c, 0, 69, 69
2, 78900, Note_on_c, 0, 72, 73
2, 79200, Note_on_c, 0, 69, 0
2, 79200, Note_on_c, 0, 60, 0
2, 79200, Note_on_c, 0, 64, 0
2, 79440, Note_on_c, 0, 72, 0
2, 79440, Note_on_c, 0, 72, 62
2, 79680, Note_on_c, 0, 72, 0
2, 79680, Note_on_c, 0, 60, 60
2, 79680, Note_on_c, 0, 66, 60
2, 79680, Note_on_c, 0, 72, 68
2, 80040, Note_on_c, 0, 72, 0
2, 80040, Note_on_c, 0, 71, 62
2, 80100, Note_on_c, 0, 71, 0
2, 80100, Note_on_c, 0, 69, 62
2, 80160, Note_on_c, 0, 69, 0
2, 80160, Note_on_c, 0, 66, 0
2, 80160, Note_on_c, 0, 60, 0
2, 80160, Note_on_c, 0, 62, 63
2, 80160, Note_on_c, 0, 67, 71
2, 80280, Note_on_c, 0, 67, 0
2, 80280, Note_on_c, 0, 62, 0
2, 80400, Note_on_c, 0, 62, 62
2, 80400, Note_on_c, 0, 67, 62
2, 80400, Note_on_c, 0, 74, 70
2, 80520, Note_on_c, 0, 74, 0
2, 80520, Note_on_c, 0, 67, 0
2, 80520, Note_on_c, 0, 62, 0
2, 80640, Note_on_c, 0, 64, 68
2, 80640, Note_on_c, 0, 67, 68
2, 80640, Note_on_c, 0, 72, 68
2, 80640, Note_on_c, 0, 76, 75
2, 80760, Note_on_c, 0, 76, 0
2, 80760, Note_on_c, 0, 64, 0
2, 80760, Note_on_c, 0, 67, 0
2, 80760, Note_on_c, 0, 72, 0
2, 80880, Note_on_c, 0, 67, 66
2, 80880, Note_on_c, 0, 72, 66
2, 80880, Note_on_c, 0, 79, 73
2, 81000, Note_on_c, 0, 79, 0
2, 81000, Note_on_c, 0, 72, 0
2, 81000, Note_on_c, 0, 67, 0
2, 81120, Note_on_c, 0, 67, 69
2, 81120, Note_on_c, 0, 71, 69
2, 81120, Note_on_c, 0, 74, 78
2, 82080, Note_on_c, 0, 74, 0
2, 82080, Note_on_c, 0, 71, 0
2, 82080, Note_on_c, 0, 67, 0
2, 82080, Note_on_c, 0, 71, 64
2, 82080, Note_on_c, 0, 76, 81
2, 82200, Note_on_c, 0, 76, 0
2, 82200, Note_on_c, 0, 74, 71
2, 82320, Note_on_c, 0, 74, 0
2, 82320, Note_on_c, 0, 71, 0
2, 82320, Note_on_c, 0, 73, 66
2, 82440, Note_on_c, 0, 73, 0
2, 82440, Note_on_c, 0, 71, 59
2, 82560, Note_on_c, 0, 71, 0
2, 82770, Note_on_c, 0, 79, 55
2, 82800, Note_on_c, 0, 79, 0
2, 82800, Note_on_c, 0, 74, 59
2, 82800, Note_on_c, 0, 71, 59
2, 82800, Note_on_c, 0, 78, 59
2, 82920, Note_on_c, 0, 78, 0
2, 82920, Note_on_c, 0, 71, 0
2, 82920, Note_on_c, 0, 74, 0
2, 83250, Note_on_c, 0, 79, 55
2, 83280, Note_on_c, 0, 79, 0
2, 83280, Note_on_c, 0, 74, 58
2, 83280, Note_on_c, 0, 78, 58
2, 83280, Note_on_c, 0, 71, 58
2, 83400, Note_on_c, 0, 71, 0
2, 83400, Note_on_c, 0, 78, 0
2, 83400, Note_on_c, 0, 74, 0
2, 83730, Note_on_c, 0, 79, 55
2, 83760, Note_on_c, 0, 79, 0
2, 83760, Note_on_c, 0, 74, 59
2, 83760, Note_on_c, 0, 78, 59
2, 83760, Note_on_c, 0, 71, 59
2, 83880, Note_on_c, 0, 71, 0
2, 83880, Note_on_c, 0, 78, 0
2, 83880, Note_on_c, 0, 74, 0
2, 84000, Note_on_c, 0, 71, 64
2, 84000, Note_on_c, 0, 76, 81
2, 84120, Note_on_c, 0, 76, 0
2, 84120, Note_on_c, 0, 74, 71
2, 84240, Note_on_c, 0, 74, 0
2, 84240, Note_on_c, 0, 71, 0
2, 84240, Note_on_c, 0, 73, 66
2, 84360, Note_on_c, 0, 73, 0
2, 84360, Note_on_c, 0, 71, 59
2, 84480, Note_on_c, 0, 71, 0
2, 84690, Note_on_c, 0, 79, 55
2, 84720, Note_on_c, 0, 79, 0
2, 84720, Note_on_c, 0, 74, 59
2, 84720, Note_on_c, 0, 71, 59
2, 84720, Note_on_c, 0, 78, 59
2, 84840, Note_on_c, 0, 78, 0
2, 84840, Note_on_c, 0, 71, 0
2, 84840, Note_on_c, 0, 74, 0
2, 85170, Note_on_c, 0, 79, 55
2, 85200, Note_on_c, 0, 79, 0
2, 85200, Note_on_c, 0, 74, 58
2, 85200, Note_on_c, 0, 78, 58
2, 85200, Note_on_c, 0, 71, 58
2, 85320, Note_on_c, 0, 71, 0
2, 85320, Note_on_c, 0, 78, 0
2, 85320, Note_on_c, 0, 74, 0
2, 85650, Note_on_c, 0, 79, 55
2, 85680, Note_on_c, 0, 79, 0
2, 85680, Note_on_c, 0, 74, 59
2, 85680, Note_on_c, 0, 78, 59
2, 85680, Note_on_c, 0, 71, 59
2, 85800, Note_on_c, 0, 71, 0
2, 85800, Note_on_c, 0, 78, 0
2, 85800, Note_on_c, 0, 74, 0
2, 85920, Note_on_c, 0, 71, 64
2, 85920, Note_on_c, 0, 76, 81
2, 86040, Note_on_c, 0, 76, 0
2, 86040, Note_on_c, 0, 74, 71
2, 86160, Note_on_c, 0, 74, 0
2, 86160, Note_on_c, 0, 71, 0
2, 86160, Note_on_c, 0, 73, 66
2, 86280, Note_on_c, 0, 73, 0
2, 86280, Note_on_c, 0, 71, 59
2, 86400, Note_on_c, 0, 71, 0
2, 86610, Note_on_c, 0, 80, 55
2, 86640, Note_on_c, 0, 80, 0
2, 86640, Note_on_c, 0, 75, 59
2, 86640, Note_on_c, 0, 71, 59
2, 86640, Note_on_c, 0, 78, 59
2, 86760, Note_on_c, 0, 78, 0
2, 86760, Note_on_c, 0, 71, 0
2, 86760, Note_on_c, 0, 75, 0
2, 87090, Note_on_c, 0, 80, 55
2, 87120, Note_on_c, 0, 80, 0
2, 87120, Note_on_c, 0, 75, 58
2, 87120, Note_on_c, 0, 78, 58
2, 87120, Note_on_c, 0, 71, 58
2, 87240, Note_on_c, 0, 71, 0
2, 87240, Note_on_c, 0, 78, 0
2, 87240, Note_on_c, 0, 75, 0
2, 87570, Note_on_c, 0, 80, 55
2, 87600, Note_on_c, 0, 80, 0
2, 87600, Note_on_c, 0, 75, 59
2, 87600, Note_on_c, 0, 78, 59
2, 87600, Note_on_c, 0, 71, 59
2, 87720, Note_on_c, 0, 71, 0
2, 87720, Note_on_c, 0, 78, 0
2, 87720, Note_on_c, 0, 75, 0
2, 88050, Note_on_c, 0, 80, 55
2, 88080, Note_on_c, 0, 80, 0
2, 88080, Note_on_c, 0, 71, 59
2, 88080, Note_on_c, 0, 75, 59
2, 88080, Note_on_c, 0, 78, 59
2, 88200, Note_on_c, 0, 78, 0
2, 88200, Note_on_c, 0, 75, 0
2, 88200, Note_on_c, 0, 71, 0
2, 88530, Note_on_c, 0, 85, 55
2, 88560, Note_on_c, 0, 85, 0
2, 88560, Note_on_c, 0, 75, 59
2, 88560, Note_on_c, 0, 78, 59
2, 88560, Note_on_c, 0, 83, 59
2, 88680, Note_on_c, 0, 83, 0
2, 88680, Note_on_c, 0, 78, 0
2, 88680, Note_on_c, 0, 75, 0
2, 89010, Note_on_c, 0, 85, 55
2, 89040, Note_on_c, 0, 85, 0
2, 89040, Note_on_c, 0, 75, 58
2, 89040, Note_on_c, 0, 83, 58
2, 89040, Note_on_c, 0, 78, 58
2, 89160, Note_on_c, 0, 78, 0
2, 89160, Note_on_c, 0, 83, 0
2, 89160, Note_on_c, 0, 75, 0
2, 89490, Note_on_c, 0, 85, 55
2, 89520, Note_on_c, 0, 85, 0
2, 89520, Note_on_c, 0, 75, 59
2, 89520, Note_on_c, 0, 83, 59
2, 89520, Note_on_c, 0, 78, 59
2, 89640, Note_on_c, 0, 78, 0
2, 89640, Note_on_c, 0, 83, 0
2, 89640, Note_on_c, 0, 75, 0
2, 89970, Note_on_c, 0, 85, 55
2, 90000, Note_on_c, 0, 85, 0
2, 90000, Note_on_c, 0, 83, 59
2, 90000, Note_on_c, 0, 75, 59
2, 90000, Note_on_c, 0, 78, 59
2, 90120, Note_on_c, 0, 78, 0
2, 90120, Note_on_c, 0, 75, 0
2, 90120, Note_on_c, 0, 83, 0
2, 90360, Note_on_c, 0, 76, 59
2, 90420, Note_on_c, 0, 76, 0
2, 90480, Note_on_c, 0, 74, 62
2, 90540, Note_on_c, 0, 74, 0
2, 90600, Note_on_c, 0, 75, 59
2, 90660, Note_on_c, 0, 75, 0
2, 90720, Note_on_c, 0, 71, 63
2, 90780, Note_on_c, 0, 71, 0
2, 90840, Note_on_c, 0, 76, 62
2, 90900, Note_on_c, 0, 76, 0
2, 90960, Note_on_c, 0, 74, 66
2, 91020, Note_on_c, 0, 74, 0
2, 91080, Note_on_c, 0, 75, 62
2, 91140, Note_on_c, 0, 75, 0
2, 91320, Note_on_c, 0, 80, 66
2, 91380, Note_on_c, 0, 80, 0
2, 91440, Note_on_c, 0, 77, 70
2, 91500, Note_on_c, 0, 77, 0
2, 91560, Note_on_c, 0, 78, 66
2, 91620, Note_on_c, 0, 78, 0
2, 91680, Note_on_c, 0, 71, 71
2, 91740, Note_on_c, 0, 71, 0
2, 91800, Note_on_c, 0, 80, 67
2, 91860, Note_on_c, 0, 80, 0
2, 91920, Note_on_c, 0, 77, 73
2, 91980, Note_on_c, 0, 77, 0
2, 92040, Note_on_c, 0, 78, 71
2, 92100, Note_on_c, 0, 78, 0
2, 92280, Note_on_c, 0, 83, 75
2, 92340, Note_on_c, 0, 83, 0
2, 92400, Note_on_c, 0, 80, 80
2, 92460, Note_on_c, 0, 80, 0
2, 92520, Note_on_c, 0, 81, 77
2, 92580, Note_on_c, 0, 81, 0
2, 92640, Note_on_c, 0, 78, 79
2, 92700, Note_on_c, 0, 78, 0
2, 92760, Note_on_c, 0, 83, 71
2, 92820, Note_on_c, 0, 83, 0
2, 92880, Note_on_c, 0, 80, 77
2, 92940, Note_on_c, 0, 80, 0
2, 93000, Note_on_c, 0, 81, 71
2, 93060, Note_on_c, 0, 81, 0
2, 93120, Note_on_c, 0, 78, 76
2, 93180, Note_on_c, 0, 78, 0
2, 93240, Note_on_c, 0, 83, 70
2, 93300, Note_on_c, 0, 83, 0
2, 93360, Note_on_c, 0, 80, 75
2, 93420, Note_on_c, 0, 80, 0
2, 93480, Note_on_c, 0, 81, 69
2, 93540, Note_on_c, 0, 81, 0
2, 93600, Note_on_c, 0, 78, 75
2, 93660, Note_on_c, 0, 78, 0
2, 93720, Note_on_c, 0, 83, 68
2, 93780, Note_on_c, 0, 83, 0
2, 93840, Note_on_c, 0, 80, 73
2, 93900, Note_on_c, 0, 80, 0
2, 93960, Note_on_c, 0, 81, 67
2, 94020, Note_on_c, 0, 81, 0
2, 94080, Note_on_c, 0, 78, 72
2, 94140, Note_on_c, 0, 78, 0
2, 94200, Note_on_c, 0, 83, 65
2, 94260, Note_on_c, 0, 83, 0
2, 94320, Note_on_c, 0, 80, 69
2, 94380, Note_on_c, 0, 80, 0
2, 94440, Note_on_c, 0, 81, 64
2, 94500, Note_on_c, 0, 81, 0
2, 94560, Note_on_c, 0, 78, 65
2, 94620, Note_on_c, 0, 78, 0
2, 94680, Note_on_c, 0, 83, 57
2, 94740, Note_on_c, 0, 83, 0
2, 94800, Note_on_c, 0, 80, 60
2, 94860, Note_on_c, 0, 80, 0
2, 94920, Note_on_c, 0, 81, 55
2, 94980, Note_on_c, 0, 81, 0
2, 95040, Note_on_c, 0, 78, 57
2, 95100, Note_on_c, 0, 78, 0
2, 95160, Note_on_c, 0, 83, 52
2, 95220, Note_on_c, 0, 83, 0
2, 95280, Note_on_c, 0, 80, 54
2, 95340, Note_on_c, 0, 80, 0
2, 95400, Note_on_c, 0, 81, 49
2, 95460, Note_on_c, 0, 81, 0
2, 95520, Note_on_c, 0, 78, 51
2, 95580, Note_on_c, 0, 78, 0
2, 95640, Note_on_c, 0, 83, 45
2, 95700, Note_on_c, 0, 83, 0
2, 95760, Note_on_c, 0, 80, 48
2, 95820, Note_on_c, 0, 80, 0
2, 95880, Note_on_c, 0, 81, 43
2, 95940, Note_on_c, 0, 81, 0
2, 96000, Note_on_c, 0, 76, 44
2, 96060, Note_on_c, 0, 76, 0
2, 96120, Note_on_c, 0, 83, 39
2, 96180, Note_on_c, 0, 83, 0
2, 96240, Note_on_c, 0, 79, 44
2, 96300, Note_on_c, 0, 79, 0
2, 96360, Note_on_c, 0, 80, 39
2, 96420, Note_on_c, 0, 80, 0
2, 96480, Note_on_c, 0, 76, 44
2, 96540, Note_on_c, 0, 76, 0
2, 96600, Note_on_c, 0, 83, 40
2, 96660, Note_on_c, 0, 83, 0
2, 96720, Note_on_c, 0, 79, 44
2, 96780, Note_on_c, 0, 79, 0
2, 96840, Note_on_c, 0, 80, 40
2, 96900, Note_on_c, 0, 80, 0
2, 96960, Note_on_c, 0, 76, 44
2, 97020, Note_on_c, 0, 76, 0
2, 97080, Note_on_c, 0, 83, 39
2, 97140, Note_on_c, 0, 83, 0
2, 97200, Note_on_c, 0, 79, 44
2, 97260, Note_on_c, 0, 79, 0
2, 97320, Note_on_c, 0, 80, 39
2, 97380, Note_on_c, 0, 80, 0
2, 97440, Note_on_c, 0, 76, 46
2, 97500, Note_on_c, 0, 76, 0
2, 97560, Note_on_c, 0, 83, 43
2, 97620, Note_on_c, 0, 83, 0
2, 97680, Note_on_c, 0, 79, 47
2, 97740, Note_on_c, 0, 79, 0
2, 97800, Note_on_c, 0, 80, 43
2, 97860, Note_on_c, 0, 80, 0
2, 97920, Note_on_c, 0, 76, 50
2, 97980, Note_on_c, 0, 76, 0
2, 98040, Note_on_c, 0, 83, 45
2, 98100, Note_on_c, 0, 83, 0
2, 98160, Note_on_c, 0, 80, 47
2, 98220, Note_on_c, 0, 80, 0
2, 98280, Note_on_c, 0, 85, 45
2, 98340, Note_on_c, 0, 85, 0
2, 98400, Note_on_c, 0, 76, 44
2, 98460, Note_on_c, 0, 76, 0
2, 98520, Note_on_c, 0, 83, 40
2, 98580, Note_on_c, 0, 83, 0
2, 98640, Note_on_c, 0, 80, 44
2, 98700, Note_on_c, 0, 80, 0
2, 98760, Note_on_c, 0, 85, 40
2, 98820, Note_on_c, 0, 85, 0
2, 98880, Note_on_c, 0, 76, 44
2, 98940, Note_on_c, 0, 76, 0
2, 99000, Note_on_c, 0, 83, 40
2, 99060, Note_on_c, 0, 83, 0
2, 99120, Note_on_c, 0, 80, 44
2, 99180, Note_on_c, 0, 80, 0
2, 99240, Note_on_c, 0, 85, 40
2, 99300, Note_on_c, 0, 85, 0
2, 99360, Note_on_c, 0, 76, 45
2, 99420, Note_on_c, 0, 76, 0
2, 99480, Note_on_c, 0, 83, 43
2, 99540, Note_on_c, 0, 83, 0
2, 99600, Note_on_c, 0, 80, 46
2, 99660, Note_on_c, 0, 80, 0
2, 99720, Note_on_c, 0, 85, 43
2, 99780, Note_on_c, 0, 85, 0
2, 99840, Note_on_c, 0, 78, 49
2, 99900, Note_on_c, 0, 78, 0
2, 99960, Note_on_c, 0, 83, 40
2, 100020, Note_on_c, 0, 83, 0
2, 100080, Note_on_c, 0, 81, 45
2, 100140, Note_on_c, 0, 81, 0
2, 100200, Note_on_c, 0, 87, 40
2, 100260, Note_on_c, 0, 87, 0
2, 100320, Note_on_c, 0, 78, 46
2, 100380, Note_on_c, 0, 78, 0
2, 100440, Note_on_c, 0, 83, 44
2, 100500, Note_on_c, 0, 83, 0
2, 100560, Note_on_c, 0, 81, 45
2, 100620, Note_on_c, 0, 81, 0
2, 100680, Note_on_c, 0, 87, 42
2, 100740, Note_on_c, 0, 87, 0
2, 100800, Note_on_c, 0, 78, 47
2, 100860, Note_on_c, 0, 78, 0
2, 100920, Note_on_c, 0, 83, 44
2, 100980, Note_on_c, 0, 83, 0
2, 101040, Note_on_c, 0, 81, 44
2, 101100, Note_on_c, 0, 81, 0
2, 101160, Note_on_c, 0, 87, 43
2, 101220, Note_on_c, 0, 87, 0
2, 101280, Note_on_c, 0, 78, 46
2, 101340, Note_on_c, 0, 78, 0
2, 101400, Note_on_c, 0, 83, 43
2, 101460, Note_on_c, 0, 83, 0
2, 101520, Note_on_c, 0, 81, 45
2, 101580, Note_on_c, 0, 81, 0
2, 101640, Note_on_c, 0, 87, 42
2, 101700, Note_on_c, 0, 87, 0
2, 101760, Note_on_c, 0, 81, 44
2, 101820, Note_on_c, 0, 81, 0
2, 101880, Note_on_c, 0, 83, 40
2, 101940, Note_on_c, 0, 83, 0
2, 102000, Note_on_c, 0, 80, 44
2, 102060, Note_on_c, 0, 80, 0
2, 102120, Note_on_c, 0, 88, 40
2, 102180, Note_on_c, 0, 88, 0
2, 102240, Note_on_c, 0, 79, 44
2, 102300, Note_on_c, 0, 79, 0
2, 102360, Note_on_c, 0, 83, 40
2, 102420, Note_on_c, 0, 83, 0
2, 102480, Note_on_c, 0, 80, 44
2, 102540, Note_on_c, 0, 80, 0
2, 102600, Note_on_c, 0, 88, 40
2, 102660, Note_on_c, 0, 88, 0
2, 102720, Note_on_c, 0, 79, 44
2, 102780, Note_on_c, 0, 79, 0
2, 102840, Note_on_c, 0, 83, 40
2, 102900, Note_on_c, 0, 83, 0
2, 102960, Note_on_c, 0, 80, 44
2, 103020, Note_on_c, 0, 80, 0
2, 103080, Note_on_c, 0, 88, 40
2, 103140, Note_on_c, 0, 88, 0
2, 103200, Note_on_c, 0, 79, 46
2, 103260, Note_on_c, 0, 79, 0
2, 103320, Note_on_c, 0, 85, 40
2, 103380, Note_on_c, 0, 85, 0
2, 103440, Note_on_c, 0, 80, 46
2, 103500, Note_on_c, 0, 80, 0
2, 103560, Note_on_c, 0, 83, 43
2, 103620, Note_on_c, 0, 83, 0
2, 103680, Note_on_c, 0, 76, 49
2, 103740, Note_on_c, 0, 76, 0
2, 103800, Note_on_c, 0, 83, 43
2, 103860, Note_on_c, 0, 83, 0
2, 103920, Note_on_c, 0, 79, 46
2, 103980, Note_on_c, 0, 79, 0
2, 104040, Note_on_c, 0, 80, 44
2, 104100, Note_on_c, 0, 80, 0
2, 104160, Note_on_c, 0, 76, 44
2, 104220, Note_on_c, 0, 76, 0
2, 104280, Note_on_c, 0, 83, 40
2, 104340, Note_on_c, 0, 83, 0
2, 104400, Note_on_c, 0, 79, 44
2, 104460, Note_on_c, 0, 79, 0
2, 104520, Note_on_c, 0, 80, 40
2, 104580, Note_on_c, 0, 80, 0
2, 104640, Note_on_c, 0, 76, 44
2, 104700, Note_on_c, 0, 76, 0
2, 104760, Note_on_c, 0, 83, 39
2, 104820, Note_on_c, 0, 83, 0
2, 104880, Note_on_c, 0, 79, 47
2, 104940, Note_on_c, 0, 79, 0
2, 105000, Note_on_c, 0, 80, 43
2, 105060, Note_on_c, 0, 80, 0
2, 105120, Note_on_c, 0, 76, 49
2, 105180, Note_on_c, 0, 76, 0
2, 105240, Note_on_c, 0, 83, 44
2, 105300, Note_on_c, 0, 83, 0
2, 105360, Note_on_c, 0, 79, 47
2, 105420, Note_on_c, 0, 79, 0
2, 105480, Note_on_c, 0, 80, 44
2, 105540, Note_on_c, 0, 80, 0
2, 105600, Note_on_c, 0, 76, 50
2, 105660, Note_on_c, 0, 76, 0
2, 105720, Note_on_c, 0, 83, 44
2, 105780, Note_on_c, 0, 83, 0
2, 105840, Note_on_c, 0, 80, 49
2, 105900, Note_on_c, 0, 80, 0
2, 105960, Note_on_c, 0, 85, 44
2, 106020, Note_on_c, 0, 85, 0
2, 106080, Note_on_c, 0, 76, 47
2, 106140, Note_on_c, 0, 76, 0
2, 106200, Note_on_c, 0, 83, 43
2, 106260, Note_on_c, 0, 83, 0
2, 106320, Note_on_c, 0, 80, 46
2, 106380, Note_on_c, 0, 80, 0
2, 106440, Note_on_c, 0, 85, 44
2, 106500, Note_on_c, 0, 85, 0
2, 106560, Note_on_c, 0, 76, 44
2, 106620, Note_on_c, 0, 76, 0
2, 106680, Note_on_c, 0, 83, 40
2, 106740, Note_on_c, 0, 83, 0
2, 106800, Note_on_c, 0, 80, 44
2, 106860, Note_on_c, 0, 80, 0
2, 106920, Note_on_c, 0, 85, 40
2, 106980, Note_on_c, 0, 85, 0
2, 107040, Note_on_c, 0, 76, 45
2, 107100, Note_on_c, 0, 76, 0
2, 107160, Note_on_c, 0, 83, 42
2, 107220, Note_on_c, 0, 83, 0
2, 107280, Note_on_c, 0, 80, 45
2, 107340, Note_on_c, 0, 80, 0
2, 107400, Note_on_c, 0, 85, 42
2, 107460, Note_on_c, 0, 85, 0
2, 107520, Note_on_c, 0, 79, 45
2, 107580, Note_on_c, 0, 79, 0
2, 107640, Note_on_c, 0, 87, 42
2, 107700, Note_on_c, 0, 87, 0
2, 107760, Note_on_c, 0, 80, 47
2, 107820, Note_on_c, 0, 80, 0
2, 107880, Note_on_c, 0, 83, 43
2, 107940, Note_on_c, 0, 83, 0
2, 108000, Note_on_c, 0, 79, 50
2, 108060, Note_on_c, 0, 79, 0
2, 108120, Note_on_c, 0, 87, 44
2, 108180, Note_on_c, 0, 87, 0
2, 108240, Note_on_c, 0, 80, 49
2, 108300, Note_on_c, 0, 80, 0
2, 108360, Note_on_c, 0, 83, 46
2, 108420, Note_on_c, 0, 83, 0
2, 108480, Note_on_c, 0, 79, 44
2, 108540, Note_on_c, 0, 79, 0
2, 108600, Note_on_c, 0, 87, 40
2, 108660, Note_on_c, 0, 87, 0
2, 108720, Note_on_c, 0, 80, 44
2, 108780, Note_on_c, 0, 80, 0
2, 108840, Note_on_c, 0, 83, 40
2, 108900, Note_on_c, 0, 83, 0
2, 108960, Note_on_c, 0, 79, 47
2, 109020, Note_on_c, 0, 79, 0
2, 109080, Note_on_c, 0, 87, 44
2, 109140, Note_on_c, 0, 87, 0
2, 109200, Note_on_c, 0, 80, 47
2, 109260, Note_on_c, 0, 80, 0
2, 109320, Note_on_c, 0, 83, 45
2, 109380, Note_on_c, 0, 83, 0
2, 109440, Note_on_c, 0, 82, 49
2, 109500, Note_on_c, 0, 82, 0
2, 109560, Note_on_c, 0, 91, 44
2, 109620, Note_on_c, 0, 91, 0
2, 109680, Note_on_c, 0, 84, 47
2, 109740, Note_on_c, 0, 84, 0
2, 109800, Note_on_c, 0, 85, 44
2, 109860, Note_on_c, 0, 85, 0
2, 109920, Note_on_c, 0, 82, 50
2, 109980, Note_on_c, 0, 82, 0
2, 110040, Note_on_c, 0, 91, 44
2, 110100, Note_on_c, 0, 91, 0
2, 110160, Note_on_c, 0, 86, 47
2, 110220, Note_on_c, 0, 86, 0
2, 110280, Note_on_c, 0, 87, 43
2, 110340, Note_on_c, 0, 87, 0
2, 110400, Note_on_c, 0, 80, 50
2, 110460, Note_on_c, 0, 80, 0
2, 110520, Note_on_c, 0, 92, 45
2, 110580, Note_on_c, 0, 92, 0
2, 110640, Note_on_c, 0, 87, 46
2, 110700, Note_on_c, 0, 87, 0
2, 110760, Note_on_c, 0, 80, 43
2, 110820, Note_on_c, 0, 80, 0
2, 110880, Note_on_c, 0, 80, 45
2, 110940, Note_on_c, 0, 80, 0
2, 111000, Note_on_c, 0, 75, 42
2, 111060, Note_on_c, 0, 75, 0
2, 111120, Note_on_c, 0, 75, 44
2, 111180, Note_on_c, 0, 75, 0
2, 111240, Note_on_c, 0, 68, 36
2, 111300, Note_on_c, 0, 68, 0
2, 111360, Note_on_c, 0, 69, 61
2, 111600, Note_on_c, 0, 69, 0
2, 111600, Note_on_c, 0, 65, 57
2, 111840, Note_on_c, 0, 65, 0
2, 111840, Note_on_c, 0, 66, 61
2, 112080, Note_on_c, 0, 66, 0
2, 112320, Note_on_c, 0, 73, 46
2, 112440, Note_on_c, 0, 73, 0
2, 112440, Note_on_c, 0, 66, 42
2, 112560, Note_on_c, 0, 66, 0
2, 112560, Note_on_c, 0, 69, 49
2, 112680, Note_on_c, 0, 69, 0
2, 112680, Note_on_c, 0, 73, 45
2, 112800, Note_on_c, 0, 73, 0
2, 112800, Note_on_c, 0, 78, 62
2, 113040, Note_on_c, 0, 78, 0
2, 113040, Note_on_c, 0, 76, 60
2, 113280, Note_on_c, 0, 76, 0
2, 113280, Note_on_c, 0, 76, 62
2, 113520, Note_on_c, 0, 76, 0
2, 113520, Note_on_c, 0, 74, 60
2, 113760, Note_on_c, 0, 74, 0
2, 113760, Note_on_c, 0, 75, 62
2, 114240, Note_on_c, 0, 69, 44
2, 114360, Note_on_c, 0, 69, 0
2, 114360, Note_on_c, 0, 63, 40
2, 114480, Note_on_c, 0, 63, 0
2, 114480, Note_on_c, 0, 66, 47
2, 114600, Note_on_c, 0, 66, 0
2, 114600, Note_on_c, 0, 69, 45
2, 114720, Note_on_c, 0, 69, 0
2, 114720, Note_on_c, 0, 75, 0
2, 114720, Note_on_c, 0, 73, 62
2, 114960, Note_on_c, 0, 73, 0
2, 114960, Note_on_c, 0, 71, 62
2, 115200, Note_on_c, 0, 71, 0
2, 115200, Note_on_c, 0, 69, 61
2, 115440, Note_on_c, 0, 69, 0
2, 115440, Note_on_c, 0, 65, 57
2, 115680, Note_on_c, 0, 65, 0
2, 115680, Note_on_c, 0, 66, 61
2, 115920, Note_on_c, 0, 66, 0
2, 116160, Note_on_c, 0, 73, 55
2, 116280, Note_on_c, 0, 73, 0
2, 116280, Note_on_c, 0, 69, 52
2, 116400, Note_on_c, 0, 69, 0
2, 116400, Note_on_c, 0, 73, 54
2, 116520, Note_on_c, 0, 73, 0
2, 116520, Note_on_c, 0, 78, 56
2, 116640, Note_on_c, 0, 78, 0
2, 116640, Note_on_c, 0, 81, 63
2, 116760, Note_on_c, 0, 81, 0
2, 116800, Note_on_c, 0, 80, 61
2, 116920, Note_on_c, 0, 80, 0
2, 116960, Note_on_c, 0, 78, 60
2, 117080, Note_on_c, 0, 78, 0
2, 117120, Note_on_c, 0, 76, 63
2, 117360, Note_on_c, 0, 76, 0
2, 117360, Note_on_c, 0, 63, 33
2, 117360, Note_on_c, 0, 69, 33
2, 117360, Note_on_c, 0, 75, 57
2, 117600, Note_on_c, 0, 75, 0
2, 117600, Note_on_c, 0, 69, 0
2, 117600, Note_on_c, 0, 63, 0
2, 117600, Note_on_c, 0, 73, 63
2, 117840, Note_on_c, 0, 73, 0
2, 117840, Note_on_c, 0, 64, 33
2, 117840, Note_on_c, 0, 69, 33
2, 117840, Note_on_c, 0, 75, 56
2, 118080, Note_on_c, 0, 75, 0
2, 118080, Note_on_c, 0, 69, 0
2, 118080, Note_on_c, 0, 64, 0
2, 118080, Note_on_c, 0, 73, 60
2, 118320, Note_on_c, 0, 73, 0
2, 118320, Note_on_c, 0, 65, 33
2, 118320, Note_on_c, 0, 71, 52
2, 118560, Note_on_c, 0, 71, 0
2, 118560, Note_on_c, 0, 65, 0
2, 118560, Note_on_c, 0, 70, 56
2, 118800, Note_on_c, 0, 70, 0
2, 118800, Note_on_c, 0, 66, 33
2, 118800, Note_on_c, 0, 71, 53
2, 119040, Note_on_c, 0, 71, 0
2, 119040, Note_on_c, 0, 66, 0
2, 119040, Note_on_c, 0, 69, 61
2, 119280, Note_on_c, 0, 69, 0
2, 119280, Note_on_c, 0, 65, 57
2, 119520, Note_on_c, 0, 65, 0
2, 119520, Note_on_c, 0, 66, 61
2, 119760, Note_on_c, 0, 66, 0
2, 120000, Note_on_c, 0, 73, 45
2, 120120, Note_on_c, 0, 73, 0
2, 120120, Note_on_c, 0, 66, 41
2, 120240, Note_on_c, 0, 66, 0
2, 120240, Note_on_c, 0, 69, 45
2, 120360, Note_on_c, 0, 69, 0
2, 120360, Note_on_c, 0, 73, 43
2, 120480, Note_on_c, 0, 73, 0
2, 120480, Note_on_c, 0, 78, 62
2, 120720, Note_on_c, 0, 78, 0
2, 120720, Note_on_c, 0, 76, 60
2, 120960, Note_on_c, 0, 76, 0
2, 120960, Note_on_c, 0, 76, 62
2, 121200, Note_on_c, 0, 76, 0
2, 121200, Note_on_c, 0, 74, 60
2, 121440, Note_on_c, 0, 74, 0
2, 121440, Note_on_c, 0, 75, 62
2, 121920, Note_on_c, 0, 69, 46
2, 122040, Note_on_c, 0, 69, 0
2, 122040, Note_on_c, 0, 63, 41
2, 122160, Note_on_c, 0, 63, 0
2, 122160, Note_on_c, 0, 66, 48
2, 122280, Note_on_c, 0, 66, 0
2, 122280, Note_on_c, 0, 69, 46
2, 122400, Note_on_c, 0, 69, 0
2, 122400, Note_on_c, 0, 75, 0
2, 122400, Note_on_c, 0, 73, 62
2, 122640, Note_on_c, 0, 73, 0
2, 122640, Note_on_c, 0, 71, 62
2, 122880, Note_on_c, 0, 71, 0
2, 122880, Note_on_c, 0, 69, 61
2, 123120, Note_on_c, 0, 69, 0
2, 123120, Note_on_c, 0, 65, 57
2, 123360, Note_on_c, 0, 65, 0
2, 123360, Note_on_c, 0, 66, 61
2, 123600, Note_on_c, 0, 66, 0
2, 123840, Note_on_c, 0, 73, 48
2, 123960, Note_on_c, 0, 73, 0
2, 123960, Note_on_c, 0, 69, 50
2, 124080, Note_on_c, 0, 69, 0
2, 124080, Note_on_c, 0, 73, 52
2, 124200, Note_on_c, 0, 73, 0
2, 124200, Note_on_c, 0, 78, 54
2, 124320, Note_on_c, 0, 78, 0
2, 124320, Note_on_c, 0, 81, 63
2, 124480, Note_on_c, 0, 81, 0
2, 124480, Note_on_c, 0, 80, 61
2, 124640, Note_on_c, 0, 80, 0
2, 124640, Note_on_c, 0, 78, 60
2, 124800, Note_on_c, 0, 78, 0
2, 124800, Note_on_c, 0, 76, 63
2, 125040, Note_on_c, 0, 76, 0
2, 125040, Note_on_c, 0, 63, 33
2, 125040, Note_on_c, 0, 69, 33
2, 125040, Note_on_c, 0, 75, 57
2, 125280, Note_on_c, 0, 75, 0
2, 125280, Note_on_c, 0, 69, 0
2, 125280, Note_on_c, 0, 63, 0
2, 125280, Note_on_c, 0, 80, 61
2, 125440, Note_on_c, 0, 80, 0
2, 125440, Note_on_c, 0, 78, 58
2, 125600, Note_on_c, 0, 78, 0
2, 125600, Note_on_c, 0, 76, 57
2, 125760, Note_on_c, 0, 76, 0
2, 125760, Note_on_c, 0, 75, 60
2, 126000, Note_on_c, 0, 75, 0
2, 126000, Note_on_c, 0, 64, 27
2, 126000, Note_on_c, 0, 69, 27
2, 126000, Note_on_c, 0, 73, 56
2, 126240, Note_on_c, 0, 73, 0
2, 126240, Note_on_c, 0, 69, 0
2, 126240, Note_on_c, 0, 64, 0
2, 126240, Note_on_c, 0, 78, 60
2, 126400, Note_on_c, 0, 78, 0
2, 126400, Note_on_c, 0, 76, 57
2, 126560, Note_on_c, 0, 76, 0
2, 126560, Note_on_c, 0, 75, 57
2, 126720, Note_on_c, 0, 75, 0
2, 126720, Note_on_c, 0, 73, 67
2, 126960, Note_on_c, 0, 73, 0
2, 126960, Note_on_c, 0, 66, 35
2, 126960, Note_on_c, 0, 69, 35
2, 126960, Note_on_c, 0, 71, 62
2, 127200, Note_on_c, 0, 71, 0
2, 127200, Note_on_c, 0, 69, 0
2, 127200, Note_on_c, 0, 66, 0
2, 127200, Note_on_c, 0, 73, 71
2, 127440, Note_on_c, 0, 73, 0
2, 127440, Note_on_c, 0, 64, 37
2, 127440, Note_on_c, 0, 68, 37
2, 127440, Note_on_c, 0, 71, 63
2, 127680, Note_on_c, 0, 71, 0
2, 127680, Note_on_c, 0, 68, 0
2, 127680, Note_on_c, 0, 64, 0
2, 127680, Note_on_c, 0, 73, 74
2, 127920, Note_on_c, 0, 73, 0
2, 127920, Note_on_c, 0, 62, 40
2, 127920, Note_on_c, 0, 68, 40
2, 127920, Note_on_c, 0, 71, 68
2, 128160, Note_on_c, 0, 71, 0
2, 128160, Note_on_c, 0, 68, 0
2, 128160, Note_on_c, 0, 62, 0
2, 128160, Note_on_c, 0, 73, 75
2, 128400, Note_on_c, 0, 73, 0
2, 128400, Note_on_c, 0, 63, 46
2, 128400, Note_on_c, 0, 69, 46
2, 128400, Note_on_c, 0, 71, 75
2, 128640, Note_on_c, 0, 71, 0
2, 128640, Note_on_c, 0, 69, 0
2, 128640, Note_on_c, 0, 63, 0
2, 128640, Note_on_c, 0, 69, 59
2, 128700, Note_on_c, 0, 69, 0
2, 128760, Note_on_c, 0, 73, 53
2, 128820, Note_on_c, 0, 73, 0
2, 128880, Note_on_c, 0, 70, 59
2, 128940, Note_on_c, 0, 70, 0
2, 129000, Note_on_c, 0, 71, 55
2, 129060, Note_on_c, 0, 71, 0
2, 129120, Note_on_c, 0, 69, 59
2, 129180, Note_on_c, 0, 69, 0
2, 129240, Note_on_c, 0, 73, 55
2, 129300, Note_on_c, 0, 73, 0
2, 129360, Note_on_c, 0, 70, 59
2, 129420, Note_on_c, 0, 70, 0
2, 129480, Note_on_c, 0, 71, 53
2, 129540, Note_on_c, 0, 71, 0
2, 129600, Note_on_c, 0, 69, 59
2, 129660, Note_on_c, 0, 69, 0
2, 129720, Note_on_c, 0, 76, 55
2, 129780, Note_on_c, 0, 76, 0
2, 129840, Note_on_c, 0, 74, 59
2, 129900, Note_on_c, 0, 74, 0
2, 129960, Note_on_c, 0, 75, 53
2, 130020, Note_on_c, 0, 75, 0
2, 130080, Note_on_c, 0, 69, 60
2, 130140, Note_on_c, 0, 69, 0
2, 130200, Note_on_c, 0, 76, 56
2, 130260, Note_on_c, 0, 76, 0
2, 130320, Note_on_c, 0, 74, 59
2, 130380, Note_on_c, 0, 74, 0
2, 130440, Note_on_c, 0, 75, 53
2, 130500, Note_on_c, 0, 75, 0
2, 130560, Note_on_c, 0, 75, 53
2, 130620, Note_on_c, 0, 75, 0
2, 130680, Note_on_c, 0, 80, 47
2, 130740, Note_on_c, 0, 80, 0
2, 130800, Note_on_c, 0, 77, 51
2, 130860, Note_on_c, 0, 77, 0
2, 130920, Note_on_c, 0, 78, 47
2, 130980, Note_on_c, 0, 78, 0
2, 131040, Note_on_c, 0, 75, 50
2, 131100, Note_on_c, 0, 75, 0
2, 131160, Note_on_c, 0, 80, 46
2, 131220, Note_on_c, 0, 80, 0
2, 131280, Note_on_c, 0, 77, 49
2, 131340, Note_on_c, 0, 77, 0
2, 131400, Note_on_c, 0, 78, 43
2, 131460, Note_on_c, 0, 78, 0
2, 131520, Note_on_c, 0, 78, 48
2, 131580, Note_on_c, 0, 78, 0
2, 131640, Note_on_c, 0, 83, 44
2, 131700, Note_on_c, 0, 83, 0
2, 131760, Note_on_c, 0, 80, 47
2, 131820, Note_on_c, 0, 80, 0
2, 131880, Note_on_c, 0, 81, 41
2, 131940, Note_on_c, 0, 81, 0
2, 132000, Note_on_c, 0, 78, 46
2, 132060, Note_on_c, 0, 78, 0
2, 132120, Note_on_c, 0, 83, 43
2, 132180, Note_on_c, 0, 83, 0
2, 132240, Note_on_c, 0, 80, 44
2, 132300, Note_on_c, 0, 80, 0
2, 132360, Note_on_c, 0, 81, 42
2, 132420, Note_on_c, 0, 81, 0
2, 132480, Note_on_c, 0, 76, 44
2, 132540, Note_on_c, 0, 76, 0
2, 132600, Note_on_c, 0, 83, 39
2, 132660, Note_on_c, 0, 83, 0
2, 132720, Note_on_c, 0, 79, 44
2, 132780, Note_on_c, 0, 79, 0
2, 132840, Note_on_c, 0, 80, 39
2, 132900, Note_on_c, 0, 80, 0
2, 132960, Note_on_c, 0, 76, 44
2, 133020, Note_on_c, 0, 76, 0
2, 133080, Note_on_c, 0, 83, 40
2, 133140, Note_on_c, 0, 83, 0
2, 133200, Note_on_c, 0, 79, 44
2, 133260, Note_on_c, 0, 79, 0
2, 133320, Note_on_c, 0, 80, 40
2, 133380, Note_on_c, 0, 80, 0
2, 133440, Note_on_c, 0, 76, 44
2, 133500, Note_on_c, 0, 76, 0
2, 133560, Note_on_c, 0, 83, 39
2, 133620, Note_on_c, 0, 83, 0
2, 133680, Note_on_c, 0, 79, 44
2, 133740, Note_on_c, 0, 79, 0
2, 133800, Note_on_c, 0, 80, 39
2, 133860, Note_on_c, 0, 80, 0
2, 133920, Note_on_c, 0, 76, 46
2, 133980, Note_on_c, 0, 76, 0
2, 134040, Note_on_c, 0, 83, 43
2, 134100, Note_on_c, 0, 83, 0
2, 134160, Note_on_c, 0, 79, 47
2, 134220, Note_on_c, 0, 79, 0
2, 134280, Note_on_c, 0, 80, 43
2, 134340, Note_on_c, 0, 80, 0
2, 134400, Note_on_c, 0, 76, 50
2, 134460, Note_on_c, 0, 76, 0
2, 134520, Note_on_c, 0, 83, 45
2, 134580, Note_on_c, 0, 83, 0
2, 134640, Note_on_c, 0, 80, 47
2, 134700, Note_on_c, 0, 80, 0
2, 134760, Note_on_c, 0, 85, 45
2, 134820, Note_on_c, 0, 85, 0
2, 134880, Note_on_c, 0, 76, 44
2, 134940, Note_on_c, 0, 76, 0
2, 135000, Note_on_c, 0, 83, 40
2, 135060, Note_on_c, 0, 83, 0
2, 135120, Note_on_c, 0, 80, 44
2, 135180, Note_on_c, 0, 80, 0
2, 135240, Note_on_c, 0, 85, 40
2, 135300, Note_on_c, 0, 85, 0
2, 135360, Note_on_c, 0, 76, 44
2, 135420, Note_on_c, 0, 76, 0
2, 135480, Note_on_c, 0, 83, 40
2, 135540, Note_on_c, 0, 83, 0
2, 135600, Note_on_c, 0, 80, 44
2, 135660, Note_on_c, 0, 80, 0
2, 135720, Note_on_c, 0, 85, 40
2, 135780, Note_on_c, 0, 85, 0
2, 135840, Note_on_c, 0, 76, 45
2, 135900, Note_on_c, 0, 76, 0
2, 135960, Note_on_c, 0, 83, 43
2, 136020, Note_on_c, 0, 83, 0
2, 136080, Note_on_c, 0, 80, 46
2, 136140, Note_on_c, 0, 80, 0
2, 136200, Note_on_c, 0, 85, 43
2, 136260, Note_on_c, 0, 85, 0
2, 136320, Note_on_c, 0, 78, 49
2, 136380, Note_on_c, 0, 78, 0
2, 136440, Note_on_c, 0, 83, 40
2, 136500, Note_on_c, 0, 83, 0
2, 136560, Note_on_c, 0, 81, 45
2, 136620, Note_on_c, 0, 81, 0
2, 136680, Note_on_c, 0, 87, 40
2, 136740, Note_on_c, 0, 87, 0
2, 136800, Note_on_c, 0, 78, 46
2, 136860, Note_on_c, 0, 78, 0
2, 136920, Note_on_c, 0, 83, 44
2, 136980, Note_on_c, 0, 83, 0
2, 137040, Note_on_c, 0, 81, 45
2, 137100, Note_on_c, 0, 81, 0
2, 137160, Note_on_c, 0, 87, 42
2, 137220, Note_on_c, 0, 87, 0
2, 137280, Note_on_c, 0, 78, 47
2, 137340, Note_on_c, 0, 78, 0
2, 137400, Note_on_c, 0, 83, 44
2, 137460, Note_on_c, 0, 83, 0
2, 137520, Note_on_c, 0, 81, 44
2, 137580, Note_on_c, 0, 81, 0
2, 137640, Note_on_c, 0, 87, 43
2, 137700, Note_on_c, 0, 87, 0
2, 137760, Note_on_c, 0, 78, 46
2, 137820, Note_on_c, 0, 78, 0
2, 137880, Note_on_c, 0, 83, 43
2, 137940, Note_on_c, 0, 83, 0
2, 138000, Note_on_c, 0, 81, 45
2, 138060, Note_on_c, 0, 81, 0
2, 138120, Note_on_c, 0, 87, 42
2, 138180, Note_on_c, 0, 87, 0
2, 138240, Note_on_c, 0, 81, 44
2, 138300, Note_on_c, 0, 81, 0
2, 138360, Note_on_c, 0, 83, 40
2, 138420, Note_on_c, 0, 83, 0
2, 138480, Note_on_c, 0, 80, 44
2, 138540, Note_on_c, 0, 80, 0
2, 138600, Note_on_c, 0, 88, 40
2, 138660, Note_on_c, 0, 88, 0
2, 138720, Note_on_c, 0, 79, 44
2, 138780, Note_on_c, 0, 79, 0
2, 138840, Note_on_c, 0, 83, 40
2, 138900, Note_on_c, 0, 83, 0
2, 138960, Note_on_c, 0, 80, 44
2, 139020, Note_on_c, 0, 80, 0
2, 139080, Note_on_c, 0, 88, 40
2, 139140, Note_on_c, 0, 88, 0
2, 139200, Note_on_c, 0, 79, 44
2, 139260, Note_on_c, 0, 79, 0
2, 139320, Note_on_c, 0, 83, 40
2, 139380, Note_on_c, 0, 83, 0
2, 139440, Note_on_c, 0, 80, 44
2, 139500, Note_on_c, 0, 80, 0
2, 139560, Note_on_c, 0, 88, 40
2, 139620, Note_on_c, 0, 88, 0
2, 139680, Note_on_c, 0, 79, 46
2, 139740, Note_on_c, 0, 79, 0
2, 139800, Note_on_c, 0, 85, 40
2, 139860, Note_on_c, 0, 85, 0
2, 139920, Note_on_c, 0, 80, 46
2, 139980, Note_on_c, 0, 80, 0
2, 140040, Note_on_c, 0, 83, 43
2, 140100, Note_on_c, 0, 83, 0
2, 140160, Note_on_c, 0, 76, 49
2, 140220, Note_on_c, 0, 76, 0
2, 140280, Note_on_c, 0, 83, 43
2, 140340, Note_on_c, 0, 83, 0
2, 140400, Note_on_c, 0, 79, 46
2, 140460, Note_on_c, 0, 79, 0
2, 140520, Note_on_c, 0, 80, 44
2, 140580, Note_on_c, 0, 80, 0
2, 140640, Note_on_c, 0, 76, 44
2, 140700, Note_on_c, 0, 76, 0
2, 140760, Note_on_c, 0, 83, 40
2, 140820, Note_on_c, 0, 83, 0
2, 140880, Note_on_c, 0, 79, 44
2, 140940, Note_on_c, 0, 79, 0
2, 141000, Note_on_c, 0, 80, 40
2, 141060, Note_on_c, 0, 80, 0
2, 141120, Note_on_c, 0, 76, 44
2, 141180, Note_on_c, 0, 76, 0
2, 141240, Note_on_c, 0, 83, 39
2, 141300, Note_on_c, 0, 83, 0
2, 141360, Note_on_c, 0, 79, 47
2, 141420, Note_on_c, 0, 79, 0
2, 141480, Note_on_c, 0, 80, 43
2, 141540, Note_on_c, 0, 80, 0
2, 141600, Note_on_c, 0, 76, 49
2, 141660, Note_on_c, 0, 76, 0
2, 141720, Note_on_c, 0, 83, 44
2, 141780, Note_on_c, 0, 83, 0
2, 141840, Note_on_c, 0, 79, 47
2, 141900, Note_on_c, 0, 79, 0
2, 141960, Note_on_c, 0, 80, 44
2, 142020, Note_on_c, 0, 80, 0
2, 142080, Note_on_c, 0, 76, 50
2, 142140, Note_on_c, 0, 76, 0
2, 142200, Note_on_c, 0, 83, 44
2, 142260, Note_on_c, 0, 83, 0
2, 142320, Note_on_c, 0, 80, 49
2, 142380, Note_on_c, 0, 80, 0
2, 142440, Note_on_c, 0, 85, 44
2, 142500, Note_on_c, 0, 85, 0
2, 142560, Note_on_c, 0, 76, 47
2, 142620, Note_on_c, 0, 76, 0
2, 142680, Note_on_c, 0, 83, 43
2, 142740, Note_on_c, 0, 83, 0
2, 142800, Note_on_c, 0, 80, 46
2, 142860, Note_on_c, 0, 80, 0
2, 142920, Note_on_c, 0, 85, 44
2, 142980, Note_on_c, 0, 85, 0
2, 143040, Note_on_c, 0, 76, 44
2, 143100, Note_on_c, 0, 76, 0
2, 143160, Note_on_c, 0, 83, 40
2, 143220, Note_on_c, 0, 83, 0
2, 143280, Note_on_c, 0, 80, 44
2, 143340, Note_on_c, 0, 80, 0
2, 143400, Note_on_c, 0, 85, 40
2, 143460, Note_on_c, 0, 85, 0
2, 143520, Note_on_c, 0, 76, 45
2, 143580, Note_on_c, 0, 76, 0
2, 143640, Note_on_c, 0, 83, 42
2, 143700, Note_on_c, 0, 83, 0
2, 143760, Note_on_c, 0, 80, 45
2, 143820, Note_on_c, 0, 80, 0
2, 143880, Note_on_c, 0, 85, 42
2, 143940, Note_on_c, 0, 85, 0
2, 144000, Note_on_c, 0, 78, 45
2, 144060, Note_on_c, 0, 78, 0
2, 144120, Note_on_c, 0, 83, 42
2, 144180, Note_on_c, 0, 83, 0
2, 144240, Note_on_c, 0, 81, 47
2, 144300, Note_on_c, 0, 81, 0
2, 144360, Note_on_c, 0, 87, 43
2, 144420, Note_on_c, 0, 87, 0
2, 144480, Note_on_c, 0, 78, 47
2, 144540, Note_on_c, 0, 78, 0
2, 144600, Note_on_c, 0, 83, 44
2, 144660, Note_on_c, 0, 83, 0
2, 144720, Note_on_c, 0, 81, 46
2, 144780, Note_on_c, 0, 81, 0
2, 144840, Note_on_c, 0, 87, 42
2, 144900, Note_on_c, 0, 87, 0
2, 144960, Note_on_c, 0, 78, 44
2, 145020, Note_on_c, 0, 78, 0
2, 145080, Note_on_c, 0, 83, 40
2, 145140, Note_on_c, 0, 83, 0
2, 145200, Note_on_c, 0, 81, 44
2, 145260, Note_on_c, 0, 81, 0
2, 145320, Note_on_c, 0, 87, 40
2, 145380, Note_on_c, 0, 87, 0
2, 145440, Note_on_c, 0, 78, 47
2, 145500, Note_on_c, 0, 78, 0
2, 145560, Note_on_c, 0, 83, 44
2, 145620, Note_on_c, 0, 83, 0
2, 145680, Note_on_c, 0, 81, 47
2, 145740, Note_on_c, 0, 81, 0
2, 145800, Note_on_c, 0, 87, 45
2, 145860, Note_on_c, 0, 87, 0
2, 145920, Note_on_c, 0, 81, 49
2, 145980, Note_on_c, 0, 81, 0
2, 146040, Note_on_c, 0, 83, 44
2, 146100, Note_on_c, 0, 83, 0
2, 146160, Note_on_c, 0, 80, 47
2, 146220, Note_on_c, 0, 80, 0
2, 146280, Note_on_c, 0, 88, 44
2, 146340, Note_on_c, 0, 88, 0
2, 146400, Note_on_c, 0, 79, 50
2, 146460, Note_on_c, 0, 79, 0
2, 146520, Note_on_c, 0, 83, 44
2, 146580, Note_on_c, 0, 83, 0
2, 146640, Note_on_c, 0, 80, 47
2, 146700, Note_on_c, 0, 80, 0
2, 146760, Note_on_c, 0, 88, 43
2, 146820, Note_on_c, 0, 88, 0
2, 146880, Note_on_c, 0, 79, 50
2, 146940, Note_on_c, 0, 79, 0
2, 147000, Note_on_c, 0, 83, 45
2, 147060, Note_on_c, 0, 83, 0
2, 147120, Note_on_c, 0, 80, 46
2, 147180, Note_on_c, 0, 80, 0
2, 147240, Note_on_c, 0, 88, 43
2, 147300, Note_on_c, 0, 88, 0
2, 147360, Note_on_c, 0, 79, 45
2, 147420, Note_on_c, 0, 79, 0
2, 147480, Note_on_c, 0, 85, 42
2, 147540, Note_on_c, 0, 85, 0
2, 147600, Note_on_c, 0, 80, 44
2, 147660, Note_on_c, 0, 80, 0
2, 147720, Note_on_c, 0, 83, 36
2, 147780, Note_on_c, 0, 83, 0
2, 147840, Note_on_c, 0, 76, 49
2, 147900, Note_on_c, 0, 76, 0
2, 147960, Note_on_c, 0, 83, 44
2, 148020, Note_on_c, 0, 83, 0
2, 148080, Note_on_c, 0, 79, 47
2, 148140, Note_on_c, 0, 79, 0
2, 148200, Note_on_c, 0, 80, 44
2, 148260, Note_on_c, 0, 80, 0
2, 148320, Note_on_c, 0, 71, 47
2, 148380, Note_on_c, 0, 71, 0
2, 148440, Note_on_c, 0, 76, 44
2, 148500, Note_on_c, 0, 76, 0
2, 148560, Note_on_c, 0, 75, 47
2, 148620, Note_on_c, 0, 75, 0
2, 148680, Note_on_c, 0, 76, 43
2, 148740, Note_on_c, 0, 76, 0
2, 148800, Note_on_c, 0, 71, 46
2, 148860, Note_on_c, 0, 71, 0
2, 148920, Note_on_c, 0, 76, 43
2, 148980, Note_on_c, 0, 76, 0
2, 149040, Note_on_c, 0, 75, 45
2, 149100, Note_on_c, 0, 75, 0
2, 149160, Note_on_c, 0, 76, 43
2, 149220, Note_on_c, 0, 76, 0
2, 149280, Note_on_c, 0, 71, 45
2, 149340, Note_on_c, 0, 71, 0
2, 149400, Note_on_c, 0, 76, 42
2, 149460, Note_on_c, 0, 76, 0
2, 149520, Note_on_c, 0, 75, 44
2, 149580, Note_on_c, 0, 75, 0
2, 149640, Note_on_c, 0, 76, 36
2, 149700, Note_on_c, 0, 76, 0
2, 149760, Note_on_c, 0, 64, 43
2, 149820, Note_on_c, 0, 64, 0
2, 149880, Note_on_c, 0, 71, 39
2, 149940, Note_on_c, 0, 71, 0
2, 150000, Note_on_c, 0, 70, 43
2, 150060, Note_on_c, 0, 70, 0
2, 150120, Note_on_c, 0, 71, 37
2, 150180, Note_on_c, 0, 71, 0
2, 150240, Note_on_c, 0, 59, 43
2, 150300, Note_on_c, 0, 59, 0
2, 150360, Note_on_c, 0, 68, 36
2, 150420, Note_on_c, 0, 68, 0
2, 150480, Note_on_c, 0, 67, 43
2, 150540, Note_on_c, 0, 67, 0
2, 150600, Note_on_c, 0, 68, 36
2, 150660, Note_on_c, 0, 68, 0
2, 150720, Note_on_c, 0, 59, 43
2, 150780, Note_on_c, 0, 59, 0
2, 150840, Note_on_c, 0, 68, 36
2, 150900, Note_on_c, 0, 68, 0
2, 150960, Note_on_c, 0, 67, 42
2, 151020, Note_on_c, 0, 67, 0
2, 151080, Note_on_c, 0, 68, 36
2, 151140, Note_on_c, 0, 68, 0
2, 151200, Note_on_c, 0, 56, 42
2, 151260, Note_on_c, 0, 56, 0
2, 151320, Note_on_c, 0, 64, 36
2, 151380, Note_on_c, 0, 64, 0
2, 151440, Note_on_c, 0, 63, 41
2, 151500, Note_on_c, 0, 63, 0
2, 151560, Note_on_c, 0, 64, 36
2, 151620, Note_on_c, 0, 64, 0
2, 151680, Note_on_c, 0, 56, 37
2, 151740, Note_on_c, 0, 56, 0
2, 151800, Note_on_c, 0, 64, 35
2, 151860, Note_on_c, 0, 64, 0
2, 151920, Note_on_c, 0, 63, 37
2, 151980, Note_on_c, 0, 63, 0
2, 152040, Note_on_c, 0, 64, 34
2, 152100, Note_on_c, 0, 64, 0
2, 152160, Note_on_c, 0, 52, 37
2, 152220, Note_on_c, 0, 52, 0
2, 152280, Note_on_c, 0, 59, 32
2, 152340, Note_on_c, 0, 59, 0
2, 152400, Note_on_c, 0, 58, 37
2, 152460, Note_on_c, 0, 58, 0
2, 152520, Note_on_c, 0, 59, 32
2, 152580, Note_on_c, 0, 59, 0
2, 152640, Note_on_c, 0, 52, 37
2, 152700, Note_on_c, 0, 52, 0
2, 152760, Note_on_c, 0, 59, 33
2, 152820, Note_on_c, 0, 59, 0
2, 152880, Note_on_c, 0, 58, 36
2, 152940, Note_on_c, 0, 58, 0
2, 153000, Note_on_c, 0, 59, 33
2, 153060, Note_on_c, 0, 59, 0
2, 153120, Note_on_c, 0, 52, 36
2, 153180, Note_on_c, 0, 52, 0
2, 153240, Note_on_c, 0, 59, 33
2, 153300, Note_on_c, 0, 59, 0
2, 153360, Note_on_c, 0, 58, 36
2, 153420, Note_on_c, 0, 58, 0
2, 153480, Note_on_c, 0, 59, 33
2, 153540, Note_on_c, 0, 59, 0
2, 153600, Note_on_c, 0, 52, 37
2, 153660, Note_on_c, 0, 52, 0
2, 153720, Note_on_c, 0, 59, 35
2, 153780, Note_on_c, 0, 59, 0
2, 153840, Note_on_c, 0, 58, 37
2, 153900, Note_on_c, 0, 58, 0
2, 153960, Note_on_c, 0, 59, 34
2, 154020, Note_on_c, 0, 59, 0
2, 154080, Note_on_c, 0, 52, 37
2, 154140, Note_on_c, 0, 52, 0
2, 154200, Note_on_c, 0, 59, 32
2, 154260, Note_on_c, 0, 59, 0
2, 154320, Note_on_c, 0, 58, 37
2, 154380, Note_on_c, 0, 58, 0
2, 154440, Note_on_c, 0, 59, 32
2, 154500, Note_on_c, 0, 59, 0
2, 154560, Note_on_c, 0, 52, 37
2, 154620, Note_on_c, 0, 52, 0
2, 154680, Note_on_c, 0, 59, 33
2, 154740, Note_on_c, 0, 59, 0
2, 154800, Note_on_c, 0, 58, 36
2, 154860, Note_on_c, 0, 58, 0
2, 154920, Note_on_c, 0, 59, 33
2, 154980, Note_on_c, 0, 59, 0
2, 155040, Note_on_c, 0, 52, 36
2, 155100, Note_on_c, 0, 52, 0
2, 155160, Note_on_c, 0, 59, 33
2, 155220, Note_on_c, 0, 59, 0
2, 155280, Note_on_c, 0, 58, 36
2, 155340, Note_on_c, 0, 58, 0
2, 155400, Note_on_c, 0, 59, 33
2, 155460, Note_on_c, 0, 59, 0
2, 155520, Note_on_c, 0, 52, 37
2, 155580, Note_on_c, 0, 52, 0
2, 155640, Note_on_c, 0, 59, 35
2, 155700, Note_on_c, 0, 59, 0
2, 155760, Note_on_c, 0, 58, 37
2, 155820, Note_on_c, 0, 58, 0
2, 155880, Note_on_c, 0, 59, 33
2, 155940, Note_on_c, 0, 59, 0
2, 156000, Note_on_c, 0, 52, 36
2, 156060, Note_on_c, 0, 52, 0
2, 156120, Note_on_c, 0, 59, 30
2, 156180, Note_on_c, 0, 59, 0
2, 156240, Note_on_c, 0, 58, 36
2, 156300, Note_on_c, 0, 58, 0
2, 156360, Note_on_c, 0, 59, 30
2, 156420, Note_on_c, 0, 59, 0
2, 156480, Note_on_c, 0, 52, 35
2, 156540, Note_on_c, 0, 52, 0
2, 156600, Note_on_c, 0, 59, 30
2, 156660, Note_on_c, 0, 59, 0
2, 156720, Note_on_c, 0, 58, 31
2, 156780, Note_on_c, 0, 58, 0
2, 156840, Note_on_c, 0, 59, 25
2, 156900, Note_on_c, 0, 59, 0
2, 156960, Note_on_c, 0, 52, 27
2, 157020, Note_on_c, 0, 52, 0
2, 157080, Note_on_c, 0, 59, 23
2, 157140, Note_on_c, 0, 59, 0
2, 157200, Note_on_c, 0, 58, 27
2, 157260, Note_on_c, 0, 58, 0
2, 157320, Note_on_c, 0, 59, 24
2, 157380, Note_on_c, 0, 59, 0
2, 157440, Note_on_c, 0, 52, 22
2, 157680, Note_on_c, 0, 52, 0
2, 157680, End_track
3, 0, Start_track
3, 0, Title_t, "Piano left"
3, 0, Program_c, 0, 0
3, 0, Control_c, 0, 7, 100
3, 0, Control_c, 0, 10, 64
3, 0, Note_on_c, 0, 61, 53
3, 0, Control_c, 0, 64, 0
3, 240, Note_on_c, 0, 61, 0
3, 240, Note_on_c, 0, 59, 49
3, 480, Note_on_c, 0, 59, 0
3, 480, Note_on_c, 0, 64, 50
3, 536, Control_c, 0, 64, 127
3, 960, Note_on_c, 0, 59, 37
3, 960, Note_on_c, 0, 52, 37
3, 1440, Note_on_c, 0, 52, 0
3, 1440, Note_on_c, 0, 59, 0
3, 1440, Note_on_c, 0, 64, 0
3, 1440, Control_c, 0, 64, 0
3, 1440, Note_on_c, 0, 68, 52
3, 1680, Note_on_c, 0, 68, 0
3, 1680, Note_on_c, 0, 71, 50
3, 1920, Note_on_c, 0, 71, 0
3, 1920, Note_on_c, 0, 73, 55
3, 2160, Note_on_c, 0, 73, 0
3, 2160, Note_on_c, 0, 71, 49
3, 2400, Note_on_c, 0, 71, 0
3, 2400, Note_on_c, 0, 68, 51
3, 2485, Control_c, 0, 64, 127
3, 2880, Note_on_c, 0, 52, 37
3, 2880, Note_on_c, 0, 59, 37
3, 3360, Note_on_c, 0, 59, 0
3, 3360, Note_on_c, 0, 52, 0
3, 3360, Note_on_c, 0, 68, 0
3, 3360, Control_c, 0, 64, 0
3, 3360, Note_on_c, 0, 64, 50
3, 3600, Note_on_c, 0, 64, 0
3, 3600, Note_on_c, 0, 61, 48
3, 3840, Note_on_c, 0, 61, 0
3, 3840, Note_on_c, 0, 68, 50
3, 4080, Note_on_c, 0, 68, 0
3, 4080, Note_on_c, 0, 66, 47
3, 4320, Note_on_c, 0, 66, 0
3, 4320, Note_on_c, 0, 61, 49
3, 4405, Control_c, 0, 64, 127
3, 4800, Note_on_c, 0, 59, 37
3, 4800, Note_on_c, 0, 52, 37
3, 5280, Note_on_c, 0, 52, 0
3, 5280, Note_on_c, 0, 59, 0
3, 5280, Note_on_c, 0, 61, 0
3, 5280, Note_on_c, 0, 61, 48
3, 5286, Control_c, 0, 64, 0
3, 5520, Note_on_c, 0, 61, 0
3, 5520, Note_on_c, 0, 59, 41
3, 5760, Note_on_c, 0, 59, 0
3, 5760, Note_on_c, 0, 66, 47
3, 6000, Note_on_c, 0, 66, 0
3, 6000, Note_on_c, 0, 64, 39
3, 6240, Note_on_c, 0, 64, 0
3, 6240, Note_on_c, 0, 59, 41
3, 6320, Control_c, 0, 64, 127
3, 6720, Note_on_c, 0, 52, 37
3, 6720, Note_on_c, 0, 56, 37
3, 7200, Note_on_c, 0, 56, 0
3, 7200, Note_on_c, 0, 52, 0
3, 7200, Note_on_c, 0, 59, 0
3, 7200, Control_c, 0, 64, 0
3, 7200, Note_on_c, 0, 58, 48
3, 7440, Note_on_c, 0, 58, 0
3, 7440, Note_on_c, 0, 59, 47
3, 7680, Note_on_c, 0, 59, 0
3, 7680, Note_on_c, 0, 61, 53
3, 7920, Note_on_c, 0, 61, 0
3, 7920, Note_on_c, 0, 59, 49
3, 8160, Note_on_c, 0, 59, 0
3, 8160, Note_on_c, 0, 64, 50
3, 8216, Control_c, 0, 64, 127
3, 8640, Note_on_c, 0, 59, 37
3, 8640, Note_on_c, 0, 52, 37
3, 9120, Note_on_c, 0, 52, 0
3, 9120, Note_on_c, 0, 59, 0
3, 9120, Note_on_c, 0, 64, 0
3, 9120, Control_c, 0, 64, 0
3, 9120, Note_on_c, 0, 68, 52
3, 9360, Note_on_c, 0, 68, 0
3, 9360, Note_on_c, 0, 71, 50
3, 9600, Note_on_c, 0, 71, 0
3, 9600, Note_on_c, 0, 73, 55
3, 9840, Note_on_c, 0, 73, 0
3, 9840, Note_on_c, 0, 71, 49
3, 10080, Note_on_c, 0, 71, 0
3, 10080, Note_on_c, 0, 68, 51
3, 10165, Control_c, 0, 64, 127
3, 10560, Note_on_c, 0, 52, 37
3, 10560, Note_on_c, 0, 59, 37
3, 11040, Note_on_c, 0, 59, 0
3, 11040, Note_on_c, 0, 52, 0
3, 11040, Note_on_c, 0, 68, 0
3, 11040, Control_c, 0, 64, 0
3, 11040, Note_on_c, 0, 64, 50
3, 11280, Note_on_c, 0, 64, 0
3, 11280, Note_on_c, 0, 61, 48
3, 11520, Note_on_c, 0, 61, 0
3, 11520, Note_on_c, 0, 59, 50
3, 11760, Note_on_c, 0, 59, 0
3, 11760, Note_on_c, 0, 63, 47
3, 12000, Note_on_c, 0, 63, 0
3, 12000, Note_on_c, 0, 71, 49
3, 12085, Control_c, 0, 64, 127
3, 12480, Note_on_c, 0, 56, 37
3, 12480, Note_on_c, 0, 51, 37
3, 12480, Note_on_c, 0, 59, 37
3, 12960, Note_on_c, 0, 59, 0
3, 12960, Note_on_c, 0, 71, 0
3, 12960, Note_on_c, 0, 56, 0
3, 12960, Note_on_c, 0, 51, 0
3, 12960, Control_c, 0, 64, 0
3, 12960, Note_on_c, 0, 70, 48
3, 13200, Note_on_c, 0, 70, 0
3, 13200, Note_on_c, 0, 68, 41
3, 13440, Note_on_c, 0, 68, 0
3, 13440, Note_on_c, 0, 64, 48
3, 13920, Note_on_c, 0, 64, 0
3, 13920, Note_on_c, 0, 58, 37
3, 13920, Note_on_c, 0, 63, 48
3, 13920, Note_on_c, 0, 51, 37
3, 14011, Control_c, 0, 64, 127
3, 14160, Note_on_c, 0, 63, 0
3, 14160, Note_on_c, 0, 61, 41
3, 14400, Note_on_c, 0, 61, 0
3, 14400, Note_on_c, 0, 51, 0
3, 14400, Note_on_c, 0, 58, 0
3, 14400, Note_on_c, 0, 61, 46
3, 14400, Note_on_c, 0, 56, 34
3, 14409, Control_c, 0, 64, 0
3, 14503, Control_c, 0, 64, 127
3, 14640, Note_on_c, 0, 61, 0
3, 14640, Note_on_c, 0, 59, 39
3, 14820, Note_on_c, 0, 59, 0
3, 14820, Note_on_c, 0, 56, 0
3, 14820, Note_on_c, 0, 44, 31
3, 14850, Note_on_c, 0, 51, 31
3, 14880, Note_on_c, 0, 58, 40
3, 14891, Control_c, 0, 64, 0
3, 14961, Control_c, 0, 64, 127
3, 15120, Note_on_c, 0, 58, 0
3, 15120, Note_on_c, 0, 56, 37
3, 15234, Control_c, 0, 64, 0
3, 15360, Note_on_c, 0, 56, 0
3, 15360, Note_on_c, 0, 51, 0
3, 15360, Note_on_c, 0, 44, 0
3, 15904, Control_c, 0, 64, 127
3, 15960, Note_on_c, 0, 42, 39
3, 16080, Note_on_c, 0, 42, 0
3, 16080, Note_on_c, 0, 49, 37
3, 16200, Note_on_c, 0, 49, 0
3, 16200, Note_on_c, 0, 54, 37
3, 16320, Note_on_c, 0, 54, 0
3, 16320, Note_on_c, 0, 57, 39
3, 16440, Note_on_c, 0, 57, 0
3, 16801, Control_c, 0, 64, 0
3, 17795, Control_c, 0, 64, 127
3, 17880, Note_on_c, 0, 47, 39
3, 18000, Note_on_c, 0, 47, 0
3, 18000, Note_on_c, 0, 54, 37
3, 18120, Note_on_c, 0, 54, 0
3, 18120, Note_on_c, 0, 57, 37
3, 18240, Note_on_c, 0, 57, 0
3, 18240, Note_on_c, 0, 59, 39
3, 18360, Note_on_c, 0, 59, 0
3, 18723, Control_c, 0, 64, 0
3, 19744, Control_c, 0, 64, 127
3, 19800, Note_on_c, 0, 42, 37
3, 19920, Note_on_c, 0, 42, 0
3, 19920, Note_on_c, 0, 49, 40
3, 20040, Note_on_c, 0, 49, 0
3, 20040, Note_on_c, 0, 54, 44
3, 20160, Note_on_c, 0, 54, 0
3, 20160, Note_on_c, 0, 57, 48
3, 20280, Note_on_c, 0, 57, 0
3, 20640, Control_c, 0, 64, 0
3, 21360, Note_on_c, 0, 47, 29
3, 21360, Note_on_c, 0, 59, 35
3, 21360, Note_on_c, 0, 54, 29
3, 21600, Note_on_c, 0, 54, 0
3, 21600, Note_on_c, 0, 59, 0
3, 21600, Note_on_c, 0, 47, 0
3, 21840, Note_on_c, 0, 52, 25
3, 21840, Note_on_c, 0, 49, 25
3, 21840, Note_on_c, 0, 57, 35
3, 22080, Note_on_c, 0, 57, 0
3, 22080, Note_on_c, 0, 49, 0
3, 22080, Note_on_c, 0, 52, 0
3, 22320, Note_on_c, 0, 50, 29
3, 22320, Note_on_c, 0, 56, 35
3, 22560, Note_on_c, 0, 56, 0
3, 22560, Note_on_c, 0, 50, 0
3, 22800, Note_on_c, 0, 51, 29
3, 22800, Note_on_c, 0, 57, 35
3, 23040, Note_on_c, 0, 57, 0
3, 23040, Note_on_c, 0, 51, 0
3, 23584, Control_c, 0, 64, 127
3, 23640, Note_on_c, 0, 42, 39
3, 23760, Note_on_c, 0, 42, 0
3, 23760, Note_on_c, 0, 49, 37
3, 23880, Note_on_c, 0, 49, 0
3, 23880, Note_on_c, 0, 54, 37
3, 24000, Note_on_c, 0, 54, 0
3, 24000, Note_on_c, 0, 57, 39
3, 24120, Note_on_c, 0, 57, 0
3, 24480, Control_c, 0, 64, 0
3, 25475, Control_c, 0, 64, 127
3, 25560, Note_on_c, 0, 47, 39
3, 25680, Note_on_c, 0, 47, 0
3, 25680, Note_on_c, 0, 54, 37
3, 25800, Note_on_c, 0, 54, 0
3, 25800, Note_on_c, 0, 57, 37
3, 25920, Note_on_c, 0, 57, 0
3, 25920, Note_on_c, 0, 59, 39
3, 26040, Note_on_c, 0, 59, 0
3, 26400, Control_c, 0, 64, 0
3, 27424, Control_c, 0, 64, 127
3, 27480, Note_on_c, 0, 42, 37
3, 27600, Note_on_c, 0, 42, 0
3, 27600, Note_on_c, 0, 49, 40
3, 27720, Note_on_c, 0, 49, 0
3, 27720, Note_on_c, 0, 54, 44
3, 27840, Note_on_c, 0, 54, 0
3, 27840, Note_on_c, 0, 57, 48
3, 27960, Note_on_c, 0, 57, 0
3, 28320, Control_c, 0, 64, 0
3, 29040, Note_on_c, 0, 47, 29
3, 29040, Note_on_c, 0, 59, 35
3, 29040, Note_on_c, 0, 54, 29
3, 29280, Note_on_c, 0, 54, 0
3, 29280, Note_on_c, 0, 59, 0
3, 29280, Note_on_c, 0, 47, 0
3, 30000, Note_on_c, 0, 49, 24
3, 30000, Note_on_c, 0, 57, 24
3, 30000, Note_on_c, 0, 52, 24
3, 30000, Note_on_c, 0, 61, 29
3, 30240, Note_on_c, 0, 61, 0
3, 30240, Note_on_c, 0, 49, 0
3, 30240, Note_on_c, 0, 57, 0
3, 30240, Note_on_c, 0, 52, 0
3, 30720, Note_on_c, 0, 61, 59
3, 30960, Note_on_c, 0, 61, 0
3, 30960, Note_on_c, 0, 54, 37
3, 30960, Note_on_c, 0, 51, 37
3, 30960, Note_on_c, 0, 59, 37
3, 31200, Note_on_c, 0, 59, 0
3, 31200, Note_on_c, 0, 51, 0
3, 31200, Note_on_c, 0, 54, 0
3, 31200, Note_on_c, 0, 61, 67
3, 31440, Note_on_c, 0, 61, 0
3, 31440, Note_on_c, 0, 56, 42
3, 31440, Note_on_c, 0, 52, 42
3, 31440, Note_on_c, 0, 59, 42
3, 31680, Note_on_c, 0, 59, 0
3, 31680, Note_on_c, 0, 52, 0
3, 31680, Note_on_c, 0, 56, 0
3, 31680, Note_on_c, 0, 61, 71
3, 31920, Note_on_c, 0, 61, 0
3, 31920, Note_on_c, 0, 56, 48
3, 31920, Note_on_c, 0, 53, 48
3, 31920, Note_on_c, 0, 59, 48
3, 32160, Note_on_c, 0, 59, 0
3, 32160, Note_on_c, 0, 53, 0
3, 32160, Note_on_c, 0, 56, 0
3, 32160, Note_on_c, 0, 61, 72
3, 32400, Note_on_c, 0, 61, 0
3, 32400, Note_on_c, 0, 59, 55
3, 32400, Note_on_c, 0, 54, 55
3, 32640, Note_on_c, 0, 54, 0
3, 32640, Note_on_c, 0, 59, 0
3, 33226, Control_c, 0, 64, 127
3, 33280, Note_on_c, 0, 40, 61
3, 33440, Note_on_c, 0, 40, 0
3, 33440, Note_on_c, 0, 47, 61
3, 33600, Note_on_c, 0, 47, 0
3, 33600, Note_on_c, 0, 52, 66
3, 33760, Note_on_c, 0, 52, 0
3, 33760, Note_on_c, 0, 47, 62
3, 33920, Note_on_c, 0, 47, 0
3, 33920, Note_on_c, 0, 52, 62
3, 34080, Note_on_c, 0, 52, 0
3, 34080, Note_on_c, 0, 59, 69
3, 34240, Note_on_c, 0, 59, 0
3, 34240, Note_on_c, 0, 52, 62
3, 34400, Note_on_c, 0, 52, 0
3, 34400, Note_on_c, 0, 59, 61
3, 34560, Note_on_c, 0, 59, 0
3, 34560, Note_on_c, 0, 64, 71
3, 34572, Control_c, 0, 64, 0
3, 34659, Control_c, 0, 64, 127
3, 34800, Note_on_c, 0, 64, 0
3, 35054, Control_c, 0, 64, 0
3, 35188, Control_c, 0, 64, 127
3, 35200, Note_on_c, 0, 40, 61
3, 35360, Note_on_c, 0, 40, 0
3, 35360, Note_on_c, 0, 47, 61
3, 35520, Note_on_c, 0, 47, 0
3, 35520, Note_on_c, 0, 52, 66
3, 35680, Note_on_c, 0, 52, 0
3, 35680, Note_on_c, 0, 47, 62
3, 35840, Note_on_c, 0, 47, 0
3, 35840, Note_on_c, 0, 52, 62
3, 36000, Note_on_c, 0, 52, 0
3, 36000, Note_on_c, 0, 59, 69
3, 36160, Note_on_c, 0, 59, 0
3, 36160, Note_on_c, 0, 52, 62
3, 36320, Note_on_c, 0, 52, 0
3, 36320, Note_on_c, 0, 59, 61
3, 36480, Note_on_c, 0, 59, 0
3, 36480, Note_on_c, 0, 63, 71
3, 36484, Control_c, 0, 64, 0
3, 36586, Control_c, 0, 64, 127
3, 36720, Note_on_c, 0, 63, 0
3, 36975, Control_c, 0, 64, 0
3, 37120, Note_on_c, 0, 40, 55
3, 37164, Control_c, 0, 64, 127
3, 37280, Note_on_c, 0, 40, 0
3, 37280, Note_on_c, 0, 47, 55
3, 37440, Note_on_c, 0, 47, 0
3, 37440, Note_on_c, 0, 54, 59
3, 37600, Note_on_c, 0, 54, 0
3, 37600, Note_on_c, 0, 47, 56
3, 37760, Note_on_c, 0, 47, 0
3, 37760, Note_on_c, 0, 54, 56
3, 37920, Note_on_c, 0, 54, 0
3, 37920, Note_on_c, 0, 59, 61
3, 38080, Note_on_c, 0, 59, 0
3, 38080, Note_on_c, 0, 54, 56
3, 38240, Note_on_c, 0, 54, 0
3, 38240, Note_on_c, 0, 59, 55
3, 38400, Note_on_c, 0, 59, 0
3, 38400, Note_on_c, 0, 64, 63
3, 38407, Control_c, 0, 64, 0
3, 38492, Control_c, 0, 64, 127
3, 38640, Note_on_c, 0, 64, 0
3, 38887, Control_c, 0, 64, 0
3, 39035, Control_c, 0, 64, 127
3, 39040, Note_on_c, 0, 40, 55
3, 39200, Note_on_c, 0, 40, 0
3, 39200, Note_on_c, 0, 47, 55
3, 39360, Note_on_c, 0, 47, 0
3, 39360, Note_on_c, 0, 52, 59
3, 39520, Note_on_c, 0, 52, 0
3, 39520, Note_on_c, 0, 47, 56
3, 39680, Note_on_c, 0, 47, 0
3, 39680, Note_on_c, 0, 52, 56
3, 39840, Note_on_c, 0, 52, 0
3, 39840, Note_on_c, 0, 56, 61
3, 40000, Note_on_c, 0, 56, 0
3, 40000, Note_on_c, 0, 52, 56
3, 40160, Note_on_c, 0, 52, 0
3, 40160, Note_on_c, 0, 56, 55
3, 40320, Note_on_c, 0, 56, 0
3, 40320, Note_on_c, 0, 59, 63
3, 40329, Control_c, 0, 64, 0
3, 40419, Control_c, 0, 64, 127
3, 40560, Note_on_c, 0, 59, 0
3, 40818, Control_c, 0, 64, 0
3, 40960, Note_on_c, 0, 40, 61
3, 40962, Control_c, 0, 64, 127
3, 41120, Note_on_c, 0, 40, 0
3, 41120, Note_on_c, 0, 47, 61
3, 41280, Note_on_c, 0, 47, 0
3, 41280, Note_on_c, 0, 52, 66
3, 41440, Note_on_c, 0, 52, 0
3, 41440, Note_on_c, 0, 47, 62
3, 41600, Note_on_c, 0, 47, 0
3, 41600, Note_on_c, 0, 52, 62
3, 41760, Note_on_c, 0, 52, 0
3, 41760, Note_on_c, 0, 59, 69
3, 41920, Note_on_c, 0, 59, 0
3, 41920, Note_on_c, 0, 52, 62
3, 42080, Note_on_c, 0, 52, 0
3, 42080, Note_on_c, 0, 59, 61
3, 42240, Note_on_c, 0, 59, 0
3, 42240, Note_on_c, 0, 64, 71
3, 42250, Control_c, 0, 64, 0
3, 42339, Control_c, 0, 64, 127
3, 42480, Note_on_c, 0, 64, 0
3, 42732, Control_c, 0, 64, 0
3, 42868, Control_c, 0, 64, 127
3, 42880, Note_on_c, 0, 40, 61
3, 43040, Note_on_c, 0, 40, 0
3, 43040, Note_on_c, 0, 47, 61
3, 43200, Note_on_c, 0, 47, 0
3, 43200, Note_on_c, 0, 52, 66
3, 43360, Note_on_c, 0, 52, 0
3, 43360, Note_on_c, 0, 47, 62
3, 43520, Note_on_c, 0, 47, 0
3, 43520, Note_on_c, 0, 52, 62
3, 43680, Note_on_c, 0, 52, 0
3, 43680, Note_on_c, 0, 59, 69
3, 43840, Note_on_c, 0, 59, 0
3, 43840, Note_on_c, 0, 52, 62
3, 44000, Note_on_c, 0, 52, 0
3, 44000, Note_on_c, 0, 59, 61
3, 44160, Note_on_c, 0, 59, 0
3, 44160, Note_on_c, 0, 63, 71
3, 44169, Control_c, 0, 64, 0
3, 44230, Control_c, 0, 64, 127
3, 44400, Note_on_c, 0, 63, 0
3, 44646, Control_c, 0, 64, 0
3, 44746, Control_c, 0, 64, 127
3, 44800, Note_on_c, 0, 40, 55
3, 44960, Note_on_c, 0, 40, 0
3, 44960, Note_on_c, 0, 47, 55
3, 45120, Note_on_c, 0, 47, 0
3, 45120, Note_on_c, 0, 54, 59
3, 45280, Note_on_c, 0, 54, 0
3, 45280, Note_on_c, 0, 47, 56
3, 45440, Note_on_c, 0, 47, 0
3, 45440, Note_on_c, 0, 54, 56
3, 45600, Note_on_c, 0, 54, 0
3, 45600, Note_on_c, 0, 59, 61
3, 45760, Note_on_c, 0, 59, 0
3, 45760, Note_on_c, 0, 54, 56
3, 45920, Note_on_c, 0, 54, 0
3, 45920, Note_on_c, 0, 59, 55
3, 46080, Note_on_c, 0, 59, 0
3, 46080, Note_on_c, 0, 64, 63
3, 46090, Control_c, 0, 64, 0
3, 46193, Control_c, 0, 64, 127
3, 46320, Note_on_c, 0, 64, 0
3, 46567, Control_c, 0, 64, 0
3, 46666, Control_c, 0, 64, 127
3, 46720, Note_on_c, 0, 40, 55
3, 46880, Note_on_c, 0, 40, 0
3, 46880, Note_on_c, 0, 47, 55
3, 47040, Note_on_c, 0, 47, 0
3, 47040, Note_on_c, 0, 52, 59
3, 47200, Note_on_c, 0, 52, 0
3, 47200, Note_on_c, 0, 47, 56
3, 47360, Note_on_c, 0, 47, 0
3, 47360, Note_on_c, 0, 52, 56
3, 47520, Note_on_c, 0, 52, 0
3, 47520, Note_on_c, 0, 56, 61
3, 47680, Note_on_c, 0, 56, 0
3, 47680, Note_on_c, 0, 52, 56
3, 47840, Note_on_c, 0, 52, 0
3, 47840, Note_on_c, 0, 56, 55
3, 48000, Note_on_c, 0, 56, 0
3, 48000, Note_on_c, 0, 59, 63
3, 48009, Control_c, 0, 64, 0
3, 48113, Control_c, 0, 64, 127
3, 48240, Note_on_c, 0, 59, 0
3, 48515, Control_c, 0, 64, 0
3, 48586, Control_c, 0, 64, 127
3, 48640, Note_on_c, 0, 40, 51
3, 48800, Note_on_c, 0, 40, 0
3, 48800, Note_on_c, 0, 47, 50
3, 48960, Note_on_c, 0, 47, 0
3, 48960, Note_on_c, 0, 52, 52
3, 49120, Note_on_c, 0, 52, 0
3, 49120, Note_on_c, 0, 47, 49
3, 49280, Note_on_c, 0, 47, 0
3, 49280, Note_on_c, 0, 52, 48
3, 49440, Note_on_c, 0, 52, 0
3, 49440, Note_on_c, 0, 56, 51
3, 49600, Note_on_c, 0, 56, 0
3, 49600, Note_on_c, 0, 52, 46
3, 49760, Note_on_c, 0, 52, 0
3, 49760, Note_on_c, 0, 56, 45
3, 49920, Note_on_c, 0, 56, 0
3, 49920, Note_on_c, 0, 59, 50
3, 49929, Control_c, 0, 64, 0
3, 50033, Control_c, 0, 64, 127
3, 50160, Note_on_c, 0, 59, 0
3, 50408, Control_c, 0, 64, 0
3, 50506, Control_c, 0, 64, 127
3, 50560, Note_on_c, 0, 40, 40
3, 50720, Note_on_c, 0, 40, 0
3, 50720, Note_on_c, 0, 47, 39
3, 50880, Note_on_c, 0, 47, 0
3, 50880, Note_on_c, 0, 52, 41
3, 51040, Note_on_c, 0, 52, 0
3, 51040, Note_on_c, 0, 47, 39
3, 51200, Note_on_c, 0, 47, 0
3, 51200, Note_on_c, 0, 52, 38
3, 51360, Note_on_c, 0, 52, 0
3, 51360, Note_on_c, 0, 56, 40
3, 51520, Note_on_c, 0, 56, 0
3, 51520, Note_on_c, 0, 52, 36
3, 51680, Note_on_c, 0, 52, 0
3, 51680, Note_on_c, 0, 56, 35
3, 51840, Note_on_c, 0, 56, 0
3, 51840, Note_on_c, 0, 45, 42
3, 51848, Control_c, 0, 64, 0
3, 51870, Note_on_c, 0, 52, 47
3, 51900, Note_on_c, 0, 57, 52
3, 51946, Control_c, 0, 64, 127
3, 52320, Note_on_c, 0, 57, 0
3, 52320, Note_on_c, 0, 52, 0
3, 52320, Note_on_c, 0, 45, 0
3, 52800, Note_on_c, 0, 50, 48
3, 52800, Note_on_c, 0, 57, 53
3, 52813, Control_c, 0, 64, 0
3, 52881, Control_c, 0, 64, 127
3, 53234, Control_c, 0, 64, 0
3, 53280, Note_on_c, 0, 57, 0
3, 53280, Note_on_c, 0, 50, 0
3, 53280, Note_on_c, 0, 43, 50
3, 53280, Note_on_c, 0, 50, 50
3, 53280, Note_on_c, 0, 59, 57
3, 53400, Note_on_c, 0, 59, 0
3, 53400, Note_on_c, 0, 50, 0
3, 53400, Note_on_c, 0, 43, 0
3, 53520, Note_on_c, 0, 47, 49
3, 53520, Note_on_c, 0, 55, 49
3, 53520, Note_on_c, 0, 59, 56
3, 53640, Note_on_c, 0, 59, 0
3, 53640, Note_on_c, 0, 55, 0
3, 53640, Note_on_c, 0, 47, 0
3, 53760, Note_on_c, 0, 48, 53
3, 53760, Note_on_c, 0, 55, 53
3, 53760, Note_on_c, 0, 60, 60
3, 53880, Note_on_c, 0, 60, 0
3, 53880, Note_on_c, 0, 55, 0
3, 53880, Note_on_c, 0, 48, 0
3, 54000, Note_on_c, 0, 52, 51
3, 54000, Note_on_c, 0, 60, 51
3, 54000, Note_on_c, 0, 64, 58
3, 54120, Note_on_c, 0, 64, 0
3, 54120, Note_on_c, 0, 60, 0
3, 54120, Note_on_c, 0, 52, 0
3, 54240, Note_on_c, 0, 62, 61
3, 54240, Note_on_c, 0, 59, 55
3, 54240, Note_on_c, 0, 55, 55
3, 54353, Control_c, 0, 64, 127
3, 55200, Note_on_c, 0, 55, 0
3, 55200, Note_on_c, 0, 59, 0
3, 55200, Note_on_c, 0, 62, 0
3, 55200, Note_on_c, 0, 52, 58
3, 55200, Note_on_c, 0, 64, 58
3, 55200, Note_on_c, 0, 59, 58
3, 55207, Control_c, 0, 64, 0
3, 55440, Note_on_c, 0, 59, 0
3, 55440, Note_on_c, 0, 64, 0
3, 55440, Note_on_c, 0, 52, 0
3, 55680, Note_on_c, 0, 69, 46
3, 55680, Note_on_c, 0, 63, 46
3, 55800, Note_on_c, 0, 63, 0
3, 55800, Note_on_c, 0, 69, 0
3, 55920, Note_on_c, 0, 57, 49
3, 56040, Note_on_c, 0, 57, 0
3, 56160, Note_on_c, 0, 69, 48
3, 56160, Note_on_c, 0, 63, 48
3, 56280, Note_on_c, 0, 63, 0
3, 56280, Note_on_c, 0, 69, 0
3, 56400, Note_on_c, 0, 57, 49
3, 56520, Note_on_c, 0, 57, 0
3, 56640, Note_on_c, 0, 69, 46
3, 56640, Note_on_c, 0, 63, 46
3, 56760, Note_on_c, 0, 63, 0
3, 56760, Note_on_c, 0, 69, 0
3, 56880, Note_on_c, 0, 57, 49
3, 57000, Note_on_c, 0, 57, 0
3, 57120, Note_on_c, 0, 52, 58
3, 57120, Note_on_c, 0, 64, 58
3, 57120, Note_on_c, 0, 59, 58
3, 57360, Note_on_c, 0, 59, 0
3, 57360, Note_on_c, 0, 64, 0
3, 57360, Note_on_c, 0, 52, 0
3, 57600, Note_on_c, 0, 69, 46
3, 57600, Note_on_c, 0, 63, 46
3, 57720, Note_on_c, 0, 63, 0
3, 57720, Note_on_c, 0, 69, 0
3, 57840, Note_on_c, 0, 57, 49
3, 57960, Note_on_c, 0, 57, 0
3, 58080, Note_on_c, 0, 69, 48
3, 58080, Note_on_c, 0, 63, 48
3, 58200, Note_on_c, 0, 63, 0
3, 58200, Note_on_c, 0, 69, 0
3, 58320, Note_on_c, 0, 57, 49
3, 58440, Note_on_c, 0, 57, 0
3, 58560, Note_on_c, 0, 69, 46
3, 58560, Note_on_c, 0, 63, 46
3, 58680, Note_on_c, 0, 63, 0
3, 58680, Note_on_c, 0, 69, 0
3, 58800, Note_on_c, 0, 57, 49
3, 58920, Note_on_c, 0, 57, 0
3, 59040, Note_on_c, 0, 52, 58
3, 59040, Note_on_c, 0, 64, 58
3, 59040, Note_on_c, 0, 59, 58
3, 59280, Note_on_c, 0, 59, 0
3, 59280, Note_on_c, 0, 64, 0
3, 59280, Note_on_c, 0, 52, 0
3, 59520, Note_on_c, 0, 45, 42
3, 59550, Note_on_c, 0, 52, 47
3, 59580, Note_on_c, 0, 57, 52
3, 59626, Control_c, 0, 64, 127
3, 60000, Note_on_c, 0, 57, 0
3, 60000, Note_on_c, 0, 52, 0
3, 60000, Note_on_c, 0, 45, 0
3, 60480, Note_on_c, 0, 50, 48
3, 60480, Note_on_c, 0, 57, 53
3, 60489, Control_c, 0, 64, 0
3, 60579, Control_c, 0, 64, 127
3, 60914, Control_c, 0, 64, 0
3, 60960, Note_on_c, 0, 57, 0
3, 60960, Note_on_c, 0, 50, 0
3, 60960, Note_on_c, 0, 43, 50
3, 60960, Note_on_c, 0, 50, 50
3, 60960, Note_on_c, 0, 59, 57
3, 61080, Note_on_c, 0, 59, 0
3, 61080, Note_on_c, 0, 50, 0
3, 61080, Note_on_c, 0, 43, 0
3, 61200, Note_on_c, 0, 47, 49
3, 61200, Note_on_c, 0, 55, 49
3, 61200, Note_on_c, 0, 59, 56
3, 61320, Note_on_c, 0, 59, 0
3, 61320, Note_on_c, 0, 55, 0
3, 61320, Note_on_c, 0, 47, 0
3, 61440, Note_on_c, 0, 48, 53
3, 61440, Note_on_c, 0, 55, 53
3, 61440, Note_on_c, 0, 60, 60
3, 61560, Note_on_c, 0, 60, 0
3, 61560, Note_on_c, 0, 55, 0
3, 61560, Note_on_c, 0, 48, 0
3, 61680, Note_on_c, 0, 52, 51
3, 61680, Note_on_c, 0, 60, 51
3, 61680, Note_on_c, 0, 64, 58
3, 61800, Note_on_c, 0, 64, 0
3, 61800, Note_on_c, 0, 60, 0
3, 61800, Note_on_c, 0, 52, 0
3, 61920, Note_on_c, 0, 62, 61
3, 61920, Note_on_c, 0, 59, 55
3, 61920, Note_on_c, 0, 55, 55
3, 62880, Note_on_c, 0, 55, 0
3, 62880, Note_on_c, 0, 59, 0
3, 62880, Note_on_c, 0, 62, 0
3, 62880, Note_on_c, 0, 59, 58
3, 62880, Note_on_c, 0, 55, 58
3, 62880, Note_on_c, 0, 64, 58
3, 62880, Note_on_c, 0, 61, 58
3, 63120, Note_on_c, 0, 61, 0
3, 63120, Note_on_c, 0, 59, 0
3, 63120, Note_on_c, 0, 55, 0
3, 63120, Note_on_c, 0, 64, 0
3, 63360, Note_on_c, 0, 62, 46
3, 63360, Note_on_c, 0, 66, 46
3, 63360, Note_on_c, 0, 59, 46
3, 63480, Note_on_c, 0, 59, 0
3, 63480, Note_on_c, 0, 66, 0
3, 63480, Note_on_c, 0, 62, 0
3, 63600, Note_on_c, 0, 54, 49
3, 63720, Note_on_c, 0, 54, 0
3, 63840, Note_on_c, 0, 62, 48
3, 63840, Note_on_c, 0, 66, 48
3, 63840, Note_on_c, 0, 59, 48
3, 63960, Note_on_c, 0, 59, 0
3, 63960, Note_on_c, 0, 66, 0
3, 63960, Note_on_c, 0, 62, 0
3, 64080, Note_on_c, 0, 54, 49
3, 64200, Note_on_c, 0, 54, 0
3, 64320, Note_on_c, 0, 62, 46
3, 64320, Note_on_c, 0, 66, 46
3, 64320, Note_on_c, 0, 59, 46
3, 64440, Note_on_c, 0, 59, 0
3, 64440, Note_on_c, 0, 66, 0
3, 64440, Note_on_c, 0, 62, 0
3, 64560, Note_on_c, 0, 54, 49
3, 64680, Note_on_c, 0, 54, 0
3, 64800, Note_on_c, 0, 59, 58
3, 64800, Note_on_c, 0, 55, 58
3, 64800, Note_on_c, 0, 64, 58
3, 64800, Note_on_c, 0, 61, 58
3, 65040, Note_on_c, 0, 61, 0
3, 65040, Note_on_c, 0, 59, 0
3, 65040, Note_on_c, 0, 55, 0
3, 65040, Note_on_c, 0, 64, 0
3, 65280, Note_on_c, 0, 62, 46
3, 65280, Note_on_c, 0, 66, 46
3, 65280, Note_on_c, 0, 59, 46
3, 65400, Note_on_c, 0, 59, 0
3, 65400, Note_on_c, 0, 66, 0
3, 65400, Note_on_c, 0, 62, 0
3, 65520, Note_on_c, 0, 54, 49
3, 65640, Note_on_c, 0, 54, 0
3, 65760, Note_on_c, 0, 62, 48
3, 65760, Note_on_c, 0, 66, 48
3, 65760, Note_on_c, 0, 59, 48
3, 65880, Note_on_c, 0, 59, 0
3, 65880, Note_on_c, 0, 66, 0
3, 65880, Note_on_c, 0, 62, 0
3, 66000, Note_on_c, 0, 54, 49
3, 66120, Note_on_c, 0, 54, 0
3, 66240, Note_on_c, 0, 62, 46
3, 66240, Note_on_c, 0, 66, 46
3, 66240, Note_on_c, 0, 59, 46
3, 66360, Note_on_c, 0, 59, 0
3, 66360, Note_on_c, 0, 66, 0
3, 66360, Note_on_c, 0, 62, 0
3, 66480, Note_on_c, 0, 54, 49
3, 66600, Note_on_c, 0, 54, 0
3, 66720, Note_on_c, 0, 59, 58
3, 66720, Note_on_c, 0, 55, 58
3, 66720, Note_on_c, 0, 64, 58
3, 66720, Note_on_c, 0, 61, 58
3, 66960, Note_on_c, 0, 61, 0
3, 66960, Note_on_c, 0, 59, 0
3, 66960, Note_on_c, 0, 55, 0
3, 66960, Note_on_c, 0, 64, 0
3, 67200, Note_on_c, 0, 54, 46
3, 67200, Note_on_c, 0, 57, 46
3, 67200, Note_on_c, 0, 50, 46
3, 67320, Note_on_c, 0, 50, 0
3, 67320, Note_on_c, 0, 57, 0
3, 67320, Note_on_c, 0, 54, 0
3, 67440, Note_on_c, 0, 45, 49
3, 67560, Note_on_c, 0, 45, 0
3, 67680, Note_on_c, 0, 54, 48
3, 67680, Note_on_c, 0, 57, 48
3, 67680, Note_on_c, 0, 50, 48
3, 67800, Note_on_c, 0, 50, 0
3, 67800, Note_on_c, 0, 57, 0
3, 67800, Note_on_c, 0, 54, 0
3, 67920, Note_on_c, 0, 45, 49
3, 68040, Note_on_c, 0, 45, 0
3, 68160, Note_on_c, 0, 54, 46
3, 68160, Note_on_c, 0, 57, 46
3, 68160, Note_on_c, 0, 51, 46
3, 68280, Note_on_c, 0, 51, 0
3, 68280, Note_on_c, 0, 57, 0
3, 68280, Note_on_c, 0, 54, 0
3, 68400, Note_on_c, 0, 45, 49
3, 68520, Note_on_c, 0, 45, 0
3, 68640, Note_on_c, 0, 52, 58
3, 68640, Note_on_c, 0, 57, 58
3, 68640, Note_on_c, 0, 55, 58
3, 68880, Note_on_c, 0, 55, 0
3, 68880, Note_on_c, 0, 57, 0
3, 68880, Note_on_c, 0, 52, 0
3, 69600, Note_on_c, 0, 55, 78
3, 69720, Note_on_c, 0, 54, 66
3, 69732, Note_on_c, 0, 55, 0
3, 69840, Note_on_c, 0, 52, 66
3, 69852, Note_on_c, 0, 54, 0
3, 69960, Note_on_c, 0, 50, 64
3, 69972, Note_on_c, 0, 52, 0
3, 70078, Note_on_c, 0, 50, 0
3, 70560, Note_on_c, 0, 43, 69
3, 70680, Note_on_c, 0, 42, 62
3, 70692, Note_on_c, 0, 43, 0
3, 70800, Note_on_c, 0, 40, 60
3, 70812, Note_on_c, 0, 42, 0
3, 70920, Note_on_c, 0, 38, 58
3, 70932, Note_on_c, 0, 40, 0
3, 71040, Note_on_c, 0, 38, 0
3, 71040, Note_on_c, 0, 45, 42
3, 71070, Note_on_c, 0, 52, 47
3, 71100, Note_on_c, 0, 57, 52
3, 71146, Control_c, 0, 64, 127
3, 71520, Note_on_c, 0, 57, 0
3, 71520, Note_on_c, 0, 52, 0
3, 71520, Note_on_c, 0, 45, 0
3, 72000, Note_on_c, 0, 50, 48
3, 72000, Note_on_c, 0, 57, 53
3, 72007, Control_c, 0, 64, 0
3, 72074, Control_c, 0, 64, 127
3, 72434, Control_c, 0, 64, 0
3, 72480, Note_on_c, 0, 57, 0
3, 72480, Note_on_c, 0, 50, 0
3, 72480, Note_on_c, 0, 43, 50
3, 72480, Note_on_c, 0, 50, 50
3, 72480, Note_on_c, 0, 59, 57
3, 72600, Note_on_c, 0, 59, 0
3, 72600, Note_on_c, 0, 50, 0
3, 72600, Note_on_c, 0, 43, 0
3, 72720, Note_on_c, 0, 47, 49
3, 72720, Note_on_c, 0, 55, 49
3, 72720, Note_on_c, 0, 59, 56
3, 72840, Note_on_c, 0, 59, 0
3, 72840, Note_on_c, 0, 55, 0
3, 72840, Note_on_c, 0, 47, 0
3, 72960, Note_on_c, 0, 48, 53
3, 72960, Note_on_c, 0, 55, 53
3, 72960, Note_on_c, 0, 60, 60
3, 73080, Note_on_c, 0, 60, 0
3, 73080, Note_on_c, 0, 55, 0
3, 73080, Note_on_c, 0, 48, 0
3, 73200, Note_on_c, 0, 52, 51
3, 73200, Note_on_c, 0, 60, 51
3, 73200, Note_on_c, 0, 64, 58
3, 73320, Note_on_c, 0, 64, 0
3, 73320, Note_on_c, 0, 60, 0
3, 73320, Note_on_c, 0, 52, 0
3, 73440, Note_on_c, 0, 62, 61
3, 73440, Note_on_c, 0, 59, 55
3, 73440, Note_on_c, 0, 55, 55
3, 73553, Control_c, 0, 64, 127
3, 74400, Note_on_c, 0, 55, 0
3, 74400, Note_on_c, 0, 59, 0
3, 74400, Note_on_c, 0, 62, 0
3, 74400, Note_on_c, 0, 52, 58
3, 74400, Note_on_c, 0, 64, 58
3, 74400, Note_on_c, 0, 59, 58
3, 74414, Control_c, 0, 64, 0
3, 74640, Note_on_c, 0, 59, 0
3, 74640, Note_on_c, 0, 64, 0
3, 74640, Note_on_c, 0, 52, 0
3, 74880, Note_on_c, 0, 69, 46
3, 74880, Note_on_c, 0, 63, 46
3, 75000, Note_on_c, 0, 63, 0
3, 75000, Note_on_c, 0, 69, 0
3, 75120, Note_on_c, 0, 57, 49
3, 75240, Note_on_c, 0, 57, 0
3, 75360, Note_on_c, 0, 69, 48
3, 75360, Note_on_c, 0, 63, 48
3, 75480, Note_on_c, 0, 63, 0
3, 75480, Note_on_c, 0, 69, 0
3, 75600, Note_on_c, 0, 57, 49
3, 75720, Note_on_c, 0, 57, 0
3, 75840, Note_on_c, 0, 69, 46
3, 75840, Note_on_c, 0, 63, 46
3, 75960, Note_on_c, 0, 63, 0
3, 75960, Note_on_c, 0, 69, 0
3, 76080, Note_on_c, 0, 57, 49
3, 76200, Note_on_c, 0, 57, 0
3, 76320, Note_on_c, 0, 52, 58
3, 76320, Note_on_c, 0, 64, 58
3, 76320, Note_on_c, 0, 59, 58
3, 76560, Note_on_c, 0, 59, 0
3, 76560, Note_on_c, 0, 64, 0
3, 76560, Note_on_c, 0, 52, 0
3, 76800, Note_on_c, 0, 69, 46
3, 76800, Note_on_c, 0, 63, 46
3, 76920, Note_on_c, 0, 63, 0
3, 76920, Note_on_c, 0, 69, 0
3, 77040, Note_on_c, 0, 57, 49
3, 77160, Note_on_c, 0, 57, 0
3, 77280, Note_on_c, 0, 69, 48
3, 77280, Note_on_c, 0, 63, 48
3, 77400, Note_on_c, 0, 63, 0
3, 77400, Note_on_c, 0, 69, 0
3, 77520, Note_on_c, 0, 57, 49
3, 77640, Note_on_c, 0, 57, 0
3, 77760, Note_on_c, 0, 69, 46
3, 77760, Note_on_c, 0, 63, 46
3, 77880, Note_on_c, 0, 63, 0
3, 77880, Note_on_c, 0, 69, 0
3, 78000, Note_on_c, 0, 57, 49
3, 78120, Note_on_c, 0, 57, 0
3, 78240, Note_on_c, 0, 52, 58
3, 78240, Note_on_c, 0, 64, 58
3, 78240, Note_on_c, 0, 59, 58
3, 78480, Note_on_c, 0, 59, 0
3, 78480, Note_on_c, 0, 64, 0
3, 78480, Note_on_c, 0, 52, 0
3, 78720, Note_on_c, 0, 45, 42
3, 78750, Note_on_c, 0, 52, 47
3, 78780, Note_on_c, 0, 57, 52
3, 78826, Control_c, 0, 64, 127
3, 79200, Note_on_c, 0, 57, 0
3, 79200, Note_on_c, 0, 52, 0
3, 79200, Note_on_c, 0, 45, 0
3, 79680, Note_on_c, 0, 50, 48
3, 79680, Note_on_c, 0, 57, 53
3, 79690, Control_c, 0, 64, 0
3, 79765, Control_c, 0, 64, 127
3, 80114, Control_c, 0, 64, 0
3, 80160, Note_on_c, 0, 57, 0
3, 80160, Note_on_c, 0, 50, 0
3, 80160, Note_on_c, 0, 43, 50
3, 80160, Note_on_c, 0, 50, 50
3, 80160, Note_on_c, 0, 59, 57
3, 80280, Note_on_c, 0, 59, 0
3, 80280, Note_on_c, 0, 50, 0
3, 80280, Note_on_c, 0, 43, 0
3, 80400, Note_on_c, 0, 47, 49
3, 80400, Note_on_c, 0, 55, 49
3, 80400, Note_on_c, 0, 59, 56
3, 80520, Note_on_c, 0, 59, 0
3, 80520, Note_on_c, 0, 55, 0
3, 80520, Note_on_c, 0, 47, 0
3, 80640, Note_on_c, 0, 48, 53
3, 80640, Note_on_c, 0, 55, 53
3, 80640, Note_on_c, 0, 60, 60
3, 80760, Note_on_c, 0, 60, 0
3, 80760, Note_on_c, 0, 55, 0
3, 80760, Note_on_c, 0, 48, 0
3, 80880, Note_on_c, 0, 52, 51
3, 80880, Note_on_c, 0, 60, 51
3, 80880, Note_on_c, 0, 64, 58
3, 81000, Note_on_c, 0, 64, 0
3, 81000, Note_on_c, 0, 60, 0
3, 81000, Note_on_c, 0, 52, 0
3, 81120, Note_on_c, 0, 62, 61
3, 81120, Note_on_c, 0, 59, 55
3, 81120, Note_on_c, 0, 55, 55
3, 82080, Note_on_c, 0, 55, 0
3, 82080, Note_on_c, 0, 59, 0
3, 82080, Note_on_c, 0, 62, 0
3, 82080, Note_on_c, 0, 59, 58
3, 82080, Note_on_c, 0, 55, 58
3, 82080, Note_on_c, 0, 64, 58
3, 82080, Note_on_c, 0, 61, 58
3, 82320, Note_on_c, 0, 61, 0
3, 82320, Note_on_c, 0, 59, 0
3, 82320, Note_on_c, 0, 55, 0
3, 82320, Note_on_c, 0, 64, 0
3, 82560, Note_on_c, 0, 62, 46
3, 82560, Note_on_c, 0, 66, 46
3, 82560, Note_on_c, 0, 59, 46
3, 82680, Note_on_c, 0, 59, 0
3, 82680, Note_on_c, 0, 66, 0
3, 82680, Note_on_c, 0, 62, 0
3, 82800, Note_on_c, 0, 54, 49
3, 82920, Note_on_c, 0, 54, 0
3, 83040, Note_on_c, 0, 62, 48
3, 83040, Note_on_c, 0, 66, 48
3, 83040, Note_on_c, 0, 59, 48
3, 83160, Note_on_c, 0, 59, 0
3, 83160, Note_on_c, 0, 66, 0
3, 83160, Note_on_c, 0, 62, 0
3, 83280, Note_on_c, 0, 54, 49
3, 83400, Note_on_c, 0, 54, 0
3, 83520, Note_on_c, 0, 62, 46
3, 83520, Note_on_c, 0, 66, 46
3, 83520, Note_on_c, 0, 59, 46
3, 83640, Note_on_c, 0, 59, 0
3, 83640, Note_on_c, 0, 66, 0
3, 83640, Note_on_c, 0, 62, 0
3, 83760, Note_on_c, 0, 54, 49
3, 83880, Note_on_c, 0, 54, 0
3, 84000, Note_on_c, 0, 59, 58
3, 84000, Note_on_c, 0, 55, 58
3, 84000, Note_on_c, 0, 64, 58
3, 84000, Note_on_c, 0, 61, 58
3, 84240, Note_on_c, 0, 61, 0
3, 84240, Note_on_c, 0, 59, 0
3, 84240, Note_on_c, 0, 55, 0
3, 84240, Note_on_c, 0, 64, 0
3, 84480, Note_on_c, 0, 62, 46
3, 84480, Note_on_c, 0, 66, 46
3, 84480, Note_on_c, 0, 59, 46
3, 84600, Note_on_c, 0, 59, 0
3, 84600, Note_on_c, 0, 66, 0
3, 84600, Note_on_c, 0, 62, 0
3, 84720, Note_on_c, 0, 54, 49
3, 84840, Note_on_c, 0, 54, 0
3, 84960, Note_on_c, 0, 62, 48
3, 84960, Note_on_c, 0, 66, 48
3, 84960, Note_on_c, 0, 59, 48
3, 85080, Note_on_c, 0, 59, 0
3, 85080, Note_on_c, 0, 66, 0
3, 85080, Note_on_c, 0, 62, 0
3, 85200, Note_on_c, 0, 54, 49
3, 85320, Note_on_c, 0, 54, 0
3, 85440, Note_on_c, 0, 62, 46
3, 85440, Note_on_c, 0, 66, 46
3, 85440, Note_on_c, 0, 59, 46
3, 85560, Note_on_c, 0, 59, 0
3, 85560, Note_on_c, 0, 66, 0
3, 85560, Note_on_c, 0, 62, 0
3, 85680, Note_on_c, 0, 54, 49
3, 85800, Note_on_c, 0, 54, 0
3, 85920, Note_on_c, 0, 59, 58
3, 85920, Note_on_c, 0, 55, 58
3, 85920, Note_on_c, 0, 64, 58
3, 85920, Note_on_c, 0, 61, 58
3, 86160, Note_on_c, 0, 61, 0
3, 86160, Note_on_c, 0, 59, 0
3, 86160, Note_on_c, 0, 55, 0
3, 86160, Note_on_c, 0, 64, 0
3, 86400, Note_on_c, 0, 63, 46
3, 86400, Note_on_c, 0, 66, 46
3, 86400, Note_on_c, 0, 59, 46
3, 86520, Note_on_c, 0, 59, 0
3, 86520, Note_on_c, 0, 66, 0
3, 86520, Note_on_c, 0, 63, 0
3, 86640, Note_on_c, 0, 54, 49
3, 86760, Note_on_c, 0, 54, 0
3, 86880, Note_on_c, 0, 63, 48
3, 86880, Note_on_c, 0, 66, 48
3, 86880, Note_on_c, 0, 59, 48
3, 87000, Note_on_c, 0, 59, 0
3, 87000, Note_on_c, 0, 66, 0
3, 87000, Note_on_c, 0, 63, 0
3, 87120, Note_on_c, 0, 54, 49
3, 87240, Note_on_c, 0, 54, 0
3, 87360, Note_on_c, 0, 63, 46
3, 87360, Note_on_c, 0, 66, 46
3, 87360, Note_on_c, 0, 59, 46
3, 87480, Note_on_c, 0, 59, 0
3, 87480, Note_on_c, 0, 66, 0
3, 87480, Note_on_c, 0, 63, 0
3, 87600, Note_on_c, 0, 54, 49
3, 87720, Note_on_c, 0, 54, 0
3, 87840, Note_on_c, 0, 59, 46
3, 87840, Note_on_c, 0, 63, 46
3, 87840, Note_on_c, 0, 66, 46
3, 87960, Note_on_c, 0, 66, 0
3, 87960, Note_on_c, 0, 63, 0
3, 87960, Note_on_c, 0, 59, 0
3, 88080, Note_on_c, 0, 54, 49
3, 88200, Note_on_c, 0, 54, 0
3, 88320, Note_on_c, 0, 69, 46
3, 88320, Note_on_c, 0, 71, 46
3, 88320, Note_on_c, 0, 66, 46
3, 88440, Note_on_c, 0, 66, 0
3, 88440, Note_on_c, 0, 71, 0
3, 88440, Note_on_c, 0, 69, 0
3, 88560, Note_on_c, 0, 59, 49
3, 88680, Note_on_c, 0, 59, 0
3, 88800, Note_on_c, 0, 69, 48
3, 88800, Note_on_c, 0, 71, 48
3, 88800, Note_on_c, 0, 66, 48
3, 88920, Note_on_c, 0, 66, 0
3, 88920, Note_on_c, 0, 71, 0
3, 88920, Note_on_c, 0, 69, 0
3, 89040, Note_on_c, 0, 59, 49
3, 89160, Note_on_c, 0, 59, 0
3, 89280, Note_on_c, 0, 69, 46
3, 89280, Note_on_c, 0, 71, 46
3, 89280, Note_on_c, 0, 66, 46
3, 89400, Note_on_c, 0, 66, 0
3, 89400, Note_on_c, 0, 71, 0
3, 89400, Note_on_c, 0, 69, 0
3, 89520, Note_on_c, 0, 59, 49
3, 89640, Note_on_c, 0, 59, 0
3, 89760, Note_on_c, 0, 66, 46
3, 89760, Note_on_c, 0, 69, 46
3, 89760, Note_on_c, 0, 71, 46
3, 89880, Note_on_c, 0, 71, 0
3, 89880, Note_on_c, 0, 69, 0
3, 89880, Note_on_c, 0, 66, 0
3, 90000, Note_on_c, 0, 59, 49
3, 90120, Note_on_c, 0, 59, 0
3, 90240, Note_on_c, 0, 59, 52
3, 90240, Note_on_c, 0, 66, 52
3, 90240, Note_on_c, 0, 69, 52
3, 90240, Note_on_c, 0, 71, 52
3, 90360, Note_on_c, 0, 71, 0
3, 90360, Note_on_c, 0, 59, 0
3, 90360, Note_on_c, 0, 66, 0
3, 90360, Note_on_c, 0, 69, 0
3, 91200, Note_on_c, 0, 63, 57
3, 91200, Note_on_c, 0, 69, 57
3, 91200, Note_on_c, 0, 71, 57
3, 91320, Note_on_c, 0, 71, 0
3, 91320, Note_on_c, 0, 69, 0
3, 91320, Note_on_c, 0, 63, 0
3, 92160, Note_on_c, 0, 66, 59
3, 92160, Note_on_c, 0, 71, 59
3, 92160, Note_on_c, 0, 75, 59
3, 92280, Note_on_c, 0, 75, 0
3, 92280, Note_on_c, 0, 71, 0
3, 92280, Note_on_c, 0, 66, 0
3, 96000, Note_on_c, 0, 61, 53
3, 96003, Control_c, 0, 64, 127
3, 96120, Note_on_c, 0, 61, 0
3, 96240, Note_on_c, 0, 59, 49
3, 96360, Note_on_c, 0, 59, 0
3, 96480, Note_on_c, 0, 64, 50
3, 96496, Control_c, 0, 64, 0
3, 96536, Control_c, 0, 64, 127
3, 96960, Note_on_c, 0, 52, 37
3, 96960, Note_on_c, 0, 59, 37
3, 97200, Note_on_c, 0, 59, 0
3, 97200, Note_on_c, 0, 52, 0
3, 97440, Note_on_c, 0, 64, 0
3, 97440, Note_on_c, 0, 68, 52
3, 97446, Control_c, 0, 64, 0
3, 97496, Control_c, 0, 64, 127
3, 97680, Note_on_c, 0, 68, 0
3, 97680, Note_on_c, 0, 71, 50
3, 97920, Note_on_c, 0, 71, 0
3, 97920, Note_on_c, 0, 73, 55
3, 97940, Control_c, 0, 64, 0
3, 97994, Control_c, 0, 64, 127
3, 98160, Note_on_c, 0, 73, 0
3, 98160, Note_on_c, 0, 71, 49
3, 98280, Note_on_c, 0, 71, 0
3, 98400, Note_on_c, 0, 68, 51
3, 98421, Control_c, 0, 64, 0
3, 98485, Control_c, 0, 64, 127
3, 98880, Note_on_c, 0, 52, 37
3, 98880, Note_on_c, 0, 59, 37
3, 99120, Note_on_c, 0, 59, 0
3, 99120, Note_on_c, 0, 52, 0
3, 99360, Note_on_c, 0, 68, 0
3, 99360, Note_on_c, 0, 64, 50
3, 99370, Control_c, 0, 64, 0
3, 99416, Control_c, 0, 64, 127
3, 99600, Note_on_c, 0, 64, 0
3, 99600, Note_on_c, 0, 61, 48
3, 99840, Note_on_c, 0, 61, 0
3, 99840, Note_on_c, 0, 68, 50
3, 99850, Control_c, 0, 64, 0
3, 99896, Control_c, 0, 64, 127
3, 100080, Note_on_c, 0, 68, 0
3, 100080, Note_on_c, 0, 66, 47
3, 100200, Note_on_c, 0, 66, 0
3, 100320, Note_on_c, 0, 61, 49
3, 100335, Control_c, 0, 64, 0
3, 100405, Control_c, 0, 64, 127
3, 100800, Note_on_c, 0, 54, 37
3, 100800, Note_on_c, 0, 52, 37
3, 100800, Note_on_c, 0, 57, 37
3, 101040, Note_on_c, 0, 57, 0
3, 101040, Note_on_c, 0, 52, 0
3, 101040, Note_on_c, 0, 54, 0
3, 101280, Note_on_c, 0, 61, 0
3, 101280, Note_on_c, 0, 61, 48
3, 101289, Control_c, 0, 64, 0
3, 101347, Control_c, 0, 64, 127
3, 101520, Note_on_c, 0, 61, 0
3, 101520, Note_on_c, 0, 59, 41
3, 101760, Note_on_c, 0, 59, 0
3, 101760, Note_on_c, 0, 66, 47
3, 101771, Control_c, 0, 64, 0
3, 101817, Control_c, 0, 64, 127
3, 102000, Note_on_c, 0, 66, 0
3, 102000, Note_on_c, 0, 64, 39
3, 102120, Note_on_c, 0, 64, 0
3, 102240, Note_on_c, 0, 59, 41
3, 102250, Control_c, 0, 64, 0
3, 102320, Control_c, 0, 64, 127
3, 102720, Note_on_c, 0, 52, 37
3, 102960, Note_on_c, 0, 52, 0
3, 103200, Note_on_c, 0, 59, 0
3, 103200, Note_on_c, 0, 58, 48
3, 103209, Control_c, 0, 64, 0
3, 103271, Control_c, 0, 64, 127
3, 103440, Note_on_c, 0, 58, 0
3, 103440, Note_on_c, 0, 59, 47
3, 103680, Note_on_c, 0, 59, 0
3, 103680, Note_on_c, 0, 61, 53
3, 103693, Control_c, 0, 64, 0
3, 103751, Control_c, 0, 64, 127
3, 103920, Note_on_c, 0, 61, 0
3, 103920, Note_on_c, 0, 59, 49
3, 104040, Note_on_c, 0, 59, 0
3, 104160, Note_on_c, 0, 64, 50
3, 104168, Control_c, 0, 64, 0
3, 104216, Control_c, 0, 64, 127
3, 104640, Note_on_c, 0, 52, 37
3, 104640, Note_on_c, 0, 59, 37
3, 104880, Note_on_c, 0, 59, 0
3, 104880, Note_on_c, 0, 52, 0
3, 105120, Note_on_c, 0, 64, 0
3, 105120, Note_on_c, 0, 68, 52
3, 105131, Control_c, 0, 64, 0
3, 105203, Control_c, 0, 64, 127
3, 105360, Note_on_c, 0, 68, 0
3, 105360, Note_on_c, 0, 71, 50
3, 105600, Note_on_c, 0, 71, 0
3, 105600, Note_on_c, 0, 73, 55
3, 105610, Control_c, 0, 64, 0
3, 105688, Control_c, 0, 64, 127
3, 105840, Note_on_c, 0, 73, 0
3, 105840, Note_on_c, 0, 71, 49
3, 105960, Note_on_c, 0, 71, 0
3, 106080, Note_on_c, 0, 68, 51
3, 106099, Control_c, 0, 64, 0
3, 106165, Control_c, 0, 64, 127
3, 106560, Note_on_c, 0, 52, 37
3, 106560, Note_on_c, 0, 59, 37
3, 106800, Note_on_c, 0, 59, 0
3, 106800, Note_on_c, 0, 52, 0
3, 107040, Note_on_c, 0, 68, 0
3, 107040, Note_on_c, 0, 64, 50
3, 107051, Control_c, 0, 64, 0
3, 107121, Control_c, 0, 64, 127
3, 107280, Note_on_c, 0, 64, 0
3, 107280, Note_on_c, 0, 61, 48
3, 107520, Note_on_c, 0, 61, 0
3, 107520, Note_on_c, 0, 51, 45
3, 107520, Note_on_c, 0, 59, 50
3, 107532, Control_c, 0, 64, 0
3, 107586, Control_c, 0, 64, 127
3, 107760, Note_on_c, 0, 59, 0
3, 107760, Note_on_c, 0, 51, 0
3, 107760, Note_on_c, 0, 63, 47
3, 107880, Note_on_c, 0, 63, 0
3, 108000, Note_on_c, 0, 71, 49
3, 108009, Control_c, 0, 64, 0
3, 108085, Control_c, 0, 64, 127
3, 108480, Note_on_c, 0, 63, 37
3, 108720, Note_on_c, 0, 63, 0
3, 108960, Note_on_c, 0, 71, 0
3, 108960, Note_on_c, 0, 70, 48
3, 108969, Control_c, 0, 64, 0
3, 109014, Control_c, 0, 64, 127
3, 109200, Note_on_c, 0, 70, 0
3, 109200, Note_on_c, 0, 68, 41
3, 109440, Note_on_c, 0, 68, 0
3, 109440, Note_on_c, 0, 64, 48
3, 109450, Control_c, 0, 64, 0
3, 109480, Control_c, 0, 64, 127
3, 109920, Note_on_c, 0, 64, 0
3, 109920, Note_on_c, 0, 51, 37
3, 109920, Note_on_c, 0, 63, 48
3, 109929, Control_c, 0, 64, 0
3, 110011, Control_c, 0, 64, 127
3, 110160, Note_on_c, 0, 63, 0
3, 110160, Note_on_c, 0, 51, 0
3, 110160, Note_on_c, 0, 61, 41
3, 110400, Note_on_c, 0, 61, 0
3, 110400, Note_on_c, 0, 56, 34
3, 110400, Note_on_c, 0, 61, 46
3, 110418, Control_c, 0, 64, 0
3, 110503, Control_c, 0, 64, 127
3, 110640, Note_on_c, 0, 61, 0
3, 110640, Note_on_c, 0, 59, 39
3, 110880, Note_on_c, 0, 59, 0
3, 110880, Note_on_c, 0, 58, 40
3, 110892, Control_c, 0, 64, 0
3, 110949, Control_c, 0, 64, 127
3, 111120, Note_on_c, 0, 58, 0
3, 111120, Note_on_c, 0, 59, 37
3, 111360, Note_on_c, 0, 59, 0
3, 111360, Note_on_c, 0, 56, 0
3, 111379, Control_c, 0, 64, 0
3, 111480, Note_on_c, 0, 42, 37
3, 111515, Control_c, 0, 64, 127
3, 111600, Note_on_c, 0, 42, 0
3, 111600, Note_on_c, 0, 49, 35
3, 111720, Note_on_c, 0, 49, 0
3, 111720, Note_on_c, 0, 54, 35
3, 111840, Note_on_c, 0, 54, 0
3, 111840, Note_on_c, 0, 57, 37
3, 111960, Note_on_c, 0, 57, 0
3, 111960, Note_on_c, 0, 61, 37
3, 112080, Note_on_c, 0, 61, 0
3, 112080, Note_on_c, 0, 66, 37
3, 112200, Note_on_c, 0, 66, 0
3, 112200, Note_on_c, 0, 69, 40
3, 112320, Note_on_c, 0, 69, 0
3, 112804, Control_c, 0, 64, 0
3, 113400, Note_on_c, 0, 47, 37
3, 113407, Control_c, 0, 64, 127
3, 113520, Note_on_c, 0, 47, 0
3, 113520, Note_on_c, 0, 54, 35
3, 113640, Note_on_c, 0, 54, 0
3, 113640, Note_on_c, 0, 57, 35
3, 113760, Note_on_c, 0, 57, 0
3, 113760, Note_on_c, 0, 59, 37
3, 113880, Note_on_c, 0, 59, 0
3, 113880, Note_on_c, 0, 63, 37
3, 114000, Note_on_c, 0, 63, 0
3, 114000, Note_on_c, 0, 66, 37
3, 114120, Note_on_c, 0, 66, 0
3, 114120, Note_on_c, 0, 69, 40
3, 114238, Note_on_c, 0, 69, 0
3, 114732, Control_c, 0, 64, 0
3, 115271, Control_c, 0, 64, 127
3, 115320, Note_on_c, 0, 42, 35
3, 115440, Note_on_c, 0, 42, 0
3, 115440, Note_on_c, 0, 49, 38
3, 115560, Note_on_c, 0, 49, 0
3, 115560, Note_on_c, 0, 54, 41
3, 115680, Note_on_c, 0, 54, 0
3, 115680, Note_on_c, 0, 57, 45
3, 115800, Note_on_c, 0, 57, 0
3, 115800, Note_on_c, 0, 61, 42
3, 115920, Note_on_c, 0, 61, 0
3, 115920, Note_on_c, 0, 66, 47
3, 116040, Note_on_c, 0, 66, 0
3, 116040, Note_on_c, 0, 69, 51
3, 116160, Note_on_c, 0, 69, 0
3, 116646, Control_c, 0, 64, 0
3, 117360, Note_on_c, 0, 47, 28
3, 117360, Note_on_c, 0, 54, 28
3, 117360, Note_on_c, 0, 59, 33
3, 117600, Note_on_c, 0, 59, 0
3, 117600, Note_on_c, 0, 54, 0
3, 117600, Note_on_c, 0, 47, 0
3, 117840, Note_on_c, 0, 49, 23
3, 117840, Note_on_c, 0, 52, 23
3, 117840, Note_on_c, 0, 57, 33
3, 118080, Note_on_c, 0, 57, 0
3, 118080, Note_on_c, 0, 52, 0
3, 118080, Note_on_c, 0, 49, 0
3, 118320, Note_on_c, 0, 50, 28
3, 118320, Note_on_c, 0, 56, 28
3, 118560, Note_on_c, 0, 56, 0
3, 118560, Note_on_c, 0, 50, 0
3, 118800, Note_on_c, 0, 51, 28
3, 118800, Note_on_c, 0, 57, 33
3, 119040, Note_on_c, 0, 57, 0
3, 119040, Note_on_c, 0, 51, 0
3, 119146, Control_c, 0, 64, 127
3, 119160, Note_on_c, 0, 42, 37
3, 119280, Note_on_c, 0, 42, 0
3, 119280, Note_on_c, 0, 49, 35
3, 119400, Note_on_c, 0, 49, 0
3, 119400, Note_on_c, 0, 54, 35
3, 119520, Note_on_c, 0, 54, 0
3, 119520, Note_on_c, 0, 57, 37
3, 119640, Note_on_c, 0, 57, 0
3, 119640, Note_on_c, 0, 61, 37
3, 119760, Note_on_c, 0, 61, 0
3, 119760, Note_on_c, 0, 66, 37
3, 119880, Note_on_c, 0, 66, 0
3, 119880, Note_on_c, 0, 69, 40
3, 120000, Note_on_c, 0, 69, 0
3, 120493, Control_c, 0, 64, 0
3, 121045, Control_c, 0, 64, 127
3, 121080, Note_on_c, 0, 47, 37
3, 121200, Note_on_c, 0, 47, 0
3, 121200, Note_on_c, 0, 54, 35
3, 121320, Note_on_c, 0, 54, 0
3, 121320, Note_on_c, 0, 57, 35
3, 121440, Note_on_c, 0, 57, 0
3, 121440, Note_on_c, 0, 59, 37
3, 121560, Note_on_c, 0, 59, 0
3, 121560, Note_on_c, 0, 63, 37
3, 121680, Note_on_c, 0, 63, 0
3, 121680, Note_on_c, 0, 66, 37
3, 121800, Note_on_c, 0, 66, 0
3, 121800, Note_on_c, 0, 69, 37
3, 121920, Note_on_c, 0, 69, 0
3, 122410, Control_c, 0, 64, 0
3, 122951, Control_c, 0, 64, 127
3, 123000, Note_on_c, 0, 42, 35
3, 123120, Note_on_c, 0, 42, 0
3, 123120, Note_on_c, 0, 49, 38
3, 123240, Note_on_c, 0, 49, 0
3, 123240, Note_on_c, 0, 54, 41
3, 123360, Note_on_c, 0, 54, 0
3, 123360, Note_on_c, 0, 57, 45
3, 123480, Note_on_c, 0, 57, 0
3, 123480, Note_on_c, 0, 61, 42
3, 123600, Note_on_c, 0, 61, 0
3, 123600, Note_on_c, 0, 66, 47
3, 123720, Note_on_c, 0, 66, 0
3, 123720, Note_on_c, 0, 69, 51
3, 123840, Note_on_c, 0, 69, 0
3, 124330, Control_c, 0, 64, 0
3, 125040, Note_on_c, 0, 47, 28
3, 125040, Note_on_c, 0, 54, 33
3, 125040, Note_on_c, 0, 59, 33
3, 125280, Note_on_c, 0, 59, 0
3, 125280, Note_on_c, 0, 54, 0
3, 125280, Note_on_c, 0, 47, 0
3, 126000, Note_on_c, 0, 49, 22
3, 126000, Note_on_c, 0, 52, 22
3, 126000, Note_on_c, 0, 57, 22
3, 126000, Note_on_c, 0, 61, 27
3, 126240, Note_on_c, 0, 61, 0
3, 126240, Note_on_c, 0, 49, 0
3, 126240, Note_on_c, 0, 52, 0
3, 126240, Note_on_c, 0, 57, 0
3, 126720, Note_on_c, 0, 61, 56
3, 126960, Note_on_c, 0, 61, 0
3, 126960, Note_on_c, 0, 51, 35
3, 126960, Note_on_c, 0, 54, 35
3, 126960, Note_on_c, 0, 59, 35
3, 127200, Note_on_c, 0, 59, 0
3, 127200, Note_on_c, 0, 54, 0
3, 127200, Note_on_c, 0, 51, 0
3, 127200, Note_on_c, 0, 61, 58
3, 127440, Note_on_c, 0, 61, 0
3, 127440, Note_on_c, 0, 52, 37
3, 127440, Note_on_c, 0, 56, 37
3, 127440, Note_on_c, 0, 59, 37
3, 127680, Note_on_c, 0, 59, 0
3, 127680, Note_on_c, 0, 56, 0
3, 127680, Note_on_c, 0, 52, 0
3, 127680, Note_on_c, 0, 61, 61
3, 127920, Note_on_c, 0, 61, 0
3, 127920, Note_on_c, 0, 53, 40
3, 127920, Note_on_c, 0, 56, 40
3, 127920, Note_on_c, 0, 59, 40
3, 128160, Note_on_c, 0, 59, 0
3, 128160, Note_on_c, 0, 56, 0
3, 128160, Note_on_c, 0, 53, 0
3, 128160, Note_on_c, 0, 61, 61
3, 128400, Note_on_c, 0, 61, 0
3, 128400, Note_on_c, 0, 54, 46
3, 128400, Note_on_c, 0, 59, 46
3, 128640, Note_on_c, 0, 59, 0
3, 128640, Note_on_c, 0, 54, 0
3, 128880, Note_on_c, 0, 51, 45
3, 129000, Note_on_c, 0, 51, 0
3, 129120, Note_on_c, 0, 66, 45
3, 129120, Note_on_c, 0, 57, 45
3, 129120, Note_on_c, 0, 59, 45
3, 129240, Note_on_c, 0, 59, 0
3, 129240, Note_on_c, 0, 57, 0
3, 129240, Note_on_c, 0, 66, 0
3, 129840, Note_on_c, 0, 47, 45
3, 129960, Note_on_c, 0, 47, 0
3, 130080, Note_on_c, 0, 66, 45
3, 130080, Note_on_c, 0, 57, 45
3, 130080, Note_on_c, 0, 59, 45
3, 130200, Note_on_c, 0, 59, 0
3, 130200, Note_on_c, 0, 57, 0
3, 130200, Note_on_c, 0, 66, 0
3, 132480, Note_on_c, 0, 61, 53
3, 132509, Control_c, 0, 64, 127
3, 132600, Note_on_c, 0, 61, 0
3, 132720, Note_on_c, 0, 59, 49
3, 132840, Note_on_c, 0, 59, 0
3, 132960, Note_on_c, 0, 64, 50
3, 132971, Control_c, 0, 64, 0
3, 133040, Control_c, 0, 64, 127
3, 133440, Note_on_c, 0, 52, 37
3, 133440, Note_on_c, 0, 59, 37
3, 133680, Note_on_c, 0, 59, 0
3, 133680, Note_on_c, 0, 52, 0
3, 133920, Note_on_c, 0, 64, 0
3, 133920, Note_on_c, 0, 68, 52
3, 133929, Control_c, 0, 64, 0
3, 133976, Control_c, 0, 64, 127
3, 134160, Note_on_c, 0, 68, 0
3, 134160, Note_on_c, 0, 71, 50
3, 134400, Note_on_c, 0, 71, 0
3, 134400, Note_on_c, 0, 73, 55
3, 134418, Control_c, 0, 64, 0
3, 134464, Control_c, 0, 64, 127
3, 134640, Note_on_c, 0, 73, 0
3, 134640, Note_on_c, 0, 71, 49
3, 134760, Note_on_c, 0, 71, 0
3, 134880, Note_on_c, 0, 68, 51
3, 134887, Control_c, 0, 64, 0
3, 134965, Control_c, 0, 64, 127
3, 135360, Note_on_c, 0, 52, 37
3, 135360, Note_on_c, 0, 59, 37
3, 135600, Note_on_c, 0, 59, 0
3, 135600, Note_on_c, 0, 52, 0
3, 135840, Note_on_c, 0, 68, 0
3, 135840, Note_on_c, 0, 64, 50
3, 135849, Control_c, 0, 64, 0
3, 135896, Control_c, 0, 64, 127
3, 136080, Note_on_c, 0, 64, 0
3, 136080, Note_on_c, 0, 61, 48
3, 136320, Note_on_c, 0, 61, 0
3, 136320, Note_on_c, 0, 68, 50
3, 136330, Control_c, 0, 64, 0
3, 136412, Control_c, 0, 64, 127
3, 136560, Note_on_c, 0, 68, 0
3, 136560, Note_on_c, 0, 66, 47
3, 136680, Note_on_c, 0, 66, 0
3, 136800, Note_on_c, 0, 61, 49
3, 136807, Control_c, 0, 64, 0
3, 136885, Control_c, 0, 64, 127
3, 137280, Note_on_c, 0, 54, 37
3, 137280, Note_on_c, 0, 52, 37
3, 137280, Note_on_c, 0, 57, 37
3, 137520, Note_on_c, 0, 57, 0
3, 137520, Note_on_c, 0, 52, 0
3, 137520, Note_on_c, 0, 54, 0
3, 137760, Note_on_c, 0, 61, 0
3, 137760, Note_on_c, 0, 61, 48
3, 137771, Control_c, 0, 64, 0
3, 137824, Control_c, 0, 64, 127
3, 138000, Note_on_c, 0, 61, 0
3, 138000, Note_on_c, 0, 59, 41
3, 138240, Note_on_c, 0, 59, 0
3, 138240, Note_on_c, 0, 66, 47
3, 138250, Control_c, 0, 64, 0
3, 138297, Control_c, 0, 64, 127
3, 138480, Note_on_c, 0, 66, 0
3, 138480, Note_on_c, 0, 64, 39
3, 138600, Note_on_c, 0, 64, 0
3, 138720, Note_on_c, 0, 59, 41
3, 138726, Control_c, 0, 64, 0
3, 138800, Control_c, 0, 64, 127
3, 139200, Note_on_c, 0, 52, 37
3, 139440, Note_on_c, 0, 52, 0
3, 139680, Note_on_c, 0, 59, 0
3, 139680, Note_on_c, 0, 58, 48
3, 139689, Control_c, 0, 64, 0
3, 139746, Control_c, 0, 64, 127
3, 139920, Note_on_c, 0, 58, 0
3, 139920, Note_on_c, 0, 59, 47
3, 140160, Note_on_c, 0, 59, 0
3, 140160, Note_on_c, 0, 61, 53
3, 140171, Control_c, 0, 64, 0
3, 140226, Control_c, 0, 64, 127
3, 140400, Note_on_c, 0, 61, 0
3, 140400, Note_on_c, 0, 59, 49
3, 140520, Note_on_c, 0, 59, 0
3, 140640, Note_on_c, 0, 64, 50
3, 140651, Control_c, 0, 64, 0
3, 140696, Control_c, 0, 64, 127
3, 141120, Note_on_c, 0, 52, 37
3, 141120, Note_on_c, 0, 59, 37
3, 141360, Note_on_c, 0, 59, 0
3, 141360, Note_on_c, 0, 52, 0
3, 141600, Note_on_c, 0, 64, 0
3, 141600, Note_on_c, 0, 68, 52
3, 141611, Control_c, 0, 64, 0
3, 141666, Control_c, 0, 64, 127
3, 141840, Note_on_c, 0, 68, 0
3, 141840, Note_on_c, 0, 71, 50
3, 142080, Note_on_c, 0, 71, 0
3, 142080, Note_on_c, 0, 73, 55
3, 142090, Control_c, 0, 64, 0
3, 142147, Control_c, 0, 64, 127
3, 142320, Note_on_c, 0, 73, 0
3, 142320, Note_on_c, 0, 71, 49
3, 142440, Note_on_c, 0, 71, 0
3, 142560, Note_on_c, 0, 68, 51
3, 142564, Control_c, 0, 64, 0
3, 142645, Control_c, 0, 64, 127
3, 143040, Note_on_c, 0, 52, 37
3, 143040, Note_on_c, 0, 59, 37
3, 143280, Note_on_c, 0, 59, 0
3, 143280, Note_on_c, 0, 52, 0
3, 143520, Note_on_c, 0, 68, 0
3, 143520, Note_on_c, 0, 64, 50
3, 143530, Control_c, 0, 64, 0
3, 143605, Control_c, 0, 64, 127
3, 143760, Note_on_c, 0, 64, 0
3, 143760, Note_on_c, 0, 61, 48
3, 144000, Note_on_c, 0, 61, 0
3, 144000, Note_on_c, 0, 68, 50
3, 144010, Control_c, 0, 64, 0
3, 144053, Control_c, 0, 64, 127
3, 144240, Note_on_c, 0, 68, 0
3, 144240, Note_on_c, 0, 66, 47
3, 144360, Note_on_c, 0, 66, 0
3, 144480, Note_on_c, 0, 61, 49
3, 144492, Control_c, 0, 64, 0
3, 144565, Control_c, 0, 64, 127
3, 144960, Note_on_c, 0, 52, 37
3, 144960, Note_on_c, 0, 54, 37
3, 144960, Note_on_c, 0, 57, 37
3, 145200, Note_on_c, 0, 57, 0
3, 145200, Note_on_c, 0, 54, 0
3, 145200, Note_on_c, 0, 52, 0
3, 145440, Note_on_c, 0, 61, 0
3, 145440, Note_on_c, 0, 61, 48
3, 145449, Control_c, 0, 64, 0
3, 145511, Control_c, 0, 64, 127
3, 145680, Note_on_c, 0, 61, 0
3, 145680, Note_on_c, 0, 59, 41
3, 145920, Note_on_c, 0, 59, 0
3, 145920, Note_on_c, 0, 66, 48
3, 145930, Control_c, 0, 64, 0
3, 145980, Control_c, 0, 64, 127
3, 146160, Note_on_c, 0, 66, 0
3, 146160, Note_on_c, 0, 64, 41
3, 146280, Note_on_c, 0, 64, 0
3, 146400, Note_on_c, 0, 59, 48
3, 146409, Control_c, 0, 64, 0
3, 146491, Control_c, 0, 64, 127
3, 146880, Note_on_c, 0, 52, 41
3, 146891, Control_c, 0, 64, 0
3, 146983, Control_c, 0, 64, 127
3, 147120, Note_on_c, 0, 52, 0
3, 147360, Note_on_c, 0, 59, 0
3, 147360, Note_on_c, 0, 58, 40
3, 147366, Control_c, 0, 64, 0
3, 147437, Control_c, 0, 64, 127
3, 147600, Note_on_c, 0, 58, 0
3, 147600, Note_on_c, 0, 59, 37
3, 147840, Note_on_c, 0, 59, 0
3, 147840, Note_on_c, 0, 61, 42
3, 147848, Control_c, 0, 64, 0
3, 147889, Control_c, 0, 64, 127
3, 148080, Note_on_c, 0, 61, 0
3, 148080, Note_on_c, 0, 59, 39
3, 148200, Note_on_c, 0, 59, 0
3, 148320, Note_on_c, 0, 56, 42
3, 148326, Control_c, 0, 64, 0
3, 148411, Control_c, 0, 64, 127
3, 148800, Note_on_c, 0, 52, 39
3, 148811, Control_c, 0, 64, 0
3, 148903, Control_c, 0, 64, 127
3, 149280, Note_on_c, 0, 56, 0
3, 149280, Note_on_c, 0, 55, 40
3, 149291, Control_c, 0, 64, 0
3, 149346, Control_c, 0, 64, 127
3, 149520, Note_on_c, 0, 55, 0
3, 149520, Note_on_c, 0, 56, 37
3, 149760, Note_on_c, 0, 56, 0
3, 149760, Note_on_c, 0, 57, 42
3, 149769, Control_c, 0, 64, 0
3, 149800, Control_c, 0, 64, 127
3, 150000, Note_on_c, 0, 57, 0
3, 150000, Note_on_c, 0, 52, 0
3, 150000, Note_on_c, 0, 56, 39
3, 150240, Note_on_c, 0, 56, 0
3, 150240, Note_on_c, 0, 52, 40
3, 150246, Control_c, 0, 64, 0
3, 150294, Control_c, 0, 64, 127
3, 150720, Note_on_c, 0, 52, 0
3, 150720, Note_on_c, 0, 40, 39
3, 150732, Control_c, 0, 64, 0
3, 150766, Control_c, 0, 64, 127
3, 151200, Note_on_c, 0, 46, 40
3, 151209, Control_c, 0, 64, 0
3, 151269, Control_c, 0, 64, 127
3, 151440, Note_on_c, 0, 46, 0
3, 151440, Note_on_c, 0, 47, 37
3, 151680, Note_on_c, 0, 47, 0
3, 151680, Note_on_c, 0, 49, 42
3, 151690, Control_c, 0, 64, 0
3, 151749, Control_c, 0, 64, 127
3, 151920, Note_on_c, 0, 49, 0
3, 151920, Note_on_c, 0, 47, 39
3, 152040, Note_on_c, 0, 47, 0
3, 152160, Note_on_c, 0, 44, 40
3, 152178, Control_c, 0, 64, 0
3, 152217, Control_c, 0, 64, 127
3, 152640, Note_on_c, 0, 40, 0
3, 152640, Note_on_c, 0, 40, 39
3, 152651, Control_c, 0, 64, 0
3, 152694, Control_c, 0, 64, 127
3, 153120, Note_on_c, 0, 44, 0
3, 153120, Note_on_c, 0, 43, 40
3, 153130, Control_c, 0, 64, 0
3, 153175, Control_c, 0, 64, 127
3, 153600, Note_on_c, 0, 43, 0
3, 153600, Note_on_c, 0, 44, 42
3, 153609, Control_c, 0, 64, 0
3, 153649, Control_c, 0, 64, 127
3, 154080, Note_on_c, 0, 44, 0
3, 154080, Note_on_c, 0, 45, 40
3, 154094, Control_c, 0, 64, 0
3, 154132, Control_c, 0, 64, 127
3, 154560, Note_on_c, 0, 45, 0
3, 154560, Note_on_c, 0, 40, 0
3, 154560, Note_on_c, 0, 44, 42
3, 154560, Note_on_c, 0, 40, 39
3, 154571, Control_c, 0, 64, 0
3, 154614, Control_c, 0, 64, 127
3, 155040, Note_on_c, 0, 44, 0
3, 155040, Note_on_c, 0, 43, 40
3, 155048, Control_c, 0, 64, 0
3, 155093, Control_c, 0, 64, 127
3, 155520, Note_on_c, 0, 43, 0
3, 155520, Note_on_c, 0, 44, 39
3, 155530, Control_c, 0, 64, 0
3, 155573, Control_c, 0, 64, 127
3, 156012, Control_c, 0, 64, 0
3, 156051, Control_c, 0, 64, 127
3, 156492, Control_c, 0, 64, 0
3, 156529, Control_c, 0, 64, 127
3, 156974, Control_c, 0, 64, 0
3, 157023, Control_c, 0, 64, 127
3, 157446, Control_c, 0, 64, 0
3, 157962, Control_c, 0, 64, 127
3, 159360, Note_on_c, 0, 44, 0
3, 159360, Note_on_c, 0, 40, 0
3, 160586, Control_c, 0, 64, 0
3, 160586, End_track
4, 0, Start_track
4, 0, Title_t, "Tschaikowsky: The Seasons: November"
4, 0, End_track
5, 0, Start_track
5, 0, Title_t, "Copyright © 2004 by Bernd Krüger"
5, 0, End_track
6, 0, Start_track
6, 0, Title_t, "http://www.piano-midi.de"
6, 0, End_track
7, 0, Start_track
7, 0, Title_t, "Edition: 2008-09-26"
7, 0, End_track
8, 0, Start_track
8, 0, End_track
0, 0, End_of_file
