0, 0, Header, 1, 8, 480
1, 0, Start_track
1, 0, Title_t, "Die Jahreszeiten"
1, 0, Title_t, "Oktober"
1, 0, Copyright_t, "Copyright © 2004 by Bernd Krueger"
1, 0, Text_t, "Peter Tschaikowsky"
1, 0, Text_t, "Andante doloroso e molto cantabile"
1, 0, Text_t, "Fertiggestellt am 25.11.2000\012"
1, 0, Text_t, "Normierung: 23.12.2002\012"
1, 0, Text_t, "Update am 6.9.2004\012"
1, 0, Text_t, "Update am 24.9.2008\012"
1, 0, Text_t, "Dauer: 3:12 Minuten\012"
1, 0, SMPTE_offset, 96, 0, 3, 0, 0
1, 0, Time_signature, 4, 2, 24, 8
1, 0, Key_signature, -1, "major"
1, 0, Tempo, 827586
1, 480, Tempo, 805369
1, 960, Tempo, 833333
1, 1440, Tempo, 805369
1, 1920, Tempo, 816327
1, 4267, Tempo, 827586
1, 4320, Tempo, 805369
1, 4800, Tempo, 833333
1, 5280, Tempo, 805369
1, 5760, Tempo, 816327
1, 6000, Tempo, 800000
1, 6240, Tempo, 810811
1, 6720, Tempo, 821918
1, 7840, Tempo, 805369
1, 8160, Tempo, 800000
1, 8240, Tempo, 805369
1, 8320, Tempo, 810811
1, 8400, Tempo, 816327
1, 8440, Tempo, 821918
1, 8520, Tempo, 827586
1, 8600, Tempo, 833333
1, 8640, Tempo, 839161
1, 9120, Tempo, 821918
1, 9760, Tempo, 805369
1, 10080, Tempo, 800000
1, 10160, Tempo, 805369
1, 10240, Tempo, 810811
1, 10280, Tempo, 816327
1, 10360, Tempo, 821918
1, 10400, Tempo, 827586
1, 10440, Tempo, 833333
1, 10520, Tempo, 839161
1, 11520, Tempo, 821918
1, 11880, Tempo, 895522
1, 12000, Tempo, 821918
1, 12320, Tempo, 851064
1, 12480, Tempo, 821918
1, 13280, Tempo, 863309
1, 13440, Tempo, 816327
1, 13920, Tempo, 821918
1, 14880, Tempo, 805369
1, 15120, Tempo, 991736
1, 15200, Tempo, 833333
1, 15360, Tempo, 784314
1, 15840, Tempo, 759494
1, 16080, Tempo, 779221
1, 16320, Tempo, 769231
1, 16560, Tempo, 784314
1, 16800, Tempo, 794702
1, 17280, Tempo, 769231
1, 17520, Tempo, 779221
1, 17760, Tempo, 779221
1, 18000, Tempo, 769231
1, 18240, Tempo, 750000
1, 18480, Tempo, 755668
1, 18720, Tempo, 769231
1, 18960, Tempo, 784314
1, 19140, Tempo, 909091
1, 19200, Tempo, 774194
1, 19440, Tempo, 754717
1, 19680, Tempo, 750000
1, 19920, Tempo, 759494
1, 20160, Tempo, 759494
1, 20400, Tempo, 764331
1, 20640, Tempo, 774194
1, 20880, Tempo, 784314
1, 21120, Tempo, 800000
1, 21360, Tempo, 779221
1, 21600, Tempo, 805369
1, 22020, Tempo, 875912
1, 22080, Tempo, 800000
1, 22560, Tempo, 821918
1, 23040, Tempo, 821918
1, 23200, Tempo, 800000
1, 23360, Tempo, 851064
1, 23520, Tempo, 805369
1, 24000, Tempo, 821918
1, 24320, Tempo, 839161
1, 24480, Tempo, 816327
1, 24800, Tempo, 851064
1, 24960, Tempo, 821918
1, 25120, Tempo, 800000
1, 25280, Tempo, 833333
1, 25440, Tempo, 805369
1, 25920, Tempo, 821918
1, 26240, Tempo, 839161
1, 26400, Tempo, 816327
1, 27680, Tempo, 800000
1, 27840, Tempo, 816327
1, 28800, Tempo, 845070
1, 28960, Tempo, 816327
1, 29600, Tempo, 833333
1, 29760, Tempo, 839161
1, 30080, Tempo, 902256
1, 30240, Tempo, 923077
1, 30720, Tempo, 816549
1, 30880, Tempo, 795334
1, 31200, Tempo, 790097
1, 31320, Tempo, 795334
1, 31400, Tempo, 800427
1, 31680, Tempo, 816549
1, 32160, Tempo, 833449
1, 32800, Tempo, 805694
1, 33120, Tempo, 800427
1, 33440, Tempo, 833449
1, 33600, Tempo, 795334
1, 33920, Tempo, 816327
1, 34560, Tempo, 816549
1, 34720, Tempo, 795334
1, 35040, Tempo, 790097
1, 35160, Tempo, 795334
1, 35240, Tempo, 800427
1, 35520, Tempo, 816549
1, 36000, Tempo, 833449
1, 36640, Tempo, 805694
1, 36960, Tempo, 800427
1, 37280, Tempo, 833449
1, 37440, Tempo, 795334
1, 37760, Tempo, 816327
1, 38400, Tempo, 833449
1, 38560, Tempo, 805694
1, 38880, Tempo, 800427
1, 39200, Tempo, 833449
1, 39360, Tempo, 795334
1, 39520, Tempo, 833449
1, 39720, Tempo, 1142857
1, 39724, Tempo, 1153846
1, 39732, Tempo, 1165049
1, 39740, Tempo, 1176471
1, 39744, Tempo, 1188119
1, 39752, Tempo, 1200000
1, 39760, Tempo, 1224490
1, 39764, Tempo, 1237113
1, 39772, Tempo, 1250000
1, 39780, Tempo, 1263158
1, 39784, Tempo, 1276596
1, 39792, Tempo, 1290323
1, 39800, Tempo, 1318681
1, 39804, Tempo, 1333333
1, 39812, Tempo, 1348315
1, 39820, Tempo, 1363636
1, 39824, Tempo, 1379310
1, 39832, Tempo, 1411765
1, 39840, Tempo, 2028398
1, 40160, Tempo, 844951
1, 40480, Tempo, 816549
1, 40800, Tempo, 822143
1, 41120, Tempo, 844951
1, 41280, Tempo, 800427
1, 41600, Tempo, 822143
1, 42080, Tempo, 907990
1, 42180, Tempo, 822143
1, 42240, Tempo, 822143
1, 42400, Tempo, 816549
1, 42720, Tempo, 822143
1, 43040, Tempo, 844951
1, 43200, Tempo, 800427
1, 43520, Tempo, 822143
1, 44000, Tempo, 888099
1, 44100, Tempo, 822143
1, 44160, Tempo, 822143
1, 44320, Tempo, 816549
1, 44640, Tempo, 822143
1, 44960, Tempo, 844951
1, 45120, Tempo, 800427
1, 45440, Tempo, 822143
1, 46080, Tempo, 822143
1, 46240, Tempo, 816549
1, 46560, Tempo, 822143
1, 46880, Tempo, 844951
1, 47040, Tempo, 800427
1, 47360, Tempo, 805694
1, 47520, Tempo, 822143
1, 47760, Tempo, 851064
1, 48000, Tempo, 845070
1, 48160, Tempo, 816549
1, 48480, Tempo, 822143
1, 48800, Tempo, 844951
1, 48960, Tempo, 800427
1, 49280, Tempo, 822143
1, 49760, Tempo, 907990
1, 49860, Tempo, 822143
1, 49920, Tempo, 822143
1, 50080, Tempo, 816549
1, 50400, Tempo, 822143
1, 50720, Tempo, 844951
1, 50880, Tempo, 800427
1, 51200, Tempo, 822143
1, 51680, Tempo, 888099
1, 51780, Tempo, 822143
1, 51840, Tempo, 822143
1, 52000, Tempo, 816549
1, 52320, Tempo, 822143
1, 52640, Tempo, 844951
1, 52800, Tempo, 800427
1, 53120, Tempo, 822143
1, 53760, Tempo, 822143
1, 53920, Tempo, 816549
1, 54240, Tempo, 822143
1, 54560, Tempo, 844951
1, 54720, Tempo, 800427
1, 55040, Tempo, 805694
1, 55200, Tempo, 822143
1, 55440, Tempo, 845070
1, 55680, Tempo, 839161
1, 55840, Tempo, 805369
1, 56160, Tempo, 821918
1, 56800, Tempo, 805369
1, 56960, Tempo, 839161
1, 57600, Tempo, 839161
1, 57760, Tempo, 805369
1, 58080, Tempo, 821918
1, 58720, Tempo, 805369
1, 58880, Tempo, 839161
1, 59520, Tempo, 816327
1, 59840, Tempo, 851064
1, 60000, Tempo, 816327
1, 60320, Tempo, 794702
1, 60480, Tempo, 816327
1, 61120, Tempo, 833333
1, 61440, Tempo, 833333
1, 61560, Tempo, 839161
1, 61640, Tempo, 845070
1, 61760, Tempo, 851064
1, 61840, Tempo, 857143
1, 61920, Tempo, 863309
1, 62040, Tempo, 869565
1, 62120, Tempo, 875912
1, 62240, Tempo, 882353
1, 62320, Tempo, 888889
1, 62400, Tempo, 895522
1, 62520, Tempo, 902256
1, 62600, Tempo, 909091
1, 62720, Tempo, 916031
1, 62800, Tempo, 923077
1, 62880, Tempo, 930233
1, 63200, Tempo, 2448980
1, 63360, Tempo, 827586
1, 63840, Tempo, 805369
1, 64320, Tempo, 833333
1, 64800, Tempo, 805369
1, 65280, Tempo, 816327
1, 65520, Tempo, 800000
1, 65760, Tempo, 810811
1, 66240, Tempo, 805369
1, 66480, Tempo, 821918
1, 66720, Tempo, 810811
1, 67627, Tempo, 827586
1, 67680, Tempo, 805369
1, 68160, Tempo, 833333
1, 68640, Tempo, 805369
1, 69120, Tempo, 816327
1, 69360, Tempo, 800000
1, 69600, Tempo, 810811
1, 70080, Tempo, 821918
1, 71200, Tempo, 805369
1, 71520, Tempo, 800000
1, 71600, Tempo, 805369
1, 71680, Tempo, 810811
1, 71760, Tempo, 816327
1, 71800, Tempo, 821918
1, 71880, Tempo, 827586
1, 71960, Tempo, 833333
1, 72000, Tempo, 839161
1, 72480, Tempo, 821918
1, 73120, Tempo, 800000
1, 73440, Tempo, 800000
1, 73520, Tempo, 805369
1, 73600, Tempo, 810811
1, 73640, Tempo, 816327
1, 73720, Tempo, 821918
1, 73760, Tempo, 827586
1, 73800, Tempo, 833333
1, 73880, Tempo, 839161
1, 74880, Tempo, 821918
1, 75240, Tempo, 895522
1, 75360, Tempo, 821918
1, 75680, Tempo, 851064
1, 75840, Tempo, 810811
1, 76320, Tempo, 821918
1, 76640, Tempo, 863309
1, 76800, Tempo, 805369
1, 77040, Tempo, 816327
1, 77280, Tempo, 810811
1, 77520, Tempo, 821918
1, 77760, Tempo, 816327
1, 78000, Tempo, 821918
1, 78240, Tempo, 805369
1, 78480, Tempo, 991736
1, 78560, Tempo, 833333
1, 78720, Tempo, 784314
1, 79200, Tempo, 759494
1, 79440, Tempo, 779221
1, 79680, Tempo, 769231
1, 79920, Tempo, 784314
1, 80160, Tempo, 794702
1, 80640, Tempo, 769231
1, 80880, Tempo, 779221
1, 81120, Tempo, 774194
1, 81360, Tempo, 764331
1, 81600, Tempo, 750000
1, 81840, Tempo, 764331
1, 82080, Tempo, 769231
1, 82320, Tempo, 784314
1, 82500, Tempo, 909091
1, 82560, Tempo, 759494
1, 82800, Tempo, 759494
1, 83040, Tempo, 745342
1, 83280, Tempo, 759494
1, 83520, Tempo, 750000
1, 83760, Tempo, 764331
1, 84000, Tempo, 774194
1, 84240, Tempo, 784314
1, 84480, Tempo, 784314
1, 84720, Tempo, 779221
1, 84960, Tempo, 805369
1, 85380, Tempo, 875912
1, 85440, Tempo, 800000
1, 85920, Tempo, 821918
1, 86400, Tempo, 821918
1, 86560, Tempo, 800000
1, 86720, Tempo, 833333
1, 86880, Tempo, 805369
1, 87360, Tempo, 821918
1, 87680, Tempo, 839161
1, 87840, Tempo, 816327
1, 88160, Tempo, 851064
1, 88320, Tempo, 821918
1, 88480, Tempo, 800000
1, 88640, Tempo, 833333
1, 88800, Tempo, 800000
1, 89280, Tempo, 821918
1, 89600, Tempo, 839161
1, 89760, Tempo, 816327
1, 91040, Tempo, 800000
1, 91200, Tempo, 816327
1, 92160, Tempo, 845070
1, 92320, Tempo, 816327
1, 92960, Tempo, 833333
1, 93120, Tempo, 839161
1, 93440, Tempo, 902256
1, 93600, Tempo, 923077
1, 94080, Tempo, 816549
1, 94240, Tempo, 795334
1, 94560, Tempo, 790097
1, 94680, Tempo, 795334
1, 94760, Tempo, 800427
1, 94880, Tempo, 839161
1, 95040, Tempo, 816549
1, 95360, Tempo, 839161
1, 95520, Tempo, 833449
1, 96000, Tempo, 816549
1, 96160, Tempo, 795334
1, 96480, Tempo, 790097
1, 96600, Tempo, 795334
1, 96680, Tempo, 800427
1, 96800, Tempo, 816327
1, 96960, Tempo, 839161
1, 97120, Tempo, 800000
1, 97400, Tempo, 821918
1, 97920, Tempo, 816549
1, 98080, Tempo, 795334
1, 98400, Tempo, 790097
1, 98520, Tempo, 795334
1, 98600, Tempo, 800427
1, 98720, Tempo, 839161
1, 98880, Tempo, 816549
1, 99200, Tempo, 839161
1, 99360, Tempo, 833449
1, 99840, Tempo, 816549
1, 100000, Tempo, 795334
1, 100320, Tempo, 790097
1, 100440, Tempo, 795334
1, 100520, Tempo, 800427
1, 100640, Tempo, 816327
1, 100800, Tempo, 839161
1, 100960, Tempo, 800000
1, 101240, Tempo, 821918
1, 101760, Tempo, 816549
1, 101920, Tempo, 795334
1, 102240, Tempo, 790097
1, 102360, Tempo, 795334
1, 102440, Tempo, 800427
1, 102560, Tempo, 816327
1, 102720, Tempo, 839161
1, 102880, Tempo, 810811
1, 103160, Tempo, 821918
1, 103680, Tempo, 833333
1, 104613, Tempo, 821918
1, 104733, Tempo, 827586
1, 104813, Tempo, 833333
1, 104893, Tempo, 839161
1, 104973, Tempo, 845070
1, 105053, Tempo, 851064
1, 105133, Tempo, 857143
1, 105213, Tempo, 863309
1, 105293, Tempo, 869565
1, 105360, Tempo, 991736
1, 105600, Tempo, 1142857
1, 106320, Tempo, 3529412
1, 106560, Tempo, 3076923
1, 107520, Tempo, 857143
1, 107520, End_track
2, 0, Start_track
2, 0, Title_t, "Piano right"
2, 0, Program_c, 0, 0
2, 0, Control_c, 0, 7, 100
2, 0, Control_c, 0, 10, 64
2, 0, Note_on_c, 0, 65, 44
2, 0, Note_on_c, 0, 69, 49
2, 0, Text_t, "bdca426d104a26ac9dcb070447587523"
2, 480, Note_on_c, 0, 77, 52
2, 960, Note_on_c, 0, 69, 0
2, 960, Note_on_c, 0, 65, 0
2, 960, Note_on_c, 0, 69, 49
2, 960, Note_on_c, 0, 67, 44
2, 1440, Note_on_c, 0, 77, 0
2, 1440, Note_on_c, 0, 76, 53
2, 1920, Note_on_c, 0, 67, 0
2, 1920, Note_on_c, 0, 69, 0
2, 1920, Note_on_c, 0, 65, 36
2, 1920, Note_on_c, 0, 69, 42
2, 2160, Note_on_c, 0, 76, 0
2, 2160, Note_on_c, 0, 74, 52
2, 2400, Note_on_c, 0, 74, 0
2, 2400, Note_on_c, 0, 69, 0
2, 2400, Note_on_c, 0, 65, 0
2, 2400, Note_on_c, 0, 68, 54
2, 2640, Note_on_c, 0, 68, 0
2, 2640, Note_on_c, 0, 69, 50
2, 2880, Note_on_c, 0, 69, 0
2, 2880, Note_on_c, 0, 62, 42
2, 2880, Note_on_c, 0, 69, 42
2, 2880, Note_on_c, 0, 74, 52
2, 3600, Note_on_c, 0, 74, 0
2, 3600, Note_on_c, 0, 72, 47
2, 3840, Note_on_c, 0, 72, 0
2, 3840, Note_on_c, 0, 69, 0
2, 3840, Note_on_c, 0, 67, 47
2, 3840, Note_on_c, 0, 70, 52
2, 4320, Note_on_c, 0, 70, 0
2, 4320, Note_on_c, 0, 67, 0
2, 4320, Note_on_c, 0, 62, 0
2, 4320, Note_on_c, 0, 70, 59
2, 4800, Note_on_c, 0, 62, 49
2, 4800, Note_on_c, 0, 60, 44
2, 5280, Note_on_c, 0, 70, 0
2, 5280, Note_on_c, 0, 66, 57
2, 5760, Note_on_c, 0, 60, 0
2, 5760, Note_on_c, 0, 62, 0
2, 5760, Note_on_c, 0, 58, 36
2, 5760, Note_on_c, 0, 62, 36
2, 6000, Note_on_c, 0, 66, 0
2, 6000, Note_on_c, 0, 67, 57
2, 6240, Note_on_c, 0, 67, 0
2, 6240, Note_on_c, 0, 62, 0
2, 6240, Note_on_c, 0, 58, 0
2, 6240, Note_on_c, 0, 67, 36
2, 6240, Note_on_c, 0, 64, 34
2, 6240, Note_on_c, 0, 76, 62
2, 6480, Note_on_c, 0, 76, 0
2, 6480, Note_on_c, 0, 74, 58
2, 6720, Note_on_c, 0, 74, 0
2, 6720, Note_on_c, 0, 64, 0
2, 6720, Note_on_c, 0, 67, 0
2, 6720, Note_on_c, 0, 64, 36
2, 6720, Note_on_c, 0, 67, 36
2, 6720, Note_on_c, 0, 74, 59
2, 7200, Note_on_c, 0, 74, 0
2, 7200, Note_on_c, 0, 73, 56
2, 7680, Note_on_c, 0, 73, 0
2, 7680, Note_on_c, 0, 67, 0
2, 7680, Note_on_c, 0, 64, 0
2, 7840, Note_on_c, 0, 69, 58
2, 8000, Note_on_c, 0, 69, 0
2, 8000, Note_on_c, 0, 71, 55
2, 8160, Note_on_c, 0, 71, 0
2, 8160, Note_on_c, 0, 73, 57
2, 8320, Note_on_c, 0, 73, 0
2, 8320, Note_on_c, 0, 74, 61
2, 8480, Note_on_c, 0, 74, 0
2, 8480, Note_on_c, 0, 76, 64
2, 8640, Note_on_c, 0, 76, 0
2, 8640, Note_on_c, 0, 81, 68
2, 9760, Note_on_c, 0, 81, 0
2, 9760, Note_on_c, 0, 69, 61
2, 9920, Note_on_c, 0, 69, 0
2, 9920, Note_on_c, 0, 71, 57
2, 10080, Note_on_c, 0, 71, 0
2, 10080, Note_on_c, 0, 73, 61
2, 10240, Note_on_c, 0, 73, 0
2, 10240, Note_on_c, 0, 74, 65
2, 10400, Note_on_c, 0, 74, 0
2, 10400, Note_on_c, 0, 76, 68
2, 10560, Note_on_c, 0, 76, 0
2, 10560, Note_on_c, 0, 81, 72
2, 11280, Note_on_c, 0, 81, 0
2, 11280, Note_on_c, 0, 74, 67
2, 11520, Note_on_c, 0, 74, 0
2, 11520, Note_on_c, 0, 79, 69
2, 11680, Note_on_c, 0, 79, 0
2, 11680, Note_on_c, 0, 77, 65
2, 11840, Note_on_c, 0, 77, 0
2, 11840, Note_on_c, 0, 76, 64
2, 11940, Note_on_c, 0, 76, 0
2, 11940, Note_on_c, 0, 74, 62
2, 11970, Note_on_c, 0, 74, 0
2, 11970, Note_on_c, 0, 76, 62
2, 12000, Note_on_c, 0, 76, 0
2, 12000, Note_on_c, 0, 74, 69
2, 12160, Note_on_c, 0, 74, 0
2, 12160, Note_on_c, 0, 73, 64
2, 12320, Note_on_c, 0, 73, 0
2, 12320, Note_on_c, 0, 74, 64
2, 12480, Note_on_c, 0, 74, 0
2, 12480, Note_on_c, 0, 77, 69
2, 13120, Note_on_c, 0, 77, 0
2, 13120, Note_on_c, 0, 76, 63
2, 13280, Note_on_c, 0, 76, 0
2, 13280, Note_on_c, 0, 74, 57
2, 13600, Note_on_c, 0, 74, 0
2, 13600, Note_on_c, 0, 73, 68
2, 13760, Note_on_c, 0, 73, 0
2, 13760, Note_on_c, 0, 72, 58
2, 14080, Note_on_c, 0, 72, 0
2, 14080, Note_on_c, 0, 71, 66
2, 14240, Note_on_c, 0, 71, 0
2, 14240, Note_on_c, 0, 70, 57
2, 14560, Note_on_c, 0, 70, 0
2, 14560, Note_on_c, 0, 69, 63
2, 14720, Note_on_c, 0, 69, 0
2, 14720, Note_on_c, 0, 65, 55
2, 15140, Note_on_c, 0, 65, 0
2, 15140, Note_on_c, 0, 64, 50
2, 15170, Note_on_c, 0, 64, 0
2, 15170, Note_on_c, 0, 65, 50
2, 15200, Note_on_c, 0, 65, 0
2, 15200, Note_on_c, 0, 64, 56
2, 15360, Note_on_c, 0, 64, 0
2, 15360, Note_on_c, 0, 62, 54
2, 15600, Note_on_c, 0, 62, 0
2, 16080, Note_on_c, 0, 69, 49
2, 16560, Note_on_c, 0, 69, 0
2, 16560, Note_on_c, 0, 71, 53
2, 17040, Note_on_c, 0, 71, 0
2, 17040, Note_on_c, 0, 73, 57
2, 17520, Note_on_c, 0, 73, 0
2, 17520, Note_on_c, 0, 74, 49
2, 18000, Note_on_c, 0, 74, 0
2, 18000, Note_on_c, 0, 73, 54
2, 18480, Note_on_c, 0, 73, 0
2, 18480, Note_on_c, 0, 72, 53
2, 18720, Note_on_c, 0, 72, 0
2, 18720, Note_on_c, 0, 70, 52
2, 18960, Note_on_c, 0, 70, 0
2, 18960, Note_on_c, 0, 69, 51
2, 19200, Note_on_c, 0, 69, 0
2, 19200, Note_on_c, 0, 67, 57
2, 19440, Note_on_c, 0, 67, 0
2, 19440, Note_on_c, 0, 62, 53
2, 19920, Note_on_c, 0, 62, 0
2, 19920, Note_on_c, 0, 74, 67
2, 20400, Note_on_c, 0, 74, 0
2, 20400, Note_on_c, 0, 70, 63
2, 20880, Note_on_c, 0, 70, 0
2, 20880, Note_on_c, 0, 69, 57
2, 21360, Note_on_c, 0, 69, 0
2, 21360, Note_on_c, 0, 67, 57
2, 21840, Note_on_c, 0, 67, 0
2, 21840, Note_on_c, 0, 68, 56
2, 22320, Note_on_c, 0, 68, 0
2, 22320, Note_on_c, 0, 69, 55
2, 22800, Note_on_c, 0, 69, 0
2, 22800, Note_on_c, 0, 64, 53
2, 23040, Note_on_c, 0, 64, 0
2, 23200, Note_on_c, 0, 72, 69
2, 23360, Note_on_c, 0, 72, 0
2, 23360, Note_on_c, 0, 74, 70
2, 23520, Note_on_c, 0, 74, 0
2, 23520, Note_on_c, 0, 76, 73
2, 23680, Note_on_c, 0, 76, 0
2, 23680, Note_on_c, 0, 77, 70
2, 23840, Note_on_c, 0, 77, 0
2, 23840, Note_on_c, 0, 79, 67
2, 24000, Note_on_c, 0, 79, 0
2, 24000, Note_on_c, 0, 72, 74
2, 24960, Note_on_c, 0, 72, 0
2, 25120, Note_on_c, 0, 69, 71
2, 25280, Note_on_c, 0, 69, 0
2, 25280, Note_on_c, 0, 71, 71
2, 25440, Note_on_c, 0, 71, 0
2, 25440, Note_on_c, 0, 73, 73
2, 25600, Note_on_c, 0, 73, 0
2, 25600, Note_on_c, 0, 74, 70
2, 25760, Note_on_c, 0, 74, 0
2, 25760, Note_on_c, 0, 76, 67
2, 25920, Note_on_c, 0, 76, 0
2, 25920, Note_on_c, 0, 69, 74
2, 26880, Note_on_c, 0, 69, 0
2, 27040, Note_on_c, 0, 64, 71
2, 27140, Note_on_c, 0, 64, 0
2, 27200, Note_on_c, 0, 65, 70
2, 27300, Note_on_c, 0, 65, 0
2, 27360, Note_on_c, 0, 67, 71
2, 27460, Note_on_c, 0, 67, 0
2, 27520, Note_on_c, 0, 69, 70
2, 27620, Note_on_c, 0, 69, 0
2, 27680, Note_on_c, 0, 70, 71
2, 28000, Note_on_c, 0, 70, 0
2, 28000, Note_on_c, 0, 70, 71
2, 28160, Note_on_c, 0, 70, 0
2, 28160, Note_on_c, 0, 69, 67
2, 28480, Note_on_c, 0, 69, 0
2, 28480, Note_on_c, 0, 68, 69
2, 28640, Note_on_c, 0, 68, 0
2, 28640, Note_on_c, 0, 67, 66
2, 28960, Note_on_c, 0, 67, 0
2, 28960, Note_on_c, 0, 66, 68
2, 29120, Note_on_c, 0, 66, 0
2, 29120, Note_on_c, 0, 65, 62
2, 29440, Note_on_c, 0, 65, 0
2, 29440, Note_on_c, 0, 63, 66
2, 29600, Note_on_c, 0, 63, 0
2, 29600, Note_on_c, 0, 64, 61
2, 29760, Note_on_c, 0, 53, 38
2, 29760, Note_on_c, 0, 57, 38
2, 30080, Note_on_c, 0, 64, 0
2, 30080, Note_on_c, 0, 61, 55
2, 30240, Note_on_c, 0, 61, 0
2, 30240, Note_on_c, 0, 61, 55
2, 30560, Note_on_c, 0, 61, 0
2, 30560, Note_on_c, 0, 62, 50
2, 30720, Note_on_c, 0, 62, 0
2, 30720, Note_on_c, 0, 57, 0
2, 30720, Note_on_c, 0, 53, 0
2, 30880, Note_on_c, 0, 67, 58
2, 31040, Note_on_c, 0, 67, 0
2, 31040, Note_on_c, 0, 69, 58
2, 31200, Note_on_c, 0, 69, 0
2, 31200, Note_on_c, 0, 70, 57
2, 31360, Note_on_c, 0, 70, 0
2, 31360, Note_on_c, 0, 71, 60
2, 31520, Note_on_c, 0, 71, 0
2, 31520, Note_on_c, 0, 72, 63
2, 31680, Note_on_c, 0, 72, 0
2, 31680, Note_on_c, 0, 77, 67
2, 32000, Note_on_c, 0, 77, 0
2, 32000, Note_on_c, 0, 76, 63
2, 32160, Note_on_c, 0, 76, 0
2, 32160, Note_on_c, 0, 76, 65
2, 32480, Note_on_c, 0, 76, 0
2, 32480, Note_on_c, 0, 74, 63
2, 32640, Note_on_c, 0, 74, 0
2, 32640, Note_on_c, 0, 74, 64
2, 32800, Note_on_c, 0, 64, 54
2, 32960, Note_on_c, 0, 64, 0
2, 32960, Note_on_c, 0, 65, 54
2, 33120, Note_on_c, 0, 65, 0
2, 33120, Note_on_c, 0, 74, 0
2, 33120, Note_on_c, 0, 66, 56
2, 33120, Note_on_c, 0, 72, 67
2, 33280, Note_on_c, 0, 66, 0
2, 33280, Note_on_c, 0, 67, 56
2, 33440, Note_on_c, 0, 67, 0
2, 33440, Note_on_c, 0, 68, 56
2, 33600, Note_on_c, 0, 68, 0
2, 33600, Note_on_c, 0, 70, 67
2, 33760, Note_on_c, 0, 72, 0
2, 33760, Note_on_c, 0, 72, 56
2, 33920, Note_on_c, 0, 72, 0
2, 33920, Note_on_c, 0, 71, 56
2, 34080, Note_on_c, 0, 71, 0
2, 34080, Note_on_c, 0, 70, 0
2, 34080, Note_on_c, 0, 74, 61
2, 34080, Note_on_c, 0, 69, 45
2, 34400, Note_on_c, 0, 74, 0
2, 34400, Note_on_c, 0, 72, 58
2, 34560, Note_on_c, 0, 72, 0
2, 34560, Note_on_c, 0, 69, 0
2, 34720, Note_on_c, 0, 67, 58
2, 34880, Note_on_c, 0, 67, 0
2, 34880, Note_on_c, 0, 69, 58
2, 35040, Note_on_c, 0, 69, 0
2, 35040, Note_on_c, 0, 70, 57
2, 35200, Note_on_c, 0, 70, 0
2, 35200, Note_on_c, 0, 71, 60
2, 35360, Note_on_c, 0, 71, 0
2, 35360, Note_on_c, 0, 72, 63
2, 35520, Note_on_c, 0, 72, 0
2, 35520, Note_on_c, 0, 77, 67
2, 35840, Note_on_c, 0, 77, 0
2, 35840, Note_on_c, 0, 76, 63
2, 36000, Note_on_c, 0, 76, 0
2, 36000, Note_on_c, 0, 76, 65
2, 36320, Note_on_c, 0, 76, 0
2, 36320, Note_on_c, 0, 74, 63
2, 36480, Note_on_c, 0, 74, 0
2, 36480, Note_on_c, 0, 74, 64
2, 36640, Note_on_c, 0, 64, 54
2, 36800, Note_on_c, 0, 64, 0
2, 36800, Note_on_c, 0, 63, 54
2, 36960, Note_on_c, 0, 63, 0
2, 36960, Note_on_c, 0, 74, 0
2, 36960, Note_on_c, 0, 64, 56
2, 36960, Note_on_c, 0, 73, 67
2, 37120, Note_on_c, 0, 64, 0
2, 37120, Note_on_c, 0, 65, 56
2, 37280, Note_on_c, 0, 65, 0
2, 37280, Note_on_c, 0, 64, 56
2, 37440, Note_on_c, 0, 64, 0
2, 37440, Note_on_c, 0, 70, 67
2, 37600, Note_on_c, 0, 73, 0
2, 37600, Note_on_c, 0, 74, 64
2, 37760, Note_on_c, 0, 74, 0
2, 37760, Note_on_c, 0, 73, 62
2, 37920, Note_on_c, 0, 73, 0
2, 37920, Note_on_c, 0, 70, 0
2, 37920, Note_on_c, 0, 69, 54
2, 37920, Note_on_c, 0, 76, 68
2, 38240, Note_on_c, 0, 76, 0
2, 38240, Note_on_c, 0, 74, 58
2, 38400, Note_on_c, 0, 74, 0
2, 38400, Note_on_c, 0, 69, 0
2, 38400, Note_on_c, 0, 77, 68
2, 38560, Note_on_c, 0, 67, 60
2, 38720, Note_on_c, 0, 67, 0
2, 38720, Note_on_c, 0, 66, 60
2, 38880, Note_on_c, 0, 66, 0
2, 38880, Note_on_c, 0, 77, 0
2, 38880, Note_on_c, 0, 67, 70
2, 38880, Note_on_c, 0, 76, 70
2, 39040, Note_on_c, 0, 67, 0
2, 39040, Note_on_c, 0, 69, 60
2, 39200, Note_on_c, 0, 69, 0
2, 39200, Note_on_c, 0, 67, 60
2, 39360, Note_on_c, 0, 67, 0
2, 39360, Note_on_c, 0, 74, 72
2, 39520, Note_on_c, 0, 76, 0
2, 39520, Note_on_c, 0, 77, 67
2, 39680, Note_on_c, 0, 77, 0
2, 39680, Note_on_c, 0, 76, 67
2, 39750, Note_on_c, 0, 76, 0
2, 39810, Note_on_c, 0, 67, 54
2, 39825, Note_on_c, 0, 73, 63
2, 39840, Note_on_c, 0, 74, 0
2, 39840, Note_on_c, 0, 82, 71
2, 40160, Note_on_c, 0, 82, 0
2, 40160, Note_on_c, 0, 81, 57
2, 40320, Note_on_c, 0, 81, 0
2, 40320, Note_on_c, 0, 73, 0
2, 40320, Note_on_c, 0, 67, 0
2, 40480, Note_on_c, 0, 81, 65
2, 40640, Note_on_c, 0, 81, 0
2, 40640, Note_on_c, 0, 80, 66
2, 40800, Note_on_c, 0, 80, 0
2, 40800, Note_on_c, 0, 82, 70
2, 41120, Note_on_c, 0, 82, 0
2, 41120, Note_on_c, 0, 81, 64
2, 41280, Note_on_c, 0, 81, 0
2, 41280, Note_on_c, 0, 81, 67
2, 41440, Note_on_c, 0, 81, 0
2, 41440, Note_on_c, 0, 79, 59
2, 41600, Note_on_c, 0, 79, 0
2, 41600, Note_on_c, 0, 78, 61
2, 41760, Note_on_c, 0, 78, 0
2, 41760, Note_on_c, 0, 81, 62
2, 42080, Note_on_c, 0, 81, 0
2, 42080, Note_on_c, 0, 79, 63
2, 42180, Note_on_c, 0, 79, 0
2, 42400, Note_on_c, 0, 79, 65
2, 42560, Note_on_c, 0, 79, 0
2, 42560, Note_on_c, 0, 78, 63
2, 42720, Note_on_c, 0, 78, 0
2, 42720, Note_on_c, 0, 81, 67
2, 43040, Note_on_c, 0, 81, 0
2, 43040, Note_on_c, 0, 79, 64
2, 43200, Note_on_c, 0, 79, 0
2, 43200, Note_on_c, 0, 79, 69
2, 43360, Note_on_c, 0, 79, 0
2, 43360, Note_on_c, 0, 77, 66
2, 43520, Note_on_c, 0, 77, 0
2, 43520, Note_on_c, 0, 76, 64
2, 43680, Note_on_c, 0, 76, 0
2, 43680, Note_on_c, 0, 79, 70
2, 44000, Note_on_c, 0, 79, 0
2, 44000, Note_on_c, 0, 77, 62
2, 44100, Note_on_c, 0, 77, 0
2, 44320, Note_on_c, 0, 77, 65
2, 44480, Note_on_c, 0, 77, 0
2, 44480, Note_on_c, 0, 76, 63
2, 44640, Note_on_c, 0, 76, 0
2, 44640, Note_on_c, 0, 79, 70
2, 44960, Note_on_c, 0, 79, 0
2, 44960, Note_on_c, 0, 77, 65
2, 45120, Note_on_c, 0, 77, 0
2, 45120, Note_on_c, 0, 77, 69
2, 45280, Note_on_c, 0, 77, 0
2, 45280, Note_on_c, 0, 76, 66
2, 45440, Note_on_c, 0, 76, 0
2, 45440, Note_on_c, 0, 74, 64
2, 45600, Note_on_c, 0, 74, 0
2, 45600, Note_on_c, 0, 77, 69
2, 45760, Note_on_c, 0, 77, 0
2, 45760, Note_on_c, 0, 76, 67
2, 45920, Note_on_c, 0, 76, 0
2, 45920, Note_on_c, 0, 74, 65
2, 46080, Note_on_c, 0, 74, 0
2, 46240, Note_on_c, 0, 67, 61
2, 46400, Note_on_c, 0, 67, 0
2, 46400, Note_on_c, 0, 69, 62
2, 46560, Note_on_c, 0, 69, 0
2, 46560, Note_on_c, 0, 70, 66
2, 46720, Note_on_c, 0, 70, 0
2, 46720, Note_on_c, 0, 77, 62
2, 46880, Note_on_c, 0, 77, 0
2, 46880, Note_on_c, 0, 76, 58
2, 47040, Note_on_c, 0, 76, 0
2, 47040, Note_on_c, 0, 74, 64
2, 47200, Note_on_c, 0, 74, 0
2, 47200, Note_on_c, 0, 73, 61
2, 47360, Note_on_c, 0, 73, 0
2, 47360, Note_on_c, 0, 72, 59
2, 47520, Note_on_c, 0, 72, 0
2, 47520, Note_on_c, 0, 73, 62
2, 47840, Note_on_c, 0, 73, 0
2, 47840, Note_on_c, 0, 69, 55
2, 48000, Note_on_c, 0, 69, 0
2, 48160, Note_on_c, 0, 81, 55
2, 48320, Note_on_c, 0, 81, 0
2, 48320, Note_on_c, 0, 80, 53
2, 48480, Note_on_c, 0, 80, 0
2, 48480, Note_on_c, 0, 82, 58
2, 48800, Note_on_c, 0, 82, 0
2, 48800, Note_on_c, 0, 81, 54
2, 48960, Note_on_c, 0, 81, 0
2, 48960, Note_on_c, 0, 81, 56
2, 49120, Note_on_c, 0, 81, 0
2, 49120, Note_on_c, 0, 79, 52
2, 49280, Note_on_c, 0, 79, 0
2, 49280, Note_on_c, 0, 78, 50
2, 49440, Note_on_c, 0, 78, 0
2, 49440, Note_on_c, 0, 81, 59
2, 49760, Note_on_c, 0, 81, 0
2, 49760, Note_on_c, 0, 79, 53
2, 49860, Note_on_c, 0, 79, 0
2, 50080, Note_on_c, 0, 79, 55
2, 50240, Note_on_c, 0, 79, 0
2, 50240, Note_on_c, 0, 78, 53
2, 50400, Note_on_c, 0, 78, 0
2, 50400, Note_on_c, 0, 81, 58
2, 50720, Note_on_c, 0, 81, 0
2, 50720, Note_on_c, 0, 79, 53
2, 50880, Note_on_c, 0, 79, 0
2, 50880, Note_on_c, 0, 79, 57
2, 51040, Note_on_c, 0, 79, 0
2, 51040, Note_on_c, 0, 77, 56
2, 51200, Note_on_c, 0, 77, 0
2, 51200, Note_on_c, 0, 76, 54
2, 51360, Note_on_c, 0, 76, 0
2, 51360, Note_on_c, 0, 79, 58
2, 51680, Note_on_c, 0, 79, 0
2, 51680, Note_on_c, 0, 77, 52
2, 51780, Note_on_c, 0, 77, 0
2, 52000, Note_on_c, 0, 77, 55
2, 52160, Note_on_c, 0, 77, 0
2, 52160, Note_on_c, 0, 76, 56
2, 52320, Note_on_c, 0, 76, 0
2, 52320, Note_on_c, 0, 79, 59
2, 52640, Note_on_c, 0, 79, 0
2, 52640, Note_on_c, 0, 77, 56
2, 52800, Note_on_c, 0, 77, 0
2, 52800, Note_on_c, 0, 77, 58
2, 52960, Note_on_c, 0, 77, 0
2, 52960, Note_on_c, 0, 76, 56
2, 53120, Note_on_c, 0, 76, 0
2, 53120, Note_on_c, 0, 74, 54
2, 53280, Note_on_c, 0, 74, 0
2, 53280, Note_on_c, 0, 77, 58
2, 53440, Note_on_c, 0, 77, 0
2, 53440, Note_on_c, 0, 76, 56
2, 53600, Note_on_c, 0, 76, 0
2, 53600, Note_on_c, 0, 74, 55
2, 53760, Note_on_c, 0, 74, 0
2, 53920, Note_on_c, 0, 67, 55
2, 54080, Note_on_c, 0, 67, 0
2, 54080, Note_on_c, 0, 69, 56
2, 54240, Note_on_c, 0, 69, 0
2, 54240, Note_on_c, 0, 70, 59
2, 54400, Note_on_c, 0, 70, 0
2, 54400, Note_on_c, 0, 77, 56
2, 54560, Note_on_c, 0, 77, 0
2, 54560, Note_on_c, 0, 76, 52
2, 54720, Note_on_c, 0, 76, 0
2, 54720, Note_on_c, 0, 74, 57
2, 54880, Note_on_c, 0, 74, 0
2, 54880, Note_on_c, 0, 73, 55
2, 55040, Note_on_c, 0, 73, 0
2, 55040, Note_on_c, 0, 72, 53
2, 55200, Note_on_c, 0, 72, 0
2, 55200, Note_on_c, 0, 73, 56
2, 55520, Note_on_c, 0, 73, 0
2, 55520, Note_on_c, 0, 69, 49
2, 55680, Note_on_c, 0, 69, 0
2, 55680, Note_on_c, 0, 62, 49
2, 55840, Note_on_c, 0, 67, 51
2, 56000, Note_on_c, 0, 67, 0
2, 56000, Note_on_c, 0, 66, 51
2, 56160, Note_on_c, 0, 66, 0
2, 56160, Note_on_c, 0, 69, 54
2, 56480, Note_on_c, 0, 69, 0
2, 56480, Note_on_c, 0, 67, 52
2, 56640, Note_on_c, 0, 67, 0
2, 56640, Note_on_c, 0, 62, 0
2, 56640, Note_on_c, 0, 61, 41
2, 56640, Note_on_c, 0, 67, 49
2, 56880, Note_on_c, 0, 67, 0
2, 56880, Note_on_c, 0, 61, 0
2, 57600, Note_on_c, 0, 62, 49
2, 57760, Note_on_c, 0, 67, 51
2, 57920, Note_on_c, 0, 67, 0
2, 57920, Note_on_c, 0, 66, 51
2, 58080, Note_on_c, 0, 66, 0
2, 58080, Note_on_c, 0, 69, 54
2, 58400, Note_on_c, 0, 69, 0
2, 58400, Note_on_c, 0, 67, 52
2, 58560, Note_on_c, 0, 67, 0
2, 58560, Note_on_c, 0, 62, 0
2, 58560, Note_on_c, 0, 61, 41
2, 58560, Note_on_c, 0, 67, 49
2, 58800, Note_on_c, 0, 67, 0
2, 58800, Note_on_c, 0, 61, 0
2, 63360, Note_on_c, 0, 65, 44
2, 63360, Note_on_c, 0, 69, 49
2, 63840, Note_on_c, 0, 77, 53
2, 64320, Note_on_c, 0, 69, 0
2, 64320, Note_on_c, 0, 65, 0
2, 64320, Note_on_c, 0, 69, 49
2, 64320, Note_on_c, 0, 67, 44
2, 64800, Note_on_c, 0, 77, 0
2, 64800, Note_on_c, 0, 76, 54
2, 65280, Note_on_c, 0, 67, 0
2, 65280, Note_on_c, 0, 69, 0
2, 65280, Note_on_c, 0, 65, 36
2, 65280, Note_on_c, 0, 69, 42
2, 65520, Note_on_c, 0, 76, 0
2, 65520, Note_on_c, 0, 74, 52
2, 65760, Note_on_c, 0, 74, 0
2, 65760, Note_on_c, 0, 69, 0
2, 65760, Note_on_c, 0, 65, 0
2, 65760, Note_on_c, 0, 68, 55
2, 66000, Note_on_c, 0, 68, 0
2, 66000, Note_on_c, 0, 69, 52
2, 66240, Note_on_c, 0, 69, 0
2, 66240, Note_on_c, 0, 62, 42
2, 66240, Note_on_c, 0, 69, 42
2, 66240, Note_on_c, 0, 74, 52
2, 66960, Note_on_c, 0, 74, 0
2, 66960, Note_on_c, 0, 72, 50
2, 67200, Note_on_c, 0, 72, 0
2, 67200, Note_on_c, 0, 69, 0
2, 67200, Note_on_c, 0, 67, 47
2, 67200, Note_on_c, 0, 70, 52
2, 67680, Note_on_c, 0, 70, 0
2, 67680, Note_on_c, 0, 67, 0
2, 67680, Note_on_c, 0, 62, 0
2, 67680, Note_on_c, 0, 70, 59
2, 68160, Note_on_c, 0, 62, 49
2, 68160, Note_on_c, 0, 60, 44
2, 68640, Note_on_c, 0, 70, 0
2, 68640, Note_on_c, 0, 66, 57
2, 69120, Note_on_c, 0, 60, 0
2, 69120, Note_on_c, 0, 62, 0
2, 69120, Note_on_c, 0, 58, 36
2, 69120, Note_on_c, 0, 62, 36
2, 69360, Note_on_c, 0, 66, 0
2, 69360, Note_on_c, 0, 67, 57
2, 69600, Note_on_c, 0, 67, 0
2, 69600, Note_on_c, 0, 62, 0
2, 69600, Note_on_c, 0, 58, 0
2, 69600, Note_on_c, 0, 64, 36
2, 69600, Note_on_c, 0, 67, 36
2, 69600, Note_on_c, 0, 76, 62
2, 69840, Note_on_c, 0, 76, 0
2, 69840, Note_on_c, 0, 74, 58
2, 70080, Note_on_c, 0, 74, 0
2, 70080, Note_on_c, 0, 67, 0
2, 70080, Note_on_c, 0, 64, 0
2, 70080, Note_on_c, 0, 64, 36
2, 70080, Note_on_c, 0, 67, 36
2, 70080, Note_on_c, 0, 74, 59
2, 70560, Note_on_c, 0, 74, 0
2, 70560, Note_on_c, 0, 73, 56
2, 71040, Note_on_c, 0, 73, 0
2, 71040, Note_on_c, 0, 67, 0
2, 71040, Note_on_c, 0, 64, 0
2, 71200, Note_on_c, 0, 69, 58
2, 71360, Note_on_c, 0, 69, 0
2, 71360, Note_on_c, 0, 71, 55
2, 71520, Note_on_c, 0, 71, 0
2, 71520, Note_on_c, 0, 73, 61
2, 71680, Note_on_c, 0, 73, 0
2, 71680, Note_on_c, 0, 74, 63
2, 71840, Note_on_c, 0, 74, 0
2, 71840, Note_on_c, 0, 76, 67
2, 72000, Note_on_c, 0, 76, 0
2, 72000, Note_on_c, 0, 81, 68
2, 73120, Note_on_c, 0, 81, 0
2, 73120, Note_on_c, 0, 69, 61
2, 73280, Note_on_c, 0, 69, 0
2, 73280, Note_on_c, 0, 71, 58
2, 73440, Note_on_c, 0, 71, 0
2, 73440, Note_on_c, 0, 73, 61
2, 73600, Note_on_c, 0, 73, 0
2, 73600, Note_on_c, 0, 74, 62
2, 73760, Note_on_c, 0, 74, 0
2, 73760, Note_on_c, 0, 76, 65
2, 73920, Note_on_c, 0, 76, 0
2, 73920, Note_on_c, 0, 81, 68
2, 74640, Note_on_c, 0, 81, 0
2, 74640, Note_on_c, 0, 74, 68
2, 74880, Note_on_c, 0, 74, 0
2, 74880, Note_on_c, 0, 79, 70
2, 75040, Note_on_c, 0, 79, 0
2, 75040, Note_on_c, 0, 77, 67
2, 75200, Note_on_c, 0, 77, 0
2, 75200, Note_on_c, 0, 76, 66
2, 75300, Note_on_c, 0, 76, 0
2, 75300, Note_on_c, 0, 74, 62
2, 75330, Note_on_c, 0, 74, 0
2, 75330, Note_on_c, 0, 76, 62
2, 75360, Note_on_c, 0, 76, 0
2, 75360, Note_on_c, 0, 74, 69
2, 75520, Note_on_c, 0, 74, 0
2, 75520, Note_on_c, 0, 73, 64
2, 75680, Note_on_c, 0, 73, 0
2, 75680, Note_on_c, 0, 74, 64
2, 75840, Note_on_c, 0, 74, 0
2, 75840, Note_on_c, 0, 77, 69
2, 76480, Note_on_c, 0, 77, 0
2, 76480, Note_on_c, 0, 76, 63
2, 76640, Note_on_c, 0, 76, 0
2, 76640, Note_on_c, 0, 74, 57
2, 76960, Note_on_c, 0, 74, 0
2, 76960, Note_on_c, 0, 73, 68
2, 77120, Note_on_c, 0, 73, 0
2, 77120, Note_on_c, 0, 72, 58
2, 77440, Note_on_c, 0, 72, 0
2, 77440, Note_on_c, 0, 71, 66
2, 77600, Note_on_c, 0, 71, 0
2, 77600, Note_on_c, 0, 70, 57
2, 77920, Note_on_c, 0, 70, 0
2, 77920, Note_on_c, 0, 69, 63
2, 78080, Note_on_c, 0, 69, 0
2, 78080, Note_on_c, 0, 65, 55
2, 78500, Note_on_c, 0, 65, 0
2, 78500, Note_on_c, 0, 64, 50
2, 78530, Note_on_c, 0, 64, 0
2, 78530, Note_on_c, 0, 65, 50
2, 78560, Note_on_c, 0, 65, 0
2, 78560, Note_on_c, 0, 64, 56
2, 78720, Note_on_c, 0, 64, 0
2, 78720, Note_on_c, 0, 62, 54
2, 78960, Note_on_c, 0, 62, 0
2, 79440, Note_on_c, 0, 69, 49
2, 79920, Note_on_c, 0, 69, 0
2, 79920, Note_on_c, 0, 71, 53
2, 80400, Note_on_c, 0, 71, 0
2, 80400, Note_on_c, 0, 73, 57
2, 80880, Note_on_c, 0, 73, 0
2, 80880, Note_on_c, 0, 74, 49
2, 81360, Note_on_c, 0, 74, 0
2, 81360, Note_on_c, 0, 73, 54
2, 81840, Note_on_c, 0, 73, 0
2, 81840, Note_on_c, 0, 72, 53
2, 82080, Note_on_c, 0, 72, 0
2, 82080, Note_on_c, 0, 70, 52
2, 82320, Note_on_c, 0, 70, 0
2, 82320, Note_on_c, 0, 69, 51
2, 82560, Note_on_c, 0, 69, 0
2, 82560, Note_on_c, 0, 67, 57
2, 82800, Note_on_c, 0, 67, 0
2, 82800, Note_on_c, 0, 62, 53
2, 83280, Note_on_c, 0, 62, 0
2, 83280, Note_on_c, 0, 74, 67
2, 83760, Note_on_c, 0, 74, 0
2, 83760, Note_on_c, 0, 70, 63
2, 84240, Note_on_c, 0, 70, 0
2, 84240, Note_on_c, 0, 69, 57
2, 84720, Note_on_c, 0, 69, 0
2, 84720, Note_on_c, 0, 67, 57
2, 85200, Note_on_c, 0, 67, 0
2, 85200, Note_on_c, 0, 68, 56
2, 85680, Note_on_c, 0, 68, 0
2, 85680, Note_on_c, 0, 69, 55
2, 86160, Note_on_c, 0, 69, 0
2, 86160, Note_on_c, 0, 64, 53
2, 86400, Note_on_c, 0, 64, 0
2, 86560, Note_on_c, 0, 72, 69
2, 86720, Note_on_c, 0, 72, 0
2, 86720, Note_on_c, 0, 74, 70
2, 86880, Note_on_c, 0, 74, 0
2, 86880, Note_on_c, 0, 76, 73
2, 87040, Note_on_c, 0, 76, 0
2, 87040, Note_on_c, 0, 77, 70
2, 87200, Note_on_c, 0, 77, 0
2, 87200, Note_on_c, 0, 79, 67
2, 87360, Note_on_c, 0, 79, 0
2, 87360, Note_on_c, 0, 72, 74
2, 88320, Note_on_c, 0, 72, 0
2, 88480, Note_on_c, 0, 69, 71
2, 88640, Note_on_c, 0, 69, 0
2, 88640, Note_on_c, 0, 71, 71
2, 88800, Note_on_c, 0, 71, 0
2, 88800, Note_on_c, 0, 73, 73
2, 88960, Note_on_c, 0, 73, 0
2, 88960, Note_on_c, 0, 74, 70
2, 89120, Note_on_c, 0, 74, 0
2, 89120, Note_on_c, 0, 76, 67
2, 89280, Note_on_c, 0, 76, 0
2, 89280, Note_on_c, 0, 69, 74
2, 90240, Note_on_c, 0, 69, 0
2, 90400, Note_on_c, 0, 64, 71
2, 90500, Note_on_c, 0, 64, 0
2, 90560, Note_on_c, 0, 65, 70
2, 90660, Note_on_c, 0, 65, 0
2, 90720, Note_on_c, 0, 67, 71
2, 90820, Note_on_c, 0, 67, 0
2, 90880, Note_on_c, 0, 69, 70
2, 90980, Note_on_c, 0, 69, 0
2, 91040, Note_on_c, 0, 70, 71
2, 91360, Note_on_c, 0, 70, 0
2, 91360, Note_on_c, 0, 70, 71
2, 91520, Note_on_c, 0, 70, 0
2, 91520, Note_on_c, 0, 69, 67
2, 91840, Note_on_c, 0, 69, 0
2, 91840, Note_on_c, 0, 68, 69
2, 92000, Note_on_c, 0, 68, 0
2, 92000, Note_on_c, 0, 67, 66
2, 92320, Note_on_c, 0, 67, 0
2, 92320, Note_on_c, 0, 66, 68
2, 92480, Note_on_c, 0, 66, 0
2, 92480, Note_on_c, 0, 65, 62
2, 92800, Note_on_c, 0, 65, 0
2, 92800, Note_on_c, 0, 63, 66
2, 92960, Note_on_c, 0, 63, 0
2, 92960, Note_on_c, 0, 64, 61
2, 93120, Note_on_c, 0, 53, 38
2, 93120, Note_on_c, 0, 57, 38
2, 93440, Note_on_c, 0, 64, 0
2, 93440, Note_on_c, 0, 61, 51
2, 93600, Note_on_c, 0, 61, 0
2, 93600, Note_on_c, 0, 61, 50
2, 93920, Note_on_c, 0, 61, 0
2, 93920, Note_on_c, 0, 62, 45
2, 94078, Note_on_c, 0, 62, 0
2, 94080, Note_on_c, 0, 57, 0
2, 94080, Note_on_c, 0, 53, 0
2, 94240, Note_on_c, 0, 64, 45
2, 94400, Note_on_c, 0, 64, 0
2, 94400, Note_on_c, 0, 63, 46
2, 94560, Note_on_c, 0, 63, 0
2, 94560, Note_on_c, 0, 64, 45
2, 94720, Note_on_c, 0, 64, 0
2, 94720, Note_on_c, 0, 65, 43
2, 94880, Note_on_c, 0, 65, 0
2, 94880, Note_on_c, 0, 64, 43
2, 95040, Note_on_c, 0, 53, 28
2, 95040, Note_on_c, 0, 57, 28
2, 95360, Note_on_c, 0, 64, 0
2, 95360, Note_on_c, 0, 61, 40
2, 95520, Note_on_c, 0, 61, 0
2, 95520, Note_on_c, 0, 61, 45
2, 95840, Note_on_c, 0, 61, 0
2, 95840, Note_on_c, 0, 62, 42
2, 95998, Note_on_c, 0, 62, 0
2, 96000, Note_on_c, 0, 57, 0
2, 96000, Note_on_c, 0, 53, 0
2, 96160, Note_on_c, 0, 67, 45
2, 96320, Note_on_c, 0, 67, 0
2, 96320, Note_on_c, 0, 69, 46
2, 96480, Note_on_c, 0, 69, 0
2, 96480, Note_on_c, 0, 70, 47
2, 96960, Note_on_c, 0, 57, 28
2, 96960, Note_on_c, 0, 62, 28
2, 97120, Note_on_c, 0, 70, 0
2, 97120, Note_on_c, 0, 65, 46
2, 97280, Note_on_c, 0, 65, 0
2, 97280, Note_on_c, 0, 67, 45
2, 97440, Note_on_c, 0, 67, 0
2, 97440, Note_on_c, 0, 69, 49
2, 97920, Note_on_c, 0, 69, 0
2, 97920, Note_on_c, 0, 62, 0
2, 97920, Note_on_c, 0, 57, 0
2, 98080, Note_on_c, 0, 64, 45
2, 98240, Note_on_c, 0, 64, 0
2, 98240, Note_on_c, 0, 63, 46
2, 98400, Note_on_c, 0, 63, 0
2, 98400, Note_on_c, 0, 64, 45
2, 98560, Note_on_c, 0, 64, 0
2, 98560, Note_on_c, 0, 65, 43
2, 98720, Note_on_c, 0, 65, 0
2, 98720, Note_on_c, 0, 64, 43
2, 98880, Note_on_c, 0, 53, 28
2, 98880, Note_on_c, 0, 57, 28
2, 99200, Note_on_c, 0, 64, 0
2, 99200, Note_on_c, 0, 61, 40
2, 99360, Note_on_c, 0, 61, 0
2, 99360, Note_on_c, 0, 61, 45
2, 99680, Note_on_c, 0, 61, 0
2, 99680, Note_on_c, 0, 62, 42
2, 99838, Note_on_c, 0, 62, 0
2, 99840, Note_on_c, 0, 57, 0
2, 99840, Note_on_c, 0, 53, 0
2, 100000, Note_on_c, 0, 55, 40
2, 100160, Note_on_c, 0, 57, 41
2, 100180, Note_on_c, 0, 55, 0
2, 100320, Note_on_c, 0, 58, 42
2, 100340, Note_on_c, 0, 57, 0
2, 100960, Note_on_c, 0, 58, 0
2, 100960, Note_on_c, 0, 53, 41
2, 101120, Note_on_c, 0, 55, 40
2, 101140, Note_on_c, 0, 53, 0
2, 101280, Note_on_c, 0, 57, 44
2, 101300, Note_on_c, 0, 55, 0
2, 101760, Note_on_c, 0, 57, 0
2, 101920, Note_on_c, 0, 55, 40
2, 102080, Note_on_c, 0, 57, 41
2, 102100, Note_on_c, 0, 55, 0
2, 102240, Note_on_c, 0, 58, 42
2, 102260, Note_on_c, 0, 57, 0
2, 102880, Note_on_c, 0, 58, 0
2, 102880, Note_on_c, 0, 53, 41
2, 103040, Note_on_c, 0, 55, 40
2, 103060, Note_on_c, 0, 53, 0
2, 103200, Note_on_c, 0, 57, 44
2, 103220, Note_on_c, 0, 55, 0
2, 104000, Note_on_c, 0, 57, 0
2, 104000, Note_on_c, 0, 58, 36
2, 104160, Note_on_c, 0, 58, 0
2, 104160, Note_on_c, 0, 58, 39
2, 104480, Note_on_c, 0, 57, 36
2, 104500, Note_on_c, 0, 58, 0
2, 104640, Note_on_c, 0, 57, 0
2, 104640, Note_on_c, 0, 58, 39
2, 104960, Note_on_c, 0, 57, 34
2, 104980, Note_on_c, 0, 58, 0
2, 105120, Note_on_c, 0, 57, 0
2, 105120, Note_on_c, 0, 58, 36
2, 105440, Note_on_c, 0, 57, 30
2, 105460, Note_on_c, 0, 58, 0
2, 105600, Note_on_c, 0, 57, 0
2, 105600, Note_on_c, 0, 60, 35
2, 106400, Note_on_c, 0, 60, 0
2, 106400, Note_on_c, 0, 58, 23
2, 106560, Note_on_c, 0, 57, 22
2, 106600, Note_on_c, 0, 58, 0
2, 107520, Note_on_c, 0, 57, 0
2, 107520, End_track
3, 0, Start_track
3, 0, Title_t, "Piano left"
3, 0, Program_c, 0, 0
3, 0, Control_c, 0, 7, 100
3, 0, Control_c, 0, 10, 64
3, 0, Control_c, 0, 64, 127
3, 0, Note_on_c, 0, 50, 35
3, 0, Note_on_c, 0, 62, 39
3, 0, Note_on_c, 0, 57, 35
3, 960, Note_on_c, 0, 57, 0
3, 960, Note_on_c, 0, 62, 0
3, 960, Note_on_c, 0, 50, 0
3, 960, Note_on_c, 0, 50, 27
3, 960, Note_on_c, 0, 57, 31
3, 960, Note_on_c, 0, 61, 31
3, 976, Control_c, 0, 64, 0
3, 1253, Control_c, 0, 64, 127
3, 1920, Note_on_c, 0, 61, 0
3, 1920, Note_on_c, 0, 57, 0
3, 1920, Note_on_c, 0, 50, 0
3, 1920, Note_on_c, 0, 50, 33
3, 1920, Note_on_c, 0, 62, 36
3, 1920, Note_on_c, 0, 57, 33
3, 1929, Control_c, 0, 64, 0
3, 2011, Control_c, 0, 64, 127
3, 2400, Note_on_c, 0, 57, 0
3, 2400, Note_on_c, 0, 62, 0
3, 2400, Note_on_c, 0, 50, 0
3, 2880, Note_on_c, 0, 57, 36
3, 2880, Note_on_c, 0, 53, 40
3, 2893, Control_c, 0, 64, 0
3, 3040, Control_c, 0, 64, 127
3, 3360, Note_on_c, 0, 53, 0
3, 3360, Note_on_c, 0, 54, 38
3, 3840, Note_on_c, 0, 54, 0
3, 3840, Note_on_c, 0, 57, 0
3, 3840, Note_on_c, 0, 55, 41
3, 3848, Control_c, 0, 64, 0
3, 4023, Control_c, 0, 64, 127
3, 4320, Note_on_c, 0, 55, 0
3, 4800, Note_on_c, 0, 45, 27
3, 4800, Note_on_c, 0, 50, 31
3, 4807, Control_c, 0, 64, 0
3, 5051, Control_c, 0, 64, 127
3, 5760, Note_on_c, 0, 50, 0
3, 5760, Note_on_c, 0, 45, 0
3, 5760, Note_on_c, 0, 50, 42
3, 5760, Note_on_c, 0, 46, 36
3, 5776, Control_c, 0, 64, 0
3, 5897, Control_c, 0, 64, 127
3, 6240, Note_on_c, 0, 58, 34
3, 6720, Note_on_c, 0, 58, 0
3, 6720, Note_on_c, 0, 46, 0
3, 6720, Note_on_c, 0, 50, 0
3, 6720, Note_on_c, 0, 45, 32
3, 6720, Note_on_c, 0, 57, 36
3, 6720, Note_on_c, 0, 52, 32
3, 6731, Control_c, 0, 64, 0
3, 6926, Control_c, 0, 64, 127
3, 7680, Note_on_c, 0, 52, 0
3, 7680, Note_on_c, 0, 57, 0
3, 7680, Note_on_c, 0, 45, 0
3, 7680, Control_c, 0, 64, 0
3, 7680, Note_on_c, 0, 55, 48
3, 7971, Control_c, 0, 64, 127
3, 8160, Note_on_c, 0, 61, 37
3, 8160, Note_on_c, 0, 57, 37
3, 8160, Note_on_c, 0, 64, 41
3, 8640, Note_on_c, 0, 64, 0
3, 8640, Note_on_c, 0, 55, 0
3, 8640, Note_on_c, 0, 61, 0
3, 8640, Note_on_c, 0, 57, 0
3, 8640, Note_on_c, 0, 53, 40
3, 8651, Control_c, 0, 64, 0
3, 8766, Control_c, 0, 64, 127
3, 9120, Note_on_c, 0, 65, 36
3, 9120, Note_on_c, 0, 57, 33
3, 9120, Note_on_c, 0, 62, 36
3, 9600, Note_on_c, 0, 62, 0
3, 9600, Note_on_c, 0, 53, 0
3, 9600, Note_on_c, 0, 65, 0
3, 9600, Note_on_c, 0, 57, 0
3, 9600, Note_on_c, 0, 52, 49
3, 9607, Control_c, 0, 64, 0
3, 9697, Control_c, 0, 64, 127
3, 10080, Note_on_c, 0, 67, 47
3, 10080, Note_on_c, 0, 57, 41
3, 10080, Note_on_c, 0, 61, 41
3, 10560, Note_on_c, 0, 61, 0
3, 10560, Note_on_c, 0, 52, 0
3, 10560, Note_on_c, 0, 67, 0
3, 10560, Note_on_c, 0, 57, 0
3, 10560, Note_on_c, 0, 50, 50
3, 10571, Control_c, 0, 64, 0
3, 10737, Control_c, 0, 64, 127
3, 11040, Note_on_c, 0, 60, 37
3, 11040, Note_on_c, 0, 57, 37
3, 11040, Note_on_c, 0, 66, 41
3, 11520, Note_on_c, 0, 66, 0
3, 11520, Note_on_c, 0, 50, 0
3, 11520, Note_on_c, 0, 60, 0
3, 11520, Note_on_c, 0, 57, 0
3, 11520, Note_on_c, 0, 43, 50
3, 11529, Control_c, 0, 64, 0
3, 11571, Control_c, 0, 64, 127
3, 12000, Note_on_c, 0, 43, 0
3, 12000, Note_on_c, 0, 67, 41
3, 12000, Note_on_c, 0, 58, 37
3, 12000, Note_on_c, 0, 55, 37
3, 12000, Note_on_c, 0, 62, 37
3, 12480, Note_on_c, 0, 62, 0
3, 12480, Note_on_c, 0, 67, 0
3, 12480, Note_on_c, 0, 58, 0
3, 12480, Note_on_c, 0, 55, 0
3, 12480, Note_on_c, 0, 44, 48
3, 12491, Control_c, 0, 64, 0
3, 12635, Control_c, 0, 64, 127
3, 12960, Note_on_c, 0, 44, 0
3, 12960, Note_on_c, 0, 62, 36
3, 12960, Note_on_c, 0, 59, 36
3, 12960, Note_on_c, 0, 56, 36
3, 12960, Note_on_c, 0, 65, 40
3, 13440, Note_on_c, 0, 65, 0
3, 13440, Note_on_c, 0, 62, 0
3, 13440, Note_on_c, 0, 59, 0
3, 13440, Note_on_c, 0, 56, 0
3, 13440, Note_on_c, 0, 45, 49
3, 13450, Control_c, 0, 64, 0
3, 13506, Control_c, 0, 64, 127
3, 13920, Note_on_c, 0, 45, 0
3, 13920, Note_on_c, 0, 65, 45
3, 13920, Note_on_c, 0, 62, 39
3, 13920, Note_on_c, 0, 57, 39
3, 13931, Control_c, 0, 64, 0
3, 14005, Control_c, 0, 64, 127
3, 14400, Note_on_c, 0, 57, 0
3, 14400, Note_on_c, 0, 62, 0
3, 14400, Note_on_c, 0, 65, 0
3, 14400, Note_on_c, 0, 45, 48
3, 14416, Control_c, 0, 64, 0
3, 14479, Control_c, 0, 64, 127
3, 14880, Note_on_c, 0, 45, 0
3, 14880, Note_on_c, 0, 61, 41
3, 14880, Note_on_c, 0, 57, 37
3, 14880, Note_on_c, 0, 55, 37
3, 14888, Control_c, 0, 64, 0
3, 14937, Control_c, 0, 64, 127
3, 15360, Note_on_c, 0, 55, 0
3, 15360, Note_on_c, 0, 57, 0
3, 15360, Note_on_c, 0, 61, 0
3, 15360, Note_on_c, 0, 53, 42
3, 15360, Note_on_c, 0, 57, 50
3, 15360, Note_on_c, 0, 50, 40
3, 15365, Control_c, 0, 64, 0
3, 15566, Control_c, 0, 64, 127
3, 15840, Note_on_c, 0, 65, 60
3, 16320, Note_on_c, 0, 50, 0
3, 16320, Note_on_c, 0, 53, 0
3, 16320, Note_on_c, 0, 57, 0
3, 16320, Note_on_c, 0, 55, 49
3, 16320, Note_on_c, 0, 57, 55
3, 16330, Control_c, 0, 64, 0
3, 16537, Control_c, 0, 64, 127
3, 16800, Note_on_c, 0, 65, 0
3, 16800, Note_on_c, 0, 64, 62
3, 17280, Note_on_c, 0, 57, 0
3, 17280, Note_on_c, 0, 55, 0
3, 17280, Note_on_c, 0, 53, 41
3, 17280, Note_on_c, 0, 57, 47
3, 17290, Control_c, 0, 64, 0
3, 17361, Control_c, 0, 64, 127
3, 17520, Note_on_c, 0, 64, 0
3, 17520, Note_on_c, 0, 62, 58
3, 17760, Note_on_c, 0, 62, 0
3, 17760, Note_on_c, 0, 57, 0
3, 17760, Note_on_c, 0, 53, 0
3, 17760, Note_on_c, 0, 56, 61
3, 17767, Control_c, 0, 64, 0
3, 18000, Note_on_c, 0, 57, 57
3, 18010, Note_on_c, 0, 56, 0
3, 18240, Note_on_c, 0, 62, 62
3, 18240, Note_on_c, 0, 54, 47
3, 18249, Control_c, 0, 64, 0
3, 18339, Control_c, 0, 64, 127
3, 18960, Note_on_c, 0, 62, 0
3, 18960, Note_on_c, 0, 60, 55
3, 19140, Note_on_c, 0, 60, 0
3, 19140, Note_on_c, 0, 54, 0
3, 19140, Note_on_c, 0, 57, 0
3, 19140, Note_on_c, 0, 43, 47
3, 19170, Note_on_c, 0, 50, 47
3, 19200, Note_on_c, 0, 58, 57
3, 19208, Control_c, 0, 64, 0
3, 19256, Control_c, 0, 64, 127
3, 19440, Note_on_c, 0, 58, 0
3, 19680, Note_on_c, 0, 50, 0
3, 19680, Note_on_c, 0, 43, 0
3, 19680, Note_on_c, 0, 58, 64
3, 20160, Note_on_c, 0, 48, 49
3, 20160, Note_on_c, 0, 50, 55
3, 20167, Control_c, 0, 64, 0
3, 20245, Control_c, 0, 64, 127
3, 20640, Note_on_c, 0, 58, 0
3, 20640, Note_on_c, 0, 54, 53
3, 21120, Note_on_c, 0, 50, 0
3, 21120, Note_on_c, 0, 48, 0
3, 21120, Note_on_c, 0, 46, 51
3, 21120, Note_on_c, 0, 50, 51
3, 21129, Control_c, 0, 64, 0
3, 21208, Control_c, 0, 64, 127
3, 21360, Note_on_c, 0, 54, 0
3, 21360, Note_on_c, 0, 55, 62
3, 21600, Note_on_c, 0, 55, 0
3, 21600, Note_on_c, 0, 50, 0
3, 21600, Note_on_c, 0, 46, 0
3, 21600, Note_on_c, 0, 64, 63
3, 21840, Note_on_c, 0, 64, 0
3, 21840, Note_on_c, 0, 62, 60
3, 22020, Note_on_c, 0, 62, 0
3, 22020, Note_on_c, 0, 45, 36
3, 22035, Control_c, 0, 64, 0
3, 22050, Note_on_c, 0, 52, 36
3, 22080, Note_on_c, 0, 62, 62
3, 22129, Control_c, 0, 64, 127
3, 22560, Note_on_c, 0, 62, 0
3, 22560, Note_on_c, 0, 52, 0
3, 22560, Note_on_c, 0, 45, 0
3, 22560, Note_on_c, 0, 61, 57
3, 23040, Note_on_c, 0, 61, 0
3, 23040, Note_on_c, 0, 58, 50
3, 23040, Note_on_c, 0, 60, 57
3, 23046, Control_c, 0, 64, 0
3, 23331, Control_c, 0, 64, 127
3, 23520, Note_on_c, 0, 67, 59
3, 24000, Note_on_c, 0, 60, 0
3, 24000, Note_on_c, 0, 58, 0
3, 24000, Note_on_c, 0, 60, 44
3, 24000, Note_on_c, 0, 57, 44
3, 24007, Control_c, 0, 64, 0
3, 24064, Control_c, 0, 64, 127
3, 24160, Note_on_c, 0, 67, 0
3, 24160, Note_on_c, 0, 65, 57
3, 24320, Note_on_c, 0, 65, 0
3, 24320, Note_on_c, 0, 64, 57
3, 24480, Note_on_c, 0, 64, 0
3, 24480, Note_on_c, 0, 67, 61
3, 24488, Control_c, 0, 64, 0
3, 24544, Control_c, 0, 64, 127
3, 24800, Note_on_c, 0, 67, 0
3, 24800, Note_on_c, 0, 65, 59
3, 24960, Note_on_c, 0, 65, 0
3, 24960, Note_on_c, 0, 57, 0
3, 24960, Note_on_c, 0, 60, 0
3, 24960, Control_c, 0, 64, 0
3, 24960, Note_on_c, 0, 65, 61
3, 24960, Note_on_c, 0, 55, 52
3, 24960, Note_on_c, 0, 57, 59
3, 25251, Control_c, 0, 64, 127
3, 25440, Note_on_c, 0, 65, 0
3, 25440, Note_on_c, 0, 64, 57
3, 25920, Note_on_c, 0, 57, 0
3, 25920, Note_on_c, 0, 55, 0
3, 25920, Note_on_c, 0, 57, 47
3, 25920, Note_on_c, 0, 53, 47
3, 25924, Control_c, 0, 64, 0
3, 25984, Control_c, 0, 64, 127
3, 26080, Note_on_c, 0, 64, 0
3, 26080, Note_on_c, 0, 62, 57
3, 26240, Note_on_c, 0, 62, 0
3, 26240, Note_on_c, 0, 61, 57
3, 26400, Note_on_c, 0, 61, 0
3, 26400, Note_on_c, 0, 64, 61
3, 26411, Control_c, 0, 64, 0
3, 26478, Control_c, 0, 64, 127
3, 26720, Note_on_c, 0, 64, 0
3, 26720, Note_on_c, 0, 62, 59
3, 26820, Note_on_c, 0, 43, 48
3, 26880, Note_on_c, 0, 43, 0
3, 26880, Note_on_c, 0, 57, 0
3, 26880, Note_on_c, 0, 53, 0
3, 26880, Note_on_c, 0, 62, 0
3, 26880, Note_on_c, 0, 60, 59
3, 26880, Note_on_c, 0, 50, 52
3, 26880, Note_on_c, 0, 55, 52
3, 26885, Control_c, 0, 64, 0
3, 27360, Note_on_c, 0, 60, 0
3, 27360, Note_on_c, 0, 58, 56
3, 27716, Control_c, 0, 64, 127
3, 27840, Note_on_c, 0, 58, 0
3, 27840, Note_on_c, 0, 55, 0
3, 27840, Note_on_c, 0, 50, 0
3, 27840, Note_on_c, 0, 46, 57
3, 28320, Note_on_c, 0, 46, 0
3, 28320, Note_on_c, 0, 62, 46
3, 28320, Note_on_c, 0, 57, 41
3, 28320, Note_on_c, 0, 53, 41
3, 28328, Control_c, 0, 64, 0
3, 28366, Control_c, 0, 64, 127
3, 28800, Note_on_c, 0, 53, 0
3, 28800, Note_on_c, 0, 57, 0
3, 28800, Note_on_c, 0, 62, 0
3, 28800, Note_on_c, 0, 45, 53
3, 28809, Control_c, 0, 64, 0
3, 28881, Control_c, 0, 64, 127
3, 29280, Note_on_c, 0, 45, 0
3, 29280, Note_on_c, 0, 57, 37
3, 29280, Note_on_c, 0, 55, 37
3, 29280, Note_on_c, 0, 61, 40
3, 29287, Control_c, 0, 64, 0
3, 29340, Control_c, 0, 64, 127
3, 29760, Note_on_c, 0, 61, 0
3, 29760, Note_on_c, 0, 55, 0
3, 29760, Note_on_c, 0, 57, 0
3, 29760, Note_on_c, 0, 38, 35
3, 29760, Note_on_c, 0, 45, 35
3, 29766, Control_c, 0, 64, 0
3, 29940, Control_c, 0, 64, 127
3, 30720, Note_on_c, 0, 45, 0
3, 30720, Note_on_c, 0, 38, 0
3, 30720, Control_c, 0, 64, 0
3, 30720, Note_on_c, 0, 46, 48
3, 30801, Control_c, 0, 64, 127
3, 31200, Note_on_c, 0, 46, 0
3, 31200, Note_on_c, 0, 60, 37
3, 31200, Note_on_c, 0, 55, 37
3, 31200, Note_on_c, 0, 64, 41
3, 31213, Control_c, 0, 64, 0
3, 31271, Control_c, 0, 64, 127
3, 31680, Note_on_c, 0, 64, 0
3, 31680, Note_on_c, 0, 55, 0
3, 31680, Note_on_c, 0, 60, 0
3, 31680, Note_on_c, 0, 45, 46
3, 31688, Control_c, 0, 64, 0
3, 31806, Control_c, 0, 64, 127
3, 32160, Note_on_c, 0, 45, 0
3, 32160, Note_on_c, 0, 65, 41
3, 32160, Note_on_c, 0, 60, 37
3, 32160, Note_on_c, 0, 57, 37
3, 32640, Note_on_c, 0, 57, 0
3, 32640, Note_on_c, 0, 60, 0
3, 32640, Note_on_c, 0, 65, 0
3, 32640, Note_on_c, 0, 43, 46
3, 32647, Control_c, 0, 64, 0
3, 32739, Control_c, 0, 64, 127
3, 33120, Note_on_c, 0, 43, 0
3, 33120, Note_on_c, 0, 58, 36
3, 33120, Note_on_c, 0, 60, 36
3, 33120, Note_on_c, 0, 64, 41
3, 33131, Control_c, 0, 64, 0
3, 33191, Control_c, 0, 64, 127
3, 33600, Note_on_c, 0, 64, 0
3, 33600, Note_on_c, 0, 60, 0
3, 33600, Note_on_c, 0, 58, 0
3, 33600, Note_on_c, 0, 41, 46
3, 33612, Control_c, 0, 64, 0
3, 33667, Control_c, 0, 64, 127
3, 34080, Note_on_c, 0, 41, 0
3, 34080, Note_on_c, 0, 65, 41
3, 34080, Note_on_c, 0, 57, 36
3, 34080, Note_on_c, 0, 60, 36
3, 34088, Control_c, 0, 64, 0
3, 34158, Control_c, 0, 64, 127
3, 34560, Note_on_c, 0, 60, 0
3, 34560, Note_on_c, 0, 57, 0
3, 34560, Note_on_c, 0, 65, 0
3, 34560, Note_on_c, 0, 46, 48
3, 34563, Control_c, 0, 64, 0
3, 34641, Control_c, 0, 64, 127
3, 35040, Note_on_c, 0, 46, 0
3, 35040, Note_on_c, 0, 64, 41
3, 35040, Note_on_c, 0, 55, 37
3, 35040, Note_on_c, 0, 60, 37
3, 35053, Control_c, 0, 64, 0
3, 35104, Control_c, 0, 64, 127
3, 35520, Note_on_c, 0, 60, 0
3, 35520, Note_on_c, 0, 55, 0
3, 35520, Note_on_c, 0, 64, 0
3, 35520, Note_on_c, 0, 45, 46
3, 35530, Control_c, 0, 64, 0
3, 35646, Control_c, 0, 64, 127
3, 36000, Note_on_c, 0, 45, 0
3, 36000, Note_on_c, 0, 57, 37
3, 36000, Note_on_c, 0, 60, 37
3, 36000, Note_on_c, 0, 65, 41
3, 36480, Note_on_c, 0, 65, 0
3, 36480, Note_on_c, 0, 60, 0
3, 36480, Note_on_c, 0, 57, 0
3, 36480, Note_on_c, 0, 43, 46
3, 36486, Control_c, 0, 64, 0
3, 36554, Control_c, 0, 64, 127
3, 36960, Note_on_c, 0, 43, 0
3, 36960, Note_on_c, 0, 55, 36
3, 36960, Note_on_c, 0, 57, 36
3, 36971, Control_c, 0, 64, 0
3, 37031, Control_c, 0, 64, 127
3, 37440, Note_on_c, 0, 57, 0
3, 37440, Note_on_c, 0, 55, 0
3, 37440, Note_on_c, 0, 41, 46
3, 37449, Control_c, 0, 64, 0
3, 37507, Control_c, 0, 64, 127
3, 37920, Note_on_c, 0, 41, 0
3, 37920, Note_on_c, 0, 57, 34
3, 37920, Note_on_c, 0, 53, 34
3, 37920, Note_on_c, 0, 62, 38
3, 37930, Control_c, 0, 64, 0
3, 38005, Control_c, 0, 64, 127
3, 38400, Note_on_c, 0, 62, 0
3, 38400, Note_on_c, 0, 53, 0
3, 38400, Note_on_c, 0, 57, 0
3, 38400, Note_on_c, 0, 37, 46
3, 38410, Control_c, 0, 64, 0
3, 38488, Control_c, 0, 64, 127
3, 38880, Note_on_c, 0, 37, 0
3, 38880, Note_on_c, 0, 55, 36
3, 38880, Note_on_c, 0, 64, 36
3, 38880, Note_on_c, 0, 57, 36
3, 38891, Control_c, 0, 64, 0
3, 38951, Control_c, 0, 64, 127
3, 39360, Note_on_c, 0, 57, 0
3, 39360, Note_on_c, 0, 64, 0
3, 39360, Note_on_c, 0, 55, 0
3, 39360, Note_on_c, 0, 46, 46
3, 39371, Control_c, 0, 64, 0
3, 39427, Control_c, 0, 64, 127
3, 39750, Note_on_c, 0, 46, 0
3, 39750, Note_on_c, 0, 45, 26
3, 39765, Note_on_c, 0, 52, 29
3, 39780, Note_on_c, 0, 57, 33
3, 39795, Note_on_c, 0, 64, 41
3, 39822, Control_c, 0, 64, 0
3, 39886, Control_c, 0, 64, 127
3, 40320, Note_on_c, 0, 64, 0
3, 40320, Note_on_c, 0, 45, 0
3, 40320, Note_on_c, 0, 52, 0
3, 40320, Note_on_c, 0, 57, 0
3, 40320, Note_on_c, 0, 42, 51
3, 40323, Control_c, 0, 64, 0
3, 40401, Control_c, 0, 64, 127
3, 40800, Note_on_c, 0, 42, 0
3, 40800, Note_on_c, 0, 62, 46
3, 40800, Note_on_c, 0, 60, 46
3, 40800, Note_on_c, 0, 54, 46
3, 41280, Note_on_c, 0, 54, 0
3, 41280, Note_on_c, 0, 60, 0
3, 41280, Note_on_c, 0, 62, 0
3, 41280, Note_on_c, 0, 43, 49
3, 41292, Control_c, 0, 64, 0
3, 41375, Control_c, 0, 64, 127
3, 41600, Note_on_c, 0, 62, 50
3, 41760, Note_on_c, 0, 62, 0
3, 41760, Note_on_c, 0, 43, 0
3, 41760, Note_on_c, 0, 58, 33
3, 41760, Note_on_c, 0, 65, 54
3, 41760, Note_on_c, 0, 55, 33
3, 41771, Control_c, 0, 64, 0
3, 41831, Control_c, 0, 64, 127
3, 41920, Note_on_c, 0, 65, 0
3, 41920, Note_on_c, 0, 64, 50
3, 42080, Note_on_c, 0, 64, 0
3, 42080, Note_on_c, 0, 62, 46
3, 42180, Note_on_c, 0, 62, 0
3, 42180, Note_on_c, 0, 55, 0
3, 42180, Note_on_c, 0, 58, 0
3, 42180, Note_on_c, 0, 48, 42
3, 42240, Note_on_c, 0, 48, 0
3, 42240, Note_on_c, 0, 55, 45
3, 42240, Note_on_c, 0, 60, 45
3, 42240, Note_on_c, 0, 65, 51
3, 42246, Control_c, 0, 64, 0
3, 42367, Control_c, 0, 64, 127
3, 42720, Note_on_c, 0, 65, 0
3, 42720, Note_on_c, 0, 64, 44
3, 43200, Note_on_c, 0, 64, 0
3, 43200, Note_on_c, 0, 60, 0
3, 43200, Note_on_c, 0, 55, 0
3, 43200, Note_on_c, 0, 41, 49
3, 43207, Control_c, 0, 64, 0
3, 43256, Control_c, 0, 64, 127
3, 43520, Note_on_c, 0, 60, 50
3, 43680, Note_on_c, 0, 60, 0
3, 43680, Note_on_c, 0, 41, 0
3, 43680, Note_on_c, 0, 53, 33
3, 43680, Note_on_c, 0, 57, 33
3, 43680, Note_on_c, 0, 64, 54
3, 43691, Control_c, 0, 64, 0
3, 43754, Control_c, 0, 64, 127
3, 43840, Note_on_c, 0, 64, 0
3, 43840, Note_on_c, 0, 62, 50
3, 44000, Note_on_c, 0, 62, 0
3, 44000, Note_on_c, 0, 61, 46
3, 44100, Note_on_c, 0, 61, 0
3, 44100, Note_on_c, 0, 46, 42
3, 44140, Control_c, 0, 64, 0
3, 44160, Note_on_c, 0, 46, 0
3, 44160, Note_on_c, 0, 57, 0
3, 44160, Note_on_c, 0, 53, 0
3, 44160, Note_on_c, 0, 58, 45
3, 44160, Note_on_c, 0, 64, 51
3, 44160, Note_on_c, 0, 53, 45
3, 44206, Control_c, 0, 64, 127
3, 44640, Note_on_c, 0, 64, 0
3, 44640, Note_on_c, 0, 62, 46
3, 45120, Note_on_c, 0, 62, 0
3, 45120, Note_on_c, 0, 53, 0
3, 45120, Note_on_c, 0, 58, 0
3, 45120, Note_on_c, 0, 43, 49
3, 45129, Control_c, 0, 64, 0
3, 45222, Control_c, 0, 64, 127
3, 45600, Note_on_c, 0, 43, 0
3, 45600, Note_on_c, 0, 62, 44
3, 45600, Note_on_c, 0, 55, 39
3, 45600, Note_on_c, 0, 58, 39
3, 45604, Control_c, 0, 64, 0
3, 45671, Control_c, 0, 64, 127
3, 46080, Note_on_c, 0, 58, 0
3, 46080, Note_on_c, 0, 55, 0
3, 46080, Note_on_c, 0, 62, 0
3, 46080, Note_on_c, 0, 40, 48
3, 46091, Control_c, 0, 64, 0
3, 46179, Control_c, 0, 64, 127
3, 46560, Note_on_c, 0, 40, 0
3, 46560, Note_on_c, 0, 55, 43
3, 46560, Note_on_c, 0, 62, 43
3, 46560, Note_on_c, 0, 52, 43
3, 47040, Note_on_c, 0, 52, 0
3, 47040, Note_on_c, 0, 62, 0
3, 47040, Note_on_c, 0, 55, 0
3, 47040, Note_on_c, 0, 45, 46
3, 47052, Control_c, 0, 64, 0
3, 47096, Control_c, 0, 64, 127
3, 47520, Note_on_c, 0, 45, 0
3, 47520, Note_on_c, 0, 64, 41
3, 47520, Note_on_c, 0, 52, 37
3, 47520, Note_on_c, 0, 57, 37
3, 47530, Control_c, 0, 64, 0
3, 47605, Control_c, 0, 64, 127
3, 48000, Note_on_c, 0, 57, 0
3, 48000, Note_on_c, 0, 52, 0
3, 48000, Note_on_c, 0, 64, 0
3, 48000, Note_on_c, 0, 42, 43
3, 48007, Control_c, 0, 64, 0
3, 48074, Control_c, 0, 64, 127
3, 48480, Note_on_c, 0, 42, 0
3, 48480, Note_on_c, 0, 62, 31
3, 48480, Note_on_c, 0, 60, 31
3, 48480, Note_on_c, 0, 54, 31
3, 48960, Note_on_c, 0, 54, 0
3, 48960, Note_on_c, 0, 60, 0
3, 48960, Note_on_c, 0, 62, 0
3, 48960, Note_on_c, 0, 43, 41
3, 48968, Control_c, 0, 64, 0
3, 49016, Control_c, 0, 64, 127
3, 49280, Note_on_c, 0, 62, 42
3, 49440, Note_on_c, 0, 62, 0
3, 49440, Note_on_c, 0, 43, 0
3, 49440, Note_on_c, 0, 55, 28
3, 49440, Note_on_c, 0, 58, 28
3, 49440, Note_on_c, 0, 65, 45
3, 49451, Control_c, 0, 64, 0
3, 49500, Control_c, 0, 64, 127
3, 49600, Note_on_c, 0, 65, 0
3, 49600, Note_on_c, 0, 64, 42
3, 49760, Note_on_c, 0, 64, 0
3, 49760, Note_on_c, 0, 62, 39
3, 49860, Note_on_c, 0, 62, 0
3, 49860, Note_on_c, 0, 58, 0
3, 49860, Note_on_c, 0, 55, 0
3, 49860, Note_on_c, 0, 48, 35
3, 49905, Control_c, 0, 64, 0
3, 49920, Note_on_c, 0, 48, 0
3, 49920, Note_on_c, 0, 55, 34
3, 49920, Note_on_c, 0, 65, 43
3, 49920, Note_on_c, 0, 60, 34
3, 50001, Control_c, 0, 64, 127
3, 50400, Note_on_c, 0, 65, 0
3, 50400, Note_on_c, 0, 64, 39
3, 50880, Note_on_c, 0, 64, 0
3, 50880, Note_on_c, 0, 60, 0
3, 50880, Note_on_c, 0, 55, 0
3, 50880, Note_on_c, 0, 41, 41
3, 50887, Control_c, 0, 64, 0
3, 50936, Control_c, 0, 64, 127
3, 51200, Note_on_c, 0, 60, 42
3, 51360, Note_on_c, 0, 60, 0
3, 51360, Note_on_c, 0, 41, 0
3, 51360, Note_on_c, 0, 57, 28
3, 51360, Note_on_c, 0, 64, 45
3, 51360, Note_on_c, 0, 53, 28
3, 51364, Control_c, 0, 64, 0
3, 51431, Control_c, 0, 64, 127
3, 51520, Note_on_c, 0, 64, 0
3, 51520, Note_on_c, 0, 62, 42
3, 51680, Note_on_c, 0, 62, 0
3, 51680, Note_on_c, 0, 61, 39
3, 51780, Note_on_c, 0, 61, 0
3, 51780, Note_on_c, 0, 46, 35
3, 51820, Control_c, 0, 64, 0
3, 51840, Note_on_c, 0, 46, 0
3, 51840, Note_on_c, 0, 53, 0
3, 51840, Note_on_c, 0, 57, 0
3, 51840, Note_on_c, 0, 58, 38
3, 51840, Note_on_c, 0, 64, 43
3, 51840, Note_on_c, 0, 53, 38
3, 51871, Control_c, 0, 64, 127
3, 52320, Note_on_c, 0, 64, 0
3, 52320, Note_on_c, 0, 62, 39
3, 52800, Note_on_c, 0, 62, 0
3, 52800, Note_on_c, 0, 53, 0
3, 52800, Note_on_c, 0, 58, 0
3, 52800, Note_on_c, 0, 43, 41
3, 52808, Control_c, 0, 64, 0
3, 52856, Control_c, 0, 64, 127
3, 53280, Note_on_c, 0, 43, 0
3, 53280, Note_on_c, 0, 62, 37
3, 53280, Note_on_c, 0, 58, 33
3, 53280, Note_on_c, 0, 55, 33
3, 53288, Control_c, 0, 64, 0
3, 53354, Control_c, 0, 64, 127
3, 53760, Note_on_c, 0, 55, 0
3, 53760, Note_on_c, 0, 58, 0
3, 53760, Note_on_c, 0, 62, 0
3, 53760, Note_on_c, 0, 40, 43
3, 53770, Control_c, 0, 64, 0
3, 53855, Control_c, 0, 64, 127
3, 54240, Note_on_c, 0, 40, 0
3, 54240, Note_on_c, 0, 52, 39
3, 54240, Note_on_c, 0, 62, 39
3, 54240, Note_on_c, 0, 55, 39
3, 54720, Note_on_c, 0, 55, 0
3, 54720, Note_on_c, 0, 62, 0
3, 54720, Note_on_c, 0, 52, 0
3, 54720, Note_on_c, 0, 45, 41
3, 54731, Control_c, 0, 64, 0
3, 54791, Control_c, 0, 64, 127
3, 55200, Note_on_c, 0, 45, 0
3, 55200, Note_on_c, 0, 52, 33
3, 55200, Note_on_c, 0, 57, 33
3, 55200, Note_on_c, 0, 64, 37
3, 55204, Control_c, 0, 64, 0
3, 55271, Control_c, 0, 64, 127
3, 55680, Note_on_c, 0, 64, 0
3, 55680, Note_on_c, 0, 57, 0
3, 55680, Note_on_c, 0, 52, 0
3, 55680, Note_on_c, 0, 52, 36
3, 55680, Note_on_c, 0, 58, 41
3, 55680, Note_on_c, 0, 43, 36
3, 55685, Control_c, 0, 64, 0
3, 55754, Control_c, 0, 64, 127
3, 56171, Control_c, 0, 64, 0
3, 56252, Control_c, 0, 64, 127
3, 56640, Note_on_c, 0, 43, 0
3, 56640, Note_on_c, 0, 58, 0
3, 56640, Note_on_c, 0, 57, 47
3, 56640, Note_on_c, 0, 45, 42
3, 56649, Control_c, 0, 64, 0
3, 56767, Control_c, 0, 64, 127
3, 56800, Note_on_c, 0, 52, 0
3, 56800, Note_on_c, 0, 52, 48
3, 56880, Note_on_c, 0, 45, 0
3, 56880, Note_on_c, 0, 57, 0
3, 56960, Note_on_c, 0, 52, 0
3, 56960, Note_on_c, 0, 51, 45
3, 57120, Note_on_c, 0, 51, 0
3, 57120, Note_on_c, 0, 53, 49
3, 57131, Control_c, 0, 64, 0
3, 57233, Control_c, 0, 64, 127
3, 57440, Note_on_c, 0, 53, 0
3, 57440, Note_on_c, 0, 52, 44
3, 57600, Note_on_c, 0, 52, 0
3, 57600, Control_c, 0, 64, 0
3, 57600, Note_on_c, 0, 43, 36
3, 57600, Note_on_c, 0, 58, 41
3, 57600, Note_on_c, 0, 52, 36
3, 57681, Control_c, 0, 64, 127
3, 58089, Control_c, 0, 64, 0
3, 58129, Control_c, 0, 64, 127
3, 58560, Note_on_c, 0, 58, 0
3, 58560, Note_on_c, 0, 43, 0
3, 58560, Note_on_c, 0, 45, 42
3, 58560, Note_on_c, 0, 57, 47
3, 58567, Control_c, 0, 64, 0
3, 58687, Control_c, 0, 64, 127
3, 58720, Note_on_c, 0, 52, 0
3, 58720, Note_on_c, 0, 52, 49
3, 58800, Note_on_c, 0, 57, 0
3, 58800, Note_on_c, 0, 45, 0
3, 58880, Note_on_c, 0, 52, 0
3, 58880, Note_on_c, 0, 51, 47
3, 59040, Note_on_c, 0, 51, 0
3, 59040, Note_on_c, 0, 53, 53
3, 59050, Control_c, 0, 64, 0
3, 59153, Control_c, 0, 64, 127
3, 59360, Note_on_c, 0, 53, 0
3, 59360, Note_on_c, 0, 52, 51
3, 59361, Control_c, 0, 64, 0
3, 59520, Note_on_c, 0, 52, 0
3, 59520, Note_on_c, 0, 57, 56
3, 59840, Note_on_c, 0, 57, 0
3, 59840, Note_on_c, 0, 55, 53
3, 60000, Note_on_c, 0, 55, 0
3, 60000, Note_on_c, 0, 62, 57
3, 60320, Note_on_c, 0, 62, 0
3, 60320, Note_on_c, 0, 61, 56
3, 60480, Note_on_c, 0, 61, 0
3, 60480, Note_on_c, 0, 65, 64
3, 60640, Note_on_c, 0, 65, 0
3, 60640, Note_on_c, 0, 64, 58
3, 60800, Note_on_c, 0, 64, 0
3, 60800, Note_on_c, 0, 62, 55
3, 61120, Note_on_c, 0, 62, 0
3, 61120, Note_on_c, 0, 61, 55
3, 61280, Note_on_c, 0, 61, 0
3, 61280, Note_on_c, 0, 58, 51
3, 61760, Note_on_c, 0, 58, 0
3, 61760, Note_on_c, 0, 57, 53
3, 62240, Note_on_c, 0, 57, 0
3, 62240, Note_on_c, 0, 55, 52
3, 62720, Note_on_c, 0, 55, 0
3, 62720, Note_on_c, 0, 53, 48
3, 63200, Note_on_c, 0, 53, 0
3, 63200, Note_on_c, 0, 52, 43
3, 63360, Note_on_c, 0, 52, 0
3, 63360, Note_on_c, 0, 50, 35
3, 63360, Note_on_c, 0, 62, 39
3, 63360, Note_on_c, 0, 57, 35
3, 63573, Control_c, 0, 64, 127
3, 64320, Note_on_c, 0, 57, 0
3, 64320, Note_on_c, 0, 62, 0
3, 64320, Note_on_c, 0, 50, 0
3, 64320, Note_on_c, 0, 50, 27
3, 64320, Note_on_c, 0, 61, 31
3, 64320, Note_on_c, 0, 57, 31
3, 64330, Control_c, 0, 64, 0
3, 64613, Control_c, 0, 64, 127
3, 65280, Note_on_c, 0, 57, 0
3, 65280, Note_on_c, 0, 61, 0
3, 65280, Note_on_c, 0, 50, 0
3, 65280, Note_on_c, 0, 50, 33
3, 65280, Note_on_c, 0, 57, 33
3, 65280, Note_on_c, 0, 62, 36
3, 65288, Control_c, 0, 64, 0
3, 65417, Control_c, 0, 64, 127
3, 65760, Note_on_c, 0, 62, 0
3, 65760, Note_on_c, 0, 57, 0
3, 65760, Note_on_c, 0, 50, 0
3, 66240, Note_on_c, 0, 53, 40
3, 66240, Note_on_c, 0, 57, 36
3, 66255, Control_c, 0, 64, 0
3, 66423, Control_c, 0, 64, 127
3, 66720, Note_on_c, 0, 53, 0
3, 66720, Note_on_c, 0, 54, 38
3, 67200, Note_on_c, 0, 54, 0
3, 67200, Note_on_c, 0, 57, 0
3, 67200, Note_on_c, 0, 55, 41
3, 67210, Control_c, 0, 64, 0
3, 67429, Control_c, 0, 64, 127
3, 67680, Note_on_c, 0, 55, 0
3, 68160, Note_on_c, 0, 45, 27
3, 68160, Note_on_c, 0, 50, 31
3, 68173, Control_c, 0, 64, 0
3, 68389, Control_c, 0, 64, 127
3, 69120, Note_on_c, 0, 50, 0
3, 69120, Note_on_c, 0, 45, 0
3, 69120, Note_on_c, 0, 46, 36
3, 69120, Note_on_c, 0, 50, 42
3, 69130, Control_c, 0, 64, 0
3, 69269, Control_c, 0, 64, 127
3, 69600, Note_on_c, 0, 58, 36
3, 70080, Note_on_c, 0, 58, 0
3, 70080, Note_on_c, 0, 50, 0
3, 70080, Note_on_c, 0, 46, 0
3, 70080, Note_on_c, 0, 45, 32
3, 70080, Note_on_c, 0, 52, 32
3, 70080, Note_on_c, 0, 57, 36
3, 70091, Control_c, 0, 64, 0
3, 70229, Control_c, 0, 64, 127
3, 71040, Note_on_c, 0, 57, 0
3, 71040, Note_on_c, 0, 52, 0
3, 71040, Note_on_c, 0, 45, 0
3, 71040, Control_c, 0, 64, 0
3, 71040, Note_on_c, 0, 55, 48
3, 71331, Control_c, 0, 64, 127
3, 71520, Note_on_c, 0, 64, 41
3, 71520, Note_on_c, 0, 61, 37
3, 71520, Note_on_c, 0, 57, 37
3, 72000, Note_on_c, 0, 57, 0
3, 72000, Note_on_c, 0, 55, 0
3, 72000, Note_on_c, 0, 64, 0
3, 72000, Note_on_c, 0, 61, 0
3, 72000, Note_on_c, 0, 53, 46
3, 72011, Control_c, 0, 64, 0
3, 72126, Control_c, 0, 64, 127
3, 72480, Note_on_c, 0, 65, 41
3, 72480, Note_on_c, 0, 62, 41
3, 72480, Note_on_c, 0, 57, 37
3, 72960, Note_on_c, 0, 57, 0
3, 72960, Note_on_c, 0, 53, 0
3, 72960, Note_on_c, 0, 65, 0
3, 72960, Note_on_c, 0, 62, 0
3, 72960, Note_on_c, 0, 52, 49
3, 72968, Control_c, 0, 64, 0
3, 73057, Control_c, 0, 64, 127
3, 73440, Note_on_c, 0, 67, 47
3, 73440, Note_on_c, 0, 61, 41
3, 73440, Note_on_c, 0, 57, 41
3, 73920, Note_on_c, 0, 57, 0
3, 73920, Note_on_c, 0, 52, 0
3, 73920, Note_on_c, 0, 67, 0
3, 73920, Note_on_c, 0, 61, 0
3, 73920, Note_on_c, 0, 50, 50
3, 73933, Control_c, 0, 64, 0
3, 74046, Control_c, 0, 64, 127
3, 74400, Note_on_c, 0, 66, 41
3, 74400, Note_on_c, 0, 60, 37
3, 74400, Note_on_c, 0, 57, 37
3, 74880, Note_on_c, 0, 57, 0
3, 74880, Note_on_c, 0, 50, 0
3, 74880, Note_on_c, 0, 66, 0
3, 74880, Note_on_c, 0, 60, 0
3, 74880, Note_on_c, 0, 43, 50
3, 74888, Control_c, 0, 64, 0
3, 74949, Control_c, 0, 64, 127
3, 75360, Note_on_c, 0, 43, 0
3, 75360, Note_on_c, 0, 67, 41
3, 75360, Note_on_c, 0, 62, 37
3, 75360, Note_on_c, 0, 58, 37
3, 75360, Note_on_c, 0, 55, 37
3, 75840, Note_on_c, 0, 55, 0
3, 75840, Note_on_c, 0, 67, 0
3, 75840, Note_on_c, 0, 62, 0
3, 75840, Note_on_c, 0, 58, 0
3, 75840, Note_on_c, 0, 44, 48
3, 75852, Control_c, 0, 64, 0
3, 75909, Control_c, 0, 64, 127
3, 76320, Note_on_c, 0, 44, 0
3, 76320, Note_on_c, 0, 65, 40
3, 76320, Note_on_c, 0, 62, 36
3, 76320, Note_on_c, 0, 59, 36
3, 76320, Note_on_c, 0, 56, 36
3, 76800, Note_on_c, 0, 56, 0
3, 76800, Note_on_c, 0, 65, 0
3, 76800, Note_on_c, 0, 62, 0
3, 76800, Note_on_c, 0, 59, 0
3, 76800, Note_on_c, 0, 45, 49
3, 76806, Control_c, 0, 64, 0
3, 76882, Control_c, 0, 64, 127
3, 77280, Note_on_c, 0, 45, 0
3, 77280, Note_on_c, 0, 65, 45
3, 77280, Note_on_c, 0, 62, 39
3, 77280, Note_on_c, 0, 57, 39
3, 77288, Control_c, 0, 64, 0
3, 77340, Control_c, 0, 64, 127
3, 77760, Note_on_c, 0, 57, 0
3, 77760, Note_on_c, 0, 62, 0
3, 77760, Note_on_c, 0, 65, 0
3, 77760, Note_on_c, 0, 45, 48
3, 77769, Control_c, 0, 64, 0
3, 77829, Control_c, 0, 64, 127
3, 78240, Note_on_c, 0, 45, 0
3, 78240, Note_on_c, 0, 61, 41
3, 78240, Note_on_c, 0, 57, 37
3, 78240, Note_on_c, 0, 55, 37
3, 78253, Control_c, 0, 64, 0
3, 78313, Control_c, 0, 64, 127
3, 78720, Note_on_c, 0, 55, 0
3, 78720, Note_on_c, 0, 57, 0
3, 78720, Note_on_c, 0, 61, 0
3, 78720, Control_c, 0, 64, 0
3, 78720, Note_on_c, 0, 50, 40
3, 78720, Note_on_c, 0, 53, 42
3, 78720, Note_on_c, 0, 57, 50
3, 78914, Control_c, 0, 64, 127
3, 79200, Note_on_c, 0, 65, 60
3, 79680, Note_on_c, 0, 57, 0
3, 79680, Note_on_c, 0, 50, 0
3, 79680, Note_on_c, 0, 53, 0
3, 79680, Note_on_c, 0, 57, 55
3, 79680, Note_on_c, 0, 55, 49
3, 79688, Control_c, 0, 64, 0
3, 79909, Control_c, 0, 64, 127
3, 80160, Note_on_c, 0, 65, 0
3, 80160, Note_on_c, 0, 64, 62
3, 80640, Note_on_c, 0, 55, 0
3, 80640, Note_on_c, 0, 57, 0
3, 80640, Note_on_c, 0, 53, 41
3, 80640, Note_on_c, 0, 57, 47
3, 80650, Control_c, 0, 64, 0
3, 80718, Control_c, 0, 64, 127
3, 80880, Note_on_c, 0, 64, 0
3, 80880, Note_on_c, 0, 62, 58
3, 81106, Control_c, 0, 64, 0
3, 81120, Note_on_c, 0, 62, 0
3, 81120, Note_on_c, 0, 57, 0
3, 81120, Note_on_c, 0, 53, 0
3, 81120, Note_on_c, 0, 56, 61
3, 81360, Note_on_c, 0, 57, 57
3, 81370, Note_on_c, 0, 56, 0
3, 81600, Note_on_c, 0, 54, 47
3, 81600, Note_on_c, 0, 62, 62
3, 81615, Control_c, 0, 64, 0
3, 81695, Control_c, 0, 64, 127
3, 82320, Note_on_c, 0, 62, 0
3, 82320, Note_on_c, 0, 60, 55
3, 82500, Note_on_c, 0, 60, 0
3, 82500, Note_on_c, 0, 54, 0
3, 82500, Note_on_c, 0, 57, 0
3, 82500, Note_on_c, 0, 43, 47
3, 82530, Note_on_c, 0, 50, 47
3, 82560, Note_on_c, 0, 58, 57
3, 82566, Control_c, 0, 64, 0
3, 82694, Control_c, 0, 64, 127
3, 82800, Note_on_c, 0, 58, 0
3, 83040, Note_on_c, 0, 50, 0
3, 83040, Note_on_c, 0, 43, 0
3, 83040, Note_on_c, 0, 58, 64
3, 83520, Note_on_c, 0, 50, 55
3, 83520, Note_on_c, 0, 48, 49
3, 83531, Control_c, 0, 64, 0
3, 83612, Control_c, 0, 64, 127
3, 84000, Note_on_c, 0, 58, 0
3, 84000, Note_on_c, 0, 54, 53
3, 84480, Note_on_c, 0, 48, 0
3, 84480, Note_on_c, 0, 50, 0
3, 84480, Note_on_c, 0, 46, 51
3, 84480, Note_on_c, 0, 50, 51
3, 84487, Control_c, 0, 64, 0
3, 84568, Control_c, 0, 64, 127
3, 84720, Note_on_c, 0, 54, 0
3, 84720, Note_on_c, 0, 55, 62
3, 84960, Note_on_c, 0, 55, 0
3, 84960, Note_on_c, 0, 50, 0
3, 84960, Note_on_c, 0, 46, 0
3, 84960, Note_on_c, 0, 64, 63
3, 85200, Note_on_c, 0, 64, 0
3, 85200, Note_on_c, 0, 62, 60
3, 85380, Note_on_c, 0, 62, 0
3, 85380, Note_on_c, 0, 45, 36
3, 85408, Control_c, 0, 64, 0
3, 85410, Note_on_c, 0, 52, 36
3, 85440, Note_on_c, 0, 62, 62
3, 85518, Control_c, 0, 64, 127
3, 85920, Note_on_c, 0, 62, 0
3, 85920, Note_on_c, 0, 52, 0
3, 85920, Note_on_c, 0, 45, 0
3, 85920, Note_on_c, 0, 61, 57
3, 86400, Note_on_c, 0, 61, 0
3, 86400, Note_on_c, 0, 60, 57
3, 86400, Note_on_c, 0, 58, 50
3, 86405, Control_c, 0, 64, 0
3, 86691, Control_c, 0, 64, 127
3, 86880, Note_on_c, 0, 67, 59
3, 87360, Note_on_c, 0, 58, 0
3, 87360, Note_on_c, 0, 60, 0
3, 87360, Note_on_c, 0, 60, 44
3, 87360, Note_on_c, 0, 57, 44
3, 87369, Control_c, 0, 64, 0
3, 87448, Control_c, 0, 64, 127
3, 87520, Note_on_c, 0, 67, 0
3, 87520, Note_on_c, 0, 65, 57
3, 87680, Note_on_c, 0, 65, 0
3, 87680, Note_on_c, 0, 64, 57
3, 87840, Note_on_c, 0, 64, 0
3, 87840, Note_on_c, 0, 67, 61
3, 87851, Control_c, 0, 64, 0
3, 87918, Control_c, 0, 64, 127
3, 88160, Note_on_c, 0, 67, 0
3, 88160, Note_on_c, 0, 65, 59
3, 88320, Note_on_c, 0, 65, 0
3, 88320, Note_on_c, 0, 57, 0
3, 88320, Note_on_c, 0, 60, 0
3, 88320, Note_on_c, 0, 65, 61
3, 88320, Note_on_c, 0, 57, 59
3, 88320, Note_on_c, 0, 55, 52
3, 88330, Control_c, 0, 64, 0
3, 88611, Control_c, 0, 64, 127
3, 88800, Note_on_c, 0, 65, 0
3, 88800, Note_on_c, 0, 64, 57
3, 89280, Note_on_c, 0, 55, 0
3, 89280, Note_on_c, 0, 57, 0
3, 89280, Note_on_c, 0, 57, 47
3, 89280, Note_on_c, 0, 53, 47
3, 89293, Control_c, 0, 64, 0
3, 89347, Control_c, 0, 64, 127
3, 89440, Note_on_c, 0, 64, 0
3, 89440, Note_on_c, 0, 62, 57
3, 89600, Note_on_c, 0, 62, 0
3, 89600, Note_on_c, 0, 61, 57
3, 89760, Note_on_c, 0, 61, 0
3, 89760, Note_on_c, 0, 64, 61
3, 89771, Control_c, 0, 64, 0
3, 89838, Control_c, 0, 64, 127
3, 90080, Note_on_c, 0, 64, 0
3, 90080, Note_on_c, 0, 62, 59
3, 90180, Note_on_c, 0, 43, 48
3, 90240, Note_on_c, 0, 43, 0
3, 90240, Note_on_c, 0, 57, 0
3, 90240, Note_on_c, 0, 53, 0
3, 90240, Note_on_c, 0, 62, 0
3, 90240, Control_c, 0, 64, 0
3, 90240, Note_on_c, 0, 60, 59
3, 90240, Note_on_c, 0, 50, 52
3, 90240, Note_on_c, 0, 55, 52
3, 90720, Note_on_c, 0, 60, 0
3, 90720, Note_on_c, 0, 58, 56
3, 91200, Note_on_c, 0, 58, 0
3, 91200, Note_on_c, 0, 55, 0
3, 91200, Note_on_c, 0, 50, 0
3, 91200, Note_on_c, 0, 46, 57
3, 91225, Control_c, 0, 64, 127
3, 91680, Note_on_c, 0, 46, 0
3, 91680, Note_on_c, 0, 62, 46
3, 91680, Note_on_c, 0, 57, 41
3, 91680, Note_on_c, 0, 53, 41
3, 91691, Control_c, 0, 64, 0
3, 91726, Control_c, 0, 64, 127
3, 92160, Note_on_c, 0, 53, 0
3, 92160, Note_on_c, 0, 57, 0
3, 92160, Note_on_c, 0, 62, 0
3, 92160, Note_on_c, 0, 45, 53
3, 92168, Control_c, 0, 64, 0
3, 92248, Control_c, 0, 64, 127
3, 92640, Note_on_c, 0, 45, 0
3, 92640, Note_on_c, 0, 61, 40
3, 92640, Note_on_c, 0, 57, 37
3, 92640, Note_on_c, 0, 55, 37
3, 92651, Control_c, 0, 64, 0
3, 92707, Control_c, 0, 64, 127
3, 93120, Note_on_c, 0, 55, 0
3, 93120, Note_on_c, 0, 57, 0
3, 93120, Note_on_c, 0, 61, 0
3, 93120, Note_on_c, 0, 38, 35
3, 93120, Note_on_c, 0, 45, 35
3, 93129, Control_c, 0, 64, 0
3, 93222, Control_c, 0, 64, 127
3, 94080, Note_on_c, 0, 45, 0
3, 94080, Note_on_c, 0, 38, 0
3, 94080, Note_on_c, 0, 50, 32
3, 94080, Note_on_c, 0, 55, 32
3, 94080, Note_on_c, 0, 58, 36
3, 94080, Note_on_c, 0, 62, 36
3, 94082, Control_c, 0, 64, 0
3, 94161, Control_c, 0, 64, 127
3, 94571, Control_c, 0, 64, 0
3, 94655, Control_c, 0, 64, 127
3, 95040, Note_on_c, 0, 62, 0
3, 95040, Note_on_c, 0, 50, 0
3, 95040, Note_on_c, 0, 55, 0
3, 95040, Note_on_c, 0, 58, 0
3, 95040, Note_on_c, 0, 38, 25
3, 95040, Note_on_c, 0, 45, 28
3, 95049, Control_c, 0, 64, 0
3, 95166, Control_c, 0, 64, 127
3, 96000, Note_on_c, 0, 45, 0
3, 96000, Note_on_c, 0, 38, 0
3, 96000, Control_c, 0, 64, 0
3, 96000, Note_on_c, 0, 50, 32
3, 96000, Note_on_c, 0, 55, 32
3, 96000, Note_on_c, 0, 58, 36
3, 96000, Note_on_c, 0, 62, 36
3, 96127, Control_c, 0, 64, 127
3, 96497, Control_c, 0, 64, 0
3, 96607, Control_c, 0, 64, 127
3, 96958, Note_on_c, 0, 62, 0
3, 96960, Note_on_c, 0, 50, 0
3, 96960, Note_on_c, 0, 55, 0
3, 96960, Note_on_c, 0, 58, 0
3, 96960, Control_c, 0, 64, 0
3, 96960, Note_on_c, 0, 38, 25
3, 96960, Note_on_c, 0, 45, 28
3, 97086, Control_c, 0, 64, 127
3, 97454, Control_c, 0, 64, 0
3, 97567, Control_c, 0, 64, 127
3, 97920, Note_on_c, 0, 45, 0
3, 97920, Note_on_c, 0, 38, 0
3, 97920, Note_on_c, 0, 50, 32
3, 97920, Note_on_c, 0, 55, 32
3, 97920, Note_on_c, 0, 58, 36
3, 97920, Note_on_c, 0, 62, 36
3, 97923, Control_c, 0, 64, 0
3, 98001, Control_c, 0, 64, 127
3, 98400, Control_c, 0, 64, 0
3, 98432, Control_c, 0, 64, 127
3, 98880, Note_on_c, 0, 62, 0
3, 98880, Note_on_c, 0, 50, 0
3, 98880, Note_on_c, 0, 55, 0
3, 98880, Note_on_c, 0, 58, 0
3, 98880, Note_on_c, 0, 38, 25
3, 98880, Note_on_c, 0, 45, 28
3, 98889, Control_c, 0, 64, 0
3, 99006, Control_c, 0, 64, 127
3, 99840, Note_on_c, 0, 45, 0
3, 99840, Note_on_c, 0, 38, 0
3, 99840, Note_on_c, 0, 50, 32
3, 99840, Note_on_c, 0, 52, 32
3, 99840, Note_on_c, 0, 62, 36
3, 99844, Control_c, 0, 64, 0
3, 100489, Control_c, 0, 64, 127
3, 100800, Note_on_c, 0, 62, 0
3, 100800, Note_on_c, 0, 52, 0
3, 100800, Note_on_c, 0, 50, 0
3, 100800, Note_on_c, 0, 38, 25
3, 100800, Note_on_c, 0, 45, 28
3, 100809, Control_c, 0, 64, 0
3, 100926, Control_c, 0, 64, 127
3, 101293, Control_c, 0, 64, 0
3, 101393, Control_c, 0, 64, 127
3, 101760, Note_on_c, 0, 45, 0
3, 101760, Note_on_c, 0, 38, 0
3, 101760, Control_c, 0, 64, 0
3, 101760, Note_on_c, 0, 50, 32
3, 101760, Note_on_c, 0, 52, 32
3, 101760, Note_on_c, 0, 62, 36
3, 102438, Control_c, 0, 64, 127
3, 102720, Note_on_c, 0, 62, 0
3, 102720, Note_on_c, 0, 52, 0
3, 102720, Note_on_c, 0, 50, 0
3, 102720, Note_on_c, 0, 38, 25
3, 102720, Note_on_c, 0, 45, 28
3, 102729, Control_c, 0, 64, 0
3, 102846, Control_c, 0, 64, 127
3, 103218, Control_c, 0, 64, 0
3, 103341, Control_c, 0, 64, 127
3, 103680, Note_on_c, 0, 45, 0
3, 103680, Note_on_c, 0, 38, 0
3, 103680, Note_on_c, 0, 53, 25
3, 103680, Note_on_c, 0, 50, 25
3, 103680, Note_on_c, 0, 62, 28
3, 103686, Control_c, 0, 64, 0
3, 103761, Control_c, 0, 64, 127
3, 104174, Control_c, 0, 64, 0
3, 104245, Control_c, 0, 64, 127
3, 104655, Control_c, 0, 64, 0
3, 104728, Control_c, 0, 64, 127
3, 104880, Note_on_c, 0, 62, 0
3, 104880, Note_on_c, 0, 50, 0
3, 104880, Note_on_c, 0, 53, 0
3, 105134, Control_c, 0, 64, 0
3, 105222, Control_c, 0, 64, 127
3, 105616, Control_c, 0, 64, 0
3, 105826, Control_c, 0, 64, 127
3, 106576, Control_c, 0, 64, 0
3, 106673, Control_c, 0, 64, 127
3, 107608, Control_c, 0, 64, 0
3, 107608, End_track
4, 0, Start_track
4, 0, Title_t, "Tschaikowsky: The Seasons: Oktober"
4, 0, End_track
5, 0, Start_track
5, 0, Title_t, "Copyright © 2004 by Bernd Krüger"
5, 0, End_track
6, 0, Start_track
6, 0, Title_t, "http://www.piano-midi.de"
6, 0, End_track
7, 0, Start_track
7, 0, Title_t, "Edition: 2008-09-24"
7, 0, End_track
8, 0, Start_track
8, 0, End_track
0, 0, End_of_file
