0, 0, Header, 1, 9, 480
1, 0, Start_track
1, 0, Title_t, "Suite espagnole"
1, 0, Title_t, "Cuba"
1, 0, Copyright_t, "Copyright © 2001 by Bernd Krueger"
1, 0, Text_t, "Isaac Albeniz"
1, 0, Text_t, "Notturno"
1, 0, Text_t, "Fertiggestellt am 21.6.2001\012"
1, 0, Text_t, "Normierung: 23.12.2002\012"
1, 0, Text_t, "Update am 23.9.2010\012"
1, 0, Text_t, "Dauer: 4:30 Minuten\012"
1, 0, SMPTE_offset, 96, 0, 3, 0, 0
1, 0, Time_signature, 6, 3, 12, 8
1, 0, Key_signature, -3, "major"
1, 0, Tempo, 504329
1, 0, Marker_t, "Allegretto"
1, 720, Tempo, 510638
1, 960, Tempo, 483871
1, 1200, Tempo, 496319
1, 1440, Tempo, 474308
1, 1680, Tempo, 463320
1, 1920, Tempo, 474308
1, 2160, Tempo, 491803
1, 2400, Tempo, 483871
1, 2640, Tempo, 506329
1, 2880, Tempo, 481000
1, 3120, Tempo, 490436
1, 3360, Tempo, 488520
1, 3600, Tempo, 486618
1, 3840, Tempo, 492409
1, 4080, Tempo, 488520
1, 4320, Tempo, 471884
1, 4560, Tempo, 466563
1, 4800, Tempo, 479118
1, 5040, Tempo, 500292
1, 5280, Tempo, 516929
1, 5520, Tempo, 541663
1, 5760, Tempo, 492409
1, 5760, Marker_t, "Teil 1"
1, 6000, Tempo, 477289
1, 6040, Tempo, 463106
1, 6240, Tempo, 473672
1, 6480, Tempo, 500793
1, 7200, Tempo, 464828
1, 7680, Tempo, 431034
1, 7920, Tempo, 420875
1, 8160, Tempo, 429553
1, 8400, Tempo, 446495
1, 8640, Tempo, 423729
1, 8880, Tempo, 443328
1, 9360, Tempo, 489436
1, 10080, Tempo, 443328
1, 10560, Tempo, 429553
1, 10800, Tempo, 420875
1, 11040, Tempo, 431034
1, 11280, Tempo, 448096
1, 11520, Tempo, 428082
1, 11760, Tempo, 452182
1, 12240, Tempo, 496319
1, 12960, Tempo, 461716
1, 13440, Tempo, 454890
1, 13680, Tempo, 445401
1, 13920, Tempo, 450113
1, 14160, Tempo, 482470
1, 14400, Tempo, 445401
1, 14640, Tempo, 459488
1, 15120, Tempo, 479004
1, 15840, Tempo, 462606
1, 16080, Tempo, 478393
1, 16320, Tempo, 482548
1, 16560, Tempo, 509251
1, 17280, Tempo, 504329
1, 18000, Tempo, 515021
1, 18240, Tempo, 485830
1, 18480, Tempo, 496319
1, 18720, Tempo, 481928
1, 18960, Tempo, 468750
1, 19200, Tempo, 478088
1, 19440, Tempo, 485830
1, 19680, Tempo, 487805
1, 19920, Tempo, 495868
1, 20160, Tempo, 481000
1, 20400, Tempo, 490436
1, 20640, Tempo, 488520
1, 20880, Tempo, 486618
1, 21120, Tempo, 492409
1, 21360, Tempo, 488520
1, 21600, Tempo, 471884
1, 21840, Tempo, 466563
1, 22080, Tempo, 479118
1, 22320, Tempo, 500292
1, 22560, Tempo, 516929
1, 22800, Tempo, 541663
1, 23040, Tempo, 492409
1, 23040, Marker_t, "Teil 1 Wiederholung"
1, 23280, Tempo, 477289
1, 23320, Tempo, 463106
1, 23520, Tempo, 473672
1, 23760, Tempo, 500793
1, 24480, Tempo, 464828
1, 24960, Tempo, 432526
1, 25200, Tempo, 420875
1, 25440, Tempo, 431034
1, 25680, Tempo, 446495
1, 25920, Tempo, 426621
1, 26160, Tempo, 443328
1, 26640, Tempo, 489436
1, 27360, Tempo, 443328
1, 27840, Tempo, 431034
1, 28080, Tempo, 420875
1, 28320, Tempo, 432526
1, 28560, Tempo, 448096
1, 28800, Tempo, 432526
1, 28840, Tempo, 431034
1, 29040, Tempo, 452182
1, 29520, Tempo, 496319
1, 30240, Tempo, 461716
1, 30720, Tempo, 454890
1, 30960, Tempo, 445401
1, 31200, Tempo, 450113
1, 31440, Tempo, 482470
1, 31680, Tempo, 445401
1, 31920, Tempo, 459488
1, 32400, Tempo, 479004
1, 33120, Tempo, 462606
1, 33360, Tempo, 478393
1, 33600, Tempo, 482548
1, 33840, Tempo, 509251
1, 34560, Tempo, 504329
1, 35280, Tempo, 512821
1, 35520, Tempo, 487805
1, 35760, Tempo, 496319
1, 36000, Tempo, 476190
1, 36240, Tempo, 465116
1, 36480, Tempo, 474308
1, 36720, Tempo, 487805
1, 36960, Tempo, 489796
1, 37200, Tempo, 500000
1, 37440, Tempo, 481000
1, 37680, Tempo, 490436
1, 37920, Tempo, 488520
1, 38160, Tempo, 486618
1, 38400, Tempo, 492409
1, 38640, Tempo, 488520
1, 38880, Tempo, 471884
1, 39120, Tempo, 466563
1, 39360, Tempo, 479118
1, 39600, Tempo, 500292
1, 39840, Tempo, 516929
1, 40080, Tempo, 541663
1, 40320, Tempo, 492409
1, 40320, Marker_t, "Teil 2"
1, 40560, Tempo, 477289
1, 40600, Tempo, 463106
1, 40800, Tempo, 473672
1, 41040, Tempo, 482859
1, 41280, Tempo, 486618
1, 41520, Tempo, 500292
1, 41760, Tempo, 464828
1, 42240, Tempo, 451331
1, 42480, Tempo, 437127
1, 42720, Tempo, 431034
1, 42960, Tempo, 443328
1, 43200, Tempo, 435572
1, 43440, Tempo, 443328
1, 43920, Tempo, 456308
1, 44160, Tempo, 466563
1, 44400, Tempo, 488520
1, 44640, Tempo, 443328
1, 45120, Tempo, 437127
1, 45360, Tempo, 428082
1, 45600, Tempo, 437127
1, 45840, Tempo, 448096
1, 46080, Tempo, 435572
1, 46320, Tempo, 452182
1, 46800, Tempo, 463106
1, 47040, Tempo, 466563
1, 47520, Tempo, 431034
1, 47760, Tempo, 448096
1, 48240, Tempo, 459700
1, 48960, Tempo, 432526
1, 49200, Tempo, 452182
1, 49680, Tempo, 463106
1, 49920, Tempo, 466563
1, 50400, Tempo, 431034
1, 50640, Tempo, 448096
1, 51120, Tempo, 459700
1, 51360, Tempo, 523423
1, 51600, Tempo, 622859
1, 51840, Tempo, 492409
1, 52080, Tempo, 477289
1, 52120, Tempo, 463106
1, 52320, Tempo, 473672
1, 52560, Tempo, 500793
1, 53280, Tempo, 464828
1, 53760, Tempo, 432526
1, 54000, Tempo, 420875
1, 54240, Tempo, 431034
1, 54480, Tempo, 446495
1, 54720, Tempo, 426621
1, 54960, Tempo, 443328
1, 55440, Tempo, 489436
1, 56160, Tempo, 464828
1, 56400, Tempo, 446097
1, 56640, Tempo, 432526
1, 56880, Tempo, 420875
1, 57120, Tempo, 431034
1, 57360, Tempo, 446495
1, 57600, Tempo, 426621
1, 57840, Tempo, 443328
1, 58080, Tempo, 466563
1, 58320, Tempo, 489436
1, 59040, Tempo, 464828
1, 59280, Tempo, 444444
1, 59320, Tempo, 439560
1, 59520, Tempo, 432526
1, 59760, Tempo, 420875
1, 60000, Tempo, 431034
1, 60240, Tempo, 446495
1, 60480, Tempo, 426621
1, 60720, Tempo, 443328
1, 60960, Tempo, 471884
1, 61200, Tempo, 489436
1, 61920, Tempo, 438661
1, 62160, Tempo, 479272
1, 62400, Tempo, 505093
1, 62640, Tempo, 570396
1, 63120, Tempo, 612307
1, 63360, Tempo, 504329
1, 64080, Tempo, 512821
1, 64320, Tempo, 485830
1, 64560, Tempo, 496319
1, 64800, Tempo, 481928
1, 65040, Tempo, 470588
1, 65280, Tempo, 489796
1, 65520, Tempo, 483871
1, 65760, Tempo, 487805
1, 66000, Tempo, 500000
1, 66240, Tempo, 481000
1, 66480, Tempo, 490436
1, 66720, Tempo, 488520
1, 66960, Tempo, 486618
1, 67200, Tempo, 492409
1, 67440, Tempo, 488520
1, 67680, Tempo, 471884
1, 67920, Tempo, 466563
1, 68160, Tempo, 479118
1, 68400, Tempo, 500292
1, 68640, Tempo, 516929
1, 68880, Tempo, 541663
1, 69120, Tempo, 492409
1, 69360, Tempo, 477289
1, 69400, Tempo, 463106
1, 69600, Tempo, 473672
1, 69840, Tempo, 500793
1, 70560, Tempo, 464828
1, 71040, Tempo, 438661
1, 71280, Tempo, 428082
1, 71520, Tempo, 438661
1, 71760, Tempo, 446495
1, 72000, Tempo, 432526
1, 72240, Tempo, 443328
1, 72720, Tempo, 489436
1, 73440, Tempo, 443328
1, 73920, Tempo, 431034
1, 74160, Tempo, 422297
1, 74400, Tempo, 437127
1, 74640, Tempo, 448096
1, 74880, Tempo, 432526
1, 75120, Tempo, 452182
1, 75600, Tempo, 496319
1, 76320, Tempo, 461716
1, 76800, Tempo, 454890
1, 77040, Tempo, 445401
1, 77280, Tempo, 450113
1, 77520, Tempo, 482470
1, 77760, Tempo, 445401
1, 78000, Tempo, 459488
1, 78480, Tempo, 479004
1, 79200, Tempo, 462606
1, 79440, Tempo, 478393
1, 79680, Tempo, 482548
1, 79920, Tempo, 509251
1, 80640, Tempo, 492409
1, 80880, Tempo, 477289
1, 80920, Tempo, 463106
1, 81120, Tempo, 473672
1, 81360, Tempo, 500793
1, 82080, Tempo, 464828
1, 82560, Tempo, 438661
1, 82800, Tempo, 428082
1, 83040, Tempo, 438661
1, 83280, Tempo, 446495
1, 83520, Tempo, 429553
1, 83760, Tempo, 443328
1, 84240, Tempo, 489436
1, 84960, Tempo, 443328
1, 85440, Tempo, 435572
1, 85680, Tempo, 428082
1, 85920, Tempo, 437127
1, 86160, Tempo, 448096
1, 86400, Tempo, 432526
1, 86640, Tempo, 452182
1, 87120, Tempo, 496319
1, 87840, Tempo, 461716
1, 88320, Tempo, 454890
1, 88560, Tempo, 445401
1, 88800, Tempo, 450113
1, 89040, Tempo, 482470
1, 89280, Tempo, 445401
1, 89520, Tempo, 459488
1, 90000, Tempo, 479004
1, 90720, Tempo, 462606
1, 90960, Tempo, 478393
1, 91200, Tempo, 482548
1, 91440, Tempo, 509251
1, 92160, Tempo, 504329
1, 92880, Tempo, 515021
1, 93120, Tempo, 485830
1, 93360, Tempo, 496319
1, 93600, Tempo, 485830
1, 93620, Tempo, 478088
1, 93840, Tempo, 465116
1, 94080, Tempo, 474308
1, 94320, Tempo, 487805
1, 94560, Tempo, 489796
1, 94800, Tempo, 500000
1, 95040, Tempo, 481000
1, 95280, Tempo, 490436
1, 95520, Tempo, 488520
1, 95760, Tempo, 486618
1, 96000, Tempo, 492409
1, 96240, Tempo, 488520
1, 96480, Tempo, 471884
1, 96720, Tempo, 458015
1, 96960, Tempo, 475473
1, 97200, Tempo, 482859
1, 97440, Tempo, 477289
1, 97680, Tempo, 488520
1, 97920, Tempo, 481000
1, 98160, Tempo, 490436
1, 98400, Tempo, 488520
1, 98640, Tempo, 512645
1, 98880, Tempo, 504329
1, 99120, Tempo, 500292
1, 99360, Tempo, 512645
1, 99600, Tempo, 557673
1, 99840, Tempo, 627681
1, 100320, Tempo, 685010
1, 100560, Tempo, 867177
1, 100800, Tempo, 519076
1, 103680, Key_signature, 5, "major"
1, 103680, Tempo, 564706
1, 103680, Marker_t, "Teil 3"
1, 103920, Tempo, 537875
1, 104640, Tempo, 528774
1, 105840, Tempo, 511291
1, 106080, Tempo, 522057
1, 106320, Tempo, 540200
1, 106560, Tempo, 564706
1, 106800, Tempo, 517331
1, 107040, Tempo, 529942
1, 107520, Tempo, 528774
1, 108720, Tempo, 511291
1, 108960, Tempo, 522057
1, 109200, Tempo, 540200
1, 109440, Tempo, 551673
1, 109680, Tempo, 531161
1, 109960, Tempo, 537827
1, 110160, Tempo, 524246
1, 110400, Tempo, 537875
1, 110640, Tempo, 547345
1, 110880, Tempo, 535619
1, 111600, Tempo, 557673
1, 111840, Tempo, 561850
1, 112080, Tempo, 612307
1, 112320, Tempo, 564706
1, 112560, Tempo, 537875
1, 113040, Tempo, 540200
1, 113160, Tempo, 542643
1, 113280, Tempo, 544959
1, 113360, Tempo, 547345
1, 113480, Tempo, 549803
1, 113520, Tempo, 583317
1, 115200, Tempo, 564706
1, 115200, Marker_t, "Teil 3 Wiederholung"
1, 115440, Tempo, 537875
1, 116160, Tempo, 528774
1, 117360, Tempo, 511291
1, 117600, Tempo, 522057
1, 117840, Tempo, 540200
1, 118080, Tempo, 564706
1, 118320, Tempo, 517331
1, 118560, Tempo, 529942
1, 119040, Tempo, 528774
1, 120240, Tempo, 511291
1, 120480, Tempo, 522057
1, 120720, Tempo, 540200
1, 120960, Tempo, 551673
1, 121200, Tempo, 531161
1, 121480, Tempo, 537827
1, 121680, Tempo, 524246
1, 121920, Tempo, 537875
1, 122160, Tempo, 547345
1, 122400, Tempo, 535619
1, 123120, Tempo, 554682
1, 123360, Tempo, 574768
1, 123600, Tempo, 622471
1, 123840, Tempo, 564706
1, 124080, Tempo, 537875
1, 124560, Tempo, 540200
1, 124680, Tempo, 542643
1, 124800, Tempo, 544959
1, 124880, Tempo, 547345
1, 125000, Tempo, 549803
1, 125040, Tempo, 549300
1, 125080, Tempo, 546996
1, 125280, Tempo, 542397
1, 125520, Tempo, 551673
1, 125760, Tempo, 549300
1, 125920, Tempo, 551673
1, 126040, Tempo, 554068
1, 126160, Tempo, 556483
1, 126320, Tempo, 558867
1, 126440, Tempo, 561325
1, 126560, Tempo, 563804
1, 126720, Tempo, 564706
1, 126720, Marker_t, "Teil 4"
1, 126960, Tempo, 537875
1, 127680, Tempo, 528774
1, 128160, Tempo, 556483
1, 128400, Tempo, 526824
1, 128880, Tempo, 533333
1, 129120, Tempo, 528961
1, 129360, Tempo, 554068
1, 129600, Tempo, 564706
1, 129840, Tempo, 517331
1, 130080, Tempo, 529942
1, 130560, Tempo, 540054
1, 131280, Tempo, 528961
1, 131520, Tempo, 573833
1, 131640, Tempo, 455789
1, 131760, Tempo, 504075
1, 132000, Tempo, 522057
1, 132240, Tempo, 540200
1, 132480, Tempo, 551673
1, 132720, Tempo, 531161
1, 133000, Tempo, 537827
1, 133200, Tempo, 524246
1, 133440, Tempo, 537875
1, 133680, Tempo, 547345
1, 133920, Tempo, 535619
1, 134400, Tempo, 573833
1, 134520, Tempo, 494356
1, 134640, Tempo, 526824
1, 134880, Tempo, 537875
1, 135360, Tempo, 564706
1, 135600, Tempo, 544712
1, 135760, Tempo, 542397
1, 135920, Tempo, 540054
1, 136040, Tempo, 537827
1, 136080, Tempo, 540200
1, 136200, Tempo, 542643
1, 136320, Tempo, 544959
1, 136400, Tempo, 547345
1, 136520, Tempo, 549803
1, 136560, Tempo, 583317
1, 136800, Tempo, 554068
1, 137040, Tempo, 540054
1, 137200, Tempo, 542397
1, 137360, Tempo, 544712
1, 137520, Tempo, 546996
1, 137680, Tempo, 549300
1, 137840, Tempo, 551673
1, 138000, Tempo, 551673
1, 138020, Tempo, 554068
1, 138040, Tempo, 558867
1, 138060, Tempo, 561325
1, 138080, Tempo, 566305
1, 138100, Tempo, 571265
1, 138120, Tempo, 573833
1, 138140, Tempo, 579039
1, 138160, Tempo, 584283
1, 138180, Tempo, 642742
1, 138240, Tempo, 564706
1, 138240, Marker_t, "Teil 4 Wiederholung"
1, 138480, Tempo, 537875
1, 139200, Tempo, 528774
1, 139680, Tempo, 556483
1, 139920, Tempo, 526824
1, 140400, Tempo, 533333
1, 140640, Tempo, 528961
1, 140880, Tempo, 554068
1, 141120, Tempo, 564706
1, 141360, Tempo, 517331
1, 141600, Tempo, 529942
1, 142080, Tempo, 540054
1, 142800, Tempo, 528961
1, 143040, Tempo, 581621
1, 143160, Tempo, 486894
1, 143280, Tempo, 504075
1, 143520, Tempo, 522057
1, 143760, Tempo, 540200
1, 144000, Tempo, 551673
1, 144240, Tempo, 531161
1, 144520, Tempo, 537827
1, 144720, Tempo, 524246
1, 144960, Tempo, 537875
1, 145200, Tempo, 547345
1, 145440, Tempo, 535619
1, 145920, Tempo, 595061
1, 146040, Tempo, 462356
1, 146160, Tempo, 526824
1, 146400, Tempo, 537875
1, 146880, Tempo, 564706
1, 147120, Tempo, 544712
1, 147280, Tempo, 542397
1, 147440, Tempo, 540054
1, 147560, Tempo, 537827
1, 147600, Tempo, 540200
1, 147720, Tempo, 542643
1, 147840, Tempo, 544959
1, 147920, Tempo, 547345
1, 148040, Tempo, 549803
1, 148080, Tempo, 556483
1, 148320, Tempo, 554068
1, 148560, Tempo, 540054
1, 148720, Tempo, 542397
1, 148880, Tempo, 544712
1, 149040, Tempo, 546996
1, 149200, Tempo, 549300
1, 149360, Tempo, 551673
1, 149520, Tempo, 554068
1, 149640, Tempo, 556483
1, 149760, Tempo, 564706
1, 149760, Marker_t, "Teil 5"
1, 150000, Tempo, 537875
1, 150720, Tempo, 528774
1, 151920, Tempo, 511291
1, 152160, Tempo, 522057
1, 152400, Tempo, 540200
1, 152640, Tempo, 564706
1, 152880, Tempo, 517331
1, 153120, Tempo, 529942
1, 153600, Tempo, 528774
1, 154800, Tempo, 511291
1, 155040, Tempo, 522057
1, 155280, Tempo, 540200
1, 155520, Tempo, 551673
1, 155760, Tempo, 531161
1, 156040, Tempo, 537827
1, 156240, Tempo, 524246
1, 156480, Tempo, 537875
1, 156720, Tempo, 547345
1, 156960, Tempo, 535619
1, 157680, Tempo, 554682
1, 157920, Tempo, 574768
1, 158160, Tempo, 612307
1, 158400, Tempo, 564706
1, 158640, Tempo, 537875
1, 159120, Tempo, 540200
1, 159240, Tempo, 542643
1, 159360, Tempo, 544959
1, 159440, Tempo, 547345
1, 159560, Tempo, 549803
1, 159600, Tempo, 549300
1, 159640, Tempo, 546996
1, 159840, Tempo, 542397
1, 160080, Tempo, 551673
1, 160320, Tempo, 549300
1, 160480, Tempo, 551673
1, 160600, Tempo, 554068
1, 160720, Tempo, 556483
1, 160880, Tempo, 558867
1, 161000, Tempo, 561325
1, 161120, Tempo, 563804
1, 161280, Tempo, 546996
1, 162000, Tempo, 533808
1, 162240, Tempo, 515243
1, 162480, Tempo, 556483
1, 162720, Tempo, 546996
1, 163440, Tempo, 533808
1, 163680, Tempo, 515243
1, 163920, Tempo, 554068
1, 164160, Tempo, 546996
1, 164880, Tempo, 533808
1, 165120, Tempo, 515243
1, 165360, Tempo, 554068
1, 165600, Tempo, 579206
1, 165840, Tempo, 579206
1, 166320, Tempo, 627681
1, 166560, Tempo, 685010
1, 166800, Tempo, 1006880
1, 167040, Tempo, 579206
1, 167760, Tempo, 557673
1, 168000, Tempo, 515243
1, 168240, Tempo, 556483
1, 168480, Tempo, 546996
1, 169200, Tempo, 533808
1, 169440, Tempo, 515243
1, 169680, Tempo, 554068
1, 169880, Tempo, 519481
1, 169920, Tempo, 528634
1, 170080, Tempo, 526316
1, 170240, Tempo, 524017
1, 170400, Tempo, 521739
1, 170560, Tempo, 519481
1, 170720, Tempo, 517241
1, 170840, Tempo, 515021
1, 170880, Tempo, 493827
1, 171120, Tempo, 547945
1, 171320, Tempo, 521739
1, 171400, Tempo, 519481
1, 171480, Tempo, 517241
1, 171560, Tempo, 515021
1, 171640, Tempo, 512821
1, 171720, Tempo, 510638
1, 171800, Tempo, 508475
1, 171880, Tempo, 506329
1, 171920, Tempo, 508475
1, 171960, Tempo, 510638
1, 172000, Tempo, 512821
1, 172040, Tempo, 515021
1, 172080, Tempo, 517241
1, 172120, Tempo, 519481
1, 172160, Tempo, 521739
1, 172200, Tempo, 524017
1, 172240, Tempo, 526316
1, 172280, Tempo, 528634
1, 172320, Tempo, 530973
1, 172360, Tempo, 533333
1, 172400, Tempo, 535714
1, 172440, Tempo, 538117
1, 172480, Tempo, 540541
1, 172520, Tempo, 542986
1, 172560, Tempo, 547595
1, 172800, Key_signature, -3, "major"
1, 172800, Tempo, 519481
1, 172800, Marker_t, "Teil 6"
1, 173040, Tempo, 504202
1, 173520, Tempo, 519481
1, 173760, Tempo, 506329
1, 174000, Tempo, 510638
1, 174240, Tempo, 487805
1, 174480, Tempo, 476190
1, 174720, Tempo, 489796
1, 174960, Tempo, 510638
1, 175200, Tempo, 504202
1, 175440, Tempo, 517241
1, 175680, Tempo, 487805
1, 175920, Tempo, 497925
1, 176160, Tempo, 488520
1, 176400, Tempo, 495868
1, 176640, Tempo, 492409
1, 176880, Tempo, 488520
1, 177120, Tempo, 476190
1, 177360, Tempo, 461538
1, 177600, Tempo, 479118
1, 177840, Tempo, 500292
1, 178080, Tempo, 516929
1, 178320, Tempo, 541663
1, 178560, Tempo, 492409
1, 178800, Tempo, 477289
1, 178840, Tempo, 463106
1, 179040, Tempo, 473672
1, 179280, Tempo, 500793
1, 180000, Tempo, 464828
1, 180480, Tempo, 431034
1, 180720, Tempo, 420875
1, 180960, Tempo, 429553
1, 181200, Tempo, 446495
1, 181440, Tempo, 423729
1, 181680, Tempo, 443328
1, 182160, Tempo, 489436
1, 182880, Tempo, 443328
1, 183360, Tempo, 429553
1, 183600, Tempo, 420875
1, 183840, Tempo, 431034
1, 184080, Tempo, 448096
1, 184320, Tempo, 428082
1, 184560, Tempo, 452182
1, 185040, Tempo, 496319
1, 185760, Tempo, 461716
1, 186240, Tempo, 454890
1, 186480, Tempo, 445401
1, 186720, Tempo, 450113
1, 186960, Tempo, 482470
1, 187200, Tempo, 445401
1, 187440, Tempo, 459488
1, 187920, Tempo, 479004
1, 188640, Tempo, 462606
1, 188880, Tempo, 478393
1, 189120, Tempo, 482548
1, 189360, Tempo, 509251
1, 190080, Tempo, 504329
1, 190800, Tempo, 515021
1, 191040, Tempo, 487805
1, 191280, Tempo, 496319
1, 191520, Tempo, 480000
1, 191760, Tempo, 465116
1, 192000, Tempo, 476190
1, 192240, Tempo, 481928
1, 192480, Tempo, 487805
1, 192720, Tempo, 495868
1, 192960, Tempo, 481000
1, 193200, Tempo, 490436
1, 193440, Tempo, 488520
1, 193680, Tempo, 486618
1, 193920, Tempo, 492409
1, 194160, Tempo, 488520
1, 194400, Tempo, 471884
1, 194640, Tempo, 466563
1, 194880, Tempo, 479118
1, 195120, Tempo, 500292
1, 195360, Tempo, 516929
1, 195600, Tempo, 541663
1, 195840, Tempo, 492409
1, 196080, Tempo, 477289
1, 196120, Tempo, 463106
1, 196320, Tempo, 473672
1, 196560, Tempo, 482859
1, 196800, Tempo, 486618
1, 197040, Tempo, 500292
1, 197280, Tempo, 464828
1, 197760, Tempo, 451331
1, 198000, Tempo, 437127
1, 198240, Tempo, 431034
1, 198480, Tempo, 443328
1, 198720, Tempo, 435572
1, 198960, Tempo, 443328
1, 199440, Tempo, 456308
1, 199680, Tempo, 466563
1, 199920, Tempo, 488520
1, 200160, Tempo, 443328
1, 200640, Tempo, 437127
1, 200880, Tempo, 428082
1, 201120, Tempo, 437127
1, 201360, Tempo, 448096
1, 201600, Tempo, 435572
1, 201840, Tempo, 452182
1, 202320, Tempo, 463106
1, 202560, Tempo, 466563
1, 203040, Tempo, 431034
1, 203280, Tempo, 448096
1, 203760, Tempo, 459700
1, 204480, Tempo, 432526
1, 204720, Tempo, 452182
1, 205200, Tempo, 463106
1, 205440, Tempo, 466563
1, 205920, Tempo, 431034
1, 206160, Tempo, 448096
1, 206640, Tempo, 459700
1, 206880, Tempo, 523423
1, 207120, Tempo, 622859
1, 207360, Tempo, 492409
1, 207600, Tempo, 477289
1, 207640, Tempo, 463106
1, 207840, Tempo, 473672
1, 208080, Tempo, 500793
1, 208800, Tempo, 464828
1, 209040, Tempo, 444444
1, 209280, Tempo, 432526
1, 209520, Tempo, 420875
1, 209760, Tempo, 431034
1, 210000, Tempo, 446495
1, 210240, Tempo, 426621
1, 210480, Tempo, 443328
1, 210960, Tempo, 489436
1, 211680, Tempo, 464828
1, 211920, Tempo, 444444
1, 212160, Tempo, 432526
1, 212400, Tempo, 420875
1, 212640, Tempo, 431034
1, 212880, Tempo, 446495
1, 213120, Tempo, 426621
1, 213360, Tempo, 443328
1, 213600, Tempo, 466563
1, 213840, Tempo, 489436
1, 214560, Tempo, 464828
1, 214800, Tempo, 437956
1, 215040, Tempo, 432526
1, 215280, Tempo, 420875
1, 215520, Tempo, 431034
1, 215760, Tempo, 446495
1, 216000, Tempo, 426621
1, 216240, Tempo, 443328
1, 216480, Tempo, 471884
1, 216720, Tempo, 489436
1, 217440, Tempo, 438661
1, 217680, Tempo, 491844
1, 217920, Tempo, 519076
1, 218160, Tempo, 570396
1, 218640, Tempo, 666741
1, 218880, Tempo, 504329
1, 219600, Tempo, 515021
1, 219840, Tempo, 483871
1, 220080, Tempo, 496319
1, 220320, Tempo, 483871
1, 220560, Tempo, 468750
1, 220800, Tempo, 476190
1, 221040, Tempo, 483871
1, 221280, Tempo, 475473
1, 221520, Tempo, 486618
1, 221760, Tempo, 481000
1, 222000, Tempo, 490436
1, 222240, Tempo, 488520
1, 222480, Tempo, 486618
1, 222720, Tempo, 492409
1, 222960, Tempo, 488520
1, 223200, Tempo, 471884
1, 223440, Tempo, 466563
1, 223680, Tempo, 479118
1, 223920, Tempo, 500292
1, 224160, Tempo, 516929
1, 224400, Tempo, 541663
1, 224640, Tempo, 492409
1, 224880, Tempo, 477289
1, 224920, Tempo, 463106
1, 225120, Tempo, 473672
1, 225360, Tempo, 500793
1, 226080, Tempo, 464828
1, 226560, Tempo, 438661
1, 226800, Tempo, 428082
1, 227040, Tempo, 438661
1, 227280, Tempo, 446495
1, 227520, Tempo, 432526
1, 227760, Tempo, 443328
1, 228240, Tempo, 489436
1, 228960, Tempo, 443328
1, 229440, Tempo, 431034
1, 229680, Tempo, 422297
1, 229920, Tempo, 437127
1, 230160, Tempo, 448096
1, 230400, Tempo, 432526
1, 230640, Tempo, 452182
1, 231120, Tempo, 496319
1, 231840, Tempo, 461716
1, 232320, Tempo, 454890
1, 232560, Tempo, 445401
1, 232800, Tempo, 450113
1, 233040, Tempo, 482470
1, 233280, Tempo, 445401
1, 233520, Tempo, 459488
1, 234000, Tempo, 479004
1, 234720, Tempo, 462606
1, 234960, Tempo, 478393
1, 235200, Tempo, 482548
1, 235440, Tempo, 509251
1, 236160, Tempo, 492409
1, 236400, Tempo, 477289
1, 236440, Tempo, 463106
1, 236640, Tempo, 473672
1, 236880, Tempo, 500793
1, 237600, Tempo, 464828
1, 238080, Tempo, 438661
1, 238320, Tempo, 428082
1, 238560, Tempo, 438661
1, 238800, Tempo, 446495
1, 239040, Tempo, 429553
1, 239280, Tempo, 443328
1, 239760, Tempo, 489436
1, 240480, Tempo, 443328
1, 240960, Tempo, 435572
1, 241200, Tempo, 428082
1, 241440, Tempo, 437127
1, 241680, Tempo, 448096
1, 241920, Tempo, 432526
1, 242160, Tempo, 452182
1, 242640, Tempo, 496319
1, 243360, Tempo, 461716
1, 243840, Tempo, 454890
1, 244080, Tempo, 445401
1, 244320, Tempo, 450113
1, 244560, Tempo, 482470
1, 244800, Tempo, 445401
1, 245040, Tempo, 459488
1, 245520, Tempo, 479004
1, 246240, Tempo, 462606
1, 246480, Tempo, 478393
1, 246720, Tempo, 482548
1, 246960, Tempo, 509251
1, 247680, Tempo, 504329
1, 248400, Tempo, 512821
1, 248640, Tempo, 481000
1, 248880, Tempo, 496319
1, 249120, Tempo, 475473
1, 249360, Tempo, 456308
1, 249600, Tempo, 473672
1, 249840, Tempo, 479118
1, 250080, Tempo, 475473
1, 250320, Tempo, 486618
1, 250560, Tempo, 481000
1, 250800, Tempo, 490436
1, 251040, Tempo, 488520
1, 251280, Tempo, 486618
1, 251520, Tempo, 492409
1, 251760, Tempo, 488520
1, 252000, Tempo, 471884
1, 252240, Tempo, 458015
1, 252480, Tempo, 475473
1, 252720, Tempo, 482859
1, 252960, Tempo, 477289
1, 253200, Tempo, 488520
1, 253440, Tempo, 481000
1, 253680, Tempo, 490436
1, 253920, Tempo, 488520
1, 254160, Tempo, 512645
1, 254400, Tempo, 504329
1, 254640, Tempo, 500292
1, 254880, Tempo, 545504
1, 255120, Tempo, 561850
1, 255360, Tempo, 592944
1, 255600, Tempo, 638366
1, 255840, Tempo, 710985
1, 256080, Tempo, 931822
1, 256320, Tempo, 519076
1, 260640, Tempo, 597015
1, 260660, Tempo, 600000
1, 260660, End_track
2, 0, Start_track
2, 0, Title_t, "Piano right"
2, 0, Program_c, 0, 0
2, 0, Control_c, 0, 7, 100
2, 0, Control_c, 0, 10, 64
2, 0, Note_on_c, 0, 58, 38
2, 0, Note_on_c, 0, 67, 49
2, 0, Note_on_c, 0, 63, 41
2, 0, Control_c, 0, 91, 127
2, 0, Text_t, "bdca426d104a26ac9dcb070447587523"
2, 240, Note_on_c, 0, 58, 0
2, 240, Note_on_c, 0, 57, 37
2, 480, Note_on_c, 0, 57, 0
2, 480, Note_on_c, 0, 58, 38
2, 720, Note_on_c, 0, 58, 0
2, 720, Note_on_c, 0, 63, 0
2, 720, Note_on_c, 0, 67, 0
2, 720, Note_on_c, 0, 55, 45
2, 960, Note_on_c, 0, 55, 0
2, 960, Note_on_c, 0, 67, 50
2, 960, Note_on_c, 0, 63, 50
2, 960, Note_on_c, 0, 55, 47
2, 1200, Note_on_c, 0, 55, 0
2, 1200, Note_on_c, 0, 58, 42
2, 1440, Note_on_c, 0, 58, 0
2, 1440, Note_on_c, 0, 63, 0
2, 1440, Note_on_c, 0, 67, 0
2, 1440, Note_on_c, 0, 57, 38
2, 1440, Note_on_c, 0, 62, 41
2, 1440, Note_on_c, 0, 68, 49
2, 1680, Note_on_c, 0, 57, 0
2, 1680, Note_on_c, 0, 58, 38
2, 1920, Note_on_c, 0, 58, 0
2, 1920, Note_on_c, 0, 60, 42
2, 2160, Note_on_c, 0, 60, 0
2, 2160, Note_on_c, 0, 68, 0
2, 2160, Note_on_c, 0, 62, 0
2, 2160, Note_on_c, 0, 61, 39
2, 2400, Note_on_c, 0, 61, 0
2, 2400, Note_on_c, 0, 62, 38
2, 2400, Note_on_c, 0, 68, 48
2, 2640, Note_on_c, 0, 62, 0
2, 2640, Note_on_c, 0, 58, 40
2, 2880, Note_on_c, 0, 58, 0
2, 2880, Note_on_c, 0, 68, 0
2, 2880, Note_on_c, 0, 67, 46
2, 2880, Note_on_c, 0, 58, 36
2, 2880, Note_on_c, 0, 63, 38
2, 3120, Note_on_c, 0, 58, 0
2, 3120, Note_on_c, 0, 57, 38
2, 3360, Note_on_c, 0, 57, 0
2, 3360, Note_on_c, 0, 58, 42
2, 3600, Note_on_c, 0, 58, 0
2, 3600, Note_on_c, 0, 63, 0
2, 3600, Note_on_c, 0, 67, 0
2, 3600, Note_on_c, 0, 55, 45
2, 3840, Note_on_c, 0, 55, 0
2, 3840, Note_on_c, 0, 67, 50
2, 3840, Note_on_c, 0, 63, 50
2, 3840, Note_on_c, 0, 55, 47
2, 4080, Note_on_c, 0, 55, 0
2, 4080, Note_on_c, 0, 58, 41
2, 4320, Note_on_c, 0, 58, 0
2, 4320, Note_on_c, 0, 63, 0
2, 4320, Note_on_c, 0, 67, 0
2, 4320, Note_on_c, 0, 62, 38
2, 4320, Note_on_c, 0, 57, 36
2, 4320, Note_on_c, 0, 68, 46
2, 4560, Note_on_c, 0, 57, 0
2, 4560, Note_on_c, 0, 58, 37
2, 4800, Note_on_c, 0, 58, 0
2, 4800, Note_on_c, 0, 60, 42
2, 5040, Note_on_c, 0, 60, 0
2, 5040, Note_on_c, 0, 68, 0
2, 5040, Note_on_c, 0, 62, 0
2, 5040, Note_on_c, 0, 61, 42
2, 5280, Note_on_c, 0, 61, 0
2, 5280, Note_on_c, 0, 62, 38
2, 5280, Note_on_c, 0, 68, 48
2, 5520, Note_on_c, 0, 62, 0
2, 5520, Note_on_c, 0, 58, 40
2, 5760, Note_on_c, 0, 58, 0
2, 5760, Note_on_c, 0, 68, 0
2, 5760, Note_on_c, 0, 63, 47
2, 5760, Note_on_c, 0, 75, 47
2, 6000, Note_on_c, 0, 75, 0
2, 6000, Note_on_c, 0, 63, 0
2, 6000, Note_on_c, 0, 65, 41
2, 6000, Note_on_c, 0, 77, 41
2, 6240, Note_on_c, 0, 77, 0
2, 6240, Note_on_c, 0, 65, 0
2, 6240, Note_on_c, 0, 79, 49
2, 6480, Note_on_c, 0, 79, 0
2, 6480, Note_on_c, 0, 70, 52
2, 6480, Note_on_c, 0, 82, 52
2, 6840, Note_on_c, 0, 82, 0
2, 6840, Note_on_c, 0, 70, 0
2, 6840, Note_on_c, 0, 70, 43
2, 6840, Note_on_c, 0, 82, 43
2, 7200, Note_on_c, 0, 82, 0
2, 7200, Note_on_c, 0, 70, 0
2, 7440, Note_on_c, 0, 70, 52
2, 7440, Note_on_c, 0, 82, 52
2, 7680, Note_on_c, 0, 82, 0
2, 7680, Note_on_c, 0, 70, 0
2, 7680, Note_on_c, 0, 72, 50
2, 7680, Note_on_c, 0, 84, 50
2, 7920, Note_on_c, 0, 84, 0
2, 7920, Note_on_c, 0, 72, 0
2, 7920, Note_on_c, 0, 74, 55
2, 7920, Note_on_c, 0, 86, 55
2, 8160, Note_on_c, 0, 86, 0
2, 8160, Note_on_c, 0, 74, 0
2, 8160, Note_on_c, 0, 89, 54
2, 8160, Note_on_c, 0, 77, 54
2, 8400, Note_on_c, 0, 77, 0
2, 8400, Note_on_c, 0, 89, 0
2, 8400, Note_on_c, 0, 86, 53
2, 8400, Note_on_c, 0, 74, 53
2, 8640, Note_on_c, 0, 74, 0
2, 8640, Note_on_c, 0, 86, 0
2, 8640, Note_on_c, 0, 84, 55
2, 8640, Note_on_c, 0, 72, 55
2, 8880, Note_on_c, 0, 72, 0
2, 8880, Note_on_c, 0, 84, 0
2, 8880, Note_on_c, 0, 74, 53
2, 8880, Note_on_c, 0, 86, 53
2, 9120, Note_on_c, 0, 86, 0
2, 9120, Note_on_c, 0, 74, 0
2, 9120, Note_on_c, 0, 72, 46
2, 9120, Note_on_c, 0, 84, 46
2, 9360, Note_on_c, 0, 84, 0
2, 9360, Note_on_c, 0, 72, 0
2, 9360, Note_on_c, 0, 67, 51
2, 9360, Note_on_c, 0, 79, 51
2, 9720, Note_on_c, 0, 79, 0
2, 9720, Note_on_c, 0, 67, 0
2, 9720, Note_on_c, 0, 67, 43
2, 9720, Note_on_c, 0, 79, 43
2, 10080, Note_on_c, 0, 79, 0
2, 10080, Note_on_c, 0, 67, 0
2, 10320, Note_on_c, 0, 65, 52
2, 10320, Note_on_c, 0, 77, 52
2, 10560, Note_on_c, 0, 77, 0
2, 10560, Note_on_c, 0, 65, 0
2, 10560, Note_on_c, 0, 67, 50
2, 10560, Note_on_c, 0, 79, 50
2, 10800, Note_on_c, 0, 79, 0
2, 10800, Note_on_c, 0, 67, 0
2, 10800, Note_on_c, 0, 68, 55
2, 10800, Note_on_c, 0, 80, 55
2, 11040, Note_on_c, 0, 80, 0
2, 11040, Note_on_c, 0, 68, 0
2, 11040, Note_on_c, 0, 82, 53
2, 11040, Note_on_c, 0, 70, 53
2, 11280, Note_on_c, 0, 70, 0
2, 11280, Note_on_c, 0, 82, 0
2, 11280, Note_on_c, 0, 80, 53
2, 11280, Note_on_c, 0, 68, 53
2, 11520, Note_on_c, 0, 68, 0
2, 11520, Note_on_c, 0, 80, 0
2, 11520, Note_on_c, 0, 79, 55
2, 11520, Note_on_c, 0, 67, 55
2, 11758, Note_on_c, 0, 67, 0
2, 11760, Note_on_c, 0, 79, 0
2, 11760, Note_on_c, 0, 65, 50
2, 11760, Note_on_c, 0, 77, 50
2, 12000, Note_on_c, 0, 77, 0
2, 12000, Note_on_c, 0, 65, 0
2, 12000, Note_on_c, 0, 63, 46
2, 12000, Note_on_c, 0, 75, 46
2, 12240, Note_on_c, 0, 75, 0
2, 12240, Note_on_c, 0, 63, 0
2, 12240, Note_on_c, 0, 58, 46
2, 12240, Note_on_c, 0, 70, 46
2, 12600, Note_on_c, 0, 70, 0
2, 12600, Note_on_c, 0, 58, 0
2, 12600, Note_on_c, 0, 58, 43
2, 12600, Note_on_c, 0, 70, 43
2, 12960, Note_on_c, 0, 70, 0
2, 12960, Note_on_c, 0, 58, 0
2, 13200, Note_on_c, 0, 62, 46
2, 13200, Note_on_c, 0, 65, 52
2, 13440, Note_on_c, 0, 65, 0
2, 13440, Note_on_c, 0, 67, 49
2, 13680, Note_on_c, 0, 67, 0
2, 13680, Note_on_c, 0, 68, 55
2, 13920, Note_on_c, 0, 68, 0
2, 13920, Note_on_c, 0, 70, 53
2, 14160, Note_on_c, 0, 70, 0
2, 14160, Note_on_c, 0, 68, 53
2, 14280, Note_on_c, 0, 68, 0
2, 14280, Note_on_c, 0, 67, 49
2, 14340, Note_on_c, 0, 67, 0
2, 14340, Note_on_c, 0, 68, 50
2, 14400, Note_on_c, 0, 68, 0
2, 14400, Note_on_c, 0, 62, 0
2, 14400, Note_on_c, 0, 63, 48
2, 14400, Note_on_c, 0, 67, 55
2, 14640, Note_on_c, 0, 67, 0
2, 14640, Note_on_c, 0, 65, 50
2, 14880, Note_on_c, 0, 65, 0
2, 14880, Note_on_c, 0, 63, 0
2, 14880, Note_on_c, 0, 63, 46
2, 15120, Note_on_c, 0, 63, 0
2, 15120, Note_on_c, 0, 58, 51
2, 15358, Note_on_c, 0, 58, 0
2, 15360, Note_on_c, 0, 60, 50
2, 15600, Note_on_c, 0, 60, 0
2, 15600, Note_on_c, 0, 63, 50
2, 15840, Note_on_c, 0, 63, 0
2, 15840, Note_on_c, 0, 56, 48
2, 15840, Note_on_c, 0, 62, 55
2, 16078, Note_on_c, 0, 56, 0
2, 16080, Note_on_c, 0, 62, 0
2, 16080, Note_on_c, 0, 65, 50
2, 16320, Note_on_c, 0, 65, 0
2, 16320, Note_on_c, 0, 62, 46
2, 16440, Note_on_c, 0, 62, 0
2, 16440, Note_on_c, 0, 60, 41
2, 16500, Note_on_c, 0, 60, 0
2, 16500, Note_on_c, 0, 62, 41
2, 16560, Note_on_c, 0, 62, 0
2, 16560, Note_on_c, 0, 60, 50
2, 16920, Note_on_c, 0, 60, 0
2, 16920, Note_on_c, 0, 58, 45
2, 16920, Note_on_c, 0, 56, 45
2, 17280, Note_on_c, 0, 56, 0
2, 17280, Note_on_c, 0, 58, 0
2, 17280, Note_on_c, 0, 58, 38
2, 17280, Note_on_c, 0, 67, 49
2, 17280, Note_on_c, 0, 63, 41
2, 17520, Note_on_c, 0, 58, 0
2, 17520, Note_on_c, 0, 57, 41
2, 17760, Note_on_c, 0, 57, 0
2, 17760, Note_on_c, 0, 58, 41
2, 18000, Note_on_c, 0, 58, 0
2, 18000, Note_on_c, 0, 63, 0
2, 18000, Note_on_c, 0, 67, 0
2, 18000, Note_on_c, 0, 55, 47
2, 18240, Note_on_c, 0, 55, 0
2, 18240, Note_on_c, 0, 67, 50
2, 18240, Note_on_c, 0, 63, 50
2, 18240, Note_on_c, 0, 55, 47
2, 18480, Note_on_c, 0, 55, 0
2, 18480, Note_on_c, 0, 58, 42
2, 18720, Note_on_c, 0, 58, 0
2, 18720, Note_on_c, 0, 63, 0
2, 18720, Note_on_c, 0, 67, 0
2, 18720, Note_on_c, 0, 57, 38
2, 18720, Note_on_c, 0, 62, 41
2, 18720, Note_on_c, 0, 68, 49
2, 18960, Note_on_c, 0, 57, 0
2, 18960, Note_on_c, 0, 58, 38
2, 19200, Note_on_c, 0, 58, 0
2, 19200, Note_on_c, 0, 60, 42
2, 19440, Note_on_c, 0, 60, 0
2, 19440, Note_on_c, 0, 68, 0
2, 19440, Note_on_c, 0, 62, 0
2, 19440, Note_on_c, 0, 61, 39
2, 19680, Note_on_c, 0, 61, 0
2, 19680, Note_on_c, 0, 62, 38
2, 19680, Note_on_c, 0, 68, 48
2, 19920, Note_on_c, 0, 62, 0
2, 19920, Note_on_c, 0, 58, 40
2, 20160, Note_on_c, 0, 58, 0
2, 20160, Note_on_c, 0, 68, 0
2, 20160, Note_on_c, 0, 58, 36
2, 20160, Note_on_c, 0, 67, 46
2, 20160, Note_on_c, 0, 63, 38
2, 20400, Note_on_c, 0, 58, 0
2, 20400, Note_on_c, 0, 57, 44
2, 20640, Note_on_c, 0, 57, 0
2, 20640, Note_on_c, 0, 58, 44
2, 20880, Note_on_c, 0, 58, 0
2, 20880, Note_on_c, 0, 63, 0
2, 20880, Note_on_c, 0, 67, 0
2, 20880, Note_on_c, 0, 55, 47
2, 21120, Note_on_c, 0, 55, 0
2, 21120, Note_on_c, 0, 67, 50
2, 21120, Note_on_c, 0, 63, 50
2, 21120, Note_on_c, 0, 55, 47
2, 21360, Note_on_c, 0, 55, 0
2, 21360, Note_on_c, 0, 58, 41
2, 21600, Note_on_c, 0, 58, 0
2, 21600, Note_on_c, 0, 63, 0
2, 21600, Note_on_c, 0, 67, 0
2, 21600, Note_on_c, 0, 57, 36
2, 21600, Note_on_c, 0, 62, 38
2, 21600, Note_on_c, 0, 68, 46
2, 21840, Note_on_c, 0, 57, 0
2, 21840, Note_on_c, 0, 58, 39
2, 22080, Note_on_c, 0, 58, 0
2, 22080, Note_on_c, 0, 60, 42
2, 22320, Note_on_c, 0, 60, 0
2, 22320, Note_on_c, 0, 68, 0
2, 22320, Note_on_c, 0, 62, 0
2, 22320, Note_on_c, 0, 61, 39
2, 22560, Note_on_c, 0, 61, 0
2, 22560, Note_on_c, 0, 62, 38
2, 22560, Note_on_c, 0, 68, 48
2, 22800, Note_on_c, 0, 62, 0
2, 22800, Note_on_c, 0, 58, 40
2, 23040, Note_on_c, 0, 58, 0
2, 23040, Note_on_c, 0, 68, 0
2, 23040, Note_on_c, 0, 63, 47
2, 23040, Note_on_c, 0, 75, 47
2, 23280, Note_on_c, 0, 75, 0
2, 23280, Note_on_c, 0, 63, 0
2, 23280, Note_on_c, 0, 65, 41
2, 23280, Note_on_c, 0, 77, 41
2, 23520, Note_on_c, 0, 77, 0
2, 23520, Note_on_c, 0, 65, 0
2, 23520, Note_on_c, 0, 79, 42
2, 23760, Note_on_c, 0, 79, 0
2, 23760, Note_on_c, 0, 70, 54
2, 23760, Note_on_c, 0, 82, 54
2, 24120, Note_on_c, 0, 82, 0
2, 24120, Note_on_c, 0, 70, 0
2, 24120, Note_on_c, 0, 70, 43
2, 24120, Note_on_c, 0, 82, 43
2, 24480, Note_on_c, 0, 82, 0
2, 24480, Note_on_c, 0, 70, 0
2, 24720, Note_on_c, 0, 70, 52
2, 24720, Note_on_c, 0, 82, 52
2, 24960, Note_on_c, 0, 82, 0
2, 24960, Note_on_c, 0, 70, 0
2, 24960, Note_on_c, 0, 72, 48
2, 24960, Note_on_c, 0, 84, 48
2, 25200, Note_on_c, 0, 84, 0
2, 25200, Note_on_c, 0, 72, 0
2, 25200, Note_on_c, 0, 74, 55
2, 25200, Note_on_c, 0, 86, 55
2, 25440, Note_on_c, 0, 86, 0
2, 25440, Note_on_c, 0, 74, 0
2, 25440, Note_on_c, 0, 89, 50
2, 25440, Note_on_c, 0, 77, 50
2, 25680, Note_on_c, 0, 77, 0
2, 25680, Note_on_c, 0, 89, 0
2, 25680, Note_on_c, 0, 86, 53
2, 25680, Note_on_c, 0, 74, 53
2, 25920, Note_on_c, 0, 74, 0
2, 25920, Note_on_c, 0, 86, 0
2, 25920, Note_on_c, 0, 84, 55
2, 25920, Note_on_c, 0, 72, 55
2, 26160, Note_on_c, 0, 72, 0
2, 26160, Note_on_c, 0, 84, 0
2, 26160, Note_on_c, 0, 74, 53
2, 26160, Note_on_c, 0, 86, 53
2, 26400, Note_on_c, 0, 86, 0
2, 26400, Note_on_c, 0, 74, 0
2, 26400, Note_on_c, 0, 72, 46
2, 26400, Note_on_c, 0, 84, 46
2, 26640, Note_on_c, 0, 84, 0
2, 26640, Note_on_c, 0, 72, 0
2, 26640, Note_on_c, 0, 67, 51
2, 26640, Note_on_c, 0, 79, 51
2, 27000, Note_on_c, 0, 79, 0
2, 27000, Note_on_c, 0, 67, 0
2, 27000, Note_on_c, 0, 67, 43
2, 27000, Note_on_c, 0, 79, 43
2, 27360, Note_on_c, 0, 79, 0
2, 27360, Note_on_c, 0, 67, 0
2, 27600, Note_on_c, 0, 65, 52
2, 27600, Note_on_c, 0, 77, 52
2, 27840, Note_on_c, 0, 77, 0
2, 27840, Note_on_c, 0, 65, 0
2, 27840, Note_on_c, 0, 67, 53
2, 27840, Note_on_c, 0, 79, 53
2, 28080, Note_on_c, 0, 79, 0
2, 28080, Note_on_c, 0, 67, 0
2, 28080, Note_on_c, 0, 68, 53
2, 28080, Note_on_c, 0, 80, 53
2, 28320, Note_on_c, 0, 80, 0
2, 28320, Note_on_c, 0, 68, 0
2, 28320, Note_on_c, 0, 82, 53
2, 28320, Note_on_c, 0, 70, 53
2, 28560, Note_on_c, 0, 70, 0
2, 28560, Note_on_c, 0, 82, 0
2, 28560, Note_on_c, 0, 80, 53
2, 28560, Note_on_c, 0, 68, 53
2, 28800, Note_on_c, 0, 68, 0
2, 28800, Note_on_c, 0, 80, 0
2, 28800, Note_on_c, 0, 79, 55
2, 28800, Note_on_c, 0, 67, 55
2, 29038, Note_on_c, 0, 67, 0
2, 29040, Note_on_c, 0, 79, 0
2, 29040, Note_on_c, 0, 65, 48
2, 29040, Note_on_c, 0, 77, 48
2, 29280, Note_on_c, 0, 77, 0
2, 29280, Note_on_c, 0, 65, 0
2, 29280, Note_on_c, 0, 63, 46
2, 29280, Note_on_c, 0, 75, 46
2, 29520, Note_on_c, 0, 75, 0
2, 29520, Note_on_c, 0, 63, 0
2, 29520, Note_on_c, 0, 58, 49
2, 29520, Note_on_c, 0, 70, 49
2, 29880, Note_on_c, 0, 70, 0
2, 29880, Note_on_c, 0, 58, 0
2, 29880, Note_on_c, 0, 58, 43
2, 29880, Note_on_c, 0, 70, 43
2, 30240, Note_on_c, 0, 70, 0
2, 30240, Note_on_c, 0, 58, 0
2, 30480, Note_on_c, 0, 62, 46
2, 30480, Note_on_c, 0, 65, 52
2, 30720, Note_on_c, 0, 65, 0
2, 30720, Note_on_c, 0, 67, 53
2, 30960, Note_on_c, 0, 67, 0
2, 30960, Note_on_c, 0, 68, 55
2, 31200, Note_on_c, 0, 68, 0
2, 31200, Note_on_c, 0, 70, 53
2, 31440, Note_on_c, 0, 70, 0
2, 31440, Note_on_c, 0, 68, 53
2, 31560, Note_on_c, 0, 68, 0
2, 31560, Note_on_c, 0, 67, 49
2, 31620, Note_on_c, 0, 67, 0
2, 31620, Note_on_c, 0, 68, 50
2, 31680, Note_on_c, 0, 68, 0
2, 31680, Note_on_c, 0, 62, 0
2, 31680, Note_on_c, 0, 63, 48
2, 31680, Note_on_c, 0, 67, 55
2, 31920, Note_on_c, 0, 67, 0
2, 31920, Note_on_c, 0, 65, 50
2, 32160, Note_on_c, 0, 65, 0
2, 32160, Note_on_c, 0, 63, 0
2, 32160, Note_on_c, 0, 63, 46
2, 32400, Note_on_c, 0, 63, 0
2, 32400, Note_on_c, 0, 58, 51
2, 32638, Note_on_c, 0, 58, 0
2, 32640, Note_on_c, 0, 60, 50
2, 32880, Note_on_c, 0, 60, 0
2, 32880, Note_on_c, 0, 63, 50
2, 33120, Note_on_c, 0, 63, 0
2, 33120, Note_on_c, 0, 56, 48
2, 33120, Note_on_c, 0, 62, 55
2, 33358, Note_on_c, 0, 56, 0
2, 33360, Note_on_c, 0, 62, 0
2, 33360, Note_on_c, 0, 65, 50
2, 33600, Note_on_c, 0, 65, 0
2, 33600, Note_on_c, 0, 62, 46
2, 33720, Note_on_c, 0, 62, 0
2, 33720, Note_on_c, 0, 60, 41
2, 33780, Note_on_c, 0, 60, 0
2, 33780, Note_on_c, 0, 62, 41
2, 33840, Note_on_c, 0, 62, 0
2, 33840, Note_on_c, 0, 60, 50
2, 34200, Note_on_c, 0, 60, 0
2, 34200, Note_on_c, 0, 58, 45
2, 34200, Note_on_c, 0, 56, 45
2, 34560, Note_on_c, 0, 56, 0
2, 34560, Note_on_c, 0, 58, 0
2, 34560, Note_on_c, 0, 58, 38
2, 34560, Note_on_c, 0, 67, 49
2, 34560, Note_on_c, 0, 63, 41
2, 34800, Note_on_c, 0, 58, 0
2, 34800, Note_on_c, 0, 57, 44
2, 35040, Note_on_c, 0, 57, 0
2, 35040, Note_on_c, 0, 58, 44
2, 35280, Note_on_c, 0, 58, 0
2, 35280, Note_on_c, 0, 63, 0
2, 35280, Note_on_c, 0, 67, 0
2, 35280, Note_on_c, 0, 55, 47
2, 35520, Note_on_c, 0, 55, 0
2, 35520, Note_on_c, 0, 67, 50
2, 35520, Note_on_c, 0, 63, 50
2, 35520, Note_on_c, 0, 55, 47
2, 35760, Note_on_c, 0, 55, 0
2, 35760, Note_on_c, 0, 58, 42
2, 36000, Note_on_c, 0, 58, 0
2, 36000, Note_on_c, 0, 63, 0
2, 36000, Note_on_c, 0, 67, 0
2, 36000, Note_on_c, 0, 57, 38
2, 36000, Note_on_c, 0, 62, 41
2, 36000, Note_on_c, 0, 68, 49
2, 36240, Note_on_c, 0, 57, 0
2, 36240, Note_on_c, 0, 58, 42
2, 36480, Note_on_c, 0, 58, 0
2, 36480, Note_on_c, 0, 60, 42
2, 36720, Note_on_c, 0, 60, 0
2, 36720, Note_on_c, 0, 68, 0
2, 36720, Note_on_c, 0, 62, 0
2, 36720, Note_on_c, 0, 61, 42
2, 36960, Note_on_c, 0, 61, 0
2, 36960, Note_on_c, 0, 62, 38
2, 36960, Note_on_c, 0, 68, 48
2, 37200, Note_on_c, 0, 62, 0
2, 37200, Note_on_c, 0, 58, 40
2, 37440, Note_on_c, 0, 58, 0
2, 37440, Note_on_c, 0, 68, 0
2, 37440, Note_on_c, 0, 58, 36
2, 37440, Note_on_c, 0, 67, 46
2, 37440, Note_on_c, 0, 63, 38
2, 37680, Note_on_c, 0, 58, 0
2, 37680, Note_on_c, 0, 57, 44
2, 37920, Note_on_c, 0, 57, 0
2, 37920, Note_on_c, 0, 58, 44
2, 38160, Note_on_c, 0, 58, 0
2, 38160, Note_on_c, 0, 63, 0
2, 38160, Note_on_c, 0, 67, 0
2, 38160, Note_on_c, 0, 55, 47
2, 38400, Note_on_c, 0, 55, 0
2, 38400, Note_on_c, 0, 67, 50
2, 38400, Note_on_c, 0, 63, 50
2, 38400, Note_on_c, 0, 55, 47
2, 38640, Note_on_c, 0, 55, 0
2, 38640, Note_on_c, 0, 58, 41
2, 38880, Note_on_c, 0, 58, 0
2, 38880, Note_on_c, 0, 63, 0
2, 38880, Note_on_c, 0, 67, 0
2, 38880, Note_on_c, 0, 57, 36
2, 38880, Note_on_c, 0, 62, 38
2, 38880, Note_on_c, 0, 68, 46
2, 39120, Note_on_c, 0, 57, 0
2, 39120, Note_on_c, 0, 58, 42
2, 39360, Note_on_c, 0, 58, 0
2, 39360, Note_on_c, 0, 60, 42
2, 39600, Note_on_c, 0, 60, 0
2, 39600, Note_on_c, 0, 68, 0
2, 39600, Note_on_c, 0, 62, 0
2, 39600, Note_on_c, 0, 61, 38
2, 39840, Note_on_c, 0, 61, 0
2, 39840, Note_on_c, 0, 62, 38
2, 39840, Note_on_c, 0, 68, 48
2, 40080, Note_on_c, 0, 62, 0
2, 40080, Note_on_c, 0, 58, 40
2, 40320, Note_on_c, 0, 58, 0
2, 40320, Note_on_c, 0, 68, 0
2, 40320, Note_on_c, 0, 63, 47
2, 40320, Note_on_c, 0, 75, 47
2, 40560, Note_on_c, 0, 75, 0
2, 40560, Note_on_c, 0, 63, 0
2, 40560, Note_on_c, 0, 65, 46
2, 40560, Note_on_c, 0, 77, 46
2, 40800, Note_on_c, 0, 77, 0
2, 40800, Note_on_c, 0, 65, 0
2, 40800, Note_on_c, 0, 79, 42
2, 41040, Note_on_c, 0, 79, 0
2, 41040, Note_on_c, 0, 70, 53
2, 41040, Note_on_c, 0, 82, 53
2, 41760, Note_on_c, 0, 82, 0
2, 41760, Note_on_c, 0, 70, 0
2, 42000, Note_on_c, 0, 70, 52
2, 42000, Note_on_c, 0, 82, 52
2, 42240, Note_on_c, 0, 82, 0
2, 42240, Note_on_c, 0, 70, 0
2, 42240, Note_on_c, 0, 72, 50
2, 42240, Note_on_c, 0, 84, 50
2, 42480, Note_on_c, 0, 84, 0
2, 42480, Note_on_c, 0, 72, 0
2, 42480, Note_on_c, 0, 73, 55
2, 42480, Note_on_c, 0, 85, 55
2, 42720, Note_on_c, 0, 85, 0
2, 42720, Note_on_c, 0, 73, 0
2, 42720, Note_on_c, 0, 89, 47
2, 42720, Note_on_c, 0, 77, 38
2, 42960, Note_on_c, 0, 77, 0
2, 42960, Note_on_c, 0, 89, 0
2, 42960, Note_on_c, 0, 85, 53
2, 42960, Note_on_c, 0, 73, 53
2, 43200, Note_on_c, 0, 73, 0
2, 43200, Note_on_c, 0, 85, 0
2, 43200, Note_on_c, 0, 84, 55
2, 43200, Note_on_c, 0, 72, 55
2, 43440, Note_on_c, 0, 72, 0
2, 43440, Note_on_c, 0, 84, 0
2, 43440, Note_on_c, 0, 70, 52
2, 43440, Note_on_c, 0, 82, 52
2, 43680, Note_on_c, 0, 82, 0
2, 43680, Note_on_c, 0, 70, 0
2, 43680, Note_on_c, 0, 63, 46
2, 43680, Note_on_c, 0, 75, 46
2, 43920, Note_on_c, 0, 75, 0
2, 43920, Note_on_c, 0, 63, 0
2, 43920, Note_on_c, 0, 63, 51
2, 43920, Note_on_c, 0, 75, 51
2, 44160, Note_on_c, 0, 75, 0
2, 44160, Note_on_c, 0, 63, 0
2, 44160, Note_on_c, 0, 65, 49
2, 44160, Note_on_c, 0, 77, 51
2, 44640, Note_on_c, 0, 77, 0
2, 44640, Note_on_c, 0, 65, 0
2, 44880, Note_on_c, 0, 67, 52
2, 44880, Note_on_c, 0, 79, 52
2, 45120, Note_on_c, 0, 79, 0
2, 45120, Note_on_c, 0, 67, 0
2, 45120, Note_on_c, 0, 68, 49
2, 45120, Note_on_c, 0, 80, 49
2, 45360, Note_on_c, 0, 80, 0
2, 45360, Note_on_c, 0, 68, 0
2, 45360, Note_on_c, 0, 70, 55
2, 45360, Note_on_c, 0, 82, 55
2, 45600, Note_on_c, 0, 82, 0
2, 45600, Note_on_c, 0, 70, 0
2, 45600, Note_on_c, 0, 87, 55
2, 45600, Note_on_c, 0, 75, 55
2, 45840, Note_on_c, 0, 75, 0
2, 45840, Note_on_c, 0, 87, 0
2, 45840, Note_on_c, 0, 84, 49
2, 45840, Note_on_c, 0, 72, 49
2, 46080, Note_on_c, 0, 72, 0
2, 46080, Note_on_c, 0, 84, 0
2, 46080, Note_on_c, 0, 82, 55
2, 46080, Note_on_c, 0, 70, 55
2, 46320, Note_on_c, 0, 70, 0
2, 46320, Note_on_c, 0, 82, 0
2, 46320, Note_on_c, 0, 68, 50
2, 46320, Note_on_c, 0, 80, 50
2, 46560, Note_on_c, 0, 80, 0
2, 46560, Note_on_c, 0, 68, 0
2, 46560, Note_on_c, 0, 63, 46
2, 46560, Note_on_c, 0, 75, 46
2, 46800, Note_on_c, 0, 75, 0
2, 46800, Note_on_c, 0, 63, 0
2, 46800, Note_on_c, 0, 63, 51
2, 46800, Note_on_c, 0, 75, 51
2, 47040, Note_on_c, 0, 75, 0
2, 47040, Note_on_c, 0, 63, 0
2, 47040, Note_on_c, 0, 68, 55
2, 47040, Note_on_c, 0, 80, 55
2, 47760, Note_on_c, 0, 80, 0
2, 47760, Note_on_c, 0, 68, 0
2, 47760, Note_on_c, 0, 72, 52
2, 47760, Note_on_c, 0, 75, 52
2, 47760, Note_on_c, 0, 84, 61
2, 47760, Note_on_c, 0, 80, 61
2, 48480, Note_on_c, 0, 80, 0
2, 48480, Note_on_c, 0, 72, 0
2, 48480, Note_on_c, 0, 75, 0
2, 48480, Note_on_c, 0, 84, 0
2, 48480, Note_on_c, 0, 87, 67
2, 48480, Note_on_c, 0, 84, 67
2, 48480, Note_on_c, 0, 80, 55
2, 48480, Note_on_c, 0, 75, 55
2, 48960, Note_on_c, 0, 75, 0
2, 48960, Note_on_c, 0, 87, 0
2, 48960, Note_on_c, 0, 84, 0
2, 48960, Note_on_c, 0, 80, 0
2, 49200, Note_on_c, 0, 63, 57
2, 49200, Note_on_c, 0, 75, 57
2, 49920, Note_on_c, 0, 75, 0
2, 49920, Note_on_c, 0, 63, 0
2, 49920, Note_on_c, 0, 68, 63
2, 49920, Note_on_c, 0, 80, 64
2, 50640, Note_on_c, 0, 80, 0
2, 50640, Note_on_c, 0, 68, 0
2, 50640, Note_on_c, 0, 71, 56
2, 50640, Note_on_c, 0, 75, 56
2, 50640, Note_on_c, 0, 83, 67
2, 50640, Note_on_c, 0, 80, 67
2, 51360, Note_on_c, 0, 80, 0
2, 51360, Note_on_c, 0, 71, 0
2, 51360, Note_on_c, 0, 75, 0
2, 51360, Note_on_c, 0, 83, 0
2, 51360, Note_on_c, 0, 87, 71
2, 51360, Note_on_c, 0, 83, 71
2, 51360, Note_on_c, 0, 80, 59
2, 51360, Note_on_c, 0, 75, 59
2, 51840, Note_on_c, 0, 75, 0
2, 51840, Note_on_c, 0, 87, 0
2, 51840, Note_on_c, 0, 83, 0
2, 51840, Note_on_c, 0, 80, 0
2, 51840, Note_on_c, 0, 63, 46
2, 51840, Note_on_c, 0, 75, 60
2, 52080, Note_on_c, 0, 75, 0
2, 52080, Note_on_c, 0, 63, 0
2, 52080, Note_on_c, 0, 65, 56
2, 52080, Note_on_c, 0, 77, 56
2, 52320, Note_on_c, 0, 77, 0
2, 52320, Note_on_c, 0, 65, 0
2, 52320, Note_on_c, 0, 79, 55
2, 52560, Note_on_c, 0, 79, 0
2, 52560, Note_on_c, 0, 70, 54
2, 52560, Note_on_c, 0, 82, 66
2, 52920, Note_on_c, 0, 82, 0
2, 52920, Note_on_c, 0, 70, 0
2, 52920, Note_on_c, 0, 70, 43
2, 52920, Note_on_c, 0, 82, 53
2, 53280, Note_on_c, 0, 82, 0
2, 53280, Note_on_c, 0, 70, 0
2, 53520, Note_on_c, 0, 70, 52
2, 53520, Note_on_c, 0, 82, 65
2, 53760, Note_on_c, 0, 82, 0
2, 53760, Note_on_c, 0, 70, 0
2, 53760, Note_on_c, 0, 72, 60
2, 53760, Note_on_c, 0, 84, 60
2, 54000, Note_on_c, 0, 84, 0
2, 54000, Note_on_c, 0, 72, 0
2, 54000, Note_on_c, 0, 74, 66
2, 54000, Note_on_c, 0, 86, 66
2, 54240, Note_on_c, 0, 86, 0
2, 54240, Note_on_c, 0, 74, 0
2, 54240, Note_on_c, 0, 89, 61
2, 54240, Note_on_c, 0, 77, 54
2, 54480, Note_on_c, 0, 77, 0
2, 54480, Note_on_c, 0, 89, 0
2, 54480, Note_on_c, 0, 86, 66
2, 54480, Note_on_c, 0, 74, 53
2, 54720, Note_on_c, 0, 74, 0
2, 54720, Note_on_c, 0, 86, 0
2, 54720, Note_on_c, 0, 84, 68
2, 54720, Note_on_c, 0, 72, 68
2, 54960, Note_on_c, 0, 72, 0
2, 54960, Note_on_c, 0, 84, 0
2, 54960, Note_on_c, 0, 74, 53
2, 54960, Note_on_c, 0, 86, 66
2, 55200, Note_on_c, 0, 86, 0
2, 55200, Note_on_c, 0, 74, 0
2, 55200, Note_on_c, 0, 72, 45
2, 55200, Note_on_c, 0, 84, 57
2, 55440, Note_on_c, 0, 84, 0
2, 55440, Note_on_c, 0, 72, 0
2, 55440, Note_on_c, 0, 67, 51
2, 55440, Note_on_c, 0, 79, 63
2, 55800, Note_on_c, 0, 79, 0
2, 55800, Note_on_c, 0, 67, 0
2, 55800, Note_on_c, 0, 67, 43
2, 55800, Note_on_c, 0, 79, 53
2, 56160, Note_on_c, 0, 79, 0
2, 56160, Note_on_c, 0, 67, 0
2, 56400, Note_on_c, 0, 70, 52
2, 56400, Note_on_c, 0, 82, 62
2, 56640, Note_on_c, 0, 82, 0
2, 56640, Note_on_c, 0, 70, 0
2, 56640, Note_on_c, 0, 72, 51
2, 56640, Note_on_c, 0, 84, 51
2, 56880, Note_on_c, 0, 84, 0
2, 56880, Note_on_c, 0, 72, 0
2, 56880, Note_on_c, 0, 70, 55
2, 56880, Note_on_c, 0, 82, 65
2, 57120, Note_on_c, 0, 82, 0
2, 57120, Note_on_c, 0, 70, 0
2, 57120, Note_on_c, 0, 80, 60
2, 57120, Note_on_c, 0, 68, 51
2, 57360, Note_on_c, 0, 68, 0
2, 57360, Note_on_c, 0, 80, 0
2, 57360, Note_on_c, 0, 79, 58
2, 57360, Note_on_c, 0, 67, 49
2, 57600, Note_on_c, 0, 67, 0
2, 57600, Note_on_c, 0, 79, 0
2, 57600, Note_on_c, 0, 77, 62
2, 57600, Note_on_c, 0, 65, 52
2, 57840, Note_on_c, 0, 65, 0
2, 57840, Note_on_c, 0, 77, 0
2, 57840, Note_on_c, 0, 67, 49
2, 57840, Note_on_c, 0, 79, 58
2, 58080, Note_on_c, 0, 79, 0
2, 58080, Note_on_c, 0, 67, 0
2, 58080, Note_on_c, 0, 68, 47
2, 58080, Note_on_c, 0, 80, 56
2, 58320, Note_on_c, 0, 80, 0
2, 58320, Note_on_c, 0, 68, 0
2, 58320, Note_on_c, 0, 75, 62
2, 58320, Note_on_c, 0, 87, 66
2, 58680, Note_on_c, 0, 87, 0
2, 58680, Note_on_c, 0, 75, 0
2, 58680, Note_on_c, 0, 72, 51
2, 58680, Note_on_c, 0, 84, 55
2, 59040, Note_on_c, 0, 84, 0
2, 59040, Note_on_c, 0, 72, 0
2, 59280, Note_on_c, 0, 72, 52
2, 59280, Note_on_c, 0, 84, 62
2, 59520, Note_on_c, 0, 84, 0
2, 59520, Note_on_c, 0, 72, 0
2, 59520, Note_on_c, 0, 75, 49
2, 59520, Note_on_c, 0, 87, 58
2, 59760, Note_on_c, 0, 87, 0
2, 59760, Note_on_c, 0, 75, 0
2, 59760, Note_on_c, 0, 72, 54
2, 59760, Note_on_c, 0, 84, 60
2, 60000, Note_on_c, 0, 84, 0
2, 60000, Note_on_c, 0, 72, 0
2, 60000, Note_on_c, 0, 80, 57
2, 60000, Note_on_c, 0, 68, 52
2, 60240, Note_on_c, 0, 68, 0
2, 60240, Note_on_c, 0, 80, 0
2, 60240, Note_on_c, 0, 79, 58
2, 60240, Note_on_c, 0, 67, 49
2, 60480, Note_on_c, 0, 67, 0
2, 60480, Note_on_c, 0, 79, 0
2, 60480, Note_on_c, 0, 77, 58
2, 60480, Note_on_c, 0, 65, 49
2, 60720, Note_on_c, 0, 65, 0
2, 60720, Note_on_c, 0, 77, 0
2, 60720, Note_on_c, 0, 67, 49
2, 60720, Note_on_c, 0, 79, 58
2, 60960, Note_on_c, 0, 79, 0
2, 60960, Note_on_c, 0, 67, 0
2, 60960, Note_on_c, 0, 68, 47
2, 60960, Note_on_c, 0, 80, 56
2, 61200, Note_on_c, 0, 80, 0
2, 61200, Note_on_c, 0, 68, 0
2, 61200, Note_on_c, 0, 74, 57
2, 61200, Note_on_c, 0, 86, 68
2, 61560, Note_on_c, 0, 86, 0
2, 61560, Note_on_c, 0, 74, 0
2, 61560, Note_on_c, 0, 72, 48
2, 61560, Note_on_c, 0, 84, 57
2, 62160, Note_on_c, 0, 84, 0
2, 62160, Note_on_c, 0, 72, 0
2, 62160, Note_on_c, 0, 64, 44
2, 62160, Note_on_c, 0, 76, 52
2, 62400, Note_on_c, 0, 76, 0
2, 62400, Note_on_c, 0, 64, 0
2, 62400, Note_on_c, 0, 65, 40
2, 62400, Note_on_c, 0, 77, 48
2, 62640, Note_on_c, 0, 77, 0
2, 62640, Note_on_c, 0, 65, 0
2, 62640, Note_on_c, 0, 68, 47
2, 62640, Note_on_c, 0, 80, 57
2, 63000, Note_on_c, 0, 80, 0
2, 63000, Note_on_c, 0, 68, 0
2, 63000, Note_on_c, 0, 67, 43
2, 63000, Note_on_c, 0, 79, 51
2, 63360, Note_on_c, 0, 79, 0
2, 63360, Note_on_c, 0, 67, 0
2, 63360, Note_on_c, 0, 58, 38
2, 63360, Note_on_c, 0, 67, 49
2, 63360, Note_on_c, 0, 63, 41
2, 63600, Note_on_c, 0, 58, 0
2, 63600, Note_on_c, 0, 57, 44
2, 63840, Note_on_c, 0, 57, 0
2, 63840, Note_on_c, 0, 58, 44
2, 64080, Note_on_c, 0, 58, 0
2, 64080, Note_on_c, 0, 63, 0
2, 64080, Note_on_c, 0, 67, 0
2, 64080, Note_on_c, 0, 55, 47
2, 64320, Note_on_c, 0, 55, 0
2, 64320, Note_on_c, 0, 67, 50
2, 64320, Note_on_c, 0, 63, 50
2, 64320, Note_on_c, 0, 55, 47
2, 64560, Note_on_c, 0, 55, 0
2, 64560, Note_on_c, 0, 58, 42
2, 64800, Note_on_c, 0, 58, 0
2, 64800, Note_on_c, 0, 63, 0
2, 64800, Note_on_c, 0, 67, 0
2, 64800, Note_on_c, 0, 57, 38
2, 64800, Note_on_c, 0, 62, 41
2, 64800, Note_on_c, 0, 68, 49
2, 65040, Note_on_c, 0, 57, 0
2, 65040, Note_on_c, 0, 58, 37
2, 65280, Note_on_c, 0, 58, 0
2, 65280, Note_on_c, 0, 60, 42
2, 65520, Note_on_c, 0, 60, 0
2, 65520, Note_on_c, 0, 68, 0
2, 65520, Note_on_c, 0, 62, 0
2, 65520, Note_on_c, 0, 61, 38
2, 65760, Note_on_c, 0, 61, 0
2, 65760, Note_on_c, 0, 62, 38
2, 65760, Note_on_c, 0, 68, 48
2, 66000, Note_on_c, 0, 62, 0
2, 66000, Note_on_c, 0, 58, 40
2, 66240, Note_on_c, 0, 58, 0
2, 66240, Note_on_c, 0, 68, 0
2, 66240, Note_on_c, 0, 58, 36
2, 66240, Note_on_c, 0, 67, 46
2, 66240, Note_on_c, 0, 63, 38
2, 66480, Note_on_c, 0, 58, 0
2, 66480, Note_on_c, 0, 57, 40
2, 66720, Note_on_c, 0, 57, 0
2, 66720, Note_on_c, 0, 58, 44
2, 66960, Note_on_c, 0, 58, 0
2, 66960, Note_on_c, 0, 63, 0
2, 66960, Note_on_c, 0, 67, 0
2, 66960, Note_on_c, 0, 55, 47
2, 67200, Note_on_c, 0, 55, 0
2, 67200, Note_on_c, 0, 67, 50
2, 67200, Note_on_c, 0, 63, 50
2, 67200, Note_on_c, 0, 55, 47
2, 67440, Note_on_c, 0, 55, 0
2, 67440, Note_on_c, 0, 58, 41
2, 67680, Note_on_c, 0, 58, 0
2, 67680, Note_on_c, 0, 63, 0
2, 67680, Note_on_c, 0, 67, 0
2, 67680, Note_on_c, 0, 57, 36
2, 67680, Note_on_c, 0, 62, 38
2, 67680, Note_on_c, 0, 68, 46
2, 67920, Note_on_c, 0, 57, 0
2, 67920, Note_on_c, 0, 58, 38
2, 68160, Note_on_c, 0, 58, 0
2, 68160, Note_on_c, 0, 60, 42
2, 68400, Note_on_c, 0, 60, 0
2, 68400, Note_on_c, 0, 68, 0
2, 68400, Note_on_c, 0, 62, 0
2, 68400, Note_on_c, 0, 61, 38
2, 68640, Note_on_c, 0, 61, 0
2, 68640, Note_on_c, 0, 62, 38
2, 68640, Note_on_c, 0, 68, 48
2, 68880, Note_on_c, 0, 62, 0
2, 68880, Note_on_c, 0, 58, 40
2, 69120, Note_on_c, 0, 58, 0
2, 69120, Note_on_c, 0, 68, 0
2, 69120, Note_on_c, 0, 63, 31
2, 69120, Note_on_c, 0, 75, 31
2, 69360, Note_on_c, 0, 75, 0
2, 69360, Note_on_c, 0, 63, 0
2, 69360, Note_on_c, 0, 65, 32
2, 69360, Note_on_c, 0, 77, 32
2, 69600, Note_on_c, 0, 77, 0
2, 69600, Note_on_c, 0, 65, 0
2, 69600, Note_on_c, 0, 79, 32
2, 69840, Note_on_c, 0, 79, 0
2, 69840, Note_on_c, 0, 70, 36
2, 69840, Note_on_c, 0, 82, 36
2, 70200, Note_on_c, 0, 82, 0
2, 70200, Note_on_c, 0, 70, 0
2, 70200, Note_on_c, 0, 70, 28
2, 70200, Note_on_c, 0, 82, 28
2, 70560, Note_on_c, 0, 82, 0
2, 70560, Note_on_c, 0, 70, 0
2, 70800, Note_on_c, 0, 70, 35
2, 70800, Note_on_c, 0, 82, 35
2, 71040, Note_on_c, 0, 82, 0
2, 71040, Note_on_c, 0, 70, 0
2, 71040, Note_on_c, 0, 72, 29
2, 71040, Note_on_c, 0, 84, 29
2, 71280, Note_on_c, 0, 84, 0
2, 71280, Note_on_c, 0, 72, 0
2, 71280, Note_on_c, 0, 74, 36
2, 71280, Note_on_c, 0, 86, 36
2, 71520, Note_on_c, 0, 86, 0
2, 71520, Note_on_c, 0, 74, 0
2, 71520, Note_on_c, 0, 89, 37
2, 71520, Note_on_c, 0, 77, 35
2, 71760, Note_on_c, 0, 77, 0
2, 71760, Note_on_c, 0, 89, 0
2, 71760, Note_on_c, 0, 86, 36
2, 71760, Note_on_c, 0, 74, 36
2, 72000, Note_on_c, 0, 74, 0
2, 72000, Note_on_c, 0, 86, 0
2, 72000, Note_on_c, 0, 84, 36
2, 72000, Note_on_c, 0, 72, 36
2, 72240, Note_on_c, 0, 72, 0
2, 72240, Note_on_c, 0, 84, 0
2, 72240, Note_on_c, 0, 74, 36
2, 72240, Note_on_c, 0, 86, 36
2, 72480, Note_on_c, 0, 86, 0
2, 72480, Note_on_c, 0, 74, 0
2, 72480, Note_on_c, 0, 72, 31
2, 72480, Note_on_c, 0, 84, 31
2, 72720, Note_on_c, 0, 84, 0
2, 72720, Note_on_c, 0, 72, 0
2, 72720, Note_on_c, 0, 67, 34
2, 72720, Note_on_c, 0, 79, 34
2, 73080, Note_on_c, 0, 79, 0
2, 73080, Note_on_c, 0, 67, 0
2, 73080, Note_on_c, 0, 67, 28
2, 73080, Note_on_c, 0, 79, 28
2, 73440, Note_on_c, 0, 79, 0
2, 73440, Note_on_c, 0, 67, 0
2, 73680, Note_on_c, 0, 65, 35
2, 73680, Note_on_c, 0, 77, 35
2, 73920, Note_on_c, 0, 77, 0
2, 73920, Note_on_c, 0, 65, 0
2, 73920, Note_on_c, 0, 67, 36
2, 73920, Note_on_c, 0, 79, 36
2, 74160, Note_on_c, 0, 79, 0
2, 74160, Note_on_c, 0, 67, 0
2, 74160, Note_on_c, 0, 68, 36
2, 74160, Note_on_c, 0, 80, 36
2, 74400, Note_on_c, 0, 80, 0
2, 74400, Note_on_c, 0, 68, 0
2, 74400, Note_on_c, 0, 82, 36
2, 74400, Note_on_c, 0, 70, 36
2, 74640, Note_on_c, 0, 70, 0
2, 74640, Note_on_c, 0, 82, 0
2, 74640, Note_on_c, 0, 80, 32
2, 74640, Note_on_c, 0, 68, 32
2, 74880, Note_on_c, 0, 68, 0
2, 74880, Note_on_c, 0, 80, 0
2, 74880, Note_on_c, 0, 79, 36
2, 74880, Note_on_c, 0, 67, 36
2, 75118, Note_on_c, 0, 67, 0
2, 75120, Note_on_c, 0, 79, 0
2, 75120, Note_on_c, 0, 65, 33
2, 75120, Note_on_c, 0, 77, 33
2, 75360, Note_on_c, 0, 77, 0
2, 75360, Note_on_c, 0, 65, 0
2, 75360, Note_on_c, 0, 63, 31
2, 75360, Note_on_c, 0, 75, 31
2, 75600, Note_on_c, 0, 75, 0
2, 75600, Note_on_c, 0, 63, 0
2, 75600, Note_on_c, 0, 58, 34
2, 75600, Note_on_c, 0, 70, 34
2, 75960, Note_on_c, 0, 70, 0
2, 75960, Note_on_c, 0, 58, 0
2, 75960, Note_on_c, 0, 58, 28
2, 75960, Note_on_c, 0, 70, 28
2, 76320, Note_on_c, 0, 70, 0
2, 76320, Note_on_c, 0, 58, 0
2, 76560, Note_on_c, 0, 62, 31
2, 76560, Note_on_c, 0, 65, 35
2, 76800, Note_on_c, 0, 65, 0
2, 76800, Note_on_c, 0, 67, 36
2, 77040, Note_on_c, 0, 67, 0
2, 77040, Note_on_c, 0, 68, 36
2, 77280, Note_on_c, 0, 68, 0
2, 77280, Note_on_c, 0, 70, 36
2, 77520, Note_on_c, 0, 70, 0
2, 77520, Note_on_c, 0, 68, 36
2, 77640, Note_on_c, 0, 68, 0
2, 77640, Note_on_c, 0, 67, 32
2, 77700, Note_on_c, 0, 67, 0
2, 77700, Note_on_c, 0, 68, 33
2, 77760, Note_on_c, 0, 68, 0
2, 77760, Note_on_c, 0, 62, 0
2, 77760, Note_on_c, 0, 63, 32
2, 77760, Note_on_c, 0, 67, 36
2, 78000, Note_on_c, 0, 67, 0
2, 78000, Note_on_c, 0, 65, 33
2, 78240, Note_on_c, 0, 65, 0
2, 78240, Note_on_c, 0, 63, 0
2, 78240, Note_on_c, 0, 63, 31
2, 78480, Note_on_c, 0, 63, 0
2, 78480, Note_on_c, 0, 58, 34
2, 78718, Note_on_c, 0, 58, 0
2, 78720, Note_on_c, 0, 60, 33
2, 78960, Note_on_c, 0, 60, 0
2, 78960, Note_on_c, 0, 63, 33
2, 79200, Note_on_c, 0, 63, 0
2, 79200, Note_on_c, 0, 56, 32
2, 79200, Note_on_c, 0, 62, 36
2, 79438, Note_on_c, 0, 56, 0
2, 79440, Note_on_c, 0, 62, 0
2, 79440, Note_on_c, 0, 65, 33
2, 79680, Note_on_c, 0, 65, 0
2, 79680, Note_on_c, 0, 62, 31
2, 79800, Note_on_c, 0, 62, 0
2, 79800, Note_on_c, 0, 60, 27
2, 79860, Note_on_c, 0, 60, 0
2, 79860, Note_on_c, 0, 62, 27
2, 79920, Note_on_c, 0, 62, 0
2, 79920, Note_on_c, 0, 60, 33
2, 80280, Note_on_c, 0, 60, 0
2, 80280, Note_on_c, 0, 58, 30
2, 80280, Note_on_c, 0, 56, 30
2, 80640, Note_on_c, 0, 56, 0
2, 80640, Note_on_c, 0, 58, 0
2, 80640, Note_on_c, 0, 63, 31
2, 80640, Note_on_c, 0, 75, 31
2, 80880, Note_on_c, 0, 75, 0
2, 80880, Note_on_c, 0, 63, 0
2, 80880, Note_on_c, 0, 65, 28
2, 80880, Note_on_c, 0, 77, 28
2, 81120, Note_on_c, 0, 77, 0
2, 81120, Note_on_c, 0, 65, 0
2, 81120, Note_on_c, 0, 79, 32
2, 81360, Note_on_c, 0, 79, 0
2, 81360, Note_on_c, 0, 70, 36
2, 81360, Note_on_c, 0, 82, 36
2, 81720, Note_on_c, 0, 82, 0
2, 81720, Note_on_c, 0, 70, 0
2, 81720, Note_on_c, 0, 70, 28
2, 81720, Note_on_c, 0, 82, 28
2, 82080, Note_on_c, 0, 82, 0
2, 82080, Note_on_c, 0, 70, 0
2, 82320, Note_on_c, 0, 70, 35
2, 82320, Note_on_c, 0, 82, 35
2, 82560, Note_on_c, 0, 82, 0
2, 82560, Note_on_c, 0, 70, 0
2, 82560, Note_on_c, 0, 72, 31
2, 82560, Note_on_c, 0, 84, 31
2, 82800, Note_on_c, 0, 84, 0
2, 82800, Note_on_c, 0, 72, 0
2, 82800, Note_on_c, 0, 74, 36
2, 82800, Note_on_c, 0, 86, 36
2, 83040, Note_on_c, 0, 86, 0
2, 83040, Note_on_c, 0, 74, 0
2, 83040, Note_on_c, 0, 89, 37
2, 83040, Note_on_c, 0, 77, 33
2, 83280, Note_on_c, 0, 77, 0
2, 83280, Note_on_c, 0, 89, 0
2, 83280, Note_on_c, 0, 86, 36
2, 83280, Note_on_c, 0, 74, 36
2, 83520, Note_on_c, 0, 74, 0
2, 83520, Note_on_c, 0, 86, 0
2, 83520, Note_on_c, 0, 84, 36
2, 83520, Note_on_c, 0, 72, 36
2, 83760, Note_on_c, 0, 72, 0
2, 83760, Note_on_c, 0, 84, 0
2, 83760, Note_on_c, 0, 74, 36
2, 83760, Note_on_c, 0, 86, 36
2, 84000, Note_on_c, 0, 86, 0
2, 84000, Note_on_c, 0, 74, 0
2, 84000, Note_on_c, 0, 72, 28
2, 84000, Note_on_c, 0, 84, 28
2, 84240, Note_on_c, 0, 84, 0
2, 84240, Note_on_c, 0, 72, 0
2, 84240, Note_on_c, 0, 67, 34
2, 84240, Note_on_c, 0, 79, 34
2, 84600, Note_on_c, 0, 79, 0
2, 84600, Note_on_c, 0, 67, 0
2, 84600, Note_on_c, 0, 67, 28
2, 84600, Note_on_c, 0, 79, 28
2, 84960, Note_on_c, 0, 79, 0
2, 84960, Note_on_c, 0, 67, 0
2, 85200, Note_on_c, 0, 65, 35
2, 85200, Note_on_c, 0, 77, 35
2, 85440, Note_on_c, 0, 77, 0
2, 85440, Note_on_c, 0, 65, 0
2, 85440, Note_on_c, 0, 67, 36
2, 85440, Note_on_c, 0, 79, 36
2, 85680, Note_on_c, 0, 79, 0
2, 85680, Note_on_c, 0, 67, 0
2, 85680, Note_on_c, 0, 68, 36
2, 85680, Note_on_c, 0, 80, 36
2, 85920, Note_on_c, 0, 80, 0
2, 85920, Note_on_c, 0, 68, 0
2, 85920, Note_on_c, 0, 82, 36
2, 85920, Note_on_c, 0, 70, 36
2, 86160, Note_on_c, 0, 70, 0
2, 86160, Note_on_c, 0, 82, 0
2, 86160, Note_on_c, 0, 80, 36
2, 86160, Note_on_c, 0, 68, 36
2, 86400, Note_on_c, 0, 68, 0
2, 86400, Note_on_c, 0, 80, 0
2, 86400, Note_on_c, 0, 79, 36
2, 86400, Note_on_c, 0, 67, 36
2, 86638, Note_on_c, 0, 67, 0
2, 86640, Note_on_c, 0, 79, 0
2, 86640, Note_on_c, 0, 65, 33
2, 86640, Note_on_c, 0, 77, 33
2, 86880, Note_on_c, 0, 77, 0
2, 86880, Note_on_c, 0, 65, 0
2, 86880, Note_on_c, 0, 63, 31
2, 86880, Note_on_c, 0, 75, 31
2, 87120, Note_on_c, 0, 75, 0
2, 87120, Note_on_c, 0, 63, 0
2, 87120, Note_on_c, 0, 58, 34
2, 87120, Note_on_c, 0, 70, 34
2, 87480, Note_on_c, 0, 70, 0
2, 87480, Note_on_c, 0, 58, 0
2, 87480, Note_on_c, 0, 58, 28
2, 87480, Note_on_c, 0, 70, 28
2, 87840, Note_on_c, 0, 70, 0
2, 87840, Note_on_c, 0, 58, 0
2, 88080, Note_on_c, 0, 62, 31
2, 88080, Note_on_c, 0, 65, 35
2, 88320, Note_on_c, 0, 65, 0
2, 88320, Note_on_c, 0, 67, 36
2, 88560, Note_on_c, 0, 67, 0
2, 88560, Note_on_c, 0, 68, 36
2, 88800, Note_on_c, 0, 68, 0
2, 88800, Note_on_c, 0, 70, 36
2, 89040, Note_on_c, 0, 70, 0
2, 89040, Note_on_c, 0, 68, 36
2, 89160, Note_on_c, 0, 68, 0
2, 89160, Note_on_c, 0, 67, 32
2, 89220, Note_on_c, 0, 67, 0
2, 89220, Note_on_c, 0, 68, 33
2, 89280, Note_on_c, 0, 68, 0
2, 89280, Note_on_c, 0, 62, 0
2, 89280, Note_on_c, 0, 63, 32
2, 89280, Note_on_c, 0, 67, 36
2, 89520, Note_on_c, 0, 67, 0
2, 89520, Note_on_c, 0, 65, 33
2, 89760, Note_on_c, 0, 65, 0
2, 89760, Note_on_c, 0, 63, 0
2, 89760, Note_on_c, 0, 63, 31
2, 90000, Note_on_c, 0, 63, 0
2, 90000, Note_on_c, 0, 58, 34
2, 90238, Note_on_c, 0, 58, 0
2, 90240, Note_on_c, 0, 60, 33
2, 90480, Note_on_c, 0, 60, 0
2, 90480, Note_on_c, 0, 63, 33
2, 90720, Note_on_c, 0, 63, 0
2, 90720, Note_on_c, 0, 56, 32
2, 90720, Note_on_c, 0, 62, 36
2, 90958, Note_on_c, 0, 56, 0
2, 90960, Note_on_c, 0, 62, 0
2, 90960, Note_on_c, 0, 65, 33
2, 91200, Note_on_c, 0, 65, 0
2, 91200, Note_on_c, 0, 62, 31
2, 91320, Note_on_c, 0, 62, 0
2, 91320, Note_on_c, 0, 60, 27
2, 91380, Note_on_c, 0, 60, 0
2, 91380, Note_on_c, 0, 62, 27
2, 91440, Note_on_c, 0, 62, 0
2, 91440, Note_on_c, 0, 60, 33
2, 91800, Note_on_c, 0, 60, 0
2, 91800, Note_on_c, 0, 58, 30
2, 91800, Note_on_c, 0, 56, 30
2, 92160, Note_on_c, 0, 56, 0
2, 92160, Note_on_c, 0, 58, 0
2, 92160, Note_on_c, 0, 58, 28
2, 92160, Note_on_c, 0, 67, 36
2, 92160, Note_on_c, 0, 63, 30
2, 92400, Note_on_c, 0, 58, 0
2, 92400, Note_on_c, 0, 57, 33
2, 92640, Note_on_c, 0, 57, 0
2, 92640, Note_on_c, 0, 58, 33
2, 92880, Note_on_c, 0, 58, 0
2, 92880, Note_on_c, 0, 63, 0
2, 92880, Note_on_c, 0, 67, 0
2, 92880, Note_on_c, 0, 55, 35
2, 93120, Note_on_c, 0, 55, 0
2, 93120, Note_on_c, 0, 67, 37
2, 93120, Note_on_c, 0, 63, 37
2, 93120, Note_on_c, 0, 55, 35
2, 93360, Note_on_c, 0, 55, 0
2, 93360, Note_on_c, 0, 58, 31
2, 93600, Note_on_c, 0, 58, 0
2, 93600, Note_on_c, 0, 63, 0
2, 93600, Note_on_c, 0, 67, 0
2, 93600, Note_on_c, 0, 57, 28
2, 93600, Note_on_c, 0, 62, 30
2, 93600, Note_on_c, 0, 68, 36
2, 93840, Note_on_c, 0, 57, 0
2, 93840, Note_on_c, 0, 58, 31
2, 94080, Note_on_c, 0, 58, 0
2, 94080, Note_on_c, 0, 60, 31
2, 94320, Note_on_c, 0, 60, 0
2, 94320, Note_on_c, 0, 68, 0
2, 94320, Note_on_c, 0, 62, 0
2, 94320, Note_on_c, 0, 61, 31
2, 94560, Note_on_c, 0, 61, 0
2, 94560, Note_on_c, 0, 62, 28
2, 94560, Note_on_c, 0, 68, 36
2, 94800, Note_on_c, 0, 62, 0
2, 94800, Note_on_c, 0, 58, 30
2, 95040, Note_on_c, 0, 58, 0
2, 95040, Note_on_c, 0, 68, 0
2, 95040, Note_on_c, 0, 58, 27
2, 95040, Note_on_c, 0, 67, 35
2, 95040, Note_on_c, 0, 63, 28
2, 95280, Note_on_c, 0, 58, 0
2, 95280, Note_on_c, 0, 57, 33
2, 95520, Note_on_c, 0, 57, 0
2, 95520, Note_on_c, 0, 58, 33
2, 95760, Note_on_c, 0, 58, 0
2, 95760, Note_on_c, 0, 63, 0
2, 95760, Note_on_c, 0, 67, 0
2, 95760, Note_on_c, 0, 55, 35
2, 96000, Note_on_c, 0, 55, 0
2, 96000, Note_on_c, 0, 67, 37
2, 96000, Note_on_c, 0, 63, 37
2, 96000, Note_on_c, 0, 55, 35
2, 96240, Note_on_c, 0, 55, 0
2, 96240, Note_on_c, 0, 58, 30
2, 96480, Note_on_c, 0, 58, 0
2, 96480, Note_on_c, 0, 63, 0
2, 96480, Note_on_c, 0, 67, 0
2, 96480, Note_on_c, 0, 57, 27
2, 96480, Note_on_c, 0, 62, 28
2, 96480, Note_on_c, 0, 68, 35
2, 96720, Note_on_c, 0, 57, 0
2, 96720, Note_on_c, 0, 58, 31
2, 96960, Note_on_c, 0, 58, 0
2, 96960, Note_on_c, 0, 60, 31
2, 97200, Note_on_c, 0, 60, 0
2, 97200, Note_on_c, 0, 68, 0
2, 97200, Note_on_c, 0, 62, 0
2, 97200, Note_on_c, 0, 61, 31
2, 97440, Note_on_c, 0, 61, 0
2, 97440, Note_on_c, 0, 62, 28
2, 97440, Note_on_c, 0, 68, 36
2, 97680, Note_on_c, 0, 62, 0
2, 97680, Note_on_c, 0, 58, 30
2, 97920, Note_on_c, 0, 58, 0
2, 97920, Note_on_c, 0, 68, 0
2, 97920, Note_on_c, 0, 58, 27
2, 97920, Note_on_c, 0, 67, 35
2, 97920, Note_on_c, 0, 63, 28
2, 98160, Note_on_c, 0, 58, 0
2, 98160, Note_on_c, 0, 57, 32
2, 98400, Note_on_c, 0, 57, 0
2, 98400, Note_on_c, 0, 58, 32
2, 98640, Note_on_c, 0, 58, 0
2, 98640, Note_on_c, 0, 63, 0
2, 98640, Note_on_c, 0, 67, 0
2, 98640, Note_on_c, 0, 55, 33
2, 98880, Note_on_c, 0, 55, 0
2, 98880, Note_on_c, 0, 67, 36
2, 98880, Note_on_c, 0, 63, 36
2, 98880, Note_on_c, 0, 55, 33
2, 99120, Note_on_c, 0, 55, 0
2, 99120, Note_on_c, 0, 58, 28
2, 99360, Note_on_c, 0, 58, 0
2, 99360, Note_on_c, 0, 63, 0
2, 99360, Note_on_c, 0, 67, 0
2, 99360, Note_on_c, 0, 58, 25
2, 99360, Note_on_c, 0, 67, 32
2, 99360, Note_on_c, 0, 63, 27
2, 99600, Note_on_c, 0, 58, 0
2, 99600, Note_on_c, 0, 57, 27
2, 99840, Note_on_c, 0, 57, 0
2, 99840, Note_on_c, 0, 58, 30
2, 100080, Note_on_c, 0, 58, 0
2, 100080, Note_on_c, 0, 63, 0
2, 100080, Note_on_c, 0, 67, 0
2, 100080, Note_on_c, 0, 55, 31
2, 100320, Note_on_c, 0, 55, 0
2, 100320, Note_on_c, 0, 67, 29
2, 100320, Note_on_c, 0, 63, 29
2, 100320, Note_on_c, 0, 55, 27
2, 100560, Note_on_c, 0, 55, 0
2, 100560, Note_on_c, 0, 58, 23
2, 100800, Note_on_c, 0, 58, 0
2, 100800, Note_on_c, 0, 63, 0
2, 100800, Note_on_c, 0, 67, 0
2, 100800, Note_on_c, 0, 55, 22
2, 100800, Note_on_c, 0, 63, 22
2, 100800, Note_on_c, 0, 67, 27
2, 102960, Note_on_c, 0, 67, 0
2, 102960, Note_on_c, 0, 63, 0
2, 102960, Note_on_c, 0, 55, 0
2, 103680, Note_on_c, 0, 71, 51
2, 103680, Note_on_c, 0, 75, 51
2, 105120, Note_on_c, 0, 75, 0
2, 105120, Note_on_c, 0, 71, 0
2, 105120, Note_on_c, 0, 73, 57
2, 105360, Note_on_c, 0, 73, 0
2, 105360, Note_on_c, 0, 75, 52
2, 105600, Note_on_c, 0, 75, 0
2, 105600, Note_on_c, 0, 76, 50
2, 105840, Note_on_c, 0, 76, 0
2, 105840, Note_on_c, 0, 78, 53
2, 106080, Note_on_c, 0, 78, 0
2, 106080, Note_on_c, 0, 82, 53
2, 106320, Note_on_c, 0, 82, 0
2, 106320, Note_on_c, 0, 80, 51
2, 106560, Note_on_c, 0, 80, 0
2, 106560, Note_on_c, 0, 71, 51
2, 106560, Note_on_c, 0, 75, 51
2, 108000, Note_on_c, 0, 75, 0
2, 108000, Note_on_c, 0, 71, 0
2, 108000, Note_on_c, 0, 73, 57
2, 108240, Note_on_c, 0, 73, 0
2, 108240, Note_on_c, 0, 75, 50
2, 108480, Note_on_c, 0, 75, 0
2, 108480, Note_on_c, 0, 76, 50
2, 108720, Note_on_c, 0, 76, 0
2, 108720, Note_on_c, 0, 78, 53
2, 108960, Note_on_c, 0, 78, 0
2, 108960, Note_on_c, 0, 80, 53
2, 109200, Note_on_c, 0, 80, 0
2, 109200, Note_on_c, 0, 76, 55
2, 109440, Note_on_c, 0, 76, 0
2, 109440, Note_on_c, 0, 75, 58
2, 109680, Note_on_c, 0, 75, 0
2, 109680, Note_on_c, 0, 73, 53
2, 109920, Note_on_c, 0, 73, 0
2, 109920, Note_on_c, 0, 71, 55
2, 110160, Note_on_c, 0, 71, 0
2, 110160, Note_on_c, 0, 68, 52
2, 110400, Note_on_c, 0, 68, 0
2, 110400, Note_on_c, 0, 70, 52
2, 110640, Note_on_c, 0, 70, 0
2, 110640, Note_on_c, 0, 71, 52
2, 110880, Note_on_c, 0, 71, 0
2, 110880, Note_on_c, 0, 68, 51
2, 110880, Note_on_c, 0, 73, 57
2, 111120, Note_on_c, 0, 73, 0
2, 111120, Note_on_c, 0, 68, 0
2, 111120, Note_on_c, 0, 75, 50
2, 111360, Note_on_c, 0, 75, 0
2, 111360, Note_on_c, 0, 73, 48
2, 111600, Note_on_c, 0, 73, 0
2, 111600, Note_on_c, 0, 76, 44
2, 111840, Note_on_c, 0, 76, 0
2, 111840, Note_on_c, 0, 78, 42
2, 112080, Note_on_c, 0, 78, 0
2, 112080, Note_on_c, 0, 76, 41
2, 112320, Note_on_c, 0, 76, 0
2, 112320, Note_on_c, 0, 68, 38
2, 112320, Note_on_c, 0, 71, 38
2, 112320, Note_on_c, 0, 75, 38
2, 112320, Note_on_c, 0, 80, 38
2, 113760, Note_on_c, 0, 80, 0
2, 113760, Note_on_c, 0, 68, 0
2, 113760, Note_on_c, 0, 71, 0
2, 113760, Note_on_c, 0, 75, 0
2, 113760, Note_on_c, 0, 75, 38
2, 115200, Note_on_c, 0, 75, 0
2, 115200, Note_on_c, 0, 71, 51
2, 115200, Note_on_c, 0, 75, 51
2, 116640, Note_on_c, 0, 75, 0
2, 116640, Note_on_c, 0, 71, 0
2, 116640, Note_on_c, 0, 73, 57
2, 116880, Note_on_c, 0, 73, 0
2, 116880, Note_on_c, 0, 75, 51
2, 117120, Note_on_c, 0, 75, 0
2, 117120, Note_on_c, 0, 76, 51
2, 117360, Note_on_c, 0, 76, 0
2, 117360, Note_on_c, 0, 78, 53
2, 117600, Note_on_c, 0, 78, 0
2, 117600, Note_on_c, 0, 82, 55
2, 117840, Note_on_c, 0, 82, 0
2, 117840, Note_on_c, 0, 80, 53
2, 118080, Note_on_c, 0, 80, 0
2, 118080, Note_on_c, 0, 71, 51
2, 118080, Note_on_c, 0, 75, 51
2, 119520, Note_on_c, 0, 75, 0
2, 119520, Note_on_c, 0, 71, 0
2, 119520, Note_on_c, 0, 73, 57
2, 119760, Note_on_c, 0, 73, 0
2, 119760, Note_on_c, 0, 75, 51
2, 120000, Note_on_c, 0, 75, 0
2, 120000, Note_on_c, 0, 76, 52
2, 120240, Note_on_c, 0, 76, 0
2, 120240, Note_on_c, 0, 78, 52
2, 120480, Note_on_c, 0, 78, 0
2, 120480, Note_on_c, 0, 80, 53
2, 120720, Note_on_c, 0, 80, 0
2, 120720, Note_on_c, 0, 76, 55
2, 120960, Note_on_c, 0, 76, 0
2, 120960, Note_on_c, 0, 75, 58
2, 121200, Note_on_c, 0, 75, 0
2, 121200, Note_on_c, 0, 73, 53
2, 121440, Note_on_c, 0, 73, 0
2, 121440, Note_on_c, 0, 71, 55
2, 121680, Note_on_c, 0, 71, 0
2, 121680, Note_on_c, 0, 68, 52
2, 121920, Note_on_c, 0, 68, 0
2, 121920, Note_on_c, 0, 70, 52
2, 122160, Note_on_c, 0, 70, 0
2, 122160, Note_on_c, 0, 71, 52
2, 122400, Note_on_c, 0, 71, 0
2, 122400, Note_on_c, 0, 68, 49
2, 122400, Note_on_c, 0, 73, 57
2, 122640, Note_on_c, 0, 73, 0
2, 122640, Note_on_c, 0, 68, 0
2, 122640, Note_on_c, 0, 75, 49
2, 122880, Note_on_c, 0, 75, 0
2, 122880, Note_on_c, 0, 73, 47
2, 123120, Note_on_c, 0, 73, 0
2, 123120, Note_on_c, 0, 76, 45
2, 123360, Note_on_c, 0, 76, 0
2, 123360, Note_on_c, 0, 78, 42
2, 123600, Note_on_c, 0, 78, 0
2, 123600, Note_on_c, 0, 76, 41
2, 123840, Note_on_c, 0, 76, 0
2, 123840, Note_on_c, 0, 68, 38
2, 123840, Note_on_c, 0, 71, 38
2, 123840, Note_on_c, 0, 75, 38
2, 123840, Note_on_c, 0, 80, 38
2, 125280, Note_on_c, 0, 80, 0
2, 125280, Note_on_c, 0, 68, 0
2, 125280, Note_on_c, 0, 71, 0
2, 125280, Note_on_c, 0, 75, 0
2, 126660, Note_on_c, 0, 70, 44
2, 126720, Note_on_c, 0, 70, 0
2, 126720, Note_on_c, 0, 75, 55
2, 128160, Note_on_c, 0, 75, 0
2, 128400, Note_on_c, 0, 73, 52
2, 128640, Note_on_c, 0, 73, 0
2, 128640, Note_on_c, 0, 75, 50
2, 128880, Note_on_c, 0, 75, 0
2, 128880, Note_on_c, 0, 76, 50
2, 129120, Note_on_c, 0, 76, 0
2, 129120, Note_on_c, 0, 78, 53
2, 129360, Note_on_c, 0, 78, 0
2, 129360, Note_on_c, 0, 80, 50
2, 129540, Note_on_c, 0, 80, 0
2, 129540, Note_on_c, 0, 70, 42
2, 129600, Note_on_c, 0, 70, 0
2, 129600, Note_on_c, 0, 75, 51
2, 131040, Note_on_c, 0, 75, 0
2, 131280, Note_on_c, 0, 70, 54
2, 131520, Note_on_c, 0, 70, 0
2, 131520, Note_on_c, 0, 73, 57
2, 131640, Note_on_c, 0, 73, 0
2, 131640, Note_on_c, 0, 71, 38
2, 131700, Note_on_c, 0, 73, 37
2, 131720, Note_on_c, 0, 71, 0
2, 131760, Note_on_c, 0, 71, 49
2, 131780, Note_on_c, 0, 73, 0
2, 132000, Note_on_c, 0, 71, 0
2, 132000, Note_on_c, 0, 70, 58
2, 132240, Note_on_c, 0, 70, 0
2, 132240, Note_on_c, 0, 68, 56
2, 132420, Note_on_c, 0, 68, 0
2, 132480, Note_on_c, 0, 67, 63
2, 132720, Note_on_c, 0, 67, 0
2, 132720, Note_on_c, 0, 68, 58
2, 132960, Note_on_c, 0, 68, 0
2, 132960, Note_on_c, 0, 70, 60
2, 133200, Note_on_c, 0, 70, 0
2, 133200, Note_on_c, 0, 75, 57
2, 133440, Note_on_c, 0, 75, 0
2, 133440, Note_on_c, 0, 77, 61
2, 133680, Note_on_c, 0, 77, 0
2, 133680, Note_on_c, 0, 79, 57
2, 133920, Note_on_c, 0, 79, 0
2, 133920, Note_on_c, 0, 71, 62
2, 133920, Note_on_c, 0, 80, 62
2, 134160, Note_on_c, 0, 80, 0
2, 134160, Note_on_c, 0, 71, 0
2, 134160, Note_on_c, 0, 75, 59
2, 134400, Note_on_c, 0, 75, 0
2, 134400, Note_on_c, 0, 73, 59
2, 134520, Note_on_c, 0, 73, 0
2, 134520, Note_on_c, 0, 71, 42
2, 134580, Note_on_c, 0, 73, 42
2, 134600, Note_on_c, 0, 71, 0
2, 134640, Note_on_c, 0, 71, 53
2, 134660, Note_on_c, 0, 73, 0
2, 134880, Note_on_c, 0, 71, 0
2, 134880, Note_on_c, 0, 70, 49
2, 135120, Note_on_c, 0, 70, 0
2, 135120, Note_on_c, 0, 68, 49
2, 135300, Note_on_c, 0, 68, 0
2, 135300, Note_on_c, 0, 67, 48
2, 135360, Note_on_c, 0, 75, 59
2, 136800, Note_on_c, 0, 75, 0
2, 136800, Note_on_c, 0, 67, 0
2, 136800, Note_on_c, 0, 62, 46
2, 136800, Note_on_c, 0, 68, 54
2, 138180, Note_on_c, 0, 68, 0
2, 138180, Note_on_c, 0, 62, 0
2, 138180, Note_on_c, 0, 70, 49
2, 138240, Note_on_c, 0, 70, 0
2, 138240, Note_on_c, 0, 75, 59
2, 139680, Note_on_c, 0, 75, 0
2, 139920, Note_on_c, 0, 73, 52
2, 140160, Note_on_c, 0, 73, 0
2, 140160, Note_on_c, 0, 75, 52
2, 140400, Note_on_c, 0, 75, 0
2, 140400, Note_on_c, 0, 76, 50
2, 140640, Note_on_c, 0, 76, 0
2, 140640, Note_on_c, 0, 78, 53
2, 140880, Note_on_c, 0, 78, 0
2, 140880, Note_on_c, 0, 80, 50
2, 141060, Note_on_c, 0, 80, 0
2, 141060, Note_on_c, 0, 70, 42
2, 141120, Note_on_c, 0, 70, 0
2, 141120, Note_on_c, 0, 75, 51
2, 142560, Note_on_c, 0, 75, 0
2, 142800, Note_on_c, 0, 70, 52
2, 143040, Note_on_c, 0, 70, 0
2, 143040, Note_on_c, 0, 73, 57
2, 143160, Note_on_c, 0, 73, 0
2, 143160, Note_on_c, 0, 71, 36
2, 143220, Note_on_c, 0, 73, 36
2, 143240, Note_on_c, 0, 71, 0
2, 143280, Note_on_c, 0, 71, 49
2, 143300, Note_on_c, 0, 73, 0
2, 143520, Note_on_c, 0, 71, 0
2, 143520, Note_on_c, 0, 70, 58
2, 143760, Note_on_c, 0, 70, 0
2, 143760, Note_on_c, 0, 68, 52
2, 143940, Note_on_c, 0, 68, 0
2, 144000, Note_on_c, 0, 67, 63
2, 144240, Note_on_c, 0, 67, 0
2, 144240, Note_on_c, 0, 68, 58
2, 144480, Note_on_c, 0, 68, 0
2, 144480, Note_on_c, 0, 70, 60
2, 144720, Note_on_c, 0, 70, 0
2, 144720, Note_on_c, 0, 75, 57
2, 144960, Note_on_c, 0, 75, 0
2, 144960, Note_on_c, 0, 77, 61
2, 145200, Note_on_c, 0, 77, 0
2, 145200, Note_on_c, 0, 79, 57
2, 145440, Note_on_c, 0, 79, 0
2, 145440, Note_on_c, 0, 71, 62
2, 145440, Note_on_c, 0, 80, 62
2, 145680, Note_on_c, 0, 80, 0
2, 145680, Note_on_c, 0, 71, 0
2, 145680, Note_on_c, 0, 75, 55
2, 145920, Note_on_c, 0, 75, 0
2, 145920, Note_on_c, 0, 73, 59
2, 146040, Note_on_c, 0, 73, 0
2, 146040, Note_on_c, 0, 71, 38
2, 146100, Note_on_c, 0, 73, 39
2, 146120, Note_on_c, 0, 71, 0
2, 146160, Note_on_c, 0, 71, 51
2, 146180, Note_on_c, 0, 73, 0
2, 146400, Note_on_c, 0, 71, 0
2, 146400, Note_on_c, 0, 70, 49
2, 146640, Note_on_c, 0, 70, 0
2, 146640, Note_on_c, 0, 68, 49
2, 146820, Note_on_c, 0, 68, 0
2, 146820, Note_on_c, 0, 67, 48
2, 146880, Note_on_c, 0, 75, 59
2, 149760, Note_on_c, 0, 75, 0
2, 149760, Note_on_c, 0, 67, 0
2, 149760, Note_on_c, 0, 71, 51
2, 149760, Note_on_c, 0, 75, 51
2, 151200, Note_on_c, 0, 75, 0
2, 151200, Note_on_c, 0, 71, 0
2, 151200, Note_on_c, 0, 73, 57
2, 151440, Note_on_c, 0, 73, 0
2, 151440, Note_on_c, 0, 75, 51
2, 151680, Note_on_c, 0, 75, 0
2, 151680, Note_on_c, 0, 76, 52
2, 151920, Note_on_c, 0, 76, 0
2, 151920, Note_on_c, 0, 78, 51
2, 152160, Note_on_c, 0, 78, 0
2, 152160, Note_on_c, 0, 82, 53
2, 152400, Note_on_c, 0, 82, 0
2, 152400, Note_on_c, 0, 80, 52
2, 152640, Note_on_c, 0, 80, 0
2, 152640, Note_on_c, 0, 71, 51
2, 152640, Note_on_c, 0, 75, 51
2, 154080, Note_on_c, 0, 75, 0
2, 154080, Note_on_c, 0, 71, 0
2, 154080, Note_on_c, 0, 73, 57
2, 154320, Note_on_c, 0, 73, 0
2, 154320, Note_on_c, 0, 75, 52
2, 154560, Note_on_c, 0, 75, 0
2, 154560, Note_on_c, 0, 76, 52
2, 154800, Note_on_c, 0, 76, 0
2, 154800, Note_on_c, 0, 78, 51
2, 155040, Note_on_c, 0, 78, 0
2, 155040, Note_on_c, 0, 80, 53
2, 155280, Note_on_c, 0, 80, 0
2, 155280, Note_on_c, 0, 76, 55
2, 155520, Note_on_c, 0, 76, 0
2, 155520, Note_on_c, 0, 75, 58
2, 155760, Note_on_c, 0, 75, 0
2, 155760, Note_on_c, 0, 73, 53
2, 156000, Note_on_c, 0, 73, 0
2, 156000, Note_on_c, 0, 71, 55
2, 156240, Note_on_c, 0, 71, 0
2, 156240, Note_on_c, 0, 68, 52
2, 156480, Note_on_c, 0, 68, 0
2, 156480, Note_on_c, 0, 70, 52
2, 156720, Note_on_c, 0, 70, 0
2, 156720, Note_on_c, 0, 71, 49
2, 156960, Note_on_c, 0, 71, 0
2, 156960, Note_on_c, 0, 68, 43
2, 156960, Note_on_c, 0, 73, 57
2, 157200, Note_on_c, 0, 73, 0
2, 157200, Note_on_c, 0, 68, 0
2, 157200, Note_on_c, 0, 75, 50
2, 157440, Note_on_c, 0, 75, 0
2, 157440, Note_on_c, 0, 73, 49
2, 157680, Note_on_c, 0, 73, 0
2, 157680, Note_on_c, 0, 76, 42
2, 157920, Note_on_c, 0, 76, 0
2, 157920, Note_on_c, 0, 78, 42
2, 158160, Note_on_c, 0, 78, 0
2, 158160, Note_on_c, 0, 76, 41
2, 158400, Note_on_c, 0, 76, 0
2, 158400, Note_on_c, 0, 68, 38
2, 158400, Note_on_c, 0, 71, 38
2, 158400, Note_on_c, 0, 75, 38
2, 158400, Note_on_c, 0, 80, 38
2, 159590, Note_on_c, 0, 68, 0
2, 159840, Note_on_c, 0, 71, 0
2, 159840, Note_on_c, 0, 75, 0
2, 159840, Note_on_c, 0, 80, 0
2, 159840, Note_on_c, 0, 71, 38
2, 160080, Note_on_c, 0, 71, 0
2, 160080, Note_on_c, 0, 70, 38
2, 160320, Note_on_c, 0, 70, 0
2, 160320, Note_on_c, 0, 68, 36
2, 160560, Note_on_c, 0, 68, 0
2, 160560, Note_on_c, 0, 63, 33
2, 160800, Note_on_c, 0, 63, 0
2, 160800, Note_on_c, 0, 59, 36
2, 161040, Note_on_c, 0, 59, 0
2, 161040, Note_on_c, 0, 56, 35
2, 161280, Note_on_c, 0, 56, 0
2, 161280, Note_on_c, 0, 59, 28
2, 161280, Note_on_c, 0, 68, 37
2, 161280, Note_on_c, 0, 63, 30
2, 161520, Note_on_c, 0, 59, 0
2, 161520, Note_on_c, 0, 58, 30
2, 161760, Note_on_c, 0, 58, 0
2, 161760, Note_on_c, 0, 59, 32
2, 162000, Note_on_c, 0, 59, 0
2, 162000, Note_on_c, 0, 63, 0
2, 162000, Note_on_c, 0, 68, 0
2, 162000, Note_on_c, 0, 56, 31
2, 162240, Note_on_c, 0, 56, 0
2, 162240, Note_on_c, 0, 59, 33
2, 162480, Note_on_c, 0, 59, 0
2, 162480, Note_on_c, 0, 63, 31
2, 162720, Note_on_c, 0, 63, 0
2, 162720, Note_on_c, 0, 59, 28
2, 162720, Note_on_c, 0, 68, 37
2, 162720, Note_on_c, 0, 63, 30
2, 162960, Note_on_c, 0, 59, 0
2, 162960, Note_on_c, 0, 58, 30
2, 163200, Note_on_c, 0, 58, 0
2, 163200, Note_on_c, 0, 59, 33
2, 163440, Note_on_c, 0, 59, 0
2, 163440, Note_on_c, 0, 63, 0
2, 163440, Note_on_c, 0, 68, 0
2, 163440, Note_on_c, 0, 56, 30
2, 163680, Note_on_c, 0, 56, 0
2, 163680, Note_on_c, 0, 59, 35
2, 163920, Note_on_c, 0, 59, 0
2, 163920, Note_on_c, 0, 63, 31
2, 164160, Note_on_c, 0, 63, 0
2, 164160, Note_on_c, 0, 59, 29
2, 164160, Note_on_c, 0, 68, 39
2, 164160, Note_on_c, 0, 63, 31
2, 164400, Note_on_c, 0, 59, 0
2, 164400, Note_on_c, 0, 58, 31
2, 164640, Note_on_c, 0, 58, 0
2, 164640, Note_on_c, 0, 59, 34
2, 164880, Note_on_c, 0, 59, 0
2, 164880, Note_on_c, 0, 63, 0
2, 164880, Note_on_c, 0, 68, 0
2, 164880, Note_on_c, 0, 56, 31
2, 165120, Note_on_c, 0, 56, 0
2, 165120, Note_on_c, 0, 59, 37
2, 165360, Note_on_c, 0, 59, 0
2, 165360, Note_on_c, 0, 63, 32
2, 165600, Note_on_c, 0, 63, 0
2, 165600, Note_on_c, 0, 59, 29
2, 165600, Note_on_c, 0, 68, 39
2, 165600, Note_on_c, 0, 63, 31
2, 165840, Note_on_c, 0, 59, 0
2, 165840, Note_on_c, 0, 58, 32
2, 166080, Note_on_c, 0, 58, 0
2, 166080, Note_on_c, 0, 59, 34
2, 166320, Note_on_c, 0, 59, 0
2, 166320, Note_on_c, 0, 63, 0
2, 166320, Note_on_c, 0, 68, 0
2, 166320, Note_on_c, 0, 56, 30
2, 166560, Note_on_c, 0, 56, 0
2, 166560, Note_on_c, 0, 59, 37
2, 166800, Note_on_c, 0, 59, 0
2, 166800, Note_on_c, 0, 63, 32
2, 167040, Note_on_c, 0, 63, 0
2, 167040, Note_on_c, 0, 58, 25
2, 167040, Note_on_c, 0, 67, 33
2, 167040, Note_on_c, 0, 63, 27
2, 167280, Note_on_c, 0, 58, 0
2, 167280, Note_on_c, 0, 57, 28
2, 167520, Note_on_c, 0, 57, 0
2, 167520, Note_on_c, 0, 58, 29
2, 167760, Note_on_c, 0, 58, 0
2, 167760, Note_on_c, 0, 63, 0
2, 167760, Note_on_c, 0, 67, 0
2, 167760, Note_on_c, 0, 55, 27
2, 168000, Note_on_c, 0, 55, 0
2, 168000, Note_on_c, 0, 58, 31
2, 168240, Note_on_c, 0, 58, 0
2, 168240, Note_on_c, 0, 63, 28
2, 168480, Note_on_c, 0, 63, 0
2, 168480, Note_on_c, 0, 58, 25
2, 168480, Note_on_c, 0, 67, 33
2, 168480, Note_on_c, 0, 63, 27
2, 168720, Note_on_c, 0, 58, 0
2, 168720, Note_on_c, 0, 57, 28
2, 168960, Note_on_c, 0, 57, 0
2, 168960, Note_on_c, 0, 58, 29
2, 169200, Note_on_c, 0, 58, 0
2, 169200, Note_on_c, 0, 63, 0
2, 169200, Note_on_c, 0, 67, 0
2, 169200, Note_on_c, 0, 55, 28
2, 169440, Note_on_c, 0, 55, 0
2, 169440, Note_on_c, 0, 58, 31
2, 169680, Note_on_c, 0, 58, 0
2, 169680, Note_on_c, 0, 63, 28
2, 169920, Note_on_c, 0, 63, 0
2, 169920, Note_on_c, 0, 62, 35
2, 169920, Note_on_c, 0, 68, 35
2, 169920, Note_on_c, 0, 72, 35
2, 170160, Note_on_c, 0, 72, 0
2, 170160, Note_on_c, 0, 68, 0
2, 170160, Note_on_c, 0, 62, 0
2, 170160, Note_on_c, 0, 62, 32
2, 170160, Note_on_c, 0, 68, 32
2, 170160, Note_on_c, 0, 70, 32
2, 170400, Note_on_c, 0, 70, 0
2, 170400, Note_on_c, 0, 68, 0
2, 170400, Note_on_c, 0, 62, 0
2, 170400, Note_on_c, 0, 62, 39
2, 170400, Note_on_c, 0, 68, 39
2, 170400, Note_on_c, 0, 72, 39
2, 170640, Note_on_c, 0, 72, 0
2, 170640, Note_on_c, 0, 68, 0
2, 170640, Note_on_c, 0, 62, 0
2, 170640, Note_on_c, 0, 62, 34
2, 170640, Note_on_c, 0, 68, 34
2, 170640, Note_on_c, 0, 70, 34
2, 170880, Note_on_c, 0, 70, 0
2, 170880, Note_on_c, 0, 68, 0
2, 170880, Note_on_c, 0, 62, 0
2, 170880, Note_on_c, 0, 62, 45
2, 170880, Note_on_c, 0, 68, 45
2, 170880, Note_on_c, 0, 72, 45
2, 171120, Note_on_c, 0, 72, 0
2, 171120, Note_on_c, 0, 68, 0
2, 171120, Note_on_c, 0, 62, 0
2, 171120, Note_on_c, 0, 62, 39
2, 171120, Note_on_c, 0, 68, 39
2, 171120, Note_on_c, 0, 70, 39
2, 171360, Note_on_c, 0, 70, 0
2, 171360, Note_on_c, 0, 68, 0
2, 171360, Note_on_c, 0, 62, 0
2, 171360, Note_on_c, 0, 74, 52
2, 171360, Note_on_c, 0, 80, 52
2, 171360, Note_on_c, 0, 84, 52
2, 171600, Note_on_c, 0, 84, 0
2, 171600, Note_on_c, 0, 80, 0
2, 171600, Note_on_c, 0, 74, 0
2, 171600, Note_on_c, 0, 74, 47
2, 171600, Note_on_c, 0, 82, 47
2, 171600, Note_on_c, 0, 80, 47
2, 171840, Note_on_c, 0, 80, 0
2, 171840, Note_on_c, 0, 82, 0
2, 171840, Note_on_c, 0, 74, 0
2, 171840, Note_on_c, 0, 74, 55
2, 171840, Note_on_c, 0, 80, 55
2, 171840, Note_on_c, 0, 84, 55
2, 172080, Note_on_c, 0, 84, 0
2, 172080, Note_on_c, 0, 80, 0
2, 172080, Note_on_c, 0, 74, 0
2, 172080, Note_on_c, 0, 74, 47
2, 172080, Note_on_c, 0, 80, 47
2, 172080, Note_on_c, 0, 82, 47
2, 172320, Note_on_c, 0, 82, 0
2, 172320, Note_on_c, 0, 80, 0
2, 172320, Note_on_c, 0, 74, 0
2, 172320, Note_on_c, 0, 74, 60
2, 172320, Note_on_c, 0, 80, 60
2, 172320, Note_on_c, 0, 84, 60
2, 172560, Note_on_c, 0, 84, 0
2, 172560, Note_on_c, 0, 80, 0
2, 172560, Note_on_c, 0, 74, 0
2, 172560, Note_on_c, 0, 74, 52
2, 172560, Note_on_c, 0, 80, 52
2, 172560, Note_on_c, 0, 82, 52
2, 172800, Note_on_c, 0, 82, 0
2, 172800, Note_on_c, 0, 80, 0
2, 172800, Note_on_c, 0, 74, 0
2, 172800, Note_on_c, 0, 58, 38
2, 172800, Note_on_c, 0, 67, 49
2, 172800, Note_on_c, 0, 63, 41
2, 173040, Note_on_c, 0, 58, 0
2, 173040, Note_on_c, 0, 57, 44
2, 173280, Note_on_c, 0, 57, 0
2, 173280, Note_on_c, 0, 58, 44
2, 173520, Note_on_c, 0, 58, 0
2, 173520, Note_on_c, 0, 63, 0
2, 173520, Note_on_c, 0, 67, 0
2, 173520, Note_on_c, 0, 55, 47
2, 173760, Note_on_c, 0, 55, 0
2, 173760, Note_on_c, 0, 67, 50
2, 173760, Note_on_c, 0, 63, 50
2, 173760, Note_on_c, 0, 55, 47
2, 174000, Note_on_c, 0, 55, 0
2, 174000, Note_on_c, 0, 58, 42
2, 174240, Note_on_c, 0, 58, 0
2, 174240, Note_on_c, 0, 63, 0
2, 174240, Note_on_c, 0, 67, 0
2, 174240, Note_on_c, 0, 57, 38
2, 174240, Note_on_c, 0, 62, 41
2, 174240, Note_on_c, 0, 68, 49
2, 174480, Note_on_c, 0, 57, 0
2, 174480, Note_on_c, 0, 58, 39
2, 174720, Note_on_c, 0, 58, 0
2, 174720, Note_on_c, 0, 60, 42
2, 174960, Note_on_c, 0, 60, 0
2, 174960, Note_on_c, 0, 68, 0
2, 174960, Note_on_c, 0, 62, 0
2, 174960, Note_on_c, 0, 61, 38
2, 175200, Note_on_c, 0, 61, 0
2, 175200, Note_on_c, 0, 62, 38
2, 175200, Note_on_c, 0, 68, 48
2, 175440, Note_on_c, 0, 62, 0
2, 175440, Note_on_c, 0, 58, 40
2, 175680, Note_on_c, 0, 58, 0
2, 175680, Note_on_c, 0, 68, 0
2, 175680, Note_on_c, 0, 58, 36
2, 175680, Note_on_c, 0, 67, 46
2, 175680, Note_on_c, 0, 63, 38
2, 175920, Note_on_c, 0, 58, 0
2, 175920, Note_on_c, 0, 57, 40
2, 176160, Note_on_c, 0, 57, 0
2, 176160, Note_on_c, 0, 58, 44
2, 176400, Note_on_c, 0, 58, 0
2, 176400, Note_on_c, 0, 63, 0
2, 176400, Note_on_c, 0, 67, 0
2, 176400, Note_on_c, 0, 55, 47
2, 176640, Note_on_c, 0, 55, 0
2, 176640, Note_on_c, 0, 67, 50
2, 176640, Note_on_c, 0, 63, 50
2, 176640, Note_on_c, 0, 55, 47
2, 176880, Note_on_c, 0, 55, 0
2, 176880, Note_on_c, 0, 58, 41
2, 177120, Note_on_c, 0, 58, 0
2, 177120, Note_on_c, 0, 63, 0
2, 177120, Note_on_c, 0, 67, 0
2, 177120, Note_on_c, 0, 57, 36
2, 177120, Note_on_c, 0, 62, 38
2, 177120, Note_on_c, 0, 68, 46
2, 177360, Note_on_c, 0, 57, 0
2, 177360, Note_on_c, 0, 58, 42
2, 177600, Note_on_c, 0, 58, 0
2, 177600, Note_on_c, 0, 60, 42
2, 177840, Note_on_c, 0, 60, 0
2, 177840, Note_on_c, 0, 68, 0
2, 177840, Note_on_c, 0, 62, 0
2, 177840, Note_on_c, 0, 61, 42
2, 178080, Note_on_c, 0, 61, 0
2, 178080, Note_on_c, 0, 62, 38
2, 178080, Note_on_c, 0, 68, 48
2, 178320, Note_on_c, 0, 62, 0
2, 178320, Note_on_c, 0, 58, 40
2, 178560, Note_on_c, 0, 58, 0
2, 178560, Note_on_c, 0, 68, 0
2, 178560, Note_on_c, 0, 63, 47
2, 178560, Note_on_c, 0, 75, 47
2, 178800, Note_on_c, 0, 75, 0
2, 178800, Note_on_c, 0, 63, 0
2, 178800, Note_on_c, 0, 65, 46
2, 178800, Note_on_c, 0, 77, 46
2, 179040, Note_on_c, 0, 77, 0
2, 179040, Note_on_c, 0, 65, 0
2, 179040, Note_on_c, 0, 79, 41
2, 179280, Note_on_c, 0, 79, 0
2, 179280, Note_on_c, 0, 70, 54
2, 179280, Note_on_c, 0, 82, 54
2, 179640, Note_on_c, 0, 82, 0
2, 179640, Note_on_c, 0, 70, 0
2, 179640, Note_on_c, 0, 70, 43
2, 179640, Note_on_c, 0, 82, 43
2, 180000, Note_on_c, 0, 82, 0
2, 180000, Note_on_c, 0, 70, 0
2, 180240, Note_on_c, 0, 70, 52
2, 180240, Note_on_c, 0, 82, 52
2, 180480, Note_on_c, 0, 82, 0
2, 180480, Note_on_c, 0, 70, 0
2, 180480, Note_on_c, 0, 72, 52
2, 180480, Note_on_c, 0, 84, 52
2, 180720, Note_on_c, 0, 84, 0
2, 180720, Note_on_c, 0, 72, 0
2, 180720, Note_on_c, 0, 74, 55
2, 180720, Note_on_c, 0, 86, 55
2, 180960, Note_on_c, 0, 86, 0
2, 180960, Note_on_c, 0, 74, 0
2, 180960, Note_on_c, 0, 89, 52
2, 180960, Note_on_c, 0, 77, 49
2, 181200, Note_on_c, 0, 77, 0
2, 181200, Note_on_c, 0, 89, 0
2, 181200, Note_on_c, 0, 86, 53
2, 181200, Note_on_c, 0, 74, 53
2, 181440, Note_on_c, 0, 74, 0
2, 181440, Note_on_c, 0, 86, 0
2, 181440, Note_on_c, 0, 84, 55
2, 181440, Note_on_c, 0, 72, 55
2, 181680, Note_on_c, 0, 72, 0
2, 181680, Note_on_c, 0, 84, 0
2, 181680, Note_on_c, 0, 74, 53
2, 181680, Note_on_c, 0, 86, 53
2, 181920, Note_on_c, 0, 86, 0
2, 181920, Note_on_c, 0, 74, 0
2, 181920, Note_on_c, 0, 72, 42
2, 181920, Note_on_c, 0, 84, 42
2, 182160, Note_on_c, 0, 84, 0
2, 182160, Note_on_c, 0, 72, 0
2, 182160, Note_on_c, 0, 67, 50
2, 182160, Note_on_c, 0, 79, 50
2, 182520, Note_on_c, 0, 79, 0
2, 182520, Note_on_c, 0, 67, 0
2, 182520, Note_on_c, 0, 67, 43
2, 182520, Note_on_c, 0, 79, 43
2, 182880, Note_on_c, 0, 79, 0
2, 182880, Note_on_c, 0, 67, 0
2, 183120, Note_on_c, 0, 65, 52
2, 183120, Note_on_c, 0, 77, 52
2, 183360, Note_on_c, 0, 77, 0
2, 183360, Note_on_c, 0, 65, 0
2, 183360, Note_on_c, 0, 67, 51
2, 183360, Note_on_c, 0, 79, 51
2, 183600, Note_on_c, 0, 79, 0
2, 183600, Note_on_c, 0, 67, 0
2, 183600, Note_on_c, 0, 68, 55
2, 183600, Note_on_c, 0, 80, 55
2, 183840, Note_on_c, 0, 80, 0
2, 183840, Note_on_c, 0, 68, 0
2, 183840, Note_on_c, 0, 82, 53
2, 183840, Note_on_c, 0, 70, 53
2, 184080, Note_on_c, 0, 70, 0
2, 184080, Note_on_c, 0, 82, 0
2, 184080, Note_on_c, 0, 80, 49
2, 184080, Note_on_c, 0, 68, 49
2, 184320, Note_on_c, 0, 68, 0
2, 184320, Note_on_c, 0, 80, 0
2, 184320, Note_on_c, 0, 79, 55
2, 184320, Note_on_c, 0, 67, 55
2, 184558, Note_on_c, 0, 67, 0
2, 184560, Note_on_c, 0, 79, 0
2, 184560, Note_on_c, 0, 65, 47
2, 184560, Note_on_c, 0, 77, 47
2, 184800, Note_on_c, 0, 77, 0
2, 184800, Note_on_c, 0, 65, 0
2, 184800, Note_on_c, 0, 63, 46
2, 184800, Note_on_c, 0, 75, 46
2, 185040, Note_on_c, 0, 75, 0
2, 185040, Note_on_c, 0, 63, 0
2, 185040, Note_on_c, 0, 58, 51
2, 185040, Note_on_c, 0, 70, 51
2, 185400, Note_on_c, 0, 70, 0
2, 185400, Note_on_c, 0, 58, 0
2, 185400, Note_on_c, 0, 58, 43
2, 185400, Note_on_c, 0, 70, 43
2, 185760, Note_on_c, 0, 70, 0
2, 185760, Note_on_c, 0, 58, 0
2, 186000, Note_on_c, 0, 62, 46
2, 186000, Note_on_c, 0, 65, 52
2, 186240, Note_on_c, 0, 65, 0
2, 186240, Note_on_c, 0, 67, 53
2, 186480, Note_on_c, 0, 67, 0
2, 186480, Note_on_c, 0, 68, 55
2, 186720, Note_on_c, 0, 68, 0
2, 186720, Note_on_c, 0, 70, 53
2, 186960, Note_on_c, 0, 70, 0
2, 186960, Note_on_c, 0, 68, 50
2, 187080, Note_on_c, 0, 68, 0
2, 187080, Note_on_c, 0, 67, 49
2, 187140, Note_on_c, 0, 67, 0
2, 187140, Note_on_c, 0, 68, 50
2, 187200, Note_on_c, 0, 68, 0
2, 187200, Note_on_c, 0, 62, 0
2, 187200, Note_on_c, 0, 63, 48
2, 187200, Note_on_c, 0, 67, 55
2, 187440, Note_on_c, 0, 67, 0
2, 187440, Note_on_c, 0, 65, 50
2, 187680, Note_on_c, 0, 65, 0
2, 187680, Note_on_c, 0, 63, 0
2, 187680, Note_on_c, 0, 63, 46
2, 187920, Note_on_c, 0, 63, 0
2, 187920, Note_on_c, 0, 58, 51
2, 188158, Note_on_c, 0, 58, 0
2, 188160, Note_on_c, 0, 60, 50
2, 188400, Note_on_c, 0, 60, 0
2, 188400, Note_on_c, 0, 63, 50
2, 188640, Note_on_c, 0, 63, 0
2, 188640, Note_on_c, 0, 56, 48
2, 188640, Note_on_c, 0, 62, 55
2, 188878, Note_on_c, 0, 56, 0
2, 188880, Note_on_c, 0, 62, 0
2, 188880, Note_on_c, 0, 65, 50
2, 189120, Note_on_c, 0, 65, 0
2, 189120, Note_on_c, 0, 62, 46
2, 189240, Note_on_c, 0, 62, 0
2, 189240, Note_on_c, 0, 60, 41
2, 189300, Note_on_c, 0, 60, 0
2, 189300, Note_on_c, 0, 62, 41
2, 189360, Note_on_c, 0, 62, 0
2, 189360, Note_on_c, 0, 60, 50
2, 189720, Note_on_c, 0, 60, 0
2, 189720, Note_on_c, 0, 58, 45
2, 189720, Note_on_c, 0, 56, 45
2, 190080, Note_on_c, 0, 56, 0
2, 190080, Note_on_c, 0, 58, 0
2, 190080, Note_on_c, 0, 58, 38
2, 190080, Note_on_c, 0, 67, 49
2, 190080, Note_on_c, 0, 63, 41
2, 190320, Note_on_c, 0, 58, 0
2, 190320, Note_on_c, 0, 57, 44
2, 190560, Note_on_c, 0, 57, 0
2, 190560, Note_on_c, 0, 58, 44
2, 190800, Note_on_c, 0, 58, 0
2, 190800, Note_on_c, 0, 63, 0
2, 190800, Note_on_c, 0, 67, 0
2, 190800, Note_on_c, 0, 55, 47
2, 191040, Note_on_c, 0, 55, 0
2, 191040, Note_on_c, 0, 67, 50
2, 191040, Note_on_c, 0, 63, 50
2, 191040, Note_on_c, 0, 55, 47
2, 191280, Note_on_c, 0, 55, 0
2, 191280, Note_on_c, 0, 58, 42
2, 191520, Note_on_c, 0, 58, 0
2, 191520, Note_on_c, 0, 63, 0
2, 191520, Note_on_c, 0, 67, 0
2, 191520, Note_on_c, 0, 57, 38
2, 191520, Note_on_c, 0, 62, 41
2, 191520, Note_on_c, 0, 68, 49
2, 191760, Note_on_c, 0, 57, 0
2, 191760, Note_on_c, 0, 58, 42
2, 192000, Note_on_c, 0, 58, 0
2, 192000, Note_on_c, 0, 60, 42
2, 192240, Note_on_c, 0, 60, 0
2, 192240, Note_on_c, 0, 68, 0
2, 192240, Note_on_c, 0, 62, 0
2, 192240, Note_on_c, 0, 61, 42
2, 192480, Note_on_c, 0, 61, 0
2, 192480, Note_on_c, 0, 62, 38
2, 192480, Note_on_c, 0, 68, 48
2, 192720, Note_on_c, 0, 62, 0
2, 192720, Note_on_c, 0, 58, 40
2, 192960, Note_on_c, 0, 58, 0
2, 192960, Note_on_c, 0, 68, 0
2, 192960, Note_on_c, 0, 58, 36
2, 192960, Note_on_c, 0, 67, 46
2, 192960, Note_on_c, 0, 63, 38
2, 193200, Note_on_c, 0, 58, 0
2, 193200, Note_on_c, 0, 57, 44
2, 193440, Note_on_c, 0, 57, 0
2, 193440, Note_on_c, 0, 58, 44
2, 193680, Note_on_c, 0, 58, 0
2, 193680, Note_on_c, 0, 63, 0
2, 193680, Note_on_c, 0, 67, 0
2, 193680, Note_on_c, 0, 55, 47
2, 193920, Note_on_c, 0, 55, 0
2, 193920, Note_on_c, 0, 67, 50
2, 193920, Note_on_c, 0, 63, 50
2, 193920, Note_on_c, 0, 55, 47
2, 194160, Note_on_c, 0, 55, 0
2, 194160, Note_on_c, 0, 58, 41
2, 194400, Note_on_c, 0, 58, 0
2, 194400, Note_on_c, 0, 63, 0
2, 194400, Note_on_c, 0, 67, 0
2, 194400, Note_on_c, 0, 57, 36
2, 194400, Note_on_c, 0, 62, 38
2, 194400, Note_on_c, 0, 68, 46
2, 194640, Note_on_c, 0, 57, 0
2, 194640, Note_on_c, 0, 58, 42
2, 194880, Note_on_c, 0, 58, 0
2, 194880, Note_on_c, 0, 60, 42
2, 195120, Note_on_c, 0, 60, 0
2, 195120, Note_on_c, 0, 68, 0
2, 195120, Note_on_c, 0, 62, 0
2, 195120, Note_on_c, 0, 61, 42
2, 195360, Note_on_c, 0, 61, 0
2, 195360, Note_on_c, 0, 62, 38
2, 195360, Note_on_c, 0, 68, 48
2, 195600, Note_on_c, 0, 62, 0
2, 195600, Note_on_c, 0, 58, 40
2, 195840, Note_on_c, 0, 58, 0
2, 195840, Note_on_c, 0, 68, 0
2, 195840, Note_on_c, 0, 63, 47
2, 195840, Note_on_c, 0, 75, 47
2, 196080, Note_on_c, 0, 75, 0
2, 196080, Note_on_c, 0, 63, 0
2, 196080, Note_on_c, 0, 65, 47
2, 196080, Note_on_c, 0, 77, 47
2, 196320, Note_on_c, 0, 77, 0
2, 196320, Note_on_c, 0, 65, 0
2, 196320, Note_on_c, 0, 79, 47
2, 196560, Note_on_c, 0, 79, 0
2, 196560, Note_on_c, 0, 70, 53
2, 196560, Note_on_c, 0, 82, 53
2, 197280, Note_on_c, 0, 82, 0
2, 197280, Note_on_c, 0, 70, 0
2, 197520, Note_on_c, 0, 70, 52
2, 197520, Note_on_c, 0, 82, 52
2, 197760, Note_on_c, 0, 82, 0
2, 197760, Note_on_c, 0, 70, 0
2, 197760, Note_on_c, 0, 72, 43
2, 197760, Note_on_c, 0, 84, 43
2, 198000, Note_on_c, 0, 84, 0
2, 198000, Note_on_c, 0, 72, 0
2, 198000, Note_on_c, 0, 73, 55
2, 198000, Note_on_c, 0, 85, 55
2, 198240, Note_on_c, 0, 85, 0
2, 198240, Note_on_c, 0, 73, 0
2, 198240, Note_on_c, 0, 89, 44
2, 198240, Note_on_c, 0, 77, 38
2, 198480, Note_on_c, 0, 77, 0
2, 198480, Note_on_c, 0, 89, 0
2, 198480, Note_on_c, 0, 85, 53
2, 198480, Note_on_c, 0, 73, 53
2, 198720, Note_on_c, 0, 73, 0
2, 198720, Note_on_c, 0, 85, 0
2, 198720, Note_on_c, 0, 84, 55
2, 198720, Note_on_c, 0, 72, 55
2, 198960, Note_on_c, 0, 72, 0
2, 198960, Note_on_c, 0, 84, 0
2, 198960, Note_on_c, 0, 70, 53
2, 198960, Note_on_c, 0, 82, 53
2, 199200, Note_on_c, 0, 82, 0
2, 199200, Note_on_c, 0, 70, 0
2, 199200, Note_on_c, 0, 63, 46
2, 199200, Note_on_c, 0, 75, 46
2, 199440, Note_on_c, 0, 75, 0
2, 199440, Note_on_c, 0, 63, 0
2, 199440, Note_on_c, 0, 63, 51
2, 199440, Note_on_c, 0, 75, 51
2, 199680, Note_on_c, 0, 75, 0
2, 199680, Note_on_c, 0, 63, 0
2, 199680, Note_on_c, 0, 65, 51
2, 199680, Note_on_c, 0, 77, 51
2, 200160, Note_on_c, 0, 77, 0
2, 200160, Note_on_c, 0, 65, 0
2, 200400, Note_on_c, 0, 67, 52
2, 200400, Note_on_c, 0, 79, 52
2, 200640, Note_on_c, 0, 79, 0
2, 200640, Note_on_c, 0, 67, 0
2, 200640, Note_on_c, 0, 68, 47
2, 200640, Note_on_c, 0, 80, 47
2, 200880, Note_on_c, 0, 80, 0
2, 200880, Note_on_c, 0, 68, 0
2, 200880, Note_on_c, 0, 70, 55
2, 200880, Note_on_c, 0, 82, 55
2, 201120, Note_on_c, 0, 82, 0
2, 201120, Note_on_c, 0, 70, 0
2, 201120, Note_on_c, 0, 87, 53
2, 201120, Note_on_c, 0, 75, 51
2, 201360, Note_on_c, 0, 75, 0
2, 201360, Note_on_c, 0, 87, 0
2, 201360, Note_on_c, 0, 84, 47
2, 201360, Note_on_c, 0, 72, 47
2, 201600, Note_on_c, 0, 72, 0
2, 201600, Note_on_c, 0, 84, 0
2, 201600, Note_on_c, 0, 82, 55
2, 201600, Note_on_c, 0, 70, 55
2, 201840, Note_on_c, 0, 70, 0
2, 201840, Note_on_c, 0, 82, 0
2, 201840, Note_on_c, 0, 68, 50
2, 201840, Note_on_c, 0, 80, 50
2, 202080, Note_on_c, 0, 80, 0
2, 202080, Note_on_c, 0, 68, 0
2, 202080, Note_on_c, 0, 63, 46
2, 202080, Note_on_c, 0, 75, 46
2, 202320, Note_on_c, 0, 75, 0
2, 202320, Note_on_c, 0, 63, 0
2, 202320, Note_on_c, 0, 63, 51
2, 202320, Note_on_c, 0, 75, 51
2, 202560, Note_on_c, 0, 75, 0
2, 202560, Note_on_c, 0, 63, 0
2, 202560, Note_on_c, 0, 68, 49
2, 202560, Note_on_c, 0, 80, 55
2, 203280, Note_on_c, 0, 80, 0
2, 203280, Note_on_c, 0, 68, 0
2, 203280, Note_on_c, 0, 72, 52
2, 203280, Note_on_c, 0, 75, 52
2, 203280, Note_on_c, 0, 84, 61
2, 203280, Note_on_c, 0, 80, 61
2, 204000, Note_on_c, 0, 80, 0
2, 204000, Note_on_c, 0, 72, 0
2, 204000, Note_on_c, 0, 75, 0
2, 204000, Note_on_c, 0, 84, 0
2, 204000, Note_on_c, 0, 87, 67
2, 204000, Note_on_c, 0, 84, 67
2, 204000, Note_on_c, 0, 80, 55
2, 204000, Note_on_c, 0, 75, 55
2, 204480, Note_on_c, 0, 75, 0
2, 204480, Note_on_c, 0, 87, 0
2, 204480, Note_on_c, 0, 84, 0
2, 204480, Note_on_c, 0, 80, 0
2, 204720, Note_on_c, 0, 63, 57
2, 204720, Note_on_c, 0, 75, 57
2, 205440, Note_on_c, 0, 75, 0
2, 205440, Note_on_c, 0, 63, 0
2, 205440, Note_on_c, 0, 68, 58
2, 205440, Note_on_c, 0, 80, 64
2, 206160, Note_on_c, 0, 80, 0
2, 206160, Note_on_c, 0, 68, 0
2, 206160, Note_on_c, 0, 71, 56
2, 206160, Note_on_c, 0, 75, 56
2, 206160, Note_on_c, 0, 83, 67
2, 206160, Note_on_c, 0, 80, 67
2, 206880, Note_on_c, 0, 80, 0
2, 206880, Note_on_c, 0, 71, 0
2, 206880, Note_on_c, 0, 75, 0
2, 206880, Note_on_c, 0, 83, 0
2, 206880, Note_on_c, 0, 87, 71
2, 206880, Note_on_c, 0, 83, 71
2, 206880, Note_on_c, 0, 80, 59
2, 206880, Note_on_c, 0, 75, 59
2, 207360, Note_on_c, 0, 75, 0
2, 207360, Note_on_c, 0, 87, 0
2, 207360, Note_on_c, 0, 83, 0
2, 207360, Note_on_c, 0, 80, 0
2, 207360, Note_on_c, 0, 63, 46
2, 207360, Note_on_c, 0, 75, 60
2, 207600, Note_on_c, 0, 75, 0
2, 207600, Note_on_c, 0, 63, 0
2, 207600, Note_on_c, 0, 65, 48
2, 207600, Note_on_c, 0, 77, 55
2, 207840, Note_on_c, 0, 77, 0
2, 207840, Note_on_c, 0, 65, 0
2, 207840, Note_on_c, 0, 67, 50
2, 207840, Note_on_c, 0, 79, 57
2, 208080, Note_on_c, 0, 79, 0
2, 208080, Note_on_c, 0, 67, 0
2, 208080, Note_on_c, 0, 70, 54
2, 208080, Note_on_c, 0, 82, 66
2, 208440, Note_on_c, 0, 82, 0
2, 208440, Note_on_c, 0, 70, 0
2, 208440, Note_on_c, 0, 70, 43
2, 208440, Note_on_c, 0, 82, 53
2, 208800, Note_on_c, 0, 82, 0
2, 208800, Note_on_c, 0, 70, 0
2, 209040, Note_on_c, 0, 70, 52
2, 209040, Note_on_c, 0, 82, 65
2, 209280, Note_on_c, 0, 82, 0
2, 209280, Note_on_c, 0, 70, 0
2, 209280, Note_on_c, 0, 72, 47
2, 209280, Note_on_c, 0, 84, 59
2, 209520, Note_on_c, 0, 84, 0
2, 209520, Note_on_c, 0, 72, 0
2, 209520, Note_on_c, 0, 74, 54
2, 209520, Note_on_c, 0, 86, 70
2, 209760, Note_on_c, 0, 86, 0
2, 209760, Note_on_c, 0, 74, 0
2, 209760, Note_on_c, 0, 89, 58
2, 209760, Note_on_c, 0, 77, 52
2, 210000, Note_on_c, 0, 77, 0
2, 210000, Note_on_c, 0, 89, 0
2, 210000, Note_on_c, 0, 86, 66
2, 210000, Note_on_c, 0, 74, 53
2, 210240, Note_on_c, 0, 74, 0
2, 210240, Note_on_c, 0, 86, 0
2, 210240, Note_on_c, 0, 84, 67
2, 210240, Note_on_c, 0, 72, 53
2, 210480, Note_on_c, 0, 72, 0
2, 210480, Note_on_c, 0, 84, 0
2, 210480, Note_on_c, 0, 74, 53
2, 210480, Note_on_c, 0, 86, 66
2, 210720, Note_on_c, 0, 86, 0
2, 210720, Note_on_c, 0, 74, 0
2, 210720, Note_on_c, 0, 72, 45
2, 210720, Note_on_c, 0, 84, 57
2, 210960, Note_on_c, 0, 84, 0
2, 210960, Note_on_c, 0, 72, 0
2, 210960, Note_on_c, 0, 67, 51
2, 210960, Note_on_c, 0, 79, 63
2, 211320, Note_on_c, 0, 79, 0
2, 211320, Note_on_c, 0, 67, 0
2, 211320, Note_on_c, 0, 67, 43
2, 211320, Note_on_c, 0, 79, 53
2, 211680, Note_on_c, 0, 79, 0
2, 211680, Note_on_c, 0, 67, 0
2, 211920, Note_on_c, 0, 70, 52
2, 211920, Note_on_c, 0, 82, 62
2, 212160, Note_on_c, 0, 82, 0
2, 212160, Note_on_c, 0, 70, 0
2, 212160, Note_on_c, 0, 72, 44
2, 212160, Note_on_c, 0, 84, 52
2, 212400, Note_on_c, 0, 84, 0
2, 212400, Note_on_c, 0, 72, 0
2, 212400, Note_on_c, 0, 70, 55
2, 212400, Note_on_c, 0, 82, 65
2, 212640, Note_on_c, 0, 82, 0
2, 212640, Note_on_c, 0, 70, 0
2, 212640, Note_on_c, 0, 80, 60
2, 212640, Note_on_c, 0, 68, 48
2, 212880, Note_on_c, 0, 68, 0
2, 212880, Note_on_c, 0, 80, 0
2, 212880, Note_on_c, 0, 79, 58
2, 212880, Note_on_c, 0, 67, 49
2, 213120, Note_on_c, 0, 67, 0
2, 213120, Note_on_c, 0, 79, 0
2, 213120, Note_on_c, 0, 77, 62
2, 213120, Note_on_c, 0, 65, 52
2, 213360, Note_on_c, 0, 65, 0
2, 213360, Note_on_c, 0, 77, 0
2, 213360, Note_on_c, 0, 67, 49
2, 213360, Note_on_c, 0, 79, 58
2, 213600, Note_on_c, 0, 79, 0
2, 213600, Note_on_c, 0, 67, 0
2, 213600, Note_on_c, 0, 68, 47
2, 213600, Note_on_c, 0, 80, 56
2, 213840, Note_on_c, 0, 80, 0
2, 213840, Note_on_c, 0, 68, 0
2, 213840, Note_on_c, 0, 75, 57
2, 213840, Note_on_c, 0, 87, 71
2, 214200, Note_on_c, 0, 87, 0
2, 214200, Note_on_c, 0, 75, 0
2, 214200, Note_on_c, 0, 72, 48
2, 214200, Note_on_c, 0, 84, 57
2, 214560, Note_on_c, 0, 84, 0
2, 214560, Note_on_c, 0, 72, 0
2, 214800, Note_on_c, 0, 72, 52
2, 214800, Note_on_c, 0, 84, 62
2, 215040, Note_on_c, 0, 84, 0
2, 215040, Note_on_c, 0, 72, 0
2, 215040, Note_on_c, 0, 75, 49
2, 215040, Note_on_c, 0, 87, 58
2, 215280, Note_on_c, 0, 87, 0
2, 215280, Note_on_c, 0, 75, 0
2, 215280, Note_on_c, 0, 72, 49
2, 215280, Note_on_c, 0, 84, 61
2, 215520, Note_on_c, 0, 84, 0
2, 215520, Note_on_c, 0, 72, 0
2, 215520, Note_on_c, 0, 80, 60
2, 215520, Note_on_c, 0, 68, 51
2, 215760, Note_on_c, 0, 68, 0
2, 215760, Note_on_c, 0, 80, 0
2, 215760, Note_on_c, 0, 79, 58
2, 215760, Note_on_c, 0, 67, 49
2, 216000, Note_on_c, 0, 67, 0
2, 216000, Note_on_c, 0, 79, 0
2, 216000, Note_on_c, 0, 77, 58
2, 216000, Note_on_c, 0, 65, 49
2, 216240, Note_on_c, 0, 65, 0
2, 216240, Note_on_c, 0, 77, 0
2, 216240, Note_on_c, 0, 67, 49
2, 216240, Note_on_c, 0, 79, 58
2, 216480, Note_on_c, 0, 79, 0
2, 216480, Note_on_c, 0, 67, 0
2, 216480, Note_on_c, 0, 68, 47
2, 216480, Note_on_c, 0, 80, 56
2, 216720, Note_on_c, 0, 80, 0
2, 216720, Note_on_c, 0, 68, 0
2, 216720, Note_on_c, 0, 74, 57
2, 216720, Note_on_c, 0, 86, 71
2, 217080, Note_on_c, 0, 86, 0
2, 217080, Note_on_c, 0, 74, 0
2, 217080, Note_on_c, 0, 72, 48
2, 217080, Note_on_c, 0, 84, 57
2, 217680, Note_on_c, 0, 84, 0
2, 217680, Note_on_c, 0, 72, 0
2, 217680, Note_on_c, 0, 64, 44
2, 217680, Note_on_c, 0, 76, 52
2, 217920, Note_on_c, 0, 76, 0
2, 217920, Note_on_c, 0, 64, 0
2, 217920, Note_on_c, 0, 65, 40
2, 217920, Note_on_c, 0, 77, 48
2, 218160, Note_on_c, 0, 77, 0
2, 218160, Note_on_c, 0, 65, 0
2, 218160, Note_on_c, 0, 68, 47
2, 218160, Note_on_c, 0, 80, 57
2, 218520, Note_on_c, 0, 80, 0
2, 218520, Note_on_c, 0, 68, 0
2, 218520, Note_on_c, 0, 67, 43
2, 218520, Note_on_c, 0, 79, 51
2, 218880, Note_on_c, 0, 79, 0
2, 218880, Note_on_c, 0, 67, 0
2, 218880, Note_on_c, 0, 58, 38
2, 218880, Note_on_c, 0, 67, 49
2, 218880, Note_on_c, 0, 63, 41
2, 219120, Note_on_c, 0, 58, 0
2, 219120, Note_on_c, 0, 57, 41
2, 219360, Note_on_c, 0, 57, 0
2, 219360, Note_on_c, 0, 58, 44
2, 219600, Note_on_c, 0, 58, 0
2, 219600, Note_on_c, 0, 63, 0
2, 219600, Note_on_c, 0, 67, 0
2, 219600, Note_on_c, 0, 55, 47
2, 219840, Note_on_c, 0, 55, 0
2, 219840, Note_on_c, 0, 67, 50
2, 219840, Note_on_c, 0, 63, 50
2, 219840, Note_on_c, 0, 55, 47
2, 220080, Note_on_c, 0, 55, 0
2, 220080, Note_on_c, 0, 58, 42
2, 220320, Note_on_c, 0, 58, 0
2, 220320, Note_on_c, 0, 63, 0
2, 220320, Note_on_c, 0, 67, 0
2, 220320, Note_on_c, 0, 57, 38
2, 220320, Note_on_c, 0, 62, 41
2, 220320, Note_on_c, 0, 68, 49
2, 220560, Note_on_c, 0, 57, 0
2, 220560, Note_on_c, 0, 58, 39
2, 220800, Note_on_c, 0, 58, 0
2, 220800, Note_on_c, 0, 60, 42
2, 221040, Note_on_c, 0, 60, 0
2, 221040, Note_on_c, 0, 68, 0
2, 221040, Note_on_c, 0, 62, 0
2, 221040, Note_on_c, 0, 61, 38
2, 221280, Note_on_c, 0, 61, 0
2, 221280, Note_on_c, 0, 62, 38
2, 221280, Note_on_c, 0, 68, 48
2, 221520, Note_on_c, 0, 62, 0
2, 221520, Note_on_c, 0, 58, 40
2, 221760, Note_on_c, 0, 58, 0
2, 221760, Note_on_c, 0, 68, 0
2, 221760, Note_on_c, 0, 58, 36
2, 221760, Note_on_c, 0, 67, 46
2, 221760, Note_on_c, 0, 63, 38
2, 222000, Note_on_c, 0, 58, 0
2, 222000, Note_on_c, 0, 57, 44
2, 222240, Note_on_c, 0, 57, 0
2, 222240, Note_on_c, 0, 58, 42
2, 222480, Note_on_c, 0, 58, 0
2, 222480, Note_on_c, 0, 63, 0
2, 222480, Note_on_c, 0, 67, 0
2, 222480, Note_on_c, 0, 55, 47
2, 222720, Note_on_c, 0, 55, 0
2, 222720, Note_on_c, 0, 67, 50
2, 222720, Note_on_c, 0, 63, 50
2, 222720, Note_on_c, 0, 55, 47
2, 222960, Note_on_c, 0, 55, 0
2, 222960, Note_on_c, 0, 58, 41
2, 223200, Note_on_c, 0, 58, 0
2, 223200, Note_on_c, 0, 63, 0
2, 223200, Note_on_c, 0, 67, 0
2, 223200, Note_on_c, 0, 57, 36
2, 223200, Note_on_c, 0, 62, 38
2, 223200, Note_on_c, 0, 68, 46
2, 223440, Note_on_c, 0, 57, 0
2, 223440, Note_on_c, 0, 58, 39
2, 223680, Note_on_c, 0, 58, 0
2, 223680, Note_on_c, 0, 60, 42
2, 223920, Note_on_c, 0, 60, 0
2, 223920, Note_on_c, 0, 68, 0
2, 223920, Note_on_c, 0, 62, 0
2, 223920, Note_on_c, 0, 61, 37
2, 224160, Note_on_c, 0, 61, 0
2, 224160, Note_on_c, 0, 62, 38
2, 224160, Note_on_c, 0, 68, 48
2, 224400, Note_on_c, 0, 62, 0
2, 224400, Note_on_c, 0, 58, 40
2, 224640, Note_on_c, 0, 58, 0
2, 224640, Note_on_c, 0, 68, 0
2, 224640, Note_on_c, 0, 63, 31
2, 224640, Note_on_c, 0, 75, 31
2, 224880, Note_on_c, 0, 75, 0
2, 224880, Note_on_c, 0, 63, 0
2, 224880, Note_on_c, 0, 65, 30
2, 224880, Note_on_c, 0, 77, 30
2, 225120, Note_on_c, 0, 77, 0
2, 225120, Note_on_c, 0, 65, 0
2, 225120, Note_on_c, 0, 79, 30
2, 225360, Note_on_c, 0, 79, 0
2, 225360, Note_on_c, 0, 70, 36
2, 225360, Note_on_c, 0, 82, 36
2, 225720, Note_on_c, 0, 82, 0
2, 225720, Note_on_c, 0, 70, 0
2, 225720, Note_on_c, 0, 70, 28
2, 225720, Note_on_c, 0, 82, 28
2, 226080, Note_on_c, 0, 82, 0
2, 226080, Note_on_c, 0, 70, 0
2, 226320, Note_on_c, 0, 70, 35
2, 226320, Note_on_c, 0, 82, 35
2, 226560, Note_on_c, 0, 82, 0
2, 226560, Note_on_c, 0, 70, 0
2, 226560, Note_on_c, 0, 72, 31
2, 226560, Note_on_c, 0, 84, 31
2, 226800, Note_on_c, 0, 84, 0
2, 226800, Note_on_c, 0, 72, 0
2, 226800, Note_on_c, 0, 74, 36
2, 226800, Note_on_c, 0, 86, 36
2, 227040, Note_on_c, 0, 86, 0
2, 227040, Note_on_c, 0, 74, 0
2, 227040, Note_on_c, 0, 89, 33
2, 227040, Note_on_c, 0, 77, 33
2, 227280, Note_on_c, 0, 77, 0
2, 227280, Note_on_c, 0, 89, 0
2, 227280, Note_on_c, 0, 86, 36
2, 227280, Note_on_c, 0, 74, 36
2, 227520, Note_on_c, 0, 74, 0
2, 227520, Note_on_c, 0, 86, 0
2, 227520, Note_on_c, 0, 84, 36
2, 227520, Note_on_c, 0, 72, 36
2, 227760, Note_on_c, 0, 72, 0
2, 227760, Note_on_c, 0, 84, 0
2, 227760, Note_on_c, 0, 74, 33
2, 227760, Note_on_c, 0, 86, 33
2, 228000, Note_on_c, 0, 86, 0
2, 228000, Note_on_c, 0, 74, 0
2, 228000, Note_on_c, 0, 72, 31
2, 228000, Note_on_c, 0, 84, 31
2, 228240, Note_on_c, 0, 84, 0
2, 228240, Note_on_c, 0, 72, 0
2, 228240, Note_on_c, 0, 67, 34
2, 228240, Note_on_c, 0, 79, 34
2, 228600, Note_on_c, 0, 79, 0
2, 228600, Note_on_c, 0, 67, 0
2, 228600, Note_on_c, 0, 67, 28
2, 228600, Note_on_c, 0, 79, 28
2, 228960, Note_on_c, 0, 79, 0
2, 228960, Note_on_c, 0, 67, 0
2, 229200, Note_on_c, 0, 65, 35
2, 229200, Note_on_c, 0, 77, 35
2, 229440, Note_on_c, 0, 77, 0
2, 229440, Note_on_c, 0, 65, 0
2, 229440, Note_on_c, 0, 67, 32
2, 229440, Note_on_c, 0, 79, 32
2, 229680, Note_on_c, 0, 79, 0
2, 229680, Note_on_c, 0, 67, 0
2, 229680, Note_on_c, 0, 68, 36
2, 229680, Note_on_c, 0, 80, 36
2, 229920, Note_on_c, 0, 80, 0
2, 229920, Note_on_c, 0, 68, 0
2, 229920, Note_on_c, 0, 82, 36
2, 229920, Note_on_c, 0, 70, 36
2, 230160, Note_on_c, 0, 70, 0
2, 230160, Note_on_c, 0, 82, 0
2, 230160, Note_on_c, 0, 80, 36
2, 230160, Note_on_c, 0, 68, 36
2, 230400, Note_on_c, 0, 68, 0
2, 230400, Note_on_c, 0, 80, 0
2, 230400, Note_on_c, 0, 79, 36
2, 230400, Note_on_c, 0, 67, 36
2, 230638, Note_on_c, 0, 67, 0
2, 230640, Note_on_c, 0, 79, 0
2, 230640, Note_on_c, 0, 65, 33
2, 230640, Note_on_c, 0, 77, 33
2, 230880, Note_on_c, 0, 77, 0
2, 230880, Note_on_c, 0, 65, 0
2, 230880, Note_on_c, 0, 63, 31
2, 230880, Note_on_c, 0, 75, 31
2, 231120, Note_on_c, 0, 75, 0
2, 231120, Note_on_c, 0, 63, 0
2, 231120, Note_on_c, 0, 58, 34
2, 231120, Note_on_c, 0, 70, 34
2, 231480, Note_on_c, 0, 70, 0
2, 231480, Note_on_c, 0, 58, 0
2, 231480, Note_on_c, 0, 58, 28
2, 231480, Note_on_c, 0, 70, 28
2, 231840, Note_on_c, 0, 70, 0
2, 231840, Note_on_c, 0, 58, 0
2, 232080, Note_on_c, 0, 62, 31
2, 232080, Note_on_c, 0, 65, 35
2, 232320, Note_on_c, 0, 65, 0
2, 232320, Note_on_c, 0, 67, 32
2, 232560, Note_on_c, 0, 67, 0
2, 232560, Note_on_c, 0, 68, 36
2, 232800, Note_on_c, 0, 68, 0
2, 232800, Note_on_c, 0, 70, 36
2, 233040, Note_on_c, 0, 70, 0
2, 233040, Note_on_c, 0, 68, 36
2, 233160, Note_on_c, 0, 68, 0
2, 233160, Note_on_c, 0, 67, 32
2, 233220, Note_on_c, 0, 67, 0
2, 233220, Note_on_c, 0, 68, 33
2, 233280, Note_on_c, 0, 68, 0
2, 233280, Note_on_c, 0, 62, 0
2, 233280, Note_on_c, 0, 63, 32
2, 233280, Note_on_c, 0, 67, 36
2, 233520, Note_on_c, 0, 67, 0
2, 233520, Note_on_c, 0, 65, 33
2, 233760, Note_on_c, 0, 65, 0
2, 233760, Note_on_c, 0, 63, 0
2, 233760, Note_on_c, 0, 63, 31
2, 234000, Note_on_c, 0, 63, 0
2, 234000, Note_on_c, 0, 58, 34
2, 234238, Note_on_c, 0, 58, 0
2, 234240, Note_on_c, 0, 60, 33
2, 234480, Note_on_c, 0, 60, 0
2, 234480, Note_on_c, 0, 63, 33
2, 234720, Note_on_c, 0, 63, 0
2, 234720, Note_on_c, 0, 56, 32
2, 234720, Note_on_c, 0, 62, 36
2, 234958, Note_on_c, 0, 56, 0
2, 234960, Note_on_c, 0, 62, 0
2, 234960, Note_on_c, 0, 65, 33
2, 235200, Note_on_c, 0, 65, 0
2, 235200, Note_on_c, 0, 62, 31
2, 235320, Note_on_c, 0, 62, 0
2, 235320, Note_on_c, 0, 60, 27
2, 235380, Note_on_c, 0, 60, 0
2, 235380, Note_on_c, 0, 62, 27
2, 235440, Note_on_c, 0, 62, 0
2, 235440, Note_on_c, 0, 60, 33
2, 235800, Note_on_c, 0, 60, 0
2, 235800, Note_on_c, 0, 58, 30
2, 235800, Note_on_c, 0, 56, 30
2, 236160, Note_on_c, 0, 56, 0
2, 236160, Note_on_c, 0, 58, 0
2, 236160, Note_on_c, 0, 63, 31
2, 236160, Note_on_c, 0, 75, 31
2, 236400, Note_on_c, 0, 75, 0
2, 236400, Note_on_c, 0, 63, 0
2, 236400, Note_on_c, 0, 65, 28
2, 236400, Note_on_c, 0, 77, 28
2, 236640, Note_on_c, 0, 77, 0
2, 236640, Note_on_c, 0, 65, 0
2, 236640, Note_on_c, 0, 79, 27
2, 236880, Note_on_c, 0, 79, 0
2, 236880, Note_on_c, 0, 70, 36
2, 236880, Note_on_c, 0, 82, 36
2, 237240, Note_on_c, 0, 82, 0
2, 237240, Note_on_c, 0, 70, 0
2, 237240, Note_on_c, 0, 70, 28
2, 237240, Note_on_c, 0, 82, 28
2, 237600, Note_on_c, 0, 82, 0
2, 237600, Note_on_c, 0, 70, 0
2, 237840, Note_on_c, 0, 70, 35
2, 237840, Note_on_c, 0, 82, 35
2, 238080, Note_on_c, 0, 82, 0
2, 238080, Note_on_c, 0, 70, 0
2, 238080, Note_on_c, 0, 72, 28
2, 238080, Note_on_c, 0, 84, 28
2, 238320, Note_on_c, 0, 84, 0
2, 238320, Note_on_c, 0, 72, 0
2, 238320, Note_on_c, 0, 74, 36
2, 238320, Note_on_c, 0, 86, 36
2, 238560, Note_on_c, 0, 86, 0
2, 238560, Note_on_c, 0, 74, 0
2, 238560, Note_on_c, 0, 89, 30
2, 238560, Note_on_c, 0, 77, 28
2, 238800, Note_on_c, 0, 77, 0
2, 238800, Note_on_c, 0, 89, 0
2, 238800, Note_on_c, 0, 86, 36
2, 238800, Note_on_c, 0, 74, 36
2, 239040, Note_on_c, 0, 74, 0
2, 239040, Note_on_c, 0, 86, 0
2, 239040, Note_on_c, 0, 84, 36
2, 239040, Note_on_c, 0, 72, 36
2, 239280, Note_on_c, 0, 72, 0
2, 239280, Note_on_c, 0, 84, 0
2, 239280, Note_on_c, 0, 74, 32
2, 239280, Note_on_c, 0, 86, 32
2, 239520, Note_on_c, 0, 86, 0
2, 239520, Note_on_c, 0, 74, 0
2, 239520, Note_on_c, 0, 72, 31
2, 239520, Note_on_c, 0, 84, 31
2, 239760, Note_on_c, 0, 84, 0
2, 239760, Note_on_c, 0, 72, 0
2, 239760, Note_on_c, 0, 67, 34
2, 239760, Note_on_c, 0, 79, 34
2, 240120, Note_on_c, 0, 79, 0
2, 240120, Note_on_c, 0, 67, 0
2, 240120, Note_on_c, 0, 67, 28
2, 240120, Note_on_c, 0, 79, 28
2, 240480, Note_on_c, 0, 79, 0
2, 240480, Note_on_c, 0, 67, 0
2, 240720, Note_on_c, 0, 65, 35
2, 240720, Note_on_c, 0, 77, 35
2, 240960, Note_on_c, 0, 77, 0
2, 240960, Note_on_c, 0, 65, 0
2, 240960, Note_on_c, 0, 67, 32
2, 240960, Note_on_c, 0, 79, 32
2, 241200, Note_on_c, 0, 79, 0
2, 241200, Note_on_c, 0, 67, 0
2, 241200, Note_on_c, 0, 68, 36
2, 241200, Note_on_c, 0, 80, 36
2, 241440, Note_on_c, 0, 80, 0
2, 241440, Note_on_c, 0, 68, 0
2, 241440, Note_on_c, 0, 82, 32
2, 241440, Note_on_c, 0, 70, 32
2, 241680, Note_on_c, 0, 70, 0
2, 241680, Note_on_c, 0, 82, 0
2, 241680, Note_on_c, 0, 80, 36
2, 241680, Note_on_c, 0, 68, 36
2, 241920, Note_on_c, 0, 68, 0
2, 241920, Note_on_c, 0, 80, 0
2, 241920, Note_on_c, 0, 79, 36
2, 241920, Note_on_c, 0, 67, 36
2, 242158, Note_on_c, 0, 67, 0
2, 242160, Note_on_c, 0, 79, 0
2, 242160, Note_on_c, 0, 65, 33
2, 242160, Note_on_c, 0, 77, 33
2, 242400, Note_on_c, 0, 77, 0
2, 242400, Note_on_c, 0, 65, 0
2, 242400, Note_on_c, 0, 63, 31
2, 242400, Note_on_c, 0, 75, 31
2, 242640, Note_on_c, 0, 75, 0
2, 242640, Note_on_c, 0, 63, 0
2, 242640, Note_on_c, 0, 58, 34
2, 242640, Note_on_c, 0, 70, 34
2, 243000, Note_on_c, 0, 70, 0
2, 243000, Note_on_c, 0, 58, 0
2, 243000, Note_on_c, 0, 58, 28
2, 243000, Note_on_c, 0, 70, 28
2, 243360, Note_on_c, 0, 70, 0
2, 243360, Note_on_c, 0, 58, 0
2, 243600, Note_on_c, 0, 62, 31
2, 243600, Note_on_c, 0, 65, 35
2, 243840, Note_on_c, 0, 65, 0
2, 243840, Note_on_c, 0, 67, 32
2, 244080, Note_on_c, 0, 67, 0
2, 244080, Note_on_c, 0, 68, 36
2, 244320, Note_on_c, 0, 68, 0
2, 244320, Note_on_c, 0, 70, 34
2, 244560, Note_on_c, 0, 70, 0
2, 244560, Note_on_c, 0, 68, 36
2, 244680, Note_on_c, 0, 68, 0
2, 244680, Note_on_c, 0, 67, 32
2, 244740, Note_on_c, 0, 67, 0
2, 244740, Note_on_c, 0, 68, 33
2, 244800, Note_on_c, 0, 68, 0
2, 244800, Note_on_c, 0, 62, 0
2, 244800, Note_on_c, 0, 63, 32
2, 244800, Note_on_c, 0, 67, 36
2, 245040, Note_on_c, 0, 67, 0
2, 245040, Note_on_c, 0, 65, 33
2, 245280, Note_on_c, 0, 65, 0
2, 245280, Note_on_c, 0, 63, 0
2, 245280, Note_on_c, 0, 63, 31
2, 245520, Note_on_c, 0, 63, 0
2, 245520, Note_on_c, 0, 58, 34
2, 245758, Note_on_c, 0, 58, 0
2, 245760, Note_on_c, 0, 60, 33
2, 246000, Note_on_c, 0, 60, 0
2, 246000, Note_on_c, 0, 63, 33
2, 246240, Note_on_c, 0, 63, 0
2, 246240, Note_on_c, 0, 56, 32
2, 246240, Note_on_c, 0, 62, 36
2, 246478, Note_on_c, 0, 56, 0
2, 246480, Note_on_c, 0, 62, 0
2, 246480, Note_on_c, 0, 65, 33
2, 246720, Note_on_c, 0, 65, 0
2, 246720, Note_on_c, 0, 62, 31
2, 246840, Note_on_c, 0, 62, 0
2, 246840, Note_on_c, 0, 60, 27
2, 246900, Note_on_c, 0, 60, 0
2, 246900, Note_on_c, 0, 62, 27
2, 246960, Note_on_c, 0, 62, 0
2, 246960, Note_on_c, 0, 60, 33
2, 247320, Note_on_c, 0, 60, 0
2, 247320, Note_on_c, 0, 58, 30
2, 247320, Note_on_c, 0, 56, 30
2, 247680, Note_on_c, 0, 56, 0
2, 247680, Note_on_c, 0, 58, 0
2, 247680, Note_on_c, 0, 58, 28
2, 247680, Note_on_c, 0, 67, 36
2, 247680, Note_on_c, 0, 63, 30
2, 247920, Note_on_c, 0, 58, 0
2, 247920, Note_on_c, 0, 57, 33
2, 248160, Note_on_c, 0, 57, 0
2, 248160, Note_on_c, 0, 58, 33
2, 248400, Note_on_c, 0, 58, 0
2, 248400, Note_on_c, 0, 63, 0
2, 248400, Note_on_c, 0, 67, 0
2, 248400, Note_on_c, 0, 55, 35
2, 248640, Note_on_c, 0, 55, 0
2, 248640, Note_on_c, 0, 67, 37
2, 248640, Note_on_c, 0, 63, 37
2, 248640, Note_on_c, 0, 55, 35
2, 248880, Note_on_c, 0, 55, 0
2, 248880, Note_on_c, 0, 58, 31
2, 249120, Note_on_c, 0, 58, 0
2, 249120, Note_on_c, 0, 63, 0
2, 249120, Note_on_c, 0, 67, 0
2, 249120, Note_on_c, 0, 57, 28
2, 249120, Note_on_c, 0, 62, 30
2, 249120, Note_on_c, 0, 68, 36
2, 249360, Note_on_c, 0, 57, 0
2, 249360, Note_on_c, 0, 58, 31
2, 249600, Note_on_c, 0, 58, 0
2, 249600, Note_on_c, 0, 60, 31
2, 249840, Note_on_c, 0, 60, 0
2, 249840, Note_on_c, 0, 68, 0
2, 249840, Note_on_c, 0, 62, 0
2, 249840, Note_on_c, 0, 61, 31
2, 250080, Note_on_c, 0, 61, 0
2, 250080, Note_on_c, 0, 62, 28
2, 250080, Note_on_c, 0, 68, 36
2, 250320, Note_on_c, 0, 62, 0
2, 250320, Note_on_c, 0, 58, 30
2, 250560, Note_on_c, 0, 58, 0
2, 250560, Note_on_c, 0, 68, 0
2, 250560, Note_on_c, 0, 58, 27
2, 250560, Note_on_c, 0, 67, 35
2, 250560, Note_on_c, 0, 63, 28
2, 250800, Note_on_c, 0, 58, 0
2, 250800, Note_on_c, 0, 57, 33
2, 251040, Note_on_c, 0, 57, 0
2, 251040, Note_on_c, 0, 58, 33
2, 251280, Note_on_c, 0, 58, 0
2, 251280, Note_on_c, 0, 63, 0
2, 251280, Note_on_c, 0, 67, 0
2, 251280, Note_on_c, 0, 55, 35
2, 251520, Note_on_c, 0, 55, 0
2, 251520, Note_on_c, 0, 67, 37
2, 251520, Note_on_c, 0, 63, 37
2, 251520, Note_on_c, 0, 55, 35
2, 251760, Note_on_c, 0, 55, 0
2, 251760, Note_on_c, 0, 58, 30
2, 252000, Note_on_c, 0, 58, 0
2, 252000, Note_on_c, 0, 63, 0
2, 252000, Note_on_c, 0, 67, 0
2, 252000, Note_on_c, 0, 57, 27
2, 252000, Note_on_c, 0, 62, 28
2, 252000, Note_on_c, 0, 68, 35
2, 252240, Note_on_c, 0, 57, 0
2, 252240, Note_on_c, 0, 58, 31
2, 252480, Note_on_c, 0, 58, 0
2, 252480, Note_on_c, 0, 60, 31
2, 252720, Note_on_c, 0, 60, 0
2, 252720, Note_on_c, 0, 68, 0
2, 252720, Note_on_c, 0, 62, 0
2, 252720, Note_on_c, 0, 61, 31
2, 252960, Note_on_c, 0, 61, 0
2, 252960, Note_on_c, 0, 62, 28
2, 252960, Note_on_c, 0, 68, 36
2, 253200, Note_on_c, 0, 62, 0
2, 253200, Note_on_c, 0, 58, 30
2, 253440, Note_on_c, 0, 58, 0
2, 253440, Note_on_c, 0, 68, 0
2, 253440, Note_on_c, 0, 58, 27
2, 253440, Note_on_c, 0, 67, 35
2, 253440, Note_on_c, 0, 63, 28
2, 253680, Note_on_c, 0, 58, 0
2, 253680, Note_on_c, 0, 57, 31
2, 253920, Note_on_c, 0, 57, 0
2, 253920, Note_on_c, 0, 58, 31
2, 254160, Note_on_c, 0, 58, 0
2, 254160, Note_on_c, 0, 63, 0
2, 254160, Note_on_c, 0, 67, 0
2, 254160, Note_on_c, 0, 55, 33
2, 254400, Note_on_c, 0, 55, 0
2, 254400, Note_on_c, 0, 67, 36
2, 254400, Note_on_c, 0, 63, 36
2, 254400, Note_on_c, 0, 55, 33
2, 254640, Note_on_c, 0, 55, 0
2, 254640, Note_on_c, 0, 58, 28
2, 254880, Note_on_c, 0, 58, 0
2, 254880, Note_on_c, 0, 63, 0
2, 254880, Note_on_c, 0, 67, 0
2, 254880, Note_on_c, 0, 58, 25
2, 254880, Note_on_c, 0, 67, 32
2, 254880, Note_on_c, 0, 63, 27
2, 255120, Note_on_c, 0, 58, 0
2, 255120, Note_on_c, 0, 57, 29
2, 255360, Note_on_c, 0, 57, 0
2, 255360, Note_on_c, 0, 58, 28
2, 255600, Note_on_c, 0, 58, 0
2, 255600, Note_on_c, 0, 63, 0
2, 255600, Note_on_c, 0, 67, 0
2, 255600, Note_on_c, 0, 55, 31
2, 255840, Note_on_c, 0, 55, 0
2, 255840, Note_on_c, 0, 67, 29
2, 255840, Note_on_c, 0, 63, 29
2, 255840, Note_on_c, 0, 55, 27
2, 256080, Note_on_c, 0, 55, 0
2, 256080, Note_on_c, 0, 58, 23
2, 256320, Note_on_c, 0, 58, 0
2, 256320, Note_on_c, 0, 63, 0
2, 256320, Note_on_c, 0, 67, 0
2, 256320, Note_on_c, 0, 55, 22
2, 256320, Note_on_c, 0, 63, 22
2, 256320, Note_on_c, 0, 67, 27
2, 258478, Note_on_c, 0, 63, 0
2, 258480, Note_on_c, 0, 67, 0
2, 258480, Note_on_c, 0, 55, 0
2, 258480, Note_on_c, 0, 75, 27
2, 258480, Note_on_c, 0, 79, 27
2, 258480, Note_on_c, 0, 87, 33
2, 259200, Note_on_c, 0, 87, 0
2, 259200, Note_on_c, 0, 79, 0
2, 259200, Note_on_c, 0, 75, 0
2, 259200, Note_on_c, 0, 94, 27
2, 259200, Note_on_c, 0, 87, 27
2, 259200, Note_on_c, 0, 91, 27
2, 259200, Note_on_c, 0, 99, 33
2, 260640, Note_on_c, 0, 99, 0
2, 260640, Note_on_c, 0, 94, 0
2, 260640, Note_on_c, 0, 87, 0
2, 260640, Note_on_c, 0, 91, 0
2, 260640, End_track
3, 0, Start_track
3, 0, Title_t, "Piano left"
3, 0, Program_c, 0, 0
3, 0, Control_c, 0, 7, 100
3, 0, Control_c, 0, 10, 64
3, 0, Control_c, 0, 64, 127
3, 0, Note_on_c, 0, 39, 36
3, 0, Note_on_c, 0, 51, 43
3, 720, Note_on_c, 0, 51, 0
3, 720, Note_on_c, 0, 39, 0
3, 960, Note_on_c, 0, 34, 34
3, 960, Note_on_c, 0, 46, 41
3, 976, Control_c, 0, 64, 0
3, 1097, Control_c, 0, 64, 127
3, 1440, Note_on_c, 0, 46, 0
3, 1440, Note_on_c, 0, 34, 0
3, 1440, Note_on_c, 0, 53, 44
3, 1440, Note_on_c, 0, 41, 36
3, 1447, Control_c, 0, 64, 0
3, 1577, Control_c, 0, 64, 127
3, 2160, Note_on_c, 0, 41, 0
3, 2160, Note_on_c, 0, 53, 0
3, 2400, Note_on_c, 0, 34, 34
3, 2400, Note_on_c, 0, 46, 41
3, 2417, Control_c, 0, 64, 0
3, 2560, Control_c, 0, 64, 127
3, 2880, Note_on_c, 0, 46, 0
3, 2880, Note_on_c, 0, 34, 0
3, 2880, Note_on_c, 0, 51, 40
3, 2880, Note_on_c, 0, 39, 34
3, 2888, Control_c, 0, 64, 0
3, 3017, Control_c, 0, 64, 127
3, 3600, Note_on_c, 0, 39, 0
3, 3600, Note_on_c, 0, 51, 0
3, 3840, Note_on_c, 0, 34, 34
3, 3840, Note_on_c, 0, 46, 41
3, 3856, Control_c, 0, 64, 0
3, 4023, Control_c, 0, 64, 127
3, 4320, Note_on_c, 0, 46, 0
3, 4320, Note_on_c, 0, 34, 0
3, 4320, Control_c, 0, 64, 0
3, 4320, Note_on_c, 0, 53, 41
3, 4320, Note_on_c, 0, 41, 34
3, 4457, Control_c, 0, 64, 127
3, 5040, Note_on_c, 0, 41, 0
3, 5040, Note_on_c, 0, 53, 0
3, 5280, Note_on_c, 0, 34, 34
3, 5280, Note_on_c, 0, 46, 41
3, 5296, Control_c, 0, 64, 0
3, 5475, Control_c, 0, 64, 127
3, 5760, Note_on_c, 0, 46, 0
3, 5760, Note_on_c, 0, 34, 0
3, 5760, Note_on_c, 0, 51, 44
3, 5775, Control_c, 0, 64, 0
3, 5887, Control_c, 0, 64, 127
3, 6000, Note_on_c, 0, 51, 0
3, 6000, Note_on_c, 0, 67, 39
3, 6240, Note_on_c, 0, 67, 0
3, 6240, Note_on_c, 0, 67, 39
3, 6492, Control_c, 0, 64, 0
3, 6600, Control_c, 0, 64, 127
3, 6720, Note_on_c, 0, 67, 0
3, 6720, Note_on_c, 0, 63, 36
3, 6960, Note_on_c, 0, 63, 0
3, 6960, Note_on_c, 0, 58, 32
3, 7200, Note_on_c, 0, 58, 0
3, 7200, Note_on_c, 0, 51, 44
3, 7209, Control_c, 0, 64, 0
3, 7347, Control_c, 0, 64, 127
3, 7440, Note_on_c, 0, 51, 0
3, 7440, Note_on_c, 0, 68, 39
3, 7937, Control_c, 0, 64, 0
3, 8067, Control_c, 0, 64, 127
3, 8160, Note_on_c, 0, 68, 0
3, 8160, Note_on_c, 0, 62, 37
3, 8400, Note_on_c, 0, 62, 0
3, 8400, Note_on_c, 0, 58, 37
3, 8640, Note_on_c, 0, 58, 0
3, 8640, Note_on_c, 0, 51, 44
3, 8648, Control_c, 0, 64, 0
3, 8739, Control_c, 0, 64, 127
3, 8880, Note_on_c, 0, 51, 0
3, 8880, Note_on_c, 0, 67, 39
3, 9358, Note_on_c, 0, 67, 0
3, 9370, Control_c, 0, 64, 0
3, 9501, Control_c, 0, 64, 127
3, 9600, Note_on_c, 0, 63, 37
3, 9840, Note_on_c, 0, 63, 0
3, 9840, Note_on_c, 0, 58, 37
3, 10080, Note_on_c, 0, 58, 0
3, 10080, Note_on_c, 0, 51, 44
3, 10089, Control_c, 0, 64, 0
3, 10307, Control_c, 0, 64, 127
3, 10320, Note_on_c, 0, 51, 0
3, 10320, Note_on_c, 0, 68, 39
3, 10798, Note_on_c, 0, 68, 0
3, 10817, Control_c, 0, 64, 0
3, 10960, Control_c, 0, 64, 127
3, 11040, Note_on_c, 0, 62, 37
3, 11280, Note_on_c, 0, 62, 0
3, 11280, Note_on_c, 0, 58, 37
3, 11520, Note_on_c, 0, 58, 0
3, 11520, Note_on_c, 0, 51, 44
3, 11530, Control_c, 0, 64, 0
3, 11619, Control_c, 0, 64, 127
3, 11760, Note_on_c, 0, 51, 0
3, 11760, Note_on_c, 0, 67, 39
3, 12254, Control_c, 0, 64, 0
3, 12325, Control_c, 0, 64, 127
3, 12480, Note_on_c, 0, 67, 0
3, 12480, Note_on_c, 0, 63, 37
3, 12720, Note_on_c, 0, 63, 0
3, 12720, Note_on_c, 0, 55, 36
3, 12960, Note_on_c, 0, 55, 0
3, 12960, Note_on_c, 0, 46, 44
3, 12975, Control_c, 0, 64, 0
3, 13053, Control_c, 0, 64, 127
3, 13200, Note_on_c, 0, 46, 0
3, 13200, Note_on_c, 0, 56, 39
3, 13691, Control_c, 0, 64, 0
3, 13761, Control_c, 0, 64, 127
3, 13920, Note_on_c, 0, 56, 0
3, 13920, Note_on_c, 0, 52, 37
3, 14160, Note_on_c, 0, 52, 0
3, 14160, Note_on_c, 0, 53, 37
3, 14400, Note_on_c, 0, 53, 0
3, 14400, Note_on_c, 0, 46, 44
3, 14409, Control_c, 0, 64, 0
3, 14507, Control_c, 0, 64, 127
3, 14640, Note_on_c, 0, 46, 0
3, 14640, Note_on_c, 0, 55, 39
3, 15134, Control_c, 0, 64, 0
3, 15240, Control_c, 0, 64, 127
3, 15360, Note_on_c, 0, 55, 0
3, 15360, Note_on_c, 0, 58, 37
3, 15600, Note_on_c, 0, 58, 0
3, 15600, Note_on_c, 0, 55, 37
3, 15840, Note_on_c, 0, 55, 0
3, 15840, Note_on_c, 0, 46, 44
3, 15851, Control_c, 0, 64, 0
3, 15896, Control_c, 0, 64, 127
3, 16080, Note_on_c, 0, 46, 0
3, 16080, Note_on_c, 0, 56, 39
3, 16574, Control_c, 0, 64, 0
3, 16645, Control_c, 0, 64, 127
3, 16800, Note_on_c, 0, 56, 0
3, 16800, Note_on_c, 0, 52, 37
3, 17040, Note_on_c, 0, 52, 0
3, 17040, Note_on_c, 0, 53, 37
3, 17280, Note_on_c, 0, 53, 0
3, 17280, Note_on_c, 0, 39, 36
3, 17280, Note_on_c, 0, 51, 43
3, 17289, Control_c, 0, 64, 0
3, 17429, Control_c, 0, 64, 127
3, 18000, Note_on_c, 0, 51, 0
3, 18000, Note_on_c, 0, 39, 0
3, 18240, Note_on_c, 0, 34, 34
3, 18240, Note_on_c, 0, 46, 41
3, 18256, Control_c, 0, 64, 0
3, 18389, Control_c, 0, 64, 127
3, 18720, Note_on_c, 0, 46, 0
3, 18720, Note_on_c, 0, 34, 0
3, 18720, Note_on_c, 0, 41, 36
3, 18720, Note_on_c, 0, 53, 44
3, 18731, Control_c, 0, 64, 0
3, 18857, Control_c, 0, 64, 127
3, 19440, Note_on_c, 0, 53, 0
3, 19440, Note_on_c, 0, 41, 0
3, 19680, Note_on_c, 0, 34, 34
3, 19680, Note_on_c, 0, 46, 41
3, 19694, Control_c, 0, 64, 0
3, 19771, Control_c, 0, 64, 127
3, 20160, Note_on_c, 0, 46, 0
3, 20160, Note_on_c, 0, 34, 0
3, 20160, Note_on_c, 0, 39, 34
3, 20160, Note_on_c, 0, 51, 40
3, 20172, Control_c, 0, 64, 0
3, 20297, Control_c, 0, 64, 127
3, 20880, Note_on_c, 0, 51, 0
3, 20880, Note_on_c, 0, 39, 0
3, 21120, Note_on_c, 0, 34, 34
3, 21120, Note_on_c, 0, 46, 41
3, 21131, Control_c, 0, 64, 0
3, 21269, Control_c, 0, 64, 127
3, 21600, Note_on_c, 0, 46, 0
3, 21600, Note_on_c, 0, 34, 0
3, 21600, Control_c, 0, 64, 0
3, 21600, Note_on_c, 0, 41, 34
3, 21600, Note_on_c, 0, 53, 41
3, 21737, Control_c, 0, 64, 127
3, 22320, Note_on_c, 0, 53, 0
3, 22320, Note_on_c, 0, 41, 0
3, 22560, Note_on_c, 0, 34, 34
3, 22560, Note_on_c, 0, 46, 41
3, 22577, Control_c, 0, 64, 0
3, 22743, Control_c, 0, 64, 127
3, 23040, Note_on_c, 0, 46, 0
3, 23040, Note_on_c, 0, 34, 0
3, 23040, Note_on_c, 0, 51, 44
3, 23057, Control_c, 0, 64, 0
3, 23167, Control_c, 0, 64, 127
3, 23280, Note_on_c, 0, 51, 0
3, 23280, Note_on_c, 0, 67, 39
3, 23520, Note_on_c, 0, 67, 0
3, 23520, Note_on_c, 0, 67, 39
3, 23772, Control_c, 0, 64, 0
3, 23880, Control_c, 0, 64, 127
3, 24000, Note_on_c, 0, 67, 0
3, 24000, Note_on_c, 0, 63, 37
3, 24240, Note_on_c, 0, 63, 0
3, 24240, Note_on_c, 0, 58, 37
3, 24480, Note_on_c, 0, 58, 0
3, 24480, Note_on_c, 0, 51, 44
3, 24489, Control_c, 0, 64, 0
3, 24627, Control_c, 0, 64, 127
3, 24720, Note_on_c, 0, 51, 0
3, 24720, Note_on_c, 0, 68, 39
3, 25217, Control_c, 0, 64, 0
3, 25347, Control_c, 0, 64, 127
3, 25440, Note_on_c, 0, 68, 0
3, 25440, Note_on_c, 0, 62, 37
3, 25680, Note_on_c, 0, 62, 0
3, 25680, Note_on_c, 0, 58, 37
3, 25920, Note_on_c, 0, 58, 0
3, 25920, Note_on_c, 0, 51, 44
3, 25928, Control_c, 0, 64, 0
3, 26019, Control_c, 0, 64, 127
3, 26160, Note_on_c, 0, 51, 0
3, 26160, Note_on_c, 0, 67, 39
3, 26638, Note_on_c, 0, 67, 0
3, 26650, Control_c, 0, 64, 0
3, 26781, Control_c, 0, 64, 127
3, 26880, Note_on_c, 0, 63, 37
3, 27120, Note_on_c, 0, 63, 0
3, 27120, Note_on_c, 0, 58, 33
3, 27360, Note_on_c, 0, 58, 0
3, 27360, Note_on_c, 0, 51, 44
3, 27369, Control_c, 0, 64, 0
3, 27587, Control_c, 0, 64, 127
3, 27600, Note_on_c, 0, 51, 0
3, 27600, Note_on_c, 0, 68, 39
3, 28078, Note_on_c, 0, 68, 0
3, 28097, Control_c, 0, 64, 0
3, 28240, Control_c, 0, 64, 127
3, 28320, Note_on_c, 0, 62, 37
3, 28560, Note_on_c, 0, 62, 0
3, 28560, Note_on_c, 0, 58, 37
3, 28800, Note_on_c, 0, 58, 0
3, 28800, Note_on_c, 0, 51, 44
3, 28810, Control_c, 0, 64, 0
3, 28899, Control_c, 0, 64, 127
3, 29040, Note_on_c, 0, 51, 0
3, 29040, Note_on_c, 0, 67, 39
3, 29534, Control_c, 0, 64, 0
3, 29605, Control_c, 0, 64, 127
3, 29760, Note_on_c, 0, 67, 0
3, 29760, Note_on_c, 0, 63, 37
3, 30000, Note_on_c, 0, 63, 0
3, 30000, Note_on_c, 0, 55, 35
3, 30240, Note_on_c, 0, 55, 0
3, 30240, Note_on_c, 0, 46, 44
3, 30255, Control_c, 0, 64, 0
3, 30333, Control_c, 0, 64, 127
3, 30480, Note_on_c, 0, 46, 0
3, 30480, Note_on_c, 0, 56, 39
3, 30971, Control_c, 0, 64, 0
3, 31041, Control_c, 0, 64, 127
3, 31200, Note_on_c, 0, 56, 0
3, 31200, Note_on_c, 0, 52, 37
3, 31440, Note_on_c, 0, 52, 0
3, 31440, Note_on_c, 0, 53, 37
3, 31680, Note_on_c, 0, 53, 0
3, 31680, Note_on_c, 0, 46, 44
3, 31689, Control_c, 0, 64, 0
3, 31787, Control_c, 0, 64, 127
3, 31920, Note_on_c, 0, 46, 0
3, 31920, Note_on_c, 0, 55, 39
3, 32414, Control_c, 0, 64, 0
3, 32520, Control_c, 0, 64, 127
3, 32640, Note_on_c, 0, 55, 0
3, 32640, Note_on_c, 0, 58, 37
3, 32880, Note_on_c, 0, 58, 0
3, 32880, Note_on_c, 0, 55, 37
3, 33120, Note_on_c, 0, 55, 0
3, 33120, Note_on_c, 0, 46, 44
3, 33131, Control_c, 0, 64, 0
3, 33176, Control_c, 0, 64, 127
3, 33360, Note_on_c, 0, 46, 0
3, 33360, Note_on_c, 0, 56, 39
3, 33854, Control_c, 0, 64, 0
3, 33925, Control_c, 0, 64, 127
3, 34080, Note_on_c, 0, 56, 0
3, 34080, Note_on_c, 0, 52, 37
3, 34320, Note_on_c, 0, 52, 0
3, 34320, Note_on_c, 0, 53, 37
3, 34560, Note_on_c, 0, 53, 0
3, 34560, Note_on_c, 0, 39, 36
3, 34560, Note_on_c, 0, 51, 43
3, 34569, Control_c, 0, 64, 0
3, 34709, Control_c, 0, 64, 127
3, 35280, Note_on_c, 0, 51, 0
3, 35280, Note_on_c, 0, 39, 0
3, 35520, Note_on_c, 0, 34, 34
3, 35520, Note_on_c, 0, 46, 41
3, 35536, Control_c, 0, 64, 0
3, 35669, Control_c, 0, 64, 127
3, 36000, Note_on_c, 0, 46, 0
3, 36000, Note_on_c, 0, 34, 0
3, 36000, Note_on_c, 0, 41, 36
3, 36000, Note_on_c, 0, 53, 44
3, 36011, Control_c, 0, 64, 0
3, 36137, Control_c, 0, 64, 127
3, 36720, Note_on_c, 0, 53, 0
3, 36720, Note_on_c, 0, 41, 0
3, 36960, Note_on_c, 0, 34, 34
3, 36960, Note_on_c, 0, 46, 41
3, 36974, Control_c, 0, 64, 0
3, 37051, Control_c, 0, 64, 127
3, 37440, Note_on_c, 0, 46, 0
3, 37440, Note_on_c, 0, 34, 0
3, 37440, Note_on_c, 0, 39, 34
3, 37440, Note_on_c, 0, 51, 40
3, 37452, Control_c, 0, 64, 0
3, 37577, Control_c, 0, 64, 127
3, 38160, Note_on_c, 0, 51, 0
3, 38160, Note_on_c, 0, 39, 0
3, 38400, Note_on_c, 0, 34, 34
3, 38400, Note_on_c, 0, 46, 41
3, 38411, Control_c, 0, 64, 0
3, 38549, Control_c, 0, 64, 127
3, 38880, Note_on_c, 0, 46, 0
3, 38880, Note_on_c, 0, 34, 0
3, 38880, Note_on_c, 0, 41, 34
3, 38880, Note_on_c, 0, 53, 41
3, 38880, Control_c, 0, 64, 0
3, 39017, Control_c, 0, 64, 127
3, 39600, Note_on_c, 0, 53, 0
3, 39600, Note_on_c, 0, 41, 0
3, 39840, Note_on_c, 0, 34, 34
3, 39840, Note_on_c, 0, 46, 41
3, 39857, Control_c, 0, 64, 0
3, 40023, Control_c, 0, 64, 127
3, 40320, Note_on_c, 0, 46, 0
3, 40320, Note_on_c, 0, 34, 0
3, 40320, Note_on_c, 0, 51, 44
3, 40332, Control_c, 0, 64, 0
3, 40467, Control_c, 0, 64, 127
3, 40560, Note_on_c, 0, 51, 0
3, 40560, Note_on_c, 0, 67, 39
3, 40800, Note_on_c, 0, 67, 0
3, 40800, Note_on_c, 0, 67, 41
3, 41056, Control_c, 0, 64, 0
3, 41220, Control_c, 0, 64, 127
3, 41280, Note_on_c, 0, 67, 0
3, 41280, Note_on_c, 0, 63, 37
3, 41520, Note_on_c, 0, 63, 0
3, 41520, Note_on_c, 0, 58, 37
3, 41760, Note_on_c, 0, 58, 0
3, 41760, Note_on_c, 0, 51, 44
3, 41767, Control_c, 0, 64, 0
3, 41880, Control_c, 0, 64, 127
3, 42000, Note_on_c, 0, 51, 0
3, 42000, Note_on_c, 0, 68, 39
3, 42497, Control_c, 0, 64, 0
3, 42640, Control_c, 0, 64, 127
3, 42720, Note_on_c, 0, 68, 0
3, 42720, Note_on_c, 0, 61, 37
3, 42960, Note_on_c, 0, 61, 0
3, 42960, Note_on_c, 0, 58, 37
3, 43200, Note_on_c, 0, 58, 0
3, 43200, Note_on_c, 0, 51, 44
3, 43213, Control_c, 0, 64, 0
3, 43320, Control_c, 0, 64, 127
3, 43440, Note_on_c, 0, 51, 0
3, 43440, Note_on_c, 0, 67, 39
3, 43934, Control_c, 0, 64, 0
3, 44040, Control_c, 0, 64, 127
3, 44160, Note_on_c, 0, 67, 0
3, 44160, Note_on_c, 0, 61, 37
3, 44400, Note_on_c, 0, 61, 0
3, 44400, Note_on_c, 0, 58, 37
3, 44640, Note_on_c, 0, 58, 0
3, 44640, Note_on_c, 0, 51, 44
3, 44651, Control_c, 0, 64, 0
3, 44760, Control_c, 0, 64, 127
3, 44880, Note_on_c, 0, 51, 0
3, 44880, Note_on_c, 0, 61, 39
3, 45377, Control_c, 0, 64, 0
3, 45520, Control_c, 0, 64, 127
3, 45600, Note_on_c, 0, 61, 0
3, 45600, Note_on_c, 0, 55, 37
3, 45840, Note_on_c, 0, 55, 0
3, 45840, Note_on_c, 0, 51, 37
3, 46080, Note_on_c, 0, 51, 0
3, 46080, Note_on_c, 0, 44, 44
3, 46088, Control_c, 0, 64, 0
3, 46200, Control_c, 0, 64, 127
3, 46320, Note_on_c, 0, 44, 0
3, 46320, Note_on_c, 0, 60, 39
3, 46814, Control_c, 0, 64, 0
3, 46980, Control_c, 0, 64, 127
3, 47040, Note_on_c, 0, 60, 0
3, 47040, Note_on_c, 0, 56, 39
3, 47280, Note_on_c, 0, 56, 0
3, 47280, Note_on_c, 0, 51, 39
3, 47520, Note_on_c, 0, 51, 0
3, 47520, Note_on_c, 0, 44, 48
3, 47760, Note_on_c, 0, 44, 0
3, 47760, Note_on_c, 0, 63, 42
3, 48480, Note_on_c, 0, 63, 0
3, 48480, Note_on_c, 0, 60, 48
3, 48720, Note_on_c, 0, 60, 0
3, 48720, Note_on_c, 0, 56, 46
3, 48960, Note_on_c, 0, 56, 0
3, 48960, Note_on_c, 0, 44, 50
3, 48970, Control_c, 0, 64, 0
3, 49080, Control_c, 0, 64, 127
3, 49200, Note_on_c, 0, 44, 0
3, 49200, Note_on_c, 0, 59, 45
3, 49694, Control_c, 0, 64, 0
3, 49800, Control_c, 0, 64, 127
3, 49920, Note_on_c, 0, 59, 0
3, 49920, Note_on_c, 0, 56, 44
3, 50160, Note_on_c, 0, 56, 0
3, 50160, Note_on_c, 0, 51, 45
3, 50400, Note_on_c, 0, 51, 0
3, 50400, Note_on_c, 0, 44, 54
3, 50640, Note_on_c, 0, 44, 0
3, 50640, Note_on_c, 0, 63, 49
3, 51360, Note_on_c, 0, 63, 0
3, 51360, Note_on_c, 0, 59, 48
3, 51600, Note_on_c, 0, 59, 0
3, 51600, Note_on_c, 0, 56, 49
3, 51840, Note_on_c, 0, 56, 0
3, 51840, Note_on_c, 0, 46, 65
3, 51855, Control_c, 0, 64, 0
3, 51960, Control_c, 0, 64, 127
3, 52080, Note_on_c, 0, 46, 0
3, 52080, Note_on_c, 0, 67, 45
3, 52320, Note_on_c, 0, 67, 0
3, 52320, Note_on_c, 0, 67, 45
3, 52572, Control_c, 0, 64, 0
3, 52680, Control_c, 0, 64, 127
3, 52800, Note_on_c, 0, 67, 0
3, 52800, Note_on_c, 0, 63, 43
3, 53040, Note_on_c, 0, 63, 0
3, 53040, Note_on_c, 0, 58, 43
3, 53280, Note_on_c, 0, 58, 0
3, 53280, Note_on_c, 0, 46, 51
3, 53290, Control_c, 0, 64, 0
3, 53400, Control_c, 0, 64, 127
3, 53520, Note_on_c, 0, 46, 0
3, 53520, Note_on_c, 0, 68, 45
3, 54017, Control_c, 0, 64, 0
3, 54160, Control_c, 0, 64, 127
3, 54240, Note_on_c, 0, 68, 0
3, 54240, Note_on_c, 0, 62, 43
3, 54480, Note_on_c, 0, 62, 0
3, 54480, Note_on_c, 0, 58, 43
3, 54720, Note_on_c, 0, 58, 0
3, 54720, Note_on_c, 0, 51, 51
3, 54728, Control_c, 0, 64, 0
3, 54840, Control_c, 0, 64, 127
3, 54960, Note_on_c, 0, 51, 0
3, 54960, Note_on_c, 0, 67, 45
3, 55438, Note_on_c, 0, 67, 0
3, 55454, Control_c, 0, 64, 0
3, 55560, Control_c, 0, 64, 127
3, 55680, Note_on_c, 0, 63, 43
3, 55920, Note_on_c, 0, 63, 0
3, 55920, Note_on_c, 0, 58, 43
3, 56160, Note_on_c, 0, 58, 0
3, 56160, Note_on_c, 0, 48, 51
3, 56171, Control_c, 0, 64, 0
3, 56280, Control_c, 0, 64, 127
3, 56400, Note_on_c, 0, 48, 0
3, 56400, Note_on_c, 0, 61, 45
3, 56897, Control_c, 0, 64, 0
3, 57040, Control_c, 0, 64, 127
3, 57120, Note_on_c, 0, 61, 0
3, 57120, Note_on_c, 0, 60, 43
3, 57360, Note_on_c, 0, 60, 0
3, 57360, Note_on_c, 0, 64, 43
3, 57600, Note_on_c, 0, 64, 0
3, 57600, Note_on_c, 0, 41, 51
3, 57609, Control_c, 0, 64, 0
3, 57720, Control_c, 0, 64, 127
3, 57840, Note_on_c, 0, 41, 0
3, 57840, Note_on_c, 0, 63, 45
3, 58334, Control_c, 0, 64, 0
3, 58405, Control_c, 0, 64, 127
3, 58560, Note_on_c, 0, 63, 0
3, 58560, Note_on_c, 0, 53, 43
3, 58800, Note_on_c, 0, 53, 0
3, 58800, Note_on_c, 0, 63, 43
3, 59040, Note_on_c, 0, 63, 0
3, 59040, Note_on_c, 0, 46, 51
3, 59048, Control_c, 0, 64, 0
3, 59220, Control_c, 0, 64, 127
3, 59280, Note_on_c, 0, 46, 0
3, 59280, Note_on_c, 0, 56, 45
3, 59777, Control_c, 0, 64, 0
3, 59920, Control_c, 0, 64, 127
3, 60000, Note_on_c, 0, 56, 0
3, 60000, Note_on_c, 0, 53, 43
3, 60240, Note_on_c, 0, 53, 0
3, 60240, Note_on_c, 0, 63, 43
3, 60480, Note_on_c, 0, 63, 0
3, 60480, Note_on_c, 0, 46, 48
3, 60490, Control_c, 0, 64, 0
3, 60600, Control_c, 0, 64, 127
3, 60720, Note_on_c, 0, 46, 0
3, 60720, Note_on_c, 0, 63, 45
3, 61214, Control_c, 0, 64, 0
3, 61285, Control_c, 0, 64, 127
3, 61440, Note_on_c, 0, 63, 0
3, 61440, Note_on_c, 0, 58, 43
3, 61680, Note_on_c, 0, 58, 0
3, 61680, Note_on_c, 0, 68, 43
3, 61920, Note_on_c, 0, 68, 0
3, 61920, Note_on_c, 0, 46, 45
3, 61931, Control_c, 0, 64, 0
3, 62040, Control_c, 0, 64, 127
3, 62160, Note_on_c, 0, 46, 0
3, 62160, Note_on_c, 0, 55, 40
3, 62400, Note_on_c, 0, 55, 0
3, 62400, Note_on_c, 0, 56, 38
3, 62640, Note_on_c, 0, 56, 0
3, 62640, Note_on_c, 0, 60, 35
3, 62654, Control_c, 0, 64, 0
3, 62725, Control_c, 0, 64, 127
3, 63000, Note_on_c, 0, 60, 0
3, 63000, Note_on_c, 0, 58, 34
3, 63360, Note_on_c, 0, 58, 0
3, 63360, Note_on_c, 0, 39, 36
3, 63360, Note_on_c, 0, 51, 43
3, 63370, Control_c, 0, 64, 0
3, 63474, Control_c, 0, 64, 127
3, 64080, Note_on_c, 0, 51, 0
3, 64080, Note_on_c, 0, 39, 0
3, 64320, Note_on_c, 0, 34, 34
3, 64320, Note_on_c, 0, 46, 41
3, 64333, Control_c, 0, 64, 0
3, 64434, Control_c, 0, 64, 127
3, 64800, Note_on_c, 0, 46, 0
3, 64800, Note_on_c, 0, 34, 0
3, 64800, Note_on_c, 0, 41, 36
3, 64800, Note_on_c, 0, 53, 44
3, 64812, Control_c, 0, 64, 0
3, 64937, Control_c, 0, 64, 127
3, 65520, Note_on_c, 0, 53, 0
3, 65520, Note_on_c, 0, 41, 0
3, 65760, Note_on_c, 0, 34, 34
3, 65760, Note_on_c, 0, 46, 41
3, 65773, Control_c, 0, 64, 0
3, 65880, Control_c, 0, 64, 127
3, 66240, Note_on_c, 0, 46, 0
3, 66240, Note_on_c, 0, 34, 0
3, 66240, Note_on_c, 0, 39, 34
3, 66240, Note_on_c, 0, 51, 40
3, 66253, Control_c, 0, 64, 0
3, 66377, Control_c, 0, 64, 127
3, 66960, Note_on_c, 0, 51, 0
3, 66960, Note_on_c, 0, 39, 0
3, 67200, Note_on_c, 0, 34, 34
3, 67200, Note_on_c, 0, 46, 41
3, 67218, Control_c, 0, 64, 0
3, 67320, Control_c, 0, 64, 127
3, 67680, Note_on_c, 0, 46, 0
3, 67680, Note_on_c, 0, 34, 0
3, 67680, Note_on_c, 0, 41, 34
3, 67680, Note_on_c, 0, 53, 41
3, 67691, Control_c, 0, 64, 0
3, 67817, Control_c, 0, 64, 127
3, 68400, Note_on_c, 0, 53, 0
3, 68400, Note_on_c, 0, 41, 0
3, 68640, Note_on_c, 0, 34, 34
3, 68640, Note_on_c, 0, 46, 41
3, 68655, Control_c, 0, 64, 0
3, 68760, Control_c, 0, 64, 127
3, 69120, Note_on_c, 0, 46, 0
3, 69120, Note_on_c, 0, 34, 0
3, 69120, Note_on_c, 0, 51, 29
3, 69129, Control_c, 0, 64, 0
3, 69240, Control_c, 0, 64, 127
3, 69360, Note_on_c, 0, 51, 0
3, 69360, Note_on_c, 0, 67, 26
3, 69600, Note_on_c, 0, 67, 0
3, 69600, Note_on_c, 0, 67, 26
3, 69852, Control_c, 0, 64, 0
3, 69939, Control_c, 0, 64, 127
3, 70080, Note_on_c, 0, 67, 0
3, 70080, Note_on_c, 0, 63, 24
3, 70320, Note_on_c, 0, 63, 0
3, 70320, Note_on_c, 0, 58, 23
3, 70560, Note_on_c, 0, 58, 0
3, 70560, Note_on_c, 0, 53, 29
3, 70570, Control_c, 0, 64, 0
3, 70680, Control_c, 0, 64, 127
3, 70800, Note_on_c, 0, 53, 0
3, 70800, Note_on_c, 0, 68, 26
3, 71297, Control_c, 0, 64, 0
3, 71440, Control_c, 0, 64, 127
3, 71520, Note_on_c, 0, 68, 0
3, 71520, Note_on_c, 0, 62, 24
3, 71760, Note_on_c, 0, 62, 0
3, 71760, Note_on_c, 0, 58, 24
3, 72000, Note_on_c, 0, 58, 0
3, 72000, Note_on_c, 0, 51, 29
3, 72010, Control_c, 0, 64, 0
3, 72120, Control_c, 0, 64, 127
3, 72240, Note_on_c, 0, 51, 0
3, 72240, Note_on_c, 0, 67, 26
3, 72718, Note_on_c, 0, 67, 0
3, 72734, Control_c, 0, 64, 0
3, 72840, Control_c, 0, 64, 127
3, 72960, Note_on_c, 0, 63, 24
3, 73200, Note_on_c, 0, 63, 0
3, 73200, Note_on_c, 0, 58, 24
3, 73440, Note_on_c, 0, 58, 0
3, 73440, Note_on_c, 0, 53, 29
3, 73452, Control_c, 0, 64, 0
3, 73620, Control_c, 0, 64, 127
3, 73680, Note_on_c, 0, 53, 0
3, 73680, Note_on_c, 0, 68, 26
3, 74158, Note_on_c, 0, 68, 0
3, 74177, Control_c, 0, 64, 0
3, 74320, Control_c, 0, 64, 127
3, 74400, Note_on_c, 0, 62, 24
3, 74640, Note_on_c, 0, 62, 0
3, 74640, Note_on_c, 0, 58, 24
3, 74880, Note_on_c, 0, 58, 0
3, 74880, Note_on_c, 0, 51, 29
3, 74896, Control_c, 0, 64, 0
3, 75000, Control_c, 0, 64, 127
3, 75120, Note_on_c, 0, 51, 0
3, 75120, Note_on_c, 0, 67, 26
3, 75614, Control_c, 0, 64, 0
3, 75685, Control_c, 0, 64, 127
3, 75840, Note_on_c, 0, 67, 0
3, 75840, Note_on_c, 0, 63, 24
3, 76080, Note_on_c, 0, 63, 0
3, 76080, Note_on_c, 0, 55, 24
3, 76320, Note_on_c, 0, 55, 0
3, 76320, Note_on_c, 0, 46, 29
3, 76331, Control_c, 0, 64, 0
3, 76413, Control_c, 0, 64, 127
3, 76560, Note_on_c, 0, 46, 0
3, 76560, Note_on_c, 0, 56, 26
3, 77058, Control_c, 0, 64, 0
3, 77146, Control_c, 0, 64, 127
3, 77280, Note_on_c, 0, 56, 0
3, 77280, Note_on_c, 0, 52, 24
3, 77520, Note_on_c, 0, 52, 0
3, 77520, Note_on_c, 0, 53, 24
3, 77760, Note_on_c, 0, 53, 0
3, 77760, Note_on_c, 0, 46, 29
3, 77772, Control_c, 0, 64, 0
3, 77907, Control_c, 0, 64, 127
3, 78000, Note_on_c, 0, 46, 0
3, 78000, Note_on_c, 0, 55, 26
3, 78494, Control_c, 0, 64, 0
3, 78654, Control_c, 0, 64, 127
3, 78720, Note_on_c, 0, 55, 0
3, 78720, Note_on_c, 0, 58, 24
3, 78960, Note_on_c, 0, 58, 0
3, 78960, Note_on_c, 0, 55, 24
3, 79200, Note_on_c, 0, 55, 0
3, 79200, Note_on_c, 0, 46, 29
3, 79213, Control_c, 0, 64, 0
3, 79256, Control_c, 0, 64, 127
3, 79440, Note_on_c, 0, 46, 0
3, 79440, Note_on_c, 0, 56, 26
3, 79934, Control_c, 0, 64, 0
3, 80005, Control_c, 0, 64, 127
3, 80160, Note_on_c, 0, 56, 0
3, 80160, Note_on_c, 0, 52, 24
3, 80400, Note_on_c, 0, 52, 0
3, 80400, Note_on_c, 0, 53, 24
3, 80640, Note_on_c, 0, 53, 0
3, 80640, Control_c, 0, 64, 0
3, 80640, Note_on_c, 0, 51, 29
3, 80760, Control_c, 0, 64, 127
3, 80880, Note_on_c, 0, 51, 0
3, 80880, Note_on_c, 0, 67, 26
3, 81120, Note_on_c, 0, 67, 0
3, 81120, Note_on_c, 0, 67, 26
3, 81372, Control_c, 0, 64, 0
3, 81459, Control_c, 0, 64, 127
3, 81600, Note_on_c, 0, 67, 0
3, 81600, Note_on_c, 0, 63, 24
3, 81840, Note_on_c, 0, 63, 0
3, 81840, Note_on_c, 0, 58, 24
3, 82080, Note_on_c, 0, 58, 0
3, 82080, Note_on_c, 0, 53, 29
3, 82090, Control_c, 0, 64, 0
3, 82227, Control_c, 0, 64, 127
3, 82320, Note_on_c, 0, 53, 0
3, 82320, Note_on_c, 0, 68, 26
3, 82817, Control_c, 0, 64, 0
3, 82960, Control_c, 0, 64, 127
3, 83040, Note_on_c, 0, 68, 0
3, 83040, Note_on_c, 0, 62, 24
3, 83280, Note_on_c, 0, 62, 0
3, 83280, Note_on_c, 0, 58, 24
3, 83520, Note_on_c, 0, 58, 0
3, 83520, Note_on_c, 0, 51, 29
3, 83535, Control_c, 0, 64, 0
3, 83633, Control_c, 0, 64, 127
3, 83760, Note_on_c, 0, 51, 0
3, 83760, Note_on_c, 0, 67, 26
3, 84238, Note_on_c, 0, 67, 0
3, 84254, Control_c, 0, 64, 0
3, 84325, Control_c, 0, 64, 127
3, 84480, Note_on_c, 0, 63, 24
3, 84720, Note_on_c, 0, 63, 0
3, 84720, Note_on_c, 0, 58, 24
3, 84960, Note_on_c, 0, 58, 0
3, 84960, Note_on_c, 0, 53, 29
3, 84969, Control_c, 0, 64, 0
3, 85120, Control_c, 0, 64, 127
3, 85200, Note_on_c, 0, 53, 0
3, 85200, Note_on_c, 0, 68, 26
3, 85678, Note_on_c, 0, 68, 0
3, 85697, Control_c, 0, 64, 0
3, 85840, Control_c, 0, 64, 127
3, 85920, Note_on_c, 0, 62, 24
3, 86160, Note_on_c, 0, 62, 0
3, 86160, Note_on_c, 0, 58, 24
3, 86400, Note_on_c, 0, 58, 0
3, 86400, Note_on_c, 0, 51, 29
3, 86414, Control_c, 0, 64, 0
3, 86520, Control_c, 0, 64, 127
3, 86640, Note_on_c, 0, 51, 0
3, 86640, Note_on_c, 0, 67, 26
3, 87134, Control_c, 0, 64, 0
3, 87240, Control_c, 0, 64, 127
3, 87360, Note_on_c, 0, 67, 0
3, 87360, Note_on_c, 0, 63, 24
3, 87600, Note_on_c, 0, 63, 0
3, 87600, Note_on_c, 0, 55, 24
3, 87840, Note_on_c, 0, 55, 0
3, 87840, Note_on_c, 0, 46, 29
3, 87852, Control_c, 0, 64, 0
3, 87933, Control_c, 0, 64, 127
3, 88080, Note_on_c, 0, 46, 0
3, 88080, Note_on_c, 0, 56, 26
3, 88577, Control_c, 0, 64, 0
3, 88670, Control_c, 0, 64, 127
3, 88800, Note_on_c, 0, 56, 0
3, 88800, Note_on_c, 0, 52, 24
3, 89040, Note_on_c, 0, 52, 0
3, 89040, Note_on_c, 0, 53, 24
3, 89280, Note_on_c, 0, 53, 0
3, 89280, Note_on_c, 0, 46, 29
3, 89291, Control_c, 0, 64, 0
3, 89427, Control_c, 0, 64, 127
3, 89520, Note_on_c, 0, 46, 0
3, 89520, Note_on_c, 0, 55, 26
3, 90014, Control_c, 0, 64, 0
3, 90134, Control_c, 0, 64, 127
3, 90240, Note_on_c, 0, 55, 0
3, 90240, Note_on_c, 0, 58, 24
3, 90480, Note_on_c, 0, 58, 0
3, 90480, Note_on_c, 0, 55, 24
3, 90720, Note_on_c, 0, 55, 0
3, 90720, Note_on_c, 0, 46, 29
3, 90732, Control_c, 0, 64, 0
3, 90776, Control_c, 0, 64, 127
3, 90960, Note_on_c, 0, 46, 0
3, 90960, Note_on_c, 0, 56, 26
3, 91454, Control_c, 0, 64, 0
3, 91525, Control_c, 0, 64, 127
3, 91680, Note_on_c, 0, 56, 0
3, 91680, Note_on_c, 0, 52, 24
3, 91920, Note_on_c, 0, 52, 0
3, 91920, Note_on_c, 0, 53, 24
3, 92160, Note_on_c, 0, 53, 0
3, 92160, Note_on_c, 0, 39, 27
3, 92160, Note_on_c, 0, 51, 32
3, 92169, Control_c, 0, 64, 0
3, 92320, Control_c, 0, 64, 127
3, 92880, Note_on_c, 0, 51, 0
3, 92880, Note_on_c, 0, 39, 0
3, 93120, Note_on_c, 0, 34, 25
3, 93120, Note_on_c, 0, 46, 30
3, 93138, Control_c, 0, 64, 0
3, 93269, Control_c, 0, 64, 127
3, 93600, Note_on_c, 0, 46, 0
3, 93600, Note_on_c, 0, 34, 0
3, 93600, Note_on_c, 0, 41, 27
3, 93600, Note_on_c, 0, 53, 33
3, 93611, Control_c, 0, 64, 0
3, 93737, Control_c, 0, 64, 127
3, 94320, Note_on_c, 0, 53, 0
3, 94320, Note_on_c, 0, 41, 0
3, 94560, Note_on_c, 0, 34, 25
3, 94560, Note_on_c, 0, 46, 30
3, 94571, Control_c, 0, 64, 0
3, 94743, Control_c, 0, 64, 127
3, 95040, Note_on_c, 0, 46, 0
3, 95040, Note_on_c, 0, 34, 0
3, 95040, Note_on_c, 0, 39, 25
3, 95040, Note_on_c, 0, 51, 30
3, 95053, Control_c, 0, 64, 0
3, 95177, Control_c, 0, 64, 127
3, 95760, Note_on_c, 0, 51, 0
3, 95760, Note_on_c, 0, 39, 0
3, 96000, Note_on_c, 0, 34, 25
3, 96000, Note_on_c, 0, 46, 30
3, 96016, Control_c, 0, 64, 0
3, 96217, Control_c, 0, 64, 127
3, 96480, Note_on_c, 0, 46, 0
3, 96480, Note_on_c, 0, 34, 0
3, 96480, Note_on_c, 0, 41, 25
3, 96480, Note_on_c, 0, 53, 30
3, 96494, Control_c, 0, 64, 0
3, 96617, Control_c, 0, 64, 127
3, 97200, Note_on_c, 0, 53, 0
3, 97200, Note_on_c, 0, 41, 0
3, 97440, Note_on_c, 0, 34, 25
3, 97440, Note_on_c, 0, 46, 30
3, 97451, Control_c, 0, 64, 0
3, 97589, Control_c, 0, 64, 127
3, 97920, Note_on_c, 0, 46, 0
3, 97920, Note_on_c, 0, 34, 0
3, 97920, Note_on_c, 0, 39, 25
3, 97920, Note_on_c, 0, 51, 30
3, 97936, Control_c, 0, 64, 0
3, 98126, Control_c, 0, 64, 127
3, 98640, Note_on_c, 0, 51, 0
3, 98640, Note_on_c, 0, 39, 0
3, 98880, Note_on_c, 0, 34, 23
3, 98880, Note_on_c, 0, 46, 28
3, 98897, Control_c, 0, 64, 0
3, 99040, Control_c, 0, 64, 127
3, 99360, Note_on_c, 0, 46, 0
3, 99360, Note_on_c, 0, 34, 0
3, 99360, Note_on_c, 0, 39, 23
3, 99360, Note_on_c, 0, 51, 27
3, 99370, Control_c, 0, 64, 0
3, 99497, Control_c, 0, 64, 127
3, 100080, Note_on_c, 0, 51, 0
3, 100080, Note_on_c, 0, 39, 0
3, 100320, Note_on_c, 0, 34, 19
3, 100320, Note_on_c, 0, 46, 24
3, 100338, Control_c, 0, 64, 0
3, 100469, Control_c, 0, 64, 127
3, 100800, Note_on_c, 0, 46, 0
3, 100800, Note_on_c, 0, 34, 0
3, 100800, Note_on_c, 0, 39, 20
3, 100800, Note_on_c, 0, 51, 25
3, 100822, Control_c, 0, 64, 0
3, 101160, Control_c, 0, 64, 127
3, 102960, Note_on_c, 0, 51, 0
3, 102960, Note_on_c, 0, 39, 0
3, 103107, Control_c, 0, 64, 0
3, 103680, Control_c, 0, 64, 127
3, 103680, Note_on_c, 0, 44, 36
3, 103920, Note_on_c, 0, 44, 0
3, 103920, Note_on_c, 0, 51, 33
3, 104160, Note_on_c, 0, 51, 0
3, 104160, Note_on_c, 0, 56, 30
3, 104400, Note_on_c, 0, 56, 0
3, 104400, Note_on_c, 0, 59, 31
3, 104640, Note_on_c, 0, 59, 0
3, 104640, Note_on_c, 0, 61, 34
3, 104656, Control_c, 0, 64, 0
3, 104800, Control_c, 0, 64, 127
3, 104880, Note_on_c, 0, 61, 0
3, 104880, Note_on_c, 0, 63, 33
3, 105120, Note_on_c, 0, 63, 0
3, 105120, Note_on_c, 0, 68, 36
3, 105120, Note_on_c, 0, 64, 36
3, 105187, Control_c, 0, 64, 0
3, 105267, Control_c, 0, 64, 127
3, 106096, Control_c, 0, 64, 0
3, 106307, Control_c, 0, 64, 127
3, 106560, Note_on_c, 0, 64, 0
3, 106560, Note_on_c, 0, 68, 0
3, 106560, Control_c, 0, 64, 0
3, 106560, Note_on_c, 0, 44, 36
3, 106667, Control_c, 0, 64, 127
3, 106800, Note_on_c, 0, 44, 0
3, 106800, Note_on_c, 0, 51, 33
3, 107040, Note_on_c, 0, 51, 0
3, 107040, Note_on_c, 0, 56, 30
3, 107280, Note_on_c, 0, 56, 0
3, 107280, Note_on_c, 0, 59, 31
3, 107520, Note_on_c, 0, 59, 0
3, 107520, Note_on_c, 0, 61, 34
3, 107534, Control_c, 0, 64, 0
3, 107680, Control_c, 0, 64, 127
3, 107760, Note_on_c, 0, 61, 0
3, 107760, Note_on_c, 0, 63, 36
3, 108000, Note_on_c, 0, 63, 0
3, 108000, Note_on_c, 0, 68, 36
3, 108000, Note_on_c, 0, 64, 36
3, 108067, Control_c, 0, 64, 0
3, 108147, Control_c, 0, 64, 127
3, 108973, Control_c, 0, 64, 0
3, 109107, Control_c, 0, 64, 127
3, 109440, Note_on_c, 0, 64, 0
3, 109440, Note_on_c, 0, 68, 0
3, 109440, Control_c, 0, 64, 0
3, 109440, Note_on_c, 0, 44, 36
3, 109547, Control_c, 0, 64, 127
3, 109680, Note_on_c, 0, 44, 0
3, 109680, Note_on_c, 0, 51, 33
3, 109920, Note_on_c, 0, 51, 0
3, 109920, Note_on_c, 0, 56, 30
3, 110160, Note_on_c, 0, 56, 0
3, 110160, Note_on_c, 0, 59, 31
3, 110400, Note_on_c, 0, 59, 0
3, 110400, Note_on_c, 0, 61, 34
3, 110413, Control_c, 0, 64, 0
3, 110493, Control_c, 0, 64, 127
3, 110640, Note_on_c, 0, 61, 0
3, 110640, Note_on_c, 0, 63, 36
3, 110880, Note_on_c, 0, 63, 0
3, 110880, Control_c, 0, 64, 0
3, 110880, Note_on_c, 0, 64, 36
3, 110880, Note_on_c, 0, 56, 36
3, 111000, Control_c, 0, 64, 127
3, 111857, Control_c, 0, 64, 0
3, 112013, Control_c, 0, 64, 127
3, 112320, Note_on_c, 0, 56, 0
3, 112320, Note_on_c, 0, 64, 0
3, 112320, Note_on_c, 0, 44, 24
3, 112324, Control_c, 0, 64, 0
3, 112427, Control_c, 0, 64, 127
3, 112560, Note_on_c, 0, 44, 0
3, 112560, Note_on_c, 0, 51, 21
3, 112800, Note_on_c, 0, 51, 0
3, 112800, Note_on_c, 0, 56, 20
3, 113040, Note_on_c, 0, 56, 0
3, 113040, Note_on_c, 0, 59, 20
3, 113280, Note_on_c, 0, 59, 0
3, 113280, Note_on_c, 0, 61, 22
3, 113293, Control_c, 0, 64, 0
3, 113400, Control_c, 0, 64, 127
3, 113520, Note_on_c, 0, 61, 0
3, 113520, Note_on_c, 0, 63, 24
3, 113760, Note_on_c, 0, 63, 0
3, 113760, Note_on_c, 0, 67, 24
3, 113760, Note_on_c, 0, 61, 23
3, 113773, Control_c, 0, 64, 0
3, 114000, Control_c, 0, 64, 127
3, 115200, Note_on_c, 0, 61, 0
3, 115200, Note_on_c, 0, 67, 0
3, 115200, Note_on_c, 0, 44, 36
3, 115212, Control_c, 0, 64, 0
3, 115400, Control_c, 0, 64, 127
3, 115440, Note_on_c, 0, 44, 0
3, 115440, Note_on_c, 0, 51, 33
3, 115680, Note_on_c, 0, 51, 0
3, 115680, Note_on_c, 0, 56, 30
3, 115920, Note_on_c, 0, 56, 0
3, 115920, Note_on_c, 0, 59, 31
3, 116160, Note_on_c, 0, 59, 0
3, 116160, Note_on_c, 0, 61, 34
3, 116180, Control_c, 0, 64, 0
3, 116267, Control_c, 0, 64, 127
3, 116400, Note_on_c, 0, 61, 0
3, 116400, Note_on_c, 0, 63, 36
3, 116640, Note_on_c, 0, 63, 0
3, 116640, Note_on_c, 0, 68, 36
3, 116640, Note_on_c, 0, 64, 36
3, 116707, Control_c, 0, 64, 0
3, 116787, Control_c, 0, 64, 127
3, 117617, Control_c, 0, 64, 0
3, 117733, Control_c, 0, 64, 127
3, 118080, Note_on_c, 0, 64, 0
3, 118080, Note_on_c, 0, 68, 0
3, 118080, Control_c, 0, 64, 0
3, 118080, Note_on_c, 0, 44, 36
3, 118187, Control_c, 0, 64, 127
3, 118320, Note_on_c, 0, 44, 0
3, 118320, Note_on_c, 0, 51, 33
3, 118560, Note_on_c, 0, 51, 0
3, 118560, Note_on_c, 0, 56, 30
3, 118800, Note_on_c, 0, 56, 0
3, 118800, Note_on_c, 0, 59, 31
3, 119040, Note_on_c, 0, 59, 0
3, 119040, Note_on_c, 0, 61, 34
3, 119060, Control_c, 0, 64, 0
3, 119147, Control_c, 0, 64, 127
3, 119280, Note_on_c, 0, 61, 0
3, 119280, Note_on_c, 0, 63, 36
3, 119520, Note_on_c, 0, 63, 0
3, 119520, Note_on_c, 0, 68, 36
3, 119520, Note_on_c, 0, 64, 36
3, 119587, Control_c, 0, 64, 0
3, 119667, Control_c, 0, 64, 127
3, 120488, Control_c, 0, 64, 0
3, 120600, Control_c, 0, 64, 127
3, 120960, Note_on_c, 0, 64, 0
3, 120960, Note_on_c, 0, 68, 0
3, 120960, Note_on_c, 0, 44, 36
3, 120970, Control_c, 0, 64, 0
3, 121067, Control_c, 0, 64, 127
3, 121200, Note_on_c, 0, 44, 0
3, 121200, Note_on_c, 0, 51, 33
3, 121440, Note_on_c, 0, 51, 0
3, 121440, Note_on_c, 0, 56, 30
3, 121680, Note_on_c, 0, 56, 0
3, 121680, Note_on_c, 0, 59, 31
3, 121920, Note_on_c, 0, 59, 0
3, 121920, Note_on_c, 0, 61, 34
3, 121937, Control_c, 0, 64, 0
3, 122053, Control_c, 0, 64, 127
3, 122160, Note_on_c, 0, 61, 0
3, 122160, Note_on_c, 0, 63, 36
3, 122400, Note_on_c, 0, 63, 0
3, 122400, Control_c, 0, 64, 0
3, 122400, Note_on_c, 0, 64, 36
3, 122400, Note_on_c, 0, 56, 36
3, 122520, Control_c, 0, 64, 127
3, 123380, Control_c, 0, 64, 0
3, 123493, Control_c, 0, 64, 127
3, 123840, Note_on_c, 0, 56, 0
3, 123840, Note_on_c, 0, 64, 0
3, 123840, Note_on_c, 0, 44, 24
3, 123849, Control_c, 0, 64, 0
3, 123947, Control_c, 0, 64, 127
3, 124080, Note_on_c, 0, 44, 0
3, 124080, Note_on_c, 0, 51, 21
3, 124320, Note_on_c, 0, 51, 0
3, 124320, Note_on_c, 0, 56, 20
3, 124560, Note_on_c, 0, 56, 0
3, 124560, Note_on_c, 0, 59, 20
3, 124800, Note_on_c, 0, 59, 0
3, 124800, Note_on_c, 0, 61, 22
3, 124827, Control_c, 0, 64, 0
3, 124893, Control_c, 0, 64, 127
3, 125040, Note_on_c, 0, 61, 0
3, 125040, Note_on_c, 0, 63, 24
3, 125280, Note_on_c, 0, 63, 0
3, 125280, Control_c, 0, 64, 0
3, 125280, Note_on_c, 0, 68, 30
3, 125387, Control_c, 0, 64, 127
3, 125520, Note_on_c, 0, 68, 0
3, 125520, Note_on_c, 0, 63, 30
3, 125760, Note_on_c, 0, 63, 0
3, 125760, Note_on_c, 0, 61, 28
3, 126000, Note_on_c, 0, 61, 0
3, 126000, Note_on_c, 0, 59, 28
3, 126240, Note_on_c, 0, 59, 0
3, 126240, Note_on_c, 0, 58, 27
3, 126247, Control_c, 0, 64, 0
3, 126307, Control_c, 0, 64, 127
3, 126480, Note_on_c, 0, 58, 0
3, 126480, Note_on_c, 0, 56, 25
3, 126720, Note_on_c, 0, 56, 0
3, 126720, Control_c, 0, 64, 0
3, 126720, Note_on_c, 0, 39, 30
3, 126937, Control_c, 0, 64, 127
3, 126960, Note_on_c, 0, 39, 0
3, 126960, Note_on_c, 0, 46, 29
3, 127200, Note_on_c, 0, 46, 0
3, 127200, Note_on_c, 0, 51, 28
3, 127440, Note_on_c, 0, 51, 0
3, 127440, Note_on_c, 0, 55, 30
3, 127680, Note_on_c, 0, 55, 0
3, 127680, Note_on_c, 0, 58, 34
3, 127700, Control_c, 0, 64, 0
3, 127840, Control_c, 0, 64, 127
3, 127920, Note_on_c, 0, 58, 0
3, 127920, Note_on_c, 0, 63, 38
3, 128160, Note_on_c, 0, 63, 0
3, 128160, Note_on_c, 0, 58, 41
3, 128160, Note_on_c, 0, 68, 41
3, 128160, Note_on_c, 0, 64, 41
3, 128177, Control_c, 0, 64, 0
3, 128307, Control_c, 0, 64, 127
3, 129136, Control_c, 0, 64, 0
3, 129244, Control_c, 0, 64, 127
3, 129600, Note_on_c, 0, 64, 0
3, 129600, Note_on_c, 0, 68, 0
3, 129600, Note_on_c, 0, 58, 0
3, 129600, Note_on_c, 0, 39, 36
3, 129608, Control_c, 0, 64, 0
3, 129707, Control_c, 0, 64, 127
3, 129840, Note_on_c, 0, 39, 0
3, 129840, Note_on_c, 0, 46, 33
3, 130080, Note_on_c, 0, 46, 0
3, 130080, Note_on_c, 0, 51, 30
3, 130320, Note_on_c, 0, 51, 0
3, 130320, Note_on_c, 0, 55, 31
3, 130560, Note_on_c, 0, 55, 0
3, 130560, Note_on_c, 0, 58, 34
3, 130580, Control_c, 0, 64, 0
3, 130620, Control_c, 0, 64, 127
3, 130800, Note_on_c, 0, 58, 0
3, 130800, Note_on_c, 0, 63, 36
3, 130995, Note_on_c, 0, 51, 35
3, 131010, Note_on_c, 0, 58, 38
3, 131025, Note_on_c, 0, 61, 40
3, 131040, Note_on_c, 0, 63, 0
3, 131040, Note_on_c, 0, 64, 42
3, 131107, Control_c, 0, 64, 0
3, 131187, Control_c, 0, 64, 127
3, 132016, Control_c, 0, 64, 0
3, 132081, Control_c, 0, 64, 127
3, 132420, Note_on_c, 0, 64, 0
3, 132420, Note_on_c, 0, 61, 0
3, 132420, Note_on_c, 0, 58, 0
3, 132420, Note_on_c, 0, 51, 0
3, 132420, Note_on_c, 0, 39, 39
3, 132435, Control_c, 0, 64, 0
3, 132468, Control_c, 0, 64, 127
3, 132480, Note_on_c, 0, 39, 0
3, 132480, Note_on_c, 0, 63, 39
3, 132720, Note_on_c, 0, 63, 0
3, 132720, Note_on_c, 0, 59, 36
3, 132960, Note_on_c, 0, 59, 0
3, 132960, Note_on_c, 0, 58, 33
3, 133200, Note_on_c, 0, 58, 0
3, 133200, Note_on_c, 0, 55, 35
3, 133440, Note_on_c, 0, 55, 0
3, 133440, Note_on_c, 0, 50, 39
3, 133457, Control_c, 0, 64, 0
3, 133612, Control_c, 0, 64, 127
3, 133680, Note_on_c, 0, 50, 0
3, 133680, Note_on_c, 0, 51, 45
3, 133920, Note_on_c, 0, 51, 0
3, 133920, Note_on_c, 0, 44, 49
3, 133931, Control_c, 0, 64, 0
3, 134040, Control_c, 0, 64, 127
3, 134160, Note_on_c, 0, 44, 0
3, 134160, Note_on_c, 0, 50, 46
3, 134400, Note_on_c, 0, 50, 0
3, 134400, Note_on_c, 0, 51, 45
3, 134640, Note_on_c, 0, 51, 0
3, 134640, Note_on_c, 0, 55, 36
3, 134880, Note_on_c, 0, 55, 0
3, 134880, Note_on_c, 0, 56, 42
3, 134897, Control_c, 0, 64, 0
3, 135013, Control_c, 0, 64, 127
3, 135120, Note_on_c, 0, 56, 0
3, 135120, Note_on_c, 0, 59, 41
3, 135360, Note_on_c, 0, 59, 0
3, 135360, Note_on_c, 0, 39, 36
3, 135362, Control_c, 0, 64, 0
3, 135467, Control_c, 0, 64, 127
3, 135600, Note_on_c, 0, 39, 0
3, 135600, Note_on_c, 0, 45, 38
3, 135840, Note_on_c, 0, 45, 0
3, 135840, Note_on_c, 0, 46, 40
3, 136080, Note_on_c, 0, 46, 0
3, 136080, Note_on_c, 0, 51, 41
3, 136320, Note_on_c, 0, 51, 0
3, 136320, Note_on_c, 0, 55, 44
3, 136339, Control_c, 0, 64, 0
3, 136440, Control_c, 0, 64, 127
3, 136560, Note_on_c, 0, 55, 0
3, 136560, Note_on_c, 0, 58, 46
3, 136800, Note_on_c, 0, 58, 0
3, 136800, Note_on_c, 0, 59, 45
3, 136813, Control_c, 0, 64, 0
3, 136947, Control_c, 0, 64, 127
3, 137040, Note_on_c, 0, 59, 0
3, 137040, Note_on_c, 0, 56, 39
3, 137280, Note_on_c, 0, 56, 0
3, 137280, Note_on_c, 0, 52, 39
3, 137520, Note_on_c, 0, 52, 0
3, 137520, Note_on_c, 0, 47, 38
3, 137760, Note_on_c, 0, 47, 0
3, 137760, Note_on_c, 0, 44, 36
3, 138000, Note_on_c, 0, 44, 0
3, 138000, Note_on_c, 0, 40, 34
3, 138180, Note_on_c, 0, 40, 0
3, 138187, Control_c, 0, 64, 0
3, 138240, Note_on_c, 0, 39, 36
3, 138240, Control_c, 0, 64, 127
3, 138480, Note_on_c, 0, 39, 0
3, 138480, Note_on_c, 0, 46, 35
3, 138720, Note_on_c, 0, 46, 0
3, 138720, Note_on_c, 0, 51, 34
3, 138960, Note_on_c, 0, 51, 0
3, 138960, Note_on_c, 0, 55, 36
3, 139200, Note_on_c, 0, 55, 0
3, 139200, Note_on_c, 0, 58, 40
3, 139216, Control_c, 0, 64, 0
3, 139337, Control_c, 0, 64, 127
3, 139440, Note_on_c, 0, 58, 0
3, 139440, Note_on_c, 0, 63, 45
3, 139680, Note_on_c, 0, 63, 0
3, 139680, Note_on_c, 0, 58, 49
3, 139680, Note_on_c, 0, 68, 49
3, 139680, Note_on_c, 0, 64, 49
3, 139697, Control_c, 0, 64, 0
3, 139827, Control_c, 0, 64, 127
3, 140658, Control_c, 0, 64, 0
3, 140721, Control_c, 0, 64, 127
3, 141120, Note_on_c, 0, 64, 0
3, 141120, Note_on_c, 0, 68, 0
3, 141120, Note_on_c, 0, 58, 0
3, 141120, Note_on_c, 0, 39, 36
3, 141132, Control_c, 0, 64, 0
3, 141227, Control_c, 0, 64, 127
3, 141360, Note_on_c, 0, 39, 0
3, 141360, Note_on_c, 0, 46, 33
3, 141600, Note_on_c, 0, 46, 0
3, 141600, Note_on_c, 0, 51, 30
3, 141840, Note_on_c, 0, 51, 0
3, 141840, Note_on_c, 0, 55, 31
3, 142080, Note_on_c, 0, 55, 0
3, 142080, Note_on_c, 0, 58, 34
3, 142095, Control_c, 0, 64, 0
3, 142140, Control_c, 0, 64, 127
3, 142320, Note_on_c, 0, 58, 0
3, 142320, Note_on_c, 0, 63, 36
3, 142515, Note_on_c, 0, 51, 35
3, 142530, Note_on_c, 0, 58, 38
3, 142545, Note_on_c, 0, 61, 40
3, 142560, Note_on_c, 0, 63, 0
3, 142560, Note_on_c, 0, 64, 42
3, 142577, Control_c, 0, 64, 0
3, 142707, Control_c, 0, 64, 127
3, 143545, Control_c, 0, 64, 0
3, 143580, Control_c, 0, 64, 127
3, 143940, Note_on_c, 0, 64, 0
3, 143940, Note_on_c, 0, 61, 0
3, 143940, Note_on_c, 0, 58, 0
3, 143940, Note_on_c, 0, 51, 0
3, 143940, Note_on_c, 0, 39, 39
3, 143948, Control_c, 0, 64, 0
3, 143969, Control_c, 0, 64, 127
3, 144000, Note_on_c, 0, 39, 0
3, 144000, Note_on_c, 0, 63, 39
3, 144240, Note_on_c, 0, 63, 0
3, 144240, Note_on_c, 0, 59, 36
3, 144480, Note_on_c, 0, 59, 0
3, 144480, Note_on_c, 0, 58, 33
3, 144720, Note_on_c, 0, 58, 0
3, 144720, Note_on_c, 0, 55, 35
3, 144960, Note_on_c, 0, 55, 0
3, 144960, Note_on_c, 0, 50, 39
3, 144978, Control_c, 0, 64, 0
3, 145067, Control_c, 0, 64, 127
3, 145200, Note_on_c, 0, 50, 0
3, 145200, Note_on_c, 0, 51, 45
3, 145440, Note_on_c, 0, 51, 0
3, 145440, Note_on_c, 0, 44, 49
3, 145450, Control_c, 0, 64, 0
3, 145560, Control_c, 0, 64, 127
3, 145680, Note_on_c, 0, 44, 0
3, 145680, Note_on_c, 0, 50, 46
3, 145920, Note_on_c, 0, 50, 0
3, 145920, Note_on_c, 0, 51, 45
3, 146160, Note_on_c, 0, 51, 0
3, 146160, Note_on_c, 0, 55, 38
3, 146400, Note_on_c, 0, 55, 0
3, 146400, Note_on_c, 0, 56, 42
3, 146415, Control_c, 0, 64, 0
3, 146533, Control_c, 0, 64, 127
3, 146640, Note_on_c, 0, 56, 0
3, 146640, Note_on_c, 0, 59, 41
3, 146880, Note_on_c, 0, 59, 0
3, 146880, Note_on_c, 0, 39, 36
3, 146892, Control_c, 0, 64, 0
3, 146987, Control_c, 0, 64, 127
3, 147120, Note_on_c, 0, 39, 0
3, 147120, Note_on_c, 0, 45, 38
3, 147360, Note_on_c, 0, 45, 0
3, 147360, Note_on_c, 0, 46, 40
3, 147600, Note_on_c, 0, 46, 0
3, 147600, Note_on_c, 0, 51, 41
3, 147840, Note_on_c, 0, 51, 0
3, 147840, Note_on_c, 0, 55, 44
3, 147859, Control_c, 0, 64, 0
3, 147960, Control_c, 0, 64, 127
3, 148080, Note_on_c, 0, 55, 0
3, 148080, Note_on_c, 0, 58, 46
3, 148320, Note_on_c, 0, 58, 0
3, 148320, Note_on_c, 0, 61, 45
3, 148333, Control_c, 0, 64, 0
3, 148467, Control_c, 0, 64, 127
3, 148560, Note_on_c, 0, 61, 0
3, 148560, Note_on_c, 0, 59, 35
3, 148800, Note_on_c, 0, 59, 0
3, 148800, Note_on_c, 0, 58, 39
3, 149040, Note_on_c, 0, 58, 0
3, 149040, Note_on_c, 0, 55, 38
3, 149280, Note_on_c, 0, 55, 0
3, 149280, Note_on_c, 0, 52, 36
3, 149297, Control_c, 0, 64, 0
3, 149383, Control_c, 0, 64, 127
3, 149520, Note_on_c, 0, 52, 0
3, 149520, Note_on_c, 0, 51, 34
3, 149760, Note_on_c, 0, 51, 0
3, 149760, Note_on_c, 0, 44, 36
3, 149787, Control_c, 0, 64, 0
3, 149920, Control_c, 0, 64, 127
3, 150000, Note_on_c, 0, 44, 0
3, 150000, Note_on_c, 0, 51, 33
3, 150240, Note_on_c, 0, 51, 0
3, 150240, Note_on_c, 0, 56, 30
3, 150480, Note_on_c, 0, 56, 0
3, 150480, Note_on_c, 0, 59, 31
3, 150720, Note_on_c, 0, 59, 0
3, 150720, Note_on_c, 0, 61, 34
3, 150733, Control_c, 0, 64, 0
3, 150827, Control_c, 0, 64, 127
3, 150960, Note_on_c, 0, 61, 0
3, 150960, Note_on_c, 0, 63, 32
3, 151200, Note_on_c, 0, 63, 0
3, 151200, Note_on_c, 0, 68, 36
3, 151200, Note_on_c, 0, 64, 36
3, 151215, Control_c, 0, 64, 0
3, 151347, Control_c, 0, 64, 127
3, 152175, Control_c, 0, 64, 0
3, 152320, Control_c, 0, 64, 127
3, 152640, Note_on_c, 0, 64, 0
3, 152640, Note_on_c, 0, 68, 0
3, 152640, Note_on_c, 0, 44, 36
3, 152654, Control_c, 0, 64, 0
3, 152747, Control_c, 0, 64, 127
3, 152880, Note_on_c, 0, 44, 0
3, 152880, Note_on_c, 0, 51, 33
3, 153120, Note_on_c, 0, 51, 0
3, 153120, Note_on_c, 0, 56, 30
3, 153360, Note_on_c, 0, 56, 0
3, 153360, Note_on_c, 0, 59, 31
3, 153600, Note_on_c, 0, 59, 0
3, 153600, Note_on_c, 0, 61, 34
3, 153613, Control_c, 0, 64, 0
3, 153734, Control_c, 0, 64, 127
3, 153840, Note_on_c, 0, 61, 0
3, 153840, Note_on_c, 0, 63, 36
3, 154080, Note_on_c, 0, 63, 0
3, 154080, Note_on_c, 0, 68, 36
3, 154080, Note_on_c, 0, 64, 36
3, 154097, Control_c, 0, 64, 0
3, 154320, Control_c, 0, 64, 127
3, 155053, Control_c, 0, 64, 0
3, 155173, Control_c, 0, 64, 127
3, 155520, Note_on_c, 0, 64, 0
3, 155520, Note_on_c, 0, 68, 0
3, 155520, Note_on_c, 0, 44, 36
3, 155530, Control_c, 0, 64, 0
3, 155627, Control_c, 0, 64, 127
3, 155760, Note_on_c, 0, 44, 0
3, 155760, Note_on_c, 0, 51, 33
3, 156000, Note_on_c, 0, 51, 0
3, 156000, Note_on_c, 0, 56, 30
3, 156240, Note_on_c, 0, 56, 0
3, 156240, Note_on_c, 0, 59, 31
3, 156480, Note_on_c, 0, 59, 0
3, 156480, Note_on_c, 0, 61, 34
3, 156493, Control_c, 0, 64, 0
3, 156587, Control_c, 0, 64, 127
3, 156720, Note_on_c, 0, 61, 0
3, 156720, Note_on_c, 0, 63, 36
3, 156960, Note_on_c, 0, 63, 0
3, 156960, Note_on_c, 0, 64, 36
3, 156960, Note_on_c, 0, 56, 36
3, 156968, Control_c, 0, 64, 0
3, 157080, Control_c, 0, 64, 127
3, 157937, Control_c, 0, 64, 0
3, 158094, Control_c, 0, 64, 127
3, 158400, Note_on_c, 0, 56, 0
3, 158400, Note_on_c, 0, 64, 0
3, 158400, Note_on_c, 0, 44, 24
3, 158414, Control_c, 0, 64, 0
3, 158507, Control_c, 0, 64, 127
3, 158640, Note_on_c, 0, 44, 0
3, 158640, Note_on_c, 0, 51, 21
3, 158880, Note_on_c, 0, 51, 0
3, 158880, Note_on_c, 0, 56, 20
3, 159120, Note_on_c, 0, 56, 0
3, 159120, Note_on_c, 0, 59, 20
3, 159360, Note_on_c, 0, 59, 0
3, 159360, Note_on_c, 0, 63, 22
3, 159600, Note_on_c, 0, 63, 0
3, 159600, Note_on_c, 0, 68, 24
3, 159840, Note_on_c, 0, 68, 0
3, 159851, Control_c, 0, 64, 0
3, 159947, Control_c, 0, 64, 127
3, 160575, Control_c, 0, 64, 0
3, 160680, Control_c, 0, 64, 127
3, 161280, Note_on_c, 0, 41, 27
3, 161280, Note_on_c, 0, 51, 32
3, 161288, Control_c, 0, 64, 0
3, 161454, Control_c, 0, 64, 127
3, 162720, Note_on_c, 0, 51, 0
3, 162720, Note_on_c, 0, 41, 0
3, 162720, Note_on_c, 0, 71, 32
3, 162730, Control_c, 0, 64, 0
3, 162854, Control_c, 0, 64, 127
3, 164160, Note_on_c, 0, 71, 0
3, 164160, Note_on_c, 0, 41, 28
3, 164160, Note_on_c, 0, 47, 33
3, 164170, Control_c, 0, 64, 0
3, 164263, Control_c, 0, 64, 127
3, 165600, Note_on_c, 0, 47, 0
3, 165600, Note_on_c, 0, 41, 0
3, 165600, Note_on_c, 0, 71, 33
3, 165610, Control_c, 0, 64, 0
3, 165703, Control_c, 0, 64, 127
3, 167040, Note_on_c, 0, 71, 0
3, 167040, Note_on_c, 0, 34, 23
3, 167040, Note_on_c, 0, 46, 28
3, 167055, Control_c, 0, 64, 0
3, 167143, Control_c, 0, 64, 127
3, 168480, Note_on_c, 0, 46, 0
3, 168480, Note_on_c, 0, 34, 0
3, 168480, Note_on_c, 0, 70, 28
3, 168495, Control_c, 0, 64, 0
3, 168640, Control_c, 0, 64, 127
3, 169920, Note_on_c, 0, 70, 0
3, 169920, Note_on_c, 0, 34, 28
3, 169920, Note_on_c, 0, 46, 28
3, 169935, Control_c, 0, 64, 0
3, 169963, Control_c, 0, 64, 127
3, 170420, Control_c, 0, 64, 0
3, 170497, Control_c, 0, 64, 127
3, 170580, Note_on_c, 0, 77, 33
3, 170640, Note_on_c, 0, 77, 0
3, 170640, Note_on_c, 0, 46, 0
3, 170640, Note_on_c, 0, 34, 0
3, 170640, Note_on_c, 0, 82, 49
3, 170897, Control_c, 0, 64, 0
3, 171006, Control_c, 0, 64, 127
3, 171360, Note_on_c, 0, 82, 0
3, 171360, Control_c, 0, 64, 0
3, 171360, Note_on_c, 0, 46, 42
3, 171360, Note_on_c, 0, 58, 42
3, 171403, Control_c, 0, 64, 127
3, 171860, Control_c, 0, 64, 0
3, 171937, Control_c, 0, 64, 127
3, 172020, Note_on_c, 0, 89, 45
3, 172080, Note_on_c, 0, 89, 0
3, 172080, Note_on_c, 0, 58, 0
3, 172080, Note_on_c, 0, 46, 0
3, 172080, Note_on_c, 0, 94, 68
3, 172338, Control_c, 0, 64, 0
3, 172446, Control_c, 0, 64, 127
3, 172800, Note_on_c, 0, 94, 0
3, 172800, Note_on_c, 0, 39, 36
3, 172800, Note_on_c, 0, 51, 43
3, 172813, Control_c, 0, 64, 0
3, 172949, Control_c, 0, 64, 127
3, 173520, Note_on_c, 0, 51, 0
3, 173520, Note_on_c, 0, 39, 0
3, 173760, Note_on_c, 0, 34, 34
3, 173760, Note_on_c, 0, 46, 41
3, 173771, Control_c, 0, 64, 0
3, 173897, Control_c, 0, 64, 127
3, 174240, Note_on_c, 0, 46, 0
3, 174240, Note_on_c, 0, 34, 0
3, 174240, Note_on_c, 0, 41, 36
3, 174240, Note_on_c, 0, 53, 44
3, 174252, Control_c, 0, 64, 0
3, 174377, Control_c, 0, 64, 127
3, 174960, Note_on_c, 0, 53, 0
3, 174960, Note_on_c, 0, 41, 0
3, 175200, Note_on_c, 0, 34, 34
3, 175200, Note_on_c, 0, 46, 41
3, 175216, Control_c, 0, 64, 0
3, 175349, Control_c, 0, 64, 127
3, 175680, Note_on_c, 0, 46, 0
3, 175680, Note_on_c, 0, 34, 0
3, 175680, Note_on_c, 0, 39, 34
3, 175680, Note_on_c, 0, 51, 40
3, 175689, Control_c, 0, 64, 0
3, 175817, Control_c, 0, 64, 127
3, 176400, Note_on_c, 0, 51, 0
3, 176400, Note_on_c, 0, 39, 0
3, 176640, Note_on_c, 0, 34, 34
3, 176640, Note_on_c, 0, 46, 41
3, 176651, Control_c, 0, 64, 0
3, 176754, Control_c, 0, 64, 127
3, 177120, Note_on_c, 0, 46, 0
3, 177120, Note_on_c, 0, 34, 0
3, 177120, Note_on_c, 0, 41, 34
3, 177120, Note_on_c, 0, 53, 41
3, 177128, Control_c, 0, 64, 0
3, 177257, Control_c, 0, 64, 127
3, 177840, Note_on_c, 0, 53, 0
3, 177840, Note_on_c, 0, 41, 0
3, 178080, Note_on_c, 0, 34, 34
3, 178080, Note_on_c, 0, 46, 41
3, 178099, Control_c, 0, 64, 0
3, 178263, Control_c, 0, 64, 127
3, 178560, Note_on_c, 0, 46, 0
3, 178560, Note_on_c, 0, 34, 0
3, 178560, Note_on_c, 0, 51, 44
3, 178568, Control_c, 0, 64, 0
3, 178673, Control_c, 0, 64, 127
3, 178800, Note_on_c, 0, 51, 0
3, 178800, Note_on_c, 0, 67, 39
3, 179040, Note_on_c, 0, 67, 0
3, 179040, Note_on_c, 0, 67, 39
3, 179292, Control_c, 0, 64, 0
3, 179379, Control_c, 0, 64, 127
3, 179520, Note_on_c, 0, 67, 0
3, 179520, Note_on_c, 0, 63, 37
3, 179760, Note_on_c, 0, 63, 0
3, 179760, Note_on_c, 0, 58, 37
3, 180000, Note_on_c, 0, 58, 0
3, 180000, Note_on_c, 0, 51, 44
3, 180016, Control_c, 0, 64, 0
3, 180093, Control_c, 0, 64, 127
3, 180240, Note_on_c, 0, 51, 0
3, 180240, Note_on_c, 0, 68, 39
3, 180737, Control_c, 0, 64, 0
3, 180880, Control_c, 0, 64, 127
3, 180960, Note_on_c, 0, 68, 0
3, 180960, Note_on_c, 0, 62, 37
3, 181200, Note_on_c, 0, 62, 0
3, 181200, Note_on_c, 0, 58, 37
3, 181440, Note_on_c, 0, 58, 0
3, 181440, Note_on_c, 0, 51, 44
3, 181452, Control_c, 0, 64, 0
3, 181496, Control_c, 0, 64, 127
3, 181680, Note_on_c, 0, 51, 0
3, 181680, Note_on_c, 0, 67, 39
3, 182158, Note_on_c, 0, 67, 0
3, 182174, Control_c, 0, 64, 0
3, 182245, Control_c, 0, 64, 127
3, 182400, Note_on_c, 0, 63, 35
3, 182640, Note_on_c, 0, 63, 0
3, 182640, Note_on_c, 0, 58, 31
3, 182880, Note_on_c, 0, 58, 0
3, 182880, Note_on_c, 0, 51, 44
3, 182890, Control_c, 0, 64, 0
3, 183040, Control_c, 0, 64, 127
3, 183120, Note_on_c, 0, 51, 0
3, 183120, Note_on_c, 0, 68, 39
3, 183598, Note_on_c, 0, 68, 0
3, 183617, Control_c, 0, 64, 0
3, 183760, Control_c, 0, 64, 127
3, 183840, Note_on_c, 0, 62, 37
3, 184080, Note_on_c, 0, 62, 0
3, 184080, Note_on_c, 0, 58, 37
3, 184320, Note_on_c, 0, 58, 0
3, 184320, Note_on_c, 0, 51, 44
3, 184334, Control_c, 0, 64, 0
3, 184376, Control_c, 0, 64, 127
3, 184560, Note_on_c, 0, 51, 0
3, 184560, Note_on_c, 0, 67, 39
3, 185054, Control_c, 0, 64, 0
3, 185125, Control_c, 0, 64, 127
3, 185280, Note_on_c, 0, 67, 0
3, 185280, Note_on_c, 0, 63, 36
3, 185520, Note_on_c, 0, 63, 0
3, 185520, Note_on_c, 0, 55, 34
3, 185760, Note_on_c, 0, 55, 0
3, 185760, Note_on_c, 0, 46, 44
3, 185771, Control_c, 0, 64, 0
3, 185853, Control_c, 0, 64, 127
3, 186000, Note_on_c, 0, 46, 0
3, 186000, Note_on_c, 0, 56, 39
3, 186493, Control_c, 0, 64, 0
3, 186558, Control_c, 0, 64, 127
3, 186720, Note_on_c, 0, 56, 0
3, 186720, Note_on_c, 0, 52, 37
3, 186960, Note_on_c, 0, 52, 0
3, 186960, Note_on_c, 0, 53, 37
3, 187200, Note_on_c, 0, 53, 0
3, 187200, Note_on_c, 0, 46, 44
3, 187213, Control_c, 0, 64, 0
3, 187334, Control_c, 0, 64, 127
3, 187440, Note_on_c, 0, 46, 0
3, 187440, Note_on_c, 0, 55, 39
3, 187934, Control_c, 0, 64, 0
3, 188094, Control_c, 0, 64, 127
3, 188160, Note_on_c, 0, 55, 0
3, 188160, Note_on_c, 0, 58, 37
3, 188400, Note_on_c, 0, 58, 0
3, 188400, Note_on_c, 0, 55, 37
3, 188640, Note_on_c, 0, 55, 0
3, 188640, Note_on_c, 0, 46, 44
3, 188651, Control_c, 0, 64, 0
3, 188696, Control_c, 0, 64, 127
3, 188880, Note_on_c, 0, 46, 0
3, 188880, Note_on_c, 0, 56, 39
3, 189374, Control_c, 0, 64, 0
3, 189445, Control_c, 0, 64, 127
3, 189600, Note_on_c, 0, 56, 0
3, 189600, Note_on_c, 0, 52, 37
3, 189840, Note_on_c, 0, 52, 0
3, 189840, Note_on_c, 0, 53, 37
3, 190080, Note_on_c, 0, 53, 0
3, 190080, Note_on_c, 0, 39, 36
3, 190080, Note_on_c, 0, 51, 43
3, 190085, Control_c, 0, 64, 0
3, 190263, Control_c, 0, 64, 127
3, 190800, Note_on_c, 0, 51, 0
3, 190800, Note_on_c, 0, 39, 0
3, 191040, Note_on_c, 0, 34, 34
3, 191040, Note_on_c, 0, 46, 41
3, 191051, Control_c, 0, 64, 0
3, 191212, Control_c, 0, 64, 127
3, 191520, Note_on_c, 0, 46, 0
3, 191520, Note_on_c, 0, 34, 0
3, 191520, Note_on_c, 0, 41, 36
3, 191520, Note_on_c, 0, 53, 44
3, 191528, Control_c, 0, 64, 0
3, 191657, Control_c, 0, 64, 127
3, 192240, Note_on_c, 0, 53, 0
3, 192240, Note_on_c, 0, 41, 0
3, 192480, Note_on_c, 0, 34, 34
3, 192480, Note_on_c, 0, 46, 41
3, 192491, Control_c, 0, 64, 0
3, 192583, Control_c, 0, 64, 127
3, 192960, Note_on_c, 0, 46, 0
3, 192960, Note_on_c, 0, 34, 0
3, 192960, Note_on_c, 0, 39, 34
3, 192960, Note_on_c, 0, 51, 40
3, 192968, Control_c, 0, 64, 0
3, 193097, Control_c, 0, 64, 127
3, 193680, Note_on_c, 0, 51, 0
3, 193680, Note_on_c, 0, 39, 0
3, 193920, Note_on_c, 0, 34, 34
3, 193920, Note_on_c, 0, 46, 41
3, 193936, Control_c, 0, 64, 0
3, 194092, Control_c, 0, 64, 127
3, 194400, Note_on_c, 0, 46, 0
3, 194400, Note_on_c, 0, 34, 0
3, 194400, Note_on_c, 0, 41, 34
3, 194400, Note_on_c, 0, 53, 41
3, 194410, Control_c, 0, 64, 0
3, 194537, Control_c, 0, 64, 127
3, 195120, Note_on_c, 0, 53, 0
3, 195120, Note_on_c, 0, 41, 0
3, 195360, Note_on_c, 0, 34, 34
3, 195360, Note_on_c, 0, 46, 41
3, 195372, Control_c, 0, 64, 0
3, 195520, Control_c, 0, 64, 127
3, 195840, Note_on_c, 0, 46, 0
3, 195840, Note_on_c, 0, 34, 0
3, 195840, Control_c, 0, 64, 0
3, 195840, Note_on_c, 0, 51, 44
3, 195974, Control_c, 0, 64, 127
3, 196080, Note_on_c, 0, 51, 0
3, 196080, Note_on_c, 0, 67, 39
3, 196320, Note_on_c, 0, 67, 0
3, 196320, Note_on_c, 0, 67, 39
3, 196572, Control_c, 0, 64, 0
3, 196734, Control_c, 0, 64, 127
3, 196800, Note_on_c, 0, 67, 0
3, 196800, Note_on_c, 0, 63, 37
3, 197040, Note_on_c, 0, 63, 0
3, 197040, Note_on_c, 0, 58, 37
3, 197280, Note_on_c, 0, 58, 0
3, 197280, Note_on_c, 0, 51, 44
3, 197288, Control_c, 0, 64, 0
3, 197429, Control_c, 0, 64, 127
3, 197520, Note_on_c, 0, 51, 0
3, 197520, Note_on_c, 0, 68, 39
3, 198027, Control_c, 0, 64, 0
3, 198160, Control_c, 0, 64, 127
3, 198240, Note_on_c, 0, 68, 0
3, 198240, Note_on_c, 0, 61, 37
3, 198480, Note_on_c, 0, 61, 0
3, 198480, Note_on_c, 0, 58, 37
3, 198720, Note_on_c, 0, 58, 0
3, 198720, Note_on_c, 0, 51, 44
3, 198734, Control_c, 0, 64, 0
3, 198835, Control_c, 0, 64, 127
3, 198960, Note_on_c, 0, 51, 0
3, 198960, Note_on_c, 0, 67, 39
3, 199454, Control_c, 0, 64, 0
3, 199577, Control_c, 0, 64, 127
3, 199680, Note_on_c, 0, 67, 0
3, 199680, Note_on_c, 0, 61, 37
3, 199920, Note_on_c, 0, 61, 0
3, 199920, Note_on_c, 0, 58, 37
3, 200160, Note_on_c, 0, 58, 0
3, 200160, Note_on_c, 0, 51, 44
3, 200170, Control_c, 0, 64, 0
3, 200334, Control_c, 0, 64, 127
3, 200400, Note_on_c, 0, 51, 0
3, 200400, Note_on_c, 0, 61, 39
3, 200897, Control_c, 0, 64, 0
3, 201040, Control_c, 0, 64, 127
3, 201120, Note_on_c, 0, 61, 0
3, 201120, Note_on_c, 0, 55, 37
3, 201360, Note_on_c, 0, 55, 0
3, 201360, Note_on_c, 0, 51, 37
3, 201600, Note_on_c, 0, 51, 0
3, 201600, Note_on_c, 0, 44, 44
3, 201608, Control_c, 0, 64, 0
3, 201747, Control_c, 0, 64, 127
3, 201840, Note_on_c, 0, 44, 0
3, 201840, Note_on_c, 0, 60, 39
3, 202334, Control_c, 0, 64, 0
3, 202507, Control_c, 0, 64, 127
3, 202560, Note_on_c, 0, 60, 0
3, 202560, Note_on_c, 0, 56, 39
3, 202800, Note_on_c, 0, 56, 0
3, 202800, Note_on_c, 0, 51, 39
3, 203040, Note_on_c, 0, 51, 0
3, 203040, Note_on_c, 0, 44, 48
3, 203280, Note_on_c, 0, 44, 0
3, 203280, Note_on_c, 0, 63, 42
3, 204000, Note_on_c, 0, 63, 0
3, 204000, Note_on_c, 0, 60, 39
3, 204240, Note_on_c, 0, 60, 0
3, 204240, Note_on_c, 0, 56, 39
3, 204480, Note_on_c, 0, 56, 0
3, 204480, Note_on_c, 0, 44, 50
3, 204487, Control_c, 0, 64, 0
3, 204587, Control_c, 0, 64, 127
3, 204720, Note_on_c, 0, 44, 0
3, 204720, Note_on_c, 0, 59, 45
3, 205214, Control_c, 0, 64, 0
3, 205360, Control_c, 0, 64, 127
3, 205440, Note_on_c, 0, 59, 0
3, 205440, Note_on_c, 0, 56, 44
3, 205680, Note_on_c, 0, 56, 0
3, 205680, Note_on_c, 0, 51, 45
3, 205920, Note_on_c, 0, 51, 0
3, 205920, Note_on_c, 0, 44, 54
3, 206160, Note_on_c, 0, 44, 0
3, 206160, Note_on_c, 0, 63, 49
3, 206880, Note_on_c, 0, 63, 0
3, 206880, Note_on_c, 0, 59, 48
3, 207120, Note_on_c, 0, 59, 0
3, 207120, Note_on_c, 0, 56, 49
3, 207360, Note_on_c, 0, 56, 0
3, 207360, Note_on_c, 0, 46, 65
3, 207368, Control_c, 0, 64, 0
3, 207523, Control_c, 0, 64, 127
3, 207600, Note_on_c, 0, 46, 0
3, 207600, Note_on_c, 0, 67, 45
3, 207840, Note_on_c, 0, 67, 0
3, 207840, Note_on_c, 0, 67, 45
3, 208098, Control_c, 0, 64, 0
3, 208179, Control_c, 0, 64, 127
3, 208318, Note_on_c, 0, 67, 0
3, 208320, Note_on_c, 0, 63, 43
3, 208560, Note_on_c, 0, 63, 0
3, 208560, Note_on_c, 0, 58, 43
3, 208800, Note_on_c, 0, 58, 0
3, 208800, Note_on_c, 0, 46, 51
3, 208810, Control_c, 0, 64, 0
3, 208947, Control_c, 0, 64, 127
3, 209040, Note_on_c, 0, 46, 0
3, 209040, Note_on_c, 0, 68, 45
3, 209537, Control_c, 0, 64, 0
3, 209680, Control_c, 0, 64, 127
3, 209760, Note_on_c, 0, 68, 0
3, 209760, Note_on_c, 0, 62, 43
3, 210000, Note_on_c, 0, 62, 0
3, 210000, Note_on_c, 0, 58, 43
3, 210240, Note_on_c, 0, 58, 0
3, 210240, Note_on_c, 0, 51, 51
3, 210249, Control_c, 0, 64, 0
3, 210346, Control_c, 0, 64, 127
3, 210480, Note_on_c, 0, 51, 0
3, 210480, Note_on_c, 0, 67, 45
3, 210958, Note_on_c, 0, 67, 0
3, 210974, Control_c, 0, 64, 0
3, 211045, Control_c, 0, 64, 127
3, 211200, Note_on_c, 0, 63, 43
3, 211440, Note_on_c, 0, 63, 0
3, 211440, Note_on_c, 0, 58, 43
3, 211680, Note_on_c, 0, 58, 0
3, 211680, Note_on_c, 0, 48, 51
3, 211690, Control_c, 0, 64, 0
3, 211817, Control_c, 0, 64, 127
3, 211920, Note_on_c, 0, 48, 0
3, 211920, Note_on_c, 0, 61, 45
3, 212417, Control_c, 0, 64, 0
3, 212560, Control_c, 0, 64, 127
3, 212640, Note_on_c, 0, 61, 0
3, 212640, Note_on_c, 0, 60, 43
3, 212880, Note_on_c, 0, 60, 0
3, 212880, Note_on_c, 0, 64, 43
3, 213120, Note_on_c, 0, 64, 0
3, 213120, Note_on_c, 0, 41, 51
3, 213130, Control_c, 0, 64, 0
3, 213226, Control_c, 0, 64, 127
3, 213360, Note_on_c, 0, 41, 0
3, 213360, Note_on_c, 0, 63, 45
3, 213854, Control_c, 0, 64, 0
3, 213925, Control_c, 0, 64, 127
3, 214080, Note_on_c, 0, 63, 0
3, 214080, Note_on_c, 0, 53, 43
3, 214320, Note_on_c, 0, 53, 0
3, 214320, Note_on_c, 0, 63, 43
3, 214560, Note_on_c, 0, 63, 0
3, 214560, Note_on_c, 0, 46, 51
3, 214565, Control_c, 0, 64, 0
3, 214707, Control_c, 0, 64, 127
3, 214800, Note_on_c, 0, 46, 0
3, 214800, Note_on_c, 0, 56, 45
3, 215297, Control_c, 0, 64, 0
3, 215440, Control_c, 0, 64, 127
3, 215520, Note_on_c, 0, 56, 0
3, 215520, Note_on_c, 0, 55, 43
3, 215760, Note_on_c, 0, 55, 0
3, 215760, Note_on_c, 0, 63, 43
3, 216000, Note_on_c, 0, 63, 0
3, 216000, Note_on_c, 0, 46, 48
3, 216008, Control_c, 0, 64, 0
3, 216056, Control_c, 0, 64, 127
3, 216240, Note_on_c, 0, 46, 0
3, 216240, Note_on_c, 0, 63, 45
3, 216734, Control_c, 0, 64, 0
3, 216805, Control_c, 0, 64, 127
3, 216960, Note_on_c, 0, 63, 0
3, 216960, Note_on_c, 0, 58, 43
3, 217200, Note_on_c, 0, 58, 0
3, 217200, Note_on_c, 0, 68, 43
3, 217440, Note_on_c, 0, 68, 0
3, 217440, Note_on_c, 0, 46, 45
3, 217450, Control_c, 0, 64, 0
3, 217546, Control_c, 0, 64, 127
3, 217680, Note_on_c, 0, 46, 0
3, 217680, Note_on_c, 0, 55, 40
3, 217920, Note_on_c, 0, 55, 0
3, 217920, Note_on_c, 0, 56, 38
3, 218160, Note_on_c, 0, 56, 0
3, 218160, Note_on_c, 0, 60, 35
3, 218174, Control_c, 0, 64, 0
3, 218245, Control_c, 0, 64, 127
3, 218520, Note_on_c, 0, 60, 0
3, 218520, Note_on_c, 0, 58, 34
3, 218880, Note_on_c, 0, 58, 0
3, 218880, Note_on_c, 0, 39, 36
3, 218880, Note_on_c, 0, 51, 43
3, 218889, Control_c, 0, 64, 0
3, 219029, Control_c, 0, 64, 127
3, 219600, Note_on_c, 0, 51, 0
3, 219600, Note_on_c, 0, 39, 0
3, 219840, Note_on_c, 0, 34, 34
3, 219840, Note_on_c, 0, 46, 41
3, 219856, Control_c, 0, 64, 0
3, 219943, Control_c, 0, 64, 127
3, 220320, Note_on_c, 0, 46, 0
3, 220320, Note_on_c, 0, 34, 0
3, 220320, Note_on_c, 0, 41, 36
3, 220320, Note_on_c, 0, 53, 44
3, 220332, Control_c, 0, 64, 0
3, 220457, Control_c, 0, 64, 127
3, 221040, Note_on_c, 0, 53, 0
3, 221040, Note_on_c, 0, 41, 0
3, 221280, Note_on_c, 0, 34, 34
3, 221280, Note_on_c, 0, 46, 41
3, 221296, Control_c, 0, 64, 0
3, 221371, Control_c, 0, 64, 127
3, 221760, Note_on_c, 0, 46, 0
3, 221760, Note_on_c, 0, 34, 0
3, 221760, Note_on_c, 0, 39, 34
3, 221760, Note_on_c, 0, 51, 40
3, 221777, Control_c, 0, 64, 0
3, 221897, Control_c, 0, 64, 127
3, 222480, Note_on_c, 0, 51, 0
3, 222480, Note_on_c, 0, 39, 0
3, 222720, Note_on_c, 0, 34, 34
3, 222720, Note_on_c, 0, 46, 41
3, 222737, Control_c, 0, 64, 0
3, 222823, Control_c, 0, 64, 127
3, 223200, Note_on_c, 0, 46, 0
3, 223200, Note_on_c, 0, 34, 0
3, 223200, Note_on_c, 0, 41, 34
3, 223200, Note_on_c, 0, 53, 41
3, 223212, Control_c, 0, 64, 0
3, 223337, Control_c, 0, 64, 127
3, 223920, Note_on_c, 0, 53, 0
3, 223920, Note_on_c, 0, 41, 0
3, 224160, Note_on_c, 0, 34, 34
3, 224160, Note_on_c, 0, 46, 41
3, 224176, Control_c, 0, 64, 0
3, 224286, Control_c, 0, 64, 127
3, 224640, Note_on_c, 0, 46, 0
3, 224640, Note_on_c, 0, 34, 0
3, 224640, Note_on_c, 0, 51, 29
3, 224651, Control_c, 0, 64, 0
3, 224753, Control_c, 0, 64, 127
3, 224880, Note_on_c, 0, 51, 0
3, 224880, Note_on_c, 0, 67, 26
3, 225120, Note_on_c, 0, 67, 0
3, 225120, Note_on_c, 0, 67, 26
3, 225372, Control_c, 0, 64, 0
3, 225459, Control_c, 0, 64, 127
3, 225600, Note_on_c, 0, 67, 0
3, 225600, Note_on_c, 0, 63, 24
3, 225840, Note_on_c, 0, 63, 0
3, 225840, Note_on_c, 0, 58, 24
3, 226080, Note_on_c, 0, 58, 0
3, 226080, Note_on_c, 0, 51, 29
3, 226091, Control_c, 0, 64, 0
3, 226254, Control_c, 0, 64, 127
3, 226320, Note_on_c, 0, 51, 0
3, 226320, Note_on_c, 0, 68, 26
3, 226817, Control_c, 0, 64, 0
3, 226960, Control_c, 0, 64, 127
3, 227040, Note_on_c, 0, 68, 0
3, 227040, Note_on_c, 0, 62, 24
3, 227280, Note_on_c, 0, 62, 0
3, 227280, Note_on_c, 0, 58, 24
3, 227520, Note_on_c, 0, 58, 0
3, 227520, Note_on_c, 0, 51, 29
3, 227530, Control_c, 0, 64, 0
3, 227612, Control_c, 0, 64, 127
3, 227760, Note_on_c, 0, 51, 0
3, 227760, Note_on_c, 0, 67, 26
3, 228238, Note_on_c, 0, 67, 0
3, 228254, Control_c, 0, 64, 0
3, 228325, Control_c, 0, 64, 127
3, 228480, Note_on_c, 0, 63, 24
3, 228720, Note_on_c, 0, 63, 0
3, 228720, Note_on_c, 0, 58, 24
3, 228960, Note_on_c, 0, 58, 0
3, 228960, Note_on_c, 0, 51, 29
3, 228974, Control_c, 0, 64, 0
3, 229160, Control_c, 0, 64, 127
3, 229200, Note_on_c, 0, 51, 0
3, 229200, Note_on_c, 0, 68, 26
3, 229678, Note_on_c, 0, 68, 0
3, 229697, Control_c, 0, 64, 0
3, 229840, Control_c, 0, 64, 127
3, 229920, Note_on_c, 0, 62, 24
3, 230160, Note_on_c, 0, 62, 0
3, 230160, Note_on_c, 0, 58, 24
3, 230400, Note_on_c, 0, 58, 0
3, 230400, Note_on_c, 0, 51, 29
3, 230413, Control_c, 0, 64, 0
3, 230456, Control_c, 0, 64, 127
3, 230640, Note_on_c, 0, 51, 0
3, 230640, Note_on_c, 0, 67, 26
3, 231134, Control_c, 0, 64, 0
3, 231205, Control_c, 0, 64, 127
3, 231360, Note_on_c, 0, 67, 0
3, 231360, Note_on_c, 0, 63, 24
3, 231600, Note_on_c, 0, 63, 0
3, 231600, Note_on_c, 0, 55, 24
3, 231840, Note_on_c, 0, 55, 0
3, 231840, Note_on_c, 0, 46, 29
3, 231849, Control_c, 0, 64, 0
3, 231933, Control_c, 0, 64, 127
3, 232080, Note_on_c, 0, 46, 0
3, 232080, Note_on_c, 0, 56, 26
3, 232574, Control_c, 0, 64, 0
3, 232720, Control_c, 0, 64, 127
3, 232800, Note_on_c, 0, 56, 0
3, 232800, Note_on_c, 0, 52, 24
3, 233040, Note_on_c, 0, 52, 0
3, 233040, Note_on_c, 0, 53, 24
3, 233280, Note_on_c, 0, 53, 0
3, 233280, Note_on_c, 0, 46, 29
3, 233289, Control_c, 0, 64, 0
3, 233427, Control_c, 0, 64, 127
3, 233520, Note_on_c, 0, 46, 0
3, 233520, Note_on_c, 0, 55, 26
3, 234014, Control_c, 0, 64, 0
3, 234174, Control_c, 0, 64, 127
3, 234240, Note_on_c, 0, 55, 0
3, 234240, Note_on_c, 0, 58, 24
3, 234480, Note_on_c, 0, 58, 0
3, 234480, Note_on_c, 0, 55, 24
3, 234720, Note_on_c, 0, 55, 0
3, 234720, Note_on_c, 0, 46, 29
3, 234731, Control_c, 0, 64, 0
3, 234776, Control_c, 0, 64, 127
3, 234960, Note_on_c, 0, 46, 0
3, 234960, Note_on_c, 0, 56, 26
3, 235454, Control_c, 0, 64, 0
3, 235525, Control_c, 0, 64, 127
3, 235680, Note_on_c, 0, 56, 0
3, 235680, Note_on_c, 0, 52, 24
3, 235920, Note_on_c, 0, 52, 0
3, 235920, Note_on_c, 0, 53, 24
3, 236160, Note_on_c, 0, 53, 0
3, 236160, Note_on_c, 0, 51, 29
3, 236173, Control_c, 0, 64, 0
3, 236308, Control_c, 0, 64, 127
3, 236400, Note_on_c, 0, 51, 0
3, 236400, Note_on_c, 0, 67, 26
3, 236640, Note_on_c, 0, 67, 0
3, 236640, Note_on_c, 0, 67, 26
3, 236892, Control_c, 0, 64, 0
3, 237014, Control_c, 0, 64, 127
3, 237120, Note_on_c, 0, 67, 0
3, 237120, Note_on_c, 0, 63, 24
3, 237360, Note_on_c, 0, 63, 0
3, 237360, Note_on_c, 0, 58, 24
3, 237600, Note_on_c, 0, 58, 0
3, 237600, Note_on_c, 0, 51, 29
3, 237609, Control_c, 0, 64, 0
3, 237707, Control_c, 0, 64, 127
3, 237840, Note_on_c, 0, 51, 0
3, 237840, Note_on_c, 0, 68, 26
3, 238337, Control_c, 0, 64, 0
3, 238480, Control_c, 0, 64, 127
3, 238560, Note_on_c, 0, 68, 0
3, 238560, Note_on_c, 0, 62, 24
3, 238800, Note_on_c, 0, 62, 0
3, 238800, Note_on_c, 0, 58, 24
3, 239040, Note_on_c, 0, 58, 0
3, 239040, Note_on_c, 0, 51, 29
3, 239050, Control_c, 0, 64, 0
3, 239153, Control_c, 0, 64, 127
3, 239280, Note_on_c, 0, 51, 0
3, 239280, Note_on_c, 0, 67, 26
3, 239758, Note_on_c, 0, 67, 0
3, 239774, Control_c, 0, 64, 0
3, 239845, Control_c, 0, 64, 127
3, 240000, Note_on_c, 0, 63, 24
3, 240240, Note_on_c, 0, 63, 0
3, 240240, Note_on_c, 0, 58, 24
3, 240480, Note_on_c, 0, 58, 0
3, 240480, Note_on_c, 0, 51, 29
3, 240489, Control_c, 0, 64, 0
3, 240573, Control_c, 0, 64, 127
3, 240720, Note_on_c, 0, 51, 0
3, 240720, Note_on_c, 0, 68, 26
3, 241198, Note_on_c, 0, 68, 0
3, 241217, Control_c, 0, 64, 0
3, 241360, Control_c, 0, 64, 127
3, 241440, Note_on_c, 0, 62, 24
3, 241680, Note_on_c, 0, 62, 0
3, 241680, Note_on_c, 0, 58, 24
3, 241920, Note_on_c, 0, 58, 0
3, 241920, Note_on_c, 0, 51, 29
3, 241930, Control_c, 0, 64, 0
3, 242019, Control_c, 0, 64, 127
3, 242160, Note_on_c, 0, 51, 0
3, 242160, Note_on_c, 0, 67, 26
3, 242654, Control_c, 0, 64, 0
3, 242725, Control_c, 0, 64, 127
3, 242880, Note_on_c, 0, 67, 0
3, 242880, Note_on_c, 0, 63, 24
3, 243120, Note_on_c, 0, 63, 0
3, 243120, Note_on_c, 0, 55, 24
3, 243360, Note_on_c, 0, 55, 0
3, 243360, Note_on_c, 0, 46, 29
3, 243370, Control_c, 0, 64, 0
3, 243453, Control_c, 0, 64, 127
3, 243600, Note_on_c, 0, 46, 0
3, 243600, Note_on_c, 0, 56, 26
3, 244091, Control_c, 0, 64, 0
3, 244200, Control_c, 0, 64, 127
3, 244320, Note_on_c, 0, 56, 0
3, 244320, Note_on_c, 0, 52, 24
3, 244560, Note_on_c, 0, 52, 0
3, 244560, Note_on_c, 0, 53, 24
3, 244800, Note_on_c, 0, 53, 0
3, 244800, Note_on_c, 0, 46, 29
3, 244810, Control_c, 0, 64, 0
3, 244974, Control_c, 0, 64, 127
3, 245040, Note_on_c, 0, 46, 0
3, 245040, Note_on_c, 0, 55, 26
3, 245534, Control_c, 0, 64, 0
3, 245654, Control_c, 0, 64, 127
3, 245760, Note_on_c, 0, 55, 0
3, 245760, Note_on_c, 0, 58, 24
3, 246000, Note_on_c, 0, 58, 0
3, 246000, Note_on_c, 0, 55, 24
3, 246240, Note_on_c, 0, 55, 0
3, 246240, Note_on_c, 0, 46, 29
3, 246250, Control_c, 0, 64, 0
3, 246296, Control_c, 0, 64, 127
3, 246480, Note_on_c, 0, 46, 0
3, 246480, Note_on_c, 0, 56, 26
3, 246974, Control_c, 0, 64, 0
3, 247045, Control_c, 0, 64, 127
3, 247200, Note_on_c, 0, 56, 0
3, 247200, Note_on_c, 0, 52, 24
3, 247440, Note_on_c, 0, 52, 0
3, 247440, Note_on_c, 0, 53, 24
3, 247680, Note_on_c, 0, 53, 0
3, 247680, Note_on_c, 0, 39, 27
3, 247680, Note_on_c, 0, 51, 32
3, 247691, Control_c, 0, 64, 0
3, 247840, Control_c, 0, 64, 127
3, 248400, Note_on_c, 0, 51, 0
3, 248400, Note_on_c, 0, 39, 0
3, 248640, Note_on_c, 0, 34, 25
3, 248640, Note_on_c, 0, 46, 30
3, 248654, Control_c, 0, 64, 0
3, 248754, Control_c, 0, 64, 127
3, 249120, Note_on_c, 0, 46, 0
3, 249120, Note_on_c, 0, 34, 0
3, 249120, Note_on_c, 0, 41, 27
3, 249120, Note_on_c, 0, 53, 33
3, 249132, Control_c, 0, 64, 0
3, 249257, Control_c, 0, 64, 127
3, 249840, Note_on_c, 0, 53, 0
3, 249840, Note_on_c, 0, 41, 0
3, 250080, Note_on_c, 0, 34, 25
3, 250080, Note_on_c, 0, 46, 30
3, 250094, Control_c, 0, 64, 0
3, 250206, Control_c, 0, 64, 127
3, 250560, Note_on_c, 0, 46, 0
3, 250560, Note_on_c, 0, 34, 0
3, 250560, Note_on_c, 0, 39, 25
3, 250560, Note_on_c, 0, 51, 30
3, 250568, Control_c, 0, 64, 0
3, 250697, Control_c, 0, 64, 127
3, 251280, Note_on_c, 0, 51, 0
3, 251280, Note_on_c, 0, 39, 0
3, 251520, Note_on_c, 0, 34, 25
3, 251520, Note_on_c, 0, 46, 30
3, 251531, Control_c, 0, 64, 0
3, 251611, Control_c, 0, 64, 127
3, 252000, Note_on_c, 0, 46, 0
3, 252000, Note_on_c, 0, 34, 0
3, 252000, Note_on_c, 0, 41, 25
3, 252000, Note_on_c, 0, 53, 30
3, 252011, Control_c, 0, 64, 0
3, 252137, Control_c, 0, 64, 127
3, 252720, Note_on_c, 0, 53, 0
3, 252720, Note_on_c, 0, 41, 0
3, 252960, Note_on_c, 0, 34, 25
3, 252960, Note_on_c, 0, 46, 30
3, 252971, Control_c, 0, 64, 0
3, 253097, Control_c, 0, 64, 127
3, 253440, Note_on_c, 0, 46, 0
3, 253440, Note_on_c, 0, 34, 0
3, 253440, Note_on_c, 0, 39, 25
3, 253440, Note_on_c, 0, 51, 30
3, 253454, Control_c, 0, 64, 0
3, 253577, Control_c, 0, 64, 127
3, 254160, Note_on_c, 0, 51, 0
3, 254160, Note_on_c, 0, 39, 0
3, 254400, Note_on_c, 0, 34, 23
3, 254400, Note_on_c, 0, 46, 28
3, 254416, Control_c, 0, 64, 0
3, 254537, Control_c, 0, 64, 127
3, 254880, Note_on_c, 0, 46, 0
3, 254880, Note_on_c, 0, 34, 0
3, 254880, Note_on_c, 0, 39, 23
3, 254880, Note_on_c, 0, 51, 27
3, 254889, Control_c, 0, 64, 0
3, 255017, Control_c, 0, 64, 127
3, 255600, Note_on_c, 0, 51, 0
3, 255600, Note_on_c, 0, 39, 0
3, 255840, Note_on_c, 0, 34, 19
3, 255840, Note_on_c, 0, 46, 24
3, 255854, Control_c, 0, 64, 0
3, 255989, Control_c, 0, 64, 127
3, 256320, Note_on_c, 0, 46, 0
3, 256320, Note_on_c, 0, 34, 0
3, 256320, Note_on_c, 0, 39, 20
3, 256320, Note_on_c, 0, 51, 25
3, 256336, Control_c, 0, 64, 0
3, 256507, Control_c, 0, 64, 127
3, 258480, Note_on_c, 0, 51, 0
3, 258480, Note_on_c, 0, 39, 0
3, 258480, Note_on_c, 0, 51, 25
3, 258480, Note_on_c, 0, 63, 30
3, 259200, Note_on_c, 0, 63, 0
3, 259200, Note_on_c, 0, 51, 0
3, 259200, Note_on_c, 0, 39, 25
3, 259200, Note_on_c, 0, 51, 30
3, 260640, Note_on_c, 0, 51, 0
3, 260640, Note_on_c, 0, 39, 0
3, 262014, Control_c, 0, 64, 0
3, 262014, End_track
4, 0, Start_track
4, 0, Title_t, "Albeniz :Suite espagnole Cuba"
4, 0, End_track
5, 0, Start_track
5, 0, Title_t, "Copyright © 2001 by Bernd Krüger"
5, 0, End_track
6, 0, Start_track
6, 0, Title_t, "http://www.piano-midi.de"
6, 0, End_track
7, 0, Start_track
7, 0, Title_t, "Edition:  2010-09-23"
7, 0, End_track
8, 0, Start_track
8, 0, Title_t, "Spur 7"
8, 0, End_track
9, 0, Start_track
9, 0, Title_t, "Spur 8"
9, 0, End_track
0, 0, End_of_file
