0, 0, Header, 1, 8, 480
1, 0, Start_track
1, 0, Title_t, "Espana Op. 165"
1, 0, Title_t, "Capricho Catalan"
1, 0, Copyright_t, "Copyright © 2001 by Bernd Krueger"
1, 0, Text_t, "Isaac Albeniz"
1, 0, Text_t, "Allegretto"
1, 0, Text_t, "Fertiggestellt am 17.02.2001\012"
1, 0, Text_t, "Normierung: 23.12.2002\012"
1, 0, Text_t, "Update am 31.8.2010\012"
1, 0, Text_t, "Dauer: 2:03 Minuten\012"
1, 0, SMPTE_offset, 96, 0, 3, 0, 0
1, 0, Time_signature, 2, 2, 24, 8
1, 0, Key_signature, -3, "major"
1, 0, Tempo, 514933
1, 2400, Tempo, 503778
1, 2640, Tempo, 524292
1, 2880, Tempo, 514977
1, 3360, Tempo, 499459
1, 3840, Tempo, 508216
1, 4320, Tempo, 519570
1, 5280, Tempo, 514977
1, 5760, Tempo, 499459
1, 6240, Tempo, 488878
1, 6480, Tempo, 499459
1, 6720, Tempo, 508216
1, 7680, Tempo, 497265
1, 8160, Tempo, 488878
1, 8400, Tempo, 519570
1, 9600, Tempo, 510421
1, 10080, Tempo, 501588
1, 10320, Tempo, 510421
1, 10560, Tempo, 501588
1, 11040, Tempo, 486815
1, 11520, Tempo, 490958
1, 12000, Tempo, 488878
1, 12240, Tempo, 512689
1, 13440, Tempo, 495131
1, 13680, Tempo, 508216
1, 14160, Tempo, 497265
1, 14360, Tempo, 501588
1, 14400, Tempo, 493056
1, 14520, Tempo, 495131
1, 14640, Tempo, 497265
1, 14760, Tempo, 499459
1, 14840, Tempo, 501588
1, 14960, Tempo, 503778
1, 15080, Tempo, 505945
1, 15200, Tempo, 508216
1, 15280, Tempo, 510421
1, 15320, Tempo, 512689
1, 15360, Tempo, 505945
1, 15600, Tempo, 512689
1, 15840, Tempo, 508216
1, 16080, Tempo, 514977
1, 16560, Tempo, 526685
1, 17040, Tempo, 551471
1, 17280, Tempo, 503778
1, 17400, Tempo, 512689
1, 17760, Tempo, 499459
1, 18000, Tempo, 517286
1, 18240, Tempo, 510421
1, 18720, Tempo, 499459
1, 19200, Tempo, 508216
1, 19680, Tempo, 519570
1, 20640, Tempo, 514977
1, 21120, Tempo, 499459
1, 21600, Tempo, 488878
1, 21840, Tempo, 499459
1, 22080, Tempo, 508216
1, 23040, Tempo, 497265
1, 23520, Tempo, 488878
1, 23760, Tempo, 519570
1, 24960, Tempo, 510421
1, 25440, Tempo, 486815
1, 25680, Tempo, 501588
1, 25920, Tempo, 501588
1, 26400, Tempo, 486815
1, 26880, Tempo, 490958
1, 27360, Tempo, 488878
1, 27600, Tempo, 512689
1, 28800, Tempo, 508216
1, 29040, Tempo, 497265
1, 29280, Tempo, 490958
1, 29760, Tempo, 484809
1, 30000, Tempo, 490958
1, 30240, Tempo, 488878
1, 30480, Tempo, 508216
1, 30960, Tempo, 517286
1, 31680, Tempo, 505945
1, 31920, Tempo, 529054
1, 32160, Tempo, 531491
1, 32640, Tempo, 514933
1, 32880, Tempo, 503778
1, 33120, Tempo, 488878
1, 33360, Tempo, 501588
1, 33600, Tempo, 508216
1, 34080, Tempo, 499459
1, 34560, Tempo, 508216
1, 35040, Tempo, 519570
1, 36000, Tempo, 514977
1, 36480, Tempo, 514933
1, 36720, Tempo, 503778
1, 36960, Tempo, 484809
1, 37200, Tempo, 493056
1, 37440, Tempo, 490958
1, 37920, Tempo, 499459
1, 38400, Tempo, 503778
1, 38640, Tempo, 508216
1, 38880, Tempo, 519570
1, 39360, Tempo, 505945
1, 39600, Tempo, 529054
1, 39840, Tempo, 519570
1, 40080, Tempo, 529054
1, 40320, Tempo, 499459
1, 40560, Tempo, 486815
1, 40770, Tempo, 495131
1, 41040, Tempo, 480769
1, 41280, Tempo, 495131
1, 41520, Tempo, 505945
1, 42000, Tempo, 512689
1, 42240, Tempo, 499459
1, 42480, Tempo, 486815
1, 42600, Tempo, 495131
1, 42720, Tempo, 495131
1, 42960, Tempo, 480769
1, 43200, Tempo, 495131
1, 43440, Tempo, 505945
1, 43920, Tempo, 512689
1, 44160, Tempo, 499459
1, 44640, Tempo, 488878
1, 44880, Tempo, 499459
1, 45120, Tempo, 508216
1, 46080, Tempo, 497265
1, 46560, Tempo, 488878
1, 46800, Tempo, 519570
1, 48000, Tempo, 493056
1, 48480, Tempo, 488878
1, 48720, Tempo, 499459
1, 48960, Tempo, 508216
1, 49920, Tempo, 497265
1, 50400, Tempo, 488878
1, 50640, Tempo, 519570
1, 51120, Tempo, 528634
1, 51840, Tempo, 499376
1, 52320, Tempo, 484966
1, 52560, Tempo, 505774
1, 52800, Tempo, 497265
1, 53280, Tempo, 490517
1, 53760, Tempo, 486973
1, 54000, Tempo, 497265
1, 54240, Tempo, 484966
1, 54480, Tempo, 501463
1, 55680, Tempo, 499376
1, 56160, Tempo, 484966
1, 56400, Tempo, 491803
1, 56640, Tempo, 485830
1, 57120, Tempo, 476190
1, 57600, Tempo, 481928
1, 58080, Tempo, 484966
1, 58320, Tempo, 502092
1, 58560, Tempo, 500000
1, 59520, Tempo, 514933
1, 59760, Tempo, 503778
1, 60000, Tempo, 484809
1, 60240, Tempo, 493056
1, 60480, Tempo, 490958
1, 60960, Tempo, 499459
1, 62160, Tempo, 506329
1, 62880, Tempo, 517241
1, 63360, Tempo, 508475
1, 63840, Tempo, 493827
1, 64080, Tempo, 510638
1, 64320, Tempo, 502092
1, 64800, Tempo, 508475
1, 65040, Tempo, 512821
1, 65280, Tempo, 517241
1, 65440, Tempo, 519481
1, 65560, Tempo, 521739
1, 65720, Tempo, 524017
1, 65840, Tempo, 526316
1, 65960, Tempo, 528634
1, 66000, Tempo, 571429
1, 67200, Tempo, 514933
1, 67680, Tempo, 503778
1, 67920, Tempo, 524292
1, 68160, Tempo, 514977
1, 68640, Tempo, 499459
1, 69120, Tempo, 508216
1, 69600, Tempo, 519570
1, 70560, Tempo, 514977
1, 71040, Tempo, 499459
1, 71520, Tempo, 488878
1, 71760, Tempo, 499459
1, 72000, Tempo, 508216
1, 72960, Tempo, 497265
1, 73440, Tempo, 488878
1, 73680, Tempo, 519570
1, 74880, Tempo, 510421
1, 75360, Tempo, 501588
1, 75600, Tempo, 510421
1, 75840, Tempo, 501588
1, 76320, Tempo, 486815
1, 76800, Tempo, 490958
1, 77280, Tempo, 488878
1, 77520, Tempo, 512689
1, 78720, Tempo, 495131
1, 78960, Tempo, 508216
1, 79440, Tempo, 497265
1, 79640, Tempo, 501588
1, 79680, Tempo, 493056
1, 79800, Tempo, 495131
1, 79920, Tempo, 497265
1, 80040, Tempo, 499459
1, 80120, Tempo, 501588
1, 80240, Tempo, 503778
1, 80360, Tempo, 505945
1, 80480, Tempo, 508216
1, 80560, Tempo, 510421
1, 80600, Tempo, 512689
1, 80640, Tempo, 505945
1, 80880, Tempo, 512689
1, 81120, Tempo, 508216
1, 81360, Tempo, 514977
1, 81840, Tempo, 526685
1, 82320, Tempo, 551471
1, 82560, Tempo, 503778
1, 82680, Tempo, 512689
1, 83040, Tempo, 499459
1, 83280, Tempo, 517286
1, 83520, Tempo, 510421
1, 84000, Tempo, 499459
1, 84480, Tempo, 508216
1, 84960, Tempo, 519570
1, 85920, Tempo, 514977
1, 86400, Tempo, 499459
1, 86880, Tempo, 488878
1, 87120, Tempo, 499459
1, 87360, Tempo, 508216
1, 88320, Tempo, 497265
1, 88800, Tempo, 488878
1, 89040, Tempo, 519570
1, 90240, Tempo, 497925
1, 90480, Tempo, 506329
1, 90960, Tempo, 495868
1, 91200, Tempo, 487805
1, 91440, Tempo, 491803
1, 91680, Tempo, 502092
1, 92160, Tempo, 489796
1, 92640, Tempo, 497925
1, 93120, Tempo, 508475
1, 93360, Tempo, 519481
1, 94080, Tempo, 514933
1, 94560, Tempo, 503778
1, 94800, Tempo, 524292
1, 95040, Tempo, 514977
1, 95520, Tempo, 499459
1, 96000, Tempo, 514933
1, 96480, Tempo, 503778
1, 96720, Tempo, 524292
1, 96960, Tempo, 514977
1, 97440, Tempo, 499459
1, 97920, Tempo, 487805
1, 98400, Tempo, 491803
1, 98640, Tempo, 497925
1, 98880, Tempo, 515021
1, 99840, Tempo, 514933
1, 102240, Tempo, 503778
1, 102480, Tempo, 524292
1, 102720, Tempo, 514977
1, 103200, Tempo, 521739
1, 103680, Tempo, 530973
1, 104160, Tempo, 547945
1, 105120, Tempo, 514977
1, 105600, Tempo, 524017
1, 107480, Tempo, 526316
1, 107520, Time_signature, 4, 2, 24, 8
1, 107640, Tempo, 528634
1, 107800, Tempo, 530973
1, 107920, Tempo, 533333
1, 108080, Tempo, 535714
1, 108200, Tempo, 538117
1, 108360, Tempo, 540541
1, 108480, Tempo, 542986
1, 110400, Tempo, 606061
1, 113280, Tempo, 600000
1, 113280, End_track
2, 0, Start_track
2, 0, Title_t, "Piano right"
2, 0, Program_c, 0, 0
2, 0, Control_c, 0, 7, 100
2, 0, Control_c, 0, 10, 64
2, 0, Text_t, "bdca426d104a26ac9dcb070447587523"
2, 0, Control_c, 0, 91, 127
2, 1920, Note_on_c, 0, 75, 52
2, 1920, Note_on_c, 0, 79, 52
2, 2640, Note_on_c, 0, 79, 0
2, 2640, Note_on_c, 0, 75, 0
2, 2640, Note_on_c, 0, 77, 50
2, 2640, Note_on_c, 0, 74, 50
2, 2880, Note_on_c, 0, 74, 0
2, 2880, Note_on_c, 0, 77, 0
2, 2880, Note_on_c, 0, 80, 52
2, 2880, Note_on_c, 0, 77, 52
2, 3360, Note_on_c, 0, 77, 0
2, 3360, Note_on_c, 0, 80, 0
2, 3360, Note_on_c, 0, 77, 52
2, 3360, Note_on_c, 0, 74, 52
2, 3600, Note_on_c, 0, 74, 0
2, 3600, Note_on_c, 0, 77, 0
2, 3600, Note_on_c, 0, 75, 50
2, 3600, Note_on_c, 0, 79, 50
2, 3840, Note_on_c, 0, 79, 0
2, 3840, Note_on_c, 0, 75, 0
2, 3840, Note_on_c, 0, 72, 52
2, 3840, Note_on_c, 0, 75, 52
2, 4320, Note_on_c, 0, 75, 0
2, 4320, Note_on_c, 0, 72, 0
2, 4320, Note_on_c, 0, 72, 49
2, 4320, Note_on_c, 0, 68, 49
2, 4800, Note_on_c, 0, 68, 0
2, 4800, Note_on_c, 0, 72, 0
2, 4800, Note_on_c, 0, 67, 47
2, 4800, Note_on_c, 0, 70, 47
2, 5760, Note_on_c, 0, 70, 0
2, 5760, Note_on_c, 0, 67, 0
2, 5760, Note_on_c, 0, 72, 51
2, 5760, Note_on_c, 0, 68, 51
2, 6240, Note_on_c, 0, 72, 0
2, 6240, Note_on_c, 0, 74, 56
2, 6480, Note_on_c, 0, 74, 0
2, 6480, Note_on_c, 0, 77, 55
2, 6720, Note_on_c, 0, 77, 0
2, 6720, Note_on_c, 0, 68, 0
2, 6720, Note_on_c, 0, 68, 55
2, 6720, Note_on_c, 0, 74, 55
2, 7200, Note_on_c, 0, 74, 0
2, 7200, Note_on_c, 0, 70, 51
2, 7680, Note_on_c, 0, 70, 0
2, 7680, Note_on_c, 0, 68, 0
2, 7680, Note_on_c, 0, 67, 51
2, 7680, Note_on_c, 0, 72, 51
2, 7920, Note_on_c, 0, 72, 0
2, 7920, Note_on_c, 0, 74, 49
2, 8160, Note_on_c, 0, 74, 0
2, 8160, Note_on_c, 0, 79, 52
2, 8400, Note_on_c, 0, 79, 0
2, 8400, Note_on_c, 0, 72, 50
2, 8640, Note_on_c, 0, 72, 0
2, 8640, Note_on_c, 0, 67, 0
2, 8640, Note_on_c, 0, 67, 47
2, 8640, Note_on_c, 0, 70, 47
2, 9600, Note_on_c, 0, 70, 0
2, 9600, Note_on_c, 0, 67, 0
2, 9600, Note_on_c, 0, 74, 64
2, 9600, Note_on_c, 0, 70, 64
2, 10320, Note_on_c, 0, 70, 0
2, 10320, Note_on_c, 0, 74, 0
2, 10320, Note_on_c, 0, 70, 55
2, 10320, Note_on_c, 0, 67, 55
2, 10560, Note_on_c, 0, 67, 0
2, 10560, Note_on_c, 0, 70, 0
2, 10560, Note_on_c, 0, 72, 51
2, 10560, Note_on_c, 0, 69, 60
2, 11040, Note_on_c, 0, 72, 0
2, 11040, Note_on_c, 0, 78, 65
2, 11280, Note_on_c, 0, 78, 0
2, 11280, Note_on_c, 0, 81, 60
2, 11520, Note_on_c, 0, 81, 0
2, 11520, Note_on_c, 0, 69, 0
2, 11520, Note_on_c, 0, 70, 57
2, 11520, Note_on_c, 0, 79, 64
2, 11760, Note_on_c, 0, 79, 0
2, 11760, Note_on_c, 0, 74, 56
2, 12000, Note_on_c, 0, 74, 0
2, 12000, Note_on_c, 0, 70, 0
2, 12000, Note_on_c, 0, 72, 58
2, 12000, Note_on_c, 0, 69, 51
2, 12240, Note_on_c, 0, 72, 0
2, 12240, Note_on_c, 0, 74, 53
2, 12480, Note_on_c, 0, 74, 0
2, 12480, Note_on_c, 0, 69, 0
2, 12480, Note_on_c, 0, 67, 47
2, 12480, Note_on_c, 0, 70, 47
2, 13440, Note_on_c, 0, 70, 0
2, 13440, Note_on_c, 0, 67, 0
2, 13440, Note_on_c, 0, 70, 51
2, 13440, Note_on_c, 0, 77, 60
2, 14160, Note_on_c, 0, 77, 0
2, 14160, Note_on_c, 0, 70, 0
2, 14160, Note_on_c, 0, 79, 58
2, 14160, Note_on_c, 0, 69, 49
2, 14400, Note_on_c, 0, 79, 0
2, 14400, Note_on_c, 0, 75, 57
2, 14640, Note_on_c, 0, 75, 0
2, 14640, Note_on_c, 0, 77, 60
2, 14880, Note_on_c, 0, 77, 0
2, 14880, Note_on_c, 0, 79, 64
2, 15120, Note_on_c, 0, 79, 0
2, 15120, Note_on_c, 0, 81, 61
2, 15360, Note_on_c, 0, 81, 0
2, 15360, Note_on_c, 0, 69, 0
2, 15360, Note_on_c, 0, 70, 58
2, 15360, Note_on_c, 0, 77, 69
2, 15600, Note_on_c, 0, 77, 0
2, 15600, Note_on_c, 0, 70, 0
2, 15600, Note_on_c, 0, 68, 48
2, 15600, Note_on_c, 0, 74, 57
2, 15840, Note_on_c, 0, 74, 0
2, 15840, Note_on_c, 0, 68, 0
2, 15840, Note_on_c, 0, 75, 61
2, 15840, Note_on_c, 0, 69, 52
2, 16080, Note_on_c, 0, 69, 0
2, 16080, Note_on_c, 0, 75, 0
2, 16080, Note_on_c, 0, 65, 46
2, 16080, Note_on_c, 0, 73, 54
2, 16320, Note_on_c, 0, 73, 0
2, 16320, Note_on_c, 0, 74, 59
2, 16560, Note_on_c, 0, 74, 0
2, 16560, Note_on_c, 0, 72, 52
2, 16560, Note_on_c, 0, 68, 38
2, 16800, Note_on_c, 0, 72, 0
2, 16800, Note_on_c, 0, 71, 46
2, 17040, Note_on_c, 0, 71, 0
2, 17040, Note_on_c, 0, 68, 0
2, 17040, Note_on_c, 0, 70, 43
2, 17280, Note_on_c, 0, 70, 0
2, 17280, Note_on_c, 0, 65, 0
2, 17280, Note_on_c, 0, 75, 52
2, 17280, Note_on_c, 0, 79, 52
2, 18000, Note_on_c, 0, 79, 0
2, 18000, Note_on_c, 0, 75, 0
2, 18000, Note_on_c, 0, 74, 50
2, 18000, Note_on_c, 0, 77, 50
2, 18240, Note_on_c, 0, 77, 0
2, 18240, Note_on_c, 0, 74, 0
2, 18240, Note_on_c, 0, 80, 52
2, 18240, Note_on_c, 0, 77, 52
2, 18720, Note_on_c, 0, 77, 0
2, 18720, Note_on_c, 0, 80, 0
2, 18720, Note_on_c, 0, 77, 52
2, 18720, Note_on_c, 0, 74, 52
2, 18960, Note_on_c, 0, 74, 0
2, 18960, Note_on_c, 0, 77, 0
2, 18960, Note_on_c, 0, 75, 50
2, 18960, Note_on_c, 0, 79, 50
2, 19200, Note_on_c, 0, 79, 0
2, 19200, Note_on_c, 0, 75, 0
2, 19200, Note_on_c, 0, 75, 52
2, 19200, Note_on_c, 0, 72, 52
2, 19680, Note_on_c, 0, 72, 0
2, 19680, Note_on_c, 0, 75, 0
2, 19680, Note_on_c, 0, 68, 49
2, 19680, Note_on_c, 0, 72, 49
2, 20160, Note_on_c, 0, 72, 0
2, 20160, Note_on_c, 0, 68, 0
2, 20160, Note_on_c, 0, 67, 47
2, 20160, Note_on_c, 0, 70, 47
2, 21120, Note_on_c, 0, 70, 0
2, 21120, Note_on_c, 0, 67, 0
2, 21120, Note_on_c, 0, 72, 51
2, 21120, Note_on_c, 0, 68, 51
2, 21600, Note_on_c, 0, 72, 0
2, 21600, Note_on_c, 0, 74, 56
2, 21840, Note_on_c, 0, 74, 0
2, 21840, Note_on_c, 0, 77, 55
2, 22080, Note_on_c, 0, 77, 0
2, 22080, Note_on_c, 0, 68, 0
2, 22080, Note_on_c, 0, 68, 55
2, 22080, Note_on_c, 0, 74, 55
2, 22560, Note_on_c, 0, 74, 0
2, 22560, Note_on_c, 0, 70, 51
2, 23040, Note_on_c, 0, 70, 0
2, 23040, Note_on_c, 0, 68, 0
2, 23040, Note_on_c, 0, 72, 51
2, 23040, Note_on_c, 0, 67, 51
2, 23280, Note_on_c, 0, 72, 0
2, 23280, Note_on_c, 0, 74, 49
2, 23520, Note_on_c, 0, 74, 0
2, 23520, Note_on_c, 0, 79, 52
2, 23760, Note_on_c, 0, 79, 0
2, 23760, Note_on_c, 0, 72, 50
2, 24000, Note_on_c, 0, 72, 0
2, 24000, Note_on_c, 0, 67, 0
2, 24000, Note_on_c, 0, 70, 47
2, 24000, Note_on_c, 0, 67, 47
2, 24960, Note_on_c, 0, 67, 0
2, 24960, Note_on_c, 0, 70, 0
2, 24960, Note_on_c, 0, 74, 64
2, 24960, Note_on_c, 0, 70, 64
2, 25680, Note_on_c, 0, 70, 0
2, 25680, Note_on_c, 0, 74, 0
2, 25680, Note_on_c, 0, 70, 55
2, 25680, Note_on_c, 0, 67, 55
2, 25920, Note_on_c, 0, 67, 0
2, 25920, Note_on_c, 0, 70, 0
2, 25920, Note_on_c, 0, 72, 51
2, 25920, Note_on_c, 0, 69, 60
2, 26400, Note_on_c, 0, 72, 0
2, 26400, Note_on_c, 0, 78, 65
2, 26640, Note_on_c, 0, 78, 0
2, 26640, Note_on_c, 0, 81, 60
2, 26880, Note_on_c, 0, 81, 0
2, 26880, Note_on_c, 0, 69, 0
2, 26880, Note_on_c, 0, 79, 64
2, 26880, Note_on_c, 0, 70, 57
2, 27120, Note_on_c, 0, 79, 0
2, 27120, Note_on_c, 0, 74, 56
2, 27360, Note_on_c, 0, 74, 0
2, 27360, Note_on_c, 0, 70, 0
2, 27360, Note_on_c, 0, 69, 51
2, 27360, Note_on_c, 0, 72, 58
2, 27600, Note_on_c, 0, 72, 0
2, 27600, Note_on_c, 0, 74, 53
2, 27840, Note_on_c, 0, 74, 0
2, 27840, Note_on_c, 0, 69, 0
2, 27840, Note_on_c, 0, 67, 47
2, 27840, Note_on_c, 0, 70, 47
2, 28800, Note_on_c, 0, 70, 0
2, 28800, Note_on_c, 0, 67, 0
2, 28800, Note_on_c, 0, 65, 52
2, 28800, Note_on_c, 0, 70, 58
2, 29280, Note_on_c, 0, 70, 0
2, 29280, Note_on_c, 0, 65, 0
2, 29280, Note_on_c, 0, 72, 57
2, 29280, Note_on_c, 0, 66, 51
2, 29520, Note_on_c, 0, 66, 0
2, 29520, Note_on_c, 0, 72, 0
2, 29520, Note_on_c, 0, 70, 55
2, 29520, Note_on_c, 0, 75, 55
2, 29760, Note_on_c, 0, 75, 0
2, 29760, Note_on_c, 0, 70, 0
2, 29760, Note_on_c, 0, 72, 60
2, 29760, Note_on_c, 0, 66, 54
2, 30000, Note_on_c, 0, 66, 0
2, 30000, Note_on_c, 0, 72, 0
2, 30000, Note_on_c, 0, 70, 47
2, 30000, Note_on_c, 0, 75, 53
2, 30240, Note_on_c, 0, 75, 0
2, 30240, Note_on_c, 0, 70, 0
2, 30240, Note_on_c, 0, 78, 60
2, 30240, Note_on_c, 0, 72, 54
2, 30480, Note_on_c, 0, 72, 0
2, 30480, Note_on_c, 0, 78, 0
2, 30480, Note_on_c, 0, 75, 54
2, 30480, Note_on_c, 0, 70, 48
2, 30720, Note_on_c, 0, 70, 0
2, 30720, Note_on_c, 0, 75, 0
2, 30720, Note_on_c, 0, 69, 54
2, 30720, Note_on_c, 0, 74, 54
2, 31200, Note_on_c, 0, 74, 0
2, 31200, Note_on_c, 0, 72, 53
2, 31440, Note_on_c, 0, 72, 0
2, 31440, Note_on_c, 0, 74, 49
2, 31680, Note_on_c, 0, 74, 0
2, 31680, Note_on_c, 0, 69, 0
2, 31680, Note_on_c, 0, 70, 47
2, 31680, Note_on_c, 0, 65, 47
2, 32640, Note_on_c, 0, 65, 0
2, 32640, Note_on_c, 0, 70, 0
2, 32640, Note_on_c, 0, 77, 52
2, 32640, Note_on_c, 0, 74, 52
2, 33360, Note_on_c, 0, 74, 0
2, 33360, Note_on_c, 0, 77, 0
2, 33360, Note_on_c, 0, 72, 50
2, 33360, Note_on_c, 0, 68, 50
2, 33600, Note_on_c, 0, 68, 0
2, 33600, Note_on_c, 0, 72, 0
2, 33600, Note_on_c, 0, 75, 52
2, 33600, Note_on_c, 0, 72, 52
2, 34080, Note_on_c, 0, 72, 0
2, 34080, Note_on_c, 0, 75, 0
2, 34080, Note_on_c, 0, 70, 52
2, 34080, Note_on_c, 0, 74, 52
2, 34320, Note_on_c, 0, 74, 0
2, 34320, Note_on_c, 0, 70, 0
2, 34320, Note_on_c, 0, 70, 50
2, 34320, Note_on_c, 0, 67, 50
2, 34560, Note_on_c, 0, 67, 0
2, 34560, Note_on_c, 0, 70, 0
2, 34560, Note_on_c, 0, 70, 52
2, 34560, Note_on_c, 0, 74, 52
2, 35040, Note_on_c, 0, 74, 0
2, 35040, Note_on_c, 0, 70, 0
2, 35040, Note_on_c, 0, 72, 49
2, 35040, Note_on_c, 0, 68, 49
2, 35520, Note_on_c, 0, 68, 0
2, 35520, Note_on_c, 0, 72, 0
2, 35520, Note_on_c, 0, 65, 47
2, 35520, Note_on_c, 0, 68, 47
2, 36480, Note_on_c, 0, 68, 0
2, 36480, Note_on_c, 0, 65, 0
2, 36480, Note_on_c, 0, 80, 72
2, 36480, Note_on_c, 0, 77, 72
2, 37200, Note_on_c, 0, 77, 0
2, 37200, Note_on_c, 0, 80, 0
2, 37200, Note_on_c, 0, 79, 57
2, 37200, Note_on_c, 0, 76, 57
2, 37440, Note_on_c, 0, 76, 0
2, 37440, Note_on_c, 0, 79, 0
2, 37440, Note_on_c, 0, 76, 63
2, 37440, Note_on_c, 0, 73, 63
2, 37680, Note_on_c, 0, 73, 0
2, 37680, Note_on_c, 0, 76, 0
2, 37680, Note_on_c, 0, 79, 56
2, 37680, Note_on_c, 0, 76, 56
2, 37920, Note_on_c, 0, 76, 0
2, 37920, Note_on_c, 0, 79, 0
2, 37920, Note_on_c, 0, 74, 61
2, 37920, Note_on_c, 0, 77, 61
2, 38160, Note_on_c, 0, 77, 0
2, 38160, Note_on_c, 0, 74, 0
2, 38160, Note_on_c, 0, 71, 56
2, 38160, Note_on_c, 0, 74, 56
2, 38400, Note_on_c, 0, 74, 0
2, 38400, Note_on_c, 0, 71, 0
2, 38400, Note_on_c, 0, 77, 60
2, 38400, Note_on_c, 0, 74, 60
2, 38640, Note_on_c, 0, 74, 0
2, 38640, Note_on_c, 0, 77, 0
2, 38640, Note_on_c, 0, 75, 53
2, 38640, Note_on_c, 0, 72, 53
2, 38880, Note_on_c, 0, 72, 0
2, 38880, Note_on_c, 0, 75, 0
2, 38880, Note_on_c, 0, 68, 53
2, 38880, Note_on_c, 0, 72, 53
2, 39120, Note_on_c, 0, 72, 0
2, 39120, Note_on_c, 0, 68, 0
2, 39120, Note_on_c, 0, 68, 50
2, 39120, Note_on_c, 0, 65, 50
2, 39360, Note_on_c, 0, 65, 0
2, 39360, Note_on_c, 0, 68, 0
2, 39360, Note_on_c, 0, 62, 48
2, 39360, Note_on_c, 0, 65, 48
2, 40320, Note_on_c, 0, 65, 0
2, 40320, Note_on_c, 0, 62, 0
2, 40320, Note_on_c, 0, 69, 51
2, 40320, Note_on_c, 0, 78, 57
2, 40560, Note_on_c, 0, 69, 0
2, 40560, Note_on_c, 0, 70, 47
2, 40800, Note_on_c, 0, 70, 0
2, 40800, Note_on_c, 0, 71, 52
2, 41040, Note_on_c, 0, 71, 0
2, 41040, Note_on_c, 0, 78, 0
2, 41040, Note_on_c, 0, 72, 40
2, 41040, Note_on_c, 0, 80, 52
2, 41280, Note_on_c, 0, 80, 0
2, 41280, Note_on_c, 0, 78, 60
2, 41360, Note_on_c, 0, 78, 0
2, 41360, Note_on_c, 0, 80, 49
2, 41440, Note_on_c, 0, 80, 0
2, 41440, Note_on_c, 0, 78, 49
2, 41520, Note_on_c, 0, 78, 0
2, 41520, Note_on_c, 0, 77, 55
2, 41760, Note_on_c, 0, 77, 0
2, 41760, Note_on_c, 0, 76, 56
2, 42000, Note_on_c, 0, 76, 0
2, 42000, Note_on_c, 0, 77, 49
2, 42240, Note_on_c, 0, 77, 0
2, 42240, Note_on_c, 0, 72, 0
2, 42240, Note_on_c, 0, 73, 57
2, 42240, Note_on_c, 0, 64, 51
2, 42480, Note_on_c, 0, 64, 0
2, 42480, Note_on_c, 0, 65, 47
2, 42660, Note_on_c, 0, 65, 0
2, 42660, Note_on_c, 0, 68, 46
2, 42720, Note_on_c, 0, 68, 0
2, 42720, Note_on_c, 0, 66, 52
2, 42960, Note_on_c, 0, 66, 0
2, 42960, Note_on_c, 0, 73, 0
2, 42960, Note_on_c, 0, 73, 52
2, 42960, Note_on_c, 0, 65, 40
2, 43200, Note_on_c, 0, 65, 0
2, 43200, Note_on_c, 0, 73, 0
2, 43200, Note_on_c, 0, 64, 39
2, 43200, Note_on_c, 0, 70, 40
2, 43200, Note_on_c, 0, 73, 60
2, 43440, Note_on_c, 0, 73, 0
2, 43440, Note_on_c, 0, 72, 55
2, 43680, Note_on_c, 0, 72, 0
2, 43680, Note_on_c, 0, 71, 56
2, 43920, Note_on_c, 0, 71, 0
2, 43920, Note_on_c, 0, 72, 49
2, 44160, Note_on_c, 0, 72, 0
2, 44160, Note_on_c, 0, 70, 0
2, 44160, Note_on_c, 0, 64, 0
2, 44160, Note_on_c, 0, 68, 51
2, 44160, Note_on_c, 0, 72, 51
2, 44640, Note_on_c, 0, 72, 0
2, 44640, Note_on_c, 0, 68, 0
2, 44640, Note_on_c, 0, 73, 56
2, 44640, Note_on_c, 0, 70, 56
2, 44880, Note_on_c, 0, 70, 0
2, 44880, Note_on_c, 0, 73, 0
2, 44880, Note_on_c, 0, 73, 52
2, 44880, Note_on_c, 0, 77, 52
2, 45120, Note_on_c, 0, 77, 0
2, 45120, Note_on_c, 0, 73, 0
2, 45120, Note_on_c, 0, 73, 55
2, 45120, Note_on_c, 0, 70, 55
2, 45600, Note_on_c, 0, 70, 0
2, 45600, Note_on_c, 0, 73, 0
2, 45600, Note_on_c, 0, 67, 51
2, 45600, Note_on_c, 0, 70, 51
2, 46080, Note_on_c, 0, 70, 0
2, 46080, Note_on_c, 0, 67, 0
2, 46080, Note_on_c, 0, 67, 51
2, 46080, Note_on_c, 0, 64, 51
2, 46320, Note_on_c, 0, 64, 0
2, 46320, Note_on_c, 0, 67, 0
2, 46320, Note_on_c, 0, 68, 52
2, 46320, Note_on_c, 0, 65, 52
2, 46560, Note_on_c, 0, 65, 0
2, 46560, Note_on_c, 0, 68, 0
2, 46560, Note_on_c, 0, 67, 57
2, 46560, Note_on_c, 0, 70, 57
2, 46800, Note_on_c, 0, 70, 0
2, 46800, Note_on_c, 0, 67, 0
2, 46800, Note_on_c, 0, 70, 52
2, 46800, Note_on_c, 0, 73, 52
2, 47040, Note_on_c, 0, 73, 0
2, 47040, Note_on_c, 0, 70, 0
2, 47040, Note_on_c, 0, 72, 47
2, 47040, Note_on_c, 0, 68, 47
2, 48000, Note_on_c, 0, 68, 0
2, 48000, Note_on_c, 0, 72, 0
2, 48000, Note_on_c, 0, 68, 69
2, 48000, Note_on_c, 0, 72, 69
2, 48480, Note_on_c, 0, 72, 0
2, 48480, Note_on_c, 0, 68, 0
2, 48480, Note_on_c, 0, 75, 65
2, 48480, Note_on_c, 0, 72, 65
2, 48720, Note_on_c, 0, 72, 0
2, 48720, Note_on_c, 0, 75, 0
2, 48720, Note_on_c, 0, 77, 59
2, 48720, Note_on_c, 0, 80, 59
2, 48960, Note_on_c, 0, 80, 0
2, 48960, Note_on_c, 0, 77, 0
2, 48960, Note_on_c, 0, 73, 63
2, 48960, Note_on_c, 0, 77, 63
2, 49440, Note_on_c, 0, 77, 0
2, 49440, Note_on_c, 0, 73, 0
2, 49440, Note_on_c, 0, 73, 60
2, 49440, Note_on_c, 0, 70, 60
2, 49920, Note_on_c, 0, 70, 0
2, 49920, Note_on_c, 0, 73, 0
2, 49920, Note_on_c, 0, 67, 65
2, 49920, Note_on_c, 0, 70, 65
2, 50160, Note_on_c, 0, 70, 0
2, 50160, Note_on_c, 0, 67, 0
2, 50160, Note_on_c, 0, 72, 60
2, 50160, Note_on_c, 0, 68, 60
2, 50400, Note_on_c, 0, 68, 0
2, 50400, Note_on_c, 0, 72, 0
2, 50400, Note_on_c, 0, 70, 70
2, 50400, Note_on_c, 0, 73, 70
2, 50640, Note_on_c, 0, 73, 0
2, 50640, Note_on_c, 0, 70, 0
2, 50640, Note_on_c, 0, 73, 59
2, 50640, Note_on_c, 0, 76, 59
2, 50880, Note_on_c, 0, 76, 0
2, 50880, Note_on_c, 0, 73, 0
2, 50880, Note_on_c, 0, 75, 53
2, 50880, Note_on_c, 0, 72, 53
2, 51840, Note_on_c, 0, 72, 0
2, 51840, Note_on_c, 0, 75, 0
2, 51840, Note_on_c, 0, 68, 39
2, 51840, Note_on_c, 0, 72, 39
2, 51840, Note_on_c, 0, 75, 47
2, 52080, Note_on_c, 0, 75, 0
2, 52080, Note_on_c, 0, 72, 0
2, 52080, Note_on_c, 0, 68, 0
2, 52080, Note_on_c, 0, 72, 35
2, 52080, Note_on_c, 0, 68, 35
2, 52080, Note_on_c, 0, 75, 42
2, 52560, Note_on_c, 0, 75, 0
2, 52560, Note_on_c, 0, 68, 0
2, 52560, Note_on_c, 0, 72, 0
2, 52560, Note_on_c, 0, 68, 31
2, 52560, Note_on_c, 0, 75, 37
2, 52560, Note_on_c, 0, 72, 31
2, 52800, Note_on_c, 0, 72, 0
2, 52800, Note_on_c, 0, 75, 0
2, 52800, Note_on_c, 0, 68, 0
2, 52800, Note_on_c, 0, 68, 39
2, 52800, Note_on_c, 0, 75, 47
2, 52800, Note_on_c, 0, 72, 39
2, 53040, Note_on_c, 0, 72, 0
2, 53040, Note_on_c, 0, 75, 0
2, 53040, Note_on_c, 0, 68, 0
2, 53040, Note_on_c, 0, 75, 42
2, 53040, Note_on_c, 0, 72, 35
2, 53040, Note_on_c, 0, 68, 35
2, 53520, Note_on_c, 0, 68, 0
2, 53520, Note_on_c, 0, 72, 0
2, 53520, Note_on_c, 0, 75, 0
2, 53520, Note_on_c, 0, 72, 31
2, 53520, Note_on_c, 0, 68, 31
2, 53520, Note_on_c, 0, 75, 37
2, 53760, Note_on_c, 0, 75, 0
2, 53760, Note_on_c, 0, 68, 0
2, 53760, Note_on_c, 0, 72, 0
2, 54000, Note_on_c, 0, 68, 35
2, 54000, Note_on_c, 0, 75, 43
2, 54000, Note_on_c, 0, 72, 35
2, 54240, Note_on_c, 0, 72, 0
2, 54240, Note_on_c, 0, 75, 0
2, 54240, Note_on_c, 0, 68, 0
2, 54480, Note_on_c, 0, 68, 36
2, 54480, Note_on_c, 0, 72, 36
2, 54480, Note_on_c, 0, 75, 44
2, 54720, Note_on_c, 0, 75, 0
2, 54720, Note_on_c, 0, 72, 0
2, 54720, Note_on_c, 0, 68, 0
2, 54960, Note_on_c, 0, 72, 36
2, 54960, Note_on_c, 0, 75, 44
2, 54960, Note_on_c, 0, 68, 36
2, 55200, Note_on_c, 0, 68, 0
2, 55200, Note_on_c, 0, 75, 0
2, 55200, Note_on_c, 0, 72, 0
2, 55440, Note_on_c, 0, 68, 34
2, 55440, Note_on_c, 0, 72, 34
2, 55440, Note_on_c, 0, 75, 40
2, 55680, Note_on_c, 0, 75, 0
2, 55680, Note_on_c, 0, 72, 0
2, 55680, Note_on_c, 0, 68, 0
2, 55680, Note_on_c, 0, 72, 35
2, 55680, Note_on_c, 0, 68, 35
2, 55680, Note_on_c, 0, 75, 42
2, 55920, Note_on_c, 0, 75, 0
2, 55920, Note_on_c, 0, 68, 0
2, 55920, Note_on_c, 0, 72, 0
2, 55920, Note_on_c, 0, 68, 35
2, 55920, Note_on_c, 0, 75, 42
2, 55920, Note_on_c, 0, 72, 35
2, 56400, Note_on_c, 0, 72, 0
2, 56400, Note_on_c, 0, 75, 0
2, 56400, Note_on_c, 0, 68, 0
2, 56400, Note_on_c, 0, 68, 31
2, 56400, Note_on_c, 0, 72, 31
2, 56400, Note_on_c, 0, 75, 37
2, 56640, Note_on_c, 0, 75, 0
2, 56640, Note_on_c, 0, 72, 0
2, 56640, Note_on_c, 0, 68, 0
2, 56640, Note_on_c, 0, 72, 39
2, 56640, Note_on_c, 0, 75, 47
2, 56640, Note_on_c, 0, 68, 39
2, 56880, Note_on_c, 0, 68, 0
2, 56880, Note_on_c, 0, 75, 0
2, 56880, Note_on_c, 0, 72, 0
2, 56880, Note_on_c, 0, 68, 35
2, 56880, Note_on_c, 0, 72, 35
2, 56880, Note_on_c, 0, 75, 42
2, 57360, Note_on_c, 0, 75, 0
2, 57360, Note_on_c, 0, 72, 0
2, 57360, Note_on_c, 0, 68, 0
2, 57360, Note_on_c, 0, 72, 31
2, 57360, Note_on_c, 0, 68, 31
2, 57360, Note_on_c, 0, 75, 37
2, 57600, Note_on_c, 0, 75, 0
2, 57600, Note_on_c, 0, 68, 0
2, 57600, Note_on_c, 0, 72, 0
2, 57840, Note_on_c, 0, 68, 35
2, 57840, Note_on_c, 0, 75, 43
2, 57840, Note_on_c, 0, 72, 35
2, 58078, Note_on_c, 0, 68, 0
2, 58080, Note_on_c, 0, 72, 0
2, 58080, Note_on_c, 0, 75, 0
2, 58320, Note_on_c, 0, 68, 36
2, 58320, Note_on_c, 0, 75, 44
2, 58320, Note_on_c, 0, 72, 36
2, 58560, Note_on_c, 0, 72, 0
2, 58560, Note_on_c, 0, 75, 0
2, 58560, Note_on_c, 0, 68, 0
2, 58800, Note_on_c, 0, 72, 36
2, 58800, Note_on_c, 0, 75, 44
2, 58800, Note_on_c, 0, 68, 36
2, 59040, Note_on_c, 0, 68, 0
2, 59040, Note_on_c, 0, 75, 0
2, 59040, Note_on_c, 0, 72, 0
2, 59280, Note_on_c, 0, 68, 34
2, 59280, Note_on_c, 0, 72, 34
2, 59280, Note_on_c, 0, 75, 40
2, 59520, Note_on_c, 0, 75, 0
2, 59520, Note_on_c, 0, 72, 0
2, 59520, Note_on_c, 0, 68, 0
2, 59520, Note_on_c, 0, 80, 72
2, 59520, Note_on_c, 0, 84, 72
2, 60240, Note_on_c, 0, 84, 0
2, 60240, Note_on_c, 0, 80, 0
2, 60240, Note_on_c, 0, 76, 57
2, 60240, Note_on_c, 0, 79, 57
2, 60480, Note_on_c, 0, 79, 0
2, 60480, Note_on_c, 0, 76, 0
2, 60480, Note_on_c, 0, 82, 63
2, 60480, Note_on_c, 0, 79, 63
2, 60960, Note_on_c, 0, 79, 0
2, 60960, Note_on_c, 0, 82, 0
2, 60960, Note_on_c, 0, 80, 61
2, 60960, Note_on_c, 0, 77, 61
2, 61200, Note_on_c, 0, 77, 0
2, 61200, Note_on_c, 0, 80, 0
2, 61200, Note_on_c, 0, 74, 56
2, 61200, Note_on_c, 0, 77, 56
2, 61440, Note_on_c, 0, 77, 0
2, 61440, Note_on_c, 0, 74, 0
2, 61440, Note_on_c, 0, 74, 63
2, 61440, Note_on_c, 0, 70, 63
2, 61920, Note_on_c, 0, 70, 0
2, 61920, Note_on_c, 0, 74, 0
2, 61920, Note_on_c, 0, 67, 54
2, 61920, Note_on_c, 0, 70, 54
2, 62400, Note_on_c, 0, 70, 0
2, 62400, Note_on_c, 0, 67, 0
2, 62400, Note_on_c, 0, 64, 56
2, 62400, Note_on_c, 0, 67, 56
2, 62880, Note_on_c, 0, 67, 0
2, 62880, Note_on_c, 0, 64, 0
2, 62880, Note_on_c, 0, 68, 52
2, 62880, Note_on_c, 0, 65, 52
2, 63360, Note_on_c, 0, 65, 0
2, 63360, Note_on_c, 0, 68, 0
2, 63360, Note_on_c, 0, 66, 50
2, 63360, Note_on_c, 0, 71, 56
2, 64080, Note_on_c, 0, 71, 0
2, 64080, Note_on_c, 0, 73, 51
2, 64320, Note_on_c, 0, 73, 0
2, 64320, Note_on_c, 0, 66, 0
2, 64320, Note_on_c, 0, 71, 54
2, 64320, Note_on_c, 0, 64, 46
2, 64560, Note_on_c, 0, 64, 0
2, 64560, Note_on_c, 0, 71, 0
2, 64560, Note_on_c, 0, 76, 55
2, 64800, Note_on_c, 0, 76, 0
2, 64800, Note_on_c, 0, 78, 57
2, 65040, Note_on_c, 0, 78, 0
2, 65040, Note_on_c, 0, 80, 59
2, 65280, Note_on_c, 0, 80, 0
2, 65280, Note_on_c, 0, 83, 59
2, 65520, Note_on_c, 0, 83, 0
2, 65520, Note_on_c, 0, 80, 57
2, 65760, Note_on_c, 0, 80, 0
2, 65760, Note_on_c, 0, 78, 55
2, 66000, Note_on_c, 0, 78, 0
2, 66000, Note_on_c, 0, 76, 53
2, 66240, Note_on_c, 0, 76, 0
2, 66240, Note_on_c, 0, 75, 51
2, 66240, Note_on_c, 0, 68, 42
2, 66720, Note_on_c, 0, 75, 0
2, 66720, Note_on_c, 0, 74, 50
2, 67200, Note_on_c, 0, 74, 0
2, 67200, Note_on_c, 0, 68, 0
2, 67200, Note_on_c, 0, 79, 52
2, 67200, Note_on_c, 0, 75, 52
2, 67920, Note_on_c, 0, 75, 0
2, 67920, Note_on_c, 0, 79, 0
2, 67920, Note_on_c, 0, 74, 50
2, 67920, Note_on_c, 0, 77, 50
2, 68160, Note_on_c, 0, 77, 0
2, 68160, Note_on_c, 0, 74, 0
2, 68160, Note_on_c, 0, 80, 52
2, 68160, Note_on_c, 0, 77, 52
2, 68640, Note_on_c, 0, 77, 0
2, 68640, Note_on_c, 0, 80, 0
2, 68640, Note_on_c, 0, 74, 52
2, 68640, Note_on_c, 0, 77, 52
2, 68880, Note_on_c, 0, 77, 0
2, 68880, Note_on_c, 0, 74, 0
2, 68880, Note_on_c, 0, 75, 50
2, 68880, Note_on_c, 0, 79, 50
2, 69120, Note_on_c, 0, 79, 0
2, 69120, Note_on_c, 0, 75, 0
2, 69120, Note_on_c, 0, 72, 52
2, 69120, Note_on_c, 0, 75, 52
2, 69600, Note_on_c, 0, 75, 0
2, 69600, Note_on_c, 0, 72, 0
2, 69600, Note_on_c, 0, 68, 49
2, 69600, Note_on_c, 0, 72, 49
2, 70080, Note_on_c, 0, 72, 0
2, 70080, Note_on_c, 0, 68, 0
2, 70080, Note_on_c, 0, 67, 47
2, 70080, Note_on_c, 0, 70, 47
2, 71040, Note_on_c, 0, 70, 0
2, 71040, Note_on_c, 0, 67, 0
2, 71040, Note_on_c, 0, 68, 51
2, 71040, Note_on_c, 0, 72, 51
2, 71520, Note_on_c, 0, 72, 0
2, 71520, Note_on_c, 0, 74, 56
2, 71760, Note_on_c, 0, 74, 0
2, 71760, Note_on_c, 0, 77, 55
2, 72000, Note_on_c, 0, 77, 0
2, 72000, Note_on_c, 0, 68, 0
2, 72000, Note_on_c, 0, 68, 55
2, 72000, Note_on_c, 0, 74, 55
2, 72480, Note_on_c, 0, 74, 0
2, 72480, Note_on_c, 0, 70, 51
2, 72960, Note_on_c, 0, 70, 0
2, 72960, Note_on_c, 0, 68, 0
2, 72960, Note_on_c, 0, 67, 51
2, 72960, Note_on_c, 0, 72, 51
2, 73200, Note_on_c, 0, 72, 0
2, 73200, Note_on_c, 0, 74, 49
2, 73440, Note_on_c, 0, 74, 0
2, 73440, Note_on_c, 0, 79, 52
2, 73680, Note_on_c, 0, 79, 0
2, 73680, Note_on_c, 0, 72, 50
2, 73920, Note_on_c, 0, 72, 0
2, 73920, Note_on_c, 0, 67, 0
2, 73920, Note_on_c, 0, 67, 47
2, 73920, Note_on_c, 0, 70, 47
2, 74880, Note_on_c, 0, 70, 0
2, 74880, Note_on_c, 0, 67, 0
2, 74880, Note_on_c, 0, 74, 64
2, 74880, Note_on_c, 0, 70, 64
2, 75600, Note_on_c, 0, 70, 0
2, 75600, Note_on_c, 0, 74, 0
2, 75600, Note_on_c, 0, 67, 55
2, 75600, Note_on_c, 0, 70, 55
2, 75840, Note_on_c, 0, 70, 0
2, 75840, Note_on_c, 0, 67, 0
2, 75840, Note_on_c, 0, 72, 51
2, 75840, Note_on_c, 0, 69, 60
2, 76320, Note_on_c, 0, 72, 0
2, 76320, Note_on_c, 0, 78, 65
2, 76560, Note_on_c, 0, 78, 0
2, 76560, Note_on_c, 0, 81, 60
2, 76800, Note_on_c, 0, 81, 0
2, 76800, Note_on_c, 0, 69, 0
2, 76800, Note_on_c, 0, 70, 57
2, 76800, Note_on_c, 0, 79, 64
2, 77040, Note_on_c, 0, 79, 0
2, 77040, Note_on_c, 0, 74, 56
2, 77280, Note_on_c, 0, 74, 0
2, 77280, Note_on_c, 0, 70, 0
2, 77280, Note_on_c, 0, 69, 51
2, 77280, Note_on_c, 0, 72, 58
2, 77520, Note_on_c, 0, 72, 0
2, 77520, Note_on_c, 0, 74, 53
2, 77760, Note_on_c, 0, 74, 0
2, 77760, Note_on_c, 0, 69, 0
2, 77760, Note_on_c, 0, 67, 47
2, 77760, Note_on_c, 0, 70, 47
2, 78720, Note_on_c, 0, 70, 0
2, 78720, Note_on_c, 0, 67, 0
2, 78720, Note_on_c, 0, 70, 51
2, 78720, Note_on_c, 0, 77, 60
2, 79440, Note_on_c, 0, 77, 0
2, 79440, Note_on_c, 0, 70, 0
2, 79440, Note_on_c, 0, 69, 49
2, 79440, Note_on_c, 0, 79, 58
2, 79680, Note_on_c, 0, 79, 0
2, 79680, Note_on_c, 0, 75, 57
2, 79920, Note_on_c, 0, 75, 0
2, 79920, Note_on_c, 0, 77, 60
2, 80160, Note_on_c, 0, 77, 0
2, 80160, Note_on_c, 0, 79, 64
2, 80400, Note_on_c, 0, 79, 0
2, 80400, Note_on_c, 0, 81, 61
2, 80640, Note_on_c, 0, 81, 0
2, 80640, Note_on_c, 0, 69, 0
2, 80640, Note_on_c, 0, 70, 58
2, 80640, Note_on_c, 0, 77, 69
2, 80880, Note_on_c, 0, 77, 0
2, 80880, Note_on_c, 0, 70, 0
2, 80880, Note_on_c, 0, 68, 48
2, 80880, Note_on_c, 0, 74, 57
2, 81120, Note_on_c, 0, 74, 0
2, 81120, Note_on_c, 0, 68, 0
2, 81120, Note_on_c, 0, 69, 52
2, 81120, Note_on_c, 0, 75, 61
2, 81360, Note_on_c, 0, 75, 0
2, 81360, Note_on_c, 0, 69, 0
2, 81360, Note_on_c, 0, 65, 46
2, 81360, Note_on_c, 0, 73, 54
2, 81600, Note_on_c, 0, 73, 0
2, 81600, Note_on_c, 0, 74, 59
2, 81840, Note_on_c, 0, 74, 0
2, 81840, Note_on_c, 0, 68, 38
2, 81840, Note_on_c, 0, 72, 52
2, 82080, Note_on_c, 0, 72, 0
2, 82080, Note_on_c, 0, 71, 46
2, 82320, Note_on_c, 0, 71, 0
2, 82320, Note_on_c, 0, 68, 0
2, 82320, Note_on_c, 0, 70, 43
2, 82560, Note_on_c, 0, 70, 0
2, 82560, Note_on_c, 0, 65, 0
2, 82560, Note_on_c, 0, 79, 52
2, 82560, Note_on_c, 0, 75, 52
2, 83280, Note_on_c, 0, 75, 0
2, 83280, Note_on_c, 0, 79, 0
2, 83280, Note_on_c, 0, 74, 50
2, 83280, Note_on_c, 0, 77, 50
2, 83520, Note_on_c, 0, 77, 0
2, 83520, Note_on_c, 0, 74, 0
2, 83520, Note_on_c, 0, 80, 52
2, 83520, Note_on_c, 0, 77, 52
2, 84000, Note_on_c, 0, 77, 0
2, 84000, Note_on_c, 0, 80, 0
2, 84000, Note_on_c, 0, 74, 52
2, 84000, Note_on_c, 0, 77, 52
2, 84240, Note_on_c, 0, 77, 0
2, 84240, Note_on_c, 0, 74, 0
2, 84240, Note_on_c, 0, 75, 50
2, 84240, Note_on_c, 0, 79, 50
2, 84480, Note_on_c, 0, 79, 0
2, 84480, Note_on_c, 0, 75, 0
2, 84480, Note_on_c, 0, 72, 52
2, 84480, Note_on_c, 0, 75, 52
2, 84960, Note_on_c, 0, 75, 0
2, 84960, Note_on_c, 0, 72, 0
2, 84960, Note_on_c, 0, 68, 49
2, 84960, Note_on_c, 0, 72, 49
2, 85440, Note_on_c, 0, 72, 0
2, 85440, Note_on_c, 0, 68, 0
2, 85440, Note_on_c, 0, 67, 47
2, 85440, Note_on_c, 0, 70, 47
2, 86400, Note_on_c, 0, 70, 0
2, 86400, Note_on_c, 0, 67, 0
2, 86400, Note_on_c, 0, 68, 51
2, 86400, Note_on_c, 0, 72, 51
2, 86880, Note_on_c, 0, 72, 0
2, 86880, Note_on_c, 0, 74, 56
2, 87120, Note_on_c, 0, 74, 0
2, 87120, Note_on_c, 0, 77, 55
2, 87360, Note_on_c, 0, 77, 0
2, 87360, Note_on_c, 0, 68, 0
2, 87360, Note_on_c, 0, 68, 55
2, 87360, Note_on_c, 0, 74, 55
2, 87840, Note_on_c, 0, 74, 0
2, 87840, Note_on_c, 0, 70, 51
2, 88320, Note_on_c, 0, 70, 0
2, 88320, Note_on_c, 0, 68, 0
2, 88320, Note_on_c, 0, 67, 51
2, 88320, Note_on_c, 0, 72, 51
2, 88560, Note_on_c, 0, 72, 0
2, 88560, Note_on_c, 0, 74, 49
2, 88800, Note_on_c, 0, 74, 0
2, 88800, Note_on_c, 0, 79, 52
2, 89040, Note_on_c, 0, 79, 0
2, 89040, Note_on_c, 0, 72, 50
2, 89280, Note_on_c, 0, 72, 0
2, 89280, Note_on_c, 0, 67, 0
2, 89280, Note_on_c, 0, 67, 47
2, 89280, Note_on_c, 0, 70, 47
2, 90240, Note_on_c, 0, 70, 0
2, 90240, Note_on_c, 0, 67, 0
2, 90240, Note_on_c, 0, 67, 47
2, 90240, Note_on_c, 0, 73, 55
2, 90960, Note_on_c, 0, 73, 0
2, 90960, Note_on_c, 0, 67, 0
2, 90960, Note_on_c, 0, 67, 45
2, 90960, Note_on_c, 0, 72, 53
2, 91200, Note_on_c, 0, 72, 0
2, 91200, Note_on_c, 0, 67, 0
2, 91200, Note_on_c, 0, 67, 47
2, 91200, Note_on_c, 0, 72, 56
2, 91920, Note_on_c, 0, 72, 0
2, 91920, Note_on_c, 0, 70, 52
2, 92160, Note_on_c, 0, 70, 0
2, 92160, Note_on_c, 0, 67, 0
2, 92160, Note_on_c, 0, 63, 45
2, 92160, Note_on_c, 0, 67, 53
2, 92400, Note_on_c, 0, 67, 0
2, 92400, Note_on_c, 0, 68, 55
2, 92640, Note_on_c, 0, 68, 0
2, 92640, Note_on_c, 0, 63, 0
2, 92640, Note_on_c, 0, 71, 56
2, 92880, Note_on_c, 0, 71, 0
2, 92880, Note_on_c, 0, 72, 57
2, 93120, Note_on_c, 0, 72, 0
2, 93120, Note_on_c, 0, 74, 59
2, 93360, Note_on_c, 0, 74, 0
2, 93360, Note_on_c, 0, 75, 56
2, 93600, Note_on_c, 0, 75, 0
2, 93600, Note_on_c, 0, 72, 47
2, 93600, Note_on_c, 0, 75, 47
2, 93600, Note_on_c, 0, 80, 61
2, 93840, Note_on_c, 0, 80, 0
2, 93840, Note_on_c, 0, 75, 0
2, 93840, Note_on_c, 0, 72, 0
2, 93840, Note_on_c, 0, 63, 38
2, 93840, Note_on_c, 0, 68, 38
2, 93840, Note_on_c, 0, 72, 55
2, 94080, Note_on_c, 0, 72, 0
2, 94080, Note_on_c, 0, 68, 0
2, 94080, Note_on_c, 0, 63, 0
2, 94080, Note_on_c, 0, 63, 44
2, 94080, Note_on_c, 0, 72, 52
2, 94080, Note_on_c, 0, 68, 44
2, 94800, Note_on_c, 0, 68, 0
2, 94800, Note_on_c, 0, 72, 0
2, 94800, Note_on_c, 0, 63, 0
2, 94800, Note_on_c, 0, 65, 42
2, 94800, Note_on_c, 0, 68, 42
2, 94800, Note_on_c, 0, 74, 50
2, 95040, Note_on_c, 0, 74, 0
2, 95040, Note_on_c, 0, 68, 0
2, 95040, Note_on_c, 0, 65, 0
2, 95040, Note_on_c, 0, 63, 44
2, 95040, Note_on_c, 0, 72, 52
2, 95040, Note_on_c, 0, 68, 44
2, 95520, Note_on_c, 0, 68, 0
2, 95520, Note_on_c, 0, 72, 0
2, 95520, Note_on_c, 0, 63, 0
2, 95520, Note_on_c, 0, 62, 40
2, 95520, Note_on_c, 0, 68, 40
2, 95520, Note_on_c, 0, 70, 49
2, 96000, Note_on_c, 0, 70, 0
2, 96000, Note_on_c, 0, 68, 0
2, 96000, Note_on_c, 0, 62, 0
2, 96000, Note_on_c, 0, 67, 52
2, 96000, Note_on_c, 0, 63, 44
2, 96720, Note_on_c, 0, 63, 0
2, 96720, Note_on_c, 0, 67, 0
2, 96720, Note_on_c, 0, 63, 42
2, 96720, Note_on_c, 0, 70, 50
2, 96960, Note_on_c, 0, 70, 0
2, 96960, Note_on_c, 0, 63, 0
2, 96960, Note_on_c, 0, 63, 44
2, 96960, Note_on_c, 0, 68, 52
2, 97440, Note_on_c, 0, 68, 0
2, 97440, Note_on_c, 0, 63, 0
2, 97440, Note_on_c, 0, 63, 40
2, 97440, Note_on_c, 0, 67, 49
2, 97920, Note_on_c, 0, 67, 0
2, 97920, Note_on_c, 0, 63, 0
2, 97920, Note_on_c, 0, 60, 47
2, 97920, Note_on_c, 0, 65, 47
2, 98160, Note_on_c, 0, 65, 0
2, 98160, Note_on_c, 0, 60, 0
2, 98160, Note_on_c, 0, 63, 38
2, 98160, Note_on_c, 0, 68, 38
2, 98400, Note_on_c, 0, 68, 0
2, 98400, Note_on_c, 0, 63, 0
2, 98400, Note_on_c, 0, 60, 46
2, 98400, Note_on_c, 0, 65, 46
2, 98640, Note_on_c, 0, 65, 0
2, 98640, Note_on_c, 0, 60, 0
2, 98640, Note_on_c, 0, 62, 37
2, 98640, Note_on_c, 0, 67, 37
2, 98880, Note_on_c, 0, 67, 0
2, 98880, Note_on_c, 0, 62, 0
2, 98880, Note_on_c, 0, 60, 42
2, 98880, Note_on_c, 0, 65, 42
2, 99360, Note_on_c, 0, 65, 0
2, 99360, Note_on_c, 0, 60, 0
2, 99360, Note_on_c, 0, 62, 37
2, 99360, Note_on_c, 0, 67, 37
2, 99360, Note_on_c, 0, 70, 37
2, 99840, Note_on_c, 0, 70, 0
2, 99840, Note_on_c, 0, 67, 0
2, 99840, Note_on_c, 0, 62, 0
2, 101760, Note_on_c, 0, 79, 42
2, 101760, Note_on_c, 0, 75, 42
2, 102480, Note_on_c, 0, 75, 0
2, 102480, Note_on_c, 0, 79, 0
2, 102480, Note_on_c, 0, 74, 38
2, 102480, Note_on_c, 0, 77, 38
2, 102720, Note_on_c, 0, 77, 0
2, 102720, Note_on_c, 0, 74, 0
2, 102720, Note_on_c, 0, 80, 39
2, 102720, Note_on_c, 0, 77, 39
2, 103200, Note_on_c, 0, 77, 0
2, 103200, Note_on_c, 0, 80, 0
2, 103200, Note_on_c, 0, 74, 38
2, 103200, Note_on_c, 0, 77, 38
2, 103440, Note_on_c, 0, 77, 0
2, 103440, Note_on_c, 0, 74, 0
2, 103440, Note_on_c, 0, 75, 35
2, 103440, Note_on_c, 0, 79, 35
2, 103680, Note_on_c, 0, 79, 0
2, 103680, Note_on_c, 0, 75, 0
2, 103680, Note_on_c, 0, 72, 35
2, 103680, Note_on_c, 0, 75, 35
2, 104160, Note_on_c, 0, 75, 0
2, 104160, Note_on_c, 0, 72, 0
2, 104160, Note_on_c, 0, 68, 31
2, 104160, Note_on_c, 0, 72, 31
2, 104640, Note_on_c, 0, 72, 0
2, 104640, Note_on_c, 0, 68, 0
2, 104640, Note_on_c, 0, 67, 29
2, 104640, Note_on_c, 0, 70, 29
2, 105600, Note_on_c, 0, 70, 0
2, 105600, Note_on_c, 0, 67, 0
2, 105600, Note_on_c, 0, 54, 25
2, 105600, Note_on_c, 0, 57, 25
2, 105600, Note_on_c, 0, 63, 29
2, 107520, Note_on_c, 0, 63, 0
2, 107520, Note_on_c, 0, 57, 0
2, 107520, Note_on_c, 0, 54, 0
2, 107520, Note_on_c, 0, 87, 39
2, 107520, Note_on_c, 0, 79, 39
2, 108960, Note_on_c, 0, 79, 0
2, 108960, Note_on_c, 0, 87, 0
2, 108960, Note_on_c, 0, 89, 34
2, 109040, Note_on_c, 0, 89, 0
2, 109040, Note_on_c, 0, 91, 33
2, 109120, Note_on_c, 0, 91, 0
2, 109120, Note_on_c, 0, 89, 33
2, 109200, Note_on_c, 0, 89, 0
2, 109200, Note_on_c, 0, 87, 32
2, 109280, Note_on_c, 0, 87, 0
2, 109280, Note_on_c, 0, 84, 31
2, 109360, Note_on_c, 0, 84, 0
2, 109360, Note_on_c, 0, 82, 31
2, 109440, Note_on_c, 0, 82, 0
2, 109440, Note_on_c, 0, 79, 35
2, 110400, Note_on_c, 0, 79, 0
2, 110400, Note_on_c, 0, 71, 34
2, 110400, Note_on_c, 0, 77, 34
2, 110400, Note_on_c, 0, 75, 34
2, 111360, Note_on_c, 0, 75, 0
2, 111360, Note_on_c, 0, 77, 0
2, 111360, Note_on_c, 0, 71, 0
2, 111360, Note_on_c, 0, 99, 37
2, 111360, Note_on_c, 0, 94, 31
2, 111360, Note_on_c, 0, 91, 31
2, 111360, Note_on_c, 0, 87, 31
2, 113280, Note_on_c, 0, 87, 0
2, 113280, Note_on_c, 0, 99, 0
2, 113280, Note_on_c, 0, 94, 0
2, 113280, Note_on_c, 0, 91, 0
2, 113280, End_track
3, 0, Start_track
3, 0, Title_t, "Piano left"
3, 0, Program_c, 0, 0
3, 0, Control_c, 0, 7, 100
3, 0, Control_c, 0, 10, 64
3, 0, Control_c, 0, 64, 127
3, 0, Note_on_c, 0, 58, 38
3, 0, Note_on_c, 0, 51, 32
3, 240, Note_on_c, 0, 58, 0
3, 240, Note_on_c, 0, 58, 35
3, 720, Note_on_c, 0, 58, 0
3, 720, Note_on_c, 0, 58, 33
3, 960, Note_on_c, 0, 58, 0
3, 960, Note_on_c, 0, 51, 0
3, 960, Note_on_c, 0, 58, 37
3, 960, Note_on_c, 0, 51, 32
3, 1200, Note_on_c, 0, 58, 0
3, 1200, Note_on_c, 0, 58, 35
3, 1680, Note_on_c, 0, 58, 0
3, 1680, Note_on_c, 0, 58, 34
3, 1920, Note_on_c, 0, 58, 0
3, 1920, Note_on_c, 0, 51, 0
3, 1920, Note_on_c, 0, 58, 38
3, 1920, Note_on_c, 0, 51, 32
3, 1929, Control_c, 0, 64, 0
3, 2090, Control_c, 0, 64, 127
3, 2160, Note_on_c, 0, 58, 0
3, 2160, Note_on_c, 0, 58, 35
3, 2640, Note_on_c, 0, 58, 0
3, 2640, Note_on_c, 0, 58, 33
3, 2880, Note_on_c, 0, 58, 0
3, 2880, Note_on_c, 0, 51, 0
3, 2880, Note_on_c, 0, 58, 37
3, 2880, Note_on_c, 0, 51, 32
3, 3120, Note_on_c, 0, 58, 0
3, 3120, Note_on_c, 0, 58, 35
3, 3600, Note_on_c, 0, 58, 0
3, 3600, Note_on_c, 0, 58, 34
3, 3840, Note_on_c, 0, 58, 0
3, 3840, Note_on_c, 0, 51, 0
3, 3840, Note_on_c, 0, 58, 38
3, 3840, Note_on_c, 0, 51, 32
3, 3856, Control_c, 0, 64, 0
3, 4010, Control_c, 0, 64, 127
3, 4080, Note_on_c, 0, 58, 0
3, 4080, Note_on_c, 0, 58, 35
3, 4560, Note_on_c, 0, 58, 0
3, 4560, Note_on_c, 0, 58, 33
3, 4800, Note_on_c, 0, 58, 0
3, 4800, Note_on_c, 0, 51, 0
3, 4800, Note_on_c, 0, 58, 37
3, 4800, Note_on_c, 0, 51, 32
3, 4813, Control_c, 0, 64, 0
3, 4970, Control_c, 0, 64, 127
3, 5040, Note_on_c, 0, 58, 0
3, 5040, Note_on_c, 0, 58, 35
3, 5520, Note_on_c, 0, 58, 0
3, 5520, Note_on_c, 0, 58, 34
3, 5760, Note_on_c, 0, 58, 0
3, 5760, Note_on_c, 0, 51, 0
3, 5760, Note_on_c, 0, 65, 37
3, 5760, Note_on_c, 0, 51, 32
3, 5772, Control_c, 0, 64, 0
3, 5916, Control_c, 0, 64, 127
3, 6000, Note_on_c, 0, 58, 35
3, 6480, Note_on_c, 0, 58, 0
3, 6480, Note_on_c, 0, 58, 34
3, 6720, Note_on_c, 0, 58, 0
3, 6720, Note_on_c, 0, 51, 0
3, 6720, Note_on_c, 0, 65, 0
3, 6720, Note_on_c, 0, 65, 37
3, 6720, Note_on_c, 0, 51, 32
3, 6730, Control_c, 0, 64, 0
3, 6904, Control_c, 0, 64, 127
3, 6960, Note_on_c, 0, 58, 35
3, 7440, Note_on_c, 0, 58, 0
3, 7440, Note_on_c, 0, 58, 34
3, 7680, Note_on_c, 0, 58, 0
3, 7680, Note_on_c, 0, 51, 0
3, 7680, Note_on_c, 0, 65, 0
3, 7680, Note_on_c, 0, 58, 37
3, 7680, Note_on_c, 0, 51, 32
3, 7697, Control_c, 0, 64, 0
3, 7906, Control_c, 0, 64, 127
3, 7920, Note_on_c, 0, 58, 0
3, 7920, Note_on_c, 0, 58, 35
3, 8400, Note_on_c, 0, 58, 0
3, 8400, Note_on_c, 0, 58, 34
3, 8640, Note_on_c, 0, 58, 0
3, 8640, Note_on_c, 0, 51, 0
3, 8640, Note_on_c, 0, 51, 32
3, 8640, Note_on_c, 0, 58, 37
3, 8650, Control_c, 0, 64, 0
3, 8853, Control_c, 0, 64, 127
3, 8880, Note_on_c, 0, 58, 0
3, 8880, Note_on_c, 0, 58, 35
3, 9360, Note_on_c, 0, 58, 0
3, 9360, Note_on_c, 0, 58, 34
3, 9600, Note_on_c, 0, 58, 0
3, 9600, Note_on_c, 0, 51, 0
3, 9600, Note_on_c, 0, 62, 42
3, 9600, Note_on_c, 0, 55, 35
3, 9611, Control_c, 0, 64, 0
3, 9699, Control_c, 0, 64, 127
3, 9840, Note_on_c, 0, 62, 0
3, 9840, Note_on_c, 0, 62, 38
3, 10320, Note_on_c, 0, 62, 0
3, 10320, Note_on_c, 0, 62, 36
3, 10560, Note_on_c, 0, 62, 0
3, 10560, Note_on_c, 0, 55, 0
3, 10560, Note_on_c, 0, 63, 40
3, 10560, Note_on_c, 0, 55, 35
3, 10572, Control_c, 0, 64, 0
3, 10697, Control_c, 0, 64, 127
3, 10800, Note_on_c, 0, 63, 0
3, 10800, Note_on_c, 0, 63, 38
3, 11280, Note_on_c, 0, 63, 0
3, 11280, Note_on_c, 0, 63, 37
3, 11520, Note_on_c, 0, 63, 0
3, 11520, Note_on_c, 0, 55, 0
3, 11520, Note_on_c, 0, 62, 43
3, 11520, Note_on_c, 0, 55, 38
3, 11537, Control_c, 0, 64, 0
3, 11746, Control_c, 0, 64, 127
3, 11760, Note_on_c, 0, 62, 0
3, 11760, Note_on_c, 0, 62, 37
3, 12000, Note_on_c, 0, 62, 0
3, 12000, Note_on_c, 0, 55, 0
3, 12000, Note_on_c, 0, 55, 35
3, 12000, Note_on_c, 0, 63, 39
3, 12240, Note_on_c, 0, 63, 0
3, 12240, Note_on_c, 0, 63, 35
3, 12480, Note_on_c, 0, 63, 0
3, 12480, Note_on_c, 0, 55, 0
3, 12480, Note_on_c, 0, 55, 31
3, 12480, Note_on_c, 0, 62, 36
3, 12492, Control_c, 0, 64, 0
3, 12693, Control_c, 0, 64, 127
3, 12720, Note_on_c, 0, 62, 0
3, 12720, Note_on_c, 0, 62, 34
3, 13200, Note_on_c, 0, 62, 0
3, 13200, Note_on_c, 0, 62, 33
3, 13440, Note_on_c, 0, 62, 0
3, 13440, Note_on_c, 0, 55, 0
3, 13440, Note_on_c, 0, 53, 42
3, 13440, Note_on_c, 0, 62, 60
3, 13452, Control_c, 0, 64, 0
3, 13566, Control_c, 0, 64, 127
3, 13680, Note_on_c, 0, 53, 0
3, 13680, Note_on_c, 0, 53, 42
3, 14160, Note_on_c, 0, 62, 0
3, 14160, Note_on_c, 0, 63, 47
3, 14400, Note_on_c, 0, 63, 0
3, 14400, Note_on_c, 0, 60, 48
3, 14411, Control_c, 0, 64, 0
3, 14526, Control_c, 0, 64, 127
3, 14640, Note_on_c, 0, 60, 0
3, 14640, Note_on_c, 0, 62, 49
3, 14880, Note_on_c, 0, 62, 0
3, 14880, Note_on_c, 0, 63, 50
3, 15120, Note_on_c, 0, 63, 0
3, 15120, Note_on_c, 0, 65, 50
3, 15360, Note_on_c, 0, 65, 0
3, 15360, Note_on_c, 0, 53, 0
3, 15360, Note_on_c, 0, 62, 56
3, 15373, Control_c, 0, 64, 0
3, 15486, Control_c, 0, 64, 127
3, 15600, Note_on_c, 0, 62, 0
3, 15600, Note_on_c, 0, 59, 49
3, 15840, Note_on_c, 0, 59, 0
3, 15840, Note_on_c, 0, 60, 52
3, 15850, Control_c, 0, 64, 0
3, 15943, Control_c, 0, 64, 127
3, 16080, Note_on_c, 0, 60, 0
3, 16080, Note_on_c, 0, 57, 48
3, 16320, Note_on_c, 0, 57, 0
3, 16320, Note_on_c, 0, 58, 51
3, 16336, Control_c, 0, 64, 0
3, 16435, Control_c, 0, 64, 127
3, 16560, Note_on_c, 0, 63, 39
3, 16800, Note_on_c, 0, 63, 0
3, 16800, Note_on_c, 0, 62, 36
3, 17280, Note_on_c, 0, 62, 0
3, 17280, Note_on_c, 0, 58, 0
3, 17280, Note_on_c, 0, 58, 38
3, 17280, Note_on_c, 0, 51, 32
3, 17293, Control_c, 0, 64, 0
3, 17450, Control_c, 0, 64, 127
3, 17520, Note_on_c, 0, 58, 0
3, 17520, Note_on_c, 0, 58, 35
3, 18000, Note_on_c, 0, 58, 0
3, 18000, Note_on_c, 0, 58, 33
3, 18240, Note_on_c, 0, 58, 0
3, 18240, Note_on_c, 0, 51, 0
3, 18240, Note_on_c, 0, 58, 37
3, 18240, Note_on_c, 0, 51, 32
3, 18480, Note_on_c, 0, 58, 0
3, 18480, Note_on_c, 0, 58, 35
3, 18960, Note_on_c, 0, 58, 0
3, 18960, Note_on_c, 0, 58, 34
3, 19200, Note_on_c, 0, 58, 0
3, 19200, Note_on_c, 0, 51, 0
3, 19200, Note_on_c, 0, 58, 38
3, 19200, Note_on_c, 0, 51, 32
3, 19211, Control_c, 0, 64, 0
3, 19384, Control_c, 0, 64, 127
3, 19440, Note_on_c, 0, 58, 0
3, 19440, Note_on_c, 0, 58, 35
3, 19920, Note_on_c, 0, 58, 0
3, 19920, Note_on_c, 0, 58, 33
3, 20160, Note_on_c, 0, 58, 0
3, 20160, Note_on_c, 0, 51, 0
3, 20160, Note_on_c, 0, 58, 37
3, 20160, Note_on_c, 0, 51, 32
3, 20170, Control_c, 0, 64, 0
3, 20301, Control_c, 0, 64, 127
3, 20400, Note_on_c, 0, 58, 0
3, 20400, Note_on_c, 0, 58, 35
3, 20880, Note_on_c, 0, 58, 0
3, 20880, Note_on_c, 0, 58, 34
3, 21120, Note_on_c, 0, 58, 0
3, 21120, Note_on_c, 0, 51, 0
3, 21120, Note_on_c, 0, 65, 37
3, 21120, Note_on_c, 0, 51, 32
3, 21132, Control_c, 0, 64, 0
3, 21332, Control_c, 0, 64, 127
3, 21360, Note_on_c, 0, 58, 35
3, 21840, Note_on_c, 0, 58, 0
3, 21840, Note_on_c, 0, 58, 34
3, 22080, Note_on_c, 0, 58, 0
3, 22080, Note_on_c, 0, 51, 0
3, 22080, Note_on_c, 0, 65, 0
3, 22080, Note_on_c, 0, 65, 37
3, 22080, Note_on_c, 0, 51, 32
3, 22091, Control_c, 0, 64, 0
3, 22264, Control_c, 0, 64, 127
3, 22320, Note_on_c, 0, 58, 35
3, 22800, Note_on_c, 0, 58, 0
3, 22800, Note_on_c, 0, 58, 34
3, 23040, Note_on_c, 0, 58, 0
3, 23040, Note_on_c, 0, 51, 0
3, 23040, Note_on_c, 0, 65, 0
3, 23040, Note_on_c, 0, 58, 37
3, 23040, Note_on_c, 0, 51, 32
3, 23057, Control_c, 0, 64, 0
3, 23224, Control_c, 0, 64, 127
3, 23280, Note_on_c, 0, 58, 0
3, 23280, Note_on_c, 0, 58, 35
3, 23760, Note_on_c, 0, 58, 0
3, 23760, Note_on_c, 0, 58, 34
3, 24000, Note_on_c, 0, 58, 0
3, 24000, Note_on_c, 0, 51, 0
3, 24000, Note_on_c, 0, 51, 32
3, 24000, Note_on_c, 0, 58, 37
3, 24014, Control_c, 0, 64, 0
3, 24213, Control_c, 0, 64, 127
3, 24240, Note_on_c, 0, 58, 0
3, 24240, Note_on_c, 0, 58, 35
3, 24720, Note_on_c, 0, 58, 0
3, 24720, Note_on_c, 0, 58, 34
3, 24960, Note_on_c, 0, 58, 0
3, 24960, Note_on_c, 0, 51, 0
3, 24960, Note_on_c, 0, 62, 42
3, 24960, Note_on_c, 0, 55, 35
3, 24973, Control_c, 0, 64, 0
3, 25144, Control_c, 0, 64, 127
3, 25200, Note_on_c, 0, 62, 0
3, 25200, Note_on_c, 0, 62, 38
3, 25680, Note_on_c, 0, 62, 0
3, 25680, Note_on_c, 0, 62, 36
3, 25920, Note_on_c, 0, 62, 0
3, 25920, Note_on_c, 0, 55, 0
3, 25920, Note_on_c, 0, 63, 40
3, 25920, Note_on_c, 0, 55, 35
3, 25930, Control_c, 0, 64, 0
3, 26057, Control_c, 0, 64, 127
3, 26160, Note_on_c, 0, 63, 0
3, 26160, Note_on_c, 0, 63, 38
3, 26640, Note_on_c, 0, 63, 0
3, 26640, Note_on_c, 0, 63, 37
3, 26880, Note_on_c, 0, 63, 0
3, 26880, Note_on_c, 0, 55, 0
3, 26880, Note_on_c, 0, 62, 43
3, 26880, Note_on_c, 0, 55, 38
3, 26897, Control_c, 0, 64, 0
3, 27106, Control_c, 0, 64, 127
3, 27120, Note_on_c, 0, 62, 0
3, 27120, Note_on_c, 0, 62, 37
3, 27360, Note_on_c, 0, 62, 0
3, 27360, Note_on_c, 0, 55, 0
3, 27360, Note_on_c, 0, 55, 35
3, 27360, Note_on_c, 0, 63, 39
3, 27600, Note_on_c, 0, 63, 0
3, 27600, Note_on_c, 0, 63, 35
3, 27840, Note_on_c, 0, 63, 0
3, 27840, Note_on_c, 0, 55, 0
3, 27840, Note_on_c, 0, 55, 31
3, 27840, Note_on_c, 0, 62, 36
3, 27851, Control_c, 0, 64, 0
3, 28053, Control_c, 0, 64, 127
3, 28080, Note_on_c, 0, 62, 0
3, 28080, Note_on_c, 0, 62, 34
3, 28560, Note_on_c, 0, 62, 0
3, 28560, Note_on_c, 0, 62, 33
3, 28800, Note_on_c, 0, 62, 0
3, 28800, Note_on_c, 0, 55, 0
3, 28800, Note_on_c, 0, 53, 34
3, 28800, Note_on_c, 0, 62, 39
3, 28811, Control_c, 0, 64, 0
3, 29013, Control_c, 0, 64, 127
3, 29040, Note_on_c, 0, 62, 0
3, 29040, Note_on_c, 0, 62, 37
3, 29280, Note_on_c, 0, 62, 0
3, 29280, Note_on_c, 0, 53, 0
3, 29280, Note_on_c, 0, 63, 49
3, 29298, Control_c, 0, 64, 0
3, 29440, Control_c, 0, 64, 127
3, 29520, Note_on_c, 0, 63, 0
3, 29520, Note_on_c, 0, 66, 43
3, 29760, Note_on_c, 0, 66, 0
3, 29760, Note_on_c, 0, 63, 49
3, 30000, Note_on_c, 0, 63, 0
3, 30000, Note_on_c, 0, 66, 44
3, 30240, Note_on_c, 0, 66, 0
3, 30240, Note_on_c, 0, 70, 51
3, 30480, Note_on_c, 0, 70, 0
3, 30480, Note_on_c, 0, 66, 47
3, 30720, Note_on_c, 0, 66, 0
3, 30720, Note_on_c, 0, 53, 43
3, 30720, Note_on_c, 0, 65, 43
3, 30731, Control_c, 0, 64, 0
3, 30890, Control_c, 0, 64, 127
3, 30960, Note_on_c, 0, 65, 0
3, 30960, Note_on_c, 0, 65, 39
3, 31200, Note_on_c, 0, 65, 0
3, 31200, Note_on_c, 0, 63, 42
3, 31440, Note_on_c, 0, 63, 0
3, 31440, Note_on_c, 0, 63, 37
3, 31680, Note_on_c, 0, 63, 0
3, 31680, Note_on_c, 0, 53, 0
3, 31680, Note_on_c, 0, 62, 42
3, 31680, Note_on_c, 0, 58, 42
3, 31693, Control_c, 0, 64, 0
3, 31751, Control_c, 0, 64, 127
3, 31920, Note_on_c, 0, 58, 0
3, 31920, Note_on_c, 0, 62, 0
3, 31920, Note_on_c, 0, 59, 36
3, 32100, Note_on_c, 0, 59, 0
3, 32100, Note_on_c, 0, 62, 32
3, 32160, Note_on_c, 0, 60, 38
3, 32173, Control_c, 0, 64, 0
3, 32180, Note_on_c, 0, 62, 0
3, 32234, Control_c, 0, 64, 127
3, 32400, Note_on_c, 0, 60, 0
3, 32400, Note_on_c, 0, 58, 35
3, 32640, Note_on_c, 0, 58, 0
3, 32640, Note_on_c, 0, 34, 38
3, 32648, Control_c, 0, 64, 0
3, 32838, Control_c, 0, 64, 127
3, 32880, Note_on_c, 0, 34, 0
3, 32880, Note_on_c, 0, 58, 35
3, 33360, Note_on_c, 0, 58, 0
3, 33360, Note_on_c, 0, 58, 33
3, 33600, Note_on_c, 0, 58, 0
3, 33600, Note_on_c, 0, 58, 37
3, 33840, Note_on_c, 0, 58, 0
3, 33840, Note_on_c, 0, 58, 35
3, 34320, Note_on_c, 0, 58, 0
3, 34320, Note_on_c, 0, 58, 34
3, 34560, Note_on_c, 0, 58, 0
3, 34560, Note_on_c, 0, 58, 38
3, 34571, Control_c, 0, 64, 0
3, 34744, Control_c, 0, 64, 127
3, 34800, Note_on_c, 0, 58, 0
3, 34800, Note_on_c, 0, 58, 35
3, 35280, Note_on_c, 0, 58, 0
3, 35280, Note_on_c, 0, 58, 33
3, 35520, Note_on_c, 0, 58, 0
3, 35520, Note_on_c, 0, 58, 37
3, 35529, Control_c, 0, 64, 0
3, 35732, Control_c, 0, 64, 127
3, 35760, Note_on_c, 0, 58, 0
3, 35760, Note_on_c, 0, 58, 35
3, 36240, Note_on_c, 0, 58, 0
3, 36240, Note_on_c, 0, 58, 34
3, 36480, Note_on_c, 0, 58, 0
3, 36480, Note_on_c, 0, 34, 54
3, 36491, Control_c, 0, 64, 0
3, 36629, Control_c, 0, 64, 127
3, 36720, Note_on_c, 0, 34, 0
3, 36720, Note_on_c, 0, 58, 47
3, 37200, Note_on_c, 0, 58, 0
3, 37200, Note_on_c, 0, 58, 38
3, 37440, Note_on_c, 0, 58, 0
3, 37440, Note_on_c, 0, 58, 39
3, 37680, Note_on_c, 0, 58, 0
3, 37680, Note_on_c, 0, 58, 38
3, 38160, Note_on_c, 0, 58, 0
3, 38160, Note_on_c, 0, 58, 36
3, 38400, Note_on_c, 0, 58, 0
3, 38400, Note_on_c, 0, 58, 40
3, 38411, Control_c, 0, 64, 0
3, 38612, Control_c, 0, 64, 127
3, 38640, Note_on_c, 0, 58, 0
3, 38640, Note_on_c, 0, 58, 38
3, 39120, Note_on_c, 0, 58, 0
3, 39120, Note_on_c, 0, 58, 35
3, 39360, Note_on_c, 0, 58, 0
3, 39360, Note_on_c, 0, 57, 45
3, 39370, Control_c, 0, 64, 0
3, 39459, Control_c, 0, 64, 127
3, 39600, Note_on_c, 0, 57, 0
3, 39600, Note_on_c, 0, 58, 39
3, 39720, Control_c, 0, 64, 0
3, 39780, Note_on_c, 0, 58, 0
3, 39780, Note_on_c, 0, 61, 34
3, 39840, Note_on_c, 0, 59, 40
3, 39860, Note_on_c, 0, 61, 0
3, 40080, Note_on_c, 0, 58, 38
3, 40100, Note_on_c, 0, 59, 0
3, 40320, Note_on_c, 0, 58, 0
3, 40320, Note_on_c, 0, 63, 44
3, 40412, Control_c, 0, 64, 127
3, 40800, Note_on_c, 0, 63, 0
3, 40800, Note_on_c, 0, 56, 30
3, 41280, Note_on_c, 0, 56, 0
3, 41280, Note_on_c, 0, 57, 44
3, 41292, Control_c, 0, 64, 0
3, 41335, Control_c, 0, 64, 127
3, 41520, Note_on_c, 0, 63, 47
3, 42000, Note_on_c, 0, 63, 0
3, 42000, Note_on_c, 0, 60, 36
3, 42240, Note_on_c, 0, 60, 0
3, 42240, Note_on_c, 0, 57, 0
3, 42240, Note_on_c, 0, 58, 44
3, 42250, Control_c, 0, 64, 0
3, 42290, Control_c, 0, 64, 127
3, 42720, Note_on_c, 0, 58, 0
3, 42720, Note_on_c, 0, 56, 30
3, 43200, Note_on_c, 0, 56, 0
3, 43200, Note_on_c, 0, 55, 40
3, 43213, Control_c, 0, 64, 0
3, 43383, Control_c, 0, 64, 127
3, 43920, Note_on_c, 0, 48, 36
3, 44160, Note_on_c, 0, 48, 0
3, 44160, Note_on_c, 0, 55, 0
3, 44160, Note_on_c, 0, 48, 34
3, 44160, Note_on_c, 0, 41, 37
3, 44171, Control_c, 0, 64, 0
3, 44332, Control_c, 0, 64, 127
3, 44400, Note_on_c, 0, 48, 0
3, 44400, Note_on_c, 0, 48, 35
3, 44880, Note_on_c, 0, 48, 0
3, 44880, Note_on_c, 0, 48, 34
3, 45120, Note_on_c, 0, 48, 0
3, 45120, Note_on_c, 0, 41, 0
3, 45120, Note_on_c, 0, 48, 34
3, 45120, Note_on_c, 0, 41, 37
3, 45131, Control_c, 0, 64, 0
3, 45290, Control_c, 0, 64, 127
3, 45360, Note_on_c, 0, 48, 0
3, 45360, Note_on_c, 0, 48, 35
3, 45840, Note_on_c, 0, 48, 0
3, 45840, Note_on_c, 0, 48, 34
3, 46080, Note_on_c, 0, 48, 0
3, 46080, Note_on_c, 0, 41, 0
3, 46080, Note_on_c, 0, 48, 34
3, 46080, Note_on_c, 0, 41, 37
3, 46097, Control_c, 0, 64, 0
3, 46252, Control_c, 0, 64, 127
3, 46320, Note_on_c, 0, 48, 0
3, 46320, Note_on_c, 0, 48, 35
3, 46800, Note_on_c, 0, 48, 0
3, 46800, Note_on_c, 0, 48, 34
3, 47040, Note_on_c, 0, 48, 0
3, 47040, Note_on_c, 0, 41, 0
3, 47040, Note_on_c, 0, 41, 50
3, 47040, Note_on_c, 0, 48, 50
3, 47052, Control_c, 0, 64, 0
3, 47200, Control_c, 0, 64, 127
3, 47280, Note_on_c, 0, 41, 0
3, 47280, Note_on_c, 0, 41, 53
3, 47760, Note_on_c, 0, 41, 0
3, 47760, Note_on_c, 0, 40, 54
3, 48000, Note_on_c, 0, 40, 0
3, 48000, Note_on_c, 0, 48, 0
3, 48000, Note_on_c, 0, 39, 56
3, 48011, Control_c, 0, 64, 0
3, 48226, Control_c, 0, 64, 127
3, 48240, Note_on_c, 0, 39, 0
3, 48240, Note_on_c, 0, 63, 44
3, 48720, Note_on_c, 0, 63, 0
3, 48720, Note_on_c, 0, 63, 42
3, 48960, Note_on_c, 0, 63, 0
3, 48960, Note_on_c, 0, 63, 42
3, 48971, Control_c, 0, 64, 0
3, 49116, Control_c, 0, 64, 127
3, 49200, Note_on_c, 0, 63, 0
3, 49200, Note_on_c, 0, 63, 44
3, 49680, Note_on_c, 0, 63, 0
3, 49680, Note_on_c, 0, 63, 42
3, 49920, Note_on_c, 0, 63, 0
3, 49920, Note_on_c, 0, 63, 42
3, 49937, Control_c, 0, 64, 0
3, 50146, Control_c, 0, 64, 127
3, 50160, Note_on_c, 0, 63, 0
3, 50160, Note_on_c, 0, 63, 44
3, 50640, Note_on_c, 0, 63, 0
3, 50640, Note_on_c, 0, 63, 42
3, 50880, Note_on_c, 0, 63, 0
3, 50880, Note_on_c, 0, 56, 49
3, 50891, Control_c, 0, 64, 0
3, 51093, Control_c, 0, 64, 127
3, 51120, Note_on_c, 0, 56, 0
3, 51120, Note_on_c, 0, 63, 46
3, 51360, Note_on_c, 0, 63, 0
3, 51360, Note_on_c, 0, 68, 53
3, 51600, Note_on_c, 0, 68, 0
3, 51600, Note_on_c, 0, 67, 48
3, 51840, Note_on_c, 0, 67, 0
3, 51840, Note_on_c, 0, 67, 54
3, 51850, Control_c, 0, 64, 0
3, 51996, Control_c, 0, 64, 127
3, 52560, Note_on_c, 0, 67, 0
3, 52560, Note_on_c, 0, 65, 50
3, 52800, Note_on_c, 0, 65, 0
3, 52800, Note_on_c, 0, 60, 53
3, 52812, Control_c, 0, 64, 0
3, 52972, Control_c, 0, 64, 127
3, 53280, Note_on_c, 0, 60, 0
3, 53280, Note_on_c, 0, 59, 48
3, 53520, Note_on_c, 0, 59, 0
3, 53520, Note_on_c, 0, 60, 42
3, 53760, Note_on_c, 0, 60, 0
3, 53760, Note_on_c, 0, 65, 53
3, 53773, Control_c, 0, 64, 0
3, 53887, Control_c, 0, 64, 127
3, 54240, Note_on_c, 0, 65, 0
3, 54240, Note_on_c, 0, 67, 51
3, 54720, Note_on_c, 0, 67, 0
3, 54720, Note_on_c, 0, 67, 53
3, 54733, Control_c, 0, 64, 0
3, 54876, Control_c, 0, 64, 127
3, 55200, Note_on_c, 0, 67, 0
3, 55200, Note_on_c, 0, 65, 52
3, 55680, Note_on_c, 0, 65, 0
3, 55680, Note_on_c, 0, 67, 54
3, 55691, Control_c, 0, 64, 0
3, 55878, Control_c, 0, 64, 127
3, 56400, Note_on_c, 0, 67, 0
3, 56400, Note_on_c, 0, 65, 50
3, 56640, Note_on_c, 0, 65, 0
3, 56640, Note_on_c, 0, 60, 53
3, 56652, Control_c, 0, 64, 0
3, 56812, Control_c, 0, 64, 127
3, 57120, Note_on_c, 0, 60, 0
3, 57120, Note_on_c, 0, 59, 48
3, 57360, Note_on_c, 0, 59, 0
3, 57360, Note_on_c, 0, 60, 42
3, 57600, Note_on_c, 0, 60, 0
3, 57600, Note_on_c, 0, 65, 53
3, 57607, Control_c, 0, 64, 0
3, 57727, Control_c, 0, 64, 127
3, 57840, Note_on_c, 0, 65, 0
3, 57840, Note_on_c, 0, 67, 49
3, 58080, Note_on_c, 0, 67, 0
3, 58080, Note_on_c, 0, 68, 51
3, 58320, Note_on_c, 0, 68, 0
3, 58320, Note_on_c, 0, 67, 47
3, 58560, Note_on_c, 0, 67, 0
3, 58560, Note_on_c, 0, 67, 53
3, 58574, Control_c, 0, 64, 0
3, 58786, Control_c, 0, 64, 127
3, 59040, Note_on_c, 0, 67, 0
3, 59040, Note_on_c, 0, 65, 52
3, 59520, Note_on_c, 0, 65, 0
3, 59520, Note_on_c, 0, 34, 54
3, 59533, Control_c, 0, 64, 0
3, 59749, Control_c, 0, 64, 127
3, 59760, Note_on_c, 0, 34, 0
3, 59760, Note_on_c, 0, 58, 47
3, 60240, Note_on_c, 0, 58, 0
3, 60240, Note_on_c, 0, 58, 38
3, 60480, Note_on_c, 0, 58, 0
3, 60480, Note_on_c, 0, 58, 39
3, 60720, Note_on_c, 0, 58, 0
3, 60720, Note_on_c, 0, 58, 38
3, 61200, Note_on_c, 0, 58, 0
3, 61200, Note_on_c, 0, 58, 36
3, 61440, Note_on_c, 0, 58, 0
3, 61440, Note_on_c, 0, 58, 39
3, 61453, Control_c, 0, 64, 0
3, 61610, Control_c, 0, 64, 127
3, 61680, Note_on_c, 0, 58, 0
3, 61680, Note_on_c, 0, 58, 38
3, 62160, Note_on_c, 0, 58, 0
3, 62160, Note_on_c, 0, 58, 36
3, 62400, Note_on_c, 0, 58, 0
3, 62400, Note_on_c, 0, 58, 39
3, 62412, Control_c, 0, 64, 0
3, 62584, Control_c, 0, 64, 127
3, 62640, Note_on_c, 0, 58, 0
3, 62640, Note_on_c, 0, 58, 38
3, 63120, Note_on_c, 0, 58, 0
3, 63120, Note_on_c, 0, 58, 36
3, 63360, Note_on_c, 0, 58, 0
3, 63360, Note_on_c, 0, 57, 37
3, 63360, Note_on_c, 0, 63, 56
3, 63374, Control_c, 0, 64, 0
3, 63475, Control_c, 0, 64, 127
3, 63600, Note_on_c, 0, 57, 0
3, 63600, Note_on_c, 0, 57, 37
3, 64080, Note_on_c, 0, 57, 0
3, 64080, Note_on_c, 0, 57, 37
3, 64320, Note_on_c, 0, 57, 0
3, 64320, Note_on_c, 0, 63, 0
3, 64320, Note_on_c, 0, 56, 39
3, 64332, Control_c, 0, 64, 0
3, 64492, Control_c, 0, 64, 127
3, 64800, Note_on_c, 0, 56, 0
3, 65289, Control_c, 0, 64, 0
3, 65429, Control_c, 0, 64, 127
3, 66240, Note_on_c, 0, 65, 35
3, 66240, Note_on_c, 0, 58, 35
3, 66251, Control_c, 0, 64, 0
3, 66534, Control_c, 0, 64, 127
3, 67200, Note_on_c, 0, 58, 0
3, 67200, Note_on_c, 0, 65, 0
3, 67200, Note_on_c, 0, 58, 38
3, 67200, Note_on_c, 0, 51, 32
3, 67210, Control_c, 0, 64, 0
3, 67384, Control_c, 0, 64, 127
3, 67440, Note_on_c, 0, 58, 0
3, 67440, Note_on_c, 0, 58, 35
3, 67920, Note_on_c, 0, 58, 0
3, 67920, Note_on_c, 0, 58, 33
3, 68160, Note_on_c, 0, 58, 0
3, 68160, Note_on_c, 0, 51, 0
3, 68160, Note_on_c, 0, 58, 37
3, 68160, Note_on_c, 0, 51, 32
3, 68400, Note_on_c, 0, 58, 0
3, 68400, Note_on_c, 0, 58, 35
3, 68880, Note_on_c, 0, 58, 0
3, 68880, Note_on_c, 0, 58, 34
3, 69120, Note_on_c, 0, 58, 0
3, 69120, Note_on_c, 0, 51, 0
3, 69120, Note_on_c, 0, 58, 38
3, 69120, Note_on_c, 0, 51, 32
3, 69133, Control_c, 0, 64, 0
3, 69332, Control_c, 0, 64, 127
3, 69360, Note_on_c, 0, 58, 0
3, 69360, Note_on_c, 0, 58, 35
3, 69840, Note_on_c, 0, 58, 0
3, 69840, Note_on_c, 0, 58, 33
3, 70080, Note_on_c, 0, 58, 0
3, 70080, Note_on_c, 0, 51, 0
3, 70080, Note_on_c, 0, 58, 37
3, 70080, Note_on_c, 0, 51, 32
3, 70090, Control_c, 0, 64, 0
3, 70236, Control_c, 0, 64, 127
3, 70320, Note_on_c, 0, 58, 0
3, 70320, Note_on_c, 0, 58, 35
3, 70800, Note_on_c, 0, 58, 0
3, 70800, Note_on_c, 0, 58, 34
3, 71040, Note_on_c, 0, 58, 0
3, 71040, Note_on_c, 0, 51, 0
3, 71040, Note_on_c, 0, 65, 37
3, 71040, Note_on_c, 0, 51, 32
3, 71050, Control_c, 0, 64, 0
3, 71238, Control_c, 0, 64, 127
3, 71280, Note_on_c, 0, 58, 35
3, 71760, Note_on_c, 0, 58, 0
3, 71760, Note_on_c, 0, 58, 34
3, 72000, Note_on_c, 0, 58, 0
3, 72000, Note_on_c, 0, 51, 0
3, 72000, Note_on_c, 0, 65, 0
3, 72000, Note_on_c, 0, 65, 37
3, 72000, Note_on_c, 0, 51, 32
3, 72009, Control_c, 0, 64, 0
3, 72226, Control_c, 0, 64, 127
3, 72240, Note_on_c, 0, 58, 35
3, 72720, Note_on_c, 0, 58, 0
3, 72720, Note_on_c, 0, 58, 34
3, 72960, Note_on_c, 0, 58, 0
3, 72960, Note_on_c, 0, 51, 0
3, 72960, Note_on_c, 0, 65, 0
3, 72960, Note_on_c, 0, 58, 37
3, 72960, Note_on_c, 0, 51, 32
3, 72977, Control_c, 0, 64, 0
3, 73144, Control_c, 0, 64, 127
3, 73200, Note_on_c, 0, 58, 0
3, 73200, Note_on_c, 0, 58, 35
3, 73680, Note_on_c, 0, 58, 0
3, 73680, Note_on_c, 0, 58, 34
3, 73920, Note_on_c, 0, 58, 0
3, 73920, Note_on_c, 0, 51, 0
3, 73920, Note_on_c, 0, 51, 32
3, 73920, Note_on_c, 0, 58, 37
3, 73930, Control_c, 0, 64, 0
3, 74133, Control_c, 0, 64, 127
3, 74160, Note_on_c, 0, 58, 0
3, 74160, Note_on_c, 0, 58, 35
3, 74640, Note_on_c, 0, 58, 0
3, 74640, Note_on_c, 0, 58, 34
3, 74880, Note_on_c, 0, 58, 0
3, 74880, Note_on_c, 0, 51, 0
3, 74880, Note_on_c, 0, 62, 42
3, 74880, Note_on_c, 0, 55, 35
3, 74890, Control_c, 0, 64, 0
3, 75036, Control_c, 0, 64, 127
3, 75120, Note_on_c, 0, 62, 0
3, 75120, Note_on_c, 0, 62, 38
3, 75600, Note_on_c, 0, 62, 0
3, 75600, Note_on_c, 0, 62, 36
3, 75840, Note_on_c, 0, 62, 0
3, 75840, Note_on_c, 0, 55, 0
3, 75840, Note_on_c, 0, 63, 40
3, 75840, Note_on_c, 0, 55, 35
3, 75852, Control_c, 0, 64, 0
3, 76000, Control_c, 0, 64, 127
3, 76080, Note_on_c, 0, 63, 0
3, 76080, Note_on_c, 0, 63, 38
3, 76560, Note_on_c, 0, 63, 0
3, 76560, Note_on_c, 0, 63, 37
3, 76800, Note_on_c, 0, 63, 0
3, 76800, Note_on_c, 0, 55, 0
3, 76800, Note_on_c, 0, 62, 43
3, 76800, Note_on_c, 0, 55, 38
3, 76817, Control_c, 0, 64, 0
3, 77026, Control_c, 0, 64, 127
3, 77040, Note_on_c, 0, 62, 0
3, 77040, Note_on_c, 0, 62, 37
3, 77280, Note_on_c, 0, 62, 0
3, 77280, Note_on_c, 0, 55, 0
3, 77280, Note_on_c, 0, 55, 35
3, 77280, Note_on_c, 0, 63, 39
3, 77520, Note_on_c, 0, 63, 0
3, 77520, Note_on_c, 0, 63, 35
3, 77760, Note_on_c, 0, 63, 0
3, 77760, Note_on_c, 0, 55, 0
3, 77760, Note_on_c, 0, 55, 31
3, 77760, Note_on_c, 0, 62, 36
3, 77773, Control_c, 0, 64, 0
3, 77973, Control_c, 0, 64, 127
3, 78000, Note_on_c, 0, 62, 0
3, 78000, Note_on_c, 0, 62, 34
3, 78480, Note_on_c, 0, 62, 0
3, 78480, Note_on_c, 0, 62, 33
3, 78720, Note_on_c, 0, 62, 0
3, 78720, Note_on_c, 0, 55, 0
3, 78720, Note_on_c, 0, 53, 42
3, 78720, Note_on_c, 0, 62, 60
3, 78734, Control_c, 0, 64, 0
3, 78857, Control_c, 0, 64, 127
3, 78960, Note_on_c, 0, 53, 0
3, 78960, Note_on_c, 0, 53, 42
3, 79440, Note_on_c, 0, 62, 0
3, 79440, Note_on_c, 0, 63, 47
3, 79680, Note_on_c, 0, 63, 0
3, 79680, Note_on_c, 0, 60, 48
3, 79692, Control_c, 0, 64, 0
3, 79863, Control_c, 0, 64, 127
3, 79920, Note_on_c, 0, 60, 0
3, 79920, Note_on_c, 0, 62, 49
3, 80160, Note_on_c, 0, 62, 0
3, 80160, Note_on_c, 0, 63, 50
3, 80400, Note_on_c, 0, 63, 0
3, 80400, Note_on_c, 0, 65, 50
3, 80640, Note_on_c, 0, 65, 0
3, 80640, Note_on_c, 0, 53, 0
3, 80640, Note_on_c, 0, 62, 56
3, 80649, Control_c, 0, 64, 0
3, 80731, Control_c, 0, 64, 127
3, 80880, Note_on_c, 0, 62, 0
3, 80880, Note_on_c, 0, 59, 49
3, 81120, Note_on_c, 0, 59, 0
3, 81120, Note_on_c, 0, 60, 52
3, 81134, Control_c, 0, 64, 0
3, 81246, Control_c, 0, 64, 127
3, 81360, Note_on_c, 0, 60, 0
3, 81360, Note_on_c, 0, 57, 48
3, 81600, Note_on_c, 0, 57, 0
3, 81600, Note_on_c, 0, 58, 51
3, 81610, Control_c, 0, 64, 0
3, 81772, Control_c, 0, 64, 127
3, 81840, Note_on_c, 0, 63, 39
3, 82080, Note_on_c, 0, 63, 0
3, 82080, Note_on_c, 0, 62, 36
3, 82560, Note_on_c, 0, 62, 0
3, 82560, Note_on_c, 0, 58, 0
3, 82560, Note_on_c, 0, 58, 38
3, 82560, Note_on_c, 0, 51, 32
3, 82570, Control_c, 0, 64, 0
3, 82730, Control_c, 0, 64, 127
3, 82800, Note_on_c, 0, 58, 0
3, 82800, Note_on_c, 0, 58, 35
3, 83280, Note_on_c, 0, 58, 0
3, 83280, Note_on_c, 0, 58, 33
3, 83520, Note_on_c, 0, 58, 0
3, 83520, Note_on_c, 0, 51, 0
3, 83520, Note_on_c, 0, 58, 37
3, 83520, Note_on_c, 0, 51, 32
3, 83760, Note_on_c, 0, 58, 0
3, 83760, Note_on_c, 0, 58, 35
3, 84240, Note_on_c, 0, 58, 0
3, 84240, Note_on_c, 0, 58, 34
3, 84480, Note_on_c, 0, 58, 0
3, 84480, Note_on_c, 0, 51, 0
3, 84480, Note_on_c, 0, 58, 38
3, 84480, Note_on_c, 0, 51, 32
3, 84494, Control_c, 0, 64, 0
3, 84692, Control_c, 0, 64, 127
3, 84720, Note_on_c, 0, 58, 0
3, 84720, Note_on_c, 0, 58, 35
3, 85200, Note_on_c, 0, 58, 0
3, 85200, Note_on_c, 0, 58, 33
3, 85440, Note_on_c, 0, 58, 0
3, 85440, Note_on_c, 0, 51, 0
3, 85440, Note_on_c, 0, 58, 37
3, 85440, Note_on_c, 0, 51, 32
3, 85450, Control_c, 0, 64, 0
3, 85596, Control_c, 0, 64, 127
3, 85680, Note_on_c, 0, 58, 0
3, 85680, Note_on_c, 0, 58, 35
3, 86160, Note_on_c, 0, 58, 0
3, 86160, Note_on_c, 0, 58, 34
3, 86400, Note_on_c, 0, 58, 0
3, 86400, Note_on_c, 0, 51, 0
3, 86400, Note_on_c, 0, 65, 37
3, 86400, Note_on_c, 0, 51, 32
3, 86412, Control_c, 0, 64, 0
3, 86626, Control_c, 0, 64, 127
3, 86640, Note_on_c, 0, 58, 35
3, 87120, Note_on_c, 0, 58, 0
3, 87120, Note_on_c, 0, 58, 34
3, 87360, Note_on_c, 0, 58, 0
3, 87360, Note_on_c, 0, 51, 0
3, 87360, Note_on_c, 0, 65, 0
3, 87360, Note_on_c, 0, 65, 37
3, 87360, Note_on_c, 0, 51, 32
3, 87371, Control_c, 0, 64, 0
3, 87516, Control_c, 0, 64, 127
3, 87600, Note_on_c, 0, 58, 35
3, 88080, Note_on_c, 0, 58, 0
3, 88080, Note_on_c, 0, 58, 34
3, 88320, Note_on_c, 0, 58, 0
3, 88320, Note_on_c, 0, 51, 0
3, 88320, Note_on_c, 0, 65, 0
3, 88320, Note_on_c, 0, 58, 37
3, 88320, Note_on_c, 0, 51, 32
3, 88337, Control_c, 0, 64, 0
3, 88490, Control_c, 0, 64, 127
3, 88560, Note_on_c, 0, 58, 0
3, 88560, Note_on_c, 0, 58, 35
3, 89040, Note_on_c, 0, 58, 0
3, 89040, Note_on_c, 0, 58, 34
3, 89280, Note_on_c, 0, 58, 0
3, 89280, Note_on_c, 0, 51, 0
3, 89280, Note_on_c, 0, 51, 32
3, 89280, Note_on_c, 0, 58, 37
3, 89296, Control_c, 0, 64, 0
3, 89436, Control_c, 0, 64, 127
3, 89520, Note_on_c, 0, 58, 0
3, 89520, Note_on_c, 0, 58, 35
3, 90000, Note_on_c, 0, 58, 0
3, 90000, Note_on_c, 0, 58, 34
3, 90240, Note_on_c, 0, 58, 0
3, 90240, Note_on_c, 0, 51, 0
3, 90240, Note_on_c, 0, 65, 52
3, 90256, Control_c, 0, 64, 0
3, 90381, Control_c, 0, 64, 127
3, 90480, Note_on_c, 0, 65, 0
3, 90480, Note_on_c, 0, 51, 47
3, 90960, Note_on_c, 0, 51, 0
3, 90960, Note_on_c, 0, 63, 40
3, 91200, Note_on_c, 0, 63, 0
3, 91200, Note_on_c, 0, 63, 49
3, 91212, Control_c, 0, 64, 0
3, 91327, Control_c, 0, 64, 127
3, 91440, Note_on_c, 0, 63, 0
3, 91440, Note_on_c, 0, 62, 42
3, 91680, Note_on_c, 0, 62, 0
3, 91680, Note_on_c, 0, 61, 39
3, 92160, Note_on_c, 0, 61, 0
3, 92160, Note_on_c, 0, 59, 49
3, 92171, Control_c, 0, 64, 0
3, 92332, Control_c, 0, 64, 127
3, 92400, Note_on_c, 0, 59, 0
3, 92400, Note_on_c, 0, 60, 46
3, 92640, Note_on_c, 0, 60, 0
3, 92640, Note_on_c, 0, 55, 52
3, 92880, Note_on_c, 0, 55, 0
3, 92880, Note_on_c, 0, 56, 47
3, 93120, Note_on_c, 0, 56, 0
3, 93120, Note_on_c, 0, 59, 51
3, 93134, Control_c, 0, 64, 0
3, 93257, Control_c, 0, 64, 127
3, 93360, Note_on_c, 0, 59, 0
3, 93360, Note_on_c, 0, 60, 48
3, 93600, Note_on_c, 0, 60, 0
3, 93600, Note_on_c, 0, 53, 45
3, 94080, Note_on_c, 0, 53, 0
3, 94080, Note_on_c, 0, 46, 44
3, 94090, Control_c, 0, 64, 0
3, 94221, Control_c, 0, 64, 127
3, 94320, Note_on_c, 0, 46, 0
3, 94320, Note_on_c, 0, 58, 36
3, 94800, Note_on_c, 0, 58, 0
3, 94800, Note_on_c, 0, 58, 36
3, 95280, Note_on_c, 0, 58, 0
3, 95280, Note_on_c, 0, 58, 35
3, 95760, Note_on_c, 0, 58, 0
3, 95760, Note_on_c, 0, 58, 34
3, 96000, Note_on_c, 0, 58, 0
3, 96000, Note_on_c, 0, 46, 44
3, 96014, Control_c, 0, 64, 0
3, 96141, Control_c, 0, 64, 127
3, 96240, Note_on_c, 0, 46, 0
3, 96240, Note_on_c, 0, 58, 48
3, 96720, Note_on_c, 0, 58, 0
3, 96720, Note_on_c, 0, 62, 36
3, 97200, Note_on_c, 0, 62, 0
3, 97200, Note_on_c, 0, 60, 35
3, 97680, Note_on_c, 0, 60, 0
3, 97680, Note_on_c, 0, 58, 34
3, 97920, Note_on_c, 0, 58, 0
3, 97920, Note_on_c, 0, 46, 33
3, 97920, Note_on_c, 0, 56, 33
3, 97932, Control_c, 0, 64, 0
3, 98090, Control_c, 0, 64, 127
3, 98160, Note_on_c, 0, 56, 0
3, 98160, Note_on_c, 0, 46, 0
3, 98160, Note_on_c, 0, 60, 30
3, 98400, Note_on_c, 0, 60, 0
3, 98400, Note_on_c, 0, 56, 32
3, 98640, Note_on_c, 0, 56, 0
3, 98640, Note_on_c, 0, 58, 30
3, 98880, Note_on_c, 0, 58, 0
3, 98880, Note_on_c, 0, 56, 31
3, 98890, Control_c, 0, 64, 0
3, 99094, Control_c, 0, 64, 127
3, 99360, Note_on_c, 0, 56, 0
3, 99360, Note_on_c, 0, 46, 28
3, 99360, Note_on_c, 0, 56, 28
3, 99840, Note_on_c, 0, 56, 0
3, 99840, Note_on_c, 0, 46, 0
3, 99840, Control_c, 0, 64, 0
3, 99840, Note_on_c, 0, 46, 32
3, 99840, Note_on_c, 0, 39, 28
3, 100052, Control_c, 0, 64, 127
3, 100080, Note_on_c, 0, 46, 0
3, 100080, Note_on_c, 0, 46, 30
3, 100560, Note_on_c, 0, 46, 0
3, 100560, Note_on_c, 0, 46, 28
3, 100800, Note_on_c, 0, 46, 0
3, 100800, Note_on_c, 0, 39, 0
3, 100800, Note_on_c, 0, 46, 30
3, 100800, Note_on_c, 0, 39, 27
3, 101040, Note_on_c, 0, 46, 0
3, 101040, Note_on_c, 0, 46, 28
3, 101520, Note_on_c, 0, 46, 0
3, 101520, Note_on_c, 0, 46, 27
3, 101760, Note_on_c, 0, 46, 0
3, 101760, Note_on_c, 0, 39, 0
3, 101760, Note_on_c, 0, 46, 29
3, 101760, Note_on_c, 0, 39, 25
3, 101772, Control_c, 0, 64, 0
3, 101944, Control_c, 0, 64, 127
3, 102000, Note_on_c, 0, 46, 0
3, 102000, Note_on_c, 0, 46, 27
3, 102480, Note_on_c, 0, 46, 0
3, 102480, Note_on_c, 0, 46, 26
3, 102720, Note_on_c, 0, 46, 0
3, 102720, Note_on_c, 0, 39, 0
3, 102720, Note_on_c, 0, 46, 28
3, 102720, Note_on_c, 0, 39, 23
3, 102960, Note_on_c, 0, 46, 0
3, 102960, Note_on_c, 0, 46, 26
3, 103440, Note_on_c, 0, 46, 0
3, 103440, Note_on_c, 0, 46, 25
3, 103680, Note_on_c, 0, 46, 0
3, 103680, Note_on_c, 0, 39, 0
3, 103680, Note_on_c, 0, 46, 26
3, 103680, Note_on_c, 0, 39, 21
3, 103692, Control_c, 0, 64, 0
3, 103836, Control_c, 0, 64, 127
3, 103920, Note_on_c, 0, 46, 0
3, 103920, Note_on_c, 0, 46, 25
3, 104400, Note_on_c, 0, 46, 0
3, 104400, Note_on_c, 0, 46, 21
3, 104640, Note_on_c, 0, 46, 0
3, 104640, Note_on_c, 0, 39, 0
3, 104640, Note_on_c, 0, 46, 25
3, 104640, Note_on_c, 0, 39, 19
3, 104651, Control_c, 0, 64, 0
3, 104810, Control_c, 0, 64, 127
3, 104880, Note_on_c, 0, 46, 0
3, 104880, Note_on_c, 0, 46, 21
3, 105360, Note_on_c, 0, 46, 0
3, 105360, Note_on_c, 0, 46, 19
3, 105600, Note_on_c, 0, 46, 0
3, 105600, Note_on_c, 0, 39, 0
3, 105600, Note_on_c, 0, 47, 23
3, 105600, Note_on_c, 0, 39, 18
3, 105612, Control_c, 0, 64, 0
3, 105783, Control_c, 0, 64, 127
3, 105840, Note_on_c, 0, 47, 0
3, 105840, Note_on_c, 0, 47, 19
3, 106320, Note_on_c, 0, 47, 0
3, 106320, Note_on_c, 0, 47, 17
3, 106560, Note_on_c, 0, 47, 0
3, 106560, Note_on_c, 0, 39, 0
3, 106560, Note_on_c, 0, 47, 19
3, 106560, Note_on_c, 0, 39, 16
3, 106800, Note_on_c, 0, 47, 0
3, 106800, Note_on_c, 0, 47, 17
3, 107280, Note_on_c, 0, 47, 0
3, 107280, Note_on_c, 0, 47, 15
3, 107520, Note_on_c, 0, 47, 0
3, 107520, Note_on_c, 0, 39, 0
3, 107520, Note_on_c, 0, 39, 33
3, 107531, Control_c, 0, 64, 0
3, 107591, Control_c, 0, 64, 127
3, 107760, Note_on_c, 0, 39, 0
3, 107760, Note_on_c, 0, 46, 29
3, 108000, Note_on_c, 0, 46, 0
3, 108000, Note_on_c, 0, 51, 34
3, 108240, Note_on_c, 0, 51, 0
3, 108240, Note_on_c, 0, 55, 31
3, 108480, Note_on_c, 0, 55, 0
3, 108480, Note_on_c, 0, 58, 36
3, 109440, Note_on_c, 0, 58, 0
3, 109452, Control_c, 0, 64, 0
3, 109707, Control_c, 0, 64, 127
3, 110400, Note_on_c, 0, 63, 30
3, 110400, Note_on_c, 0, 56, 30
3, 111360, Note_on_c, 0, 56, 0
3, 111360, Note_on_c, 0, 63, 0
3, 111360, Note_on_c, 0, 27, 19
3, 111360, Note_on_c, 0, 39, 23
3, 111370, Control_c, 0, 64, 0
3, 111787, Control_c, 0, 64, 127
3, 113280, Note_on_c, 0, 39, 0
3, 113280, Note_on_c, 0, 27, 0
3, 114854, Control_c, 0, 64, 0
3, 114854, End_track
4, 0, Start_track
4, 0, Title_t, "Albeniz :Espana Op. 165 Capricho Catalan"
4, 0, End_track
5, 0, Start_track
5, 0, Title_t, "Copyright © 2001 by Bernd Krüger"
5, 0, End_track
6, 0, Start_track
6, 0, Title_t, "http://www.piano-midi.de"
6, 0, End_track
7, 0, Start_track
7, 0, Title_t, "Edition: 2010-08-31"
7, 0, End_track
8, 0, Start_track
8, 0, Title_t, "Spur 7"
8, 0, End_track
0, 0, End_of_file
