0, 0, Header, 1, 9, 480
1, 0, Start_track
1, 0, Title_t, "Espana Op. 165"
1, 0, Title_t, "Zortcico"
1, 0, Copyright_t, "Copyright © 2001 by Bernd Krueger"
1, 0, Text_t, "Isaac Albeniz"
1, 0, Text_t, "Allegretto"
1, 0, Text_t, "Fertiggestellt am 17.02.2001\012"
1, 0, Text_t, "Normierung: 23.12.2002\012"
1, 0, Text_t, "Update am 31.8.2010\012"
1, 0, Text_t, "Dauer: 2:35 Minuten\012"
1, 0, SMPTE_offset, 96, 0, 3, 0, 0
1, 0, Time_signature, 5, 3, 12, 8
1, 0, Key_signature, 4, "major"
1, 0, Tempo, 526316
1, 1920, Tempo, 533333
1, 2400, Tempo, 526316
1, 3360, Tempo, 538117
1, 3600, Tempo, 526316
1, 4560, Tempo, 533333
1, 5280, Tempo, 526316
1, 5520, Tempo, 538117
1, 5760, Tempo, 555556
1, 6000, Tempo, 526316
1, 6480, Tempo, 542986
1, 6720, Tempo, 533333
1, 7200, Tempo, 540541
1, 7440, Tempo, 528634
1, 7680, Tempo, 550459
1, 7800, Tempo, 566038
1, 7920, Tempo, 524017
1, 8160, Tempo, 542986
1, 8400, Tempo, 526316
1, 9360, Tempo, 550459
1, 9600, Tempo, 526316
1, 10560, Tempo, 568720
1, 10800, Tempo, 542986
1, 11760, Tempo, 563380
1, 12000, Tempo, 526316
1, 12960, Tempo, 538117
1, 13200, Tempo, 526316
1, 14160, Tempo, 533333
1, 14400, Tempo, 526316
1, 14880, Tempo, 526316
1, 15120, Tempo, 538117
1, 15360, Tempo, 555556
1, 15600, Tempo, 526316
1, 16080, Tempo, 542986
1, 16320, Tempo, 533333
1, 16800, Tempo, 526316
1, 17760, Tempo, 550459
1, 18000, Tempo, 526316
1, 18480, Tempo, 535714
1, 18960, Tempo, 550459
1, 19200, Tempo, 540541
1, 19440, Tempo, 528634
1, 19680, Tempo, 550459
1, 19800, Tempo, 566038
1, 19920, Tempo, 524017
1, 20160, Tempo, 542986
1, 20400, Tempo, 526316
1, 21120, Tempo, 538117
1, 21360, Tempo, 550459
1, 21600, Tempo, 526316
1, 22560, Tempo, 538117
1, 22800, Tempo, 526316
1, 23760, Tempo, 533333
1, 24000, Tempo, 526316
1, 24480, Tempo, 526316
1, 24720, Tempo, 538117
1, 24960, Tempo, 555556
1, 25200, Tempo, 526316
1, 25680, Tempo, 542986
1, 25920, Tempo, 533333
1, 26400, Tempo, 540541
1, 26640, Tempo, 528634
1, 26880, Tempo, 550459
1, 27000, Tempo, 566038
1, 27120, Tempo, 524017
1, 27360, Tempo, 542986
1, 27600, Tempo, 526316
1, 28560, Tempo, 550459
1, 28800, Tempo, 526316
1, 29760, Tempo, 568720
1, 30000, Tempo, 542986
1, 30960, Tempo, 563380
1, 31200, Tempo, 526316
1, 32160, Tempo, 538117
1, 32400, Tempo, 526316
1, 33360, Tempo, 533333
1, 33600, Tempo, 526316
1, 34080, Tempo, 526316
1, 34320, Tempo, 538117
1, 34560, Tempo, 555556
1, 34800, Tempo, 526316
1, 35280, Tempo, 542986
1, 35520, Tempo, 533333
1, 36000, Tempo, 526316
1, 36960, Tempo, 550459
1, 37200, Tempo, 526316
1, 37680, Tempo, 535714
1, 38160, Tempo, 550459
1, 38400, Tempo, 540541
1, 38640, Tempo, 528634
1, 38880, Tempo, 550459
1, 39000, Tempo, 566038
1, 39120, Tempo, 524017
1, 39360, Tempo, 542986
1, 39600, Tempo, 526316
1, 40560, Tempo, 550459
1, 40800, Tempo, 512821
1, 41040, Tempo, 521739
1, 41520, Tempo, 542986
1, 41760, Tempo, 526316
1, 42000, Tempo, 512821
1, 42240, Tempo, 521739
1, 42720, Tempo, 540541
1, 42960, Tempo, 528634
1, 43200, Tempo, 517241
1, 43440, Tempo, 526316
1, 43920, Tempo, 540541
1, 44400, Tempo, 519481
1, 44640, Tempo, 526316
1, 45360, Tempo, 538117
1, 45600, Tempo, 521739
1, 45840, Tempo, 530973
1, 46200, Tempo, 560748
1, 46320, Tempo, 533333
1, 46560, Tempo, 542986
1, 46800, Tempo, 521739
1, 47040, Tempo, 530973
1, 47520, Tempo, 533333
1, 47760, Tempo, 558140
1, 48000, Tempo, 521739
1, 48240, Tempo, 530973
1, 48720, Tempo, 533333
1, 48960, Tempo, 542986
1, 49200, Tempo, 521739
1, 49440, Tempo, 530973
1, 49680, Tempo, 550459
1, 49800, Tempo, 574163
1, 49920, Tempo, 555556
1, 50160, Tempo, 579710
1, 50400, Tempo, 517241
1, 50640, Tempo, 526316
1, 51120, Tempo, 542986
1, 51360, Tempo, 547945
1, 51600, Tempo, 519481
1, 51840, Tempo, 526316
1, 52320, Tempo, 540541
1, 52800, Tempo, 517241
1, 53040, Tempo, 526316
1, 53280, Tempo, 535714
1, 53520, Tempo, 552995
1, 54000, Tempo, 533333
1, 54240, Tempo, 521739
1, 54480, Tempo, 528634
1, 54600, Tempo, 547945
1, 54720, Tempo, 538117
1, 54960, Tempo, 563380
1, 55200, Tempo, 550459
1, 55920, Tempo, 555556
1, 56160, Tempo, 566038
1, 56400, Tempo, 558140
1, 56640, Tempo, 566038
1, 57600, Tempo, 540541
1, 57840, Tempo, 528634
1, 58080, Tempo, 550459
1, 58200, Tempo, 566038
1, 58320, Tempo, 524017
1, 58560, Tempo, 542986
1, 58800, Tempo, 526316
1, 59760, Tempo, 550459
1, 60000, Tempo, 512821
1, 60240, Tempo, 521739
1, 60720, Tempo, 538117
1, 60960, Tempo, 526316
1, 61200, Tempo, 510638
1, 61440, Tempo, 521739
1, 61920, Tempo, 540541
1, 62160, Tempo, 528634
1, 62400, Tempo, 517241
1, 62640, Tempo, 524017
1, 63120, Tempo, 540541
1, 63600, Tempo, 517241
1, 63840, Tempo, 524017
1, 64560, Tempo, 538117
1, 64800, Tempo, 517241
1, 65040, Tempo, 530973
1, 65400, Tempo, 560748
1, 65520, Tempo, 533333
1, 65760, Tempo, 542986
1, 66000, Tempo, 521739
1, 66240, Tempo, 528634
1, 66720, Tempo, 533333
1, 66960, Tempo, 558140
1, 67200, Tempo, 521739
1, 67440, Tempo, 530973
1, 67920, Tempo, 533333
1, 68160, Tempo, 542986
1, 68400, Tempo, 521739
1, 68640, Tempo, 528634
1, 68880, Tempo, 550459
1, 69000, Tempo, 574163
1, 69120, Tempo, 555556
1, 69360, Tempo, 579710
1, 69600, Tempo, 517241
1, 69840, Tempo, 521739
1, 70320, Tempo, 542986
1, 70560, Tempo, 547945
1, 70800, Tempo, 519481
1, 71040, Tempo, 524017
1, 71520, Tempo, 540541
1, 72000, Tempo, 517241
1, 72240, Tempo, 521739
1, 72480, Tempo, 535714
1, 72720, Tempo, 552995
1, 73200, Tempo, 533333
1, 73440, Tempo, 521739
1, 73680, Tempo, 528634
1, 73800, Tempo, 547945
1, 73920, Tempo, 538117
1, 74160, Tempo, 563380
1, 74400, Tempo, 550459
1, 75120, Tempo, 555556
1, 75360, Tempo, 566038
1, 75600, Tempo, 558140
1, 75840, Tempo, 566038
1, 76800, Tempo, 540541
1, 77040, Tempo, 528634
1, 77280, Tempo, 550459
1, 77400, Tempo, 566038
1, 77520, Tempo, 524017
1, 77760, Tempo, 542986
1, 78000, Tempo, 526316
1, 78960, Tempo, 550459
1, 79200, Tempo, 521739
1, 79440, Tempo, 526316
1, 80160, Tempo, 538117
1, 80400, Tempo, 521739
1, 80640, Tempo, 526316
1, 81360, Tempo, 533333
1, 81600, Tempo, 526316
1, 81840, Tempo, 521739
1, 82080, Tempo, 526316
1, 82320, Tempo, 538117
1, 82560, Tempo, 555556
1, 82800, Tempo, 526316
1, 83280, Tempo, 542986
1, 83520, Tempo, 533333
1, 84000, Tempo, 540541
1, 84240, Tempo, 528634
1, 84480, Tempo, 550459
1, 84600, Tempo, 566038
1, 84720, Tempo, 524017
1, 84960, Tempo, 542986
1, 85200, Tempo, 519481
1, 85440, Tempo, 526316
1, 86160, Tempo, 550459
1, 86400, Tempo, 521739
1, 86640, Tempo, 526316
1, 87360, Tempo, 568720
1, 87600, Tempo, 542986
1, 88560, Tempo, 563380
1, 88800, Tempo, 526316
1, 89760, Tempo, 538117
1, 90000, Tempo, 526316
1, 90960, Tempo, 533333
1, 91200, Tempo, 526316
1, 91680, Tempo, 526316
1, 91920, Tempo, 538117
1, 92160, Tempo, 555556
1, 92400, Tempo, 526316
1, 92880, Tempo, 542986
1, 93120, Tempo, 533333
1, 93600, Tempo, 526316
1, 94560, Tempo, 550459
1, 94800, Tempo, 526316
1, 95280, Tempo, 535714
1, 95760, Tempo, 550459
1, 96000, Tempo, 540541
1, 96240, Tempo, 528634
1, 96480, Tempo, 550459
1, 96600, Tempo, 566038
1, 96720, Tempo, 524017
1, 96960, Tempo, 542986
1, 97200, Tempo, 526316
1, 97920, Tempo, 538117
1, 98160, Tempo, 550459
1, 98400, Tempo, 526316
1, 99360, Tempo, 538117
1, 99480, Tempo, 563380
1, 99600, Tempo, 526316
1, 100560, Tempo, 538117
1, 100800, Tempo, 526316
1, 101760, Tempo, 538117
1, 101880, Tempo, 560748
1, 102000, Tempo, 535714
1, 102240, Tempo, 524017
1, 102960, Tempo, 538117
1, 103200, Tempo, 526316
1, 103920, Tempo, 526316
1, 104160, Tempo, 538117
1, 104400, Tempo, 526316
1, 105000, Tempo, 535714
1, 105360, Tempo, 552995
1, 105600, Tempo, 526316
1, 106080, Tempo, 540541
1, 106320, Tempo, 579710
1, 106560, Tempo, 585366
1, 106800, Tempo, 597015
1, 107040, Tempo, 535714
1, 108000, Tempo, 526316
1, 108960, Tempo, 538117
1, 109200, Tempo, 526316
1, 110160, Tempo, 533333
1, 110400, Tempo, 526316
1, 110880, Tempo, 526316
1, 111120, Tempo, 538117
1, 111360, Tempo, 555556
1, 111600, Tempo, 526316
1, 112080, Tempo, 542986
1, 112320, Tempo, 533333
1, 112800, Tempo, 540541
1, 113040, Tempo, 528634
1, 113280, Tempo, 550459
1, 113400, Tempo, 566038
1, 113520, Tempo, 524017
1, 113760, Tempo, 542986
1, 114000, Tempo, 526316
1, 114960, Tempo, 550459
1, 115200, Tempo, 526316
1, 116160, Tempo, 568720
1, 116400, Tempo, 542986
1, 117360, Tempo, 563380
1, 117600, Tempo, 517241
1, 117840, Tempo, 526316
1, 118560, Tempo, 538117
1, 118800, Tempo, 517241
1, 119040, Tempo, 526316
1, 119760, Tempo, 533333
1, 120000, Tempo, 519481
1, 120240, Tempo, 526316
1, 120480, Tempo, 526316
1, 120720, Tempo, 538117
1, 120960, Tempo, 555556
1, 121200, Tempo, 526316
1, 121680, Tempo, 542986
1, 121920, Tempo, 533333
1, 122400, Tempo, 517241
1, 122640, Tempo, 526316
1, 123120, Tempo, 519481
1, 123360, Tempo, 550459
1, 123600, Tempo, 517241
1, 123840, Tempo, 526316
1, 124080, Tempo, 535714
1, 124560, Tempo, 550459
1, 124800, Tempo, 540541
1, 125040, Tempo, 528634
1, 125280, Tempo, 550459
1, 125400, Tempo, 566038
1, 125520, Tempo, 524017
1, 125760, Tempo, 542986
1, 126000, Tempo, 526316
1, 126720, Tempo, 538117
1, 126960, Tempo, 550459
1, 127200, Tempo, 521739
1, 127440, Tempo, 526316
1, 128160, Tempo, 538117
1, 128280, Tempo, 563380
1, 128400, Tempo, 519481
1, 128640, Tempo, 526316
1, 129360, Tempo, 538117
1, 129600, Tempo, 521739
1, 129840, Tempo, 526316
1, 130560, Tempo, 538117
1, 130680, Tempo, 560748
1, 130800, Tempo, 535714
1, 131040, Tempo, 524017
1, 131760, Tempo, 538117
1, 132000, Tempo, 519481
1, 132240, Tempo, 526316
1, 132720, Tempo, 526316
1, 132960, Tempo, 538117
1, 133200, Tempo, 517241
1, 133440, Tempo, 526316
1, 133800, Tempo, 535714
1, 134160, Tempo, 552995
1, 134400, Tempo, 526316
1, 134880, Tempo, 540541
1, 135120, Tempo, 579710
1, 135360, Tempo, 579710
1, 135600, Tempo, 600000
1, 135840, Tempo, 615385
1, 136800, Tempo, 600000
1, 136800, End_track
2, 0, Start_track
2, 0, Title_t, "Piano right"
2, 0, Program_c, 0, 0
2, 0, Control_c, 0, 7, 100
2, 0, Control_c, 0, 10, 64
2, 0, Text_t, "bdca426d104a26ac9dcb070447587523"
2, 0, Control_c, 0, 91, 127
2, 1920, Note_on_c, 0, 65, 49
2, 1920, Note_on_c, 0, 68, 58
2, 2400, Note_on_c, 0, 68, 0
2, 2400, Note_on_c, 0, 65, 0
2, 2400, Note_on_c, 0, 66, 50
2, 2400, Note_on_c, 0, 69, 60
2, 2640, Note_on_c, 0, 69, 0
2, 2640, Note_on_c, 0, 66, 0
2, 2640, Note_on_c, 0, 66, 47
2, 2640, Note_on_c, 0, 69, 56
2, 3000, Note_on_c, 0, 69, 0
2, 3000, Note_on_c, 0, 66, 0
2, 3000, Note_on_c, 0, 64, 44
2, 3000, Note_on_c, 0, 73, 52
2, 3120, Note_on_c, 0, 73, 0
2, 3120, Note_on_c, 0, 64, 0
2, 3120, Note_on_c, 0, 63, 47
2, 3120, Note_on_c, 0, 71, 56
2, 3480, Note_on_c, 0, 71, 0
2, 3480, Note_on_c, 0, 63, 0
2, 3480, Note_on_c, 0, 67, 51
2, 3480, Note_on_c, 0, 63, 42
2, 3600, Note_on_c, 0, 63, 0
2, 3600, Note_on_c, 0, 67, 0
2, 3600, Note_on_c, 0, 64, 47
2, 3600, Note_on_c, 0, 68, 56
2, 3840, Note_on_c, 0, 68, 0
2, 3840, Note_on_c, 0, 64, 0
2, 3840, Note_on_c, 0, 68, 49
2, 3840, Note_on_c, 0, 71, 58
2, 4200, Note_on_c, 0, 71, 0
2, 4200, Note_on_c, 0, 68, 0
2, 4200, Note_on_c, 0, 80, 58
2, 4200, Note_on_c, 0, 76, 48
2, 4320, Note_on_c, 0, 76, 0
2, 4320, Note_on_c, 0, 80, 0
2, 4320, Note_on_c, 0, 78, 55
2, 4320, Note_on_c, 0, 75, 46
2, 4680, Note_on_c, 0, 75, 0
2, 4680, Note_on_c, 0, 78, 0
2, 4680, Note_on_c, 0, 76, 52
2, 4680, Note_on_c, 0, 73, 44
2, 4800, Note_on_c, 0, 73, 0
2, 4800, Note_on_c, 0, 76, 0
2, 4800, Note_on_c, 0, 75, 56
2, 4800, Note_on_c, 0, 71, 47
2, 4880, Note_on_c, 0, 71, 0
2, 4880, Note_on_c, 0, 75, 0
2, 4880, Note_on_c, 0, 76, 48
2, 4880, Note_on_c, 0, 73, 40
2, 4960, Note_on_c, 0, 73, 0
2, 4960, Note_on_c, 0, 76, 0
2, 4960, Note_on_c, 0, 75, 48
2, 4960, Note_on_c, 0, 71, 40
2, 5040, Note_on_c, 0, 71, 0
2, 5040, Note_on_c, 0, 75, 0
2, 5040, Note_on_c, 0, 73, 53
2, 5040, Note_on_c, 0, 69, 45
2, 5400, Note_on_c, 0, 69, 0
2, 5400, Note_on_c, 0, 73, 0
2, 5400, Note_on_c, 0, 75, 52
2, 5400, Note_on_c, 0, 71, 44
2, 5520, Note_on_c, 0, 71, 0
2, 5520, Note_on_c, 0, 75, 0
2, 5520, Note_on_c, 0, 73, 47
2, 5520, Note_on_c, 0, 76, 56
2, 5880, Note_on_c, 0, 76, 0
2, 5880, Note_on_c, 0, 73, 0
2, 5880, Note_on_c, 0, 73, 52
2, 5880, Note_on_c, 0, 69, 44
2, 6000, Note_on_c, 0, 69, 0
2, 6000, Note_on_c, 0, 73, 0
2, 6000, Note_on_c, 0, 68, 40
2, 6000, Note_on_c, 0, 71, 48
2, 6720, Note_on_c, 0, 71, 0
2, 6720, Note_on_c, 0, 68, 0
2, 7200, Note_on_c, 0, 71, 49
2, 7200, Note_on_c, 0, 77, 56
2, 7440, Note_on_c, 0, 77, 0
2, 7440, Note_on_c, 0, 71, 0
2, 7440, Note_on_c, 0, 73, 49
2, 7440, Note_on_c, 0, 78, 55
2, 7800, Note_on_c, 0, 78, 0
2, 7800, Note_on_c, 0, 73, 0
2, 7800, Note_on_c, 0, 74, 55
2, 7800, Note_on_c, 0, 80, 55
2, 7860, Note_on_c, 0, 83, 50
2, 7920, Note_on_c, 0, 80, 0
2, 7920, Note_on_c, 0, 74, 0
2, 7920, Note_on_c, 0, 81, 58
2, 7920, Note_on_c, 0, 77, 49
2, 7940, Note_on_c, 0, 83, 0
2, 8280, Note_on_c, 0, 81, 0
2, 8280, Note_on_c, 0, 80, 57
2, 8400, Note_on_c, 0, 80, 0
2, 8400, Note_on_c, 0, 77, 0
2, 8400, Note_on_c, 0, 73, 46
2, 8400, Note_on_c, 0, 85, 46
2, 8400, Note_on_c, 0, 80, 60
2, 8640, Note_on_c, 0, 80, 0
2, 8640, Note_on_c, 0, 78, 58
2, 9000, Note_on_c, 0, 78, 0
2, 9000, Note_on_c, 0, 77, 50
2, 9120, Note_on_c, 0, 77, 0
2, 9120, Note_on_c, 0, 85, 0
2, 9120, Note_on_c, 0, 73, 0
2, 9120, Note_on_c, 0, 78, 53
2, 9480, Note_on_c, 0, 78, 0
2, 9480, Note_on_c, 0, 72, 55
2, 9480, Note_on_c, 0, 69, 55
2, 9600, Note_on_c, 0, 69, 0
2, 9600, Note_on_c, 0, 72, 0
2, 9600, Note_on_c, 0, 71, 57
2, 9600, Note_on_c, 0, 69, 47
2, 9840, Note_on_c, 0, 71, 0
2, 9840, Note_on_c, 0, 77, 58
2, 10200, Note_on_c, 0, 77, 0
2, 10200, Note_on_c, 0, 78, 59
2, 10320, Note_on_c, 0, 78, 0
2, 10320, Note_on_c, 0, 69, 0
2, 10320, Note_on_c, 0, 81, 61
2, 10680, Note_on_c, 0, 81, 0
2, 10680, Note_on_c, 0, 80, 57
2, 10800, Note_on_c, 0, 80, 0
2, 10800, Note_on_c, 0, 83, 42
2, 10800, Note_on_c, 0, 71, 38
2, 10800, Note_on_c, 0, 78, 55
2, 11040, Note_on_c, 0, 78, 0
2, 11040, Note_on_c, 0, 76, 52
2, 11400, Note_on_c, 0, 76, 0
2, 11400, Note_on_c, 0, 75, 50
2, 11514, Note_on_c, 0, 76, 50
2, 11520, Note_on_c, 0, 75, 0
2, 11754, Note_on_c, 0, 76, 0
2, 11760, Note_on_c, 0, 83, 0
2, 11880, Note_on_c, 0, 71, 0
2, 11880, Note_on_c, 0, 65, 49
2, 11880, Note_on_c, 0, 68, 58
2, 12000, Note_on_c, 0, 68, 0
2, 12000, Note_on_c, 0, 65, 0
2, 12000, Note_on_c, 0, 66, 50
2, 12000, Note_on_c, 0, 69, 60
2, 12240, Note_on_c, 0, 69, 0
2, 12240, Note_on_c, 0, 66, 0
2, 12240, Note_on_c, 0, 66, 47
2, 12240, Note_on_c, 0, 69, 56
2, 12600, Note_on_c, 0, 69, 0
2, 12600, Note_on_c, 0, 66, 0
2, 12600, Note_on_c, 0, 64, 44
2, 12600, Note_on_c, 0, 73, 52
2, 12720, Note_on_c, 0, 73, 0
2, 12720, Note_on_c, 0, 64, 0
2, 12720, Note_on_c, 0, 63, 47
2, 12720, Note_on_c, 0, 71, 56
2, 13080, Note_on_c, 0, 71, 0
2, 13080, Note_on_c, 0, 63, 0
2, 13080, Note_on_c, 0, 67, 51
2, 13080, Note_on_c, 0, 63, 42
2, 13200, Note_on_c, 0, 63, 0
2, 13200, Note_on_c, 0, 67, 0
2, 13200, Note_on_c, 0, 64, 47
2, 13200, Note_on_c, 0, 68, 56
2, 13440, Note_on_c, 0, 68, 0
2, 13440, Note_on_c, 0, 64, 0
2, 13440, Note_on_c, 0, 68, 49
2, 13440, Note_on_c, 0, 71, 58
2, 13800, Note_on_c, 0, 71, 0
2, 13800, Note_on_c, 0, 68, 0
2, 13800, Note_on_c, 0, 80, 60
2, 13800, Note_on_c, 0, 76, 50
2, 13920, Note_on_c, 0, 76, 0
2, 13920, Note_on_c, 0, 80, 0
2, 13920, Note_on_c, 0, 78, 55
2, 13920, Note_on_c, 0, 75, 46
2, 14280, Note_on_c, 0, 75, 0
2, 14280, Note_on_c, 0, 78, 0
2, 14280, Note_on_c, 0, 76, 52
2, 14280, Note_on_c, 0, 73, 44
2, 14400, Note_on_c, 0, 73, 0
2, 14400, Note_on_c, 0, 76, 0
2, 14400, Note_on_c, 0, 75, 56
2, 14400, Note_on_c, 0, 71, 47
2, 14480, Note_on_c, 0, 71, 0
2, 14480, Note_on_c, 0, 75, 0
2, 14480, Note_on_c, 0, 76, 48
2, 14480, Note_on_c, 0, 73, 40
2, 14560, Note_on_c, 0, 73, 0
2, 14560, Note_on_c, 0, 76, 0
2, 14560, Note_on_c, 0, 75, 48
2, 14560, Note_on_c, 0, 71, 40
2, 14640, Note_on_c, 0, 71, 0
2, 14640, Note_on_c, 0, 75, 0
2, 14640, Note_on_c, 0, 73, 53
2, 14640, Note_on_c, 0, 69, 45
2, 15000, Note_on_c, 0, 69, 0
2, 15000, Note_on_c, 0, 73, 0
2, 15000, Note_on_c, 0, 75, 52
2, 15000, Note_on_c, 0, 71, 44
2, 15120, Note_on_c, 0, 71, 0
2, 15120, Note_on_c, 0, 75, 0
2, 15120, Note_on_c, 0, 73, 47
2, 15120, Note_on_c, 0, 76, 56
2, 15480, Note_on_c, 0, 76, 0
2, 15480, Note_on_c, 0, 73, 0
2, 15480, Note_on_c, 0, 73, 52
2, 15480, Note_on_c, 0, 69, 44
2, 15600, Note_on_c, 0, 69, 0
2, 15600, Note_on_c, 0, 73, 0
2, 15600, Note_on_c, 0, 68, 40
2, 15600, Note_on_c, 0, 71, 48
2, 16320, Note_on_c, 0, 71, 0
2, 16320, Note_on_c, 0, 68, 0
2, 16800, Note_on_c, 0, 76, 52
2, 16800, Note_on_c, 0, 81, 65
2, 17040, Note_on_c, 0, 81, 0
2, 17040, Note_on_c, 0, 79, 61
2, 17400, Note_on_c, 0, 79, 0
2, 17400, Note_on_c, 0, 81, 61
2, 17520, Note_on_c, 0, 81, 0
2, 17520, Note_on_c, 0, 76, 0
2, 17520, Note_on_c, 0, 84, 57
2, 17526, Note_on_c, 0, 79, 51
2, 17880, Note_on_c, 0, 84, 0
2, 17880, Note_on_c, 0, 77, 50
2, 18000, Note_on_c, 0, 77, 0
2, 18000, Note_on_c, 0, 80, 57
2, 18000, Note_on_c, 0, 75, 48
2, 18006, Note_on_c, 0, 79, 0
2, 18240, Note_on_c, 0, 80, 0
2, 18240, Note_on_c, 0, 78, 51
2, 18600, Note_on_c, 0, 78, 0
2, 18600, Note_on_c, 0, 80, 51
2, 18720, Note_on_c, 0, 80, 0
2, 18720, Note_on_c, 0, 75, 0
2, 18720, Note_on_c, 0, 78, 44
2, 18720, Note_on_c, 0, 83, 47
2, 19080, Note_on_c, 0, 83, 0
2, 19080, Note_on_c, 0, 76, 50
2, 19200, Note_on_c, 0, 76, 0
2, 19200, Note_on_c, 0, 78, 0
2, 19200, Note_on_c, 0, 77, 56
2, 19200, Note_on_c, 0, 74, 49
2, 19440, Note_on_c, 0, 74, 0
2, 19440, Note_on_c, 0, 77, 0
2, 19440, Note_on_c, 0, 78, 55
2, 19440, Note_on_c, 0, 73, 49
2, 19800, Note_on_c, 0, 73, 0
2, 19800, Note_on_c, 0, 78, 0
2, 19800, Note_on_c, 0, 80, 55
2, 19800, Note_on_c, 0, 74, 55
2, 19920, Note_on_c, 0, 74, 0
2, 19920, Note_on_c, 0, 80, 0
2, 19920, Note_on_c, 0, 81, 58
2, 19920, Note_on_c, 0, 73, 48
2, 20400, Note_on_c, 0, 73, 0
2, 20400, Note_on_c, 0, 81, 0
2, 20400, Note_on_c, 0, 78, 60
2, 20400, Note_on_c, 0, 75, 50
2, 20640, Note_on_c, 0, 75, 0
2, 20640, Note_on_c, 0, 78, 0
2, 20640, Note_on_c, 0, 81, 58
2, 20640, Note_on_c, 0, 75, 49
2, 21000, Note_on_c, 0, 75, 0
2, 21000, Note_on_c, 0, 81, 0
2, 21000, Note_on_c, 0, 80, 53
2, 21000, Note_on_c, 0, 75, 45
2, 21120, Note_on_c, 0, 75, 0
2, 21120, Note_on_c, 0, 80, 0
2, 21120, Note_on_c, 0, 76, 55
2, 21120, Note_on_c, 0, 71, 42
2, 21600, Note_on_c, 0, 71, 0
2, 21600, Note_on_c, 0, 76, 0
2, 21600, Note_on_c, 0, 69, 60
2, 21600, Note_on_c, 0, 66, 50
2, 21840, Note_on_c, 0, 66, 0
2, 21840, Note_on_c, 0, 69, 0
2, 21840, Note_on_c, 0, 69, 56
2, 21840, Note_on_c, 0, 66, 47
2, 22200, Note_on_c, 0, 66, 0
2, 22200, Note_on_c, 0, 69, 0
2, 22200, Note_on_c, 0, 73, 52
2, 22200, Note_on_c, 0, 64, 44
2, 22320, Note_on_c, 0, 64, 0
2, 22320, Note_on_c, 0, 73, 0
2, 22320, Note_on_c, 0, 71, 56
2, 22320, Note_on_c, 0, 63, 47
2, 22680, Note_on_c, 0, 63, 0
2, 22680, Note_on_c, 0, 71, 0
2, 22680, Note_on_c, 0, 63, 42
2, 22680, Note_on_c, 0, 67, 51
2, 22800, Note_on_c, 0, 67, 0
2, 22800, Note_on_c, 0, 63, 0
2, 22800, Note_on_c, 0, 68, 56
2, 22800, Note_on_c, 0, 64, 47
2, 23040, Note_on_c, 0, 64, 0
2, 23040, Note_on_c, 0, 68, 0
2, 23040, Note_on_c, 0, 71, 58
2, 23040, Note_on_c, 0, 68, 49
2, 23400, Note_on_c, 0, 68, 0
2, 23400, Note_on_c, 0, 71, 0
2, 23400, Note_on_c, 0, 76, 50
2, 23400, Note_on_c, 0, 80, 60
2, 23520, Note_on_c, 0, 80, 0
2, 23520, Note_on_c, 0, 76, 0
2, 23520, Note_on_c, 0, 75, 46
2, 23520, Note_on_c, 0, 78, 55
2, 23880, Note_on_c, 0, 78, 0
2, 23880, Note_on_c, 0, 75, 0
2, 23880, Note_on_c, 0, 76, 52
2, 23880, Note_on_c, 0, 73, 44
2, 24000, Note_on_c, 0, 73, 0
2, 24000, Note_on_c, 0, 76, 0
2, 24000, Note_on_c, 0, 71, 47
2, 24000, Note_on_c, 0, 75, 56
2, 24080, Note_on_c, 0, 75, 0
2, 24080, Note_on_c, 0, 71, 0
2, 24080, Note_on_c, 0, 73, 40
2, 24080, Note_on_c, 0, 76, 48
2, 24160, Note_on_c, 0, 76, 0
2, 24160, Note_on_c, 0, 73, 0
2, 24160, Note_on_c, 0, 71, 40
2, 24160, Note_on_c, 0, 75, 48
2, 24240, Note_on_c, 0, 75, 0
2, 24240, Note_on_c, 0, 71, 0
2, 24240, Note_on_c, 0, 69, 45
2, 24240, Note_on_c, 0, 73, 53
2, 24600, Note_on_c, 0, 73, 0
2, 24600, Note_on_c, 0, 69, 0
2, 24600, Note_on_c, 0, 71, 44
2, 24600, Note_on_c, 0, 75, 52
2, 24720, Note_on_c, 0, 75, 0
2, 24720, Note_on_c, 0, 71, 0
2, 24720, Note_on_c, 0, 73, 47
2, 24720, Note_on_c, 0, 76, 56
2, 25080, Note_on_c, 0, 76, 0
2, 25080, Note_on_c, 0, 73, 0
2, 25080, Note_on_c, 0, 69, 44
2, 25080, Note_on_c, 0, 73, 52
2, 25200, Note_on_c, 0, 73, 0
2, 25200, Note_on_c, 0, 69, 0
2, 25200, Note_on_c, 0, 68, 40
2, 25200, Note_on_c, 0, 71, 48
2, 25920, Note_on_c, 0, 71, 0
2, 25920, Note_on_c, 0, 68, 0
2, 26400, Note_on_c, 0, 77, 56
2, 26400, Note_on_c, 0, 71, 49
2, 26640, Note_on_c, 0, 71, 0
2, 26640, Note_on_c, 0, 77, 0
2, 26640, Note_on_c, 0, 78, 55
2, 26640, Note_on_c, 0, 73, 49
2, 27000, Note_on_c, 0, 73, 0
2, 27000, Note_on_c, 0, 78, 0
2, 27000, Note_on_c, 0, 80, 55
2, 27000, Note_on_c, 0, 74, 55
2, 27060, Note_on_c, 0, 83, 50
2, 27120, Note_on_c, 0, 74, 0
2, 27120, Note_on_c, 0, 80, 0
2, 27120, Note_on_c, 0, 77, 46
2, 27120, Note_on_c, 0, 81, 55
2, 27140, Note_on_c, 0, 83, 0
2, 27480, Note_on_c, 0, 81, 0
2, 27480, Note_on_c, 0, 80, 57
2, 27600, Note_on_c, 0, 80, 0
2, 27600, Note_on_c, 0, 77, 0
2, 27600, Note_on_c, 0, 85, 46
2, 27600, Note_on_c, 0, 73, 43
2, 27600, Note_on_c, 0, 80, 60
2, 27840, Note_on_c, 0, 80, 0
2, 27840, Note_on_c, 0, 78, 58
2, 28200, Note_on_c, 0, 78, 0
2, 28200, Note_on_c, 0, 77, 51
2, 28320, Note_on_c, 0, 77, 0
2, 28320, Note_on_c, 0, 73, 0
2, 28320, Note_on_c, 0, 85, 0
2, 28320, Note_on_c, 0, 78, 55
2, 28680, Note_on_c, 0, 78, 0
2, 28680, Note_on_c, 0, 72, 55
2, 28680, Note_on_c, 0, 69, 55
2, 28800, Note_on_c, 0, 69, 0
2, 28800, Note_on_c, 0, 72, 0
2, 28800, Note_on_c, 0, 69, 47
2, 28800, Note_on_c, 0, 71, 57
2, 29040, Note_on_c, 0, 71, 0
2, 29040, Note_on_c, 0, 77, 58
2, 29400, Note_on_c, 0, 77, 0
2, 29400, Note_on_c, 0, 78, 59
2, 29520, Note_on_c, 0, 78, 0
2, 29520, Note_on_c, 0, 69, 0
2, 29520, Note_on_c, 0, 75, 47
2, 29520, Note_on_c, 0, 81, 62
2, 29880, Note_on_c, 0, 81, 0
2, 29880, Note_on_c, 0, 80, 57
2, 30000, Note_on_c, 0, 80, 0
2, 30000, Note_on_c, 0, 75, 0
2, 30000, Note_on_c, 0, 83, 40
2, 30000, Note_on_c, 0, 71, 39
2, 30000, Note_on_c, 0, 78, 55
2, 30240, Note_on_c, 0, 78, 0
2, 30240, Note_on_c, 0, 76, 52
2, 30600, Note_on_c, 0, 76, 0
2, 30600, Note_on_c, 0, 75, 50
2, 30714, Note_on_c, 0, 76, 50
2, 30720, Note_on_c, 0, 75, 0
2, 30954, Note_on_c, 0, 76, 0
2, 30960, Note_on_c, 0, 83, 0
2, 31080, Note_on_c, 0, 71, 0
2, 31080, Note_on_c, 0, 68, 58
2, 31080, Note_on_c, 0, 64, 49
2, 31200, Note_on_c, 0, 64, 0
2, 31200, Note_on_c, 0, 68, 0
2, 31200, Note_on_c, 0, 69, 60
2, 31200, Note_on_c, 0, 66, 50
2, 31440, Note_on_c, 0, 66, 0
2, 31440, Note_on_c, 0, 69, 0
2, 31440, Note_on_c, 0, 66, 47
2, 31440, Note_on_c, 0, 69, 56
2, 31800, Note_on_c, 0, 69, 0
2, 31800, Note_on_c, 0, 66, 0
2, 31800, Note_on_c, 0, 64, 44
2, 31800, Note_on_c, 0, 73, 52
2, 31920, Note_on_c, 0, 73, 0
2, 31920, Note_on_c, 0, 64, 0
2, 31920, Note_on_c, 0, 63, 47
2, 31920, Note_on_c, 0, 71, 56
2, 32280, Note_on_c, 0, 71, 0
2, 32280, Note_on_c, 0, 63, 0
2, 32280, Note_on_c, 0, 67, 51
2, 32280, Note_on_c, 0, 63, 42
2, 32400, Note_on_c, 0, 63, 0
2, 32400, Note_on_c, 0, 67, 0
2, 32400, Note_on_c, 0, 64, 47
2, 32400, Note_on_c, 0, 68, 56
2, 32640, Note_on_c, 0, 68, 0
2, 32640, Note_on_c, 0, 64, 0
2, 32640, Note_on_c, 0, 68, 49
2, 32640, Note_on_c, 0, 71, 58
2, 33000, Note_on_c, 0, 71, 0
2, 33000, Note_on_c, 0, 68, 0
2, 33000, Note_on_c, 0, 80, 60
2, 33000, Note_on_c, 0, 76, 50
2, 33120, Note_on_c, 0, 76, 0
2, 33120, Note_on_c, 0, 80, 0
2, 33120, Note_on_c, 0, 75, 46
2, 33120, Note_on_c, 0, 78, 55
2, 33480, Note_on_c, 0, 78, 0
2, 33480, Note_on_c, 0, 75, 0
2, 33480, Note_on_c, 0, 76, 52
2, 33480, Note_on_c, 0, 73, 44
2, 33600, Note_on_c, 0, 73, 0
2, 33600, Note_on_c, 0, 76, 0
2, 33600, Note_on_c, 0, 75, 56
2, 33600, Note_on_c, 0, 71, 47
2, 33680, Note_on_c, 0, 71, 0
2, 33680, Note_on_c, 0, 75, 0
2, 33680, Note_on_c, 0, 76, 48
2, 33680, Note_on_c, 0, 73, 40
2, 33760, Note_on_c, 0, 73, 0
2, 33760, Note_on_c, 0, 76, 0
2, 33760, Note_on_c, 0, 75, 48
2, 33760, Note_on_c, 0, 71, 40
2, 33840, Note_on_c, 0, 71, 0
2, 33840, Note_on_c, 0, 75, 0
2, 33840, Note_on_c, 0, 73, 53
2, 33840, Note_on_c, 0, 69, 45
2, 34200, Note_on_c, 0, 69, 0
2, 34200, Note_on_c, 0, 73, 0
2, 34200, Note_on_c, 0, 75, 52
2, 34200, Note_on_c, 0, 71, 44
2, 34320, Note_on_c, 0, 71, 0
2, 34320, Note_on_c, 0, 75, 0
2, 34320, Note_on_c, 0, 76, 56
2, 34320, Note_on_c, 0, 73, 47
2, 34680, Note_on_c, 0, 73, 0
2, 34680, Note_on_c, 0, 76, 0
2, 34680, Note_on_c, 0, 69, 44
2, 34680, Note_on_c, 0, 73, 52
2, 34800, Note_on_c, 0, 73, 0
2, 34800, Note_on_c, 0, 69, 0
2, 34800, Note_on_c, 0, 71, 48
2, 34800, Note_on_c, 0, 68, 40
2, 35520, Note_on_c, 0, 68, 0
2, 35520, Note_on_c, 0, 71, 0
2, 36000, Note_on_c, 0, 76, 53
2, 36000, Note_on_c, 0, 81, 67
2, 36240, Note_on_c, 0, 81, 0
2, 36240, Note_on_c, 0, 79, 61
2, 36600, Note_on_c, 0, 79, 0
2, 36600, Note_on_c, 0, 81, 61
2, 36720, Note_on_c, 0, 81, 0
2, 36720, Note_on_c, 0, 76, 0
2, 36720, Note_on_c, 0, 84, 53
2, 36726, Note_on_c, 0, 79, 61
2, 37080, Note_on_c, 0, 84, 0
2, 37080, Note_on_c, 0, 77, 50
2, 37200, Note_on_c, 0, 77, 0
2, 37200, Note_on_c, 0, 80, 57
2, 37200, Note_on_c, 0, 75, 46
2, 37206, Note_on_c, 0, 79, 0
2, 37440, Note_on_c, 0, 80, 0
2, 37440, Note_on_c, 0, 78, 51
2, 37800, Note_on_c, 0, 78, 0
2, 37800, Note_on_c, 0, 80, 51
2, 37920, Note_on_c, 0, 80, 0
2, 37920, Note_on_c, 0, 75, 0
2, 37920, Note_on_c, 0, 83, 45
2, 37920, Note_on_c, 0, 78, 47
2, 38280, Note_on_c, 0, 83, 0
2, 38280, Note_on_c, 0, 76, 50
2, 38400, Note_on_c, 0, 76, 0
2, 38400, Note_on_c, 0, 78, 0
2, 38400, Note_on_c, 0, 74, 49
2, 38400, Note_on_c, 0, 77, 56
2, 38640, Note_on_c, 0, 77, 0
2, 38640, Note_on_c, 0, 74, 0
2, 38640, Note_on_c, 0, 78, 55
2, 38640, Note_on_c, 0, 73, 49
2, 39000, Note_on_c, 0, 73, 0
2, 39000, Note_on_c, 0, 78, 0
2, 39000, Note_on_c, 0, 80, 55
2, 39000, Note_on_c, 0, 74, 55
2, 39120, Note_on_c, 0, 74, 0
2, 39120, Note_on_c, 0, 80, 0
2, 39120, Note_on_c, 0, 81, 58
2, 39120, Note_on_c, 0, 73, 49
2, 39600, Note_on_c, 0, 73, 0
2, 39600, Note_on_c, 0, 81, 0
2, 39600, Note_on_c, 0, 78, 60
2, 39600, Note_on_c, 0, 75, 50
2, 39840, Note_on_c, 0, 75, 0
2, 39840, Note_on_c, 0, 78, 0
2, 39840, Note_on_c, 0, 81, 58
2, 39840, Note_on_c, 0, 75, 49
2, 40200, Note_on_c, 0, 75, 0
2, 40200, Note_on_c, 0, 81, 0
2, 40200, Note_on_c, 0, 80, 53
2, 40200, Note_on_c, 0, 75, 45
2, 40320, Note_on_c, 0, 75, 0
2, 40320, Note_on_c, 0, 80, 0
2, 40320, Note_on_c, 0, 76, 55
2, 40320, Note_on_c, 0, 71, 42
2, 40800, Note_on_c, 0, 71, 0
2, 40800, Note_on_c, 0, 76, 0
2, 41040, Note_on_c, 0, 75, 37
2, 41040, Note_on_c, 0, 71, 37
2, 41040, Note_on_c, 0, 66, 30
2, 41040, Note_on_c, 0, 63, 30
2, 41520, Note_on_c, 0, 63, 0
2, 41520, Note_on_c, 0, 75, 0
2, 41520, Note_on_c, 0, 71, 0
2, 41520, Note_on_c, 0, 66, 0
2, 41520, Note_on_c, 0, 75, 37
2, 41520, Note_on_c, 0, 71, 37
2, 41520, Note_on_c, 0, 66, 30
2, 41520, Note_on_c, 0, 63, 30
2, 42000, Note_on_c, 0, 63, 0
2, 42000, Note_on_c, 0, 75, 0
2, 42000, Note_on_c, 0, 71, 0
2, 42000, Note_on_c, 0, 66, 0
2, 42240, Note_on_c, 0, 75, 37
2, 42240, Note_on_c, 0, 71, 37
2, 42240, Note_on_c, 0, 66, 30
2, 42240, Note_on_c, 0, 63, 30
2, 42720, Note_on_c, 0, 63, 0
2, 42720, Note_on_c, 0, 75, 0
2, 42720, Note_on_c, 0, 71, 0
2, 42720, Note_on_c, 0, 66, 0
2, 42720, Note_on_c, 0, 75, 37
2, 42720, Note_on_c, 0, 71, 37
2, 42720, Note_on_c, 0, 66, 30
2, 42720, Note_on_c, 0, 63, 30
2, 43200, Note_on_c, 0, 63, 0
2, 43200, Note_on_c, 0, 75, 0
2, 43200, Note_on_c, 0, 71, 0
2, 43200, Note_on_c, 0, 66, 0
2, 43440, Note_on_c, 0, 75, 37
2, 43440, Note_on_c, 0, 71, 37
2, 43440, Note_on_c, 0, 66, 30
2, 43440, Note_on_c, 0, 63, 30
2, 43920, Note_on_c, 0, 63, 0
2, 43920, Note_on_c, 0, 75, 0
2, 43920, Note_on_c, 0, 71, 0
2, 43920, Note_on_c, 0, 66, 0
2, 43920, Note_on_c, 0, 75, 37
2, 43920, Note_on_c, 0, 71, 37
2, 43920, Note_on_c, 0, 66, 30
2, 43920, Note_on_c, 0, 63, 30
2, 44400, Note_on_c, 0, 63, 0
2, 44400, Note_on_c, 0, 75, 0
2, 44400, Note_on_c, 0, 71, 0
2, 44400, Note_on_c, 0, 66, 0
2, 44640, Note_on_c, 0, 62, 52
2, 45000, Note_on_c, 0, 62, 0
2, 45000, Note_on_c, 0, 63, 51
2, 45120, Note_on_c, 0, 63, 0
2, 45120, Note_on_c, 0, 66, 56
2, 45480, Note_on_c, 0, 66, 0
2, 45480, Note_on_c, 0, 71, 56
2, 45600, Note_on_c, 0, 71, 0
2, 45600, Note_on_c, 0, 69, 57
2, 45600, Note_on_c, 0, 78, 63
2, 45840, Note_on_c, 0, 78, 0
2, 45840, Note_on_c, 0, 76, 62
2, 46200, Note_on_c, 0, 76, 0
2, 46200, Note_on_c, 0, 75, 59
2, 46260, Note_on_c, 0, 75, 0
2, 46260, Note_on_c, 0, 75, 50
2, 46290, Note_on_c, 0, 75, 0
2, 46290, Note_on_c, 0, 78, 50
2, 46320, Note_on_c, 0, 78, 0
2, 46320, Note_on_c, 0, 76, 58
2, 46680, Note_on_c, 0, 76, 0
2, 46680, Note_on_c, 0, 75, 55
2, 46800, Note_on_c, 0, 75, 0
2, 46800, Note_on_c, 0, 69, 0
2, 46800, Note_on_c, 0, 68, 51
2, 46800, Note_on_c, 0, 72, 59
2, 47040, Note_on_c, 0, 72, 0
2, 47040, Note_on_c, 0, 73, 56
2, 47400, Note_on_c, 0, 73, 0
2, 47400, Note_on_c, 0, 76, 59
2, 47520, Note_on_c, 0, 76, 0
2, 47520, Note_on_c, 0, 68, 0
2, 47520, Note_on_c, 0, 80, 64
2, 47880, Note_on_c, 0, 80, 0
2, 47880, Note_on_c, 0, 83, 61
2, 48000, Note_on_c, 0, 83, 0
2, 48000, Note_on_c, 0, 83, 62
2, 48000, Note_on_c, 0, 87, 70
2, 48240, Note_on_c, 0, 87, 0
2, 48240, Note_on_c, 0, 83, 0
2, 48240, Note_on_c, 0, 82, 55
2, 48240, Note_on_c, 0, 85, 61
2, 48600, Note_on_c, 0, 85, 0
2, 48600, Note_on_c, 0, 82, 0
2, 48600, Note_on_c, 0, 78, 53
2, 48600, Note_on_c, 0, 82, 60
2, 48720, Note_on_c, 0, 82, 0
2, 48720, Note_on_c, 0, 78, 0
2, 48720, Note_on_c, 0, 76, 58
2, 48720, Note_on_c, 0, 80, 64
2, 49080, Note_on_c, 0, 80, 0
2, 49080, Note_on_c, 0, 76, 0
2, 49080, Note_on_c, 0, 74, 49
2, 49080, Note_on_c, 0, 77, 56
2, 49200, Note_on_c, 0, 77, 0
2, 49200, Note_on_c, 0, 74, 0
2, 49200, Note_on_c, 0, 75, 52
2, 49200, Note_on_c, 0, 78, 59
2, 50400, Note_on_c, 0, 78, 0
2, 50400, Note_on_c, 0, 75, 0
2, 50640, Note_on_c, 0, 78, 33
2, 50640, Note_on_c, 0, 74, 33
2, 50640, Note_on_c, 0, 71, 27
2, 50640, Note_on_c, 0, 66, 27
2, 51120, Note_on_c, 0, 66, 0
2, 51120, Note_on_c, 0, 78, 0
2, 51120, Note_on_c, 0, 74, 0
2, 51120, Note_on_c, 0, 71, 0
2, 51120, Note_on_c, 0, 78, 33
2, 51120, Note_on_c, 0, 74, 33
2, 51120, Note_on_c, 0, 71, 27
2, 51120, Note_on_c, 0, 66, 27
2, 51600, Note_on_c, 0, 66, 0
2, 51600, Note_on_c, 0, 78, 0
2, 51600, Note_on_c, 0, 74, 0
2, 51600, Note_on_c, 0, 71, 0
2, 51840, Note_on_c, 0, 78, 33
2, 51840, Note_on_c, 0, 74, 33
2, 51840, Note_on_c, 0, 71, 27
2, 51840, Note_on_c, 0, 66, 27
2, 52320, Note_on_c, 0, 66, 0
2, 52320, Note_on_c, 0, 78, 0
2, 52320, Note_on_c, 0, 74, 0
2, 52320, Note_on_c, 0, 71, 0
2, 52320, Note_on_c, 0, 78, 33
2, 52320, Note_on_c, 0, 74, 33
2, 52320, Note_on_c, 0, 71, 27
2, 52320, Note_on_c, 0, 66, 27
2, 52800, Note_on_c, 0, 66, 0
2, 52800, Note_on_c, 0, 78, 0
2, 52800, Note_on_c, 0, 74, 0
2, 52800, Note_on_c, 0, 71, 0
2, 53040, Note_on_c, 0, 78, 33
2, 53040, Note_on_c, 0, 74, 33
2, 53040, Note_on_c, 0, 71, 27
2, 53040, Note_on_c, 0, 68, 27
2, 53520, Note_on_c, 0, 68, 0
2, 53520, Note_on_c, 0, 78, 0
2, 53520, Note_on_c, 0, 74, 0
2, 53520, Note_on_c, 0, 71, 0
2, 53520, Note_on_c, 0, 81, 51
2, 53520, Note_on_c, 0, 76, 39
2, 53520, Note_on_c, 0, 73, 39
2, 53880, Note_on_c, 0, 81, 0
2, 53880, Note_on_c, 0, 79, 46
2, 54000, Note_on_c, 0, 79, 0
2, 54000, Note_on_c, 0, 73, 0
2, 54000, Note_on_c, 0, 76, 0
2, 54000, Note_on_c, 0, 74, 47
2, 54000, Note_on_c, 0, 78, 52
2, 54720, Note_on_c, 0, 78, 0
2, 54720, Note_on_c, 0, 74, 0
2, 55200, Note_on_c, 0, 72, 56
2, 55200, Note_on_c, 0, 78, 56
2, 55200, Note_on_c, 0, 81, 67
2, 55440, Note_on_c, 0, 81, 0
2, 55440, Note_on_c, 0, 78, 0
2, 55440, Note_on_c, 0, 72, 0
2, 55440, Note_on_c, 0, 71, 54
2, 55440, Note_on_c, 0, 76, 54
2, 55440, Note_on_c, 0, 80, 64
2, 55800, Note_on_c, 0, 80, 0
2, 55800, Note_on_c, 0, 76, 0
2, 55800, Note_on_c, 0, 71, 0
2, 55800, Note_on_c, 0, 73, 53
2, 55800, Note_on_c, 0, 76, 53
2, 55800, Note_on_c, 0, 79, 63
2, 55920, Note_on_c, 0, 79, 0
2, 55920, Note_on_c, 0, 76, 0
2, 55920, Note_on_c, 0, 73, 0
2, 55920, Note_on_c, 0, 74, 56
2, 55920, Note_on_c, 0, 78, 67
2, 56280, Note_on_c, 0, 78, 0
2, 56280, Note_on_c, 0, 74, 0
2, 56280, Note_on_c, 0, 78, 52
2, 56280, Note_on_c, 0, 83, 62
2, 56400, Note_on_c, 0, 83, 0
2, 56400, Note_on_c, 0, 78, 0
2, 56400, Note_on_c, 0, 71, 65
2, 56400, Note_on_c, 0, 77, 65
2, 56400, Note_on_c, 0, 83, 77
2, 56640, Note_on_c, 0, 83, 0
2, 56640, Note_on_c, 0, 77, 0
2, 56640, Note_on_c, 0, 71, 0
2, 56640, Note_on_c, 0, 71, 60
2, 56640, Note_on_c, 0, 76, 60
2, 56640, Note_on_c, 0, 83, 72
2, 57000, Note_on_c, 0, 83, 0
2, 57000, Note_on_c, 0, 76, 0
2, 57000, Note_on_c, 0, 71, 0
2, 57000, Note_on_c, 0, 71, 60
2, 57000, Note_on_c, 0, 73, 60
2, 57000, Note_on_c, 0, 83, 72
2, 57120, Note_on_c, 0, 83, 0
2, 57120, Note_on_c, 0, 73, 0
2, 57120, Note_on_c, 0, 71, 0
2, 57120, Note_on_c, 0, 71, 61
2, 57120, Note_on_c, 0, 74, 61
2, 57120, Note_on_c, 0, 83, 73
2, 57600, Note_on_c, 0, 83, 0
2, 57600, Note_on_c, 0, 74, 0
2, 57600, Note_on_c, 0, 71, 0
2, 57600, Note_on_c, 0, 67, 48
2, 57600, Note_on_c, 0, 71, 48
2, 57600, Note_on_c, 0, 73, 57
2, 57840, Note_on_c, 0, 73, 0
2, 57840, Note_on_c, 0, 71, 0
2, 57840, Note_on_c, 0, 67, 0
2, 57840, Note_on_c, 0, 67, 46
2, 57840, Note_on_c, 0, 71, 46
2, 57840, Note_on_c, 0, 73, 55
2, 58200, Note_on_c, 0, 73, 0
2, 58200, Note_on_c, 0, 71, 0
2, 58200, Note_on_c, 0, 67, 0
2, 58200, Note_on_c, 0, 67, 51
2, 58200, Note_on_c, 0, 71, 51
2, 58200, Note_on_c, 0, 74, 60
2, 58320, Note_on_c, 0, 74, 0
2, 58320, Note_on_c, 0, 71, 0
2, 58320, Note_on_c, 0, 67, 0
2, 58320, Note_on_c, 0, 67, 53
2, 58320, Note_on_c, 0, 71, 53
2, 58320, Note_on_c, 0, 76, 62
2, 58680, Note_on_c, 0, 76, 0
2, 58680, Note_on_c, 0, 79, 64
2, 58800, Note_on_c, 0, 79, 0
2, 58800, Note_on_c, 0, 71, 0
2, 58800, Note_on_c, 0, 67, 0
2, 58800, Note_on_c, 0, 70, 53
2, 58800, Note_on_c, 0, 74, 62
2, 59040, Note_on_c, 0, 74, 0
2, 59040, Note_on_c, 0, 70, 0
2, 59040, Note_on_c, 0, 70, 38
2, 59040, Note_on_c, 0, 73, 55
2, 59400, Note_on_c, 0, 73, 0
2, 59400, Note_on_c, 0, 70, 0
2, 59400, Note_on_c, 0, 70, 36
2, 59400, Note_on_c, 0, 74, 50
2, 59520, Note_on_c, 0, 74, 0
2, 59520, Note_on_c, 0, 70, 0
2, 59520, Note_on_c, 0, 66, 33
2, 59520, Note_on_c, 0, 71, 52
2, 60000, Note_on_c, 0, 71, 0
2, 60000, Note_on_c, 0, 66, 0
2, 60240, Note_on_c, 0, 75, 37
2, 60240, Note_on_c, 0, 71, 37
2, 60240, Note_on_c, 0, 66, 30
2, 60240, Note_on_c, 0, 63, 30
2, 60720, Note_on_c, 0, 63, 0
2, 60720, Note_on_c, 0, 75, 0
2, 60720, Note_on_c, 0, 71, 0
2, 60720, Note_on_c, 0, 66, 0
2, 60720, Note_on_c, 0, 75, 37
2, 60720, Note_on_c, 0, 71, 37
2, 60720, Note_on_c, 0, 66, 30
2, 60720, Note_on_c, 0, 63, 30
2, 61200, Note_on_c, 0, 63, 0
2, 61200, Note_on_c, 0, 75, 0
2, 61200, Note_on_c, 0, 71, 0
2, 61200, Note_on_c, 0, 66, 0
2, 61440, Note_on_c, 0, 75, 37
2, 61440, Note_on_c, 0, 71, 37
2, 61440, Note_on_c, 0, 66, 30
2, 61440, Note_on_c, 0, 63, 30
2, 61920, Note_on_c, 0, 63, 0
2, 61920, Note_on_c, 0, 75, 0
2, 61920, Note_on_c, 0, 71, 0
2, 61920, Note_on_c, 0, 66, 0
2, 61920, Note_on_c, 0, 75, 37
2, 61920, Note_on_c, 0, 71, 37
2, 61920, Note_on_c, 0, 66, 30
2, 61920, Note_on_c, 0, 63, 30
2, 62400, Note_on_c, 0, 63, 0
2, 62400, Note_on_c, 0, 75, 0
2, 62400, Note_on_c, 0, 71, 0
2, 62400, Note_on_c, 0, 66, 0
2, 62640, Note_on_c, 0, 75, 37
2, 62640, Note_on_c, 0, 71, 37
2, 62640, Note_on_c, 0, 66, 30
2, 62640, Note_on_c, 0, 63, 30
2, 63120, Note_on_c, 0, 63, 0
2, 63120, Note_on_c, 0, 75, 0
2, 63120, Note_on_c, 0, 71, 0
2, 63120, Note_on_c, 0, 66, 0
2, 63120, Note_on_c, 0, 75, 37
2, 63120, Note_on_c, 0, 71, 37
2, 63120, Note_on_c, 0, 66, 30
2, 63120, Note_on_c, 0, 63, 30
2, 63600, Note_on_c, 0, 63, 0
2, 63600, Note_on_c, 0, 75, 0
2, 63600, Note_on_c, 0, 71, 0
2, 63600, Note_on_c, 0, 66, 0
2, 63840, Note_on_c, 0, 62, 52
2, 64200, Note_on_c, 0, 62, 0
2, 64200, Note_on_c, 0, 63, 51
2, 64320, Note_on_c, 0, 63, 0
2, 64320, Note_on_c, 0, 66, 56
2, 64680, Note_on_c, 0, 66, 0
2, 64680, Note_on_c, 0, 71, 56
2, 64800, Note_on_c, 0, 71, 0
2, 64800, Note_on_c, 0, 69, 57
2, 64800, Note_on_c, 0, 78, 63
2, 65040, Note_on_c, 0, 78, 0
2, 65040, Note_on_c, 0, 76, 62
2, 65400, Note_on_c, 0, 76, 0
2, 65400, Note_on_c, 0, 75, 59
2, 65460, Note_on_c, 0, 75, 0
2, 65460, Note_on_c, 0, 75, 50
2, 65490, Note_on_c, 0, 75, 0
2, 65490, Note_on_c, 0, 78, 50
2, 65520, Note_on_c, 0, 78, 0
2, 65520, Note_on_c, 0, 76, 58
2, 65880, Note_on_c, 0, 76, 0
2, 65880, Note_on_c, 0, 75, 55
2, 66000, Note_on_c, 0, 75, 0
2, 66000, Note_on_c, 0, 69, 0
2, 66000, Note_on_c, 0, 68, 51
2, 66000, Note_on_c, 0, 72, 59
2, 66240, Note_on_c, 0, 72, 0
2, 66240, Note_on_c, 0, 73, 56
2, 66600, Note_on_c, 0, 73, 0
2, 66600, Note_on_c, 0, 76, 59
2, 66720, Note_on_c, 0, 76, 0
2, 66720, Note_on_c, 0, 68, 0
2, 66720, Note_on_c, 0, 80, 64
2, 67080, Note_on_c, 0, 80, 0
2, 67080, Note_on_c, 0, 83, 61
2, 67200, Note_on_c, 0, 83, 0
2, 67200, Note_on_c, 0, 83, 62
2, 67200, Note_on_c, 0, 87, 70
2, 67440, Note_on_c, 0, 87, 0
2, 67440, Note_on_c, 0, 83, 0
2, 67440, Note_on_c, 0, 82, 55
2, 67440, Note_on_c, 0, 85, 61
2, 67800, Note_on_c, 0, 85, 0
2, 67800, Note_on_c, 0, 82, 0
2, 67800, Note_on_c, 0, 78, 53
2, 67800, Note_on_c, 0, 82, 60
2, 67920, Note_on_c, 0, 82, 0
2, 67920, Note_on_c, 0, 78, 0
2, 67920, Note_on_c, 0, 76, 58
2, 67920, Note_on_c, 0, 80, 64
2, 68280, Note_on_c, 0, 80, 0
2, 68280, Note_on_c, 0, 76, 0
2, 68280, Note_on_c, 0, 74, 49
2, 68280, Note_on_c, 0, 77, 56
2, 68400, Note_on_c, 0, 77, 0
2, 68400, Note_on_c, 0, 74, 0
2, 68400, Note_on_c, 0, 75, 52
2, 68400, Note_on_c, 0, 78, 59
2, 69600, Note_on_c, 0, 78, 0
2, 69600, Note_on_c, 0, 75, 0
2, 69840, Note_on_c, 0, 78, 33
2, 69840, Note_on_c, 0, 74, 33
2, 69840, Note_on_c, 0, 71, 27
2, 69840, Note_on_c, 0, 66, 27
2, 70320, Note_on_c, 0, 66, 0
2, 70320, Note_on_c, 0, 78, 0
2, 70320, Note_on_c, 0, 74, 0
2, 70320, Note_on_c, 0, 71, 0
2, 70320, Note_on_c, 0, 78, 33
2, 70320, Note_on_c, 0, 74, 33
2, 70320, Note_on_c, 0, 71, 27
2, 70320, Note_on_c, 0, 66, 27
2, 70800, Note_on_c, 0, 66, 0
2, 70800, Note_on_c, 0, 78, 0
2, 70800, Note_on_c, 0, 74, 0
2, 70800, Note_on_c, 0, 71, 0
2, 71040, Note_on_c, 0, 78, 33
2, 71040, Note_on_c, 0, 74, 33
2, 71040, Note_on_c, 0, 71, 27
2, 71040, Note_on_c, 0, 66, 27
2, 71520, Note_on_c, 0, 66, 0
2, 71520, Note_on_c, 0, 78, 0
2, 71520, Note_on_c, 0, 74, 0
2, 71520, Note_on_c, 0, 71, 0
2, 71520, Note_on_c, 0, 78, 33
2, 71520, Note_on_c, 0, 74, 33
2, 71520, Note_on_c, 0, 71, 27
2, 71520, Note_on_c, 0, 66, 27
2, 72000, Note_on_c, 0, 66, 0
2, 72000, Note_on_c, 0, 78, 0
2, 72000, Note_on_c, 0, 74, 0
2, 72000, Note_on_c, 0, 71, 0
2, 72240, Note_on_c, 0, 78, 33
2, 72240, Note_on_c, 0, 74, 33
2, 72240, Note_on_c, 0, 71, 27
2, 72240, Note_on_c, 0, 68, 27
2, 72720, Note_on_c, 0, 68, 0
2, 72720, Note_on_c, 0, 78, 0
2, 72720, Note_on_c, 0, 74, 0
2, 72720, Note_on_c, 0, 71, 0
2, 72720, Note_on_c, 0, 81, 51
2, 72720, Note_on_c, 0, 76, 39
2, 72720, Note_on_c, 0, 73, 39
2, 73080, Note_on_c, 0, 81, 0
2, 73080, Note_on_c, 0, 79, 46
2, 73200, Note_on_c, 0, 79, 0
2, 73200, Note_on_c, 0, 73, 0
2, 73200, Note_on_c, 0, 76, 0
2, 73200, Note_on_c, 0, 74, 47
2, 73200, Note_on_c, 0, 78, 52
2, 73920, Note_on_c, 0, 78, 0
2, 73920, Note_on_c, 0, 74, 0
2, 74400, Note_on_c, 0, 72, 56
2, 74400, Note_on_c, 0, 78, 56
2, 74400, Note_on_c, 0, 81, 67
2, 74640, Note_on_c, 0, 81, 0
2, 74640, Note_on_c, 0, 78, 0
2, 74640, Note_on_c, 0, 72, 0
2, 74640, Note_on_c, 0, 71, 54
2, 74640, Note_on_c, 0, 76, 54
2, 74640, Note_on_c, 0, 80, 64
2, 75000, Note_on_c, 0, 80, 0
2, 75000, Note_on_c, 0, 76, 0
2, 75000, Note_on_c, 0, 71, 0
2, 75000, Note_on_c, 0, 73, 53
2, 75000, Note_on_c, 0, 76, 53
2, 75000, Note_on_c, 0, 79, 63
2, 75120, Note_on_c, 0, 79, 0
2, 75120, Note_on_c, 0, 76, 0
2, 75120, Note_on_c, 0, 73, 0
2, 75120, Note_on_c, 0, 74, 56
2, 75120, Note_on_c, 0, 78, 67
2, 75480, Note_on_c, 0, 78, 0
2, 75480, Note_on_c, 0, 74, 0
2, 75480, Note_on_c, 0, 78, 52
2, 75480, Note_on_c, 0, 83, 62
2, 75600, Note_on_c, 0, 83, 0
2, 75600, Note_on_c, 0, 78, 0
2, 75600, Note_on_c, 0, 71, 65
2, 75600, Note_on_c, 0, 77, 65
2, 75600, Note_on_c, 0, 83, 77
2, 75840, Note_on_c, 0, 83, 0
2, 75840, Note_on_c, 0, 77, 0
2, 75840, Note_on_c, 0, 71, 0
2, 75840, Note_on_c, 0, 71, 60
2, 75840, Note_on_c, 0, 76, 60
2, 75840, Note_on_c, 0, 83, 72
2, 76200, Note_on_c, 0, 83, 0
2, 76200, Note_on_c, 0, 76, 0
2, 76200, Note_on_c, 0, 71, 0
2, 76200, Note_on_c, 0, 71, 60
2, 76200, Note_on_c, 0, 73, 60
2, 76200, Note_on_c, 0, 83, 72
2, 76320, Note_on_c, 0, 83, 0
2, 76320, Note_on_c, 0, 73, 0
2, 76320, Note_on_c, 0, 71, 0
2, 76320, Note_on_c, 0, 71, 61
2, 76320, Note_on_c, 0, 74, 61
2, 76320, Note_on_c, 0, 83, 73
2, 76800, Note_on_c, 0, 83, 0
2, 76800, Note_on_c, 0, 74, 0
2, 76800, Note_on_c, 0, 71, 0
2, 76800, Note_on_c, 0, 67, 48
2, 76800, Note_on_c, 0, 71, 48
2, 76800, Note_on_c, 0, 73, 57
2, 77040, Note_on_c, 0, 73, 0
2, 77040, Note_on_c, 0, 71, 0
2, 77040, Note_on_c, 0, 67, 0
2, 77040, Note_on_c, 0, 67, 46
2, 77040, Note_on_c, 0, 71, 46
2, 77040, Note_on_c, 0, 73, 55
2, 77400, Note_on_c, 0, 73, 0
2, 77400, Note_on_c, 0, 71, 0
2, 77400, Note_on_c, 0, 67, 0
2, 77400, Note_on_c, 0, 67, 51
2, 77400, Note_on_c, 0, 71, 51
2, 77400, Note_on_c, 0, 74, 60
2, 77520, Note_on_c, 0, 74, 0
2, 77520, Note_on_c, 0, 71, 0
2, 77520, Note_on_c, 0, 67, 0
2, 77520, Note_on_c, 0, 67, 53
2, 77520, Note_on_c, 0, 71, 53
2, 77520, Note_on_c, 0, 76, 62
2, 77880, Note_on_c, 0, 76, 0
2, 77880, Note_on_c, 0, 79, 64
2, 78000, Note_on_c, 0, 79, 0
2, 78000, Note_on_c, 0, 71, 0
2, 78000, Note_on_c, 0, 67, 0
2, 78000, Note_on_c, 0, 70, 53
2, 78000, Note_on_c, 0, 74, 62
2, 78240, Note_on_c, 0, 74, 0
2, 78240, Note_on_c, 0, 70, 0
2, 78240, Note_on_c, 0, 70, 38
2, 78240, Note_on_c, 0, 73, 55
2, 78600, Note_on_c, 0, 73, 0
2, 78600, Note_on_c, 0, 70, 0
2, 78600, Note_on_c, 0, 70, 36
2, 78600, Note_on_c, 0, 74, 50
2, 78720, Note_on_c, 0, 74, 0
2, 78720, Note_on_c, 0, 70, 0
2, 78720, Note_on_c, 0, 66, 33
2, 78720, Note_on_c, 0, 71, 52
2, 79200, Note_on_c, 0, 71, 0
2, 79200, Note_on_c, 0, 66, 0
2, 79200, Note_on_c, 0, 66, 50
2, 79200, Note_on_c, 0, 69, 60
2, 79440, Note_on_c, 0, 69, 0
2, 79440, Note_on_c, 0, 66, 0
2, 79440, Note_on_c, 0, 66, 47
2, 79440, Note_on_c, 0, 69, 56
2, 79800, Note_on_c, 0, 69, 0
2, 79800, Note_on_c, 0, 66, 0
2, 79800, Note_on_c, 0, 64, 44
2, 79800, Note_on_c, 0, 73, 52
2, 79920, Note_on_c, 0, 73, 0
2, 79920, Note_on_c, 0, 64, 0
2, 79920, Note_on_c, 0, 63, 47
2, 79920, Note_on_c, 0, 71, 56
2, 80280, Note_on_c, 0, 71, 0
2, 80280, Note_on_c, 0, 63, 0
2, 80280, Note_on_c, 0, 67, 51
2, 80280, Note_on_c, 0, 63, 42
2, 80400, Note_on_c, 0, 63, 0
2, 80400, Note_on_c, 0, 67, 0
2, 80400, Note_on_c, 0, 64, 47
2, 80400, Note_on_c, 0, 68, 56
2, 80640, Note_on_c, 0, 68, 0
2, 80640, Note_on_c, 0, 64, 0
2, 80640, Note_on_c, 0, 68, 49
2, 80640, Note_on_c, 0, 71, 58
2, 81000, Note_on_c, 0, 71, 0
2, 81000, Note_on_c, 0, 68, 0
2, 81000, Note_on_c, 0, 80, 58
2, 81000, Note_on_c, 0, 76, 48
2, 81120, Note_on_c, 0, 76, 0
2, 81120, Note_on_c, 0, 80, 0
2, 81120, Note_on_c, 0, 75, 46
2, 81120, Note_on_c, 0, 78, 55
2, 81480, Note_on_c, 0, 78, 0
2, 81480, Note_on_c, 0, 75, 0
2, 81480, Note_on_c, 0, 73, 44
2, 81480, Note_on_c, 0, 76, 52
2, 81600, Note_on_c, 0, 76, 0
2, 81600, Note_on_c, 0, 73, 0
2, 81600, Note_on_c, 0, 71, 47
2, 81600, Note_on_c, 0, 75, 56
2, 81680, Note_on_c, 0, 75, 0
2, 81680, Note_on_c, 0, 71, 0
2, 81680, Note_on_c, 0, 73, 40
2, 81680, Note_on_c, 0, 76, 48
2, 81760, Note_on_c, 0, 76, 0
2, 81760, Note_on_c, 0, 73, 0
2, 81760, Note_on_c, 0, 71, 40
2, 81760, Note_on_c, 0, 75, 48
2, 81840, Note_on_c, 0, 75, 0
2, 81840, Note_on_c, 0, 71, 0
2, 81840, Note_on_c, 0, 69, 45
2, 81840, Note_on_c, 0, 73, 53
2, 82200, Note_on_c, 0, 73, 0
2, 82200, Note_on_c, 0, 69, 0
2, 82200, Note_on_c, 0, 71, 44
2, 82200, Note_on_c, 0, 75, 52
2, 82320, Note_on_c, 0, 75, 0
2, 82320, Note_on_c, 0, 71, 0
2, 82320, Note_on_c, 0, 73, 47
2, 82320, Note_on_c, 0, 76, 56
2, 82680, Note_on_c, 0, 76, 0
2, 82680, Note_on_c, 0, 73, 0
2, 82680, Note_on_c, 0, 69, 44
2, 82680, Note_on_c, 0, 73, 52
2, 82800, Note_on_c, 0, 73, 0
2, 82800, Note_on_c, 0, 69, 0
2, 82800, Note_on_c, 0, 68, 40
2, 82800, Note_on_c, 0, 71, 48
2, 83520, Note_on_c, 0, 71, 0
2, 83520, Note_on_c, 0, 68, 0
2, 84000, Note_on_c, 0, 71, 49
2, 84000, Note_on_c, 0, 77, 56
2, 84240, Note_on_c, 0, 77, 0
2, 84240, Note_on_c, 0, 71, 0
2, 84240, Note_on_c, 0, 73, 49
2, 84240, Note_on_c, 0, 78, 55
2, 84600, Note_on_c, 0, 78, 0
2, 84600, Note_on_c, 0, 73, 0
2, 84600, Note_on_c, 0, 74, 55
2, 84600, Note_on_c, 0, 80, 55
2, 84660, Note_on_c, 0, 83, 50
2, 84720, Note_on_c, 0, 80, 0
2, 84720, Note_on_c, 0, 74, 0
2, 84720, Note_on_c, 0, 77, 49
2, 84720, Note_on_c, 0, 81, 58
2, 84740, Note_on_c, 0, 83, 0
2, 85080, Note_on_c, 0, 81, 0
2, 85080, Note_on_c, 0, 80, 57
2, 85200, Note_on_c, 0, 80, 0
2, 85200, Note_on_c, 0, 77, 0
2, 85200, Note_on_c, 0, 73, 46
2, 85200, Note_on_c, 0, 85, 46
2, 85200, Note_on_c, 0, 80, 60
2, 85440, Note_on_c, 0, 80, 0
2, 85440, Note_on_c, 0, 78, 58
2, 85800, Note_on_c, 0, 78, 0
2, 85800, Note_on_c, 0, 77, 50
2, 85920, Note_on_c, 0, 77, 0
2, 85920, Note_on_c, 0, 85, 0
2, 85920, Note_on_c, 0, 73, 0
2, 85920, Note_on_c, 0, 78, 53
2, 86280, Note_on_c, 0, 78, 0
2, 86280, Note_on_c, 0, 69, 55
2, 86280, Note_on_c, 0, 72, 55
2, 86400, Note_on_c, 0, 72, 0
2, 86400, Note_on_c, 0, 69, 0
2, 86400, Note_on_c, 0, 69, 47
2, 86400, Note_on_c, 0, 71, 57
2, 86640, Note_on_c, 0, 71, 0
2, 86640, Note_on_c, 0, 77, 58
2, 87000, Note_on_c, 0, 77, 0
2, 87000, Note_on_c, 0, 78, 59
2, 87120, Note_on_c, 0, 78, 0
2, 87120, Note_on_c, 0, 69, 0
2, 87120, Note_on_c, 0, 81, 61
2, 87480, Note_on_c, 0, 81, 0
2, 87480, Note_on_c, 0, 80, 57
2, 87600, Note_on_c, 0, 80, 0
2, 87600, Note_on_c, 0, 71, 38
2, 87600, Note_on_c, 0, 83, 42
2, 87600, Note_on_c, 0, 78, 55
2, 87840, Note_on_c, 0, 78, 0
2, 87840, Note_on_c, 0, 76, 52
2, 88200, Note_on_c, 0, 76, 0
2, 88200, Note_on_c, 0, 75, 50
2, 88314, Note_on_c, 0, 76, 50
2, 88320, Note_on_c, 0, 75, 0
2, 88554, Note_on_c, 0, 76, 0
2, 88560, Note_on_c, 0, 83, 0
2, 88680, Note_on_c, 0, 71, 0
2, 88680, Note_on_c, 0, 68, 58
2, 88680, Note_on_c, 0, 65, 49
2, 88800, Note_on_c, 0, 65, 0
2, 88800, Note_on_c, 0, 68, 0
2, 88800, Note_on_c, 0, 66, 50
2, 88800, Note_on_c, 0, 69, 60
2, 89040, Note_on_c, 0, 69, 0
2, 89040, Note_on_c, 0, 66, 0
2, 89040, Note_on_c, 0, 66, 47
2, 89040, Note_on_c, 0, 69, 56
2, 89400, Note_on_c, 0, 69, 0
2, 89400, Note_on_c, 0, 66, 0
2, 89400, Note_on_c, 0, 64, 44
2, 89400, Note_on_c, 0, 73, 52
2, 89520, Note_on_c, 0, 73, 0
2, 89520, Note_on_c, 0, 64, 0
2, 89520, Note_on_c, 0, 63, 47
2, 89520, Note_on_c, 0, 71, 56
2, 89880, Note_on_c, 0, 71, 0
2, 89880, Note_on_c, 0, 63, 0
2, 89880, Note_on_c, 0, 67, 51
2, 89880, Note_on_c, 0, 63, 42
2, 90000, Note_on_c, 0, 63, 0
2, 90000, Note_on_c, 0, 67, 0
2, 90000, Note_on_c, 0, 64, 47
2, 90000, Note_on_c, 0, 68, 56
2, 90240, Note_on_c, 0, 68, 0
2, 90240, Note_on_c, 0, 64, 0
2, 90240, Note_on_c, 0, 68, 49
2, 90240, Note_on_c, 0, 71, 58
2, 90600, Note_on_c, 0, 71, 0
2, 90600, Note_on_c, 0, 68, 0
2, 90600, Note_on_c, 0, 80, 60
2, 90600, Note_on_c, 0, 76, 50
2, 90720, Note_on_c, 0, 76, 0
2, 90720, Note_on_c, 0, 80, 0
2, 90720, Note_on_c, 0, 75, 46
2, 90720, Note_on_c, 0, 78, 55
2, 91080, Note_on_c, 0, 78, 0
2, 91080, Note_on_c, 0, 75, 0
2, 91080, Note_on_c, 0, 73, 44
2, 91080, Note_on_c, 0, 76, 52
2, 91200, Note_on_c, 0, 76, 0
2, 91200, Note_on_c, 0, 73, 0
2, 91200, Note_on_c, 0, 71, 47
2, 91200, Note_on_c, 0, 75, 56
2, 91280, Note_on_c, 0, 75, 0
2, 91280, Note_on_c, 0, 71, 0
2, 91280, Note_on_c, 0, 73, 40
2, 91280, Note_on_c, 0, 76, 48
2, 91360, Note_on_c, 0, 76, 0
2, 91360, Note_on_c, 0, 73, 0
2, 91360, Note_on_c, 0, 71, 40
2, 91360, Note_on_c, 0, 75, 48
2, 91440, Note_on_c, 0, 75, 0
2, 91440, Note_on_c, 0, 71, 0
2, 91440, Note_on_c, 0, 69, 45
2, 91440, Note_on_c, 0, 73, 53
2, 91800, Note_on_c, 0, 73, 0
2, 91800, Note_on_c, 0, 69, 0
2, 91800, Note_on_c, 0, 71, 44
2, 91800, Note_on_c, 0, 75, 52
2, 91920, Note_on_c, 0, 75, 0
2, 91920, Note_on_c, 0, 71, 0
2, 91920, Note_on_c, 0, 73, 47
2, 91920, Note_on_c, 0, 76, 56
2, 92280, Note_on_c, 0, 76, 0
2, 92280, Note_on_c, 0, 73, 0
2, 92280, Note_on_c, 0, 69, 44
2, 92280, Note_on_c, 0, 73, 52
2, 92400, Note_on_c, 0, 73, 0
2, 92400, Note_on_c, 0, 69, 0
2, 92400, Note_on_c, 0, 68, 40
2, 92400, Note_on_c, 0, 71, 48
2, 93120, Note_on_c, 0, 71, 0
2, 93120, Note_on_c, 0, 68, 0
2, 93600, Note_on_c, 0, 76, 54
2, 93600, Note_on_c, 0, 81, 65
2, 93840, Note_on_c, 0, 81, 0
2, 93840, Note_on_c, 0, 79, 61
2, 94200, Note_on_c, 0, 79, 0
2, 94200, Note_on_c, 0, 81, 61
2, 94320, Note_on_c, 0, 81, 0
2, 94320, Note_on_c, 0, 76, 0
2, 94320, Note_on_c, 0, 84, 57
2, 94326, Note_on_c, 0, 79, 51
2, 94680, Note_on_c, 0, 84, 0
2, 94680, Note_on_c, 0, 77, 50
2, 94800, Note_on_c, 0, 77, 0
2, 94800, Note_on_c, 0, 75, 48
2, 94800, Note_on_c, 0, 80, 57
2, 94806, Note_on_c, 0, 79, 0
2, 95040, Note_on_c, 0, 80, 0
2, 95040, Note_on_c, 0, 78, 51
2, 95400, Note_on_c, 0, 78, 0
2, 95400, Note_on_c, 0, 80, 51
2, 95520, Note_on_c, 0, 80, 0
2, 95520, Note_on_c, 0, 75, 0
2, 95520, Note_on_c, 0, 78, 44
2, 95520, Note_on_c, 0, 83, 47
2, 95880, Note_on_c, 0, 83, 0
2, 95880, Note_on_c, 0, 76, 50
2, 96000, Note_on_c, 0, 76, 0
2, 96000, Note_on_c, 0, 78, 0
2, 96000, Note_on_c, 0, 74, 49
2, 96000, Note_on_c, 0, 77, 56
2, 96240, Note_on_c, 0, 77, 0
2, 96240, Note_on_c, 0, 74, 0
2, 96240, Note_on_c, 0, 73, 49
2, 96240, Note_on_c, 0, 78, 55
2, 96600, Note_on_c, 0, 78, 0
2, 96600, Note_on_c, 0, 73, 0
2, 96600, Note_on_c, 0, 74, 55
2, 96600, Note_on_c, 0, 80, 55
2, 96720, Note_on_c, 0, 80, 0
2, 96720, Note_on_c, 0, 74, 0
2, 96720, Note_on_c, 0, 73, 48
2, 96720, Note_on_c, 0, 81, 58
2, 97200, Note_on_c, 0, 81, 0
2, 97200, Note_on_c, 0, 73, 0
2, 97200, Note_on_c, 0, 75, 50
2, 97200, Note_on_c, 0, 78, 60
2, 97440, Note_on_c, 0, 78, 0
2, 97440, Note_on_c, 0, 75, 0
2, 97440, Note_on_c, 0, 75, 49
2, 97440, Note_on_c, 0, 81, 58
2, 97800, Note_on_c, 0, 81, 0
2, 97800, Note_on_c, 0, 75, 0
2, 97800, Note_on_c, 0, 75, 45
2, 97800, Note_on_c, 0, 80, 53
2, 97920, Note_on_c, 0, 80, 0
2, 97920, Note_on_c, 0, 75, 0
2, 97920, Note_on_c, 0, 71, 42
2, 97920, Note_on_c, 0, 76, 55
2, 98400, Note_on_c, 0, 76, 0
2, 98400, Note_on_c, 0, 71, 0
2, 98400, Note_on_c, 0, 64, 42
2, 98400, Note_on_c, 0, 67, 51
2, 98640, Note_on_c, 0, 67, 0
2, 98640, Note_on_c, 0, 64, 0
2, 98640, Note_on_c, 0, 62, 39
2, 98640, Note_on_c, 0, 67, 47
2, 99000, Note_on_c, 0, 67, 0
2, 99000, Note_on_c, 0, 62, 0
2, 99000, Note_on_c, 0, 64, 37
2, 99000, Note_on_c, 0, 67, 44
2, 99120, Note_on_c, 0, 67, 0
2, 99120, Note_on_c, 0, 64, 0
2, 99120, Note_on_c, 0, 62, 39
2, 99120, Note_on_c, 0, 67, 47
2, 99480, Note_on_c, 0, 67, 0
2, 99480, Note_on_c, 0, 62, 0
2, 99480, Note_on_c, 0, 72, 43
2, 99480, Note_on_c, 0, 74, 43
2, 99480, Note_on_c, 0, 66, 35
2, 99600, Note_on_c, 0, 66, 0
2, 99600, Note_on_c, 0, 74, 0
2, 99600, Note_on_c, 0, 72, 0
2, 99600, Note_on_c, 0, 67, 52
2, 99600, Note_on_c, 0, 71, 52
2, 99600, Note_on_c, 0, 74, 64
2, 99840, Note_on_c, 0, 74, 0
2, 99840, Note_on_c, 0, 71, 0
2, 99840, Note_on_c, 0, 67, 0
2, 99840, Note_on_c, 0, 69, 48
2, 99840, Note_on_c, 0, 71, 48
2, 99840, Note_on_c, 0, 75, 58
2, 100200, Note_on_c, 0, 75, 0
2, 100200, Note_on_c, 0, 71, 0
2, 100200, Note_on_c, 0, 69, 0
2, 100200, Note_on_c, 0, 68, 46
2, 100200, Note_on_c, 0, 71, 46
2, 100200, Note_on_c, 0, 76, 55
2, 100320, Note_on_c, 0, 76, 0
2, 100320, Note_on_c, 0, 71, 0
2, 100320, Note_on_c, 0, 68, 0
2, 100320, Note_on_c, 0, 71, 48
2, 100320, Note_on_c, 0, 77, 48
2, 100320, Note_on_c, 0, 80, 58
2, 100680, Note_on_c, 0, 80, 0
2, 100680, Note_on_c, 0, 77, 0
2, 100680, Note_on_c, 0, 71, 0
2, 100680, Note_on_c, 0, 83, 58
2, 100800, Note_on_c, 0, 83, 0
2, 100800, Note_on_c, 0, 76, 63
2, 100800, Note_on_c, 0, 81, 71
2, 101040, Note_on_c, 0, 81, 0
2, 101040, Note_on_c, 0, 76, 0
2, 101040, Note_on_c, 0, 84, 65
2, 101400, Note_on_c, 0, 84, 0
2, 101400, Note_on_c, 0, 88, 69
2, 101520, Note_on_c, 0, 88, 0
2, 101520, Note_on_c, 0, 81, 71
2, 101520, Note_on_c, 0, 87, 74
2, 101880, Note_on_c, 0, 87, 0
2, 101880, Note_on_c, 0, 81, 0
2, 101880, Note_on_c, 0, 95, 73
2, 102000, Note_on_c, 0, 95, 0
2, 102000, Note_on_c, 0, 92, 81
2, 102000, Note_on_c, 0, 80, 81
2, 102720, Note_on_c, 0, 80, 0
2, 102720, Note_on_c, 0, 92, 0
2, 103200, Note_on_c, 0, 69, 57
2, 103200, Note_on_c, 0, 71, 68
2, 103440, Note_on_c, 0, 71, 0
2, 103440, Note_on_c, 0, 73, 62
2, 103800, Note_on_c, 0, 73, 0
2, 103800, Note_on_c, 0, 75, 66
2, 103920, Note_on_c, 0, 75, 0
2, 103920, Note_on_c, 0, 69, 0
2, 103920, Note_on_c, 0, 69, 59
2, 103920, Note_on_c, 0, 71, 70
2, 104280, Note_on_c, 0, 71, 0
2, 104280, Note_on_c, 0, 80, 65
2, 104400, Note_on_c, 0, 80, 0
2, 104400, Note_on_c, 0, 69, 0
2, 104400, Note_on_c, 0, 71, 57
2, 104400, Note_on_c, 0, 76, 68
2, 105120, Note_on_c, 0, 76, 0
2, 105120, Note_on_c, 0, 71, 0
2, 105600, Note_on_c, 0, 57, 51
2, 105600, Note_on_c, 0, 59, 61
2, 105840, Note_on_c, 0, 59, 0
2, 105840, Note_on_c, 0, 61, 55
2, 106200, Note_on_c, 0, 61, 0
2, 106200, Note_on_c, 0, 63, 59
2, 106320, Note_on_c, 0, 63, 0
2, 106320, Note_on_c, 0, 57, 0
2, 106320, Note_on_c, 0, 57, 53
2, 106320, Note_on_c, 0, 59, 63
2, 106560, Note_on_c, 0, 59, 0
2, 106560, Note_on_c, 0, 68, 56
2, 106800, Note_on_c, 0, 68, 0
2, 106800, Note_on_c, 0, 57, 0
2, 106800, Note_on_c, 0, 59, 58
2, 106800, Note_on_c, 0, 64, 58
2, 107040, Note_on_c, 0, 64, 0
2, 107040, Note_on_c, 0, 59, 0
2, 107040, Note_on_c, 0, 76, 74
2, 107040, Note_on_c, 0, 80, 74
2, 107040, Note_on_c, 0, 88, 87
2, 107520, Note_on_c, 0, 88, 0
2, 107520, Note_on_c, 0, 80, 0
2, 107520, Note_on_c, 0, 76, 0
2, 108000, Note_on_c, 0, 66, 50
2, 108000, Note_on_c, 0, 69, 60
2, 108240, Note_on_c, 0, 69, 0
2, 108240, Note_on_c, 0, 66, 0
2, 108240, Note_on_c, 0, 66, 47
2, 108240, Note_on_c, 0, 69, 56
2, 108600, Note_on_c, 0, 69, 0
2, 108600, Note_on_c, 0, 66, 0
2, 108600, Note_on_c, 0, 64, 44
2, 108600, Note_on_c, 0, 73, 52
2, 108720, Note_on_c, 0, 73, 0
2, 108720, Note_on_c, 0, 64, 0
2, 108720, Note_on_c, 0, 63, 47
2, 108720, Note_on_c, 0, 71, 56
2, 109080, Note_on_c, 0, 71, 0
2, 109080, Note_on_c, 0, 63, 0
2, 109080, Note_on_c, 0, 67, 51
2, 109080, Note_on_c, 0, 63, 42
2, 109200, Note_on_c, 0, 63, 0
2, 109200, Note_on_c, 0, 67, 0
2, 109200, Note_on_c, 0, 64, 47
2, 109200, Note_on_c, 0, 68, 56
2, 109440, Note_on_c, 0, 68, 0
2, 109440, Note_on_c, 0, 64, 0
2, 109440, Note_on_c, 0, 68, 49
2, 109440, Note_on_c, 0, 71, 58
2, 109800, Note_on_c, 0, 71, 0
2, 109800, Note_on_c, 0, 68, 0
2, 109800, Note_on_c, 0, 80, 58
2, 109800, Note_on_c, 0, 76, 48
2, 109920, Note_on_c, 0, 76, 0
2, 109920, Note_on_c, 0, 80, 0
2, 109920, Note_on_c, 0, 75, 46
2, 109920, Note_on_c, 0, 78, 55
2, 110280, Note_on_c, 0, 78, 0
2, 110280, Note_on_c, 0, 75, 0
2, 110280, Note_on_c, 0, 73, 44
2, 110280, Note_on_c, 0, 76, 52
2, 110400, Note_on_c, 0, 76, 0
2, 110400, Note_on_c, 0, 73, 0
2, 110400, Note_on_c, 0, 71, 47
2, 110400, Note_on_c, 0, 75, 56
2, 110480, Note_on_c, 0, 75, 0
2, 110480, Note_on_c, 0, 71, 0
2, 110480, Note_on_c, 0, 73, 40
2, 110480, Note_on_c, 0, 76, 48
2, 110560, Note_on_c, 0, 76, 0
2, 110560, Note_on_c, 0, 73, 0
2, 110560, Note_on_c, 0, 71, 40
2, 110560, Note_on_c, 0, 75, 48
2, 110640, Note_on_c, 0, 75, 0
2, 110640, Note_on_c, 0, 71, 0
2, 110640, Note_on_c, 0, 69, 45
2, 110640, Note_on_c, 0, 73, 53
2, 111000, Note_on_c, 0, 73, 0
2, 111000, Note_on_c, 0, 69, 0
2, 111000, Note_on_c, 0, 71, 44
2, 111000, Note_on_c, 0, 75, 52
2, 111120, Note_on_c, 0, 75, 0
2, 111120, Note_on_c, 0, 71, 0
2, 111120, Note_on_c, 0, 73, 47
2, 111120, Note_on_c, 0, 76, 56
2, 111480, Note_on_c, 0, 76, 0
2, 111480, Note_on_c, 0, 73, 0
2, 111480, Note_on_c, 0, 69, 44
2, 111480, Note_on_c, 0, 73, 52
2, 111600, Note_on_c, 0, 73, 0
2, 111600, Note_on_c, 0, 69, 0
2, 111600, Note_on_c, 0, 68, 40
2, 111600, Note_on_c, 0, 71, 48
2, 112320, Note_on_c, 0, 71, 0
2, 112320, Note_on_c, 0, 68, 0
2, 112800, Note_on_c, 0, 71, 49
2, 112800, Note_on_c, 0, 77, 56
2, 113040, Note_on_c, 0, 77, 0
2, 113040, Note_on_c, 0, 71, 0
2, 113040, Note_on_c, 0, 73, 49
2, 113040, Note_on_c, 0, 78, 55
2, 113400, Note_on_c, 0, 78, 0
2, 113400, Note_on_c, 0, 73, 0
2, 113400, Note_on_c, 0, 74, 55
2, 113400, Note_on_c, 0, 80, 55
2, 113460, Note_on_c, 0, 83, 50
2, 113520, Note_on_c, 0, 80, 0
2, 113520, Note_on_c, 0, 74, 0
2, 113520, Note_on_c, 0, 77, 49
2, 113520, Note_on_c, 0, 81, 58
2, 113540, Note_on_c, 0, 83, 0
2, 113880, Note_on_c, 0, 81, 0
2, 113880, Note_on_c, 0, 80, 57
2, 114000, Note_on_c, 0, 80, 0
2, 114000, Note_on_c, 0, 77, 0
2, 114000, Note_on_c, 0, 73, 46
2, 114000, Note_on_c, 0, 85, 46
2, 114000, Note_on_c, 0, 80, 60
2, 114240, Note_on_c, 0, 80, 0
2, 114240, Note_on_c, 0, 78, 58
2, 114600, Note_on_c, 0, 78, 0
2, 114600, Note_on_c, 0, 77, 50
2, 114720, Note_on_c, 0, 77, 0
2, 114720, Note_on_c, 0, 85, 0
2, 114720, Note_on_c, 0, 73, 0
2, 114720, Note_on_c, 0, 78, 53
2, 115080, Note_on_c, 0, 78, 0
2, 115080, Note_on_c, 0, 69, 55
2, 115080, Note_on_c, 0, 72, 55
2, 115200, Note_on_c, 0, 72, 0
2, 115200, Note_on_c, 0, 69, 0
2, 115200, Note_on_c, 0, 69, 47
2, 115200, Note_on_c, 0, 71, 57
2, 115440, Note_on_c, 0, 71, 0
2, 115440, Note_on_c, 0, 77, 58
2, 115800, Note_on_c, 0, 77, 0
2, 115800, Note_on_c, 0, 78, 59
2, 115920, Note_on_c, 0, 78, 0
2, 115920, Note_on_c, 0, 69, 0
2, 115920, Note_on_c, 0, 81, 61
2, 116280, Note_on_c, 0, 81, 0
2, 116280, Note_on_c, 0, 80, 57
2, 116400, Note_on_c, 0, 80, 0
2, 116400, Note_on_c, 0, 71, 38
2, 116400, Note_on_c, 0, 83, 42
2, 116400, Note_on_c, 0, 78, 55
2, 116640, Note_on_c, 0, 78, 0
2, 116640, Note_on_c, 0, 76, 52
2, 117000, Note_on_c, 0, 76, 0
2, 117000, Note_on_c, 0, 75, 50
2, 117114, Note_on_c, 0, 76, 50
2, 117120, Note_on_c, 0, 75, 0
2, 117354, Note_on_c, 0, 76, 0
2, 117360, Note_on_c, 0, 83, 0
2, 117480, Note_on_c, 0, 71, 0
2, 117480, Note_on_c, 0, 68, 58
2, 117480, Note_on_c, 0, 65, 49
2, 117600, Note_on_c, 0, 65, 0
2, 117600, Note_on_c, 0, 68, 0
2, 117600, Note_on_c, 0, 66, 50
2, 117600, Note_on_c, 0, 69, 60
2, 117840, Note_on_c, 0, 69, 0
2, 117840, Note_on_c, 0, 66, 0
2, 117840, Note_on_c, 0, 66, 47
2, 117840, Note_on_c, 0, 69, 56
2, 118200, Note_on_c, 0, 69, 0
2, 118200, Note_on_c, 0, 66, 0
2, 118200, Note_on_c, 0, 64, 44
2, 118200, Note_on_c, 0, 73, 52
2, 118320, Note_on_c, 0, 73, 0
2, 118320, Note_on_c, 0, 64, 0
2, 118320, Note_on_c, 0, 63, 47
2, 118320, Note_on_c, 0, 71, 56
2, 118680, Note_on_c, 0, 71, 0
2, 118680, Note_on_c, 0, 63, 0
2, 118680, Note_on_c, 0, 67, 51
2, 118680, Note_on_c, 0, 63, 42
2, 118800, Note_on_c, 0, 63, 0
2, 118800, Note_on_c, 0, 67, 0
2, 118800, Note_on_c, 0, 64, 47
2, 118800, Note_on_c, 0, 68, 56
2, 119040, Note_on_c, 0, 68, 0
2, 119040, Note_on_c, 0, 64, 0
2, 119040, Note_on_c, 0, 68, 49
2, 119040, Note_on_c, 0, 71, 58
2, 119400, Note_on_c, 0, 71, 0
2, 119400, Note_on_c, 0, 68, 0
2, 119400, Note_on_c, 0, 80, 60
2, 119400, Note_on_c, 0, 76, 50
2, 119520, Note_on_c, 0, 76, 0
2, 119520, Note_on_c, 0, 80, 0
2, 119520, Note_on_c, 0, 75, 46
2, 119520, Note_on_c, 0, 78, 55
2, 119880, Note_on_c, 0, 78, 0
2, 119880, Note_on_c, 0, 75, 0
2, 119880, Note_on_c, 0, 73, 44
2, 119880, Note_on_c, 0, 76, 52
2, 120000, Note_on_c, 0, 76, 0
2, 120000, Note_on_c, 0, 73, 0
2, 120000, Note_on_c, 0, 71, 47
2, 120000, Note_on_c, 0, 75, 56
2, 120080, Note_on_c, 0, 75, 0
2, 120080, Note_on_c, 0, 71, 0
2, 120080, Note_on_c, 0, 73, 40
2, 120080, Note_on_c, 0, 76, 48
2, 120160, Note_on_c, 0, 76, 0
2, 120160, Note_on_c, 0, 73, 0
2, 120160, Note_on_c, 0, 71, 40
2, 120160, Note_on_c, 0, 75, 48
2, 120240, Note_on_c, 0, 75, 0
2, 120240, Note_on_c, 0, 71, 0
2, 120240, Note_on_c, 0, 69, 45
2, 120240, Note_on_c, 0, 73, 53
2, 120600, Note_on_c, 0, 73, 0
2, 120600, Note_on_c, 0, 69, 0
2, 120600, Note_on_c, 0, 71, 44
2, 120600, Note_on_c, 0, 75, 52
2, 120720, Note_on_c, 0, 75, 0
2, 120720, Note_on_c, 0, 71, 0
2, 120720, Note_on_c, 0, 73, 47
2, 120720, Note_on_c, 0, 76, 56
2, 121080, Note_on_c, 0, 76, 0
2, 121080, Note_on_c, 0, 73, 0
2, 121080, Note_on_c, 0, 69, 44
2, 121080, Note_on_c, 0, 73, 52
2, 121200, Note_on_c, 0, 73, 0
2, 121200, Note_on_c, 0, 69, 0
2, 121200, Note_on_c, 0, 68, 40
2, 121200, Note_on_c, 0, 71, 48
2, 121920, Note_on_c, 0, 71, 0
2, 121920, Note_on_c, 0, 68, 0
2, 122400, Note_on_c, 0, 76, 53
2, 122400, Note_on_c, 0, 81, 65
2, 122640, Note_on_c, 0, 81, 0
2, 122640, Note_on_c, 0, 79, 61
2, 123000, Note_on_c, 0, 79, 0
2, 123000, Note_on_c, 0, 81, 61
2, 123120, Note_on_c, 0, 81, 0
2, 123120, Note_on_c, 0, 76, 0
2, 123120, Note_on_c, 0, 84, 57
2, 123126, Note_on_c, 0, 79, 51
2, 123480, Note_on_c, 0, 84, 0
2, 123480, Note_on_c, 0, 77, 50
2, 123600, Note_on_c, 0, 77, 0
2, 123600, Note_on_c, 0, 75, 48
2, 123600, Note_on_c, 0, 80, 57
2, 123606, Note_on_c, 0, 79, 0
2, 123840, Note_on_c, 0, 80, 0
2, 123840, Note_on_c, 0, 78, 51
2, 124200, Note_on_c, 0, 78, 0
2, 124200, Note_on_c, 0, 80, 51
2, 124320, Note_on_c, 0, 80, 0
2, 124320, Note_on_c, 0, 75, 0
2, 124320, Note_on_c, 0, 78, 44
2, 124320, Note_on_c, 0, 83, 47
2, 124680, Note_on_c, 0, 83, 0
2, 124680, Note_on_c, 0, 76, 50
2, 124800, Note_on_c, 0, 76, 0
2, 124800, Note_on_c, 0, 78, 0
2, 124800, Note_on_c, 0, 74, 49
2, 124800, Note_on_c, 0, 77, 56
2, 125040, Note_on_c, 0, 77, 0
2, 125040, Note_on_c, 0, 74, 0
2, 125040, Note_on_c, 0, 73, 49
2, 125040, Note_on_c, 0, 78, 55
2, 125400, Note_on_c, 0, 78, 0
2, 125400, Note_on_c, 0, 73, 0
2, 125400, Note_on_c, 0, 74, 55
2, 125400, Note_on_c, 0, 80, 55
2, 125520, Note_on_c, 0, 80, 0
2, 125520, Note_on_c, 0, 74, 0
2, 125520, Note_on_c, 0, 73, 48
2, 125520, Note_on_c, 0, 81, 58
2, 126000, Note_on_c, 0, 81, 0
2, 126000, Note_on_c, 0, 73, 0
2, 126000, Note_on_c, 0, 75, 50
2, 126000, Note_on_c, 0, 78, 60
2, 126240, Note_on_c, 0, 78, 0
2, 126240, Note_on_c, 0, 75, 0
2, 126240, Note_on_c, 0, 75, 49
2, 126240, Note_on_c, 0, 81, 58
2, 126600, Note_on_c, 0, 81, 0
2, 126600, Note_on_c, 0, 75, 0
2, 126600, Note_on_c, 0, 75, 45
2, 126600, Note_on_c, 0, 80, 53
2, 126720, Note_on_c, 0, 80, 0
2, 126720, Note_on_c, 0, 75, 0
2, 126720, Note_on_c, 0, 71, 42
2, 126720, Note_on_c, 0, 76, 55
2, 127200, Note_on_c, 0, 76, 0
2, 127200, Note_on_c, 0, 71, 0
2, 127200, Note_on_c, 0, 64, 42
2, 127200, Note_on_c, 0, 67, 51
2, 127440, Note_on_c, 0, 67, 0
2, 127440, Note_on_c, 0, 64, 0
2, 127440, Note_on_c, 0, 62, 39
2, 127440, Note_on_c, 0, 67, 47
2, 127800, Note_on_c, 0, 67, 0
2, 127800, Note_on_c, 0, 62, 0
2, 127800, Note_on_c, 0, 64, 37
2, 127800, Note_on_c, 0, 67, 44
2, 127920, Note_on_c, 0, 67, 0
2, 127920, Note_on_c, 0, 64, 0
2, 127920, Note_on_c, 0, 62, 39
2, 127920, Note_on_c, 0, 67, 47
2, 128280, Note_on_c, 0, 67, 0
2, 128280, Note_on_c, 0, 62, 0
2, 128280, Note_on_c, 0, 72, 43
2, 128280, Note_on_c, 0, 74, 43
2, 128280, Note_on_c, 0, 66, 35
2, 128400, Note_on_c, 0, 66, 0
2, 128400, Note_on_c, 0, 74, 0
2, 128400, Note_on_c, 0, 72, 0
2, 128400, Note_on_c, 0, 67, 52
2, 128400, Note_on_c, 0, 71, 52
2, 128400, Note_on_c, 0, 74, 64
2, 128640, Note_on_c, 0, 74, 0
2, 128640, Note_on_c, 0, 71, 0
2, 128640, Note_on_c, 0, 67, 0
2, 128640, Note_on_c, 0, 69, 48
2, 128640, Note_on_c, 0, 71, 48
2, 128640, Note_on_c, 0, 75, 58
2, 129000, Note_on_c, 0, 75, 0
2, 129000, Note_on_c, 0, 71, 0
2, 129000, Note_on_c, 0, 69, 0
2, 129000, Note_on_c, 0, 68, 46
2, 129000, Note_on_c, 0, 71, 46
2, 129000, Note_on_c, 0, 76, 55
2, 129120, Note_on_c, 0, 76, 0
2, 129120, Note_on_c, 0, 71, 0
2, 129120, Note_on_c, 0, 68, 0
2, 129120, Note_on_c, 0, 71, 48
2, 129120, Note_on_c, 0, 77, 48
2, 129120, Note_on_c, 0, 80, 58
2, 129480, Note_on_c, 0, 80, 0
2, 129480, Note_on_c, 0, 77, 0
2, 129480, Note_on_c, 0, 71, 0
2, 129480, Note_on_c, 0, 83, 58
2, 129600, Note_on_c, 0, 83, 0
2, 129600, Note_on_c, 0, 76, 68
2, 129600, Note_on_c, 0, 81, 71
2, 129840, Note_on_c, 0, 81, 0
2, 129840, Note_on_c, 0, 76, 0
2, 129840, Note_on_c, 0, 84, 65
2, 130200, Note_on_c, 0, 84, 0
2, 130200, Note_on_c, 0, 88, 69
2, 130320, Note_on_c, 0, 88, 0
2, 130320, Note_on_c, 0, 81, 71
2, 130320, Note_on_c, 0, 87, 74
2, 130680, Note_on_c, 0, 87, 0
2, 130680, Note_on_c, 0, 81, 0
2, 130680, Note_on_c, 0, 95, 73
2, 130800, Note_on_c, 0, 95, 0
2, 130800, Note_on_c, 0, 92, 81
2, 130800, Note_on_c, 0, 80, 81
2, 131520, Note_on_c, 0, 80, 0
2, 131520, Note_on_c, 0, 92, 0
2, 132000, Note_on_c, 0, 69, 57
2, 132000, Note_on_c, 0, 71, 68
2, 132240, Note_on_c, 0, 71, 0
2, 132240, Note_on_c, 0, 73, 62
2, 132600, Note_on_c, 0, 73, 0
2, 132600, Note_on_c, 0, 75, 66
2, 132720, Note_on_c, 0, 75, 0
2, 132720, Note_on_c, 0, 69, 0
2, 132720, Note_on_c, 0, 69, 59
2, 132720, Note_on_c, 0, 71, 70
2, 133080, Note_on_c, 0, 71, 0
2, 133080, Note_on_c, 0, 80, 65
2, 133200, Note_on_c, 0, 80, 0
2, 133200, Note_on_c, 0, 69, 0
2, 133200, Note_on_c, 0, 71, 57
2, 133200, Note_on_c, 0, 76, 68
2, 133920, Note_on_c, 0, 76, 0
2, 133920, Note_on_c, 0, 71, 0
2, 134400, Note_on_c, 0, 57, 51
2, 134400, Note_on_c, 0, 59, 61
2, 134640, Note_on_c, 0, 59, 0
2, 134640, Note_on_c, 0, 61, 55
2, 135000, Note_on_c, 0, 61, 0
2, 135000, Note_on_c, 0, 63, 59
2, 135120, Note_on_c, 0, 63, 0
2, 135120, Note_on_c, 0, 57, 0
2, 135120, Note_on_c, 0, 57, 53
2, 135120, Note_on_c, 0, 59, 63
2, 135360, Note_on_c, 0, 59, 0
2, 135360, Note_on_c, 0, 68, 56
2, 135600, Note_on_c, 0, 68, 0
2, 135600, Note_on_c, 0, 57, 0
2, 135600, Note_on_c, 0, 59, 58
2, 135600, Note_on_c, 0, 64, 58
2, 135840, Note_on_c, 0, 64, 0
2, 135840, Note_on_c, 0, 59, 0
2, 135840, Note_on_c, 0, 76, 77
2, 135840, Note_on_c, 0, 80, 77
2, 135840, Note_on_c, 0, 88, 91
2, 136320, Note_on_c, 0, 88, 0
2, 136320, Note_on_c, 0, 80, 0
2, 136320, Note_on_c, 0, 76, 0
2, 136320, End_track
3, 0, Start_track
3, 0, Title_t, "Piano left"
3, 0, Program_c, 0, 0
3, 0, Control_c, 0, 7, 100
3, 0, Control_c, 0, 10, 64
3, 0, Control_c, 0, 64, 127
3, 0, Note_on_c, 0, 59, 44
3, 240, Note_on_c, 0, 59, 0
3, 240, Note_on_c, 0, 59, 40
3, 600, Note_on_c, 0, 59, 0
3, 600, Note_on_c, 0, 59, 41
3, 720, Note_on_c, 0, 59, 0
3, 720, Note_on_c, 0, 59, 44
3, 1080, Note_on_c, 0, 59, 0
3, 1080, Note_on_c, 0, 59, 40
3, 1200, Note_on_c, 0, 59, 0
3, 1200, Note_on_c, 0, 59, 44
3, 1440, Note_on_c, 0, 59, 0
3, 1440, Note_on_c, 0, 59, 40
3, 1800, Note_on_c, 0, 59, 0
3, 1800, Note_on_c, 0, 59, 40
3, 1920, Note_on_c, 0, 59, 0
3, 1920, Note_on_c, 0, 59, 44
3, 2280, Note_on_c, 0, 59, 0
3, 2280, Note_on_c, 0, 59, 38
3, 2400, Note_on_c, 0, 59, 0
3, 2400, Note_on_c, 0, 59, 44
3, 2416, Control_c, 0, 64, 0
3, 2509, Control_c, 0, 64, 127
3, 2640, Note_on_c, 0, 59, 0
3, 2640, Note_on_c, 0, 59, 40
3, 3000, Note_on_c, 0, 59, 0
3, 3000, Note_on_c, 0, 59, 40
3, 3120, Note_on_c, 0, 59, 0
3, 3120, Note_on_c, 0, 59, 44
3, 3136, Control_c, 0, 64, 0
3, 3257, Control_c, 0, 64, 127
3, 3480, Note_on_c, 0, 59, 0
3, 3480, Note_on_c, 0, 59, 40
3, 3600, Note_on_c, 0, 59, 0
3, 3600, Note_on_c, 0, 59, 44
3, 3611, Control_c, 0, 64, 0
3, 3720, Control_c, 0, 64, 127
3, 3840, Note_on_c, 0, 59, 0
3, 3840, Note_on_c, 0, 59, 40
3, 4200, Note_on_c, 0, 59, 0
3, 4200, Note_on_c, 0, 59, 40
3, 4320, Note_on_c, 0, 59, 0
3, 4320, Note_on_c, 0, 59, 44
3, 4341, Control_c, 0, 64, 0
3, 4454, Control_c, 0, 64, 127
3, 4680, Note_on_c, 0, 59, 0
3, 4680, Note_on_c, 0, 59, 40
3, 4800, Note_on_c, 0, 59, 0
3, 4800, Note_on_c, 0, 59, 44
3, 4809, Control_c, 0, 64, 0
3, 4835, Control_c, 0, 64, 127
3, 5040, Note_on_c, 0, 59, 0
3, 5040, Note_on_c, 0, 59, 40
3, 5400, Note_on_c, 0, 59, 0
3, 5400, Note_on_c, 0, 59, 40
3, 5520, Note_on_c, 0, 59, 0
3, 5520, Note_on_c, 0, 59, 44
3, 5534, Control_c, 0, 64, 0
3, 5587, Control_c, 0, 64, 127
3, 5880, Note_on_c, 0, 59, 0
3, 5880, Note_on_c, 0, 59, 44
3, 6000, Note_on_c, 0, 59, 0
3, 6000, Note_on_c, 0, 52, 39
3, 6000, Note_on_c, 0, 59, 50
3, 6010, Control_c, 0, 64, 0
3, 6126, Control_c, 0, 64, 127
3, 6240, Note_on_c, 0, 59, 0
3, 6240, Note_on_c, 0, 59, 48
3, 6600, Note_on_c, 0, 59, 0
3, 6600, Note_on_c, 0, 64, 49
3, 6720, Note_on_c, 0, 64, 0
3, 6720, Note_on_c, 0, 52, 0
3, 6720, Note_on_c, 0, 63, 49
3, 6726, Control_c, 0, 64, 0
3, 6869, Control_c, 0, 64, 127
3, 7080, Note_on_c, 0, 63, 0
3, 7080, Note_on_c, 0, 62, 45
3, 7200, Note_on_c, 0, 62, 0
3, 7200, Note_on_c, 0, 61, 48
3, 7200, Note_on_c, 0, 68, 48
3, 7211, Control_c, 0, 64, 0
3, 7281, Control_c, 0, 64, 127
3, 7440, Note_on_c, 0, 68, 0
3, 7440, Note_on_c, 0, 69, 51
3, 7800, Note_on_c, 0, 69, 0
3, 7800, Note_on_c, 0, 71, 50
3, 7814, Control_c, 0, 64, 0
3, 7920, Note_on_c, 0, 71, 0
3, 7920, Note_on_c, 0, 73, 46
3, 8019, Control_c, 0, 64, 127
3, 8280, Note_on_c, 0, 73, 0
3, 8280, Note_on_c, 0, 71, 48
3, 8400, Note_on_c, 0, 71, 0
3, 8400, Note_on_c, 0, 61, 0
3, 8400, Note_on_c, 0, 66, 39
3, 8400, Note_on_c, 0, 71, 50
3, 8408, Control_c, 0, 64, 0
3, 8503, Control_c, 0, 64, 127
3, 8640, Note_on_c, 0, 71, 0
3, 8640, Note_on_c, 0, 69, 49
3, 9000, Note_on_c, 0, 69, 0
3, 9000, Note_on_c, 0, 68, 46
3, 9006, Control_c, 0, 64, 0
3, 9120, Note_on_c, 0, 68, 0
3, 9120, Note_on_c, 0, 66, 0
3, 9120, Note_on_c, 0, 69, 48
3, 9166, Control_c, 0, 64, 127
3, 9480, Note_on_c, 0, 69, 0
3, 9480, Note_on_c, 0, 64, 46
3, 9600, Note_on_c, 0, 64, 0
3, 9600, Control_c, 0, 64, 0
3, 9600, Note_on_c, 0, 59, 37
3, 9600, Note_on_c, 0, 63, 49
3, 9685, Control_c, 0, 64, 127
3, 9840, Note_on_c, 0, 63, 0
3, 9840, Note_on_c, 0, 62, 49
3, 10200, Note_on_c, 0, 62, 0
3, 10200, Note_on_c, 0, 63, 49
3, 10320, Note_on_c, 0, 63, 0
3, 10320, Note_on_c, 0, 59, 0
3, 10320, Control_c, 0, 64, 0
3, 10320, Note_on_c, 0, 59, 37
3, 10320, Note_on_c, 0, 73, 46
3, 10398, Control_c, 0, 64, 127
3, 10680, Note_on_c, 0, 73, 0
3, 10680, Note_on_c, 0, 71, 48
3, 10800, Note_on_c, 0, 71, 0
3, 10800, Note_on_c, 0, 59, 0
3, 10800, Note_on_c, 0, 64, 34
3, 10800, Note_on_c, 0, 69, 46
3, 10808, Control_c, 0, 64, 0
3, 10903, Control_c, 0, 64, 127
3, 11040, Note_on_c, 0, 69, 0
3, 11040, Note_on_c, 0, 68, 45
3, 11400, Note_on_c, 0, 68, 0
3, 11400, Note_on_c, 0, 67, 41
3, 11474, Control_c, 0, 64, 0
3, 11520, Note_on_c, 0, 67, 0
3, 11520, Note_on_c, 0, 68, 37
3, 11595, Control_c, 0, 64, 127
3, 11743, Control_c, 0, 64, 0
3, 11760, Note_on_c, 0, 68, 0
3, 11880, Note_on_c, 0, 64, 0
3, 12000, Note_on_c, 0, 59, 44
3, 12014, Control_c, 0, 64, 0
3, 12132, Control_c, 0, 64, 127
3, 12240, Note_on_c, 0, 59, 0
3, 12240, Note_on_c, 0, 59, 40
3, 12600, Note_on_c, 0, 59, 0
3, 12600, Note_on_c, 0, 59, 40
3, 12720, Note_on_c, 0, 59, 0
3, 12720, Note_on_c, 0, 59, 44
3, 12737, Control_c, 0, 64, 0
3, 12857, Control_c, 0, 64, 127
3, 13080, Note_on_c, 0, 59, 0
3, 13080, Note_on_c, 0, 59, 40
3, 13200, Note_on_c, 0, 59, 0
3, 13200, Note_on_c, 0, 59, 44
3, 13207, Control_c, 0, 64, 0
3, 13299, Control_c, 0, 64, 127
3, 13440, Note_on_c, 0, 59, 0
3, 13440, Note_on_c, 0, 59, 40
3, 13800, Note_on_c, 0, 59, 0
3, 13800, Note_on_c, 0, 59, 40
3, 13920, Note_on_c, 0, 59, 0
3, 13920, Note_on_c, 0, 59, 44
3, 13939, Control_c, 0, 64, 0
3, 14040, Control_c, 0, 64, 127
3, 14280, Note_on_c, 0, 59, 0
3, 14280, Note_on_c, 0, 59, 40
3, 14400, Note_on_c, 0, 59, 0
3, 14400, Note_on_c, 0, 59, 44
3, 14404, Control_c, 0, 64, 0
3, 14435, Control_c, 0, 64, 127
3, 14640, Note_on_c, 0, 59, 0
3, 14640, Note_on_c, 0, 59, 40
3, 15000, Note_on_c, 0, 59, 0
3, 15000, Note_on_c, 0, 59, 40
3, 15120, Note_on_c, 0, 59, 0
3, 15120, Note_on_c, 0, 59, 44
3, 15127, Control_c, 0, 64, 0
3, 15198, Control_c, 0, 64, 127
3, 15480, Note_on_c, 0, 59, 0
3, 15480, Note_on_c, 0, 59, 44
3, 15600, Note_on_c, 0, 59, 0
3, 15600, Note_on_c, 0, 52, 50
3, 15614, Control_c, 0, 64, 0
3, 15770, Control_c, 0, 64, 127
3, 15840, Note_on_c, 0, 52, 0
3, 15840, Note_on_c, 0, 59, 48
3, 16200, Note_on_c, 0, 59, 0
3, 16200, Note_on_c, 0, 64, 51
3, 16320, Note_on_c, 0, 64, 0
3, 16320, Note_on_c, 0, 68, 54
3, 16328, Control_c, 0, 64, 0
3, 16511, Control_c, 0, 64, 127
3, 16680, Note_on_c, 0, 68, 0
3, 16680, Note_on_c, 0, 71, 55
3, 16766, Control_c, 0, 64, 0
3, 16800, Note_on_c, 0, 71, 0
3, 16800, Note_on_c, 0, 70, 49
3, 16800, Note_on_c, 0, 72, 59
3, 16897, Control_c, 0, 64, 127
3, 17520, Note_on_c, 0, 70, 0
3, 17520, Note_on_c, 0, 69, 55
3, 17540, Control_c, 0, 64, 0
3, 17646, Control_c, 0, 64, 127
3, 17949, Control_c, 0, 64, 0
3, 18000, Note_on_c, 0, 69, 0
3, 18000, Note_on_c, 0, 72, 0
3, 18000, Note_on_c, 0, 69, 41
3, 18000, Note_on_c, 0, 71, 49
3, 18097, Control_c, 0, 64, 127
3, 18720, Note_on_c, 0, 69, 0
3, 18720, Note_on_c, 0, 68, 46
3, 18734, Control_c, 0, 64, 0
3, 18840, Control_c, 0, 64, 127
3, 19200, Note_on_c, 0, 68, 0
3, 19200, Note_on_c, 0, 71, 0
3, 19200, Control_c, 0, 64, 0
3, 19200, Note_on_c, 0, 71, 48
3, 19320, Control_c, 0, 64, 127
3, 19440, Note_on_c, 0, 71, 0
3, 19440, Note_on_c, 0, 69, 51
3, 19800, Note_on_c, 0, 69, 0
3, 19800, Note_on_c, 0, 65, 55
3, 19814, Control_c, 0, 64, 0
3, 19920, Note_on_c, 0, 65, 0
3, 19920, Note_on_c, 0, 66, 44
3, 20019, Control_c, 0, 64, 127
3, 20400, Note_on_c, 0, 66, 0
3, 20400, Note_on_c, 0, 59, 39
3, 20400, Note_on_c, 0, 69, 50
3, 20408, Control_c, 0, 64, 0
3, 20499, Control_c, 0, 64, 127
3, 20640, Note_on_c, 0, 69, 0
3, 20640, Note_on_c, 0, 73, 55
3, 21000, Note_on_c, 0, 73, 0
3, 21000, Note_on_c, 0, 71, 42
3, 21006, Control_c, 0, 64, 0
3, 21120, Note_on_c, 0, 71, 0
3, 21120, Note_on_c, 0, 59, 0
3, 21120, Note_on_c, 0, 64, 36
3, 21120, Note_on_c, 0, 68, 47
3, 21166, Control_c, 0, 64, 127
3, 21600, Note_on_c, 0, 68, 0
3, 21600, Note_on_c, 0, 64, 0
3, 21600, Note_on_c, 0, 59, 44
3, 21614, Control_c, 0, 64, 0
3, 21674, Control_c, 0, 64, 127
3, 21840, Note_on_c, 0, 59, 0
3, 21840, Note_on_c, 0, 59, 40
3, 22200, Note_on_c, 0, 59, 0
3, 22200, Note_on_c, 0, 59, 40
3, 22320, Note_on_c, 0, 59, 0
3, 22320, Note_on_c, 0, 59, 44
3, 22336, Control_c, 0, 64, 0
3, 22457, Control_c, 0, 64, 127
3, 22680, Note_on_c, 0, 59, 0
3, 22680, Note_on_c, 0, 59, 40
3, 22800, Note_on_c, 0, 59, 0
3, 22800, Control_c, 0, 64, 0
3, 22800, Note_on_c, 0, 59, 44
3, 22864, Control_c, 0, 64, 127
3, 23040, Note_on_c, 0, 59, 0
3, 23040, Note_on_c, 0, 59, 40
3, 23400, Note_on_c, 0, 59, 0
3, 23400, Note_on_c, 0, 59, 40
3, 23520, Note_on_c, 0, 59, 0
3, 23520, Note_on_c, 0, 59, 44
3, 23534, Control_c, 0, 64, 0
3, 23598, Control_c, 0, 64, 127
3, 23880, Note_on_c, 0, 59, 0
3, 23880, Note_on_c, 0, 59, 40
3, 24000, Note_on_c, 0, 59, 0
3, 24000, Note_on_c, 0, 59, 44
3, 24004, Control_c, 0, 64, 0
3, 24035, Control_c, 0, 64, 127
3, 24240, Note_on_c, 0, 59, 0
3, 24240, Note_on_c, 0, 59, 40
3, 24600, Note_on_c, 0, 59, 0
3, 24600, Note_on_c, 0, 59, 40
3, 24720, Note_on_c, 0, 59, 0
3, 24720, Note_on_c, 0, 59, 44
3, 24735, Control_c, 0, 64, 0
3, 24798, Control_c, 0, 64, 127
3, 25080, Note_on_c, 0, 59, 0
3, 25080, Note_on_c, 0, 59, 44
3, 25200, Note_on_c, 0, 59, 0
3, 25200, Note_on_c, 0, 52, 39
3, 25200, Note_on_c, 0, 59, 50
3, 25210, Control_c, 0, 64, 0
3, 25320, Control_c, 0, 64, 127
3, 25440, Note_on_c, 0, 59, 0
3, 25440, Note_on_c, 0, 59, 48
3, 25800, Note_on_c, 0, 59, 0
3, 25800, Note_on_c, 0, 64, 49
3, 25920, Note_on_c, 0, 64, 0
3, 25920, Note_on_c, 0, 52, 0
3, 25920, Note_on_c, 0, 63, 49
3, 25929, Control_c, 0, 64, 0
3, 26069, Control_c, 0, 64, 127
3, 26280, Note_on_c, 0, 63, 0
3, 26280, Note_on_c, 0, 62, 45
3, 26400, Note_on_c, 0, 62, 0
3, 26400, Note_on_c, 0, 61, 48
3, 26400, Note_on_c, 0, 68, 48
3, 26408, Control_c, 0, 64, 0
3, 26488, Control_c, 0, 64, 127
3, 26640, Note_on_c, 0, 68, 0
3, 26640, Note_on_c, 0, 69, 51
3, 27000, Note_on_c, 0, 69, 0
3, 27000, Note_on_c, 0, 71, 50
3, 27014, Control_c, 0, 64, 0
3, 27120, Note_on_c, 0, 71, 0
3, 27120, Note_on_c, 0, 73, 46
3, 27219, Control_c, 0, 64, 127
3, 27480, Note_on_c, 0, 73, 0
3, 27480, Note_on_c, 0, 71, 48
3, 27600, Note_on_c, 0, 71, 0
3, 27600, Note_on_c, 0, 61, 0
3, 27600, Note_on_c, 0, 66, 39
3, 27600, Note_on_c, 0, 71, 50
3, 27608, Control_c, 0, 64, 0
3, 27703, Control_c, 0, 64, 127
3, 27840, Note_on_c, 0, 71, 0
3, 27840, Note_on_c, 0, 69, 49
3, 28200, Note_on_c, 0, 69, 0
3, 28200, Note_on_c, 0, 68, 44
3, 28206, Control_c, 0, 64, 0
3, 28320, Note_on_c, 0, 68, 0
3, 28320, Note_on_c, 0, 66, 0
3, 28320, Note_on_c, 0, 69, 48
3, 28366, Control_c, 0, 64, 127
3, 28680, Note_on_c, 0, 69, 0
3, 28680, Note_on_c, 0, 64, 46
3, 28800, Note_on_c, 0, 64, 0
3, 28800, Control_c, 0, 64, 0
3, 28800, Note_on_c, 0, 59, 39
3, 28800, Note_on_c, 0, 63, 49
3, 28906, Control_c, 0, 64, 127
3, 29040, Note_on_c, 0, 63, 0
3, 29040, Note_on_c, 0, 62, 49
3, 29400, Note_on_c, 0, 62, 0
3, 29400, Note_on_c, 0, 63, 49
3, 29520, Note_on_c, 0, 63, 0
3, 29520, Note_on_c, 0, 59, 0
3, 29520, Control_c, 0, 64, 0
3, 29520, Note_on_c, 0, 59, 39
3, 29520, Note_on_c, 0, 73, 49
3, 29598, Control_c, 0, 64, 127
3, 29880, Note_on_c, 0, 73, 0
3, 29880, Note_on_c, 0, 71, 48
3, 30000, Note_on_c, 0, 71, 0
3, 30000, Note_on_c, 0, 59, 0
3, 30000, Control_c, 0, 64, 0
3, 30000, Note_on_c, 0, 64, 34
3, 30000, Note_on_c, 0, 69, 46
3, 30092, Control_c, 0, 64, 127
3, 30240, Note_on_c, 0, 69, 0
3, 30240, Note_on_c, 0, 68, 45
3, 30600, Note_on_c, 0, 68, 0
3, 30600, Note_on_c, 0, 67, 41
3, 30624, Control_c, 0, 64, 0
3, 30720, Note_on_c, 0, 67, 0
3, 30720, Note_on_c, 0, 68, 37
3, 30783, Control_c, 0, 64, 127
3, 30960, Note_on_c, 0, 68, 0
3, 30977, Control_c, 0, 64, 0
3, 31080, Note_on_c, 0, 64, 0
3, 31200, Note_on_c, 0, 59, 44
3, 31214, Control_c, 0, 64, 0
3, 31274, Control_c, 0, 64, 127
3, 31440, Note_on_c, 0, 59, 0
3, 31440, Note_on_c, 0, 59, 40
3, 31800, Note_on_c, 0, 59, 0
3, 31800, Note_on_c, 0, 59, 40
3, 31920, Note_on_c, 0, 59, 0
3, 31920, Note_on_c, 0, 59, 44
3, 31937, Control_c, 0, 64, 0
3, 32057, Control_c, 0, 64, 127
3, 32280, Note_on_c, 0, 59, 0
3, 32280, Note_on_c, 0, 59, 40
3, 32400, Note_on_c, 0, 59, 0
3, 32400, Note_on_c, 0, 59, 44
3, 32411, Control_c, 0, 64, 0
3, 32513, Control_c, 0, 64, 127
3, 32640, Note_on_c, 0, 59, 0
3, 32640, Note_on_c, 0, 59, 40
3, 33000, Note_on_c, 0, 59, 0
3, 33000, Note_on_c, 0, 59, 40
3, 33120, Note_on_c, 0, 59, 0
3, 33120, Note_on_c, 0, 59, 44
3, 33136, Control_c, 0, 64, 0
3, 33226, Control_c, 0, 64, 127
3, 33480, Note_on_c, 0, 59, 0
3, 33480, Note_on_c, 0, 59, 40
3, 33600, Note_on_c, 0, 59, 0
3, 33600, Note_on_c, 0, 59, 44
3, 33611, Control_c, 0, 64, 0
3, 33650, Control_c, 0, 64, 127
3, 33840, Note_on_c, 0, 59, 0
3, 33840, Note_on_c, 0, 59, 40
3, 34200, Note_on_c, 0, 59, 0
3, 34200, Note_on_c, 0, 59, 40
3, 34320, Note_on_c, 0, 59, 0
3, 34320, Note_on_c, 0, 59, 44
3, 34335, Control_c, 0, 64, 0
3, 34384, Control_c, 0, 64, 127
3, 34680, Note_on_c, 0, 59, 0
3, 34680, Note_on_c, 0, 59, 44
3, 34800, Note_on_c, 0, 59, 0
3, 34800, Note_on_c, 0, 52, 50
3, 34810, Control_c, 0, 64, 0
3, 34920, Control_c, 0, 64, 127
3, 35040, Note_on_c, 0, 52, 0
3, 35040, Note_on_c, 0, 59, 48
3, 35400, Note_on_c, 0, 59, 0
3, 35400, Note_on_c, 0, 64, 50
3, 35520, Note_on_c, 0, 64, 0
3, 35520, Note_on_c, 0, 68, 54
3, 35530, Control_c, 0, 64, 0
3, 35669, Control_c, 0, 64, 127
3, 35880, Note_on_c, 0, 68, 0
3, 35880, Note_on_c, 0, 71, 55
3, 35966, Control_c, 0, 64, 0
3, 36000, Note_on_c, 0, 71, 0
3, 36000, Note_on_c, 0, 70, 49
3, 36000, Note_on_c, 0, 72, 59
3, 36097, Control_c, 0, 64, 127
3, 36720, Note_on_c, 0, 70, 0
3, 36720, Note_on_c, 0, 69, 55
3, 36737, Control_c, 0, 64, 0
3, 36823, Control_c, 0, 64, 127
3, 37200, Note_on_c, 0, 69, 0
3, 37200, Note_on_c, 0, 72, 0
3, 37200, Control_c, 0, 64, 0
3, 37200, Note_on_c, 0, 69, 41
3, 37200, Note_on_c, 0, 71, 49
3, 37297, Control_c, 0, 64, 127
3, 37920, Note_on_c, 0, 69, 0
3, 37920, Note_on_c, 0, 68, 46
3, 37928, Control_c, 0, 64, 0
3, 37966, Control_c, 0, 64, 127
3, 38400, Note_on_c, 0, 68, 0
3, 38400, Note_on_c, 0, 71, 0
3, 38400, Control_c, 0, 64, 0
3, 38400, Note_on_c, 0, 71, 48
3, 38520, Control_c, 0, 64, 127
3, 38640, Note_on_c, 0, 71, 0
3, 38640, Note_on_c, 0, 69, 51
3, 39000, Note_on_c, 0, 69, 0
3, 39000, Note_on_c, 0, 65, 55
3, 39014, Control_c, 0, 64, 0
3, 39120, Note_on_c, 0, 65, 0
3, 39120, Note_on_c, 0, 66, 46
3, 39219, Control_c, 0, 64, 127
3, 39600, Note_on_c, 0, 66, 0
3, 39600, Note_on_c, 0, 59, 39
3, 39600, Note_on_c, 0, 69, 50
3, 39607, Control_c, 0, 64, 0
3, 39727, Control_c, 0, 64, 127
3, 39840, Note_on_c, 0, 69, 0
3, 39840, Note_on_c, 0, 73, 56
3, 40200, Note_on_c, 0, 73, 0
3, 40200, Note_on_c, 0, 71, 42
3, 40207, Control_c, 0, 64, 0
3, 40320, Note_on_c, 0, 71, 0
3, 40320, Note_on_c, 0, 59, 0
3, 40320, Note_on_c, 0, 64, 36
3, 40320, Note_on_c, 0, 68, 47
3, 40366, Control_c, 0, 64, 127
3, 40800, Note_on_c, 0, 68, 0
3, 40800, Note_on_c, 0, 64, 0
3, 40800, Control_c, 0, 64, 0
3, 40800, Note_on_c, 0, 59, 48
3, 40880, Note_on_c, 0, 59, 0
3, 40880, Note_on_c, 0, 61, 42
3, 40960, Note_on_c, 0, 61, 0
3, 40960, Note_on_c, 0, 59, 42
3, 41040, Note_on_c, 0, 59, 0
3, 41040, Note_on_c, 0, 58, 44
3, 41100, Control_c, 0, 64, 127
3, 41400, Note_on_c, 0, 58, 0
3, 41400, Note_on_c, 0, 56, 44
3, 41520, Note_on_c, 0, 56, 0
3, 41520, Note_on_c, 0, 58, 48
3, 41538, Control_c, 0, 64, 0
3, 41608, Control_c, 0, 64, 127
3, 41880, Note_on_c, 0, 58, 0
3, 41880, Note_on_c, 0, 54, 41
3, 42000, Note_on_c, 0, 54, 0
3, 42000, Control_c, 0, 64, 0
3, 42000, Note_on_c, 0, 56, 48
3, 42080, Note_on_c, 0, 56, 0
3, 42080, Note_on_c, 0, 58, 42
3, 42160, Note_on_c, 0, 58, 0
3, 42160, Note_on_c, 0, 56, 42
3, 42240, Note_on_c, 0, 56, 0
3, 42240, Note_on_c, 0, 54, 44
3, 42265, Control_c, 0, 64, 127
3, 42600, Note_on_c, 0, 54, 0
3, 42600, Note_on_c, 0, 56, 44
3, 42720, Note_on_c, 0, 56, 0
3, 42720, Note_on_c, 0, 58, 48
3, 42737, Control_c, 0, 64, 0
3, 42803, Control_c, 0, 64, 127
3, 43080, Note_on_c, 0, 58, 0
3, 43080, Note_on_c, 0, 59, 41
3, 43200, Note_on_c, 0, 59, 0
3, 43200, Control_c, 0, 64, 0
3, 43200, Note_on_c, 0, 58, 48
3, 43280, Note_on_c, 0, 58, 0
3, 43280, Note_on_c, 0, 59, 42
3, 43360, Note_on_c, 0, 59, 0
3, 43360, Note_on_c, 0, 58, 42
3, 43440, Note_on_c, 0, 58, 0
3, 43440, Note_on_c, 0, 56, 44
3, 43465, Control_c, 0, 64, 127
3, 43800, Note_on_c, 0, 56, 0
3, 43800, Note_on_c, 0, 54, 44
3, 43920, Note_on_c, 0, 54, 0
3, 43920, Note_on_c, 0, 56, 48
3, 43937, Control_c, 0, 64, 0
3, 43992, Control_c, 0, 64, 127
3, 44280, Note_on_c, 0, 56, 0
3, 44280, Note_on_c, 0, 58, 41
3, 44400, Note_on_c, 0, 58, 0
3, 44400, Note_on_c, 0, 54, 48
3, 44409, Control_c, 0, 64, 0
3, 44633, Control_c, 0, 64, 127
3, 45120, Note_on_c, 0, 54, 0
3, 45600, Note_on_c, 0, 51, 46
3, 45603, Control_c, 0, 64, 0
3, 45703, Control_c, 0, 64, 127
3, 45840, Note_on_c, 0, 66, 48
3, 45840, Note_on_c, 0, 60, 48
3, 46320, Note_on_c, 0, 66, 0
3, 46331, Control_c, 0, 64, 0
3, 46433, Control_c, 0, 64, 127
3, 46800, Note_on_c, 0, 60, 0
3, 46800, Note_on_c, 0, 51, 0
3, 46800, Note_on_c, 0, 64, 46
3, 46808, Control_c, 0, 64, 0
3, 46956, Control_c, 0, 64, 127
3, 47040, Note_on_c, 0, 64, 0
3, 47040, Note_on_c, 0, 61, 40
3, 47400, Note_on_c, 0, 61, 0
3, 47400, Note_on_c, 0, 56, 49
3, 47520, Note_on_c, 0, 56, 0
3, 47520, Note_on_c, 0, 52, 46
3, 47531, Control_c, 0, 64, 0
3, 47640, Control_c, 0, 64, 127
3, 47880, Note_on_c, 0, 52, 0
3, 47880, Note_on_c, 0, 49, 51
3, 48000, Note_on_c, 0, 49, 0
3, 48000, Note_on_c, 0, 42, 53
3, 48004, Control_c, 0, 64, 0
3, 48097, Control_c, 0, 64, 127
3, 48240, Note_on_c, 0, 42, 0
3, 48240, Note_on_c, 0, 53, 48
3, 48600, Note_on_c, 0, 53, 0
3, 48600, Note_on_c, 0, 54, 49
3, 48720, Note_on_c, 0, 54, 0
3, 48720, Note_on_c, 0, 58, 52
3, 48731, Control_c, 0, 64, 0
3, 48829, Control_c, 0, 64, 127
3, 49080, Note_on_c, 0, 58, 0
3, 49080, Note_on_c, 0, 66, 49
3, 49200, Note_on_c, 0, 66, 0
3, 49200, Note_on_c, 0, 47, 53
3, 49210, Control_c, 0, 64, 0
3, 49280, Control_c, 0, 64, 127
3, 49440, Note_on_c, 0, 47, 0
3, 49440, Note_on_c, 0, 53, 45
3, 49800, Note_on_c, 0, 53, 0
3, 49800, Note_on_c, 0, 54, 39
3, 49815, Control_c, 0, 64, 0
3, 49860, Note_on_c, 0, 54, 0
3, 49860, Note_on_c, 0, 58, 37
3, 49920, Note_on_c, 0, 55, 46
3, 49940, Note_on_c, 0, 58, 0
3, 50006, Control_c, 0, 64, 127
3, 50280, Note_on_c, 0, 55, 0
3, 50280, Note_on_c, 0, 54, 42
3, 50400, Note_on_c, 0, 54, 0
3, 50400, Control_c, 0, 64, 0
3, 50400, Note_on_c, 0, 62, 42
3, 50640, Note_on_c, 0, 62, 0
3, 50640, Note_on_c, 0, 61, 39
3, 50711, Control_c, 0, 64, 127
3, 51000, Note_on_c, 0, 61, 0
3, 51000, Note_on_c, 0, 59, 39
3, 51120, Note_on_c, 0, 59, 0
3, 51120, Note_on_c, 0, 61, 42
3, 51130, Control_c, 0, 64, 0
3, 51268, Control_c, 0, 64, 127
3, 51480, Note_on_c, 0, 61, 0
3, 51480, Note_on_c, 0, 62, 37
3, 51600, Note_on_c, 0, 62, 0
3, 51600, Control_c, 0, 64, 0
3, 51600, Note_on_c, 0, 61, 42
3, 51680, Note_on_c, 0, 61, 0
3, 51680, Note_on_c, 0, 62, 38
3, 51760, Note_on_c, 0, 62, 0
3, 51760, Note_on_c, 0, 61, 38
3, 51840, Note_on_c, 0, 61, 0
3, 51840, Note_on_c, 0, 59, 39
3, 51865, Control_c, 0, 64, 127
3, 52200, Note_on_c, 0, 59, 0
3, 52200, Note_on_c, 0, 61, 39
3, 52320, Note_on_c, 0, 61, 0
3, 52320, Note_on_c, 0, 62, 42
3, 52340, Control_c, 0, 64, 0
3, 52429, Control_c, 0, 64, 127
3, 52680, Note_on_c, 0, 62, 0
3, 52680, Note_on_c, 0, 64, 37
3, 52800, Note_on_c, 0, 64, 0
3, 52800, Control_c, 0, 64, 0
3, 52800, Note_on_c, 0, 62, 42
3, 52880, Note_on_c, 0, 62, 0
3, 52880, Note_on_c, 0, 64, 38
3, 52960, Note_on_c, 0, 64, 0
3, 52960, Note_on_c, 0, 62, 38
3, 53040, Note_on_c, 0, 62, 0
3, 53040, Note_on_c, 0, 61, 39
3, 53097, Control_c, 0, 64, 127
3, 53400, Note_on_c, 0, 61, 0
3, 53400, Note_on_c, 0, 59, 39
3, 53520, Note_on_c, 0, 70, 27
3, 53535, Control_c, 0, 64, 0
3, 53595, Control_c, 0, 64, 127
3, 54000, Note_on_c, 0, 70, 0
3, 54000, Note_on_c, 0, 59, 0
3, 54000, Control_c, 0, 64, 0
3, 54000, Note_on_c, 0, 71, 48
3, 54088, Control_c, 0, 64, 127
3, 54240, Note_on_c, 0, 71, 0
3, 54240, Note_on_c, 0, 65, 39
3, 54600, Note_on_c, 0, 65, 0
3, 54600, Note_on_c, 0, 66, 38
3, 54622, Control_c, 0, 64, 0
3, 54660, Note_on_c, 0, 66, 0
3, 54660, Note_on_c, 0, 69, 35
3, 54720, Note_on_c, 0, 67, 44
3, 54740, Note_on_c, 0, 69, 0
3, 54806, Control_c, 0, 64, 127
3, 55080, Note_on_c, 0, 67, 0
3, 55080, Note_on_c, 0, 66, 38
3, 55200, Note_on_c, 0, 66, 0
3, 55200, Note_on_c, 0, 63, 53
3, 55204, Control_c, 0, 64, 0
3, 55440, Note_on_c, 0, 63, 0
3, 55440, Note_on_c, 0, 64, 50
3, 55532, Control_c, 0, 64, 127
3, 55800, Note_on_c, 0, 64, 0
3, 55800, Note_on_c, 0, 58, 50
3, 55920, Note_on_c, 0, 58, 0
3, 55920, Note_on_c, 0, 59, 53
3, 55943, Control_c, 0, 64, 0
3, 56017, Control_c, 0, 64, 127
3, 56280, Note_on_c, 0, 59, 0
3, 56280, Note_on_c, 0, 57, 50
3, 56400, Note_on_c, 0, 57, 0
3, 56400, Note_on_c, 0, 56, 54
3, 56404, Control_c, 0, 64, 0
3, 56640, Note_on_c, 0, 56, 0
3, 56640, Note_on_c, 0, 55, 50
3, 56692, Control_c, 0, 64, 127
3, 57000, Note_on_c, 0, 55, 0
3, 57000, Note_on_c, 0, 53, 55
3, 57120, Note_on_c, 0, 53, 0
3, 57120, Note_on_c, 0, 54, 51
3, 57129, Control_c, 0, 64, 0
3, 57235, Control_c, 0, 64, 127
3, 57600, Note_on_c, 0, 54, 0
3, 57600, Control_c, 0, 64, 0
3, 57600, Note_on_c, 0, 64, 45
3, 57720, Control_c, 0, 64, 127
3, 57840, Note_on_c, 0, 64, 0
3, 57840, Note_on_c, 0, 64, 48
3, 58200, Note_on_c, 0, 64, 0
3, 58200, Note_on_c, 0, 62, 47
3, 58214, Control_c, 0, 64, 0
3, 58320, Note_on_c, 0, 62, 0
3, 58320, Note_on_c, 0, 61, 49
3, 58419, Control_c, 0, 64, 127
3, 58800, Note_on_c, 0, 61, 0
3, 58800, Control_c, 0, 64, 0
3, 58800, Note_on_c, 0, 54, 42
3, 58800, Note_on_c, 0, 64, 50
3, 58927, Control_c, 0, 64, 127
3, 59040, Note_on_c, 0, 64, 0
3, 59040, Note_on_c, 0, 54, 0
3, 59040, Note_on_c, 0, 54, 40
3, 59040, Note_on_c, 0, 64, 48
3, 59400, Note_on_c, 0, 64, 0
3, 59400, Note_on_c, 0, 54, 0
3, 59400, Note_on_c, 0, 54, 33
3, 59400, Note_on_c, 0, 64, 39
3, 59520, Note_on_c, 0, 64, 0
3, 59520, Note_on_c, 0, 54, 0
3, 59520, Note_on_c, 0, 59, 28
3, 59520, Note_on_c, 0, 62, 44
3, 59541, Control_c, 0, 64, 0
3, 59626, Control_c, 0, 64, 127
3, 60000, Note_on_c, 0, 62, 0
3, 60000, Note_on_c, 0, 59, 0
3, 60000, Control_c, 0, 64, 0
3, 60000, Note_on_c, 0, 59, 48
3, 60080, Note_on_c, 0, 59, 0
3, 60080, Note_on_c, 0, 61, 42
3, 60160, Note_on_c, 0, 61, 0
3, 60160, Note_on_c, 0, 59, 42
3, 60240, Note_on_c, 0, 59, 0
3, 60240, Note_on_c, 0, 58, 44
3, 60300, Control_c, 0, 64, 127
3, 60600, Note_on_c, 0, 58, 0
3, 60600, Note_on_c, 0, 56, 44
3, 60720, Note_on_c, 0, 56, 0
3, 60720, Note_on_c, 0, 58, 48
3, 60738, Control_c, 0, 64, 0
3, 60808, Control_c, 0, 64, 127
3, 61080, Note_on_c, 0, 58, 0
3, 61080, Note_on_c, 0, 54, 41
3, 61200, Note_on_c, 0, 54, 0
3, 61200, Control_c, 0, 64, 0
3, 61200, Note_on_c, 0, 56, 48
3, 61280, Note_on_c, 0, 56, 0
3, 61280, Note_on_c, 0, 58, 42
3, 61360, Note_on_c, 0, 58, 0
3, 61360, Note_on_c, 0, 56, 42
3, 61440, Note_on_c, 0, 56, 0
3, 61440, Note_on_c, 0, 54, 44
3, 61465, Control_c, 0, 64, 127
3, 61800, Note_on_c, 0, 54, 0
3, 61800, Note_on_c, 0, 56, 44
3, 61920, Note_on_c, 0, 56, 0
3, 61920, Note_on_c, 0, 58, 48
3, 61937, Control_c, 0, 64, 0
3, 62003, Control_c, 0, 64, 127
3, 62280, Note_on_c, 0, 58, 0
3, 62280, Note_on_c, 0, 59, 41
3, 62400, Note_on_c, 0, 59, 0
3, 62400, Control_c, 0, 64, 0
3, 62400, Note_on_c, 0, 58, 48
3, 62480, Note_on_c, 0, 58, 0
3, 62480, Note_on_c, 0, 59, 42
3, 62560, Note_on_c, 0, 59, 0
3, 62560, Note_on_c, 0, 58, 42
3, 62640, Note_on_c, 0, 58, 0
3, 62640, Note_on_c, 0, 56, 44
3, 62665, Control_c, 0, 64, 127
3, 63000, Note_on_c, 0, 56, 0
3, 63000, Note_on_c, 0, 54, 44
3, 63120, Note_on_c, 0, 54, 0
3, 63120, Note_on_c, 0, 56, 48
3, 63137, Control_c, 0, 64, 0
3, 63192, Control_c, 0, 64, 127
3, 63480, Note_on_c, 0, 56, 0
3, 63480, Note_on_c, 0, 58, 41
3, 63600, Note_on_c, 0, 58, 0
3, 63600, Note_on_c, 0, 54, 48
3, 63609, Control_c, 0, 64, 0
3, 63833, Control_c, 0, 64, 127
3, 64320, Note_on_c, 0, 54, 0
3, 64800, Note_on_c, 0, 51, 46
3, 64803, Control_c, 0, 64, 0
3, 64903, Control_c, 0, 64, 127
3, 65040, Note_on_c, 0, 60, 48
3, 65040, Note_on_c, 0, 66, 48
3, 65520, Note_on_c, 0, 66, 0
3, 65531, Control_c, 0, 64, 0
3, 65633, Control_c, 0, 64, 127
3, 66000, Note_on_c, 0, 60, 0
3, 66000, Note_on_c, 0, 51, 0
3, 66000, Note_on_c, 0, 64, 46
3, 66008, Control_c, 0, 64, 0
3, 66156, Control_c, 0, 64, 127
3, 66240, Note_on_c, 0, 64, 0
3, 66240, Note_on_c, 0, 61, 40
3, 66600, Note_on_c, 0, 61, 0
3, 66600, Note_on_c, 0, 56, 49
3, 66720, Note_on_c, 0, 56, 0
3, 66720, Note_on_c, 0, 52, 46
3, 66731, Control_c, 0, 64, 0
3, 66840, Control_c, 0, 64, 127
3, 67080, Note_on_c, 0, 52, 0
3, 67080, Note_on_c, 0, 49, 51
3, 67200, Note_on_c, 0, 49, 0
3, 67200, Note_on_c, 0, 42, 53
3, 67204, Control_c, 0, 64, 0
3, 67297, Control_c, 0, 64, 127
3, 67440, Note_on_c, 0, 42, 0
3, 67440, Note_on_c, 0, 53, 48
3, 67800, Note_on_c, 0, 53, 0
3, 67800, Note_on_c, 0, 54, 49
3, 67920, Note_on_c, 0, 54, 0
3, 67920, Note_on_c, 0, 58, 52
3, 67931, Control_c, 0, 64, 0
3, 68029, Control_c, 0, 64, 127
3, 68280, Note_on_c, 0, 58, 0
3, 68280, Note_on_c, 0, 66, 49
3, 68400, Note_on_c, 0, 66, 0
3, 68400, Note_on_c, 0, 47, 53
3, 68410, Control_c, 0, 64, 0
3, 68480, Control_c, 0, 64, 127
3, 68640, Note_on_c, 0, 47, 0
3, 68640, Note_on_c, 0, 53, 45
3, 69000, Note_on_c, 0, 53, 0
3, 69000, Note_on_c, 0, 54, 39
3, 69015, Control_c, 0, 64, 0
3, 69060, Note_on_c, 0, 54, 0
3, 69060, Note_on_c, 0, 58, 37
3, 69120, Note_on_c, 0, 55, 46
3, 69140, Note_on_c, 0, 58, 0
3, 69206, Control_c, 0, 64, 127
3, 69480, Note_on_c, 0, 55, 0
3, 69480, Note_on_c, 0, 54, 42
3, 69600, Note_on_c, 0, 54, 0
3, 69600, Control_c, 0, 64, 0
3, 69600, Note_on_c, 0, 62, 42
3, 69840, Note_on_c, 0, 62, 0
3, 69840, Note_on_c, 0, 61, 39
3, 69911, Control_c, 0, 64, 127
3, 70200, Note_on_c, 0, 61, 0
3, 70200, Note_on_c, 0, 59, 39
3, 70320, Note_on_c, 0, 59, 0
3, 70320, Note_on_c, 0, 61, 42
3, 70330, Control_c, 0, 64, 0
3, 70468, Control_c, 0, 64, 127
3, 70680, Note_on_c, 0, 61, 0
3, 70680, Note_on_c, 0, 62, 37
3, 70800, Note_on_c, 0, 62, 0
3, 70800, Control_c, 0, 64, 0
3, 70800, Note_on_c, 0, 61, 42
3, 70880, Note_on_c, 0, 61, 0
3, 70880, Note_on_c, 0, 62, 38
3, 70960, Note_on_c, 0, 62, 0
3, 70960, Note_on_c, 0, 61, 38
3, 71040, Note_on_c, 0, 61, 0
3, 71040, Note_on_c, 0, 59, 39
3, 71065, Control_c, 0, 64, 127
3, 71400, Note_on_c, 0, 59, 0
3, 71400, Note_on_c, 0, 61, 39
3, 71520, Note_on_c, 0, 61, 0
3, 71520, Note_on_c, 0, 62, 42
3, 71540, Control_c, 0, 64, 0
3, 71629, Control_c, 0, 64, 127
3, 71880, Note_on_c, 0, 62, 0
3, 71880, Note_on_c, 0, 64, 37
3, 72000, Note_on_c, 0, 64, 0
3, 72000, Control_c, 0, 64, 0
3, 72000, Note_on_c, 0, 62, 42
3, 72080, Note_on_c, 0, 62, 0
3, 72080, Note_on_c, 0, 64, 38
3, 72160, Note_on_c, 0, 64, 0
3, 72160, Note_on_c, 0, 62, 38
3, 72240, Note_on_c, 0, 62, 0
3, 72240, Note_on_c, 0, 61, 39
3, 72297, Control_c, 0, 64, 127
3, 72600, Note_on_c, 0, 61, 0
3, 72600, Note_on_c, 0, 59, 39
3, 72720, Note_on_c, 0, 70, 27
3, 72735, Control_c, 0, 64, 0
3, 72795, Control_c, 0, 64, 127
3, 73200, Note_on_c, 0, 70, 0
3, 73200, Note_on_c, 0, 59, 0
3, 73200, Control_c, 0, 64, 0
3, 73200, Note_on_c, 0, 71, 48
3, 73288, Control_c, 0, 64, 127
3, 73440, Note_on_c, 0, 71, 0
3, 73440, Note_on_c, 0, 65, 39
3, 73800, Note_on_c, 0, 65, 0
3, 73800, Note_on_c, 0, 66, 38
3, 73822, Control_c, 0, 64, 0
3, 73860, Note_on_c, 0, 66, 0
3, 73860, Note_on_c, 0, 69, 35
3, 73920, Note_on_c, 0, 67, 44
3, 73940, Note_on_c, 0, 69, 0
3, 74006, Control_c, 0, 64, 127
3, 74280, Note_on_c, 0, 67, 0
3, 74280, Note_on_c, 0, 66, 38
3, 74400, Note_on_c, 0, 66, 0
3, 74400, Note_on_c, 0, 63, 53
3, 74404, Control_c, 0, 64, 0
3, 74640, Note_on_c, 0, 63, 0
3, 74640, Note_on_c, 0, 64, 50
3, 74732, Control_c, 0, 64, 127
3, 75000, Note_on_c, 0, 64, 0
3, 75000, Note_on_c, 0, 58, 50
3, 75120, Note_on_c, 0, 58, 0
3, 75120, Note_on_c, 0, 59, 53
3, 75143, Control_c, 0, 64, 0
3, 75217, Control_c, 0, 64, 127
3, 75480, Note_on_c, 0, 59, 0
3, 75480, Note_on_c, 0, 57, 50
3, 75600, Note_on_c, 0, 57, 0
3, 75600, Note_on_c, 0, 56, 54
3, 75604, Control_c, 0, 64, 0
3, 75840, Note_on_c, 0, 56, 0
3, 75840, Note_on_c, 0, 55, 50
3, 75892, Control_c, 0, 64, 127
3, 76200, Note_on_c, 0, 55, 0
3, 76200, Note_on_c, 0, 53, 55
3, 76320, Note_on_c, 0, 53, 0
3, 76320, Note_on_c, 0, 54, 51
3, 76329, Control_c, 0, 64, 0
3, 76435, Control_c, 0, 64, 127
3, 76800, Note_on_c, 0, 54, 0
3, 76800, Control_c, 0, 64, 0
3, 76800, Note_on_c, 0, 64, 45
3, 76920, Control_c, 0, 64, 127
3, 77040, Note_on_c, 0, 64, 0
3, 77040, Note_on_c, 0, 64, 48
3, 77400, Note_on_c, 0, 64, 0
3, 77400, Note_on_c, 0, 62, 47
3, 77414, Control_c, 0, 64, 0
3, 77520, Note_on_c, 0, 62, 0
3, 77520, Note_on_c, 0, 61, 49
3, 77619, Control_c, 0, 64, 127
3, 78000, Note_on_c, 0, 61, 0
3, 78000, Note_on_c, 0, 54, 42
3, 78000, Control_c, 0, 64, 0
3, 78000, Note_on_c, 0, 64, 50
3, 78127, Control_c, 0, 64, 127
3, 78240, Note_on_c, 0, 64, 0
3, 78240, Note_on_c, 0, 54, 0
3, 78240, Note_on_c, 0, 54, 40
3, 78240, Note_on_c, 0, 64, 48
3, 78600, Note_on_c, 0, 64, 0
3, 78600, Note_on_c, 0, 54, 0
3, 78600, Note_on_c, 0, 64, 39
3, 78600, Note_on_c, 0, 54, 33
3, 78720, Note_on_c, 0, 54, 0
3, 78720, Note_on_c, 0, 64, 0
3, 78720, Note_on_c, 0, 62, 44
3, 78720, Note_on_c, 0, 59, 28
3, 78741, Control_c, 0, 64, 0
3, 78826, Control_c, 0, 64, 127
3, 79200, Note_on_c, 0, 59, 0
3, 79200, Note_on_c, 0, 62, 0
3, 79200, Control_c, 0, 64, 0
3, 79200, Note_on_c, 0, 59, 44
3, 79274, Control_c, 0, 64, 127
3, 79440, Note_on_c, 0, 59, 0
3, 79440, Note_on_c, 0, 59, 40
3, 79800, Note_on_c, 0, 59, 0
3, 79800, Note_on_c, 0, 59, 40
3, 79920, Note_on_c, 0, 59, 0
3, 79920, Note_on_c, 0, 59, 44
3, 79936, Control_c, 0, 64, 0
3, 80057, Control_c, 0, 64, 127
3, 80280, Note_on_c, 0, 59, 0
3, 80280, Note_on_c, 0, 59, 40
3, 80400, Note_on_c, 0, 59, 0
3, 80400, Note_on_c, 0, 59, 44
3, 80406, Control_c, 0, 64, 0
3, 80520, Control_c, 0, 64, 127
3, 80640, Note_on_c, 0, 59, 0
3, 80640, Note_on_c, 0, 59, 40
3, 81000, Note_on_c, 0, 59, 0
3, 81000, Note_on_c, 0, 59, 40
3, 81120, Note_on_c, 0, 59, 0
3, 81120, Note_on_c, 0, 59, 44
3, 81128, Control_c, 0, 64, 0
3, 81240, Control_c, 0, 64, 127
3, 81480, Note_on_c, 0, 59, 0
3, 81480, Note_on_c, 0, 59, 40
3, 81600, Note_on_c, 0, 59, 0
3, 81600, Note_on_c, 0, 59, 44
3, 81607, Control_c, 0, 64, 0
3, 81635, Control_c, 0, 64, 127
3, 81840, Note_on_c, 0, 59, 0
3, 81840, Note_on_c, 0, 59, 40
3, 82200, Note_on_c, 0, 59, 0
3, 82200, Note_on_c, 0, 59, 40
3, 82320, Note_on_c, 0, 59, 0
3, 82320, Note_on_c, 0, 59, 44
3, 82331, Control_c, 0, 64, 0
3, 82391, Control_c, 0, 64, 127
3, 82680, Note_on_c, 0, 59, 0
3, 82680, Note_on_c, 0, 59, 44
3, 82800, Note_on_c, 0, 59, 0
3, 82800, Note_on_c, 0, 52, 37
3, 82800, Note_on_c, 0, 59, 50
3, 82810, Control_c, 0, 64, 0
3, 82937, Control_c, 0, 64, 127
3, 83040, Note_on_c, 0, 59, 0
3, 83040, Note_on_c, 0, 59, 48
3, 83400, Note_on_c, 0, 59, 0
3, 83400, Note_on_c, 0, 64, 49
3, 83520, Note_on_c, 0, 64, 0
3, 83520, Note_on_c, 0, 52, 0
3, 83520, Note_on_c, 0, 63, 49
3, 83529, Control_c, 0, 64, 0
3, 83669, Control_c, 0, 64, 127
3, 83880, Note_on_c, 0, 63, 0
3, 83880, Note_on_c, 0, 62, 45
3, 83966, Control_c, 0, 64, 0
3, 84000, Note_on_c, 0, 62, 0
3, 84000, Note_on_c, 0, 61, 48
3, 84000, Note_on_c, 0, 68, 48
3, 84088, Control_c, 0, 64, 127
3, 84240, Note_on_c, 0, 68, 0
3, 84240, Note_on_c, 0, 69, 51
3, 84600, Note_on_c, 0, 69, 0
3, 84600, Note_on_c, 0, 71, 50
3, 84614, Control_c, 0, 64, 0
3, 84720, Note_on_c, 0, 71, 0
3, 84720, Note_on_c, 0, 73, 46
3, 84819, Control_c, 0, 64, 127
3, 85080, Note_on_c, 0, 73, 0
3, 85080, Note_on_c, 0, 71, 48
3, 85200, Note_on_c, 0, 71, 0
3, 85200, Note_on_c, 0, 61, 0
3, 85200, Note_on_c, 0, 66, 39
3, 85200, Note_on_c, 0, 71, 50
3, 85207, Control_c, 0, 64, 0
3, 85326, Control_c, 0, 64, 127
3, 85440, Note_on_c, 0, 71, 0
3, 85440, Note_on_c, 0, 69, 49
3, 85800, Note_on_c, 0, 69, 0
3, 85800, Note_on_c, 0, 68, 46
3, 85806, Control_c, 0, 64, 0
3, 85920, Note_on_c, 0, 68, 0
3, 85920, Note_on_c, 0, 66, 0
3, 85920, Note_on_c, 0, 69, 48
3, 86035, Control_c, 0, 64, 127
3, 86280, Note_on_c, 0, 69, 0
3, 86280, Note_on_c, 0, 64, 46
3, 86303, Control_c, 0, 64, 0
3, 86400, Note_on_c, 0, 64, 0
3, 86400, Note_on_c, 0, 59, 37
3, 86400, Note_on_c, 0, 63, 49
3, 86513, Control_c, 0, 64, 127
3, 86640, Note_on_c, 0, 63, 0
3, 86640, Note_on_c, 0, 62, 49
3, 87000, Note_on_c, 0, 62, 0
3, 87000, Note_on_c, 0, 63, 49
3, 87120, Note_on_c, 0, 63, 0
3, 87120, Note_on_c, 0, 59, 0
3, 87120, Note_on_c, 0, 59, 37
3, 87120, Note_on_c, 0, 73, 46
3, 87134, Control_c, 0, 64, 0
3, 87240, Control_c, 0, 64, 127
3, 87480, Note_on_c, 0, 73, 0
3, 87480, Note_on_c, 0, 71, 48
3, 87600, Note_on_c, 0, 71, 0
3, 87600, Note_on_c, 0, 59, 0
3, 87600, Note_on_c, 0, 64, 34
3, 87600, Note_on_c, 0, 69, 46
3, 87608, Control_c, 0, 64, 0
3, 87703, Control_c, 0, 64, 127
3, 87840, Note_on_c, 0, 69, 0
3, 87840, Note_on_c, 0, 68, 45
3, 88200, Note_on_c, 0, 68, 0
3, 88200, Note_on_c, 0, 67, 41
3, 88320, Note_on_c, 0, 67, 0
3, 88320, Note_on_c, 0, 68, 37
3, 88340, Control_c, 0, 64, 0
3, 88435, Control_c, 0, 64, 127
3, 88543, Control_c, 0, 64, 0
3, 88560, Note_on_c, 0, 68, 0
3, 88680, Note_on_c, 0, 64, 0
3, 88800, Note_on_c, 0, 59, 44
3, 88834, Control_c, 0, 64, 0
3, 88874, Control_c, 0, 64, 127
3, 89040, Note_on_c, 0, 59, 0
3, 89040, Note_on_c, 0, 59, 40
3, 89400, Note_on_c, 0, 59, 0
3, 89400, Note_on_c, 0, 59, 40
3, 89520, Note_on_c, 0, 59, 0
3, 89520, Note_on_c, 0, 59, 44
3, 89540, Control_c, 0, 64, 0
3, 89657, Control_c, 0, 64, 127
3, 89880, Note_on_c, 0, 59, 0
3, 89880, Note_on_c, 0, 59, 40
3, 90000, Note_on_c, 0, 59, 0
3, 90000, Note_on_c, 0, 59, 44
3, 90007, Control_c, 0, 64, 0
3, 90064, Control_c, 0, 64, 127
3, 90240, Note_on_c, 0, 59, 0
3, 90240, Note_on_c, 0, 59, 40
3, 90600, Note_on_c, 0, 59, 0
3, 90600, Note_on_c, 0, 59, 40
3, 90720, Note_on_c, 0, 59, 0
3, 90720, Note_on_c, 0, 59, 44
3, 90736, Control_c, 0, 64, 0
3, 90826, Control_c, 0, 64, 127
3, 91080, Note_on_c, 0, 59, 0
3, 91080, Note_on_c, 0, 59, 40
3, 91200, Note_on_c, 0, 59, 0
3, 91200, Note_on_c, 0, 59, 44
3, 91209, Control_c, 0, 64, 0
3, 91243, Control_c, 0, 64, 127
3, 91440, Note_on_c, 0, 59, 0
3, 91440, Note_on_c, 0, 59, 40
3, 91800, Note_on_c, 0, 59, 0
3, 91800, Note_on_c, 0, 59, 40
3, 91920, Note_on_c, 0, 59, 0
3, 91920, Note_on_c, 0, 59, 44
3, 91931, Control_c, 0, 64, 0
3, 91987, Control_c, 0, 64, 127
3, 92280, Note_on_c, 0, 59, 0
3, 92280, Note_on_c, 0, 59, 44
3, 92400, Note_on_c, 0, 59, 0
3, 92400, Note_on_c, 0, 52, 50
3, 92410, Control_c, 0, 64, 0
3, 92527, Control_c, 0, 64, 127
3, 92640, Note_on_c, 0, 52, 0
3, 92640, Note_on_c, 0, 59, 48
3, 93000, Note_on_c, 0, 59, 0
3, 93000, Note_on_c, 0, 64, 51
3, 93120, Note_on_c, 0, 64, 0
3, 93120, Note_on_c, 0, 68, 54
3, 93480, Note_on_c, 0, 68, 0
3, 93480, Note_on_c, 0, 71, 55
3, 93600, Note_on_c, 0, 71, 0
3, 93600, Note_on_c, 0, 70, 49
3, 93600, Note_on_c, 0, 72, 59
3, 93617, Control_c, 0, 64, 0
3, 93749, Control_c, 0, 64, 127
3, 94320, Note_on_c, 0, 70, 0
3, 94320, Note_on_c, 0, 69, 55
3, 94337, Control_c, 0, 64, 0
3, 94417, Control_c, 0, 64, 127
3, 94800, Note_on_c, 0, 69, 0
3, 94800, Note_on_c, 0, 72, 0
3, 94800, Note_on_c, 0, 69, 41
3, 94800, Note_on_c, 0, 71, 49
3, 94810, Control_c, 0, 64, 0
3, 94970, Control_c, 0, 64, 127
3, 95520, Note_on_c, 0, 69, 0
3, 95520, Note_on_c, 0, 68, 46
3, 95535, Control_c, 0, 64, 0
3, 95661, Control_c, 0, 64, 127
3, 96000, Note_on_c, 0, 68, 0
3, 96000, Note_on_c, 0, 71, 0
3, 96000, Note_on_c, 0, 71, 48
3, 96009, Control_c, 0, 64, 0
3, 96120, Control_c, 0, 64, 127
3, 96240, Note_on_c, 0, 71, 0
3, 96240, Note_on_c, 0, 69, 51
3, 96600, Note_on_c, 0, 69, 0
3, 96600, Note_on_c, 0, 65, 55
3, 96614, Control_c, 0, 64, 0
3, 96720, Note_on_c, 0, 65, 0
3, 96720, Note_on_c, 0, 66, 44
3, 96819, Control_c, 0, 64, 127
3, 97147, Control_c, 0, 64, 0
3, 97200, Note_on_c, 0, 66, 0
3, 97200, Note_on_c, 0, 59, 39
3, 97200, Note_on_c, 0, 69, 50
3, 97206, Control_c, 0, 64, 127
3, 97440, Note_on_c, 0, 69, 0
3, 97440, Note_on_c, 0, 73, 55
3, 97800, Note_on_c, 0, 73, 0
3, 97800, Note_on_c, 0, 71, 42
3, 97806, Control_c, 0, 64, 0
3, 97920, Note_on_c, 0, 71, 0
3, 97920, Note_on_c, 0, 59, 0
3, 97920, Note_on_c, 0, 64, 36
3, 97920, Note_on_c, 0, 68, 47
3, 97966, Control_c, 0, 64, 127
3, 98398, Note_on_c, 0, 64, 0
3, 98400, Note_on_c, 0, 68, 0
3, 98400, Note_on_c, 0, 60, 37
3, 98434, Control_c, 0, 64, 0
3, 98474, Control_c, 0, 64, 127
3, 98640, Note_on_c, 0, 60, 0
3, 98640, Note_on_c, 0, 59, 34
3, 98658, Control_c, 0, 64, 0
3, 98757, Control_c, 0, 64, 127
3, 99000, Note_on_c, 0, 59, 0
3, 99000, Note_on_c, 0, 60, 34
3, 99120, Note_on_c, 0, 60, 0
3, 99120, Note_on_c, 0, 59, 37
3, 99143, Control_c, 0, 64, 0
3, 99224, Control_c, 0, 64, 127
3, 99480, Note_on_c, 0, 59, 0
3, 99480, Note_on_c, 0, 57, 41
3, 99497, Control_c, 0, 64, 0
3, 99600, Note_on_c, 0, 57, 0
3, 99600, Note_on_c, 0, 55, 50
3, 99614, Control_c, 0, 64, 0
3, 99674, Control_c, 0, 64, 127
3, 99840, Note_on_c, 0, 55, 0
3, 99840, Note_on_c, 0, 54, 45
3, 99858, Control_c, 0, 64, 0
3, 99960, Control_c, 0, 64, 127
3, 100200, Note_on_c, 0, 54, 0
3, 100200, Note_on_c, 0, 52, 44
3, 100320, Note_on_c, 0, 52, 0
3, 100320, Note_on_c, 0, 50, 48
3, 100340, Control_c, 0, 64, 0
3, 100469, Control_c, 0, 64, 127
3, 100680, Note_on_c, 0, 50, 0
3, 100680, Note_on_c, 0, 47, 47
3, 100800, Note_on_c, 0, 47, 0
3, 100800, Note_on_c, 0, 48, 55
3, 100814, Control_c, 0, 64, 0
3, 100874, Control_c, 0, 64, 127
3, 101040, Note_on_c, 0, 48, 0
3, 101040, Note_on_c, 0, 45, 52
3, 101400, Note_on_c, 0, 45, 0
3, 101400, Note_on_c, 0, 42, 55
3, 101520, Note_on_c, 0, 42, 0
3, 101520, Note_on_c, 0, 47, 60
3, 101530, Control_c, 0, 64, 0
3, 101669, Control_c, 0, 64, 127
3, 101880, Note_on_c, 0, 47, 0
3, 101880, Note_on_c, 0, 35, 59
3, 102000, Note_on_c, 0, 35, 0
3, 102000, Note_on_c, 0, 40, 70
3, 102013, Control_c, 0, 64, 0
3, 102141, Control_c, 0, 64, 127
3, 102240, Note_on_c, 0, 40, 0
3, 102240, Note_on_c, 0, 47, 64
3, 102600, Note_on_c, 0, 47, 0
3, 102600, Note_on_c, 0, 52, 62
3, 102720, Note_on_c, 0, 52, 0
3, 102720, Note_on_c, 0, 56, 70
3, 103080, Note_on_c, 0, 56, 0
3, 103080, Note_on_c, 0, 59, 64
3, 103200, Note_on_c, 0, 59, 0
3, 103200, Note_on_c, 0, 59, 45
3, 103200, Note_on_c, 0, 63, 53
3, 103234, Control_c, 0, 64, 0
3, 103327, Control_c, 0, 64, 127
3, 103440, Note_on_c, 0, 63, 0
3, 103440, Note_on_c, 0, 64, 50
3, 103800, Note_on_c, 0, 64, 0
3, 103800, Note_on_c, 0, 66, 48
3, 103920, Note_on_c, 0, 66, 0
3, 103920, Note_on_c, 0, 63, 53
3, 103930, Control_c, 0, 64, 0
3, 104069, Control_c, 0, 64, 127
3, 104280, Note_on_c, 0, 63, 0
3, 104280, Note_on_c, 0, 66, 51
3, 104400, Note_on_c, 0, 66, 0
3, 104400, Note_on_c, 0, 59, 0
3, 104400, Note_on_c, 0, 68, 52
3, 104400, Note_on_c, 0, 64, 52
3, 104421, Control_c, 0, 64, 0
3, 104560, Control_c, 0, 64, 127
3, 104640, Note_on_c, 0, 64, 0
3, 104640, Note_on_c, 0, 63, 51
3, 105000, Note_on_c, 0, 63, 0
3, 105000, Note_on_c, 0, 62, 47
3, 105120, Note_on_c, 0, 62, 0
3, 105120, Note_on_c, 0, 68, 0
3, 105120, Note_on_c, 0, 61, 49
3, 105129, Control_c, 0, 64, 0
3, 105269, Control_c, 0, 64, 127
3, 105480, Note_on_c, 0, 61, 0
3, 105480, Note_on_c, 0, 60, 51
3, 105600, Note_on_c, 0, 60, 0
3, 105600, Note_on_c, 0, 47, 40
3, 105600, Note_on_c, 0, 51, 47
3, 105630, Control_c, 0, 64, 0
3, 105741, Control_c, 0, 64, 127
3, 105840, Note_on_c, 0, 51, 0
3, 105840, Note_on_c, 0, 52, 45
3, 106200, Note_on_c, 0, 52, 0
3, 106200, Note_on_c, 0, 54, 43
3, 106320, Note_on_c, 0, 54, 0
3, 106320, Note_on_c, 0, 51, 47
3, 106326, Control_c, 0, 64, 0
3, 106469, Control_c, 0, 64, 127
3, 106680, Note_on_c, 0, 51, 0
3, 106680, Note_on_c, 0, 54, 42
3, 106800, Note_on_c, 0, 54, 0
3, 106800, Note_on_c, 0, 47, 0
3, 106800, Control_c, 0, 64, 0
3, 106800, Note_on_c, 0, 52, 45
3, 106800, Note_on_c, 0, 56, 45
3, 107014, Control_c, 0, 64, 127
3, 107040, Note_on_c, 0, 56, 0
3, 107040, Note_on_c, 0, 52, 0
3, 107040, Note_on_c, 0, 40, 50
3, 107040, Note_on_c, 0, 52, 59
3, 107520, Note_on_c, 0, 52, 0
3, 107520, Note_on_c, 0, 40, 0
3, 107574, Control_c, 0, 64, 0
3, 108000, Note_on_c, 0, 59, 44
3, 108000, Control_c, 0, 64, 0
3, 108074, Control_c, 0, 64, 127
3, 108240, Note_on_c, 0, 59, 0
3, 108240, Note_on_c, 0, 59, 40
3, 108600, Note_on_c, 0, 59, 0
3, 108600, Note_on_c, 0, 59, 40
3, 108720, Note_on_c, 0, 59, 0
3, 108720, Note_on_c, 0, 59, 44
3, 108736, Control_c, 0, 64, 0
3, 108857, Control_c, 0, 64, 127
3, 109080, Note_on_c, 0, 59, 0
3, 109080, Note_on_c, 0, 59, 40
3, 109200, Note_on_c, 0, 59, 0
3, 109200, Note_on_c, 0, 59, 44
3, 109206, Control_c, 0, 64, 0
3, 109320, Control_c, 0, 64, 127
3, 109440, Note_on_c, 0, 59, 0
3, 109440, Note_on_c, 0, 59, 40
3, 109800, Note_on_c, 0, 59, 0
3, 109800, Note_on_c, 0, 59, 40
3, 109920, Note_on_c, 0, 59, 0
3, 109920, Note_on_c, 0, 59, 44
3, 109928, Control_c, 0, 64, 0
3, 110040, Control_c, 0, 64, 127
3, 110280, Note_on_c, 0, 59, 0
3, 110280, Note_on_c, 0, 59, 40
3, 110400, Note_on_c, 0, 59, 0
3, 110400, Note_on_c, 0, 59, 44
3, 110407, Control_c, 0, 64, 0
3, 110435, Control_c, 0, 64, 127
3, 110640, Note_on_c, 0, 59, 0
3, 110640, Note_on_c, 0, 59, 40
3, 111000, Note_on_c, 0, 59, 0
3, 111000, Note_on_c, 0, 59, 40
3, 111120, Note_on_c, 0, 59, 0
3, 111120, Note_on_c, 0, 59, 44
3, 111131, Control_c, 0, 64, 0
3, 111191, Control_c, 0, 64, 127
3, 111480, Note_on_c, 0, 59, 0
3, 111480, Note_on_c, 0, 59, 44
3, 111600, Note_on_c, 0, 59, 0
3, 111600, Note_on_c, 0, 52, 39
3, 111600, Note_on_c, 0, 59, 50
3, 111610, Control_c, 0, 64, 0
3, 111737, Control_c, 0, 64, 127
3, 111840, Note_on_c, 0, 59, 0
3, 111840, Note_on_c, 0, 59, 48
3, 112200, Note_on_c, 0, 59, 0
3, 112200, Note_on_c, 0, 64, 49
3, 112320, Note_on_c, 0, 64, 0
3, 112320, Note_on_c, 0, 52, 0
3, 112320, Note_on_c, 0, 63, 49
3, 112329, Control_c, 0, 64, 0
3, 112469, Control_c, 0, 64, 127
3, 112680, Note_on_c, 0, 63, 0
3, 112680, Note_on_c, 0, 62, 45
3, 112766, Control_c, 0, 64, 0
3, 112800, Note_on_c, 0, 62, 0
3, 112800, Note_on_c, 0, 68, 48
3, 112800, Note_on_c, 0, 61, 48
3, 112888, Control_c, 0, 64, 127
3, 113040, Note_on_c, 0, 68, 0
3, 113040, Note_on_c, 0, 69, 51
3, 113400, Note_on_c, 0, 69, 0
3, 113400, Note_on_c, 0, 71, 50
3, 113414, Control_c, 0, 64, 0
3, 113520, Note_on_c, 0, 71, 0
3, 113520, Note_on_c, 0, 73, 46
3, 113619, Control_c, 0, 64, 127
3, 113880, Note_on_c, 0, 73, 0
3, 113880, Note_on_c, 0, 71, 48
3, 114000, Note_on_c, 0, 71, 0
3, 114000, Note_on_c, 0, 61, 0
3, 114000, Note_on_c, 0, 66, 39
3, 114000, Note_on_c, 0, 71, 50
3, 114007, Control_c, 0, 64, 0
3, 114126, Control_c, 0, 64, 127
3, 114240, Note_on_c, 0, 71, 0
3, 114240, Note_on_c, 0, 69, 49
3, 114600, Note_on_c, 0, 69, 0
3, 114600, Note_on_c, 0, 68, 46
3, 114606, Control_c, 0, 64, 0
3, 114720, Note_on_c, 0, 68, 0
3, 114720, Note_on_c, 0, 66, 0
3, 114720, Note_on_c, 0, 69, 48
3, 114835, Control_c, 0, 64, 127
3, 115080, Note_on_c, 0, 69, 0
3, 115080, Note_on_c, 0, 64, 46
3, 115103, Control_c, 0, 64, 0
3, 115200, Note_on_c, 0, 64, 0
3, 115200, Note_on_c, 0, 59, 37
3, 115200, Note_on_c, 0, 63, 49
3, 115313, Control_c, 0, 64, 127
3, 115440, Note_on_c, 0, 63, 0
3, 115440, Note_on_c, 0, 62, 49
3, 115800, Note_on_c, 0, 62, 0
3, 115800, Note_on_c, 0, 63, 49
3, 115920, Note_on_c, 0, 63, 0
3, 115920, Note_on_c, 0, 59, 0
3, 115920, Note_on_c, 0, 59, 37
3, 115920, Note_on_c, 0, 73, 46
3, 115934, Control_c, 0, 64, 0
3, 116040, Control_c, 0, 64, 127
3, 116280, Note_on_c, 0, 73, 0
3, 116280, Note_on_c, 0, 71, 48
3, 116400, Note_on_c, 0, 71, 0
3, 116400, Note_on_c, 0, 59, 0
3, 116400, Note_on_c, 0, 69, 46
3, 116400, Note_on_c, 0, 64, 34
3, 116408, Control_c, 0, 64, 0
3, 116503, Control_c, 0, 64, 127
3, 116640, Note_on_c, 0, 69, 0
3, 116640, Note_on_c, 0, 68, 45
3, 117000, Note_on_c, 0, 68, 0
3, 117000, Note_on_c, 0, 67, 41
3, 117120, Note_on_c, 0, 67, 0
3, 117120, Note_on_c, 0, 68, 37
3, 117140, Control_c, 0, 64, 0
3, 117235, Control_c, 0, 64, 127
3, 117343, Control_c, 0, 64, 0
3, 117360, Note_on_c, 0, 68, 0
3, 117480, Note_on_c, 0, 64, 0
3, 117600, Note_on_c, 0, 59, 44
3, 117634, Control_c, 0, 64, 0
3, 117674, Control_c, 0, 64, 127
3, 117840, Note_on_c, 0, 59, 0
3, 117840, Note_on_c, 0, 59, 40
3, 118200, Note_on_c, 0, 59, 0
3, 118200, Note_on_c, 0, 59, 40
3, 118320, Note_on_c, 0, 59, 0
3, 118320, Note_on_c, 0, 59, 44
3, 118340, Control_c, 0, 64, 0
3, 118457, Control_c, 0, 64, 127
3, 118680, Note_on_c, 0, 59, 0
3, 118680, Note_on_c, 0, 59, 40
3, 118800, Note_on_c, 0, 59, 0
3, 118800, Note_on_c, 0, 59, 44
3, 118807, Control_c, 0, 64, 0
3, 118864, Control_c, 0, 64, 127
3, 119040, Note_on_c, 0, 59, 0
3, 119040, Note_on_c, 0, 59, 40
3, 119400, Note_on_c, 0, 59, 0
3, 119400, Note_on_c, 0, 59, 40
3, 119520, Note_on_c, 0, 59, 0
3, 119520, Note_on_c, 0, 59, 44
3, 119536, Control_c, 0, 64, 0
3, 119626, Control_c, 0, 64, 127
3, 119880, Note_on_c, 0, 59, 0
3, 119880, Note_on_c, 0, 59, 40
3, 120000, Note_on_c, 0, 59, 0
3, 120000, Note_on_c, 0, 59, 44
3, 120009, Control_c, 0, 64, 0
3, 120043, Control_c, 0, 64, 127
3, 120240, Note_on_c, 0, 59, 0
3, 120240, Note_on_c, 0, 59, 40
3, 120600, Note_on_c, 0, 59, 0
3, 120600, Note_on_c, 0, 59, 40
3, 120720, Note_on_c, 0, 59, 0
3, 120720, Note_on_c, 0, 59, 44
3, 120731, Control_c, 0, 64, 0
3, 120787, Control_c, 0, 64, 127
3, 121080, Note_on_c, 0, 59, 0
3, 121080, Note_on_c, 0, 59, 44
3, 121200, Note_on_c, 0, 59, 0
3, 121200, Note_on_c, 0, 52, 50
3, 121210, Control_c, 0, 64, 0
3, 121327, Control_c, 0, 64, 127
3, 121440, Note_on_c, 0, 52, 0
3, 121440, Note_on_c, 0, 59, 48
3, 121800, Note_on_c, 0, 59, 0
3, 121800, Note_on_c, 0, 64, 51
3, 121920, Note_on_c, 0, 64, 0
3, 121920, Note_on_c, 0, 68, 54
3, 122280, Note_on_c, 0, 68, 0
3, 122280, Note_on_c, 0, 71, 55
3, 122400, Note_on_c, 0, 71, 0
3, 122400, Note_on_c, 0, 72, 59
3, 122400, Note_on_c, 0, 70, 49
3, 122417, Control_c, 0, 64, 0
3, 122549, Control_c, 0, 64, 127
3, 123120, Note_on_c, 0, 70, 0
3, 123120, Note_on_c, 0, 69, 55
3, 123137, Control_c, 0, 64, 0
3, 123217, Control_c, 0, 64, 127
3, 123600, Note_on_c, 0, 69, 0
3, 123600, Note_on_c, 0, 72, 0
3, 123600, Note_on_c, 0, 69, 41
3, 123600, Note_on_c, 0, 71, 49
3, 123610, Control_c, 0, 64, 0
3, 123770, Control_c, 0, 64, 127
3, 124320, Note_on_c, 0, 69, 0
3, 124320, Note_on_c, 0, 68, 46
3, 124335, Control_c, 0, 64, 0
3, 124461, Control_c, 0, 64, 127
3, 124800, Note_on_c, 0, 68, 0
3, 124800, Note_on_c, 0, 71, 0
3, 124800, Note_on_c, 0, 71, 48
3, 124809, Control_c, 0, 64, 0
3, 124920, Control_c, 0, 64, 127
3, 125040, Note_on_c, 0, 71, 0
3, 125040, Note_on_c, 0, 69, 51
3, 125400, Note_on_c, 0, 69, 0
3, 125400, Note_on_c, 0, 65, 55
3, 125414, Control_c, 0, 64, 0
3, 125520, Note_on_c, 0, 65, 0
3, 125520, Note_on_c, 0, 66, 44
3, 125619, Control_c, 0, 64, 127
3, 125947, Control_c, 0, 64, 0
3, 126000, Note_on_c, 0, 66, 0
3, 126000, Note_on_c, 0, 69, 50
3, 126000, Note_on_c, 0, 59, 39
3, 126006, Control_c, 0, 64, 127
3, 126240, Note_on_c, 0, 69, 0
3, 126240, Note_on_c, 0, 73, 55
3, 126600, Note_on_c, 0, 73, 0
3, 126600, Note_on_c, 0, 71, 42
3, 126606, Control_c, 0, 64, 0
3, 126720, Note_on_c, 0, 71, 0
3, 126720, Note_on_c, 0, 59, 0
3, 126720, Note_on_c, 0, 64, 36
3, 126720, Note_on_c, 0, 68, 47
3, 126766, Control_c, 0, 64, 127
3, 127198, Note_on_c, 0, 64, 0
3, 127200, Note_on_c, 0, 68, 0
3, 127200, Note_on_c, 0, 60, 37
3, 127234, Control_c, 0, 64, 0
3, 127274, Control_c, 0, 64, 127
3, 127440, Note_on_c, 0, 60, 0
3, 127440, Note_on_c, 0, 59, 34
3, 127458, Control_c, 0, 64, 0
3, 127557, Control_c, 0, 64, 127
3, 127800, Note_on_c, 0, 59, 0
3, 127800, Note_on_c, 0, 60, 34
3, 127920, Note_on_c, 0, 60, 0
3, 127920, Note_on_c, 0, 59, 37
3, 127943, Control_c, 0, 64, 0
3, 128024, Control_c, 0, 64, 127
3, 128280, Note_on_c, 0, 59, 0
3, 128280, Note_on_c, 0, 57, 41
3, 128297, Control_c, 0, 64, 0
3, 128400, Note_on_c, 0, 57, 0
3, 128400, Note_on_c, 0, 55, 50
3, 128414, Control_c, 0, 64, 0
3, 128474, Control_c, 0, 64, 127
3, 128640, Note_on_c, 0, 55, 0
3, 128640, Note_on_c, 0, 54, 45
3, 128658, Control_c, 0, 64, 0
3, 128760, Control_c, 0, 64, 127
3, 129000, Note_on_c, 0, 54, 0
3, 129000, Note_on_c, 0, 52, 44
3, 129120, Note_on_c, 0, 52, 0
3, 129120, Note_on_c, 0, 50, 48
3, 129140, Control_c, 0, 64, 0
3, 129269, Control_c, 0, 64, 127
3, 129480, Note_on_c, 0, 50, 0
3, 129480, Note_on_c, 0, 47, 47
3, 129600, Note_on_c, 0, 47, 0
3, 129600, Note_on_c, 0, 48, 55
3, 129614, Control_c, 0, 64, 0
3, 129674, Control_c, 0, 64, 127
3, 129840, Note_on_c, 0, 48, 0
3, 129840, Note_on_c, 0, 45, 52
3, 130200, Note_on_c, 0, 45, 0
3, 130200, Note_on_c, 0, 42, 55
3, 130320, Note_on_c, 0, 42, 0
3, 130320, Note_on_c, 0, 47, 60
3, 130330, Control_c, 0, 64, 0
3, 130469, Control_c, 0, 64, 127
3, 130680, Note_on_c, 0, 47, 0
3, 130680, Note_on_c, 0, 35, 59
3, 130800, Note_on_c, 0, 35, 0
3, 130800, Note_on_c, 0, 40, 70
3, 130813, Control_c, 0, 64, 0
3, 130941, Control_c, 0, 64, 127
3, 131040, Note_on_c, 0, 40, 0
3, 131040, Note_on_c, 0, 47, 64
3, 131400, Note_on_c, 0, 47, 0
3, 131400, Note_on_c, 0, 52, 62
3, 131520, Note_on_c, 0, 52, 0
3, 131520, Note_on_c, 0, 56, 70
3, 131880, Note_on_c, 0, 56, 0
3, 131880, Note_on_c, 0, 59, 64
3, 132000, Note_on_c, 0, 59, 0
3, 132000, Note_on_c, 0, 59, 45
3, 132000, Note_on_c, 0, 63, 53
3, 132034, Control_c, 0, 64, 0
3, 132127, Control_c, 0, 64, 127
3, 132240, Note_on_c, 0, 63, 0
3, 132240, Note_on_c, 0, 64, 50
3, 132600, Note_on_c, 0, 64, 0
3, 132600, Note_on_c, 0, 66, 48
3, 132720, Note_on_c, 0, 66, 0
3, 132720, Note_on_c, 0, 63, 53
3, 132730, Control_c, 0, 64, 0
3, 132869, Control_c, 0, 64, 127
3, 133080, Note_on_c, 0, 63, 0
3, 133080, Note_on_c, 0, 66, 51
3, 133200, Note_on_c, 0, 66, 0
3, 133200, Note_on_c, 0, 59, 0
3, 133200, Note_on_c, 0, 64, 52
3, 133200, Note_on_c, 0, 68, 52
3, 133221, Control_c, 0, 64, 0
3, 133360, Control_c, 0, 64, 127
3, 133440, Note_on_c, 0, 64, 0
3, 133440, Note_on_c, 0, 63, 51
3, 133800, Note_on_c, 0, 63, 0
3, 133800, Note_on_c, 0, 62, 47
3, 133920, Note_on_c, 0, 62, 0
3, 133920, Note_on_c, 0, 68, 0
3, 133920, Note_on_c, 0, 61, 49
3, 133929, Control_c, 0, 64, 0
3, 134069, Control_c, 0, 64, 127
3, 134280, Note_on_c, 0, 61, 0
3, 134280, Note_on_c, 0, 60, 51
3, 134400, Note_on_c, 0, 60, 0
3, 134400, Note_on_c, 0, 51, 47
3, 134400, Note_on_c, 0, 47, 40
3, 134430, Control_c, 0, 64, 0
3, 134541, Control_c, 0, 64, 127
3, 134640, Note_on_c, 0, 51, 0
3, 134640, Note_on_c, 0, 52, 45
3, 135000, Note_on_c, 0, 52, 0
3, 135000, Note_on_c, 0, 54, 43
3, 135120, Note_on_c, 0, 54, 0
3, 135120, Note_on_c, 0, 51, 47
3, 135126, Control_c, 0, 64, 0
3, 135269, Control_c, 0, 64, 127
3, 135480, Note_on_c, 0, 51, 0
3, 135480, Note_on_c, 0, 54, 42
3, 135600, Note_on_c, 0, 54, 0
3, 135600, Note_on_c, 0, 47, 0
3, 135600, Control_c, 0, 64, 0
3, 135600, Note_on_c, 0, 52, 45
3, 135600, Note_on_c, 0, 56, 45
3, 135814, Control_c, 0, 64, 127
3, 135840, Note_on_c, 0, 56, 0
3, 135840, Note_on_c, 0, 52, 0
3, 135840, Note_on_c, 0, 40, 52
3, 135840, Note_on_c, 0, 52, 61
3, 136320, Note_on_c, 0, 52, 0
3, 136320, Note_on_c, 0, 40, 0
3, 136374, Control_c, 0, 64, 0
3, 136374, End_track
4, 0, Start_track
4, 0, Title_t, "Albeniz :Espana Op. 165 Zortcico"
4, 0, End_track
5, 0, Start_track
5, 0, Title_t, "Copyright © 2001 by Bernd Krüger"
5, 0, End_track
6, 0, Start_track
6, 0, Title_t, "email: bernd.krueger@piano-midi.de"
6, 0, End_track
7, 0, Start_track
7, 0, Title_t, "http://www.piano-midi.de"
7, 0, End_track
8, 0, Start_track
8, 0, Title_t, "Edition:2010-08-31"
8, 0, End_track
9, 0, Start_track
9, 0, Title_t, "Spur 8"
9, 0, End_track
0, 0, End_of_file
