0, 0, Header, 1, 10, 480
1, 0, Start_track
1, 0, Title_t, "Das wohltemperierte Klavier I - Praeludium und Fuge 2 in c-Moll BWV 847"
1, 0, Copyright_t, "Copyright © 1997 von Bernd Krüger."
1, 0, Text_t, "Johann Sebastian Bach"
1, 0, Text_t, "Fertiggestellt am 5.11.97\012"
1, 0, Text_t, "Pan's auf Standard am 18.1.98\012"
1, 0, Text_t, "Normierung: 23.12.2002\012"
1, 0, Text_t, "Update am 26.9.2004\012"
1, 0, Text_t, "Dauer: 3:09 Minuten\012"
1, 0, Time_signature, 4, 2, 24, 8
1, 0, Key_signature, -3, "major"
1, 0, Tempo, 489796
1, 0, Marker_t, "Prelude"
1, 60, Tempo, 451128
1, 360, Tempo, 476190
1, 480, Tempo, 470588
1, 600, Tempo, 452830
1, 840, Tempo, 476190
1, 960, Tempo, 485830
1, 1080, Tempo, 449438
1, 1320, Tempo, 466926
1, 1440, Tempo, 470588
1, 1560, Tempo, 431655
1, 1680, Tempo, 431655
1, 1800, Tempo, 487805
1, 1920, Tempo, 476190
1, 2040, Tempo, 452830
1, 2280, Tempo, 466926
1, 2400, Tempo, 472441
1, 2520, Tempo, 451128
1, 2760, Tempo, 476190
1, 2880, Tempo, 472441
1, 3000, Tempo, 456274
1, 3240, Tempo, 481928
1, 3360, Tempo, 461538
1, 3480, Tempo, 451128
1, 3720, Tempo, 483871
1, 3840, Tempo, 472441
1, 3960, Tempo, 447761
1, 4200, Tempo, 472441
1, 4320, Tempo, 461538
1, 4440, Tempo, 449438
1, 4680, Tempo, 468750
1, 4800, Tempo, 474308
1, 4920, Tempo, 449438
1, 5160, Tempo, 476190
1, 5280, Tempo, 466926
1, 5400, Tempo, 451128
1, 5640, Tempo, 483871
1, 5760, Tempo, 502092
1, 5880, Tempo, 442804
1, 6120, Tempo, 468750
1, 6240, Tempo, 478088
1, 6360, Tempo, 428571
1, 6480, Tempo, 425532
1, 6600, Tempo, 468750
1, 6720, Tempo, 480000
1, 6840, Tempo, 444444
1, 7080, Tempo, 487805
1, 7200, Tempo, 478088
1, 7320, Tempo, 447761
1, 7440, Tempo, 430108
1, 7560, Tempo, 506329
1, 7680, Tempo, 515021
1, 7800, Tempo, 452830
1, 8040, Tempo, 485830
1, 8160, Tempo, 474308
1, 8280, Tempo, 449438
1, 8520, Tempo, 487805
1, 8620, Tempo, 476190
1, 8640, Tempo, 478088
1, 8760, Tempo, 452830
1, 9000, Tempo, 472441
1, 9120, Tempo, 474308
1, 9240, Tempo, 446097
1, 9480, Tempo, 485830
1, 9600, Tempo, 485830
1, 9620, Tempo, 512821
1, 9720, Tempo, 442804
1, 9960, Tempo, 483871
1, 10080, Tempo, 480000
1, 10200, Tempo, 434783
1, 10320, Tempo, 428571
1, 10440, Tempo, 468750
1, 10560, Tempo, 480000
1, 10580, Tempo, 463320
1, 10680, Tempo, 441176
1, 10920, Tempo, 465116
1, 11040, Tempo, 465116
1, 11160, Tempo, 436364
1, 11400, Tempo, 480000
1, 11520, Tempo, 502092
1, 11640, Tempo, 439560
1, 11880, Tempo, 481928
1, 12000, Tempo, 463320
1, 12120, Tempo, 441176
1, 12360, Tempo, 472441
1, 12480, Tempo, 468750
1, 12600, Tempo, 441176
1, 12840, Tempo, 465116
1, 12860, Tempo, 465116
1, 12960, Tempo, 465116
1, 13080, Tempo, 428571
1, 13320, Tempo, 483871
1, 13440, Tempo, 480000
1, 13560, Tempo, 428571
1, 13800, Tempo, 465116
1, 13920, Tempo, 470588
1, 14040, Tempo, 444444
1, 14280, Tempo, 468750
1, 14400, Tempo, 461538
1, 14520, Tempo, 437956
1, 14760, Tempo, 465116
1, 14880, Tempo, 463320
1, 15000, Tempo, 439560
1, 15240, Tempo, 481928
1, 15360, Tempo, 517241
1, 15480, Tempo, 442804
1, 15720, Tempo, 465116
1, 15840, Tempo, 465116
1, 15960, Tempo, 441176
1, 16200, Tempo, 481928
1, 16320, Tempo, 481928
1, 16440, Tempo, 444444
1, 16680, Tempo, 468750
1, 16800, Tempo, 468750
1, 16920, Tempo, 433213
1, 17160, Tempo, 493827
1, 17280, Tempo, 517241
1, 17400, Tempo, 441176
1, 17640, Tempo, 465116
1, 17760, Tempo, 461538
1, 17880, Tempo, 449438
1, 18120, Tempo, 466926
1, 18240, Tempo, 466926
1, 18360, Tempo, 451128
1, 18600, Tempo, 463320
1, 18720, Tempo, 461538
1, 18840, Tempo, 447761
1, 19080, Tempo, 465116
1, 19200, Tempo, 506329
1, 19320, Tempo, 446097
1, 19560, Tempo, 468750
1, 19680, Tempo, 470588
1, 19800, Tempo, 446097
1, 20040, Tempo, 468750
1, 20160, Tempo, 468750
1, 20300, Tempo, 451128
1, 20520, Tempo, 468750
1, 20640, Tempo, 461538
1, 20760, Tempo, 451128
1, 21000, Tempo, 481928
1, 21120, Tempo, 517241
1, 21240, Tempo, 446097
1, 21480, Tempo, 470588
1, 21600, Tempo, 470588
1, 21720, Tempo, 451128
1, 21960, Tempo, 470588
1, 22080, Tempo, 472441
1, 22200, Tempo, 456274
1, 22440, Tempo, 468750
1, 22460, Tempo, 468750
1, 22560, Tempo, 461538
1, 22680, Tempo, 431655
1, 22920, Tempo, 493827
1, 23020, Tempo, 489796
1, 23040, Tempo, 510638
1, 23160, Tempo, 436364
1, 23400, Tempo, 466926
1, 23520, Tempo, 465116
1, 23640, Tempo, 439560
1, 23880, Tempo, 465116
1, 23980, Tempo, 465116
1, 24000, Tempo, 470588
1, 24120, Tempo, 449438
1, 24360, Tempo, 466926
1, 24480, Tempo, 468750
1, 24600, Tempo, 442804
1, 24840, Tempo, 493827
1, 24960, Tempo, 515021
1, 25080, Tempo, 442804
1, 25320, Tempo, 483871
1, 25440, Tempo, 470588
1, 25560, Tempo, 441176
1, 25800, Tempo, 476190
1, 25920, Tempo, 474308
1, 26040, Tempo, 436364
1, 26280, Tempo, 470588
1, 26400, Tempo, 476190
1, 26520, Tempo, 436364
1, 26760, Tempo, 483871
1, 26880, Tempo, 519481
1, 27000, Tempo, 427046
1, 27240, Tempo, 466926
1, 27360, Tempo, 463320
1, 27480, Tempo, 451128
1, 27720, Tempo, 468750
1, 27740, Tempo, 468750
1, 27840, Tempo, 468750
1, 27960, Tempo, 446097
1, 28200, Tempo, 463320
1, 28320, Tempo, 463320
1, 28440, Tempo, 447761
1, 28680, Tempo, 500000
1, 28800, Tempo, 538117
1, 28920, Tempo, 439560
1, 29160, Tempo, 466926
1, 29280, Tempo, 465116
1, 29400, Tempo, 449438
1, 29640, Tempo, 493827
1, 29760, Tempo, 493827
1, 29880, Tempo, 444444
1, 30120, Tempo, 465116
1, 30240, Tempo, 463320
1, 30360, Tempo, 431655
1, 30600, Tempo, 495868
1, 30720, Tempo, 521739
1, 30840, Tempo, 442804
1, 31080, Tempo, 465116
1, 31200, Tempo, 465116
1, 31320, Tempo, 446097
1, 31560, Tempo, 474308
1, 31680, Tempo, 468750
1, 31800, Tempo, 451128
1, 32040, Tempo, 472441
1, 32160, Tempo, 470588
1, 32280, Tempo, 451128
1, 32520, Tempo, 489796
1, 32640, Tempo, 519481
1, 32760, Tempo, 439560
1, 33000, Tempo, 461538
1, 33120, Tempo, 472441
1, 33240, Tempo, 441176
1, 33480, Tempo, 487805
1, 33600, Tempo, 489796
1, 33720, Tempo, 437956
1, 33960, Tempo, 463320
1, 34080, Tempo, 463320
1, 34200, Tempo, 447761
1, 34440, Tempo, 487805
1, 34560, Tempo, 510638
1, 34680, Tempo, 425532
1, 34900, Tempo, 465116
1, 34920, Tempo, 465116
1, 35040, Tempo, 474308
1, 35160, Tempo, 442804
1, 35400, Tempo, 472441
1, 35520, Tempo, 472441
1, 35640, Tempo, 446097
1, 35880, Tempo, 468750
1, 36120, Tempo, 447761
1, 36360, Tempo, 491803
1, 36480, Tempo, 524017
1, 36600, Tempo, 433213
1, 36840, Tempo, 489796
1, 36960, Tempo, 476190
1, 37080, Tempo, 439560
1, 37320, Tempo, 489796
1, 37440, Tempo, 487805
1, 37560, Tempo, 439560
1, 37800, Tempo, 466926
1, 37920, Tempo, 466926
1, 38040, Tempo, 434783
1, 38280, Tempo, 493827
1, 38400, Tempo, 512821
1, 38520, Tempo, 442804
1, 38760, Tempo, 468750
1, 38880, Tempo, 472441
1, 39000, Tempo, 442804
1, 39240, Tempo, 472441
1, 39360, Tempo, 474308
1, 39480, Tempo, 446097
1, 39720, Tempo, 468750
1, 39840, Tempo, 478088
1, 39960, Tempo, 446097
1, 40200, Tempo, 489796
1, 40320, Tempo, 515021
1, 40440, Tempo, 442804
1, 40680, Tempo, 468750
1, 40800, Tempo, 468750
1, 40920, Tempo, 449438
1, 41160, Tempo, 487805
1, 41280, Tempo, 468750
1, 41400, Tempo, 433213
1, 41640, Tempo, 466926
1, 41760, Tempo, 466926
1, 41880, Tempo, 446097
1, 42120, Tempo, 487805
1, 42240, Tempo, 510638
1, 42360, Tempo, 431655
1, 42600, Tempo, 466926
1, 42720, Tempo, 466926
1, 42840, Tempo, 434783
1, 43080, Tempo, 491803
1, 43180, Tempo, 489796
1, 43200, Tempo, 483871
1, 43320, Tempo, 436364
1, 43560, Tempo, 483871
1, 43680, Tempo, 465116
1, 43800, Tempo, 446097
1, 44040, Tempo, 485830
1, 44160, Tempo, 474308
1, 44280, Tempo, 431655
1, 44520, Tempo, 465116
1, 44640, Tempo, 478088
1, 44760, Tempo, 446097
1, 45000, Tempo, 466926
1, 45120, Tempo, 470588
1, 45240, Tempo, 441176
1, 45480, Tempo, 472441
1, 45600, Tempo, 474308
1, 45720, Tempo, 444444
1, 45960, Tempo, 487805
1, 46080, Tempo, 526316
1, 46200, Tempo, 495868
1, 46320, Tempo, 463320
1, 46440, Tempo, 459770
1, 47280, Tempo, 468750
1, 48000, Tempo, 497925
1, 48120, Tempo, 483871
1, 48240, Tempo, 470588
1, 48360, Tempo, 459770
1, 49200, Tempo, 466926
1, 49920, Tempo, 481928
1, 49940, Tempo, 480000
1, 49960, Tempo, 478088
1, 49980, Tempo, 476190
1, 50000, Tempo, 474308
1, 50020, Tempo, 472441
1, 50040, Tempo, 470588
1, 50060, Tempo, 468750
1, 50080, Tempo, 466926
1, 50100, Tempo, 465116
1, 50120, Tempo, 463320
1, 50140, Tempo, 461538
1, 50160, Tempo, 458015
1, 51840, Tempo, 389610
1, 51840, Marker_t, "Presto"
1, 52320, Tempo, 379747
1, 53280, Tempo, 373832
1, 53640, Tempo, 397351
1, 53760, Tempo, 404040
1, 53880, Tempo, 379747
1, 54240, Tempo, 372671
1, 54620, Tempo, 385852
1, 54720, Tempo, 379747
1, 55200, Tempo, 373832
1, 55560, Tempo, 400000
1, 55680, Tempo, 415225
1, 55800, Tempo, 378549
1, 56160, Tempo, 373832
1, 56520, Tempo, 387097
1, 56640, Tempo, 378549
1, 57120, Tempo, 375000
1, 57480, Tempo, 397351
1, 57600, Tempo, 400000
1, 57720, Tempo, 377358
1, 58080, Tempo, 373832
1, 58440, Tempo, 387097
1, 58560, Tempo, 378549
1, 59040, Tempo, 373832
1, 59400, Tempo, 400000
1, 59520, Tempo, 406780
1, 59640, Tempo, 384615
1, 60000, Tempo, 382166
1, 60360, Tempo, 389610
1, 60480, Tempo, 384615
1, 60960, Tempo, 382166
1, 61320, Tempo, 392157
1, 61440, Tempo, 392157
1, 62400, Tempo, 415225
1, 62880, Tempo, 442804
1, 63360, Tempo, 1967213
1, 63360, Marker_t, "Adagio"
1, 65280, Tempo, 456274
1, 65280, Marker_t, "Allegro"
1, 65760, Tempo, 427046
1, 66720, Tempo, 422535
1, 67080, Tempo, 436364
1, 67200, Tempo, 465116
1, 67320, Tempo, 428571
1, 67660, Tempo, 425532
1, 68040, Tempo, 433213
1, 68160, Tempo, 428571
1, 68400, Tempo, 419580
1, 68520, Tempo, 437956
1, 68640, Tempo, 446097
1, 68760, Tempo, 428571
1, 68880, Tempo, 419580
1, 69000, Tempo, 437956
1, 69120, Tempo, 437956
1, 69240, Tempo, 428571
1, 69360, Tempo, 419580
1, 69480, Tempo, 439560
1, 69600, Tempo, 428571
1, 69840, Tempo, 418118
1, 69960, Tempo, 437956
1, 70080, Tempo, 447761
1, 70320, Tempo, 430108
1, 71040, Tempo, 439560
1, 71280, Tempo, 461538
1, 71520, Tempo, 517241
1, 71760, Tempo, 568720
1, 72000, Tempo, 655738
1, 72120, Tempo, 727273
1, 72240, Tempo, 794702
1, 72360, Tempo, 1904762
1, 72480, Tempo, 2400000
1, 72840, Tempo, 7500000
1, 72960, Tempo, 827016
1, 72960, Marker_t, "Fuga"
1, 73680, Tempo, 852878
1, 73920, Tempo, 827016
1, 75840, Tempo, 847458
1, 76320, Tempo, 827016
1, 76560, Tempo, 827016
1, 79680, Tempo, 858124
1, 80160, Tempo, 827016
1, 80400, Tempo, 827016
1, 85200, Tempo, 863682
1, 85440, Tempo, 827016
1, 87360, Tempo, 858124
1, 87840, Tempo, 827016
1, 88080, Tempo, 827016
1, 89040, Tempo, 847458
1, 89520, Tempo, 827016
1, 90000, Tempo, 858124
1, 90480, Tempo, 827016
1, 91920, Tempo, 858124
1, 92400, Tempo, 827016
1, 93360, Tempo, 842342
1, 94320, Tempo, 842342
1, 95040, Tempo, 858124
1, 95520, Tempo, 837287
1, 96240, Tempo, 827016
1, 101040, Tempo, 852878
1, 102720, Tempo, 869565
1, 103200, Tempo, 863309
1, 103440, Tempo, 858124
1, 103920, Tempo, 827016
1, 104400, Tempo, 842342
1, 104880, Tempo, 827016
1, 105360, Tempo, 852878
1, 105840, Tempo, 827016
1, 106320, Tempo, 842342
1, 106800, Tempo, 827016
1, 107280, Tempo, 837287
1, 107760, Tempo, 827016
1, 109200, Tempo, 847458
1, 109680, Tempo, 827016
1, 111120, Tempo, 852878
1, 111600, Tempo, 827016
1, 112320, Tempo, 842342
1, 112800, Tempo, 827016
1, 113760, Tempo, 852878
1, 114000, Tempo, 827016
1, 115680, Tempo, 852878
1, 115920, Tempo, 827016
1, 119760, Tempo, 858124
1, 120000, Tempo, 827016
1, 122880, Tempo, 874636
1, 123840, Tempo, 934725
1, 124080, Tempo, 903751
1, 124320, Tempo, 947418
1, 124800, Tempo, 996016
1, 125040, Tempo, 1026167
1, 125520, Tempo, 1109467
1, 125760, Tempo, 1218522
1, 127200, Tempo, 1252087
1, 127240, Tempo, 1263690
1, 127280, Tempo, 1275781
1, 127320, Tempo, 1287277
1, 127360, Tempo, 1300108
1, 127380, Tempo, 1312336
1, 127420, Tempo, 1325088
1, 127460, Tempo, 1338091
1, 127500, Tempo, 1351047
1, 127520, Tempo, 1364877
1, 127560, Tempo, 1728111
1, 127680, Tempo, 1176240
1, 127920, Tempo, 1057828
1, 128160, Tempo, 967742
1, 128880, Tempo, 989120
1, 129600, Tempo, 989120
1, 129840, Tempo, 1018330
1, 130080, Tempo, 1049685
1, 130540, Tempo, 1146789
1, 130560, Tempo, 1263690
1, 130800, Tempo, 1287277
1, 131040, Tempo, 1338091
1, 131280, Tempo, 1728111
1, 131400, Tempo, 2677376
1, 132480, Tempo, 2352941
1, 132480, Marker_t, "Fine"
1, 132480, End_track
2, 0, Start_track
2, 0, MIDI_port, 0
2, 0, Title_t, "Piano right"
2, 0, Program_c, 0, 0
2, 0, Control_c, 0, 7, 100
2, 0, Control_c, 0, 10, 64
2, 0, Control_c, 0, 91, 127
2, 0, Control_c, 0, 91, 127
2, 1, Text_t, "bdca426d104a26ac9dcb070447587523"
2, 3, Note_on_c, 0, 72, 96
2, 121, Note_on_c, 0, 63, 80
2, 143, Note_on_c, 0, 72, 0
2, 240, Note_on_c, 0, 62, 77
2, 261, Note_on_c, 0, 63, 0
2, 360, Note_on_c, 0, 63, 77
2, 380, Note_on_c, 0, 62, 0
2, 483, Note_on_c, 0, 60, 80
2, 500, Note_on_c, 0, 63, 0
2, 602, Note_on_c, 0, 63, 76
2, 623, Note_on_c, 0, 60, 0
2, 722, Note_on_c, 0, 62, 76
2, 742, Note_on_c, 0, 63, 0
2, 839, Note_on_c, 0, 63, 76
2, 862, Note_on_c, 0, 62, 0
2, 959, Note_on_c, 0, 63, 0
2, 963, Note_on_c, 0, 72, 96
2, 1082, Note_on_c, 0, 63, 80
2, 1103, Note_on_c, 0, 72, 0
2, 1201, Note_on_c, 0, 62, 78
2, 1222, Note_on_c, 0, 63, 0
2, 1319, Note_on_c, 0, 63, 78
2, 1341, Note_on_c, 0, 62, 0
2, 1438, Note_on_c, 0, 60, 80
2, 1459, Note_on_c, 0, 63, 0
2, 1558, Note_on_c, 0, 63, 78
2, 1578, Note_on_c, 0, 60, 0
2, 1680, Note_on_c, 0, 62, 77
2, 1698, Note_on_c, 0, 63, 0
2, 1798, Note_on_c, 0, 63, 77
2, 1820, Note_on_c, 0, 62, 0
2, 1918, Note_on_c, 0, 63, 0
2, 1918, Note_on_c, 0, 68, 96
2, 2043, Note_on_c, 0, 65, 80
2, 2058, Note_on_c, 0, 68, 0
2, 2160, Note_on_c, 0, 64, 76
2, 2183, Note_on_c, 0, 65, 0
2, 2278, Note_on_c, 0, 65, 76
2, 2300, Note_on_c, 0, 64, 0
2, 2398, Note_on_c, 0, 60, 80
2, 2418, Note_on_c, 0, 65, 0
2, 2518, Note_on_c, 0, 65, 76
2, 2538, Note_on_c, 0, 60, 0
2, 2640, Note_on_c, 0, 64, 76
2, 2658, Note_on_c, 0, 65, 0
2, 2761, Note_on_c, 0, 65, 76
2, 2780, Note_on_c, 0, 64, 0
2, 2881, Note_on_c, 0, 65, 0
2, 2881, Note_on_c, 0, 68, 96
2, 3001, Note_on_c, 0, 65, 80
2, 3021, Note_on_c, 0, 68, 0
2, 3121, Note_on_c, 0, 64, 77
2, 3141, Note_on_c, 0, 65, 0
2, 3238, Note_on_c, 0, 65, 77
2, 3261, Note_on_c, 0, 64, 0
2, 3361, Note_on_c, 0, 60, 80
2, 3378, Note_on_c, 0, 65, 0
2, 3480, Note_on_c, 0, 65, 76
2, 3501, Note_on_c, 0, 60, 0
2, 3600, Note_on_c, 0, 64, 76
2, 3620, Note_on_c, 0, 65, 0
2, 3718, Note_on_c, 0, 65, 76
2, 3740, Note_on_c, 0, 64, 0
2, 3838, Note_on_c, 0, 65, 0
2, 3841, Note_on_c, 0, 71, 96
2, 3962, Note_on_c, 0, 65, 80
2, 3981, Note_on_c, 0, 71, 0
2, 4082, Note_on_c, 0, 63, 76
2, 4102, Note_on_c, 0, 65, 0
2, 4201, Note_on_c, 0, 65, 75
2, 4222, Note_on_c, 0, 63, 0
2, 4319, Note_on_c, 0, 62, 80
2, 4341, Note_on_c, 0, 65, 0
2, 4443, Note_on_c, 0, 65, 76
2, 4459, Note_on_c, 0, 62, 0
2, 4562, Note_on_c, 0, 63, 76
2, 4583, Note_on_c, 0, 65, 0
2, 4683, Note_on_c, 0, 65, 76
2, 4702, Note_on_c, 0, 63, 0
2, 4803, Note_on_c, 0, 65, 0
2, 4803, Note_on_c, 0, 71, 96
2, 4921, Note_on_c, 0, 65, 80
2, 4943, Note_on_c, 0, 71, 0
2, 5038, Note_on_c, 0, 63, 76
2, 5061, Note_on_c, 0, 65, 0
2, 5160, Note_on_c, 0, 65, 80
2, 5178, Note_on_c, 0, 63, 0
2, 5279, Note_on_c, 0, 62, 80
2, 5300, Note_on_c, 0, 65, 0
2, 5403, Note_on_c, 0, 65, 77
2, 5419, Note_on_c, 0, 62, 0
2, 5519, Note_on_c, 0, 63, 77
2, 5543, Note_on_c, 0, 65, 0
2, 5642, Note_on_c, 0, 65, 77
2, 5659, Note_on_c, 0, 63, 0
2, 5762, Note_on_c, 0, 65, 0
2, 5763, Note_on_c, 0, 72, 96
2, 5883, Note_on_c, 0, 67, 80
2, 5903, Note_on_c, 0, 72, 0
2, 6003, Note_on_c, 0, 65, 75
2, 6023, Note_on_c, 0, 67, 0
2, 6121, Note_on_c, 0, 67, 75
2, 6143, Note_on_c, 0, 65, 0
2, 6240, Note_on_c, 0, 63, 80
2, 6261, Note_on_c, 0, 67, 0
2, 6359, Note_on_c, 0, 67, 76
2, 6380, Note_on_c, 0, 63, 0
2, 6479, Note_on_c, 0, 65, 76
2, 6499, Note_on_c, 0, 67, 0
2, 6603, Note_on_c, 0, 67, 76
2, 6619, Note_on_c, 0, 65, 0
2, 6718, Note_on_c, 0, 72, 96
2, 6723, Note_on_c, 0, 67, 0
2, 6840, Note_on_c, 0, 67, 80
2, 6858, Note_on_c, 0, 72, 0
2, 6958, Note_on_c, 0, 65, 75
2, 6980, Note_on_c, 0, 67, 0
2, 7082, Note_on_c, 0, 67, 75
2, 7098, Note_on_c, 0, 65, 0
2, 7198, Note_on_c, 0, 63, 80
2, 7222, Note_on_c, 0, 67, 0
2, 7318, Note_on_c, 0, 67, 76
2, 7338, Note_on_c, 0, 63, 0
2, 7443, Note_on_c, 0, 65, 76
2, 7458, Note_on_c, 0, 67, 0
2, 7559, Note_on_c, 0, 67, 76
2, 7583, Note_on_c, 0, 65, 0
2, 7679, Note_on_c, 0, 67, 0
2, 7679, Note_on_c, 0, 75, 96
2, 7801, Note_on_c, 0, 68, 80
2, 7819, Note_on_c, 0, 75, 0
2, 7922, Note_on_c, 0, 67, 76
2, 7941, Note_on_c, 0, 68, 0
2, 8043, Note_on_c, 0, 68, 76
2, 8062, Note_on_c, 0, 67, 0
2, 8162, Note_on_c, 0, 63, 80
2, 8183, Note_on_c, 0, 68, 0
2, 8280, Note_on_c, 0, 68, 75
2, 8302, Note_on_c, 0, 63, 0
2, 8399, Note_on_c, 0, 67, 75
2, 8420, Note_on_c, 0, 68, 0
2, 8522, Note_on_c, 0, 68, 76
2, 8539, Note_on_c, 0, 67, 0
2, 8640, Note_on_c, 0, 75, 96
2, 8642, Note_on_c, 0, 68, 0
2, 8760, Note_on_c, 0, 68, 80
2, 8780, Note_on_c, 0, 75, 0
2, 8883, Note_on_c, 0, 67, 75
2, 8900, Note_on_c, 0, 68, 0
2, 9002, Note_on_c, 0, 68, 75
2, 9023, Note_on_c, 0, 67, 0
2, 9118, Note_on_c, 0, 63, 80
2, 9142, Note_on_c, 0, 68, 0
2, 9241, Note_on_c, 0, 68, 75
2, 9258, Note_on_c, 0, 63, 0
2, 9360, Note_on_c, 0, 67, 76
2, 9381, Note_on_c, 0, 68, 0
2, 9482, Note_on_c, 0, 68, 76
2, 9500, Note_on_c, 0, 67, 0
2, 9601, Note_on_c, 0, 74, 96
2, 9602, Note_on_c, 0, 68, 0
2, 9721, Note_on_c, 0, 66, 80
2, 9741, Note_on_c, 0, 74, 0
2, 9840, Note_on_c, 0, 64, 76
2, 9861, Note_on_c, 0, 66, 0
2, 9958, Note_on_c, 0, 66, 76
2, 9980, Note_on_c, 0, 64, 0
2, 10079, Note_on_c, 0, 62, 80
2, 10098, Note_on_c, 0, 66, 0
2, 10200, Note_on_c, 0, 66, 76
2, 10219, Note_on_c, 0, 62, 0
2, 10322, Note_on_c, 0, 64, 76
2, 10340, Note_on_c, 0, 66, 0
2, 10441, Note_on_c, 0, 66, 76
2, 10462, Note_on_c, 0, 64, 0
2, 10561, Note_on_c, 0, 66, 0
2, 10563, Note_on_c, 0, 74, 96
2, 10682, Note_on_c, 0, 66, 80
2, 10703, Note_on_c, 0, 74, 0
2, 10800, Note_on_c, 0, 64, 75
2, 10822, Note_on_c, 0, 66, 0
2, 10919, Note_on_c, 0, 66, 75
2, 10940, Note_on_c, 0, 64, 0
2, 11041, Note_on_c, 0, 62, 80
2, 11059, Note_on_c, 0, 66, 0
2, 11160, Note_on_c, 0, 66, 76
2, 11181, Note_on_c, 0, 62, 0
2, 11278, Note_on_c, 0, 64, 77
2, 11300, Note_on_c, 0, 66, 0
2, 11402, Note_on_c, 0, 66, 77
2, 11418, Note_on_c, 0, 64, 0
2, 11521, Note_on_c, 0, 74, 96
2, 11522, Note_on_c, 0, 66, 0
2, 11638, Note_on_c, 0, 67, 80
2, 11661, Note_on_c, 0, 74, 0
2, 11763, Note_on_c, 0, 66, 75
2, 11778, Note_on_c, 0, 67, 0
2, 11878, Note_on_c, 0, 67, 75
2, 11903, Note_on_c, 0, 66, 0
2, 12003, Note_on_c, 0, 62, 80
2, 12018, Note_on_c, 0, 67, 0
2, 12122, Note_on_c, 0, 67, 75
2, 12143, Note_on_c, 0, 62, 0
2, 12239, Note_on_c, 0, 66, 75
2, 12262, Note_on_c, 0, 67, 0
2, 12360, Note_on_c, 0, 67, 75
2, 12379, Note_on_c, 0, 66, 0
2, 12478, Note_on_c, 0, 74, 96
2, 12480, Note_on_c, 0, 67, 0
2, 12603, Note_on_c, 0, 67, 80
2, 12618, Note_on_c, 0, 74, 0
2, 12722, Note_on_c, 0, 66, 76
2, 12743, Note_on_c, 0, 67, 0
2, 12838, Note_on_c, 0, 67, 77
2, 12862, Note_on_c, 0, 66, 0
2, 12963, Note_on_c, 0, 62, 80
2, 12978, Note_on_c, 0, 67, 0
2, 13082, Note_on_c, 0, 67, 75
2, 13103, Note_on_c, 0, 62, 0
2, 13201, Note_on_c, 0, 66, 75
2, 13222, Note_on_c, 0, 67, 0
2, 13319, Note_on_c, 0, 67, 74
2, 13341, Note_on_c, 0, 66, 0
2, 13439, Note_on_c, 0, 67, 0
2, 13439, Note_on_c, 0, 72, 96
2, 13562, Note_on_c, 0, 64, 80
2, 13579, Note_on_c, 0, 72, 0
2, 13680, Note_on_c, 0, 62, 76
2, 13702, Note_on_c, 0, 64, 0
2, 13798, Note_on_c, 0, 64, 76
2, 13820, Note_on_c, 0, 62, 0
2, 13921, Note_on_c, 0, 60, 80
2, 13938, Note_on_c, 0, 64, 0
2, 14042, Note_on_c, 0, 64, 76
2, 14061, Note_on_c, 0, 60, 0
2, 14160, Note_on_c, 0, 62, 76
2, 14182, Note_on_c, 0, 64, 0
2, 14279, Note_on_c, 0, 64, 75
2, 14300, Note_on_c, 0, 62, 0
2, 14399, Note_on_c, 0, 64, 0
2, 14401, Note_on_c, 0, 72, 96
2, 14522, Note_on_c, 0, 64, 80
2, 14541, Note_on_c, 0, 72, 0
2, 14642, Note_on_c, 0, 62, 76
2, 14662, Note_on_c, 0, 64, 0
2, 14762, Note_on_c, 0, 64, 76
2, 14782, Note_on_c, 0, 62, 0
2, 14880, Note_on_c, 0, 60, 80
2, 14902, Note_on_c, 0, 64, 0
2, 14998, Note_on_c, 0, 64, 75
2, 15020, Note_on_c, 0, 60, 0
2, 15120, Note_on_c, 0, 62, 75
2, 15138, Note_on_c, 0, 64, 0
2, 15243, Note_on_c, 0, 64, 75
2, 15260, Note_on_c, 0, 62, 0
2, 15358, Note_on_c, 0, 72, 96
2, 15363, Note_on_c, 0, 64, 0
2, 15481, Note_on_c, 0, 65, 80
2, 15498, Note_on_c, 0, 72, 0
2, 15601, Note_on_c, 0, 64, 76
2, 15621, Note_on_c, 0, 65, 0
2, 15720, Note_on_c, 0, 65, 76
2, 15741, Note_on_c, 0, 64, 0
2, 15838, Note_on_c, 0, 60, 80
2, 15860, Note_on_c, 0, 65, 0
2, 15963, Note_on_c, 0, 65, 74
2, 15978, Note_on_c, 0, 60, 0
2, 16083, Note_on_c, 0, 64, 74
2, 16103, Note_on_c, 0, 65, 0
2, 16201, Note_on_c, 0, 65, 74
2, 16223, Note_on_c, 0, 64, 0
2, 16320, Note_on_c, 0, 72, 96
2, 16321, Note_on_c, 0, 65, 0
2, 16440, Note_on_c, 0, 65, 80
2, 16460, Note_on_c, 0, 72, 0
2, 16560, Note_on_c, 0, 64, 75
2, 16580, Note_on_c, 0, 65, 0
2, 16683, Note_on_c, 0, 65, 75
2, 16700, Note_on_c, 0, 64, 0
2, 16799, Note_on_c, 0, 60, 80
2, 16823, Note_on_c, 0, 65, 0
2, 16920, Note_on_c, 0, 65, 75
2, 16939, Note_on_c, 0, 60, 0
2, 17039, Note_on_c, 0, 64, 75
2, 17060, Note_on_c, 0, 65, 0
2, 17163, Note_on_c, 0, 65, 75
2, 17179, Note_on_c, 0, 64, 0
2, 17279, Note_on_c, 0, 70, 96
2, 17283, Note_on_c, 0, 65, 0
2, 17402, Note_on_c, 0, 65, 80
2, 17419, Note_on_c, 0, 70, 0
2, 17521, Note_on_c, 0, 63, 76
2, 17542, Note_on_c, 0, 65, 0
2, 17639, Note_on_c, 0, 65, 76
2, 17661, Note_on_c, 0, 63, 0
2, 17762, Note_on_c, 0, 62, 79
2, 17779, Note_on_c, 0, 65, 0
2, 17883, Note_on_c, 0, 65, 75
2, 17902, Note_on_c, 0, 62, 0
2, 18000, Note_on_c, 0, 63, 74
2, 18023, Note_on_c, 0, 65, 0
2, 18121, Note_on_c, 0, 65, 74
2, 18140, Note_on_c, 0, 63, 0
2, 18241, Note_on_c, 0, 65, 0
2, 18243, Note_on_c, 0, 70, 94
2, 18358, Note_on_c, 0, 65, 78
2, 18383, Note_on_c, 0, 70, 0
2, 18483, Note_on_c, 0, 63, 74
2, 18498, Note_on_c, 0, 65, 0
2, 18601, Note_on_c, 0, 65, 74
2, 18623, Note_on_c, 0, 63, 0
2, 18718, Note_on_c, 0, 62, 77
2, 18741, Note_on_c, 0, 65, 0
2, 18841, Note_on_c, 0, 65, 76
2, 18858, Note_on_c, 0, 62, 0
2, 18959, Note_on_c, 0, 63, 73
2, 18981, Note_on_c, 0, 65, 0
2, 19083, Note_on_c, 0, 65, 72
2, 19099, Note_on_c, 0, 63, 0
2, 19201, Note_on_c, 0, 70, 91
2, 19203, Note_on_c, 0, 65, 0
2, 19321, Note_on_c, 0, 67, 76
2, 19341, Note_on_c, 0, 70, 0
2, 19439, Note_on_c, 0, 65, 72
2, 19461, Note_on_c, 0, 67, 0
2, 19563, Note_on_c, 0, 67, 72
2, 19579, Note_on_c, 0, 65, 0
2, 19678, Note_on_c, 0, 63, 75
2, 19703, Note_on_c, 0, 67, 0
2, 19798, Note_on_c, 0, 67, 72
2, 19818, Note_on_c, 0, 63, 0
2, 19922, Note_on_c, 0, 65, 72
2, 19938, Note_on_c, 0, 67, 0
2, 20039, Note_on_c, 0, 67, 71
2, 20062, Note_on_c, 0, 65, 0
2, 20159, Note_on_c, 0, 67, 0
2, 20163, Note_on_c, 0, 70, 89
2, 20279, Note_on_c, 0, 67, 74
2, 20303, Note_on_c, 0, 70, 0
2, 20400, Note_on_c, 0, 65, 69
2, 20419, Note_on_c, 0, 67, 0
2, 20518, Note_on_c, 0, 67, 69
2, 20540, Note_on_c, 0, 65, 0
2, 20642, Note_on_c, 0, 63, 73
2, 20658, Note_on_c, 0, 67, 0
2, 20763, Note_on_c, 0, 67, 68
2, 20782, Note_on_c, 0, 63, 0
2, 20882, Note_on_c, 0, 65, 68
2, 20903, Note_on_c, 0, 67, 0
2, 21001, Note_on_c, 0, 67, 68
2, 21022, Note_on_c, 0, 65, 0
2, 21121, Note_on_c, 0, 67, 0
2, 21122, Note_on_c, 0, 68, 86
2, 21239, Note_on_c, 0, 67, 72
2, 21262, Note_on_c, 0, 68, 0
2, 21358, Note_on_c, 0, 65, 68
2, 21379, Note_on_c, 0, 67, 0
2, 21478, Note_on_c, 0, 67, 68
2, 21498, Note_on_c, 0, 65, 0
2, 21598, Note_on_c, 0, 63, 71
2, 21618, Note_on_c, 0, 67, 0
2, 21722, Note_on_c, 0, 67, 67
2, 21738, Note_on_c, 0, 63, 0
2, 21843, Note_on_c, 0, 65, 67
2, 21862, Note_on_c, 0, 67, 0
2, 21959, Note_on_c, 0, 67, 66
2, 21983, Note_on_c, 0, 65, 0
2, 22078, Note_on_c, 0, 68, 84
2, 22079, Note_on_c, 0, 67, 0
2, 22201, Note_on_c, 0, 67, 70
2, 22218, Note_on_c, 0, 68, 0
2, 22318, Note_on_c, 0, 65, 65
2, 22341, Note_on_c, 0, 67, 0
2, 22438, Note_on_c, 0, 67, 65
2, 22458, Note_on_c, 0, 65, 0
2, 22560, Note_on_c, 0, 63, 69
2, 22578, Note_on_c, 0, 67, 0
2, 22682, Note_on_c, 0, 67, 63
2, 22700, Note_on_c, 0, 63, 0
2, 22802, Note_on_c, 0, 65, 63
2, 22822, Note_on_c, 0, 67, 0
2, 22921, Note_on_c, 0, 67, 63
2, 22942, Note_on_c, 0, 65, 0
2, 23038, Note_on_c, 0, 68, 81
2, 23041, Note_on_c, 0, 67, 0
2, 23160, Note_on_c, 0, 62, 68
2, 23178, Note_on_c, 0, 68, 0
2, 23279, Note_on_c, 0, 60, 64
2, 23300, Note_on_c, 0, 62, 0
2, 23402, Note_on_c, 0, 62, 64
2, 23419, Note_on_c, 0, 60, 0
2, 23519, Note_on_c, 0, 58, 67
2, 23542, Note_on_c, 0, 62, 0
2, 23640, Note_on_c, 0, 62, 61
2, 23659, Note_on_c, 0, 58, 0
2, 23759, Note_on_c, 0, 60, 61
2, 23780, Note_on_c, 0, 62, 0
2, 23881, Note_on_c, 0, 62, 61
2, 23899, Note_on_c, 0, 60, 0
2, 24001, Note_on_c, 0, 62, 0
2, 24001, Note_on_c, 0, 68, 79
2, 24121, Note_on_c, 0, 62, 60
2, 24141, Note_on_c, 0, 68, 0
2, 24238, Note_on_c, 0, 60, 57
2, 24261, Note_on_c, 0, 62, 0
2, 24361, Note_on_c, 0, 62, 57
2, 24378, Note_on_c, 0, 60, 0
2, 24483, Note_on_c, 0, 58, 60
2, 24501, Note_on_c, 0, 62, 0
2, 24602, Note_on_c, 0, 62, 54
2, 24623, Note_on_c, 0, 58, 0
2, 24723, Note_on_c, 0, 60, 54
2, 24742, Note_on_c, 0, 62, 0
2, 24839, Note_on_c, 0, 62, 55
2, 24863, Note_on_c, 0, 60, 0
2, 24959, Note_on_c, 0, 62, 0
2, 24960, Note_on_c, 0, 67, 76
2, 25079, Note_on_c, 0, 58, 58
2, 25100, Note_on_c, 0, 67, 0
2, 25203, Note_on_c, 0, 56, 54
2, 25219, Note_on_c, 0, 58, 0
2, 25320, Note_on_c, 0, 58, 54
2, 25343, Note_on_c, 0, 56, 0
2, 25443, Note_on_c, 0, 63, 64
2, 25460, Note_on_c, 0, 58, 0
2, 25558, Note_on_c, 0, 58, 54
2, 25583, Note_on_c, 0, 63, 0
2, 25681, Note_on_c, 0, 56, 54
2, 25698, Note_on_c, 0, 58, 0
2, 25798, Note_on_c, 0, 58, 54
2, 25821, Note_on_c, 0, 56, 0
2, 25918, Note_on_c, 0, 58, 0
2, 25920, Note_on_c, 0, 67, 76
2, 26043, Note_on_c, 0, 58, 57
2, 26060, Note_on_c, 0, 67, 0
2, 26158, Note_on_c, 0, 56, 53
2, 26183, Note_on_c, 0, 58, 0
2, 26283, Note_on_c, 0, 58, 53
2, 26298, Note_on_c, 0, 56, 0
2, 26399, Note_on_c, 0, 63, 57
2, 26423, Note_on_c, 0, 58, 0
2, 26519, Note_on_c, 0, 58, 53
2, 26539, Note_on_c, 0, 63, 0
2, 26642, Note_on_c, 0, 56, 53
2, 26659, Note_on_c, 0, 58, 0
2, 26760, Note_on_c, 0, 58, 53
2, 26782, Note_on_c, 0, 56, 0
2, 26879, Note_on_c, 0, 65, 76
2, 26880, Note_on_c, 0, 58, 0
2, 27001, Note_on_c, 0, 60, 58
2, 27019, Note_on_c, 0, 65, 0
2, 27121, Note_on_c, 0, 58, 53
2, 27141, Note_on_c, 0, 60, 0
2, 27240, Note_on_c, 0, 60, 53
2, 27261, Note_on_c, 0, 58, 0
2, 27360, Note_on_c, 0, 57, 58
2, 27380, Note_on_c, 0, 60, 0
2, 27481, Note_on_c, 0, 60, 53
2, 27500, Note_on_c, 0, 57, 0
2, 27601, Note_on_c, 0, 58, 53
2, 27621, Note_on_c, 0, 60, 0
2, 27723, Note_on_c, 0, 60, 53
2, 27741, Note_on_c, 0, 58, 0
2, 27842, Note_on_c, 0, 65, 76
2, 27843, Note_on_c, 0, 60, 0
2, 27961, Note_on_c, 0, 60, 59
2, 27982, Note_on_c, 0, 65, 0
2, 28082, Note_on_c, 0, 58, 54
2, 28101, Note_on_c, 0, 60, 0
2, 28201, Note_on_c, 0, 60, 54
2, 28222, Note_on_c, 0, 58, 0
2, 28320, Note_on_c, 0, 57, 59
2, 28341, Note_on_c, 0, 60, 0
2, 28439, Note_on_c, 0, 60, 54
2, 28460, Note_on_c, 0, 57, 0
2, 28562, Note_on_c, 0, 58, 54
2, 28579, Note_on_c, 0, 60, 0
2, 28681, Note_on_c, 0, 60, 53
2, 28702, Note_on_c, 0, 58, 0
2, 28801, Note_on_c, 0, 60, 0
2, 28803, Note_on_c, 0, 65, 76
2, 28919, Note_on_c, 0, 62, 60
2, 28943, Note_on_c, 0, 65, 0
2, 29039, Note_on_c, 0, 60, 55
2, 29059, Note_on_c, 0, 62, 0
2, 29161, Note_on_c, 0, 62, 55
2, 29179, Note_on_c, 0, 60, 0
2, 29282, Note_on_c, 0, 59, 60
2, 29301, Note_on_c, 0, 62, 0
2, 29401, Note_on_c, 0, 62, 55
2, 29422, Note_on_c, 0, 59, 0
2, 29520, Note_on_c, 0, 60, 55
2, 29541, Note_on_c, 0, 62, 0
2, 29640, Note_on_c, 0, 62, 55
2, 29660, Note_on_c, 0, 60, 0
2, 29758, Note_on_c, 0, 65, 76
2, 29760, Note_on_c, 0, 62, 0
2, 29882, Note_on_c, 0, 62, 60
2, 29898, Note_on_c, 0, 65, 0
2, 30001, Note_on_c, 0, 60, 56
2, 30022, Note_on_c, 0, 62, 0
2, 30121, Note_on_c, 0, 62, 56
2, 30141, Note_on_c, 0, 60, 0
2, 30242, Note_on_c, 0, 59, 60
2, 30261, Note_on_c, 0, 62, 0
2, 30362, Note_on_c, 0, 62, 55
2, 30382, Note_on_c, 0, 59, 0
2, 30478, Note_on_c, 0, 60, 55
2, 30502, Note_on_c, 0, 62, 0
2, 30601, Note_on_c, 0, 62, 55
2, 30618, Note_on_c, 0, 60, 0
2, 30721, Note_on_c, 0, 62, 0
2, 30723, Note_on_c, 0, 65, 76
2, 30843, Note_on_c, 0, 62, 61
2, 30863, Note_on_c, 0, 65, 0
2, 30961, Note_on_c, 0, 60, 52
2, 30983, Note_on_c, 0, 62, 0
2, 31082, Note_on_c, 0, 62, 54
2, 31101, Note_on_c, 0, 60, 0
2, 31198, Note_on_c, 0, 59, 61
2, 31222, Note_on_c, 0, 62, 0
2, 31322, Note_on_c, 0, 62, 55
2, 31338, Note_on_c, 0, 59, 0
2, 31443, Note_on_c, 0, 60, 55
2, 31462, Note_on_c, 0, 62, 0
2, 31559, Note_on_c, 0, 62, 55
2, 31583, Note_on_c, 0, 60, 0
2, 31679, Note_on_c, 0, 62, 0
2, 31681, Note_on_c, 0, 65, 76
2, 31799, Note_on_c, 0, 62, 61
2, 31821, Note_on_c, 0, 65, 0
2, 31919, Note_on_c, 0, 60, 55
2, 31939, Note_on_c, 0, 62, 0
2, 32038, Note_on_c, 0, 62, 55
2, 32059, Note_on_c, 0, 60, 0
2, 32163, Note_on_c, 0, 59, 61
2, 32178, Note_on_c, 0, 62, 0
2, 32283, Note_on_c, 0, 62, 54
2, 32303, Note_on_c, 0, 59, 0
2, 32402, Note_on_c, 0, 60, 54
2, 32423, Note_on_c, 0, 62, 0
2, 32518, Note_on_c, 0, 62, 54
2, 32542, Note_on_c, 0, 60, 0
2, 32638, Note_on_c, 0, 62, 0
2, 32639, Note_on_c, 0, 63, 76
2, 32758, Note_on_c, 0, 60, 61
2, 32779, Note_on_c, 0, 63, 0
2, 32878, Note_on_c, 0, 59, 61
2, 32898, Note_on_c, 0, 60, 0
2, 33001, Note_on_c, 0, 60, 55
2, 33018, Note_on_c, 0, 59, 0
2, 33122, Note_on_c, 0, 55, 61
2, 33141, Note_on_c, 0, 60, 0
2, 33241, Note_on_c, 0, 60, 55
2, 33262, Note_on_c, 0, 55, 0
2, 33360, Note_on_c, 0, 59, 55
2, 33381, Note_on_c, 0, 60, 0
2, 33480, Note_on_c, 0, 60, 55
2, 33500, Note_on_c, 0, 59, 0
2, 33599, Note_on_c, 0, 63, 76
2, 33600, Note_on_c, 0, 60, 0
2, 33720, Note_on_c, 0, 60, 61
2, 33739, Note_on_c, 0, 63, 0
2, 33841, Note_on_c, 0, 59, 55
2, 33860, Note_on_c, 0, 60, 0
2, 33958, Note_on_c, 0, 60, 55
2, 33981, Note_on_c, 0, 59, 0
2, 34079, Note_on_c, 0, 55, 61
2, 34098, Note_on_c, 0, 60, 0
2, 34202, Note_on_c, 0, 60, 55
2, 34219, Note_on_c, 0, 55, 0
2, 34319, Note_on_c, 0, 59, 55
2, 34342, Note_on_c, 0, 60, 0
2, 34442, Note_on_c, 0, 60, 56
2, 34459, Note_on_c, 0, 59, 0
2, 34562, Note_on_c, 0, 60, 0
2, 34563, Note_on_c, 0, 53, 76
2, 34683, Note_on_c, 0, 63, 64
2, 34703, Note_on_c, 0, 53, 0
2, 34802, Note_on_c, 0, 62, 57
2, 34823, Note_on_c, 0, 63, 0
2, 34919, Note_on_c, 0, 63, 57
2, 34942, Note_on_c, 0, 62, 0
2, 35043, Note_on_c, 0, 65, 64
2, 35059, Note_on_c, 0, 63, 0
2, 35158, Note_on_c, 0, 63, 58
2, 35183, Note_on_c, 0, 65, 0
2, 35278, Note_on_c, 0, 62, 58
2, 35298, Note_on_c, 0, 63, 0
2, 35402, Note_on_c, 0, 63, 58
2, 35418, Note_on_c, 0, 62, 0
2, 35521, Note_on_c, 0, 53, 76
2, 35522, Note_on_c, 0, 63, 0
2, 35641, Note_on_c, 0, 63, 64
2, 35661, Note_on_c, 0, 53, 0
2, 35763, Note_on_c, 0, 62, 57
2, 35781, Note_on_c, 0, 63, 0
2, 35878, Note_on_c, 0, 63, 59
2, 35903, Note_on_c, 0, 62, 0
2, 36003, Note_on_c, 0, 65, 64
2, 36018, Note_on_c, 0, 63, 0
2, 36121, Note_on_c, 0, 63, 57
2, 36143, Note_on_c, 0, 65, 0
2, 36239, Note_on_c, 0, 62, 57
2, 36261, Note_on_c, 0, 63, 0
2, 36358, Note_on_c, 0, 63, 57
2, 36379, Note_on_c, 0, 62, 0
2, 36478, Note_on_c, 0, 63, 0
2, 36481, Note_on_c, 0, 54, 76
2, 36599, Note_on_c, 0, 60, 64
2, 36621, Note_on_c, 0, 54, 0
2, 36719, Note_on_c, 0, 59, 57
2, 36739, Note_on_c, 0, 60, 0
2, 36843, Note_on_c, 0, 60, 58
2, 36859, Note_on_c, 0, 59, 0
2, 36961, Note_on_c, 0, 63, 64
2, 36983, Note_on_c, 0, 60, 0
2, 37081, Note_on_c, 0, 60, 58
2, 37101, Note_on_c, 0, 63, 0
2, 37198, Note_on_c, 0, 59, 58
2, 37221, Note_on_c, 0, 60, 0
2, 37320, Note_on_c, 0, 60, 58
2, 37338, Note_on_c, 0, 59, 0
2, 37440, Note_on_c, 0, 60, 0
2, 37440, Note_on_c, 0, 54, 76
2, 37560, Note_on_c, 0, 60, 64
2, 37580, Note_on_c, 0, 54, 0
2, 37682, Note_on_c, 0, 59, 58
2, 37700, Note_on_c, 0, 60, 0
2, 37801, Note_on_c, 0, 60, 58
2, 37822, Note_on_c, 0, 59, 0
2, 37920, Note_on_c, 0, 63, 64
2, 37941, Note_on_c, 0, 60, 0
2, 38042, Note_on_c, 0, 60, 58
2, 38060, Note_on_c, 0, 63, 0
2, 38161, Note_on_c, 0, 59, 58
2, 38182, Note_on_c, 0, 60, 0
2, 38281, Note_on_c, 0, 60, 58
2, 38301, Note_on_c, 0, 59, 0
2, 38400, Note_on_c, 0, 63, 76
2, 38401, Note_on_c, 0, 60, 0
2, 38518, Note_on_c, 0, 60, 64
2, 38540, Note_on_c, 0, 63, 0
2, 38642, Note_on_c, 0, 59, 58
2, 38658, Note_on_c, 0, 60, 0
2, 38758, Note_on_c, 0, 60, 58
2, 38782, Note_on_c, 0, 59, 0
2, 38881, Note_on_c, 0, 55, 63
2, 38898, Note_on_c, 0, 60, 0
2, 39003, Note_on_c, 0, 60, 57
2, 39021, Note_on_c, 0, 55, 0
2, 39120, Note_on_c, 0, 59, 57
2, 39143, Note_on_c, 0, 60, 0
2, 39242, Note_on_c, 0, 60, 57
2, 39260, Note_on_c, 0, 59, 0
2, 39360, Note_on_c, 0, 63, 76
2, 39362, Note_on_c, 0, 60, 0
2, 39480, Note_on_c, 0, 60, 58
2, 39500, Note_on_c, 0, 63, 0
2, 39602, Note_on_c, 0, 59, 58
2, 39620, Note_on_c, 0, 60, 0
2, 39721, Note_on_c, 0, 60, 58
2, 39742, Note_on_c, 0, 59, 0
2, 39840, Note_on_c, 0, 55, 63
2, 39861, Note_on_c, 0, 60, 0
2, 39963, Note_on_c, 0, 60, 57
2, 39980, Note_on_c, 0, 55, 0
2, 40081, Note_on_c, 0, 59, 58
2, 40103, Note_on_c, 0, 60, 0
2, 40199, Note_on_c, 0, 60, 58
2, 40221, Note_on_c, 0, 59, 0
2, 40319, Note_on_c, 0, 60, 0
2, 40320, Note_on_c, 0, 66, 76
2, 40438, Note_on_c, 0, 60, 64
2, 40460, Note_on_c, 0, 66, 0
2, 40562, Note_on_c, 0, 59, 57
2, 40578, Note_on_c, 0, 60, 0
2, 40683, Note_on_c, 0, 60, 58
2, 40702, Note_on_c, 0, 59, 0
2, 40801, Note_on_c, 0, 57, 63
2, 40823, Note_on_c, 0, 60, 0
2, 40918, Note_on_c, 0, 60, 57
2, 40941, Note_on_c, 0, 57, 0
2, 41039, Note_on_c, 0, 59, 57
2, 41058, Note_on_c, 0, 60, 0
2, 41158, Note_on_c, 0, 60, 57
2, 41179, Note_on_c, 0, 59, 0
2, 41278, Note_on_c, 0, 60, 0
2, 41281, Note_on_c, 0, 66, 76
2, 41398, Note_on_c, 0, 60, 64
2, 41421, Note_on_c, 0, 66, 0
2, 41523, Note_on_c, 0, 59, 57
2, 41538, Note_on_c, 0, 60, 0
2, 41643, Note_on_c, 0, 60, 57
2, 41663, Note_on_c, 0, 59, 0
2, 41761, Note_on_c, 0, 57, 64
2, 41783, Note_on_c, 0, 60, 0
2, 41882, Note_on_c, 0, 60, 58
2, 41901, Note_on_c, 0, 57, 0
2, 42003, Note_on_c, 0, 59, 58
2, 42022, Note_on_c, 0, 60, 0
2, 42118, Note_on_c, 0, 60, 58
2, 42143, Note_on_c, 0, 59, 0
2, 42238, Note_on_c, 0, 60, 0
2, 42238, Note_on_c, 0, 67, 79
2, 42362, Note_on_c, 0, 60, 65
2, 42378, Note_on_c, 0, 67, 0
2, 42481, Note_on_c, 0, 59, 57
2, 42502, Note_on_c, 0, 60, 0
2, 42599, Note_on_c, 0, 60, 58
2, 42621, Note_on_c, 0, 59, 0
2, 42718, Note_on_c, 0, 62, 66
2, 42739, Note_on_c, 0, 60, 0
2, 42839, Note_on_c, 0, 60, 58
2, 42858, Note_on_c, 0, 62, 0
2, 42961, Note_on_c, 0, 59, 58
2, 42979, Note_on_c, 0, 60, 0
2, 43080, Note_on_c, 0, 60, 58
2, 43101, Note_on_c, 0, 59, 0
2, 43199, Note_on_c, 0, 67, 79
2, 43200, Note_on_c, 0, 60, 0
2, 43320, Note_on_c, 0, 60, 67
2, 43339, Note_on_c, 0, 67, 0
2, 43441, Note_on_c, 0, 59, 58
2, 43460, Note_on_c, 0, 60, 0
2, 43562, Note_on_c, 0, 60, 58
2, 43581, Note_on_c, 0, 59, 0
2, 43682, Note_on_c, 0, 62, 67
2, 43702, Note_on_c, 0, 60, 0
2, 43801, Note_on_c, 0, 60, 59
2, 43822, Note_on_c, 0, 62, 0
2, 43921, Note_on_c, 0, 59, 59
2, 43941, Note_on_c, 0, 60, 0
2, 44042, Note_on_c, 0, 60, 59
2, 44061, Note_on_c, 0, 59, 0
2, 44162, Note_on_c, 0, 60, 0
2, 44163, Note_on_c, 0, 68, 80
2, 44278, Note_on_c, 0, 60, 67
2, 44303, Note_on_c, 0, 68, 0
2, 44401, Note_on_c, 0, 59, 61
2, 44418, Note_on_c, 0, 60, 0
2, 44520, Note_on_c, 0, 60, 61
2, 44541, Note_on_c, 0, 59, 0
2, 44639, Note_on_c, 0, 62, 68
2, 44660, Note_on_c, 0, 60, 0
2, 44758, Note_on_c, 0, 60, 60
2, 44779, Note_on_c, 0, 62, 0
2, 44883, Note_on_c, 0, 59, 60
2, 44898, Note_on_c, 0, 60, 0
2, 44998, Note_on_c, 0, 60, 60
2, 45023, Note_on_c, 0, 59, 0
2, 45118, Note_on_c, 0, 60, 0
2, 45120, Note_on_c, 0, 68, 83
2, 45241, Note_on_c, 0, 60, 69
2, 45260, Note_on_c, 0, 68, 0
2, 45359, Note_on_c, 0, 59, 62
2, 45381, Note_on_c, 0, 60, 0
2, 45481, Note_on_c, 0, 60, 62
2, 45499, Note_on_c, 0, 59, 0
2, 45599, Note_on_c, 0, 62, 69
2, 45621, Note_on_c, 0, 60, 0
2, 45719, Note_on_c, 0, 60, 61
2, 45739, Note_on_c, 0, 62, 0
2, 45838, Note_on_c, 0, 59, 61
2, 45859, Note_on_c, 0, 60, 0
2, 45962, Note_on_c, 0, 60, 61
2, 45978, Note_on_c, 0, 59, 0
2, 46082, Note_on_c, 0, 60, 0
2, 46440, Note_on_c, 0, 53, 74
2, 46560, Note_on_c, 0, 56, 74
2, 46580, Note_on_c, 0, 53, 0
2, 46680, Note_on_c, 0, 53, 70
2, 46700, Note_on_c, 0, 56, 0
2, 46800, Note_on_c, 0, 52, 70
2, 46820, Note_on_c, 0, 53, 0
2, 46920, Note_on_c, 0, 53, 70
2, 46940, Note_on_c, 0, 52, 0
2, 47040, Note_on_c, 0, 59, 74
2, 47060, Note_on_c, 0, 53, 0
2, 47160, Note_on_c, 0, 53, 70
2, 47180, Note_on_c, 0, 59, 0
2, 47280, Note_on_c, 0, 62, 74
2, 47300, Note_on_c, 0, 53, 0
2, 47400, Note_on_c, 0, 59, 70
2, 47420, Note_on_c, 0, 62, 0
2, 47520, Note_on_c, 0, 56, 72
2, 47540, Note_on_c, 0, 59, 0
2, 47640, Note_on_c, 0, 53, 71
2, 47660, Note_on_c, 0, 56, 0
2, 47760, Note_on_c, 0, 52, 70
2, 47780, Note_on_c, 0, 53, 0
2, 47880, Note_on_c, 0, 53, 69
2, 47900, Note_on_c, 0, 52, 0
2, 48000, Note_on_c, 0, 53, 0
2, 48360, Note_on_c, 0, 55, 72
2, 48480, Note_on_c, 0, 60, 75
2, 48500, Note_on_c, 0, 55, 0
2, 48600, Note_on_c, 0, 55, 70
2, 48620, Note_on_c, 0, 60, 0
2, 48720, Note_on_c, 0, 54, 70
2, 48740, Note_on_c, 0, 55, 0
2, 48840, Note_on_c, 0, 55, 70
2, 48860, Note_on_c, 0, 54, 0
2, 48960, Note_on_c, 0, 63, 74
2, 48980, Note_on_c, 0, 55, 0
2, 49080, Note_on_c, 0, 60, 70
2, 49100, Note_on_c, 0, 63, 0
2, 49200, Note_on_c, 0, 67, 74
2, 49220, Note_on_c, 0, 60, 0
2, 49320, Note_on_c, 0, 63, 70
2, 49340, Note_on_c, 0, 67, 0
2, 49440, Note_on_c, 0, 60, 74
2, 49460, Note_on_c, 0, 63, 0
2, 49560, Note_on_c, 0, 56, 70
2, 49580, Note_on_c, 0, 60, 0
2, 49680, Note_on_c, 0, 55, 72
2, 49700, Note_on_c, 0, 56, 0
2, 49800, Note_on_c, 0, 56, 70
2, 49820, Note_on_c, 0, 55, 0
2, 49920, Note_on_c, 0, 56, 0
2, 50280, Note_on_c, 0, 60, 71
2, 50400, Note_on_c, 0, 63, 75
2, 50420, Note_on_c, 0, 60, 0
2, 50520, Note_on_c, 0, 60, 70
2, 50540, Note_on_c, 0, 63, 0
2, 50640, Note_on_c, 0, 59, 70
2, 50660, Note_on_c, 0, 60, 0
2, 50760, Note_on_c, 0, 60, 70
2, 50780, Note_on_c, 0, 59, 0
2, 50880, Note_on_c, 0, 66, 74
2, 50900, Note_on_c, 0, 60, 0
2, 51000, Note_on_c, 0, 60, 70
2, 51020, Note_on_c, 0, 66, 0
2, 51120, Note_on_c, 0, 69, 74
2, 51140, Note_on_c, 0, 60, 0
2, 51240, Note_on_c, 0, 66, 70
2, 51260, Note_on_c, 0, 69, 0
2, 51360, Note_on_c, 0, 63, 73
2, 51380, Note_on_c, 0, 66, 0
2, 51480, Note_on_c, 0, 60, 70
2, 51500, Note_on_c, 0, 63, 0
2, 51600, Note_on_c, 0, 59, 70
2, 51620, Note_on_c, 0, 60, 0
2, 51720, Note_on_c, 0, 60, 70
2, 51740, Note_on_c, 0, 59, 0
2, 51840, Note_on_c, 0, 60, 0
2, 51960, Note_on_c, 0, 74, 67
2, 52080, Note_on_c, 0, 72, 65
2, 52100, Note_on_c, 0, 74, 0
2, 52200, Note_on_c, 0, 74, 65
2, 52220, Note_on_c, 0, 72, 0
2, 52320, Note_on_c, 0, 75, 72
2, 52340, Note_on_c, 0, 74, 0
2, 52440, Note_on_c, 0, 72, 67
2, 52460, Note_on_c, 0, 75, 0
2, 52560, Note_on_c, 0, 71, 63
2, 52580, Note_on_c, 0, 72, 0
2, 52680, Note_on_c, 0, 72, 63
2, 52700, Note_on_c, 0, 71, 0
2, 52800, Note_on_c, 0, 69, 73
2, 52820, Note_on_c, 0, 72, 0
2, 52920, Note_on_c, 0, 72, 67
2, 52940, Note_on_c, 0, 69, 0
2, 53040, Note_on_c, 0, 71, 64
2, 53060, Note_on_c, 0, 72, 0
2, 53160, Note_on_c, 0, 72, 64
2, 53180, Note_on_c, 0, 71, 0
2, 53280, Note_on_c, 0, 74, 67
2, 53300, Note_on_c, 0, 72, 0
2, 53400, Note_on_c, 0, 71, 64
2, 53420, Note_on_c, 0, 74, 0
2, 53520, Note_on_c, 0, 69, 64
2, 53540, Note_on_c, 0, 71, 0
2, 53640, Note_on_c, 0, 71, 64
2, 53660, Note_on_c, 0, 69, 0
2, 53760, Note_on_c, 0, 71, 0
2, 53760, Note_on_c, 0, 67, 75
2, 53880, Note_on_c, 0, 71, 67
2, 53900, Note_on_c, 0, 67, 0
2, 54000, Note_on_c, 0, 69, 64
2, 54020, Note_on_c, 0, 71, 0
2, 54120, Note_on_c, 0, 71, 64
2, 54140, Note_on_c, 0, 69, 0
2, 54240, Note_on_c, 0, 72, 70
2, 54260, Note_on_c, 0, 71, 0
2, 54360, Note_on_c, 0, 69, 64
2, 54380, Note_on_c, 0, 72, 0
2, 54480, Note_on_c, 0, 67, 64
2, 54500, Note_on_c, 0, 69, 0
2, 54600, Note_on_c, 0, 69, 65
2, 54620, Note_on_c, 0, 67, 0
2, 54720, Note_on_c, 0, 69, 0
2, 54720, Note_on_c, 0, 66, 75
2, 54840, Note_on_c, 0, 69, 67
2, 54860, Note_on_c, 0, 66, 0
2, 54960, Note_on_c, 0, 67, 64
2, 54980, Note_on_c, 0, 69, 0
2, 55080, Note_on_c, 0, 69, 64
2, 55100, Note_on_c, 0, 67, 0
2, 55200, Note_on_c, 0, 71, 70
2, 55220, Note_on_c, 0, 69, 0
2, 55320, Note_on_c, 0, 67, 65
2, 55340, Note_on_c, 0, 71, 0
2, 55440, Note_on_c, 0, 66, 65
2, 55460, Note_on_c, 0, 67, 0
2, 55560, Note_on_c, 0, 67, 65
2, 55580, Note_on_c, 0, 66, 0
2, 55680, Note_on_c, 0, 67, 0
2, 55680, Note_on_c, 0, 62, 75
2, 55800, Note_on_c, 0, 79, 70
2, 55820, Note_on_c, 0, 62, 0
2, 55920, Note_on_c, 0, 77, 67
2, 55940, Note_on_c, 0, 79, 0
2, 56040, Note_on_c, 0, 79, 67
2, 56060, Note_on_c, 0, 77, 0
2, 56160, Note_on_c, 0, 80, 73
2, 56180, Note_on_c, 0, 79, 0
2, 56280, Note_on_c, 0, 77, 68
2, 56300, Note_on_c, 0, 80, 0
2, 56400, Note_on_c, 0, 75, 68
2, 56420, Note_on_c, 0, 77, 0
2, 56520, Note_on_c, 0, 77, 68
2, 56540, Note_on_c, 0, 75, 0
2, 56640, Note_on_c, 0, 77, 0
2, 56640, Note_on_c, 0, 74, 77
2, 56760, Note_on_c, 0, 77, 70
2, 56780, Note_on_c, 0, 74, 0
2, 56880, Note_on_c, 0, 75, 66
2, 56900, Note_on_c, 0, 77, 0
2, 57000, Note_on_c, 0, 77, 66
2, 57020, Note_on_c, 0, 75, 0
2, 57120, Note_on_c, 0, 79, 73
2, 57140, Note_on_c, 0, 77, 0
2, 57240, Note_on_c, 0, 75, 67
2, 57260, Note_on_c, 0, 79, 0
2, 57360, Note_on_c, 0, 74, 67
2, 57380, Note_on_c, 0, 75, 0
2, 57480, Note_on_c, 0, 75, 68
2, 57500, Note_on_c, 0, 74, 0
2, 57600, Note_on_c, 0, 75, 0
2, 57600, Note_on_c, 0, 72, 75
2, 57720, Note_on_c, 0, 75, 67
2, 57740, Note_on_c, 0, 72, 0
2, 57840, Note_on_c, 0, 74, 65
2, 57860, Note_on_c, 0, 75, 0
2, 57960, Note_on_c, 0, 75, 67
2, 57980, Note_on_c, 0, 74, 0
2, 58080, Note_on_c, 0, 77, 71
2, 58100, Note_on_c, 0, 75, 0
2, 58200, Note_on_c, 0, 74, 65
2, 58220, Note_on_c, 0, 77, 0
2, 58320, Note_on_c, 0, 72, 65
2, 58340, Note_on_c, 0, 74, 0
2, 58440, Note_on_c, 0, 74, 65
2, 58460, Note_on_c, 0, 72, 0
2, 58560, Note_on_c, 0, 74, 0
2, 58560, Note_on_c, 0, 71, 75
2, 58680, Note_on_c, 0, 74, 67
2, 58700, Note_on_c, 0, 71, 0
2, 58800, Note_on_c, 0, 72, 65
2, 58820, Note_on_c, 0, 74, 0
2, 58920, Note_on_c, 0, 74, 67
2, 58940, Note_on_c, 0, 72, 0
2, 59040, Note_on_c, 0, 75, 71
2, 59060, Note_on_c, 0, 74, 0
2, 59160, Note_on_c, 0, 72, 65
2, 59180, Note_on_c, 0, 75, 0
2, 59280, Note_on_c, 0, 71, 65
2, 59300, Note_on_c, 0, 72, 0
2, 59400, Note_on_c, 0, 72, 65
2, 59420, Note_on_c, 0, 71, 0
2, 59520, Note_on_c, 0, 72, 0
2, 59520, Note_on_c, 0, 67, 75
2, 59640, Note_on_c, 0, 72, 67
2, 59660, Note_on_c, 0, 67, 0
2, 59760, Note_on_c, 0, 71, 64
2, 59780, Note_on_c, 0, 72, 0
2, 59880, Note_on_c, 0, 72, 65
2, 59900, Note_on_c, 0, 71, 0
2, 60000, Note_on_c, 0, 68, 80
2, 60020, Note_on_c, 0, 72, 0
2, 60120, Note_on_c, 0, 77, 65
2, 60140, Note_on_c, 0, 68, 0
2, 60240, Note_on_c, 0, 75, 65
2, 60260, Note_on_c, 0, 77, 0
2, 60360, Note_on_c, 0, 77, 64
2, 60380, Note_on_c, 0, 75, 0
2, 60480, Note_on_c, 0, 77, 0
2, 60480, Note_on_c, 0, 67, 80
2, 60600, Note_on_c, 0, 75, 67
2, 60620, Note_on_c, 0, 67, 0
2, 60720, Note_on_c, 0, 74, 65
2, 60740, Note_on_c, 0, 75, 0
2, 60840, Note_on_c, 0, 75, 67
2, 60860, Note_on_c, 0, 74, 0
2, 60960, Note_on_c, 0, 65, 81
2, 60980, Note_on_c, 0, 75, 0
2, 61080, Note_on_c, 0, 74, 65
2, 61100, Note_on_c, 0, 65, 0
2, 61200, Note_on_c, 0, 72, 65
2, 61220, Note_on_c, 0, 74, 0
2, 61320, Note_on_c, 0, 74, 65
2, 61340, Note_on_c, 0, 72, 0
2, 61440, Note_on_c, 0, 74, 0
2, 61440, Note_on_c, 0, 63, 81
2, 61560, Note_on_c, 0, 72, 67
2, 61580, Note_on_c, 0, 63, 0
2, 61680, Note_on_c, 0, 71, 65
2, 61700, Note_on_c, 0, 72, 0
2, 61800, Note_on_c, 0, 72, 67
2, 61820, Note_on_c, 0, 71, 0
2, 61920, Note_on_c, 0, 68, 81
2, 61940, Note_on_c, 0, 72, 0
2, 62040, Note_on_c, 0, 65, 66
2, 62060, Note_on_c, 0, 68, 0
2, 62160, Note_on_c, 0, 63, 66
2, 62180, Note_on_c, 0, 65, 0
2, 62280, Note_on_c, 0, 65, 66
2, 62300, Note_on_c, 0, 63, 0
2, 62400, Note_on_c, 0, 65, 0
2, 62400, Note_on_c, 0, 67, 81
2, 62520, Note_on_c, 0, 63, 67
2, 62540, Note_on_c, 0, 67, 0
2, 62640, Note_on_c, 0, 62, 65
2, 62660, Note_on_c, 0, 63, 0
2, 62760, Note_on_c, 0, 63, 65
2, 62780, Note_on_c, 0, 62, 0
2, 62880, Note_on_c, 0, 65, 81
2, 62900, Note_on_c, 0, 63, 0
2, 63000, Note_on_c, 0, 62, 66
2, 63020, Note_on_c, 0, 65, 0
2, 63120, Note_on_c, 0, 60, 66
2, 63140, Note_on_c, 0, 62, 0
2, 63240, Note_on_c, 0, 62, 67
2, 63260, Note_on_c, 0, 60, 0
2, 63360, Note_on_c, 0, 62, 0
2, 63405, Note_on_c, 0, 60, 67
2, 63420, Note_on_c, 0, 64, 67
2, 63660, Note_on_c, 0, 64, 0
2, 63660, Note_on_c, 0, 60, 58
2, 63720, Note_on_c, 0, 60, 0
2, 63720, Note_on_c, 0, 62, 60
2, 63780, Note_on_c, 0, 62, 0
2, 63780, Note_on_c, 0, 64, 63
2, 63840, Note_on_c, 0, 64, 0
2, 63840, Note_on_c, 0, 60, 0
2, 63840, Note_on_c, 0, 65, 66
2, 63870, Note_on_c, 0, 65, 0
2, 63870, Note_on_c, 0, 67, 67
2, 63900, Note_on_c, 0, 67, 0
2, 63900, Note_on_c, 0, 68, 68
2, 63930, Note_on_c, 0, 68, 0
2, 63930, Note_on_c, 0, 70, 68
2, 63960, Note_on_c, 0, 70, 0
2, 63960, Note_on_c, 0, 72, 66
2, 63990, Note_on_c, 0, 72, 0
2, 63990, Note_on_c, 0, 70, 65
2, 64020, Note_on_c, 0, 70, 0
2, 64020, Note_on_c, 0, 68, 64
2, 64050, Note_on_c, 0, 68, 0
2, 64050, Note_on_c, 0, 67, 63
2, 64080, Note_on_c, 0, 67, 0
2, 64080, Note_on_c, 0, 65, 62
2, 64200, Note_on_c, 0, 65, 0
2, 64200, Note_on_c, 0, 67, 67
2, 64260, Note_on_c, 0, 67, 0
2, 64260, Note_on_c, 0, 64, 67
2, 64320, Note_on_c, 0, 64, 0
2, 64365, Note_on_c, 0, 60, 67
2, 64380, Note_on_c, 0, 65, 80
2, 64400, Note_on_c, 0, 65, 0
2, 64400, Note_on_c, 0, 64, 70
2, 64420, Note_on_c, 0, 64, 0
2, 64420, Note_on_c, 0, 65, 78
2, 64620, Note_on_c, 0, 65, 0
2, 64620, Note_on_c, 0, 67, 67
2, 64680, Note_on_c, 0, 67, 0
2, 64680, Note_on_c, 0, 65, 64
2, 64740, Note_on_c, 0, 65, 0
2, 64740, Note_on_c, 0, 64, 64
2, 64800, Note_on_c, 0, 64, 0
2, 64800, Note_on_c, 0, 60, 0
2, 64800, Note_on_c, 0, 65, 65
2, 64860, Note_on_c, 0, 65, 0
2, 64860, Note_on_c, 0, 67, 65
2, 64920, Note_on_c, 0, 67, 0
2, 64920, Note_on_c, 0, 68, 67
2, 64980, Note_on_c, 0, 68, 0
2, 64980, Note_on_c, 0, 67, 67
2, 65040, Note_on_c, 0, 67, 0
2, 65040, Note_on_c, 0, 65, 66
2, 65070, Note_on_c, 0, 65, 0
2, 65070, Note_on_c, 0, 63, 65
2, 65100, Note_on_c, 0, 63, 0
2, 65100, Note_on_c, 0, 62, 64
2, 65130, Note_on_c, 0, 62, 0
2, 65130, Note_on_c, 0, 63, 65
2, 65160, Note_on_c, 0, 63, 0
2, 65160, Note_on_c, 0, 65, 68
2, 65190, Note_on_c, 0, 65, 0
2, 65190, Note_on_c, 0, 62, 63
2, 65220, Note_on_c, 0, 62, 0
2, 65220, Note_on_c, 0, 63, 65
2, 65250, Note_on_c, 0, 63, 0
2, 65250, Note_on_c, 0, 65, 67
2, 65280, Note_on_c, 0, 65, 0
2, 65280, Note_on_c, 0, 59, 67
2, 65640, Note_on_c, 0, 59, 0
2, 65640, Note_on_c, 0, 50, 69
2, 65760, Note_on_c, 0, 53, 69
2, 65780, Note_on_c, 0, 50, 0
2, 65880, Note_on_c, 0, 56, 72
2, 65900, Note_on_c, 0, 53, 0
2, 66000, Note_on_c, 0, 55, 71
2, 66020, Note_on_c, 0, 56, 0
2, 66120, Note_on_c, 0, 53, 69
2, 66140, Note_on_c, 0, 55, 0
2, 66240, Note_on_c, 0, 59, 72
2, 66260, Note_on_c, 0, 53, 0
2, 66360, Note_on_c, 0, 53, 67
2, 66380, Note_on_c, 0, 59, 0
2, 66480, Note_on_c, 0, 62, 74
2, 66500, Note_on_c, 0, 53, 0
2, 66600, Note_on_c, 0, 53, 67
2, 66620, Note_on_c, 0, 62, 0
2, 66720, Note_on_c, 0, 59, 70
2, 66740, Note_on_c, 0, 53, 0
2, 66840, Note_on_c, 0, 56, 69
2, 66860, Note_on_c, 0, 59, 0
2, 66960, Note_on_c, 0, 55, 68
2, 66980, Note_on_c, 0, 56, 0
2, 67080, Note_on_c, 0, 53, 67
2, 67100, Note_on_c, 0, 55, 0
2, 67200, Note_on_c, 0, 53, 0
2, 67200, Note_on_c, 0, 52, 72
2, 67320, Note_on_c, 0, 61, 67
2, 67340, Note_on_c, 0, 52, 0
2, 67440, Note_on_c, 0, 58, 67
2, 67460, Note_on_c, 0, 61, 0
2, 67560, Note_on_c, 0, 55, 67
2, 67580, Note_on_c, 0, 58, 0
2, 67680, Note_on_c, 0, 60, 72
2, 67700, Note_on_c, 0, 55, 0
2, 67800, Note_on_c, 0, 56, 67
2, 67820, Note_on_c, 0, 60, 0
2, 67920, Note_on_c, 0, 53, 67
2, 67940, Note_on_c, 0, 56, 0
2, 68040, Note_on_c, 0, 56, 67
2, 68060, Note_on_c, 0, 53, 0
2, 68160, Note_on_c, 0, 55, 72
2, 68180, Note_on_c, 0, 56, 0
2, 68280, Note_on_c, 0, 58, 67
2, 68300, Note_on_c, 0, 55, 0
2, 68400, Note_on_c, 0, 55, 67
2, 68420, Note_on_c, 0, 58, 0
2, 68520, Note_on_c, 0, 52, 67
2, 68540, Note_on_c, 0, 55, 0
2, 68640, Note_on_c, 0, 56, 72
2, 68660, Note_on_c, 0, 52, 0
2, 68760, Note_on_c, 0, 53, 67
2, 68780, Note_on_c, 0, 56, 0
2, 68880, Note_on_c, 0, 50, 67
2, 68900, Note_on_c, 0, 53, 0
2, 69000, Note_on_c, 0, 53, 67
2, 69020, Note_on_c, 0, 50, 0
2, 69120, Note_on_c, 0, 52, 71
2, 69140, Note_on_c, 0, 53, 0
2, 69240, Note_on_c, 0, 55, 67
2, 69260, Note_on_c, 0, 52, 0
2, 69360, Note_on_c, 0, 52, 67
2, 69380, Note_on_c, 0, 55, 0
2, 69480, Note_on_c, 0, 48, 67
2, 69500, Note_on_c, 0, 52, 0
2, 69600, Note_on_c, 0, 53, 73
2, 69620, Note_on_c, 0, 48, 0
2, 69720, Note_on_c, 0, 50, 67
2, 69740, Note_on_c, 0, 53, 0
2, 69840, Note_on_c, 0, 47, 67
2, 69860, Note_on_c, 0, 50, 0
2, 69960, Note_on_c, 0, 50, 67
2, 69980, Note_on_c, 0, 47, 0
2, 70080, Note_on_c, 0, 50, 0
2, 70440, Note_on_c, 0, 50, 67
2, 70560, Note_on_c, 0, 52, 68
2, 70580, Note_on_c, 0, 50, 0
2, 70680, Note_on_c, 0, 55, 67
2, 70700, Note_on_c, 0, 52, 0
2, 70800, Note_on_c, 0, 58, 71
2, 70820, Note_on_c, 0, 55, 0
2, 70920, Note_on_c, 0, 55, 67
2, 70940, Note_on_c, 0, 58, 0
2, 71040, Note_on_c, 0, 56, 68
2, 71060, Note_on_c, 0, 55, 0
2, 71160, Note_on_c, 0, 60, 65
2, 71180, Note_on_c, 0, 56, 0
2, 71280, Note_on_c, 0, 65, 68
2, 71300, Note_on_c, 0, 60, 0
2, 71400, Note_on_c, 0, 62, 67
2, 71420, Note_on_c, 0, 65, 0
2, 71520, Note_on_c, 0, 65, 64
2, 71540, Note_on_c, 0, 62, 0
2, 71640, Note_on_c, 0, 68, 59
2, 71660, Note_on_c, 0, 65, 0
2, 71760, Note_on_c, 0, 72, 62
2, 71780, Note_on_c, 0, 68, 0
2, 71880, Note_on_c, 0, 71, 57
2, 71900, Note_on_c, 0, 72, 0
2, 72000, Note_on_c, 0, 72, 59
2, 72020, Note_on_c, 0, 71, 0
2, 72120, Note_on_c, 0, 67, 54
2, 72140, Note_on_c, 0, 72, 0
2, 72240, Note_on_c, 0, 65, 52
2, 72260, Note_on_c, 0, 67, 0
2, 72360, Note_on_c, 0, 62, 49
2, 72380, Note_on_c, 0, 65, 0
2, 72480, Note_on_c, 0, 64, 42
2, 72500, Note_on_c, 0, 62, 0
2, 72840, Note_on_c, 0, 64, 0
2, 72840, End_track
3, 0, Start_track
3, 0, MIDI_port, 0
3, 0, Title_t, "Piano left"
3, 0, Program_c, 0, 0
3, 0, Control_c, 0, 7, 100
3, 0, Control_c, 0, 10, 64
3, 0, Control_c, 0, 91, 127
3, 0, Control_c, 0, 64, 0
3, 3, Note_on_c, 0, 48, 88
3, 123, Note_on_c, 0, 55, 73
3, 143, Note_on_c, 0, 48, 0
3, 242, Note_on_c, 0, 53, 72
3, 263, Note_on_c, 0, 55, 0
3, 362, Note_on_c, 0, 55, 72
3, 382, Note_on_c, 0, 53, 0
3, 481, Note_on_c, 0, 51, 80
3, 502, Note_on_c, 0, 55, 0
3, 600, Note_on_c, 0, 55, 72
3, 621, Note_on_c, 0, 51, 0
3, 723, Note_on_c, 0, 53, 73
3, 740, Note_on_c, 0, 55, 0
3, 839, Note_on_c, 0, 55, 73
3, 863, Note_on_c, 0, 53, 0
3, 959, Note_on_c, 0, 55, 0
3, 963, Note_on_c, 0, 48, 88
3, 1079, Note_on_c, 0, 55, 74
3, 1103, Note_on_c, 0, 48, 0
3, 1199, Note_on_c, 0, 53, 74
3, 1219, Note_on_c, 0, 55, 0
3, 1321, Note_on_c, 0, 55, 72
3, 1339, Note_on_c, 0, 53, 0
3, 1443, Note_on_c, 0, 51, 80
3, 1461, Note_on_c, 0, 55, 0
3, 1558, Note_on_c, 0, 55, 73
3, 1583, Note_on_c, 0, 51, 0
3, 1678, Note_on_c, 0, 53, 73
3, 1698, Note_on_c, 0, 55, 0
3, 1801, Note_on_c, 0, 55, 73
3, 1818, Note_on_c, 0, 53, 0
3, 1920, Note_on_c, 0, 48, 88
3, 1921, Note_on_c, 0, 55, 0
3, 2038, Note_on_c, 0, 56, 73
3, 2060, Note_on_c, 0, 48, 0
3, 2159, Note_on_c, 0, 55, 73
3, 2178, Note_on_c, 0, 56, 0
3, 2283, Note_on_c, 0, 56, 73
3, 2299, Note_on_c, 0, 55, 0
3, 2399, Note_on_c, 0, 53, 80
3, 2423, Note_on_c, 0, 56, 0
3, 2518, Note_on_c, 0, 56, 73
3, 2539, Note_on_c, 0, 53, 0
3, 2638, Note_on_c, 0, 55, 73
3, 2658, Note_on_c, 0, 56, 0
3, 2763, Note_on_c, 0, 56, 73
3, 2778, Note_on_c, 0, 55, 0
3, 2878, Note_on_c, 0, 48, 88
3, 2883, Note_on_c, 0, 56, 0
3, 2998, Note_on_c, 0, 56, 74
3, 3018, Note_on_c, 0, 48, 0
3, 3118, Note_on_c, 0, 55, 72
3, 3138, Note_on_c, 0, 56, 0
3, 3240, Note_on_c, 0, 56, 72
3, 3258, Note_on_c, 0, 55, 0
3, 3363, Note_on_c, 0, 53, 80
3, 3380, Note_on_c, 0, 56, 0
3, 3480, Note_on_c, 0, 56, 74
3, 3503, Note_on_c, 0, 53, 0
3, 3600, Note_on_c, 0, 55, 74
3, 3620, Note_on_c, 0, 56, 0
3, 3723, Note_on_c, 0, 56, 74
3, 3740, Note_on_c, 0, 55, 0
3, 3843, Note_on_c, 0, 56, 0
3, 3843, Note_on_c, 0, 48, 88
3, 3961, Note_on_c, 0, 56, 74
3, 3983, Note_on_c, 0, 48, 0
3, 4083, Note_on_c, 0, 55, 74
3, 4101, Note_on_c, 0, 56, 0
3, 4202, Note_on_c, 0, 56, 74
3, 4223, Note_on_c, 0, 55, 0
3, 4320, Note_on_c, 0, 53, 80
3, 4342, Note_on_c, 0, 56, 0
3, 4439, Note_on_c, 0, 56, 74
3, 4460, Note_on_c, 0, 53, 0
3, 4558, Note_on_c, 0, 55, 74
3, 4579, Note_on_c, 0, 56, 0
3, 4681, Note_on_c, 0, 56, 73
3, 4698, Note_on_c, 0, 55, 0
3, 4801, Note_on_c, 0, 56, 0
3, 4803, Note_on_c, 0, 48, 88
3, 4920, Note_on_c, 0, 56, 75
3, 4943, Note_on_c, 0, 48, 0
3, 5039, Note_on_c, 0, 55, 75
3, 5060, Note_on_c, 0, 56, 0
3, 5161, Note_on_c, 0, 56, 75
3, 5179, Note_on_c, 0, 55, 0
3, 5279, Note_on_c, 0, 53, 80
3, 5301, Note_on_c, 0, 56, 0
3, 5402, Note_on_c, 0, 56, 74
3, 5419, Note_on_c, 0, 53, 0
3, 5523, Note_on_c, 0, 55, 74
3, 5542, Note_on_c, 0, 56, 0
3, 5640, Note_on_c, 0, 56, 74
3, 5663, Note_on_c, 0, 55, 0
3, 5760, Note_on_c, 0, 56, 0
3, 5763, Note_on_c, 0, 48, 88
3, 5878, Note_on_c, 0, 51, 75
3, 5903, Note_on_c, 0, 48, 0
3, 6003, Note_on_c, 0, 50, 75
3, 6018, Note_on_c, 0, 51, 0
3, 6121, Note_on_c, 0, 51, 75
3, 6143, Note_on_c, 0, 50, 0
3, 6242, Note_on_c, 0, 55, 80
3, 6261, Note_on_c, 0, 51, 0
3, 6361, Note_on_c, 0, 51, 75
3, 6382, Note_on_c, 0, 55, 0
3, 6478, Note_on_c, 0, 50, 75
3, 6501, Note_on_c, 0, 51, 0
3, 6599, Note_on_c, 0, 51, 75
3, 6618, Note_on_c, 0, 50, 0
3, 6719, Note_on_c, 0, 51, 0
3, 6720, Note_on_c, 0, 48, 88
3, 6838, Note_on_c, 0, 51, 75
3, 6860, Note_on_c, 0, 48, 0
3, 6960, Note_on_c, 0, 50, 75
3, 6978, Note_on_c, 0, 51, 0
3, 7078, Note_on_c, 0, 51, 75
3, 7100, Note_on_c, 0, 50, 0
3, 7201, Note_on_c, 0, 55, 80
3, 7218, Note_on_c, 0, 51, 0
3, 7323, Note_on_c, 0, 51, 75
3, 7341, Note_on_c, 0, 55, 0
3, 7438, Note_on_c, 0, 50, 75
3, 7463, Note_on_c, 0, 51, 0
3, 7562, Note_on_c, 0, 51, 75
3, 7578, Note_on_c, 0, 50, 0
3, 7681, Note_on_c, 0, 48, 88
3, 7682, Note_on_c, 0, 51, 0
3, 7802, Note_on_c, 0, 60, 75
3, 7821, Note_on_c, 0, 48, 0
3, 7922, Note_on_c, 0, 58, 75
3, 7942, Note_on_c, 0, 60, 0
3, 8041, Note_on_c, 0, 60, 75
3, 8062, Note_on_c, 0, 58, 0
3, 8162, Note_on_c, 0, 56, 80
3, 8181, Note_on_c, 0, 60, 0
3, 8278, Note_on_c, 0, 60, 75
3, 8302, Note_on_c, 0, 56, 0
3, 8402, Note_on_c, 0, 58, 75
3, 8418, Note_on_c, 0, 60, 0
3, 8522, Note_on_c, 0, 60, 74
3, 8542, Note_on_c, 0, 58, 0
3, 8642, Note_on_c, 0, 60, 0
3, 8642, Note_on_c, 0, 48, 88
3, 8758, Note_on_c, 0, 60, 76
3, 8782, Note_on_c, 0, 48, 0
3, 8883, Note_on_c, 0, 58, 76
3, 8898, Note_on_c, 0, 60, 0
3, 9001, Note_on_c, 0, 60, 76
3, 9023, Note_on_c, 0, 58, 0
3, 9122, Note_on_c, 0, 56, 80
3, 9141, Note_on_c, 0, 60, 0
3, 9238, Note_on_c, 0, 60, 75
3, 9262, Note_on_c, 0, 56, 0
3, 9361, Note_on_c, 0, 58, 75
3, 9378, Note_on_c, 0, 60, 0
3, 9483, Note_on_c, 0, 60, 75
3, 9501, Note_on_c, 0, 58, 0
3, 9598, Note_on_c, 0, 48, 88
3, 9603, Note_on_c, 0, 60, 0
3, 9719, Note_on_c, 0, 57, 76
3, 9738, Note_on_c, 0, 48, 0
3, 9838, Note_on_c, 0, 55, 76
3, 9859, Note_on_c, 0, 57, 0
3, 9963, Note_on_c, 0, 57, 76
3, 9978, Note_on_c, 0, 55, 0
3, 10081, Note_on_c, 0, 54, 80
3, 10103, Note_on_c, 0, 57, 0
3, 10199, Note_on_c, 0, 57, 75
3, 10221, Note_on_c, 0, 54, 0
3, 10323, Note_on_c, 0, 55, 75
3, 10339, Note_on_c, 0, 57, 0
3, 10440, Note_on_c, 0, 57, 75
3, 10463, Note_on_c, 0, 55, 0
3, 10560, Note_on_c, 0, 57, 0
3, 10562, Note_on_c, 0, 48, 88
3, 10679, Note_on_c, 0, 57, 75
3, 10702, Note_on_c, 0, 48, 0
3, 10798, Note_on_c, 0, 55, 75
3, 10819, Note_on_c, 0, 57, 0
3, 10919, Note_on_c, 0, 57, 75
3, 10938, Note_on_c, 0, 55, 0
3, 11041, Note_on_c, 0, 54, 80
3, 11059, Note_on_c, 0, 57, 0
3, 11163, Note_on_c, 0, 57, 74
3, 11181, Note_on_c, 0, 54, 0
3, 11278, Note_on_c, 0, 55, 74
3, 11303, Note_on_c, 0, 57, 0
3, 11403, Note_on_c, 0, 57, 74
3, 11418, Note_on_c, 0, 55, 0
3, 11520, Note_on_c, 0, 46, 88
3, 11523, Note_on_c, 0, 57, 0
3, 11638, Note_on_c, 0, 58, 75
3, 11660, Note_on_c, 0, 46, 0
3, 11762, Note_on_c, 0, 57, 75
3, 11778, Note_on_c, 0, 58, 0
3, 11879, Note_on_c, 0, 58, 75
3, 11902, Note_on_c, 0, 57, 0
3, 12003, Note_on_c, 0, 55, 80
3, 12019, Note_on_c, 0, 58, 0
3, 12122, Note_on_c, 0, 58, 74
3, 12143, Note_on_c, 0, 55, 0
3, 12243, Note_on_c, 0, 57, 74
3, 12262, Note_on_c, 0, 58, 0
3, 12359, Note_on_c, 0, 58, 74
3, 12383, Note_on_c, 0, 57, 0
3, 12479, Note_on_c, 0, 58, 0
3, 12480, Note_on_c, 0, 46, 88
3, 12598, Note_on_c, 0, 58, 74
3, 12620, Note_on_c, 0, 46, 0
3, 12722, Note_on_c, 0, 57, 74
3, 12738, Note_on_c, 0, 58, 0
3, 12838, Note_on_c, 0, 58, 74
3, 12862, Note_on_c, 0, 57, 0
3, 12960, Note_on_c, 0, 55, 80
3, 12978, Note_on_c, 0, 58, 0
3, 13079, Note_on_c, 0, 58, 74
3, 13100, Note_on_c, 0, 55, 0
3, 13203, Note_on_c, 0, 57, 74
3, 13219, Note_on_c, 0, 58, 0
3, 13318, Note_on_c, 0, 58, 74
3, 13343, Note_on_c, 0, 57, 0
3, 13438, Note_on_c, 0, 58, 0
3, 13439, Note_on_c, 0, 46, 88
3, 13559, Note_on_c, 0, 55, 75
3, 13579, Note_on_c, 0, 46, 0
3, 13679, Note_on_c, 0, 53, 75
3, 13699, Note_on_c, 0, 55, 0
3, 13798, Note_on_c, 0, 55, 75
3, 13819, Note_on_c, 0, 53, 0
3, 13921, Note_on_c, 0, 52, 80
3, 13938, Note_on_c, 0, 55, 0
3, 14043, Note_on_c, 0, 55, 74
3, 14061, Note_on_c, 0, 52, 0
3, 14163, Note_on_c, 0, 53, 74
3, 14183, Note_on_c, 0, 55, 0
3, 14279, Note_on_c, 0, 55, 74
3, 14303, Note_on_c, 0, 53, 0
3, 14399, Note_on_c, 0, 55, 0
3, 14402, Note_on_c, 0, 46, 88
3, 14521, Note_on_c, 0, 55, 73
3, 14542, Note_on_c, 0, 46, 0
3, 14641, Note_on_c, 0, 53, 73
3, 14661, Note_on_c, 0, 55, 0
3, 14763, Note_on_c, 0, 55, 73
3, 14781, Note_on_c, 0, 53, 0
3, 14880, Note_on_c, 0, 52, 80
3, 14903, Note_on_c, 0, 55, 0
3, 15003, Note_on_c, 0, 55, 73
3, 15020, Note_on_c, 0, 52, 0
3, 15121, Note_on_c, 0, 53, 73
3, 15143, Note_on_c, 0, 55, 0
3, 15238, Note_on_c, 0, 55, 73
3, 15261, Note_on_c, 0, 53, 0
3, 15358, Note_on_c, 0, 55, 0
3, 15361, Note_on_c, 0, 44, 88
3, 15481, Note_on_c, 0, 56, 73
3, 15501, Note_on_c, 0, 44, 0
3, 15600, Note_on_c, 0, 55, 73
3, 15621, Note_on_c, 0, 56, 0
3, 15723, Note_on_c, 0, 56, 73
3, 15740, Note_on_c, 0, 55, 0
3, 15841, Note_on_c, 0, 53, 80
3, 15863, Note_on_c, 0, 56, 0
3, 15961, Note_on_c, 0, 56, 73
3, 15981, Note_on_c, 0, 53, 0
3, 16081, Note_on_c, 0, 55, 73
3, 16101, Note_on_c, 0, 56, 0
3, 16199, Note_on_c, 0, 56, 74
3, 16221, Note_on_c, 0, 55, 0
3, 16319, Note_on_c, 0, 56, 0
3, 16320, Note_on_c, 0, 44, 88
3, 16440, Note_on_c, 0, 56, 75
3, 16460, Note_on_c, 0, 44, 0
3, 16558, Note_on_c, 0, 55, 76
3, 16580, Note_on_c, 0, 56, 0
3, 16682, Note_on_c, 0, 56, 74
3, 16698, Note_on_c, 0, 55, 0
3, 16799, Note_on_c, 0, 53, 80
3, 16822, Note_on_c, 0, 56, 0
3, 16918, Note_on_c, 0, 56, 74
3, 16939, Note_on_c, 0, 53, 0
3, 17040, Note_on_c, 0, 55, 74
3, 17058, Note_on_c, 0, 56, 0
3, 17161, Note_on_c, 0, 56, 74
3, 17180, Note_on_c, 0, 55, 0
3, 17278, Note_on_c, 0, 44, 88
3, 17281, Note_on_c, 0, 56, 0
3, 17399, Note_on_c, 0, 50, 75
3, 17418, Note_on_c, 0, 44, 0
3, 17518, Note_on_c, 0, 48, 75
3, 17539, Note_on_c, 0, 50, 0
3, 17641, Note_on_c, 0, 50, 75
3, 17658, Note_on_c, 0, 48, 0
3, 17760, Note_on_c, 0, 53, 79
3, 17781, Note_on_c, 0, 50, 0
3, 17881, Note_on_c, 0, 50, 74
3, 17900, Note_on_c, 0, 53, 0
3, 18002, Note_on_c, 0, 48, 74
3, 18021, Note_on_c, 0, 50, 0
3, 18120, Note_on_c, 0, 50, 74
3, 18142, Note_on_c, 0, 48, 0
3, 18240, Note_on_c, 0, 50, 0
3, 18242, Note_on_c, 0, 44, 86
3, 18360, Note_on_c, 0, 50, 73
3, 18382, Note_on_c, 0, 44, 0
3, 18483, Note_on_c, 0, 48, 72
3, 18500, Note_on_c, 0, 50, 0
3, 18601, Note_on_c, 0, 50, 77
3, 18623, Note_on_c, 0, 48, 0
3, 18719, Note_on_c, 0, 53, 77
3, 18741, Note_on_c, 0, 50, 0
3, 18843, Note_on_c, 0, 50, 72
3, 18859, Note_on_c, 0, 53, 0
3, 18963, Note_on_c, 0, 48, 72
3, 18983, Note_on_c, 0, 50, 0
3, 19080, Note_on_c, 0, 50, 72
3, 19103, Note_on_c, 0, 48, 0
3, 19200, Note_on_c, 0, 50, 0
3, 19203, Note_on_c, 0, 43, 83
3, 19319, Note_on_c, 0, 51, 72
3, 19343, Note_on_c, 0, 43, 0
3, 19443, Note_on_c, 0, 50, 72
3, 19459, Note_on_c, 0, 51, 0
3, 19561, Note_on_c, 0, 51, 72
3, 19583, Note_on_c, 0, 50, 0
3, 19680, Note_on_c, 0, 55, 75
3, 19701, Note_on_c, 0, 51, 0
3, 19801, Note_on_c, 0, 51, 70
3, 19820, Note_on_c, 0, 55, 0
3, 19922, Note_on_c, 0, 50, 70
3, 19941, Note_on_c, 0, 51, 0
3, 20038, Note_on_c, 0, 51, 70
3, 20062, Note_on_c, 0, 50, 0
3, 20158, Note_on_c, 0, 51, 0
3, 20159, Note_on_c, 0, 43, 81
3, 20279, Note_on_c, 0, 51, 69
3, 20299, Note_on_c, 0, 43, 0
3, 20400, Note_on_c, 0, 50, 69
3, 20419, Note_on_c, 0, 51, 0
3, 20523, Note_on_c, 0, 51, 69
3, 20540, Note_on_c, 0, 50, 0
3, 20642, Note_on_c, 0, 55, 73
3, 20663, Note_on_c, 0, 51, 0
3, 20762, Note_on_c, 0, 51, 67
3, 20782, Note_on_c, 0, 55, 0
3, 20883, Note_on_c, 0, 50, 66
3, 20902, Note_on_c, 0, 51, 0
3, 21000, Note_on_c, 0, 51, 66
3, 21023, Note_on_c, 0, 50, 0
3, 21120, Note_on_c, 0, 51, 0
3, 21120, Note_on_c, 0, 48, 79
3, 21243, Note_on_c, 0, 51, 69
3, 21260, Note_on_c, 0, 48, 0
3, 21359, Note_on_c, 0, 50, 69
3, 21383, Note_on_c, 0, 51, 0
3, 21480, Note_on_c, 0, 51, 65
3, 21499, Note_on_c, 0, 50, 0
3, 21601, Note_on_c, 0, 56, 71
3, 21620, Note_on_c, 0, 51, 0
3, 21720, Note_on_c, 0, 51, 65
3, 21741, Note_on_c, 0, 56, 0
3, 21842, Note_on_c, 0, 50, 63
3, 21860, Note_on_c, 0, 51, 0
3, 21962, Note_on_c, 0, 51, 63
3, 21982, Note_on_c, 0, 50, 0
3, 22082, Note_on_c, 0, 51, 0
3, 22082, Note_on_c, 0, 48, 77
3, 22202, Note_on_c, 0, 51, 64
3, 22222, Note_on_c, 0, 48, 0
3, 22318, Note_on_c, 0, 50, 64
3, 22342, Note_on_c, 0, 51, 0
3, 22439, Note_on_c, 0, 51, 64
3, 22458, Note_on_c, 0, 50, 0
3, 22559, Note_on_c, 0, 56, 69
3, 22579, Note_on_c, 0, 51, 0
3, 22682, Note_on_c, 0, 51, 61
3, 22699, Note_on_c, 0, 56, 0
3, 22803, Note_on_c, 0, 50, 61
3, 22822, Note_on_c, 0, 51, 0
3, 22920, Note_on_c, 0, 51, 61
3, 22943, Note_on_c, 0, 50, 0
3, 23040, Note_on_c, 0, 51, 0
3, 23041, Note_on_c, 0, 50, 74
3, 23158, Note_on_c, 0, 53, 59
3, 23181, Note_on_c, 0, 50, 0
3, 23283, Note_on_c, 0, 51, 60
3, 23298, Note_on_c, 0, 53, 0
3, 23399, Note_on_c, 0, 53, 59
3, 23423, Note_on_c, 0, 51, 0
3, 23521, Note_on_c, 0, 56, 66
3, 23539, Note_on_c, 0, 53, 0
3, 23641, Note_on_c, 0, 53, 59
3, 23661, Note_on_c, 0, 56, 0
3, 23760, Note_on_c, 0, 51, 59
3, 23781, Note_on_c, 0, 53, 0
3, 23882, Note_on_c, 0, 53, 59
3, 23900, Note_on_c, 0, 51, 0
3, 23998, Note_on_c, 0, 50, 73
3, 24002, Note_on_c, 0, 53, 0
3, 24118, Note_on_c, 0, 53, 56
3, 24138, Note_on_c, 0, 50, 0
3, 24238, Note_on_c, 0, 51, 55
3, 24258, Note_on_c, 0, 53, 0
3, 24358, Note_on_c, 0, 53, 55
3, 24378, Note_on_c, 0, 51, 0
3, 24480, Note_on_c, 0, 56, 61
3, 24498, Note_on_c, 0, 53, 0
3, 24599, Note_on_c, 0, 53, 56
3, 24620, Note_on_c, 0, 56, 0
3, 24722, Note_on_c, 0, 51, 56
3, 24739, Note_on_c, 0, 53, 0
3, 24838, Note_on_c, 0, 53, 56
3, 24862, Note_on_c, 0, 51, 0
3, 24958, Note_on_c, 0, 53, 0
3, 24960, Note_on_c, 0, 51, 70
3, 25078, Note_on_c, 0, 55, 53
3, 25100, Note_on_c, 0, 51, 0
3, 25202, Note_on_c, 0, 53, 53
3, 25218, Note_on_c, 0, 55, 0
3, 25322, Note_on_c, 0, 55, 53
3, 25342, Note_on_c, 0, 53, 0
3, 25439, Note_on_c, 0, 56, 57
3, 25462, Note_on_c, 0, 55, 0
3, 25562, Note_on_c, 0, 55, 53
3, 25579, Note_on_c, 0, 56, 0
3, 25681, Note_on_c, 0, 53, 53
3, 25702, Note_on_c, 0, 55, 0
3, 25801, Note_on_c, 0, 55, 53
3, 25821, Note_on_c, 0, 53, 0
3, 25921, Note_on_c, 0, 55, 0
3, 25921, Note_on_c, 0, 51, 70
3, 26038, Note_on_c, 0, 55, 53
3, 26061, Note_on_c, 0, 51, 0
3, 26161, Note_on_c, 0, 53, 53
3, 26178, Note_on_c, 0, 55, 0
3, 26278, Note_on_c, 0, 55, 53
3, 26301, Note_on_c, 0, 53, 0
3, 26403, Note_on_c, 0, 56, 56
3, 26418, Note_on_c, 0, 55, 0
3, 26520, Note_on_c, 0, 55, 52
3, 26543, Note_on_c, 0, 56, 0
3, 26643, Note_on_c, 0, 53, 52
3, 26660, Note_on_c, 0, 55, 0
3, 26762, Note_on_c, 0, 55, 52
3, 26783, Note_on_c, 0, 53, 0
3, 26881, Note_on_c, 0, 51, 70
3, 26882, Note_on_c, 0, 55, 0
3, 27002, Note_on_c, 0, 57, 52
3, 27021, Note_on_c, 0, 51, 0
3, 27122, Note_on_c, 0, 55, 52
3, 27142, Note_on_c, 0, 57, 0
3, 27240, Note_on_c, 0, 57, 52
3, 27262, Note_on_c, 0, 55, 0
3, 27358, Note_on_c, 0, 57, 0
3, 27360, Note_on_c, 0, 53, 55
3, 27478, Note_on_c, 0, 57, 52
3, 27500, Note_on_c, 0, 53, 0
3, 27602, Note_on_c, 0, 55, 52
3, 27618, Note_on_c, 0, 57, 0
3, 27719, Note_on_c, 0, 57, 52
3, 27742, Note_on_c, 0, 55, 0
3, 27838, Note_on_c, 0, 51, 70
3, 27839, Note_on_c, 0, 57, 0
3, 27959, Note_on_c, 0, 57, 51
3, 27978, Note_on_c, 0, 51, 0
3, 28082, Note_on_c, 0, 55, 51
3, 28099, Note_on_c, 0, 57, 0
3, 28199, Note_on_c, 0, 57, 51
3, 28222, Note_on_c, 0, 55, 0
3, 28317, Note_on_c, 0, 57, 0
3, 28319, Note_on_c, 0, 53, 56
3, 28440, Note_on_c, 0, 57, 51
3, 28459, Note_on_c, 0, 53, 0
3, 28558, Note_on_c, 0, 55, 51
3, 28580, Note_on_c, 0, 57, 0
3, 28680, Note_on_c, 0, 57, 51
3, 28698, Note_on_c, 0, 55, 0
3, 28800, Note_on_c, 0, 57, 0
3, 28801, Note_on_c, 0, 50, 70
3, 28921, Note_on_c, 0, 53, 52
3, 28941, Note_on_c, 0, 50, 0
3, 29042, Note_on_c, 0, 51, 52
3, 29061, Note_on_c, 0, 53, 0
3, 29160, Note_on_c, 0, 53, 52
3, 29182, Note_on_c, 0, 51, 0
3, 29280, Note_on_c, 0, 56, 58
3, 29300, Note_on_c, 0, 53, 0
3, 29403, Note_on_c, 0, 53, 52
3, 29420, Note_on_c, 0, 56, 0
3, 29523, Note_on_c, 0, 51, 52
3, 29543, Note_on_c, 0, 53, 0
3, 29641, Note_on_c, 0, 53, 52
3, 29663, Note_on_c, 0, 51, 0
3, 29761, Note_on_c, 0, 53, 0
3, 29763, Note_on_c, 0, 50, 70
3, 29878, Note_on_c, 0, 53, 54
3, 29903, Note_on_c, 0, 50, 0
3, 30001, Note_on_c, 0, 51, 54
3, 30018, Note_on_c, 0, 53, 0
3, 30123, Note_on_c, 0, 53, 54
3, 30141, Note_on_c, 0, 51, 0
3, 30240, Note_on_c, 0, 56, 60
3, 30263, Note_on_c, 0, 53, 0
3, 30359, Note_on_c, 0, 53, 53
3, 30380, Note_on_c, 0, 56, 0
3, 30479, Note_on_c, 0, 51, 54
3, 30499, Note_on_c, 0, 53, 0
3, 30598, Note_on_c, 0, 53, 54
3, 30619, Note_on_c, 0, 51, 0
3, 30718, Note_on_c, 0, 53, 0
3, 30721, Note_on_c, 0, 48, 70
3, 30840, Note_on_c, 0, 53, 52
3, 30861, Note_on_c, 0, 48, 0
3, 30958, Note_on_c, 0, 52, 52
3, 30980, Note_on_c, 0, 53, 0
3, 31078, Note_on_c, 0, 53, 52
3, 31098, Note_on_c, 0, 52, 0
3, 31200, Note_on_c, 0, 56, 60
3, 31218, Note_on_c, 0, 53, 0
3, 31323, Note_on_c, 0, 53, 53
3, 31340, Note_on_c, 0, 56, 0
3, 31443, Note_on_c, 0, 52, 53
3, 31463, Note_on_c, 0, 53, 0
3, 31560, Note_on_c, 0, 53, 53
3, 31583, Note_on_c, 0, 52, 0
3, 31680, Note_on_c, 0, 53, 0
3, 31682, Note_on_c, 0, 48, 70
3, 31801, Note_on_c, 0, 53, 53
3, 31822, Note_on_c, 0, 48, 0
3, 31922, Note_on_c, 0, 52, 53
3, 31941, Note_on_c, 0, 53, 0
3, 32043, Note_on_c, 0, 53, 53
3, 32062, Note_on_c, 0, 52, 0
3, 32161, Note_on_c, 0, 56, 60
3, 32183, Note_on_c, 0, 53, 0
3, 32281, Note_on_c, 0, 53, 53
3, 32301, Note_on_c, 0, 56, 0
3, 32398, Note_on_c, 0, 52, 53
3, 32421, Note_on_c, 0, 53, 0
3, 32522, Note_on_c, 0, 53, 53
3, 32538, Note_on_c, 0, 52, 0
3, 32640, Note_on_c, 0, 48, 70
3, 32642, Note_on_c, 0, 53, 0
3, 32761, Note_on_c, 0, 51, 54
3, 32780, Note_on_c, 0, 48, 0
3, 32881, Note_on_c, 0, 50, 54
3, 32901, Note_on_c, 0, 51, 0
3, 33001, Note_on_c, 0, 51, 54
3, 33021, Note_on_c, 0, 50, 0
3, 33122, Note_on_c, 0, 53, 60
3, 33141, Note_on_c, 0, 51, 0
3, 33242, Note_on_c, 0, 51, 54
3, 33262, Note_on_c, 0, 53, 0
3, 33360, Note_on_c, 0, 50, 54
3, 33382, Note_on_c, 0, 51, 0
3, 33478, Note_on_c, 0, 51, 54
3, 33500, Note_on_c, 0, 50, 0
3, 33598, Note_on_c, 0, 51, 0
3, 33599, Note_on_c, 0, 46, 70
3, 33720, Note_on_c, 0, 51, 54
3, 33739, Note_on_c, 0, 46, 0
3, 33839, Note_on_c, 0, 50, 54
3, 33860, Note_on_c, 0, 51, 0
3, 33962, Note_on_c, 0, 51, 54
3, 33979, Note_on_c, 0, 50, 0
3, 34080, Note_on_c, 0, 53, 61
3, 34102, Note_on_c, 0, 51, 0
3, 34203, Note_on_c, 0, 51, 53
3, 34220, Note_on_c, 0, 53, 0
3, 34318, Note_on_c, 0, 50, 53
3, 34343, Note_on_c, 0, 51, 0
3, 34442, Note_on_c, 0, 51, 53
3, 34458, Note_on_c, 0, 50, 0
3, 34561, Note_on_c, 0, 44, 70
3, 34562, Note_on_c, 0, 51, 0
3, 34683, Note_on_c, 0, 48, 54
3, 34701, Note_on_c, 0, 44, 0
3, 34799, Note_on_c, 0, 47, 53
3, 34823, Note_on_c, 0, 48, 0
3, 34921, Note_on_c, 0, 48, 53
3, 34939, Note_on_c, 0, 47, 0
3, 35043, Note_on_c, 0, 50, 64
3, 35061, Note_on_c, 0, 48, 0
3, 35162, Note_on_c, 0, 48, 54
3, 35183, Note_on_c, 0, 50, 0
3, 35283, Note_on_c, 0, 47, 54
3, 35302, Note_on_c, 0, 48, 0
3, 35399, Note_on_c, 0, 48, 54
3, 35423, Note_on_c, 0, 47, 0
3, 35519, Note_on_c, 0, 48, 0
3, 35523, Note_on_c, 0, 44, 70
3, 35642, Note_on_c, 0, 48, 55
3, 35663, Note_on_c, 0, 44, 0
3, 35763, Note_on_c, 0, 47, 55
3, 35782, Note_on_c, 0, 48, 0
3, 35883, Note_on_c, 0, 48, 55
3, 35903, Note_on_c, 0, 47, 0
3, 36003, Note_on_c, 0, 50, 64
3, 36023, Note_on_c, 0, 48, 0
3, 36121, Note_on_c, 0, 48, 56
3, 36143, Note_on_c, 0, 50, 0
3, 36239, Note_on_c, 0, 47, 56
3, 36261, Note_on_c, 0, 48, 0
3, 36361, Note_on_c, 0, 48, 56
3, 36379, Note_on_c, 0, 47, 0
3, 36479, Note_on_c, 0, 45, 70
3, 36481, Note_on_c, 0, 48, 0
3, 36599, Note_on_c, 0, 51, 56
3, 36619, Note_on_c, 0, 45, 0
3, 36722, Note_on_c, 0, 50, 56
3, 36739, Note_on_c, 0, 51, 0
3, 36842, Note_on_c, 0, 51, 56
3, 36862, Note_on_c, 0, 50, 0
3, 36959, Note_on_c, 0, 48, 64
3, 36982, Note_on_c, 0, 51, 0
3, 37082, Note_on_c, 0, 51, 56
3, 37099, Note_on_c, 0, 48, 0
3, 37200, Note_on_c, 0, 50, 56
3, 37222, Note_on_c, 0, 51, 0
3, 37318, Note_on_c, 0, 51, 56
3, 37340, Note_on_c, 0, 50, 0
3, 37438, Note_on_c, 0, 51, 0
3, 37442, Note_on_c, 0, 45, 70
3, 37563, Note_on_c, 0, 51, 57
3, 37582, Note_on_c, 0, 45, 0
3, 37678, Note_on_c, 0, 50, 58
3, 37703, Note_on_c, 0, 51, 0
3, 37799, Note_on_c, 0, 51, 58
3, 37818, Note_on_c, 0, 50, 0
3, 37921, Note_on_c, 0, 48, 64
3, 37939, Note_on_c, 0, 51, 0
3, 38040, Note_on_c, 0, 51, 56
3, 38061, Note_on_c, 0, 48, 0
3, 38162, Note_on_c, 0, 50, 56
3, 38180, Note_on_c, 0, 51, 0
3, 38279, Note_on_c, 0, 51, 56
3, 38302, Note_on_c, 0, 50, 0
3, 38399, Note_on_c, 0, 51, 0
3, 38402, Note_on_c, 0, 43, 70
3, 38523, Note_on_c, 0, 51, 56
3, 38542, Note_on_c, 0, 43, 0
3, 38638, Note_on_c, 0, 50, 56
3, 38663, Note_on_c, 0, 51, 0
3, 38761, Note_on_c, 0, 51, 56
3, 38778, Note_on_c, 0, 50, 0
3, 38882, Note_on_c, 0, 53, 64
3, 38901, Note_on_c, 0, 51, 0
3, 38999, Note_on_c, 0, 51, 56
3, 39022, Note_on_c, 0, 53, 0
3, 39118, Note_on_c, 0, 50, 56
3, 39139, Note_on_c, 0, 51, 0
3, 39239, Note_on_c, 0, 51, 56
3, 39258, Note_on_c, 0, 50, 0
3, 39359, Note_on_c, 0, 51, 0
3, 39362, Note_on_c, 0, 43, 70
3, 39483, Note_on_c, 0, 51, 57
3, 39502, Note_on_c, 0, 43, 0
3, 39601, Note_on_c, 0, 50, 57
3, 39623, Note_on_c, 0, 51, 0
3, 39720, Note_on_c, 0, 51, 57
3, 39741, Note_on_c, 0, 50, 0
3, 39842, Note_on_c, 0, 53, 64
3, 39860, Note_on_c, 0, 51, 0
3, 39959, Note_on_c, 0, 51, 57
3, 39982, Note_on_c, 0, 53, 0
3, 40081, Note_on_c, 0, 50, 57
3, 40099, Note_on_c, 0, 51, 0
3, 40199, Note_on_c, 0, 51, 57
3, 40221, Note_on_c, 0, 50, 0
3, 40319, Note_on_c, 0, 51, 0
3, 40319, Note_on_c, 0, 43, 70
3, 40443, Note_on_c, 0, 51, 56
3, 40459, Note_on_c, 0, 43, 0
3, 40559, Note_on_c, 0, 50, 56
3, 40583, Note_on_c, 0, 51, 0
3, 40678, Note_on_c, 0, 51, 56
3, 40699, Note_on_c, 0, 50, 0
3, 40802, Note_on_c, 0, 48, 64
3, 40818, Note_on_c, 0, 51, 0
3, 40918, Note_on_c, 0, 51, 56
3, 40942, Note_on_c, 0, 48, 0
3, 41038, Note_on_c, 0, 50, 56
3, 41058, Note_on_c, 0, 51, 0
3, 41158, Note_on_c, 0, 51, 56
3, 41178, Note_on_c, 0, 50, 0
3, 41278, Note_on_c, 0, 51, 0
3, 41280, Note_on_c, 0, 43, 71
3, 41401, Note_on_c, 0, 51, 56
3, 41420, Note_on_c, 0, 43, 0
3, 41520, Note_on_c, 0, 50, 56
3, 41541, Note_on_c, 0, 51, 0
3, 41640, Note_on_c, 0, 51, 56
3, 41660, Note_on_c, 0, 50, 0
3, 41760, Note_on_c, 0, 48, 65
3, 41780, Note_on_c, 0, 51, 0
3, 41878, Note_on_c, 0, 51, 56
3, 41900, Note_on_c, 0, 48, 0
3, 42001, Note_on_c, 0, 50, 57
3, 42018, Note_on_c, 0, 51, 0
3, 42122, Note_on_c, 0, 51, 57
3, 42141, Note_on_c, 0, 50, 0
3, 42240, Note_on_c, 0, 43, 73
3, 42242, Note_on_c, 0, 51, 0
3, 42361, Note_on_c, 0, 51, 58
3, 42380, Note_on_c, 0, 43, 0
3, 42483, Note_on_c, 0, 50, 58
3, 42501, Note_on_c, 0, 51, 0
3, 42601, Note_on_c, 0, 51, 58
3, 42623, Note_on_c, 0, 50, 0
3, 42721, Note_on_c, 0, 53, 66
3, 42741, Note_on_c, 0, 51, 0
3, 42838, Note_on_c, 0, 51, 58
3, 42861, Note_on_c, 0, 53, 0
3, 42960, Note_on_c, 0, 50, 58
3, 42978, Note_on_c, 0, 51, 0
3, 43079, Note_on_c, 0, 51, 58
3, 43100, Note_on_c, 0, 50, 0
3, 43199, Note_on_c, 0, 51, 0
3, 43200, Note_on_c, 0, 43, 73
3, 43323, Note_on_c, 0, 51, 58
3, 43340, Note_on_c, 0, 43, 0
3, 43440, Note_on_c, 0, 50, 58
3, 43463, Note_on_c, 0, 51, 0
3, 43558, Note_on_c, 0, 51, 58
3, 43580, Note_on_c, 0, 50, 0
3, 43681, Note_on_c, 0, 53, 67
3, 43698, Note_on_c, 0, 51, 0
3, 43802, Note_on_c, 0, 51, 58
3, 43821, Note_on_c, 0, 53, 0
3, 43922, Note_on_c, 0, 50, 58
3, 43942, Note_on_c, 0, 51, 0
3, 44043, Note_on_c, 0, 51, 58
3, 44062, Note_on_c, 0, 50, 0
3, 44163, Note_on_c, 0, 51, 0
3, 44163, Note_on_c, 0, 43, 75
3, 44279, Note_on_c, 0, 51, 59
3, 44303, Note_on_c, 0, 43, 0
3, 44403, Note_on_c, 0, 50, 59
3, 44419, Note_on_c, 0, 51, 0
3, 44521, Note_on_c, 0, 51, 59
3, 44543, Note_on_c, 0, 50, 0
3, 44642, Note_on_c, 0, 53, 68
3, 44661, Note_on_c, 0, 51, 0
3, 44762, Note_on_c, 0, 51, 58
3, 44782, Note_on_c, 0, 53, 0
3, 44882, Note_on_c, 0, 50, 58
3, 44902, Note_on_c, 0, 51, 0
3, 45003, Note_on_c, 0, 51, 59
3, 45022, Note_on_c, 0, 50, 0
3, 45123, Note_on_c, 0, 51, 0
3, 45123, Note_on_c, 0, 43, 75
3, 45243, Note_on_c, 0, 51, 60
3, 45263, Note_on_c, 0, 43, 0
3, 45361, Note_on_c, 0, 50, 60
3, 45383, Note_on_c, 0, 51, 0
3, 45480, Note_on_c, 0, 51, 60
3, 45501, Note_on_c, 0, 50, 0
3, 45598, Note_on_c, 0, 53, 69
3, 45620, Note_on_c, 0, 51, 0
3, 45720, Note_on_c, 0, 51, 61
3, 45738, Note_on_c, 0, 53, 0
3, 45842, Note_on_c, 0, 50, 61
3, 45860, Note_on_c, 0, 51, 0
3, 45960, Note_on_c, 0, 51, 61
3, 45982, Note_on_c, 0, 50, 0
3, 46080, Note_on_c, 0, 51, 0
3, 46080, Note_on_c, 0, 43, 65
3, 46200, Note_on_c, 0, 47, 68
3, 46220, Note_on_c, 0, 43, 0
3, 46320, Note_on_c, 0, 50, 71
3, 46340, Note_on_c, 0, 47, 0
3, 46460, Note_on_c, 0, 50, 0
3, 48000, Note_on_c, 0, 43, 64
3, 48120, Note_on_c, 0, 48, 66
3, 48140, Note_on_c, 0, 43, 0
3, 48240, Note_on_c, 0, 51, 68
3, 48260, Note_on_c, 0, 48, 0
3, 48380, Note_on_c, 0, 51, 0
3, 49920, Note_on_c, 0, 43, 67
3, 50040, Note_on_c, 0, 45, 70
3, 50060, Note_on_c, 0, 43, 0
3, 50160, Note_on_c, 0, 54, 70
3, 50180, Note_on_c, 0, 45, 0
3, 50300, Note_on_c, 0, 54, 0
3, 51840, Note_on_c, 0, 43, 67
3, 53880, Note_on_c, 0, 43, 0
3, 53880, Note_on_c, 0, 62, 60
3, 54000, Note_on_c, 0, 60, 60
3, 54020, Note_on_c, 0, 62, 0
3, 54120, Note_on_c, 0, 62, 61
3, 54140, Note_on_c, 0, 60, 0
3, 54240, Note_on_c, 0, 63, 70
3, 54260, Note_on_c, 0, 62, 0
3, 54360, Note_on_c, 0, 60, 67
3, 54380, Note_on_c, 0, 63, 0
3, 54480, Note_on_c, 0, 59, 60
3, 54500, Note_on_c, 0, 60, 0
3, 54600, Note_on_c, 0, 60, 60
3, 54620, Note_on_c, 0, 59, 0
3, 54720, Note_on_c, 0, 60, 0
3, 54720, Note_on_c, 0, 57, 75
3, 54840, Note_on_c, 0, 60, 61
3, 54860, Note_on_c, 0, 57, 0
3, 54960, Note_on_c, 0, 59, 61
3, 54980, Note_on_c, 0, 60, 0
3, 55080, Note_on_c, 0, 60, 61
3, 55100, Note_on_c, 0, 59, 0
3, 55200, Note_on_c, 0, 62, 70
3, 55220, Note_on_c, 0, 60, 0
3, 55320, Note_on_c, 0, 59, 61
3, 55340, Note_on_c, 0, 62, 0
3, 55440, Note_on_c, 0, 57, 61
3, 55460, Note_on_c, 0, 59, 0
3, 55560, Note_on_c, 0, 59, 61
3, 55580, Note_on_c, 0, 57, 0
3, 55680, Note_on_c, 0, 59, 0
3, 55680, Note_on_c, 0, 55, 74
3, 55800, Note_on_c, 0, 59, 61
3, 55820, Note_on_c, 0, 55, 0
3, 55920, Note_on_c, 0, 57, 61
3, 55940, Note_on_c, 0, 59, 0
3, 56040, Note_on_c, 0, 59, 61
3, 56060, Note_on_c, 0, 57, 0
3, 56160, Note_on_c, 0, 60, 71
3, 56180, Note_on_c, 0, 59, 0
3, 56280, Note_on_c, 0, 56, 61
3, 56300, Note_on_c, 0, 60, 0
3, 56400, Note_on_c, 0, 55, 61
3, 56420, Note_on_c, 0, 56, 0
3, 56520, Note_on_c, 0, 56, 61
3, 56540, Note_on_c, 0, 55, 0
3, 56640, Note_on_c, 0, 56, 0
3, 56640, Note_on_c, 0, 53, 74
3, 56760, Note_on_c, 0, 57, 63
3, 56780, Note_on_c, 0, 53, 0
3, 56880, Note_on_c, 0, 55, 63
3, 56900, Note_on_c, 0, 57, 0
3, 57000, Note_on_c, 0, 57, 63
3, 57020, Note_on_c, 0, 55, 0
3, 57120, Note_on_c, 0, 59, 71
3, 57140, Note_on_c, 0, 57, 0
3, 57240, Note_on_c, 0, 55, 62
3, 57260, Note_on_c, 0, 59, 0
3, 57360, Note_on_c, 0, 53, 62
3, 57380, Note_on_c, 0, 55, 0
3, 57480, Note_on_c, 0, 55, 62
3, 57500, Note_on_c, 0, 53, 0
3, 57600, Note_on_c, 0, 55, 0
3, 57600, Note_on_c, 0, 51, 76
3, 57720, Note_on_c, 0, 67, 63
3, 57740, Note_on_c, 0, 51, 0
3, 57840, Note_on_c, 0, 65, 63
3, 57860, Note_on_c, 0, 67, 0
3, 57960, Note_on_c, 0, 67, 63
3, 57980, Note_on_c, 0, 65, 0
3, 58080, Note_on_c, 0, 68, 71
3, 58100, Note_on_c, 0, 67, 0
3, 58200, Note_on_c, 0, 65, 63
3, 58220, Note_on_c, 0, 68, 0
3, 58320, Note_on_c, 0, 63, 63
3, 58340, Note_on_c, 0, 65, 0
3, 58440, Note_on_c, 0, 65, 63
3, 58460, Note_on_c, 0, 63, 0
3, 58560, Note_on_c, 0, 65, 0
3, 58560, Note_on_c, 0, 62, 76
3, 58680, Note_on_c, 0, 65, 64
3, 58700, Note_on_c, 0, 62, 0
3, 58800, Note_on_c, 0, 63, 65
3, 58820, Note_on_c, 0, 65, 0
3, 58920, Note_on_c, 0, 65, 63
3, 58940, Note_on_c, 0, 63, 0
3, 59040, Note_on_c, 0, 67, 71
3, 59060, Note_on_c, 0, 65, 0
3, 59160, Note_on_c, 0, 63, 63
3, 59180, Note_on_c, 0, 67, 0
3, 59280, Note_on_c, 0, 62, 62
3, 59300, Note_on_c, 0, 63, 0
3, 59400, Note_on_c, 0, 63, 62
3, 59420, Note_on_c, 0, 62, 0
3, 59520, Note_on_c, 0, 63, 0
3, 59520, Note_on_c, 0, 60, 74
3, 59640, Note_on_c, 0, 63, 63
3, 59660, Note_on_c, 0, 60, 0
3, 59760, Note_on_c, 0, 62, 63
3, 59780, Note_on_c, 0, 63, 0
3, 59880, Note_on_c, 0, 63, 63
3, 59900, Note_on_c, 0, 62, 0
3, 60000, Note_on_c, 0, 65, 77
3, 60020, Note_on_c, 0, 63, 0
3, 60120, Note_on_c, 0, 62, 60
3, 60140, Note_on_c, 0, 65, 0
3, 60240, Note_on_c, 0, 60, 60
3, 60260, Note_on_c, 0, 62, 0
3, 60360, Note_on_c, 0, 62, 61
3, 60380, Note_on_c, 0, 60, 0
3, 60480, Note_on_c, 0, 62, 0
3, 60480, Note_on_c, 0, 63, 77
3, 60600, Note_on_c, 0, 60, 62
3, 60620, Note_on_c, 0, 63, 0
3, 60720, Note_on_c, 0, 59, 63
3, 60740, Note_on_c, 0, 60, 0
3, 60840, Note_on_c, 0, 60, 63
3, 60860, Note_on_c, 0, 59, 0
3, 60960, Note_on_c, 0, 62, 77
3, 60980, Note_on_c, 0, 60, 0
3, 61080, Note_on_c, 0, 59, 63
3, 61100, Note_on_c, 0, 62, 0
3, 61200, Note_on_c, 0, 57, 63
3, 61220, Note_on_c, 0, 59, 0
3, 61320, Note_on_c, 0, 59, 62
3, 61340, Note_on_c, 0, 57, 0
3, 61440, Note_on_c, 0, 59, 0
3, 61440, Note_on_c, 0, 60, 77
3, 61560, Note_on_c, 0, 63, 60
3, 61580, Note_on_c, 0, 60, 0
3, 61680, Note_on_c, 0, 62, 60
3, 61700, Note_on_c, 0, 63, 0
3, 61800, Note_on_c, 0, 63, 61
3, 61820, Note_on_c, 0, 62, 0
3, 61920, Note_on_c, 0, 53, 77
3, 61940, Note_on_c, 0, 63, 0
3, 62040, Note_on_c, 0, 62, 62
3, 62060, Note_on_c, 0, 53, 0
3, 62160, Note_on_c, 0, 60, 62
3, 62180, Note_on_c, 0, 62, 0
3, 62280, Note_on_c, 0, 62, 62
3, 62300, Note_on_c, 0, 60, 0
3, 62400, Note_on_c, 0, 62, 0
3, 62400, Note_on_c, 0, 51, 77
3, 62520, Note_on_c, 0, 60, 62
3, 62540, Note_on_c, 0, 51, 0
3, 62640, Note_on_c, 0, 59, 62
3, 62660, Note_on_c, 0, 60, 0
3, 62760, Note_on_c, 0, 60, 62
3, 62780, Note_on_c, 0, 59, 0
3, 62880, Note_on_c, 0, 50, 77
3, 62900, Note_on_c, 0, 60, 0
3, 63000, Note_on_c, 0, 59, 61
3, 63020, Note_on_c, 0, 50, 0
3, 63120, Note_on_c, 0, 57, 61
3, 63140, Note_on_c, 0, 59, 0
3, 63240, Note_on_c, 0, 59, 61
3, 63260, Note_on_c, 0, 57, 0
3, 63360, Note_on_c, 0, 59, 0
3, 63360, Note_on_c, 0, 48, 67
3, 63375, Note_on_c, 0, 55, 67
3, 63390, Note_on_c, 0, 58, 67
3, 63840, Note_on_c, 0, 58, 0
3, 63840, Note_on_c, 0, 55, 0
3, 63840, Note_on_c, 0, 48, 0
3, 64320, Note_on_c, 0, 48, 67
3, 64335, Note_on_c, 0, 53, 67
3, 64350, Note_on_c, 0, 56, 67
3, 64800, Note_on_c, 0, 56, 0
3, 64800, Note_on_c, 0, 53, 0
3, 64800, Note_on_c, 0, 48, 0
3, 65400, Note_on_c, 0, 36, 60
3, 65520, Note_on_c, 0, 47, 65
3, 65540, Note_on_c, 0, 36, 0
3, 67200, Note_on_c, 0, 47, 0
3, 70080, Note_on_c, 0, 36, 72
3, 70200, Note_on_c, 0, 43, 67
3, 70320, Note_on_c, 0, 48, 67
3, 70340, Note_on_c, 0, 43, 0
3, 72840, Note_on_c, 0, 48, 0
3, 72840, Note_on_c, 0, 36, 0
3, 72840, End_track
4, 0, Start_track
4, 0, MIDI_port, 0
4, 0, Title_t, "Fuga 1"
4, 0, Program_c, 0, 0
4, 0, Control_c, 0, 7, 100
4, 0, Control_c, 0, 10, 64
4, 72960, Control_c, 0, 91, 127
4, 76800, Control_c, 0, 91, 127
4, 77040, Note_on_c, 0, 79, 81
4, 77160, Note_on_c, 0, 79, 0
4, 77160, Note_on_c, 0, 78, 81
4, 77280, Note_on_c, 0, 78, 0
4, 77280, Note_on_c, 0, 79, 86
4, 77400, Note_on_c, 0, 79, 0
4, 77520, Note_on_c, 0, 72, 71
4, 77760, Note_on_c, 0, 72, 0
4, 77760, Note_on_c, 0, 75, 72
4, 77880, Note_on_c, 0, 75, 0
4, 78000, Note_on_c, 0, 79, 81
4, 78120, Note_on_c, 0, 79, 0
4, 78120, Note_on_c, 0, 78, 81
4, 78240, Note_on_c, 0, 78, 0
4, 78240, Note_on_c, 0, 79, 86
4, 78360, Note_on_c, 0, 79, 0
4, 78480, Note_on_c, 0, 81, 76
4, 78720, Note_on_c, 0, 81, 0
4, 78720, Note_on_c, 0, 74, 73
4, 78840, Note_on_c, 0, 74, 0
4, 78960, Note_on_c, 0, 79, 81
4, 79080, Note_on_c, 0, 79, 0
4, 79080, Note_on_c, 0, 78, 81
4, 79200, Note_on_c, 0, 78, 0
4, 79200, Note_on_c, 0, 79, 86
4, 79320, Note_on_c, 0, 79, 0
4, 79440, Note_on_c, 0, 81, 77
4, 79680, Note_on_c, 0, 81, 0
4, 79680, Note_on_c, 0, 72, 75
4, 79800, Note_on_c, 0, 72, 0
4, 79800, Note_on_c, 0, 74, 75
4, 79920, Note_on_c, 0, 74, 0
4, 79920, Note_on_c, 0, 75, 81
4, 80400, Note_on_c, 0, 75, 0
4, 80400, Note_on_c, 0, 74, 73
4, 80520, Note_on_c, 0, 74, 0
4, 80520, Note_on_c, 0, 72, 73
4, 80640, Note_on_c, 0, 72, 0
4, 80640, Note_on_c, 0, 70, 78
4, 80640, Control_c, 0, 91, 127
4, 80760, Note_on_c, 0, 70, 0
4, 80880, Note_on_c, 0, 75, 81
4, 81000, Note_on_c, 0, 75, 0
4, 81000, Note_on_c, 0, 74, 81
4, 81120, Note_on_c, 0, 74, 0
4, 81120, Note_on_c, 0, 75, 86
4, 81240, Note_on_c, 0, 75, 0
4, 81360, Note_on_c, 0, 67, 71
4, 81600, Note_on_c, 0, 67, 0
4, 81600, Note_on_c, 0, 68, 72
4, 81720, Note_on_c, 0, 68, 0
4, 81840, Note_on_c, 0, 77, 81
4, 81960, Note_on_c, 0, 77, 0
4, 81960, Note_on_c, 0, 75, 81
4, 82080, Note_on_c, 0, 75, 0
4, 82080, Note_on_c, 0, 77, 86
4, 82200, Note_on_c, 0, 77, 0
4, 82320, Note_on_c, 0, 69, 76
4, 82560, Note_on_c, 0, 69, 0
4, 82560, Note_on_c, 0, 70, 78
4, 82560, Control_c, 0, 91, 127
4, 82680, Note_on_c, 0, 70, 0
4, 82800, Note_on_c, 0, 79, 81
4, 82920, Note_on_c, 0, 79, 0
4, 82920, Note_on_c, 0, 77, 81
4, 83040, Note_on_c, 0, 77, 0
4, 83040, Note_on_c, 0, 79, 86
4, 83160, Note_on_c, 0, 79, 0
4, 83280, Note_on_c, 0, 71, 71
4, 83520, Note_on_c, 0, 71, 0
4, 83520, Note_on_c, 0, 72, 72
4, 83640, Note_on_c, 0, 72, 0
4, 83760, Note_on_c, 0, 74, 81
4, 83880, Note_on_c, 0, 74, 0
4, 83880, Note_on_c, 0, 75, 81
4, 84000, Note_on_c, 0, 75, 0
4, 84000, Note_on_c, 0, 77, 86
4, 84720, Note_on_c, 0, 77, 0
4, 84720, Note_on_c, 0, 75, 71
4, 84840, Note_on_c, 0, 75, 0
4, 84840, Note_on_c, 0, 74, 71
4, 84960, Note_on_c, 0, 74, 0
4, 84960, Note_on_c, 0, 72, 70
4, 85080, Note_on_c, 0, 72, 0
4, 85080, Note_on_c, 0, 70, 69
4, 85200, Note_on_c, 0, 70, 0
4, 85200, Note_on_c, 0, 68, 69
4, 85320, Note_on_c, 0, 68, 0
4, 85320, Note_on_c, 0, 67, 68
4, 85440, Note_on_c, 0, 67, 0
4, 85440, Note_on_c, 0, 65, 68
4, 85560, Note_on_c, 0, 65, 0
4, 85680, Note_on_c, 0, 80, 74
4, 85920, Note_on_c, 0, 80, 0
4, 85920, Note_on_c, 0, 79, 73
4, 86160, Note_on_c, 0, 79, 0
4, 86160, Note_on_c, 0, 77, 73
4, 86400, Note_on_c, 0, 77, 0
4, 86400, Note_on_c, 0, 75, 72
4, 86520, Note_on_c, 0, 75, 0
4, 86640, Note_on_c, 0, 74, 74
4, 86880, Note_on_c, 0, 74, 0
4, 86880, Note_on_c, 0, 75, 74
4, 87120, Note_on_c, 0, 75, 0
4, 87120, Note_on_c, 0, 77, 74
4, 87360, Note_on_c, 0, 77, 0
4, 87360, Note_on_c, 0, 71, 81
4, 87480, Note_on_c, 0, 71, 0
4, 87600, Note_on_c, 0, 72, 77
4, 87840, Note_on_c, 0, 72, 0
4, 87840, Note_on_c, 0, 74, 77
4, 88080, Note_on_c, 0, 74, 0
4, 88080, Note_on_c, 0, 71, 77
4, 88320, Note_on_c, 0, 71, 0
4, 88320, Note_on_c, 0, 72, 81
4, 88320, Control_c, 0, 91, 127
4, 88560, Note_on_c, 0, 72, 0
4, 88560, Note_on_c, 0, 79, 81
4, 88680, Note_on_c, 0, 79, 0
4, 88680, Note_on_c, 0, 78, 81
4, 88800, Note_on_c, 0, 78, 0
4, 88800, Note_on_c, 0, 79, 86
4, 88920, Note_on_c, 0, 79, 0
4, 89040, Note_on_c, 0, 74, 71
4, 89280, Note_on_c, 0, 74, 0
4, 89280, Note_on_c, 0, 75, 72
4, 89760, Note_on_c, 0, 75, 0
4, 90000, Note_on_c, 0, 76, 72
4, 90240, Note_on_c, 0, 76, 0
4, 90240, Note_on_c, 0, 77, 81
4, 90240, Control_c, 0, 91, 127
4, 90360, Note_on_c, 0, 77, 0
4, 90480, Note_on_c, 0, 77, 81
4, 90600, Note_on_c, 0, 77, 0
4, 90600, Note_on_c, 0, 76, 81
4, 90720, Note_on_c, 0, 76, 0
4, 90720, Note_on_c, 0, 77, 86
4, 90840, Note_on_c, 0, 77, 0
4, 90960, Note_on_c, 0, 72, 71
4, 91200, Note_on_c, 0, 72, 0
4, 91200, Note_on_c, 0, 74, 72
4, 91680, Note_on_c, 0, 74, 0
4, 91920, Note_on_c, 0, 74, 72
4, 92160, Note_on_c, 0, 74, 0
4, 92160, Note_on_c, 0, 75, 81
4, 92160, Control_c, 0, 91, 127
4, 92280, Note_on_c, 0, 75, 0
4, 92400, Note_on_c, 0, 75, 81
4, 92520, Note_on_c, 0, 75, 0
4, 92520, Note_on_c, 0, 74, 81
4, 92640, Note_on_c, 0, 74, 0
4, 92640, Note_on_c, 0, 75, 86
4, 92760, Note_on_c, 0, 75, 0
4, 92880, Note_on_c, 0, 70, 71
4, 93120, Note_on_c, 0, 70, 0
4, 93120, Note_on_c, 0, 72, 76
4, 93120, Control_c, 0, 91, 127
4, 93240, Note_on_c, 0, 72, 0
4, 93360, Note_on_c, 0, 75, 81
4, 93480, Note_on_c, 0, 75, 0
4, 93480, Note_on_c, 0, 74, 81
4, 93600, Note_on_c, 0, 74, 0
4, 93600, Note_on_c, 0, 75, 86
4, 93720, Note_on_c, 0, 75, 0
4, 93840, Note_on_c, 0, 77, 81
4, 94080, Note_on_c, 0, 77, 0
4, 94080, Note_on_c, 0, 70, 81
4, 94080, Control_c, 0, 91, 127
4, 94200, Note_on_c, 0, 70, 0
4, 94320, Note_on_c, 0, 75, 81
4, 94440, Note_on_c, 0, 75, 0
4, 94440, Note_on_c, 0, 74, 81
4, 94560, Note_on_c, 0, 74, 0
4, 94560, Note_on_c, 0, 75, 86
4, 94800, Note_on_c, 0, 75, 0
4, 94800, Note_on_c, 0, 77, 81
4, 94980, Note_on_c, 0, 77, 0
4, 95040, Note_on_c, 0, 68, 75
4, 95160, Note_on_c, 0, 68, 0
4, 95160, Note_on_c, 0, 70, 75
4, 95280, Note_on_c, 0, 70, 0
4, 95280, Note_on_c, 0, 72, 81
4, 95760, Note_on_c, 0, 72, 0
4, 95760, Note_on_c, 0, 70, 76
4, 95880, Note_on_c, 0, 70, 0
4, 95880, Note_on_c, 0, 68, 76
4, 96000, Note_on_c, 0, 68, 0
4, 96000, Note_on_c, 0, 67, 72
4, 96060, Note_on_c, 0, 67, 0
4, 96120, Note_on_c, 0, 63, 69
4, 96240, Note_on_c, 0, 63, 0
4, 96240, Note_on_c, 0, 65, 70
4, 96360, Note_on_c, 0, 65, 0
4, 96360, Note_on_c, 0, 67, 71
4, 96480, Note_on_c, 0, 67, 0
4, 96480, Note_on_c, 0, 68, 72
4, 96600, Note_on_c, 0, 68, 0
4, 96600, Note_on_c, 0, 70, 74
4, 96720, Note_on_c, 0, 70, 0
4, 96720, Note_on_c, 0, 72, 75
4, 96840, Note_on_c, 0, 72, 0
4, 96840, Note_on_c, 0, 74, 76
4, 96960, Note_on_c, 0, 74, 0
4, 96960, Note_on_c, 0, 75, 77
4, 97080, Note_on_c, 0, 75, 0
4, 97080, Note_on_c, 0, 74, 76
4, 97200, Note_on_c, 0, 74, 0
4, 97200, Note_on_c, 0, 72, 75
4, 97320, Note_on_c, 0, 72, 0
4, 97320, Note_on_c, 0, 74, 75
4, 97440, Note_on_c, 0, 74, 0
4, 97440, Note_on_c, 0, 75, 77
4, 97560, Note_on_c, 0, 75, 0
4, 97560, Note_on_c, 0, 77, 80
4, 97680, Note_on_c, 0, 77, 0
4, 97680, Note_on_c, 0, 79, 82
4, 97800, Note_on_c, 0, 79, 0
4, 97800, Note_on_c, 0, 81, 85
4, 97920, Note_on_c, 0, 81, 0
4, 97920, Note_on_c, 0, 82, 88
4, 97980, Note_on_c, 0, 82, 0
4, 98040, Note_on_c, 0, 65, 67
4, 98160, Note_on_c, 0, 65, 0
4, 98160, Note_on_c, 0, 67, 68
4, 98280, Note_on_c, 0, 67, 0
4, 98280, Note_on_c, 0, 68, 69
4, 98400, Note_on_c, 0, 68, 0
4, 98400, Note_on_c, 0, 70, 71
4, 98520, Note_on_c, 0, 70, 0
4, 98520, Note_on_c, 0, 72, 72
4, 98640, Note_on_c, 0, 72, 0
4, 98640, Note_on_c, 0, 74, 73
4, 98760, Note_on_c, 0, 74, 0
4, 98760, Note_on_c, 0, 76, 74
4, 98880, Note_on_c, 0, 76, 0
4, 98880, Note_on_c, 0, 77, 76
4, 99000, Note_on_c, 0, 77, 0
4, 99000, Note_on_c, 0, 75, 75
4, 99120, Note_on_c, 0, 75, 0
4, 99120, Note_on_c, 0, 74, 73
4, 99240, Note_on_c, 0, 74, 0
4, 99240, Note_on_c, 0, 75, 76
4, 99360, Note_on_c, 0, 75, 0
4, 99360, Note_on_c, 0, 77, 75
4, 99480, Note_on_c, 0, 77, 0
4, 99480, Note_on_c, 0, 79, 78
4, 99600, Note_on_c, 0, 79, 0
4, 99600, Note_on_c, 0, 81, 81
4, 99720, Note_on_c, 0, 81, 0
4, 99720, Note_on_c, 0, 83, 84
4, 99840, Note_on_c, 0, 83, 0
4, 99840, Note_on_c, 0, 84, 87
4, 99960, Note_on_c, 0, 84, 0
4, 100080, Note_on_c, 0, 83, 82
4, 100200, Note_on_c, 0, 83, 0
4, 100200, Note_on_c, 0, 81, 80
4, 100320, Note_on_c, 0, 81, 0
4, 100320, Note_on_c, 0, 79, 79
4, 100440, Note_on_c, 0, 79, 0
4, 100440, Note_on_c, 0, 77, 78
4, 100560, Note_on_c, 0, 77, 0
4, 100560, Note_on_c, 0, 75, 77
4, 100680, Note_on_c, 0, 75, 0
4, 100680, Note_on_c, 0, 74, 76
4, 100800, Note_on_c, 0, 74, 0
4, 100800, Note_on_c, 0, 72, 75
4, 100920, Note_on_c, 0, 72, 0
4, 101040, Note_on_c, 0, 75, 73
4, 101280, Note_on_c, 0, 75, 0
4, 101280, Note_on_c, 0, 74, 71
4, 101520, Note_on_c, 0, 74, 0
4, 101520, Note_on_c, 0, 72, 70
4, 101760, Note_on_c, 0, 72, 0
4, 101760, Note_on_c, 0, 70, 68
4, 101880, Note_on_c, 0, 70, 0
4, 102000, Note_on_c, 0, 69, 67
4, 102240, Note_on_c, 0, 69, 0
4, 102240, Note_on_c, 0, 70, 68
4, 102480, Note_on_c, 0, 70, 0
4, 102480, Note_on_c, 0, 72, 72
4, 102660, Note_on_c, 0, 72, 0
4, 102720, Note_on_c, 0, 66, 67
4, 102960, Note_on_c, 0, 66, 0
4, 102960, Note_on_c, 0, 67, 67
4, 103200, Note_on_c, 0, 67, 0
4, 103200, Note_on_c, 0, 69, 70
4, 103440, Note_on_c, 0, 69, 0
4, 103440, Note_on_c, 0, 66, 65
4, 103680, Note_on_c, 0, 66, 0
4, 103680, Note_on_c, 0, 67, 71
4, 103800, Note_on_c, 0, 67, 0
4, 103920, Note_on_c, 0, 74, 72
4, 104040, Note_on_c, 0, 74, 0
4, 104040, Note_on_c, 0, 72, 72
4, 104160, Note_on_c, 0, 72, 0
4, 104160, Note_on_c, 0, 74, 76
4, 104400, Note_on_c, 0, 74, 0
4, 104880, Note_on_c, 0, 76, 77
4, 105000, Note_on_c, 0, 76, 0
4, 105000, Note_on_c, 0, 74, 77
4, 105120, Note_on_c, 0, 74, 0
4, 105120, Note_on_c, 0, 76, 81
4, 105360, Note_on_c, 0, 76, 0
4, 105840, Note_on_c, 0, 78, 84
4, 105960, Note_on_c, 0, 78, 0
4, 105960, Note_on_c, 0, 76, 84
4, 106080, Note_on_c, 0, 76, 0
4, 106080, Note_on_c, 0, 78, 89
4, 106320, Note_on_c, 0, 78, 0
4, 106800, Note_on_c, 0, 67, 72
4, 106920, Note_on_c, 0, 67, 0
4, 106920, Note_on_c, 0, 65, 72
4, 107040, Note_on_c, 0, 65, 0
4, 107040, Note_on_c, 0, 67, 77
4, 107160, Note_on_c, 0, 67, 0
4, 107760, Note_on_c, 0, 69, 71
4, 107880, Note_on_c, 0, 69, 0
4, 107880, Note_on_c, 0, 67, 71
4, 108000, Note_on_c, 0, 67, 0
4, 108000, Note_on_c, 0, 69, 76
4, 108120, Note_on_c, 0, 69, 0
4, 108720, Note_on_c, 0, 71, 71
4, 108840, Note_on_c, 0, 71, 0
4, 108840, Note_on_c, 0, 69, 71
4, 108960, Note_on_c, 0, 69, 0
4, 108960, Note_on_c, 0, 71, 76
4, 109080, Note_on_c, 0, 71, 0
4, 109440, Control_c, 0, 91, 127
4, 109680, Note_on_c, 0, 72, 81
4, 109800, Note_on_c, 0, 72, 0
4, 109800, Note_on_c, 0, 71, 81
4, 109920, Note_on_c, 0, 71, 0
4, 109920, Note_on_c, 0, 72, 86
4, 110040, Note_on_c, 0, 72, 0
4, 110160, Note_on_c, 0, 67, 71
4, 110400, Note_on_c, 0, 67, 0
4, 110400, Note_on_c, 0, 68, 72
4, 110520, Note_on_c, 0, 68, 0
4, 110640, Note_on_c, 0, 72, 81
4, 110760, Note_on_c, 0, 72, 0
4, 110760, Note_on_c, 0, 71, 81
4, 110880, Note_on_c, 0, 71, 0
4, 110880, Note_on_c, 0, 72, 86
4, 111000, Note_on_c, 0, 72, 0
4, 111120, Note_on_c, 0, 74, 76
4, 111360, Note_on_c, 0, 74, 0
4, 111360, Note_on_c, 0, 67, 73
4, 111480, Note_on_c, 0, 67, 0
4, 111600, Note_on_c, 0, 72, 81
4, 111720, Note_on_c, 0, 72, 0
4, 111720, Note_on_c, 0, 71, 81
4, 111840, Note_on_c, 0, 71, 0
4, 111840, Note_on_c, 0, 72, 86
4, 111960, Note_on_c, 0, 72, 0
4, 112080, Note_on_c, 0, 74, 77
4, 112200, Note_on_c, 0, 74, 0
4, 112320, Note_on_c, 0, 65, 75
4, 112440, Note_on_c, 0, 65, 0
4, 112440, Note_on_c, 0, 67, 75
4, 112560, Note_on_c, 0, 67, 0
4, 112560, Note_on_c, 0, 68, 81
4, 113040, Note_on_c, 0, 68, 0
4, 113040, Note_on_c, 0, 67, 73
4, 113160, Note_on_c, 0, 67, 0
4, 113160, Note_on_c, 0, 65, 73
4, 113280, Note_on_c, 0, 65, 0
4, 113280, Note_on_c, 0, 63, 73
4, 113280, Control_c, 0, 91, 127
4, 113400, Note_on_c, 0, 63, 0
4, 113520, Note_on_c, 0, 72, 81
4, 113640, Note_on_c, 0, 72, 0
4, 113640, Note_on_c, 0, 71, 81
4, 113760, Note_on_c, 0, 71, 0
4, 113760, Note_on_c, 0, 72, 86
4, 113880, Note_on_c, 0, 72, 0
4, 114000, Note_on_c, 0, 67, 71
4, 114240, Note_on_c, 0, 67, 0
4, 114240, Note_on_c, 0, 68, 72
4, 114720, Note_on_c, 0, 68, 0
4, 114960, Note_on_c, 0, 69, 72
4, 115200, Note_on_c, 0, 69, 0
4, 115200, Note_on_c, 0, 70, 73
4, 115200, Control_c, 0, 91, 127
4, 115320, Note_on_c, 0, 70, 0
4, 115440, Note_on_c, 0, 70, 81
4, 115560, Note_on_c, 0, 70, 0
4, 115560, Note_on_c, 0, 69, 81
4, 115680, Note_on_c, 0, 69, 0
4, 115680, Note_on_c, 0, 70, 86
4, 115800, Note_on_c, 0, 70, 0
4, 115920, Note_on_c, 0, 65, 71
4, 116160, Note_on_c, 0, 65, 0
4, 116160, Note_on_c, 0, 67, 72
4, 116640, Note_on_c, 0, 67, 0
4, 116880, Note_on_c, 0, 67, 72
4, 117360, Note_on_c, 0, 67, 0
4, 117360, Note_on_c, 0, 68, 71
4, 117480, Note_on_c, 0, 68, 0
4, 117480, Note_on_c, 0, 70, 72
4, 117600, Note_on_c, 0, 70, 0
4, 117600, Note_on_c, 0, 72, 74
4, 117720, Note_on_c, 0, 72, 0
4, 117720, Note_on_c, 0, 71, 72
4, 117840, Note_on_c, 0, 71, 0
4, 117840, Note_on_c, 0, 72, 76
4, 117960, Note_on_c, 0, 72, 0
4, 117960, Note_on_c, 0, 68, 72
4, 118080, Note_on_c, 0, 68, 0
4, 118080, Note_on_c, 0, 65, 76
4, 119280, Note_on_c, 0, 65, 0
4, 119280, Note_on_c, 0, 74, 80
4, 119400, Note_on_c, 0, 74, 0
4, 119400, Note_on_c, 0, 72, 80
4, 119520, Note_on_c, 0, 72, 0
4, 119520, Note_on_c, 0, 74, 86
4, 119640, Note_on_c, 0, 74, 0
4, 119760, Note_on_c, 0, 65, 73
4, 120000, Note_on_c, 0, 65, 0
4, 120000, Note_on_c, 0, 63, 73
4, 120120, Note_on_c, 0, 63, 0
4, 120240, Note_on_c, 0, 75, 80
4, 120360, Note_on_c, 0, 75, 0
4, 120360, Note_on_c, 0, 74, 80
4, 120480, Note_on_c, 0, 74, 0
4, 120480, Note_on_c, 0, 75, 84
4, 120600, Note_on_c, 0, 75, 0
4, 120720, Note_on_c, 0, 67, 73
4, 120960, Note_on_c, 0, 67, 0
4, 120960, Note_on_c, 0, 65, 73
4, 121080, Note_on_c, 0, 65, 0
4, 121200, Note_on_c, 0, 77, 82
4, 121320, Note_on_c, 0, 77, 0
4, 121320, Note_on_c, 0, 75, 82
4, 121440, Note_on_c, 0, 75, 0
4, 121440, Note_on_c, 0, 77, 88
4, 121560, Note_on_c, 0, 77, 0
4, 121680, Note_on_c, 0, 68, 77
4, 121920, Note_on_c, 0, 68, 0
4, 121920, Note_on_c, 0, 67, 77
4, 121980, Note_on_c, 0, 67, 0
4, 122040, Note_on_c, 0, 77, 81
4, 122160, Note_on_c, 0, 77, 0
4, 122160, Note_on_c, 0, 75, 80
4, 122280, Note_on_c, 0, 75, 0
4, 122280, Note_on_c, 0, 74, 79
4, 122400, Note_on_c, 0, 74, 0
4, 122400, Note_on_c, 0, 72, 78
4, 122520, Note_on_c, 0, 72, 0
4, 122520, Note_on_c, 0, 71, 77
4, 122640, Note_on_c, 0, 71, 0
4, 122640, Note_on_c, 0, 69, 76
4, 122760, Note_on_c, 0, 69, 0
4, 122760, Note_on_c, 0, 67, 75
4, 122880, Note_on_c, 0, 67, 0
4, 122880, Note_on_c, 0, 72, 73
4, 123000, Note_on_c, 0, 72, 0
4, 123120, Note_on_c, 0, 77, 78
4, 123360, Note_on_c, 0, 77, 0
4, 123360, Note_on_c, 0, 75, 76
4, 123600, Note_on_c, 0, 75, 0
4, 123600, Note_on_c, 0, 74, 73
4, 123840, Note_on_c, 0, 74, 0
4, 124080, Note_on_c, 0, 68, 76
4, 124320, Note_on_c, 0, 68, 0
4, 124320, Note_on_c, 0, 67, 74
4, 124560, Note_on_c, 0, 67, 0
4, 124560, Note_on_c, 0, 65, 71
4, 124800, Note_on_c, 0, 65, 0
4, 124800, Note_on_c, 0, 67, 73
4, 124920, Note_on_c, 0, 67, 0
4, 125040, Note_on_c, 0, 65, 76
4, 125160, Note_on_c, 0, 65, 0
4, 125160, Note_on_c, 0, 63, 76
4, 125280, Note_on_c, 0, 63, 0
4, 125280, Note_on_c, 0, 65, 81
4, 125400, Note_on_c, 0, 65, 0
4, 125520, Note_on_c, 0, 62, 73
4, 125760, Note_on_c, 0, 62, 0
4, 125760, Note_on_c, 0, 68, 89
4, 126000, Note_on_c, 0, 68, 0
4, 126000, Note_on_c, 0, 67, 76
4, 126240, Note_on_c, 0, 67, 0
4, 126480, Note_on_c, 0, 69, 78
4, 126720, Note_on_c, 0, 69, 0
4, 126720, Note_on_c, 0, 71, 82
4, 126960, Note_on_c, 0, 71, 0
4, 126960, Note_on_c, 0, 72, 80
4, 127200, Note_on_c, 0, 72, 0
4, 127200, Note_on_c, 0, 65, 76
4, 127320, Note_on_c, 0, 65, 0
4, 127320, Note_on_c, 0, 63, 75
4, 127440, Note_on_c, 0, 63, 0
4, 127440, Note_on_c, 0, 62, 75
4, 127560, Note_on_c, 0, 62, 0
4, 127560, Note_on_c, 0, 60, 74
4, 127680, Note_on_c, 0, 60, 0
4, 127920, Note_on_c, 0, 72, 81
4, 128040, Note_on_c, 0, 72, 0
4, 128040, Note_on_c, 0, 71, 81
4, 128160, Note_on_c, 0, 71, 0
4, 128160, Note_on_c, 0, 72, 87
4, 128280, Note_on_c, 0, 72, 0
4, 128400, Note_on_c, 0, 67, 77
4, 128640, Note_on_c, 0, 67, 0
4, 128640, Note_on_c, 0, 68, 77
4, 128760, Note_on_c, 0, 68, 0
4, 128880, Note_on_c, 0, 72, 80
4, 129000, Note_on_c, 0, 72, 0
4, 129000, Note_on_c, 0, 71, 80
4, 129120, Note_on_c, 0, 71, 0
4, 129120, Note_on_c, 0, 72, 86
4, 129360, Note_on_c, 0, 72, 0
4, 129360, Note_on_c, 0, 74, 74
4, 129600, Note_on_c, 0, 74, 0
4, 129600, Note_on_c, 0, 67, 76
4, 129720, Note_on_c, 0, 67, 0
4, 129840, Note_on_c, 0, 72, 79
4, 129960, Note_on_c, 0, 72, 0
4, 129960, Note_on_c, 0, 71, 79
4, 130080, Note_on_c, 0, 71, 0
4, 130080, Note_on_c, 0, 72, 86
4, 130320, Note_on_c, 0, 72, 0
4, 130320, Note_on_c, 0, 74, 78
4, 130540, Note_on_c, 0, 74, 0
4, 130560, Note_on_c, 0, 65, 56
4, 130680, Note_on_c, 0, 65, 0
4, 130680, Note_on_c, 0, 67, 56
4, 130800, Note_on_c, 0, 67, 0
4, 130800, Note_on_c, 0, 68, 60
4, 131280, Note_on_c, 0, 68, 0
4, 131280, Note_on_c, 0, 67, 47
4, 131400, Note_on_c, 0, 67, 0
4, 131400, Note_on_c, 0, 65, 45
4, 131520, Note_on_c, 0, 65, 0
4, 131520, Note_on_c, 0, 64, 43
4, 132480, Note_on_c, 0, 64, 0
4, 132480, End_track
5, 0, Start_track
5, 0, MIDI_port, 0
5, 0, Title_t, "Fuga 2"
5, 0, Program_c, 0, 0
5, 0, Control_c, 0, 7, 100
5, 0, Control_c, 0, 10, 64
5, 72960, Control_c, 0, 91, 127
5, 73200, Note_on_c, 0, 72, 81
5, 73320, Note_on_c, 0, 72, 0
5, 73320, Note_on_c, 0, 71, 81
5, 73440, Note_on_c, 0, 71, 0
5, 73440, Note_on_c, 0, 72, 86
5, 73560, Note_on_c, 0, 72, 0
5, 73680, Note_on_c, 0, 67, 71
5, 73920, Note_on_c, 0, 67, 0
5, 73920, Note_on_c, 0, 68, 72
5, 74040, Note_on_c, 0, 68, 0
5, 74160, Note_on_c, 0, 72, 81
5, 74280, Note_on_c, 0, 72, 0
5, 74280, Note_on_c, 0, 71, 81
5, 74400, Note_on_c, 0, 71, 0
5, 74400, Note_on_c, 0, 72, 86
5, 74520, Note_on_c, 0, 72, 0
5, 74640, Note_on_c, 0, 74, 76
5, 74880, Note_on_c, 0, 74, 0
5, 74880, Note_on_c, 0, 67, 73
5, 75000, Note_on_c, 0, 67, 0
5, 75120, Note_on_c, 0, 72, 81
5, 75240, Note_on_c, 0, 72, 0
5, 75240, Note_on_c, 0, 71, 81
5, 75360, Note_on_c, 0, 71, 0
5, 75360, Note_on_c, 0, 72, 86
5, 75480, Note_on_c, 0, 72, 0
5, 75600, Note_on_c, 0, 74, 77
5, 75720, Note_on_c, 0, 74, 0
5, 75840, Note_on_c, 0, 65, 75
5, 75960, Note_on_c, 0, 65, 0
5, 75960, Note_on_c, 0, 67, 75
5, 76080, Note_on_c, 0, 67, 0
5, 76080, Note_on_c, 0, 68, 81
5, 76560, Note_on_c, 0, 68, 0
5, 76560, Note_on_c, 0, 67, 73
5, 76680, Note_on_c, 0, 67, 0
5, 76680, Note_on_c, 0, 65, 71
5, 76800, Note_on_c, 0, 65, 0
5, 76800, Note_on_c, 0, 63, 75
5, 76860, Note_on_c, 0, 63, 0
5, 76920, Note_on_c, 0, 72, 71
5, 77040, Note_on_c, 0, 72, 0
5, 77040, Note_on_c, 0, 71, 62
5, 77160, Note_on_c, 0, 71, 0
5, 77160, Note_on_c, 0, 68, 62
5, 77280, Note_on_c, 0, 68, 0
5, 77280, Note_on_c, 0, 67, 62
5, 77400, Note_on_c, 0, 67, 0
5, 77400, Note_on_c, 0, 65, 62
5, 77520, Note_on_c, 0, 65, 0
5, 77520, Note_on_c, 0, 63, 62
5, 77640, Note_on_c, 0, 63, 0
5, 77640, Note_on_c, 0, 62, 62
5, 77760, Note_on_c, 0, 62, 0
5, 77760, Note_on_c, 0, 60, 67
5, 77880, Note_on_c, 0, 60, 0
5, 78000, Note_on_c, 0, 75, 65
5, 78240, Note_on_c, 0, 75, 0
5, 78240, Note_on_c, 0, 74, 65
5, 78480, Note_on_c, 0, 74, 0
5, 78480, Note_on_c, 0, 72, 65
5, 78720, Note_on_c, 0, 72, 0
5, 78720, Note_on_c, 0, 70, 68
5, 78840, Note_on_c, 0, 70, 0
5, 78960, Note_on_c, 0, 69, 63
5, 79200, Note_on_c, 0, 69, 0
5, 79200, Note_on_c, 0, 70, 67
5, 79440, Note_on_c, 0, 70, 0
5, 79440, Note_on_c, 0, 72, 62
5, 79678, Note_on_c, 0, 72, 0
5, 79680, Note_on_c, 0, 66, 67
5, 79920, Note_on_c, 0, 66, 0
5, 79920, Note_on_c, 0, 67, 62
5, 80160, Note_on_c, 0, 67, 0
5, 80160, Note_on_c, 0, 69, 66
5, 80400, Note_on_c, 0, 69, 0
5, 80400, Note_on_c, 0, 66, 63
5, 80640, Note_on_c, 0, 66, 0
5, 80640, Note_on_c, 0, 67, 69
5, 81120, Note_on_c, 0, 67, 0
5, 81240, Note_on_c, 0, 60, 70
5, 81360, Note_on_c, 0, 60, 0
5, 81360, Note_on_c, 0, 62, 72
5, 81480, Note_on_c, 0, 62, 0
5, 81480, Note_on_c, 0, 63, 74
5, 81600, Note_on_c, 0, 63, 0
5, 81600, Note_on_c, 0, 65, 75
5, 81720, Note_on_c, 0, 65, 0
5, 81720, Note_on_c, 0, 67, 75
5, 81840, Note_on_c, 0, 67, 0
5, 81840, Note_on_c, 0, 68, 79
5, 82200, Note_on_c, 0, 68, 0
5, 82200, Note_on_c, 0, 62, 71
5, 82320, Note_on_c, 0, 62, 0
5, 82320, Note_on_c, 0, 63, 73
5, 82440, Note_on_c, 0, 63, 0
5, 82440, Note_on_c, 0, 65, 74
5, 82560, Note_on_c, 0, 65, 0
5, 82560, Note_on_c, 0, 67, 76
5, 82680, Note_on_c, 0, 67, 0
5, 82680, Note_on_c, 0, 69, 77
5, 82800, Note_on_c, 0, 69, 0
5, 82800, Note_on_c, 0, 70, 79
5, 83160, Note_on_c, 0, 70, 0
5, 83160, Note_on_c, 0, 63, 69
5, 83280, Note_on_c, 0, 63, 0
5, 83280, Note_on_c, 0, 65, 71
5, 83400, Note_on_c, 0, 65, 0
5, 83400, Note_on_c, 0, 67, 73
5, 83520, Note_on_c, 0, 67, 0
5, 83520, Note_on_c, 0, 68, 74
5, 83640, Note_on_c, 0, 68, 0
5, 83640, Note_on_c, 0, 67, 73
5, 83760, Note_on_c, 0, 67, 0
5, 83760, Note_on_c, 0, 65, 72
5, 83880, Note_on_c, 0, 65, 0
5, 83880, Note_on_c, 0, 63, 71
5, 84000, Note_on_c, 0, 63, 0
5, 84000, Note_on_c, 0, 62, 70
5, 84120, Note_on_c, 0, 62, 0
5, 84240, Note_on_c, 0, 72, 78
5, 84360, Note_on_c, 0, 72, 0
5, 84360, Note_on_c, 0, 71, 78
5, 84480, Note_on_c, 0, 71, 0
5, 84480, Note_on_c, 0, 72, 83
5, 84600, Note_on_c, 0, 72, 0
5, 85680, Note_on_c, 0, 77, 74
5, 85920, Note_on_c, 0, 77, 0
5, 85920, Note_on_c, 0, 75, 73
5, 86160, Note_on_c, 0, 75, 0
5, 86160, Note_on_c, 0, 74, 72
5, 86400, Note_on_c, 0, 74, 0
5, 86640, Note_on_c, 0, 68, 73
5, 86880, Note_on_c, 0, 68, 0
5, 86880, Note_on_c, 0, 67, 73
5, 87120, Note_on_c, 0, 67, 0
5, 87120, Note_on_c, 0, 65, 73
5, 87360, Note_on_c, 0, 65, 0
5, 87360, Note_on_c, 0, 67, 75
5, 87480, Note_on_c, 0, 67, 0
5, 87600, Note_on_c, 0, 65, 78
5, 87720, Note_on_c, 0, 65, 0
5, 87720, Note_on_c, 0, 63, 78
5, 87840, Note_on_c, 0, 63, 0
5, 87840, Note_on_c, 0, 65, 84
5, 87960, Note_on_c, 0, 65, 0
5, 88080, Note_on_c, 0, 62, 76
5, 88320, Note_on_c, 0, 62, 0
5, 88320, Note_on_c, 0, 67, 82
5, 88800, Note_on_c, 0, 67, 0
5, 89040, Note_on_c, 0, 71, 72
5, 89280, Note_on_c, 0, 71, 0
5, 89280, Note_on_c, 0, 72, 72
5, 89400, Note_on_c, 0, 72, 0
5, 89520, Note_on_c, 0, 72, 82
5, 89640, Note_on_c, 0, 72, 0
5, 89640, Note_on_c, 0, 71, 82
5, 89760, Note_on_c, 0, 71, 0
5, 89760, Note_on_c, 0, 72, 87
5, 89880, Note_on_c, 0, 72, 0
5, 90000, Note_on_c, 0, 67, 73
5, 90240, Note_on_c, 0, 67, 0
5, 90240, Note_on_c, 0, 68, 73
5, 90720, Note_on_c, 0, 68, 0
5, 90960, Note_on_c, 0, 69, 71
5, 91200, Note_on_c, 0, 69, 0
5, 91200, Note_on_c, 0, 70, 71
5, 91320, Note_on_c, 0, 70, 0
5, 91440, Note_on_c, 0, 70, 82
5, 91560, Note_on_c, 0, 70, 0
5, 91560, Note_on_c, 0, 69, 82
5, 91680, Note_on_c, 0, 69, 0
5, 91680, Note_on_c, 0, 70, 86
5, 91800, Note_on_c, 0, 70, 0
5, 91920, Note_on_c, 0, 65, 75
5, 92160, Note_on_c, 0, 65, 0
5, 92160, Note_on_c, 0, 67, 75
5, 92640, Note_on_c, 0, 67, 0
5, 92880, Note_on_c, 0, 67, 74
5, 93120, Note_on_c, 0, 67, 0
5, 93120, Note_on_c, 0, 68, 74
5, 93240, Note_on_c, 0, 68, 0
5, 93360, Note_on_c, 0, 68, 75
5, 93600, Note_on_c, 0, 68, 0
5, 93600, Note_on_c, 0, 67, 74
5, 93840, Note_on_c, 0, 67, 0
5, 93840, Note_on_c, 0, 65, 72
5, 94080, Note_on_c, 0, 65, 0
5, 94320, Note_on_c, 0, 56, 66
5, 94560, Note_on_c, 0, 56, 0
5, 94560, Note_on_c, 0, 58, 69
5, 94800, Note_on_c, 0, 58, 0
5, 94800, Note_on_c, 0, 60, 71
5, 94980, Note_on_c, 0, 60, 0
5, 95280, Note_on_c, 0, 56, 73
5, 95400, Note_on_c, 0, 56, 0
5, 95400, Note_on_c, 0, 55, 73
5, 95520, Note_on_c, 0, 55, 0
5, 95520, Note_on_c, 0, 56, 78
5, 95640, Note_on_c, 0, 56, 0
5, 95760, Note_on_c, 0, 53, 72
5, 96000, Note_on_c, 0, 53, 0
5, 96000, Note_on_c, 0, 58, 71
5, 96120, Note_on_c, 0, 58, 0
5, 96240, Note_on_c, 0, 60, 65
5, 96480, Note_on_c, 0, 60, 0
5, 96480, Note_on_c, 0, 58, 63
5, 96720, Note_on_c, 0, 58, 0
5, 96720, Note_on_c, 0, 56, 61
5, 96960, Note_on_c, 0, 56, 0
5, 96960, Note_on_c, 0, 58, 57
5, 97080, Note_on_c, 0, 58, 0
5, 97200, Note_on_c, 0, 55, 68
5, 97440, Note_on_c, 0, 55, 0
5, 97440, Note_on_c, 0, 53, 66
5, 97680, Note_on_c, 0, 53, 0
5, 97680, Note_on_c, 0, 51, 65
5, 97920, Note_on_c, 0, 51, 0
5, 97920, Note_on_c, 0, 53, 63
5, 98040, Note_on_c, 0, 53, 0
5, 98160, Note_on_c, 0, 61, 71
5, 98400, Note_on_c, 0, 61, 0
5, 98400, Note_on_c, 0, 60, 69
5, 98640, Note_on_c, 0, 60, 0
5, 98640, Note_on_c, 0, 58, 67
5, 98880, Note_on_c, 0, 58, 0
5, 98880, Note_on_c, 0, 60, 65
5, 99000, Note_on_c, 0, 60, 0
5, 99120, Note_on_c, 0, 56, 68
5, 99360, Note_on_c, 0, 56, 0
5, 99360, Note_on_c, 0, 55, 67
5, 99600, Note_on_c, 0, 55, 0
5, 99600, Note_on_c, 0, 53, 65
5, 99840, Note_on_c, 0, 53, 0
5, 99840, Note_on_c, 0, 55, 64
5, 99960, Note_on_c, 0, 55, 0
5, 100080, Note_on_c, 0, 67, 80
5, 100200, Note_on_c, 0, 67, 0
5, 100200, Note_on_c, 0, 66, 80
5, 100320, Note_on_c, 0, 66, 0
5, 100320, Note_on_c, 0, 67, 88
5, 100440, Note_on_c, 0, 67, 0
5, 100560, Note_on_c, 0, 60, 74
5, 100800, Note_on_c, 0, 60, 0
5, 100800, Note_on_c, 0, 63, 74
5, 100920, Note_on_c, 0, 63, 0
5, 101040, Note_on_c, 0, 67, 80
5, 101160, Note_on_c, 0, 67, 0
5, 101160, Note_on_c, 0, 66, 80
5, 101280, Note_on_c, 0, 66, 0
5, 101280, Note_on_c, 0, 67, 87
5, 101520, Note_on_c, 0, 67, 0
5, 101520, Note_on_c, 0, 69, 77
5, 101760, Note_on_c, 0, 69, 0
5, 101760, Note_on_c, 0, 62, 76
5, 101880, Note_on_c, 0, 62, 0
5, 102000, Note_on_c, 0, 67, 80
5, 102120, Note_on_c, 0, 67, 0
5, 102120, Note_on_c, 0, 66, 80
5, 102240, Note_on_c, 0, 66, 0
5, 102240, Note_on_c, 0, 67, 86
5, 102480, Note_on_c, 0, 67, 0
5, 102480, Note_on_c, 0, 69, 79
5, 102660, Note_on_c, 0, 69, 0
5, 102720, Note_on_c, 0, 60, 73
5, 102840, Note_on_c, 0, 60, 0
5, 102840, Note_on_c, 0, 62, 73
5, 102960, Note_on_c, 0, 62, 0
5, 102960, Note_on_c, 0, 63, 80
5, 103440, Note_on_c, 0, 63, 0
5, 103440, Note_on_c, 0, 62, 77
5, 103560, Note_on_c, 0, 62, 0
5, 103560, Note_on_c, 0, 60, 77
5, 103680, Note_on_c, 0, 60, 0
5, 103680, Note_on_c, 0, 58, 75
5, 103800, Note_on_c, 0, 58, 0
5, 104280, Note_on_c, 0, 62, 67
5, 104400, Note_on_c, 0, 62, 0
5, 104400, Note_on_c, 0, 64, 69
5, 104520, Note_on_c, 0, 64, 0
5, 104520, Note_on_c, 0, 66, 71
5, 104640, Note_on_c, 0, 66, 0
5, 104640, Note_on_c, 0, 67, 73
5, 104760, Note_on_c, 0, 67, 0
5, 104760, Note_on_c, 0, 69, 75
5, 104880, Note_on_c, 0, 69, 0
5, 104880, Note_on_c, 0, 70, 77
5, 105240, Note_on_c, 0, 70, 0
5, 105240, Note_on_c, 0, 64, 73
5, 105360, Note_on_c, 0, 64, 0
5, 105360, Note_on_c, 0, 65, 75
5, 105480, Note_on_c, 0, 65, 0
5, 105480, Note_on_c, 0, 67, 77
5, 105600, Note_on_c, 0, 67, 0
5, 105600, Note_on_c, 0, 69, 79
5, 105720, Note_on_c, 0, 69, 0
5, 105720, Note_on_c, 0, 70, 79
5, 105840, Note_on_c, 0, 70, 0
5, 105840, Note_on_c, 0, 72, 83
5, 106200, Note_on_c, 0, 72, 0
5, 106200, Note_on_c, 0, 66, 75
5, 106320, Note_on_c, 0, 66, 0
5, 106320, Note_on_c, 0, 67, 78
5, 106440, Note_on_c, 0, 67, 0
5, 106440, Note_on_c, 0, 69, 80
5, 106560, Note_on_c, 0, 69, 0
5, 106560, Note_on_c, 0, 70, 83
5, 106800, Note_on_c, 0, 70, 0
5, 106800, Note_on_c, 0, 63, 71
5, 106920, Note_on_c, 0, 63, 0
5, 106920, Note_on_c, 0, 62, 71
5, 107040, Note_on_c, 0, 62, 0
5, 107040, Note_on_c, 0, 63, 74
5, 107160, Note_on_c, 0, 63, 0
5, 107280, Note_on_c, 0, 55, 64
5, 107400, Note_on_c, 0, 55, 0
5, 107520, Note_on_c, 0, 56, 64
5, 107640, Note_on_c, 0, 56, 0
5, 107760, Note_on_c, 0, 65, 72
5, 107880, Note_on_c, 0, 65, 0
5, 107880, Note_on_c, 0, 63, 72
5, 108000, Note_on_c, 0, 63, 0
5, 108000, Note_on_c, 0, 65, 76
5, 108120, Note_on_c, 0, 65, 0
5, 108240, Note_on_c, 0, 57, 64
5, 108360, Note_on_c, 0, 57, 0
5, 108480, Note_on_c, 0, 58, 64
5, 108600, Note_on_c, 0, 58, 0
5, 108720, Note_on_c, 0, 67, 72
5, 108840, Note_on_c, 0, 67, 0
5, 108840, Note_on_c, 0, 65, 72
5, 108960, Note_on_c, 0, 65, 0
5, 108960, Note_on_c, 0, 67, 75
5, 109080, Note_on_c, 0, 67, 0
5, 109200, Note_on_c, 0, 59, 64
5, 109320, Note_on_c, 0, 59, 0
5, 109440, Note_on_c, 0, 60, 69
5, 109500, Note_on_c, 0, 60, 0
5, 109560, Note_on_c, 0, 65, 68
5, 109680, Note_on_c, 0, 65, 0
5, 109680, Note_on_c, 0, 63, 67
5, 109800, Note_on_c, 0, 63, 0
5, 109800, Note_on_c, 0, 62, 66
5, 109920, Note_on_c, 0, 62, 0
5, 109920, Note_on_c, 0, 60, 66
5, 110040, Note_on_c, 0, 60, 0
5, 110040, Note_on_c, 0, 58, 65
5, 110160, Note_on_c, 0, 58, 0
5, 110160, Note_on_c, 0, 56, 64
5, 110280, Note_on_c, 0, 56, 0
5, 110280, Note_on_c, 0, 55, 63
5, 110400, Note_on_c, 0, 55, 0
5, 110400, Note_on_c, 0, 53, 62
5, 110520, Note_on_c, 0, 53, 0
5, 110640, Note_on_c, 0, 68, 64
5, 110880, Note_on_c, 0, 68, 0
5, 110880, Note_on_c, 0, 67, 68
5, 111120, Note_on_c, 0, 67, 0
5, 111120, Note_on_c, 0, 65, 68
5, 111360, Note_on_c, 0, 65, 0
5, 111360, Note_on_c, 0, 63, 66
5, 111480, Note_on_c, 0, 63, 0
5, 111600, Note_on_c, 0, 62, 64
5, 111840, Note_on_c, 0, 62, 0
5, 111840, Note_on_c, 0, 63, 64
5, 112080, Note_on_c, 0, 63, 0
5, 112080, Note_on_c, 0, 65, 64
5, 112318, Note_on_c, 0, 65, 0
5, 112320, Note_on_c, 0, 59, 69
5, 112440, Note_on_c, 0, 59, 0
5, 112560, Note_on_c, 0, 60, 64
5, 112800, Note_on_c, 0, 60, 0
5, 112800, Note_on_c, 0, 62, 67
5, 113040, Note_on_c, 0, 62, 0
5, 113040, Note_on_c, 0, 59, 59
5, 113280, Note_on_c, 0, 59, 0
5, 113280, Note_on_c, 0, 60, 66
5, 113760, Note_on_c, 0, 60, 0
5, 114000, Note_on_c, 0, 64, 64
5, 114240, Note_on_c, 0, 64, 0
5, 114240, Note_on_c, 0, 65, 64
5, 114360, Note_on_c, 0, 65, 0
5, 114480, Note_on_c, 0, 65, 82
5, 114600, Note_on_c, 0, 65, 0
5, 114600, Note_on_c, 0, 64, 82
5, 114720, Note_on_c, 0, 64, 0
5, 114720, Note_on_c, 0, 65, 84
5, 114840, Note_on_c, 0, 65, 0
5, 114960, Note_on_c, 0, 60, 72
5, 115200, Note_on_c, 0, 60, 0
5, 115200, Note_on_c, 0, 62, 72
5, 115680, Note_on_c, 0, 62, 0
5, 115920, Note_on_c, 0, 62, 69
5, 116160, Note_on_c, 0, 62, 0
5, 116160, Note_on_c, 0, 63, 69
5, 116280, Note_on_c, 0, 63, 0
5, 116400, Note_on_c, 0, 63, 79
5, 116520, Note_on_c, 0, 63, 0
5, 116520, Note_on_c, 0, 62, 79
5, 116640, Note_on_c, 0, 62, 0
5, 116640, Note_on_c, 0, 63, 84
5, 116760, Note_on_c, 0, 63, 0
5, 116880, Note_on_c, 0, 58, 73
5, 117120, Note_on_c, 0, 58, 0
5, 117120, Note_on_c, 0, 60, 73
5, 118320, Note_on_c, 0, 60, 0
5, 118320, Note_on_c, 0, 62, 72
5, 118440, Note_on_c, 0, 62, 0
5, 118440, Note_on_c, 0, 63, 73
5, 118560, Note_on_c, 0, 63, 0
5, 118560, Note_on_c, 0, 65, 75
5, 118680, Note_on_c, 0, 65, 0
5, 118680, Note_on_c, 0, 63, 73
5, 118800, Note_on_c, 0, 63, 0
5, 118800, Note_on_c, 0, 65, 75
5, 118920, Note_on_c, 0, 65, 0
5, 118920, Note_on_c, 0, 62, 73
5, 119040, Note_on_c, 0, 62, 0
5, 119040, Note_on_c, 0, 59, 75
5, 119160, Note_on_c, 0, 59, 0
5, 119760, Note_on_c, 0, 59, 63
5, 120000, Note_on_c, 0, 59, 0
5, 120000, Note_on_c, 0, 60, 63
5, 120120, Note_on_c, 0, 60, 0
5, 120720, Note_on_c, 0, 63, 65
5, 120960, Note_on_c, 0, 63, 0
5, 120960, Note_on_c, 0, 62, 65
5, 121080, Note_on_c, 0, 62, 0
5, 121680, Note_on_c, 0, 65, 70
5, 122160, Note_on_c, 0, 65, 0
5, 122640, Note_on_c, 0, 65, 67
5, 122880, Note_on_c, 0, 65, 0
5, 122880, Note_on_c, 0, 63, 65
5, 123000, Note_on_c, 0, 63, 0
5, 123120, Note_on_c, 0, 68, 66
5, 123360, Note_on_c, 0, 68, 0
5, 123360, Note_on_c, 0, 67, 65
5, 123600, Note_on_c, 0, 67, 0
5, 123600, Note_on_c, 0, 65, 64
5, 123840, Note_on_c, 0, 65, 0
5, 123840, Note_on_c, 0, 63, 71
5, 123960, Note_on_c, 0, 63, 0
5, 124080, Note_on_c, 0, 62, 69
5, 124320, Note_on_c, 0, 62, 0
5, 124320, Note_on_c, 0, 63, 67
5, 124560, Note_on_c, 0, 63, 0
5, 124800, Note_on_c, 0, 59, 69
5, 124920, Note_on_c, 0, 59, 0
5, 125040, Note_on_c, 0, 60, 65
5, 125280, Note_on_c, 0, 60, 0
5, 125280, Note_on_c, 0, 62, 69
5, 125400, Note_on_c, 0, 62, 0
5, 125520, Note_on_c, 0, 59, 65
5, 125760, Note_on_c, 0, 59, 0
5, 125760, Note_on_c, 0, 59, 88
5, 126000, Note_on_c, 0, 59, 0
5, 126000, Note_on_c, 0, 60, 62
5, 126240, Note_on_c, 0, 60, 0
5, 126480, Note_on_c, 0, 60, 68
5, 126720, Note_on_c, 0, 60, 0
5, 126720, Note_on_c, 0, 65, 75
5, 126840, Note_on_c, 0, 65, 0
5, 126840, Note_on_c, 0, 62, 72
5, 126960, Note_on_c, 0, 62, 0
5, 126960, Note_on_c, 0, 63, 77
5, 127080, Note_on_c, 0, 63, 0
5, 127080, Note_on_c, 0, 60, 71
5, 127440, Note_on_c, 0, 60, 0
5, 127440, Note_on_c, 0, 59, 74
5, 127680, Note_on_c, 0, 59, 0
5, 127680, Note_on_c, 0, 60, 81
5, 127920, Note_on_c, 0, 60, 0
5, 128400, Note_on_c, 0, 64, 65
5, 128640, Note_on_c, 0, 64, 0
5, 128640, Note_on_c, 0, 65, 66
5, 128760, Note_on_c, 0, 65, 0
5, 129360, Note_on_c, 0, 71, 45
5, 129360, Note_on_c, 0, 68, 45
5, 129360, Note_on_c, 0, 65, 45
5, 129600, Note_on_c, 0, 65, 0
5, 129600, Note_on_c, 0, 68, 0
5, 129600, Note_on_c, 0, 71, 0
5, 129600, Note_on_c, 0, 65, 60
5, 129720, Note_on_c, 0, 65, 0
5, 129840, Note_on_c, 0, 63, 64
5, 129960, Note_on_c, 0, 63, 0
5, 129960, Note_on_c, 0, 62, 64
5, 130080, Note_on_c, 0, 62, 0
5, 130080, Note_on_c, 0, 63, 69
5, 130320, Note_on_c, 0, 63, 0
5, 130320, Note_on_c, 0, 68, 57
5, 130320, Note_on_c, 0, 65, 57
5, 130540, Note_on_c, 0, 65, 0
5, 130540, Note_on_c, 0, 68, 0
5, 130560, Note_on_c, 0, 59, 53
5, 130560, Note_on_c, 0, 62, 53
5, 130800, Note_on_c, 0, 62, 0
5, 130800, Note_on_c, 0, 59, 0
5, 131040, Note_on_c, 0, 59, 46
5, 131040, Note_on_c, 0, 62, 46
5, 131280, Note_on_c, 0, 62, 0
5, 131280, Note_on_c, 0, 59, 0
5, 131520, Note_on_c, 0, 55, 36
5, 131520, Note_on_c, 0, 60, 36
5, 132480, Note_on_c, 0, 60, 0
5, 132480, Note_on_c, 0, 55, 0
5, 132480, End_track
6, 0, Start_track
6, 0, MIDI_port, 0
6, 0, Title_t, "Fuga 3"
6, 0, Program_c, 0, 0
6, 0, Control_c, 0, 7, 100
6, 0, Control_c, 0, 10, 64
6, 72960, Control_c, 0, 91, 127
6, 84480, Control_c, 0, 91, 127
6, 84720, Note_on_c, 0, 60, 81
6, 84840, Note_on_c, 0, 60, 0
6, 84840, Note_on_c, 0, 59, 81
6, 84960, Note_on_c, 0, 59, 0
6, 84960, Note_on_c, 0, 60, 86
6, 85080, Note_on_c, 0, 60, 0
6, 85200, Note_on_c, 0, 55, 71
6, 85440, Note_on_c, 0, 55, 0
6, 85440, Note_on_c, 0, 56, 72
6, 85560, Note_on_c, 0, 56, 0
6, 85680, Note_on_c, 0, 60, 81
6, 85800, Note_on_c, 0, 60, 0
6, 85800, Note_on_c, 0, 59, 81
6, 85920, Note_on_c, 0, 59, 0
6, 85920, Note_on_c, 0, 60, 86
6, 86040, Note_on_c, 0, 60, 0
6, 86160, Note_on_c, 0, 62, 76
6, 86400, Note_on_c, 0, 62, 0
6, 86400, Note_on_c, 0, 55, 73
6, 86520, Note_on_c, 0, 55, 0
6, 86640, Note_on_c, 0, 60, 81
6, 86760, Note_on_c, 0, 60, 0
6, 86760, Note_on_c, 0, 59, 81
6, 86880, Note_on_c, 0, 59, 0
6, 86880, Note_on_c, 0, 60, 86
6, 87000, Note_on_c, 0, 60, 0
6, 87120, Note_on_c, 0, 62, 77
6, 87240, Note_on_c, 0, 62, 0
6, 87360, Note_on_c, 0, 53, 72
6, 87480, Note_on_c, 0, 53, 0
6, 87480, Note_on_c, 0, 55, 72
6, 87600, Note_on_c, 0, 55, 0
6, 87600, Note_on_c, 0, 56, 74
6, 88080, Note_on_c, 0, 56, 0
6, 88080, Note_on_c, 0, 55, 73
6, 88200, Note_on_c, 0, 55, 0
6, 88200, Note_on_c, 0, 53, 73
6, 88320, Note_on_c, 0, 53, 0
6, 88320, Note_on_c, 0, 51, 72
6, 88380, Note_on_c, 0, 51, 0
6, 88440, Note_on_c, 0, 60, 75
6, 88560, Note_on_c, 0, 60, 0
6, 88560, Note_on_c, 0, 59, 74
6, 88680, Note_on_c, 0, 59, 0
6, 88680, Note_on_c, 0, 57, 73
6, 88800, Note_on_c, 0, 57, 0
6, 88800, Note_on_c, 0, 55, 72
6, 88920, Note_on_c, 0, 55, 0
6, 88920, Note_on_c, 0, 53, 70
6, 89040, Note_on_c, 0, 53, 0
6, 89040, Note_on_c, 0, 51, 69
6, 89160, Note_on_c, 0, 51, 0
6, 89160, Note_on_c, 0, 50, 68
6, 89280, Note_on_c, 0, 50, 0
6, 89280, Note_on_c, 0, 48, 67
6, 89400, Note_on_c, 0, 48, 0
6, 89400, Note_on_c, 0, 50, 70
6, 89520, Note_on_c, 0, 50, 0
6, 89520, Note_on_c, 0, 51, 71
6, 89640, Note_on_c, 0, 51, 0
6, 89640, Note_on_c, 0, 50, 70
6, 89760, Note_on_c, 0, 50, 0
6, 89760, Note_on_c, 0, 48, 67
6, 89880, Note_on_c, 0, 48, 0
6, 89880, Note_on_c, 0, 46, 71
6, 90000, Note_on_c, 0, 46, 0
6, 90000, Note_on_c, 0, 44, 70
6, 90120, Note_on_c, 0, 44, 0
6, 90120, Note_on_c, 0, 43, 68
6, 90240, Note_on_c, 0, 43, 0
6, 90240, Note_on_c, 0, 41, 67
6, 90300, Note_on_c, 0, 41, 0
6, 90360, Note_on_c, 0, 58, 74
6, 90480, Note_on_c, 0, 58, 0
6, 90480, Note_on_c, 0, 56, 74
6, 90600, Note_on_c, 0, 56, 0
6, 90600, Note_on_c, 0, 55, 73
6, 90720, Note_on_c, 0, 55, 0
6, 90720, Note_on_c, 0, 53, 72
6, 90840, Note_on_c, 0, 53, 0
6, 90840, Note_on_c, 0, 51, 72
6, 90960, Note_on_c, 0, 51, 0
6, 90960, Note_on_c, 0, 50, 71
6, 91080, Note_on_c, 0, 50, 0
6, 91080, Note_on_c, 0, 48, 70
6, 91200, Note_on_c, 0, 48, 0
6, 91200, Note_on_c, 0, 46, 70
6, 91320, Note_on_c, 0, 46, 0
6, 91320, Note_on_c, 0, 48, 71
6, 91440, Note_on_c, 0, 48, 0
6, 91440, Note_on_c, 0, 50, 71
6, 91560, Note_on_c, 0, 50, 0
6, 91560, Note_on_c, 0, 48, 73
6, 91680, Note_on_c, 0, 48, 0
6, 91680, Note_on_c, 0, 46, 71
6, 91800, Note_on_c, 0, 46, 0
6, 91800, Note_on_c, 0, 44, 70
6, 91920, Note_on_c, 0, 44, 0
6, 91920, Note_on_c, 0, 43, 68
6, 92040, Note_on_c, 0, 43, 0
6, 92040, Note_on_c, 0, 41, 66
6, 92160, Note_on_c, 0, 41, 0
6, 92160, Note_on_c, 0, 39, 65
6, 92220, Note_on_c, 0, 39, 0
6, 92280, Note_on_c, 0, 56, 75
6, 92400, Note_on_c, 0, 56, 0
6, 92400, Note_on_c, 0, 55, 74
6, 92520, Note_on_c, 0, 55, 0
6, 92520, Note_on_c, 0, 53, 73
6, 92640, Note_on_c, 0, 53, 0
6, 92640, Note_on_c, 0, 51, 72
6, 92760, Note_on_c, 0, 51, 0
6, 92760, Note_on_c, 0, 49, 71
6, 92880, Note_on_c, 0, 49, 0
6, 92880, Note_on_c, 0, 48, 70
6, 93000, Note_on_c, 0, 48, 0
6, 93000, Note_on_c, 0, 46, 69
6, 93120, Note_on_c, 0, 46, 0
6, 93120, Note_on_c, 0, 44, 68
6, 93240, Note_on_c, 0, 44, 0
6, 93360, Note_on_c, 0, 60, 75
6, 93600, Note_on_c, 0, 60, 0
6, 93600, Note_on_c, 0, 58, 74
6, 93840, Note_on_c, 0, 58, 0
6, 93840, Note_on_c, 0, 56, 72
6, 94080, Note_on_c, 0, 56, 0
6, 94080, Note_on_c, 0, 55, 72
6, 94200, Note_on_c, 0, 55, 0
6, 94320, Note_on_c, 0, 53, 66
6, 94560, Note_on_c, 0, 53, 0
6, 94560, Note_on_c, 0, 55, 69
6, 94800, Note_on_c, 0, 55, 0
6, 94800, Note_on_c, 0, 56, 71
6, 94980, Note_on_c, 0, 56, 0
6, 95040, Note_on_c, 0, 50, 65
6, 95280, Note_on_c, 0, 50, 0
6, 95280, Note_on_c, 0, 51, 69
6, 95520, Note_on_c, 0, 51, 0
6, 95520, Note_on_c, 0, 53, 72
6, 95760, Note_on_c, 0, 53, 0
6, 95760, Note_on_c, 0, 50, 68
6, 96000, Note_on_c, 0, 50, 0
6, 96000, Note_on_c, 0, 51, 67
6, 96120, Note_on_c, 0, 51, 0
6, 96240, Note_on_c, 0, 56, 56
6, 96480, Note_on_c, 0, 56, 0
6, 96480, Note_on_c, 0, 55, 55
6, 96720, Note_on_c, 0, 55, 0
6, 96720, Note_on_c, 0, 53, 53
6, 96960, Note_on_c, 0, 53, 0
6, 96960, Note_on_c, 0, 55, 55
6, 97080, Note_on_c, 0, 55, 0
6, 97200, Note_on_c, 0, 53, 56
6, 97440, Note_on_c, 0, 53, 0
6, 97440, Note_on_c, 0, 50, 55
6, 97680, Note_on_c, 0, 50, 0
6, 97680, Note_on_c, 0, 48, 52
6, 97920, Note_on_c, 0, 48, 0
6, 97920, Note_on_c, 0, 50, 50
6, 98040, Note_on_c, 0, 50, 0
6, 98160, Note_on_c, 0, 58, 54
6, 98400, Note_on_c, 0, 58, 0
6, 98400, Note_on_c, 0, 56, 52
6, 98640, Note_on_c, 0, 56, 0
6, 98640, Note_on_c, 0, 55, 51
6, 98880, Note_on_c, 0, 55, 0
6, 98880, Note_on_c, 0, 56, 54
6, 99000, Note_on_c, 0, 56, 0
6, 99120, Note_on_c, 0, 53, 55
6, 99360, Note_on_c, 0, 53, 0
6, 99360, Note_on_c, 0, 51, 52
6, 99600, Note_on_c, 0, 51, 0
6, 99600, Note_on_c, 0, 50, 48
6, 99840, Note_on_c, 0, 50, 0
6, 99840, Note_on_c, 0, 51, 63
6, 99960, Note_on_c, 0, 51, 0
6, 101040, Note_on_c, 0, 48, 59
6, 101280, Note_on_c, 0, 48, 0
6, 101280, Note_on_c, 0, 46, 58
6, 101520, Note_on_c, 0, 46, 0
6, 101520, Note_on_c, 0, 45, 56
6, 101760, Note_on_c, 0, 45, 0
6, 102000, Note_on_c, 0, 51, 57
6, 102240, Note_on_c, 0, 51, 0
6, 102240, Note_on_c, 0, 50, 56
6, 102480, Note_on_c, 0, 50, 0
6, 102480, Note_on_c, 0, 48, 55
6, 102660, Note_on_c, 0, 48, 0
6, 102720, Note_on_c, 0, 50, 59
6, 102960, Note_on_c, 0, 50, 0
6, 102960, Note_on_c, 0, 48, 58
6, 103080, Note_on_c, 0, 48, 0
6, 103080, Note_on_c, 0, 46, 58
6, 103200, Note_on_c, 0, 46, 0
6, 103200, Note_on_c, 0, 48, 58
6, 103440, Note_on_c, 0, 48, 0
6, 103440, Note_on_c, 0, 50, 56
6, 103680, Note_on_c, 0, 50, 0
6, 103680, Note_on_c, 0, 43, 63
6, 103800, Note_on_c, 0, 43, 0
6, 103920, Note_on_c, 0, 58, 70
6, 104040, Note_on_c, 0, 58, 0
6, 104040, Note_on_c, 0, 57, 70
6, 104160, Note_on_c, 0, 57, 0
6, 104160, Note_on_c, 0, 58, 73
6, 104280, Note_on_c, 0, 58, 0
6, 104400, Note_on_c, 0, 50, 58
6, 104520, Note_on_c, 0, 50, 0
6, 104640, Note_on_c, 0, 51, 63
6, 104760, Note_on_c, 0, 51, 0
6, 104880, Note_on_c, 0, 60, 69
6, 105000, Note_on_c, 0, 60, 0
6, 105000, Note_on_c, 0, 59, 69
6, 105120, Note_on_c, 0, 59, 0
6, 105120, Note_on_c, 0, 60, 73
6, 105240, Note_on_c, 0, 60, 0
6, 105360, Note_on_c, 0, 52, 58
6, 105480, Note_on_c, 0, 52, 0
6, 105600, Note_on_c, 0, 53, 63
6, 105720, Note_on_c, 0, 53, 0
6, 105840, Note_on_c, 0, 62, 75
6, 105960, Note_on_c, 0, 62, 0
6, 105960, Note_on_c, 0, 60, 75
6, 106080, Note_on_c, 0, 60, 0
6, 106080, Note_on_c, 0, 62, 80
6, 106200, Note_on_c, 0, 62, 0
6, 106320, Note_on_c, 0, 54, 63
6, 106440, Note_on_c, 0, 54, 0
6, 106560, Note_on_c, 0, 55, 65
6, 106680, Note_on_c, 0, 55, 0
6, 107160, Note_on_c, 0, 43, 54
6, 107280, Note_on_c, 0, 43, 0
6, 107280, Note_on_c, 0, 45, 57
6, 107400, Note_on_c, 0, 45, 0
6, 107400, Note_on_c, 0, 47, 59
6, 107520, Note_on_c, 0, 47, 0
6, 107520, Note_on_c, 0, 48, 62
6, 107640, Note_on_c, 0, 48, 0
6, 107640, Note_on_c, 0, 50, 64
6, 107760, Note_on_c, 0, 50, 0
6, 107760, Note_on_c, 0, 51, 66
6, 108120, Note_on_c, 0, 51, 0
6, 108120, Note_on_c, 0, 45, 58
6, 108240, Note_on_c, 0, 45, 0
6, 108240, Note_on_c, 0, 46, 60
6, 108360, Note_on_c, 0, 46, 0
6, 108360, Note_on_c, 0, 48, 63
6, 108480, Note_on_c, 0, 48, 0
6, 108480, Note_on_c, 0, 50, 65
6, 108600, Note_on_c, 0, 50, 0
6, 108600, Note_on_c, 0, 51, 67
6, 108720, Note_on_c, 0, 51, 0
6, 108720, Note_on_c, 0, 53, 70
6, 109080, Note_on_c, 0, 53, 0
6, 109080, Note_on_c, 0, 47, 59
6, 109200, Note_on_c, 0, 47, 0
6, 109200, Note_on_c, 0, 48, 62
6, 109320, Note_on_c, 0, 48, 0
6, 109320, Note_on_c, 0, 50, 64
6, 109440, Note_on_c, 0, 50, 0
6, 109440, Note_on_c, 0, 51, 67
6, 109560, Note_on_c, 0, 51, 0
6, 110160, Note_on_c, 0, 52, 61
6, 110400, Note_on_c, 0, 52, 0
6, 110400, Note_on_c, 0, 56, 66
6, 110520, Note_on_c, 0, 56, 0
6, 110640, Note_on_c, 0, 41, 60
6, 110880, Note_on_c, 0, 41, 0
6, 110880, Note_on_c, 0, 39, 59
6, 111120, Note_on_c, 0, 39, 0
6, 111120, Note_on_c, 0, 38, 58
6, 111360, Note_on_c, 0, 38, 0
6, 111600, Note_on_c, 0, 44, 61
6, 111840, Note_on_c, 0, 44, 0
6, 111840, Note_on_c, 0, 43, 59
6, 112080, Note_on_c, 0, 43, 0
6, 112080, Note_on_c, 0, 41, 57
6, 112320, Note_on_c, 0, 41, 0
6, 112320, Note_on_c, 0, 43, 56
6, 112440, Note_on_c, 0, 43, 0
6, 112560, Note_on_c, 0, 41, 62
6, 112680, Note_on_c, 0, 41, 0
6, 112680, Note_on_c, 0, 39, 62
6, 112800, Note_on_c, 0, 39, 0
6, 112800, Note_on_c, 0, 41, 67
6, 112920, Note_on_c, 0, 41, 0
6, 113040, Note_on_c, 0, 43, 55
6, 113160, Note_on_c, 0, 43, 0
6, 113280, Note_on_c, 0, 48, 58
6, 113400, Note_on_c, 0, 48, 0
6, 113400, Note_on_c, 0, 50, 58
6, 113520, Note_on_c, 0, 50, 0
6, 113520, Note_on_c, 0, 51, 59
6, 113640, Note_on_c, 0, 51, 0
6, 113640, Note_on_c, 0, 50, 58
6, 113760, Note_on_c, 0, 50, 0
6, 113760, Note_on_c, 0, 48, 57
6, 113880, Note_on_c, 0, 48, 0
6, 113880, Note_on_c, 0, 46, 57
6, 114000, Note_on_c, 0, 46, 0
6, 114000, Note_on_c, 0, 44, 56
6, 114120, Note_on_c, 0, 44, 0
6, 114120, Note_on_c, 0, 43, 55
6, 114240, Note_on_c, 0, 43, 0
6, 114240, Note_on_c, 0, 41, 54
6, 114300, Note_on_c, 0, 41, 0
6, 114360, Note_on_c, 0, 58, 59
6, 114480, Note_on_c, 0, 58, 0
6, 114480, Note_on_c, 0, 56, 59
6, 114600, Note_on_c, 0, 56, 0
6, 114600, Note_on_c, 0, 55, 58
6, 114720, Note_on_c, 0, 55, 0
6, 114720, Note_on_c, 0, 53, 57
6, 114840, Note_on_c, 0, 53, 0
6, 114840, Note_on_c, 0, 51, 57
6, 114960, Note_on_c, 0, 51, 0
6, 114960, Note_on_c, 0, 50, 56
6, 115080, Note_on_c, 0, 50, 0
6, 115080, Note_on_c, 0, 48, 55
6, 115200, Note_on_c, 0, 48, 0
6, 115200, Note_on_c, 0, 46, 55
6, 115320, Note_on_c, 0, 46, 0
6, 115320, Note_on_c, 0, 48, 57
6, 115440, Note_on_c, 0, 48, 0
6, 115440, Note_on_c, 0, 50, 60
6, 115560, Note_on_c, 0, 50, 0
6, 115560, Note_on_c, 0, 48, 59
6, 115680, Note_on_c, 0, 48, 0
6, 115680, Note_on_c, 0, 46, 58
6, 115800, Note_on_c, 0, 46, 0
6, 115800, Note_on_c, 0, 44, 57
6, 115920, Note_on_c, 0, 44, 0
6, 115920, Note_on_c, 0, 43, 57
6, 116040, Note_on_c, 0, 43, 0
6, 116040, Note_on_c, 0, 41, 56
6, 116160, Note_on_c, 0, 41, 0
6, 116160, Note_on_c, 0, 39, 55
6, 116220, Note_on_c, 0, 39, 0
6, 116280, Note_on_c, 0, 56, 61
6, 116400, Note_on_c, 0, 56, 0
6, 116400, Note_on_c, 0, 55, 60
6, 116520, Note_on_c, 0, 55, 0
6, 116520, Note_on_c, 0, 53, 60
6, 116640, Note_on_c, 0, 53, 0
6, 116640, Note_on_c, 0, 51, 59
6, 116760, Note_on_c, 0, 51, 0
6, 116760, Note_on_c, 0, 50, 58
6, 116880, Note_on_c, 0, 50, 0
6, 116880, Note_on_c, 0, 48, 57
6, 117000, Note_on_c, 0, 48, 0
6, 117000, Note_on_c, 0, 46, 57
6, 117120, Note_on_c, 0, 46, 0
6, 117120, Note_on_c, 0, 44, 56
6, 117240, Note_on_c, 0, 44, 0
6, 117240, Note_on_c, 0, 46, 57
6, 117360, Note_on_c, 0, 46, 0
6, 117360, Note_on_c, 0, 48, 60
6, 117480, Note_on_c, 0, 48, 0
6, 117480, Note_on_c, 0, 46, 58
6, 117600, Note_on_c, 0, 46, 0
6, 117600, Note_on_c, 0, 44, 58
6, 117720, Note_on_c, 0, 44, 0
6, 117720, Note_on_c, 0, 43, 57
6, 117840, Note_on_c, 0, 43, 0
6, 117840, Note_on_c, 0, 41, 57
6, 117960, Note_on_c, 0, 41, 0
6, 117960, Note_on_c, 0, 39, 56
6, 118080, Note_on_c, 0, 39, 0
6, 118080, Note_on_c, 0, 38, 56
6, 118140, Note_on_c, 0, 38, 0
6, 118200, Note_on_c, 0, 55, 56
6, 118320, Note_on_c, 0, 55, 0
6, 118320, Note_on_c, 0, 53, 60
6, 118440, Note_on_c, 0, 53, 0
6, 118440, Note_on_c, 0, 51, 59
6, 118560, Note_on_c, 0, 51, 0
6, 118560, Note_on_c, 0, 50, 59
6, 118680, Note_on_c, 0, 50, 0
6, 118680, Note_on_c, 0, 48, 58
6, 118800, Note_on_c, 0, 48, 0
6, 118800, Note_on_c, 0, 47, 57
6, 118920, Note_on_c, 0, 47, 0
6, 118920, Note_on_c, 0, 45, 56
6, 119040, Note_on_c, 0, 45, 0
6, 119040, Note_on_c, 0, 43, 55
6, 119520, Note_on_c, 0, 43, 0
6, 120120, Note_on_c, 0, 43, 49
6, 120240, Note_on_c, 0, 43, 0
6, 120240, Note_on_c, 0, 45, 51
6, 120360, Note_on_c, 0, 45, 0
6, 120360, Note_on_c, 0, 47, 52
6, 120480, Note_on_c, 0, 47, 0
6, 120480, Note_on_c, 0, 48, 54
6, 120600, Note_on_c, 0, 48, 0
6, 120600, Note_on_c, 0, 50, 55
6, 120720, Note_on_c, 0, 50, 0
6, 120720, Note_on_c, 0, 51, 57
6, 120840, Note_on_c, 0, 51, 0
6, 120840, Note_on_c, 0, 53, 58
6, 120960, Note_on_c, 0, 53, 0
6, 120960, Note_on_c, 0, 55, 60
6, 121080, Note_on_c, 0, 55, 0
6, 121080, Note_on_c, 0, 53, 57
6, 121200, Note_on_c, 0, 53, 0
6, 121200, Note_on_c, 0, 56, 62
6, 121320, Note_on_c, 0, 56, 0
6, 121320, Note_on_c, 0, 55, 61
6, 121440, Note_on_c, 0, 55, 0
6, 121440, Note_on_c, 0, 53, 60
6, 121560, Note_on_c, 0, 53, 0
6, 121560, Note_on_c, 0, 51, 59
6, 121680, Note_on_c, 0, 51, 0
6, 121680, Note_on_c, 0, 50, 58
6, 121800, Note_on_c, 0, 50, 0
6, 121800, Note_on_c, 0, 48, 57
6, 121920, Note_on_c, 0, 48, 0
6, 121920, Note_on_c, 0, 47, 56
6, 122040, Note_on_c, 0, 47, 0
6, 122160, Note_on_c, 0, 48, 77
6, 122280, Note_on_c, 0, 48, 0
6, 122280, Note_on_c, 0, 47, 77
6, 122400, Note_on_c, 0, 47, 0
6, 122400, Note_on_c, 0, 48, 80
6, 122520, Note_on_c, 0, 48, 0
6, 122640, Note_on_c, 0, 43, 71
6, 122880, Note_on_c, 0, 43, 0
6, 122880, Note_on_c, 0, 44, 71
6, 123000, Note_on_c, 0, 44, 0
6, 123120, Note_on_c, 0, 48, 78
6, 123240, Note_on_c, 0, 48, 0
6, 123240, Note_on_c, 0, 47, 78
6, 123360, Note_on_c, 0, 47, 0
6, 123360, Note_on_c, 0, 48, 81
6, 123480, Note_on_c, 0, 48, 0
6, 123600, Note_on_c, 0, 50, 75
6, 123840, Note_on_c, 0, 50, 0
6, 123840, Note_on_c, 0, 43, 71
6, 123960, Note_on_c, 0, 43, 0
6, 124080, Note_on_c, 0, 48, 77
6, 124200, Note_on_c, 0, 48, 0
6, 124200, Note_on_c, 0, 47, 77
6, 124320, Note_on_c, 0, 47, 0
6, 124320, Note_on_c, 0, 48, 80
6, 124440, Note_on_c, 0, 48, 0
6, 124560, Note_on_c, 0, 50, 71
6, 124680, Note_on_c, 0, 50, 0
6, 124800, Note_on_c, 0, 41, 74
6, 124920, Note_on_c, 0, 41, 0
6, 124920, Note_on_c, 0, 43, 74
6, 125040, Note_on_c, 0, 43, 0
6, 125040, Note_on_c, 0, 44, 78
6, 125520, Note_on_c, 0, 44, 0
6, 125520, Note_on_c, 0, 43, 73
6, 125640, Note_on_c, 0, 43, 0
6, 125640, Note_on_c, 0, 41, 73
6, 125760, Note_on_c, 0, 41, 0
6, 125760, Note_on_c, 0, 39, 69
6, 126240, Note_on_c, 0, 39, 0
6, 126480, Note_on_c, 0, 51, 57
6, 126720, Note_on_c, 0, 51, 0
6, 126720, Note_on_c, 0, 50, 61
6, 126960, Note_on_c, 0, 50, 0
6, 126960, Note_on_c, 0, 48, 57
6, 127200, Note_on_c, 0, 48, 0
6, 127200, Note_on_c, 0, 55, 69
6, 127440, Note_on_c, 0, 55, 0
6, 127440, Note_on_c, 0, 43, 64
6, 127680, Note_on_c, 0, 43, 0
6, 127680, Note_on_c, 0, 48, 82
6, 127680, Note_on_c, 0, 36, 82
6, 132480, Note_on_c, 0, 36, 0
6, 132480, Note_on_c, 0, 48, 0
6, 132480, End_track
7, 0, Start_track
7, 0, MIDI_port, 0
7, 0, Title_t, "Bach: Prelude & Fugue in C minor, BWV 847"
7, 0, End_track
8, 0, Start_track
8, 0, MIDI_port, 0
8, 0, Title_t, "Copyright 2004 by Bernd Krüger."
8, 0, End_track
9, 0, Start_track
9, 0, MIDI_port, 0
9, 0, Title_t, "http://www.piano-midi.de"
9, 0, End_track
10, 0, Start_track
10, 0, MIDI_port, 0
10, 0, Title_t, "Edition: 26.9.2004"
10, 0, End_track
0, 0, End_of_file
